<svg xmlns="http://www.w3.org/2000/svg" viewBox="0 0 77 97.43"><defs><style>.cls-1{fill:#f6851f;}.cls-2{fill:#f26122;}.cls-3{fill:none;stroke:#f26122;stroke-miterlimit:10;}</style></defs><g id="Layer_2" data-name="Layer 2"><g id="Layer_1-2" data-name="Layer 1"><path class="cls-1" d="M57.8,65a16,16,0,0,1-1.6,6.5,27.11,27.11,0,0,1-3,4.5,19.26,19.26,0,0,1-27.9,1.5,20.64,20.64,0,0,1-3.3-4c1.3-9.3,6.1-14.6,11.7-17.7a9.28,9.28,0,0,0,4.7,17.1c5.2.1,8.9-3.9,9.4-9.1-.3-5.3-4-9.3-9.2-9.3a10.48,10.48,0,0,0-3.6.7c8.7-4.2,18.6-3.3,19.1-3.3h0a19.32,19.32,0,0,1,3.6,7.5A20.93,20.93,0,0,1,57.8,65Z"/><path class="cls-2" d="M54,51.8c-.4,0-10.3-.9-19.1,3.3-.1,0-.1,0-.2.1-.4.2-.7.4-1.1.6h0C28,58.9,23.2,64.2,21.9,73.5a18.73,18.73,0,0,1-2.3-5.2c-.2-.9-.3-1.8-.4-2.6-.1-2.8-.1-5.6-.1-8.4v-2c.1-4.3.1-6.8.1-12.5,0-1.1,0-2.7.1-4.8,3.3-.8,6.6-1.5,9.9-2.2,0,5.2,0,8.8-.2,9.8,0,.2-.1.7.2.9s.4,0,.9-.2a19.21,19.21,0,0,1,16.4-.1A23.31,23.31,0,0,1,53,51,1.89,1.89,0,0,1,54,51.8Z"/><path class="cls-1" d="M10.5,0V24.2C9.1,7.4.2.7.2.7V0Z"/><path class="cls-1" d="M77,59.7C75.5,29.2,50.4,28.3,33.8,31.2c-.1,0-.3.1-.4.1h0A94.73,94.73,0,0,0,19.2,35h0c0-2.8.1-5.5.2-8.3a1.36,1.36,0,0,1,.7-1.1,38.13,38.13,0,0,1,11-4,40.35,40.35,0,0,1,9.2-.7,38.27,38.27,0,0,1,25,10.6,36.49,36.49,0,0,1,8.8,13.1,36.56,36.56,0,0,1,1.8,4.6,36.32,36.32,0,0,1,1,4.5C76.9,55.8,77,57.8,77,59.7Z"/><path class="cls-2" d="M10.5,62.5c0-.2-.1-.5-.1-.7V50.2C10.6,54.1,10.7,58.2,10.5,62.5Z"/><path class="cls-3" d="M77,59.8h0"/><path class="cls-2" d="M77,59.7a37.08,37.08,0,0,1-.3,4.7,30.43,30.43,0,0,1-1.3,5.2,39.36,39.36,0,0,1-8.6,15.3,37.36,37.36,0,0,1-22,12,37.5,37.5,0,0,1-29.9-7.6A37.54,37.54,0,0,1,1.6,69.5,31.75,31.75,0,0,1,.2,63.4C0,61.3.1,59.2,0,56.8c.2-3-.1-6.2.1-9.5V35.9a13.35,13.35,0,0,0,0-2V.6s9,6.8,10.3,23.5V61.6a1.7,1.7,0,0,0,.1.7h0a27,27,0,0,0,.4,2.8,22.8,22.8,0,0,0,5.2,11.5A32.4,32.4,0,0,0,23,83a28.36,28.36,0,0,0,13.8,4.6,28,28,0,0,0,16-3.8,29.05,29.05,0,0,0,11.3-12c1.7-3.3,2.1-6.8,2.7-10.4a16.2,16.2,0,0,0,0-4.4A74.87,74.87,0,0,0,65,49.1a23.43,23.43,0,0,0-6.7-10.5A28.07,28.07,0,0,0,43.4,31a27.55,27.55,0,0,0-9.5,0C50.4,28.4,75.4,29.2,77,59.7Z"/><path class="cls-2" d="M10.5,33.1V24.2A66,66,0,0,1,10.5,33.1Z"/></g></g></svg>