<?xml version="1.0" encoding="UTF-8"?>
<svg xmlns="http://www.w3.org/2000/svg" xmlns:xlink="http://www.w3.org/1999/xlink" width="200px" height="200px" viewBox="0 0 200 200" version="1.1">
<g id="surface1">
<path style=" stroke:none;fill-rule:nonzero;fill:rgb(6.666667%,49.019608%,25.098039%);fill-opacity:1;" d="M 200 100 C 200 155.226562 155.226562 200 100 200 C 44.773438 200 0 155.226562 0 100 C 0 44.773438 44.773438 0 100 0 C 155.226562 0 200 44.773438 200 100 Z M 200 100 "/>
<path style=" stroke:none;fill-rule:nonzero;fill:rgb(100%,100%,100%);fill-opacity:1;" d="M 101.121094 25.984375 C 97.4375 26.207031 94.398438 27.359375 91.785156 29.5 C 88.988281 31.800781 86.5 35.808594 85.613281 39.453125 C 84.421875 44.335938 84.558594 53.273438 85.976562 64.402344 C 86.191406 66.058594 86.363281 67.445312 86.363281 67.476562 C 86.359375 67.515625 85.933594 66.742188 85.417969 65.773438 C 82.269531 59.902344 78.777344 54.09375 76.386719 50.738281 C 74.613281 48.246094 72.304688 45.863281 70.28125 44.425781 C 68.464844 43.128906 66.3125 42.085938 64.21875 41.488281 C 62.726562 41.050781 59.882812 40.851562 58.273438 41.0625 C 55.351562 41.4375 52.230469 42.632812 50.3125 44.101562 C 47.253906 46.433594 45.554688 50.796875 45.660156 56.035156 C 45.703125 57.835938 46.089844 60.929688 46.390625 61.902344 C 46.433594 62.023438 46.246094 62.09375 45.507812 62.230469 C 38.226562 63.535156 32.191406 69.039062 30.519531 75.878906 C 30.28125 76.84375 30.226562 77.332031 30.179688 78.5625 C 30.152344 79.382812 30.171875 80.40625 30.234375 80.820312 C 30.859375 85.175781 33.410156 89.003906 37.507812 91.773438 C 41.011719 94.136719 45.28125 95.445312 51.785156 96.160156 C 57.386719 96.773438 64.96875 96.722656 72.304688 96.011719 C 73.535156 95.898438 74.515625 95.828125 74.472656 95.855469 C 74.429688 95.882812 73.90625 96.203125 73.300781 96.5625 C 68.71875 99.320312 64.28125 102.519531 60.527344 105.785156 C 55.734375 109.949219 53.421875 112.765625 51.511719 116.742188 C 47.863281 124.328125 48.078125 130.816406 52.132812 135.480469 C 54.09375 137.734375 56.492188 139.246094 59.480469 140.105469 C 60.734375 140.476562 63.953125 140.800781 65.628906 140.746094 C 67.78125 140.667969 70.292969 140.261719 72.59375 139.628906 C 73.238281 139.453125 73.769531 139.320312 73.777344 139.332031 C 73.777344 139.34375 73.9375 139.773438 74.121094 140.289062 C 75.3125 143.640625 77.6875 146.621094 80.460938 148.261719 C 82.578125 149.519531 85.183594 150.125 87.988281 150.007812 C 94.460938 149.761719 98.886719 146.640625 101.398438 140.550781 C 102.53125 137.8125 102.9375 135.769531 102.96875 132.613281 C 103.011719 128.957031 102.726562 124.847656 102.078125 119.929688 C 101.921875 118.734375 101.8125 117.753906 101.820312 117.734375 C 101.84375 117.726562 102.011719 118.191406 102.210938 118.765625 C 102.746094 120.277344 104.054688 123.507812 104.828125 125.183594 C 108.460938 133.046875 112.90625 139.582031 117.828125 144.308594 C 124.046875 150.265625 134.734375 156.136719 145.921875 159.734375 C 149.097656 160.757812 152.140625 161.523438 153.335938 161.605469 C 153.894531 161.644531 153.957031 161.628906 154.269531 161.320312 C 154.785156 160.804688 155.007812 160.078125 155.109375 158.621094 C 155.210938 157.164062 155.0625 156.144531 154.5625 154.945312 C 154.21875 154.140625 153.421875 153.101562 152.824219 152.699219 C 152.15625 152.238281 151.273438 151.949219 147.289062 150.855469 C 141.625 149.308594 138.914062 148.367188 135.386719 146.765625 C 130.597656 144.578125 125.511719 141.363281 122.339844 138.515625 C 118.292969 134.886719 114.144531 129.574219 110.359375 123.214844 C 109.078125 121.050781 107.0625 117.289062 107.378906 117.644531 C 107.4375 117.695312 107.921875 118.34375 108.472656 119.074219 C 111.730469 123.390625 114.992188 126.625 117.980469 128.488281 C 122.820312 131.503906 127.742188 132.78125 132.078125 132.152344 C 135.136719 131.703125 138.308594 130.210938 140.765625 128.058594 C 142.398438 126.628906 143.679688 124.773438 144.378906 122.835938 C 145.859375 118.730469 145.570312 113.386719 143.578125 108.164062 C 143.367188 107.617188 143.21875 107.148438 143.238281 107.128906 C 143.261719 107.109375 143.816406 106.917969 144.464844 106.703125 C 147.785156 105.621094 151.078125 103.6875 153.136719 101.625 C 155.605469 99.152344 156.84375 96.503906 157.066406 93.199219 C 157.65625 84.4375 150.957031 77.035156 140.984375 75.425781 C 136.910156 74.769531 129.941406 75.414062 123.175781 77.085938 C 122.308594 77.296875 121.679688 77.421875 121.792969 77.371094 C 129.085938 73.449219 134.445312 69.503906 137.851562 65.519531 C 141.878906 60.800781 143.316406 56.308594 142.15625 52.097656 C 141.828125 50.914062 141.460938 50.046875 140.796875 48.894531 C 138.382812 44.71875 134.746094 42.226562 129.210938 40.960938 C 127.496094 40.566406 122.933594 40.269531 120.96875 40.433594 C 120.183594 40.488281 119.4375 40.566406 119.304688 40.585938 C 119.082031 40.621094 119.046875 40.570312 118.820312 39.742188 C 118.488281 38.476562 117.304688 35.625 116.5625 34.328125 C 114.089844 29.996094 110.78125 27.308594 106.773438 26.378906 C 105.59375 26.105469 102.582031 25.90625 101.121094 25.984375 Z M 114.753906 47.074219 C 114.753906 47.105469 114.074219 47.910156 113.246094 48.855469 C 108.375 54.449219 105.121094 58.941406 102.511719 63.722656 C 100.914062 66.640625 98.324219 72.019531 97.398438 74.363281 C 97.25 74.753906 97.109375 75.054688 97.089844 75.03125 C 97.023438 74.96875 97.542969 72.71875 97.929688 71.382812 C 100.238281 63.28125 104.507812 56.425781 111.21875 50.066406 C 112.449219 48.898438 114.765625 46.9375 114.753906 47.074219 Z M 52.683594 65.289062 L 53.28125 65.332031 C 53.609375 65.355469 54.480469 65.496094 55.214844 65.648438 C 59.988281 66.621094 64.898438 68.507812 69.007812 70.933594 C 72.300781 72.875 75.855469 75.652344 78.820312 78.574219 C 79.964844 79.707031 81.605469 81.484375 81.382812 81.351562 C 81.304688 81.304688 80.660156 80.808594 79.957031 80.25 C 77.019531 77.9375 73.277344 75.269531 70.550781 73.558594 C 66.21875 70.828125 61.453125 68.609375 53.316406 65.523438 Z M 112.21875 92.679688 C 120.628906 93.648438 128.496094 96.964844 135.804688 102.597656 C 136.707031 103.304688 137.445312 103.886719 137.445312 103.90625 C 137.445312 103.925781 136.933594 103.660156 136.304688 103.304688 C 130.277344 99.925781 124.808594 97.398438 120.410156 95.960938 C 116.839844 94.796875 111.59375 93.449219 107.65625 92.691406 C 106.925781 92.550781 106.3125 92.425781 106.292969 92.40625 C 106.273438 92.382812 106.726562 92.375 107.296875 92.386719 C 109.417969 92.425781 110.574219 92.484375 112.21875 92.679688 Z M 87.953125 100.195312 C 87.917969 100.273438 87.480469 101.085938 86.976562 101.992188 C 84.003906 107.339844 81.554688 112.730469 80.199219 116.875 C 79.066406 120.355469 77.933594 124.785156 77.042969 129.207031 L 76.613281 131.332031 L 76.578125 130.527344 C 76.523438 129.171875 76.898438 124.523438 77.21875 122.804688 C 78.023438 118.296875 79.203125 114.652344 81.113281 110.695312 C 82.554688 107.707031 84.679688 104.289062 86.707031 101.664062 C 87.523438 100.617188 88.046875 100.003906 87.953125 100.195312 Z M 87.953125 100.195312 "/>
</g>
</svg>
