<svg xmlns="http://www.w3.org/2000/svg" width="200" height="200" style="shape-rendering:geometricPrecision;text-rendering:geometricPrecision;image-rendering:optimizeQuality;fill-rule:evenodd;clip-rule:evenodd"><path style="opacity:1" fill="#242f33" d="M68.5-.5h8c-1.052 1.756-2.719 2.423-5 2a19.374 19.374 0 0 0 1 8c-1.154 2.065-2.82 3.398-5 4h-4c.023-2.427.523-4.76 1.5-7 1 1.333 2 1.333 3 0 .497-2.31.663-4.643.5-7z"/><path style="opacity:1" fill="#253337" d="M84.5-.5h7a28.793 28.793 0 0 0-2 10c-6.37-2.302-8.037-.635-5 5-5.321-2.64-5.155-5.307.5-8a45.311 45.311 0 0 0-.5-7z"/><path style="opacity:1" fill="#181f22" d="M91.5-.5h34c.821 3.054.821 6.053 0 9a7.248 7.248 0 0 0-2.5 2c-2.338-3.336-5.504-4.502-9.5-3.5-1.333 2-1.333 4 0 6 2.859.553 5.692.386 8.5-.5 1.908.215 3.074 1.215 3.5 3h-37c.841-1.88 1.175-3.88 1-6a28.793 28.793 0 0 1 2-10z"/><path style="opacity:1" fill="#506167" d="M12.5 11.5c-2.333 1.333-4.667 1.333-7 0-1.987-7.038.18-8.705 6.5-5 .493 1.634.66 3.3.5 5z"/><path style="opacity:1" fill="#0d1415" d="M57.5-.5h11a24.939 24.939 0 0 1-.5 7c-1 1.333-2 1.333-3 0a17.759 17.759 0 0 0-1.5 7 88.715 88.715 0 0 0-4 2c-1.147-.318-1.98-.984-2.5-2a55.691 55.691 0 0 0-1.5-9c1.45-1.35 2.117-3.016 2-5z"/><path style="opacity:1" fill="#101517" d="M76.5-.5h8c.351 2.37.518 4.703.5 7-5.655 2.693-5.821 5.36-.5 8 0 .667.333 1 1 1a124.833 124.833 0 0 1-16 3c.109-2.014-.558-3.68-2-5 2.18-.602 3.846-1.935 5-4a19.374 19.374 0 0 1-1-8c2.281.423 3.948-.244 5-2z"/><path style="opacity:1" fill="#1d2528" d="M6.5-.5h27c.214 1.644-.12 3.144-1 4.5-4.339-1.72-7.672-.554-10 3.5a21.12 21.12 0 0 0 9 1v4c2.657-.338 4.99.329 7 2a23.355 23.355 0 0 0 3-7.5 32.437 32.437 0 0 1 8-.5c-.285 1.788.048 3.455 1 5a3.646 3.646 0 0 0 1.5-1c.31-2.056.81-4.056 1.5-6a21.628 21.628 0 0 0-5-4c-1.4 1.896-3.233 3.23-5.5 4-2.54-.707-3.707-2.373-3.5-5h18c.117 1.984-.55 3.65-2 5a55.691 55.691 0 0 1 1.5 9c.52 1.016 1.353 1.682 2.5 2a88.715 88.715 0 0 1 4-2c-1.333 1.667-1.333 3.333 0 5-1.544-.203-2.878-.87-4-2a30.943 30.943 0 0 1-2 2c-.693-3.67-2.693-4.67-6-3 1.353 1.024 2.02 2.357 2 4h3v3c-2.982.463-5.982.796-9 1-.02-1.643.647-2.976 2-4-1.896-2.381-2.23-4.881-1-7.5a18.436 18.436 0 0 0-6-.5c.214 1.644-.12 3.144-1 4.5-6.38 2.725-11.713 1.392-16-4a84.938 84.938 0 0 0-13-.5c.16-1.7-.007-3.366-.5-5-6.32-3.705-8.487-2.038-6.5 5-2.55-.384-3.883-1.884-4-4.5 1.196-2.895 2.863-5.395 5-7.5z"/><path style="opacity:1" fill="#0b0f11" d="M33.5-.5h6c-.207 2.627.96 4.293 3.5 5 2.267-.77 4.1-2.104 5.5-4a21.628 21.628 0 0 1 5 4 32.411 32.411 0 0 0-1.5 6c-.414.457-.914.79-1.5 1-.952-1.545-1.285-3.212-1-5a32.437 32.437 0 0 0-8 .5 23.355 23.355 0 0 1-3 7.5c-2.01-1.671-4.343-2.338-7-2v-4a21.12 21.12 0 0 1-9-1c2.328-4.054 5.661-5.22 10-3.5.88-1.356 1.214-2.856 1-4.5z"/><path style="opacity:1" fill="#415259" d="M98.5 6.5c3.57-.607 6.237.56 8 3.5a3.944 3.944 0 0 1-1 2 32.438 32.438 0 0 1-8 .5c-.175-2.12.159-4.12 1-6z"/><path style="opacity:1" fill="#172025" d="M138.5-.5h39a4.934 4.934 0 0 0 .5 3 26.69 26.69 0 0 0 6.5 1.5c.837 1.011 1.17 2.178 1 3.5a72.436 72.436 0 0 0-12 .5 546.043 546.043 0 0 1-8 8c-1.428.58-2.762.412-4-.5-2.217-.869-4.55-1.202-7-1-.982.64-1.982 1.307-3 2-1.195-1.797-2.862-2.797-5-3-5.167-1.008-6.834.825-5 5.5 1.634.494 3.301.66 5 .5 10.226 3.63 10.226 4.964 0 4 .086-.996-.248-1.83-1-2.5-4.951-.818-9.618-2.318-14-4.5-1.206-1.38-.873-2.547 1-3.5 2.56.438 5.06.271 7.5-.5-1.062-4.17-1.562-8.504-1.5-13z"/><path style="opacity:1" fill="#46555b" d="M162.5 4.5c4-.667 5.667 1 5 5h-6c-.134-1.792.199-3.458 1-5z"/><path style="opacity:1" fill="#495a5d" d="M89.5 9.5c.175 2.12-.159 4.12-1 6h-3c-.667 0-1-.333-1-1-3.037-5.635-1.37-7.302 5-5z"/><path style="opacity:1" fill="#36444a" d="M125.5-.5h4c-2.49 6.127-.49 9.46 6 10v-10h3c-.062 4.496.438 8.83 1.5 13-2.44.771-4.94.938-7.5.5-1.873.953-2.206 2.12-1 3.5-2.142.963-4.142.63-6-1-.426-1.785-1.592-2.785-3.5-3-2.808.886-5.641 1.053-8.5.5-1.333-2-1.333-4 0-6 3.996-1.002 7.162.164 9.5 3.5a7.248 7.248 0 0 1 2.5-2c.821-2.947.821-5.947 0-9z"/><path style="opacity:1" fill="#131c21" d="M129.5-.5h6v10c-6.49-.54-8.49-3.873-6-10z"/><path style="opacity:1" fill="#44555b" d="M63.5 13.5h4c1.442 1.32 2.109 2.986 2 5l-2 1c-1.599.268-2.932-.066-4-1-1.333-1.667-1.333-3.333 0-5z"/><path style="opacity:1" fill="#0b182a" d="M85.5 15.5h40c1.858 1.63 3.858 1.963 6 1 4.382 2.182 9.049 3.682 14 4.5.752.67 1.086 1.504 1 2.5-21.031-7.157-42.364-8.823-64-5-6.436.86-12.77 2.192-19 4 .948-1.478 2.28-2.478 4-3l2-1a124.833 124.833 0 0 0 16-3z"/><path style="opacity:1" fill="#3a494f" d="M199.5 8.5v12c-5.559 1.704-10.226 4.871-14 9.5a4.932 4.932 0 0 1-3 .5c-.262-1.478.071-2.811 1-4a150.982 150.982 0 0 1 12-8.5c-1.333-.667-2.667-.667-4 0a79.839 79.839 0 0 1-9 6.5c2.968-3.735 1.968-5.735-3-6 3.678-1.01 7.011-2.843 10-5.5a20.681 20.681 0 0 1 9 .5c-.284-1.915.049-3.581 1-5z"/><path style="opacity:1" fill="#516370" d="M146.5 23.5a36.656 36.656 0 0 1 7 4h-1a139.306 139.306 0 0 0-38-9l-5 .5c2.536.186 4.869.686 7 1.5-1.478.948-2.478 2.28-3 4h-5c-.272-6.382-1.272-6.548-3-.5a18.437 18.437 0 0 1-6 .5v-3h-4a97.56 97.56 0 0 0-13-3c21.636-3.823 42.969-2.157 64 5z"/><path style="opacity:1" fill="#4d5f63" d="M146.5 13.5c2.502 2.11 2.502 4.11 0 6a12.935 12.935 0 0 1-5-.5c-1.834-4.675-.167-6.508 5-5.5z"/><path style="opacity:1" fill="#6a8587" d="M57.5 18.5c0 .667-.333 1-1 1h-3c.02-1.643-.647-2.976-2-4 3.307-1.67 5.307-.67 6 3z"/><path style="opacity:1" fill="#718796" d="M82.5 18.5a97.56 97.56 0 0 1 13 3c-.086.996.248 1.83 1 2.5-2.264.236-4.43.736-6.5 1.5a9.468 9.468 0 0 0-2.5-1.5 4.452 4.452 0 0 0 2-1.5l-3.5-1a82.052 82.052 0 0 0-19.5 4c2.068-.875 4.068-2.041 6-3.5a173.015 173.015 0 0 1-9 1.5v-1a129.683 129.683 0 0 1 19-4z"/><path style="opacity:1" fill="#394c5a" d="M152.5 27.5a329.797 329.797 0 0 0 17 11.5 53.871 53.871 0 0 1 6 6.5v3a96.397 96.397 0 0 0-18-15c-12.532-7.556-26.198-11.89-41-13-2.131-.814-4.464-1.314-7-1.5l5-.5a139.306 139.306 0 0 1 38 9z"/><path style="opacity:1" fill="#2a3234" d="M9.5 25.5c-.774.647-1.774.98-3 1a29.89 29.89 0 0 1-7-2v-7c3.317-.72 6.65-.888 10-.5 3.83 3.148 3.83 5.981 0 8.5z"/><path style="opacity:1" fill="#54696e" d="M9.5 25.5h-5a29.772 29.772 0 0 1-2-7h4v3h4c.067 1.459-.266 2.792-1 4z"/><path style="opacity:1" fill="#63767f" d="M113.5 24.5a79.913 79.913 0 0 0 14 4h-7c-10.916-2.19-21.916-2.524-33-1-2.84.06-5.507.726-8 2 .13-.876-.203-1.543-1-2a249.043 249.043 0 0 0-15 5c.13-.876-.203-1.543-1-2-2.634 1.016-5.3 1.016-8 0a65.038 65.038 0 0 1 12-5 82.052 82.052 0 0 1 19.5-4l3.5 1a4.452 4.452 0 0 1-2 1.5c.916.374 1.75.874 2.5 1.5a26.692 26.692 0 0 1 6.5-1.5c-.752-.67-1.086-1.504-1-2.5h4v3a18.437 18.437 0 0 0 6-.5c1.728-6.048 2.728-5.882 3 .5h5z"/><path style="opacity:1" fill="#748c98" d="M116.5 20.5c14.802 1.11 28.468 5.444 41 13-.127 3.746-1.794 5.08-5 4 2.999-2.948 2.666-3.948-1-3-1.123-2.541-2.456-2.541-4 0 .825.886 1.825 1.219 3 1v3h-2c-1.928-1.974-4.261-3.474-7-4.5a338.13 338.13 0 0 1-14-5.5 79.913 79.913 0 0 1-14-4c.522-1.72 1.522-3.052 3-4z"/><path style="opacity:1" fill="#202a2f" d="M177.5-.5h22v9c-.951 1.419-1.284 3.085-1 5a20.681 20.681 0 0 0-9-.5c-2.989 2.657-6.322 4.49-10 5.5-1.187 2.475-3.187 3.475-6 3v4c1.89.203 3.39-.463 4.5-2 1.356.88 2.856 1.213 4.5 1a79.839 79.839 0 0 0 9-6.5c1.333-.667 2.667-.667 4 0a150.982 150.982 0 0 0-12 8.5c-.929 1.189-1.262 2.522-1 4a4.932 4.932 0 0 0 3-.5c3.774-4.629 8.441-7.796 14-9.5v3a7596.493 7596.493 0 0 1-16 11 17.9 17.9 0 0 0-4 6c-.543.06-.876.393-1 1a184.223 184.223 0 0 1 2 3h-2c-.667 0-1-.333-1-1-1.412-5.076-4.745-8.076-10-9l-14-7a36.656 36.656 0 0 0-7-4c10.226.964 10.226-.37 0-4 2.502-1.89 2.502-3.89 0-6 2.138.203 3.805 1.203 5 3 1.018-.693 2.018-1.36 3-2-.667 4 1 5.667 5 5v4c1.699.16 3.366-.006 5-.5 3.39-3.196 7.39-5.029 12-5.5v-4c-4.114.25-7.78 1.75-11 4.5a8.435 8.435 0 0 1-4 .5v-3c1.238.912 2.572 1.08 4 .5a546.043 546.043 0 0 0 8-8 72.436 72.436 0 0 1 12-.5c.17-1.322-.163-2.489-1-3.5a26.69 26.69 0 0 1-6.5-1.5 4.934 4.934 0 0 1-.5-3z"/><path style="opacity:1" fill="#657a82" d="M179.5 18.5c4.968.265 5.968 2.265 3 6-1.644.213-3.144-.12-4.5-1-1.11 1.537-2.61 2.203-4.5 2v-4c2.813.475 4.813-.525 6-3z"/><path style="opacity:1" fill="#47575e" d="M154.5 14.5c2.45-.202 4.783.131 7 1v3a8.435 8.435 0 0 0 4-.5c3.22-2.75 6.886-4.25 11-4.5v4c-4.61.471-8.61 2.304-12 5.5-1.634.494-3.301.66-5 .5v-4c-4 .667-5.667-1-5-5z"/><path style="opacity:1" fill="#4d6266" d="M189.5 2.5c4.659-.485 5.992 1.348 4 5.5-4.772.81-6.105-1.023-4-5.5z"/><path style="opacity:1" fill="#12181a" d="M-.5-.5h7C4.363 1.605 2.696 4.105 1.5 7c.117 2.616 1.45 4.116 4 4.5 2.333 1.333 4.667 1.333 7 0 4.346-.166 8.68.001 13 .5 4.287 5.392 9.62 6.725 16 4 .88-1.356 1.214-2.856 1-4.5a18.436 18.436 0 0 1 6 .5c-1.23 2.619-.896 5.119 1 7.5-1.353 1.024-2.02 2.357-2 4 3.018-.204 6.018-.537 9-1v-3c.667 0 1-.333 1-1a30.943 30.943 0 0 0 2-2c1.122 1.13 2.456 1.797 4 2 1.068.934 2.401 1.268 4 1-1.72.522-3.052 1.522-4 3a1845.117 1845.117 0 0 0-16 4v4a147.442 147.442 0 0 0-18 14h-1c.219-1.175-.114-2.175-1-3-1.195 1.797-2.862 2.797-5 3-3-.333-4.333 1-4 4-.667 0-1 .333-1 1A167.059 167.059 0 0 1 1 36.5c-.19-2.208-.69-4.208-1.5-6v-6a29.89 29.89 0 0 0 7 2c1.226-.02 2.226-.353 3-1 3.83-2.519 3.83-5.352 0-8.5a30.348 30.348 0 0 0-10 .5v-18z"/><path style="opacity:1" fill="#404d52" d="M18.5 18.5c4.23-.669 6.063.998 5.5 5-5.58 2.252-7.413.585-5.5-5z"/><path style="opacity:1" fill="#0c142a" d="M63.5 22.5v1a85.352 85.352 0 0 0-16 7v-4c5.381-1.37 10.714-2.704 16-4z"/><path style="opacity:1" fill="#0f1216" d="M120.5 28.5a44.093 44.093 0 0 0 3 2 14.729 14.729 0 0 1-5 1.5c1.455 1.626 3.122 2.792 5 3.5a397.287 397.287 0 0 0-28-2 159.327 159.327 0 0 1 18-1.5l-25-1a219.485 219.485 0 0 1 20-2 84.945 84.945 0 0 0-21.5.5l-2.5-.5c1.237-.232 2.237-.732 3-1.5 11.084-1.524 22.084-1.19 33 1z"/><path style="opacity:1" fill="#495f61" d="M4.5 31.5c2.477-.45 4.477.218 6 2-1.193 1.884-2.86 2.384-5 1.5-.837-1.011-1.17-2.178-1-3.5z"/><path style="opacity:1" fill="#1d272e" d="M87.5 27.5c-.763.768-1.763 1.268-3 1.5l2.5.5a84.945 84.945 0 0 1 21.5-.5 219.485 219.485 0 0 0-20 2l25 1c-6.181.172-12.181.672-18 1.5a29.22 29.22 0 0 0-9 1h-1a129.83 129.83 0 0 0-11 0 5.728 5.728 0 0 0 3-1 90.462 90.462 0 0 0 9-2.5c-4.01-.357-8.01-.19-12 .5 1.43-1.038 3.097-1.704 5-2 2.493-1.274 5.16-1.94 8-2z"/><path style="opacity:1" fill="#171614" d="M120.5 28.5h7a338.13 338.13 0 0 0 14 5.5c2.739 1.026 5.072 2.526 7 4.5a32.87 32.87 0 0 0 6 5.5c-1.663.265-3.163-.235-4.5-1.5-.3 1.566.2 2.899 1.5 4h-2c-6.045-6.02-13.379-9.354-22-10-1.068-.934-2.401-1.268-4-1-1.878-.708-3.545-1.874-5-3.5a14.729 14.729 0 0 0 5-1.5 44.093 44.093 0 0 1-3-2z"/><path style="opacity:1" fill="#2c3536" d="M30.5 21.5c3.717 1.027 7.05 2.86 10 5.5a8.434 8.434 0 0 0 4 .5c-.476 2.493-1.81 4.493-4 6l-9 5a98.125 98.125 0 0 1-11-8 9.106 9.106 0 0 1-5 1v-4c2.49-.202 4.823.298 7 1.5l9 7.5 4-3-2-4c1.103-.498 2.103-.83 3-1-1.176-2.177-3.01-3.51-5.5-4a4.932 4.932 0 0 1-.5-3z"/><path style="opacity:1" fill="#53656e" d="M199.5 23.5v4a86.152 86.152 0 0 0-18.5 14c-.383-.556-.883-.89-1.5-1a17.9 17.9 0 0 1 4-6 7596.493 7596.493 0 0 0 16-11z"/><path style="opacity:1" fill="#2d404e" d="M151.5 34.5c-.667 0-1 .333-1 1-1.175.219-2.175-.114-3-1 1.544-2.541 2.877-2.541 4 0z"/><path style="opacity:1" fill="#0a1b33" d="M95.5 33.5a397.287 397.287 0 0 1 28 2c1.599-.268 2.932.066 4 1 2.442 1.726 5.109 3.226 8 4.5-2.399.711-4.732.544-7-.5-.886.825-1.219 1.825-1 3a29.417 29.417 0 0 0-7-2c-1.679-.215-2.679.452-3 2-1.51-1.228-3.01-1.228-4.5 0a20.509 20.509 0 0 1-2.5-4.5l2-1c-1.284-.684-2.451-.517-3.5.5a9.457 9.457 0 0 0-1.5-2.5c-5.762-1.064-11.096-.23-16 2.5-1.459-.067-2.792.266-4 1-.086-.996.248-1.83 1-2.5-.88-.708-1.547-1.542-2-2.5a29.22 29.22 0 0 1 9-1z"/><path style="opacity:1" fill="#12192e" d="M167.5 34.5c5.255.924 8.588 3.924 10 9a1481.19 1481.19 0 0 1-10-9z"/><path style="opacity:1" fill="#c9dfe1" d="M79.5 29.5c-1.903.296-3.57.962-5 2-10.54 2.934-19.873 7.934-28 15a32.258 32.258 0 0 0-10 9c-1.025-.397-1.192-1.063-.5-2 8.066-8.597 17.233-15.597 27.5-21a249.043 249.043 0 0 1 15-5c.797.457 1.13 1.124 1 2z"/><path style="opacity:1" fill="#bbdce2" d="M66.5 25.5a65.038 65.038 0 0 0-12 5c-9.181 4.086-17.515 9.42-25 16v-2a147.442 147.442 0 0 1 18-14 85.352 85.352 0 0 1 16-7c3.096-.435 6.096-.935 9-1.5-1.932 1.459-3.932 2.625-6 3.5z"/><path style="opacity:1" fill="#7a95ab" d="M152.5 27.5h1l14 7c3.292 2.99 6.626 5.99 10 9 0 .667.333 1 1 1 6.692 7.05 11.025 15.383 13 25 1.191 5.145 1.191 10.145 0 15a72.271 72.271 0 0 0-1.5-16 4.934 4.934 0 0 0-.5 3h-1a27.556 27.556 0 0 0-2-10c-2.705-6.104-6.372-11.437-11-16a53.871 53.871 0 0 0-6-6.5 329.797 329.797 0 0 1-17-11.5z"/><path style="opacity:1" fill="#303e44" d="M199.5 27.5v10a1910.2 1910.2 0 0 1-14 12 28.061 28.061 0 0 1-5-5 184.223 184.223 0 0 0-2-3c.124-.607.457-.94 1-1 .617.11 1.117.444 1.5 1a86.152 86.152 0 0 1 18.5-14z"/><path style="opacity:1" fill="#2c3738" d="M-.5 30.5c.81 1.792 1.31 3.792 1.5 6a167.059 167.059 0 0 0 16.5 13c1.257 1.123.924 1.79-1 2a265.56 265.56 0 0 1-17-13v-8z"/><path style="opacity:1" fill="#cee5e5" d="M77.5 33.5a5.728 5.728 0 0 1-3 1c-12.83 4.241-23.83 11.241-33 21 1.245-3.487 3.245-6.487 6-9 8.565-6.365 18.064-11.032 28.5-14 .765.07 1.265.403 1.5 1z"/><path style="opacity:1" fill="#536167" d="M85.5 34.5a140.455 140.455 0 0 0-15 5c-.75-1.074-1.75-1.24-3-.5-12.055 5.01-21.722 12.843-29 23.5-1.636 1.249-2.803 2.916-3.5 5-.399-.228-.565-.562-.5-1a35.16 35.16 0 0 1 5-10l2-1c9.17-9.759 20.17-16.759 33-21a129.83 129.83 0 0 1 11 0z"/><path style="opacity:1" fill="#515e65" d="M77.5 33.5c-.235-.597-.735-.93-1.5-1-10.436 2.968-19.935 7.635-28.5 14h-1c8.127-7.066 17.46-12.066 28-15 3.99-.69 7.99-.857 12-.5a90.462 90.462 0 0 1-9 2.5z"/><path style="opacity:1" fill="#72accd" d="M79.5 37.5h4v4a29.428 29.428 0 0 1-5 6c-2.07-.051-3.903.615-5.5 2-2.02-.532-2.853-1.865-2.5-4 2.583-.724 5.25-1.557 8-2.5.906-1.7 1.24-3.533 1-5.5z"/><path style="opacity:1" fill="#445b69" d="M117.5 43.5c.79 1.294 1.79 2.46 3 3.5-.916.278-1.582.778-2 1.5a200.586 200.586 0 0 1-6-3c-3.556 2.76-4.223 2.426-2-1-2.123-1.81-4.457-3.143-7-4-1.219-1.8-3.052-2.8-5.5-3-1.261.26-2.261.926-3 2-1.011-.837-2.178-1.17-3.5-1 4.904-2.73 10.238-3.564 16-2.5a9.457 9.457 0 0 1 1.5 2.5c1.049-1.017 2.216-1.184 3.5-.5l-2 1c.647 1.61 1.48 3.11 2.5 4.5 1.49-1.228 2.99-1.228 4.5 0z"/><path style="opacity:1" fill="#6b7f86" d="M199.5 37.5v6a2835.5 2835.5 0 0 1-13 8c-.838-.342-1.172-1.008-1-2a1910.2 1910.2 0 0 0 14-12z"/><path style="opacity:1" fill="#4b3e32" d="M148.5 38.5h2a49.087 49.087 0 0 0 8 5.5c.837 1.011 1.17 2.178 1 3.5a25.647 25.647 0 0 0 6 6c-.304.65-.637 1.316-1 2 1.333 1.12 1.833 2.453 1.5 4a222.595 222.595 0 0 0-9.5-10.5 10.122 10.122 0 0 0-4-1.5c-.667 0-1-.333-1-1-1.3-1.101-1.8-2.434-1.5-4 1.337 1.265 2.837 1.765 4.5 1.5a32.87 32.87 0 0 1-6-5.5z"/><path style="opacity:1" fill="#8ca5b0" d="M157.5 33.5a96.397 96.397 0 0 1 18 15c4.947 6.563 8.28 13.897 10 22-1.817 2.01-3.817 2.343-6 1h4c.237-1.291-.096-2.291-1-3 .329-2.728-.337-5.062-2-7-.651-3.303-2.318-5.97-5-8-.876-.13-1.543.203-2 1 3.142 4.942 5.142 10.276 6 16-.996-.086-1.829.248-2.5 1l-1-8-1 4c-.122-1.937-.955-3.27-2.5-4a96.29 96.29 0 0 0-7-11c-.788-3.12-2.788-4.788-6-5 .17-1.322-.163-2.489-1-3.5a49.087 49.087 0 0 1-8-5.5v-3c0-.667.333-1 1-1 3.666-.948 3.999.052 1 3 3.206 1.08 4.873-.254 5-4z"/><path style="opacity:1" fill="#546063" d="M22.5 44.5c.333 3-1 4.333-4 4-.333-3 1-4.333 4-4z"/><path style="opacity:1" fill="#c3dce1" d="M70.5 39.5a72.243 72.243 0 0 0-14 8c-3.62 1.953-6.62 4.62-9 8-4.465 3.807-7.798 8.474-10 14-.597-.235-.93-.735-1-1.5.82-1.8 1.486-3.634 2-5.5 7.278-10.657 16.945-18.49 29-23.5 1.25-.74 2.25-.574 3 .5z"/><path style="opacity:1" fill="#152e49" d="M85.5 34.5h1c.453.958 1.12 1.792 2 2.5-.752.67-1.086 1.504-1 2.5l-4 2v-4h-4a44.64 44.64 0 0 0-14 6.5c2.349 2.761 1.516 4.595-2.5 5.5a29.313 29.313 0 0 0-6.5-2c4.333-3.169 9-5.836 14-8a140.455 140.455 0 0 1 15-5z"/><path style="opacity:1" fill="#0d141d" d="M127.5 36.5c8.621.646 15.955 3.98 22 10l2 3c-1.13 1.815-1.796 3.815-2 6-1.985-.547-3.651-1.547-5-3a5.728 5.728 0 0 0-3-1 61.192 61.192 0 0 1-8-2.5c-.837-1.011-1.17-2.178-1-3.5-2.054.135-3.721-.532-5-2-.219-1.175.114-2.175 1-3 2.268 1.044 4.601 1.211 7 .5-2.891-1.274-5.558-2.774-8-4.5z"/><path style="opacity:1" fill="#837c66" d="M159.5 47.5c3.212.212 5.212 1.88 6 5v1a25.647 25.647 0 0 1-6-6z"/><path style="opacity:1" fill="#485960" d="M54.5 30.5c2.7 1.016 5.366 1.016 8 0 .797.457 1.13 1.124 1 2-10.267 5.403-19.434 12.403-27.5 21-.692.937-.525 1.603.5 2a38.164 38.164 0 0 0-6 10l-1 2c-.543-.06-.876-.393-1-1a406.666 406.666 0 0 0 5-12.5c-1.244-.456-2.077.044-2.5 1.5l-.5-1.5c2.263-1.242 3.097-3.076 2.5-5.5-1.78 2.294-3.947 3.96-6.5 5-4.052 5.438-7.052 11.438-9 18-.838-.342-1.172-1.008-1-2a18.166 18.166 0 0 1 2-5.5c-.983-.59-1.65-.258-2 1a54.165 54.165 0 0 0-2.5 6.5c.654-7.308 3.487-13.641 8.5-19 2.657-.938 4.99-2.938 7-6 7.485-6.58 15.819-11.914 25-16z"/><path style="opacity:1" fill="#355e84" d="M79.5 37.5c.24 1.967-.094 3.8-1 5.5-2.75.943-5.417 1.776-8 2.5-1.743 3.1-.743 4.933 3 5.5-1.772 1.487-3.772 1.82-6 1a58.544 58.544 0 0 1-10-3.5c-4.675 1.604-6.675 4.604-6 9-1.715 1.074-2.715 2.74-3 5-.757 1.273-1.423 1.273-2 0a186.2 186.2 0 0 1 2-3 6.845 6.845 0 0 1-1-4c2.38-3.38 5.38-6.047 9-8a29.313 29.313 0 0 1 6.5 2c4.016-.905 4.849-2.739 2.5-5.5a44.64 44.64 0 0 1 14-6.5z"/><path style="opacity:1" fill="#1b2328" d="M91.5 38.5c.746 1.843 2.08 3.176 4 4-1.115 1.098-1.115 2.265 0 3.5-.84 1.171-1.673 2.338-2.5 3.5l-1-1a22.5 22.5 0 0 1-2 7 33.859 33.859 0 0 0-6-5c-.312 2.81-1.812 4.476-4.5 5a6.541 6.541 0 0 1-3-3c1.442-1.32 2.109-2.986 2-5a29.428 29.428 0 0 0 5-6l4-2c1.208-.734 2.541-1.067 4-1z"/><path style="opacity:1" fill="#26373f" d="M169.5 46.5c1.757.792 3.091 2.125 4 4-2.675 1.496-4.675.83-6-2 .346-1.196.846-1.196 1.5 0a2.429 2.429 0 0 0 .5-2z"/><path style="opacity:1" fill="#5d6159" d="M175.5 45.5c4.628 4.563 8.295 9.896 11 16h-1a1610.798 1610.798 0 0 1-5.5-9c-1.307-1.692-2.807-3.025-4.5-4v-3z"/><path style="opacity:1" fill="#9fb0b4" d="M103.5 40.5c2.543.857 4.877 2.19 7 4-2.223 3.426-1.556 3.76 2 1a200.586 200.586 0 0 0 6 3c-.968 2.544-2.635 4.71-5 6.5 1.608.658 2.775.158 3.5-1.5.707 1.58 1.54 3.08 2.5 4.5-1.333 1.667-1.333 3.333 0 5-1.824.66-3.157 1.827-4 3.5a5.728 5.728 0 0 1-3 1 26.393 26.393 0 0 1-4-4.5 4.451 4.451 0 0 1 2-1.5c2.102-.02 4.268.313 6.5 1 .667-2 .667-4 0-6-2.93.524-5.43 1.858-7.5 4-1.746-2.354-4.079-3.354-7-3-.904-.709-1.237-1.709-1-3-.302-2.56.032-4.893 1-7-.392 3.222.108 6.222 1.5 9 .833-1.5 2-2.667 3.5-3.5-1.291-2.09-.624-3.424 2-4l-5-1 3-1c-1.333-.667-1.333-1.333 0-2-2.003-.334-3.67-1.168-5-2.5v-1c.667 0 1-.333 1-1z"/><path style="opacity:1" fill="#3a5267" d="M120.5 41.5a29.417 29.417 0 0 1 7 2c1.279 1.468 2.946 2.135 5 2-.17 1.322.163 2.489 1 3.5a61.192 61.192 0 0 0 8 2.5c.016 1.984-.984 2.984-3 3-2.188-.901-4.021-2.235-5.5-4a19.62 19.62 0 0 0-3.5 2 105.766 105.766 0 0 1-9-11z"/><path style="opacity:1" fill="#88a2ad" d="M28.5 44.5h1v2c-2.01 3.062-4.343 5.062-7 6a35.085 35.085 0 0 1 6-8z"/><path style="opacity:1" fill="#778b93" d="M102.5 42.5c1.33 1.332 2.997 2.166 5 2.5-1.333.667-1.333 1.333 0 2l-3 1 5 1c-2.624.576-3.291 1.91-2 4-1.5.833-2.667 2-3.5 3.5-1.392-2.778-1.892-5.778-1.5-9-1.333-1.667-1.333-3.333 0-5z"/><path style="opacity:1" fill="#63777c" d="M199.5 50.5v13c-.574-2.288-1.574-4.455-3-6.5a21.405 21.405 0 0 0-5 0 61.482 61.482 0 0 1 8-6.5z"/><path style="opacity:1" fill="#383a38" d="M46.5 46.5h1c-2.755 2.513-4.755 5.513-6 9l-2 1c.065-.438-.101-.772-.5-1-3.343 3.345-5.677 7.345-7 12-.278-.916-.778-1.582-1.5-2a38.164 38.164 0 0 1 6-10 32.258 32.258 0 0 1 10-9z"/><path style="opacity:1" fill="#1e3041" d="M120.5 41.5a105.766 105.766 0 0 0 9 11 18.95 18.95 0 0 0 5 3c.086.996-.248 1.83-1 2.5 2.618 2.106 4.618 4.606 6 7.5a63.697 63.697 0 0 1-7-6.5c-2.135-.605-2.469-.105-1 1.5-.616.702-.616 1.702 0 3-1.491.401-3.158.568-5 .5a4.932 4.932 0 0 1 1 2.5 30.595 30.595 0 0 1-3 5c-1.122-1.13-2.456-1.797-4-2l-8-2a5.728 5.728 0 0 0 3-1c6.047.493 7.38-1.674 4-6.5 1.608-.658 2.775-.158 3.5 1.5 1.688-.825 1.855-1.825.5-3 3.878-1.385 3.878-2.551 0-3.5a29.922 29.922 0 0 0-5-6.5c.418-.722 1.084-1.222 2-1.5a14.696 14.696 0 0 1-3-3.5c.321-1.548 1.321-2.215 3-2z"/><path style="opacity:1" fill="#141113" d="M28.5 44.5a35.085 35.085 0 0 0-6 8c-5.013 5.359-7.846 11.692-8.5 19a54.165 54.165 0 0 1 2.5-6.5c.35-1.258 1.017-1.59 2-1a18.166 18.166 0 0 0-2 5.5c-2.813 8.672-2.48 17.338 1 26-1.15.291-1.816 1.124-2 2.5a53.093 53.093 0 0 0 2 6.5c-1.1 1.105-1.767 2.438-2 4l-2-2a75.866 75.866 0 0 1-4-11c-2.578-9.002-2.578-18.002 0-27-.128-3.013.872-5.513 3-7.5a9.265 9.265 0 0 0-2-2.5c1.057-.406 2.39-.406 4 0a373.057 373.057 0 0 1 2-7c1.924-.21 2.257-.877 1-2 0-.667.333-1 1-1 3 .333 4.333-1 4-4 2.138-.203 3.805-1.203 5-3 .886.825 1.219 1.825 1 3z"/><path style="opacity:1" fill="#6386a0" d="M70.5 45.5c-.353 2.135.48 3.468 2.5 4 1.597-1.385 3.43-2.051 5.5-2 .109 2.014-.558 3.68-2 5-.667 0-1 .333-1 1a87.443 87.443 0 0 0-11 6c-2.044.531-3.71 1.698-5 3.5-1 .667-2 .667-3 0a15.859 15.859 0 0 0 6-5.5c-.825-.886-1.825-1.219-3-1 2.526-1.702 2.359-3.368-.5-5-2.583 1.078-4.75 2.745-6.5 5 .82 1.611 2.154 2.278 4 2l-4 4c-.952-1.545-1.285-3.212-1-5-.675-4.396 1.325-7.396 6-9a58.544 58.544 0 0 0 10 3.5c2.228.82 4.228.487 6-1-3.743-.567-4.743-2.4-3-5.5z"/><path style="opacity:1" fill="#a1d1e7" d="m59.5 56.5-3 2c-1.846.278-3.18-.389-4-2 1.75-2.255 3.917-3.922 6.5-5 2.859 1.632 3.026 3.298.5 5z"/><path style="opacity:1" fill="#475a6c" d="M102.5 41.5v1c-1.333 1.667-1.333 3.333 0 5-.968 2.107-1.302 4.44-1 7a16.31 16.31 0 0 0-4 2c.51 3.217.51 6.884 0 11a8.434 8.434 0 0 0 4-.5c-1.507-.837-2.007-2.004-1.5-3.5.816 1.323 1.983 1.99 3.5 2-.111.617-.444 1.117-1 1.5 1.785 1.163 3.785 1.83 6 2-2.613 1.071-2.613 1.904 0 2.5-1.16.765-2.16 1.765-3 3 .457.797 1.124 1.13 2 1l1 4v5c-1.884.839-3.217 2.172-4 4 .783-3.646.95-7.313.5-11a7.248 7.248 0 0 0-2.5-2c-.667 4.817-1.334 9.483-2 14-.547-1.985-1.547-3.651-3-5 .51-2.888-.156-5.221-2-7 0-1.333.667-2 2-2 .709.904 1.709 1.237 3 1v-8h-4a8.434 8.434 0 0 0-.5-4c-.383.556-.883.89-1.5 1a19.798 19.798 0 0 1-1-5.5 65.962 65.962 0 0 1 2-9.5c1.603.188 2.937-.312 4-1.5a35.267 35.267 0 0 1-1-4.5 21.627 21.627 0 0 0 4-3z"/><path style="opacity:1" fill="#617c8e" d="M141.5 51.5a5.728 5.728 0 0 1 3 1l-1 4c-2.663-1.67-4.33-1.003-5 2l-4-3a18.95 18.95 0 0 1-5-3 19.62 19.62 0 0 1 3.5-2c1.479 1.765 3.312 3.099 5.5 4 2.016-.016 3.016-1.016 3-3z"/><path style="opacity:1" fill="#23334e" d="M175.5 53.5c1.198 3.086 2.865 5.752 5 8a40.911 40.911 0 0 0 .5 9c.717-.544 1.217-1.21 1.5-2 .904.709 1.237 1.709 1 3h-4v-1c-.858-5.724-2.858-11.058-6-16 .457-.797 1.124-1.13 2-1z"/><path style="opacity:1" fill="#332e25" d="M175.5 53.5c2.682 2.03 4.349 4.697 5 8-2.135-2.248-3.802-4.914-5-8z"/><path style="opacity:1" fill="#2c333a" d="M103.5 40.5c0 .667-.333 1-1 1a21.627 21.627 0 0 1-4 3 35.267 35.267 0 0 0 1 4.5c-1.063 1.188-2.397 1.688-4 1.5a65.962 65.962 0 0 0-2 9.5 19.798 19.798 0 0 0 1 5.5h-3c-2.686-1.488-2.353-2.155 1-2-.088-2.809-1.588-4.142-4.5-4-1.404.01-2.57.51-3.5 1.5 1.333.667 1.333 1.333 0 2a7.291 7.291 0 0 0 3 2 15.276 15.276 0 0 0-4.5 1.5c-1.356-.88-2.856-1.213-4.5-1 .02-1.56.352-3.06 1-4.5-2.263-1.242-3.097-3.076-2.5-5.5 1.071 2.612 1.904 2.612 2.5 0 2.688-.524 4.188-2.19 4.5-5a33.859 33.859 0 0 1 6 5 22.5 22.5 0 0 0 2-7l1 1c.827-1.162 1.66-2.329 2.5-3.5-1.115-1.235-1.115-2.402 0-3.5-1.92-.824-3.254-2.157-4-4 1.322-.17 2.489.163 3.5 1 .739-1.074 1.739-1.74 3-2 2.448.2 4.281 1.2 5.5 3z"/><path style="opacity:1" fill="#241d17" d="M151.5 49.5a25.907 25.907 0 0 1 8 9c-1.188 1.184-2.355 1.184-3.5 0-.195 1.32-.028 2.653.5 4a64.034 64.034 0 0 1-7-7c.204-2.185.87-4.185 2-6z"/><path style="opacity:1" fill="#617683" d="M118.5 48.5a29.922 29.922 0 0 1 5 6.5c3.878.949 3.878 2.115 0 3.5 1.355 1.175 1.188 2.175-.5 3-.725-1.658-1.892-2.158-3.5-1.5 3.38 4.826 2.047 6.993-4 6.5.843-1.673 2.176-2.84 4-3.5-1.333-1.667-1.333-3.333 0-5a29.555 29.555 0 0 1-2.5-4.5c-.725 1.658-1.892 2.158-3.5 1.5 2.365-1.79 4.032-3.956 5-6.5z"/><path style="opacity:1" fill="#30251f" d="M152.5 47.5c1.422.209 2.755.709 4 1.5a222.595 222.595 0 0 1 9.5 10.5c.333-1.547-.167-2.88-1.5-4 .363-.684.696-1.35 1-2v-1a96.29 96.29 0 0 1 7 11 80.318 80.318 0 0 1 0 24c-1.174 1.014-1.84 2.347-2 4-.597-.235-.93-.735-1-1.5 2.9-9.966 2.566-19.799-1-29.5-.551 1.913-.718 3.913-.5 6a49.047 49.047 0 0 0-5.5-8 122.857 122.857 0 0 0-10-11z"/><path style="opacity:1" fill="#646265" d="M149.5 46.5h2c0 .667.333 1 1 1 3.567 3.477 6.9 7.144 10 11a42.3 42.3 0 0 0 3.5 8c.765 1.566.598 2.9-.5 4-.965-4.598-2.965-8.598-6-12a25.907 25.907 0 0 0-8-9l-2-3z"/><path style="opacity:1" fill="#152846" d="M47.5 55.5a6.845 6.845 0 0 0 1 4 186.2 186.2 0 0 0-2 3c-1.762.762-2.762 2.096-3 4-.667 0-1 .333-1 1-2.996 2.997-4.663 6.664-5 11-.06.543-.393.876-1 1-.982-3.426-.649-6.76 1-10 2.202-5.526 5.535-10.193 10-14z"/><path style="opacity:1" fill="#456980" d="M59.5 56.5c1.175-.219 2.175.114 3 1a15.859 15.859 0 0 1-6 5.5c1 .667 2 .667 3 0 1.29-1.802 2.956-2.969 5-3.5a1464.947 1464.947 0 0 0-5 6c-.06-.543-.393-.876-1-1a826.992 826.992 0 0 0-5 6c-.17-1.322.163-2.489 1-3.5-2.213-2.053-4.213-1.887-6 .5-1.542-.8-3.209-1.134-5-1 .238-1.904 1.238-3.238 3-4 .577 1.273 1.243 1.273 2 0 .285-2.26 1.285-3.926 3-5-.285 1.788.048 3.455 1 5l4-4 3-2z"/><path style="opacity:1" fill="#6a7b80" d="M101.5 54.5c-.237 1.291.096 2.291 1 3a5.575 5.575 0 0 1-1 3c2.703 1.126 3.37 2.793 2 5-1.517-.01-2.684-.677-3.5-2-.507 1.496-.007 2.663 1.5 3.5a8.434 8.434 0 0 1-4 .5c.51-4.116.51-7.783 0-11a16.31 16.31 0 0 1 4-2z"/><path style="opacity:1" fill="#3e3034" d="M185.5 61.5h1a27.556 27.556 0 0 1 2 10c-1.69-2.435-2.69-5.768-3-10z"/><path style="opacity:1" fill="#313a4b" d="M76.5 52.5a6.541 6.541 0 0 0 3 3c-.596 2.612-1.429 2.612-2.5 0-.597 2.424.237 4.258 2.5 5.5-.648 1.44-.98 2.94-1 4.5 1.644-.213 3.144.12 4.5 1a15.276 15.276 0 0 1 4.5-1.5 7.291 7.291 0 0 1-3-2c1.333-.667 1.333-1.333 0-2 .93-.99 2.096-1.49 3.5-1.5 2.912-.142 4.412 1.191 4.5 4-3.353-.155-3.686.512-1 2 .03.997-.47 1.664-1.5 2-3.964-1.81-6.797-.81-8.5 3 .219-1.175-.114-2.175-1-3a24.435 24.435 0 0 1-3 5h-2v-4a26.326 26.326 0 0 0-2-5c1.35-1.324 1.183-2.324-.5-3a37.78 37.78 0 0 1-6.5 4c1.67-2.502 3.836-4.502 6.5-6 .366-1.952 1.2-3.618 2.5-5 0-.667.333-1 1-1z"/><path style="opacity:1" fill="#8f9a9b" d="M112.5 67.5c-1.884.839-3.217 2.172-4 4-2.613-.596-2.613-1.429 0-2.5-2.215-.17-4.215-.837-6-2 .556-.383.889-.883 1-1.5 1.37-2.207.703-3.874-2-5a5.575 5.575 0 0 0 1-3c2.921-.354 5.254.646 7 3 2.07-2.142 4.57-3.476 7.5-4 .667 2 .667 4 0 6-2.232-.687-4.398-1.02-6.5-1a4.451 4.451 0 0 0-2 1.5 26.393 26.393 0 0 0 4 4.5z"/><path style="opacity:1" fill="#171d20" d="M-.5 38.5a265.56 265.56 0 0 0 17 13 373.057 373.057 0 0 0-2 7c-1.61-.406-2.943-.406-4 0a9.265 9.265 0 0 1 2 2.5c-2.128 1.987-3.128 4.487-3 7.5h-1c-2.488-1.888-5.488-2.555-9-2v-28z"/><path style="opacity:1" fill="#5c6c6f" d="M.5 58.5c1.846-.278 3.18.389 4 2-.82 1.611-2.154 2.278-4 2v-4z"/><path style="opacity:1" fill="#111116" d="M159.5 58.5c3.035 3.402 5.035 7.402 6 12 1.102 4.247 1.268 8.58.5 13-.278-.916-.778-1.582-1.5-2v-1c-.268-5.839-2.601-10.505-7-14 .268-1.599-.066-2.932-1-4-.528-1.347-.695-2.68-.5-4 1.145 1.184 2.312 1.184 3.5 0z"/><path style="opacity:1" fill="#5e666a" d="M-.5 66.5c3.512-.555 6.512.112 9 2h-9v-2z"/><path style="opacity:1" fill="#94afbc" d="M75.5 53.5c-1.3 1.382-2.134 3.048-2.5 5-2.664 1.498-4.83 3.498-6.5 6-3.147 1.813-5.147 4.48-6 8-1.174 1.014-1.84 2.347-2 4-.597-.235-.93-.735-1-1.5a57.271 57.271 0 0 1 3-6.5 14.81 14.81 0 0 1-2-1l1-2c1.637-1.975 3.304-3.975 5-6a87.443 87.443 0 0 1 11-6z"/><path style="opacity:1" fill="#3cacdb" d="M73.5 63.5v4c-1.777.286-3.444.953-5 2a4.938 4.938 0 0 1-2.5-1l-1 4c-.87-.608-1.37-1.441-1.5-2.5a25.196 25.196 0 0 0 3-5.5 37.78 37.78 0 0 0 6.5-4c1.683.676 1.85 1.676.5 3z"/><path style="opacity:1" fill="#384c5b" d="M144.5 52.5c1.349 1.453 3.015 2.453 5 3a64.034 64.034 0 0 0 7 7c.934 1.068 1.268 2.401 1 4h-3a68.024 68.024 0 0 0-7 2c-.521 2.06-.188 4.226 1 6.5-2.064 2.596-2.231 5.43-.5 8.5.191-2.208.691-4.208 1.5-6a84.9 84.9 0 0 1-.5 13c-.273 1.829-1.107 3.329-2.5 4.5l1 1c-.979 2.137-2.312 3.97-4 5.5-.231-1.796.435-3.63 2-5.5-2.024-1.458-2.191-3.291-.5-5.5a84.9 84.9 0 0 0 .5-13 50.529 50.529 0 0 0-6-12c-1.382-2.894-3.382-5.394-6-7.5.752-.67 1.086-1.504 1-2.5l4 3a46.117 46.117 0 0 1 6 5.5 12.5 12.5 0 0 0 7 0c-3.166-2-5.832-4.5-8-7.5l1-4z"/><path style="opacity:1" fill="#8ca9bd" d="M143.5 56.5c2.168 3 4.834 5.5 8 7.5a12.5 12.5 0 0 1-7 0 46.117 46.117 0 0 0-6-5.5c.67-3.003 2.337-3.67 5-2z"/><path style="opacity:1" fill="#43413f" d="M180.5 61.5c1.663 1.938 2.329 4.272 2 7-.283.79-.783 1.456-1.5 2a40.911 40.911 0 0 1-.5-9z"/><path style="opacity:1" fill="#1d3f63" d="M131.5 63.5c.667 0 1 .333 1 1-2.663 1.61-3.163 3.61-1.5 6 2.318 2.938 5.152 3.938 8.5 3-.067 1.459.266 2.792 1 4-.904.709-1.237 1.709-1 3h-5c.009-1.808-.491-3.475-1.5-5-.584 3.521-2.084 6.855-4.5 10l-4-2c.067-1.459-.266-2.792-1-4 2.092-.061 3.592-1.061 4.5-3 .853-2.448.353-3.114-1.5-2-2.444-1.572-5.11-3.072-8-4.5a2.427 2.427 0 0 1 2-.5c1.544.203 2.878.87 4 2a30.595 30.595 0 0 0 3-5 4.932 4.932 0 0 0-1-2.5c1.842.068 3.509-.099 5-.5z"/><path style="opacity:1" fill="#898388" d="M81.5 70.5a30.139 30.139 0 0 0-3.5 3c-.399-.228-.565-.562-.5-1a24.435 24.435 0 0 0 3-5c.886.825 1.219 1.825 1 3z"/><path style="opacity:1" fill="#184b95" d="M97.5 75.5c-1.333 0-2 .667-2 2 1.16 1.703.493 2.37-2 2 2.317-5.047.65-8.047-5-9-1.213.247-1.88.914-2 2-.667 0-1 .333-1 1-1.267 2.561-1.267 5.228 0 8-3.025-.533-4.358-2.367-4-5.5-.333-2.667.667-4.667 3-6 3.761-.738 7.428-.405 11 1 1.537 1.11 2.204 2.61 2 4.5z"/><path style="opacity:1" fill="#32333a" d="M162.5 58.5a49.047 49.047 0 0 1 5.5 8c-.218-2.087-.051-4.087.5-6 3.566 9.701 3.9 19.534 1 29.5.07.765.403 1.265 1 1.5a39.407 39.407 0 0 1-5 7 20.691 20.691 0 0 0 1-5v-2c3.861-6.558 4.694-13.558 2.5-21l-1 15a22.973 22.973 0 0 1-2 5c-1.3-3.026-1.8-6.026-1.5-9 .722.418 1.222 1.084 1.5 2 .768-4.42.602-8.753-.5-13 1.098-1.1 1.265-2.434.5-4a42.3 42.3 0 0 1-3.5-8z"/><path style="opacity:1" fill="#3c494d" d="M199.5 43.5v7a61.482 61.482 0 0 0-8 6.5 21.405 21.405 0 0 1 5 0c1.426 2.045 2.426 4.212 3 6.5v19c-1.208-.734-2.541-1.067-4-1 .069-10.927-2.931-20.927-9-30a2835.5 2835.5 0 0 0 13-8z"/><path style="opacity:1" fill="#2b3f6b" d="M97.5 75.5c.204-1.89-.463-3.39-2-4.5-3.572-1.405-7.239-1.738-11-1-2.333 1.333-3.333 3.333-3 6-.358 3.133.975 4.967 4 5.5 2.92.217 5.587-.45 8-2 2.493.37 3.16-.297 2-2 1.844 1.779 2.51 4.112 2 7-5.26.484-10.26-.183-15-2-.473-1.406-1.473-2.073-3-2a20.228 20.228 0 0 1-5-1c-1.213.247-1.88.914-2 2h-5v-1c2.498-.227 4.164-1.56 5-4 .586.21 1.086.543 1.5 1 1.27-1.405 1.77-3.071 1.5-5h2c-.065.438.101.772.5 1a30.139 30.139 0 0 1 3.5-3c1.703-3.81 4.536-4.81 8.5-3 1.03-.336 1.53-1.003 1.5-2h3c.617-.11 1.117-.444 1.5-1a8.434 8.434 0 0 1 .5 4h4v8c-1.291.237-2.291-.096-3-1z"/><path style="opacity:1" fill="#266ead" d="M118.5 72.5c-1.599-.268-2.932.066-4 1h-1c-1.307 1.723-1.307 3.556 0 5.5a2.427 2.427 0 0 1-2 .5h-3l-1-4c2.475-3.404 5.808-4.904 10-4.5.556.383.889.883 1 1.5z"/><path style="opacity:1" fill="#08172f" d="M131.5 60.5c6.727 4.376 11.06 10.376 13 18v8c-.968-2.107-1.302-4.44-1-7h-3v-2c-.734-1.208-1.067-2.541-1-4a74.739 74.739 0 0 0-7-9c0-.667-.333-1-1-1-.616-1.298-.616-2.298 0-3z"/><path style="opacity:1" fill="#667989" d="M139.5 65.5a50.529 50.529 0 0 1 6 12c-.667 0-1 .333-1 1-1.94-7.624-6.273-13.624-13-18-1.469-1.605-1.135-2.105 1-1.5a63.697 63.697 0 0 0 7 6.5z"/><path style="opacity:1" fill="#597180" d="M147.5 68.5c1.291-.237 2.291.096 3 1a2.427 2.427 0 0 0-2 .5 18.158 18.158 0 0 1 2 5.5c-.838.342-1.172 1.008-1 2-.809 1.792-1.309 3.792-1.5 6-1.731-3.07-1.564-5.904.5-8.5-1.188-2.274-1.521-4.44-1-6.5z"/><path style="opacity:1" fill="#98b3c4" d="m154.5 66.5 2 9c-3.308-.565-5.308-2.565-6-6-.709-.904-1.709-1.237-3-1a68.024 68.024 0 0 1 7-2z"/><path style="opacity:1" fill="#627f93" d="M154.5 66.5h3c.823 2.96 1.49 5.96 2 9h-3l-2-9z"/><path style="opacity:1" fill="#2c4255" d="M38.5 62.5a36.899 36.899 0 0 1-2 5.5c.07.765.403 1.265 1 1.5-1.649 3.24-1.982 6.574-1 10 .607-.124.94-.457 1-1 2.363-1.441 4.03-3.441 5-6-.13.876.203 1.543 1 2 1.231-1.15 1.231-2.317 0-3.5 1.634-.493 3.3-.66 5-.5v-3c1.787-2.387 3.787-2.553 6-.5-.837 1.011-1.17 2.178-1 3.5-1.29.558-2.123 1.558-2.5 3a53.034 53.034 0 0 0-1.5 14c-2.641.763-5.308.93-8 .5a7.253 7.253 0 0 0 2-2.5 19.51 19.51 0 0 0-7-3l-1 1.5a73.875 73.875 0 0 0 4 16.5c-3.268-3.611-5.101-7.945-5.5-13-.074-6.39.26-12.723 1-19a60.183 60.183 0 0 0-3 19 64.247 64.247 0 0 1 0-16c.374-1.991 1.207-3.658 2.5-5-.065.438.101.772.5 1 .697-2.084 1.864-3.751 3.5-5z"/><path style="opacity:1" fill="#6e8ea3" d="M43.5 66.5c1.791-.134 3.458.2 5 1v3c-1.7-.16-3.366.007-5 .5 1.231 1.183 1.231 2.35 0 3.5-.797-.457-1.13-1.124-1-2v-5c0-.667.333-1 1-1z"/><path style="opacity:1" fill="#1e68a4" d="M73.5 63.5a26.326 26.326 0 0 1 2 5l-6 2c.085 3.247-.915 6.08-3 8.5.556.383.89.883 1 1.5v1h-9a5.728 5.728 0 0 1 1-3 406.374 406.374 0 0 1 7-4 54.314 54.314 0 0 0-6-2c.853-3.52 2.853-6.187 6-8a25.196 25.196 0 0 1-3 5.5c.13 1.059.63 1.892 1.5 2.5l1-4a4.938 4.938 0 0 0 2.5 1c1.556-1.047 3.223-1.714 5-2v-4z"/><path style="opacity:1" fill="#173d76" d="m112.5 67.5 8 2a2.427 2.427 0 0 0-2 .5c2.89 1.428 5.556 2.928 8 4.5-1.135 1.588-2.469 1.921-4 1a4.458 4.458 0 0 0-1.5 2c-.374-1.991-1.207-3.658-2.5-5-.111-.617-.444-1.117-1-1.5-4.192-.404-7.525 1.096-10 4.5-.876.13-1.543-.203-2-1 .84-1.235 1.84-2.235 3-3 .783-1.828 2.116-3.161 4-4z"/><path style="opacity:1" fill="#3174b0" d="M132.5 64.5a74.739 74.739 0 0 1 7 9c-3.348.938-6.182-.062-8.5-3-1.663-2.39-1.163-4.39 1.5-6z"/><path style="opacity:1" fill="#5c6c80" d="M175.5 48.5c1.693.975 3.193 2.308 4.5 4 1.859 3.064 3.692 6.064 5.5 9 .31 4.232 1.31 7.565 3 10h1v2c-1.119 10.46-4.119 20.46-9 30a10.165 10.165 0 0 0-3 3c0-.667-.333-1-1-1l5-10c4.157-7.8 5.491-16.134 4-25-1.72-8.103-5.053-15.437-10-22z"/><path style="opacity:1" fill="#0e2344" d="M191.5 69.5c.722.418 1.222 1.084 1.5 2a64.218 64.218 0 0 1 0 16c-.728 2.687-1.895 5.02-3.5 7a178.676 178.676 0 0 1 2-10c1.191-4.855 1.191-9.855 0-15z"/><path style="opacity:1" fill="#151b1d" d="M26.5 53.5c1.256-.039 2.256.461 3 1.5-5.052 5.93-7.385 12.764-7 20.5h-5v-4c1.948-6.562 4.948-12.562 9-18z"/><path style="opacity:1" fill="#2c7ac0" d="M93.5 79.5c-2.413 1.55-5.08 2.217-8 2-1.267-2.772-1.267-5.439 0-8-1.092 4.623.575 6.456 5 5.5 2.16-4.448.828-6.615-4-6.5.12-1.086.787-1.753 2-2 5.65.953 7.317 3.953 5 9z"/><path style="opacity:1" fill="#3d759b" d="M42.5 67.5v5c-.97 2.559-2.637 4.559-5 6 .337-4.336 2.004-8.003 5-11z"/><path style="opacity:1" fill="#0c2250" d="M75.5 68.5v4c.27 1.929-.23 3.595-1.5 5a3.646 3.646 0 0 0-1.5-1c-.836 2.44-2.502 3.773-5 4-.11-.617-.444-1.117-1-1.5 2.085-2.42 3.085-5.253 3-8.5l6-2z"/><path style="opacity:1" fill="#3c484f" d="M29.5 67.5a91.082 91.082 0 0 0-2.5 16l-1-10c-1.372 9.174.128 17.84 4.5 26a521.141 521.141 0 0 1-4 6 18.476 18.476 0 0 1-3.5-2c-1.026-2.739-2.526-5.072-4.5-7-.667 0-1-.333-1-1-3.48-8.662-3.813-17.328-1-26-.172.992.162 1.658 1 2v4h5c-.385-7.736 1.948-14.57 7-20.5-.744-1.039-1.744-1.539-3-1.5 2.553-1.04 4.72-2.706 6.5-5 .597 2.424-.237 4.258-2.5 5.5l.5 1.5c.423-1.456 1.256-1.956 2.5-1.5a406.666 406.666 0 0 1-5 12.5c.124.607.457.94 1 1z"/><path style="opacity:1" fill="#0f4186" d="M60.5 72.5a54.314 54.314 0 0 1 6 2 406.374 406.374 0 0 0-7 4c-.838-.342-1.172-1.008-1-2 .16-1.653.826-2.986 2-4z"/><path style="opacity:1" fill="#7bdff3" d="M86.5 72.5c4.828-.115 6.16 2.052 4 6.5-4.425.956-6.092-.877-5-5.5 0-.667.333-1 1-1z"/><path style="opacity:1" fill="#b3c6cf" d="M172.5 63.5c1.545.73 2.378 2.063 2.5 4l1-4 1 8c.671-.752 1.504-1.086 2.5-1v1c2.183 1.343 4.183 1.01 6-1 1.491 8.866.157 17.2-4 25v-1a63.788 63.788 0 0 1 2-7.5c.061-1.71-.606-3.044-2-4a4.932 4.932 0 0 1 3-.5c.349-2.545-.484-4.545-2.5-6-.406 3.242-1.239 6.242-2.5 9v-6c-1.643-.02-2.976.647-4 2-.511 2.384-1.511 4.384-3 6a80.318 80.318 0 0 0 0-24z"/><path style="opacity:1" fill="#495a67" d="M58.5 67.5c.633.38 1.3.713 2 1a57.271 57.271 0 0 0-3 6.5c.07.765.403 1.265 1 1.5-.172.992.162 1.658 1 2a5.728 5.728 0 0 0-1 3c-1.12 3.517-1.12 7.184 0 11-.722-.418-1.222-1.084-1.5-2l-1-15c-1.573 5.284-1.906 10.617-1 16-2.574-8.628-1.407-16.628 3.5-24z"/><path style="opacity:1" fill="#344b60" d="M157.5 66.5c4.399 3.495 6.732 8.161 7 14h-4v9c-2.98-.259-4.813 1.074-5.5 4-.08-3.138.087-6.304.5-9.5a17.9 17.9 0 0 0-1.5-7.5c.369 8.733-1.131 17.067-4.5 25a9359.98 9359.98 0 0 1-10 11h-2c.233-1.562.9-2.895 2-4 10.247-8.742 13.914-19.742 11-33a18.158 18.158 0 0 0-2-5.5 2.427 2.427 0 0 1 2-.5c.692 3.435 2.692 5.435 6 6h3a87.877 87.877 0 0 0-2-9z"/><path style="opacity:1" fill="#72aecd" d="M114.5 73.5c1.068-.934 2.401-1.268 4-1 1.293 1.342 2.126 3.009 2.5 5a4.458 4.458 0 0 1 1.5-2c1.531.921 2.865.588 4-1 1.853-1.114 2.353-.448 1.5 2-.908 1.939-2.408 2.939-4.5 3-.359-2.331-1.026-2.165-2 .5-2.673 2.501-5.673 3.001-9 1.5-.798-.457-1.131-1.124-1-2a2.427 2.427 0 0 0 2-.5c-1.307-1.944-1.307-3.777 0-5.5-.667 4 1 5.667 5 5v-5h-4z"/><path style="opacity:1" fill="#8ceff5" d="M113.5 73.5h5v5c-4 .667-5.667-1-5-5z"/><path style="opacity:1" fill="#a3b6bd" d="M104.5 88.5c-.744 3.385-2.077 3.718-4 1 .666-4.517 1.333-9.183 2-14a7.248 7.248 0 0 1 2.5 2c.45 3.688.283 7.354-.5 11z"/><path style="opacity:1" fill="#526e87" d="M166.5 91.5c-1.75 1.16-2.75 2.826-3 5a36.276 36.276 0 0 1-3-10v-6h4v1c-.3 2.974.2 5.974 1.5 9a22.973 22.973 0 0 0 2-5l1-15c2.194 7.442 1.361 14.442-2.5 21z"/><path style="opacity:1" fill="#9eb8c5" d="M195.5 81.5c1.459-.067 2.792.266 4 1v3h-4a30.968 30.968 0 0 1 2-2 30.968 30.968 0 0 1-2-2z"/><path style="opacity:1" fill="#442d21" d="M7.5 68.5h2c-2.578 8.998-2.578 17.998 0 27-.896-1.006-1.562-1.006-2 0h-1a158.032 158.032 0 0 0-2-15.5A14.316 14.316 0 0 1 7 74.5c.495-1.973.662-3.973.5-6z"/><path style="opacity:1" fill="#0b1c4b" d="M65.5 81.5h7c.996-.086 1.83.248 2.5 1-.153 3.948 1.014 7.28 3.5 10h1c.237 1.291-.096 2.291-1 3-2.567-.222-4.9-.888-7-2-1.985-2.62-2.985-5.62-3-9h-3v-3z"/><path style="opacity:1" fill="#292c3a" d="M79.5 80.5c-.709.904-1.709 1.237-3 1a49.285 49.285 0 0 1 2 11c-2.486-2.72-3.653-6.052-3.5-10-.67-.752-1.504-1.086-2.5-1 .12-1.086.787-1.753 2-2 1.635.546 3.301.88 5 1z"/><path style="opacity:1" fill="#317aa5" d="M139.5 83.5h-4v3c1.599-.268 2.932.066 4 1-1.644-.213-3.144.12-4.5 1-.317-1.8-.984-2.134-2-1-1.073-3.667.26-5.667 4-6 1.376.184 2.209.85 2.5 2z"/><path style="opacity:1" fill="#28201b" d="M189.5 73.5c.444 10.893-2.222 20.893-8 30h-1c4.881-9.54 7.881-19.54 9-30z"/><path style="opacity:1" fill="#10161b" d="M39.5 56.5a35.16 35.16 0 0 0-5 10c-1.293 1.342-2.126 3.009-2.5 5a64.247 64.247 0 0 0 0 16 60.183 60.183 0 0 1 3-19 147.497 147.497 0 0 0-1 19c.399 5.055 2.232 9.389 5.5 13l1 2c.418 2.939 1.918 5.272 4.5 7a3.647 3.647 0 0 1 1.5-1c.929 1.189 1.262 2.522 1 4a18.329 18.329 0 0 1-6-4c-6.289-6.903-10.789-14.903-13.5-24-.047 5.703 1.453 11.036 4.5 16-.427 4.131-2.427 5.798-6 5a521.141 521.141 0 0 0 4-6c-4.372-8.16-5.872-16.826-4.5-26l1 10a91.082 91.082 0 0 1 2.5-16l1-2c.722.418 1.222 1.084 1.5 2 1.323-4.655 3.657-8.655 7-12 .399.228.565.562.5 1z"/><path style="opacity:1" fill="#45657e" d="M53.5 70.5c-.654 2.994-1.32 5.994-2 9a229.415 229.415 0 0 1 1.5 17 9.468 9.468 0 0 0-2.5-1.5c.638-1.707.638-3.54 0-5.5-2.58-.417-4.746.25-6.5 2a3.646 3.646 0 0 0-1.5-1 51.256 51.256 0 0 0-2 6c2.365.585 4.365 1.752 6 3.5-1.496.507-2.663.007-3.5-1.5-.49 2.045-.324 4.045.5 6l-3-2-1-2a73.875 73.875 0 0 1-4-16.5l1-1.5a19.51 19.51 0 0 1 7 3 7.253 7.253 0 0 1-2 2.5c2.692.43 5.359.263 8-.5a53.034 53.034 0 0 1 1.5-14c.377-1.442 1.21-2.442 2.5-3z"/><path style="opacity:1" fill="#726960" d="M79.5 80.5c1.527-.073 2.527.594 3 2v1c-1.256 2.226-1.256 4.559 0 7-.377 2.324-1.377 2.99-3 2h-1a49.285 49.285 0 0 0-2-11c1.291.237 2.291-.096 3-1z"/><path style="opacity:1" fill="#a3b0b4" d="M123.5 79.5c.734 1.208 1.067 2.541 1 4h-1c-.494 3.503-2.494 5.836-6 7a16.458 16.458 0 0 1-6-1.5c1.341-1.295 2.674-1.795 4-1.5-3.95-1.245-5.95-3.911-6-8h2c-.131.876.202 1.543 1 2 3.327 1.501 6.327 1.001 9-1.5.974-2.665 1.641-2.831 2-.5z"/><path style="opacity:1" fill="#141717" d="M-.5 68.5h8a18.436 18.436 0 0 1-.5 6A14.316 14.316 0 0 0 4.5 80c.922 5.133 1.589 10.3 2 15.5-2.368.229-4.702 1.229-7 3v-30z"/><path style="opacity:1" fill="#214870" d="M140.5 79.5h3c-.302 2.56.032 4.893 1 7-.372 3.797-1.706 7.13-4 10v-7a2.427 2.427 0 0 0 2-.5c-1.237-.232-2.237-.732-3-1.5-1.068-.934-2.401-1.268-4-1v-3h4c.809-.969 1.809-1.802 3-2.5-.916-.278-1.582-.778-2-1.5z"/><path style="opacity:1" fill="#38404c" d="M181.5 94.5c-1.59-.128-2.923-.795-4-2a21.029 21.029 0 0 0 2-7c1.261-2.758 2.094-5.758 2.5-9 2.016 1.455 2.849 3.455 2.5 6a4.932 4.932 0 0 0-3 .5c1.394.956 2.061 2.29 2 4a63.788 63.788 0 0 0-2 7.5z"/><path style="opacity:1" fill="#212b3b" d="M82.5 83.5v-1c4.74 1.817 9.74 2.484 15 2 1.453 1.349 2.453 3.015 3 5 1.923 2.718 3.256 2.385 4-1 .783-1.828 2.116-3.161 4-4-.39 3.34-.89 6.673-1.5 10-.671.752-1.504 1.086-2.5 1-1.25-.077-2.083-.744-2.5-2-1.84 1.333-2.34 1.166-1.5-.5-1.284-.684-2.45-.517-3.5.5l-1-2c-.21 1.558-.71 2.891-1.5 4-.961-1.765-1.295-3.765-1-6-5.604 1.061-9.27-.939-11-6z"/><path style="opacity:1" fill="#081630" d="M58.5 81.5h2v4c2.357-.163 4.69.003 7 .5a32.437 32.437 0 0 1-8 .5v6h-1c-1.12-3.816-1.12-7.483 0-11z"/><path style="opacity:1" fill="#62adce" d="M140.5 77.5v2c.418.722 1.084 1.222 2 1.5-1.191.698-2.191 1.531-3 2.5-.291-1.15-1.124-1.816-2.5-2-3.74.333-5.073 2.333-4 6 1.016-1.134 1.683-.8 2 1 1.356-.88 2.856-1.213 4.5-1 .763.768 1.763 1.268 3 1.5a2.427 2.427 0 0 1-2 .5h-7c.41 5.595-1.923 7.929-7 7 1.417-3.498 2.083-7.165 2-11 2.416-3.145 3.916-6.479 4.5-10 1.009 1.525 1.509 3.192 1.5 5h5c-.237-1.291.096-2.291 1-3z"/><path style="opacity:1" fill="#9bb2bd" d="M166.5 91.5v2a10.177 10.177 0 0 1-3 3c.25-2.174 1.25-3.84 3-5z"/><path style="opacity:1" fill="#2e282a" d="M82.5 83.5c1.73 5.061 5.396 7.061 11 6-.295 2.235.039 4.235 1 6-.558 1.29-1.558 2.123-3 2.5 2.81 3.054 5.81 3.221 9 .5v2c-2.336.843-4.67 1.343-7 1.5-3.614-2.944-4.947-6.778-4-11.5h-7c-1.256-2.441-1.256-4.774 0-7z"/><path style="opacity:1" fill="#38474d" d="M195.5 85.5h4v15a401.2 401.2 0 0 0-6-3 38.236 38.236 0 0 1-6 10 144.613 144.613 0 0 0 8-22z"/><path style="opacity:1" fill="#343c3f" d="M123.5 83.5c1.042 4.633-.625 7.8-5 9.5-.235 2.766-.235 5.932 0 9.5a514.367 514.367 0 0 0-3 4c-.79-1.109-1.29-2.442-1.5-4-.816 1.323-1.983 1.989-3.5 2a5.727 5.727 0 0 0 1-3c2.643-2.734 3.643-6.067 3-10 1.291.237 2.291-.096 3-1 3.506-1.164 5.506-3.497 6-7z"/><path style="opacity:1" fill="#809cac" d="M160.5 86.5a36.276 36.276 0 0 0 3 10c-1.942 4.941-5.275 8.608-10 11a54.53 54.53 0 0 1 6-6.5 29.508 29.508 0 0 1-4.5-2.5l-3.5 5c-.411-.762-.577-1.762-.5-3-.383.556-.883.889-1.5 1 3.369-7.933 4.869-16.267 4.5-25a17.9 17.9 0 0 1 1.5 7.5 61.746 61.746 0 0 0-.5 9.5c.687-2.926 2.52-4.259 5.5-4v-3z"/><path style="opacity:1" fill="#1b3b68" d="M60.5 81.5h5v3h3c.015 3.38 1.015 6.38 3 9-2.216-.225-3.883.608-5 2.5 1.5.833 2.667 2 3.5 3.5 1.085-2.157 2.251-2.324 3.5-.5a10.13 10.13 0 0 1-4 1.5c-.722-.418-1.222-1.084-1.5-2-2.468 1.449-4.968 1.115-7.5-1a20.677 20.677 0 0 1-1-5v-6a32.437 32.437 0 0 0 8-.5 24.939 24.939 0 0 0-7-.5v-4z"/><path style="opacity:1" fill="#0d1932" d="M71.5 93.5c2.1 1.112 4.433 1.778 7 2l2 2c.61.891.943 1.891 1 3-.237 1.291.096 2.291 1 3a9.175 9.175 0 0 0 2 4.5c1.1.432 1.767-.068 2-1.5-1.828-2.01-2.828-5.01-3-9 2.022 3.277 3.522 6.943 4.5 11 1 1.333 2 1.333 3 0a24.27 24.27 0 0 0 2.5 6 18.474 18.474 0 0 1-6-4c-1.91-1.048-3.744-1.048-5.5 0l-2-6c-.186 2.536-.686 4.869-1.5 7-3.617-1.012-3.617-2.512 0-4.5-3.31-1.771-4.81-.938-4.5 2.5a30.818 30.818 0 0 1-4.5-3 81.819 81.819 0 0 0-3-2.5c1.45.263 2.784.096 4-.5a3.646 3.646 0 0 1 1-1.5c-.916-.278-1.582-.778-2-1.5a10.13 10.13 0 0 0 4-1.5c-1.249-1.824-2.415-1.657-3.5.5-.833-1.5-2-2.667-3.5-3.5 1.117-1.892 2.784-2.725 5-2.5z"/><path style="opacity:1" fill="#808990" d="M108.5 79.5h1c.05 4.089 2.05 6.755 6 8-1.326-.295-2.659.205-4 1.5a16.458 16.458 0 0 0 6 1.5c-.709.904-1.709 1.237-3 1 .643 3.933-.357 7.266-3 10-.65.304-1.317.637-2 1-2.776-1.63-5.776-2.297-9-2v-2c1.73-.526 3.064-1.526 4-3 .996.086 1.829-.248 2.5-1 .61-3.327 1.11-6.66 1.5-10v-5z"/><path style="opacity:1" fill="#14263c" d="M123.5 83.5h1l4 2c.083 3.835-.583 7.502-2 11v3c-1.762 4.652-4.429 8.652-8 12-1.068-.934-2.401-1.268-4-1-.067-1.459.266-2.792 1-4a514.367 514.367 0 0 1 3-4c-.235-3.568-.235-6.734 0-9.5 4.375-1.7 6.042-4.867 5-9.5z"/><path style="opacity:1" fill="#141219" d="M178.5 44.5h2a28.061 28.061 0 0 0 5 5c-.172.992.162 1.658 1 2 6.069 9.073 9.069 19.073 9 30a30.968 30.968 0 0 0 2 2 30.968 30.968 0 0 0-2 2 144.613 144.613 0 0 1-8 22c-1.337.815-2.337 1.982-3 3.5a4.934 4.934 0 0 1-3 .5 181.925 181.925 0 0 0 7.5-13 8.43 8.43 0 0 0 .5-4c1.605-1.98 2.772-4.313 3.5-7a64.218 64.218 0 0 0 0-16c-.278-.916-.778-1.582-1.5-2-1.975-9.617-6.308-17.95-13-25z"/><path style="opacity:1" fill="#3b5a7f" d="M189.5 94.5a8.43 8.43 0 0 1-.5 4 181.925 181.925 0 0 1-7.5 13h-2a4104.99 4104.99 0 0 1 10-17z"/><path style="opacity:1" fill="#131212" d="M104.5 95.5c-.936 1.474-2.27 2.474-4 3-3.19 2.721-6.19 2.554-9-.5 1.442-.377 2.442-1.21 3-2.5.79-1.109 1.29-2.442 1.5-4l1 2c1.05-1.017 2.216-1.184 3.5-.5-.84 1.666-.34 1.833 1.5.5.417 1.256 1.25 1.923 2.5 2z"/><path style="opacity:1" fill="#457899" d="M120.5 98.5c3.843 1.431 4.009 3.431.5 6a18.453 18.453 0 0 1-.5-6z"/><path style="opacity:1" fill="#3e7094" d="M140.5 89.5v7c-.25 2.174-1.25 3.841-3 5a2.428 2.428 0 0 0-.5-2 31.5 31.5 0 0 0-8.5 7l-1-1c1.52-2.162 2.52-4.495 3-7-1.459-.067-2.792.266-4 1v-3c5.077.929 7.41-1.405 7-7h7z"/><path style="opacity:1" fill="#d6f1f6" d="M179.5 85.5a21.029 21.029 0 0 1-2 7c1.077 1.205 2.41 1.872 4 2v1l-5 10a85.665 85.665 0 0 1-8.5 7c-5.714-1.288-6.547-3.788-2.5-7.5-1.256-.417-1.923-1.25-2-2.5 1.1-1.105 1.767-2.438 2-4a39.407 39.407 0 0 0 5-7c.16-1.653.826-2.986 2-4 1.489-1.616 2.489-3.616 3-6 1.024-1.353 2.357-2.02 4-2v6z"/><path style="opacity:1" fill="#2c3942" d="M172.5 93.5c4-.667 5.667 1 5 5-4.92 1.085-6.587-.582-5-5z"/><path style="opacity:1" fill="#ab8a61" d="M9.5 95.5a75.866 75.866 0 0 0 4 11c-.543.06-.876.393-1 1a200.586 200.586 0 0 1 3 6c-.958-.453-1.792-1.119-2.5-2a176.817 176.817 0 0 1-4.5-11 20.676 20.676 0 0 1-1-5c.438-1.006 1.104-1.006 2 0z"/><path style="opacity:1" fill="#80cfeb" d="M81.5 100.5c1.882.721 2.215 1.721 1 3-.904-.709-1.237-1.709-1-3z"/><path style="opacity:1" fill="#5e6c70" d="M193.5 97.5a401.2 401.2 0 0 1 6 3v27h-8c-4.199-2.467-3.865-4.3 1-5.5-3.685-.914-3.352-1.581 1-2-3.811-2.966-3.478-5.632 1-8-2.391-1.309-2.391-2.309 0-3-.551-1.398-.884-2.732-1-4l2-1c-1.333-1.333-1.333-2.667 0-4-.881-.708-1.547-1.542-2-2.5z"/><path style="opacity:1" fill="#8ea5af" d="M150.5 75.5c2.914 13.258-.753 24.258-11 33v-1c1.114-1.853.448-2.353-2-1.5-3.694 3.869-8.027 6.702-13 8.5-.667 0-1 .333-1 1a592.183 592.183 0 0 0-8 3c-2.541.603-4.874.603-7 0 2.627-2.101 5.627-3.434 9-4 8.001-2.331 14.668-6.664 20-13 1.75-1.159 2.75-2.826 3-5 2.294-2.87 3.628-6.203 4-10v-8c0-.667.333-1 1-1a84.9 84.9 0 0 1-.5 13c-1.691 2.209-1.524 4.042.5 5.5-1.565 1.87-2.231 3.704-2 5.5 1.688-1.53 3.021-3.363 4-5.5l-1-1c1.393-1.171 2.227-2.671 2.5-4.5a84.9 84.9 0 0 0 .5-13c-.172-.992.162-1.658 1-2z"/><path style="opacity:1" fill="#303f4b" d="m59.5 65.5-1 2c-4.907 7.372-6.074 15.372-3.5 24-.906-5.383-.573-10.716 1-16l1 15c.278.916.778 1.582 1.5 2h1a20.677 20.677 0 0 0 1 5c1.283 2.106 2.116 4.44 2.5 7 1.621 2.821 3.788 3.487 6.5 2a30.818 30.818 0 0 0 4.5 3c-.31-3.438 1.19-4.271 4.5-2.5-3.617 1.988-3.617 3.488 0 4.5 3.49 1.84 7.157 3.507 11 5 .21.586.543 1.086 1 1.5-1.473.71-2.14 1.876-2 3.5 2.748-.098 3.414.902 2 3h-5c1.109.79 2.442 1.29 4 1.5l18 1c-1.237.232-2.237.732-3 1.5h-18l-7-2c1.175.219 2.175-.114 3-1a122.26 122.26 0 0 1-22-7.5c-1.442-.377-2.442-1.21-3-2.5a31.523 31.523 0 0 1-9-5.5c2.397.65 4.397-.183 6-2.5-.457-.798-1.124-1.131-2-1 2.056-.699 4.056-1.699 6-3-3.285-.54-6.285-1.706-9-3.5 1.76-.965 2.094-2.132 1-3.5a15.044 15.044 0 0 0-3 3.5c.708 2.733 2.042 4.9 4 6.5-.235.597-.735.93-1.5 1a601.335 601.335 0 0 0-3.5-3c-1.38 2.477-2.38 2.477-3 0-.824-1.955-.99-3.955-.5-6 .837 1.507 2.004 2.007 3.5 1.5-1.635-1.748-3.635-2.915-6-3.5a51.256 51.256 0 0 1 2-6c.586.21 1.086.543 1.5 1 1.754-1.75 3.92-2.417 6.5-2 .638 1.96.638 3.793 0 5.5.916.374 1.75.874 2.5 1.5a229.415 229.415 0 0 0-1.5-17c.68-3.006 1.346-6.006 2-9a826.992 826.992 0 0 1 5-6c.607.124.94.457 1 1z"/><path style="opacity:1" fill="#627281" d="M52.5 106.5h-1c-1.958-1.6-3.292-3.767-4-6.5a15.044 15.044 0 0 1 3-3.5c1.094 1.368.76 2.535-1 3.5 2.715 1.794 5.715 2.96 9 3.5-1.944 1.301-3.944 2.301-6 3z"/><path style="opacity:1" fill="#32506b" d="M60.5 97.5c2.532 2.115 5.032 2.449 7.5 1 .278.916.778 1.582 1.5 2 .418.722 1.084 1.222 2 1.5-.457.414-.79.914-1 1.5-1.216.596-2.55.763-4 .5 1.07.852 2.07 1.685 3 2.5-2.712 1.487-4.879.821-6.5-2-.384-2.56-1.217-4.894-2.5-7z"/><path style="opacity:1" fill="#485457" d="M41.5 108.5c-.667 0-1 .333-1 1-1.605-1.469-2.105-1.135-1.5 1a109.252 109.252 0 0 1 7.5 6.5c-.544.717-1.21 1.217-2 1.5-.06-.543-.393-.876-1-1-1.7 1.11-3.034 2.443-4 4-10.273-5.605-17.273-13.938-21-25 1.974 1.928 3.474 4.261 4.5 7a18.476 18.476 0 0 0 3.5 2c3.573.798 5.573-.869 6-5-3.047-4.964-4.547-10.297-4.5-16 2.711 9.097 7.211 17.097 13.5 24z"/><path style="opacity:1" fill="#c9d6d8" d="M25.5 101.5c1.837.139 2.17.806 1 2-.797-.457-1.13-1.124-1-2z"/><path style="opacity:1" fill="#25466d" d="M80.5 97.5h3c.172 3.99 1.172 6.99 3 9-.233 1.432-.9 1.932-2 1.5a9.175 9.175 0 0 1-2-4.5c1.215-1.279.882-2.279-1-3a5.728 5.728 0 0 0-1-3z"/><path style="opacity:1" fill="#43352e" d="M82.5 90.5h3c.077 1.25.744 2.083 2 2.5-.457.414-.79.914-1 1.5a32.412 32.412 0 0 1 1.5 6l1-1a39.074 39.074 0 0 0 4.5 4.5c-.457.414-.79.914-1 1.5a45.817 45.817 0 0 1 3 7c-.356 1.022-1.022 1.689-2 2a24.27 24.27 0 0 1-2.5-6c-1 1.333-2 1.333-3 0-.978-4.057-2.478-7.723-4.5-11h-3l-2-2c.904-.709 1.237-1.709 1-3 1.623.99 2.623.324 3-2z"/><path style="opacity:1" fill="#53768b" d="M137.5 101.5c-5.332 6.336-11.999 10.669-20 13a5.727 5.727 0 0 1 1-3c3.571-3.348 6.238-7.348 8-12 1.208-.734 2.541-1.067 4-1-.48 2.505-1.48 4.838-3 7l1 1a31.5 31.5 0 0 1 8.5-7c.464.594.631 1.261.5 2z"/><path style="opacity:1" fill="#465f6d" d="M153.5 107.5a59.043 59.043 0 0 1-9 5 66.515 66.515 0 0 0 6-7.5l-2-1c.752-.671 1.086-1.504 1-2.5.617-.111 1.117-.444 1.5-1-.077 1.238.089 2.238.5 3l3.5-5a29.508 29.508 0 0 0 4.5 2.5 54.53 54.53 0 0 0-6 6.5z"/><path style="opacity:1" fill="#121b24" d="M115.5 106.5c-.734 1.208-1.067 2.541-1 4 1.599-.268 2.932.066 4 1a5.727 5.727 0 0 0-1 3c-3.373.566-6.373 1.899-9 4-1.109-.79-2.442-1.29-4-1.5 2.597-.779 2.597-1.279 0-1.5.647-1.641 1.647-2.974 3-4 1.236-2.149 2.236-4.482 3-7 1.517-.011 2.684-.677 3.5-2 .21 1.558.71 2.891 1.5 4z"/><path style="opacity:1" fill="#3e474f" d="M110.5 104.5c-.764 2.518-1.764 4.851-3 7v-3a9.86 9.86 0 0 0-6 1l1 2-2 1a6.802 6.802 0 0 0 3 1.5c-.916.278-1.582.778-2 1.5a4.934 4.934 0 0 0-3 .5c.516 2.033-.15 2.033-2 0 .935-2.381 1.268-4.881 1-7.5 3.842-.33 7.509-1.163 11-2.5l-7-1a40.914 40.914 0 0 1 9-.5z"/><path style="opacity:1" fill="#6d848f" d="M149.5 101.5c.086.996-.248 1.829-1 2.5l2 1a66.515 66.515 0 0 1-6 7.5l-1 2c-1.653-.16-2.986-.826-4-2a9359.98 9359.98 0 0 0 10-11z"/><path style="opacity:1" fill="#b3c9d2" d="M153.5 107.5c-2.625 3.315-5.958 5.649-10 7l1-2a59.043 59.043 0 0 0 9-5z"/><path style="opacity:1" fill="#3d484c" d="M180.5 103.5h1c-9.491 13.977-22.157 24.144-38 30.5a150.106 150.106 0 0 1-25 6.5c-1.068-.934-2.401-1.268-4-1a115.955 115.955 0 0 0 16-4c14.21-2.937 26.544-9.27 37-19a2.428 2.428 0 0 0 2-.5 188.56 188.56 0 0 0 8-9.5 10.165 10.165 0 0 1 3-3z"/><path style="opacity:1" fill="#c2a786" d="M29.5 119.5a120.91 120.91 0 0 1-11-15c6.112 6.937 13.112 13.77 21 20.5-1.408.315-2.741-.018-4-1a32.318 32.318 0 0 0-6-4.5z"/><path style="opacity:1" fill="#6e8390" d="M107.5 111.5c-1.353 1.026-2.353 2.359-3 4h-3c.418-.722 1.084-1.222 2-1.5a6.802 6.802 0 0 1-3-1.5l2-1-1-2a9.86 9.86 0 0 1 6-1v3z"/><path style="opacity:1" fill="#e8ce9a" d="m13.5 106.5 2 2c.432 1.21 1.099 2.21 2 3 3.355 5.355 7.688 9.688 13 13a6.544 6.544 0 0 0 3 3c-.848 1.125-1.848 1.125-3 0h-1l-14-14a200.586 200.586 0 0 0-3-6c.124-.607.457-.94 1-1z"/><path style="opacity:1" fill="#543919" d="M17.5 111.5c3.62 3.283 7.288 6.616 11 10l2 3c-5.312-3.312-9.645-7.645-13-13z"/><path style="opacity:1" fill="#1a232b" d="m57.5 115.5-2-4c2.58-.415 4.413-1.748 5.5-4a47.045 47.045 0 0 1 6.5 5c-1.52.38-3.187.546-5 .5-1.315 1.395-.981 2.395 1 3-2.045.49-4.045.323-6-.5z"/><path style="opacity:1" fill="#33444c" d="M139.5 107.5c-4.009 3.003-8.009 6.003-12 9-1.538.047-2.538-.62-3-2 4.973-1.798 9.306-4.631 13-8.5 2.448-.853 3.114-.353 2 1.5z"/><path style="opacity:1" fill="#647881" d="M166.5 93.5a20.691 20.691 0 0 1-1 5c-.233 1.562-.9 2.895-2 4-1.667 1-3 2.333-4 4-14.886 13.598-32.553 20.931-53 22h-2c.763-.768 1.763-1.268 3-1.5l-18-1c-1.558-.21-2.891-.71-4-1.5h5c5.589.498 10.922-.168 16-2-.077 1.25-.744 2.083-2 2.5 9.226.447 18.226-.886 27-4 4.459-1.524 8.459-3.691 12-6.5 4.042-1.351 7.375-3.685 10-7 4.725-2.392 8.058-6.059 10-11a10.177 10.177 0 0 0 3-3z"/><path style="opacity:1" fill="#a2bcc0" d="M163.5 102.5c.077 1.25.744 2.083 2 2.5-4.047 3.712-3.214 6.212 2.5 7.5a85.665 85.665 0 0 0 8.5-7c.667 0 1 .333 1 1a188.56 188.56 0 0 1-8 9.5 2.428 2.428 0 0 1-2 .5l-6 3a14.698 14.698 0 0 1 3-3.5c-2.457-1.512-2.457-2.846 0-4a16.2 16.2 0 0 0-3.5-1.5c-1.7 1.427-3.533 2.26-5.5 2.5a46.607 46.607 0 0 1 6-5.5c-.457-.798-1.124-1.131-2-1 1-1.667 2.333-3 4-4z"/><path style="opacity:1" fill="#c8dfe5" d="M191.5 84.5a178.676 178.676 0 0 0-2 10 4104.99 4104.99 0 0 0-10 17l-6 7c-6.335 4.67-12.669 9.336-19 14-6.361 1.562-12.361 3.895-18 7-5.956.587-11.622 1.921-17 4a327.72 327.72 0 0 1-28 1l12-2c5.138.066 10.138-.6 15-2 8.5-1.443 16.834-3.61 25-6.5 15.843-6.356 28.509-16.523 38-30.5 5.778-9.107 8.444-19.107 8-30v-2a4.934 4.934 0 0 1 .5-3 72.271 72.271 0 0 1 1.5 16z"/><path style="opacity:1" fill="#948163" d="m15.5 113.5 14 14-5-2.5c-2.167-3.5-5-6.333-8.5-8.5a4.932 4.932 0 0 1-.5-3z"/><path style="opacity:1" fill="#2d3330" d="M17.5 104.5h1a120.91 120.91 0 0 0 11 15c.172.992-.162 1.658-1 2-3.712-3.384-7.38-6.717-11-10-.901-.79-1.568-1.79-2-3 .233-1.562.9-2.895 2-4z"/><path style="opacity:1" fill="#131617" d="M40.5 109.5a47.816 47.816 0 0 0 13 10v1c-1.894.548-3.56 1.548-5 3a18.915 18.915 0 0 1-5-3c.363-.683.696-1.35 1-2 .79-.283 1.456-.783 2-1.5a109.252 109.252 0 0 0-7.5-6.5c-.605-2.135-.105-2.469 1.5-1z"/><path style="opacity:1" fill="#697f89" d="M139.5 107.5v1c-1.1 1.105-1.767 2.438-2 4 .792 1.467.792 2.8 0 4l-2-2a50.51 50.51 0 0 1-12 6v-5c0-.667.333-1 1-1 .462 1.38 1.462 2.047 3 2 3.991-2.997 7.991-5.997 12-9z"/><path style="opacity:1" fill="#0d0e10" d="M85.5 90.5h4c-.947 4.722.386 8.556 4 11.5 2.33-.157 4.664-.657 7-1.5 3.224-.297 6.224.37 9 2 .683-.363 1.35-.696 2-1a5.727 5.727 0 0 1-1 3 40.914 40.914 0 0 0-9 .5l7 1c-3.491 1.337-7.158 2.17-11 2.5.268 2.619-.065 5.119-1 7.5 1.85 2.033 2.516 2.033 2 0a4.934 4.934 0 0 1 3-.5h3c2.597.221 2.597.721 0 1.5 1.558.21 2.891.71 4 1.5 2.126.603 4.459.603 7 0a121.22 121.22 0 0 1-9 4c-5.078 1.832-10.411 2.498-16 2 1.414-2.098.748-3.098-2-3-.14-1.624.527-2.79 2-3.5a3.646 3.646 0 0 1-1-1.5 105.467 105.467 0 0 1-11-5c.814-2.131 1.314-4.464 1.5-7l2 6c1.756-1.048 3.59-1.048 5.5 0a18.474 18.474 0 0 0 6 4c.978-.311 1.644-.978 2-2a45.817 45.817 0 0 0-3-7 3.646 3.646 0 0 1 1-1.5 39.074 39.074 0 0 1-4.5-4.5l-1 1a32.412 32.412 0 0 0-1.5-6 3.646 3.646 0 0 1 1-1.5c-1.256-.417-1.923-1.25-2-2.5z"/><path style="opacity:1" fill="#78929d" d="M85.5 124.5a43.863 43.863 0 0 0-7-3l-2 1-11-7.5a273.659 273.659 0 0 0 18 7c1.256.417 1.923 1.25 2 2.5z"/><path style="opacity:1" fill="#617a80" d="M41.5 108.5a18.329 18.329 0 0 0 6 4c9.145 7.9 19.811 12.567 32 14l7 2c-1.291-.237-2.291.096-3 1-10.62-1.54-20.62-4.873-30-10a47.816 47.816 0 0 1-13-10c0-.667.333-1 1-1z"/><path style="opacity:1" fill="#3e515f" d="M123.5 115.5v5c-3.946 2.33-8.279 3.664-13 4-1.614-.303-2.948-.97-4-2a121.22 121.22 0 0 0 9-4 592.183 592.183 0 0 1 8-3z"/><path style="opacity:1" fill="#adc5d1" d="M137.5 112.5h2c1.014 1.174 2.347 1.84 4 2-3.541 2.809-7.541 4.976-12 6.5-8.774 3.114-17.774 4.447-27 4 1.256-.417 1.923-1.25 2-2.5 1.052 1.03 2.386 1.697 4 2 4.721-.336 9.054-1.67 13-4a50.51 50.51 0 0 0 12-6l2 2c.792-1.2.792-2.533 0-4z"/><path style="opacity:1" fill="#1b262e" d="M187.5 107.5a9.108 9.108 0 0 1-1 5c-6 5.333-11.667 11-17 17a9.108 9.108 0 0 1-5 1v3c-2.454-.179-4.621.487-6.5 2-1.077-.929-2.244-1.596-3.5-2v-1a18.155 18.155 0 0 0 5.5-2l1 1a55.747 55.747 0 0 0 4.5-5.5c3.819-1.32 6.485-3.82 8-7.5l6-7h2a4.934 4.934 0 0 0 3-.5c.663-1.518 1.663-2.685 3-3.5z"/><path style="opacity:1" fill="#d3edf1" d="M159.5 106.5c.876-.131 1.543.202 2 1a46.607 46.607 0 0 0-6 5.5c1.967-.24 3.8-1.073 5.5-2.5a16.2 16.2 0 0 1 3.5 1.5c-2.457 1.154-2.457 2.488 0 4a14.698 14.698 0 0 0-3 3.5l6-3c-10.456 9.73-22.79 16.063-37 19 2.563-1.648 5.897-3.148 10-4.5-3.444.086-6.777.92-10 2.5a19.221 19.221 0 0 1-3-5c.709-.904 1.709-1.237 3-1v3h3c.14-1.624-.527-2.79-2-3.5 3.323-1.04 6.323-2.54 9-4.5a102.476 102.476 0 0 1-29 7c-1.915.284-3.581-.049-5-1 20.447-1.069 38.114-8.402 53-22z"/><path style="opacity:1" fill="#7f989c" d="M146.5 118.5v2c-1.815 1.13-3.815 1.796-6 2 1.705-1.692 3.705-3.025 6-4z"/><path style="opacity:1" fill="#3e4e53" d="M146.5 120.5v-2c1.894-.548 3.56-1.548 5-3 .012 1.634 1.012 3.134 3 4.5-2.709 4.009-5.376 4.176-8 .5z"/><path style="opacity:1" fill="#413328" d="M17.5 95.5c0 .667.333 1 1 1 3.727 11.062 10.727 19.395 21 25a18.915 18.915 0 0 0 5 3c.086.996-.248 1.829-1 2.5 1.937.122 3.27.955 4 2.5h-3c-2.452-.124-4.452-1.124-6-3-2.303.376-2.637 1.376-1 3-1.562-.233-2.895-.9-4-2a6.544 6.544 0 0 1-3-3l-2-3c.838-.342 1.172-1.008 1-2a32.318 32.318 0 0 1 6 4.5c1.259.982 2.592 1.315 4 1-7.888-6.73-14.888-13.563-21-20.5h-1a53.093 53.093 0 0 1-2-6.5c.184-1.376.85-2.209 2-2.5z"/><path style="opacity:1" fill="#1c2832" d="m40.5 102.5 3 2c.62 2.477 1.62 2.477 3 0 1.165.991 2.332 1.991 3.5 3 .765-.07 1.265-.403 1.5-1h1c.876-.131 1.543.202 2 1-1.603 2.317-3.603 3.15-6 2.5a31.523 31.523 0 0 0 9 5.5c.558 1.29 1.558 2.123 3 2.5a122.26 122.26 0 0 0 22 7.5c-.825.886-1.825 1.219-3 1-12.189-1.433-22.855-6.1-32-14 .262-1.478-.071-2.811-1-4a3.647 3.647 0 0 0-1.5 1c-2.582-1.728-4.082-4.061-4.5-7z"/><path style="opacity:1" fill="#8ea6ab" d="M161.5 119.5c-2.65 3.157-5.983 4.99-10 5.5a73.609 73.609 0 0 1 10-5.5z"/><path style="opacity:1" fill="#738c95" d="M140.5 122.5c-2.677 1.96-5.677 3.46-9 4.5 1.473.71 2.14 1.876 2 3.5h-3v-3c-1.291-.237-2.291.096-3 1h-1a51.545 51.545 0 0 1-15 2v-1a102.476 102.476 0 0 0 29-7z"/><path style="opacity:1" fill="#5f727b" d="M44.5 118.5c-.304.65-.637 1.317-1 2a18.915 18.915 0 0 0 5 3c1.44-1.452 3.106-2.452 5-3a68.687 68.687 0 0 0 14 7c-3.47-.613-5.47.721-6 4a189.138 189.138 0 0 1-17-7 18.915 18.915 0 0 1-5-3c.966-1.557 2.3-2.89 4-4 .607.124.94.457 1 1z"/><path style="opacity:1" fill="#9cb4c0" d="M83.5 129.5c.709-.904 1.709-1.237 3-1h20c1.419.951 3.085 1.284 5 1v1c-9.366.221-18.7-.113-28-1z"/><path style="opacity:1" fill="#3d464d" d="m44.5 129.5 4 3c-.667 0-1 .333-1 1a32.784 32.784 0 0 0-10-4c-1.637-1.624-1.303-2.624 1-3 1.548 1.876 3.548 2.876 6 3z"/><path style="opacity:1" fill="#2a3e47" d="M53.5 119.5c9.38 5.127 19.38 8.46 30 10 9.3.887 18.634 1.221 28 1-.342.838-1.008 1.172-2 1h-22v4h-4c-.273-1.951.393-3.451 2-4.5a87.038 87.038 0 0 1-18-3.5 68.687 68.687 0 0 1-14-7v-1z"/><path style="opacity:1" fill="#30465a" d="M173.5 118.5c-1.515 3.68-4.181 6.18-8 7.5a55.747 55.747 0 0 1-4.5 5.5l-1-1a18.155 18.155 0 0 1-5.5 2c6.331-4.664 12.665-9.33 19-14z"/><path style="opacity:1" fill="#77878d" d="M186.5 127.5h13v4a49.87 49.87 0 0 1-14-1c1.935-.713 2.268-1.713 1-3z"/><path style="opacity:1" fill="#788f99" d="M67.5 127.5a87.038 87.038 0 0 0 18 3.5c-1.607 1.049-2.273 2.549-2 4.5h4v-4h16l-6 2c-1.542-.801-3.209-1.134-5-1v4c-.79-1.109-1.29-2.442-1.5-4a12.935 12.935 0 0 0-.5 5 140.16 140.16 0 0 1-29-6c.53-3.279 2.53-4.613 6-4z"/><path style="opacity:1" fill="#344043" d="M186.5 127.5c1.268 1.287.935 2.287-1 3a49.87 49.87 0 0 0 14 1v1a98.432 98.432 0 0 0-14 .5c-.556.383-.889.883-1 1.5a2.428 2.428 0 0 1-2-.5c1.333-1 1.333-2 0-3 1.032-1.627 2.366-2.793 4-3.5z"/><path style="opacity:1" fill="#0d1012" d="M193.5 97.5c.453.958 1.119 1.792 2 2.5-1.333 1.333-1.333 2.667 0 4l-2 1c.116 1.268.449 2.602 1 4-2.391.691-2.391 1.691 0 3-4.478 2.368-4.811 5.034-1 8-4.352.419-4.685 1.086-1 2-4.865 1.2-5.199 3.033-1 5.5h-5c-1.634.707-2.968 1.873-4 3.5 1.333 1 1.333 2 0 3a2.428 2.428 0 0 0 2 .5c-2.995 2.777-5.661 5.944-8 9.5a4.934 4.934 0 0 1-3 .5v4h-3c1.321-3.989 3.321-7.655 6-11-2.266-.706-4.599-.539-7 .5a11.333 11.333 0 0 0-1.5 3.5l-1-2-3 1-1-6a199.337 199.337 0 0 0-3.5 7 34.033 34.033 0 0 0-8 1.5 15.256 15.256 0 0 0-1.5 4.5c-.542-5.221-1.376-5.221-2.5 0-1.542-1.247-3.042-1.247-4.5 0a7.293 7.293 0 0 0-2-3l-1 7c-.691-2.391-1.691-2.391-3 0-2.42-.988-4.753-.655-7 1l-1-6c-.667 4-1.333 4-2 0-1.011.837-2.178 1.17-3.5 1a4.934 4.934 0 0 1-.5 3 7.293 7.293 0 0 0-2-3c-1.57.17-3.403.503-5.5 1-.151 3.218-.984 3.551-2.5 1-.637 1.803-1.803 3.136-3.5 4a53.719 53.719 0 0 0-6.5-1 6.802 6.802 0 0 1-1.5 3l-7 2c-1.318-10.585-1.985-10.585-2 0h-5a18.437 18.437 0 0 0-.5-6c-2.354.392-4.854.392-7.5 0v-3c5.344.166 10.677-.001 16-.5a67.997 67.997 0 0 1-14-2.5c-1.213-.247-1.88-.914-2-2 2.982.463 5.982.796 9 1 10.492 1.159 21.159 1.325 32 .5-.556-.383-.889-.883-1-1.5 6.183.37 11.849-.964 17-4a151.333 151.333 0 0 0 18-6c1.256.404 2.423 1.071 3.5 2 1.879-1.513 4.046-2.179 6.5-2v-3a9.108 9.108 0 0 0 5-1c5.333-6 11-11.667 17-17a9.108 9.108 0 0 0 1-5 38.236 38.236 0 0 0 6-10z"/><path style="opacity:1" fill="#7b6444" d="M30.5 127.5c1.152 1.125 2.152 1.125 3 0 1.105 1.1 2.438 1.767 4 2l5 4c.172.992-.162 1.658-1 2a29.455 29.455 0 0 1-10-5.5c-.752-.671-1.086-1.504-1-2.5z"/><path style="opacity:1" fill="#727e81" d="M199.5 132.5v2h-15c.111-.617.444-1.117 1-1.5a98.432 98.432 0 0 1 14-.5z"/><path style="opacity:1" fill="#bed6e4" d="M126.5 128.5a19.22 19.22 0 0 1 1 6 67.918 67.918 0 0 1-20 1.5c2.667-.667 2.667-1.333 0-2 1.256-.417 1.923-1.25 2-2.5.992.172 1.658-.162 2-1a51.545 51.545 0 0 0 15-2z"/><path style="opacity:1" fill="#49575c" d="M188.5 134.5h11v3a73.314 73.314 0 0 1-12-1v3a73.314 73.314 0 0 1 12-1v1c-3.655-.028-6.322 1.639-8 5a3.647 3.647 0 0 0 1 1.5c2.42.29 4.754.79 7 1.5v7c-1.105-1.1-2.438-1.767-4-2a31.312 31.312 0 0 0-7-8c-1.601.535-2.101 1.535-1.5 3a25.754 25.754 0 0 0 7.5 5c-1.239.712-1.739 1.712-1.5 3 2.561.734 4.727 2.067 6.5 4v7a321.679 321.679 0 0 1-16.5-14c-.342 2.119-1.175 2.453-2.5 1-1.602-1.574-3.602-2.241-6-2-1.158-1.45-.658-2.45 1.5-3 .617-.949.451-1.782-.5-2.5a16.58 16.58 0 0 0 4-2.5c1.81 1.455 3.477 1.288 5-.5-1.215-2.096-2.049-1.929-2.5.5-.278-.916-.778-1.582-1.5-2 3.084-.756 4.751-2.756 5-6 1.291.237 2.291-.096 3-1z"/><path style="opacity:1" fill="#435f78" d="M154.5 132.5v1a151.333 151.333 0 0 1-18 6c5.639-3.105 11.639-5.438 18-7z"/><path style="opacity:1" fill="#a0bdc8" d="M126.5 128.5h1a19.221 19.221 0 0 0 3 5c3.223-1.58 6.556-2.414 10-2.5-4.103 1.352-7.437 2.852-10 4.5a115.955 115.955 0 0 1-16 4h-6a24.935 24.935 0 0 1-7-.5l10-1c-6.992-.5-13.992-.666-21-.5-.16-1.699.007-3.366.5-5 .21 1.558.71 2.891 1.5 4h5v-3l6-2h6c-.077 1.25-.744 2.083-2 2.5 2.667.667 2.667 1.333 0 2 6.738.49 13.404-.01 20-1.5a19.22 19.22 0 0 0-1-6z"/><path style="opacity:1" fill="#273c49" d="M97.5 133.5v3h-5v-4c1.791-.134 3.458.199 5 1z"/><path style="opacity:1" fill="#080808" d="M6.5 95.5h1a20.676 20.676 0 0 0 1 5c.094 6.61 1.427 12.943 4 19v3a4.934 4.934 0 0 0-3 .5c1.811 2.384 4.145 4.051 7 5l-4 1a4.934 4.934 0 0 0 3 .5c-1.166 4.177-1.166 8.011 0 11.5 3.382.176 6.715.676 10 1.5-1.835.928-2.168 2.094-1 3.5l-2 1c2.092 1.377 3.758 3.21 5 5.5a3.646 3.646 0 0 1-1 1.5 52.347 52.347 0 0 0 9 4.5 4.458 4.458 0 0 1-2 1.5 12.168 12.168 0 0 1 3.5 4.5c1.087-2.432 1.587-2.098 1.5 1 5.388-1.484 10.054-.151 14 4 1.469-1.875 3.302-1.875 5.5 0 1.637-1.333 2.47-2.666 2.5-4 5.767 5.735 8.1 4.568 7-3.5a151.069 151.069 0 0 0 1.5-10.5l1 7c.499-3.986.665-7.986.5-12 3.227.176 6.227.843 9 2v3c2.646.392 5.146.392 7.5 0 .496 1.973.662 3.973.5 6h5c.015-10.585.682-10.585 2 0l7-2a6.802 6.802 0 0 0 1.5-3c2.221.206 4.388.539 6.5 1 1.697-.864 2.863-2.197 3.5-4 1.516 2.551 2.349 2.218 2.5-1 2.097-.497 3.93-.83 5.5-1a7.293 7.293 0 0 1 2 3 4.934 4.934 0 0 0 .5-3c1.322.17 2.489-.163 3.5-1 .667 4 1.333 4 2 0l1 6c2.247-1.655 4.58-1.988 7-1 1.309-2.391 2.309-2.391 3 0l1-7a7.293 7.293 0 0 1 2 3c1.458-1.247 2.958-1.247 4.5 0 1.124-5.221 1.958-5.221 2.5 0a15.256 15.256 0 0 1 1.5-4.5 34.033 34.033 0 0 1 8-1.5 199.337 199.337 0 0 1 3.5-7l1 6 3-1 1 2a11.333 11.333 0 0 1 1.5-3.5c2.401-1.039 4.734-1.206 7-.5-2.679 3.345-4.679 7.011-6 11v3h-1a8.43 8.43 0 0 0-4 .5l1 1c-2.132.918-2.799 2.251-2 4-5.729.672-6.063 1.672-1 3l-9 1c-1.453 2.114-3.453 3.448-6 4a19.602 19.602 0 0 1-2 3.5v-1c.131-.876-.202-1.543-1-2-.925 1.141-1.759 1.141-2.5 0-1.438 1.4-2.271 3.067-2.5 5a14.828 14.828 0 0 0-6.5 2c-1.736-2.564-2.902-2.231-3.5 1-1.234-.328-2.401.338-3.5 2-.945-.405-1.612-1.072-2-2-1.67 5.194-3.17 5.194-4.5 0-2.547.271-4.547 1.271-6 3v1c-.817 2.469-1.317 5.135-1.5 8-.183-2.865-.683-5.531-1.5-8a2.428 2.428 0 0 0-.5-2c-1.188 1.063-1.688 2.397-1.5 4-5.017-1.623-9.683-.957-14 2 .085-1.495-.582-2.495-2-3a14.729 14.729 0 0 0-1.5 5c-.196-1.786-1.03-3.119-2.5-4-1.444 2.108-2.11 4.441-2 7-1.199-3.156-2.865-6.156-5-9-2.701-1.659-4.368-.992-5 2v1c-2.465.596-4.798-.07-7-2l-5 2c-.607-.124-.94-.457-1-1 2.642-1.762 2.475-2.095-.5-1a4.932 4.932 0 0 1-.5-3c-2.429.085-4.429 1.085-6 3a6.807 6.807 0 0 1-1.5-3 2.427 2.427 0 0 0-.5 2c-.961-1.765-1.295-3.765-1-6-3.288.427-6.288-.24-9-2-2.768 2.917-4.268 2.25-4.5-2-1.372 1.41-2.205 3.077-2.5 5v2c-.901-.79-1.568-1.79-2-3 1.113-1.446 1.28-3.113.5-5a7.292 7.292 0 0 0-2 3c-1.011-.837-2.178-1.17-3.5-1-.369-4.097-2.702-6.264-7-6.5-2.094-.862-3.094-2.028-3-3.5a23.833 23.833 0 0 1-9 1c0-.667.333-1 1-1 5.394.009 6.727-1.991 4-6-1.898-.596-3.565-.596-5 0a5.727 5.727 0 0 0-3 1c-.79-.283-1.456-.783-2-1.5 4.21-3.031 3.878-4.031-1-3l3-3c-3.063 1.177-6.396 1.677-10 1.5v-6a60.93 60.93 0 0 0 11-.5c-3.407-1.935-7.074-2.768-11-2.5v-40c2.298-1.771 4.632-2.771 7-3z"/><path style="opacity:1" fill="#445963" d="M44.5 124.5a189.138 189.138 0 0 0 17 7 140.16 140.16 0 0 0 29 6c7.008-.166 14.008 0 21 .5l-10 1c2.31.497 4.643.663 7 .5-9.526 1.212-19.193 1.046-29-.5a196.52 196.52 0 0 1-32-9.5c-.73-1.545-2.063-2.378-4-2.5.752-.671 1.086-1.504 1-2.5z"/><path style="opacity:1" fill="#a8b6ba" d="M199.5 137.5v1a73.314 73.314 0 0 0-12 1v-3c3.966.662 7.966.995 12 1z"/><path style="opacity:1" fill="#323437" d="M-.5 138.5c3.926-.268 7.593.565 11 2.5a60.93 60.93 0 0 1-11 .5v-3z"/><path style="opacity:1" fill="#536975" d="M47.5 133.5c0-.667.333-1 1-1 9.17 3.836 18.503 6.836 28 9 .254.832 1.254 1.499 3 2a104.172 104.172 0 0 1-32-10z"/><path style="opacity:1" fill="#0f1517" d="M44.5 129.5h3a196.52 196.52 0 0 0 32 9.5c9.807 1.546 19.474 1.712 29 .5h6c1.599-.268 2.932.066 4 1a51.522 51.522 0 0 1-15 2c-9.028.18-18.028-.153-27-1-9.497-2.164-18.83-5.164-28-9l-4-3z"/><path style="opacity:1" fill="#38556c" d="M136.5 139.5c-5.151 3.036-10.817 4.37-17 4 5.378-2.079 11.044-3.413 17-4z"/><path style="opacity:1" fill="#242d2f" d="M184.5 134.5h4c-.709.904-1.709 1.237-3 1-.249 3.244-1.916 5.244-5 6-.838.342-1.172 1.008-1 2a16.58 16.58 0 0 1-4 2.5c.951.718 1.117 1.551.5 2.5-2.158.55-2.658 1.55-1.5 3h-4v-3h3v-4a4.934 4.934 0 0 0 3-.5c2.339-3.556 5.005-6.723 8-9.5z"/><path style="opacity:1" fill="#839da2" d="M76.5 141.5c8.972.847 17.972 1.18 27 1l-12 2h-3a104.653 104.653 0 0 1-9-1c-1.746-.501-2.746-1.168-3-2z"/><path style="opacity:1" fill="#b0bbc1" d="M180.5 141.5c.722.418 1.222 1.084 1.5 2 .451-2.429 1.285-2.596 2.5-.5-1.523 1.788-3.19 1.955-5 .5-.172-.992.162-1.658 1-2z"/><path style="opacity:1" fill="#243541" d="M119.5 143.5c.111.617.444 1.117 1 1.5-10.841.825-21.508.659-32-.5h3a327.72 327.72 0 0 0 28-1z"/><path style="opacity:1" fill="#a6b0b2" d="M199.5 139.5v8a38.287 38.287 0 0 0-7-1.5 3.647 3.647 0 0 1-1-1.5c1.678-3.361 4.345-5.028 8-5z"/><path style="opacity:1" fill="#211710" d="M8.5 100.5a176.817 176.817 0 0 0 4.5 11c.708.881 1.542 1.547 2.5 2a4.932 4.932 0 0 0 .5 3c3.5 2.167 6.333 5 8.5 8.5l5 2.5h1c-.086.996.248 1.829 1 2.5a29.455 29.455 0 0 0 10 5.5c4.026 3.397 8.692 4.897 14 4.5-3.796-3.212-8.13-5.378-13-6.5l-5-4a32.784 32.784 0 0 1 10 4 104.172 104.172 0 0 0 32 10c.12 1.086.787 1.753 2 2a67.997 67.997 0 0 0 14 2.5c-5.323.499-10.656.666-16 .5-2.773-1.157-5.773-1.824-9-2a215.143 215.143 0 0 0-19-5 60.94 60.94 0 0 1-.5 11l-1-10-1 9-1-8-1 7-1-3c-.388.928-1.055 1.595-2 2-14.366-6.205-24.866-16.205-31.5-30-2.573-6.057-3.906-12.39-4-19z"/><path style="opacity:1" fill="#533923" d="M42.5 133.5c4.87 1.122 9.204 3.288 13 6.5-5.308.397-9.974-1.103-14-4.5.838-.342 1.172-1.008 1-2z"/><path style="opacity:1" fill="#b9c4c7" d="M195.5 152.5h-1a25.754 25.754 0 0 1-7.5-5c-.601-1.465-.101-2.465 1.5-3a31.312 31.312 0 0 1 7 8z"/><path style="opacity:1" fill="#7a888f" d="M194.5 152.5h1c1.562.233 2.895.9 4 2v5c-1.773-1.933-3.939-3.266-6.5-4-.239-1.288.261-2.288 1.5-3z"/><path style="opacity:1" fill="#7a898e" d="M12.5 152.5c1.207 1.38.873 2.547-1 3.5a157.45 157.45 0 0 0-12 8.5v-3a58.519 58.519 0 0 0 10-8 5.727 5.727 0 0 1 3-1z"/><path style="opacity:1" fill="#2d3639" d="M9.5 153.5a58.519 58.519 0 0 1-10 8v-14c3.604.177 6.937-.323 10-1.5l-3 3c4.878-1.031 5.21-.031 1 3 .544.717 1.21 1.217 2 1.5z"/><path style="opacity:1" fill="#8b9ba1" d="M169.5 151.5h5c2.398-.241 4.398.426 6 2-1.025.397-1.192 1.063-.5 2a772.608 772.608 0 0 0 19.5 16v2c-7.68-4.499-14.68-9.999-21-16.5-4-.667-4-1.333 0-2-7.003-.497-7.337-1.163-1-2-2.865-.183-5.531-.683-8-1.5z"/><path style="opacity:1" fill="#140a05" d="M12.5 119.5c6.634 13.795 17.134 23.795 31.5 30 .945-.405 1.612-1.072 2-2l1 3 1-7 1 8 1-9 1 10a60.94 60.94 0 0 0 .5-11 215.143 215.143 0 0 1 19 5 72.442 72.442 0 0 1-.5 12l-1-7a151.069 151.069 0 0 1-1.5 10.5c1.1 8.068-1.233 9.235-7 3.5-.03 1.334-.863 2.667-2.5 4-2.198-1.875-4.031-1.875-5.5 0-3.946-4.151-8.612-5.484-14-4 .087-3.098-.413-3.432-1.5-1a12.168 12.168 0 0 0-3.5-4.5 4.458 4.458 0 0 0 2-1.5 52.347 52.347 0 0 1-9-4.5c.457-.414.79-.914 1-1.5-1.242-2.29-2.908-4.123-5-5.5l2-1c-1.168-1.406-.835-2.572 1-3.5a52.141 52.141 0 0 0-10-1.5c-1.166-3.489-1.166-7.323 0-11.5a4.934 4.934 0 0 1-3-.5l4-1c-2.855-.949-5.189-2.616-7-5a4.934 4.934 0 0 1 3-.5v-3z"/><path style="opacity:1" fill="#27180d" d="M32.5 146.5c8.839 3.091 16.839 7.758 24 14-.346 1.196-.846 1.196-1.5 0-1.626 2.566-3.126 2.399-4.5-.5-7.553.665-13.22-2.169-17-8.5-1.273-.246-2.44-.246-3.5 0 .213-1.9 1.047-3.567 2.5-5z"/><path style="opacity:1" fill="#adbfc6" d="M199.5 166.5v5a772.608 772.608 0 0 1-19.5-16c-.692-.937-.525-1.603.5-2 1.325 1.453 2.158 1.119 2.5-1a321.679 321.679 0 0 0 16.5 14z"/><path style="opacity:1" fill="#242320" d="M13.5 158.5c-.397-1.025-1.063-1.192-2-.5a399.188 399.188 0 0 0-7 6.5 25.065 25.065 0 0 0 8-5c3.079.24 6.079-.093 9-1-.094 1.472.906 2.638 3 3.5 4.298.236 6.631 2.403 7 6.5 1.322-.17 2.489.163 3.5 1a7.292 7.292 0 0 1 2-3c.78 1.887.613 3.554-.5 5-.06-.543-.393-.876-1-1-1.122 1.13-2.456 1.797-4 2-.333-1-1-1.667-2-2-1.17-1.779-2.836-2.779-5-3-.617.111-1.117.444-1.5 1-3.207-2.65-3.707-2.484-1.5.5a4.458 4.458 0 0 1-2 1.5l-2-4c-1.134 3.416.2 5.583 4 6.5-1.399.595-2.732.428-4-.5-1.419.505-2.085 1.505-2 3a74.424 74.424 0 0 0-3 6.5l-1 .5-2-4a23.602 23.602 0 0 1-3 3.5c.02 1.715.686 3.548 2 5.5a3.646 3.646 0 0 1-1 1.5c2.43 1.441 4.764 2.274 7 2.5-.333 1.667-1.333 2.667-3 3a26.518 26.518 0 0 0-7-5 3.646 3.646 0 0 1 1-1.5 201.333 201.333 0 0 1-6-6.5v-17a157.45 157.45 0 0 1 12-8.5c1.873-.953 2.207-2.12 1-3.5 1.435-.596 3.102-.596 5 0 2.727 4.009 1.394 6.009-4 6z"/><path style="opacity:1" fill="#7d8e92" d="M4.5 164.5c-1.35 1.15-1.184 1.817.5 2a38.238 38.238 0 0 0 8.5-5.5 12.494 12.494 0 0 1 7 0c-5.276 1.913-10.109 4.746-14.5 8.5-1.183-1.231-2.35-1.231-3.5 0a4.458 4.458 0 0 0 2 1.5c-3.588.611-4.754-.889-3.5-4.5.816-1.323 1.983-1.989 3.5-2z"/><path style="opacity:1" fill="#697775" d="M13.5 158.5c-.667 0-1 .333-1 1a25.065 25.065 0 0 1-8 5c2.26-2.15 4.593-4.317 7-6.5.937-.692 1.603-.525 2 .5z"/><path style="opacity:1" fill="#a69c71" d="M24.5 167.5c2.164.221 3.83 1.221 5 3-.342.838-1.008 1.172-2 1a12.072 12.072 0 0 1-3-4z"/><path style="opacity:1" fill="#605442" d="M24.5 167.5a12.072 12.072 0 0 0 3 4c-3.466.468-5.132 2.468-5 6-1.791.134-3.458-.199-5-1-.342-.838-1.008-1.172-2-1-.085-1.495.581-2.495 2-3 1.268.928 2.601 1.095 4 .5-3.8-.917-5.134-3.084-4-6.5l2 4a4.458 4.458 0 0 0 2-1.5c-2.207-2.984-1.707-3.15 1.5-.5.383-.556.883-.889 1.5-1z"/><path style="opacity:1" fill="#2a3538" d="M36.5 171.5c.432 1.21 1.099 2.21 2 3 .417.722 1.084 1.222 2 1.5a31.183 31.183 0 0 1-6 4.5c-1.196-.346-1.196-.846 0-1.5-1.237-.232-2.237-.732-3-1.5v-5c1.544-.203 2.878-.87 4-2 .607.124.94.457 1 1z"/><path style="opacity:1" fill="#415057" d="M169.5 151.5c2.469.817 5.135 1.317 8 1.5-6.337.837-6.003 1.503 1 2-4 .667-4 1.333 0 2 6.32 6.501 13.32 12.001 21 16.5v21c-1.638 1.414-2.972 1.08-4-1-1.211.774-1.211 1.607 0 2.5-5 .667-10 .667-15 0a3.943 3.943 0 0 0 1-2 46.28 46.28 0 0 1-3-5.5c-.526-4.609.141-8.943 2-13a306.78 306.78 0 0 1-16-13.5c-1.667-.667-3.333-.667-5 0a226.946 226.946 0 0 0 13 12.5c1.667 1 3 2.333 4 4a36.875 36.875 0 0 1-1 12c-2.256.921-3.256 2.588-3 5h3c.266-3.579 1.599-3.913 4-1-2.111 1.105-3.445 2.771-4 5h-7c-.313-3.542.021-6.875 1-10 1.145-3.811 1.312-7.811.5-12-3.515-3.386-7.349-6.052-11.5-8 1.517 3.087 2.184 6.421 2 10-.66 1.464-.993 3.131-1 5a58.354 58.354 0 0 1 2 15h-8c.167-11.338 0-22.672-.5-34-.928 1.835-2.094 2.168-3.5 1a202.115 202.115 0 0 0-1.5 20 63.131 63.131 0 0 1-1.5-18 19.602 19.602 0 0 0 2-3.5c2.547-.552 4.547-1.886 6-4l9-1c-5.063-1.328-4.729-2.328 1-3-.799-1.749-.132-3.082 2-4l-1-1a8.43 8.43 0 0 1 4-.5z"/><path style="opacity:1" fill="#9badb4" d="M169.5 189.5a171.684 171.684 0 0 0-1.5-12c-.176 4.188-.676 8.188-1.5 12v-7c.408-3.099-.759-5.433-3.5-7l-1 12c-.183-2.865-.683-5.531-1.5-8 .184-3.579-.483-6.913-2-10 4.151 1.948 7.985 4.614 11.5 8 .812 4.189.645 8.189-.5 12z"/><path style="opacity:1" fill="#a8bbc3" d="M178.5 188.5a4.934 4.934 0 0 1-.5 3c-.175-4.519-.675-8.853-1.5-13-1-1.667-2.333-3-4-4a226.946 226.946 0 0 1-13-12.5c1.667-.667 3.333-.667 5 0a306.78 306.78 0 0 0 16 13.5c-1.859 4.057-2.526 8.391-2 13z"/><path style="opacity:1" fill="#2f3a40" d="M146.5 167.5c-1.936 4.215-2.603 8.881-2 14-1.879-.841-3.879-1.175-6-1 .219-1.175-.114-2.175-1-3a35.775 35.775 0 0 1-7-4c.598-3.231 1.764-3.564 3.5-1a14.828 14.828 0 0 1 6.5-2c.229-1.933 1.062-3.6 2.5-5 .741 1.141 1.575 1.141 2.5 0 .798.457 1.131 1.124 1 2z"/><path style="opacity:1" fill="#8a9ca4" d="M172.5 174.5c2.147 4.784 2.481 9.784 1 15l-1.5-12c-3.3-2.057-3.133-3.057.5-3z"/><path style="opacity:1" fill="#5d6462" d="M33.5 182.5c-2.7-1.044-3.367-2.71-2-5 .763.768 1.763 1.268 3 1.5-1.196.654-1.196 1.154 0 1.5a31.183 31.183 0 0 0 6-4.5c-.916-.278-1.583-.778-2-1.5v-2c1.26-.299 2.427-.299 3.5 0 .138 1.932-.362 3.766-1.5 5.5l2.5 2.5c3.346-.589 3.346.078 0 2-1.996-.496-3.663-1.496-5-3a11.102 11.102 0 0 1-4.5 3z"/><path style="opacity:1" fill="#202b2f" d="M77.5 180.5a40.939 40.939 0 0 1-.5 9c-4.78 1.943-7.947 5.276-9.5 10h-7a126.02 126.02 0 0 0 7.5-6c.154-15.959-.679-15.959-2.5 0-2.964 1.308-5.297 3.308-7 6h-11a173.48 173.48 0 0 1 10.5-9c.651-4.646 2.818-8.313 6.5-11 .06.543.393.876 1 1l5-2c2.202 1.93 4.535 2.596 7 2z"/><path style="opacity:1" fill="#d7ecee" d="M135.5 184.5a5.727 5.727 0 0 1-3 1h-2c-3.671-.684-4.671-2.684-3-6 3.112-1.483 5.945-1.15 8.5 1 .579 1.428.412 2.762-.5 4z"/><path style="opacity:1" fill="#65787e" d="M193.5 180.5h5c.074 4.201-1.759 5.535-5.5 4-.579-1.428-.412-2.762.5-4z"/><path style="opacity:1" fill="#96afba" d="M95.5 184.5c3.568 1.469 3.902 3.636 1 6.5-2.671.833-5.004.333-7-1.5.19-3.857 2.19-5.524 6-5z"/><path style="opacity:1" fill="#423121" d="M29.5 170.5c1 .333 1.667 1 2 2v5c-1.367 2.29-.7 3.956 2 5 .334 2.688-.333 5.021-2 7h-1c-1.034 1.187-2.367 2.02-4 2.5a2.429 2.429 0 0 0 2 .5c-2.063 3.473-4.563 3.806-7.5 1l-1 1c-.47-1.077-.303-2.077.5-3 5.974-1.955 8.308-5.955 7-12 2.27.625 2.604-.375 1-3-1.189-.929-2.522-1.262-4-1v6c-2.88-1.054-5.214-1.054-7 0-1.22-1.55-1.22-3.216 0-5 1.542.801 3.209 1.134 5 1-.132-3.532 1.534-5.532 5-6 .992.172 1.658-.162 2-1z"/><path style="opacity:1" fill="#a99663" d="M27.5 179.5c-.709-.904-1.709-1.237-3-1v-3c1.478-.262 2.811.071 4 1 1.604 2.625 1.27 3.625-1 3z"/><path style="opacity:1" fill="#63737a" d="M77.5 179.5h5a50.442 50.442 0 0 1-.5 10c-4.56 2.525-8.393 5.858-11.5 10h-3c1.553-4.724 4.72-8.057 9.5-10 .498-2.982.665-5.982.5-9v-1z"/><path style="opacity:1" fill="#0c2733" d="M93.5 186.5c1.837.139 2.17.806 1 2-.797-.457-1.13-1.124-1-2z"/><path style="opacity:1" fill="#73848c" d="M166.5 182.5a31.147 31.147 0 0 1-2-2c-1.333 4.333-1.333 8.667 0 13 1.611-.82 2.278-2.154 2-4 .824-3.812 1.324-7.812 1.5-12a171.684 171.684 0 0 1 1.5 12c-.979 3.125-1.313 6.458-1 10h-7a58.354 58.354 0 0 0-2-15c.007-1.869.34-3.536 1-5 .817 2.469 1.317 5.135 1.5 8l1-12c2.741 1.567 3.908 3.901 3.5 7z"/><path style="opacity:1" fill="#3c4f56" d="M166.5 182.5v7c.278 1.846-.389 3.18-2 4-1.333-4.333-1.333-8.667 0-13a31.147 31.147 0 0 0 2 2z"/><path style="opacity:1" fill="#98a9b0" d="M153.5 199.5h-7c1.328-2.245 3.161-2.578 5.5-1 .706-3.389-.128-6.389-2.5-9-1.22 1.211-2.387 1.211-3.5 0-.198-1.882-.698-3.548-1.5-5h-1a5.727 5.727 0 0 1 1-3c-.603-5.119.064-9.785 2-14v1a63.131 63.131 0 0 0 1.5 18c.169-6.691.669-13.358 1.5-20 1.406 1.168 2.572.835 3.5-1 .5 11.328.667 22.662.5 34z"/><path style="opacity:1" fill="#2a1f16" d="M24.5 178.5c1.291-.237 2.291.096 3 1 1.308 6.045-1.026 10.045-7 12-2.99.17-4.99-1.163-6-4 1.64.347 3.307-.153 5-1.5l-2-1c.671-.986.671-2.153 0-3.5 1.786-1.054 4.12-1.054 7 0v-3z"/><path style="opacity:1" fill="#354047" d="M143.5 184.5h1c.284 3.277-.049 6.443-1 9.5a4.457 4.457 0 0 1 2 1.5c-.863 1.226-.863 2.56 0 4h-14a53.805 53.805 0 0 0 1-14 5.727 5.727 0 0 0 3-1c2.876-.292 5.543-.292 8 0z"/><path style="opacity:1" fill="#57666c" d="M95.5 181.5v3c-3.81-.524-5.81 1.143-6 5a33.685 33.685 0 0 1-5.5 4 18.437 18.437 0 0 0-.5 6h-1c.268-2.619-.065-5.119-1-7.5a45.52 45.52 0 0 1 6-5.5c-.11-2.559.556-4.892 2-7 1.47.881 2.304 2.214 2.5 4a14.729 14.729 0 0 1 1.5-5c1.418.505 2.085 1.505 2 3z"/><path style="opacity:1" fill="#b6d2d8" d="M176.5 164.5c3.546 3.235 7.546 5.568 12 7-1.87 4.761-2.537 9.761-2 15 3.5-.005 5 1.662 4.5 5-2.667 2.667-5.333 2.667-8 0-.722-2.161-.055-3.828 2-5a49.226 49.226 0 0 0 0-14c-3.38-2.217-6.213-4.884-8.5-8z"/><path style="opacity:1" fill="#6a787f" d="M55.5 177.5a2.427 2.427 0 0 1 .5-2 6.807 6.807 0 0 0 1.5 3c1.571-1.915 3.571-2.915 6-3a4.932 4.932 0 0 0 .5 3c2.975-1.095 3.142-.762.5 1-3.682 2.687-5.849 6.354-6.5 11a173.48 173.48 0 0 0-10.5 9h-5a65.189 65.189 0 0 0 8-6.5l-2-1a1148.647 1148.647 0 0 0 4-17.5c.83 5.302 1.33 10.636 1.5 16 .37-4.363.87-8.696 1.5-13z"/><path style="opacity:1" fill="#354147" d="M87.5 186.5a45.52 45.52 0 0 0-6 5.5c.935 2.381 1.268 4.881 1 7.5h-12c3.107-4.142 6.94-7.475 11.5-10 .498-3.317.665-6.65.5-10h-5c.632-2.992 2.299-3.659 5-2 2.135 2.844 3.801 5.844 5 9z"/><path style="opacity:1" fill="#3e4c51" d="M130.5 173.5a35.775 35.775 0 0 0 7 4c.886.825 1.219 1.825 1 3 2.121-.175 4.121.159 6 1a5.727 5.727 0 0 0-1 3c-2.457-.292-5.124-.292-8 0 .912-1.238 1.079-2.572.5-4-2.555-2.15-5.388-2.483-8.5-1-1.671 3.316-.671 5.316 3 6a53.805 53.805 0 0 1-1 14h-4c3.793-4.167 3.959-8.5.5-13l-1-9a25.238 25.238 0 0 0 0 10c2.251 2.517 3.084 5.517 2.5 9a84.902 84.902 0 0 0-13 .5c-.881.708-1.547 1.542-2 2.5h-10c4.59-4.603 9.923-7.936 16-10a98.432 98.432 0 0 0-.5-14c-1.011.837-2.178 1.17-3.5 1 1.453-1.729 3.453-2.729 6-3 1.33 5.194 2.83 5.194 4.5 0 .388.928 1.055 1.595 2 2 1.099-1.662 2.266-2.328 3.5-2z"/><path style="opacity:1" fill="#74858c" d="M119.5 178.5c.722.418 1.222 1.084 1.5 2 .497 2.646.664 5.313.5 8 2.962-.383 3.962.617 3 3-2.296 1.503-4.629 1.837-7 1 .59-1.299 1.59-2.132 3-2.5-.96-3.73-1.293-7.563-1-11.5z"/><path style="opacity:1" fill="#3a4c51" d="M129.5 180.5c1.478-.262 2.811.071 4 1-1.963 2.694-3.297 2.361-4-1z"/><path style="opacity:1" fill="#526167" d="M144.5 184.5c.802 1.452 1.302 3.118 1.5 5 1.113 1.211 2.28 1.211 3.5 0 2.372 2.611 3.206 5.611 2.5 9-2.339-1.578-4.172-1.245-5.5 1h-1c-.863-1.44-.863-2.774 0-4a4.457 4.457 0 0 0-2-1.5c.951-3.057 1.284-6.223 1-9.5z"/><path style="opacity:1" fill="#212a2f" d="M55.5 177.5c-.63 4.304-1.13 8.637-1.5 13-.17-5.364-.67-10.698-1.5-16a1148.647 1148.647 0 0 1-4 17.5l2 1a65.189 65.189 0 0 1-8 6.5h-16c-1.225-1.949-.558-3.282 2-4 1.153-1.187 1.153-2.187 0-3a2.429 2.429 0 0 1-2-.5c1.633-.48 2.966-1.313 4-2.5.834 1.248 2.167 1.915 4 2 5.325-1.134 9.825-3.801 13.5-8a25.249 25.249 0 0 0 0-10 73.594 73.594 0 0 1-2.5 10.5l-7 5c-2.31.497-4.643.663-7 .5 1.667-1.979 2.334-4.312 2-7a11.102 11.102 0 0 0 4.5-3c1.337 1.504 3.004 2.504 5 3 3.346-1.922 3.346-2.589 0-2l-2.5-2.5c1.138-1.734 1.638-3.568 1.5-5.5-1.073-.299-2.24-.299-3.5 0 .295-1.923 1.128-3.59 2.5-5 .232 4.25 1.732 4.917 4.5 2 2.712 1.76 5.712 2.427 9 2-.295 2.235.039 4.235 1 6z"/><path style="opacity:1" fill="#536166" d="M30.5 189.5h1c2.357.163 4.69-.003 7-.5l7-5a73.594 73.594 0 0 0 2.5-10.5 25.249 25.249 0 0 1 0 10c-3.675 4.199-8.175 6.866-13.5 8-1.833-.085-3.166-.752-4-2z"/><path style="opacity:1" fill="#7a8a91" d="M111.5 177.5c1.306 6.456-.861 11.123-6.5 14-.749 1.135-.583 2.135.5 3l8-6a31.116 31.116 0 0 0 1-11v-1c1.322.17 2.489-.163 3.5-1 .499 4.655.666 9.321.5 14-6.077 2.064-11.41 5.397-16 10h-4c3.914-2.005 5.747-5.339 5.5-10a14.506 14.506 0 0 1 5-4c.495-1.973.662-3.973.5-6-.188-1.603.312-2.937 1.5-4 .464.594.631 1.261.5 2z"/><path style="opacity:1" fill="#36454b" d="M111.5 177.5c.817 2.469 1.317 5.135 1.5 8 .183-2.865.683-5.531 1.5-8a31.116 31.116 0 0 1-1 11l-8 6c-1.083-.865-1.249-1.865-.5-3 5.639-2.877 7.806-7.544 6.5-14z"/><path style="opacity:1" fill="#79878d" d="M130.5 185.5h2a53.805 53.805 0 0 1-1 14h-2a53.805 53.805 0 0 0 1-14z"/><path style="opacity:1" fill="#191917" d="M15.5 175.5c.992-.172 1.658.162 2 1-1.22 1.784-1.22 3.45 0 5 .671 1.347.671 2.514 0 3.5l2 1c-1.693 1.347-3.36 1.847-5 1.5 1.01 2.837 3.01 4.17 6 4-.803.923-.97 1.923-.5 3l1-1c2.937 2.806 5.437 2.473 7.5-1 1.153.813 1.153 1.813 0 3-2.558.718-3.225 2.051-2 4h-21c1.074-1.385 2.407-2.551 4-3.5-3.723-2.057-6.39-5.057-8-9a2.429 2.429 0 0 0-2-.5v-5a201.333 201.333 0 0 0 6 6.5c-.457.414-.79.914-1 1.5a26.518 26.518 0 0 1 7 5c1.667-.333 2.667-1.333 3-3-2.236-.226-4.57-1.059-7-2.5.457-.414.79-.914 1-1.5-1.314-1.952-1.98-3.785-2-5.5a23.602 23.602 0 0 0 3-3.5l2 4 1-.5a74.424 74.424 0 0 1 3-6.5z"/><path style="opacity:1" fill="#819197" d="M125.5 199.5h-13c.453-.958 1.119-1.792 2-2.5a84.902 84.902 0 0 1 13-.5c.584-3.483-.249-6.483-2.5-9a25.238 25.238 0 0 1 0-10l1 9c3.459 4.5 3.293 8.833-.5 13z"/><path style="opacity:1" fill="#253033" d="M-.5 186.5a2.429 2.429 0 0 1 2 .5c1.61 3.943 4.277 6.943 8 9-1.593.949-2.926 2.115-4 3.5h-6v-13z"/><path style="opacity:1" fill="#515e64" d="M60.5 199.5h-2c1.703-2.692 4.036-4.692 7-6 1.821-15.959 2.654-15.959 2.5 0a126.02 126.02 0 0 1-7.5 6z"/><path style="opacity:1" fill="#242e32" d="M109.5 179.5a18.453 18.453 0 0 1-.5 6 14.506 14.506 0 0 0-5 4c.247 4.661-1.586 7.995-5.5 10h-4c.841-1.879 1.175-3.879 1-6h-4c.472 2.858-.528 4.858-3 6h-5a18.437 18.437 0 0 1 .5-6 33.685 33.685 0 0 0 5.5-4c1.996 1.833 4.329 2.333 7 1.5 2.902-2.864 2.568-5.031-1-6.5v-3c4.317-2.957 8.983-3.623 14-2z"/><path style="opacity:1" fill="#495459" d="M94.5 199.5h-6c2.472-1.142 3.472-3.142 3-6h4c.175 2.121-.159 4.121-1 6z"/><path style="opacity:1" fill="#6d7c83" d="M176.5 178.5c.825 4.147 1.325 8.481 1.5 13a4.934 4.934 0 0 0 .5-3 46.28 46.28 0 0 0 3 5.5 3.943 3.943 0 0 1-1 2c5 .667 10 .667 15 0-1.211-.893-1.211-1.726 0-2.5 1.028 2.08 2.362 2.414 4 1v5h-24c.555-2.229 1.889-3.895 4-5-2.401-2.913-3.734-2.579-4 1h-3c-.256-2.412.744-4.079 3-5a36.875 36.875 0 0 0 1-12z"/></svg>