<svg xmlns="http://www.w3.org/2000/svg" width="200" height="200" style="shape-rendering:geometricPrecision;text-rendering:geometricPrecision;image-rendering:optimizeQuality;fill-rule:evenodd;clip-rule:evenodd"><path fill="#1e273d" d="M-.5-.5h22q-2.403 2.36-6 2 .338 3.324-2.5 5Q9.358 2.789 11.5 8q-2.15 4.063-6 6.5 1.676 2.174 2 5a68 68 0 0 1-3 9.5q.685.621 1 1.5-2.835 1.215-4 4 .42 5.32 0 11 .11 2.29-2 3z" style="opacity:1"/><path fill="#242e40" d="M21.5-.5h9v1q-2.81 6.165-5 12a30 30 0 0 1-5 2q-1.329-1.237-1-3h-3q-.32 2.466 1 4.5-1.75.75-2.5 2.5a102 102 0 0 1-4 13l-1-1q-4.868 2.691-7 8-.279 3.804-1.5 7 .42-5.68 0-11 1.164-2.785 4-4a3.65 3.65 0 0 0-1-1.5 68 68 0 0 0 3-9.5q-.324-2.826-2-5 3.85-2.437 6-6.5Q9.358 2.789 13 6.5q2.838-1.676 2.5-5 3.597.36 6-2" style="opacity:1"/><path fill="#2e4154" d="M122.5-.5h25a42 42 0 0 0 6 2q1.561 3.737 2.5 0 4.8 5.047 11.5 7 1.329-1.238 1-3 1.937-.356 3 1v3q-1.763-.329-3 1a71 71 0 0 1 4 2h-5q-.78 5.112-3 10-1.555-4.555-6-6h-3q.329-1.763-1-3-4.083-.764-6.5-4a27.4 27.4 0 0 1-9-4q-3.127 1.72-4.5-2-2.738 1.606-3.5-2-3.648 1.19-7 1-1.559-1.116-1.5-3" style="opacity:1"/><path fill="#232a3e" d="M147.5-.5h52v21q-1.083-.626-1.5-2l-1 2q-1.086-3.688-4-3l-1.5-1.5q2.775-5.2-3-5.5a18.5 18.5 0 0 0-.5-6q-1.006-1.129-2.5-1-1.5-2-3 0-3.74-3.623-4 1-2.254-.828-5 0-.32 2.466 1 4.5l-1 .5a44 44 0 0 0-2-3q-1.063-1.356-3-1 .329 1.762-1 3-6.7-1.953-11.5-7-.939 3.737-2.5 0a42 42 0 0 1-6-2" style="opacity:1"/><path fill="#385a6f" d="M84.5-.5h38q-.059 1.884 1.5 3 3.352.19 7-1 .762 3.606 3.5 2 1.373 3.72 4.5 2a27.4 27.4 0 0 0 9 4q2.417 3.236 6.5 4 1.329 1.237 1 3-1.936-.356-3 1-1.437.68-2.5 2-4.562-6.23-12.5-6.5l-6-4a250 250 0 0 0-11-1.5 30 30 0 0 1-3.5-3q-4.591 1.443-10-1H90Q75.19 8.5 60.5 16a21.35 21.35 0 0 1-9 1.5q.24-2.55-.5-5-1.005-1.129-2.5-1-.195-1.314 1-2a11.1 11.1 0 0 0 3.5 2A176 176 0 0 1 64.5 9q3.368-3.13 8-4l-1-1q3.637-.44 5.5-3.5a7.9 7.9 0 0 0 3.5 1q2.782.24 4-2" style="opacity:1"/><path fill="#263347" d="M182.5 3.5q-6.347 5.629 1 10 6.783-3.675 2-10 1.494-.128 2.5 1 .743 2.96.5 6 5.775.3 3 5.5l1.5 1.5q2.914-.688 4 3l1-2q.417 1.374 1.5 2v35q-8.82-13.087-11.5-28a20.7 20.7 0 0 0-3.5-4q-1.591 2.305-1 9-4.928-2.915-5-8-1.237-1.329-3-1a101 101 0 0 0-3-8v-3a71 71 0 0 0-4-2q1.237-1.329 3-1v-3a44 44 0 0 1 2 3l1-.5q-1.32-2.034-1-4.5 2.746-.828 5 0 .26-4.623 4-1" style="opacity:1"/><path fill="#32495d" d="M30.5-.5h1q4.056 6.303 3 13.5a167 167 0 0 0 2 6.5q2.75-3.715 4-8 2.85.1 5.5-1a26 26 0 0 1 4.5-4l2.5 3q1.47-4.247 6-5a4.45 4.45 0 0 0 1.5 2q4.84-4.662 11-7h13q-1.218 2.24-4 2a7.9 7.9 0 0 1-3.5-1Q75.137 3.56 71.5 4l1 1q-4.632.87-8 4A176 176 0 0 0 53 11.5a11.1 11.1 0 0 1-3.5-2q-1.195.686-1 2-2.44 3.93 2 5.5-2.024 1.159-2.5 3.5-3.57 1.402-7.5 1a6.85 6.85 0 0 0 1 4l-4 3q-1.71 1.388 0 2.5-2.27 3.034-4-.5a379 379 0 0 1-2-23q.402-2.398-1-4v-4" style="opacity:1"/><path fill="#2c384d" d="M31.5-.5h40q-6.16 2.338-11 7a4.45 4.45 0 0 1-1.5-2q-4.53.753-6 5l-2.5-3a26 26 0 0 0-4.5 4 13 13 0 0 1-5.5 1q-1.25 4.285-4 8a167 167 0 0 1-2-6.5q1.056-7.197-3-13.5" style="opacity:1"/><path fill="#6cc3d2" d="M185.5 3.5q4.783 6.325-2 10-7.347-4.371-1-10 1.5-2 3 0" style="opacity:1"/><path fill="#4e869a" d="M120.5 7.5q5.606.64 11 1.5l6 4q7.938.27 12.5 6.5 1.063-1.32 2.5-2a18.5 18.5 0 0 1-.5 6q-.476-2.7-2-1-4.983-5.815-12.5-4.5 2 1 0 2a75 75 0 0 1 10 6.5 367 367 0 0 0-19-9q3.823-.17 7 2 .475-3.88-4-5.5A73 73 0 0 1 115 9.5q-.625 1.884-2.5 2h-2q-1.359-2.197-4-3v4a42.4 42.4 0 0 0-12-4q4.092-3.196 9.5-4l1.5 1.5a236 236 0 0 1 14 2.5q.91-.186 1-1" style="opacity:1"/><path fill="#6cbbcc" d="M90.5 9.5a19.6 19.6 0 0 1 4 3.5q-5.03.683-10 1.5-8.093 1.857-15 6-4.88.44-8 4-5.325 1.834-9 6-1.627 3.13-5 4-3.834 1.565-6.5 5a60.4 60.4 0 0 0-5.5 8q-3.064 1.62-4 5-1.477-6.201-1-13v-24a579 579 0 0 0 2.5 31l3.5-3.5-1-1q7.596-3.945 6-12.5 6.113.151 7.5-6 2.406 1.725 5 0 4.745-2.86 9.5-5.5a91.6 91.6 0 0 1 21-7q2.382-3.718 6-1.5" style="opacity:1"/><path fill="#7be1e9" d="M167.5 12.5h5v7q-2.312 1.2-5 1z" style="opacity:1"/><path fill="#384f62" d="M110.5 11.5h2q.166.925 1 1.5 8.159.657 15 4.5a44.6 44.6 0 0 0-12-1.5q3.642 1.527 4 5.5-.925-.165-1.5-1-.417 1.374-1.5 2a4.93 4.93 0 0 0-.5-3 76 76 0 0 0-6.5-8" style="opacity:1"/><path fill="#6ebbca" d="M128.5 17.5q-6.841-3.843-15-4.5-.834-.575-1-1.5 1.875-.116 2.5-2a73 73 0 0 0 16.5 4.5q4.475 1.62 4 5.5-3.177-2.17-7-2" style="opacity:1"/><path fill="#303141" d="M90.5 9.5q1.602-1.402 4-1a42.4 42.4 0 0 1 12 4v-4q2.641.803 4 3-3.085.686 0 3 1.281 2.302 0 4-5.505-7.752-15-7.5.816 1.076 2 1.5a129 129 0 0 1 4 6q-7.552-4.556-16-2-3.265 1.506-1-2a360 360 0 0 1 10-1.5 19.6 19.6 0 0 0-4-3.5" style="opacity:1"/><path fill="#e5cabb" d="M110.5 18.5q.098.657-.5 1l-3-3-.5 1q2.566 2.61 2.5 6-3.609-7.862-11.5-11-1.184-.424-2-1.5 9.495-.252 15 7.5" style="opacity:1"/><path fill="#e0c8ba" d="M110.5 11.5a76 76 0 0 1 6.5 8q.724 1.422.5 3v1q-1.083-.626-1.5-2l-1 2q-2.038-4.836-4.5-9-3.085-2.314 0-3" style="opacity:1"/><path fill="#96e1eb" d="M181.5 16.5h4v3q-3.71.618-4-3" style="opacity:1"/><path fill="#4a7f93" d="M120.5 7.5q-.09.814-1 1a236 236 0 0 0-14-2.5L104 4.5q-5.408.804-9.5 4-2.398-.402-4 1-3.618-2.218-6 1.5a91.6 91.6 0 0 0-21 7 310 310 0 0 0-9.5 5.5q-2.594 1.725-5 0-1.387 6.151-7.5 6 1.596 8.555-6 12.5l1 1-3.5 3.5a579 579 0 0 1-2.5-31q-.46-4.328 1-8 .649 11.522 2 23 1.73 3.534 4 .5-1.71-1.112 0-2.5l4-3a6.85 6.85 0 0 1-1-4q3.93.402 7.5-1 .476-2.341 2.5-3.5-4.44-1.57-2-5.5 1.495-.129 2.5 1 .74 2.45.5 5a21.35 21.35 0 0 0 9-1.5Q75.19 8.5 90 3.5h17q5.409 2.443 10 1a30 30 0 0 0 3.5 3" style="opacity:1"/><path fill="#486a7d" d="M84.5 14.5q-2.265 3.506 1 2 0 1 1 1-1.602 1.402-4 1 .195-1.314-1-2a127 127 0 0 1-12 4q6.907-4.143 15-6" style="opacity:1"/><path fill="#d5b7aa" d="M101.5 18.5q3.8 8.746-3 1.5a23.9 23.9 0 0 0-9-2.5h-3q-1 0-1-1 8.448-2.556 16 2" style="opacity:1"/><path fill="#473949" d="M86.5 17.5h3q1.54 2.541 4 4-7.431-.836-8 1v1q-1.257.512-1 2a44 44 0 0 1-2-1q-1.536 2.03-4 2 1.42-3.386-3-3.5 1.684-1.565 4-2-2-1 0-2a4.93 4.93 0 0 1 3-.5q2.398.402 4-1" style="opacity:1"/><path fill="#395f74" d="M167.5 12.5v8q2.688.2 5-1l-1 4h-5v5q-9.845-1.88-8-12 4.445 1.445 6 6 2.22-4.888 3-10" style="opacity:1"/><path fill="#928387" d="M120.5 21.5q1.728-1.687 3 0-3.62 1.77-3 6l-2-1q.356-1.937-1-3v-1q1.083-.626 1.5-2 .575.835 1.5 1" style="opacity:1"/><path fill="#387186" d="M69.5 20.5q-3.523 2.761-8 4 3.12-3.56 8-4" style="opacity:1"/><path fill="#d4a796" d="M93.5 21.5q7.578.834 8.5 8-7.22-4.702-16.5-7 .569-1.836 8-1" style="opacity:1"/><path fill="#a4685d" d="M97.5 12.5q7.891 3.138 11.5 11 .066-3.39-2.5-6l.5-1 3 3q.598-.343.5-1 1.281-1.698 0-4 2.462 4.164 4.5 9l1-2q.417 1.374 1.5 2 1.356 1.063 1 3-.226 4.828-2.5 1-2.02 4.125-4 1-2.23 5.216-8 6-5.13-1.66-10.5-5-2.868-4.441-8-6v-1q9.28 2.298 16.5 7-.922-7.166-8.5-8-2.46-1.46-4-4a23.9 23.9 0 0 1 9 2.5q6.8 7.246 3-1.5a129 129 0 0 0-4-6" style="opacity:1"/><path fill="#75798c" d="M124.5 24.5q4.337 1.56 8 4-5.132-.027-8-4" style="opacity:1"/><path fill="#f2f6e9" d="M128.5 17.5a367 367 0 0 1 19 9 6.54 6.54 0 0 0 3 3q1.67 8.42 10 10.5 1.857 1.035 0 1.5-2 0-2 2a5.73 5.73 0 0 0-3-1l-8-6-2-1a26.2 26.2 0 0 0-7-5 31.7 31.7 0 0 0-6-2q-3.663-2.44-8-4 .356-1.937-1-3-1.272-1.687-3 0-.358-3.972-4-5.5a44.6 44.6 0 0 1 12 1.5" style="opacity:1"/><path fill="#30485d" d="M18.5 17.5a5.58 5.58 0 0 1 3 1l2 5a54.5 54.5 0 0 1 5-6q.393 11.58-1.5 23-1.517-1.255-3.5-1 .003 3.495-2.5 6-.85-3.334-2.5-6 .48-7.295-1-14v-2q5.455-1.912 1-6" style="opacity:1"/><path fill="#42738b" d="M61.5 24.5q-3.713 4.111-9 6 3.675-4.166 9-6" style="opacity:1"/><path fill="#565c68" d="M137.5 27.5q1.329-1.914 3 0-1.388 1.593-3 0" style="opacity:1"/><path fill="#29364b" d="M30.5.5v3l-2 14a54.5 54.5 0 0 0-5 6l-2-5a5.58 5.58 0 0 0-3-1q-5.033 2.527-1 6v2q-1 0-1 1-2.857 1.445-3 5 2.787 7.24-2 13-1.824.753-3.5 1a115 115 0 0 1-5 13q1.002 8.553-1.5 17 1.75 6.535-.5 13-.574.835-1.5 1v-41q2.11-.71 2-3 1.221-3.196 1.5-7 2.132-5.309 7-8l1 1a102 102 0 0 0 4-13q.75-1.75 2.5-2.5-1.32-2.034-1-4.5h3q-.329 1.763 1 3a30 30 0 0 0 5-2q2.19-5.835 5-12" style="opacity:1"/><path fill="#5cb7cf" d="M18.5 17.5q4.455 4.088-1 6-4.033-3.473 1-6" style="opacity:1"/><path fill="#3a667b" d="M30.5 3.5q1.402 1.602 1 4-1.46 3.672-1 8v24q-1.258.513-1 2-1.766 5.405-6 9.5 1.044 2.232-1 4.5-2.047 1.96-4 0v-16q1.65 2.666 2.5 6 2.503-2.505 2.5-6 1.983-.255 3.5 1a116.3 116.3 0 0 0 1.5-23z" style="opacity:1"/><path fill="#25253b" d="M84.5 25.5q1.857.465 0 1.5l-4 1q2.35.912 4 2.5-1.936-.356-3 1l-2 1q-5.128-2.38-11-2 4.26-3.622 10-4 2.464.03 4-2 1.025.544 2 1" style="opacity:1"/><path fill="#6bc0d1" d="M172.5 24.5v13h-5v-13z" style="opacity:1"/><path fill="#f0f4eb" d="M82.5 18.5a4.93 4.93 0 0 0-3 .5q-2 1 0 2-2.316.434-4 2 4.42.114 3 3.5-5.74.378-10 4-3.26.375-5 3-17.544 10.045-27 28a5.73 5.73 0 0 1-3-1h-2q-1.314-.195-2 1a85.5 85.5 0 0 0-7 23 458 458 0 0 1-2 23q-1.248-20.375 4-40 5.495-9.988 11-20a163 163 0 0 0 12-13q3.373-.87 5-4 5.287-1.889 9-6 4.477-1.239 8-4a127 127 0 0 0 12-4q1.195.686 1 2" style="opacity:1"/><path fill="#2e3044" d="M65.5 26.5q2.755.21 1 2-1.195-.686-1-2" style="opacity:1"/><path fill="#713b3e" d="M124.5 31.5h-3v4h-3q1.514-2.159-1-4-6.627 3.708-14 5-8.365-2.593-15-8.5l1-.5q1.683 1.695 4 2 5.37 3.34 10.5 5 5.77-.785 8-6 1.98 3.125 4-1 2.274 3.828 2.5-1l2 1q1.588-1.65 2.5-4 1.137 3.404-.5 6.5 1.373.417 2 1.5" style="opacity:1"/><path fill="#dbc5b7" d="M135.5 30.5v2q-2.343.35-4 2a12.9 12.9 0 0 0-5 .5q1.426 1.076.5 2.5a19.9 19.9 0 0 1-3.5-4q.686-1.195 2-1 4.631-2.276 10-2" style="opacity:1"/><path fill="#221e35" d="M123.5 21.5q1.356 1.063 1 3 2.868 3.973 8 4a31.7 31.7 0 0 1 6 2l3 4q.201 2.687-1 5 .34 3.65-3 5 2.826-5.1 1.5-11a14.7 14.7 0 0 0-3.5-3q-5.369-.276-10 2 0-1-1-1-.627-1.083-2-1.5 1.637-3.096.5-6.5-.912 2.35-2.5 4-.62-4.23 3-6" style="opacity:1"/><path fill="#334d62" d="M172.5 15.5a101 101 0 0 1 3 8q1.763-.329 3 1 .072 5.085 5 8a85 85 0 0 1-.5 13l-2 2a15.7 15.7 0 0 0-2.5-4 3.65 3.65 0 0 1 1-1.5q-1.438-5.455-5.5-9.5-.272-4.793-1.5-9h-1l1-4z" style="opacity:1"/><path fill="#522a32" d="M85.5 23.5q5.132 1.559 8 6-2.317-.305-4-2l-1 .5q6.635 5.907 15 8.5a4.93 4.93 0 0 1-.5 3q-3.061-1.384-6.5-1a4.93 4.93 0 0 0-.5-3l-1 1a57 57 0 0 0-7.5-5q-.025 1.341-1 3-1.267-1.758-2-4-1.65-1.588-4-2.5l4-1q1.857-1.035 0-1.5-.257-1.488 1-2" style="opacity:1"/><path fill="#787f8a" d="M138.5 30.5a26.2 26.2 0 0 1 7 5l-4-1z" style="opacity:1"/><path fill="#599eb0" d="M155.5 16.5h3q-1.845 10.12 8 12v-5h6v1h-5v13h5a41.5 41.5 0 0 1 1 8q-2.361-2.403-2-6h-7q-4-3-7-7v-15h-4q.324 5.34-1 10.5a21 21 0 0 0 3 4.5 11.74 11.74 0 0 1-5-3 6.54 6.54 0 0 1-3-3 75 75 0 0 0-10-6.5q2-1 0-2 7.517-1.315 12.5 4.5 1.524-1.7 2 1 .743-2.96.5-6 1.064-1.356 3-1" style="opacity:1"/><path fill="#84edf3" d="M157.5 32.5h-2a21 21 0 0 1-3-4.5 33.8 33.8 0 0 0 1-10.5h4z" style="opacity:1"/><path fill="#363d50" d="M53.5 33.5q2.755.21 1 2-1.195-.686-1-2" style="opacity:1"/><path fill="#b08b83" d="M81.5 31.5q.658-.098 1 .5a21.5 21.5 0 0 1-5 6q.795 3.205-2.5 5.5-.598-.342-.5-1 1.776-1.782 0-3.5l2-2a209 209 0 0 1-5-4.5q4.21 1.735 8 0z" style="opacity:1"/><path fill="#180f1f" d="M135.5 32.5q2.57 1.703 2 5-1.494-.129-2.5 1-1.572 3.63-.5 7h-5a31 31 0 0 1 2-2q-.186-.91-1-1-1.776-1.782 0-3.5l-2-2q2.163-.565 3-2.5 1.657-1.65 4-2" style="opacity:1"/><path fill="#b486c0" d="M135.5 30.5q1.941 1.185 3.5 3 1.326 5.9-1.5 11-1.496.045-2-1.5 1.23-2.7 2-5.5.57-3.297-2-5z" style="opacity:1"/><path fill="#9c6057" d="M81.5 31.5q1.064-1.356 3-1 .733 2.242 2 4 3.08 4.636 9 4.5a22.5 22.5 0 0 0 7.5 5.5q6.857-6.296 15.5-9h3v-4h3q1 0 1 1-1.314-.195-2 1a19.9 19.9 0 0 0 3.5 4q.926-1.424-.5-2.5a12.9 12.9 0 0 1 5-.5q-.837 1.935-3 2.5l2 2q-1.776 1.718 0 3.5-16.815 2.08-35 3a656 656 0 0 1-17-1q-2.682.428-5-1 .186-.91 1-1-.098.658.5 1 3.295-2.295 2.5-5.5a21.5 21.5 0 0 0 5-6q-.342-.598-1-.5" style="opacity:1"/><path fill="#311523" d="M103.5 36.5q7.373-1.292 14-5 2.514 1.841 1 4-8.643 2.704-15.5 9a22.5 22.5 0 0 1-7.5-5.5q-5.92.136-9-4.5.975-1.659 1-3a57 57 0 0 1 7.5 5l1-1q.725 1.422.5 3 3.439-.384 6.5 1a4.93 4.93 0 0 0 .5-3" style="opacity:1"/><path fill="#7b828e" d="m147.5 36.5 8 6q1.65 1.657 2 4a76 76 0 0 0-8-6.5q-1.984-1.224-2-3.5" style="opacity:1"/><path fill="#335e74" d="M47.5 34.5a163 163 0 0 1-12 13 60.4 60.4 0 0 1 5.5-8q2.666-3.435 6.5-5" style="opacity:1"/><path fill="#19172f" d="M71.5 32.5a209 209 0 0 0 5 4.5l-2 2q1.776 1.718 0 3.5-.814.09-1 1 2.318 1.428 5 1-3.16 1.453-7 1l-2-2q-2.654-4.638-1.5-10 1.517-1.255 3.5-1" style="opacity:1"/><path fill="#3a6277" d="M155.5 32.5h2q3 4 7 7a11.74 11.74 0 0 1 3 5 102 102 0 0 1-12-12" style="opacity:1"/><path fill="#bdcad6" d="M68.5 30.5q5.872-.38 11 2-3.79 1.735-8 0-1.983-.255-3.5 1-1.154 5.362 1.5 10 .098.658-.5 1a14.7 14.7 0 0 0-3.5-3q-.834-6.248 3-11" style="opacity:1"/><path fill="#585c6e" d="M63.5 33.5q-7.354 4.953-13 12a59.4 59.4 0 0 0-7.5 8 121 121 0 0 1-6.5 10v-2q9.456-17.955 27-28" style="opacity:1"/><path fill="#a9e8f1" d="M65.5 41.5q.015 2.276 2 3.5-1.384 3.061-1 6.5-4.724-.99-4.5-6-3.135 3.776-5.5 0 3.47-2.965 7-6 1.023 1.115 2 2" style="opacity:1"/><path fill="#4d525f" d="M160.5 41.5q0 2-2 2 0-2 2-2" style="opacity:1"/><path fill="#5d3942" d="M130.5 42.5q.814.09 1 1a31 31 0 0 0-2 2q-9.285-.485-18 1-8.29.482-16-1 18.185-.92 35-3" style="opacity:1"/><path fill="#495167" d="M65.5 41.5q1.94 1.185 3.5 3 .598-.342.5-1l2 2q1.602 1.401 4 1v1q-5.035-.406-7 2a20.8 20.8 0 0 0 3 6l-.5 2q-.086-3.615-3.5-4h-1v-2q-.384-3.439 1-6.5-1.985-1.224-2-3.5" style="opacity:1"/><path fill="#334b5f" d="M184.5 23.5a20.7 20.7 0 0 1 3.5 4q2.68 14.913 11.5 28v40h-3a274 274 0 0 0-5.5-29q-4.189-4.057-4-10-1.006-1.128-2.5-1z" style="opacity:1"/><path fill="#7d7584" d="M78.5 44.5q8.492.61 17 1 7.71 1.482 16 1-4.197 1.46-9 2a44.7 44.7 0 0 0-10-1q-8.213-1.483-17-1-2.398.401-4-1 3.84.453 7-1" style="opacity:1"/><path fill="#7d8092" d="M111.5 46.5q8.715-1.485 18-1h5q1.144 1.152 3 1.5-2.586.672-2 2.5a10.8 10.8 0 0 0-3-2.5 221 221 0 0 0-21-.5" style="opacity:1"/><path fill="#b3e7f2" d="M140.5 39.5q6.096 2.285 9 8a18.4 18.4 0 0 0-6 .5q-1.129 1.005-1 2.5-1.657 1.65-4 2 .332-4.169-1-8 3.34-1.35 3-5" style="opacity:1"/><path fill="#457489" d="M184.5 23.5v32q-2.02-1.007-3.5 0-2.704-5.965-7.5-10a41.5 41.5 0 0 0-1-8v-14q1.228 4.207 1.5 9 4.062 4.045 5.5 9.5a3.65 3.65 0 0 0-1 1.5 15.7 15.7 0 0 1 2.5 4l2-2a85 85 0 0 0 .5-13q-.591-6.695 1-9" style="opacity:1"/><path fill="#4e3c66" d="M75.5 46.5q8.787-.483 17 1 2.927 1.927 5 5-4.326 20.014-22.5 11a4.93 4.93 0 0 1-.5-3l2 1q2.297 3.27 6.5 3a40.2 40.2 0 0 0 7.5-1.5q1.985-1.224 2-3.5 2.892-3.15 2-7-6.297-1.963-12.5 0a13.9 13.9 0 0 1-4-3q-3.82 2.556-4.5 7-1.46-3.672-1-8 1.936.356 3-1z" style="opacity:1"/><path fill="#221c33" d="M137.5 37.5a37 37 0 0 1-2 5.5q.504 1.545 2 1.5 1.332 3.831 1 8v1a31 31 0 0 1-2 2q1.45 3.435 4 6 0 1 1 1v2q-2.54-1.54-4-4l-1.5-3a42.3 42.3 0 0 0-3.5 8q-1 0-1 1-1.657 1.65-4 2h-5a72 72 0 0 1 1 11h-1q.426-2.872-1-5 .16-3.605-3-5.5-5.486-1.255-9-5.5-2.137-5.33-7-8-4.586 1.128-5 6a80.5 80.5 0 0 1-14 10q-.481-2.322-3-2h-1a610 610 0 0 0-6-3l-4.5-9a2.43 2.43 0 0 0-.5 2l-2 1a16 16 0 0 1 2-5 44 44 0 0 1-1-2q3.414.385 3.5 4l.5-2a20.8 20.8 0 0 1-3-6q1.965-2.406 7-2-1.064 1.356-3 1-.46 4.328 1 8-.401 2.398 1 4a4.93 4.93 0 0 0 .5 3q18.174 9.014 22.5-11-2.073-3.073-5-5a44.7 44.7 0 0 1 10 1q4.803-.54 9-2 10.512-.25 21 .5a10.8 10.8 0 0 1 3 2.5q-.586-1.828 2-2.5-1.856-.348-3-1.5-1.072-3.37.5-7 1.006-1.129 2.5-1" style="opacity:1"/><path fill="#29526c" d="M131.5 58.5q.705-4.269-2.5-7a218 218 0 0 0-18.5 0q-.453 3.84 1 7v3q-3.805-4.79-2.5-11 2.236-2.256 5.5-2.5a43.6 43.6 0 0 1 15.5.5q2.25 1.25 3.5 3.5-.735 3.52-2 6.5" style="opacity:1"/><path fill="#19283f" d="m141.5 34.5 4 1 2 1q.016 2.276 2 3.5 4.246 3 8 6.5 1.965 4.46 6 7 1.458 4.405 4 8 8.22 14.87 9 32-.997-2.805-2-6-1.393-1.575-2 0h-1q.201-2.687-1-5-.35-4.562-3-8a16.3 16.3 0 0 0-2-5q.257-1.487-1-2a42.5 42.5 0 0 0-5.5-11 14.7 14.7 0 0 0-3.5-3q-1.533-4.533-6-6-2.904-5.715-9-8 1.201-2.313 1-5" style="opacity:1"/><path fill="#7db1c4" d="M149.5 47.5q4.467 1.467 6 6-1.983-.255-3.5 1-2.385-7.37-9.5-4-.129-1.495 1-2.5a18.4 18.4 0 0 1 6-.5" style="opacity:1"/><path fill="#656c7b" d="M157.5 46.5q4.114 2.61 6 7-4.035-2.54-6-7" style="opacity:1"/><path fill="#60a2b2" d="M56.5 45.5q2.365 3.776 5.5 0-.224 5.01 4.5 6v2q-2.343.35-4 2v3q-3.355-1.555-7-.5-1.255 1.517-1 3.5-3.753-1.918-7.5 0-.348-1.856-1.5-3 0-1 1-1 3.66 3.93 7.5 0 .957-5.145-4.5-4z" style="opacity:1"/><path fill="#bbf9fe" d="M62.5 55.5q-6.305 2.985-9-3.5 4.612-6.438 9.5-.5.292 1.98-.5 4" style="opacity:1"/><path fill="#e9ece6" d="M150.5 29.5a11.74 11.74 0 0 0 5 3 102 102 0 0 0 12 12q.357 2.856 3 4 8.544 13.652 13 29a103.2 103.2 0 0 1 1 32q-1.479-6.705-1-14a84.8 84.8 0 0 0-2.5-20q-.779-1.523-2.5-2-2.229 1.213-4 0 3.796-3.14 2.5-8l-3 3a26.9 26.9 0 0 0-6.5-7q-.045-5.027-4-8-1.886-4.39-6-7-.35-2.343-2-4a5.73 5.73 0 0 1 3 1q2 0 2-2 1.857-.465 0-1.5-8.33-2.08-10-10.5" style="opacity:1"/><path fill="#9264b8" d="M92.5 59.5v-3q-7.22-.273-14-1-4.48 1.941-2 6l-2-1q-1.401-1.602-1-4 .68-4.444 4.5-7a13.9 13.9 0 0 0 4 3q6.203-1.963 12.5 0 .892 3.85-2 7" style="opacity:1"/><path fill="#2c8cae" d="M131.5 58.5q.027 6.204-6 7.5-8.448 1.766-14-4.5v-2h1q3.06 5.408 9.5 5 5.453.902 7.5-4 1.426-2.128 1-5-9.013-.25-18 .5-1.128 1.005-1 2.5-1.453-3.16-1-7a218 218 0 0 1 18.5 0q3.205 2.731 2.5 7" style="opacity:1"/><path fill="#6eb4c8" d="M164.5 39.5h7q-.361 3.597 2 6 4.796 4.035 7.5 10 1.48-1.007 3.5 0a263 263 0 0 1 6 40h9v2q-21.876 1.377 0 3v2a32.5 32.5 0 0 0-8 .5 23 23 0 0 1 5 2 42.8 42.8 0 0 0-9 1.5q3.4 1.221 7 1.5-4.3 1.201-8-.5.25-11.011-.5-22-.419-4.435-2.5-8-2.18-16.58-13-29-2.643-1.144-3-4a11.74 11.74 0 0 0-3-5" style="opacity:1"/><path fill="#1c2d44" d="M68.5 30.5q-3.834 4.752-3 11a31 31 0 0 1-2-2 3117 3117 0 0 1-7 6l-7 8q-2.211 1.404-3 4-1 0-1 1a35.9 35.9 0 0 0-5 8 5.58 5.58 0 0 0-1-3q3.566-7.029 9-12.5l-1-1a4.93 4.93 0 0 1 3-.5v-4q5.646-7.047 13-12 1.74-2.625 5-3" style="opacity:1"/><path fill="#b4eef6" d="M66.5 53.5h1q.456.974 1 2a16 16 0 0 0-2 5 186 186 0 0 0-3 2q.035-1.93-1-4v-3q1.657-1.65 4-2" style="opacity:1"/><path fill="#80879c" d="M163.5 53.5q3.955 2.972 4 8-2.542-3.595-4-8" style="opacity:1"/><path fill="#325067" d="M170.5 48.5q10.82 12.42 13 29-4.456-15.348-13-29" style="opacity:1"/><path fill="#6fb1c6" d="M17.5 25.5q1.48 6.705 1 14v16q-.474 5.217 1.5 10a121 121 0 0 0 5.5-12q1.536-2.03 4-2v-10q-.258-1.487 1-2-.477 6.799 1 13a51.4 51.4 0 0 0-7 15q-4.135 10.022-6 21l-2 5q.29-34.004 1-68" style="opacity:1"/><path fill="#508a9e" d="M29.5 41.5v10q-2.464-.03-4 2a121 121 0 0 1-5.5 12q-1.974-4.783-1.5-10 1.953 1.96 4 0 2.044-2.268 1-4.5 4.234-4.095 6-9.5" style="opacity:1"/><path fill="#b5f8fd" d="M49.5 53.5q5.457-1.145 4.5 4-3.84 3.93-7.5 0 .789-2.596 3-4" style="opacity:1"/><path fill="#24d5ed" d="M129.5 60.5q-1.008-1.15-2.5-2-7.635-.413-14.5 1h-1v-1q-.128-1.495 1-2.5 8.987-.75 18-.5.426 2.872-1 5" style="opacity:1"/><path fill="#bef4fb" d="M138.5 53.5q3.223 1.636 4 5.5-.208 1.951-2 2.5-2.55-2.565-4-6a31 31 0 0 0 2-2" style="opacity:1"/><path fill="#b0f7fc" d="M62.5 58.5q-2.1 5.874-8 3-.255-1.983 1-3.5 3.645-1.055 7 .5" style="opacity:1"/><path fill="#609fb0" d="M142.5 50.5a5.58 5.58 0 0 1-1 3q2.642 4.412 8 5-4.737.89-8 4-1 0-1-1 1.792-.549 2-2.5-.777-3.864-4-5.5v-1q2.343-.35 4-2" style="opacity:1"/><path fill="#334158" d="M16.5 26.5v13a278 278 0 0 1-7.5 32q-1.092 4.095.5 8a4.45 4.45 0 0 1-1.5 2q-.47 8.769-2.5 17l-2 5a16.3 16.3 0 0 0-2-4 169 169 0 0 1-2 6v-16q.926-.165 1.5-1 2.25-6.465.5-13 2.503-8.447 1.5-17 2.869-6.28 5-13 1.676-.247 3.5-1 4.787-5.76 2-13 .143-3.555 3-5" style="opacity:1"/><path fill="#ea7cf3" d="M92.5 59.5q-.015 2.276-2 3.5a40.2 40.2 0 0 1-7.5 1.5q-4.203.27-6.5-3-2.48-4.059 2-6 6.78.727 14 1z" style="opacity:1"/><path fill="#48f2f9" d="M129.5 60.5q-2.047 4.902-7.5 4-6.44.408-9.5-5 6.865-1.413 14.5-1 1.492.85 2.5 2" style="opacity:1"/><path fill="#4a748b" d="M17.5 25.5q-.71 33.996-1 68v1q-1.215-2.688-1.5-6-.417 1.373-1.5 2-.392-4.23-1-8.5 3.96-3.93 0-7.5 1.808-8.037 3-17l-1-2a66 66 0 0 0 2-16v-13q0-1 1-1" style="opacity:1"/><path fill="#345469" d="M35.5 47.5q-5.505 10.012-11 20a51.4 51.4 0 0 1 7-15q.936-3.38 4-5" style="opacity:1"/><path fill="#c8a092" d="M109.5 63.5a31 31 0 0 0-4.5-3q-3.572 1.402-7.5 1 .414-4.872 5-6 4.863 2.67 7 8" style="opacity:1"/><path fill="#1c1e2a" d="M171.5 61.5q.865-1.91 2 0-.705 1.445-2 0" style="opacity:1"/><path fill="#c0b7b0" d="M68.5 59.5a9.17 9.17 0 0 1-2 4.5q1.95 2.369-1 3.5-1.272-1.687-3 0v-2q3.13-1.627 4-5z" style="opacity:1"/><path fill="#bd9d99" d="M137.5 60.5q1.46 2.46 4 4 .679 1.438 2 2.5-2.278-.496-4 .5-1.467-.467-2-2 .828-2.255 0-5" style="opacity:1"/><path fill="#a8e8f0" d="M155.5 53.5q1.941 1.185 3.5 3a42.5 42.5 0 0 1 5.5 11q-2.585 1.14-5 1a9.86 9.86 0 0 0 6 1 16.3 16.3 0 0 1 2 5q-4.144 3.272-9 1-.277-3.585-4-3-4.466.207-6 4.5a8.44 8.44 0 0 1-4 .5q.401-2.398-1-4a6.85 6.85 0 0 0-1-4q7.008-2.272-1-5v-2q3.263-3.11 8-4-5.358-.588-8-5a5.58 5.58 0 0 0 1-3q7.115-3.37 9.5 4 1.517-1.255 3.5-1" style="opacity:1"/><path fill="#4b8a9c" d="M62.5 58.5q1.035 2.07 1 4a186 186 0 0 1 3-2q-.87 3.373-4 5-.978-1.838-3.5-2l-3.5 1q-1.245 2.453-.5 5-3.203-2.667-7.5-2-1.205-1.385-.5-3 2.825 3.114 6.5 1a6.85 6.85 0 0 0 1-4q5.9 2.874 8-3" style="opacity:1"/><path fill="#bd8d80" d="M127.5 82.5q-2.596-.789-4-3a72 72 0 0 0-1-11h5q-2.886 2.386-1 5.5l-2 1q3.37 1.963 7 2-.375-2.356 2-4.5-2.156-2.766 1-3.5-2-1 0-2a4.93 4.93 0 0 0-3-.5q0-1 1-1 3.008-.935 5 2.5-3.414 1.545-2 4.5-1.974 6.94-8 10" style="opacity:1"/><path fill="#1b1f38" d="M50.5 45.5v4a4.93 4.93 0 0 0-3 .5l1 1q-5.434 5.472-9 12.5.94 1.376 1 3v1q-4.104 5.223-5 12a20.7 20.7 0 0 0-1 5q2.782-.342 2.5 2-1.517-1.255-3.5-1v24q6.508.183 1 1-.014 2.712 1.5 5a208 208 0 0 1 4.5-5q-3.989 6.961 0 14a19 19 0 0 1-3 5q.533 1.533 2 2 .837 1.935 3 2.5-3.278.906-.5 3.5 2.114 1.922 4.5 3l-2 2q-13.037-16.078-15-37a305 305 0 0 1 1-26q1.41-8.78 6-16 3.41-4.705 6.5-10a59.4 59.4 0 0 1 7.5-8" style="opacity:1"/><path fill="#a5eef5" d="M45.5 58.5q1.152 1.144 1.5 3 3.747-1.918 7.5 0a6.85 6.85 0 0 1-1 4q-3.675 2.114-6.5-1-.705 1.615.5 3-3.835 3.714-7 0v-1a35.9 35.9 0 0 1 5-8" style="opacity:1"/><path fill="#f2f3e2" d="M109.5 63.5q3.514 4.245 9 5.5 3.16 1.895 3 5.5.393 2.217-1 4-3.353-1.878-7-1.5a4.45 4.45 0 0 1 2 1.5l-3 2a32 32 0 0 1 4 2.5q-7.46 3.59-13-2.5a4.93 4.93 0 0 1 .5-3q13.649-8.345-1.5-12-9.136-.388-7 8a32.4 32.4 0 0 0 5.5 4q1.17 2.83-.5 5-5.2 2.388-11 2-.255-1.983 1-3.5h-4q-1.267-2.337 2-3-7.692-2.343 0-4-2.45-.74-5-.5v-2a80.5 80.5 0 0 0 14-10q3.928.402 7.5-1a31 31 0 0 1 4.5 3" style="opacity:1"/><path fill="#438293" d="M164.5 67.5q1.257.513 1 2a9.86 9.86 0 0 1-6-1q2.415.14 5-1" style="opacity:1"/><path fill="#f2e3ca" d="M131.5 66.5a4.93 4.93 0 0 1 3 .5q-2 1 0 2-3.156.734-1 3.5-2.375 2.144-2 4.5-3.63-.037-7-2l2-1q-1.886-3.114 1-5.5 2.343-.35 4-2" style="opacity:1"/><path fill="#4d5e72" d="M24.5 67.5q-5.248 19.625-4 40v4h-1a168 168 0 0 1-1-23q1.864-10.978 6-21" style="opacity:1"/><path fill="#a6f4fb" d="m47.5 73.5-1 4q-11.3 5.19-7-6 4.52-.59 8 2" style="opacity:1"/><path fill="#c2c5c5" d="M31.5 60.5q1 4 2 0 1.337.915 3 1v2q-4.59 7.22-6 16-1.902 3.608-2 8-1.453-3.16-1-7h-3q.406 2.82-2 4a85.5 85.5 0 0 1 7-23q.686-1.195 2-1" style="opacity:1"/><path fill="#414658" d="M31.5 60.5h2q-1 4-2 0" style="opacity:1"/><path fill="#62a3b4" d="M40.5 67.5q3.165 3.714 7 0-2 3 0 6-3.48-2.59-8-2-4.3 11.19 7 6v2q-5.288-.23-8.5 4v-4q-1.155-1.647-2.5 0 .896-6.777 5-12" style="opacity:1"/><path fill="#acf0f7" d="M62.5 65.5v2q-1.933-1.5-4 .5 2.157.328 4 1.5a6.85 6.85 0 0 0-1 4q-1.401 1.602-1 4-3.537.371-6-2 .792-2.02.5-4-3.203 2.667-7.5 2-2-3 0-6 4.297-.667 7.5 2-.745-2.547.5-5l3.5-1q2.522.162 3.5 2" style="opacity:1"/><path fill="#c699cf" d="M142.5 72.5a25 25 0 0 1-.5 7l-1.5-3q.24-2.48 2-4" style="opacity:1"/><path fill="#61abb8" d="M54.5 75.5q-4.38-.325-8 2l1-4q4.297.667 7.5-2 .292 1.98-.5 4" style="opacity:1"/><path fill="#b5b8b8" d="M167.5 61.5a26.9 26.9 0 0 1 6.5 7l3-3q1.296 4.86-2.5 8 1.771 1.213 4 0 1.721.477 2.5 2a84.8 84.8 0 0 1 2.5 20h-3q-.925-.165-1.5-1 .095 14.61-5.5 28 .257 1.487-1 2h-1q5.789-14.946 5-31-.78-17.13-9-32" style="opacity:1"/><path fill="#aff8fc" d="m54.5 75.5 1 4q-4.5 4-9 0v-2q3.62-2.325 8-2" style="opacity:1"/><path fill="#6096ab" d="M158.5 75.5q4.856 2.272 9-1 2.65 3.438 3 8a5.73 5.73 0 0 0-3 1q.017-4.983-5-5a107.6 107.6 0 0 1-13 7q3.042-8.364-6-7v-5q1.401 1.602 1 4a8.44 8.44 0 0 0 4-.5q1.534-4.293 6-4.5 3.723-.585 4 3" style="opacity:1"/><path fill="#b8f7fe" d="M158.5 75.5q.196 7.813-7 5-1.9-2.805 0-5.5 3.643-1.055 7 .5" style="opacity:1"/><path fill="#5899aa" d="M61.5 73.5v6q-3-2-6 0l-1-4q2.463 2.371 6 2-.401-2.398 1-4" style="opacity:1"/><path fill="#4a768c" d="M184.5 55.5q1.494-.128 2.5 1-.189 5.943 4 10a274 274 0 0 1 5.5 29h-6a263 263 0 0 0-6-40" style="opacity:1"/><path fill="#42536e" d="M16.5 39.5a66 66 0 0 1-2 16l1 2q-1.192 8.963-3 17-2.642 7.098-3 15-4.358 10.71-2 20.5l-1 1.5a43.1 43.1 0 0 1-1-13q2.03-8.231 2.5-17a4.45 4.45 0 0 0 1.5-2q-1.592-3.905-.5-8a278 278 0 0 0 7.5-32" style="opacity:1"/><path fill="#814b49" d="M73.5 66.5q-2.405-.282-4 1.5 1.11 2.648 0 6 2.256 2.235 2.5 5.5 2.76-2 1.5.5 3.742.236 7 .5.813-4.927 3-9v8q-1.356 1.064-1 3-.255 1.983 1 3.5L82 87.5q-5.814-.954-10.5-3l-2-1q-1 0-1 1-1.7-2.333-2-5.5 1.25-3.255 1-6-1.424-.925-2.5.5-.735-3.067.5-6 2.95-1.131 1-3.5a9.17 9.17 0 0 0 2-4.5 2.43 2.43 0 0 1 .5-2z" style="opacity:1"/><path fill="#8f5551" d="M137.5 60.5q.828 2.745 0 5 .533 1.533 2 2 2.32 1.902 3 5-1.76 1.52-2 4-1 0-1 1a46.7 46.7 0 0 0-3 8q-2.5 1.49-5 5-.648-1.815-2-3 .202-3.08-2-5 6.026-3.06 8-10-1.414-2.955 2-4.5-1.992-3.435-5-2.5a42.3 42.3 0 0 1 3.5-8z" style="opacity:1"/><path fill="#bf93c5" d="M139.5 77.5q.504 5.5-2.5 10a2.43 2.43 0 0 1-.5-2 46.7 46.7 0 0 1 3-8" style="opacity:1"/><path fill="#b0ecf5" d="M143.5 78.5q9.042-1.364 6 7-4.169-.332-8 1a11 11 0 0 1-1-2.5q3.114-1.866 3-5.5" style="opacity:1"/><path fill="#3b4051" d="M178.5 80.5q2.755.21 1 2-1.197-.686-1-2" style="opacity:1"/><path fill="#5ea2b2" d="M46.5 79.5q4.5 4 9 0-2.307 8.407 6 6 1.96-2.047 0-4 1.495.128 2.5-1 .744 2.96.5 6a10.2 10.2 0 0 0-3 3q-2.232-3.518-6-1-1.9-7.935-8.5-3 1.188-3-.5-6" style="opacity:1"/><path fill="#b2f6fb" d="M61.5 79.5v2q1.96 1.953 0 4-8.307 2.407-6-6 3-2 6 0" style="opacity:1"/><path fill="#6a3d42" d="M122.5 79.5h1q1.404 2.211 4 3 2.202 1.92 2 5a42.7 42.7 0 0 0-4.5 6q-2.634-2.228-3.5 1-.424 1.185-1.5 2 .116-1.857-.5-3-1.847 2.925-5 2.5a4.45 4.45 0 0 1 2-1.5q.635-6.156 4-11 .24-2.48 2-4" style="opacity:1"/><path fill="#b7b6c2" d="M104.5 83.5a20.7 20.7 0 0 1 1 5q-3.716.674-6-2 1.382-3.384 5-3" style="opacity:1"/><path fill="#c0ddf4" d="M167.5 83.5q-3.64 2.13-8 3-5.773 8.15-10-1a107.6 107.6 0 0 0 13-7q5.017.017 5 5" style="opacity:1"/><path fill="#c1c0be" d="M121.5 74.5q1.426 2.128 1 5-1.76 1.52-2 4-8 6-16 0a5.73 5.73 0 0 1-1-3q5.54 6.09 13 2.5a32 32 0 0 0-4-2.5l3-2a4.45 4.45 0 0 0-2-1.5q3.647-.378 7 1.5 1.393-1.783 1-4" style="opacity:1"/><path fill="#bfd3ed" d="M170.5 82.5q1.201 2.313 1 5 .045 1.496-1.5 2a11.8 11.8 0 0 1-3.5-2l1-4a5.73 5.73 0 0 1 3-1" style="opacity:1"/><path fill="#d4c5f1" d="M166.5 87.5q2 3.5 0 7-4.367 2.226-8-1-.136-8.817 8-6" style="opacity:1"/><path fill="#aae4f0" d="M46.5 79.5q1.688 3 .5 6 6.6-4.935 8.5 3-4.255 3.901-8.5 0 1.188 3-.5 6-7.667 3.2-8.5-5-1.573 2.41-4.5 2v-6q1.983-.255 3.5 1 .282-2.342-2.5-2a20.7 20.7 0 0 1 1-5q1.345-1.647 2.5 0v4q3.212-4.23 8.5-4" style="opacity:1"/><path fill="#6a6691" d="M166.5 87.5a11.8 11.8 0 0 0 3.5 2q1.545-.504 1.5-2h1v4q-3.865-.067-6 3 2-3.5 0-7" style="opacity:1"/><path fill="#6b7098" d="m167.5 83.5-1 4q-8.136-2.817-8 6-3.043-3-7-1a5.58 5.58 0 0 0-1 3 26.3 26.3 0 0 1-5-2q7.949-.073 3-6.5-3.147-1.016-6 .5-1 0-1-1 3.831-1.332 8-1 4.227 9.15 10 1 4.36-.87 8-3" style="opacity:1"/><path fill="#4f5566" d="M30.5 79.5a305 305 0 0 0-1 26q-1.453-3.161-1-7v-11q.098-4.392 2-8" style="opacity:1"/><path fill="#c4f0f9" d="m61.5 89.5-1 4q-7.475 2.51-5-5 3.768-2.518 6 1" style="opacity:1"/><path fill="#d6e3f8" d="m145.5 93.5-3-6q2.853-1.516 6-.5 4.949 6.427-3 6.5" style="opacity:1"/><path fill="#d7c7f4" d="M158.5 93.5a5.73 5.73 0 0 0 1 3q-1.257.513-1 2l-7-2q0-1-1-1a5.58 5.58 0 0 1 1-3q3.957-2 7 1" style="opacity:1"/><path fill="#9d9499" d="M97.5 88.5q-1.205 1.385-.5 3 6.264 7.855 11.5-1-1.238-1.329-3-1v-1q10.224.56 3 8.5a39.4 39.4 0 0 0-6 4.5q-2.744-3.66-7-5a19 19 0 0 1-2-8z" style="opacity:1"/><path fill="#eee6d2" d="M97.5 88.5a25 25 0 0 0 8 1q1.762-.329 3 1-5.236 8.855-11.5 1-.705-1.615.5-3" style="opacity:1"/><path fill="#656c89" d="M12.5 74.5q3.96 3.57 0 7.5.608 4.27 1 8.5.168 10.02 1 20-3.264 1.82-1 5a29 29 0 0 0-1.5 4q-.268-5.288-1.5-10-1.438-10.257-1-20 .358-7.902 3-15" style="opacity:1"/><path fill="#9495bc" d="M16.5 94.5q-.63 10.176 1.5 20l1.5-3h1v7q-1.152-1.144-1.5-3l-1 6q-.238-2.764-1.5-2-2.427-4.007-2-9a302 302 0 0 1-1-20q1.083-.627 1.5-2 .285 3.312 1.5 6" style="opacity:1"/><path fill="#ccdef6" d="M33.5 92.5q7.29 1.005 4 8h-4z" style="opacity:1"/><path fill="#cee1f5" d="M52.5 97.5a20.7 20.7 0 0 1-5 1q-1.1-1.812-1-4 4.523-4.195 8 .5-.834 1.516-2 2.5" style="opacity:1"/><path fill="#55657a" d="M55.5 88.5q-2.475 7.51 5 5-.24 2.48-2 4-1.64 1.623-4 2-1.82-.37-2-2 1.166-.984 2-2.5-3.477-4.695-8-.5 1.688-3 .5-6 4.245 3.901 8.5 0" style="opacity:1"/><path fill="#7c8094" d="M146.5 99.5q-2.137-2.297-2 1-2.128 1.426-5 1a4.93 4.93 0 0 1-.5 3 96 96 0 0 1-3.5-7q1.034-1.911 2.5 0 .658-4.2 4-3 1.038-1.405-.5-2a5.58 5.58 0 0 0-1-3q.519-1.794 1.5 0a67 67 0 0 1 4.5 10" style="opacity:1"/><path fill="#633d75" d="M158.5 93.5q3.633 3.226 8 1a4.93 4.93 0 0 1-.5 3q-3.062-1.384-6.5-1a5.73 5.73 0 0 1-1-3" style="opacity:1"/><path fill="#707fa5" d="M46.5 94.5q-.1 2.188 1 4h-1q-2.439-2.614-6-1.5-.994 2.278-3 3.5 3.29-6.995-4-8v-1q2.927.41 4.5-2 .833 8.2 8.5 5" style="opacity:1"/><path fill="#b9b5d1" d="M151.5 96.5q.915 1.337 1 3-4.773-.96-1-3" style="opacity:1"/><path fill="#d8a6e3" d="M172.5 91.5v8h-5a4.93 4.93 0 0 0 .5 3q1.517-1.255 3.5-1v11a44 44 0 0 0-2 3l-1-1a113 113 0 0 1-10-16q-.257-1.487 1-2 3.438-.384 6.5 1a4.93 4.93 0 0 0 .5-3q2.135-3.067 6-3" style="opacity:1"/><path fill="#2b3c56" d="M183.5 77.5q2.081 3.565 2.5 8 .75 10.989.5 22-1.356 1.064-1 3-1.37 9.006-5 17a51.6 51.6 0 0 0 1-7q2.049-5.191 3-11a103.2 103.2 0 0 0-1-32" style="opacity:1"/><path fill="#8a949f" d="M28.5 87.5v11q-1.946 6.85 0 14-1.083.627-1.5 2a3.65 3.65 0 0 0-1.5-1 36 36 0 0 0-1 5q-1.698-4.693-2.5-10a4.93 4.93 0 0 0-.5 3h-1v-4a458 458 0 0 0 2-23q2.406-1.18 2-4h3q-.453 3.84 1 7" style="opacity:1"/><path fill="#d1d8f0" d="M46.5 98.5q-2.828 2.33-3 6h-4q0-1-1-1a5.73 5.73 0 0 0-1-3q2.006-1.222 3-3.5 3.561-1.114 6 1.5" style="opacity:1"/><path fill="#14142a" d="M141.5 64.5q8.008 2.728 1 5a6.85 6.85 0 0 1 1 4v5q.114 3.634-3 5.5.365 1.353 1 2.5 0 1 1 1l3 6a26.3 26.3 0 0 0 5 2q1 0 1 1-3.773 2.04 1 3l1 2a54 54 0 0 1-7-2 67 67 0 0 0-4.5-10q-.981-1.794-1.5 0a5.58 5.58 0 0 1 1 3q-.925-.165-1.5-1-8.09 4.346-12.5 12a39 39 0 0 1-2 12 187 187 0 0 0-7 26q-1.815-.648-3-2 2.394-3.58 3.5-8 1.114-2.911-.5-5.5 4.58-2.371 2-7 4.206-4.574 5-11-.597-2.849-3-4.5a49.7 49.7 0 0 0-9 10q-2.82-.406-4 2-2.876.925-3.5 4l-1-1q-1.065 2.21-3.5 2v-1l2-2 10-9q3.886-1.131 5.5-5 .886-1.475-1-2-2.556.711-5.5.5l-3 3q-3.76.14-6.5 2.5-2.742-1.878-5.5 0-.5-1.5-2-2v-1q-.015-2.276-2-3.5 1.7-1.524-1-2 1.785-1.047 3-2.5 4.256 1.34 7 5a39.4 39.4 0 0 1 6-4.5q7.224-7.94-3-8.5a20.7 20.7 0 0 0-1-5q8 6 16 0-3.365 4.844-4 11a4.45 4.45 0 0 0-2 1.5q3.153.425 5-2.5.616 1.143.5 3 1.076-.816 1.5-2 1.987-2.18 2.5 1 3.5-1.5 5-5 1.466 1.911 2.5 0 2.5-3.51 5-5a2.43 2.43 0 0 0 .5 2q3.004-4.5 2.5-10 0-1 1-1l1.5 3q.745-3.465.5-7-.68-3.098-3-5 1.722-.996 4-.5-1.321-1.062-2-2.5" style="opacity:1"/><path fill="#ab9192" d="M129.5 87.5q1.352 1.185 2 3-1.034 1.911-2.5 0-1.5 3.5-5 5-.513-3.18-2.5-1 .866-3.228 3.5-1a42.7 42.7 0 0 1 4.5-6" style="opacity:1"/><path fill="#4c8fa6" d="M199.5 97.5v3q-21.876-1.623 0-3" style="opacity:1"/><path fill="#17192c" d="M103.5 80.5a5.73 5.73 0 0 0 1 3q-3.618-.384-5 3 2.284 2.674 6 2v1a25 25 0 0 1-8-1h-4q.126 4.24 2 8-1.215 1.453-3 2.5 2.7.476 1 2 1.985 1.224 2 3.5a513 513 0 0 1-4-3q-.615 1.143-.5 3a14.5 14.5 0 0 0-5-4q.618 5.384 5.5 8 6.045 4.513 12 9l-2 2h-2q0-2-2-2-3.47-4.96-9-8-1.5 2-3 0-1.816 1.16 0 2.5l-3 1q2.345 1.139 3 3.5-4.68-1.032-1 2.5-1.553 4.522 1 8.5 2.472 2.934 2 7a26.8 26.8 0 0 0 4 8q-4.535-4.017-2 2v5h-1a187.3 187.3 0 0 0-8-32 80.7 80.7 0 0 1-3-14 2.43 2.43 0 0 0-.5-2q-6.264-5.585-12.5-11 1.808-2.242 0-4a18.4 18.4 0 0 0-.5-6q-1.005 1.128-2.5 1v-8a6.85 6.85 0 0 1 1-4 10.25 10.25 0 0 0-4-1.5q2.067-2 4-.5 1.728-1.687 3 0-2.406 1.18-2 4-1.7 3.7-.5 8l1.5-3q1.221 3.196 1.5 7 1.378 4.353 2.5 1 0-1 1-1 .517 4.047 4 6 .725 3.555 3.5 2l4 4 1-2 3 3q-.087-2.903-2.5-5 1.495.128 2.5-1 .94 4.945 5.5 5.5L87 92.5q-.05-5.63-4.5-10-.356-1.936 1-3 3.072 9.537 13 6.5 2.736-.99 4-3.5 1.67-2.17.5-5a32.4 32.4 0 0 1-5.5-4q-2.136-8.388 7-8 15.149 3.655 1.5 12a4.93 4.93 0 0 0-.5 3" style="opacity:1"/><path fill="#9f929a" d="M82.5 91.5q2.413 2.097 2.5 5l-3-3-1 2-4-4q-2.775 1.555-3.5-2a31 31 0 0 0 2-2 32 32 0 0 0 4.5 5q.9-2.788 2.5-1" style="opacity:1"/><path fill="#5d3840" d="M82.5 82.5q4.45 4.37 4.5 10l3.5 3.5q-4.56-.555-5.5-5.5-1.005 1.128-2.5 1-1.6-1.788-2.5 1a32 32 0 0 1-4.5-5 31 31 0 0 1-2 2l-2-5q4.686 2.046 10.5 3l1.5-1.5q-1.255-1.517-1-3.5" style="opacity:1"/><path fill="#c7c1c0" d="m69.5 83.5 2 1 2 5q-3.483-1.953-4-6" style="opacity:1"/><path fill="#b8b4b1" d="M83.5 73.5q2.55-.24 5 .5-7.692 1.657 0 4-3.267.663-2 3h4q-1.255 1.517-1 3.5 5.8.388 11-2-1.264 2.51-4 3.5-9.928 3.037-13-6.5z" style="opacity:1"/><path fill="#d9d7e8" d="M63.5 71.5q-.2 2.687 1 5l-1.5 3q-1.2-4.3.5-8" style="opacity:1"/><path fill="#d6b3a2" d="M73.5 66.5a610 610 0 0 1 6 3q-3.877-.102-7-1.5l-1 3q4.38 4.32 10 1-1.128-1.005-1-2.5 2.519-.322 3 2-2.187 4.073-3 9a396 396 0 0 0-7-.5q1.26-2.5-1.5-.5-.244-3.265-2.5-5.5 1.11-3.352 0-6 1.595-1.782 4-1.5" style="opacity:1"/><path fill="#ad8c88" d="M65.5 67.5q-1.235 2.933-.5 6 1.076-1.425 2.5-.5.25 2.745-1 6 .3 3.167 2 5.5-1.122 3.353-2.5-1-.279-3.804-1.5-7-1.2-2.313-1-5-.406-2.82 2-4" style="opacity:1"/><path fill="#f7eed4" d="M79.5 69.5h1q-.128 1.495 1 2.5-5.62 3.32-10-1l1-3q3.123 1.398 7 1.5" style="opacity:1"/><path fill="#afe4f4" d="M99.5 66.5q4.473-.594 8 2-5 4-10 0a31 31 0 0 0 2-2" style="opacity:1"/><path fill="#88609a" d="M172.5 99.5q.46 4.328-1 8v-6q-1.983-.255-3.5 1a4.93 4.93 0 0 1-.5-3z" style="opacity:1"/><path fill="#c4c3e7" d="M18.5 88.5a168 168 0 0 0 1 23l-1.5 3a72.7 72.7 0 0 1-1.5-20v-1z" style="opacity:1"/><path fill="#7a6d96" d="M33.5 100.5h4q.915 1.337 1 3-2.313-1.201-5-1z" style="opacity:1"/><path fill="#888ca1" d="M146.5 99.5a54 54 0 0 0 7 2v1a30 30 0 0 0-5-.5q2.553 3.352 3 7.5h-1z" style="opacity:1"/><path fill="#d5b4e4" d="M33.5 102.5q2.687-.201 5 1 1 0 1 1 1.144 1.152 3 1.5a9.2 9.2 0 0 0-2 4.5 208 208 0 0 0-4.5 5q-1.514-2.288-1.5-5 5.508-.817-1-1z" style="opacity:1"/><path fill="#202338" d="M52.5 97.5q.18 1.63 2 2 2.36-.377 4-2a82 82 0 0 1-5 11q-.996-1.722-.5-4a6614 6614 0 0 1-9 5q-1.738-1.6-2.5 1h-1a9.2 9.2 0 0 1 2-4.5q-1.856-.348-3-1.5h4q.172-3.67 3-6h1a20.7 20.7 0 0 0 5-1" style="opacity:1"/><path fill="#959cac" d="M45.5 101.5q2.472 2.53.5 5-2.682-2.285-.5-5" style="opacity:1"/><path fill="#d1dae9" d="M48.5 99.5q1.314-.195 2 1-3.462 2.06-2-1" style="opacity:1"/><path fill="#6b5968" d="M95.5 104.5v1q-2.265 1.842-4.5 0-.705 1.615.5 3-4.882-2.616-5.5-8a14.5 14.5 0 0 1 5 4q-.115-1.857.5-3a513 513 0 0 0 4 3" style="opacity:1"/><path fill="#4d5264" d="M135.5 97.5a96 96 0 0 0 3.5 7 4.93 4.93 0 0 0 .5-3q2.872.426 5-1 2.512 2.519 2.5 6-6.258.83-12.5 4-2.319-1.068-3-3.5a59 59 0 0 0 1.5-7.5q1.063-1.32 2.5-2" style="opacity:1"/><path fill="#4a90a6" d="M199.5 102.5v8h-14q-.356-1.936 1-3 3.7 1.701 8 .5a26.7 26.7 0 0 1-7-1.5 42.8 42.8 0 0 1 9-1.5 23 23 0 0 0-5-2 32.5 32.5 0 0 1 8-.5" style="opacity:1"/><path fill="#282f45" d="M64.5 86.5q1.808 1.758 0 4 6.236 5.415 12.5 11 .696.891.5 2-2.442 6.393-3 14a19.2 19.2 0 0 1-5 3q1.895-2.895 5-5-.885-1.948-3-2.5-10.096-1.861-19 2.5.31-4.111 3-7a152 152 0 0 1 7-15q-.705-1.445-2 0l1-4a10.2 10.2 0 0 1 3-3" style="opacity:1"/><path fill="#5e6575" d="M64.5 92.5q2.465 3.71 6.5 6 2.887 7.055-3 12-1.377-3.198-4-2-2.835-3.329-6.5-2.5a260 260 0 0 0 7-13.5" style="opacity:1"/><path fill="#7f6464" d="M113.5 108.5q-4.419-3.74-7.5 1h-7q-1.076-.816-1.5-2 2.758-1.878 5.5 0 2.74-2.36 6.5-2.5l3-3q2.944.211 5.5-.5 1.886.525 1 2-1.614 3.869-5.5 5" style="opacity:1"/><path fill="#9ca3b5" d="M55.5 108.5q-2.69 2.889-3 7v1q-.865 1.91-2 0a55 55 0 0 0 2-7q1 0 1-1a82 82 0 0 0 5-11q1.76-1.52 2-4 1.295-1.445 2 0a152 152 0 0 0-7 15" style="opacity:1"/><path fill="#716187" d="M10.5 109.5q1.232 4.712 1.5 10a29 29 0 0 1 1.5-4q-2.264-3.18 1-5-.427 4.993 2 9v3q-.435 6.655 1.5 13 1 2 2 0 .476 2.701 2 1 .925 1.423-.5 2.5 1.42 3.015 5 6l-1 1a53 53 0 0 0 6 9l-1 1 3 1a2.43 2.43 0 0 1-2 .5h-3q-2.603-.779-5-3.5 1.17-1.61-.5-3.5l-1 1q-.315-2.337-1.5-4 0-5-5-5-1.973-2.452 0-5-7.353-13.493-5-28" style="opacity:1"/><path fill="#4c5e76" d="M53.5 108.5q0 1-1 1-1.935.837-2.5 3a25 25 0 0 0-.5 7q-1.94-2.013-2.5-5-1.005-1.128-2.5-1l-2-2q0-1-1-1 .762-2.6 2.5-1 4.542-2.519 9-5-.496 2.278.5 4" style="opacity:1"/><path fill="#b3bcce" d="M55.5 108.5h3v3h-3z" style="opacity:1"/><path fill="#686d80" d="M157.5 107.5q.91 3.805-2 7a56 56 0 0 0-4-9.5q3.719-.543 6 2.5" style="opacity:1"/><path fill="#858b9c" d="M97.5 117.5q-4.308-1.54-7.5-5-.907 2.972-3 1-1 1 0 2a6.54 6.54 0 0 1 3 3q1.305-7.512 2 1l1-3a24.3 24.3 0 0 1 3.5 3.5q-.588 1.517-2 1.5 2.31 1.548 1.5 4l-1-1q-1.5 6-3 0l-1 1q-1.026-1.926.5-3.5l-1.5-1.5q-.72 2.45-2.5 4-3.716-.93 0-3-3.792-1.974 0-3.5-.816-1.076-2-1.5-.655-2.361-3-3.5l3-1q-1.816-1.34 0-2.5 1.5 2 3 0 5.53 3.04 9 8" style="opacity:1"/><path fill="#dedbd0" d="M95.5 105.5q1.5.5 2 2 .424 1.184 1.5 2h7q3.081-4.74 7.5-1l-10 9q-5.955-4.487-12-9-1.205-1.385-.5-3 2.235 1.842 4.5 0" style="opacity:1"/><path fill="#5d5676" d="M151.5 109.5q3.127 3.276 3 8-10.726-4.123-22-3 .166-.925 1-1.5 9.752-1.793 18.5 2.5a17.7 17.7 0 0 0-.5-6" style="opacity:1"/><path fill="#3e2953" d="m151.5 96.5 7 2a113 113 0 0 0 10 16l1 1a44 44 0 0 1 2-3q1.67 2.17.5 5-3.723 3.999-5.5 9-1 0-1-1a20.7 20.7 0 0 1 1-5q2.014-5.99-3-10l-3 4a6.85 6.85 0 0 1 1-4 186 186 0 0 1-2-3q.657.098 1-.5a786 786 0 0 1-7-4.5v-1l-1-2a5.73 5.73 0 0 0-1-3" style="opacity:1"/><path fill="#cdcedf" d="M24.5 118.5a88 88 0 0 0 2 9h-1a70.3 70.3 0 0 1-4-16 4.93 4.93 0 0 1 .5-3q.802 5.307 2.5 10" style="opacity:1"/><path fill="#4da2b9" d="M127.5 103.5q1.916 1.79 2 5 .175 4.41-2 8 .098.658-.5 1-.417-1.373-1.5-2a39 39 0 0 0 2-12" style="opacity:1"/><path fill="#100f25" d="M153.5 102.5a786 786 0 0 0 7 4.5q-.343.598-1 .5h-2q-2.281-3.043-6-2.5a56 56 0 0 1 4 9.5q2.003 3.516-2 5a289 289 0 0 1-11.5-3l-3.5.5q1.129 1.006 1 2.5a26.2 26.2 0 0 1-7-5q11.274-1.123 22 3 .127-4.724-3-8-.447-4.148-3-7.5 2.41.028 5 .5" style="opacity:1"/><path fill="#101529" d="M52.5 109.5a55 55 0 0 1-2 7q1.135 1.91 2 0 6.98-1.494 14-3 11.477.477 1 5-1.794-.519 0-1.5l-3-.5q-7.076 3.573-15 3-.245-3.535.5-7 .565-2.163 2.5-3" style="opacity:1"/><path fill="#2c2e46" d="M141.5 92.5q1.538.595.5 2-3.342-1.2-4 3-1.466-1.911-2.5 0-1.437.68-2.5 2a59 59 0 0 1-1.5 7.5q.681 2.432 3 3.5 6.242-3.17 12.5-4 .012-3.481-2.5-6-.137-3.297 2-1l4 10h1a17.7 17.7 0 0 1 .5 6q-8.748-4.293-18.5-2.5-.834.575-1 1.5-1.911 1.034 0 2.5a216 216 0 0 0 15 10.5q2.243-.128 3 2-1.638 3.891-5 6.5.803 3.163 3 1.5 1.561 3.737 2.5 0a90 90 0 0 0 .5 10.5l-5.5 5.5q-3.144-1.823.5-2.5-1.702-1.124-3 .5a5790 5790 0 0 0-10 13q-.71 2.11-3 2-.013-2.712 1.5-5a46.3 46.3 0 0 0 9-13 15.3 15.3 0 0 1 5.5-3 4.46 4.46 0 0 0-2-1.5q1.911-1.466 0-2.5 2.092-1.722-.5-3-1.313 6.16-5.5 2a22.1 22.1 0 0 1-3 6l1 2q-3.768 3.255-5 8-5.79 3.177-6 9a5.73 5.73 0 0 0-1 3q-.513 1.257-2 1-.782-6.546 4-12l-2-2q4.135-.153 7-4.5a7.3 7.3 0 0 0-3-2q1.13-2.23 2.5-.5.456-2.911 2.5-5a9.86 9.86 0 0 0-6-1 128 128 0 0 1 8-2.5q1.293-4.101 2.5-.5 3-2 0-4-2.664 1.554-5.5 0-3.139-3.801-1-8-.515 9.733 8.5 6 2.313-3.097.5-6 .11-2.29-2-3 .129-1.494-1-2.5a51 51 0 0 1-8-5.5h-2q2.175-3.59 2-8-.084-3.21-2-5 4.41-7.654 12.5-12 .575.835 1.5 1" style="opacity:1"/><path fill="#9da1b3" d="M150.5 109.5q-1.408 5.712-4 0 1.962-1.689 4 0" style="opacity:1"/><path fill="#e4caf0" d="M163.5 110.5q5.014 4.01 3 10h-1v-4q-2.362-2.421-2-6" style="opacity:1"/><path fill="#4a4563" d="M9.5 89.5q-.438 9.743 1 20-2.353 14.507 5 28-1.973 2.548 0 5a495 495 0 0 1-3 4q1.558 5.474 7 3.5 1.128-1.006 1-2.5 1.185 1.663 1.5 4l1-1q1.67 1.89.5 3.5 2.397 2.721 5 3.5-3.297-.57-5 2-8.472 4.39-5.5 14a12.7 12.7 0 0 1 2.5 4q-2.361-.656-3.5-3a34.2 34.2 0 0 0-1.5-8 31.6 31.6 0 0 1-4-5.5q.608-1.418 2-2-1.578-1.678-3.5-1.5-1.555-7.682-6-15A73.4 73.4 0 0 0 2.5 131q-.28-7.227 1-14-2.877-2.655-1.5-6.5l1 3q.747-4.975.5-10l2-5a43.1 43.1 0 0 0 1 13l1-1.5q-2.358-9.79 2-20.5" style="opacity:1"/><path fill="#555c6f" d="M85.5 116.5q1.185.424 2 1.5-3.792 1.526 0 3.5-3.716 2.07 0 3-.423 1.917-2 3-2.553-3.978-1-8.5-3.68-3.532 1-2.5" style="opacity:1"/><path fill="#575e74" d="M115.5 139.5q-3.426-.712-6-3-1.5-.5-2-2 1.368-1.858.5-4-2.514-.841-4-3-1.5 4-3 0-1.806 2.038-4.5 3 .186.91 1 1 .198 4.605-1 9-1.083-.627-1.5-2a8.44 8.44 0 0 0-.5 4h-3a26.8 26.8 0 0 1-4-8q5.95-.876 2-5 1.412.017 2-1.5-1.365-2.624-4-3.5 1.78-1.55 2.5-4l1.5 1.5q-1.526 1.574-.5 3.5l1-1q1.5 6 3 0l1 1q.81-2.452-1.5-4 1.412.017 2-1.5a24.3 24.3 0 0 0-3.5-3.5l-1 3q-.695-8.512-2-1a6.54 6.54 0 0 0-3-3q-1-1 0-2 2.093 1.972 3-1 3.192 3.46 7.5 5 2 0 2 2 2.335 3.994-2 6a76 76 0 0 1 12 3q1.932-2.962 5 0a4.46 4.46 0 0 0 1.5-2q1.333 2.082 1.5-.5-.608-1.418-2-2 5.793-1.148 3-6.5-5.757-2.673.5-1a12.5 12.5 0 0 0 0-7l-1.5 1.5q2.012 4.893-1 1.5l-2 2q-.91-.186-1-1a49.7 49.7 0 0 1 9-10q2.403 1.651 3 4.5-.794 6.426-5 11 2.58 4.629-2 7 1.614 2.589.5 5.5-1.106 4.42-3.5 8" style="opacity:1"/><path fill="#9397ae" d="M132.5 114.5a26.2 26.2 0 0 0 7 5q1.144 2.643 4 3l4 5a216 216 0 0 1-15-10.5q-1.911-1.466 0-2.5" style="opacity:1"/><path fill="#8c93a3" d="M99.5 119.5h2v1q1.4 8.855 8 2a15 15 0 0 0 3.5 3l-1-5q3.133 3.689 6.5 0-3.91.8-7.5-2-.224 4.168-2.5 1.5 1.32-2.034 1-4.5 1.18-2.406 4-2 .09.814 1 1l2-2q3.012 3.393 1-1.5l1.5-1.5a12.5 12.5 0 0 1 0 7q-6.257-1.673-.5 1 2.793 5.352-3 6.5 1.392.582 2 2-.167 2.582-1.5.5a4.46 4.46 0 0 1-1.5 2q-3.068-2.962-5 0a76 76 0 0 0-12-3q4.335-2.006 2-6" style="opacity:1"/><path fill="#848997" d="M180.5 95.5q-2.182 2.715.5 5 2.682-2.285.5-5h2q-.479 7.295 1 14-.951 5.809-3 11h-1q-3.136 2.048-7 2 5.595-13.39 5.5-28 .575.835 1.5 1" style="opacity:1"/><path fill="#21253e" d="M180.5 95.5h1q2.182 2.715-.5 5-2.682-2.285-.5-5" style="opacity:1"/><path fill="#48395e" d="M20.5 111.5h1a70.3 70.3 0 0 0 4 16v2a50 50 0 0 1-5-11z" style="opacity:1"/><path fill="#dbe3eb" d="M80.5 117.5a187.3 187.3 0 0 1 8 32 4.93 4.93 0 0 1-.5 3 709 709 0 0 0-11-36q1.43 2.81 3.5 1" style="opacity:1"/><path fill="#6a7082" d="M109.5 115.5q.32 2.466-1 4.5 2.276 2.668 2.5-1.5 3.59 2.8 7.5 2-3.367 3.689-6.5 0l1 5a15 15 0 0 1-3.5-3q-6.6 6.855-8-2 2.435.21 3.5-2l1 1q.624-3.075 3.5-4" style="opacity:1"/><path fill="#18162f" d="M176.5 93.5q.789 16.054-5 31l-5 10q-3.897-1.542 0-3 1.593-2.399 0-5 1.777-5.001 5.5-9 1.17-2.83-.5-5v-5q1.46-3.672 1-8v-12q.607-1.575 2 0 1.003 3.195 2 6" style="opacity:1"/><path fill="#35354f" d="M157.5 107.5h2q.961 1.473 2 3a6.85 6.85 0 0 0-1 4q-4.383 6.14-4 13-2.051 3.947-2.5-1-1 4-2 0l-1 1a52 52 0 0 0-7.5-5q-2.856-.357-4-3 .129-1.494-1-2.5l3.5-.5a289 289 0 0 0 11.5 3q4.003-1.484 2-5 2.91-3.195 2-7" style="opacity:1"/><path fill="#8a709f" d="M163.5 110.5q-.362 3.579 2 6a36.9 36.9 0 0 0-9 11q-.383-6.86 4-13z" style="opacity:1"/><path fill="#5087a1" d="m42.5 111.5 2 2a65.3 65.3 0 0 1 6 14q-.519 1.794-1.5 0a30 30 0 0 1-3.5-6q-3.198-4.419-3-10" style="opacity:1"/><path fill="#dbebf0" d="M68.5 123.5a11.74 11.74 0 0 1 5 3v1a12 12 0 0 0-6 1q-2.417-1.23-2-4a5.73 5.73 0 0 1 3-1" style="opacity:1"/><path fill="#d7e5f2" d="M138.5 124.5q2.11.71 2 3-1.008 1.15-2.5 2-2.642-2.795-5.5-2 1.083-5.522 6-3" style="opacity:1"/><path fill="#d7e7f0" d="M40.5 110.5h1q1 0 1 1-.198 5.581 3 10-2.925-1.823-4.5-5-1.055 3.643.5 7 .828 2.746 0 5 .533 1.533 2 2l1 2a20.7 20.7 0 0 0-5-1q-1.467-.467-2-2a19 19 0 0 0 3-5q-3.989-7.039 0-14" style="opacity:1"/><path fill="#9e67a7" d="M165.5 120.5h1a20.7 20.7 0 0 0-1 5q-1.314-.197-2 1 1.73 1.78 0 3-2.179-.644-5-.5 4.385-3.624 7-8.5" style="opacity:1"/><path fill="#496881" d="M41.5 123.5a64 64 0 0 1 7 6.5q-2.82-.144-5 .5-1.467-.467-2-2 .828-2.254 0-5" style="opacity:1"/><path fill="#666f80" d="M77.5 103.5a80.7 80.7 0 0 0 3 14q-2.07 1.81-3.5-1a709 709 0 0 1 11 36q.725-1.422.5-3h1q.96 9.971 1 20a117 117 0 0 1-2.5-13 17.35 17.35 0 0 1-3.5-7q-.729-3.46 0-6.5-4.508-4.325-5.5-9.5-2.241 1.87-4.5 0 1.566-3.402.5-7-1.035-1.857-1.5 0a11.74 11.74 0 0 0-5-3 5.73 5.73 0 0 1 1-3 19.2 19.2 0 0 0 5-3q.558-7.607 3-14" style="opacity:1"/><path fill="#537490" d="M199.5 112.5v23q-4.833-.588-9 1.5l8 1a34.8 34.8 0 0 1-10 2l8 1a46 46 0 0 1-10 2q2.656.803 1 2.5a28.5 28.5 0 0 1-9 4.5q2.04 2.906-1 5 2.538 1.96 4 4.5a226 226 0 0 0-12-3.5 5864 5864 0 0 1 14-18q-3.567-1.461 1-2 2.883-2.19 2-5 6-2 0-4 4.863-.425 1-2.5a4.46 4.46 0 0 1 2-1.5l-4-2 7-1a8.9 8.9 0 0 1-4-3q13.7-.817 0-3a27.9 27.9 0 0 1 11-1.5" style="opacity:1"/><path fill="#5c6474" d="M129.5 116.5a51 51 0 0 0 8 5.5q1.129 1.006 1 2.5-4.917-2.522-6 3h-1q-2.139 4.199 1 8-5.836 2.824-10 8a31 31 0 0 0-2-2 112.2 112.2 0 0 1 9-25" style="opacity:1"/><path fill="#876c9a" d="M180.5 120.5h1a51.6 51.6 0 0 1-1 7q.477 4.472-3 7l-6 8q1.187-4.375 0-8.5 1.823-3.144 2.5.5l3-3a48 48 0 0 0 3.5-11" style="opacity:1"/><path fill="#ccdae6" d="M125.5 115.5q1.083.627 1.5 2 .598-.342.5-1h2a112.2 112.2 0 0 0-9 25 106 106 0 0 0-3 14v1q-1 0-1-1v-6a100 100 0 0 0 2-8 187 187 0 0 1 7-26" style="opacity:1"/><path fill="#b685c1" d="M25.5 127.5h1q3.142 5.094 5.5 11 1.139 2.344 3.5 3 .472 2.59.5 5-1.575-3.176-4.5-5-2.238-6.477-6-12z" style="opacity:1"/><path fill="#451e55" d="M25.5 129.5q3.762 5.523 6 12-4.56-5.121-6-12" style="opacity:1"/><path fill="#9571ab" d="M16.5 122.5q3.261 3.812 4.5 11 5.72 3.713 8.5 8.5l-1 1a42.3 42.3 0 0 1 1.5 8.5 494 494 0 0 1 19.5 18q-.626 1.083-2 1.5 4.68 1.96 8 5.5-7.99-2.489-14-8-.845-5.716-6-8a9.8 9.8 0 0 0-4-3 2.43 2.43 0 0 0 2-.5l-3-1 1-1a53 53 0 0 1-6-9l1-1q-3.58-2.985-5-6 1.425-1.077.5-2.5-1.524 1.701-2-1-1 2-2 0a36.1 36.1 0 0 1-1.5-13" style="opacity:1"/><path fill="#454c62" d="M69.5 120.5a5.73 5.73 0 0 0-1 3 5.73 5.73 0 0 0-3 1q-2.66 1.221-1.5 4 3.22.919 6.5 2-5.752 2.495 1 1.5 2.306-1.665 2-4.5v-1q.465-1.857 1.5 0 1.066 3.598-.5 7 2.259 1.87 4.5 0 .992 5.174 5.5 9.5-.729 3.04 0 6.5a46 46 0 0 0-5.5-6q-5.585-1.39-10-5-.598.343-.5 1-2.322-.481-2-3 3.375.478 6-1.5-2.915.458-6 0-2.865-3.62-7-5.5a7.25 7.25 0 0 1 2-2.5q-5.877.802-3 6.5-2.468-1.468-4-4a25.6 25.6 0 0 1 7-5q3.066-.797 5-3.5-.342-.598-1-.5-2.355-1.589-4 1.5-5.124 1.34-9.5-1.5l-1 4q-1.513-2.288-1.5-5 7.924.573 15-3l3 .5q-1.794.981 0 1.5 10.477-4.523-1-5-7.02 1.506-14 3v-1q8.904-4.361 19-2.5 2.115.552 3 2.5-3.105 2.105-5 5" style="opacity:1"/><path fill="#9ca4b0" d="M65.5 120.5q.658-.098 1 .5-1.934 2.703-5 3.5 1.5-2.5 4-4" style="opacity:1"/><path fill="#100f26" d="M165.5 116.5v4q-2.615 4.876-7 8.5 2.821-.144 5 .5-2.5 1.5-4 4-1.884-.058-3 1.5h4l-6 6q1.574.738 3-.5.265 3.867 3.5 0 .598.343.5 1-10.475 15.992-28 23 4.964-6.472 10-13 1.298-1.624 3-.5-3.644.677-.5 2.5l5.5-5.5a90 90 0 0 1-.5-10.5q-.939 3.737-2.5 0-2.197 1.663-3-1.5 3.362-2.609 5-6.5-.757-2.128-3-2l-4-5q3.9 2.128 7.5 5l1-1q1 4 2 0 .449 4.947 2.5 1a36.9 36.9 0 0 1 9-11" style="opacity:1"/><path fill="#a9abc8" d="M15.5 142.5q5 0 5 5 .128 1.494-1 2.5-5.442 1.974-7-3.5a495 495 0 0 0 3-4" style="opacity:1"/><path fill="#b886c5" d="M20.5 118.5a50 50 0 0 0 5 11q1.44 6.879 6 12a153 153 0 0 0 8.5 13q3.654 4.42 8.5 7 2.915 4.457 8 6 1.095 1.818 3 3l-3 1a29.9 29.9 0 0 1-7-2 494 494 0 0 0-19.5-18 42.3 42.3 0 0 0-1.5-8.5l1-1q-2.78-4.787-8.5-8.5-1.239-7.188-4.5-11v-3q1.262-.764 1.5 2l1-6q.348 1.856 1.5 3" style="opacity:1"/><path fill="#362951" d="M177.5 134.5q-3.23 9.205-10 16l2-5q2.11-.71 2-3z" style="opacity:1"/><path fill="#684677" d="M31.5 141.5q2.925 1.824 4.5 5a30 30 0 0 0-.5-5 58.7 58.7 0 0 1 8 12q-2.407-2.203-1.5 1a64 64 0 0 1 6.5 7q-4.846-2.58-8.5-7a153 153 0 0 1-8.5-13" style="opacity:1"/><path fill="#11142b" d="M44.5 113.5q1.495-.128 2.5 1 .56 2.987 2.5 5-.013 2.712 1.5 5l1-4q4.376 2.84 9.5 1.5 1.645-3.089 4-1.5-2.5 1.5-4 4a25.6 25.6 0 0 0-7 5q1.532 2.532 4 4 .68 1.438 2 2.5-.825 2.097-1 4a64 64 0 0 0 6 6.5 361 361 0 0 1 13 17.5q1.523 2.06 0 3.5-3.305-.156-6-2a18.4 18.4 0 0 0-.5-6 6073 6073 0 0 0-11-12q-1.845 1.163-1 3 1.652 2.841 4 2l7.5 11.5q-.342.598-1 .5-16.193-7.19-26-22l2-2a4.93 4.93 0 0 0 3-.5 26 26 0 0 1-5-5h4q-1.456-2.222-4-2.5l-1-2q2.18-.644 5-.5a64 64 0 0 0-7-6.5q-1.555-3.357-.5-7 1.575 3.177 4.5 5a30 30 0 0 0 3.5 6q.981 1.794 1.5 0a65.3 65.3 0 0 0-6-14" style="opacity:1"/><path fill="#896b99" d="m169.5 145.5-2 5q0 1-1 1l-6 5q1.049-5.598 5-10 1.783-1.393 4-1" style="opacity:1"/><path fill="#6c6e8c" d="M15.5 144.5q5.492-.225 3 4.5-5.69.73-3-4.5" style="opacity:1"/><path fill="#7aabc5" d="M185.5 110.5h14v2a27.9 27.9 0 0 0-11 1.5q13.7 2.183 0 3a8.9 8.9 0 0 0 4 3l-7 1 4 2a4.46 4.46 0 0 0-2 1.5q3.863 2.075-1 2.5 6 2 0 4 .883 2.81-2 5-4.567.539-1 2a5864 5864 0 0 0-14 18 226 226 0 0 1 12 3.5q6.686 4.689 5 13-.967 3.49-4 5 8.946-18.684-11-17a19.6 19.6 0 0 1-3.5 4 12.9 12.9 0 0 0-.5 5v2q-1.203-2.178-1.5-5-1.036 5.282 1.5 10-3.585-3.351-5.5-8-.575.834-1.5 1v-2a12.47 12.47 0 0 1 3-5.5q-2.428-.354-3-2.5a34.5 34.5 0 0 0 6-8q1 0 1-1 6.77-6.795 10-16 3.477-2.528 3-7 3.63-7.994 5-17" style="opacity:1"/><path fill="#373650" d="M3.5 103.5a50.4 50.4 0 0 1-.5 10l-1-3q-1.377 3.845 1.5 6.5-1.28 6.773-1 14A73.4 73.4 0 0 1 4 142.5q4.445 7.318 6 15 1.922-.178 3.5 1.5-1.392.582-2 2a31.6 31.6 0 0 0 4 5.5 34.2 34.2 0 0 1 1.5 8q1.139 2.344 3.5 3 8.453 5.849 17 0h1q-1.76 3.006-5 4.5a57 57 0 0 0 7 2.5 11.5 11.5 0 0 0 3.5 5q6.849-.305 12.5 0-.177 5.304-4.5 8a9.5 9.5 0 0 0-1.5-2.5 59 59 0 0 0-8-2.5q-3.258.264-7 .5l-1.5 1.5q-4.34-4.679-5.5-11a9.4 9.4 0 0 1-3 3q-1.73-3.534-4-.5 3.736.939 0 2.5a7.25 7.25 0 0 0 2 2.5q-3.46.407-3.5-3.5-.324 2.826-2 5-.739-1.574.5-3l-3-2.5 1-1q-6.722-3.091-5-10.5a4.93 4.93 0 0 1-3-.5l1-1a20.9 20.9 0 0 1-3.5-6.5q-1.37 1.73-2.5-.5 4.226-5.513-.5-10.5l-1-20q-.075-3.366-2.5-5v-26a169 169 0 0 0 2-6 16.3 16.3 0 0 1 2 4" style="opacity:1"/><path fill="#384a62" d="M199.5 135.5v18q-1.345 1.647-2.5 0-1.965 4.46-6 7-2.052 2.24-.5 4.5-2.998 3.382-4 7.5 1.686-8.311-5-13-1.462-2.54-4-4.5 3.04-2.094 1-5a28.5 28.5 0 0 0 9-4.5q1.656-1.697-1-2.5a46 46 0 0 0 10-2l-8-1a34.8 34.8 0 0 0 10-2l-8-1q4.167-2.088 9-1.5" style="opacity:1"/><path fill="#99accc" d="M28.5 157.5h3a9.8 9.8 0 0 1 4 3 45.8 45.8 0 0 0-12-1q1.703-2.57 5-2" style="opacity:1"/><path fill="#ac7db8" d="M43.5 153.5a25.7 25.7 0 0 0 6 6q2.297 2.137-1 2a64 64 0 0 0-6.5-7q-.907-3.203 1.5-1" style="opacity:1"/><path fill="#3e2d57" d="M166.5 151.5a34.5 34.5 0 0 1-6 8 85.6 85.6 0 0 1-13 9 174 174 0 0 0 13-12z" style="opacity:1"/><path fill="#625b83" d="M23.5 160.5v-1a45.8 45.8 0 0 1 12 1q3.216 3.933 4 9-.925.166-1.5 1a10.26 10.26 0 0 0-1.5-4q-1.026.544-2 1a77 77 0 0 0-4-6 4.45 4.45 0 0 0-1.5 2q-.9-2.788-2.5-1-1.917-.423-3-2" style="opacity:1"/><path fill="#a2f0f8" d="M171.5 160.5q3.535-.245 7 .5 2.163.565 3 2.5a28 28 0 0 0-1.5 4q-3.202-2.667-7.5-2v5a20.7 20.7 0 0 0-5-1 12.9 12.9 0 0 1 .5-5 19.6 19.6 0 0 0 3.5-4" style="opacity:1"/><path fill="#606478" d="M180.5 120.5a48 48 0 0 1-3.5 11l-3 3q-.677-3.644-2.5-.5 1.187 4.125 0 8.5.11 2.29-2 3-2.217-.393-4 1-3.951 4.402-5 10-7.133.558-10 7-3.77 4.132-9 6-1.5.5-2 2a27.7 27.7 0 0 0-9 3q.656-2.361 3-3.5 3.661-.054 6-2.5-2.873.275-6-1 27.373-14.373 39-43 1.257-.513 1-2 3.864.048 7-2" style="opacity:1"/><path fill="#205772" d="M171.5 160.5q19.946-1.684 11 17h-2q5.23-6.79 1-14-.837-1.935-3-2.5a25 25 0 0 0-7-.5" style="opacity:1"/><path fill="#5d5f75" d="M28.5 112.5q9.234 35.712 41 54-1.953 1.96-4 0-1.195.686-1 2a105 105 0 0 0-15-9 25.7 25.7 0 0 1-6-6 58.7 58.7 0 0 0-8-12q-2.361-.656-3.5-3-2.358-5.906-5.5-11a88 88 0 0 1-2-9 36 36 0 0 1 1-5 3.65 3.65 0 0 1 1.5 1q.417-1.373 1.5-2" style="opacity:1"/><path fill="#a779b4" d="M160.5 156.5a174 174 0 0 1-13 12 16.1 16.1 0 0 0-5 2q-.91-.186-1-1 5.23-1.868 9-6 2.867-6.442 10-7" style="opacity:1"/><path fill="#242e42" d="M199.5 161.5v38h-18a32.5 32.5 0 0 1 .5-8l1 3q3.452-3.111 8-4a319 319 0 0 1 4-22q1.539-4.108 4.5-7" style="opacity:1"/><path fill="#2b2d44" d="M-.5 131.5q2.425 1.634 2.5 5l1 20q4.726 4.987.5 10.5 1.13 2.23 2.5.5a20.9 20.9 0 0 0 3.5 6.5l-1 1a4.93 4.93 0 0 0 3 .5q-1.722 7.409 5 10.5l-1 1 3 2.5q-1.239 1.426-.5 3 1.676-2.174 2-5 .04 3.907 3.5 3.5a7.25 7.25 0 0 1-2-2.5q3.736-1.561 0-2.5 2.27-3.034 4 .5a9.4 9.4 0 0 0 3-3q1.16 6.321 5.5 11l1.5-1.5q3.742-.236 7-.5a59 59 0 0 1 8 2.5 9.5 9.5 0 0 1 1.5 2.5q4.323-2.696 4.5-8a5.73 5.73 0 0 1 3-1v1q-2.332 4.614-3 10h-57z" style="opacity:1"/><path fill="#664a79" d="M49.5 159.5a105 105 0 0 1 15 9v1a35 35 0 0 1-9-5l-1 .5q1.32 1.063 2 2.5-5.085-1.543-8-6 3.297.137 1-2" style="opacity:1"/><path fill="#51aac6" d="M181.5 163.5q4.23 7.21-1 14-6.126.685-11.5-2a10.1 10.1 0 0 1-1.5-4v-2a20.7 20.7 0 0 1 5 1v3a18.5 18.5 0 0 0 6-.5q2-1.5 0-3a18.5 18.5 0 0 0-6-.5v-4q4.298-.667 7.5 2 .615-2.101 1.5-4" style="opacity:1"/><path fill="#d6dae5" d="M28.5 98.5q-.453 3.839 1 7 1.963 20.922 15 37 9.807 14.81 26 22 .513 1.257 2 1 2.695 1.844 6 2 2.145 1.556 5 2 2.82 1.262 6 1 3.16 1.452 7 1 7.5 2 15 0a129 129 0 0 0 11-2q1.487.257 2-1a31.7 31.7 0 0 0 6-2q2.29.11 3-2 17.525-7.008 28-23a26.7 26.7 0 0 0 5-7l5-10h1q-11.627 28.627-39 43-32.227 12.446-64-1-31.766-18.288-41-54-1.946-7.15 0-14" style="opacity:1"/><path fill="#6e7089" d="M131.5 156.5q-1.888 5.288-6 9 .21-5.823 6-9" style="opacity:1"/><path fill="#0d0e24" d="M144.5 141.5q1.911 1.034 0 2.5a4.46 4.46 0 0 1 2 1.5 15.3 15.3 0 0 0-5.5 3 46.3 46.3 0 0 1-9 13q-1.513 2.288-1.5 5a31.7 31.7 0 0 1-6 2 5.73 5.73 0 0 1 1-3q4.112-3.712 6-9a141 141 0 0 0 13-15" style="opacity:1"/><path fill="#35374e" d="M72.5 165.5q-1.487.257-2-1 .658.098 1-.5L64 152.5q-2.348.841-4-2-.845-1.837 1-3 5.484 5.967 11 12 .744 2.96.5 6" style="opacity:1"/><path fill="#3e6e86" d="M113.5 152.5q-.258 13.965-1.5 0a74 74 0 0 1-1.5 12 7.25 7.25 0 0 0-2.5 2 2.43 2.43 0 0 1-.5-2v-13q3.268-.51 5.5-3a8.4 8.4 0 0 1 .5 4" style="opacity:1"/><path fill="#3e5c7a" d="M97.5 151.5h10v13q-1.453 3.161-1 7h5q-7.5 2-15 0h9q-.029-10.546-1.5-1l-1-6-1 2q-2.593-.711-3.5-3 1.23-4.208 1.5-9 1.676 2.174 2 5 .743-2.96.5-6-1.983.255-3.5-1a4.93 4.93 0 0 0-.5 3q-1.239 7.224-1.5 15a41 41 0 0 1-.5-9q-.47-5.313 1-10" style="opacity:1"/><path fill="#5c96b0" d="M98.5 163.5v-8a4.93 4.93 0 0 1 .5-3q1.517 1.255 3.5 1a18.5 18.5 0 0 1-.5 6q-.324-2.826-2-5-.27 4.792-1.5 9" style="opacity:1"/><path fill="#13152e" d="M84.5 149.5a17.35 17.35 0 0 0 3.5 7 117 117 0 0 0 2.5 13q1.586 1.059-1 1-3.18.262-6-1 1.09-4.084-1.5-8a93 93 0 0 0-6.5-7.5q1.128-1.006 1-2.5.814-.09 1-1a10.8 10.8 0 0 1-2.5-3q-1.476 3.442-2.5-1l1-2a17.9 17.9 0 0 1-5-5q-.098-.657.5-1 4.415 3.61 10 5a46 46 0 0 1 5.5 6" style="opacity:1"/><path fill="#50536a" d="M53.5 136.5a157 157 0 0 0 4.5 16l-3-3a773 773 0 0 0-1.5-13" style="opacity:1"/><path fill="#404059" d="M76.5 151.5q.128 1.494-1 2.5a93 93 0 0 1 6.5 7.5q2.59 3.916 1.5 8-2.855-.444-5-2 1.523-1.44 0-3.5a361 361 0 0 0-13-17.5q1.385 1.205 3 .5-1.425-1.077-.5-2.5l4.5 5.5q-2.7.476-1 2 1.864.466 3-1.5 1.025.544 2 1" style="opacity:1"/><path fill="#293e57" d="M89.5 144.5a982 982 0 0 1 8 7q-1.47 4.687-1 10-1.083.627-1.5 2-1.112-1.712-2.5 0-.78-7.373-3-14z" style="opacity:1"/><path fill="#3d7995" d="M93.5 150.5q1.916 1.79 2 5l-.5 5q-2.108-4.678-1.5-10" style="opacity:1"/><path fill="#4e5066" d="M144.5 141.5a141 141 0 0 1-13 15q1.232-4.745 5-8l-1-2a22.1 22.1 0 0 0 3-6q4.187 4.16 5.5-2 2.592 1.278.5 3" style="opacity:1"/><path fill="#292b42" d="M68.5 139.5a17.9 17.9 0 0 0 5 5l-1 2q1.024 4.442 2.5 1a10.8 10.8 0 0 0 2.5 3q-.186.91-1 1a44 44 0 0 1-2-1q-1.136 1.966-3 1.5-1.7-1.524 1-2l-4.5-5.5q-.925 1.423.5 2.5-1.615.705-3-.5a64 64 0 0 1-6-6.5q.175-1.903 1-4-1.32-1.062-2-2.5-2.877-5.698 3-6.5a7.25 7.25 0 0 0-2 2.5q4.135 1.88 7 5.5 3.085.458 6 0-2.625 1.978-6 1.5-.322 2.519 2 3" style="opacity:1"/><path fill="#141530" d="M127.5 142.5a9.86 9.86 0 0 1 6 1q-2.044 2.089-2.5 5-1.37-1.73-2.5.5a7.3 7.3 0 0 1 3 2q-2.865 4.347-7 4.5l2 2q-4.782 5.454-4 12a129 129 0 0 1-11 2h-5q-.453-3.839 1-7a2.43 2.43 0 0 0 .5 2 7.25 7.25 0 0 1 2.5-2 74 74 0 0 0 1.5-12q1.242 13.965 1.5 0 1.94-2.013 2.5-5 .696.891.5 2v6q-1.96 6.703-1.5 14a60.2 60.2 0 0 0 2.5-13v-1a149 149 0 0 1 10-13" style="opacity:1"/><path fill="#707694" d="M116.5 155.5q0 1 1 1a60.2 60.2 0 0 1-2.5 13q-.46-7.297 1.5-14" style="opacity:1"/><path fill="#292f4c" d="M109.5 136.5q2.574 2.288 6 3 1.185 1.352 3 2a100 100 0 0 1-2 8 2.43 2.43 0 0 0-.5-2q-.56 2.987-2.5 5a8.4 8.4 0 0 0-.5-4q-2.232 2.49-5.5 3 4.326-3.566 8.5-8 1-1 0-2-11.963 15.264-24.5 1h3a8.44 8.44 0 0 1 .5-4q.417 1.373 1.5 2 2.535.905 4.5 3 .873-4.752 3-1 1.647-2.201 4.5-2.5 1.255-1.517 1-3.5" style="opacity:1"/><path fill="#7eb6cb" d="M91.5 142.5q12.537 14.264 24.5-1 1 1 0 2-4.174 4.434-8.5 8h-10a982 982 0 0 0-8-7q-2.535-6.017 2-2" style="opacity:1"/><path fill="#40435a" d="M132.5 135.5q2.836 1.554 5.5 0 3 2 0 4-1.207-3.601-2.5.5a128 128 0 0 0-8 2.5 149 149 0 0 0-10 13 106 106 0 0 1 3-14 31 31 0 0 1 2 2q4.164-5.176 10-8" style="opacity:1"/><path fill="#47627c" d="M39.5 131.5q2.574.193 5 1 2.544.278 4 2.5h-4a26 26 0 0 0 5 5 4.93 4.93 0 0 1-3 .5q-2.386-1.078-4.5-3-2.778-2.594.5-3.5-2.163-.565-3-2.5" style="opacity:1"/><path fill="#4e3860" d="M166.5 131.5q-3.897 1.458 0 3a26.7 26.7 0 0 1-5 7q.098-.657-.5-1-3.235 3.867-3.5 0-1.426 1.238-3 .5l6-6h-4q1.116-1.558 3-1.5 3.087-2.15 7-2" style="opacity:1"/><path fill="#71ced9" d="M97.5 131.5q1.083.627 1.5 2 .417-1.373 1.5-2 1.578 2.634 5 2l-4 2q-1.356 1.064-1 3a9.86 9.86 0 0 0 6-1 44 44 0 0 1-1-2l2-1q.5 1.5 2 2 .255 1.983-1 3.5-2.853.299-4.5 2.5-2.127-3.752-3 1-1.965-2.095-4.5-3a29.2 29.2 0 0 0 1-9" style="opacity:1"/><path fill="#234a61" d="M101.5 135.5h4q.456.975 1 2a9.86 9.86 0 0 1-6 1q-.356-1.936 1-3" style="opacity:1"/><path fill="#3e88a5" d="M131.5 127.5h1q2.858-.795 5.5 2 1.492-.85 2.5-2 1.813 2.903-.5 6-9.015 3.733-8.5-6" style="opacity:1"/><path fill="#ddaae5" d="M165.5 125.5q0 1 1 1 1.593 2.601 0 5-3.913-.15-7 2 1.5-2.5 4-4 1.73-1.22 0-3 .686-1.197 2-1" style="opacity:1"/><path fill="#caf2f8" d="m107.5 134.5-2 1h-4l4-2q-1.578-2.634-5-2-1.083.627-1.5 2-.417-1.373-1.5-2-.814-.09-1-1 2.694-.962 4.5-3 1.5 4 3 0 1.486 2.159 4 3 .868 2.142-.5 4" style="opacity:1"/><path fill="#1a3c53" d="M100.5 131.5q3.422-.634 5 2-3.422.634-5-2" style="opacity:1"/><path fill="#5eabc3" d="M65.5 124.5q-.417 2.77 2 4a12 12 0 0 1 6-1q.306 2.835-2 4.5-6.752.995-1-1.5a168 168 0 0 0-6.5-2q-1.16-2.779 1.5-4" style="opacity:1"/><path fill="#838b9c" d="M87.5 124.5q2.635.876 4 3.5-.588 1.517-2 1.5 3.95 4.124-2 5 .472-4.066-2-7 1.577-1.083 2-3" style="opacity:1"/><path fill="#9196c2" d="M160.5 159.5q.572 2.146 3 2.5a12.47 12.47 0 0 0-3 5.5q-6.381 5.688-15 6.5-4.392 3.549-10 4.5-.657.098-1-.5 2.344-1.139 3-3.5 1 0 1-1 5.238-1.364 9-5a85.6 85.6 0 0 0 13-9" style="opacity:1"/><path fill="#2b6684" d="M172.5 169.5a18.5 18.5 0 0 1 6 .5q2 1.5 0 3a18.5 18.5 0 0 1-6 .5v-4" style="opacity:1"/><path fill="#1f163b" d="M89.5 149.5q2.22 6.627 3 14 1.388-1.712 2.5 0 .417-1.373 1.5-2a41 41 0 0 0 .5 9q.261-7.776 1.5-15v8q.907 2.289 3.5 3l1-2 1 6q1.471-9.546 1.5 1h-9q-3.84.452-7-1 2.586.059 1-1a218 218 0 0 0-1-20" style="opacity:1"/><path fill="#56366a" d="M147.5 168.5q-3.762 3.636-9 5l1-2q.5-1.5 2-2 .09.814 1 1a16.1 16.1 0 0 1 5-2" style="opacity:1"/><path fill="#789bba" d="M23.5 159.5v1q-9.267 7.626-1 16.5 13.11 5.856 17-7.5-.784-5.067-4-9 5.155 2.284 6 8-.784 5.067-4 9-8.547 5.849-17 0a12.7 12.7 0 0 0-2.5-4q-2.972-9.61 5.5-14" style="opacity:1"/><path fill="#c5e4f0" d="M34.5 167.5q-.814.09-1 1 4.452 5.574-3 5 .13 4.648-1.5 1a4.45 4.45 0 0 1-1.5 2 22.5 22.5 0 0 0-4-3q4-4.5 0-9a44 44 0 0 0 3-2q1.6-1.788 2.5 1a4.45 4.45 0 0 1 1.5-2 77 77 0 0 1 4 6" style="opacity:1"/><path fill="#596f8d" d="M27.5 165.5h4v3h-4z" style="opacity:1"/><path fill="#4a5063" d="M69.5 166.5q31.773 13.446 64 1 3.127 1.275 6 1-2.339 2.446-6 2.5-2.344 1.139-3 3.5h-1q-4.068.356-7.5 0a329 329 0 0 1-13 4q-6.935-.087-14 0a1192 1192 0 0 0-30.5-9v-1q-.195-1.314 1-2 2.047 1.96 4 0" style="opacity:1"/><path fill="#a578b5" d="m139.5 171.5-1 2a95.5 95.5 0 0 1-15 4l6-3h1a27.7 27.7 0 0 1 9-3" style="opacity:1"/><path fill="#29374d" d="M199.5 153.5v8q-2.961 2.892-4.5 7a319 319 0 0 0-4 22q-4.548.889-8 4l-1-3a32.5 32.5 0 0 0-.5 8h-37q1.462-2.54 4-4.5a44 44 0 0 1-4-4.5v-2a4.93 4.93 0 0 1 3 .5q-2.184.634-1.5 2.5l1-1q3.115 2.186 7 2a25.4 25.4 0 0 1 10.5-.5q3.737-.939 0-2.5 1.827.586 2.5-2a17.8 17.8 0 0 0 1.5-7h1q.56 13.866 3 0a62.7 62.7 0 0 1 1.5 11q1.5-22 3 0a62.7 62.7 0 0 1 1.5-11q2.356 3.573 2.5 8 .36-5.628 1.5-11 3.033-1.51 4-5 1.002-4.118 4-7.5-1.552-2.26.5-4.5 4.035-2.54 6-7 1.155 1.647 2.5 0" style="opacity:1"/><path fill="#36445f" d="M23.5 160.5q1.083 1.577 3 2a44 44 0 0 1-3 2q4 4.5 0 9a22.5 22.5 0 0 1 4 3 4.45 4.45 0 0 0 1.5-2q1.63 3.648 1.5-1 7.452.574 3-5 .186-.91 1-1 .974-.456 2-1a10.26 10.26 0 0 1 1.5 4q.575-.834 1.5-1-3.89 13.356-17 7.5-8.267-8.874 1-16.5" style="opacity:1"/><path fill="#27485e" d="M27.5 169.5h5v3h-5z" style="opacity:1"/><path fill="#9662a3" d="M64.5 169.5q1.578 3.232-2 1-1.445.705 0 2a31 31 0 0 1-2 2 42.4 42.4 0 0 0 7.5 5 47 47 0 0 1 7 0 29 29 0 0 1 4.5 3q-4.663-.354-9 1a27.6 27.6 0 0 0-5-1.5q-2.063-3.716-5.5-2.5-1-4-2 0a10.5 10.5 0 0 1-2.5-3q-3.32-3.54-8-5.5 1.374-.417 2-1.5a29.9 29.9 0 0 0 7 2l3-1q-1.905-1.182-3-3-.68-1.437-2-2.5l1-.5a35 35 0 0 0 9 5" style="opacity:1"/><path fill="#1f5c7a" d="M167.5 171.5a10.1 10.1 0 0 0 1.5 4q5.374 2.685 11.5 2-1.686 1.963-4.5 2a25.8 25.8 0 0 1-8.5-3q-2.536-4.718-1.5-10 .297 2.822 1.5 5" style="opacity:1"/><path fill="#5e4e75" d="M64.5 169.5a1192 1192 0 0 1 30.5 9q7.065-.087 14 0a329 329 0 0 0 13-4q3.432.356 7.5 0l-6 3q-26.229 5.588-51-4l-2 .5q2.35.913 4 2.5a44.3 44.3 0 0 1-12-4q-1.445-1.295 0-2 3.578 2.232 2-1" style="opacity:1"/><path fill="#a678b5" d="M123.5 177.5q-10.254 3.563-21.5 3a94.4 94.4 0 0 1-27.5-4q-1.65-1.587-4-2.5l2-.5q24.771 9.588 51 4" style="opacity:1"/><path fill="#a383be" d="M137.5 174.5q-.656 2.361-3 3.5.343.598 1 .5-1.453 1.214-2.5 3l-1-1-10 4-1-1q-.417 1.374-1.5 2h-1q2.029-2.05-1-3-4.578.268-9.5 2-2-2-4 0a2.43 2.43 0 0 1-.5-2q17.83-.764 34-8" style="opacity:1"/><path fill="#686897" d="M160.5 167.5v2q-3.29 1.334-7 4.5l2 1q-10.614 2.412-16.5 9.5l-1-1a230 230 0 0 1-15.5 4q-1.936-.356-3 1 0 1-1 1-.09-.814-1-1a31 31 0 0 1-2 2q-2.127-2.712-6-2 4.208-1.228 9-1.5.834-.575 1-1.5 1.083-.626 1.5-2l1 1 10-4 1 1q1.047-1.786 2.5-3 5.608-.951 10-4.5 8.619-.812 15-6.5" style="opacity:1"/><path fill="#495675" d="m167.5 176.5 2 4h-1q-1.008-1.15-2.5-2a241 241 0 0 0-14 6l-1-1a15.1 15.1 0 0 1-6 3l-5-1q-2.193 2.472-5.5 3-3.537-.371-6 2-2.117-3.058-6-3a230 230 0 0 0 15.5-4l1 1q5.886-7.088 16.5-9.5l-2-1q3.71-3.166 7-4.5.925-.166 1.5-1 1.915 4.649 5.5 8" style="opacity:1"/><path fill="#558fa6" d="M167.5 176.5a25.8 25.8 0 0 0 8.5 3q2.814-.037 4.5-2h2a76.4 76.4 0 0 0-1.5 11q-.144-4.427-2.5-8a62.7 62.7 0 0 0-1.5 11q-1.5-22-3 0a62.7 62.7 0 0 0-1.5-11q-2.44 13.866-3 0z" style="opacity:1"/><path fill="#5d4874" d="M41.5 168.5q6.01 5.511 14 8a10.5 10.5 0 0 0 2.5 3q1-4 2 0 3.437-1.216 5.5 2.5 2.622.528 5 1.5a142 142 0 0 0 21 5q-2.975-.514-4 2l-5-2q-2 0-2 2-1.083-1.577-3-2-1.487-.257-2 1-1.215-1.453-3-2.5a55.8 55.8 0 0 1-18-5l1-1a11.3 11.3 0 0 1-3.5-1.5q-1.524 1.701-2-1l-1 5q-1.186-3.435-4-1a67 67 0 0 0-5.5-1.5 12 12 0 0 0-1-3.5h-1q3.216-3.933 4-9" style="opacity:1"/><path fill="#52205e" d="M138.5 173.5q0 1-1 1-16.17 7.236-34 8-15.39.423-29-6a94.4 94.4 0 0 0 27.5 4q11.246.563 21.5-3a95.5 95.5 0 0 0 15-4" style="opacity:1"/><path fill="#473e5e" d="M38.5 177.5a12 12 0 0 1 1 3.5 67 67 0 0 1 5.5 1.5q2.814-2.435 4 1l1-5q.476 2.701 2 1a11.3 11.3 0 0 0 3.5 1.5l-1 1a55.8 55.8 0 0 0 18 5q1.785 1.047 3 2.5v5h-3q-.5-12-1 0a169 169 0 0 1-2-6 246 246 0 0 1-2 7 9.86 9.86 0 0 0-1-6 7.25 7.25 0 0 0-2.5 2q-1.062-1.321-2.5-2-.513-1.257-2-1a5.73 5.73 0 0 0-3 1q-5.651-.305-12.5 0a11.5 11.5 0 0 1-3.5-5 57 57 0 0 1-7-2.5q3.24-1.494 5-4.5" style="opacity:1"/><path fill="#ae73c0" d="M62.5 172.5a44.3 44.3 0 0 0 12 4q13.61 6.423 29 6a2.43 2.43 0 0 0 .5 2q2-2 4 0 4.923-1.732 9.5-2 3.029.95 1 3-4.485-1.397-8.5-1-7.39 4.72-14.5.5a222 222 0 0 0-16-2.5 29 29 0 0 0-4.5-3 47 47 0 0 0-7 0 42.4 42.4 0 0 1-7.5-5 31 31 0 0 0 2-2" style="opacity:1"/><path fill="#35405a" d="M168.5 180.5a17.8 17.8 0 0 1-1.5 7q-.673 2.586-2.5 2 3.737 1.561 0 2.5a25.4 25.4 0 0 0-10.5.5q-3.885.186-7-2l-1 1q-.684-1.866 1.5-2.5a4.93 4.93 0 0 0-3-.5q-2.276.016-3.5 2-1.561-2.717-3.5-1a5.73 5.73 0 0 0-3 1v-2q3.307-.528 5.5-3l5 1a15.1 15.1 0 0 0 6-3l1 1a241 241 0 0 1 14-6q1.492.85 2.5 2" style="opacity:1"/><path fill="#73578b" d="M79.5 182.5q8.03.955 16 2.5 7.11 4.22 14.5-.5 4.015-.397 8.5 1h1q-.166.925-1 1.5-4.792.272-9 1.5h-2q-3.024 1.48-4 5a48 48 0 0 1-2.5-5 2.43 2.43 0 0 0-.5 2q-.925-.166-1.5-1-.285 3.312-1.5 6 .766-4.332-2-7h-4a142 142 0 0 1-21-5q4.337-1.354 9-1" style="opacity:1"/><path fill="#828998" d="M59.5 188.5q1.487-.257 2 1-1.453 3.161-1 7-1.453-3.161-1-7z" style="opacity:1"/><path fill="#dde2ed" d="M134.5 188.5v2a8.4 8.4 0 0 0-4 .5q3.11.177 4 3-1.697 4.229-5 1l4-1q-3.571-.335-5-3.5 2.463-2.371 6-2" style="opacity:1"/><path fill="#c0c7d1" d="M144.5 188.5v2q-3.726 2.196 0 5l-1 1q-2.678-3.633-5 0l-1-1 2-3a186 186 0 0 1-2-3q1.939-1.717 3.5 1 1.224-1.984 3.5-2" style="opacity:1"/><path fill="#2a2b44" d="M119.5 188.5q1.064-1.356 3-1 3.883-.058 6 3 1.429 3.165 5 3.5l-4 1q3.303 3.229 5-1-.89-2.823-4-3a8.4 8.4 0 0 1 4-.5 5.73 5.73 0 0 1 3-1q.961 1.473 2 3l-2 3 1 1q2.322-3.633 5 0l1-1q-3.726-2.804 0-5a44 44 0 0 0 4 4.5q-2.538 1.96-4 4.5h-88q.668-5.386 3-10-.453 3.839 1 7 1.185-1.663 1.5-4 2 4 4 0 .124 3.009 1.5 3a246 246 0 0 0 2-7 169 169 0 0 0 2 6q1.74 2.816 5 1.5 1.402-3.572 1-7.5 1.917.423 3 2v6a9.86 9.86 0 0 0 6-1q-1.783-1.393-4-1v-6l5 2q2.304 2.288 3 6a56.5 56.5 0 0 1 3-8h2a16.9 16.9 0 0 0 1 8q.91-.186 1-1 1.215-2.688 1.5-6 .575.834 1.5 1a12.8 12.8 0 0 0 3 6 22.6 22.6 0 0 0 4-8h2v8a13.1 13.1 0 0 0 7-1 14.7 14.7 0 0 0-5-1.5q8-1.5 0-3a8.4 8.4 0 0 1 4-.5 31 31 0 0 0 2-2q.91.186 1 1a13.1 13.1 0 0 0 1 7q2.322-3.633 5 0 .085-2.971 1.5-6-2.684-2.594-6.5-2" style="opacity:1"/><path fill="#c8cadb" d="M75.5 189.5q.513-1.257 2-1 .402 3.928-1 7.5-3.26 1.316-5-1.5.5-12 1 0h3z" style="opacity:1"/><path fill="#c8cbe3" d="M82.5 188.5v6q2.217-.393 4 1a9.86 9.86 0 0 1-6 1v-6q0-2 2-2" style="opacity:1"/><path fill="#ccd0e0" d="M119.5 188.5q3.816-.594 6.5 2-1.415 3.029-1.5 6-2.678-3.633-5 0a13.1 13.1 0 0 1-1-7q1 0 1-1" style="opacity:1"/><path fill="#d9dce8" d="M107.5 188.5a22.6 22.6 0 0 1-4 8 12.8 12.8 0 0 1-3-6 2.43 2.43 0 0 1 .5-2 48 48 0 0 0 2.5 5q.976-3.52 4-5" style="opacity:1"/><path fill="#d2d4e6" d="M91.5 188.5h2a56.5 56.5 0 0 0-3 8q-.696-3.712-3-6 1.025-2.514 4-2" style="opacity:1"/><path fill="#30334a" d="M120.5 190.5q2.217-.393 4 1l-2 1q-1.82-.37-2-2" style="opacity:1"/><path fill="#cdd2e6" d="M109.5 188.5q3.873-.712 6 2a8.4 8.4 0 0 0-4 .5q8 1.5 0 3a14.7 14.7 0 0 1 5 1.5 13.1 13.1 0 0 1-7 1z" style="opacity:1"/><path fill="#b7baca" d="M95.5 188.5q2.766 2.668 2 7-.09.814-1 1a16.9 16.9 0 0 1-1-8" style="opacity:1"/><path fill="#e2e5ee" d="M61.5 189.5q1.438.679 2.5 2a7.25 7.25 0 0 1 2.5-2 9.86 9.86 0 0 1 1 6q-1.376.009-1.5-3-2 4-4 0-.315 2.337-1.5 4-.453-3.839 1-7" style="opacity:1"/></svg>