<?xml version="1.0" encoding="UTF-8"?>
<!DOCTYPE svg PUBLIC "-//W3C//DTD SVG 1.1//EN" "http://www.w3.org/Graphics/SVG/1.1/DTD/svg11.dtd">
<svg xmlns="http://www.w3.org/2000/svg" version="1.1" width="200px" height="200px" style="shape-rendering:geometricPrecision; text-rendering:geometricPrecision; image-rendering:optimizeQuality; fill-rule:evenodd; clip-rule:evenodd" xmlns:xlink="http://www.w3.org/1999/xlink">
<g><path style="opacity:0.459" fill="#bf5e6b" d="M 3.5,11.5 C 7.7329,11.5387 11.7329,12.2053 15.5,13.5C 14.209,13.2627 13.209,13.596 12.5,14.5C 9.25423,13.9459 6.25423,12.9459 3.5,11.5 Z"/></g>
<g><path style="opacity:0.928" fill="#cf1139" d="M 3.5,11.5 C 6.25423,12.9459 9.25423,13.9459 12.5,14.5C 15.3267,15.1084 17.9933,16.1084 20.5,17.5C 23.1658,18.8421 25.4992,20.6755 27.5,23C 35.966,26.3561 44.2993,29.8561 52.5,33.5C 52.9731,34.9063 53.9731,35.573 55.5,35.5C 55.1583,36.3382 54.4916,36.6716 53.5,36.5C 52.8333,36.5 52.1667,36.5 51.5,36.5C 48.0547,35.9074 44.7213,34.9074 41.5,33.5C 35.8624,32.6701 30.1958,32.1701 24.5,32C 21.5889,30.2389 18.5889,28.7389 15.5,27.5C 11.1855,23.6759 6.51883,20.3425 1.5,17.5C 1.19244,15.076 1.52577,12.7427 2.5,10.5C 3.10667,10.6236 3.44001,10.9569 3.5,11.5 Z"/></g>
<g><path style="opacity:0.855" fill="#ce8c85" d="M 12.5,14.5 C 13.209,13.596 14.209,13.2627 15.5,13.5C 18.5418,13.7329 21.2084,14.7329 23.5,16.5C 22.209,16.2627 21.209,16.596 20.5,17.5C 17.9933,16.1084 15.3267,15.1084 12.5,14.5 Z"/></g>
<g><path style="opacity:0.49" fill="#b85f64" d="M 36.5,13.5 C 42.9323,12.347 48.4323,14.0137 53,18.5C 55.7829,22.9507 58.9496,27.1174 62.5,31C 64.3817,31.1981 66.0484,31.6981 67.5,32.5C 66.7611,32.369 66.0944,32.5357 65.5,33C 66.4158,33.2784 67.0825,33.7784 67.5,34.5C 67.1205,35.1331 66.7871,35.7997 66.5,36.5C 64.8144,35.1431 63.1477,33.8098 61.5,32.5C 57.3795,25.2121 51.7128,19.3788 44.5,15C 42.5273,14.5045 40.5273,14.3379 38.5,14.5C 37.5084,14.6716 36.8417,14.3382 36.5,13.5 Z"/></g>
<g><path style="opacity:0.98" fill="#c6b58c" d="M 125.5,15.5 C 126.991,17.2818 128.658,18.9484 130.5,20.5C 128.021,20.8642 125.687,20.0309 123.5,18C 120.538,16.4359 117.538,16.2692 114.5,17.5C 113.702,17.0431 113.369,16.3764 113.5,15.5C 117.5,14.1667 121.5,14.1667 125.5,15.5 Z"/></g>
<g><path style="opacity:0.808" fill="#99184b" d="M 36.5,13.5 C 36.8417,14.3382 37.5084,14.6716 38.5,14.5C 41.2177,17.5454 43.8844,20.5454 46.5,23.5C 43.2794,22.2907 40.2794,20.624 37.5,18.5C 35.6017,19.7345 33.935,19.4011 32.5,17.5C 31.479,18.0016 31.3123,18.6683 32,19.5C 34.4784,21.6394 36.9784,23.6394 39.5,25.5C 32.9872,24.5774 27.6539,21.5774 23.5,16.5C 27.9648,15.9667 32.2981,14.9667 36.5,13.5 Z"/></g>
<g><path style="opacity:0.949" fill="#b9a485" d="M 164.5,42.5 C 164.01,40.1347 162.676,37.968 160.5,36C 160.905,35.0546 161.572,34.3879 162.5,34C 161.5,33 160.5,32 159.5,31C 160.167,30.6667 160.833,30.3333 161.5,30C 160.5,29.1667 159.5,28.3333 158.5,27.5C 161.076,26.1166 160.742,25.2833 157.5,25C 156.54,23.5806 155.707,22.0806 155,20.5C 154.329,19.7476 153.496,19.4142 152.5,19.5C 150.516,18.8443 148.516,18.1776 146.5,17.5C 145.584,17.5427 144.917,17.8761 144.5,18.5C 139.2,17.5158 139.2,16.5158 144.5,15.5C 155.719,15.2283 162.219,20.5616 164,31.5C 164.499,35.1516 164.665,38.8183 164.5,42.5 Z"/></g>
<g><path style="opacity:0.91" fill="#d3b795" d="M 20.5,17.5 C 21.209,16.596 22.209,16.2627 23.5,16.5C 27.6539,21.5774 32.9872,24.5774 39.5,25.5C 43.3118,26.9069 46.9785,28.5736 50.5,30.5C 51.1667,31.5 51.8333,32.5 52.5,33.5C 44.2993,29.8561 35.966,26.3561 27.5,23C 25.4992,20.6755 23.1658,18.8421 20.5,17.5 Z"/></g>
<g><path style="opacity:0.98" fill="#cf0b3b" d="M 38.5,14.5 C 40.5273,14.3379 42.5273,14.5045 44.5,15C 51.7128,19.3788 57.3795,25.2121 61.5,32.5C 61.1667,32.5 60.8333,32.5 60.5,32.5C 59.8333,32.1667 59.1667,31.8333 58.5,31.5C 55.4949,29.4612 52.4949,27.4612 49.5,25.5C 47.9731,25.573 46.9731,24.9063 46.5,23.5C 43.8844,20.5454 41.2177,17.5454 38.5,14.5 Z"/></g>
<g><path style="opacity:0.965" fill="#1b1522" d="M 134.5,30.5 C 137.308,33.2204 138.975,36.5537 139.5,40.5C 137.886,42.0746 135.886,42.7413 133.5,42.5C 132.976,40.6943 132.309,39.0276 131.5,37.5C 129.297,31.6361 125.63,26.9694 120.5,23.5C 116.47,20.9206 112.47,20.9206 108.5,23.5C 104.839,26.1595 101.172,28.8262 97.5,31.5C 97.1918,28.2597 98.5251,25.4263 101.5,23C 110.396,16.7649 119.063,17.0982 127.5,24C 129.439,24.9078 130.439,26.4078 130.5,28.5C 132.199,28.5271 133.533,29.1938 134.5,30.5 Z"/></g>
<g><path style="opacity:0.935" fill="#230e1f" d="M 46.5,23.5 C 46.9731,24.9063 47.9731,25.573 49.5,25.5C 49.6097,27.0982 49.943,28.7648 50.5,30.5C 46.9785,28.5736 43.3118,26.9069 39.5,25.5C 36.9784,23.6394 34.4784,21.6394 32,19.5C 31.3123,18.6683 31.479,18.0016 32.5,17.5C 33.935,19.4011 35.6017,19.7345 37.5,18.5C 40.2794,20.624 43.2794,22.2907 46.5,23.5 Z"/></g>
<g><path style="opacity:0.969" fill="#a27d7a" d="M 1.5,17.5 C 6.51883,20.3425 11.1855,23.6759 15.5,27.5C 17.3603,28.9387 19.027,30.6053 20.5,32.5C 15.0636,28.9103 9.73025,25.0769 4.5,21C 3.55198,20.5172 2.55198,20.3505 1.5,20.5C 1.5,19.5 1.5,18.5 1.5,17.5 Z"/></g>
<g><path style="opacity:0.969" fill="#82645e" d="M 152.5,19.5 C 153.496,19.4142 154.329,19.7476 155,20.5C 155.707,22.0806 156.54,23.5806 157.5,25C 160.742,25.2833 161.076,26.1166 158.5,27.5C 159.5,28.3333 160.5,29.1667 161.5,30C 160.833,30.3333 160.167,30.6667 159.5,31C 160.5,32 161.5,33 162.5,34C 161.572,34.3879 160.905,35.0546 160.5,36C 162.676,37.968 164.01,40.1347 164.5,42.5C 164.5,42.8333 164.5,43.1667 164.5,43.5C 163.883,43.6107 163.383,43.944 163,44.5C 161.13,42.0842 158.963,40.0842 156.5,38.5C 157.552,38.6495 158.552,38.4828 159.5,38C 156.895,32.0302 154.562,25.8635 152.5,19.5 Z"/></g>
<g><path style="opacity:0.98" fill="#8b6961" d="M 113.5,15.5 C 113.369,16.3764 113.702,17.0431 114.5,17.5C 117.538,16.2692 120.538,16.4359 123.5,18C 125.687,20.0309 128.021,20.8642 130.5,20.5C 128.658,18.9484 126.991,17.2818 125.5,15.5C 130.369,16.6012 134.702,18.7678 138.5,22C 141.118,24.1057 143.118,26.6057 144.5,29.5C 142.852,28.1902 141.186,26.8569 139.5,25.5C 138.537,25.9698 138.537,26.6365 139.5,27.5C 137.897,27.3118 136.563,27.8118 135.5,29C 137.387,29.7796 139.054,29.6129 140.5,28.5C 141.338,28.8417 141.672,29.5084 141.5,30.5C 140.5,30.5 139.5,30.5 138.5,30.5C 138.5,31.5 138.5,32.5 138.5,33.5C 137.596,32.791 137.263,31.791 137.5,30.5C 136.5,30.5 135.5,30.5 134.5,30.5C 133.533,29.1938 132.199,28.5271 130.5,28.5C 130.439,26.4078 129.439,24.9078 127.5,24C 119.063,17.0982 110.396,16.7649 101.5,23C 98.5251,25.4263 97.1918,28.2597 97.5,31.5C 97.44,32.0431 97.1067,32.3764 96.5,32.5C 95.2757,30.1022 95.4424,27.7689 97,25.5C 101.341,20.2466 106.841,16.9133 113.5,15.5 Z"/></g>
<g><path style="opacity:0.284" fill="#705e62" d="M 120.5,23.5 C 116.5,23.5 112.5,23.5 108.5,23.5C 112.47,20.9206 116.47,20.9206 120.5,23.5 Z"/></g>
<g><path style="opacity:0.98" fill="#d5c995" d="M 130.5,20.5 C 131.552,20.3505 132.552,20.5172 133.5,21C 134.5,22.6667 135.833,24 137.5,25C 135.973,26.6324 134.307,26.7991 132.5,25.5C 133.609,23.7859 132.942,23.1192 130.5,23.5C 130.5,22.5 130.5,21.5 130.5,20.5 Z"/></g>
<g><path style="opacity:0.98" fill="#d6c892" d="M 139.5,27.5 C 140.167,27.5 140.5,27.8333 140.5,28.5C 139.054,29.6129 137.387,29.7796 135.5,29C 136.563,27.8118 137.897,27.3118 139.5,27.5 Z"/></g>
<g><path style="opacity:0.945" fill="#6b4e59" d="M 144.5,29.5 C 146.047,30.7682 147.047,32.4348 147.5,34.5C 147.263,35.791 147.596,36.791 148.5,37.5C 147.192,38.2323 145.858,39.0656 144.5,40C 144.833,40.3333 145.167,40.6667 145.5,41C 143.314,41.0613 141.314,41.2279 139.5,41.5C 139.5,41.1667 139.5,40.8333 139.5,40.5C 138.975,36.5537 137.308,33.2204 134.5,30.5C 135.5,30.5 136.5,30.5 137.5,30.5C 137.263,31.791 137.596,32.791 138.5,33.5C 139.833,33.5 141.167,33.5 142.5,33.5C 142.737,32.209 142.404,31.209 141.5,30.5C 141.672,29.5084 141.338,28.8417 140.5,28.5C 140.5,27.8333 140.167,27.5 139.5,27.5C 138.537,26.6365 138.537,25.9698 139.5,25.5C 141.186,26.8569 142.852,28.1902 144.5,29.5 Z"/></g>
<g><path style="opacity:0.929" fill="#51102d" d="M 49.5,25.5 C 52.4949,27.4612 55.4949,29.4612 58.5,31.5C 57.7611,31.369 57.0944,31.5357 56.5,32C 57.8228,32.8159 58.4894,33.9826 58.5,35.5C 57.8333,35.5 57.1667,35.5 56.5,35.5C 55.4863,34.3263 54.153,33.6596 52.5,33.5C 51.8333,32.5 51.1667,31.5 50.5,30.5C 49.943,28.7648 49.6097,27.0982 49.5,25.5 Z"/></g>
<g><path style="opacity:0.996" fill="#9d8583" d="M 20.5,32.5 C 22.153,32.6596 23.4863,33.3263 24.5,34.5C 22.6203,34.7709 21.287,34.1042 20.5,32.5 Z"/></g>
<g><path style="opacity:0.992" fill="#d0c08f" d="M 141.5,30.5 C 142.404,31.209 142.737,32.209 142.5,33.5C 141.167,33.5 139.833,33.5 138.5,33.5C 138.5,32.5 138.5,31.5 138.5,30.5C 139.5,30.5 140.5,30.5 141.5,30.5 Z"/></g>
<g><path style="opacity:0.975" fill="#230f1d" d="M 15.5,27.5 C 18.5889,28.7389 21.5889,30.2389 24.5,32C 30.1958,32.1701 35.8624,32.6701 41.5,33.5C 44.7213,34.9074 48.0547,35.9074 51.5,36.5C 49.0521,37.4731 46.3854,37.8064 43.5,37.5C 42.5,37.5 41.5,37.5 40.5,37.5C 35.1489,36.8574 29.8156,35.8574 24.5,34.5C 23.4863,33.3263 22.153,32.6596 20.5,32.5C 19.027,30.6053 17.3603,28.9387 15.5,27.5 Z"/></g>
<g><path style="opacity:0.729" fill="#c1907c" d="M 67.5,32.5 C 69.2838,32.8925 70.9505,33.5592 72.5,34.5C 73.1667,35.5 73.8333,36.5 74.5,37.5C 72.2779,36.3124 69.9446,35.3124 67.5,34.5C 67.0825,33.7784 66.4158,33.2784 65.5,33C 66.0944,32.5357 66.7611,32.369 67.5,32.5 Z"/></g>
<g><path style="opacity:0.953" fill="#b88e77" d="M 52.5,33.5 C 54.153,33.6596 55.4863,34.3263 56.5,35.5C 56.1667,35.5 55.8333,35.5 55.5,35.5C 53.9731,35.573 52.9731,34.9063 52.5,33.5 Z"/></g>
<g><path style="opacity:0.973" fill="#190516" d="M 58.5,31.5 C 59.1667,31.8333 59.8333,32.1667 60.5,32.5C 61.5,33.8333 62.5,35.1667 63.5,36.5C 61.7839,36.3713 60.1172,36.038 58.5,35.5C 58.4894,33.9826 57.8228,32.8159 56.5,32C 57.0944,31.5357 57.7611,31.369 58.5,31.5 Z"/></g>
<g><path style="opacity:0.984" fill="#c19d76" d="M 140.5,34.5 C 141.5,34.5 142.5,34.5 143.5,34.5C 143.5,35.5 143.5,36.5 143.5,37.5C 142.5,37.5 141.5,37.5 140.5,37.5C 140.5,36.5 140.5,35.5 140.5,34.5 Z"/></g>
<g><path style="opacity:0.902" fill="#2a2432" d="M 152.5,19.5 C 154.562,25.8635 156.895,32.0302 159.5,38C 158.552,38.4828 157.552,38.6495 156.5,38.5C 155.5,37.8333 154.5,37.1667 153.5,36.5C 154.194,28.5542 151.194,22.5542 144.5,18.5C 144.917,17.8761 145.584,17.5427 146.5,17.5C 148.516,18.1776 150.516,18.8443 152.5,19.5 Z"/></g>
<g><path style="opacity:0.984" fill="#986b70" d="M 24.5,34.5 C 29.8156,35.8574 35.1489,36.8574 40.5,37.5C 39.1266,37.3433 37.7932,37.51 36.5,38C 37.7375,38.2321 38.7375,38.7321 39.5,39.5C 33.9563,39.2077 28.9563,37.5411 24.5,34.5 Z"/></g>
<g><path style="opacity:0.886" fill="#9c7467" d="M 56.5,35.5 C 57.1667,35.5 57.8333,35.5 58.5,35.5C 60.1172,36.038 61.7839,36.3713 63.5,36.5C 64.9952,36.9887 66.3285,37.6554 67.5,38.5C 65.8333,38.5 64.1667,38.5 62.5,38.5C 60.3713,37.7972 58.3713,36.7972 56.5,35.5 Z"/></g>
<g><path style="opacity:0.863" fill="#8a8791" d="M 147.5,34.5 C 148.458,34.9528 149.292,35.6195 150,36.5C 150.986,35.8288 152.153,35.8288 153.5,36.5C 154.5,37.1667 155.5,37.8333 156.5,38.5C 153.763,38.5987 151.096,38.2653 148.5,37.5C 147.596,36.791 147.263,35.791 147.5,34.5 Z"/></g>
<g><path style="opacity:0.973" fill="#624543" d="M 51.5,36.5 C 52.1667,36.5 52.8333,36.5 53.5,36.5C 52.3064,37.7773 50.6397,38.4439 48.5,38.5C 46.6307,38.4932 44.964,38.1599 43.5,37.5C 46.3854,37.8064 49.0521,37.4731 51.5,36.5 Z"/></g>
<g><path style="opacity:0.992" fill="#b01e3c" d="M 60.5,32.5 C 60.8333,32.5 61.1667,32.5 61.5,32.5C 63.1477,33.8098 64.8144,35.1431 66.5,36.5C 66.7871,35.7997 67.1205,35.1331 67.5,34.5C 69.9446,35.3124 72.2779,36.3124 74.5,37.5C 77.5628,41.5658 81.2294,44.8991 85.5,47.5C 88.2718,49.3904 91.2718,51.057 94.5,52.5C 98.5,56.1667 102.5,59.8333 106.5,63.5C 106.5,64.1667 106.5,64.8333 106.5,65.5C 102.317,60.957 97.6506,57.2903 92.5,54.5C 91.7377,52.7376 90.4044,51.7376 88.5,51.5C 87.8333,51.5 87.1667,51.5 86.5,51.5C 83.672,49.2519 80.672,47.2519 77.5,45.5C 77.5,45.1667 77.5,44.8333 77.5,44.5C 77.9382,44.5654 78.2716,44.3988 78.5,44C 75.1403,41.4543 71.4736,39.6209 67.5,38.5C 66.3285,37.6554 64.9952,36.9887 63.5,36.5C 62.5,35.1667 61.5,33.8333 60.5,32.5 Z"/></g>
<g><path style="opacity:0.981" fill="#7c1264" d="M 1.5,20.5 C 2.55198,20.3505 3.55198,20.5172 4.5,21C 9.73025,25.0769 15.0636,28.9103 20.5,32.5C 21.287,34.1042 22.6203,34.7709 24.5,34.5C 28.9563,37.5411 33.9563,39.2077 39.5,39.5C 41.6074,40.4682 43.9407,40.8016 46.5,40.5C 46.5,41.8333 46.5,43.1667 46.5,44.5C 49.2282,44.1706 51.5615,44.8372 53.5,46.5C 45.3116,45.5959 37.3116,43.9292 29.5,41.5C 22.5296,38.0144 15.8629,34.0144 9.5,29.5C 9.16667,29.6667 8.83333,29.8333 8.5,30C 13.4453,34.1158 18.7786,37.6158 24.5,40.5C 22.9829,42.9358 23.3162,45.1024 25.5,47C 23.065,47.0748 22.3984,47.9081 23.5,49.5C 16.541,46.9467 11.041,42.6134 7,36.5C 7.01031,32.3493 5.17698,29.3493 1.5,27.5C 1.5,25.1667 1.5,22.8333 1.5,20.5 Z"/></g>
<g><path style="opacity:0.98" fill="#3f0e3b" d="M 29.5,41.5 C 29.5,41.8333 29.5,42.1667 29.5,42.5C 28.8333,42.5 28.5,42.8333 28.5,43.5C 27.1667,42.5 25.8333,41.5 24.5,40.5C 18.7786,37.6158 13.4453,34.1158 8.5,30C 8.83333,29.8333 9.16667,29.6667 9.5,29.5C 15.8629,34.0144 22.5296,38.0144 29.5,41.5 Z"/></g>
<g><path style="opacity:0.808" fill="#893e49" d="M 72.5,34.5 C 78.3088,37.6239 83.3088,41.9573 87.5,47.5C 86.8333,47.5 86.1667,47.5 85.5,47.5C 81.2294,44.8991 77.5628,41.5658 74.5,37.5C 73.8333,36.5 73.1667,35.5 72.5,34.5 Z"/></g>
<g><path style="opacity:0.996" fill="#c03d4f" d="M 55.5,35.5 C 55.8333,35.5 56.1667,35.5 56.5,35.5C 58.3713,36.7972 60.3713,37.7972 62.5,38.5C 57.0019,38.9525 51.6686,39.6191 46.5,40.5C 43.9407,40.8016 41.6074,40.4682 39.5,39.5C 38.7375,38.7321 37.7375,38.2321 36.5,38C 37.7932,37.51 39.1266,37.3433 40.5,37.5C 41.5,37.5 42.5,37.5 43.5,37.5C 44.964,38.1599 46.6307,38.4932 48.5,38.5C 50.6397,38.4439 52.3064,37.7773 53.5,36.5C 54.4916,36.6716 55.1583,36.3382 55.5,35.5 Z"/></g>
<g><path style="opacity:0.953" fill="#ba977a" d="M 67.5,38.5 C 71.4736,39.6209 75.1403,41.4543 78.5,44C 78.2716,44.3988 77.9382,44.5654 77.5,44.5C 73.8996,42.8899 70.5662,40.8899 67.5,38.5 Z"/></g>
<g><path style="opacity:0.977" fill="#0e0418" d="M 28.5,43.5 C 28.5,42.8333 28.8333,42.5 29.5,42.5C 41.1899,46.3377 53.1899,48.671 65.5,49.5C 75.2933,51.2303 84.2933,54.897 92.5,60.5C 98.1961,67.1917 103.863,73.8584 109.5,80.5C 111.86,83.5272 114.527,86.1938 117.5,88.5C 115.784,88.3713 114.117,88.038 112.5,87.5C 110.412,86.0605 108.079,85.3939 105.5,85.5C 105.924,80.0041 103.591,76.3375 98.5,74.5C 96.5,73.8333 94.5,73.1667 92.5,72.5C 93.2625,71.7321 94.2625,71.2321 95.5,71C 89.3123,69.9241 84.3123,71.9241 80.5,77C 74.1104,77.2625 69.4437,80.0959 66.5,85.5C 64.6115,86.604 62.9448,87.9373 61.5,89.5C 59.9382,89.7329 58.6049,90.3995 57.5,91.5C 55.3481,88.5401 52.3481,86.8734 48.5,86.5C 47.391,86.4431 46.391,86.1098 45.5,85.5C 43.847,85.3404 42.5137,84.6737 41.5,83.5C 42.6085,82.71 43.9419,82.21 45.5,82C 45.1667,81.6667 44.8333,81.3333 44.5,81C 49.0195,80.8247 53.3528,80.3247 57.5,79.5C 60.8788,79.112 64.2121,78.4453 67.5,77.5C 66.6431,76.5748 65.6431,75.9081 64.5,75.5C 66.2922,74.6909 68.2922,74.1909 70.5,74C 68.3225,72.7978 65.9892,72.2978 63.5,72.5C 59.4402,72.5153 55.4402,72.0153 51.5,71C 52.8333,70.6667 54.1667,70.3333 55.5,70C 52.2342,68.9424 49.2342,67.4424 46.5,65.5C 49.8333,65.5 53.1667,65.5 56.5,65.5C 58.8568,65.6633 61.1902,65.4966 63.5,65C 60.2357,64.3623 57.2357,63.1957 54.5,61.5C 54.3893,60.8826 54.056,60.3826 53.5,60C 49.016,59.1294 44.6827,57.7961 40.5,56C 42.3008,55.6827 42.6341,55.016 41.5,54C 38.5,53 35.5,52 32.5,51C 31.384,48.2608 30.0507,45.7608 28.5,43.5 Z"/></g>
<g><path style="opacity:0.961" fill="#7f585d" d="M 29.5,42.5 C 29.5,42.1667 29.5,41.8333 29.5,41.5C 37.3116,43.9292 45.3116,45.5959 53.5,46.5C 57.6709,47.2622 61.6709,48.2622 65.5,49.5C 53.1899,48.671 41.1899,46.3377 29.5,42.5 Z"/></g>
<g><path style="opacity:0.967" fill="#cdd0d1" d="M 109.5,40.5 C 115.346,42.2329 121.346,42.8996 127.5,42.5C 127.5,43.5 127.5,44.5 127.5,45.5C 124.5,45.5 121.5,45.5 118.5,45.5C 114.748,45.0601 111.748,43.3934 109.5,40.5 Z"/></g>
<g><path style="opacity:0.957" fill="#a2aab5" d="M 131.5,37.5 C 132.309,39.0276 132.976,40.6943 133.5,42.5C 132.086,44.0542 130.419,45.3875 128.5,46.5C 124.958,46.8128 121.625,46.4794 118.5,45.5C 121.5,45.5 124.5,45.5 127.5,45.5C 127.5,44.5 127.5,43.5 127.5,42.5C 128.364,42.2976 129.364,41.9643 130.5,41.5C 131.246,40.2638 131.579,38.9305 131.5,37.5 Z"/></g>
<g><path style="opacity:0.973" fill="#934649" d="M 77.5,45.5 C 80.672,47.2519 83.672,49.2519 86.5,51.5C 78.922,47.77 70.922,45.27 62.5,44C 67.603,43.4294 72.603,43.9294 77.5,45.5 Z"/></g>
<g><path style="opacity:0.992" fill="#0f0c1c" d="M 109.5,40.5 C 111.748,43.3934 114.748,45.0601 118.5,45.5C 121.625,46.4794 124.958,46.8128 128.5,46.5C 129.936,47.4286 131.269,48.5952 132.5,50C 130.142,51.2755 127.808,52.4422 125.5,53.5C 121.327,52.9564 117.327,51.7897 113.5,50C 112.055,46.7302 110.055,43.8968 107.5,41.5C 108.006,39.8946 108.673,39.5613 109.5,40.5 Z"/></g>
<g><path style="opacity:0.565" fill="#99736a" d="M 85.5,47.5 C 86.1667,47.5 86.8333,47.5 87.5,47.5C 91.1024,47.6924 94.1024,49.0257 96.5,51.5C 95.5084,51.3284 94.8417,51.6618 94.5,52.5C 91.2718,51.057 88.2718,49.3904 85.5,47.5 Z"/></g>
<g><path style="opacity:1" fill="#8096ba" d="M 140.5,50.5 C 142.948,49.5269 145.615,49.1936 148.5,49.5C 148.5,51.5 148.5,53.5 148.5,55.5C 148.167,55.5 147.833,55.5 147.5,55.5C 147.146,51.1536 144.813,49.4869 140.5,50.5 Z"/></g>
<g><path style="opacity:0.969" fill="#af8f75" d="M 86.5,51.5 C 87.1667,51.5 87.8333,51.5 88.5,51.5C 89.1667,52.5 89.8333,53.5 90.5,54.5C 88.5956,54.2624 87.2623,53.2624 86.5,51.5 Z"/></g>
<g><path style="opacity:0.969" fill="#582030" d="M 88.5,51.5 C 90.4044,51.7376 91.7377,52.7376 92.5,54.5C 91.8333,54.5 91.1667,54.5 90.5,54.5C 89.8333,53.5 89.1667,52.5 88.5,51.5 Z"/></g>
<g><path style="opacity:0.89" fill="#837b79" d="M 107.5,41.5 C 110.055,43.8968 112.055,46.7302 113.5,50C 117.327,51.7897 121.327,52.9564 125.5,53.5C 126.167,53.5 126.5,53.8333 126.5,54.5C 125.833,54.5 125.5,54.8333 125.5,55.5C 120.457,55.1907 115.79,53.6907 111.5,51C 108.924,48.349 107.591,45.1823 107.5,41.5 Z"/></g>
<g><path style="opacity:1" fill="#1d1c31" d="M 140.5,50.5 C 144.813,49.4869 147.146,51.1536 147.5,55.5C 147.44,56.0431 147.107,56.3764 146.5,56.5C 144.556,55.8108 142.556,55.3108 140.5,55C 139.934,54.0053 139.267,53.172 138.5,52.5C 138.5,52.1667 138.5,51.8333 138.5,51.5C 139.167,51.1667 139.833,50.8333 140.5,50.5 Z"/></g>
<g><path style="opacity:0.973" fill="#c8a98c" d="M 94.5,52.5 C 94.8417,51.6618 95.5084,51.3284 96.5,51.5C 97.1667,51.8333 97.8333,52.1667 98.5,52.5C 101.167,56.1667 103.833,59.8333 106.5,63.5C 102.5,59.8333 98.5,56.1667 94.5,52.5 Z"/></g>
<g><path style="opacity:0.937" fill="#981d4b" d="M 1.5,27.5 C 5.17698,29.3493 7.01031,32.3493 7,36.5C 11.041,42.6134 16.541,46.9467 23.5,49.5C 26.3267,50.4188 28.66,52.0855 30.5,54.5C 27.6659,53.272 24.8326,51.9387 22,50.5C 21.688,54.0622 22.8546,57.0622 25.5,59.5C 23.0517,57.7155 20.385,56.3822 17.5,55.5C 18.822,53.6889 19.322,51.6889 19,49.5C 14.7171,46.8847 10.7171,43.8847 7,40.5C 5.82869,35.7996 3.99535,31.4663 1.5,27.5 Z"/></g>
<g><path style="opacity:0.929" fill="#21081d" d="M 30.5,54.5 C 30.7376,56.4044 31.7376,57.7377 33.5,58.5C 36.4835,61.3258 39.8168,63.6591 43.5,65.5C 41.5,65.5 39.5,65.5 37.5,65.5C 33.2549,63.9045 29.2549,61.9045 25.5,59.5C 22.8546,57.0622 21.688,54.0622 22,50.5C 24.8326,51.9387 27.6659,53.272 30.5,54.5 Z"/></g>
<g><path style="opacity:0.976" fill="#59104b" d="M 24.5,40.5 C 25.8333,41.5 27.1667,42.5 28.5,43.5C 30.0507,45.7608 31.384,48.2608 32.5,51C 35.5,52 38.5,53 41.5,54C 42.6341,55.016 42.3008,55.6827 40.5,56C 44.6827,57.7961 49.016,59.1294 53.5,60C 54.056,60.3826 54.3893,60.8826 54.5,61.5C 50.8019,61.4476 47.1352,61.1143 43.5,60.5C 40.6164,59.7345 37.7831,58.7345 35,57.5C 34.2352,57.5699 33.7352,57.9033 33.5,58.5C 31.7376,57.7377 30.7376,56.4044 30.5,54.5C 28.66,52.0855 26.3267,50.4188 23.5,49.5C 22.3984,47.9081 23.065,47.0748 25.5,47C 23.3162,45.1024 22.9829,42.9358 24.5,40.5 Z"/></g>
<g><path style="opacity:0.973" fill="#a6866e" d="M 90.5,54.5 C 91.1667,54.5 91.8333,54.5 92.5,54.5C 92.8333,55.1667 93.1667,55.8333 93.5,56.5C 91.9731,56.573 90.9731,55.9063 90.5,54.5 Z"/></g>
<g><path style="opacity:0.771" fill="#aeb7bf" d="M 165.5,46.5 C 166.302,47.9516 166.802,49.6183 167,51.5C 169.944,52.7226 172.444,54.5559 174.5,57C 177.608,58.7585 180.941,59.5919 184.5,59.5C 184.054,63.5729 181.72,65.5729 177.5,65.5C 178.833,64.5 180.167,63.5 181.5,62.5C 176.16,60.8509 170.993,58.5175 166,55.5C 164.624,56.7051 163.458,58.0384 162.5,59.5C 159.357,57.6204 158.69,54.9538 160.5,51.5C 162.39,51.2965 163.89,51.9632 165,53.5C 165.497,51.1902 165.663,48.8568 165.5,46.5 Z"/></g>
<g><path style="opacity:0.231" fill="#745863" d="M 98.5,52.5 C 101.975,54.4118 104.808,57.0785 107,60.5C 107.333,60.1667 107.667,59.8333 108,59.5C 110.415,60.1319 112.582,61.1319 114.5,62.5C 112.181,61.833 109.847,61.6664 107.5,62C 108.267,63.4705 108.933,64.9705 109.5,66.5C 109.5,66.8333 109.5,67.1667 109.5,67.5C 108.5,66.8333 107.5,66.1667 106.5,65.5C 106.5,64.8333 106.5,64.1667 106.5,63.5C 103.833,59.8333 101.167,56.1667 98.5,52.5 Z"/></g>
<g><path style="opacity:0.973" fill="#77273a" d="M 92.5,54.5 C 97.6506,57.2903 102.317,60.957 106.5,65.5C 107.5,66.1667 108.5,66.8333 109.5,67.5C 111.358,69.8831 112.692,72.5498 113.5,75.5C 112.833,75.1667 112.167,74.8333 111.5,74.5C 109.81,74.1436 108.81,73.1436 108.5,71.5C 105.899,67.2294 102.566,63.5628 98.5,60.5C 96.2512,59.9202 94.5846,58.5869 93.5,56.5C 93.1667,55.8333 92.8333,55.1667 92.5,54.5 Z"/></g>
<g><path style="opacity:1" fill="#d3d8da" d="M 148.5,37.5 C 151.096,38.2653 153.763,38.5987 156.5,38.5C 158.963,40.0842 161.13,42.0842 163,44.5C 163.383,43.944 163.883,43.6107 164.5,43.5C 165.404,44.209 165.737,45.209 165.5,46.5C 165.663,48.8568 165.497,51.1902 165,53.5C 163.89,51.9632 162.39,51.2965 160.5,51.5C 158.69,54.9538 159.357,57.6204 162.5,59.5C 162.557,60.609 162.89,61.609 163.5,62.5C 163.75,64.674 164.75,66.3406 166.5,67.5C 166.5,68.1667 166.5,68.8333 166.5,69.5C 165.081,70.4511 163.415,70.7845 161.5,70.5C 160.292,69.7659 158.959,69.4326 157.5,69.5C 157.351,70.552 157.517,71.552 158,72.5C 159.652,73.3994 161.152,74.3994 162.5,75.5C 161.848,76.7251 160.681,77.3917 159,77.5C 157.615,77.4857 156.449,77.1524 155.5,76.5C 151.727,74.3342 147.727,72.3342 143.5,70.5C 142.614,69.675 142.281,68.675 142.5,67.5C 141.325,67.719 140.325,67.3857 139.5,66.5C 137.353,63.7784 135.687,60.7784 134.5,57.5C 135.133,55.2145 136.466,53.5478 138.5,52.5C 138.286,54.1439 138.62,55.6439 139.5,57C 142.365,57.1829 145.031,57.6829 147.5,58.5C 149.838,60.2153 151.505,62.5487 152.5,65.5C 153.5,66.1667 154.5,66.8333 155.5,67.5C 155.833,67 156.167,66.5 156.5,66C 154.338,61.0591 153.005,55.8924 152.5,50.5C 151.522,50.0233 150.689,49.3567 150,48.5C 149.817,51.3647 149.317,54.0314 148.5,56.5C 148.5,56.1667 148.5,55.8333 148.5,55.5C 148.5,53.5 148.5,51.5 148.5,49.5C 145.615,49.1936 142.948,49.5269 140.5,50.5C 139.833,50.8333 139.167,51.1667 138.5,51.5C 136.014,50.0502 136.347,48.8835 139.5,48C 138.572,47.6121 137.905,46.9454 137.5,46C 138.414,44.5936 139.08,43.0936 139.5,41.5C 141.314,41.2279 143.314,41.0613 145.5,41C 145.167,40.6667 144.833,40.3333 144.5,40C 145.858,39.0656 147.192,38.2323 148.5,37.5 Z"/></g>
<g><path style="opacity:0.988" fill="#604c5c" d="M 138.5,52.5 C 139.267,53.172 139.934,54.0053 140.5,55C 142.556,55.3108 144.556,55.8108 146.5,56.5C 147.107,56.3764 147.44,56.0431 147.5,55.5C 147.833,55.5 148.167,55.5 148.5,55.5C 148.5,55.8333 148.5,56.1667 148.5,56.5C 148.672,57.4916 148.338,58.1583 147.5,58.5C 145.031,57.6829 142.365,57.1829 139.5,57C 138.62,55.6439 138.286,54.1439 138.5,52.5 Z"/></g>
<g><path style="opacity:0.951" fill="#19192b" d="M 181.5,62.5 C 177.564,62.4782 173.897,63.4782 170.5,65.5C 169.583,64.8728 168.583,64.5394 167.5,64.5C 167.167,64.5 166.833,64.5 166.5,64.5C 166.027,63.0937 165.027,62.427 163.5,62.5C 162.89,61.609 162.557,60.609 162.5,59.5C 163.458,58.0384 164.624,56.7051 166,55.5C 170.993,58.5175 176.16,60.8509 181.5,62.5 Z"/></g>
<g><path style="opacity:0.957" fill="#c2173e" d="M 62.5,38.5 C 64.1667,38.5 65.8333,38.5 67.5,38.5C 70.5662,40.8899 73.8996,42.8899 77.5,44.5C 77.5,44.8333 77.5,45.1667 77.5,45.5C 72.603,43.9294 67.603,43.4294 62.5,44C 70.922,45.27 78.922,47.77 86.5,51.5C 87.2623,53.2624 88.5956,54.2624 90.5,54.5C 90.9731,55.9063 91.9731,56.573 93.5,56.5C 94.5846,58.5869 96.2512,59.9202 98.5,60.5C 101.101,64.7706 104.434,68.4372 108.5,71.5C 108.81,73.1436 109.81,74.1436 111.5,74.5C 112.167,76.5 112.833,78.5 113.5,80.5C 107.138,73.1372 100.138,66.4705 92.5,60.5C 84.2933,54.897 75.2933,51.2303 65.5,49.5C 61.6709,48.2622 57.6709,47.2622 53.5,46.5C 51.5615,44.8372 49.2282,44.1706 46.5,44.5C 46.5,43.1667 46.5,41.8333 46.5,40.5C 51.6686,39.6191 57.0019,38.9525 62.5,38.5 Z"/></g>
<g><path style="opacity:1" fill="#94abc9" d="M 147.5,58.5 C 148.338,58.1583 148.672,57.4916 148.5,56.5C 149.317,54.0314 149.817,51.3647 150,48.5C 150.689,49.3567 151.522,50.0233 152.5,50.5C 153.005,55.8924 154.338,61.0591 156.5,66C 156.167,66.5 155.833,67 155.5,67.5C 154.5,66.8333 153.5,66.1667 152.5,65.5C 151.505,62.5487 149.838,60.2153 147.5,58.5 Z"/></g>
<g><path style="opacity:0.937" fill="#8c0d46" d="M 43.5,60.5 C 47.1352,61.1143 50.8019,61.4476 54.5,61.5C 57.2357,63.1957 60.2357,64.3623 63.5,65C 61.1902,65.4966 58.8568,65.6633 56.5,65.5C 52.2042,63.7092 47.8709,62.0425 43.5,60.5 Z"/></g>
<g><path style="opacity:0.937" fill="#ae7567" d="M 98.5,60.5 C 102.566,63.5628 105.899,67.2294 108.5,71.5C 104.434,68.4372 101.101,64.7706 98.5,60.5 Z"/></g>
<g><path style="opacity:0.957" fill="#c4073b" d="M 33.5,58.5 C 33.7352,57.9033 34.2352,57.5699 35,57.5C 37.7831,58.7345 40.6164,59.7345 43.5,60.5C 47.8709,62.0425 52.2042,63.7092 56.5,65.5C 53.1667,65.5 49.8333,65.5 46.5,65.5C 45.5,65.5 44.5,65.5 43.5,65.5C 39.8168,63.6591 36.4835,61.3258 33.5,58.5 Z"/></g>
<g><path style="opacity:0.918" fill="#832748" d="M 114.5,62.5 C 115.492,62.3284 116.158,62.6618 116.5,63.5C 116.5,63.8333 116.5,64.1667 116.5,64.5C 115.833,65.1667 115.167,65.8333 114.5,66.5C 114.278,63.9236 112.945,63.0902 110.5,64C 114.56,66.7678 114.226,67.6011 109.5,66.5C 108.933,64.9705 108.267,63.4705 107.5,62C 109.847,61.6664 112.181,61.833 114.5,62.5 Z"/></g>
<g><path style="opacity:0.945" fill="#758297" d="M 181.5,62.5 C 180.167,63.5 178.833,64.5 177.5,65.5C 174.696,66.6378 171.696,66.8045 168.5,66C 167.944,65.6174 167.611,65.1174 167.5,64.5C 168.583,64.5394 169.583,64.8728 170.5,65.5C 173.897,63.4782 177.564,62.4782 181.5,62.5 Z"/></g>
<g><path style="opacity:0.94" fill="#cd0a39" d="M 17.5,55.5 C 20.385,56.3822 23.0517,57.7155 25.5,59.5C 29.2549,61.9045 33.2549,63.9045 37.5,65.5C 38.5981,66.397 38.5981,67.2303 37.5,68C 43.835,70.4997 50.1683,72.6663 56.5,74.5C 58.1585,75.1814 59.8251,76.0147 61.5,77C 52.1334,76.6214 42.8001,77.2881 33.5,79C 34.0442,79.7172 34.7109,80.2172 35.5,80.5C 37.5168,81.5294 39.5168,82.5294 41.5,83.5C 42.5137,84.6737 43.847,85.3404 45.5,85.5C 45.0825,86.2216 44.4158,86.7216 43.5,87C 45.5,88.3333 47.5,89.6667 49.5,91C 48.5,91.3333 47.5,91.6667 46.5,92C 48.596,92.7365 50.2627,93.9032 51.5,95.5C 51.1667,96.1667 50.8333,96.8333 50.5,97.5C 49.5,97.8333 48.8333,98.5 48.5,99.5C 41.4694,96.646 35.4694,92.3127 30.5,86.5C 25.4969,78.4919 20.4969,70.4919 15.5,62.5C 15.1706,59.7718 15.8372,57.4385 17.5,55.5 Z"/></g>
<g><path style="opacity:0.941" fill="#aa1441" d="M 116.5,64.5 C 117.551,65.2223 118.218,66.2223 118.5,67.5C 117.677,70.977 117.177,74.6437 117,78.5C 116.617,77.944 116.117,77.6107 115.5,77.5C 114.756,73.8815 114.423,70.2148 114.5,66.5C 115.167,65.8333 115.833,65.1667 116.5,64.5 Z"/></g>
<g><path style="opacity:0.992" fill="#878c8a" d="M 126.5,55.5 C 127.552,55.3505 128.552,55.5172 129.5,56C 128.083,59.2493 126.083,62.0827 123.5,64.5C 124.262,64.9106 125.262,65.0773 126.5,65C 124.242,65.876 122.242,67.0427 120.5,68.5C 119.646,67.3684 119.646,66.035 120.5,64.5C 122.275,61.2624 124.275,58.2624 126.5,55.5 Z"/></g>
<g><path style="opacity:0.906" fill="#747e86" d="M 163.5,62.5 C 165.027,62.427 166.027,63.0937 166.5,64.5C 166.5,65.5 166.5,66.5 166.5,67.5C 164.75,66.3406 163.75,64.674 163.5,62.5 Z"/></g>
<g><path style="opacity:0.553" fill="#af7170" d="M 15.5,62.5 C 20.4969,70.4919 25.4969,78.4919 30.5,86.5C 27.5421,83.9405 25.0421,80.9405 23,77.5C 19.9406,72.7146 17.4406,67.7146 15.5,62.5 Z"/></g>
<g><path style="opacity:1" fill="#505473" d="M 129.5,66.5 C 129.631,65.6236 129.298,64.9569 128.5,64.5C 127.779,66.686 127.113,68.8526 126.5,71C 127.699,72.6943 129.032,74.1943 130.5,75.5C 124.924,74.1819 123.591,71.6819 126.5,68C 124.575,68.1349 122.575,68.3016 120.5,68.5C 122.242,67.0427 124.242,65.876 126.5,65C 125.262,65.0773 124.262,64.9106 123.5,64.5C 126.083,62.0827 128.083,59.2493 129.5,56C 128.552,55.5172 127.552,55.3505 126.5,55.5C 126.167,55.5 125.833,55.5 125.5,55.5C 125.5,54.8333 125.833,54.5 126.5,54.5C 127.583,54.4606 128.583,54.1272 129.5,53.5C 129.833,54.1667 130.167,54.8333 130.5,55.5C 129.833,57.5 129.167,59.5 128.5,61.5C 129.037,62.7412 129.704,63.9079 130.5,65C 130.43,65.7648 130.097,66.2648 129.5,66.5 Z"/></g>
<g><path style="opacity:0.918" fill="#7d164d" d="M 92.5,60.5 C 100.138,66.4705 107.138,73.1372 113.5,80.5C 114.773,81.0768 114.773,81.7435 113.5,82.5C 112.186,81.6872 111.019,80.6872 110,79.5C 109.601,79.7284 109.435,80.0618 109.5,80.5C 103.863,73.8584 98.1961,67.1917 92.5,60.5 Z"/></g>
<g><path style="opacity:1" fill="#748bb2" d="M 139.5,40.5 C 139.5,40.8333 139.5,41.1667 139.5,41.5C 139.08,43.0936 138.414,44.5936 137.5,46C 137.905,46.9454 138.572,47.6121 139.5,48C 136.347,48.8835 136.014,50.0502 138.5,51.5C 138.5,51.8333 138.5,52.1667 138.5,52.5C 136.466,53.5478 135.133,55.2145 134.5,57.5C 135.687,60.7784 137.353,63.7784 139.5,66.5C 140.325,67.3857 141.325,67.719 142.5,67.5C 142.281,68.675 142.614,69.675 143.5,70.5C 147.727,72.3342 151.727,74.3342 155.5,76.5C 153.218,75.6103 150.885,75.4436 148.5,76C 153.396,77.9462 158.396,79.6128 163.5,81C 160.447,81.1786 157.447,81.6786 154.5,82.5C 155.522,83.354 156.355,84.354 157,85.5C 158.016,84.3659 158.683,84.6992 159,86.5C 159.77,85.4019 160.603,85.4019 161.5,86.5C 160.85,88.4352 160.517,90.4352 160.5,92.5C 160.167,92.5 159.833,92.5 159.5,92.5C 159.565,92.0618 159.399,91.7284 159,91.5C 157.961,92.2438 157.461,93.2438 157.5,94.5C 157.167,94.5 156.833,94.5 156.5,94.5C 155.955,91.1869 155.455,87.8536 155,84.5C 153.002,85.2714 151.335,84.6048 150,82.5C 149.398,85.2205 149.565,87.8872 150.5,90.5C 149.167,90.5 148.5,91.1667 148.5,92.5C 147.125,89.0071 145.959,85.3404 145,81.5C 144.009,82.4296 143.509,83.5962 143.5,85C 144.937,87.7009 145.937,90.5343 146.5,93.5C 145.504,93.5858 144.671,93.2524 144,92.5C 143.667,93.1667 143.333,93.8333 143,94.5C 142.023,92.26 141.523,89.9267 141.5,87.5C 141.543,84.4135 141.71,81.4135 142,78.5C 140.984,79.6341 140.317,79.3008 140,77.5C 139.085,78.3279 138.419,79.3279 138,80.5C 137.667,78.8333 137.333,77.1667 137,75.5C 136.346,76.6956 135.846,76.6956 135.5,75.5C 136.326,74.549 136.492,73.549 136,72.5C 135.667,72.8333 135.333,73.1667 135,73.5C 134.583,72.244 133.75,71.5774 132.5,71.5C 132.5,71.1667 132.5,70.8333 132.5,70.5C 133.289,70.2172 133.956,69.7172 134.5,69C 132.888,68.2797 131.388,68.4464 130,69.5C 129.517,68.552 129.351,67.552 129.5,66.5C 130.097,66.2648 130.43,65.7648 130.5,65C 129.704,63.9079 129.037,62.7412 128.5,61.5C 129.167,59.5 129.833,57.5 130.5,55.5C 130.167,54.8333 129.833,54.1667 129.5,53.5C 128.583,54.1272 127.583,54.4606 126.5,54.5C 126.5,53.8333 126.167,53.5 125.5,53.5C 127.808,52.4422 130.142,51.2755 132.5,50C 131.269,48.5952 129.936,47.4286 128.5,46.5C 130.419,45.3875 132.086,44.0542 133.5,42.5C 135.886,42.7413 137.886,42.0746 139.5,40.5 Z"/></g>
<g><path style="opacity:0.996" fill="#a5b4a1" d="M 92.5,72.5 C 90.3453,72.372 88.3453,72.872 86.5,74C 84,76.5 81.5,79 79,81.5C 77.7303,79.4215 76.2303,79.0882 74.5,80.5C 72.2228,81.4486 70.2228,82.7819 68.5,84.5C 67.8333,84.5 67.5,84.8333 67.5,85.5C 67.1667,85.5 66.8333,85.5 66.5,85.5C 69.4437,80.0959 74.1104,77.2625 80.5,77C 84.3123,71.9241 89.3123,69.9241 95.5,71C 94.2625,71.2321 93.2625,71.7321 92.5,72.5 Z"/></g>
<g><path style="opacity:1" fill="#232343" d="M 129.5,66.5 C 129.351,67.552 129.517,68.552 130,69.5C 131.388,68.4464 132.888,68.2797 134.5,69C 133.956,69.7172 133.289,70.2172 132.5,70.5C 131.469,69.6202 130.802,70.1202 130.5,72C 131.167,74.6667 131.833,77.3333 132.5,80C 132.43,80.7648 132.097,81.2648 131.5,81.5C 131.443,80.391 131.11,79.391 130.5,78.5C 130.5,77.5 130.5,76.5 130.5,75.5C 129.032,74.1943 127.699,72.6943 126.5,71C 127.113,68.8526 127.779,66.686 128.5,64.5C 129.298,64.9569 129.631,65.6236 129.5,66.5 Z"/></g>
<g><path style="opacity:0.957" fill="#840c43" d="M 43.5,65.5 C 44.5,65.5 45.5,65.5 46.5,65.5C 49.2342,67.4424 52.2342,68.9424 55.5,70C 54.1667,70.3333 52.8333,70.6667 51.5,71C 55.4402,72.0153 59.4402,72.5153 63.5,72.5C 62.1667,73.1667 60.8333,73.8333 59.5,74.5C 58.5,74.5 57.5,74.5 56.5,74.5C 50.1683,72.6663 43.835,70.4997 37.5,68C 38.5981,67.2303 38.5981,66.397 37.5,65.5C 39.5,65.5 41.5,65.5 43.5,65.5 Z"/></g>
<g><path style="opacity:0.956" fill="#470a2f" d="M 63.5,72.5 C 65.9892,72.2978 68.3225,72.7978 70.5,74C 68.2922,74.1909 66.2922,74.6909 64.5,75.5C 62.7839,75.3713 61.1172,75.038 59.5,74.5C 60.8333,73.8333 62.1667,73.1667 63.5,72.5 Z"/></g>
<g><path style="opacity:0.941" fill="#330d22" d="M 114.5,66.5 C 114.423,70.2148 114.756,73.8815 115.5,77.5C 114.833,76.8333 114.167,76.1667 113.5,75.5C 112.692,72.5498 111.358,69.8831 109.5,67.5C 109.5,67.1667 109.5,66.8333 109.5,66.5C 114.226,67.6011 114.56,66.7678 110.5,64C 112.945,63.0902 114.278,63.9236 114.5,66.5 Z"/></g>
<g><path style="opacity:1" fill="#482f4a" d="M 161.5,70.5 C 162.919,71.4511 164.585,71.7845 166.5,71.5C 166.771,73.3797 166.104,74.713 164.5,75.5C 163.833,75.5 163.167,75.5 162.5,75.5C 161.152,74.3994 159.652,73.3994 158,72.5C 157.517,71.552 157.351,70.552 157.5,69.5C 158.959,69.4326 160.292,69.7659 161.5,70.5 Z"/></g>
<g><path style="opacity:0.957" fill="#910a3b" d="M 56.5,74.5 C 57.5,74.5 58.5,74.5 59.5,74.5C 61.1172,75.038 62.7839,75.3713 64.5,75.5C 65.6431,75.9081 66.6431,76.5748 67.5,77.5C 64.2121,78.4453 60.8788,79.112 57.5,79.5C 51.8236,79.3339 46.1569,79.5006 40.5,80C 42.5951,80.5556 42.7618,81.0556 41,81.5C 39.4411,80.9706 37.9411,80.304 36.5,79.5C 35.8933,79.6236 35.56,79.9569 35.5,80.5C 34.7109,80.2172 34.0442,79.7172 33.5,79C 42.8001,77.2881 52.1334,76.6214 61.5,77C 59.8251,76.0147 58.1585,75.1814 56.5,74.5 Z"/></g>
<g><path style="opacity:1" fill="#474f6b" d="M 155.5,76.5 C 156.449,77.1524 157.615,77.4857 159,77.5C 160.681,77.3917 161.848,76.7251 162.5,75.5C 163.167,75.5 163.833,75.5 164.5,75.5C 164.67,76.8221 164.337,77.9887 163.5,79C 164.094,79.4643 164.761,79.631 165.5,79.5C 164.167,81.8333 162.833,84.1667 161.5,86.5C 160.603,85.4019 159.77,85.4019 159,86.5C 158.683,84.6992 158.016,84.3659 157,85.5C 156.355,84.354 155.522,83.354 154.5,82.5C 157.447,81.6786 160.447,81.1786 163.5,81C 158.396,79.6128 153.396,77.9462 148.5,76C 150.885,75.4436 153.218,75.6103 155.5,76.5 Z"/></g>
<g><path style="opacity:0.945" fill="#8c9aa0" d="M 166.5,69.5 C 167.638,72.3035 167.805,75.3035 167,78.5C 166.617,79.056 166.117,79.3893 165.5,79.5C 164.761,79.631 164.094,79.4643 163.5,79C 164.337,77.9887 164.67,76.8221 164.5,75.5C 166.104,74.713 166.771,73.3797 166.5,71.5C 164.585,71.7845 162.919,71.4511 161.5,70.5C 163.415,70.7845 165.081,70.4511 166.5,69.5 Z"/></g>
<g><path style="opacity:0.957" fill="#430a29" d="M 35.5,80.5 C 35.56,79.9569 35.8933,79.6236 36.5,79.5C 37.9411,80.304 39.4411,80.9706 41,81.5C 42.7618,81.0556 42.5951,80.5556 40.5,80C 46.1569,79.5006 51.8236,79.3339 57.5,79.5C 53.3528,80.3247 49.0195,80.8247 44.5,81C 44.8333,81.3333 45.1667,81.6667 45.5,82C 43.9419,82.21 42.6085,82.71 41.5,83.5C 39.5168,82.5294 37.5168,81.5294 35.5,80.5 Z"/></g>
<g><path style="opacity:1" fill="#62749b" d="M 130.5,78.5 C 131.11,79.391 131.443,80.391 131.5,81.5C 133.034,85.5874 134.868,89.5874 137,93.5C 137.333,93.1667 137.667,92.8333 138,92.5C 138.167,93.3333 138.333,94.1667 138.5,95C 138.316,96.3756 137.649,97.2089 136.5,97.5C 135.395,96.3995 134.062,95.7329 132.5,95.5C 131.469,94.7515 130.302,94.0848 129,93.5C 128.809,91.2922 128.309,89.2922 127.5,87.5C 128.072,86.0267 128.905,84.6934 130,83.5C 129.904,81.6194 130.071,79.9527 130.5,78.5 Z"/></g>
<g><path style="opacity:1" fill="#09254f" d="M 74.5,80.5 C 76.433,80.7286 78.0997,81.5619 79.5,83C 75.9729,83.1446 72.6396,83.9779 69.5,85.5C 68.8933,85.3764 68.56,85.0431 68.5,84.5C 70.2228,82.7819 72.2228,81.4486 74.5,80.5 Z"/></g>
<g><path style="opacity:1" fill="#086496" d="M 92.5,72.5 C 94.5,73.1667 96.5,73.8333 98.5,74.5C 91.8931,73.6398 86.5597,75.8065 82.5,81C 82.6667,81.5 82.8333,82 83,82.5C 86.951,84.5318 91.1177,86.0318 95.5,87C 94.8333,87.3333 94.1667,87.6667 93.5,88C 97.5,88.3333 101.5,88.6667 105.5,89C 106.566,90.159 106.233,90.9924 104.5,91.5C 104.082,90.7784 103.416,90.2784 102.5,90C 98.8484,89.5014 95.1817,89.3347 91.5,89.5C 89.1432,89.3367 86.8098,89.5034 84.5,90C 86.7753,92.3178 86.1087,93.8178 82.5,94.5C 83.9681,92.3891 83.6348,90.5557 81.5,89C 77.7446,88.2446 74.0779,88.4113 70.5,89.5C 69.6522,88.375 68.6522,88.375 67.5,89.5C 68.4054,88.0357 68.4054,86.7024 67.5,85.5C 67.5,84.8333 67.8333,84.5 68.5,84.5C 68.56,85.0431 68.8933,85.3764 69.5,85.5C 72.6396,83.9779 75.9729,83.1446 79.5,83C 78.0997,81.5619 76.433,80.7286 74.5,80.5C 76.2303,79.0882 77.7303,79.4215 79,81.5C 81.5,79 84,76.5 86.5,74C 88.3453,72.872 90.3453,72.372 92.5,72.5 Z"/></g>
<g><path style="opacity:1" fill="#7b93b9" d="M 130.5,75.5 C 130.5,76.5 130.5,77.5 130.5,78.5C 130.071,79.9527 129.904,81.6194 130,83.5C 128.905,84.6934 128.072,86.0267 127.5,87.5C 127.649,88.552 127.483,89.552 127,90.5C 126.333,89.1667 125.667,87.8333 125,86.5C 124.683,88.3008 124.016,88.6341 123,87.5C 121.174,83.5743 120.674,79.5743 121.5,75.5C 121.154,74.3044 120.654,74.3044 120,75.5C 119.297,73.0709 119.463,70.7375 120.5,68.5C 122.575,68.3016 124.575,68.1349 126.5,68C 123.591,71.6819 124.924,74.1819 130.5,75.5 Z"/></g>
<g><path style="opacity:1" fill="#3f496c" d="M 132.5,71.5 C 133.75,71.5774 134.583,72.244 135,73.5C 135.333,73.1667 135.667,72.8333 136,72.5C 136.492,73.549 136.326,74.549 135.5,75.5C 135.846,76.6956 136.346,76.6956 137,75.5C 137.333,77.1667 137.667,78.8333 138,80.5C 138.419,79.3279 139.085,78.3279 140,77.5C 140.317,79.3008 140.984,79.6341 142,78.5C 141.71,81.4135 141.543,84.4135 141.5,87.5C 140.883,87.6107 140.383,87.944 140,88.5C 139.667,86.5 139.333,84.5 139,82.5C 138.667,83.5 138.333,84.5 138,85.5C 135.734,81.5778 133.901,76.9111 132.5,71.5 Z"/></g>
<g><path style="opacity:0.973" fill="#6a0d37" d="M 118.5,67.5 C 118.777,72.2332 118.443,76.8999 117.5,81.5C 118.48,82.9814 119.647,84.3147 121,85.5C 121.346,87.2182 121.846,88.8849 122.5,90.5C 122.376,91.1067 122.043,91.44 121.5,91.5C 120.205,90.5116 118.872,89.5116 117.5,88.5C 114.527,86.1938 111.86,83.5272 109.5,80.5C 109.435,80.0618 109.601,79.7284 110,79.5C 111.019,80.6872 112.186,81.6872 113.5,82.5C 114.773,81.7435 114.773,81.0768 113.5,80.5C 112.833,78.5 112.167,76.5 111.5,74.5C 112.167,74.8333 112.833,75.1667 113.5,75.5C 114.167,76.1667 114.833,76.8333 115.5,77.5C 116.117,77.6107 116.617,77.944 117,78.5C 117.177,74.6437 117.677,70.977 118.5,67.5 Z"/></g>
<g><path style="opacity:1" fill="#8ea79c" d="M 66.5,85.5 C 65.8707,87.9971 64.204,89.3304 61.5,89.5C 62.9448,87.9373 64.6115,86.604 66.5,85.5 Z"/></g>
<g><path style="opacity:0.247" fill="#78595c" d="M 30.5,86.5 C 35.4694,92.3127 41.4694,96.646 48.5,99.5C 47.9175,103.713 46.9175,107.713 45.5,111.5C 46.2932,107.787 46.2932,104.12 45.5,100.5C 39.1752,97.1727 34.1752,92.506 30.5,86.5 Z"/></g>
<g><path style="opacity:1" fill="#cbd0d2" d="M 156.5,94.5 C 156.5,94.8333 156.5,95.1667 156.5,95.5C 155.603,94.4019 154.77,94.4019 154,95.5C 153.667,94.5 153.333,93.5 153,92.5C 152.243,94.3146 151.41,95.9812 150.5,97.5C 150.5,95.1667 150.5,92.8333 150.5,90.5C 149.565,87.8872 149.398,85.2205 150,82.5C 151.335,84.6048 153.002,85.2714 155,84.5C 155.455,87.8536 155.955,91.1869 156.5,94.5 Z"/></g>
<g><path style="opacity:0.965" fill="#940d48" d="M 45.5,85.5 C 46.391,86.1098 47.391,86.4431 48.5,86.5C 50.948,88.2452 53.2813,90.2452 55.5,92.5C 54.205,93.4884 52.8717,94.4884 51.5,95.5C 50.2627,93.9032 48.596,92.7365 46.5,92C 47.5,91.6667 48.5,91.3333 49.5,91C 47.5,89.6667 45.5,88.3333 43.5,87C 44.4158,86.7216 45.0825,86.2216 45.5,85.5 Z"/></g>
<g><path style="opacity:1" fill="#019fc0" d="M 82.5,94.5 C 81.8333,94.8333 81.1667,95.1667 80.5,95.5C 76.1186,95.6282 71.7853,95.2949 67.5,94.5C 67.2729,92.0672 68.2729,90.4006 70.5,89.5C 74.0779,88.4113 77.7446,88.2446 81.5,89C 83.6348,90.5557 83.9681,92.3891 82.5,94.5 Z"/></g>
<g><path style="opacity:1" fill="#133a6c" d="M 112.5,87.5 C 114.117,88.038 115.784,88.3713 117.5,88.5C 118.872,89.5116 120.205,90.5116 121.5,91.5C 121.5,91.8333 121.5,92.1667 121.5,92.5C 118.008,91.5903 115.008,89.9236 112.5,87.5 Z"/></g>
<g><path style="opacity:0.965" fill="#5b123e" d="M 48.5,86.5 C 52.3481,86.8734 55.3481,88.5401 57.5,91.5C 57.5,91.8333 57.5,92.1667 57.5,92.5C 56.8333,92.5 56.1667,92.5 55.5,92.5C 53.2813,90.2452 50.948,88.2452 48.5,86.5 Z"/></g>
<g><path style="opacity:1" fill="#211f3a" d="M 116.5,63.5 C 117.833,63.8333 119.167,64.1667 120.5,64.5C 119.646,66.035 119.646,67.3684 120.5,68.5C 119.463,70.7375 119.297,73.0709 120,75.5C 120.654,74.3044 121.154,74.3044 121.5,75.5C 120.674,79.5743 121.174,83.5743 123,87.5C 124.016,88.6341 124.683,88.3008 125,86.5C 125.667,87.8333 126.333,89.1667 127,90.5C 127.483,89.552 127.649,88.552 127.5,87.5C 128.309,89.2922 128.809,91.2922 129,93.5C 130.302,94.0848 131.469,94.7515 132.5,95.5C 128.5,95.5 124.5,95.5 120.5,95.5C 121.263,94.7321 122.263,94.2321 123.5,94C 122.584,93.7216 121.918,93.2216 121.5,92.5C 121.5,92.1667 121.5,91.8333 121.5,91.5C 122.043,91.44 122.376,91.1067 122.5,90.5C 121.846,88.8849 121.346,87.2182 121,85.5C 119.647,84.3147 118.48,82.9814 117.5,81.5C 118.443,76.8999 118.777,72.2332 118.5,67.5C 118.218,66.2223 117.551,65.2223 116.5,64.5C 116.5,64.1667 116.5,63.8333 116.5,63.5 Z"/></g>
<g><path style="opacity:1" fill="#0c091d" d="M 91.5,89.5 C 94.3054,90.3195 97.3054,90.8195 100.5,91C 95.2162,93.0662 93.2162,96.8995 94.5,102.5C 95.0646,108.963 97.7312,114.296 102.5,118.5C 103.151,119.091 103.818,119.757 104.5,120.5C 105.107,120.376 105.44,120.043 105.5,119.5C 106.892,124.745 110.059,128.745 115,131.5C 115.464,132.094 115.631,132.761 115.5,133.5C 113.365,133.147 112.032,133.98 111.5,136C 112.862,138.517 114.862,140.35 117.5,141.5C 119.41,142.684 119.743,144.184 118.5,146C 119.448,146.483 120.448,146.649 121.5,146.5C 119.409,148.457 117.409,150.623 115.5,153C 114.552,153.483 113.552,153.649 112.5,153.5C 97.75,154.876 87.25,148.876 81,135.5C 80.3985,132.779 80.5651,130.113 81.5,127.5C 84.7348,126.405 86.5682,124.072 87,120.5C 87.0989,113.485 86.5989,106.485 85.5,99.5C 84.5059,104.456 84.1725,109.456 84.5,114.5C 82.9008,113.438 81.2341,113.438 79.5,114.5C 76.3586,113.679 73.0252,113.179 69.5,113C 71.8333,112.667 74.1667,112.333 76.5,112C 75.062,111.781 73.7287,111.281 72.5,110.5C 74.2361,106.56 72.9028,104.893 68.5,105.5C 69.2341,104.292 69.5674,102.959 69.5,101.5C 68.407,103.349 67.0737,105.016 65.5,106.5C 65.5,105.5 65.5,104.5 65.5,103.5C 65.5,101.5 65.5,99.5 65.5,97.5C 70.2317,98.9155 74.8984,98.7488 79.5,97C 80.056,96.6174 80.3893,96.1174 80.5,95.5C 81.1667,95.1667 81.8333,94.8333 82.5,94.5C 86.1087,93.8178 86.7753,92.3178 84.5,90C 86.8098,89.5034 89.1432,89.3367 91.5,89.5 Z"/></g>
<g><path style="opacity:1" fill="#00a2c1" d="M 98.5,74.5 C 103.591,76.3375 105.924,80.0041 105.5,85.5C 108.079,85.3939 110.412,86.0605 112.5,87.5C 115.008,89.9236 118.008,91.5903 121.5,92.5C 121.918,93.2216 122.584,93.7216 123.5,94C 122.263,94.2321 121.263,94.7321 120.5,95.5C 112.509,97.4906 107.509,102.491 105.5,110.5C 104.71,111.609 104.21,112.942 104,114.5C 97.989,109.222 95.8223,102.722 97.5,95C 99.8599,93.8201 102.193,92.6534 104.5,91.5C 106.233,90.9924 106.566,90.159 105.5,89C 101.5,88.6667 97.5,88.3333 93.5,88C 94.1667,87.6667 94.8333,87.3333 95.5,87C 91.1177,86.0318 86.951,84.5318 83,82.5C 82.8333,82 82.6667,81.5 82.5,81C 86.5597,75.8065 91.8931,73.6398 98.5,74.5 Z"/></g>
<g><path style="opacity:0.992" fill="#acbac9" d="M 148.5,92.5 C 148.66,94.1992 148.494,95.8659 148,97.5C 147.768,96.2625 147.268,95.2625 146.5,94.5C 146.5,94.1667 146.5,93.8333 146.5,93.5C 145.937,90.5343 144.937,87.7009 143.5,85C 143.509,83.5962 144.009,82.4296 145,81.5C 145.959,85.3404 147.125,89.0071 148.5,92.5 Z"/></g>
<g><path style="opacity:1" fill="#207ca3" d="M 66.5,85.5 C 66.8333,85.5 67.1667,85.5 67.5,85.5C 68.4054,86.7024 68.4054,88.0357 67.5,89.5C 65.6614,90.5819 63.6614,91.4153 61.5,92C 64.5257,94.2976 65.1924,97.1309 63.5,100.5C 63.1667,100.5 62.8333,100.5 62.5,100.5C 61.3406,98.7497 59.674,97.7497 57.5,97.5C 57.2965,95.6096 57.9632,94.1096 59.5,93C 58.9056,92.5357 58.2389,92.369 57.5,92.5C 57.5,92.1667 57.5,91.8333 57.5,91.5C 58.6049,90.3995 59.9382,89.7329 61.5,89.5C 64.204,89.3304 65.8707,87.9971 66.5,85.5 Z"/></g>
<g><path style="opacity:0.992" fill="#431f33" d="M 159.5,92.5 C 159.167,93.5 158.5,94.1667 157.5,94.5C 157.461,93.2438 157.961,92.2438 159,91.5C 159.399,91.7284 159.565,92.0618 159.5,92.5 Z"/></g>
<g><path style="opacity:0.973" fill="#a1645f" d="M 159.5,92.5 C 159.833,92.5 160.167,92.5 160.5,92.5C 162.461,94.32 162.794,96.32 161.5,98.5C 161.62,95.7952 160.62,95.1285 158.5,96.5C 157.702,96.0431 157.369,95.3764 157.5,94.5C 158.5,94.1667 159.167,93.5 159.5,92.5 Z"/></g>
<g><path style="opacity:0.988" fill="#18284e" d="M 57.5,92.5 C 58.2389,92.369 58.9056,92.5357 59.5,93C 57.9632,94.1096 57.2965,95.6096 57.5,97.5C 56.8333,97.5 56.1667,97.5 55.5,97.5C 54.448,97.6495 53.448,97.4828 52.5,97C 54.6175,95.9509 56.2842,94.4509 57.5,92.5 Z"/></g>
<g><path style="opacity:0.21" fill="#54819d" d="M 2.5,91.5 C 3.55198,91.3505 4.55198,91.5172 5.5,92C 4.24751,94.6327 2.91417,97.1327 1.5,99.5C 1.1936,96.6146 1.52693,93.9479 2.5,91.5 Z"/></g>
<g><path style="opacity:0.738" fill="#5f809b" d="M 9.5,91.5 C 15.962,92.3913 20.6286,95.7246 23.5,101.5C 23.6567,102.873 23.49,104.207 23,105.5C 22.3292,104.748 21.4959,104.414 20.5,104.5C 16.244,102.095 11.5773,100.595 6.5,100C 6.16667,99.6667 5.83333,99.3333 5.5,99C 6.44802,98.5172 7.44802,98.3505 8.5,98.5C 8.5,97.5 8.5,96.5 8.5,95.5C 7.44802,95.6495 6.44802,95.4828 5.5,95C 6.33663,93.9887 6.66997,92.8221 6.5,91.5C 7.5,91.5 8.5,91.5 9.5,91.5 Z"/></g>
<g><path style="opacity:1" fill="#010506" d="M 120.5,95.5 C 124.5,95.5 128.5,95.5 132.5,95.5C 134.062,95.7329 135.395,96.3995 136.5,97.5C 139.432,98.7997 141.766,100.8 143.5,103.5C 146.667,109.832 147.333,116.499 145.5,123.5C 143.529,125.808 141.529,128.142 139.5,130.5C 137.95,131.441 136.284,132.107 134.5,132.5C 132.153,134.044 129.486,134.711 126.5,134.5C 122.82,134.221 119.153,133.888 115.5,133.5C 115.631,132.761 115.464,132.094 115,131.5C 110.059,128.745 106.892,124.745 105.5,119.5C 105.5,116.5 105.5,113.5 105.5,110.5C 107.509,102.491 112.509,97.4906 120.5,95.5 Z"/></g>
<g><path style="opacity:1" fill="#0a3f73" d="M 70.5,89.5 C 68.2729,90.4006 67.2729,92.0672 67.5,94.5C 71.7853,95.2949 76.1186,95.6282 80.5,95.5C 80.3893,96.1174 80.056,96.6174 79.5,97C 74.8984,98.7488 70.2317,98.9155 65.5,97.5C 65.5,99.5 65.5,101.5 65.5,103.5C 65.1667,103.5 64.8333,103.5 64.5,103.5C 63.8902,102.609 63.5569,101.609 63.5,100.5C 65.1924,97.1309 64.5257,94.2976 61.5,92C 63.6614,91.4153 65.6614,90.5819 67.5,89.5C 68.6522,88.375 69.6522,88.375 70.5,89.5 Z"/></g>
<g><path style="opacity:1" fill="#171327" d="M 132.5,70.5 C 132.5,70.8333 132.5,71.1667 132.5,71.5C 133.901,76.9111 135.734,81.5778 138,85.5C 138.333,84.5 138.667,83.5 139,82.5C 139.333,84.5 139.667,86.5 140,88.5C 140.383,87.944 140.883,87.6107 141.5,87.5C 141.523,89.9267 142.023,92.26 143,94.5C 143.333,93.8333 143.667,93.1667 144,92.5C 144.671,93.2524 145.504,93.5858 146.5,93.5C 146.5,93.8333 146.5,94.1667 146.5,94.5C 146.279,95.7348 145.612,96.7348 144.5,97.5C 145,98.5 145.5,99.5 146,100.5C 146.77,99.4019 147.603,99.4019 148.5,100.5C 148.369,101.239 148.536,101.906 149,102.5C 150.333,101.167 151.667,99.8333 153,98.5C 153.399,98.7284 153.565,99.0618 153.5,99.5C 155.309,100.291 157.309,100.291 159.5,99.5C 160.6,100.605 161.267,101.938 161.5,103.5C 160.406,102.418 159.073,101.752 157.5,101.5C 157.053,102.757 155.719,103.757 153.5,104.5C 151.357,103.246 149.357,103.246 147.5,104.5C 146.292,103.766 144.959,103.433 143.5,103.5C 141.766,100.8 139.432,98.7997 136.5,97.5C 137.649,97.2089 138.316,96.3756 138.5,95C 138.333,94.1667 138.167,93.3333 138,92.5C 137.667,92.8333 137.333,93.1667 137,93.5C 134.868,89.5874 133.034,85.5874 131.5,81.5C 132.097,81.2648 132.43,80.7648 132.5,80C 131.833,77.3333 131.167,74.6667 130.5,72C 130.802,70.1202 131.469,69.6202 132.5,70.5 Z"/></g>
<g><path style="opacity:1" fill="#3c405c" d="M 150.5,90.5 C 150.5,92.8333 150.5,95.1667 150.5,97.5C 149.833,98.5 149.167,99.5 148.5,100.5C 147.603,99.4019 146.77,99.4019 146,100.5C 145.5,99.5 145,98.5 144.5,97.5C 145.612,96.7348 146.279,95.7348 146.5,94.5C 147.268,95.2625 147.768,96.2625 148,97.5C 148.494,95.8659 148.66,94.1992 148.5,92.5C 148.5,91.1667 149.167,90.5 150.5,90.5 Z"/></g>
<g><path style="opacity:0.996" fill="#766c67" d="M 156.5,95.5 C 155.974,97.2303 154.974,98.5637 153.5,99.5C 153.565,99.0618 153.399,98.7284 153,98.5C 151.667,99.8333 150.333,101.167 149,102.5C 148.536,101.906 148.369,101.239 148.5,100.5C 149.167,99.5 149.833,98.5 150.5,97.5C 151.41,95.9812 152.243,94.3146 153,92.5C 153.333,93.5 153.667,94.5 154,95.5C 154.77,94.4019 155.603,94.4019 156.5,95.5 Z"/></g>
<g><path style="opacity:0.831" fill="#79745e" d="M 69.5,101.5 C 76.2361,100.422 82.5694,98.2549 88.5,95C 83.2655,100.245 76.9322,102.412 69.5,101.5 Z"/></g>
<g><path style="opacity:1" fill="#591026" d="M 156.5,94.5 C 156.833,94.5 157.167,94.5 157.5,94.5C 157.369,95.3764 157.702,96.0431 158.5,96.5C 160.62,95.1285 161.62,95.7952 161.5,98.5C 160.833,98.8333 160.167,99.1667 159.5,99.5C 157.309,100.291 155.309,100.291 153.5,99.5C 154.974,98.5637 155.974,97.2303 156.5,95.5C 156.5,95.1667 156.5,94.8333 156.5,94.5 Z"/></g>
<g><path style="opacity:0.937" fill="#796758" d="M 69.5,101.5 C 69.5674,102.959 69.2341,104.292 68.5,105.5C 67.4884,106.872 66.4884,108.205 65.5,109.5C 65.5,108.833 65.1667,108.5 64.5,108.5C 64.8333,107.833 65.1667,107.167 65.5,106.5C 67.0737,105.016 68.407,103.349 69.5,101.5 Z"/></g>
<g><path style="opacity:1" fill="#00eccd" d="M 112.5,117.5 C 112.5,116.5 112.5,115.5 112.5,114.5C 116.949,114.836 120.616,114.503 123.5,113.5C 122.099,110.366 120.432,107.366 118.5,104.5C 119.328,103.585 120.328,102.919 121.5,102.5C 123.992,105.163 126.326,107.996 128.5,111C 131.757,112.043 135.09,112.543 138.5,112.5C 138.5,113.833 138.5,115.167 138.5,116.5C 134.818,116.335 131.152,116.501 127.5,117C 129.041,119.916 130.707,122.749 132.5,125.5C 132.113,126.72 131.28,127.387 130,127.5C 127.532,125.358 125.365,122.858 123.5,120C 119.779,119.319 116.113,118.486 112.5,117.5 Z"/></g>
<g><path style="opacity:1" fill="#0a4d7e" d="M 161.5,103.5 C 162.674,104.514 163.34,105.847 163.5,107.5C 159.939,103.623 156.272,103.623 152.5,107.5C 151.06,106.048 149.394,105.048 147.5,104.5C 149.357,103.246 151.357,103.246 153.5,104.5C 155.719,103.757 157.053,102.757 157.5,101.5C 159.073,101.752 160.406,102.418 161.5,103.5 Z"/></g>
<g><path style="opacity:0.808" fill="#464a6c" d="M 2.5,91.5 C 4.83333,90.1667 7.16667,90.1667 9.5,91.5C 8.5,91.5 7.5,91.5 6.5,91.5C 6.66997,92.8221 6.33663,93.9887 5.5,95C 6.44802,95.4828 7.44802,95.6495 8.5,95.5C 8.5,96.5 8.5,97.5 8.5,98.5C 7.44802,98.3505 6.44802,98.5172 5.5,99C 5.83333,99.3333 6.16667,99.6667 6.5,100C 11.5773,100.595 16.244,102.095 20.5,104.5C 19.7611,104.369 19.0944,104.536 18.5,105C 19.5707,105.852 20.5707,106.685 21.5,107.5C 19.8762,107.36 18.7096,108.027 18,109.5C 17.51,108.207 17.3433,106.873 17.5,105.5C 15.9397,105.481 14.4397,105.148 13,104.5C 10.4671,105.55 8.30044,106.883 6.5,108.5C 5.24635,106.643 5.24635,104.643 6.5,102.5C 4.95467,101.548 3.28801,101.215 1.5,101.5C 1.5,100.833 1.5,100.167 1.5,99.5C 2.91417,97.1327 4.24751,94.6327 5.5,92C 4.55198,91.5172 3.55198,91.3505 2.5,91.5 Z"/></g>
<g><path style="opacity:0.999" fill="#0398b7" d="M 143.5,103.5 C 144.959,103.433 146.292,103.766 147.5,104.5C 149.394,105.048 151.06,106.048 152.5,107.5C 156.272,103.623 159.939,103.623 163.5,107.5C 165.127,112.434 164.794,117.101 162.5,121.5C 161.761,121.631 161.094,121.464 160.5,121C 159.601,119.348 158.601,117.848 157.5,116.5C 155.668,115.282 154.668,115.949 154.5,118.5C 152.135,120.86 149.468,122.86 146.5,124.5C 145.893,124.376 145.56,124.043 145.5,123.5C 147.333,116.499 146.667,109.832 143.5,103.5 Z"/></g>
<g><path style="opacity:0.706" fill="#70646d" d="M 23.5,101.5 C 24.716,105.349 26.3827,109.016 28.5,112.5C 27.8826,112.389 27.3826,112.056 27,111.5C 26.4888,113.878 25.8221,116.212 25,118.5C 24.6174,117.944 24.1174,117.611 23.5,117.5C 25.1948,113.664 24.5281,110.33 21.5,107.5C 20.5707,106.685 19.5707,105.852 18.5,105C 19.0944,104.536 19.7611,104.369 20.5,104.5C 21.4959,104.414 22.3292,104.748 23,105.5C 23.49,104.207 23.6567,102.873 23.5,101.5 Z"/></g>
<g><path style="opacity:0.969" fill="#797c75" d="M 94.5,102.5 C 96.62,108.073 99.2867,113.407 102.5,118.5C 97.7312,114.296 95.0646,108.963 94.5,102.5 Z"/></g>
<g><path style="opacity:0.992" fill="#5a6693" d="M 50.5,97.5 C 51.264,103.585 50.264,109.585 47.5,115.5C 48.2692,118.115 48.6025,120.781 48.5,123.5C 47.5655,124.568 47.2322,125.901 47.5,127.5C 46.1071,125.489 45.4404,123.155 45.5,120.5C 46.5948,114.287 47.9281,108.12 49.5,102C 49.472,100.93 49.1386,100.097 48.5,99.5C 48.8333,98.5 49.5,97.8333 50.5,97.5 Z"/></g>
<g><path style="opacity:0.98" fill="#829ec0" d="M 62.5,100.5 C 62.8333,100.5 63.1667,100.5 63.5,100.5C 63.5569,101.609 63.8902,102.609 64.5,103.5C 64.6495,104.552 64.4828,105.552 64,106.5C 59.9482,109.085 56.7816,112.418 54.5,116.5C 53.4265,115.749 53.2599,114.749 54,113.5C 57.0822,109.266 59.9155,104.933 62.5,100.5 Z"/></g>
<g><path style="opacity:0.784" fill="#55758f" d="M 21.5,107.5 C 24.5281,110.33 25.1948,113.664 23.5,117.5C 18.894,114.123 13.7273,111.789 8,110.5C 6.97008,110.164 6.47008,109.497 6.5,108.5C 8.30044,106.883 10.4671,105.55 13,104.5C 14.4397,105.148 15.9397,105.481 17.5,105.5C 17.3433,106.873 17.51,108.207 18,109.5C 18.7096,108.027 19.8762,107.36 21.5,107.5 Z"/></g>
<g><path style="opacity:1" fill="#0f4e80" d="M 91.5,89.5 C 95.1817,89.3347 98.8484,89.5014 102.5,90C 103.416,90.2784 104.082,90.7784 104.5,91.5C 102.193,92.6534 99.8599,93.8201 97.5,95C 95.8223,102.722 97.989,109.222 104,114.5C 104.21,112.942 104.71,111.609 105.5,110.5C 105.5,113.5 105.5,116.5 105.5,119.5C 105.44,120.043 105.107,120.376 104.5,120.5C 103.818,119.757 103.151,119.091 102.5,118.5C 99.2867,113.407 96.62,108.073 94.5,102.5C 93.2162,96.8995 95.2162,93.0662 100.5,91C 97.3054,90.8195 94.3054,90.3195 91.5,89.5 Z"/></g>
<g><path style="opacity:0.973" fill="#bab695" d="M 64.5,108.5 C 65.1667,108.5 65.5,108.833 65.5,109.5C 64.1394,111.527 62.4727,113.194 60.5,114.5C 59.2334,115.087 58.2334,115.087 57.5,114.5C 59.878,112.448 62.2113,110.448 64.5,108.5 Z"/></g>
<g><path style="opacity:0.975" fill="#ccd2d6" d="M 55.5,97.5 C 56.1667,97.5 56.8333,97.5 57.5,97.5C 59.674,97.7497 61.3406,98.7497 62.5,100.5C 59.9155,104.933 57.0822,109.266 54,113.5C 53.2599,114.749 53.4265,115.749 54.5,116.5C 58.0423,117.039 60.3756,119.039 61.5,122.5C 59.0508,123.91 56.8841,123.576 55,121.5C 53.8118,122.563 53.3118,123.897 53.5,125.5C 55.5273,125.338 57.5273,125.505 59.5,126C 60.2524,126.671 60.5858,127.504 60.5,128.5C 57.2234,128.784 54.0567,128.451 51,127.5C 50.3333,122.5 50.3333,117.5 51,112.5C 53.1072,107.636 54.6072,102.636 55.5,97.5 Z"/></g>
<g><path style="opacity:1" fill="#015f52" d="M 123.5,113.5 C 120.616,114.503 116.949,114.836 112.5,114.5C 112.5,115.5 112.5,116.5 112.5,117.5C 111.566,116.432 111.232,115.099 111.5,113.5C 115.5,113.5 119.5,113.5 123.5,113.5 Z"/></g>
<g><path style="opacity:0.98" fill="#7d9ebf" d="M 55.5,92.5 C 56.1667,92.5 56.8333,92.5 57.5,92.5C 56.2842,94.4509 54.6175,95.9509 52.5,97C 53.448,97.4828 54.448,97.6495 55.5,97.5C 54.6072,102.636 53.1072,107.636 51,112.5C 50.3333,117.5 50.3333,122.5 51,127.5C 54.0567,128.451 57.2234,128.784 60.5,128.5C 60.5,128.833 60.5,129.167 60.5,129.5C 59.9032,130.139 59.0698,130.472 58,130.5C 55.1764,129.946 52.343,129.446 49.5,129C 48.5939,127.301 48.2606,125.467 48.5,123.5C 48.6025,120.781 48.2692,118.115 47.5,115.5C 50.264,109.585 51.264,103.585 50.5,97.5C 50.8333,96.8333 51.1667,96.1667 51.5,95.5C 52.8717,94.4884 54.205,93.4884 55.5,92.5 Z"/></g>
<g><path style="opacity:0.573" fill="#431c44" d="M 68.5,105.5 C 72.9028,104.893 74.2361,106.56 72.5,110.5C 73.7287,111.281 75.062,111.781 76.5,112C 74.1667,112.333 71.8333,112.667 69.5,113C 73.0252,113.179 76.3586,113.679 79.5,114.5C 73.1845,115.352 66.8512,115.352 60.5,114.5C 62.4727,113.194 64.1394,111.527 65.5,109.5C 66.4884,108.205 67.4884,106.872 68.5,105.5 Z"/></g>
<g><path style="opacity:0.543" fill="#557e7d" d="M 161.5,98.5 C 167.532,106.274 168.532,114.608 164.5,123.5C 165.946,125.618 166.613,127.951 166.5,130.5C 164.983,127.965 163.65,125.298 162.5,122.5C 162.5,122.167 162.5,121.833 162.5,121.5C 164.794,117.101 165.127,112.434 163.5,107.5C 163.34,105.847 162.674,104.514 161.5,103.5C 161.267,101.938 160.6,100.605 159.5,99.5C 160.167,99.1667 160.833,98.8333 161.5,98.5 Z"/></g>
<g><path style="opacity:0.847" fill="#16122c" d="M 1.5,115.5 C 3.91146,115.137 5.41146,116.137 6,118.5C 6.41395,118.043 6.91395,117.709 7.5,117.5C 8.91223,118.806 10.5789,119.64 12.5,120C 13.5536,121.388 13.7203,122.888 13,124.5C 11.0861,119.847 8.7528,119.514 6,123.5C 5.6892,125.556 5.1892,127.556 4.5,129.5C 3.67504,130.386 2.67504,130.719 1.5,130.5C 1.5,125.5 1.5,120.5 1.5,115.5 Z"/></g>
<g><path style="opacity:0.745" fill="#73766c" d="M 81.5,127.5 C 79.5,129.167 77.5,130.833 75.5,132.5C 75.5,131.833 75.5,131.167 75.5,130.5C 78.0214,128.299 80.5214,125.966 83,123.5C 84.2886,120.649 84.7886,117.649 84.5,114.5C 84.1725,109.456 84.5059,104.456 85.5,99.5C 86.5989,106.485 87.0989,113.485 87,120.5C 86.5682,124.072 84.7348,126.405 81.5,127.5 Z"/></g>
<g><path style="opacity:0.906" fill="#75737a" d="M 48.5,99.5 C 49.1386,100.097 49.472,100.93 49.5,102C 47.9281,108.12 46.5948,114.287 45.5,120.5C 45.4404,123.155 46.1071,125.489 47.5,127.5C 47.5,129.5 47.5,131.5 47.5,133.5C 43.3619,126.413 42.6952,119.079 45.5,111.5C 46.9175,107.713 47.9175,103.713 48.5,99.5 Z"/></g>
<g><path style="opacity:0.757" fill="#5c6a82" d="M 64.5,103.5 C 64.8333,103.5 65.1667,103.5 65.5,103.5C 65.5,104.5 65.5,105.5 65.5,106.5C 65.1667,107.167 64.8333,107.833 64.5,108.5C 62.2113,110.448 59.878,112.448 57.5,114.5C 58.2334,115.087 59.2334,115.087 60.5,114.5C 59.5622,118.278 61.0622,120.944 65,122.5C 65.6085,126.256 64.7752,129.59 62.5,132.5C 62.6567,131.127 62.49,129.793 62,128.5C 61.6174,129.056 61.1174,129.389 60.5,129.5C 60.5,129.167 60.5,128.833 60.5,128.5C 60.5858,127.504 60.2524,126.671 59.5,126C 57.5273,125.505 55.5273,125.338 53.5,125.5C 53.3118,123.897 53.8118,122.563 55,121.5C 56.8841,123.576 59.0508,123.91 61.5,122.5C 60.3756,119.039 58.0423,117.039 54.5,116.5C 56.7816,112.418 59.9482,109.085 64,106.5C 64.4828,105.552 64.6495,104.552 64.5,103.5 Z"/></g>
<g><path style="opacity:0.975" fill="#0a0e1e" d="M 157.5,116.5 C 157.517,118.565 157.85,120.565 158.5,122.5C 157.5,123.167 156.5,123.833 155.5,124.5C 152.464,129.873 153.13,134.873 157.5,139.5C 159.982,140.067 162.316,140.734 164.5,141.5C 161.911,141.461 159.911,142.461 158.5,144.5C 157.778,144.918 157.278,145.584 157,146.5C 156.617,145.944 156.117,145.611 155.5,145.5C 154.833,144.833 154.167,144.167 153.5,143.5C 150.642,139.78 148.308,135.78 146.5,131.5C 143.532,133.14 140.865,135.14 138.5,137.5C 137.85,137.196 137.183,136.863 136.5,136.5C 135.167,137.5 133.833,138.5 132.5,139.5C 132.511,138.559 132.011,137.892 131,137.5C 128.774,137.978 126.608,138.645 124.5,139.5C 127.647,140.853 127.647,142.853 124.5,145.5C 123.583,146.127 122.583,146.461 121.5,146.5C 122.625,144.871 123.959,143.371 125.5,142C 123.391,141.093 122.058,139.593 121.5,137.5C 119.5,136.5 117.5,135.5 115.5,134.5C 115.5,134.167 115.5,133.833 115.5,133.5C 119.153,133.888 122.82,134.221 126.5,134.5C 129.486,134.711 132.153,134.044 134.5,132.5C 135.601,133.598 136.934,133.765 138.5,133C 142.927,131.465 146.594,128.965 149.5,125.5C 151.58,123.427 153.246,121.093 154.5,118.5C 154.668,115.949 155.668,115.282 157.5,116.5 Z"/></g>
<g><path style="opacity:0.996" fill="#094574" d="M 157.5,116.5 C 158.601,117.848 159.601,119.348 160.5,121C 161.094,121.464 161.761,121.631 162.5,121.5C 162.5,121.833 162.5,122.167 162.5,122.5C 161.167,122.5 159.833,122.5 158.5,122.5C 157.85,120.565 157.517,118.565 157.5,116.5 Z"/></g>
<g><path style="opacity:0.974" fill="#1099b5" d="M 158.5,122.5 C 159.833,122.5 161.167,122.5 162.5,122.5C 163.65,125.298 164.983,127.965 166.5,130.5C 167.035,133.634 168.035,136.634 169.5,139.5C 168.391,139.557 167.391,139.89 166.5,140.5C 166.657,139.127 166.49,137.793 166,136.5C 161.659,138.51 158.325,137.51 156,133.5C 155.502,130.518 155.335,127.518 155.5,124.5C 156.5,123.833 157.5,123.167 158.5,122.5 Z"/></g>
<g><path style="opacity:0.582" fill="#282d4c" d="M 1.5,101.5 C 3.28801,101.215 4.95467,101.548 6.5,102.5C 5.24635,104.643 5.24635,106.643 6.5,108.5C 6.47008,109.497 6.97008,110.164 8,110.5C 13.7273,111.789 18.894,114.123 23.5,117.5C 24.1174,117.611 24.6174,117.944 25,118.5C 25.8221,116.212 26.4888,113.878 27,111.5C 27.3826,112.056 27.8826,112.389 28.5,112.5C 30.6748,114.488 31.3414,116.821 30.5,119.5C 26.9809,122.854 23.3142,126.02 19.5,129C 15.1203,130.178 10.7869,131.512 6.5,133C 5.62301,137.734 4.12301,142.234 2,146.5C 2.43875,143.57 2.93875,140.57 3.5,137.5C 3.31296,132.226 2.81296,132.226 2,137.5C 1.50335,135.19 1.33669,132.857 1.5,130.5C 2.67504,130.719 3.67504,130.386 4.5,129.5C 5.1892,127.556 5.6892,125.556 6,123.5C 8.7528,119.514 11.0861,119.847 13,124.5C 13.7203,122.888 13.5536,121.388 12.5,120C 10.5789,119.64 8.91223,118.806 7.5,117.5C 6.91395,117.709 6.41395,118.043 6,118.5C 5.41146,116.137 3.91146,115.137 1.5,115.5C 1.5,110.833 1.5,106.167 1.5,101.5 Z"/></g>
<g><path style="opacity:0.737" fill="#4886a2" d="M 8.5,115.5 C 15.0443,114.282 19.3776,116.949 21.5,123.5C 20.5,123.5 19.5,123.5 18.5,123.5C 18.5,122.5 18.5,121.5 18.5,120.5C 14.8988,119.366 11.5655,117.699 8.5,115.5 Z"/></g>
<g><path style="opacity:1" fill="#093f71" d="M 105.5,128.5 C 103.5,128.167 101.5,127.833 99.5,127.5C 99.3505,128.552 99.5172,129.552 100,130.5C 102.173,131.933 104.34,133.266 106.5,134.5C 103.575,134.54 100.909,133.707 98.5,132C 97.9941,129.468 96.8274,127.302 95,125.5C 94.1859,123.098 94.3526,120.765 95.5,118.5C 98.521,122.188 101.854,125.521 105.5,128.5 Z"/></g>
<g><path style="opacity:0.98" fill="#124670" d="M 154.5,118.5 C 153.246,121.093 151.58,123.427 149.5,125.5C 146.167,127.167 142.833,128.833 139.5,130.5C 141.529,128.142 143.529,125.808 145.5,123.5C 145.56,124.043 145.893,124.376 146.5,124.5C 149.468,122.86 152.135,120.86 154.5,118.5 Z"/></g>
<g><path style="opacity:1" fill="#0395b8" d="M 105.5,128.5 C 106.848,129.601 108.348,130.601 110,131.5C 110.483,132.448 110.649,133.448 110.5,134.5C 109.167,134.5 107.833,134.5 106.5,134.5C 104.34,133.266 102.173,131.933 100,130.5C 99.5172,129.552 99.3505,128.552 99.5,127.5C 101.5,127.833 103.5,128.167 105.5,128.5 Z"/></g>
<g><path style="opacity:1" fill="#0584ab" d="M 93.5,126.5 C 94.1667,127.5 94.8333,128.5 95.5,129.5C 95.719,130.675 95.3857,131.675 94.5,132.5C 92.5144,130.605 92.1811,128.605 93.5,126.5 Z"/></g>
<g><path style="opacity:1" fill="#05709a" d="M 89.5,127.5 C 90.1171,129.68 91.1171,131.68 92.5,133.5C 91.9984,134.521 91.3317,134.688 90.5,134C 89.9152,132.698 89.2485,131.531 88.5,130.5C 88.2627,129.209 88.596,128.209 89.5,127.5 Z"/></g>
<g><path style="opacity:0.6" fill="#58796f" d="M 149.5,125.5 C 146.594,128.965 142.927,131.465 138.5,133C 136.934,133.765 135.601,133.598 134.5,132.5C 136.284,132.107 137.95,131.441 139.5,130.5C 142.833,128.833 146.167,127.167 149.5,125.5 Z"/></g>
<g><path style="opacity:0.965" fill="#2d3253" d="M 48.5,123.5 C 48.2606,125.467 48.5939,127.301 49.5,129C 52.343,129.446 55.1764,129.946 58,130.5C 59.0698,130.472 59.9032,130.139 60.5,129.5C 61.1174,129.389 61.6174,129.056 62,128.5C 62.49,129.793 62.6567,131.127 62.5,132.5C 62.5,133.167 62.1667,133.5 61.5,133.5C 56.8333,133.5 52.1667,133.5 47.5,133.5C 47.5,131.5 47.5,129.5 47.5,127.5C 47.2322,125.901 47.5655,124.568 48.5,123.5 Z"/></g>
<g><path style="opacity:0.98" fill="#6289b1" d="M 48.5,131.5 C 49.2739,130.853 50.2739,130.52 51.5,130.5C 54.8262,131.047 58.1596,131.547 61.5,132C 57.0804,132.768 52.7471,132.602 48.5,131.5 Z"/></g>
<g><path style="opacity:1" fill="#0b0417" d="M 105.5,155.5 C 107.857,155.337 110.19,155.503 112.5,156C 111.695,157.113 111.028,158.279 110.5,159.5C 108.973,159.427 107.973,160.094 107.5,161.5C 106.167,161.5 105.5,162.167 105.5,163.5C 99.8182,164.15 94.1515,164.984 88.5,166C 86.7153,168.226 84.3819,169.392 81.5,169.5C 82.1717,166.657 83.505,164.157 85.5,162C 84.9558,161.283 84.2891,160.783 83.5,160.5C 83.1583,159.662 82.4916,159.328 81.5,159.5C 80.791,158.596 79.791,158.263 78.5,158.5C 79.3984,157.842 80.3984,157.176 81.5,156.5C 80.4805,154.396 79.4805,152.396 78.5,150.5C 78.2447,147.984 77.4114,145.65 76,143.5C 75.502,140.518 75.3354,137.518 75.5,134.5C 76.4584,134.047 77.2917,133.381 78,132.5C 82.7831,145.453 91.9497,153.12 105.5,155.5 Z"/></g>
<g><path style="opacity:0.541" fill="#4b5a64" d="M 47.5,133.5 C 52.1667,133.5 56.8333,133.5 61.5,133.5C 60.7505,135.246 59.4172,136.246 57.5,136.5C 53.8437,136.129 50.5104,135.129 47.5,133.5 Z"/></g>
<g><path style="opacity:1" fill="#082449" d="M 93.5,126.5 C 92.1811,128.605 92.5144,130.605 94.5,132.5C 95.3857,131.675 95.719,130.675 95.5,129.5C 96.3077,131.22 97.3077,132.887 98.5,134.5C 97.9033,134.735 97.5699,135.235 97.5,136C 99.684,139.045 102.684,140.211 106.5,139.5C 104.167,140.167 101.833,140.833 99.5,141.5C 97.5659,140.89 95.8993,139.89 94.5,138.5C 95.7879,136.965 95.7879,135.299 94.5,133.5C 93.1585,135.005 91.4918,135.672 89.5,135.5C 89.7678,137.099 89.4345,138.432 88.5,139.5C 88.6747,137.379 88.3414,135.379 87.5,133.5C 88.404,132.791 88.7373,131.791 88.5,130.5C 89.2485,131.531 89.9152,132.698 90.5,134C 91.3317,134.688 91.9984,134.521 92.5,133.5C 91.1171,131.68 90.1171,129.68 89.5,127.5C 90.0431,127.44 90.3764,127.107 90.5,126.5C 88.8826,124.368 88.3826,122.035 89,119.5C 90.0443,122.145 91.5443,124.478 93.5,126.5 Z"/></g>
<g><path style="opacity:0.655" fill="#6c9eab" d="M 179.5,131.5 C 179.129,135.205 177.129,137.205 173.5,137.5C 173.871,133.795 175.871,131.795 179.5,131.5 Z"/></g>
<g><path style="opacity:1" fill="#066b97" d="M 87.5,133.5 C 88.3414,135.379 88.6747,137.379 88.5,139.5C 87.3065,139.03 86.6399,138.03 86.5,136.5C 86.5195,135.274 86.8529,134.274 87.5,133.5 Z"/></g>
<g><path style="opacity:1" fill="#0294b7" d="M 98.5,134.5 C 100.993,135.774 103.659,136.44 106.5,136.5C 106.5,137.5 106.5,138.5 106.5,139.5C 102.684,140.211 99.684,139.045 97.5,136C 97.5699,135.235 97.9033,134.735 98.5,134.5 Z"/></g>
<g><path style="opacity:1" fill="#09487b" d="M 115.5,133.5 C 115.5,133.833 115.5,134.167 115.5,134.5C 113.073,135.279 113.073,136.446 115.5,138C 117.345,139.128 119.345,139.628 121.5,139.5C 120.167,140.167 118.833,140.833 117.5,141.5C 114.862,140.35 112.862,138.517 111.5,136C 112.032,133.98 113.365,133.147 115.5,133.5 Z"/></g>
<g><path style="opacity:1" fill="#0199b9" d="M 115.5,134.5 C 117.5,135.5 119.5,136.5 121.5,137.5C 121.5,138.167 121.5,138.833 121.5,139.5C 119.345,139.628 117.345,139.128 115.5,138C 113.073,136.446 113.073,135.279 115.5,134.5 Z"/></g>
<g><path style="opacity:1" fill="#0c386b" d="M 75.5,133.5 C 75.5,133.833 75.5,134.167 75.5,134.5C 75.3354,137.518 75.502,140.518 76,143.5C 77.4114,145.65 78.2447,147.984 78.5,150.5C 78.3465,152.97 77.3465,154.97 75.5,156.5C 76.7571,141.127 72.0905,138.793 61.5,149.5C 60.7695,152.109 60.2695,154.776 60,157.5C 59.6174,158.056 59.1174,158.389 58.5,158.5C 56.6656,159.494 54.9989,159.494 53.5,158.5C 55.0575,153.636 57.7242,149.636 61.5,146.5C 66.897,142.763 71.5637,138.43 75.5,133.5 Z"/></g>
<g><path style="opacity:0.973" fill="#0b3f6f" d="M 155.5,124.5 C 155.335,127.518 155.502,130.518 156,133.5C 158.325,137.51 161.659,138.51 166,136.5C 166.49,137.793 166.657,139.127 166.5,140.5C 165.833,140.833 165.167,141.167 164.5,141.5C 162.316,140.734 159.982,140.067 157.5,139.5C 153.13,134.873 152.464,129.873 155.5,124.5 Z"/></g>
<g><path style="opacity:1" fill="#058caf" d="M 114.5,141.5 C 114.38,142.586 113.713,143.253 112.5,143.5C 111.151,143.154 109.817,142.821 108.5,142.5C 107.596,141.791 107.263,140.791 107.5,139.5C 110.188,139.166 112.521,139.832 114.5,141.5 Z"/></g>
<g><path style="opacity:0.863" fill="#1d3e5a" d="M 179.5,131.5 C 180.167,131.833 180.833,132.167 181.5,132.5C 179.356,135.122 178.023,138.122 177.5,141.5C 175.952,141.821 175.285,142.821 175.5,144.5C 176.675,144.281 177.675,144.614 178.5,145.5C 178.043,146.298 177.376,146.631 176.5,146.5C 174.95,144.461 173.95,142.128 173.5,139.5C 173.5,138.833 173.5,138.167 173.5,137.5C 177.129,137.205 179.129,135.205 179.5,131.5 Z"/></g>
<g><path style="opacity:0.71" fill="#8fb6bd" d="M 181.5,132.5 C 185.263,133.095 187.596,135.262 188.5,139C 187.426,143.221 185.093,146.388 181.5,148.5C 181.039,145.697 179.705,143.363 177.5,141.5C 178.023,138.122 179.356,135.122 181.5,132.5 Z"/></g>
<g><path style="opacity:0.992" fill="#267191" d="M 75.5,130.5 C 75.5,131.167 75.5,131.833 75.5,132.5C 75.5,132.833 75.5,133.167 75.5,133.5C 71.5637,138.43 66.897,142.763 61.5,146.5C 61.3505,145.448 61.5172,144.448 62,143.5C 64.9807,142.602 67.6474,140.602 70,137.5C 70.6877,136.668 70.521,136.002 69.5,135.5C 67.7749,136.015 66.1083,136.682 64.5,137.5C 62.4939,140.829 60.1606,143.829 57.5,146.5C 59.0478,142.939 61.0478,139.606 63.5,136.5C 67.8535,135.059 71.8535,133.059 75.5,130.5 Z"/></g>
<g><path style="opacity:1" fill="#0390b3" d="M 94.5,138.5 C 95.8993,139.89 97.5659,140.89 99.5,141.5C 100.609,141.557 101.609,141.89 102.5,142.5C 99.4207,144.964 96.5874,144.298 94,140.5C 93.3083,139.563 93.475,138.897 94.5,138.5 Z"/></g>
<g><path style="opacity:0.988" fill="#2e313b" d="M 121.5,137.5 C 122.058,139.593 123.391,141.093 125.5,142C 123.959,143.371 122.625,144.871 121.5,146.5C 120.448,146.649 119.448,146.483 118.5,146C 119.743,144.184 119.41,142.684 117.5,141.5C 118.833,140.833 120.167,140.167 121.5,139.5C 121.5,138.833 121.5,138.167 121.5,137.5 Z"/></g>
<g><path style="opacity:0.922" fill="#1b5880" d="M 164.5,141.5 C 162.688,143.461 161.688,145.794 161.5,148.5C 159.088,148.306 158.088,146.973 158.5,144.5C 159.911,142.461 161.911,141.461 164.5,141.5 Z"/></g>
<g><path style="opacity:1" fill="#026c9c" d="M 75.5,156.5 C 73.8553,160.811 70.8553,163.811 66.5,165.5C 66.1667,165.167 65.8333,164.833 65.5,164.5C 66.6477,162.851 67.981,161.351 69.5,160C 69.1667,159.833 68.8333,159.667 68.5,159.5C 66.6001,161.616 64.2668,162.949 61.5,163.5C 60.325,163.719 59.325,163.386 58.5,162.5C 58.4469,161.153 58.4469,159.82 58.5,158.5C 59.1174,158.389 59.6174,158.056 60,157.5C 60.2695,154.776 60.7695,152.109 61.5,149.5C 72.0905,138.793 76.7571,141.127 75.5,156.5 Z"/></g>
<g><path style="opacity:0.529" fill="#355556" d="M 138.5,137.5 C 133.229,141.079 127.895,144.745 122.5,148.5C 120.62,151.614 118.287,154.28 115.5,156.5C 115.179,154.952 114.179,154.285 112.5,154.5C 112.5,154.167 112.5,153.833 112.5,153.5C 113.552,153.649 114.552,153.483 115.5,153C 117.409,150.623 119.409,148.457 121.5,146.5C 122.583,146.461 123.583,146.127 124.5,145.5C 127.647,142.853 127.647,140.853 124.5,139.5C 126.608,138.645 128.774,137.978 131,137.5C 132.011,137.892 132.511,138.559 132.5,139.5C 133.833,138.5 135.167,137.5 136.5,136.5C 137.183,136.863 137.85,137.196 138.5,137.5 Z"/></g>
<g><path style="opacity:0.853" fill="#a6c4c9" d="M 169.5,139.5 C 170.167,139.5 170.833,139.5 171.5,139.5C 172.768,141.67 172.768,143.837 171.5,146C 168.392,147.759 165.059,148.592 161.5,148.5C 161.688,145.794 162.688,143.461 164.5,141.5C 165.167,141.167 165.833,140.833 166.5,140.5C 167.391,139.89 168.391,139.557 169.5,139.5 Z"/></g>
<g><path style="opacity:0.918" fill="#578992" d="M 61.5,146.5 C 57.7242,149.636 55.0575,153.636 53.5,158.5C 51.2273,158.957 49.894,160.29 49.5,162.5C 48.6236,162.631 47.9569,162.298 47.5,161.5C 48.8088,159.024 50.6421,157.024 53,155.5C 53.7914,154.255 54.2914,152.922 54.5,151.5C 55.1103,149.566 56.1103,147.899 57.5,146.5C 60.1606,143.829 62.4939,140.829 64.5,137.5C 66.1083,136.682 67.7749,136.015 69.5,135.5C 70.521,136.002 70.6877,136.668 70,137.5C 67.6474,140.602 64.9807,142.602 62,143.5C 61.5172,144.448 61.3505,145.448 61.5,146.5 Z"/></g>
<g><path style="opacity:0.992" fill="#7b0e30" d="M 81.5,127.5 C 80.5651,130.113 80.3985,132.779 81,135.5C 87.25,148.876 97.75,154.876 112.5,153.5C 112.5,153.833 112.5,154.167 112.5,154.5C 109.941,154.198 107.607,154.532 105.5,155.5C 91.9497,153.12 82.7831,145.453 78,132.5C 77.2917,133.381 76.4584,134.047 75.5,134.5C 75.5,134.167 75.5,133.833 75.5,133.5C 75.5,133.167 75.5,132.833 75.5,132.5C 77.5,130.833 79.5,129.167 81.5,127.5 Z"/></g>
<g><path style="opacity:0.941" fill="#696454" d="M 115.5,143.5 C 116.534,145.817 115.534,146.817 112.5,146.5C 113.1,145.1 114.1,144.1 115.5,143.5 Z"/></g>
<g><path style="opacity:1" fill="#0d3a6a" d="M 94.5,138.5 C 93.475,138.897 93.3083,139.563 94,140.5C 96.5874,144.298 99.4207,144.964 102.5,142.5C 103.167,143.167 103.833,143.833 104.5,144.5C 104.559,146.722 105.725,147.722 108,147.5C 108.833,147.333 109.667,147.167 110.5,147C 109.429,146.148 108.429,145.315 107.5,144.5C 108.338,144.158 108.672,143.492 108.5,142.5C 109.817,142.821 111.151,143.154 112.5,143.5C 113.713,143.253 114.38,142.586 114.5,141.5C 115.338,141.842 115.672,142.508 115.5,143.5C 114.1,144.1 113.1,145.1 112.5,146.5C 112.5,147.167 112.5,147.833 112.5,148.5C 111.167,149.167 110.167,150.167 109.5,151.5C 105.588,151.658 102.921,149.992 101.5,146.5C 96.8137,148.411 93.3137,147.077 91,142.5C 90.5065,140.866 90.3398,139.199 90.5,137.5C 92.099,137.232 93.4324,137.566 94.5,138.5 Z"/></g>
<g><path style="opacity:1" fill="#028cb2" d="M 104.5,144.5 C 105.5,144.5 106.5,144.5 107.5,144.5C 108.429,145.315 109.429,146.148 110.5,147C 109.667,147.167 108.833,147.333 108,147.5C 105.725,147.722 104.559,146.722 104.5,144.5 Z"/></g>
<g><path style="opacity:0.914" fill="#456789" d="M 171.5,139.5 C 172.167,139.5 172.833,139.5 173.5,139.5C 173.95,142.128 174.95,144.461 176.5,146.5C 175.732,147.263 175.232,148.263 175,149.5C 174,148.833 173,148.167 172,147.5C 168.715,149.137 165.215,149.804 161.5,149.5C 161.5,149.167 161.5,148.833 161.5,148.5C 165.059,148.592 168.392,147.759 171.5,146C 172.768,143.837 172.768,141.67 171.5,139.5 Z"/></g>
<g><path style="opacity:0.8" fill="#4b6963" d="M 153.5,143.5 C 154.167,144.167 154.833,144.833 155.5,145.5C 156.346,148.523 158.013,151.023 160.5,153C 159.833,153.333 159.167,153.667 158.5,154C 160.491,154.374 162.158,155.207 163.5,156.5C 160.801,156.534 158.301,155.867 156,154.5C 154.846,150.896 154.013,147.229 153.5,143.5 Z"/></g>
<g><path style="opacity:0.906" fill="#6095b1" d="M 177.5,141.5 C 179.705,143.363 181.039,145.697 181.5,148.5C 176.544,151.721 171.211,154.388 165.5,156.5C 163.295,154.637 161.961,152.303 161.5,149.5C 165.215,149.804 168.715,149.137 172,147.5C 173,148.167 174,148.833 175,149.5C 175.232,148.263 175.732,147.263 176.5,146.5C 177.376,146.631 178.043,146.298 178.5,145.5C 177.675,144.614 176.675,144.281 175.5,144.5C 175.285,142.821 175.952,141.821 177.5,141.5 Z"/></g>
<g><path style="opacity:1" fill="#9a9277" d="M 112.5,148.5 C 112.938,148.435 113.272,148.601 113.5,149C 112.529,150.481 111.196,151.315 109.5,151.5C 110.167,150.167 111.167,149.167 112.5,148.5 Z"/></g>
<g><path style="opacity:0.906" fill="#0d2949" d="M 158.5,144.5 C 158.088,146.973 159.088,148.306 161.5,148.5C 161.5,148.833 161.5,149.167 161.5,149.5C 161.961,152.303 163.295,154.637 165.5,156.5C 164.833,156.5 164.167,156.5 163.5,156.5C 162.158,155.207 160.491,154.374 158.5,154C 159.167,153.667 159.833,153.333 160.5,153C 158.013,151.023 156.346,148.523 155.5,145.5C 156.117,145.611 156.617,145.944 157,146.5C 157.278,145.584 157.778,144.918 158.5,144.5 Z"/></g>
<g><path style="opacity:0.953" fill="#9d6351" d="M 105.5,155.5 C 107.607,154.532 109.941,154.198 112.5,154.5C 114.179,154.285 115.179,154.952 115.5,156.5C 114.078,157.925 112.411,158.925 110.5,159.5C 111.028,158.279 111.695,157.113 112.5,156C 110.19,155.503 107.857,155.337 105.5,155.5 Z"/></g>
<g><path style="opacity:0.835" fill="#5d6a65" d="M 115.5,156.5 C 114.343,160.976 112.01,164.642 108.5,167.5C 108.367,165.229 109.367,163.062 111.5,161C 110.181,160.805 108.847,160.972 107.5,161.5C 107.973,160.094 108.973,159.427 110.5,159.5C 112.411,158.925 114.078,157.925 115.5,156.5 Z"/></g>
<g><path style="opacity:1" fill="#13162f" d="M 78.5,150.5 C 79.4805,152.396 80.4805,154.396 81.5,156.5C 80.3984,157.176 79.3984,157.842 78.5,158.5C 73.2717,164.781 66.605,168.448 58.5,169.5C 56.2537,169.936 54.0871,170.603 52,171.5C 51,170.833 50,170.167 49,169.5C 48.6012,169.728 48.4346,170.062 48.5,170.5C 47.8333,170.5 47.1667,170.5 46.5,170.5C 46.2041,168.597 45.5375,166.93 44.5,165.5C 44.2826,162.579 44.9493,159.913 46.5,157.5C 49.4256,155.916 52.0922,153.916 54.5,151.5C 54.2914,152.922 53.7914,154.255 53,155.5C 50.6421,157.024 48.8088,159.024 47.5,161.5C 47.9569,162.298 48.6236,162.631 49.5,162.5C 49.5,164.167 49.5,165.833 49.5,167.5C 54.207,167.931 58.207,166.598 61.5,163.5C 64.2668,162.949 66.6001,161.616 68.5,159.5C 68.8333,159.667 69.1667,159.833 69.5,160C 67.981,161.351 66.6477,162.851 65.5,164.5C 65.8333,164.833 66.1667,165.167 66.5,165.5C 70.8553,163.811 73.8553,160.811 75.5,156.5C 77.3465,154.97 78.3465,152.97 78.5,150.5 Z"/></g>
<g><path style="opacity:1" fill="#095586" d="M 53.5,158.5 C 54.9989,159.494 56.6656,159.494 58.5,158.5C 58.4469,159.82 58.4469,161.153 58.5,162.5C 59.325,163.386 60.325,163.719 61.5,163.5C 58.207,166.598 54.207,167.931 49.5,167.5C 49.5,165.833 49.5,164.167 49.5,162.5C 49.894,160.29 51.2273,158.957 53.5,158.5 Z"/></g>
<g><path style="opacity:0.976" fill="#8d8874" d="M 78.5,158.5 C 79.791,158.263 80.791,158.596 81.5,159.5C 77.7767,163.539 73.4433,166.873 68.5,169.5C 68.8333,169.833 69.1667,170.167 69.5,170.5C 71.323,169.253 73.323,168.586 75.5,168.5C 75.1667,169.5 74.5,170.167 73.5,170.5C 70.4279,171.273 67.4279,171.606 64.5,171.5C 62.7354,170.539 60.7354,170.205 58.5,170.5C 58.5,170.167 58.5,169.833 58.5,169.5C 66.605,168.448 73.2717,164.781 78.5,158.5 Z"/></g>
<g><path style="opacity:0.992" fill="#8c887d" d="M 83.5,160.5 C 84.2891,160.783 84.9558,161.283 85.5,162C 83.505,164.157 82.1717,166.657 81.5,169.5C 80.6043,170.506 79.9377,170.506 79.5,169.5C 79.5,169.167 79.5,168.833 79.5,168.5C 79.1583,167.662 78.4916,167.328 77.5,167.5C 80.1846,165.826 82.1846,163.493 83.5,160.5 Z"/></g>
<g><path style="opacity:0.992" fill="#106591" d="M 108.5,167.5 C 106.057,171.276 102.724,173.943 98.5,175.5C 98.44,174.957 98.1067,174.624 97.5,174.5C 95.9222,175.64 94.2555,176.14 92.5,176C 94.3963,174.935 94.563,174.102 93,173.5C 89.1988,174.155 85.6988,175.488 82.5,177.5C 81.5836,177.457 80.9169,177.124 80.5,176.5C 80.4802,174.857 81.1468,173.524 82.5,172.5C 89.0541,167.926 96.3874,165.426 104.5,165C 105.056,164.617 105.389,164.117 105.5,163.5C 105.5,162.167 106.167,161.5 107.5,161.5C 108.847,160.972 110.181,160.805 111.5,161C 109.367,163.062 108.367,165.229 108.5,167.5 Z"/></g>
<g><path style="opacity:0.965" fill="#cdd0c4" d="M 81.5,159.5 C 82.4916,159.328 83.1583,159.662 83.5,160.5C 82.1846,163.493 80.1846,165.826 77.5,167.5C 76.5084,167.328 75.8417,167.662 75.5,168.5C 73.323,168.586 71.323,169.253 69.5,170.5C 69.1667,170.167 68.8333,169.833 68.5,169.5C 73.4433,166.873 77.7767,163.539 81.5,159.5 Z"/></g>
<g><path style="opacity:0.898" fill="#6585a1" d="M 46.5,157.5 C 44.9493,159.913 44.2826,162.579 44.5,165.5C 42.5658,168.44 40.2325,171.106 37.5,173.5C 35.086,174.911 33.4194,176.911 32.5,179.5C 31.8333,179.167 31.1667,178.833 30.5,178.5C 30.3433,177.127 30.51,175.793 31,174.5C 37.1947,170.643 41.528,165.309 44,158.5C 44.6708,157.748 45.5041,157.414 46.5,157.5 Z"/></g>
<g><path style="opacity:0.929" fill="#3f4d87" d="M 44.5,165.5 C 45.5375,166.93 46.2041,168.597 46.5,170.5C 43.9785,171.011 41.6451,172.011 39.5,173.5C 38.8333,173.5 38.1667,173.5 37.5,173.5C 40.2325,171.106 42.5658,168.44 44.5,165.5 Z"/></g>
<g><path style="opacity:0.996" fill="#0b3c6f" d="M 105.5,163.5 C 105.389,164.117 105.056,164.617 104.5,165C 96.3874,165.426 89.0541,167.926 82.5,172.5C 81.1468,173.524 80.4802,174.857 80.5,176.5C 79.2921,175.766 77.9587,175.433 76.5,175.5C 76.0246,172.687 77.0246,170.687 79.5,169.5C 79.9377,170.506 80.6043,170.506 81.5,169.5C 84.3819,169.392 86.7153,168.226 88.5,166C 94.1515,164.984 99.8182,164.15 105.5,163.5 Z"/></g>
<g><path style="opacity:0.827" fill="#491e33" d="M 58.5,169.5 C 58.5,169.833 58.5,170.167 58.5,170.5C 57.2905,170.932 56.2905,171.599 55.5,172.5C 53.4727,172.662 51.4727,172.495 49.5,172C 48.944,171.617 48.6107,171.117 48.5,170.5C 48.4346,170.062 48.6012,169.728 49,169.5C 50,170.167 51,170.833 52,171.5C 54.0871,170.603 56.2537,169.936 58.5,169.5 Z"/></g>
<g><path style="opacity:0.2" fill="#3d6174" d="M 58.5,170.5 C 60.7354,170.205 62.7354,170.539 64.5,171.5C 63.5977,173.341 62.2644,174.674 60.5,175.5C 61.9349,174.015 61.7683,172.682 60,171.5C 58.6439,172.38 57.1439,172.714 55.5,172.5C 56.2905,171.599 57.2905,170.932 58.5,170.5 Z"/></g>
<g><path style="opacity:0.271" fill="#375a6e" d="M 46.5,170.5 C 47.1667,170.5 47.8333,170.5 48.5,170.5C 48.6107,171.117 48.944,171.617 49.5,172C 51.4727,172.495 53.4727,172.662 55.5,172.5C 52.023,173.323 48.3563,173.823 44.5,174C 42.7107,176.279 40.7107,178.279 38.5,180C 37.1667,180.167 35.8333,180.333 34.5,180.5C 32.6672,180.415 31.3339,179.748 30.5,178.5C 31.1667,178.833 31.8333,179.167 32.5,179.5C 36.6563,179.68 38.9896,177.68 39.5,173.5C 41.6451,172.011 43.9785,171.011 46.5,170.5 Z"/></g>
<g><path style="opacity:0.91" fill="#09152f" d="M 37.5,173.5 C 38.1667,173.5 38.8333,173.5 39.5,173.5C 38.9896,177.68 36.6563,179.68 32.5,179.5C 33.4194,176.911 35.086,174.911 37.5,173.5 Z"/></g>
<g><path style="opacity:0.808" fill="#4c102c" d="M 77.5,167.5 C 78.4916,167.328 79.1583,167.662 79.5,168.5C 77.9826,168.511 76.8159,169.177 76,170.5C 75.2228,173.429 75.3895,176.263 76.5,179C 75.2559,179.456 74.4226,178.956 74,177.5C 73.5045,175.527 73.3379,173.527 73.5,171.5C 73.5,171.167 73.5,170.833 73.5,170.5C 74.5,170.167 75.1667,169.5 75.5,168.5C 75.8417,167.662 76.5084,167.328 77.5,167.5 Z"/></g>
<g><path style="opacity:0.98" fill="#15203b" d="M 79.5,168.5 C 79.5,168.833 79.5,169.167 79.5,169.5C 77.0246,170.687 76.0246,172.687 76.5,175.5C 77.9587,175.433 79.2921,175.766 80.5,176.5C 80.9169,177.124 81.5836,177.457 82.5,177.5C 85.6988,175.488 89.1988,174.155 93,173.5C 94.563,174.102 94.3963,174.935 92.5,176C 94.2555,176.14 95.9222,175.64 97.5,174.5C 98.1067,174.624 98.44,174.957 98.5,175.5C 92.8617,177.403 87.3617,179.736 82,182.5C 78.4607,181.68 75.294,180.346 72.5,178.5C 72.5,177.167 72.5,175.833 72.5,174.5C 72.2627,173.209 72.596,172.209 73.5,171.5C 73.3379,173.527 73.5045,175.527 74,177.5C 74.4226,178.956 75.2559,179.456 76.5,179C 75.3895,176.263 75.2228,173.429 76,170.5C 76.8159,169.177 77.9826,168.511 79.5,168.5 Z"/></g>
<g><path style="opacity:0.706" fill="#5984a4" d="M 73.5,170.5 C 73.5,170.833 73.5,171.167 73.5,171.5C 72.596,172.209 72.2627,173.209 72.5,174.5C 69.6571,175.771 66.6571,176.604 63.5,177C 60.9804,178.763 58.6471,180.763 56.5,183C 57.448,183.483 58.448,183.649 59.5,183.5C 52.8406,184.763 51.8406,182.597 56.5,177C 57.745,176.209 59.0783,175.709 60.5,175.5C 62.2644,174.674 63.5977,173.341 64.5,171.5C 67.4279,171.606 70.4279,171.273 73.5,170.5 Z"/></g>
<g><path style="opacity:0.82" fill="#264470" d="M 72.5,174.5 C 72.5,175.833 72.5,177.167 72.5,178.5C 70.146,178.838 67.8127,179.338 65.5,180C 63.6089,181.442 61.6089,182.609 59.5,183.5C 58.448,183.649 57.448,183.483 56.5,183C 58.6471,180.763 60.9804,178.763 63.5,177C 66.6571,176.604 69.6571,175.771 72.5,174.5 Z"/></g>
</svg>
