<?xml version="1.0" encoding="UTF-8"?>
<!DOCTYPE svg PUBLIC "-//W3C//DTD SVG 1.1//EN" "http://www.w3.org/Graphics/SVG/1.1/DTD/svg11.dtd">
<svg xmlns="http://www.w3.org/2000/svg" version="1.1" width="200px" height="200px" style="shape-rendering:geometricPrecision; text-rendering:geometricPrecision; image-rendering:optimizeQuality; fill-rule:evenodd; clip-rule:evenodd" xmlns:xlink="http://www.w3.org/1999/xlink">
<g><path style="opacity:0.824" fill="#312618" d="M 120.5,28.5 C 120.5,29.1667 120.5,29.8333 120.5,30.5C 106.305,27.3854 91.9717,26.7187 77.5,28.5C 76.5,28.5 75.5,28.5 74.5,28.5C 89.8229,23.1681 105.156,23.1681 120.5,28.5 Z"/></g>
<g><path style="opacity:1" fill="#ddb265" d="M 120.5,30.5 C 128.58,33.2937 135.413,37.9604 141,44.5C 142.009,46.0249 142.509,47.6916 142.5,49.5C 141.022,49.762 139.689,49.4287 138.5,48.5C 132.725,40.0996 124.725,34.9329 114.5,33C 100.721,30.7779 87.0547,31.2779 73.5,34.5C 73.7148,32.8212 73.0481,31.8212 71.5,31.5C 73.5,30.5 75.5,29.5 77.5,28.5C 91.9717,26.7187 106.305,27.3854 120.5,30.5 Z"/></g>
<g><path style="opacity:1" fill="#eec067" d="M 71.5,31.5 C 73.0481,31.8212 73.7148,32.8212 73.5,34.5C 72.6935,35.7281 71.6935,36.7281 70.5,37.5C 68.9557,37.7031 67.6223,38.3698 66.5,39.5C 64.556,38.8108 62.556,38.3108 60.5,38C 63.5627,34.8023 67.2294,32.6357 71.5,31.5 Z"/></g>
<g><path style="opacity:0.912" fill="#0c1e0d" d="M 85.5,35.5 C 91.1124,35.1946 96.2791,36.5279 101,39.5C 107.301,36.8105 113.801,36.1439 120.5,37.5C 120.842,38.3382 121.508,38.6716 122.5,38.5C 122.833,38.5 123.167,38.5 123.5,38.5C 123.842,39.3382 124.508,39.6716 125.5,39.5C 128.833,40.1667 130.833,42.1667 131.5,45.5C 125.266,42.0889 118.599,40.0889 111.5,39.5C 109.109,39.5593 106.775,39.8926 104.5,40.5C 104.167,41 103.833,41.5 103.5,42C 104.615,43.3932 105.115,44.8932 105,46.5C 102.499,43.1517 99.3319,40.8184 95.5,39.5C 89.8487,36.8971 84.182,36.8971 78.5,39.5C 76.1055,40.0147 73.7722,40.6814 71.5,41.5C 70.6618,41.8417 70.3284,42.5084 70.5,43.5C 69.8333,43.5 69.5,43.1667 69.5,42.5C 69.5858,41.5041 69.2524,40.6708 68.5,40C 69.3805,39.2917 70.0472,38.4584 70.5,37.5C 71.4916,37.3284 72.1583,37.6618 72.5,38.5C 71.8174,39.6441 72.1507,39.6441 73.5,38.5C 74.4916,38.6716 75.1583,38.3382 75.5,37.5C 76.791,37.7373 77.791,37.404 78.5,36.5C 79.5,36.5 80.5,36.5 81.5,36.5C 83.099,36.7678 84.4324,36.4345 85.5,35.5 Z"/></g>
<g><path style="opacity:1" fill="#13935d" d="M 95.5,39.5 C 94.1667,39.5 92.8333,39.5 91.5,39.5C 87.3305,38.5425 82.9972,38.5425 78.5,39.5C 84.182,36.8971 89.8487,36.8971 95.5,39.5 Z"/></g>
<g><path style="opacity:0.888" fill="#1d140f" d="M 74.5,28.5 C 75.5,28.5 76.5,28.5 77.5,28.5C 75.5,29.5 73.5,30.5 71.5,31.5C 67.2294,32.6357 63.5627,34.8023 60.5,38C 62.556,38.3108 64.556,38.8108 66.5,39.5C 67.6223,38.3698 68.9557,37.7031 70.5,37.5C 70.0472,38.4584 69.3805,39.2917 68.5,40C 69.2524,40.6708 69.5858,41.5041 69.5,42.5C 59.2765,40.2247 48.9432,39.8914 38.5,41.5C 37.8333,41.8333 37.1667,42.1667 36.5,42.5C 31.3619,43.0792 26.6953,44.7459 22.5,47.5C 21.5041,47.4142 20.6708,47.7476 20,48.5C 20.7404,55.4306 23.5738,61.4306 28.5,66.5C 29.1667,67.1667 29.8333,67.8333 30.5,68.5C 33.1667,71.5 35.8333,74.5 38.5,77.5C 37.1667,77.5 35.8333,77.5 34.5,77.5C 27.2217,70.3124 21.3884,61.979 17,52.5C 16.2025,50.7412 16.3691,49.0745 17.5,47.5C 30.1432,40.2679 43.8099,36.7679 58.5,37C 62.8686,32.3161 68.2019,29.4828 74.5,28.5 Z"/></g>
<g><path style="opacity:1" fill="#0c371b" d="M 71.5,41.5 C 74.3401,49.577 75.1734,57.9103 74,66.5C 73.7882,69.2522 72.9548,71.7522 71.5,74C 71.8361,75.0299 72.5028,75.5299 73.5,75.5C 72.1037,77.3725 70.437,77.7058 68.5,76.5C 74.2264,65.8344 74.8931,54.8344 70.5,43.5C 70.3284,42.5084 70.6618,41.8417 71.5,41.5 Z"/></g>
<g><path style="opacity:1" fill="#05f28f" d="M 91.5,39.5 C 92.8333,39.5 94.1667,39.5 95.5,39.5C 99.3319,40.8184 102.499,43.1517 105,46.5C 105.115,44.8932 104.615,43.3932 103.5,42C 103.833,41.5 104.167,41 104.5,40.5C 106.775,39.8926 109.109,39.5593 111.5,39.5C 118.599,40.0889 125.266,42.0889 131.5,45.5C 133.46,47.1563 135.46,48.823 137.5,50.5C 137.5,50.8333 137.5,51.1667 137.5,51.5C 137.722,53.6075 138.722,55.2742 140.5,56.5C 139.687,57.8139 138.687,58.9805 137.5,60C 138.025,60.6924 138.692,61.1924 139.5,61.5C 143.844,59.4119 145.844,60.7452 145.5,65.5C 148.487,66.2578 151.487,67.0911 154.5,68C 155.833,69 155.833,70 154.5,71C 150.524,71.0741 146.524,70.9075 142.5,70.5C 137.97,70.4594 133.636,71.126 129.5,72.5C 127.833,72.3333 126.167,72.1667 124.5,72C 123.238,69.8212 121.905,67.6545 120.5,65.5C 118.978,64.438 117.312,63.7713 115.5,63.5C 112.988,62.0721 110.322,61.5721 107.5,62C 112.888,63.514 116.888,66.6807 119.5,71.5C 119.179,73.0481 118.179,73.7148 116.5,73.5C 115.508,73.6716 114.842,73.3382 114.5,72.5C 110.049,71.1729 105.216,70.5063 100,70.5C 95.1667,70.6667 90.3333,70.8333 85.5,71C 84.0577,71.3768 83.0577,72.2101 82.5,73.5C 81.1667,73.5 79.8333,73.5 78.5,73.5C 77.1667,73.5 75.8333,73.5 74.5,73.5C 76.6912,64.246 77.0246,54.9127 75.5,45.5C 77.8273,45.7529 79.8273,45.0863 81.5,43.5C 83.3108,45.1616 84.9775,45.3282 86.5,44C 84.8839,43.3848 83.5505,42.3848 82.5,41C 85.3508,39.7114 88.3508,39.2114 91.5,39.5 Z"/></g>
<g><path style="opacity:1" fill="#18e18d" d="M 91.5,39.5 C 88.3508,39.2114 85.3508,39.7114 82.5,41C 83.5505,42.3848 84.8839,43.3848 86.5,44C 84.9775,45.3282 83.3108,45.1616 81.5,43.5C 79.8273,45.0863 77.8273,45.7529 75.5,45.5C 77.0246,54.9127 76.6912,64.246 74.5,73.5C 75.8333,73.5 77.1667,73.5 78.5,73.5C 77.2196,74.9313 75.5529,75.5979 73.5,75.5C 72.5028,75.5299 71.8361,75.0299 71.5,74C 72.9548,71.7522 73.7882,69.2522 74,66.5C 75.1734,57.9103 74.3401,49.577 71.5,41.5C 73.7722,40.6814 76.1055,40.0147 78.5,39.5C 82.9972,38.5425 87.3305,38.5425 91.5,39.5 Z"/></g>
<g><path style="opacity:0.609" fill="#1b1105" d="M 120.5,28.5 C 131.121,31.6395 139.621,37.6395 146,46.5C 155.757,42.7071 165.591,42.5404 175.5,46C 177.211,47.1332 177.711,48.6332 177,50.5C 172.584,52.9117 168.751,56.0783 165.5,60C 166.743,61.1545 167.743,62.4878 168.5,64C 177.768,63.3023 185.268,66.469 191,73.5C 191.667,75.1667 191.667,76.8333 191,78.5C 184.83,83.674 177.663,86.3407 169.5,86.5C 169.192,87.3081 168.692,87.9747 168,88.5C 167.312,89.3317 167.479,89.9984 168.5,90.5C 181.597,94.0559 181.597,98.2226 168.5,103C 165.243,104.043 161.91,104.543 158.5,104.5C 158.167,103.833 157.833,103.167 157.5,102.5C 160.781,102.58 163.781,101.913 166.5,100.5C 170.072,100.315 173.072,98.9814 175.5,96.5C 173.649,94.5442 171.316,93.5442 168.5,93.5C 165.707,90.5733 164.04,91.2399 163.5,95.5C 162.348,94.375 161.348,94.375 160.5,95.5C 159.167,95.5 157.833,95.5 156.5,95.5C 149.467,95.4973 142.467,94.9973 135.5,94C 134.584,93.7216 133.918,93.2216 133.5,92.5C 139.347,93.0014 145.18,93.6681 151,94.5C 161.533,95.1472 165.7,90.4805 163.5,80.5C 164.167,80.5 164.833,80.5 165.5,80.5C 166.161,81.7175 166.828,83.0508 167.5,84.5C 170.454,75.304 168.787,66.9707 162.5,59.5C 163.492,59.6716 164.158,59.3382 164.5,58.5C 167.506,54.8273 170.839,51.4939 174.5,48.5C 165.137,45.8366 155.803,45.8366 146.5,48.5C 144.718,49.7196 142.718,50.3862 140.5,50.5C 139.5,50.5 138.5,50.5 137.5,50.5C 135.46,48.823 133.46,47.1563 131.5,45.5C 130.833,42.1667 128.833,40.1667 125.5,39.5C 125.158,38.6618 124.492,38.3284 123.5,38.5C 123.167,38.5 122.833,38.5 122.5,38.5C 122.158,37.6618 121.492,37.3284 120.5,37.5C 117.158,35.6652 113.491,34.4985 109.5,34C 100.454,33.1927 91.4536,33.5261 82.5,35C 83.448,35.4828 84.448,35.6495 85.5,35.5C 84.4324,36.4345 83.099,36.7678 81.5,36.5C 80.5,35.1667 79.5,35.1667 78.5,36.5C 77.209,36.2627 76.209,36.596 75.5,37.5C 74.5084,37.3284 73.8417,37.6618 73.5,38.5C 73.1667,38.5 72.8333,38.5 72.5,38.5C 72.1583,37.6618 71.4916,37.3284 70.5,37.5C 71.6935,36.7281 72.6935,35.7281 73.5,34.5C 87.0547,31.2779 100.721,30.7779 114.5,33C 124.725,34.9329 132.725,40.0996 138.5,48.5C 139.689,49.4287 141.022,49.762 142.5,49.5C 142.509,47.6916 142.009,46.0249 141,44.5C 135.413,37.9604 128.58,33.2937 120.5,30.5C 120.5,29.8333 120.5,29.1667 120.5,28.5 Z"/></g>
<g><path style="opacity:1" fill="#4b3627" d="M 146.5,48.5 C 146.369,49.3764 146.702,50.0431 147.5,50.5C 153.613,52.3915 159.279,55.0582 164.5,58.5C 164.158,59.3382 163.492,59.6716 162.5,59.5C 157.007,55.755 151.007,53.0883 144.5,51.5C 143.274,51.5195 142.274,51.8529 141.5,52.5C 140.662,52.1583 140.328,51.4916 140.5,50.5C 142.718,50.3862 144.718,49.7196 146.5,48.5 Z"/></g>
<g><path style="opacity:1" fill="#efbd61" d="M 164.5,58.5 C 159.279,55.0582 153.613,52.3915 147.5,50.5C 146.702,50.0431 146.369,49.3764 146.5,48.5C 155.803,45.8366 165.137,45.8366 174.5,48.5C 170.839,51.4939 167.506,54.8273 164.5,58.5 Z"/></g>
<g><path style="opacity:1" fill="#172d1c" d="M 137.5,51.5 C 137.5,51.1667 137.5,50.8333 137.5,50.5C 138.5,50.5 139.5,50.5 140.5,50.5C 140.328,51.4916 140.662,52.1583 141.5,52.5C 143.666,54.8367 145.666,57.3367 147.5,60C 154.05,61.89 159.55,65.39 164,70.5C 165.289,73.3508 165.789,76.3508 165.5,79.5C 164.5,78.5 163.5,77.5 162.5,76.5C 163.613,75.0536 163.78,73.3869 163,71.5C 158.675,66.9228 153.509,63.7561 147.5,62C 144.665,57.9989 141.332,54.4989 137.5,51.5 Z"/></g>
<g><path style="opacity:1" fill="#e8c5c4" d="M 162.5,59.5 C 168.787,66.9707 170.454,75.304 167.5,84.5C 166.828,83.0508 166.161,81.7175 165.5,80.5C 165.5,80.1667 165.5,79.8333 165.5,79.5C 165.789,76.3508 165.289,73.3508 164,70.5C 159.55,65.39 154.05,61.89 147.5,60C 145.666,57.3367 143.666,54.8367 141.5,52.5C 142.274,51.8529 143.274,51.5195 144.5,51.5C 151.007,53.0883 157.007,55.755 162.5,59.5 Z"/></g>
<g><path style="opacity:1" fill="#e8b963" d="M 36.5,42.5 C 39.9812,51.4107 38.3145,59.244 31.5,66C 30.552,66.4828 29.552,66.6495 28.5,66.5C 23.5738,61.4306 20.7404,55.4306 20,48.5C 20.6708,47.7476 21.5041,47.4142 22.5,47.5C 26.6953,44.7459 31.3619,43.0792 36.5,42.5 Z"/></g>
<g><path style="opacity:1" fill="#fcc359" d="M 22.5,47.5 C 26.4055,47.2857 30.2389,46.6191 34,45.5C 34.5,45.8333 35,46.1667 35.5,46.5C 36.7571,49.8231 36.7571,53.1565 35.5,56.5C 33.6706,58.1558 32.3372,60.1558 31.5,62.5C 29.3432,61.1523 28.0099,59.1523 27.5,56.5C 26.2011,57.09 25.3678,58.09 25,59.5C 22.3435,55.7431 21.5102,51.7431 22.5,47.5 Z"/></g>
<g><path style="opacity:1" fill="#3f281b" d="M 38.5,41.5 C 41.8484,52.4424 39.1817,61.4424 30.5,68.5C 29.8333,67.8333 29.1667,67.1667 28.5,66.5C 29.552,66.6495 30.552,66.4828 31.5,66C 38.3145,59.244 39.9812,51.4107 36.5,42.5C 37.1667,42.1667 37.8333,41.8333 38.5,41.5 Z"/></g>
<g><path style="opacity:1" fill="#024419" d="M 115.5,63.5 C 117.127,65.6298 118.96,67.6298 121,69.5C 122.411,71.6504 123.245,73.9837 123.5,76.5C 125.216,76.3713 126.883,76.038 128.5,75.5C 127.866,76.9468 126.699,77.6134 125,77.5C 122.889,77.2994 121.055,76.6327 119.5,75.5C 120.239,75.631 120.906,75.4643 121.5,75C 120.915,73.6976 120.249,72.531 119.5,71.5C 116.888,66.6807 112.888,63.514 107.5,62C 110.322,61.5721 112.988,62.0721 115.5,63.5 Z"/></g>
<g><path style="opacity:1" fill="#19de8b" d="M 137.5,51.5 C 141.332,54.4989 144.665,57.9989 147.5,62C 153.509,63.7561 158.675,66.9228 163,71.5C 163.78,73.3869 163.613,75.0536 162.5,76.5C 151.336,71.6087 140.003,71.2754 128.5,75.5C 126.883,76.038 125.216,76.3713 123.5,76.5C 123.245,73.9837 122.411,71.6504 121,69.5C 118.96,67.6298 117.127,65.6298 115.5,63.5C 117.312,63.7713 118.978,64.438 120.5,65.5C 121.905,67.6545 123.238,69.8212 124.5,72C 126.167,72.1667 127.833,72.3333 129.5,72.5C 133.636,71.126 137.97,70.4594 142.5,70.5C 146.524,70.9075 150.524,71.0741 154.5,71C 155.833,70 155.833,69 154.5,68C 151.487,67.0911 148.487,66.2578 145.5,65.5C 145.844,60.7452 143.844,59.4119 139.5,61.5C 138.692,61.1924 138.025,60.6924 137.5,60C 138.687,58.9805 139.687,57.8139 140.5,56.5C 138.722,55.2742 137.722,53.6075 137.5,51.5 Z"/></g>
<g><path style="opacity:1" fill="#f3c9ca" d="M 69.5,42.5 C 69.5,43.1667 69.8333,43.5 70.5,43.5C 74.8931,54.8344 74.2264,65.8344 68.5,76.5C 66.5,78.1667 64.5,79.8333 62.5,81.5C 58.3598,83.3491 54.0265,83.8491 49.5,83C 45.7802,81.1401 42.1136,79.3068 38.5,77.5C 35.8333,74.5 33.1667,71.5 30.5,68.5C 39.1817,61.4424 41.8484,52.4424 38.5,41.5C 48.9432,39.8914 59.2765,40.2247 69.5,42.5 Z"/></g>
<g><path style="opacity:1" fill="#573c24" d="M 49.5,47.5 C 59.7766,47.2774 64.2766,52.2774 63,62.5C 59.9541,70.6088 54.4541,73.1088 46.5,70C 39.2262,61.4159 40.2262,53.9159 49.5,47.5 Z"/></g>
<g><path style="opacity:1" fill="#6a4910" d="M 57.5,52.5 C 62.315,62.4846 59.315,67.3179 48.5,67C 47.6195,66.2917 46.9528,65.4584 46.5,64.5C 53.0059,68.3548 57.0059,66.5215 58.5,59C 58.2971,56.5941 57.2971,54.5941 55.5,53C 56.0944,52.5357 56.7611,52.369 57.5,52.5 Z"/></g>
<g><path style="opacity:1" fill="#f5c05e" d="M 57.5,50.5 C 57.5,51.1667 57.5,51.8333 57.5,52.5C 56.7611,52.369 56.0944,52.5357 55.5,53C 57.2971,54.5941 58.2971,56.5941 58.5,59C 57.0059,66.5215 53.0059,68.3548 46.5,64.5C 45.8333,64.5 45.1667,64.5 44.5,64.5C 41.9975,53.3383 46.3309,48.6716 57.5,50.5 Z"/></g>
<g><path style="opacity:1" fill="#d3af6e" d="M 57.5,50.5 C 59.1733,51.343 60.34,52.6763 61,54.5C 63.1629,62.8484 60.1629,68.1818 52,70.5C 48.1282,70.1209 45.6282,68.1209 44.5,64.5C 45.1667,64.5 45.8333,64.5 46.5,64.5C 46.9528,65.4584 47.6195,66.2917 48.5,67C 59.315,67.3179 62.315,62.4846 57.5,52.5C 57.5,51.8333 57.5,51.1667 57.5,50.5 Z"/></g>
<g><path style="opacity:1" fill="#bc6e34" d="M 184.5,70.5 C 180.326,68.936 175.993,68.2694 171.5,68.5C 171.5,73.1667 171.5,77.8333 171.5,82.5C 173.5,82.5 175.5,82.5 177.5,82.5C 175.393,83.4682 173.059,83.8016 170.5,83.5C 170.625,77.7969 170.292,72.1302 169.5,66.5C 175.174,65.8438 180.174,67.1771 184.5,70.5 Z"/></g>
<g><path style="opacity:1" fill="#20c37e" d="M 114.5,72.5 C 103.773,71.012 93.1064,71.3453 82.5,73.5C 83.0577,72.2101 84.0577,71.3768 85.5,71C 90.3333,70.8333 95.1667,70.6667 100,70.5C 105.216,70.5063 110.049,71.1729 114.5,72.5 Z"/></g>
<g><path style="opacity:0.588" fill="#0a170a" d="M 114.5,72.5 C 114.842,73.3382 115.508,73.6716 116.5,73.5C 117.29,74.4013 118.29,75.0679 119.5,75.5C 121.055,76.6327 122.889,77.2994 125,77.5C 126.699,77.6134 127.866,76.9468 128.5,75.5C 140.003,71.2754 151.336,71.6087 162.5,76.5C 163.5,77.5 164.5,78.5 165.5,79.5C 165.5,79.8333 165.5,80.1667 165.5,80.5C 164.833,80.5 164.167,80.5 163.5,80.5C 151.608,73.0585 139.274,72.5585 126.5,79C 126.173,81.6849 126.173,84.5182 126.5,87.5C 125.5,87.5 124.5,87.5 123.5,87.5C 123.792,81.623 121.125,77.7896 115.5,76C 102.801,72.8884 90.1342,73.2217 77.5,77C 73.5982,78.0203 69.9315,79.5203 66.5,81.5C 68.3442,83.8429 70.3442,86.0096 72.5,88C 77.2855,89.5216 81.9522,91.0216 86.5,92.5C 85.209,92.2627 84.209,92.596 83.5,93.5C 81.8828,92.962 80.2161,92.6287 78.5,92.5C 76.6976,91.5418 74.6976,90.8751 72.5,90.5C 69.8333,88.1667 67.1667,85.8333 64.5,83.5C 63.8333,82.8333 63.1667,82.1667 62.5,81.5C 64.5,79.8333 66.5,78.1667 68.5,76.5C 70.437,77.7058 72.1037,77.3725 73.5,75.5C 75.5529,75.5979 77.2196,74.9313 78.5,73.5C 79.8333,73.5 81.1667,73.5 82.5,73.5C 93.1064,71.3453 103.773,71.012 114.5,72.5 Z"/></g>
<g><path style="opacity:1" fill="#30a775" d="M 119.5,71.5 C 120.249,72.531 120.915,73.6976 121.5,75C 120.906,75.4643 120.239,75.631 119.5,75.5C 118.29,75.0679 117.29,74.4013 116.5,73.5C 118.179,73.7148 119.179,73.0481 119.5,71.5 Z"/></g>
<g><path style="opacity:1" fill="#1b4026" d="M 34.5,77.5 C 35.8333,77.5 37.1667,77.5 38.5,77.5C 42.1136,79.3068 45.7802,81.1401 49.5,83C 54.0265,83.8491 58.3598,83.3491 62.5,81.5C 63.1667,82.1667 63.8333,82.8333 64.5,83.5C 60.7759,83.8627 57.1093,84.5293 53.5,85.5C 51.4523,85.3282 49.4523,84.9949 47.5,84.5C 44.7257,82.9363 42.059,81.103 39.5,79C 38.2068,78.51 36.8734,78.3433 35.5,78.5C 35.7373,79.791 35.404,80.791 34.5,81.5C 34.5,80.5 34.5,79.5 34.5,78.5C 34.5,78.1667 34.5,77.8333 34.5,77.5 Z"/></g>
<g><path style="opacity:0.598" fill="#050201" d="M 95.5,79.5 C 97.9424,79.3537 98.6091,80.187 97.5,82C 101.476,84.4224 101.309,86.5891 97,88.5C 92.9627,86.1424 92.4627,83.1424 95.5,79.5 Z"/></g>
<g><path style="opacity:1" fill="#ea8029" d="M 184.5,70.5 C 186.683,71.8502 188.35,73.6836 189.5,76C 186.321,79.6785 182.321,81.8452 177.5,82.5C 175.5,82.5 173.5,82.5 171.5,82.5C 171.5,77.8333 171.5,73.1667 171.5,68.5C 175.993,68.2694 180.326,68.936 184.5,70.5 Z"/></g>
<g><path style="opacity:1" fill="#fdc157" d="M 174.5,71.5 C 178.54,71.1902 181.873,72.5236 184.5,75.5C 182.32,78.7275 179.32,79.8942 175.5,79C 173.168,76.8164 172.835,74.3164 174.5,71.5 Z"/></g>
<g><path style="opacity:0.843" fill="#060101" d="M 137.5,80.5 C 138.873,80.3433 140.207,80.51 141.5,81C 141.167,81.3333 140.833,81.6667 140.5,82C 143.925,83.5984 144.258,85.5984 141.5,88C 139.633,88.7112 138.133,88.2112 137,86.5C 136.51,84.4546 136.677,82.4546 137.5,80.5 Z"/></g>
<g><path style="opacity:1" fill="#20d187" d="M 47.5,84.5 C 45.396,84.7989 43.396,84.4656 41.5,83.5C 40.2723,81.679 38.6056,80.679 36.5,80.5C 34.2941,92.4383 33.9608,104.438 35.5,116.5C 31.9024,105.059 31.5691,93.3923 34.5,81.5C 35.404,80.791 35.7373,79.791 35.5,78.5C 36.8734,78.3433 38.2068,78.51 39.5,79C 42.059,81.103 44.7257,82.9363 47.5,84.5 Z"/></g>
<g><path style="opacity:1" fill="#18d385" d="M 43.5,91.5 C 42.4633,93.6548 41.7966,95.9881 41.5,98.5C 41.8252,103.473 43.1585,108.14 45.5,112.5C 43.2911,111.104 41.7911,109.104 41,106.5C 40.5007,101.511 40.3341,96.5111 40.5,91.5C 41.5,91.5 42.5,91.5 43.5,91.5 Z"/></g>
<g><path style="opacity:1" fill="#055025" d="M 72.5,90.5 C 74.6976,90.8751 76.6976,91.5418 78.5,92.5C 76.5992,92.2465 75.9326,92.5798 76.5,93.5C 76.631,94.2389 76.4643,94.9056 76,95.5C 74.3308,94.1537 73.1642,92.487 72.5,90.5 Z"/></g>
<g><path style="opacity:0.784" fill="#022f12" d="M 122.5,93.5 C 125.287,92.5233 128.287,92.19 131.5,92.5C 132.167,92.5 132.833,92.5 133.5,92.5C 133.918,93.2216 134.584,93.7216 135.5,94C 142.467,94.9973 149.467,95.4973 156.5,95.5C 152.366,96.4849 148.032,96.8182 143.5,96.5C 136.692,95.0616 129.692,94.0616 122.5,93.5 Z"/></g>
<g><path style="opacity:1" fill="#062e12" d="M 86.5,92.5 C 87.1667,92.5 87.8333,92.5 88.5,92.5C 88.9175,93.2216 89.5842,93.7216 90.5,94C 97.4673,94.9973 104.467,95.4973 111.5,95.5C 111.5,95.8333 111.5,96.1667 111.5,96.5C 110.833,96.5 110.167,96.5 109.5,96.5C 100.559,96.6554 91.8926,95.6554 83.5,93.5C 84.209,92.596 85.209,92.2627 86.5,92.5 Z"/></g>
<g><path style="opacity:1" fill="#25bf7d" d="M 78.5,92.5 C 80.2161,92.6287 81.8828,92.962 83.5,93.5C 91.8926,95.6554 100.559,96.6554 109.5,96.5C 98.4381,97.7471 87.4381,96.7471 76.5,93.5C 75.9326,92.5798 76.5992,92.2465 78.5,92.5 Z"/></g>
<g><path style="opacity:0.753" fill="#0e1b0e" d="M 131.5,92.5 C 128.287,92.19 125.287,92.5233 122.5,93.5C 118.915,94.5828 115.249,95.2494 111.5,95.5C 104.467,95.4973 97.4673,94.9973 90.5,94C 89.5842,93.7216 88.9175,93.2216 88.5,92.5C 100.537,95.4594 112.37,94.7928 124,90.5C 126.708,90.8669 129.208,91.5335 131.5,92.5 Z"/></g>
<g><path style="opacity:1" fill="#19c97f" d="M 122.5,93.5 C 129.692,94.0616 136.692,95.0616 143.5,96.5C 136.883,96.8247 130.383,96.1581 124,94.5C 119.723,95.0589 119.556,95.7255 123.5,96.5C 123.737,97.791 123.404,98.791 122.5,99.5C 122.631,98.7611 122.464,98.0944 122,97.5C 118.919,100.293 115.419,102.46 111.5,104C 112.094,104.464 112.761,104.631 113.5,104.5C 112.791,105.404 111.791,105.737 110.5,105.5C 110.96,102.043 112.96,100.377 116.5,100.5C 116.351,99.448 116.517,98.448 117,97.5C 117.893,98.7112 118.726,98.7112 119.5,97.5C 116.914,96.52 114.247,96.1866 111.5,96.5C 111.5,96.1667 111.5,95.8333 111.5,95.5C 115.249,95.2494 118.915,94.5828 122.5,93.5 Z"/></g>
<g><path style="opacity:1" fill="#f0be5e" d="M 168.5,93.5 C 171.316,93.5442 173.649,94.5442 175.5,96.5C 173.072,98.9814 170.072,100.315 166.5,100.5C 162.446,100.79 161.946,100.123 165,98.5C 165.494,96.8659 165.66,95.1992 165.5,93.5C 166.5,93.5 167.5,93.5 168.5,93.5 Z"/></g>
<g><path style="opacity:1" fill="#26cb84" d="M 156.5,95.5 C 157.833,95.5 159.167,95.5 160.5,95.5C 161.774,96.1894 161.774,97.0228 160.5,98C 157.368,99.7818 154.035,100.948 150.5,101.5C 151.79,100.065 153.456,99.0652 155.5,98.5C 151.353,97.833 147.353,97.1663 143.5,96.5C 148.032,96.8182 152.366,96.4849 156.5,95.5 Z"/></g>
<g><path style="opacity:1" fill="#17431b" d="M 160.5,95.5 C 161.348,94.375 162.348,94.375 163.5,95.5C 162.129,98.5259 160.129,100.859 157.5,102.5C 156.646,103.632 156.646,104.965 157.5,106.5C 155.896,105.713 155.229,104.38 155.5,102.5C 153.585,102.784 151.919,102.451 150.5,101.5C 154.035,100.948 157.368,99.7818 160.5,98C 161.774,97.0228 161.774,96.1894 160.5,95.5 Z"/></g>
<g><path style="opacity:1" fill="#d8b36e" d="M 168.5,93.5 C 167.5,93.5 166.5,93.5 165.5,93.5C 165.66,95.1992 165.494,96.8659 165,98.5C 161.946,100.123 162.446,100.79 166.5,100.5C 163.781,101.913 160.781,102.58 157.5,102.5C 160.129,100.859 162.129,98.5259 163.5,95.5C 164.04,91.2399 165.707,90.5733 168.5,93.5 Z"/></g>
<g><path style="opacity:1" fill="#0aed8f" d="M 47.5,84.5 C 49.4523,84.9949 51.4523,85.3282 53.5,85.5C 57.1093,84.5293 60.7759,83.8627 64.5,83.5C 67.1667,85.8333 69.8333,88.1667 72.5,90.5C 73.1642,92.487 74.3308,94.1537 76,95.5C 76.4643,94.9056 76.631,94.2389 76.5,93.5C 87.4381,96.7471 98.4381,97.7471 109.5,96.5C 110.167,96.5 110.833,96.5 111.5,96.5C 114.247,96.1866 116.914,96.52 119.5,97.5C 118.726,98.7112 117.893,98.7112 117,97.5C 116.517,98.448 116.351,99.448 116.5,100.5C 112.96,100.377 110.96,102.043 110.5,105.5C 111.791,105.737 112.791,105.404 113.5,104.5C 116.957,103.606 119.957,101.94 122.5,99.5C 123.404,98.791 123.737,97.791 123.5,96.5C 119.556,95.7255 119.723,95.0589 124,94.5C 130.383,96.1581 136.883,96.8247 143.5,96.5C 147.353,97.1663 151.353,97.833 155.5,98.5C 153.456,99.0652 151.79,100.065 150.5,101.5C 151.919,102.451 153.585,102.784 155.5,102.5C 155.229,104.38 155.896,105.713 157.5,106.5C 157.5,108.167 157.5,109.833 157.5,111.5C 140.167,111.5 122.833,111.5 105.5,111.5C 95.6295,110.783 85.9629,108.95 76.5,106C 67.8985,101.061 59.5652,95.7279 51.5,90C 48.5024,89.1093 45.8357,89.6093 43.5,91.5C 42.5,91.5 41.5,91.5 40.5,91.5C 40.3341,96.5111 40.5007,101.511 41,106.5C 41.7911,109.104 43.2911,111.104 45.5,112.5C 52.8296,121.506 61.8296,128.173 72.5,132.5C 72.8333,133.167 73.1667,133.833 73.5,134.5C 73.5,135.833 73.5,137.167 73.5,138.5C 70.8333,138.5 68.1667,138.5 65.5,138.5C 65.9796,142.619 68.1462,143.619 72,141.5C 73.8715,141.709 75.0381,142.709 75.5,144.5C 71.878,145.659 68.2113,145.825 64.5,145C 63.0096,144.255 62.0096,143.088 61.5,141.5C 62.7323,139.95 63.2323,138.283 63,136.5C 61.0666,134.442 59.2333,132.275 57.5,130C 54.9503,128.44 52.617,128.94 50.5,131.5C 49.1934,130.184 47.6934,129.184 46,128.5C 45.2586,131.112 46.2586,132.778 49,133.5C 50.5588,135.217 51.3921,137.217 51.5,139.5C 50.1667,139.167 48.8333,138.833 47.5,138.5C 41.9293,132.025 37.9293,124.692 35.5,116.5C 33.9608,104.438 34.2941,92.4383 36.5,80.5C 38.6056,80.679 40.2723,81.679 41.5,83.5C 43.396,84.4656 45.396,84.7989 47.5,84.5 Z"/></g>
<g><path style="opacity:1" fill="#004414" d="M 122.5,99.5 C 119.957,101.94 116.957,103.606 113.5,104.5C 112.761,104.631 112.094,104.464 111.5,104C 115.419,102.46 118.919,100.293 122,97.5C 122.464,98.0944 122.631,98.7611 122.5,99.5 Z"/></g>
<g><path style="opacity:0.923" fill="#08190a" d="M 157.5,102.5 C 157.833,103.167 158.167,103.833 158.5,104.5C 160.278,109.352 162.611,113.852 165.5,118C 165.174,120.844 163.84,123.011 161.5,124.5C 155.959,136.191 147.626,145.525 136.5,152.5C 134.409,153.865 132.076,154.532 129.5,154.5C 130.795,153.512 132.128,152.512 133.5,151.5C 138.374,148.893 142.708,145.56 146.5,141.5C 147.931,139.563 149.598,137.73 151.5,136C 150.906,135.536 150.239,135.369 149.5,135.5C 150.5,134.833 151.5,134.167 152.5,133.5C 156.13,132.391 157.963,130.058 158,126.5C 157.617,125.944 157.117,125.611 156.5,125.5C 156.5,124.833 156.5,124.167 156.5,123.5C 157.791,123.737 158.791,123.404 159.5,122.5C 160.167,122.5 160.5,122.167 160.5,121.5C 162.441,119.989 162.941,117.989 162,115.5C 160.591,114.219 159.091,113.219 157.5,112.5C 157.5,112.167 157.5,111.833 157.5,111.5C 157.5,109.833 157.5,108.167 157.5,106.5C 156.646,104.965 156.646,103.632 157.5,102.5 Z"/></g>
<g><path style="opacity:1" fill="#01421c" d="M 105.5,111.5 C 122.833,111.5 140.167,111.5 157.5,111.5C 157.5,111.833 157.5,112.167 157.5,112.5C 140.006,113.641 122.672,113.641 105.5,112.5C 105.5,112.167 105.5,111.833 105.5,111.5 Z"/></g>
<g><path style="opacity:1" fill="#014c1c" d="M 105.5,111.5 C 105.5,111.833 105.5,112.167 105.5,112.5C 101.131,112.533 96.7978,112.2 92.5,111.5C 85.9129,111.139 79.5795,109.639 73.5,107C 67.2206,103.054 61.2206,98.7206 55.5,94C 51.4528,91.9268 47.6195,92.0935 44,94.5C 42.4808,101.184 43.8141,107.184 48,112.5C 52.4743,117.82 57.6409,122.154 63.5,125.5C 68.7857,129.262 74.7857,131.262 81.5,131.5C 82.1667,131.5 82.8333,131.5 83.5,131.5C 87.2335,132.977 91.2335,133.811 95.5,134C 113.005,134.829 130.338,134.662 147.5,133.5C 148.167,133.5 148.833,133.5 149.5,133.5C 150.5,133.5 151.5,133.5 152.5,133.5C 151.5,134.167 150.5,134.833 149.5,135.5C 132.854,136.409 116.188,136.742 99.5,136.5C 90.5561,135.653 81.5561,134.32 72.5,132.5C 61.8296,128.173 52.8296,121.506 45.5,112.5C 43.1585,108.14 41.8252,103.473 41.5,98.5C 41.7966,95.9881 42.4633,93.6548 43.5,91.5C 45.8357,89.6093 48.5024,89.1093 51.5,90C 59.5652,95.7279 67.8985,101.061 76.5,106C 85.9629,108.95 95.6295,110.783 105.5,111.5 Z"/></g>
<g><path style="opacity:1" fill="#22da8d" d="M 92.5,111.5 C 96.7978,112.2 101.131,112.533 105.5,112.5C 122.672,113.641 140.006,113.641 157.5,112.5C 159.091,113.219 160.591,114.219 162,115.5C 162.941,117.989 162.441,119.989 160.5,121.5C 160.756,119.208 160.423,117.041 159.5,115C 140.167,114.667 120.833,114.333 101.5,114C 98.2026,113.796 95.2026,112.963 92.5,111.5 Z"/></g>
<g><path style="opacity:1" fill="#09f090" d="M 92.5,111.5 C 95.2026,112.963 98.2026,113.796 101.5,114C 120.833,114.333 140.167,114.667 159.5,115C 160.423,117.041 160.756,119.208 160.5,121.5C 160.5,122.167 160.167,122.5 159.5,122.5C 130.189,122.972 101.189,120.972 72.5,116.5C 64.167,114.324 57.5003,109.657 52.5,102.5C 51.479,103.002 51.3123,103.668 52,104.5C 56.2436,109.415 61.0769,113.581 66.5,117C 75.5338,120.425 84.8671,122.592 94.5,123.5C 102.275,125.052 110.275,125.886 118.5,126C 130.829,126.5 143.162,126.667 155.5,126.5C 155.5,127.833 155.5,129.167 155.5,130.5C 153.216,131.029 151.216,132.029 149.5,133.5C 148.833,133.5 148.167,133.5 147.5,133.5C 126.097,133.996 104.764,133.329 83.5,131.5C 82.8333,131.5 82.1667,131.5 81.5,131.5C 80.3998,130.442 79.0664,129.608 77.5,129C 72.9269,127.622 68.2602,126.456 63.5,125.5C 57.6409,122.154 52.4743,117.82 48,112.5C 43.8141,107.184 42.4808,101.184 44,94.5C 47.6195,92.0935 51.4528,91.9268 55.5,94C 61.2206,98.7206 67.2206,103.054 73.5,107C 79.5795,109.639 85.9129,111.139 92.5,111.5 Z"/></g>
<g><path style="opacity:1" fill="#014b1f" d="M 72.5,116.5 C 83.6991,120.465 95.3658,122.632 107.5,123C 123.83,123.5 140.163,123.667 156.5,123.5C 156.5,124.167 156.5,124.833 156.5,125.5C 135.8,125.715 115.134,125.049 94.5,123.5C 84.8671,122.592 75.5338,120.425 66.5,117C 61.0769,113.581 56.2436,109.415 52,104.5C 51.3123,103.668 51.479,103.002 52.5,102.5C 57.5003,109.657 64.167,114.324 72.5,116.5 Z"/></g>
<g><path style="opacity:1" fill="#1ccf84" d="M 72.5,116.5 C 101.189,120.972 130.189,122.972 159.5,122.5C 158.791,123.404 157.791,123.737 156.5,123.5C 140.163,123.667 123.83,123.5 107.5,123C 95.3658,122.632 83.6991,120.465 72.5,116.5 Z"/></g>
<g><path style="opacity:1" fill="#20cc84" d="M 94.5,123.5 C 115.134,125.049 135.8,125.715 156.5,125.5C 157.117,125.611 157.617,125.944 158,126.5C 157.963,130.058 156.13,132.391 152.5,133.5C 151.5,133.5 150.5,133.5 149.5,133.5C 151.216,132.029 153.216,131.029 155.5,130.5C 155.5,129.167 155.5,127.833 155.5,126.5C 143.162,126.667 130.829,126.5 118.5,126C 110.275,125.886 102.275,125.052 94.5,123.5 Z"/></g>
<g><path style="opacity:1" fill="#1dd488" d="M 63.5,125.5 C 68.2602,126.456 72.9269,127.622 77.5,129C 79.0664,129.608 80.3998,130.442 81.5,131.5C 74.7857,131.262 68.7857,129.262 63.5,125.5 Z"/></g>
<g><path style="opacity:0.714" fill="#091d0c" d="M 34.5,78.5 C 34.5,79.5 34.5,80.5 34.5,81.5C 31.5691,93.3923 31.9024,105.059 35.5,116.5C 37.9293,124.692 41.9293,132.025 47.5,138.5C 52.9072,145.022 59.2405,150.356 66.5,154.5C 64.3792,154.675 62.3792,154.341 60.5,153.5C 33.8928,134.637 25.2262,109.637 34.5,78.5 Z"/></g>
<g><path style="opacity:1" fill="#27d78e" d="M 83.5,131.5 C 104.764,133.329 126.097,133.996 147.5,133.5C 130.338,134.662 113.005,134.829 95.5,134C 91.2335,133.811 87.2335,132.977 83.5,131.5 Z"/></g>
<g><path style="opacity:1" fill="#02f38f" d="M 73.5,134.5 C 96.6082,138.193 119.941,139.526 143.5,138.5C 143.5,139.833 143.5,141.167 143.5,142.5C 141.234,142.141 139.401,142.808 138,144.5C 137.667,144.167 137.333,143.833 137,143.5C 136.5,144.667 135.667,145.5 134.5,146C 135.552,147.716 134.886,148.716 132.5,149C 133.252,149.671 133.586,150.504 133.5,151.5C 132.128,152.512 130.795,153.512 129.5,154.5C 127.883,155.038 126.216,155.371 124.5,155.5C 117.783,157.075 111.117,158.575 104.5,160C 97.4905,160.423 90.4905,160.256 83.5,159.5C 82.8333,159.5 82.1667,159.5 81.5,159.5C 78.6598,156.193 74.9932,154.359 70.5,154C 67.3911,150.986 63.7244,148.819 59.5,147.5C 58.209,145.041 56.209,143.541 53.5,143C 52.695,141.887 52.0283,140.721 51.5,139.5C 51.3921,137.217 50.5588,135.217 49,133.5C 46.2586,132.778 45.2586,131.112 46,128.5C 47.6934,129.184 49.1934,130.184 50.5,131.5C 52.617,128.94 54.9503,128.44 57.5,130C 59.2333,132.275 61.0666,134.442 63,136.5C 63.2323,138.283 62.7323,139.95 61.5,141.5C 62.0096,143.088 63.0096,144.255 64.5,145C 68.2113,145.825 71.878,145.659 75.5,144.5C 75.0381,142.709 73.8715,141.709 72,141.5C 68.1462,143.619 65.9796,142.619 65.5,138.5C 68.1667,138.5 70.8333,138.5 73.5,138.5C 73.5,137.167 73.5,135.833 73.5,134.5 Z"/></g>
<g><path style="opacity:1" fill="#27b577" d="M 149.5,135.5 C 150.239,135.369 150.906,135.536 151.5,136C 149.598,137.73 147.931,139.563 146.5,141.5C 146.5,140.167 146.5,138.833 146.5,137.5C 130.658,137.83 114.991,137.496 99.5,136.5C 116.188,136.742 132.854,136.409 149.5,135.5 Z"/></g>
<g><path style="opacity:1" fill="#17e48f" d="M 72.5,132.5 C 81.5561,134.32 90.5561,135.653 99.5,136.5C 114.991,137.496 130.658,137.83 146.5,137.5C 146.5,138.833 146.5,140.167 146.5,141.5C 142.708,145.56 138.374,148.893 133.5,151.5C 133.586,150.504 133.252,149.671 132.5,149C 134.886,148.716 135.552,147.716 134.5,146C 135.667,145.5 136.5,144.667 137,143.5C 137.333,143.833 137.667,144.167 138,144.5C 139.401,142.808 141.234,142.141 143.5,142.5C 143.5,141.167 143.5,139.833 143.5,138.5C 119.941,139.526 96.6082,138.193 73.5,134.5C 73.1667,133.833 72.8333,133.167 72.5,132.5 Z"/></g>
<g><path style="opacity:0.998" fill="#010000" d="M 60.5,153.5 C 62.3792,154.341 64.3792,154.675 66.5,154.5C 69.9079,155.842 73.2412,157.175 76.5,158.5C 75.4937,159.396 75.4937,160.062 76.5,160.5C 79.7512,173.262 81.4178,186.262 81.5,199.5C 61.5,199.5 41.5,199.5 21.5,199.5C 25.0988,176.232 38.0988,160.899 60.5,153.5 Z"/></g>
<g><path style="opacity:1" fill="#1ad085" d="M 47.5,138.5 C 48.8333,138.833 50.1667,139.167 51.5,139.5C 52.0283,140.721 52.695,141.887 53.5,143C 56.209,143.541 58.209,145.041 59.5,147.5C 63.7244,148.819 67.3911,150.986 70.5,154C 74.9932,154.359 78.6598,156.193 81.5,159.5C 79.8828,158.962 78.2161,158.629 76.5,158.5C 73.2412,157.175 69.9079,155.842 66.5,154.5C 59.2405,150.356 52.9072,145.022 47.5,138.5 Z"/></g>
<g><path style="opacity:0.986" fill="#010000" d="M 136.5,152.5 C 160.097,159.435 173.764,175.101 177.5,199.5C 161.833,199.5 146.167,199.5 130.5,199.5C 130.442,185.231 129.108,171.231 126.5,157.5C 127.9,156.9 128.9,155.9 129.5,154.5C 132.076,154.532 134.409,153.865 136.5,152.5 Z"/></g>
<g><path style="opacity:1" fill="#1bbe7a" d="M 124.5,155.5 C 123.4,156.558 122.066,157.392 120.5,158C 110.045,161.2 99.3788,162.2 88.5,161C 86.6183,160.802 84.9516,160.302 83.5,159.5C 90.4905,160.256 97.4905,160.423 104.5,160C 111.117,158.575 117.783,157.075 124.5,155.5 Z"/></g>
<g><path style="opacity:0.851" fill="#091e0c" d="M 129.5,154.5 C 128.9,155.9 127.9,156.9 126.5,157.5C 110.296,164.257 93.6295,165.257 76.5,160.5C 75.4937,160.062 75.4937,159.396 76.5,158.5C 78.2161,158.629 79.8828,158.962 81.5,159.5C 82.1667,159.5 82.8333,159.5 83.5,159.5C 84.9516,160.302 86.6183,160.802 88.5,161C 99.3788,162.2 110.045,161.2 120.5,158C 122.066,157.392 123.4,156.558 124.5,155.5C 126.216,155.371 127.883,155.038 129.5,154.5 Z"/></g>
<g><path style="opacity:0.651" fill="#090302" d="M 119.5,165.5 C 120.5,165.5 121.5,165.5 122.5,165.5C 122.666,170.844 122.499,176.177 122,181.5C 121.612,182.428 120.945,183.095 120,183.5C 115,181.5 110,179.5 105,177.5C 100.381,180.226 95.5474,182.559 90.5,184.5C 89.1552,183.653 88.1552,182.487 87.5,181C 87.276,176.437 87.276,171.771 87.5,167C 93.5721,167.8 99.4055,169.634 105,172.5C 109.711,169.727 114.544,167.393 119.5,165.5 Z M 117.5,169.5 C 118.777,170.694 119.444,172.36 119.5,174.5C 119.333,176.167 119.167,177.833 119,179.5C 115.183,178.005 111.35,176.505 107.5,175C 111.056,173.392 114.389,171.559 117.5,169.5 Z M 90.5,170.5 C 94.5151,171.895 98.5151,173.395 102.5,175C 98.9212,176.706 95.4212,178.539 92,180.5C 90.8011,177.274 90.3011,173.941 90.5,170.5 Z"/></g>
</svg>
