<?xml version="1.0" standalone="no"?>
<!DOCTYPE svg PUBLIC "-//W3C//DTD SVG 20010904//EN"
 "http://www.w3.org/TR/2001/REC-SVG-20010904/DTD/svg10.dtd">
<svg version="1.0" xmlns="http://www.w3.org/2000/svg"
 width="200.000000pt" height="200.000000pt" viewBox="0 0 200.000000 200.000000"
 preserveAspectRatio="xMidYMid meet">

<g transform="translate(0.000000,200.000000) scale(0.100000,-0.100000)"
fill="#000000" stroke="none">
<path d="M356 1196 c-58 -22 -114 -82 -132 -141 -27 -92 5 -184 84 -239 58
-41 158 -49 219 -17 115 58 153 195 87 308 -47 81 -168 122 -258 89z m131
-128 c31 -26 45 -67 33 -103 -22 -66 -95 -85 -149 -39 -50 42 -41 117 17 149
29 16 75 13 99 -7z"/>
<path d="M1155 1195 c-57 -20 -121 -93 -134 -154 -14 -65 -4 -114 33 -169 72
-107 229 -126 324 -39 l22 20 23 -20 c46 -42 86 -55 158 -51 56 3 76 9 111 34
184 129 71 420 -151 390 -46 -6 -131 -50 -131 -67 0 -5 -16 2 -35 17 -68 52
-145 66 -220 39z m138 -133 c44 -39 41 -114 -6 -147 -77 -54 -182 42 -137 125
26 48 101 60 143 22z m317 13 c60 -31 70 -107 19 -149 -55 -46 -127 -27 -149
40 -10 29 -9 39 7 67 19 31 55 57 81 57 7 0 26 -7 42 -15z"/>
<path d="M690 995 l0 -205 60 0 60 0 0 205 0 205 -60 0 -60 0 0 -205z"/>
<path d="M850 995 l0 -205 60 0 60 0 0 205 0 205 -60 0 -60 0 0 -205z"/>
</g>
</svg>
