<?xml version="1.0" encoding="UTF-8"?>
<!DOCTYPE svg PUBLIC "-//W3C//DTD SVG 1.1//EN" "http://www.w3.org/Graphics/SVG/1.1/DTD/svg11.dtd">
<svg xmlns="http://www.w3.org/2000/svg" version="1.1" width="200px" height="200px" style="shape-rendering:geometricPrecision; text-rendering:geometricPrecision; image-rendering:optimizeQuality; fill-rule:evenodd; clip-rule:evenodd" xmlns:xlink="http://www.w3.org/1999/xlink">
<g><path style="opacity:0.984" fill="#050505" d="M 83.5,-0.5 C 94.1667,-0.5 104.833,-0.5 115.5,-0.5C 161.585,9.91821 189.585,38.2515 199.5,84.5C 199.5,94.1667 199.5,103.833 199.5,113.5C 189.616,162.05 160.283,190.717 111.5,199.5C 103.5,199.5 95.5,199.5 87.5,199.5C 38.7173,190.717 9.38399,162.05 -0.5,113.5C -0.5,103.833 -0.5,94.1667 -0.5,84.5C 9.41331,38.2535 37.4133,9.92022 83.5,-0.5 Z"/></g>
<g><path style="opacity:1" fill="#d1d1d1" d="M 104.5,16.5 C 112.744,16.2276 115.078,19.7276 111.5,27C 107.543,29.3854 104.376,28.5521 102,24.5C 101.018,21.2253 101.851,18.5586 104.5,16.5 Z"/></g>
<g><path style="opacity:1" fill="#919191" d="M 105.5,18.5 C 110.539,18.4511 110.705,19.1177 106,20.5C 105.667,21.8333 105.333,23.1667 105,24.5C 103.09,22.3733 103.257,20.3733 105.5,18.5 Z"/></g>
<g><path style="opacity:1" fill="#ececec" d="M 104.5,31.5 C 113.865,30.9358 115.865,34.4358 110.5,42C 105.345,43.6773 102.345,41.8439 101.5,36.5C 102.092,34.5775 103.092,32.9108 104.5,31.5 Z"/></g>
<g><path style="opacity:1" fill="#d4d4d4" d="M 135.5,30.5 C 141.82,30.3196 144.32,33.3196 143,39.5C 135.363,44.8822 132.029,42.8822 133,33.5C 134.045,32.6266 134.878,31.6266 135.5,30.5 Z"/></g>
<g><path style="opacity:1" fill="#878787" d="M 135.5,33.5 C 141.158,32.6794 142.825,34.846 140.5,40C 134.741,41.1387 133.074,38.972 135.5,33.5 Z"/></g>
<g><path style="opacity:1" fill="#f4f4f4" d="M 136.5,34.5 C 140.161,34.3501 141.161,35.8501 139.5,39C 135.707,39.4866 134.707,37.9866 136.5,34.5 Z"/></g>
<g><path style="opacity:1" fill="#cacaca" d="M 75.5,30.5 C 83.9568,31.437 85.6235,35.2703 80.5,42C 74.2124,43.378 71.3791,40.878 72,34.5C 73.3756,33.2949 74.5423,31.9616 75.5,30.5 Z"/></g>
<g><path style="opacity:1" fill="#e6e6e6" d="M 74.5,45.5 C 82.8068,45.2804 85.1402,48.7804 81.5,56C 75.7867,59.0594 72.4533,57.3927 71.5,51C 71.8627,48.8077 72.8627,46.9744 74.5,45.5 Z"/></g>
<g><path style="opacity:1" fill="#e5e5e5" d="M 105.5,45.5 C 111.82,45.3196 114.32,48.3196 113,54.5C 108.837,58.7475 105.171,58.4141 102,53.5C 101.279,49.9463 102.446,47.2796 105.5,45.5 Z"/></g>
<g><path style="opacity:1" fill="#eeeeee" d="M 135.5,45.5 C 141.82,45.3196 144.32,48.3196 143,54.5C 139.667,58.5 136.333,58.5 133,54.5C 131.927,50.9003 132.76,47.9003 135.5,45.5 Z"/></g>
<g><path style="opacity:1" fill="#a7a7a7" d="M 94.5,46.5 C 93.1266,46.3433 91.7932,46.51 90.5,47C 96.4623,47.5889 97.7956,50.2555 94.5,55C 90.2774,55.7867 88.1107,53.9534 88,49.5C 87.51,50.7932 87.3433,52.1266 87.5,53.5C 85.9257,50.5696 86.5924,48.0696 89.5,46C 91.3869,45.2204 93.0536,45.3871 94.5,46.5 Z"/></g>
<g><path style="opacity:1" fill="#d7d7d7" d="M 44.5,45.5 C 50.1696,45.3392 53.0029,48.0058 53,53.5C 49.6453,58.3104 45.9786,58.6438 42,54.5C 40.9271,50.9003 41.7605,47.9003 44.5,45.5 Z"/></g>
<g><path style="opacity:1" fill="#979797" d="M 44.5,53.5 C 42.8887,50.6684 43.722,48.6684 47,47.5C 51.4665,48.9136 52.2998,51.4136 49.5,55C 47.3258,55.8769 45.6591,55.3769 44.5,53.5 Z"/></g>
<g><path style="opacity:1" fill="#f2f2f2" d="M 44.5,53.5 C 44.3838,50.0897 46.0504,48.7564 49.5,49.5C 50.0826,53.9294 48.4159,55.2628 44.5,53.5 Z"/></g>
<g><path style="opacity:1" fill="#d5d5d5" d="M 94.5,46.5 C 98.254,47.8276 99.4207,50.4942 98,54.5C 95.7897,57.2896 92.9563,58.123 89.5,57C 88.1772,56.1841 87.5106,55.0174 87.5,53.5C 87.3433,52.1266 87.51,50.7932 88,49.5C 88.1107,53.9534 90.2774,55.7867 94.5,55C 97.7956,50.2555 96.4623,47.5889 90.5,47C 91.7932,46.51 93.1266,46.3433 94.5,46.5 Z"/></g>
<g><path style="opacity:1" fill="#f4f4f4" d="M 90.5,49.5 C 91.8734,49.3433 93.2068,49.51 94.5,50C 95.474,52.702 94.474,54.0354 91.5,54C 90.6198,52.6439 90.2865,51.1439 90.5,49.5 Z"/></g>
<g><path style="opacity:1" fill="#e7e7e7" d="M 44.5,60.5 C 54.2275,61.0321 55.8942,64.8655 49.5,72C 43.1714,72.6675 40.6714,69.8342 42,63.5C 43.045,62.6266 43.8783,61.6266 44.5,60.5 Z"/></g>
<g><path style="opacity:1" fill="#e9e9e9" d="M 74.5,60.5 C 84.2156,60.9455 85.8823,64.7789 79.5,72C 76.083,72.8756 73.583,71.709 72,68.5C 71.0182,65.2253 71.8515,62.5586 74.5,60.5 Z"/></g>
<g><path style="opacity:1" fill="#e8e8e8" d="M 89.5,60.5 C 97.7443,60.2276 100.078,63.7276 96.5,71C 92.5431,73.3854 89.3764,72.5521 87,68.5C 86.0182,65.2253 86.8515,62.5586 89.5,60.5 Z"/></g>
<g><path style="opacity:1" fill="#e7e7e7" d="M 104.5,60.5 C 112.744,60.2276 115.078,63.7276 111.5,71C 107.543,73.3854 104.376,72.5521 102,68.5C 101.018,65.2253 101.851,62.5586 104.5,60.5 Z"/></g>
<g><path style="opacity:1" fill="#eaeaea" d="M 134.5,60.5 C 141.468,59.7163 144.302,62.7163 143,69.5C 139.667,73.5 136.333,73.5 133,69.5C 132.068,66.1769 132.568,63.1769 134.5,60.5 Z"/></g>
<g><path style="opacity:1" fill="#d9d9d9" d="M 149.5,60.5 C 156.99,59.3019 159.823,62.3019 158,69.5C 154.667,73.5 151.333,73.5 148,69.5C 147.068,66.1769 147.568,63.1769 149.5,60.5 Z"/></g>
<g><path style="opacity:1" fill="#8c8c8c" d="M 150.5,62.5 C 155.675,61.5071 157.509,63.5071 156,68.5C 155.667,67.1667 155.333,65.8333 155,64.5C 152.833,63 151.333,63.5 150.5,66C 150.759,67.2613 151.426,68.2613 152.5,69C 151.551,69.6172 150.718,69.4506 150,68.5C 149.322,66.4024 149.489,64.4024 150.5,62.5 Z"/></g>
<g><path style="opacity:1" fill="#d2d2d2" d="M 119.5,60.5 C 126.468,59.7163 129.302,62.7163 128,69.5C 124.667,73.5 121.333,73.5 118,69.5C 117.068,66.1769 117.568,63.1769 119.5,60.5 Z"/></g>
<g><path style="opacity:1" fill="#d6d6d6" d="M 59.5,60.5 C 69.2156,60.9455 70.8823,64.7789 64.5,72C 61.083,72.8756 58.583,71.709 57,68.5C 56.0182,65.2253 56.8515,62.5586 59.5,60.5 Z"/></g>
<g><path style="opacity:1" fill="#8e8e8e" d="M 60.5,62.5 C 62.4286,62.2308 64.0953,62.7308 65.5,64C 63.3309,62.8862 61.4976,63.3862 60,65.5C 59.4926,66.9961 59.9926,68.1627 61.5,69C 59.5269,69.5378 58.5269,68.7044 58.5,66.5C 58.7517,64.9271 59.4183,63.5938 60.5,62.5 Z"/></g>
<g><path style="opacity:1" fill="#a1a1a1" d="M 120.5,68.5 C 118.319,63.5068 119.986,61.6735 125.5,63C 127.286,66.4269 126.452,68.9269 123,70.5C 121.699,70.3613 120.866,69.6946 120.5,68.5 Z"/></g>
<g><path style="opacity:1" fill="#f3f3f3" d="M 120.5,68.5 C 119.737,64.8622 121.07,63.3622 124.5,64C 126.009,67.6693 124.676,69.1693 120.5,68.5 Z"/></g>
<g><path style="opacity:1" fill="#eaeaea" d="M 43.5,75.5 C 50.3272,74.1737 53.4939,76.8404 53,83.5C 49.2884,87.4153 45.6218,87.4153 42,83.5C 41.1093,80.5024 41.6093,77.8357 43.5,75.5 Z"/></g>
<g><path style="opacity:1" fill="#ececec" d="M 58.5,75.5 C 65.3272,74.1737 68.4939,76.8404 68,83.5C 64.3333,87.5 60.6667,87.5 57,83.5C 56.2815,80.5929 56.7815,77.9262 58.5,75.5 Z"/></g>
<g><path style="opacity:1" fill="#eeeeee" d="M 74.5,75.5 C 80.8302,74.6662 83.6635,77.3329 83,83.5C 79.3333,87.5 75.6667,87.5 72,83.5C 71.0182,80.2253 71.8515,77.5586 74.5,75.5 Z"/></g>
<g><path style="opacity:1" fill="#efefef" d="M 89.5,75.5 C 95.8302,74.6662 98.6635,77.3329 98,83.5C 94.3333,87.5 90.6667,87.5 87,83.5C 86.0182,80.2253 86.8515,77.5586 89.5,75.5 Z"/></g>
<g><path style="opacity:1" fill="#ededed" d="M 104.5,75.5 C 110.83,74.6662 113.663,77.3329 113,83.5C 109.333,87.5 105.667,87.5 102,83.5C 101.018,80.2253 101.851,77.5586 104.5,75.5 Z"/></g>
<g><path style="opacity:1" fill="#f3f3f3" d="M 119.5,75.5 C 125.861,74.6972 128.694,77.3639 128,83.5C 124.952,87.0095 121.619,87.3428 118,84.5C 117.068,81.1769 117.568,78.1769 119.5,75.5 Z"/></g>
<g><path style="opacity:1" fill="#eeeeee" d="M 134.5,75.5 C 143.487,74.665 145.82,78.165 141.5,86C 132.43,87.1356 130.096,83.6356 134.5,75.5 Z"/></g>
<g><path style="opacity:1" fill="#f0f0f0" d="M 149.5,75.5 C 158.487,74.665 160.82,78.165 156.5,86C 150.963,87.9853 147.963,86.152 147.5,80.5C 147.437,78.4861 148.103,76.8194 149.5,75.5 Z"/></g>
<g><path style="opacity:1" fill="#d9d9d9" d="M 28.5,75.5 C 37.4867,74.665 39.8201,78.165 35.5,86C 29.9633,87.9853 26.9633,86.152 26.5,80.5C 26.4365,78.4861 27.1032,76.8194 28.5,75.5 Z"/></g>
<g><path style="opacity:1" fill="#959595" d="M 29.5,77.5 C 35.1581,76.6794 36.8248,78.846 34.5,84C 28.741,85.1387 27.0744,82.972 29.5,77.5 Z"/></g>
<g><path style="opacity:1" fill="#f5f5f5" d="M 30.5,78.5 C 34.1612,78.3501 35.1612,79.8501 33.5,83C 29.7071,83.4866 28.7071,81.9866 30.5,78.5 Z"/></g>
<g><path style="opacity:1" fill="#dbdbdb" d="M 164.5,75.5 C 173.487,74.665 175.82,78.165 171.5,86C 165.963,87.9853 162.963,86.152 162.5,80.5C 162.437,78.4861 163.103,76.8194 164.5,75.5 Z"/></g>
<g><path style="opacity:1" fill="#909090" d="M 165.5,77.5 C 167.467,77.2606 169.301,77.5939 171,78.5C 171.667,79.1667 171.667,79.8333 171,80.5C 168.778,77.6967 166.945,77.8634 165.5,81C 166.945,84.1366 168.778,84.3033 171,81.5C 171.617,82.4491 171.451,83.2825 170.5,84C 164.741,85.1387 163.074,82.972 165.5,77.5 Z"/></g>
<g><path style="opacity:1" fill="#ededed" d="M 29.5,89.5 C 35.8197,89.3196 38.3197,92.3196 37,98.5C 33.714,102.485 30.3807,102.485 27,98.5C 25.9271,94.9003 26.7605,91.9003 29.5,89.5 Z"/></g>
<g><path style="opacity:1" fill="#e7e7e7" d="M 44.5,89.5 C 48.2727,88.8224 51.106,90.1558 53,93.5C 53.9169,98.3275 51.9169,100.994 47,101.5C 41.9768,100.458 40.3101,97.4578 42,92.5C 43.045,91.6266 43.8783,90.6266 44.5,89.5 Z"/></g>
<g><path style="opacity:1" fill="#e7e7e7" d="M 59.5,89.5 C 67.3994,89.5389 69.7327,93.0389 66.5,100C 59.2434,102.746 56.0768,100.246 57,92.5C 58.045,91.6266 58.8783,90.6266 59.5,89.5 Z"/></g>
<g><path style="opacity:1" fill="#e6e6e6" d="M 75.5,89.5 C 83.6648,90.6555 85.3314,94.4888 80.5,101C 74.1658,102.329 71.3325,99.8286 72,93.5C 72.6897,91.6498 73.8564,90.3164 75.5,89.5 Z"/></g>
<g><path style="opacity:1" fill="#e5e5e5" d="M 90.5,89.5 C 98.9568,90.437 100.624,94.2703 95.5,101C 89.1658,102.329 86.3325,99.8286 87,93.5C 87.6897,91.6498 88.8564,90.3164 90.5,89.5 Z"/></g>
<g><path style="opacity:1" fill="#e8e8e8" d="M 105.5,89.5 C 113.957,90.437 115.624,94.2703 110.5,101C 104.212,102.378 101.379,99.878 102,93.5C 103.376,92.2949 104.542,90.9616 105.5,89.5 Z"/></g>
<g><path style="opacity:1" fill="#ebebeb" d="M 120.5,89.5 C 126.82,89.3196 129.32,92.3196 128,98.5C 124.952,102.01 121.619,102.343 118,99.5C 116.861,95.5789 117.695,92.2456 120.5,89.5 Z"/></g>
<g><path style="opacity:1" fill="#ededed" d="M 135.5,89.5 C 141.82,89.3196 144.32,92.3196 143,98.5C 139.667,102.5 136.333,102.5 133,98.5C 131.927,94.9003 132.76,91.9003 135.5,89.5 Z"/></g>
<g><path style="opacity:1" fill="#ededed" d="M 150.5,89.5 C 156.82,89.3196 159.32,92.3196 158,98.5C 154.714,102.485 151.381,102.485 148,98.5C 146.927,94.9003 147.76,91.9003 150.5,89.5 Z"/></g>
<g><path style="opacity:1" fill="#e7e7e7" d="M 165.5,89.5 C 169.273,88.8224 172.106,90.1558 174,93.5C 174.917,98.3275 172.917,100.994 168,101.5C 162.977,100.458 161.31,97.4578 163,92.5C 164.045,91.6266 164.878,90.6266 165.5,89.5 Z"/></g>
<g><path style="opacity:1" fill="#d4d4d4" d="M 14.5,89.5 C 22.5204,89.3918 24.8538,92.8918 21.5,100C 15.7867,103.059 12.4533,101.393 11.5,95C 11.8627,92.8077 12.8627,90.9744 14.5,89.5 Z"/></g>
<g><path style="opacity:1" fill="#9b9b9b" d="M 15.5,91.5 C 21.5006,91.7414 22.8339,94.2414 19.5,99C 13.4034,99.1475 12.0701,96.6475 15.5,91.5 Z"/></g>
<g><path style="opacity:1" fill="#f5f5f5" d="M 15.5,93.5 C 16.8333,93.5 18.1667,93.5 19.5,93.5C 19.8841,95.6648 19.2174,97.3315 17.5,98.5C 15.7826,97.3315 15.1159,95.6648 15.5,93.5 Z"/></g>
<g><path style="opacity:1" fill="#d4d4d4" d="M 180.5,89.5 C 184.273,88.8224 187.106,90.1558 189,93.5C 189.917,98.3275 187.917,100.994 183,101.5C 177.977,100.458 176.31,97.4578 178,92.5C 179.045,91.6266 179.878,90.6266 180.5,89.5 Z"/></g>
<g><path style="opacity:1" fill="#a2a2a2" d="M 185.5,93.5 C 188.374,96.6927 187.541,98.6927 183,99.5C 179.933,98.598 178.933,96.598 180,93.5C 181.969,90.8761 183.802,90.8761 185.5,93.5 Z"/></g>
<g><path style="opacity:1" fill="#f6f6f6" d="M 185.5,93.5 C 185.884,95.6648 185.217,97.3315 183.5,98.5C 181.783,97.3315 181.116,95.6648 181.5,93.5C 182.833,93.5 184.167,93.5 185.5,93.5 Z"/></g>
<g><path style="opacity:1" fill="#ababab" d="M 110.5,105.5 C 108.097,105.448 105.764,105.781 103.5,106.5C 104.312,105.007 105.645,104.34 107.5,104.5C 108.726,104.52 109.726,104.853 110.5,105.5 Z"/></g>
<g><path style="opacity:1" fill="#e9e9e9" d="M 44.5,104.5 C 50.8057,103.707 53.639,106.374 53,112.5C 49.6453,117.31 45.9786,117.644 42,113.5C 40.9271,109.9 41.7605,106.9 44.5,104.5 Z"/></g>
<g><path style="opacity:1" fill="#e7e7e7" d="M 59.5,104.5 C 69.2356,105.09 70.9023,108.924 64.5,116C 58.1714,116.668 55.6714,113.834 57,107.5C 58.045,106.627 58.8783,105.627 59.5,104.5 Z"/></g>
<g><path style="opacity:1" fill="#e6e6e6" d="M 74.5,104.5 C 82.8068,104.28 85.1402,107.78 81.5,115C 75.7867,118.059 72.4533,116.393 71.5,110C 71.8627,107.808 72.8627,105.974 74.5,104.5 Z"/></g>
<g><path style="opacity:1" fill="#e7e7e7" d="M 89.5,104.5 C 97.8068,104.28 100.14,107.78 96.5,115C 90.7867,118.059 87.4533,116.393 86.5,110C 86.8627,107.808 87.8627,105.974 89.5,104.5 Z"/></g>
<g><path style="opacity:1" fill="#eaeaea" d="M 110.5,105.5 C 114.367,108.798 114.367,112.298 110.5,116C 106.695,117.173 103.861,116.007 102,112.5C 101.262,110.119 101.762,108.119 103.5,106.5C 105.764,105.781 108.097,105.448 110.5,105.5 Z"/></g>
<g><path style="opacity:1" fill="#ececec" d="M 120.5,104.5 C 126.82,104.32 129.32,107.32 128,113.5C 124.667,117.5 121.333,117.5 118,113.5C 116.779,109.718 117.613,106.718 120.5,104.5 Z"/></g>
<g><path style="opacity:1" fill="#ececec" d="M 135.5,104.5 C 141.82,104.32 144.32,107.32 143,113.5C 139.667,117.5 136.333,117.5 133,113.5C 131.93,109.858 132.764,106.858 135.5,104.5 Z"/></g>
<g><path style="opacity:1" fill="#efefef" d="M 150.5,104.5 C 156.82,104.32 159.32,107.32 158,113.5C 154.667,117.5 151.333,117.5 148,113.5C 146.927,109.9 147.76,106.9 150.5,104.5 Z"/></g>
<g><path style="opacity:1" fill="#dedede" d="M 29.5,104.5 C 35.8197,104.32 38.3197,107.32 37,113.5C 33.6667,117.5 30.3333,117.5 27,113.5C 25.9271,109.9 26.7605,106.9 29.5,104.5 Z"/></g>
<g><path style="opacity:1" fill="#9d9d9d" d="M 29.5,112.5 C 27.8887,109.668 28.722,107.668 32,106.5C 35.1069,107.796 36.1069,110.129 35,113.5C 32.7655,114.98 30.9321,114.647 29.5,112.5 Z"/></g>
<g><path style="opacity:1" fill="#f2f2f2" d="M 29.5,112.5 C 29.3838,109.09 31.0504,107.756 34.5,108.5C 35.0826,112.929 33.4159,114.263 29.5,112.5 Z"/></g>
<g><path style="opacity:1" fill="#d7d7d7" d="M 165.5,104.5 C 171.17,104.339 174.003,107.006 174,112.5C 170.645,117.31 166.979,117.644 163,113.5C 161.927,109.9 162.76,106.9 165.5,104.5 Z"/></g>
<g><path style="opacity:1" fill="#979796" d="M 165.5,112.5 C 163.889,109.668 164.722,107.668 168,106.5C 172.467,107.914 173.3,110.414 170.5,114C 168.326,114.877 166.659,114.377 165.5,112.5 Z"/></g>
<g><path style="opacity:1" fill="#f2f2f2" d="M 165.5,112.5 C 165.384,109.09 167.05,107.756 170.5,108.5C 171.083,112.929 169.416,114.263 165.5,112.5 Z"/></g>
<g><path style="opacity:1" fill="#ebebeb" d="M 44.5,119.5 C 50.8302,118.666 53.6635,121.333 53,127.5C 50.1773,130.571 46.844,131.238 43,129.5C 40.7292,125.697 41.2292,122.363 44.5,119.5 Z"/></g>
<g><path style="opacity:1" fill="#e9e9e9" d="M 59.5,119.5 C 69.2156,119.946 70.8823,123.779 64.5,131C 61.083,131.876 58.583,130.709 57,127.5C 56.0182,124.225 56.8515,121.559 59.5,119.5 Z"/></g>
<g><path style="opacity:1" fill="#d4d4d4" d="M 74.5,119.5 C 84.2156,119.946 85.8823,123.779 79.5,131C 71.1526,130.113 69.4859,126.279 74.5,119.5 Z"/></g>
<g><path style="opacity:1" fill="#eaeaea" d="M 89.5,119.5 C 99.2156,119.946 100.882,123.779 94.5,131C 86.1526,130.113 84.4859,126.279 89.5,119.5 Z"/></g>
<g><path style="opacity:1" fill="#ececec" d="M 104.5,119.5 C 112.523,119.161 114.856,122.495 111.5,129.5C 104.708,131.862 101.541,129.528 102,122.5C 103.045,121.627 103.878,120.627 104.5,119.5 Z"/></g>
<g><path style="opacity:1" fill="#d1d1d1" d="M 119.5,119.5 C 127.937,119.087 130.27,122.587 126.5,130C 119.231,132.067 116.398,129.234 118,121.5C 118.717,120.956 119.217,120.289 119.5,119.5 Z"/></g>
<g><path style="opacity:1" fill="#efefef" d="M 134.5,119.5 C 143.488,118.756 145.821,122.256 141.5,130C 132.43,131.136 130.096,127.636 134.5,119.5 Z"/></g>
<g><path style="opacity:1" fill="#eeeeee" d="M 149.5,119.5 C 158.487,118.665 160.82,122.165 156.5,130C 147.43,131.136 145.096,127.636 149.5,119.5 Z"/></g>
<g><path style="opacity:1" fill="#9e9e9e" d="M 79.5,122.5 C 82.4608,125.649 81.7942,127.983 77.5,129.5C 73.4114,127.752 72.7447,125.252 75.5,122C 77.0657,121.235 78.3991,121.402 79.5,122.5 Z"/></g>
<g><path style="opacity:1" fill="#f1f1f1" d="M 79.5,122.5 C 81.2628,126.416 79.9294,128.083 75.5,127.5C 74.7564,124.05 76.0897,122.384 79.5,122.5 Z"/></g>
<g><path style="opacity:1" fill="#9b9b9b" d="M 120.5,127.5 C 118.319,122.507 119.986,120.673 125.5,122C 127.286,125.427 126.452,127.927 123,129.5C 121.699,129.361 120.866,128.695 120.5,127.5 Z"/></g>
<g><path style="opacity:1" fill="#f3f3f3" d="M 120.5,127.5 C 119.737,123.862 121.07,122.362 124.5,123C 126.009,126.669 124.676,128.169 120.5,127.5 Z"/></g>
<g><path style="opacity:1" fill="#a6a6a6" d="M 44.5,134.5 C 47.4017,132.885 49.735,133.551 51.5,136.5C 50.4848,137.46 50.4848,138.627 51.5,140C 50.8759,142.291 49.3759,143.457 47,143.5C 45.6244,143.316 44.7911,142.649 44.5,141.5C 42.8949,137.88 44.2283,135.713 48.5,135C 47.2068,134.51 45.8734,134.343 44.5,134.5 Z"/></g>
<g><path style="opacity:1" fill="#e7e7e7" d="M 60.5,133.5 C 66.1327,133.961 68.6327,136.961 68,142.5C 64.3333,146.5 60.6667,146.5 57,142.5C 55.6649,138.392 56.8316,135.392 60.5,133.5 Z"/></g>
<g><path style="opacity:1" fill="#ebebeb" d="M 104.5,134.5 C 113.865,133.936 115.865,137.436 110.5,145C 105.345,146.677 102.345,144.844 101.5,139.5C 102.092,137.577 103.092,135.911 104.5,134.5 Z"/></g>
<g><path style="opacity:1" fill="#f2f2f2" d="M 134.5,134.5 C 143.865,133.936 145.865,137.436 140.5,145C 135.248,146.856 132.581,145.022 132.5,139.5C 132.437,137.486 133.103,135.819 134.5,134.5 Z"/></g>
<g><path style="opacity:1" fill="#d9d9d9" d="M 150.5,133.5 C 156.82,133.32 159.32,136.32 158,142.5C 154.714,146.485 151.381,146.485 148,142.5C 146.927,138.9 147.76,135.9 150.5,133.5 Z"/></g>
<g><path style="opacity:1" fill="#d8d8d8" d="M 90.5,133.5 C 96.2236,133.921 98.7236,136.921 98,142.5C 94.3333,146.5 90.6667,146.5 87,142.5C 85.9804,138.553 87.1471,135.553 90.5,133.5 Z"/></g>
<g><path style="opacity:1" fill="#9a9a9a" d="M 91.5,135.5 C 95.5332,135.691 97.0332,137.691 96,141.5C 95.6929,138.124 93.8595,136.79 90.5,137.5C 89.7904,140.86 91.1238,142.693 94.5,143C 87.9337,142.805 86.9337,140.305 91.5,135.5 Z"/></g>
<g><path style="opacity:1" fill="#939393" d="M 155.5,137.5 C 157.681,142.493 156.014,144.327 150.5,143C 148.347,137.323 150.014,135.49 155.5,137.5 Z"/></g>
<g><path style="opacity:1" fill="#f3f3f3" d="M 155.5,137.5 C 156.263,141.138 154.93,142.638 151.5,142C 149.991,138.331 151.324,136.831 155.5,137.5 Z"/></g>
<g><path style="opacity:1" fill="#d3d3d3" d="M 44.5,134.5 C 45.8734,134.343 47.2068,134.51 48.5,135C 44.2283,135.713 42.8949,137.88 44.5,141.5C 44.7911,142.649 45.6244,143.316 47,143.5C 49.3759,143.457 50.8759,142.291 51.5,140C 50.4848,138.627 50.4848,137.46 51.5,136.5C 53.9579,138.493 54.1245,140.826 52,143.5C 44.5771,147.081 41.2438,144.748 42,136.5C 42.7083,135.619 43.5416,134.953 44.5,134.5 Z"/></g>
<g><path style="opacity:1" fill="#f2f2f2" d="M 44.5,141.5 C 44.3838,138.09 46.0504,136.756 49.5,137.5C 50.0776,141.935 48.4109,143.268 44.5,141.5 Z"/></g>
<g><path style="opacity:1" fill="#e5e5e5" d="M 105.5,148.5 C 111.82,148.32 114.32,151.32 113,157.5C 108.837,161.747 105.171,161.414 102,156.5C 101.279,152.946 102.446,150.28 105.5,148.5 Z"/></g>
<g><path style="opacity:1" fill="#d7d7d7" d="M 135.5,148.5 C 141.82,148.32 144.32,151.32 143,157.5C 139.667,161.5 136.333,161.5 133,157.5C 131.927,153.9 132.76,150.9 135.5,148.5 Z"/></g>
<g><path style="opacity:1" fill="#8f8f8f" d="M 136.5,150.5 C 141.658,151.484 141.658,152.317 136.5,153C 135.809,154.067 135.309,155.234 135,156.5C 134.252,154.16 134.752,152.16 136.5,150.5 Z"/></g>
<g><path style="opacity:1" fill="#d8d8d8" d="M 65.5,149.5 C 65.4173,151.57 64.4173,151.903 62.5,150.5C 58.1649,152.007 57.4982,154.507 60.5,158C 61.8333,158.667 63.1667,158.667 64.5,158C 65.9265,155.955 66.9265,153.788 67.5,151.5C 69.23,158.273 66.5634,161.107 59.5,160C 55.5,156.333 55.5,152.667 59.5,149C 61.5976,148.322 63.5976,148.489 65.5,149.5 Z"/></g>
<g><path style="opacity:1" fill="#a6a6a6" d="M 65.5,149.5 C 66.5,149.833 67.1667,150.5 67.5,151.5C 66.9265,153.788 65.9265,155.955 64.5,158C 63.1667,158.667 61.8333,158.667 60.5,158C 57.4982,154.507 58.1649,152.007 62.5,150.5C 64.4173,151.903 65.4173,151.57 65.5,149.5 Z"/></g>
<g><path style="opacity:1" fill="#f2f2f2" d="M 60.5,152.5 C 61.8333,152.5 63.1667,152.5 64.5,152.5C 64.4652,158.024 62.7985,158.691 59.5,154.5C 59.8627,153.817 60.1961,153.15 60.5,152.5 Z"/></g>
<g><path style="opacity:1" fill="#cdcdcd" d="M 104.5,163.5 C 112.744,163.228 115.078,166.728 111.5,174C 107.543,176.385 104.376,175.552 102,171.5C 101.018,168.225 101.851,165.559 104.5,163.5 Z"/></g>
<g><path style="opacity:1" fill="#f1f1f1" d="M 109.5,166.5 C 111.263,170.416 109.929,172.083 105.5,171.5C 104.756,168.05 106.09,166.384 109.5,166.5 Z"/></g>
<g><path style="opacity:1" fill="#919191" d="M 109.5,166.5 C 106.09,166.384 104.756,168.05 105.5,171.5C 102.678,168.625 103.344,166.625 107.5,165.5C 108.416,165.543 109.083,165.876 109.5,166.5 Z"/></g>
<g><path style="opacity:1" fill="#a2a2a2" d="M 109.5,166.5 C 112.363,169.397 111.863,171.731 108,173.5C 106.699,173.361 105.866,172.695 105.5,171.5C 109.929,172.083 111.263,170.416 109.5,166.5 Z"/></g>
<g><path style="opacity:0.004" fill="#000000" d="M 175.5,189.5 C 175.897,188.475 176.563,188.308 177.5,189C 176.906,189.464 176.239,189.631 175.5,189.5 Z"/></g>
</svg>
