<svg xmlns="http://www.w3.org/2000/svg" width="200" height="200" shape-rendering="geometricPrecision" image-rendering="optimizeQuality" fill-rule="evenodd" xmlns:v="https://vecta.io/nano"><path fill="#12181d" d="M33.5-.5h7c-.663 6.71-1.163 13.71-1.5 21-.417 1.256-1.25 1.923-2.5 2a28.06 28.06 0 0 0-5-5c.548-3.887 1.548-7.887 3-12-.656-1.953-.989-3.953-1-6z"/><path fill="#172b39" d="M40.5-.5h19c.344 6.061.344 12.061 0 18l-1 2-5-12c-1.158 4.599-1.825 9.266-2 14h-3a46.96 46.96 0 0 0-1.5-11 24.91 24.91 0 0 1-2.5 8.5c1.536 1.468 1.87 2.968 1 4.5l-6 2-3-3c1.25-.077 2.083-.744 2.5-2 .337-7.29.837-14.29 1.5-21z"/><path fill="#125372" d="M75.5-.5h60a300.16 300.16 0 0 1 1 13c-1.767-.757-3.6-1.423-5.5-2a64.26 64.26 0 0 1-8 1c-3.46-3.982-6.127-3.315-8 2l-1-1c-.498 3.317-.665 6.65-.5 10h4v5h-6c-.175 2.121.159 4.121 1 6-.904.709-1.237 1.709-1 3-2.162.397-3.495 1.73-4 4-.607-.124-.94-.457-1-1-.392-3.448.275-6.614 2-9.5-1.436-7.555-3.103-15.055-5-22.5l-2 1a12.71 12.71 0 0 0-8-2 47.13 47.13 0 0 1-1.5 10c-.303-4.306-1.136-8.139-2.5-11.5-1.399-.595-2.732-.428-4 .5-1.679-1.282-3.513-2.282-5.5-3-.588 2.363-2.088 3.363-4.5 3v-6z"/><path fill="#3a1d1b" d="M194.5-.5h5v4c-5.795 4.628-11.129 9.794-16 15.5-1.634.494-3.301.66-5 .5 5.014-7.004 10.347-13.671 16-20z"/><path fill="#2d2021" d="M12.5-.5h14l-2 16c-2 0-3 1-3 3-.996-.086-1.829.248-2.5 1a464.35 464.35 0 0 1-3-15c-.317 1.801-.984 2.134-2 1-1.128-1.845-1.628-3.845-1.5-6z"/><path fill="#096888" d="M106.5 39.5h-1c-1.297-3.262-.964-6.429 1-9.5-.862-2.734-1.695-2.901-2.5-.5l-2-4c-1.487.753-1.654 1.586-.5 2.5-1.771 2.113-3.271 1.947-4.5-.5l-2 4-3-7c-.377 1.442-1.21 2.442-2.5 3-.489-1.495-1.155-2.828-2-4-.353-4.326-2.02-7.993-5-11-1.348-3.009-3.681-4.676-7-5v-2c2.412.363 3.912-.637 4.5-3 1.987.718 3.821 1.718 5.5 3 1.268-.928 2.601-1.095 4-.5 1.364 3.361 2.197 7.194 2.5 11.5a47.13 47.13 0 0 0 1.5-10 12.71 12.71 0 0 1 8 2l2-1c1.897 7.445 3.564 14.945 5 22.5-1.725 2.886-2.392 6.052-2 9.5z"/><path fill="#422422" d="M-.5-.5h13c-.128 2.155.372 4.155 1.5 6 1.016 1.134 1.683.801 2-1a464.35 464.35 0 0 0 3 15c.671-.752 1.504-1.086 2.5-1-1.257 4.512-.923 8.846 1 13 1.224 4.262 2.557 8.595 4 13-2.116 1.9-3.449 4.233-4 7-1.135 1.713-2.802 2.38-5 2-.268-3.24-.934-6.406-2-9.5-.336-1.03-1.003-1.53-2-1.5a23.74 23.74 0 0 0-1-8.5c.51-1.826 1.344-1.993 2.5-.5.667-4.333.667-8.667 0-13-.422-1.926-1.589-2.926-3.5-3 .281-5.065-.052-10.065-1-15-1.352-1.396-3.019-2.063-5-2-2.193.219-4.193.885-6 2v-3z"/><path fill="#1b2b37" d="M26.5-.5h7c.011 2.047.344 4.047 1 6-1.452 4.113-2.452 8.113-3 12a21.16 21.16 0 0 0-7-2l2-16z"/><path fill="#264358" d="M59.5-.5h16v6 2c-3.951 3.574-6.618 7.907-8 13a96.21 96.21 0 0 0-22 3c.87-1.532.536-3.032-1-4.5a24.91 24.91 0 0 0 2.5-8.5 46.96 46.96 0 0 1 1.5 11h3c.175-4.734.842-9.401 2-14l5 12 1-2c.344-5.939.344-11.939 0-18z"/><path fill="#d67a72" d="M60.5 2.5h7c-1.764 14.563-4.097 14.563-7 0z"/><path fill="#23465a" d="M151.5-.5h7c-3.293.91-5.793 2.91-7.5 6a60.93 60.93 0 0 0-.5 11c6.506-4.322 13.173-8.489 20-12.5.88-1.356 1.214-2.856 1-4.5h2a16.87 16.87 0 0 1-1 8 106.4 106.4 0 0 1-9 7c1.236.857 2.569 1.523 4 2 1.836-2.707 4.169-3.374 7-2-1.181 1.698-1.181 3.365 0 5 5.822-6.141 10.822-12.808 15-20h5c-5.653 6.329-10.986 12.996-16 20-1.434 2.547-3.1 4.881-5 7-.891.61-1.891.943-3 1-.573-2.647-1.24-5.313-2-8-1.236.746-2.57 1.079-4 1-1.792-.973-3.125-.306-4 2a38.6 38.6 0 0 0-7.5 4c.57 3.25 1.07 6.584 1.5 10h3c-1.208 1.282-2.542 1.282-4 0-1.729-2.351-2.396-5.018-2-8a59.14 59.14 0 0 0-3.5-14c-.805 2.401-1.638 2.234-2.5-.5 1.134-1.016.801-1.683-1-2 1.495-4.667 3.828-8.833 7-12.5z"/><path fill="#1c262f" d="M173.5-.5h16c-4.178 7.192-9.178 13.859-15 20-1.181-1.635-1.181-3.302 0-5-2.831-1.374-5.164-.707-7 2-1.431-.477-2.764-1.143-4-2a106.4 106.4 0 0 0 9-7 16.87 16.87 0 0 0 1-8z"/><path fill="#31e9f8" d="M158.5-.5h3c-2.166 3.152-5.166 5.152-9 6-.848 1.909-1.182 3.909-1 6 3.367-.86 5.701-3.027 7-6.5l4 1c1.939-.908 2.939-2.408 3-4.5 1.88.271 3.213-.396 4-2h2c.214 1.644-.12 3.144-1 4.5-6.827 4.011-13.494 8.178-20 12.5a60.93 60.93 0 0 1 .5-11c1.707-3.09 4.207-5.09 7.5-6z"/><path fill="#c2eff7" d="M161.5-.5h8c-.787 1.604-2.12 2.271-4 2-.061 2.092-1.061 3.592-3 4.5l-4-1c-1.299 3.473-3.633 5.64-7 6.5-.182-2.091.152-4.091 1-6 3.834-.848 6.834-2.848 9-6z"/><path fill="#ef8072" d="M199.5 9.5v16c-5.306 4.64-10.306 9.64-15 15-2.981-.294-3.648-1.628-2-4 3.231-3.452 6.231-7.119 9-11-.502-1.021-1.168-1.188-2-.5a993.83 993.83 0 0 1-24 27.5l-6 7 .5 1a25.5 25.5 0 0 1 4.5-4l1 1c-2.052 1.111-3.386 2.778-4 5l-6 7c-.667 0-1 .333-1 1-.838-.342-1.172-1.008-1-2 3.239-7.483 7.239-14.483 12-21 2.939-2.958 5.605-6.291 8-10 .825-.886 1.825-1.219 3-1a137.14 137.14 0 0 0 13-18l7-8c.917-.627 1.917-.961 3-1z"/><path fill="#6c5c5a" d="M83.5 18.5l3 9v2c-1.44.863-2.774.863-4 0l-2-10c-1.571-.809-3.238-1.143-5-1a25.87 25.87 0 0 1-1 10c-1.235-.84-2.235-1.84-3-3-1.469-4.733-.136-8.566 4-11.5 1.172-.353 2.338-.187 3.5.5 1.351 1.518 2.851 2.852 4.5 4z"/><path fill="#206786" d="M136.5 12.5v1 8c-.342.838-1.008 1.172-2 1a41.74 41.74 0 0 1-9 1 77.1 77.1 0 0 0 1 13h-1c-1.814-1.24-2.814-.574-3 2a39.65 39.65 0 0 1 1 11c-.02 1.643.647 2.976 2 4a25.86 25.86 0 0 0-3 5 53.3 53.3 0 0 1-7.5-4c-.335 2.69-1.501 3.356-3.5 2 0-.667-.333-1-1-1l-3.5-7c-2.328-1.163-4.162-2.83-5.5-5 2.333-.333 3.667-1.667 4-4h1c.06.543.393.876 1 1 .505-2.27 1.838-3.603 4-4l1 9h7a51.56 51.56 0 0 1-1-7c-1.531-3.702-1.864-7.369-1-11v-5h-4c-.165-3.35.002-6.683.5-10l1 1c1.873-5.315 4.54-5.982 8-2a64.26 64.26 0 0 0 8-1c1.9.577 3.733 1.243 5.5 2z"/><path fill="#a88361" d="M82.5 12.5c2.98 3.007 4.647 6.674 5 11-.934 1.068-1.268 2.401-1 4a138.99 138.99 0 0 0-3-9 19.24 19.24 0 0 1-1-6z"/><path fill="#1c3445" d="M135.5-.5h16c-3.172 3.667-5.505 7.833-7 12.5 1.801.317 2.134.984 1 2 .862 2.734 1.695 2.901 2.5.5a59.14 59.14 0 0 1 3.5 14 7.06 7.06 0 0 0-2.5 2l-1-2c-.725 1.658-1.892 2.158-3.5 1.5 2.776-1.779 2.443-2.779-1-3 1.211-.893 1.211-1.726 0-2.5l-2 2-3.5-12c-.383-.556-.883-.889-1.5-1v-1a300.16 300.16 0 0 0-1-13z"/><path fill="#522c2c" d="M199.5 3.5v6c-1.083.039-2.083.373-3 1l-7 8-9 5.5c2.777 2.173 2.61 2.673-.5 1.5-2.096 1.215-1.929 2.049.5 2.5-2.564 1.396-5.231 2.563-8 3.5a20.69 20.69 0 0 1 1-5c1.9-2.119 3.566-4.453 5-7 1.699.16 3.366-.006 5-.5 4.871-5.706 10.205-10.872 16-15.5z"/><path fill="#876653" d="M24.5 15.5a21.16 21.16 0 0 1 7 2 28.06 28.06 0 0 1 5 5l3 3v1a117.7 117.7 0 0 0-15-11z"/><path fill="#dcaa8b" d="M67.5 20.5c-.074 1.911-1.074 3.078-3 3.5-7.258 1.68-14.591 2.846-22 3.5-1.291.237-2.291-.096-3-1v-1l6-2a96.21 96.21 0 0 1 22-3z"/><path fill="#9a6266" d="M138.5 25.5l-2-2a9.86 9.86 0 0 0-1 6c-.968-2.107-1.302-4.441-1-7 .992.172 1.658-.162 2-1 .617-.111 1.117-.444 1.5-1a12.93 12.93 0 0 1 .5 5z"/><path fill="#d2ebf1" d="M164.5 20.5c.321 1.548 1.321 2.215 3 2a8.43 8.43 0 0 1-.5 4c-1.376 1.205-2.542 2.538-3.5 4-1.884-.212-3.217-1.212-4-3-2.048 1.27-4.048 1.603-6 1l7-6c.875-2.306 2.208-2.973 4-2z"/><path fill="#714128" d="M75.5 7.5c3.319.324 5.652 1.991 7 5a19.24 19.24 0 0 0 1 6c-1.649-1.148-3.149-2.482-4.5-4-1.162-.687-2.328-.853-3.5-.5-4.136 2.934-5.469 6.767-4 11.5-6.174-1.153-6.507-.153-1 3-.359 1.985-1.192 2.651-2.5 2-4.179 1.663-7.012 4.663-8.5 9-.841 1.879-1.175 3.879-1 6h4c-2.448.973-5.115 1.306-8 1-2.353-1.601-4.52-3.601-6.5-6-.547-3.202-1.547-6.202-3-9l-1 2a10.76 10.76 0 0 0-2.5-3c.627-.917.961-1.917 1-3 7.409-.654 14.742-1.82 22-3.5 1.926-.422 2.926-1.589 3-3.5 1.382-5.093 4.049-9.426 8-13z"/><path fill="#3a2925" d="M86.5 29.5c.223 2.614-.944 4.281-3.5 5-4.545-1.419-8.711-3.419-12.5-6-5.507-3.153-5.174-4.153 1-3 .765 1.16 1.765 2.16 3 3a25.87 25.87 0 0 0 1-10c1.762-.143 3.429.191 5 1l2 10c1.226.863 2.56.863 4 0z"/><path fill="#51697c" d="M170.5 27.5c-1.342 2.666-3.175 4.999-5.5 7l-3-2c-1.129 1.641-2.629 2.641-4.5 3 1.44-2.449 3.44-4.115 6-5 .958-1.462 2.124-2.795 3.5-4a8.43 8.43 0 0 0 .5-4c-1.679.215-2.679-.452-3-2 1.43.079 2.764-.254 4-1l2 8z"/><path fill="#714247" d="M189.5 18.5a137.14 137.14 0 0 1-13 18c-1.175-.219-2.175.114-3 1-2.395 3.709-5.061 7.042-8 10a53.77 53.77 0 0 0 2-8l5-8c2.769-.937 5.436-2.104 8-3.5-2.429-.451-2.596-1.285-.5-2.5 3.11 1.173 3.277.673.5-1.5l9-5.5z"/><path fill="#cf6f6a" d="M138.5 25.5c1.27 4.364 2.27 8.698 3 13-.955 2.21-2.455 2.543-4.5 1-1.043-3.257-1.543-6.59-1.5-10a9.86 9.86 0 0 1 1-6 31.12 31.12 0 0 0 2 2z"/><path fill="#8db2cb" d="M160.5 22.5l-7 6c1.952.603 3.952.27 6-1 .783 1.788 2.116 2.788 4 3-2.56.885-4.56 2.551-6 5v1h-3c-.43-3.416-.93-6.75-1.5-10a38.6 38.6 0 0 1 7.5-4z"/><path fill="#5b3c40" d="M11.5 17.5c1.911.074 3.078 1.074 3.5 3 .667 4.333.667 8.667 0 13-1.156-1.493-1.99-1.326-2.5.5a23.74 23.74 0 0 1 1 8.5l-2 25c-1.418.505-2.085 1.505-2 3-3.446-.482-6.779-.482-10 0v-6c.722 1.051 1.722 1.718 3 2 2.619.268 5.119-.065 7.5-1a84.94 84.94 0 0 0 .5-13c.995-11.488 1.328-23.155 1-35z"/><path fill="#906b53" d="M33.5 31.5l-5-4a128.59 128.59 0 0 1 0 11l-2-1c-.086-.996.248-1.829 1-2.5-2.576-3.715-3.576-7.882-3-12.5 1.568-.973 3.235-1.14 5-.5 2.736 2.148 4.736 4.814 6 8-.336 1.03-1.003 1.53-2 1.5z"/><path fill="#dbc28e" d="M87.5 23.5c.845 1.172 1.511 2.505 2 4 1.068 3.438 2.401 7.105 4 11-1.43.079-2.764-.254-4-1-.635-3.568-1.635-6.901-3-10-.268-1.599.066-2.932 1-4z"/><path fill="#a8aab1" d="M117.5 27.5c-.864 3.631-.531 7.298 1 11-1.614 1.575-3.614 2.241-6 2v-7c-.841-1.879-1.175-3.879-1-6h6z"/><path fill="#fad1b6" d="M182.5 36.5a393.11 393.11 0 0 1-16.5 17 .91.91 0 0 1-.5-1 993.83 993.83 0 0 0 24-27.5c.832-.688 1.498-.521 2 .5-2.769 3.881-5.769 7.548-9 11z"/><path fill="#7e4528" d="M24.5 15.5a117.7 117.7 0 0 1 15 11c.709.904 1.709 1.237 3 1-.039 1.083-.373 2.083-1 3a10.76 10.76 0 0 1 2.5 3l1-2c1.453 2.798 2.453 5.798 3 9 1.98 2.399 4.147 4.399 6.5 6-1.765.961-3.765 1.295-6 1 .241-2.398-.426-4.398-2-6-1.108-.79-2.442-1.29-4-1.5 1.167-2.833.333-3.667-2.5-2.5-.368-1.41-1.201-2.41-2.5-3-2.432 3.188-5.099 6.188-8 9-1.751-1.564-2.751-3.564-3-6l2 1c.941 2.625 2.107 2.625 3.5 0a52.55 52.55 0 0 0 1.5-7c.997.03 1.664-.47 2-1.5-1.264-3.186-3.264-5.852-6-8-1.765-.64-3.432-.473-5 .5-.79-1.108-1.29-2.442-1.5-4a84.94 84.94 0 0 0-.5 13c-1.923-4.154-2.257-8.488-1-13 0-2 1-3 3-3z"/><path fill="#1d8da9" d="M105.5 39.5c-.333 2.333-1.667 3.667-4 4-1.109-.057-2.109-.39-3-1l-5-4c-1.599-3.895-2.932-7.562-4-11 1.29-.558 2.123-1.558 2.5-3l3 7 2-4c1.229 2.447 2.729 2.613 4.5.5-1.154-.914-.987-1.747.5-2.5l2 4c.805-2.401 1.638-2.234 2.5.5-1.964 3.071-2.297 6.238-1 9.5z"/><path fill="#af5151" d="M11.5 17.5c.328 11.845-.005 23.512-1 35v-26c.166-6.009-.001-12.009-.5-18-.21-1.558-.71-2.891-1.5-4-2.107-.968-4.441-1.302-7-1-.328 11.512.005 22.846 1 34C.626 42.666.626 48 2.5 53.5a4.45 4.45 0 0 1-2 1.5c.944 2.719 1.277 5.553 1 8.5.057 1.109.39 2.109 1 3-1.278-.282-2.278-.949-3-2v-62c1.807-1.115 3.807-1.781 6-2 1.981-.063 3.648.604 5 2 .948 4.935 1.281 9.935 1 15z"/><path fill="#f68e74" d="M8.5 4.5c.79 1.109 1.29 2.442 1.5 4 .499 5.991.666 11.991.5 18l-2 20v-8c-1.983.343-3.317-.324-4-2 1.684-1.517 3.017-3.35 4-5.5l-1-1.5c-1.024 1.353-2.357 2.02-4 2 .695-2.478 2.195-4.478 4.5-6A84.74 84.74 0 0 1 9.5 15c-.048-3.38-.381-6.88-1-10.5z"/><path fill="#fce3a4" d="M8.5 4.5c.619 3.62.952 7.12 1 10.5A84.74 84.74 0 0 0 8 25.5c-2.305 1.522-3.805 3.522-4.5 6 1.643.02 2.976-.647 4-2l1 1.5c-.983 2.15-2.316 3.983-4 5.5l-2 1v-33h6z"/><path fill="#58382a" d="M33.5 31.5a52.55 52.55 0 0 1-1.5 7c-1.393 2.625-2.559 2.625-3.5 0a128.59 128.59 0 0 0 0-11l5 4z"/><path fill="#76513d" d="M86.5 27.5c1.365 3.099 2.365 6.432 3 10 1.236.746 2.57 1.079 4 1l5 4c-.739-.131-1.406.036-2 .5.916.278 1.582.778 2 1.5v1h-2c-1.094-3.893-3.761-5.56-8-5-8.125.712-16.125 2.045-24 4 1.484-.973 1.984-2.307 1.5-4-2.041-.923-4.208-1.256-6.5-1 1.488-4.337 4.321-7.337 8.5-9 1.308.651 2.141-.015 2.5-2 3.789 2.581 7.955 4.581 12.5 6 2.556-.719 3.723-2.386 3.5-5v-2z"/><path fill="#f19e83" d="M8.5 4.5h-6v33c-.995-11.154-1.328-22.488-1-34 2.559-.302 4.893.032 7 1z"/><path fill="#5eacc8" d="M125.5 36.5c.166 4.679-.001 9.345-.5 14-.383-.556-.883-.889-1.5-1a39.65 39.65 0 0 0-1-11c.186-2.574 1.186-3.24 3-2z"/><path fill="#ac5d32" d="M24.5 22.5c-.576 4.618.424 8.785 3 12.5-.752.671-1.086 1.504-1 2.5.249 2.436 1.249 4.436 3 6 2.901-2.812 5.568-5.812 8-9 1.299.59 2.132 1.59 2.5 3 2.833-1.167 3.667-.333 2.5 2.5 1.558.21 2.892.71 4 1.5-2.411-.363-3.911.637-4.5 3-.484 1.693.016 3.027 1.5 4-.366 1.195-1.199 1.861-2.5 2-1.537-.535-3.037-.868-4.5-1a40.6 40.6 0 0 1-14 2c.551-2.767 1.884-5.1 4-7-1.443-4.405-2.776-8.738-4-13a84.94 84.94 0 0 1 .5-13c.21 1.558.71 2.892 1.5 4z"/><path fill="#fca690" d="M174.5 60.5c.165-3.35-.002-6.683-.5-10-2.857-.398-5.024.935-6.5 4a19.37 19.37 0 0 1 1 8c.308 2.424-.026 4.757-1 7-1.248-.54-2.415-1.207-3.5-2-.05-2.244-.883-3.911-2.5-5 .614-2.222 1.948-3.889 4-5l-1-1a25.5 25.5 0 0 0-4.5 4l-.5-1 6-7a.91.91 0 0 0 .5 1 393.11 393.11 0 0 0 16.5-17c-1.648 2.372-.981 3.706 2 4 .397 1.025 1.063 1.192 2 .5l5.5-5.5c.667 1.333.667 2.667 0 4-3.72 2.267-6.887 5.1-9.5 8.5-.916.374-1.75.874-2.5 1.5.546-2.593 2.046-4.76 4.5-6.5-3.276 1.236-6.109 3.403-8.5 6.5a15.11 15.11 0 0 0 1.5 9.5c-.744 1.039-1.744 1.539-3 1.5z"/><path fill="#76747f" d="M112.5 33.5v7c2.386.241 4.386-.425 6-2a51.56 51.56 0 0 0 1 7h-7l-1-9c-.237-1.291.096-2.291 1-3z"/><path fill="#8d8a91" d="M59.5 39.5c2.292-.256 4.459.077 6.5 1 .484 1.693-.016 3.027-1.5 4-.667 0-1 .333-1 1h-1-4c-.175-2.121.159-4.121 1-6z"/><path fill="#fbead3" d="M199.5 25.5v17c-8.626 6.624-16.959 13.624-25 21v-3c1.256.039 2.256-.461 3-1.5a15.11 15.11 0 0 1-1.5-9.5c2.391-3.097 5.224-5.264 8.5-6.5-2.454 1.74-3.954 3.907-4.5 6.5.75-.626 1.584-1.126 2.5-1.5 2.613-3.4 5.78-6.233 9.5-8.5.667-1.333.667-2.667 0-4l-5.5 5.5c-.937.692-1.603.525-2-.5 4.694-5.36 9.694-10.36 15-15z"/><path fill="#373d45" d="M136.5 13.5c.617.111 1.117.444 1.5 1l3.5 12 2-2c1.211.774 1.211 1.607 0 2.5 3.443.221 3.776 1.221 1 3 1.608.658 2.775.158 3.5-1.5l1 2a7.06 7.06 0 0 1 2.5-2c-.396 2.982.271 5.649 2 8 1.458 1.282 2.792 1.282 4 0v-1c1.871-.359 3.371-1.359 4.5-3l3 2c2.325-2.001 4.158-4.334 5.5-7 1.109-.057 2.109-.39 3-1a20.69 20.69 0 0 0-1 5l-5 8c-5.054 5.747-9.887 11.747-14.5 18 .617 1.595.284 2.928-1 4-.718-.951-1.551-1.117-2.5-.5-1.103 2.757-2.769 4.924-5 6.5 1.727-6.498 1.727-12.832 0-19-.09-3.714-1.09-7.047-3-10-.73-4.302-1.73-8.636-3-13a12.93 12.93 0 0 0-.5-5c-.383.556-.883.889-1.5 1v-8z"/><path fill="#fba98b" d="M193.5 40.5c.876-.131 1.543.203 2 1-1.421 2.843-3.421 4.176-6 4l4-5z"/><path fill="#ba3d38" d="M96.5 45.5v2c-1.542-.801-3.209-1.134-5-1 1.748-1.289 2.081-2.789 1-4.5-4.865-.307-9.531.193-14 1.5-2.51.427-4.843 1.093-7 2l-7 2c1.531-1.425 1.198-2.091-1-2 0-.667.333-1 1-1 7.875-1.955 15.875-3.288 24-4 4.239-.56 6.906 1.107 8 5z"/><path fill="#354f61" d="M134.5 22.5c-.302 2.559.032 4.893 1 7-.043 3.41.457 6.743 1.5 10 2.045 1.543 3.545 1.21 4.5-1 1.91 2.953 2.91 6.286 3 10h-1c-.467-2.797-2.133-4.131-5-4-.732 3.127-1.732 6.294-3 9.5.687 1.162.853 2.328.5 3.5-2.289.838-4.789.838-7.5 0 .134-1.791-.199-3.458-1-5 1.901-4.725 2.401-9.725 1.5-15-.671-.752-1.504-1.086-2.5-1a77.1 77.1 0 0 1-1-13 41.74 41.74 0 0 0 9-1z"/><path fill="#e25d51" d="M10.5 26.5v26a84.94 84.94 0 0 1-.5 13c-2.381.935-4.881 1.268-7.5 1-.61-.891-.943-1.891-1-3h7c-.277-2.947.056-5.781 1-8.5-5.272-2.835-5.272-4.335 0-4.5-1.676-1.228-2.009-2.561-1-4l2-20z"/><path fill="#a88571" d="M46.5 41.5c1.574 1.602 2.241 3.602 2 6-1.419.951-3.085 1.285-5 1-1.484-.973-1.984-2.307-1.5-4 .589-2.363 2.089-3.363 4.5-3z"/><path fill="#83b38c" d="M138.5 44.5c2.867-.131 4.533 1.203 5 4v8c-1.951.273-3.451-.393-4.5-2-.498-3.317-.665-6.65-.5-10z"/><path fill="#fbcf8e" d="M4.5 36.5c.683 1.676 2.017 2.343 4 2v8c-1.009 1.439-.676 2.772 1 4-5.272.165-5.272 1.665 0 4.5-.944 2.719-1.277 5.553-1 8.5h-7c.277-2.947-.056-5.781-1-8.5a4.45 4.45 0 0 0 2-1.5C.626 48 .626 42.666 2.5 37.5l2-1z"/><path fill="#105398" d="M71.5 45.5c3.736.16 3.736.993 0 2.5.752.671 1.086 1.504 1 2.5-3.512.554-6.512-.112-9-2 0-.667.333-1 1-1l7-2z"/><path fill="#918789" d="M91.5 46.5c1.791-.134 3.458.199 5 1 2.496 4.967 3.496 10.3 3 16-.667 0-1 .333-1 1h-1c-.866-3.899-.866-7.899 0-12-1.89-.203-3.39.463-4.5 2l-2.5-3c-.676 1.102-1.342 2.102-2 3v-4h3v-4z"/><path fill="#459aba" d="M78.5 43.5c3.174.164 6.007 1.164 8.5 3 .669 2.845-.497 4.512-3.5 5-3.462-.982-7.129-1.315-11-1 .086-.996-.248-1.829-1-2.5 3.736-1.507 3.736-2.34 0-2.5 2.157-.907 4.49-1.573 7-2z"/><path fill="#43e7f8" d="M78.5 45.5c2.091-.182 4.091.152 6 1 .886.825 1.219 1.825 1 3-3.875.416-7.542-.084-11-1.5 1.566-.608 2.9-1.441 4-2.5z"/><path fill="#807479" d="M126.5 36.5c.996-.086 1.829.248 2.5 1 .901 5.275.401 10.275-1.5 15-.988-5.141-1.321-10.474-1-16z"/><path fill="#e11d1d" d="M91.5 46.5v4h-3v4c-1.109.057-2.109.39-3 1h-1c-.934-1.068-1.268-2.401-1-4 3.003-.488 4.169-2.155 3.5-5-2.493-1.836-5.326-2.836-8.5-3 4.469-1.307 9.135-1.807 14-1.5 1.081 1.711.748 3.211-1 4.5z"/><path fill="#e01919" d="M62.5 45.5h1c2.198-.091 2.531.575 1 2-.667 0-1 .333-1 1-1.333 0-2 .667-2 2-.624.417-.957 1.084-1 2 2.109 2.095 3.776 4.428 5 7 0 1.333-.667 2-2 2-2.569-3.121-5.569-5.788-9-8-.942.108-1.775.441-2.5 1a110.33 110.33 0 0 0-2.5 8c-.901.791-1.568 1.79-2 3h-1c-.428-3.775.239-7.275 2-10.5-.07-.765-.403-1.265-1-1.5-.417-.722-1.084-1.222-2-1.5a36.25 36.25 0 0 0-12 0c-1.529 2.251-3.529 3.751-6 4.5-.543.06-.876.393-1 1 1.446 2.118 2.113 4.451 2 7v1c-2.459.19-4.125-.81-5-3h-3v-3c-3.944-.384-4.944-2.384-3-6 2.198.38 3.865-.287 5-2a40.6 40.6 0 0 0 14-2c1.463.132 2.963.465 4.5 1 1.301-.139 2.134-.805 2.5-2 1.915.285 3.581-.049 5-1 2.235.295 4.235-.039 6-1 2.885.306 5.552-.027 8-1z"/><path fill="#4d6679" d="M138.5 44.5c-.165 3.35.002 6.683.5 10 1.049 1.607 2.549 2.273 4.5 2v-8h1c1.727 6.168 1.727 12.502 0 19-1.898 1.234-3.565.901-5-1v-2c-2.975-2.925-6.642-4.592-11-5v-2c2.711.838 5.211.838 7.5 0 .353-1.172.187-2.338-.5-3.5 1.268-3.206 2.268-6.373 3-9.5z"/><path fill="#aeeaf3" d="M174.5 60.5v3c-1.385 1.114-2.885 2.114-4.5 3-.21-1.558-.71-2.892-1.5-4a19.37 19.37 0 0 0-1-8c1.476-3.065 3.643-4.398 6.5-4 .498 3.317.665 6.65.5 10z"/><path fill="#fbc4a5" d="M199.5 42.5v8a64.03 64.03 0 0 0-12 10c.131-.739-.036-1.406-.5-2-1.113 1.211-2.28 1.211-3.5 0a35.08 35.08 0 0 1-8 6c-.607-.124-.94-.457-1-1 8.041-7.376 16.374-14.376 25-21z"/><path fill="#edbe83" d="M96.5 45.5h2l3 6a49.87 49.87 0 0 1-1 14c-.797-.457-1.131-1.124-1-2 .496-5.7-.504-11.033-3-16v-2z"/><path fill="#142d4f" d="M47.5 53.5c-.834 1.248-2.167 1.915-4 2a219.52 219.52 0 0 0-13.5 2c-1.07-.028-1.903-.361-2.5-1 2.471-.749 4.471-2.249 6-4.5a36.25 36.25 0 0 1 12 0c.916.278 1.583.778 2 1.5z"/><path fill="#173752" d="M63.5 48.5c2.488 1.888 5.488 2.554 9 2 3.871-.315 7.538.018 11 1-.268 1.599.066 2.932 1 4 .237 1.291-.096 2.291-1 3h-8a7.11 7.11 0 0 0-1-5c-4.337-1.454-8.671-2.454-13-3 0-1.333.667-2 2-2z"/><path fill="#f67d6f" d="M199.5 50.5v14a148.4 148.4 0 0 0-17 11l4-4c-2.111-1.105-3.445-2.771-4-5l5-6a64.03 64.03 0 0 1 12-10z"/><path fill="#bb7851" d="M101.5 51.5c.667 0 1 .333 1 1 .166 4.679-.001 9.345-.5 14-.75.626-1.584 1.126-2.5 1.5.951.718 1.117 1.551.5 2.5-1.319-1.749-1.819-3.749-1.5-6 0-.667.333-1 1-1-.131.876.203 1.543 1 2a49.87 49.87 0 0 0 1-14z"/><path fill="#211e23" d="M47.5 53.5c.597.235.93.735 1 1.5-1.761 3.225-2.428 6.725-2 10.5.108 2.014-.558 3.68-2 5-2.538.007-5.038.341-7.5 1-1.376-.184-2.209-.851-2.5-2 2.822-1.007 5.822-1.841 9-2.5a4.93 4.93 0 0 0-3-.5c.237-1.291-.096-2.291-1-3 2.6-2.089 2.434-4.089-.5-6-.945.405-1.612 1.072-2 2-2.443-.785-4.943-.619-7.5.5 1.473.71 2.14 1.876 2 3.5h5c-.027 1.699-.694 3.033-2 4-2.858.472-4.858-.528-6-3 .113-2.549-.554-4.882-2-7 .124-.607.457-.94 1-1 .597.639 1.43.972 2.5 1a219.52 219.52 0 0 1 13.5-2c1.833-.085 3.166-.752 4-2z"/><path fill="#181e26" d="M61.5 50.5c4.329.546 8.663 1.546 13 3a7.11 7.11 0 0 1 1 5h8c-5.855 1.795-11.855 2.129-18 1-1.224-2.572-2.891-4.905-5-7 .043-.916.376-1.583 1-2z"/><path fill="#2d1513" d="M98.5 45.5v-1c8.165 3.338 11.332 9.338 9.5 18-.972 3.936-2.472 7.603-4.5 11-.597-.235-.93-.735-1-1.5 3.934-6.608 3.934-13.108 0-19.5 0-.667-.333-1-1-1l-3-6z"/><path fill="#6b8ca6" d="M125.5 36.5h1c-.321 5.526.012 10.859 1 16 .801 1.542 1.134 3.209 1 5v2a84.94 84.94 0 0 0-13 .5l-2.5 2.5c-1.319-1.749-1.819-3.749-1.5-6 1.999 1.356 3.165.69 3.5-2a53.3 53.3 0 0 0 7.5 4 25.86 25.86 0 0 1 3-5c-1.353-1.024-2.02-2.357-2-4 .617.111 1.117.444 1.5 1 .499-4.655.666-9.321.5-14z"/><path fill="#5b392f" d="M63.5 61.5h-3c-3.897-2.854-7.564-2.52-11 1a110.33 110.33 0 0 1 2.5-8c.725-.559 1.558-.892 2.5-1 3.431 2.212 6.431 4.879 9 8z"/><path fill="#4d241a" d="M39.5 63.5c-1.676.683-2.343 2.017-2 4h-3c1.306-.967 1.973-2.301 2-4h-5c.14-1.624-.527-2.79-2-3.5 2.557-1.119 5.057-1.285 7.5-.5.388-.928 1.055-1.595 2-2 2.934 1.911 3.1 3.911.5 6z"/><path fill="#aa9c9a" d="M110.5 55.5c.667 0 1 .333 1 1-.319 2.251.181 4.251 1.5 6l2.5-2.5a84.94 84.94 0 0 1 13-.5c4.358.408 8.025 2.075 11 5a57.51 57.51 0 0 1-14-4c-5.068.852-10.068 1.852-15 3v-8z"/><path fill="#631f20" d="M84.5 55.5h1c.584 2.785-.416 4.452-3 5-2.027-.162-4.027.005-6 .5-3.109.696-5.942 1.862-8.5 3.5-.671-.752-1.504-1.086-2.5-1-1-.333-1.667-1-2-2 1.333 0 2-.667 2-2 6.145 1.129 12.145.795 18-1 .904-.709 1.237-1.709 1-3z"/><path fill="#857b7c" d="M60.5 61.5a4.93 4.93 0 0 0-3 .5c-.723 2.018-1.723 3.852-3 5.5-2.203.104-4.203.77-6 2l-1-4c.432-1.21 1.099-2.209 2-3 3.436-3.52 7.103-3.854 11-1z"/><path fill="#dd864f" d="M23.5 62.5c.875 2.19 2.541 3.19 5 3v1h-4c.129 1.716.462 3.383 1 5-.617-.111-1.117-.444-1.5-1-.497-2.646-.664-5.313-.5-8z"/><path fill="#212733" d="M82.5 60.5v1c-4.11 2.865-8.777 4.198-14 4-1.527.073-2.527-.594-3-2 .996-.086 1.829.248 2.5 1 2.558-1.638 5.391-2.804 8.5-3.5 1.973-.495 3.973-.662 6-.5z"/><path fill="#77879a" d="M97.5 64.5a90.01 90.01 0 0 1-4 10c-1.867 1.26-3.201 2.927-4 5-.996.086-1.829-.248-2.5-1-.997 1.823-2.164 3.49-3.5 5-1.175.219-2.175-.114-3-1 1.565-3.453 2.565-7.12 3-11-2.528-1.017-2.528-2.184 0-3.5l-2-3c.837-1.011 1.17-2.178 1-3.5v-1c2.584-.548 3.584-2.215 3-5 .891-.61 1.891-.943 3-1 .658-.898 1.324-1.898 2-3l2.5 3c1.11-1.537 2.61-2.203 4.5-2-.866 4.101-.866 8.101 0 12z"/><path fill="#5d4146" d="M167.5 39.5a53.77 53.77 0 0 1-2 8c-4.761 6.517-8.761 13.517-12 21-2.064.262-3.397 1.429-4 3.5 1.104 1.131.771 1.965-1 2.5-1.16-1.586-1.327-3.586-.5-6-1.313.787-2.48.454-3.5-1 2.231-1.576 3.897-3.743 5-6.5.949-.617 1.782-.451 2.5.5 1.284-1.072 1.617-2.405 1-4 4.613-6.253 9.446-12.253 14.5-18z"/><path fill="#f8c77f" d="M28.5 66.5c1.613 1.588 3.613 2.588 6 3 .291 1.149 1.124 1.816 2.5 2 2.462-.659 4.962-.993 7.5-1 1.086.12 1.753.787 2 2 .94 2.632 1.107 5.298.5 8-1.011-.837-2.178-1.17-3.5-1a7.11 7.11 0 0 0 1 5l6 4c-1.12 5.234-1.953 5.234-2.5 0a4.93 4.93 0 0 0-.5 3h-3c-.992.172-1.658-.162-2-1l-17-18v-1c-.538-1.617-.871-3.284-1-5h4z"/><path fill="#74221e" d="M39.5 63.5c.904.709 1.237 1.709 1 3a4.93 4.93 0 0 1 3 .5c-3.178.659-6.178 1.493-9 2.5-2.387-.412-4.387-1.412-6-3v-1-1c1.142 2.472 3.142 3.472 6 3h3c-.343-1.983.324-3.317 2-4z"/><path fill="#433739" d="M13.5 42.5c.997-.03 1.664.47 2 1.5 1.066 3.094 1.732 6.26 2 9.5-1.944 3.616-.944 5.616 3 6v3h3c-.164 2.687.003 5.354.5 8 .383.556.883.889 1.5 1v1c.61.891.943 1.891 1 3-1.424-1.531-2.091-1.198-2 1-.79-1.109-1.29-2.442-1.5-4-.671.752-1.504 1.086-2.5 1a24.94 24.94 0 0 0-.5-7l-1 1-1-4c-.8 3.367-1.966 6.534-3.5 9.5.837 1.011 1.17 2.178 1 3.5-2.438-1.527-4.438-3.527-6-6-.085-1.495.582-2.495 2-3l2-25z"/><path fill="#151a1e" d="M74.5 78.5c-1.986 2.804-4.319 5.47-7 8l-1-3c.487-1.804 1.153-3.471 2-5 2.385-2.384 4.385-5.05 6-8 .904-.709 1.237-1.709 1-3h4c.157 1.373-.01 2.707-.5 4-2.02 2.051-3.52 4.384-4.5 7z"/><path fill="#7596b1" d="M60.5 61.5h3c.333 1 1 1.667 2 2 .473 1.406 1.473 2.073 3 2 1.49 1.78 3.49 2.447 6 2v3c-1.615 2.95-3.615 5.616-6 8-2.293.256-4.459-.077-6.5-1l-1-8c-.383-.556-.883-.889-1.5-1-1.542-.801-3.209-1.134-5-1 1.277-1.648 2.277-3.482 3-5.5a4.93 4.93 0 0 1 3-.5z"/><path fill="#f8e5cc" d="M139.5 64.5v2l5.5 10c.939 4.635.439 8.969-1.5 13-2.527-2.295-4.027-5.295-4.5-9-.377-1.442-1.21-2.442-2.5-3-2.071-5.443-5.904-9.11-11.5-11a66.45 66.45 0 0 1-9.5 1c-.918 3.036-1.584 5.703-2 8-2.614-3.468-3.614-7.468-3-12 4.932-1.148 9.932-2.148 15-3a57.51 57.51 0 0 0 14 4z"/><path fill="#1b1819" d="M54.5 67.5c1.791-.134 3.458.199 5 1 .844 3.599 1.177 7.266 1 11a4.85 4.85 0 0 1 4 1c-.746 1.236-1.079 2.57-1 4-2.544-.396-4.711.271-6.5 2-.671-.752-1.504-1.086-2.5-1v-5c-1.459.067-2.792-.266-4-1-1.915-3.135-2.582-6.469-2-10 1.797-1.23 3.797-1.896 6-2z"/><path fill="#e8bd8f" d="M136.5 77.5c-5.435-6.048-12.101-8.048-20-6-.67 1.791-1.337 3.458-2 5-.667 0-1-.333-1-1 .416-2.297 1.082-4.964 2-8a66.45 66.45 0 0 0 9.5-1c5.596 1.89 9.429 5.557 11.5 11z"/><path fill="#d77f42" d="M25.5 72.5l17 18c-1.517-.011-2.684-.677-3.5-2a4.93 4.93 0 0 0-.5 3 136.98 136.98 0 0 0-12-16c-.057-1.109-.39-2.109-1-3z"/><path fill="#fbe0c5" d="M187.5 60.5l-5 6c-5.726 1.4-10.393 4.4-14 9-4.626 1.64-6.959 4.974-7 10l-4 3c-1.524-1.027-2.191-2.527-2-4.5-.146-2.034.52-3.701 2-5-1.84-2.826-2.506-5.993-2-9.5l6-7c1.617 1.089 2.45 2.756 2.5 5 1.085.793 2.252 1.46 3.5 2 .974-2.243 1.308-4.576 1-7 .79 1.108 1.29 2.442 1.5 4 1.615-.886 3.115-1.886 4.5-3 .06.543.393.876 1 1a35.08 35.08 0 0 0 8-6c1.22 1.211 2.387 1.211 3.5 0 .464.594.631 1.261.5 2z"/><path fill="#5e6a78" d="M82.5 61.5c.17 1.322-.163 2.489-1 3.5l2 3c-2.528 1.316-2.528 2.483 0 3.5-.435 3.88-1.435 7.547-3 11 .825.886 1.825 1.219 3 1a115.69 115.69 0 0 1-5.5 7 7.29 7.29 0 0 1-2-3c-3.223 3.648-6.723 3.981-10.5 1 1.44-.863 2.774-.863 4 0 1.299-.59 2.132-1.59 2.5-3l1 1a46.14 46.14 0 0 1 1.5-8c.98-2.616 2.48-4.949 4.5-7 .49-1.293.657-2.627.5-4h-4c.237 1.291-.096 2.291-1 3v-3c-2.51.447-4.51-.22-6-2 5.223.198 9.89-1.135 14-4z"/><path fill="#f99585" d="M182.5 66.5c.555 2.229 1.889 3.895 4 5l-4 4c-.667 0-1 .333-1 1-3.917 1.912-7.583 4.245-11 7 .131-.876-.202-1.543-1-2-.951.826-1.951.992-3 .5 1.333-.667 1.333-1.333 0-2 2.785-.726 3.452-2.226 2-4.5 3.607-4.6 8.274-7.6 14-9z"/><path fill="#ed8274" d="M110.5 63.5c-.614 4.532.386 8.532 3 12 0 .667.333 1 1 1v3c0 .667-.333 1-1 1-2.562-3.522-4.228-7.522-5-12 .301-1.922.967-3.588 2-5z"/><path fill="#896148" d="M136.5 77.5a90.91 90.91 0 0 1 4 12.5c-1.688 4.52-4.355 8.354-8 11.5-1.583-2.163-2.916-4.496-4-7 1.791.983 3.291 2.317 4.5 4 1.905-1.924 3.072-4.257 3.5-7-3.867-11.59-11.201-15.59-22-12v-3c.663-1.542 1.33-3.209 2-5 7.899-2.048 14.565-.048 20 6z"/><path fill="#61595e" d="M9.5 70.5c1.562 2.473 3.562 4.473 6 6 .902 2.891 1.236 5.891 1 9-4.157-.911-7.491-3.078-10-6.5l-7-3.5v-5c3.221-.482 6.554-.482 10 0z"/><path fill="#613e2d" d="M128.5 94.5c-1.422-1.425-3.089-2.425-5-3-2.003-2.482-4.669-3.482-8-3-1.422-1.425-3.089-2.425-5-3 1.252-1.501 2.252-3.168 3-5 .667 0 1-.333 1-1 10.799-3.59 18.133.41 22 12-.428 2.743-1.595 5.076-3.5 7-1.209-1.683-2.709-3.017-4.5-4z"/><path fill="#ecb06f" d="M46.5 65.5h1l1 4c-.582 3.531.085 6.865 2 10-.396 2.544.271 4.711 2 6.5-1.532 5.437.302 9.27 5.5 11.5 1.78-1.139 3.614-2.139 5.5-3 2.251-.319 4.251.181 6 1.5-2.504.698-4.837 1.531-7 2.5h-3-5l-6-3a11.49 11.49 0 0 1-4-4h3a4.93 4.93 0 0 1 .5-3c.547 5.234 1.38 5.234 2.5 0l-6-4a7.11 7.11 0 0 1-1-5c1.322-.17 2.489.163 3.5 1 .607-2.702.44-5.368-.5-8-.247-1.213-.914-1.88-2-2 1.442-1.32 2.108-2.986 2-5z"/><path fill="#454850" d="M59.5 68.5c.617.111 1.117.444 1.5 1l1 8c2.041.923 4.207 1.256 6.5 1-.847 1.529-1.513 3.196-2 5l1 3c2.681-2.53 5.014-5.196 7-8a46.14 46.14 0 0 0-1.5 8l-1-1c-.368 1.41-1.201 2.41-2.5 3-1.226-.863-2.56-.863-4 0-.789-.283-1.456-.783-2-1.5 1.098-.77 1.098-1.603 0-2.5-.079-1.43.254-2.764 1-4a4.85 4.85 0 0 0-4-1c.177-3.734-.156-7.401-1-11z"/><path fill="#efa192" d="M155.5 69.5c-.506 3.507.16 6.674 2 9.5-1.48 1.299-2.146 2.966-2 5-.191 1.973.476 3.473 2 4.5l4-3c.041-5.026 2.374-8.36 7-10 1.452 2.274.785 3.774-2 4.5 1.333.667 1.333 1.333 0 2 1.049.492 2.049.326 3-.5.798.457 1.131 1.124 1 2-1.433 1.333-2.767 2.833-4 4.5-3.398 1.357-6.398 3.19-9 5.5-1.634-.707-2.968-1.873-4-3.5.647-6.303.98-12.803 1-19.5 0-.667.333-1 1-1z"/><path fill="#71171c" d="M98.5 42.5c.891.61 1.891.943 3 1 1.338 2.17 3.172 3.837 5.5 5l3.5 7v8c-1.033 1.412-1.699 3.078-2 5 .772 4.478 2.438 8.478 5 12-.748 1.832-1.748 3.499-3 5a3 3 0 0 0-2 2c-2.249.58-3.915 1.913-5 4l-13 8a.91.91 0 0 1-1-.5c2.374-2.039 4.374-4.372 6-7-.667-.667-1.333-.667-2 0-1.58 2.295-3.58 3.628-6 4 4.718-7.934 10.051-15.434 16-22.5 2.028-3.397 3.528-7.064 4.5-11 1.832-8.662-1.335-14.662-9.5-18-.418-.722-1.084-1.222-2-1.5.594-.464 1.261-.631 2-.5z"/><path fill="#936866" d="M139.5 66.5c1.435 1.901 3.102 2.234 5 1 1.02 1.454 2.187 1.787 3.5 1-.827 2.414-.66 4.414.5 6 1.771-.535 2.104-1.369 1-2.5.603-2.071 1.936-3.238 4-3.5-.172.992.162 1.658 1 2-.02 6.697-.353 13.197-1 19.5 1.032 1.627 2.366 2.793 4 3.5-2.015 1.424-4.348 2.091-7 2 .216-2.181-.617-3.847-2.5-5-2.388 1.793-4.554 3.793-6.5 6 1.433-2.058 2.1-4.391 2-7 1.939-4.031 2.439-8.365 1.5-13l-5.5-10z"/><path fill="#40332b" d="M199.5 71.5v14c-4.877 1.437-9.544 3.437-14 6-2.957-.681-5.957-.848-9-.5a32.04 32.04 0 0 1 4-2.5l-3-2c3.028-2.03 5.361-4.697 7-8 1.22-1.211 2.387-1.211 3.5 0 3.189-4.147 7.022-6.481 11.5-7z"/><path fill="#53251b" d="M-.5 83.5c3.132 1.546 5.798 3.546 8 6 .131.876-.202 1.543-1 2l-7-2v-6z"/><path fill="#4e2c23" d="M93.5 74.5c-1.998 7.181-5.164 13.848-9.5 20-1.521.019-3.021.352-4.5 1-2.596.555-4.929 1.555-7 3-.739.131-1.406-.036-2-.5.578-1.417 1.578-2.25 3-2.5 1.548-.321 2.215-1.321 2-3a8.8 8.8 0 0 0 5-1.5 144.71 144.71 0 0 0 9-11.5c.799-2.073 2.133-3.74 4-5z"/><path fill="#715b5c" d="M181.5 76.5c-1.068 2.575-2.735 4.742-5 6.5l-11 7c-1.333.667-1.333 1.333 0 2a18.98 18.98 0 0 1-8 1.5c2.602-2.31 5.602-4.143 9-5.5 1.233-1.667 2.567-3.167 4-4.5 3.417-2.755 7.083-5.088 11-7z"/><path fill="#944e4c" d="M50.5 79.5c1.208.734 2.541 1.067 4 1v5a19.16 19.16 0 0 0 2.5 5 4.93 4.93 0 0 0 .5-3c1.699-.16 3.366.007 5 .5-1.109 1.813-.442 2.646 2 2.5l-1 4c-1.886.861-3.72 1.861-5.5 3-5.198-2.23-7.032-6.063-5.5-11.5-1.729-1.789-2.396-3.956-2-6.5z"/><path fill="#4a3e3c" d="M199.5 64.5v7c-4.478.519-8.311 2.853-11.5 7-1.113-1.211-2.28-1.211-3.5 0-1.639 3.303-3.972 5.97-7 8l3 2a32.04 32.04 0 0 0-4 2.5c3.043-.348 6.043-.181 9 .5 4.456-2.563 9.123-4.563 14-6v2c-10.559 4.613-20.892 9.779-31 15.5-2.617.822-5.284 1.322-8 1.5-1.524-.674-2.858-1.674-4-3-1.175 1.355-2.175 1.188-3-.5l1-1c-1.634-.493-3.301-.66-5-.5.734-1.208 1.067-2.541 1-4 2.652.091 4.985-.576 7-2a18.98 18.98 0 0 0 8-1.5c-1.333-.667-1.333-1.333 0-2l11-7c2.265-1.758 3.932-3.925 5-6.5 0-.667.333-1 1-1a148.4 148.4 0 0 1 17-11z"/><path fill="#746467" d="M89.5 79.5a144.71 144.71 0 0 1-9 11.5 8.8 8.8 0 0 1-5 1.5c.215 1.679-.452 2.679-2 3-1.306-.967-1.973-2.301-2-4-1.644-.213-3.144.12-4.5 1-.417-1.256-1.25-1.923-2.5-2-2.442.146-3.109-.687-2-2.5-1.634-.493-3.301-.66-5-.5a4.93 4.93 0 0 1-.5 3 19.16 19.16 0 0 1-2.5-5c.996-.086 1.829.248 2.5 1 1.789-1.729 3.956-2.396 6.5-2 1.098.897 1.098 1.73 0 2.5.544.717 1.211 1.217 2 1.5 3.777 2.981 7.277 2.648 10.5-1a7.29 7.29 0 0 0 2 3 115.69 115.69 0 0 0 5.5-7c1.336-1.51 2.503-3.177 3.5-5 .671.752 1.504 1.086 2.5 1z"/><path fill="#03468a" d="M108.5 87.5c-.149 1.052.017 2.052.5 3a287.16 287.16 0 0 0 7.5 10c.632 4.965 2.632 9.299 6 13-.283.789-.783 1.456-1.5 2-4.703-1.109-9.036-.109-13 3-.268-2.09.732-3.424 3-4 .667-1 .667-2 0-3-4.19 5.62-6.19 5.287-6-1-1.011.837-2.178 1.17-3.5 1-1.146-3.328-1.313-6.661-.5-10-1.194 2.123-1.86 4.457-2 7-2.146-4.173-1.813-8.173 1-12l1 4c1.549-2.812 2.382-5.812 2.5-9 1.085-2.087 2.751-3.42 5-4z"/><path fill="#8aa2b4" d="M115.5 88.5c3.331-.482 5.997.518 8 3 1.668 1.84 3.168 3.84 4.5 6 .74 1.249.573 2.249-.5 3-.995-3.172-2.995-5.005-6-5.5a62.06 62.06 0 0 1 1.5 10.5c2.395 1.581 2.895 3.581 1.5 6l-2-3c-1.592-4.536-3.258-9.036-5-13.5a11.46 11.46 0 0 1 1-2.5c-1.41-1.07-2.41-2.403-3-4z"/><path fill="#736364" d="M150.5 95.5c.067 1.459-.266 2.792-1 4-2.607.474-5.607.807-9 1-5.823 5.028-4.99 8.361 2.5 10 2.276-.65 4.442-.65 6.5 0a10.26 10.26 0 0 0 1.5-4c1.113.805 2.279 1.472 3.5 2 .667 0 1 .333 1 1-3.587 2.309-7.587 3.475-12 3.5.556.383.889.883 1 1.5-2.504-1.084-4.837-2.417-7-4-1.812-1.961-2.812-4.294-3-7a34.82 34.82 0 0 0 7-7c1.946-2.207 4.112-4.207 6.5-6 1.883 1.153 2.716 2.819 2.5 5z"/><path fill="#bb8352" d="M64.5 90.5c1.25.077 2.083.744 2.5 2 1.356-.88 2.856-1.213 4.5-1 .027 1.699.694 3.033 2 4-1.422.25-2.422 1.083-3 2.5.594.464 1.261.631 2 .5 1.677.683 2.343 2.017 2 4h-4l2-2a7.11 7.11 0 0 0-5-1c-1.419-.951-3.085-1.284-5-1 2.163-.969 4.496-1.802 7-2.5-1.749-1.319-3.749-1.819-6-1.5l1-4z"/><path fill="#a1e0ec" d="M110.5 85.5c1.911.575 3.578 1.575 5 3 .59 1.597 1.59 2.93 3 4a11.46 11.46 0 0 0-1 2.5c1.742 4.464 3.408 8.964 5 13.5v3a88.01 88.01 0 0 1-6-11 287.16 287.16 0 0 1-7.5-10c-.483-.948-.649-1.948-.5-3a3 3 0 0 1 2-2z"/><path fill="#677c62" d="M199.5 87.5v2c-9.096 4.049-17.763 8.882-26 14.5-5.701 2.957-11.701 4.79-18 5.5 0-.667-.333-1-1-1 2.178-1.775 4.511-2.609 7-2.5-.556-.383-.889-.883-1-1.5 2.716-.178 5.383-.678 8-1.5 10.108-5.721 20.441-10.887 31-15.5z"/><path fill="#283844" d="M20.5 73.5a340.06 340.06 0 0 1-1 31h-3c-2.086-.648-3.086-2.148-3-4.5.678-2.524 2.011-4.69 4-6.5a40.39 40.39 0 0 1-10-4c-2.202-2.454-4.868-4.454-8-6v-8l7 3.5c2.509 3.422 5.843 5.589 10 6.5.236-3.109-.098-6.109-1-9 .17-1.322-.163-2.489-1-3.5 1.534-2.966 2.7-6.133 3.5-9.5l1 4 1-1a24.94 24.94 0 0 1 .5 7z"/><path fill="#e7281e" d="M42.5 90.5c.342.838 1.008 1.172 2 1a11.49 11.49 0 0 0 4 4c-.06.543-.393.876-1 1l-4-3-1 1c2.014 2.345 4.347 4.345 7 6-.457.798-1.124 1.131-2 1-1.72-.808-3.387-1.808-5-3h-1a19.51 19.51 0 0 1-3-7 4.93 4.93 0 0 1 .5-3c.816 1.323 1.983 1.989 3.5 2z"/><path fill="#b93e1f" d="M79.5 95.5c1.282 1.208 1.282 2.542 0 4-2.751 2.709-6.084 4.375-10 5a100.36 100.36 0 0 0-8-1.5c-1.537-1.11-2.203-2.61-2-4.5h3c1.915-.284 3.581.049 5 1-2.165-.384-3.831.283-5 2a16.87 16.87 0 0 0 8 1h4c.343-1.983-.323-3.317-2-4 2.071-1.445 4.404-2.445 7-3z"/><path fill="#e0e5ce" d="M199.5 89.5v6c-7.866 2.678-15.532 5.844-23 9.5-3.53 1.927-6.863 4.094-10 6.5a247.83 247.83 0 0 1-9 3.5l10 3a12.93 12.93 0 0 1-5 .5h-5c-4.342-.987-8.675-2.321-13-4-.111-.617-.444-1.117-1-1.5 4.413-.025 8.413-1.191 12-3.5 6.299-.71 12.299-2.543 18-5.5 8.237-5.618 16.904-10.451 26-14.5z"/><path fill="#2e3f4b" d="M-.5 95.5c5.6.765 8.6 3.932 9 9.5-3.075.139-6.075-.361-9-1.5v-8z"/><path fill="#06325d" d="M103.5 91.5c-.118 3.188-.951 6.188-2.5 9l-1-4c-2.813 3.827-3.146 7.827-1 12 .14-2.543.806-4.877 2-7-.813 3.339-.646 6.672.5 10 1.322.17 2.489-.163 3.5-1-.19 6.287 1.81 6.62 6 1 .667 1 .667 2 0 3-2.268.576-3.268 1.91-3 4 3.964-3.109 8.297-4.109 13-3 .717-.544 1.217-1.211 1.5-2l2 1v4h-3c-.283-.789-.783-1.456-1.5-2a95.39 95.39 0 0 0-10.5 2.5c-1.315 1.395-.981 2.395 1 3-2.399 1.98-4.399 4.147-6 6.5l-3 2c-.543-.06-.876-.393-1-1l4.5-12-3 3c-1-1.333-2-1.333-3 0-.219-1.438-.719-2.771-1.5-4-.917.627-1.917.961-3 1-.992.172-1.658-.162-2-1-2.068-.875-4.068-2.041-6-3.5l.5-6.5c1.795-1.219 1.628-2.219-.5-3 1.639-.973 2.973-2.306 4-4l13-8z"/><path fill="#202429" d="M24.5 76.5c1.613 1.338 2.113 3.005 1.5 5l-2-2a16.25 16.25 0 0 0 0 8c3.364 2.607 6.865 5.107 10.5 7.5-1.766 8.359-2.433 16.859-2 25.5a54.68 54.68 0 0 1-1-18h-4-3c.349-2.545-.484-4.545-2.5-6a226.89 226.89 0 0 1-1.5 8.5c.255 1.326.922 2.326 2 3-.854 1.022-1.854 1.855-3 2.5-.706-2.204-1.706-4.204-3-6h3a340.06 340.06 0 0 0 1-31c.996.086 1.829-.248 2.5-1 .21 1.558.71 2.891 1.5 4z"/><path fill="#a61716" d="M48.5 95.5l6 3c.086.996-.248 1.829-1 2.5 2.832 1.908 2.499 2.741-1 2.5a20.69 20.69 0 0 0-5-1v-1c.876.131 1.543-.202 2-1-2.653-1.655-4.986-3.655-7-6l1-1 4 3c.607-.124.94-.457 1-1z"/><path fill="#e5c3b4" d="M127.5 100.5c.936 4.235 1.269 8.569 1 13-1.208.734-2.541 1.067-4 1-.282-1.278-.949-2.278-2-3v-3c.658.898 1.324 1.898 2 3 1.395-2.419.895-4.419-1.5-6a62.06 62.06 0 0 0-1.5-10.5c3.005.495 5.005 2.328 6 5.5z"/><path fill="#edb77d" d="M136.5 77.5c1.29.558 2.123 1.558 2.5 3 .473 3.705 1.973 6.705 4.5 9 .1 2.609-.567 4.942-2 7a34.82 34.82 0 0 1-7 7 3 3 0 0 0-2-2c3.645-3.146 6.312-6.98 8-11.5a90.91 90.91 0 0 0-4-12.5z"/><path fill="#201e20" d="M-.5 89.5l7 2c.798-.457 1.131-1.124 1-2a40.39 40.39 0 0 0 10 4c-1.989 1.81-3.322 3.976-4 6.5-.086 2.352.914 3.852 3 4.5 1.294 1.796 2.294 3.796 3 6 1.146-.645 2.146-1.478 3-2.5-1.078-.674-1.745-1.674-2-3a226.89 226.89 0 0 0 1.5-8.5c2.016 1.455 2.849 3.455 2.5 6h3l1 15-2 1-6-2c-1.884-.212-3.217-1.212-4-3-2.631.844-5.131 1.177-7.5 1-3.349-1.177-4.849-3.51-4.5-7a20.69 20.69 0 0 1-5-1v-3c2.925 1.139 5.925 1.639 9 1.5-.4-5.568-3.4-8.735-9-9.5v-6z"/><path fill="#5c1617" d="M102.5 52.5c3.934 6.392 3.934 12.892 0 19.5.07.765.403 1.265 1 1.5-5.949 7.066-11.282 14.566-16 22.5 2.42-.372 4.42-1.705 6-4 .667-.667 1.333-.667 2 0-1.626 2.628-3.626 4.961-6 7a.91.91 0 0 0 1 .5c-1.027 1.694-2.361 3.027-4 4l-4 1c1.068-2.575 2.734-4.742 5-6.5-1.167-.5-2-1.333-2.5-2.5-3.032 3.859-6.198 7.526-9.5 11-2.237-1.037-4.571-1.203-7-.5 5.093 1.555 5.093 2.388 0 2.5l-2-1c-4.266-2.255-8.932-3.255-14-3v-1c3.499.241 3.832-.592 1-2.5.752-.671 1.086-1.504 1-2.5h5c-.203 1.89.463 3.39 2 4.5a100.36 100.36 0 0 1 8 1.5c3.916-.625 7.249-2.291 10-5 1.282-1.458 1.282-2.792 0-4 1.479-.648 2.979-.981 4.5-1 4.336-6.152 7.502-12.819 9.5-20a90.01 90.01 0 0 0 4-10h1c-.319 2.251.181 4.251 1.5 6 .617-.949.451-1.782-.5-2.5.916-.374 1.75-.874 2.5-1.5.499-4.655.666-9.321.5-14z"/><path fill="#ecdb15" d="M67.5 99.5a7.11 7.11 0 0 1 5 1l-2 2a16.87 16.87 0 0 1-8-1c1.169-1.717 2.835-2.384 5-2z"/><path fill="#2e2724" d="M27.5 102.5h4a54.68 54.68 0 0 0 1 18c-.067 1.459.266 2.792 1 4-.879 1.73-2.212 3.063-4 4-3.973-.884-7.973-1.551-12-2-5.969-.885-11.969-1.552-18-2v-5c5.656.165 11.156 1.165 16.5 3 3.108-.831 2.942-1.664-.5-2.5a20.64 20.64 0 0 1 6-2c-.556-.383-.889-.883-1-1.5l6 2 2-1-1-15z"/><path fill="#c89e83" d="M42.5 98.5c1.613 1.192 3.28 2.192 5 3v1c-.482 2.546-1.482 4.879-3 7-1.421-3.527-2.088-7.194-2-11z"/><path fill="#4b4e56" d="M149.5 99.5c1.699-.16 3.366.007 5 .5l-1 1c.825 1.688 1.825 1.855 3 .5 1.142 1.326 2.476 2.326 4 3 .111.617.444 1.117 1 1.5-2.489-.109-4.822.725-7 2.5-1.221-.528-2.387-1.195-3.5-2a10.26 10.26 0 0 1-1.5 4c-2.058-.65-4.224-.65-6.5 0-7.49-1.639-8.323-4.972-2.5-10 3.393-.193 6.393-.526 9-1z"/><path fill="#b9b1af" d="M123.5 91.5c1.911.575 3.578 1.575 5 3 1.084 2.504 2.417 4.837 4 7 .158 3.402-.176 6.736-1 10l-3 2c.269-4.431-.064-8.765-1-13 1.073-.751 1.24-1.751.5-3-1.332-2.16-2.832-4.16-4.5-6z"/><path fill="#ae1315" d="M82.5 104.5c-2.21.851-4.21 2.184-6 4-.797-.457-1.131-1.124-1-2 3.302-3.474 6.468-7.141 9.5-11 .5 1.167 1.333 2 2.5 2.5-2.266 1.758-3.932 3.925-5 6.5z"/><path fill="#5d4a3f" d="M199.5 98.5v7c-3.979-.519-6.313 1.148-7 5-.961 1.765-1.295 3.765-1 6h-5v-3c-2.473.236-4.14 1.569-5 4-.464-1.136-.798-2.136-1-3l2-2c2.493-1.274 5.159-1.94 8-2-.151-3.814-2.151-5.481-6-5 1.602-1.574 3.602-2.241 6-2v-3a18.33 18.33 0 0 0 9-2z"/><path fill="#363d46" d="M26.5 75.5a136.98 136.98 0 0 1 12 16 19.51 19.51 0 0 0 3 7v12c-.802 1.452-1.302 3.118-1.5 5l-1-5a12.24 12.24 0 0 0-4.5-6c-1.257 6.691-1.257 13.358 0 20h-1c-.734-1.208-1.067-2.541-1-4-.433-8.641.234-17.141 2-25.5-3.636-2.393-7.135-4.893-10.5-7.5a16.25 16.25 0 0 1 0-8l2 2c.613-1.995.113-3.662-1.5-5-.091-2.198.576-2.531 2-1z"/><path fill="#9b7b69" d="M184.5 105.5c3.849-.481 5.849 1.186 6 5-2.841.06-5.507.726-8 2-3.393.036-4.727-1.297-4-4 1.618-.951 2.951-2.284 4-4l2 1z"/><path fill="#608faf" d="M116.5 100.5a88.01 88.01 0 0 0 6 11c1.051.722 1.718 1.722 2 3l-2-1c-3.368-3.701-5.368-8.035-6-13z"/><path fill="#697e64" d="M199.5 95.5v3a18.33 18.33 0 0 1-9 2v3c-2.398-.241-4.398.426-6 2l-2-1c-1.049 1.716-2.382 3.049-4 4-3.652 1.737-7.485 3.07-11.5 4a.91.91 0 0 1-.5-1c3.137-2.406 6.47-4.573 10-6.5 7.468-3.656 15.134-6.822 23-9.5z"/><path fill="#172d48" d="M86.5 103.5c2.128.781 2.295 1.781.5 3l-.5 6.5c1.932 1.459 3.932 2.625 6 3.5-7.514 1.487-15.18 2.654-23 3.5-1.76.965-2.094 2.132-1 3.5a124.09 124.09 0 0 1 13 8c-.086.996.248 1.829 1 2.5l-1.5.5c-2.775-3.067-6.275-4.734-10.5-5-1.235.84-2.235 1.84-3 3-1.797-1.949-3.797-3.616-6-5-1.891-2.672-4.558-3.672-8-3l8-2c1.168-1.406.835-2.572-1-3.5 1.175-2.838 1.009-5.671-.5-8.5l-1 2c-.49-1.293-.657-2.627-.5-4-2.121-.175-4.121.159-6 1-.572-1.473-.572-3.14 0-5 5.068-.255 9.734.745 14 3a38.82 38.82 0 0 1-8.5-2l-.5 1c3.535.469 6.535 1.969 9 4.5 1.537 1.11 2.204 2.61 2 4.5.543 1.316 2.376 2.316 5.5 3 3.076-.788 6.242-1.288 9.5-1.5 2.355-1.865 2.522-4.031.5-6.5a26.55 26.55 0 0 1-7.5 3c-.781-1.229-1.281-2.562-1.5-4l-2 2c-1.31-1.397-2.81-2.397-4.5-3 5.093-.112 5.093-.945 0-2.5 2.429-.703 4.763-.537 7 .5-.131.876.203 1.543 1 2 1.79-1.816 3.79-3.149 6-4l4-1z"/><path fill="#96694a" d="M199.5 105.5v7c-2.567-.221-4.901-.888-7-2 .687-3.852 3.021-5.519 7-5z"/><path fill="#033666" d="M66.5 107.5l2 1c1.69.603 3.19 1.603 4.5 3l2-2c.219 1.438.719 2.771 1.5 4a26.55 26.55 0 0 0 7.5-3c2.022 2.469 1.855 4.635-.5 6.5-3.258.212-6.424.712-9.5 1.5-3.124-.684-4.957-1.684-5.5-3 .204-1.89-.463-3.39-2-4.5-2.465-2.531-5.465-4.031-9-4.5l.5-1a38.82 38.82 0 0 0 8.5 2z"/><path fill="#77635d" d="M178.5 108.5c-.727 2.703.607 4.036 4 4l-2 2h-5v5h-7-5c-.667 0-1-.333-1-1a12.93 12.93 0 0 0 5-.5l-10-3a247.83 247.83 0 0 0 9-3.5.91.91 0 0 0 .5 1c4.015-.93 7.848-2.263 11.5-4z"/><path fill="#7b7478" d="M41.5 98.5h1c-.088 3.806.579 7.473 2 11 1.518-2.121 2.518-4.454 3-7 .364 3.878.364 7.878 0 12a4.85 4.85 0 0 0-4 1c1.211 1.374 2.211 2.874 3 4.5-.676 1.683-1.676 1.85-3 .5l-2-4v-6-12z"/><path fill="#991e18" d="M136.5 110.5h1c2.163 1.583 4.496 2.916 7 4 4.325 1.679 8.658 3.013 13 4a16.87 16.87 0 0 0-8 1c3.777 2.705 7.777 5.038 12 7 .682-.743 1.349-1.409 2-2v2c-.489 1.495-1.155 2.829-2 4-1.142-1.933-2.808-3.433-5-4.5a126.4 126.4 0 0 0-14-5.5c-2.644 1.241-3.477 3.241-2.5 6 2.616 1.886 4.783 4.219 6.5 7-.502 1.021-1.168 1.188-2 .5-1.974-1.92-3.974-3.753-6-5.5.232-6.116-.434-12.116-2-18z"/><path fill="#483328" d="M-.5 106.5a20.69 20.69 0 0 0 5 1c-.349 3.49 1.151 5.823 4.5 7 2.369.177 4.869-.156 7.5-1 .783 1.788 2.116 2.788 4 3 .111.617.444 1.117 1 1.5a20.64 20.64 0 0 0-6 2c3.442.836 3.608 1.669.5 2.5-5.344-1.835-10.844-2.835-16.5-3v-13z"/><path fill="#4e5057" d="M41.5 110.5v6c-.814 2.131-1.314 4.464-1.5 7-1.747-.113-3.58.221-5.5 1-1.257-6.642-1.257-13.309 0-20a12.24 12.24 0 0 1 4.5 6l1 5c.198-1.882.698-3.548 1.5-5z"/><path fill="#032f58" d="M53.5 124.5h-1c-1.009-1.435-2.343-2.269-4-2.5 1.228-.779 2.228-1.779 3-3-.884-2.473-1.217-4.807-1-7 .566-.995 1.233-1.828 2-2.5 1.879-.841 3.879-1.175 6-1-.157 1.373.01 2.707.5 4l1-2c1.509 2.829 1.675 5.662.5 8.5 1.835.928 2.168 2.094 1 3.5l-8 2z"/><path fill="#264a61" d="M131.5 111.5c-.192 3.602-1.526 6.602-4 9a51.57 51.57 0 0 1 1-7l3-2z"/><path fill="#bd1617" d="M157.5 118.5h5c0 .667.333 1 1 1v5l-2 2c-4.223-1.962-8.223-4.295-12-7a16.87 16.87 0 0 1 8-1z"/><path fill="#3e302b" d="M192.5 110.5c2.099 1.112 4.433 1.779 7 2v4a430.98 430.98 0 0 1-28.5 6c-1.045-.873-1.878-1.873-2.5-3h7v-5h5c.202.864.536 1.864 1 3 .86-2.431 2.527-3.764 5-4v3h5c-.295-2.235.039-4.235 1-6z"/><path fill="#603f2d" d="M132.5 101.5a3 3 0 0 1 2 2c.188 2.706 1.188 5.039 3 7h-1l-.5 22a113.11 113.11 0 0 0-3.5 14l2 3c-2.084 1.577-4.084 3.41-6 5.5a42.47 42.47 0 0 1-5 1.5v-3c3.213-.664 5.379-2.664 6.5-6 .667-3.333.667-6.667 0-10-.853-1.625-1.853-1.958-3-1-.609-5.361-.442-10.695.5-16 2.474-2.398 3.808-5.398 4-9 .824-3.264 1.158-6.598 1-10z"/><path fill="#485865" d="M199.5 116.5v3a32.46 32.46 0 0 0-8 .5 140.78 140.78 0 0 1-28 6.5v-2-5h5c.622 1.127 1.455 2.127 2.5 3a430.98 430.98 0 0 0 28.5-6z"/><path fill="#3b5366" d="M47.5 102.5a20.69 20.69 0 0 1 5 1v1c-.572 1.86-.572 3.527 0 5-.767.672-1.434 1.505-2 2.5-.217 2.193.116 4.527 1 7-.772 1.221-1.772 2.221-3 3 1.657.231 2.991 1.065 4 2.5a6.54 6.54 0 0 1-3 3c-1.593.848-2.76 2.181-3.5 4-2.078-3.37-2.911-7.037-2.5-11 1.324 1.35 2.324 1.183 3-.5-.789-1.626-1.789-3.126-3-4.5a4.85 4.85 0 0 1 4-1c.364-4.122.364-8.122 0-12z"/><path fill="#11334d" d="M101.5 130.5c-4.692 2.362-8.025 6.028-10 11-3.441.636-6.441-.53-9-3.5l1-1-11.5-5.5c-.49 1.293-.657 2.627-.5 4-2.119.032-3.452-.968-4-3 .765-1.16 1.765-2.16 3-3 4.225.266 7.725 1.933 10.5 5l1.5-.5c-.752-.671-1.086-1.504-1-2.5h2 3a64.43 64.43 0 0 0 10-12 31.12 31.12 0 0 1-2-2c1.083-.039 2.083-.373 3-1 .781 1.229 1.281 2.562 1.5 4 1-1.333 2-1.333 3 0l3-3-4.5 12c.124.607.457.94 1 1z"/><path fill="#02407f" d="M121.5 118.5c-1.025.397-1.192 1.063-.5 2 1.298 1.06 2.465 2.226 3.5 3.5a16.1 16.1 0 0 0 0 10.5c.064 2.057-.602 3.723-2 5-.79-1.109-1.29-2.442-1.5-4-2.485-1.487-4.652-3.321-6.5-5.5-3.257-1.043-6.59-1.543-10-1.5 1.601-2.353 3.601-4.52 6-6.5-1.981-.605-2.315-1.605-1-3a95.39 95.39 0 0 1 10.5-2.5c.717.544 1.217 1.211 1.5 2z"/><path fill="#9a2c1c" d="M92.5 116.5c.342.838 1.008 1.172 2 1l2 2a64.43 64.43 0 0 1-10 12c-.134-1.792.199-3.458 1-5-1.531-1.425-1.198-2.091 1-2 2.772-.095 4.772-1.429 6-4l-1-1c-1.521 1.437-3.355 2.104-5.5 2a40.01 40.01 0 0 0-13.5-.5c-1.485 1.756-1.152 2.923 1 3.5l3 3h5v4h-2a124.09 124.09 0 0 0-13-8c-1.094-1.368-.76-2.535 1-3.5 7.82-.846 15.486-2.013 23-3.5z"/><path fill="#c0701a" d="M88.5 124.5c-2.198-.091-2.531.575-1 2-3.213-.31-6.213.023-9 1l-3-3c4.506-.811 8.84-.811 13 0z"/><path fill="#e8d617" d="M88.5 124.5c-4.16-.811-8.494-.811-13 0-2.152-.577-2.485-1.744-1-3.5a40.01 40.01 0 0 1 13.5.5c2.145.104 3.979-.563 5.5-2l1 1c-1.228 2.571-3.228 3.905-6 4z"/><path fill="#2a353e" d="M41.5 116.5l2 4c-.411 3.963.422 7.63 2.5 11 .74-1.819 1.907-3.152 3.5-4-1.275 3.104-1.275 6.104 0 9-.879 4.742.788 8.242 5 10.5-1.237.232-2.237.732-3 1.5-3.515.739-6.849.739-10 0 2.625-.966 2.625-1.966 0-3l-42 3v-2c9.902.511 19.402-.822 28.5-4 1.02 1.187 2.186 2.187 3.5 3a181.48 181.48 0 0 0 2-21h1c1.92-.779 3.753-1.113 5.5-1 .186-2.536.686-4.869 1.5-7z"/><path fill="#764226" d="M52.5 124.5h1c3.442-.672 6.109.328 8 3 1.523 2.845 2.523 5.845 3 9-2.254.624-3.921 1.957-5 4l-2 1c1.035-4.842.369-9.509-2-14-1.114-1.276-2.114-1.276-3 0-2.575 2.345-3.575 5.345-3 9-1.275-2.896-1.275-5.896 0-9a6.54 6.54 0 0 0 3-3z"/><path fill="#f01b1f" d="M161.5 130.5c-2.392 6.44-6.059 12.107-11 17-3.558 2.468-7.558 3.468-12 3l-4-1-2-3c2.272-3.314 4.105-6.981 5.5-11 .497-2.31.663-4.643.5-7 2.026 1.747 4.026 3.58 6 5.5.832.688 1.498.521 2-.5-1.717-2.781-3.884-5.114-6.5-7-.977-2.759-.144-4.759 2.5-6a126.4 126.4 0 0 1 14 5.5c2.192 1.067 3.858 2.567 5 4.5z"/><path fill="#f28317" d="M52.5 127.5c1.162 1.178 2.162 2.345 3 3.5l-2 1c.928.388 1.595 1.055 2 2 .516 2.669 1.183 5.169 2 7.5-.473 1.406-1.473 2.073-3 2-1.434-2.547-3.1-4.881-5-7-.575-3.655.425-6.655 3-9z"/><path fill="#c5531c" d="M57.5 141.5c-.817-2.331-1.484-4.831-2-7.5-.405-.945-1.072-1.612-2-2l2-1c-.838-1.155-1.838-2.322-3-3.5.886-1.276 1.886-1.276 3 0 2.369 4.491 3.035 9.158 2 14z"/><path fill="#c89421" d="M78.5 127.5c2.787-.977 5.787-1.31 9-1-.801 1.542-1.134 3.208-1 5h-3v-4h-5z"/><path fill="#684632" d="M104.5 128.5c3.41-.043 6.743.457 10 1.5 1.848 2.179 4.015 4.013 6.5 5.5.21 1.558.71 2.891 1.5 4-.057 1.109-.39 2.109-1 3-3.143 3.373-6.476 6.373-10 9h-5c.039-1.256-.461-2.256-1.5-3-1.766 2.096-3.099 4.429-4 7-4.372 1.239-8.206.239-11.5-3a104.58 104.58 0 0 1 1-9h1c3.987-4.318 8.32-8.318 13-12-.825-.886-1.825-1.219-3-1l3-2z"/><path fill="#252930" d="M199.5 119.5v5c-2.579-.417-4.746.25-6.5 2-3.301.001-6.801-.166-10.5-.5-.525-.692-1.192-1.192-2-1.5-1.944.689-3.944 1.189-6 1.5 4 .667 4 1.333 0 2 1.051 1.385 2.384 2.385 4 3l-3 1a36.08 36.08 0 0 1 3.5 4.5l1-1v4c2.173-2.777 2.673-2.61 1.5.5 1.981.605 2.315 1.605 1 3a25.14 25.14 0 0 1 4 4.5c-5.696.475-11.196-.192-16.5-2l-1 1c-.347-1.68-1.347-2.68-3-3-2.316.434-4.316 1.434-6 3 .077-1.238-.089-2.238-.5-3-3.023.315-5.356 1.648-7 4h-2c4.941-4.893 8.608-10.56 11-17 .845-1.171 1.511-2.505 2-4a140.78 140.78 0 0 0 28-6.5 32.46 32.46 0 0 1 8-.5z"/><path fill="#152734" d="M-.5 124.5c6.031.448 12.032 1.115 18 2 .878 5.518 1.878 11.018 3 16.5l-21 .5v-19z"/><path fill="#151b20" d="M33.5 124.5a181.48 181.48 0 0 1-2 21c-1.314-.813-2.48-1.813-3.5-3-9.098 3.178-18.598 4.511-28.5 4v-3l21-.5c-1.122-5.482-2.122-10.982-3-16.5 4.027.449 8.027 1.116 12 2 1.788-.937 3.121-2.27 4-4z"/><path fill="#9b7b71" d="M101.5 130.5c1.175-.219 2.175.114 3 1-4.68 3.682-9.013 7.682-13 12v-2c1.975-4.972 5.308-8.638 10-11z"/><path fill="#161b20" d="M199.5 124.5v23h-13a25.14 25.14 0 0 0-4-4.5c1.315-1.395.981-2.395-1-3 1.173-3.11.673-3.277-1.5-.5v-4l-1 1a36.08 36.08 0 0 0-3.5-4.5l3-1c-1.616-.615-2.949-1.615-4-3 4-.667 4-1.333 0-2 2.056-.311 4.056-.811 6-1.5.808.308 1.475.808 2 1.5 3.699.334 7.199.501 10.5.5 1.754-1.75 3.921-2.417 6.5-2z"/><path fill="#828894" d="M74.5 158.5c-1.414 1.554-3.081 2.888-5 4 1.127-3.944-.206-7.11-4-9.5-.256-3.02-1.923-5.52-5-7.5-.951-1.419-1.285-3.085-1-5 1.079-2.043 2.746-3.376 5-4 1.638-1.414 2.972-1.08 4 1 1.93 3.773 4.097 7.44 6.5 11a12.5 12.5 0 0 1 0 7c-.615-1.616-1.615-2.949-3-4-.444 2.839.39 5.172 2.5 7z"/><path fill="#75757c" d="M128.5 113.5a51.57 51.57 0 0 0-1 7c-.942 5.305-1.109 10.639-.5 16 1.147-.958 2.147-.625 3 1 .667 3.333.667 6.667 0 10-1.121 3.336-3.287 5.336-6.5 6 .464-4.002-.202-7.669-2-11 .61-.891.943-1.891 1-3 1.398-1.277 2.064-2.943 2-5a16.1 16.1 0 0 1 0-10.5c-1.035-1.274-2.202-2.44-3.5-3.5-.692-.937-.525-1.603.5-2h3v-4c1.459.067 2.792-.266 4-1z"/><path fill="#e29539" d="M78.5 141.5c1.109.057 2.109.39 3 1 .322 3.987 2.156 6.987 5.5 9a8.8 8.8 0 0 0 1.5-5c.904-.709 1.237-1.709 1-3h1a104.58 104.58 0 0 0-1 9 11.74 11.74 0 0 1-5 3c-2.968-4.233-4.968-8.9-6-14z"/><path fill="#f57b15" d="M81.5 142.5c2.496 1.08 4.829 2.414 7 4a8.8 8.8 0 0 1-1.5 5c-3.344-2.013-5.178-5.013-5.5-9z"/><path fill="#c87f4a" d="M136.5 110.5c1.566 5.884 2.232 11.884 2 18 .163 2.357-.003 4.69-.5 7-1.395 4.019-3.228 7.686-5.5 11a113.11 113.11 0 0 1 3.5-14l.5-22z"/><path fill="#e44123" d="M89.5 143.5c.237 1.291-.096 2.291-1 3-2.171-1.586-4.504-2.92-7-4-.891-.61-1.891-.943-3-1-1.817-.719-2.484-1.719-2-3 4.1 2.256 8.434 3.923 13 5z"/><path fill="#e5b177" d="M121.5 142.5c1.798 3.331 2.464 6.998 2 11v3 1c-2.657.338-4.99-.329-7-2a54.02 54.02 0 0 0-4 9c-.817 2.469-1.317 5.135-1.5 8-1.269-1.405-1.769-3.071-1.5-5 1.415-5.582 3.415-10.915 6-16h-3-1c3.524-2.627 6.857-5.627 10-9z"/><path fill="#262428" d="M41.5 148.5a998.15 998.15 0 0 1-39 5 10.02 10.02 0 0 1-3-1v-4l42-3c2.625 1.034 2.625 2.034 0 3z"/><path fill="#495a69" d="M61.5 127.5c2.203 1.384 4.203 3.051 6 5 .548 2.032 1.881 3.032 4 3-.157-1.373.01-2.707.5-4l11.5 5.5-1 1c2.559 2.97 5.559 4.136 9 3.5v2h-1-1c-4.566-1.077-8.9-2.744-13-5-.484 1.281.183 2.281 2 3 1.032 5.1 3.032 9.767 6 14v3l-1 4.5c.749 1.734 1.249 3.567 1.5 5.5 1.935-6.656 2.768-6.322 2.5 1-4.456-.107-5.456 1.393-3 4.5 2.31.497 4.643.663 7 .5v-3a7.11 7.11 0 0 0 5-1 31.12 31.12 0 0 1-2-2h3v8c-4.908-.905-9.241-.905-13 0-1.452-1.44-2.452-3.106-3-5 .02-1.643-.647-2.976-2-4-1.796-.641-3.296-1.641-4.5-3-.451 2.429-1.284 2.596-2.5.5a10.28 10.28 0 0 0 4-6.5c-.757-1.273-1.423-1.273-2 0-2.11-1.828-2.943-4.161-2.5-7 1.385 1.051 2.385 2.384 3 4a12.5 12.5 0 0 0 0-7c-2.403-3.56-4.57-7.227-6.5-11-1.028-2.08-2.362-2.414-4-1-.477-3.155-1.477-6.155-3-9z"/><path fill="#324553" d="M186.5 147.5h13v4l-47-4c1.644-2.352 3.977-3.685 7-4 .411.762.577 1.762.5 3 1.684-1.566 3.684-2.566 6-3 1.653.32 2.653 1.32 3 3l1-1c5.304 1.808 10.804 2.475 16.5 2z"/><path fill="#e3b685" d="M59.5 140.5c-.285 1.915.049 3.581 1 5 .352 4.827 1.352 9.494 3 14-.124.607-.457.94-1 1a330.97 330.97 0 0 1-8-17c1.527.073 2.527-.594 3-2l2-1z"/><path fill="#1d3343" d="M41.5 148.5c3.151.739 6.485.739 10 0 1.422.25 2.422 1.083 3 2.5-9.06 1.488-18.227 3.654-27.5 6.5-.414-.457-.914-.791-1.5-1-7.848 1.4-15.681 3.067-23.5 5-.902-.243-1.735-.577-2.5-1v-8a10.02 10.02 0 0 0 3 1 998.15 998.15 0 0 0 39-5z"/><path fill="#4c5a68" d="M134.5 149.5l4 1c1.792.809 3.792 1.309 6 1.5l-9 5c-1.333 1-1.333 2 0 3-.969 1.758-2.136 2.258-3.5 1.5l-5 5c-.388-.928-1.055-1.595-2-2-1.477.944-2.477 2.277-3 4-.483-.948-.649-1.948-.5-3a35.15 35.15 0 0 0 2-8v-1a42.47 42.47 0 0 0 5-1.5c1.916-2.09 3.916-3.923 6-5.5z"/><path fill="#443933" d="M199.5 153.5v4c-33.154-3.291-33.154-4.624 0-4z"/><path fill="#b69684" d="M106.5 151.5h5 1c-2.167.769-4.334 1.769-6.5 3-.752 3.394-.585 6.727.5 10-.457.798-1.124 1.131-2 1-3.139-5.364-2.472-10.03 2-14z"/><path fill="#ac978d" d="M60.5 145.5c3.077 1.98 4.744 4.48 5 7.5 3.794 2.39 5.127 5.556 4 9.5-.235.597-.735.93-1.5 1a80.61 80.61 0 0 0-5.5-3c.543-.06.876-.393 1-1-1.648-4.506-2.648-9.173-3-14z"/><path fill="#645c60" d="M150.5 147.5h2l47 4v2c-33.154-.624-33.154.709 0 4v16c-2.152-.577-2.485-1.744-1-3.5-1.051-1.385-2.384-2.385-4-3l2-1a33.24 33.24 0 0 0-6-3.5c1.082-.249 2.415-.415 4-.5-6.953-4.447-14.453-6.28-22.5-5.5-4.019-1.546-8.185-2.546-12.5-3-4.536-1.302-9.203-1.302-14 0-2.36 3.027-5.027 5.694-8 8-1.553 1.765-1.886 3.598-1 5.5-2.031.632-3.698 1.799-5 3.5.809 1.571 1.143 3.238 1 5-2.234-.72-4.401-1.053-6.5-1-2.402 1.424-4.735 2.091-7 2-1.481-.971-2.315-2.304-2.5-4 .996-.086 1.829.248 2.5 1 .279-2.957 1.113-5.623 2.5-8-.149 1.052.017 2.052.5 3 .523-1.723 1.523-3.056 3-4 .945.405 1.612 1.072 2 2l5-5c1.364.758 2.531.258 3.5-1.5-1.333-1-1.333-2 0-3l9-5c-2.208-.191-4.208-.691-6-1.5 4.442.468 8.442-.532 12-3z"/><path fill="#31414d" d="M45.5 178.5c-1.15 1.35-1.817 1.184-2-.5.786-2.099 1.12-4.266 1-6.5 3.428-.047 6.428-1.213 9-3.5a12.47 12.47 0 0 0-5-4l1-1c-2.174-.877-3.841-.377-5 1.5-3.297 1.355-3.63.855-1-1.5-1.988-.18-3.988-.014-6 .5.111-.617.444-1.117 1-1.5 3.05-.679 6.05-1.512 9-2.5.797-.457 1.131-1.124 1-2 1.098-.897 1.098-1.73 0-2.5 3.436-.408 6.27.759 8.5 3.5.711 1.867.211 3.367-1.5 4.5 1.393 2.683 2.726 2.85 4 .5 1.823.991 3.323 2.324 4.5 4 2.222-1.778 4.388-1.945 6.5-.5l-1 1c3.355-.795 3.855.372 1.5 3.5-.317-1.801-.984-2.134-2-1l-2 4c-.249-1.124-.749-2.124-1.5-3-2.561.953-5.394.953-8.5 0a16.2 16.2 0 0 0-3.5 1.5c1.017 1.049 1.184 2.216.5 3.5-2.719-.944-5.553-1.277-8.5-1v3z"/><path fill="#789ab5" d="M97.5 168.5h-3a31.94 31.94 0 0 1-1.5-6c-1.252 2.514-1.752 5.18-1.5 8-1.599.268-2.932-.066-4-1 .268-7.322-.565-7.656-2.5-1-.251-1.933-.751-3.766-1.5-5.5l1-4.5c.397 1.025 1.063 1.192 2 .5a24.27 24.27 0 0 1 3.5-3.5c2.569 1.286 5.236 2.286 8 3 1.107-.085 2.107-.419 3-1l-2 10c-.383.556-.883.889-1.5 1z"/><path fill="#d4938e" d="M151.5 156.5c4.476-.848 8.976-1.182 13.5-1a66.87 66.87 0 0 0 5.5 1.5l5 5 8 1c-.457.414-.791.914-1 1.5 2.789.864 5.122 2.364 7 4.5-2.488 1.685-2.155 3.019 1 4a10.26 10.26 0 0 0-4 1.5c1.86.825 3.526 1.825 5 3-.617.111-1.117.444-1.5 1-3.023-1.996-6.19-2.83-9.5-2.5a7.25 7.25 0 0 1-2-2.5c1.103-.498 2.103-.831 3-1-.857-.925-1.857-1.592-3-2-.453-.958-1.119-1.792-2-2.5-3.375-.06-6.208-1.227-8.5-3.5l-1 2c-.284-2.386-1.284-3.052-3-2a8.43 8.43 0 0 1-.5-4l-6-1c-1.879.107-2.212-.393-1-1.5-1.249-1.824-2.415-1.657-3.5.5-.278-.916-.778-1.582-1.5-2z"/><path fill="#4f3438" d="M48.5 157.5c.131.876-.203 1.543-1 2-2.95.988-5.95 1.821-9 2.5-.556.383-.889.883-1 1.5a147.18 147.18 0 0 0-24.5 7c-1.641-1.545-2.807-1.211-3.5 1l-10 3v-10l26-2c.586.209 1.086.543 1.5 1a13.56 13.56 0 0 0 6.5-4c.586.209 1.086.543 1.5 1 4.457-1.231 8.957-2.231 13.5-3z"/><path fill="#2a3c48" d="M45.5 178.5a32.46 32.46 0 0 1 8 .5c-1.859.601-2.192 1.434-1 2.5-.779 2.427-1.946 2.427-3.5 0l-2.5 8.5 13-.5c-8.109 1.568-16.442 2.402-25 2.5-2.345.236-4.345 1.07-6 2.5v-1c.077-1.25.744-2.083 2-2.5-4.781-1.302-4.781-3.302 0-6l-1-1c1.48-2.668 2.98-2.835 4.5-.5.5-1.833 1.667-3 3.5-3.5l-4-2c1.806-1.787 2.473-3.62 2-5.5.65.304 1.316.637 2 1 2.974-3.925 6.974-6.092 12-6.5a11.34 11.34 0 0 1-3.5-1.5c-1.107 1.212-1.607.879-1.5-1 1.159-1.877 2.826-2.377 5-1.5l-1 1a12.47 12.47 0 0 1 5 4c-2.572 2.287-5.572 3.453-9 3.5.12 2.234-.214 4.401-1 6.5.183 1.684.85 1.85 2 .5z"/><path fill="#72565c" d="M159.5 153.5c-4.899-.417-8.899.583-12 3-.789.283-1.456.783-2 1.5 1.211.893 1.211 1.726 0 2.5-2.253.753-4.087 2.086-5.5 4l-1-1c-.067 2.811-1.234 4.977-3.5 6.5 1.073 1.416 1.073 2.75 0 4 1.801.317 2.134.984 1 2 1.864 1.431 3.864 2.597 6 3.5 4.384-.326 8.717.008 13 1-.124.607-.457.94-1 1-6.3-.577-12.634-1.577-19-3-.763-.768-1.763-1.268-3-1.5 1.238-.69 1.238-1.19 0-1.5.143-1.762-.191-3.429-1-5 1.302-1.701 2.969-2.868 5-3.5-.886-1.902-.553-3.735 1-5.5 2.973-2.306 5.64-4.973 8-8 4.797-1.302 9.464-1.302 14 0z"/><path fill="#915a5f" d="M147.5 156.5c1.609 1.165 1.943 2.499 1 4-3.056.887-5.389 2.72-7 5.5l3 1-4 4c1.238-.077 2.238.089 3 .5.063 2.633-.271 5.299-1 8-2.136-.903-4.136-2.069-6-3.5 1.134-1.016.801-1.683-1-2 1.073-1.25 1.073-2.584 0-4 2.266-1.523 3.433-3.689 3.5-6.5l1 1c1.413-1.914 3.247-3.247 5.5-4 1.211-.774 1.211-1.607 0-2.5.544-.717 1.211-1.217 2-1.5z"/><path fill="#374652" d="M49.5 136.5c1.9 2.119 3.566 4.453 5 7a330.97 330.97 0 0 0 8 17 80.61 80.61 0 0 1 5.5 3c.765-.07 1.265-.403 1.5-1 1.919-1.112 3.586-2.446 5-4 .577-1.273 1.243-1.273 2 0a10.28 10.28 0 0 1-4 6.5c1.216 2.096 2.049 1.929 2.5-.5 1.204 1.359 2.704 2.359 4.5 3 1.353 1.024 2.02 2.357 2 4-3.264.824-6.598 1.158-10 1v3h-4c.241 3.499-.592 3.832-2.5 1-.941 1.561-2.108 2.895-3.5 4-1.778-.069-3.611-.403-5.5-1a7.29 7.29 0 0 0-2 3c-.383-.556-.883-.889-1.5-1-1.192-1.066-.859-1.899 1-2.5a32.46 32.46 0 0 0-8-.5v-3c2.947-.277 5.781.056 8.5 1 .684-1.284.517-2.451-.5-3.5a16.2 16.2 0 0 1 3.5-1.5c3.106.953 5.939.953 8.5 0 .751.876 1.251 1.876 1.5 3l2-4c1.016-1.134 1.683-.801 2 1 2.355-3.128 1.855-4.295-1.5-3.5l1-1c-2.112-1.445-4.278-1.278-6.5.5-1.177-1.676-2.677-3.009-4.5-4-1.274 2.35-2.607 2.183-4-.5 1.711-1.133 2.211-2.633 1.5-4.5-2.23-2.741-5.064-3.908-8.5-3.5 1.098.77 1.098 1.603 0 2.5-4.543.769-9.043 1.769-13.5 3-.414-.457-.914-.791-1.5-1a13.56 13.56 0 0 1-6.5 4c-.414-.457-.914-.791-1.5-1l-26 2v-4c.765.423 1.598.757 2.5 1 7.819-1.933 15.652-3.6 23.5-5 .586.209 1.086.543 1.5 1 9.273-2.846 18.44-5.012 27.5-6.5-.578-1.417-1.578-2.25-3-2.5.763-.768 1.763-1.268 3-1.5-4.212-2.258-5.879-5.758-5-10.5z"/><path fill="#7e7b81" d="M123.5 157.5a35.15 35.15 0 0 1-2 8c-1.387 2.377-2.221 5.043-2.5 8-.671-.752-1.504-1.086-2.5-1h-1c-.996.086-1.829-.248-2.5-1-.497-2.31-.663-4.643-.5-7a54.02 54.02 0 0 1 4-9c2.01 1.671 4.343 2.338 7 2z"/><path fill="#454951" d="M94.5 168.5l2 2a7.11 7.11 0 0 1-5 1v3c-2.357.163-4.69-.003-7-.5-2.456-3.107-1.456-4.607 3-4.5 1.068.934 2.401 1.268 4 1-.252-2.82.248-5.486 1.5-8a31.94 31.94 0 0 0 1.5 6z"/><path fill="#967573" d="M159.5 153.5c4.315.454 8.481 1.454 12.5 3 8.047-.78 15.547 1.053 22.5 5.5-1.585.085-2.918.251-4 .5a33.24 33.24 0 0 1 6 3.5l-2 1c1.616.615 2.949 1.615 4 3-1.485 1.756-1.152 2.923 1 3.5v9l-8-5c-1.474-1.175-3.14-2.175-5-3a10.26 10.26 0 0 1 4-1.5c-3.155-.981-3.488-2.315-1-4-1.878-2.136-4.211-3.636-7-4.5.209-.586.543-1.086 1-1.5l-8-1-5-5a66.87 66.87 0 0 1-5.5-1.5c-4.524-.182-9.024.152-13.5 1-1.291 1.042-1.291 2.208 0 3.5-.948.483-1.948.649-3 .5.943-1.501.609-2.835-1-4 3.101-2.417 7.101-3.417 12-3z"/><path fill="#928584" d="M106.5 151.5c-4.472 3.97-5.139 8.636-2 14-1.052-.149-2.052.017-3 .5l3 17.5c.067 1.459-.266 2.792-1 4-.772-1.194-1.772-2.194-3-3 1.506-5.117 1.172-10.117-1-15-.994 4.956-1.328 9.956-1 15h-1v-7-1-8c.617-.111 1.117-.444 1.5-1l2-10c-.893.581-1.893.915-3 1-2.764-.714-5.431-1.714-8-3a24.27 24.27 0 0 0-3.5 3.5c-.937.692-1.603.525-2-.5v-3a11.74 11.74 0 0 0 5-3c3.294 3.239 7.128 4.239 11.5 3 .901-2.571 2.234-4.904 4-7 1.039.744 1.539 1.744 1.5 3z"/><path fill="#25343e" d="M44.5 164.5c-.107 1.879.393 2.212 1.5 1a11.34 11.34 0 0 0 3.5 1.5c-5.026.408-9.026 2.575-12 6.5-.684-.363-1.35-.696-2-1-.751-1.073-1.751-1.24-3-.5-.776 2.987-2.443 3.82-5 2.5-3.277.754-6.61 1.254-10 1.5a184.98 184.98 0 0 0-14 7 8.43 8.43 0 0 1-4 .5v-9l10-3c.693-2.211 1.859-2.545 3.5-1a147.18 147.18 0 0 1 24.5-7c2.012-.514 4.012-.68 6-.5-2.63 2.355-2.297 2.855 1 1.5z"/><path fill="#33373e" d="M35.5 172.5c.473 1.88-.194 3.713-2 5.5l4 2c-1.833.5-3 1.667-3.5 3.5-1.52-2.335-3.02-2.168-4.5.5l1 1c-4.781 2.698-4.781 4.698 0 6-1.256.417-1.923 1.25-2 2.5-1.96-.638-3.793-.638-5.5 0-3.159-1.123-6.159-2.456-9-4l-2 2c-3.88-2.042-4.047-3.875-.5-5.5l-2-.5a34.12 34.12 0 0 1-10 1v-3a8.43 8.43 0 0 0 4-.5 184.98 184.98 0 0 1 14-7c3.39-.246 6.723-.746 10-1.5 2.557 1.32 4.224.487 5-2.5 1.249-.74 2.249-.573 3 .5z"/><path fill="#f9a799" d="M157.5 159.5l6 1a8.43 8.43 0 0 0 .5 4c1.716-1.052 2.716-.386 3 2l1-2c2.292 2.273 5.125 3.44 8.5 3.5.881.708 1.547 1.542 2 2.5-.418.722-1.084 1.222-2 1.5 1.333 1 1.333 2 0 3l-4 1-16-.5c-2.387.661-4.72.161-7-1.5 1.113-2.621 2.446-5.121 4-7.5-.665-1.601-.999-3.101-1-4.5 2.153-.099 3.819-.933 5-2.5z"/><path fill="#f39b8f" d="M178.5 170.5c1.143.408 2.143 1.075 3 2-.897.169-1.897.502-3 1a7.25 7.25 0 0 0 2 2.5c3.31-.33 6.477.504 9.5 2.5.383-.556.883-.889 1.5-1l8 5v5c-5.696-.053-11.362.28-17 1-4.325-.121-8.491.546-12.5 2-1.333-1.333-2.667-1.333-4 0-1.733-2.102-3.733-2.435-6-1a13.92 13.92 0 0 1-4-3 365.85 365.85 0 0 1 .5-11l16 .5 4-1c1.333-1 1.333-2 0-3 .916-.278 1.582-.778 2-1.5z"/><path fill="#9b6f55" d="M112.5 164.5c-.163 2.357.003 4.69.5 7 .671.752 1.504 1.086 2.5 1 .086.996-.248 1.829-1 2.5-2.11-.347-4.11-.18-6 .5-.306-2.885.027-5.552 1-8-.269 1.929.231 3.595 1.5 5 .183-2.865.683-5.531 1.5-8z"/><path fill="#5e4543" d="M115.5 172.5h1c.185 1.696 1.019 3.029 2.5 4 2.265.091 4.598-.576 7-2 2.099-.053 4.266.28 6.5 1 1.238.31 1.238.81 0 1.5 1.237.232 2.237.732 3 1.5h-9c-2.424-.308-4.757.026-7 1-2.145 2.94-4.811 3.607-8 2-1.745-1.533-2.745-3.533-3-6 1.89-.68 3.89-.847 6-.5.752-.671 1.086-1.504 1-2.5z"/><path fill="#334f60" d="M81.5 171.5c.548 1.894 1.548 3.56 3 5 3.759-.905 8.092-.905 13 0v1a84.2 84.2 0 0 1-14.5 3l-1-1c-2.999 1.544-6.166 2.711-9.5 3.5-1.833 1.167-3.333 2.667-4.5 4.5l-1-1a194.14 194.14 0 0 1-7.5 3l-13 .5 2.5-8.5c1.554 2.427 2.721 2.427 3.5 0 .617.111 1.117.444 1.5 1a7.29 7.29 0 0 1 2-3c1.889.597 3.722.931 5.5 1 1.392-1.105 2.559-2.439 3.5-4 1.908 2.832 2.741 2.499 2.5-1h4v-3c3.402.158 6.736-.176 10-1z"/><path fill="#697b8c" d="M112.5 151.5h3c-2.585 5.085-4.585 10.418-6 16-.973 2.448-1.306 5.115-1 8 .255 2.467 1.255 4.467 3 6 .057 1.109.39 2.109 1 3 .149 1.052-.017 2.052-.5 3l-1-1c-.308.808-.808 1.475-1.5 2-2.049-1.382-3.715-3.048-5-5l-3-17.5c.948-.483 1.948-.649 3-.5.876.131 1.543-.202 2-1-1.085-3.273-1.252-6.606-.5-10 2.166-1.231 4.333-2.231 6.5-3z"/><path fill="#fbb4a3" d="M164.5 178.5c5.559-1.269 9.392.731 11.5 6 3.172-1.497 5.005-.497 5.5 3-7.115.425-14.115-.075-21-1.5 3.79-2.181 3.79-4.181 0-6 1.558-.21 2.891-.71 4-1.5z"/><path fill="#2b3742" d="M97.5 177.5v7c-6.596.525-13.429.525-20.5 0-.374.916-.874 1.75-1.5 2.5-2.617.822-5.284 1.322-8 1.5-2.555.888-5.221 1.221-8 1a194.14 194.14 0 0 0 7.5-3l1 1c1.167-1.833 2.667-3.333 4.5-4.5 3.334-.789 6.501-1.956 9.5-3.5l1 1a84.2 84.2 0 0 0 14.5-3z"/><path fill="#d59e6d" d="M100.5 184.5c-.768.763-1.268 1.763-1.5 3a4.93 4.93 0 0 1-.5-3c-.328-5.044.006-10.044 1-15 2.172 4.883 2.506 9.883 1 15z"/><path fill="#23272e" d="M126.5 178.5l-4 2c3.959.827 7.959 1.327 12 1.5l1 1c-3.673.892-3.84 2.392-.5 4.5a36.08 36.08 0 0 1 4.5-3.5l-1-1a8.43 8.43 0 0 1 4-.5v3l-3 2c-1.24 4.108-1.573 8.108-1 12h-10a108.1 108.1 0 0 1-3-9c-1.623.976-2.957.476-4-1.5.84-1.666.34-1.833-1.5-.5-.87-4.659-3.37-5.993-7.5-4-.61-.891-.943-1.891-1-3 3.189 1.607 5.855.94 8-2 2.243-.974 4.576-1.308 7-1z"/><path fill="#253744" d="M126.5 178.5h9c6.366 1.423 12.7 2.423 19 3l-2 2c-2.053-.098-3.72.569-5 2h-5v-3a8.43 8.43 0 0 0-4 .5l1 1a36.08 36.08 0 0 0-4.5 3.5c-3.34-2.108-3.173-3.608.5-4.5l-1-1c-4.041-.173-8.041-.673-12-1.5 1.449-.672 2.782-1.339 4-2z"/><path fill="#d06e68" d="M151.5 156.5c.722.418 1.222 1.084 1.5 2 1.085-2.157 2.251-2.324 3.5-.5-1.212 1.107-.879 1.607 1 1.5-1.181 1.567-2.847 2.401-5 2.5.001 1.399.335 2.899 1 4.5-1.554 2.379-2.887 4.879-4 7.5 2.28 1.661 4.613 2.161 7 1.5l-.5 11a13.92 13.92 0 0 0 4 3c2.267-1.435 4.267-1.102 6 1 1.333-1.333 2.667-1.333 4 0 4.009-1.454 8.175-2.121 12.5-2v2c-6.285.753-12.618 1.253-19 1.5-1.519 1.351-2.852 2.851-4 4.5.84 1.235 1.84 2.235 3 3h-7c-.423-.765-.757-1.598-1-2.5 1.277-1.888 2.277-3.888 3-6-3.446-.518-5.779-2.352-7-5.5.743-.682 1.409-1.349 2-2l2-2c.543-.06.876-.393 1-1-4.283-.992-8.616-1.326-13-1 .729-2.701 1.063-5.367 1-8-.762-.411-1.762-.577-3-.5l4-4-3-1c1.611-2.78 3.944-4.613 7-5.5 1.052.149 2.052-.017 3-.5-1.291-1.292-1.291-2.458 0-3.5z"/><path fill="#7a4b2f" d="M97.5 184.5h1a4.93 4.93 0 0 0 .5 3c.232-1.237.732-2.237 1.5-3 1.228.806 2.228 1.806 3 3 .03.997-.47 1.664-1.5 2-1.15-.924-2.15-.924-3 0-1.269-1.405-1.769-3.071-1.5-5z"/><path fill="#1e1f23" d="M97.5 184.5c-.269 1.929.231 3.595 1.5 5 .85-.924 1.85-.924 3 0 1.03-.336 1.53-1.003 1.5-2-.61 3.535-.61 7.535 0 12h-43c.203-1.544.87-2.878 2-4-1.238-2.437-2.905-3.437-5-3 3.653-1.048 6.986-2.381 10-4 2.716-.178 5.383-.678 8-1.5.626-.75 1.126-1.584 1.5-2.5 7.071.525 13.904.525 20.5 0z"/><path fill="#866056" d="M199.5 187.5v2c-5.575.952-11.241 1.286-17 1v-2c5.638-.72 11.304-1.053 17-1z"/><path fill="#70393d" d="M152.5 183.5l-2 2c1.221 3.148 3.554 4.982 7 5.5-.723 2.112-1.723 4.112-3 6 .243.902.577 1.735 1 2.5h-4c-.754-2.005-1.921-2.672-3.5-2-2.608-1.682-5.275-2.348-8-2-.814-2.402-.647-4.735.5-7l7-3c1.28-1.431 2.947-2.098 5-2z"/><path fill="#182026" d="M104.5 183.5c1.285 1.952 2.951 3.618 5 5 .692-.525 1.192-1.192 1.5-2l1 1c.483-.948.649-1.948.5-3 4.13-1.993 6.63-.659 7.5 4 1.84-1.333 2.34-1.166 1.5.5 1.043 1.976 2.377 2.476 4 1.5l3 9h-25c-.61-4.465-.61-8.465 0-12 .734-1.208 1.067-2.541 1-4z"/><path fill="#f5a093" d="M199.5 189.5v10h-37c-1.16-.765-2.16-1.765-3-3 1.148-1.649 2.481-3.149 4-4.5 6.382-.247 12.715-.747 19-1.5 5.759.286 11.425-.048 17-1z"/><path fill="#171f25" d="M67.5 188.5c-3.014 1.619-6.347 2.952-10 4 2.095-.437 3.762.563 5 3-1.13 1.122-1.797 2.456-2 4h-43c2.588-1.5 5.754-2.833 9.5-4 2.178 1.34 2.678 1.007 1.5-1 1.655-1.43 3.655-2.264 6-2.5 8.558-.098 16.891-.932 25-2.5 2.779.221 5.445-.112 8-1z"/><path fill="#443933" d="M28.5 193.5v1c1.178 2.007.678 2.34-1.5 1-3.746 1.167-6.912 2.5-9.5 4h-18v-13a34.12 34.12 0 0 0 10-1l2 .5c-3.547 1.625-3.38 3.458.5 5.5l2-2c2.841 1.544 5.841 2.877 9 4 1.707-.638 3.54-.638 5.5 0z"/><path fill="#4b2a2c" d="M142.5 185.5h5a75.83 75.83 0 0 0-7 3c-1.147 2.265-1.314 4.598-.5 7 2.725-.348 5.392.318 8 2 1.579-.672 2.746-.005 3.5 2h-13c-.573-3.892-.24-7.892 1-12l3-2z"/></svg>