<?xml version="1.0" encoding="UTF-8"?>
<svg id="Layer_1" data-name="Layer 1" xmlns="http://www.w3.org/2000/svg" viewBox="0 0 200 200">
  <defs>
    <style>
      .cls-1 {
        fill: #fff;
      }

      .cls-2 {
        fill: #202020;
        stroke: #000;
        stroke-width: .21px;
      }

      .cls-3 {
        fill: #0149a7;
      }

      .cls-4 {
        fill: #006fff;
      }
    </style>
  </defs>
  <path class="cls-4" d="m100,0h0c55.23,0,100,44.77,100,100h0c0,55.23-44.77,100-100,100h0C44.77,200,0,155.23,0,100h0C0,44.77,44.77,0,100,0Z"/>
  <path class="cls-3" d="m36.21,134.34c-.52-1.05-.12-2.33.92-2.88l45.55-23.92c1.53-.8,1.53-2.98,0-3.79l-47.06-24.97c-1.04-.55-1.44-1.83-.89-2.87,3.36-6.42,8.91-16.65,11.88-21.81.67-1.17,3.15-.81,4.43-.29,1.27.51,31.49,11.94,48.51,18.62,2.29.81,4.79.81,7.08,0,17.16-6.69,31.62-12.44,48.72-19.39,2.05-.84,3.54-1.22,4.7,1.17,2.48,5,8.59,15.31,12.04,21.71.56,1.03.16,2.31-.88,2.86l-47.09,25.12c-1.52.81-1.51,2.99,0,3.79l47.06,24.82c1.04.55,1.45,1.84.89,2.88-3.32,6.19-8.63,15.31-11.62,20.42-.43.73-3.19.73-4.53.2-12.63-4.93-33.51-12.09-46.08-17.15-7.18-2.88-9.32-3.71-16.75,0-12.89,6.43-27.78,11.6-41.12,17.15-3.37,1.4-5.95-.74-7.5-4.29-2.08-4.51-5.61-12.04-8.27-17.39Z"/>
  <path class="cls-1" d="m34.07,130.05c-.52-1.05-.12-2.33.92-2.87l45.55-23.92c1.53-.8,1.53-2.98,0-3.79l-47.06-24.97c-1.04-.55-1.44-1.83-.89-2.87,3.36-6.42,8.91-16.65,11.88-21.81.67-1.17,3.15-.81,4.43-.29s31.49,11.94,48.51,18.62c2.29.81,4.79.81,7.08,0,17.16-6.69,31.62-12.44,48.72-19.39,2.05-.84,3.54-1.22,4.7,1.17,2.48,5,8.59,15.31,12.04,21.71.56,1.03.16,2.31-.88,2.86l-47.08,25.12c-1.52.81-1.51,2.99,0,3.79l47.06,24.82c1.04.55,1.45,1.84.89,2.88-3.32,6.19-8.63,15.31-11.62,20.42-.43.73-3.19.73-4.53.2-12.63-4.93-33.51-12.09-46.08-17.15-7.18-2.88-9.32-3.71-16.75,0-12.89,6.43-27.78,11.6-41.12,17.15-3.37,1.4-5.95-.74-7.5-4.29-2.08-4.51-5.61-12.04-8.27-17.39Z"/>
  <path class="cls-2" d="m51.92,56.59h0c7.18,2.84,14.37,5.73,21.57,8.63,8.02,3.23,16.04,6.46,24.05,9.61h0s.03.01.03.01c2.28.81,4.78.81,7.06,0h0s.03-.01.03-.01c15.38-6,30.69-12.21,46.01-18.43h0c.96-.39,1.49-.54,1.86-.49.21.03.55.13.98,1.01h0c1.81,3.65,3.68,7.26,5.66,11.07.56,1.08,1.12,2.17,1.7,3.28l-51.98,27.9c-1.51.81-1.51,2.97,0,3.78l52.02,27.9c-.51.98-1.01,1.96-1.5,2.92-2.07,4.03-4.08,7.94-6.29,11.74-.02,0-.04.01-.07.02-.19.05-.48.09-.84.1-.73.02-1.49-.09-1.92-.26-6.84-2.67-16.71-6.72-25.94-10.51-6.03-2.48-11.79-4.84-16.26-6.64l-.06-.02c-3.13-1.26-5.39-2.17-7.71-2.27-2.39-.1-4.74.64-8.11,2.33-9.2,4.59-21.32,9.57-31.94,13.93-2.66,1.09-5.22,2.14-7.61,3.14-1.46.61-2.34.7-2.94.5-.55-.18-1.17-.72-1.81-2.21h0v-.02c-1.39-3-2.94-5.94-4.52-8.94-.67-1.26-1.34-2.53-2-3.82l52.03-27.9c1.51-.81,1.51-2.97,0-3.78l-51.97-27.9c.54-1.05,1.06-2.08,1.59-3.11,2.03-4,4-7.86,6.17-11.64.02,0,.05-.02.08-.03.19-.06.47-.1.82-.12.71-.04,1.44.06,1.81.22Zm101.28,88.88s0,0-.01,0h.01Z"/>
  <path d="m110.93,104.91l51.44,25.72-3.22,4.29-50.68-26.89c-.77-.41-.76-1.52.02-1.91l2.43-1.21Z"/>
  <path d="m40.18,130.62l50.37-25.72,2.92,2.19c.63.47.55,1.44-.15,1.81l-49.93,26.01-3.22-4.29Z"/>
  <path d="m101.27,75.98l49.3-19.3,2.14-1.07,8.57,15-2.14,1.07-4.91-8.84c-.26-.46-.81-.67-1.31-.49l-48.67,17.88c-1.93.71-4.05.7-5.97-.02l-46.87-17.58c-.93-.35-1.98-.01-2.54.82l-5.49,8.23h-3.21s9.64-15,9.64-15l51.44,19.29Z"/>
</svg>