<?xml version="1.0" encoding="UTF-8"?>
<svg xmlns="http://www.w3.org/2000/svg" xmlns:xlink="http://www.w3.org/1999/xlink" width="200px" height="200px" viewBox="0 0 200 200" version="1.1">
<g id="surface1">
<path style="fill-rule:evenodd;fill:rgb(100%,100%,100%);fill-opacity:1;stroke-width:53.838;stroke-linecap:round;stroke-linejoin:bevel;stroke:rgb(100%,100%,100%);stroke-opacity:1;stroke-miterlimit:4;" d="M 775.894775 596.876561 C 775.894775 821.706555 593.644883 1003.978498 368.83694 1003.978498 C 144.006946 1003.978498 -38.264996 821.706555 -38.264996 596.876561 C -38.264996 372.068618 144.006946 189.818726 368.83694 189.818726 C 593.644883 189.818726 775.894775 372.068618 775.894775 596.876561 Z M 775.894775 596.876561 " transform="matrix(0.177148,0,0,0.177148,34.44262,-6.200177)"/>
<path style="fill:none;stroke-width:10.0929;stroke-linecap:round;stroke-linejoin:round;stroke:rgb(0%,0%,0%);stroke-opacity:1;stroke-miterlimit:4;" d="M 748.529728 368.143575 L 552.476033 564.219321 L 108.527203 557.273318 L -54.803099 720.669773 M 791.374439 435.067764 L 591.682362 634.803944 L 147.733532 627.879991 L -23.976076 799.633701 M 780.900308 418.110696 L 581.891805 617.163301 L 137.920925 610.217298 L -33.568175 781.750499 M 771.35231 400.205444 L 572.101248 599.522658 L 128.130368 592.576655 L -41.704922 762.478097 M 762.708395 381.396108 L 562.310691 581.859964 L 118.31776 574.936012 L -48.033503 741.331376 M 795.564092 658.332151 L 216.333582 649.445677 L 186.013727 679.787583 L 125.374017 740.449344 L 95.054162 770.79125 L 64.734307 801.111105 L 34.414452 831.45301 L 4.072546 861.772865 M 719.973937 873.41569 L 524.118699 867.131211 L 493.798844 897.451066 L 433.159134 958.112827 L 402.817229 988.432682 L 372.519424 1018.774587 M 743.259586 856.811435 L 514.328143 849.468517 L 453.688433 910.130278 L 423.346527 940.450133 L 362.706817 1001.133944 L 332.364911 1031.453799 M 748.706134 839.655909 L 504.515535 831.827874 L 474.217731 862.16978 L 443.875825 892.467584 L 383.236115 953.151396 L 352.894209 983.471251 L 322.574354 1013.813157 M 771.175903 823.073705 L 494.724978 814.187231 L 464.383072 844.507086 L 403.765413 905.168847 L 373.423507 935.488702 L 312.783797 996.172514 L 282.441892 1026.492369 M 770.977446 800.339327 L 367.293384 792.599494 L 336.951478 822.9414 L 306.653674 853.283306 L 245.991913 913.923016 L 215.672058 944.264922 L 185.352203 974.584777 L 155.032348 1004.926683 M 774.748133 782.941242 L 357.480776 774.958852 L 327.160921 805.300757 L 266.521211 865.940467 L 236.201356 896.282373 L 205.881501 926.602228 L 175.561646 956.944134 L 145.219741 987.28604 M 783.98742 765.653412 L 347.690219 757.318209 L 226.388749 878.619679 L 196.090945 908.961585 L 135.429184 969.623346 M 802.730603 748.541989 L 337.899663 739.655515 L 307.557757 769.997421 L 277.237902 800.339327 L 246.918047 830.637131 L 216.598192 860.979037 L 155.936431 921.640797 L 125.638627 951.982703 M 791.749303 728.586012 L 255.539911 720.0303 L 194.900201 780.714111 L 134.260491 841.375872 L 103.940636 871.717778 L 73.620781 902.037633 M 794.94667 710.813064 L 245.749354 702.389657 L 215.429499 732.731563 L 154.767739 793.393323 L 124.447884 823.735229 L 63.808174 884.39699 L 44.579873 903.625291 M 815.189307 693.635488 L 235.958797 684.749014 L 175.297037 745.410775 L 144.977182 775.75268 L 84.315421 836.414441 L 53.995566 866.756347 L 23.675711 897.054151 M 805.398751 675.972794 L 226.14619 667.08632 L 195.804284 697.428226 L 165.50648 727.770132 L 104.844719 788.431893 L 74.524864 818.773798 L 13.885154 879.413508 M 540.899361 1016.988472 L 516.290664 1016.128491 M 578.341625 1000.935487 L 506.478056 998.487848 L 476.158201 1028.829754 M 594.284357 984.132775 L 496.6875 980.847205 L 466.367645 1011.16706 M 615.431077 967.52852 L 486.874892 963.184511 L 426.235182 1023.868323 M 706.963963 892.335279 L 531.968785 886.712324 L 471.329075 947.396136 L 440.98717 977.715991 L 410.667315 1008.057897 M 747.361035 341.859017 L 717.04118 372.156822 L 656.40147 432.840633 L 77.170961 423.954159 L 46.829055 454.274014 L 16.5092 484.61592 L -44.152561 545.277681 M 737.548428 324.196324 L 676.930769 384.858084 L 646.588863 415.177939 L 67.336302 406.291466 L 37.016447 436.633371 L -23.623263 497.295132 L -53.943118 527.637038 M 714.703795 319.609757 L 697.438016 336.875536 L 667.09611 367.195391 L 636.776255 397.537297 L 57.545745 388.650823 L -3.116016 449.312584 L -33.41382 479.654489 L -63.733675 509.974344 M 703.943003 302.939349 L 687.625408 319.212842 L 626.985698 379.896654 L 47.755188 370.988129 L 17.413283 401.330035 L -12.906572 431.671941 L -43.226427 461.991796 L -73.546282 492.333701 M 695.453444 283.953607 L 677.834851 301.572199 L 647.514996 331.914105 L 617.173091 362.23396 L 37.942581 353.347486 L 7.622726 383.689392 L -22.697129 414.009247 L -53.016984 444.351153 M 645.42017 251.627129 L 584.78046 312.310941 L 554.460605 342.630796 L 16.178438 334.383795 M 605.287708 264.328392 L 544.647998 324.990153 L 37.479514 317.206219 M 595.497151 246.665698 L 565.155245 277.007604 L 534.83539 307.34951 L 44.028603 299.808135 M 585.684543 229.025055 L 555.364688 259.366961 L 525.044833 289.686816 L 62.463074 282.586457 M 575.893986 211.384412 L 545.574131 241.704267 L 515.254276 272.046173 L 75.428947 265.276576 M 566.081379 193.721719 L 505.441669 254.40553 L 98.604342 248.143102 " transform="matrix(0.177148,0,0,0.177148,34.44262,-6.200177)"/>
<path style=" stroke:none;fill-rule:evenodd;fill:rgb(100%,100%,100%);fill-opacity:1;" d="M 141.257812 93.449219 L 138.074219 90.554688 L 132.777344 89.640625 L 73.792969 78.53125 L 65.171875 88.636719 L 81.882812 118.757812 L 126.261719 115.988281 Z M 141.257812 93.449219 "/>
<path style=" stroke:none;fill-rule:evenodd;fill:rgb(100%,100%,100%);fill-opacity:1;" d="M 52.183594 133.109375 L 148.496094 133.109375 C 149.265625 133.109375 149.886719 133.734375 149.886719 134.503906 L 149.886719 147.632812 C 149.886719 148.402344 149.265625 149.027344 148.496094 149.027344 L 52.183594 149.027344 C 51.417969 149.027344 50.792969 148.402344 50.792969 147.632812 L 50.792969 134.503906 C 50.792969 133.734375 51.417969 133.109375 52.183594 133.109375 Z M 52.183594 133.109375 "/>
<path style=" stroke:none;fill-rule:evenodd;fill:rgb(100%,100%,100%);fill-opacity:1;" d="M 70.28125 149.691406 L 130.339844 149.691406 L 130.339844 157.730469 L 70.28125 157.730469 Z M 70.28125 149.691406 "/>
<path style=" stroke:none;fill-rule:evenodd;fill:rgb(100%,100%,100%);fill-opacity:1;" d="M 70.707031 146.664062 L 129.878906 146.664062 L 129.878906 153.472656 L 70.707031 153.472656 Z M 70.707031 146.664062 "/>
<path style="fill-rule:nonzero;fill:rgb(0%,0%,0%);fill-opacity:1;stroke-width:33.643;stroke-linecap:round;stroke-linejoin:round;stroke:rgb(100%,100%,100%);stroke-opacity:1;stroke-miterlimit:4;" d="M 239.949993 580.0959 L 253.665593 600.603147 L 282.94906 574.230386 L 361.097108 616.237167 L 423.611136 557.60408 L 487.117451 601.573383 L 546.676671 541.021876 L 534.967695 456.986263 L 565.243448 373.942937 L 447.051141 248.870778 L 264.382283 226.40101 L 186.234235 342.674897 L 177.458015 450.150514 L 243.875036 510.724072 Z M 239.949993 580.0959 " transform="matrix(0.177148,0,0,0.177148,34.44262,-6.200177)"/>
<path style="fill-rule:nonzero;fill:rgb(100%,100%,100%);fill-opacity:1;stroke-width:8.41072;stroke-linecap:round;stroke-linejoin:round;stroke:rgb(100%,100%,100%);stroke-opacity:1;stroke-miterlimit:4;" d="M 419.708144 432.553973 L 443.148148 453.083271 L 513.468161 376.875694 Z M 419.708144 432.553973 " transform="matrix(0.177148,0,0,0.177148,34.44262,-6.200177)"/>
<path style="fill-rule:nonzero;fill:rgb(100%,100%,100%);fill-opacity:1;stroke-width:8.41072;stroke-linecap:round;stroke-linejoin:round;stroke:rgb(100%,100%,100%);stroke-opacity:1;stroke-miterlimit:4;" d="M 351.328602 434.538545 L 325.926076 464.792248 L 230.203538 390.569243 Z M 351.328602 434.538545 " transform="matrix(0.177148,0,0,0.177148,34.44262,-6.200177)"/>
<path style="fill-rule:nonzero;fill:rgb(0%,0%,0%);fill-opacity:1;stroke-width:33.643;stroke-linecap:round;stroke-linejoin:round;stroke:rgb(100%,100%,100%);stroke-opacity:1;stroke-miterlimit:4;" d="M 526.169424 753.988537 L 594.548966 562.521409 L 498.826428 646.534971 L 420.67838 599.632912 L 371.835849 658.243948 L 293.709852 613.30441 L 264.382283 656.303477 L 139.376278 494.119816 L 235.076765 740.317039 Z M 526.169424 753.988537 " transform="matrix(0.177148,0,0,0.177148,34.44262,-6.200177)"/>
<path style="fill-rule:nonzero;fill:rgb(0%,0%,0%);fill-opacity:1;stroke-width:25.2321;stroke-linecap:butt;stroke-linejoin:miter;stroke:rgb(99.607843%,99.607843%,99.215686%);stroke-opacity:1;stroke-miterlimit:4;" d="M 85.991282 795.818912 C 85.417961 795.818912 84.998996 796.061471 84.624132 796.436334 C 84.271319 796.811198 84.050811 797.208112 84.050811 797.759383 L 84.050811 809.997579 C 84.050811 810.526798 84.271319 810.989865 84.624132 811.364728 C 84.998996 811.739592 85.417961 811.893948 85.991282 811.893948 L 118.604421 811.893948 L 84.624132 849.446466 C 84.29337 849.865432 84.02876 850.394651 83.786202 851.056175 C 83.543643 851.695648 83.411338 852.268969 83.411338 852.798188 L 83.411338 865.609705 C 83.411338 866.932754 84.094913 867.616328 85.373859 867.616328 L 136.15686 867.616328 C 136.70813 867.616328 137.171197 867.39582 137.546061 867.020957 C 137.920925 866.646093 138.119382 866.160975 138.119382 865.609705 L 138.119382 853.459712 C 138.119382 852.886392 137.920925 852.423325 137.546061 852.048461 C 137.171197 851.673597 136.70813 851.519242 136.15686 851.519242 L 103.587823 851.519242 L 136.796334 813.988774 C 137.127096 813.59186 137.435807 813.040589 137.700416 812.445218 C 137.965026 811.827795 138.119382 811.232424 138.119382 810.681153 L 138.119382 797.759383 C 138.119382 797.208112 137.920925 796.811198 137.546061 796.436334 C 137.171197 796.061471 136.70813 795.818912 136.15686 795.818912 Z M 166.079801 795.818912 C 164.42599 795.818912 162.860383 796.149674 161.40503 796.811198 C 159.905576 797.450671 158.64868 798.288602 157.568191 799.34704 C 156.46565 800.42753 155.605669 801.684426 154.988247 803.139779 C 154.392875 804.617182 154.106214 806.20484 154.106214 807.8366 L 154.106214 855.57659 C 154.106214 857.2304 154.392875 858.818058 154.988247 860.295462 C 155.605669 861.750815 156.46565 863.051812 157.568191 864.132301 C 158.64868 865.212791 159.905576 866.072772 161.40503 866.712245 C 162.860383 867.307617 164.42599 867.616328 166.079801 867.616328 L 202.221068 867.616328 C 203.830777 867.616328 205.440485 867.307617 206.895838 866.712245 C 208.351191 866.072772 209.630138 865.212791 210.666526 864.132301 C 211.724964 863.051812 212.562895 861.750815 213.224419 860.295462 C 213.885943 858.818058 214.194654 857.2304 214.194654 855.57659 L 214.194654 807.8366 C 214.194654 806.20484 213.885943 804.617182 213.224419 803.139779 C 212.562895 801.684426 211.724964 800.42753 210.666526 799.34704 C 209.630138 798.288602 208.351191 797.450671 206.895838 796.811198 C 205.440485 796.149674 203.830777 795.818912 202.221068 795.818912 Z M 231.041468 795.818912 C 229.762522 795.818912 229.145099 796.458385 229.145099 797.759383 L 229.145099 865.609705 C 229.145099 866.932754 229.762522 867.616328 231.041468 867.616328 L 245.176033 867.616328 C 246.45498 867.616328 247.072403 866.932754 247.072403 865.609705 L 247.072403 846.557811 C 247.072403 846.227049 247.27086 846.094744 247.601622 846.094744 L 259.795716 846.094744 C 260.126478 846.094744 260.346986 846.182947 260.479291 846.447557 L 271.350337 865.940467 C 271.614947 866.403534 272.033912 866.822499 272.563132 867.131211 C 273.114402 867.439922 273.62157 867.616328 274.150789 867.616328 L 290.446333 867.616328 C 290.997603 867.616328 291.372467 867.439922 291.570924 867.131211 C 291.769381 866.822499 291.72528 866.403534 291.46067 865.940467 L 280.501421 846.998827 C 280.435268 846.844471 280.391167 846.778319 280.391167 846.778319 C 280.126557 846.513709 280.236811 846.337303 280.721929 846.182947 L 281.03064 846.094744 C 283.412127 845.345017 285.352598 843.889664 286.874103 841.816888 C 288.417659 839.722062 289.233539 837.406727 289.233539 834.804733 L 289.233539 807.8366 C 289.233539 806.20484 288.880726 804.617182 288.197151 803.139779 C 287.557678 801.684426 286.719747 800.42753 285.661309 799.34704 C 284.624921 798.288602 283.345974 797.450671 281.890621 796.811198 C 280.435268 796.149674 278.891712 795.818912 277.259953 795.818912 Z M 318.715464 795.818912 C 317.083704 795.818912 315.562199 796.149674 314.084795 796.811198 C 312.629442 797.450671 311.350495 798.288602 310.247955 799.34704 C 309.167466 800.42753 308.307484 801.684426 307.690062 803.139779 C 307.09469 804.617182 306.80803 806.20484 306.80803 807.8366 L 306.80803 855.57659 C 306.80803 857.2304 307.09469 858.818058 307.690062 860.295462 C 308.307484 861.750815 309.167466 863.051812 310.247955 864.132301 C 311.350495 865.212791 312.629442 866.072772 314.084795 866.712245 C 315.562199 867.307617 317.083704 867.616328 318.715464 867.616328 L 354.922883 867.616328 C 356.532592 867.616328 358.076148 867.307617 359.553552 866.712245 C 361.008905 866.072772 362.24375 865.212791 363.302188 864.132301 C 364.382678 863.051812 365.220608 861.750815 365.860082 860.295462 C 366.521606 858.818058 366.874419 857.2304 366.874419 855.57659 L 366.874419 830.372521 C 366.874419 829.821251 366.653911 829.358184 366.301098 829.005371 C 365.926234 828.630508 365.463167 828.454101 364.911897 828.454101 L 350.71118 828.454101 C 350.137859 828.454101 349.674792 828.630508 349.321979 829.005371 C 348.947115 829.358184 348.770709 829.821251 348.770709 830.372521 L 348.770709 848.321875 C 348.770709 848.873145 348.594302 849.336212 348.24149 849.666974 C 347.910728 849.997736 347.469711 850.196194 346.918441 850.196194 L 326.697854 850.196194 C 326.146584 850.196194 325.683517 849.997736 325.308654 849.666974 C 324.93379 849.336212 324.779435 848.873145 324.779435 848.321875 L 324.779435 815.113365 C 324.779435 814.562095 324.93379 814.121079 325.308654 813.790317 C 325.683517 813.415453 326.146584 813.239047 326.697854 813.239047 L 360.920702 813.239047 C 361.471972 813.239047 361.935039 813.084691 362.287852 812.709827 C 362.662715 812.334964 362.883223 811.871897 362.883223 811.320627 L 362.883223 797.759383 C 362.883223 797.208112 362.662715 796.811198 362.287852 796.436334 C 361.935039 796.061471 361.471972 795.818912 360.920702 795.818912 Z M 428.616669 795.818912 C 426.984909 795.818912 425.419302 796.149674 423.941898 796.811198 C 422.464495 797.450671 421.207599 798.288602 420.105059 799.34704 C 419.002518 800.42753 418.164588 801.684426 417.547165 803.139779 C 416.951794 804.617182 416.643082 806.20484 416.643082 807.8366 L 416.643082 855.57659 C 416.643082 857.2304 416.951794 858.818058 417.547165 860.295462 C 418.164588 861.750815 419.002518 863.051812 420.105059 864.132301 C 421.207599 865.212791 422.464495 866.072772 423.941898 866.712245 C 425.419302 867.307617 426.984909 867.616328 428.616669 867.616328 L 469.366554 867.616328 C 469.939875 867.616328 470.402942 867.39582 470.777805 867.020957 C 471.152669 866.646093 471.307025 866.160975 471.307025 865.609705 L 471.307025 852.114613 C 471.307025 851.563343 471.152669 851.100277 470.777805 850.725413 C 470.402942 850.350549 469.939875 850.196194 469.366554 850.196194 L 436.554958 850.196194 C 436.003688 850.196194 435.540621 849.997736 435.165758 849.666974 C 434.790894 849.336212 434.636538 848.873145 434.636538 848.321875 L 434.636538 815.113365 C 434.636538 814.562095 434.790894 814.121079 435.165758 813.790317 C 435.540621 813.415453 436.003688 813.239047 436.554958 813.239047 L 469.366554 813.239047 C 469.939875 813.239047 470.402942 813.084691 470.777805 812.709827 C 471.152669 812.334964 471.307025 811.871897 471.307025 811.320627 L 471.307025 797.759383 C 471.307025 797.208112 471.152669 796.811198 470.777805 796.436334 C 470.402942 796.061471 469.939875 795.818912 469.366554 795.818912 Z M 499.355647 795.818912 C 497.723887 795.818912 496.202382 796.149674 494.724978 796.811198 C 493.269625 797.450671 491.990678 798.288602 490.888138 799.34704 C 489.807649 800.42753 488.947668 801.684426 488.330245 803.139779 C 487.734873 804.617182 487.382061 806.20484 487.382061 807.8366 L 487.382061 855.57659 C 487.382061 857.2304 487.734873 858.818058 488.330245 860.295462 C 488.947668 861.750815 489.807649 863.051812 490.888138 864.132301 C 491.990678 865.212791 493.269625 866.072772 494.724978 866.712245 C 496.202382 867.307617 497.723887 867.616328 499.355647 867.616328 L 535.541016 867.616328 C 537.172775 867.616328 538.694281 867.307617 540.193735 866.712245 C 541.649088 866.072772 542.883933 865.212791 543.942372 864.132301 C 545.022861 863.051812 545.860792 861.750815 546.500265 860.295462 C 547.161789 858.818058 547.4705 857.2304 547.4705 855.57659 L 547.4705 807.8366 C 547.4705 806.20484 547.161789 804.617182 546.500265 803.139779 C 545.860792 801.684426 545.022861 800.42753 543.942372 799.34704 C 542.883933 798.288602 541.649088 797.450671 540.193735 796.811198 C 538.694281 796.149674 537.172775 795.818912 535.541016 795.818912 Z M 565.397804 795.818912 C 564.096806 795.818912 563.435282 796.458385 563.435282 797.759383 L 563.435282 865.609705 C 563.435282 866.932754 564.096806 867.616328 565.397804 867.616328 L 579.488267 867.616328 C 580.811316 867.616328 581.428738 866.932754 581.428738 865.609705 L 581.428738 797.759383 C 581.428738 796.458385 580.811316 795.818912 579.488267 795.818912 Z M 599.31194 795.818912 C 598.010942 795.818912 597.39352 796.458385 597.39352 797.759383 L 597.39352 865.609705 C 597.39352 866.932754 598.010942 867.616328 599.31194 867.616328 L 613.402403 867.616328 C 614.703401 867.616328 615.386976 866.932754 615.386976 865.609705 L 615.386976 815.113365 C 615.386976 814.562095 615.541331 814.121079 615.916195 813.790317 C 616.291059 813.415453 616.754125 813.239047 617.283345 813.239047 L 637.525982 813.239047 C 638.077253 813.239047 638.540319 813.415453 638.893132 813.790317 C 639.267996 814.121079 639.488504 814.562095 639.488504 815.113365 L 639.488504 865.609705 C 639.488504 866.160975 639.620809 866.646093 639.973622 867.020957 C 640.304384 867.39582 640.7454 867.616328 641.29667 867.616328 L 655.519438 867.616328 C 656.048658 867.616328 656.511724 867.39582 656.886588 867.020957 C 657.261452 866.646093 657.48196 866.160975 657.48196 865.609705 L 657.48196 807.8366 C 657.48196 806.20484 657.107096 804.617182 656.467623 803.139779 C 655.828149 801.684426 654.968168 800.42753 653.90973 799.34704 C 652.851291 798.288602 651.594395 797.450671 650.116991 796.811198 C 648.661638 796.149674 647.140133 795.818912 645.486323 795.818912 Z M 246.499082 812.533421 L 271.15188 812.533421 L 271.15188 829.953556 L 246.499082 829.953556 Z M 172.077619 813.239047 L 196.090945 813.239047 L 196.090945 850.196194 L 172.077619 850.196194 Z M 505.375516 813.239047 L 529.410892 813.239047 L 529.410892 850.196194 L 505.375516 850.196194 Z M 207.20455 882.809332 C 206.234314 882.809332 205.330231 883.007789 204.426148 883.404704 C 203.566167 883.779567 202.794389 884.330838 202.154916 884.970311 C 201.515442 885.587733 200.986223 886.31541 200.63341 887.197442 C 200.236496 888.057423 200.060089 889.005608 200.060089 889.975843 L 200.060089 918.443431 C 200.060089 919.435717 200.236496 920.405952 200.63341 921.265934 C 200.986223 922.147966 201.515442 922.853592 202.154916 923.493065 C 202.794389 924.17664 203.566167 924.705859 204.426148 925.058672 C 205.330231 925.433536 206.234314 925.587891 207.20455 925.587891 L 228.770236 925.587891 C 229.740471 925.587891 230.644554 925.433536 231.548637 925.058672 C 232.408618 924.705859 233.136295 924.17664 233.775768 923.493065 C 234.39319 922.853592 234.92241 922.147966 235.297273 921.265934 C 235.716239 920.405952 235.914696 919.435717 235.914696 918.443431 L 235.914696 889.975843 C 235.914696 889.005608 235.716239 888.057423 235.297273 887.197442 C 234.92241 886.31541 234.39319 885.587733 233.775768 884.970311 C 233.136295 884.330838 232.408618 883.779567 231.548637 883.404704 C 230.644554 883.007789 229.740471 882.809332 228.770236 882.809332 Z M 246.543183 882.809332 C 245.771405 882.809332 245.374491 883.206247 245.374491 883.978025 L 245.374491 924.485351 C 245.374491 925.257129 245.771405 925.587891 246.543183 925.587891 L 254.96659 925.587891 C 255.716318 925.587891 256.113232 925.257129 256.113232 924.485351 L 256.113232 913.107136 C 256.113232 912.886628 256.179384 912.776374 256.377842 912.776374 L 263.676658 912.776374 C 263.897166 912.776374 264.029471 912.886628 264.117674 913.040984 L 270.534458 924.639707 C 270.710864 924.926367 270.975474 925.146875 271.306236 925.323282 C 271.614947 925.521739 271.923658 925.587891 272.25442 925.587891 L 281.934723 925.587891 C 282.265485 925.587891 282.508044 925.521739 282.618298 925.323282 C 282.750603 925.146875 282.68445 924.926367 282.530095 924.639707 L 276.047158 913.305594 C 276.003057 913.239441 275.981006 913.19534 275.981006 913.19534 C 275.82665 913.040984 275.870752 912.908679 276.135362 912.842527 L 276.35587 912.776374 C 277.767121 912.335358 278.891712 911.519478 279.817846 910.262583 C 280.721929 909.027738 281.184996 907.594435 281.184996 906.050879 L 281.184996 889.975843 C 281.184996 889.005608 280.986539 888.057423 280.611675 887.197442 C 280.236811 886.31541 279.751694 885.587733 279.11222 884.970311 C 278.472747 884.330838 277.700969 883.779567 276.840987 883.404704 C 275.958955 883.007789 275.032822 882.809332 274.062586 882.809332 Z M 298.715385 882.809332 C 297.745149 882.809332 296.796965 883.007789 295.936983 883.404704 C 295.054951 883.779567 294.349326 884.330838 293.709852 884.970311 C 293.070379 885.587733 292.519109 886.31541 292.144245 887.197442 C 291.791432 888.057423 291.615026 889.005608 291.615026 889.975843 L 291.615026 918.443431 C 291.615026 919.435717 291.791432 920.405952 292.144245 921.265934 C 292.519109 922.147966 293.070379 922.853592 293.709852 923.493065 C 294.349326 924.17664 295.054951 924.705859 295.936983 925.058672 C 296.796965 925.433536 297.745149 925.587891 298.715385 925.587891 L 323.01537 925.587891 C 323.346132 925.587891 323.632793 925.499688 323.897402 925.27918 C 324.11791 925.058672 324.206114 924.816113 324.206114 924.485351 L 324.206114 916.414757 C 324.206114 916.083995 324.11791 915.797334 323.897402 915.554776 C 323.632793 915.334267 323.346132 915.246064 323.01537 915.246064 L 303.500409 915.246064 C 303.169647 915.246064 302.860936 915.13581 302.640428 914.915302 C 302.41992 914.694794 302.331716 914.430185 302.331716 914.099422 L 302.331716 894.297801 C 302.331716 893.98909 302.41992 893.768582 302.640428 893.570124 C 302.860936 893.371667 303.169647 893.239362 303.500409 893.239362 L 323.01537 893.239362 C 323.346132 893.239362 323.632793 893.151159 323.897402 892.9086 C 324.11791 892.688092 324.206114 892.379381 324.206114 892.048619 L 324.206114 883.978025 C 324.206114 883.669313 324.11791 883.404704 323.897402 883.184196 C 323.632793 882.963688 323.346132 882.809332 323.01537 882.809332 Z M 335.055109 882.809332 C 334.283331 882.809332 333.886416 883.206247 333.886416 883.978025 L 333.886416 924.485351 C 333.886416 925.257129 334.283331 925.587891 335.055109 925.587891 L 343.456465 925.587891 C 344.228243 925.587891 344.625158 925.257129 344.625158 924.485351 L 344.625158 914.430185 C 344.625158 914.099422 344.735412 913.834813 344.95592 913.636356 C 345.176428 913.437898 345.418987 913.305594 345.749749 913.305594 L 359.377145 913.305594 C 360.347381 913.305594 361.273515 913.107136 362.133496 912.732273 C 363.015528 912.335358 363.765255 911.872291 364.382678 911.232818 C 365.022151 910.615396 365.52932 909.799516 365.926234 908.939534 C 366.301098 908.057502 366.499555 907.131369 366.499555 906.139082 L 366.499555 889.975843 C 366.499555 889.005608 366.301098 888.057423 365.926234 887.197442 C 365.52932 886.31541 365.022151 885.587733 364.382678 884.970311 C 363.765255 884.330838 363.015528 883.779567 362.133496 883.404704 C 361.273515 883.007789 360.347381 882.809332 359.377145 882.809332 Z M 374.5922 882.809332 C 373.820422 882.809332 373.423507 883.206247 373.423507 883.978025 L 373.423507 918.443431 C 373.423507 919.435717 373.644015 920.405952 374.018879 921.265934 C 374.371692 922.147966 374.85681 922.853592 375.496283 923.493065 C 376.135756 924.17664 376.929585 924.705859 377.789566 925.058672 C 378.671599 925.433536 379.575682 925.587891 380.545917 925.587891 L 402.111603 925.587891 C 403.081838 925.587891 404.074124 925.433536 404.934106 925.058672 C 405.816138 924.705859 406.543814 924.17664 407.161237 923.493065 C 407.80071 922.853592 408.285828 922.147966 408.660692 921.265934 C 409.057606 920.405952 409.256063 919.435717 409.256063 918.443431 L 409.256063 883.978025 C 409.256063 883.669313 409.145809 883.404704 408.925301 883.184196 C 408.704793 882.963688 408.462234 882.809332 408.131472 882.809332 L 399.663964 882.809332 C 399.355252 882.809332 399.046541 882.963688 398.803982 883.184196 C 398.583474 883.404704 398.495271 883.669313 398.495271 883.978025 L 398.495271 914.099422 C 398.495271 914.430185 398.362966 914.694794 398.164509 914.915302 C 397.966052 915.13581 397.701442 915.246064 397.37068 915.246064 L 385.330941 915.246064 C 385.02223 915.246064 384.713519 915.13581 384.493011 914.915302 C 384.272503 914.694794 384.1843 914.430185 384.1843 914.099422 L 384.1843 883.978025 C 384.1843 883.206247 383.787385 882.809332 383.015607 882.809332 Z M 419.994805 882.809332 C 419.223026 882.809332 418.826112 883.206247 418.826112 883.978025 L 418.826112 924.485351 C 418.826112 925.257129 419.223026 925.587891 419.994805 925.587891 L 428.396161 925.587891 C 429.167939 925.587891 429.564853 925.257129 429.564853 924.485351 L 429.564853 899.700248 L 442.993793 924.639707 C 443.170199 924.926367 443.412758 925.146875 443.74352 925.323282 C 444.074282 925.521739 444.427095 925.587891 444.757857 925.587891 L 453.467925 925.587891 C 453.798687 925.587891 454.107398 925.499688 454.327906 925.27918 C 454.548414 925.058672 454.636617 924.816113 454.636617 924.485351 L 454.636617 883.978025 C 454.636617 883.669313 454.548414 883.404704 454.327906 883.184196 C 454.107398 882.963688 453.798687 882.809332 453.467925 882.809332 L 445.022467 882.809332 C 444.691705 882.809332 444.449146 882.963688 444.228638 883.184196 C 443.986079 883.404704 443.897876 883.669313 443.897876 883.978025 L 443.897876 908.82928 L 430.336632 883.823669 C 430.160225 883.537009 429.961768 883.272399 429.608955 883.073942 C 429.300244 882.897535 428.947431 882.809332 428.616669 882.809332 Z M 465.463562 882.809332 C 464.669733 882.809332 464.272818 883.206247 464.272818 883.978025 L 464.272818 924.485351 C 464.272818 925.257129 464.669733 925.587891 465.463562 925.587891 L 473.864918 925.587891 C 474.636696 925.587891 474.989509 925.257129 474.989509 924.485351 L 474.989509 915.40042 C 474.989509 915.091709 475.055661 914.716845 475.187966 914.319931 C 475.342322 913.945067 475.518728 913.680457 475.717185 913.459949 L 480.766819 907.859045 C 480.855023 907.704689 480.965277 907.770842 481.097581 907.969299 L 490.292767 924.639707 C 490.469173 924.926367 490.66763 925.146875 490.998392 925.323282 C 491.307104 925.521739 491.681967 925.587891 492.012729 925.587891 L 502.111997 925.587891 C 502.442759 925.587891 502.641217 925.521739 502.751471 925.323282 C 502.883775 925.146875 502.861725 924.926367 502.707369 924.639707 L 488.440499 901.287906 C 488.374347 901.13355 488.374347 900.979194 488.506651 900.86894 L 503.082233 883.669313 C 503.28069 883.426755 503.346842 883.250348 503.28069 883.073942 C 503.236588 882.919586 503.01608 882.809332 502.707369 882.809332 L 492.608101 882.809332 C 492.277339 882.809332 491.946577 882.919586 491.593764 883.073942 C 491.19685 883.250348 490.93224 883.426755 490.711732 883.669313 L 474.989509 902.169938 L 474.989509 883.978025 C 474.989509 883.206247 474.636696 882.809332 473.864918 882.809332 Z M 517.591661 882.809332 C 516.621426 882.809332 515.717343 883.007789 514.835311 883.404704 C 513.97533 883.779567 513.181501 884.330838 512.542027 884.970311 C 511.902554 885.587733 511.417436 886.31541 511.064624 887.197442 C 510.68976 888.057423 510.469252 889.005608 510.469252 889.975843 L 510.469252 901.442261 C 510.469252 902.434547 510.68976 903.382732 511.064624 904.242713 C 511.417436 905.080644 511.902554 905.80832 512.542027 906.491895 C 513.181501 907.131369 513.97533 907.660588 514.835311 908.035451 C 515.717343 908.388264 516.621426 908.564671 517.591661 908.564671 L 532.3657 908.564671 C 532.674411 908.564671 532.983122 908.652874 533.20363 908.873382 C 533.424138 909.09389 533.512342 909.402601 533.512342 909.733363 L 533.512342 914.805048 C 533.512342 915.13581 533.424138 915.422471 533.20363 915.620928 C 532.983122 915.819385 532.674411 915.885538 532.3657 915.885538 L 511.637945 915.885538 C 511.329233 915.885538 511.064624 916.039893 510.844116 916.260401 C 510.623608 916.480909 510.469252 916.723468 510.469252 917.05423 L 510.469252 924.485351 C 510.469252 925.257129 510.866166 925.587891 511.637945 925.587891 L 535.982032 925.587891 C 536.952267 925.587891 537.85635 925.433536 538.738382 925.058672 C 539.598364 924.705859 540.348091 924.17664 540.987564 923.515116 C 541.604987 922.853592 542.134206 922.147966 542.50907 921.265934 C 542.905984 920.405952 543.104441 919.435717 543.104441 918.443431 L 543.104441 906.977013 C 543.104441 905.962676 542.905984 905.080644 542.50907 904.242713 C 542.134206 903.382732 541.604987 902.588903 540.987564 901.94943 C 540.348091 901.287906 539.598364 900.802788 538.738382 900.449975 C 537.85635 900.075111 536.952267 899.898705 535.982032 899.898705 L 521.163892 899.898705 C 520.83313 899.898705 520.56852 899.7664 520.370063 899.545892 C 520.171606 899.303333 520.061351 899.060774 520.061351 898.730012 L 520.061351 893.768582 C 520.061351 893.45987 520.171606 893.195261 520.370063 892.974753 C 520.56852 892.732194 520.83313 892.577838 521.163892 892.577838 L 540.6127 892.577838 C 540.921412 892.577838 541.186021 892.511686 541.406529 892.313228 C 541.627037 892.114771 541.715241 891.850162 541.715241 891.5194 L 541.715241 883.978025 C 541.715241 883.206247 541.384479 882.809332 540.6127 882.809332 Z M 344.250294 892.533737 L 356.135677 892.533737 L 356.135677 903.382732 L 344.250294 903.382732 Z M 255.760419 892.798346 L 270.424204 892.798346 L 270.424204 903.162224 L 255.760419 903.162224 Z M 210.77678 893.239362 L 225.087751 893.239362 L 225.087751 915.246064 L 210.77678 915.246064 Z M 210.77678 893.239362 " transform="matrix(0.177148,0,0,0.177148,34.44262,-6.200177)"/>
<path style="fill-rule:nonzero;fill:rgb(0%,0%,0%);fill-opacity:1;stroke-width:8.41072;stroke-linecap:round;stroke-linejoin:round;stroke:rgb(0%,0%,0%);stroke-opacity:1;stroke-miterlimit:4;" d="M 239.949993 580.0959 L 253.665593 600.603147 L 282.94906 574.230386 L 361.097108 616.237167 L 423.611136 557.60408 L 487.117451 601.573383 L 546.676671 541.021876 L 534.967695 456.986263 L 565.243448 373.942937 L 447.051141 248.870778 L 264.382283 226.40101 L 186.234235 342.674897 L 177.458015 450.150514 L 243.875036 510.724072 Z M 239.949993 580.0959 " transform="matrix(0.177148,0,0,0.177148,34.44262,-6.200177)"/>
<path style="fill-rule:nonzero;fill:rgb(100%,100%,100%);fill-opacity:1;stroke-width:8.41072;stroke-linecap:round;stroke-linejoin:round;stroke:rgb(100%,100%,100%);stroke-opacity:1;stroke-miterlimit:4;" d="M 419.708144 432.553973 L 443.148148 453.083271 L 513.468161 376.875694 Z M 419.708144 432.553973 " transform="matrix(0.177148,0,0,0.177148,34.44262,-6.200177)"/>
<path style="fill-rule:nonzero;fill:rgb(100%,100%,100%);fill-opacity:1;stroke-width:8.41072;stroke-linecap:round;stroke-linejoin:round;stroke:rgb(100%,100%,100%);stroke-opacity:1;stroke-miterlimit:4;" d="M 351.328602 434.538545 L 325.926076 464.792248 L 230.203538 390.569243 Z M 351.328602 434.538545 " transform="matrix(0.177148,0,0,0.177148,34.44262,-6.200177)"/>
<path style="fill-rule:nonzero;fill:rgb(0%,0%,0%);fill-opacity:1;stroke-width:8.41072;stroke-linecap:round;stroke-linejoin:round;stroke:rgb(0%,0%,0%);stroke-opacity:1;stroke-miterlimit:4;" d="M 526.169424 753.988537 L 594.548966 562.521409 L 498.826428 646.534971 L 420.67838 599.632912 L 371.835849 658.243948 L 293.709852 613.30441 L 264.382283 656.303477 L 139.376278 494.119816 L 235.076765 740.317039 Z M 526.169424 753.988537 " transform="matrix(0.177148,0,0,0.177148,34.44262,-6.200177)"/>
<path style="fill-rule:nonzero;fill:rgb(0%,0%,0%);fill-opacity:1;stroke-width:0.841072;stroke-linecap:butt;stroke-linejoin:miter;stroke:rgb(0%,0%,0%);stroke-opacity:1;stroke-miterlimit:4;" d="M 85.991282 795.818912 C 85.417961 795.818912 84.998996 796.061471 84.624132 796.436334 C 84.271319 796.811198 84.050811 797.208112 84.050811 797.759383 L 84.050811 809.997579 C 84.050811 810.526798 84.271319 810.989865 84.624132 811.364728 C 84.998996 811.739592 85.417961 811.893948 85.991282 811.893948 L 118.604421 811.893948 L 84.624132 849.446466 C 84.29337 849.865432 84.02876 850.394651 83.786202 851.056175 C 83.543643 851.695648 83.411338 852.268969 83.411338 852.798188 L 83.411338 865.609705 C 83.411338 866.932754 84.094913 867.616328 85.373859 867.616328 L 136.15686 867.616328 C 136.70813 867.616328 137.171197 867.39582 137.546061 867.020957 C 137.920925 866.646093 138.119382 866.160975 138.119382 865.609705 L 138.119382 853.459712 C 138.119382 852.886392 137.920925 852.423325 137.546061 852.048461 C 137.171197 851.673597 136.70813 851.519242 136.15686 851.519242 L 103.587823 851.519242 L 136.796334 813.988774 C 137.127096 813.59186 137.435807 813.040589 137.700416 812.445218 C 137.965026 811.827795 138.119382 811.232424 138.119382 810.681153 L 138.119382 797.759383 C 138.119382 797.208112 137.920925 796.811198 137.546061 796.436334 C 137.171197 796.061471 136.70813 795.818912 136.15686 795.818912 Z M 166.079801 795.818912 C 164.42599 795.818912 162.860383 796.149674 161.40503 796.811198 C 159.905576 797.450671 158.64868 798.288602 157.568191 799.34704 C 156.46565 800.42753 155.605669 801.684426 154.988247 803.139779 C 154.392875 804.617182 154.106214 806.20484 154.106214 807.8366 L 154.106214 855.57659 C 154.106214 857.2304 154.392875 858.818058 154.988247 860.295462 C 155.605669 861.750815 156.46565 863.051812 157.568191 864.132301 C 158.64868 865.212791 159.905576 866.072772 161.40503 866.712245 C 162.860383 867.307617 164.42599 867.616328 166.079801 867.616328 L 202.221068 867.616328 C 203.830777 867.616328 205.440485 867.307617 206.895838 866.712245 C 208.351191 866.072772 209.630138 865.212791 210.666526 864.132301 C 211.724964 863.051812 212.562895 861.750815 213.224419 860.295462 C 213.885943 858.818058 214.194654 857.2304 214.194654 855.57659 L 214.194654 807.8366 C 214.194654 806.20484 213.885943 804.617182 213.224419 803.139779 C 212.562895 801.684426 211.724964 800.42753 210.666526 799.34704 C 209.630138 798.288602 208.351191 797.450671 206.895838 796.811198 C 205.440485 796.149674 203.830777 795.818912 202.221068 795.818912 Z M 231.041468 795.818912 C 229.762522 795.818912 229.145099 796.458385 229.145099 797.759383 L 229.145099 865.609705 C 229.145099 866.932754 229.762522 867.616328 231.041468 867.616328 L 245.176033 867.616328 C 246.45498 867.616328 247.072403 866.932754 247.072403 865.609705 L 247.072403 846.557811 C 247.072403 846.227049 247.27086 846.094744 247.601622 846.094744 L 259.795716 846.094744 C 260.126478 846.094744 260.346986 846.182947 260.479291 846.447557 L 271.350337 865.940467 C 271.614947 866.403534 272.033912 866.822499 272.563132 867.131211 C 273.114402 867.439922 273.62157 867.616328 274.150789 867.616328 L 290.446333 867.616328 C 290.997603 867.616328 291.372467 867.439922 291.570924 867.131211 C 291.769381 866.822499 291.72528 866.403534 291.46067 865.940467 L 280.501421 846.998827 C 280.435268 846.844471 280.391167 846.778319 280.391167 846.778319 C 280.126557 846.513709 280.236811 846.337303 280.721929 846.182947 L 281.03064 846.094744 C 283.412127 845.345017 285.352598 843.889664 286.874103 841.816888 C 288.417659 839.722062 289.233539 837.406727 289.233539 834.804733 L 289.233539 807.8366 C 289.233539 806.20484 288.880726 804.617182 288.197151 803.139779 C 287.557678 801.684426 286.719747 800.42753 285.661309 799.34704 C 284.624921 798.288602 283.345974 797.450671 281.890621 796.811198 C 280.435268 796.149674 278.891712 795.818912 277.259953 795.818912 Z M 318.715464 795.818912 C 317.083704 795.818912 315.562199 796.149674 314.084795 796.811198 C 312.629442 797.450671 311.350495 798.288602 310.247955 799.34704 C 309.167466 800.42753 308.307484 801.684426 307.690062 803.139779 C 307.09469 804.617182 306.80803 806.20484 306.80803 807.8366 L 306.80803 855.57659 C 306.80803 857.2304 307.09469 858.818058 307.690062 860.295462 C 308.307484 861.750815 309.167466 863.051812 310.247955 864.132301 C 311.350495 865.212791 312.629442 866.072772 314.084795 866.712245 C 315.562199 867.307617 317.083704 867.616328 318.715464 867.616328 L 354.922883 867.616328 C 356.532592 867.616328 358.076148 867.307617 359.553552 866.712245 C 361.008905 866.072772 362.24375 865.212791 363.302188 864.132301 C 364.382678 863.051812 365.220608 861.750815 365.860082 860.295462 C 366.521606 858.818058 366.874419 857.2304 366.874419 855.57659 L 366.874419 830.372521 C 366.874419 829.821251 366.653911 829.358184 366.301098 829.005371 C 365.926234 828.630508 365.463167 828.454101 364.911897 828.454101 L 350.71118 828.454101 C 350.137859 828.454101 349.674792 828.630508 349.321979 829.005371 C 348.947115 829.358184 348.770709 829.821251 348.770709 830.372521 L 348.770709 848.321875 C 348.770709 848.873145 348.594302 849.336212 348.24149 849.666974 C 347.910728 849.997736 347.469711 850.196194 346.918441 850.196194 L 326.697854 850.196194 C 326.146584 850.196194 325.683517 849.997736 325.308654 849.666974 C 324.93379 849.336212 324.779435 848.873145 324.779435 848.321875 L 324.779435 815.113365 C 324.779435 814.562095 324.93379 814.121079 325.308654 813.790317 C 325.683517 813.415453 326.146584 813.239047 326.697854 813.239047 L 360.920702 813.239047 C 361.471972 813.239047 361.935039 813.084691 362.287852 812.709827 C 362.662715 812.334964 362.883223 811.871897 362.883223 811.320627 L 362.883223 797.759383 C 362.883223 797.208112 362.662715 796.811198 362.287852 796.436334 C 361.935039 796.061471 361.471972 795.818912 360.920702 795.818912 Z M 428.616669 795.818912 C 426.984909 795.818912 425.419302 796.149674 423.941898 796.811198 C 422.464495 797.450671 421.207599 798.288602 420.105059 799.34704 C 419.002518 800.42753 418.164588 801.684426 417.547165 803.139779 C 416.951794 804.617182 416.643082 806.20484 416.643082 807.8366 L 416.643082 855.57659 C 416.643082 857.2304 416.951794 858.818058 417.547165 860.295462 C 418.164588 861.750815 419.002518 863.051812 420.105059 864.132301 C 421.207599 865.212791 422.464495 866.072772 423.941898 866.712245 C 425.419302 867.307617 426.984909 867.616328 428.616669 867.616328 L 469.366554 867.616328 C 469.939875 867.616328 470.402942 867.39582 470.777805 867.020957 C 471.152669 866.646093 471.307025 866.160975 471.307025 865.609705 L 471.307025 852.114613 C 471.307025 851.563343 471.152669 851.100277 470.777805 850.725413 C 470.402942 850.350549 469.939875 850.196194 469.366554 850.196194 L 436.554958 850.196194 C 436.003688 850.196194 435.540621 849.997736 435.165758 849.666974 C 434.790894 849.336212 434.636538 848.873145 434.636538 848.321875 L 434.636538 815.113365 C 434.636538 814.562095 434.790894 814.121079 435.165758 813.790317 C 435.540621 813.415453 436.003688 813.239047 436.554958 813.239047 L 469.366554 813.239047 C 469.939875 813.239047 470.402942 813.084691 470.777805 812.709827 C 471.152669 812.334964 471.307025 811.871897 471.307025 811.320627 L 471.307025 797.759383 C 471.307025 797.208112 471.152669 796.811198 470.777805 796.436334 C 470.402942 796.061471 469.939875 795.818912 469.366554 795.818912 Z M 499.355647 795.818912 C 497.723887 795.818912 496.202382 796.149674 494.724978 796.811198 C 493.269625 797.450671 491.990678 798.288602 490.888138 799.34704 C 489.807649 800.42753 488.947668 801.684426 488.330245 803.139779 C 487.734873 804.617182 487.382061 806.20484 487.382061 807.8366 L 487.382061 855.57659 C 487.382061 857.2304 487.734873 858.818058 488.330245 860.295462 C 488.947668 861.750815 489.807649 863.051812 490.888138 864.132301 C 491.990678 865.212791 493.269625 866.072772 494.724978 866.712245 C 496.202382 867.307617 497.723887 867.616328 499.355647 867.616328 L 535.541016 867.616328 C 537.172775 867.616328 538.694281 867.307617 540.193735 866.712245 C 541.649088 866.072772 542.883933 865.212791 543.942372 864.132301 C 545.022861 863.051812 545.860792 861.750815 546.500265 860.295462 C 547.161789 858.818058 547.4705 857.2304 547.4705 855.57659 L 547.4705 807.8366 C 547.4705 806.20484 547.161789 804.617182 546.500265 803.139779 C 545.860792 801.684426 545.022861 800.42753 543.942372 799.34704 C 542.883933 798.288602 541.649088 797.450671 540.193735 796.811198 C 538.694281 796.149674 537.172775 795.818912 535.541016 795.818912 Z M 565.397804 795.818912 C 564.096806 795.818912 563.435282 796.458385 563.435282 797.759383 L 563.435282 865.609705 C 563.435282 866.932754 564.096806 867.616328 565.397804 867.616328 L 579.488267 867.616328 C 580.811316 867.616328 581.428738 866.932754 581.428738 865.609705 L 581.428738 797.759383 C 581.428738 796.458385 580.811316 795.818912 579.488267 795.818912 Z M 599.31194 795.818912 C 598.010942 795.818912 597.39352 796.458385 597.39352 797.759383 L 597.39352 865.609705 C 597.39352 866.932754 598.010942 867.616328 599.31194 867.616328 L 613.402403 867.616328 C 614.703401 867.616328 615.386976 866.932754 615.386976 865.609705 L 615.386976 815.113365 C 615.386976 814.562095 615.541331 814.121079 615.916195 813.790317 C 616.291059 813.415453 616.754125 813.239047 617.283345 813.239047 L 637.525982 813.239047 C 638.077253 813.239047 638.540319 813.415453 638.893132 813.790317 C 639.267996 814.121079 639.488504 814.562095 639.488504 815.113365 L 639.488504 865.609705 C 639.488504 866.160975 639.620809 866.646093 639.973622 867.020957 C 640.304384 867.39582 640.7454 867.616328 641.29667 867.616328 L 655.519438 867.616328 C 656.048658 867.616328 656.511724 867.39582 656.886588 867.020957 C 657.261452 866.646093 657.48196 866.160975 657.48196 865.609705 L 657.48196 807.8366 C 657.48196 806.20484 657.107096 804.617182 656.467623 803.139779 C 655.828149 801.684426 654.968168 800.42753 653.90973 799.34704 C 652.851291 798.288602 651.594395 797.450671 650.116991 796.811198 C 648.661638 796.149674 647.140133 795.818912 645.486323 795.818912 Z M 246.499082 812.533421 L 271.15188 812.533421 L 271.15188 829.953556 L 246.499082 829.953556 Z M 172.077619 813.239047 L 196.090945 813.239047 L 196.090945 850.196194 L 172.077619 850.196194 Z M 505.375516 813.239047 L 529.410892 813.239047 L 529.410892 850.196194 L 505.375516 850.196194 Z M 207.20455 882.809332 C 206.234314 882.809332 205.330231 883.007789 204.426148 883.404704 C 203.566167 883.779567 202.794389 884.330838 202.154916 884.970311 C 201.515442 885.587733 200.986223 886.31541 200.63341 887.197442 C 200.236496 888.057423 200.060089 889.005608 200.060089 889.975843 L 200.060089 918.443431 C 200.060089 919.435717 200.236496 920.405952 200.63341 921.265934 C 200.986223 922.147966 201.515442 922.853592 202.154916 923.493065 C 202.794389 924.17664 203.566167 924.705859 204.426148 925.058672 C 205.330231 925.433536 206.234314 925.587891 207.20455 925.587891 L 228.770236 925.587891 C 229.740471 925.587891 230.644554 925.433536 231.548637 925.058672 C 232.408618 924.705859 233.136295 924.17664 233.775768 923.493065 C 234.39319 922.853592 234.92241 922.147966 235.297273 921.265934 C 235.716239 920.405952 235.914696 919.435717 235.914696 918.443431 L 235.914696 889.975843 C 235.914696 889.005608 235.716239 888.057423 235.297273 887.197442 C 234.92241 886.31541 234.39319 885.587733 233.775768 884.970311 C 233.136295 884.330838 232.408618 883.779567 231.548637 883.404704 C 230.644554 883.007789 229.740471 882.809332 228.770236 882.809332 Z M 246.543183 882.809332 C 245.771405 882.809332 245.374491 883.206247 245.374491 883.978025 L 245.374491 924.485351 C 245.374491 925.257129 245.771405 925.587891 246.543183 925.587891 L 254.96659 925.587891 C 255.716318 925.587891 256.113232 925.257129 256.113232 924.485351 L 256.113232 913.107136 C 256.113232 912.886628 256.179384 912.776374 256.377842 912.776374 L 263.676658 912.776374 C 263.897166 912.776374 264.029471 912.886628 264.117674 913.040984 L 270.534458 924.639707 C 270.710864 924.926367 270.975474 925.146875 271.306236 925.323282 C 271.614947 925.521739 271.923658 925.587891 272.25442 925.587891 L 281.934723 925.587891 C 282.265485 925.587891 282.508044 925.521739 282.618298 925.323282 C 282.750603 925.146875 282.68445 924.926367 282.530095 924.639707 L 276.047158 913.305594 C 276.003057 913.239441 275.981006 913.19534 275.981006 913.19534 C 275.82665 913.040984 275.870752 912.908679 276.135362 912.842527 L 276.35587 912.776374 C 277.767121 912.335358 278.891712 911.519478 279.817846 910.262583 C 280.721929 909.027738 281.184996 907.594435 281.184996 906.050879 L 281.184996 889.975843 C 281.184996 889.005608 280.986539 888.057423 280.611675 887.197442 C 280.236811 886.31541 279.751694 885.587733 279.11222 884.970311 C 278.472747 884.330838 277.700969 883.779567 276.840987 883.404704 C 275.958955 883.007789 275.032822 882.809332 274.062586 882.809332 Z M 298.715385 882.809332 C 297.745149 882.809332 296.796965 883.007789 295.936983 883.404704 C 295.054951 883.779567 294.349326 884.330838 293.709852 884.970311 C 293.070379 885.587733 292.519109 886.31541 292.144245 887.197442 C 291.791432 888.057423 291.615026 889.005608 291.615026 889.975843 L 291.615026 918.443431 C 291.615026 919.435717 291.791432 920.405952 292.144245 921.265934 C 292.519109 922.147966 293.070379 922.853592 293.709852 923.493065 C 294.349326 924.17664 295.054951 924.705859 295.936983 925.058672 C 296.796965 925.433536 297.745149 925.587891 298.715385 925.587891 L 323.01537 925.587891 C 323.346132 925.587891 323.632793 925.499688 323.897402 925.27918 C 324.11791 925.058672 324.206114 924.816113 324.206114 924.485351 L 324.206114 916.414757 C 324.206114 916.083995 324.11791 915.797334 323.897402 915.554776 C 323.632793 915.334267 323.346132 915.246064 323.01537 915.246064 L 303.500409 915.246064 C 303.169647 915.246064 302.860936 915.13581 302.640428 914.915302 C 302.41992 914.694794 302.331716 914.430185 302.331716 914.099422 L 302.331716 894.297801 C 302.331716 893.98909 302.41992 893.768582 302.640428 893.570124 C 302.860936 893.371667 303.169647 893.239362 303.500409 893.239362 L 323.01537 893.239362 C 323.346132 893.239362 323.632793 893.151159 323.897402 892.9086 C 324.11791 892.688092 324.206114 892.379381 324.206114 892.048619 L 324.206114 883.978025 C 324.206114 883.669313 324.11791 883.404704 323.897402 883.184196 C 323.632793 882.963688 323.346132 882.809332 323.01537 882.809332 Z M 335.055109 882.809332 C 334.283331 882.809332 333.886416 883.206247 333.886416 883.978025 L 333.886416 924.485351 C 333.886416 925.257129 334.283331 925.587891 335.055109 925.587891 L 343.456465 925.587891 C 344.228243 925.587891 344.625158 925.257129 344.625158 924.485351 L 344.625158 914.430185 C 344.625158 914.099422 344.735412 913.834813 344.95592 913.636356 C 345.176428 913.437898 345.418987 913.305594 345.749749 913.305594 L 359.377145 913.305594 C 360.347381 913.305594 361.273515 913.107136 362.133496 912.732273 C 363.015528 912.335358 363.765255 911.872291 364.382678 911.232818 C 365.022151 910.615396 365.52932 909.799516 365.926234 908.939534 C 366.301098 908.057502 366.499555 907.131369 366.499555 906.139082 L 366.499555 889.975843 C 366.499555 889.005608 366.301098 888.057423 365.926234 887.197442 C 365.52932 886.31541 365.022151 885.587733 364.382678 884.970311 C 363.765255 884.330838 363.015528 883.779567 362.133496 883.404704 C 361.273515 883.007789 360.347381 882.809332 359.377145 882.809332 Z M 374.5922 882.809332 C 373.820422 882.809332 373.423507 883.206247 373.423507 883.978025 L 373.423507 918.443431 C 373.423507 919.435717 373.644015 920.405952 374.018879 921.265934 C 374.371692 922.147966 374.85681 922.853592 375.496283 923.493065 C 376.135756 924.17664 376.929585 924.705859 377.789566 925.058672 C 378.671599 925.433536 379.575682 925.587891 380.545917 925.587891 L 402.111603 925.587891 C 403.081838 925.587891 404.074124 925.433536 404.934106 925.058672 C 405.816138 924.705859 406.543814 924.17664 407.161237 923.493065 C 407.80071 922.853592 408.285828 922.147966 408.660692 921.265934 C 409.057606 920.405952 409.256063 919.435717 409.256063 918.443431 L 409.256063 883.978025 C 409.256063 883.669313 409.145809 883.404704 408.925301 883.184196 C 408.704793 882.963688 408.462234 882.809332 408.131472 882.809332 L 399.663964 882.809332 C 399.355252 882.809332 399.046541 882.963688 398.803982 883.184196 C 398.583474 883.404704 398.495271 883.669313 398.495271 883.978025 L 398.495271 914.099422 C 398.495271 914.430185 398.362966 914.694794 398.164509 914.915302 C 397.966052 915.13581 397.701442 915.246064 397.37068 915.246064 L 385.330941 915.246064 C 385.02223 915.246064 384.713519 915.13581 384.493011 914.915302 C 384.272503 914.694794 384.1843 914.430185 384.1843 914.099422 L 384.1843 883.978025 C 384.1843 883.206247 383.787385 882.809332 383.015607 882.809332 Z M 419.994805 882.809332 C 419.223026 882.809332 418.826112 883.206247 418.826112 883.978025 L 418.826112 924.485351 C 418.826112 925.257129 419.223026 925.587891 419.994805 925.587891 L 428.396161 925.587891 C 429.167939 925.587891 429.564853 925.257129 429.564853 924.485351 L 429.564853 899.700248 L 442.993793 924.639707 C 443.170199 924.926367 443.412758 925.146875 443.74352 925.323282 C 444.074282 925.521739 444.427095 925.587891 444.757857 925.587891 L 453.467925 925.587891 C 453.798687 925.587891 454.107398 925.499688 454.327906 925.27918 C 454.548414 925.058672 454.636617 924.816113 454.636617 924.485351 L 454.636617 883.978025 C 454.636617 883.669313 454.548414 883.404704 454.327906 883.184196 C 454.107398 882.963688 453.798687 882.809332 453.467925 882.809332 L 445.022467 882.809332 C 444.691705 882.809332 444.449146 882.963688 444.228638 883.184196 C 443.986079 883.404704 443.897876 883.669313 443.897876 883.978025 L 443.897876 908.82928 L 430.336632 883.823669 C 430.160225 883.537009 429.961768 883.272399 429.608955 883.073942 C 429.300244 882.897535 428.947431 882.809332 428.616669 882.809332 Z M 465.463562 882.809332 C 464.669733 882.809332 464.272818 883.206247 464.272818 883.978025 L 464.272818 924.485351 C 464.272818 925.257129 464.669733 925.587891 465.463562 925.587891 L 473.864918 925.587891 C 474.636696 925.587891 474.989509 925.257129 474.989509 924.485351 L 474.989509 915.40042 C 474.989509 915.091709 475.055661 914.716845 475.187966 914.319931 C 475.342322 913.945067 475.518728 913.680457 475.717185 913.459949 L 480.766819 907.859045 C 480.855023 907.704689 480.965277 907.770842 481.097581 907.969299 L 490.292767 924.639707 C 490.469173 924.926367 490.66763 925.146875 490.998392 925.323282 C 491.307104 925.521739 491.681967 925.587891 492.012729 925.587891 L 502.111997 925.587891 C 502.442759 925.587891 502.641217 925.521739 502.751471 925.323282 C 502.883775 925.146875 502.861725 924.926367 502.707369 924.639707 L 488.440499 901.287906 C 488.374347 901.13355 488.374347 900.979194 488.506651 900.86894 L 503.082233 883.669313 C 503.28069 883.426755 503.346842 883.250348 503.28069 883.073942 C 503.236588 882.919586 503.01608 882.809332 502.707369 882.809332 L 492.608101 882.809332 C 492.277339 882.809332 491.946577 882.919586 491.593764 883.073942 C 491.19685 883.250348 490.93224 883.426755 490.711732 883.669313 L 474.989509 902.169938 L 474.989509 883.978025 C 474.989509 883.206247 474.636696 882.809332 473.864918 882.809332 Z M 517.591661 882.809332 C 516.621426 882.809332 515.717343 883.007789 514.835311 883.404704 C 513.97533 883.779567 513.181501 884.330838 512.542027 884.970311 C 511.902554 885.587733 511.417436 886.31541 511.064624 887.197442 C 510.68976 888.057423 510.469252 889.005608 510.469252 889.975843 L 510.469252 901.442261 C 510.469252 902.434547 510.68976 903.382732 511.064624 904.242713 C 511.417436 905.080644 511.902554 905.80832 512.542027 906.491895 C 513.181501 907.131369 513.97533 907.660588 514.835311 908.035451 C 515.717343 908.388264 516.621426 908.564671 517.591661 908.564671 L 532.3657 908.564671 C 532.674411 908.564671 532.983122 908.652874 533.20363 908.873382 C 533.424138 909.09389 533.512342 909.402601 533.512342 909.733363 L 533.512342 914.805048 C 533.512342 915.13581 533.424138 915.422471 533.20363 915.620928 C 532.983122 915.819385 532.674411 915.885538 532.3657 915.885538 L 511.637945 915.885538 C 511.329233 915.885538 511.064624 916.039893 510.844116 916.260401 C 510.623608 916.480909 510.469252 916.723468 510.469252 917.05423 L 510.469252 924.485351 C 510.469252 925.257129 510.866166 925.587891 511.637945 925.587891 L 535.982032 925.587891 C 536.952267 925.587891 537.85635 925.433536 538.738382 925.058672 C 539.598364 924.705859 540.348091 924.17664 540.987564 923.515116 C 541.604987 922.853592 542.134206 922.147966 542.50907 921.265934 C 542.905984 920.405952 543.104441 919.435717 543.104441 918.443431 L 543.104441 906.977013 C 543.104441 905.962676 542.905984 905.080644 542.50907 904.242713 C 542.134206 903.382732 541.604987 902.588903 540.987564 901.94943 C 540.348091 901.287906 539.598364 900.802788 538.738382 900.449975 C 537.85635 900.075111 536.952267 899.898705 535.982032 899.898705 L 521.163892 899.898705 C 520.83313 899.898705 520.56852 899.7664 520.370063 899.545892 C 520.171606 899.303333 520.061351 899.060774 520.061351 898.730012 L 520.061351 893.768582 C 520.061351 893.45987 520.171606 893.195261 520.370063 892.974753 C 520.56852 892.732194 520.83313 892.577838 521.163892 892.577838 L 540.6127 892.577838 C 540.921412 892.577838 541.186021 892.511686 541.406529 892.313228 C 541.627037 892.114771 541.715241 891.850162 541.715241 891.5194 L 541.715241 883.978025 C 541.715241 883.206247 541.384479 882.809332 540.6127 882.809332 Z M 344.250294 892.533737 L 356.135677 892.533737 L 356.135677 903.382732 L 344.250294 903.382732 Z M 255.760419 892.798346 L 270.424204 892.798346 L 270.424204 903.162224 L 255.760419 903.162224 Z M 210.77678 893.239362 L 225.087751 893.239362 L 225.087751 915.246064 L 210.77678 915.246064 Z M 210.77678 893.239362 " transform="matrix(0.177148,0,0,0.177148,34.44262,-6.200177)"/>
<path style="fill:none;stroke-width:43.0383;stroke-linecap:round;stroke-linejoin:bevel;stroke:rgb(100%,100%,100%);stroke-opacity:1;stroke-miterlimit:4;" d="M 800.679879 596.876561 C 800.679879 835.378054 607.338432 1028.741551 368.83694 1028.741551 C 130.313397 1028.741551 -63.028049 835.378054 -63.028049 596.876561 C -63.028049 358.375069 130.313397 165.033623 368.83694 165.033623 C 607.338432 165.033623 800.679879 358.375069 800.679879 596.876561 Z M 800.679879 596.876561 " transform="matrix(0.177148,0,0,0.177148,34.44262,-6.200177)"/>
<path style="fill:none;stroke-width:42.0536;stroke-linecap:round;stroke-linejoin:bevel;stroke:rgb(0%,0%,0%);stroke-opacity:1;stroke-miterlimit:4;" d="M 813.998564 596.876561 C 813.998564 842.743022 614.659299 1042.060236 368.83694 1042.060236 C 122.97048 1042.060236 -76.346734 842.743022 -76.346734 596.876561 C -76.346734 351.032152 122.97048 151.714938 368.83694 151.714938 C 614.659299 151.714938 813.998564 351.032152 813.998564 596.876561 Z M 813.998564 596.876561 " transform="matrix(0.177148,0,0,0.177148,34.44262,-6.200177)"/>
</g>
</svg>
