<svg id="svg" version="1.1" xmlns="http://www.w3.org/2000/svg" xmlns:xlink="http://www.w3.org/1999/xlink" width="400" height="400" viewBox="0, 0, 400,400"><g id="svgg"><path id="path0" d="M126.417 171.840 C 111.288 187.011,94.320 204.050,88.712 209.705 L 78.514 219.985 78.859 222.232 C 84.475 258.725,111.499 294.089,146.724 311.041 C 153.550 314.326,153.302 314.334,150.428 310.926 C 138.919 297.277,133.605 280.550,134.766 261.627 C 135.815 244.546,139.525 232.950,150.198 213.391 C 165.802 184.795,166.841 171.216,155.274 147.074 L 153.924 144.255 126.417 171.840 M232.181 193.303 L 217.710 207.778 229.160 219.225 L 240.610 230.672 241.131 228.295 C 241.947 224.576,243.698 219.681,246.653 212.858 C 251.846 200.866,252.713 196.456,251.250 189.456 C 250.630 186.487,248.405 181.144,247.036 179.335 C 246.689 178.877,245.261 180.220,232.181 193.303 " stroke="none" fill="#fac786" fill-rule="evenodd"></path><path id="path1" d="M193.521 60.198 C 85.364 65.345,23.471 186.859,83.076 277.034 C 142.206 366.489,276.156 358.907,324.827 263.350 C 373.283 168.217,300.184 55.123,193.521 60.198 M212.095 99.173 C 273.441 107.350,313.242 165.209,298.473 224.743 C 297.926 226.947,297.409 228.821,297.324 228.906 C 297.239 228.991,285.896 217.792,272.118 204.019 L 247.068 178.978 248.492 181.786 C 253.588 191.828,253.248 197.917,246.753 212.914 C 243.664 220.048,241.961 224.819,241.154 228.600 L 240.643 230.995 197.490 187.852 L 154.337 144.708 156.037 148.459 C 163.972 165.967,165.063 179.743,159.667 194.293 C 158.162 198.351,155.646 203.492,150.444 213.139 C 147.935 217.791,145.019 223.477,143.965 225.774 C 129.322 257.679,132.220 290.982,151.464 311.961 C 153.523 314.206,153.332 314.213,148.615 312.062 C 113.051 295.842,87.180 263.205,79.198 224.490 L 78.310 220.181 88.399 210.089 L 98.488 199.997 98.491 197.551 C 98.541 156.339,127.561 117.082,167.891 103.670 C 175.940 100.994,182.190 99.751,193.089 98.661 C 195.608 98.409,209.086 98.772,212.095 99.173 " stroke="none" fill="#041c3c" fill-rule="evenodd"></path><path id="path2" d="M193.089 98.661 C 182.190 99.751,175.940 100.994,167.891 103.670 C 134.073 114.916,108.379 143.485,100.808 178.258 C 99.366 184.883,98.337 193.734,98.541 197.769 L 98.632 199.570 126.277 171.923 L 153.923 144.276 185.745 176.098 L 217.567 207.919 232.182 193.305 L 246.796 178.691 271.982 203.876 C 285.835 217.728,297.239 228.991,297.324 228.906 C 297.624 228.606,299.474 220.692,300.042 217.279 C 305.590 183.945,294.821 150.691,270.944 127.426 C 254.719 111.616,235.224 102.256,212.095 99.173 C 209.086 98.772,195.608 98.409,193.089 98.661 " stroke="none" fill="#f35b3c" fill-rule="evenodd"></path><path id="path3" d="M194.465 60.111 C 195.222 60.171,196.389 60.170,197.057 60.110 C 197.725 60.049,197.106 60.001,195.680 60.001 C 194.255 60.002,193.708 60.052,194.465 60.111 M203.104 60.111 C 203.862 60.171,205.028 60.170,205.696 60.110 C 206.365 60.049,205.745 60.001,204.320 60.001 C 202.894 60.002,202.347 60.052,203.104 60.111 M189.129 60.390 C 189.485 60.459,190.068 60.459,190.425 60.390 C 190.781 60.322,190.490 60.266,189.777 60.266 C 189.064 60.266,188.772 60.322,189.129 60.390 M209.575 60.390 C 209.932 60.459,210.515 60.459,210.871 60.390 C 211.228 60.322,210.936 60.266,210.223 60.266 C 209.510 60.266,209.219 60.322,209.575 60.390 M185.817 60.674 C 186.094 60.746,186.548 60.746,186.825 60.674 C 187.102 60.601,186.875 60.542,186.321 60.542 C 185.767 60.542,185.540 60.601,185.817 60.674 M213.175 60.674 C 213.452 60.746,213.906 60.746,214.183 60.674 C 214.460 60.601,214.233 60.542,213.679 60.542 C 213.125 60.542,212.898 60.601,213.175 60.674 M260.067 73.545 C 260.360 73.815,264.939 76.017,264.939 75.888 C 264.939 75.728,260.459 73.434,260.146 73.434 C 260.036 73.434,260.001 73.484,260.067 73.545 M134.701 75.903 C 133.625 76.487,133.690 76.730,134.773 76.170 C 135.248 75.924,135.637 75.662,135.637 75.587 C 135.637 75.401,135.606 75.412,134.701 75.903 M105.530 96.544 L 104.392 97.768 105.616 96.630 C 106.754 95.571,106.972 95.320,106.754 95.320 C 106.707 95.320,106.156 95.871,105.530 96.544 M294.456 96.760 C 295.075 97.394,295.646 97.912,295.725 97.912 C 295.804 97.912,295.363 97.394,294.744 96.760 C 294.126 96.127,293.555 95.608,293.476 95.608 C 293.396 95.608,293.838 96.127,294.456 96.760 M100.786 101.008 L 98.344 103.528 100.864 101.086 C 103.204 98.819,103.515 98.488,103.305 98.488 C 103.262 98.488,102.128 99.622,100.786 101.008 M298.908 100.864 C 300.101 102.135,300.360 102.364,300.360 102.148 C 300.360 102.102,299.744 101.486,298.992 100.780 L 297.624 99.496 298.908 100.864 M303.096 105.400 C 303.714 106.033,304.285 106.551,304.365 106.551 C 304.444 106.551,304.002 106.033,303.384 105.400 C 302.765 104.766,302.194 104.248,302.115 104.248 C 302.036 104.248,302.477 104.766,303.096 105.400 M96.315 105.760 L 95.176 106.983 96.400 105.845 C 97.539 104.786,97.757 104.536,97.539 104.536 C 97.492 104.536,96.941 105.086,96.315 105.760 M76.170 134.197 C 75.924 134.672,75.788 135.061,75.867 135.061 C 75.946 135.061,76.212 134.672,76.458 134.197 C 76.704 133.722,76.840 133.333,76.761 133.333 C 76.681 133.333,76.416 133.722,76.170 134.197 M325.187 137.498 C 325.852 138.839,326.442 139.889,326.499 139.832 C 326.627 139.704,324.309 135.061,324.117 135.061 C 324.041 135.061,324.522 136.158,325.187 137.498 M60.542 186.033 C 60.542 186.587,60.601 186.814,60.674 186.537 C 60.746 186.260,60.746 185.806,60.674 185.529 C 60.601 185.252,60.542 185.479,60.542 186.033 M339.304 186.321 C 339.304 186.875,339.363 187.102,339.435 186.825 C 339.508 186.548,339.508 186.094,339.435 185.817 C 339.363 185.540,339.304 185.767,339.304 186.321 M60.260 189.345 C 60.263 189.978,60.322 190.204,60.391 189.845 C 60.460 189.487,60.457 188.969,60.385 188.694 C 60.313 188.418,60.257 188.711,60.260 189.345 M339.603 189.777 C 339.603 190.490,339.659 190.781,339.728 190.425 C 339.797 190.068,339.797 189.485,339.728 189.129 C 339.659 188.772,339.603 189.064,339.603 189.777 M59.994 194.528 C 59.995 195.637,60.047 196.055,60.109 195.458 C 60.172 194.860,60.171 193.953,60.107 193.442 C 60.043 192.931,59.992 193.420,59.994 194.528 M339.915 195.680 C 339.914 197.106,339.963 197.725,340.023 197.057 C 340.084 196.389,340.084 195.222,340.025 194.465 C 339.965 193.708,339.916 194.255,339.915 195.680 M339.915 204.320 C 339.914 205.745,339.963 206.365,340.023 205.696 C 340.084 205.028,340.084 203.862,340.025 203.104 C 339.965 202.347,339.916 202.894,339.915 204.320 M59.994 205.472 C 59.995 206.580,60.047 206.999,60.109 206.401 C 60.172 205.804,60.171 204.896,60.107 204.385 C 60.043 203.874,59.992 204.363,59.994 205.472 M229.086 219.438 C 235.420 225.774,240.667 230.958,240.746 230.958 C 240.825 230.958,235.708 225.774,229.374 219.438 C 223.040 213.103,217.792 207.919,217.713 207.919 C 217.634 207.919,222.752 213.103,229.086 219.438 M339.603 210.223 C 339.603 210.936,339.659 211.228,339.728 210.871 C 339.797 210.515,339.797 209.932,339.728 209.575 C 339.659 209.219,339.603 209.510,339.603 210.223 M60.260 210.655 C 60.263 211.289,60.322 211.514,60.391 211.156 C 60.460 210.798,60.457 210.279,60.385 210.004 C 60.313 209.729,60.257 210.022,60.260 210.655 M339.304 213.679 C 339.304 214.233,339.363 214.460,339.435 214.183 C 339.508 213.906,339.508 213.452,339.435 213.175 C 339.363 212.898,339.304 213.125,339.304 213.679 M60.542 213.967 C 60.542 214.521,60.601 214.748,60.674 214.471 C 60.746 214.194,60.746 213.740,60.674 213.463 C 60.601 213.186,60.542 213.413,60.542 213.967 M134.589 266.667 C 134.589 268.171,134.638 268.787,134.697 268.035 C 134.756 267.282,134.756 266.051,134.697 265.299 C 134.638 264.546,134.589 265.162,134.589 266.667 M323.830 265.227 C 323.584 265.702,323.448 266.091,323.527 266.091 C 323.607 266.091,323.872 265.702,324.118 265.227 C 324.364 264.752,324.500 264.363,324.421 264.363 C 324.342 264.363,324.076 264.752,323.830 265.227 M76.458 266.379 C 76.704 266.854,76.969 267.243,77.049 267.243 C 77.128 267.243,76.992 266.854,76.746 266.379 C 76.500 265.904,76.234 265.515,76.155 265.515 C 76.076 265.515,76.212 265.904,76.458 266.379 M112.743 287.113 C 114.003 288.380,115.098 289.417,115.177 289.417 C 115.256 289.417,114.291 288.380,113.031 287.113 C 111.771 285.846,110.676 284.809,110.597 284.809 C 110.517 284.809,111.483 285.846,112.743 287.113 M95.896 293.880 C 96.434 294.435,96.938 294.888,97.017 294.888 C 97.096 294.888,96.722 294.435,96.184 293.880 C 95.647 293.326,95.143 292.873,95.063 292.873 C 94.984 292.873,95.359 293.326,95.896 293.880 M303.370 294.384 L 302.232 295.608 303.456 294.470 C 304.594 293.411,304.812 293.161,304.594 293.161 C 304.547 293.161,303.996 293.711,303.370 294.384 M100.787 298.992 C 102.447 300.695,103.840 302.088,103.883 302.088 C 104.091 302.088,103.739 301.719,100.864 298.915 L 97.768 295.896 100.787 298.992 M298.914 299.136 L 296.472 301.656 298.992 299.214 C 300.378 297.872,301.512 296.738,301.512 296.695 C 301.512 296.485,301.181 296.796,298.914 299.136 M294.155 303.600 L 293.017 304.824 294.240 303.685 C 295.379 302.627,295.597 302.376,295.379 302.376 C 295.332 302.376,294.781 302.927,294.155 303.600 M105.976 303.960 C 106.513 304.514,107.017 304.968,107.096 304.968 C 107.176 304.968,106.801 304.514,106.263 303.960 C 105.726 303.405,105.222 302.952,105.143 302.952 C 105.063 302.952,105.438 303.405,105.976 303.960 M152.004 312.836 C 152.350 313.204,152.535 313.614,152.414 313.746 C 152.294 313.879,152.368 313.888,152.577 313.767 C 152.927 313.565,152.003 312.167,151.519 312.167 C 151.440 312.167,151.658 312.468,152.004 312.836 M132.757 322.951 C 132.757 323.031,133.146 323.296,133.621 323.542 C 134.096 323.788,134.485 323.924,134.485 323.845 C 134.485 323.766,134.096 323.500,133.621 323.254 C 133.146 323.008,132.757 322.872,132.757 322.951 M265.731 323.563 C 264.654 324.147,264.720 324.390,265.803 323.830 C 266.278 323.584,266.667 323.322,266.667 323.247 C 266.667 323.061,266.636 323.072,265.731 323.563 M185.529 339.435 C 185.806 339.508,186.260 339.508,186.537 339.435 C 186.814 339.363,186.587 339.304,186.033 339.304 C 185.479 339.304,185.252 339.363,185.529 339.435 M213.463 339.435 C 213.740 339.508,214.194 339.508,214.471 339.435 C 214.748 339.363,214.521 339.304,213.967 339.304 C 213.413 339.304,213.186 339.363,213.463 339.435 M188.844 339.729 C 189.202 339.797,189.721 339.795,189.996 339.723 C 190.271 339.651,189.978 339.594,189.345 339.597 C 188.711 339.601,188.486 339.660,188.844 339.729 M210.155 339.729 C 210.513 339.797,211.031 339.795,211.306 339.723 C 211.582 339.651,211.289 339.594,210.655 339.597 C 210.022 339.601,209.796 339.660,210.155 339.729 M193.442 340.021 C 193.953 340.084,194.860 340.085,195.458 340.023 C 196.055 339.961,195.637 339.909,194.528 339.907 C 193.420 339.906,192.931 339.957,193.442 340.021 M204.385 340.021 C 204.896 340.084,205.804 340.085,206.401 340.023 C 206.999 339.961,206.580 339.909,205.472 339.907 C 204.363 339.906,203.874 339.957,204.385 340.021 " stroke="none" fill="#2e9cb8" fill-rule="evenodd"></path></g></svg>