<?xml version="1.0" encoding="UTF-8" standalone="no"?>
<svg
   id="Layer_3"
   enable-background="new 0 0 64 64"
   height="200"
   viewBox="0 0 25 25"
   width="200"
   version="1.1"
   sodipodi:docname="Beerwithfoam.svg"
   inkscape:version="1.1.2 (0a00cf5339, 2022-02-04)"
   xmlns:inkscape="http://www.inkscape.org/namespaces/inkscape"
   xmlns:sodipodi="http://sodipodi.sourceforge.net/DTD/sodipodi-0.dtd"
   xmlns="http://www.w3.org/2000/svg"
   xmlns:svg="http://www.w3.org/2000/svg">
  <defs
     id="defs33" />
  <sodipodi:namedview
     id="namedview31"
     pagecolor="#ffffff"
     bordercolor="#666666"
     borderopacity="1.0"
     inkscape:pageshadow="2"
     inkscape:pageopacity="0.0"
     inkscape:pagecheckerboard="0"
     showgrid="false"
     width="200px"
     inkscape:zoom="0.81347656"
     inkscape:cx="-249.54622"
     inkscape:cy="414.88595"
     inkscape:window-width="1920"
     inkscape:window-height="1031"
     inkscape:window-x="0"
     inkscape:window-y="0"
     inkscape:window-maximized="1"
     inkscape:current-layer="Layer_3" />
  <g
     id="g28"
     transform="matrix(0.35380211,0,0,0.35380211,1.4444762,1.1833666)">
    <path
       d="M 43,13.462 V 56 H 13 v -42.536 10e-4 c 0.588,0.34 1.271,0.535 2,0.535 0.38,0 0.741,-0.07 1.089,-0.169 C 16.472,15.641 18.076,17 20,17 20.18,17 20.352,16.97 20.526,16.947 21.211,18.166 22.502,19 24,19 c 1.202,0 2.267,-0.541 3,-1.38 0.733,0.839 1.798,1.38 3,1.38 0.047,0 0.091,-0.012 0.137,-0.014 0.144,0.564 0.408,1.074 0.763,1.514 -0.554,0.687 -0.9,1.549 -0.9,2.5 0,2.209 1.791,4 4,4 2.209,0 4,-1.791 4,-4 0,-0.951 -0.346,-1.813 -0.901,-2.5 C 37.654,19.813 38,18.951 38,18 c 0,-0.498 -0.102,-0.969 -0.268,-1.409 1.097,-0.531 1.921,-1.536 2.18,-2.76 C 40.259,13.93 40.62,14 41,14 c 0.729,0 1.413,-0.195 2.001,-0.536 z"
       fill="#f2c351"
       id="path2" />
    <path
       d="M 43,62 H 13 c -1.657,0 -3,-1.343 -3,-3 0,-1.657 1.343,-3 3,-3 h 30 c 1.657,0 3,1.343 3,3 0,1.657 -1.343,3 -3,3 z"
       fill="#d5cec2"
       id="path4" />
    <path
       d="m 43,43 h 5 c 1.105,0 2,-0.895 2,-2 V 24 c 0,-1.105 -0.895,-2 -2,-2 h -5 v -4 h 5 c 3.314,0 6,2.686 6,6 v 17 c 0,3.314 -2.686,6 -6,6 h -5 z"
       fill="#d5cec2"
       id="path6" />
    <path
       d="M 41.707,6.071 C 41.104,5.513 40.33,5.149 39.471,5.047 38.785,3.831 37.496,3 36,3 35.308,3 34.667,3.192 34.1,3.501 33.367,2.593 32.258,2 31,2 30.268,2 29.59,2.211 29,2.555 28.41,2.211 27.732,2 27,2 26.049,2 25.187,2.346 24.5,2.901 23.813,2.346 22.951,2 22,2 20.502,2 19.211,2.834 18.526,4.053 18.352,4.03 18.18,4 18,4 16.504,4 15.215,4.831 14.529,6.047 12.545,6.283 11,7.952 11,10 c 0,2.209 1.791,4 4,4 0.38,0 0.741,-0.07 1.089,-0.169 C 16.472,15.641 18.076,17 20,17 20.18,17 20.352,16.97 20.526,16.947 21.211,18.166 22.502,19 24,19 c 1.202,0 2.267,-0.541 3,-1.38 0.733,0.839 1.798,1.38 3,1.38 0.047,0 0.091,-0.012 0.137,-0.014 0.144,0.564 0.408,1.074 0.763,1.514 -0.554,0.687 -0.9,1.549 -0.9,2.5 0,2.209 1.791,4 4,4 2.209,0 4,-1.791 4,-4 0,-0.951 -0.346,-1.813 -0.901,-2.5 C 37.654,19.813 38,18.951 38,18 c 0,-0.498 -0.102,-0.969 -0.268,-1.409 1.097,-0.531 1.921,-1.536 2.18,-2.76 C 40.259,13.93 40.62,14 41,14 c 2.209,0 4,-1.791 4,-4 0,-1.967 -1.422,-3.594 -3.293,-3.929 z"
       fill="#e7e4dd"
       id="path8" />
    <g
       fill="#f7d881"
       id="g16">
      <path
         d="m 19,52 c -1.105,0 -2,-0.895 -2,-2 V 32 c 0,-1.105 0.895,-2 2,-2 1.105,0 2,0.895 2,2 v 18 c 0,1.105 -0.895,2 -2,2 z"
         id="path10" />
      <path
         d="m 28,52 c -1.105,0 -2,-0.895 -2,-2 V 32 c 0,-1.105 0.895,-2 2,-2 1.105,0 2,0.895 2,2 v 18 c 0,1.105 -0.895,2 -2,2 z"
         id="path12" />
      <path
         d="m 37,52 c -1.105,0 -2,-0.895 -2,-2 V 32 c 0,-1.105 0.895,-2 2,-2 1.105,0 2,0.895 2,2 v 18 c 0,1.105 -0.895,2 -2,2 z"
         id="path14" />
    </g>
    <g
       id="g26">
      <path
         d="m 48,17 h -4 v -3.025 c 1.207,-0.914 2,-2.347 2,-3.974 C 46,7.678 44.405,5.681 42.167,5.147 41.561,4.649 40.849,4.306 40.077,4.137 38.821,2.346 36.43,1.535 34.337,2.299 32.913,1.003 30.79,0.63 29,1.432 27.542,0.777 25.857,0.885 24.5,1.686 23.737,1.235 22.885,1 22,1 20.431,1 18.959,1.752 18.021,3 18.014,3 18.007,3 18,3 16.375,3 14.854,3.808 13.922,5.136 11.654,5.634 10,7.645 10,10 c 0,1.627 0.793,3.061 2,3.974 V 55.141 C 10.279,55.588 9,57.14 9,59 c 0,2.204 1.794,3.998 4,3.998 h 30 c 2.205,0 3.999,-1.794 3.999,-3.999 0,-1.859 -1.279,-3.411 -3,-3.858 v -7.143 h 4 c 3.859,0 7,-3.14 7,-7 V 24 C 55,20.14 51.859,17 48,17 Z m -4,6 h 4 c 0.552,0 1,0.448 1,1 v 16.999 c 0,0.552 -0.448,1 -1,1 H 44 Z M 14.646,7.04 c 0.316,-0.038 0.596,-0.224 0.753,-0.501 0.585,-1.038 1.766,-1.662 2.891,-1.509 0.002,0 0.102,0.014 0.104,0.015 0.409,0.056 0.802,-0.146 1.003,-0.501 C 19.932,3.591 20.929,3 22,3 c 0.675,0 1.322,0.234 1.872,0.678 0.366,0.296 0.89,0.296 1.257,0 0.968,-0.783 2.265,-0.901 3.369,-0.259 0.311,0.181 0.696,0.182 1.006,0 1.309,-0.76 2.906,-0.42 3.818,0.71 0.303,0.376 0.833,0.484 1.256,0.25 1.486,-0.807 3.245,-0.217 4.022,1.16 0.157,0.277 0.436,0.464 0.753,0.501 0.636,0.076 1.216,0.34 1.675,0.765 0.14,0.13 0.314,0.216 0.503,0.25 C 42.961,7.311 44,8.55 44,10 c 0,1.654 -1.346,3 -3,3 -0.241,0 -0.5,-0.042 -0.815,-0.131 -0.265,-0.075 -0.553,-0.038 -0.79,0.105 -0.237,0.143 -0.405,0.378 -0.462,0.649 -0.188,0.89 -0.8,1.662 -1.636,2.067 -0.466,0.226 -0.683,0.769 -0.5,1.253 C 36.931,17.302 37,17.658 37,18 c 0,0.675 -0.234,1.322 -0.679,1.872 -0.296,0.367 -0.296,0.89 0,1.257 C 36.765,21.678 37,22.325 37,23 c 0,1.654 -1.346,3 -3,3 -1.654,0 -3,-1.346 -3,-3 0,-0.675 0.235,-1.322 0.679,-1.871 0.296,-0.367 0.296,-0.89 0,-1.257 -0.275,-0.341 -0.468,-0.722 -0.573,-1.133 -0.113,-0.444 -0.514,-0.753 -0.969,-0.753 -0.014,0 -0.028,0 -0.042,10e-4 C 30.038,17.989 29.983,17.995 30,18 29.136,18 28.338,17.632 27.753,16.962 27.563,16.745 27.289,16.62 27,16.62 c -0.288,0 -0.562,0.125 -0.752,0.342 C 25.662,17.631 24.864,18 24,18 c -1.071,0 -2.068,-0.591 -2.603,-1.543 -0.2,-0.356 -0.59,-0.549 -1.003,-0.501 l -0.109,0.015 C 20.191,15.983 20.097,16 20,16 18.592,16 17.358,15.001 17.067,13.624 17.01,13.353 16.842,13.118 16.605,12.975 16.369,12.832 16.084,12.795 15.815,12.87 15.5,12.958 15.241,13 15,13 13.346,13 12,11.654 12,10 12,8.492 13.138,7.219 14.646,7.04 Z M 15,15 c 0.136,0 0.272,-0.006 0.411,-0.02 C 16.189,16.775 17.988,18 20,18 h 0.021 c 0.938,1.248 2.41,2 3.979,2 1.086,0 2.138,-0.363 3,-1.018 0.707,0.537 1.541,0.878 2.417,0.983 0.079,0.183 0.169,0.36 0.27,0.533 C 29.235,21.261 29,22.113 29,23 c 0,2.757 2.243,5 5,5 2.757,0 5,-2.243 5,-5 0,-0.885 -0.235,-1.737 -0.686,-2.5 C 38.764,19.736 39,18.885 39,18 c 0,-0.314 -0.032,-0.63 -0.096,-0.947 0.738,-0.529 1.322,-1.25 1.683,-2.073 0.138,0.013 0.276,0.02 0.413,0.02 0.342,0 0.677,-0.035 1,-0.101 V 55 H 14 V 14.898 C 14.323,14.964 14.658,15 15,15 Z m 29.999,44 c 0,1.102 -0.897,1.998 -1.999,1.998 H 13 c -1.103,0 -2,-0.896 -2,-1.999 0,-1.104 0.897,-2 2,-2 h 30 c 1.102,0 1.999,0.897 1.999,2.001 z M 53,40.998 c 0,2.758 -2.243,5 -5,5 h -4 v -2 h 4 c 1.654,0 3,-1.346 3,-3 V 24 c 0,-1.654 -1.346,-3 -3,-3 h -4 v -2 h 4 c 2.757,0 5,2.243 5,5 z"
         id="path18" />
      <path
         d="m 19,52.998 c 1.654,0 3,-1.345 3,-2.998 V 32 c 0,-1.654 -1.346,-3 -3,-3 -1.655,0 -3,1.345 -3,3 v 18 c 0,1.653 1.346,2.998 3,2.998 z M 18,32 c 0,-0.551 0.448,-1 1,-1 0.551,0 1,0.448 1,1 v 18 c 0,0.551 -0.448,0.998 -1,0.998 H 18.999 C 18.448,50.998 18,50.551 18,50 Z"
         id="path20" />
      <path
         d="m 28,52.998 c 1.654,0 3,-1.345 3,-2.998 V 32 c 0,-1.654 -1.346,-3 -3,-3 -1.655,0 -3,1.345 -3,3 v 18 c 0,1.653 1.346,2.998 3,2.998 z M 27,32 c 0,-0.551 0.448,-1 1,-1 0.551,0 1,0.448 1,1 v 18 c 0,0.551 -0.448,0.998 -1,0.998 H 27.999 C 27.448,50.998 27,50.551 27,50 Z"
         id="path22" />
      <path
         d="m 37,52.998 c 1.654,0 3,-1.345 3,-2.998 V 32 c 0,-1.654 -1.346,-3 -3,-3 -1.655,0 -3,1.345 -3,3 v 18 c 0,1.653 1.346,2.998 3,2.998 z M 36,32 c 0,-0.551 0.448,-1 1,-1 0.551,0 1,0.448 1,1 v 18 c 0,0.551 -0.448,0.998 -1,0.998 H 36.999 C 36.448,50.998 36,50.551 36,50 Z"
         id="path24" />
    </g>
  </g>
</svg>
