<svg xmlns="http://www.w3.org/2000/svg" width="200" height="200" viewBox="0 0 200 200"><path d="M100,7h0a93,93,0,0,1,93,93h0a93,93,0,0,1-93,93h0A93,93,0,0,1,7,100H7A93,93,0,0,1,100,7Z" style="fill:none"/><circle cx="100.7" cy="98.4" r="96" style="fill:#fff"/><path d="M35.3,81.5l.9-.8c1.7.1,3.2.1,4.3-1.6s2.2-2.3,3.2-3.6c3.8-4.3,7.1-3.7,9.2,1.6a5.8,5.8,0,0,1,.5,2.6,5.7,5.7,0,0,1-.3,1.8,10.4,10.4,0,0,1-1.9,3.2c-1.4,1.7.2,4.2-1.7,5.7.4.3,1-.2,1.4.2a4.8,4.8,0,0,1,1,3.5,6.1,6.1,0,0,1-1.5,2.7c-2.1,2-1.3,4.3-.8,6.7A18.7,18.7,0,0,1,50,106c.1,2.1-.4,4.2.4,6.3a24,24,0,0,1,1.1,2.3,15.8,15.8,0,0,1,.9,3.1c.2,1.2-.1,2.5,0,3.7a8.4,8.4,0,0,0,.5,1.7c.1-.6-.5-1.1-.4-1.8a3.3,3.3,0,0,1,.4-1.7,1.3,1.3,0,0,1,1-.6c.7.9,1.3.7,1.9-.2s1.8-2.1,3.2-2.5a2,2,0,0,1,1.1.3,4.4,4.4,0,0,1,1.4,3.4,18.5,18.5,0,0,0,.8,4.7,8.4,8.4,0,0,0,1.4,2.4l1.7,2.1a15.6,15.6,0,0,0,2.3,3.4c.8,1.2,2,2.3.9,4s-1.9-.2-3.1-.4c1.7,1,2,2.6,2.9,3.9s3.2,1.5,2.7,3.1-2.8,1.1-4.3,1.6-5.8-.6-5.1,4.3c.3,2.2-3.7,1.3-5,3a4.4,4.4,0,0,1-3.2.2l-3.1-.9a17.7,17.7,0,0,0-7.6-.1,3.5,3.5,0,0,1-2.5-.6,26.6,26.6,0,0,0-6-4.1c-12.7-14.8-17.7-31.2-10.4-50.2C26.8,90.8,32.4,87.2,35.3,81.5Z" style="fill:#f28d1c"/><path d="M120.6,173.8c1,.9,1.8,2,3.3,2.1s3.2,1,3.7,2.9l4.2,4c-12.2,6.4-24.6,10-38.1,9.9a12.4,12.4,0,0,0-3.2-2.3c-2.5-1.9-5.4-3-7.9-4.7s-3-1-2.1-3.1a6.3,6.3,0,0,1,3.9-1.7H98c7-.8,14.1-1.5,19.6-6.9a2,2,0,0,1,.9-.9C119.4,172.5,120,173.2,120.6,173.8Z" style="fill:#242927"/><path d="M22.8,88.6l3.8-.8c.7-.3,1.3-.4,1.8.3s-.6,2.5-1.8,3.4c-3.6,2.9-4.8,7-5.6,11.3-2.2,12.3-1.2,24.2,5.9,35a2.4,2.4,0,0,1,1.2,2c-1,1.8-1,1.8-3,2.1,2.9,1,6.1,1.2,7,4.6a1.8,1.8,0,0,0,1,1.9,1.3,1.3,0,0,1,.6,1.5c-1.3,1.2-3.3,1.5-4,3.3s-1.8,1.9-3.3,1.5a15.2,15.2,0,0,1-5.7-9.3c1.3-2.1,1-4.4,1-6.7a9.7,9.7,0,0,1-.9,6,1.6,1.6,0,0,1-1.3-.4c-5.2-8-7-17-7.6-26.2-.5-7.4-.7-14.9,1.9-22.1l4.7-5C19.7,89.7,20.7,88.1,22.8,88.6Z" style="fill:#252827"/><path d="M56.9,184.7c-1.6-.2-3.4-.4-3.7-2.6a1.2,1.2,0,0,1-.2-1c.1-.2.6-.2.4-.6h-.7a52.9,52.9,0,0,1-5.4-2.5c-.9-.8-.6-2.2-1.2-3.2-1-3.7-1.9-3.9-5-1.5a1.8,1.8,0,0,1-1.7.6c-1.3.2-1.8-.7-2.2-1.7a1.9,1.9,0,0,1-.4-1.8,3.3,3.3,0,0,1,1.1-1.5,8.1,8.1,0,0,1,2.9-1.2c1.7-.3,3.7.4,5.1-1.1a1.7,1.7,0,0,1,1.2-.1c1.1.2,2.7,1.9,2.4-1s3.5-1.9,4.9-3.4c-.9-1.3-1.9-.3-2.7-.6a3.1,3.1,0,0,1-1.6-2.5c-.2-.8.3-1.9-.8-2.4l-2.5-.9a6.6,6.6,0,0,0-2.8-.5H42.8c-1.5-.4-3.1-.5-4-2.1a1.7,1.7,0,0,1,1.4-1.4c2.3,0,4.5-.7,6.7-.1s7.4.2,10.9,1.5,5.4.7,8.1,1a6.4,6.4,0,0,1,2,.3,3.9,3.9,0,0,1,1,.8c.9,1.7.2,3.5.2,5.3a6.5,6.5,0,0,0,.1,3.9,5.1,5.1,0,0,1-.3,1.7,5.4,5.4,0,0,1-2.3,1.9c-1.8-.5-3.7-1.1-2.9,2.1s-.7,3.2-1.5,4.8a18.9,18.9,0,0,0-.9,2.1,33.7,33.7,0,0,1-1.9,3.8C58.7,182.1,58.7,184,56.9,184.7Z" style="fill:#8eabae"/><path d="M117.8,167a1.4,1.4,0,0,0,.2.7c.5.5,1.2.8,1.4,1.4s.5,2.7-.5,3.9l-.3.3c-1.5,2.8-4.1,4.2-7,5s-8.8,2.8-13.3,3.3h-12a1,1,0,0,1-1-.8c1.2-2.4,4.2-2.1,5.8-3.9,0-1.5-1.3-1.4-2.2-1.7s-3.4-.1-3.5-2,2.1-2.2,3.6-2.8c4.8-.1,9.6-1,14.4-.8,3,1.6-.1,1.9-.6,2.8,6.8,1.6,6.8,1.6,8.6-3A8.3,8.3,0,0,0,115,165C116.8,164.5,117.1,166,117.8,167Z" style="fill:#242927"/><path d="M36.2,171.4C19,156.2,10.1,136.9,8.5,114.2c-.2-4.3,0-8.7.2-13,.1-2,.4-4.2,3.3-4.4s1.5,2,1.3,3.4c-2.9,15.4-1,30.2,6.2,44.1,3.4,7,8.1,13.1,13.1,18.9C34.6,165.4,38.1,167.4,36.2,171.4Z" style="fill:#272b2a"/><path d="M52.5,80a8.9,8.9,0,0,0-1.2-4.2c-1.7-2.9-3.8-3.1-6-.7s-3.4,3.3-4.1,4.8c-1.5,4.1-3,2.5-5,.8a2.2,2.2,0,0,0,.1-.8c1.1-3.6,4.7-4.9,7.2-7,5.9-4.8,12.1-9.6,19.8-11.7a2.6,2.6,0,0,1,2.2,1.3c.5,1.7-.7,2.8-1.4,4.2a8.9,8.9,0,0,1-2.3,2.8c-1.3.9-2.6,1.7-3.1,3.3s-.7,1.7-1.2,2.6a18.1,18.1,0,0,1-1.8,2.1l-1.1,1.2C54,79.3,53.6,80.3,52.5,80Z" style="fill:#f18e1a"/><path d="M91.7,192.6c-6.1.2-12.2.4-17.8-2.6-1.4-.7-2.9-1.1-3.7-2.8a6.3,6.3,0,0,0-4.7-3.5c-1.5-.7-2.8-1.7-2.8-3.6a2.4,2.4,0,0,1,2.1-1.6,12.9,12.9,0,0,1,3.4-.1l1.3.3c7.1,2.7,13.2,7,19.8,10.6C90,190.5,92.1,190.6,91.7,192.6Z" style="fill:#ee8d1c"/><path d="M144.8,139.9l-.9.9c-2.1,2.1-4.1,4.4-6.8,5.7a13.4,13.4,0,0,0-3.9,1.1H132a2.4,2.4,0,0,1-1.8-1.6c0-1.3,0-2.6-1.8-2.8a8.3,8.3,0,0,0-5.6,0,10.9,10.9,0,0,0-3.8,4.2c-.7,1.1-.5,2.3-.9,3.4a5.7,5.7,0,0,1-2.1,1.3,6.1,6.1,0,0,1-1.9,0,7.1,7.1,0,0,1-3.4-1.3c-.2-2.4,3-3.1,2.8-5.5a2.2,2.2,0,0,1,.5-1.1c1.5-1.4,2.7-3.1,4.7-4a4.7,4.7,0,0,1,1.7-.4l3-.6a44.8,44.8,0,0,1,5.2-1.6h1.2c1.1.4,2.4,1.4,3.3.3s3.7-1,5.6-.2,2.7-.4,3.8-1.5,1.4-1.7,2.7-.8a3.6,3.6,0,0,1,.3,3.2A2.1,2.1,0,0,1,144.8,139.9Z" style="fill:#c7bb9c"/><path d="M81.4,54h1.1a3.6,3.6,0,0,1,3.3.9c0,3.8-.5,7.4-4.2,9.6-1.4.5-2.7-.4-3.8-.3s-.4,1-.4.4.2-.2.4-.2a1.5,1.5,0,0,1,2,1.1,1.9,1.9,0,0,1-.4,1.2,2.3,2.3,0,0,1-1.8.6c-5.9-2.4-6.4-3.1-5-7.3a8.6,8.6,0,0,1,1-1.6c.5-.7,1.4-.9,2.1-1.4S79.8,55.5,81.4,54Z" style="fill:#f08c18"/><path d="M19.2,145.3a65.5,65.5,0,0,1-8-33.2,88,88,0,0,1,1.3-11.5,5.5,5.5,0,0,0-.5-3.8,2.1,2.1,0,0,1,1.8-.8c.7.2,1.5.2,1.1,1.3-4.2,15.6-2.2,30.5,4.6,45a16.6,16.6,0,0,1,.6,2.1C20.5,145.4,20,145.5,19.2,145.3Z" style="fill:#121615"/><path d="M19.2,145.3l.9-.9H21q.5.3.3.6l-.3.3,5.4,9c4.4,3,7.1,7.6,11.2,10.9,1.2,1.9.3,3.7-.3,5.5s-.1,1.1-.1,1.6l-1-.9c.3-3.4-2.4-5.3-4.3-7.4A77.2,77.2,0,0,1,19.2,145.3Z" style="fill:#121717"/><path d="M156.6,112.2l-1,1.8c-.4.3-.6.9-1,1.3l-2.6,2.1a9.1,9.1,0,0,1-3.8,1.9,5,5,0,0,1-3.7-1.2c-1.2-1.5-1.1-2.7.7-3.7a3.1,3.1,0,0,0,2.6-2.5,2.4,2.4,0,0,1,1.3-1.1c.9-.1,2,.5,2.3-.9a5.4,5.4,0,0,1,.5-1.1,3.4,3.4,0,0,1,3.1-1.5C157.2,108.4,155.7,110.7,156.6,112.2Z" style="fill:#c8b8a3"/><path d="M65.9,183c4.9-.2,5,5.1,8,7-4.2.8-7.8-1.2-11.6-2.7a1.6,1.6,0,0,1-.5-1.6,7,7,0,0,1,1.1-2.7C63.9,181.9,64.9,183.9,65.9,183Z" style="fill:#eb8d23"/><path d="M117.9,150.7a3,3,0,0,1,0-3.6c4.2,0,8.2-2.7,12.6-.9l2.2,1.2c-.4,2.9-3.4,2.2-4.9,3.5l-1.9-.2C123.3,153.5,120.6,152.1,117.9,150.7Z" style="fill:#c7ba9a"/><path d="M26.6,90.7,28.4,88c.7-.9,1.8-1.1,2.5-1.9a14.8,14.8,0,0,1,4.4-4.6c.7,3.1-2.1,4.4-3.5,6.3s-4.7,5.5-7.1,8.3l-.4-.5C23.8,93.4,25.4,92.1,26.6,90.7Z" style="fill:#ee8d1b"/><path d="M47.5,177.5c2.3.2,4,1.6,5.7,3s.5.1.4.3-.1.3-.2.3a3,3,0,0,1-.2,1,17.1,17.1,0,0,1-10.7-6.4,1.7,1.7,0,0,1,1-2,2.6,2.6,0,0,1,2.2.9C46.7,175.3,46.4,176.8,47.5,177.5Z" style="fill:#7b522c"/><path d="M156.6,112.2c-3.6-.3.5-3.8-2-4.5-.5-1.1-.1-2.1.1-3.1a2.6,2.6,0,0,1,1.6-1.9,2.8,2.8,0,0,1,1.3.3,13.6,13.6,0,0,1,2.1,3.2c.2,1.5-.8,2.5-1.4,3.6Z" style="fill:#c9c0a6"/><path d="M159.4,106c-2.1-.2-2-1.8-2.3-3.2a1.7,1.7,0,0,1,.2-1.2,43.4,43.4,0,0,0,2-5,2,2,0,0,1,.9-.9c3.3-.2,2,2.3,2.2,3.9s-1.8,3.6-1.3,5.6l-.3.8A1,1,0,0,1,159.4,106Z" style="fill:#c1bca4"/><path d="M117.9,150.7c2.7-.4,5.4,1,8,0-.3,3.2-3.6,2.5-5.3,3.9a1.2,1.2,0,0,1-1-.2c1-1.5-.4-1.2-1.1-1.4a4.2,4.2,0,0,1-2.4-1.4Z" style="fill:#72694f"/><path d="M81.4,54c-.7,2.9-3.7,2.4-5.6,3.7a2,2,0,0,1-1.3-1.2,2,2,0,0,1,.4-.8Z" style="fill:#5e402f"/><path d="M82.9,53l4.7-.8c.7,1.6-.3,2.1-1.5,2.5h-.6a4.1,4.1,0,0,1-3-.8A3.6,3.6,0,0,0,82.9,53Z" style="fill:#a07139"/><path d="M91.7,192.6l-2.5-2.5a1.3,1.3,0,0,1,1.8.1c1.9-.2,2.9.5,2.7,2.5Z" style="fill:#372616"/><path d="M43.5,174.3l-1,1.4c-1.5.1-2.1-1-3.1-1.7l1.4-1.3C42.1,172.5,43.8,171.8,43.5,174.3Z" style="fill:#7e5d31"/><path d="M161.1,105.2c-1.5-2.1-.2-3.8.7-5.6a1.5,1.5,0,0,1,1.3,1.1c.1.6.1,1.2-.6,1.5Z" style="fill:#8c8979"/><path d="M62.2,185.8c0,.5.1,1,.1,1.5a8.6,8.6,0,0,1-4.5-2.4,1.8,1.8,0,0,1,.7-.8,5.9,5.9,0,0,1,2.2-.5C61.9,183.8,62.2,184.7,62.2,185.8Z" style="fill:#a85c27"/><path d="M159.4,106h1.4c-.3,1.7-.4,3.4-2.5,3.8C157.9,108.3,159.1,107.3,159.4,106Z" style="fill:#867f71"/><path d="M58.5,184.7l-.7.2-.9-.2c.6-1.5,1.2-3,1.7-4.5C60.1,181.8,59.9,183.3,58.5,184.7Z" style="fill:#9aa095"/><path d="M30.9,86.1c-.3,1.3-1,2.1-2.5,1.9l-1.8-.2Z" style="fill:#7c4a12"/><path d="M56.9,151.4c-.3-.8-.5-1.6.6-1.6,4.7.2,5.4-1.3,1.7-4.3,1.9-1.8,4-.8,5.8-1.4s3.5-.6,5.5-1.1c-4,.1-2.6-5.3-6.2-5.7a5.5,5.5,0,0,1,0-1.3c.2-.5.7-1.1,1.3-.9l2.8,1.3a4,4,0,0,1,3.1,1.3l.6,1,.6,1c2.6,2.6,5.8,4.3,8.7,6.4a19.3,19.3,0,0,1,2.8,2.2,5.2,5.2,0,0,0,2.5,1.1,7.8,7.8,0,0,1,2,1.1,5.9,5.9,0,0,0,4.2,1.5,3,3,0,0,1,1.1.4,12.8,12.8,0,0,0,3.2,2.4,3.1,3.1,0,0,1,.5,1,5.7,5.7,0,0,1-.3,1.8,4.9,4.9,0,0,1-.8,2.3,5.5,5.5,0,0,1-2.2,1l-2.4.2a17.6,17.6,0,0,1-3.3-.7c-.6-.2-1,.2-.4.2s.2.2.2.3c1.5.9,3.1.4,4.6.2a28.7,28.7,0,0,0,3.1-.5l3.1-.8c1.7-.4,3.5-.3,5.2-.9s4.9-1.5,7.4-1.9,3,.4,2.9,2.4-.4,4.8-.8,7.1a4.7,4.7,0,0,1-2.8,2c-1.5.4-3.1.2-4.6.7a3.1,3.1,0,0,1-1.3.3H103c-7.6.5-15.3.5-23,.3-2.9-.6-6.1-.6-8.7-2.4a2.8,2.8,0,0,1-.7-1.9c.1-3.2,1.7-6.6-1.2-9.5l-.9-.8h.1a3.6,3.6,0,0,0-3.4-1.5,5.2,5.2,0,0,1-2.5-.1C61,152.2,58.3,153.5,56.9,151.4Z" style="fill:#f28d19"/><path d="M73.9,60.1c-3.3,4.7,2.1,4.4,3.6,6.3s0,1.6-.4,2.2a8.3,8.3,0,0,1-2.3,1.9,8.8,8.8,0,0,0-4.7,4,36.5,36.5,0,0,0-2.4,3.1l-.7.8c-.7.6-1.5,1-2.1,1.6a3.8,3.8,0,0,0-.9,1.3l-.6.9a8.9,8.9,0,0,0-1.6,2.2c-.7,1.6-.5,3.5-.8,5.2a9.2,9.2,0,0,1-.9,2.3c-1.7,2.5-1.4,5.4-1.7,8.2a44.4,44.4,0,0,0-.1,10.3,6.2,6.2,0,0,1,.1,1.3c.3.8-2,2.3.7,2.5a1.8,1.8,0,0,1-.3,2.2c-.7,1.2-.9,2.8-2.8,2.9-.6-1.8-1.2.1-1.8,0h-.9c-1.1-1.3-.3-2.8-.6-4.2s.3-3.1-1.8-3.5a2.4,2.4,0,0,1-.9-.8,7.8,7.8,0,0,1,.1-4.3c1.4-1.9,2.5,1.1,3.9.1s-.8-1-1-1.6-.5-2.5-2-3a5.3,5.3,0,0,1-.5-2.5c-.2-1.8.9-3.4,1.3-5s.2-2.5.6-3.7,1-3.4.2-5.1-.4-2.7.3-4,1.5-2.2,1.3-3.6l.9-.9c1.6-.7,1.6,1.6,2.8,1.6.9-1.6-1.7-2-1-3.4l.9-2.7a11.3,11.3,0,0,1,3.6-3.6l1.8-2.8c1.2-.7,2.1-2,3.7-2.1a19.2,19.2,0,0,1,3.7,1.5c-.6-1.1-1.9-1.9-1.6-3.4S71.3,58.7,73.9,60.1Z" style="fill:#f18e18"/><path d="M71.2,138.2l-2.8-1.8c.4-1.8-1.2-2.4-1.8-3.6a13,13,0,0,1-1.5-4.3,3.1,3.1,0,0,1,0-1.9,3.2,3.2,0,0,1,1.5-2.1,1.1,1.1,0,0,1,1.1.3c.5.7.8,1.5,1.3,2.1a12.5,12.5,0,0,0-1.6-2.4c-.7-2.5,1.3-3.4,2.6-4.7a21.6,21.6,0,0,1,3.9-2.2,10.7,10.7,0,0,1,3.1,0c3.1-.3.3-2.8,1.3-3.8s3.4.4,5.1.3l1.1.3a2.4,2.4,0,0,1,.6.9c-.6,1.6,1.1.6,1.4,1.2,2.6,2.4,1.3,4.5-.9,5.8s-3.6,3.2-2,6.1a4.7,4.7,0,0,1-.2,4.3A8.6,8.6,0,0,1,82,134C78.5,139.2,77.3,139.6,71.2,138.2Z" style="fill:#caba9b"/><path d="M67.6,124.7h-.7c-1.4.6-2.8,2.3-4.5.5s-.6-3.6-1.8-5l-1.1-3.6c.3-1.5-.2-3.1.6-4.5s3-3.3,5.5-3.5,2.7,1.2,4,2,4.2,3.2,5.5,5.6a1.8,1.8,0,0,1-.9,1.4c-1.6.5-2.6,1.7-3.8,2.6s-3,2.2-2.8,4.4Z" style="fill:#985717"/><path d="M27.4,139.6c0-.7-.1-1.4-.8-1.7-7.8-11.9-7.9-24.8-5.1-38,.3-1.6.6-3.6,2.9-4.1l.3.3c-1.3,5.7-2.9,11.3-2.9,17.4a42.6,42.6,0,0,0,10.3,27.7c1.3,1.5,1.1,4,3.3,5,.2.9-.3,1.2-1,1.3C31.2,145.7,29.2,142.8,27.4,139.6Z" style="fill:#ee8d1b"/><path d="M54.8,127.7c1-.1,1.7.4,1.6,1.2a4.4,4.4,0,0,1-3.3,3.7,1,1,0,0,1-1.4-1.1C51.9,129.5,53.4,128.6,54.8,127.7Z" style="fill:#f39216"/><path d="M53.2,90.6c.4,1.4-.4,2.5-1,3.6h-.6a5,5,0,0,1-.9-3.6c-1-1.5-.3-3.2-.5-4.8s1.4-.7,2.2-.2S52.6,89,53.2,90.6Z" style="fill:#944818"/><path d="M44.4,77.9c3.1.7,4.6,1.8,5,4,.1.3-.5,1-.7.9C46.4,82.4,45.6,80.5,44.4,77.9Z" style="fill:#f18e1a"/><path d="M51.5,111.1c.4-1.4,1.2-2,1.7-.2a16,16,0,0,1,.1,8.4v2a.9.9,0,0,1-1.2-.4,18.2,18.2,0,0,1-.1-3.3,23.8,23.8,0,0,1-.5-2.6A12.7,12.7,0,0,1,51.5,111.1Z" style="fill:#f08d18"/><path d="M34.6,147.1l.8-.9c2.4.4,3.8,2.2,5.3,3.9a2.3,2.3,0,0,1-2.8,1C36.5,150,34.1,149.7,34.6,147.1Z" style="fill:#eb8d13"/><path d="M50.8,105.9l-.2,5.3c.5,1.1-.1,1.6-1,1.9-1.6-2.2-.4-4.7-.7-7.1a1.1,1.1,0,0,1,.9-.6h.5Z" style="fill:#af5318"/><path d="M50.8,85.4c0,1.7-.1,3.5-.1,5.2L49,93c1.5-2.7-1-6.2,1.6-8.6a.9.9,0,0,1,.3.6C50.9,85.2,50.9,85.4,50.8,85.4Z" style="fill:#f18e1a"/><path d="M51.6,94.2h.6c-.2,1.8-.5,3.6-.8,5.3s-1.1.1-1.7-.2a3.9,3.9,0,0,1-.6-1.1,2,2,0,0,1,.8-2.1Z" style="fill:#9a4416"/><path d="M56.9,151.4c1.9,1,4.8-1.1,6.1,1.8a1.1,1.1,0,0,1-1,.5,32.7,32.7,0,0,1-4.4-.4,11.7,11.7,0,0,0-3.7-.4c-.5-.1-.8-.4-.8-.8a1.4,1.4,0,0,1,.2-.6Z" style="fill:#694a19"/><path d="M52.5,121l.8.3c-.4,1.7,2.5,2.7,1.1,5-1.7-1.1-2.1-2.8-2.7-4.4A1.8,1.8,0,0,1,52.5,121Z" style="fill:#ad5317"/><path d="M60.6,120.3c2.5.7,2.2,2.5,1.7,4.4s-.1.9-.7.8C61.1,123.8,60.1,122.2,60.6,120.3Z" style="fill:#7f3b13"/><path d="M50.8,85.4a3,3,0,0,0-.2-1l1.9-2.7c.2-.3.4-.3.7,0s-.8,2.3.1,3.5,0,1.1-.8,1Z" style="fill:#a9561b"/><path d="M42.5,150.5c2.8-1,5.5-1.2,8.1.1-.5,1-1.5,1.2-2.5,1.5H46.9l-1.1-.3C44.7,151.4,43.2,151.9,42.5,150.5Z" style="fill:#ee9a30"/><path d="M49.6,113.1c.3-.6.7-1.2,1-1.9h.9c1.6.9.8,2.4.8,3.7a.9.9,0,0,1-1.5,0Z" style="fill:#572510"/><path d="M49.9,96.1l-.2,2.7c.2,1.5.5,3.1-.9,4.4C47.6,100.6,46.9,98,49.9,96.1Z" style="fill:#f29014"/><path d="M42.5,150.5c1.3.3,2.9-.5,3.8,1.1-1.9.9-3.9.2-5.8.4a8.1,8.1,0,0,1-2.2-.1.8.8,0,0,1-.2-1.2l2.6-.6A1.3,1.3,0,0,0,42.5,150.5Z" style="fill:#54381a"/><path d="M61.6,125.5l.7-.8c1.5,1.3,3.1.1,4.6.1-.4.5-.7,1.1-1.1,1.7s-1.5,1.3-2.6.9S61.5,126.7,61.6,125.5Z" style="fill:#915318"/><path d="M53.2,81.7h-.7V80l1.7-1.9C55.8,79.8,54.7,80.8,53.2,81.7Z" style="fill:#b1571a"/><path d="M60.6,112.2c-.4,1.5.6,3.3-1.1,4.5l-.7-.3-.3-2.4a1.7,1.7,0,0,1-.1-1.2C59,112.2,59.7,111.7,60.6,112.2Z" style="fill:#773f14"/><path d="M48.8,103.2c.3-1.5-.5-3.2.9-4.4h.2a6.9,6.9,0,0,1,.7,2.9c.1,1.5.4,3-.8,4.3h-.9C48.9,105.1,48.8,104.1,48.8,103.2Z" style="fill:#e99023"/><path d="M54.2,119.3l1.4-1.9.4,1.9c-.3.4-.6,1.1-1.1,1.2S54.3,119.8,54.2,119.3Z" style="fill:#f08d18"/><path d="M63.2,127.4l2.6-.9c-.1.6-.1,1.2-.2,1.9s-.1.9-.7,1S63.2,128.6,63.2,127.4Z" style="fill:#543519"/><path d="M48,151.5c.6-1.2,1.7-.6,2.6-.9l2.7.9v.3C51.5,152.6,49.7,153,48,151.5Z" style="fill:#976416"/><path d="M64.9,129.4l.7-1c.3,1.4.7,2.9,1,4.4C65.4,131.9,64.4,131,64.9,129.4Z" style="fill:#6f3a17"/><path d="M46.6,146.6c1.5-.4,2.4-.7,3.2.1A2.9,2.9,0,0,1,46.6,146.6Z" style="fill:#f39210"/><path d="M50.8,114.8h1.5v2.7c-.3.4-.5.4-.8,0Z" style="fill:#743212"/><path d="M51.5,117.5h.8c.1,1.2.1,2.4.2,3.5l-.8.9C51.6,120.5,51.6,119,51.5,117.5Z" style="fill:#923c15"/><path d="M99.1,181.2c2.3-1.4,5-1.3,7.5-2.1,4.3-1.3,8.7-2.5,12-5.8.1,2.1-1.2,3.3-2.9,4.1a53.5,53.5,0,0,1-16.6,4.7c-.3-.2-.5-.4-.4-.6Z" style="fill:#141917"/><path d="M91,190.2H89.2L69.1,179.6c2.6-2.3,4.6.2,6.9.6a15,15,0,0,1,3.9,2.2l.3.6C83.4,186,88.4,186.3,91,190.2Z" style="fill:#302012"/><path d="M76.6,181.2c-2.7.4-4.7-2.4-7.5-1.6h-.3l-.2-.2a2.4,2.4,0,0,1-.7-1.8,2.5,2.5,0,0,1,1.6-2c2.3,1.5,4.7,3,7.7,3l1.3.3c2.3.7,5-.5,7.1,1.4v.9c-.4.6-1.3.3-1.8.9l-3.6.9h0C79.4,181.7,77.8,181.9,76.6,181.2Z" style="fill:#19151c"/><path d="M83.8,182.1a1.9,1.9,0,0,1,1.8-.9H99.1v.9Z" style="fill:#111413"/><path d="M24.4,95.8c-5.6,12.8-5,25.4.7,37.9.6,1.4,1.8,2.5,1.5,4.2-3.6-1.9-4.3-5.8-5.4-9-3.5-10.4-3-21.1-.1-31.6a9.9,9.9,0,0,1,5.5-6.6C26.7,92.8,24.7,93.9,24.4,95.8Z" style="fill:#301a0d"/><path d="M38.1,151.6h1.8c.3.2.3.4.2.6l-.3.2c-.5.1-.8.3-.7.9a7.5,7.5,0,0,1,.7,1.2,3.6,3.6,0,0,1-.6,3.2c-1.1.7-1.4-.5-2.1-1-2,2.6.6,5.6-.8,8.2-4.1-2.8-7-6.7-9.9-10.7a2.7,2.7,0,0,0,2.7-1.8c2-1.8,5.1.2,7-2C37.1,150.2,37.6,151,38.1,151.6Z" style="fill:#242824"/><path d="M38.1,151.6l-1.8-.9c-1.3.9-2.1.3-2.7-.9l-.9-.9c-.5-.5-1.5-.7-.9-1.8-1.2-1.7-2.3-3.4-4.7-3.6s-2.2-.6-2.3-1.7,2.1.9,2.3-.9a6.1,6.1,0,0,1,.3-1.3c3.2,1.8,4.2,5.5,7.2,7.5l3.5,3.6Z" style="fill:#2e291f"/><path d="M33.6,149.8l2.7.9c-1.5,4.6-4.9,1-7.2,1.8C29.6,150,31.6,149.9,33.6,149.8Z" style="fill:#24272a"/><path d="M21,145.3v-.9c0-2.1.3-4.4-.9-6.4s-1.1-1.8,0-2.2,1.6.7,2,1.7C23.4,140.3,22.3,142.8,21,145.3Z" style="fill:#26282d"/><path d="M31.8,147.1l.9,1.8c-.8-.1-1.9.3-2.2-.7S31.2,147.3,31.8,147.1Z" style="fill:#1f2c22"/><path d="M51.5,161.5c1.1-.9,1.9-2.5,3.7-1.5s.8,1.5.8,2.3-1.6,1.7-2.9,1.9a5.1,5.1,0,0,0-3.4,1.7c-.7,1-1.5,1.5-2.7.9h-.9a2.5,2.5,0,0,1-2.8-.9c.3-2.3,2.6-1.6,3.9-2.4s2.3-1.8,3.7-2Z" style="fill:#8facad"/><path d="M61.4,174.9c-.1-2,3.3-3.5.7-6-.3-.3.8-2.8,1.7-3.3s1.8,1.6,2.9,2.1a2.8,2.8,0,0,1,.8,1.1,4.7,4.7,0,0,1-.6,4.3,3.9,3.9,0,0,0-1.8,2A4,4,0,0,1,61.4,174.9Z" style="fill:#8babad"/><path d="M36.3,165c0-2.1-1.8-3.9-1-6.3s-.4-3.3,1.6-3.6.5,2.4,2,2.8.5,2,.4,3.1v1.3c-.2,1.8,0,3.6-.2,5.4a5.2,5.2,0,0,1-1,1.8l-.8,1.2C36.7,168.9,38,166.7,36.3,165Z" style="fill:#272829"/><path d="M43.5,174.3c-.4-1.3-1.8-1.1-2.7-1.6.4-2.1,1.9-2.6,3.7-2.1s2.9,2.3,2.5,4.5a1.4,1.4,0,0,1-1.7-.1Z" style="fill:#91a9af"/><path d="M53.3,152.4l4.3.2c1.5.7,3.1,0,4.6.6a2.2,2.2,0,0,0,.8,0l1.8-.7c.3.8,3.1,0,1.5,2.2-2.9-.2-5.7.5-8.5-.4s-7.5.3-10.9-1.7l.6-.5C49.4,152.2,51.4,151.7,53.3,152.4Z" style="fill:#91a4a2"/><path d="M43.5,165.9c.9.1,2-.1,2.6.9-.3,5.1-3.8.3-5.3,1.8a2,2,0,0,1-.5-2.1C41.1,165.2,42.2,165,43.5,165.9Z" style="fill:#8baeae"/><path d="M58.5,184.7c.1-1.5.1-3,.1-4.5a39,39,0,0,0,1.9-3.5,1.8,1.8,0,0,1,2.7,0c.5.9-.2,1.4-.6,2.1l-.5.9-.9,1.9c-.2.8,0,1.6-.6,2.3A1.9,1.9,0,0,1,58.5,184.7Z" style="fill:#5c4f3e"/><path d="M63.5,177.4a5.3,5.3,0,0,0-3-.7,1.9,1.9,0,0,1,.9-1.8c1.2-.9,2.4,0,3.6,0a2.5,2.5,0,0,1,1.2,2,1.4,1.4,0,0,1-.5,1.1C64.8,178.3,64,178.3,63.5,177.4Z" style="fill:#90aba6"/><path d="M47,166.8l2.7-.9c1.2.2,2.4,1.1,1.4,2S47.8,169.5,47,166.8Z" style="fill:#8fabb5"/><path d="M71.2,165l.3,1.6a12.1,12.1,0,0,1-.1,1.9c-.5,1-.6,2.5-2.3,1.7s-1.7-2.9-.6-4.5v-1.3a1.6,1.6,0,0,1,.8-.8h1.1A1.8,1.8,0,0,1,71.2,165Z" style="fill:#6e8175"/><path d="M39.3,154.3l-.2-.9,4.3.9a.8.8,0,0,1,.4.9,4.2,4.2,0,0,1-1.1,1.8l-1,.4a3.2,3.2,0,0,1-2.1-.4C39.3,156.1,39.6,155.2,39.3,154.3Z" style="fill:#9cb0bb"/><path d="M68.5,155.2h1a4.6,4.6,0,0,1,1.5,4.9,2.9,2.9,0,0,1-1.4,1.5c-.8,0-1.4-.2-1.1-1.2S69.2,157,68.5,155.2Z" style="fill:#233c39"/><path d="M57.8,154.3h8.9a.8.8,0,0,1,.4.7C64,154.9,60.8,156.1,57.8,154.3Z" style="fill:#91aaab"/><path d="M68.5,165.7l1,4.8-.4.3a1.6,1.6,0,0,1-1.5-.1c-.5-.6-.2-1.4-.7-2a4.4,4.4,0,0,0-.2-1C67,166.7,67.3,165.8,68.5,165.7Z" style="fill:#445862"/><path d="M40.8,166.8v1.8l-2.7.9v-1.8c.5-.5.2-1.5.8-2A1.7,1.7,0,0,1,40.8,166.8Z" style="fill:#93a8b1"/><path d="M47.1,155.2l2.6.9a1,1,0,0,1,.3,1,2.6,2.6,0,0,1-1.8,2,2.2,2.2,0,0,1-1.4-.9,3,3,0,0,1-.4-1,2,2,0,0,1,0-1.1A1.6,1.6,0,0,1,47.1,155.2Z" style="fill:#91a4a2"/><path d="M67.1,155a1.6,1.6,0,0,0-.4-.7l-1.9-1.8c2-.1,4.2-.5,3.8,2.7Z" style="fill:#805220"/><path d="M39.8,152.5a2.2,2.2,0,0,0,.1-.8H47c.3.1.4.2.3.4a.4.4,0,0,1-.1.3l-.3.2Z" style="fill:#91a4a2"/><path d="M53.4,181.1c-.2-.1-.2-.4-.2-.6s.3-1.8,1.4-1.8,1,.4.9.6S54.2,180.6,53.4,181.1Z" style="fill:#8eacb8"/><path d="M68.5,160.5l.9.9a1.8,1.8,0,0,1,0,2.7l-1,.3C67.1,163.1,67.5,161.8,68.5,160.5Z" style="fill:#3f565d"/><path d="M50.6,158.8l.9,2.7h0c-.9.5-1.9.8-2.7-.1s-.2-1.8.5-2.5A.9.9,0,0,1,50.6,158.8Z" style="fill:#90aaaf"/><path d="M50.6,158.8h-.9a1.3,1.3,0,0,1,0-1.8v-.9c.4-.5.9-.9,1.4-.4S51,157.8,50.6,158.8Z" style="fill:#8cafae"/><path d="M59.4,176.2c-.5.4-1,.9-1.2.9a5.8,5.8,0,0,1-1-1.2c0-.1.6-.7.8-.7A9.4,9.4,0,0,1,59.4,176.2Z" style="fill:#92abb4"/><path d="M45.3,175H47a20.5,20.5,0,0,0,.5,2.4C46,177.3,45.9,175.9,45.3,175Z" style="fill:#665335"/><path d="M47.1,155.2a2.8,2.8,0,0,0-.1.9,1.4,1.4,0,0,1-.9.3l-1.5-.7c-.4-.4-.7-.8-.2-1.4S46.5,154,47.1,155.2Z" style="fill:#69716c"/><path d="M44.4,154.3l.9,1a.8.8,0,0,1-.1.9,2.1,2.1,0,0,1-1.1.4,2,2,0,0,1-.9-.5,1.5,1.5,0,0,1,.2-1.1v-.7Z" style="fill:#81807e"/><path d="M69.5,170.5c1-.7.7-1.8,1-2.8,4.3.9,8.5,2.1,13,1.9,1.8-.1,3.6.2,4.8,1.7l-2.4,1.8c1.4,1.6,3.2.6,4.7,1s2.8,1.2,2.9,2.9-1.6,1.3-2.6,1.6-3.2,2.3-5.3,1.7-5.5.9-8.1-.9c.8-.9,2-.8,3-1.3-1.4-.4-2.2.5-3,1.3-3.2.1-6.4-.1-8.1-3.6-1.5-1.8-1.3-3.6.1-5.3Z" style="fill:#262929"/><path d="M88.3,171.3c-4.7-.6-9.4-1.3-14.1-1.7a4.4,4.4,0,0,1-3.7-1.9l1-1.1,7.8,2.1a150.3,150.3,0,0,0,25.1,0l1.8-.2a1.6,1.6,0,0,1,.5,1.1,1.4,1.4,0,0,1-.5,1.1,1.4,1.4,0,0,1-1.8-.3C99.1,170.6,93.7,171.9,88.3,171.3Z" style="fill:#2e1911"/><path d="M104.4,170.4h1.8c1.2-.5,2.7-.4,3.8-1.3a1.8,1.8,0,0,1,1.6.4c.6,3.7-1.7,5.9-5,4.8s-4.6.4-5.7-2.5C101.7,170.6,103.7,172,104.4,170.4Z" style="fill:#24292b"/><path d="M156.7,80.7c2.7.9,3.7,4,6.2,5.2a2,2,0,0,1,.2,1.1c-.5,1.4-.8,2.7-1.4,4a4.3,4.3,0,0,1-.9,1,3.1,3.1,0,0,1-2.5-.1,2.4,2.4,0,0,1-.6-1.1c.3-2.4.5-4.7-1.7-6.5a2.3,2.3,0,0,1-.3-2.9A2.3,2.3,0,0,1,156.7,80.7Z" style="fill:#c4b89b"/><path d="M148.4,69h.8l2.9,3.6c-.6.4-.9,1.1-1.4,1.6a1.6,1.6,0,0,1-1,.5l-1-.4c-1.1-1.5-4-1-3.9-3.7A16.9,16.9,0,0,1,148.4,69Z" style="fill:#ce8c2e"/><path d="M156.7,80.7l-.3.9c-.8.9-1.5.5-2.2-.2a4.4,4.4,0,0,1-1.1-2.4,5.9,5.9,0,0,1,.2-1.3c.6-.8,1.2-1.3,2.1-.5S156.3,79.5,156.7,80.7Z" style="fill:#5d4e35"/><path d="M155.4,77.2c-.7.1-1.4.2-1.7,1s-1.7-.5-2.1-1.3a4.5,4.5,0,0,1-.1-1.1,2.6,2.6,0,0,1,1-1.3.8.8,0,0,1,.9,0C154.7,74.9,155,76.2,155.4,77.2Z" style="fill:#88715a"/><path d="M150.2,73.5a2,2,0,0,1,1.9-.8c.2.2.2.3,0,.5a3.8,3.8,0,0,1,.3,1,1.4,1.4,0,0,1-.8.7,1.8,1.8,0,0,1-.9-.4A3.1,3.1,0,0,0,150.2,73.5Z" style="fill:#c6965a"/><path d="M152,74.5a5.7,5.7,0,0,1,.1-1.3c.5.4,1.5.2,1.3,1.3h-.3C152.7,74.9,152.3,74.9,152,74.5Z" style="fill:#8b6339"/><path d="M56.9,75.4c.7,1.3,3.1.6,3.2,2.6s-1.1,1.4-1.8,1.7c-2.4,1-1.7-2.2-3.2-2.5A3.2,3.2,0,0,1,56.9,75.4Z" style="fill:#f19014"/><path d="M62.7,61.9c1.9-1,3.5-2.7,5.8-2.6a2,2,0,0,1,.5,2.5,3.2,3.2,0,0,1-1.3,1.5,2.4,2.4,0,0,1-2.7-.4A2.3,2.3,0,0,0,62.7,61.9Z" style="fill:#d3852b"/><path d="M65,62.9l2.9-.4a1.6,1.6,0,0,1-1.1,2.1c-1.3.5-1.9,2.1-3.6,1.7S65.3,64.5,65,62.9Z" style="fill:#a64f18"/><path d="M61.4,69.1a7.8,7.8,0,0,1-3.6,3.6C58.1,70.7,59.1,69.2,61.4,69.1Z" style="fill:#af5018"/><path d="M63.5,177.4h2.3l1-.5a2.1,2.1,0,0,1,1.7.5,11.5,11.5,0,0,0,.1,1.9l-3.6-.2c-1.1-.7-2.4.5-3.5-.5S62.7,177.6,63.5,177.4Z" style="fill:#655331"/><path d="M60.6,181l1-1.8c.8-.1,1.2.5,1.6,1.1a5.5,5.5,0,0,0,2.7,2.7c-1.1,1.8-1.8-.2-2.7-.3S61.5,181.6,60.6,181Z" style="fill:#8e3514"/><path d="M63.2,180.3l-1.6-1.1a4.3,4.3,0,0,1-.1-.5c1.2-.2,2.4-.4,3.5.5Z" style="fill:#d59752"/><path d="M149.3,133.1c.4,1.3-.7,1.8-1.5,2.5s-2,.7-3-.1l-1.8,1.8a2.6,2.6,0,0,1-.5-3c.2-.6.9-.6,1.2-1a5.3,5.3,0,0,1-1,.6c-2.5-1-.8-4.2-3-5.3a10.2,10.2,0,0,1-3-1.9c-.9-1.1-.2-3.4-2.6-3.3a4,4,0,0,1-2.1-.9,4.9,4.9,0,0,1-1.1-1.4c-.4-1-1.4-.9-2.3-.9a2.7,2.7,0,0,1-1.7-.6,1.5,1.5,0,0,1-.4-1.1,3.7,3.7,0,0,1,1.2-2.2c1.6-.9,3.2-2,5.1-2.2l1.3.2c1.3.2,2.3,2.3,4,1a4.4,4.4,0,0,1,2.2-1,3,3,0,0,1,2.1,1,12.4,12.4,0,0,0,1.8,2.2c.8,1.5,2.6,1.6,3.8,2.5a6.1,6.1,0,0,1,1.3,2.2c.5,2.4,1.8,4.6,1.7,7.1A7.7,7.7,0,0,1,149.3,133.1Z" style="fill:#c9bb9b"/><path d="M114.3,145.2c.8,3.2-1.8,4-3.6,5.4a4.1,4.1,0,0,1-3.4,1.6l-1.2-.2c-2.1-1.5-4.5-1.5-6.9-1.7s-3.3-1.7-4.9-2.7a4.5,4.5,0,0,1-1.8-2.5c2.6-2.9,4.8-3.3,7.1-.7s4.8,2.3,7.2,2.9,2.1-1.8,2.1-3.4a11,11,0,0,1-.2-1.8,2.9,2.9,0,0,1,.3-2.4,2,2,0,0,1,1.7-.2c1.6.8,1.6,2.6,2.5,3.8l.3.5.3.5A1.6,1.6,0,0,0,114.3,145.2Z" style="fill:#c8b99d"/><path d="M136.9,126.4l3.4,1c1.9,4.3.5,8-1.8,11.7-1.6-.6-3.1-2.9-4.7.5-.4,1.1-3.2.5-4.2-1.4.7-1.4,2.1-2.1,3.2-3.1l1.9-1.2a3.5,3.5,0,0,0,1.8-2.5,9.6,9.6,0,0,0-.1-3.4,2.4,2.4,0,0,1,0-1.2Z" style="fill:#c8b99a"/><path d="M130.5,146.2c-3.3-.4-6.1,1.6-9.3,1.6a7.5,7.5,0,0,1-3.3-.7c1.4-1.5,2.1-3.8,4.5-4.5a11.2,11.2,0,0,1,6.3,0C132.4,142.3,132.6,143.7,130.5,146.2Z" style="fill:#cdbb9b"/><path d="M138.5,139.1c-.2-4.1,2.7-7.6,1.8-11.7,3.1,1.1.7,4.7,2.7,6.3h0v3.6C141.7,138.4,141,140.9,138.5,139.1Z" style="fill:#cabb98"/><path d="M123.3,140c-.7,1.3-1.7.8-2.7.6s-5.1,1.9-6-2a2.4,2.4,0,0,1,1.9-2.5,1.7,1.7,0,0,1,1,.7c1.4,2.2,4.3.4,5.9,2.1A.8.8,0,0,1,123.3,140Z" style="fill:#583713"/><path d="M118.8,140.9c-1.6,1.1-2.2,3.5-4.6,3.6-.2.2-.5.3-.7,0l-.2-.4a3.2,3.2,0,0,1,1.3-3.7C116,140.5,117.5,140,118.8,140.9Z" style="fill:#cfc0ab"/><path d="M107.3,151.7a4.4,4.4,0,0,1,3.4-1.1c1.2.4,2.6-.1,3.7,1-1,1.2-2.5,1.2-3.9,1.7S107.4,154.1,107.3,151.7Z" style="fill:#83755a"/><path d="M133.2,135.5a5.2,5.2,0,0,1-3.6,2.7h-1l-.3-.6c0-2.1,1.6-2.5,3.1-2.8A1.9,1.9,0,0,1,133.2,135.5Z" style="fill:#6f4b22"/><path d="M123.3,140v-1c1.3-2.8,3.1-2.9,5.3-.9h0C127.1,139.4,125.2,139.6,123.3,140Z" style="fill:#634423"/><path d="M110.8,152.4c1-1.2,2.4-.6,3.6-.8h1.7c.9.1,1.9-.2,2.7.7-1.4,1.8-3.4,1.3-5.2,1.4A3.3,3.3,0,0,1,110.8,152.4Z" style="fill:#6f6449"/><path d="M118.8,140.9h-4.4c-.9-1.2-1.1-2.3.8-2.7.5,3.4,4,.7,5.4,2.5Z" style="fill:#735435"/><path d="M128.7,142.6h-6.3A5.2,5.2,0,0,1,128.7,142.6Z" style="fill:#c7ba9a"/><path d="M136.4,146.3c-1,1.1-2,2.3-3.7,1C133.8,146.4,134.8,145.2,136.4,146.3Z" style="fill:#8b8677"/><path d="M144.8,135.5h3c-1,1.1-1.2,3-2.9,3.6C144.8,138,144.8,136.7,144.8,135.5Z" style="fill:#c2b4a0"/><path d="M113.5,144.5h.7a1.7,1.7,0,0,1,.1.7C113.8,145.2,113.4,145.1,113.5,144.5Z" style="fill:#716753"/><path d="M68.4,62.1c0-1,.1-1.9.1-2.8a8.1,8.1,0,0,1,4.6-2.5c.7.3,1.5.6.9,1.7s-.1,1.1-.1,1.6c-2-.1-3.4,1.1-4.5,2.6S68.4,62.8,68.4,62.1Z" style="fill:#a3652d"/><path d="M74,58.5l-.9-1.7,1.4-.3,1.3,1.2C75.4,58.4,74.7,58.4,74,58.5Z" style="fill:#834b19"/><path d="M99.9,52.1h1.7a5,5,0,0,1,2.4.6c2.4,1,1.9,3,1.6,5.3,4.5-.8,9-2.1,13,1.3a15.2,15.2,0,0,0,2.2,2.2c1.2,1,2.6,2.2,1.9,4s-2.8,2.1-4.6,2.1-4.9-1-7.2.9c-1.3.3-2-.5-2.6-1.6-.5-2.9-2.8-3.5-5.3-3.7-7-.7-13.4,1.6-19.9,3.9a4.4,4.4,0,0,1-2,.3,2.6,2.6,0,0,1-1.8-.9v-.9c.5-.6,1.3-1.1,1.8-1.8,3.9-1.8,2.3-6.3,4.4-9h.1c2.3-.9,4.3.1,6.3,1.3-.2-1.7-3.4-.9-2.7-3.3a4.2,4.2,0,0,1,2.5-.6c1.6-.3,3.1-1,4.8-.9S98.9,51.1,99.9,52.1Z" style="fill:#f18d1c"/><path d="M81.1,63.7a1.6,1.6,0,0,1-1.8,1.8c-.5-1.1-1.8-.6-3.2-1.8Z" style="fill:#f18c1d"/><path d="M79.3,66.4l2.1.2a1.7,1.7,0,0,1,0,1.7l-1,.5c-1.3-.1-2.7.5-3.8-.7l.9-1.7Z" style="fill:#f18c1d"/><path d="M141.9,115.6l-1.5-.8a9,9,0,0,1-4.8-2.3,6,6,0,0,0-4-2l-1.1-.2-1.2-.4-3-2.1a4.7,4.7,0,0,1-1.4-2.8c-.6-2-.8-4.1-1.4-6.1l-.9-3.1a5.5,5.5,0,0,1,.7-4.5c1.1-1.4,2.3-1.5,3.6-.4a4.1,4.1,0,0,1,.7,1.1c.6,2.1.1,4.3.8,6.3a17.1,17.1,0,0,0,1.7,3.9c0,3,2.5,2.9,4.4,3.5a15,15,0,0,1,3.6,1.1,9.9,9.9,0,0,0,7,.1c2.8-1,4.9-3,6.9-5.1a4,4,0,0,0,1.7-3.3l.3-1.8c.6-1.3.5-2.9,2-3.7a6.5,6.5,0,0,1,3.1.5l1,.7c.3.7-1.6,1.2-.1,1.9a2.8,2.8,0,0,0,.1.9,12.4,12.4,0,0,0-1.7,2.3,25.3,25.3,0,0,1-2,3.6,2.4,2.4,0,0,0-.8,2.2c-1.2,1.4-2.9,2.5-3.6,4.4h-.1c-.4,1.4-1.7,1.5-2.8,1.8l-.8.6c-.6,1.5-2.1,1.7-3.2,2.4S143.3,115.8,141.9,115.6Z" style="fill:#f9f8f6"/><path d="M148.4,121.9l-.9-1.6c-.7-1,.2-1.3.9-1.7l3.1-2c1.5-.6,2.6-.5,2.7,1.5s-.3,3,.2,4.4a3.1,3.1,0,0,1-.7,2.6,3.8,3.8,0,0,1-2.5.8C149.4,125.2,149.4,123.2,148.4,121.9Z" style="fill:#8c581e"/><path d="M141.9,115.6c.6-1.1,1.7-1.4,2.8-1.9s1.2.3,1,1.2-1.7,1.3-.8,2.5-.7.5-1.1.1S142.1,116.7,141.9,115.6Z" style="fill:#807c70"/><path d="M145.7,114.9l-1-1.2c.7-1.5,2.1-1.7,3.6-1.9C148.3,113.6,149,115.9,145.7,114.9Z" style="fill:#bbaf94"/><path d="M152,109.5c-.3-2.7,1.4-3.7,3.6-4.4a20,20,0,0,0-1,2.6Z" style="fill:#857e71"/><path d="M143.8,117.5h1.1c1,1,2.2,1,3.5,1.2l-.9,1.7C146,119.7,144.3,119.4,143.8,117.5Z" style="fill:#5e5137"/><path d="M149.1,111.2l2.8-1.8c-.1,1.1,1.3,2.1.3,3.3S150.3,111.4,149.1,111.2Z" style="fill:#c7b899"/><path d="M60.6,181a4.6,4.6,0,0,1,2.6,1.7c-.1,1.1.2,2.3-1,3.1l-1.6-1.9C60.6,182.9,59.6,181.9,60.6,181Z" style="fill:#ec8b0f"/><path d="M89.2,53.1c1.2,1.2,3.6.5,4.2,2.7s1.4,1.4.4,2.2-2,.6-2.3-.3c-1.2-2.7-4-2-5.9-3,.5-.9,2-1.1,2-2.5h.6C88.6,52.4,89.2,52.5,89.2,53.1Z" style="fill:#f08c18"/><path d="M103.6,53.1l-2-1.1c1.9-1.8,3.7.5,5.6.1.5,1.1,2.4.1,2.7,1.7a.7.7,0,0,1-.1,1.1C107.3,55.8,105.7,53.5,103.6,53.1Z" style="fill:#95642e"/><path d="M99.9,52.1H96.3c-.8-.8-2.2.2-2.9-1C95.7,50.6,98.2,48.9,99.9,52.1Z" style="fill:#905f31"/><path d="M89.2,53.1a9.4,9.4,0,0,1-1-1,6.2,6.2,0,0,1,3.7-.9,1.1,1.1,0,0,1,0,1.7Z" style="fill:#905f31"/><path d="M91.9,52.9V51.2l1.5-.2c.9.3,2.1,0,2.9,1A9.7,9.7,0,0,0,91.9,52.9Z" style="fill:#945d18"/><path d="M153.1,124.7v1.8l-1.2,3.4c-1,.3-1.1-.5-1.1-1.1s-.7-2.3.4-3.2Z" style="fill:#544838"/><path d="M151,129.1l.8.8c0,.3.1.6.1.9s-1.2,2-2.6,2.2c.3-1.2.7-2.4,1-3.6S150.7,128.8,151,129.1Z" style="fill:#8b8a7c"/><path d="M110.7,68.1c.3-2.4,1.8-2.8,3.9-2.4a19.7,19.7,0,0,0,3.5.7c1.4.1,3.2.4,3.8-1.4s-1-2.3-2.1-3a3,3,0,0,1-1.9-2.7l.5-.3c.7-.1,1.4.1,2.1,0s-.7-1.8.2-2.6c2.5-.9,4.8.4,7.1,1h1.8l.8.4c1.4,1.1,3.1,1.2,4.7,1.6l6.1,3.5c2.4,2.1,5.4,3.5,7.2,6.2-.2,2.5-2.2,1.7-3.6,2a4,4,0,0,1-2.6,1h-5.4a11.2,11.2,0,0,1-3.2-.4c-1.6-.5-3-1.4-4.6-1.8a3.8,3.8,0,0,0-3.8.6l-1.6.5c-1.6.3-2.6,1.5-3.9,2.3a5.6,5.6,0,0,1-3.3,1c-1.4-.2-2.3-1.3-3.6-1.8l-.8-.8C111.4,70.6,110,69.7,110.7,68.1Z" style="fill:#f18d19"/><path d="M120.4,57.5c-.2,1.2,3.5.4,1.4,2.6a10.6,10.6,0,0,1-3.3-1.4c-1.1-.8-2.6-1-3.6-2.1a1.5,1.5,0,0,1,.3-1.7c1.4,1.1,3,.3,4.5.8S120.1,56.9,120.4,57.5Z" style="fill:#703816"/><path d="M120.4,57.5l-.7-1.8c2.9-.2,5.8-.6,8.1,1.7C125.4,58.4,122.9,55.3,120.4,57.5Z" style="fill:#7b512a"/><path d="M135.1,59.3c-1.9.5-3.8.9-4.7-1.6h1.7Z" style="fill:#a77844"/><path d="M156.4,102.9c0-1.7,0-3.3,1.7-4.2,1.4,1.6-.3,2.5-.8,3.7l-.2.4h-.7Z" style="fill:#f4f1f1"/><path d="M157.3,102.4c.3-1.2.5-2.5.8-3.7l2-1.7C159.6,99,159.5,101.2,157.3,102.4Z" style="fill:#7e796a"/><path d="M113.4,152.7l5.4-.4c1.4.1,1.6.8.9,1.9h-1a3.6,3.6,0,0,1-3.2.7C114.5,154.5,113.3,154.1,113.4,152.7Z" style="fill:#bab29b"/><path d="M92.8,145.3l1.8,1.8c-1.2,3.3-3.7,1.7-5.8,1.5a5.6,5.6,0,0,0-3.6.1,3.7,3.7,0,0,1-1.8.2l-2.2-2.1c-.7-3.7-.2-7.4.4-11,1.1-.6,1.1-1.8,1.6-2.7,3.3-1.5,5.2,1.5,7.8,2.5.7.2.3,1.5-.6,2.1s-2.3.5-3.2,1.4.4,1.9,1.4,2.4l1.6.7A6.1,6.1,0,0,1,92.8,145.3Z" style="fill:#c8bb99"/><path d="M82,135.6a26.4,26.4,0,0,1-.8,11.2c-3.7-1.5-6.6-4.4-9.8-6.7a.9.9,0,0,0,0-1,2.9,2.9,0,0,1-.2-.9c1.7-.1,3.1-.7,5-.5s3.6-3,5.1-4.8C81.8,133.7,82.8,134.5,82,135.6Z" style="fill:#cabb9a"/><path d="M104.4,168.7c-6,1.9-12.2.5-18.3.8-2.2.1-4.7.9-6.8-.8Z" style="fill:#3d240e"/><path d="M96.4,157l.9-.9c1.1-1.1,2.6-1.2,4.1-1.2a21.1,21.1,0,0,1,3.5.2,3.1,3.1,0,0,1,1.3.3c1.1.4,2.3.7,2.9,1.8s-3.1,1.3-4.6,2a5.7,5.7,0,0,1-3.4.3A11.9,11.9,0,0,1,96.4,157Z" style="fill:#f49515"/><path d="M70.3,160.7c.5-1.9-.5-3.6-.8-5.4,3.3,1.6,3.8,4.2,1.7,9.7l-.9-.9A3.4,3.4,0,0,1,70.3,160.7Z" style="fill:#6e4817"/><path d="M93.6,152.6h-.4c-1.2-.4-3.2.4-3.1-2a3.3,3.3,0,0,1,1.3-.7c3.1.2,7.1-1.6,7.9,3.6C97.1,155.1,95.3,154,93.6,152.6Z" style="fill:#cfb596"/><path d="M91,150.7H89.9a1.1,1.1,0,0,1-1.4.1,3.4,3.4,0,0,1-2.3-1.1c-.5-.5-1.9-.3-1.5-1.6s2.3-1,3.6-1.1C88.7,148.7,91.3,148.6,91,150.7Z" style="fill:#ceb597"/><path d="M93.6,152.6l5.4,1c.7.1,1.2.4,1.2,1.3a2,2,0,0,1-2.9.3C95.3,155.4,93.9,154.8,93.6,152.6Z" style="fill:#8a5a23"/><path d="M96.4,157c1.8,0,3.5.3,4.5,2s-1.3,1-2,1.2a2,2,0,0,1-2.5-.6Z" style="fill:#f18812"/><path d="M104.4,159l4.5-2a1.9,1.9,0,0,1,2-.6,1.1,1.1,0,0,1,.8.7c0,.3-.1.6-.1.8-2.3,1-4.6,2.1-7.2,1.6Z" style="fill:#9f4d19"/><path d="M92.9,161.6a5.1,5.1,0,0,1-4.9.6c-1.7-.5.4-.9.4-1.6s1.6-.4,2.4-.4S92.3,160.9,92.9,161.6Z" style="fill:#ab5417"/><path d="M104.4,159v.5c-1.5,1.8-3.5.9-5.3,1.1-.2-.2-.3-.3-.2-.5s.1-.3.2-.3l1.8-.8Z" style="fill:#9c4316"/><path d="M88.5,150.9h1.4l3.3,1.7C91,153.6,89.4,153.1,88.5,150.9Z" style="fill:#945f27"/><path d="M99.1,159.8v.8a2.5,2.5,0,0,1-2.8.7c-.5-.5-1.5,0-1.9-.8l2-.9Z" style="fill:#ab5719"/><path d="M97.3,155.2c.9-.2,2,.3,2.7-.8a1.5,1.5,0,0,1,1.9-.3,1.7,1.7,0,0,1-.1,2H97.3Z" style="fill:#df8e22"/><path d="M94.4,160.5l1.9.8-3.4.3-1.8-.9c.1-.5.3-.5.7-.3Z" style="fill:#893413"/><path d="M91.8,160.4a1.1,1.1,0,0,1-.7.3H88.4c-.3-.2-1.5-.4-.7-.7A3.7,3.7,0,0,1,91.8,160.4Z" style="fill:#f39122"/><path d="M110.7,167.7c-1.2,1.6-3,.8-4.5.9C107.6,167.6,109.2,167.7,110.7,167.7Z" style="fill:#33190f"/><path d="M84.7,148.2l1.5,1.6c-1.3,1-2.1.2-2.8-.9Z" style="fill:#94632f"/><path d="M71.4,139.1l.6.3-.6.7Z" style="fill:#6c4117"/><path d="M63,81.7l.3-.9a3.3,3.3,0,0,0,.6-1A3.1,3.1,0,0,1,66.7,78c1.6-.6,2.4.7,3.4,1.5,2,2.3,4.9,1.4,7.4,1.9s3.5,0,5.2.4a8.5,8.5,0,0,1,3,1.5,1.5,1.5,0,0,1,0,1.3,4.6,4.6,0,0,1-1.9.8c-1.7.2-3.5,0-5.2.6l-1.3.2c-1.9.3-3.8,0-5.7.6a6,6,0,0,1-1.9,0c-.5-.1-1-.1-1.3-.4s-2.1-.6-2.4,1-2.4,1.3-3.6,0S62.1,83.5,63,81.7Z" style="fill:#c8ba9d"/><path d="M60.6,112.2l-1.9.9a1.9,1.9,0,0,1-.8-1,1.1,1.1,0,0,0-.1-.8c-.8-1-.3-2.2-.4-3.2a1.4,1.4,0,0,1,.9-.9,3.6,3.6,0,0,0,5.1-.3c1.2-.1,2.3.1,2.8,1.3a1.2,1.2,0,0,1-.3,1.2C63.6,109.3,62.9,112.2,60.6,112.2Z" style="fill:#894f18"/><path d="M55.1,107.7c-2.6,2.3-3-.8-4.3-1.8h-.4a6.5,6.5,0,0,1-.2-2.4,1.9,1.9,0,0,1,1.3-1.2c3.4-.9,1.2,1.8,1.8,2.7S54.4,106.9,55.1,107.7Z" style="fill:#f08d18"/><path d="M68.4,62.1l1,.6c.4,1.7,3,1.9,3,4.2-2.1-.2-4.2-.4-5.6-2.3a21.2,21.2,0,0,1,1.1-2.1A.7.7,0,0,1,68.4,62.1Z" style="fill:#ef891d"/><path d="M57.9,107.7c0,1.2,0,2.4-.1,3.6a16.3,16.3,0,0,1,0-11.7l.5.5a5.1,5.1,0,0,1,.6,2.7C59,104.5,59.1,106.2,57.9,107.7Z" style="fill:#ef8d1e"/><path d="M57.8,99.6c-.3-2.9-.6-5.8,1.7-8.1,1.1.9,1,2.1.9,3.2s-.5,3.2-1.2,4.6a1,1,0,0,1-1.2.5Z" style="fill:#ef8d1e"/><path d="M69.4,74.2c.9-2.5,2.5-4.2,5.3-4.2l.3.6a3.1,3.1,0,0,1-1.3,1.9c-1,.7-1.8,1.5-2.8,2.1a1.7,1.7,0,0,1-1.2.1Z" style="fill:#834514"/><path d="M52.5,86.2l.8-1c1.7,1.8,1.1,3.6-.1,5.4C50.7,89.5,52.9,87.6,52.5,86.2Z" style="fill:#58210f"/><path d="M59.5,95.1V91.5c.3-.6.7-1.2,1-1.9a.9.9,0,0,1,1.1.1,2.4,2.4,0,0,1,.6,1.1,5.3,5.3,0,0,1,.1,1.3,3.9,3.9,0,0,1-1.6,3.3A1.2,1.2,0,0,1,59.5,95.1Z" style="fill:#662a12"/><path d="M76.6,68.1c1.2.1,2.3-.9,3.4.1-.7,3.5-2.8,3-5.2,1.8h-.1C75,69,75.9,68.6,76.6,68.1Z" style="fill:#966530"/><path d="M63,81.7c0,1.8-1.2,3.6-.1,5.4-.5,2.1-.5,2.1-1.9,1.3a13.4,13.4,0,0,1,.2-4.9Z" style="fill:#8b5720"/><path d="M66.8,77.4c.2-1.6,1.6-2.2,2.6-3.2s-.1.3.1.5,2.6-.5,2.9,1.5a3.5,3.5,0,0,1-1.9,1.5,2.8,2.8,0,0,1-1.3.3A5.3,5.3,0,0,1,66.8,77.4Z" style="fill:#221211"/><path d="M61.2,83.5c.1,1.8.2,3.6.2,5.4.3.3.2.5-.1.7h-.8A7.7,7.7,0,0,1,61.2,83.5Z" style="fill:#ed8c19"/><path d="M51.5,102.3l-.8,1c-.8-.4-.3-1.3-.8-1.8V98.7l1.5.9C51.4,100.5,51.5,101.4,51.5,102.3Z" style="fill:#ac5919"/><path d="M57.9,112.1l.8,1a2.9,2.9,0,0,0-.2.9l-1.3,1A2.1,2.1,0,0,1,57.9,112.1Z" style="fill:#f08d18"/><path d="M66.8,77.4h2.7a1.9,1.9,0,0,1,0,2.6L66.7,78C66.7,77.8,66.8,77.6,66.8,77.4Z" style="fill:#c9b39a"/><path d="M55.1,107.7a2.7,2.7,0,0,1-1.8-2.7C55.9,104.6,55.4,106.2,55.1,107.7Z" style="fill:#ef8d1e"/><path d="M57.2,83a7.3,7.3,0,0,1,.5.9c0,.5-.3.9-.9.6a1.3,1.3,0,0,1-.5-.7C56.2,83.4,56.4,83,57.2,83Z" style="fill:#ed891c"/><path d="M63.9,79.8c.1.6-.1.9-.6,1Z" style="fill:#6e3c11"/><path d="M85.7,139.3c.1-3.5,3.6-1,5.1-3.4-3.3.7-4.6-3.1-7.8-2.2l-.3-.2v-.4c0-2.2.4-4.3-1.2-6.3s-.3-3.3,2-4.4,5.2-2.5,2-5.7c2.9-2.1,6.3-1.1,9.5-1.5,1.5-.2,2.9-.1,3.8-1.6l1-.9a2.8,2.8,0,0,1,1.8,0c1.4,1.4,2.7,2.5,3-.7a5.1,5.1,0,0,1,2.2-2.4,3.6,3.6,0,0,1,3.3-.6c2.2,1.3,1.4,3.7,2.1,5.6a4.4,4.4,0,0,1-.3,2c-1,1-2.3,1.1-3.5,1.5a12.4,12.4,0,0,0-4.7,2.1l-.8.8-.7.9-1.3,1.2c-2.3,1.9-4.6,3.7-5.1,7a2.4,2.4,0,0,1-1.4,1.2c-1.3-.1-1.6-1.2-2-2.1s0,.2-.1-.4,0-1.1-.1-1.7.1,1.2,0,1.8.8,2.5,2.2,3.1,2.1-.1,3.1.2a5.7,5.7,0,0,1,3.1,2.6,6.2,6.2,0,0,0,3.2,2.3l1.7.6c1.2.6,2.7,1,3.3,2.4l.9,1.6c-2.4,1.8-5.6,1.4-8.9,2.7,3.4-.7,6-2,8.9-.9.4,1.8.9,3.8-.7,5s-3.3.1-4.8-.9-5.7.3-6.3-3.8c0-.2-3.8-.7-5.2,1.5a5.3,5.3,0,0,1-2.7-2.6c-.1-2.2-1.1-3.2-3.3-2.9Z" style="fill:#cabc9b"/><path d="M101.7,112.9l-1.8.3c-1.9,1-4.2.5-6.1,1.6a5.8,5.8,0,0,1-2.9.9,25.5,25.5,0,0,1-6.1-.8H83.7c-1.9-1.4-4.4-1.5-6.4-2.6a3.5,3.5,0,0,1-.7-1.2c-.3-1.5-1.2-3.1.1-4.6,4.3.5,8.2,2.6,12.6,1.8,1.8-.1,3.7.5,5.1-1.1l2.1-2a6.4,6.4,0,0,0,2-2c1.6-2,2-4.7,3.2-6.9a3.5,3.5,0,0,0-.1-4.3c-.9-1.7-2.3-3.3-2-5.4s2.3-1.5,3.6-1.6h2.2l2.8.4c2.1.7,4.4,1,5.2,3.5a16.7,16.7,0,0,1-.4,8,24.6,24.6,0,0,1-1,4.7c-.3,3.2-1.4,6-4.3,7.8-1.3.9-2.9,1.4-3.8,2.9A2.5,2.5,0,0,1,101.7,112.9Z" style="fill:#fcfcfc"/><path d="M90.8,115l2.7-1.1c2.1.6,4.3-1,6.4-.1-.6,2.1-1.7,2.9-4.2,2.6s-6.7.1-10.1.3l-1.2-.4.5-.7C86.7,114.1,88.9,116,90.8,115Z" style="fill:#cbc1ab"/><path d="M78.5,113.8c2.1,3.6,1.9,4.4-1,4.7-.2-.9-1.3-1.3-1.4-2.3a3.7,3.7,0,0,1,1.3-3.3C78.2,112.7,78.6,113,78.5,113.8Z" style="fill:#c8ba99"/><path d="M78.5,113.8l-.9-.9c-.2-.1-.2-.3-.2-.5s.1-.2.2-.2c2.1.6,4.9-.1,6.1,2.7C81.5,116.7,80.4,113.3,78.5,113.8Z" style="fill:#908a7f"/><path d="M67.6,124.7a.5.5,0,0,1,.4.2c1.4,1.2,3.3,2,3.5,4.2,0,.2-.9.7-1,.6a5.5,5.5,0,0,1-2.9-5Z" style="fill:#c7be9c"/><path d="M90.8,115c-1.8,1.4-3.9.5-5.9.6a1.5,1.5,0,0,1-.1-.7C86.8,112.8,88.8,115.3,90.8,115Z" style="fill:#837a68"/><path d="M75.5,120.4a1,1,0,0,1,.9,1.2c0,.9-.6,1.3-1.5,1.1s-.8-.7-.7-1.4S74.8,120.4,75.5,120.4Z" style="fill:#c8ba99"/><path d="M76.6,116.5c.6.6,2.7.4.9,2l-3.6-.2q-.5-.3-.3-.6t.3-.3l1-.9A1.4,1.4,0,0,1,76.6,116.5Z" style="fill:#5e563e"/><path d="M82.8,133.1a1.4,1.4,0,0,0,.2.6c.2.9.7,2-1,1.9a26.8,26.8,0,0,0-.7-2.7Z" style="fill:#817454"/><path d="M73.9,117.4v.9c-1.2.6-1.9,2.1-3.5,2A4.4,4.4,0,0,1,73.9,117.4Z" style="fill:#67401e"/><path d="M76.6,116.5H74.9a23.1,23.1,0,0,1-5.6-5.2c-.5-.6-1.3-1.1-1.5-1.9a4.2,4.2,0,0,1,.2-2.5,2.7,2.7,0,0,1,1.3-1.3,1.7,1.7,0,0,1,1.2.1c1,.9,1.7,2.1,2.9,2.8l2,1.1a6,6,0,0,1,2.1,1.8c0,.2.1.5.1.8v.7C77.3,114.1,77,115.3,76.6,116.5Z" style="fill:#cebda0"/><path d="M68.5,109.5l.8,1.8c-1.5,0-2.2-1.3-3.4-1.9v-.9a1.3,1.3,0,0,1,1-.4C67.8,108.2,68.1,108.9,68.5,109.5Z" style="fill:#664222"/><path d="M49.9,101.5a14.2,14.2,0,0,0,.8,1.8l-.3,2.6h-.6C49.8,104.4,49.8,103,49.9,101.5Z" style="fill:#8a3a14"/><path d="M47.2,152.4a1.9,1.9,0,0,1-.2-.7l1-.2,5.3.3v.6Z" style="fill:#67522e"/><path d="M62.2,153.2c-1.6.2-3.2.4-4.6-.6C59.1,152.6,60.8,152,62.2,153.2Z" style="fill:#645031"/><path d="M76.6,181.2c1.5.2,3.3-.6,3.6,1.8A5.2,5.2,0,0,1,76.6,181.2Z" style="fill:#302720"/><path d="M68.5,177.5H66.8c-1.4-2.5.7-4.6,1-6.9h1.7c0,1.7,0,3.5-.1,5.3Z" style="fill:#687e81"/><path d="M39.3,154.3c.8.7.6,1.7.7,2.6s1.5,3.7-1.8,3.7a26.8,26.8,0,0,0,.7-2.7C39,156.7,39.1,155.5,39.3,154.3Z" style="fill:#8ba1a6"/><path d="M38.2,160.6c2.4-.4,1.4-2.4,1.8-3.7s1.2-.9,1.7.1,1,.3,1.4.5a2.2,2.2,0,0,1,.7.9,4.5,4.5,0,0,1-.1,1.1c0,2,2,1.3,2.9,2.2s1.8,1.2,1.3,2.5-3.4,0-4.4,1.7c-1,.1-2.1-.1-2.7.9l-1.8-.9c-1.1-1.3.2-3-.6-4.4Z" style="fill:#90aaaf"/><path d="M47.9,164.2a2.7,2.7,0,0,0-1.8-1.8,2.2,2.2,0,0,1-.4-1.8,2.8,2.8,0,0,1,2.4-1.8l1.6-1.8v1.8c-1.2,2.1-.4,2.8,1.8,2.7Z" style="fill:#8eabae"/><path d="M67.8,170.6a19.9,19.9,0,0,1-1,6.9h-1a1.9,1.9,0,0,0-.1-.8c-.3-1.2-.7-2.4.3-3.4s.4-3.1.9-4.6Z" style="fill:#3f5359"/><path d="M66,173.3l-.3,3.4-.7-1.8c-.2-.7-1.2-1.5-.3-2.2S65.7,172.8,66,173.3Z" style="fill:#95aeaf"/><path d="M38.4,161.5c2.1,1.2.1,3,.6,4.4a14.2,14.2,0,0,0-.8,1.8C38.3,165.6,38.3,163.6,38.4,161.5Z" style="fill:#8ba1a6"/><path d="M70.3,160.7v3.4h-.9v-2.7Z" style="fill:#70817e"/><path d="M43.4,155v1.1a.7.7,0,0,1,0,.9l-.5.2-.4-.2C42.7,156.3,42.5,155.4,43.4,155Z" style="fill:#535e5f"/><path d="M42.4,157.8l-.7-.8h.8q.4.3.3.6C42.7,157.8,42.6,157.8,42.4,157.8Z" style="fill:#4d6a68"/><path d="M48.1,158.8l-1.9,1.9c-1.7.5-3.3.8-3-1.9v-.9l.4-.3h1l1.4.2h1Z" style="fill:#536d5b"/><path d="M47.1,157.9l-.9.9a1,1,0,0,1-.3-1.5,1,1,0,0,1,.9-.4Z" style="fill:#c1cbc4"/><path d="M46.8,156.9h-.9v-.4l.3-.3H47A3.1,3.1,0,0,1,46.8,156.9Z" style="fill:#d9d7d5"/><path d="M45.2,156.1a1.9,1.9,0,0,1,.1-.8l.8.8h.1l-.5.3Z" style="fill:#b6b1a8"/><path d="M43.5,157a1.4,1.4,0,0,1,0-.9h.9a.8.8,0,0,1,0,.9l-.5.2Z" style="fill:#acaaa4"/><path d="M44.4,157v-.9h.8c.1.2.3.3.4.4a1.4,1.4,0,0,1-.2.6l-.5.2Z" style="fill:#574a45"/><path d="M77.5,179.4c0-1.4.2-2.7,2.1-2.7s3.2-.5,3.4,1.1-1.6,1.5-2.8,1.6Z" style="fill:#202c28"/><path d="M106.2,169.5h3.6c-.5,3-2.2,1.4-3.6.9Z" style="fill:#27271f"/><path d="M152.7,102.2a16.4,16.4,0,0,1-7,5.5,18.5,18.5,0,0,1-8.1.1l-3.2-1.1c-2-1-3.9-2.1-4.8-4.2s-2-2.2-1.9-3.8.4-4.8-.9-7.1h.3v-.3c-.6-1.3-3.1-.4-3-2.5a4.4,4.4,0,0,1,3.1-2.5,7.6,7.6,0,0,1,2.1-.3h5.1c3,.1,6-.1,8.9.2s3.2.8,4.9.8l2,.4c1.2.4,2.5.6,3.7,1.1s3.3,1,4.4,2.5a1.4,1.4,0,0,0,.2.6c.3.6,1.1.9,1.2,1.7a1.1,1.1,0,0,1-.5,1,2.7,2.7,0,0,1-2.8-.7c-2.4.4-.5,2.6-1.5,3.5l-.3,1.3C154.2,99.7,154,101.2,152.7,102.2Z" style="fill:#060707"/><path d="M158.2,90.8c-1.8.1-3.5.1-4.5-1.7s-2.6-.1-3.5-1.1l-1.8-.2c-1.1-1.4-2.9-.6-4.3-1.3l-1.2-.3c-3.5-.1-7,0-10.6,0a7.6,7.6,0,0,0-3.6.8h-1.8c-2.1-.8-1.8-2.7-2.2-4.3s-2.6-2.4-2.6-4.3,1.3-1.8,2-2.7l.8-.9a5.5,5.5,0,0,1,2.3-1.7,2.6,2.6,0,0,1,1.7.3c1.3,1.1,3.4.3,4.6,1.7a3.5,3.5,0,0,0,3.4,1.5H138c1.3.4,2.6.3,3.9.9a2.2,2.2,0,0,1,.5.8c.6,1.4,1.3-.1,2,.1l1.2-.4a9.7,9.7,0,0,1,3.8.2c2,.5,3.9,1,5.2,2.7s1.1.8,1.8.6-.8,1.8.3,2.4C160.1,85.6,159.5,88.1,158.2,90.8Z" style="fill:#c9bc9a"/><path d="M159.2,93.3h.8a2.2,2.2,0,0,0,.1.8h-1A2.2,2.2,0,0,0,159.2,93.3Z" style="fill:#333124"/><path d="M151.9,75.5a2.1,2.1,0,0,1,0,.8,3.3,3.3,0,0,1-1.8,2.2h-1.2a6.3,6.3,0,0,1-2.4-.2c-1-2.3.8-2.9,2.2-3.8h1.4c.4-.1.7.4,1.2.5h.4Z" style="fill:#c7bf9b"/><path d="M141.9,70.9h2.9c1.3,1.5,4.3.5,4.5,3.4v.2a2.8,2.8,0,0,1-1.8.4l-1.7-.8C144.4,73.3,141.9,73.7,141.9,70.9Z" style="fill:#8c5b29"/><path d="M151.1,75.2l-1-.7c0-.3.1-.6.1-1l.9,1c.3.2.4.3.3.5Z" style="fill:#8b5d21"/><path d="M149.3,78.2l.9-.2c1.4-.5,2.4.4,3.5.9l.9,2.1-5.3-1.9q-.5-.3-.3-.6T149.3,78.2Z" style="fill:#7a684d"/><path d="M153.7,78.9a4.8,4.8,0,0,1-3.5-.9l1.7-1.7,1.8,1.9A.8.8,0,0,1,153.7,78.9Z" style="fill:#bfa892"/><path d="M152,74.5h1.1l-1.2,1h.1c-.2-.2-.3-.4-.2-.6s.1-.3.2-.3Z" style="fill:#ae855e"/><path d="M152,74.5v.9l-.9-.2v-.7Z" style="fill:#6a431b"/><path d="M135.9,112.1c2.1,0,3.1,1.6,4.5,2.7l-1.9.9c-1.6.7-3-.4-4.5-.9h-.8c-1.4-.9-3.2-1.6-1.8-3.8S134.6,111.2,135.9,112.1Z" style="fill:#c9baa1"/><path d="M131.4,111.2c-.2,1.6,1.2,2.4,1.8,3.6-2,0-3.2,2.4-5.4,1.8-2.6-3.6-.2-5.4,2.7-7h.9A1,1,0,0,1,131.4,111.2Z" style="fill:#cdba9c"/><path d="M130.5,109.6c-.6,2.5-4.3,3.8-2.7,7l-.7,1.8c-1.9-1.4-1.3-3.6-1.7-5.5s.5-5,4.1-3.4Z" style="fill:#c5b89d"/><path d="M132.2,122l1.9.9a2.4,2.4,0,0,1,1,2.8,2.4,2.4,0,0,1-1.8.4c-2.2-1.5-4.6-1.9-7.2-2.2a1.7,1.7,0,0,1-.2-1.2C127.7,119.6,129.9,120.8,132.2,122Z" style="fill:#8a561a"/><path d="M132.2,122c-2.2.1-4.4-1-6.3.9-.1-.1-.2-.3-.4-.4l-.3-1a4.1,4.1,0,0,1,.1-1.1,2.1,2.1,0,0,1,.7-1.4.8.8,0,0,1,.9.3l1.4.2c1.1.4,2.5.1,3.1,1.5Z" style="fill:#644a2d"/><path d="M151,129.1l-.7.3c-.4-2.6-2.1-4.8-1.9-7.5,1.5.8,1.6,2.6,2.7,3.7Z" style="fill:#c8b99a"/><path d="M135.3,125.5l-1.2-2.6c2.8-.8,3.1-.4,2.8,3.5h-.1C135.7,127,135.4,126.4,135.3,125.5Z" style="fill:#c8b99a"/><path d="M143,133.7c.8-.8.6-3,2.6-2.1.3.2.7.8.6,1.1s-1.8,1.6-3.2,1Z" style="fill:#cabb98"/><path d="M134,114.8a7.8,7.8,0,0,1,4.5.9C137.1,117.8,137.1,117.8,134,114.8Z" style="fill:#c8b997"/><path d="M126.9,119.3c-.2,0-.5.1-.7,0s-1.1-1.3-1.3-2.2-.8-2.7-.1-4a.9.9,0,0,1,1.2-.1c1.7,1.6.6,3.6,1.1,5.4A1,1,0,0,0,126.9,119.3Z" style="fill:#655a41"/><path d="M131.4,121l-3.1-1.5C129.1,120.5,132.5,116.2,131.4,121Z" style="fill:#c8b997"/><path d="M101.6,154.5H100l-1-.8c-1.6-4-5.1-2.5-8-2.9-.9-1.2-2.9-1.6-2.7-3.6,2.1,1,4.2,1.7,6.3,0,1.9.3,3.2,1.6,4.5,2.8a38.5,38.5,0,0,1,6.9,1.6l1.3.2c1,1.1,2.3.7,3.5.7l2.6.3,1.8,1.5-1,.3c-1.5,1.2-3.3,1-5.1,1s-3.1-.4-4.6-.3A5.9,5.9,0,0,1,101.6,154.5Z" style="fill:#c7bb9c"/><path d="M115.2,138.1c-1.1.6-.9,1.7-.8,2.7s-.1,2.4-1.1,3.3l-.7.3c-1.1-1.2-.1-2.9-1-4.2a8.9,8.9,0,0,1-.4-8.1,2.8,2.8,0,0,1,2.7-.9c1.5.3,2.9.7,3.7,2.2a2.5,2.5,0,0,1-.7,2.7Z" style="fill:#f4f0eb"/><path d="M109.8,143.5c-2.9,1.6-5.9.8-9.5.8,3.4-1.6,6.2-3.2,9.5-2.6Z" style="fill:#cabd98"/><path d="M111.7,132c.2,2.6-.7,5.4.7,7.9a1.4,1.4,0,0,1-1.8.2h-1.7c-1.4-.3-2.7-.6-3.6-1.8l.3-.5c3.1-.4,4.3-2.5,4.6-5.3C110.6,132,111,131.5,111.7,132Z" style="fill:#654931"/><path d="M106,151.5c-2.7,1.1-4.7-.5-6.9-1.6C101.8,148.8,104.2,148.7,106,151.5Z" style="fill:#7b6d53"/><path d="M110.6,140.1l1.8-.2c.1,1.5.2,3,.2,4.5C110.6,143.6,112.1,141.1,110.6,140.1Z" style="fill:#676052"/><path d="M135.3,125.5l1.5,1a1.1,1.1,0,0,0,0,.8c.6,1,.3,2.2.3,3.3a10.3,10.3,0,0,1-2.1,4c-.3.9-1.1.8-1.8.9h-1.8c-.5-.8,0-1.5.4-2.2s-1.1-5,1-7.1l.4-.5Z" style="fill:#935818"/><path d="M135,134.6a5,5,0,0,1,1.7-3.7,1.3,1.3,0,0,1,.7.9C136.9,133,137,134.7,135,134.6Z" style="fill:#6d4d24"/><path d="M137.4,131.8l-.7-.9c0-1.2,0-2.4.1-3.6C138.5,128.6,137.7,130.2,137.4,131.8Z" style="fill:#593d1b"/><path d="M128.5,144.6a3.3,3.3,0,0,1-1.2.6c-.7,0-1.1-.5-.8-1.1a1.2,1.2,0,0,1,1.1-.3C127.9,143.8,128.1,144.2,128.5,144.6Z" style="fill:#cebaa1"/><path d="M132.3,133.7l-.9,1.7c-1.2.7-2.7,1-2.8,2.7a5.6,5.6,0,0,0-5.3.9h-5.6c-1.5,0-.9-.9-.7-1.7s.6-3,1.4-4.3c2.5-2.1,5.8-1.7,8.7-2.8h1.3l1.2.2C131.1,131,131.7,132.3,132.3,133.7Z" style="fill:#955717"/><path d="M118.7,133.6a4.5,4.5,0,0,1-1.7,3.7c0-.4-.1-.8-.1-1.2l.6-2.6.4-.2A.7.7,0,0,1,118.7,133.6Z" style="fill:#69492c"/><path d="M110.7,68.1c.5,1.3,1.9,2.1,1.9,3.6s.1-.1-.3.3l.3-.2c1.6-.3,2.5.6,3.2,1.8s3.5.9,3.8,3.2-.6,2.7-1.4,3.9.7,2.5.1,3.7a4.2,4.2,0,0,1-1.8,1.7,6.2,6.2,0,0,1-2.4.8,5.1,5.1,0,0,1-2.9-1c-1.7-1-2.3-2.8-3.3-4.4s-5.8-1.4-8.6-2.3-6.7-.5-10-.9c-1.2-.1-2.4-.3-3-1.6s2.4-2.1,3.8-2.9a12.4,12.4,0,0,1,3.3-.4c1.4-.1,2.9.1,4.2-.5s2-2.2,3.1-3.2a3.2,3.2,0,0,1,2.1-.4.4.4,0,0,0,.5-.2H103c-1.3-.2-2.6-.6-3.8-.9L98,67.9c-1-.3-2.1-.5-3.1-.9a1.6,1.6,0,0,1-.7-1.1c0-1.9,1.5-2.1,2.9-2.4h2.8a17.1,17.1,0,0,1,5.5.9,5.6,5.6,0,0,1,3.5,2.1A2.6,2.6,0,0,0,110.7,68.1Z" style="fill:#cabc9b"/><path d="M109.9,54.6c2,0,3.6,1.1,5.3,1.9l3.7,1.8c-.1.6-.6.7-1,1h0c-3.8-1.3-7.6-2.2-11.5-.1s-2.7,0-2-1.9.9-3.1-.8-4.2C105.8,52.9,107.8,54.2,109.9,54.6Z" style="fill:#f08f18"/><path d="M108.9,66.5l-3.5-1.1a8.8,8.8,0,0,0-3.8-1.4,8,8,0,0,0-4.6.1c-2.3-.4-3.8,1.6-5.8,2.1a11.5,11.5,0,0,1-3.1,1.1,8.2,8.2,0,0,1-2.7.2,3,3,0,0,1-2.5-1.2,36.7,36.7,0,0,1,22-4.2C106.9,62.4,110.2,62.8,108.9,66.5Z" style="fill:#f08f18"/><path d="M95,54.3c1.6-.4,3.1-1.1,3.9.8a1.2,1.2,0,0,1-.5,1.1C96.6,56.9,95.9,55.6,95,54.3Z" style="fill:#f18c1d"/><path d="M82.9,66.3l2.9.2c-.7,2.8-2.2,3.2-4.5,1.5a6.6,6.6,0,0,0,.1-1.4Z" style="fill:#874914"/><path d="M100.3,60c-.7-.1-1.1-.5-1.1-1.1s.1-1,.7-.7a2.3,2.3,0,0,1,1.2,1.2C101.3,60,100.7,60.1,100.3,60Z" style="fill:#f18c1d"/><path d="M87.9,61.6c-.6.1-1.1-.1-1-.6a1.5,1.5,0,0,1,1-.7c.2,0,.4.2.7.4Z" style="fill:#f18c1d"/><path d="M81.3,68c1.7-.1,3.5.5,4.5-1.5h2.4c.7.4,1.8.1,2.2,1s-1.3,2.4-2.6,2.8a5.4,5.4,0,0,0-4,3.7c-1.6,1-3.5.6-5.1,1.2a4.6,4.6,0,0,1-2.6-.1c-1.4-.7-2.9-1.2-3-3.1l1.7-2c1.9-.1,3.9,0,5.2-1.8Z" style="fill:#cab899"/><path d="M124.2,98.6c1.2,2,.9,4.4,1.6,6.5s0,1.9-1.4,1.8c-2-2-1.5-4.5-1.6-7A1.9,1.9,0,0,1,124.2,98.6Z" style="fill:#8c8879"/><path d="M126,113h-.7c-.9-.4-1-1.2-1.1-2a5,5,0,0,1,.2-1.2,3.5,3.5,0,0,1,2.5-2.3c1.1.3,2.3.6,2.6,1.9C126.6,108.9,126.9,111.5,126,113Z" style="fill:#8a846c"/><path d="M124.3,88.9c.4,1.5,3.1,0,2.7,2.3-.9.3-2.2-1.5-3,.4a3,3,0,0,1-2.3.7,2.2,2.2,0,0,1-1.1-.5,1.2,1.2,0,0,1-.3-1.2,3,3,0,0,1,1.1-1.4C122.4,88.8,123.3,88.1,124.3,88.9Z" style="fill:#8d7e6f"/><path d="M131.4,111.2v-1.6c2-.1,3.9.1,4.5,2.5Z" style="fill:#928d84"/><path d="M129.6,102.5l4.8,4.2C132.1,106.1,129.2,106.2,129.6,102.5Z" style="fill:#f7f6f5"/><path d="M137.6,107.8h8.1A8.1,8.1,0,0,1,137.6,107.8Z" style="fill:#e9e9e6"/><path d="M121.3,91.5H124c-.9,1.4-.7,2.9-.8,4.4a.9.9,0,0,1-1.2-.1C120.9,94.6,120.3,93.2,121.3,91.5Z" style="fill:#4b4035"/><path d="M126.8,91.6c1.6,2.2.8,4.7.9,7.1C126,96.5,127.3,94,126.8,91.6Z" style="fill:#f7f6f5"/><path d="M126.9,107.6l-1.7,1.9a1.8,1.8,0,0,1-.2-2.7l.8-1.7A27.2,27.2,0,0,1,126.9,107.6Z" style="fill:#5c5642"/><path d="M154.8,96.9c.6-1.1-1.6-3.4,1.5-3.5C155.1,94.3,156.1,96.1,154.8,96.9Z" style="fill:#f4f1f1"/><path d="M122.5,96h.7c1,.6,1,1.6,1,2.6l-.9,1a3.4,3.4,0,0,1-.9-.8C121.9,97.8,121.5,96.8,122.5,96Z" style="fill:#736e62"/><path d="M152.7,102.2l1.8-4C154.8,100,154.8,101.6,152.7,102.2Z" style="fill:#f4f1f1"/><path d="M141.9,70.9c.9,2.4,3.6,1.1,4.9,2.6-1.3,1.5-2.9,1.1-4.5.9a6.9,6.9,0,0,0-3.5-.4c-.6.1-2.6-1.5-1.9,1.1-1.1,1.5-2.4,1.3-3.7.3s-4.1,1.5-4.6-1.8c.1-.2.1-.4.2-.6a2.8,2.8,0,0,1,1-.9l1.3-.4a38.2,38.2,0,0,0,5.8-.3c1.5-.2,3,.4,4.5-.5Z" style="fill:#cab996"/><path d="M123.2,70.2l1.8-.3.5.4a8.9,8.9,0,0,1-.4,5.1h0c-1.5,1.4-3,1.7-4.6.3a2.4,2.4,0,0,1-.4-1.8A8.1,8.1,0,0,1,123.2,70.2Z" style="fill:#d1bf9c"/><path d="M120.7,73.6v1.8a.8.8,0,0,1,.2.7c0,.3,0,.4-.1.4s-1,1.2-2,.6-2.4-2-3-3.5l3.7-1.1C120.4,72.3,120.8,72.8,120.7,73.6Z" style="fill:#423123"/><path d="M128.7,69a5.9,5.9,0,0,1,4.5,1.8c.3,1.9-1.2,1.3-2.1,1.4a5,5,0,0,1-2.4-.9,1.6,1.6,0,0,1-.5-1.1A1.7,1.7,0,0,1,128.7,69Z" style="fill:#8a511c"/><path d="M130.7,71.8c1,0,2,.1,2.5-1l3.5.2c.3.2.4.3.3.5l-.3.2a15.1,15.1,0,0,1-6,.9c-.4-.2-.5-.4-.3-.5Z" style="fill:#6e4415"/><path d="M120.7,73.6l-1.2-1.1c.9-1.2,1.9-2.5,3.7-2.3C122.4,71.3,122.3,73.1,120.7,73.6Z" style="fill:#81562a"/><path d="M128.7,69v1.2a2.7,2.7,0,0,1-3.5-.1v-.2C126,68.3,127.1,67.9,128.7,69Z" style="fill:#895b2e"/><path d="M117.9,59.3a4.7,4.7,0,0,1,1-1l2.9,1.8A6.6,6.6,0,0,1,117.9,59.3Z" style="fill:#f18d1c"/><path d="M136.7,71.7V71h4.7C140.1,72.6,138.3,71.6,136.7,71.7Z" style="fill:#744922"/><path d="M109.1,154.4h5.2a2.7,2.7,0,0,1-2.6,2.6l-.3-.3a3.7,3.7,0,0,0-1.5-.4,2.4,2.4,0,0,1-1.3-1.1A.8.8,0,0,1,109.1,154.4Z" style="fill:#a06530"/><path d="M86.3,139.2c1.5-.4,3.3-1.1,4.5.1s-.4,2.2-.7,3.4H88.2C87.8,141.3,86.1,140.8,86.3,139.2Z" style="fill:#c5b69d"/><path d="M86.3,139.2c.6,1.1,2.5,1.6,1.9,3.4-1.4-.7-3.2-1.1-2.5-3.3Z" style="fill:#73654c"/><path d="M101.6,154.5h2.7a4,4,0,0,1,1.3.7c.1.4.1.7-.2.9h-3.6C101.7,155.5,101.7,155,101.6,154.5Z" style="fill:#9b5f16"/><path d="M109.7,155.9a2.1,2.1,0,0,1,1.8.9l-2.6.2c-.9,0-2,.1-2.7-.8C107.3,154.9,108.5,155.5,109.7,155.9Z" style="fill:#d99646"/><path d="M109.7,155.9l-3.5.3-.8-.2a2.8,2.8,0,0,1-.1-.9,4.3,4.3,0,0,1,3.5,0Z" style="fill:#915516"/><path d="M102.6,96.8c-1,2.5-1.4,5.4-3.7,7.3a2.7,2.7,0,0,0-1.7,1.6l-1.8,1.8c-1.4,2-3.7,1.1-5.5,1.9a22.5,22.5,0,0,1-13.2-2.8c-4.6-1.7-7.4-6.7-6.3-13.2.6-3.4-.5-4.5-3.4-5a1.1,1.1,0,0,1-.5-1.2A2.1,2.1,0,0,1,69.4,86h1.8c2-1.1,4.4.4,6.4-.9l.2-.2h.3c1.8-.8,3.9.3,5.7-.7h1.5c6-2.3,12.1-.8,18.2-1a4.4,4.4,0,0,1,1.6.6,1.4,1.4,0,0,1,.2,2.1h-1.8c-2.8-.7-3.1-.6-3.5,1,1.5,1.1,1.7,3.1,2.6,4.6A6.5,6.5,0,0,1,102.6,96.8Z" style="fill:#040505"/><path d="M105.3,84.3l-.2-.2h-.3a.8.8,0,0,1-.8-.5c-7-.9-14.1.7-21.1-1.1l-10.8-.2c-1.8,0-2-1.5-2.6-2.5V77.3a1,1,0,0,1,.7-.2c1.6.5,3.3-.5,4.9.2.2,3.8,2.2.1,3.2.7s.8,1,1.5,1a4.1,4.1,0,0,1-1.1-.7,8.3,8.3,0,0,1-1.5-1.1,1.9,1.9,0,0,1,0-1.8l1.1-.5c1.5-.6,3.2-.2,4.7-.6a1.4,1.4,0,0,1,1.1.2c.6.9,1.7,1.2,2.4,1.8s1.7.9,2.7.9,3.2,1.4,4.8,2.1c5,.8,10.1-.3,14.9,1.5.8,1.6,1.2,3.3,2.7,4.4a2.2,2.2,0,0,1-1.9.8C108.3,85.3,106.6,85.5,105.3,84.3Z" style="fill:#c8bc9b"/><path d="M82.9,82.6h21.7l.7.3-1,.7a113,113,0,0,1-18.4,0C84.8,83.4,83.6,83.7,82.9,82.6Z" style="fill:#c7c0a9"/><path d="M85.9,83.6h18.4l.5.6H85.3Z" style="fill:#101110"/><path d="M66.8,87.2v.7c-.4,1.4-1.6,1.8-2.5,2.6s-1.8,1-2.8.2a4.3,4.3,0,0,1-.2-1.1,1.7,1.7,0,0,1,.1-.7l1.5-1.8c1.1,1.3,2-.4,3-.1A.5.5,0,0,1,66.8,87.2Z" style="fill:#34221a"/><path d="M77.6,85.2c-1.9,1.8-4.3.7-6.4.9A12.7,12.7,0,0,1,77.6,85.2Z" style="fill:#181715"/><path d="M66.8,87.2l-.9-.2c.1-4.2,2.2-1.3,3.5-1Z" style="fill:#cdc0a9"/><path d="M83.8,84.4c-1.7,1.6-3.8.7-5.7.7C79.9,84.1,81.9,84.3,83.8,84.4Z" style="fill:#181715"/><path d="M63.2,107.6c-1.3.8-1.3,2.7-3.4,3.1s.1-2.4-1.1-3-.4-1.6-.4-2.4.2-2.5.8-3.6,2.5-.8,3.9-.7a2.1,2.1,0,0,1,.6,1c.2,1.5.8,3.1.3,4.7Z" style="fill:#cbbca8"/><path d="M58.7,105v2.7h-.8c.1-1.8.1-3.5.2-5.3C59.9,102.9,59.1,104,58.7,105Z" style="fill:#7e4313"/><path d="M63.2,107.6a2.8,2.8,0,0,1,.1-.9,3.9,3.9,0,0,1,1.9-1.2,2.7,2.7,0,0,1,1.2.3c.7.8,1.2,1.6.7,2.7H65.9C65.3,107.5,64.2,107.7,63.2,107.6Z" style="fill:#4f2f14"/><path d="M58.7,105c-.1-.9.2-1.9-.6-2.6a23.5,23.5,0,0,1-.1-2.6l.6-.3a.8.8,0,0,1,1.2.1,1.4,1.4,0,0,1-.1,1.8C59.3,102.6,59.9,104.1,58.7,105Z" style="fill:#865232"/><path d="M59.5,99.6h-.9c.1-1.5-.4-3.1.9-4.4h.9a1.7,1.7,0,0,1,.6,1.7A3.7,3.7,0,0,1,59.5,99.6Z" style="fill:#925822"/><path d="M78.4,75.3l-.9.2c-1.5,2-3.4,1.7-5.3.7l-2.7-1.5,1-.3a4.9,4.9,0,0,1,5.2,0h2.7c.2.2.3.4.2.5S78.5,75.3,78.4,75.3Z" style="fill:#4b3c29"/><path d="M75.7,74.4H70.5A3.4,3.4,0,0,1,73.1,72Z" style="fill:#c3b599"/><path d="M60.4,96.8V95.1c.3-1.1.7-2.3,1.1-3.4s.5-.5,1-.3.6,2.7,1.4,3.8l1.6,1.7a53.2,53.2,0,0,0,4.2,6.7,2,2,0,0,1,.2,1.7l-1.3,1.5c-1.2.6-1.9-.5-2.8-.9h-.7c-1.4-.8-1.3-2.4-1.9-3.6v-.8C62.9,99.5,60.5,98.8,60.4,96.8Z" style="fill:#d1c2a3"/><path d="M62.3,91.7h-.8v-1l2.5-1a2.8,2.8,0,0,1,1,2.6,2.2,2.2,0,0,1-1.4,2.1C62.1,94,63.3,92.3,62.3,91.7Z" style="fill:#6a6050"/><path d="M72.2,76.2c1.8.1,3.6.3,5.3-.7v1.7a1.8,1.8,0,0,1-2.6,0c-1.6,1.1-3.2,2.2-4.7-.1C70.6,76.3,71.5,76.5,72.2,76.2Z" style="fill:#c8ba9d"/><path d="M100.9,122l.9-.9.9-.9h-.1a1.5,1.5,0,0,1,1.1-.4c2.1.4,4.5-.6,6.2,1.4l.8.9c.8,1.4,2.3,1.1,3.5,1.5s1.9.5,1.9,1.6-1.1,1.2-1.9,1.3a10.5,10.5,0,0,0-2.9,1.2l-1.1.5c-2,.8-2,2-1.2,3.8,1.9,4.1,1.4,4.8-3.5,5.6a21.5,21.5,0,0,1-7.4-6.3c-1.3-1.7-1.9-4.2.1-5S99.8,123.3,100.9,122Z" style="fill:#9b5617"/><path d="M100.9,122a4.9,4.9,0,0,0,.9,3.3c1,1.4.5,2.4-1.2,1.7s-1.6-1.2-2.3.2a2.6,2.6,0,0,0,.1,2.8c1.6,3.1,5.2,4.3,6.9,7.3.3.1.5.3.4.5l-.3.3v.2l-1.8-.3c-.7-1.4-2.2-1.7-3.3-2.5l-2.9-2.7c-.8-.8-1.7-1.5-1.8-2.7C94.8,125.7,98.1,124,100.9,122Z" style="fill:#92571a"/><path d="M111.6,116.7v-1.9a25.7,25.7,0,0,1,.2-4.8,5.3,5.3,0,0,1,.3-1.2c.6-1.2.9-2.6,2.7-2.3,1.4,4.1,1,8.3.9,12.5a1.2,1.2,0,0,1-1.1.7,4.6,4.6,0,0,1-3.2-1.1A1.6,1.6,0,0,1,111.6,116.7Z" style="fill:#c6ba9a"/><path d="M107,109.3c1.9-2.3,4.1-4.5,3.9-7.9,2.6-.8,2.3,1.3,2.7,2.7a20.8,20.8,0,0,1-1.1,5.4l-.2-.2c-.8.8-1.7-.6-2.5.1l-2.7,1a.9.9,0,0,1-.3-.7C106.9,109.5,106.9,109.3,107,109.3Z" style="fill:#252320"/><path d="M103.5,120.3h-.9c1.2-2.2,3.4-2.4,5.5-2.6s2.8.9,4,2a2.5,2.5,0,0,1-.3,2.6,1.8,1.8,0,0,1-2-.2h0C108.6,118.3,105.4,121.6,103.5,120.3Z" style="fill:#86551e"/><path d="M101.7,112.9c.5-.8,1.2-.8,2-.7a1.1,1.1,0,0,1,1.6-.2c-.5,1.2,2.2,3.2-.9,3.7S101.6,114.7,101.7,112.9Z" style="fill:#c9be95"/><path d="M109.8,109.4c.8-1.3,1.7-.3,2.5-.1.2,1.9.5,3.8-.7,5.5C109.4,113.5,112.1,110.6,109.8,109.4Z" style="fill:#7e745a"/><path d="M99.9,113.8c-2.1-.3-4.2,2.2-6.4.1,2.1-.9,4.1-1.6,6.4-.7Z" style="fill:#817a6e"/><path d="M111.5,119.3c-1.5.1-2.2-1.2-3.4-1.7.9-1.4,2.3-.9,3.5-.9l.2,1.7A.6.6,0,0,1,111.5,119.3Z" style="fill:#614f2c"/><path d="M95.5,130.1a3.1,3.1,0,0,1,1.8,2.7c-.9-.3-2,1.1-2.8-.3a.9.9,0,0,1,0-1.3Z" style="fill:#ccb899"/><path d="M94.5,131.2v1.3c-2.3,0-2.4-1.7-2.4-3.4s.6-.3.9.1Z" style="fill:#7e7154"/><path d="M105.3,112l-1.6.2c0-2.2,1.8-2.3,3.3-2.9s.1.8.1,1.1Z" style="fill:#8d877b"/><path d="M100.2,135.5c1.8-.1,3.2.4,3.3,2.5C102.2,137.5,100.6,137.3,100.2,135.5Z" style="fill:#633f1b"/><path d="M93,129.2h-.9c-.2-1.3-.7-2.8.5-4.2C93.5,126.4,92.6,127.8,93,129.2Z" style="fill:#665b3d"/><path d="M102.7,120.2l-.9.9Z" style="fill:#512f13"/><path d="M64.3,92.3,64,89.7c.6-1.1,1.8-1.2,2.8-1.8s3.5.1,5.7.2c-2,7-1.8,13.5,4.2,18.5.3,1.6.5,3.2.8,4.8l-2.6-1.3c-.8-1-1.4-2.2-2.9-2.6a2.5,2.5,0,0,1-1.1-1.2c-.3-.9-.4-1.9-1.4-2.4-2.7-1.5-3.6-4.3-4.6-7S65,93.8,64.3,92.3Z" style="fill:#f8f8f7"/><path d="M109.8,85.2h1.8a3.7,3.7,0,0,0,2.6,1,2.3,2.3,0,0,1,1.6,2.6,6.1,6.1,0,0,1-1.4,2.9c-2.3,0-.9-2.1-1.8-2.9s-3.4-1.2-4.8-2.5C108.2,85.4,109.3,85.8,109.8,85.2Z" style="fill:#2b2623"/><path d="M112.6,88.8l1.6,2.6c1.7,2,1.6,3.9-.1,5.8a2.1,2.1,0,0,1-2.3-.2C113.3,94.4,112.5,91.5,112.6,88.8Z" style="fill:#7b7364"/><path d="M111.8,97h1.6c1.6,2.6,2.2,5.2-.6,7.4-.4-1.1,0-2.7-1.9-2.9C111.9,100.1,111.6,98.5,111.8,97Z" style="fill:#545145"/><path d="M109.8,85.2c-.4.9-1.3.9-2,1.1l-2.5-.3V84.3A8.7,8.7,0,0,1,109.8,85.2Z" style="fill:#101110"/><path d="M89.9,109.4l5.5-1.9C94.3,110.3,91.9,109.4,89.9,109.4Z" style="fill:#eeedee"/><path d="M102.6,96.8V91.7A4.4,4.4,0,0,1,102.6,96.8Z" style="fill:#101110"/><path d="M100,87.1c-.2-2.2.4-2.3,3.5-1C102.4,86.5,100.9,85.6,100,87.1Z" style="fill:#101110"/><path d="M97.2,105.7c-.1-.6-.4-1.2-.2-1.6s1.3-.3,1.9,0S98.3,105.6,97.2,105.7Z" style="fill:#101110"/><path d="M72.1,106.8c2.7-.3,2.9,1.4,2.8,3.3l-1.8-.6C72.6,108.6,71.7,108,72.1,106.8Z" style="fill:#f0f1ec"/><path d="M65.8,105.9l2.8.9c0,.9-.1,1.8-.1,2.7l-1.4-1C66.7,107.6,66.2,106.8,65.8,105.9Z" style="fill:#c3b29a"/><path d="M69.5,103.9c2.6-.9,1.4,1.2,1.7,2.1s-.8.3-1.1-.2l-.2-.4C69.8,104.9,69.6,104.4,69.5,103.9Z" style="fill:#f0f1ec"/><path d="M70.1,105.8l1.1.2.9.8c.5.8,1.3,1.6,1,2.7C71.3,108.8,70.7,107.3,70.1,105.8Z" style="fill:#7d7768"/><path d="M43.2,158.8c.2,1.9,1.6,1.8,3,1.9a9.7,9.7,0,0,0-.1,1.7C45.3,161.1,40.2,163.3,43.2,158.8Z" style="fill:#8ba1a6"/><path d="M42.4,157.8a2.2,2.2,0,0,0,.1-.8h.9c.3.1.5.3.4.6s-.1.3-.2.3H42.4Z" style="fill:#9da9a3"/><path d="M46.2,156.9v1.9a1.7,1.7,0,0,1-1.8-.9.6.6,0,0,1,.1-.4l.8-.6h-.1a.6.6,0,0,1,.9,0Z" style="fill:#635e4e"/><path d="M43.6,157.9c-.1-.3-.1-.6-.2-.9h1a.7.7,0,0,1,.2.6l-.2.3h-.8Z" style="fill:#6f6e66"/><path d="M46.1,157h-.9v-.9h1A2.8,2.8,0,0,0,46.1,157Z" style="fill:#88827a"/><path d="M44.4,157.8v-.9h.9Z" style="fill:#988c82"/><path d="M143.8,90.5c2.5-1,4.4-1.1,5.6.9a7.4,7.4,0,0,1,.7,6.9,2,2,0,0,1-2.1,1.4c-1.1-.1-1.3-1.1-1.3-2A11.6,11.6,0,0,0,143.8,90.5Z" style="fill:#eeedec"/><path d="M124.3,88.9l-2.7.8c-1.2-.9-1.3-2.3-1.5-3.5a4.5,4.5,0,0,1,1.2-3.1c1.4-1,2.6-2.5,4.7-1.4,0,1.8-.3,3.6.9,5.3Z" style="fill:#cfbd9f"/><path d="M137.2,96.7c.2,1.3-.1,2.5-1.3,2.5s-2.7-1.7-2.7-3.4.6-3.6,2.2-3.4S136.4,95.4,137.2,96.7Z" style="fill:#e5e4e5"/><path d="M144.1,87H133.8a.9.9,0,0,1,.8-1.1c3.1.2,6.2-.7,9.3.5h-.2C144.2,86.4,144.3,86.6,144.1,87Z" style="fill:#22201d"/><path d="M144.1,87l-.4-.7c1.5.8,4.5-3.1,4.7,1.5A5.4,5.4,0,0,1,144.1,87Z" style="fill:#c4b89b"/><path d="M141.6,101.8c1,.2,2.1.4,2.1,1.7a1.3,1.3,0,0,1-1.3,1.4,1.8,1.8,0,0,1-2.1-1.7C140.2,102.3,140.9,102,141.6,101.8Z" style="fill:#d6d5d5"/><path d="M134.2,86.3a2.1,2.1,0,0,1-.4.6h-5.1l2.7-1.7C132.1,86.2,133.5,85.2,134.2,86.3Z" style="fill:#c4b89b"/><path d="M150.2,88c1.1.4,3.3-2.4,3.5,1.1C152.5,88.6,151.1,89.1,150.2,88Z" style="fill:#c4b89b"/><path d="M126,81.7l-4.7,1.8a1.5,1.5,0,0,1-1.7.3,7.1,7.1,0,0,1-2.6-3.3c.7-1,1.9-1.9,1.8-3.4l1.7-.9c1.6-.4,1.7.9,1.9,1.9S124.9,80.4,126,81.7Z" style="fill:#c8b89e"/><path d="M125.1,70.1h3.5c0,.2.1.5.1.7s-2.7.8-1.8,2.7a2.9,2.9,0,0,1-1.8,1.8C124.4,73.6,125,71.8,125.1,70.1Z" style="fill:#c4b798"/><path d="M134.2,86.3c-.9-.3-2.1,0-2.8-1,4.1.5,8.5-1.2,12.5,1Z" style="fill:#d1c2ac"/><path d="M154.2,83.7c-1.2,1.4-2,3-3.9,2.2a1.4,1.4,0,0,1-.4-1.4C150.8,82.9,152.2,82.7,154.2,83.7Z" style="fill:#c8bc96"/><path d="M133.2,75.4c1.2-.1,2.6.4,3.5-.9a1.5,1.5,0,0,1,1.7-.3,1.4,1.4,0,0,1,.5,1c-.3,1.2-1.4,1.4-2.2,2S133.3,78,133.2,75.4Z" style="fill:#ccbca1"/><path d="M126.9,73.6c-1.2-2.1.9-2,1.8-2.7s1.6,0,2,.9a1.1,1.1,0,0,0,0,.8l-1.2.2-.8.7h-1.8Z" style="fill:#c9c1a8"/><path d="M122.4,78.1c-.6-.6-1.3-1.2-1.9-1.9s.1-.5.2-.8a7.3,7.3,0,0,0,4.4,0C125.1,77.2,123.5,77.4,122.4,78.1Z" style="fill:#c4b798"/><path d="M136.7,77.2a3.2,3.2,0,0,1,1.8-1.8,13.1,13.1,0,0,1,2.7-.6,2.2,2.2,0,0,1,1.1.5,1.7,1.7,0,0,1,.2,1.7,1.7,1.7,0,0,1-1,.6c-1.2-.1-2.4.3-3.6-.3Z" style="fill:#c5b49b"/><path d="M131,77.6c-1,1.5-2.2,2-5,1.5C128.2,78,129.1,76.6,131,77.6Z" style="fill:#74654f"/><path d="M142.3,78.9l-.2-.9v-.6c0-.1-.1-.3,0-.4s2.6-1,3.7.3-.3,1.3-1,1.5v.4C143.9,79.4,143,79.7,142.3,78.9Z" style="fill:#8a7f5e"/><path d="M142.1,77.4V78c-1.4.1-3,.8-4.2-.7Z" style="fill:#5d5033"/><path d="M142.3,78.9l2.5.3c-.9.9-2.1.7-3.2.6s-.6-.4-.1-.7Z" style="fill:#cdc1a2"/><path d="M144.8,78.8l1-.8a.5.5,0,0,1,.8-.1l2.7.3v.9Z" style="fill:#655d3d"/><path d="M146.6,77.9h-.8c-1-1.3-2.5-.6-3.7-1V75.4c1.6-1.5,3.6-.6,5.4-.9h1.8C148.8,76.1,146.6,76.1,146.6,77.9Z" style="fill:#cdbca2"/><path d="M147.5,74.5c-1.5,1.6-3.6.6-5.4.9h-.9c-.8-.6-1.8-.5-2.7-.9h-1.8c-2.3-1.2-.5-1.7.5-1.7,3.2.1,6.4.5,9.6.7Z" style="fill:#c7bf9b"/><path d="M129.6,131h-.9c-1.2-2.6-4.7-3-5.7-5.8.3-1.3,1.4-1.3,2.4-1.4h.6c2.9-1.4,5.3-.9,7.2,1.8h-.1C130.9,126.7,131,129.3,129.6,131Z" style="fill:#995816"/><path d="M125.9,122.9c0,.3.1.6.1.9h0c-2.6.7-5.2,1.5-7.9,1.2s-3.3,0-3.9-2.1a3.9,3.9,0,0,1,2.1-1.1c3.2.1,6.6-.9,9.6,1Z" style="fill:#573212"/><path d="M114.3,119.3h.9c.5-.5,1.3-.9,1.4-1.7.4-4.6,3.4-5.8,7.4-5.7,1.3,2.1.7,4.6,1.2,7,.4.6.2,1.5.6,2.2a.6.6,0,0,1,0,.8,56.8,56.8,0,0,1-9.2.5,3.8,3.8,0,0,1-2.4-1.9A1.3,1.3,0,0,1,114.3,119.3Z" style="fill:#c9b99d"/><path d="M116.1,122c3.2.6,6.5-1.8,9.7-.1a2.8,2.8,0,0,1,.1.9H116l-.2-.3Z" style="fill:#b5997e"/><path d="M125.8,121.1l-.7-1.8c-.5-1.1-1.2-2.2.7-2.6.1.9.3,1.8.4,2.6A11.6,11.6,0,0,1,125.8,121.1Z" style="fill:#d1c2a8"/><path d="M125.8,116.7c-.9.7-.7,1.7-.7,2.6-2.8-2.1,0-4.8-.9-7.1s-.6-1.7.8-1.8l.3,2.7C125.5,114.3,125.6,115.5,125.8,116.7Z" style="fill:#c7bca1"/><path d="M108.8,155.1h-3.5l-1-.7h4.8Z" style="fill:#bda27d"/><path d="M118.7,133.6h-.6c-.9-.7-1.8-1.5-3.2-1.1a4.4,4.4,0,0,0-3.2-.4l-1,.8a2.6,2.6,0,0,1-3-2.8c0-1.9,1.9-1.9,3.1-2.5h0c4.9-2.1,9.8-2.9,14.6.1,1.2.8,2.7,1.4,2.2,3.3C125,133,121.4,131.8,118.7,133.6Z" style="fill:#1c110a"/><path d="M114.9,132.4c1.5-.8,2.6-.5,3.2,1.1h-.6C117.1,132.2,115.7,132.9,114.9,132.4Z" style="fill:#955717"/><path d="M110.8,127.5c-3.1,1.7-3.5,3.5-.1,5.3.6,4.2-1.1,6-5.3,5.3,0-.3-.1-.5-.1-.8,2-1.1,6.8-.6,2.4-5C105.7,130.1,107.3,127.8,110.8,127.5Z" style="fill:#8d551d"/><path d="M129.6,131c0-2.6-.7-5.6,3.5-5.4-1.8,2.5,3.1,5.8-.8,8.1C130.3,133.8,130.7,131.6,129.6,131Z" style="fill:#9e5617"/><path d="M127.6,130.9c-2.8-4.5-7.3-4.1-11.7-4.1a29.8,29.8,0,0,0-5.1.7c.7-2.3,2.8-1.7,4.5-2.1-1.2-2.2-5.5.6-5.5-3.4h2a.8.8,0,0,1,.9-.3,2.6,2.6,0,0,1,1.7,1.4c1,1.1,2.3.6,3.5.8s3.7-.3,5.4.8c1,2.7,6,2.1,5.4,6.3Z" style="fill:#915717"/><path d="M83.8,73.7c-.8-3.2,1.5-3.9,3.7-4.5s2.4-.1,2.6-1.8,2.7-1.2,4.3-.6,2.6,1,4,.5h.5c.7.9,2.5,1,2,2.7s-.6,3.3-2.7,3.6-6.9-.5-10.3.6c-1.3.4-2.6,1-4,.3h-.1q-.5-.3-.3-.6Z" style="fill:#c6ba9d"/><path d="M112.8,104.3c1.1-2.4.5-4.9.6-7.4s.6-3.6.8-5.5l.9-2.6c1.1-1,.2-2.5,1-3.5l1.7-.9a1.8,1.8,0,0,1,1.5,1,11.8,11.8,0,0,1,1,3,2.4,2.4,0,0,1-.7,1.8c-2,.9-2.4,2.7-2.7,4.7-.6,3.6-.3,7.4-1.8,10.9a3.9,3.9,0,0,1-.8,1l-1.8,2.7Z" style="fill:#c4b9a0"/><path d="M108.9,80.8c-5.3-.5-10.8,1.1-16.1-.9,2-3,4.6-1.9,7.2-.9C103.2,78.3,106.3,78.5,108.9,80.8Z" style="fill:#cdba9c"/><path d="M100,79c-2.5.1-5-.5-7.2.9-1.7-.3-3.3-.6-3.6-2.7C92.7,78,96.9,75.4,100,79Z" style="fill:#cbbc98"/><path d="M87.3,73.6a16.3,16.3,0,0,1,10.9,0c-1.3,1.6-3,.7-4.6.8s-3.9.4-5.8-.3Z" style="fill:#807355"/><path d="M83.9,74.5a5.6,5.6,0,0,1,3.4-.9h.4c.5,1.1,1.9,0,2.4,1.1a5.6,5.6,0,0,1-3.6,1.7C85.1,76.5,83.4,77.2,83.9,74.5Z" style="fill:#c5b79c"/><path d="M100.9,70c-.5-1-2-1.3-2-2.7l5.3,1c1.2,1.1.7,1.6-.6,1.8Z" style="fill:#82785a"/><path d="M95.5,67.4H90.1c-.7-.2-1.6,0-1.9-.9l2.6-1.1c1.5-.6,2.6.1,3.7,1h.9a.6.6,0,0,1,.3.6Z" style="fill:#3e251a"/><path d="M94.5,66.4l-3.7-1a12.2,12.2,0,0,1,6.5-1.8.7.7,0,0,1,.2.6q-.1.3-.3.3C96.1,64.9,94.6,64.6,94.5,66.4Z" style="fill:#754917"/><path d="M112.6,71.8c-.3,1,.2,2.6-1.7,2.5-.3-.1-.8-.6-.8-.9-.2-1.9,1.4-1.4,2.5-1.7Z" style="fill:#c3c09c"/><path d="M97.2,64.5c0-.3.1-.6.1-.9a4.1,4.1,0,0,1,4.6,0c-.4.9-1.3.4-1.9.9Z" style="fill:#8a653d"/><path d="M95.5,67.4a2.8,2.8,0,0,1-.1-.9,3.3,3.3,0,0,1,3,.8C97.4,68.2,96.5,70.6,95.5,67.4Z" style="fill:#7a6e55"/><path d="M118.8,85.3l-1-.9c.8-1.5-2-2.3-.8-3.9,1.2.8,2.4,1.4,2.8,2.9A2.2,2.2,0,0,1,118.8,85.3Z" style="fill:#4a3f2e"/><path d="M100,64.5l1.9-.9a3.2,3.2,0,0,1,3.5,1.8Z" style="fill:#7b501a"/><path d="M90.1,74.6c-.8-.4-2.2.5-2.4-1.1,1.9.5,4.1-.6,5.9.9Z" style="fill:#796c4f"/><path d="M116.1,85.3a2.3,2.3,0,0,1-1,3.5,2.2,2.2,0,0,0-.9-2.6Z" style="fill:#b9b094"/><path d="M103.6,70.1a1.4,1.4,0,0,0,.6-1.8c.8.3,1.9.5,1.4,1.6S104.4,71.1,103.6,70.1Z" style="fill:#c7b99a"/><path d="M83.8,73.7v.8c-1.7,1.2-3.6.8-5.4.8v-.8C80.1,73.2,82,73.7,83.8,73.7Z" style="fill:#6f5d4f"/><path d="M123.1,98.7c.1.3.1.6.2.9.9,2.3.3,5,1.7,7.2a24.5,24.5,0,0,0,.2,2.7h-.3c-2.6-.1-3-2.2-3.8-3.9s-.1-4.4.8-6.5A.9.9,0,0,1,123.1,98.7Z" style="fill:#c7bca1"/><path d="M121.5,105.9c1.8.5,1.7,2.8,3.4,3.5a3.4,3.4,0,0,0,.1,1,14.2,14.2,0,0,0-.8,1.8c-3,1.4-7.3,1.2-6.5,6.6.3,1.5-1.6.3-2.5.5-.1-4.2-1.7-8.3-.9-12.5v-.9c3-2,3.2,1.5,4.6,2.4S119.5,105.5,121.5,105.9Z" style="fill:#ccbc9a"/><path d="M121.5,105.9l-.6.6c-.9,1.3.7,3.9-1.2,4.2s-2.5-1.9-2.9-3.7-1.5-1-2.5-1.1c.6-4.2,1.5-8.4,1.7-12.6s1.3-3.8,4-3.7c.5.1.8.4.7.9v1.1c1,2.3.6,4.9,1.8,7.1S122.9,103.6,121.5,105.9Z" style="fill:#c9bd9a"/><path d="M122.4,98.7c-2.2-2-1.7-4.6-1.8-7.1h.7l1.2,4.5.6,2.7Z" style="fill:#c6b99b"/><path d="M120.7,90.5l-.7-.9-.3-1.6a2,2,0,0,1,.9-1.9c1.2.9.9,2.3,1,3.6Z" style="fill:#524536"/><path d="M128.7,73.5c0-.5.2-.7.8-.7S129.3,73.5,128.7,73.5Z" style="fill:#574936"/><path d="M96.2,88.4l.9.5c1.3.8,1.2,2.4,1.9,3.6h0c.7,1.8,1,3.6-.2,5.3s-.6,1.2-.7,1.8-1.4,3-3.4,1.7-.3-3.1-.2-4.7.1-4.3-2.1-5.3c-4.4-1.9-1.4-2.9.4-4.1A3,3,0,0,1,96.2,88.4Z" style="fill:#f0f0ee"/><path d="M76.6,90.6c1.2-1.6,2.9-.6,4.4-.8.8,2.6,1.1,5.3-.2,7.9-1.9.8-3.1-.3-4.1-1.7A7.2,7.2,0,0,1,76.6,90.6Z" style="fill:#f6f6f6"/><path d="M90,104a2,2,0,0,1-2,2.1c-1.3,0-2.6-.2-2.7-1.7s.8-1.8,2-1.9A2.5,2.5,0,0,1,90,104Z" style="fill:#d4d2d3"/><path d="M80.8,97.7c1.1-2.6.8-5.3.2-7.9C82.6,92.5,82.9,95.1,80.8,97.7Z" style="fill:#181715"/><path d="M94.7,101.2c1.5.4,2.4-.8,3.4-1.7C97.8,101.8,97,103.2,94.7,101.2Z" style="fill:#101110"/><path d="M98.8,97.7c.1-1.7.2-3.5.2-5.3C100.4,94.3,100.6,96,98.8,97.7Z" style="fill:#101110"/><path d="M76.6,90.6c0,1.8,0,3.6.1,5.4C75.2,94.2,75.3,92.5,76.6,90.6Z" style="fill:#181715"/><path d="M96.2,88.4l-3.4-1.3C94.6,85.6,95.5,86.9,96.2,88.4Z" style="fill:#101110"/><path d="M99,92.5l-1.9-3.6C99,89.4,99.2,90.9,99,92.5Z" style="fill:#101110"/><path d="M74.9,77.2h2.6l.9.9c-1.1,1.6-2,3.7-4.7,2.3Z" style="fill:#c9bd96"/><path d="M78.4,78.1c1.4.1,2.9-.3,4.3.6C79.3,80.8,79.3,80.8,78.4,78.1Z" style="fill:#ccbba2"/><path d="M60.4,96.8c2,.9,4.1,1.7,2.8,4.6-1.2,0-2.3.9-3.5,0s-.1-1.2-.2-1.8Z" style="fill:#c4b593"/><path d="M63.2,102.2a7,7,0,0,1,1.9,3.6,1.8,1.8,0,0,1-1.8.9C63.3,105.2,63.2,103.7,63.2,102.2Z" style="fill:#20120c"/><path d="M64.3,92.3a5.7,5.7,0,0,1,.6,4.6,1.8,1.8,0,0,1-1.8-.9,1.4,1.4,0,0,1,.1-1.8C64.1,93.9,63.9,93,64.3,92.3Z" style="fill:#b7ac96"/><path d="M63.2,94.2a10.9,10.9,0,0,1-.1,1.8c-1.4-1.2-.6-2.9-.8-4.3C63.7,92.1,63,93.3,63.2,94.2Z" style="fill:#cec2ab"/><path d="M103.5,120.3c2.1.5,5.4-3.2,6.3,1.7C108.3,119.3,105.2,122.4,103.5,120.3Z" style="fill:#915717"/><path d="M112.5,122.1h-.7l-.3-2.7.3-.9c.9.1,1.9,0,2.5.9v.9A3.7,3.7,0,0,1,112.5,122.1Z" style="fill:#aa987d"/><path d="M120.6,86.1a2.3,2.3,0,0,1-.9,1.9c-1.4-.6-.5-1.9-.9-2.7s.2-1.5,1-1.9h1.5A25,25,0,0,1,120.6,86.1Z" style="fill:#28211a"/><path d="M138.5,74.5c1.1-.3,2.5-1.5,2.7.9-.9.2-1.8,1.4-2.7,0Z" style="fill:#cab996"/><path d="M123.3,124.7c-1.8-.3-3.8.7-5.4-.8H126C125.3,124.9,124.3,124.7,123.3,124.7Z" style="fill:#8a561a"/><path d="M112.5,122.1a1.7,1.7,0,0,1,1.8-1.9c1.2.1,1.8.6,1.8,1.8a1.5,1.5,0,0,1-.1.7l-1.6.4C113.7,122.9,112.8,122.9,112.5,122.1Z" style="fill:#d0c3ad"/></svg>