<svg version="1.1" id="Layer_1" xmlns="http://www.w3.org/2000/svg" xmlns:xlink="http://www.w3.org/1999/xlink" x="0px" y="0px"
	 width="100%" viewBox="0 0 3000 3000" enable-background="new 0 0 3000 3000" xml:space="preserve">
<path fill="#36353E" opacity="1.000000" stroke="none" 
	d="
M1596.000000,3002.000000 
	C1064.000122,3002.000000 533.000183,3002.000000 2.000214,3002.000000 
	C2.000143,2002.000244 2.000143,1002.000549 2.000071,2.000617 
	C1001.999512,2.000411 2001.999023,2.000411 3001.999023,2.000206 
	C3001.999268,1001.999329 3001.999268,2001.998657 3001.999512,3001.999023 
	C2533.666748,3002.000000 2065.333252,3002.000000 1596.000000,3002.000000 
z"/>
<path fill="#080504" opacity="1.000000" stroke="none" 
	d="
M1211.411987,2106.596680 
	C1172.455322,2085.226318 1138.514893,2058.581543 1109.410156,2026.044800 
	C1080.208740,1993.400024 1058.368530,1956.277344 1044.607056,1914.578491 
	C1035.199951,1886.073364 1031.346436,1856.695190 1034.452148,1826.923340 
	C1038.888794,1784.391479 1048.735107,1743.062744 1066.089478,1703.735107 
	C1070.522583,1693.688965 1074.215820,1683.326294 1079.216675,1673.512695 
	C1082.656372,1666.762329 1082.588257,1666.268921 1076.491821,1662.227051 
	C1070.356689,1658.159668 1064.750977,1653.561523 1059.352051,1648.559814 
	C1024.590332,1616.355347 1004.043945,1576.671509 996.132019,1530.123901 
	C991.078796,1500.394531 990.996521,1470.644287 993.618896,1440.661377 
	C997.751770,1393.407837 1010.946594,1348.620361 1028.819092,1305.009644 
	C1042.021973,1272.793335 1060.100586,1243.332275 1079.991943,1214.877808 
	C1100.274658,1185.863892 1123.016846,1158.994751 1148.602539,1134.531250 
	C1169.556641,1114.496460 1192.040527,1096.325806 1215.434814,1079.224976 
	C1245.802124,1057.026855 1277.731323,1037.067505 1307.714844,1014.309509 
	C1333.332397,994.865295 1356.438599,972.935486 1375.353271,946.913086 
	C1393.420044,922.056946 1405.670288,894.967163 1408.557129,863.631104 
	C1410.887695,838.334290 1406.248413,815.513184 1392.418335,794.352478 
	C1389.631470,790.088562 1385.806885,786.893982 1382.492065,783.177856 
	C1379.880981,780.250732 1376.167358,778.233765 1374.625488,773.634277 
	C1379.328003,770.979187 1384.206787,772.165222 1388.952393,772.817139 
	C1408.862183,775.552307 1427.758911,782.180420 1446.576416,788.742371 
	C1481.070435,800.770935 1513.158325,817.564758 1542.036133,840.104614 
	C1573.654053,864.783020 1600.192139,893.829285 1617.953979,930.196167 
	C1626.189575,947.058472 1632.198364,964.706848 1633.943604,983.458618 
	C1634.855957,993.259338 1639.299561,998.623840 1648.585938,1002.099182 
	C1706.472900,1023.762878 1758.467041,1055.722656 1806.927124,1093.773438 
	C1828.703613,1110.872314 1849.371338,1129.187134 1868.171265,1149.493530 
	C1889.641479,1172.684570 1910.661987,1196.177612 1926.318970,1224.066040 
	C1935.096313,1239.700684 1946.179199,1254.014038 1955.033325,1269.699097 
	C1979.435303,1312.927612 1997.156860,1358.507812 2006.584106,1407.447998 
	C2012.055176,1435.851196 2013.530396,1464.386230 2011.567017,1492.900513 
	C2008.268311,1540.809204 1992.734741,1584.686890 1962.036621,1622.242676 
	C1953.227661,1633.019409 1943.283447,1642.994629 1931.925781,1651.353760 
	C1923.610962,1657.473267 1923.889404,1657.523193 1927.773315,1667.642578 
	C1936.359863,1690.015015 1945.261597,1712.287231 1953.061035,1734.935669 
	C1961.847778,1760.450928 1967.748291,1786.802734 1971.534668,1813.505737 
	C1977.815674,1857.801880 1970.628906,1900.191040 1952.533813,1941.022949 
	C1938.924683,1971.732056 1920.759888,1999.261475 1898.785522,2024.633911 
	C1870.981323,2056.737793 1838.116943,2082.225830 1801.496582,2103.344971 
	C1767.129761,2123.164062 1730.364014,2136.374268 1691.776367,2144.999512 
	C1678.082153,2148.060547 1664.094482,2148.213379 1650.266113,2149.905518 
	C1577.643066,2158.791504 1504.668213,2156.415283 1431.797607,2155.509277 
	C1408.970093,2155.225342 1385.997803,2153.916016 1363.249634,2150.492676 
	C1347.841431,2148.173828 1332.122070,2148.362793 1316.765503,2145.193359 
	C1282.967285,2138.218018 1250.778564,2126.760742 1220.093262,2111.015137 
	C1217.424072,2109.645508 1214.744385,2108.296387 1211.411987,2106.596680 
z"/>
<path fill="#FAECD7" opacity="1.000000" stroke="none" 
	d="
M2238.230469,1959.678711 
	C2233.840332,1956.623901 2230.045654,1953.961914 2225.609131,1950.849731 
	C2231.109131,1942.801758 2236.372314,1935.192749 2241.522949,1927.508301 
	C2243.148438,1925.083252 2244.883789,1924.549683 2247.277100,1926.324341 
	C2248.881592,1927.514404 2250.545410,1928.624878 2252.192139,1929.757324 
	C2291.724854,1956.943848 2331.258545,1984.129150 2370.793457,2011.312744 
	C2372.166016,2012.256592 2373.518799,2013.234131 2374.936523,2014.105713 
	C2377.950439,2015.958740 2379.100342,2017.914917 2376.625244,2021.320190 
	C2371.358887,2028.566650 2366.418213,2036.050049 2360.974121,2043.975220 
	C2346.687012,2034.192261 2332.984619,2024.786865 2319.257568,2015.417480 
	C2308.708740,2008.217529 2310.889404,2007.887207 2303.735596,2018.172607 
	C2293.271484,2033.216675 2282.905273,2048.329102 2272.574951,2063.465332 
	C2268.425293,2069.545898 2268.464600,2069.687500 2274.744141,2074.044189 
	C2287.610107,2082.970459 2300.573730,2091.756836 2313.428955,2100.698730 
	C2319.094727,2104.639893 2319.068359,2104.781494 2315.134277,2110.660889 
	C2311.428955,2116.198486 2307.520508,2121.601562 2303.865234,2127.171143 
	C2301.783447,2130.343018 2299.787598,2130.788818 2296.572754,2128.479004 
	C2288.456787,2122.648193 2280.114014,2117.133545 2271.877197,2111.470459 
	C2238.656250,2088.630371 2205.451904,2065.765869 2172.215576,2042.948120 
	C2164.420898,2037.596680 2165.444092,2038.223145 2169.868164,2031.718872 
	C2173.428955,2026.484497 2177.220459,2021.395996 2180.555176,2016.022705 
	C2182.895996,2012.250488 2185.028076,2012.246826 2188.490723,2014.675415 
	C2204.038330,2025.579956 2219.741455,2036.263062 2235.389893,2047.023804 
	C2237.311523,2048.345215 2239.332764,2049.540283 2241.146973,2050.994385 
	C2244.038086,2053.311035 2246.100586,2053.117432 2248.310547,2049.862305 
	C2260.100830,2032.495850 2271.975098,2015.184570 2284.008545,1997.986328 
	C2286.497314,1994.429443 2286.084229,1992.422729 2282.520996,1990.024292 
	C2267.872803,1980.163574 2253.377930,1970.075806 2238.230469,1959.678711 
z"/>
<path fill="#FAECD7" opacity="1.000000" stroke="none" 
	d="
M908.416504,2244.945801 
	C903.901123,2241.798096 902.620056,2245.349854 900.979187,2247.532715 
	C892.178162,2259.240479 883.467407,2271.016602 874.727905,2282.770508 
	C873.734741,2284.106201 872.571960,2285.355225 871.803589,2286.811279 
	C869.085266,2291.961914 866.077637,2290.832520 862.372803,2287.775635 
	C857.756714,2283.966797 852.769653,2280.611328 848.005554,2276.978027 
	C842.144104,2272.507568 842.097229,2272.415527 846.649780,2266.281982 
	C872.045105,2232.067139 897.480652,2197.882080 922.900208,2163.685303 
	C927.467896,2157.540771 932.176270,2151.492920 936.529297,2145.199707 
	C938.971130,2141.669189 941.126465,2141.163330 944.563293,2143.928223 
	C950.006287,2148.306641 955.596375,2152.540039 961.403625,2156.416260 
	C965.650513,2159.250977 965.025208,2161.551025 962.272705,2165.166748 
	C950.176636,2181.057861 938.316345,2197.129395 926.459167,2213.200928 
	C920.751587,2220.937012 921.003418,2219.656738 928.428467,2225.237549 
	C943.329468,2236.437012 958.334534,2247.498291 973.320557,2258.584473 
	C980.374512,2263.802734 980.460510,2263.813965 985.493835,2257.070557 
	C997.242432,2241.331787 1008.908447,2225.531006 1020.661682,2209.795654 
	C1022.016541,2207.981689 1023.014404,2205.749023 1026.041504,2204.595703 
	C1033.963013,2210.491211 1042.184814,2216.610352 1050.184082,2222.563965 
	C1049.407593,2226.779053 1046.804321,2229.057373 1044.859131,2231.680420 
	C1016.303589,2270.182617 987.694641,2308.645508 959.096375,2347.116211 
	C957.904907,2348.718994 956.641174,2350.270752 955.505676,2351.911621 
	C953.788879,2354.392090 951.980835,2354.339600 949.684204,2352.587402 
	C943.597717,2347.943604 937.540771,2343.240967 931.219238,2338.932129 
	C927.302185,2336.262451 928.149414,2334.025879 930.521484,2330.896729 
	C939.772034,2318.694580 948.860596,2306.369141 957.980347,2294.068115 
	C963.845276,2286.156982 963.844604,2286.110352 956.330933,2280.521729 
	C940.571716,2268.800293 924.786865,2257.113281 908.416504,2244.945801 
z"/>
<path fill="#FAECD7" opacity="1.000000" stroke="none" 
	d="
M1090.753662,638.977539 
	C1108.694336,630.826538 1125.968018,623.034363 1143.623169,615.070129 
	C1139.961426,604.177246 1134.794922,594.513672 1130.425537,584.520081 
	C1127.491577,577.809631 1124.785522,570.969666 1121.366821,564.510925 
	C1118.742432,559.552917 1120.370605,557.445862 1124.995728,555.630859 
	C1130.565674,553.445007 1135.899536,550.664734 1141.384644,548.253601 
	C1148.227661,545.245605 1148.351807,545.248413 1151.495361,552.187927 
	C1166.879395,586.148499 1182.213867,620.131531 1197.545288,654.115906 
	C1203.554565,667.436157 1209.510132,680.780518 1215.654053,694.479309 
	C1206.288452,699.877258 1196.728516,703.549194 1186.411743,708.127136 
	C1176.173218,685.589844 1166.033325,663.269592 1155.577148,640.252808 
	C1144.395264,645.243774 1133.831299,649.932739 1123.289795,654.671692 
	C1113.573608,659.039734 1103.964844,663.660339 1094.141724,667.770447 
	C1089.667480,669.642517 1089.013550,671.774414 1091.014404,676.082031 
	C1099.146851,693.590454 1106.983398,711.236206 1114.934082,728.828979 
	C1115.756592,730.648682 1116.588379,732.464966 1117.459351,734.261841 
	C1118.852783,737.136841 1118.577148,739.083252 1115.189575,740.496643 
	C1107.820923,743.571228 1100.571655,746.941467 1093.345703,750.343994 
	C1090.534424,751.667847 1089.070068,750.753052 1087.947144,748.148254 
	C1085.838867,743.257996 1083.615479,738.417236 1081.423584,733.563232 
	C1062.792358,692.302917 1044.146118,651.049316 1025.533447,609.780518 
	C1022.147644,602.273438 1022.187439,602.198914 1029.229858,598.933716 
	C1034.968018,596.273132 1040.877563,593.959412 1046.500122,591.079651 
	C1050.490356,589.035889 1052.391113,590.103516 1054.095825,594.000549 
	C1059.965576,607.418762 1066.093140,620.724060 1072.122314,634.072449 
	C1073.081543,636.196411 1074.190186,638.267639 1074.964478,640.457092 
	C1076.289429,644.204224 1078.515869,644.790588 1081.896484,643.031189 
	C1084.549194,641.650696 1087.351318,640.557312 1090.753662,638.977539 
z"/>
<path fill="#FAECD7" opacity="1.000000" stroke="none" 
	d="
M608.211426,1849.923462 
	C593.466797,1856.311890 579.460083,1862.474609 565.415955,1868.550781 
	C558.327209,1871.617798 558.251343,1871.567383 555.263855,1865.002197 
	C552.783936,1859.552490 550.359253,1854.075439 548.032593,1848.558716 
	C545.362854,1842.228882 545.366516,1842.079102 551.837585,1839.231079 
	C577.109070,1828.109741 602.414062,1817.064453 627.715210,1806.010620 
	C648.139160,1797.087402 668.559021,1788.154785 689.016052,1779.308105 
	C695.608093,1776.457275 695.732117,1776.542480 698.569824,1782.729248 
	C701.204407,1788.473389 703.321167,1794.481201 706.296692,1800.035034 
	C708.989746,1805.061523 707.100220,1806.861694 702.521118,1808.794312 
	C684.133118,1816.555176 665.877380,1824.630981 647.607239,1832.668701 
	C640.329956,1835.870117 640.311768,1835.988159 643.538574,1843.445190 
	C651.069031,1860.847656 658.626770,1878.238647 666.245728,1895.602417 
	C669.616150,1903.283691 669.718506,1903.300903 677.850098,1899.758789 
	C695.539490,1892.053467 713.190369,1884.259766 730.883850,1876.563965 
	C738.167236,1873.396118 738.219788,1873.459106 741.549988,1880.935181 
	C743.715637,1885.796997 745.848572,1890.674194 747.925537,1895.574463 
	C751.099243,1903.062500 751.111450,1903.160156 743.792053,1906.381470 
	C723.696350,1915.225220 703.563049,1923.983398 683.449219,1932.786133 
	C658.459229,1943.722656 633.482544,1954.689453 608.481445,1965.600708 
	C600.728943,1968.984253 600.687866,1968.926758 597.122803,1960.945923 
	C594.952087,1956.086426 592.787598,1951.223145 590.696655,1946.329102 
	C587.686462,1939.283447 587.675781,1939.179688 594.384644,1936.209229 
	C607.768616,1930.283325 621.202148,1924.469238 634.613647,1918.605347 
	C636.442749,1917.805786 638.222717,1916.873901 640.096252,1916.200195 
	C643.420715,1915.005005 643.711182,1913.056763 642.317688,1910.024170 
	C639.262939,1903.375977 636.497986,1896.595093 633.573547,1889.886353 
	C628.123230,1877.383179 622.483521,1864.959351 617.259155,1852.362915 
	C615.318665,1847.684082 612.813416,1847.162598 608.211426,1849.923462 
z"/>
<path fill="#FAECD7" opacity="1.000000" stroke="none" 
	d="
M2352.912842,1063.816650 
	C2362.063477,1083.931152 2370.987549,1103.259155 2380.019775,1122.536621 
	C2382.974609,1128.843384 2383.149414,1128.884033 2389.486084,1125.967529 
	C2403.989502,1119.292114 2418.534912,1112.695190 2432.864502,1105.661499 
	C2437.549805,1103.361694 2440.034180,1103.800537 2441.921387,1108.808960 
	C2443.675781,1113.465698 2446.079590,1117.874512 2448.120117,1122.427246 
	C2452.785889,1132.838623 2454.799805,1131.255981 2443.306641,1136.619019 
	C2413.766846,1150.402832 2384.247559,1164.230957 2354.716064,1178.032349 
	C2339.949951,1184.933228 2325.197998,1191.866211 2310.391846,1198.680542 
	C2303.994141,1201.625122 2303.842773,1201.551758 2300.826172,1195.273315 
	C2297.372314,1188.084717 2294.111816,1180.803223 2290.831787,1173.701416 
	C2292.749756,1170.132935 2296.316650,1169.585938 2299.215820,1168.209839 
	C2316.343262,1160.080078 2333.570557,1152.161621 2350.727295,1144.093262 
	C2357.759521,1140.786255 2357.830566,1140.644409 2354.788574,1134.068726 
	C2346.549316,1116.258179 2338.250000,1098.474731 2329.877930,1080.726318 
	C2326.851318,1074.310425 2326.664795,1074.238647 2320.398438,1077.137085 
	C2301.983887,1085.654907 2283.625732,1094.295410 2265.232422,1102.859497 
	C2263.449219,1103.689819 2261.574219,1104.322632 2258.945068,1105.362061 
	C2254.895020,1096.766479 2251.040771,1088.373535 2246.978027,1080.082642 
	C2245.596924,1077.264526 2246.522705,1075.726074 2249.018311,1074.563843 
	C2251.128662,1073.580933 2253.251709,1072.624634 2255.361084,1071.639282 
	C2298.455811,1051.506714 2341.549805,1031.372070 2384.642578,1011.235046 
	C2386.450439,1010.390259 2388.261475,1009.549683 2390.043457,1008.652283 
	C2392.496338,1007.416809 2394.485840,1007.550720 2395.770508,1010.326416 
	C2399.263184,1017.871765 2402.744873,1025.422729 2406.301758,1032.937744 
	C2408.087158,1036.709473 2405.233154,1037.432739 2402.833008,1038.554199 
	C2388.970459,1045.030762 2375.099609,1051.490356 2361.267822,1058.031982 
	C2358.291748,1059.439453 2354.970947,1060.319946 2352.912842,1063.816650 
z"/>
<path fill="#FAECD7" opacity="1.000000" stroke="none" 
	d="
M652.577271,942.467041 
	C660.581604,931.605835 658.276001,932.169128 668.572998,939.545532 
	C680.490417,948.082947 692.465149,956.552429 704.115173,965.444336 
	C708.409241,968.721741 710.615540,968.013062 713.558228,963.854431 
	C725.297485,947.264465 737.216553,930.797668 749.338501,914.485413 
	C752.319702,910.473572 751.542175,908.537415 747.696472,905.862061 
	C735.390686,897.300964 723.324768,888.393127 711.224609,879.539429 
	C708.579590,877.604004 705.569946,876.023071 703.242126,872.605164 
	C708.466736,865.373779 713.761169,858.171692 718.903564,850.862732 
	C720.809082,848.154480 722.707458,847.327332 725.373352,849.751526 
	C726.107666,850.419312 726.990906,850.922424 727.800232,851.508728 
	C768.815125,881.218567 809.831055,910.927063 850.835022,940.652039 
	C851.892883,941.418945 852.818909,942.367615 854.466858,943.809326 
	C848.994141,951.420410 843.555664,958.894836 838.219788,966.441772 
	C835.493469,970.297729 833.217896,967.904175 830.792297,966.145081 
	C817.306091,956.364929 803.819336,946.585449 790.311401,936.835388 
	C785.478394,933.346863 780.585327,929.941345 775.097107,926.057434 
	C760.727600,945.868835 746.698120,965.211365 732.045227,985.413452 
	C752.198364,1000.065918 772.033325,1014.487061 792.525146,1029.385742 
	C786.796570,1037.336548 781.350159,1044.828857 775.985901,1052.379639 
	C774.274353,1054.788818 772.402588,1054.970703 770.140625,1053.297607 
	C769.069702,1052.505493 767.991882,1051.722656 766.913391,1050.940796 
	C726.447693,1021.609192 685.980225,992.279968 645.521484,962.938660 
	C644.195496,961.976990 642.958191,960.893066 640.817200,959.173340 
	C644.666199,953.689270 648.402710,948.365601 652.577271,942.467041 
z"/>
<path fill="#FAECD7" opacity="1.000000" stroke="none" 
	d="
M2012.913818,656.817810 
	C2018.723511,648.625366 2024.164185,641.049622 2029.446899,633.365173 
	C2031.312256,630.651794 2032.973633,630.009949 2035.864868,632.151123 
	C2043.061401,637.480408 2050.460693,642.535828 2058.592041,648.275330 
	C2046.724854,665.238220 2035.187378,681.729736 2023.215576,698.842163 
	C2030.469116,703.991089 2037.195068,708.782532 2043.938721,713.548828 
	C2055.090332,721.430359 2066.221924,729.341309 2077.425293,737.148376 
	C2083.055664,741.072021 2083.210205,741.045776 2087.315674,735.283447 
	C2095.819580,723.348511 2104.189941,711.318542 2112.677734,699.372131 
	C2114.579834,696.694763 2116.144531,693.690247 2119.473389,691.314453 
	C2126.780029,696.440796 2134.068115,701.619019 2141.432373,706.686890 
	C2144.165527,708.567871 2144.853760,710.539917 2142.555176,713.217529 
	C2141.692139,714.222839 2141.030762,715.400085 2140.262695,716.488464 
	C2112.037598,756.493896 2083.823730,796.507324 2055.571045,836.493286 
	C2050.782715,843.270081 2051.561768,844.623840 2043.529663,838.706421 
	C2037.386841,834.180847 2031.100830,829.849426 2024.680420,825.290955 
	C2026.916260,819.915344 2030.472656,815.936890 2033.479492,811.639709 
	C2043.599487,797.176208 2053.775391,782.751587 2064.015869,768.373169 
	C2066.021973,765.556335 2066.847900,763.487671 2063.300537,761.019287 
	C2044.745483,748.108521 2026.321655,735.009033 2007.269287,721.563721 
	C2003.030029,727.451904 1999.150513,732.765991 1995.348999,738.135132 
	C1986.111084,751.182739 1976.716797,764.126465 1967.799438,777.390320 
	C1964.737061,781.945374 1962.371582,781.914185 1958.424805,778.758728 
	C1953.491455,774.814453 1948.087769,771.464294 1942.971191,767.741943 
	C1937.557007,763.803284 1937.520386,763.687561 1941.650024,757.827209 
	C1964.864258,724.884155 1988.120361,691.970703 2011.360718,659.046021 
	C2011.744873,658.501770 2012.109131,657.943481 2012.913818,656.817810 
z"/>
<path fill="#FAECD7" opacity="1.000000" stroke="none" 
	d="
M1889.883179,2385.765625 
	C1896.243042,2399.072021 1902.186890,2411.729248 1908.453247,2424.225342 
	C1910.323730,2427.955078 1910.287964,2430.152100 1906.119507,2431.985352 
	C1899.419678,2434.932373 1892.859985,2438.209229 1886.320435,2441.504395 
	C1882.798462,2443.279541 1880.965454,2442.177734 1879.388916,2438.760010 
	C1874.927856,2429.089355 1870.199463,2419.542480 1865.574097,2409.947754 
	C1848.661987,2374.865234 1831.749023,2339.783203 1814.836670,2304.700928 
	C1813.969360,2302.901611 1813.108643,2301.099121 1812.238647,2299.301025 
	C1811.018921,2296.780518 1811.385254,2295.017822 1814.202881,2293.727783 
	C1821.464966,2290.402832 1828.713989,2287.027344 1835.796021,2283.341309 
	C1839.279663,2281.528320 1840.548462,2283.226074 1841.832642,2285.915039 
	C1847.284058,2297.329102 1852.775635,2308.724365 1858.260864,2320.122559 
	C1862.158203,2328.221191 1866.176392,2336.264404 1869.923218,2344.431885 
	C1871.573120,2348.028564 1873.476196,2348.377197 1876.934692,2346.683838 
	C1895.769043,2337.462158 1914.671387,2328.375977 1933.638672,2319.430908 
	C1937.723755,2317.504150 1937.690430,2315.261963 1935.938965,2311.676514 
	C1927.027344,2293.433594 1918.267212,2275.116211 1909.501831,2256.802002 
	C1906.067017,2249.625732 1906.112061,2249.573975 1913.315796,2246.030518 
	C1918.393433,2243.532959 1923.485718,2241.062988 1928.613525,2238.670654 
	C1935.150757,2235.621094 1935.265137,2235.614014 1938.617798,2242.561523 
	C1960.174561,2287.229736 1981.698486,2331.914307 2003.198853,2376.610107 
	C2006.463379,2383.396484 2006.400635,2383.476807 1999.772217,2386.768311 
	C1994.108032,2389.580811 1988.226318,2391.998535 1982.748413,2395.129150 
	C1978.292236,2397.675293 1976.337524,2396.149658 1974.422852,2392.054199 
	C1967.797241,2377.882080 1960.965454,2363.805664 1954.144531,2349.725586 
	C1950.454102,2342.107422 1950.367310,2342.085205 1942.595093,2345.804199 
	C1925.779907,2353.850342 1908.981689,2361.932129 1892.199707,2370.047119 
	C1884.356689,2373.839600 1884.377075,2373.892334 1887.841187,2381.463867 
	C1888.394897,2382.674316 1889.005981,2383.858398 1889.883179,2385.765625 
z"/>
<path fill="#FAECD7" opacity="1.000000" stroke="none" 
	d="
M2346.919434,1624.458252 
	C2347.366699,1619.590576 2347.942871,1615.609619 2347.945068,1611.628540 
	C2347.947510,1607.171875 2349.963623,1605.873413 2354.134766,1606.285278 
	C2364.401123,1607.299072 2374.688721,1608.099243 2384.967773,1608.986694 
	C2395.578125,1609.902832 2406.200928,1610.701416 2416.793213,1611.793457 
	C2421.290771,1612.257202 2423.458252,1611.142822 2423.793213,1606.145996 
	C2425.151611,1585.890015 2426.700684,1565.643311 2428.533691,1545.425293 
	C2429.015381,1540.113892 2427.356934,1538.417480 2422.149902,1538.079590 
	C2403.885010,1536.893799 2385.647461,1535.289917 2367.400635,1533.827637 
	C2364.415771,1533.588379 2361.432129,1533.310791 2358.458496,1532.961060 
	C2355.664307,1532.632324 2354.524902,1531.117065 2354.803711,1528.195435 
	C2355.498535,1520.907104 2356.119385,1513.606445 2356.517090,1506.296875 
	C2356.769775,1501.650146 2358.602051,1500.091919 2363.440674,1500.534790 
	C2387.302979,1502.719360 2411.196533,1504.559326 2435.077637,1506.538086 
	C2459.953613,1508.598999 2484.859131,1510.370850 2509.689941,1512.879639 
	C2522.481934,1514.171997 2520.734375,1511.601685 2520.050537,1524.911743 
	C2519.777344,1530.225708 2518.957520,1535.513672 2518.741699,1540.828003 
	C2518.558594,1545.332031 2516.295410,1546.224365 2512.297119,1545.855835 
	C2497.052734,1544.450928 2481.797119,1543.143799 2466.531250,1541.995117 
	C2456.355225,1541.229370 2456.666016,1540.509644 2455.922607,1550.851929 
	C2454.562500,1569.773926 2453.150391,1588.698120 2451.272705,1607.572998 
	C2450.740234,1612.927124 2452.456299,1614.665039 2457.410156,1615.010986 
	C2471.021484,1615.961182 2484.617432,1617.137695 2498.217041,1618.253296 
	C2501.201416,1618.497925 2504.170410,1618.949341 2507.156982,1619.146851 
	C2510.828613,1619.389404 2512.421875,1620.939697 2511.967773,1624.866577 
	C2511.127197,1632.136841 2510.498047,1639.441040 2510.094482,1646.748413 
	C2509.878906,1650.654053 2508.211182,1651.980225 2504.447266,1651.602051 
	C2497.162842,1650.869873 2489.859619,1650.325562 2482.562256,1649.724243 
	C2441.100586,1646.307251 2399.617432,1643.122925 2358.187256,1639.357178 
	C2344.179932,1638.084106 2345.636963,1640.515259 2346.919434,1624.458252 
z"/>
<path fill="#FAECD7" opacity="1.000000" stroke="none" 
	d="
M558.602173,1362.241333 
	C546.661194,1357.302612 534.199951,1358.060425 522.119263,1356.141479 
	C515.880188,1355.150391 509.562683,1354.553467 503.257172,1354.117920 
	C499.535614,1353.860718 497.761139,1352.560425 498.234772,1348.621460 
	C499.109039,1341.350342 499.936127,1334.069214 500.558716,1326.773193 
	C500.942413,1322.276245 503.394440,1321.466919 507.332184,1321.905151 
	C522.221436,1323.561646 537.133972,1325.007446 552.028259,1326.620239 
	C586.779907,1330.383301 621.523804,1334.216797 656.275879,1337.975952 
	C664.411987,1338.855957 664.485779,1338.777222 663.846680,1346.877319 
	C663.559021,1350.523926 662.930298,1354.142456 662.498474,1357.778809 
	C660.923706,1371.040894 660.919739,1371.142700 647.286316,1369.711304 
	C630.732666,1367.973145 614.217163,1365.856079 597.650940,1364.257324 
	C585.637695,1363.097778 586.782104,1362.511963 585.706177,1373.699829 
	C584.049194,1390.929321 581.843994,1408.105591 580.103271,1425.327881 
	C578.994812,1436.295166 579.179932,1436.341064 590.516846,1437.578247 
	C609.049316,1439.601074 627.592651,1441.526611 646.117554,1443.615723 
	C652.901917,1444.380981 652.972717,1444.547974 652.366028,1451.409424 
	C651.779663,1458.040649 650.765808,1464.640015 650.362610,1471.279175 
	C650.120911,1475.258179 648.407288,1476.449219 644.705872,1476.028320 
	C637.098389,1475.163330 629.469238,1474.491577 621.856628,1473.669556 
	C579.159790,1469.058960 536.464783,1464.431396 493.770294,1459.798828 
	C486.634735,1459.024658 486.602356,1458.996582 487.315033,1452.045166 
	C487.994049,1445.421875 488.952301,1438.820801 489.413208,1432.183960 
	C489.715363,1427.833008 491.359741,1426.698730 495.736603,1427.226318 
	C511.599976,1429.138428 527.507080,1430.706421 543.414734,1432.224854 
	C551.308289,1432.978394 551.330688,1432.802490 552.192505,1424.741455 
	C554.386841,1404.217285 556.575623,1383.692627 558.602173,1362.241333 
z"/>
<path fill="#FAECD7" opacity="1.000000" stroke="none" 
	d="
M1354.369629,2442.083496 
	C1350.028809,2454.192383 1350.203491,2466.604248 1348.210449,2478.702637 
	C1347.237061,2484.612061 1346.372803,2490.589355 1346.168213,2496.560303 
	C1345.987671,2501.825928 1343.387085,2502.568115 1339.074951,2501.972168 
	C1333.137207,2501.151611 1327.170044,2500.545898 1321.216309,2499.841309 
	C1313.517456,2498.930176 1313.295166,2498.904785 1314.066162,2491.377930 
	C1315.355713,2478.788086 1316.915771,2466.224854 1318.442383,2453.660400 
	C1322.901978,2416.959961 1327.409302,2380.265625 1331.878662,2343.566406 
	C1332.859375,2335.513672 1332.824463,2335.496094 1341.119141,2336.458008 
	C1346.412720,2337.072266 1351.705444,2337.696289 1356.990112,2338.380859 
	C1364.596558,2339.365967 1364.857178,2339.420898 1364.023926,2346.894531 
	C1361.846558,2366.424072 1359.670288,2385.960693 1356.977783,2405.423340 
	C1355.646240,2415.047852 1357.379395,2413.954346 1363.820679,2414.690918 
	C1383.011963,2416.886475 1402.158203,2419.471924 1421.342285,2421.734375 
	C1429.130249,2422.652832 1429.086670,2422.444824 1430.079834,2414.011719 
	C1432.300537,2395.156250 1434.496216,2376.297363 1436.903198,2357.465576 
	C1438.061768,2348.401367 1438.267578,2348.430664 1447.019287,2349.494629 
	C1452.640015,2350.178223 1458.251099,2351.264893 1463.886475,2351.412598 
	C1469.572144,2351.561768 1470.306396,2354.318115 1469.692871,2359.069824 
	C1467.431885,2376.576904 1465.375122,2394.110352 1463.250244,2411.634766 
	C1459.481934,2442.715332 1455.718872,2473.796631 1451.959351,2504.877930 
	C1451.839233,2505.870117 1451.817383,2506.874512 1451.686157,2507.864990 
	C1450.746460,2514.962158 1450.732056,2515.054932 1443.806641,2514.381592 
	C1437.177490,2513.736572 1430.585205,2512.658936 1423.947266,2512.175293 
	C1419.634521,2511.861572 1418.340088,2510.369385 1418.945190,2505.901855 
	C1421.180298,2489.400635 1423.005737,2472.843994 1424.970703,2456.306396 
	C1425.165039,2454.670410 1425.259888,2453.022949 1425.478027,2450.480957 
	C1402.033569,2446.892578 1378.636719,2444.351074 1354.369629,2442.083496 
z"/>
<path fill="#FAECD7" opacity="1.000000" stroke="none" 
	d="
M1527.847900,513.455933 
	C1528.661011,504.247406 1529.712891,495.969299 1530.056763,487.661896 
	C1530.273071,482.439575 1532.807373,481.631317 1537.141846,482.129059 
	C1544.087524,482.926544 1551.048462,483.675201 1558.024048,484.096466 
	C1562.062500,484.340393 1563.006226,486.140656 1562.622681,489.870453 
	C1561.260254,503.119263 1559.949341,516.377686 1558.930298,529.656433 
	C1557.457520,548.850403 1553.952759,545.812500 1574.101929,547.879822 
	C1590.663208,549.578979 1607.286743,550.700745 1623.824219,552.589172 
	C1629.260498,553.210083 1630.942993,551.213562 1631.373291,546.392456 
	C1632.763916,530.804260 1634.285400,515.227783 1635.777710,499.648743 
	C1636.538818,491.702240 1636.563354,491.654327 1644.812622,492.357086 
	C1650.783691,492.865784 1656.730713,493.763763 1662.709106,494.044464 
	C1666.980103,494.245026 1668.627686,495.871094 1668.185303,500.182281 
	C1667.199219,509.787598 1666.525635,519.424438 1665.609253,529.037476 
	C1661.722534,569.808716 1657.799072,610.576477 1653.874146,651.344055 
	C1653.217407,658.166138 1653.174927,658.286987 1645.872681,657.774292 
	C1639.231934,657.308044 1632.623779,656.335266 1625.980103,655.965332 
	C1621.853027,655.735535 1621.086426,653.805054 1621.454834,650.149109 
	C1622.723267,637.559570 1623.741943,624.945129 1624.928467,612.346985 
	C1625.740356,603.728577 1626.567505,595.109009 1627.597412,586.515076 
	C1628.092773,582.380981 1626.904785,580.527832 1622.442993,580.142700 
	C1601.875854,578.367432 1581.325195,576.384766 1560.790894,574.260559 
	C1556.075317,573.772766 1554.390259,575.210938 1553.986450,580.035156 
	C1552.264404,600.606323 1549.943237,621.128174 1548.317017,641.705750 
	C1547.889893,647.109985 1545.890381,648.534668 1540.931396,647.889221 
	C1534.330811,647.030029 1527.693115,646.298645 1521.049072,645.986816 
	C1516.561279,645.776245 1515.395752,643.760315 1515.806763,639.667175 
	C1516.771484,630.059448 1517.454102,620.423584 1518.382080,610.811829 
	C1521.486084,578.662903 1524.647583,546.519531 1527.847900,513.455933 
z"/>
<path fill="#F9ECD6" opacity="1.000000" stroke="none" 
	d="
M1803.055786,696.678528 
	C1801.975708,699.706299 1801.142212,701.721069 1797.874756,700.528992 
	C1790.059448,697.677673 1782.206299,694.923889 1774.317993,692.281616 
	C1771.856201,691.457031 1771.233643,689.958618 1771.912109,687.739197 
	C1772.787231,684.877197 1773.788940,682.052551 1774.785522,679.229309 
	C1787.635986,642.825195 1800.510132,606.429443 1813.340820,570.018372 
	C1816.187378,561.940552 1816.141113,561.859680 1808.036499,558.955811 
	C1797.696533,555.251099 1787.353516,551.548828 1776.940308,548.058472 
	C1773.099487,546.771118 1771.296875,545.224548 1773.272827,540.893188 
	C1776.151733,534.582397 1775.826050,525.302673 1781.276245,522.154663 
	C1786.411255,519.188660 1793.587036,524.957642 1799.764771,527.103455 
	C1830.888916,537.914429 1861.944946,548.921631 1893.009277,559.904297 
	C1900.522095,562.560364 1900.722168,562.725037 1897.821533,570.276489 
	C1895.591675,576.081360 1895.735474,584.806702 1890.291748,586.788269 
	C1885.866211,588.399170 1879.175293,583.911499 1873.529175,582.008911 
	C1867.852905,580.096008 1862.241089,577.992371 1856.574829,576.049133 
	C1846.481689,572.587646 1847.212646,571.327759 1843.464600,582.048950 
	C1831.713013,615.664490 1819.806396,649.225830 1807.964844,682.809875 
	C1806.415405,687.204102 1804.895264,691.608704 1803.055786,696.678528 
z"/>
<path fill="#F9ECD6" opacity="1.000000" stroke="none" 
	d="
M707.779663,1196.583740 
	C705.120972,1203.824341 702.507019,1210.312378 700.298401,1216.935547 
	C699.203857,1220.217651 697.552429,1221.196655 694.392090,1219.978027 
	C691.910095,1219.020874 689.381104,1218.186157 686.882324,1217.271729 
	C650.639771,1204.009521 614.404419,1190.727417 578.153015,1177.489258 
	C570.018494,1174.518677 569.935242,1174.566040 566.977722,1182.548462 
	C563.163269,1192.843872 559.384766,1203.153809 555.734253,1213.508179 
	C554.399292,1217.294434 552.613037,1219.077148 548.400024,1217.118530 
	C542.107971,1214.193237 532.830200,1214.294800 529.796936,1208.842163 
	C526.973511,1203.766846 532.792297,1196.607666 535.006531,1190.463135 
	C546.172791,1159.476074 557.543152,1128.562256 568.891724,1097.640991 
	C571.664062,1090.087524 571.817322,1089.945801 579.313232,1092.850464 
	C584.850891,1094.996460 592.769592,1095.156006 595.300598,1099.866821 
	C598.213501,1105.288696 592.537964,1111.547607 590.677185,1117.453735 
	C588.579285,1124.112427 585.960999,1130.605591 583.648071,1137.198364 
	C581.327942,1143.811401 581.320679,1143.961670 587.752258,1146.338989 
	C612.717651,1155.567139 637.715149,1164.708862 662.705994,1173.868164 
	C676.450684,1178.905518 690.193115,1183.949829 703.965881,1188.909668 
	C707.402954,1190.147339 710.325012,1191.434692 707.779663,1196.583740 
z"/>
<path fill="#F9ECD6" opacity="1.000000" stroke="none" 
	d="
M2139.501465,927.853882 
	C2173.250244,898.648376 2206.450195,869.919189 2240.221680,840.695374 
	C2229.784424,828.569641 2219.823975,816.997803 2210.023193,805.611389 
	C2210.351318,804.821228 2210.403320,804.450745 2210.612793,804.227722 
	C2216.093750,798.389526 2222.374512,793.457153 2228.559570,788.416687 
	C2236.608398,791.180054 2240.002930,798.842102 2245.069824,804.582764 
	C2266.235107,828.563416 2287.006592,852.891724 2307.945068,877.072876 
	C2313.322998,883.283813 2313.777100,882.817566 2306.993164,888.528442 
	C2302.415771,892.381775 2297.871826,899.036926 2293.118408,899.214111 
	C2287.283691,899.431641 2284.367676,891.112610 2280.089355,886.600586 
	C2274.135986,880.321594 2268.618164,873.629944 2262.870117,867.153809 
	C2262.468506,866.701233 2261.704102,866.570374 2260.619873,866.059875 
	C2252.467285,873.069702 2244.136963,880.203430 2235.837891,887.373718 
	C2211.886475,908.068298 2187.949463,928.779663 2164.002441,949.479736 
	C2157.793701,954.846497 2158.451172,955.564697 2152.549561,948.662842 
	C2148.218750,943.598022 2143.862305,938.554871 2139.481201,933.533508 
	C2138.042969,931.885071 2137.143799,930.267700 2139.501465,927.853882 
z"/>
<path fill="#F9ECD6" opacity="1.000000" stroke="none" 
	d="
M2361.965332,1347.639893 
	C2357.208984,1348.525269 2353.299316,1349.330811 2349.365479,1349.992310 
	C2341.661621,1351.287720 2341.628174,1351.260132 2340.179443,1344.069580 
	C2339.062988,1338.529053 2338.030029,1332.971558 2336.955811,1327.422363 
	C2335.465332,1319.721802 2335.462891,1319.636353 2342.815430,1318.181030 
	C2356.840576,1315.404785 2370.883545,1312.717285 2384.917236,1309.984253 
	C2410.047363,1305.090210 2435.179688,1300.206543 2460.301025,1295.269043 
	C2463.212158,1294.696777 2466.061035,1293.808472 2469.692139,1292.872559 
	C2467.385498,1280.977051 2465.169678,1269.282593 2462.839111,1257.610962 
	C2460.692139,1246.858643 2460.600098,1246.655884 2470.936768,1244.815063 
	C2476.116455,1243.892822 2482.072266,1240.281372 2486.321777,1242.853027 
	C2490.649170,1245.471924 2489.649902,1252.395020 2490.658203,1257.502319 
	C2497.355713,1291.426758 2503.997559,1325.362061 2510.619629,1359.301392 
	C2512.002441,1366.389404 2511.939941,1366.458252 2505.266113,1367.816528 
	C2500.379395,1368.811157 2495.366943,1369.308228 2490.579346,1370.635620 
	C2485.990234,1371.907837 2484.749023,1369.959839 2484.041016,1365.947510 
	C2482.018555,1354.488159 2479.555176,1343.105591 2477.600830,1331.635620 
	C2476.726318,1326.502930 2474.361572,1325.304565 2469.438965,1326.298340 
	C2433.914551,1333.470337 2398.351562,1340.452637 2361.965332,1347.639893 
z"/>
<path fill="#FAECD7" opacity="1.000000" stroke="none" 
	d="
M2124.377930,2295.796875 
	C2119.767578,2290.576416 2115.637207,2285.892578 2111.085449,2280.730957 
	C2123.070312,2270.041016 2134.447754,2259.893066 2146.429688,2249.205811 
	C2116.063965,2214.915283 2086.113037,2181.093018 2055.627197,2146.666992 
	C2062.900879,2140.227295 2069.893311,2134.125488 2076.770508,2127.896240 
	C2078.983887,2125.891602 2080.734863,2125.919678 2082.596680,2128.217041 
	C2083.853027,2129.767334 2085.230469,2131.219727 2086.555176,2132.714600 
	C2112.389893,2161.864502 2138.224609,2191.014648 2164.058350,2220.165283 
	C2164.941406,2221.161865 2165.925537,2222.090088 2166.674561,2223.179443 
	C2169.366211,2227.095459 2171.845215,2227.134521 2175.405029,2223.788086 
	C2183.647461,2216.039551 2192.229248,2208.648193 2200.752441,2201.202148 
	C2206.175537,2196.464111 2206.286621,2196.492676 2210.842529,2201.470703 
	C2214.662598,2205.644531 2218.376465,2209.916260 2222.080078,2214.194580 
	C2222.712646,2214.924805 2223.056396,2215.905029 2223.621094,2216.927979 
	C2222.708496,2217.921387 2221.897461,2218.975830 2220.920410,2219.842773 
	C2192.034180,2245.472900 2163.082031,2271.029297 2134.292480,2296.767334 
	C2130.570557,2300.094727 2127.804688,2301.016846 2124.377930,2295.796875 
z"/>
<path fill="#F9ECD6" opacity="1.000000" stroke="none" 
	d="
M2379.328125,1812.469727 
	C2355.897949,1804.574341 2333.249268,1796.833252 2310.512695,1789.360962 
	C2305.799072,1787.811890 2303.972412,1785.945923 2306.112549,1780.865234 
	C2308.557373,1775.061035 2310.187256,1768.918335 2312.304932,1762.970215 
	C2314.607666,1756.502197 2314.717041,1756.399414 2321.561768,1758.705322 
	C2347.390137,1767.406616 2373.189209,1776.195557 2398.997803,1784.956299 
	C2410.958740,1789.016479 2422.865234,1793.246338 2434.891113,1797.104614 
	C2444.925781,1800.324219 2443.534912,1802.135620 2447.661865,1790.474609 
	C2451.099609,1780.761963 2454.552734,1771.041870 2457.515381,1761.179688 
	C2458.936279,1756.449341 2460.947266,1755.423706 2465.396240,1757.396973 
	C2471.424561,1760.070557 2480.236572,1759.631226 2483.324951,1764.814575 
	C2486.579102,1770.275513 2480.854248,1777.203125 2478.811768,1783.363770 
	C2468.768555,1813.652588 2458.418457,1843.839844 2448.178955,1874.063599 
	C2447.432373,1876.267334 2446.626709,1878.455078 2445.984619,1880.689331 
	C2445.172119,1883.514160 2443.432617,1884.506836 2440.730469,1883.421265 
	C2433.972900,1880.706909 2424.708252,1880.834351 2420.852539,1875.362671 
	C2417.291748,1870.309448 2423.502441,1863.137207 2425.262207,1856.869629 
	C2426.967041,1850.797485 2429.296631,1844.902832 2431.274902,1838.904907 
	C2433.853271,1831.086548 2433.850342,1830.989502 2426.348389,1828.415283 
	C2410.943604,1823.129150 2395.504150,1817.945190 2379.328125,1812.469727 
z"/>
<path fill="#FAECD7" opacity="1.000000" stroke="none" 
	d="
M955.676636,824.292969 
	C959.279053,829.392212 966.061890,832.810913 965.326843,838.226074 
	C964.683899,842.962952 958.106567,845.528870 954.047729,848.905029 
	C950.308350,852.015503 947.119873,857.677063 942.334045,857.160767 
	C938.122925,856.706421 935.840698,850.963257 932.860291,847.443359 
	C909.192627,819.491089 885.611084,791.465881 862.001404,763.464539 
	C860.499146,761.682800 858.858948,760.002258 857.500671,758.117737 
	C855.217163,754.949280 853.036316,754.972534 850.129333,757.485962 
	C841.314941,765.107117 832.374756,772.584229 823.419128,780.040039 
	C817.994873,784.555664 817.702637,784.678650 813.487366,779.316284 
	C809.435425,774.161621 801.583313,769.890137 802.255493,763.715454 
	C802.848328,758.270325 810.744873,755.057617 815.528198,751.004700 
	C842.451233,728.192871 869.458130,705.480164 896.856079,682.379761 
	C903.844910,688.251343 908.971130,695.398621 914.773621,702.929321 
	C902.870239,713.041382 891.268311,722.897400 878.999573,733.319824 
	C904.657532,763.759338 929.939575,793.752808 955.676636,824.292969 
z"/>
<path fill="#F9ECD6" opacity="1.000000" stroke="none" 
	d="
M770.586548,2163.355469 
	C773.988464,2167.507568 776.937195,2171.111328 780.089783,2174.964355 
	C774.181458,2181.700195 766.832703,2186.272949 760.917236,2191.634277 
	C757.671692,2191.800293 756.848511,2189.652588 755.661865,2188.212646 
	C731.507568,2158.895264 707.387268,2129.550049 683.303101,2100.174805 
	C678.779663,2094.657959 678.835876,2094.554199 684.033447,2090.129639 
	C687.585083,2087.105957 691.496826,2084.457275 694.767700,2081.164307 
	C698.743652,2077.161377 701.113831,2078.403076 704.174438,2082.362061 
	C710.896301,2091.057617 718.015747,2099.448486 725.068359,2107.884277 
	C729.906616,2113.671875 730.041016,2113.688721 735.893982,2108.888428 
	C762.688843,2086.913330 789.445496,2064.891846 816.215759,2042.886841 
	C821.364075,2038.655151 826.608398,2034.532959 831.622253,2030.147461 
	C834.451355,2027.672607 836.505676,2027.471191 838.968750,2030.657837 
	C843.449463,2036.455688 848.014404,2042.216675 852.940918,2047.631958 
	C856.084656,2051.087646 855.086121,2053.052490 851.921997,2055.584717 
	C841.777039,2063.704590 831.797791,2072.031006 821.757324,2080.281250 
	C799.874023,2098.262695 777.971985,2116.221191 756.125244,2134.247070 
	C750.643127,2138.770508 750.664001,2138.920410 754.934631,2144.245605 
	C759.937195,2150.483887 765.061646,2156.624268 770.586548,2163.355469 
z"/>
<path fill="#F9ECD6" opacity="1.000000" stroke="none" 
	d="
M1178.006226,2432.300293 
	C1188.053833,2436.131836 1197.312988,2439.870605 1206.709839,2443.223389 
	C1210.354736,2444.523682 1211.492310,2446.198730 1209.953491,2449.853516 
	C1207.889526,2454.756104 1205.778931,2459.680420 1204.286987,2464.770996 
	C1202.716309,2470.130127 1200.136719,2470.174316 1195.449219,2468.342285 
	C1171.590942,2459.016357 1147.593384,2450.046631 1123.646240,2440.948242 
	C1112.450317,2436.694824 1101.237915,2432.484131 1090.071533,2428.154297 
	C1083.210693,2425.494385 1083.121826,2425.362793 1085.876221,2418.202393 
	C1088.124878,2412.356689 1089.712402,2406.208008 1093.305908,2400.221680 
	C1104.996948,2404.666992 1116.442993,2409.026367 1127.894775,2413.371338 
	C1136.949219,2416.806396 1136.981689,2416.809570 1140.376709,2407.909424 
	C1154.131348,2371.852051 1167.867065,2335.787842 1181.604126,2299.724121 
	C1181.959473,2298.791260 1182.217896,2297.821289 1182.581665,2296.892090 
	C1185.710938,2288.897461 1185.724121,2288.874512 1193.884399,2291.908447 
	C1198.873657,2293.763184 1203.846680,2295.664062 1208.796753,2297.621094 
	C1215.886108,2300.423340 1215.963989,2300.487305 1213.372314,2307.358154 
	C1206.092896,2326.656982 1198.734131,2345.925781 1191.403198,2365.205078 
	C1184.663086,2382.930664 1177.850464,2400.628906 1171.201050,2418.388428 
	C1167.198120,2429.079834 1165.341553,2427.527588 1178.006226,2432.300293 
z"/>
<path fill="#F9ECD6" opacity="1.000000" stroke="none" 
	d="
M1311.481323,501.865845 
	C1333.255493,497.875427 1354.164917,493.933990 1375.104980,490.163361 
	C1382.906616,488.758545 1382.955444,488.937286 1384.561035,496.729401 
	C1385.164673,499.658661 1385.645264,502.613129 1386.233887,505.545654 
	C1388.363281,516.151978 1390.421509,514.959900 1377.311401,517.637451 
	C1367.541992,519.632751 1357.717041,521.417542 1347.853394,522.864075 
	C1342.539551,523.643311 1341.645020,526.024475 1342.573608,530.953796 
	C1349.528931,567.870972 1356.252441,604.831970 1363.047119,641.779480 
	C1363.708496,645.376160 1364.398071,648.968262 1365.008057,652.573730 
	C1366.051025,658.739685 1366.032959,658.764221 1359.388794,660.059021 
	C1353.841797,661.139893 1348.285400,662.173218 1342.730347,663.212341 
	C1334.366577,664.776794 1334.230835,664.795959 1332.616821,656.025085 
	C1327.021362,625.616150 1321.544800,595.185364 1315.986572,564.769592 
	C1313.904907,553.378723 1311.723022,542.006226 1309.479980,530.055725 
	C1295.996826,532.525146 1283.278564,534.863770 1270.556519,537.181030 
	C1263.219604,538.517395 1263.192383,538.506714 1261.710083,530.953125 
	C1260.877686,526.712219 1260.592285,522.303589 1259.250366,518.237915 
	C1257.487915,512.898499 1259.564697,511.110260 1264.490723,510.268829 
	C1279.892456,507.638000 1295.252441,504.763031 1311.481323,501.865845 
z"/>
<path fill="#F9ECD6" opacity="1.000000" stroke="none" 
	d="
M507.548126,1698.835571 
	C502.481812,1669.438721 497.606476,1640.884888 492.571777,1612.359131 
	C491.831696,1608.165771 492.831726,1606.174561 497.311340,1605.778320 
	C501.941742,1605.368652 506.511353,1604.298096 511.117004,1603.577026 
	C518.765625,1602.379639 518.771423,1602.399292 520.003235,1609.536499 
	C521.758667,1619.707642 523.426758,1629.894897 525.287598,1640.046753 
	C526.927490,1648.993530 527.015381,1648.939697 536.103638,1647.387329 
	C575.488892,1640.660278 614.877136,1633.950684 654.266785,1627.249390 
	C661.237305,1626.063721 661.353577,1626.074219 662.670959,1632.647827 
	C663.913696,1638.848389 664.674866,1645.150513 666.049194,1651.318359 
	C667.186279,1656.421753 665.412415,1658.346558 660.334961,1659.133179 
	C642.568970,1661.886475 624.862732,1665.027222 607.139587,1668.054810 
	C584.492798,1671.923950 561.885437,1676.044189 539.184631,1679.562988 
	C533.395996,1680.460205 531.883179,1681.836182 533.244812,1687.888672 
	C535.799133,1699.242554 537.206970,1710.850098 539.310120,1722.312134 
	C539.998291,1726.062866 539.096008,1727.835449 535.114563,1728.351685 
	C529.508972,1729.078613 523.927612,1730.126343 518.412659,1731.375977 
	C513.880981,1732.402710 512.573669,1730.351074 512.004578,1726.308960 
	C510.751556,1717.409058 509.148071,1708.558350 507.548126,1698.835571 
z"/>
<path fill="#F9ECD6" opacity="1.000000" stroke="none" 
	d="
M1702.513916,2375.101562 
	C1708.243042,2402.291504 1713.753662,2428.663086 1719.378052,2455.010742 
	C1721.054932,2462.866943 1721.204590,2462.852295 1729.136230,2461.206055 
	C1738.906494,2459.178467 1748.670776,2457.122070 1758.436768,2455.073486 
	C1767.233521,2453.228516 1767.244019,2453.223389 1769.273193,2462.324463 
	C1770.069336,2465.895508 1770.877808,2469.466309 1771.549316,2473.061768 
	C1772.777832,2479.641602 1772.537720,2480.102539 1765.574097,2481.571533 
	C1745.721191,2485.759277 1725.845459,2489.839355 1705.975464,2493.946289 
	C1689.037109,2497.447510 1672.103882,2500.974365 1655.148926,2504.393066 
	C1648.517212,2505.729980 1648.201294,2505.665039 1646.896729,2498.785889 
	C1645.727539,2492.620117 1641.443970,2485.543701 1644.302002,2480.495850 
	C1647.260498,2475.270264 1655.659424,2476.815430 1661.654663,2475.345703 
	C1668.434937,2473.683350 1675.329102,2472.490723 1682.128784,2470.901367 
	C1688.948975,2469.307373 1689.100464,2469.167969 1687.707031,2462.295654 
	C1684.269897,2445.344971 1680.657959,2428.429443 1677.111694,2411.500977 
	C1672.337769,2388.713135 1667.541382,2365.930176 1662.794189,2343.136719 
	C1661.211792,2335.538574 1661.264648,2335.512451 1668.655029,2333.906006 
	C1674.505127,2332.634277 1680.380737,2331.475586 1686.213501,2330.130371 
	C1690.690796,2329.097412 1693.440063,2329.257568 1694.398438,2335.164795 
	C1696.526978,2348.285400 1699.632080,2361.247559 1702.513916,2375.101562 
z"/>
<path fill="#F9ECD6" opacity="1.000000" stroke="none" 
	d="
M1700.147461,581.822632 
	C1705.465942,559.024963 1710.634766,537.045776 1715.804565,515.066833 
	C1717.865234,506.306427 1717.871582,506.284332 1726.893188,508.343628 
	C1732.071777,509.525726 1737.238525,510.762177 1742.396362,512.032104 
	C1749.250977,513.719727 1749.430054,513.786072 1747.872559,520.639404 
	C1744.046753,537.475342 1740.017700,554.265015 1736.099609,571.080017 
	C1728.715210,602.770203 1721.366333,634.468506 1713.968140,666.155457 
	C1712.244629,673.537537 1712.167847,673.584717 1704.904053,672.025391 
	C1699.061768,670.771179 1693.244263,669.394348 1687.438477,667.978943 
	C1680.717285,666.340332 1680.545044,666.254395 1682.136963,659.278259 
	C1686.938232,638.237610 1691.892700,617.231812 1696.793335,596.213867 
	C1697.848999,591.686646 1698.929321,587.165222 1700.147461,581.822632 
z"/>
<path fill="#FAECD7" opacity="1.000000" stroke="none" 
	d="
M585.928894,1744.252197 
	C615.466858,1735.874512 644.210938,1727.665649 672.970520,1719.511597 
	C680.619080,1717.343018 680.648865,1717.418091 682.988403,1725.157715 
	C683.468811,1726.747192 683.919678,1728.349243 684.293457,1729.966553 
	C685.689941,1736.010132 690.740906,1742.690186 687.862976,1747.804199 
	C685.266296,1752.418701 677.199463,1752.050171 671.515442,1753.686523 
	C628.425354,1766.092041 585.281982,1778.312012 542.155518,1790.591187 
	C540.239319,1791.136841 538.270203,1791.551514 536.424683,1792.278320 
	C533.331787,1793.496826 531.287231,1792.811035 530.397339,1789.473877 
	C530.226074,1788.831543 530.081787,1788.181885 529.926453,1787.535278 
	C527.992126,1779.487183 524.597351,1771.819580 523.667908,1763.509766 
	C530.572754,1758.445923 539.101624,1758.087158 546.889038,1755.629883 
	C559.555298,1751.633179 572.381897,1748.144775 585.928894,1744.252197 
z"/>
<path fill="#F9ECD6" opacity="1.000000" stroke="none" 
	d="
M1767.817383,2307.954102 
	C1782.691162,2302.978027 1782.717163,2302.969482 1787.226562,2316.814941 
	C1801.637817,2361.062500 1816.028076,2405.317139 1830.426270,2449.568848 
	C1831.043091,2451.464600 1831.591187,2453.386475 1832.292480,2455.250732 
	C1833.276978,2457.866943 1832.895142,2459.608398 1829.895020,2460.544434 
	C1821.964355,2463.018066 1814.095337,2465.688477 1806.186157,2468.231934 
	C1803.970337,2468.944580 1802.323730,2468.408691 1801.656616,2465.882324 
	C1801.233521,2464.280518 1800.554810,2462.748047 1800.038818,2461.168701 
	C1784.864014,2414.722900 1769.694580,2368.275391 1754.528931,2321.826904 
	C1754.013062,2320.246826 1753.661987,2318.603516 1753.032227,2317.072510 
	C1751.861816,2314.227295 1752.887817,2312.743408 1755.687012,2311.900146 
	C1759.505005,2310.749756 1763.265259,2309.407959 1767.817383,2307.954102 
z"/>
<path fill="#F9ECD6" opacity="1.000000" stroke="none" 
	d="
M2190.615234,2143.348633 
	C2169.609863,2124.323242 2149.106934,2105.800781 2128.659180,2087.217285 
	C2123.443848,2082.477539 2123.455322,2082.326904 2128.026855,2077.221191 
	C2133.537109,2071.067383 2139.179932,2065.031982 2144.560547,2059.168213 
	C2148.272461,2060.367432 2150.153320,2062.823486 2152.346191,2064.806641 
	C2188.149170,2097.182373 2223.916504,2129.597168 2259.692139,2162.003174 
	C2260.678955,2162.897217 2261.604980,2163.874023 2262.668945,2164.664795 
	C2265.902100,2167.068115 2266.680420,2169.312500 2263.435059,2172.641357 
	C2257.409668,2178.822266 2251.764404,2185.373779 2245.166504,2192.646484 
	C2226.946289,2176.183594 2209.041992,2160.006104 2190.615234,2143.348633 
z"/>
<path fill="#FAECD7" opacity="1.000000" stroke="none" 
	d="
M1259.554077,2375.194824 
	C1263.951172,2357.994141 1268.298584,2341.624756 1272.267944,2325.163818 
	C1273.490234,2320.095459 1275.810547,2318.762695 1280.662964,2320.266113 
	C1286.683838,2322.130859 1292.857666,2323.495361 1298.927979,2325.208740 
	C1305.422607,2327.041992 1305.553345,2327.147949 1303.786377,2334.036621 
	C1297.928833,2356.872314 1291.953979,2379.678467 1286.022949,2402.495361 
	C1279.423462,2427.883545 1272.846924,2453.277832 1266.207520,2478.655273 
	C1264.340454,2485.792236 1264.245361,2485.810303 1256.962158,2484.030762 
	C1251.801636,2482.769531 1246.667114,2481.400635 1241.530396,2480.044678 
	C1232.975098,2477.785889 1232.924927,2477.760498 1235.053955,2469.508789 
	C1241.026245,2446.360107 1247.041870,2423.222412 1253.051025,2400.083252 
	C1255.137573,2392.048340 1257.255249,2384.021240 1259.554077,2375.194824 
z"/>
<path fill="#FAECD7" opacity="1.000000" stroke="none" 
	d="
M2128.010742,850.023132 
	C2117.794922,861.027161 2107.923340,871.387085 2098.396973,882.055481 
	C2095.177246,885.661072 2092.983887,885.865417 2089.619873,882.345520 
	C2085.030762,877.543823 2080.189209,872.916138 2075.018311,868.758057 
	C2070.632324,865.231140 2071.520264,862.890381 2074.955078,859.219482 
	C2109.276611,822.537659 2143.472412,785.737549 2177.558838,748.837219 
	C2180.922852,745.195557 2183.197266,744.101318 2187.046875,748.195312 
	C2192.049561,753.515808 2197.618896,758.309326 2203.022949,763.243469 
	C2205.190186,765.222473 2205.373047,767.022461 2203.260010,769.114685 
	C2201.606689,770.751526 2200.062012,772.498657 2198.476807,774.204041 
	C2175.146973,799.301819 2151.818359,824.400879 2128.010742,850.023132 
z"/>
<path fill="#F9ECD6" opacity="1.000000" stroke="none" 
	d="
M548.697266,1247.593628 
	C590.540405,1257.833496 631.576660,1267.878418 672.604980,1277.955200 
	C680.746155,1279.954590 680.757568,1280.016479 678.932922,1287.707153 
	C677.627563,1293.209106 676.317566,1298.711914 674.876099,1304.179077 
	C672.974060,1311.392822 672.884644,1311.514771 665.575928,1309.742554 
	C640.683411,1303.706543 615.811401,1297.585449 590.940918,1291.458740 
	C567.684570,1285.729980 544.435120,1279.972778 521.193359,1274.184937 
	C513.746948,1272.330688 513.725525,1272.259399 515.402588,1265.131592 
	C516.773926,1259.303345 518.170593,1253.478760 519.696045,1247.689453 
	C521.458191,1241.001587 521.635437,1240.870361 528.545715,1242.489868 
	C535.021606,1244.007568 541.442444,1245.760376 548.697266,1247.593628 
z"/>
<path fill="#FAECD7" opacity="1.000000" stroke="none" 
	d="
M2422.418701,1194.654541 
	C2435.845947,1190.417358 2448.567383,1186.583496 2461.179688,1182.418945 
	C2465.881836,1180.866333 2468.525146,1181.576294 2469.835938,1186.765991 
	C2471.378662,1192.872314 2473.622803,1198.797974 2475.417480,1204.844971 
	C2477.386475,1211.479248 2477.354004,1211.626465 2470.448730,1213.802124 
	C2444.790771,1221.885864 2419.107422,1229.889526 2393.427490,1237.903809 
	C2371.552002,1244.730957 2349.677979,1251.562256 2327.782959,1258.325684 
	C2320.591553,1260.546875 2320.516357,1260.467163 2318.230469,1253.367432 
	C2316.602051,1248.309570 2315.116211,1243.205688 2313.569092,1238.121704 
	C2310.977539,1229.606201 2310.963135,1229.557007 2319.919434,1226.749390 
	C2348.441650,1217.808228 2376.977051,1208.907471 2405.506592,1199.989746 
	C2410.895508,1198.305542 2416.281982,1196.614380 2422.418701,1194.654541 
z"/>
<path fill="#F9ECD6" opacity="1.000000" stroke="none" 
	d="
M2459.725586,1692.465210 
	C2471.264648,1695.042603 2481.946533,1697.632446 2492.720947,1699.750000 
	C2496.907471,1700.572754 2498.503418,1702.088745 2497.385010,1706.420532 
	C2495.721436,1712.862915 2494.502441,1719.418701 2492.925537,1725.885132 
	C2491.252930,1732.745361 2491.143555,1732.831909 2484.287842,1731.343628 
	C2463.793945,1726.894531 2443.321777,1722.345459 2422.837891,1717.850098 
	C2395.199951,1711.784668 2367.555664,1705.749512 2339.921631,1699.666748 
	C2330.880859,1697.676636 2330.654785,1697.566284 2332.962158,1688.527344 
	C2334.827148,1681.221069 2334.782471,1673.369751 2338.944824,1666.693115 
	C2346.641113,1666.905151 2353.910645,1669.402954 2361.335205,1670.999146 
	C2393.880371,1677.995239 2426.385742,1685.175415 2459.725586,1692.465210 
z"/>
<path fill="#FAECD7" opacity="1.000000" stroke="none" 
	d="
M1225.565063,626.761475 
	C1216.662842,596.973999 1207.957886,567.966492 1199.312988,538.941223 
	C1196.978394,531.103088 1196.989502,530.810852 1204.735962,528.714478 
	C1212.336304,526.657776 1219.576904,523.094116 1227.659058,522.948303 
	C1231.283813,529.769104 1232.611572,537.359863 1234.805054,544.645630 
	C1247.469727,586.711548 1260.011108,628.814697 1272.554932,670.916931 
	C1275.001099,679.127197 1274.931763,679.184753 1266.602661,681.704895 
	C1261.187622,683.343384 1255.567261,684.445740 1250.351440,686.559631 
	C1245.220215,688.639160 1243.341309,687.001587 1241.941650,682.101013 
	C1236.732422,663.861877 1231.197632,645.715759 1225.565063,626.761475 
z"/>
<path fill="#FAECD7" opacity="1.000000" stroke="none" 
	d="
M823.573242,874.415161 
	C801.167419,853.066956 779.272949,832.206787 756.760742,810.758057 
	C764.324463,802.843201 771.399414,795.439819 779.216614,787.259766 
	C818.934753,825.095337 858.331482,862.624695 898.120728,900.527954 
	C891.587402,907.398865 885.459167,913.471619 879.789856,919.946289 
	C876.408875,923.807617 874.226501,922.893982 870.990540,919.751465 
	C855.472717,904.681030 839.740662,889.831238 823.573242,874.415161 
z"/>
<path fill="#FAECD7" opacity="1.000000" stroke="none" 
	d="
M889.548035,2151.554932 
	C863.276611,2178.477539 837.517761,2204.909912 811.715332,2231.299805 
	C806.083740,2237.059570 805.993896,2237.008301 800.237488,2231.463867 
	C795.927124,2227.311768 791.904114,2222.824463 787.323975,2219.000488 
	C783.035889,2215.420166 783.978271,2213.027344 787.476929,2209.476318 
	C813.380737,2183.187012 838.971008,2156.588135 864.938965,2130.362793 
	C875.667358,2119.527832 887.081299,2109.371826 898.800049,2098.325684 
	C904.516602,2103.871582 911.070190,2110.386230 917.813599,2116.698242 
	C920.663635,2119.365479 919.338196,2121.128174 917.252380,2123.243164 
	C908.146912,2132.476074 899.107910,2141.774414 889.548035,2151.554932 
z"/>
<path fill="#FAAB6B" opacity="1.000000" stroke="none" 
	d="
M1348.625977,2062.457031 
	C1339.260376,2051.094238 1330.978882,2039.944824 1319.549683,2031.554688 
	C1296.120728,2014.355713 1270.125610,2003.378906 1241.575073,1998.282593 
	C1235.375732,1997.175903 1229.209595,1995.849243 1222.981934,1994.940552 
	C1201.250732,1991.769897 1180.153442,1994.444214 1158.873901,2002.225342 
	C1154.620605,2002.169189 1151.868042,2000.521973 1149.155151,1998.463135 
	C1118.668335,1975.326416 1090.998169,1949.371460 1068.365723,1918.315063 
	C1064.036377,1912.374268 1060.394043,1906.150391 1058.170410,1898.473145 
	C1050.118896,1876.243652 1048.465454,1853.736938 1050.961792,1831.090088 
	C1056.920654,1777.034790 1072.572998,1725.671143 1095.573608,1676.481445 
	C1095.846924,1675.896729 1096.371826,1675.429810 1096.864868,1674.798096 
	C1101.506836,1675.417480 1105.411133,1678.069824 1109.612549,1679.892212 
	C1129.513306,1688.524170 1150.457031,1693.930664 1171.120117,1700.260254 
	C1193.721924,1707.183838 1216.997559,1711.366089 1239.684326,1717.852295 
	C1275.438965,1728.074707 1307.791016,1744.443115 1334.048950,1771.432129 
	C1345.543823,1783.246704 1355.219604,1796.237793 1359.664307,1813.200073 
	C1356.806519,1852.122437 1324.819214,1876.762573 1286.908813,1870.110352 
	C1267.595703,1866.721436 1250.053833,1858.718384 1233.374390,1848.968018 
	C1205.277222,1832.542725 1180.780518,1811.801514 1160.850830,1785.855469 
	C1155.929443,1779.448486 1153.170654,1771.944458 1148.749756,1764.451172 
	C1144.998901,1758.238892 1145.511963,1751.243530 1141.078613,1743.373901 
	C1139.520142,1751.060181 1140.230835,1756.457886 1140.866699,1761.808594 
	C1143.881714,1787.182007 1154.691895,1809.359619 1169.012817,1830.081543 
	C1169.953491,1831.442749 1170.899292,1832.800415 1172.073730,1834.785889 
	C1186.980835,1861.254517 1207.329102,1881.809937 1230.821655,1899.753906 
	C1248.210083,1913.035522 1267.344116,1920.948364 1288.946533,1923.945923 
	C1319.045776,1928.122681 1348.263672,1913.630005 1362.017700,1886.751099 
	C1364.894043,1881.129883 1368.377686,1875.853516 1370.881836,1869.408691 
	C1371.257568,1866.770752 1371.610596,1864.776001 1372.365356,1862.947266 
	C1382.266479,1838.959229 1376.567505,1816.713867 1364.481323,1795.400635 
	C1350.054077,1769.959229 1329.296143,1750.649902 1304.276001,1734.693359 
	C1305.030518,1727.351562 1311.077148,1728.134033 1315.456421,1727.510620 
	C1326.338013,1725.961914 1336.717407,1722.907593 1347.101074,1719.012695 
	C1339.345337,1716.911621 1331.817017,1714.657593 1324.151489,1712.842896 
	C1301.161255,1707.400757 1278.019165,1702.572510 1256.932617,1690.984497 
	C1247.334106,1685.709595 1236.714355,1682.435059 1226.387939,1678.642944 
	C1157.721558,1653.426758 1105.917847,1608.295166 1072.531860,1543.518188 
	C1056.638672,1512.681519 1048.058228,1478.770996 1043.616821,1444.158447 
	C1039.073364,1408.751709 1037.125977,1373.312500 1042.622314,1337.758057 
	C1044.871948,1323.205444 1048.818115,1309.187622 1053.517334,1294.575684 
	C1054.072388,1292.221191 1054.732666,1290.637085 1055.835938,1288.580688 
	C1056.647705,1287.526489 1057.026733,1286.951416 1057.534912,1285.880615 
	C1064.754761,1268.098755 1074.383423,1252.194458 1084.587402,1236.650391 
	C1117.407593,1186.654297 1157.827026,1143.727295 1205.126587,1107.156738 
	C1234.908447,1084.130249 1266.578247,1063.802856 1297.197876,1041.977783 
	C1315.370972,1029.024292 1333.097168,1015.513000 1349.416992,1000.239746 
	C1370.452026,980.553772 1388.553833,958.434998 1402.766602,933.401306 
	C1418.911255,904.964539 1426.296021,874.193848 1424.185425,841.431091 
	C1423.433350,829.757996 1420.100220,818.544067 1416.259521,806.753113 
	C1420.791382,802.136719 1425.091309,804.947144 1429.092163,807.013977 
	C1458.369141,822.138611 1484.255493,841.349976 1504.854736,867.569702 
	C1524.901001,893.085388 1542.677002,919.773315 1554.874146,950.008606 
	C1566.519043,978.874390 1570.440674,1008.737671 1569.884033,1039.789307 
	C1569.357666,1069.158325 1563.156982,1096.412476 1547.867676,1121.554199 
	C1543.698730,1128.409790 1539.305908,1135.028442 1532.911743,1141.006836 
	C1531.899048,1142.129883 1530.573486,1142.128662 1530.635620,1143.062012 
	C1530.678833,1143.713501 1531.400146,1143.527710 1532.142578,1142.058594 
	C1555.323364,1124.712646 1581.390381,1116.242188 1608.774902,1110.858032 
	C1638.020020,1105.107788 1664.707397,1113.089233 1691.027954,1124.800537 
	C1752.491089,1152.148804 1796.066040,1198.842285 1831.321045,1254.343872 
	C1864.269043,1306.213623 1888.546753,1361.800903 1901.107178,1422.253052 
	C1905.764771,1444.669922 1906.635254,1467.140869 1904.039795,1489.781006 
	C1903.166016,1497.402222 1903.336060,1505.052734 1902.376709,1512.680664 
	C1896.982544,1555.566772 1873.992676,1589.678589 1847.520264,1621.787476 
	C1838.258179,1633.021729 1827.207520,1642.854980 1816.217163,1652.593018 
	C1787.301392,1678.214111 1753.223145,1693.234375 1716.164795,1702.423950 
	C1697.197876,1707.127197 1678.121704,1711.483398 1657.597900,1718.881470 
	C1670.210693,1723.158936 1680.990112,1725.996216 1691.928955,1728.299438 
	C1695.809570,1729.116455 1699.945923,1729.339233 1702.911133,1733.625366 
	C1689.503174,1743.864990 1675.996460,1753.565430 1664.688721,1765.951172 
	C1649.474487,1782.615967 1636.858276,1800.720459 1631.846802,1823.273438 
	C1626.858032,1845.723877 1631.976685,1865.341675 1648.004150,1882.732666 
	C1675.330933,1917.675049 1711.274536,1926.806152 1752.613037,1919.770386 
	C1794.098389,1912.709595 1829.076782,1893.599731 1856.881714,1861.768311 
	C1859.071289,1859.261841 1861.254395,1856.737305 1863.634277,1854.417847 
	C1865.931763,1852.178711 1868.180664,1848.566650 1871.890259,1850.429688 
	C1875.171631,1852.077515 1875.192261,1856.062012 1875.044800,1859.364746 
	C1874.216675,1877.914307 1868.501221,1895.244873 1861.804688,1912.367676 
	C1849.891113,1942.829468 1830.434814,1967.773193 1806.216553,1989.312256 
	C1804.697754,1990.663086 1802.916382,1991.538574 1800.404053,1992.686890 
	C1786.174194,1994.307495 1772.863403,1996.972778 1759.536743,1999.597290 
	C1733.395020,2004.745850 1709.872925,2015.616089 1688.425171,2031.313477 
	C1677.278564,2039.471558 1668.722900,2049.934082 1660.209229,2061.420898 
	C1651.827881,2069.121094 1641.846680,2072.015381 1631.960083,2074.822266 
	C1542.658569,2100.175049 1453.649048,2101.913086 1365.064941,2071.267334 
	C1359.342651,2069.287598 1353.951660,2066.916748 1348.625977,2062.457031 
z"/>
<path fill="#D4784D" opacity="1.000000" stroke="none" 
	d="
M1703.810059,1734.251221 
	C1697.101440,1731.213623 1690.169067,1731.964233 1683.803711,1730.016846 
	C1674.268799,1727.099609 1664.596191,1724.633911 1655.005127,1721.896118 
	C1653.136841,1721.362793 1650.882446,1720.731812 1651.138794,1718.165527 
	C1651.353149,1716.018188 1653.533569,1716.326660 1655.033447,1715.833130 
	C1676.219116,1708.862427 1697.899536,1703.698730 1719.447754,1698.034180 
	C1742.680420,1691.926880 1765.259033,1684.082886 1785.774658,1671.170654 
	C1797.064209,1664.065308 1807.557373,1655.828491 1817.535400,1647.108398 
	C1841.251953,1626.381592 1860.930664,1602.353638 1876.808228,1574.923462 
	C1888.693359,1554.390503 1897.375977,1532.973511 1899.414917,1509.507935 
	C1902.056274,1479.110474 1904.061279,1448.831055 1896.907104,1418.308594 
	C1887.887817,1379.828003 1875.030396,1342.937378 1857.639160,1307.624268 
	C1841.443848,1274.739624 1822.094971,1243.729004 1799.347290,1214.896729 
	C1765.612061,1172.138062 1723.751587,1140.214355 1672.819336,1120.697876 
	C1657.573975,1114.855957 1641.545166,1111.113525 1625.031250,1112.221313 
	C1612.120361,1113.087158 1599.394531,1115.528687 1586.934814,1119.356201 
	C1571.618042,1124.061157 1556.750488,1129.616333 1543.138794,1138.269287 
	C1539.520508,1140.569458 1535.356201,1142.010498 1530.716309,1143.918091 
	C1530.275635,1140.512817 1532.000000,1137.668945 1534.129150,1135.081177 
	C1551.911743,1113.468994 1562.926514,1088.692139 1565.480225,1060.963623 
	C1568.663330,1026.401855 1567.683838,991.743896 1554.994873,958.900513 
	C1544.195435,930.947998 1530.364380,904.504944 1510.795044,881.219238 
	C1500.985840,869.547241 1492.406372,856.752747 1481.164429,846.378174 
	C1463.459106,830.038879 1443.224121,817.308105 1421.506958,806.935669 
	C1420.348877,806.382507 1418.941040,806.351746 1416.909302,806.045776 
	C1413.987305,803.089844 1412.120605,800.028564 1411.678589,795.926819 
	C1416.049683,794.973267 1419.642090,797.250916 1423.284790,798.329285 
	C1476.638428,814.122620 1524.067017,840.172913 1563.062012,880.371948 
	C1585.863281,903.877319 1603.593872,930.647095 1613.192139,962.288147 
	C1623.939209,997.716309 1621.411499,1031.983398 1604.247925,1065.042480 
	C1597.482910,1078.072510 1590.523193,1090.949463 1581.311157,1103.342773 
	C1581.345825,1105.175171 1582.199219,1105.480957 1583.853516,1104.934326 
	C1614.245850,1086.595703 1628.693970,1058.839722 1633.911133,1025.309570 
	C1634.518188,1021.409119 1634.234741,1017.301453 1636.396362,1013.686523 
	C1640.429565,1012.769531 1643.476807,1015.286194 1646.650024,1016.762817 
	C1686.846191,1035.468018 1726.175537,1055.689697 1762.779297,1080.976929 
	C1804.966797,1110.121582 1843.427856,1143.467041 1876.268188,1182.792725 
	C1891.379517,1200.888428 1904.170288,1220.956909 1917.596191,1240.418579 
	C1951.226807,1289.168213 1976.134277,1341.887207 1988.675781,1400.025024 
	C1998.947876,1447.642822 2000.051270,1495.223633 1986.026855,1542.364624 
	C1972.829224,1586.726807 1947.187134,1621.849976 1908.922241,1648.493896 
	C1874.742798,1672.293091 1836.928101,1687.011841 1797.506714,1698.771973 
	C1769.772705,1707.045288 1741.707764,1714.488892 1715.725830,1727.733154 
	C1711.877686,1729.695068 1708.204834,1732.000610 1703.810059,1734.251221 
z"/>
<path fill="#D3784C" opacity="1.000000" stroke="none" 
	d="
M1800.615234,1993.292236 
	C1802.709961,1986.411011 1808.633057,1982.357178 1813.672363,1977.697144 
	C1831.274414,1961.418823 1844.659058,1942.223389 1854.713257,1920.585815 
	C1863.014160,1902.721558 1869.161133,1884.178711 1871.753296,1864.591797 
	C1872.303833,1860.432617 1872.554565,1856.140381 1871.312744,1850.756226 
	C1867.179077,1855.267212 1863.536377,1858.908203 1860.272461,1862.861938 
	C1846.787354,1879.196411 1830.499512,1892.190796 1812.118530,1902.439087 
	C1791.029297,1914.197266 1768.345337,1920.947144 1744.319824,1924.309448 
	C1723.186401,1927.267090 1703.212524,1924.221558 1684.068115,1916.066406 
	C1668.995483,1909.645630 1655.347290,1900.715210 1648.313965,1884.008057 
	C1671.480469,1899.576050 1697.664307,1901.933594 1724.725586,1899.871460 
	C1740.916382,1898.637695 1755.912720,1892.967529 1770.309204,1885.902344 
	C1811.094116,1865.887085 1841.083618,1835.436523 1858.397461,1793.118286 
	C1863.474854,1780.708008 1866.441406,1767.723877 1866.920410,1754.262329 
	C1867.022827,1751.387085 1868.102051,1748.280273 1865.248901,1745.349609 
	C1863.334595,1746.969604 1863.292847,1749.333984 1862.916870,1751.315918 
	C1858.268066,1775.826904 1846.985718,1797.253174 1831.494995,1816.374146 
	C1806.873291,1846.765869 1776.476685,1869.285767 1739.347656,1882.611328 
	C1714.966309,1891.361572 1691.581787,1888.832397 1668.418945,1878.830200 
	C1659.237549,1874.865479 1651.964722,1868.805908 1647.925781,1858.678467 
	C1651.790039,1855.151611 1654.942017,1857.706299 1657.974121,1859.513794 
	C1681.641968,1873.622070 1706.624878,1872.743042 1729.588989,1860.693481 
	C1770.827759,1839.054810 1801.786499,1806.790161 1819.062378,1762.648804 
	C1821.504150,1756.409546 1823.368042,1749.992798 1823.946899,1743.365234 
	C1824.835938,1733.186279 1822.452026,1724.202637 1812.977051,1718.398438 
	C1810.235352,1716.719116 1806.773682,1715.439697 1807.506104,1710.553589 
	C1821.374390,1705.254150 1834.810547,1700.514160 1848.299072,1695.928345 
	C1869.134155,1688.845093 1890.020752,1681.905884 1907.957520,1668.513550 
	C1908.718140,1667.945679 1909.782104,1667.784180 1911.114624,1667.277466 
	C1914.885986,1671.655396 1916.072632,1677.297119 1917.878418,1682.456299 
	C1928.436523,1712.623291 1939.760498,1742.546753 1947.400757,1773.666626 
	C1954.831421,1803.932983 1959.123779,1834.544067 1956.450562,1865.727417 
	C1954.295776,1890.862549 1946.655640,1914.622314 1936.402954,1937.585571 
	C1923.242188,1967.062012 1905.426392,1993.473267 1883.869751,2017.410767 
	C1878.371704,2023.516357 1878.320190,2023.353027 1872.645874,2018.044800 
	C1855.732788,2002.223022 1834.697021,1996.638062 1812.498047,1994.076538 
	C1808.866211,1993.657471 1805.177979,1993.727051 1800.615234,1993.292236 
z"/>
<path fill="#D3784C" opacity="1.000000" stroke="none" 
	d="
M1052.856201,1294.205811 
	C1056.424072,1295.428223 1054.837280,1297.730713 1054.327515,1299.891724 
	C1050.745117,1315.079834 1046.155518,1330.113403 1045.151489,1345.761353 
	C1044.051392,1362.906860 1039.787964,1379.974854 1043.588867,1397.306641 
	C1044.219360,1400.181519 1043.859253,1403.281494 1043.892944,1406.278198 
	C1044.246704,1437.755005 1049.612427,1468.436157 1059.192383,1498.340820 
	C1063.754761,1512.582397 1067.297241,1527.280151 1074.305786,1540.602295 
	C1089.598877,1569.671875 1108.182861,1596.385620 1133.199951,1618.023071 
	C1151.072144,1633.480835 1169.836792,1647.890137 1190.203003,1659.933716 
	C1201.962769,1666.887573 1215.099609,1671.046509 1227.927856,1675.676636 
	C1242.326050,1680.873413 1256.539917,1686.365479 1270.009521,1693.789307 
	C1277.286743,1697.800171 1285.483765,1699.911865 1293.552612,1701.920166 
	C1314.476074,1707.128052 1335.460938,1712.088989 1356.552734,1717.180298 
	C1356.732910,1720.879028 1353.581299,1721.004883 1351.324097,1721.897461 
	C1336.401611,1727.798462 1320.502319,1729.684570 1304.405518,1733.623535 
	C1269.318115,1714.619141 1231.105347,1705.187378 1193.519775,1694.092896 
	C1159.937012,1684.180054 1127.121094,1672.436279 1096.755127,1654.711304 
	C1059.557983,1632.999023 1034.512207,1601.633057 1020.851990,1560.642212 
	C1006.288940,1516.942139 1005.237244,1472.520020 1011.265686,1427.464111 
	C1017.091797,1383.920654 1029.594604,1342.352905 1048.210083,1302.596313 
	C1049.478149,1299.888184 1050.932495,1297.267578 1052.856201,1294.205811 
z"/>
<path fill="#FAAA6A" opacity="1.000000" stroke="none" 
	d="
M1807.263306,1709.906982 
	C1808.045532,1712.235718 1809.517944,1713.171021 1811.486572,1714.128174 
	C1824.817749,1720.609985 1829.749634,1731.263916 1827.108154,1745.899292 
	C1824.285767,1761.536499 1817.798218,1775.620728 1809.906738,1789.183472 
	C1791.186768,1821.356201 1764.351562,1845.150146 1732.463135,1863.570679 
	C1724.639038,1868.090454 1715.748291,1870.649902 1706.897217,1871.570312 
	C1687.787109,1873.557495 1668.885498,1873.029541 1652.839478,1859.967529 
	C1651.836426,1859.151001 1650.525391,1858.712891 1648.648682,1858.032349 
	C1639.765137,1841.059937 1643.087402,1824.288208 1648.826416,1807.685791 
	C1653.132568,1795.228516 1660.908691,1784.865479 1669.691650,1775.200439 
	C1693.098633,1749.443115 1721.973633,1732.464722 1755.013550,1722.319946 
	C1769.618042,1717.835815 1784.500000,1714.346436 1800.248291,1711.263794 
	C1801.767212,1711.545166 1802.443726,1711.423828 1803.593750,1710.792725 
	C1804.949707,1710.375488 1805.780762,1710.131958 1807.263306,1709.906982 
z"/>
<path fill="#D3784C" opacity="1.000000" stroke="none" 
	d="
M1347.983643,2062.711426 
	C1352.118774,2061.601807 1355.485840,2064.081055 1359.208618,2065.398438 
	C1386.792114,2075.159424 1414.896851,2082.431152 1444.009033,2086.440186 
	C1471.469482,2090.221680 1498.989746,2091.261230 1526.430786,2089.609375 
	C1571.265625,2086.910645 1615.230835,2078.858154 1657.236450,2062.106689 
	C1657.538696,2061.986084 1657.888184,2061.984375 1658.963623,2061.904785 
	C1657.441528,2066.303955 1655.174438,2070.726562 1652.901489,2075.145996 
	C1645.668701,2089.208496 1642.935425,2103.975830 1645.746460,2119.669678 
	C1646.506958,2123.915283 1646.920410,2128.223145 1647.553345,2132.952881 
	C1643.537109,2135.620361 1638.753906,2135.110107 1634.310913,2135.496094 
	C1600.463379,2138.438965 1566.555664,2140.329834 1532.568848,2140.269287 
	C1489.617432,2140.192627 1446.645508,2140.968262 1403.751099,2137.903564 
	C1390.803833,2136.979004 1377.886230,2135.641846 1364.940063,2134.697998 
	C1360.479492,2134.372803 1359.261353,2132.391357 1360.184937,2128.233887 
	C1360.977051,2124.667480 1361.384399,2121.014648 1361.946411,2117.397705 
	C1365.050171,2097.421143 1357.876099,2080.082031 1347.983643,2062.711426 
z"/>
<path fill="#D4794D" opacity="1.000000" stroke="none" 
	d="
M1864.486816,2035.657227 
	C1845.092407,2056.219238 1822.747192,2072.268311 1798.888184,2086.243652 
	C1761.288818,2108.267090 1721.306396,2123.973145 1677.270996,2130.907715 
	C1670.303833,2124.435547 1670.476074,2116.177734 1671.344849,2108.450195 
	C1674.906128,2076.776123 1691.567627,2053.369873 1718.950562,2037.851562 
	C1746.729736,2022.108765 1775.986938,2011.054688 1808.812744,2012.460205 
	C1826.548462,2013.219604 1842.830566,2017.736450 1857.465332,2027.891113 
	C1860.203003,2029.790771 1863.033691,2031.558716 1864.486816,2035.657227 
z"/>
<path fill="#D4794D" opacity="1.000000" stroke="none" 
	d="
M1332.122559,2130.698975 
	C1259.485962,2119.003662 1197.237549,2087.294922 1143.347168,2037.438599 
	C1143.279419,2034.062134 1144.738159,2031.850464 1146.921875,2030.257812 
	C1168.566650,2014.472778 1192.379150,2008.489990 1219.421143,2015.043945 
	C1221.786743,2025.389038 1228.399048,2030.599731 1237.161499,2034.113525 
	C1246.044678,2037.675537 1254.762451,2041.555054 1264.164185,2043.744751 
	C1270.786011,2045.286865 1275.822998,2043.947144 1279.967041,2037.513916 
	C1283.714966,2035.937866 1286.468018,2037.066650 1289.224731,2038.359741 
	C1319.280518,2052.457764 1340.266357,2092.016846 1335.067261,2124.788330 
	C1334.749390,2126.792236 1334.191528,2128.681885 1332.122559,2130.698975 
z"/>
<path fill="#D1774B" opacity="1.000000" stroke="none" 
	d="
M1148.178711,1764.597168 
	C1151.928101,1764.377563 1152.470703,1767.735352 1154.062988,1770.147217 
	C1183.808228,1815.203491 1224.112915,1846.745361 1275.273804,1864.042725 
	C1288.592285,1868.545898 1302.442261,1870.465454 1316.311035,1865.693237 
	C1336.572998,1858.721069 1350.121216,1845.283447 1355.607422,1824.299561 
	C1356.446289,1821.091064 1356.774902,1817.755249 1359.163330,1814.403931 
	C1366.078003,1828.758911 1365.474487,1843.748047 1359.829102,1858.505981 
	C1356.923218,1866.102783 1351.638550,1872.209961 1344.210205,1876.042969 
	C1323.470947,1886.743896 1301.516357,1892.344116 1278.706665,1885.555176 
	C1219.658325,1867.979980 1176.697266,1831.284058 1151.239868,1774.781250 
	C1149.884521,1771.773193 1149.109253,1768.503662 1148.178711,1764.597168 
z"/>
<path fill="#D1774B" opacity="1.000000" stroke="none" 
	d="
M1370.236328,1869.144409 
	C1371.434204,1870.268188 1371.576904,1871.917725 1371.020386,1873.542725 
	C1361.033569,1902.697876 1345.576050,1920.298828 1313.257568,1925.967285 
	C1283.294678,1931.222534 1256.885010,1922.261597 1232.704346,1905.069580 
	C1211.686646,1890.126099 1193.219116,1872.582153 1178.468628,1851.305664 
	C1175.437378,1846.933472 1172.322021,1842.586670 1172.165894,1836.195312 
	C1183.065918,1846.253784 1193.287598,1857.614258 1205.646118,1866.823730 
	C1225.134033,1881.346191 1246.324951,1892.324707 1270.017822,1897.787476 
	C1289.790161,1902.346069 1309.547485,1901.114624 1329.395996,1896.609863 
	C1346.596802,1892.706177 1359.931152,1884.029297 1370.236328,1869.144409 
z"/>
<path fill="#F0A265" opacity="1.000000" stroke="none" 
	d="
M1865.210449,2036.197144 
	C1858.971680,2032.947632 1853.338013,2029.410767 1847.691772,2025.894043 
	C1836.619141,2018.997070 1824.218628,2016.762817 1811.512695,2016.061768 
	C1784.610718,2014.577393 1759.530640,2021.041382 1735.466675,2032.990112 
	C1720.716309,2040.314087 1707.243164,2048.683105 1695.737549,2060.831055 
	C1682.100830,2075.229004 1676.844482,2092.632324 1674.363525,2111.268311 
	C1673.599243,2117.008789 1675.503418,2123.104492 1676.310791,2129.969238 
	C1663.612183,2134.257568 1664.469116,2136.754395 1661.847412,2121.729248 
	C1656.213623,2089.441650 1671.854370,2065.771729 1694.624390,2046.986084 
	C1728.505737,2019.033081 1768.300781,2005.051758 1812.597412,2005.151855 
	C1826.835571,2005.184082 1840.184814,2008.940308 1852.894287,2015.183105 
	C1858.367310,2017.871582 1862.603516,2022.073730 1866.852295,2026.333496 
	C1870.673950,2030.164795 1870.099976,2033.152344 1865.210449,2036.197144 
z"/>
<path fill="#F1A366" opacity="1.000000" stroke="none" 
	d="
M1220.438965,2018.204346 
	C1208.833740,2014.327637 1197.586914,2015.710938 1186.457886,2016.928345 
	C1170.414795,2018.683350 1156.990967,2026.670532 1143.619507,2036.427490 
	C1136.357788,2030.979858 1136.303345,2030.727905 1142.047485,2024.673462 
	C1153.970703,2012.106323 1169.600708,2007.272217 1185.965576,2005.906738 
	C1217.419189,2003.281982 1247.406860,2009.741821 1275.739380,2023.682861 
	C1284.986450,2028.232910 1293.848389,2033.472900 1302.514038,2039.042847 
	C1319.774170,2050.137207 1331.974243,2065.484131 1341.025146,2083.760742 
	C1348.622559,2099.102295 1346.888184,2114.698975 1343.869629,2130.533936 
	C1343.372314,2133.142822 1341.777222,2133.630859 1339.559082,2133.200195 
	C1337.277100,2132.756836 1335.011353,2132.229980 1332.087402,2131.450195 
	C1332.175781,2116.645020 1333.140259,2102.315674 1327.958252,2088.045410 
	C1321.959106,2071.524658 1311.519897,2058.748291 1298.085449,2048.169434 
	C1292.965454,2044.137573 1287.722778,2039.871582 1279.759766,2038.235107 
	C1277.630615,2038.669189 1276.799194,2038.797729 1275.273438,2038.568481 
	C1258.782715,2026.258789 1240.655640,2020.357300 1220.438965,2018.204346 
z"/>
<path fill="#D1774B" opacity="1.000000" stroke="none" 
	d="
M1057.532959,1898.840820 
	C1064.396729,1907.381592 1070.846313,1917.001221 1078.046143,1926.022095 
	C1095.290161,1947.626831 1114.353516,1967.466309 1136.391602,1984.320312 
	C1143.503906,1989.759766 1150.358154,1995.536621 1157.714722,2001.720825 
	C1148.030273,2008.042847 1137.477173,2013.124268 1130.966431,2022.262939 
	C1127.924561,2022.784424 1126.906006,2021.261841 1125.857422,2020.115234 
	C1095.066895,1986.449951 1071.727661,1948.427246 1058.465088,1904.540039 
	C1057.985474,1902.952881 1057.788696,1901.280151 1057.532959,1898.840820 
z"/>
<path fill="#36353E" opacity="1.000000" stroke="none" 
	d="
M1583.498779,1104.497803 
	C1583.411987,1105.619263 1582.572388,1106.660156 1581.519775,1107.396484 
	C1580.499756,1108.109985 1578.899170,1109.365601 1578.047729,1108.169556 
	C1576.707886,1106.287720 1579.189575,1105.553833 1580.485962,1104.144287 
	C1581.509277,1104.071045 1582.081055,1104.177490 1583.498779,1104.497803 
z"/>
<path fill="#D3784C" opacity="1.000000" stroke="none" 
	d="
M1057.176514,1285.678223 
	C1057.502441,1286.078613 1057.351440,1286.779175 1056.739746,1287.794189 
	C1056.419312,1287.398438 1056.559570,1286.688477 1057.176514,1285.678223 
z"/>
<path fill="#D3784C" opacity="1.000000" stroke="none" 
	d="
M1803.568848,1710.463135 
	C1803.457886,1710.965698 1802.797119,1711.312256 1801.583740,1711.468506 
	C1801.693726,1710.954468 1802.356323,1710.630859 1803.568848,1710.463135 
z"/>
<path fill="#FEEFD8" opacity="1.000000" stroke="none" 
	d="
M1193.078857,1281.124512 
	C1170.781128,1320.986084 1150.531250,1360.984741 1136.738647,1403.946655 
	C1135.727173,1407.097534 1134.722168,1410.392456 1132.955322,1413.130981 
	C1128.674561,1419.765747 1121.760010,1419.199097 1118.037354,1412.170532 
	C1115.922119,1408.177246 1116.173462,1403.814575 1115.979858,1399.483398 
	C1114.389160,1363.877930 1123.203491,1330.207642 1134.837769,1297.039673 
	C1137.809692,1288.567017 1139.974854,1279.764282 1143.516968,1271.546875 
	C1159.601562,1234.233398 1181.098389,1200.479614 1209.707397,1171.339111 
	C1228.863770,1151.826660 1248.240601,1132.526367 1270.591064,1116.729004 
	C1291.653931,1101.841675 1314.816406,1090.840332 1340.280029,1085.661255 
	C1352.894409,1083.095581 1364.670532,1089.252686 1370.596436,1100.179199 
	C1374.341064,1107.083862 1371.235352,1118.788696 1363.260864,1125.201416 
	C1357.059692,1130.187988 1350.616577,1135.087280 1343.656372,1138.878662 
	C1316.582397,1153.626587 1292.596558,1172.605957 1268.938477,1192.104858 
	C1246.454956,1210.635620 1226.895264,1231.925781 1209.615234,1255.290283 
	C1203.693848,1263.296875 1198.816895,1272.075928 1193.078857,1281.124512 
z"/>
<path fill="#050403" opacity="1.000000" stroke="none" 
	d="
M1313.934326,1511.988403 
	C1295.214111,1479.228027 1294.598389,1446.557495 1313.386841,1414.784058 
	C1329.697510,1387.201050 1362.171143,1385.351929 1382.708496,1410.094727 
	C1402.859375,1434.372070 1412.545288,1480.254028 1384.210205,1515.496582 
	C1366.238770,1537.848999 1341.598511,1537.048828 1321.104004,1519.906006 
	C1318.578857,1517.794067 1316.607422,1515.019897 1313.934326,1511.988403 
z"/>
<path fill="#040302" opacity="1.000000" stroke="none" 
	d="
M1695.372559,1416.723755 
	C1709.833984,1442.924438 1710.158325,1469.650635 1701.374268,1496.679443 
	C1695.520386,1514.692627 1682.765991,1526.633789 1664.392090,1531.411011 
	C1651.241699,1534.830200 1639.065430,1531.206543 1629.355103,1521.725952 
	C1610.104248,1502.930542 1603.095947,1479.671875 1606.738281,1453.338989 
	C1609.197754,1435.556885 1615.243042,1419.084961 1628.389038,1406.053101 
	C1647.001587,1387.602051 1672.937012,1388.743530 1689.779419,1408.779175 
	C1691.700195,1411.064209 1693.259644,1413.653198 1695.372559,1416.723755 
z"/>
<path fill="#CE794E" opacity="1.000000" stroke="none" 
	d="
M1553.391113,1571.802490 
	C1551.262817,1584.687256 1542.920532,1593.191406 1532.555054,1599.408813 
	C1501.406372,1618.092285 1469.922241,1607.694092 1452.233032,1575.084595 
	C1451.942017,1574.548218 1452.078003,1573.780273 1452.101929,1572.370728 
	C1454.885986,1570.451904 1457.409790,1571.436401 1459.919800,1572.291626 
	C1472.374023,1576.534790 1484.098999,1575.170532 1495.152710,1567.933350 
	C1499.107178,1565.344482 1503.647583,1562.521484 1508.086548,1565.696289 
	C1522.047974,1575.682251 1536.989380,1576.114502 1553.391113,1571.802490 
z"/>
<path fill="#D67A4E" opacity="1.000000" stroke="none" 
	d="
M1275.309326,1560.801514 
	C1265.262939,1560.347778 1257.131836,1556.819824 1249.132324,1552.625488 
	C1244.551880,1550.223877 1242.288086,1546.138184 1241.205933,1541.712402 
	C1240.043091,1536.957031 1241.834106,1532.681641 1246.344727,1529.861450 
	C1250.659424,1527.163208 1255.422729,1525.746338 1260.319824,1524.974243 
	C1277.791870,1522.219238 1293.966675,1525.718506 1308.239136,1536.268921 
	C1316.662231,1542.495239 1315.648193,1552.157593 1306.031738,1556.827026 
	C1296.649536,1561.382690 1286.612915,1563.238892 1275.309326,1560.801514 
z"/>
<path fill="#D67A4E" opacity="1.000000" stroke="none" 
	d="
M1695.351562,1540.117432 
	C1709.784302,1525.990967 1726.777832,1522.367798 1745.387329,1524.950195 
	C1749.555664,1525.528564 1753.946289,1525.771606 1757.896851,1527.968262 
	C1767.500854,1533.308838 1768.883667,1542.259766 1761.170166,1549.961426 
	C1758.768677,1552.359253 1756.004028,1554.140015 1752.948364,1555.490356 
	C1738.197998,1562.008911 1722.982910,1563.747803 1707.348511,1559.360352 
	C1696.041260,1556.187378 1693.205933,1551.703247 1695.351562,1540.117432 
z"/>
<path fill="#0E0906" opacity="1.000000" stroke="none" 
	d="
M1554.430908,1571.574707 
	C1538.669800,1581.589966 1523.497070,1579.858643 1509.623657,1569.611572 
	C1504.254639,1565.646118 1501.684082,1567.032104 1497.142822,1570.076538 
	C1483.198486,1579.425049 1468.576050,1581.866089 1452.886597,1571.842529 
	C1447.460327,1564.288208 1443.311157,1556.857788 1447.704956,1547.803101 
	C1448.506104,1547.971436 1448.964966,1547.930664 1449.084229,1548.112549 
	C1460.507690,1565.541382 1477.376831,1569.958862 1493.789917,1557.846680 
	C1501.645508,1552.049805 1506.272217,1551.718750 1513.501587,1558.006348 
	C1520.224487,1563.853638 1529.205444,1564.980469 1538.115845,1563.912231 
	C1548.351074,1562.685303 1554.615845,1556.222290 1558.908325,1546.225708 
	C1563.872925,1556.486328 1560.467773,1563.942871 1554.430908,1571.574707 
z"/>
<path fill="#FEEFD8" opacity="1.000000" stroke="none" 
	d="
M1200.123047,1736.035645 
	C1206.271729,1733.204224 1211.348633,1734.898682 1216.012817,1737.584229 
	C1226.080688,1743.380615 1233.656006,1751.600952 1238.140259,1762.401489 
	C1242.709595,1773.406738 1237.201172,1781.612915 1225.281006,1782.027466 
	C1219.749634,1782.219849 1214.823853,1780.884155 1210.364014,1777.542603 
	C1200.581421,1770.212402 1194.294678,1760.969238 1193.856934,1748.366333 
	C1193.684692,1743.405396 1194.956299,1739.164917 1200.123047,1736.035645 
z"/>
<path fill="#D4784D" opacity="1.000000" stroke="none" 
	d="
M1530.004639,1144.004883 
	C1529.789429,1143.913452 1529.961792,1145.180786 1529.733521,1144.076660 
	C1529.990234,1143.990234 1530.000000,1144.000000 1530.004639,1144.004883 
z"/>
<path fill="#F9ECD6" opacity="1.000000" stroke="none" 
	d="
M1219.464844,2018.292847 
	C1224.673584,2015.795044 1229.459595,2015.705933 1234.432495,2017.115234 
	C1249.693604,2021.439819 1265.317017,2024.952881 1277.128418,2037.891235 
	C1278.063232,2037.922974 1278.432861,2037.600586 1279.389160,2037.722046 
	C1279.975708,2038.166016 1279.814453,2038.028076 1279.727051,2038.088501 
	C1279.105469,2047.691772 1277.648926,2049.252441 1268.472046,2047.685669 
	C1252.540283,2044.965576 1237.842041,2038.717041 1224.150269,2030.277344 
	C1220.308594,2027.909302 1216.223267,2024.669434 1219.464844,2018.292847 
z"/>
<path fill="#D4794D" opacity="1.000000" stroke="none" 
	d="
M1279.767090,2037.834961 
	C1279.603271,2038.393433 1279.230713,2038.620728 1278.276001,2038.546631 
	C1278.195068,2037.695679 1278.577637,2036.847168 1279.767090,2037.834961 
z"/>
<path fill="#F4E6D1" opacity="1.000000" stroke="none" 
	d="
M1376.506104,1418.339111 
	C1378.762695,1423.497925 1378.807373,1428.124268 1378.216553,1432.767944 
	C1377.035400,1442.050171 1369.335693,1448.213989 1359.270874,1448.061523 
	C1351.261719,1447.940186 1344.738281,1441.663696 1343.686035,1432.852661 
	C1342.756226,1425.067627 1342.857178,1417.477417 1349.671753,1411.897217 
	C1359.062378,1404.207275 1368.362549,1406.226685 1376.506104,1418.339111 
z"/>
<path fill="#F4E6D1" opacity="1.000000" stroke="none" 
	d="
M1659.018066,1413.259644 
	C1664.228638,1418.958984 1664.484619,1425.202148 1663.826660,1431.605225 
	C1662.662354,1442.935791 1654.834106,1449.319946 1644.280884,1447.666138 
	C1633.119995,1445.916992 1626.356934,1435.991943 1628.979004,1425.191406 
	C1629.134888,1424.549316 1629.424194,1423.940796 1629.617920,1423.306396 
	C1634.836914,1406.214355 1643.104004,1403.178101 1659.018066,1413.259644 
z"/>
</svg>
