<svg version="1.0" xmlns="http://www.w3.org/2000/svg" width="200" height="200" viewBox="0 0 450.000000 453.000000" preserveAspectRatio="xMidYMid meet">
<metadata>
Created by potrace 1.10, written by Peter Selinger 2001-2011
</metadata>
<g transform="translate(0.000000,453.000000) scale(0.050000,-0.050000)" fill="#000000" stroke="none">
<path d="M4620 9030 c-21 -26 -13 -30 58 -30 82 0 109 25 50 48 -50 19 -81 14
-108 -18z"></path>
<path d="M4840 9032 c0 -39 53 -55 78 -24 26 31 9 52 -41 52 -20 0 -37 -13
-37 -28z"></path>
<path d="M5109 9019 c-7 -12 -25 -17 -39 -12 -14 5 -24 -1 -23 -14 14 -134
-46 -265 -98 -215 -109 105 -272 30 -279 -128 -4 -78 -16 -125 -37 -140 -17
-12 -34 -45 -37 -73 -8 -55 -116 -197 -117 -154 0 17 -8 14 -21 -8 -11 -19
-33 -35 -48 -35 -15 0 -37 -16 -48 -35 -28 -51 -58 -12 -71 94 -13 97 -15 102
-54 108 -15 2 -38 11 -52 20 -14 9 -25 6 -25 -6 0 -11 -9 -21 -20 -21 -11 0
-20 14 -20 30 0 17 -9 30 -20 30 -11 0 -18 -10 -15 -22 8 -33 -68 -75 -79 -43
-14 38 -55 -11 -85 -101 -22 -67 -82 -126 -105 -103 -5 5 -10 -2 -11 -16 -22
-366 -36 -415 -117 -415 -28 0 -45 -8 -39 -19 6 -10 -39 -1 -100 21 -153 54
-369 0 -369 -92 0 -16 -16 -47 -35 -67 -19 -21 -76 -82 -125 -137 -50 -54
-107 -104 -125 -112 -19 -7 -35 -21 -35 -32 0 -12 -23 -13 -60 -2 -33 9 -60
11 -61 4 0 -8 -18 7 -40 33 -29 36 -39 39 -39 16 0 -60 -88 -98 -172 -75 -86
24 -115 11 -63 -27 40 -29 46 -92 11 -127 -18 -18 -29 -11 -48 34 -30 72 -135
104 -184 55 -33 -33 -33 -33 71 -64 14 -4 25 -31 25 -60 0 -29 22 -79 48 -110
27 -32 52 -68 56 -80 16 -49 108 4 150 87 56 114 91 229 76 254 -7 11 1 15 18
8 19 -7 39 -64 55 -160 29 -171 47 -184 79 -58 27 106 47 124 90 81 56 -56 77
-46 196 89 15 17 34 53 42 80 56 184 248 223 250 50 1 -88 28 -125 68 -91 61
50 16 221 -57 221 -27 0 -48 99 -35 165 9 47 104 48 104 2 0 -18 36 -67 80
-109 44 -42 80 -93 80 -112 1 -85 25 -128 68 -122 32 5 41 18 36 56 -20 155
-15 190 29 196 23 3 63 28 88 55 49 53 99 61 160 28 48 -25 55 -139 9 -139
-17 0 -40 -22 -50 -50 -10 -27 -32 -50 -47 -50 -37 0 -53 -112 -23 -153 26
-35 19 -41 120 86 27 34 50 72 50 82 0 11 14 31 30 45 52 43 41 296 -15 355
-39 42 -45 69 -45 219 0 155 4 174 45 201 25 16 45 47 45 69 0 29 12 37 45 32
43 -6 45 -14 46 -206 0 -173 7 -210 46 -274 45 -72 45 -156 2 -156 -25 0 -24
-94 1 -110 11 -7 20 -70 20 -140 0 -118 29 -230 59 -230 37 0 103 66 80 80
-17 11 -28 105 -35 306 l-9 290 67 82 c38 45 85 81 105 82 21 0 64 23 97 50
32 28 70 50 84 50 94 0 166 267 90 337 -27 26 -39 58 -35 96 12 98 67 81 212
-65 l134 -136 0 -116 1 -116 -124 -119 c-131 -126 -159 -183 -139 -283 19 -93
145 -234 234 -261 71 -21 98 -57 99 -130 0 -13 -40 -47 -90 -76 -94 -55 -106
-86 -70 -180 25 -66 56 -65 82 4 11 30 27 59 34 65 27 19 194 249 209 287 8
20 33 41 55 47 22 6 40 22 40 37 0 14 5 40 12 57 7 18 2 32 -11 32 -13 0 -17
-11 -9 -23 14 -23 10 -22 -90 18 -19 8 -23 4 -13 -13 10 -16 -9 -13 -51 9 -50
26 -74 29 -101 12 -33 -21 -74 33 -61 82 2 8 -6 15 -18 15 -20 0 -14 90 10
150 4 11 14 40 22 65 18 56 50 58 64 5 6 -22 19 -40 30 -40 10 0 13 9 6 20
-30 49 -27 100 6 100 29 1 30 3 4 20 -19 12 -21 20 -6 20 14 0 30 43 38 100 7
56 21 105 30 111 17 11 -41 191 -69 211 -9 7 -13 38 -10 70 8 71 100 89 199
40 34 -17 95 -37 135 -44 82 -15 175 -57 228 -104 22 -19 35 -22 35 -7 0 13
17 23 38 23 21 0 43 11 49 25 6 14 11 10 11 -11 3 -49 56 -101 91 -87 15 6 33
-2 39 -18 6 -16 25 -29 41 -29 17 0 31 -8 31 -17 0 -17 112 -52 145 -46 8 2
15 -7 15 -18 0 -12 9 -16 20 -9 11 7 20 2 20 -10 0 -14 -18 -18 -45 -11 -42
12 -41 10 5 -17 54 -33 133 -46 83 -14 -20 12 -16 19 17 28 31 8 40 3 33 -16
-16 -42 79 -96 126 -71 53 29 60 27 51 -19 -8 -44 64 -74 123 -52 48 19 13 41
-78 50 -8 1 -15 14 -15 30 0 15 -27 38 -60 52 -33 14 -60 37 -60 52 0 29 -19
35 -93 29 -24 -2 -49 6 -56 18 -8 12 -24 15 -37 7 -14 -8 -12 1 3 20 27 33 1
48 -65 35 -9 -1 -36 14 -60 36 -49 44 -331 137 -432 141 -38 2 -77 11 -86 20
-9 9 8 13 39 9 54 -8 54 -7 -11 22 -37 18 -72 28 -77 23 -4 -5 -33 -1 -64 8
-34 9 -65 8 -77 -4 -13 -13 -25 -11 -35 5 -10 16 -7 20 8 11 13 -8 23 -5 23 5
0 34 -107 60 -279 67 -110 5 -111 4 -107 -49 3 -46 -31 -84 -35 -40 -1 8 -6
35 -10 60 -5 25 1 45 13 45 14 0 18 29 10 79 -7 57 -2 88 20 110 20 20 22 31
7 31 -13 0 -2 18 24 39 26 22 36 40 23 40 -13 1 -30 -9 -37 -20z"></path>
<path d="M3840 8775 c-52 -27 -57 -33 -20 -25 45 11 46 10 12 -12 -22 -13
-106 -23 -196 -22 -171 2 -267 -21 -244 -59 8 -14 5 -18 -8 -10 -11 8 -27 5
-34 -7 -7 -11 -38 -20 -70 -20 -31 0 -61 -11 -67 -25 -7 -17 -10 -16 -12 5 -1
18 -17 6 -41 -30 -22 -33 -40 -49 -40 -35 0 16 -23 22 -65 17 -36 -4 -80 -9
-98 -10 -18 -1 -37 -14 -43 -30 -8 -20 6 -26 53 -23 34 2 80 -4 100 -14 21
-11 33 -11 27 -1 -6 9 6 17 26 17 26 0 32 -7 19 -22 -12 -15 -8 -22 11 -22 17
0 30 12 30 28 0 15 8 22 18 16 10 -6 14 7 8 29 -6 23 -1 40 13 40 13 0 18 -11
11 -25 -7 -14 -1 -11 14 5 17 19 63 30 130 30 72 0 113 11 130 33 34 43 174
63 213 31 23 -19 31 -19 38 2 7 19 17 17 39 -10 16 -20 23 -25 16 -11 -8 17 4
25 38 25 27 0 55 9 62 20 7 12 21 15 32 9 40 -25 136 12 125 47 -9 28 -7 29
10 5 17 -25 25 -25 55 0 22 18 30 20 21 4 -9 -14 -6 -25 6 -25 11 0 21 10 21
23 0 14 15 10 37 -10 22 -20 67 -32 115 -31 76 3 76 3 18 18 l-60 15 70 5 c39
2 88 6 110 8 22 3 60 6 85 8 47 4 64 62 20 66 -106 10 -356 7 -405 -6 -33 -8
-105 -8 -160 0 -79 12 -115 8 -170 -21z m172 -58 c10 -16 -2 -20 -39 -13 -31
6 -62 -1 -75 -17 -13 -15 -32 -27 -43 -27 -11 0 2 18 28 39 53 45 108 52 129
18z"></path>
<path d="M2700 8699 c-62 -12 -58 -14 38 -16 60 -2 102 3 95 11 -20 19 -52 20
-133 5z"></path>
<path d="M2833 8487 c-9 -9 -26 -17 -39 -19 -13 -1 -41 -3 -62 -5 -37 -3 -37
-5 4 -48 l42 -46 -108 6 c-92 5 -113 0 -134 -35 -18 -28 -47 -40 -97 -40 -55
0 -89 -17 -153 -79 -46 -44 -106 -85 -134 -92 -29 -8 -52 -21 -52 -30 0 -9
-19 -22 -41 -29 -23 -8 -38 -25 -32 -39 5 -13 0 -37 -11 -53 -15 -21 -17 -18
-8 12 10 35 9 36 -13 9 -14 -17 -40 -27 -58 -24 -41 9 -71 -34 -38 -54 31 -20
-20 -41 -98 -41 -38 0 -67 -16 -88 -48 -17 -27 -108 -126 -201 -221 -94 -95
-166 -184 -160 -198 7 -19 -7 -24 -51 -17 -46 6 -61 1 -61 -23 0 -17 -17 -42
-37 -57 -20 -14 -52 -53 -70 -86 -55 -99 -81 -136 -118 -169 -19 -17 -37 -56
-40 -86 -2 -37 -13 -52 -30 -46 -26 10 -68 -65 -52 -93 4 -7 -11 -19 -33 -26
-22 -7 -40 -24 -40 -39 0 -14 -18 -49 -40 -77 -22 -28 -46 -78 -53 -112 -6
-34 -20 -62 -30 -62 -10 0 -28 -25 -41 -55 -13 -30 -35 -68 -48 -85 -13 -16
-29 -70 -36 -119 -7 -49 -22 -98 -35 -110 -17 -15 -19 -13 -7 9 12 23 10 25
-8 8 -13 -12 -26 -77 -28 -145 -3 -95 -11 -121 -34 -118 -22 4 -33 -27 -45
-124 -12 -94 -28 -136 -57 -157 -36 -25 -40 -48 -36 -228 2 -142 -4 -205 -22
-216 -19 -12 -19 -18 3 -26 19 -8 17 -11 -7 -12 -41 -2 -39 23 -49 -525 -7
-365 -3 -458 19 -480 15 -15 33 -81 41 -147 31 -283 38 -318 65 -345 16 -16
28 -68 28 -126 0 -81 8 -103 47 -129 28 -18 48 -53 50 -85 8 -111 14 -136 49
-187 19 -29 29 -67 23 -84 -8 -19 7 -48 39 -76 39 -34 49 -58 42 -101 -8 -41
0 -61 30 -77 32 -17 40 -15 40 10 0 17 16 38 35 46 19 8 38 36 41 64 3 27 18
56 35 66 16 9 29 29 29 44 0 15 17 40 39 55 21 15 44 52 52 83 8 30 26 60 40
65 74 28 67 207 -8 207 -65 0 -95 54 -54 99 19 21 32 59 28 84 -10 78 16 97
112 84 81 -11 88 -8 94 36 5 31 20 47 47 47 26 0 38 11 34 33 -8 51 33 67 176
67 137 0 150 16 110 125 -34 94 -310 -18 -310 -127 0 -15 -12 -28 -27 -28 -15
0 -55 -14 -90 -31 -94 -48 -152 -32 -159 43 -5 54 3 65 75 98 45 20 81 43 81
51 0 9 25 41 57 73 71 71 90 146 62 250 -20 73 -17 88 20 134 23 29 49 70 59
93 10 23 55 65 100 95 45 30 82 62 82 72 0 10 18 22 40 28 41 10 55 92 28 162
-17 44 -68 40 -68 -5 0 -20 -24 -58 -52 -85 -29 -26 -74 -82 -101 -123 -26
-41 -61 -75 -77 -75 -16 0 -35 -22 -42 -50 -8 -31 -26 -50 -50 -50 -56 0 -52
106 5 144 76 50 37 136 -61 136 -74 0 -78 4 -86 69 -8 75 37 107 103 71 73
-39 336 20 347 78 13 65 25 59 -127 64 -194 6 -222 21 -216 115 5 85 9 86 150
55 72 -16 267 68 267 115 0 15 18 43 40 63 22 20 40 57 40 83 0 26 18 63 40
82 60 51 59 294 -1 326 -32 17 -40 38 -35 95 8 102 64 111 96 15 41 -125 71
-88 61 76 -4 67 6 87 77 156 89 85 105 146 42 163 -27 7 -40 27 -40 62 0 29
-7 52 -16 52 -21 0 -99 -59 -79 -59 8 -1 -1 -19 -20 -42 -19 -22 -35 -47 -35
-56 0 -45 -86 -184 -124 -201 -59 -27 -112 -153 -86 -202 11 -21 20 -57 20
-81 0 -25 15 -56 34 -69 31 -23 31 -29 -1 -97 -36 -75 -117 -103 -141 -48 -6
14 -6 -8 1 -49 13 -85 -2 -119 -44 -103 -16 6 -24 19 -18 29 6 10 3 18 -8 18
-22 0 -49 -61 -33 -76 5 -6 10 1 10 15 0 21 6 21 30 1 32 -26 4 -91 -30 -70
-8 5 -20 -8 -26 -30 -6 -23 -27 -40 -50 -40 -41 0 -47 28 -15 78 12 19 10 24
-6 14 -13 -8 -23 -3 -24 12 0 17 -10 13 -28 -10 -15 -20 -22 -53 -17 -73 9
-35 -11 -62 -104 -138 -24 -20 -31 -55 -28 -135 6 -126 -27 -182 -71 -122 -18
23 -32 29 -40 15 -8 -12 -21 -17 -29 -12 -9 5 -33 -4 -54 -20 -37 -29 -37 -30
2 -25 23 4 38 -4 35 -19 -3 -14 3 -25 14 -25 10 0 15 -17 11 -38 -12 -62 11
-120 52 -133 21 -6 34 -20 28 -29 -6 -10 -1 -23 10 -30 13 -8 13 -25 1 -49
-11 -19 -15 -41 -8 -47 6 -6 4 -23 -5 -38 -30 -47 -28 -91 6 -119 25 -21 34
-21 41 -2 6 18 19 19 47 4 45 -24 51 -112 10 -170 -15 -21 -29 -48 -30 -59 -2
-11 -21 -19 -42 -18 -22 2 -34 -5 -28 -15 6 -10 19 -12 29 -6 11 6 19 2 19
-10 0 -11 -16 -21 -35 -21 -19 0 -48 -10 -65 -22 -24 -18 -23 -20 10 -10 37
11 37 9 -4 -25 -24 -21 -40 -42 -35 -47 5 -5 -15 -22 -44 -38 -42 -22 -55 -22
-62 -3 -6 18 -19 19 -46 4 -43 -22 -23 -83 45 -134 27 -20 29 -38 15 -90 -16
-53 -12 -70 18 -95 61 -49 68 -119 15 -139 -25 -10 -46 -30 -46 -44 -1 -15
-10 -65 -22 -112 -11 -50 -12 -90 -2 -96 15 -10 27 30 21 74 -3 20 76 -5 90
-29 8 -11 -8 -38 -34 -59 -30 -24 -47 -60 -48 -99 -1 -40 -16 -71 -47 -92 -25
-16 -45 -22 -43 -12 2 10 2 27 -1 38 -3 11 -6 34 -7 50 -2 17 -14 28 -28 25
-14 -3 -25 5 -25 16 0 12 -10 15 -21 8 -12 -7 -19 -1 -16 14 8 41 -24 119 -43
107 -10 -6 -24 0 -32 13 -8 14 -6 18 8 10 11 -8 27 -5 34 7 7 11 3 20 -9 20
-11 0 -21 14 -21 30 0 17 -11 30 -23 30 -13 0 -18 6 -11 13 7 6 0 42 -16 80
-15 37 -23 67 -17 67 7 0 -13 32 -43 72 -44 57 -51 80 -36 115 32 72 1 410
-40 436 -12 8 -21 41 -21 74 0 38 -8 57 -21 49 -12 -6 -11 0 3 15 14 15 25 45
25 68 1 34 4 36 20 11 17 -26 19 -25 20 5 0 19 -9 35 -20 35 -11 0 -20 28 -20
61 0 37 8 56 21 49 13 -8 18 16 15 67 -3 43 -13 75 -21 70 -8 -5 -16 -2 -17 7
0 9 -4 31 -8 49 -3 19 7 58 22 88 32 62 37 117 9 99 -11 -6 -7 26 10 72 16 46
29 98 29 117 0 18 11 44 24 57 30 30 35 208 6 197 -11 -5 -20 28 -19 75 1 86
36 192 64 192 9 0 18 19 20 42 4 56 23 73 43 41 13 -21 19 -20 29 5 10 29 -8
41 -51 35 -8 -2 -9 11 -3 28 7 18 25 26 42 20 27 -10 27 -7 3 22 -20 24 -21
36 -5 41 12 4 18 25 13 47 -8 28 4 44 42 58 28 11 52 31 52 46 -1 17 -7 16
-21 -5 -17 -25 -20 -23 -14 10 4 22 18 38 31 35 13 -3 24 8 24 24 0 18 -12 25
-30 18 -39 -15 -38 7 0 46 17 17 25 38 19 49 -6 10 0 18 13 18 14 0 19 6 11
13 -7 8 2 30 19 50 18 19 27 50 21 67 -8 21 -5 27 11 18 14 -9 19 -4 12 14
-13 32 32 83 55 62 8 -8 10 6 4 31 -6 25 -3 45 7 45 10 0 18 15 18 33 0 19 13
49 30 67 16 18 32 55 34 83 3 40 13 48 50 41 25 -5 47 1 48 14 2 12 5 31 8 42
3 11 6 39 8 62 1 28 12 39 31 31 18 -7 34 4 41 28 7 21 22 39 33 39 11 0 14
18 7 40 -12 36 4 49 53 43 7 -1 19 29 26 67 8 42 30 79 57 93 47 25 134 117
134 142 0 8 8 13 18 10 10 -3 19 2 20 10 2 25 109 126 126 120 9 -3 16 5 16
16 0 12 8 16 18 10 10 -6 23 0 29 14 7 19 15 18 31 -5 17 -24 21 -21 22 21 0
28 11 62 24 75 19 19 18 24 -1 24 -14 0 -20 9 -13 20 7 12 22 15 32 9 28 -17
118 46 118 81 0 17 9 30 20 30 11 0 20 14 20 30 0 19 19 30 50 30 28 0 50 -9
50 -20 0 -11 10 -20 22 -20 12 0 17 13 11 28 -12 32 54 83 135 103 28 7 48 20
43 27 -5 8 21 48 58 90 46 52 71 67 79 48 9 -20 15 -21 24 -1 6 14 30 25 52
25 28 0 37 9 28 31 -6 18 -3 26 8 19 11 -7 20 -4 20 7 0 31 66 46 83 19 14
-21 20 -21 34 1 10 14 23 26 30 25 49 -7 60 0 33 20 -23 16 -18 19 25 12 51
-8 65 6 57 53 -2 10 10 13 27 6 16 -6 35 -2 42 9 7 12 26 16 41 10 25 -10 37
12 30 54 -2 10 6 12 16 5 11 -6 25 -3 32 9 7 11 -1 20 -17 20 -16 0 -33 10
-37 21 -4 12 -14 14 -23 6z"></path>
<path d="M1208 8337 c-9 -14 -5 -18 9 -9 15 9 23 -1 23 -28 0 -23 9 -37 20
-30 31 19 24 90 -9 90 -16 0 -35 -10 -43 -23z"></path>
<path d="M1300 8221 c0 -11 16 -28 35 -38 38 -19 85 -10 85 18 0 10 -13 13
-28 7 -15 -6 -34 -1 -41 11 -17 26 -51 28 -51 2z"></path>
<path d="M6725 8029 c4 -52 67 -84 123 -62 18 6 33 -8 41 -40 18 -74 108 -159
123 -118 7 17 19 26 28 21 8 -5 27 4 40 20 14 17 22 31 17 32 -4 0 -22 4 -40
7 -18 4 -52 26 -75 49 -23 23 -51 42 -62 42 -11 0 -20 10 -20 23 0 36 -65 76
-125 76 -46 1 -54 -7 -50 -50z"></path>
<path d="M4614 7865 c-15 -57 -6 -145 16 -150 11 -3 23 38 26 90 6 92 -23 133
-42 60z"></path>
<path d="M7093 7810 c7 -19 -1 -30 -22 -30 -18 0 -28 -8 -22 -19 6 -10 41 -14
76 -10 39 5 54 1 39 -8 -21 -13 -20 -22 5 -42 17 -14 26 -34 20 -43 -6 -10 2
-18 19 -18 16 0 37 -13 46 -29 9 -15 25 -27 36 -26 11 1 23 -15 27 -36 10 -54
27 -68 88 -73 29 -3 49 -9 44 -13 -5 -5 1 -21 14 -36 12 -15 17 -44 12 -64 -5
-21 0 -37 13 -37 67 1 89 -12 112 -66 14 -33 32 -55 41 -50 20 13 102 -100 85
-117 -7 -7 -2 -13 12 -13 13 0 18 -10 11 -22 -9 -14 0 -19 24 -14 83 17 -21
256 -111 256 -12 0 -22 11 -23 25 -1 38 -93 135 -128 135 -17 0 -31 9 -31 20
0 62 -24 90 -139 163 -49 32 -81 57 -72 57 9 0 -10 20 -41 44 -32 25 -65 56
-74 70 -23 37 -75 33 -61 -4z"></path>
<path d="M4638 7661 c-5 -40 -9 -51 -24 -76 -9 -14 -9 -25 0 -25 9 0 4 -9 -12
-18 -22 -14 -19 -22 16 -41 23 -12 40 -16 38 -7 -3 9 12 41 32 72 21 30 32 61
25 68 -7 7 -13 2 -13 -10 0 -13 -14 -17 -32 -11 -22 9 -25 17 -8 27 18 11 18
19 2 29 -12 7 -23 4 -24 -8z"></path>
<path d="M816 7580 c-12 -77 -5 -97 24 -68 11 11 12 44 3 78 l-16 60 -11 -70z"></path>
<path d="M5543 7595 c-13 -13 -23 -45 -23 -71 0 -26 -18 -71 -40 -99 -22 -28
-40 -67 -40 -88 0 -20 -14 -37 -30 -37 -38 0 -80 -86 -63 -129 19 -51 68 -35
90 29 25 72 19 72 137 9 172 -92 186 -114 184 -294 -1 -88 7 -168 18 -179 47
-47 64 12 64 213 0 147 8 212 26 228 49 40 74 -17 74 -166 0 -117 9 -154 48
-212 28 -42 48 -100 48 -142 0 -67 70 -237 98 -237 7 0 29 15 49 32 59 54 97
21 97 -81 0 -50 9 -91 20 -91 11 0 20 13 20 29 0 152 218 32 486 -266 43 -48
73 -63 128 -63 l71 0 -14 -107 c-13 -104 78 -275 152 -285 9 -2 26 -4 38 -5
14 -2 14 -15 0 -42 -55 -103 -28 -170 124 -312 250 -231 382 -261 436 -96 39
119 100 84 105 -61 4 -79 -4 -95 -76 -159 -81 -72 -92 -83 -155 -150 -72 -75
48 -162 127 -92 54 50 98 23 98 -61 0 -50 -11 -75 -35 -84 -19 -7 -68 -38
-109 -70 l-73 -57 -27 55 c-40 85 -106 76 -106 -14 l0 -70 129 -4 c70 -3 139
4 152 14 28 24 49 5 49 -45 0 -49 -37 -85 -105 -102 -68 -17 -78 -103 -15
-123 22 -7 40 -25 40 -39 0 -53 122 -149 167 -132 105 38 135 -94 39 -170
l-54 -43 59 -28 c56 -27 59 -37 51 -148 -4 -51 -81 -35 -103 22 -16 42 -30 51
-71 43 -49 -10 -51 -6 -44 71 5 71 -1 84 -53 113 -37 21 -65 57 -76 98 -22 84
-63 71 -71 -22 -5 -58 2 -74 35 -85 32 -10 41 -30 41 -92 0 -57 10 -83 35 -92
109 -41 145 -90 145 -202 0 -87 8 -114 45 -144 46 -37 55 -151 32 -410 -8 -91
-56 -117 -87 -46 -25 58 -83 62 -73 6 13 -74 0 -298 -19 -334 -41 -76 -134
-46 -152 49 -11 56 -29 87 -52 91 -52 10 -62 -46 -30 -177 l29 -119 -66 0
c-58 0 -67 -7 -67 -50 0 -27 -9 -50 -20 -50 -11 0 -20 25 -21 55 0 30 -17 91
-37 135 l-37 80 -23 -58 c-15 -37 -18 -110 -10 -205 l14 -147 -68 -70 c-55
-57 -78 -68 -123 -59 -45 10 -58 4 -74 -38 -10 -27 -51 -75 -90 -106 -39 -31
-71 -67 -71 -80 0 -30 -46 -47 -95 -34 -26 7 -49 -7 -73 -43 -57 -86 -109
-130 -157 -130 -27 0 -73 -32 -115 -80 -38 -44 -81 -80 -94 -80 -14 0 -35 -19
-47 -41 -15 -29 -38 -40 -76 -36 -56 6 -133 -53 -174 -133 -15 -29 -36 -38
-81 -34 -42 4 -76 -9 -115 -45 -30 -28 -73 -51 -95 -51 -22 0 -66 -19 -97 -43
-40 -29 -73 -38 -108 -29 -38 9 -58 2 -80 -30 -23 -32 -58 -44 -156 -52 -70
-6 -136 -21 -147 -33 -34 -39 -66 -42 -502 -49 l-422 -7 -62 52 c-61 52 -192
54 -184 3 2 -10 -8 -24 -21 -33 -26 -15 -159 102 -159 140 0 35 -76 23 -104
-16 -50 -71 -106 -70 -127 2 -22 76 -79 95 -121 42 -28 -36 -30 -35 -61 8 -23
32 -52 45 -101 45 -82 0 -146 31 -146 70 0 64 -89 56 -110 -11 -9 -27 -40 -40
-121 -50 -60 -8 -131 -31 -157 -51 -70 -55 -106 -47 -159 37 l-48 75 48 44
c26 24 47 66 47 93 0 26 13 59 30 73 39 33 38 53 -5 68 -19 6 -46 17 -60 24
-14 6 -25 -1 -25 -17 0 -76 -187 -147 -250 -95 -45 38 -36 116 20 168 84 78
54 121 -60 89 -128 -36 -279 -21 -326 33 -24 27 -61 50 -82 50 -27 0 -46 22
-62 70 -27 82 -64 90 -96 20 -29 -64 -76 -47 -92 34 -20 102 -16 109 116 177
122 62 188 137 161 180 -19 31 -89 21 -89 -12 0 -16 -14 -36 -32 -42 -17 -7
-39 -34 -50 -61 -29 -78 -148 -59 -148 24 0 48 9 61 48 67 27 4 61 19 77 35
15 15 41 28 56 28 16 0 29 18 29 40 0 22 -9 40 -19 40 -42 0 -121 -48 -131
-80 -20 -63 -205 -49 -290 22 -97 82 -68 128 83 128 91 0 110 7 126 44 11 24
36 48 57 53 21 6 32 20 25 32 -22 35 -102 24 -141 -19 -49 -54 -87 -50 -110
10 -24 63 -56 64 -79 2 -10 -26 -27 -53 -37 -59 -26 -17 -164 112 -164 153 0
18 -13 34 -30 34 -42 0 -38 59 5 62 19 2 71 4 115 6 121 4 224 105 198 194
-27 94 -62 93 -91 -3 -26 -87 -88 -134 -146 -112 -45 17 -39 125 9 173 48 48
49 58 12 88 -52 40 -62 153 -16 165 23 6 51 37 65 68 13 32 40 63 61 70 48 15
51 105 5 123 -40 15 -139 -97 -157 -177 -7 -30 -24 -58 -38 -64 -15 -5 -31
-53 -37 -106 -6 -52 -22 -99 -36 -104 -13 -4 -41 -25 -62 -46 -20 -20 -60 -37
-87 -37 -58 0 -65 -29 -15 -58 19 -12 24 -21 11 -21 -13 -1 -30 9 -37 21 -19
30 -107 -57 -99 -99 4 -18 8 -38 8 -45 1 -6 32 -43 69 -81 37 -38 80 -95 96
-128 16 -32 40 -57 53 -54 13 3 22 -2 20 -10 -13 -50 33 -141 86 -173 37 -22
64 -57 71 -94 9 -45 23 -58 61 -58 42 0 48 -8 43 -56 -5 -50 96 -183 141 -184
7 -1 38 -37 71 -80 32 -44 70 -80 84 -80 14 0 50 -31 81 -70 31 -38 67 -70 81
-70 14 0 25 -17 25 -38 0 -45 50 -91 80 -72 12 8 44 -10 70 -38 26 -29 66 -52
88 -52 22 0 63 -31 92 -68 36 -47 78 -74 139 -90 55 -14 93 -36 100 -59 6 -20
32 -47 56 -60 64 -32 117 -68 163 -108 22 -19 65 -35 96 -35 32 0 62 -13 68
-28 20 -53 198 -62 248 -12 43 43 82 45 95 5 4 -12 -11 -27 -34 -35 -70 -22
-48 -65 38 -73 66 -7 82 -1 99 38 12 25 31 45 43 45 12 0 15 11 6 25 -11 18
-6 18 18 -1 18 -15 29 -42 26 -61 -4 -19 6 -51 21 -72 15 -21 28 -30 28 -20 0
11 9 6 19 -10 10 -17 26 -23 35 -14 9 9 0 28 -20 43 -23 16 -29 31 -15 39 11
7 21 4 21 -7 0 -11 15 -15 33 -8 22 8 29 5 20 -9 -8 -13 5 -25 32 -29 25 -4
43 -18 40 -32 -12 -56 34 -106 76 -83 22 12 39 32 36 45 -7 48 26 90 63 80 31
-8 34 -18 16 -69 -26 -74 -28 -73 109 -81 85 -6 115 -1 115 18 0 14 10 26 21
26 12 0 17 -7 12 -15 -5 -8 41 -18 101 -21 86 -4 108 1 100 22 -28 73 107 75
167 3 26 -32 25 -34 -16 -21 -25 8 -45 6 -45 -4 0 -10 -22 -14 -50 -9 -36 7
-50 1 -50 -21 0 -45 70 -52 450 -44 362 8 388 10 387 28 -5 38 6 48 23 22 17
-27 19 -26 20 1 0 21 20 30 70 30 38 -1 70 -7 70 -15 0 -22 63 7 103 47 47 47
79 47 132 -3 24 -22 57 -40 73 -40 38 0 67 45 35 56 -13 4 -17 17 -10 29 9 14
1 17 -20 9 -21 -8 -33 -3 -33 17 0 16 7 29 15 29 8 0 34 6 58 12 32 9 47 1 57
-31 11 -36 27 -42 101 -38 107 5 139 22 123 65 -10 25 2 32 62 32 133 0 146 4
121 33 -16 20 -15 27 6 28 102 6 191 25 217 47 37 32 109 63 160 70 11 1 20
20 20 41 0 27 10 36 30 28 46 -18 130 10 130 43 0 17 16 30 36 30 48 0 92 113
50 129 -44 16 -46 15 -46 -32 0 -24 -6 -38 -13 -31 -7 7 -28 4 -48 -6 -51 -28
-67 30 -21 75 20 19 47 55 60 80 35 67 102 60 102 -11 0 -70 99 -138 155 -106
19 12 26 21 15 22 -11 0 -6 9 10 20 22 14 23 19 4 20 -17 0 -22 14 -15 37 10
31 4 36 -38 28 -90 -17 -158 45 -118 107 29 44 36 46 51 20 29 -51 100 -41 92
13 -6 48 35 57 112 24 25 -10 34 -9 26 5 -8 13 7 21 37 21 29 0 59 -16 70 -38
32 -58 128 -51 108 8 -8 25 -15 75 -15 111 -1 55 -8 65 -37 57 -21 -5 -37 -1
-37 10 0 11 -8 14 -19 8 -10 -6 -24 -2 -31 9 -14 23 35 80 69 80 11 0 21 9 21
20 0 11 8 20 18 20 10 0 16 -25 12 -55 -5 -40 11 -73 54 -119 l61 -63 68 65
c64 63 91 152 46 152 -11 0 -43 -22 -70 -49 -27 -27 -49 -42 -49 -33 0 8 -22
27 -48 41 -28 15 -44 38 -38 53 5 15 18 23 27 18 9 -6 22 -1 29 10 7 11 20 16
29 10 9 -5 31 13 49 40 41 63 90 66 87 5 -2 -25 -10 -50 -18 -56 -9 -6 1 -21
22 -34 48 -30 120 28 122 97 1 34 6 39 15 18 8 -16 27 -33 42 -36 24 -5 24 -1
3 25 -14 17 -18 32 -8 33 9 1 -5 8 -33 16 -32 9 -48 27 -44 48 3 19 -5 31 -20
27 -14 -4 -19 -3 -11 2 8 5 9 18 2 30 -8 12 -4 15 10 7 13 -8 23 -5 23 7 0 11
17 21 38 21 59 0 102 21 102 50 0 32 37 47 84 35 21 -6 29 -21 21 -42 -11 -30
-9 -30 27 -1 21 18 54 38 73 44 24 9 35 34 35 82 0 52 10 73 40 82 49 16 51
46 5 84 -33 28 -33 29 0 18 30 -9 33 -5 15 28 -12 22 -17 41 -11 43 42 9 64 7
84 -8 14 -10 29 -8 37 4 7 12 20 17 29 11 38 -23 36 51 -1 77 -40 28 -39 30
27 52 56 18 74 38 93 102 13 45 36 79 53 79 26 0 38 46 34 135 0 13 7 20 16
14 77 -47 105 210 28 260 -28 18 -49 44 -47 57 8 69 -4 80 -37 33 -51 -72 -34
-188 21 -142 27 22 35 -82 9 -109 -60 -60 -116 -7 -119 113 -1 33 -10 65 -19
71 -32 20 -17 128 22 162 39 33 39 34 -1 62 -33 23 -35 33 -15 58 82 98 12
530 -94 587 -69 36 -79 99 -38 229 19 61 29 117 22 124 -7 7 -13 0 -13 -16 -1
-24 -3 -24 -19 0 -19 32 8 123 43 145 29 17 -18 192 -57 213 -36 20 8 123 53
124 27 1 27 3 0 20 -19 12 -21 20 -6 20 45 0 29 223 -20 275 -45 49 -192 99
-212 72 -7 -10 -23 -18 -37 -19 -59 -5 -67 -9 -54 -29 7 -12 -24 -3 -69 20
-45 23 -82 51 -82 61 0 39 -5 51 -42 102 -20 29 -30 60 -22 68 8 9 4 11 -8 4
-38 -22 -81 51 -86 146 -6 104 -34 147 -86 133 -52 -13 -121 80 -106 146 28
131 27 141 -11 162 -22 11 -39 13 -39 5 -2 -91 -98 -53 -99 39 -1 19 -9 35
-19 35 -28 0 -193 144 -187 163 3 9 -4 17 -15 17 -11 0 -20 17 -20 39 0 21
-11 45 -23 53 -16 10 -20 4 -11 -18 9 -24 3 -29 -21 -19 -55 21 -104 71 -91
92 7 12 -1 15 -20 7 -20 -7 -41 1 -53 22 -18 31 -20 31 -20 -2 -1 -59 -62 -32
-104 46 -20 38 -37 63 -37 54 0 -8 -21 -1 -47 16 -26 17 -61 26 -78 19 -19 -7
-34 4 -41 32 -12 47 1 99 26 99 25 0 10 67 -17 76 -23 7 -31 -19 -24 -73 2
-17 -12 -13 -40 13 -33 31 -41 56 -33 112 6 46 1 72 -13 72 -15 1 -14 6 3 17
19 12 14 28 -22 65 -63 63 -81 140 -45 191 33 47 10 101 -32 75 -15 -9 -40
-19 -56 -21 -15 -3 -36 -19 -45 -36 -27 -47 -52 -38 -95 33 -32 52 -42 58 -52
30 -16 -42 -47 -26 -40 21 3 19 1 24 -3 10 -10 -28 -37 -30 -93 -7 -35 13 -35
17 -5 47 34 34 45 155 13 155 -10 0 -31 13 -47 29 -21 21 -34 23 -51 6z m1874
-2177 c-15 -10 -18 -18 -8 -18 10 0 8 -11 -5 -24 -17 -17 -30 -18 -45 -3 -26
26 33 94 65 75 13 -8 10 -19 -7 -30z m693 -2458 c-7 -11 -4 -20 7 -20 26 0 15
-77 -20 -140 -49 -89 -58 -98 -84 -88 -39 15 6 143 54 156 26 6 34 20 26 43
-13 31 -2 69 19 69 6 0 5 -9 -2 -20z m-430 -729 c0 -42 -37 -58 -71 -30 -42
34 -36 50 21 54 32 3 50 -6 50 -24z m-145 -54 c28 -28 -22 -75 -80 -76 -41 -1
-43 7 -14 60 23 44 60 50 94 16z m-610 -607 c-5 -28 -20 -56 -32 -64 -13 -7
-16 -5 -8 4 8 9 -1 28 -20 42 -32 23 -31 27 15 45 28 11 51 21 52 22 1 0 -2
-22 -7 -49z m-4739 -238 c13 -33 -2 -52 -39 -52 -15 0 -27 18 -27 40 0 45 50
54 66 12z m4112 -201 c19 -12 24 -10 14 6 -9 14 -4 18 14 12 19 -7 24 -29 17
-65 -8 -38 -13 -43 -18 -19 -11 51 -45 43 -40 -10 4 -34 -4 -43 -32 -39 -22 4
-32 -2 -24 -15 8 -12 -3 -21 -26 -21 -22 0 -54 -5 -71 -12 -22 -9 -32 -1 -31
25 0 45 45 107 76 107 13 0 22 7 21 15 -2 8 -2 20 0 27 3 16 67 9 100 -11z
m-527 -292 c18 -30 -27 -77 -72 -73 -42 3 -51 24 -19 44 12 7 15 21 9 31 -6
11 7 19 29 19 22 0 45 -9 53 -21z m-2241 -34 c-31 -23 -35 -70 -6 -90 20 -14
19 -15 -4 -7 -16 7 -45 17 -63 24 -42 15 11 88 62 88 18 0 23 -7 11 -15z m222
-54 c16 -34 17 -54 1 -70 -37 -37 -50 -23 -47 49 5 82 16 87 46 21z"></path>
<path d="M7680 7572 c0 -33 11 -52 30 -52 17 0 30 12 30 28 0 15 -13 38 -30
52 -25 21 -30 17 -30 -28z"></path>
<path d="M7770 7480 c-17 -27 6 -60 41 -60 33 0 34 4 17 48 -14 36 -40 42 -58
12z"></path>
<path d="M4780 7422 c0 -47 12 -62 63 -80 100 -35 107 -10 22 80 -69 73 -85
73 -85 0z"></path>
<path d="M918 7403 c-1 -7 -5 -38 -10 -68 -9 -55 20 -77 39 -30 7 18 10 18 11
-2 2 -35 62 9 62 44 0 24 -99 78 -102 56z"></path>
<path d="M7844 7384 c9 -48 76 -57 76 -10 0 24 -15 39 -41 41 -29 2 -40 -8
-35 -31z"></path>
<path d="M7985 7304 c-55 -8 -56 -24 -5 -90 48 -61 129 -68 98 -9 -11 20 -16
42 -11 50 15 26 -35 55 -82 49z"></path>
<path d="M2135 7158 c-19 -11 -35 -15 -35 -8 0 6 -12 0 -28 -14 -19 -19 -22
-40 -9 -74 10 -27 14 -61 9 -75 -6 -14 3 -57 19 -95 16 -39 21 -74 12 -80 -9
-6 -12 -39 -7 -73 9 -65 -59 -60 -81 6 -6 18 -18 15 -43 -10 -19 -19 -26 -35
-16 -35 46 0 40 -83 -8 -104 -52 -24 -58 -38 -30 -67 10 -10 22 -41 25 -69 6
-39 17 -49 52 -44 33 5 50 -7 65 -45 29 -76 44 -62 37 34 -7 80 -4 85 53 95
44 7 62 23 67 57 3 25 23 63 45 85 61 61 39 254 -35 308 -22 16 -39 63 -46
127 -10 89 -15 98 -46 81z"></path>
<path d="M8113 7067 c-21 -22 -15 -147 7 -147 22 0 60 83 60 131 0 30 -43 40
-67 16z"></path>
<path d="M7807 7030 c-6 -17 -6 -37 1 -44 6 -7 12 -2 12 11 0 13 10 23 21 23
12 0 16 -9 9 -20 -7 -11 1 -25 17 -32 16 -6 27 -26 24 -44 -3 -19 2 -54 11
-79 12 -31 10 -45 -7 -46 -14 0 -4 -12 21 -26 26 -14 58 -48 72 -74 14 -27 36
-47 49 -44 13 3 23 -19 23 -53 0 -58 44 -114 75 -95 17 11 19 1 25 -157 3 -55
14 -111 25 -125 11 -14 15 -43 9 -65 -6 -23 -2 -35 9 -28 11 7 25 -7 31 -29 5
-23 27 -47 48 -54 21 -6 39 -27 41 -45 1 -19 5 -68 9 -109 3 -41 -1 -75 -11
-75 -42 0 -33 -60 15 -103 35 -31 43 -34 23 -9 -28 37 -26 38 37 26 72 -15 91
70 34 146 -13 17 -25 59 -27 94 -5 81 -36 166 -61 166 -11 0 -26 41 -33 90 -8
50 -26 98 -42 106 -16 9 -34 52 -41 95 -7 43 -25 91 -39 105 -15 15 -27 38
-27 52 0 13 -18 44 -40 68 -22 24 -50 63 -62 88 -102 221 -223 359 -251 286z"></path>
<path d="M5280 7015 c0 -18 -17 -38 -38 -44 -45 -15 -66 -79 -36 -109 16 -16
15 -22 -1 -22 -13 0 -19 -13 -12 -30 6 -16 25 -30 41 -30 18 0 26 12 20 28 -6
15 0 39 13 52 18 20 16 23 -7 11 -16 -8 -12 2 10 22 40 37 54 110 25 139 -8 8
-15 0 -15 -17z"></path>
<path d="M651 6883 c-13 -41 6 -107 27 -94 7 4 15 36 18 69 5 68 -26 85 -45
25z"></path>
<path d="M2489 6674 c-19 -49 25 -95 52 -54 14 23 18 18 19 -24 0 -29 9 -59
20 -66 40 -25 19 69 -29 124 -43 51 -49 52 -62 20z"></path>
<path d="M5528 6631 c-15 -62 1 -111 37 -111 19 0 25 21 19 70 -10 87 -39 108
-56 41z"></path>
<path d="M4707 6635 c6 -65 -33 -195 -58 -195 -15 0 -36 -31 -46 -70 -11 -38
-38 -93 -61 -122 -28 -35 -42 -83 -42 -138 0 -47 -13 -117 -30 -156 -27 -66
-24 -130 7 -137 109 -21 112 -18 134 213 8 90 26 154 49 180 19 22 41 73 48
114 7 40 24 77 37 81 40 13 33 255 -8 255 -18 0 -32 -11 -30 -25z"></path>
<path d="M5791 6555 c-4 -14 -7 -38 -7 -55 1 -16 -5 -64 -14 -105 -12 -64 -10
-74 17 -63 41 15 57 70 42 141 -6 31 -13 68 -14 82 -1 14 -5 25 -9 25 -4 0
-11 -11 -15 -25z"></path>
<path d="M2806 6458 c-17 -67 -17 -91 1 -102 36 -23 62 54 41 127 l-18 63 -24
-88z"></path>
<path d="M5245 6487 c-41 -17 -28 -62 21 -71 36 -7 47 1 50 38 3 45 -17 54
-71 33z"></path>
<path d="M8437 6378 c8 -85 30 -89 34 -7 2 27 -7 58 -19 68 -16 13 -21 -4 -15
-61z"></path>
<path d="M8013 6330 c-7 -19 -5 -48 5 -65 15 -27 19 -25 32 14 17 53 -18 101
-37 51z"></path>
<path d="M323 6222 c-22 -39 -23 -56 -1 -100 l26 -52 7 55 c4 31 5 76 1 100
l-7 45 -26 -48z"></path>
<path d="M2518 6235 c23 -30 22 -35 -4 -35 -18 0 -37 -8 -43 -18 -6 -10 9 -14
34 -8 36 7 39 5 15 -11 -24 -18 -22 -21 12 -18 53 4 53 45 0 90 -39 33 -40 33
-14 0z"></path>
<path d="M4112 6209 c-26 -70 -12 -168 28 -194 31 -19 40 -46 40 -118 0 -111
15 -157 50 -157 59 0 71 276 15 332 -19 19 -44 62 -55 95 -23 69 -60 89 -78
42z"></path>
<path d="M2054 6098 c-6 -23 -20 -36 -31 -30 -11 7 -27 2 -35 -11 -9 -14 -6
-18 9 -9 13 8 23 2 23 -14 0 -20 16 -25 55 -18 64 12 94 46 59 68 -18 12 -17
15 2 16 15 0 21 9 14 20 -22 36 -85 21 -96 -22z"></path>
<path d="M5943 6032 c4 -29 16 -53 27 -53 30 1 24 86 -7 97 -18 6 -24 -8 -20
-44z"></path>
<path d="M6345 5997 c-16 -16 -17 -35 -3 -60 11 -21 14 -48 6 -60 -8 -13 -3
-19 11 -14 13 4 24 17 24 28 0 10 14 35 32 54 29 32 28 35 -17 35 -38 1 -42 5
-18 20 17 11 21 20 9 20 -12 0 -31 -10 -44 -23z"></path>
<path d="M242 5955 c-22 -59 -16 -160 11 -169 12 -4 22 38 25 103 4 117 -8
140 -36 66z"></path>
<path d="M5500 5890 c-15 -40 -33 -50 -90 -50 -39 0 -70 -10 -70 -23 0 -12
-18 -42 -40 -65 -107 -113 -140 -156 -140 -182 0 -15 -14 -36 -31 -46 -18 -10
-37 -56 -43 -106 -7 -48 -29 -109 -49 -136 -56 -72 -54 -436 3 -502 22 -26 40
-75 40 -110 0 -36 18 -87 40 -115 22 -28 40 -65 40 -82 0 -18 17 -41 38 -52
21 -11 47 -47 59 -81 11 -33 31 -60 42 -60 12 0 31 -20 42 -45 22 -48 156
-135 209 -135 17 0 38 -19 47 -43 26 -69 449 -72 494 -3 16 25 40 46 52 46 23
0 217 188 217 211 0 7 18 36 40 64 22 28 40 70 40 95 0 24 18 60 40 80 37 33
40 62 40 340 0 274 -4 310 -40 355 -22 28 -40 79 -40 112 0 33 -9 66 -20 73
-10 6 -53 63 -94 126 -41 63 -83 117 -93 121 -10 5 -32 25 -50 45 -17 21 -42
38 -54 38 -13 0 -38 17 -57 38 -42 46 -130 72 -157 45 -28 -28 3 -144 42 -157
68 -24 203 -117 203 -140 0 -14 18 -34 40 -46 22 -12 40 -31 40 -43 0 -12 23
-48 50 -81 28 -33 50 -84 50 -117 0 -33 14 -65 35 -77 56 -31 64 -502 9 -555
-21 -20 -44 -62 -51 -91 -16 -67 -100 -193 -156 -235 -23 -17 -60 -51 -83 -76
-66 -72 -454 -68 -502 5 -18 28 -53 50 -77 51 -31 0 -76 41 -145 130 -55 71
-120 156 -145 187 -27 35 -45 86 -45 127 0 43 -15 82 -40 105 -61 55 -59 331
3 393 25 25 46 78 52 130 6 48 18 87 28 87 10 0 29 25 42 55 58 131 116 194
171 189 40 -4 59 6 74 40 18 42 30 45 153 39 202 -10 288 58 193 153 -51 51
-334 31 -356 -26z"></path>
<path d="M1320 5891 c0 -17 21 -36 47 -42 37 -9 45 -22 38 -60 -7 -37 -1 -49
25 -49 28 0 31 102 3 111 -1 1 -28 17 -58 36 -47 29 -55 30 -55 4z"></path>
<path d="M2232 5883 c-6 -10 -8 -46 -5 -80 4 -34 0 -57 -10 -51 -20 12 -22
-23 -4 -88 22 -82 67 15 59 125 -8 98 -20 127 -40 94z"></path>
<path d="M5128 5869 c7 -19 3 -26 -10 -18 -13 8 -19 0 -15 -20 4 -18 16 -33
27 -33 29 1 38 102 9 102 -13 0 -18 -14 -11 -31z"></path>
<path d="M2660 5745 c0 -14 -7 -24 -15 -23 -72 12 -85 -4 -83 -97 l1 -95 27
60 c19 44 20 62 3 68 -12 5 6 18 41 30 51 17 60 29 46 52 -13 20 -19 22 -20 5z"></path>
<path d="M2960 5683 c-11 -3 -20 -25 -20 -47 0 -33 -10 -39 -54 -30 -65 12
-106 -2 -106 -36 0 -14 -32 -49 -70 -79 -39 -29 -85 -81 -103 -116 -18 -35
-45 -75 -60 -90 -15 -16 -27 -37 -27 -48 0 -12 -18 -44 -40 -72 -24 -30 -40
-81 -40 -125 0 -44 -16 -95 -40 -125 -33 -42 -40 -82 -40 -215 0 -133 7 -173
40 -215 24 -30 40 -81 40 -125 0 -45 15 -92 40 -120 22 -25 40 -58 40 -73 0
-15 18 -43 40 -62 22 -18 40 -42 40 -52 0 -10 27 -48 60 -86 33 -38 60 -77 60
-87 0 -10 31 -24 68 -31 45 -8 72 -26 79 -53 8 -32 24 -38 84 -33 58 6 79 -2
97 -33 48 -86 131 -95 200 -20 33 35 67 50 119 50 51 0 78 11 93 40 14 26 42
40 79 40 39 0 62 12 70 36 6 20 47 63 91 95 43 33 79 70 80 82 0 13 23 51 50
83 28 33 50 71 50 84 0 13 18 47 40 75 22 28 40 80 40 116 0 36 16 82 35 101
57 57 62 340 7 429 -23 38 -42 93 -42 121 0 29 -18 75 -40 103 -22 28 -40 65
-40 81 0 16 -14 35 -30 41 -17 7 -41 36 -55 65 -28 62 -123 168 -150 168 -10
0 -35 18 -55 40 -20 22 -56 40 -81 40 -24 0 -56 17 -72 39 -25 36 -399 71
-477 44z m486 -210 c13 -39 31 -53 68 -53 49 0 90 -35 221 -190 25 -29 45 -64
45 -77 0 -13 18 -40 40 -58 27 -24 40 -59 40 -112 0 -51 13 -89 40 -113 52
-47 57 -238 8 -293 -18 -19 -37 -77 -43 -127 -7 -61 -23 -98 -48 -111 -20 -11
-37 -33 -37 -48 0 -15 -20 -52 -45 -81 -157 -187 -267 -270 -356 -270 -38 0
-75 -18 -103 -50 -57 -66 -203 -72 -236 -10 -12 22 -42 40 -68 40 -83 0 -352
254 -352 332 0 14 -14 34 -32 44 -20 11 -37 63 -47 148 -9 71 -26 147 -37 168
-15 28 -12 70 8 148 15 60 28 146 28 192 0 50 15 101 37 130 21 27 44 69 52
95 8 26 30 63 48 82 18 20 59 68 91 108 36 44 76 73 103 73 24 0 58 20 74 45
49 75 475 64 501 -12z"></path>
<path d="M3514 4792 c-114 -104 -58 -290 103 -341 53 -17 160 81 164 149 17
251 -106 339 -267 192z"></path>
<path d="M3304 4270 c-14 -31 -15 -53 -3 -61 11 -6 25 5 32 25 7 20 16 42 20
50 4 7 0 18 -10 24 -9 6 -27 -11 -39 -38z"></path>
<path d="M2913 4287 c-19 -20 -16 -107 5 -107 26 0 43 57 21 71 -11 6 -14 20
-8 30 13 22 2 25 -18 6z"></path>
<path d="M3736 5679 c-39 -23 -29 -72 15 -72 17 0 29 19 29 46 0 53 2 52 -44
26z"></path>
<path d="M8415 5687 c14 -6 25 -20 25 -31 0 -11 -14 -15 -31 -8 -18 6 -26 3
-19 -8 7 -11 1 -20 -14 -20 -19 -1 -19 -5 3 -19 16 -10 35 -14 43 -10 8 5 10
-9 4 -31 -6 -22 2 -55 17 -73 21 -26 22 -35 2 -42 -14 -5 -25 -28 -25 -52 1
-35 4 -37 20 -13 12 18 20 20 20 6 0 -13 -9 -29 -21 -37 -14 -8 -14 -20 0 -37
11 -14 23 -46 27 -71 4 -25 25 -56 47 -68 24 -14 39 -42 37 -73 -1 -27 -4
-170 -6 -316 -3 -172 -11 -262 -24 -254 -11 7 -20 -2 -20 -20 0 -19 9 -27 23
-18 17 10 20 -7 11 -62 -7 -41 -4 -92 7 -112 21 -39 -5 -66 -66 -67 -36 -1
-50 -39 -15 -43 11 -2 29 -4 40 -5 23 -3 27 -69 5 -91 -15 -15 -18 -26 -22
-82 -2 -16 -13 -28 -26 -25 -32 7 -55 -87 -32 -132 10 -20 14 -54 9 -75 -6
-21 -2 -43 8 -49 10 -7 13 -20 7 -31 -6 -10 -20 -13 -30 -7 -31 19 -70 -88
-42 -116 12 -12 23 -32 23 -42 0 -11 -17 1 -38 25 -38 43 -38 43 -28 -87 6
-86 2 -132 -12 -133 -12 -2 -33 -4 -47 -5 -27 -3 -36 -53 -9 -52 26 1 75 -57
69 -82 -3 -13 6 -28 20 -33 17 -6 25 13 25 61 0 89 17 133 52 133 20 0 28 26
28 85 1 104 19 178 41 164 30 -18 40 27 49 243 5 118 19 221 30 228 40 25 48
114 54 607 l5 498 -49 -10 c-31 -6 -44 -2 -36 12 27 43 -7 400 -36 382 -10 -6
-18 3 -18 21 0 18 -8 27 -18 21 -9 -6 -22 7 -28 29 -6 22 -22 39 -37 38 -20
-1 -21 -4 -2 -11z"></path>
<path d="M8680 5536 c0 -96 9 -138 32 -158 35 -29 33 82 -3 170 -12 30 -10 35
13 21 22 -13 22 -9 -2 20 -16 21 -27 41 -23 46 3 4 1 14 -5 20 -7 6 -12 -47
-12 -119z"></path>
<path d="M4273 5610 c-27 -27 -27 -37 -2 -85 16 -30 29 -71 29 -90 0 -19 14
-35 30 -35 17 0 30 -10 30 -21 0 -12 10 -15 22 -8 12 8 15 20 5 27 -9 6 -20
30 -23 52 -18 112 -30 150 -47 150 -11 0 -14 9 -7 20 19 30 -3 24 -37 -10z"></path>
<path d="M7440 5580 c0 -11 -13 -20 -30 -20 -16 0 -30 -9 -30 -20 0 -23 41
-26 70 -5 28 21 34 65 10 65 -11 0 -20 -9 -20 -20z"></path>
<path d="M2280 5449 c0 -17 -8 -26 -19 -20 -10 6 -30 -5 -45 -25 -14 -20 -41
-42 -59 -49 -32 -12 -30 -115 3 -115 20 0 55 43 63 79 4 16 31 53 61 83 29 30
48 59 41 66 -22 22 -45 12 -45 -19z"></path>
<path d="M5712 5452 c6 -15 1 -34 -12 -42 -16 -10 -16 -21 1 -42 13 -15 30
-24 38 -19 19 12 1 131 -21 131 -9 0 -12 -13 -6 -28z"></path>
<path d="M6940 5453 c0 -16 -11 -33 -25 -38 -20 -7 -20 -15 0 -39 13 -16 19
-36 11 -43 -7 -7 3 -13 21 -13 27 0 33 16 29 71 -4 69 -36 123 -36 62z"></path>
<path d="M4120 5419 c0 -38 50 -76 72 -53 13 13 -36 94 -57 94 -8 0 -15 -18
-15 -41z"></path>
<path d="M4858 5325 c-2 -8 -1 -24 2 -35 12 -58 10 -130 -4 -130 -9 0 -16 -9
-16 -19 0 -11 13 -15 29 -9 27 11 28 27 8 183 -4 28 -16 34 -19 10z"></path>
<path d="M5950 5320 c-7 -12 -21 -16 -30 -10 -9 6 -24 0 -32 -13 -8 -13 -6
-18 5 -11 19 12 75 -39 81 -73 6 -39 18 -28 18 18 0 27 -7 49 -15 49 -9 0 -11
14 -4 30 13 34 -4 41 -23 10z"></path>
<path d="M1718 5255 c-2 -25 0 -54 3 -65 3 -11 6 -38 8 -60 4 -65 32 -130 55
-130 13 0 12 11 -3 29 -20 23 -19 42 4 87 16 31 25 74 21 95 -5 22 -9 50 -11
64 -4 46 -75 28 -77 -20z"></path>
<path d="M2313 5227 c-7 -8 -13 -31 -13 -52 0 -20 -9 -32 -20 -25 -11 7 -14
-1 -8 -19 20 -52 57 -35 80 39 21 67 1 97 -39 57z"></path>
<path d="M4031 5221 c-8 -12 -4 -21 8 -21 11 0 20 -7 19 -15 -7 -43 4 -85 23
-85 29 0 15 125 -14 135 -13 4 -29 -2 -36 -14z"></path>
<path d="M4607 5133 c5 -74 49 -105 64 -44 15 56 -1 91 -40 91 -16 0 -26 -20
-24 -47z"></path>
<path d="M5419 5012 c-155 -67 -78 -412 92 -412 89 0 202 224 143 284 -15 14
-42 50 -61 79 -40 61 -104 79 -174 49z"></path>
<path d="M4140 4957 c0 -61 1 -62 39 -28 33 30 35 40 12 63 -42 41 -51 35 -51
-35z"></path>
<path d="M2133 4907 c-28 -29 -12 -99 23 -101 29 -2 35 9 28 56 -8 57 -24 71
-51 45z"></path>
<path d="M6865 4894 c10 -30 135 -44 135 -15 0 11 -7 22 -15 22 -8 1 -40 5
-71 9 -37 5 -54 -1 -49 -16z"></path>
<path d="M658 4880 c-2 -11 -3 -33 -3 -50 0 -59 5 -72 25 -60 23 14 19 130 -4
130 -9 0 -17 -9 -18 -20z"></path>
<path d="M1964 4724 c-2 -87 21 -135 54 -115 28 17 29 151 1 151 -12 0 -16 9
-9 20 7 11 -1 20 -16 20 -20 0 -30 -24 -30 -76z"></path>
<path d="M1652 4685 c-17 -52 3 -98 31 -70 11 11 11 38 0 66 l-17 48 -14 -44z"></path>
<path d="M4411 4606 c-33 -5 -72 -27 -86 -48 -15 -21 -42 -38 -59 -38 -37 0
-195 -161 -236 -240 -63 -121 -39 -357 41 -409 27 -18 49 -46 49 -64 0 -24 15
-29 62 -22 53 7 65 1 81 -44 l18 -53 230 -1 c226 0 230 1 242 48 10 39 23 47
75 42 63 -5 65 -3 248 189 61 65 45 340 -23 403 -29 27 -53 57 -53 66 0 9 -29
33 -65 53 -36 21 -78 53 -95 72 -31 37 -301 65 -429 46z m364 -173 c36 -12 65
-28 65 -37 0 -9 12 -16 26 -16 15 0 51 -25 80 -56 117 -122 39 -384 -114 -384
-37 0 -54 -13 -63 -46 -18 -73 -451 -75 -514 -2 -23 26 -59 48 -79 48 -53 0
-81 91 -66 215 7 58 20 105 29 105 8 0 39 23 69 50 30 28 64 50 76 50 12 0 43
23 69 51 52 57 277 68 422 22z"></path>
<path d="M4380 4040 c0 -33 9 -60 20 -60 18 0 28 28 22 65 -1 8 8 15 19 15 12
0 16 9 9 20 -27 44 -70 19 -70 -40z"></path>
<path d="M1740 4512 c0 -82 30 -97 45 -22 5 28 -2 59 -18 72 -22 19 -27 9 -27
-50z"></path>
<path d="M1404 4516 c-13 -13 -24 -40 -24 -59 0 -19 -15 -43 -33 -53 -45 -26
-2 -48 62 -32 62 15 90 97 48 140 -22 22 -34 23 -53 4z"></path>
<path d="M8779 4490 c0 -33 -4 -97 -8 -142 -4 -45 0 -112 8 -150 12 -53 17
-26 23 119 4 103 1 197 -7 210 -8 13 -15 -4 -16 -37z"></path>
<path d="M2144 4314 c-13 -15 -15 -37 -5 -53 25 -40 7 -147 -30 -174 -26 -19
-23 -22 20 -20 32 2 48 12 42 28 -5 14 -3 25 5 25 9 0 17 16 20 35 9 83 10 97
7 140 -3 50 -27 58 -59 19z"></path>
<path d="M2250 4320 c-31 -13 -33 -17 -7 -19 18 0 38 -14 44 -31 19 -48 53
-35 53 20 0 52 -22 59 -90 30z"></path>
<path d="M1719 4256 c-28 -19 -26 -27 15 -68 25 -25 46 -64 46 -85 0 -63 22
-103 55 -103 17 0 42 -16 56 -35 43 -57 84 -2 45 59 -16 25 -36 70 -43 100 -7
30 -34 66 -58 79 -25 13 -54 35 -65 48 -14 18 -29 20 -51 5z"></path>
<path d="M1369 4211 c-37 -56 -24 -91 33 -91 40 0 88 87 67 122 -21 33 -68 19
-100 -31z"></path>
<path d="M5269 4038 c-9 -15 -7 -19 6 -11 11 7 26 0 32 -16 8 -20 1 -26 -23
-18 -30 9 -30 7 2 -19 22 -19 28 -34 15 -40 -12 -6 -11 -9 4 -6 31 7 33 116 2
126 -13 5 -30 -3 -38 -16z"></path>
<path d="M3880 3820 c0 -29 13 -40 50 -40 59 0 63 16 15 52 -49 37 -65 34 -65
-12z"></path>
<path d="M5380 3810 c0 -27 8 -50 18 -50 24 0 39 43 27 75 -16 43 -45 27 -45
-25z"></path>
<path d="M1573 3827 c-19 -20 -16 -167 5 -167 16 0 42 93 42 153 0 29 -24 36
-47 14z"></path>
<path d="M7095 3790 c-15 -77 27 -121 84 -91 30 16 41 17 32 3 -7 -12 -4 -22
8 -22 11 0 21 10 21 21 0 12 8 16 19 10 10 -6 23 -4 29 6 18 28 -32 58 -92 55
-29 -2 -53 2 -52 7 6 73 -35 82 -49 11z"></path>
<path d="M8900 3821 c0 -10 8 -24 18 -30 10 -6 14 -28 8 -49 -9 -36 28 -134
45 -117 5 4 0 36 -10 70 -11 38 -10 65 1 69 10 3 1 22 -22 41 -22 19 -40 26
-40 16z"></path>
<path d="M1249 3707 c17 -95 100 -118 131 -36 31 81 25 89 -60 89 -77 0 -80
-3 -71 -53z"></path>
<path d="M5209 3695 c-42 -109 42 -189 127 -121 30 25 29 26 -10 7 -44 -21
-62 1 -78 96 -8 43 -26 51 -39 18z"></path>
<path d="M5390 3700 c-7 -11 -2 -20 11 -20 13 0 18 -12 13 -28 -8 -19 0 -24
27 -17 49 12 49 29 0 60 -25 15 -44 17 -51 5z"></path>
<path d="M6931 3682 c-16 -50 13 -94 47 -73 29 18 28 36 -5 81 -27 36 -28 36
-42 -8z"></path>
<path d="M6610 3660 c-7 -11 2 -40 19 -64 l31 -45 0 53 c0 57 -29 90 -50 56z"></path>
<path d="M1138 3616 c-13 -24 -42 -59 -64 -77 -25 -20 -36 -45 -28 -66 18 -48
69 -41 86 12 7 25 25 54 38 65 14 11 30 40 36 65 14 60 -36 60 -68 1z"></path>
<path d="M4909 3593 c-16 -40 24 -128 70 -152 23 -13 41 -35 41 -50 0 -48 54
-50 79 -2 33 61 20 117 -33 140 -24 11 -48 36 -53 55 -11 42 -89 49 -104 9z"></path>
<path d="M5500 3571 c0 -27 10 -55 22 -62 12 -7 38 -53 59 -101 39 -92 56
-103 95 -64 41 41 28 126 -26 172 -27 24 -50 57 -50 74 0 19 -19 30 -50 30
-40 0 -50 -10 -50 -49z"></path>
<path d="M4045 3530 c-34 -38 -34 -52 -2 -72 36 -22 89 22 53 45 -21 14 -20
21 4 37 27 17 27 19 0 19 -16 0 -41 -14 -55 -29z"></path>
<path d="M3546 3500 c-6 -23 -27 -40 -50 -40 -22 0 -44 -16 -49 -36 -5 -19
-29 -44 -53 -55 -31 -13 -46 -40 -51 -89 -3 -38 -19 -77 -35 -86 -33 -19 -36
-62 -7 -117 29 -54 83 -12 67 53 -8 33 -1 47 28 55 24 6 45 34 53 70 7 33 35
79 62 102 27 24 49 55 49 71 0 15 18 32 40 38 27 7 36 21 28 42 -17 45 -70 40
-82 -8z"></path>
<path d="M3705 3498 c-1 -22 10 -38 27 -38 18 0 24 -10 16 -23 -9 -14 -5 -18
9 -9 34 21 28 68 -13 90 -28 15 -36 11 -39 -20z"></path>
<path d="M7000 3520 c25 -16 23 -19 -10 -20 -31 0 -41 -15 -45 -64 l-4 -64 64
64 c64 64 58 103 -15 103 -11 0 -6 -8 10 -19z"></path>
<path d="M7246 3505 c-7 -19 -34 -60 -59 -92 -26 -31 -47 -69 -47 -85 0 -15
-9 -28 -19 -28 -11 0 -50 -27 -88 -60 -38 -33 -85 -60 -106 -60 -20 -1 -59
-18 -87 -40 -70 -55 -284 -56 -337 -3 -82 82 -140 73 -165 -27 -23 -91 -50
-114 -71 -60 -6 17 -33 30 -60 30 -63 0 -127 34 -127 67 0 15 -23 37 -51 50
-27 12 -55 36 -61 52 -7 17 -42 36 -80 43 -52 9 -68 23 -68 55 0 38 -3 39 -32
9 -37 -36 24 -144 93 -166 37 -12 65 -110 46 -160 -17 -45 -120 -37 -172 15
-26 26 -63 42 -90 38 -33 -4 -55 11 -80 55 -19 34 -46 62 -60 62 -14 0 -42 17
-64 39 -52 52 -108 60 -117 16 -4 -23 11 -42 46 -55 51 -19 58 -94 16 -165
-17 -30 -97 -14 -121 25 -18 28 -47 40 -96 40 -56 0 -74 10 -89 50 -11 29 -35
50 -57 50 -23 0 -43 18 -50 45 -9 35 -17 39 -36 20 -19 -19 -16 -33 12 -64 70
-77 53 -190 -30 -197 -80 -7 -246 105 -265 179 -16 58 -121 45 -130 -17 -12
-80 -138 -157 -186 -114 -43 39 -77 16 -78 -53 0 -41 -40 -79 -82 -79 -19 0
-38 -9 -41 -19 -21 -61 -102 -29 -135 54 l-34 86 -39 -51 c-21 -27 -59 -53
-85 -56 -25 -4 -59 -26 -76 -50 -16 -24 -40 -44 -52 -44 -12 0 -33 -15 -46
-33 -34 -46 -90 -20 -90 42 0 46 67 131 103 131 9 0 11 14 4 30 -17 44 -89 37
-101 -10 -6 -22 -19 -40 -29 -40 -10 0 -24 -16 -31 -35 -48 -129 -186 -219
-186 -122 0 62 -56 67 -110 9 -39 -42 -67 -52 -144 -53 -53 0 -113 -13 -135
-29 -34 -26 -42 -26 -73 2 -59 53 -139 28 -183 -57 -44 -86 -64 -92 -96 -33
-16 29 -35 38 -66 31 -67 -16 -254 34 -277 74 -17 32 -24 32 -64 6 -96 -62
-218 122 -134 201 55 51 72 133 34 164 -33 28 -72 14 -72 -25 0 -14 -54 -80
-120 -148 -68 -70 -120 -141 -120 -165 0 -40 -66 -80 -131 -80 -39 0 -38 127
1 160 34 28 39 72 12 89 -27 17 -141 -54 -144 -89 -9 -115 8 -153 104 -246
111 -106 128 -106 158 2 38 136 105 160 182 64 63 -78 68 -80 187 -80 143 0
291 -115 291 -225 0 -50 54 -149 135 -247 19 -24 49 -63 65 -88 17 -25 42 -55
56 -68 22 -19 219 -203 335 -313 22 -22 60 -39 85 -39 24 0 44 -12 44 -28 0
-30 42 -52 100 -52 21 0 43 -17 49 -38 7 -21 36 -44 64 -51 28 -7 75 -30 104
-52 40 -29 71 -36 129 -26 94 15 96 73 4 84 -114 12 -154 188 -61 273 28 27
51 60 51 75 0 14 18 42 40 60 22 19 40 48 40 65 0 16 18 30 39 30 22 0 49 18
61 40 13 23 42 40 71 40 27 0 65 18 84 40 26 31 59 40 143 40 83 0 120 10 154
42 54 50 413 75 395 27 -24 -63 182 -81 218 -19 8 14 46 31 84 39 39 7 79 29
90 49 34 63 621 57 621 -7 0 -26 59 -50 124 -51 19 0 64 -30 101 -66 36 -36
81 -72 100 -79 62 -24 37 -255 -27 -255 -12 0 -39 -20 -60 -45 -37 -44 -39
-44 -68 -6 -16 21 -36 31 -45 22 -8 -9 -4 -20 10 -25 49 -18 30 -106 -23 -106
-26 0 -59 -14 -74 -32 -14 -18 -47 -40 -72 -50 -61 -23 -63 -109 -4 -124 32
-9 46 2 62 47 20 59 80 81 106 39 18 -30 50 -4 50 40 0 20 18 43 40 50 22 7
49 30 61 51 11 22 34 39 50 39 17 0 35 14 42 30 6 17 24 30 39 30 16 0 57 27
91 60 35 33 71 60 80 60 9 0 17 13 17 29 0 16 18 39 40 51 22 12 40 34 40 49
0 15 13 32 28 37 15 6 39 43 52 83 12 39 31 71 42 71 10 0 50 67 88 149 38 82
78 153 88 159 9 7 23 44 31 83 7 39 25 76 40 81 15 6 33 32 39 59 30 117 192
297 332 369 80 40 180 156 180 207 0 26 18 63 40 83 55 50 54 150 -1 150 -22
0 -46 -16 -53 -35z m-2536 -637 c0 -32 7 -60 15 -63 36 -12 53 -3 43 22 -7 19
7 26 46 25 45 -2 58 -13 68 -62 10 -46 14 -50 16 -15 2 53 82 63 122 15 14
-16 37 -30 52 -30 41 0 34 55 -10 93 -21 18 -34 44 -29 59 13 32 67 14 67 -22
0 -31 51 -27 84 6 37 37 76 28 76 -16 0 -22 -11 -40 -25 -40 -46 -1 33 -39 80
-40 32 0 45 12 45 40 0 43 11 45 247 50 79 1 121 -7 127 -24 6 -14 18 -21 28
-15 10 7 24 -2 30 -19 11 -28 17 -28 54 -2 52 37 82 39 69 5 -10 -26 20 -62
59 -69 12 -3 26 22 30 54 5 32 1 53 -9 47 -31 -19 -75 10 -63 42 17 43 54 39
83 -9 26 -41 85 -55 85 -20 0 11 12 20 28 20 15 0 38 13 52 30 33 40 87 9 119
-68 44 -105 141 -98 101 7 -24 65 -24 66 30 71 82 9 124 -1 166 -41 55 -51 56
-91 2 -105 -25 -7 -36 -21 -28 -34 8 -13 -3 -27 -28 -34 -26 -7 -48 -36 -61
-83 -11 -40 -41 -89 -66 -109 -25 -21 -31 -32 -15 -24 17 7 13 -1 -9 -18 -21
-18 -32 -38 -25 -45 7 -7 -2 -25 -21 -39 -33 -25 -33 -27 0 -27 55 -1 36 -147
-19 -153 -51 -5 -126 -35 -126 -50 0 -38 -80 -97 -115 -85 -69 25 -122 147
-62 147 27 0 117 94 117 122 0 52 -110 7 -116 -47 -7 -61 -98 -80 -140 -30
-11 14 -61 24 -112 23 -60 -1 -92 7 -92 23 0 13 -23 40 -52 59 -38 25 -46 40
-30 56 32 32 27 48 -20 60 -36 10 -41 4 -33 -37 20 -106 -242 -100 -304 8 -12
21 -20 23 -20 7 -1 -39 -65 -97 -121 -110 -70 -15 -238 -74 -313 -109 -68 -32
-156 -18 -134 21 7 13 6 18 -2 10 -9 -8 -34 -5 -55 6 -25 14 -47 14 -62 1 -28
-23 -135 -21 -121 2 11 18 -121 5 -152 -15 -12 -7 -21 -2 -21 11 0 13 -16 4
-35 -20 -24 -30 -63 -46 -123 -50 -48 -4 -106 -23 -130 -43 -23 -20 -67 -38
-98 -40 -30 -2 -67 -14 -81 -26 -15 -12 -33 -16 -40 -8 -8 7 -24 -15 -37 -49
-24 -62 -85 -98 -107 -63 -7 10 -30 8 -55 -5 -24 -13 -48 -22 -53 -19 -5 3
-16 -14 -25 -37 -11 -30 -6 -46 14 -54 17 -6 30 -34 30 -61 0 -36 -8 -47 -29
-39 -19 7 -25 1 -18 -18 6 -16 1 -29 -11 -29 -12 0 -22 -17 -22 -39 0 -48 -23
-64 -61 -40 -25 16 -25 18 1 19 27 1 27 3 0 22 -23 16 -24 24 -5 31 39 16 29
58 -14 58 -21 0 -35 -5 -30 -12 22 -36 -49 -89 -85 -63 -20 14 -52 30 -71 37
-19 6 -36 20 -37 29 -2 10 -5 27 -8 38 -3 11 -6 29 -7 41 -2 11 -19 18 -38 15
-24 -4 -33 5 -29 29 3 19 -4 35 -16 35 -12 0 -17 8 -11 18 28 46 -12 85 -51
50 -20 -18 -32 -43 -25 -56 7 -12 -6 -4 -28 18 -46 46 -76 190 -40 190 16 0
15 8 -2 25 -21 20 -31 18 -52 -10 -34 -46 -65 -44 -81 5 -7 22 -22 40 -34 40
-11 0 -16 18 -10 39 6 26 -2 43 -25 51 -44 14 -88 103 -59 121 54 33 187 31
212 -3 15 -21 27 -26 29 -12 1 13 3 35 5 49 1 13 25 24 52 25 32 0 48 10 44
28 -4 21 11 25 63 16 54 -8 78 -2 106 29 38 42 182 47 212 7 8 -12 15 -8 15
10 0 23 27 30 125 30 151 -1 175 6 175 43 0 19 13 26 35 20 138 -39 165 -37
165 11 0 35 16 51 69 68 76 23 125 7 100 -33 -8 -14 -7 -20 3 -14 27 16 153
-41 139 -63 -6 -10 16 -8 50 4 33 13 49 27 35 32 -41 13 -55 47 -34 86 20 36
99 8 141 -51 6 -9 32 -11 56 -3 37 11 39 17 15 37 -82 67 -51 144 43 108 57
-22 68 -20 85 9 62 111 168 113 168 4z m-1835 -304 c17 -11 6 -27 -36 -51
l-59 -35 23 51 c25 55 34 59 72 35z"></path>
<path d="M6230 2842 c-29 -9 -39 -26 -35 -62 3 -27 5 -89 4 -137 -1 -57 6 -82
20 -73 12 7 16 22 9 34 -7 11 -1 28 14 38 16 10 18 18 6 18 -29 0 -21 110 12
149 31 39 23 48 -30 33z"></path>
<path d="M4747 2672 c-41 -48 -59 -132 -28 -132 19 0 29 28 23 65 -1 8 25 15
57 15 65 0 128 73 77 89 -52 16 -94 4 -129 -37z"></path>
<path d="M5214 2687 c-22 -21 -16 -87 7 -87 29 0 48 59 25 82 -10 10 -25 13
-32 5z"></path>
<path d="M5705 2686 c-41 -15 -29 -49 39 -109 47 -43 68 -51 79 -32 19 29 23
87 5 70 -7 -7 -31 9 -55 34 -24 26 -54 43 -68 37z"></path>
<path d="M5100 2545 c1 -42 5 -48 19 -26 20 32 25 30 56 -28 19 -35 21 -33 18
20 -4 97 -93 130 -93 34z"></path>
<path d="M3700 2489 c0 -66 67 -60 76 6 5 34 -3 45 -35 45 -31 0 -41 -13 -41
-51z"></path>
<path d="M3043 2446 c-17 -32 -16 -47 5 -64 43 -36 79 20 44 68 -26 36 -28 36
-49 -4z"></path>
<path d="M3440 2398 c0 -44 51 -52 66 -10 7 17 -4 32 -27 38 -29 8 -39 0 -39
-28z"></path>
<path d="M6305 2427 c-37 -15 -32 -107 6 -107 23 0 26 8 11 37 -14 25 -13 44
3 60 24 24 21 26 -20 10z"></path>
<path d="M3307 2296 c4 -24 17 -47 30 -52 15 -5 18 5 10 28 -11 26 -7 30 15
17 24 -14 24 -12 1 17 -39 47 -64 42 -56 -10z"></path>
<path d="M3888 2273 c-26 -30 -14 -73 22 -73 36 0 53 53 24 77 -16 12 -31 11
-46 -4z"></path>
<path d="M3560 2198 c0 -52 5 -59 28 -40 15 13 23 41 18 63 -16 61 -46 46 -46
-23z"></path>
<path d="M3217 2146 c4 -36 14 -66 23 -66 9 0 19 30 23 66 6 49 0 65 -23 65
-23 0 -29 -16 -23 -65z"></path>
<path d="M3040 2164 c0 -22 14 -50 30 -64 25 -21 30 -18 30 18 0 23 0 49 1 57
1 8 -13 18 -30 21 -20 5 -31 -7 -31 -32z"></path>
<path d="M3127 2009 c-18 -46 29 -88 54 -49 10 17 19 41 19 55 0 36 -59 31
-73 -6z"></path>
<path d="M1884 3496 c-13 -13 -24 -36 -24 -50 0 -14 -11 -24 -24 -21 -27 6
-38 -69 -16 -105 10 -16 38 0 85 49 39 40 104 82 143 93 40 11 72 28 72 39 0
28 -208 23 -236 -5z"></path>
<path d="M6525 3486 c-18 -30 -43 -43 -85 -42 -71 2 -85 -7 -69 -49 9 -23 27
-27 79 -15 37 8 73 11 79 5 17 -17 35 48 27 99 l-7 46 -24 -44z"></path>
<path d="M4186 3455 c-1 -14 -8 -62 -16 -107 -16 -95 36 -142 84 -75 48 65 34
207 -21 207 -25 0 -47 -11 -47 -25z"></path>
<path d="M8864 3456 c-29 -29 -31 -154 -4 -196 11 -16 20 -25 21 -20 18 119
18 180 -2 180 -18 0 -17 8 1 30 30 36 18 40 -16 6z"></path>
<path d="M8606 3428 c-22 -58 -17 -174 9 -183 18 -6 25 23 25 103 0 113 -11
139 -34 80z"></path>
<path d="M7573 3395 c-20 -75 -13 -182 15 -233 l27 -49 23 43 c46 86 27 284
-27 284 -14 0 -32 -20 -38 -45z"></path>
<path d="M3942 3375 c-12 -32 -9 -50 11 -61 39 -23 67 1 67 57 0 63 -55 65
-78 4z"></path>
<path d="M2205 3366 c-48 -9 -95 -74 -75 -105 18 -30 127 44 124 83 -1 20 -3
35 -3 33 -1 -1 -21 -6 -46 -11z"></path>
<path d="M2864 3345 c-31 -6 -44 -20 -40 -43 3 -20 -5 -50 -20 -67 -35 -42 2
-53 111 -30 75 15 121 55 64 55 -12 0 -16 9 -9 20 7 12 21 15 31 9 11 -6 19
-7 19 -1 0 23 -112 64 -156 57z"></path>
<path d="M2473 3286 c-20 -26 -42 -43 -49 -39 -40 23 -98 -27 -100 -85 -1 -55
3 -60 38 -41 21 11 48 15 58 9 11 -7 20 1 20 18 0 16 10 36 23 44 14 9 18 5 9
-9 -9 -14 -4 -19 13 -12 14 5 28 34 31 62 2 29 20 64 39 79 33 24 32 25 -6 23
-23 -2 -57 -24 -76 -49z"></path>
<path d="M3634 3280 c-14 -55 -3 -80 36 -80 46 0 52 33 13 81 l-37 46 -12 -47z"></path>
<path d="M1481 3232 c-33 -100 -1 -148 40 -62 25 53 27 72 7 99 -21 29 -27 25
-47 -37z"></path>
<path d="M6253 3287 c-23 -24 -14 -45 27 -67 35 -19 40 -15 40 29 0 48 -36 68
-67 38z"></path>
<path d="M7762 3254 c-12 -12 -22 -78 -22 -146 0 -107 -5 -125 -40 -134 -27
-7 -40 -27 -40 -62 0 -39 10 -52 40 -52 31 0 40 13 40 60 0 47 9 60 40 60 32
0 40 13 40 65 0 36 6 97 12 137 13 77 -25 117 -70 72z"></path>
<path d="M1640 3240 c0 -12 23 -30 50 -40 28 -10 50 -28 50 -40 0 -11 9 -20
20 -20 35 0 12 49 -40 85 -57 40 -80 44 -80 15z"></path>
<path d="M320 3128 c0 -33 -15 -81 -33 -107 -19 -26 -23 -41 -10 -33 12 8 23
5 23 -7 0 -11 14 -21 30 -21 17 0 30 9 30 20 0 11 -11 20 -25 20 -20 1 -20 4
0 17 15 9 22 43 18 79 -9 84 -33 107 -33 32z"></path>
<path d="M2693 3139 c-29 -23 -53 -59 -53 -80 0 -45 36 -52 52 -10 6 16 24 24
40 18 19 -8 28 3 28 31 0 23 10 42 21 42 12 0 16 9 9 20 -18 29 -38 25 -97
-21z"></path>
<path d="M3040 3131 c0 -12 18 -22 40 -22 22 0 40 6 40 14 0 8 16 18 35 23 19
5 1 9 -40 8 -42 0 -75 -10 -75 -23z"></path>
<path d="M1233 3107 c-7 -8 -13 -44 -13 -80 0 -88 70 -97 86 -12 14 72 -33
131 -73 92z"></path>
<path d="M2965 3021 c-40 -33 -41 -38 -10 -50 50 -20 55 -17 57 39 1 27 1 50
0 49 -1 0 -22 -17 -47 -38z"></path>
<path d="M8436 2951 c-10 -84 11 -132 34 -78 19 43 14 109 -9 134 -9 9 -20
-16 -25 -56z"></path>
<path d="M7350 2783 c-22 -22 -8 -83 20 -83 17 0 31 7 32 15 0 8 4 29 7 47 6
29 -36 44 -59 21z"></path>
<path d="M481 2697 c-1 -17 13 -43 29 -57 20 -16 30 -17 30 -3 0 12 11 19 25
16 14 -4 18 -3 11 2 -8 4 -19 5 -25 2 -5 -4 -23 11 -40 33 -25 33 -30 34 -30
7z"></path>
<path d="M8442 2531 c-2 -76 0 -78 33 -45 24 24 28 40 13 50 -12 8 -27 28 -33
44 -7 17 -13 -6 -13 -49z"></path>
<path d="M664 2502 c-33 -20 -38 -136 -8 -166 31 -31 49 19 40 111 -4 54 -13
68 -32 55z"></path>
<path d="M8186 2393 c8 -21 -2 -40 -29 -54 l-41 -22 41 -39 c47 -44 75 -48 95
-15 9 14 5 18 -9 9 -13 -8 -23 -5 -23 7 0 11 9 21 20 21 35 0 22 50 -23 88
-36 30 -41 31 -31 5z"></path>
<path d="M6860 2273 c0 -25 -7 -53 -15 -61 -24 -24 -19 -59 13 -92 22 -22 31
-23 37 -5 5 14 22 25 39 25 25 0 26 5 6 30 -14 17 -28 51 -30 75 -8 72 -9 75
-30 75 -11 0 -20 -21 -20 -47z"></path>
<path d="M2058 2275 c-13 -44 -10 -73 9 -69 25 4 52 35 53 59 0 13 -58 23 -62
10z"></path>
<path d="M760 2159 c0 -28 -20 -48 -60 -62 -33 -12 -60 -28 -60 -37 0 -18 82
-14 113 5 19 12 35 135 17 135 -5 0 -10 -18 -10 -41z"></path>
<path d="M8020 2173 c0 -16 -6 -45 -13 -65 -9 -22 -6 -30 8 -21 12 7 26 2 32
-12 5 -14 11 0 11 30 1 30 3 62 4 70 0 7 -9 17 -20 21 -12 4 -22 -6 -22 -23z"></path>
<path d="M6691 2015 c4 -47 7 -102 8 -123 2 -65 24 -20 30 61 3 42 13 93 21
112 11 27 5 35 -26 35 -36 0 -40 -11 -33 -85z"></path>
<path d="M7940 2030 c-14 -16 -35 -30 -47 -30 -13 0 -25 -28 -27 -61 -3 -41 4
-59 20 -54 13 5 24 21 24 37 0 15 15 34 34 42 18 8 32 32 31 55 -4 49 -4 49
-35 11z"></path>
<path d="M975 1955 c-15 -41 6 -75 45 -75 55 0 63 28 19 66 -47 41 -52 41 -64
9z"></path>
<path d="M1925 1932 c-20 -26 -55 -51 -76 -55 -60 -12 -51 -85 11 -85 56 0
174 64 189 103 33 84 -64 113 -124 37z"></path>
<path d="M2306 1926 c32 -36 32 -43 4 -66 -21 -18 -25 -33 -12 -46 12 -12 13
-34 3 -52 -26 -50 12 -133 48 -103 24 20 24 34 -3 97 -23 55 -25 81 -8 108 30
48 29 51 -23 78 -44 23 -44 23 -9 -16z"></path>
<path d="M7535 1919 c6 -26 23 -36 52 -30 24 4 52 9 62 10 37 2 -28 47 -76 53
-39 4 -46 -3 -38 -33z"></path>
<path d="M5645 1869 c-35 -39 -32 -43 34 -45 43 -1 56 6 48 27 -6 16 -18 24
-27 19 -9 -6 -20 -2 -23 8 -4 10 -18 6 -32 -9z"></path>
<path d="M5274 1792 c-74 -27 -64 -84 14 -78 72 5 83 17 60 62 -15 30 -27 33
-74 16z"></path>
<path d="M5427 1776 c-19 -32 17 -56 76 -52 102 8 117 75 16 71 -45 -2 -86
-11 -92 -19z"></path>
<path d="M7682 1773 c-43 -52 -21 -95 33 -66 39 21 42 29 19 61 -23 32 -29 32
-52 5z"></path>
<path d="M5173 1747 c-16 -17 -25 -19 -79 -24 -15 -2 -46 -22 -71 -44 -46 -44
-385 -68 -505 -37 -29 8 -65 6 -80 -4 -23 -14 -23 -17 2 -18 26 -1 26 -3 1
-19 -54 -34 58 -55 314 -57 242 -2 245 -2 245 43 0 39 11 46 84 50 108 6 131
23 117 80 -6 25 -19 39 -28 30z"></path>
<path d="M3969 1685 c0 -29 13 -34 65 -28 68 8 94 42 31 39 -19 -1 -49 5 -66
12 -21 9 -30 2 -30 -23z"></path>
<path d="M1309 1631 c-7 -26 -4 -63 6 -81 27 -49 64 6 51 75 -13 68 -41 71
-57 6z"></path>
<path d="M4238 1664 c-2 -8 -2 -20 -1 -26 1 -7 -21 -13 -48 -13 -88 0 -225
-190 -165 -228 45 -28 53 -19 66 69 l13 86 134 -1 c120 -1 133 3 133 39 0 22
9 47 20 57 12 9 8 13 -10 8 -16 -5 -55 -2 -85 7 -30 8 -56 9 -57 2z"></path>
<path d="M2700 1519 c0 -50 49 -71 83 -37 31 32 30 35 -10 46 -61 16 -73 15
-73 -9z"></path>
<path d="M6053 1511 c-15 -40 37 -53 80 -20 20 15 33 29 27 30 -76 16 -98 14
-107 -10z"></path>
<path d="M5373 1486 c-32 -31 -8 -83 48 -107 78 -32 138 9 94 65 -28 34 -122
63 -142 42z"></path>
<path d="M1232 1416 c1 -35 13 -68 26 -72 17 -6 23 12 18 57 -8 86 -47 98 -44
15z"></path>
<path d="M1430 1433 c-25 -19 -29 -31 -13 -41 13 -8 19 -22 13 -31 -5 -10 16
-26 47 -37 49 -17 58 -15 55 13 -1 18 8 31 21 29 26 -5 53 48 31 61 -47 26
-122 29 -154 6z"></path>
<path d="M7530 1445 c7 -14 5 -25 -5 -25 -28 0 -24 -76 4 -87 39 -15 52 59 17
101 -16 20 -23 25 -16 11z"></path>
<path d="M3958 1412 c-4 -5 -62 -12 -128 -16 -122 -8 -159 -43 -115 -108 34
-50 241 13 250 76 8 57 8 62 -7 48z"></path>
<path d="M5209 1402 c6 -9 -10 -24 -34 -33 -122 -41 -126 -45 -55 -44 39 0 79
-2 90 -5 11 -3 42 -4 68 -2 l48 2 -54 50 c-54 50 -84 65 -63 32z"></path>
<path d="M6853 1390 c8 -21 -2 -30 -33 -30 -32 0 -41 -9 -32 -32 7 -17 12 -36
12 -42 0 -6 16 1 35 16 32 25 32 24 -1 -15 -34 -41 -34 -42 6 -53 32 -8 47 1
61 38 10 26 32 48 49 48 42 0 38 39 -5 42 -19 2 -41 2 -49 1 -8 -2 -9 11 -3
27 7 19 -1 30 -20 30 -20 0 -27 -11 -20 -30z"></path>
<path d="M4068 1318 c-185 -53 -91 -126 146 -114 205 10 258 99 63 106 -48 1
-100 8 -117 15 -16 6 -58 3 -92 -7z"></path>
<path d="M4980 1319 c-16 -9 -66 -23 -110 -30 -74 -12 -77 -14 -41 -41 78 -57
222 -16 194 54 -9 22 -23 27 -43 17z"></path>
<path d="M1560 1272 c0 -66 22 -93 52 -63 15 15 22 42 16 60 -15 39 -68 41
-68 3z"></path>
<path d="M4434 1267 c-27 -27 -13 -50 27 -43 22 3 41 15 41 26 0 24 -49 37
-68 17z"></path>
<path d="M7640 1262 c0 -18 82 -46 96 -33 4 5 2 18 -5 30 -16 25 -91 28 -91 3z"></path>
<path d="M4543 1182 c-19 -12 -9 -19 35 -26 33 -5 73 -2 87 7 18 12 16 16 -8
17 -19 0 -46 4 -60 10 -15 5 -39 2 -54 -8z"></path>
<path d="M4525 1028 c-38 -40 -31 -46 46 -38 94 8 104 21 35 45 -42 15 -63 13
-81 -7z"></path>
<path d="M2080 965 c0 -14 -12 -25 -27 -25 -14 0 -26 -12 -26 -27 0 -17 14
-24 37 -18 48 13 57 30 35 66 -13 20 -18 21 -19 4z"></path>
<path d="M6747 940 c-24 -9 -50 -28 -58 -42 -11 -17 -7 -19 12 -7 16 9 46 17
68 18 23 1 44 10 48 21 8 26 -19 31 -70 10z"></path>
<path d="M6520 843 c1 -25 39 -73 40 -50 0 13 16 19 35 14 19 -5 52 3 72 19
34 24 29 27 -55 28 -50 1 -92 -4 -92 -11z"></path>
<path d="M6377 755 c-26 -52 4 -121 33 -75 7 12 23 15 34 7 14 -8 16 -4 8 10
-8 13 -25 18 -37 10 -14 -9 -17 -2 -9 20 10 25 -17 51 -29 28z"></path>
<path d="M2742 606 c7 -39 -3 -68 -20 -57 -10 6 -14 -7 -8 -29 12 -44 55 -53
78 -17 9 15 5 18 -10 8 -16 -10 -21 1 -14 37 5 28 1 57 -10 63 -10 7 -18 5
-16 -5z"></path>
<path d="M2884 510 c-18 -38 -15 -48 16 -56 45 -11 60 0 60 47 0 55 -53 61
-76 9z"></path>
</g>
</svg>