<?xml version="1.0" encoding="utf-8"?>
<!-- Generator: Adobe Illustrator 25.1.0, SVG Export Plug-In . SVG Version: 6.00 Build 0)  -->
<svg version="1.1" id="Layer_1" xmlns="http://www.w3.org/2000/svg" xmlns:xlink="http://www.w3.org/1999/xlink" x="0px" y="0px"
	 viewBox="0 0 200 200" style="enable-background:new 0 0 200 200;" xml:space="preserve">
<style type="text/css">
	.st0{fill:#630360;}
	.st1{fill:#FF0000;}
	.st2{fill:#838588;}
</style>
<g>
	<path class="st0" d="M98.173,199.981c-4.757-0.194-8.108-0.456-11.908-0.938c-20.478-2.576-38.306-10.184-52.603-22.431
		c-7.808-6.689-14.571-14.854-19.835-23.926C6.12,139.395,1.481,124.147,0.281,108.211C0.05,105.11,0,103.691,0,99.99
		c0-3.701,0.05-5.12,0.281-8.221c1.538-20.506,8.783-39.774,20.716-55.103C24.885,31.67,29.361,27,34.131,22.968
		C46.67,12.371,61.942,5.288,79.263,2.031c4.713-0.888,9.383-1.469,14.565-1.819c5.238-0.344,9.633-0.275,15.534,0.256
		c22.285,2.001,41.638,9.784,56.947,22.9c16.884,14.467,28.211,35.054,32.168,58.429c3.451,20.412,1,41.593-6.97,60.192
		c-6.245,14.579-15.609,26.995-27.605,36.617c-7.076,5.67-15.159,10.334-23.942,13.816c-10.37,4.114-21.635,6.558-33.849,7.346
		C103.405,199.944,99.667,200.044,98.173,199.981L98.173,199.981z M104.205,190.016c4.901-0.288,9.139-0.769,13.44-1.532
		c11.302-2.001,21.741-5.839,30.936-11.36c16.265-9.772,28.567-24.745,35.493-43.219c3.201-8.534,5.195-17.793,5.826-27.039
		c0.313-4.476,0.313-9.278,0-13.754c-1.1-16.136-6.207-31.634-14.702-44.607c-5.301-8.102-11.977-15.229-19.61-20.944
		c-12.771-9.565-28.273-15.379-45.726-17.155c-7.164-0.731-12.577-0.731-19.753,0c-16.972,1.725-32.218,7.327-44.758,16.436
		c-6.582,4.783-12.49,10.609-17.428,17.18c-9.302,12.372-15.265,27.383-17.322,43.619c-0.519,4.07-0.756,7.94-0.756,12.347
		s0.238,8.277,0.756,12.347c2.182,17.174,8.726,32.966,18.953,45.732c2.919,3.639,6.514,7.383,10.108,10.534
		c10.058,8.809,22.448,15.136,36.287,18.537c6.626,1.625,13.308,2.563,20.972,2.938C98.279,190.141,102.686,190.11,104.205,190.016z
		"/>
</g>
<g>
	<path class="st1" d="M98.61,130.868c-11.164-4.883-17.603-9.196-21.204-14.217c-2.188-3.051-3.319-6.258-3.782-10.734
		c-0.169-1.625-0.156-6.921,0.031-10.678c0.075-1.532,0.169-3.57,0.206-4.533c0.094-2.169,0.094-8.165,0.006-9.722
		c-0.038-0.663-0.044-1.275-0.012-1.438c0.413-2.182,3.538-4.751,8.408-6.908c4.913-2.176,10.727-3.651,16.284-4.132
		c6.032-0.519,15.54,1.769,21.629,5.214c2.707,1.525,4.613,3.245,5.482,4.92c0.475,0.925,0.481,0.975,0.388,2.519
		c-0.106,1.725-0.106,7.546,0,9.672c0.038,0.863,0.144,2.813,0.225,4.345c0.394,7.108,0.35,10.078-0.194,13.098
		c-0.675,3.751-2.038,6.664-4.513,9.628c-0.669,0.8-2.344,2.444-3.294,3.245c-2.2,1.832-4.863,3.62-8.033,5.383
		c-1.244,0.694-5.195,2.663-6.689,3.338c-1.532,0.694-3.557,1.569-3.613,1.563C99.911,131.43,99.317,131.174,98.61,130.868
		L98.61,130.868z M102.692,123.853c12.59-6.214,16.484-9.772,17.509-15.986c0.331-2.019,0.388-3.957,0.263-9.065
		c-0.069-2.813-0.1-6.383-0.1-11.034v-6.877l-0.669-0.538c-4.082-3.276-9.564-5.233-16.271-5.82c-1.344-0.119-5.063-0.1-6.501,0.038
		c-6.614,0.606-12.427,2.626-16.615,5.764l-0.7,0.525v14.098c0,15.098-0.012,14.379,0.3,15.286
		c1.306,3.764,6.826,8.265,15.703,12.81c1.231,0.631,4.282,2.119,4.363,2.132C99.986,125.185,101.211,124.585,102.692,123.853z"/>
	<path class="st1" d="M95.985,108.142c-0.806-0.056-2.007-0.231-2.563-0.375c-1.6-0.413-2.694-1.313-3.001-2.463
		c-0.081-0.306-0.156-3.388-0.15-6.408c0.006-2.332,0.163-3.263,0.725-4.364c0.569-1.094,1.613-1.732,2.844-1.732
		c0.338,0,0.338,0,0.288-0.419c-0.025-0.238-0.05-1.044-0.05-1.801c0.006-1.519,0.075-2.044,0.413-3.057
		c0.2-0.613,0.581-1.4,0.888-1.844c0.325-0.488,1.175-1.307,1.669-1.625c0.863-0.556,1.6-0.8,2.607-0.863
		c1.588-0.094,3.007,0.456,4.182,1.632c1.256,1.263,1.95,3.057,2.063,5.352c0.038,0.694-0.05,2.219-0.138,2.519
		c-0.031,0.088,0.013,0.106,0.269,0.106c0.4,0,1.144,0.213,1.613,0.456c0.556,0.294,1.269,1.032,1.55,1.607
		c0.381,0.781,0.4,0.95,0.463,3.814c0.081,4.17,0.044,5.145-0.269,6.377c-0.394,1.575-1.219,2.513-2.482,2.838
		c-0.3,0.081-0.675,0.088-2.094,0.063c-1.256-0.031-2.188-0.013-3.388,0.063C99.804,108.117,96.672,108.192,95.985,108.142
		L95.985,108.142z M105.799,100.396v-3.845h-5.813h-5.813v3.845v3.845h5.813h5.813V100.396z M101.911,90.6
		c-0.019-2.182-0.019-2.213-0.169-2.488c-0.2-0.381-0.419-0.606-0.763-0.788c-0.819-0.413-1.894-0.263-2.482,0.344
		c-0.444,0.463-0.469,0.581-0.5,2.901c-0.013,1.125-0.006,2.088,0.012,2.138c0.031,0.081,0.331,0.094,1.975,0.094h1.944
		L101.911,90.6z"/>
	<path class="st1" d="M99.41,102.222c-0.788-0.225-1.3-0.938-1.3-1.826c0-0.756,0.375-1.4,0.981-1.7
		c0.488-0.238,1.194-0.25,1.694-0.025c1.088,0.488,1.388,2.094,0.575,3.026C100.929,102.184,100.086,102.41,99.41,102.222
		L99.41,102.222z"/>
</g>
<g>
	<path class="st2" d="M90.221,177.762c-1.063-0.194-2.088-0.738-2.569-1.357c-0.075-0.1-0.188-0.231-0.244-0.3
		c-0.063-0.063-0.231-0.35-0.369-0.638c-0.338-0.694-0.663-1.113-0.944-1.244c-0.219-0.1-0.263-0.1-0.763,0.006
		c-1.213,0.256-2.319-0.144-3.113-1.125c-0.425-0.531-0.419-0.525-1-0.75c-1.65-0.644-2.838-1.375-3.838-2.376
		c-1.006-1-1.363-1.726-1.363-2.782c0-0.413,0.031-0.694,0.113-0.919c0.113-0.331,0.113-0.331,0.288-0.15
		c0.656,0.656,3.569,1.069,7.57,1.069h1.907l0.075-0.481c0.169-1.088,0.713-2.194,1.413-2.888l0.381-0.381l-0.044,1.394
		c-0.038,1.388-0.038,1.388,0.313,1.969c0.356,0.581,0.356,0.581,0.794,0.55c0.244-0.019,1.507-0.069,2.813-0.106
		c2.45-0.075,5.182-0.05,6.657,0.069c2.8,0.219,5.288,0.744,7.364,1.538c1.163,0.45,1.194,0.431,0.338-0.213
		c-1.225-0.913-2.594-1.557-4.232-1.982c-2.507-0.656-4.988-0.763-10.471-0.444c-1.988,0.119-2.638,0.138-2.738,0.075
		c-0.163-0.1-0.206-0.563-0.188-1.894c0.019-1.35,0.019-1.35-0.138-1.463c-0.088-0.063-0.275-0.131-0.413-0.156
		c-0.256-0.038-0.269-0.031-0.694,0.388c-0.65,0.656-1.113,1.375-1.6,2.519c-0.156,0.35-0.294,0.65-0.306,0.669
		c-0.05,0.05-3.676-0.094-4.92-0.194c-9.695-0.781-19.059-3.801-27.105-8.74c-0.063-0.044-0.4-0.256-0.75-0.481
		c-0.344-0.219-0.694-0.438-0.781-0.488c-0.088-0.044-0.256-0.156-0.375-0.25c-0.119-0.094-0.388-0.275-0.594-0.413
		c-0.206-0.131-0.388-0.256-0.406-0.281c-0.019-0.025-0.113-0.094-0.219-0.156c-0.1-0.069-0.213-0.144-0.25-0.175
		c-0.031-0.025-0.425-0.325-0.875-0.656c-0.8-0.588-1.65-1.257-1.85-1.45c-0.063-0.056-0.225-0.2-0.375-0.319
		c-0.319-0.263-1.2-1.025-1.682-1.463c-0.669-0.613-3.251-3.232-3.251-3.301c0-0.038-0.206-0.288-0.45-0.544
		c-0.688-0.719-1.669-1.813-1.938-2.169c-0.075-0.1-0.156-0.194-0.175-0.213c-0.069-0.063-0.413-0.481-0.563-0.688
		c-0.088-0.113-0.194-0.244-0.238-0.288c-0.044-0.044-0.356-0.456-0.7-0.913c-0.344-0.456-0.65-0.869-0.688-0.907
		c-0.056-0.069-0.294-0.406-1.131-1.625c-0.169-0.25-0.306-0.469-0.306-0.488c0-0.019-0.1-0.169-0.219-0.338
		c-0.119-0.163-0.219-0.325-0.219-0.344c0-0.025-0.069-0.138-0.15-0.244c-0.081-0.113-0.213-0.319-0.294-0.456
		c-0.081-0.144-0.381-0.663-0.669-1.157c-1.05-1.819-2.269-4.364-3.057-6.371c-1.663-4.226-2.644-8.402-3.019-12.791
		c-0.156-1.907-0.15-5.627,0.019-5.12c0.231,0.706,1.069,2.913,1.431,3.77c0.888,2.094,1.975,4.27,3.051,6.089
		c0.188,0.319,0.356,0.606,0.369,0.644c0.013,0.031,0.094,0.15,0.175,0.256c0.075,0.106,0.144,0.213,0.144,0.231
		c0,0.019,0.125,0.219,0.281,0.438c0.156,0.225,0.281,0.425,0.281,0.45c0,0.031,0.106,0.194,0.244,0.369
		c0.131,0.175,0.319,0.444,0.419,0.6c0.1,0.156,0.219,0.319,0.263,0.363c0.038,0.05,0.106,0.144,0.144,0.213
		c0.038,0.069,0.106,0.169,0.15,0.225c0.05,0.056,0.256,0.331,0.463,0.606c0.206,0.275,0.4,0.531,0.425,0.563
		c0.156,0.188,0.638,0.794,0.8,1c0.106,0.131,0.219,0.269,0.256,0.306c0.031,0.038,0.369,0.419,0.744,0.85
		c0.881,1.007,2.669,2.795,3.626,3.626c0.856,0.744,0.794,0.694,1.375,1.157c0.244,0.194,0.494,0.4,0.563,0.456
		c0.069,0.063,0.244,0.181,0.381,0.281c0.138,0.094,0.306,0.219,0.375,0.281c0.063,0.056,0.344,0.263,0.619,0.45
		c0.856,0.588,0.881,0.606,1.406,1.375c0.156,0.219,0.313,0.444,0.356,0.5c0.044,0.05,0.244,0.319,0.45,0.594
		c0.206,0.275,0.4,0.531,0.425,0.563c0.731,0.932,2.282,2.795,2.463,2.97c0.056,0.05,0.338,0.363,0.625,0.688
		c0.619,0.7,3.119,3.207,3.869,3.882c0.794,0.713,1.525,1.35,2.188,1.901c0.325,0.275,0.625,0.525,0.663,0.563
		c0.038,0.031,0.163,0.131,0.275,0.219c0.113,0.088,0.238,0.188,0.275,0.219c0.156,0.15,2.375,1.794,3.032,2.257
		c1.119,0.775,1.763,1.213,1.788,1.213c0.006,0,0.369,0.225,0.794,0.5c0.419,0.275,0.825,0.525,0.894,0.556
		c0.069,0.031,0.231,0.131,0.363,0.219c0.131,0.088,0.25,0.163,0.263,0.163c0.013,0,0.244,0.131,0.513,0.288
		c0.269,0.163,0.613,0.363,0.769,0.45c6.882,3.795,13.69,6.039,20.66,6.821c1.244,0.144,2.657,0.231,2.657,0.175
		c0-0.038-0.906-1.994-1.713-3.701c-0.175-0.375-0.45-0.963-0.6-1.294c-0.256-0.55-0.3-0.613-0.481-0.65
		c-0.169-0.031-0.294,0.012-0.719,0.25c-0.519,0.294-0.519,0.294-0.988,1.194c-0.256,0.494-0.469,0.894-0.481,0.882
		c-0.006-0.006-0.056-0.219-0.113-0.469c-0.156-0.744-0.1-1.801,0.119-2.326c0.038-0.081-0.094-0.119-0.838-0.231
		c-0.794-0.125-0.894-0.131-1.025-0.044c-0.225,0.15-0.513,0.594-0.913,1.413c-0.3,0.625-0.375,0.738-0.4,0.613
		c-0.206-0.9-0.256-1.538-0.163-2.151c0.088-0.581,0.281-1.138,0.444-1.3c0.275-0.263,2.188-0.944,3.213-1.144
		c0.763-0.15,2.044-0.15,2.582-0.006c0.95,0.263,1.65,0.738,2.082,1.4c0.25,0.388,1.15,1.35,1.569,1.688
		c0.338,0.275,1.306,0.819,1.844,1.05c0.756,0.319,1.938,0.631,2.982,0.794c0.763,0.119,1.138,0.138,2.788,0.138
		c2.032,0,2.85-0.063,4.876-0.375c3.769-0.581,8.595-1.869,14.002-3.732c1.794-0.625,3.213-1.132,6.807-2.444
		c2.15-0.788,2.15-0.788,2.407-0.638c0.144,0.081,0.381,0.219,0.538,0.3c0.156,0.088,0.481,0.263,0.719,0.394
		c0.244,0.125,0.481,0.275,0.538,0.319c0.05,0.05,0.119,0.088,0.144,0.088c0.131,0,3.769,2.288,3.719,2.344
		c-0.012,0.012-0.388,0.169-0.838,0.344c-0.869,0.344-1.65,0.738-1.9,0.944c-0.125,0.1-0.163,0.2-0.175,0.481
		c-0.044,0.644,0.3,1.013,0.956,1.013c0.256,0,0.475-0.069,1.094-0.35c1.156-0.525,3.407-1.638,4.432-2.201
		c1.475-0.806,1.55-0.844,2.563-1.45c0.531-0.319,1.025-0.613,1.094-0.65s0.45-0.281,0.844-0.538c0.394-0.263,0.844-0.544,1-0.638
		c0.156-0.088,0.344-0.219,0.425-0.288s0.331-0.25,0.563-0.4c0.231-0.144,0.431-0.281,0.45-0.3c0.019-0.019,0.213-0.163,0.438-0.319
		c0.225-0.15,0.419-0.288,0.438-0.306c0.019-0.019,0.413-0.313,0.875-0.656c0.463-0.344,0.856-0.638,0.875-0.656
		c0.019-0.019,0.375-0.313,0.794-0.644c0.731-0.588,1.3-1.069,2.232-1.882c1.063-0.932,2.913-2.751,3.963-3.907
		c0.263-0.294,0.525-0.575,0.575-0.631c0.05-0.056,0.231-0.269,0.4-0.469c0.169-0.206,0.338-0.4,0.375-0.438
		c0.038-0.031,0.144-0.163,0.238-0.281s0.231-0.294,0.313-0.388c0.213-0.244,0.3-0.356,0.613-0.769
		c0.15-0.206,0.306-0.406,0.344-0.45c0.1-0.119,0.175-0.219,0.4-0.55c0.119-0.175,0.231-0.325,0.256-0.344
		c0.019-0.019,0.138-0.188,0.263-0.375c0.125-0.188,0.344-0.506,0.488-0.713c0.138-0.2,0.25-0.375,0.25-0.388
		s0.163-0.269,0.356-0.569c1.006-1.557,2.225-3.932,2.976-5.802c0.4-0.988,0.963-2.651,1.388-4.082
		c1.582-5.345,1.519-11.041-0.169-16.267c-0.606-1.876-1.788-4.489-2.682-5.914c-0.2-0.331-0.369-0.606-0.369-0.619
		c0-0.025-0.925-1.375-1.119-1.632c-0.056-0.075-0.144-0.2-0.194-0.275c-0.05-0.075-0.119-0.175-0.156-0.213
		c-0.031-0.038-0.288-0.35-0.563-0.694s-0.544-0.669-0.594-0.725c-0.05-0.05-0.219-0.238-0.369-0.406
		c-0.494-0.55-1.356-1.425-1.975-1.994c-0.825-0.763-0.9-0.825-1.144-1.019c-0.119-0.094-0.419-0.325-0.663-0.519
		c-0.538-0.431-1.388-1.044-1.85-1.35c-0.188-0.119-0.463-0.3-0.613-0.4c-0.144-0.1-0.281-0.181-0.294-0.181
		c-0.019,0-0.15-0.075-0.3-0.169c-0.281-0.181-0.306-0.2-0.888-0.519c-3.132-1.725-6.757-2.87-10.314-3.263
		c-1.163-0.125-4.526-0.106-5.626,0.031c-1.2,0.156-2.407,0.381-3.401,0.638c-0.463,0.119-0.85,0.213-0.856,0.2
		c-0.063-0.063-0.156-4.076-0.138-5.97c0.013-1.863,0.038-2.276,0.106-2.319c0.113-0.075,1.875-0.575,2.857-0.813
		c3.532-0.875,7.62-1.113,11.246-0.656c3.663,0.456,7.482,1.625,10.721,3.288c1.069,0.55,1.744,0.913,1.875,1.013
		c0.05,0.038,0.194,0.125,0.313,0.188c0.238,0.131,2.2,1.413,2.25,1.475c0.019,0.019,0.131,0.1,0.25,0.175
		c0.119,0.075,0.294,0.2,0.388,0.275c0.088,0.081,0.225,0.188,0.3,0.238c0.156,0.106,0.513,0.381,0.563,0.438
		c0.019,0.025,0.088,0.081,0.163,0.131c0.138,0.094,0.488,0.381,1.3,1.082c0.725,0.619,2.788,2.707,3.444,3.482
		c0.6,0.706,0.631,0.744,0.969,1.182c0.119,0.156,0.238,0.294,0.256,0.313c0.019,0.019,0.181,0.231,0.356,0.469
		c0.175,0.244,0.344,0.469,0.375,0.5c0.031,0.038,0.106,0.15,0.175,0.25c0.063,0.106,0.131,0.2,0.156,0.219
		c0.075,0.063,0.931,1.375,0.931,1.425c0,0.031,0.038,0.094,0.088,0.131c0.05,0.044,0.138,0.163,0.194,0.275
		c0.056,0.113,0.15,0.288,0.219,0.388c0.325,0.513,1.056,1.876,1.557,2.907c2.813,5.82,3.901,12.329,3.094,18.63
		c-0.413,3.276-1.613,7.49-3.232,11.378c-0.613,1.475-1.607,3.564-2.275,4.776c-0.188,0.35-0.444,0.813-0.569,1.038
		c-0.338,0.619-1.319,2.244-1.55,2.582c-0.119,0.163-0.213,0.306-0.213,0.325c0,0.044-0.881,1.363-0.938,1.407
		c-0.019,0.019-0.1,0.131-0.175,0.25c-0.069,0.125-0.188,0.294-0.263,0.369c-0.069,0.081-0.125,0.169-0.125,0.194
		c0,0.019-0.05,0.094-0.106,0.163c-0.063,0.069-0.213,0.263-0.331,0.431c-0.119,0.175-0.238,0.344-0.263,0.375
		c-0.031,0.038-0.1,0.125-0.163,0.2c-0.056,0.069-0.15,0.194-0.2,0.269c-0.119,0.175-0.813,1.069-0.906,1.163
		c-0.031,0.038-0.131,0.163-0.219,0.275c-0.088,0.119-0.231,0.3-0.319,0.4c-0.088,0.106-0.213,0.263-0.281,0.344
		c-0.063,0.081-0.163,0.194-0.213,0.25c-0.05,0.056-0.156,0.181-0.238,0.281c-0.206,0.269-1.269,1.482-1.788,2.038
		c-0.688,0.738-3.288,3.345-3.882,3.889c-1.006,0.913-1.175,1.063-1.557,1.394c-0.2,0.175-0.425,0.369-0.506,0.438
		c-0.394,0.35-0.881,0.763-0.994,0.838c-0.069,0.05-0.169,0.138-0.225,0.188c-0.056,0.056-0.194,0.169-0.306,0.256
		c-0.119,0.088-0.269,0.206-0.344,0.275c-0.069,0.063-0.231,0.188-0.35,0.281c-0.119,0.088-0.25,0.194-0.288,0.225
		c-0.075,0.069-0.356,0.288-0.744,0.588c-0.138,0.106-0.275,0.213-0.313,0.244c-0.388,0.306-1.269,0.957-2.1,1.544
		c-0.563,0.394-1.056,0.744-1.088,0.775c-0.119,0.088-2.125,1.425-2.188,1.45c-0.031,0.013-0.3,0.181-0.594,0.375
		c-0.681,0.444-2.3,1.432-2.357,1.432c-0.019,0-0.088,0.038-0.138,0.088c-0.056,0.044-0.225,0.15-0.381,0.231
		c-0.156,0.081-0.325,0.181-0.375,0.219c-0.05,0.038-0.275,0.175-0.5,0.294c-0.225,0.119-0.9,0.494-1.5,0.825
		c-1.494,0.825-4.476,2.307-6.251,3.107c-8.92,4.039-18.559,6.839-28.349,8.234c-1.519,0.219-4.332,0.544-5.27,0.606
		c-0.631,0.044-0.644,0.044-1,0.313c-0.194,0.15-0.375,0.275-0.4,0.275c-0.025,0-0.144,0.069-0.263,0.15
		c-0.344,0.231-1.206,0.575-1.919,0.756c-0.519,0.131-0.831,0.175-1.525,0.188C90.909,177.806,90.384,177.794,90.221,177.762
		L90.221,177.762z M91.953,175.912c0.725-0.188,1.244-0.619,1.532-1.269c0.131-0.3,0.15-0.444,0.15-1.007
		c-0.006-0.944-0.288-1.594-0.919-2.101c-0.413-0.325-0.819-0.463-1.388-0.463c-1.388,0-2.325,0.756-2.538,2.044
		c-0.056,0.363-0.056,0.519,0.025,0.925c0.119,0.556,0.231,0.8,0.575,1.213c0.269,0.325,0.6,0.544,1,0.669
		C90.74,176.037,91.515,176.031,91.953,175.912L91.953,175.912z M81.039,171.229c0.25-0.125,0.675-0.625,0.756-0.882
		c0.044-0.125,0.063-0.338,0.05-0.475c-0.025-0.244-0.012-0.263,0.463-0.694c0.269-0.238,0.488-0.463,0.488-0.5
		c0-0.088-0.538-0.012-0.969,0.138c-0.425,0.15-0.906,0.456-1.275,0.806c-0.225,0.213-0.256,0.275-0.256,0.519
		c0,0.288,0.15,0.681,0.381,1C80.826,171.354,80.814,171.348,81.039,171.229L81.039,171.229z M79.982,165.803
		c0.35-0.269,0.419-0.756,0.15-1.025c-0.15-0.144-0.188-0.156-0.513-0.119c-0.431,0.05-0.513,0.138-0.513,0.575
		c0,0.444,0.163,0.65,0.519,0.65C79.77,165.884,79.932,165.846,79.982,165.803L79.982,165.803z M82.458,165.771
		c0.319-0.256,0.375-0.731,0.113-0.994c-0.15-0.144-0.188-0.156-0.513-0.119c-0.431,0.05-0.513,0.138-0.513,0.581
		c0,0.275,0.031,0.369,0.156,0.488C81.882,165.915,82.258,165.934,82.458,165.771L82.458,165.771z M84.452,165.621
		c0.356-0.163,0.469-0.806,0.188-1.082c-0.263-0.269-0.794-0.163-0.944,0.194c-0.181,0.425-0.088,0.7,0.294,0.863
		C84.252,165.715,84.252,165.715,84.452,165.621z M78.107,165.396c0.119-0.094,0.163-0.188,0.175-0.4
		c0.019-0.238-0.006-0.313-0.169-0.475c-0.194-0.219-0.4-0.25-0.738-0.131c-0.156,0.05-0.206,0.119-0.269,0.338
		c-0.1,0.363-0.044,0.569,0.206,0.725C77.551,165.596,77.863,165.578,78.107,165.396z M75.563,164.784
		c0.35-0.35,0.238-0.9-0.213-1.032c-0.206-0.063-0.281-0.056-0.494,0.038c-0.2,0.088-0.256,0.15-0.288,0.325
		c-0.094,0.5,0.131,0.825,0.575,0.831C75.338,164.946,75.444,164.909,75.563,164.784L75.563,164.784z M72.706,164.515
		c0.406-0.244,0.319-0.913-0.138-1.107c-0.4-0.169-0.838,0.144-0.838,0.6C71.731,164.527,72.25,164.796,72.706,164.515
		L72.706,164.515z M81.176,164.477c0.231-0.125,0.431-0.438,0.431-0.694c0-0.406-0.594-0.663-0.988-0.425
		c-0.394,0.231-0.344,0.982,0.075,1.15C80.889,164.59,80.97,164.584,81.176,164.477L81.176,164.477z M85.171,163.915
		c0.35-0.181,0.375-0.669,0.05-1.013c-0.156-0.163-0.344-0.181-0.644-0.056c-0.25,0.106-0.344,0.263-0.344,0.581
		C84.239,163.915,84.702,164.159,85.171,163.915L85.171,163.915z M78.276,163.721c0.575-0.275,0.488-0.869-0.15-1.088
		c-0.306-0.106-0.588,0.006-0.756,0.306c-0.075,0.131-0.138,0.306-0.138,0.388c0.006,0.163,0.163,0.388,0.313,0.45
		C77.726,163.846,78.063,163.821,78.276,163.721z M83.083,163.477c0.231-0.25,0.325-0.588,0.219-0.819
		c-0.094-0.213-0.35-0.294-0.719-0.231c-0.288,0.044-0.313,0.069-0.4,0.313c-0.088,0.238-0.088,0.281,0.019,0.519
		C82.42,163.746,82.751,163.827,83.083,163.477z M80.801,162.889c0.144-0.15,0.181-0.238,0.181-0.463
		c0-0.381-0.25-0.606-0.663-0.606c-0.619,0-0.794,0.638-0.3,1.094C80.257,163.133,80.564,163.127,80.801,162.889L80.801,162.889z
		 M124.577,160.001c0.175-0.206,0.2-0.344,0.094-0.575c-0.069-0.156-0.294-0.294-0.469-0.294c-0.288,0-0.575,0.419-0.494,0.731
		c0.056,0.225,0.2,0.325,0.481,0.331C124.365,160.195,124.452,160.151,124.577,160.001L124.577,160.001z M126.177,159.432
		c0.263-0.325,0.181-0.656-0.206-0.85c-0.188-0.094-0.413-0.006-0.631,0.231c-0.144,0.156-0.094,0.513,0.1,0.706
		C125.609,159.688,126.002,159.645,126.177,159.432z M128.159,159.326c0.181-0.15,0.238-0.4,0.144-0.638
		c-0.15-0.356-0.525-0.413-0.775-0.113c-0.163,0.188-0.213,0.506-0.113,0.656C127.565,159.451,127.946,159.501,128.159,159.326z
		 M127.009,158.244c0.125-0.15,0.138-0.294,0.031-0.531c-0.106-0.238-0.163-0.269-0.506-0.269c-0.294,0-0.3,0.006-0.419,0.263
		c-0.088,0.2-0.1,0.294-0.05,0.388C126.246,158.438,126.765,158.519,127.009,158.244L127.009,158.244z M128.503,157.9
		c0.288-0.275,0.225-0.681-0.131-0.831c-0.381-0.156-0.694,0.05-0.694,0.444C127.678,158.013,128.153,158.232,128.503,157.9z
		 M130.116,155.068c0.144-0.144,0.169-0.531,0.038-0.7c-0.206-0.275-0.744-0.238-0.85,0.05c-0.175,0.444,0.013,0.775,0.438,0.775
		C129.909,155.193,130.034,155.15,130.116,155.068z M123.464,154.287c0.075-0.05,0.169-0.175,0.213-0.288
		c0.075-0.169,0.069-0.225-0.031-0.406c-0.206-0.388-0.763-0.35-0.906,0.056c-0.094,0.281-0.075,0.413,0.094,0.575
		C123.002,154.399,123.271,154.424,123.464,154.287L123.464,154.287z M126.34,154.281c0.488-0.231,0.544-0.938,0.119-1.375
		c-0.094-0.094-0.456-0.213-0.669-0.213c-0.288,0-0.594,0.163-0.7,0.369C124.69,153.831,125.54,154.656,126.34,154.281
		L126.34,154.281z M128.297,154.293c0.175-0.094,0.319-0.331,0.319-0.525c-0.006-0.15-0.125-0.288-0.344-0.4
		c-0.169-0.094-0.206-0.094-0.425,0.019c-0.306,0.156-0.4,0.356-0.294,0.619C127.696,154.356,127.965,154.462,128.297,154.293
		L128.297,154.293z M34.431,128.436c0.213-0.169,0.256-0.325,0.169-0.588c-0.075-0.244-0.294-0.331-0.625-0.256
		c-0.156,0.031-0.2,0.088-0.275,0.331c-0.1,0.344-0.081,0.425,0.144,0.544C34.068,128.592,34.243,128.58,34.431,128.436z
		 M33.074,127.21c0.069-0.019,0.175-0.113,0.231-0.213c0.331-0.556-0.256-1.207-0.819-0.913c-0.225,0.119-0.325,0.275-0.325,0.506
		C32.162,127.06,32.574,127.348,33.074,127.21z M31.887,124.91c0.294-0.294,0.281-0.719-0.031-0.957
		c-0.288-0.219-0.956,0.038-0.994,0.381c-0.038,0.288,0.15,0.656,0.363,0.744C31.468,125.172,31.68,125.116,31.887,124.91z
		 M29.955,124.247c0.363-0.131,0.419-0.763,0.081-1c-0.2-0.144-0.663-0.169-0.819-0.044
		C28.555,123.716,29.13,124.528,29.955,124.247L29.955,124.247z M30.305,122.271c0.256-0.138,0.294-0.194,0.294-0.5
		c0-0.288-0.175-0.563-0.419-0.656c-0.113-0.044-0.219-0.019-0.444,0.088c-0.244,0.113-0.3,0.175-0.338,0.356
		c-0.075,0.388,0.231,0.806,0.594,0.813C30.055,122.371,30.193,122.328,30.305,122.271z M29.342,120.027
		c0.256-0.131,0.356-0.4,0.256-0.744c-0.063-0.238-0.106-0.281-0.319-0.344c-0.338-0.1-0.713,0.013-0.8,0.238
		c-0.156,0.375-0.113,0.631,0.138,0.806C28.849,120.14,29.092,120.158,29.342,120.027L29.342,120.027z"/>
	<path class="st2" d="M87.296,161.589c-0.088-0.012-0.763-0.106-1.5-0.213c-3.757-0.525-7.182-1.375-9.858-2.438
		c-0.988-0.394-2.363-1.013-2.294-1.038c0.031-0.006,1.069,0.163,2.307,0.381s2.257,0.394,2.269,0.388
		c0.006-0.012,0.106-0.663,0.225-1.45c0.238-1.638,0.119-1.675,0.988,0.288c0.463,1.032,0.463,1.032,0.863,1.232
		c0.894,0.45,3.938,1.332,6.101,1.776c0.694,0.138,0.694,0.138,0.906,0.581c0.269,0.55,0.263,0.538,0.2,0.531
		C87.477,161.62,87.383,161.602,87.296,161.589L87.296,161.589z"/>
	<path class="st2" d="M133.772,153.774c-0.388-0.288-1.569-1.082-1.782-1.194c-0.088-0.044-0.244-0.15-0.356-0.238
		c-0.106-0.081-0.219-0.15-0.244-0.15c-0.025,0-0.138-0.069-0.25-0.156c-0.113-0.088-0.219-0.156-0.238-0.156
		c-0.012,0-0.269-0.15-0.569-0.325c-0.625-0.388-0.588-0.363-1.3-0.763c-0.3-0.169-0.538-0.319-0.525-0.325
		c0.006-0.006,0.813-0.381,1.794-0.825c3.926-1.788,6.576-3.088,7.97-3.914c0.506-0.294,0.481-0.281,1.175-0.706
		c0.294-0.181,0.563-0.331,0.606-0.331c0.225,0,3.269,1.382,4.363,1.976c0.463,0.25,0.513,0.3,0.413,0.356
		c-0.063,0.038-0.131,0.081-0.15,0.106c-0.019,0.025-0.338,0.269-0.719,0.55c-0.375,0.281-0.725,0.538-0.763,0.575
		c-0.194,0.163-2.35,1.682-2.825,1.988c-0.288,0.188-0.581,0.394-0.65,0.456c-0.075,0.063-0.156,0.119-0.181,0.119
		c-0.031,0-0.275,0.156-0.544,0.344c-0.269,0.188-0.556,0.381-0.638,0.425s-0.356,0.213-0.606,0.375
		c-0.25,0.163-0.463,0.294-0.481,0.294c-0.012,0-0.144,0.081-0.294,0.181c-0.494,0.331-2.7,1.569-2.8,1.569
		C134.129,154.006,133.948,153.899,133.772,153.774L133.772,153.774z M138.898,147.566c0.344-0.363,0.125-0.875-0.375-0.875
		c-0.363,0-0.581,0.419-0.394,0.769C138.311,147.804,138.63,147.848,138.898,147.566z M140.849,147.429
		c0.381-0.231,0.513-0.825,0.275-1.213c-0.325-0.531-1.319-0.531-1.538,0c-0.169,0.406-0.094,0.844,0.194,1.138
		c0.163,0.169,0.25,0.2,0.581,0.206C140.536,147.566,140.711,147.516,140.849,147.429z M142.524,147.191
		c0.094-0.038,0.2-0.15,0.256-0.281c0.088-0.213,0.081-0.244-0.044-0.469c-0.163-0.288-0.356-0.356-0.625-0.219
		c-0.388,0.2-0.413,0.744-0.038,0.932C142.311,147.272,142.318,147.272,142.524,147.191z"/>
	<path class="st2" d="M145.712,145.216c-0.65-0.344-2.775-1.344-3.594-1.694c-0.275-0.119-0.275-0.119,0.438-0.656
		c0.394-0.3,0.75-0.569,0.781-0.594c0.894-0.719,1.563-1.3,2.094-1.807l0.656-0.631l1.294,0.269c0.713,0.15,1.888,0.413,2.619,0.594
		c1.513,0.369,1.513,0.144-0.006,1.7c-1.094,1.125-2.807,2.695-3.438,3.145C146.481,145.597,146.293,145.522,145.712,145.216
		L145.712,145.216z M147.493,142.24c0.844-0.463,0.55-1.557-0.419-1.55c-0.288,0-0.706,0.225-0.813,0.438
		c-0.181,0.356-0.012,1.019,0.306,1.169C146.906,142.465,147.118,142.452,147.493,142.24z"/>
	<path class="st2" d="M124.427,143.834c-3.994-0.213-7.132-0.756-10.758-1.863c-3.238-0.994-6.257-2.363-9.214-4.176
		c-0.306-0.188-1.632-1.069-1.657-1.1c-0.019-0.025-0.113-0.094-0.219-0.156c-0.1-0.069-0.213-0.144-0.25-0.175
		c-0.194-0.163-0.35-0.281-0.469-0.363c-0.075-0.05-0.231-0.169-0.35-0.256c-0.206-0.163-0.206-0.163,0.044-0.375
		c0.144-0.119,0.331-0.281,0.431-0.369c0.094-0.088,0.394-0.35,0.663-0.594c0.65-0.575,2.938-2.87,3.494-3.501
		c0.244-0.269,0.5-0.556,0.575-0.638c0.075-0.075,0.213-0.244,0.306-0.369c0.125-0.163,0.388-0.331,0.975-0.625
		c0.8-0.4,0.8-0.4,0.8-0.238c0,0.25,0.188,0.581,0.381,0.681c0.094,0.05,0.288,0.094,0.431,0.094c0.731,0,1.031-1.107,0.369-1.375
		c-0.194-0.081-0.194-0.081,0.075-0.225c0.275-0.138,0.275-0.138,0.45,0.012c0.131,0.106,0.256,0.15,0.456,0.15
		c0.581,0,1.081-0.438,1.138-1c0.025-0.294,0.044-0.325,0.331-0.5c0.381-0.231,0.488-0.231,0.825-0.019
		c0.713,0.463,2.613,1.4,3.813,1.888c2.482,1.007,5.338,1.713,8.308,2.051c1.363,0.156,5.301,0.156,6.645,0
		c3.419-0.4,6.339-1.15,9.17-2.363c1.006-0.431,2.238-1.038,3.007-1.488c0.306-0.175,0.563-0.319,0.581-0.319
		c0.038,0,2.113-1.394,2.207-1.488c0.05-0.044,0.163-0.131,0.25-0.188c0.088-0.056,0.219-0.15,0.288-0.213
		c0.069-0.056,0.406-0.331,0.75-0.619c0.625-0.513,2.7-2.557,3.076-3.026c0.106-0.138,0.3-0.375,0.425-0.531
		c0.406-0.5,0.438-0.538,0.594-0.756c0.081-0.119,0.175-0.238,0.2-0.275c0.206-0.263,0.631-0.863,0.713-1.007
		c0.094-0.169,0.094-0.063,0.063,1.413c-0.05,2.426-0.256,4.039-0.756,6.102c-0.613,2.507-1.582,4.783-2.882,6.796
		c-0.219,0.338-0.425,0.644-0.463,0.688c-0.038,0.044-0.263,0.344-0.513,0.669c-0.244,0.325-0.506,0.663-0.588,0.75
		c-0.075,0.088-0.381,0.431-0.681,0.763c-0.5,0.556-1.225,1.244-2.032,1.926c-0.481,0.406-1.444,1.132-1.607,1.207
		c-0.081,0.038-0.144,0.081-0.144,0.106c0,0.019-0.119,0.106-0.263,0.188c-0.15,0.081-0.35,0.206-0.456,0.281
		c-0.1,0.075-0.231,0.156-0.281,0.181c-0.05,0.019-0.175,0.094-0.281,0.163c-1.507,0.969-4.188,2.113-6.507,2.782
		C132.422,143.528,128.028,144.028,124.427,143.834L124.427,143.834z M106.83,132.537c0.169-0.069,0.219-0.138,0.25-0.313
		c0.081-0.431-0.356-0.85-0.681-0.644c-0.263,0.175-0.35,0.3-0.35,0.506c0,0.256,0.106,0.4,0.344,0.469
		c0.106,0.031,0.194,0.063,0.206,0.063C106.605,132.624,106.712,132.587,106.83,132.537z M108.424,131.018
		c0.325-0.188,0.344-0.625,0.038-0.932c-0.338-0.338-0.831-0.244-0.975,0.194C107.287,130.886,107.874,131.349,108.424,131.018
		L108.424,131.018z M117.251,130.411c0.219-0.163,0.194-0.644-0.038-0.8c-0.038-0.025-0.2-0.05-0.369-0.05
		c-0.269,0-0.306,0.019-0.419,0.2c-0.138,0.231-0.119,0.381,0.081,0.6C116.657,130.518,117.07,130.549,117.251,130.411
		L117.251,130.411z M111.831,130.286c0.113-0.05,0.238-0.144,0.275-0.213c0.213-0.4-0.088-0.95-0.519-0.95
		c-0.363,0-0.519,0.106-0.606,0.419c-0.1,0.369-0.025,0.581,0.256,0.719C111.5,130.399,111.556,130.399,111.831,130.286z
		 M115.369,129.917c0.119-0.075,0.269-0.25,0.331-0.381c0.119-0.244,0.119-0.25,0-0.469c-0.138-0.25-0.438-0.363-0.806-0.294
		c-0.531,0.1-0.531,1.013,0,1.232C115.088,130.08,115.138,130.074,115.369,129.917z M113.25,128.936
		c0.269-0.113,0.375-0.238,0.406-0.494c0.031-0.225,0.012-0.275-0.188-0.475c-0.431-0.431-1.05-0.2-1.044,0.394
		C112.431,128.811,112.85,129.105,113.25,128.936z"/>
	<path class="st2" d="M70.449,143.49c-0.106-0.319-0.344-3.095-0.344-4.026v-0.388l2.394-0.031c2.332-0.031,3.594-0.113,5.045-0.325
		c0.381-0.056,0.6-0.069,0.625-0.025c0.069,0.106,1.206,4.307,1.175,4.339c-0.037,0.038-1.938,0.269-2.863,0.344
		C74.256,143.559,70.499,143.628,70.449,143.49L70.449,143.49z M77.557,142.309c0.225-0.119,0.363-0.381,0.363-0.675
		c-0.006-0.594-0.519-1.082-0.988-0.95c-0.269,0.081-0.625,0.331-0.7,0.494c-0.181,0.406,0.069,0.969,0.531,1.175
		C76.95,142.44,77.35,142.415,77.557,142.309z"/>
	<path class="st2" d="M67.418,143.278c-1.819-0.194-3.682-0.506-5.407-0.907c-1.513-0.35-2.313-0.581-2.332-0.688
		c-0.013-0.094,0.706-4.17,0.744-4.207c0.013-0.012,0.531,0.113,1.15,0.281c1.832,0.506,4.576,1.019,6.145,1.15
		c0.513,0.05,0.513,0.05,0.513,0.256c0,0.238,0.169,3.107,0.219,3.764C68.493,143.453,68.618,143.409,67.418,143.278z
		 M67.036,142.49c0.319-0.119,0.6-0.581,0.544-0.894c-0.044-0.238-0.444-0.631-0.694-0.694c-0.269-0.069-0.563,0.025-0.775,0.25
		c-0.35,0.363-0.325,0.938,0.05,1.269C66.392,142.627,66.624,142.646,67.036,142.49z"/>
	<path class="st2" d="M81.295,142.59c-0.181-0.463-0.669-2.113-0.938-3.157l-0.3-1.169l0.463-0.075
		c1.507-0.238,3.976-0.913,5.645-1.538c0.863-0.325,1.1-0.394,1.144-0.325c0.031,0.044,0.169,0.3,0.3,0.563
		c0.138,0.269,0.475,0.869,0.75,1.338s0.5,0.869,0.5,0.875c0,0.012,0.1,0.163,0.219,0.331c0.119,0.163,0.219,0.325,0.219,0.35
		s0.056,0.125,0.131,0.231c0.075,0.1,0.125,0.194,0.113,0.206c-0.063,0.056-2.669,1-3.776,1.363
		c-1.406,0.463-2.144,0.663-3.357,0.913c-0.456,0.1-0.881,0.2-0.938,0.225C81.382,142.752,81.345,142.721,81.295,142.59
		L81.295,142.59z M87.546,140.089c0.681-0.275,0.669-1.275-0.019-1.613c-0.681-0.331-1.507,0.531-1.138,1.2
		c0.156,0.3,0.194,0.331,0.444,0.419C87.152,140.208,87.246,140.208,87.546,140.089L87.546,140.089z"/>
	<path class="st2" d="M56.66,140.789c-0.569-0.219-1.481-0.588-2.032-0.819c-1-0.419-3.832-1.794-4.451-2.157
		c-0.338-0.194-0.338-0.194-0.294-0.581c0.063-0.569,0.256-1.5,0.438-2.107c0.238-0.806,0.6-1.751,0.675-1.751
		c0.038,0,0.375,0.188,0.756,0.419c1.513,0.913,3.738,1.957,5.851,2.738c0.531,0.194,0.975,0.363,0.981,0.369
		c0.006,0.006-0.156,0.944-0.356,2.088c-0.206,1.144-0.375,2.107-0.375,2.138C57.853,141.233,57.735,141.196,56.66,140.789
		L56.66,140.789z M56.991,139.626c0.7-0.2,0.95-0.925,0.469-1.375c-0.413-0.388-0.931-0.375-1.338,0.031
		c-0.181,0.181-0.206,0.25-0.206,0.519c0,0.363,0.194,0.656,0.531,0.8C56.678,139.702,56.703,139.702,56.991,139.626z"/>
	<path class="st2" d="M151.119,139.02c-0.844-0.213-1.975-0.488-2.513-0.6c-0.981-0.2-0.981-0.2-0.7-0.513
		c0.481-0.531,0.538-0.6,1.325-1.594c0.425-0.531,0.819-1.025,0.875-1.094c0.063-0.069,0.288-0.375,0.513-0.681
		c0.406-0.55,0.406-0.55,1.088-0.513c0.994,0.056,4.188,0.481,4.276,0.569c0.012,0.012-0.05,0.144-0.144,0.294
		c-0.088,0.15-0.194,0.325-0.238,0.394c-0.044,0.069-0.169,0.256-0.275,0.425c-0.113,0.163-0.206,0.313-0.206,0.344
		c0,0.025-0.106,0.188-0.238,0.356c-0.131,0.175-0.3,0.419-0.381,0.55c-0.081,0.131-0.175,0.269-0.219,0.313
		c-0.038,0.038-0.125,0.156-0.188,0.263c-0.069,0.1-0.144,0.213-0.175,0.25c-0.025,0.031-0.294,0.388-0.588,0.781
		c-0.3,0.394-0.575,0.75-0.613,0.788C152.669,139.401,152.232,139.308,151.119,139.02L151.119,139.02z M152.057,136.469
		c0.575-0.3,0.738-1.138,0.275-1.438c-0.263-0.169-0.794-0.238-1.05-0.131c-0.6,0.25-0.606,1.282-0.006,1.588
		C151.463,136.588,151.85,136.576,152.057,136.469L152.057,136.469z"/>
	<path class="st2" d="M91.14,139.176c-0.069-0.106-0.181-0.288-0.25-0.4c-0.844-1.35-1.782-3.088-1.782-3.301
		c0-0.038,0.356-0.244,0.8-0.456c0.438-0.213,1.144-0.588,1.575-0.838c0.431-0.25,0.838-0.481,0.906-0.519
		c0.069-0.038,0.256-0.163,0.419-0.275c0.163-0.106,0.313-0.2,0.344-0.2c0.025,0,0.194-0.106,0.363-0.238
		c0.175-0.131,0.494-0.363,0.719-0.513c0.225-0.156,0.438-0.306,0.481-0.344c0.044-0.031,0.119-0.1,0.169-0.138
		c0.05-0.044,0.119-0.081,0.15-0.081c0.025,0,0.263,0.213,0.519,0.475c0.894,0.919,2,1.863,2.782,2.363
		c0.381,0.25,0.381,0.25,0.219,0.381c-0.419,0.344-4.294,2.845-4.413,2.845c-0.012,0-0.131,0.075-0.263,0.163
		c-0.231,0.156-2.482,1.275-2.575,1.275C91.284,139.376,91.203,139.289,91.14,139.176L91.14,139.176z M96.285,135.438
		c0.575-0.35,0.588-1.169,0.019-1.469c-0.444-0.225-1.181-0.025-1.319,0.363c-0.15,0.431-0.025,0.925,0.275,1.113
		C95.522,135.607,96.016,135.6,96.285,135.438L96.285,135.438z"/>
	<path class="st2" d="M70.574,137.213c-2.294-0.144-3.632-0.294-5.407-0.619c-3.957-0.725-8.276-2.257-11.658-4.145
		c-0.275-0.15-0.656-0.363-0.844-0.469c-0.188-0.1-0.388-0.225-0.444-0.269c-0.05-0.05-0.119-0.088-0.15-0.088
		c-0.025,0-0.213-0.113-0.419-0.25c-0.206-0.138-0.388-0.25-0.4-0.25c-0.031,0-1.319-0.856-1.431-0.95
		c-0.031-0.031-0.281-0.206-0.556-0.4c-0.269-0.194-0.525-0.375-0.563-0.406c-0.038-0.031-0.363-0.288-0.725-0.563
		c-0.363-0.281-0.681-0.544-0.719-0.581c-0.031-0.044-0.119-0.113-0.194-0.163c-0.175-0.125-0.95-0.813-1.513-1.344
		c-0.25-0.238-0.494-0.456-0.538-0.481c-0.094-0.05-1.663-1.713-2.275-2.407c-0.331-0.369-0.569-0.663-1.406-1.707
		c-0.506-0.625-1.813-2.501-2.338-3.351c-1.65-2.657-2.869-5.264-3.863-8.246c-0.506-1.513-1.019-3.388-0.875-3.188
		c0.05,0.069,0.144,0.194,0.2,0.275c0.063,0.081,0.144,0.181,0.175,0.219c0.038,0.038,0.256,0.294,0.494,0.569
		c1.5,1.751,3.201,3.345,5.07,4.758c0.206,0.156,0.425,0.319,0.481,0.369c0.056,0.044,0.156,0.113,0.225,0.15
		s0.163,0.106,0.213,0.15c0.231,0.219,2.513,1.657,3.476,2.182c0.244,0.131,0.456,0.3,0.513,0.406
		c0.181,0.331,1.256,1.869,1.538,2.207c0.075,0.088,0.35,0.413,0.606,0.731c1.119,1.35,2.794,3.032,4.545,4.558
		c0.188,0.163,0.375,0.331,0.413,0.363c0.038,0.038,0.194,0.169,0.344,0.294c0.15,0.125,0.475,0.394,0.713,0.594
		c0.244,0.206,0.481,0.4,0.531,0.444c0.05,0.038,0.206,0.169,0.35,0.281c0.288,0.238,2.263,1.263,3.494,1.819
		c3.863,1.738,7.708,2.757,11.533,3.051c1.213,0.094,3.982,0.038,5.095-0.094c3.969-0.488,7.77-1.782,11.214-3.82
		c0.988-0.581,0.931-0.575,1.381-0.281c1,0.656,5.507,3.038,6.739,3.564c0.338,0.144,0.338,0.144,0.125,0.325
		c-0.113,0.094-0.225,0.175-0.25,0.175c-0.025,0-0.081,0.038-0.125,0.081c-0.069,0.069-1.331,0.919-1.707,1.15
		c-1.957,1.194-3.213,1.838-5.032,2.57c-3.557,1.425-7.326,2.332-11.127,2.67C74.431,137.188,71.356,137.263,70.574,137.213z"/>
	<path class="st2" d="M46.714,135.607c-0.675-0.456-1.294-0.882-1.375-0.95c-0.081-0.069-0.213-0.175-0.3-0.231
		c-0.088-0.056-0.231-0.169-0.319-0.25c-0.094-0.081-0.256-0.213-0.369-0.3c-0.381-0.288-0.9-0.731-1.438-1.225
		c-0.188-0.175-0.375-0.331-0.413-0.344c-0.044-0.012-0.656-0.594-1.369-1.294c-0.938-0.925-1.281-1.294-1.256-1.375
		c0.019-0.056,0.138-0.256,0.256-0.438c0.119-0.188,0.219-0.356,0.219-0.381c0-0.025,0.05-0.1,0.113-0.169
		c0.056-0.063,0.163-0.206,0.231-0.313c0.219-0.338,0.544-0.725,1.125-1.319l0.563-0.581l1.194,1.175
		c1.094,1.075,1.582,1.525,2.244,2.082c0.138,0.119,0.306,0.263,0.375,0.319c0.069,0.063,0.363,0.3,0.656,0.531
		c0.294,0.231,0.563,0.45,0.6,0.488c0.038,0.031,0.138,0.106,0.213,0.156s0.175,0.125,0.213,0.156
		c0.038,0.038,0.213,0.163,0.381,0.275c0.175,0.119,0.325,0.238,0.344,0.256c0.019,0.019,0.144,0.106,0.275,0.194
		c0.138,0.081,0.275,0.169,0.306,0.188c0.031,0.025-0.069,0.356-0.231,0.775c-0.313,0.775-0.663,1.969-0.781,2.688
		c-0.113,0.65-0.131,0.719-0.181,0.719C47.964,136.432,47.389,136.063,46.714,135.607z M47.652,134.8
		c0.288-0.175,0.475-0.594,0.419-0.925c-0.081-0.463-0.669-0.819-1.144-0.694c-0.475,0.131-0.731,0.581-0.581,1.019
		C46.577,134.85,47.139,135.119,47.652,134.8L47.652,134.8z"/>
	<path class="st2" d="M99.986,133.543c-0.156-0.144-0.544-0.456-0.863-0.694c-0.319-0.238-0.569-0.438-0.556-0.45
		c0.012-0.013,0.319,0.106,0.688,0.256c0.363,0.156,0.688,0.281,0.719,0.281c0.044,0,0.938-0.375,2.2-0.919
		c0.213-0.094,0.213-0.094,0,0.125c-0.263,0.256-0.85,0.788-1.306,1.169c-0.188,0.156-0.381,0.331-0.438,0.394
		c-0.05,0.056-0.113,0.106-0.131,0.106S100.142,133.694,99.986,133.543L99.986,133.543z"/>
	<path class="st2" d="M155.87,132.612c-1.1-0.163-2.313-0.306-3.282-0.394l-0.444-0.044l0.569-1.132
		c0.319-0.625,0.756-1.557,0.975-2.063c0.3-0.688,0.431-0.932,0.525-0.95c0.069-0.019,1.138-0.144,2.375-0.281
		c1.238-0.138,2.344-0.269,2.457-0.288c0.156-0.025,0.2-0.006,0.2,0.069c0,0.256-1.181,3.088-1.982,4.751l-0.238,0.506
		L155.87,132.612z M155.914,129.842c0.281-0.119,0.438-0.3,0.519-0.594c0.15-0.55-0.219-0.994-0.838-1.019
		c-0.406-0.019-0.763,0.175-0.875,0.463c-0.125,0.313-0.125,0.406,0.025,0.731c0.094,0.206,0.181,0.294,0.388,0.388
		C155.457,129.961,155.614,129.967,155.914,129.842L155.914,129.842z"/>
	<path class="st2" d="M38.35,128.073c-0.088-0.094-0.606-0.713-0.931-1.113c-0.319-0.4-1.475-1.951-1.688-2.276
		c-0.125-0.188-0.244-0.356-0.269-0.375c-0.019-0.019-0.15-0.206-0.281-0.413c-0.131-0.213-0.463-0.744-0.744-1.188
		c-0.275-0.444-0.594-0.963-0.7-1.15c-0.663-1.175-0.769-1.394-0.725-1.438c0.056-0.044,3.869-1,4.001-1
		c0.056,0,0.456,0.575,0.588,0.844c0.019,0.038,0.15,0.238,0.3,0.45c0.144,0.213,0.263,0.4,0.263,0.413
		c0,0.025,0.95,1.463,1.044,1.575c0.031,0.038,0.181,0.244,0.331,0.469c0.156,0.225,0.344,0.475,0.425,0.563
		c0.075,0.088,0.138,0.175,0.138,0.2c0,0.019,0.038,0.081,0.081,0.125c0.038,0.044,0.269,0.313,0.506,0.6l0.425,0.525l-0.625,0.631
		c-0.538,0.544-0.75,0.781-1.031,1.138c-0.181,0.231-0.594,0.85-0.694,1.044c-0.069,0.125-0.169,0.281-0.219,0.35
		C38.45,128.167,38.438,128.167,38.35,128.073L38.35,128.073z M38.975,126.441c0.275-0.144,0.5-0.469,0.5-0.719
		c0-0.244-0.256-0.631-0.5-0.756c-0.725-0.375-1.507,0.419-1.15,1.175C38.019,126.548,38.531,126.679,38.975,126.441L38.975,126.441
		z"/>
	<path class="st2" d="M154.77,125.898c0.231-0.606,0.513-1.851,0.656-2.932l0.106-0.813l0.994-0.394
		c0.825-0.325,4.032-1.45,4.138-1.45c0.144,0-0.438,3.689-0.788,4.989c-0.081,0.288,0.138,0.244-2.132,0.388
		c-1.025,0.069-2.582,0.219-2.869,0.288C154.757,125.998,154.738,125.985,154.77,125.898L154.77,125.898z M157.701,124.178
		c0.188-0.081,0.419-0.481,0.419-0.706c0-0.831-1.031-1.225-1.594-0.6c-0.088,0.094-0.119,0.225-0.119,0.463
		c0,0.356,0.131,0.588,0.45,0.8C157.045,124.26,157.476,124.285,157.701,124.178z"/>
	<path class="st2" d="M155.682,119.221c0-1.082-0.113-2.563-0.25-3.382c-0.119-0.688-0.119-0.688,0.025-0.813
		c0.194-0.169,0.556-0.456,0.938-0.731c0.175-0.131,0.375-0.281,0.444-0.338c0.188-0.144,2.263-1.525,2.3-1.525
		c0.019,0,0.181-0.1,0.363-0.219c0.188-0.119,0.356-0.219,0.375-0.219c0.05,0,0.381,1.357,0.519,2.126
		c0.188,1.032,0.294,2.044,0.331,3.132l0.038,1.094l-0.556,0.144c-0.713,0.188-2.763,0.869-3.694,1.232
		c-0.394,0.15-0.744,0.275-0.775,0.275S155.682,119.646,155.682,119.221L155.682,119.221z M157.714,116.126
		c0.319-0.144,0.594-0.463,0.594-0.681c0-0.294-0.069-0.413-0.356-0.65c-0.225-0.194-0.325-0.238-0.544-0.238
		c-0.419,0-0.625,0.1-0.788,0.381c-0.106,0.2-0.131,0.319-0.106,0.531c0.031,0.294,0.263,0.694,0.419,0.738
		C157.158,116.264,157.483,116.232,157.714,116.126L157.714,116.126z"/>
	<path class="st2" d="M61.917,118.639c-5.757-0.206-11.483-1.807-16.459-4.608c-1.094-0.613-1.188-0.669-1.4-0.825
		c-0.106-0.081-0.213-0.15-0.238-0.15c-0.05,0-1.35-0.875-1.456-0.982c-0.044-0.044-0.106-0.081-0.131-0.081
		c-0.025,0-0.1-0.05-0.169-0.106c-0.063-0.063-0.231-0.188-0.375-0.288c-0.138-0.094-0.306-0.219-0.375-0.281
		c-0.063-0.056-0.231-0.194-0.375-0.294c-0.263-0.194-0.581-0.456-1.425-1.182c-0.906-0.781-2.938-2.863-3.482-3.57
		c-0.081-0.1-0.163-0.2-0.188-0.219c-0.019-0.019-0.225-0.269-0.456-0.563c-0.225-0.294-0.456-0.588-0.513-0.656
		c-0.056-0.069-0.175-0.238-0.263-0.375c-0.094-0.138-0.188-0.263-0.206-0.281c-0.088-0.063-1.244-1.876-1.607-2.507
		c-0.831-1.444-1.732-3.407-2.313-5.026c-0.925-2.582-1.669-6.096-1.963-9.253c-0.106-1.15-0.106-4.845,0-6.002
		c0.388-4.176,1.356-8.19,2.932-12.16c1.044-2.632,2.494-5.52,3.982-7.927c0.175-0.288,0.35-0.569,0.381-0.631
		c0.163-0.269,1.569-2.363,1.638-2.432c0.044-0.044,0.081-0.106,0.081-0.131c0-0.025,0.05-0.1,0.113-0.169
		c0.056-0.063,0.219-0.281,0.35-0.475c0.131-0.2,0.288-0.406,0.344-0.469c0.056-0.063,0.15-0.188,0.206-0.275
		c0.119-0.188,1.763-2.244,2.025-2.538c0.1-0.106,0.306-0.344,0.463-0.531c0.588-0.688,1.438-1.619,2.375-2.582
		c1.863-1.926,2.182-2.232,3.151-3.063c0.344-0.294,0.481-0.419,0.85-0.744c0.131-0.119,1.463-1.219,1.838-1.519
		c0.063-0.05,0.4-0.319,0.75-0.588c0.344-0.269,0.663-0.519,0.694-0.544c0.038-0.025,0.431-0.325,0.875-0.656
		c0.45-0.331,0.844-0.625,0.875-0.656c0.175-0.138,1.663-1.188,2.288-1.607c0.256-0.169,0.475-0.331,0.494-0.35
		c0.025-0.031,1.325-0.894,1.638-1.088c0.056-0.031,0.588-0.375,1.188-0.763c1.163-0.744,3.157-1.957,3.219-1.957
		c0.025,0,0.088-0.038,0.138-0.088c0.056-0.044,0.256-0.169,0.444-0.269c0.35-0.194,0.625-0.35,1.05-0.594
		c1.907-1.113,6.632-3.532,8.952-4.576c8.139-3.676,15.765-6.083,23.166-7.315c2.919-0.488,5.295-0.731,8.558-0.869
		c0.544-0.025,0.575-0.038,0.969-0.3c0.781-0.525,1.169-0.731,1.888-0.982c1.563-0.556,3.113-0.544,4.357,0.025
		c1.094,0.494,1.988,1.419,2.488,2.563c0.15,0.356,0.194,0.4,0.525,0.556c0.338,0.163,0.375,0.169,0.75,0.106
		c0.706-0.119,0.85-0.131,1.306-0.069c0.65,0.081,1.125,0.313,1.532,0.756c0.188,0.2,0.369,0.469,0.413,0.6
		c0.063,0.219,0.094,0.238,0.669,0.45c0.706,0.256,1.969,0.856,2.369,1.125c0.15,0.1,0.288,0.188,0.306,0.188
		c0.119,0,0.963,0.681,1.431,1.163c0.688,0.694,0.675,0.675,0.975,1.244c0.431,0.813,0.519,1.619,0.269,2.476
		c-0.081,0.263-0.113,0.313-0.156,0.225c-0.413-0.731-4.332-1.269-8.664-1.182c-0.944,0.019-0.944,0.019-1.019,0.425
		c-0.175,1.038-0.725,2.113-1.607,3.138c-0.175,0.206-0.175,0.206-0.131-1.213c0.044-1.419,0.044-1.419-0.113-1.619
		c-0.081-0.113-0.15-0.231-0.15-0.263c0-0.038-0.038-0.1-0.088-0.138c-0.05-0.044-0.138-0.175-0.194-0.3
		c-0.106-0.225-0.106-0.225-1.244-0.188c-4.413,0.156-8.045,0.119-10.277-0.119c-2.319-0.238-4.707-0.806-6.357-1.513
		c-0.238-0.106-0.444-0.181-0.456-0.175c-0.169,0.175,1.707,1.369,2.994,1.907c2.357,0.988,5.276,1.363,9.227,1.2
		c1.513-0.063,3.532-0.169,5.251-0.281c0.35-0.019,0.406-0.006,0.55,0.138c0.206,0.206,0.3,0.588,0.256,1.044
		c-0.019,0.206-0.056,0.744-0.075,1.2c-0.044,0.819-0.044,0.819,0.119,0.982c0.188,0.188,0.413,0.256,0.65,0.194
		c0.169-0.038,0.706-0.538,0.913-0.838c0.1-0.15,0.1-0.15,0.963-0.075c2.069,0.175,5.113,0.575,5.232,0.694
		c0.031,0.031-0.031,0.169-0.131,0.325c-0.106,0.15-0.3,0.444-0.431,0.656c-0.131,0.219-0.269,0.394-0.306,0.394
		c-0.031,0-0.444-0.075-0.906-0.156c-1.813-0.344-6.876-0.988-6.97-0.9c-0.031,0.038,1.088,2.488,2.125,4.658
		c0.181,0.381,0.344,0.744,0.369,0.813c0.019,0.069,0.131,0.175,0.25,0.225c0.206,0.1,0.206,0.1,0.744-0.25
		c0.538-0.356,0.538-0.356,0.956-1.282c0.425-0.919,0.425-0.919,0.506-0.725c0.288,0.688,0.288,1.919-0.012,2.688
		c-0.031,0.075,0.081,0.113,0.669,0.206c0.388,0.056,0.794,0.119,0.9,0.138c0.381,0.069,0.7-0.381,1.413-1.976
		c0.094-0.219,0.094-0.219,0.194,0.006c0.338,0.8,0.294,1.776-0.119,2.926c-0.169,0.456-0.169,0.456-0.581,0.644
		c-0.631,0.281-1.738,0.65-2.419,0.8c-0.844,0.188-1.975,0.194-2.669,0.006c-0.519-0.138-1.582-0.656-1.882-0.913
		c-0.1-0.088-0.2-0.156-0.219-0.156s-0.125-0.081-0.231-0.175s-0.288-0.238-0.4-0.325c-0.119-0.088-0.381-0.3-0.588-0.475
		c-1.525-1.269-2.525-1.894-3.913-2.432c-2.444-0.95-5.82-0.969-10.045-0.063c-2.482,0.538-11.202,3.076-15.678,4.564
		c-6.807,2.263-12.277,4.608-16.972,7.283c-0.05,0.025-0.6,0.356-1.213,0.731c-0.619,0.369-1.194,0.719-1.281,0.769
		c-0.225,0.138-1.844,1.213-1.882,1.25c-0.019,0.019-0.313,0.238-0.656,0.481c-0.344,0.244-0.844,0.606-1.106,0.806
		c-0.263,0.206-0.55,0.425-0.644,0.488c-0.088,0.069-0.219,0.169-0.281,0.219c-0.063,0.056-0.169,0.144-0.231,0.194
		c-0.625,0.513-0.831,0.688-1.05,0.882c-0.138,0.125-0.35,0.313-0.469,0.406c-0.819,0.681-2.682,2.551-3.407,3.426
		c-0.138,0.169-0.294,0.356-0.344,0.413c-0.225,0.275-0.306,0.381-0.788,1.032c-0.506,0.694-1.1,1.55-1.275,1.851
		c-0.975,1.663-1.394,2.469-1.944,3.757c-0.731,1.707-1.381,3.907-1.675,5.683c-0.294,1.732-0.344,2.388-0.344,4.401
		c0,2.013,0.05,2.663,0.344,4.408c0.638,3.801,2.369,7.79,4.651,10.697c0.225,0.288,0.469,0.594,0.531,0.681
		c0.069,0.088,0.456,0.506,0.856,0.938c0.788,0.831,1.4,1.4,2.263,2.082c0.294,0.231,0.581,0.456,0.631,0.5
		c0.456,0.369,1.994,1.282,2.907,1.732c2.15,1.063,4.351,1.694,6.751,1.944c0.881,0.094,3.176,0.094,4.063,0
		c1.088-0.113,2.544-0.369,3.588-0.638c0.531-0.131,0.969-0.238,0.975-0.231c0.012,0.012,0.025,0.569,0.037,1.232
		c0.025,1.219,0.025,1.219-0.131,1.257c-0.1,0.025-0.194,0.119-0.269,0.275c-0.113,0.238-0.113,0.238,0.031,0.45
		c0.106,0.15,0.194,0.213,0.313,0.213c0.194,0,0.188-0.019,0.3,1.063c0.225,2.107,0.756,4.32,1.481,6.189
		c0.281,0.719,1.013,2.244,1.3,2.72c0.175,0.281,0.294,0.538,0.269,0.569c-0.056,0.05-1.663,0.613-2.382,0.831
		c-2.794,0.85-5.388,1.294-8.451,1.444C63.392,118.677,63.023,118.683,61.917,118.639L61.917,118.639z M68.568,104.979
		c0.213-0.094,0.256-0.256,0.163-0.581c-0.088-0.3-0.225-0.375-0.588-0.306c-0.175,0.031-0.219,0.075-0.281,0.275
		c-0.1,0.344-0.088,0.481,0.069,0.588C68.099,105.073,68.349,105.079,68.568,104.979L68.568,104.979z M70.712,104.623
		c0.263-0.125,0.456-0.381,0.456-0.619c0-0.15-0.269-0.419-0.488-0.5c-0.4-0.138-0.944,0.338-0.856,0.744
		c0.044,0.2,0.356,0.494,0.519,0.494C70.399,104.741,70.568,104.685,70.712,104.623L70.712,104.623z M118.257,31.114
		c0.55-0.2,0.694-0.281,1.019-0.619c0.438-0.444,0.475-0.932,0.125-1.544c-0.175-0.306-0.3-0.338-0.619-0.15
		c-0.431,0.256-0.638,0.613-0.706,1.2c-0.038,0.313-0.075,0.375-0.469,0.794c-0.238,0.25-0.431,0.481-0.431,0.513
		C117.176,31.395,117.776,31.289,118.257,31.114L118.257,31.114z M109.762,28.751c0.531-0.25,1.169-0.9,1.338-1.363
		c0.2-0.525,0.231-0.95,0.113-1.413c-0.3-1.163-1.35-2.007-2.513-2.007c-0.381,0-1.069,0.2-1.444,0.419
		c-0.475,0.275-0.888,0.806-0.988,1.269c-0.275,1.257,0.6,2.745,1.875,3.207C108.606,29.026,109.281,28.982,109.762,28.751
		L109.762,28.751z"/>
	<path class="st2" d="M135.917,118.452l-0.613-0.025l0.006-1.575c0-1.45,0.056-2.569,0.131-2.638
		c0.019-0.019,1.044-0.05,2.282-0.075l2.257-0.038l0.044,0.463c0.069,0.744,0.269,2.019,0.463,2.932
		c0.1,0.463,0.175,0.85,0.169,0.856s-0.456,0.044-1.006,0.075C138.723,118.489,137.373,118.495,135.917,118.452L135.917,118.452z
		 M139.73,117.601c0.513-0.35,0.375-1.2-0.231-1.407c-0.925-0.319-1.632,0.575-1.044,1.319
		C138.692,117.82,139.342,117.864,139.73,117.601z"/>
	<path class="st2" d="M31.505,117.064c-0.338-0.738-0.719-1.613-0.856-1.938c-0.238-0.581-1.113-3.195-1.113-3.32
		c0-0.169,2.55-0.806,3.351-0.831c0.413-0.012,0.413-0.012,0.838,1.082c0.231,0.6,0.569,1.432,0.75,1.844
		c0.356,0.813,1.519,3.188,1.632,3.32c0.075,0.094,0.175,0.063-2.294,0.731l-1.7,0.456L31.505,117.064L31.505,117.064z
		 M33.168,117.295c0.363-0.125,0.556-0.406,0.556-0.8c0-0.381-0.181-0.663-0.525-0.819c-0.263-0.113-0.288-0.113-0.631-0.006
		c-0.294,0.088-0.381,0.144-0.475,0.325c-0.231,0.431-0.088,1.007,0.306,1.238C32.662,117.389,32.862,117.401,33.168,117.295
		L33.168,117.295z"/>
	<path class="st2" d="M131.866,117.964c-0.738-0.15-1.682-0.363-2.094-0.463c-1.119-0.288-2.532-0.756-2.532-0.838
		c0-0.194,0.35-1.507,0.663-2.488l0.35-1.094l0.638,0.175c1.213,0.344,3.719,0.8,4.376,0.8c0.244,0,0.244,0,0.2,0.425
		c-0.106,1.157-0.175,2.607-0.144,3.157c0.031,0.45,0.019,0.606-0.038,0.6C133.241,118.239,132.603,118.114,131.866,117.964
		L131.866,117.964z M132.035,117.108c0.7-0.313,0.775-1.194,0.138-1.575c-0.394-0.231-1.013-0.063-1.238,0.338
		c-0.163,0.294-0.169,0.5-0.006,0.806C131.166,117.145,131.585,117.308,132.035,117.108L132.035,117.108z"/>
	<path class="st2" d="M142.443,117.326c-0.225-0.913-0.419-2.032-0.506-2.895c-0.031-0.325-0.05-0.594-0.05-0.6
		c0.075-0.031,4.188-0.844,4.201-0.825c0.012,0.012,0.15,0.356,0.3,0.775c0.3,0.806,0.956,2.369,1.206,2.863
		c0.088,0.163,0.15,0.306,0.138,0.319c-0.031,0.031-1.763,0.506-2.582,0.713c-0.931,0.231-2.032,0.444-2.307,0.444
		C142.636,118.12,142.636,118.12,142.443,117.326L142.443,117.326z M146.468,116.614c0.325-0.2,0.481-0.506,0.45-0.869
		c-0.019-0.163-0.075-0.35-0.131-0.406c-0.163-0.163-0.519-0.281-0.838-0.281c-0.256,0-0.338,0.031-0.531,0.219
		c-0.2,0.181-0.238,0.25-0.238,0.469c0,0.313,0.131,0.638,0.338,0.844C145.724,116.789,146.162,116.807,146.468,116.614
		L146.468,116.614z"/>
	<path class="st2" d="M149.319,115.82c-0.538-1.05-1.45-3.232-1.375-3.288c0.056-0.044,3.944-1.35,3.963-1.332
		c0.206,0.206,1.156,3.751,1.038,3.864c-0.031,0.038-2.494,1.044-3.182,1.313C149.638,116.42,149.6,116.376,149.319,115.82z
		 M151.65,114.969c0.338-0.144,0.481-0.425,0.456-0.894c-0.025-0.456-0.181-0.663-0.556-0.775c-0.344-0.106-0.638-0.025-0.863,0.231
		c-0.169,0.188-0.194,0.269-0.194,0.563c0,0.413,0.125,0.675,0.394,0.838C151.125,115.082,151.357,115.088,151.65,114.969
		L151.65,114.969z"/>
	<path class="st2" d="M125.071,115.932c-0.269-0.119-0.269-0.119,0.025-0.606c0.156-0.269,0.469-0.85,0.688-1.3
		c0.219-0.444,0.381-0.756,0.363-0.688c-0.263,0.838-0.481,1.613-0.594,2.113c-0.075,0.331-0.156,0.606-0.181,0.606
		C125.352,116.057,125.215,116.001,125.071,115.932z"/>
	<path class="st2" d="M154.57,112.05c-0.681-2.076-1.738-4.264-2.838-5.889c-0.25-0.363-0.25-0.363,0.113-0.75
		c0.888-0.95,3.307-3.22,3.369-3.157c0.081,0.075,1.063,1.582,1.425,2.176c0.544,0.894,1.438,2.62,1.825,3.532
		c0.331,0.769,0.781,1.963,0.781,2.069c0,0.063-0.506,0.431-0.844,0.619c-0.225,0.119-2.369,1.563-2.494,1.675
		c-0.069,0.056-0.144,0.106-0.169,0.106s-0.088,0.038-0.131,0.081s-0.225,0.181-0.394,0.306
		C154.901,113.044,154.901,113.044,154.57,112.05L154.57,112.05z M154.113,106.117c0.644-0.325,0.675-1.194,0.05-1.475
		c-0.519-0.238-1.1-0.081-1.275,0.338c-0.113,0.269-0.075,0.681,0.088,0.925C153.188,106.236,153.701,106.329,154.113,106.117
		L154.113,106.117z"/>
	<path class="st2" d="M134.616,112.237c-2.35-0.188-4.526-0.625-6.707-1.344c-0.706-0.238-0.856-0.306-0.831-0.388
		c0.219-0.688,0.563-2.513,0.669-3.52c0.044-0.394,0.081-0.719,0.094-0.731c0.006-0.013,0.369,0.169,0.813,0.394
		c5.551,2.826,12.771,2.832,19.466,0.019c0.5-0.213,0.938-0.406,0.975-0.431c0.081-0.069,0.181,0.05,0.669,0.8
		c0.706,1.075,1.4,2.376,1.313,2.457c-0.075,0.069-1.775,0.65-2.951,1.007c-2.725,0.825-5.638,1.419-8.289,1.682
		C138.917,112.275,135.516,112.312,134.616,112.237L134.616,112.237z"/>
	<path class="st2" d="M28.886,109.199c-0.475-2.019-0.769-4.395-0.919-7.458c-0.075-1.55-0.038-6.258,0.05-6.583
		c0.044-0.156,0.075-0.094,0.25,0.506c0.456,1.575,1.256,3.545,2.307,5.702c0.713,1.469,0.713,1.469,1.025,3.032
		c0.338,1.694,0.706,3.257,0.969,4.082c0.094,0.288,0.156,0.531,0.144,0.544c-0.013,0.006-0.313,0.063-0.675,0.125
		c-0.831,0.131-1.832,0.363-2.45,0.563c-0.263,0.088-0.494,0.156-0.513,0.156C29.061,109.868,28.974,109.568,28.886,109.199
		L28.886,109.199z M30.68,108.78c0.288-0.119,0.413-0.288,0.456-0.613c0.1-0.738-0.588-1.25-1.256-0.925
		c-0.569,0.275-0.675,0.806-0.263,1.244C29.961,108.849,30.305,108.943,30.68,108.78L30.68,108.78z"/>
	<path class="st2" d="M171.629,104.316c-0.738-2.382-2.138-5.589-3.288-7.527c-0.031-0.056-0.156-0.269-0.275-0.469
		c-0.581-0.994-1.957-3.001-2.65-3.864c-1.438-1.782-3.419-3.839-4.763-4.926c-0.069-0.05-0.238-0.194-0.381-0.306
		c-0.138-0.113-0.475-0.375-0.744-0.581c-0.275-0.206-0.538-0.413-0.581-0.45c-0.044-0.044-0.106-0.081-0.131-0.081
		c-0.025,0-0.1-0.05-0.169-0.113c-0.294-0.263-2.269-1.482-3.182-1.957c-0.556-0.294-0.556-0.294-1.163-1.225
		c-0.338-0.506-0.631-0.957-0.663-0.988c-0.038-0.038-0.113-0.15-0.181-0.25c-0.063-0.106-0.169-0.244-0.225-0.306
		c-0.063-0.069-0.188-0.238-0.281-0.375c-0.094-0.144-0.188-0.269-0.206-0.288c-0.019-0.019-0.169-0.2-0.338-0.406
		c-0.506-0.638-0.681-0.844-1.063-1.275c-0.531-0.594-2.25-2.288-2.725-2.695c-0.225-0.188-0.463-0.388-0.531-0.45
		c-0.069-0.063-0.419-0.338-0.781-0.619c-0.363-0.275-0.7-0.538-0.75-0.575c-0.175-0.138-1.4-0.944-1.938-1.275
		c-0.85-0.525-3.144-1.657-4.194-2.063c-6.482-2.538-13.64-2.657-20.641-0.35l-1.238,0.406l-1.106-0.475
		c-5.545-2.376-12.59-3.895-17.522-3.776c-0.619,0.012-1.1,0.006-1.075-0.019c0.069-0.056,1.069-0.856,1.363-1.088
		c0.131-0.1,0.438-0.331,0.681-0.513c0.244-0.181,0.481-0.356,0.525-0.394c0.069-0.063,2.163-1.469,2.488-1.669
		c0.394-0.25,1.163-0.713,1.431-0.869c2.482-1.4,4.432-2.313,6.889-3.238c7.126-2.67,14.852-3.532,22.147-2.469
		c4.888,0.706,9.683,2.319,13.902,4.676c0.406,0.225,0.913,0.506,1.125,0.625c1.138,0.625,3.926,2.351,4.038,2.501
		c0.019,0.025,0.119,0.094,0.219,0.156c0.206,0.131,1.738,1.263,1.963,1.45c0.081,0.069,0.194,0.163,0.256,0.213
		c0.056,0.05,0.2,0.163,0.319,0.25c0.194,0.15,0.838,0.688,1.306,1.094c1.038,0.913,2.888,2.732,3.688,3.632
		c0.456,0.513,0.706,0.8,0.938,1.082c0.119,0.144,0.281,0.338,0.363,0.431c0.256,0.294,1.156,1.463,1.582,2.044
		c0.463,0.638,1.557,2.263,1.557,2.319c0,0.019,0.069,0.125,0.15,0.231c0.425,0.563,1.919,3.357,2.625,4.92
		c2.644,5.833,3.982,12.716,3.726,19.168c-0.062,1.613-0.181,3.195-0.244,3.32C171.86,104.954,171.748,104.685,171.629,104.316
		L171.629,104.316z"/>
	<path class="st2" d="M150.05,104.004c-0.625-0.7-1.575-1.632-2.225-2.188c-0.606-0.519-1.538-1.225-1.819-1.382
		c-0.069-0.038-0.05-0.106,0.088-0.356c0.088-0.169,0.231-0.394,0.313-0.506c0.081-0.106,0.15-0.219,0.15-0.244
		s0.069-0.138,0.156-0.25c0.088-0.113,0.156-0.219,0.156-0.238c0-0.038,1.613-2.469,1.738-2.613c0.081-0.1,0.119-0.088,0.475,0.15
		c0.206,0.144,0.419,0.3,0.463,0.344c0.044,0.044,0.106,0.081,0.131,0.081s0.1,0.05,0.169,0.113
		c0.063,0.056,0.194,0.156,0.288,0.213c0.238,0.156,1.156,0.894,1.725,1.394c0.619,0.544,2.138,2.101,2.132,2.188
		c0,0.031-0.188,0.219-0.413,0.406c-0.225,0.188-0.481,0.413-0.575,0.5s-0.456,0.425-0.813,0.75
		c-0.35,0.325-0.919,0.894-1.256,1.263C150.313,104.298,150.313,104.298,150.05,104.004L150.05,104.004z M148.381,100.615
		c0.281-0.081,0.594-0.425,0.65-0.719c0.15-0.806-0.994-1.269-1.613-0.656c-0.15,0.15-0.175,0.225-0.175,0.525
		c0,0.313,0.025,0.375,0.225,0.594C147.744,100.665,147.962,100.728,148.381,100.615z"/>
	<path class="st2" d="M144.112,99.246c-0.281-0.219-1.331-0.681-2.45-1.082l-1.113-0.394l0.038-0.688
		c0.081-1.463,0.3-3.107,0.531-3.92c0.069-0.231,0.069-0.231,0.394-0.138c0.694,0.2,2.175,0.719,2.988,1.044
		c1.006,0.406,2.494,1.107,2.494,1.175c0,0.025-0.038,0.088-0.081,0.131c-0.119,0.125-0.85,1.138-1.3,1.801
		c-0.431,0.644-0.419,0.619-0.956,1.55c-0.2,0.35-0.369,0.638-0.381,0.638C144.268,99.365,144.193,99.315,144.112,99.246
		L144.112,99.246z M142.774,97.114c0.513-0.25,0.55-0.925,0.075-1.369c-0.45-0.413-1.244-0.188-1.419,0.406
		c-0.063,0.213-0.056,0.288,0.019,0.438c0.2,0.381,0.569,0.644,0.913,0.65C142.449,97.239,142.63,97.183,142.774,97.114
		L142.774,97.114z"/>
	<path class="st2" d="M127.803,97.296c0-0.081-0.056-1.019-0.125-2.088c-0.069-1.063-0.125-1.969-0.125-2.013
		c0-0.125,1.507-0.525,2.844-0.756l0.681-0.113l0.175,0.838c0.206,1,0.525,2.151,0.819,2.92l0.213,0.563l-0.85,0.075
		c-1.231,0.113-2.888,0.438-3.538,0.681C127.828,97.427,127.803,97.396,127.803,97.296L127.803,97.296z M129.222,95.851
		c0.131-0.106,0.325-0.538,0.331-0.719c0-0.263-0.194-0.638-0.406-0.769c-0.281-0.175-0.7-0.169-0.975,0.019
		c-0.263,0.175-0.369,0.375-0.369,0.719c0,0.625,0.481,1.007,1.113,0.882C129.028,95.958,129.165,95.901,129.222,95.851
		L129.222,95.851z"/>
	<path class="st2" d="M137.904,97.077c-0.825-0.169-1.963-0.325-2.863-0.375c-0.675-0.044-0.675-0.044-0.806-0.394
		c-0.394-1.05-0.994-3.176-1.138-4.032c-0.031-0.181-0.031-0.181,1.638-0.144c1.769,0.044,2.344,0.088,3.707,0.3
		c0.563,0.088,0.844,0.156,0.825,0.206c-0.138,0.4-0.438,2.582-0.563,4.089c-0.019,0.281-0.056,0.506-0.081,0.506
		C138.605,97.227,138.279,97.158,137.904,97.077z M135.635,95.701c0.106-0.056,0.225-0.138,0.269-0.175
		c0.156-0.156,0.275-0.481,0.275-0.744c0-0.35-0.219-0.575-0.669-0.675c-0.288-0.069-0.344-0.063-0.6,0.063
		c-0.381,0.188-0.581,0.569-0.488,0.925c0.062,0.231,0.369,0.594,0.569,0.663C135.173,95.826,135.435,95.801,135.635,95.701
		L135.635,95.701z"/>
	<path class="st2" d="M71.637,93.569c-4.588-2.538-9.814-3.107-15.44-1.675c-1.632,0.413-3.576,1.082-5.051,1.738
		c-0.356,0.163-0.356,0.163-0.7-0.369c-1.682-2.607-2.619-4.651-3.182-6.965c-0.35-1.432-0.375-1.275,0.194-1.538
		c3.526-1.619,7.257-2.701,10.521-3.051c2.969-0.325,6.201-0.281,8.876,0.119c1.444,0.213,3.688,0.725,5.032,1.15
		c0.563,0.175,0.563,0.175,0.613,0.638c0.075,0.731-0.075,8.302-0.194,9.79l-0.044,0.513L71.637,93.569L71.637,93.569z"/>
	<path class="st2" d="M171.848,84.936c-0.325-0.888-0.85-2.113-1.544-3.626c-0.475-1.019-0.631-1.444-0.913-2.451
		c-1.194-4.314-2.625-8.452-3.901-11.284c-0.681-1.525-1.644-3.376-2.494-4.814c-0.281-0.481-0.55-0.932-0.588-1
		c-0.206-0.356-1.65-2.526-1.838-2.751c-0.031-0.038-0.106-0.15-0.175-0.25c-0.062-0.106-0.15-0.231-0.194-0.281
		c-0.038-0.05-0.369-0.475-0.725-0.938c-0.756-0.988-1.982-2.482-2.294-2.807c-0.056-0.056-0.369-0.394-0.7-0.756
		c-0.619-0.675-2.669-2.72-3.326-3.32c-0.206-0.188-0.438-0.4-0.513-0.475c-0.575-0.538-3.051-2.526-4.151-3.332
		c-0.256-0.188-0.481-0.356-0.5-0.375c-0.044-0.05-2.582-1.757-2.8-1.882c-0.094-0.056-0.469-0.288-0.831-0.513
		c-4.545-2.813-10.327-5.339-15.934-6.958c-4.244-1.232-9.014-2.144-13.158-2.532c-0.444-0.044-0.825-0.081-0.831-0.094
		c-0.012-0.006,0.056-0.231,0.156-0.494c0.175-0.481,0.175-0.481,1.269-0.444c6.464,0.238,12.508,1.307,18.378,3.238
		c2.407,0.794,4.957,1.801,6.864,2.713c0.463,0.219,0.85,0.4,0.869,0.4c0.019,0,0.544,0.269,1.169,0.594
		c1.081,0.569,1.45,0.775,2.007,1.094c0.138,0.075,0.375,0.213,0.531,0.3c0.156,0.081,0.619,0.363,1.031,0.613
		c0.413,0.256,0.806,0.5,0.875,0.544c0.238,0.144,2.413,1.607,2.488,1.669c0.044,0.038,0.256,0.2,0.481,0.356
		c0.225,0.163,0.431,0.319,0.469,0.344c0.031,0.031,0.175,0.138,0.313,0.244c0.463,0.356,0.675,0.525,1.013,0.794
		c0.531,0.425,0.594,0.475,0.7,0.575c0.056,0.05,0.244,0.206,0.413,0.344c1.106,0.894,4.601,4.301,4.707,4.601
		c0.025,0.063,0.244,0.319,0.481,0.569c0.244,0.256,0.588,0.631,0.775,0.831c0.181,0.206,0.425,0.475,0.531,0.594
		c0.113,0.119,0.325,0.369,0.481,0.556c0.15,0.188,0.319,0.388,0.369,0.444c0.05,0.063,0.138,0.163,0.188,0.225
		c0.169,0.213,0.694,0.863,0.781,0.975c0.05,0.063,0.319,0.413,0.594,0.781c0.275,0.375,0.525,0.706,0.55,0.738
		c0.025,0.038,0.194,0.275,0.375,0.531c0.175,0.256,0.344,0.5,0.375,0.531c0.106,0.131,0.7,1.025,0.7,1.063
		c0,0.019,0.094,0.163,0.206,0.325c0.106,0.169,0.238,0.356,0.275,0.425c0.044,0.069,0.213,0.35,0.381,0.625
		c0.169,0.275,0.381,0.625,0.463,0.781c0.088,0.156,0.225,0.394,0.3,0.531c0.419,0.725,0.738,1.319,1.194,2.226
		c2.625,5.252,4.226,10.734,4.776,16.373c0.094,0.925,0.213,4.501,0.15,4.501C172.104,85.611,171.979,85.311,171.848,84.936
		L171.848,84.936z"/>
	<path class="st2" d="M46.589,80.991c-0.1-2.407,0.381-5.151,1.369-7.89c0.306-0.838,0.306-0.838,0.731-1.132l0.425-0.294
		l0.475,0.638c0.675,0.894,2.338,2.551,2.857,2.838c0.088,0.05,0.044,0.113-0.325,0.4c-0.231,0.188-0.506,0.406-0.613,0.494
		c-0.313,0.256-2.169,2.132-2.482,2.501c-0.163,0.188-0.369,0.431-0.456,0.531c-0.094,0.106-0.244,0.281-0.331,0.4
		c-0.094,0.119-0.2,0.244-0.231,0.281c-0.038,0.038-0.363,0.469-0.731,0.95l-0.663,0.888L46.589,80.991L46.589,80.991z
		 M50.859,75.752c0.194-0.113,0.369-0.419,0.369-0.644c0-0.075-0.056-0.269-0.131-0.431c-0.163-0.381-0.513-0.6-0.844-0.538
		c-0.275,0.05-0.694,0.331-0.738,0.5c-0.113,0.4,0.013,0.775,0.338,1.057C50.09,75.896,50.571,75.921,50.859,75.752L50.859,75.752z"
		/>
	<path class="st2" d="M54.003,73.876c-0.069-0.063-0.225-0.181-0.35-0.269c-0.788-0.544-1.938-1.688-2.688-2.682
		c-0.094-0.125-0.175-0.256-0.175-0.294c0-0.063,0.45-0.4,0.531-0.4c0.025,0,0.131-0.069,0.244-0.156
		c0.113-0.088,0.231-0.156,0.256-0.156c0.031,0,0.1-0.038,0.15-0.088c0.056-0.044,0.225-0.156,0.381-0.238
		c0.156-0.088,0.406-0.231,0.563-0.325c0.325-0.188,2.575-1.338,2.788-1.413c0.119-0.05,0.163-0.012,0.363,0.313
		c0.325,0.531,1.2,1.719,1.913,2.601l0.606,0.75l-0.475,0.256c-0.263,0.138-0.969,0.531-1.569,0.875
		c-0.6,0.344-1.219,0.694-1.375,0.781s-0.425,0.244-0.6,0.35C54.19,74.014,54.165,74.02,54.003,73.876L54.003,73.876z
		 M56.597,71.832c0.094-0.05,0.263-0.194,0.375-0.319c0.163-0.188,0.194-0.275,0.194-0.531c0-0.256-0.031-0.338-0.206-0.519
		c-0.113-0.119-0.319-0.25-0.463-0.294c-0.225-0.069-0.288-0.063-0.494,0.038c-0.569,0.281-0.713,1.088-0.269,1.532
		C55.934,71.938,56.309,71.976,56.597,71.832L56.597,71.832z"/>
	<path class="st2" d="M165.34,73.12c-0.169-0.231-0.35-0.456-0.394-0.506c-0.05-0.05-0.2-0.244-0.344-0.438
		c-0.144-0.194-0.275-0.363-0.294-0.381c-0.019-0.019-0.1-0.113-0.181-0.206c-0.15-0.169-0.15-0.169,0.35-0.169
		c0.5,0,0.5,0,0.863,0.988c0.2,0.538,0.375,1.019,0.394,1.063C165.803,73.658,165.628,73.507,165.34,73.12L165.34,73.12z"/>
	<path class="st2" d="M81.795,70.8c-0.363-0.125-0.663-0.225-0.669-0.231c-0.075-0.019-0.369-2.857-0.431-4.139
		c-0.038-0.744-0.031-0.888,0.044-0.863c0.05,0.019,0.481,0.144,0.963,0.281c1.088,0.313,2.232,0.694,3.707,1.238
		c0.888,0.331,1.131,0.444,1.1,0.519c-0.019,0.05-0.131,0.444-0.256,0.875c-0.388,1.382-0.325,1.257-0.675,1.382
		c-0.431,0.15-0.45,0.15-0.531-0.106c-0.138-0.413-0.819-0.588-1.306-0.338c-0.331,0.163-0.5,0.575-0.388,0.932
		c0.094,0.313,0.094,0.3-0.1,0.369c-0.1,0.031-0.313,0.119-0.488,0.181C82.451,71.026,82.451,71.026,81.795,70.8L81.795,70.8z"/>
	<path class="st2" d="M60.26,70.632c-0.063-0.088-0.163-0.213-0.213-0.275c-0.056-0.063-0.15-0.175-0.219-0.25
		c-0.475-0.581-1.975-2.688-1.975-2.788c0-0.025-0.05-0.1-0.106-0.163c-0.094-0.106-0.094-0.125-0.019-0.175
		c0.144-0.088,1.744-0.656,2.657-0.944c0.788-0.244,2.913-0.806,3.063-0.806c0.044,0,0.113,0.163,0.156,0.363
		c0.119,0.55,0.65,2.151,1.019,3.088l0.338,0.85l-0.538,0.106c-0.931,0.175-2.407,0.581-3.219,0.875
		c-0.425,0.156-0.788,0.281-0.8,0.281S60.329,70.719,60.26,70.632L60.26,70.632z M63.754,68.956c0.275-0.206,0.413-0.456,0.413-0.75
		c0-0.281-0.313-0.606-0.706-0.744c-0.256-0.088-0.294-0.081-0.581,0.038c-0.419,0.181-0.588,0.381-0.588,0.719
		c0,0.319,0.131,0.613,0.363,0.813C62.892,69.238,63.436,69.2,63.754,68.956L63.754,68.956z"/>
	<path class="st2" d="M77.732,69.756c-0.769-0.169-1.657-0.319-2.407-0.4c-1.544-0.169-1.45-0.144-1.532-0.425
		c-0.194-0.694-0.575-2.638-0.844-4.32c-0.044-0.275-0.044-0.275,0.6-0.231c1.419,0.1,3.132,0.319,4.401,0.575
		c0.413,0.081,0.769,0.15,0.788,0.15c0.019,0,0.025,0.344,0.006,0.769c-0.038,1,0.119,3.345,0.269,4.032
		c0.019,0.075,0.012,0.138-0.012,0.131C78.969,70.038,78.401,69.906,77.732,69.756z M78.163,69.037
		c0.306-0.175,0.456-0.394,0.494-0.719c0.025-0.225,0-0.313-0.131-0.481c-0.194-0.256-0.513-0.419-0.825-0.419
		c-0.275,0-0.744,0.35-0.806,0.6c-0.069,0.256,0.2,0.894,0.425,1.032C77.569,69.206,77.876,69.2,78.163,69.037L78.163,69.037z"/>
	<path class="st2" d="M161.683,68.9c-0.363-0.35-0.9-0.863-1.194-1.138c-0.538-0.5-0.756-0.688-1.588-1.382
		c-0.238-0.2-0.469-0.394-0.506-0.431c-0.106-0.094-0.238-0.194-0.963-0.75c-0.363-0.269-0.688-0.525-0.731-0.563
		c-0.038-0.031-0.469-0.344-0.956-0.688c-0.638-0.45-0.919-0.688-1-0.85c-0.119-0.225-0.119-0.225,0.581-0.3
		c1.344-0.138,2.213-0.194,3.701-0.231l1.5-0.038l0.275,0.456c0.744,1.25,1.269,2.194,1.838,3.307
		c0.6,1.175,1.481,3.076,1.481,3.195c0,0.031-0.394,0.056-0.888,0.056C162.34,69.544,162.34,69.544,161.683,68.9L161.683,68.9z
		 M162.283,67.887c0.556-0.425,0.5-1.125-0.113-1.444c-0.538-0.281-1.3,0.15-1.3,0.731C160.871,68.031,161.608,68.4,162.283,67.887z
		"/>
	<path class="st2" d="M66.73,68.769c-0.463-0.994-1.231-3.326-1.269-3.826c-0.012-0.175-0.012-0.175,0.581-0.256
		c1.188-0.15,2.619-0.269,3.732-0.313c1.138-0.038,1.138-0.038,1.175,0.113c0.056,0.256,0.906,4.52,0.906,4.57
		c0,0.025-0.406,0.05-0.9,0.05c-0.856,0-3.238,0.094-3.751,0.15C66.967,69.281,66.967,69.281,66.73,68.769L66.73,68.769z
		 M70.487,68.356c0.775-0.219,0.831-1.375,0.075-1.663c-0.469-0.181-0.888-0.019-1.119,0.425c-0.25,0.481,0.075,1.157,0.6,1.257
		c0.088,0.012,0.169,0.031,0.188,0.038C70.249,68.412,70.362,68.387,70.487,68.356L70.487,68.356z"/>
	<path class="st2" d="M88.127,68.675c0.063-0.225,0.125-0.419,0.138-0.431c0.006-0.013,0.238,0.094,0.506,0.231
		c0.306,0.15,0.456,0.263,0.4,0.281c-0.05,0.019-0.338,0.1-0.631,0.181C88.002,69.087,88.002,69.087,88.127,68.675z"/>
	<path class="st2" d="M50.008,68.562c0.094-0.163,0.213-0.344,0.256-0.4c0.05-0.05,0.088-0.119,0.088-0.15
		c0-0.025,0.1-0.188,0.219-0.35c0.119-0.169,0.219-0.325,0.219-0.356c0.006-0.025,0.119-0.2,0.256-0.388
		c0.131-0.188,0.344-0.5,0.469-0.688c0.125-0.188,0.244-0.356,0.269-0.375c0.019-0.019,0.131-0.169,0.25-0.344
		c0.244-0.35,1.35-1.776,1.594-2.051c0.081-0.1,0.25-0.294,0.363-0.438c0.45-0.55,1.181-1.369,1.825-2.032
		c1.106-1.138,4.138-2.713,6.989-3.632c4.369-1.407,9.658-1.794,15.053-1.1c6.764,0.863,14.015,3.557,19.341,7.183
		c1.219,0.831,1.35,0.925,1.35,0.975c0,0.025-0.063,0.088-0.138,0.144c-0.081,0.05-0.231,0.169-0.338,0.269
		c-0.1,0.1-0.394,0.363-0.65,0.588c-0.25,0.225-0.519,0.463-0.588,0.538c-1.613,1.588-1.519,1.525-2.613,1.713
		c-0.563,0.094-1.244,0.219-1.525,0.275c-0.5,0.106-0.5,0.106-1.532-0.419c-5.545-2.813-11.046-4.47-16.684-5.026
		c-1.331-0.131-4.588-0.144-5.938-0.031c-5.245,0.45-9.958,1.782-14.752,4.17c-0.569,0.281-1.263,0.644-1.544,0.8
		c-0.281,0.163-0.531,0.294-0.544,0.294c-0.019,0-0.181,0.094-0.363,0.206c-0.181,0.119-0.375,0.231-0.425,0.25
		c-0.05,0.025-0.169,0.094-0.263,0.156C49.771,68.906,49.821,68.887,50.008,68.562L50.008,68.562z"/>
	<path class="st2" d="M153.238,60.973c-0.081-0.113-0.194-0.244-0.244-0.306c-0.05-0.063-0.163-0.2-0.25-0.313
		c-0.088-0.113-0.2-0.25-0.25-0.313c-0.05-0.063-0.163-0.2-0.25-0.313c-0.088-0.113-0.2-0.25-0.25-0.313
		c-0.05-0.063-0.163-0.2-0.25-0.313c-0.088-0.113-0.2-0.25-0.25-0.313c-0.05-0.063-0.163-0.2-0.25-0.313
		c-0.088-0.113-0.206-0.263-0.263-0.331c-0.063-0.069-0.113-0.144-0.113-0.169c0-0.088,1.475-0.613,2.644-0.944
		c1.006-0.288,2.563-0.625,2.607-0.569c0.069,0.106,0.406,0.544,0.438,0.575c0.05,0.05,0.325,0.394,0.5,0.625
		c0.088,0.113,0.25,0.306,0.356,0.431c0.113,0.125,0.206,0.244,0.206,0.269c0,0.025,0.038,0.081,0.081,0.125
		c0.1,0.1,1.356,1.763,1.507,2.001c0.106,0.163,0.106,0.163-0.506,0.206c-1.607,0.1-3.207,0.238-4.176,0.35
		c-0.581,0.063-1.081,0.119-1.1,0.119C153.407,61.166,153.319,61.079,153.238,60.973L153.238,60.973z M155.157,60.735
		c0.256-0.156,0.463-0.588,0.463-0.963c0-0.538-0.419-0.788-1.113-0.663c-0.406,0.075-0.55,0.219-0.613,0.606
		c-0.05,0.331,0.131,0.706,0.463,0.969C154.62,60.885,154.882,60.904,155.157,60.735L155.157,60.735z"/>
	<path class="st2" d="M149.181,56.171c-0.375-0.388-1.707-1.638-2.394-2.251c-0.363-0.325-0.644-0.619-0.625-0.65
		c0.05-0.081,1.313-0.894,1.925-1.244c0.513-0.288,2.25-1.175,2.307-1.175c0.019,0,0.1,0.063,0.181,0.144
		c0.088,0.075,0.319,0.281,0.519,0.45c1.6,1.388,3.463,3.138,3.463,3.257c0,0.031-0.319,0.138-0.7,0.238
		c-0.856,0.213-2.85,0.875-3.701,1.219c-0.344,0.144-0.65,0.25-0.688,0.25C149.431,56.403,149.3,56.296,149.181,56.171
		L149.181,56.171z M150.431,55.415c0.588-0.3,0.581-1.038,0-1.369c-0.288-0.163-0.756-0.175-1-0.025
		c-0.531,0.313-0.475,1.225,0.094,1.457C149.75,55.571,150.181,55.546,150.431,55.415L150.431,55.415z"/>
	<path class="st2" d="M144.424,51.87c-0.056-0.063-0.306-0.288-0.563-0.494c-0.256-0.213-0.538-0.456-0.625-0.538
		c-0.088-0.081-0.244-0.219-0.35-0.3c-0.25-0.206-1.719-1.444-1.807-1.532c-0.038-0.031-0.144-0.119-0.238-0.188
		c-0.481-0.35-0.881-0.675-0.881-0.713c0-0.025,0.113-0.144,0.25-0.263c0.131-0.119,0.294-0.256,0.35-0.306
		c0.369-0.338,1.256-0.975,2.013-1.45c0.688-0.419,0.688-0.419,0.856-0.3c0.1,0.069,0.194,0.125,0.213,0.125
		c0.088,0,2.382,1.444,2.475,1.557c0.019,0.025,0.113,0.094,0.219,0.156c0.1,0.069,0.213,0.144,0.25,0.175
		c0.031,0.031,0.319,0.238,0.625,0.469c0.313,0.231,0.594,0.45,0.631,0.481c0.038,0.038,0.163,0.138,0.281,0.225
		c0.113,0.088,0.3,0.244,0.419,0.344c0.206,0.188,0.206,0.188-0.556,0.581c-0.419,0.219-1.075,0.588-1.456,0.813
		c-0.381,0.231-0.763,0.456-0.85,0.494c-0.088,0.044-0.256,0.169-0.375,0.269c-0.119,0.106-0.269,0.206-0.325,0.225
		c-0.063,0.019-0.113,0.056-0.113,0.081c0,0.038-0.269,0.194-0.331,0.194C144.524,51.976,144.474,51.926,144.424,51.87
		L144.424,51.87z M145.156,50.957c0.613-0.356,0.831-0.944,0.494-1.344c-0.25-0.294-0.919-0.419-1.281-0.231s-0.481,0.975-0.2,1.319
		C144.418,51.001,144.881,51.12,145.156,50.957L145.156,50.957z"/>
	<path class="st2" d="M138.098,46.85c-0.088-0.069-0.7-0.481-1.363-0.925c-1.056-0.694-1.557-1.013-2.45-1.538
		c-0.113-0.063-0.619-0.338-1.125-0.6l-0.925-0.481l0.388-0.338c0.206-0.188,0.444-0.394,0.519-0.463
		c0.075-0.069,0.306-0.263,0.506-0.438c0.2-0.169,0.406-0.356,0.463-0.406c0.45-0.419,0.3-0.438,1.607,0.144
		c1.6,0.713,3.013,1.4,4.401,2.132c0.638,0.338,1.169,0.625,1.188,0.644c0.019,0.019-0.025,0.069-0.094,0.113
		c-0.069,0.05-0.15,0.113-0.188,0.138c-0.031,0.031-0.244,0.181-0.469,0.331c-0.225,0.156-0.438,0.313-0.475,0.344
		c-0.038,0.038-0.138,0.106-0.213,0.156c-0.075,0.05-0.175,0.125-0.213,0.156c-0.038,0.038-0.369,0.306-0.731,0.606
		C138.254,46.969,138.254,46.969,138.098,46.85L138.098,46.85z M138.867,45.931c0.225-0.131,0.438-0.556,0.438-0.882
		c0-0.544-0.488-0.806-1.188-0.638c-0.363,0.088-0.494,0.238-0.544,0.619c-0.038,0.288,0.119,0.594,0.438,0.85
		C138.248,46.062,138.605,46.087,138.867,45.931z"/>
	<path class="st2" d="M120.67,42.774c-0.594-1.332-0.594-1.332-0.994-1.532c-0.894-0.444-4.151-1.388-6.232-1.807
		c-0.569-0.113-0.569-0.113-0.781-0.55c-0.113-0.238-0.213-0.456-0.225-0.481c-0.012-0.031,0.075-0.038,0.188-0.025
		c1.65,0.219,3.176,0.456,4.113,0.631c2.488,0.469,5.326,1.269,7.407,2.101c0.944,0.375,2.175,0.932,2.138,0.963
		c-0.006,0.013-1.044-0.163-2.294-0.375c-1.256-0.219-2.3-0.381-2.319-0.363c-0.019,0.025-0.106,0.656-0.188,1.407
		c-0.081,0.744-0.163,1.357-0.181,1.357C121.277,44.099,120.995,43.499,120.67,42.774L120.67,42.774z"/>
	<path class="st2" d="M130.141,42.261c-0.319-0.181-3.038-1.35-3.857-1.663c-0.613-0.231-0.613-0.231-0.388-0.475
		c0.131-0.138,0.319-0.344,0.425-0.463c0.806-0.932,0.7-0.9,1.75-0.588c0.975,0.288,4.138,1.319,4.276,1.394
		c0.05,0.025-0.225,0.331-0.75,0.825C130.334,42.499,130.434,42.43,130.141,42.261z M130.566,41.561
		c0.381-0.194,0.506-0.625,0.306-1.05c-0.269-0.55-1.038-0.638-1.519-0.175c-0.325,0.306-0.2,1.107,0.194,1.257
		C129.909,41.73,130.247,41.723,130.566,41.561z"/>
	<path class="st2" d="M123.308,39.61c-0.344-0.106-0.344-0.106-0.169-0.219c0.4-0.263,0.531-0.813,0.269-1.113
		c-0.169-0.194-0.594-0.369-0.906-0.369c-0.288,0-0.619,0.194-0.706,0.425c-0.063,0.163-0.044,0.563,0.038,0.775
		c0.031,0.081-0.081,0.063-0.644-0.094l-0.681-0.194l0.319-0.444c0.169-0.238,0.331-0.45,0.35-0.469
		c0.019-0.019,0.113-0.15,0.213-0.294c0.1-0.15,0.213-0.269,0.25-0.269c0.119,0,3.288,0.794,3.326,0.831
		c0.019,0.019-0.019,0.094-0.081,0.169c-0.063,0.075-0.156,0.188-0.206,0.25c-0.05,0.056-0.163,0.2-0.25,0.313
		c-0.088,0.113-0.2,0.25-0.25,0.313s-0.163,0.194-0.244,0.306C123.764,39.754,123.758,39.754,123.308,39.61L123.308,39.61z"/>
</g>
</svg>
