<?xml version="1.0" encoding="utf-8"?>
<!-- Generator: Adobe Illustrator 23.0.5, SVG Export Plug-In . SVG Version: 6.00 Build 0)  -->
<svg version="1.1" id="Layer_1" xmlns="http://www.w3.org/2000/svg" xmlns:xlink="http://www.w3.org/1999/xlink" x="0px" y="0px"
	 viewBox="0 0 200 200" style="enable-background:new 0 0 200 200;" xml:space="preserve">
<path d="M101.85,100.92h58.55l21.89-21.91h-80.44V60.05h72.24L198,35.98H69.39v0.04c-1.51,0.17-3.01,1.64-3.76,2.42
	c-7.27,15.35-17.79,38.79-17.79,38.79S22.8,80.47,5.81,82.09c-1.62,0-3.24,1.62-3.24,2.42c-0.82,1.62,0,3.24,0.8,4.04
	c12.93,11.31,31.52,29.1,31.52,29.1s-4.81,25.02-8.85,41.99c0,1.62,0,3.24,1.62,4.04c1.62,1.62,3.24,1.62,4.86,0.8
	c13.71-7.61,34.61-19.55,36.96-20.88H170.1l24.07-24.07h-92.3v-18.59H101.85z"/>
<g>
</g>
<g>
</g>
<g>
</g>
<g>
</g>
<g>
</g>
<g>
</g>
<g>
</g>
<g>
</g>
<g>
</g>
<g>
</g>
<g>
</g>
<g>
</g>
<g>
</g>
<g>
</g>
<g>
</g>
</svg>
