<?xml version="1.0" encoding="UTF-8"?>
<!-- Generator: visioncortex VTracer 0.6.3 -->
<svg version="1.1" xmlns="http://www.w3.org/2000/svg" width="200" height="200">
<path d="M0 0 C11.59 8.7 18.81 21.49 20.98 35.71 C22.44 46.62 23.09 57.35 20 68 C19.75 70.39 19.56 72.79 19.44 75.19 C19.05 82.51 19.05 82.51 18 86 C18.91 86.08 19.81 86.17 20.75 86.25 C24.54 87.13 25.5 88.09 28 91 C34.93 103.44 39.91 121.71 39 136 C37.48 138.75 37.48 138.75 36 141 C36.51 141.67 37.02 142.33 37.54 143.02 C46.08 154.46 58 172.12 58 187 C8.17 187 -41.66 187 -93 187 C-88.51 172.42 -88.51 172.42 -86 166.81 C-84.21 162.8 -82.57 158.83 -81.12 154.69 C-77.7 146.09 -71.04 140.25 -63 136 C-63.49 135.44 -63.98 134.88 -64.49 134.3 C-66.25 131.62 -66.31 130.42 -66.15 127.26 C-66.12 126.36 -66.1 125.46 -66.07 124.53 C-65.98 122.64 -65.89 120.76 -65.79 118.88 C-65.61 112.49 -66.49 109.33 -70 104 C-70.8 101.86 -71.54 99.69 -72.19 97.5 C-72.51 96.44 -72.83 95.38 -73.17 94.28 C-74.77 87.97 -75.19 81.85 -75.19 75.38 C-75.19 74.2 -75.19 74.2 -75.19 73.01 C-75.13 66.2 -74.32 59.69 -73 53 C-74.24 52.92 -75.47 52.84 -76.75 52.75 C-83.74 51.95 -91.9 50.34 -97.31 45.56 C-99 43 -99 43 -98.85 40.54 C-97.29 35.9 -93.16 34.18 -89 32 C-81.9 29 -74.64 28.38 -67 28 C-66.91 27.35 -66.83 26.69 -66.74 26.02 C-65.07 15.17 -61.87 4.43 -53 -2.58 C-36.16 -14.6 -16.71 -10.24 0 0 Z " fill="#858B9B" transform="translate(136,13)"/>
<path d="M0 0 C8.31 0.31 8.31 0.31 10.83 2.83 C11.16 3.63 11.48 4.43 11.81 5.25 C12.19 6.16 12.57 7.07 12.95 8.01 C13.3 9 13.64 9.98 14 11 C14.35 11.98 14.69 12.95 15.05 13.96 C17.08 20.16 18.69 26.48 20.25 32.81 C20.43 33.51 20.6 34.2 20.78 34.91 C22.17 40.76 23.29 46.43 20.5 52 C20 52.66 19.51 53.32 19 54 C19.51 54.67 20.02 55.33 20.54 56.02 C29.08 67.46 41 85.12 41 100 C-8.83 100 -58.66 100 -110 100 C-105.51 85.42 -105.51 85.42 -103 79.81 C-101.21 75.8 -99.57 71.83 -98.12 67.69 C-94.7 59.09 -88.04 53.25 -80 49 C-80.33 48.37 -80.65 47.73 -80.99 47.08 C-82.36 42.89 -82.21 39.06 -82.12 34.69 C-82.12 33.85 -82.11 33.02 -82.1 32.15 C-82.07 30.1 -82.04 28.05 -82 26 C-79.54 27.16 -77.77 28.2 -75.69 30 C-69.13 34.88 -61.54 34.34 -53.69 34.31 C-52.61 34.33 -51.53 34.34 -50.42 34.36 C-43.42 34.37 -37.57 33.39 -31 31 C-30.24 30.75 -29.47 30.49 -28.69 30.23 C-24.4 28.8 -21.51 26.91 -18 24 C-17.01 24 -16.02 24 -15 24 C-15 23.34 -15 22.68 -15 22 C-12.35 19.64 -10.38 18.13 -7 17 C-5.94 15.3 -5.94 15.3 -5.18 13.18 C-4.87 12.42 -4.56 11.66 -4.25 10.87 C-3.94 10.07 -3.63 9.26 -3.31 8.44 C-2.99 7.63 -2.67 6.82 -2.34 5.99 C-1.55 4 -0.77 2 0 0 Z " fill="#0A0D15" transform="translate(153,100)"/>
<path d="M0 0 C8.31 0.31 8.31 0.31 10.83 2.83 C11.16 3.63 11.48 4.43 11.81 5.25 C12.19 6.16 12.57 7.07 12.95 8.01 C13.3 9 13.64 9.98 14 11 C14.35 11.98 14.69 12.95 15.05 13.96 C17.08 20.16 18.69 26.48 20.25 32.81 C20.43 33.51 20.6 34.2 20.78 34.91 C22.17 40.76 23.29 46.43 20.5 52 C20 52.66 19.51 53.32 19 54 C19.51 54.67 20.02 55.33 20.54 56.02 C27.87 65.84 33.01 75.61 37.44 87 C37.8 87.93 38.17 88.87 38.55 89.83 C38.88 90.71 39.22 91.59 39.56 92.5 C39.86 93.29 40.16 94.09 40.47 94.91 C41 97 41 97 40 100 C39.67 98.68 39.34 97.36 39 96 C35.53 96.5 35.53 96.5 32 97 C32.32 95.45 32.32 95.45 32.65 93.87 C33.04 89.57 32.48 87.86 30.56 84.06 C30.01 82.95 29.45 81.85 28.88 80.7 C28.58 80.11 28.28 79.52 27.96 78.91 C26.93 76.85 25.96 74.77 24.99 72.67 C24.31 71.22 23.62 69.77 22.94 68.31 C22.62 67.62 22.31 66.92 21.98 66.21 C20.47 63.09 19.58 61.28 16.39 59.76 C15.21 59.38 15.21 59.38 14 59 C11.6 56.07 10.19 52.58 9 49 C10.65 49 12.3 49 14 49 C11.31 46.75 9.35 45.12 6 44 C5.94 43.24 5.88 42.48 5.82 41.7 C5.73 40.71 5.65 39.71 5.56 38.69 C5.44 37.21 5.44 37.21 5.32 35.7 C5.08 32.91 5.08 32.91 4 30 C3.48 30.36 2.96 30.72 2.42 31.09 C-3.84 35.04 -8.69 35.61 -16 35 C-16 35.66 -16 36.32 -16 37 C-18.1 37.81 -20.21 38.63 -22.31 39.44 C-23.48 39.89 -24.66 40.34 -25.86 40.81 C-27.89 41.58 -29.94 42.31 -32 43 C-32.33 43.99 -32.66 44.98 -33 46 C-36.08 46.29 -36.08 46.29 -39.15 46.59 C-40.07 46.79 -40.07 46.79 -41 47 C-41.5 47.99 -41.5 47.99 -42 49 C-42.74 48.94 -43.47 48.88 -44.23 48.81 C-47.55 49.04 -48.76 49.92 -51.31 52 C-52.01 52.56 -52.71 53.11 -53.43 53.69 C-53.95 54.12 -54.46 54.55 -55 55 C-55.15 54.07 -55.15 54.07 -55.31 53.12 C-55.88 50.63 -55.88 50.63 -59 49 C-61.97 48.5 -61.97 48.5 -65 48 C-65.66 65.16 -66.32 82.32 -67 100 C-81.19 100 -95.38 100 -110 100 C-105.51 85.42 -105.51 85.42 -103 79.81 C-101.21 75.8 -99.57 71.83 -98.12 67.69 C-94.7 59.09 -88.04 53.25 -80 49 C-80.33 48.37 -80.65 47.73 -80.99 47.08 C-82.36 42.89 -82.21 39.06 -82.12 34.69 C-82.12 33.85 -82.11 33.02 -82.1 32.15 C-82.07 30.1 -82.04 28.05 -82 26 C-79.54 27.16 -77.77 28.2 -75.69 30 C-69.13 34.88 -61.54 34.34 -53.69 34.31 C-52.61 34.33 -51.53 34.34 -50.42 34.36 C-43.42 34.37 -37.57 33.39 -31 31 C-30.24 30.75 -29.47 30.49 -28.69 30.23 C-24.4 28.8 -21.51 26.91 -18 24 C-17.01 24 -16.02 24 -15 24 C-15 23.34 -15 22.68 -15 22 C-12.35 19.64 -10.38 18.13 -7 17 C-5.94 15.3 -5.94 15.3 -5.18 13.18 C-4.87 12.42 -4.56 11.66 -4.25 10.87 C-3.94 10.07 -3.63 9.26 -3.31 8.44 C-2.99 7.63 -2.67 6.82 -2.34 5.99 C-1.55 4 -0.77 2 0 0 Z " fill="#151821" transform="translate(153,100)"/>
<path d="M0 0 C2.54 -0.34 4.77 -0.47 7.31 -0.44 C8.39 -0.43 8.39 -0.43 9.48 -0.42 C16.44 -0.21 22.54 1.42 29 4 C29.94 4.36 30.88 4.72 31.85 5.1 C37.99 7.77 41.35 10.82 44 17 C44.69 19.33 45.36 21.66 46 24 C46.47 24.43 46.94 24.86 47.42 25.31 C51.58 29.75 53.26 38.31 53.25 44.31 C53.17 45.2 53.08 46.09 53 47 C53.66 47 54.32 47 55 47 C56.4 51.19 56.01 55.28 55.87 59.64 C55.84 61.43 55.92 63.21 56 65 C56.66 65.66 57.32 66.32 58 67 C57.5 68.48 57.5 68.48 57 70 C57 69.34 57 68.68 57 68 C56.3 67.73 55.6 67.46 54.88 67.19 C52 66 52 66 49.31 64.5 C45.88 62.94 42.9 62.32 39.21 61.66 C35.06 60.81 30.98 59.72 26.88 58.62 C26.05 58.41 25.22 58.19 24.37 57.97 C20.55 56.96 16.74 55.93 12.95 54.82 C1.99 51.75 -8.66 51.19 -20 51 C-20 51.66 -20 52.32 -20 53 C-21.89 53.7 -23.79 54.39 -25.69 55.06 C-26.74 55.45 -27.8 55.83 -28.89 56.22 C-32.13 57.03 -33.85 57.05 -37 56 C-37.66 55.34 -38.32 54.68 -39 54 C-38.97 51.27 -38.44 48.7 -38 46 C-36.52 45.51 -36.52 45.51 -35 45 C-34.67 44.01 -34.34 43.02 -34 42 C-33.34 42 -32.68 42 -32 42 C-31.67 40.68 -31.34 39.36 -31 38 C-27.7 37.34 -24.4 36.68 -21 36 C-21.05 34.9 -21.05 34.9 -21.11 33.77 C-21.36 24.53 -21.36 24.53 -18 20 C-17.29 18.02 -16.61 16.02 -16 14 C-15.34 14 -14.68 14 -14 14 C-14 14.66 -14 15.32 -14 16 C-13.36 16.25 -12.72 16.5 -12.06 16.75 C-10 18 -10 18 -9.19 19.85 C-9 22 -9 22 -10.21 23.85 C-10.78 24.44 -11.35 25.02 -11.94 25.62 C-14.41 27.91 -14.41 27.91 -15 31 C-12.12 29.71 -10.13 28.34 -8 26 C-6.06 26.75 -6.06 26.75 -4 28 C-3.25 30.13 -3.25 30.13 -3 32 C-2.01 31.01 -1.02 30.02 0 29 C-1.32 26.36 -2.64 23.72 -4 21 C-2.88 19.83 -1.75 18.66 -0.62 17.5 C0 16.85 0.63 16.2 1.27 15.53 C3 14 3 14 5 14 C4.5 12.52 4.5 12.52 4 11 C-0.43 12.39 -2.87 14.61 -6 18 C-9 14.25 -9 14.25 -9 12 C-10.32 11.67 -11.64 11.34 -13 11 C-12.67 9.35 -12.34 7.7 -12 6 C-11.3 5.82 -10.6 5.64 -9.88 5.45 C-8.97 5.2 -8.06 4.95 -7.12 4.69 C-6.22 4.44 -5.32 4.2 -4.38 3.95 C-1.68 3.13 -1.68 3.13 0 0 Z " fill="#131721" transform="translate(97,5)"/>
<path d="M0 0 C-0.66 0.33 -1.32 0.66 -2 1 C-4.08 0.14 -6.11 -0.82 -8.12 -1.81 C-16.34 -5.67 -22.27 -7.15 -31.38 -7.31 C-32.09 -7.33 -32.81 -7.35 -33.54 -7.37 C-35.82 -7.4 -35.82 -7.4 -39 -7 C-39.66 -6.01 -40.32 -5.02 -41 -4 C-43.38 -3.27 -43.38 -3.27 -46.12 -2.81 C-47.49 -2.57 -47.49 -2.57 -48.88 -2.33 C-49.58 -2.22 -50.28 -2.11 -51 -2 C-51 -0.35 -51 1.3 -51 3 C-50.01 3.33 -49.02 3.66 -48 4 C-46.61 5.62 -45.27 7.29 -44 9 C-43.44 8.22 -42.89 7.43 -42.31 6.62 C-39.92 3.91 -38.4 3.04 -35 2 C-34.5 3.98 -34.5 3.98 -34 6 C-37.96 9.46 -37.96 9.46 -42 13 C-40.68 15.97 -39.36 18.94 -38 22 C-39.32 22.66 -40.64 23.32 -42 24 C-42.99 22.35 -43.98 20.7 -45 19 C-47.88 20.29 -49.87 21.66 -52 24 C-52.99 23.67 -53.98 23.34 -55 23 C-53.47 19.56 -51.4 16.88 -49 14 C-50.12 10.27 -50.12 10.27 -53 8 C-53 7.34 -53 6.68 -53 6 C-55.32 6.87 -55.32 6.87 -56 9.81 C-56.5 11.39 -56.5 11.39 -57 13 C-57.34 13.61 -57.68 14.21 -58.02 14.84 C-59.23 17.52 -59.42 19.83 -59.62 22.75 C-59.7 23.73 -59.77 24.72 -59.85 25.73 C-59.9 26.48 -59.95 27.23 -60 28 C-63.62 29.32 -66.1 30 -70 30 C-70.33 31.32 -70.66 32.64 -71 34 C-71.66 34 -72.32 34 -73 34 C-73.33 35.32 -73.66 36.64 -74 38 C-74.99 38 -75.98 38 -77 38 C-77.04 39.28 -77.08 40.56 -77.12 41.88 C-77.15 42.59 -77.17 43.31 -77.2 44.05 C-77.18 46.24 -77.18 46.24 -75 48 C-70.17 47.68 -66.45 46.91 -62 45 C-61.01 45 -60.02 45 -59 45 C-59 44.34 -59 43.68 -59 43 C-46.75 42.54 -35.88 42.8 -24.07 46.38 C-20.18 47.54 -16.24 48.54 -12.31 49.56 C-11.51 49.78 -10.71 49.99 -9.88 50.21 C-5.21 51.46 -0.55 52.53 4.19 53.5 C9.67 54.71 13.47 56.71 18 60 C17.67 60.66 17.34 61.32 17 62 C16.14 61.86 15.29 61.72 14.4 61.57 C7.96 60.44 7.96 60.44 2 62.27 C0.96 63.38 -0.08 64.5 -1.12 65.62 C-5.05 68.5 -10.38 67.5 -15 67 C-16.67 66.69 -18.34 66.37 -20 66 C-20 65.34 -20 64.68 -20 64 C-21.98 63.34 -23.96 62.68 -26 62 C-26 61.34 -26 60.68 -26 60 C-26.66 60 -27.32 60 -28 60 C-27.83 61.01 -27.67 62.02 -27.5 63.06 C-26.3 72.52 -26.3 72.52 -28.62 77.44 C-31 80 -31 80 -34 80.69 C-37 80 -37 80 -39.19 77.92 C-41.51 74.18 -41.21 71.91 -41 67.56 C-41 64.77 -41.32 62.78 -42 60 C-46.58 55.96 -52.12 54.34 -58 53 C-58.33 53.99 -58.66 54.98 -59 56 C-62.56 57.19 -62.56 57.19 -66 58 C-66 56.68 -66 55.36 -66 54 C-67.65 54 -69.3 54 -71 54 C-71 53.34 -71 52.68 -71 52 C-72.16 51.92 -73.31 51.84 -74.5 51.75 C-79.2 51.22 -83.77 50.26 -88.38 49.19 C-89.08 49.03 -89.78 48.88 -90.5 48.72 C-93.53 47.98 -95.7 47.27 -98.04 45.18 C-99.32 42.28 -99.12 40.94 -98 38 C-89.7 29.79 -78.07 28.55 -67 28 C-66.91 27.35 -66.83 26.69 -66.74 26.02 C-65.07 15.17 -61.87 4.43 -53 -2.58 C-35.74 -14.9 -17.2 -9.67 0 0 Z " fill="#535A68" transform="translate(136,13)"/>
<path d="M0 0 C3 1 3 1 5 3 C5.99 2.67 6.98 2.34 8 2 C9.6 5.51 10.22 8.14 10 12 C14.9 10.12 14.9 10.12 19 7 C21.06 7.19 21.06 7.19 23 8 C23.5 9.48 23.5 9.48 24 11 C26.31 11 28.62 11 31 11 C31 10.01 31 9.02 31 8 C31.99 8.5 31.99 8.5 33 9 C32.32 10.97 31.6 12.92 30.88 14.88 C30.48 15.97 30.09 17.06 29.68 18.18 C27.55 21.75 25.89 21.91 22 23 C21.5 24.48 21.5 24.48 21 26 C20.34 26 19.68 26 19 26 C19 26.66 19 27.32 19 28 C17.24 28.98 15.48 29.95 13.73 30.93 C11.84 32.01 11.84 32.01 10 34 C8.12 34.78 8.12 34.78 5.88 35.5 C5.15 35.74 4.43 35.97 3.68 36.22 C2.8 36.48 1.91 36.73 1 37 C-0.16 37.35 -1.33 37.71 -2.53 38.07 C-8.11 39.44 -13.72 39.33 -19.44 39.31 C-20.52 39.33 -21.6 39.34 -22.71 39.36 C-29.2 39.37 -35.11 38.93 -41 36 C-43.06 33.81 -43.06 33.81 -44 32 C-42.94 30.56 -42.94 30.56 -41 29 C-39.93 28.91 -38.86 28.81 -37.76 28.71 C-33.34 27.88 -31.08 26 -27.94 23 C-24.15 19.42 -21.37 17.38 -16 17 C-15.67 16.01 -15.34 15.02 -15 14 C-14.34 14 -13.68 14 -13 14 C-13 13.01 -13 12.02 -13 11 C-14.11 11.33 -15.23 11.65 -16.38 11.99 C-21.28 13.22 -25.97 13.23 -31 13.12 C-31.87 13.12 -32.74 13.11 -33.64 13.1 C-35.76 13.07 -37.88 13.04 -40 13 C-40 12.67 -40 12.34 -40 12 C-38.42 11.93 -38.42 11.93 -36.82 11.85 C-27.52 11.37 -18.64 10.9 -10 7 C-10.33 7.99 -10.66 8.98 -11 10 C-6.65 9.5 -4.08 6.94 -1 4 C-0.06 1.83 -0.06 1.83 0 0 Z " fill="#697486" transform="translate(119,96)"/>
<path d="M0 0 C9.44 4.89 15.78 15.78 19.11 25.56 C22.55 38.82 23.82 53.82 20 67 C19.75 69.39 19.56 71.79 19.44 74.19 C19.05 81.51 19.05 81.51 18 85 C20.97 85.5 20.97 85.5 24 86 C20.87 87.04 20.01 86.93 17 86 C16.5 87.98 16.5 87.98 16 90 C15.34 90 14.68 90 14 90 C14 90.99 14 91.98 14 93 C10.53 93.5 10.53 93.5 7 94 C6.67 92.68 6.34 91.36 6 90 C2 90.57 -0.59 91.9 -4 94 C-6.31 94.69 -6.31 94.69 -8 95 C-7.96 93.91 -7.92 92.81 -7.88 91.69 C-7.68 87.91 -7.68 87.91 -10 85 C-11.98 85.5 -11.98 85.5 -14 86 C-17 81.25 -17 81.25 -17 79 C-17.66 79 -18.32 79 -19 79 C-20.24 76.03 -21.3 73.15 -22 70 C-22.66 70 -23.32 70 -24 70 C-24.33 68.68 -24.66 67.36 -25 66 C-25.99 66 -26.98 66 -28 66 C-28 63.69 -28 61.38 -28 59 C-27.34 59 -26.68 59 -26 59 C-25.67 59.66 -25.34 60.32 -25 61 C-23.36 61.72 -21.69 62.39 -20 63 C-20 63.66 -20 64.32 -20 65 C-10.03 66.13 -10.03 66.13 -0.77 63.63 C0.23 62.52 1.21 61.4 2.18 60.27 C5.74 57.78 10.1 58.98 14.21 59.47 C17 60 17 60 19 61 C18.51 60.37 18.02 59.73 17.51 59.08 C15.44 54.86 15.67 51.31 15.81 46.69 C15.83 45.43 15.83 45.43 15.85 44.15 C15.89 42.1 15.94 40.05 16 38 C15.34 38 14.68 38 14 38 C13.8 37 13.59 36 13.38 34.97 C13.11 33.68 12.84 32.39 12.56 31.06 C12.3 29.77 12.03 28.49 11.75 27.16 C11.33 24.15 11.33 24.15 10 23 C9.96 21.33 9.96 19.67 10 18 C9.01 17.67 8.02 17.34 7 17 C5.19 14.29 4.67 13.09 4.06 10.06 C3.3 6.72 2.24 4.65 0 2 C0 1.34 0 0.68 0 0 Z " fill="#728094" transform="translate(136,14)"/>
<path d="M0 0 C2.54 -0.34 4.77 -0.47 7.31 -0.44 C8.39 -0.43 8.39 -0.43 9.48 -0.42 C16.44 -0.21 22.54 1.42 29 4 C30.41 4.54 30.41 4.54 31.85 5.1 C37.99 7.77 41.35 10.82 44 17 C44.69 19.33 45.36 21.66 46 24 C46.47 24.43 46.94 24.86 47.42 25.31 C51.58 29.75 53.26 38.31 53.25 44.31 C53.17 45.2 53.08 46.09 53 47 C53.66 47 54.32 47 55 47 C56.4 51.19 56.01 55.28 55.87 59.64 C55.84 61.43 55.92 63.21 56 65 C56.66 65.66 57.32 66.32 58 67 C57.5 68.48 57.5 68.48 57 70 C57 69.34 57 68.68 57 68 C55.35 67.34 53.7 66.68 52 66 C52 64.33 52 62.67 52 61 C50.68 61 49.36 61 48 61 C47.01 58.69 46.02 56.38 45 54 C45.33 53.67 45.66 53.34 46 53 C46.41 46.3 45.96 39.64 45 33 C44.67 32.67 44.34 32.34 44 32 C43.25 28.38 42.58 24.76 41.91 21.12 C41.61 20.09 41.31 19.06 41 18 C40.01 17.67 39.02 17.34 38 17 C37.44 16.38 36.89 15.76 36.31 15.12 C33.15 12.21 30.07 11.36 26 10 C26 9.34 26 8.68 26 8 C20.35 6.83 14.72 5.75 9 5 C8.92 6.24 8.84 7.47 8.75 8.75 C8.55 11.77 8.29 12.72 6.06 14.88 C3.47 17.55 3.03 19.64 2.25 23.25 C2.01 24.33 1.77 25.41 1.52 26.52 C1.35 27.34 1.18 28.16 1 29 C-1.25 26.31 -2.88 24.35 -4 21 C-2.88 19.83 -1.75 18.66 -0.62 17.5 C0 16.85 0.63 16.2 1.27 15.53 C3 14 3 14 5 14 C4.67 13.01 4.34 12.02 4 11 C-0.43 12.39 -2.87 14.61 -6 18 C-9 14.25 -9 14.25 -9 12 C-10.32 11.67 -11.64 11.34 -13 11 C-12.67 9.35 -12.34 7.7 -12 6 C-11.3 5.82 -10.6 5.64 -9.88 5.45 C-8.97 5.2 -8.06 4.95 -7.12 4.69 C-6.22 4.44 -5.32 4.2 -4.38 3.95 C-1.68 3.13 -1.68 3.13 0 0 Z " fill="#252732" transform="translate(97,5)"/>
<path d="M0 0 C0.99 0.5 0.99 0.5 2 1 C0.86 3.8 -0.33 6.47 -2 9 C-4.75 10 -4.75 10 -7 10 C-7.33 10.99 -7.66 11.98 -8 13 C-8.66 13 -9.32 13 -10 13 C-10 13.66 -10 14.32 -10 15 C-11.76 15.98 -13.52 16.95 -15.27 17.93 C-17.16 19.01 -17.16 19.01 -19 21 C-20.88 21.78 -20.88 21.78 -23.12 22.5 C-23.85 22.74 -24.57 22.97 -25.32 23.22 C-26.2 23.48 -27.09 23.73 -28 24 C-29.16 24.35 -30.33 24.71 -31.53 25.07 C-37.11 26.44 -42.72 26.33 -48.44 26.31 C-49.52 26.33 -50.6 26.34 -51.71 26.36 C-58.14 26.37 -64.19 26.01 -70 23 C-70.33 22.34 -70.66 21.68 -71 21 C-69.72 20.91 -68.44 20.83 -67.12 20.74 C-50.51 20.01 -50.51 20.01 -36 13 C-34.33 12.96 -32.67 12.96 -31 13 C-31 12.34 -31 11.68 -31 11 C-28.58 10.35 -26.17 9.71 -23.75 9.06 C-23.07 8.88 -22.39 8.7 -21.68 8.51 C-19.79 8 -17.89 7.5 -16 7 C-15.27 6.79 -14.54 6.59 -13.78 6.38 C-11.73 5.94 -9.85 5.9 -7.75 5.94 C-5.89 5.97 -5.89 5.97 -4 6 C-3.71 5.38 -3.42 4.76 -3.12 4.12 C-2 2 -2 2 0 0 Z " fill="#4F5A6B" transform="translate(148,109)"/>
<path d="M0 0 C5.57 0.24 10.21 1.79 14.97 4.72 C18.52 8.7 17.92 13.38 17.74 18.44 C18.05 22.66 19.04 24.06 22 27 C22.99 27.66 23.98 28.32 25 29 C24.34 29 23.68 29 23 29 C22.98 29.68 22.96 30.36 22.94 31.06 C21.53 35.47 18.68 38.26 15 41 C12.06 41.44 12.06 41.44 10 41 C10.33 40.23 10.65 39.47 10.99 38.68 C12.34 33.77 12.21 29.19 12.12 24.12 C12.12 23.15 12.11 22.18 12.1 21.17 C12.07 18.78 12.04 16.39 12 14 C11.01 14.66 10.02 15.32 9 16 C8.88 14.86 8.88 14.86 8.75 13.69 C7.85 10.48 6.78 9.71 4 8 C4.33 10.64 4.66 13.28 5 16 C3 14 1 12 -1 10 C-0.67 10.99 -0.34 11.98 0 13 C0.12 14.64 0.18 16.29 0.19 17.94 C0.2 18.79 0.22 19.65 0.23 20.53 C-0.01 23.14 -0.68 24.76 -2 27 C-4.38 26.31 -4.38 26.31 -7 25 C-9.53 20.08 -9.78 14.79 -10.44 9.38 C-10.95 6.3 -11.72 3.83 -13 1 C-11.35 1 -9.7 1 -8 1 C-7.67 1.99 -7.34 2.98 -7 4 C-4.98 3.4 -2.98 2.73 -1 2 C-0.67 1.34 -0.34 0.68 0 0 Z " fill="#959BA9" transform="translate(78,66)"/>
<path d="M0 0 C-0.66 0.33 -1.32 0.66 -2 1 C-4.08 0.14 -6.11 -0.82 -8.12 -1.81 C-16.34 -5.67 -22.27 -7.15 -31.38 -7.31 C-32.45 -7.34 -32.45 -7.34 -33.54 -7.37 C-35.82 -7.4 -35.82 -7.4 -39 -7 C-39.66 -6.01 -40.32 -5.02 -41 -4 C-43.38 -3.27 -43.38 -3.27 -46.12 -2.81 C-47.49 -2.57 -47.49 -2.57 -48.88 -2.33 C-49.58 -2.22 -50.28 -2.11 -51 -2 C-51 -0.35 -51 1.3 -51 3 C-50.01 3.33 -49.02 3.66 -48 4 C-46.61 5.62 -45.27 7.29 -44 9 C-43.44 8.22 -42.89 7.43 -42.31 6.62 C-39.92 3.91 -38.4 3.04 -35 2 C-34.5 3.98 -34.5 3.98 -34 6 C-37.96 9.46 -37.96 9.46 -42 13 C-40.68 15.97 -39.36 18.94 -38 22 C-39.32 22.66 -40.64 23.32 -42 24 C-42.99 22.35 -43.98 20.7 -45 19 C-47.88 20.29 -49.87 21.66 -52 24 C-52.99 23.67 -53.98 23.34 -55 23 C-53.47 19.56 -51.4 16.88 -49 14 C-50.12 10.27 -50.12 10.27 -53 8 C-53 7.34 -53 6.68 -53 6 C-55.32 6.87 -55.32 6.87 -56 9.81 C-56.5 11.39 -56.5 11.39 -57 13 C-57.34 13.61 -57.68 14.21 -58.02 14.84 C-59.23 17.52 -59.42 19.83 -59.62 22.75 C-59.7 23.73 -59.77 24.72 -59.85 25.73 C-59.9 26.48 -59.95 27.23 -60 28 C-64.61 29.74 -69.01 30.43 -73.88 30.88 C-80.08 31.52 -84.57 32.97 -90 36 C-92.2 35.61 -92.2 35.61 -94 35 C-85.88 30.29 -76.45 27.64 -67 28 C-66.91 27.35 -66.83 26.69 -66.74 26.02 C-65.07 15.17 -61.87 4.43 -53 -2.58 C-35.74 -14.9 -17.2 -9.67 0 0 Z " fill="#72737B" transform="translate(136,13)"/>
<path d="M0 0 C2 0.32 4 0.66 6 1 C6.67 1.11 7.35 1.23 8.04 1.34 C10.26 1.74 12.47 2.18 14.69 2.62 C15.83 2.82 15.83 2.82 16.99 3.01 C19.19 3.47 21 3.96 23 5 C26.42 10.5 26.94 16.71 27.82 23.04 C28.46 27.29 28.46 27.29 30.46 31.04 C32.01 32.24 32.01 32.24 34.19 31.69 C34.79 31.46 35.38 31.23 36 31 C35.84 31.93 35.67 32.86 35.5 33.81 C34.92 36.96 34.92 36.96 35 40 C34.79 40.68 34.59 41.36 34.38 42.06 C34.19 43.02 34.19 43.02 34 44 C34.66 44.66 35.32 45.32 36 46 C33.03 45.5 33.03 45.5 30 45 C30 45.66 30 46.32 30 47 C29.34 47 28.68 47 28 47 C28.14 49.08 28.29 51.17 28.44 53.25 C28.52 54.41 28.6 55.57 28.68 56.77 C28.93 59.31 29.28 61.56 30 64 C27 63 27 63 25 59.62 C20.37 49.75 18.8 39.19 18.81 28.38 C18.81 27.2 18.81 27.2 18.81 26.01 C18.87 19.2 19.68 12.69 21 6 C19.76 5.92 18.52 5.83 17.25 5.75 C11.21 5.1 5.68 3.07 0 1 C0 0.67 0 0.34 0 0 Z " fill="#BCBEC7" transform="translate(42,60)"/>
<path d="M0 0 C3 1 3 1 4.43 3.49 C10.26 17.14 15.95 32.97 15 48 C13.48 50.75 13.48 50.75 12 53 C12.51 53.67 13.02 54.33 13.54 55.02 C20.87 64.84 26.01 74.61 30.44 86 C30.8 86.93 31.17 87.87 31.55 88.83 C31.88 89.71 32.22 90.59 32.56 91.5 C32.86 92.29 33.16 93.09 33.47 93.91 C34 96 34 96 33 99 C32.67 97.68 32.34 96.36 32 95 C28.53 95.5 28.53 95.5 25 96 C25.22 94.97 25.43 93.93 25.65 92.87 C26.04 88.57 25.48 86.86 23.56 83.06 C22.73 81.4 22.73 81.4 21.88 79.7 C21.58 79.11 21.28 78.52 20.96 77.91 C19.93 75.85 18.96 73.77 17.99 71.67 C17.31 70.22 16.62 68.77 15.94 67.31 C15.62 66.62 15.31 65.92 14.98 65.21 C13.03 61.16 13.03 61.16 9.34 58.8 C8.57 58.54 7.79 58.27 7 58 C5.75 55.37 5.52 52.9 5 50 C5.78 50.21 6.57 50.41 7.38 50.62 C8.24 50.75 9.11 50.87 10 51 C12.23 49.23 12.23 49.23 12.05 46.94 C11.95 46.16 11.85 45.37 11.75 44.56 C11.66 43.78 11.57 43 11.48 42.19 C11.08 39.72 11.08 39.72 9 37 C8.63 35.41 8.32 33.8 8.06 32.19 C7.29 28.03 6.24 24.64 4 21 C3.34 20.67 2.68 20.34 2 20 C1.59 18.05 1.59 18.05 1.37 15.53 C1.28 14.63 1.2 13.73 1.11 12.8 C1.03 11.86 0.96 10.91 0.88 9.94 C0.79 8.99 0.7 8.04 0.61 7.06 C0.4 4.71 0.2 2.35 0 0 Z " fill="#282D36" transform="translate(160,101)"/>
<path d="M0 0 C0.66 0 1.32 0 2 0 C3.72 3.98 5.41 7.96 7 12 C6.34 12 5.68 12 5 12 C4.96 12.83 4.93 13.67 4.89 14.53 C4.82 15.65 4.76 16.78 4.69 17.94 C4.6 19.59 4.6 19.59 4.51 21.28 C4.1 24.29 3.55 26.44 2.52 29.24 C0.66 34.52 0.3 39.69 -0.06 45.25 C-0.22 47.28 -0.38 49.32 -0.54 51.35 C-0.62 52.32 -0.7 53.29 -0.77 54.29 C-1.06 57.77 -1.42 61.22 -1.88 64.69 C-2 65.64 -2.12 66.59 -2.24 67.57 C-3.18 70.57 -4.65 71.97 -7 74 C-7.3 68.35 -6.77 63.47 -5.56 57.94 C-3.85 49.97 -3.31 42.13 -3 34 C-3.33 34.66 -3.66 35.32 -4 36 C-4.66 36 -5.32 36 -6 36 C-6.99 39.3 -7.98 42.6 -9 46 C-9.66 44.68 -10.32 43.36 -11 42 C-11.66 42.99 -12.32 43.98 -13 45 C-13.66 45 -14.32 45 -15 45 C-15 45.99 -15 46.98 -15 48 C-15.66 48 -16.32 48 -17 48 C-17.33 51.63 -17.66 55.26 -18 59 C-18.66 59 -19.32 59 -20 59 C-20 61.97 -20 64.94 -20 68 C-20.66 67.67 -21.32 67.34 -22 67 C-22.66 67.99 -23.32 68.98 -24 70 C-24.66 70 -25.32 70 -26 70 C-26 71.32 -26 72.64 -26 74 C-26.66 73.67 -27.32 73.34 -28 73 C-26.41 68.31 -24.72 63.65 -23 59 C-22.67 58.12 -22.35 57.23 -22.01 56.32 C-16.64 42.01 -12.1 30.46 2 23 C1.67 22.37 1.35 21.73 1.01 21.08 C-0.36 16.89 -0.21 13.06 -0.12 8.69 C-0.12 7.85 -0.11 7.02 -0.1 6.15 C-0.07 4.1 -0.04 2.05 0 0 Z " fill="#22232D" transform="translate(71,126)"/>
<path d="M0 0 C0.99 0.33 1.98 0.66 3 1 C0.31 4.69 -1.98 6.86 -6 9 C-6.57 9.37 -7.14 9.74 -7.72 10.12 C-21.27 18.52 -35.48 19.77 -51 19 C-50.67 19.66 -50.34 20.32 -50 21 C-45.27 22.1 -40.45 22.3 -35.62 22.56 C-34.52 22.63 -34.52 22.63 -33.39 22.69 C-31.6 22.8 -29.8 22.9 -28 23 C-29.38 25 -29.38 25 -31 27 C-31.66 27 -32.32 27 -33 27 C-33 28.32 -33 29.64 -33 31 C-33.68 31.06 -34.36 31.12 -35.06 31.19 C-39.03 32.29 -41.79 34.49 -45 37 C-45.1 36.38 -45.21 35.76 -45.31 35.12 C-45.88 32.63 -45.88 32.63 -49 31 C-50.98 30.67 -52.96 30.34 -55 30 C-55.66 46.5 -56.32 63 -57 80 C-57.33 80 -57.66 80 -58 80 C-58.16 62.64 -57.73 45.34 -57 28 C-55.35 28 -53.7 28 -52 28 C-52.33 27.67 -52.66 27.34 -53 27 C-53.14 24.33 -53.04 21.68 -53 19 C-53.78 18.88 -54.57 18.75 -55.38 18.62 C-58 18 -58 18 -60 16 C-59.17 16.02 -58.35 16.03 -57.5 16.05 C-54.38 16.1 -51.27 16.14 -48.16 16.16 C-46.17 16.19 -44.18 16.23 -42.19 16.26 C-34.54 16.32 -28.15 15.72 -21 13 C-19.56 12.52 -18.13 12.04 -16.69 11.56 C-13.26 10.26 -10.82 8.34 -8 6 C-7.01 6 -6.02 6 -5 6 C-5 5.34 -5 4.68 -5 4 C-2.69 1.81 -2.69 1.81 0 0 Z " fill="#262B36" transform="translate(143,118)"/>
<path d="M0 0 C5.78 3.45 5.78 3.45 6.88 6.25 C6.94 7.12 6.94 7.12 7 8 C7.99 7.01 8.98 6.02 10 5 C10.09 8.71 10.14 12.42 10.19 16.12 C10.21 17.17 10.24 18.22 10.26 19.3 C10.32 25.05 10.21 29.14 7 34 C3.04 34 -0.92 34 -5 34 C-6.65 27.41 -6.65 27.41 -5.01 23.83 C-3.56 19.77 -3.79 15.96 -3.88 11.69 C-3.88 10.85 -3.89 10.02 -3.9 9.15 C-3.93 7.1 -3.96 5.05 -4 3 C-1 4 -1 4 0 5 C0 3.35 0 1.7 0 0 Z " fill="#A4A9B7" transform="translate(81,73)"/>
<path d="M0 0 C0.66 0 1.32 0 2 0 C2 0.66 2 1.32 2 2 C2.64 2.25 3.28 2.5 3.94 2.75 C6 4 6 4 6.81 5.85 C7 8 7 8 5.79 9.85 C5.22 10.44 4.65 11.02 4.06 11.62 C1.59 13.91 1.59 13.91 1 17 C3.88 15.71 5.87 14.34 8 12 C9.94 12.75 9.94 12.75 12 14 C12.75 16.12 12.75 16.12 13 18 C14.32 17.34 15.64 16.68 17 16 C18 17 18 17 18.06 20.06 C18.04 21.03 18.02 22 18 23 C19.15 23.41 20.3 23.83 21.48 24.25 C31.42 27.91 40.23 32.03 49 38 C48.01 38.49 48.01 38.49 47 39 C45.24 38.35 45.24 38.35 43.11 37.27 C42.32 36.88 41.54 36.49 40.73 36.09 C39.47 35.46 39.47 35.46 38.19 34.81 C25.17 28.45 13.14 25.07 -1.38 24.44 C-2.77 24.37 -2.77 24.37 -4.18 24.31 C-6.46 24.2 -8.73 24.1 -11 24 C-8 22 -8 22 -5 22 C-5.03 21.26 -5.07 20.53 -5.11 19.77 C-5.36 10.53 -5.36 10.53 -2 6 C-1.29 4.02 -0.61 2.02 0 0 Z " fill="#252934" transform="translate(81,19)"/>
<path d="M0 0 C-0.33 1.32 -0.66 2.64 -1 4 C-1.66 4 -2.32 4 -3 4 C-3.33 5.32 -3.66 6.64 -4 8 C-4.99 8 -5.98 8 -7 8 C-7.04 9.28 -7.08 10.56 -7.12 11.88 C-7.15 12.59 -7.17 13.31 -7.2 14.05 C-7.18 16.24 -7.18 16.24 -5 18 C-3.68 18.7 -2.35 19.37 -1 20 C-1.33 20.66 -1.66 21.32 -2 22 C-8.23 21.06 -14.42 20 -20.56 18.62 C-21.53 18.41 -22.5 18.2 -23.5 17.98 C-26.45 16.82 -27.47 15.75 -29 13 C-28.76 9.63 -28.41 8.41 -26 6 C-24.4 5.52 -22.8 5.06 -21.19 4.64 C-18.58 3.88 -16.09 2.87 -13.56 1.88 C-8.76 0.08 -5.09 -0.38 0 0 Z " fill="#23232A" transform="translate(66,43)"/>
<path d="M0 0 C-3.83 1.28 -6.43 0.33 -10.19 -0.69 C-10.9 -0.87 -11.61 -1.05 -12.34 -1.24 C-15.87 -2.15 -19.38 -3.1 -22.88 -4.12 C-33.89 -7.19 -44.6 -7.81 -56 -8 C-56 -7.34 -56 -6.68 -56 -6 C-57.24 -5.47 -58.5 -4.95 -59.75 -4.44 C-60.45 -4.15 -61.14 -3.86 -61.86 -3.56 C-64.3 -2.92 -65.64 -3.2 -68 -4 C-67.01 -6.53 -66.36 -7.78 -64.01 -9.23 C-63.24 -9.55 -62.48 -9.86 -61.69 -10.19 C-60.93 -10.51 -60.17 -10.83 -59.39 -11.17 C-39.67 -18.04 -17.08 -9.91 0 0 Z " fill="#242932" transform="translate(133,64)"/>
<path d="M0 0 C4.31 2.23 7.08 5.08 10 8.88 C10.82 9.9 11.65 10.93 12.5 11.99 C19.99 23.14 20.68 33.89 20.31 46.81 C20.29 48.39 20.26 49.97 20.24 51.55 C20.19 55.37 20.1 59.18 20 63 C17.81 60.81 17.62 59.92 17 57 C16.67 56.01 16.34 55.02 16 54 C15.93 51.26 15.91 48.55 15.94 45.81 C15.94 45.06 15.95 44.31 15.95 43.54 C15.96 41.69 15.98 39.85 16 38 C15.34 38 14.68 38 14 38 C13.8 37 13.59 36 13.38 34.97 C13.11 33.68 12.84 32.39 12.56 31.06 C12.16 29.13 12.16 29.13 11.75 27.16 C11.33 24.15 11.33 24.15 10 23 C9.96 21.33 9.96 19.67 10 18 C9.01 17.67 8.02 17.34 7 17 C5.19 14.29 4.67 13.09 4.06 10.06 C3.3 6.72 2.24 4.65 0 2 C0 1.34 0 0.68 0 0 Z " fill="#393D48" transform="translate(136,14)"/>
<path d="M0 0 C1.65 0 3.3 0 5 0 C5.33 0.99 5.66 1.98 6 3 C7.05 2.87 7.05 2.87 8.12 2.75 C9.03 2.64 9.94 2.54 10.88 2.44 C11.78 2.33 12.68 2.23 13.62 2.12 C16 2 16 2 18 3 C18.33 3.99 18.66 4.98 19 6 C19.99 6.33 20.98 6.66 22 7 C23.75 8.31 23.75 8.31 25 10 C24.81 12.12 24.81 12.12 24 14 C23.01 14.5 23.01 14.5 22 15 C21.88 13.86 21.88 13.86 21.75 12.69 C20.85 9.48 19.78 8.71 17 7 C17.33 9.64 17.66 12.28 18 15 C16 13 14 11 12 9 C12.33 9.99 12.66 10.98 13 12 C13.12 13.64 13.18 15.29 13.19 16.94 C13.2 17.79 13.22 18.65 13.23 19.53 C12.99 22.14 12.32 23.76 11 26 C8.62 25.31 8.62 25.31 6 24 C3.47 19.08 3.22 13.79 2.56 8.38 C2.05 5.3 1.28 2.83 0 0 Z " fill="#A1A4B0" transform="translate(65,67)"/>
<path d="M0 0 C-4.07 4.86 -7.95 6.41 -14 8 C-15.16 8.35 -16.32 8.7 -17.52 9.06 C-23.1 10.44 -28.71 10.33 -34.44 10.31 C-35.52 10.33 -36.6 10.34 -37.71 10.36 C-44.46 10.37 -49.72 9.5 -56 7 C-53.23 6.21 -50.86 5.9 -47.99 6.01 C-39.63 6.22 -32.82 6.2 -25 3 C-16.55 0.33 -8.84 -0.39 0 0 Z " fill="#3E4656" transform="translate(134,125)"/>
<path d="M0 0 C0.33 0 0.66 0 1 0 C2.43 10.82 3.09 21.47 0 32 C-0.25 34.39 -0.44 36.79 -0.56 39.19 C-0.95 46.51 -0.95 46.51 -2 50 C-0.02 50.33 1.96 50.66 4 51 C0.53 52.16 -2.36 52.07 -6 52 C-6 51.34 -6 50.68 -6 50 C-6.66 50 -7.32 50 -8 50 C-8 42.08 -8 34.16 -8 26 C-6.02 26 -4.04 26 -2 26 C-1.67 26.33 -1.34 26.66 -1 27 C-0.67 18.09 -0.34 9.18 0 0 Z " fill="#A1ACBC" transform="translate(156,49)"/>
<path d="M0 0 C3 1 3 1 4.43 3.49 C10.14 16.87 16.4 33.26 15 48 C12.5 51 12.5 51 10 53 C10.34 52.43 10.67 51.87 11.02 51.29 C12.14 48.67 12.11 47.24 11.75 44.44 C11.62 43.29 11.62 43.29 11.48 42.12 C11.07 39.72 11.07 39.72 9 37 C8.63 35.41 8.32 33.8 8.06 32.19 C7.29 28.03 6.24 24.64 4 21 C3.34 20.67 2.68 20.34 2 20 C1.59 18.05 1.59 18.05 1.37 15.53 C1.28 14.63 1.2 13.73 1.11 12.8 C1.03 11.86 0.96 10.91 0.88 9.94 C0.79 8.99 0.7 8.04 0.61 7.06 C0.4 4.71 0.2 2.35 0 0 Z " fill="#5B5D66" transform="translate(160,101)"/>
<path d="M0 0 C-0.13 8.05 -2.39 12.28 -8 18 C-12.81 22.35 -17.84 26.75 -24 29 C-24.99 28.67 -25.98 28.34 -27 28 C-26.36 27.49 -25.72 26.98 -25.06 26.45 C-17.1 19.77 -12.16 12.38 -8.19 2.81 C-6.24 -1.8 -4.42 -1.05 0 0 Z " fill="#05080F" transform="translate(158,106)"/>
<path d="M0 0 C0.9 0.02 1.81 0.05 2.74 0.07 C4.11 0.1 4.11 0.1 5.5 0.12 C6.2 0.15 6.9 0.17 7.62 0.2 C7.62 0.53 7.62 0.86 7.62 1.2 C5.97 1.2 4.32 1.2 2.62 1.2 C2.62 9.12 2.62 17.04 2.62 25.2 C3.28 25.2 3.94 25.2 4.62 25.2 C4.62 25.86 4.62 26.52 4.62 27.2 C5.61 27.53 6.6 27.86 7.62 28.2 C6.43 29.76 6.43 29.76 4.62 31.2 C2.12 31.2 2.12 31.2 -0.38 30.2 C-4.95 24.49 -4.56 17.41 -4.57 10.45 C-4.58 9.68 -4.59 8.91 -4.61 8.12 C-4.61 6.14 -4.51 4.17 -4.38 2.2 C-2.38 0.2 -2.38 0.2 0 0 Z " fill="#8190A7" transform="translate(145.3828125,73.8046875)"/>
<path d="M0 0 C2.31 0.06 2.31 0.06 5 1 C7.8 4.17 8.9 6.3 9.5 10.5 C8.9 14.73 7.9 16.87 5 20 C1.94 20.62 1.94 20.62 -1 20 C-3.78 17.1 -4.41 15.03 -4.38 11.06 C-4.25 6.45 -3.34 3.34 0 0 Z " fill="#292E38" transform="translate(100,73)"/>
<path d="M0 0 C4.77 1.1 9.46 1.99 14.31 2.62 C14.31 2.95 14.31 3.28 14.31 3.62 C13.47 3.78 12.63 3.94 11.76 4.11 C10.11 4.46 10.11 4.46 8.44 4.81 C6.8 5.14 6.8 5.14 5.13 5.48 C2.11 6.35 2.11 6.35 1.02 9.14 C0.79 9.96 0.55 10.78 0.31 11.62 C-0.67 12.65 -1.67 13.65 -2.69 14.62 C-3.86 16.72 -3.86 16.72 -4.69 18.62 C-5.68 18.62 -6.67 18.62 -7.69 18.62 C-7.36 25.56 -7.03 32.49 -6.69 39.62 C-8.69 37.62 -8.69 37.62 -8.93 35.59 C-8.93 34.78 -8.92 33.96 -8.92 33.12 C-8.92 32.24 -8.91 31.35 -8.91 30.44 C-8.9 29.51 -8.89 28.58 -8.88 27.62 C-8.87 26.7 -8.87 25.77 -8.87 24.81 C-8.83 17.91 -8.83 17.91 -7.69 15.62 C-8.02 14.64 -8.35 13.64 -8.69 12.62 C-8.76 10.4 -8.77 8.17 -8.75 5.94 C-8.74 4.76 -8.73 3.58 -8.72 2.36 C-8.71 1.46 -8.7 0.56 -8.69 -0.38 C-5.61 -1.91 -3.3 -0.77 0 0 Z " fill="#A5A8B3" transform="translate(78.6875,107.375)"/>
<path d="M0 0 C5.66 8.5 3.3 23.46 3.48 33.55 C3.52 35.79 3.57 38.03 3.62 40.27 C3.65 41.58 3.67 42.9 3.7 44.26 C4.01 48.16 4.8 51.29 6 55 C2.58 53.29 2.15 49.61 0.95 46.14 C-3.58 31.22 -3 15.17 0 0 Z " fill="#DEDEE2" transform="translate(63,66)"/>
<path d="M0 0 C0.99 0.33 1.98 0.66 3 1 C3 4 3 4 1.25 5.82 C0.51 6.44 -0.23 7.05 -1 7.69 C-2.11 8.62 -2.11 8.62 -3.25 9.57 C-3.83 10.04 -4.41 10.52 -5 11 C-3.68 13.97 -2.36 16.94 -1 20 C-2.98 20.99 -2.98 20.99 -5 22 C-5.99 20.35 -6.98 18.7 -8 17 C-10.88 18.29 -12.87 19.66 -15 22 C-15.99 21.67 -16.98 21.34 -18 21 C-16.47 17.56 -14.4 14.88 -12 12 C-12.31 11.24 -12.62 10.47 -12.94 9.69 C-13.68 7.81 -14.36 5.91 -15 4 C-13.68 3.34 -12.36 2.68 -11 2 C-9.68 3.65 -8.36 5.3 -7 7 C-6.4 6.22 -5.8 5.43 -5.19 4.62 C-3 2 -3 2 0 0 Z " fill="#E4E3E8" transform="translate(99,15)"/>
<path d="M0 0 C-0.8 6.42 -2.92 12.32 -6 18 C-6.49 15.53 -6.49 15.53 -7 13 C-7.66 14.32 -8.32 15.64 -9 17 C-9.66 17 -10.32 17 -11 17 C-11 17.99 -11 18.98 -11 20 C-11.66 20 -12.32 20 -13 20 C-13.33 23.63 -13.66 27.26 -14 31 C-14.66 31 -15.32 31 -16 31 C-16 33.97 -16 36.94 -16 40 C-16.66 39.67 -17.32 39.34 -18 39 C-18.66 39.99 -19.32 40.98 -20 42 C-20.66 42 -21.32 42 -22 42 C-22 43.32 -22 44.64 -22 46 C-22.66 45.67 -23.32 45.34 -24 45 C-22.41 40.31 -20.72 35.65 -19 31 C-18.67 30.12 -18.35 29.23 -18.01 28.32 C-7.38 0 -7.38 0 0 0 Z " fill="#292932" transform="translate(67,154)"/>
<path d="M0 0 C0.66 0 1.32 0 2 0 C2 0.66 2 1.32 2 2 C2.64 2.25 3.28 2.5 3.94 2.75 C6 4 6 4 6.81 5.85 C7 8 7 8 5.79 9.85 C4.93 10.73 4.93 10.73 4.06 11.62 C1.59 13.91 1.59 13.91 1 17 C1.66 17.66 2.32 18.32 3 19 C2.34 19 1.68 19 1 19 C1 19.99 1 20.98 1 22 C-0.98 22 -2.96 22 -5 22 C-5.53 10.75 -5.53 10.75 -2 6 C-1.29 4.02 -0.61 2.02 0 0 Z " fill="#393B47" transform="translate(81,19)"/>
<path d="M0 0 C0.66 0.33 1.32 0.66 2 1 C1.73 1.52 1.47 2.04 1.2 2.57 C-0.71 6.33 -2.52 10.05 -4 14 C-4.66 14 -5.32 14 -6 14 C-6.66 19.28 -7.32 24.56 -8 30 C-10.89 30.96 -13.53 31.3 -16.55 31.6 C-23.62 32.31 -28.73 33.5 -35 37 C-37.2 36.61 -37.2 36.61 -39 36 C-30.88 31.29 -21.45 28.64 -12 29 C-11.91 28.35 -11.83 27.69 -11.74 27.02 C-10.19 16.93 -7.23 7.44 0 0 Z " fill="#64656C" transform="translate(81,12)"/>
<path d="M0 0 C1.14 -0.01 2.29 -0.03 3.47 -0.04 C6.5 0.19 6.5 0.19 9.5 2.19 C8.84 2.19 8.18 2.19 7.5 2.19 C7.84 2.98 8.18 3.78 8.52 4.6 C9.75 9.11 9.49 12.94 9.12 17.56 C9.07 18.39 9.01 19.23 8.95 20.08 C8.81 22.12 8.66 24.15 8.5 26.19 C8.17 26.19 7.84 26.19 7.5 26.19 C7.57 25.17 7.63 24.16 7.7 23.12 C7.81 18.88 7.61 15.31 6.5 11.19 C1.92 7.14 -3.62 5.53 -9.5 4.19 C-9.5 3.2 -9.5 2.21 -9.5 1.19 C-6.15 0.07 -3.52 0.02 0 0 Z " fill="#818693" transform="translate(87.5,61.8125)"/>
<path d="M0 0 C3 1 3 1 4.17 2.75 C5.11 5.3 5.27 7.28 5.25 10 C5.26 10.85 5.26 11.69 5.27 12.56 C4.99 15.13 4.29 16.78 3 19 C-1.88 17.25 -1.88 17.25 -3 15 C-3.15 13.21 -3.22 11.42 -3.25 9.62 C-3.28 8.67 -3.3 7.71 -3.33 6.73 C-2.95 3.62 -2.07 2.29 0 0 Z " fill="#626670" transform="translate(73,74)"/>
<path d="M0 0 C2 1 2 1 3 3 C1.68 3.33 0.36 3.66 -1 4 C-0.67 4.99 -0.34 5.98 0 7 C-0.9 7.06 -0.9 7.06 -1.81 7.12 C-4.35 7.88 -4.35 7.88 -5.75 11.06 C-6.16 12.03 -6.58 13 -7 14 C-5.87 14.12 -4.73 14.25 -3.56 14.38 C-2.39 14.58 -1.21 14.79 0 15 C0.33 15.66 0.66 16.32 1 17 C-3.47 16.35 -7.73 15.48 -12 14 C-14 11 -14 11 -13.75 8.44 C-13 6 -13 6 -11 4 C-8.67 3.31 -6.34 2.65 -4 2 C-3.24 1.61 -2.47 1.22 -1.69 0.81 C-1.13 0.54 -0.57 0.28 0 0 Z " fill="#43434A" transform="translate(51,45)"/>
<path d="M0 0 C0.82 0.15 1.63 0.31 2.48 0.46 C6.45 1.07 10.37 1.34 14.38 1.56 C15.11 1.61 15.85 1.65 16.61 1.69 C18.4 1.8 20.2 1.9 22 2 C20.62 4 20.62 4 19 6 C18.34 6 17.68 6 17 6 C17 7.32 17 8.64 17 10 C12.56 10.65 10.25 10.84 6.46 8.29 C4.17 6.28 2 4.31 0 2 C0 1.34 0 0.68 0 0 Z " fill="#2F3540" transform="translate(93,139)"/>
<path d="M0 0 C0.82 0.13 0.82 0.13 1.66 0.26 C12.04 1.87 22.33 3.34 32.84 3.62 C37.8 3.8 37.8 3.8 40 6 C35.41 6.02 30.82 6.04 26.23 6.05 C24.67 6.06 23.11 6.07 21.55 6.08 C19.3 6.09 17.05 6.09 14.8 6.1 C13.77 6.11 13.77 6.11 12.71 6.11 C8.7 6.11 4.93 5.77 1 5 C0.67 3.35 0.34 1.7 0 0 Z " fill="#525A68" transform="translate(109,65)"/>
<path d="M0 0 C0.66 0 1.32 0 2 0 C3.72 3.98 5.41 7.96 7 12 C6.34 12 5.68 12 5 12 C4.96 12.9 4.93 13.81 4.89 14.74 C4.82 15.92 4.76 17.1 4.69 18.31 C4.63 19.48 4.57 20.66 4.51 21.86 C4 25 4 25 2.62 26.91 C0.38 28.42 -1.35 28.21 -4 28 C-2.07 25.98 -0.37 24.58 2 23 C1.67 22.37 1.35 21.73 1.01 21.08 C-0.36 16.89 -0.21 13.06 -0.12 8.69 C-0.12 7.85 -0.11 7.02 -0.1 6.15 C-0.07 4.1 -0.04 2.05 0 0 Z " fill="#37373F" transform="translate(71,126)"/>
<path d="M0 0 C0.99 0.33 1.98 0.66 3 1 C2.52 5.31 0.21 7.27 -3 10 C-4.98 11.13 -6.99 12.12 -9.06 13.09 C-11.48 14.23 -13.73 15.58 -16 17 C-15.67 16.01 -15.34 15.02 -15 14 C-14.34 14 -13.68 14 -13 14 C-13 13.01 -13 12.02 -13 11 C-14.11 11.33 -15.23 11.65 -16.38 11.99 C-21.28 13.22 -25.97 13.23 -31 13.12 C-31.87 13.12 -32.74 13.11 -33.64 13.1 C-35.76 13.07 -37.88 13.04 -40 13 C-40 12.67 -40 12.34 -40 12 C-38.42 11.93 -38.42 11.93 -36.82 11.85 C-27.52 11.37 -18.64 10.9 -10 7 C-10.33 7.99 -10.66 8.98 -11 10 C-6.65 9.5 -4.08 6.94 -1 4 C-0.06 1.83 -0.06 1.83 0 0 Z " fill="#5A6070" transform="translate(119,96)"/>
<path d="M0 0 C0.33 0 0.66 0 1 0 C2.43 10.83 3.08 21.46 0 32 C-0.34 35.6 -0.5 39.18 -0.66 42.79 C-1 46 -1 46 -3 50 C-3 42.41 -3 34.82 -3 27 C-2.34 27 -1.68 27 -1 27 C-0.67 18.09 -0.34 9.18 0 0 Z " fill="#D5D6DA" transform="translate(156,49)"/>
<path d="M0 0 C4.3 2.23 7.1 5.07 10 8.88 C10.43 9.44 10.87 10.01 11.32 10.6 C16.65 17.87 20.41 25.84 20 35 C18.01 31.39 17.39 28.06 16.76 24.02 C15.76 21.35 14.49 21.2 12 20 C11.67 17.67 11.33 15.33 11 13 C9.07 11.7 9.07 11.7 7 11 C6.67 10.01 6.34 9.02 6 8 C5.34 8 4.68 8 4 8 C0 2.59 0 2.59 0 0 Z " fill="#929398" transform="translate(136,14)"/>
<path d="M0 0 C1.2 3.53 0.8 6.13 0.06 9.75 C-0.13 10.73 -0.33 11.72 -0.53 12.73 C-0.68 13.48 -0.84 14.23 -1 15 C-1.66 15 -2.32 15 -3 15 C-3 17.97 -3 20.94 -3 24 C-3.66 23.67 -4.32 23.34 -5 23 C-5.66 23.99 -6.32 24.98 -7 26 C-7.66 26 -8.32 26 -9 26 C-9 27.32 -9 28.64 -9 30 C-9.66 29.67 -10.32 29.34 -11 29 C-7.59 19.22 -3.91 9.59 0 0 Z " fill="#64656B" transform="translate(54,170)"/>
<path d="M0 0 C-0.33 1.98 -0.66 3.96 -1 6 C-1.66 6 -2.32 6 -3 6 C-2.34 8.31 -1.68 10.62 -1 13 C-1.99 13 -2.98 13 -4 13 C-4.25 12.2 -4.5 11.39 -4.75 10.56 C-5.72 7.83 -5.72 7.83 -8.12 7.19 C-8.74 7.13 -9.36 7.06 -10 7 C-9.81 4.62 -9.81 4.62 -9 2 C-5.72 0.14 -3.83 0 0 0 Z " fill="#393A44" transform="translate(94,9)"/>
<path d="M0 0 C0.66 0.33 1.32 0.66 2 1 C1.73 1.52 1.47 2.04 1.2 2.57 C-0.71 6.33 -2.52 10.05 -4 14 C-4.99 14 -5.98 14 -7 14 C-7.99 18.95 -8.98 23.9 -10 29 C-10.66 29 -11.32 29 -12 29 C-10.58 18.25 -7.71 7.93 0 0 Z " fill="#9F9FA4" transform="translate(81,12)"/>
<path d="M0 0 C2.63 1.31 2.68 2.35 3.66 5.08 C3.96 5.91 4.26 6.74 4.57 7.6 C4.87 8.47 5.18 9.35 5.5 10.25 C6.11 11.96 6.73 13.68 7.34 15.39 C7.63 16.2 7.91 17 8.21 17.83 C8.84 19.55 9.55 21.24 10.28 22.92 C11 25 11 25 10 28 C9.67 26.68 9.34 25.36 9 24 C6.69 24.33 4.38 24.66 2 25 C2.33 24.01 2.66 23.02 3 22 C4.32 22 5.64 22 7 22 C5.02 16.72 3.04 11.44 1 6 C0.67 6 0.34 6 0 6 C0 4.02 0 2.04 0 0 Z " fill="#B6B7BB" transform="translate(183,172)"/>
<path d="M0 0 C5.76 5.76 6.88 15.27 8 23 C5 22 5 22 3.87 19.88 C1.47 13.22 0.27 7.08 0 0 Z " fill="#787980" transform="translate(163,104)"/>
<path d="M0 0 C-1.88 4.88 -1.88 4.88 -3 6 C-5.94 6.19 -5.94 6.19 -9 6 C-9.66 5.34 -10.32 4.68 -11 4 C-11 2.68 -11 1.36 -11 0 C-7.18 -1.37 -3.93 -0.68 0 0 Z " fill="#12161F" transform="translate(108,87)"/>
<path d="M0 0 C1.94 -0.03 3.87 -0.05 5.81 -0.06 C6.89 -0.07 7.97 -0.09 9.08 -0.1 C12 0 12 0 15 1 C15 2.32 15 3.64 15 5 C12.87 4.86 10.75 4.71 8.62 4.56 C7.44 4.48 6.26 4.4 5.04 4.32 C2 4 2 4 0 3 C0 2.01 0 1.02 0 0 Z " fill="#0B0D15" transform="translate(95,65)"/>
<path d="M0 0 C0.99 0.33 1.98 0.66 3 1 C7.27 9.92 7.51 19.12 7.25 28.81 C7.23 30.09 7.21 31.37 7.2 32.68 C7.15 35.79 7.08 38.89 7 42 C5 40 5 40 4.8 38.04 C4.83 37.24 4.85 36.45 4.88 35.63 C4.89 34.75 4.91 33.87 4.93 32.96 C4.95 32.03 4.98 31.09 5 30.12 C5.27 15.42 5.27 15.42 0 2 C0 1.34 0 0.68 0 0 Z " fill="#555760" transform="translate(149,35)"/>
<path d="M0 0 C0.99 0.33 1.98 0.66 3 1 C3 1.66 3 2.32 3 3 C1.68 3 0.36 3 -1 3 C-0.67 6.3 -0.34 9.6 0 13 C1.32 13.33 2.64 13.66 4 14 C3.67 15.65 3.34 17.3 3 19 C-1.88 17.25 -1.88 17.25 -3 15 C-3.15 13.21 -3.22 11.42 -3.25 9.62 C-3.28 8.67 -3.3 7.71 -3.33 6.73 C-2.95 3.62 -2.07 2.29 0 0 Z " fill="#25272E" transform="translate(73,74)"/>
<path d="M0 0 C3.11 0.16 4.56 0.58 6.81 2.75 C8.2 5.37 8.24 7.08 8 10 C6.29 8.37 5.07 7.13 4 5 C1.58 4.83 1.58 4.83 -1 5 C-1.66 5.66 -2.32 6.32 -3 7 C-2.25 2.25 -2.25 2.25 0 0 Z " fill="#0A0C13" transform="translate(100,73)"/>
<path d="M0 0 C4 3.67 6.6 7.11 9 12 C8.67 12.66 8.34 13.32 8 14 C7.57 13.53 7.13 13.05 6.69 12.56 C4.98 10.76 4.98 10.76 2 10 C-1.13 4.97 -1.13 4.97 -0.69 1.62 C-0.46 1.09 -0.23 0.55 0 0 Z " fill="#6E7076" transform="translate(174,158)"/>
<path d="M0 0 C0.99 0.33 1.98 0.66 3 1 C3 4 3 4 1.25 5.82 C0.51 6.44 -0.23 7.05 -1 7.69 C-2.11 8.62 -2.11 8.62 -3.25 9.57 C-3.83 10.04 -4.41 10.52 -5 11 C-6 8 -6 8 -5.31 5.5 C-3.86 2.74 -2.73 1.49 0 0 Z " fill="#D0D1D7" transform="translate(99,15)"/>
<path d="M0 0 C0.66 0.33 1.32 0.66 2 1 C1.17 1.72 0.35 2.44 -0.5 3.19 C-3.24 5.73 -3.24 5.73 -3.31 8.81 C-3.21 9.53 -3.11 10.26 -3 11 C-3.6 11.27 -4.2 11.54 -4.81 11.81 C-6.97 12.98 -8.36 14.19 -10 16 C-8.8 8.95 -4.9 5.03 0 0 Z " fill="#848487" transform="translate(65,154)"/>
<path d="M0 0 C1.14 -0.01 2.29 -0.01 3.47 -0.02 C6.5 0.25 6.5 0.25 9.5 2.25 C8.84 2.25 8.18 2.25 7.5 2.25 C7.17 3.57 6.84 4.89 6.5 6.25 C6.5 5.26 6.5 4.27 6.5 3.25 C1.22 2.92 -4.06 2.59 -9.5 2.25 C-5.93 -0.13 -4.23 -0.02 0 0 Z " fill="#666C79" transform="translate(87.5,61.75)"/>
<path d="M0 0 C-2.51 3.76 -3.82 3.73 -8.12 4.69 C-9.77 5.06 -9.77 5.06 -11.45 5.45 C-12.71 5.72 -12.71 5.72 -14 6 C-10.15 2 -5.85 -2.48 0 0 Z " fill="#7A7A7F" transform="translate(97,6)"/>
<path d="M0 0 C1.32 0 2.64 0 4 0 C4 2.64 4 5.28 4 8 C3.01 8 2.02 8 1 8 C0.67 8.66 0.34 9.32 0 10 C0 6.7 0 3.4 0 0 Z " fill="#3B404A" transform="translate(96,79)"/>
<path d="M0 0 C2 2 2 2 2.2 4.38 C2.17 5.29 2.15 6.19 2.12 7.12 C2.11 8.04 2.09 8.95 2.07 9.88 C2.05 10.58 2.02 11.28 2 12 C0.35 11.67 -1.3 11.34 -3 11 C-2.34 10.67 -1.68 10.34 -1 10 C-1.02 8.72 -1.04 7.44 -1.06 6.12 C-1.12 2.25 -1.12 2.25 0 0 Z " fill="#484C56" transform="translate(76,77)"/>
<path d="M0 0 C4.23 3.63 5.51 8.78 7 14 C7.25 17.69 7.25 17.69 7 20 C5.42 17.11 4.54 14.47 3.88 11.25 C3.71 10.45 3.54 9.65 3.37 8.83 C3.25 8.22 3.12 7.62 3 7 C2.34 7 1.68 7 1 7 C0.67 4.69 0.34 2.38 0 0 Z " fill="#C9C9CB" transform="translate(149,29)"/>
<path d="M0 0 C0.66 0.33 1.32 0.66 2 1 C1.67 2.32 1.34 3.64 1 5 C-1.31 5.66 -3.62 6.32 -6 7 C-5.81 5.19 -5.81 5.19 -5 3 C-2.56 1.19 -2.56 1.19 0 0 Z " fill="#15171D" transform="translate(76,64)"/>
<path d="M0 0 C0.66 0 1.32 0 2 0 C4.12 4.62 4.12 4.62 3 8 C2.67 6.68 2.34 5.36 2 4 C-0.31 4.33 -2.62 4.66 -5 5 C-4.67 4.01 -4.34 3.02 -4 2 C-2.68 2 -1.36 2 0 2 C0 1.34 0 0.68 0 0 Z " fill="#8C8C8E" transform="translate(190,192)"/>
<path d="M0 0 C-3.07 1.61 -6.18 2.87 -9.44 4.06 C-10.36 4.4 -11.29 4.75 -12.25 5.1 C-14.82 5.94 -17.33 6.53 -20 7 C-17.47 3.95 -14.85 3.02 -11.12 1.81 C-10.1 1.47 -9.07 1.12 -8.01 0.77 C-5.18 0.05 -2.9 -0.15 0 0 Z " fill="#9B9B9E" transform="translate(62,42)"/>
<path d="M0 0 C1.9 2.85 2.46 4.42 3.12 7.69 C3.29 8.5 3.46 9.3 3.63 10.14 C3.75 10.75 3.88 11.37 4 12 C2.68 12.33 1.36 12.66 0 13 C0 8.71 0 4.42 0 0 Z " fill="#363943" transform="translate(186,182)"/>
<path d="M0 0 C2.35 2.35 2.73 3.96 3.62 7.12 C3.89 8.04 4.15 8.95 4.41 9.88 C4.7 10.93 4.7 10.93 5 12 C3.68 11.67 2.36 11.34 1 11 C0.67 7.37 0.34 3.74 0 0 Z " fill="#A4A4A8" transform="translate(163,104)"/>
<path d="M0 0 C0.99 0.33 1.98 0.66 3 1 C3.33 4.3 3.66 7.6 4 11 C3.34 11 2.68 11 2 11 C1.34 7.37 0.68 3.74 0 0 Z " fill="#5A5B63" transform="translate(160,101)"/>
<path d="M0 0 C0.99 1.32 1.98 2.64 3 4 C2.01 5.48 2.01 5.48 1 7 C0.34 7 -0.32 7 -1 7 C-1.33 5.35 -1.66 3.7 -2 2 C-1.34 2 -0.68 2 0 2 C0 1.34 0 0.68 0 0 Z " fill="#D7D7DB" transform="translate(95,30)"/>
<path d="M0 0 C0.33 0.66 0.66 1.32 1 2 C-0.19 3.5 -0.19 3.5 -2 5 C-4.69 5.19 -4.69 5.19 -7 5 C-4.87 2.66 -2.88 1.29 0 0 Z " fill="#727177" transform="translate(74,149)"/>
</svg>
