<?xml version="1.0" standalone="no"?>
<!DOCTYPE svg PUBLIC "-//W3C//DTD SVG 20010904//EN"
 "http://www.w3.org/TR/2001/REC-SVG-20010904/DTD/svg10.dtd">
<svg version="1.0" xmlns="http://www.w3.org/2000/svg"
 width="90.000000pt" height="90.000000pt" viewBox="0 0 90.000000 90.000000"
 preserveAspectRatio="xMidYMid meet">

<g transform="translate(0.000000,90.000000) scale(0.100000,-0.100000)"
fill="#000000" stroke="none">
<path d="M335 886 c-153 -37 -291 -180 -324 -334 -45 -215 57 -421 256 -515
64 -30 74 -32 183 -32 109 0 119 2 183 32 95 45 178 127 225 222 36 73 37 77
37 190 0 110 -2 120 -32 184 -40 84 -124 174 -201 215 -93 49 -220 64 -327 38z
m458 -314 c15 -6 9 -16 -37 -61 l-55 -54 -20 24 c-25 30 -26 42 -3 62 34 31
80 42 115 29z m-423 -27 c0 -25 -1 -25 -88 -25 -81 0 -90 2 -112 25 l-23 25
111 0 112 0 0 -25z m230 0 l23 -25 -79 0 c-70 0 -82 3 -108 25 l-29 25 85 0
c77 0 87 -2 108 -25z m-143 -172 c-2 -27 -3 -5 -3 47 0 52 1 74 3 48 2 -27 2
-69 0 -95z m-97 119 c0 -4 -5 -13 -11 -19 -8 -8 -7 -17 5 -34 9 -13 16 -35 16
-49 0 -24 -3 -23 -56 27 -51 46 -62 52 -108 56 -51 3 -51 3 11 5 34 1 65 7 68
12 7 12 75 14 75 2z m205 -12 c10 -11 16 -20 13 -20 -3 0 -13 9 -23 20 -10 11
-16 20 -13 20 3 0 13 -9 23 -20z m-347 -57 c-45 -3 -58 -8 -58 -20 0 -9 -3
-14 -6 -10 -4 3 -4 13 -1 22 5 11 20 15 64 13 l58 -2 -57 -3z m463 -60 l34
-38 -35 32 c-34 32 -37 32 -55 15 -19 -17 -19 -17 -1 6 11 12 20 22 21 22 0 0
17 -17 36 -37z m-128 -40 c-13 -2 -35 -2 -50 0 -16 2 -5 4 22 4 28 0 40 -2 28
-4z"/>
</g>
</svg>
