<?xml version="1.0" encoding="UTF-8"?>
<!DOCTYPE svg PUBLIC "-//W3C//DTD SVG 1.1//EN" "http://www.w3.org/Graphics/SVG/1.1/DTD/svg11.dtd">
<svg xmlns="http://www.w3.org/2000/svg" version="1.1" width="200px" height="200px" style="shape-rendering:geometricPrecision; text-rendering:geometricPrecision; image-rendering:optimizeQuality; fill-rule:evenodd; clip-rule:evenodd" xmlns:xlink="http://www.w3.org/1999/xlink">
<g><path style="opacity:1" fill="#fffefe" d="M -0.5,-0.5 C 29.5,-0.5 59.5,-0.5 89.5,-0.5C 38.5,8.5 8.5,38.5 -0.5,89.5C -0.5,59.5 -0.5,29.5 -0.5,-0.5 Z"/></g>
<g><path style="opacity:1" fill="#fe0301" d="M 89.5,-0.5 C 96.1667,-0.5 102.833,-0.5 109.5,-0.5C 160.508,8.50794 190.508,38.5079 199.5,89.5C 199.5,96.5 199.5,103.5 199.5,110.5C 190.042,160.958 160.042,190.625 109.5,199.5C 102.833,199.5 96.1667,199.5 89.5,199.5C 38.9661,190.633 8.9661,160.966 -0.5,110.5C -0.5,103.5 -0.5,96.5 -0.5,89.5C 8.5,38.5 38.5,8.5 89.5,-0.5 Z"/></g>
<g><path style="opacity:1" fill="#fffefe" d="M 109.5,-0.5 C 139.5,-0.5 169.5,-0.5 199.5,-0.5C 199.5,29.5 199.5,59.5 199.5,89.5C 190.508,38.5079 160.508,8.50794 109.5,-0.5 Z"/></g>
<g><path style="opacity:1" fill="#edebeb" d="M 118.5,36.5 C 133.326,34.1429 144.159,39.4762 151,52.5C 154.435,69.607 157.601,86.7736 160.5,104C 159.684,115.313 154.351,123.647 144.5,129C 119.31,134.254 93.977,138.754 68.5,142.5C 57.053,142.036 48.8864,136.702 44,126.5C 40.1921,109.126 37.0254,91.6262 34.5,74C 35.1495,60.6996 41.8162,52.0329 54.5,48C 76.0271,44.4695 97.3605,40.6361 118.5,36.5 Z"/></g>
<g><path style="opacity:1" fill="#fe0402" d="M 121.5,54.5 C 124.187,54.3359 126.854,54.5026 129.5,55C 131.667,55.8333 133.167,57.3333 134,59.5C 137.536,75.7091 139.869,92.0425 141,108.5C 139.363,110.81 137.196,112.31 134.5,113C 112.479,116.726 90.4794,120.559 68.5,124.5C 63.6061,123.977 60.7728,121.311 60,116.5C 57.7689,102.28 55.2689,88.1131 52.5,74C 52.9814,70.1864 54.9814,67.5197 58.5,66C 79.6746,62.3619 100.675,58.5286 121.5,54.5 Z"/></g>
<g><path style="opacity:1" fill="#ede9e9" d="M 119.5,75.5 C 126.236,76.5791 127.236,79.7457 122.5,85C 126.182,86.3198 127.682,88.8198 127,92.5C 123.801,95.1295 120.801,94.7961 118,91.5C 116.68,95.1816 114.18,96.6816 110.5,96C 107.689,92.7065 108.022,89.7065 111.5,87C 105.437,84.0188 105.103,80.8522 110.5,77.5C 112.697,77.8481 114.53,78.8481 116,80.5C 116.997,78.6769 118.164,77.0103 119.5,75.5 Z"/></g>
<g><path style="opacity:1" fill="#ede9e9" d="M 76.5,82.5 C 86.5788,83.6517 89.7455,88.985 86,98.5C 81.6061,103.044 76.7728,103.544 71.5,100C 66.4482,92.1298 68.1148,86.2965 76.5,82.5 Z"/></g>
<g><path style="opacity:1" fill="#fffefe" d="M -0.5,110.5 C 8.9661,160.966 38.9661,190.633 89.5,199.5C 59.5,199.5 29.5,199.5 -0.5,199.5C -0.5,169.833 -0.5,140.167 -0.5,110.5 Z"/></g>
<g><path style="opacity:1" fill="#fffefe" d="M 199.5,110.5 C 199.5,140.167 199.5,169.833 199.5,199.5C 169.5,199.5 139.5,199.5 109.5,199.5C 160.042,190.625 190.042,160.958 199.5,110.5 Z"/></g>
<g><path style="opacity:1" fill="#edebea" d="M 130.5,136.5 C 141.403,136.838 146.07,142.338 144.5,153C 143.431,156.141 141.431,158.474 138.5,160C 121.032,163.328 103.532,166.495 86,169.5C 76.3399,168.003 72.5066,162.503 74.5,153C 75.5686,149.859 77.5686,147.526 80.5,146C 97.3195,142.922 113.986,139.755 130.5,136.5 Z"/></g>
</svg>
