<?xml version="1.0" encoding="UTF-8"?>
<!DOCTYPE svg PUBLIC "-//W3C//DTD SVG 1.1//EN" "http://www.w3.org/Graphics/SVG/1.1/DTD/svg11.dtd">
<svg xmlns="http://www.w3.org/2000/svg" version="1.1" width="200px" height="200px" style="shape-rendering:geometricPrecision; text-rendering:geometricPrecision; image-rendering:optimizeQuality; fill-rule:evenodd; clip-rule:evenodd" xmlns:xlink="http://www.w3.org/1999/xlink">
<g><path style="opacity:0.98" fill="#010101" d="M 84.5,-0.5 C 94.5,-0.5 104.5,-0.5 114.5,-0.5C 161.167,9.5 189.5,37.8333 199.5,84.5C 199.5,94.5 199.5,104.5 199.5,114.5C 189.5,161.167 161.167,189.5 114.5,199.5C 104.5,199.5 94.5,199.5 84.5,199.5C 37.8333,189.5 9.5,161.167 -0.5,114.5C -0.5,104.5 -0.5,94.5 -0.5,84.5C 9.5,37.8333 37.8333,9.5 84.5,-0.5 Z"/></g>
<g><path style="opacity:1" fill="#303030" d="M 51.5,46.5 C 46.7735,46.0483 42.9402,47.715 40,51.5C 39.5034,53.8098 39.3367,56.1432 39.5,58.5C 39.8064,61.3854 39.4731,64.0521 38.5,66.5C 38.5,60.8333 38.5,55.1667 38.5,49.5C 37.5,49.5 36.5,49.5 35.5,49.5C 35.5,48.1667 35.5,46.8333 35.5,45.5C 41.0262,45.1786 46.3595,45.5119 51.5,46.5 Z"/></g>
<g><path style="opacity:1" fill="#9b9b9b" d="M 72.5,59.5 C 71.834,56.6417 71.1674,53.6417 70.5,50.5C 69.8333,50.8333 69.1667,51.1667 68.5,51.5C 67.8302,53.2914 67.1635,54.9581 66.5,56.5C 66.6621,54.4727 66.4955,52.4727 66,50.5C 64.9887,49.6634 63.8221,49.33 62.5,49.5C 62.5,48.1667 62.5,46.8333 62.5,45.5C 66.8333,45.5 71.1667,45.5 75.5,45.5C 75.5,46.8333 75.5,48.1667 75.5,49.5C 74.5,49.5 73.5,49.5 72.5,49.5C 72.5,52.8333 72.5,56.1667 72.5,59.5 Z"/></g>
<g><path style="opacity:1" fill="#aaaaaa" d="M 86.5,50.5 C 86.1667,50.5 85.8333,50.5 85.5,50.5C 85.44,49.9569 85.1067,49.6236 84.5,49.5C 83.6691,56.1419 83.1691,62.8085 83,69.5C 81.871,71.1412 80.371,72.1412 78.5,72.5C 79.4577,71.0384 80.6244,69.7051 82,68.5C 82.4995,62.1754 82.6662,55.8421 82.5,49.5C 81.5,49.5 80.5,49.5 79.5,49.5C 79.5,48.1667 79.5,46.8333 79.5,45.5C 82.8333,45.5 86.1667,45.5 89.5,45.5C 89.5,46.8333 89.5,48.1667 89.5,49.5C 88.209,49.2627 87.209,49.596 86.5,50.5 Z"/></g>
<g><path style="opacity:1" fill="#cdcdcd" d="M 97.5,61.5 C 95.6976,62.4582 93.6976,63.1249 91.5,63.5C 90.045,56.0896 92.045,49.9229 97.5,45C 106.163,43.9995 109.663,47.8329 108,56.5C 106.89,58.0368 105.39,58.7035 103.5,58.5C 103.752,55.6802 103.252,53.0135 102,50.5C 97.9837,49.336 96.1504,51.0027 96.5,55.5C 96.6718,57.5477 97.0051,59.5477 97.5,61.5 Z"/></g>
<g><path style="opacity:1" fill="#d0d0d0" d="M 123.5,64.5 C 122.292,63.7659 120.959,63.4326 119.5,63.5C 119.5,58.8333 119.5,54.1667 119.5,49.5C 117.901,49.2322 116.568,49.5655 115.5,50.5C 114.094,50.9731 113.427,51.9731 113.5,53.5C 112.698,54.9516 112.198,56.6183 112,58.5C 111.501,54.5138 111.334,50.5138 111.5,46.5C 115.923,46.6904 120.256,47.3571 124.5,48.5C 124.821,54.0262 124.488,59.3595 123.5,64.5 Z"/></g>
<g><path style="opacity:1" fill="#a2a2a2" d="M 133.5,45.5 C 133.5,50.1667 133.5,54.8333 133.5,59.5C 132.5,59.5 131.5,59.5 130.5,59.5C 130.665,56.4816 130.498,53.4816 130,50.5C 128.644,49.6198 127.144,49.2865 125.5,49.5C 125.5,54.8333 125.5,60.1667 125.5,65.5C 124.508,65.6716 123.842,65.3382 123.5,64.5C 124.488,59.3595 124.821,54.0262 124.5,48.5C 120.256,47.3571 115.923,46.6904 111.5,46.5C 111.334,50.5138 111.501,54.5138 112,58.5C 112.198,56.6183 112.698,54.9516 113.5,53.5C 113.5,55.5 113.5,57.5 113.5,59.5C 112.5,59.5 111.5,59.5 110.5,59.5C 110.5,54.8333 110.5,50.1667 110.5,45.5C 118.167,45.5 125.833,45.5 133.5,45.5 Z"/></g>
<g><path style="opacity:1" fill="#3c3c3c" d="M 155.5,54.5 C 154.481,49.2493 153.481,49.2493 152.5,54.5C 152.5,52.8333 152.5,51.1667 152.5,49.5C 151.5,49.5 150.5,49.5 149.5,49.5C 149.5,48.1667 149.5,46.8333 149.5,45.5C 152.833,45.5 156.167,45.5 159.5,45.5C 158.426,48.6451 157.093,51.6451 155.5,54.5 Z"/></g>
<g><path style="opacity:1" fill="#797979" d="M 134.5,45.5 C 138.5,45.5 142.5,45.5 146.5,45.5C 145.783,48.3229 144.783,50.9896 143.5,53.5C 142.089,51.461 140.089,50.461 137.5,50.5C 137.5,51.5 137.5,52.5 137.5,53.5C 136.833,52.1667 136.167,50.8333 135.5,49.5C 134.766,48.2921 134.433,46.9587 134.5,45.5 Z"/></g>
<g><path style="opacity:1" fill="#505050" d="M 51.5,46.5 C 53.4044,46.7376 54.7377,47.7376 55.5,49.5C 53.302,49.1201 51.6354,49.7868 50.5,51.5C 48.9582,50.6993 47.2915,50.366 45.5,50.5C 45.5,64.1667 45.5,77.8333 45.5,91.5C 46.5,91.5 47.5,91.5 48.5,91.5C 48.5,92.1667 48.1667,92.5 47.5,92.5C 46.5,92.5 45.5,92.5 44.5,92.5C 44.5,88.8333 44.5,85.1667 44.5,81.5C 44.5,76.5 44.5,71.5 44.5,66.5C 44.6653,62.8183 44.4986,59.1516 44,55.5C 42.871,57.1412 41.371,58.1412 39.5,58.5C 39.3367,56.1432 39.5034,53.8098 40,51.5C 42.9402,47.715 46.7735,46.0483 51.5,46.5 Z"/></g>
<g><path style="opacity:1" fill="#050505" d="M 50.5,51.5 C 52.4381,54.6591 53.7715,57.9924 54.5,61.5C 54.7169,69.9149 54.0503,78.2482 52.5,86.5C 51.8724,88.6616 50.539,90.3282 48.5,91.5C 47.5,91.5 46.5,91.5 45.5,91.5C 45.5,77.8333 45.5,64.1667 45.5,50.5C 47.2915,50.366 48.9582,50.6993 50.5,51.5 Z"/></g>
<g><path style="opacity:1" fill="#414141" d="M 133.5,45.5 C 133.833,45.5 134.167,45.5 134.5,45.5C 134.433,46.9587 134.766,48.2921 135.5,49.5C 134.833,52.8333 134.167,56.1667 133.5,59.5C 133.5,54.8333 133.5,50.1667 133.5,45.5 Z"/></g>
<g><path style="opacity:1" fill="#8f8f8f" d="M 55.5,49.5 C 58.5267,53.2371 60.1933,57.5705 60.5,62.5C 59.7677,61.1917 58.9344,59.8584 58,58.5C 56.8549,59.6364 55.6883,60.6364 54.5,61.5C 53.7715,57.9924 52.4381,54.6591 50.5,51.5C 51.6354,49.7868 53.302,49.1201 55.5,49.5 Z"/></g>
<g><path style="opacity:1" fill="#646464" d="M 155.5,54.5 C 155.118,59.0918 154.118,63.4251 152.5,67.5C 152.66,65.8008 152.494,64.1341 152,62.5C 151.617,63.056 151.117,63.3893 150.5,63.5C 151.323,60.5394 151.99,57.5394 152.5,54.5C 153.481,49.2493 154.481,49.2493 155.5,54.5 Z"/></g>
<g><path style="opacity:1" fill="#595959" d="M 85.5,50.5 C 85.8333,50.5 86.1667,50.5 86.5,50.5C 86.1795,55.6946 86.5128,60.6946 87.5,65.5C 87.44,66.0431 87.1067,66.3764 86.5,66.5C 85.5052,61.2079 85.1718,55.8746 85.5,50.5 Z"/></g>
<g><path style="opacity:1" fill="#cdcdcd" d="M 60.5,62.5 C 60.8214,68.0262 60.4881,73.3595 59.5,78.5C 59.6641,75.8127 59.4974,73.146 59,70.5C 58.3333,71.1667 57.6667,71.8333 57,72.5C 55.4569,77.2875 53.9569,81.9542 52.5,86.5C 54.0503,78.2482 54.7169,69.9149 54.5,61.5C 55.6883,60.6364 56.8549,59.6364 58,58.5C 58.9344,59.8584 59.7677,61.1917 60.5,62.5 Z"/></g>
<g><path style="opacity:1" fill="#6d6d6d" d="M 115.5,50.5 C 116.568,49.5655 117.901,49.2322 119.5,49.5C 119.5,54.1667 119.5,58.8333 119.5,63.5C 120.959,63.4326 122.292,63.7659 123.5,64.5C 123.842,65.3382 124.508,65.6716 125.5,65.5C 126.167,66.8333 126.833,68.1667 127.5,69.5C 127.565,69.9382 127.399,70.2716 127,70.5C 126.292,69.6195 125.458,68.9528 124.5,68.5C 120.962,65.9297 116.962,64.4297 112.5,64C 105.139,63.3167 97.8052,63.4833 90.5,64.5C 90.5,63.8333 90.8333,63.5 91.5,63.5C 93.6976,63.1249 95.6976,62.4582 97.5,61.5C 104.463,59.9093 111.297,60.2426 118,62.5C 118.499,58.5138 118.666,54.5138 118.5,50.5C 117.5,50.5 116.5,50.5 115.5,50.5 Z"/></g>
<g><path style="opacity:1" fill="#a8a8a8" d="M 143.5,53.5 C 144.863,58.9596 146.53,64.293 148.5,69.5C 149.477,67.5891 150.143,65.5891 150.5,63.5C 151.117,63.3893 151.617,63.056 152,62.5C 152.494,64.1341 152.66,65.8008 152.5,67.5C 152.073,70.0098 151.407,72.3432 150.5,74.5C 150.669,69.9593 150.002,69.626 148.5,73.5C 147.129,70.1953 144.963,67.5286 142,65.5C 141.517,66.448 141.351,67.448 141.5,68.5C 139.925,63.6546 138.592,58.6546 137.5,53.5C 137.5,52.5 137.5,51.5 137.5,50.5C 140.089,50.461 142.089,51.461 143.5,53.5 Z"/></g>
<g><path style="opacity:1" fill="#eaeaea" d="M 85.5,50.5 C 85.1718,55.8746 85.5052,61.2079 86.5,66.5C 87.1067,66.3764 87.44,66.0431 87.5,65.5C 88.391,64.8902 89.391,64.5569 90.5,64.5C 97.8052,63.4833 105.139,63.3167 112.5,64C 116.962,64.4297 120.962,65.9297 124.5,68.5C 121.984,75.6991 121.984,83.0325 124.5,90.5C 124.5,91.8333 123.833,92.5 122.5,92.5C 115.237,86.8616 108.237,87.1949 101.5,93.5C 101.104,90.9556 101.771,88.7889 103.5,87C 108.357,85.4922 113.19,85.3256 118,86.5C 118.5,86 119,85.5 119.5,85C 118.261,81.2183 117.095,77.3849 116,73.5C 113.264,70.2972 109.764,68.2972 105.5,67.5C 94.4384,69.6531 86.1051,75.4864 80.5,85C 82.3817,85.1981 84.0484,85.6981 85.5,86.5C 83.4727,86.3379 81.4727,86.5045 79.5,87C 78.3474,88.883 76.6807,89.7163 74.5,89.5C 74.5,87.1667 74.5,84.8333 74.5,82.5C 74.7512,80.8297 75.4178,79.3297 76.5,78C 75.944,77.6174 75.6107,77.1174 75.5,76.5C 76.5,75.1667 77.5,73.8333 78.5,72.5C 80.371,72.1412 81.871,71.1412 83,69.5C 83.1691,62.8085 83.6691,56.1419 84.5,49.5C 85.1067,49.6236 85.44,49.9569 85.5,50.5 Z"/></g>
<g><path style="opacity:1" fill="#747474" d="M 44.5,66.5 C 42.2475,66.9156 40.7475,68.249 40,70.5C 39.8285,77.6787 39.3285,84.6787 38.5,91.5C 38.5,83.1667 38.5,74.8333 38.5,66.5C 39.4731,64.0521 39.8064,61.3854 39.5,58.5C 41.371,58.1412 42.871,57.1412 44,55.5C 44.4986,59.1516 44.6653,62.8183 44.5,66.5 Z"/></g>
<g><path style="opacity:1" fill="#e4e4e4" d="M 72.5,59.5 C 72.5,66.1667 72.5,72.8333 72.5,79.5C 72.1274,82.5739 71.4608,85.5739 70.5,88.5C 70.6621,90.5273 70.4955,92.5273 70,94.5C 68.6189,92.3651 67.6189,90.0318 67,87.5C 66.5002,77.172 66.3335,66.8387 66.5,56.5C 67.1635,54.9581 67.8302,53.2914 68.5,51.5C 69.1667,51.1667 69.8333,50.8333 70.5,50.5C 71.1674,53.6417 71.834,56.6417 72.5,59.5 Z"/></g>
<g><path style="opacity:1" fill="#f7f7f7" d="M 101.5,93.5 C 101.205,95.7354 101.539,97.7354 102.5,99.5C 102.557,100.609 102.89,101.609 103.5,102.5C 103.031,105.393 104.031,107.393 106.5,108.5C 107.642,113.777 110.975,115.943 116.5,115C 115.944,115.383 115.611,115.883 115.5,116.5C 109.491,116.937 103.658,117.937 98,119.5C 94.3309,119.519 90.8309,118.852 87.5,117.5C 87.0825,116.778 86.4158,116.278 85.5,116C 89.6877,115.824 93.6877,115.324 97.5,114.5C 100.005,110.943 100.005,107.276 97.5,103.5C 96.0238,99.9765 94.8572,96.3099 94,92.5C 91.3166,90.3213 88.4833,88.3213 85.5,86.5C 84.0484,85.6981 82.3817,85.1981 80.5,85C 86.1051,75.4864 94.4384,69.6531 105.5,67.5C 109.764,68.2972 113.264,70.2972 116,73.5C 117.095,77.3849 118.261,81.2183 119.5,85C 119,85.5 118.5,86 118,86.5C 113.19,85.3256 108.357,85.4922 103.5,87C 101.771,88.7889 101.104,90.9556 101.5,93.5 Z"/></g>
<g><path style="opacity:1" fill="#eaeaea" d="M 59.5,78.5 C 59.8222,82.747 58.9889,86.747 57,90.5C 55.9243,93.079 54.091,94.7457 51.5,95.5C 49.396,95.7989 47.396,95.4656 45.5,94.5C 46.2427,93.8182 46.9094,93.1515 47.5,92.5C 48.1667,92.5 48.5,92.1667 48.5,91.5C 50.539,90.3282 51.8724,88.6616 52.5,86.5C 53.9569,81.9542 55.4569,77.2875 57,72.5C 57.6667,71.8333 58.3333,71.1667 59,70.5C 59.4974,73.146 59.6641,75.8127 59.5,78.5 Z"/></g>
<g><path style="opacity:1" fill="#dcdcdc" d="M 150.5,74.5 C 149.433,79.7815 149.267,85.1149 150,90.5C 150.71,91.9733 151.876,92.6399 153.5,92.5C 153.5,93.8333 153.5,95.1667 153.5,96.5C 148.833,96.5 144.167,96.5 139.5,96.5C 139.5,95.1667 139.5,93.8333 139.5,92.5C 140.833,92.5 142.167,92.5 143.5,92.5C 143.938,84.3529 143.271,76.3529 141.5,68.5C 141.351,67.448 141.517,66.448 142,65.5C 144.963,67.5286 147.129,70.1953 148.5,73.5C 150.002,69.626 150.669,69.9593 150.5,74.5 Z"/></g>
<g><path style="opacity:1" fill="#cbcbcb" d="M 44.5,81.5 C 44.5,85.1667 44.5,88.8333 44.5,92.5C 45.5,92.5 46.5,92.5 47.5,92.5C 46.9094,93.1515 46.2427,93.8182 45.5,94.5C 47.396,95.4656 49.396,95.7989 51.5,95.5C 48.3752,96.4794 45.0419,96.8128 41.5,96.5C 40.1333,90.9756 41.1333,85.9756 44.5,81.5 Z"/></g>
<g><path style="opacity:1" fill="#aeaeae" d="M 44.5,66.5 C 44.5,71.5 44.5,76.5 44.5,81.5C 41.1333,85.9756 40.1333,90.9756 41.5,96.5C 39.5,96.5 37.5,96.5 35.5,96.5C 35.5,95.1667 35.5,93.8333 35.5,92.5C 36.791,92.7373 37.791,92.404 38.5,91.5C 39.3285,84.6787 39.8285,77.6787 40,70.5C 40.7475,68.249 42.2475,66.9156 44.5,66.5 Z"/></g>
<g><path style="opacity:1" fill="#919191" d="M 75.5,76.5 C 75.6107,77.1174 75.944,77.6174 76.5,78C 75.4178,79.3297 74.7512,80.8297 74.5,82.5C 72.9261,84.1016 72.2594,86.1016 72.5,88.5C 71.8333,88.5 71.1667,88.5 70.5,88.5C 71.4608,85.5739 72.1274,82.5739 72.5,79.5C 73.7281,78.6935 74.7281,77.6935 75.5,76.5 Z"/></g>
<g><path style="opacity:1" fill="#818181" d="M 124.5,68.5 C 125.458,68.9528 126.292,69.6195 127,70.5C 127.399,70.2716 127.565,69.9382 127.5,69.5C 130.461,71.4121 132.461,74.0787 133.5,77.5C 134.482,80.9619 134.815,84.6286 134.5,88.5C 133.833,90.5 133.167,92.5 132.5,94.5C 131.222,86.6405 130.556,86.6405 130.5,94.5C 131.645,99.4476 132.145,104.448 132,109.5C 130.385,108.614 128.885,107.614 127.5,106.5C 127.666,102.486 127.499,98.4862 127,94.5C 126.8,92.6803 125.966,91.347 124.5,90.5C 121.984,83.0325 121.984,75.6991 124.5,68.5 Z"/></g>
<g><path style="opacity:1" fill="#bfbfbf" d="M 133.5,77.5 C 133.664,80.1873 133.497,82.854 133,85.5C 132.395,87.4812 131.395,87.8146 130,86.5C 129.951,81.9778 129.118,77.6444 127.5,73.5C 127.667,73.1667 127.833,72.8333 128,72.5C 129.426,74.7658 131.26,76.4324 133.5,77.5 Z"/></g>
<g><path style="opacity:1" fill="#050505" d="M 123.5,95.5 C 124.441,97.0495 125.107,98.7162 125.5,100.5C 125.881,108.785 121.881,112.785 113.5,112.5C 111.031,111.431 108.698,110.098 106.5,108.5C 106.008,106.181 105.008,104.181 103.5,102.5C 102.89,101.609 102.557,100.609 102.5,99.5C 101.822,95.7273 103.156,92.894 106.5,91C 113.16,89.2678 118.826,90.7678 123.5,95.5 Z"/></g>
<g><path style="opacity:1" fill="#7e7e7e" d="M 85.5,89.5 C 80.9542,90.8633 76.7875,93.1966 73,96.5C 72.5172,95.552 72.3505,94.552 72.5,93.5C 74.7129,91.9709 77.0462,90.4709 79.5,89C 81.7116,88.2109 83.7116,88.3775 85.5,89.5 Z"/></g>
<g><path style="opacity:1" fill="#676767" d="M 122.5,92.5 C 123.11,93.391 123.443,94.391 123.5,95.5C 118.826,90.7678 113.16,89.2678 106.5,91C 103.156,92.894 101.822,95.7273 102.5,99.5C 101.539,97.7354 101.205,95.7354 101.5,93.5C 108.237,87.1949 115.237,86.8616 122.5,92.5 Z"/></g>
<g><path style="opacity:1" fill="#b8b8b8" d="M 134.5,88.5 C 134.5,92.8333 134.5,97.1667 134.5,101.5C 136.167,101.5 137.833,101.5 139.5,101.5C 139.5,106.167 139.5,110.833 139.5,115.5C 138.209,115.737 137.209,115.404 136.5,114.5C 138.423,110.971 139.089,106.971 138.5,102.5C 137.167,102.5 135.833,102.5 134.5,102.5C 134.5,103.833 134.5,105.167 134.5,106.5C 133.205,102.733 132.539,98.7329 132.5,94.5C 133.167,92.5 133.833,90.5 134.5,88.5 Z"/></g>
<g><path style="opacity:1" fill="#f2f2f2" d="M 136.5,114.5 C 136.663,112.143 136.497,109.81 136,107.5C 135.617,106.944 135.117,106.611 134.5,106.5C 134.5,105.167 134.5,103.833 134.5,102.5C 135.833,102.5 137.167,102.5 138.5,102.5C 139.089,106.971 138.423,110.971 136.5,114.5 Z"/></g>
<g><path style="opacity:1" fill="#0f0f0f" d="M 97.5,103.5 C 100.005,107.276 100.005,110.943 97.5,114.5C 95.4159,113.752 93.4159,113.752 91.5,114.5C 90.5932,109.317 92.5932,105.651 97.5,103.5 Z"/></g>
<g><path style="opacity:1" fill="#b3b3b3" d="M 155.5,101.5 C 160.826,104.751 161.826,109.085 158.5,114.5C 157.675,115.386 156.675,115.719 155.5,115.5C 155.935,112.162 155.268,109.162 153.5,106.5C 155.256,105.448 155.923,103.781 155.5,101.5 Z"/></g>
<g><path style="opacity:1" fill="#969696" d="M 103.5,102.5 C 105.008,104.181 106.008,106.181 106.5,108.5C 104.031,107.393 103.031,105.393 103.5,102.5 Z"/></g>
<g><path style="opacity:1" fill="#090909" d="M 46.5,106.5 C 49.3667,106.369 51.0334,107.703 51.5,110.5C 51.6653,114.182 51.4986,117.848 51,121.5C 50.4115,123.863 48.9115,124.863 46.5,124.5C 46.5,118.5 46.5,112.5 46.5,106.5 Z"/></g>
<g><path style="opacity:1" fill="#626262" d="M 132.5,94.5 C 132.539,98.7329 133.205,102.733 134.5,106.5C 134.58,112.76 132.58,118.26 128.5,123C 131.365,123.183 134.031,123.683 136.5,124.5C 133.061,124.253 129.728,124.586 126.5,125.5C 127.999,121.183 129.166,116.85 130,112.5C 129.692,111.692 129.192,111.025 128.5,110.5C 127.057,113.077 125.39,115.41 123.5,117.5C 124.847,113.826 126.18,110.16 127.5,106.5C 128.885,107.614 130.385,108.614 132,109.5C 132.145,104.448 131.645,99.4476 130.5,94.5C 130.556,86.6405 131.222,86.6405 132.5,94.5 Z"/></g>
<g><path style="opacity:1" fill="#e1e1e1" d="M 44.5,102.5 C 53.795,101.13 58.4616,105.13 58.5,114.5C 58.6905,118.256 57.6905,121.59 55.5,124.5C 54.5041,124.586 53.6708,124.252 53,123.5C 52.8247,118.981 52.3247,114.647 51.5,110.5C 51.0334,107.703 49.3667,106.369 46.5,106.5C 45.6805,109.305 45.1805,112.305 45,115.5C 44.1667,112.167 43.3333,108.833 42.5,105.5C 42.9424,104.261 43.6091,103.261 44.5,102.5 Z"/></g>
<g><path style="opacity:1" fill="#666666" d="M 125.5,100.5 C 127.855,110.812 123.855,114.812 113.5,112.5C 121.881,112.785 125.881,108.785 125.5,100.5 Z"/></g>
<g><path style="opacity:1" fill="#181818" d="M 126.5,125.5 C 125.167,126.5 123.833,127.5 122.5,128.5C 120.38,127.597 120.046,126.263 121.5,124.5C 122.566,122.299 123.233,119.965 123.5,117.5C 125.39,115.41 127.057,113.077 128.5,110.5C 129.192,111.025 129.692,111.692 130,112.5C 129.166,116.85 127.999,121.183 126.5,125.5 Z"/></g>
<g><path style="opacity:1" fill="#a0a0a0" d="M 124.5,90.5 C 125.966,91.347 126.8,92.6803 127,94.5C 127.499,98.4862 127.666,102.486 127.5,106.5C 126.18,110.16 124.847,113.826 123.5,117.5C 123.233,119.965 122.566,122.299 121.5,124.5C 118.337,126.811 115.003,128.978 111.5,131C 109.26,131.977 106.927,132.477 104.5,132.5C 111.104,130.188 116.77,126.354 121.5,121C 120.552,120.517 119.552,120.351 118.5,120.5C 119.209,119.596 120.209,119.263 121.5,119.5C 121.741,116.001 120.908,115.668 119,118.5C 117.692,117.849 116.859,118.515 116.5,120.5C 116.5,121.167 116.167,121.5 115.5,121.5C 115.5,120.833 115.167,120.5 114.5,120.5C 114.433,119.041 114.766,117.708 115.5,116.5C 115.611,115.883 115.944,115.383 116.5,115C 110.975,115.943 107.642,113.777 106.5,108.5C 108.698,110.098 111.031,111.431 113.5,112.5C 123.855,114.812 127.855,110.812 125.5,100.5C 125.107,98.7162 124.441,97.0495 123.5,95.5C 123.443,94.391 123.11,93.391 122.5,92.5C 123.833,92.5 124.5,91.8333 124.5,90.5 Z"/></g>
<g><path style="opacity:1" fill="#bfbfbf" d="M 115.5,116.5 C 114.766,117.708 114.433,119.041 114.5,120.5C 114.167,120.5 113.833,120.5 113.5,120.5C 112.448,118.744 110.781,118.077 108.5,118.5C 108.768,120.099 108.434,121.432 107.5,122.5C 107.631,121.761 107.464,121.094 107,120.5C 106.31,119.262 105.81,119.262 105.5,120.5C 103.167,120.5 100.833,120.5 98.5,120.5C 96.5,120.5 94.5,120.5 92.5,120.5C 89.6836,118.835 87.1836,119.168 85,121.5C 84.5172,120.552 84.3505,119.552 84.5,118.5C 82.901,118.768 81.5676,118.434 80.5,117.5C 82.8333,117.5 85.1667,117.5 87.5,117.5C 90.8309,118.852 94.3309,119.519 98,119.5C 103.658,117.937 109.491,116.937 115.5,116.5 Z"/></g>
<g><path style="opacity:1" fill="#696969" d="M 113.5,120.5 C 112.167,120.5 111.5,121.167 111.5,122.5C 110.292,123.234 108.959,123.567 107.5,123.5C 107.5,123.167 107.5,122.833 107.5,122.5C 108.434,121.432 108.768,120.099 108.5,118.5C 110.781,118.077 112.448,118.744 113.5,120.5 Z"/></g>
<g><path style="opacity:1" fill="#101010" d="M 118.5,120.5 C 118.062,121.506 117.396,121.506 116.5,120.5C 116.859,118.515 117.692,117.849 119,118.5C 120.908,115.668 121.741,116.001 121.5,119.5C 120.209,119.263 119.209,119.596 118.5,120.5 Z"/></g>
<g><path style="opacity:1" fill="#dfdfdf" d="M 74.5,82.5 C 74.5,84.8333 74.5,87.1667 74.5,89.5C 76.6807,89.7163 78.3474,88.883 79.5,87C 81.4727,86.5045 83.4727,86.3379 85.5,86.5C 88.4833,88.3213 91.3166,90.3213 94,92.5C 94.8572,96.3099 96.0238,99.9765 97.5,103.5C 92.5932,105.651 90.5932,109.317 91.5,114.5C 93.4159,113.752 95.4159,113.752 97.5,114.5C 93.6877,115.324 89.6877,115.824 85.5,116C 86.4158,116.278 87.0825,116.778 87.5,117.5C 85.1667,117.5 82.8333,117.5 80.5,117.5C 78.22,115.777 75.5533,115.111 72.5,115.5C 72.0773,117.781 72.744,119.448 74.5,120.5C 74.8333,120.5 75.1667,120.5 75.5,120.5C 79.0857,121.793 82.7524,122.793 86.5,123.5C 87.7348,123.721 88.7348,124.388 89.5,125.5C 92.711,124.13 95.711,124.463 98.5,126.5C 100.456,124.852 102.789,124.185 105.5,124.5C 106.327,125.439 106.994,125.105 107.5,123.5C 108.959,123.567 110.292,123.234 111.5,122.5C 111.56,123.043 111.893,123.376 112.5,123.5C 113.265,122.388 114.265,121.721 115.5,121.5C 116.167,121.5 116.5,121.167 116.5,120.5C 117.396,121.506 118.062,121.506 118.5,120.5C 119.552,120.351 120.552,120.517 121.5,121C 116.77,126.354 111.104,130.188 104.5,132.5C 96.7789,132.903 89.4456,131.403 82.5,128C 80.1902,127.503 77.8568,127.337 75.5,127.5C 69.9229,123.985 68.0896,118.985 70,112.5C 70.3333,110.833 70.6667,109.167 71,107.5C 71.3826,108.056 71.8826,108.389 72.5,108.5C 74.9419,113.489 78.6086,114.656 83.5,112C 90.2345,108.475 92.7345,102.975 91,95.5C 89.669,93.0038 87.8356,91.0038 85.5,89.5C 83.7116,88.3775 81.7116,88.2109 79.5,89C 77.0462,90.4709 74.7129,91.9709 72.5,93.5C 72.5,91.8333 72.5,90.1667 72.5,88.5C 72.2594,86.1016 72.9261,84.1016 74.5,82.5 Z"/></g>
<g><path style="opacity:1" fill="#767676" d="M 80.5,117.5 C 81.5676,118.434 82.901,118.768 84.5,118.5C 84.3505,119.552 84.5172,120.552 85,121.5C 87.1836,119.168 89.6836,118.835 92.5,120.5C 92.4142,121.496 92.7476,122.329 93.5,123C 92.552,123.483 91.552,123.649 90.5,123.5C 90.6495,122.448 90.4828,121.448 90,120.5C 89.015,121.814 87.8484,122.814 86.5,123.5C 82.7524,122.793 79.0857,121.793 75.5,120.5C 76.0283,119.279 76.695,118.113 77.5,117C 76.552,116.517 75.552,116.351 74.5,116.5C 74.5,117.833 74.5,119.167 74.5,120.5C 72.744,119.448 72.0773,117.781 72.5,115.5C 75.5533,115.111 78.22,115.777 80.5,117.5 Z"/></g>
<g><path style="opacity:1" fill="#080808" d="M 75.5,120.5 C 75.1667,120.5 74.8333,120.5 74.5,120.5C 74.5,119.167 74.5,117.833 74.5,116.5C 75.552,116.351 76.552,116.517 77.5,117C 76.695,118.113 76.0283,119.279 75.5,120.5 Z"/></g>
<g><path style="opacity:1" fill="#4d4d4d" d="M 92.5,120.5 C 94.5,120.5 96.5,120.5 98.5,120.5C 98.5,122.5 98.5,124.5 98.5,126.5C 95.711,124.463 92.711,124.13 89.5,125.5C 88.7348,124.388 87.7348,123.721 86.5,123.5C 87.8484,122.814 89.015,121.814 90,120.5C 90.4828,121.448 90.6495,122.448 90.5,123.5C 91.552,123.649 92.552,123.483 93.5,123C 92.7476,122.329 92.4142,121.496 92.5,120.5 Z"/></g>
<g><path style="opacity:1" fill="#232323" d="M 113.5,120.5 C 113.833,120.5 114.167,120.5 114.5,120.5C 115.167,120.5 115.5,120.833 115.5,121.5C 114.265,121.721 113.265,122.388 112.5,123.5C 111.893,123.376 111.56,123.043 111.5,122.5C 111.5,121.167 112.167,120.5 113.5,120.5 Z"/></g>
<g><path style="opacity:1" fill="#d1d1d1" d="M 155.5,101.5 C 155.923,103.781 155.256,105.448 153.5,106.5C 149.823,105.499 148.156,107.166 148.5,111.5C 148.823,115.81 150.49,119.477 153.5,122.5C 155.031,128.123 153.031,130.123 147.5,128.5C 143.676,122.776 142.51,116.442 144,109.5C 145.255,103.073 149.088,100.407 155.5,101.5 Z"/></g>
<g><path style="opacity:1" fill="#525252" d="M 70.5,105.5 C 71.5511,106.222 72.2178,107.222 72.5,108.5C 71.8826,108.389 71.3826,108.056 71,107.5C 70.6667,109.167 70.3333,110.833 70,112.5C 68.0896,118.985 69.9229,123.985 75.5,127.5C 74.8333,128.167 74.1667,128.833 73.5,129.5C 72.1154,128.426 70.9487,127.093 70,125.5C 69.5034,127.81 69.3367,130.143 69.5,132.5C 69.1667,132.5 68.8333,132.5 68.5,132.5C 68.6516,126.971 68.3182,121.471 67.5,116C 68.42,112.369 69.42,108.869 70.5,105.5 Z"/></g>
<g><path style="opacity:1" fill="#808080" d="M 98.5,120.5 C 100.833,120.5 103.167,120.5 105.5,120.5C 105.5,121.833 105.5,123.167 105.5,124.5C 102.789,124.185 100.456,124.852 98.5,126.5C 98.5,124.5 98.5,122.5 98.5,120.5 Z"/></g>
<g><path style="opacity:1" fill="#212121" d="M 107.5,122.5 C 107.5,122.833 107.5,123.167 107.5,123.5C 106.994,125.105 106.327,125.439 105.5,124.5C 105.5,123.167 105.5,121.833 105.5,120.5C 105.81,119.262 106.31,119.262 107,120.5C 107.464,121.094 107.631,121.761 107.5,122.5 Z"/></g>
<g><path style="opacity:1" fill="#ededed" d="M 70.5,105.5 C 69.42,108.869 68.42,112.369 67.5,116C 68.3182,121.471 68.6516,126.971 68.5,132.5C 68.6641,135.187 68.4974,137.854 68,140.5C 65.9441,139.417 64.6108,137.75 64,135.5C 63.5004,128.842 63.3337,122.175 63.5,115.5C 63.6538,110.174 65.8205,105.841 70,102.5C 70.4828,103.448 70.6495,104.448 70.5,105.5 Z"/></g>
<g><path style="opacity:1" fill="#050505" d="M 73.5,129.5 C 77.3381,130.995 79.6715,133.662 80.5,137.5C 80.5,138.833 80.5,140.167 80.5,141.5C 79.4217,143.539 78.4217,145.706 77.5,148C 75.8333,148.667 74.1667,148.667 72.5,148C 70.1605,143.135 69.1605,137.968 69.5,132.5C 69.3367,130.143 69.5034,127.81 70,125.5C 70.9487,127.093 72.1154,128.426 73.5,129.5 Z"/></g>
<g><path style="opacity:1" fill="#030303" d="M 50.5,129.5 C 51.9063,129.973 52.573,130.973 52.5,132.5C 52.6658,137.179 52.4992,141.845 52,146.5C 51.7216,147.416 51.2216,148.082 50.5,148.5C 49.1667,148.5 47.8333,148.5 46.5,148.5C 46.5,146.833 46.5,145.167 46.5,143.5C 46.5,138.833 46.5,134.167 46.5,129.5C 47.8333,129.5 49.1667,129.5 50.5,129.5 Z"/></g>
<g><path style="opacity:1" fill="#e6e6e6" d="M 136.5,124.5 C 137.434,125.568 137.768,126.901 137.5,128.5C 134.5,128.5 131.5,128.5 128.5,128.5C 127.509,134.979 127.176,141.646 127.5,148.5C 126.07,148.421 124.736,148.754 123.5,149.5C 122.702,149.043 122.369,148.376 122.5,147.5C 122.5,141.5 122.5,135.5 122.5,129.5C 122.5,129.167 122.5,128.833 122.5,128.5C 123.833,127.5 125.167,126.5 126.5,125.5C 129.728,124.586 133.061,124.253 136.5,124.5 Z"/></g>
<g><path style="opacity:1" fill="#9c9c9c" d="M 153.5,122.5 C 155.167,123.5 156.5,124.833 157.5,126.5C 157.646,129.771 156.312,132.105 153.5,133.5C 151.46,131.823 149.46,130.156 147.5,128.5C 153.031,130.123 155.031,128.123 153.5,122.5 Z"/></g>
<g><path style="opacity:1" fill="#909090" d="M 75.5,127.5 C 77.8568,127.337 80.1902,127.503 82.5,128C 89.4456,131.403 96.7789,132.903 104.5,132.5C 98.82,133.743 92.9867,133.743 87,132.5C 85.6244,132.684 84.7911,133.351 84.5,134.5C 83.8501,134.196 83.1835,133.863 82.5,133.5C 81.8281,134.949 81.1614,136.282 80.5,137.5C 79.6715,133.662 77.3381,130.995 73.5,129.5C 74.1667,128.833 74.8333,128.167 75.5,127.5 Z"/></g>
<g><path style="opacity:1" fill="#b8b8b8" d="M 44.5,102.5 C 43.6091,103.261 42.9424,104.261 42.5,105.5C 43.3333,108.833 44.1667,112.167 45,115.5C 45.1805,112.305 45.6805,109.305 46.5,106.5C 46.5,112.5 46.5,118.5 46.5,124.5C 48.9115,124.863 50.4115,123.863 51,121.5C 51.4986,117.848 51.6653,114.182 51.5,110.5C 52.3247,114.647 52.8247,118.981 53,123.5C 53.6708,124.252 54.5041,124.586 55.5,124.5C 55.3893,125.117 55.056,125.617 54.5,126C 59.3736,131.735 60.7069,138.235 58.5,145.5C 57.0695,145.579 55.7362,145.246 54.5,144.5C 53.833,140.353 53.1663,136.353 52.5,132.5C 52.573,130.973 51.9063,129.973 50.5,129.5C 49.0813,128.549 47.4147,128.216 45.5,128.5C 45.7989,130.604 45.4656,132.604 44.5,134.5C 43.6667,133.5 42.8333,132.5 42,131.5C 41.8227,127.644 41.3227,123.977 40.5,120.5C 40.5,115.833 40.5,111.167 40.5,106.5C 39.1667,106.5 37.8333,106.5 36.5,106.5C 36.5,105.167 36.5,103.833 36.5,102.5C 39.1667,102.5 41.8333,102.5 44.5,102.5 Z"/></g>
<g><path style="opacity:1" fill="#6d6d6d" d="M 121.5,124.5 C 120.046,126.263 120.38,127.597 122.5,128.5C 122.5,128.833 122.5,129.167 122.5,129.5C 120.184,130.806 117.85,132.139 115.5,133.5C 114.503,140.134 114.17,146.8 114.5,153.5C 112.901,153.768 111.568,153.434 110.5,152.5C 111.5,152.5 112.5,152.5 113.5,152.5C 113.829,146.463 113.496,140.463 112.5,134.5C 111.818,135.243 111.151,135.909 110.5,136.5C 109.402,135.603 109.402,134.77 110.5,134C 110,133.833 109.5,133.667 109,133.5C 103.672,135.466 98.1718,136.466 92.5,136.5C 93.2625,135.732 94.2625,135.232 95.5,135C 92.3035,134.195 89.3035,134.362 86.5,135.5C 86.1667,135.5 85.8333,135.5 85.5,135.5C 85.5,134.833 85.1667,134.5 84.5,134.5C 84.7911,133.351 85.6244,132.684 87,132.5C 92.9867,133.743 98.82,133.743 104.5,132.5C 106.927,132.477 109.26,131.977 111.5,131C 115.003,128.978 118.337,126.811 121.5,124.5 Z"/></g>
<g><path style="opacity:1" fill="#242424" d="M 86.5,135.5 C 89.3035,134.362 92.3035,134.195 95.5,135C 94.2625,135.232 93.2625,135.732 92.5,136.5C 90.3792,136.675 88.3792,136.341 86.5,135.5 Z"/></g>
<g><path style="opacity:1" fill="#737373" d="M 157.5,126.5 C 159.25,127.659 160.25,129.326 160.5,131.5C 160.998,135.219 160.164,138.553 158,141.5C 157.617,140.944 157.117,140.611 156.5,140.5C 156.312,137.794 155.312,135.461 153.5,133.5C 156.312,132.105 157.646,129.771 157.5,126.5 Z"/></g>
<g><path style="opacity:1" fill="#a2a2a2" d="M 110.5,136.5 C 108.447,136.402 106.78,137.069 105.5,138.5C 102.5,138.5 99.5,138.5 96.5,138.5C 95.5,137.167 94.5,137.167 93.5,138.5C 91.139,138.326 88.8056,137.993 86.5,137.5C 86.7678,139.099 86.4345,140.432 85.5,141.5C 85.5,139.5 85.5,137.5 85.5,135.5C 85.8333,135.5 86.1667,135.5 86.5,135.5C 88.3792,136.341 90.3792,136.675 92.5,136.5C 98.1718,136.466 103.672,135.466 109,133.5C 109.5,133.667 110,133.833 110.5,134C 109.402,134.77 109.402,135.603 110.5,136.5 Z"/></g>
<g><path style="opacity:1" fill="#e5e5e5" d="M 110.5,152.5 C 108.84,147.88 107.174,143.213 105.5,138.5C 106.78,137.069 108.447,136.402 110.5,136.5C 111.151,135.909 111.818,135.243 112.5,134.5C 113.496,140.463 113.829,146.463 113.5,152.5C 112.5,152.5 111.5,152.5 110.5,152.5 Z"/></g>
<g><path style="opacity:1" fill="#707070" d="M 40.5,120.5 C 41.3227,123.977 41.8227,127.644 42,131.5C 42.8333,132.5 43.6667,133.5 44.5,134.5C 45.4656,132.604 45.7989,130.604 45.5,128.5C 47.4147,128.216 49.0813,128.549 50.5,129.5C 49.1667,129.5 47.8333,129.5 46.5,129.5C 46.5,134.167 46.5,138.833 46.5,143.5C 45.7321,144.263 45.2321,145.263 45,146.5C 42.837,144.859 41.337,142.859 40.5,140.5C 40.5,133.833 40.5,127.167 40.5,120.5 Z"/></g>
<g><path style="opacity:1" fill="#e1e1e1" d="M 84.5,134.5 C 85.1667,134.5 85.5,134.833 85.5,135.5C 85.5,137.5 85.5,139.5 85.5,141.5C 85.3964,143.703 84.7298,145.703 83.5,147.5C 82.0222,147.762 80.6888,147.429 79.5,146.5C 80.3094,144.929 80.6427,143.262 80.5,141.5C 80.5,140.167 80.5,138.833 80.5,137.5C 81.1614,136.282 81.8281,134.949 82.5,133.5C 83.1835,133.863 83.8501,134.196 84.5,134.5 Z"/></g>
<g><path style="opacity:1" fill="#828282" d="M 147.5,143.5 C 147.799,145.604 147.466,147.604 146.5,149.5C 145.583,148.873 144.583,148.539 143.5,148.5C 141.465,143.66 142.465,139.66 146.5,136.5C 147.474,138.743 147.808,141.076 147.5,143.5 Z"/></g>
<g><path style="opacity:1" fill="#818181" d="M 119.5,152.5 C 123.792,152.965 127.792,152.132 131.5,150C 130.263,149.768 129.263,149.268 128.5,148.5C 136.172,150.153 139.172,147.153 137.5,139.5C 138.5,139.5 139.5,139.5 140.5,139.5C 140.5,144.167 140.5,148.833 140.5,153.5C 133.313,153.825 126.313,153.491 119.5,152.5 Z"/></g>
<g><path style="opacity:1" fill="#aeaeae" d="M 63.5,115.5 C 63.3337,122.175 63.5004,128.842 64,135.5C 64.6108,137.75 65.9441,139.417 68,140.5C 68.4974,137.854 68.6641,135.187 68.5,132.5C 68.8333,132.5 69.1667,132.5 69.5,132.5C 69.1605,137.968 70.1605,143.135 72.5,148C 74.1667,148.667 75.8333,148.667 77.5,148C 78.4217,145.706 79.4217,143.539 80.5,141.5C 80.6427,143.262 80.3094,144.929 79.5,146.5C 80.6888,147.429 82.0222,147.762 83.5,147.5C 80.8988,153.062 76.5655,154.896 70.5,153C 66.4908,148.99 63.9908,144.157 63,138.5C 62.1777,130.655 62.3443,122.989 63.5,115.5 Z"/></g>
<g><path style="opacity:1" fill="#6f6f6f" d="M 52.5,132.5 C 53.1663,136.353 53.833,140.353 54.5,144.5C 55.7362,145.246 57.0695,145.579 58.5,145.5C 58.1551,148.198 56.8218,150.198 54.5,151.5C 53.1667,151.5 51.8333,151.5 50.5,151.5C 50.5,150.5 50.5,149.5 50.5,148.5C 51.2216,148.082 51.7216,147.416 52,146.5C 52.4992,141.845 52.6658,137.179 52.5,132.5 Z"/></g>
<g><path style="opacity:1" fill="#464646" d="M 160.5,131.5 C 162.16,138.012 161.327,144.345 158,150.5C 152.367,155.005 147.533,154.338 143.5,148.5C 144.583,148.539 145.583,148.873 146.5,149.5C 147.466,147.604 147.799,145.604 147.5,143.5C 148.267,146.027 149.767,148.027 152,149.5C 155.286,147.52 156.786,144.52 156.5,140.5C 157.117,140.611 157.617,140.944 158,141.5C 160.164,138.553 160.998,135.219 160.5,131.5 Z"/></g>
<g><path style="opacity:1" fill="#bfbfbf" d="M 96.5,138.5 C 96.3354,141.518 96.502,144.518 97,147.5C 97.7096,148.973 98.8762,149.64 100.5,149.5C 100.5,150.833 100.5,152.167 100.5,153.5C 97.1667,153.5 93.8333,153.5 90.5,153.5C 90.2746,151.284 91.1079,149.617 93,148.5C 93.4983,145.183 93.665,141.85 93.5,138.5C 94.5,137.167 95.5,137.167 96.5,138.5 Z"/></g>
<g><path style="opacity:1" fill="#a8a8a8" d="M 128.5,128.5 C 128.5,135.167 128.5,141.833 128.5,148.5C 129.263,149.268 130.263,149.768 131.5,150C 127.792,152.132 123.792,152.965 119.5,152.5C 118.146,149.79 119.146,148.123 122.5,147.5C 122.369,148.376 122.702,149.043 123.5,149.5C 124.736,148.754 126.07,148.421 127.5,148.5C 127.176,141.646 127.509,134.979 128.5,128.5 Z"/></g>
<g><path style="opacity:1" fill="#454545" d="M 40.5,140.5 C 41.337,142.859 42.837,144.859 45,146.5C 45.2321,145.263 45.7321,144.263 46.5,143.5C 46.5,145.167 46.5,146.833 46.5,148.5C 47.8333,148.5 49.1667,148.5 50.5,148.5C 50.5,149.5 50.5,150.5 50.5,151.5C 51.8333,151.5 53.1667,151.5 54.5,151.5C 54.0825,152.222 53.4158,152.722 52.5,153C 47.5111,153.499 42.5111,153.666 37.5,153.5C 37.2746,151.284 38.1079,149.617 40,148.5C 40.4974,145.854 40.6641,143.187 40.5,140.5 Z"/></g>
</svg>
