<?xml version="1.0" encoding="UTF-8"?>
<!DOCTYPE svg PUBLIC "-//W3C//DTD SVG 1.1//EN" "http://www.w3.org/Graphics/SVG/1.1/DTD/svg11.dtd">
<svg xmlns="http://www.w3.org/2000/svg" version="1.1" width="200px" height="200px" style="shape-rendering:geometricPrecision; text-rendering:geometricPrecision; image-rendering:optimizeQuality; fill-rule:evenodd; clip-rule:evenodd" xmlns:xlink="http://www.w3.org/1999/xlink">
<g><path style="opacity:0.975" fill="#020202" d="M 82.5,-0.5 C 93.8333,-0.5 105.167,-0.5 116.5,-0.5C 161.167,10.1667 188.833,37.8333 199.5,82.5C 199.5,93.8333 199.5,105.167 199.5,116.5C 188.833,161.167 161.167,188.833 116.5,199.5C 105.167,199.5 93.8333,199.5 82.5,199.5C 37.8333,188.833 10.1667,161.167 -0.5,116.5C -0.5,105.167 -0.5,93.8333 -0.5,82.5C 10.1667,37.8333 37.8333,10.1667 82.5,-0.5 Z"/></g>
<g><path style="opacity:1" fill="#767676" d="M 71.5,43.5 C 72.8062,42.5326 73.4729,41.1993 73.5,39.5C 69.1667,39.5 64.8333,39.5 60.5,39.5C 60.5271,41.1993 61.1938,42.5326 62.5,43.5C 61.5,43.5 60.5,43.5 59.5,43.5C 59.5,41.8333 59.5,40.1667 59.5,38.5C 64.5,38.5 69.5,38.5 74.5,38.5C 74.5,40.1667 74.5,41.8333 74.5,43.5C 73.5,43.5 72.5,43.5 71.5,43.5 Z"/></g>
<g><path style="opacity:1" fill="#858585" d="M 87.5,43.5 C 88.8062,42.5326 89.4729,41.1993 89.5,39.5C 86.1667,39.5 82.8333,39.5 79.5,39.5C 79.5271,41.1993 80.1938,42.5326 81.5,43.5C 80.5,43.5 79.5,43.5 78.5,43.5C 78.5,41.8333 78.5,40.1667 78.5,38.5C 82.5,38.5 86.5,38.5 90.5,38.5C 90.5,40.1667 90.5,41.8333 90.5,43.5C 89.5,43.5 88.5,43.5 87.5,43.5 Z"/></g>
<g><path style="opacity:1" fill="#333333" d="M 45.5,39.5 C 43.1432,39.3367 40.8098,39.5034 38.5,40C 37.2367,42.3858 35.4033,44.2192 33,45.5C 32.5045,47.4727 32.3379,49.4727 32.5,51.5C 32.7845,53.4147 32.4511,55.0813 31.5,56.5C 31.5,52.1667 31.5,47.8333 31.5,43.5C 30.5,43.5 29.5,43.5 28.5,43.5C 28.5,42.1667 28.5,40.8333 28.5,39.5C 34.3235,38.4183 39.9901,38.4183 45.5,39.5 Z"/></g>
<g><path style="opacity:1" fill="#c2c2c2" d="M 98.5,52.5 C 97.8347,50.3021 97.1681,47.9688 96.5,45.5C 95.265,46.3398 94.265,47.3398 93.5,48.5C 93.5,48.1667 93.5,47.8333 93.5,47.5C 95.3203,38.8199 100.32,35.9865 108.5,39C 112.671,42.8543 113.504,47.3543 111,52.5C 109.89,54.0368 108.39,54.7035 106.5,54.5C 106.664,51.8127 106.497,49.146 106,46.5C 104.193,41.75 101.86,41.4167 99,45.5C 98.5034,47.8098 98.3367,50.1432 98.5,52.5 Z"/></g>
<g><path style="opacity:1" fill="#626262" d="M 141.5,38.5 C 146.5,38.5 151.5,38.5 156.5,38.5C 154.614,41.4554 153.614,44.7887 153.5,48.5C 152.784,46.4437 152.117,44.277 151.5,42C 148.829,40.097 145.829,39.2637 142.5,39.5C 142.433,40.9587 142.766,42.2921 143.5,43.5C 142.833,47.1667 142.167,50.8333 141.5,54.5C 141.5,49.1667 141.5,43.8333 141.5,38.5 Z"/></g>
<g><path style="opacity:1" fill="#3b3b3b" d="M 167.5,47.5 C 167.539,45.6412 166.706,44.3079 165,43.5C 164.814,46.0356 164.314,48.369 163.5,50.5C 163.663,48.1432 163.497,45.8098 163,43.5C 161.108,42.3826 160.275,40.7159 160.5,38.5C 164.167,38.5 167.833,38.5 171.5,38.5C 170.59,41.7257 169.257,44.7257 167.5,47.5 Z"/></g>
<g><path style="opacity:1" fill="#4a4a4a" d="M 45.5,39.5 C 47.153,39.6596 48.4863,40.3263 49.5,41.5C 47.4727,41.3379 45.4727,41.5045 43.5,42C 42.944,42.3826 42.6107,42.8826 42.5,43.5C 41.1667,43.5 39.8333,43.5 38.5,43.5C 38.5,44.8333 38.5,46.1667 38.5,47.5C 37.8826,47.3893 37.3826,47.056 37,46.5C 35.9509,48.6175 34.4509,50.2842 32.5,51.5C 32.3379,49.4727 32.5045,47.4727 33,45.5C 35.4033,44.2192 37.2367,42.3858 38.5,40C 40.8098,39.5034 43.1432,39.3367 45.5,39.5 Z"/></g>
<g><path style="opacity:1" fill="#b1b1b1" d="M 87.5,43.5 C 86.3467,49.6529 86.18,55.9863 87,62.5C 87.6708,61.7476 88.5041,61.4142 89.5,61.5C 89.0133,62.4734 88.5133,63.4734 88,64.5C 87.0138,63.8288 85.8471,63.8288 84.5,64.5C 82.7607,67.2427 80.4274,69.2427 77.5,70.5C 78.7927,68.7041 80.2927,67.0375 82,65.5C 82.8218,57.9882 82.6552,50.6549 81.5,43.5C 80.1938,42.5326 79.5271,41.1993 79.5,39.5C 82.8333,39.5 86.1667,39.5 89.5,39.5C 89.4729,41.1993 88.8062,42.5326 87.5,43.5 Z"/></g>
<g><path style="opacity:1" fill="#969696" d="M 141.5,38.5 C 141.5,43.8333 141.5,49.1667 141.5,54.5C 140.5,54.5 139.5,54.5 138.5,54.5C 138.665,51.4816 138.498,48.4816 138,45.5C 136.556,43.8446 134.722,43.178 132.5,43.5C 132.167,43.5 131.833,43.5 131.5,43.5C 131.918,42.7784 132.584,42.2784 133.5,42C 127.732,39.772 121.732,38.9386 115.5,39.5C 115.5,44.5 115.5,49.5 115.5,54.5C 114.512,49.3595 114.179,44.0262 114.5,38.5C 123.5,38.5 132.5,38.5 141.5,38.5 Z"/></g>
<g><path style="opacity:1" fill="#6f6f6f" d="M 49.5,41.5 C 51.3264,43.1475 52.6597,45.1475 53.5,47.5C 49.5501,46.344 47.8834,48.0107 48.5,52.5C 47.7555,48.6817 45.7555,45.6817 42.5,43.5C 42.6107,42.8826 42.944,42.3826 43.5,42C 45.4727,41.5045 47.4727,41.3379 49.5,41.5 Z"/></g>
<g><path style="opacity:1" fill="#070707" d="M 42.5,43.5 C 45.7555,45.6817 47.7555,48.6817 48.5,52.5C 49.3721,58.7889 49.7054,65.1222 49.5,71.5C 48.9931,76.5474 48.1597,81.5474 47,86.5C 46.4339,89.2287 44.9339,91.2287 42.5,92.5C 41.1667,92.5 39.8333,92.5 38.5,92.5C 38.5,85.5 38.5,78.5 38.5,71.5C 38.5,67.5 38.5,63.5 38.5,59.5C 38.5,55.5 38.5,51.5 38.5,47.5C 38.5,46.1667 38.5,44.8333 38.5,43.5C 39.8333,43.5 41.1667,43.5 42.5,43.5 Z"/></g>
<g><path style="opacity:1" fill="#c1c1c1" d="M 131.5,43.5 C 131.5,46.8333 131.5,50.1667 131.5,53.5C 130.651,50.0918 128.651,48.7584 125.5,49.5C 125.795,47.2646 125.461,45.2646 124.5,43.5C 122.712,43.2148 121.045,43.5481 119.5,44.5C 118.583,47.7577 118.249,51.091 118.5,54.5C 117.5,54.5 116.5,54.5 115.5,54.5C 115.5,49.5 115.5,44.5 115.5,39.5C 121.732,38.9386 127.732,39.772 133.5,42C 132.584,42.2784 131.918,42.7784 131.5,43.5 Z"/></g>
<g><path style="opacity:1" fill="#5d5d5d" d="M 167.5,47.5 C 167.118,52.0918 166.118,56.4251 164.5,60.5C 164.662,58.4727 164.495,56.4727 164,54.5C 163.722,55.4158 163.222,56.0825 162.5,56.5C 162.517,54.4352 162.85,52.4352 163.5,50.5C 164.314,48.369 164.814,46.0356 165,43.5C 166.706,44.3079 167.539,45.6412 167.5,47.5 Z"/></g>
<g><path style="opacity:1" fill="#a1a1a1" d="M 53.5,47.5 C 55.2766,50.5046 56.2766,53.8379 56.5,57.5C 55.4035,52.8949 53.5702,52.5616 51,56.5C 50.8261,61.6835 50.3261,66.6835 49.5,71.5C 49.7054,65.1222 49.3721,58.7889 48.5,52.5C 47.8834,48.0107 49.5501,46.344 53.5,47.5 Z"/></g>
<g><path style="opacity:1" fill="#f2f2f2" d="M 98.5,52.5 C 98.4326,53.9587 98.7659,55.2921 99.5,56.5C 98.063,57.7255 96.3964,58.7255 94.5,59.5C 93.5108,55.8927 93.1774,52.226 93.5,48.5C 94.265,47.3398 95.265,46.3398 96.5,45.5C 97.1681,47.9688 97.8347,50.3021 98.5,52.5 Z"/></g>
<g><path style="opacity:1" fill="#9e9e9e" d="M 153.5,48.5 C 154.992,54.1326 156.325,59.7993 157.5,65.5C 156.367,61.6847 154.034,58.6847 150.5,56.5C 150.218,58.9866 150.218,61.6533 150.5,64.5C 148.573,59.0719 147.073,53.4052 146,47.5C 145.8,45.6803 144.966,44.347 143.5,43.5C 142.766,42.2921 142.433,40.9587 142.5,39.5C 145.829,39.2637 148.829,40.097 151.5,42C 152.117,44.277 152.784,46.4437 153.5,48.5 Z"/></g>
<g><path style="opacity:1" fill="#6d6d6d" d="M 38.5,47.5 C 38.5,51.5 38.5,55.5 38.5,59.5C 35.9768,58.6814 34.1435,59.6814 33,62.5C 32.5005,68.4908 32.3338,74.4908 32.5,80.5C 32.815,84.3714 32.4816,88.0381 31.5,91.5C 31.5,79.8333 31.5,68.1667 31.5,56.5C 32.4511,55.0813 32.7845,53.4147 32.5,51.5C 34.4509,50.2842 35.9509,48.6175 37,46.5C 37.3826,47.056 37.8826,47.3893 38.5,47.5 Z"/></g>
<g><path style="opacity:1" fill="#808080" d="M 93.5,47.5 C 93.5,47.8333 93.5,48.1667 93.5,48.5C 93.1774,52.226 93.5108,55.8927 94.5,59.5C 96.3964,58.7255 98.063,57.7255 99.5,56.5C 105.864,55.4035 112.198,55.4035 118.5,56.5C 118.833,57.8333 119.167,59.1667 119.5,60.5C 113.545,59.6365 107.545,59.3032 101.5,59.5C 98.1667,59.8333 94.8333,60.1667 91.5,60.5C 92.1132,56.063 92.7798,51.7297 93.5,47.5 Z"/></g>
<g><path style="opacity:1" fill="#f1f1f1" d="M 84.5,64.5 C 83.1812,57.656 83.1812,50.656 84.5,43.5C 85.7944,50.5566 85.7944,57.5566 84.5,64.5 Z"/></g>
<g><path style="opacity:1" fill="#aaaaaa" d="M 71.5,43.5 C 70.5184,46.9619 70.185,50.6286 70.5,54.5C 69.834,51.6417 69.1674,48.6417 68.5,45.5C 67.2638,46.2458 65.9305,46.5792 64.5,46.5C 64.5,50.5 64.5,54.5 64.5,58.5C 64.5,67.8333 64.5,77.1667 64.5,86.5C 63.8333,72.1667 63.1667,57.8333 62.5,43.5C 61.1938,42.5326 60.5271,41.1993 60.5,39.5C 64.8333,39.5 69.1667,39.5 73.5,39.5C 73.4729,41.1993 72.8062,42.5326 71.5,43.5 Z"/></g>
<g><path style="opacity:1" fill="#626262" d="M 124.5,43.5 C 125.461,45.2646 125.795,47.2646 125.5,49.5C 125.18,52.8984 125.513,56.2317 126.5,59.5C 127.833,60.1667 129.167,60.8333 130.5,61.5C 131.48,58.9135 131.813,56.2469 131.5,53.5C 131.5,50.1667 131.5,46.8333 131.5,43.5C 131.833,43.5 132.167,43.5 132.5,43.5C 132.811,50.0898 132.478,56.5898 131.5,63C 133.66,63.9959 135.327,65.4959 136.5,67.5C 135.833,67.8333 135.167,68.1667 134.5,68.5C 133.71,67.5987 132.71,66.9321 131.5,66.5C 130.421,64.457 128.754,63.1237 126.5,62.5C 124.228,61.6814 121.894,61.0147 119.5,60.5C 119.167,59.1667 118.833,57.8333 118.5,56.5C 120.138,57.1589 121.805,57.8256 123.5,58.5C 124.494,53.544 124.827,48.544 124.5,43.5 Z"/></g>
<g><path style="opacity:1" fill="#e7e7e7" d="M 131.5,53.5 C 131.813,56.2469 131.48,58.9135 130.5,61.5C 129.167,60.8333 127.833,60.1667 126.5,59.5C 125.513,56.2317 125.18,52.8984 125.5,49.5C 128.651,48.7584 130.651,50.0918 131.5,53.5 Z"/></g>
<g><path style="opacity:1" fill="#d7d7d7" d="M 56.5,57.5 C 56.8254,65.3516 56.492,73.0182 55.5,80.5C 55.665,77.1501 55.4983,73.8168 55,70.5C 50.3611,77.0336 47.8611,84.3669 47.5,92.5C 47.7472,93.7133 48.4138,94.38 49.5,94.5C 48.3406,96.2503 46.674,97.2503 44.5,97.5C 42.1667,97.5 39.8333,97.5 37.5,97.5C 37.5,96.1667 37.5,94.8333 37.5,93.5C 39.4147,93.7845 41.0813,93.4511 42.5,92.5C 44.9339,91.2287 46.4339,89.2287 47,86.5C 48.1597,81.5474 48.9931,76.5474 49.5,71.5C 50.3261,66.6835 50.8261,61.6835 51,56.5C 53.5702,52.5616 55.4035,52.8949 56.5,57.5 Z"/></g>
<g><path style="opacity:1" fill="#d9d9d9" d="M 70.5,54.5 C 70.5,62.8333 70.5,71.1667 70.5,79.5C 70.7373,80.791 70.404,81.791 69.5,82.5C 69.6664,73.4938 69.4998,64.4938 69,55.5C 67.7292,56.8825 66.2292,57.8825 64.5,58.5C 64.5,54.5 64.5,50.5 64.5,46.5C 65.9305,46.5792 67.2638,46.2458 68.5,45.5C 69.1674,48.6417 69.834,51.6417 70.5,54.5 Z"/></g>
<g><path style="opacity:1" fill="#333333" d="M 71.5,43.5 C 71.1721,54.6794 71.5054,65.6794 72.5,76.5C 72.0679,77.7095 71.4013,78.7095 70.5,79.5C 70.5,71.1667 70.5,62.8333 70.5,54.5C 70.185,50.6286 70.5184,46.9619 71.5,43.5 Z"/></g>
<g><path style="opacity:1" fill="#f6f6f6" d="M 69.5,82.5 C 68.7378,86.6709 67.7378,90.6709 66.5,94.5C 65.6295,91.8877 64.9628,89.221 64.5,86.5C 64.5,77.1667 64.5,67.8333 64.5,58.5C 66.2292,57.8825 67.7292,56.8825 69,55.5C 69.4998,64.4938 69.6664,73.4938 69.5,82.5 Z"/></g>
<g><path style="opacity:1" fill="#f3f3f3" d="M 101.5,59.5 C 107.545,59.3032 113.545,59.6365 119.5,60.5C 121.894,61.0147 124.228,61.6814 126.5,62.5C 127.175,71.1187 127.175,79.7854 126.5,88.5C 122.384,86.7777 118.05,86.2777 113.5,87C 109.812,87.1952 107.478,89.0285 106.5,92.5C 104.974,93.4919 104.307,94.9919 104.5,97C 104.514,98.3847 104.848,99.5514 105.5,100.5C 106.369,104.03 107.703,107.364 109.5,110.5C 110.957,112.628 111.957,114.962 112.5,117.5C 116.332,117.587 119.665,118.587 122.5,120.5C 120.181,120.992 118.181,121.992 116.5,123.5C 115.167,123.5 113.833,123.5 112.5,123.5C 110.5,123.5 108.5,123.5 106.5,123.5C 102.278,123.922 98.2778,123.255 94.5,121.5C 96.2914,120.83 97.9581,120.163 99.5,119.5C 101.487,116.141 101.987,112.475 101,108.5C 99.7092,104.932 97.8759,104.599 95.5,107.5C 94.8826,107.389 94.3826,107.056 94,106.5C 93.8171,103.635 93.3171,100.969 92.5,98.5C 92.1075,96.7162 91.4408,95.0495 90.5,93.5C 89.6371,92.0597 89.6371,90.7264 90.5,89.5C 89.91,88.2011 88.91,87.3678 87.5,87C 82.7848,85.6213 78.7848,86.6213 75.5,90C 74.552,90.4828 73.552,90.6495 72.5,90.5C 72.3512,87.3926 72.8512,84.3926 74,81.5C 80.0986,70.2161 89.2653,62.8828 101.5,59.5 Z"/></g>
<g><path style="opacity:1" fill="#cdcdcd" d="M 157.5,65.5 C 158.771,68.6864 159.771,72.0197 160.5,75.5C 160.5,80.8333 160.5,86.1667 160.5,91.5C 160.705,84.1843 158.538,77.5176 154,71.5C 153.517,72.448 153.351,73.448 153.5,74.5C 151.899,71.4498 150.899,68.1165 150.5,64.5C 150.218,61.6533 150.218,58.9866 150.5,56.5C 154.034,58.6847 156.367,61.6847 157.5,65.5 Z"/></g>
<g><path style="opacity:1" fill="#959595" d="M 164.5,60.5 C 163.611,65.7285 162.278,70.7285 160.5,75.5C 159.771,72.0197 158.771,68.6864 157.5,65.5C 158.268,66.2625 158.768,67.2625 159,68.5C 159.881,64.2915 161.047,60.2915 162.5,56.5C 163.222,56.0825 163.722,55.4158 164,54.5C 164.495,56.4727 164.662,58.4727 164.5,60.5 Z"/></g>
<g><path style="opacity:1" fill="#eeeeee" d="M 55.5,80.5 C 55.1209,85.9184 53.1209,90.5851 49.5,94.5C 48.4138,94.38 47.7472,93.7133 47.5,92.5C 47.8611,84.3669 50.3611,77.0336 55,70.5C 55.4983,73.8168 55.665,77.1501 55.5,80.5 Z"/></g>
<g><path style="opacity:1" fill="#9c9c9c" d="M 38.5,59.5 C 38.5,63.5 38.5,67.5 38.5,71.5C 37.325,71.281 36.325,71.6143 35.5,72.5C 34.9912,75.4621 33.9912,78.1288 32.5,80.5C 32.3338,74.4908 32.5005,68.4908 33,62.5C 34.1435,59.6814 35.9768,58.6814 38.5,59.5 Z"/></g>
<g><path style="opacity:1" fill="#e1e2e1" d="M 160.5,91.5 C 161.779,92.968 163.446,93.6347 165.5,93.5C 165.5,94.8333 165.5,96.1667 165.5,97.5C 160.167,97.5 154.833,97.5 149.5,97.5C 149.5,96.1667 149.5,94.8333 149.5,93.5C 150.822,93.67 151.989,93.3366 153,92.5C 153.499,86.5092 153.666,80.5092 153.5,74.5C 153.351,73.448 153.517,72.448 154,71.5C 158.538,77.5176 160.705,84.1843 160.5,91.5 Z"/></g>
<g><path style="opacity:1" fill="#c0c0c0" d="M 38.5,71.5 C 38.5,78.5 38.5,85.5 38.5,92.5C 39.8333,92.5 41.1667,92.5 42.5,92.5C 41.0813,93.4511 39.4147,93.7845 37.5,93.5C 37.5,94.8333 37.5,96.1667 37.5,97.5C 34.5,97.5 31.5,97.5 28.5,97.5C 28.5,96.1667 28.5,94.8333 28.5,93.5C 30.1788,93.7148 31.1788,93.0481 31.5,91.5C 32.4816,88.0381 32.815,84.3714 32.5,80.5C 33.9912,78.1288 34.9912,75.4621 35.5,72.5C 36.325,71.6143 37.325,71.281 38.5,71.5 Z"/></g>
<g><path style="opacity:1" fill="#969696" d="M 77.5,70.5 C 76.3791,74.4736 74.5457,78.1403 72,81.5C 71.501,85.8206 71.3343,90.1539 71.5,94.5C 71.1667,94.5 70.8333,94.5 70.5,94.5C 70.6602,92.8008 70.4935,91.1341 70,89.5C 68.7844,91.962 68.1177,94.6287 68,97.5C 67.4867,96.4734 66.9867,95.4734 66.5,94.5C 67.7378,90.6709 68.7378,86.6709 69.5,82.5C 70.404,81.791 70.7373,80.791 70.5,79.5C 71.4013,78.7095 72.0679,77.7095 72.5,76.5C 74.1964,74.4752 75.863,72.4752 77.5,70.5 Z"/></g>
<g><path style="opacity:1" fill="#a7a7a7" d="M 131.5,66.5 C 132.71,66.9321 133.71,67.5987 134.5,68.5C 135.167,68.1667 135.833,67.8333 136.5,67.5C 138.81,70.1019 140.643,73.1019 142,76.5C 142.5,84.8267 142.666,93.16 142.5,101.5C 141.833,101.5 141.5,101.833 141.5,102.5C 140.527,100.052 140.194,97.3854 140.5,94.5C 141.638,91.6965 141.805,88.6965 141,85.5C 140.333,88.1667 139.667,88.1667 139,85.5C 138.751,86.624 138.251,87.624 137.5,88.5C 135.846,83.3292 134.846,77.9959 134.5,72.5C 132.678,72.8308 131.011,73.4975 129.5,74.5C 128.964,71.3019 129.631,68.6353 131.5,66.5 Z"/></g>
<g><path style="opacity:1" fill="#d7d7d7" d="M 134.5,68.5 C 138.902,73.0429 140.235,78.3762 138.5,84.5C 137.239,80.9391 136.406,77.2724 136,73.5C 135.365,72.0337 134.531,70.7003 133.5,69.5C 133.624,68.8933 133.957,68.56 134.5,68.5 Z"/></g>
<g><path style="opacity:1" fill="#d4d4d4" d="M 126.5,62.5 C 128.754,63.1237 130.421,64.457 131.5,66.5C 129.631,68.6353 128.964,71.3019 129.5,74.5C 129.069,80.0228 129.736,85.3561 131.5,90.5C 131.715,92.1788 131.048,93.1788 129.5,93.5C 121.963,87.592 114.296,87.2587 106.5,92.5C 107.478,89.0285 109.812,87.1952 113.5,87C 118.05,86.2777 122.384,86.7777 126.5,88.5C 127.175,79.7854 127.175,71.1187 126.5,62.5 Z"/></g>
<g><path style="opacity:1" fill="#dadada" d="M 101.5,59.5 C 89.2653,62.8828 80.0986,70.2161 74,81.5C 72.8512,84.3926 72.3512,87.3926 72.5,90.5C 73.552,90.6495 74.552,90.4828 75.5,90C 78.7848,86.6213 82.7848,85.6213 87.5,87C 88.91,87.3678 89.91,88.2011 90.5,89.5C 89.6371,90.7264 89.6371,92.0597 90.5,93.5C 89.1667,92.5 87.8333,91.5 86.5,90.5C 84.3718,89.3709 82.0385,89.2042 79.5,90C 76.443,90.9165 73.7764,92.4165 71.5,94.5C 71.3343,90.1539 71.501,85.8206 72,81.5C 74.5457,78.1403 76.3791,74.4736 77.5,70.5C 80.4274,69.2427 82.7607,67.2427 84.5,64.5C 85.8471,63.8288 87.0138,63.8288 88,64.5C 88.5133,63.4734 89.0133,62.4734 89.5,61.5C 89.8417,60.6618 90.5084,60.3284 91.5,60.5C 94.8333,60.1667 98.1667,59.8333 101.5,59.5 Z"/></g>
<g><path style="opacity:1" fill="#646464" d="M 86.5,90.5 C 80.6328,90.9331 75.6328,93.2664 71.5,97.5C 70.6143,96.675 70.281,95.675 70.5,94.5C 70.8333,94.5 71.1667,94.5 71.5,94.5C 73.7764,92.4165 76.443,90.9165 79.5,90C 82.0385,89.2042 84.3718,89.3709 86.5,90.5 Z"/></g>
<g><path style="opacity:1" fill="#6f6f6f" d="M 129.5,93.5 C 130.234,94.7079 130.567,96.0413 130.5,97.5C 123.067,89.7303 114.9,88.7303 106,94.5C 105.505,96.4727 105.338,98.4727 105.5,100.5C 104.848,99.5514 104.514,98.3847 104.5,97C 104.307,94.9919 104.974,93.4919 106.5,92.5C 114.296,87.2587 121.963,87.592 129.5,93.5 Z"/></g>
<g><path style="opacity:1" fill="#040404" d="M 130.5,97.5 C 131.11,98.391 131.443,99.391 131.5,100.5C 131.665,103.85 131.498,107.183 131,110.5C 129.434,113.813 126.767,115.479 123,115.5C 119.838,115.269 116.672,114.936 113.5,114.5C 112.5,112.833 111.167,111.5 109.5,110.5C 107.703,107.364 106.369,104.03 105.5,100.5C 105.338,98.4727 105.505,96.4727 106,94.5C 114.9,88.7303 123.067,89.7303 130.5,97.5 Z"/></g>
<g><path style="opacity:1" fill="#797979" d="M 140.5,94.5 C 139.778,94.0825 139.278,93.4158 139,92.5C 138.829,100.011 138.329,107.345 137.5,114.5C 136.325,114.281 135.325,114.614 134.5,115.5C 132.538,118.433 130.871,121.433 129.5,124.5C 129.714,122.856 129.38,121.356 128.5,120C 132.944,116.44 134.944,111.773 134.5,106C 133.874,100.648 132.874,95.4813 131.5,90.5C 129.736,85.3561 129.069,80.0228 129.5,74.5C 131.011,73.4975 132.678,72.8308 134.5,72.5C 134.846,77.9959 135.846,83.3292 137.5,88.5C 138.251,87.624 138.751,86.624 139,85.5C 139.667,88.1667 140.333,88.1667 141,85.5C 141.805,88.6965 141.638,91.6965 140.5,94.5 Z"/></g>
<g><path style="opacity:1" fill="#7f7f7f" d="M 28.5,93.5 C 28.5,94.8333 28.5,96.1667 28.5,97.5C 31.5,97.5 34.5,97.5 37.5,97.5C 39.8333,97.5 42.1667,97.5 44.5,97.5C 39.0247,98.4889 33.358,98.8222 27.5,98.5C 27.2155,96.5853 27.5489,94.9187 28.5,93.5 Z"/></g>
<g><path style="opacity:1" fill="#494949" d="M 140.5,94.5 C 140.194,97.3854 140.527,100.052 141.5,102.5C 141.5,103.5 141.5,104.5 141.5,105.5C 141.329,116.146 140.829,116.146 140,105.5C 139.76,109.252 139.26,112.919 138.5,116.5C 137.662,116.158 137.328,115.492 137.5,114.5C 138.329,107.345 138.829,100.011 139,92.5C 139.278,93.4158 139.778,94.0825 140.5,94.5 Z"/></g>
<g><path style="opacity:1" fill="#f4f4f4" d="M 142.5,101.5 C 142.5,102.167 142.5,102.833 142.5,103.5C 143.919,104.451 145.585,104.784 147.5,104.5C 147.827,109.214 147.493,113.88 146.5,118.5C 145.832,116.031 145.165,113.698 144.5,111.5C 144.167,110.5 143.5,109.833 142.5,109.5C 142.768,107.901 142.434,106.568 141.5,105.5C 141.5,104.5 141.5,103.5 141.5,102.5C 141.5,101.833 141.833,101.5 142.5,101.5 Z"/></g>
<g><path style="opacity:1" fill="#b9b9b9" d="M 159.5,104.5 C 171.355,102.644 175.022,107.478 170.5,119C 169.207,119.49 167.873,119.657 166.5,119.5C 166.929,115.743 166.263,112.243 164.5,109C 163.552,108.517 162.552,108.351 161.5,108.5C 162.209,107.596 163.209,107.263 164.5,107.5C 164.5,106.5 164.5,105.5 164.5,104.5C 162.833,104.5 161.167,104.5 159.5,104.5 Z"/></g>
<g><path style="opacity:1" fill="#e6e6e6" d="M 46.5,105.5 C 50.5669,106.592 53.0669,109.258 54,113.5C 54.8182,118.651 54.3182,123.651 52.5,128.5C 49.9505,128.439 48.4505,127.106 48,124.5C 47.8227,120.644 47.3227,116.977 46.5,113.5C 46.6716,112.508 46.3382,111.842 45.5,111.5C 45.179,110.183 44.8457,108.849 44.5,107.5C 44.7472,106.287 45.4138,105.62 46.5,105.5 Z"/></g>
<g><path style="opacity:1" fill="#121212" d="M 99.5,119.5 C 97.8002,119.374 96.3002,118.707 95,117.5C 93.8615,117.989 92.6948,118.322 91.5,118.5C 91.3398,116.801 91.5065,115.134 92,113.5C 93.4213,111.595 94.588,109.595 95.5,107.5C 97.8759,104.599 99.7092,104.932 101,108.5C 101.987,112.475 101.487,116.141 99.5,119.5 Z"/></g>
<g><path style="opacity:1" fill="#d8d8d8" d="M 159.5,104.5 C 161.167,104.5 162.833,104.5 164.5,104.5C 164.5,105.5 164.5,106.5 164.5,107.5C 163.209,107.263 162.209,107.596 161.5,108.5C 158.636,114.335 158.969,120.002 162.5,125.5C 163.687,128.507 163.02,131.174 160.5,133.5C 159.3,134.292 157.967,134.292 156.5,133.5C 153.599,126.484 152.766,119.15 154,111.5C 154.935,108.405 156.769,106.071 159.5,104.5 Z"/></g>
<g><path style="opacity:1" fill="#e7e7e7" d="M 67.5,111.5 C 66.6618,111.842 66.3284,112.508 66.5,113.5C 65.3436,119.473 65.3436,125.473 66.5,131.5C 66.5,135.5 66.5,139.5 66.5,143.5C 66.7852,145.288 66.4519,146.955 65.5,148.5C 64.1502,147.05 62.4835,146.383 60.5,146.5C 60.7845,144.585 60.4511,142.919 59.5,141.5C 59.3336,133.826 59.5003,126.159 60,118.5C 60.9838,113.699 63.1504,109.532 66.5,106C 67.4835,105.409 68.1501,105.743 68.5,107C 67.8524,108.44 67.5191,109.94 67.5,111.5 Z"/></g>
<g><path style="opacity:1" fill="#060606" d="M 40.5,109.5 C 42.5138,109.392 44.1805,110.058 45.5,111.5C 46.3382,111.842 46.6716,112.508 46.5,113.5C 46.7257,118.562 46.3924,123.562 45.5,128.5C 43.9582,129.301 42.2915,129.634 40.5,129.5C 40.5,122.833 40.5,116.167 40.5,109.5 Z"/></g>
<g><path style="opacity:1" fill="#b9b9b9" d="M 92.5,98.5 C 93.3171,100.969 93.8171,103.635 94,106.5C 94.3826,107.056 94.8826,107.389 95.5,107.5C 94.588,109.595 93.4213,111.595 92,113.5C 91.5065,115.134 91.3398,116.801 91.5,118.5C 90.5655,117.432 90.2322,116.099 90.5,114.5C 89.1667,114.5 87.8333,114.5 86.5,114.5C 88.5002,112.329 90.3335,109.996 92,107.5C 92.498,104.518 92.6646,101.518 92.5,98.5 Z"/></g>
<g><path style="opacity:1" fill="#606060" d="M 131.5,100.5 C 132.222,100.918 132.722,101.584 133,102.5C 134.008,116.275 127.842,120.775 114.5,116C 113.944,115.617 113.611,115.117 113.5,114.5C 116.672,114.936 119.838,115.269 123,115.5C 126.767,115.479 129.434,113.813 131,110.5C 131.498,107.183 131.665,103.85 131.5,100.5 Z"/></g>
<g><path style="opacity:1" fill="#b7b7b7" d="M 75.5,117.5 C 73.323,117.414 71.323,116.747 69.5,115.5C 68.8165,115.863 68.1499,116.196 67.5,116.5C 67.7373,115.209 67.404,114.209 66.5,113.5C 66.3284,112.508 66.6618,111.842 67.5,111.5C 67.4346,111.938 67.6012,112.272 68,112.5C 68.3333,111.833 68.6667,111.167 69,110.5C 71.4003,112.729 73.567,115.063 75.5,117.5 Z"/></g>
<g><path style="opacity:1" fill="#a5a5a5" d="M 142.5,103.5 C 144.5,103.5 146.5,103.5 148.5,103.5C 148.5,108.833 148.5,114.167 148.5,119.5C 147.167,119.5 145.833,119.5 144.5,119.5C 144.5,116.833 144.5,114.167 144.5,111.5C 145.165,113.698 145.832,116.031 146.5,118.5C 147.493,113.88 147.827,109.214 147.5,104.5C 145.585,104.784 143.919,104.451 142.5,103.5 Z"/></g>
<g><path style="opacity:1" fill="#acacac" d="M 131.5,90.5 C 132.874,95.4813 133.874,100.648 134.5,106C 134.944,111.773 132.944,116.44 128.5,120C 129.38,121.356 129.714,122.856 129.5,124.5C 129.5,124.833 129.5,125.167 129.5,125.5C 128.833,125.833 128.167,126.167 127.5,126.5C 126.791,125.596 125.791,125.263 124.5,125.5C 125.209,124.596 126.209,124.263 127.5,124.5C 127.5,123.5 127.5,122.5 127.5,121.5C 126.081,120.549 124.415,120.216 122.5,120.5C 119.665,118.587 116.332,117.587 112.5,117.5C 111.957,114.962 110.957,112.628 109.5,110.5C 111.167,111.5 112.5,112.833 113.5,114.5C 113.611,115.117 113.944,115.617 114.5,116C 127.842,120.775 134.008,116.275 133,102.5C 132.722,101.584 132.222,100.918 131.5,100.5C 131.443,99.391 131.11,98.391 130.5,97.5C 130.567,96.0413 130.234,94.7079 129.5,93.5C 131.048,93.1788 131.715,92.1788 131.5,90.5 Z"/></g>
<g><path style="opacity:1" fill="#818181" d="M 122.5,120.5 C 124.415,120.216 126.081,120.549 127.5,121.5C 126.542,121.953 125.708,122.619 125,123.5C 124.692,122.692 124.192,122.025 123.5,121.5C 120.925,124.2 121.258,125.533 124.5,125.5C 124.631,126.376 124.298,127.043 123.5,127.5C 122.264,126.754 120.93,126.421 119.5,126.5C 118.272,125.694 117.272,124.694 116.5,123.5C 118.181,121.992 120.181,120.992 122.5,120.5 Z"/></g>
<g><path style="opacity:1" fill="#181818" d="M 127.5,121.5 C 127.5,122.5 127.5,123.5 127.5,124.5C 126.209,124.263 125.209,124.596 124.5,125.5C 121.258,125.533 120.925,124.2 123.5,121.5C 124.192,122.025 124.692,122.692 125,123.5C 125.708,122.619 126.542,121.953 127.5,121.5 Z"/></g>
<g><path style="opacity:1" fill="#939393" d="M 40.5,109.5 C 40.5,116.167 40.5,122.833 40.5,129.5C 42.2915,129.634 43.9582,129.301 45.5,128.5C 44.0821,130.308 42.0821,130.975 39.5,130.5C 39.1755,123.313 39.5088,116.313 40.5,109.5 Z"/></g>
<g><path style="opacity:1" fill="#151515" d="M 137.5,114.5 C 137.328,115.492 137.662,116.158 138.5,116.5C 136.632,123.237 133.466,129.237 129,134.5C 128.075,133.953 127.242,133.287 126.5,132.5C 128.02,130.338 129.02,128.005 129.5,125.5C 129.5,125.167 129.5,124.833 129.5,124.5C 130.871,121.433 132.538,118.433 134.5,115.5C 135.325,114.614 136.325,114.281 137.5,114.5 Z"/></g>
<g><path style="opacity:1" fill="#282828" d="M 116.5,123.5 C 117.272,124.694 118.272,125.694 119.5,126.5C 118.305,129.71 116.305,130.376 113.5,128.5C 114.953,127.151 115.953,125.485 116.5,123.5 Z"/></g>
<g><path style="opacity:1" fill="#b0b0b0" d="M 106.5,123.5 C 108.5,123.5 110.5,123.5 112.5,123.5C 109.456,125.011 106.122,125.678 102.5,125.5C 102.5,126.5 102.5,127.5 102.5,128.5C 104.527,128.338 106.527,128.505 108.5,129C 107.288,130.107 107.621,130.607 109.5,130.5C 109.5,131.167 109.833,131.5 110.5,131.5C 107.748,131.762 104.748,131.762 101.5,131.5C 101.5,129.833 101.5,128.167 101.5,126.5C 99.0521,125.527 96.3854,125.194 93.5,125.5C 92.9553,129.172 92.6219,128.838 92.5,124.5C 97.3633,124.819 102.03,124.486 106.5,123.5 Z"/></g>
<g><path style="opacity:1" fill="#6e6e6e" d="M 112.5,123.5 C 113.833,123.5 115.167,123.5 116.5,123.5C 115.953,125.485 114.953,127.151 113.5,128.5C 113.158,129.338 112.492,129.672 111.5,129.5C 110.039,124.213 109.372,124.547 109.5,130.5C 107.621,130.607 107.288,130.107 108.5,129C 106.527,128.505 104.527,128.338 102.5,128.5C 102.5,127.5 102.5,126.5 102.5,125.5C 106.122,125.678 109.456,125.011 112.5,123.5 Z"/></g>
<g><path style="opacity:1" fill="#717171" d="M 92.5,124.5 C 92.6219,128.838 92.9553,129.172 93.5,125.5C 96.3854,125.194 99.0521,125.527 101.5,126.5C 99.6921,127.918 99.0254,129.918 99.5,132.5C 97.1998,130.798 94.5331,130.132 91.5,130.5C 91.8238,125.558 90.8238,125.225 88.5,129.5C 87.5084,129.672 86.8417,129.338 86.5,128.5C 86.5,127.833 86.1667,127.5 85.5,127.5C 85.5,126.5 85.5,125.5 85.5,124.5C 87.8333,124.5 90.1667,124.5 92.5,124.5 Z"/></g>
<g><path style="opacity:1" fill="#282828" d="M 66.5,113.5 C 67.404,114.209 67.7373,115.209 67.5,116.5C 66.2181,121.393 66.8847,126.059 69.5,130.5C 68.8333,130.5 68.5,130.833 68.5,131.5C 67.8333,131.5 67.1667,131.5 66.5,131.5C 65.3436,125.473 65.3436,119.473 66.5,113.5 Z"/></g>
<g><path style="opacity:1" fill="#a3a3a3" d="M 162.5,125.5 C 165.5,127.833 168.167,130.5 170.5,133.5C 171.841,136.604 171.507,139.438 169.5,142C 168.552,142.483 167.552,142.649 166.5,142.5C 162.544,140.212 159.211,137.212 156.5,133.5C 157.967,134.292 159.3,134.292 160.5,133.5C 163.02,131.174 163.687,128.507 162.5,125.5 Z"/></g>
<g><path style="opacity:1" fill="#f4f4f4" d="M 145.5,130.5 C 145.5,131.833 145.5,133.167 145.5,134.5C 141.833,134.5 138.167,134.5 134.5,134.5C 134.666,138.514 134.499,142.514 134,146.5C 132.846,147.743 131.512,148.743 130,149.5C 129.501,144.845 129.334,140.179 129.5,135.5C 133.732,130.872 139.066,129.205 145.5,130.5 Z"/></g>
<g><path style="opacity:1" fill="#070707" d="M 66.5,131.5 C 67.1667,131.5 67.8333,131.5 68.5,131.5C 69.8114,134.811 72.1447,137.145 75.5,138.5C 76.8853,139.614 78.3853,140.614 80,141.5C 80.1719,144.826 80.0053,148.159 79.5,151.5C 78.7315,153.667 77.7315,155.834 76.5,158C 72.8339,159.271 70.3339,158.104 69,154.5C 68.2045,150.688 67.3712,147.021 66.5,143.5C 66.5,139.5 66.5,135.5 66.5,131.5 Z"/></g>
<g><path style="opacity:1" fill="#e0e0e0" d="M 86.5,114.5 C 87.8333,114.5 89.1667,114.5 90.5,114.5C 90.2322,116.099 90.5655,117.432 91.5,118.5C 92.6948,118.322 93.8615,117.989 95,117.5C 96.3002,118.707 97.8002,119.374 99.5,119.5C 97.9581,120.163 96.2914,120.83 94.5,121.5C 98.2778,123.255 102.278,123.922 106.5,123.5C 102.03,124.486 97.3633,124.819 92.5,124.5C 90.1667,124.5 87.8333,124.5 85.5,124.5C 85.5,125.5 85.5,126.5 85.5,127.5C 84.596,126.791 84.2627,125.791 84.5,124.5C 82.1595,122.798 79.4928,121.465 76.5,120.5C 71.5068,118.319 69.6735,119.986 71,125.5C 72.2917,126.791 73.4583,126.791 74.5,125.5C 76.5786,125.971 78.5786,126.637 80.5,127.5C 81.7498,127.577 82.5831,128.244 83,129.5C 84.0113,128.663 85.1779,128.33 86.5,128.5C 86.8417,129.338 87.5084,129.672 88.5,129.5C 89.1515,130.091 89.8182,130.757 90.5,131.5C 91.1067,131.376 91.44,131.043 91.5,130.5C 94.5331,130.132 97.1998,130.798 99.5,132.5C 100.492,132.672 101.158,132.338 101.5,131.5C 104.748,131.762 107.748,131.762 110.5,131.5C 110.328,130.508 110.662,129.842 111.5,129.5C 112.492,129.672 113.158,129.338 113.5,128.5C 116.305,130.376 118.305,129.71 119.5,126.5C 120.93,126.421 122.264,126.754 123.5,127.5C 124.298,127.043 124.631,126.376 124.5,125.5C 125.791,125.263 126.791,125.596 127.5,126.5C 124.694,130.137 121.361,133.304 117.5,136C 113.453,137.072 109.453,138.239 105.5,139.5C 101.818,139.665 98.1516,139.499 94.5,139C 89.3398,137.448 84.3398,135.615 79.5,133.5C 75.5255,134.856 72.1922,133.856 69.5,130.5C 66.8847,126.059 66.2181,121.393 67.5,116.5C 68.1499,116.196 68.8165,115.863 69.5,115.5C 71.323,116.747 73.323,117.414 75.5,117.5C 77.5273,117.662 79.5273,117.495 81.5,117C 83.0779,115.906 84.7446,115.072 86.5,114.5 Z"/></g>
<g><path style="opacity:1" fill="#1f1f1f" d="M 101.5,126.5 C 101.5,128.167 101.5,129.833 101.5,131.5C 101.158,132.338 100.492,132.672 99.5,132.5C 99.0254,129.918 99.6921,127.918 101.5,126.5 Z"/></g>
<g><path style="opacity:1" fill="#0e0e0e" d="M 91.5,130.5 C 91.44,131.043 91.1067,131.376 90.5,131.5C 89.8182,130.757 89.1515,130.091 88.5,129.5C 90.8238,125.225 91.8238,125.558 91.5,130.5 Z"/></g>
<g><path style="opacity:1" fill="#191919" d="M 84.5,124.5 C 84.2627,125.791 84.596,126.791 85.5,127.5C 86.1667,127.5 86.5,127.833 86.5,128.5C 85.1779,128.33 84.0113,128.663 83,129.5C 82.5831,128.244 81.7498,127.577 80.5,127.5C 81.795,126.512 83.1283,125.512 84.5,124.5 Z"/></g>
<g><path style="opacity:1" fill="#0c0c0c" d="M 111.5,129.5 C 110.662,129.842 110.328,130.508 110.5,131.5C 109.833,131.5 109.5,131.167 109.5,130.5C 109.372,124.547 110.039,124.213 111.5,129.5 Z"/></g>
<g><path style="opacity:1" fill="#8a8a8a" d="M 76.5,120.5 C 79.4928,121.465 82.1595,122.798 84.5,124.5C 83.1283,125.512 81.795,126.512 80.5,127.5C 78.5786,126.637 76.5786,125.971 74.5,125.5C 75.4408,123.95 76.1075,122.284 76.5,120.5 Z"/></g>
<g><path style="opacity:1" fill="#1b1b1b" d="M 76.5,120.5 C 76.1075,122.284 75.4408,123.95 74.5,125.5C 72.6558,124.796 72.1558,123.463 73,121.5C 74.0113,120.663 75.1779,120.33 76.5,120.5 Z"/></g>
<g><path style="opacity:1" fill="#7f7f7f" d="M 76.5,120.5 C 75.1779,120.33 74.0113,120.663 73,121.5C 72.1558,123.463 72.6558,124.796 74.5,125.5C 73.4583,126.791 72.2917,126.791 71,125.5C 69.6735,119.986 71.5068,118.319 76.5,120.5 Z"/></g>
<g><path style="opacity:1" fill="#9b9b9b" d="M 33.5,111.5 C 34.3276,117.319 34.8276,123.319 35,129.5C 37.2377,133.068 40.4044,135.068 44.5,135.5C 43.1667,135.5 41.8333,135.5 40.5,135.5C 39.8343,138.028 39.1676,140.694 38.5,143.5C 36.3001,140.674 34.6334,137.674 33.5,134.5C 33.5,126.833 33.5,119.167 33.5,111.5 Z"/></g>
<g><path style="opacity:1" fill="#030303" d="M 40.5,135.5 C 41.8333,135.5 43.1667,135.5 44.5,135.5C 46.2624,136.262 47.2624,137.596 47.5,139.5C 47.666,144.844 47.4994,150.177 47,155.5C 45.7135,158.145 43.5468,159.145 40.5,158.5C 40.5,153.833 40.5,149.167 40.5,144.5C 40.5,141.5 40.5,138.5 40.5,135.5 Z"/></g>
<g><path style="opacity:1" fill="#c1c1c1" d="M 46.5,105.5 C 45.4138,105.62 44.7472,106.287 44.5,107.5C 44.8457,108.849 45.179,110.183 45.5,111.5C 44.1805,110.058 42.5138,109.392 40.5,109.5C 39.5088,116.313 39.1755,123.313 39.5,130.5C 42.0821,130.975 44.0821,130.308 45.5,128.5C 46.3924,123.562 46.7257,118.562 46.5,113.5C 47.3227,116.977 47.8227,120.644 48,124.5C 48.4505,127.106 49.9505,128.439 52.5,128.5C 51.5244,129.815 50.5244,131.148 49.5,132.5C 52.1753,134.513 53.842,137.18 54.5,140.5C 54.8242,144.555 54.4909,148.555 53.5,152.5C 51.6396,151.74 49.973,150.74 48.5,149.5C 48.8128,145.958 48.4794,142.625 47.5,139.5C 47.2624,137.596 46.2624,136.262 44.5,135.5C 40.4044,135.068 37.2377,133.068 35,129.5C 34.8276,123.319 34.3276,117.319 33.5,111.5C 32.8166,109.824 31.4832,109.157 29.5,109.5C 29.5,107.833 29.5,106.167 29.5,104.5C 35.358,104.178 41.0247,104.511 46.5,105.5 Z"/></g>
<g><path style="opacity:1" fill="#8a8a8a" d="M 69.5,130.5 C 72.1922,133.856 75.5255,134.856 79.5,133.5C 84.3398,135.615 89.3398,137.448 94.5,139C 98.1516,139.499 101.818,139.665 105.5,139.5C 99.9947,140.653 94.3281,140.653 88.5,139.5C 86.6672,139.585 85.3339,140.252 84.5,141.5C 81.5766,140.705 78.9099,139.372 76.5,137.5C 75.8933,137.624 75.56,137.957 75.5,138.5C 72.1447,137.145 69.8114,134.811 68.5,131.5C 68.5,130.833 68.8333,130.5 69.5,130.5 Z"/></g>
<g><path style="opacity:1" fill="#777777" d="M 141.5,105.5 C 142.434,106.568 142.768,107.901 142.5,109.5C 143.128,116.951 140.795,123.285 135.5,128.5C 138.977,129.167 142.311,129.834 145.5,130.5C 139.066,129.205 133.732,130.872 129.5,135.5C 128.833,135.5 128.5,135.833 128.5,136.5C 125.607,138.114 122.607,139.447 119.5,140.5C 119.825,148.352 119.492,156.018 118.5,163.5C 118.5,156.5 118.5,149.5 118.5,142.5C 116.784,142.629 115.117,142.962 113.5,143.5C 113.062,143.565 112.728,143.399 112.5,143C 113.672,142.581 114.672,141.915 115.5,141C 108.387,142.986 101.054,144.152 93.5,144.5C 94.6085,143.71 95.9419,143.21 97.5,143C 94.8121,142.608 92.1454,142.108 89.5,141.5C 88.2867,141.747 87.62,142.414 87.5,143.5C 86.2905,143.068 85.2905,142.401 84.5,141.5C 85.3339,140.252 86.6672,139.585 88.5,139.5C 94.3281,140.653 99.9947,140.653 105.5,139.5C 109.453,138.239 113.453,137.072 117.5,136C 121.361,133.304 124.694,130.137 127.5,126.5C 128.167,126.167 128.833,125.833 129.5,125.5C 129.02,128.005 128.02,130.338 126.5,132.5C 127.242,133.287 128.075,133.953 129,134.5C 133.466,129.237 136.632,123.237 138.5,116.5C 139.26,112.919 139.76,109.252 140,105.5C 140.829,116.146 141.329,116.146 141.5,105.5 Z"/></g>
<g><path style="opacity:1" fill="#232323" d="M 93.5,144.5 C 91.3792,144.675 89.3792,144.341 87.5,143.5C 87.62,142.414 88.2867,141.747 89.5,141.5C 92.1454,142.108 94.8121,142.608 97.5,143C 95.9419,143.21 94.6085,143.71 93.5,144.5 Z"/></g>
<g><path style="opacity:1" fill="#7b7b7b" d="M 33.5,134.5 C 34.6334,137.674 36.3001,140.674 38.5,143.5C 39.1676,140.694 39.8343,138.028 40.5,135.5C 40.5,138.5 40.5,141.5 40.5,144.5C 39.6862,146.631 39.1862,148.964 39,151.5C 37.8455,150.257 36.5122,149.257 35,148.5C 34.8091,146.292 34.3091,144.292 33.5,142.5C 33.5,139.833 33.5,137.167 33.5,134.5 Z"/></g>
<g><path style="opacity:1" fill="#a3a3a3" d="M 113.5,143.5 C 112.737,144.268 111.737,144.768 110.5,145C 109.748,145.671 109.414,146.504 109.5,147.5C 108.849,146.909 108.182,146.243 107.5,145.5C 105.591,146.348 103.591,146.682 101.5,146.5C 99.5,145.167 97.5,145.167 95.5,146.5C 92.3537,146.118 89.3537,146.118 86.5,146.5C 86.5569,145.391 86.8902,144.391 87.5,143.5C 89.3792,144.341 91.3792,144.675 93.5,144.5C 101.054,144.152 108.387,142.986 115.5,141C 114.672,141.915 113.672,142.581 112.5,143C 112.728,143.399 113.062,143.565 113.5,143.5 Z"/></g>
<g><path style="opacity:1" fill="#e0e0e0" d="M 75.5,138.5 C 75.56,137.957 75.8933,137.624 76.5,137.5C 78.9099,139.372 81.5766,140.705 84.5,141.5C 85.2905,142.401 86.2905,143.068 87.5,143.5C 86.8902,144.391 86.5569,145.391 86.5,146.5C 86.3724,150.417 85.3724,154.083 83.5,157.5C 79.9319,157.241 78.5985,155.241 79.5,151.5C 80.0053,148.159 80.1719,144.826 80,141.5C 78.3853,140.614 76.8853,139.614 75.5,138.5 Z"/></g>
<g><path style="opacity:1" fill="#606060" d="M 170.5,133.5 C 171.558,134.6 172.392,135.934 173,137.5C 173.499,141.821 173.666,146.154 173.5,150.5C 172.519,152.309 171.019,153.643 169,154.5C 168.817,151.635 168.317,148.969 167.5,146.5C 167.167,145.167 166.833,143.833 166.5,142.5C 167.552,142.649 168.552,142.483 169.5,142C 171.507,139.438 171.841,136.604 170.5,133.5 Z"/></g>
<g><path style="opacity:1" fill="#dddddd" d="M 118.5,163.5 C 117.167,163.5 115.833,163.5 114.5,163.5C 113.218,157.991 111.551,152.658 109.5,147.5C 109.414,146.504 109.748,145.671 110.5,145C 111.737,144.768 112.737,144.268 113.5,143.5C 115.117,142.962 116.784,142.629 118.5,142.5C 118.5,149.5 118.5,156.5 118.5,163.5 Z"/></g>
<g><path style="opacity:1" fill="#939393" d="M 54.5,140.5 C 56.0226,146.198 55.6893,151.864 53.5,157.5C 52.0695,157.579 50.7362,157.246 49.5,156.5C 48.5258,154.257 48.1924,151.924 48.5,149.5C 49.973,150.74 51.6396,151.74 53.5,152.5C 54.4909,148.555 54.8242,144.555 54.5,140.5 Z"/></g>
<g><path style="opacity:1" fill="#434343" d="M 167.5,146.5 C 168.317,148.969 168.817,151.635 169,154.5C 171.019,153.643 172.519,152.309 173.5,150.5C 172.98,160.194 167.98,164.694 158.5,164C 156.249,163.252 154.916,161.752 154.5,159.5C 157.5,159.833 158.833,158.5 158.5,155.5C 160.826,160.221 163.66,160.554 167,156.5C 167.498,153.183 167.665,149.85 167.5,146.5 Z"/></g>
<g><path style="opacity:1" fill="#595959" d="M 47.5,139.5 C 48.4794,142.625 48.8128,145.958 48.5,149.5C 48.1924,151.924 48.5258,154.257 49.5,156.5C 50.7362,157.246 52.0695,157.579 53.5,157.5C 51.4878,162.342 47.8212,164.342 42.5,163.5C 37.4623,160.481 34.4623,156.147 33.5,150.5C 33.5,147.833 33.5,145.167 33.5,142.5C 34.3091,144.292 34.8091,146.292 35,148.5C 36.5122,149.257 37.8455,150.257 39,151.5C 39.1862,148.964 39.6862,146.631 40.5,144.5C 40.5,149.167 40.5,153.833 40.5,158.5C 43.5468,159.145 45.7135,158.145 47,155.5C 47.4994,150.177 47.666,144.844 47.5,139.5 Z"/></g>
<g><path style="opacity:1" fill="#7b7b7b" d="M 158.5,155.5 C 158.833,158.5 157.5,159.833 154.5,159.5C 153.778,159.082 153.278,158.416 153,157.5C 152.333,154.167 152.333,150.833 153,147.5C 154.019,146.313 155.186,145.313 156.5,144.5C 157.539,148.105 158.205,151.772 158.5,155.5 Z"/></g>
<g><path style="opacity:1" fill="#3b3b3b" d="M 33.5,150.5 C 34.4623,156.147 37.4623,160.481 42.5,163.5C 38.1667,163.5 33.8333,163.5 29.5,163.5C 29.5,162.167 29.5,160.833 29.5,159.5C 30.8221,159.67 31.9887,159.337 33,158.5C 33.4974,155.854 33.6641,153.187 33.5,150.5 Z"/></g>
<g><path style="opacity:1" fill="#a9a9a9" d="M 59.5,141.5 C 60.4511,142.919 60.7845,144.585 60.5,146.5C 62.4835,146.383 64.1502,147.05 65.5,148.5C 66.4519,146.955 66.7852,145.288 66.5,143.5C 67.3712,147.021 68.2045,150.688 69,154.5C 70.3339,158.104 72.8339,159.271 76.5,158C 77.7315,155.834 78.7315,153.667 79.5,151.5C 78.5985,155.241 79.9319,157.241 83.5,157.5C 80.044,164.448 74.7107,166.281 67.5,163C 62.4581,156.744 59.7915,149.577 59.5,141.5 Z"/></g>
<g><path style="opacity:1" fill="#888888" d="M 128.5,157.5 C 128.179,159.048 127.179,159.715 125.5,159.5C 125.5,160.5 125.5,161.5 125.5,162.5C 130.449,163.041 135.116,162.208 139.5,160C 137.942,159.79 136.609,159.29 135.5,158.5C 138.518,158.665 141.518,158.498 144.5,158C 146.137,154.715 146.804,151.215 146.5,147.5C 147.5,147.5 148.5,147.5 149.5,147.5C 149.5,152.833 149.5,158.167 149.5,163.5C 141.167,163.5 132.833,163.5 124.5,163.5C 124.5,161.833 124.5,160.167 124.5,158.5C 125.959,158.567 127.292,158.234 128.5,157.5 Z"/></g>
<g><path style="opacity:1" fill="#b5b5b5" d="M 145.5,134.5 C 142.375,135.479 139.042,135.813 135.5,135.5C 135.5,143.167 135.5,150.833 135.5,158.5C 136.609,159.29 137.942,159.79 139.5,160C 135.116,162.208 130.449,163.041 125.5,162.5C 125.5,161.5 125.5,160.5 125.5,159.5C 127.179,159.715 128.179,159.048 128.5,157.5C 128.5,150.5 128.5,143.5 128.5,136.5C 128.5,135.833 128.833,135.5 129.5,135.5C 129.334,140.179 129.501,144.845 130,149.5C 131.512,148.743 132.846,147.743 134,146.5C 134.499,142.514 134.666,138.514 134.5,134.5C 138.167,134.5 141.833,134.5 145.5,134.5 Z"/></g>
<g><path style="opacity:1" fill="#cdcdcd" d="M 101.5,146.5 C 100.5,146.5 99.5,146.5 98.5,146.5C 98.3347,150.182 98.5014,153.848 99,157.5C 99.7096,158.973 100.876,159.64 102.5,159.5C 102.5,160.833 102.5,162.167 102.5,163.5C 98.8333,163.5 95.1667,163.5 91.5,163.5C 91.5,162.167 91.5,160.833 91.5,159.5C 93.1238,159.64 94.2904,158.973 95,157.5C 95.4986,153.848 95.6653,150.182 95.5,146.5C 97.5,145.167 99.5,145.167 101.5,146.5 Z"/></g>
</svg>
