<svg width="198" height="198" viewBox="0 0 198 198" fill="none" xmlns="http://www.w3.org/2000/svg">
<path d="M129.197 31.2311C143.259 39.2399 154.993 49.1112 161.325 59.1687C169.054 71.2749 176.877 87.2924 178.646 105.731C181.738 101.628 184.246 97.1145 186.096 92.3212C200.251 57.3062 159.649 28.7168 129.197 31.2311Z" fill="url(#paint0_linear_10_2)"/>
<path d="M71.2732 180.511C76.6666 182.241 82.2198 183.426 87.8495 184.049C112.528 186.843 129.383 182.094 141.024 172.036C127.521 175.109 112.9 173.34 101.259 174.551C87.7563 175.948 79.9338 179.114 71.2732 180.511Z" fill="url(#paint1_linear_10_2)"/>
<path d="M178.646 105.731C176.877 87.2924 169.055 71.2749 161.325 59.1686C154.899 49.1111 143.259 39.2399 129.197 31.2311C110.013 20.3355 86.4526 13.0717 65.965 14.0961C42.0319 15.3998 30.6706 36.6324 31.1363 49.2042V49.5767C31.3538 54.8262 32.6871 59.9691 35.0475 64.663C42.1772 52.3461 52.8995 42.5011 65.7788 36.4461C78.0213 30.7531 91.6631 28.7704 105.02 30.7428C118.376 32.7151 130.863 38.5562 140.937 47.5447C151.012 56.5332 158.233 68.2755 161.709 81.3217C165.186 94.3678 164.765 108.147 160.5 120.956C156.234 133.766 148.31 145.046 137.706 153.403C127.102 161.761 114.282 166.829 100.83 167.983C87.3782 169.137 73.8827 166.326 62.0103 159.897C50.1378 153.468 40.4083 143.702 34.0231 131.806C32.9806 129.906 32.0478 127.947 31.2294 125.939C29.217 128.162 27.4092 130.562 25.8281 133.11C13.7219 153.039 35.6994 178.462 56.9319 180.79C61.705 181.365 66.5364 181.239 71.2732 180.417C80.0269 179.021 87.7563 175.854 101.259 174.457C112.9 173.247 127.521 175.016 141.024 171.943C156.11 168.497 169.893 158.999 176.598 132.551C178.817 123.795 179.51 114.722 178.646 105.731V105.731Z" fill="url(#paint2_radial_10_2)"/>
<path d="M95.0201 151.735C104.596 151.716 113.985 149.084 122.175 144.123C130.366 139.162 137.047 132.06 141.499 123.583C145.951 115.105 148.005 105.573 147.44 96.014C146.875 86.455 143.712 77.2315 138.292 69.3374C132.872 61.4433 125.4 55.1781 116.682 51.2168C107.964 47.2556 98.3306 45.7485 88.8195 46.8581C79.3083 47.9677 70.2802 51.6518 62.7082 57.5135C55.1362 63.3751 49.3075 71.192 45.85 80.1217C48.83 84.4055 51.1581 88.8755 51.1581 95.0218C51.1581 104.055 48.3644 109.177 44.36 113.554C47.4787 124.575 54.1186 134.274 63.266 141.168C72.4134 148.062 83.5657 151.773 95.0201 151.735Z" fill="url(#paint3_radial_10_2)"/>
<path d="M45.85 80.1218C41.7519 90.8079 41.1969 102.528 44.2669 113.554C48.2713 109.177 51.065 104.055 51.065 95.0218C51.1582 88.8756 48.83 84.4056 45.85 80.1218Z" fill="url(#paint4_linear_10_2)"/>
<path d="M35.0475 64.663C32.6871 59.9691 31.3538 54.8262 31.1363 49.5767V49.2042C22.5688 59.448 18.285 74.7205 26.1075 92.4143C27.1059 82.6387 30.152 73.1831 35.0475 64.663V64.663Z" fill="url(#paint5_linear_10_2)"/>
<path style="mix-blend-mode:multiply" d="M95.0201 151.735C104.596 151.716 113.985 149.084 122.175 144.123C130.366 139.162 137.047 132.06 141.499 123.583C145.951 115.105 148.005 105.573 147.44 96.014C146.875 86.455 143.712 77.2315 138.292 69.3374C132.872 61.4433 125.4 55.1781 116.682 51.2168C107.964 47.2556 98.3306 45.7485 88.8195 46.8581C79.3083 47.9677 70.2802 51.6518 62.7082 57.5135C55.1362 63.3751 49.3075 71.192 45.85 80.1217C48.83 84.4055 51.1581 88.8755 51.1581 95.0218C51.1581 104.055 48.3644 109.177 44.36 113.554C47.4787 124.575 54.1186 134.274 63.266 141.168C72.4134 148.062 83.5657 151.773 95.0201 151.735Z" fill="url(#paint6_linear_10_2)"/>
<path style="mix-blend-mode:multiply" d="M35.0475 64.6629C42.1773 52.346 52.8995 42.501 65.7788 36.446C63.3274 35.8851 60.8369 35.5115 58.3288 35.3285C49.575 34.8629 38.6794 39.9848 31.1363 49.111V49.4835C31.3305 54.7661 32.6647 59.9443 35.0475 64.6629V64.6629Z" fill="url(#paint7_linear_10_2)"/>
<path style="mix-blend-mode:multiply" d="M161.325 59.1686C154.899 49.1111 143.259 39.2398 129.197 31.2311C125.26 31.521 121.394 32.4325 117.743 33.9317C128.353 37.6405 137.899 43.8815 145.552 52.1134C153.206 60.3453 158.736 70.3197 161.663 81.1719C164.59 92.0241 164.826 103.426 162.35 114.39C159.875 125.354 154.762 135.549 147.456 144.091C140.15 152.632 130.87 159.263 120.422 163.407C109.974 167.552 98.6731 169.086 87.4984 167.876C76.3237 166.665 65.6129 162.748 56.2945 156.463C46.976 150.177 39.3313 141.714 34.0231 131.806C33.4644 138.511 33.93 148.569 40.0763 157.602C47.7125 168.87 58.2357 176.32 71.1801 180.511C79.9338 179.114 87.6632 175.947 101.166 174.551C112.807 173.34 127.428 175.109 140.931 172.036C151.64 162.724 157.973 148.941 161.884 132.365C166.074 114.392 171.848 114.299 178.553 105.824C176.877 87.3855 169.055 71.2749 161.325 59.1686Z" fill="url(#paint8_linear_10_2)"/>
<defs>
<linearGradient id="paint0_linear_10_2" x1="22.6712" y1="83.8096" x2="186.068" y2="64.7282" gradientUnits="userSpaceOnUse">
<stop stop-color="#BA20FF"/>
<stop offset="1" stop-color="#FF009B"/>
</linearGradient>
<linearGradient id="paint1_linear_10_2" x1="2229.36" y1="2970.61" x2="11063" y2="-2646.29" gradientUnits="userSpaceOnUse">
<stop stop-color="#BA20FF"/>
<stop offset="1" stop-color="#FF009B"/>
</linearGradient>
<radialGradient id="paint2_radial_10_2" cx="0" cy="0" r="1" gradientUnits="userSpaceOnUse" gradientTransform="translate(33.3899 182.112) scale(228.026)">
<stop stop-color="#00E6FE"/>
<stop offset="1" stop-color="#C90CE9"/>
</radialGradient>
<radialGradient id="paint3_radial_10_2" cx="0" cy="0" r="1" gradientUnits="userSpaceOnUse" gradientTransform="translate(33.3899 182.112) scale(228.026)">
<stop stop-color="#00E6FE"/>
<stop offset="1" stop-color="#C90CE9"/>
</radialGradient>
<linearGradient id="paint4_linear_10_2" x1="377.706" y1="4138.09" x2="941.449" y2="4120.85" gradientUnits="userSpaceOnUse">
<stop stop-color="#BA20FF"/>
<stop offset="1" stop-color="#FF009B"/>
</linearGradient>
<linearGradient id="paint5_linear_10_2" x1="237.284" y1="4107.06" x2="1468.48" y2="4063.66" gradientUnits="userSpaceOnUse">
<stop stop-color="#BA20FF"/>
<stop offset="1" stop-color="#FF009B"/>
</linearGradient>
<linearGradient id="paint6_linear_10_2" x1="3128.17" y1="21888.4" x2="11746.5" y2="11050.6" gradientUnits="userSpaceOnUse">
<stop stop-color="#BA20FF"/>
<stop offset="1" stop-color="#FF009B"/>
</linearGradient>
<linearGradient id="paint7_linear_10_2" x1="-1025.11" y1="4747.87" x2="1246.11" y2="1311.2" gradientUnits="userSpaceOnUse">
<stop stop-color="#BA20FF"/>
<stop offset="1" stop-color="#FF009B"/>
</linearGradient>
<linearGradient id="paint8_linear_10_2" x1="7672.86" y1="33681.8" x2="19929.2" y2="18443.1" gradientUnits="userSpaceOnUse">
<stop stop-color="#BA20FF"/>
<stop offset="1" stop-color="#FF009B"/>
</linearGradient>
</defs>
</svg>
