<svg xmlns="http://www.w3.org/2000/svg" xmlns:xlink="http://www.w3.org/1999/xlink" width="200" zoomAndPan="magnify" viewBox="0 0 150 149.999998" height="200" preserveAspectRatio="xMidYMid meet" version="1.0"><path fill="#d8d8d8" d="M 75 0 C 33.570312 0 0 33.570312 0 75 C 0 116.429688 33.570312 150 75 150 C 116.429688 150 150 116.429688 150 75 C 150 33.570312 116.429688 0 75 0 Z M 75 0 " fill-opacity="1" fill-rule="nonzero"/><path fill="#000000" d="M 98.992188 74.257812 L 98.992188 81.246094 C 98.992188 81.546875 98.8125 81.824219 98.535156 81.953125 L 83.273438 89.078125 C 82.996094 89.210938 82.816406 89.488281 82.816406 89.78125 L 82.816406 94.304688 C 82.816406 94.613281 83.121094 94.816406 83.398438 94.679688 L 97.867188 87.945312 C 98.386719 87.703125 98.984375 88.085938 98.984375 88.648438 L 98.984375 95.640625 C 98.984375 95.941406 98.804688 96.21875 98.527344 96.34375 L 83.144531 103.523438 C 82.941406 103.621094 82.816406 103.824219 82.816406 104.046875 L 82.816406 119.976562 C 82.816406 120.929688 82.050781 121.695312 81.097656 121.695312 L 68.886719 121.695312 C 67.933594 121.695312 67.171875 120.929688 67.171875 119.976562 L 67.171875 111.871094 C 67.171875 111.449219 66.734375 111.171875 66.351562 111.34375 L 52.117188 117.988281 C 51.601562 118.230469 51 117.855469 51 117.277344 L 51 110.542969 C 51 110.085938 51.269531 109.664062 51.691406 109.46875 L 66.71875 102.457031 C 66.996094 102.324219 67.175781 102.046875 67.175781 101.746094 L 67.175781 97.214844 C 67.175781 96.90625 66.871094 96.703125 66.59375 96.839844 L 52.125 103.589844 C 51.609375 103.828125 51.007812 103.453125 51.007812 102.878906 L 51.007812 96.140625 C 51.007812 95.683594 51.277344 95.265625 51.699219 95.070312 L 66.328125 88.246094 C 66.855469 87.996094 67.183594 87.480469 67.183594 86.917969 L 67.183594 77.167969 C 67.183594 76.726562 66.90625 76.328125 66.488281 76.171875 C 57.21875 72.660156 50.691406 63.5625 51.023438 52.972656 C 51.398438 40.746094 61.199219 30.585938 73.410156 29.796875 C 87.375 28.890625 99 39.953125 99 53.738281 C 99 63.996094 92.574219 72.742188 83.527344 76.171875 C 83.109375 76.328125 82.828125 76.726562 82.828125 77.167969 L 82.828125 80.210938 C 82.828125 80.371094 82.996094 80.46875 83.128906 80.398438 L 97.882812 73.53125 C 98.398438 73.289062 99 73.671875 99 74.234375 Z M 98.992188 74.257812 " fill-opacity="1" fill-rule="nonzero"/></svg>