<svg width="200" height="200" viewBox="0 0 200 200" fill="none" xmlns="http://www.w3.org/2000/svg">
<g clip-path="url(#clip0_1859_14001)">
<rect width="200" height="200" fill="#7C4DFF"/>
<path d="M104.412 100.5L141 80.8718L134.849 69L101.346 82.607C100.483 82.9579 99.5265 82.9579 98.6638 82.607L65.1512 69.0095L59 80.8718L95.5882 100.5L59 120.128L65.1512 132L98.6544 118.393C99.5171 118.042 100.474 118.042 101.336 118.393L134.839 132L140.991 120.128L104.402 100.5H104.412Z" fill="#CEBDFF"/>
<path d="M18.9154 133.233L24.9404 134.175L27.6495 129.313L28.5354 131.143L26.6775 134.451L30.4147 135.025L31.3005 136.854L25.8097 135.97L22.8148 141.287L21.962 139.526L24.098 135.703L19.7682 134.995L18.9154 133.233Z" fill="#CEBDFF"/>
<path d="M34.9951 136.233L36.4013 138.217L30.2121 147.809L41.3008 145.129L42.707 147.113L31.8696 154.81L30.771 153.26L38.8371 147.531L28.475 150.021L27.5523 148.72L33.3114 139.736L25.2453 145.465L24.1577 143.931L34.9951 136.233Z" fill="#CEBDFF"/>
<path d="M37.8372 161.134C37.1585 160.47 36.6982 159.727 36.4562 158.906C36.2231 158.075 36.2137 157.242 36.428 156.407C36.6514 155.58 37.0949 154.827 37.7584 154.148C38.4219 153.468 39.164 153.007 39.9846 152.765C40.8143 152.532 41.6421 152.527 42.468 152.751C43.3027 152.965 44.0594 153.405 44.7381 154.069C45.4168 154.733 45.8727 155.48 46.1058 156.311C46.3478 157.132 46.3571 157.956 46.1337 158.783C45.9104 159.61 45.4669 160.363 44.8034 161.042C44.1398 161.721 43.3977 162.182 42.5771 162.424C41.7565 162.667 40.9288 162.681 40.0941 162.466C39.2682 162.242 38.5159 161.799 37.8372 161.134ZM39.1022 155.463C38.421 156.16 38.0627 156.926 38.0274 157.759C38.0011 158.602 38.3137 159.342 38.9653 159.979C39.6078 160.608 40.3449 160.895 41.1766 160.841C42.0173 160.796 42.7783 160.424 43.4595 159.727C44.1408 159.029 44.4945 158.26 44.5208 157.417C44.5562 156.584 44.2526 155.852 43.6101 155.224C42.9585 154.586 42.2124 154.29 41.3716 154.335C40.5399 154.389 39.7835 154.765 39.1022 155.463Z" fill="#CEBDFF"/>
<path d="M49.756 158.916L51.2477 159.997L50.257 161.367C50.8108 161.033 51.3958 160.894 52.0118 160.95C52.6382 161.013 53.2435 161.256 53.8279 161.679C54.6993 162.31 55.1886 163.103 55.2959 164.056C55.4134 165.017 55.1383 165.96 54.4704 166.883L51.0198 171.655L49.5281 170.574L52.7673 166.095C53.2125 165.479 53.4033 164.859 53.3395 164.234C53.286 163.617 52.9876 163.111 52.4443 162.717C51.8394 162.279 51.1827 162.14 50.474 162.299C49.7654 162.458 49.1661 162.876 48.6764 163.553L45.6376 167.755L44.1459 166.674L49.756 158.916Z" fill="#CEBDFF"/>
<path d="M58.0373 175.817C57.1852 175.37 56.5397 174.774 56.1009 174.029C55.6732 173.29 55.4617 172.493 55.4665 171.638C55.4712 170.782 55.682 169.956 56.0989 169.159C56.5158 168.362 57.057 167.724 57.7227 167.243C58.3942 166.752 59.1381 166.477 59.9544 166.418C60.7765 166.349 61.608 166.534 62.4488 166.975C63.2897 167.416 63.9159 167.98 64.3276 168.668C64.7451 169.344 64.9493 170.074 64.9403 170.855C64.9372 171.626 64.7448 172.376 64.3631 173.105C64.2457 173.33 64.1229 173.537 63.9948 173.727L57.5203 170.333C57.1649 171.177 57.099 171.971 57.3227 172.718C57.5465 173.464 58.0283 174.032 58.7683 174.42C59.3849 174.743 59.9569 174.878 60.4843 174.826C61.0118 174.773 61.4634 174.538 61.8392 174.12L63.4704 174.976C62.8555 175.769 62.0569 176.244 61.0746 176.401C60.0924 176.558 59.0799 176.363 58.0373 175.817ZM63.0057 171.686C63.2902 171.006 63.3278 170.36 63.1185 169.75C62.9092 169.14 62.457 168.653 61.7619 168.288C61.1004 167.941 60.4598 167.842 59.84 167.989C59.2373 168.13 58.6893 168.522 58.1961 169.165L63.0057 171.686Z" fill="#CEBDFF"/>
<path d="M67.5795 180.027L67.5438 169.723L69.3279 170.372L69.2497 177.986L74.056 172.092L75.858 172.748L70.176 179.496L66.7529 183.75L65.0936 183.146L67.5795 180.027Z" fill="#CEBDFF"/>
<path d="M83.1137 170.698L85.0653 170.997L83.319 182.417L89.7179 183.398L89.4536 185.126L81.1032 183.846L83.1137 170.698Z" fill="#CEBDFF"/>
<path d="M95.1536 185.499C94.1793 185.484 93.3989 185.206 92.8126 184.664C92.2262 184.123 91.9398 183.421 91.9534 182.56C91.9677 181.648 92.3144 180.931 92.9935 180.41C93.6727 179.876 94.5818 179.618 95.7207 179.636L97.7137 179.667C97.9288 179.671 98.0878 179.623 98.1906 179.523C98.3061 179.423 98.3652 179.285 98.368 179.107C98.3774 178.512 98.1761 178.034 97.7641 177.673C97.3648 177.312 96.8045 177.125 96.0832 177.114C95.4378 177.104 94.8846 177.272 94.4234 177.62C93.9749 177.968 93.7342 178.388 93.7011 178.882L91.9928 178.855C92.0532 178.235 92.2707 177.681 92.6455 177.193C93.0204 176.692 93.5138 176.307 94.1256 176.038C94.7376 175.756 95.4169 175.621 96.1635 175.633C96.9733 175.646 97.6859 175.809 98.3011 176.123C98.9166 176.424 99.3909 176.849 99.724 177.399C100.057 177.937 100.218 178.554 100.207 179.251L100.11 185.426L98.269 185.396L98.2935 183.839C98.0575 184.354 97.6524 184.766 97.0779 185.074C96.5164 185.369 95.8749 185.511 95.1536 185.499ZM93.7762 182.551C93.7694 182.982 93.9283 183.339 94.2529 183.623C94.5777 183.894 95.0059 184.034 95.5373 184.042C96.3978 184.056 97.0726 183.807 97.5616 183.295C98.0633 182.783 98.3211 182.084 98.3351 181.197L98.3387 180.969L95.8712 180.931C95.2384 180.921 94.7299 181.065 94.3455 181.363C93.9739 181.648 93.7841 182.044 93.7762 182.551Z" fill="#CEBDFF"/>
<path d="M108.886 184.773C108.259 184.854 107.657 184.791 107.082 184.584C106.505 184.365 106.047 184.035 105.71 183.593L105.892 185.006L104.066 185.242L102.328 171.767L104.155 171.531L104.847 176.902C105.063 176.402 105.424 175.979 105.928 175.632C106.43 175.274 107.001 175.053 107.642 174.97C108.583 174.849 109.42 174.958 110.153 175.297C110.897 175.623 111.492 176.133 111.939 176.829C112.397 177.511 112.688 178.329 112.811 179.284C112.934 180.239 112.861 181.111 112.593 181.899C112.335 182.673 111.889 183.318 111.254 183.835C110.629 184.337 109.84 184.65 108.886 184.773ZM105.129 180.276C105.257 181.269 105.624 182.033 106.228 182.568C106.846 183.101 107.594 183.311 108.473 183.198C109.351 183.084 110.015 182.692 110.465 182.021C110.927 181.348 111.094 180.515 110.966 179.522C110.838 178.53 110.465 177.767 109.847 177.234C109.243 176.699 108.501 176.488 107.622 176.601C106.744 176.715 106.073 177.108 105.611 177.781C105.162 178.452 105.001 179.284 105.129 180.276Z" fill="#CEBDFF"/>
<path d="M119.84 182.566C118.753 182.86 117.797 182.816 116.973 182.434C116.15 182.053 115.576 181.382 115.251 180.419L116.919 179.969C117.11 180.482 117.422 180.838 117.855 181.035C118.301 181.23 118.829 181.245 119.44 181.08C119.953 180.942 120.336 180.707 120.587 180.377C120.851 180.043 120.937 179.705 120.845 179.363C120.753 179.02 120.584 178.784 120.339 178.653C120.107 178.519 119.84 178.453 119.539 178.455C119.235 178.446 118.821 178.466 118.297 178.515C117.607 178.583 117.037 178.606 116.585 178.583C116.142 178.545 115.725 178.383 115.333 178.095C114.953 177.804 114.671 177.316 114.486 176.631C114.272 175.836 114.405 175.111 114.884 174.457C115.363 173.803 116.085 173.345 117.051 173.085C118.089 172.805 119.005 172.846 119.798 173.21C120.599 173.558 121.147 174.157 121.442 175.009L119.756 175.464C119.563 174.992 119.238 174.686 118.781 174.547C118.333 174.392 117.883 174.376 117.431 174.498C116.942 174.63 116.581 174.845 116.347 175.144C116.113 175.444 116.044 175.771 116.139 176.126C116.258 176.566 116.504 176.821 116.876 176.891C117.258 176.945 117.81 176.928 118.533 176.838C119.244 176.751 119.833 176.723 120.3 176.754C120.767 176.786 121.208 176.962 121.622 177.283C122.045 177.589 122.357 178.115 122.558 178.861C122.786 179.705 122.649 180.463 122.149 181.136C121.66 181.806 120.891 182.283 119.84 182.566Z" fill="#CEBDFF"/>
<path d="M132.26 174.518C131.778 174.743 131.288 174.77 130.788 174.598C130.295 174.409 129.936 174.074 129.711 173.592C129.486 173.11 129.462 172.625 129.639 172.136C129.822 171.631 130.155 171.266 130.636 171.04C131.118 170.815 131.605 170.797 132.098 170.986C132.598 171.158 132.96 171.485 133.185 171.967C133.41 172.449 133.431 172.942 133.248 173.448C133.071 173.936 132.741 174.293 132.26 174.518Z" fill="#CEBDFF"/>
<path d="M143.383 171.206L144.412 166.37L136.577 171.459L135.709 170.12L143.544 165.031L138.687 163.995L138.973 162.586L146.351 164.159L144.785 171.519L143.383 171.206Z" fill="#CEBDFF"/>
<path d="M151.265 162.193C150.863 162.541 150.399 162.701 149.872 162.672C149.346 162.626 148.908 162.401 148.56 161.999C148.212 161.597 148.057 161.137 148.094 160.618C148.132 160.082 148.352 159.64 148.754 159.292C149.156 158.943 149.62 158.792 150.146 158.839C150.673 158.868 151.11 159.083 151.459 159.485C151.807 159.888 151.961 160.357 151.923 160.893C151.886 161.411 151.667 161.844 151.265 162.193Z" fill="#CEBDFF"/>
<path d="M160.91 157.31L159.208 151.449L153.661 151.053L154.941 149.474L158.722 149.756L157.657 146.125L158.937 144.547L160.465 149.899L166.545 150.361L165.313 151.881L160.948 151.565L162.142 155.79L160.91 157.31Z" fill="#CEBDFF"/>
<path d="M156.809 141.46L158.008 139.345L169.31 140.89L162.185 131.973L163.384 129.857L174.943 136.42L174.006 138.073L165.403 133.188L172.049 141.527L171.262 142.916L160.692 141.502L169.295 146.387L168.368 148.023L156.809 141.46Z" fill="#CEBDFF"/>
<path d="M178.136 128.329C177.822 129.226 177.345 129.958 176.705 130.526C176.052 131.089 175.302 131.451 174.455 131.61C173.613 131.758 172.743 131.675 171.847 131.362C170.951 131.048 170.22 130.571 169.653 129.929C169.09 129.276 168.735 128.528 168.587 127.684C168.427 126.836 168.504 125.964 168.818 125.067C169.131 124.17 169.614 123.44 170.267 122.877C170.907 122.309 171.649 121.952 172.492 121.804C173.334 121.656 174.204 121.739 175.1 122.052C175.996 122.366 176.727 122.843 177.294 123.485C177.861 124.126 178.224 124.871 178.384 125.718C178.532 126.562 178.449 127.432 178.136 128.329ZM172.468 129.586C173.388 129.908 174.232 129.908 175.001 129.587C175.775 129.254 176.312 128.657 176.613 127.796C176.909 126.947 176.857 126.157 176.455 125.426C176.058 124.683 175.399 124.15 174.479 123.828C173.559 123.506 172.713 123.512 171.939 123.845C171.17 124.166 170.637 124.751 170.341 125.6C170.04 126.461 170.088 127.263 170.486 128.006C170.887 128.737 171.548 129.264 172.468 129.586Z" fill="#CEBDFF"/>
<path d="M171.077 118.463L171.423 116.653L173.082 116.97C172.545 116.609 172.172 116.138 171.961 115.556C171.752 114.962 171.715 114.31 171.851 113.6C172.053 112.543 172.562 111.763 173.38 111.262C174.199 110.748 175.169 110.598 176.287 110.812L182.068 111.918L181.722 113.728L176.296 112.69C175.55 112.548 174.908 112.638 174.37 112.96C173.834 113.27 173.503 113.755 173.377 114.415C173.237 115.149 173.389 115.803 173.833 116.379C174.277 116.954 174.909 117.32 175.73 117.477L180.82 118.451L180.475 120.261L171.077 118.463Z" fill="#CEBDFF"/>
<path d="M182.859 103.792C182.816 104.754 182.55 105.591 182.062 106.305C181.575 107.006 180.943 107.535 180.167 107.894C179.391 108.252 178.554 108.411 177.656 108.371C176.759 108.331 175.951 108.111 175.235 107.711C174.505 107.31 173.941 106.753 173.542 106.037C173.131 105.321 172.946 104.489 172.989 103.54C173.031 102.59 173.276 101.783 173.724 101.119C174.159 100.454 174.732 99.9593 175.444 99.6361C176.142 99.3123 176.902 99.1688 177.724 99.2057C177.977 99.217 178.217 99.2404 178.443 99.2759L178.116 106.585C179.03 106.549 179.777 106.272 180.358 105.753C180.938 105.234 181.247 104.556 181.285 103.721C181.316 103.025 181.196 102.449 180.925 101.993C180.654 101.537 180.25 101.227 179.712 101.064L179.795 99.2224C180.773 99.4437 181.541 99.9664 182.1 100.79C182.658 101.614 182.911 102.615 182.859 103.792ZM177.015 101.038C176.279 101.068 175.679 101.308 175.216 101.756C174.752 102.205 174.503 102.821 174.468 103.606C174.435 104.353 174.616 104.976 175.011 105.475C175.395 105.962 175.982 106.292 176.772 106.467L177.015 101.038Z" fill="#CEBDFF"/>
<path d="M182.624 93.3557L173.316 97.7556L173.147 95.8629L180.069 92.7066L172.699 90.8472L172.529 88.9356L181.043 91.2268L186.343 92.5272L186.5 94.2874L182.624 93.3557Z" fill="#CEBDFF"/>
<path d="M167.598 83.2263L167.042 81.3302L178.115 78.0728L176.29 71.8558L177.966 71.3629L180.348 79.4759L167.598 83.2263Z" fill="#CEBDFF"/>
<path d="M175.888 66.0368C176.287 66.9267 176.366 67.7522 176.124 68.5133C175.883 69.2743 175.37 69.8313 174.585 70.1841C173.753 70.5576 172.958 70.547 172.198 70.1524C171.427 69.7629 170.808 69.0481 170.342 68.008L169.526 66.1877C169.438 65.9912 169.327 65.8675 169.193 65.8166C169.054 65.754 168.903 65.7591 168.742 65.8317C168.199 66.0756 167.852 66.4608 167.699 66.9875C167.542 67.5026 167.611 68.0895 167.906 68.7483C168.171 69.3377 168.558 69.7678 169.068 70.0386C169.572 70.2978 170.055 70.3378 170.516 70.1586L171.215 71.7189C170.629 71.9269 170.035 71.9644 169.435 71.8316C168.823 71.704 168.265 71.4198 167.762 70.9792C167.248 70.5438 166.838 69.9851 166.532 69.3032C166.201 68.5636 166.046 67.8483 166.069 67.1575C166.081 66.4719 166.265 65.8615 166.622 65.3264C166.967 64.7964 167.457 64.3888 168.092 64.1035L173.72 61.5743L174.474 63.2559L173.054 63.894C173.621 63.8894 174.165 64.0822 174.687 64.4726C175.192 64.8566 175.592 65.378 175.888 66.0368ZM173.804 68.5354C174.196 68.359 174.452 68.0635 174.571 67.6488C174.679 67.2394 174.624 66.792 174.407 66.3066C174.054 65.5207 173.543 65.0145 172.872 64.788C172.197 64.55 171.455 64.6126 170.647 64.9757L170.439 65.0691L171.45 67.3228C171.709 67.9006 172.055 68.3007 172.487 68.5229C172.903 68.7387 173.342 68.7429 173.804 68.5354Z" fill="#CEBDFF"/>
<path d="M169.41 53.8943C169.749 54.429 169.947 55.0009 170.004 55.6101C170.05 56.2262 169.945 56.7809 169.688 57.2743L170.89 56.51L171.878 58.0657L160.421 65.3523L159.434 63.7966L164 60.8921C163.456 60.9083 162.92 60.7612 162.393 60.4509C161.856 60.1474 161.414 59.723 161.068 59.1776C160.559 58.3757 160.303 57.5706 160.299 56.7622C160.278 55.9499 160.488 55.1936 160.928 54.4934C161.351 53.7893 161.968 53.179 162.78 52.6627C163.592 52.1463 164.411 51.8428 165.238 51.752C166.048 51.6573 166.821 51.7885 167.557 52.1456C168.276 52.4988 168.894 53.0817 169.41 53.8943ZM166.934 59.2064C167.778 58.6697 168.313 58.0137 168.541 57.2385C168.762 56.4526 168.635 55.6855 168.16 54.937C167.685 54.1885 167.048 53.7528 166.25 53.6299C165.446 53.4962 164.622 53.6977 163.778 54.2345C162.934 54.7712 162.402 55.4325 162.181 56.2184C161.953 56.9936 162.077 57.7554 162.552 58.5039C163.027 59.2523 163.667 59.6934 164.471 59.8271C165.269 59.95 166.09 59.7431 166.934 59.2064Z" fill="#CEBDFF"/>
<path d="M162.77 44.8984C163.497 45.76 163.862 46.645 163.866 47.5533C163.87 48.4616 163.506 49.2668 162.773 49.9689L161.659 48.6475C162.042 48.2574 162.231 47.8239 162.227 47.3471C162.214 46.8606 162.003 46.3753 161.595 45.8912C161.252 45.4846 160.878 45.2372 160.472 45.1489C160.059 45.0509 159.716 45.1163 159.446 45.3451C159.175 45.5739 159.032 45.827 159.018 46.1045C158.995 46.3723 159.049 46.642 159.178 46.9137C159.298 47.1935 159.492 47.5605 159.759 48.0147C160.113 48.611 160.375 49.1186 160.546 49.5377C160.7 49.9552 160.729 50.4027 160.635 50.8802C160.532 51.348 160.21 51.8106 159.669 52.2682C159.04 52.7993 158.328 52.9863 157.533 52.8291C156.738 52.6719 156.018 52.2109 155.374 51.4461C154.68 50.6232 154.329 49.7754 154.322 48.9028C154.297 48.0287 154.608 47.2774 155.254 46.6488L156.38 47.9848C156.034 48.36 155.895 48.7843 155.963 49.2575C156.013 49.7292 156.189 50.1441 156.491 50.5023C156.817 50.8896 157.165 51.1258 157.535 51.2111C157.905 51.2963 158.231 51.2205 158.511 50.9835C158.859 50.6894 158.986 50.3585 158.891 49.9909C158.779 49.6218 158.529 49.1286 158.141 48.5114C157.761 47.9039 157.486 47.3817 157.317 46.9448C157.147 46.508 157.12 46.0337 157.235 45.522C157.332 45.0088 157.676 44.503 158.266 44.0046C158.933 43.4408 159.677 43.2431 160.498 43.4115C161.311 43.5702 162.068 44.0659 162.77 44.8984Z" fill="#CEBDFF"/>
<path d="M150.224 37.0498C150.632 37.3909 150.864 37.8242 150.92 38.3498C150.958 38.877 150.807 39.3448 150.466 39.7531C150.125 40.1615 149.697 40.3889 149.18 40.4353C148.645 40.4833 148.173 40.3368 147.766 39.9957C147.358 39.6546 147.134 39.2204 147.096 38.6932C147.04 38.1676 147.182 37.7006 147.523 37.2923C147.864 36.884 148.302 36.6558 148.837 36.6078C149.354 36.5613 149.816 36.7087 150.224 37.0498Z" fill="#CEBDFF"/>
<path d="M142.513 28.3683L137.7 29.4853L145.626 34.4319L144.782 35.7864L136.857 30.8398L137.979 35.6829L136.583 36.0208L134.878 28.6645L142.201 26.9647L142.513 28.3683Z" fill="#CEBDFF"/>
<path d="M131.016 25.0431C131.502 25.2596 131.843 25.613 132.041 26.1032C132.221 26.5999 132.203 27.0912 131.987 27.5773C131.771 28.0633 131.42 28.3993 130.936 28.5854C130.434 28.7779 129.941 28.7658 129.456 28.5493C128.97 28.3328 128.637 27.9762 128.456 27.4795C128.259 26.9893 128.268 26.5011 128.484 26.0151C128.701 25.5291 129.06 25.1899 129.561 24.9974C130.045 24.8113 130.531 24.8265 131.016 25.0431Z" fill="#CEBDFF"/>
<path d="M122.51 18.3679L117.928 22.3953L119.921 27.5923L117.95 27.1008L116.603 23.5532L113.769 26.0582L111.798 25.5668L115.993 21.913L113.834 16.2046L115.731 16.6777L117.296 20.7689L120.613 17.8949L122.51 18.3679Z" fill="#CEBDFF"/>
<path d="M109.907 28.8041L107.484 28.6139L104.092 17.7117L99.0436 27.9512L96.6212 27.761L97.6603 14.5L99.5529 14.6486L98.7795 24.5186L103.508 14.9592L105.098 15.084L108.299 25.266L109.072 15.396L110.946 15.5431L109.907 28.8041Z" fill="#CEBDFF"/>
<path d="M88.9859 15.0347C89.9302 14.9386 90.7949 15.0607 91.58 15.4011C92.3664 15.754 93.0114 16.2805 93.515 16.9805C94.006 17.6819 94.2995 18.5051 94.3955 19.4504C94.4915 20.3956 94.3695 21.2612 94.0295 22.0471C93.6769 22.8342 93.1503 23.4736 92.4497 23.9651C91.7503 24.4692 90.9285 24.7692 89.9842 24.8653C89.0399 24.9614 88.1745 24.833 87.3882 24.48C86.6031 24.1397 85.965 23.6189 85.474 22.9176C84.983 22.2163 84.6895 21.393 84.5935 20.4477C84.4975 19.5025 84.6195 18.6369 84.9595 17.851C85.2995 17.0652 85.8192 16.4202 86.5185 15.9161C87.2192 15.4246 88.0416 15.1308 88.9859 15.0347ZM92.5257 19.6406C92.4272 18.6702 92.0696 17.9044 91.4529 17.3432C90.8236 16.7832 90.0556 16.5494 89.1491 16.6416C88.2552 16.7326 87.5625 17.115 87.0713 17.789C86.5674 18.4642 86.3647 19.287 86.4633 20.2575C86.5618 21.2279 86.9257 21.9931 87.555 22.553C88.1717 23.1142 88.9271 23.3494 89.821 23.2584C90.7275 23.1662 91.4327 22.7824 91.9366 22.1072C92.4279 21.4333 92.6243 20.6111 92.5257 19.6406Z" fill="#CEBDFF"/>
<path d="M83.0509 25.6161L81.2662 26.0701L80.8501 24.4309C80.7513 25.0704 80.4832 25.6091 80.046 26.0471C79.5965 26.4882 79.0221 26.7977 78.323 26.9756C77.2804 27.2408 76.359 27.1092 75.5589 26.5807C74.7466 26.0554 74.2001 25.2402 73.9196 24.1352L72.4702 18.4258L74.2549 17.9719L75.6154 23.3313C75.8025 24.068 76.156 24.612 76.6761 24.9633C77.1839 25.3177 77.7629 25.4123 78.413 25.2469C79.1367 25.0628 79.6646 24.6475 79.9966 24.001C80.3287 23.3545 80.3919 22.6261 80.1862 21.8157L78.9098 16.7878L80.6945 16.3339L83.0509 25.6161Z" fill="#CEBDFF"/>
<path d="M64.782 21.1529C65.6705 20.7842 66.541 20.6698 67.3936 20.8098C68.2344 20.9545 68.9814 21.3028 69.6346 21.8546C70.2878 22.4064 70.7865 23.0977 71.1305 23.9286C71.4746 24.7595 71.6177 25.5847 71.5597 26.4041C71.5066 27.2352 71.2409 27.9832 70.7627 28.6479C70.2893 29.3243 69.6142 29.8444 68.7374 30.2082C67.8605 30.572 67.0265 30.6918 66.2353 30.5676C65.4489 30.4551 64.7587 30.1449 64.1648 29.6371C63.5758 29.141 63.1238 28.5126 62.8088 27.7519C62.7118 27.5178 62.6315 27.2906 62.5676 27.0703L69.3192 24.2688C68.9001 23.4553 68.3326 22.8954 67.6167 22.5891C66.9007 22.2828 66.1569 22.2897 65.3853 22.6099C64.7423 22.8767 64.2719 23.2295 63.9742 23.6685C63.6765 24.1074 63.5675 24.6052 63.6473 25.1618L61.9463 25.8676C61.7319 24.8869 61.8792 23.9687 62.3879 23.1131C62.8967 22.2574 63.6947 21.604 64.782 21.1529ZM64.7672 27.6181C65.1068 28.2726 65.5776 28.7149 66.1798 28.945C66.782 29.1751 67.4455 29.1398 68.1704 28.839C68.8601 28.5528 69.3472 28.1244 69.6315 27.5539C69.909 26.9999 69.9594 26.3276 69.7827 25.537L64.7672 27.6181Z" fill="#CEBDFF"/>
<path d="M55.4388 25.789L63.3654 32.3634L61.7244 33.3188L55.9342 28.3803L57.3758 35.8505L55.7184 36.8154L54.1828 28.125L53.1129 22.7686L54.639 21.8801L55.4388 25.789Z" fill="#CEBDFF"/>
<path d="M52.6422 43.7054L51.1625 45.0138L43.5214 36.3546L38.6698 40.6445L37.5135 39.3342L43.8449 33.7361L52.6422 43.7054Z" fill="#CEBDFF"/>
<path d="M33.5751 43.4757C34.2112 42.7367 34.9247 42.3153 35.7156 42.2115C36.5066 42.1077 37.228 42.337 37.88 42.8992C38.5703 43.4946 38.8979 44.2203 38.8628 45.0762C38.8373 45.9404 38.4528 46.8044 37.7093 47.6682L36.4083 49.1798C36.2679 49.343 36.203 49.496 36.2136 49.639C36.2159 49.7915 36.2842 49.9256 36.4185 50.0414C36.8691 50.43 37.365 50.5818 37.906 50.4966C38.4388 50.421 38.9406 50.1096 39.4115 49.5626C39.8328 49.0731 40.0579 48.5399 40.0868 47.9628C40.1075 47.3954 39.9391 46.9408 39.5817 46.5991L40.6969 45.3035C41.1336 45.747 41.4192 46.2692 41.5536 46.87C41.6975 47.4791 41.6767 48.105 41.4912 48.7476C41.3152 49.3984 40.9835 50.007 40.4961 50.5732C39.9674 51.1875 39.3857 51.6305 38.7508 51.9023C38.1255 52.1824 37.4952 52.2743 36.8599 52.1778C36.2341 52.0897 35.6576 51.8182 35.1303 51.3634L30.4561 47.3324L31.6581 45.9359L32.8374 46.953C32.593 46.4412 32.5368 45.866 32.6688 45.2274C32.8021 44.6067 33.1042 44.0228 33.5751 43.4757ZM36.7192 44.3061C36.3932 44.025 36.0174 43.9182 35.5917 43.9858C35.1756 44.0617 34.794 44.3012 34.4471 44.7043C33.8854 45.3569 33.6441 46.0351 33.7233 46.7388C33.7943 47.4522 34.1653 48.0982 34.8365 48.677L35.009 48.8259L36.6199 46.9544C37.0329 46.4745 37.2483 45.9914 37.266 45.505C37.285 45.0365 37.1028 44.6368 36.7192 44.3061Z" fill="#CEBDFF"/>
<path d="M25.3341 54.4956C25.674 53.9613 26.1075 53.5393 26.6347 53.2295C27.1725 52.9266 27.719 52.7868 28.2742 52.8103L27.0733 52.0448L28.0624 50.49L39.5113 57.7881L38.5222 59.3428L33.9586 56.4338C34.2041 56.9207 34.298 57.4687 34.2406 58.0779C34.1938 58.6939 33.997 59.2744 33.6504 59.8193C33.1405 60.6208 32.5206 61.1943 31.7905 61.5399C31.0644 61.9031 30.2912 62.0335 29.471 61.9313C28.6548 61.8465 27.841 61.5455 27.0297 61.0283C26.2184 60.5112 25.5964 59.8969 25.1637 59.1856C24.7349 58.4917 24.526 57.7352 24.5369 56.9161C24.5517 56.1146 24.8174 55.3077 25.3341 54.4956ZM31.19 54.4888C30.3467 53.9512 29.5261 53.7435 28.7282 53.8657C27.9234 53.9985 27.2832 54.4389 26.8073 55.1869C26.3315 55.9349 26.207 56.6966 26.4339 57.472C26.6539 58.2581 27.1856 58.92 28.029 59.4576C28.8723 59.9951 29.6963 60.1975 30.501 60.0646C31.2989 59.9425 31.9358 59.5074 32.4117 58.7594C32.8875 58.0114 33.0154 57.2443 32.7953 56.4582C32.5684 55.6828 32.0333 55.0263 31.19 54.4888Z" fill="#CEBDFF"/>
<path d="M20.0085 64.3281C20.4802 63.3042 21.1261 62.598 21.9463 62.2093C22.7664 61.8206 23.6494 61.8097 24.5953 62.1765L23.8719 63.7468C23.3565 63.5647 22.8841 63.5768 22.4546 63.7831C22.0198 64.0009 21.6699 64.3974 21.4049 64.9726C21.1823 65.4558 21.117 65.9 21.2091 66.3052C21.2958 66.7219 21.5001 67.0045 21.8219 67.1531C22.1437 67.3016 22.4332 67.3236 22.6904 67.2192C22.9423 67.1262 23.1636 66.9633 23.3545 66.7305C23.5568 66.5031 23.8069 66.1721 24.1046 65.7375C24.4942 65.1641 24.8423 64.711 25.1489 64.3782C25.4617 64.0622 25.8541 63.8457 26.3261 63.7288C26.7928 63.6233 27.3479 63.7192 27.9915 64.0162C28.7385 64.3611 29.2094 64.9272 29.4041 65.7146C29.5988 66.502 29.4868 67.3501 29.0681 68.2589C28.6177 69.2368 27.9991 69.9138 27.2126 70.2901C26.4322 70.6832 25.6208 70.7202 24.7783 70.4011L25.5097 68.8135C25.9959 68.9682 26.4387 68.9145 26.8382 68.6525C27.2438 68.4073 27.5447 68.0718 27.7407 67.6462C27.9527 67.186 28.0189 66.7702 27.9392 66.3986C27.8595 66.027 27.6531 65.7643 27.3198 65.6104C26.906 65.4194 26.5529 65.4448 26.2604 65.6864C25.9741 65.9449 25.634 66.3807 25.2399 66.994C24.8512 67.5958 24.4952 68.0662 24.1718 68.4052C23.8484 68.7442 23.4308 68.9699 22.919 69.0825C22.4135 69.2118 21.8102 69.1147 21.1091 68.7911C20.3161 68.425 19.8218 67.8341 19.6262 67.0184C19.4253 66.2142 19.5528 65.3174 20.0085 64.3281Z" fill="#CEBDFF"/>
<path d="M18.2247 79.0298C18.3605 78.5154 18.6542 78.1213 19.106 77.8477C19.5669 77.5896 20.0542 77.5284 20.5681 77.6643C21.082 77.8002 21.4696 78.0926 21.7307 78.5416C22.0008 79.0061 22.068 79.4956 21.9323 80.01C21.7965 80.5245 21.4983 80.9107 21.0375 81.1689C20.5857 81.4425 20.1028 81.5114 19.5889 81.3755C19.075 81.2397 18.683 80.9395 18.4128 80.475C18.1517 80.026 18.089 79.5442 18.2247 79.0298Z" fill="#CEBDFF"/>
<path d="M13.638 89.7009L16.6884 93.5902L17.8049 84.3081L19.3881 84.4989L18.2716 93.7811L22.1782 90.711L23.0757 91.8336L17.1419 96.4967L12.5 90.5781L13.638 89.7009Z" fill="#CEBDFF"/>
<path d="M15.5021 101.533C15.4923 101.001 15.6673 100.542 16.0272 100.155C16.4 99.7808 16.8521 99.5887 17.3835 99.5788C17.915 99.5689 18.3676 99.7442 18.7414 100.105C19.128 100.478 19.3263 100.93 19.3362 101.462C19.346 101.994 19.1646 102.447 18.7918 102.822C18.4319 103.208 17.9862 103.407 17.4548 103.417C16.9233 103.427 16.4643 103.245 16.0776 102.872C15.7038 102.512 15.512 102.065 15.5021 101.533Z" fill="#CEBDFF"/>
<g opacity="0.4">
<path d="M62.2193 206.443L68.3229 201.449L65.9519 194.631L68.4863 195.36L70.0876 200.014L73.863 196.907L76.3974 197.636L70.8099 202.165L73.3754 209.653L70.9357 208.951L69.0757 203.583L64.6589 207.145L62.2193 206.443Z" fill="#CEBDFF"/>
<path d="M78.9804 193.537L82.1122 193.898L86.0625 208.164L93.0246 195.154L96.1564 195.515L94.2673 212.623L91.8206 212.341L93.2266 199.608L86.7069 211.752L84.6516 211.516L80.9196 198.191L79.5135 210.924L77.0913 210.645L78.9804 193.537Z" fill="#CEBDFF"/>
<path d="M105.531 212.342C104.304 212.421 103.188 212.223 102.184 211.745C101.18 211.251 100.365 210.54 99.7412 209.61C99.1335 208.679 98.7868 207.6 98.7011 206.373C98.6154 205.145 98.8089 204.031 99.2817 203.031C99.7708 202.029 100.479 201.227 101.408 200.624C102.335 200.005 103.412 199.655 104.64 199.576C105.868 199.496 106.984 199.703 107.989 200.197C108.992 200.674 109.798 201.378 110.405 202.309C111.013 203.24 111.36 204.319 111.446 205.546C111.531 206.774 111.338 207.888 110.865 208.889C110.392 209.889 109.692 210.699 108.765 211.318C107.837 211.921 106.759 212.262 105.531 212.342ZM101.132 206.215C101.22 207.475 101.652 208.483 102.429 209.238C103.221 209.993 104.207 210.331 105.386 210.255C106.548 210.18 107.461 209.718 108.126 208.869C108.806 208.019 109.103 206.964 109.015 205.704C108.927 204.444 108.486 203.436 107.693 202.682C106.917 201.927 105.948 201.587 104.786 201.662C103.607 201.739 102.677 202.202 101.997 203.052C101.332 203.9 101.044 204.955 101.132 206.215Z" fill="#CEBDFF"/>
<path d="M113.656 198.932L115.988 198.429L116.46 200.57C116.614 199.747 116.984 199.063 117.568 198.517C118.169 197.967 118.926 197.594 119.839 197.397C121.201 197.103 122.39 197.317 123.406 198.039C124.437 198.757 125.112 199.837 125.43 201.28L127.075 208.736L124.743 209.239L123.199 202.24C122.987 201.278 122.551 200.558 121.891 200.079C121.248 199.596 120.501 199.446 119.652 199.629C118.707 199.833 118.005 200.346 117.549 201.166C117.092 201.987 116.98 202.927 117.214 203.985L118.662 210.55L116.331 211.053L113.656 198.932Z" fill="#CEBDFF"/>
<path d="M137.151 205.571C135.984 206.006 134.851 206.113 133.752 205.892C132.668 205.664 131.714 205.179 130.89 204.434C130.066 203.689 129.448 202.771 129.036 201.68C128.624 200.588 128.473 199.514 128.581 198.456C128.684 197.384 129.059 196.429 129.706 195.591C130.347 194.738 131.244 194.097 132.395 193.668C133.546 193.239 134.632 193.123 135.652 193.322C136.667 193.504 137.549 193.938 138.298 194.623C139.041 195.293 139.601 196.128 139.978 197.127C140.094 197.434 140.189 197.732 140.263 198.02L131.398 201.325C131.908 202.397 132.62 203.149 133.536 203.579C134.451 204.009 135.415 204.035 136.429 203.658C137.273 203.343 137.897 202.909 138.301 202.355C138.704 201.801 138.866 201.162 138.785 200.438L141.019 199.605C141.257 200.884 141.028 202.065 140.334 203.148C139.639 204.231 138.579 205.039 137.151 205.571ZM137.434 197.207C137.021 196.344 136.429 195.75 135.658 195.424C134.887 195.097 134.026 195.112 133.074 195.467C132.168 195.804 131.519 196.335 131.128 197.06C130.745 197.764 130.652 198.631 130.849 199.662L137.434 197.207Z" fill="#CEBDFF"/>
<path d="M149.45 200.015L139.445 191.134L141.611 189.975L148.914 196.639L147.351 186.906L149.538 185.736L151.173 197.052L152.341 204.033L150.326 205.11L149.45 200.015Z" fill="#CEBDFF"/>
<path d="M153.807 176.967L155.778 175.344L165.327 186.909L171.791 181.588L173.236 183.338L164.801 190.281L153.807 176.967Z" fill="#CEBDFF"/>
<path d="M178.509 178.166C177.655 179.092 176.713 179.604 175.683 179.7C174.654 179.797 173.728 179.467 172.906 178.708C172.036 177.905 171.641 176.951 171.722 175.845C171.79 174.728 172.324 173.629 173.323 172.546L175.071 170.652C175.259 170.448 175.35 170.253 175.342 170.067C175.345 169.87 175.262 169.693 175.093 169.537C174.525 169.013 173.888 168.793 173.184 168.878C172.49 168.95 171.827 169.329 171.194 170.015C170.628 170.628 170.315 171.307 170.253 172.053C170.203 172.786 170.403 173.382 170.852 173.841L169.354 175.464C168.806 174.87 168.457 174.181 168.308 173.397C168.146 172.602 168.199 171.793 168.465 170.971C168.72 170.137 169.175 169.365 169.83 168.656C170.54 167.886 171.312 167.34 172.146 167.019C172.968 166.686 173.789 166.597 174.608 166.752C175.415 166.895 176.152 167.274 176.816 167.887L182.709 173.324L181.095 175.074L179.608 173.702C179.904 174.376 179.953 175.123 179.756 175.943C179.557 176.739 179.142 177.481 178.509 178.166ZM174.468 176.943C174.879 177.322 175.362 177.478 175.917 177.411C176.459 177.332 176.963 177.04 177.43 176.535C178.184 175.717 178.525 174.851 178.451 173.937C178.388 173.011 177.934 172.157 177.087 171.377L176.87 171.176L174.706 173.521C174.151 174.123 173.852 174.738 173.809 175.366C173.765 175.971 173.985 176.497 174.468 176.943Z" fill="#CEBDFF"/>
<path d="M189.641 164.298C189.178 164.973 188.599 165.499 187.903 165.875C187.194 166.241 186.48 166.396 185.761 166.34L187.286 167.387L185.941 169.352L171.401 159.368L172.747 157.403L178.542 161.383C178.244 160.741 178.145 160.028 178.244 159.242C178.33 158.447 178.609 157.706 179.08 157.017C179.774 156.004 180.601 155.291 181.561 154.879C182.517 154.443 183.524 154.311 184.583 154.482C185.638 154.631 186.68 155.058 187.71 155.766C188.741 156.473 189.522 157.298 190.053 158.238C190.581 159.156 190.821 160.145 190.773 161.204C190.721 162.241 190.344 163.272 189.641 164.298ZM182.051 164.03C183.122 164.766 184.177 165.073 185.216 164.953C186.264 164.819 187.112 164.279 187.76 163.334C188.407 162.389 188.599 161.409 188.337 160.395C188.084 159.368 187.422 158.486 186.351 157.751C185.28 157.016 184.22 156.715 183.172 156.849C182.133 156.969 181.29 157.502 180.642 158.447C179.995 159.392 179.798 160.379 180.051 161.406C180.313 162.42 180.98 163.295 182.051 164.03Z" fill="#CEBDFF"/>
<path d="M196.945 151.829C196.292 153.131 195.426 154.014 194.347 154.479C193.268 154.943 192.123 154.915 190.912 154.396L191.914 152.398C192.575 152.658 193.187 152.665 193.753 152.418C194.325 152.157 194.795 151.661 195.162 150.929C195.47 150.314 195.573 149.743 195.47 149.214C195.375 148.671 195.121 148.295 194.71 148.088C194.299 147.881 193.925 147.838 193.588 147.961C193.257 148.07 192.964 148.27 192.707 148.562C192.435 148.847 192.098 149.263 191.694 149.811C191.166 150.535 190.696 151.105 190.285 151.521C189.867 151.915 189.349 152.176 188.733 152.305C188.124 152.42 187.408 152.269 186.586 151.855C185.632 151.373 185.045 150.618 184.825 149.59C184.605 148.563 184.784 147.471 185.364 146.314C185.988 145.071 186.817 144.224 187.852 143.774C188.88 143.303 189.933 143.293 191.012 143.746L189.999 145.765C189.375 145.542 188.799 145.591 188.27 145.911C187.735 146.209 187.331 146.629 187.06 147.17C186.766 147.755 186.663 148.29 186.751 148.775C186.839 149.259 187.096 149.609 187.522 149.824C188.05 150.091 188.509 150.074 188.898 149.776C189.28 149.455 189.738 148.907 190.274 148.132C190.802 147.372 191.283 146.78 191.716 146.357C192.149 145.934 192.7 145.661 193.367 145.54C194.028 145.396 194.806 145.551 195.701 146.003C196.714 146.514 197.33 147.302 197.551 148.366C197.778 149.416 197.576 150.57 196.945 151.829Z" fill="#CEBDFF"/>
<path d="M199.858 132.892C199.661 133.551 199.264 134.047 198.668 134.38C198.06 134.692 197.426 134.748 196.765 134.548C196.105 134.348 195.614 133.951 195.294 133.358C194.963 132.744 194.896 132.108 195.093 131.448C195.29 130.789 195.693 130.304 196.3 129.991C196.897 129.659 197.526 129.592 198.186 129.793C198.847 129.993 199.342 130.4 199.674 131.013C199.994 131.607 200.055 132.233 199.858 132.892Z" fill="#CEBDFF"/>
<path d="M206.239 119.303L202.445 114.126L200.618 126.083L198.574 125.761L200.401 113.804L195.212 117.592L194.095 116.097L201.976 110.344L207.75 118.221L206.239 119.303Z" fill="#CEBDFF"/>
<path d="M204.307 103.905C204.298 104.594 204.053 105.18 203.57 105.664C203.072 106.13 202.478 106.358 201.789 106.345C201.1 106.333 200.52 106.085 200.051 105.601C199.565 105.1 199.326 104.505 199.335 103.816C199.344 103.128 199.598 102.55 200.096 102.083C200.579 101.6 201.164 101.364 201.854 101.376C202.543 101.389 203.13 101.645 203.616 102.146C204.086 102.63 204.316 103.217 204.307 103.905Z" fill="#CEBDFF"/>
<path d="M207.894 90.3823L200.754 86.9514L195.59 91.9572L195.165 89.3572L198.697 85.956L194.264 83.8413L193.839 81.2413L200.337 84.4L206.024 78.9374L206.433 81.4402L202.365 85.375L207.485 87.8795L207.894 90.3823Z" fill="#CEBDFF"/>
<path d="M189.018 80.6223L188.004 77.636L199.24 68.077L184.469 67.2306L183.454 64.2443L199.767 58.7795L200.56 61.1125L188.418 65.1799L202.216 65.9886L202.882 67.9484L192.405 76.9151L204.547 72.8478L205.331 75.1575L189.018 80.6223Z" fill="#CEBDFF"/>
<path d="M194.687 48.7007C195.286 49.7787 195.583 50.8721 195.58 51.9808C195.563 53.0975 195.267 54.1331 194.692 55.0879C194.109 56.0283 193.279 56.7947 192.204 57.3871C191.128 57.9795 190.035 58.2716 188.926 58.2633C187.809 58.2406 186.778 57.9356 185.834 57.3482C184.876 56.7687 184.098 55.9399 183.5 54.8618C182.902 53.7838 182.612 52.6864 182.629 51.5698C182.632 50.4611 182.925 49.4365 183.508 48.4962C184.091 47.5558 184.92 46.7894 185.996 46.197C187.072 45.6045 188.164 45.3125 189.273 45.3208C190.383 45.3291 191.417 45.623 192.375 46.2025C193.318 46.7899 194.089 47.6226 194.687 48.7007ZM191.02 55.2526C192.124 54.6443 192.852 53.8305 193.204 52.811C193.548 51.7771 193.433 50.7427 192.859 49.7078C192.293 48.6872 191.483 48.0542 190.429 47.8088C189.367 47.5491 188.284 47.7233 187.18 48.3315C186.076 48.9397 185.351 49.7608 185.007 50.7946C184.656 51.8141 184.763 52.8342 185.329 53.8547C185.903 54.8896 186.721 55.537 187.783 55.7968C188.836 56.0422 189.915 55.8608 191.02 55.2526Z" fill="#CEBDFF"/>
<path d="M179.055 46.9696L177.601 45.0699L179.338 43.7448C178.526 43.9502 177.748 43.9027 177.003 43.6025C176.248 43.2893 175.585 42.7605 175.015 42.0163C174.166 40.9065 173.85 39.7407 174.069 38.5189C174.278 37.2841 174.969 36.22 176.14 35.3267L182.192 30.711L183.646 32.6107L177.965 36.9435C177.184 37.5391 176.718 38.2359 176.566 39.0341C176.405 39.8192 176.589 40.5577 177.119 41.2497C177.708 42.02 178.473 42.4399 179.413 42.5092C180.352 42.5785 181.251 42.2856 182.11 41.6304L187.44 37.5656L188.894 39.4654L179.055 46.9696Z" fill="#CEBDFF"/>
<path d="M175.008 22.9171C175.902 23.7907 176.484 24.7715 176.754 25.8594C177.013 26.9358 176.981 28.0031 176.659 29.0614C176.337 30.1197 175.77 31.0641 174.957 31.8947C174.145 32.7253 173.236 33.3132 172.231 33.6583C171.215 34.0152 170.189 34.0763 169.153 33.8418C168.105 33.619 167.14 33.0765 166.258 32.2144C165.376 31.3522 164.806 30.4177 164.549 29.4109C164.28 28.4158 164.296 27.4356 164.596 26.4703C164.884 25.5167 165.401 24.6597 166.144 23.8993C166.373 23.6653 166.602 23.4545 166.832 23.267L173.624 29.9056C174.378 28.9944 174.753 28.0342 174.751 27.0252C174.749 26.0161 174.36 25.1323 173.583 24.3735C172.937 23.7413 172.276 23.3585 171.601 23.2252C170.926 23.092 170.278 23.2136 169.656 23.5902L167.945 21.9176C169.002 21.1661 170.17 20.8775 171.449 21.0519C172.728 21.2262 173.914 21.848 175.008 22.9171ZM167.307 26.1682C166.702 26.9042 166.417 27.6896 166.451 28.5244C166.486 29.3592 166.868 30.1329 167.597 30.8456C168.291 31.5239 169.05 31.8884 169.875 31.9392C170.676 31.9902 171.502 31.7104 172.353 31.0998L167.307 26.1682Z" fill="#CEBDFF"/>
<path d="M164.705 14.114L160.942 26.8948L158.964 25.4201L161.875 16.0152L153.724 21.5119L151.726 20.0223L161.282 13.7965L167.108 9.81189L168.947 11.1834L164.705 14.114Z" fill="#CEBDFF"/>
<path d="M141.951 19.8357L139.636 18.7318L146.027 5.23759L138.437 1.6181L139.404 -0.423793L149.309 4.2996L141.951 19.8357Z" fill="#CEBDFF"/>
<path d="M132.458 -3.02872C133.663 -2.64348 134.53 -2.00528 135.058 -1.11411C135.587 -0.222939 135.684 0.753709 135.349 1.81584C134.994 2.94046 134.298 3.6982 133.262 4.08906C132.22 4.49554 130.995 4.47365 129.586 4.02338L127.121 3.23539C126.855 3.15034 126.639 3.15029 126.475 3.23522C126.294 3.31515 126.17 3.46444 126.101 3.68311C125.869 4.41724 125.943 5.08553 126.321 5.68798C126.684 6.28543 127.311 6.72673 128.204 7.01191C129.002 7.26706 129.752 7.26603 130.453 7.00879C131.139 6.74655 131.594 6.31584 131.817 5.71668L133.931 6.3921C133.626 7.13745 133.151 7.74216 132.505 8.20624C131.854 8.68594 131.099 8.97752 130.239 9.08101C129.374 9.20011 128.48 9.11208 127.557 8.8169C126.555 8.4967 125.73 8.0266 125.081 7.40657C124.427 6.80217 123.995 6.0966 123.784 5.28988C123.569 4.49877 123.596 3.67367 123.868 2.81459L126.27 -4.79999L128.548 -4.07204L127.942 -2.15082C128.425 -2.70117 129.081 -3.05902 129.909 -3.22437C130.716 -3.37911 131.565 -3.3139 132.458 -3.02872ZM133.08 1.14226C133.248 0.611192 133.182 0.108816 132.883 -0.364896C132.58 -0.822988 132.1 -1.15711 131.442 -1.36724C130.378 -1.70744 129.447 -1.6524 128.65 -1.20211C127.838 -0.756828 127.259 0.0125083 126.914 1.10588L126.825 1.38703L129.878 2.36263C130.66 2.61278 131.345 2.62547 131.933 2.40069C132.501 2.18652 132.883 1.76705 133.08 1.14226Z" fill="#CEBDFF"/>
<path d="M115.122 -7.28925C115.932 -7.15385 116.656 -6.85 117.295 -6.37768C117.931 -5.88919 118.377 -5.3078 118.634 -4.63353L118.93 -6.45336L121.286 -6.05937L118.466 11.2897L116.109 10.8957L117.233 3.98031C116.78 4.51926 116.176 4.90846 115.421 5.1479C114.664 5.40351 113.873 5.46226 113.047 5.32416C111.832 5.12106 110.832 4.67141 110.046 3.97519C109.242 3.29244 108.691 2.43596 108.393 1.40574C108.075 0.388984 108.017 -0.7341 108.217 -1.9635C108.416 -3.19289 108.829 -4.24552 109.454 -5.12139C110.06 -5.98379 110.853 -6.61552 111.833 -7.01658C112.795 -7.40417 113.891 -7.49505 115.122 -7.28925ZM118.13 -0.306243C118.338 -1.58417 118.164 -2.66824 117.61 -3.55843C117.04 -4.45133 116.188 -4.99254 115.054 -5.1821C113.92 -5.37165 112.95 -5.13508 112.143 -4.47235C111.321 -3.81233 110.805 -2.84335 110.598 -1.56543C110.39 -0.287503 110.571 0.79791 111.142 1.69081C111.696 2.581 112.54 3.12088 113.674 3.31044C114.807 3.49999 115.786 3.26475 116.609 2.60473C117.415 1.942 117.922 0.971681 118.13 -0.306243Z" fill="#CEBDFF"/>
<path d="M100.693 -8.6719C102.153 -8.62681 103.325 -8.21328 104.207 -7.43131C105.09 -6.64935 105.555 -5.60136 105.603 -4.28735L103.364 -4.3565C103.317 -5.06345 103.06 -5.62099 102.595 -6.02913C102.113 -6.43777 101.462 -6.65476 100.641 -6.6801C99.9524 -6.70138 99.3904 -6.55466 98.9553 -6.23996C98.5039 -5.92577 98.2722 -5.53918 98.2602 -5.08016C98.2483 -4.62114 98.3704 -4.26462 98.6265 -4.01061C98.8662 -3.75711 99.1734 -3.57536 99.5481 -3.46534C99.9225 -3.33893 100.444 -3.20795 101.114 -3.07243C101.996 -2.89753 102.714 -2.7113 103.267 -2.51375C103.803 -2.30031 104.262 -1.94159 104.643 -1.43763C105.007 -0.93417 105.177 -0.22343 105.154 0.694607C105.126 1.76019 104.693 2.60818 103.856 3.23859C103.019 3.869 101.952 4.16418 100.656 4.12415C99.2617 4.08109 98.1392 3.68548 97.2885 2.93731C96.4209 2.20503 95.9613 1.25565 95.9095 0.08918L98.1733 0.159103C98.2383 0.817378 98.529 1.31855 99.0455 1.66263C99.5451 2.0226 100.098 2.21196 100.705 2.23071C101.362 2.25097 101.89 2.11964 102.292 1.83671C102.693 1.55379 102.9 1.17463 102.912 0.699218C102.928 0.109052 102.717 -0.299429 102.279 -0.526224C101.825 -0.737132 101.132 -0.922594 100.2 -1.08262C99.2851 -1.24214 98.543 -1.42914 97.9739 -1.64359C97.4049 -1.85805 96.9223 -2.24211 96.5262 -2.79576C96.1133 -3.33352 95.9199 -4.1024 95.9459 -5.1024C95.9753 -6.23355 96.4252 -7.12203 97.2957 -7.76782C98.1499 -8.41411 99.2823 -8.71547 100.693 -8.6719Z" fill="#CEBDFF"/>
<path d="M82.284 -3.36714C82.9657 -3.46528 83.5851 -3.31401 84.1422 -2.91333C84.6854 -2.49408 85.0078 -1.94355 85.1094 -1.26172C85.2109 -0.579888 85.0614 0.0303106 84.6609 0.568864C84.2465 1.12599 83.6984 1.45362 83.0167 1.55176C82.335 1.64991 81.7225 1.48935 81.1792 1.0701C80.6222 0.669413 80.2929 0.12816 80.1913 -0.553669C80.0897 -1.2355 80.2462 -1.85497 80.6605 -2.4121C81.0611 -2.95065 81.6023 -3.269 82.284 -3.36714Z" fill="#CEBDFF"/>
<path d="M67.2356 -3.44425L64.1697 2.16144L75.7876 -1.19944L76.3716 0.785877L64.7536 4.14674L70.4082 7.25541L69.532 8.89372L60.9432 4.17192L65.6087 -4.35848L67.2356 -3.44425Z" fill="#CEBDFF"/>
<path d="M54.1095 4.76204C54.7375 4.48131 55.3738 4.45784 56.0185 4.69166C56.655 4.94715 57.1152 5.38942 57.3992 6.01847C57.6832 6.64753 57.7064 7.27615 57.4689 7.90434C57.2232 8.55419 56.7863 9.01948 56.1583 9.30021C55.5303 9.58095 54.898 9.59358 54.2616 9.3381C53.6169 9.10428 53.1526 8.67284 52.8686 8.04378C52.5846 7.41473 52.5654 6.77528 52.8112 6.12543C53.0487 5.49724 53.4815 5.04278 54.1095 4.76204Z" fill="#CEBDFF"/>
<path d="M40.3181 7.18701L40.2672 15.0893L47.0153 17.664L44.841 19.139L40.2461 17.3685L40.2283 22.2681L38.054 23.7431L38.1335 16.5367L30.7472 13.6796L32.8402 12.2598L38.1482 14.2915L38.2251 8.60684L40.3181 7.18701Z" fill="#CEBDFF"/>
<path d="M39.558 28.3669L37.2862 30.5378L23.8107 24.3751L29.3706 38.1018L27.0989 40.2727L15.159 27.7972L16.9338 26.1012L25.8205 35.3865L20.6432 22.5566L22.134 21.132L34.7477 26.8558L25.8611 17.5705L27.6182 15.8915L39.558 28.3669Z" fill="#CEBDFF"/>
<path d="M8.20103 36.6225C8.92184 35.629 9.78524 34.901 10.7912 34.4386C11.8105 33.9859 12.876 33.8196 13.9875 33.9398C15.0895 34.0732 16.1393 34.5026 17.1369 35.2279C18.1345 35.9532 18.8672 36.8197 19.3348 37.8275C19.7929 38.8484 19.9578 39.9093 19.8298 41.01C19.715 42.1204 19.2972 43.1723 18.5764 44.1658C17.8556 45.1593 16.9855 45.8824 15.9662 46.3352C14.9603 46.7976 13.9063 46.9621 12.8043 46.8287C11.7024 46.6952 10.6526 46.2659 9.65494 45.5405C8.65731 44.8152 7.92468 43.9487 7.45703 42.941C6.98938 41.9333 6.81294 40.8742 6.92772 39.7638C7.05579 38.6631 7.48023 37.616 8.20103 36.6225ZM15.7097 37.1951C14.6855 36.4504 13.636 36.1326 12.5614 36.2415C11.4771 36.3638 10.589 36.9018 9.897 37.8555C9.21464 38.7961 8.98792 39.7947 9.21684 40.8514C9.43614 41.9214 10.0579 42.8287 11.0821 43.5734C12.1064 44.3181 13.1606 44.6293 14.2449 44.507C15.3195 44.398 16.1981 43.8733 16.8804 42.9328C17.5724 41.979 17.8087 40.9671 17.5894 39.8971C17.3605 38.8404 16.7339 37.9397 15.7097 37.1951Z" fill="#CEBDFF"/>
<path d="M13.328 51.4996L12.2293 53.6129L10.2842 52.5959C10.818 53.2444 11.1085 53.9689 11.1556 54.7694C11.1952 55.5844 10.9997 56.4059 10.5694 57.2338C9.92754 58.4684 9.00612 59.2428 7.80511 59.5569C6.59654 59.8856 5.33659 59.7071 4.02528 59.0214L-2.74982 55.4789L-1.65119 53.3655L4.70868 56.6909C5.58289 57.148 6.41412 57.2779 7.20239 57.0804C7.98311 56.8975 8.57357 56.4212 8.97376 55.6514C9.41925 54.7944 9.47221 53.9262 9.13262 53.0467C8.79304 52.1671 8.14243 51.476 7.1808 50.9732L1.21433 47.8534L2.31297 45.7401L13.328 51.4996Z" fill="#CEBDFF"/>
<path d="M-6.73603 65.2504C-6.32715 64.0748 -5.68763 63.1366 -4.81747 62.4357C-3.95268 61.7504 -2.9718 61.3315 -1.87481 61.1792C-0.777825 61.0269 0.321044 61.1443 1.42179 61.5315C2.52254 61.9187 3.44451 62.4947 4.1877 63.2596C4.94639 64.0299 5.44134 64.9332 5.67256 65.9693C5.91929 67.011 5.84091 68.1118 5.43741 69.2719C5.03392 70.4321 4.4311 71.3398 3.62897 71.9951C2.84234 72.6559 1.94736 73.0529 0.944031 73.186C-0.0437968 73.3247 -1.04157 73.2167 -2.0493 72.8623C-2.35937 72.7532 -2.64857 72.6341 -2.91687 72.505L0.190052 63.5721C-0.95848 63.2723 -1.9895 63.335 -2.90299 63.7602C-3.81649 64.1853 -4.45076 64.9084 -4.80584 65.9293C-5.10174 66.78 -5.16555 67.5388 -4.99726 68.2057C-4.82898 68.8725 -4.4411 69.4082 -3.83363 69.8128L-4.61641 72.0635C-5.75036 71.4215 -6.51221 70.4852 -6.90194 69.2544C-7.29167 68.0236 -7.23636 66.6889 -6.73603 65.2504ZM-0.491029 70.8584C0.435074 71.0973 1.26897 71.0261 2.01065 70.6446C2.75233 70.2632 3.28994 69.5929 3.6235 68.6339C3.94091 67.7213 3.94603 66.8811 3.63885 66.1133C3.34179 65.3665 2.73451 64.7362 1.81697 64.2225L-0.491029 70.8584Z" fill="#CEBDFF"/>
<path d="M-10.3006 78.2691L2.89395 76.3156L2.40445 78.7243L-7.36547 80.0335L1.1073 85.1071L0.612899 87.5398L-9.122 81.5012L-15.2285 77.8981L-14.7733 75.6581L-10.3006 78.2691Z" fill="#CEBDFF"/>
<path d="M4.63068 96.4669L4.62183 99.0254L-10.3444 98.8999L-10.3734 107.289L-12.638 107.27L-12.6002 96.3223L4.63068 96.4669Z" fill="#CEBDFF"/>
<path d="M-12.0236 114.65C-12.1907 113.397 -11.9837 112.345 -11.4026 111.493C-10.8214 110.64 -9.97774 110.143 -8.87163 110.001C-7.70046 109.851 -6.71577 110.163 -5.91755 110.937C-5.10307 111.71 -4.59815 112.828 -4.4028 114.292L-4.06094 116.854C-4.02404 117.131 -3.93185 117.326 -3.78435 117.439C-3.63469 117.569 -3.44599 117.619 -3.21826 117.59C-2.45374 117.491 -1.87958 117.145 -1.49575 116.549C-1.10975 115.97 -0.978613 115.217 -1.10233 114.29C-1.21303 113.46 -1.53517 112.782 -2.06876 112.255C-2.60019 111.744 -3.18526 111.513 -3.82399 111.562L-4.11701 109.366C-3.31128 109.328 -2.55976 109.505 -1.86243 109.895C-1.14883 110.283 -0.561005 110.845 -0.0989609 111.58C0.379349 112.313 0.682527 113.159 0.810589 114.119C0.949503 115.16 0.876945 116.104 0.592911 116.951C0.325143 117.796 -0.129163 118.484 -0.770008 119.013C-1.39459 119.54 -2.1542 119.861 -3.04884 119.975L-10.9786 120.994L-11.2945 118.627L-9.29371 118.37C-9.99969 118.163 -10.6049 117.719 -11.1092 117.039C-11.5951 116.374 -11.8999 115.577 -12.0236 114.65ZM-8.51028 112.337C-9.06333 112.408 -9.49058 112.678 -9.792 113.147C-10.0772 113.614 -10.1742 114.189 -10.083 114.872C-9.93539 115.979 -9.4869 116.798 -8.7375 117.331C-7.98593 117.879 -7.04084 118.081 -5.9022 117.934L-5.6094 117.897L-6.03266 114.725C-6.14119 113.911 -6.4232 113.286 -6.87871 112.848C-7.31577 112.424 -7.85963 112.254 -8.51028 112.337Z" fill="#CEBDFF"/>
<path d="M-8.45947 132.13C-8.68367 131.34 -8.71855 130.557 -8.56408 129.78C-8.39383 129 -8.05808 128.352 -7.55687 127.837L-9.33279 128.332L-9.98523 126.034L6.94514 121.311L7.59758 123.609L0.849115 125.492C1.53185 125.677 2.14327 126.06 2.68338 126.643C3.23927 127.221 3.63157 127.913 3.86026 128.718C4.19658 129.903 4.21744 130.997 3.92286 132C3.64856 133.014 3.10851 133.873 2.30269 134.575C1.51715 135.288 0.524513 135.813 -0.675215 136.147C-1.87494 136.482 -3.00551 136.55 -4.06692 136.352C-5.10806 136.165 -6.0203 135.712 -6.80365 134.992C-7.56673 134.285 -8.11867 133.33 -8.45947 132.13ZM-3.41953 126.478C-4.66662 126.826 -5.57485 127.438 -6.14423 128.312C-6.70914 129.203 -6.83465 130.202 -6.52075 131.307C-6.20686 132.413 -5.57688 133.192 -4.63083 133.645C-3.68028 134.113 -2.58147 134.173 -1.33438 133.825C-0.0872986 133.477 0.818692 132.858 1.38359 131.967C1.95298 131.092 2.08073 130.101 1.76684 128.995C1.45295 127.89 0.820728 127.103 -0.129815 126.635C-1.07587 126.182 -2.17244 126.13 -3.41953 126.478Z" fill="#CEBDFF"/>
<path d="M-3.53215 145.771C-4.11666 144.431 -4.24362 143.197 -3.91304 142.07C-3.58246 140.943 -2.83203 140.082 -1.66175 139.488L-0.765287 141.544C-1.38569 141.883 -1.78114 142.349 -1.95162 142.941C-2.11553 143.549 -2.03329 144.229 -1.70491 144.983C-1.42908 145.615 -1.05539 146.062 -0.583858 146.324C-0.105756 146.601 0.34384 146.649 0.764931 146.467C1.18602 146.285 1.45682 146.025 1.57732 145.687C1.7044 145.364 1.73752 145.009 1.6767 144.624C1.63092 144.232 1.52603 143.705 1.36203 143.042C1.14274 142.17 1.00416 141.442 0.946297 140.859C0.910036 140.284 1.03868 139.718 1.33223 139.162C1.63234 138.621 2.20348 138.169 3.04567 137.805C4.0232 137.383 4.97694 137.419 5.90687 137.913C6.8368 138.406 7.56118 139.248 8.08002 140.438C8.63826 141.718 8.76057 142.901 8.44693 143.984C8.1549 145.077 7.49142 145.891 6.45649 146.427L5.55017 144.349C6.11889 144.014 6.44857 143.54 6.53919 142.928C6.65141 142.325 6.58602 141.745 6.34303 141.188C6.08032 140.585 5.73481 140.162 5.30649 139.917C4.87817 139.672 4.44595 139.644 4.00982 139.832C3.46841 140.066 3.18862 140.428 3.17043 140.919C3.17386 141.419 3.30258 142.124 3.55662 143.034C3.80409 143.93 3.95253 144.68 4.00193 145.285C4.05132 145.89 3.90997 146.488 3.57788 147.079C3.26738 147.678 2.65345 148.176 1.73607 148.572C0.698385 149.019 -0.299517 148.985 -1.25763 148.467C-2.20917 147.965 -2.96734 147.067 -3.53215 145.771Z" fill="#CEBDFF"/>
<path d="M9.16042 160.211C8.77948 159.635 8.65126 159.011 8.77577 158.339C8.92302 157.671 9.28385 157.148 9.85825 156.77C10.4327 156.393 11.0497 156.272 11.7093 156.409C12.3917 156.55 12.9234 156.909 13.3043 157.485C13.6852 158.061 13.8021 158.683 13.6548 159.35C13.5303 160.022 13.1809 160.548 12.6065 160.925C12.0321 161.303 11.4037 161.422 10.7213 161.28C10.0616 161.143 9.54136 160.787 9.16042 160.211Z" fill="#CEBDFF"/>
<path d="M15.5362 173.866L21.9295 174.29L13.9074 165.183L15.4565 163.821L23.4785 172.929L23.8737 166.507L25.7337 166.613L25.1335 176.368L15.4045 175.722L15.5362 173.866Z" fill="#CEBDFF"/>
<path d="M28.5953 182.306C28.0719 181.856 27.7781 181.289 27.7139 180.608C27.6728 179.924 27.8764 179.322 28.3249 178.801C28.7733 178.281 29.333 177.996 30.0041 177.947C30.6983 177.897 31.307 178.098 31.8304 178.548C32.3539 178.999 32.6361 179.566 32.6772 180.25C32.7414 180.931 32.5493 181.532 32.1009 182.053C31.6525 182.574 31.0812 182.86 30.387 182.91C29.716 182.958 29.1187 182.757 28.5953 182.306Z" fill="#CEBDFF"/>
</g>
<g opacity="0.4">
<path d="M181.463 212.526L180.672 202.824L172.084 200.45L174.602 198.387L180.452 200.025L179.944 194.011L182.463 191.948L183.143 200.8L192.548 203.446L190.124 205.432L183.368 203.556L183.887 210.54L181.463 212.526Z" fill="#CEBDFF"/>
<path d="M180.111 186.449L182.674 183.521L199.934 189.515L191.605 173.319L194.168 170.391L210.219 184.31L208.216 186.597L196.27 176.238L204.031 191.378L202.349 193.3L186.198 187.744L198.144 198.103L196.162 200.368L180.111 186.449Z" fill="#CEBDFF"/>
<path d="M217.834 172.672C217.053 173.975 216.069 174.968 214.88 175.653C213.674 176.327 212.38 176.655 210.998 176.637C209.626 176.601 208.287 176.197 206.98 175.423C205.673 174.649 204.678 173.671 203.993 172.489C203.318 171.289 203.001 170.007 203.039 168.641C203.061 167.265 203.462 165.926 204.242 164.623C205.022 163.32 206.016 162.332 207.222 161.658C208.411 160.973 209.691 160.649 211.062 160.684C212.434 160.72 213.773 161.125 215.08 161.899C216.387 162.672 217.383 163.65 218.067 164.833C218.752 166.015 219.084 167.294 219.062 168.669C219.024 170.035 218.614 171.369 217.834 172.672ZM208.525 172.843C209.867 173.637 211.194 173.905 212.505 173.647C213.827 173.37 214.863 172.607 215.612 171.356C216.351 170.123 216.522 168.871 216.126 167.601C215.74 166.314 214.877 165.273 213.535 164.478C212.193 163.684 210.861 163.424 209.539 163.701C208.228 163.959 207.202 164.705 206.464 165.939C205.715 167.19 205.533 168.459 205.919 169.746C206.315 171.016 207.184 172.048 208.525 172.843Z" fill="#CEBDFF"/>
<path d="M209.913 155.014L211.037 152.293L213.543 153.315C212.815 152.581 212.379 151.726 212.235 150.749C212.098 149.754 212.25 148.723 212.69 147.657C213.347 146.068 214.399 145.01 215.844 144.485C217.296 143.941 218.867 144.014 220.556 144.703L229.282 148.261L228.158 150.982L219.966 147.642C218.84 147.182 217.803 147.12 216.853 147.454C215.912 147.769 215.236 148.422 214.826 149.413C214.37 150.517 214.399 151.588 214.912 152.628C215.425 153.667 216.301 154.44 217.54 154.945L225.224 158.079L224.1 160.8L209.913 155.014Z" fill="#CEBDFF"/>
<path d="M233.135 135.808C232.759 137.298 232.073 138.523 231.077 139.484C230.086 140.426 228.923 141.054 227.589 141.369C226.254 141.683 224.888 141.667 223.491 141.32C222.094 140.973 220.896 140.373 219.898 139.521C218.881 138.664 218.174 137.613 217.777 136.369C217.361 135.12 217.338 133.76 217.71 132.289C218.081 130.819 218.726 129.635 219.643 128.738C220.54 127.835 221.599 127.244 222.82 126.964C224.022 126.679 225.262 126.695 226.541 127.013C226.935 127.111 227.304 127.223 227.648 127.35L224.787 138.673C226.234 138.907 227.497 138.71 228.576 138.082C229.655 137.454 230.358 136.493 230.685 135.199C230.957 134.121 230.954 133.182 230.675 132.384C230.395 131.585 229.86 130.973 229.068 130.547L229.789 127.695C231.255 128.35 232.294 129.411 232.907 130.875C233.52 132.34 233.596 133.984 233.135 135.808ZM224.839 129.653C223.673 129.468 222.653 129.652 221.781 130.206C220.909 130.761 220.32 131.646 220.012 132.861C219.72 134.018 219.805 135.049 220.266 135.956C220.712 136.838 221.528 137.54 222.714 138.064L224.839 129.653Z" fill="#CEBDFF"/>
<path d="M236.118 119.419L220.081 123.351L220.423 120.338L232.313 117.595L221.331 112.356L221.677 109.313L234.318 115.59L242.227 119.301L241.908 122.102L236.118 119.419Z" fill="#CEBDFF"/>
<path d="M215.765 98.8269L215.5 95.6865L233.943 94.0995L233.073 83.8027L235.864 83.5626L237 96.9997L215.765 98.8269Z" fill="#CEBDFF"/>
<path d="M234.31 74.5784C234.651 76.0959 234.51 77.4114 233.886 78.5248C233.262 79.6383 232.277 80.3465 230.93 80.6494C229.504 80.9702 228.258 80.7019 227.191 79.8446C226.105 78.9916 225.362 77.6783 224.964 75.9045L224.266 72.8005C224.191 72.4655 224.056 72.2369 223.862 72.1149C223.664 71.9732 223.426 71.9335 223.149 71.9959C222.218 72.2053 221.548 72.6976 221.14 73.4727C220.727 74.2281 220.647 75.1675 220.899 76.2909C221.125 77.296 221.595 78.0909 222.309 78.6756C223.019 79.2407 223.765 79.456 224.546 79.3217L225.144 81.9823C224.156 82.1218 223.211 81.9926 222.31 81.5949C221.39 81.2015 220.605 80.5809 219.957 79.7329C219.288 78.8894 218.824 77.8863 218.562 76.7235C218.279 75.4622 218.266 74.2952 218.524 73.2225C218.763 72.1544 219.248 71.2584 219.98 70.5347C220.692 69.8154 221.593 69.3333 222.682 69.0882L232.337 66.9161L232.982 69.7837L230.546 70.3317C231.438 70.5038 232.231 70.9775 232.925 71.753C233.596 72.5132 234.057 73.455 234.31 74.5784ZM230.233 77.8248C230.906 77.6733 231.403 77.2924 231.724 76.6819C232.025 76.0759 232.082 75.3591 231.896 74.5313C231.595 73.1912 230.954 72.238 229.973 71.6718C228.989 71.0858 227.803 70.9488 226.417 71.2607L226.06 71.3409L226.924 75.184C227.146 76.1694 227.56 76.9043 228.169 77.3886C228.753 77.8576 229.441 78.0031 230.233 77.8248Z" fill="#CEBDFF"/>
<path d="M228.032 53.5455C228.394 54.4887 228.521 55.4455 228.415 56.4159C228.289 57.3936 227.946 58.2275 227.384 58.9176L229.518 58.1031L230.57 60.8478L210.231 68.6126L209.179 65.8679L217.286 62.7729C216.425 62.6257 215.631 62.2262 214.903 61.5743C214.156 60.9297 213.598 60.1264 213.229 59.1643C212.687 57.7495 212.543 56.4097 212.798 55.1449C213.026 53.8685 213.598 52.7526 214.515 51.7972C215.405 50.8302 216.571 50.0717 218.012 49.5214C219.453 48.9712 220.838 48.756 222.167 48.8759C223.469 48.9842 224.641 49.434 225.684 50.2254C226.7 51.0051 227.483 52.1118 228.032 53.5455ZM222.436 61.0662C223.934 60.4942 224.987 59.6383 225.593 58.4985C226.193 57.3399 226.239 56.1003 225.733 54.7798C225.227 53.4593 224.367 52.5767 223.154 52.1319C221.932 51.6683 220.573 51.7225 219.075 52.2944C217.577 52.8664 216.528 53.7317 215.928 54.8904C215.322 56.0302 215.271 57.2603 215.777 58.5808C216.283 59.9012 217.147 60.7933 218.368 61.2569C219.582 61.7017 220.938 61.6381 222.436 61.0662Z" fill="#CEBDFF"/>
<path d="M220.491 37.3804C221.355 38.9574 221.645 40.4565 221.359 41.8777C221.074 43.299 220.243 44.4424 218.866 45.308L217.54 42.8895C218.267 42.401 218.704 41.7832 218.85 41.0363C218.986 40.2717 218.811 39.4464 218.326 38.5605C217.918 37.8163 217.409 37.311 216.8 37.0446C216.181 36.7605 215.623 36.7544 215.124 37.0263C214.625 37.2982 214.319 37.6488 214.207 38.078C214.086 38.4895 214.083 38.9281 214.2 39.3939C214.299 39.8694 214.485 40.5043 214.758 41.2988C215.123 42.343 215.372 43.2197 215.506 43.929C215.613 44.6302 215.516 45.3391 215.214 46.0557C214.903 46.7546 214.249 47.376 213.251 47.9199C212.093 48.5512 210.914 48.6182 209.716 48.1207C208.517 47.6233 207.534 46.6748 206.767 45.275C205.941 43.769 205.663 42.3327 205.932 40.9663C206.173 39.5919 206.902 38.5156 208.119 37.7374L209.46 40.1826C208.795 40.6596 208.441 41.2788 208.395 42.04C208.322 42.7933 208.465 43.4977 208.825 44.1532C209.213 44.862 209.685 45.3415 210.239 45.592C210.792 45.8424 211.328 45.8267 211.845 45.5451C212.486 45.1954 212.791 44.7183 212.761 44.1136C212.703 43.501 212.468 42.6508 212.057 41.5632C211.655 40.4933 211.391 39.59 211.265 38.8533C211.139 38.1166 211.248 37.3665 211.594 36.6031C211.911 35.8316 212.613 35.1496 213.7 34.5572C214.93 33.887 216.162 33.8135 217.398 34.3367C218.624 34.8421 219.655 35.8567 220.491 37.3804Z" fill="#CEBDFF"/>
<path d="M203.3 21.1391C203.831 21.8015 204.057 22.5524 203.976 23.3918C203.867 24.2281 203.479 24.9115 202.812 25.442C202.146 25.9725 201.399 26.1922 200.572 26.1012C199.716 26.007 199.023 25.6287 198.492 24.9663C197.96 24.3039 197.749 23.5546 197.858 22.7183C197.939 21.8788 198.313 21.1939 198.979 20.6634C199.646 20.1329 200.407 19.9147 201.262 20.0089C202.09 20.1 202.769 20.4767 203.3 21.1391Z" fill="#CEBDFF"/>
<path d="M193.973 5.12619L186.054 5.34921L196.917 15.591L195.157 17.4414L184.294 7.19962L184.501 15.126L182.199 15.2123L181.884 3.17274L193.935 2.83335L193.973 5.12619Z" fill="#CEBDFF"/>
<path d="M176.98 -3.71123C177.673 -3.21903 178.096 -2.55847 178.249 -1.72956C178.373 -0.895912 178.187 -0.133415 177.691 0.557903C177.195 1.24922 176.537 1.66362 175.716 1.8011C174.866 1.94333 174.095 1.76835 173.402 1.27615C172.708 0.783954 172.3 0.121019 172.175 -0.712631C172.022 -1.54154 172.194 -2.30164 172.69 -2.99296C173.186 -3.68428 173.859 -4.10107 174.708 -4.24329C175.529 -4.38078 176.286 -4.20343 176.98 -3.71123Z" fill="#CEBDFF"/>
<path d="M165.76 -16.8391L157.267 -11.9936L158.73 -3.23807L155.791 -4.63028L154.814 -10.6028L149.556 -7.58386L146.618 -8.97606L154.383 -13.3598L152.824 -22.9674L155.653 -21.6273L156.796 -14.7362L162.931 -18.1793L165.76 -16.8391Z" fill="#CEBDFF"/>
<path d="M142.607 -4.51348L138.863 -5.57765L137.035 -23.695L125.814 -9.28556L122.07 -10.3497L127.962 -30.7518L130.887 -29.9204L126.502 -14.7355L137.002 -28.1829L139.459 -27.4845L141.218 -10.5537L145.603 -25.7386L148.499 -24.9156L142.607 -4.51348Z" fill="#CEBDFF"/>
<path d="M114.162 -32.6618C115.676 -32.5131 116.995 -32.0485 118.12 -31.2679C119.242 -30.4673 120.086 -29.4401 120.652 -28.1863C121.198 -26.9345 121.395 -25.5545 121.242 -24.0464C121.089 -22.5383 120.62 -21.2238 119.833 -20.1028C119.026 -18.9839 117.994 -18.1511 116.735 -17.6045C115.475 -17.0378 114.087 -16.8288 112.573 -16.9776C111.058 -17.1263 109.74 -17.601 108.618 -18.4016C107.494 -19.1822 106.659 -20.1984 106.112 -21.4502C105.566 -22.702 105.37 -24.0819 105.522 -25.59C105.675 -27.0981 106.145 -28.4127 106.931 -29.5336C107.718 -30.6545 108.742 -31.4983 110.002 -32.065C111.261 -32.6116 112.647 -32.8105 114.162 -32.6618ZM118.244 -24.3408C118.401 -25.8892 118.085 -27.1996 117.296 -28.2721C116.487 -29.3467 115.356 -29.9553 113.902 -30.0981C112.468 -30.2388 111.257 -29.8602 110.269 -28.9622C109.261 -28.0661 108.678 -26.8439 108.521 -25.2956C108.364 -23.7473 108.69 -22.4358 109.499 -21.3613C110.288 -20.2888 111.399 -19.6821 112.832 -19.5413C114.286 -19.3986 115.517 -19.7752 116.526 -20.6713C117.514 -21.5693 118.087 -22.7925 118.244 -24.3408Z" fill="#CEBDFF"/>
<path d="M101.439 -17.9985L98.4892 -17.8537L98.3619 -20.5479C98.0012 -19.5795 97.4071 -18.8221 96.5795 -18.2758C95.7316 -17.7285 94.7299 -17.4265 93.5743 -17.3698C91.8512 -17.2852 90.4459 -17.7826 89.3586 -18.862C88.2511 -19.9404 87.6544 -21.3878 87.5686 -23.2041L87.1253 -32.5883L90.075 -32.7331L90.4911 -23.924C90.5483 -22.7131 90.929 -21.7508 91.6333 -21.0369C92.3173 -20.3221 93.1965 -19.991 94.271 -20.0437C95.4671 -20.1024 96.4298 -20.5845 97.1592 -21.4901C97.8885 -22.3957 98.2217 -23.5145 98.1588 -24.8465L97.7684 -33.1106L100.718 -33.2554L101.439 -17.9985Z" fill="#CEBDFF"/>
<path d="M74.1706 -30.7589C75.6849 -31.054 77.0893 -30.9572 78.3838 -30.4686C79.6583 -29.9761 80.7201 -29.1951 81.5691 -28.1258C82.4181 -27.0564 82.9794 -25.8178 83.2531 -24.4099C83.5268 -23.0021 83.4866 -21.6668 83.1323 -20.4041C82.7819 -19.1216 82.1243 -18.0364 81.1595 -17.1487C80.1985 -16.2411 78.9708 -15.6417 77.4764 -15.3505C75.982 -15.0593 74.6332 -15.136 73.43 -15.5807C72.2306 -16.0055 71.246 -16.7089 70.476 -17.6908C69.71 -18.6528 69.2016 -19.7783 68.951 -21.0672C68.8739 -21.4637 68.8206 -21.8444 68.7911 -22.2091L80.2981 -24.4515C79.901 -25.8559 79.1892 -26.9108 78.1628 -27.6163C77.1364 -28.3218 75.9656 -28.5464 74.6505 -28.2902C73.5546 -28.0766 72.7023 -27.6738 72.0936 -27.0819C71.4849 -26.4899 71.1538 -25.7462 71.1004 -24.8509L68.2012 -24.2859C68.1795 -25.8869 68.7057 -27.2757 69.7798 -28.4523C70.8539 -29.6289 72.3175 -30.3978 74.1706 -30.7589ZM72.0709 -20.6564C72.3941 -19.5257 72.9919 -18.6852 73.864 -18.1349C74.7362 -17.5846 75.79 -17.4298 77.0253 -17.6705C78.201 -17.8996 79.1037 -18.4151 79.7337 -19.217C80.3476 -19.9952 80.6427 -21.0303 80.619 -22.3222L72.0709 -20.6564Z" fill="#CEBDFF"/>
<path d="M58.0026 -26.4686L68.3443 -13.6817L65.4593 -12.7076L57.9487 -22.2608L57.8142 -10.1263L54.9004 -9.14243L55.279 -23.2144L55.3185 -31.9268L58.0015 -32.8327L58.0026 -26.4686Z" fill="#CEBDFF"/>
<path d="M47.8545 0.654987L45.1096 2.23192L35.8861 -13.7237L26.8859 -8.55314L25.4903 -10.9675L37.2353 -17.715L47.8545 0.654987Z" fill="#CEBDFF"/>
<path d="M17.9725 -5.73966C19.2091 -6.69362 20.4654 -7.12654 21.7414 -7.03843C23.0174 -6.95032 24.0772 -6.36357 24.9209 -5.27818C25.8143 -4.12893 26.0959 -2.89081 25.7658 -1.56379C25.4481 -0.220818 24.5665 1.00817 23.1211 2.12319L20.5916 4.07447C20.3185 4.28508 20.1674 4.5038 20.1382 4.7306C20.0929 4.9698 20.1571 5.20112 20.3308 5.42459C20.9139 6.17479 21.6442 6.56894 22.5217 6.60703C23.383 6.65751 24.2714 6.32965 25.1868 5.62347C26.0059 4.99163 26.5309 4.22926 26.7616 3.33632C26.9763 2.45578 26.8578 1.69185 26.406 1.04456L28.5742 -0.627956C29.118 0.203725 29.3989 1.11045 29.417 2.09224C29.4476 3.09 29.2139 4.06179 28.7159 5.00762C28.2304 5.96942 27.5138 6.8158 26.5663 7.54676C25.5384 8.33966 24.4821 8.84809 23.3973 9.07207C22.325 9.31201 21.3052 9.25606 20.3381 8.90421C19.3833 8.56832 18.5647 7.96144 17.8823 7.08354L11.8336 -0.697815L14.1705 -2.50042L15.6966 -0.537113C15.477 -1.41455 15.5734 -2.33155 15.986 -3.2881C16.3949 -4.2163 17.057 -5.03348 17.9725 -5.73966ZM22.6454 -3.44628C22.2236 -3.98898 21.6674 -4.27484 20.9768 -4.30388C20.2987 -4.31696 19.6224 -4.06334 18.9478 -3.543C17.8557 -2.70054 17.2588 -1.71671 17.1572 -0.591492C17.0396 0.546113 17.415 1.67358 18.2836 2.7909L18.5069 3.07821L21.6387 0.662338C22.4417 0.0428854 22.9353 -0.644216 23.1193 -1.39897C23.2997 -2.12537 23.1417 -2.80781 22.6454 -3.44628Z" fill="#CEBDFF"/>
<path d="M1.48586 8.87923C2.19146 8.15158 3.00811 7.62905 3.93581 7.31164C4.8781 7.00825 5.7816 6.96278 6.64632 7.17526L5.00544 5.59836L7.05875 3.48088L22.7017 18.5141L20.6484 20.6315L14.4131 14.6393C14.6423 15.4781 14.6139 16.3645 14.328 17.2987C14.0566 18.2469 13.5611 19.0921 12.8414 19.8343C11.783 20.9257 10.6248 21.6261 9.36684 21.9354C8.10935 22.2733 6.85277 22.2325 5.59708 21.8129C4.34187 21.422 3.16 20.6939 2.0515 19.6286C0.942999 18.5633 0.163106 17.4061 -0.288189 16.1571C-0.73901 14.9366 -0.824291 13.6879 -0.544033 12.4109C-0.263301 11.1625 0.413335 9.98526 1.48586 8.87923ZM10.6881 10.7221C9.53586 9.61479 8.31332 9.03032 7.0205 8.96873C5.71358 8.9217 4.56621 9.40755 3.57836 10.4263C2.59051 11.445 2.15027 12.5963 2.25767 13.8804C2.35095 15.179 2.97373 16.382 4.12598 17.4893C5.27824 18.5966 6.50784 19.1738 7.81477 19.2208C9.10758 19.2824 10.2479 18.8039 11.2358 17.7852C12.2236 16.7664 12.6709 15.6078 12.5776 14.3092C12.4702 13.0251 11.8404 11.8295 10.6881 10.7221Z" fill="#CEBDFF"/>
<path d="M-10.0391 22.5646C-8.9692 21.1133 -7.72759 20.2136 -6.31424 19.8656C-4.9009 19.5176 -3.5101 19.78 -2.14185 20.653L-3.78274 22.8789C-4.53395 22.431 -5.28008 22.3004 -6.02114 22.4869C-6.77422 22.6898 -7.45129 23.1989 -8.05235 24.0142C-8.55724 24.6991 -8.80244 25.3729 -8.78795 26.0355C-8.78549 26.7144 -8.55534 27.2209 -8.09749 27.5549C-7.63964 27.889 -7.19189 28.0151 -6.75428 27.9331C-6.32868 27.8675 -5.9286 27.683 -5.554 27.3795C-5.16305 27.0879 -4.6639 26.6497 -4.05657 26.0646C-3.26026 25.2914 -2.56781 24.6932 -1.97923 24.27C-1.3863 23.8751 -0.700303 23.6609 0.0787582 23.6275C0.845798 23.6104 1.68716 23.9359 2.60286 24.604C3.66573 25.3796 4.22366 26.4136 4.27668 27.7062C4.32969 28.9988 3.88135 30.2892 2.93167 31.5774C1.90988 32.9635 0.720686 33.8262 -0.635914 34.1655C-1.98818 34.533 -3.27486 34.334 -4.49594 33.5684L-2.83702 31.3181C-2.12284 31.7138 -1.4099 31.77 -0.698189 31.4868C0.0178546 31.2319 0.598269 30.8027 1.04305 30.1994C1.5239 29.5471 1.7614 28.9179 1.75558 28.3118C1.74976 27.7057 1.50975 27.2296 1.03555 26.8836C0.446889 26.4541 -0.116011 26.3819 -0.653156 26.6671C-1.18597 26.9805 -1.86039 27.5542 -2.67641 28.3882C-3.48041 29.206 -4.1909 29.8286 -4.80786 30.2562C-5.42482 30.6837 -6.15338 30.9045 -6.99352 30.9184C-7.82932 30.9606 -8.74594 30.6178 -9.7434 29.89C-10.8717 29.0667 -11.4585 27.9865 -11.5038 26.6494C-11.5611 25.3286 -11.0729 23.967 -10.0391 22.5646Z" fill="#CEBDFF"/>
<path d="M-17.5635 44.9832C-17.185 44.222 -16.597 43.699 -15.7993 43.4142C-14.9924 43.1565 -14.2071 43.2152 -13.4433 43.5903C-12.6796 43.9654 -12.1647 44.5452 -11.8986 45.3298C-11.6234 46.1415 -11.6751 46.928 -12.0536 47.6892C-12.432 48.4504 -13.0247 48.9599 -13.8316 49.2176C-14.6293 49.5024 -15.41 49.4572 -16.1738 49.0821C-16.9375 48.707 -17.457 48.1137 -17.7322 47.302C-17.9982 46.5174 -17.942 45.7445 -17.5635 44.9832Z" fill="#CEBDFF"/>
<path d="M-28.197 60.2135L-24.6538 67.2594L-19.9184 53.1019L-17.4924 53.9013L-22.2278 68.0588L-15.1042 64.496L-14.0548 66.5351L-24.8749 71.9466L-30.2667 61.2247L-28.197 60.2135Z" fill="#CEBDFF"/>
<path d="M-29.0688 79.3014C-28.9134 78.4666 -28.4909 77.8039 -27.8013 77.3131C-27.0953 76.8458 -26.3233 76.6886 -25.4852 76.8414C-24.6471 76.9941 -23.9923 77.4115 -23.5209 78.0934C-23.0332 78.7987 -22.867 79.5688 -23.0224 80.4036C-23.1777 81.2384 -23.6084 81.8894 -24.3143 82.3566C-25.004 82.8474 -25.7679 83.0164 -26.606 82.8636C-27.4441 82.7109 -28.107 82.2818 -28.5947 81.5764C-29.0661 80.8945 -29.2241 80.1362 -29.0688 79.3014Z" fill="#CEBDFF"/>
<path d="M-36.2792 95.0099L-28.2888 100.604L-20.9404 95.5564L-20.9674 98.7994L-25.9886 102.225L-21.0247 105.679L-21.0516 108.922L-28.3152 103.787L-36.3979 109.285L-36.372 106.163L-30.5852 102.197L-36.3052 98.1316L-36.2792 95.0099Z" fill="#CEBDFF"/>
<path d="M-15.3003 110.638L-14.6889 114.468L-30.4001 123.832L-12.5584 127.813L-11.9469 131.643L-32.9927 135.02L-33.4704 132.027L-17.8063 129.514L-34.4688 125.774L-34.8701 123.26L-20.2091 114.464L-35.8732 116.977L-36.3461 114.014L-15.3003 110.638Z" fill="#CEBDFF"/>
<path d="M-28.9094 148.277C-29.4129 146.848 -29.5467 145.46 -29.3108 144.114C-29.0557 142.762 -28.4773 141.563 -27.5755 140.518C-26.6671 139.492 -25.4946 138.727 -24.0582 138.223C-22.6218 137.718 -21.2278 137.582 -19.8762 137.814C-18.518 138.065 -17.3248 138.641 -16.2966 139.543C-15.2494 140.439 -14.474 141.601 -13.9705 143.03C-13.467 144.459 -13.3428 145.85 -13.5978 147.203C-13.8338 148.549 -14.406 149.735 -15.3144 150.76C-16.2229 151.786 -17.3953 152.551 -18.8318 153.055C-20.2682 153.56 -21.6622 153.696 -23.0137 153.465C-24.3653 153.233 -25.5647 152.669 -26.612 151.774C-27.6401 150.872 -28.4059 149.706 -28.9094 148.277ZM-23.0612 141.052C-24.536 141.57 -25.5949 142.413 -26.238 143.581C-26.8743 144.768 -26.9509 146.047 -26.4675 147.419C-25.9908 148.772 -25.1356 149.703 -23.9017 150.211C-22.6611 150.739 -21.3035 150.744 -19.8287 150.226C-18.354 149.708 -17.2984 148.856 -16.6621 147.669C-16.019 146.501 -15.9358 145.24 -16.4124 143.888C-16.8958 142.516 -17.7578 141.566 -18.9983 141.038C-20.2322 140.53 -21.5865 140.534 -23.0612 141.052Z" fill="#CEBDFF"/>
<path d="M-10.203 153.505L-8.82712 156.103L-11.2244 157.365C-10.1913 157.278 -9.25171 157.491 -8.40561 158.005C-7.55006 158.536 -6.85278 159.311 -6.31377 160.329C-5.51 161.846 -5.36978 163.325 -5.89313 164.766C-6.40703 166.224 -7.47207 167.378 -9.08824 168.229L-17.4384 172.626L-18.8143 170.027L-10.9759 165.9C-9.89844 165.333 -9.18354 164.58 -8.83117 163.641C-8.46935 162.719 -8.53902 161.786 -9.0402 160.839C-9.59811 159.786 -10.4428 159.123 -11.5743 158.851C-12.7058 158.579 -13.8642 158.755 -15.0494 159.379L-22.4029 163.251L-23.7788 160.653L-10.203 153.505Z" fill="#CEBDFF"/>
<path d="M-10.3097 183.528C-11.2169 182.288 -11.7213 180.981 -11.8228 179.605C-11.9123 178.246 -11.6497 176.956 -11.035 175.735C-10.4203 174.514 -9.53021 173.48 -8.36487 172.634C-7.19954 171.788 -5.9678 171.255 -4.66966 171.037C-3.3551 170.807 -2.09052 170.937 -0.875931 171.429C0.355076 171.909 1.41823 172.761 2.31352 173.985C3.20881 175.208 3.70794 176.457 3.81091 177.731C3.9303 178.994 3.70575 180.181 3.13727 181.294C2.5852 182.394 1.77573 183.332 0.70887 184.107C0.380607 184.345 0.0568115 184.556 -0.262501 184.738L-7.15621 175.316C-8.26634 176.273 -8.92586 177.364 -9.13474 178.59C-9.34362 179.816 -9.05413 180.967 -8.26628 182.044C-7.60973 182.941 -6.8838 183.538 -6.0885 183.835C-5.29319 184.132 -4.47701 184.114 -3.63993 183.78L-1.90306 186.154C-3.35041 186.856 -4.83582 186.973 -6.35929 186.505C-7.88275 186.038 -9.19956 185.045 -10.3097 183.528ZM-0.233444 181.119C0.658834 180.346 1.17137 179.449 1.30416 178.428C1.43694 177.407 1.13327 176.391 0.393166 175.379C-0.311128 174.417 -1.1609 173.822 -2.15615 173.596C-3.12305 173.374 -4.18915 173.549 -5.35449 174.12L-0.233444 181.119Z" fill="#CEBDFF"/>
<path d="M0.412964 196.28L7.68363 181.508L9.78669 183.695L4.26375 194.537L15.3598 189.49L17.4839 191.698L4.52236 197.35L-3.42036 201.025L-5.3762 198.992L0.412964 196.28Z" fill="#CEBDFF"/>
<path d="M29.369 193.879L31.9614 195.682L21.3365 210.795L29.8366 216.709L28.2289 218.996L17.1363 211.279L29.369 193.879Z" fill="#CEBDFF"/>
<path d="M36.1559 223.548C34.7664 222.839 33.8426 221.891 33.3846 220.703C32.9265 219.515 33.0133 218.309 33.6448 217.086C34.3135 215.791 35.3211 215.01 36.6676 214.742C38.0233 214.457 39.5132 214.728 41.1373 215.557L43.9794 217.007C44.2862 217.163 44.5489 217.206 44.7676 217.136C45.0043 217.075 45.1877 216.918 45.3177 216.667C45.7542 215.821 45.8047 214.995 45.4693 214.187C45.1519 213.389 44.4789 212.728 43.4503 212.203C42.53 211.734 41.615 211.585 40.7053 211.757C39.8137 211.939 39.1687 212.371 38.7704 213.054L36.3343 211.811C36.8616 210.967 37.568 210.327 38.4535 209.892C39.3483 209.44 40.331 209.237 41.4015 209.283C42.4813 209.311 43.5535 209.597 44.6182 210.14C45.7731 210.729 46.6812 211.465 47.3425 212.348C48.0131 213.213 48.3923 214.156 48.4802 215.178C48.5773 216.182 48.3705 217.179 47.8597 218.168L43.332 226.936L40.7064 225.597L41.8488 223.385C41.1432 223.956 40.2683 224.26 39.2241 224.295C38.2072 224.322 37.1844 224.073 36.1559 223.548ZM36.2712 218.358C35.9554 218.969 35.9299 219.592 36.1948 220.228C36.4689 220.845 36.985 221.346 37.7429 221.733C38.9699 222.359 40.1167 222.478 41.1832 222.091C42.2678 221.712 43.1351 220.893 43.7852 219.634L43.9524 219.311L40.4336 217.516C39.5313 217.055 38.6981 216.903 37.9338 217.058C37.1969 217.205 36.6427 217.638 36.2712 218.358Z" fill="#CEBDFF"/>
<path d="M56.4094 232.189C55.4498 231.862 54.63 231.348 53.9499 230.647C53.2764 229.926 52.854 229.131 52.6826 228.261L51.9401 230.412L49.1477 229.462L56.2257 208.954L59.0181 209.903L56.1968 218.078C56.8632 217.514 57.6817 217.162 58.6521 217.022C59.6291 216.863 60.6071 216.95 61.5859 217.283C63.0253 217.772 64.1509 218.519 64.9629 219.521C65.8007 220.511 66.2936 221.662 66.4416 222.973C66.6154 224.271 66.4515 225.647 65.95 227.1C65.4484 228.553 64.7246 229.75 63.7787 230.689C62.8585 231.615 61.7585 232.224 60.4785 232.515C59.2244 232.793 57.868 232.685 56.4094 232.189ZM54.2044 223.106C53.6831 224.616 53.667 225.968 54.1563 227.16C54.6648 228.358 55.5908 229.186 56.9342 229.643C58.2776 230.1 59.5108 230.006 60.6336 229.362C61.7757 228.725 62.6074 227.651 63.1287 226.141C63.6501 224.63 63.6565 223.275 63.148 222.077C62.6588 220.885 61.7424 220.06 60.399 219.604C59.0555 219.147 57.8128 219.237 56.6707 219.874C55.5479 220.518 54.7258 221.595 54.2044 223.106Z" fill="#CEBDFF"/>
<path d="M73.7209 236.752C71.9493 236.406 70.6071 235.669 69.6943 234.543C68.7815 233.417 68.4337 232.051 68.6507 230.445L71.3678 230.977C71.2773 231.845 71.4731 232.573 71.9554 233.162C72.4576 233.755 73.2064 234.149 74.2016 234.343C75.0377 234.507 75.754 234.441 76.3507 234.146C76.9673 233.854 77.331 233.431 77.4418 232.876C77.5526 232.321 77.4784 231.863 77.2193 231.504C76.9801 231.148 76.6434 230.866 76.2093 230.657C75.7792 230.429 75.1699 230.165 74.3815 229.867C73.3422 229.478 72.506 229.108 71.8727 228.758C71.2633 228.391 70.7791 227.864 70.4201 227.176C70.081 226.491 70.0222 225.594 70.2438 224.484C70.501 223.195 71.2064 222.252 72.3599 221.653C73.5135 221.055 74.8765 220.91 76.4491 221.217C78.1411 221.548 79.4275 222.253 80.3084 223.332C81.2131 224.395 81.5748 225.64 81.3933 227.067L78.6464 226.53C78.7051 225.717 78.4556 225.05 77.8978 224.529C77.3638 223.992 76.7286 223.651 75.9921 223.507C75.1958 223.351 74.5232 223.405 73.9743 223.669C73.4253 223.932 73.0935 224.351 72.9787 224.926C72.8363 225.64 73.008 226.178 73.494 226.541C74.0039 226.888 74.8103 227.252 75.9133 227.633C76.9963 228.009 77.8625 228.385 78.5117 228.759C79.1609 229.133 79.669 229.696 80.0361 230.448C80.427 231.184 80.5017 232.156 80.2604 233.366C79.9873 234.734 79.2521 235.723 78.0548 236.333C76.8774 236.947 75.4327 237.087 73.7209 236.752Z" fill="#CEBDFF"/>
<path d="M97.2899 233.989C96.4377 233.972 95.7139 233.664 95.1183 233.066C94.5436 232.448 94.2657 231.715 94.2848 230.867C94.3039 230.018 94.6142 229.307 95.2158 228.733C95.8381 228.139 96.5753 227.851 97.4275 227.868C98.2797 227.885 98.9932 228.202 99.568 228.82C100.163 229.418 100.452 230.141 100.433 230.99C100.414 231.838 100.093 232.56 99.4705 233.153C98.869 233.728 98.1421 234.006 97.2899 233.989Z" fill="#CEBDFF"/>
<path d="M115.631 237.091L120.546 230.895L105.669 232.655L105.373 230.127L120.25 228.367L114.004 223.461L115.417 221.646L124.904 229.098L117.424 238.526L115.631 237.091Z" fill="#CEBDFF"/>
<path d="M133.364 229.747C132.539 229.963 131.757 229.864 131.02 229.451C130.297 229.014 129.829 228.384 129.614 227.563C129.399 226.743 129.503 225.974 129.924 225.259C130.36 224.519 130.991 224.041 131.816 223.825C132.641 223.61 133.415 223.721 134.138 224.159C134.875 224.572 135.351 225.188 135.565 226.009C135.78 226.83 135.669 227.611 135.233 228.351C134.812 229.066 134.188 229.532 133.364 229.747Z" fill="#CEBDFF"/>
</g>
</g>
<defs>
<clipPath id="clip0_1859_14001">
<rect width="200" height="200" fill="white"/>
</clipPath>
</defs>
</svg>
