<?xml version="1.0" encoding="UTF-8"?>
<!-- Generator: visioncortex VTracer 0.6.3 -->
<svg version="1.1" xmlns="http://www.w3.org/2000/svg" width="200" height="200">
<path d="M0,0 L200,0 L200,200 L0,200 Z " fill="#890000" transform="translate(0,0)"/>
<path d="M0,0 L17,0 L17,1 L21,1 L21,2 L23,2 L23,3 L24,3 L24,4 L26,4 L26,5 L28,5 L28,6 L29,6 L29,7 L30,7 L30,8 L32,8 L32,9 L33,9 L33,10 L34,10 L34,12 L35,12 L35,13 L36,13 L36,14 L39,14 L39,13 L41,13 L41,12 L49,12 L49,13 L50,13 L50,14 L53,14 L53,15 L54,15 L54,16 L55,16 L55,26 L54,26 L54,27 L53,27 L53,28 L52,28 L52,29 L51,29 L51,30 L50,30 L50,31 L49,31 L49,32 L34,32 L34,31 L31,31 L31,32 L32,32 L32,33 L33,33 L33,34 L34,34 L34,35 L35,35 L35,36 L36,36 L36,37 L37,37 L37,38 L38,38 L38,40 L39,40 L39,41 L40,41 L40,43 L41,43 L41,45 L42,45 L42,47 L43,47 L43,48 L44,48 L44,60 L45,60 L45,61 L46,61 L46,63 L47,63 L47,64 L48,64 L48,65 L49,65 L49,67 L50,67 L50,69 L51,69 L51,76 L52,76 L52,77 L53,77 L53,85 L54,85 L54,90 L55,90 L55,89 L56,89 L56,88 L57,88 L57,87 L59,87 L59,86 L65,86 L65,87 L66,87 L66,88 L68,88 L68,89 L69,89 L69,90 L70,90 L70,91 L71,91 L71,92 L72,92 L72,94 L73,94 L73,97 L74,97 L74,98 L75,98 L75,99 L76,99 L76,101 L77,101 L77,103 L78,103 L78,107 L79,107 L79,113 L78,113 L78,116 L77,116 L77,118 L76,118 L76,119 L75,119 L75,120 L74,120 L74,121 L73,121 L73,122 L72,122 L72,123 L69,123 L69,130 L68,130 L68,131 L66,131 L66,133 L67,133 L67,138 L66,138 L66,145 L60,145 L60,146 L56,146 L56,148 L66,148 L66,152 L65,152 L65,157 L64,157 L64,159 L63,159 L63,160 L54,160 L54,161 L42,161 L42,151 L41,151 L41,152 L38,152 L38,153 L31,153 L31,159 L30,159 L30,160 L28,160 L28,164 L27,164 L27,165 L18,165 L18,157 L17,157 L17,159 L16,159 L16,160 L15,160 L15,161 L11,161 L11,162 L10,162 L10,163 L9,163 L9,164 L7,164 L7,165 L5,165 L5,166 L-1,166 L-1,165 L-3,165 L-3,164 L-5,164 L-5,163 L-6,163 L-6,162 L-7,162 L-7,165 L-6,165 L-6,168 L-7,168 L-7,169 L-10,169 L-10,170 L-20,170 L-20,169 L-24,169 L-24,168 L-26,168 L-26,167 L-28,167 L-28,166 L-29,166 L-29,165 L-31,165 L-31,164 L-32,164 L-32,163 L-33,163 L-33,162 L-34,162 L-34,161 L-35,161 L-35,159 L-36,159 L-36,158 L-37,158 L-37,157 L-38,157 L-38,158 L-39,158 L-39,159 L-40,159 L-40,160 L-42,160 L-42,161 L-44,161 L-44,162 L-45,162 L-45,163 L-50,163 L-50,162 L-51,162 L-51,160 L-58,160 L-58,159 L-59,159 L-59,158 L-60,158 L-60,155 L-59,155 L-59,151 L-55,151 L-55,152 L-52,152 L-52,149 L-55,149 L-55,148 L-56,148 L-56,147 L-58,147 L-58,146 L-59,146 L-59,144 L-60,144 L-60,143 L-61,143 L-61,141 L-62,141 L-62,137 L-61,137 L-61,135 L-60,135 L-60,134 L-59,134 L-59,122 L-58,122 L-58,121 L-57,121 L-57,120 L-55,120 L-55,119 L-53,119 L-53,118 L-50,118 L-50,115 L-49,115 L-49,114 L-48,114 L-48,113 L-47,113 L-47,112 L-46,112 L-46,111 L-44,111 L-44,110 L-41,110 L-41,108 L-39,108 L-39,107 L-38,107 L-38,106 L-37,106 L-37,105 L-36,105 L-36,104 L-35,104 L-35,102 L-36,102 L-36,101 L-38,101 L-38,100 L-39,100 L-39,99 L-41,99 L-41,98 L-43,98 L-43,97 L-44,97 L-44,96 L-45,96 L-45,95 L-46,95 L-46,94 L-47,94 L-47,91 L-49,91 L-49,84 L-48,84 L-48,80 L-49,80 L-49,69 L-48,69 L-48,68 L-47,68 L-47,67 L-46,67 L-46,66 L-45,66 L-45,65 L-43,65 L-43,64 L-42,64 L-42,62 L-41,62 L-41,61 L-40,61 L-40,60 L-39,60 L-39,59 L-38,59 L-38,58 L-34,58 L-34,57 L-20,57 L-20,56 L-19,56 L-19,54 L-18,54 L-18,53 L-17,53 L-17,52 L-16,52 L-16,51 L-15,51 L-15,49 L-14,49 L-14,47 L-13,47 L-13,46 L-12,46 L-12,44 L-11,44 L-11,41 L-12,41 L-12,40 L-13,40 L-13,38 L-14,38 L-14,36 L-15,36 L-15,35 L-16,35 L-16,26 L-15,26 L-15,21 L-16,21 L-16,16 L-15,16 L-15,14 L-14,14 L-14,13 L-13,13 L-13,11 L-12,11 L-12,10 L-11,10 L-11,9 L-10,9 L-10,8 L-9,8 L-9,7 L-8,7 L-8,6 L-7,6 L-7,5 L-6,5 L-6,4 L-4,4 L-4,3 L-3,3 L-3,2 L-1,2 L-1,1 L0,1 Z " fill="#415A21" transform="translate(90,6)"/>
<path d="M0,0 L17,0 L17,1 L21,1 L21,2 L23,2 L23,3 L24,3 L24,4 L26,4 L26,5 L28,5 L28,6 L29,6 L29,7 L30,7 L30,8 L32,8 L32,9 L33,9 L33,10 L34,10 L34,12 L35,12 L35,13 L36,13 L36,14 L39,14 L39,13 L41,13 L41,12 L49,12 L49,13 L50,13 L50,14 L53,14 L53,15 L54,15 L54,16 L55,16 L55,26 L54,26 L54,27 L53,27 L53,28 L52,28 L52,29 L51,29 L51,30 L50,30 L50,31 L49,31 L49,32 L34,32 L34,31 L31,31 L31,32 L32,32 L32,33 L33,33 L33,34 L34,34 L34,35 L35,35 L35,36 L36,36 L36,37 L37,37 L37,38 L38,38 L38,40 L39,40 L39,41 L40,41 L40,43 L41,43 L41,45 L42,45 L42,47 L43,47 L43,48 L44,48 L44,60 L45,60 L45,61 L46,61 L46,63 L47,63 L47,64 L48,64 L48,65 L49,65 L49,67 L50,67 L50,69 L51,69 L51,76 L52,76 L52,77 L53,77 L53,85 L54,85 L54,90 L55,90 L55,89 L56,89 L56,88 L57,88 L57,87 L59,87 L59,86 L65,86 L65,87 L66,87 L66,88 L68,88 L68,89 L69,89 L69,90 L70,90 L70,91 L71,91 L71,92 L72,92 L72,94 L73,94 L73,97 L74,97 L74,98 L75,98 L75,99 L76,99 L76,101 L77,101 L77,103 L78,103 L78,107 L79,107 L79,113 L78,113 L78,116 L77,116 L77,118 L76,118 L76,119 L75,119 L75,120 L74,120 L74,121 L73,121 L73,122 L71,122 L71,120 L72,120 L72,119 L73,119 L73,118 L74,118 L74,117 L75,117 L75,115 L76,115 L76,113 L77,113 L77,106 L76,106 L76,104 L75,104 L75,102 L74,102 L74,100 L73,100 L73,99 L72,99 L72,98 L71,98 L71,95 L70,95 L70,93 L69,93 L69,92 L68,92 L68,91 L67,91 L67,90 L66,90 L66,89 L64,89 L64,88 L60,88 L60,89 L58,89 L58,90 L57,90 L57,91 L56,91 L56,92 L55,92 L55,93 L52,93 L52,86 L51,86 L51,85 L50,85 L50,77 L49,77 L49,69 L48,69 L48,68 L47,68 L47,67 L46,67 L46,65 L45,65 L45,64 L44,64 L44,62 L43,62 L43,61 L42,61 L42,49 L41,49 L41,48 L40,48 L40,45 L39,45 L39,43 L38,43 L38,42 L37,42 L37,40 L36,40 L36,39 L35,39 L35,38 L34,38 L34,37 L33,37 L33,36 L32,36 L32,35 L31,35 L31,34 L28,34 L28,32 L29,32 L29,28 L31,28 L31,29 L42,29 L42,30 L48,30 L48,29 L49,29 L49,28 L50,28 L50,27 L51,27 L51,26 L52,26 L52,25 L53,25 L53,17 L52,17 L52,16 L49,16 L49,15 L40,15 L40,16 L39,16 L39,17 L36,17 L36,16 L35,16 L35,15 L34,15 L34,14 L33,14 L33,13 L32,13 L32,11 L31,11 L31,10 L29,10 L29,9 L28,9 L28,8 L27,8 L27,7 L25,7 L25,6 L23,6 L23,5 L22,5 L22,4 L19,4 L19,3 L15,3 L15,2 L1,2 L1,3 L0,3 L0,4 L-2,4 L-2,5 L-3,5 L-3,6 L-5,6 L-5,7 L-6,7 L-6,8 L-7,8 L-7,9 L-8,9 L-8,10 L-9,10 L-9,11 L-10,11 L-10,12 L-11,12 L-11,14 L-12,14 L-12,15 L-13,15 L-13,17 L-14,17 L-14,20 L-13,20 L-13,26 L-14,26 L-14,34 L-13,34 L-13,35 L-12,35 L-12,37 L-11,37 L-11,39 L-10,39 L-10,40 L-8,40 L-8,43 L-9,43 L-9,45 L-10,45 L-10,47 L-11,47 L-11,48 L-12,48 L-12,50 L-13,50 L-13,52 L-14,52 L-14,53 L-15,53 L-15,54 L-16,54 L-16,55 L-17,55 L-17,56 L-18,56 L-18,58 L-19,58 L-19,59 L-25,59 L-25,60 L-28,60 L-28,59 L-34,59 L-34,60 L-37,60 L-37,61 L-38,61 L-38,62 L-39,62 L-39,63 L-40,63 L-40,65 L-41,65 L-41,66 L-42,66 L-42,67 L-44,67 L-44,68 L-45,68 L-45,69 L-46,69 L-46,70 L-47,70 L-47,80 L-46,80 L-46,81 L-45,81 L-45,83 L-46,83 L-46,90 L-45,90 L-45,93 L-44,93 L-44,94 L-43,94 L-43,95 L-42,95 L-42,96 L-40,96 L-40,97 L-38,97 L-38,98 L-37,98 L-37,99 L-35,99 L-35,100 L-33,100 L-33,101 L-32,101 L-32,103 L-33,103 L-33,105 L-34,105 L-34,107 L-35,107 L-35,108 L-37,108 L-37,109 L-38,109 L-38,110 L-39,110 L-39,111 L-40,111 L-40,112 L-43,112 L-43,113 L-45,113 L-45,114 L-46,114 L-46,115 L-47,115 L-47,116 L-48,116 L-48,119 L-49,119 L-49,120 L-50,120 L-50,121 L-54,121 L-54,122 L-56,122 L-56,123 L-57,123 L-57,132 L-56,132 L-56,131 L-54,131 L-54,125 L-53,125 L-53,124 L-51,124 L-51,123 L-48,123 L-48,122 L-46,122 L-46,121 L-45,121 L-45,118 L-44,118 L-44,117 L-43,117 L-43,116 L-36,116 L-36,117 L-35,117 L-35,118 L-34,118 L-34,119 L-33,119 L-33,121 L-32,121 L-32,124 L-29,124 L-29,123 L-24,123 L-24,122 L-23,122 L-23,121 L-22,121 L-22,123 L-19,123 L-19,122 L-18,122 L-18,121 L-17,121 L-17,119 L-10,119 L-10,120 L-9,120 L-9,121 L-8,121 L-8,122 L-6,122 L-6,124 L-5,124 L-5,125 L-4,125 L-4,124 L-3,124 L-3,123 L-2,123 L-2,122 L-1,122 L-1,121 L1,121 L1,120 L2,120 L2,119 L5,119 L5,118 L11,118 L11,119 L13,119 L13,120 L14,120 L14,121 L15,121 L15,122 L16,122 L16,123 L17,123 L17,119 L18,119 L18,117 L20,117 L20,116 L21,116 L21,115 L22,115 L22,114 L23,114 L23,113 L24,113 L24,112 L25,112 L25,111 L26,111 L26,109 L27,109 L27,107 L28,107 L28,106 L29,106 L29,104 L30,104 L30,100 L31,100 L31,97 L32,97 L32,89 L31,89 L31,85 L32,85 L32,84 L35,84 L35,86 L36,86 L36,89 L37,89 L37,99 L36,99 L36,103 L35,103 L35,105 L34,105 L34,107 L33,107 L33,109 L32,109 L32,111 L31,111 L31,112 L30,112 L30,113 L29,113 L29,114 L28,114 L28,115 L27,115 L27,116 L26,116 L26,117 L25,117 L25,118 L34,118 L34,119 L38,119 L38,120 L40,120 L40,121 L41,121 L41,122 L42,122 L42,123 L43,123 L43,124 L44,124 L44,125 L45,125 L45,119 L46,119 L46,118 L54,118 L54,117 L55,117 L55,116 L56,116 L56,115 L57,115 L57,113 L58,113 L58,112 L61,112 L61,115 L62,115 L62,116 L68,116 L68,129 L67,129 L67,130 L64,130 L64,143 L63,143 L63,144 L54,144 L54,149 L59,149 L59,148 L66,148 L66,152 L65,152 L65,157 L64,157 L64,159 L63,159 L63,160 L54,160 L54,161 L42,161 L42,151 L41,151 L41,152 L38,152 L38,153 L31,153 L31,159 L30,159 L30,160 L28,160 L28,164 L27,164 L27,165 L18,165 L18,157 L17,157 L17,159 L16,159 L16,160 L15,160 L15,161 L11,161 L11,162 L10,162 L10,163 L9,163 L9,164 L7,164 L7,165 L5,165 L5,166 L-1,166 L-1,165 L-3,165 L-3,164 L-5,164 L-5,163 L-6,163 L-6,162 L-7,162 L-7,165 L-6,165 L-6,168 L-7,168 L-7,169 L-10,169 L-10,170 L-20,170 L-20,169 L-24,169 L-24,168 L-26,168 L-26,167 L-28,167 L-28,166 L-29,166 L-29,165 L-31,165 L-31,164 L-32,164 L-32,163 L-33,163 L-33,162 L-34,162 L-34,161 L-35,161 L-35,159 L-36,159 L-36,158 L-37,158 L-37,157 L-38,157 L-38,158 L-39,158 L-39,159 L-40,159 L-40,160 L-42,160 L-42,161 L-44,161 L-44,162 L-45,162 L-45,163 L-50,163 L-50,162 L-51,162 L-51,160 L-58,160 L-58,159 L-59,159 L-59,158 L-60,158 L-60,155 L-59,155 L-59,151 L-55,151 L-55,152 L-52,152 L-52,149 L-55,149 L-55,148 L-56,148 L-56,147 L-58,147 L-58,146 L-59,146 L-59,144 L-60,144 L-60,143 L-61,143 L-61,141 L-62,141 L-62,137 L-61,137 L-61,135 L-60,135 L-60,134 L-59,134 L-59,122 L-58,122 L-58,121 L-57,121 L-57,120 L-55,120 L-55,119 L-53,119 L-53,118 L-50,118 L-50,115 L-49,115 L-49,114 L-48,114 L-48,113 L-47,113 L-47,112 L-46,112 L-46,111 L-44,111 L-44,110 L-41,110 L-41,108 L-39,108 L-39,107 L-38,107 L-38,106 L-37,106 L-37,105 L-36,105 L-36,104 L-35,104 L-35,102 L-36,102 L-36,101 L-38,101 L-38,100 L-39,100 L-39,99 L-41,99 L-41,98 L-43,98 L-43,97 L-44,97 L-44,96 L-45,96 L-45,95 L-46,95 L-46,94 L-47,94 L-47,91 L-49,91 L-49,84 L-48,84 L-48,80 L-49,80 L-49,69 L-48,69 L-48,68 L-47,68 L-47,67 L-46,67 L-46,66 L-45,66 L-45,65 L-43,65 L-43,64 L-42,64 L-42,62 L-41,62 L-41,61 L-40,61 L-40,60 L-39,60 L-39,59 L-38,59 L-38,58 L-34,58 L-34,57 L-20,57 L-20,56 L-19,56 L-19,54 L-18,54 L-18,53 L-17,53 L-17,52 L-16,52 L-16,51 L-15,51 L-15,49 L-14,49 L-14,47 L-13,47 L-13,46 L-12,46 L-12,44 L-11,44 L-11,41 L-12,41 L-12,40 L-13,40 L-13,38 L-14,38 L-14,36 L-15,36 L-15,35 L-16,35 L-16,26 L-15,26 L-15,21 L-16,21 L-16,16 L-15,16 L-15,14 L-14,14 L-14,13 L-13,13 L-13,11 L-12,11 L-12,10 L-11,10 L-11,9 L-10,9 L-10,8 L-9,8 L-9,7 L-8,7 L-8,6 L-7,6 L-7,5 L-6,5 L-6,4 L-4,4 L-4,3 L-3,3 L-3,2 L-1,2 L-1,1 L0,1 Z " fill="#E2EAD6" transform="translate(90,6)"/>
<path d="M0,0 L14,0 L14,1 L18,1 L18,2 L21,2 L21,3 L22,3 L22,4 L24,4 L24,5 L26,5 L26,6 L27,6 L27,7 L28,7 L28,8 L30,8 L30,9 L31,9 L31,11 L32,11 L32,12 L33,12 L33,13 L34,13 L34,14 L35,14 L35,15 L38,15 L38,14 L39,14 L39,13 L48,13 L48,14 L51,14 L51,15 L52,15 L52,23 L51,23 L51,24 L50,24 L50,25 L49,25 L49,26 L48,26 L48,27 L47,27 L47,28 L41,28 L41,27 L30,27 L30,26 L28,26 L28,30 L27,30 L27,32 L30,32 L30,33 L31,33 L31,34 L32,34 L32,35 L33,35 L33,36 L34,36 L34,37 L35,37 L35,38 L36,38 L36,40 L37,40 L37,41 L38,41 L38,43 L39,43 L39,46 L40,46 L40,47 L41,47 L41,59 L42,59 L42,60 L43,60 L43,62 L44,62 L44,63 L45,63 L45,65 L46,65 L46,66 L47,66 L47,67 L48,67 L48,75 L49,75 L49,83 L50,83 L50,84 L51,84 L51,91 L54,91 L54,90 L55,90 L55,89 L56,89 L56,88 L57,88 L57,87 L59,87 L59,86 L63,86 L63,87 L65,87 L65,88 L66,88 L66,89 L67,89 L67,90 L68,90 L68,91 L69,91 L69,93 L70,93 L70,96 L71,96 L71,97 L72,97 L72,98 L73,98 L73,100 L74,100 L74,102 L75,102 L75,104 L76,104 L76,111 L75,111 L75,113 L74,113 L74,115 L73,115 L73,116 L72,116 L72,117 L71,117 L71,118 L70,118 L70,120 L71,120 L71,121 L68,121 L68,128 L67,128 L67,129 L65,129 L65,131 L66,131 L66,136 L65,136 L65,143 L59,143 L59,144 L55,144 L55,146 L58,146 L58,147 L53,147 L53,142 L62,142 L62,141 L63,141 L63,128 L66,128 L66,127 L67,127 L67,114 L61,114 L61,113 L60,113 L60,110 L57,110 L57,111 L56,111 L56,113 L55,113 L55,114 L54,114 L54,115 L53,115 L53,116 L45,116 L45,117 L44,117 L44,123 L43,123 L43,122 L42,122 L42,121 L41,121 L41,120 L40,120 L40,119 L39,119 L39,118 L37,118 L37,117 L33,117 L33,116 L24,116 L24,115 L25,115 L25,114 L26,114 L26,113 L27,113 L27,112 L28,112 L28,111 L29,111 L29,110 L30,110 L30,109 L31,109 L31,107 L32,107 L32,105 L33,105 L33,103 L34,103 L34,101 L35,101 L35,97 L36,97 L36,87 L35,87 L35,84 L34,84 L34,81 L33,81 L33,80 L35,80 L35,79 L37,79 L37,78 L43,78 L43,83 L40,83 L40,85 L41,85 L41,86 L42,86 L42,89 L43,89 L43,93 L44,93 L44,98 L45,98 L45,103 L46,103 L46,104 L47,104 L47,103 L48,103 L48,102 L49,102 L49,101 L52,101 L52,100 L53,100 L53,99 L52,99 L52,98 L56,98 L56,99 L57,99 L57,100 L58,100 L58,105 L60,105 L60,97 L59,97 L59,96 L58,96 L58,95 L57,95 L57,94 L58,94 L58,93 L60,93 L60,92 L61,92 L61,91 L62,91 L62,90 L59,90 L59,91 L58,91 L58,92 L57,92 L57,93 L56,93 L56,94 L53,94 L53,95 L52,95 L52,96 L51,96 L51,97 L50,97 L50,99 L47,99 L47,98 L46,98 L46,95 L45,95 L45,89 L44,89 L44,87 L47,87 L47,86 L45,86 L45,84 L44,84 L44,83 L45,83 L45,82 L46,82 L46,81 L44,81 L44,79 L45,79 L45,78 L46,78 L46,77 L41,77 L41,76 L42,76 L42,75 L43,75 L43,74 L44,74 L44,73 L45,73 L45,69 L44,69 L44,67 L43,67 L43,66 L42,66 L42,65 L41,65 L41,63 L40,63 L40,61 L39,61 L39,60 L38,60 L38,48 L37,48 L37,47 L36,47 L36,45 L35,45 L35,43 L34,43 L34,42 L33,42 L33,40 L32,40 L32,39 L31,39 L31,38 L30,38 L30,37 L29,37 L29,36 L28,36 L28,35 L27,35 L27,37 L28,37 L28,38 L29,38 L29,39 L30,39 L30,41 L31,41 L31,42 L32,42 L32,43 L33,43 L33,45 L34,45 L34,47 L35,47 L35,50 L36,50 L36,52 L35,52 L35,53 L34,53 L34,54 L33,54 L33,55 L30,55 L30,56 L27,56 L27,55 L25,55 L25,54 L26,54 L26,53 L27,53 L27,51 L28,51 L28,50 L29,50 L29,49 L30,49 L30,48 L31,48 L31,47 L32,47 L32,44 L31,44 L31,43 L29,43 L29,44 L28,44 L28,45 L27,45 L27,47 L26,47 L26,48 L24,48 L24,50 L23,50 L23,51 L22,51 L22,54 L21,54 L21,55 L20,55 L20,56 L18,56 L18,57 L17,57 L17,59 L16,59 L16,60 L15,60 L15,61 L13,61 L13,64 L12,64 L12,65 L11,65 L11,66 L10,66 L10,67 L9,67 L9,68 L7,68 L7,69 L5,69 L5,64 L7,64 L7,63 L8,63 L8,62 L10,62 L10,61 L11,61 L11,59 L12,59 L12,57 L14,57 L14,55 L15,55 L15,54 L16,54 L16,53 L18,53 L18,52 L19,52 L19,48 L21,48 L21,47 L22,47 L22,46 L24,46 L24,40 L25,40 L25,38 L24,38 L24,36 L21,36 L21,35 L22,35 L22,30 L24,30 L24,29 L25,29 L25,21 L28,21 L28,22 L29,22 L29,23 L31,23 L31,24 L41,24 L41,25 L45,25 L45,24 L46,24 L46,23 L47,23 L47,22 L48,22 L48,21 L49,21 L49,19 L48,19 L48,17 L47,17 L47,16 L40,16 L40,17 L39,17 L39,18 L38,18 L38,19 L35,19 L35,18 L34,18 L34,17 L32,17 L32,16 L31,16 L31,14 L30,14 L30,13 L29,13 L29,12 L28,12 L28,11 L27,11 L27,10 L26,10 L26,9 L25,9 L25,8 L23,8 L23,7 L22,7 L22,6 L20,6 L20,5 L18,5 L18,4 L10,4 L10,5 L-2,5 L-2,3 L-1,3 L-1,1 L0,1 Z " fill="#181212" transform="translate(91,8)"/>
<path d="M0,0 L2,0 L2,1 L1,1 L1,3 L13,3 L13,2 L21,2 L21,3 L23,3 L23,4 L25,4 L25,5 L26,5 L26,6 L28,6 L28,7 L29,7 L29,8 L30,8 L30,9 L31,9 L31,10 L32,10 L32,11 L33,11 L33,12 L34,12 L34,14 L35,14 L35,15 L37,15 L37,16 L38,16 L38,17 L41,17 L41,16 L42,16 L42,15 L43,15 L43,14 L50,14 L50,15 L51,15 L51,17 L52,17 L52,19 L51,19 L51,20 L50,20 L50,21 L49,21 L49,22 L48,22 L48,23 L44,23 L44,22 L34,22 L34,21 L32,21 L32,20 L31,20 L31,19 L28,19 L28,27 L27,27 L27,28 L25,28 L25,33 L24,33 L24,34 L27,34 L27,36 L28,36 L28,38 L27,38 L27,44 L25,44 L25,45 L24,45 L24,46 L22,46 L22,50 L21,50 L21,51 L19,51 L19,52 L18,52 L18,53 L17,53 L17,55 L15,55 L15,57 L14,57 L14,59 L13,59 L13,60 L11,60 L11,61 L10,61 L10,62 L8,62 L8,66 L7,66 L7,65 L6,65 L6,64 L5,64 L5,63 L1,63 L1,62 L4,62 L4,61 L5,61 L5,60 L6,60 L6,59 L7,59 L7,57 L8,57 L8,56 L9,56 L9,55 L10,55 L10,54 L9,54 L9,53 L8,53 L8,52 L7,52 L7,47 L5,47 L5,46 L3,46 L3,45 L2,45 L2,44 L1,44 L1,43 L0,43 L0,42 L-1,42 L-1,41 L-3,41 L-3,43 L-4,43 L-4,45 L-5,45 L-5,46 L-6,46 L-6,44 L-5,44 L-5,42 L-4,42 L-4,40 L-3,40 L-3,35 L-4,35 L-4,34 L-5,34 L-5,33 L-6,33 L-6,32 L-7,32 L-7,30 L-8,30 L-8,29 L-9,29 L-9,28 L-10,28 L-10,23 L-11,23 L-11,24 L-12,24 L-12,22 L-11,22 L-11,16 L-12,16 L-12,13 L-11,13 L-11,11 L-10,11 L-10,10 L-9,10 L-9,8 L-8,8 L-8,7 L-7,7 L-7,6 L-6,6 L-6,5 L-5,5 L-5,4 L-4,4 L-4,3 L-3,3 L-3,2 L-1,2 L-1,1 L0,1 Z " fill="#1E4D28" transform="translate(88,10)"/>
<path d="M0,0 L6,0 L6,3 L5,3 L5,8 L4,8 L4,9 L-5,9 L-5,10 L-6,10 L-6,16 L-4,16 L-4,15 L1,15 L1,14 L3,14 L3,24 L4,24 L4,25 L3,25 L3,26 L-6,26 L-6,31 L-1,31 L-1,30 L6,30 L6,34 L5,34 L5,39 L4,39 L4,41 L3,41 L3,42 L-6,42 L-6,43 L-18,43 L-18,33 L-19,33 L-19,34 L-22,34 L-22,35 L-29,35 L-29,41 L-30,41 L-30,42 L-32,42 L-32,40 L-31,40 L-31,34 L-26,34 L-26,33 L-22,33 L-22,32 L-20,32 L-20,31 L-19,31 L-19,29 L-21,29 L-21,30 L-22,30 L-22,31 L-26,31 L-26,32 L-32,32 L-32,35 L-33,35 L-33,42 L-34,42 L-34,45 L-36,45 L-36,46 L-40,46 L-40,36 L-41,36 L-41,3 L-39,3 L-39,2 L-25,2 L-25,3 L-22,3 L-22,4 L-21,4 L-21,5 L-19,5 L-19,6 L-18,6 L-18,8 L-17,8 L-17,9 L-16,9 L-16,13 L-15,13 L-15,14 L-14,14 L-14,9 L-13,9 L-13,2 L-9,2 L-9,1 L0,1 Z " fill="#A0D13C" transform="translate(150,124)"/>
<path d="M0,0 L17,0 L17,1 L21,1 L21,2 L23,2 L23,3 L24,3 L24,4 L26,4 L26,5 L28,5 L28,6 L29,6 L29,7 L30,7 L30,8 L32,8 L32,9 L33,9 L33,10 L34,10 L34,12 L35,12 L35,13 L36,13 L36,14 L39,14 L39,13 L41,13 L41,12 L49,12 L49,13 L50,13 L50,14 L53,14 L53,15 L54,15 L54,16 L55,16 L55,26 L54,26 L54,27 L53,27 L53,28 L52,28 L52,29 L51,29 L51,30 L50,30 L50,31 L49,31 L49,32 L34,32 L34,31 L31,31 L31,32 L32,32 L32,33 L33,33 L33,34 L34,34 L34,35 L35,35 L35,36 L36,36 L36,37 L37,37 L37,38 L38,38 L38,40 L39,40 L39,41 L40,41 L40,43 L41,43 L41,45 L42,45 L42,47 L43,47 L43,48 L44,48 L44,60 L45,60 L45,61 L46,61 L46,63 L47,63 L47,64 L48,64 L48,65 L49,65 L49,67 L50,67 L50,69 L51,69 L51,76 L52,76 L52,77 L53,77 L53,85 L54,85 L54,90 L55,90 L55,89 L56,89 L56,88 L57,88 L57,87 L59,87 L59,86 L65,86 L65,87 L66,87 L66,88 L68,88 L68,89 L69,89 L69,90 L70,90 L70,91 L71,91 L71,92 L72,92 L72,94 L73,94 L73,97 L74,97 L74,98 L75,98 L75,99 L76,99 L76,101 L77,101 L77,103 L78,103 L78,107 L79,107 L79,113 L78,113 L78,116 L77,116 L77,118 L76,118 L76,119 L75,119 L75,120 L74,120 L74,121 L73,121 L73,122 L71,122 L71,120 L72,120 L72,119 L73,119 L73,118 L74,118 L74,117 L75,117 L75,115 L76,115 L76,113 L77,113 L77,106 L76,106 L76,104 L75,104 L75,102 L74,102 L74,100 L73,100 L73,99 L72,99 L72,98 L71,98 L71,95 L70,95 L70,93 L69,93 L69,92 L68,92 L68,91 L67,91 L67,90 L66,90 L66,89 L64,89 L64,88 L60,88 L60,89 L58,89 L58,90 L57,90 L57,91 L56,91 L56,92 L55,92 L55,93 L52,93 L52,86 L51,86 L51,85 L50,85 L50,77 L49,77 L49,69 L48,69 L48,68 L47,68 L47,67 L46,67 L46,65 L45,65 L45,64 L44,64 L44,62 L43,62 L43,61 L42,61 L42,49 L41,49 L41,48 L40,48 L40,45 L39,45 L39,43 L38,43 L38,42 L37,42 L37,40 L36,40 L36,39 L35,39 L35,38 L34,38 L34,37 L33,37 L33,36 L32,36 L32,35 L31,35 L31,34 L28,34 L28,32 L29,32 L29,28 L31,28 L31,29 L42,29 L42,30 L48,30 L48,29 L49,29 L49,28 L50,28 L50,27 L51,27 L51,26 L52,26 L52,25 L53,25 L53,17 L52,17 L52,16 L49,16 L49,15 L40,15 L40,16 L39,16 L39,17 L36,17 L36,16 L35,16 L35,15 L34,15 L34,14 L33,14 L33,13 L32,13 L32,11 L31,11 L31,10 L29,10 L29,9 L28,9 L28,8 L27,8 L27,7 L25,7 L25,6 L23,6 L23,5 L22,5 L22,4 L19,4 L19,3 L15,3 L15,2 L1,2 L1,3 L0,3 L0,4 L-2,4 L-2,5 L-3,5 L-3,6 L-5,6 L-5,7 L-6,7 L-6,8 L-7,8 L-7,9 L-8,9 L-8,10 L-9,10 L-9,11 L-10,11 L-10,12 L-11,12 L-11,14 L-12,14 L-12,15 L-13,15 L-13,17 L-14,17 L-14,20 L-13,20 L-13,26 L-14,26 L-14,34 L-13,34 L-13,35 L-12,35 L-12,37 L-11,37 L-11,39 L-10,39 L-10,40 L-8,40 L-8,43 L-9,43 L-9,45 L-10,45 L-10,47 L-11,47 L-11,48 L-12,48 L-12,50 L-13,50 L-13,52 L-14,52 L-14,53 L-15,53 L-15,54 L-16,54 L-16,55 L-17,55 L-17,56 L-18,56 L-18,58 L-19,58 L-19,59 L-25,59 L-25,60 L-28,60 L-28,59 L-34,59 L-34,60 L-37,60 L-37,61 L-38,61 L-38,62 L-39,62 L-39,63 L-40,63 L-40,65 L-41,65 L-41,66 L-42,66 L-42,67 L-44,67 L-44,68 L-45,68 L-45,69 L-46,69 L-46,70 L-47,70 L-47,80 L-46,80 L-46,81 L-45,81 L-45,83 L-46,83 L-46,90 L-45,90 L-45,93 L-44,93 L-44,94 L-43,94 L-43,95 L-42,95 L-42,96 L-40,96 L-40,97 L-38,97 L-38,98 L-37,98 L-37,99 L-35,99 L-35,100 L-33,100 L-33,101 L-32,101 L-32,103 L-33,103 L-33,105 L-34,105 L-34,107 L-35,107 L-35,108 L-37,108 L-37,109 L-38,109 L-38,110 L-39,110 L-39,111 L-40,111 L-40,112 L-43,112 L-43,113 L-45,113 L-45,114 L-46,114 L-46,115 L-47,115 L-47,116 L-48,116 L-48,119 L-49,119 L-49,120 L-50,120 L-50,121 L-54,121 L-54,122 L-56,122 L-56,123 L-57,123 L-57,132 L-56,132 L-56,131 L-53,131 L-53,127 L-52,127 L-52,126 L-49,126 L-49,127 L-46,127 L-46,128 L-45,128 L-45,130 L-44,130 L-44,131 L-42,131 L-42,132 L-41,132 L-41,135 L-42,135 L-42,136 L-43,136 L-43,138 L-44,138 L-44,139 L-45,139 L-45,143 L-43,143 L-43,144 L-42,144 L-42,145 L-41,145 L-41,140 L-40,140 L-40,139 L-39,139 L-39,149 L-38,149 L-38,151 L-37,151 L-37,154 L-36,154 L-36,155 L-37,155 L-37,156 L-38,156 L-38,155 L-40,155 L-40,156 L-41,156 L-41,157 L-42,157 L-42,158 L-44,158 L-44,159 L-45,159 L-45,163 L-50,163 L-50,162 L-51,162 L-51,160 L-58,160 L-58,159 L-59,159 L-59,158 L-60,158 L-60,155 L-59,155 L-59,151 L-55,151 L-55,152 L-52,152 L-52,149 L-55,149 L-55,148 L-56,148 L-56,147 L-58,147 L-58,146 L-59,146 L-59,144 L-60,144 L-60,143 L-61,143 L-61,141 L-62,141 L-62,137 L-61,137 L-61,135 L-60,135 L-60,134 L-59,134 L-59,122 L-58,122 L-58,121 L-57,121 L-57,120 L-55,120 L-55,119 L-53,119 L-53,118 L-50,118 L-50,115 L-49,115 L-49,114 L-48,114 L-48,113 L-47,113 L-47,112 L-46,112 L-46,111 L-44,111 L-44,110 L-41,110 L-41,108 L-39,108 L-39,107 L-38,107 L-38,106 L-37,106 L-37,105 L-36,105 L-36,104 L-35,104 L-35,102 L-36,102 L-36,101 L-38,101 L-38,100 L-39,100 L-39,99 L-41,99 L-41,98 L-43,98 L-43,97 L-44,97 L-44,96 L-45,96 L-45,95 L-46,95 L-46,94 L-47,94 L-47,91 L-49,91 L-49,84 L-48,84 L-48,80 L-49,80 L-49,69 L-48,69 L-48,68 L-47,68 L-47,67 L-46,67 L-46,66 L-45,66 L-45,65 L-43,65 L-43,64 L-42,64 L-42,62 L-41,62 L-41,61 L-40,61 L-40,60 L-39,60 L-39,59 L-38,59 L-38,58 L-34,58 L-34,57 L-20,57 L-20,56 L-19,56 L-19,54 L-18,54 L-18,53 L-17,53 L-17,52 L-16,52 L-16,51 L-15,51 L-15,49 L-14,49 L-14,47 L-13,47 L-13,46 L-12,46 L-12,44 L-11,44 L-11,41 L-12,41 L-12,40 L-13,40 L-13,38 L-14,38 L-14,36 L-15,36 L-15,35 L-16,35 L-16,26 L-15,26 L-15,21 L-16,21 L-16,16 L-15,16 L-15,14 L-14,14 L-14,13 L-13,13 L-13,11 L-12,11 L-12,10 L-11,10 L-11,9 L-10,9 L-10,8 L-9,8 L-9,7 L-8,7 L-8,6 L-7,6 L-7,5 L-6,5 L-6,4 L-4,4 L-4,3 L-3,3 L-3,2 L-1,2 L-1,1 L0,1 Z " fill="#E2DCD5" transform="translate(90,6)"/>
<path d="M0,0 L7,0 L7,1 L8,1 L8,2 L9,2 L9,3 L10,3 L10,5 L11,5 L11,8 L14,8 L14,7 L19,7 L19,6 L20,6 L20,5 L21,5 L21,7 L24,7 L24,6 L25,6 L25,5 L26,5 L26,3 L33,3 L33,4 L34,4 L34,5 L35,5 L35,6 L37,6 L37,8 L38,8 L38,9 L39,9 L39,10 L38,10 L38,11 L37,11 L37,13 L36,13 L36,14 L35,14 L35,18 L34,18 L34,20 L32,20 L32,21 L29,21 L29,22 L26,22 L26,23 L23,23 L23,24 L21,24 L21,25 L18,25 L18,26 L16,26 L16,27 L15,27 L15,25 L16,25 L16,22 L17,22 L17,20 L18,20 L18,19 L23,19 L23,18 L22,18 L22,17 L18,17 L18,18 L17,18 L17,19 L16,19 L16,20 L15,20 L15,22 L14,22 L14,26 L13,26 L13,33 L14,33 L14,36 L15,36 L15,38 L16,38 L16,39 L17,39 L17,40 L18,40 L18,41 L19,41 L19,42 L24,42 L24,38 L23,38 L23,36 L22,36 L22,40 L19,40 L19,39 L18,39 L18,38 L17,38 L17,36 L16,36 L16,34 L15,34 L15,30 L16,30 L16,31 L17,31 L17,28 L18,28 L18,27 L21,27 L21,26 L23,26 L23,25 L26,25 L26,24 L28,24 L28,23 L31,23 L31,25 L32,25 L32,28 L33,28 L33,31 L31,31 L31,32 L30,32 L30,35 L31,35 L31,38 L32,38 L32,41 L33,41 L33,45 L34,45 L34,51 L31,51 L31,52 L22,52 L22,51 L19,51 L19,50 L17,50 L17,49 L15,49 L15,48 L14,48 L14,47 L13,47 L13,46 L12,46 L12,45 L11,45 L11,44 L10,44 L10,43 L9,43 L9,42 L8,42 L8,40 L7,40 L7,38 L6,38 L6,35 L5,35 L5,33 L4,33 L4,23 L3,23 L3,24 L2,24 L2,29 L1,29 L1,28 L0,28 L0,27 L-2,27 L-2,23 L-1,23 L-1,22 L0,22 L0,20 L1,20 L1,19 L2,19 L2,16 L1,16 L1,15 L-1,15 L-1,14 L-2,14 L-2,12 L-3,12 L-3,11 L-6,11 L-6,10 L-9,10 L-9,11 L-10,11 L-10,15 L-11,15 L-11,9 L-10,9 L-10,8 L-8,8 L-8,7 L-5,7 L-5,6 L-3,6 L-3,5 L-2,5 L-2,2 L-1,2 L-1,1 L0,1 Z " fill="#8CC530" transform="translate(47,122)"/>
<path d="M0,0 L2,0 L2,2 L3,2 L3,5 L4,5 L4,9 L5,9 L5,10 L6,10 L6,12 L7,12 L7,14 L8,14 L8,17 L9,17 L9,23 L8,23 L8,26 L10,26 L10,28 L11,28 L11,27 L12,27 L12,28 L13,28 L13,29 L15,29 L15,32 L14,32 L14,34 L13,34 L13,35 L3,35 L3,36 L0,36 L0,37 L-1,37 L-1,38 L-3,38 L-3,39 L-4,39 L-4,40 L-5,40 L-5,41 L-6,41 L-6,42 L-7,42 L-7,41 L-8,41 L-8,39 L-10,39 L-10,38 L-11,38 L-11,37 L-12,37 L-12,36 L-19,36 L-19,38 L-20,38 L-20,39 L-21,39 L-21,40 L-24,40 L-24,38 L-25,38 L-25,39 L-26,39 L-26,40 L-31,40 L-31,41 L-34,41 L-34,38 L-35,38 L-35,35 L-33,35 L-33,34 L-32,34 L-32,33 L-31,33 L-31,30 L-30,30 L-30,29 L-31,29 L-31,28 L-29,28 L-29,26 L-28,26 L-28,23 L-30,23 L-30,19 L-28,19 L-28,20 L-26,20 L-26,21 L-25,21 L-25,22 L-15,22 L-15,21 L-13,21 L-13,20 L-11,20 L-11,19 L-10,19 L-10,18 L-9,18 L-9,17 L-8,17 L-8,16 L-7,16 L-7,14 L-6,14 L-6,13 L-5,13 L-5,11 L-4,11 L-4,9 L-3,9 L-3,8 L-2,8 L-2,6 L-1,6 L-1,1 L0,1 Z " fill="#6F0A1C" transform="translate(92,89)"/>
<path d="M0,0 L7,0 L7,1 L9,1 L9,2 L10,2 L10,3 L11,3 L11,5 L12,5 L12,6 L13,6 L13,9 L14,9 L14,26 L13,26 L13,28 L12,28 L12,31 L11,31 L11,34 L10,34 L10,36 L9,36 L9,37 L8,37 L8,38 L7,38 L7,39 L6,39 L6,40 L5,40 L5,41 L4,41 L4,42 L3,42 L3,43 L1,43 L1,44 L-5,44 L-5,43 L-7,43 L-7,42 L-8,42 L-8,41 L-9,41 L-9,40 L-10,40 L-10,38 L-11,38 L-11,35 L-12,35 L-12,33 L-13,33 L-13,20 L-12,20 L-12,16 L-11,16 L-11,13 L-10,13 L-10,11 L-9,11 L-9,9 L-8,9 L-8,7 L-7,7 L-7,6 L-6,6 L-6,5 L-5,5 L-5,4 L-4,4 L-4,3 L-3,3 L-3,2 L-2,2 L-2,1 L0,1 Z " fill="#99CE34" transform="translate(94,126)"/>
<path d="M0,0 L1,0 L1,1 L2,1 L2,2 L3,2 L3,3 L4,3 L4,4 L5,4 L5,5 L6,5 L6,7 L7,7 L7,8 L8,8 L8,10 L9,10 L9,12 L10,12 L10,13 L11,13 L11,25 L12,25 L12,26 L13,26 L13,28 L14,28 L14,30 L15,30 L15,31 L16,31 L16,32 L17,32 L17,34 L18,34 L18,38 L17,38 L17,39 L16,39 L16,40 L15,40 L15,41 L14,41 L14,42 L19,42 L19,43 L18,43 L18,44 L17,44 L17,46 L19,46 L19,47 L18,47 L18,48 L17,48 L17,49 L18,49 L18,51 L20,51 L20,52 L17,52 L17,54 L18,54 L18,60 L19,60 L19,63 L20,63 L20,64 L23,64 L23,62 L24,62 L24,61 L25,61 L25,60 L26,60 L26,59 L29,59 L29,58 L30,58 L30,57 L31,57 L31,56 L32,56 L32,55 L35,55 L35,56 L34,56 L34,57 L33,57 L33,58 L31,58 L31,59 L30,59 L30,60 L31,60 L31,61 L32,61 L32,62 L33,62 L33,70 L31,70 L31,65 L30,65 L30,64 L29,64 L29,63 L25,63 L25,64 L26,64 L26,65 L25,65 L25,66 L22,66 L22,67 L21,67 L21,68 L20,68 L20,69 L19,69 L19,68 L18,68 L18,63 L17,63 L17,58 L16,58 L16,54 L15,54 L15,51 L14,51 L14,50 L13,50 L13,48 L16,48 L16,43 L10,43 L10,44 L8,44 L8,45 L6,45 L6,46 L7,46 L7,47 L4,47 L4,48 L3,48 L3,52 L4,52 L4,60 L3,60 L3,63 L2,63 L2,67 L1,67 L1,69 L0,69 L0,70 L-1,70 L-1,72 L-2,72 L-2,74 L-3,74 L-3,75 L-4,75 L-4,76 L-5,76 L-5,77 L-6,77 L-6,78 L-7,78 L-7,79 L-8,79 L-8,80 L-10,80 L-10,82 L-11,82 L-11,86 L-12,86 L-12,85 L-13,85 L-13,84 L-14,84 L-14,83 L-15,83 L-15,82 L-17,82 L-17,81 L-13,81 L-13,80 L-12,80 L-12,78 L-11,78 L-11,75 L-13,75 L-13,74 L-14,74 L-14,73 L-15,73 L-15,74 L-16,74 L-16,72 L-18,72 L-18,69 L-16,69 L-16,70 L-12,70 L-12,62 L-11,62 L-11,59 L-10,59 L-10,52 L-9,52 L-9,53 L-8,53 L-8,52 L-5,52 L-5,51 L-3,51 L-3,50 L2,50 L2,49 L1,49 L1,47 L-13,47 L-13,46 L-12,46 L-12,45 L-1,45 L-1,44 L3,44 L3,43 L4,43 L4,42 L10,42 L10,40 L8,40 L8,39 L7,39 L7,38 L5,38 L5,37 L4,37 L4,36 L3,36 L3,35 L1,35 L1,34 L-1,34 L-1,33 L-3,33 L-3,32 L-9,32 L-9,30 L-8,30 L-8,29 L2,29 L2,30 L4,30 L4,31 L6,31 L6,32 L7,32 L7,33 L9,33 L9,34 L13,34 L13,31 L12,31 L12,28 L11,28 L11,27 L10,27 L10,21 L9,21 L9,15 L8,15 L8,12 L7,12 L7,10 L6,10 L6,8 L5,8 L5,7 L4,7 L4,6 L3,6 L3,4 L2,4 L2,3 L1,3 L1,2 L0,2 Z " fill="#3A102D" transform="translate(118,43)"/>
<path d="M0,0 L6,0 L6,5 L3,5 L3,7 L4,7 L4,8 L5,8 L5,11 L6,11 L6,15 L7,15 L7,20 L8,20 L8,25 L9,25 L9,26 L10,26 L10,25 L11,25 L11,24 L12,24 L12,23 L15,23 L15,22 L16,22 L16,21 L15,21 L15,20 L19,20 L19,21 L20,21 L20,22 L21,22 L21,27 L23,27 L23,20 L24,20 L24,26 L25,26 L25,27 L26,27 L26,26 L27,26 L27,25 L28,25 L28,34 L32,34 L32,33 L33,33 L33,27 L32,27 L32,25 L31,25 L31,23 L30,23 L30,22 L29,22 L29,20 L28,20 L28,18 L27,18 L27,16 L26,16 L26,13 L27,13 L27,14 L28,14 L28,15 L29,15 L29,16 L30,16 L30,18 L29,18 L29,19 L31,19 L31,20 L32,20 L32,21 L33,21 L33,24 L34,24 L34,25 L35,25 L35,34 L34,34 L34,36 L33,36 L33,37 L31,37 L31,39 L30,39 L30,36 L24,36 L24,35 L23,35 L23,32 L20,32 L20,33 L19,33 L19,35 L18,35 L18,36 L17,36 L17,37 L16,37 L16,38 L8,38 L8,39 L7,39 L7,45 L6,45 L6,44 L5,44 L5,43 L4,43 L4,42 L3,42 L3,41 L2,41 L2,40 L0,40 L0,39 L-4,39 L-4,38 L-13,38 L-13,37 L-12,37 L-12,36 L-11,36 L-11,35 L-10,35 L-10,34 L-9,34 L-9,33 L-8,33 L-8,32 L-7,32 L-7,31 L-6,31 L-6,29 L-5,29 L-5,27 L-4,27 L-4,25 L-3,25 L-3,23 L-2,23 L-2,19 L-1,19 L-1,9 L-2,9 L-2,6 L-3,6 L-3,3 L-4,3 L-4,2 L-2,2 L-2,1 L0,1 Z " fill="#22452C" transform="translate(128,86)"/>
<path d="M0,0 L1,0 L1,2 L3,2 L3,1 L5,1 L5,2 L4,2 L4,4 L6,4 L6,3 L10,3 L10,4 L8,4 L8,10 L10,10 L10,17 L9,17 L9,18 L8,18 L8,20 L7,20 L7,22 L6,22 L6,23 L5,23 L5,25 L4,25 L4,26 L3,26 L3,27 L2,27 L2,28 L1,28 L1,29 L-1,29 L-1,30 L-3,30 L-3,31 L-13,31 L-13,30 L-14,30 L-14,29 L-16,29 L-16,28 L-18,28 L-18,32 L-16,32 L-16,35 L-17,35 L-17,37 L-19,37 L-19,38 L-18,38 L-18,39 L-19,39 L-19,42 L-20,42 L-20,43 L-21,43 L-21,44 L-23,44 L-23,45 L-24,45 L-24,44 L-25,44 L-25,43 L-26,43 L-26,42 L-32,42 L-32,41 L-29,41 L-29,40 L-28,40 L-28,39 L-27,39 L-27,38 L-25,38 L-25,37 L-24,37 L-24,36 L-23,36 L-23,35 L-22,35 L-22,34 L-21,34 L-21,32 L-20,32 L-20,29 L-19,29 L-19,25 L-20,25 L-20,24 L-22,24 L-22,23 L-24,23 L-24,22 L-25,22 L-25,20 L-17,20 L-17,19 L-31,19 L-31,18 L-32,18 L-32,15 L-33,15 L-33,12 L-32,12 L-32,13 L-31,13 L-31,14 L-29,14 L-29,15 L-19,15 L-19,14 L-14,14 L-14,13 L-11,13 L-11,12 L-1,12 L-1,17 L0,17 L0,13 L2,13 L2,5 L1,5 L1,3 L0,3 Z " fill="#0E4024" transform="translate(80,80)"/>
<path d="M0,0 L7,0 L7,1 L8,1 L8,2 L9,2 L9,3 L10,3 L10,5 L11,5 L11,8 L14,8 L14,7 L19,7 L19,6 L20,6 L20,5 L21,5 L21,7 L24,7 L24,6 L25,6 L25,5 L26,5 L26,3 L33,3 L33,4 L34,4 L34,5 L35,5 L35,6 L37,6 L37,8 L38,8 L38,9 L39,9 L39,10 L38,10 L38,11 L37,11 L37,13 L36,13 L36,14 L35,14 L35,18 L34,18 L34,20 L32,20 L32,21 L29,21 L29,22 L26,22 L26,23 L23,23 L23,24 L21,24 L21,25 L18,25 L18,26 L16,26 L16,27 L15,27 L15,25 L16,25 L16,22 L17,22 L17,20 L18,20 L18,19 L23,19 L23,18 L25,18 L25,17 L26,17 L26,15 L27,15 L27,11 L25,11 L25,10 L22,10 L22,9 L14,9 L14,10 L12,10 L12,11 L11,11 L11,12 L10,12 L10,13 L9,13 L9,14 L8,14 L8,16 L7,16 L7,18 L6,18 L6,21 L5,21 L5,33 L4,33 L4,23 L3,23 L3,24 L2,24 L2,29 L1,29 L1,28 L0,28 L0,27 L-2,27 L-2,23 L-1,23 L-1,22 L0,22 L0,20 L1,20 L1,19 L2,19 L2,16 L1,16 L1,15 L-1,15 L-1,14 L-2,14 L-2,12 L-3,12 L-3,11 L-6,11 L-6,10 L-9,10 L-9,11 L-10,11 L-10,15 L-11,15 L-11,9 L-10,9 L-10,8 L-8,8 L-8,7 L-5,7 L-5,6 L-3,6 L-3,5 L-2,5 L-2,2 L-1,2 L-1,1 L0,1 Z " fill="#E0EBCC" transform="translate(47,122)"/>
<path d="M0,0 L1,0 L1,5 L2,5 L2,6 L3,6 L3,7 L4,7 L4,9 L5,9 L5,10 L6,10 L6,11 L7,11 L7,12 L8,12 L8,17 L7,17 L7,19 L6,19 L6,21 L5,21 L5,23 L4,23 L4,25 L3,25 L3,26 L2,26 L2,27 L1,27 L1,28 L0,28 L0,30 L-1,30 L-1,31 L-2,31 L-2,32 L-3,32 L-3,34 L-4,34 L-4,35 L-11,35 L-11,36 L-13,36 L-13,37 L-14,37 L-14,36 L-16,36 L-16,35 L-21,35 L-21,36 L-22,36 L-22,37 L-23,37 L-23,38 L-24,38 L-24,39 L-25,39 L-25,41 L-26,41 L-26,42 L-28,42 L-28,43 L-30,43 L-30,44 L-31,44 L-31,51 L-30,51 L-30,52 L-29,52 L-29,53 L-28,53 L-28,54 L-27,54 L-27,55 L-28,55 L-28,56 L-29,56 L-29,57 L-30,57 L-30,62 L-29,62 L-29,65 L-28,65 L-28,66 L-14,66 L-14,67 L-22,67 L-22,69 L-21,69 L-21,70 L-19,70 L-19,71 L-17,71 L-17,72 L-16,72 L-16,76 L-17,76 L-17,79 L-18,79 L-18,81 L-19,81 L-19,82 L-20,82 L-20,83 L-21,83 L-21,84 L-22,84 L-22,85 L-24,85 L-24,86 L-25,86 L-25,87 L-26,87 L-26,88 L-29,88 L-29,89 L-30,89 L-30,90 L-31,90 L-31,91 L-32,91 L-32,94 L-33,94 L-33,95 L-35,95 L-35,96 L-38,96 L-38,97 L-40,97 L-40,98 L-41,98 L-41,104 L-43,104 L-43,105 L-44,105 L-44,96 L-43,96 L-43,95 L-41,95 L-41,94 L-37,94 L-37,93 L-36,93 L-36,92 L-35,92 L-35,89 L-34,89 L-34,88 L-33,88 L-33,87 L-32,87 L-32,86 L-30,86 L-30,85 L-27,85 L-27,84 L-26,84 L-26,83 L-25,83 L-25,82 L-24,82 L-24,81 L-22,81 L-22,80 L-21,80 L-21,78 L-20,78 L-20,76 L-19,76 L-19,74 L-20,74 L-20,73 L-22,73 L-22,72 L-24,72 L-24,71 L-25,71 L-25,70 L-27,70 L-27,69 L-29,69 L-29,68 L-30,68 L-30,67 L-31,67 L-31,66 L-32,66 L-32,63 L-33,63 L-33,56 L-32,56 L-32,54 L-33,54 L-33,53 L-34,53 L-34,43 L-33,43 L-33,42 L-32,42 L-32,41 L-31,41 L-31,40 L-29,40 L-29,39 L-28,39 L-28,38 L-27,38 L-27,36 L-26,36 L-26,35 L-25,35 L-25,34 L-24,34 L-24,33 L-21,33 L-21,32 L-15,32 L-15,33 L-12,33 L-12,32 L-6,32 L-6,31 L-5,31 L-5,29 L-4,29 L-4,28 L-3,28 L-3,27 L-2,27 L-2,26 L-1,26 L-1,25 L0,25 L0,23 L1,23 L1,21 L2,21 L2,20 L3,20 L3,18 L4,18 L4,16 L5,16 L5,13 L3,13 L3,12 L2,12 L2,10 L1,10 L1,8 L0,8 L0,7 L-1,7 L-1,1 L0,1 Z " fill="#13110F" transform="translate(77,33)"/>
<path d="M0,0 L3,0 L3,1 L7,1 L7,2 L9,2 L9,3 L10,3 L10,4 L12,4 L12,5 L14,5 L14,6 L15,6 L15,7 L16,7 L16,8 L18,8 L18,9 L19,9 L19,10 L20,10 L20,12 L21,12 L21,13 L22,13 L22,14 L25,14 L25,13 L27,13 L27,12 L35,12 L35,13 L36,13 L36,14 L39,14 L39,15 L40,15 L40,16 L41,16 L41,26 L40,26 L40,27 L39,27 L39,28 L38,28 L38,29 L37,29 L37,30 L36,30 L36,31 L35,31 L35,32 L20,32 L20,31 L17,31 L17,32 L18,32 L18,33 L19,33 L19,34 L20,34 L20,35 L21,35 L21,36 L22,36 L22,37 L23,37 L23,38 L24,38 L24,40 L25,40 L25,41 L26,41 L26,43 L27,43 L27,45 L28,45 L28,47 L29,47 L29,48 L30,48 L30,60 L31,60 L31,61 L32,61 L32,63 L33,63 L33,64 L34,64 L34,65 L35,65 L35,67 L36,67 L36,69 L37,69 L37,76 L38,76 L38,77 L39,77 L39,85 L40,85 L40,90 L41,90 L41,89 L42,89 L42,88 L43,88 L43,87 L45,87 L45,86 L51,86 L51,87 L52,87 L52,88 L54,88 L54,89 L55,89 L55,90 L56,90 L56,91 L57,91 L57,92 L58,92 L58,94 L59,94 L59,97 L60,97 L60,98 L61,98 L61,99 L62,99 L62,101 L63,101 L63,103 L64,103 L64,107 L65,107 L65,113 L64,113 L64,116 L63,116 L63,118 L62,118 L62,119 L61,119 L61,120 L60,120 L60,121 L59,121 L59,122 L57,122 L57,120 L58,120 L58,119 L59,119 L59,118 L60,118 L60,117 L61,117 L61,115 L62,115 L62,113 L63,113 L63,106 L62,106 L62,104 L61,104 L61,102 L60,102 L60,100 L59,100 L59,99 L58,99 L58,98 L57,98 L57,95 L56,95 L56,93 L55,93 L55,92 L54,92 L54,91 L53,91 L53,90 L52,90 L52,89 L50,89 L50,88 L46,88 L46,89 L44,89 L44,90 L43,90 L43,91 L42,91 L42,92 L41,92 L41,93 L38,93 L38,86 L37,86 L37,85 L36,85 L36,77 L35,77 L35,69 L34,69 L34,68 L33,68 L33,67 L32,67 L32,65 L31,65 L31,64 L30,64 L30,62 L29,62 L29,61 L28,61 L28,49 L27,49 L27,48 L26,48 L26,45 L25,45 L25,43 L24,43 L24,42 L23,42 L23,40 L22,40 L22,39 L21,39 L21,38 L20,38 L20,37 L19,37 L19,36 L18,36 L18,35 L17,35 L17,34 L14,34 L14,32 L15,32 L15,28 L17,28 L17,29 L28,29 L28,30 L34,30 L34,29 L35,29 L35,28 L36,28 L36,27 L37,27 L37,26 L38,26 L38,25 L39,25 L39,17 L38,17 L38,16 L35,16 L35,15 L26,15 L26,16 L25,16 L25,17 L22,17 L22,16 L21,16 L21,15 L20,15 L20,14 L19,14 L19,13 L18,13 L18,11 L17,11 L17,10 L15,10 L15,9 L14,9 L14,8 L13,8 L13,7 L11,7 L11,6 L9,6 L9,5 L8,5 L8,4 L5,4 L5,3 L1,3 L1,2 L-10,2 L-10,1 L0,1 Z " fill="#DED1D1" transform="translate(104,6)"/>
<path d="M0,0 L2,0 L2,4 L1,4 L1,5 L4,5 L4,7 L5,7 L5,9 L4,9 L4,15 L2,15 L2,16 L1,16 L1,17 L-1,17 L-1,21 L-2,21 L-2,22 L-4,22 L-4,23 L-5,23 L-5,24 L-6,24 L-6,26 L-8,26 L-8,28 L-9,28 L-9,30 L-10,30 L-10,31 L-12,31 L-12,32 L-13,32 L-13,33 L-15,33 L-15,37 L-16,37 L-16,36 L-17,36 L-17,35 L-18,35 L-18,34 L-22,34 L-22,33 L-19,33 L-19,32 L-18,32 L-18,31 L-17,31 L-17,30 L-16,30 L-16,28 L-15,28 L-15,27 L-14,27 L-14,26 L-13,26 L-13,25 L-14,25 L-14,24 L-15,24 L-15,23 L-16,23 L-16,18 L-18,18 L-18,17 L-20,17 L-20,16 L-21,16 L-21,15 L-22,15 L-22,14 L-23,14 L-23,13 L-24,13 L-24,12 L-26,12 L-26,14 L-27,14 L-27,16 L-28,16 L-28,17 L-29,17 L-29,15 L-28,15 L-28,13 L-27,13 L-27,11 L-26,11 L-26,7 L-25,7 L-25,9 L-24,9 L-24,10 L-23,10 L-23,11 L-22,11 L-22,12 L-21,12 L-21,13 L-20,13 L-20,14 L-16,14 L-16,15 L-13,15 L-13,13 L-12,13 L-12,12 L-11,12 L-11,11 L-10,11 L-10,9 L-9,9 L-9,8 L-8,8 L-8,6 L-7,6 L-7,5 L-6,5 L-6,4 L-5,4 L-5,3 L-3,3 L-3,2 L-2,2 L-2,1 L0,1 Z " fill="#CC4226" transform="translate(111,39)"/>
<path d="M0,0 L8,0 L8,1 L10,1 L10,2 L12,2 L12,3 L14,3 L14,6 L12,6 L12,7 L9,7 L9,9 L2,9 L2,10 L-2,10 L-2,11 L-3,11 L-3,13 L-2,13 L-2,15 L0,15 L0,17 L1,17 L1,25 L0,25 L0,37 L-4,37 L-4,36 L-5,36 L-5,30 L-6,30 L-6,27 L-7,27 L-7,25 L-8,25 L-8,23 L-9,23 L-9,22 L-10,22 L-10,18 L-11,18 L-11,8 L-10,8 L-10,7 L-9,7 L-9,6 L-8,6 L-8,5 L-6,5 L-6,4 L-5,4 L-5,3 L-3,3 L-3,2 L-2,2 L-2,1 L0,1 Z " fill="#257F12" transform="translate(106,76)"/>
<path d="M0,0 L8,0 L8,1 L10,1 L10,2 L12,2 L12,3 L13,3 L13,4 L15,4 L15,5 L16,5 L16,6 L17,6 L17,7 L18,7 L18,8 L19,8 L19,9 L20,9 L20,10 L21,10 L21,12 L22,12 L22,13 L24,13 L24,14 L25,14 L25,15 L28,15 L28,14 L29,14 L29,13 L30,13 L30,12 L37,12 L37,13 L38,13 L38,15 L39,15 L39,17 L38,17 L38,18 L37,18 L37,19 L29,19 L29,18 L28,18 L28,17 L26,17 L26,16 L24,16 L24,15 L23,15 L23,14 L21,14 L21,13 L20,13 L20,12 L19,12 L19,11 L17,11 L17,10 L14,10 L14,8 L13,8 L13,6 L10,6 L10,5 L9,5 L9,6 L8,6 L8,7 L7,7 L7,8 L8,8 L8,9 L10,9 L10,10 L11,10 L11,11 L12,11 L12,12 L13,12 L13,13 L14,13 L14,16 L13,16 L13,15 L11,15 L11,14 L9,14 L9,13 L6,13 L6,12 L5,12 L5,11 L3,11 L3,9 L1,9 L1,8 L-1,8 L-1,7 L-6,7 L-6,8 L-13,8 L-13,9 L-14,9 L-14,10 L-15,10 L-15,11 L-16,11 L-16,12 L-20,12 L-20,9 L-19,9 L-19,8 L-18,8 L-18,7 L-17,7 L-17,6 L-16,6 L-16,5 L-15,5 L-15,3 L-13,3 L-13,2 L-12,2 L-12,1 L0,1 Z " fill="#CA502D" transform="translate(101,12)"/>
<path d="M0,0 L2,0 L2,1 L1,1 L1,4 L0,4 L0,5 L-2,5 L-2,7 L-3,7 L-3,8 L-4,8 L-4,9 L-5,9 L-5,10 L-6,10 L-6,11 L-7,11 L-7,14 L-3,14 L-3,13 L-2,13 L-2,12 L-1,12 L-1,11 L0,11 L0,10 L7,10 L7,9 L12,9 L12,10 L14,10 L14,11 L16,11 L16,13 L18,13 L18,14 L19,14 L19,15 L22,15 L22,16 L24,16 L24,17 L17,17 L17,15 L15,15 L15,14 L10,14 L10,15 L9,15 L9,16 L15,16 L15,17 L16,17 L16,18 L15,18 L15,20 L14,20 L14,18 L13,18 L13,17 L9,17 L9,19 L10,19 L10,21 L9,21 L9,22 L7,22 L7,21 L6,21 L6,20 L5,20 L5,23 L2,23 L2,22 L1,22 L1,21 L0,21 L0,20 L-2,20 L-2,19 L-4,19 L-4,20 L-5,20 L-5,23 L-6,23 L-6,24 L-7,24 L-7,23 L-8,23 L-8,24 L-9,24 L-9,27 L-8,27 L-8,25 L-5,25 L-5,26 L-7,26 L-7,28 L-6,28 L-6,30 L-5,30 L-5,32 L-4,32 L-4,33 L-3,33 L-3,34 L-2,34 L-2,36 L-3,36 L-3,35 L-4,35 L-4,34 L-5,34 L-5,33 L-6,33 L-6,32 L-7,32 L-7,30 L-8,30 L-8,29 L-9,29 L-9,28 L-10,28 L-10,23 L-11,23 L-11,24 L-12,24 L-12,22 L-11,22 L-11,16 L-12,16 L-12,13 L-11,13 L-11,11 L-10,11 L-10,10 L-9,10 L-9,8 L-8,8 L-8,7 L-7,7 L-7,6 L-6,6 L-6,5 L-5,5 L-5,4 L-4,4 L-4,3 L-3,3 L-3,2 L-1,2 L-1,1 L0,1 Z " fill="#182515" transform="translate(88,10)"/>
<path d="M0,0 L6,0 L6,1 L7,1 L7,0 L8,0 L8,10 L7,10 L7,16 L13,16 L13,17 L12,17 L12,18 L18,18 L18,19 L17,19 L17,20 L16,20 L16,21 L12,21 L12,22 L6,22 L6,25 L5,25 L5,32 L4,32 L4,35 L2,35 L2,36 L-2,36 L-2,2 L-1,2 L-1,1 L0,1 Z " fill="#8DC72B" transform="translate(112,134)"/>
<path d="M0,0 L1,0 L1,1 L4,1 L4,4 L7,4 L7,5 L8,5 L8,7 L7,7 L7,8 L6,8 L6,9 L4,9 L4,16 L5,16 L5,17 L7,17 L7,18 L9,18 L9,19 L10,19 L10,21 L11,21 L11,25 L10,25 L10,27 L9,27 L9,28 L7,28 L7,29 L5,29 L5,30 L4,30 L4,34 L2,34 L2,30 L-6,30 L-6,29 L-7,29 L-7,27 L-6,27 L-6,25 L-4,25 L-4,26 L1,26 L1,19 L-3,19 L-3,18 L-5,18 L-5,17 L-6,17 L-6,16 L-7,16 L-7,15 L-8,15 L-8,13 L-9,13 L-9,9 L-8,9 L-8,8 L-7,8 L-7,7 L-6,7 L-6,6 L-5,6 L-5,5 L-3,5 L-3,4 L0,4 Z " fill="#92C932" transform="translate(39,134)"/>
<path d="M0,0 L2,0 L2,1 L3,1 L3,2 L4,2 L4,3 L5,3 L5,4 L6,4 L6,5 L8,5 L8,6 L10,6 L10,11 L11,11 L11,12 L12,12 L12,13 L13,13 L13,14 L12,14 L12,15 L11,15 L11,16 L10,16 L10,18 L9,18 L9,19 L8,19 L8,20 L7,20 L7,21 L4,21 L4,22 L3,22 L3,23 L1,23 L1,24 L-2,24 L-2,23 L-6,23 L-6,22 L-7,22 L-7,21 L-8,21 L-8,20 L-9,20 L-9,19 L-11,19 L-11,17 L-10,17 L-10,16 L-9,16 L-9,14 L-8,14 L-8,13 L-6,13 L-6,12 L-7,12 L-7,11 L-6,11 L-6,10 L-5,10 L-5,9 L-4,9 L-4,8 L-3,8 L-3,7 L-2,7 L-2,6 L-3,6 L-3,5 L-2,5 L-2,4 L-1,4 L-1,2 L0,2 Z " fill="#610B1E" transform="translate(85,51)"/>
<path d="M0,0 L1,0 L1,1 L3,1 L3,4 L4,4 L4,6 L6,6 L6,7 L7,7 L7,8 L8,8 L8,10 L9,10 L9,13 L10,13 L10,17 L11,17 L11,20 L12,20 L12,23 L13,23 L13,26 L14,26 L14,29 L15,29 L15,30 L1,30 L1,24 L0,24 L0,19 L-1,19 L-1,16 L-2,16 L-2,12 L-3,12 L-3,4 L-2,4 L-2,2 L-1,2 L-1,1 L0,1 Z " fill="#910000" transform="translate(106,170)"/>
<path d="M0,0 L2,0 L2,1 L4,1 L4,2 L5,2 L5,3 L15,3 L15,2 L17,2 L17,4 L6,4 L6,5 L9,5 L9,7 L10,7 L10,8 L11,8 L11,9 L15,9 L15,8 L16,8 L16,9 L17,9 L17,10 L19,10 L19,11 L20,11 L20,12 L21,12 L21,13 L20,13 L20,14 L18,14 L18,15 L17,15 L17,16 L16,16 L16,17 L11,17 L11,19 L10,19 L10,20 L9,20 L9,21 L6,21 L6,19 L5,19 L5,20 L4,20 L4,21 L-1,21 L-1,22 L-4,22 L-4,19 L-5,19 L-5,16 L-3,16 L-3,15 L-2,15 L-2,14 L-1,14 L-1,11 L0,11 L0,10 L-1,10 L-1,9 L1,9 L1,7 L2,7 L2,4 L0,4 Z " fill="#421139" transform="translate(62,108)"/>
<path d="M0,0 L1,0 L1,1 L2,1 L2,2 L1,2 L1,3 L0,3 L0,4 L-1,4 L-1,5 L-2,5 L-2,6 L-3,6 L-3,7 L-2,7 L-2,8 L-4,8 L-4,9 L-5,9 L-5,11 L-6,11 L-6,12 L-7,12 L-7,14 L-9,14 L-9,13 L-14,13 L-14,14 L-16,14 L-16,17 L-15,17 L-15,18 L-17,18 L-17,19 L-19,19 L-19,21 L-21,21 L-21,23 L-20,23 L-20,24 L-21,24 L-21,27 L-17,27 L-17,24 L-18,24 L-18,23 L-15,23 L-15,24 L-13,24 L-13,25 L-11,25 L-11,27 L-12,27 L-12,28 L-14,28 L-14,29 L-20,29 L-20,28 L-22,28 L-22,27 L-24,27 L-24,28 L-35,28 L-35,21 L-34,21 L-34,20 L-32,20 L-32,19 L-30,19 L-30,18 L-29,18 L-29,16 L-28,16 L-28,15 L-27,15 L-27,14 L-26,14 L-26,13 L-25,13 L-25,12 L-20,12 L-20,13 L-18,13 L-18,14 L-17,14 L-17,13 L-15,13 L-15,12 L-8,12 L-8,11 L-7,11 L-7,9 L-6,9 L-6,8 L-5,8 L-5,7 L-4,7 L-4,5 L-3,5 L-3,4 L-2,4 L-2,3 L-1,3 L-1,2 L0,2 Z " fill="#255A17" transform="translate(81,56)"/>
<path d="M0,0 L5,0 L5,1 L6,1 L6,0 L7,0 L7,8 L8,8 L8,10 L9,10 L9,11 L13,11 L13,9 L14,9 L14,8 L15,8 L15,6 L18,6 L18,5 L23,5 L23,10 L22,10 L22,12 L21,12 L21,13 L20,13 L20,14 L19,14 L19,15 L18,15 L18,16 L17,16 L17,17 L16,17 L16,18 L15,18 L15,19 L13,19 L13,20 L7,20 L7,19 L5,19 L5,18 L4,18 L4,17 L3,17 L3,16 L2,16 L2,14 L1,14 L1,11 L0,11 Z " fill="#66AC23" transform="translate(82,150)"/>
<path d="M0,0 L1,0 L1,2 L2,2 L2,3 L5,3 L5,5 L6,5 L6,6 L7,6 L7,7 L8,7 L8,9 L9,9 L9,10 L10,10 L10,11 L11,11 L11,13 L12,13 L12,15 L13,15 L13,18 L14,18 L14,20 L13,20 L13,21 L12,21 L12,22 L11,22 L11,23 L8,23 L8,24 L5,24 L5,23 L3,23 L3,22 L4,22 L4,21 L5,21 L5,19 L6,19 L6,18 L7,18 L7,17 L8,17 L8,16 L9,16 L9,15 L10,15 L10,12 L9,12 L9,11 L7,11 L7,12 L6,12 L6,13 L5,13 L5,15 L4,15 L4,16 L2,16 L2,18 L1,18 L1,19 L0,19 L0,22 L-1,22 L-1,23 L-2,23 L-2,24 L-4,24 L-4,25 L-5,25 L-5,27 L-6,27 L-6,28 L-7,28 L-7,29 L-9,29 L-9,32 L-10,32 L-10,33 L-11,33 L-11,34 L-12,34 L-12,35 L-13,35 L-13,36 L-15,36 L-15,37 L-17,37 L-17,32 L-15,32 L-15,31 L-14,31 L-14,30 L-12,30 L-12,29 L-11,29 L-11,27 L-10,27 L-10,25 L-8,25 L-8,23 L-7,23 L-7,22 L-6,22 L-6,21 L-4,21 L-4,20 L-3,20 L-3,16 L-1,16 L-1,15 L0,15 L0,14 L2,14 L2,8 L3,8 L3,6 L2,6 L2,4 L-1,4 L-1,3 L0,3 Z " fill="#8C111B" transform="translate(113,40)"/>
<path d="M0,0 L3,0 L3,3 L4,3 L4,6 L5,6 L5,5 L6,5 L6,6 L7,6 L7,10 L8,10 L8,15 L9,15 L9,20 L10,20 L10,21 L11,21 L11,20 L12,20 L12,19 L13,19 L13,18 L16,18 L16,17 L17,17 L17,16 L19,16 L19,19 L18,19 L18,20 L17,20 L17,21 L16,21 L16,22 L15,22 L15,23 L14,23 L14,24 L13,24 L13,23 L12,23 L12,22 L11,22 L11,26 L10,26 L10,29 L5,29 L5,27 L2,27 L2,25 L1,25 L1,24 L0,24 L0,16 L1,16 L1,3 L0,3 Z " fill="#2E6912" transform="translate(127,91)"/>
<path d="M0,0 L5,0 L5,1 L7,1 L7,3 L15,3 L15,10 L14,10 L14,12 L13,12 L13,13 L12,13 L12,14 L11,14 L11,15 L9,15 L9,12 L10,12 L10,10 L11,10 L11,7 L10,7 L10,6 L7,6 L7,7 L6,7 L6,8 L5,8 L5,10 L3,10 L3,11 L2,11 L2,12 L0,12 L0,13 L-2,13 L-2,14 L-14,14 L-14,13 L-15,13 L-15,11 L-18,11 L-18,13 L-19,13 L-19,10 L-18,10 L-18,9 L-17,9 L-17,10 L-16,10 L-16,9 L-15,9 L-15,6 L-14,6 L-14,5 L-12,5 L-12,6 L-10,6 L-10,7 L-9,7 L-9,8 L-8,8 L-8,9 L-5,9 L-5,6 L-4,6 L-4,7 L-3,7 L-3,8 L-1,8 L-1,7 L0,7 L0,5 L-1,5 L-1,3 L3,3 L3,4 L4,4 L4,6 L5,6 L5,4 L6,4 L6,3 L5,3 L5,2 L-1,2 L-1,1 L0,1 Z " fill="#5BAB2B" transform="translate(98,24)"/>
<path d="M0,0 L6,0 L6,1 L8,1 L8,2 L7,2 L7,3 L6,3 L6,2 L-1,2 L-1,3 L-3,3 L-3,4 L-4,4 L-4,5 L-5,5 L-5,6 L-6,6 L-6,7 L-7,7 L-7,8 L-8,8 L-8,9 L-9,9 L-9,11 L-10,11 L-10,13 L-11,13 L-11,15 L-12,15 L-12,18 L-13,18 L-13,22 L-14,22 L-14,35 L-13,35 L-13,37 L-12,37 L-12,41 L-15,41 L-15,39 L-16,39 L-16,36 L-17,36 L-17,33 L-18,33 L-18,30 L-17,30 L-17,29 L-15,29 L-15,26 L-16,26 L-16,23 L-17,23 L-17,21 L-20,21 L-20,22 L-22,22 L-22,23 L-25,23 L-25,24 L-27,24 L-27,25 L-30,25 L-30,26 L-31,26 L-31,29 L-32,29 L-32,28 L-33,28 L-33,32 L-32,32 L-32,34 L-31,34 L-31,36 L-30,36 L-30,37 L-29,37 L-29,38 L-26,38 L-26,34 L-25,34 L-25,36 L-24,36 L-24,40 L-29,40 L-29,39 L-30,39 L-30,38 L-31,38 L-31,37 L-32,37 L-32,36 L-33,36 L-33,34 L-34,34 L-34,31 L-35,31 L-35,24 L-34,24 L-34,20 L-33,20 L-33,18 L-32,18 L-32,17 L-31,17 L-31,16 L-30,16 L-30,15 L-26,15 L-26,16 L-25,16 L-25,17 L-30,17 L-30,18 L-31,18 L-31,20 L-32,20 L-32,23 L-33,23 L-33,25 L-32,25 L-32,24 L-30,24 L-30,23 L-27,23 L-27,22 L-25,22 L-25,21 L-22,21 L-22,20 L-19,20 L-19,19 L-16,19 L-16,18 L-14,18 L-14,16 L-13,16 L-13,12 L-12,12 L-12,11 L-11,11 L-11,9 L-10,9 L-10,8 L-9,8 L-9,6 L-8,6 L-8,5 L-7,5 L-7,4 L-6,4 L-6,3 L-4,3 L-4,2 L-3,2 L-3,1 L0,1 Z " fill="#E3E7D9" transform="translate(95,124)"/>
<path d="M0,0 L14,0 L14,1 L17,1 L17,2 L18,2 L18,3 L20,3 L20,4 L21,4 L21,6 L22,6 L22,7 L23,7 L23,10 L21,10 L21,9 L19,9 L19,8 L8,8 L8,9 L7,9 L7,8 L1,8 L1,9 L0,9 L0,10 L-1,10 L-1,34 L-2,34 L-2,1 L0,1 Z " fill="#A4D53A" transform="translate(111,126)"/>
<path d="M0,0 L6,0 L6,1 L10,1 L10,2 L12,2 L12,3 L16,3 L16,2 L23,2 L23,5 L25,5 L25,11 L22,11 L22,12 L13,12 L13,11 L10,11 L10,10 L8,10 L8,9 L6,9 L6,8 L5,8 L5,7 L4,7 L4,6 L3,6 L3,5 L2,5 L2,4 L1,4 L1,2 L2,2 L2,1 L0,1 Z " fill="#4E9C1C" transform="translate(56,162)"/>
<path d="M0,0 L1,0 L1,2 L2,2 L2,1 L3,1 L3,6 L2,6 L2,8 L1,8 L1,9 L0,9 L0,10 L-4,10 L-4,11 L-5,11 L-5,12 L-6,12 L-6,13 L-8,13 L-8,14 L-10,14 L-10,15 L-16,15 L-16,14 L-18,14 L-18,13 L-20,13 L-20,12 L-21,12 L-21,11 L-22,11 L-22,14 L-21,14 L-21,17 L-22,17 L-22,18 L-25,18 L-25,19 L-35,19 L-35,18 L-39,18 L-39,17 L-41,17 L-41,16 L-43,16 L-43,15 L-44,15 L-44,14 L-46,14 L-46,13 L-47,13 L-47,12 L-48,12 L-48,11 L-49,11 L-49,10 L-50,10 L-50,8 L-51,8 L-51,7 L-52,7 L-52,6 L-53,6 L-53,7 L-54,7 L-54,8 L-55,8 L-55,9 L-57,9 L-57,10 L-59,10 L-59,11 L-60,11 L-60,8 L-59,8 L-59,7 L-57,7 L-57,6 L-56,6 L-56,5 L-55,5 L-55,4 L-53,4 L-53,5 L-52,5 L-52,4 L-51,4 L-51,5 L-50,5 L-50,7 L-49,7 L-49,8 L-48,8 L-48,9 L-47,9 L-47,10 L-46,10 L-46,11 L-45,11 L-45,12 L-44,12 L-44,13 L-43,13 L-43,14 L-41,14 L-41,15 L-39,15 L-39,16 L-36,16 L-36,17 L-27,17 L-27,16 L-24,16 L-24,10 L-25,10 L-25,8 L-22,8 L-22,7 L-21,7 L-21,9 L-20,9 L-20,10 L-19,10 L-19,11 L-18,11 L-18,12 L-16,12 L-16,13 L-10,13 L-10,12 L-8,12 L-8,11 L-7,11 L-7,10 L-6,10 L-6,9 L-5,9 L-5,8 L-4,8 L-4,7 L-3,7 L-3,6 L-2,6 L-2,5 L-1,5 L-1,3 L0,3 Z " fill="#CFD9C8" transform="translate(105,157)"/>
<path d="M0,0 L3,0 L3,2 L4,2 L4,5 L5,5 L5,15 L4,15 L4,19 L3,19 L3,21 L2,21 L2,23 L1,23 L1,25 L0,25 L0,27 L-1,27 L-1,28 L-2,28 L-2,29 L-3,29 L-3,30 L-4,30 L-4,31 L-5,31 L-5,32 L-6,32 L-6,33 L-7,33 L-7,34 L-11,34 L-11,35 L-14,35 L-14,33 L-12,33 L-12,32 L-11,32 L-11,31 L-10,31 L-10,30 L-9,30 L-9,29 L-8,29 L-8,28 L-7,28 L-7,27 L-6,27 L-6,25 L-5,25 L-5,23 L-4,23 L-4,22 L-3,22 L-3,20 L-2,20 L-2,16 L-1,16 L-1,13 L0,13 L0,5 L-1,5 L-1,1 L0,1 Z " fill="#8481BB" transform="translate(122,90)"/>
<path d="M0,0 L1,0 L1,2 L4,2 L4,3 L6,3 L6,4 L8,4 L8,5 L10,5 L10,6 L12,6 L12,8 L9,8 L9,10 L8,10 L8,12 L7,12 L7,13 L4,13 L4,15 L5,15 L5,16 L1,16 L1,15 L-1,15 L-1,14 L-3,14 L-3,13 L-6,13 L-6,14 L-8,14 L-8,15 L-9,15 L-9,16 L-10,16 L-10,15 L-14,15 L-14,19 L-13,19 L-13,20 L-15,20 L-15,19 L-16,19 L-16,18 L-17,18 L-17,16 L-16,16 L-16,15 L-15,15 L-15,14 L-14,14 L-14,13 L-15,13 L-15,12 L-16,12 L-16,11 L-17,11 L-17,10 L-7,10 L-7,9 L-5,9 L-5,10 L-3,10 L-3,11 L3,11 L3,10 L5,10 L5,9 L6,9 L6,7 L4,7 L4,6 L2,6 L2,5 L-1,5 L-1,6 L0,6 L0,9 L-4,9 L-4,6 L-3,6 L-3,5 L-4,5 L-4,3 L-2,3 L-2,1 L0,1 Z " fill="#386424" transform="translate(64,74)"/>
<path d="M0,0 L5,0 L5,7 L9,7 L9,6 L12,6 L12,5 L18,5 L18,6 L17,6 L17,12 L16,12 L16,13 L11,13 L11,14 L-2,14 L-2,7 L-1,7 L-1,3 L0,3 Z " fill="#69AE24" transform="translate(136,151)"/>
<path d="M0,0 L1,0 L1,3 L0,3 L0,5 L-1,5 L-1,7 L-2,7 L-2,9 L-3,9 L-3,10 L-4,10 L-4,11 L-5,11 L-5,10 L-7,10 L-7,11 L-12,11 L-12,12 L-14,12 L-14,13 L-16,13 L-16,14 L-17,14 L-17,15 L-13,15 L-13,14 L-12,14 L-12,13 L-6,13 L-6,14 L-7,14 L-7,15 L-8,15 L-8,16 L-10,16 L-10,17 L-17,17 L-17,18 L-19,18 L-19,17 L-20,17 L-20,13 L-21,13 L-21,12 L-22,12 L-22,11 L-23,11 L-23,9 L-24,9 L-24,7 L-25,7 L-25,5 L-23,5 L-23,6 L-22,6 L-22,7 L-10,7 L-10,6 L-8,6 L-8,5 L-6,5 L-6,4 L-5,4 L-5,3 L-2,3 L-2,2 L-1,2 L-1,1 L0,1 Z " fill="#7D533B" transform="translate(106,31)"/>
<path d="M0,0 L1,0 L1,3 L0,3 L0,4 L-1,4 L-1,5 L-2,5 L-2,6 L-3,6 L-3,7 L-5,7 L-5,8 L-6,8 L-6,9 L-16,9 L-16,8 L-18,8 L-18,7 L-19,7 L-19,12 L-20,12 L-20,13 L-23,13 L-23,15 L-33,15 L-33,14 L-37,14 L-37,13 L-40,13 L-40,12 L-42,12 L-42,11 L-43,11 L-43,9 L-45,9 L-45,7 L-44,7 L-44,8 L-42,8 L-42,9 L-40,9 L-40,10 L-36,10 L-36,11 L-26,11 L-26,10 L-23,10 L-23,9 L-22,9 L-22,6 L-23,6 L-23,3 L-22,3 L-22,4 L-21,4 L-21,5 L-19,5 L-19,6 L-17,6 L-17,7 L-11,7 L-11,6 L-9,6 L-9,5 L-7,5 L-7,4 L-6,4 L-6,3 L-5,3 L-5,2 L-1,2 L-1,1 L0,1 Z " fill="#191703" transform="translate(106,165)"/>
<path d="M0,0 L1,0 L1,1 L2,1 L2,2 L3,2 L3,3 L4,3 L4,4 L5,4 L5,5 L6,5 L6,7 L7,7 L7,8 L8,8 L8,10 L9,10 L9,12 L10,12 L10,13 L11,13 L11,25 L12,25 L12,26 L13,26 L13,28 L14,28 L14,30 L15,30 L15,31 L16,31 L16,32 L17,32 L17,35 L16,35 L16,36 L13,36 L13,37 L6,37 L6,36 L3,36 L3,35 L1,35 L1,34 L-1,34 L-1,33 L-3,33 L-3,32 L-9,32 L-9,30 L-8,30 L-8,29 L2,29 L2,30 L4,30 L4,31 L6,31 L6,32 L7,32 L7,33 L9,33 L9,34 L13,34 L13,31 L12,31 L12,28 L11,28 L11,27 L10,27 L10,21 L9,21 L9,15 L8,15 L8,12 L7,12 L7,10 L6,10 L6,8 L5,8 L5,7 L4,7 L4,6 L3,6 L3,4 L2,4 L2,3 L1,3 L1,2 L0,2 Z " fill="#E5DED1" transform="translate(118,43)"/>
<path d="M0,0 L3,0 L3,1 L4,1 L4,2 L5,2 L5,14 L4,14 L4,16 L3,16 L3,18 L2,18 L2,19 L1,19 L1,21 L-3,21 L-3,20 L-4,20 L-4,18 L-5,18 L-5,8 L-4,8 L-4,6 L-3,6 L-3,4 L-2,4 L-2,2 L-1,2 L-1,1 L0,1 Z " fill="#E5EBD5" transform="translate(94,140)"/>
<path d="M0,0 L2,0 L2,1 L3,1 L3,2 L5,2 L5,3 L6,3 L6,4 L8,4 L8,6 L2,6 L2,7 L1,7 L1,8 L-3,8 L-3,9 L-14,9 L-14,10 L-15,10 L-15,11 L-1,11 L-1,13 L0,13 L0,14 L-5,14 L-5,15 L-7,15 L-7,16 L-10,16 L-10,17 L-11,17 L-11,16 L-12,16 L-12,23 L-13,23 L-13,26 L-14,26 L-14,22 L-13,22 L-13,14 L-14,14 L-14,12 L-16,12 L-16,10 L-17,10 L-17,8 L-16,8 L-16,7 L-12,7 L-12,6 L-5,6 L-5,4 L-2,4 L-2,3 L0,3 Z " fill="#114E18" transform="translate(120,79)"/>
<path d="M0,0 L6,0 L6,1 L7,1 L7,2 L9,2 L9,6 L7,6 L7,7 L6,7 L6,11 L5,11 L5,14 L6,14 L6,18 L5,18 L5,20 L4,20 L4,25 L3,25 L3,24 L2,24 L2,23 L0,23 L0,19 L1,19 L1,18 L2,18 L2,16 L3,16 L3,15 L4,15 L4,12 L3,12 L3,11 L1,11 L1,10 L0,10 L0,8 L-1,8 L-1,7 L-4,7 L-4,6 L-7,6 L-7,7 L-8,7 L-8,11 L-9,11 L-9,5 L-8,5 L-8,4 L-6,4 L-6,3 L-3,3 L-3,2 L-1,2 L-1,1 L0,1 Z " fill="#71AE1A" transform="translate(45,126)"/>
<path d="M0,0 L1,0 L1,2 L0,2 L0,3 L-1,3 L-1,4 L-2,4 L-2,5 L-3,5 L-3,6 L-4,6 L-4,7 L-5,7 L-5,9 L-7,9 L-7,11 L-8,11 L-8,12 L-6,12 L-6,11 L-4,11 L-4,10 L-2,10 L-2,11 L-3,11 L-3,13 L3,13 L3,14 L5,14 L5,15 L7,15 L7,16 L9,16 L9,17 L6,17 L6,16 L4,16 L4,15 L2,15 L2,14 L-6,14 L-6,15 L-8,15 L-8,16 L-9,16 L-9,17 L-11,17 L-11,18 L-12,18 L-12,19 L-14,19 L-14,20 L-15,20 L-15,21 L-16,21 L-16,22 L-17,22 L-17,29 L-18,29 L-18,27 L-20,27 L-20,28 L-21,28 L-21,33 L-22,33 L-22,28 L-24,28 L-24,22 L-22,22 L-22,21 L-21,21 L-21,20 L-20,20 L-20,17 L-19,17 L-19,21 L-17,21 L-17,20 L-16,20 L-16,15 L-14,15 L-14,14 L-12,14 L-12,13 L-11,13 L-11,12 L-10,12 L-10,11 L-9,11 L-9,10 L-8,10 L-8,7 L-6,7 L-6,6 L-5,6 L-5,5 L-4,5 L-4,3 L-3,3 L-3,2 L-1,2 L-1,1 L0,1 Z " fill="#322540" transform="translate(112,62)"/>
<path d="M0,0 L2,0 L2,4 L-1,4 L-1,5 L-2,5 L-2,6 L-3,6 L-3,7 L-4,7 L-4,8 L-5,8 L-5,11 L-6,11 L-6,13 L-7,13 L-7,14 L-9,14 L-9,15 L-10,15 L-10,16 L-11,16 L-11,17 L-12,17 L-12,19 L-11,19 L-11,22 L-12,22 L-12,24 L-13,24 L-13,25 L-14,25 L-14,24 L-15,24 L-15,23 L-16,23 L-16,18 L-18,18 L-18,17 L-20,17 L-20,16 L-21,16 L-21,15 L-22,15 L-22,14 L-23,14 L-23,13 L-24,13 L-24,12 L-26,12 L-26,14 L-27,14 L-27,16 L-28,16 L-28,17 L-29,17 L-29,15 L-28,15 L-28,13 L-27,13 L-27,11 L-26,11 L-26,7 L-25,7 L-25,9 L-24,9 L-24,10 L-23,10 L-23,11 L-22,11 L-22,12 L-21,12 L-21,13 L-20,13 L-20,14 L-16,14 L-16,15 L-13,15 L-13,13 L-12,13 L-12,12 L-11,12 L-11,11 L-10,11 L-10,9 L-9,9 L-9,8 L-8,8 L-8,6 L-7,6 L-7,5 L-6,5 L-6,4 L-5,4 L-5,3 L-3,3 L-3,2 L-2,2 L-2,1 L0,1 Z " fill="#9588A4" transform="translate(111,39)"/>
<path d="M0,0 L1,0 L1,2 L2,2 L2,4 L3,4 L3,7 L4,7 L4,13 L3,13 L3,16 L5,16 L5,18 L6,18 L6,17 L7,17 L7,18 L8,18 L8,19 L10,19 L10,22 L9,22 L9,24 L8,24 L8,25 L-1,25 L-1,24 L-4,24 L-4,23 L-7,23 L-7,22 L-8,22 L-8,21 L-3,21 L-3,17 L-4,17 L-4,16 L-2,16 L-2,15 L0,15 L0,11 L1,11 L1,4 L0,4 Z " fill="#6F0F1D" transform="translate(97,99)"/>
<path d="M0,0 L4,0 L4,2 L1,2 L1,3 L12,3 L12,4 L13,4 L13,5 L18,5 L18,6 L19,6 L19,7 L20,7 L20,8 L22,8 L22,9 L23,9 L23,10 L24,10 L24,11 L25,11 L25,12 L26,12 L26,15 L25,15 L25,14 L23,14 L23,13 L21,13 L21,12 L18,12 L18,11 L17,11 L17,10 L15,10 L15,8 L13,8 L13,7 L11,7 L11,6 L6,6 L6,7 L-1,7 L-1,8 L-2,8 L-2,9 L-3,9 L-3,10 L-4,10 L-4,11 L-8,11 L-8,8 L-7,8 L-7,7 L-6,7 L-6,6 L-5,6 L-5,5 L-4,5 L-4,4 L-3,4 L-3,2 L-1,2 L-1,1 L0,1 Z " fill="#F1EEDA" transform="translate(89,13)"/>
<path d="M0,0 L2,0 L2,7 L1,7 L1,8 L0,8 L0,10 L-1,10 L-1,12 L-2,12 L-2,13 L-3,13 L-3,15 L-4,15 L-4,16 L-5,16 L-5,17 L-6,17 L-6,18 L-7,18 L-7,19 L-9,19 L-9,20 L-11,20 L-11,21 L-21,21 L-21,20 L-22,20 L-22,19 L-24,19 L-24,17 L-17,17 L-17,16 L-14,16 L-14,15 L-12,15 L-12,14 L-10,14 L-10,13 L-9,13 L-9,12 L-8,12 L-8,11 L-6,11 L-6,10 L-5,10 L-5,9 L-4,9 L-4,8 L-3,8 L-3,6 L-2,6 L-2,5 L-1,5 L-1,2 L0,2 Z " fill="#D4D0D4" transform="translate(88,90)"/>
<path d="M0,0 L3,0 L3,3 L4,3 L4,4 L10,4 L10,17 L9,17 L9,18 L6,18 L6,30 L5,30 L5,20 L3,20 L3,21 L-2,21 L-2,22 L-4,22 L-4,16 L-3,16 L-3,15 L6,15 L6,14 L7,14 L7,9 L8,9 L8,6 L2,6 L2,7 L0,7 L0,6 L-1,6 L-1,5 L-3,5 L-3,4 L-2,4 L-2,3 L-1,3 L-1,1 L0,1 Z " fill="#DFDAD5" transform="translate(148,118)"/>
<path d="M0,0 L1,0 L1,1 L2,1 L2,2 L4,2 L4,3 L14,3 L14,2 L19,2 L19,1 L22,1 L22,0 L30,0 L30,1 L31,1 L31,5 L23,5 L23,6 L21,6 L21,7 L2,7 L2,6 L1,6 L1,3 L0,3 Z " fill="#AA3F23" transform="translate(47,92)"/>
<path d="M0,0 L6,0 L6,1 L11,1 L11,3 L12,3 L12,7 L11,7 L11,9 L10,9 L10,10 L8,10 L8,11 L6,11 L6,12 L5,12 L5,16 L3,16 L3,12 L-5,12 L-5,11 L-6,11 L-6,9 L-5,9 L-5,7 L-3,7 L-3,8 L2,8 L2,1 L0,1 Z " fill="#8DC34F" transform="translate(38,152)"/>
<path d="M0,0 L8,0 L8,1 L7,1 L7,2 L6,2 L6,4 L8,4 L8,5 L7,5 L7,6 L6,6 L6,7 L7,7 L7,9 L9,9 L9,10 L6,10 L6,12 L7,12 L7,18 L8,18 L8,21 L9,21 L9,22 L12,22 L12,20 L13,20 L13,19 L14,19 L14,18 L15,18 L15,17 L18,17 L18,16 L19,16 L19,15 L20,15 L20,14 L21,14 L21,13 L24,13 L24,14 L23,14 L23,15 L22,15 L22,16 L20,16 L20,17 L19,17 L19,18 L20,18 L20,19 L21,19 L21,20 L22,20 L22,28 L20,28 L20,23 L19,23 L19,22 L18,22 L18,21 L14,21 L14,22 L15,22 L15,23 L14,23 L14,24 L11,24 L11,25 L10,25 L10,26 L9,26 L9,27 L8,27 L8,26 L7,26 L7,21 L6,21 L6,16 L5,16 L5,12 L4,12 L4,9 L3,9 L3,8 L2,8 L2,6 L5,6 L5,1 L0,1 Z " fill="#967640" transform="translate(129,85)"/>
<path d="M0,0 L1,0 L1,4 L0,4 L0,5 L-1,5 L-1,6 L-2,6 L-2,7 L-3,7 L-3,8 L-6,8 L-6,9 L-7,9 L-7,10 L-9,10 L-9,11 L-11,11 L-11,12 L-10,12 L-10,13 L-13,13 L-13,14 L-14,14 L-14,18 L-13,18 L-13,26 L-14,26 L-14,29 L-15,29 L-15,15 L-16,15 L-16,13 L-30,13 L-30,12 L-29,12 L-29,11 L-18,11 L-18,10 L-14,10 L-14,9 L-13,9 L-13,8 L-7,8 L-7,6 L-9,6 L-9,5 L-10,5 L-10,4 L-12,4 L-12,3 L-13,3 L-13,2 L-11,2 L-11,3 L-4,3 L-4,2 L-1,2 L-1,1 L0,1 Z " fill="#594E7E" transform="translate(135,77)"/>
<path d="M0,0 L1,0 L1,2 L7,2 L7,8 L8,8 L8,10 L9,10 L9,13 L10,13 L10,15 L11,15 L11,16 L12,16 L12,17 L13,17 L13,18 L10,18 L10,17 L4,17 L4,18 L6,18 L6,19 L5,19 L5,20 L4,20 L4,19 L3,19 L3,17 L2,17 L2,15 L1,15 L1,12 L0,12 Z " fill="#77B728" transform="translate(52,145)"/>
<path d="M0,0 L2,0 L2,1 L3,1 L3,2 L4,2 L4,3 L5,3 L5,4 L9,4 L9,5 L12,5 L12,4 L14,4 L14,3 L19,3 L19,4 L20,4 L20,5 L21,5 L21,6 L22,6 L22,12 L21,12 L21,13 L19,13 L19,9 L18,9 L18,12 L17,12 L17,13 L12,13 L12,14 L10,14 L10,12 L11,12 L11,11 L9,11 L9,12 L8,12 L8,10 L9,10 L9,9 L10,9 L10,7 L9,7 L9,8 L7,8 L7,6 L5,6 L5,5 L4,5 L4,4 L3,4 L3,3 L2,3 L2,2 L1,2 L1,1 L0,1 Z " fill="#8CA22F" transform="translate(74,70)"/>
<path d="M0,0 L1,0 L1,1 L15,1 L15,2 L14,2 L14,3 L8,3 L8,6 L7,6 L7,13 L6,13 L6,16 L4,16 L4,17 L0,17 Z " fill="#67AD25" transform="translate(110,153)"/>
<path d="M0,0 L5,0 L5,1 L7,1 L7,2 L9,2 L9,3 L4,3 L4,4 L2,4 L2,5 L1,5 L1,6 L0,6 L0,7 L-1,7 L-1,8 L-2,8 L-2,9 L-3,9 L-3,10 L-4,10 L-4,9 L-6,9 L-6,10 L-7,10 L-7,9 L-8,9 L-8,8 L-11,8 L-11,7 L-13,7 L-13,12 L-14,12 L-14,11 L-15,11 L-15,3 L-14,3 L-14,5 L-10,5 L-10,4 L-9,4 L-9,3 L-8,3 L-8,2 L-7,2 L-7,1 L0,1 Z " fill="#3F851E" transform="translate(95,19)"/>
<path d="M0,0 L4,0 L4,1 L5,1 L5,2 L6,2 L6,8 L7,8 L7,12 L5,12 L5,13 L2,13 L2,14 L-1,14 L-1,15 L-4,15 L-4,16 L-6,16 L-6,17 L-9,17 L-9,18 L-11,18 L-11,19 L-12,19 L-12,17 L-11,17 L-11,14 L-10,14 L-10,12 L-9,12 L-9,11 L-5,11 L-5,12 L-3,12 L-3,13 L-1,13 L-1,11 L0,11 L0,9 L1,9 L1,7 L2,7 L2,2 L1,2 L1,1 L0,1 Z " fill="#658C23" transform="translate(74,130)"/>
<path d="M0,0 L1,0 L1,1 L2,1 L2,2 L1,2 L1,3 L0,3 L0,4 L-1,4 L-1,5 L-2,5 L-2,6 L-3,6 L-3,7 L-2,7 L-2,8 L-4,8 L-4,9 L-5,9 L-5,11 L-6,11 L-6,12 L-7,12 L-7,14 L-9,14 L-9,13 L-14,13 L-14,14 L-16,14 L-16,15 L-19,15 L-19,14 L-20,14 L-20,18 L-24,18 L-24,19 L-22,19 L-22,21 L-33,21 L-33,22 L-34,22 L-34,20 L-32,20 L-32,19 L-30,19 L-30,18 L-29,18 L-29,16 L-28,16 L-28,15 L-27,15 L-27,14 L-26,14 L-26,13 L-25,13 L-25,12 L-20,12 L-20,13 L-18,13 L-18,14 L-17,14 L-17,13 L-15,13 L-15,12 L-8,12 L-8,11 L-7,11 L-7,9 L-6,9 L-6,8 L-5,8 L-5,7 L-4,7 L-4,5 L-3,5 L-3,4 L-2,4 L-2,3 L-1,3 L-1,2 L0,2 Z " fill="#889B2D" transform="translate(81,56)"/>
<path d="M0,0 L1,0 L1,4 L2,4 L2,6 L3,6 L3,8 L4,8 L4,10 L5,10 L5,11 L6,11 L6,13 L7,13 L7,15 L8,15 L8,21 L7,21 L7,22 L3,22 L3,13 L2,13 L2,14 L1,14 L1,15 L0,15 L0,14 L-1,14 L-1,8 L-2,8 L-2,7 L-3,7 L-3,6 L-4,6 L-4,5 L-5,5 L-5,4 L-4,4 L-4,3 L-2,3 L-2,2 L-1,2 L-1,1 L0,1 Z " fill="#50091F" transform="translate(153,98)"/>
<path d="M0,0 L3,0 L3,1 L5,1 L5,14 L4,14 L4,17 L2,17 L2,18 L-1,18 L-1,19 L-2,19 L-2,11 L-1,11 L-1,7 L-2,7 L-2,5 L-1,5 L-1,3 L0,3 Z " fill="#E12618" transform="translate(91,96)"/>
<path d="M0,0 L7,0 L7,1 L4,1 L4,2 L-1,2 L-1,7 L4,7 L4,6 L11,6 L11,10 L10,10 L10,15 L9,15 L9,17 L8,17 L8,18 L-1,18 L-1,19 L-12,19 L-12,18 L-4,18 L-4,17 L2,17 L2,16 L7,16 L7,15 L8,15 L8,9 L9,9 L9,8 L3,8 L3,9 L0,9 L0,10 L-4,10 L-4,5 L-3,5 L-3,1 L0,1 Z " fill="#E0EACE" transform="translate(145,148)"/>
<path d="M0,0 L5,0 L5,1 L7,1 L7,2 L8,2 L8,3 L9,3 L9,9 L8,9 L8,10 L7,10 L7,11 L6,11 L6,12 L5,12 L5,13 L-1,13 L-1,7 L0,7 Z " fill="#E4ECCE" transform="translate(120,137)"/>
<path d="M0,0 L3,0 L3,2 L4,2 L4,5 L5,5 L5,8 L3,8 L3,6 L-10,6 L-10,10 L-9,10 L-9,12 L-8,12 L-8,11 L-5,11 L-5,13 L-6,13 L-6,17 L-9,17 L-9,16 L-10,16 L-10,15 L-11,15 L-11,13 L-12,13 L-12,11 L-13,11 L-13,7 L-12,7 L-12,8 L-11,8 L-11,5 L-10,5 L-10,4 L-7,4 L-7,3 L-5,3 L-5,2 L-2,2 L-2,1 L0,1 Z " fill="#8CC534" transform="translate(75,145)"/>
<path d="M0,0 L3,0 L3,1 L4,1 L4,3 L5,3 L5,4 L8,4 L8,5 L11,5 L11,6 L10,6 L10,7 L7,7 L7,8 L6,8 L6,9 L4,9 L4,10 L3,10 L3,11 L2,11 L2,12 L1,12 L1,13 L0,13 L0,12 L-1,12 L-1,10 L-3,10 L-3,9 L-4,9 L-4,8 L-5,8 L-5,7 L-7,7 L-7,6 L-6,6 L-6,5 L-5,5 L-5,4 L-3,4 L-3,3 L-1,3 L-1,2 L0,2 Z " fill="#AB442F" transform="translate(85,118)"/>
<path d="M0,0 L2,0 L2,1 L3,1 L3,2 L5,2 L5,3 L7,3 L7,4 L9,4 L9,5 L8,5 L8,6 L7,6 L7,7 L2,7 L2,9 L1,9 L1,10 L0,10 L0,11 L-3,11 L-3,9 L-4,9 L-4,10 L-5,10 L-5,11 L-11,11 L-11,10 L-10,10 L-10,9 L-8,9 L-8,8 L-7,8 L-7,7 L-6,7 L-6,6 L-5,6 L-5,4 L-4,4 L-4,3 L-2,3 L-2,2 L-1,2 L-1,1 L0,1 Z " fill="#0C0A0A" transform="translate(71,118)"/>
<path d="M0,0 L13,0 L13,1 L14,1 L14,0 L15,0 L15,4 L12,4 L12,5 L8,5 L8,6 L5,6 L5,10 L4,10 L4,8 L-1,8 L-1,11 L-2,11 L-2,7 L-1,7 L-1,2 L0,2 Z " fill="#8FC82E" transform="translate(137,143)"/>
<path d="M0,0 L1,0 L1,1 L2,1 L2,2 L3,2 L3,3 L4,3 L4,5 L3,5 L3,6 L5,6 L5,7 L6,7 L6,8 L7,8 L7,11 L8,11 L8,12 L9,12 L9,21 L8,21 L8,23 L7,23 L7,24 L5,24 L5,26 L4,26 L4,23 L1,23 L1,22 L0,22 L0,16 L-1,16 L-1,15 L-2,15 L-2,14 L-3,14 L-3,7 L-2,7 L-2,13 L-1,13 L-1,14 L0,14 L0,13 L1,13 L1,12 L2,12 L2,21 L6,21 L6,20 L7,20 L7,14 L6,14 L6,12 L5,12 L5,10 L4,10 L4,9 L3,9 L3,7 L2,7 L2,5 L1,5 L1,3 L0,3 Z " fill="#47284C" transform="translate(154,99)"/>
<path d="M0,0 L1,0 L1,3 L0,3 L0,7 L2,7 L2,10 L1,10 L1,12 L-1,12 L-1,13 L0,13 L0,14 L-1,14 L-1,17 L-2,17 L-2,18 L-3,18 L-3,19 L-5,19 L-5,20 L-6,20 L-6,19 L-7,19 L-7,18 L-8,18 L-8,17 L-14,17 L-14,16 L-11,16 L-11,15 L-10,15 L-10,14 L-9,14 L-9,13 L-7,13 L-7,12 L-6,12 L-6,11 L-5,11 L-5,10 L-4,10 L-4,9 L-3,9 L-3,7 L-2,7 L-2,4 L-1,4 L-1,2 L0,2 Z " fill="#C55630" transform="translate(62,105)"/>
<path d="M0,0 L7,0 L7,1 L8,1 L8,2 L9,2 L9,3 L11,3 L11,5 L12,5 L12,6 L13,6 L13,7 L12,7 L12,8 L11,8 L11,10 L10,10 L10,11 L9,11 L9,15 L8,15 L8,13 L7,13 L7,7 L6,7 L6,6 L5,6 L5,5 L1,5 L1,6 L-1,6 L-1,5 L-5,5 L-5,4 L-2,4 L-2,3 L-1,3 L-1,2 L0,2 Z " fill="#E1DBC7" transform="translate(73,125)"/>
<path d="M0,0 L7,0 L7,1 L8,1 L8,2 L9,2 L9,3 L10,3 L10,5 L11,5 L11,8 L12,8 L12,9 L10,9 L10,10 L9,10 L9,11 L8,11 L8,13 L7,13 L7,14 L6,14 L6,16 L5,16 L5,18 L3,18 L3,15 L4,15 L4,11 L5,11 L5,10 L7,10 L7,6 L5,6 L5,5 L4,5 L4,4 L-2,4 L-2,2 L-1,2 L-1,1 L0,1 Z " fill="#757AA2" transform="translate(47,122)"/>
<path d="M0,0 L1,0 L1,1 L2,1 L2,3 L3,3 L3,4 L4,4 L4,5 L5,5 L5,9 L4,9 L4,10 L3,10 L3,11 L0,11 L0,12 L-1,12 L-1,13 L-3,13 L-3,14 L-6,14 L-6,13 L-8,13 L-8,12 L-7,12 L-7,11 L-6,11 L-6,10 L-5,10 L-5,8 L-4,8 L-4,7 L-3,7 L-3,3 L-2,3 L-2,2 L-1,2 L-1,1 L0,1 Z " fill="#090507" transform="translate(89,61)"/>
<path d="M0,0 L1,0 L1,2 L2,2 L2,10 L1,10 L1,11 L-1,11 L-1,12 L-4,12 L-4,13 L-5,13 L-5,14 L-3,14 L-3,16 L-4,16 L-4,18 L-6,18 L-6,20 L-7,20 L-7,21 L-8,21 L-8,20 L-9,20 L-9,19 L-11,19 L-11,17 L-10,17 L-10,16 L-9,16 L-9,14 L-8,14 L-8,13 L-6,13 L-6,12 L-7,12 L-7,11 L-6,11 L-6,10 L-5,10 L-5,9 L-4,9 L-4,8 L-3,8 L-3,7 L-2,7 L-2,6 L-3,6 L-3,5 L-2,5 L-2,4 L-1,4 L-1,2 L0,2 Z " fill="#C92013" transform="translate(85,51)"/>
<path d="M0,0 L1,0 L1,10 L0,10 L0,17 L7,17 L7,18 L-1,18 L-1,19 L-2,19 L-2,9 L-3,9 L-3,10 L-6,10 L-6,11 L-13,11 L-13,17 L-14,17 L-14,18 L-16,18 L-16,16 L-15,16 L-15,10 L-10,10 L-10,9 L-6,9 L-6,8 L-4,8 L-4,7 L-3,7 L-3,4 L-2,4 L-2,3 L-1,3 L-1,1 L0,1 Z " fill="#DCE1CA" transform="translate(134,148)"/>
<path d="M0,0 L5,0 L5,1 L7,1 L7,3 L15,3 L15,10 L14,10 L14,12 L13,12 L13,13 L12,13 L12,14 L11,14 L11,15 L9,15 L9,12 L10,12 L10,10 L11,10 L11,7 L10,7 L10,6 L7,6 L7,7 L6,7 L6,8 L5,8 L5,10 L1,10 L1,9 L3,9 L3,8 L4,8 L4,6 L5,6 L5,4 L6,4 L6,3 L5,3 L5,2 L-1,2 L-1,1 L0,1 Z " fill="#58AF13" transform="translate(98,24)"/>
<path d="M0,0 L5,0 L5,14 L4,14 L4,15 L3,15 L3,16 L2,16 L2,17 L1,17 L1,18 L0,18 L0,7 L-1,7 L-1,3 L-2,3 L-2,1 L0,1 Z " fill="#B80B0F" transform="translate(115,93)"/>
<path d="M0,0 L3,0 L3,3 L4,3 L4,6 L5,6 L5,13 L6,13 L6,22 L4,22 L4,21 L1,21 L1,3 L0,3 Z " fill="#4B920E" transform="translate(127,91)"/>
<path d="M0,0 L8,0 L8,1 L10,1 L10,4 L8,4 L8,5 L3,5 L3,6 L0,6 L0,7 L-1,7 L-1,8 L-5,8 L-5,9 L-7,9 L-7,11 L-9,11 L-9,8 L-8,8 L-8,7 L-7,7 L-7,6 L-5,6 L-5,5 L-4,5 L-4,4 L-3,4 L-3,2 L-2,2 L-2,1 L0,1 Z " fill="#B9F214" transform="translate(106,76)"/>
<path d="M0,0 L3,0 L3,2 L4,2 L4,13 L3,13 L3,17 L2,17 L2,19 L1,19 L1,21 L0,21 L0,22 L-2,22 L-2,16 L-1,16 L-1,13 L0,13 L0,5 L-1,5 L-1,1 L0,1 Z " fill="#F7F0D2" transform="translate(122,90)"/>
<path d="M0,0 L2,0 L2,1 L4,1 L4,4 L2,4 L2,5 L-1,5 L-1,7 L-14,7 L-14,8 L-15,8 L-15,9 L-16,9 L-16,11 L-20,11 L-20,5 L-19,5 L-19,4 L-18,4 L-18,3 L-16,3 L-16,2 L-15,2 L-15,1 L-13,1 L-13,2 L-14,2 L-14,3 L-15,3 L-15,4 L-17,4 L-17,5 L-18,5 L-18,6 L-19,6 L-19,9 L-17,9 L-17,7 L-15,7 L-15,6 L-11,6 L-11,5 L-10,5 L-10,4 L-7,4 L-7,3 L-2,3 L-2,2 L0,2 Z " fill="#57BA0A" transform="translate(116,78)"/>
<path d="M0,0 L2,0 L2,7 L1,7 L1,8 L0,8 L0,12 L-4,12 L-4,13 L-8,13 L-8,14 L-19,14 L-19,12 L-14,12 L-14,11 L-12,11 L-12,10 L-4,10 L-4,6 L-5,6 L-5,5 L-3,5 L-3,10 L-2,10 L-2,6 L0,6 Z " fill="#184E13" transform="translate(82,87)"/>
<path d="M0,0 L1,0 L1,1 L4,1 L4,3 L5,3 L5,5 L8,5 L8,6 L10,6 L10,7 L11,7 L11,8 L12,8 L12,9 L14,9 L14,10 L15,10 L15,11 L17,11 L17,12 L19,12 L19,14 L14,14 L14,13 L11,13 L11,12 L10,12 L10,11 L8,11 L8,9 L7,9 L7,7 L6,7 L6,10 L5,10 L5,8 L4,8 L4,7 L3,7 L3,6 L2,6 L2,5 L1,5 L1,4 L-1,4 L-1,3 L-2,3 L-2,2 L-1,2 L-1,1 L0,1 Z " fill="#67122E" transform="translate(110,17)"/>
<path d="M0,0 L1,0 L1,1 L2,1 L2,7 L1,7 L1,11 L0,11 L0,12 L-1,12 L-1,13 L-2,13 L-2,14 L-10,14 L-10,15 L-22,15 L-22,13 L-23,13 L-23,12 L-2,12 L-2,11 L-1,11 L-1,6 L0,6 Z " fill="#371A00" transform="translate(157,156)"/>
<path d="M0,0 L1,0 L1,1 L2,1 L2,12 L1,12 L1,14 L0,14 L0,16 L-1,16 L-1,17 L-3,17 L-3,16 L-4,16 L-4,6 L-3,6 L-3,4 L-2,4 L-2,2 L-1,2 L-1,1 L0,1 Z " fill="#483F12" transform="translate(95,142)"/>
<path d="M0,0 L3,0 L3,1 L4,1 L4,4 L3,4 L3,6 L2,6 L2,7 L1,7 L1,9 L0,9 L0,11 L-1,11 L-1,12 L-2,12 L-2,13 L-3,13 L-3,15 L-4,15 L-4,16 L-5,16 L-5,17 L-6,17 L-6,18 L-8,18 L-8,19 L-11,19 L-11,20 L-15,20 L-15,19 L-16,19 L-16,18 L-9,18 L-9,17 L-7,17 L-7,16 L-6,16 L-6,15 L-5,15 L-5,14 L-11,14 L-11,15 L-12,15 L-12,16 L-16,16 L-16,15 L-15,15 L-15,14 L-13,14 L-13,13 L-11,13 L-11,12 L-6,12 L-6,11 L-4,11 L-4,12 L-3,12 L-3,11 L-2,11 L-2,10 L-1,10 L-1,8 L0,8 L0,6 L1,6 L1,4 L2,4 L2,1 L1,1 L1,2 L0,2 L0,3 L-1,3 L-1,4 L-2,4 L-2,2 L-1,2 L-1,1 L0,1 Z " fill="#9C5924" transform="translate(105,30)"/>
<path d="M0,0 L5,0 L5,1 L7,1 L7,2 L8,2 L8,3 L9,3 L9,4 L10,4 L10,5 L11,5 L11,6 L12,6 L12,7 L14,7 L14,9 L16,9 L16,8 L17,8 L17,10 L16,10 L16,11 L15,11 L15,13 L14,13 L14,11 L13,11 L13,14 L14,14 L14,16 L12,16 L12,14 L11,14 L11,12 L10,12 L10,8 L9,8 L9,7 L8,7 L8,4 L7,4 L7,3 L6,3 L6,2 L4,2 L4,1 L1,1 L1,4 L3,4 L3,5 L6,5 L6,6 L7,6 L7,7 L4,7 L4,6 L2,6 L2,5 L-1,5 L-1,4 L-2,4 L-2,1 L0,1 Z " fill="#237112" transform="translate(67,69)"/>
<path d="M0,0 L1,0 L1,3 L-5,3 L-5,4 L-8,4 L-8,5 L-9,5 L-9,16 L-11,16 L-11,17 L-20,17 L-20,16 L-21,16 L-21,15 L-15,15 L-15,14 L-14,14 L-14,13 L-13,13 L-13,9 L-11,9 L-11,8 L-10,8 L-10,2 L-3,2 L-3,1 L0,1 Z " fill="#372D04" transform="translate(131,157)"/>
<path d="M0,0 L4,0 L4,2 L5,2 L5,4 L4,4 L4,10 L2,10 L2,11 L1,11 L1,12 L-1,12 L-1,16 L-2,16 L-2,17 L-4,17 L-4,18 L-6,18 L-6,17 L-9,17 L-9,16 L-7,16 L-7,15 L-6,15 L-6,14 L-7,14 L-7,13 L-6,13 L-6,12 L-5,12 L-5,11 L-4,11 L-4,10 L-3,10 L-3,9 L-1,9 L-1,8 L1,8 L1,7 L2,7 L2,6 L1,6 L1,5 L3,5 L3,4 L1,4 L1,3 L2,3 L2,2 L3,2 L3,1 L0,1 Z " fill="#EB3219" transform="translate(111,44)"/>
<path d="M0,0 L1,0 L1,5 L2,5 L2,12 L1,12 L1,16 L-1,16 L-1,17 L-3,17 L-3,18 L-2,18 L-2,22 L-7,22 L-7,21 L-8,21 L-8,20 L-10,20 L-10,17 L-8,17 L-8,10 L-7,10 L-7,17 L-6,17 L-6,16 L-3,16 L-3,15 L-1,15 L-1,12 L0,12 Z " fill="#A00C11" transform="translate(96,98)"/>
<path d="M0,0 L2,0 L2,1 L6,1 L6,3 L7,3 L7,4 L8,4 L8,3 L10,3 L10,6 L9,6 L9,7 L8,7 L8,10 L9,10 L9,8 L10,8 L10,7 L11,7 L11,5 L12,5 L12,7 L13,7 L13,8 L12,8 L12,9 L11,9 L11,10 L10,10 L10,11 L8,11 L8,13 L7,13 L7,17 L6,17 L6,16 L5,16 L5,15 L4,15 L4,14 L3,14 L3,13 L1,13 L1,12 L5,12 L5,11 L6,11 L6,9 L7,9 L7,6 L5,6 L5,5 L4,5 L4,4 L3,4 L3,5 L2,5 L2,3 L0,3 Z " fill="#433D7B" transform="translate(100,112)"/>
<path d="M0,0 L2,0 L2,1 L5,1 L5,2 L18,2 L18,1 L22,1 L22,0 L25,0 L25,1 L24,1 L24,2 L23,2 L23,3 L21,3 L21,4 L19,4 L19,5 L16,5 L16,6 L9,6 L9,7 L8,7 L8,4 L7,4 L7,6 L6,6 L6,4 L5,4 L5,3 L3,3 L3,2 L1,2 L1,1 L0,1 Z " fill="#213D64" transform="translate(55,101)"/>
<path d="M0,0 L3,0 L3,1 L8,1 L8,0 L10,0 L10,1 L9,1 L9,4 L13,4 L13,1 L12,1 L12,0 L15,0 L15,1 L17,1 L17,2 L19,2 L19,4 L18,4 L18,5 L16,5 L16,6 L10,6 L10,5 L8,5 L8,4 L6,4 L6,5 L-1,5 L-1,4 L0,4 L0,3 L1,3 L1,1 L0,1 Z " fill="#DAD7C9" transform="translate(51,79)"/>
<path d="M0,0 L1,0 L1,1 L2,1 L2,2 L3,2 L3,3 L4,3 L4,4 L5,4 L5,5 L6,5 L6,7 L7,7 L7,8 L8,8 L8,10 L9,10 L9,12 L10,12 L10,13 L11,13 L11,25 L12,25 L12,26 L13,26 L13,28 L14,28 L14,30 L15,30 L15,31 L14,31 L14,32 L15,32 L15,35 L10,35 L10,34 L13,34 L13,31 L12,31 L12,28 L11,28 L11,27 L10,27 L10,21 L9,21 L9,15 L8,15 L8,12 L7,12 L7,10 L6,10 L6,8 L5,8 L5,7 L4,7 L4,6 L3,6 L3,4 L2,4 L2,3 L1,3 L1,2 L0,2 Z " fill="#8C625B" transform="translate(118,43)"/>
<path d="M0,0 L2,0 L2,1 L4,1 L4,10 L3,10 L3,11 L2,11 L2,22 L1,22 L1,13 L0,13 L0,10 L-2,10 L-2,2 L-1,2 L-1,1 L0,1 Z " fill="#54B30D" transform="translate(102,90)"/>
<path d="M0,0 L2,0 L2,2 L3,2 L3,5 L1,5 L1,6 L0,6 L0,7 L-1,7 L-1,8 L-2,8 L-2,9 L-4,9 L-4,8 L-16,8 L-16,4 L-13,4 L-13,5 L-11,5 L-11,6 L-9,6 L-9,7 L-5,7 L-5,6 L-6,6 L-6,4 L-3,4 L-3,3 L-2,3 L-2,1 L0,1 Z " fill="#5CBA13" transform="translate(74,83)"/>
<path d="M0,0 L4,0 L4,2 L1,2 L1,3 L5,3 L5,4 L3,4 L3,6 L6,6 L6,7 L-1,7 L-1,8 L-2,8 L-2,9 L-3,9 L-3,10 L-4,10 L-4,11 L-8,11 L-8,8 L-7,8 L-7,7 L-6,7 L-6,6 L-5,6 L-5,5 L-4,5 L-4,4 L-3,4 L-3,2 L-1,2 L-1,1 L0,1 Z " fill="#ECE6CC" transform="translate(89,13)"/>
<path d="M0,0 L2,0 L2,1 L3,1 L3,2 L7,2 L7,1 L8,1 L8,2 L9,2 L9,3 L11,3 L11,4 L12,4 L12,5 L13,5 L13,6 L12,6 L12,7 L8,7 L8,6 L6,6 L6,5 L4,5 L4,4 L3,4 L3,3 L1,3 L1,4 L0,4 L0,5 L-1,5 L-1,6 L-3,6 L-3,7 L-4,7 L-4,9 L-5,9 L-5,10 L-6,10 L-6,11 L-7,11 L-7,12 L-9,12 L-9,13 L-10,13 L-10,14 L-9,14 L-9,15 L-12,15 L-12,12 L-10,12 L-10,11 L-8,11 L-8,10 L-7,10 L-7,9 L-6,9 L-6,8 L-5,8 L-5,6 L-4,6 L-4,5 L-2,5 L-2,4 L-1,4 L-1,3 L0,3 L0,2 L1,2 L1,1 L0,1 Z " fill="#454389" transform="translate(70,115)"/>
<path d="M0,0 L3,0 L3,1 L2,1 L2,2 L1,2 L1,3 L-1,3 L-1,4 L-2,4 L-2,5 L-1,5 L-1,6 L0,6 L0,7 L1,7 L1,15 L-1,15 L-1,10 L-2,10 L-2,9 L-3,9 L-3,8 L-7,8 L-7,9 L-6,9 L-6,10 L-7,10 L-7,11 L-10,11 L-10,12 L-12,12 L-12,11 L-11,11 L-11,10 L-9,10 L-9,7 L-8,7 L-8,6 L-7,6 L-7,5 L-6,5 L-6,4 L-3,4 L-3,3 L-2,3 L-2,2 L-1,2 L-1,1 L0,1 Z " fill="#DABF75" transform="translate(150,98)"/>
<path d="M0,0 L1,0 L1,1 L2,1 L2,2 L3,2 L3,8 L4,8 L4,9 L1,9 L1,8 L0,8 L0,5 L-3,5 L-3,6 L-4,6 L-4,8 L-5,8 L-5,9 L-6,9 L-6,10 L-10,10 L-10,8 L-9,8 L-9,7 L-8,7 L-8,6 L-7,6 L-7,5 L-6,5 L-6,3 L-5,3 L-5,2 L-2,2 L-2,1 L0,1 Z " fill="#121316" transform="translate(151,113)"/>
<path d="M0,0 L1,0 L1,2 L2,2 L2,3 L1,3 L1,7 L-3,7 L-3,8 L-9,8 L-9,10 L-5,10 L-5,9 L-1,9 L-1,21 L-2,21 L-2,11 L-4,11 L-4,12 L-9,12 L-9,13 L-11,13 L-11,7 L-10,7 L-10,6 L-1,6 L-1,5 L0,5 Z " fill="#EAF4D5" transform="translate(155,127)"/>
<path d="M0,0 L2,0 L2,1 L1,1 L1,2 L0,2 L0,3 L-1,3 L-1,4 L-2,4 L-2,5 L-4,5 L-4,6 L-6,6 L-6,7 L-16,7 L-16,6 L-17,6 L-17,5 L-19,5 L-19,3 L-12,3 L-12,2 L-9,2 L-9,4 L-4,4 L-4,3 L-2,3 L-2,1 L0,1 Z " fill="#6A70C1" transform="translate(83,104)"/>
<path d="M0,0 L2,0 L2,4 L1,4 L1,8 L0,8 L0,9 L-1,9 L-1,23 L-2,23 L-2,24 L-7,24 L-7,25 L-13,25 L-13,23 L-9,23 L-9,22 L-3,22 L-3,15 L-2,15 L-2,10 L-3,10 L-3,8 L-1,8 L-1,7 L0,7 Z " fill="#350601" transform="translate(159,129)"/>
<path d="M0,0 L1,0 L1,2 L0,2 L0,3 L-1,3 L-1,4 L-2,4 L-2,5 L-3,5 L-3,6 L-4,6 L-4,7 L-5,7 L-5,9 L-7,9 L-7,11 L-8,11 L-8,12 L-6,12 L-6,11 L-4,11 L-4,10 L-2,10 L-2,11 L-3,11 L-3,13 L3,13 L3,14 L5,14 L5,15 L7,15 L7,16 L9,16 L9,17 L6,17 L6,16 L4,16 L4,15 L2,15 L2,14 L-9,14 L-9,13 L-10,13 L-10,14 L-12,14 L-12,13 L-11,13 L-11,12 L-10,12 L-10,11 L-9,11 L-9,10 L-8,10 L-8,7 L-6,7 L-6,6 L-5,6 L-5,5 L-4,5 L-4,3 L-3,3 L-3,2 L-1,2 L-1,1 L0,1 Z " fill="#4B547E" transform="translate(112,62)"/>
<path d="M0,0 L7,0 L7,1 L8,1 L8,3 L9,3 L9,5 L8,5 L8,6 L7,6 L7,7 L-1,7 L-1,1 L0,1 Z " fill="#A399A5" transform="translate(131,24)"/>
<path d="M0,0 L5,0 L5,1 L7,1 L7,2 L8,2 L8,3 L11,3 L11,4 L13,4 L13,5 L6,5 L6,3 L4,3 L4,2 L-1,2 L-1,3 L-2,3 L-2,4 L4,4 L4,5 L5,5 L5,6 L4,6 L4,8 L3,8 L3,6 L2,6 L2,5 L-2,5 L-2,7 L-1,7 L-1,9 L-2,9 L-2,10 L-4,10 L-4,9 L-5,9 L-5,8 L-6,8 L-6,7 L-5,7 L-5,6 L-4,6 L-4,5 L-3,5 L-3,4 L-4,4 L-4,3 L-3,3 L-3,2 L-2,2 L-2,1 L0,1 Z " fill="#2E592D" transform="translate(99,22)"/>
<path d="M0,0 L1,0 L1,1 L2,1 L2,2 L3,2 L3,7 L2,7 L2,14 L-4,14 L-4,15 L-8,15 L-8,17 L-5,17 L-5,18 L-10,18 L-10,13 L-1,13 L-1,12 L0,12 Z " fill="#506B1E" transform="translate(154,137)"/>
<path d="M0,0 L1,0 L1,2 L2,2 L2,4 L4,4 L4,5 L5,5 L5,6 L8,6 L8,7 L13,7 L13,6 L14,6 L14,7 L21,7 L21,8 L20,8 L20,9 L16,9 L16,8 L6,8 L6,7 L4,7 L4,6 L3,6 L3,5 L0,5 L0,13 L-1,13 L-1,14 L-2,14 L-2,5 L-3,5 L-3,3 L-2,3 L-2,4 L-1,4 L-1,3 L0,3 Z " fill="#63587E" transform="translate(116,24)"/>
<path d="M0,0 L1,0 L1,1 L2,1 L2,0 L5,0 L5,1 L6,1 L6,5 L7,5 L7,8 L3,8 L3,6 L1,6 L1,8 L0,8 L0,11 L-1,11 L-1,18 L-2,18 L-2,10 L-1,10 L-1,7 L0,7 Z " fill="#454362" transform="translate(108,95)"/>
<path d="M0,0 L1,0 L1,2 L3,2 L3,15 L4,15 L4,17 L5,17 L5,21 L2,21 L2,19 L1,19 L1,16 L0,16 L0,13 L-1,13 L-1,10 L0,10 L0,9 L2,9 L2,6 L1,6 L1,3 L0,3 Z " fill="#F1F7EA" transform="translate(78,144)"/>
<path d="M0,0 L1,0 L1,1 L0,1 Z M-4,1 L0,1 L0,2 L-1,2 L-1,3 L-3,3 L-3,4 L-2,4 L-2,6 L0,6 L0,12 L-1,12 L-1,11 L-5,11 L-5,10 L-4,10 L-4,8 L-5,8 L-5,6 L-8,6 L-8,7 L-9,7 L-9,10 L-10,10 L-10,6 L-9,6 L-9,5 L-8,5 L-8,4 L-7,4 L-7,3 L-6,3 L-6,2 L-4,2 Z " fill="#AED861" transform="translate(40,137)"/>
<path d="M0,0 L1,0 L1,2 L3,2 L3,4 L4,4 L4,5 L5,5 L5,6 L6,6 L6,10 L4,10 L4,11 L2,11 L2,14 L1,14 L1,15 L0,15 L0,16 L-2,16 L-2,17 L-5,17 L-5,16 L-3,16 L-3,15 L-2,15 L-2,14 L-1,14 L-1,11 L0,11 L0,10 L-1,10 L-1,9 L1,9 L1,7 L2,7 L2,4 L0,4 Z " fill="#97090E" transform="translate(62,108)"/>
<path d="M0,0 L1,0 L1,3 L0,3 L0,5 L-1,5 L-1,7 L-2,7 L-2,9 L-3,9 L-3,10 L-4,10 L-4,11 L-5,11 L-5,10 L-7,10 L-7,11 L-12,11 L-12,12 L-14,12 L-14,13 L-16,13 L-16,14 L-19,14 L-19,12 L-20,12 L-20,11 L-21,11 L-21,10 L-18,10 L-18,11 L-14,11 L-14,10 L-9,10 L-9,9 L-7,9 L-7,8 L-6,8 L-6,7 L-4,7 L-4,6 L-3,6 L-3,5 L-2,5 L-2,4 L-1,4 L-1,3 L-2,3 L-2,2 L-1,2 L-1,1 L0,1 Z " fill="#1F0F15" transform="translate(106,31)"/>
<path d="M0,0 L2,0 L2,4 L-1,4 L-1,5 L-2,5 L-2,6 L-3,6 L-3,7 L-4,7 L-4,8 L-5,8 L-5,11 L-7,11 L-7,12 L-8,12 L-8,13 L-10,13 L-10,9 L-9,9 L-9,8 L-8,8 L-8,6 L-7,6 L-7,5 L-6,5 L-6,4 L-5,4 L-5,3 L-3,3 L-3,2 L-2,2 L-2,1 L0,1 Z " fill="#D4D4CB" transform="translate(111,39)"/>
<path d="M0,0 L2,0 L2,1 L4,1 L4,2 L5,2 L5,3 L7,3 L7,4 L8,4 L8,5 L9,5 L9,6 L12,6 L12,7 L13,7 L13,8 L14,8 L14,10 L15,10 L15,11 L17,11 L17,12 L18,12 L18,13 L21,13 L21,12 L22,12 L22,16 L21,16 L21,15 L19,15 L19,14 L17,14 L17,13 L16,13 L16,12 L14,12 L14,11 L13,11 L13,10 L12,10 L12,9 L10,9 L10,8 L7,8 L7,6 L6,6 L6,4 L3,4 L3,3 L2,3 L2,4 L1,4 L1,5 L0,5 L0,3 L1,3 L1,2 L0,2 Z " fill="#BA442C" transform="translate(108,14)"/>
<path d="M0,0 L3,0 L3,1 L5,1 L5,2 L6,2 L6,3 L7,3 L7,6 L8,6 L8,7 L9,7 L9,10 L6,10 L6,9 L4,9 L4,8 L2,8 L2,7 L0,7 L0,6 L-3,6 L-3,4 L1,4 L1,5 L3,5 L3,6 L6,6 L6,5 L5,5 L5,4 L2,4 L2,3 L0,3 Z " fill="#6AC717" transform="translate(68,70)"/>
<path d="M0,0 L1,0 L1,2 L2,2 L2,1 L3,1 L3,6 L2,6 L2,8 L1,8 L1,9 L0,9 L0,10 L-4,10 L-4,11 L-5,11 L-5,12 L-6,12 L-6,13 L-8,13 L-8,14 L-10,14 L-10,12 L-8,12 L-8,11 L-7,11 L-7,10 L-6,10 L-6,9 L-5,9 L-5,8 L-4,8 L-4,7 L-3,7 L-3,6 L-2,6 L-2,5 L-1,5 L-1,3 L0,3 Z " fill="#DBE9CC" transform="translate(105,157)"/>
<path d="M0,0 L1,0 L1,7 L0,7 L0,12 L-1,12 L-1,13 L-23,13 L-23,12 L-12,12 L-12,11 L-3,11 L-3,10 L-2,10 L-2,8 L-1,8 L-1,3 L0,3 Z " fill="#7BA420" transform="translate(156,155)"/>
<path d="M0,0 L2,0 L2,1 L4,1 L4,2 L13,2 L13,4 L11,4 L11,5 L10,5 L10,9 L8,9 L8,5 L0,5 L0,4 L-1,4 L-1,2 L0,2 Z " fill="#66AB2A" transform="translate(33,159)"/>
<path d="M0,0 L2,0 L2,6 L1,6 L1,7 L0,7 L0,9 L-1,9 L-1,10 L-2,10 L-2,11 L-3,11 L-3,12 L-5,12 L-5,11 L-6,11 L-6,9 L-5,9 L-5,7 L-3,7 L-3,5 L-2,5 L-2,3 L-4,3 L-4,2 L-3,2 L-3,1 L0,1 Z " fill="#730A20" transform="translate(84,62)"/>
<path d="M0,0 L2,0 L2,2 L3,2 L3,3 L2,3 L2,5 L1,5 L1,6 L-1,6 L-1,7 L-2,7 L-2,8 L-4,8 L-4,12 L-5,12 L-5,11 L-6,11 L-6,10 L-7,10 L-7,9 L-11,9 L-11,8 L-8,8 L-8,7 L-5,7 L-5,6 L-4,6 L-4,4 L-3,4 L-3,3 L-2,3 L-2,2 L-1,2 L-1,1 L0,1 Z " fill="#C33A2B" transform="translate(100,64)"/>
<path d="M0,0 L5,0 L5,1 L6,1 L6,2 L7,2 L7,3 L8,3 L8,9 L7,9 L7,10 L5,10 L5,6 L4,6 L4,5 L3,5 L3,4 L2,4 L2,3 L-1,3 L-1,1 L0,1 Z " fill="#C3C4D0" transform="translate(88,73)"/>
<path d="M0,0 L2,0 L2,1 L3,1 L3,2 L4,2 L4,4 L5,4 L5,5 L4,5 L4,6 L3,6 L3,7 L0,7 L0,8 L-3,8 L-3,7 L-5,7 L-5,6 L-4,6 L-4,5 L-3,5 L-3,3 L-2,3 L-2,2 L-1,2 L-1,1 L0,1 Z " fill="#89050E" transform="translate(121,56)"/>
<path d="M0,0 L2,0 L2,1 L13,1 L13,2 L14,2 L14,4 L5,4 L5,3 L2,3 L2,4 L3,4 L3,5 L1,5 L1,6 L-1,6 L-1,4 L0,4 Z " fill="#CEBFBF" transform="translate(119,34)"/>
<path d="M0,0 L3,0 L3,1 L2,1 L2,9 L4,9 L4,11 L3,11 L3,14 L4,14 L4,12 L7,12 L7,13 L5,13 L5,15 L6,15 L6,17 L7,17 L7,19 L8,19 L8,20 L9,20 L9,21 L10,21 L10,23 L9,23 L9,22 L8,22 L8,21 L7,21 L7,20 L6,20 L6,19 L5,19 L5,17 L4,17 L4,16 L3,16 L3,15 L2,15 L2,10 L1,10 L1,11 L0,11 L0,9 L1,9 L1,3 L0,3 Z " fill="#2B3422" transform="translate(76,23)"/>
<path d="M0,0 L1,0 L1,1 L3,1 L3,2 L5,2 L5,3 L9,3 L9,4 L6,4 L6,5 L9,5 L9,6 L22,6 L22,8 L12,8 L12,7 L8,7 L8,6 L5,6 L5,5 L3,5 L3,4 L2,4 L2,2 L0,2 Z " fill="#4B0F09" transform="translate(61,172)"/>
<path d="M0,0 L1,0 L1,6 L0,6 L0,4 L-1,4 L-1,5 L-4,5 L-4,6 L-11,6 L-11,12 L-12,12 L-12,13 L-14,13 L-14,11 L-13,11 L-13,5 L-8,5 L-8,4 L-4,4 L-4,3 L-2,3 L-2,2 L-1,2 L-1,1 L0,1 Z " fill="#8FB928" transform="translate(132,153)"/>
<path d="M0,0 L4,0 L4,1 L5,1 L5,2 L6,2 L6,8 L7,8 L7,12 L5,12 L5,13 L2,13 L2,10 L3,10 L3,8 L4,8 L4,4 L3,4 L3,3 L2,3 L2,2 L1,2 L1,1 L0,1 Z " fill="#223223" transform="translate(74,130)"/>
<path d="M0,0 L2,0 L2,1 L3,1 L3,2 L4,2 L4,1 L6,1 L6,2 L5,2 L5,3 L4,3 L4,4 L3,4 L3,5 L2,5 L2,6 L0,6 L0,7 L-1,7 L-1,8 L-7,8 L-7,7 L-6,7 L-6,6 L-4,6 L-4,5 L-3,5 L-3,4 L-2,4 L-2,3 L-1,3 L-1,1 L0,1 Z " fill="#343437" transform="translate(67,121)"/>
<path d="M0,0 L2,0 L2,1 L3,1 L3,0 L5,0 L5,2 L4,2 L4,3 L3,3 L3,4 L2,4 L2,5 L1,5 L1,6 L0,6 L0,7 L-4,7 L-4,8 L-7,8 L-7,6 L-5,6 L-5,5 L-4,5 L-4,4 L-3,4 L-3,3 L-2,3 L-2,2 L-1,2 L-1,1 L0,1 Z " fill="#6776C8" transform="translate(115,117)"/>
<path d="M0,0 L1,0 L1,1 L2,1 L2,2 L4,2 L4,5 L3,5 L3,7 L2,7 L2,8 L-5,8 L-5,6 L-4,6 L-4,5 L-2,5 L-2,2 L-1,2 L-1,1 L0,1 Z " fill="#55081A" transform="translate(103,116)"/>
<path d="M0,0 L1,0 L1,5 L3,5 L3,6 L1,6 L1,7 L-2,7 L-2,8 L-3,8 L-3,10 L-4,10 L-4,11 L-5,11 L-5,12 L-6,12 L-6,13 L-7,13 L-7,15 L-4,15 L-4,16 L-11,16 L-11,15 L-10,15 L-10,14 L-9,14 L-9,13 L-8,13 L-8,11 L-7,11 L-7,10 L-6,10 L-6,9 L-5,9 L-5,8 L-4,8 L-4,6 L-3,6 L-3,5 L-2,5 L-2,4 L-1,4 L-1,5 L0,5 Z " fill="#3A5C91" transform="translate(148,108)"/>
<path d="M0,0 L1,0 L1,1 L2,1 L2,2 L3,2 L3,5 L4,5 L4,7 L5,7 L5,10 L6,10 L6,14 L7,14 L7,22 L6,22 L6,16 L5,16 L5,13 L4,13 L4,11 L3,11 L3,9 L2,9 L2,8 L1,8 L1,4 L0,4 Z " fill="#154817" transform="translate(95,90)"/>
<path d="M0,0 L2,0 L2,1 L4,1 L4,2 L5,2 L5,3 L6,3 L6,5 L5,5 L5,6 L1,6 L1,7 L0,7 L0,8 L-1,8 L-1,6 L-4,6 L-4,8 L-5,8 L-5,5 L-4,5 L-4,4 L-3,4 L-3,5 L-2,5 L-2,4 L-1,4 L-1,1 L0,1 Z " fill="#728059" transform="translate(84,29)"/>
<path d="M0,0 L2,0 L2,2 L1,2 L1,5 L0,5 L0,6 L-1,6 L-1,7 L-3,7 L-3,8 L-6,8 L-6,7 L-8,7 L-8,6 L-7,6 L-7,5 L-6,5 L-6,4 L-5,4 L-5,2 L-4,2 L-4,1 L-3,1 L-3,2 L-2,2 L-2,1 L0,1 Z " fill="#191617" transform="translate(89,67)"/>
<path d="M0,0 L1,0 L1,1 L2,1 L2,0 L3,0 L3,3 L4,3 L4,5 L5,5 L5,4 L8,4 L8,6 L7,6 L7,10 L4,10 L4,9 L3,9 L3,8 L2,8 L2,6 L1,6 L1,4 L0,4 Z " fill="#E0EDC9" transform="translate(62,152)"/>
<path d="M0,0 L3,0 L3,1 L4,1 L4,2 L5,2 L5,7 L4,7 L4,8 L2,8 L2,9 L-1,9 L-1,5 L0,5 Z " fill="#461F13" transform="translate(122,139)"/>
<path d="M0,0 L2,0 L2,1 L3,1 L3,2 L4,2 L4,3 L6,3 L6,4 L9,4 L9,10 L8,10 L8,9 L7,9 L7,8 L6,8 L6,7 L5,7 L5,6 L4,6 L4,5 L2,5 L2,4 L-2,4 L-2,2 L-1,2 L-1,1 L0,1 Z " fill="#4C2D3D" transform="translate(126,121)"/>
<path d="M0,0 L1,0 L1,1 L2,1 L2,2 L3,2 L3,3 L4,3 L4,5 L5,5 L5,6 L6,6 L6,7 L7,7 L7,8 L8,8 L8,9 L6,9 L6,8 L5,8 L5,7 L4,7 L4,6 L2,6 L2,7 L1,7 L1,8 L0,8 L0,9 L-9,9 L-9,8 L-8,8 L-8,7 L-7,7 L-7,8 L-2,8 L-2,7 L-1,7 L-1,5 L0,5 Z " fill="#2B4A69" transform="translate(124,115)"/>
<path d="M0,0 L1,0 L1,4 L0,4 L0,5 L-1,5 L-1,6 L-9,6 L-9,5 L-10,5 L-10,4 L-12,4 L-12,3 L-13,3 L-13,2 L-11,2 L-11,3 L-4,3 L-4,2 L-1,2 L-1,1 L0,1 Z " fill="#6B73B6" transform="translate(135,77)"/>
<path d="M0,0 L4,0 L4,1 L5,1 L5,5 L4,5 L4,6 L-1,6 L-1,7 L-3,7 L-3,5 L-2,5 L-2,4 L-3,4 L-3,3 L-2,3 L-2,2 L0,2 Z " fill="#3C8E15" transform="translate(87,77)"/>
<path d="M0,0 L12,0 L12,3 L11,3 L11,4 L12,4 L12,6 L11,6 L11,5 L10,5 L10,4 L8,4 L8,3 L6,3 L6,2 L-4,2 L-4,1 L0,1 Z " fill="#9E2730" transform="translate(114,70)"/>
<path d="M0,0 L1,0 L1,7 L0,7 L0,9 L-1,9 L-1,10 L-2,10 L-2,11 L-3,11 L-3,12 L-5,12 L-5,9 L-4,9 L-4,7 L-3,7 L-3,4 L-4,4 L-4,3 L-6,3 L-6,2 L-2,2 L-2,3 L-1,3 L-1,4 L0,4 Z " fill="#319D0D" transform="translate(112,27)"/>
<path d="M0,0 L2,0 L2,1 L5,1 L5,2 L6,2 L6,3 L5,3 L5,5 L3,5 L3,6 L2,6 L2,4 L0,4 L0,5 L-1,5 L-1,6 L-2,6 L-2,7 L-3,7 L-3,8 L-4,8 L-4,10 L-5,10 L-5,11 L-7,11 L-7,10 L-6,10 L-6,9 L-5,9 L-5,7 L-4,7 L-4,6 L-3,6 L-3,5 L-2,5 L-2,3 L-1,3 L-1,1 L0,1 Z " fill="#CD633A" transform="translate(100,60)"/>
<path d="M0,0 L1,0 L1,1 L3,1 L3,2 L5,2 L5,3 L6,3 L6,5 L-6,5 L-6,3 L-5,3 L-5,2 L-1,2 L-1,1 L0,1 Z " fill="#6BC414" transform="translate(90,33)"/>
<path d="M0,0 L3,0 L3,1 L4,1 L4,2 L5,2 L5,3 L7,3 L7,5 L5,5 L5,6 L4,6 L4,7 L3,7 L3,8 L2,8 L2,9 L1,9 L1,8 L0,8 L0,6 L-1,6 L-1,5 L1,5 L1,3 L0,3 Z " fill="#6E1533" transform="translate(84,122)"/>
<path d="M0,0 L1,0 L1,8 L0,8 L0,9 L-5,9 L-5,8 L-6,8 L-6,6 L-3,6 L-3,3 L-2,3 L-2,2 L-1,2 L-1,1 L0,1 Z " fill="#8D030D" transform="translate(84,107)"/>
<path d="M0,0 L12,0 L12,1 L13,1 L13,2 L8,2 L8,3 L6,3 L6,4 L3,4 L3,5 L2,5 L2,4 L1,4 L1,1 L0,1 Z " fill="#1C091C" transform="translate(107,91)"/>
<path d="M0,0 L1,0 L1,2 L0,2 L0,4 L4,4 L4,6 L1,6 L1,7 L-2,7 L-2,9 L-6,9 L-6,10 L-7,10 L-7,8 L-6,8 L-6,7 L-5,7 L-5,6 L-4,6 L-4,5 L-3,5 L-3,4 L-2,4 L-2,3 L-1,3 L-1,1 L0,1 Z " fill="#1E0B20" transform="translate(114,61)"/>
<path d="M0,0 L6,0 L6,1 L7,1 L7,2 L1,2 L1,3 L0,3 L0,4 L-1,4 L-1,5 L-2,5 L-2,6 L-3,6 L-3,5 L-5,5 L-5,7 L-6,7 L-6,8 L-8,8 L-8,7 L-7,7 L-7,6 L-6,6 L-6,4 L-5,4 L-5,3 L-4,3 L-4,2 L-3,2 L-3,1 L0,1 Z " fill="#262423" transform="translate(56,65)"/>
<path d="M0,0 L2,0 L2,7 L1,7 L1,8 L0,8 L0,10 L-1,10 L-1,12 L-2,12 L-2,13 L-3,13 L-3,11 L-2,11 L-2,9 L-4,9 L-4,8 L-3,8 L-3,6 L-2,6 L-2,5 L-1,5 L-1,2 L0,2 Z " fill="#B1AAC2" transform="translate(88,90)"/>
<path d="M0,0 L5,0 L5,1 L4,1 L4,2 L1,2 L1,3 L0,3 L0,4 L-2,4 L-2,5 L-7,5 L-7,6 L-11,6 L-11,4 L-7,4 L-7,3 L-6,3 L-6,2 L0,2 Z " fill="#345FA1" transform="translate(128,83)"/>
<path d="M0,0 L6,0 L6,1 L7,1 L7,2 L8,2 L8,5 L9,5 L9,8 L5,8 L5,7 L4,7 L4,5 L3,5 L3,4 L4,4 L4,1 L0,1 Z " fill="#6B0B1F" transform="translate(122,69)"/>
<path d="M0,0 L7,0 L7,1 L8,1 L8,2 L9,2 L9,5 L6,5 L6,4 L5,4 L5,3 L-1,3 L-1,4 L-2,4 L-2,2 L-1,2 L-1,1 L0,1 Z " fill="#EAE1B4" transform="translate(47,122)"/>
<path d="M0,0 L2,0 L2,1 L3,1 L3,4 L2,4 L2,5 L-1,5 L-1,6 L-8,6 L-8,5 L-11,5 L-11,4 L-13,4 L-13,3 L-9,3 L-9,4 L-6,4 L-6,2 L-5,2 L-5,3 L-4,3 L-4,4 L1,4 L1,1 L0,1 Z " fill="#C1B3B7" transform="translate(132,74)"/>
<path d="M0,0 L2,0 L2,2 L1,2 L1,3 L0,3 L0,7 L2,7 L2,8 L3,8 L3,9 L4,9 L4,4 L5,4 L5,10 L1,10 L1,9 L-1,9 L-1,8 L-2,8 L-2,1 L0,1 Z " fill="#D6D7C7" transform="translate(45,142)"/>
<path d="M0,0 L3,0 L3,1 L4,1 L4,2 L6,2 L6,3 L7,3 L7,4 L8,4 L8,6 L9,6 L9,7 L10,7 L10,9 L13,9 L13,11 L10,11 L10,10 L9,10 L9,9 L8,9 L8,8 L7,8 L7,7 L6,7 L6,5 L5,5 L5,4 L3,4 L3,3 L2,3 L2,2 L1,2 L1,1 L0,1 Z " fill="#E0D8D8" transform="translate(116,12)"/>
<path d="M0,0 L1,0 L1,9 L0,9 L0,10 L-7,10 L-7,11 L-11,11 L-11,9 L-5,9 L-5,8 L-1,8 L-1,4 L0,4 Z " fill="#89B431" transform="translate(157,126)"/>
<path d="M0,0 L2,0 L2,1 L4,1 L4,2 L2,2 L2,3 L4,3 L4,4 L1,4 L1,5 L0,5 L0,4 L-5,4 L-5,2 L-10,2 L-10,1 L0,1 Z " fill="#3A8220" transform="translate(57,83)"/>
<path d="M0,0 L1,0 L1,2 L0,2 L0,6 L-1,6 L-1,7 L-2,7 L-2,9 L-3,9 L-3,10 L-4,10 L-4,11 L-5,11 L-5,14 L-7,14 L-7,12 L-8,12 L-8,10 L-7,10 L-7,9 L-6,9 L-6,8 L-5,8 L-5,7 L-3,7 L-3,6 L-2,6 L-2,4 L-1,4 L-1,1 L0,1 Z " fill="#6F1B2E" transform="translate(107,46)"/>
<path d="M0,0 L1,0 L1,3 L0,3 L0,5 L-1,5 L-1,6 L-3,6 L-3,5 L-5,5 L-5,10 L-6,10 L-6,9 L-7,9 L-7,1 L-6,1 L-6,3 L-2,3 L-2,2 L-1,2 L-1,1 L0,1 Z " fill="#565A34" transform="translate(87,21)"/>
<path d="M0,0 L1,0 L1,21 L0,21 L0,11 L-1,11 L-1,12 L-2,12 L-2,7 L-1,7 L-1,5 L0,5 Z " fill="#F2F6EA" transform="translate(108,147)"/>
<path d="M0,0 L1,0 L1,1 L2,1 L2,2 L3,2 L3,3 L4,3 L4,4 L5,4 L5,5 L6,5 L6,7 L7,7 L7,8 L8,8 L8,10 L9,10 L9,12 L10,12 L10,17 L9,17 L9,15 L8,15 L8,12 L7,12 L7,10 L6,10 L6,8 L5,8 L5,7 L4,7 L4,6 L3,6 L3,4 L2,4 L2,3 L1,3 L1,2 L0,2 Z " fill="#D5B873" transform="translate(118,43)"/>
<path d="M0,0 L7,0 L7,2 L6,2 L6,4 L5,4 L5,5 L0,5 Z " fill="#EDE4C6" transform="translate(130,25)"/>
<path d="M0,0 L2,0 L2,4 L1,4 L1,6 L0,6 L0,7 L-5,7 L-5,5 L-4,5 L-4,4 L-3,4 L-3,3 L-2,3 L-2,2 L-1,2 L-1,1 L0,1 Z " fill="#395122" transform="translate(122,116)"/>
<path d="M0,0 L2,0 L2,3 L1,3 L1,4 L0,4 L0,5 L-1,5 L-1,6 L-2,6 L-2,7 L-3,7 L-3,8 L-4,8 L-4,7 L-5,7 L-5,3 L-4,3 L-4,2 L-1,2 L-1,1 L0,1 Z " fill="#59A90A" transform="translate(144,107)"/>
<path d="M0,0 L1,0 L1,2 L2,2 L2,4 L3,4 L3,12 L0,12 Z " fill="#6FB80D" transform="translate(129,96)"/>
<path d="M0,0 L1,0 L1,3 L3,3 L3,5 L2,5 L2,7 L1,7 L1,9 L0,9 L0,10 L-2,10 L-2,4 L-1,4 L-1,1 L0,1 Z " fill="#D6C8CF" transform="translate(122,102)"/>
<path d="M0,0 L2,0 L2,1 L5,1 L5,2 L10,2 L10,3 L9,3 L9,4 L10,4 L10,5 L16,5 L16,6 L9,6 L9,7 L8,7 L8,4 L7,4 L7,6 L6,6 L6,4 L5,4 L5,3 L3,3 L3,2 L1,2 L1,1 L0,1 Z " fill="#454C6D" transform="translate(55,101)"/>
<path d="M0,0 L3,0 L3,2 L5,2 L5,3 L6,3 L6,4 L9,4 L9,3 L8,3 L8,1 L9,1 L9,2 L10,2 L10,3 L11,3 L11,4 L12,4 L12,5 L13,5 L13,8 L12,8 L12,7 L10,7 L10,6 L8,6 L8,5 L5,5 L5,4 L4,4 L4,3 L2,3 L2,1 L0,1 Z " fill="#A29DAF" transform="translate(102,20)"/>
<path d="M0,0 L3,0 L3,1 L4,1 L4,2 L5,2 L5,4 L4,4 L4,12 L3,12 L3,3 L2,3 L2,2 L1,2 L1,3 L0,3 L0,4 L-1,4 L-1,6 L-2,6 L-2,5 L-3,5 L-3,4 L-2,4 L-2,2 L-1,2 L-1,1 L0,1 Z " fill="#D5D3BA" transform="translate(94,140)"/>
<path d="M0,0 L1,0 L1,1 L2,1 L2,5 L1,5 L1,7 L0,7 L0,11 L-3,11 L-3,12 L-4,12 L-4,11 L-5,11 L-5,10 L-3,10 L-3,8 L-2,8 L-2,6 L-1,6 L-1,4 L0,4 Z " fill="#8DBA22" transform="translate(76,133)"/>
<path d="M0,0 L4,0 L4,1 L5,1 L5,2 L7,2 L7,6 L5,6 L5,7 L4,7 L4,9 L3,9 L3,7 L2,7 L2,4 L3,4 L3,1 L0,1 Z " fill="#254740" transform="translate(47,126)"/>
<path d="M0,0 L2,0 L2,1 L1,1 L1,2 L0,2 L0,3 L-1,3 L-1,4 L-2,4 L-2,5 L-15,5 L-15,4 L-12,4 L-12,2 L-9,2 L-9,4 L-4,4 L-4,3 L-2,3 L-2,1 L0,1 Z " fill="#8285C9" transform="translate(83,104)"/>
<path d="M0,0 L6,0 L6,1 L5,1 L5,2 L1,2 L1,3 L-10,3 L-10,2 L-7,2 L-7,1 L0,1 Z " fill="#0B4739" transform="translate(116,85)"/>
<path d="M0,0 L1,0 L1,2 L0,2 L0,4 L6,4 L6,6 L-5,6 L-5,7 L-6,7 L-6,5 L-4,5 L-4,4 L-2,4 L-2,3 L-1,3 L-1,1 L0,1 Z " fill="#7A9419" transform="translate(53,71)"/>
<path d="M0,0 L1,0 L1,2 L0,2 L0,3 L-1,3 L-1,4 L-3,4 L-3,5 L-4,5 L-4,6 L-5,6 L-5,9 L-10,9 L-10,8 L-11,8 L-11,7 L-8,7 L-8,6 L-7,6 L-7,5 L-6,5 L-6,4 L-4,4 L-4,3 L-2,3 L-2,2 L-1,2 L-1,1 L0,1 Z " fill="#1F1F01" transform="translate(52,163)"/>
<path d="M0,0 L3,0 L3,1 L2,1 L2,2 L3,2 L3,4 L2,4 L2,5 L1,5 L1,6 L-3,6 L-3,2 L-2,2 L-2,1 L0,1 Z " fill="#706A5F" transform="translate(49,78)"/>
<path d="M0,0 L3,0 L3,3 L2,3 L2,8 L1,8 L1,7 L0,7 L0,6 L-2,6 L-2,2 L-1,2 L-1,1 L0,1 Z " fill="#39440F" transform="translate(47,143)"/>
<path d="M0,0 L1,0 L1,2 L2,2 L2,3 L3,3 L3,4 L2,4 L2,5 L1,5 L1,7 L0,7 L0,8 L-1,8 L-1,12 L-2,12 L-2,10 L-3,10 L-3,5 L-1,5 L-1,4 L0,4 Z " fill="#6F74AD" transform="translate(83,128)"/>
<path d="M0,0 L2,0 L2,1 L1,1 L1,2 L4,2 L4,3 L3,3 L3,4 L2,4 L2,5 L4,5 L4,6 L2,6 L2,7 L3,7 L3,8 L2,8 L2,9 L0,9 L0,10 L-2,10 L-2,9 L-1,9 L-1,8 L1,8 L1,7 L0,7 L0,6 L1,6 L1,5 L0,5 L0,3 L-2,3 L-2,2 L-1,2 L-1,1 L0,1 Z " fill="#E0573D" transform="translate(110,43)"/>
<path d="M0,0 L2,0 L2,1 L3,1 L3,2 L4,2 L4,3 L6,3 L6,4 L7,4 L7,5 L9,5 L9,6 L11,6 L11,8 L6,8 L6,6 L5,6 L5,4 L3,4 L3,3 L1,3 L1,2 L0,2 Z " fill="#951020" transform="translate(118,23)"/>
<path d="M0,0 L4,0 L4,1 L5,1 L5,2 L6,2 L6,3 L7,3 L7,5 L8,5 L8,6 L5,6 L5,5 L4,5 L4,4 L2,4 L2,2 L-3,2 L-3,1 L0,1 Z " fill="#DDD9CB" transform="translate(103,18)"/>
<path d="M0,0 L1,0 L1,2 L2,2 L2,4 L3,4 L3,5 L0,5 L0,12 L-1,12 L-1,13 L-3,13 L-3,14 L-4,14 L-4,13 L-5,13 L-5,12 L-2,12 L-2,11 L-1,11 L-1,1 L0,1 Z " fill="#242D0B" transform="translate(159,124)"/>
<path d="M0,0 L2,0 L2,1 L1,1 L1,2 L0,2 L0,3 L-2,3 L-2,4 L-3,4 L-3,5 L-5,5 L-5,6 L-7,6 L-7,7 L-8,7 L-8,11 L-9,11 L-9,5 L-8,5 L-8,4 L-6,4 L-6,3 L-3,3 L-3,2 L-1,2 L-1,1 L0,1 Z " fill="#A5A143" transform="translate(45,126)"/>
<path d="M0,0 L1,0 L1,8 L0,8 L0,10 L-1,10 L-1,11 L-3,11 L-3,13 L-4,13 L-4,10 L-7,10 L-7,9 L-3,9 L-3,8 L-2,8 L-2,7 L-1,7 L-1,6 L0,6 Z " fill="#383B72" transform="translate(162,112)"/>
<path d="M0,0 L2,0 L2,1 L6,1 L6,3 L7,3 L7,4 L8,4 L8,3 L9,3 L9,5 L4,5 L4,4 L3,4 L3,5 L2,5 L2,3 L0,3 Z " fill="#846D70" transform="translate(100,112)"/>
<path d="M0,0 L5,0 L5,2 L4,2 L4,1 L1,1 L1,4 L3,4 L3,5 L6,5 L6,6 L7,6 L7,7 L4,7 L4,6 L2,6 L2,5 L-1,5 L-1,4 L-2,4 L-2,1 L0,1 Z " fill="#439E13" transform="translate(67,69)"/>
<path d="M0,0 L1,0 L1,3 L0,3 L0,4 L-1,4 L-1,5 L-3,5 L-3,6 L-4,6 L-4,8 L-5,8 L-5,9 L-6,9 L-6,10 L-7,10 L-7,7 L-6,7 L-6,6 L-5,6 L-5,4 L-6,4 L-6,3 L-2,3 L-2,2 L-1,2 L-1,1 L0,1 Z " fill="#6A0927" transform="translate(112,59)"/>
<path d="M0,0 L1,0 L1,5 L3,5 L3,4 L4,4 L4,3 L5,3 L5,1 L8,1 L8,3 L7,3 L7,6 L0,6 Z " fill="#6CB020" transform="translate(41,154)"/>
<path d="M0,0 L6,0 L6,1 L5,1 L5,7 L4,7 L4,3 L-2,3 L-2,2 L-3,2 L-3,1 L0,1 Z " fill="#79B836" transform="translate(148,156)"/>
<path d="M0,0 L1,0 L1,1 L2,1 L2,2 L3,2 L3,6 L1,6 L1,7 L-1,7 L-1,10 L-2,10 L-2,11 L-3,11 L-3,8 L-2,8 L-2,6 L-1,6 L-1,4 L1,4 L1,3 L0,3 Z " fill="#6B0311" transform="translate(65,112)"/>
<path d="M0,0 L1,0 L1,1 L2,1 L2,9 L0,9 L0,4 L-1,4 L-1,3 L-2,3 L-2,2 L-6,2 L-6,1 L-1,1 L-1,2 L0,2 Z " fill="#9B94BE" transform="translate(149,104)"/>
<path d="M0,0 L3,0 L3,2 L4,2 L4,13 L3,13 L3,3 L2,3 L2,2 L1,2 L1,5 L-1,5 L-1,1 L0,1 Z " fill="#E1D8CE" transform="translate(122,90)"/>
<path d="M0,0 L3,0 L3,1 L5,1 L5,2 L7,2 L7,4 L6,4 L6,5 L0,5 L0,4 L1,4 L1,1 L0,1 Z " fill="#DEDCCA" transform="translate(63,79)"/>
<path d="M0,0 L4,0 L4,1 L5,1 L5,2 L4,2 L4,3 L3,3 L3,5 L1,5 L1,6 L-4,6 L-4,3 L-3,3 L-3,4 L-2,4 L-2,5 L0,5 L0,4 L1,4 L1,2 L0,2 Z " fill="#C4C2BC" transform="translate(97,27)"/>
<path d="M0,0 L3,0 L3,1 L4,1 L4,2 L1,2 L1,3 L-1,3 L-1,4 L0,4 L0,5 L-1,5 L-1,6 L-2,6 L-2,7 L-3,7 L-3,3 L-2,3 L-2,2 L-7,2 L-7,1 L0,1 Z " fill="#77B32F" transform="translate(95,19)"/>
<path d="M0,0 L4,0 L4,2 L1,2 L1,3 L5,3 L5,4 L-2,4 L-2,5 L-3,5 L-3,6 L-5,6 L-5,5 L-4,5 L-4,4 L-3,4 L-3,2 L-1,2 L-1,1 L0,1 Z " fill="#B99C81" transform="translate(89,13)"/>
<path d="M0,0 L1,0 L1,4 L-8,4 L-8,3 L-9,3 L-9,2 L-3,2 L-3,1 L0,1 Z " fill="#121A01" transform="translate(119,170)"/>
<path d="M0,0 L2,0 L2,1 L3,1 L3,2 L2,2 L2,3 L1,3 L1,4 L0,4 L0,5 L-2,5 L-2,6 L-4,6 L-4,7 L-5,7 L-5,4 L-4,4 L-4,3 L-2,3 L-2,2 L-1,2 L-1,1 L0,1 Z " fill="#98C71B" transform="translate(50,161)"/>
<path d="M0,0 L8,0 L8,1 L10,1 L10,2 L1,2 L1,3 L-3,3 L-3,2 L-2,2 L-2,1 L0,1 Z " fill="#48AC0A" transform="translate(106,76)"/>
<path d="M0,0 L2,0 L2,2 L3,2 L3,3 L2,3 L2,5 L1,5 L1,6 L-1,6 L-1,7 L-3,7 L-3,5 L-1,5 L-1,4 L-3,4 L-3,3 L-2,3 L-2,2 L-1,2 L-1,1 L0,1 Z " fill="#E22915" transform="translate(100,64)"/>
<path d="M0,0 L6,0 L6,1 L5,1 L5,2 L4,2 L4,3 L2,3 L2,4 L-4,4 L-4,3 L-2,3 L-2,2 L-1,2 L-1,1 L0,1 Z " fill="#280C15" transform="translate(94,44)"/>
<path d="M0,0 L3,0 L3,1 L16,1 L16,2 L9,2 L9,3 L8,3 L8,2 L4,2 L4,3 L5,3 L5,5 L4,5 L4,4 L3,4 L3,3 L2,3 L2,2 L1,2 L1,1 L0,1 Z " fill="#9A1C1C" transform="translate(121,37)"/>
<path d="M0,0 L4,0 L4,1 L1,1 L1,3 L3,3 L3,4 L4,4 L4,5 L1,5 L1,6 L-1,6 L-1,5 L-5,5 L-5,4 L-2,4 L-2,3 L-1,3 L-1,2 L0,2 Z " fill="#9E8D79" transform="translate(73,125)"/>
<path d="M0,0 L1,0 L1,1 L2,1 L2,2 L3,2 L3,8 L4,8 L4,9 L1,9 L1,4 L-2,4 L-2,3 L-1,3 L-1,2 L0,2 Z " fill="#030202" transform="translate(151,113)"/>
<path d="M0,0 L1,0 L1,5 L0,5 L0,6 L-1,6 L-1,7 L-3,7 L-3,6 L-4,6 L-4,5 L-5,5 L-5,4 L-4,4 L-4,3 L-2,3 L-2,2 L-1,2 L-1,1 L0,1 Z " fill="#842423" transform="translate(153,98)"/>
<path d="M0,0 L3,0 L3,1 L5,1 L5,2 L7,2 L7,3 L8,3 L8,4 L0,4 Z " fill="#8DD91B" transform="translate(58,87)"/>
<path d="M0,0 L1,0 L1,2 L2,2 L2,3 L5,3 L5,5 L6,5 L6,6 L7,6 L7,7 L8,7 L8,9 L6,9 L6,10 L5,10 L5,6 L4,6 L4,5 L3,5 L3,4 L-1,4 L-1,3 L0,3 Z " fill="#8E1D1E" transform="translate(113,40)"/>
<path d="M0,0 L1,0 L1,5 L0,5 L0,6 L-1,6 L-1,7 L-2,7 L-2,8 L-3,8 L-3,9 L-4,9 L-4,6 L-3,6 L-3,4 L-2,4 L-2,2 L-1,2 L-1,1 L0,1 Z " fill="#7F0312" transform="translate(119,102)"/>
<path d="M0,0 L1,0 L1,1 L4,1 L4,4 L-3,4 L-3,3 L-4,3 L-4,2 L-2,2 L-2,1 L0,1 Z " fill="#11211A" transform="translate(128,86)"/>
<path d="M0,0 L1,0 L1,1 L2,1 L2,2 L4,2 L4,3 L5,3 L5,4 L7,4 L7,6 L1,6 L1,2 L0,2 Z " fill="#0D3735" transform="translate(121,79)"/>
<path d="M0,0 L1,0 L1,1 L2,1 L2,0 L11,0 L11,3 L8,3 L8,2 L6,2 L6,1 L3,1 L3,2 L1,2 L1,3 L0,3 Z " fill="#466B29" transform="translate(46,77)"/>
<path d="M0,0 L3,0 L3,3 L2,3 L2,4 L1,4 L1,6 L0,6 L0,7 L-1,7 L-1,8 L-2,8 L-2,9 L-4,9 L-4,7 L-2,7 L-2,6 L-1,6 L-1,4 L0,4 Z " fill="#49337B" transform="translate(83,65)"/>
<path d="M0,0 L1,0 L1,2 L2,2 L2,10 L1,10 L1,9 L0,9 L0,8 L1,8 L1,6 L-3,6 L-3,5 L-2,5 L-2,4 L-1,4 L-1,2 L0,2 Z " fill="#B71711" transform="translate(85,51)"/>
<path d="M0,0 L1,0 L1,1 L2,1 L2,2 L3,2 L3,8 L2,8 L2,9 L1,9 L1,10 L0,10 L0,4 L1,4 L1,2 L0,2 Z " fill="#CD120E" transform="translate(115,44)"/>
<path d="M0,0 L5,0 L5,1 L4,1 L4,6 L3,6 L3,5 L2,5 L2,6 L0,6 L0,4 L1,4 L1,2 L0,2 Z " fill="#4EAE14" transform="translate(88,21)"/>
<path d="M0,0 L3,0 L3,1 L4,1 L4,5 L-1,5 L-1,4 L-2,4 L-2,3 L0,3 Z " fill="#C5BD4A" transform="translate(103,13)"/>
<path d="M0,0 L6,0 L6,2 L7,2 L7,3 L11,3 L11,4 L6,4 L6,3 L2,3 L2,2 L1,2 L1,1 L0,1 Z " fill="#616427" transform="translate(33,166)"/>
<path d="M0,0 L1,0 L1,5 L0,5 L0,7 L-1,7 L-1,8 L-2,8 L-2,9 L-5,9 L-5,8 L-4,8 L-4,7 L-3,7 L-3,6 L-2,6 L-2,4 L-1,4 L-1,1 L0,1 Z " fill="#A6D52A" transform="translate(107,158)"/>
<path d="M0,0 L1,0 L1,3 L2,3 L2,5 L3,5 L3,6 L4,6 L4,7 L6,7 L6,8 L7,8 L7,10 L4,10 L4,9 L3,9 L3,8 L2,8 L2,6 L1,6 L1,4 L0,4 Z " fill="#819746" transform="translate(62,152)"/>
<path d="M0,0 L1,0 L1,2 L2,2 L2,3 L1,3 L1,4 L-2,4 L-2,5 L-3,5 L-3,6 L-4,6 L-4,8 L-7,8 L-7,6 L-5,6 L-5,5 L-4,5 L-4,4 L-3,4 L-3,3 L-2,3 L-2,2 L-1,2 L-1,1 L0,1 Z " fill="#5C5BAC" transform="translate(115,117)"/>
<path d="M0,0 L1,0 L1,2 L2,2 L2,3 L1,3 L1,5 L0,5 L0,6 L-1,6 L-1,7 L-2,7 L-2,8 L-3,8 L-3,9 L-5,9 L-5,7 L-4,7 L-4,6 L-3,6 L-3,5 L-2,5 L-2,4 L-1,4 L-1,2 L0,2 Z " fill="#D2CACA" transform="translate(166,119)"/>
<path d="M0,0 L1,0 L1,3 L2,3 L2,9 L1,9 L1,11 L0,11 L0,14 L-1,14 L-1,8 L0,8 L0,6 L1,6 L1,4 L0,4 Z " fill="#401336" transform="translate(99,103)"/>
<path d="M0,0 L2,0 L2,1 L1,1 L1,4 L4,4 L4,5 L8,5 L8,6 L2,6 L2,5 L0,5 L0,4 L-2,4 L-2,1 L0,1 Z " fill="#979390" transform="translate(59,79)"/>
<path d="M0,0 L6,0 L6,1 L5,1 L5,2 L0,2 L0,3 L-1,3 L-1,4 L-5,4 L-5,3 L-4,3 L-4,2 L-2,2 L-2,1 L0,1 Z " fill="#D44A74" transform="translate(94,42)"/>
<path d="M0,0 L3,0 L3,1 L4,1 L4,2 L2,2 L2,6 L1,6 L1,7 L0,7 L0,9 L-1,9 L-1,5 L0,5 Z " fill="#779E23" transform="translate(122,139)"/>
<path d="M0,0 L1,0 L1,1 L2,1 L2,2 L4,2 L4,3 L5,3 L5,4 L6,4 L6,5 L5,5 L5,6 L4,6 L4,5 L3,5 L3,4 L0,4 L0,3 L-1,3 L-1,2 L-3,2 L-3,1 L0,1 Z " fill="#4F2160" transform="translate(77,116)"/>
<path d="M0,0 L1,0 L1,2 L0,2 L0,3 L1,3 L1,5 L0,5 L0,6 L-3,6 L-3,7 L-4,7 L-4,6 L-5,6 L-5,4 L-3,4 L-3,3 L-1,3 L-1,1 L0,1 Z " fill="#DE4022" transform="translate(58,116)"/>
<path d="M0,0 L3,0 L3,1 L4,1 L4,3 L5,3 L5,4 L4,4 L4,8 L3,8 L3,3 L-4,3 L-4,2 L1,2 L1,1 L0,1 Z " fill="#357C13" transform="translate(76,89)"/>
<path d="M0,0 L1,0 L1,1 L2,1 L2,2 L4,2 L4,0 L5,0 L5,1 L6,1 L6,2 L7,2 L7,3 L6,3 L6,4 L5,4 L5,5 L4,5 L4,7 L3,7 L3,4 L2,4 L2,3 L1,3 L1,2 L0,2 Z " fill="#6A2A3D" transform="translate(91,62)"/>
<path d="M0,0 L2,0 L2,1 L1,1 L1,2 L0,2 L0,5 L-1,5 L-1,6 L-2,6 L-2,7 L-3,7 L-3,8 L-6,8 L-6,7 L-4,7 L-4,6 L-3,6 L-3,2 L-1,2 L-1,1 L0,1 Z " fill="#B50A0B" transform="translate(113,54)"/>
<path d="M0,0 L1,0 L1,2 L0,2 L0,3 L-1,3 L-1,4 L-3,4 L-3,5 L-4,5 L-4,6 L-5,6 L-5,8 L-6,8 L-6,9 L-7,9 L-7,6 L-6,6 L-6,5 L-5,5 L-5,3 L-3,3 L-3,2 L-2,2 L-2,1 L0,1 Z " fill="#453292" transform="translate(120,53)"/>
<path d="M0,0 L3,0 L3,1 L2,1 L2,2 L1,2 L1,3 L0,3 L0,7 L1,7 L1,8 L0,8 L0,9 L-1,9 L-1,7 L-2,7 L-2,3 L-1,3 L-1,1 L0,1 Z " fill="#E1D1C4" transform="translate(30,140)"/>
<path d="M0,0 L3,0 L3,3 L2,3 L2,4 L-4,4 L-4,3 L-3,3 L-3,2 L-1,2 L-1,1 L0,1 Z " fill="#14141B" transform="translate(64,125)"/>
<path d="M0,0 L1,0 L1,6 L2,6 L2,1 L3,1 L3,6 L4,6 L4,8 L3,8 L3,10 L2,10 L2,7 L0,7 Z " fill="#BB9999" transform="translate(41,90)"/>
<path d="M0,0 L2,0 L2,7 L1,7 L1,8 L0,8 L0,10 L-1,10 L-1,6 L0,6 Z " fill="#1F7910" transform="translate(82,87)"/>
<path d="M0,0 L1,0 L1,2 L0,2 L0,3 L-1,3 L-1,4 L-2,4 L-2,5 L-3,5 L-3,6 L-4,6 L-4,7 L-5,7 L-5,9 L-6,9 L-6,8 L-8,8 L-8,7 L-6,7 L-6,6 L-5,6 L-5,5 L-4,5 L-4,3 L-3,3 L-3,2 L-1,2 L-1,1 L0,1 Z " fill="#423183" transform="translate(112,62)"/>
<path d="M0,0 L3,0 L3,2 L4,2 L4,4 L3,4 L3,3 L-5,3 L-5,2 L-2,2 L-2,1 L0,1 Z " fill="#9FD04C" transform="translate(75,145)"/>
<path d="M0,0 L4,0 L4,1 L5,1 L5,2 L3,2 L3,3 L1,3 L1,4 L-2,4 L-2,2 L-1,2 L-1,1 L0,1 Z " fill="#172120" transform="translate(67,143)"/>
<path d="M0,0 L1,0 L1,3 L2,3 L2,5 L0,5 L0,6 L-1,6 L-1,5 L-2,5 L-2,4 L-3,4 L-3,2 L-2,2 L-2,1 L0,1 Z " fill="#BC2622" transform="translate(83,122)"/>
<path d="M0,0 L2,0 L2,5 L-2,5 L-2,1 L0,1 Z " fill="#7E0815" transform="translate(158,115)"/>
<path d="M0,0 L2,0 L2,7 L0,7 L0,6 L-1,6 L-1,2 L0,2 Z " fill="#98DD13" transform="translate(103,91)"/>
<path d="M0,0 L7,0 L7,1 L8,1 L8,2 L3,2 L3,3 L0,3 Z " fill="#4F0112" transform="translate(112,91)"/>
<path d="M0,0 L2,0 L2,2 L3,2 L3,5 L4,5 L4,8 L3,8 L3,6 L2,6 L2,4 L1,4 L1,3 L0,3 L0,5 L-1,5 L-1,1 L0,1 Z " fill="#640311" transform="translate(92,89)"/>
<path d="M0,0 L2,0 L2,1 L1,1 L1,3 L3,3 L3,2 L7,2 L7,3 L5,3 L5,6 L3,6 L3,4 L0,4 L0,2 L-1,2 L-1,1 L0,1 Z " fill="#1A5A22" transform="translate(83,81)"/>
<path d="M0,0 L5,0 L5,2 L4,2 L4,4 L3,4 L3,5 L2,5 L2,4 L1,4 L1,3 L0,3 Z " fill="#CAB2B1" transform="translate(95,59)"/>
<path d="M0,0 L1,0 L1,2 L4,2 L4,3 L3,3 L3,4 L2,4 L2,5 L-2,5 L-2,2 L-1,2 L-1,1 L0,1 Z " fill="#BDA9A0" transform="translate(83,19)"/>
<path d="M0,0 L1,0 L1,1 L2,1 L2,2 L4,2 L4,3 L2,3 L2,8 L-3,8 L-3,7 L0,7 L0,6 L1,6 L1,3 L0,3 Z " fill="#223D18" transform="translate(83,168)"/>
<path d="M0,0 L4,0 L4,1 L3,1 L3,2 L2,2 L2,3 L1,3 L1,4 L-4,4 L-4,3 L-2,3 L-2,2 L-1,2 L-1,1 L0,1 Z " fill="#33560E" transform="translate(101,167)"/>
<path d="M0,0 L5,0 L5,5 L3,5 L3,4 L2,4 L2,2 L1,2 L1,1 L0,1 Z " fill="#34621F" transform="translate(43,132)"/>
<path d="M0,0 L1,0 L1,4 L0,4 L0,11 L1,11 L1,12 L0,12 L0,13 L-1,13 L-1,12 L-2,12 L-2,10 L-1,10 L-1,3 L0,3 Z " fill="#342F4B" transform="translate(108,103)"/>
<path d="M0,0 L2,0 L2,1 L4,1 L4,2 L6,2 L6,4 L2,4 L2,3 L0,3 L0,2 L-1,2 L-1,1 L0,1 Z " fill="#2D5918" transform="translate(70,78)"/>
<path d="M0,0 L2,0 L2,4 L1,4 L1,5 L-2,5 L-2,6 L-3,6 L-3,4 L-2,4 L-2,3 L-1,3 L-1,1 L0,1 Z " fill="#D72D17" transform="translate(77,64)"/>
<path d="M0,0 L3,0 L3,6 L1,6 L1,5 L0,5 Z " fill="#8B060F" transform="translate(92,58)"/>
</svg>
