<?xml version="1.0" encoding="UTF-8"?>
<svg version="1.1" xmlns="http://www.w3.org/2000/svg" width="200" height="200">
<path d="M0 0 C21.8966573 19.00869343 34.49110485 43.96973759 36.68359375 72.8515625 C37.18653416 101.1419605 26.00506966 126.17680105 6.60546875 146.36328125 C1.91851261 150.93592139 -2.98729884 154.68824874 -8.51953125 158.17578125 C-9.45667969 158.77261719 -10.39382812 159.36945313 -11.359375 159.984375 C-34.04044051 173.84337035 -61.16857069 177.89544922 -87.02734375 171.93945312 C-104.9192214 167.45126953 -119.57531491 158.08089119 -132.51953125 145.17578125 C-133.37675781 144.33402344 -134.23398438 143.49226562 -135.1171875 142.625 C-149.04548913 128.42492663 -156.90944159 111.58288747 -160.51953125 92.17578125 C-160.70644531 91.21929687 -160.89335937 90.2628125 -161.0859375 89.27734375 C-164.09050108 67.78524033 -158.98127315 44.51980197 -147.51953125 26.17578125 C-146.87242187 25.13808594 -146.2253125 24.10039063 -145.55859375 23.03125 C-130.39046248 -0.04949848 -108.38195725 -13.94263488 -81.74609375 -20.5078125 C-53.04759602 -26.33593879 -22.48288383 -18.56449307 0 0 Z " fill="#E7E1D3" transform="translate(162.51953125,22.82421875)"/>
<path d="M0 0 C19.81493447 15.07658058 28.87730665 38.84443382 32.55859375 62.60546875 C35.66082849 86.46247753 27.52807423 110.4704461 13.9921875 129.87890625 C6.62600797 139.4072235 -1.80784734 147.57484266 -12 154 C-12.93714844 154.59683594 -13.87429687 155.19367188 -14.83984375 155.80859375 C-37.55124704 169.68612664 -64.63660382 173.68735807 -90.4921875 167.65625 C-91.31976563 167.4396875 -92.14734375 167.223125 -93 167 C-93 166.67 -93 166.34 -93 166 C-91.39729248 166.01571045 -91.39729248 166.01571045 -89.76220703 166.03173828 C-85.75524312 166.06824755 -81.74829358 166.09101174 -77.74121094 166.10986328 C-76.01494871 166.11985099 -74.28870309 166.13344583 -72.5625 166.15087891 C-59.14600116 166.37934895 -59.14600116 166.37934895 -46 164 C-45.29891113 163.80696289 -44.59782227 163.61392578 -43.87548828 163.41503906 C-41.89940848 162.84162514 -39.95123386 162.2149312 -38 161.5625 C-37.34644531 161.35818359 -36.69289063 161.15386719 -36.01953125 160.94335938 C-32.41589587 159.75081612 -31.17305007 159.2595751 -29 156 C-27.22409154 155.03365495 -25.4035702 154.14804421 -23.5625 153.3125 C-13.82918678 148.58589106 -3.02389223 142.04778446 2 132 C-1.65079826 130.38935371 -5.0507432 129.55105909 -9 129 C-7.68 128.34 -6.36 127.68 -5 127 C-5 126.34 -5 125.68 -5 125 C-7.3388584 123.10765093 -9.69059704 121.32472326 -12.125 119.5625 C-13.60370052 118.47118384 -15.08154988 117.37871356 -16.55859375 116.28515625 C-17.30608887 115.73359863 -18.05358398 115.18204102 -18.82373047 114.61376953 C-30.04815338 106.29052122 -41.15303554 97.54414777 -50.5703125 87.16796875 C-52.77922088 84.82781352 -52.77922088 84.82781352 -55.45703125 84.51171875 C-56.23433594 84.56972656 -57.01164062 84.62773438 -57.8125 84.6875 C-58.99779297 84.75517578 -58.99779297 84.75517578 -60.20703125 84.82421875 C-60.79871094 84.88222656 -61.39039062 84.94023438 -62 85 C-51.70577699 97.35719867 -51.70577699 97.35719867 -39 107 C-40.8125 107.6875 -40.8125 107.6875 -43 108 C-44.01592741 107.01618524 -45.01300842 106.01284136 -46 105 C-47.44936023 104.07646659 -48.93148137 103.2029293 -50.4375 102.375 C-51.19933594 101.94960937 -51.96117188 101.52421875 -52.74609375 101.0859375 C-54.9195223 99.93065981 -54.9195223 99.93065981 -57.12890625 99.5390625 C-60.34574552 98.61229043 -61.91059142 95.5072903 -64 93 C-65.90938769 91.68740419 -65.90938769 91.68740419 -68 92 C-71.11230379 93.99506653 -73.24097401 96.27287897 -75.4375 99.1875 C-78 102 -78 102 -80.52734375 102.3203125 C-85.67808284 103.32844366 -89.65391096 106.01576625 -94.125 108.6875 C-96.00512695 109.78752425 -97.88662992 110.88520016 -99.76953125 111.98046875 C-100.6713916 112.50560059 -101.57325195 113.03073242 -102.50244141 113.57177734 C-107.22666912 116.27331518 -112.09215075 118.65107691 -117 121 C-118.58481863 121.78868908 -120.16831482 122.58004558 -121.75 123.375 C-122.8225 123.91125 -123.895 124.4475 -125 125 C-125 126.32 -125 127.64 -125 129 C-127.64 129.33 -130.28 129.66 -133 130 C-125.78216062 122.6238168 -117.88195156 116.01347268 -109.49279785 110.01287842 C-99.72497378 102.97327902 -91.3849958 94.85467191 -83 86.25 C-81.62856596 84.85842647 -80.25617356 83.46779676 -78.8828125 82.078125 C-75.57745593 78.72946459 -72.28510952 75.36852051 -69 72 C-68.34 72.33 -67.68 72.66 -67 73 C-67 75.64 -67 78.28 -67 81 C-67.99 81 -68.98 81 -70 81 C-70 81.66 -70 82.32 -70 83 C-65.38 82.67 -60.76 82.34 -56 82 C-57.381875 80.7625 -58.76375 79.525 -60.1875 78.25 C-61.62386499 76.9536706 -63.06016369 75.65726666 -64.49511719 74.359375 C-65.9341386 73.05949323 -67.37713292 71.76401367 -68.8203125 70.46875 C-73.99112569 65.78563557 -79.02266419 61.00787712 -83.90234375 56.01953125 C-93.15925749 46.56138026 -102.32264676 37.7517218 -113.0234375 29.953125 C-119.32838365 25.35247005 -125.14379683 20.15086016 -131 15 C-130.37609375 15.76699219 -129.7521875 16.53398438 -129.109375 17.32421875 C-127.16291886 19.79333441 -125.55753517 22.27431346 -124 25 C-126.475 24.01 -126.475 24.01 -129 23 C-129.66 24.32 -130.32 25.64 -131 27 C-131.16435547 25.98679687 -131.16435547 25.98679687 -131.33203125 24.953125 C-131.49058594 24.06109375 -131.64914063 23.1690625 -131.8125 22.25 C-131.96332031 21.36828125 -132.11414063 20.4865625 -132.26953125 19.578125 C-133.05666768 16.79999644 -134.22364302 15.23869646 -136 13 C-136 12.34 -136 11.68 -136 11 C-131.05 11.99 -126.1 12.98 -121 14 C-122.32 14.33 -123.64 14.66 -125 15 C-125 15.99 -125 16.98 -125 18 C-124.34 18 -123.68 18 -123 18 C-123 18.66 -123 19.32 -123 20 C-122.16855469 20.25265625 -121.33710937 20.5053125 -120.48046875 20.765625 C-116.57865318 22.14943389 -112.99489173 23.87266748 -109.3125 25.75 C-108.61568115 26.10271973 -107.9188623 26.45543945 -107.20092773 26.81884766 C-90.29053186 35.41893628 -90.29053186 35.41893628 -89 38 C-88.01 37.67 -87.02 37.34 -86 37 C-86.33 35.35 -86.66 33.7 -87 32 C-84.5 33.375 -84.5 33.375 -82 35 C-82 35.66 -82 36.32 -82 37 C-81.34 37 -80.68 37 -80 37 C-78.63343747 38.57980635 -77.33264868 40.21668653 -76.0625 41.875 C-71.2319268 47.94075234 -65.87074797 52.94128072 -60 58 C-59.01 57.67 -58.02 57.34 -57 57 C-56.34 57.66 -55.68 58.32 -55 59 C-54.443125 58.43152344 -53.88625 57.86304688 -53.3125 57.27734375 C-48.90310653 52.81581218 -44.44162536 48.53299576 -39.62890625 44.5078125 C-37.7642126 42.89959955 -37.7642126 42.89959955 -36 40 C-37.65 41.32 -39.3 42.64 -41 44 C-41.66 43.67 -42.32 43.34 -43 43 C-40.03 40.36 -37.06 37.72 -34 35 C-34.33 34.34 -34.66 33.68 -35 33 C-43.83038923 38.44504149 -52.59919832 43.90134109 -61 50 C-61.66 49.67 -62.32 49.34 -63 49 C-48.59064078 30.08268483 -32.78343772 17.22375712 -9 13 C-4.41432272 12.08025534 -0.15163937 11.22343353 4 9 C2.80023567 5.91489173 1.49997444 2.94952958 0 0 Z " fill="#E0D9C6" transform="translate(166,27)"/>
<path d="M0 0 C4.95 0.99 9.9 1.98 15 3 C13.68 3.33 12.36 3.66 11 4 C11 4.99 11 5.98 11 7 C11.66 7 12.32 7 13 7 C13 7.66 13 8.32 13 9 C13.83144531 9.25265625 14.66289063 9.5053125 15.51953125 9.765625 C19.42134682 11.14943389 23.00510827 12.87266748 26.6875 14.75 C27.38431885 15.10271973 28.0811377 15.45543945 28.79907227 15.81884766 C45.70946814 24.41893628 45.70946814 24.41893628 47 27 C47.99 26.67 48.98 26.34 50 26 C49.67 24.35 49.34 22.7 49 21 C51.5 22.375 51.5 22.375 54 24 C54 24.66 54 25.32 54 26 C54.66 26 55.32 26 56 26 C57.36656253 27.57980635 58.66735132 29.21668653 59.9375 30.875 C64.7680732 36.94075234 70.12925203 41.94128072 76 47 C76.99 46.67 77.98 46.34 79 46 C79.66 46.66 80.32 47.32 81 48 C81.556875 47.43152344 82.11375 46.86304688 82.6875 46.27734375 C87.09689347 41.81581218 91.55837464 37.53299576 96.37109375 33.5078125 C98.2357874 31.89959955 98.2357874 31.89959955 100 29 C98.35 30.32 96.7 31.64 95 33 C94.34 32.67 93.68 32.34 93 32 C95.97 29.36 98.94 26.72 102 24 C101.505 23.01 101.505 23.01 101 22 C92.16961077 27.44504149 83.40080168 32.90134109 75 39 C74.34 38.67 73.68 38.34 73 38 C87.38917189 19.10918774 103.22648091 6.17418765 127 2 C128.95923332 1.60864561 130.91768973 1.21336157 132.875 0.8125 C134.24979641 0.54063511 135.62470947 0.26935414 137 0 C134.59871799 5.58950546 129.93037943 9.39789336 125.6875 13.625 C124.83220703 14.49640625 123.97691406 15.3678125 123.09570312 16.265625 C122.26361328 17.09835938 121.43152344 17.93109375 120.57421875 18.7890625 C119.43859497 19.92915771 119.43859497 19.92915771 118.2800293 21.09228516 C115.90719354 23.07765175 113.89204568 23.96687339 111 25 C109.06905426 26.28195568 107.1736839 27.61871209 105.3125 29 C104.35988281 29.70125 103.40726562 30.4025 102.42578125 31.125 C98.48957271 34.16748003 97.47345957 36.28492938 96 41 C95.505 41.99 95.505 41.99 95 43 C95.71285156 42.25234375 96.42570312 41.5046875 97.16015625 40.734375 C105.85352978 31.7473167 105.85352978 31.7473167 109.5625 29.875 C114.72660542 27.05821523 118.73589476 23.01529427 123 19 C123 23.07650559 121.1763524 25.32715481 119.09375 28.74609375 C117.70894698 31.18223196 117.70894698 31.18223196 118 35 C117.05125 35.2475 116.1025 35.495 115.125 35.75 C111.42687748 37.22924901 111.5953182 37.60052195 110 41 C108.59505946 42.98182183 107.15373687 44.93808877 105.6875 46.875 C105.08627319 47.67019043 105.08627319 47.67019043 104.47290039 48.48144531 C101.74303395 52.07415933 98.94382833 55.58136065 96 59 C97.75930836 63.17445357 100.61646026 66.447061 103.4375 69.9375 C108.6438932 76.389049 108.6438932 76.389049 110.6484375 79.828125 C112.5115096 82.8219634 114.81452047 83.65501976 118 85 C117.01 85.495 117.01 85.495 116 86 C116.66 87.65 117.32 89.3 118 91 C113.2916488 86.99289259 108.67142082 82.91199493 104.11328125 78.734375 C102.12857578 77.10552245 100.30169559 76.09865276 98 75 C98.50861572 75.50337891 99.01723145 76.00675781 99.54125977 76.52539062 C101.88440728 78.84751978 104.22346602 81.1737277 106.5625 83.5 C107.36236328 84.29148437 108.16222656 85.08296875 108.98632812 85.8984375 C119.70436509 96.57272738 119.70436509 96.57272738 123 101 C123 101.66 123 102.32 123 103 C123.86625 103.0928125 123.86625 103.0928125 124.75 103.1875 C127.92448483 104.33384174 129.12848575 106.25956842 131 109 C131 109.66 131 110.32 131 111 C132.32 111 133.64 111 135 111 C137.875 117.625 137.875 117.625 139 121 C133 119.5 133 119.5 127 118 C128.32 117.34 129.64 116.68 131 116 C131 115.34 131 114.68 131 114 C128.6611416 112.10765093 126.30940296 110.32472326 123.875 108.5625 C122.39629948 107.47118384 120.91845012 106.37871356 119.44140625 105.28515625 C118.69391113 104.73359863 117.94641602 104.18204102 117.17626953 103.61376953 C105.95184662 95.29052122 94.84696446 86.54414777 85.4296875 76.16796875 C83.22077912 73.82781352 83.22077912 73.82781352 80.54296875 73.51171875 C79.76566406 73.56972656 78.98835938 73.62773438 78.1875 73.6875 C77.00220703 73.75517578 77.00220703 73.75517578 75.79296875 73.82421875 C75.20128906 73.88222656 74.60960938 73.94023438 74 74 C84.29422301 86.35719867 84.29422301 86.35719867 97 96 C95.1875 96.6875 95.1875 96.6875 93 97 C91.98407259 96.01618524 90.98699158 95.01284136 90 94 C88.55063977 93.07646659 87.06851863 92.2029293 85.5625 91.375 C84.80066406 90.94960937 84.03882812 90.52421875 83.25390625 90.0859375 C81.0804777 88.93065981 81.0804777 88.93065981 78.87109375 88.5390625 C75.65425448 87.61229043 74.08940858 84.5072903 72 82 C70.09061231 80.68740419 70.09061231 80.68740419 68 81 C64.88769621 82.99506653 62.75902599 85.27287897 60.5625 88.1875 C58 91 58 91 55.47265625 91.3203125 C50.32191716 92.32844366 46.34608904 95.01576625 41.875 97.6875 C39.99487305 98.78752425 38.11337008 99.88520016 36.23046875 100.98046875 C35.3286084 101.50560059 34.42674805 102.03073242 33.49755859 102.57177734 C28.77333088 105.27331518 23.90784925 107.65107691 19 110 C17.41518137 110.78868908 15.83168518 111.58004558 14.25 112.375 C13.1775 112.91125 12.105 113.4475 11 114 C11 115.32 11 116.64 11 118 C8.36 118.33 5.72 118.66 3 119 C10.21783938 111.6238168 18.11804844 105.01347268 26.50720215 99.01287842 C36.27502622 91.97327902 44.6150042 83.85467191 53 75.25 C54.37143404 73.85842647 55.74382644 72.46779676 57.1171875 71.078125 C60.42254407 67.72946459 63.71489048 64.36852051 67 61 C67.66 61.33 68.32 61.66 69 62 C69 64.64 69 67.28 69 70 C68.01 70 67.02 70 66 70 C66 70.66 66 71.32 66 72 C70.62 71.67 75.24 71.34 80 71 C78.618125 69.7625 77.23625 68.525 75.8125 67.25 C74.37613501 65.9536706 72.93983631 64.65726666 71.50488281 63.359375 C70.0658614 62.05949323 68.62286708 60.76401367 67.1796875 59.46875 C62.00887431 54.78563557 56.97733581 50.00787712 52.09765625 45.01953125 C42.84074251 35.56138026 33.67735324 26.7517218 22.9765625 18.953125 C16.67161635 14.35247005 10.85620317 9.15086016 5 4 C5.62390625 4.76699219 6.2478125 5.53398438 6.890625 6.32421875 C8.83708114 8.79333441 10.44246483 11.27431346 12 14 C9.525 13.01 9.525 13.01 7 12 C6.34 13.32 5.68 14.64 5 16 C4.83564453 14.98679687 4.83564453 14.98679687 4.66796875 13.953125 C4.50941406 13.06109375 4.35085937 12.1690625 4.1875 11.25 C3.96126953 9.92742188 3.96126953 9.92742188 3.73046875 8.578125 C2.94333232 5.79999644 1.77635698 4.23869646 0 2 C0 1.34 0 0.68 0 0 Z " fill="#514A49" transform="translate(30,38)"/>
<path d="M0 0 C3.99613634 1.72247256 7.24274563 4.37963958 10.625 7.0625 C11.19089844 7.50271484 11.75679687 7.94292969 12.33984375 8.39648438 C21.92104271 15.94884852 30.57129656 24.44694365 39.125 33.125 C45.23044315 39.31853267 51.35073238 45.3879333 58 51 C59.5 52.29166667 61 53.58333333 62.5 54.875 C63.1703125 55.44992188 63.840625 56.02484375 64.53125 56.6171875 C65.0159375 57.07351562 65.500625 57.52984375 66 58 C66 58.33 66 58.66 66 59 C61.05 59 56.1 59 51 59 C51 58.34 51 57.68 51 57 C51.99 57 52.98 57 54 57 C53.505 53.04 53.505 53.04 53 49 C48.53631675 52.63426126 44.42947298 56.51585505 40.41015625 60.6328125 C39.65234612 61.40836487 39.65234612 61.40836487 38.87922668 62.19958496 C38.36083725 62.7302356 37.84244781 63.26088623 37.30834961 63.80761719 C27.71051263 73.63215462 18.22110732 82.75993574 6.91650391 90.62255859 C3.20516152 93.28999729 -0.3282912 96.18191626 -3.875 99.0625 C-4.56021729 99.61196289 -5.24543457 100.16142578 -5.95141602 100.72753906 C-6.58362061 101.24155273 -7.2158252 101.75556641 -7.8671875 102.28515625 C-8.42519043 102.73769775 -8.98319336 103.19023926 -9.55810547 103.65649414 C-11.2574526 105.1363521 -11.2574526 105.1363521 -13 108 C-13.99 108 -14.98 108 -16 108 C-14 103 -14 103 -13.015625 100.6953125 C-11.93927431 97.83884337 -11.27707799 95.04287998 -10.625 92.0625 C-8.48031134 83.42035556 -4.11393396 78.19864405 3 73 C4.27864665 72.44797384 5.57073837 71.92593806 6.875 71.4375 C12.97966329 68.69761175 16.25884914 62.01714126 19.86328125 56.64111328 C22.00743575 53.54553627 24.4773395 50.78820371 27 48 C25.62756503 45.0594196 24.03866503 42.5699331 22.06640625 39.99609375 C21.49986328 39.25552734 20.93332031 38.51496094 20.34960938 37.75195312 C19.75986328 36.98818359 19.17011719 36.22441406 18.5625 35.4375 C17.97662109 34.66986328 17.39074219 33.90222656 16.78710938 33.11132812 C14.32059729 29.90010297 11.91867923 26.81485469 9 24 C8 23 7 22 6 21 C6.66 20.34 7.32 19.68 8 19 C8.556875 19.51949219 9.11375 20.03898437 9.6875 20.57421875 C14.5418672 25.01038877 19.31616275 28.69304014 25 32 C24.28714844 31.29875 23.57429688 30.5975 22.83984375 29.875 C10.26226767 17.44247373 10.26226767 17.44247373 7 13 C7 12.34 7 11.68 7 11 C6.01 10.67 5.02 10.34 4 10 C2.39453125 8.15234375 2.39453125 8.15234375 0.8125 5.9375 C0.28269531 5.20402344 -0.24710938 4.47054687 -0.79296875 3.71484375 C-1.19128906 3.14894531 -1.58960938 2.58304688 -2 2 C-1.34 1.34 -0.68 0.68 0 0 Z " fill="#E2DDCE" transform="translate(45,51)"/>
<path d="M0 0 C0 4.07650559 -1.8236476 6.32715481 -3.90625 9.74609375 C-5.29105302 12.18223196 -5.29105302 12.18223196 -5 16 C-5.94875 16.2475 -6.8975 16.495 -7.875 16.75 C-11.57312252 18.22924901 -11.4046818 18.60052195 -13 22 C-14.40494054 23.98182183 -15.84626313 25.93808877 -17.3125 27.875 C-17.71331787 28.40512695 -18.11413574 28.93525391 -18.52709961 29.48144531 C-21.25696605 33.07415933 -24.05617167 36.58136065 -27 40 C-25.24069164 44.17445357 -22.38353974 47.447061 -19.5625 50.9375 C-14.3561068 57.389049 -14.3561068 57.389049 -12.3515625 60.828125 C-10.4884904 63.8219634 -8.18547953 64.65501976 -5 66 C-5.99 66.495 -5.99 66.495 -7 67 C-6.34 68.65 -5.68 70.3 -5 72 C-9.7083512 67.99289259 -14.32857918 63.91199493 -18.88671875 59.734375 C-20.87142422 58.10552245 -22.69830441 57.09865276 -25 56 C-24.49138428 56.50337891 -23.98276855 57.00675781 -23.45874023 57.52539062 C-21.11559272 59.84751978 -18.77653398 62.1737277 -16.4375 64.5 C-15.63763672 65.29148437 -14.83777344 66.08296875 -14.01367188 66.8984375 C-3.29563491 77.57272738 -3.29563491 77.57272738 0 82 C0 82.66 0 83.32 0 84 C0.86625 84.0928125 0.86625 84.0928125 1.75 84.1875 C4.92448483 85.33384174 6.12848575 87.25956842 8 90 C8 90.66 8 91.32 8 92 C9.32 92 10.64 92 12 92 C14.875 98.625 14.875 98.625 16 102 C10 100.5 10 100.5 4 99 C5.98 98.01 5.98 98.01 8 97 C8 96.34 8 95.68 8 95 C6.65030871 93.71652005 6.65030871 93.71652005 4.8515625 92.4609375 C3.84428101 91.71952515 3.84428101 91.71952515 2.81665039 90.96313477 C2.09340576 90.43905029 1.37016113 89.91496582 0.625 89.375 C-0.84305053 88.28857423 -2.31049853 87.20133383 -3.77734375 86.11328125 C-5.75773693 84.65201596 -7.73874793 83.19166381 -9.72314453 81.73583984 C-11.13775645 80.69123806 -12.53831322 79.62767422 -13.9375 78.5625 C-14.70964844 77.98628906 -15.48179687 77.41007812 -16.27734375 76.81640625 C-18 75 -18 75 -18.43359375 72.640625 C-19.23379363 68.91003798 -21.5377088 66.82937721 -24.125 64.1875 C-25.13217399 63.12562899 -26.13868456 62.06312836 -27.14453125 61 C-27.63518066 60.48695312 -28.12583008 59.97390625 -28.63134766 59.4453125 C-33.63250089 54.16403759 -38.27722081 48.52910734 -43 43 C-38.97748696 34.11780115 -31.13772352 26.92729605 -24.375 20.0625 C-23.75407471 19.42401123 -23.13314941 18.78552246 -22.4934082 18.12768555 C-19.62943883 15.267506 -16.94023656 12.80700214 -13.37890625 10.85546875 C-9.95292428 8.97414917 -7.4141718 6.90635182 -4.5625 4.25 C-3.26505859 3.05117188 -3.26505859 3.05117188 -1.94140625 1.828125 C-0.98041016 0.92320313 -0.98041016 0.92320313 0 0 Z " fill="#32292B" transform="translate(153,57)"/>
<path d="M0 0 C3.60428742 -0.95192241 6.39050507 -0.98104221 10 0 C14.35784143 3.13439775 17.82966682 7.41590974 21.43896484 11.35498047 C28.89315713 19.21021156 38.39824865 25.41400724 47.00390625 31.95703125 C51.36223613 35.27108195 55.69006455 38.62326995 60 42 C57.5532639 44.4467361 56.40881471 44.63562599 53 45 C46.25601561 44.02089839 39.97893867 42.30415032 34 39 C33.01 39 32.02 39 31 39 C29.97516702 38.02546557 28.98206704 37.01761698 28 36 C25.80400917 34.43627389 23.59752043 32.89977298 21.375 31.375 C15.29071428 27.13194894 10.01459875 22.49217958 5 17 C5.33 16.34 5.66 15.68 6 15 C10.06990421 16.23043616 13.42474206 17.70816798 17 20 C17.928125 20.556875 18.85625 21.11375 19.8125 21.6875 C20.534375 22.120625 21.25625 22.55375 22 23 C20.99710938 22.15824219 19.99421875 21.31648438 18.9609375 20.44921875 C15.01476251 17.06465305 11.30185269 13.48543281 7.625 9.8125 C6.99722656 9.19697266 6.36945313 8.58144531 5.72265625 7.94726562 C5.12582031 7.35236328 4.52898437 6.75746094 3.9140625 6.14453125 C3.1089624 5.34559448 3.1089624 5.34559448 2.28759766 4.53051758 C1 3 1 3 0 0 Z " fill="#CCC4B6" transform="translate(103,111)"/>
<path d="M0 0 C0 4.04146836 -1.38329637 4.7699129 -4.19921875 7.59765625 C-5.51889648 8.92313477 -5.51889648 8.92313477 -6.86523438 10.27539062 C-7.79658203 11.19513672 -8.72792969 12.11488281 -9.6875 13.0625 C-11.05551758 14.44791992 -11.05551758 14.44791992 -12.45117188 15.86132812 C-13.33740234 16.74369141 -14.22363281 17.62605469 -15.13671875 18.53515625 C-15.94842529 19.343479 -16.76013184 20.15180176 -17.59643555 20.98461914 C-20.0236462 23.01982726 -22.032996 23.96827113 -25 25 C-26.19471577 25.85806917 -27.36431447 26.75270224 -28.5 27.6875 C-30.30078125 29.0390625 -30.30078125 29.0390625 -32 30 C-34.6875 29.5625 -34.6875 29.5625 -37 29 C-39.33454661 30.83358335 -39.33454661 30.83358335 -41 33 C-41.66 32.67 -42.32 32.34 -43 32 C-40.03 29.36 -37.06 26.72 -34 24 C-34.33 23.34 -34.66 22.68 -35 22 C-43.83038923 27.44504149 -52.59919832 32.90134109 -61 39 C-61.66 38.67 -62.32 38.34 -63 38 C-48.57530563 19.06255208 -32.78889942 6.26111959 -9 2 C-7.20617853 1.61404924 -5.41410545 1.2197532 -3.625 0.8125 C-1.830625 0.4103125 -1.830625 0.4103125 0 0 Z " fill="#C4BDB0" transform="translate(166,38)"/>
<path d="M0 0 C0.66 0 1.32 0 2 0 C9.38192707 20.53292319 6.70398164 45.20060885 -2 65 C-10.38823902 82.50097398 -22.46969925 97.57925899 -39 108 C-39.93714844 108.59683594 -40.87429687 109.19367188 -41.83984375 109.80859375 C-64.55124704 123.68612664 -91.63660382 127.68735807 -117.4921875 121.65625 C-118.31976563 121.4396875 -119.14734375 121.223125 -120 121 C-120 120.67 -120 120.34 -120 120 C-118.93152832 120.01047363 -117.86305664 120.02094727 -116.76220703 120.03173828 C-112.75524312 120.06824755 -108.74829358 120.09101174 -104.74121094 120.10986328 C-103.01494871 120.11985099 -101.28870309 120.13344583 -99.5625 120.15087891 C-86.14467998 120.38750077 -86.14467998 120.38750077 -73 118 C-72.33613281 117.81228027 -71.67226562 117.62456055 -70.98828125 117.43115234 C-64.21549302 115.39691661 -57.52480218 113.00542769 -51.125 109.9921875 C-49 109 -49 109 -45.6953125 107.7890625 C-41.28493868 105.9084791 -38.24281678 102.8382096 -34.875 99.5 C-31.07726936 95.78464964 -27.61119595 92.69052569 -23 90 C-21.25636672 88.21989442 -21.25636672 88.21989442 -19.8125 86.3125 C-18.33203125 84.42578125 -18.33203125 84.42578125 -17 83 C-16.34 83 -15.68 83 -15 83 C-14.82210937 81.89205078 -14.82210937 81.89205078 -14.640625 80.76171875 C-14.00766784 78.03305588 -13.16945691 76.20671054 -11.75 73.8125 C-11.07710937 72.63300781 -11.07710937 72.63300781 -10.390625 71.4296875 C-9.93171875 70.62789063 -9.4728125 69.82609375 -9 69 C-5.7035294 63.1599564 -3.27498349 57.25177927 -1.25 50.875 C-1.03923828 50.21814209 -0.82847656 49.56128418 -0.61132812 48.88452148 C1.69264057 41.32391602 2.19402757 33.85674867 2.1875 26 C2.1884668 24.7773645 2.1884668 24.7773645 2.18945312 23.5300293 C2.12170464 15.58882957 1.2109681 7.83885598 0 0 Z " fill="#9B9489" transform="translate(193,73)"/>
<path d="M0 0 C5.19077654 1.64667146 8.13011782 6.67698893 11.42578125 10.76953125 C16.04839925 15.72945471 20.56549401 20.31346442 26.42578125 23.76953125 C24.61328125 24.45703125 24.61328125 24.45703125 22.42578125 24.76953125 C21.40985384 23.78571649 20.41277283 22.78237261 19.42578125 21.76953125 C17.97642102 20.84599784 16.49429988 19.97246055 14.98828125 19.14453125 C14.22644531 18.71914062 13.46460937 18.29375 12.6796875 17.85546875 C10.50625895 16.70019106 10.50625895 16.70019106 8.296875 16.30859375 C5.08003573 15.38182168 3.51518983 12.27682155 1.42578125 9.76953125 C-0.48360644 8.45693544 -0.48360644 8.45693544 -2.57421875 8.76953125 C-5.68652254 10.76459778 -7.81519276 13.04241022 -10.01171875 15.95703125 C-12.57421875 18.76953125 -12.57421875 18.76953125 -15.1015625 19.08984375 C-20.25230159 20.09797491 -24.22812971 22.7852975 -28.69921875 25.45703125 C-30.5793457 26.5570555 -32.46084867 27.65473141 -34.34375 28.75 C-35.24561035 29.27513184 -36.1474707 29.80026367 -37.07666016 30.34130859 C-41.80088787 33.04284643 -46.6663695 35.42060816 -51.57421875 37.76953125 C-53.15903738 38.55822033 -54.74253357 39.34957683 -56.32421875 40.14453125 C-57.39671875 40.68078125 -58.46921875 41.21703125 -59.57421875 41.76953125 C-59.57421875 43.08953125 -59.57421875 44.40953125 -59.57421875 45.76953125 C-62.21421875 46.09953125 -64.85421875 46.42953125 -67.57421875 46.76953125 C-58.80723827 37.81022213 -48.95543476 30.1457651 -38.86791992 22.74194336 C-38.22185791 22.26635986 -37.5757959 21.79077637 -36.91015625 21.30078125 C-36.3382959 20.88376953 -35.76643555 20.46675781 -35.17724609 20.03710938 C-33.51161611 18.72002883 -32.04567777 17.29829094 -30.57421875 15.76953125 C-29.91421875 16.09953125 -29.25421875 16.42953125 -28.57421875 16.76953125 C-29.06792969 17.25164062 -29.56164062 17.73375 -30.0703125 18.23046875 C-31.03130859 19.17792969 -31.03130859 19.17792969 -32.01171875 20.14453125 C-32.96884766 21.08425781 -32.96884766 21.08425781 -33.9453125 22.04296875 C-35.65304051 23.68676186 -35.65304051 23.68676186 -36.57421875 25.76953125 C-30.54289924 22.18127787 -25.06806623 18.67265536 -20.26171875 13.53125 C-17.78432298 10.94489469 -15.07025584 8.66121153 -12.33984375 6.34765625 C-10.43288269 4.73266262 -10.43288269 4.73266262 -8.63671875 2.33203125 C-5.76582521 0.1571119 -3.57179462 -0.15783708 0 0 Z " fill="#32292B" transform="translate(100.57421875,110.23046875)"/>
<path d="M0 0 C5.72554976 4.25906017 11.37992202 8.60280936 17 13 C13.93643124 8.9937947 10.59888856 5.51709564 7 2 C7.33 1.34 7.66 0.68 8 0 C17.10695515 8.99278889 26.10751448 17.89761854 34 28 C31.76767009 32.46465983 28.59717062 35.53333983 25.03515625 38.9375 C22.91447015 40.98846517 22.91447015 40.98846517 21.11328125 43.55859375 C18.66546304 46.38647986 16.51200258 47.51551027 13.125 49.0625 C8.79859633 51.10934379 4.87533667 53.20114574 1 56 C1 55.34 1 54.68 1 54 C0.34 53.67 -0.32 53.34 -1 53 C-0.27683594 52.64421875 0.44632813 52.2884375 1.19140625 51.921875 C4.64165592 49.56092529 6.65032439 46.66865959 8.9375 43.25 C9.80606261 41.99043833 10.6771394 40.7326065 11.55078125 39.4765625 C11.9679541 38.87618164 12.38512695 38.27580078 12.81494141 37.65722656 C15.01144773 34.58555683 17.46910718 31.79730259 20 29 C18.62756503 26.0594196 17.03866503 23.5699331 15.06640625 20.99609375 C14.2165918 19.88524414 14.2165918 19.88524414 13.34960938 18.75195312 C12.75986328 17.98818359 12.17011719 17.22441406 11.5625 16.4375 C10.97662109 15.66986328 10.39074219 14.90222656 9.78710938 14.11132812 C7.32059729 10.90010297 4.91867923 7.81485469 2 5 C1 4 0 3 -1 2 C-0.67 1.34 -0.34 0.68 0 0 Z " fill="#4F4649" transform="translate(52,70)"/>
<path d="M0 0 C4.95 0.99 9.9 1.98 15 3 C13.68 3.33 12.36 3.66 11 4 C11 4.99 11 5.98 11 7 C11.66 7 12.32 7 13 7 C13 7.66 13 8.32 13 9 C13.83144531 9.25265625 14.66289063 9.5053125 15.51953125 9.765625 C19.42134682 11.14943389 23.00510827 12.87266748 26.6875 14.75 C27.38431885 15.10271973 28.0811377 15.45543945 28.79907227 15.81884766 C45.70946814 24.41893628 45.70946814 24.41893628 47 27 C47.99 26.67 48.98 26.34 50 26 C49.67 24.35 49.34 22.7 49 21 C51.5 22.375 51.5 22.375 54 24 C54 24.66 54 25.32 54 26 C54.66 26 55.32 26 56 26 C57.5078125 27.75 57.5078125 27.75 59.125 30 C59.66382813 30.7425 60.20265625 31.485 60.7578125 32.25 C61.16773438 32.8275 61.57765625 33.405 62 34 C58.68674832 33.59839374 56.27065603 32.68523936 53.4375 31 C50.75901106 29.44160643 48.98749787 28.47799966 46 28 C48.16480178 32.46490366 51.20836551 35.02586656 54.92578125 38.15234375 C57.9563823 40.8519187 60.43588143 43.85895475 63 47 C61.60190528 46.74109357 60.20657858 46.46722539 58.8125 46.1875 C58.03519531 46.03667969 57.25789063 45.88585937 56.45703125 45.73046875 C50.73905736 44.03053057 47.23834717 40.36289318 43.25 36.125 C37.71241392 30.40875615 31.78710003 25.57759299 25.4074707 20.83569336 C18.31337947 15.55117952 11.6395539 9.8398612 5 4 C5.62390625 4.76699219 6.2478125 5.53398438 6.890625 6.32421875 C8.83708114 8.79333441 10.44246483 11.27431346 12 14 C9.525 13.01 9.525 13.01 7 12 C6.34 13.32 5.68 14.64 5 16 C4.83564453 14.98679687 4.83564453 14.98679687 4.66796875 13.953125 C4.50941406 13.06109375 4.35085937 12.1690625 4.1875 11.25 C3.96126953 9.92742188 3.96126953 9.92742188 3.73046875 8.578125 C2.94333232 5.79999644 1.77635698 4.23869646 0 2 C0 1.34 0 0.68 0 0 Z " fill="#8F888A" transform="translate(30,38)"/>
<path d="M0 0 C0.66 0.33 1.32 0.66 2 1 C1.43410156 1.55429688 0.86820313 2.10859375 0.28515625 2.6796875 C-0.81505859 3.76636719 -0.81505859 3.76636719 -1.9375 4.875 C-2.66839844 5.59429687 -3.39929688 6.31359375 -4.15234375 7.0546875 C-6.05667999 8.87027192 -6.05667999 8.87027192 -7 11 C-7.66 11 -8.32 11 -9 11 C-9 11.66 -9 12.32 -9 13 C-9.66 13 -10.32 13 -11 13 C-11 13.66 -11 14.32 -11 15 C-11.66 15 -12.32 15 -13 15 C-13.268125 15.598125 -13.53625 16.19625 -13.8125 16.8125 C-15 19 -15 19 -16.5 20.3125 C-18.29213633 22.04370279 -18.29213633 22.04370279 -18.65625 25.24609375 C-20.40170269 30.1221985 -22.87520681 31.84276625 -27 34.75 C-28.27367692 35.67840305 -29.54462827 36.61055968 -30.8125 37.546875 C-31.37582031 37.94745117 -31.93914063 38.34802734 -32.51953125 38.76074219 C-34.28230336 40.11798057 -34.28230336 40.11798057 -36 43 C-36.99 43 -37.98 43 -39 43 C-37 38 -37 38 -36.015625 35.6953125 C-34.93927431 32.83884337 -34.27707799 30.04287998 -33.625 27.0625 C-31.47609333 18.40335885 -27.07148199 13.27094037 -20 8 C-19.01 7.67 -18.02 7.34 -17 7 C-16.01 7.66 -15.02 8.32 -14 9 C-13.32453125 8.51789063 -12.6490625 8.03578125 -11.953125 7.5390625 C-11.06109375 6.90742187 -10.1690625 6.27578125 -9.25 5.625 C-8.36828125 4.99851562 -7.4865625 4.37203125 -6.578125 3.7265625 C-4.4108392 2.27513777 -2.42356585 0.9588891 0 0 Z " fill="#C9C3B4" transform="translate(68,116)"/>
<path d="M0 0 C0 4.07650559 -1.8236476 6.32715481 -3.90625 9.74609375 C-5.29105302 12.18223196 -5.29105302 12.18223196 -5 16 C-5.94875 16.2475 -6.8975 16.495 -7.875 16.75 C-11.57312252 18.22924901 -11.4046818 18.60052195 -13 22 C-15.8930689 26.08098914 -18.95419345 30.0325059 -22 34 C-22.50402344 34.68707031 -23.00804687 35.37414062 -23.52734375 36.08203125 C-25.32665303 38.44470254 -26.63741025 39.8605424 -29.4375 40.9375 C-32.41034133 41.01000833 -35.08837752 40.5823245 -38 40 C-38.66 40 -39.32 40 -40 40 C-39.55972183 35.55426436 -36.50378924 32.94089336 -33.5625 29.875 C-33.02407471 29.30531494 -32.48564941 28.73562988 -31.9309082 28.14868164 C-30.29491515 26.42497295 -28.64776253 24.71244949 -27 23 C-26.07545348 22.0221991 -25.15096971 21.04433886 -24.2265625 20.06640625 C-20.34846833 16.05108721 -16.89001527 12.60405427 -11.87109375 10.13671875 C-7.43879885 7.4440302 -3.76182473 3.54232188 0 0 Z " fill="#32282B" transform="translate(153,57)"/>
<path d="M0 0 C12.75306161 1.68927017 21.21402055 10.36767043 30 19 C30.99 18.67 31.98 18.34 33 18 C33.75390625 19.69921875 33.75390625 19.69921875 34 22 C32.33984375 24.39453125 32.33984375 24.39453125 29.9375 26.8125 C29.16277344 27.62332031 28.38804688 28.43414062 27.58984375 29.26953125 C25 31 25 31 22.12109375 31.171875 C17.75270738 29.53167987 15.26486389 26.80823624 12.125 23.4375 C11.53203125 22.82197266 10.9390625 22.20644531 10.328125 21.57226562 C8.87377978 20.05927745 7.4352694 18.531096 6 17 C6.33 16.01 6.66 15.02 7 14 C7.556875 14.7115625 7.556875 14.7115625 8.125 15.4375 C10.61993743 17.51661453 12.83288699 17.55797745 16 18 C14.27399233 16.2467873 12.54435703 14.49741929 10.8125 12.75 C10.32974609 12.25886719 9.84699219 11.76773438 9.34960938 11.26171875 C7.02270317 8.91919573 4.77818097 6.83174437 2.13671875 4.828125 C1.43160156 4.22484375 0.72648437 3.6215625 0 3 C0 2.01 0 1.02 0 0 Z " fill="#483F43" transform="translate(76,66)"/>
<path d="M0 0 C3.60428742 -0.95192241 6.39050507 -0.98104221 10 0 C14.35784143 3.13439775 17.82966682 7.41590974 21.43896484 11.35498047 C26.45033558 16.63596514 32.51035677 20.87168987 38.2890625 25.265625 C39.04541992 25.84119141 39.80177734 26.41675781 40.58105469 27.00976562 C42.07547716 28.14346543 43.57336737 29.27261313 45.07519531 30.39648438 C49.02143637 33.37401939 52.60430314 36.40455626 56 40 C49.31763058 37.57004748 44.0353991 34.21309376 38.77734375 29.52734375 C35.99599559 27.13721819 33.01150305 25.08961436 30 23 C30 23.99 30 24.98 30 26 C20.98629563 24.25016123 14.1957428 16.47622561 7.9375 10.25 C7.27000732 9.58790527 6.60251465 8.92581055 5.91479492 8.24365234 C1.12883269 3.38649807 1.12883269 3.38649807 0 0 Z " fill="#D6D0C1" transform="translate(103,111)"/>
<path d="M0 0 C3.65316671 1.24976756 4.78065836 1.67098753 7 5 C7.99 5.33 8.98 5.66 10 6 C10.67100975 7.33115294 11.33733732 8.66467218 12 10 C13.6216848 11.33129223 13.6216848 11.33129223 15.5625 12.375 C18.57540889 14.14156169 21.45313886 15.99433301 24.3125 18 C31.79964363 22.97869585 39.85506152 26.08577023 48.375 28.8125 C49.05312744 29.03172119 49.73125488 29.25094238 50.42993164 29.47680664 C54.0827362 30.59987529 57.19486038 31.12422277 61 31 C62.33849535 31.31196007 63.6719105 31.64635165 65 32 C79.88855661 34.21316382 94.09948316 32.27150321 108.05859375 26.92578125 C111 26 111 26 114 27 C109.89692403 28.82358932 105.75776188 30.52402262 101.5625 32.125 C100.69753906 32.45757812 99.83257812 32.79015625 98.94140625 33.1328125 C90.89833123 35.50407765 82.62225109 35.15156287 74.3125 35.125 C73.12205078 35.12886719 71.93160156 35.13273437 70.70507812 35.13671875 C44.67710295 35.10841209 26.35813431 27.30267167 8 9 C7.10152344 8.11441406 6.20304687 7.22882813 5.27734375 6.31640625 C3.29978774 4.30492989 1.6201492 2.30231729 0 0 Z " fill="#B3ADA0" transform="translate(22,159)"/>
<path d="M0 0 C0.66 0.33 1.32 0.66 2 1 C0.61811547 4.21043882 -0.92421903 6.04936365 -3.625 8.25 C-4.25664063 8.77078125 -4.88828125 9.2915625 -5.5390625 9.828125 C-6.02117187 10.21484375 -6.50328125 10.6015625 -7 11 C-5.02 9.68 -3.04 8.36 -1 7 C-1 10 -1 10 -2.46875 11.796875 C-3.1390625 12.44140625 -3.809375 13.0859375 -4.5 13.75 C-5.22703125 14.44996094 -5.9540625 15.14992188 -6.703125 15.87109375 C-11.30680562 20.13811065 -15.94339995 24.27467297 -21 28 C-21.66 27.34 -22.32 26.68 -23 26 C-23.99 26 -24.98 26 -26 26 C-28.6875 23.5 -28.6875 23.5 -31 21 C-30.505 19.515 -30.505 19.515 -30 18 C-28.35553435 17.28030912 -26.68357275 16.62273993 -25 16 C-23.15777632 14.89480171 -21.34262178 13.7437346 -19.55078125 12.55859375 C-18.53822266 11.89279297 -17.52566406 11.22699219 -16.48242188 10.54101562 C-15.43634766 9.84685547 -14.39027344 9.15269531 -13.3125 8.4375 C-11.2258118 7.06036208 -9.13859894 5.6840187 -7.05078125 4.30859375 C-6.12950439 3.69814209 -5.20822754 3.08769043 -4.2590332 2.45874023 C-2 1 -2 1 0 0 Z " fill="#DDD7C7" transform="translate(131,59)"/>
<path d="M0 0 C8.94766688 -0.17895334 8.94766688 -0.17895334 13 1 C15.09981098 3.14699775 16.76141289 5.09456608 18.5 7.5 C18.97848389 8.13204346 19.45696777 8.76408691 19.94995117 9.4152832 C22.56976771 12.91030098 24.99303148 16.48491832 27.3125 20.1875 C29.63424594 23.82918897 31.84599542 25.51642694 36 27 C35.01 27.495 35.01 27.495 34 28 C34.66 29.65 35.32 31.3 36 33 C31.31027035 29.00874073 26.68949542 24.95306248 22.11328125 20.83203125 C17.70447793 17.00998179 13.889436 14.62813826 8.125 13.375 C3.55272959 11.36320102 1.0419834 7.86997889 -2 4 C-1.34 2.68 -0.68 1.36 0 0 Z " fill="#352C2E" transform="translate(112,96)"/>
<path d="M0 0 C8.26809628 3.83609872 14.78630758 10.48154882 21 17 C20.67 15.68 20.34 14.36 20 13 C20.99 12.67 21.98 12.34 23 12 C25.04296875 13.21484375 25.04296875 13.21484375 27.1875 14.9375 C27.90292969 15.50339844 28.61835938 16.06929687 29.35546875 16.65234375 C29.89816406 17.09707031 30.44085938 17.54179687 31 18 C30.34 18.33 29.68 18.66 29 19 C29 19.99 29 20.98 29 22 C29.99 22.33 30.98 22.66 32 23 C33.1875 25.0625 33.1875 25.0625 34 27 C34.66 26.67 35.32 26.34 36 26 C36.55978184 27.57701982 37.09719401 29.16199242 37.625 30.75 C37.92664063 31.63171875 38.22828125 32.5134375 38.5390625 33.421875 C39.07333427 36.41017471 38.62433191 37.49923002 37 40 C37 39.34 37 38.68 37 38 C36.34 38 35.68 38 35 38 C33.64196324 36.28340568 32.50169742 34.46815118 31.31640625 32.62890625 C29.99986714 30.70046284 29.99986714 30.70046284 27 30 C25.75450548 28.56932405 24.57893578 27.07749658 23.4375 25.5625 C18.11189738 18.84336469 12.06190317 12.92768905 5.94506836 6.93188477 C5.17815674 6.17834717 4.41124512 5.42480957 3.62109375 4.6484375 C2.9242749 3.96958496 2.22745605 3.29073242 1.50952148 2.59130859 C0 1 0 1 0 0 Z " fill="#C2BAAC" transform="translate(126,111)"/>
<path d="M0 0 C0.99 0.66 1.98 1.32 3 2 C4.65549531 2.38499891 6.3222433 2.72793135 8 3 C3.87502289 12.44752822 -4.10913273 18.70734638 -13.28125 22.78515625 C-16.48779553 24.21796611 -19.16195976 25.95030427 -22 28 C-22 27.34 -22 26.68 -22 26 C-22.66 25.67 -23.32 25.34 -24 25 C-22.90945312 24.46439453 -22.90945312 24.46439453 -21.796875 23.91796875 C-18.38068913 21.57530498 -16.47792164 18.71774207 -14.25 15.3125 C-10.16477824 9.30500361 -5.76824322 4.48641139 0 0 Z " fill="#33292C" transform="translate(75,98)"/>
<path d="M0 0 C0.6875 1.8125 0.6875 1.8125 1 4 C-0.25 5.4375 -0.25 5.4375 -2 7 C-2.42410156 7.72703125 -2.84820312 8.4540625 -3.28515625 9.203125 C-5.30387003 12.49560578 -7.69060337 15.38105074 -10.1875 18.3125 C-10.65091797 18.86228516 -11.11433594 19.41207031 -11.59179688 19.97851562 C-12.72471863 21.32167028 -13.8619226 22.66121101 -15 24 C-13.43767979 27.67956291 -11.16415918 30.16515793 -8.4375 33.0625 C-1.9352236 40.09173368 4.02335481 47.52249324 10 55 C9.67 55.66 9.34 56.32 9 57 C7.34190442 55.61875523 5.69889493 54.21938652 4.0625 52.8125 C3.14597656 52.03519531 2.22945312 51.25789063 1.28515625 50.45703125 C-1.14170172 47.84764038 -1.70843302 46.49260024 -2 43 C-2.99 43 -3.98 43 -5 43 C-5 42.34 -5 41.68 -5 41 C-5.61875 40.7525 -6.2375 40.505 -6.875 40.25 C-9.40358627 38.76259631 -9.71839004 37.56321991 -11 35 C-11.61230469 34.69835937 -12.22460938 34.39671875 -12.85546875 34.0859375 C-15.22856546 32.88426011 -16.56192956 31.61448204 -18.3125 29.625 C-18.84488281 29.03976563 -19.37726563 28.45453125 -19.92578125 27.8515625 C-21 26 -21 26 -20.8828125 24.0390625 C-19.79302319 21.52193852 -18.38564414 19.79677304 -16.5625 17.75 C-15.94503906 17.04359375 -15.32757813 16.3371875 -14.69140625 15.609375 C-13 14 -13 14 -11 14 C-10.7525 13.4225 -10.505 12.845 -10.25 12.25 C-8.81700012 9.67060021 -7.21575324 7.93878408 -5 6 C-4.34 6 -3.68 6 -3 6 C-3 5.01 -3 4.02 -3 3 C-2.34 3 -1.68 3 -1 3 C-0.67 2.01 -0.34 1.02 0 0 Z " fill="#787170" transform="translate(126,74)"/>
<path d="M0 0 C0.66 0.33 1.32 0.66 2 1 C0.88200014 2.33920838 -0.24461897 3.67122556 -1.375 5 C-2.31472656 6.11375 -2.31472656 6.11375 -3.2734375 7.25 C-3.84320313 7.8275 -4.41296875 8.405 -5 9 C-5.66 9 -6.32 9 -7 9 C-7 9.99 -7 10.98 -7 12 C-8.49609375 13.53515625 -8.49609375 13.53515625 -10.4375 15.0625 C-13.15875193 17.1671333 -13.15875193 17.1671333 -15 20 C-15.66 20 -16.32 20 -17 20 C-17.226875 20.556875 -17.45375 21.11375 -17.6875 21.6875 C-19 24 -19 24 -21.6875 26.5 C-22.8321875 27.7375 -22.8321875 27.7375 -24 29 C-23.69390872 32.23675248 -22.38037621 34.06004407 -20.25 36.4375 C-19.71246094 37.03820312 -19.17492187 37.63890625 -18.62109375 38.2578125 C-15.57386427 41.53266635 -12.73101446 44.51265703 -9 47 C-9 47.66 -9 48.32 -9 49 C-8.01 49 -7.02 49 -6 49 C-6 49.99 -6 50.98 -6 52 C-5.34 52.33 -4.68 52.66 -4 53 C-0.69745052 56.12873109 2.22247082 59.39949921 5 63 C0.9017862 61.34285302 -2.02284062 58.42457218 -5.1875 55.4375 C-5.76266357 54.9010083 -6.33782715 54.3645166 -6.93041992 53.81176758 C-11.02379196 49.97433841 -14.99887289 46.03118723 -18.93359375 42.03125 C-21.59723402 39.41292686 -24.40502583 36.9958118 -27.2734375 34.60546875 C-29.12222547 32.88634691 -30.54487913 31.0577016 -32 29 C-31.25596924 28.58266602 -30.51193848 28.16533203 -29.74536133 27.73535156 C-27.13331071 26.08426612 -25.22181027 24.43890508 -23.07421875 22.234375 C-22.00204102 21.14576172 -22.00204102 21.14576172 -20.90820312 20.03515625 C-20.17537109 19.28105469 -19.44253906 18.52695313 -18.6875 17.75 C-13.82567508 12.77086564 -8.93349349 7.94129752 -3.63989258 3.41894531 C-2.38110192 2.329755 -1.17704916 1.17704916 0 0 Z " fill="#312829" transform="translate(130,68)"/>
<path d="M0 0 C1.33332095 2.6666419 0.67102033 4.16680303 0 7 C0.66 7 1.32 7 2 7 C2.33 6.01 2.66 5.02 3 4 C3.66 3.34 4.32 2.68 5 2 C5.495 3.98 5.495 3.98 6 6 C5.34 6 4.68 6 4 6 C4 6.99 4 7.98 4 9 C5.65 8.34 7.3 7.68 9 7 C6.19195732 9.96404505 3.81684226 12.44499019 0 14 C0.66 12.35 1.32 10.7 2 9 C-3.55801377 11.66167104 -8.66277772 14.5929936 -13.75 18.0625 C-14.39582031 18.49626953 -15.04164062 18.93003906 -15.70703125 19.37695312 C-18.86651327 21.50814377 -21.97945637 23.67357119 -25 26 C-25.66 25.67 -26.32 25.34 -27 25 C-10.97668352 3.96380238 -10.97668352 3.96380238 0 0 Z " fill="#CBC5B8" transform="translate(130,51)"/>
<path d="M0 0 C1.52734375 1.453125 1.52734375 1.453125 2.9375 3.25 C5.4346497 6.39404363 8.15198121 9.16811729 11 12 C13.4155697 14.5232792 15.80241161 17.0729305 18.1875 19.625 C18.81591797 20.29273437 19.44433594 20.96046875 20.09179688 21.6484375 C20.69443359 22.29296875 21.29707031 22.9375 21.91796875 23.6015625 C22.46219482 24.18244629 23.0064209 24.76333008 23.56713867 25.36181641 C25 27 25 27 27 30 C17.05495432 26.54785285 10.01595569 18.31010506 3.77734375 10.1875 C2.18515354 7.92084016 2.18515354 7.92084016 0 7 C-0.33 8.65 -0.66 10.3 -1 12 C-4.07692057 9.23077149 -5.77800007 6.97149976 -7 3 C-7 2.01 -7 1.02 -7 0 C-3.83612773 -1.05462409 -3.0064327 -1.15315227 0 0 Z " fill="#EAE6DD" transform="translate(44,54)"/>
<path d="M0 0 C-4.10307597 1.82358932 -8.24223812 3.52402262 -12.4375 5.125 C-13.30246094 5.45757812 -14.16742188 5.79015625 -15.05859375 6.1328125 C-23.1790939 8.52690418 -31.54815161 8.15142314 -39.9375 8.125 C-41.77344727 8.13080078 -41.77344727 8.13080078 -43.64648438 8.13671875 C-50.18332251 8.12968611 -56.52152863 7.88056892 -63 7 C-63 6.34 -63 5.68 -63 5 C-65.97 4.505 -65.97 4.505 -69 4 C-69 3.34 -69 2.68 -69 2 C-70.65 1.67 -72.3 1.34 -74 1 C-70.17068213 -0.46009962 -67.80813832 0.5346569 -64.0625 1.9375 C-60.12897638 3.40449048 -57.18189381 4.11712058 -53 4 C-51.66150465 4.31196007 -50.3280895 4.64635165 -49 5 C-34.11144339 7.21316382 -19.90051684 5.27150321 -5.94140625 -0.07421875 C-3 -1 -3 -1 0 0 Z " fill="#CBC5B4" transform="translate(136,186)"/>
<path d="M0 0 C-0.33 0.66 -0.66 1.32 -1 2 C-3.37898503 2.78607361 -5.70052825 3.45406864 -8.125 4.0625 C-8.77726562 4.23587891 -9.42953125 4.40925781 -10.1015625 4.58789062 C-26.35153346 8.79547239 -43.82422755 8.23291242 -60 4 C-60 3.67 -60 3.34 -60 3 C-58.94200195 3.00523682 -57.88400391 3.01047363 -56.79394531 3.01586914 C-52.81299712 3.03417202 -48.83205253 3.04552301 -44.85107422 3.05493164 C-43.13850272 3.05991472 -41.42593537 3.0667036 -39.71337891 3.07543945 C-26.60644457 3.1405528 -12.49735318 -0.73513842 0 0 Z " fill="#9F998B" transform="translate(133,190)"/>
<path d="M0 0 C0 3.63369547 -1.0007221 4.90701223 -2.9375 7.9375 C-4.90093548 11.01494142 -6.13896147 13.48097298 -7 17 C-9.25 19.4375 -9.25 19.4375 -12 22 C-12.825 22.86625 -13.65 23.7325 -14.5 24.625 C-17 27 -17 27 -19.2734375 28.27734375 C-22.08461919 30.05346284 -24.16213131 31.99771913 -26.50439453 34.3293457 C-32.25805649 40.03880207 -37.69311762 44.68305523 -46 46 C-46.99 45.67 -47.98 45.34 -49 45 C-47.94941406 44.43152344 -46.89882812 43.86304688 -45.81640625 43.27734375 C-35.05230044 37.38619506 -25.79491154 31.63604096 -18 22 C-14.4556962 18.15189873 -14.4556962 18.15189873 -11 17 C-10.26676204 14.98491642 -10.26676204 14.98491642 -10 13 C-9.34 13 -8.68 13 -8 13 C-8 12.01 -8 11.02 -8 10 C-7.34 10 -6.68 10 -6 10 C-5.7525 9.278125 -5.505 8.55625 -5.25 7.8125 C-3.89016326 4.75286734 -2.17082246 2.5326262 0 0 Z " fill="#CBC5B3" transform="translate(185,139)"/>
<path d="M0 0 C0.66 0.33 1.32 0.66 2 1 C1.4946875 1.47050781 0.989375 1.94101563 0.46875 2.42578125 C-0.1809375 3.04839844 -0.830625 3.67101562 -1.5 4.3125 C-2.1496875 4.92738281 -2.799375 5.54226562 -3.46875 6.17578125 C-5.3214614 7.98601529 -5.3214614 7.98601529 -5 11 C-6.97946592 12.36363208 -8.9819245 13.69418644 -11 15 C-11.67289063 15.97259766 -11.67289063 15.97259766 -12.359375 16.96484375 C-14.43766091 19.54290793 -16.40040564 20.34752476 -19.4375 21.625 C-20.38496094 22.02976563 -21.33242188 22.43453125 -22.30859375 22.8515625 C-23.19675781 23.23054688 -24.08492187 23.60953125 -25 24 C-26.339076 24.65505548 -27.67491093 25.31709358 -29 26 C-29 27.32 -29 28.64 -29 30 C-32.96 30.495 -32.96 30.495 -37 31 C-28.23301952 22.04069088 -18.38121601 14.37623385 -8.29370117 6.97241211 C-7.64763916 6.49682861 -7.00157715 6.02124512 -6.3359375 5.53125 C-5.76407715 5.11423828 -5.1922168 4.69722656 -4.60302734 4.26757812 C-2.93739736 2.95049758 -1.47145902 1.52875969 0 0 Z " fill="#362E2E" transform="translate(70,126)"/>
<path d="M0 0 C3.04866143 1.39815569 5.4689452 3.06902626 8.0625 5.1875 C13.79882181 9.71966831 19.91152434 14.41196214 26.765625 17.07421875 C29 18 29 18 30 20 C23.6 22.21538462 23.6 22.21538462 20.5625 21.125 C20.046875 20.75375 19.53125 20.3825 19 20 C19.66 20 20.32 20 21 20 C21 19.34 21 18.68 21 18 C20.34 18 19.68 18 19 18 C18.78085938 17.39800781 18.56171875 16.79601562 18.3359375 16.17578125 C16.54973446 13.2666728 14.72192344 12.5616041 11.625 11.1875 C10.66851562 10.74792969 9.71203125 10.30835938 8.7265625 9.85546875 C5.90262051 8.96944684 4.71372242 8.95180864 2 10 C1.34 8.35 0.68 6.7 0 5 C-0.99 5 -1.98 5 -3 5 C-3 4.34 -3 3.68 -3 3 C-2.01 3 -1.02 3 0 3 C0 2.01 0 1.02 0 0 Z " fill="#A19B8F" transform="translate(133,134)"/>
<path d="M0 0 C-4.95010869 6.2879759 -10.7178043 11.07037669 -17 16 C-17.66 15.67 -18.32 15.34 -19 15 C-18.979375 14.21625 -18.95875 13.4325 -18.9375 12.625 C-18.81315937 10.01885039 -18.81315937 10.01885039 -20 8 C-17.42474285 6.46382917 -14.841326 4.94611799 -12.25 3.4375 C-11.15558594 2.78104492 -11.15558594 2.78104492 -10.0390625 2.11132812 C-9.33007812 1.70205078 -8.62109375 1.29277344 -7.890625 0.87109375 C-6.91657715 0.29766235 -6.91657715 0.29766235 -5.92285156 -0.28735352 C-3.5589199 -1.16347293 -2.34057154 -0.82193222 0 0 Z " fill="#A49B92" transform="translate(88,129)"/>
<path d="M0 0 C0 4.04146836 -1.38329637 4.7699129 -4.19921875 7.59765625 C-5.07900391 8.48130859 -5.95878906 9.36496094 -6.86523438 10.27539062 C-8.26225586 11.65500977 -8.26225586 11.65500977 -9.6875 13.0625 C-10.59951172 13.98611328 -11.51152344 14.90972656 -12.45117188 15.86132812 C-13.33740234 16.74369141 -14.22363281 17.62605469 -15.13671875 18.53515625 C-15.94842529 19.343479 -16.76013184 20.15180176 -17.59643555 20.98461914 C-20.02538987 23.02128932 -22.02790344 23.97420175 -25 25 C-27.01345199 26.2509846 -27.01345199 26.2509846 -28.8125 27.625 C-29.864375 28.40875 -30.91625 29.1925 -32 30 C-32.66 29.67 -33.32 29.34 -34 29 C-27.65294082 23.02180799 -21.21294656 17.43707247 -14.15356445 12.31298828 C-10.75273424 9.80688512 -10.75273424 9.80688512 -9 6 C-8.01 6 -7.02 6 -6 6 C-6.33 4.68 -6.66 3.36 -7 2 C-4.69 1.34 -2.38 0.68 0 0 Z " fill="#322928" transform="translate(166,38)"/>
<path d="M0 0 C4.06990421 1.23043616 7.42474206 2.70816798 11 5 C14.25738842 7.03586776 17.39609983 8.66140851 21 10 C20.01 10.66 19.02 11.32 18 12 C18.33 13.98 18.66 15.96 19 18 C11.17772519 14.38021143 4.86011995 8.19929088 -1 2 C-0.67 1.34 -0.34 0.68 0 0 Z " fill="#BCB4AA" transform="translate(109,126)"/>
<path d="M0 0 C9.87352605 9.55502521 18.43830646 20.28345325 27 31 C26.67 31.66 26.34 32.32 26 33 C24.34190442 31.61875523 22.69889493 30.21938652 21.0625 28.8125 C20.14597656 28.03519531 19.22945312 27.25789063 18.28515625 26.45703125 C15.85829828 23.84764038 15.29156698 22.49260024 15 19 C14.01 19 13.02 19 12 19 C12 18.34 12 17.68 12 17 C11.38125 16.7525 10.7625 16.505 10.125 16.25 C7.59641373 14.76259631 7.28160996 13.56321991 6 11 C5.34 10.690625 4.68 10.38125 4 10.0625 C2 9 2 9 0.75 6.625 C0 4 0 4 0 0 Z " fill="#958D8B" transform="translate(109,98)"/>
<path d="M0 0 C0 0.99 0 1.98 0 3 C-0.99 3 -1.98 3 -3 3 C-3.0928125 3.928125 -3.0928125 3.928125 -3.1875 4.875 C-3.455625 5.57625 -3.72375 6.2775 -4 7 C-5.64991582 7.70710678 -7.3207762 8.36562656 -9 9 C-10.02276471 9.86975267 -11.02203755 10.76765935 -12 11.6875 C-15 14 -15 14 -17.875 13.8125 C-18.57625 13.544375 -19.2775 13.27625 -20 13 C-19 10 -19 10 -17 8 C-17 8.66 -17 9.32 -17 10 C-15.68 9.67 -14.36 9.34 -13 9 C-13 8.34 -13 7.68 -13 7 C-12.34 7 -11.68 7 -11 7 C-11 5.68 -11 4.36 -11 3 C-12.65 3 -14.3 3 -16 3 C-16.33 3.66 -16.66 4.32 -17 5 C-17.66 4.34 -18.32 3.68 -19 3 C-16.39816412 2.30238463 -13.79416398 1.61662226 -11.1875 0.9375 C-10.08051758 0.63875977 -10.08051758 0.63875977 -8.95117188 0.33398438 C-3.33984375 -1.11328125 -3.33984375 -1.11328125 0 0 Z " fill="#938B84" transform="translate(160,41)"/>
<path d="M0 0 C2.02910711 0.25327449 4.04962145 0.57730068 6.0625 0.9375 C7.16722656 1.13214844 8.27195312 1.32679687 9.41015625 1.52734375 C10.69212891 1.76130859 10.69212891 1.76130859 12 2 C12.33 3.32 12.66 4.64 13 6 C13.66 5.67 14.32 5.34 15 5 C15.33 6.32 15.66 7.64 16 9 C16.66 9 17.32 9 18 9 C16.68 6.36 15.36 3.72 14 1 C22.36363636 5.18181818 22.36363636 5.18181818 24.3125 10.75 C24.539375 11.8225 24.76625 12.895 25 14 C19.17015235 13.54584653 15.17251707 11.05231206 10.3125 8.0625 C9.55388672 7.60681641 8.79527344 7.15113281 8.01367188 6.68164062 C4.96503648 4.84384894 1.96247421 2.97498281 -1 1 C-0.67 0.67 -0.34 0.34 0 0 Z " fill="#BAB5B1" transform="translate(56,51)"/>
<path d="M0 0 C0.66 0.66 1.32 1.32 2 2 C-3.70503597 9.278839 -3.70503597 9.278839 -7.265625 11.26171875 C-10.39413896 13.25055977 -12.72822293 15.53430887 -15.3125 18.1875 C-16.19550781 19.08855469 -17.07851562 19.98960938 -17.98828125 20.91796875 C-18.65214844 21.60503906 -19.31601563 22.29210937 -20 23 C-20 20 -20 20 -18 18 C-17.79375 17.113125 -17.5875 16.22625 -17.375 15.3125 C-14.3417397 8.00510019 -6.63239426 3.82773818 0 0 Z " fill="#C2BCAE" transform="translate(144,60)"/>
<path d="M0 0 C0.33 0 0.66 0 1 0 C4.28860064 17.99921599 4.41001734 35.69295318 -2 53 C-3.07558749 49.77323753 -2.72448966 48.19740499 -2.02075195 44.95849609 C1.1293291 30.20665139 0.26924309 14.99753055 0 0 Z " fill="#C7C1B0" transform="translate(193,75)"/>
<path d="M0 0 C0 3 0 3 -1 5 C0.65 4.67 2.3 4.34 4 4 C4 3.01 4 2.02 4 1 C6.475 1.495 6.475 1.495 9 2 C5.35791537 6.07913478 0.99877416 8.8169275 -3.5625 11.75 C-4.33013672 12.25660156 -5.09777344 12.76320313 -5.88867188 13.28515625 C-6.62794922 13.76339844 -7.36722656 14.24164063 -8.12890625 14.734375 C-8.79994385 15.16975586 -9.47098145 15.60513672 -10.16235352 16.05371094 C-12 17 -12 17 -15 17 C-10.32152406 10.96051288 -5.56051485 5.24773589 0 0 Z " fill="#605852" transform="translate(118,59)"/>
<path d="M0 0 C3.10712212 0.78637041 6.09244107 1.63924116 9 3 C10.5625 5.6875 10.5625 5.6875 11 8 C11.66 8 12.32 8 13 8 C13 8.66 13 9.32 13 10 C9.30688131 11.35092703 6.96564662 10.65286971 3.3125 9.375 C2.33925781 9.05273438 1.36601562 8.73046875 0.36328125 8.3984375 C-2 7 -2 7 -2.83203125 4.3515625 C-2.88746094 3.57554687 -2.94289062 2.79953125 -3 2 C-2.01 2 -1.02 2 0 2 C0 1.34 0 0.68 0 0 Z " fill="#D5CDC1" transform="translate(141,144)"/>
<path d="M0 0 C4.91918188 1.4987414 7.9236167 4.34948908 11.5625 7.8125 C12.40844727 8.59463867 12.40844727 8.59463867 13.27148438 9.39257812 C16.48182813 12.40016333 19.33881894 15.47995366 22 19 C18.625 18.75 18.625 18.75 15 18 C14 16.1875 14 16.1875 13 14 C11.29927997 13.08422768 9.59758236 12.17011654 7.88671875 11.2734375 C4.4486199 8.95289873 2.09366868 5.54313162 0 2 C0 1.34 0 0.68 0 0 Z " fill="#9F9795" transform="translate(71,66)"/>
<path d="M0 0 C0.33 0 0.66 0 1 0 C1 2.64 1 5.28 1 8 C0.01 8 -0.98 8 -2 8 C-2 8.66 -2 9.32 -2 10 C3.28 10 8.56 10 14 10 C9.55181847 12.22409076 8.16365674 11.96718602 3.375 11.5 C-1.07763008 11.40742973 -3.26360165 11.4776481 -6.9296875 14.078125 C-9.39425372 16.64007529 -11.68933997 19.29999798 -14 22 C-15.94679412 23.5558716 -17.84142777 24.75030029 -20 26 C-20.33 24.68 -20.66 23.36 -21 22 C-20.05125 21.938125 -19.1025 21.87625 -18.125 21.8125 C-17.09375 21.544375 -16.0625 21.27625 -15 21 C-13.76709799 18.54295238 -13.76709799 18.54295238 -13 16 C-12.01 15.67 -11.02 15.34 -10 15 C-9.65657551 13.66923011 -9.32380126 12.33568021 -9 11 C-6 9 -6 9 -3 8 C-3 7.34 -3 6.68 -3 6 C-2.34 6 -1.68 6 -1 6 C-0.67 4.02 -0.34 2.04 0 0 Z " fill="#8F8987" transform="translate(98,100)"/>
<path d="M0 0 C3.90705363 3.39896145 5.89051002 7.17906612 8.125 11.75 C8.47175781 12.42804687 8.81851563 13.10609375 9.17578125 13.8046875 C11.48744615 18.46344511 12.89471493 22.91796761 14 28 C13.01 28.33 12.02 28.66 11 29 C8.3397464 23.86509188 6.29227824 18.63305679 4.28125 13.21875 C3.04858687 9.95932971 3.04858687 9.95932971 1.34375 6.84375 C0 4 0 4 0 0 Z " fill="#BDB8A9" transform="translate(181,45)"/>
<path d="M0 0 C-0.9977758 2.99332739 -1.7522025 3.94766315 -4 6 C-3.01 6.33 -2.02 6.66 -1 7 C-2.43011973 7.86646667 -3.86940619 8.71781829 -5.3125 9.5625 C-6.11300781 10.03816406 -6.91351563 10.51382813 -7.73828125 11.00390625 C-10 12 -10 12 -13 11 C-11.68 10.67 -10.36 10.34 -9 10 C-9.33 9.34 -9.66 8.68 -10 8 C-11.65 8.66 -13.3 9.32 -15 10 C-15.33 8.68 -15.66 7.36 -16 6 C-13.9021477 4.79994469 -11.7979751 3.61497017 -9.6875 2.4375 C-8.79514648 1.92413086 -8.79514648 1.92413086 -7.88476562 1.40039062 C-3.33984375 -1.11328125 -3.33984375 -1.11328125 0 0 Z " fill="#BAB2A5" transform="translate(68,140)"/>
<path d="M0 0 C10.42685765 4.85024614 22.49922408 15.21365771 27 26 C26.67 26.66 26.34 27.32 26 28 C25.56768066 27.5373877 25.13536133 27.07477539 24.68994141 26.59814453 C13.34300039 14.46245472 13.34300039 14.46245472 1.625 2.6875 C0 1 0 1 0 0 Z " fill="#DAD3C6" transform="translate(126,111)"/>
<path d="M0 0 C6.27 0 12.54 0 19 0 C13 7 13 7 11 9 C9.0625 9 9.0625 9 7 8 C5.98308736 6.00854609 4.98357352 4.00812926 4 2 C2.68 1.34 1.36 0.68 0 0 Z " fill="#DAD4C5" transform="translate(91,87)"/>
<path d="M0 0 C0.33 0.66 0.66 1.32 1 2 C0.67 2.66 0.34 3.32 0 4 C-0.039992 5.99960012 -0.04346799 8.00047242 0 10 C0.66 9.34 1.32 8.68 2 8 C2.66 8 3.32 8 4 8 C2.17574465 12.92548944 -1.8931652 15.83569656 -6.375 18.3125 C-7.179375 18.6528125 -7.179375 18.6528125 -8 19 C-8.671875 17.30859375 -8.671875 17.30859375 -9 15 C-7.890625 12.59765625 -7.890625 12.59765625 -6.25 10.0625 C-5.71890625 9.22847656 -5.1878125 8.39445312 -4.640625 7.53515625 C-4.09921875 6.69855469 -3.5578125 5.86195312 -3 5 C-1.99423901 3.3368035 -0.99251618 1.67113417 0 0 Z " fill="#8B827B" transform="translate(156,54)"/>
<path d="M0 0 C0.33 0 0.66 0 1 0 C1.4609375 2.1171875 1.4609375 2.1171875 1 5 C-1.19514226 7.3792409 -3.76884468 9.21794109 -6.375 11.125 C-7.76064377 12.16551109 -9.14357453 13.20964736 -10.5234375 14.2578125 C-11.14138184 14.7130127 -11.75932617 15.16821289 -12.39599609 15.63720703 C-14.26336899 17.09720878 -14.26336899 17.09720878 -16 20 C-16.99 20 -17.98 20 -19 20 C-17.84906278 16.54718834 -16.6794007 15.61917837 -13.9375 13.3125 C-13.20402344 12.68988281 -12.47054687 12.06726563 -11.71484375 11.42578125 C-10.86599609 10.72001953 -10.86599609 10.72001953 -10 10 C-10.99 9.67 -11.98 9.34 -13 9 C-13 8.01 -13 7.02 -13 6 C-6.125 5 -6.125 5 -3 5 C-3 4.34 -3 3.68 -3 3 C-2.34 3 -1.68 3 -1 3 C-0.67 2.01 -0.34 1.02 0 0 Z " fill="#CFC9BA" transform="translate(48,139)"/>
<path d="M0 0 C1.546875 1.3303125 1.546875 1.3303125 3.125 2.6875 C5.5378735 4.76129352 7.97279435 6.80073548 10.4375 8.8125 C11.283125 9.534375 12.12875 10.25625 13 11 C13 11.33 13 11.66 13 12 C8.05 12 3.1 12 -2 12 C-2 11.34 -2 10.68 -2 10 C-1.01 10 -0.02 10 1 10 C0.67 6.7 0.34 3.4 0 0 Z " fill="#DCD6C6" transform="translate(98,98)"/>
<path d="M0 0 C3.65316671 1.24976756 4.78065836 1.67098753 7 5 C7.99 5.33 8.98 5.66 10 6 C10.67100975 7.33115294 11.33733732 8.66467218 12 10 C13.6216848 11.33129223 13.6216848 11.33129223 15.5625 12.375 C18.77560691 14.26749049 21.90343314 16.23344642 25 18.3125 C25.763125 18.82425781 26.52625 19.33601563 27.3125 19.86328125 C27.869375 20.23839844 28.42625 20.61351562 29 21 C25.33736732 22.22087756 24.6837902 21.71903663 21.3125 20.0625 C15.87537127 17.21712214 12.09604626 13.49833652 8 9 C7.071875 8.0925 6.14375 7.185 5.1875 6.25 C3.25353639 4.26078029 1.59429345 2.26557491 0 0 Z " fill="#CCC6B5" transform="translate(22,159)"/>
<path d="M0 0 C3.35620271 1.38877354 5.07298728 2.91677965 7 6 C7 6.66 7 7.32 7 8 C8.32 8 9.64 8 11 8 C13.875 14.625 13.875 14.625 15 18 C9 16.5 9 16.5 3 15 C4.32 14.34 5.64 13.68 7 13 C7 12.34 7 11.68 7 11 C5.44144019 9.64287834 5.44144019 9.64287834 3.5 8.375 C2.8503125 7.92898437 2.200625 7.48296875 1.53125 7.0234375 C1.0259375 6.68570313 0.520625 6.34796875 0 6 C0.185625 5.38125 0.37125 4.7625 0.5625 4.125 C1.23686176 1.95839822 1.23686176 1.95839822 0 0 Z " fill="#3A3031" transform="translate(154,141)"/>
<path d="M0 0 C5.02918448 3.25980421 9.80158155 6.79924354 14.5625 10.4375 C15.30435547 10.99759766 16.04621094 11.55769531 16.81054688 12.13476562 C20.83225058 15.20386632 24.52635388 18.31999867 28 22 C21.39983348 19.59993945 16.09281447 16.29984373 10.91015625 11.6484375 C7.98468451 9.12379726 4.8481602 6.88305457 1.72265625 4.61328125 C1.15417969 4.08089844 0.58570313 3.54851562 0 3 C0 2.01 0 1.02 0 0 Z " fill="#DED8CA" transform="translate(131,129)"/>
<path d="M0 0 C0.66 0.33 1.32 0.66 2 1 C-3.50293299 8.22452096 -9.46064659 14.70185225 -16 21 C-16.66 20.67 -17.32 20.34 -18 20 C-15.31647735 15.59902286 -12.31811729 12.18730427 -8.609375 8.61328125 C-6.86908244 6.94636086 -6.86908244 6.94636086 -5.1875 4.5625 C-4.795625 4.046875 -4.40375 3.53125 -4 3 C-3.34 3 -2.68 3 -2 3 C-2 2.34 -2 1.68 -2 1 C-1.34 0.67 -0.68 0.34 0 0 Z " fill="#938E83" transform="translate(180,153)"/>
<path d="M0 0 C4.55015893 1.51671964 6.50057264 5.16891053 9 9 C8.01 9.99 7.02 10.98 6 12 C3.03 10.02 0.06 8.04 -3 6 C-2 4 -1 2 0 0 Z " fill="#CCC8C0" transform="translate(44,61)"/>
<path d="M0 0 C0.66 0 1.32 0 2 0 C5.65692605 9.99559787 6.4714451 21.60423887 4 32 C3.67 32 3.34 32 3 32 C2.91697632 30.91900024 2.91697632 30.91900024 2.83227539 29.81616211 C2.57802592 26.52308909 2.32029258 23.23029747 2.0625 19.9375 C1.97548828 18.80376953 1.88847656 17.67003906 1.79882812 16.50195312 C1.36308713 10.96642862 0.88333165 5.48302256 0 0 Z " fill="#A49D91" transform="translate(193,73)"/>
<path d="M0 0 C4.95 0.99 9.9 1.98 15 3 C13.68 3.33 12.36 3.66 11 4 C11 4.66 11 5.32 11 6 C8.69 5.34 6.38 4.68 4 4 C6.64 6.97 9.28 9.94 12 13 C11.01 13.495 11.01 13.495 10 14 C9.01 13.34 8.02 12.68 7 12 C6.34 13.32 5.68 14.64 5 16 C4.83564453 14.98679687 4.83564453 14.98679687 4.66796875 13.953125 C4.50941406 13.06109375 4.35085937 12.1690625 4.1875 11.25 C3.96126953 9.92742188 3.96126953 9.92742188 3.73046875 8.578125 C2.94333232 5.79999644 1.77635698 4.23869646 0 2 C0 1.34 0 0.68 0 0 Z " fill="#ABA6A4" transform="translate(30,38)"/>
<path d="M0 0 C0.556875 0.31453125 1.11375 0.6290625 1.6875 0.953125 C5.58182679 3.13710557 9.47416198 5.25480602 13.5 7.1875 C17 9 17 9 18 11 C11.6 13.21538462 11.6 13.21538462 8.5625 12.125 C8.046875 11.75375 7.53125 11.3825 7 11 C7.66 11 8.32 11 9 11 C9 10.34 9 9.68 9 9 C8.34 9 7.68 9 7 9 C6.814375 8.401875 6.62875 7.80375 6.4375 7.1875 C4.27726247 3.90018201 1.64892345 3.35145313 -2 2 C-1.34 1.34 -0.68 0.68 0 0 Z " fill="#79726B" transform="translate(145,143)"/>
<path d="M0 0 C1.04449911 3.13349732 0.93423645 3.98968256 0 7 C-0.66 7 -1.32 7 -2 7 C-2 7.66 -2 8.32 -2 9 C-4.00745009 11.00745009 -5.47868292 11.77536028 -8 13 C-9.67334039 13.98879205 -11.34151823 14.98648336 -13 16 C-12.42308522 12.83145253 -11.58353113 11.21773541 -9.27734375 8.984375 C-8.73916016 8.45585938 -8.20097656 7.92734375 -7.64648438 7.3828125 C-7.08251953 6.84398438 -6.51855469 6.30515625 -5.9375 5.75 C-5.36966797 5.19570312 -4.80183594 4.64140625 -4.21679688 4.0703125 C-2.81787531 2.70665786 -1.40980886 1.35239583 0 0 Z " fill="#433B39" transform="translate(97,99)"/>
<path d="M0 0 C0 1.32 0 2.64 0 4 C-0.66 4 -1.32 4 -2 4 C-2 4.66 -2 5.32 -2 6 C-3.98 6.66 -5.96 7.32 -8 8 C-8 7.01 -8 6.02 -8 5 C-8.66 5 -9.32 5 -10 5 C-10.33 5.66 -10.66 6.32 -11 7 C-11.66 7 -12.32 7 -13 7 C-13.33 6.01 -13.66 5.02 -14 4 C-9.10802517 1.49965731 -5.52973165 -0.14945221 0 0 Z " fill="#E1DACA" transform="translate(149,44)"/>
<path d="M0 0 C-0.33 1.65 -0.66 3.3 -1 5 C0.32 5.33 1.64 5.66 3 6 C1.04396149 6.52938657 -0.91492289 7.04826801 -2.875 7.5625 C-3.96554688 7.85253906 -5.05609375 8.14257812 -6.1796875 8.44140625 C-9 9 -9 9 -11 8 C-10.74609375 6.140625 -10.74609375 6.140625 -10 4 C-8.22265625 2.734375 -8.22265625 2.734375 -6.0625 1.75 C-5.35222656 1.41484375 -4.64195313 1.0796875 -3.91015625 0.734375 C-2 0 -2 0 0 0 Z " fill="#A69F93" transform="translate(51,147)"/>
<path d="M0 0 C1.91015625 0.92578125 1.91015625 0.92578125 4.0625 2.3125 C4.77535156 2.76238281 5.48820313 3.21226563 6.22265625 3.67578125 C8 5 8 5 9 7 C8.34 7 7.68 7 7 7 C6.67 7.66 6.34 8.32 6 9 C5.67 8.67 5.34 8.34 5 8 C4.34 9.32 3.68 10.64 3 12 C0.03947516 8.63576723 -0.92289822 5.30840713 -2 1 C-1.34 0.67 -0.68 0.34 0 0 Z " fill="#8E877E" transform="translate(148,123)"/>
<path d="M0 0 C2.02910711 0.25327449 4.04962145 0.57730068 6.0625 0.9375 C7.16722656 1.13214844 8.27195312 1.32679687 9.41015625 1.52734375 C10.69212891 1.76130859 10.69212891 1.76130859 12 2 C12.33 3.32 12.66 4.64 13 6 C13.66 5.67 14.32 5.34 15 5 C15.12375 5.639375 15.2475 6.27875 15.375 6.9375 C15.58125 7.618125 15.7875 8.29875 16 9 C16.66 9.33 17.32 9.66 18 10 C17.01 10.495 17.01 10.495 16 11 C13.60989025 9.80050254 11.35264399 8.55602892 9.0625 7.1875 C8.42892578 6.81818359 7.79535156 6.44886719 7.14257812 6.06835938 C4.37556106 4.44771952 1.66858029 2.77905353 -1 1 C-0.67 0.67 -0.34 0.34 0 0 Z " fill="#CEC9C3" transform="translate(56,51)"/>
<path d="M0 0 C0 3.63369547 -1.0007221 4.90701223 -2.9375 7.9375 C-4.89993479 11.01337297 -6.14610698 13.47956386 -7 17 C-10.34286135 20.72490265 -14.12779096 23.84820194 -18 27 C-16.80523076 24.17599997 -15.46318334 22.37153171 -13.4375 20 C-11.3321887 17.40884763 -10.37095196 16.214917 -10 13 C-9.34 13 -8.68 13 -8 13 C-8 12.01 -8 11.02 -8 10 C-7.34 10 -6.68 10 -6 10 C-5.62875 8.9171875 -5.62875 8.9171875 -5.25 7.8125 C-3.89016326 4.75286734 -2.17082246 2.5326262 0 0 Z " fill="#C3BDAD" transform="translate(185,139)"/>
<path d="M0 0 C2.5 1.375 2.5 1.375 5 3 C5 3.66 5 4.32 5 5 C5.66 5 6.32 5 7 5 C8.5078125 6.75 8.5078125 6.75 10.125 9 C10.66382812 9.7425 11.20265625 10.485 11.7578125 11.25 C12.16773437 11.8275 12.57765625 12.405 13 13 C7.84535266 12.51675181 4.18449681 9.81389239 0 7 C0.33 6.34 0.66 5.68 1 5 C0.72057545 3.32345271 0.39171753 1.65391846 0 0 Z " fill="#A49E99" transform="translate(79,59)"/>
<path d="M0 0 C0.66 0.33 1.32 0.66 2 1 C1.505 1.433125 1.01 1.86625 0.5 2.3125 C-1.33218192 3.99740483 -1.33218192 3.99740483 -1 7 C-2.75 9.04296875 -2.75 9.04296875 -5 11.1875 C-5.7425 11.90292969 -6.485 12.61835937 -7.25 13.35546875 C-8.11625 14.16951172 -8.11625 14.16951172 -9 15 C-9.66 14.67 -10.32 14.34 -11 14 C-10.52590352 9.68269587 -7.96603297 7.66352539 -4.9375 4.75 C-4.01839844 3.85796875 -3.09929687 2.9659375 -2.15234375 2.046875 C-1.44207031 1.37140625 -0.73179688 0.6959375 0 0 Z " fill="#A39D91" transform="translate(120,72)"/>
<path d="M0 0 C0 3 0 3 -1.56054688 4.90112305 C-2.27275391 5.59761963 -2.98496094 6.29411621 -3.71875 7.01171875 C-4.48574219 7.76904297 -5.25273438 8.52636719 -6.04296875 9.30664062 C-6.85378906 10.09232422 -7.66460937 10.87800781 -8.5 11.6875 C-9.31082031 12.48478516 -10.12164063 13.28207031 -10.95703125 14.10351562 C-12.96482203 16.0758748 -14.9792687 18.04091492 -17 20 C-17.33 19.34 -17.66 18.68 -18 18 C-6.25 4.25 -6.25 4.25 0 0 Z " fill="#F2F0E7" transform="translate(40,21)"/>
<path d="M0 0 C2.64 0 5.28 0 8 0 C7.01 0.495 7.01 0.495 6 1 C6.33 1.99 6.66 2.98 7 4 C8.175625 4.2165625 8.175625 4.2165625 9.375 4.4375 C12 5 12 5 14 6 C13.67 7.32 13.34 8.64 13 10 C9.37 8.35 5.74 6.7 2 5 C2 4.34 2 3.68 2 3 C1.34 3 0.68 3 0 3 C0 2.01 0 1.02 0 0 Z " fill="#C4BDB9" transform="translate(41,42)"/>
<path d="M0 0 C0.6875 1.8125 0.6875 1.8125 1 4 C-0.25 5.4375 -0.25 5.4375 -2 7 C-2.6496875 8.11375 -2.6496875 8.11375 -3.3125 9.25 C-5.51267094 12.83546375 -8.20851529 15.86522591 -11 19 C-11 15.92131474 -10.56613159 14.64569384 -9.25 11.9375 C-8.92515625 11.24527344 -8.6003125 10.55304688 -8.265625 9.83984375 C-6.76873116 7.66380363 -5.41849904 6.9806099 -3 6 C-3 5.01 -3 4.02 -3 3 C-2.34 3 -1.68 3 -1 3 C-0.67 2.01 -0.34 1.02 0 0 Z " fill="#7D7670" transform="translate(126,74)"/>
<path d="M0 0 C5.31045456 2.45097903 9.36287551 4.72575102 12 10 C13.64551962 10.71727778 15.31422289 11.38325228 17 12 C18.8125 13.625 18.8125 13.625 20 15 C19.67 15.99 19.34 16.98 19 18 C14.05586972 15.44758093 10.53854241 11.80139751 6.6875 7.875 C6.04232422 7.22917969 5.39714844 6.58335938 4.73242188 5.91796875 C0 1.14047619 0 1.14047619 0 0 Z " fill="#766D6D" transform="translate(65,65)"/>
<path d="M0 0 C3.3125 0.625 3.3125 0.625 7 2 C8.8125 5 8.8125 5 10 8 C10.66 8.66 11.32 9.32 12 10 C7.3914291 9.88759583 5.27090202 8.61543768 2.125 5.4375 C1.07067568 4.30330262 0.02465367 3.16107206 -1 2 C-0.67 1.34 -0.34 0.68 0 0 Z " fill="#4E4545" transform="translate(89,87)"/>
<path d="M0 0 C0 4.22225848 -1.82726441 5.29347556 -4.75 8.25 C-5.63171875 9.16265625 -6.5134375 10.0753125 -7.421875 11.015625 C-10 13 -10 13 -12.328125 12.796875 C-12.87984375 12.53390625 -13.4315625 12.2709375 -14 12 C-13.360625 11.566875 -12.72125 11.13375 -12.0625 10.6875 C-9.73253997 9.08760823 -9.73253997 9.08760823 -9 6 C-8.01 6 -7.02 6 -6 6 C-6.33 4.68 -6.66 3.36 -7 2 C-4.69 1.34 -2.38 0.68 0 0 Z " fill="#38302F" transform="translate(166,38)"/>
<path d="M0 0 C0.66 0.33 1.32 0.66 2 1 C-0.475 2.485 -0.475 2.485 -3 4 C-2.67 4.66 -2.34 5.32 -2 6 C-5.255343 6.94947504 -8.53292762 7.34875598 -11.89453125 7.74609375 C-14.93750904 8.11305768 -17.96714102 8.55770807 -21 9 C-18.29857091 6.29857091 -15.1854847 5.61265147 -11.625 4.5 C-6.52435955 2.92752211 -6.52435955 2.92752211 -1.6484375 0.78125 C-0.83246094 0.39453125 -0.83246094 0.39453125 0 0 Z " fill="#AFA89A" transform="translate(139,184)"/>
<path d="M0 0 C0.99 0.33 1.98 0.66 3 1 C3 1.66 3 2.32 3 3 C3.99 3.33 4.98 3.66 6 4 C6 6.31 6 8.62 6 11 C1.42004773 9.55369928 1.42004773 9.55369928 -0.375 7.1875 C-1.1508614 4.4719851 -0.74778098 2.69201151 0 0 Z " fill="#C5BEB0" transform="translate(127,136)"/>
<path d="M0 0 C-1 2 -1 2 -4.16796875 3.0703125 C-5.50555203 3.43037978 -6.84555056 3.7815627 -8.1875 4.125 C-8.84814453 4.30675781 -9.50878906 4.48851562 -10.18945312 4.67578125 C-14.21570029 5.73301891 -17.84411097 6.1938984 -22 6 C-21.67 5.34 -21.34 4.68 -21 4 C-18.41216145 3.19056192 -15.88226179 2.5006256 -13.25 1.875 C-12.53328125 1.69324219 -11.8165625 1.51148438 -11.078125 1.32421875 C-7.31010126 0.40299236 -3.90961317 -0.23088267 0 0 Z " fill="#959084" transform="translate(133,190)"/>
<path d="M0 0 C1.9375 0.75 1.9375 0.75 4 2 C4.75 4.125 4.75 4.125 5 6 C5.66 6 6.32 6 7 6 C7 6.66 7 7.32 7 8 C3.21180727 9.43410153 0.93478721 8.51009497 -2.75 7.0625 C-3.73484375 6.68222656 -4.7196875 6.30195313 -5.734375 5.91015625 C-6.48203125 5.60980469 -7.2296875 5.30945313 -8 5 C-7.360625 4.87625 -6.72125 4.7525 -6.0625 4.625 C-5.381875 4.41875 -4.70125 4.2125 -4 4 C-3.67 3.34 -3.34 2.68 -3 2 C-3 3.32 -3 4.64 -3 6 C-1.35 6.33 0.3 6.66 2 7 C1.34 4.69 0.68 2.38 0 0 Z " fill="#AEA79C" transform="translate(147,146)"/>
<path d="M0 0 C-1.57646551 1.32074115 -3.16145531 2.63131224 -4.75 3.9375 C-5.63171875 4.66839844 -6.5134375 5.39929688 -7.421875 6.15234375 C-9.76330955 7.83037185 -11.19661127 8.58735166 -14 9 C-12.43608407 5.16129726 -10.1265374 2.69027637 -7 0 C-2.76056338 -1.38028169 -2.76056338 -1.38028169 0 0 Z " fill="#938B8A" transform="translate(78,127)"/>
<path d="M0 0 C0.33 0 0.66 0 1 0 C1 2.64 1 5.28 1 8 C0.01 8 -0.98 8 -2 8 C-2 8.66 -2 9.32 -2 10 C3.28 10 8.56 10 14 10 C9.62366798 12.18816601 6.91777408 12.06618848 2.25 11.625 C1.55261719 11.56828125 0.85523437 11.5115625 0.13671875 11.453125 C-1.57639312 11.31232128 -3.28834611 11.15754028 -5 11 C-5 10.01 -5 9.02 -5 8 C-4.34 8 -3.68 8 -3 8 C-3 7.34 -3 6.68 -3 6 C-2.34 6 -1.68 6 -1 6 C-0.67 4.02 -0.34 2.04 0 0 Z " fill="#817871" transform="translate(98,100)"/>
<path d="M0 0 C0.66 1.32 1.32 2.64 2 4 C1.34 4 0.68 4 0 4 C0 4.99 0 5.98 0 7 C1.65 6.34 3.3 5.68 5 5 C2.19195732 7.96404505 -0.18315774 10.44499019 -4 12 C-3.34 10.35 -2.68 8.7 -2 7 C-3.65 7.33 -5.3 7.66 -7 8 C-6.67 6.02 -6.34 4.04 -6 2 C-5.67 2.99 -5.34 3.98 -5 5 C-4.01 5 -3.02 5 -2 5 C-1.67 4.01 -1.34 3.02 -1 2 C-0.67 1.34 -0.34 0.68 0 0 Z " fill="#928B80" transform="translate(134,53)"/>
<path d="M0 0 C0 3 0 3 -1 5 C0.65 4.67 2.3 4.34 4 4 C4 3.01 4 2.02 4 1 C5.65 1.33 7.3 1.66 9 2 C5.96487284 5.5020698 3.43163286 6.74758202 -1 8 C-1.99 8.495 -1.99 8.495 -3 9 C-3.66 8.67 -4.32 8.34 -5 8 C-4.45773019 4.20411134 -2.79872437 2.52788007 0 0 Z " fill="#857B72" transform="translate(118,59)"/>
<path d="M0 0 C3 1 6 2 9 3 C9 3.66 9 4.32 9 5 C9.66 5.33 10.32 5.66 11 6 C10.01 6 9.02 6 8 6 C8 6.66 8 7.32 8 8 C4.54074837 6.7508258 1.85306797 5.32472205 -1 3 C-0.67 2.01 -0.34 1.02 0 0 Z " fill="#746F70" transform="translate(68,60)"/>
<path d="M0 0 C0.99 0.33 1.98 0.66 3 1 C2.60196439 3.88575819 2.20990931 4.82189513 -0.0625 6.75 C-0.701875 7.1625 -1.34125 7.575 -2 8 C-2.66 7.01 -3.32 6.02 -4 5 C-4.99 5.99 -5.98 6.98 -7 8 C-7.66 7.67 -8.32 7.34 -9 7 C-7.87720538 6.01830524 -6.75168527 5.03972702 -5.625 4.0625 C-4.68527344 3.24458984 -4.68527344 3.24458984 -3.7265625 2.41015625 C-2 1 -2 1 0 0 Z " fill="#9B9489" transform="translate(50,123)"/>
<path d="M0 0 C0.33 0 0.66 0 1 0 C1.1799928 5.21979128 0.97094808 9.07262981 -1 14 C-2 11 -2 11 -2 8 C-3.32 7.67 -4.64 7.34 -6 7 C-5.02433888 5.83040013 -4.044375 4.66438823 -3.0625 3.5 C-2.51722656 2.8503125 -1.97195312 2.200625 -1.41015625 1.53125 C-0.71212891 0.77328125 -0.71212891 0.77328125 0 0 Z " fill="#807970" transform="translate(163,46)"/>
<path d="M0 0 C0 0.66 0 1.32 0 2 C-0.99 2.66 -1.98 3.32 -3 4 C-3 5.32 -3 6.64 -3 8 C-4.98 8.33 -6.96 8.66 -9 9 C-9 6 -9 6 -7.79296875 4.39453125 C-7.26316406 3.87246094 -6.73335938 3.35039063 -6.1875 2.8125 C-5.66542969 2.28269531 -5.14335938 1.75289063 -4.60546875 1.20703125 C-3 0 -3 0 0 0 Z " fill="#4A4343" transform="translate(81,118)"/>
<path d="M0 0 C3.62613199 0.56959153 5.25517741 1.92374534 7.75 4.5625 C8.36359375 5.20316406 8.9771875 5.84382813 9.609375 6.50390625 C10.06828125 6.99761719 10.5271875 7.49132812 11 8 C10.34 8.66 9.68 9.32 9 10 C7.67823515 9.09674384 6.36784934 8.17682097 5.0625 7.25 C4.33160156 6.73953125 3.60070312 6.2290625 2.84765625 5.703125 C0.79194601 3.80822085 0.37330824 2.72574271 0 0 Z " fill="#E3DCCF" transform="translate(113,114)"/>
<path d="M0 0 C8.44646925 6.15034169 8.44646925 6.15034169 12 10 C11.34 10 10.68 10 10 10 C10 10.66 10 11.32 10 12 C7 11 7 11 5.625 8.625 C3.77911265 5.64318197 2.08105299 4.58216235 -1 3 C-0.67 2.01 -0.34 1.02 0 0 Z " fill="#756D6D" transform="translate(52,70)"/>
<path d="M0 0 C0.66 0.33 1.32 0.66 2 1 C0.78848458 2.20550294 -0.44502889 3.38892747 -1.6875 4.5625 C-2.71423828 5.55443359 -2.71423828 5.55443359 -3.76171875 6.56640625 C-6 8 -6 8 -8.76953125 7.71484375 C-9.50558594 7.47894531 -10.24164063 7.24304687 -11 7 C-10 4 -10 4 -8 2 C-8 2.66 -8 3.32 -8 4 C-7.44570312 3.69964844 -6.89140625 3.39929687 -6.3203125 3.08984375 C-5.59585938 2.70957031 -4.87140625 2.32929687 -4.125 1.9375 C-3.04605469 1.36322266 -3.04605469 1.36322266 -1.9453125 0.77734375 C-1.30335938 0.52082031 -0.66140625 0.26429687 0 0 Z " fill="#7B746A" transform="translate(151,47)"/>
<path d="M0 0 C0.33 0 0.66 0 1 0 C0.67 2.64 0.34 5.28 0 8 C1.32 8.33 2.64 8.66 4 9 C1.69 11.31 -0.62 13.62 -3 16 C-3 12.55877133 -2.29541512 9.65987197 -1.5 6.3125 C-1.2215625 5.13300781 -0.943125 3.95351562 -0.65625 2.73828125 C-0.33140625 1.38283203 -0.33140625 1.38283203 0 0 Z " fill="#676157" transform="translate(35,140)"/>
<path d="M0 0 C7.06533193 2.04109589 7.06533193 2.04109589 9 5 C8.6875 7.1875 8.6875 7.1875 8 9 C7.34 8.01 6.68 7.02 6 6 C5.01 6 4.02 6 3 6 C0.8125 3.5 0.8125 3.5 -1 1 C-0.67 0.67 -0.34 0.34 0 0 Z " fill="#79716E" transform="translate(109,126)"/>
<path d="M0 0 C5.66129431 4.69766975 10.85228904 9.74723372 16 15 C15.67 15.66 15.34 16.32 15 17 C14.28457031 16.28199219 13.56914063 15.56398438 12.83203125 14.82421875 C11.00655192 13.00377522 9.17128845 11.19306481 7.32421875 9.39453125 C6.45410156 8.54246094 5.58398438 7.69039063 4.6875 6.8125 C3.80449219 5.95269531 2.92148437 5.09289062 2.01171875 4.20703125 C0 2 0 2 0 0 Z " fill="#938C86" transform="translate(59,70)"/>
<path d="M0 0 C-0.33 0.99 -0.66 1.98 -1 3 C-3.5625 4.1875 -3.5625 4.1875 -6 5 C-6 4.01 -6 3.02 -6 2 C-7.65 2 -9.3 2 -11 2 C-11.33 2.66 -11.66 3.32 -12 4 C-12.66 3.34 -13.32 2.68 -14 2 C-12.42085985 1.46658816 -10.83645613 0.94874237 -9.25 0.4375 C-8.36828125 0.14746094 -7.4865625 -0.14257812 -6.578125 -0.44140625 C-3.92165684 -1.01697435 -2.52968894 -0.89248371 0 0 Z " fill="#B5AFA1" transform="translate(155,42)"/>
<path d="M0 0 C0.433125 0.495 0.86625 0.99 1.3125 1.5 C2.99740483 3.33218192 2.99740483 3.33218192 6 3 C6.33 2.34 6.66 1.68 7 1 C7.33 1.99 7.66 2.98 8 4 C7.360625 4.12375 6.72125 4.2475 6.0625 4.375 C5.381875 4.58125 4.70125 4.7875 4 5 C3.67 5.66 3.34 6.32 3 7 C0.69 7 -1.62 7 -4 7 C-3.525625 6.5875 -3.05125 6.175 -2.5625 5.75 C-0.83733482 3.817815 -0.43415125 2.51807725 0 0 Z " fill="#DAD2C5" transform="translate(51,146)"/>
<path d="M0 0 C0.6875 1.6875 0.6875 1.6875 1 4 C-0.4375 6.75 -0.4375 6.75 -2 9 C-2.66 8.67 -3.32 8.34 -4 8 C-3.979375 7.21625 -3.95875 6.4325 -3.9375 5.625 C-3.81315937 3.01885039 -3.81315937 3.01885039 -5 1 C-3 0 -3 0 0 0 Z " fill="#B5AEA1" transform="translate(73,136)"/>
<path d="M0 0 C3.03852705 1.40976705 5.5939595 3.08870228 8.25 5.125 C8.95640625 5.66382812 9.6628125 6.20265625 10.390625 6.7578125 C10.92171875 7.16773437 11.4528125 7.57765625 12 8 C11.67 9.32 11.34 10.64 11 12 C9.16364422 10.19047409 7.33083792 8.37759362 5.5 6.5625 C4.97535156 6.04623047 4.45070312 5.52996094 3.91015625 4.99804688 C2.58775448 3.68423213 1.29164432 2.34406495 0 1 C0 0.67 0 0.34 0 0 Z " fill="#C7BFB5" transform="translate(126,111)"/>
<path d="M0 0 C0.33 0.66 0.66 1.32 1 2 C0.34 2 -0.32 2 -1 2 C-1 2.66 -1 3.32 -1 4 C-0.34 4.33 0.32 4.66 1 5 C0.34 6.32 -0.32 7.64 -1 9 C-2.65 9 -4.3 9 -6 9 C-4.83857315 4.64464931 -3.92300495 2.35380297 0 0 Z " fill="#AAA197" transform="translate(123,55)"/>
<path d="M0 0 C0.66 0.33 1.32 0.66 2 1 C-0.97 5.455 -0.97 5.455 -4 10 C-4.33 9.34 -4.66 8.68 -5 8 C-6.32 8.99 -7.64 9.98 -9 11 C-9.66 10.67 -10.32 10.34 -11 10 C-5.555 5.05 -5.555 5.05 0 0 Z " fill="#AAA495" transform="translate(165,166)"/>
<path d="M0 0 C3.2826932 1.49076434 5.93077441 3.38620321 8.75 5.625 C9.94882813 6.57246094 9.94882813 6.57246094 11.171875 7.5390625 C11.77515625 8.02117187 12.3784375 8.50328125 13 9 C12.01 9.495 12.01 9.495 11 10 C8.65234375 8.92578125 8.65234375 8.92578125 5.9375 7.3125 C5.03902344 6.79300781 4.14054688 6.27351562 3.21484375 5.73828125 C1 4 1 4 0.19140625 1.79296875 C0.12824219 1.20128906 0.06507813 0.60960937 0 0 Z " fill="#D5CFC2" transform="translate(146,141)"/>
<path d="M0 0 C2.125 0.375 2.125 0.375 4 1 C-3.11389522 8.66742597 -3.11389522 8.66742597 -8 10 C-7.04367001 8.70684939 -6.08486149 7.41553147 -5.125 6.125 C-4.59132812 5.40570313 -4.05765625 4.68640625 -3.5078125 3.9453125 C-2 2 -2 2 0 0 Z " fill="#D8D1C5" transform="translate(149,57)"/>
<path d="M0 0 C0.99 0.33 1.98 0.66 3 1 C2.16855469 1.70576172 2.16855469 1.70576172 1.3203125 2.42578125 C0.23363281 3.35970703 0.23363281 3.35970703 -0.875 4.3125 C-1.59429687 4.92738281 -2.31359375 5.54226562 -3.0546875 6.17578125 C-5.19179331 8.0412324 -5.19179331 8.0412324 -7 11 C-7.99 11 -8.98 11 -10 11 C-8.85455923 7.56367769 -7.7288492 6.66528415 -5 4.375 C-4.278125 3.76398438 -3.55625 3.15296875 -2.8125 2.5234375 C-2.214375 2.02070313 -1.61625 1.51796875 -1 1 C-0.67 0.67 -0.34 0.34 0 0 Z " fill="#B8B0A5" transform="translate(39,148)"/>
<path d="M0 0 C0.66 0 1.32 0 2 0 C2 0.99 2 1.98 2 3 C2.66 3.33 3.32 3.66 4 4 C7.30254948 7.12873109 10.22247082 10.39949921 13 14 C9.61995983 12.49603717 7.04191701 10.54283663 4.25 8.125 C3.45078125 7.44695312 2.6515625 6.76890625 1.828125 6.0703125 C0 4 0 4 0 0 Z " fill="#49403E" transform="translate(122,117)"/>
<path d="M0 0 C0.99 0.99 1.98 1.98 3 3 C3.66 2.34 4.32 1.68 5 1 C5.66 1 6.32 1 7 1 C5.84826645 3.46800047 4.95216435 5.04783565 3 7 C1.68 7 0.36 7 -1 7 C-0.67 4.69 -0.34 2.38 0 0 Z " fill="#B4ABA0" transform="translate(153,61)"/>
<path d="M0 0 C3.3309303 -0.37010337 4.62731223 -0.27461204 7.375 1.75 C9 4 9 4 8.75 6.25 C8.5025 6.8275 8.255 7.405 8 8 C7.01 7.34 6.02 6.68 5 6 C5 5.34 5 4.68 5 4 C4.360625 3.71125 3.72125 3.4225 3.0625 3.125 C1 2 1 2 0 0 Z " fill="#B2AB9F" transform="translate(120,123)"/>
<path d="M0 0 C0.78375 0.04125 1.5675 0.0825 2.375 0.125 C2.705 1.115 3.035 2.105 3.375 3.125 C3.045 3.785 2.715 4.445 2.375 5.125 C0 5.3125 0 5.3125 -2.625 5.125 C-3.285 4.135 -3.945 3.145 -4.625 2.125 C-2.625 0.125 -2.625 0.125 0 0 Z " fill="#9B9591" transform="translate(80.625,95.875)"/>
<path d="M0 0 C0.99 0.33 1.98 0.66 3 1 C3.66 0.67 4.32 0.34 5 0 C5.33 0.99 5.66 1.98 6 3 C-4.89 3.495 -4.89 3.495 -16 4 C-16 3.34 -16 2.68 -16 2 C-14.92878906 1.93941406 -13.85757813 1.87882812 -12.75390625 1.81640625 C-11.35675609 1.73201463 -9.95962143 1.64736594 -8.5625 1.5625 C-7.50192383 1.50352539 -7.50192383 1.50352539 -6.41992188 1.44335938 C-2.91309581 1.52375562 -2.91309581 1.52375562 0 0 Z " fill="#332B2B" transform="translate(104,84)"/>
<path d="M0 0 C0.66 0.33 1.32 0.66 2 1 C0.73459948 4.79620155 -0.78218431 5.48678188 -4.0625 7.6875 C-4.98160156 8.31011719 -5.90070313 8.93273437 -6.84765625 9.57421875 C-7.55792969 10.04472656 -8.26820313 10.51523438 -9 11 C-9.66 10.67 -10.32 10.34 -11 10 C-5.555 5.05 -5.555 5.05 0 0 Z " fill="#423A36" transform="translate(143,57)"/>
<path d="M0 0 C-0.84304687 0.40992188 -1.68609375 0.81984375 -2.5546875 1.2421875 C-3.65039062 1.78101563 -4.74609375 2.31984375 -5.875 2.875 C-6.96554688 3.40867187 -8.05609375 3.94234375 -9.1796875 4.4921875 C-12.03882547 5.84535937 -12.03882547 5.84535937 -14 8 C-14.99 7.67 -15.98 7.34 -17 7 C-6.45379877 -2.22792608 -6.45379877 -2.22792608 0 0 Z " fill="#F5F3E8" transform="translate(62,11)"/>
<path d="M0 0 C1.32 0.66 2.64 1.32 4 2 C4 2.66 4 3.32 4 4 C2.88625 4.474375 1.7725 4.94875 0.625 5.4375 C-1.26710994 6.25306463 -3.15712709 7.07856355 -5 8 C-4.45773019 4.20411134 -2.79872437 2.52788007 0 0 Z " fill="#3C3434" transform="translate(89,107)"/>
<path d="M0 0 C1.65 1.65 3.3 3.3 5 5 C4.01 5.99 3.02 6.98 2 8 C0.35 6.68 -1.3 5.36 -3 4 C-2.34 3.67 -1.68 3.34 -1 3 C-0.67 2.01 -0.34 1.02 0 0 Z " fill="#A5A09B" transform="translate(48,65)"/>
<path d="M0 0 C4.75 1.875 4.75 1.875 7 3 C7 3.66 7 4.32 7 5 C8.98 5.66 10.96 6.32 13 7 C12.01 8.485 12.01 8.485 11 10 C9.16375669 8.52444734 7.3310715 7.04446569 5.5 5.5625 C4.4790625 4.73878906 3.458125 3.91507813 2.40625 3.06640625 C1.6121875 2.38449219 0.818125 1.70257813 0 1 C0 0.67 0 0.34 0 0 Z " fill="#9B9392" transform="translate(36,42)"/>
<path d="M0 0 C-1.9428378 4.37138504 -4.1383635 8.18915388 -8.63671875 10.1484375 C-9.41660156 10.42945313 -10.19648438 10.71046875 -11 11 C-10.06981474 9.53699018 -9.13055973 8.07974421 -8.1875 6.625 C-7.66542969 5.81289062 -7.14335937 5.00078125 -6.60546875 4.1640625 C-4.74399888 1.65492793 -3.27062467 0 0 0 Z " fill="#D2CCBA" transform="translate(173,157)"/>
<path d="M0 0 C0.99 0 1.98 0 3 0 C3.125 5.75 3.125 5.75 2 8 C-0.4375 8.75 -0.4375 8.75 -3 9 C-3.66 8.34 -4.32 7.68 -5 7 C-4.34 7 -3.68 7 -3 7 C-1.79371992 4.66785852 -0.8345262 2.50357861 0 0 Z " fill="#D6D0C1" transform="translate(67,138)"/>
<path d="M0 0 C2.90499982 0.63689034 5.40078778 1.5518367 8.0625 2.875 C8.73410156 3.20242187 9.40570313 3.52984375 10.09765625 3.8671875 C12.06228729 5.03709099 13.45986143 6.32072118 15 8 C10.96522658 7.41841104 8.14758799 6.13243941 4.6875 4 C3.80449219 3.46375 2.92148437 2.9275 2.01171875 2.375 C1.34785156 1.92125 0.68398438 1.4675 0 1 C0 0.67 0 0.34 0 0 Z " fill="#A9A398" transform="translate(42,178)"/>
<path d="M0 0 C0.66 0.33 1.32 0.66 2 1 C1.34 2.32 0.68 3.64 0 5 C0.66 5.33 1.32 5.66 2 6 C1.01 6 0.02 6 -1 6 C-1 6.66 -1 7.32 -1 8 C-2.32 8 -3.64 8 -5 8 C-3.375 2.25 -3.375 2.25 0 0 Z " fill="#E1D9CC" transform="translate(41,134)"/>
<path d="M0 0 C0.66 1.32 1.32 2.64 2 4 C1.04578192 5.14926266 0.08647955 6.29430541 -0.875 7.4375 C-1.40867187 8.07558594 -1.94234375 8.71367188 -2.4921875 9.37109375 C-4 11 -4 11 -6 12 C-5.731875 11.484375 -5.46375 10.96875 -5.1875 10.4375 C-4.20114111 8.41286859 -3.30853953 6.38762358 -2.4375 4.3125 C-1 1 -1 1 0 0 Z " fill="#B1AAA1" transform="translate(129,71)"/>
<path d="M0 0 C1.65 0 3.3 0 5 0 C5 1.32 5 2.64 5 4 C4.34 4 3.68 4 3 4 C3 4.66 3 5.32 3 6 C2.01 6.33 1.02 6.66 0 7 C0 4.69 0 2.38 0 0 Z " fill="#D1CABB" transform="translate(144,44)"/>
<path d="M0 0 C1.375 2.0625 1.375 2.0625 2 4 C-4 2.5 -4 2.5 -10 1 C-6.44714239 -1.32302228 -4.02436469 -1.22480664 0 0 Z " fill="#554B49" transform="translate(167,155)"/>
<path d="M0 0 C6.70459519 5.0940919 6.70459519 5.0940919 7.9375 8.875 C7.958125 9.57625 7.97875 10.2775 8 11 C1.29540481 5.9059081 1.29540481 5.9059081 0.0625 2.125 C0.041875 1.42375 0.02125 0.7225 0 0 Z " fill="#372F2F" transform="translate(114,109)"/>
<path d="M0 0 C-3.3 2.31 -6.6 4.62 -10 7 C-10.66 6.67 -11.32 6.34 -12 6 C-7.71858289 0.25066845 -7.71858289 0.25066845 -4.3125 -0.9375 C-2 -1 -2 -1 0 0 Z " fill="#453E3A" transform="translate(115,70)"/>
<path d="M0 0 C6.09411765 4.61176471 6.09411765 4.61176471 8 8 C7.6875 10.25 7.6875 10.25 7 12 C4 8.375 4 8.375 4 5 C3.01 4.67 2.02 4.34 1 4 C0.3125 1.9375 0.3125 1.9375 0 0 Z " fill="#CDC8B7" transform="translate(173,35)"/>
<path d="M0 0 C-1.65 1.65 -3.3 3.3 -5 5 C-5 4.34 -5 3.68 -5 3 C-5.99 3 -6.98 3 -8 3 C-8 2.34 -8 1.68 -8 1 C-4.93251126 -0.86240388 -3.40254489 -1.2151946 0 0 Z " fill="#716964" transform="translate(88,129)"/>
<path d="M0 0 C3.465 1.485 3.465 1.485 7 3 C6.01 3.495 6.01 3.495 5 4 C5.66 5.65 6.32 7.3 7 9 C5.82460004 8.07347299 4.65989423 7.13336613 3.5 6.1875 C2.52546875 5.40439453 2.52546875 5.40439453 1.53125 4.60546875 C0 3 0 3 0 0 Z " fill="#37302E" transform="translate(141,120)"/>
<path d="M0 0 C2.375 -0.1875 2.375 -0.1875 5 0 C5.66 0.99 6.32 1.98 7 3 C6.34 3 5.68 3 5 3 C5.33 4.32 5.66 5.64 6 7 C3.95880212 5.38405168 1.95927063 3.7143618 0 2 C0 1.34 0 0.68 0 0 Z " fill="#B4ACA1" transform="translate(108,111)"/>
<path d="M0 0 C0.33 0.66 0.66 1.32 1 2 C-0.21958756 4.67371119 -1.18298261 6.75412136 -3 9 C-5.75 9.9375 -5.75 9.9375 -8 10 C-6.7260411 7.96166576 -5.38938077 5.96147874 -4 4 C-3.34 4 -2.68 4 -2 4 C-1.34 2.68 -0.68 1.36 0 0 Z " fill="#655B5D" transform="translate(117,84)"/>
<path d="M0 0 C2 2 2 2 2 6 C1.34 6 0.68 6 0 6 C0 7.65 0 9.3 0 11 C-0.66 10.67 -1.32 10.34 -2 10 C-2.17942163 6.05272412 -2.09350689 3.4019487 0 0 Z " fill="#CDC6B9" transform="translate(157,54)"/>
<path d="M0 0 C1.46224799 0.42423244 2.91973412 0.86490245 4.375 1.3125 C5.18710938 1.55613281 5.99921875 1.79976562 6.8359375 2.05078125 C9 3 9 3 11 6 C9.35 6.33 7.7 6.66 6 7 C6 6.01 6 5.02 6 4 C5.195625 3.71125 4.39125 3.4225 3.5625 3.125 C1 2 1 2 0 0 Z " fill="#6B645F" transform="translate(152,148)"/>
<path d="M0 0 C0.66 0.33 1.32 0.66 2 1 C0.8572081 2.16964602 -0.28931715 3.33564556 -1.4375 4.5 C-2.07558594 5.1496875 -2.71367188 5.799375 -3.37109375 6.46875 C-5 8 -5 8 -6 8 C-6 6.35 -6 4.7 -6 3 C-4.03533587 1.93224776 -2.03144641 0.93446535 0 0 Z " fill="#A29A8E" transform="translate(68,116)"/>
<path d="M0 0 C0.66 0 1.32 0 2 0 C4.0662997 5.71271093 4.0006709 10.03654233 3 16 C2.67 16 2.34 16 2 16 C1.34 10.72 0.68 5.44 0 0 Z " fill="#ADA899" transform="translate(193,73)"/>
<path d="M0 0 C2.35981813 0.93578995 4.69631264 1.93347808 7 3 C6.01 4.485 6.01 4.485 5 6 C2.11562221 4.70700306 0.12780579 3.34058637 -2 1 C-1.34 0.67 -0.68 0.34 0 0 Z " fill="#827C80" transform="translate(62,56)"/>
<path d="M0 0 C2.96404505 2.80804268 5.44499019 5.18315774 7 9 C5.02 8.34 3.04 7.68 1 7 C0.67 4.69 0.34 2.38 0 0 Z " fill="#B0AAA8" transform="translate(109,98)"/>
<path d="M0 0 C0.66 0.33 1.32 0.66 2 1 C-0.64 3.97 -3.28 6.94 -6 10 C-6 6.24633583 -4.88579937 4.21284338 -3 1 C-2.01 0.67 -1.02 0.34 0 0 Z " fill="#968C8B" transform="translate(121,83)"/>
<path d="M0 0 C0.66 0.66 1.32 1.32 2 2 C-0.20979308 4.81939117 -2.40062046 7.53058944 -5 10 C-5.99 9.67 -6.98 9.34 -8 9 C-7.50628906 8.51789063 -7.01257813 8.03578125 -6.50390625 7.5390625 C-5.86324219 6.90742187 -5.22257813 6.27578125 -4.5625 5.625 C-3.92441406 4.99851562 -3.28632813 4.37203125 -2.62890625 3.7265625 C-0.92117824 2.08276939 -0.92117824 2.08276939 0 0 Z " fill="#978F85" transform="translate(144,60)"/>
<path d="M0 0 C0.66 0.33 1.32 0.66 2 1 C-0.31 3.31 -2.62 5.62 -5 8 C-5.99 7.34 -6.98 6.68 -8 6 C-5.36 4.02 -2.72 2.04 0 0 Z " fill="#DED7C9" transform="translate(142,61)"/>
<path d="M0 0 C0 0.99 0 1.98 0 3 C-2.5 5.1875 -2.5 5.1875 -5 7 C-5.66 5.35 -6.32 3.7 -7 2 C-4.69 1.34 -2.38 0.68 0 0 Z " fill="#443C39" transform="translate(166,38)"/>
<path d="M0 0 C1.125 1.75 1.125 1.75 2 4 C1.125 6.25 1.125 6.25 0 8 C0 7.34 0 6.68 0 6 C-0.66 6 -1.32 6 -2 6 C-3.625 3.5 -3.625 3.5 -5 1 C-3.68 1.33 -2.36 1.66 -1 2 C-0.67 1.34 -0.34 0.68 0 0 Z " fill="#878078" transform="translate(163,143)"/>
<path d="M0 0 C1.48199902 0.44909061 2.96055236 0.90956564 4.4375 1.375 C5.26121094 1.63023437 6.08492188 1.88546875 6.93359375 2.1484375 C9 3 9 3 10 5 C8.02 5.33 6.04 5.66 4 6 C4 5.34 4 4.68 4 4 C3.01 4 2.02 4 1 4 C0.67 2.68 0.34 1.36 0 0 Z " fill="#8B837B" transform="translate(120,132)"/>
<path d="M0 0 C3 0 3 0 5 1 C5 2.98 5 4.96 5 7 C2.37812506 5.95125002 1.20628639 5.35068687 -0.25 2.875 C-0.4975 2.25625 -0.745 1.6375 -1 1 C-0.67 0.67 -0.34 0.34 0 0 Z " fill="#8F8680" transform="translate(115,131)"/>
<path d="M0 0 C1.48285242 0.95262034 2.96118201 1.91228405 4.4375 2.875 C5.67306641 3.67550781 5.67306641 3.67550781 6.93359375 4.4921875 C9 6 9 6 10 8 C6 8 6 8 4.5 6.625 C4.005 6.08875 3.51 5.5525 3 5 C0.90010348 3.82425289 0.90010348 3.82425289 -1 3 C-0.67 2.01 -0.34 1.02 0 0 Z " fill="#403935" transform="translate(117,127)"/>
<path d="M0 0 C0.99 0.33 1.98 0.66 3 1 C1.63016497 4.16115776 1.0109362 4.9927092 -2 7 C-2.6875 5.1875 -2.6875 5.1875 -3 3 C-1.5625 1.25 -1.5625 1.25 0 0 Z " fill="#9B948A" transform="translate(112,80)"/>
<path d="M0 0 C-0.33 2.97 -0.66 5.94 -1 9 C-1.66 9 -2.32 9 -3 9 C-3 7.02 -3 5.04 -3 3 C-3.99 3 -4.98 3 -6 3 C-2.25 0 -2.25 0 0 0 Z " fill="#B6AFA2" transform="translate(133,49)"/>
<path d="M0 0 C3.77545388 1.09068668 6.47043472 1.9083091 9 5 C8.34 5.66 7.68 6.32 7 7 C6.21625 6.525625 5.4325 6.05125 4.625 5.5625 C3.11051322 4.66101977 1.5764103 3.78820515 0 3 C0 2.01 0 1.02 0 0 Z " fill="#EFEAE2" transform="translate(57,46)"/>
<path d="M0 0 C0.66 0 1.32 0 2 0 C1.5206753 4.31392226 0.2542015 6.16569547 -3 9 C-3.33 8.01 -3.66 7.02 -4 6 C-3.525625 5.566875 -3.05125 5.13375 -2.5625 4.6875 C-0.76313043 2.97690387 -0.76313043 2.97690387 0 0 Z " fill="#9B9589" transform="translate(167,37)"/>
<path d="M0 0 C0.33 0.66 0.66 1.32 1 2 C-1.17508418 6.69360269 -1.17508418 6.69360269 -4.1875 7.8125 C-4.785625 7.874375 -5.38375 7.93625 -6 8 C-4.55746343 4.63408134 -2.66735273 2.48952921 0 0 Z " fill="#776E6F" transform="translate(70,128)"/>
<path d="M0 0 C2.31 1.98 4.62 3.96 7 6 C6.01 6.33 5.02 6.66 4 7 C1.3125 5.0625 1.3125 5.0625 -1 3 C-0.67 2.01 -0.34 1.02 0 0 Z " fill="#7E7774" transform="translate(85,65)"/>
<path d="M0 0 C2.625 0.9375 2.625 0.9375 5 2 C4.67 3.32 4.34 4.64 4 6 C1.5625 5.1875 1.5625 5.1875 -1 4 C-1.33 3.01 -1.66 2.02 -2 1 C-1.34 0.67 -0.68 0.34 0 0 Z " fill="#D2CDC6" transform="translate(50,46)"/>
<path d="M0 0 C0.33 1.32 0.66 2.64 1 4 C-1.64 4.33 -4.28 4.66 -7 5 C-2.25 0 -2.25 0 0 0 Z " fill="#4A423D" transform="translate(40,152)"/>
<path d="M0 0 C0.97608217 2.92824652 1.08226668 4.95613276 1 8 C-0.65 8.33 -2.3 8.66 -4 9 C-2.94124926 5.59687262 -1.99097846 2.98646769 0 0 Z " fill="#ACA698" transform="translate(182,145)"/>
<path d="M0 0 C1.65 0 3.3 0 5 0 C3.02 2.31 1.04 4.62 -1 7 C-1.66 6.67 -2.32 6.34 -3 6 C-2.34 5.34 -1.68 4.68 -1 4 C-0.3574765 1.93125966 -0.3574765 1.93125966 0 0 Z " fill="#A39B99" transform="translate(89,111)"/>
<path d="M0 0 C1.32 0.66 2.64 1.32 4 2 C4 2.66 4 3.32 4 4 C2.02 4.33 0.04 4.66 -2 5 C-2 4.01 -2 3.02 -2 2 C-1.34 2 -0.68 2 0 2 C0 1.34 0 0.68 0 0 Z " fill="#B4ABA5" transform="translate(118,96)"/>
<path d="M0 0 C2.3125 -0.25 2.3125 -0.25 5 0 C6.8125 2 6.8125 2 8 4 C5.69 3.67 3.38 3.34 1 3 C0.67 2.01 0.34 1.02 0 0 Z " fill="#968E8C" transform="translate(85,81)"/>
<path d="M0 0 C-1.25 1.5 -1.25 1.5 -3 3 C-4.32 3 -5.64 3 -7 3 C-7 2.01 -7 1.02 -7 0 C-3.86650268 -1.04449911 -3.01031744 -0.93423645 0 0 Z " fill="#DBD5C6" transform="translate(42,145)"/>
<path d="M0 0 C2.31 0.66 4.62 1.32 7 2 C7.33 3.32 7.66 4.64 8 6 C7.34 6 6.68 6 6 6 C6 5.34 6 4.68 6 4 C5.38125 3.896875 4.7625 3.79375 4.125 3.6875 C2 3 2 3 0 0 Z " fill="#837977" transform="translate(89,87)"/>
<path d="M0 0 C3.65316671 1.24976756 4.78065836 1.67098753 7 5 C5.35 5 3.7 5 2 5 C1.34 3.35 0.68 1.7 0 0 Z " fill="#B5ADAB" transform="translate(71,66)"/>
<path d="M0 0 C3.16115776 1.36983503 3.9927092 1.9890638 6 5 C6.125 7.6875 6.125 7.6875 6 10 C5.896875 9.360625 5.79375 8.72125 5.6875 8.0625 C5.3471875 7.0415625 5.3471875 7.0415625 5 6 C4.01 5.67 3.02 5.34 2 5 C0.8125 2.4375 0.8125 2.4375 0 0 Z " fill="#CDC8C1" transform="translate(70,52)"/>
<path d="M0 0 C0.33 0.66 0.66 1.32 1 2 C0.67 2.66 0.34 3.32 0 4 C1.32 4.33 2.64 4.66 4 5 C2.02 5.33 0.04 5.66 -2 6 C-2.33 4.68 -2.66 3.36 -3 2 C-2.01 1.34 -1.02 0.68 0 0 Z " fill="#7E766E" transform="translate(43,150)"/>
<path d="M0 0 C0.99 0.33 1.98 0.66 3 1 C2.67 1.99 2.34 2.98 2 4 C-1 4 -1 4 -4 3 C-2.1875 1.4375 -2.1875 1.4375 0 0 Z " fill="#B3ABA1" transform="translate(65,139)"/>
<path d="M0 0 C0.33 0 0.66 0 1 0 C1.66 2.64 2.32 5.28 3 8 C0.11562221 6.70700306 -1.87219421 5.34058637 -4 3 C-3.01 3 -2.02 3 -1 3 C-0.67 2.01 -0.34 1.02 0 0 Z " fill="#A8A294" transform="translate(125,136)"/>
<path d="M0 0 C0.86625 0.3403125 0.86625 0.3403125 1.75 0.6875 C1.42 2.0075 1.09 3.3275 0.75 4.6875 C0.42 4.0275 0.09 3.3675 -0.25 2.6875 C-2.23 2.6875 -4.21 2.6875 -6.25 2.6875 C-2.80384615 -0.38942308 -2.80384615 -0.38942308 0 0 Z " fill="#8B827B" transform="translate(81.25,131.3125)"/>
<path d="M0 0 C3.465 1.485 3.465 1.485 7 3 C4 5 4 5 0 5 C0 3.35 0 1.7 0 0 Z " fill="#D6D1CD" transform="translate(36,49)"/>
<path d="M0 0 C1.98 0.66 3.96 1.32 6 2 C5.67 2.66 5.34 3.32 5 4 C4.34 3.67 3.68 3.34 3 3 C2.67 3.66 2.34 4.32 2 5 C1.01 3.68 0.02 2.36 -1 1 C-0.67 0.67 -0.34 0.34 0 0 Z " fill="#59524F" transform="translate(109,126)"/>
<path d="M0 0 C0.99 0.33 1.98 0.66 3 1 C2.625 2.9375 2.625 2.9375 2 5 C1.01 5.495 1.01 5.495 0 6 C-0.33 5.01 -0.66 4.02 -1 3 C-1.66 2.67 -2.32 2.34 -3 2 C-2.01 1.34 -1.02 0.68 0 0 Z " fill="#746D65" transform="translate(50,123)"/>
<path d="M0 0 C2.5 1.3125 2.5 1.3125 5 3 C5 3.99 5 4.98 5 6 C1.60085025 4.86695008 0.94745549 3.87481525 -1 1 C-0.67 0.67 -0.34 0.34 0 0 Z " fill="#B5AFAC" transform="translate(78,71)"/>
</svg>
