<svg xmlns="http://www.w3.org/2000/svg" width="200" height="200" viewBox="0 0 200 200" version="1.1"><path d="M 99.150 24.131 C 98.037 25.914, 98.038 26.411, 99.158 27.134 C 100.251 27.840, 100.260 28.155, 99.203 28.838 C 98.167 29.508, 98.220 29.938, 99.468 30.974 C 100.780 32.062, 101.331 31.925, 102.901 30.115 C 104.611 28.143, 104.827 28.108, 105.439 29.701 C 105.832 30.725, 106.395 31.031, 106.804 30.443 C 107.551 29.368, 111.075 29.310, 112.751 30.346 C 114.133 31.200, 116.358 28.374, 115.684 26.619 C 115.047 24.960, 107.009 24.800, 106.985 26.446 C 106.976 27.026, 106.526 26.825, 105.985 26 C 105.109 24.667, 104.891 24.667, 104.015 26 C 103.071 27.439, 102.936 27.252, 102.635 24.086 C 102.417 21.802, 100.590 21.825, 99.150 24.131 M 131.136 25.250 C 131.026 28.288, 130.620 29, 129 29 C 127.900 29, 127 28.550, 127 28 C 127 27.450, 127.675 27, 128.500 27 C 129.325 27, 130 26.550, 130 26 C 130 24.620, 127.656 24.744, 126.200 26.200 C 125.267 27.133, 125 27.133, 125 26.200 C 125 24.368, 121.025 24.771, 120.294 26.677 C 119.718 28.177, 119.571 28.151, 118.895 26.427 C 118.307 24.924, 118.125 25.215, 118.070 27.750 C 118.031 29.572, 117.473 31, 116.800 31 C 115.903 31, 115.920 31.315, 116.867 32.250 C 117.883 33.252, 118.417 33.117, 119.557 31.573 C 120.339 30.513, 121.268 29.935, 121.621 30.288 C 121.974 30.641, 123.076 30.494, 124.071 29.962 C 125.176 29.371, 126.102 29.356, 126.453 29.924 C 126.801 30.486, 128.261 30.499, 130.156 29.955 C 131.877 29.462, 133.614 29.262, 134.017 29.511 C 134.420 29.760, 134.750 28.820, 134.750 27.423 C 134.750 25.736, 134.309 25.051, 133.437 25.386 C 132.657 25.685, 131.952 25, 131.698 23.695 C 131.447 22.402, 131.216 23.041, 131.136 25.250 M 85.500 40 C 84.400 40.473, 84.111 40.891, 84.857 40.930 C 85.728 40.975, 85.975 41.626, 85.548 42.750 C 85.037 44.092, 85.157 44.227, 86.063 43.328 C 86.712 42.684, 87.976 42.389, 88.872 42.672 C 90.167 43.083, 90.218 42.988, 89.122 42.206 C 88.364 41.666, 88.053 40.723, 88.431 40.112 C 89.227 38.823, 88.320 38.788, 85.500 40 M 90 49.425 C 90 49.659, 92.362 51.170, 95.250 52.784 C 98.138 54.398, 102.975 57.124, 106 58.841 C 109.025 60.559, 112.316 61.972, 113.313 61.982 C 114.311 61.992, 110.261 59.483, 104.313 56.407 C 98.366 53.331, 93.073 50.406, 92.550 49.907 C 91.570 48.971, 90 48.674, 90 49.425 M 72.607 53.454 C 67.166 55.319, 62.305 57.442, 61.806 58.172 C 59.417 61.668, 63.246 76.780, 69.516 88.599 C 72.692 94.586, 73 95.904, 73 103.518 C 73 108.111, 72.616 112.912, 72.147 114.185 C 71.678 115.458, 71.504 118.204, 71.761 120.288 C 72.158 123.510, 72.827 124.381, 76.244 126.125 C 79.126 127.595, 81.283 128.004, 83.880 127.572 C 87.279 127.007, 87.358 127.052, 85.182 128.306 C 82.990 129.570, 83.456 129.869, 93.767 133.821 C 104.374 137.887, 112.797 139.166, 117.381 137.407 C 118.766 136.876, 118.760 136.564, 117.327 134.376 C 116.448 133.035, 116.015 131.652, 116.365 131.302 C 116.714 130.953, 117 131.160, 117 131.762 C 117 132.364, 117.691 133.549, 118.536 134.394 C 119.918 135.775, 120.471 135.722, 124.036 133.864 C 129.414 131.061, 129.286 128.940, 123.750 129.129 C 117.496 129.342, 113.149 127.057, 102.539 117.982 C 91.540 108.573, 86.147 102.611, 85.397 99.027 C 85.106 97.637, 84.223 95.306, 83.434 93.846 C 81.854 90.921, 81.672 86.590, 83 83.500 C 83.631 82.032, 83.878 82.900, 83.930 86.764 C 83.968 89.659, 84.423 92.809, 84.940 93.764 C 85.456 94.719, 86.152 96.787, 86.486 98.360 C 87.574 103.485, 109.832 123.971, 117.098 126.535 C 123.260 128.709, 132.103 128.419, 137.223 125.875 C 142.987 123.012, 149 115.805, 149 111.760 C 149 110.054, 149.645 107.945, 150.433 107.074 C 151.221 106.203, 153.473 102.239, 155.437 98.264 C 159.577 89.887, 160.427 81.827, 157.622 77.546 C 156.309 75.542, 156.169 74.191, 156.921 70.771 C 157.483 68.213, 157.504 64.695, 156.973 62 C 156.486 59.525, 156.068 57.163, 156.044 56.750 C 155.973 55.538, 152.649 55.950, 150.727 57.409 C 149.048 58.682, 149.062 58.783, 150.977 59.284 C 152.090 59.575, 153 60.360, 153 61.029 C 153 61.968, 152.656 61.960, 151.492 60.993 C 150.523 60.189, 148.467 59.951, 145.742 60.327 C 129.027 62.633, 121.585 64.053, 120.966 65.055 C 120.449 65.892, 120.060 65.907, 119.566 65.107 C 119.190 64.498, 117.671 63.996, 116.191 63.990 C 114.711 63.985, 111.130 62.877, 108.233 61.528 C 105.336 60.180, 102.280 59.339, 101.442 59.661 C 100.536 60.008, 100.036 59.753, 100.209 59.031 C 100.618 57.322, 88.355 49.993, 85.150 50.031 C 83.692 50.048, 78.048 51.589, 72.607 53.454 M 160.887 51.056 C 158.900 51.527, 153.950 53.225, 149.887 54.830 C 145.824 56.435, 138.330 58.547, 133.233 59.524 C 128.137 60.501, 124.181 61.514, 124.442 61.775 C 125.580 62.914, 144.997 58.578, 150.500 55.957 C 157.451 52.646, 168.638 50.598, 174.459 51.569 C 177.407 52.061, 179.514 53.337, 182.250 56.288 C 184.313 58.513, 185.986 59.920, 185.968 59.416 C 185.913 57.815, 183.587 55.338, 179.594 52.628 C 176.479 50.514, 174.623 50.020, 170.110 50.100 C 167.025 50.156, 162.874 50.586, 160.887 51.056 M 135.755 66.500 C 135.492 67.875, 135.612 69, 136.022 69 C 136.432 69, 136.982 67.875, 137.245 66.500 C 137.508 65.125, 137.388 64, 136.978 64 C 136.568 64, 136.018 65.125, 135.755 66.500 M 100.210 70.750 C 100.085 72.263, 98.974 74.329, 97.742 75.343 C 95.737 76.991, 95.712 77.110, 97.500 76.464 C 101.945 74.861, 104.149 74.843, 107.397 76.384 C 111.410 78.289, 114.597 78.462, 115.605 76.830 C 116.083 76.056, 115.794 75.865, 114.749 76.266 C 113.880 76.600, 111.894 76.490, 110.335 76.022 C 107.793 75.260, 107.979 75.163, 112.143 75.086 C 115.500 75.024, 116.963 74.538, 117.426 73.333 C 117.778 72.416, 117.713 71.352, 117.283 70.969 C 115.618 69.488, 109.495 68, 105.069 68 C 100.737 68, 100.422 68.178, 100.210 70.750 M 104.250 69.689 C 105.213 69.941, 106.787 69.941, 107.750 69.689 C 108.713 69.438, 107.925 69.232, 106 69.232 C 104.075 69.232, 103.287 69.438, 104.250 69.689 M 141 70.752 C 138.749 71.876, 137.500 73.214, 137.500 74.500 C 137.500 76.293, 138.051 76.464, 142.814 76.153 C 146.833 75.890, 148.600 76.233, 150.070 77.563 C 151.138 78.530, 152.346 78.987, 152.755 78.579 C 153.163 78.171, 152.656 77.221, 151.627 76.469 C 150.301 75.500, 149.936 74.390, 150.372 72.655 C 151.367 68.688, 146.934 67.787, 141 70.752 M 92.750 71.662 C 93.438 71.940, 94.563 71.940, 95.250 71.662 C 95.938 71.385, 95.375 71.158, 94 71.158 C 92.625 71.158, 92.063 71.385, 92.750 71.662 M 111.701 71.632 C 110.295 73.038, 111.059 74, 113.583 74 C 115.205 74, 116.012 73.535, 115.750 72.750 C 115.269 71.304, 112.730 70.603, 111.701 71.632 M 143.250 71.689 C 144.213 71.941, 145.787 71.941, 146.750 71.689 C 147.713 71.438, 146.925 71.232, 145 71.232 C 143.075 71.232, 142.287 71.438, 143.250 71.689 M 91.500 74 C 90.769 75.183, 91.748 75.183, 94.500 74 C 96.428 73.171, 96.421 73.138, 94.309 73.070 C 93.104 73.032, 91.840 73.450, 91.500 74 M 144 74 C 144 74.550, 145.125 75, 146.500 75 C 147.875 75, 149 74.550, 149 74 C 149 73.450, 147.875 73, 146.500 73 C 145.125 73, 144 73.450, 144 74 M 133.441 82.620 C 133.802 84.061, 135.437 86.905, 137.073 88.941 C 139.968 92.544, 140.007 92.738, 138.547 96.234 C 137.317 99.178, 136.637 99.735, 134.773 99.326 C 132.951 98.926, 132.798 99.039, 134 99.898 C 136.665 101.801, 137.867 101.089, 139.954 96.372 L 142.001 91.744 138.500 87.869 C 136.575 85.738, 135 83.096, 135 81.997 C 135 80.899, 134.501 80, 133.892 80 C 133.195 80, 133.028 80.974, 133.441 82.620 M 118.250 93.031 C 114.288 94.624, 116.305 100.075, 120.785 99.884 C 122.889 99.794, 123.050 99.656, 121.500 99.268 C 118.217 98.448, 116.478 94, 119.441 94 C 120.234 94, 121.160 93.550, 121.500 93 C 122.240 91.802, 121.284 91.812, 118.250 93.031 M 108 98.346 C 106.845 100.774, 105.465 101.788, 102 102.753 L 97.500 104.006 101.750 103.598 C 105.251 103.262, 106 103.491, 106 104.899 C 106 107.448, 111.140 115.053, 115.359 118.750 C 118.672 121.651, 119.720 122, 125.134 122 C 130.663 122, 131.460 121.719, 134.179 118.808 C 136.559 116.260, 140.119 110.497, 142.788 104.868 C 142.953 104.521, 138.231 104.426, 132.294 104.657 C 122.729 105.030, 120.875 104.817, 116.009 102.784 C 111.682 100.976, 110.410 99.928, 110.009 97.840 L 109.500 95.191 108 98.346 M 126 98 C 124.787 98.784, 124.931 98.972, 126.750 98.985 C 127.987 98.993, 129 98.550, 129 98 C 129 96.747, 127.939 96.747, 126 98 M 115.407 104.849 C 116.548 106.696, 125.647 111, 128.410 111 C 129.843 111, 131.553 110.052, 132.468 108.750 L 134.050 106.500 126.275 105.862 C 121.999 105.512, 117.639 104.873, 116.586 104.442 C 115.224 103.886, 114.884 104.003, 115.407 104.849 M 85.987 111.204 C 85.719 114.892, 85.862 117.545, 86.304 117.100 C 86.747 116.655, 86.966 113.638, 86.792 110.396 L 86.475 104.500 85.987 111.204 M 110.001 110.750 C 110.003 111.830, 114.021 116.203, 117.385 118.785 C 121.372 121.846, 126.944 121.753, 129.930 118.574 C 132.223 116.134, 132.038 114, 129.535 114 C 128.680 114, 128.378 114.731, 128.710 116 C 129.837 120.308, 118.848 117.660, 113.947 112.444 C 111.672 110.022, 109.999 109.304, 110.001 110.750 M 68.057 121.893 C 66.159 125.439, 72.335 141.152, 80.241 152.891 L 83.543 157.795 83.163 147.542 C 82.802 137.787, 82.887 137.263, 84.899 136.737 C 87.511 136.054, 97.417 138.272, 99.509 140.008 C 101.271 141.470, 102.902 140.502, 101.329 138.929 C 100.758 138.358, 96.129 136.324, 91.043 134.410 C 74.793 128.295, 69.113 124.753, 70.357 121.513 C 71.195 119.328, 69.258 119.649, 68.057 121.893 M 128.570 132.887 C 128.269 133.374, 128.692 134.329, 129.511 135.009 C 130.330 135.689, 131 137.165, 131 138.289 C 131 139.413, 131.254 140.079, 131.564 139.769 C 131.875 139.458, 131.825 137.583, 131.453 135.602 C 130.798 132.108, 129.694 131.068, 128.570 132.887 M 120.751 138.692 C 115.236 141.762, 115.101 142.820, 120.514 140.559 C 124.557 138.870, 128.015 138.454, 126.450 139.845 C 125.927 140.309, 122.678 141.718, 119.229 142.975 C 112.418 145.456, 112.550 145.351, 111.681 149.005 C 111.149 151.239, 111.590 151.720, 115.744 153.438 C 118.307 154.498, 119.894 155.535, 119.270 155.743 C 118.646 155.951, 116.713 155.386, 114.975 154.487 C 113.236 153.588, 111.653 153.014, 111.455 153.212 C 110.757 153.910, 119.338 163.190, 121.404 163.971 C 124.718 165.224, 126.544 163.544, 129.548 156.475 C 132.487 149.559, 132.483 149.134, 129.347 137.750 C 128.682 135.334, 126.319 135.593, 120.751 138.692 M 84.328 144.500 C 84.333 148.350, 84.513 149.802, 84.730 147.728 C 84.946 145.653, 84.943 142.503, 84.722 140.728 C 84.501 138.952, 84.324 140.650, 84.328 144.500 M 86.844 144.144 C 86.461 151.212, 87.909 162, 89.240 162 C 91.216 162, 96.486 158.578, 98.903 155.725 C 105.747 147.647, 102.254 140.801, 90.041 138.358 L 87.188 137.788 86.844 144.144 M 103.667 140.667 C 102.172 142.161, 103.191 143, 106.500 143 C 108.944 143, 110 142.548, 110 141.500 C 110 139.971, 105.018 139.315, 103.667 140.667 M 112 141.059 C 112 141.641, 112.450 141.840, 113 141.500 C 113.550 141.160, 114 140.684, 114 140.441 C 114 140.198, 113.550 140, 113 140 C 112.450 140, 112 140.477, 112 141.059 M 104 147.500 C 104 149.425, 103.966 151.326, 103.925 151.725 C 103.719 153.715, 106.067 152.785, 107.493 150.312 C 108.864 147.936, 109.043 147.849, 108.651 149.751 C 108.395 150.990, 108.595 151.751, 109.093 151.442 C 109.592 151.134, 110 149.611, 110 148.058 C 110 145.974, 109.410 145.075, 107.750 144.630 C 104.177 143.673, 104 143.808, 104 147.500 M 102.250 154.639 C 100.846 155.231, 100.665 166.260, 101.846 179.225 C 102.393 185.234, 102.988 187.274, 104.525 188.407 C 106.315 189.728, 106.768 189.613, 109.360 187.182 L 112.221 184.500 111.540 173.500 C 111.165 167.450, 110.548 160.700, 110.168 158.500 C 109.554 154.943, 109.146 154.478, 106.489 154.306 C 104.845 154.199, 102.938 154.349, 102.250 154.639 M 141 155 C 141 155.550, 141.450 156, 142 156 C 142.550 156, 143 155.550, 143 155 C 143 154.450, 142.550 154, 142 154 C 141.450 154, 141 154.450, 141 155 M 112.430 165 C 112.737 169.675, 112.991 175.491, 112.994 177.924 L 113 182.349 115.516 179.985 C 116.900 178.685, 119.179 175.665, 120.580 173.273 L 123.129 168.924 118.722 164.712 C 116.298 162.395, 113.765 159.600, 113.093 158.500 C 112.094 156.864, 111.973 158.046, 112.430 165 M 96.844 160.258 C 95.384 161.491, 93.662 163.547, 93.018 164.828 C 92.318 166.218, 91.272 166.934, 90.418 166.607 C 89.361 166.201, 89.529 167.116, 91.061 170.119 C 93.329 174.564, 100.067 184.266, 100.551 183.782 C 100.717 183.616, 100.549 177.751, 100.177 170.748 L 99.500 158.017 96.844 160.258 M 90 164.059 C 90 164.641, 90.450 164.840, 91 164.500 C 91.550 164.160, 92 163.684, 92 163.441 C 92 163.198, 91.550 163, 91 163 C 90.450 163, 90 163.477, 90 164.059" stroke="none" fill="#e2ba9b" fill-rule="evenodd"/><path d="M 93 1.095 C 86.563 2.351, 83.367 3.762, 75.896 8.644 C 61.131 18.293, 57.553 25.546, 58.380 44.152 C 59.624 72.143, 60.714 77.472, 67.447 88.500 C 70.123 92.882, 70.543 94.587, 70.851 102.298 C 71.280 113.035, 70.091 116.403, 64.948 119.027 C 62.536 120.257, 59.081 123.810, 55.341 128.905 C 52.128 133.281, 48.960 136.892, 48.300 136.931 C 47.640 136.969, 41.115 139.025, 33.800 141.500 C 18.559 146.656, 15.675 148.908, 12.111 158.433 C 9.934 164.251, 7 185.097, 7 194.744 L 7 200 100 200 L 193 200 192.999 196.250 C 192.995 187.560, 186.641 160.154, 182.971 153 C 178.590 144.461, 169.690 139.616, 151.598 135.922 C 146.151 134.810, 140.764 133.248, 139.625 132.450 C 138.487 131.653, 136.193 130.979, 134.527 130.953 C 131.646 130.909, 131.742 130.783, 136.500 128.335 C 142.951 125.018, 149.799 117.580, 150.621 113 C 150.966 111.075, 152.704 107.025, 154.483 104 C 160.239 94.212, 161 91.998, 161 85.046 C 161 81.341, 160.487 77.887, 159.841 77.241 C 158.816 76.216, 158.492 63.175, 159.467 62.199 C 159.658 62.009, 161.193 62.565, 162.877 63.436 C 164.562 64.308, 169.216 65.287, 173.220 65.613 C 179.789 66.147, 180.842 65.971, 184 63.818 C 185.937 62.497, 187.648 60.400, 187.832 59.123 C 188.337 55.608, 180.757 49.022, 172.913 46.160 C 152.645 38.765, 154.720 40.412, 148.401 26.713 C 146.425 22.430, 143.675 17.578, 142.288 15.931 C 138.140 11, 127.870 4.294, 122 2.683 C 115.167 0.807, 99.009 -0.078, 93 1.095 M 99.150 24.131 C 98.037 25.914, 98.038 26.411, 99.158 27.134 C 100.251 27.840, 100.260 28.155, 99.203 28.838 C 98.167 29.508, 98.220 29.938, 99.468 30.974 C 100.780 32.062, 101.331 31.925, 102.901 30.115 C 104.611 28.143, 104.827 28.108, 105.439 29.701 C 105.832 30.725, 106.395 31.031, 106.804 30.443 C 107.551 29.368, 111.075 29.310, 112.751 30.346 C 114.133 31.200, 116.358 28.374, 115.684 26.619 C 115.047 24.960, 107.009 24.800, 106.985 26.446 C 106.976 27.026, 106.526 26.825, 105.985 26 C 105.109 24.667, 104.891 24.667, 104.015 26 C 103.071 27.439, 102.936 27.252, 102.635 24.086 C 102.417 21.802, 100.590 21.825, 99.150 24.131 M 131.136 25.250 C 131.026 28.288, 130.620 29, 129 29 C 127.900 29, 127 28.550, 127 28 C 127 27.450, 127.675 27, 128.500 27 C 129.325 27, 130 26.550, 130 26 C 130 24.620, 127.656 24.744, 126.200 26.200 C 125.267 27.133, 125 27.133, 125 26.200 C 125 24.368, 121.025 24.771, 120.294 26.677 C 119.718 28.177, 119.571 28.151, 118.895 26.427 C 118.307 24.924, 118.125 25.215, 118.070 27.750 C 118.031 29.572, 117.473 31, 116.800 31 C 115.903 31, 115.920 31.315, 116.867 32.250 C 117.883 33.252, 118.417 33.117, 119.557 31.573 C 120.339 30.513, 121.268 29.935, 121.621 30.288 C 121.974 30.641, 123.076 30.494, 124.071 29.962 C 125.176 29.371, 126.102 29.356, 126.453 29.924 C 126.801 30.486, 128.261 30.499, 130.156 29.955 C 131.877 29.462, 133.614 29.262, 134.017 29.511 C 134.420 29.760, 134.750 28.820, 134.750 27.423 C 134.750 25.736, 134.309 25.051, 133.437 25.386 C 132.657 25.685, 131.952 25, 131.698 23.695 C 131.447 22.402, 131.216 23.041, 131.136 25.250 M 85.500 40 C 84.400 40.473, 84.111 40.891, 84.857 40.930 C 85.728 40.975, 85.975 41.626, 85.548 42.750 C 85.037 44.092, 85.157 44.227, 86.063 43.328 C 86.712 42.684, 87.976 42.389, 88.872 42.672 C 90.167 43.083, 90.218 42.988, 89.122 42.206 C 88.364 41.666, 88.053 40.723, 88.431 40.112 C 89.227 38.823, 88.320 38.788, 85.500 40 M 90 49.425 C 90 49.659, 92.362 51.170, 95.250 52.784 C 98.138 54.398, 102.975 57.124, 106 58.841 C 109.025 60.559, 112.316 61.972, 113.313 61.982 C 114.311 61.992, 110.261 59.483, 104.313 56.407 C 98.366 53.331, 93.073 50.406, 92.550 49.907 C 91.570 48.971, 90 48.674, 90 49.425 M 72.607 53.454 C 67.166 55.319, 62.305 57.442, 61.806 58.172 C 59.417 61.668, 63.246 76.780, 69.516 88.599 C 72.692 94.586, 73 95.904, 73 103.518 C 73 108.111, 72.616 112.912, 72.147 114.185 C 71.678 115.458, 71.504 118.204, 71.761 120.288 C 72.158 123.510, 72.827 124.381, 76.244 126.125 C 79.126 127.595, 81.283 128.004, 83.880 127.572 C 87.279 127.007, 87.358 127.052, 85.182 128.306 C 82.990 129.570, 83.456 129.869, 93.767 133.821 C 104.374 137.887, 112.797 139.166, 117.381 137.407 C 118.766 136.876, 118.760 136.564, 117.327 134.376 C 116.448 133.035, 116.015 131.652, 116.365 131.302 C 116.714 130.953, 117 131.160, 117 131.762 C 117 132.364, 117.691 133.549, 118.536 134.394 C 119.918 135.775, 120.471 135.722, 124.036 133.864 C 129.414 131.061, 129.286 128.940, 123.750 129.129 C 117.496 129.342, 113.149 127.057, 102.539 117.982 C 91.540 108.573, 86.147 102.611, 85.397 99.027 C 85.106 97.637, 84.223 95.306, 83.434 93.846 C 81.854 90.921, 81.672 86.590, 83 83.500 C 83.631 82.032, 83.878 82.900, 83.930 86.764 C 83.968 89.659, 84.423 92.809, 84.940 93.764 C 85.456 94.719, 86.152 96.787, 86.486 98.360 C 87.574 103.485, 109.832 123.971, 117.098 126.535 C 123.260 128.709, 132.103 128.419, 137.223 125.875 C 142.987 123.012, 149 115.805, 149 111.760 C 149 110.054, 149.645 107.945, 150.433 107.074 C 151.221 106.203, 153.473 102.239, 155.437 98.264 C 159.577 89.887, 160.427 81.827, 157.622 77.546 C 156.309 75.542, 156.169 74.191, 156.921 70.771 C 157.483 68.213, 157.504 64.695, 156.973 62 C 156.486 59.525, 156.068 57.163, 156.044 56.750 C 155.973 55.538, 152.649 55.950, 150.727 57.409 C 149.048 58.682, 149.062 58.783, 150.977 59.284 C 152.090 59.575, 153 60.360, 153 61.029 C 153 61.968, 152.656 61.960, 151.492 60.993 C 150.523 60.189, 148.467 59.951, 145.742 60.327 C 129.027 62.633, 121.585 64.053, 120.966 65.055 C 120.449 65.892, 120.060 65.907, 119.566 65.107 C 119.190 64.498, 117.671 63.996, 116.191 63.990 C 114.711 63.985, 111.130 62.877, 108.233 61.528 C 105.336 60.180, 102.280 59.339, 101.442 59.661 C 100.536 60.008, 100.036 59.753, 100.209 59.031 C 100.618 57.322, 88.355 49.993, 85.150 50.031 C 83.692 50.048, 78.048 51.589, 72.607 53.454 M 160.887 51.056 C 158.900 51.527, 153.950 53.225, 149.887 54.830 C 145.824 56.435, 138.330 58.547, 133.233 59.524 C 128.137 60.501, 124.181 61.514, 124.442 61.775 C 125.580 62.914, 144.997 58.578, 150.500 55.957 C 157.451 52.646, 168.638 50.598, 174.459 51.569 C 177.407 52.061, 179.514 53.337, 182.250 56.288 C 184.313 58.513, 185.986 59.920, 185.968 59.416 C 185.913 57.815, 183.587 55.338, 179.594 52.628 C 176.479 50.514, 174.623 50.020, 170.110 50.100 C 167.025 50.156, 162.874 50.586, 160.887 51.056 M 135.755 66.500 C 135.492 67.875, 135.612 69, 136.022 69 C 136.432 69, 136.982 67.875, 137.245 66.500 C 137.508 65.125, 137.388 64, 136.978 64 C 136.568 64, 136.018 65.125, 135.755 66.500 M 100.210 70.750 C 100.085 72.263, 98.974 74.329, 97.742 75.343 C 95.737 76.991, 95.712 77.110, 97.500 76.464 C 101.945 74.861, 104.149 74.843, 107.397 76.384 C 111.410 78.289, 114.597 78.462, 115.605 76.830 C 116.083 76.056, 115.794 75.865, 114.749 76.266 C 113.880 76.600, 111.894 76.490, 110.335 76.022 C 107.793 75.260, 107.979 75.163, 112.143 75.086 C 115.500 75.024, 116.963 74.538, 117.426 73.333 C 117.778 72.416, 117.713 71.352, 117.283 70.969 C 115.618 69.488, 109.495 68, 105.069 68 C 100.737 68, 100.422 68.178, 100.210 70.750 M 104.250 69.689 C 105.213 69.941, 106.787 69.941, 107.750 69.689 C 108.713 69.438, 107.925 69.232, 106 69.232 C 104.075 69.232, 103.287 69.438, 104.250 69.689 M 141 70.752 C 138.749 71.876, 137.500 73.214, 137.500 74.500 C 137.500 76.293, 138.051 76.464, 142.814 76.153 C 146.833 75.890, 148.600 76.233, 150.070 77.563 C 151.138 78.530, 152.346 78.987, 152.755 78.579 C 153.163 78.171, 152.656 77.221, 151.627 76.469 C 150.301 75.500, 149.936 74.390, 150.372 72.655 C 151.367 68.688, 146.934 67.787, 141 70.752 M 92.750 71.662 C 93.438 71.940, 94.563 71.940, 95.250 71.662 C 95.938 71.385, 95.375 71.158, 94 71.158 C 92.625 71.158, 92.063 71.385, 92.750 71.662 M 111.701 71.632 C 110.295 73.038, 111.059 74, 113.583 74 C 115.205 74, 116.012 73.535, 115.750 72.750 C 115.269 71.304, 112.730 70.603, 111.701 71.632 M 143.250 71.689 C 144.213 71.941, 145.787 71.941, 146.750 71.689 C 147.713 71.438, 146.925 71.232, 145 71.232 C 143.075 71.232, 142.287 71.438, 143.250 71.689 M 91.500 74 C 90.769 75.183, 91.748 75.183, 94.500 74 C 96.428 73.171, 96.421 73.138, 94.309 73.070 C 93.104 73.032, 91.840 73.450, 91.500 74 M 144 74 C 144 74.550, 145.125 75, 146.500 75 C 147.875 75, 149 74.550, 149 74 C 149 73.450, 147.875 73, 146.500 73 C 145.125 73, 144 73.450, 144 74 M 133.441 82.620 C 133.802 84.061, 135.437 86.905, 137.073 88.941 C 139.968 92.544, 140.007 92.738, 138.547 96.234 C 137.317 99.178, 136.637 99.735, 134.773 99.326 C 132.951 98.926, 132.798 99.039, 134 99.898 C 136.665 101.801, 137.867 101.089, 139.954 96.372 L 142.001 91.744 138.500 87.869 C 136.575 85.738, 135 83.096, 135 81.997 C 135 80.899, 134.501 80, 133.892 80 C 133.195 80, 133.028 80.974, 133.441 82.620 M 118.250 93.031 C 114.288 94.624, 116.305 100.075, 120.785 99.884 C 122.889 99.794, 123.050 99.656, 121.500 99.268 C 118.217 98.448, 116.478 94, 119.441 94 C 120.234 94, 121.160 93.550, 121.500 93 C 122.240 91.802, 121.284 91.812, 118.250 93.031 M 108 98.346 C 106.845 100.774, 105.465 101.788, 102 102.753 L 97.500 104.006 101.750 103.598 C 105.251 103.262, 106 103.491, 106 104.899 C 106 107.448, 111.140 115.053, 115.359 118.750 C 118.672 121.651, 119.720 122, 125.134 122 C 130.663 122, 131.460 121.719, 134.179 118.808 C 136.559 116.260, 140.119 110.497, 142.788 104.868 C 142.953 104.521, 138.231 104.426, 132.294 104.657 C 122.729 105.030, 120.875 104.817, 116.009 102.784 C 111.682 100.976, 110.410 99.928, 110.009 97.840 L 109.500 95.191 108 98.346 M 126 98 C 124.787 98.784, 124.931 98.972, 126.750 98.985 C 127.987 98.993, 129 98.550, 129 98 C 129 96.747, 127.939 96.747, 126 98 M 115.407 104.849 C 116.548 106.696, 125.647 111, 128.410 111 C 129.843 111, 131.553 110.052, 132.468 108.750 L 134.050 106.500 126.275 105.862 C 121.999 105.512, 117.639 104.873, 116.586 104.442 C 115.224 103.886, 114.884 104.003, 115.407 104.849 M 85.987 111.204 C 85.719 114.892, 85.862 117.545, 86.304 117.100 C 86.747 116.655, 86.966 113.638, 86.792 110.396 L 86.475 104.500 85.987 111.204 M 110.001 110.750 C 110.003 111.830, 114.021 116.203, 117.385 118.785 C 121.372 121.846, 126.944 121.753, 129.930 118.574 C 132.223 116.134, 132.038 114, 129.535 114 C 128.680 114, 128.378 114.731, 128.710 116 C 129.837 120.308, 118.848 117.660, 113.947 112.444 C 111.672 110.022, 109.999 109.304, 110.001 110.750 M 68.057 121.893 C 66.159 125.439, 72.335 141.152, 80.241 152.891 L 83.543 157.795 83.163 147.542 C 82.802 137.787, 82.887 137.263, 84.899 136.737 C 87.511 136.054, 97.417 138.272, 99.509 140.008 C 101.271 141.470, 102.902 140.502, 101.329 138.929 C 100.758 138.358, 96.129 136.324, 91.043 134.410 C 74.793 128.295, 69.113 124.753, 70.357 121.513 C 71.195 119.328, 69.258 119.649, 68.057 121.893 M 128.570 132.887 C 128.269 133.374, 128.692 134.329, 129.511 135.009 C 130.330 135.689, 131 137.165, 131 138.289 C 131 139.413, 131.254 140.079, 131.564 139.769 C 131.875 139.458, 131.825 137.583, 131.453 135.602 C 130.798 132.108, 129.694 131.068, 128.570 132.887 M 120.751 138.692 C 115.236 141.762, 115.101 142.820, 120.514 140.559 C 124.557 138.870, 128.015 138.454, 126.450 139.845 C 125.927 140.309, 122.678 141.718, 119.229 142.975 C 112.418 145.456, 112.550 145.351, 111.681 149.005 C 111.149 151.239, 111.590 151.720, 115.744 153.438 C 118.307 154.498, 119.894 155.535, 119.270 155.743 C 118.646 155.951, 116.713 155.386, 114.975 154.487 C 113.236 153.588, 111.653 153.014, 111.455 153.212 C 110.757 153.910, 119.338 163.190, 121.404 163.971 C 124.718 165.224, 126.544 163.544, 129.548 156.475 C 132.487 149.559, 132.483 149.134, 129.347 137.750 C 128.682 135.334, 126.319 135.593, 120.751 138.692 M 84.328 144.500 C 84.333 148.350, 84.513 149.802, 84.730 147.728 C 84.946 145.653, 84.943 142.503, 84.722 140.728 C 84.501 138.952, 84.324 140.650, 84.328 144.500 M 86.844 144.144 C 86.461 151.212, 87.909 162, 89.240 162 C 91.216 162, 96.486 158.578, 98.903 155.725 C 105.747 147.647, 102.254 140.801, 90.041 138.358 L 87.188 137.788 86.844 144.144 M 103.667 140.667 C 102.172 142.161, 103.191 143, 106.500 143 C 108.944 143, 110 142.548, 110 141.500 C 110 139.971, 105.018 139.315, 103.667 140.667 M 112 141.059 C 112 141.641, 112.450 141.840, 113 141.500 C 113.550 141.160, 114 140.684, 114 140.441 C 114 140.198, 113.550 140, 113 140 C 112.450 140, 112 140.477, 112 141.059 M 104 147.500 C 104 149.425, 103.966 151.326, 103.925 151.725 C 103.719 153.715, 106.067 152.785, 107.493 150.312 C 108.864 147.936, 109.043 147.849, 108.651 149.751 C 108.395 150.990, 108.595 151.751, 109.093 151.442 C 109.592 151.134, 110 149.611, 110 148.058 C 110 145.974, 109.410 145.075, 107.750 144.630 C 104.177 143.673, 104 143.808, 104 147.500 M 102.250 154.639 C 100.846 155.231, 100.665 166.260, 101.846 179.225 C 102.393 185.234, 102.988 187.274, 104.525 188.407 C 106.315 189.728, 106.768 189.613, 109.360 187.182 L 112.221 184.500 111.540 173.500 C 111.165 167.450, 110.548 160.700, 110.168 158.500 C 109.554 154.943, 109.146 154.478, 106.489 154.306 C 104.845 154.199, 102.938 154.349, 102.250 154.639 M 141 155 C 141 155.550, 141.450 156, 142 156 C 142.550 156, 143 155.550, 143 155 C 143 154.450, 142.550 154, 142 154 C 141.450 154, 141 154.450, 141 155 M 112.430 165 C 112.737 169.675, 112.991 175.491, 112.994 177.924 L 113 182.349 115.516 179.985 C 116.900 178.685, 119.179 175.665, 120.580 173.273 L 123.129 168.924 118.722 164.712 C 116.298 162.395, 113.765 159.600, 113.093 158.500 C 112.094 156.864, 111.973 158.046, 112.430 165 M 96.844 160.258 C 95.384 161.491, 93.662 163.547, 93.018 164.828 C 92.318 166.218, 91.272 166.934, 90.418 166.607 C 89.361 166.201, 89.529 167.116, 91.061 170.119 C 93.329 174.564, 100.067 184.266, 100.551 183.782 C 100.717 183.616, 100.549 177.751, 100.177 170.748 L 99.500 158.017 96.844 160.258 M 90 164.059 C 90 164.641, 90.450 164.840, 91 164.500 C 91.550 164.160, 92 163.684, 92 163.441 C 92 163.198, 91.550 163, 91 163 C 90.450 163, 90 163.477, 90 164.059" stroke="none" fill="#10100f" fill-rule="evenodd"/></svg>