<svg xmlns="http://www.w3.org/2000/svg" xmlns:xlink="http://www.w3.org/1999/xlink" viewBox="0 0 200 199.99"><defs><style>.cls-1{fill:none;}.cls-2{clip-path:url(#clip-path);}.cls-3{fill:#2775ca;}.cls-4{fill:#fff;}.cls-5{fill:url(#linear-gradient);}.cls-6{fill:url(#radial-gradient);}.cls-7{fill:url(#linear-gradient-2);}.cls-8{fill:url(#linear-gradient-3);}.cls-9{fill:url(#linear-gradient-4);}.cls-10{fill:url(#linear-gradient-5);}.cls-11{fill:url(#linear-gradient-6);}</style><clipPath id="clip-path" transform="translate(0 -0.01)"><rect class="cls-1" width="200" height="200"/></clipPath><linearGradient id="linear-gradient" x1="332.26" y1="-315.15" x2="435.41" y2="-315.15" gradientTransform="matrix(0.57, 0, 0, -0.57, -83.73, -21.49)" gradientUnits="userSpaceOnUse"><stop offset="0" stop-color="#ffc300"/><stop offset="1" stop-color="#f9980d"/></linearGradient><radialGradient id="radial-gradient" cx="-179.49" cy="495.11" r="1.47" gradientTransform="matrix(17.76, 0, 0, -17.76, 3323.93, 8950.92)" gradientUnits="userSpaceOnUse"><stop offset="0" stop-color="#001d3d"/><stop offset="1" stop-color="#000814"/></radialGradient><linearGradient id="linear-gradient-2" x1="414.33" y1="-289.19" x2="356.56" y2="-346.96" gradientTransform="matrix(0.57, 0, 0, -0.57, -83.73, -21.49)" gradientUnits="userSpaceOnUse"><stop offset="0" stop-color="#fff"/><stop offset="1" stop-color="#ddd"/></linearGradient><linearGradient id="linear-gradient-3" x1="44.35" y1="100" x2="155.65" y2="100" gradientTransform="matrix(1, 0, 0, 1, 0, 0)" xlink:href="#linear-gradient"/><linearGradient id="linear-gradient-4" x1="76.98" y1="78.7" x2="96.91" y2="78.7" gradientTransform="matrix(1, 0, 0, 1, 0, 0)" xlink:href="#linear-gradient"/><linearGradient id="linear-gradient-5" x1="58.23" y1="105.76" x2="74.77" y2="105.76" gradientTransform="matrix(1, 0, 0, 1, 0, 0)" xlink:href="#linear-gradient"/><linearGradient id="linear-gradient-6" x1="104.91" y1="56.39" x2="121.17" y2="56.39" gradientTransform="matrix(1, 0, 0, 1, 0, 0)" xlink:href="#linear-gradient"/></defs><g id="Layer_2" data-name="Layer 2"><g id="Layer_1-2" data-name="Layer 1"><g class="cls-2"><path class="cls-3" d="M161.82,144.3a29.37,29.37,0,1,1-47.66-2.84,5.42,5.42,0,0,1,1-1.15,29.36,29.36,0,0,1,46.62,4Z" transform="translate(0 -0.01)"/><path class="cls-4" d="M166.35,160a29.38,29.38,0,1,1-52.19-18.54,5.42,5.42,0,0,1,1-1.15A29.35,29.35,0,0,1,166.35,160Z" transform="translate(0 -0.01)"/></g><g id="ESTAR"><path class="cls-5" d="M137,189.38a29.66,29.66,0,1,0-29.66-29.66A29.66,29.66,0,0,0,137,189.38Z" transform="translate(0 -0.01)"/><path class="cls-6" d="M137,185.8a26.08,26.08,0,1,0-26.08-26.08A26.08,26.08,0,0,0,137,185.8Z" transform="translate(0 -0.01)"/><path class="cls-7" d="M136.57,162.46H148l4.25-5.71H136.57v-5h14l4.63-6.28h-25c-.3,0-.57.44-.74.64-1.42,4-3.44,10.14-3.44,10.14s-4.87.84-8.18,1.28c-.3,0-.64.44-.64.64a1.06,1.06,0,0,0,.17,1.05c2.5,2.94,6.11,7.6,6.11,7.6s-.94,6.52-1.72,10.94c0,.44,0,.85.3,1.05.31.44.65.44,1,.2,2.67-2,6.72-5.1,7.19-5.43h19.56l4.66-6.29H136.57Z" transform="translate(0 -0.01)"/></g><path d="M200,100a99.79,99.79,0,1,0-74,96.6,38.06,38.06,0,0,1-24.7-50.29,122.33,122.33,0,0,1-13.59,7,59.46,59.46,0,0,1-19.17,5.07c-11.4.88-18.36-5.66-21.47-13.4-4.61-11.47-3.44-22.42,4.07-32.47a3.56,3.56,0,0,1,2.64-1.54,63.82,63.82,0,0,1,38.92,7.44c.51.28,1,.59,1.52.86a2.19,2.19,0,0,0,3-.46,2.13,2.13,0,0,0-.45-3c-2.18-1.87-4.32-3.82-6.66-5.47-7.37-5.18-15.38-8.88-24.45-9.88-2.27-.24-4.56-.24-6.94-.36a21.33,21.33,0,0,1,2-7.5,30.57,30.57,0,0,1,9.09-11.35,3,3,0,0,1,1.72-.48A62.08,62.08,0,0,1,95.44,86.1c4.38,1.86,8.81,3.61,12.61,6.57A2.05,2.05,0,0,0,111,92.5a2.21,2.21,0,0,0,0-3A43.17,43.17,0,0,0,93.14,74.67a41.33,41.33,0,0,0-11.2-3.29A13.8,13.8,0,0,1,80.5,71c1.58-2.37,3-4.68,4.56-6.78a32.87,32.87,0,0,1,8.47-7.42,6.64,6.64,0,0,1,4.59-1,38,38,0,0,1,28,16.61,5.35,5.35,0,0,1,.36.56,2.09,2.09,0,0,0,2.55,1,2,2,0,0,0,1.43-2.43,43.49,43.49,0,0,0-1.77-6.61,26.81,26.81,0,0,0-16.64-15.81l-1.3-.47a61.69,61.69,0,0,1,17.69-6.38,29.56,29.56,0,0,1,12.7,0c6.65,1.64,10.57,6.15,12.74,12.37a35.23,35.23,0,0,1,1.23,17c-2.93,19.54-11.72,36.17-24.67,50.57a37.07,37.07,0,0,1,6.5-.6,37.86,37.86,0,0,1,19.66,5.49A38.75,38.75,0,0,1,166.8,136a38,38,0,0,1,8.41,23.87,38.9,38.9,0,0,1-.62,6.86A99.66,99.66,0,0,0,200,100ZM74.77,107l-16.54-1.1.34-1.32A37.18,37.18,0,0,1,74.77,107ZM96.91,81.93A78.85,78.85,0,0,0,77,76.47a9,9,0,0,1,2.7-1C83.91,75.29,93.6,78.93,96.91,81.93Zm24.26-21.38c-1.84-1.22-3.43-2.38-5.12-3.35a49.28,49.28,0,0,0-5.3-2.63c-1.84-.77-3.77-1.35-5.84-2.08C108.1,51,117.54,55.73,121.17,60.55Z" transform="translate(0 -0.01)"/><path d="M153.92,54.64c-2.17-6.22-6.09-10.73-12.74-12.37a29.56,29.56,0,0,0-12.7,0,61.69,61.69,0,0,0-17.69,6.38l1.3.47a26.81,26.81,0,0,1,16.64,15.81,43.49,43.49,0,0,1,1.77,6.61A2,2,0,0,1,129.07,74a2.09,2.09,0,0,1-2.55-1,5.35,5.35,0,0,0-.36-.56,38,38,0,0,0-28-16.61,6.64,6.64,0,0,0-4.59,1,32.87,32.87,0,0,0-8.47,7.42c-1.61,2.1-3,4.41-4.56,6.78a13.8,13.8,0,0,0,1.44.36,41.33,41.33,0,0,1,11.2,3.29A43.17,43.17,0,0,1,111,89.45a2.21,2.21,0,0,1,0,3,2.05,2.05,0,0,1-2.92.17c-3.8-3-8.23-4.71-12.61-6.57a62.08,62.08,0,0,0-23.88-5.37,3,3,0,0,0-1.72.48,30.57,30.57,0,0,0-9.09,11.35,21.33,21.33,0,0,0-2,7.5c2.38.12,4.67.12,6.94.36,9.07,1,17.08,4.7,24.45,9.88,2.34,1.65,4.48,3.6,6.66,5.47a2.13,2.13,0,0,1,.45,3,2.19,2.19,0,0,1-3,.46c-.52-.27-1-.58-1.52-.86a63.82,63.82,0,0,0-38.92-7.44,3.56,3.56,0,0,0-2.64,1.54c-7.51,10-8.68,21-4.07,32.47,3.11,7.74,10.07,14.28,21.47,13.4a59.46,59.46,0,0,0,19.17-5.07,122.33,122.33,0,0,0,13.59-7A39.41,39.41,0,0,1,107.19,136a26.59,26.59,0,0,1,1.88-2.19,39.15,39.15,0,0,1,17.12-10.58,36.59,36.59,0,0,1,4.29-1c13-14.4,21.74-31,24.67-50.57A35.23,35.23,0,0,0,153.92,54.64Z" transform="translate(0 -0.01)"/><path class="cls-8" d="M153.92,54.64c-2.17-6.22-6.09-10.73-12.74-12.37a29.56,29.56,0,0,0-12.7,0,61.69,61.69,0,0,0-17.69,6.38l1.3.47a26.81,26.81,0,0,1,16.64,15.81,43.49,43.49,0,0,1,1.77,6.61A2,2,0,0,1,129.07,74a2.09,2.09,0,0,1-2.55-1,5.35,5.35,0,0,0-.36-.56,38,38,0,0,0-28-16.61,6.64,6.64,0,0,0-4.59,1,32.87,32.87,0,0,0-8.47,7.42c-1.61,2.1-3,4.41-4.56,6.78a13.8,13.8,0,0,0,1.44.36,41.33,41.33,0,0,1,11.2,3.29A43.17,43.17,0,0,1,111,89.45a2.21,2.21,0,0,1,0,3,2.05,2.05,0,0,1-2.92.17c-3.8-3-8.23-4.71-12.61-6.57a62.08,62.08,0,0,0-23.88-5.37,3,3,0,0,0-1.72.48,30.57,30.57,0,0,0-9.09,11.35,21.33,21.33,0,0,0-2,7.5c2.38.12,4.67.12,6.94.36,9.07,1,17.08,4.7,24.45,9.88,2.34,1.65,4.48,3.6,6.66,5.47a2.13,2.13,0,0,1,.45,3,2.19,2.19,0,0,1-3,.46c-.52-.27-1-.58-1.52-.86a63.82,63.82,0,0,0-38.92-7.44,3.56,3.56,0,0,0-2.64,1.54c-7.51,10-8.68,21-4.07,32.47,3.11,7.74,10.07,14.28,21.47,13.4a59.46,59.46,0,0,0,19.17-5.07,122.33,122.33,0,0,0,13.59-7A39.41,39.41,0,0,1,107.19,136a26.59,26.59,0,0,1,1.88-2.19,39.15,39.15,0,0,1,17.12-10.58,36.59,36.59,0,0,1,4.29-1c13-14.4,21.74-31,24.67-50.57A35.23,35.23,0,0,0,153.92,54.64Z" transform="translate(0 -0.01)"/><path d="M77,76.47a78.85,78.85,0,0,1,19.93,5.46c-3.31-3-13-6.64-17.23-6.45A9,9,0,0,0,77,76.47Z" transform="translate(0 -0.01)"/><path class="cls-9" d="M77,76.47a78.85,78.85,0,0,1,19.93,5.46c-3.31-3-13-6.64-17.23-6.45A9,9,0,0,0,77,76.47Z" transform="translate(0 -0.01)"/><path d="M58.23,105.92,74.77,107a37.18,37.18,0,0,0-16.2-2.42Z" transform="translate(0 -0.01)"/><path class="cls-10" d="M58.23,105.92,74.77,107a37.18,37.18,0,0,0-16.2-2.42Z" transform="translate(0 -0.01)"/><path d="M104.91,52.49c2.07.73,4,1.31,5.84,2.08a49.28,49.28,0,0,1,5.3,2.63c1.69,1,3.28,2.13,5.12,3.35C117.54,55.73,108.1,51,104.91,52.49Z" transform="translate(0 -0.01)"/><path class="cls-11" d="M104.91,52.49c2.07.73,4,1.31,5.84,2.08a49.28,49.28,0,0,1,5.3,2.63c1.69,1,3.28,2.13,5.12,3.35C117.54,55.73,108.1,51,104.91,52.49Z" transform="translate(0 -0.01)"/></g></g></svg>