<?xml version="1.0" standalone="no"?>
<!DOCTYPE svg PUBLIC "-//W3C//DTD SVG 20010904//EN"
 "http://www.w3.org/TR/2001/REC-SVG-20010904/DTD/svg10.dtd">
<svg version="1.0" xmlns="http://www.w3.org/2000/svg"
 width="399.000000pt" height="400.000000pt" viewBox="0 0 399.000000 400.000000"
 preserveAspectRatio="xMidYMid meet">
<metadata>
Created by potrace 1.16, written by Peter Selinger 2001-2019
</metadata>
<g transform="translate(0.000000,400.000000) scale(0.100000,-0.100000)"
fill="#000000" stroke="none">
<path d="M2738 3944 c-3 -3 -21 -6 -39 -8 -50 -6 -119 -23 -160 -40 -28 -12
-39 -12 -48 -3 -10 9 -11 9 -7 -3 4 -11 -12 -23 -57 -43 -34 -15 -67 -27 -73
-27 -7 0 -15 -7 -18 -16 -4 -10 -14 -14 -25 -11 -14 3 -18 1 -14 -9 3 -8 -1
-14 -10 -14 -8 0 -37 -20 -63 -45 -27 -24 -54 -44 -60 -42 -9 2 -53 -45 -123
-129 -9 -12 -15 -26 -13 -33 2 -6 0 -11 -5 -9 -14 4 -75 -61 -68 -72 4 -6 -5
-30 -19 -54 -27 -46 -86 -273 -86 -330 0 -58 -15 -82 -64 -102 -25 -11 -46
-22 -46 -26 0 -3 -39 -32 -87 -64 -49 -31 -98 -66 -110 -77 -12 -10 -26 -16
-32 -13 -5 4 -12 -2 -15 -11 -5 -16 -71 -68 -85 -68 -13 1 -40 -29 -34 -38 4
-6 -5 -8 -20 -5 -15 3 -24 1 -21 -4 6 -10 -24 -48 -38 -48 -4 0 -41 -31 -80
-70 -65 -63 -101 -89 -82 -58 4 7 3 8 -4 4 -6 -4 -9 -12 -6 -19 5 -13 -78
-101 -91 -97 -13 4 -125 -133 -125 -152 0 -13 -4 -17 -12 -12 -7 4 -3 -4 10
-18 25 -28 29 -43 8 -35 -15 6 -56 -31 -56 -50 0 -6 -7 -14 -16 -17 -8 -3 -13
-10 -10 -15 9 -14 -5 -41 -21 -41 -9 0 -13 -6 -10 -15 3 -8 -3 -45 -13 -82
-10 -37 -15 -71 -11 -75 4 -5 27 12 51 37 24 25 48 45 52 45 5 0 27 12 49 26
39 24 41 25 55 7 14 -17 14 -16 4 5 -13 27 4 57 27 48 8 -3 24 5 37 19 22 24
24 24 40 7 9 -10 13 -22 10 -25 -4 -4 -8 -39 -9 -79 -2 -47 -9 -85 -21 -108
-13 -26 -18 -54 -16 -105 5 -213 1 -229 -61 -258 -28 -14 -40 -30 -66 -92 -17
-41 -31 -77 -31 -81 0 -3 -19 -48 -41 -100 -30 -67 -47 -94 -59 -94 -34 0 -40
22 -26 89 7 34 11 95 9 134 -3 40 2 104 10 145 17 90 6 82 -18 -13 -17 -66
-28 -93 -71 -175 -23 -45 -91 -132 -113 -144 -28 -17 -75 -65 -69 -71 3 -4 30
-10 60 -14 29 -4 59 -10 66 -15 20 -12 14 -35 -16 -52 -15 -9 -40 -26 -55 -36
-16 -11 -36 -21 -44 -22 -8 -1 -18 -7 -21 -13 -4 -5 -15 -9 -24 -8 -10 2 -15
-2 -12 -10 5 -11 -21 -26 -52 -29 -13 -2 -49 -36 -37 -36 4 -1 -3 -7 -16 -14
-14 -8 -31 -12 -38 -9 -9 4 -11 0 -7 -11 4 -11 1 -16 -10 -16 -9 0 -24 -8 -34
-18 -31 -31 -89 -72 -94 -67 -3 3 -41 -37 -85 -88 -87 -101 -96 -121 -97 -232
-1 -137 24 -158 90 -77 21 26 43 49 49 51 5 2 26 21 45 42 34 37 137 99 164
99 23 0 29 -50 10 -85 -10 -19 -14 -40 -10 -50 6 -17 8 -17 26 3 11 11 28 23
40 27 11 3 20 12 20 20 0 17 139 84 181 87 17 1 33 6 35 10 3 5 9 6 14 3 5 -3
11 -1 15 5 3 5 17 10 30 10 22 0 24 3 19 29 -4 21 0 38 13 58 18 25 29 47 61
123 14 33 50 76 155 183 82 85 87 88 88 61 0 -23 10 -9 44 63 24 51 47 102 50
115 4 13 15 41 25 63 24 54 35 122 21 138 -10 13 -4 60 8 53 3 -2 6 8 7 22 1
15 6 81 12 146 8 88 8 123 0 133 -8 10 -6 17 8 28 14 11 16 17 7 23 -8 5 -9
13 -3 22 6 8 10 25 10 38 0 12 4 22 8 22 4 0 8 16 9 34 1 19 8 49 17 67 13 26
14 34 4 41 -12 7 -24 10 -30 7 -2 -1 -25 11 -53 27 -27 15 -52 27 -55 26 -11
-2 -110 51 -110 59 0 5 7 5 18 0 9 -5 28 -13 42 -19 14 -5 63 -28 110 -50 47
-22 99 -45 117 -52 18 -7 38 -19 45 -28 9 -11 9 -14 1 -9 -8 5 -14 -4 -19 -28
-3 -19 -9 -35 -13 -35 -4 0 -8 -19 -9 -41 -1 -23 -7 -48 -14 -56 -7 -9 -11
-44 -10 -86 1 -52 -2 -68 -9 -57 -8 11 -9 4 -4 -25 4 -22 11 -62 15 -90 4 -27
8 -38 9 -24 1 25 27 67 61 99 9 8 35 43 59 77 23 35 60 80 82 102 25 24 36 41
30 45 -19 12 -13 28 7 18 24 -13 63 -5 87 18 12 11 25 20 28 20 4 0 -8 -14
-28 -31 -19 -17 -35 -36 -35 -42 0 -6 12 1 28 15 42 39 91 70 101 64 5 -3 20
12 35 34 14 22 31 40 37 40 12 0 9 -4 -42 -80 -47 -71 -150 -242 -178 -297
-21 -43 -27 -73 -13 -73 8 0 203 150 255 196 105 93 113 100 88 69 -14 -17
-49 -53 -80 -81 -54 -50 -55 -53 -57 -112 -2 -34 1 -64 6 -67 6 -4 10 -15 10
-26 0 -23 25 -36 43 -21 6 6 17 12 22 14 6 1 10 10 10 18 0 19 27 20 33 1 3
-8 0 -11 -7 -7 -12 8 -15 -4 -3 -19 7 -10 42 -17 42 -8 0 3 -8 20 -19 37 -10
17 -22 42 -26 56 -5 20 -2 18 16 -10 12 -19 40 -57 62 -85 32 -39 34 -44 10
-22 l-30 28 -12 -29 c-10 -25 -71 -74 -71 -57 0 4 -7 -1 -16 -9 -8 -9 -23 -16
-32 -17 -66 -3 -159 -38 -208 -78 -26 -22 -51 -38 -55 -36 -4 3 -13 -2 -20
-11 -11 -13 -9 -15 12 -10 13 3 42 7 64 10 22 3 51 8 64 10 13 3 43 7 67 8 24
2 44 6 44 9 0 3 16 5 35 4 19 -1 35 2 35 6 0 5 7 6 15 3 11 -4 13 -2 9 9 -4
12 1 15 20 13 14 -2 26 0 26 5 0 4 17 11 38 15 51 9 94 32 87 47 -4 7 5 -1 19
-18 14 -16 26 -35 26 -41 0 -19 -231 -117 -300 -127 -14 -2 -32 -7 -40 -10 -8
-3 -44 -10 -80 -16 -36 -5 -87 -15 -115 -21 -27 -7 -57 -12 -65 -13 -8 -1 -17
-5 -20 -8 -3 -4 -16 -9 -30 -10 -14 -2 -28 -8 -32 -14 -4 -5 -11 -10 -15 -11
-12 0 -107 -46 -113 -53 -3 -4 -23 -14 -45 -23 -21 -8 -41 -20 -43 -27 -2 -6
7 -5 24 4 16 8 30 12 32 10 3 -2 -29 -43 -69 -90 -178 -207 -245 -297 -234
-316 4 -5 3 -15 -2 -21 -4 -7 -8 -15 -8 -18 -1 -12 -51 -80 -63 -84 -18 -8
-15 0 13 30 14 15 25 32 25 38 0 11 -69 -64 -70 -76 0 -4 -7 -14 -16 -22 -17
-18 -49 -22 -39 -6 4 6 10 8 15 5 4 -3 14 3 21 13 13 15 12 16 -3 3 -15 -11
-18 -11 -18 0 -1 9 -4 8 -11 -4 -6 -9 -14 -15 -19 -12 -5 3 -12 0 -16 -6 -5
-8 -3 -9 7 -4 8 5 10 4 6 0 -10 -12 -38 -15 -31 -4 8 13 -8 11 -50 -6 -20 -8
-36 -12 -36 -8 0 4 -5 2 -12 -5 -7 -7 -23 -12 -35 -12 -13 0 -37 -10 -53 -21
-16 -13 -36 -19 -45 -15 -9 3 -14 2 -11 -2 3 -5 -15 -31 -39 -59 -63 -72 -88
-140 -39 -108 36 24 115 42 214 49 84 7 172 25 186 39 4 4 14 7 23 7 18 1 83
32 152 73 25 14 78 63 119 106 40 44 76 78 81 76 4 -3 10 4 14 15 3 11 10 20
14 20 14 0 34 -58 27 -76 -8 -21 24 -94 40 -94 7 0 25 26 40 58 43 92 120 167
165 160 9 -2 27 6 40 17 14 13 20 14 15 5 -4 -8 -1 -7 8 4 8 10 20 15 27 10 8
-4 10 -3 5 5 -5 7 9 19 41 33 26 12 50 22 53 23 3 0 38 17 79 38 40 20 78 34
85 30 6 -3 8 -3 4 2 -10 10 50 48 63 40 5 -4 9 1 9 10 0 8 12 21 26 27 33 15
99 77 108 101 3 10 11 15 16 12 6 -4 9 -1 8 5 -3 14 29 23 37 10 3 -4 -2 -21
-10 -36 -8 -16 -15 -36 -15 -45 0 -9 -14 -31 -30 -49 -17 -18 -28 -35 -25 -38
3 -3 -2 -16 -10 -29 -23 -35 -1 -38 71 -12 48 18 74 37 140 105 76 78 118 107
154 108 8 1 26 22 40 47 34 64 83 129 96 129 6 0 17 15 25 33 13 32 26 51 66
88 12 12 19 27 17 34 -7 16 49 106 75 122 12 8 18 19 14 31 -3 13 4 24 22 36
14 9 23 21 20 26 -8 13 44 112 54 105 5 -3 7 4 4 15 -3 12 1 22 11 26 9 3 16
15 16 25 0 23 20 61 38 72 7 5 10 13 6 18 -3 6 1 18 9 27 8 9 17 28 19 42 3
23 9 25 88 37 96 13 107 15 176 36 74 22 270 113 318 147 23 17 49 29 57 26
21 -7 153 152 140 168 -11 13 25 73 54 88 8 5 12 14 9 21 -2 7 5 23 16 35 11
12 20 24 19 27 -2 11 44 120 62 146 10 14 16 29 13 32 -9 8 26 171 36 175 5 2
4 13 -3 24 -9 16 -9 22 1 25 6 3 10 8 7 12 -2 4 -9 63 -14 131 -11 139 -48
285 -93 373 -16 31 -26 62 -22 69 4 6 3 8 -3 5 -12 -8 -43 34 -43 57 0 18
-388 352 -428 368 -15 6 -31 10 -36 9 -4 -1 -15 4 -23 11 -8 6 -25 13 -36 15
-33 4 -100 24 -122 36 -20 11 -348 21 -357 11z m122 -44 c0 -5 -9 -14 -21 -20
-11 -7 -38 -27 -59 -47 -22 -19 -53 -37 -72 -39 -82 -12 -159 -39 -275 -94
-112 -53 -129 -59 -169 -53 -49 6 -52 10 -26 30 106 84 229 150 352 187 129
39 270 58 270 36z m322 -40 c62 -22 124 -48 138 -58 27 -20 104 -156 98 -174
-2 -6 -31 25 -64 68 -50 65 -71 85 -125 112 -59 30 -218 85 -246 85 -7 0 -13
5 -13 10 0 17 98 -3 212 -43z m-348 -155 c92 -47 165 -96 205 -139 l24 -25
-49 -192 -49 -192 -50 -18 c-27 -10 -119 -43 -204 -73 -85 -31 -164 -56 -177
-56 -31 0 -142 72 -233 150 -55 48 -71 67 -71 88 0 43 37 184 70 269 l30 78
72 37 c146 74 260 117 314 117 17 1 68 -18 118 -44z m640 5 c58 -40 164 -155
222 -241 50 -75 111 -202 121 -249 6 -30 5 -31 -21 -19 -15 7 -40 36 -58 68
-47 84 -133 199 -199 266 -38 40 -68 83 -88 128 -42 93 -42 91 23 47z m49
-220 c58 -62 182 -242 200 -290 7 -19 6 -46 -7 -100 -21 -97 -74 -268 -85
-274 -7 -5 -43 -10 -151 -21 -111 -11 -156 -16 -177 -21 -19 -4 -41 22 -151
168 -70 95 -131 178 -135 185 -6 9 78 377 88 391 5 7 137 17 246 20 l116 3 56
-61z m-1265 -361 c58 -51 140 -109 202 -143 19 -10 38 -23 41 -28 4 -5 9 -87
13 -181 4 -95 9 -192 12 -217 l6 -45 -84 -61 c-45 -34 -107 -77 -135 -94 l-53
-33 -41 27 c-22 15 -82 65 -134 112 -77 69 -96 93 -109 132 -22 67 -36 165
-36 252 1 115 11 147 66 194 56 49 176 135 187 136 5 0 34 -23 65 -51z m867
-211 c61 -83 111 -154 113 -158 3 -9 -99 -179 -171 -285 -22 -32 -42 -54 -44
-48 -2 6 30 79 71 162 42 83 76 156 76 162 0 10 -95 188 -151 283 -47 81 3 26
106 -116z m-1280 -109 c4 -33 6 -62 4 -63 -2 -2 -33 -17 -69 -34 -128 -61
-455 -267 -620 -392 -99 -74 -105 -78 -91 -53 12 24 236 226 343 311 152 120
398 292 418 292 4 0 11 -27 15 -61z m1812 -66 c22 -53 53 -172 53 -208 0 -66
-173 -375 -218 -389 -41 -13 -203 -36 -270 -38 l-73 -3 -49 114 c-27 62 -52
122 -56 133 -4 13 10 39 44 86 71 97 146 211 170 258 l21 42 103 12 c57 6 130
15 163 20 97 12 95 13 112 -27z m-965 -314 c72 -23 169 -49 216 -58 l86 -16
52 -120 c29 -66 53 -129 53 -140 1 -34 -134 -120 -242 -155 -91 -29 -377 47
-438 116 -22 26 -119 212 -119 229 0 8 42 42 93 76 50 34 105 73 120 85 16 13
33 24 39 24 5 0 69 -19 140 -41z m154 -552 c6 -6 -83 -192 -149 -312 -76 -137
-222 -366 -262 -411 -32 -35 -28 -24 43 121 104 210 193 418 256 601 4 10 102
12 112 1z"/>
</g>
</svg>
