<?xml version="1.0" encoding="UTF-8"?>
<svg version="1.1" xmlns="http://www.w3.org/2000/svg" width="200" height="200">
<path d="M0 0 C66 0 132 0 200 0 C200 66 200 132 200 200 C134 200 68 200 0 200 C0 134 0 68 0 0 Z " fill="#FAFAFA" transform="translate(0,0)"/>
<path d="M0 0 C12.71555621 3.84624048 23.91760907 12.79694525 31 24 C34.0874679 29.79577307 36.95029726 35.47253816 38 42 C38.99 42 39.98 42 41 42 C41 41.34 41 40.68 41 40 C42.32 40 43.64 40 45 40 C44.525625 38.824375 44.05125 37.64875 43.5625 36.4375 C40.81148219 29.61976022 40.84126825 22.54795989 40.875 15.3125 C40.86919922 14.05083008 40.86919922 14.05083008 40.86328125 12.76367188 C40.86457031 11.95091797 40.86585937 11.13816406 40.8671875 10.30078125 C40.86831543 9.57028564 40.86944336 8.83979004 40.87060547 8.0871582 C41.00317793 5.94873934 41.41572897 4.05713301 42 2 C49.9525227 3.37496888 56.66699316 10.0740975 61.375 16.25 C66.89735355 24.50518149 70.12667963 31.73772288 70.375 41.75 C70.58424105 48.1645458 71.69205855 50.88100866 76.28125 55.25390625 C80.99247065 60.04007814 81.36874937 66.59184348 81.69140625 72.99609375 C81.84416016 73.98802734 81.84416016 73.98802734 82 75 C82.66 75.33 83.32 75.66 84 76 C84.37125 74.8553125 84.37125 74.8553125 84.75 73.6875 C86.19058109 70.59025066 86.95022608 69.52488696 90 68 C92.72028325 67.76028155 95.25876407 67.8629382 98 68 C97.6390625 67.33613281 97.278125 66.67226562 96.90625 65.98828125 C96.21015625 64.66376953 96.21015625 64.66376953 95.5 63.3125 C94.80390625 62.00732422 94.80390625 62.00732422 94.09375 60.67578125 C92.939813 57.8527568 92.71084984 56.01542312 93 53 C94 51.1875 94 51.1875 96 50 C101.05018182 49.34836364 101.05018182 49.34836364 104 50 C105.68711423 51.6459651 107.3545622 53.31237149 109 55 C111.3329614 55.04166002 113.6670386 55.04166002 116 55 C120.04763358 57.42858015 121.60571105 59.56114138 123 64 C123.39182464 68.63703063 123.37161695 73.27570602 123.37060547 77.92700195 C123.37495376 80.16371258 123.41123493 82.3984068 123.44921875 84.63476562 C123.51502923 92.83214442 122.87520183 99.62057187 119 107 C118.52046875 108.01767456 118.52046875 108.01767456 118.03125 109.0559082 C117.15863377 110.90766482 116.23678501 112.7359845 115.3125 114.5625 C115.00505859 115.17673828 114.69761719 115.79097656 114.38085938 116.42382812 C112.14144461 120.85855539 112.14144461 120.85855539 111 122 C103.87466404 122.94283187 96.85158226 121.60428153 89.875 120.25 C88.6233606 120.01470581 88.6233606 120.01470581 87.34643555 119.7746582 C82.15831953 118.70944679 77.66264368 117.12683684 72.92675781 114.74707031 C70.84830975 113.75490301 70.84830975 113.75490301 67.875 114.5 C64.52151169 116.24964607 61.24967147 118.06269586 58 120 C53.63448539 122.1827573 48.02196489 121.63030387 43.46875 120.2109375 C41.80075671 119.51945927 40.14313012 118.8025101 38.49609375 118.0625 C36.03238175 117.01378378 33.65480708 116.3427435 31.0625 115.6875 C25.93455247 114.23161584 21.91269503 111.6224567 17.54296875 108.62109375 C15.08244814 106.91937006 15.08244814 106.91937006 12.37890625 106.06640625 C9.39004431 104.72657159 8.45477643 103.26353232 6.75 100.5 C6.24984375 99.7059375 5.7496875 98.911875 5.234375 98.09375 C2.92517032 94.17687118 2.91532088 91.57267267 3 87 C1.02 87.99 1.02 87.99 -1 89 C-0.5069377 81.85059669 1.0760834 77.70462285 6.5 72.6875 C9.30559183 69.67148878 10.54304325 66.92177238 12.0859375 63.15234375 C13.16274983 60.61677282 14.57445136 58.35215526 16 56 C16 55.34 16 54.68 16 54 C14.40910873 52.6584751 14.40910873 52.6584751 12.375 51.3125 C4.68590947 45.6575604 -1.15723673 38.62921142 -3 29 C-3.37995266 25.03845584 -3.48065719 21.10338022 -3.5 17.125 C-3.50942627 15.62646484 -3.50942627 15.62646484 -3.51904297 14.09765625 C-3.42348939 8.58337967 -2.98421564 4.68267879 0 0 Z " fill="#0A5211" transform="translate(49,8)"/>
<path d="M0 0 C12.17418755 3.47579293 19.93167087 13.43707855 26 24 C29.09120465 30.40798369 30.53590196 35.89929905 30 43 C30.79664063 42.50886719 30.79664063 42.50886719 31.609375 42.0078125 C34.62694157 40.7357011 36.98693023 40.8040637 40.25 40.875 C41.32765625 40.89304688 42.4053125 40.91109375 43.515625 40.9296875 C44.33546875 40.95289063 45.1553125 40.97609375 46 41 C45.34 40.01 44.68 39.02 44 38 C45.41681634 38.31182069 46.83344651 38.62448737 48.25 38.9375 C49.03890625 39.11152344 49.8278125 39.28554688 50.640625 39.46484375 C52.76878703 39.947556 54.88532842 40.46163178 57 41 C55.63875 39.88625 55.63875 39.88625 54.25 38.75 C53.165893 37.83424844 52.08252581 36.91762016 51 36 C50.278125 35.401875 49.55625 34.80375 48.8125 34.1875 C43.01902754 27.19537807 42.86064905 17.74665684 42.9375 9.0625 C42.94201172 8.37865234 42.94652344 7.69480469 42.95117188 6.99023438 C42.9628044 5.32678396 42.98073306 3.6633795 43 2 C52.09041342 9.34225699 60.26637633 17.93612396 62 30 C62.14739188 33.57425299 62.25178611 37.14617932 62.328125 40.72265625 C63.1723072 44.8404985 64.61405706 45.67835962 68 48 C69.3125 50.75 69.3125 50.75 70 53 C69.05125 53.268125 68.1025 53.53625 67.125 53.8125 C63.74732727 54.74986588 63.74732727 54.74986588 62 58 C62 59.32 62 60.64 62 62 C62.556875 61.175 63.11375 60.35 63.6875 59.5 C66 57 66 57 68.625 56.5 C71 57 71 57 73 60 C73.1953125 62.91796875 73.1953125 62.91796875 73.125 66.1875 C73.10695313 67.27417969 73.08890625 68.36085938 73.0703125 69.48046875 C73.04710938 70.31191406 73.02390625 71.14335938 73 72 C73.61875 72.103125 74.2375 72.20625 74.875 72.3125 C77 73 77 73 79 76 C78.67 76.33 78.34 76.66 78 77 C78.05958061 78.3346057 78.14824586 79.66794583 78.25 81 C78.31046429 87.32859539 75.68406523 92.05507933 71.47265625 96.67578125 C68.41691734 99.43605431 67.2246934 100 63 100 C62.7215625 100.86625 62.7215625 100.86625 62.4375 101.75 C59.84486003 105.80804517 55.49558046 107.50147318 51 109 C43.8891447 110.01583647 39.68275706 106.75041188 34 103 C33.01 102.505 33.01 102.505 32 102 C32 102.66 32 103.32 32 104 C25.26318354 103.64543071 19.15560152 99.97988357 14.31640625 95.41015625 C12.10593846 92.83237037 10.32327832 90.12774875 9 87 C8.505 87.99 8.505 87.99 8 89 C7.34 89 6.68 89 6 89 C4.49086276 84.47258828 4.22570719 79.93573202 6 75.5 C6.33 75.005 6.66 74.51 7 74 C5.68 74 4.36 74 3 74 C4.15360422 70.88526861 5.20326104 69.84863539 7.9375 67.8125 C11.36959301 65.12471631 12.0099859 62.37966127 13.15234375 58.2890625 C14.72946577 54.03010627 17.90529949 50.04735026 22 48 C22.75408613 34.67781179 17.46854791 21.79689878 8.75 11.8125 C6.16970217 9.00846155 6.16970217 9.00846155 3 7 C7.22632807 16.94972058 11.61113662 26.60380507 17.20483398 35.87109375 C19.23302096 39.29715171 20 40.90786812 20 45 C9.75770082 41.58590027 5.04821362 34.68999875 0.125 25.5 C-2.4294605 18.10709078 -2.05331864 7.41910521 0 0 Z " fill="#6CC522" transform="translate(52,15)"/>
<path d="M0 0 C2.475 0.495 2.475 0.495 5 1 C8.18543583 6.27319175 7.33495009 12.74597342 7.31567383 18.70019531 C7.31253039 20.73037266 7.33594085 22.75906668 7.36132812 24.7890625 C7.36821142 38.69332714 7.36821142 38.69332714 4 45 C1.71503993 47.22922934 -0.17578991 48.58789495 -3 50 C-1.515 50.495 -1.515 50.495 0 51 C-0.6875 53.0625 -0.6875 53.0625 -2 56 C-2.27199219 56.63550781 -2.54398438 57.27101562 -2.82421875 57.92578125 C-4.02538727 60.15397118 -4.95162585 61.49371185 -7 63 C-11.1306522 63.45760549 -14.93854976 62.77313144 -19 62 C-19.99128906 61.82210937 -20.98257813 61.64421875 -22.00390625 61.4609375 C-24.3472928 61.01426069 -26.67426331 60.52997982 -29 60 C-29 59.67 -29 59.34 -29 59 C-27.14375 58.6596875 -27.14375 58.6596875 -25.25 58.3125 C-21.0446284 57.27230208 -19.35334102 55.71103776 -17 52 C-15 49 -15 49 -12 48 C-13.19625 47.505 -14.3925 47.01 -15.625 46.5 C-20.48345361 44.03194009 -23.60805041 40.91724828 -26 36 C-26.72033403 32.65116233 -26.98597807 29.42134992 -27 26 C-24.625 25.8125 -24.625 25.8125 -22 26 C-21.34 26.99 -20.68 27.98 -20 29 C-19.34 27.68 -18.68 26.36 -18 25 C-17.01 25 -16.02 25 -15 25 C-14.63076923 29.55384615 -14.63076923 29.55384615 -16.5 31.8125 C-17.2425 32.4003125 -17.2425 32.4003125 -18 33 C-15.69 33.99 -13.38 34.98 -11 36 C-11.33 35.34 -11.66 34.68 -12 34 C-12.22950319 31.795636 -12.41075933 29.58607827 -12.5625 27.375 C-12.64628906 26.18648437 -12.73007813 24.99796875 -12.81640625 23.7734375 C-12.87699219 22.85820313 -12.93757813 21.94296875 -13 21 C-13.99 21 -14.98 21 -16 21 C-16.66 21.66 -17.32 22.32 -18 23 C-20.625 23.125 -20.625 23.125 -23 23 C-23.75 20.25 -23.75 20.25 -24 17 C-22.5 14.625 -22.5 14.625 -20 13 C-16.5 12.4375 -16.5 12.4375 -13 13 C-10.5625 15.25 -10.5625 15.25 -9 18 C-9 19.32 -9 20.64 -9 22 C-5.7 22.33 -2.4 22.66 1 23 C0.505 11.615 0.505 11.615 0 0 Z " fill="#6CC423" transform="translate(161,67)"/>
<path d="M0 0 C1.68711423 1.6459651 3.3545622 3.31237149 5 5 C7.3329614 5.04166002 9.6670386 5.04166002 12 5 C16.04763358 7.42858015 17.60571105 9.56114138 19 14 C19.39182464 18.63703063 19.37161695 23.27570602 19.37060547 27.92700195 C19.37495376 30.16371258 19.41123493 32.3984068 19.44921875 34.63476562 C19.51502923 42.83214442 18.87520183 49.62057187 15 57 C14.52046875 58.01767456 14.52046875 58.01767456 14.03125 59.0559082 C13.15863377 60.90766482 12.23678501 62.7359845 11.3125 64.5625 C11.00505859 65.17673828 10.69761719 65.79097656 10.38085938 66.42382812 C8.14144461 70.85855539 8.14144461 70.85855539 7 72 C5.02 72 3.04 72 1 72 C3.31 68.04 5.62 64.08 8 60 C6.68 59.67 5.36 59.34 4 59 C4.99 58.34 5.98 57.68 7 57 C11.3615166 53.27675413 12.72673205 50.54842694 14 45 C14.30233501 41.51205631 14.30233501 41.51205631 14.265625 37.9296875 C14.26820313 36.62128906 14.27078125 35.31289062 14.2734375 33.96484375 C14.26924805 33.29308105 14.26505859 32.62131836 14.26074219 31.92919922 C14.24998993 29.87307489 14.2606941 27.81781703 14.2734375 25.76171875 C14.26957031 23.80298828 14.26957031 23.80298828 14.265625 21.8046875 C14.26336914 20.61858887 14.26111328 19.43249023 14.25878906 18.21044922 C14.00236076 15.02928684 13.47948245 12.8172297 12 10 C9.95894361 9.11306697 9.95894361 9.11306697 8 9 C8.15339844 9.79664062 8.30679688 10.59328125 8.46484375 11.4140625 C9.10961107 15.73447415 9.35042888 20.01537398 9.5625 24.375 C9.60568359 25.20644531 9.64886719 26.03789063 9.69335938 26.89453125 C9.79861805 28.92953228 9.89973072 30.96474703 10 33 C6.37 32.34 2.74 31.68 -1 31 C-2.14536741 24.63684771 -2.14536741 24.63684771 -1.34375 21.125 C-0.90767603 17.16069119 -1.91399172 15.51127916 -3.9375 12.125 C-4.50339844 11.15820312 -5.06929687 10.19140625 -5.65234375 9.1953125 C-6.09707031 8.47085938 -6.54179687 7.74640625 -7 7 C-7.33 8.65 -7.66 10.3 -8 12 C-9.97538528 9.77769156 -10.93956032 8.41300448 -11.375 5.4375 C-11 3 -11 3 -10 1.1875 C-6.79620602 -0.71475267 -3.55569706 -0.78547943 0 0 Z " fill="#0D5912" transform="translate(153,58)"/>
<path d="M0 0 C4.08375 -0.0928125 4.08375 -0.0928125 8.25 -0.1875 C9.10110352 -0.21481201 9.95220703 -0.24212402 10.82910156 -0.27026367 C14.21835604 -0.30759203 16.46393881 -0.27383931 19.5234375 1.2890625 C21 3 21 3 21.375 6.5625 C21 10 21 10 19 12 C19.495 12.515625 19.99 13.03125 20.5 13.5625 C22.58392818 16.94888329 22.55802097 19.09385318 22 23 C19.87862465 25.35987317 18.1933237 26.81162637 14.99560547 27.31640625 C12.70957009 27.39343515 10.47324754 27.34885732 8.1875 27.25 C5.485625 27.1675 2.78375 27.085 0 27 C0 18.09 0 9.18 0 0 Z " fill="#0D5615" transform="translate(34,140)"/>
<path d="M0 0 C2.536875 -0.061875 5.07375 -0.12375 7.6875 -0.1875 C8.47729248 -0.21481201 9.26708496 -0.24212402 10.08081055 -0.27026367 C14.57404061 -0.32309847 17.51091531 0.09469213 21 3 C21.5883927 6.95063669 21.08658519 9.60929907 19 13 C19.7425 13.5259375 19.7425 13.5259375 20.5 14.0625 C22.79395236 17.02552179 22.38888282 19.37042697 22 23 C20.16884793 25.61593153 19.09031634 25.96989455 16 27 C13.25917841 27.07056698 10.55153023 27.09336154 7.8125 27.0625 C5.234375 27.041875 2.65625 27.02125 0 27 C0 18.09 0 9.18 0 0 Z " fill="#0A5613" transform="translate(103,140)"/>
<path d="M0 0 C4.75 0.75 4.75 0.75 7 3 C7.375 5.875 7.375 5.875 7 9 C5.71182656 10.37701298 4.37195574 11.70644173 3 13 C2.505 14.216875 2.01 15.43375 1.5 16.6875 C0 20 0 20 -2.1875 20.9375 C-3.0846875 20.9684375 -3.0846875 20.9684375 -4 21 C-3.72382467 22.94074861 -3.72382467 22.94074861 -3 25 C-2.01 25.66 -1.02 26.32 0 27 C-8.91 27.99 -8.91 27.99 -18 29 C-13.69838381 34.7395857 -13.69838381 34.7395857 -10 37 C-12.125 37.3125 -12.125 37.3125 -15 37 C-16.50738814 35.78126065 -18.01263219 34.55611257 -19.44140625 33.24609375 C-21.72886259 31.41727527 -24.19915936 30.7335535 -27 30 C-26.566875 30.48210937 -26.13375 30.96421875 -25.6875 31.4609375 C-25.130625 32.09257813 -24.57375 32.72421875 -24 33.375 C-23.443125 34.00148437 -22.88625 34.62796875 -22.3125 35.2734375 C-21 37 -21 37 -21 39 C-25.88624411 37.8502955 -27.94417114 35.01431242 -30.70703125 31.09375 C-33.23580644 26.99881494 -34 23.78188433 -34 19 C-35.98 19.33 -37.96 19.66 -40 20 C-37.61553955 17.04326904 -36.22632646 16.06062316 -32.5 15.0625 C-29 15 -29 15 -26.5625 16.4375 C-26.046875 16.953125 -25.53125 17.46875 -25 18 C-25.99 18.33 -26.98 18.66 -28 19 C-21.84998681 23.23443531 -17.56513973 25.94564247 -10 25 C-9.34 24.67 -8.68 24.34 -8 24 C-7.65629795 21.04491137 -7.65629795 21.04491137 -9.3125 19.61328125 C-10.1478125 18.96939453 -10.1478125 18.96939453 -11 18.3125 C-11.99 17.549375 -12.98 16.78625 -14 16 C-13.125 12.125 -13.125 12.125 -12 11 C-10.31391034 10.92794489 -8.62499341 10.91613932 -6.9375 10.9375 C-6.01839844 10.94652344 -5.09929687 10.95554687 -4.15234375 10.96484375 C-3.44207031 10.97644531 -2.73179688 10.98804687 -2 11 C-2.04125 9.741875 -2.0825 8.48375 -2.125 7.1875 C-2.2390374 3.70935927 -2.05925681 3.08888522 0 0 Z " fill="#06510D" transform="translate(116,76)"/>
<path d="M0 0 C8 0 8 0 9.734375 1.37695312 C10.06953125 2.00537109 10.4046875 2.63378906 10.75 3.28125 C11.32041016 4.29638672 11.32041016 4.29638672 11.90234375 5.33203125 C12.26457031 6.04746094 12.62679687 6.76289063 13 7.5 C13.39316406 8.21542969 13.78632813 8.93085938 14.19140625 9.66796875 C15.1549873 11.43061701 16.08126339 13.2135677 17 15 C17.33 10.05 17.66 5.1 18 0 C19.98 0 21.96 0 24 0 C24 8.91 24 17.82 24 27 C17 27 17 27 15.28735352 25.53125 C14.90506592 24.8609375 14.52277832 24.190625 14.12890625 23.5 C13.48598633 22.4171875 13.48598633 22.4171875 12.83007812 21.3125 C12.41177734 20.549375 11.99347656 19.78625 11.5625 19 C11.11712891 18.236875 10.67175781 17.47375 10.21289062 16.6875 C9.11868055 14.80498805 8.05618414 12.90410662 7 11 C6.67 16.28 6.34 21.56 6 27 C4.02 27 2.04 27 0 27 C0 18.09 0 9.18 0 0 Z " fill="#0C5614" transform="translate(142,140)"/>
<path d="M0 0 C8 0 8 0 9.71850586 1.23754883 C10.04729736 1.80497803 10.37608887 2.37240723 10.71484375 2.95703125 C11.09060547 3.57513672 11.46636719 4.19324219 11.85351562 4.83007812 C12.21123047 5.48427734 12.56894531 6.13847656 12.9375 6.8125 C13.32228516 7.45509766 13.70707031 8.09769531 14.10351562 8.75976562 C15.6960064 11.46056281 17.00690316 14.02070949 18 17 C18.33 11.39 18.66 5.78 19 0 C20.65 0 22.3 0 24 0 C24 8.91 24 17.82 24 27 C17 27 17 27 15.28735352 25.43945312 C14.90506592 24.72724609 14.52277832 24.01503906 14.12890625 23.28125 C13.70029297 22.51425781 13.27167969 21.74726563 12.83007812 20.95703125 C12.41177734 20.14621094 11.99347656 19.33539063 11.5625 18.5 C11.11712891 17.68917969 10.67175781 16.87835938 10.21289062 16.04296875 C9.11799786 14.04155186 8.05577317 12.02232607 7 10 C6.67 15.61 6.34 21.22 6 27 C4.02 27 2.04 27 0 27 C0 18.09 0 9.18 0 0 Z " fill="#0C5614" transform="translate(73,140)"/>
<path d="M0 0 C3.43097755 3.9211172 6.31016417 8.04636695 8 13 C7.75 16.5 7.75 16.5 7 19 C6.01 19 5.02 19 4 19 C3.67 18.67 3.34 18.34 3 18 C-1.66052404 17.57607843 -1.66052404 17.57607843 -5.9375 19.125 C-7.44484863 21.785027 -7.19986253 24.00206205 -7 27 C-3.59687262 25.94124926 -0.98646769 24.99097846 2 23 C4.74049361 25.74049361 4.39492757 27.61574127 4.625 31.4375 C4.69976562 32.59121094 4.77453125 33.74492188 4.8515625 34.93359375 C4.94936409 36.95396864 5 38.97725933 5 41 C2.36 39.68 -0.28 38.36 -3 37 C-2.67 36.01 -2.34 35.02 -2 34 C-1.01 34 -0.02 34 1 34 C1 32.35 1 30.7 1 29 C-2.11332248 29.66868314 -2.11332248 29.66868314 -3.1875 32.0625 C-3.455625 32.701875 -3.72375 33.34125 -4 34 C-4.66 33.01 -5.32 32.02 -6 31 C-8.56282742 30.27034634 -8.56282742 30.27034634 -11 30 C-11.1546875 30.8971875 -11.1546875 30.8971875 -11.3125 31.8125 C-12.08876455 34.28243264 -13.07088921 35.32251235 -15 37 C-16.36191995 34.2761601 -16.06161289 32.01903173 -16 29 C-16 28.01 -16 27.02 -16 26 C-17.32 25.34 -18.64 24.68 -20 24 C-20 21.03 -20 18.06 -20 15 C-19.01 15.495 -19.01 15.495 -18 16 C-17.67 14.02 -17.34 12.04 -17 10 C-16.34 10 -15.68 10 -15 10 C-14.95101562 10.71027344 -14.90203125 11.42054687 -14.8515625 12.15234375 C-14.77679688 13.07144531 -14.70203125 13.99054688 -14.625 14.9375 C-14.55539063 15.85402344 -14.48578125 16.77054688 -14.4140625 17.71484375 C-14.27742187 18.46894531 -14.14078125 19.22304687 -14 20 C-13.34 20.33 -12.68 20.66 -12 21 C-11.7525 20.236875 -11.505 19.47375 -11.25 18.6875 C-9.80941891 15.59025066 -9.04977392 14.52488696 -6 13 C-3.27971675 12.76028155 -0.74123593 12.8629382 2 13 C1.77183594 12.31292969 1.54367188 11.62585938 1.30859375 10.91796875 C1.02113281 10.01691406 0.73367187 9.11585937 0.4375 8.1875 C0.14746094 7.29417969 -0.14257812 6.40085937 -0.44140625 5.48046875 C-1 3 -1 3 0 0 Z " fill="#0A5710" transform="translate(145,63)"/>
<path d="M0 0 C1.12526054 3.37578162 0.58732549 4.66617566 -0.453125 7.94921875 C-1.41788046 11.56705173 -1.67930675 15.27827042 -2 19 C-2.66 19 -3.32 19 -4 19 C-3.814375 19.61875 -3.62875 20.2375 -3.4375 20.875 C-3 23 -3 23 -4 25 C-4.5989325 30.98932505 -3.42654926 35.15916863 0 40 C3.36840178 43.45650887 6.98942286 46.32628191 11 49 C11.99 48.505 11.99 48.505 13 48 C13.33 49.65 13.66 51.3 14 53 C7.26318354 52.64543071 1.15560152 48.97988357 -3.68359375 44.41015625 C-5.89406154 41.83237037 -7.67672168 39.12774875 -9 36 C-9.33 36.66 -9.66 37.32 -10 38 C-10.66 38 -11.32 38 -12 38 C-13.50913724 33.47258828 -13.77429281 28.93573202 -12 24.5 C-11.67 24.005 -11.34 23.51 -11 23 C-12.32 23 -13.64 23 -15 23 C-13.84639578 19.88526861 -12.79673896 18.84863539 -10.0625 16.8125 C-6.61653182 14.11746919 -5.8696312 11.27415621 -4.72265625 7.16015625 C-3.74490695 4.23747861 -2.08715697 2.23109883 0 0 Z " fill="#52AA19" transform="translate(70,66)"/>
<path d="M0 0 C2.58563352 2.75244859 3.91961299 4.36163257 4.3984375 8.1640625 C5.11159358 12.71159024 6.67626739 16.21073555 8.6875 20.3125 C9.04400635 21.05798096 9.4005127 21.80346191 9.76782227 22.5715332 C12.19179756 27.5653235 14.91711876 32.27713949 17.87890625 36.97265625 C19.32623292 39.58994733 19.84343531 42.02527084 20 45 C9.75770082 41.58590027 5.04821362 34.68999875 0.125 25.5 C-2.4294605 18.10709078 -2.05331864 7.41910521 0 0 Z " fill="#52AA1A" transform="translate(52,15)"/>
<path d="M0 0 C8.9849097 7.15125466 16.16615162 15.35258461 18 27 C18.06701506 29.43666765 18.08528021 31.87501742 18.0625 34.3125 C18.05347656 35.56675781 18.04445313 36.82101563 18.03515625 38.11328125 C18.02355469 39.06589844 18.01195313 40.01851562 18 41 C17.01 41 16.02 41 15 41 C14.81566406 40.44054688 14.63132812 39.88109375 14.44140625 39.3046875 C12.1284162 32.91055502 8.96136378 27.51210056 5.17407227 21.91162109 C1.40545169 16.30306928 -0.27424102 12.47796627 -0.125 5.6875 C-0.10695313 4.61886719 -0.08890625 3.55023437 -0.0703125 2.44921875 C-0.04710938 1.64097656 -0.02390625 0.83273438 0 0 Z " fill="#6DC723" transform="translate(96,18)"/>
<path d="M0 0 C1.32 0.33 2.64 0.66 4 1 C4 1.66 4 2.32 4 3 C-0.47058824 7 -0.47058824 7 -3 7 C-3.309375 8.2684375 -3.309375 8.2684375 -3.625 9.5625 C-5.46123934 14.15309835 -8.45788548 18.72894274 -13 21 C-14.83037287 21.12145993 -16.66564133 21.17543185 -18.5 21.1875 C-19.4796875 21.20167969 -20.459375 21.21585938 -21.46875 21.23046875 C-24 21 -24 21 -26 19 C-26.309375 18.360625 -26.61875 17.72125 -26.9375 17.0625 C-27.90197968 14.93293347 -27.90197968 14.93293347 -29.625 13.375 C-30.07875 12.92125 -30.5325 12.4675 -31 12 C-31 11.34 -31 10.68 -31 10 C-25.37082652 10.40208382 -22.99613521 12.28930302 -19 16 C-18.67 15.67 -18.34 15.34 -18 15 C-18.825 14.030625 -19.65 13.06125 -20.5 12.0625 C-23 9 -23 9 -23 8 C-21.89140625 7.87882812 -20.7828125 7.75765625 -19.640625 7.6328125 C-18.17703766 7.46393704 -16.71349843 7.29464428 -15.25 7.125 C-14.52039063 7.04636719 -13.79078125 6.96773438 -13.0390625 6.88671875 C-9.31678971 6.44681378 -6.21334925 5.98104541 -3 4 C-2.34 3.67 -1.68 3.34 -1 3 C-0.67 2.01 -0.34 1.02 0 0 Z " fill="#095C11" transform="translate(120,96)"/>
<path d="M0 0 C5.28 0 10.56 0 16 0 C15.01 0.33 14.02 0.66 13 1 C13 1.99 13 2.98 13 4 C10.69 4 8.38 4 6 4 C6 6.31 6 8.62 6 11 C8.31 11 10.62 11 13 11 C12.67 11.66 12.34 12.32 12 13 C12.66 13.66 13.32 14.32 14 15 C11.36 15 8.72 15 6 15 C6 17.64 6 20.28 6 23 C7.2375 22.938125 8.475 22.87625 9.75 22.8125 C12.78211302 22.79637174 13.82248296 22.89348977 16.5 24.5 C16.995 24.995 17.49 25.49 18 26 C14.81453711 27.59273144 11.36800652 27.10141833 7.875 27.0625 C5.27625 27.041875 2.6775 27.02125 0 27 C0 18.09 0 9.18 0 0 Z " fill="#06530F" transform="translate(103,140)"/>
<path d="M0 0 C2.31 0 4.62 0 7 0 C7 8.91 7 17.82 7 27 C4.69 27 2.38 27 0 27 C0 18.09 0 9.18 0 0 Z " fill="#2F6932" transform="translate(61,140)"/>
<path d="M0 0 C8.6307098 3.73997424 13.41308945 12.56968092 17.01171875 20.82421875 C18.42659773 25.37084567 18.09016266 28.40574307 17 33 C13.769483 29.95893756 11.76493405 26.40962289 9.625 22.5625 C9.22869385 21.85399902 8.8323877 21.14549805 8.42407227 20.41552734 C0 5.10435816 0 5.10435816 0 0 Z " fill="#06510D" transform="translate(55,22)"/>
<path d="M0 0 C1.98 0 3.96 0 6 0 C6 8.91 6 17.82 6 27 C4.02 27 2.04 27 0 27 C0 18.09 0 9.18 0 0 Z " fill="#04520D" transform="translate(130,140)"/>
<path d="M0 0 C0 1.98 0 3.96 0 6 C0.66 6 1.32 6 2 6 C2.33 4.68 2.66 3.36 3 2 C3.99 2.33 4.98 2.66 6 3 C6.27429625 8.39449293 6.36055646 11.51925805 3 16 C2.33613281 15.79503906 1.67226562 15.59007813 0.98828125 15.37890625 C0.10527344 15.10949219 -0.77773437 14.84007813 -1.6875 14.5625 C-2.55761719 14.29566406 -3.42773438 14.02882813 -4.32421875 13.75390625 C-6.87025921 13.03655471 -9.4003423 12.482459 -12 12 C-11.67 11.34 -11.34 10.68 -11 10 C-9.68 10 -8.36 10 -7 10 C-7.185625 8.88625 -7.37125 7.7725 -7.5625 6.625 C-8 3 -8 3 -7 1 C-4 0 -4 0 0 0 Z " fill="#06540D" transform="translate(90,74)"/>
<path d="M0 0 C4.75 0.75 4.75 0.75 7 3 C7.375 5.875 7.375 5.875 7 9 C5.125 11.375 5.125 11.375 3 13 C2.34 13 1.68 13 1 13 C0.566875 13.928125 0.566875 13.928125 0.125 14.875 C-1 17 -1 17 -3 19 C-5.4375 18.875 -5.4375 18.875 -8 18 C-9.8125 15.9375 -9.8125 15.9375 -11 14 C-7.55930376 11.70620251 -6.27709699 11 -2 11 C-2.061875 9.1128125 -2.061875 9.1128125 -2.125 7.1875 C-2.2390374 3.70935927 -2.05925681 3.08888522 0 0 Z " fill="#1C6721" transform="translate(116,76)"/>
<path d="M0 0 C2.25 -0.3125 2.25 -0.3125 5 0 C10.03152408 4.14360806 10.93151116 10.86608256 12 17 C12.19606205 19.7323541 12.15815196 22.25869928 12 25 C10.35 25 8.7 25 7 25 C6.91363281 24.32195312 6.82726562 23.64390625 6.73828125 22.9453125 C5.78859748 16.65474662 4.17628915 11.72256507 1.0234375 6.19140625 C0 4 0 4 0 0 Z " fill="#66BE21" transform="translate(147,62)"/>
<path d="M0 0 C0.7425 0.763125 1.485 1.52625 2.25 2.3125 C4.4263323 4.4393702 6.52167796 6.2559956 9 8 C7.84826645 10.46800047 6.95216435 12.04783565 5 14 C-0.2912759 14.43371114 -3.71048613 14.48523002 -8 11 C-8 9 -8 9 -5.6875 6.625 C-4.800625 5.75875 -3.91375 4.8925 -3 4 C-1.97186389 2.68824014 -0.95915568 1.3630107 0 0 Z " fill="#F2F4F3" transform="translate(132,107)"/>
<path d="M0 0 C0.33 0 0.66 0 1 0 C1.00257812 0.79921875 1.00515625 1.5984375 1.0078125 2.421875 C1.44517089 14.84285318 6.63812344 23.40470801 13.58203125 33.4296875 C15.17270267 36.31305332 15.6348191 38.74657018 16 42 C15.484375 41.278125 14.96875 40.55625 14.4375 39.8125 C12.34017397 37.39250843 11.12118764 36.39084955 8.5 34.8125 C3.90051729 31.68366734 2.40829041 27.22430314 1 22 C0.0966712 16.97560258 -0.1076314 12.16234837 -0.0625 7.0625 C-0.05798828 6.37865234 -0.05347656 5.69480469 -0.04882812 4.99023438 C-0.0371956 3.32678396 -0.01926694 1.6633795 0 0 Z " fill="#54AB1A" transform="translate(95,17)"/>
<path d="M0 0 C-2.43243243 5.71621622 -2.43243243 5.71621622 -4.875 6.9375 C-7.55976618 7.01646371 -9.44343798 6.89479671 -12 6 C-16 1.67567568 -16 1.67567568 -16 0 C-14.27185839 -0.19672365 -12.54240803 -0.38196799 -10.8125 -0.5625 C-9.84957031 -0.66691406 -8.88664062 -0.77132812 -7.89453125 -0.87890625 C-5.05766623 -0.99758751 -2.74576329 -0.67765639 0 0 Z " fill="#E8EDE9" transform="translate(113,104)"/>
<path d="M0 0 C0.99 0 1.98 0 3 0 C3 8.58 3 17.16 3 26 C2.01 26 1.02 26 0 26 C0 17.42 0 8.84 0 0 Z " fill="#02540E" transform="translate(63,140)"/>
<path d="M0 0 C3.43097755 3.9211172 6.31016417 8.04636695 8 13 C7.75 16.5 7.75 16.5 7 19 C6.01 19 5.02 19 4 19 C4 18.01 4 17.02 4 16 C3.01 15.67 2.02 15.34 1 15 C1.66 14.67 2.32 14.34 3 14 C2.69964844 13.32453125 2.39929688 12.6490625 2.08984375 11.953125 C1.70957031 11.06109375 1.32929688 10.1690625 0.9375 9.25 C0.55464844 8.36828125 0.17179688 7.4865625 -0.22265625 6.578125 C-1.04600008 3.84743691 -0.9773992 2.63098653 0 0 Z " fill="#05500D" transform="translate(145,63)"/>
<path d="M0 0 C6.625 -0.25 6.625 -0.25 10 2 C9.625 4.4375 9.625 4.4375 9 7 C6.04335481 8.4783226 3.25770263 8.06032783 0 8 C0 5.36 0 2.72 0 0 Z " fill="#DDE5DE" transform="translate(109,155)"/>
<path d="M0 0 C4.77508651 0.82329078 6.25689667 2.17856869 9.625 5.625 C11.0625 7.75 11.0625 7.75 11.625 9.625 C11.295 10.615 10.965 11.605 10.625 12.625 C9.4803125 11.449375 9.4803125 11.449375 8.3125 10.25 C4.38978591 6.38287092 4.38978591 6.38287092 -0.875 5.5 C-2.03 5.54125 -3.185 5.5825 -4.375 5.625 C-5.365 5.625 -6.355 5.625 -7.375 5.625 C-5.16694203 2.09210724 -4.18120955 0.77429806 0 0 Z " fill="#0C550E" transform="translate(87.375,64.375)"/>
<path d="M0 0 C1.4540625 0.0309375 1.4540625 0.0309375 2.9375 0.0625 C1.6175 1.3825 0.2975 2.7025 -1.0625 4.0625 C1.554473 6.48589834 1.554473 6.48589834 4.9375 7 C7.49439522 5.80145537 9.05746267 4.1439699 10.9375 2.0625 C10.75 4.9375 10.75 4.9375 9.9375 8.0625 C7.4375 9.1875 7.4375 9.1875 4.9375 10.0625 C4.05056697 12.10355639 4.05056697 12.10355639 3.9375 14.0625 C2.27083333 12.39583333 0.60416667 10.72916667 -1.0625 9.0625 C-1.84625 8.381875 -2.63 7.70125 -3.4375 7 C-5.0625 5.0625 -5.0625 5.0625 -4.875 2.875 C-3.54119412 -0.10041311 -3.50396112 0.07150941 0 0 Z " fill="#085B0D" transform="translate(107.0625,86.9375)"/>
<path d="M0 0 C5.625 -0.25 5.625 -0.25 9 2 C8.125 6.875 8.125 6.875 7 8 C4.66702567 8.04092937 2.33294775 8.04241723 0 8 C0 5.36 0 2.72 0 0 Z " fill="#EAEFEB" transform="translate(41,155)"/>
<path d="M0 0 C1.32 0.33 2.64 0.66 4 1 C4 1.66 4 2.32 4 3 C-0.47058824 7 -0.47058824 7 -3 7 C-3.433125 8.423125 -3.433125 8.423125 -3.875 9.875 C-5 13 -5 13 -7 15 C-8.4606285 12.35261084 -9 11.10551666 -9 8 C-7 5 -7 5 -3.9375 4 C-2.968125 3.67 -1.99875 3.34 -1 3 C-0.67 2.01 -0.34 1.02 0 0 Z " fill="#125F13" transform="translate(120,96)"/>
<path d="M0 0 C2.33294775 -0.04241723 4.66702567 -0.04092937 7 0 C8 1 8 1 8.125 3.5 C8 6 8 6 7 7 C4.66702567 7.04092937 2.33294775 7.04241723 0 7 C0 4.69 0 2.38 0 0 Z " fill="#E2E8E3" transform="translate(109,144)"/>
<path d="M0 0 C2.875 -0.125 2.875 -0.125 6 0 C6.66 0.66 7.32 1.32 8 2 C7.46428571 5.53571429 7.46428571 5.53571429 6 7 C4.00041636 7.04080783 1.99954746 7.04254356 0 7 C0 4.69 0 2.38 0 0 Z " fill="#EDF0ED" transform="translate(41,144)"/>
<path d="M0 0 C5.61925626 0.40137545 8.08656763 2.17974459 12 6 C12 6.66 12 7.32 12 8 C7.6305794 7.74297526 5.48177009 7.39976667 2.0625 4.5625 C0 2 0 2 0 0 Z " fill="#349B13" transform="translate(89,106)"/>
<path d="M0 0 C2.375 0.5 2.375 0.5 4.375 3.5 C4 5.6875 4 5.6875 3.375 7.5 C2.7975 7.190625 2.22 6.88125 1.625 6.5625 C-0.46794184 5.57416636 -2.37035275 4.9831387 -4.625 4.5 C-4.955 5.49 -5.285 6.48 -5.625 7.5 C-6.615 7.5 -7.605 7.5 -8.625 7.5 C-8.295 6.51 -7.965 5.52 -7.625 4.5 C-7.295 4.83 -6.965 5.16 -6.625 5.5 C-6.068125 4.675 -5.51125 3.85 -4.9375 3 C-2.625 0.5 -2.625 0.5 0 0 Z " fill="#65BC21" transform="translate(120.625,71.5)"/>
<path d="M0 0 C0.66 0 1.32 0 2 0 C3.110682 1.20739046 4.16465549 2.46734831 5.1875 3.75 C8.46505307 7.63348725 11.45827088 9.77547961 16 12 C16 12.33 16 12.66 16 13 C10.07060954 12.64423657 7.19369925 11.19369925 3 7 C0 2.7 0 2.7 0 0 Z " fill="#4FA619" transform="translate(135,101)"/>
<path d="M0 0 C2.05078125 0.03255208 4.1015625 0.06510417 6.15234375 0.09765625 C6.77734375 1.97265625 6.77734375 1.97265625 7.15234375 4.09765625 C6.49234375 4.75765625 5.83234375 5.41765625 5.15234375 6.09765625 C2.71484375 5.97265625 2.71484375 5.97265625 0.15234375 5.09765625 C-1.66015625 3.03515625 -1.66015625 3.03515625 -2.84765625 1.09765625 C-1.84765625 0.09765625 -1.84765625 0.09765625 0 0 Z " fill="#63BA20" transform="translate(107.84765625,88.90234375)"/>
<path d="M0 0 C0.33 0.66 0.66 1.32 1 2 C3.52733235 2.65555119 3.52733235 2.65555119 6 3 C5.67 3.66 5.34 4.32 5 5 C3.35 4.67 1.7 4.34 0 4 C-0.89130413 6.6739124 -1.47731534 9.23723823 -2 12 C-3.97538528 9.77769156 -4.93956032 8.41300448 -5.375 5.4375 C-5 3 -5 3 -3.625 1.1875 C-2 0 -2 0 0 0 Z " fill="#1F6221" transform="translate(147,58)"/>
<path d="M0 0 C2.60025916 0.91009071 3.76626458 1.77626765 5.5 3.875 C4.84 3.875 4.18 3.875 3.5 3.875 C3.17 5.525 2.84 7.175 2.5 8.875 C1.51 8.545 0.52 8.215 -0.5 7.875 C-0.17 5.895 0.16 3.915 0.5 1.875 C-1.48 2.205 -3.46 2.535 -5.5 2.875 C-3.68189192 0.48275253 -3.08240061 -0.15412003 0 0 Z " fill="#1A5F17" transform="translate(89.5,72.125)"/>
<path d="M0 0 C0.33 0 0.66 0 1 0 C1.16808419 2.10405391 1.33441948 4.20824758 1.5 6.3125 C1.5928125 7.48425781 1.685625 8.65601562 1.78125 9.86328125 C1.92364989 11.905194 2 13.9531279 2 16 C-0.64 14.68 -3.28 13.36 -6 12 C-2.125 9 -2.125 9 -1 9 C-0.67 6.03 -0.34 3.06 0 0 Z " fill="#115E0E" transform="translate(148,88)"/>
<path d="M0 0 C1.65 0.33 3.3 0.66 5 1 C4.01 2.98 3.02 4.96 2 7 C0.68 7 -0.64 7 -2 7 C-1.34 4.69 -0.68 2.38 0 0 Z " fill="#DEE5DF" transform="translate(108,103)"/>
<path d="M0 0 C6.60869565 3.82608696 6.60869565 3.82608696 8 8 C7.01 8 6.02 8 5 8 C5 9.65 5 11.3 5 13 C4.67 13 4.34 13 4 13 C3.87882812 12.36191406 3.75765625 11.72382812 3.6328125 11.06640625 C3.46523437 10.24011719 3.29765625 9.41382812 3.125 8.5625 C2.96257812 7.73878906 2.80015625 6.91507812 2.6328125 6.06640625 C2.42398438 5.38449219 2.21515625 4.70257813 2 4 C1.34 3.67 0.68 3.34 0 3 C0 2.01 0 1.02 0 0 Z " fill="#5EB320" transform="translate(92,71)"/>
<path d="M0 0 C0.99 0 1.98 0 3 0 C3.3125 2.3125 3.3125 2.3125 3 5 C0.5 6.8125 0.5 6.8125 -2 8 C-2 4.23312136 -1.76462683 3.08809695 0 0 Z " fill="#5E8D62" transform="translate(143,92)"/>
<path d="M0 0 C0 0.99 0 1.98 0 3 C-2 5 -2 5 -5.125 5.125 C-6.548125 5.063125 -6.548125 5.063125 -8 5 C-7.67 4.34 -7.34 3.68 -7 3 C-6.01 3 -5.02 3 -4 3 C-4 2.34 -4 1.68 -4 1 C-2.68 0.67 -1.36 0.34 0 0 Z " fill="#17561E" transform="translate(94,47)"/>
<path d="M0 0 C2.125 0.375 2.125 0.375 4 1 C4 2.98 4 4.96 4 7 C2.02 5.35 0.04 3.7 -2 2 C-1.34 1.34 -0.68 0.68 0 0 Z " fill="#12650F" transform="translate(108,94)"/>
<path d="M0 0 C2.64 0 5.28 0 8 0 C7.01 1.485 7.01 1.485 6 3 C3.5625 2.625 3.5625 2.625 1 2 C0.67 1.34 0.34 0.68 0 0 Z " fill="#4EA519" transform="translate(107,92)"/>
<path d="M0 0 C1.32 0.33 2.64 0.66 4 1 C3.67 2.32 3.34 3.64 3 5 C2.01 4.67 1.02 4.34 0 4 C0 2.68 0 1.36 0 0 Z " fill="#E7EBE8" transform="translate(89,76)"/>
</svg>
