<?xml version="1.0" encoding="UTF-8"?>
<svg xmlns="http://www.w3.org/2000/svg" xmlns:xlink="http://www.w3.org/1999/xlink" width="200px" height="200px" viewBox="0 0 200 200" version="1.1">
<g id="surface1">
<path style=" stroke:none;fill-rule:nonzero;fill:rgb(98.823529%,99.215686%,98.823529%);fill-opacity:1;" d="M 200 99.980469 C 200 155.210938 155.226562 199.980469 100 199.980469 C 44.773438 199.980469 0 155.210938 0 99.980469 C 0 97.597656 0.0703125 95.246094 0.238281 92.902344 C 1.722656 72.410156 9.429688 52.859375 22.332031 36.871094 C 23.316406 35.402344 24.511719 34.082031 25.871094 32.953125 C 34.160156 23.839844 44.03125 16.308594 55.011719 10.726562 C 65.980469 5.148438 77.894531 1.671875 90.140625 0.480469 C 93.375 0.171875 96.644531 0.00390625 99.980469 0.00390625 C 118.566406 -0.0195312 136.792969 5.144531 152.609375 14.910156 C 153.527344 15.492188 154.414062 16.035156 155.296875 16.648438 C 156.761719 17.632812 158.230469 18.65625 159.652344 19.675781 C 161.558594 21.070312 163.386719 22.570312 165.167969 24.101562 C 165.542969 24.40625 165.882812 24.714844 166.234375 25.019531 L 166.269531 25.054688 C 173.363281 31.324219 179.527344 38.566406 184.585938 46.570312 C 188.902344 53.382812 192.367188 60.699219 194.898438 68.355469 C 195.648438 70.570312 196.292969 72.816406 196.871094 75.097656 C 197.007812 75.675781 197.136719 76.222656 197.28125 76.800781 C 197.421875 77.378906 197.546875 77.957031 197.652344 78.535156 C 197.890625 79.691406 198.128906 80.851562 198.332031 82.003906 C 199.460938 87.929688 200.019531 93.949219 200 99.980469 Z M 200 99.980469 "/>
<path style=" stroke:none;fill-rule:nonzero;fill:rgb(98.823529%,98.823529%,99.215686%);fill-opacity:1;" d="M 126.199219 123.257812 C 119.699219 125.222656 113.820312 128.847656 109.148438 133.777344 C 109.125 133.804688 109.101562 133.828125 109.078125 133.859375 C 108.410156 134.550781 107.785156 135.28125 107.199219 136.046875 C 103.636719 140.507812 101.097656 145.695312 99.769531 151.246094 C 101.097656 145.695312 103.636719 140.507812 107.199219 136.046875 C 107.785156 135.28125 108.410156 134.550781 109.078125 133.859375 C 109.101562 133.835938 109.121094 133.8125 109.136719 133.789062 C 113.8125 128.855469 119.695312 125.222656 126.207031 123.257812 Z M 126.199219 123.257812 "/>
<path style=" stroke:none;fill-rule:nonzero;fill:rgb(41.176471%,19.607843%,83.137255%);fill-opacity:1;" d="M 140.96875 56.929688 L 140.96875 142.9375 L 59.011719 142.9375 L 59.011719 56.929688 L 140.96875 56.929688 L 140.96875 32.339844 L 90.695312 32.339844 L 33.496094 75.003906 L 33.496094 102.375 C 33.496094 138.15625 63.945312 168.21875 101.140625 167.644531 C 118.4375 167.394531 134.984375 160.546875 147.398438 148.507812 C 159.535156 136.746094 166.421875 120.589844 166.5 103.691406 L 166.5 56.929688 Z M 140.96875 56.929688 "/>
</g>
</svg>
