<?xml version="1.0" encoding="UTF-8"?>
<svg version="1.1" xmlns="http://www.w3.org/2000/svg" width="200" height="200">
<path d="M0 0 C66 0 132 0 200 0 C200 66 200 132 200 200 C134 200 68 200 0 200 C0 134 0 68 0 0 Z " fill="#EDDDAC" transform="translate(0,0)"/>
<path d="M0 0 C66 0 132 0 200 0 C200 66 200 132 200 200 C134 200 68 200 0 200 C0 134 0 68 0 0 Z M44 33 C43.27683594 33.56847656 42.55367187 34.13695313 41.80859375 34.72265625 C28.86931991 45.32160926 20.30811091 60.99436938 16 77 C15.69255859 78.10021484 15.69255859 78.10021484 15.37890625 79.22265625 C10.31704511 101.25047955 14.58612288 125.0169959 25.96484375 144.3359375 C38.55815217 163.510559 57.84455577 178.46622733 80.35913086 183.96972656 C94.53863124 186.82573457 111.25678594 186.72008317 125 182 C126.06863281 181.64808594 127.13726562 181.29617187 128.23828125 180.93359375 C141.7244426 176.13182302 151.99195288 168.99416634 162 159 C163.22396484 157.7934375 163.22396484 157.7934375 164.47265625 156.5625 C181.19744846 139.12052116 186.7062314 116.71955348 186.25 93.1328125 C185.43341375 70.89716895 174.60357681 49.70533155 158.49169922 34.58447266 C138.37754062 16.85030724 114.57972696 11.95133803 88.40673828 12.78222656 C72.00785692 13.83051395 56.25521285 22.43840581 44 33 Z " fill="#FCF6E2" transform="translate(0,0)"/>
<path d="M0 0 C1.49802971 1.14234501 2.97770513 2.30918344 4.4375 3.5 C5.27152344 4.1290625 6.10554688 4.758125 6.96484375 5.40625 C15.58366221 12.70433325 19.94652338 23.02707015 23.4375 33.5 C23.52041953 35.4920303 23.54488177 37.48673713 23.53515625 39.48046875 C23.53032227 41.22553711 23.53032227 41.22553711 23.52539062 43.00585938 C23.51282227 44.82827148 23.51282227 44.82827148 23.5 46.6875 C23.49548828 47.91404297 23.49097656 49.14058594 23.48632812 50.40429688 C23.47453065 53.43624668 23.45806921 56.46809906 23.4375 59.5 C24.0975 58.84 24.7575 58.18 25.4375 57.5 C26.4275 57.5 27.4175 57.5 28.4375 57.5 C29.28808021 65.32533793 25.68718532 71.12547202 21.4375 77.5 C23.0875 77.5 24.7375 77.5 26.4375 77.5 C24.60183569 84.02680643 19.7415341 89.15947107 14 92.5 C12.7315625 92.995 12.7315625 92.995 11.4375 93.5 C12.9225 94.49 12.9225 94.49 14.4375 95.5 C12.59348022 100.16487167 9.69851077 101.43917807 5.32421875 103.52734375 C0.68936382 105.08902017 -3.73682296 104.91284309 -8.5625 104.5 C-6.9125 105.49 -5.2625 106.48 -3.5625 107.5 C-4.5525 109.48 -4.5525 109.48 -5.5625 111.5 C-16.53842998 112.13019694 -16.53842998 112.13019694 -20.8125 109.5 C-21.39 108.84 -21.9675 108.18 -22.5625 107.5 C-22.8925 107.83 -23.2225 108.16 -23.5625 108.5 C-23.0675 108.933125 -22.5725 109.36625 -22.0625 109.8125 C-20.5625 111.5 -20.5625 111.5 -20.5625 114.5 C-22.5 114.1875 -22.5 114.1875 -24.5625 113.5 C-24.8925 112.51 -25.2225 111.52 -25.5625 110.5 C-27.89415034 110.16501699 -27.89415034 110.16501699 -30.5625 110.5 C-32.75027466 112.4375006 -32.75027466 112.4375006 -34.5625 114.5 C-35.2225 114.5 -35.8825 114.5 -36.5625 114.5 C-35.99878586 111.23045798 -35.06287734 109.67424117 -32.5625 107.5 C-35.5344385 108.62451727 -37.89690687 109.72293791 -40.5625 111.5 C-43.15625 111.80078125 -43.15625 111.80078125 -46.0625 111.8125 C-47.0215625 111.82925781 -47.980625 111.84601563 -48.96875 111.86328125 C-51.91030511 111.45128633 -52.76673739 110.79930415 -54.5625 108.5 C-52.9125 107.18 -51.2625 105.86 -49.5625 104.5 C-50.28695312 104.53480469 -51.01140625 104.56960937 -51.7578125 104.60546875 C-60.19693309 104.84176413 -65.20849995 103.29335299 -71.5625 97.5 C-71.5625 95.5 -71.5625 95.5 -69.5625 93.5 C-70.16578125 93.12488281 -70.7690625 92.74976563 -71.390625 92.36328125 C-81.69113071 85.76763485 -81.69113071 85.76763485 -83.3125 79.6875 C-83.395 78.965625 -83.4775 78.24375 -83.5625 77.5 C-81.5825 77.5 -79.6025 77.5 -77.5625 77.5 C-77.97242188 77.04109375 -78.38234375 76.5821875 -78.8046875 76.109375 C-79.34351563 75.49578125 -79.88234375 74.8821875 -80.4375 74.25 C-80.97117187 73.64671875 -81.50484375 73.0434375 -82.0546875 72.421875 C-84.85477314 68.85285392 -85.82127417 66.29832164 -85.6875 61.75 C-85.66042969 60.55117187 -85.66042969 60.55117187 -85.6328125 59.328125 C-85.59800781 58.42320313 -85.59800781 58.42320313 -85.5625 57.5 C-83.9125 58.16 -82.2625 58.82 -80.5625 59.5 C-80.7275 58.46875 -80.8925 57.4375 -81.0625 56.375 C-83.06466975 39.43126497 -79.8181663 25.42726525 -70.078125 11.35546875 C-53.67821581 -9.22560541 -22.06455984 -15.04401807 0 0 Z " fill="#5F7916" transform="translate(128.5625,54.5)"/>
<path d="M0 0 C1.49802971 1.14234501 2.97770513 2.30918344 4.4375 3.5 C5.27152344 4.1290625 6.10554688 4.758125 6.96484375 5.40625 C15.58366221 12.70433325 19.94652338 23.02707015 23.4375 33.5 C23.52041953 35.4920303 23.54488177 37.48673713 23.53515625 39.48046875 C23.53032227 41.22553711 23.53032227 41.22553711 23.52539062 43.00585938 C23.51282227 44.82827148 23.51282227 44.82827148 23.5 46.6875 C23.49548828 47.91404297 23.49097656 49.14058594 23.48632812 50.40429688 C23.47453065 53.43624668 23.45806921 56.46809906 23.4375 59.5 C24.0975 58.84 24.7575 58.18 25.4375 57.5 C26.4275 57.5 27.4175 57.5 28.4375 57.5 C29.28808021 65.32533793 25.68718532 71.12547202 21.4375 77.5 C23.0875 77.5 24.7375 77.5 26.4375 77.5 C24.60183569 84.02680643 19.7415341 89.15947107 14 92.5 C12.7315625 92.995 12.7315625 92.995 11.4375 93.5 C12.9225 94.49 12.9225 94.49 14.4375 95.5 C12.59348022 100.16487167 9.69851077 101.43917807 5.32421875 103.52734375 C0.68936382 105.08902017 -3.73682296 104.91284309 -8.5625 104.5 C-6.9125 105.49 -5.2625 106.48 -3.5625 107.5 C-4.5525 109.48 -4.5525 109.48 -5.5625 111.5 C-16.53842998 112.13019694 -16.53842998 112.13019694 -20.8125 109.5 C-21.39 108.84 -21.9675 108.18 -22.5625 107.5 C-22.8925 107.83 -23.2225 108.16 -23.5625 108.5 C-23.0675 108.933125 -22.5725 109.36625 -22.0625 109.8125 C-20.5625 111.5 -20.5625 111.5 -20.5625 114.5 C-22.5 114.1875 -22.5 114.1875 -24.5625 113.5 C-24.8925 112.51 -25.2225 111.52 -25.5625 110.5 C-27.89415034 110.16501699 -27.89415034 110.16501699 -30.5625 110.5 C-32.75027466 112.4375006 -32.75027466 112.4375006 -34.5625 114.5 C-35.2225 114.5 -35.8825 114.5 -36.5625 114.5 C-35.99878586 111.23045798 -35.06287734 109.67424117 -32.5625 107.5 C-35.5344385 108.62451727 -37.89690687 109.72293791 -40.5625 111.5 C-43.15625 111.80078125 -43.15625 111.80078125 -46.0625 111.8125 C-47.0215625 111.82925781 -47.980625 111.84601563 -48.96875 111.86328125 C-51.91030511 111.45128633 -52.76673739 110.79930415 -54.5625 108.5 C-52.9125 107.18 -51.2625 105.86 -49.5625 104.5 C-50.28695312 104.53480469 -51.01140625 104.56960937 -51.7578125 104.60546875 C-60.19693309 104.84176413 -65.20849995 103.29335299 -71.5625 97.5 C-71.5625 95.5 -71.5625 95.5 -69.5625 93.5 C-70.16578125 93.12488281 -70.7690625 92.74976563 -71.390625 92.36328125 C-81.69113071 85.76763485 -81.69113071 85.76763485 -83.3125 79.6875 C-83.395 78.965625 -83.4775 78.24375 -83.5625 77.5 C-81.5825 77.5 -79.6025 77.5 -77.5625 77.5 C-77.97242188 77.04109375 -78.38234375 76.5821875 -78.8046875 76.109375 C-79.34351563 75.49578125 -79.88234375 74.8821875 -80.4375 74.25 C-80.97117187 73.64671875 -81.50484375 73.0434375 -82.0546875 72.421875 C-84.85477314 68.85285392 -85.82127417 66.29832164 -85.6875 61.75 C-85.66042969 60.55117187 -85.66042969 60.55117187 -85.6328125 59.328125 C-85.59800781 58.42320313 -85.59800781 58.42320313 -85.5625 57.5 C-83.9125 58.16 -82.2625 58.82 -80.5625 59.5 C-80.7275 58.46875 -80.8925 57.4375 -81.0625 56.375 C-83.06466975 39.43126497 -79.8181663 25.42726525 -70.078125 11.35546875 C-53.67821581 -9.22560541 -22.06455984 -15.04401807 0 0 Z M-61.5625 7.5 C-62.16449219 7.97566406 -62.76648438 8.45132813 -63.38671875 8.94140625 C-71.38236472 15.8230521 -77.7174933 28.99777391 -78.5625 39.5 C-78.68338175 42.52204383 -78.65859727 45.47293597 -78.5625 48.5 C-76.9125 47.18 -75.2625 45.86 -73.5625 44.5 C-70.27612366 52.09974528 -71.14441315 60.52326147 -72.5625 68.5 C-70.34060176 66.27810176 -69.63651108 64.41517292 -68.5625 61.5 C-67.9025 61.5 -67.2425 61.5 -66.5625 61.5 C-64.66330783 67.18985622 -64.15563442 72.46152572 -63.9375 78.4375 C-63.89882812 79.31212891 -63.86015625 80.18675781 -63.8203125 81.08789062 C-63.7268893 83.22494631 -63.64364602 85.36244294 -63.5625 87.5 C-62.9025 87.83 -62.2425 88.16 -61.5625 88.5 C-61.5625 84.87 -61.5625 81.24 -61.5625 77.5 C-53.80449653 83.09297925 -50.62054191 90.64777342 -47.5625 99.5 C-46.9025 99.5 -46.2425 99.5 -45.5625 99.5 C-46.2225 96.53 -46.8825 93.56 -47.5625 90.5 C-41.09896623 93.74557785 -37.00010774 96.57863103 -33.125 102.8125 C-31.67467981 104.71363582 -31.67467981 104.71363582 -29.26953125 104.9375 C-25.32260196 104.29961244 -24.16965344 102.24459314 -21.6875 99.1875 C-18.01749295 94.83462081 -15.10976168 92.06770439 -9.5625 90.5 C-10.5525 93.47 -11.5425 96.44 -12.5625 99.5 C-8.48859138 97.98300903 -8.48859138 97.98300903 -7.47265625 95.14453125 C-7.05306641 93.74267578 -7.05306641 93.74267578 -6.625 92.3125 C-4.37495752 85.58884365 -2.15084238 80.79417119 4.4375 77.5 C3.9425 83.44 3.9425 83.44 3.4375 89.5 C6.72015812 86.22465543 6.72015812 86.22465543 6.87890625 82.0078125 C6.90533203 81.13769531 6.93175781 80.26757812 6.95898438 79.37109375 C6.97928711 78.01177734 6.97928711 78.01177734 7 76.625 C7.21013465 65.77582585 7.21013465 65.77582585 9.4375 61.5 C10.0975 61.5 10.7575 61.5 11.4375 61.5 C12.0975 62.16 12.7575 62.82 13.4375 63.5 C13.48648438 62.54738281 13.53546875 61.59476562 13.5859375 60.61328125 C13.66070312 59.35902344 13.73546875 58.10476562 13.8125 56.8125 C13.88210937 55.57113281 13.95171875 54.32976562 14.0234375 53.05078125 C14.40172094 49.80682228 15.05729976 47.43432815 16.4375 44.5 C17.7575 45.49 19.0775 46.48 20.4375 47.5 C21.10519891 33.10737914 17.59936015 22.2820722 8.1875 11.3125 C-0.40309697 2.13876648 -11.28108619 -4.14063961 -23.96875 -4.7734375 C-38.95912078 -5.19609556 -50.1366329 -2.79905575 -61.5625 7.5 Z " fill="#25230F" transform="translate(128.5625,54.5)"/>
<path d="M0 0 C1.32149048 0.01522705 1.32149048 0.01522705 2.66967773 0.03076172 C8.88824044 0.17941262 14.36371701 0.72626988 20.0625 3.375 C20.9596875 3.7771875 21.856875 4.179375 22.78125 4.59375 C35.83048883 11.0466703 44.04404877 21.90442039 49.0625 35.375 C50.00965171 39.20253088 50.16826173 42.75068266 50.125 46.6875 C50.11597656 47.75613281 50.10695313 48.82476562 50.09765625 49.92578125 C50.08605469 50.73402344 50.07445312 51.54226562 50.0625 52.375 C48.7425 51.385 47.4225 50.395 46.0625 49.375 C44.11793072 53.50918591 43.69221979 57.144997 43.4375 61.6875 C43.36273438 62.94175781 43.28796875 64.19601563 43.2109375 65.48828125 C43.16195312 66.44089844 43.11296875 67.39351563 43.0625 68.375 C41.0825 67.385 41.0825 67.385 39.0625 66.375 C36.1486204 71.96871265 36.67582365 78.09723586 36.58398438 84.24609375 C36.55755859 85.11621094 36.53113281 85.98632812 36.50390625 86.8828125 C36.49045166 87.67316895 36.47699707 88.46352539 36.46313477 89.27783203 C36.0625 91.375 36.0625 91.375 33.0625 94.375 C33.3925 90.415 33.7225 86.455 34.0625 82.375 C25.98982393 86.41133804 22.95887128 95.21404799 20.0625 103.375 C19.0725 103.375 18.0825 103.375 17.0625 103.375 C18.0525 100.735 19.0425 98.095 20.0625 95.375 C13.29810962 98.08075615 9.74605544 101.62541981 5.23828125 107.328125 C3.0625 109.375 3.0625 109.375 0.49609375 109.93359375 C-2.7667969 109.18464774 -3.39226421 107.96648874 -5.1875 105.1875 C-8.79611056 100.13703842 -12.37263849 98.02901088 -17.9375 95.375 C-17.2775 98.345 -16.6175 101.315 -15.9375 104.375 C-16.9275 104.045 -17.9175 103.715 -18.9375 103.375 C-19.89453125 101.15234375 -19.89453125 101.15234375 -20.75 98.3125 C-22.99789616 91.67256056 -26.03382101 86.310786 -31.9375 82.375 C-31.9375 86.005 -31.9375 89.635 -31.9375 93.375 C-32.5975 93.045 -33.2575 92.715 -33.9375 92.375 C-34.01097656 90.43947266 -34.01097656 90.43947266 -34.0859375 88.46484375 C-34.16101803 86.74737653 -34.23656354 85.02992959 -34.3125 83.3125 C-34.3434375 82.46494141 -34.374375 81.61738281 -34.40625 80.74414062 C-34.64281783 75.63821829 -35.31794506 71.22708127 -36.9375 66.375 C-37.5975 66.375 -38.2575 66.375 -38.9375 66.375 C-39.9275 68.685 -40.9175 70.995 -41.9375 73.375 C-42.87173645 70.36468256 -42.98199911 69.50849732 -41.9375 66.375 C-41.53426302 60.40146613 -41.52497522 54.95396356 -43.9375 49.375 C-45.5875 50.695 -47.2375 52.015 -48.9375 53.375 C-49.62251419 39.67471619 -45.35698785 27.18394076 -36.609375 16.54296875 C-26.38603099 5.82131709 -14.88876994 -0.24874181 0 0 Z M2.6875 11.9375 C0.7851499 14.30277341 0.7851499 14.30277341 1.0625 17.375 C0.4025 17.375 -0.2575 17.375 -0.9375 17.375 C-1.03160156 16.78074219 -1.12570313 16.18648437 -1.22265625 15.57421875 C-2.09722916 12.88359279 -3.19303383 11.95212545 -5.375 10.1875 C-5.99246094 9.67832031 -6.60992187 9.16914062 -7.24609375 8.64453125 C-10.31499663 6.3410822 -12.27587287 6.2639535 -16.0625 6.3125 C-16.97257812 6.32152344 -17.88265625 6.33054687 -18.8203125 6.33984375 C-19.86832031 6.35724609 -19.86832031 6.35724609 -20.9375 6.375 C-19.80449663 13.31464566 -16.40851802 16.18903505 -10.9375 20.375 C-11.79472656 20.89707031 -12.65195313 21.41914062 -13.53515625 21.95703125 C-21.4493003 26.97248413 -26.74755292 31.75603978 -30.9375 40.375 C-31.29457031 41.10332031 -31.65164062 41.83164063 -32.01953125 42.58203125 C-36.17585209 52.81151496 -34.65296419 65.24191584 -30.9375 75.375 C-26.6516745 84.82579468 -19.32698635 92.90778856 -9.515625 96.75 C-0.39368744 98.9613788 8.9476242 98.15344603 17.0625 93.375 C26.29706727 86.98693017 32.47552207 77.54458358 34.6171875 66.51953125 C36.26472016 54.88563836 35.18457296 43.79764061 28.25 34 C22.75883351 27.38314438 17.08029301 23.46575921 9.0625 20.375 C10.42375 19.6325 10.42375 19.6325 11.8125 18.875 C15.71935281 16.29203333 17.54171036 12.73161504 19.0625 8.375 C19.0625 7.385 19.0625 6.395 19.0625 5.375 C11.56250825 4.85775919 7.94411933 6.2658844 2.6875 11.9375 Z " fill="#EEDEAD" transform="translate(98.9375,49.625)"/>
<path d="M0 0 C1.19882813 -0.01611328 2.39765625 -0.03222656 3.6328125 -0.04882812 C25.5604331 -0.06071946 46.35858112 9.37783321 62.25 24.3125 C80.28493053 43.17816284 87.9060751 65.46747391 87.4296875 91.2890625 C86.77523642 113.14449675 77.3470715 131.74537316 62.25 147.3125 C61.71117187 147.92480469 61.17234375 148.53710938 60.6171875 149.16796875 C52.27635768 158.32611606 40.69000997 164.0672504 29.25 168.3125 C28.4751123 168.63984131 27.70022461 168.96718262 26.90185547 169.30444336 C9.03575176 176.09593132 -14.58884112 174.05842834 -31.85546875 166.58203125 C-53.77963785 156.51843602 -71.23676905 139.54462699 -79.85131836 116.90356445 C-87.96631554 94.23110734 -86.72189161 70.20730549 -76.75 48.3125 C-65.62747373 26.28989798 -47.71170241 11.8438928 -24.8828125 3.3203125 C-16.34696921 0.5743679 -8.97165838 -0.02381013 0 0 Z M-62.4375 33.125 C-75.16263212 47.69045106 -81.19581021 66.08905026 -81 85.25 C-80.99250732 86.22074463 -80.98501465 87.19148926 -80.97729492 88.19165039 C-80.87836109 94.76163031 -80.55071989 100.96259303 -78.75 107.3125 C-78.28980469 109.04113281 -78.28980469 109.04113281 -77.8203125 110.8046875 C-73.66463449 124.81935335 -66.06350831 135.98034158 -55.75 146.3125 C-55.15058594 146.92351562 -54.55117188 147.53453125 -53.93359375 148.1640625 C-38.85612675 162.42741141 -17.74871347 169.91189428 2.84204102 169.80200195 C26.24327849 168.88865955 47.15880243 158.43004196 63.23046875 141.60546875 C79.44463797 123.19595747 84.66682327 101.24873842 83.48193359 77.22949219 C82.95591717 70.61386674 81.42133113 64.58364713 79.25 58.3125 C78.899375 57.26320312 78.54875 56.21390625 78.1875 55.1328125 C71.38531712 36.94642077 56.63494432 20.93871225 39.25 12.3125 C26.14993324 6.52063502 14.71730728 4.133103 0.375 4.125 C-0.75808594 4.11275391 -1.89117187 4.10050781 -3.05859375 4.08789062 C-27.18656458 4.04595325 -46.22902161 16.01147967 -62.4375 33.125 Z " fill="#232313" transform="translate(98.75,12.6875)"/>
<path d="M0 0 C4.7057978 4.94021946 8.58897337 10.05414438 9.3125 17 C8.95009175 20.47911924 7.94317797 22.12121782 6 25 C5.484375 26.0725 4.96875 27.145 4.4375 28.25 C3 31 3 31 1 32 C-5.11111111 32.44444444 -5.11111111 32.44444444 -8 31 C-9.67752669 27.64494663 -8.65363227 24.62468805 -8 21 C-7.2575 20.731875 -6.515 20.46375 -5.75 20.1875 C-2.99558971 19.15373699 -2.99558971 19.15373699 -1.0625 17.375 C1.69938165 15.53374556 3.75307278 15.7786186 7 16 C6.34 15.01 5.68 14.02 5 13 C-0.33437602 13.26021346 -2.78091984 15.17768228 -6.484375 18.72265625 C-8 20 -8 20 -10 20 C-11.37310707 21.29233607 -12.71034824 22.62437146 -14 24 C-14.66 23.67 -15.32 23.34 -16 23 C-15.67 21.68 -15.34 20.36 -15 19 C-15.73476562 18.89816406 -16.46953125 18.79632813 -17.2265625 18.69140625 C-20.27245157 17.93207897 -21.89703584 16.82951956 -24.375 14.9375 C-28.38420693 12.14644944 -31.01853486 11.18669957 -36 12 C-36.66 12.66 -37.32 13.32 -38 14 C-36.2365625 14.0928125 -36.2365625 14.0928125 -34.4375 14.1875 C-29.51388254 14.76674911 -26.79820179 16.91396105 -23 20 C-25.46278801 21.231394 -27.2795055 21.07159196 -30 21 C-29.67 22.65 -29.34 24.3 -29 26 C-27.68 26 -26.36 26 -25 26 C-24.67 25.34 -24.34 24.68 -24 24 C-22.35 24 -20.7 24 -19 24 C-19.39143023 26.27029534 -19.88741278 27.83408198 -21.1875 29.75 C-23.96119756 31.66289487 -25.70822694 31.52668369 -29 31 C-32.71819473 28.27332387 -33.84499731 26.72732031 -34.8125 22.1875 C-34.874375 21.135625 -34.93625 20.08375 -35 19 C-35.33 19 -35.66 19 -36 19 C-35.84402344 19.77085938 -35.68804687 20.54171875 -35.52734375 21.3359375 C-35.33269531 22.33882812 -35.13804688 23.34171875 -34.9375 24.375 C-34.74027344 25.37273437 -34.54304688 26.37046875 -34.33984375 27.3984375 C-34 30 -34 30 -35 32 C-37.0625 32.625 -37.0625 32.625 -39 33 C-39 34.32 -39 35.64 -39 37 C-39.66 37 -40.32 37 -41 37 C-41 36.01 -41 35.02 -41 34 C-41.66 34 -42.32 34 -43 34 C-43.33 34.66 -43.66 35.32 -44 36 C-44.55685923 22.94474481 -44.55949351 11.89372007 -35.625 1.4375 C-25.26201721 -9.71277654 -11.39639456 -9.04565311 0 0 Z " fill="#5F7916" transform="translate(120,80)"/>
<path d="M0 0 C-0.4770795 5.00933477 -1.85582479 8.06978099 -5 12 C-6.64108141 13.04145551 -8.3050631 14.04870263 -10 15 C-9.21496094 15.35191406 -8.42992187 15.70382813 -7.62109375 16.06640625 C4.97366175 21.98516865 10.24160162 28.51451837 15.3125 41.3125 C16.84968489 49.5574008 16.75837835 58.04375261 14 66 C13.76667969 66.77730469 13.53335938 67.55460937 13.29296875 68.35546875 C9.95344001 78.19106711 3.2483136 85.44849523 -5.95703125 90.16015625 C-13.22674042 93.14866002 -21.79352921 93.27148998 -29.26953125 91.01171875 C-38.95594098 86.59750122 -46.46911855 79.21764133 -50.29296875 69.1953125 C-50.52628906 68.47085938 -50.75960937 67.74640625 -51 67 C-51.22300781 66.31679687 -51.44601563 65.63359375 -51.67578125 64.9296875 C-54.97472901 52.76622027 -53.47020418 41.35517271 -47.59765625 30.37890625 C-43.14311842 23.22332837 -37.18340959 19.22275966 -30 15 C-30.55429688 14.57589844 -31.10859375 14.15179688 -31.6796875 13.71484375 C-36.55282788 9.76950768 -38.98093613 7.24176621 -40 1 C-33.42881001 0.53248451 -29.23187291 0.5155375 -24 5 C-21.625 7.0625 -21.625 7.0625 -20 9 C-20 9.99 -20 10.98 -20 12 C-19.34 12 -18.68 12 -18 12 C-17.979375 11.29875 -17.95875 10.5975 -17.9375 9.875 C-16.55405081 5.63242249 -13.53279256 3.57820427 -10 1 C-6.78548731 -0.60725635 -3.56387464 -0.05748185 0 0 Z M-43.30859375 29.453125 C-46.10769994 33.6679454 -47.59865351 38.17050078 -49 43 C-49.33 43.99 -49.66 44.98 -50 46 C-51.13335021 58.70659942 -48.0654037 70.05105891 -40 80 C-33.82914703 85.94050679 -27.23633298 89.12745201 -18.625 89.4375 C-9.58096058 89.18886661 -3.37400079 86.10489914 3.2109375 79.9921875 C12.09903723 70.09495854 12.65229169 58.81983345 12.14355469 46.20214844 C11.58194451 37.58697193 8.13299605 31.02943702 2 25 C-4.02435191 20.26017932 -9.3833434 18.10451673 -17 18 C-17.80308594 17.9278125 -18.60617188 17.855625 -19.43359375 17.78125 C-29.60980557 17.14622898 -36.93005779 21.77310998 -43.30859375 29.453125 Z " fill="#1E1D0B" transform="translate(118,55)"/>
<path d="M0 0 C2.95946994 1.68283585 5.46669325 3.5764917 8.125 5.6875 C10.09801195 7.06860836 11.64599224 7.57964147 14 8 C14.33 7.01 14.66 6.02 15 5 C15 6.98 15 8.96 15 11 C15.99 11 16.98 11 18 11 C18.33 10.01 18.66 9.02 19 8 C20.31403276 7.29605388 21.6520257 6.63654342 23 6 C23.78375 5.319375 24.5675 4.63875 25.375 3.9375 C28.33050311 1.75605723 30.38474176 1.33630309 34 1 C34.66 2.32 35.32 3.64 36 5 C34.948125 5.268125 33.89625 5.53625 32.8125 5.8125 C29.12282957 6.96174161 25.77755561 8.22244439 23 11 C22.34 11.33 21.68 11.66 21 12 C21 14.31 21 16.62 21 19 C25.455 19.99 25.455 19.99 30 21 C29.67 22.32 29.34 23.64 29 25 C29.66 25.33 30.32 25.66 31 26 C30.75 27.875 30.75 27.875 30 30 C28.67087441 30.67501659 27.33654939 31.33980462 26 32 C23.45905792 33.9831743 21.00210148 36.0507833 18.53515625 38.125 C13.82309388 41.61003842 9.84751873 42.61552829 4 42 C-1.02365389 39.48817305 -4.44620441 35.9634253 -7 31 C-7.63600113 28.59628985 -7.84694153 26.499955 -8 24 C-8.99 24.33 -9.98 24.66 -11 25 C-10.49396008 22.83125748 -10.00016187 21.00032373 -9 19 C-8.01 18.67 -7.02 18.34 -6 18 C-6.66 14.7 -7.32 11.4 -8 8 C-7.01 8 -6.02 8 -5 8 C-4.9175 9.0725 -4.835 10.145 -4.75 11.25 C-3.93366666 15.3316667 -3.41620723 16.69175187 0 19 C3.26870461 19.4669578 5.09581759 19.65475278 7.8125 17.6875 C9.19455846 15.89523775 9.19455846 15.89523775 10 13 C8.35 13 6.7 13 5 13 C4.67 13.99 4.34 14.98 4 16 C2.35 15.67 0.7 15.34 -1 15 C-1 13.35 -1 11.7 -1 10 C-1.66 9.67 -2.32 9.34 -3 9 C-0.36 9 2.28 9 5 9 C-1.94448971 4.55443676 -1.94448971 4.55443676 -10 4 C-9.67 3.01 -9.34 2.02 -9 1 C-5.89046621 -0.5547669 -3.43733239 -0.28644437 0 0 Z " fill="#5F7916" transform="translate(91,91)"/>
<path d="M0 0 C1.49802971 1.14234501 2.97770513 2.30918344 4.4375 3.5 C5.27152344 4.1290625 6.10554688 4.758125 6.96484375 5.40625 C15.58366221 12.70433325 19.94652338 23.02707015 23.4375 33.5 C23.52041953 35.4920303 23.54488177 37.48673713 23.53515625 39.48046875 C23.53032227 41.22553711 23.53032227 41.22553711 23.52539062 43.00585938 C23.51282227 44.82827148 23.51282227 44.82827148 23.5 46.6875 C23.49548828 47.91404297 23.49097656 49.14058594 23.48632812 50.40429688 C23.47453065 53.43624668 23.45806921 56.46809906 23.4375 59.5 C24.0975 58.84 24.7575 58.18 25.4375 57.5 C26.4275 57.5 27.4175 57.5 28.4375 57.5 C28.94360724 63.57328688 27.47907942 67.27228537 24.4375 72.5 C24.1075 72.5 23.7775 72.5 23.4375 72.5 C23.7675 69.53 24.0975 66.56 24.4375 63.5 C22.7875 64.49 21.1375 65.48 19.4375 66.5 C19.37691406 65.51257813 19.31632812 64.52515625 19.25390625 63.5078125 C19.17011719 62.22648437 19.08632812 60.94515625 19 59.625 C18.91878906 58.34882812 18.83757812 57.07265625 18.75390625 55.7578125 C18.64543973 52.61699848 18.64543973 52.61699848 17.4375 50.5 C16.1175 51.49 14.7975 52.48 13.4375 53.5 C14.05288462 46.97692308 14.05288462 46.97692308 16 44.5625 C16.474375 44.211875 16.94875 43.86125 17.4375 43.5 C18.0975 44.49 18.7575 45.48 19.4375 46.5 C20.15116916 32.59666756 16.23604398 21.91508099 7.25 11.3125 C-0.93510533 2.54177149 -11.93183368 -3.18207549 -23.96875 -3.7734375 C-40.32727118 -4.23467098 -51.60174697 -0.87266429 -63.6796875 10.4921875 C-72.36981045 19.44465378 -77.60004769 31.55681991 -77.6875 44.0625 C-77.64625 45.196875 -77.605 46.33125 -77.5625 47.5 C-76.2425 46.18 -74.9225 44.86 -73.5625 43.5 C-70.05656512 50.07362789 -69.25384314 56.71663356 -71.2421875 63.984375 C-71.93817899 65.8536093 -72.73971121 67.68300808 -73.5625 69.5 C-72.5725 69.83 -71.5825 70.16 -70.5625 70.5 C-70.5625 73.14 -70.5625 75.78 -70.5625 78.5 C-73.09671969 75.2988804 -75.18747587 71.89867811 -77.28125 68.40234375 C-78.54849071 66.52080038 -79.9078625 65.04400767 -81.5625 63.5 C-81.2625013 68.29997919 -78.81987339 71.10671567 -75.9375 74.73046875 C-74.5625 76.5 -74.5625 76.5 -73.5625 78.5 C-79.04566267 76.93338209 -81.82926746 73.39467703 -84.69921875 68.6015625 C-85.70207836 66.16021196 -85.764779 64.37748616 -85.6875 61.75 C-85.66042969 60.55117187 -85.66042969 60.55117187 -85.6328125 59.328125 C-85.59800781 58.42320313 -85.59800781 58.42320313 -85.5625 57.5 C-83.9125 58.16 -82.2625 58.82 -80.5625 59.5 C-80.7275 58.46875 -80.8925 57.4375 -81.0625 56.375 C-83.06466975 39.43126497 -79.8181663 25.42726525 -70.078125 11.35546875 C-53.67821581 -9.22560541 -22.06455984 -15.04401807 0 0 Z " fill="#272615" transform="translate(128.5625,54.5)"/>
<path d="M0 0 C2.57619276 1.91315119 2.98395232 2.9016314 3.51171875 6.13671875 C3.56972656 7.30847656 3.62773437 8.48023437 3.6875 9.6875 C3.78611328 11.45673828 3.78611328 11.45673828 3.88671875 13.26171875 C3.92410156 14.16535156 3.96148437 15.06898437 4 16 C5.65 15.01 7.3 14.02 9 13 C8.91245449 14.75091019 8.80426627 16.50079551 8.6875 18.25 C8.62949219 19.22453125 8.57148438 20.1990625 8.51171875 21.203125 C7.95363476 24.25341611 7.03630224 25.70711276 5 28 C6.65 28 8.3 28 10 28 C8.16433569 34.52680643 3.3040341 39.65947107 -2.4375 43 C-3.7059375 43.495 -3.7059375 43.495 -5 44 C-4.67 44.66 -4.34 45.32 -4 46 C-5.485 46.495 -5.485 46.495 -7 47 C-7 47.66 -7 48.32 -7 49 C-11.55426184 51.66590937 -14.73946963 52.31563182 -20 52 C-20.495 50.515 -20.495 50.515 -21 49 C-20.34 48.34 -19.68 47.68 -19 47 C-19.99 46.34 -20.98 45.68 -22 45 C-21.06253955 41.89916929 -20.12912083 39.21175817 -18.4375 36.4375 C-16.94564512 33.90783303 -16.4124301 31.88701072 -16 29 C-14.68 28.67 -13.36 28.34 -12 28 C-12 31.63 -12 35.26 -12 39 C-10.83885567 36.67771133 -10.84661819 35.22693461 -10.7890625 32.640625 C-10.76070312 31.77179688 -10.73234375 30.90296875 -10.703125 30.0078125 C-10.65148979 28.18508957 -10.6070894 26.36214575 -10.5703125 24.5390625 C-10.38457108 19.29186732 -9.8389009 15.58474905 -7 11 C-6.01 11.33 -5.02 11.66 -4 12 C-3.896875 10.7625 -3.79375 9.525 -3.6875 8.25 C-3.26198318 4.7207134 -2.51887408 2.62839034 0 0 Z " fill="#2B2812" transform="translate(145,104)"/>
<path d="M0 0 C-0.58007812 0.28488281 -1.16015625 0.56976563 -1.7578125 0.86328125 C-10.52237111 5.30663762 -16.70805903 10.00250403 -20.375 19.375 C-23.67124746 30.47375727 -23.55667265 42.07434894 -18.40625 52.546875 C-14.43246265 59.47892627 -9.71452789 63.50349306 -2 66 C5.26039299 66.91700276 11.98320009 65.87114664 19 64 C14.90748073 68.94512745 10.12363215 70.6329832 3.94140625 71.359375 C-5.64730288 71.76596337 -11.46257578 69.05403553 -19.25 63.8125 C-27.43597402 55.44048111 -30.9208967 45.08191267 -31.4375 33.5 C-31.11983869 23.92872657 -27.7136127 14.88260524 -21 8 C-14.19795695 2.01313303 -9.04414879 -0.30658131 0 0 Z " fill="#435F0E" transform="translate(99,73)"/>
<path d="M0 0 C1 3 1 3 0.00390625 5.19140625 C-0.70958984 6.36509766 -0.70958984 6.36509766 -1.4375 7.5625 C-3.41929895 10.58008306 -3.41929895 10.58008306 -4 14 C-2.54166642 15.62514468 -2.54166642 15.62514468 -1 17 C-1.99 17.495 -1.99 17.495 -3 18 C-2.34 18.66 -1.68 19.32 -1 20 C2.75425503 19.65238379 6.36950856 19.0165376 10 18 C10 17.34 10 16.68 10 16 C6.7 16 3.4 16 0 16 C0 15.67 0 15.34 0 15 C4.95 15 9.9 15 15 15 C12.25437494 20.49125012 8.71919913 22.07296267 3 24 C-0.71489611 24.37849885 -4.28314573 24.31798183 -8 24 C-6.35 24.99 -4.7 25.98 -3 27 C-3.66 28.32 -4.32 29.64 -5 31 C-15.97592998 31.63019694 -15.97592998 31.63019694 -20.25 29 C-20.8275 28.34 -21.405 27.68 -22 27 C-22.33 27.33 -22.66 27.66 -23 28 C-22.505 28.433125 -22.01 28.86625 -21.5 29.3125 C-20 31 -20 31 -20 34 C-21.9375 33.6875 -21.9375 33.6875 -24 33 C-24.33 32.01 -24.66 31.02 -25 30 C-27.33165034 29.66501699 -27.33165034 29.66501699 -30 30 C-32.18777466 31.9375006 -32.18777466 31.9375006 -34 34 C-34.66 34 -35.32 34 -36 34 C-35.43628586 30.73045798 -34.50037734 29.17424117 -32 27 C-34.9719385 28.12451727 -37.33440687 29.22293791 -40 31 C-42.33199388 31.07905064 -44.66832622 31.08798769 -47 31 C-44.06279492 29.47700477 -41.0831351 28.19899698 -38 27 C-38 26.34 -38 25.68 -38 25 C-39.65 25 -41.3 25 -43 25 C-43.33 24.01 -43.66 23.02 -44 22 C-44.99 21.67 -45.98 21.34 -47 21 C-44 19 -44 19 -41.5625 19.25 C-39.18047686 19.94717751 -37.16453858 20.79747857 -35 22 C-34.67 21.01 -34.34 20.02 -34 19 C-33.608125 19.66 -33.21625 20.32 -32.8125 21 C-31.1788656 23.20080311 -31.1788656 23.20080311 -28.703125 23.4609375 C-24.73788185 22.78478332 -23.47067296 20.67107197 -20.9375 17.625 C-15.57986468 11.23546265 -15.57986468 11.23546265 -12 10 C-11.01 10 -10.02 10 -9 10 C-9.33 12.31 -9.66 14.62 -10 17 C-8.91829146 14.85153741 -7.85499638 12.69707165 -6.81640625 10.52734375 C-6.19572266 9.24537109 -6.19572266 9.24537109 -5.5625 7.9375 C-4.94568359 6.65166016 -4.94568359 6.65166016 -4.31640625 5.33984375 C-3.07873685 3.13995066 -1.87430642 1.66665731 0 0 Z " fill="#1F1E0C" transform="translate(128,135)"/>
<path d="M0 0 C0.33 0 0.66 0 1 0 C1.14695312 0.75023438 1.29390625 1.50046875 1.4453125 2.2734375 C4.15670292 14.64610411 9.3384441 23.35407285 20.01953125 30.31640625 C27.36110527 34.22555605 35.85864866 34.19516971 43.83984375 32.33984375 C53.06755986 29.05540242 59.63788694 22.67446818 64 14 C66.06504563 9.41196975 67.37307021 5.01543835 68 0 C69.32 0.66 70.64 1.32 72 2 C71.84273438 2.77988281 71.68546875 3.55976562 71.5234375 4.36328125 C70.73264144 9.85754342 70.6813005 15.37448579 70.5703125 20.91992188 C70.539375 21.78552734 70.5084375 22.65113281 70.4765625 23.54296875 C70.45674316 24.32696045 70.43692383 25.11095215 70.41650391 25.91870117 C70 28 70 28 67 31 C67.33 27.04 67.66 23.08 68 19 C59.92732393 23.03633804 56.89637128 31.83904799 54 40 C53.01 40 52.02 40 51 40 C51.99 37.36 52.98 34.72 54 32 C47.23560962 34.70575615 43.68355544 38.25041981 39.17578125 43.953125 C37 46 37 46 34.43359375 46.55859375 C31.1707031 45.80964774 30.54523579 44.59148874 28.75 41.8125 C25.14138944 36.76203842 21.56486151 34.65401088 16 32 C16.66 34.97 17.32 37.94 18 41 C16.515 40.505 16.515 40.505 15 40 C14.04296875 37.77734375 14.04296875 37.77734375 13.1875 34.9375 C10.93960384 28.29756056 7.90367899 22.935786 2 19 C2 22.63 2 26.26 2 30 C1.34 29.67 0.68 29.34 0 29 C-0.06058594 27.68644531 -0.12117188 26.37289062 -0.18359375 25.01953125 C-0.26803256 23.28384459 -0.35267888 21.54816802 -0.4375 19.8125 C-0.47681641 18.94818359 -0.51613281 18.08386719 -0.55664062 17.19335938 C-0.72854062 13.74213642 -0.90812253 10.45455168 -1.59375 7.0625 C-2.15094169 4.23368064 -1.23372461 2.54002125 0 0 Z " fill="#E6D7A8" transform="translate(65,113)"/>
<path d="M0 0 C11.10824642 0.9256872 19.97229948 7.28790045 27.23828125 15.54296875 C33.73137522 24.01700664 39.1505451 34.1382547 39.09765625 44.98046875 C39.09443359 46.14384766 39.09121094 47.30722656 39.08789062 48.50585938 C39.07532227 50.32827148 39.07532227 50.32827148 39.0625 52.1875 C39.05798828 53.41404297 39.05347656 54.64058594 39.04882812 55.90429688 C39.03703065 58.93624668 39.02056921 61.96809906 39 65 C39.66 64.34 40.32 63.68 41 63 C41.99 63 42.98 63 44 63 C44.50610724 69.07328688 43.04157942 72.77228537 40 78 C39.67 78 39.34 78 39 78 C39.33 75.03 39.66 72.06 40 69 C38.35 69.99 36.7 70.98 35 72 C34.93941406 71.01257813 34.87882812 70.02515625 34.81640625 69.0078125 C34.73261719 67.72648437 34.64882812 66.44515625 34.5625 65.125 C34.48128906 63.84882812 34.40007812 62.57265625 34.31640625 61.2578125 C34.20793973 58.11699848 34.20793973 58.11699848 33 56 C31.68 56.99 30.36 57.98 29 59 C29.61538462 52.47692308 29.61538462 52.47692308 31.5625 50.0625 C32.036875 49.711875 32.51125 49.36125 33 49 C33.66 49.99 34.32 50.98 35 52 C35.71366916 38.09666756 31.79854398 27.41508099 22.8125 16.8125 C16.11113016 9.64436808 7.97213346 5.68420939 -1 2 C-0.67 1.34 -0.34 0.68 0 0 Z " fill="#292715" transform="translate(113,49)"/>
<path d="M0 0 C1.32 0.66 2.64 1.32 4 2 C2.63875 3.3921875 2.63875 3.3921875 1.25 4.8125 C-2.65266286 9.32408898 -4.25370306 14.37602832 -6 20 C-6.33 20.99 -6.66 21.98 -7 23 C-8.03229836 34.57365279 -5.58148505 44.96484292 0.96875 54.58203125 C5.73902015 60.26048745 12.5781418 64.50740958 20.015625 65.3359375 C30.42149656 65.46161228 37.04386176 63.37891218 44.58984375 56.171875 C46 55 46 55 48 55 C47.25378419 59.27461893 45.43968041 60.90160105 42.1328125 63.5390625 C34.0821728 69.05360325 25.61745659 70.36327181 16 69 C6.11113608 65.95361111 -1.15032904 59.53676322 -6.37109375 50.671875 C-7.42015359 48.47384485 -8.25370401 46.31722843 -9 44 C-9.22300781 43.31679687 -9.44601563 42.63359375 -9.67578125 41.9296875 C-12.57978229 31.22241836 -12.11658392 19.89402827 -7 10 C-4.82338686 6.53699451 -2.49947041 3.23667376 0 0 Z " fill="#1F1F0C" transform="translate(76,78)"/>
<path d="M0 0 C1.65 0 3.3 0 5 0 C5 0.99 5 1.98 5 3 C16.11024528 8.80890997 24.78751492 10.6185141 37 7 C36.505 6.01 36.505 6.01 36 5 C37.65 5 39.3 5 41 5 C40.75 6.875 40.75 6.875 40 9 C38.67087441 9.67501659 37.33654939 10.33980462 36 11 C33.45905792 12.9831743 31.00210148 15.0507833 28.53515625 17.125 C23.82309388 20.61003842 19.84751873 21.61552829 14 21 C8.97634611 18.48817305 5.55379559 14.9634253 3 10 C2.36399887 7.59628985 2.15305847 5.499955 2 3 C1.01 3.33 0.02 3.66 -1 4 C-0.67 2.68 -0.34 1.36 0 0 Z " fill="#1D1D09" transform="translate(81,112)"/>
<path d="M0 0 C0.33 0.66 0.66 1.32 1 2 C2.134375 1.896875 3.26875 1.79375 4.4375 1.6875 C9.73055424 1.65914435 13.77732486 3.95080351 18 7 C18.33 7.66 18.66 8.32 19 9 C16.69 9 14.38 9 12 9 C12.33 10.65 12.66 12.3 13 14 C14.32 14 15.64 14 17 14 C17.33 13.34 17.66 12.68 18 12 C19.65 12 21.3 12 23 12 C22.60856977 14.27029534 22.11258722 15.83408198 20.8125 17.75 C18.03880244 19.66289487 16.29177306 19.52668369 13 19 C9.28180527 16.27332387 8.15500269 14.72732031 7.1875 10.1875 C7.125625 9.135625 7.06375 8.08375 7 7 C6.67 7 6.34 7 6 7 C6.15597656 7.77085938 6.31195313 8.54171875 6.47265625 9.3359375 C6.66730469 10.33882812 6.86195312 11.34171875 7.0625 12.375 C7.25972656 13.37273437 7.45695312 14.37046875 7.66015625 15.3984375 C8 18 8 18 7 20 C4.9375 20.625 4.9375 20.625 3 21 C3 22.32 3 23.64 3 25 C2.34 25 1.68 25 1 25 C1 24.01 1 23.02 1 22 C0.34 22 -0.32 22 -1 22 C-1.33 22.66 -1.66 23.32 -2 24 C-2.0544207 21.31222198 -2.09387266 18.62556788 -2.125 15.9375 C-2.14175781 15.18533203 -2.15851563 14.43316406 -2.17578125 13.65820312 C-2.21865121 8.70672291 -1.58399375 4.69585549 0 0 Z " fill="#5D7616" transform="translate(78,92)"/>
<path d="M0 0 C2.75329021 1.79562405 4.52627461 3.05254922 6 6 C6.34572176 9.01271822 6.57706364 11.09248705 6 14 C3.4375 17.0625 3.4375 17.0625 0 19 C-4.36959504 19.15331912 -6.3663781 18.44488346 -9.9375 15.9375 C-12.25406743 12.63814638 -12.7570827 10.88485588 -12.48046875 6.9375 C-10.87278432 0.45447986 -5.98096831 -0.96122705 0 0 Z " fill="#20200F" transform="translate(47,52)"/>
<path d="M0 0 C5.01243959 3.84380901 8.1686587 7.3373174 11 13 C11 11.35 11 9.7 11 8 C10.34 7.67 9.68 7.34 9 7 C9.33 6.34 9.66 5.68 10 5 C10.99 5 11.98 5 13 5 C13.66 4.34 14.32 3.68 15 3 C17.05722588 8.16815281 17.41513319 12.8922296 17.625 18.375 C17.66367187 19.20644531 17.70234375 20.03789062 17.7421875 20.89453125 C17.83574246 22.92935156 17.91892713 24.96464416 18 27 C13.390625 28.21875 13.390625 28.21875 9.875 26.25 C5.48351648 22.81318681 5.48351648 22.81318681 4 21 C4 20.34 4 19.68 4 19 C5.65 19 7.3 19 9 19 C8.01 18.34 7.02 17.68 6 17 C6.33 16.34 6.66 15.68 7 15 C6.38125 14.2265625 6.38125 14.2265625 5.75 13.4375 C0 5.42857143 0 5.42857143 0 0 Z " fill="#3C3413" transform="translate(46,117)"/>
<path d="M0 0 C2.95946994 1.68283585 5.46669325 3.5764917 8.125 5.6875 C10.09801195 7.06860836 11.64599224 7.57964147 14 8 C14.33 7.01 14.66 6.02 15 5 C15.76375498 10.95728887 13.36658396 15.25833245 10 20 C6.28391277 22.47739149 3.30577769 22.63913888 -1 22 C-3.875 20.625 -3.875 20.625 -6 18 C-6.9877646 14.70055593 -7.56361481 11.41292296 -8 8 C-7.01 8 -6.02 8 -5 8 C-4.9175 9.0725 -4.835 10.145 -4.75 11.25 C-3.93366666 15.3316667 -3.41620723 16.69175187 0 19 C3.26870461 19.4669578 5.09581759 19.65475278 7.8125 17.6875 C9.19455846 15.89523775 9.19455846 15.89523775 10 13 C8.35 13 6.7 13 5 13 C4.67 13.99 4.34 14.98 4 16 C2.35 15.67 0.7 15.34 -1 15 C-1 13.35 -1 11.7 -1 10 C-1.66 9.67 -2.32 9.34 -3 9 C-0.36 9 2.28 9 5 9 C-1.94448971 4.55443676 -1.94448971 4.55443676 -10 4 C-9.67 3.01 -9.34 2.02 -9 1 C-5.89046621 -0.5547669 -3.43733239 -0.28644437 0 0 Z " fill="#1E1F0A" transform="translate(91,91)"/>
<path d="M0 0 C1.20205078 -0.00322266 2.40410156 -0.00644531 3.64257812 -0.00976562 C10.63743637 0.03221116 17.14715219 0.60636774 23.9375 2.3125 C16.46946534 7.29118977 5.18981866 5.34780926 -3.41992188 5.18554688 C-9.9442831 5.1210244 -15.7848289 5.5065282 -22.0625 7.3125 C-23.58037109 7.73402344 -23.58037109 7.73402344 -25.12890625 8.1640625 C-25.95261719 8.41929688 -26.77632813 8.67453125 -27.625 8.9375 C-28.47191406 9.19789062 -29.31882812 9.45828125 -30.19140625 9.7265625 C-30.80886719 9.91992188 -31.42632812 10.11328125 -32.0625 10.3125 C-32.0625 9.6525 -32.0625 8.9925 -32.0625 8.3125 C-32.7225 7.9825 -33.3825 7.6525 -34.0625 7.3125 C-22.72575634 1.79808395 -12.60648953 -0.16953321 0 0 Z " fill="#272616" transform="translate(99.0625,12.6875)"/>
<path d="M0 0 C2.9375 0.75 2.9375 0.75 6 2 C7.81818508 5.37662944 7.06239789 10.25612637 7 14 C7.66 14 8.32 14 9 14 C9.66 10.7 10.32 7.4 11 4 C12.65 4.66 14.3 5.32 16 6 C16 6.66 16 7.32 16 8 C15.56042969 8.40863281 15.12085938 8.81726562 14.66796875 9.23828125 C12.40873422 11.62449852 11.52300322 14.14488379 10.3125 17.1875 C9.87550781 18.27417969 9.43851563 19.36085938 8.98828125 20.48046875 C8.66214844 21.31191406 8.33601562 22.14335938 8 23 C6.68 22.67 5.36 22.34 4 22 C3.34 18.04 2.68 14.08 2 10 C-0.76223278 12.76223278 -0.57856291 15.20706617 -1 19 C-2.98 18.67 -4.96 18.34 -7 18 C-7 17.34 -7 16.68 -7 16 C-6.34 16 -5.68 16 -5 16 C-4.80664062 15.34773438 -4.61328125 14.69546875 -4.4140625 14.0234375 C-3.01359552 9.3228602 -1.58791274 4.64159109 0 0 Z " fill="#222110" transform="translate(121,25)"/>
<path d="M0 0 C2.57619276 1.91315119 2.98395232 2.9016314 3.51171875 6.13671875 C3.56972656 7.30847656 3.62773437 8.48023437 3.6875 9.6875 C3.78611328 11.45673828 3.78611328 11.45673828 3.88671875 13.26171875 C3.92410156 14.16535156 3.96148437 15.06898437 4 16 C5.65 15.01 7.3 14.02 9 13 C8.57576756 14.46224799 8.13509755 15.91973412 7.6875 17.375 C7.32205078 18.59316406 7.32205078 18.59316406 6.94921875 19.8359375 C6 22 6 22 3 24 C2.01 24 1.02 24 0 24 C0 22.35 0 20.7 0 19 C-0.45375 20.2375 -0.9075 21.475 -1.375 22.75 C-2.4384007 25.59245495 -3.55192483 28.32663046 -5 31 C-5.99 30.67 -6.98 30.34 -8 30 C-8.1799928 24.78020872 -7.97094808 20.92737019 -6 16 C-5.34 16.66 -4.68 17.32 -4 18 C-3.96261719 17.03578125 -3.92523438 16.0715625 -3.88671875 15.078125 C-3.82097656 13.81484375 -3.75523437 12.5515625 -3.6875 11.25 C-3.62949219 9.99703125 -3.57148438 8.7440625 -3.51171875 7.453125 C-2.99544099 3.96923537 -2.3746744 2.52110204 0 0 Z " fill="#2F2C16" transform="translate(145,104)"/>
<path d="M0 0 C0.33 0 0.66 0 1 0 C1.02916504 0.63276855 1.05833008 1.26553711 1.08837891 1.91748047 C2.16288115 22.91014096 5.83483132 38.78948767 18 56 C18.33 56.66 18.66 57.32 19 58 C18.01 58.99 17.02 59.98 16 61 C0.94562367 41.14103547 -3.18056622 24.31938877 0 0 Z " fill="#272716" transform="translate(17,93)"/>
<path d="M0 0 C0.02692484 2.29160319 0.04636124 4.58329546 0.0625 6.875 C0.07410156 8.15117187 0.08570313 9.42734375 0.09765625 10.7421875 C0 14 0 14 -1 16 C1.64 15.67 4.28 15.34 7 15 C7.33 15.99 7.66 16.98 8 18 C7.01 18.33 6.02 18.66 5 19 C5 19.66 5 20.32 5 21 C0.44573816 23.66590937 -2.73946963 24.31563182 -8 24 C-8.33 23.01 -8.66 22.02 -9 21 C-8.34 20.34 -7.68 19.68 -7 19 C-7.99 18.34 -8.98 17.68 -10 17 C-9.06253955 13.89916929 -8.12912083 11.21175817 -6.4375 8.4375 C-4.94234283 5.9022335 -4.5553261 3.85596281 -4 1 C-2 0 -2 0 0 0 Z " fill="#3F391D" transform="translate(133,132)"/>
<path d="M0 0 C0.66 0 1.32 0 2 0 C2.35368021 7.12600133 1.95671348 12.47059106 -1 19 C-0.01 19.33 0.98 19.66 2 20 C2 22.64 2 25.28 2 28 C-0.53421969 24.7988804 -2.62497587 21.39867811 -4.71875 17.90234375 C-5.98599071 16.02080038 -7.3453625 14.54400767 -9 13 C-8.7000013 17.79997919 -6.25737339 20.60671567 -3.375 24.23046875 C-2 26 -2 26 -1 28 C-6.48316267 26.43338209 -9.26676746 22.89467703 -12.13671875 18.1015625 C-13.13957836 15.66021196 -13.202279 13.87748616 -13.125 11.25 C-13.10695312 10.45078125 -13.08890625 9.6515625 -13.0703125 8.828125 C-13.04710937 8.22484375 -13.02390625 7.6215625 -13 7 C-11 8 -9 9 -7 10 C-7 8.02 -7 6.04 -7 4 C-6.34 4 -5.68 4 -5 4 C-4.67 6.31 -4.34 8.62 -4 11 C-3.34 10.01 -2.68 9.02 -2 8 C-1.67 8.66 -1.34 9.32 -1 10 C-0.67 6.7 -0.34 3.4 0 0 Z " fill="#21200C" transform="translate(56,105)"/>
<path d="M0 0 C0.33 0.66 0.66 1.32 1 2 C1.66 2 2.32 2 3 2 C2.855625 2.70125 2.71125 3.4025 2.5625 4.125 C1.43902645 9.86719815 0.7793285 15.15220515 1 21 C2.32 19.68 3.64 18.36 5 17 C7.29010626 20.59873841 7.14114105 23.37589874 6.8125 27.5625 C6.73644531 28.69816406 6.66039062 29.83382812 6.58203125 31.00390625 C5.97824248 34.11200013 5.47621634 35.12448304 3 37 C1 35 1 35 0.875 31.375 C0.91625 30.26125 0.9575 29.1475 1 28 C0.34 28 -0.32 28 -1 28 C-1 29.98 -1 31.96 -1 34 C-1.66 33.67 -2.32 33.34 -3 33 C-3.61916858 9.00483611 -3.61916858 9.00483611 0 0 Z " fill="#2B2813" transform="translate(50,81)"/>
<path d="M0 0 C1 3 1 3 0.00390625 5.19140625 C-0.47175781 5.97386719 -0.94742188 6.75632813 -1.4375 7.5625 C-3.41929895 10.58008306 -3.41929895 10.58008306 -4 14 C-2.54166642 15.62514468 -2.54166642 15.62514468 -1 17 C-1.66 17.33 -2.32 17.66 -3 18 C-2.34 18.66 -1.68 19.32 -1 20 C2.75425503 19.65238379 6.36950856 19.0165376 10 18 C10 17.34 10 16.68 10 16 C6.7 16 3.4 16 0 16 C0 15.67 0 15.34 0 15 C4.95 15 9.9 15 15 15 C12.60099161 19.79801678 10.83609754 20.7783166 6.15234375 23.02734375 C0.20084623 24.86367941 -5.83064667 24.3701612 -12 24 C-12 23.34 -12 22.68 -12 22 C-11.34 22 -10.68 22 -10 22 C-9.87109375 21.28714844 -9.7421875 20.57429688 -9.609375 19.83984375 C-7.96609439 12.18173474 -5.49405302 5.6466656 0 0 Z " fill="#201F0E" transform="translate(128,135)"/>
<path d="M0 0 C0.66 0 1.32 0 2 0 C2.64910154 1.58199631 3.29414694 3.16565724 3.9375 4.75 C4.29714844 5.63171875 4.65679687 6.5134375 5.02734375 7.421875 C8.31233593 16.1290832 8.08845518 26.23780975 5 35 C4.70867187 35.84691406 4.41734375 36.69382813 4.1171875 37.56640625 C2.40986253 42.18424978 0.98481059 45.86907739 -3 49 C-3.75 47.4375 -3.75 47.4375 -4 45 C-3.08565245 43.29742181 -2.16594973 41.5921689 -1.10546875 39.9765625 C2.02463675 34.37997811 2.35177082 29.12716361 2.3125 22.875 C2.31193604 22.03984863 2.31137207 21.20469727 2.31079102 20.34423828 C2.22163 14.30110245 1.3637283 8.84716371 -0.44140625 3.0546875 C-0.62574219 2.37664062 -0.81007813 1.69859375 -1 1 C-0.67 0.67 -0.34 0.34 0 0 Z " fill="#23240D" transform="translate(127,86)"/>
<path d="M0 0 C0.99 0.33 1.98 0.66 3 1 C3.33 3.64 3.66 6.28 4 9 C3.01 8.34 2.02 7.68 1 7 C0.34 11.62 -0.32 16.24 -1 21 C-0.01 21.33 0.98 21.66 2 22 C1.01 24.475 1.01 24.475 0 27 C0.66 27.66 1.32 28.32 2 29 C6.85920778 26.47694981 9.67168615 24.4377518 13 20 C13.66 20 14.32 20 15 20 C13.62387538 25.198693 10.45342502 28.22394787 6 31 C2.00949521 32.39634579 -1.7810135 33 -6 33 C-5.67902344 32.05253906 -5.35804688 31.10507813 -5.02734375 30.12890625 C-3.45088765 24.61754919 -3.60983648 18.98732182 -3.52148438 13.29492188 C-3.3608412 8.11907715 -2.78990172 4.53080039 0 0 Z " fill="#1F1E0B" transform="translate(138,115)"/>
<path d="M0 0 C4.62 0 9.24 0 14 0 C14 1.65 14 3.3 14 5 C13.34 5 12.68 5 12 5 C12 4.34 12 3.68 12 3 C10.02 3 8.04 3 6 3 C6 4.65 6 6.3 6 8 C7.98 7.67 9.96 7.34 12 7 C12 8.65 12 10.3 12 12 C10.35 11.67 8.7 11.34 7 11 C7 12.65 7 14.3 7 16 C9.64 15.34 12.28 14.68 15 14 C15 15.65 15 17.3 15 19 C10.38 19 5.76 19 1 19 C1.33 13.39 1.66 7.78 2 2 C1.34 2 0.68 2 0 2 C0 1.34 0 0.68 0 0 Z " fill="#202010" transform="translate(91,22)"/>
<path d="M0 0 C-0.33 6.6 -0.66 13.2 -1 20 C-2.65 20.33 -4.3 20.66 -6 21 C-7.67879508 18.92548894 -9.34280351 16.84165071 -11 14.75 C-11.47695312 14.16347656 -11.95390625 13.57695313 -12.4453125 12.97265625 C-15.07919895 9.62385776 -16 8.39260489 -16 4 C-14.35 3.67 -12.7 3.34 -11 3 C-10.73445313 3.54269531 -10.46890625 4.08539063 -10.1953125 4.64453125 C-9.84210938 5.35996094 -9.48890625 6.07539063 -9.125 6.8125 C-8.60292969 7.87404297 -8.60292969 7.87404297 -8.0703125 8.95703125 C-6.9343514 11.21246418 -6.9343514 11.21246418 -5 14 C-5 9.71 -5 5.42 -5 1 C-3 0 -3 0 0 0 Z " fill="#21200F" transform="translate(87,23)"/>
<path d="M0 0 C1.32 0.66 2.64 1.32 4 2 C-2.04769657 15.11594193 -9.51918772 24.95588823 -20 35 C-20.33 34.34 -20.66 33.68 -21 33 C-21.66 32.67 -22.32 32.34 -23 32 C-22.35933594 31.39414063 -21.71867188 30.78828125 -21.05859375 30.1640625 C-11.68379763 21.08266537 -5.53098104 11.79132222 0 0 Z " fill="#262616" transform="translate(176,130)"/>
<path d="M0 0 C-0.34014804 7.95946422 -0.34014804 7.95946422 -2.625 11.5625 C-5.93749477 13.56743105 -8.19992594 13.48364579 -12 13 C-14 12 -14 12 -15 10 C-14.92916024 7.23724924 -14.4936818 4.73769 -14 2 C-9.36441729 0.45480576 -4.87506677 0 0 0 Z " fill="#242411" transform="translate(126,99)"/>
<path d="M0 0 C-0.47610659 4.99911924 -2.03162219 7.97832683 -5 12 C-5.556875 11.79375 -6.11375 11.5875 -6.6875 11.375 C-9.08755344 10.77480868 -9.08755344 10.77480868 -11.5 12.0625 C-14 13 -14 13 -16.3125 12.125 C-16.869375 11.75375 -17.42625 11.3825 -18 11 C-16.56314642 5.97101246 -14.05763331 4.04322498 -10 1 C-6.78548731 -0.60725635 -3.56387464 -0.05748185 0 0 Z " fill="#1E1E0B" transform="translate(118,55)"/>
<path d="M0 0 C1.46573934 0.90477737 2.92235756 1.82434141 4.375 2.75 C5.59316406 3.51570313 5.59316406 3.51570313 6.8359375 4.296875 C9.08555679 6.0673335 9.95906848 7.36907419 11 10 C10.01 10.99 9.02 11.98 8 13 C7.01 11.35 6.02 9.7 5 8 C4.01 8.33 3.02 8.66 2 9 C2 9.66 2 10.32 2 11 C3.32 11.33 4.64 11.66 6 12 C4.25 15.875 4.25 15.875 2 17 C0.68 15.68 -0.64 14.36 -2 13 C-2.66 15.31 -3.32 17.62 -4 20 C-7.16115776 18.63016497 -7.9927092 18.0109362 -10 15 C-9.443125 14.484375 -8.88625 13.96875 -8.3125 13.4375 C-4.50866458 9.42805185 -1.10107618 5.51748062 0 0 Z " fill="#222110" transform="translate(141,34)"/>
<path d="M0 0 C1.32 0.66 2.64 1.32 4 2 C3.76410156 3.16982422 3.76410156 3.16982422 3.5234375 4.36328125 C2.73264144 9.85754342 2.6813005 15.37448579 2.5703125 20.91992188 C2.52390625 22.21833008 2.52390625 22.21833008 2.4765625 23.54296875 C2.45674316 24.32696045 2.43692383 25.11095215 2.41650391 25.91870117 C2 28 2 28 -1 31 C-0.67 27.04 -0.34 23.08 0 19 C-4.07353188 21.03676594 -4.8481233 21.82838731 -7.125 25.5 C-8.65836381 27.94702618 -9.95347537 29.95347537 -12 32 C-11.67 30.35 -11.34 28.7 -11 27 C-11.66 26.67 -12.32 26.34 -13 26 C-12.32904297 25.34257812 -12.32904297 25.34257812 -11.64453125 24.671875 C-4.94861051 17.64758288 -1.33935567 9.60346512 0 0 Z " fill="#E0D2A5" transform="translate(133,113)"/>
<path d="M0 0 C4.98704856 -0.35480978 8.82919691 -0.58540154 13.375 1.6875 C15.94266605 3.94949152 17.99879363 6.22909888 20 9 C19.01 10.32 18.02 11.64 17 13 C10.81990533 11.76398107 8.1882778 9.69904339 4 5 C3.34 5.66 2.68 6.32 2 7 C1.34 4.69 0.68 2.38 0 0 Z " fill="#27290F" transform="translate(78,56)"/>
<path d="M0 0 C2.96417253 0.14322682 3.99299291 0.99323586 6.140625 3.06640625 C7.18476563 4.30197266 7.18476563 4.30197266 8.25 5.5625 C8.95640625 6.38878906 9.6628125 7.21507812 10.390625 8.06640625 C10.92171875 8.70449219 11.4528125 9.34257813 12 10 C10.68 11.32 9.36 12.64 8 14 C7.67 12.68 7.34 11.36 7 10 C3.55571735 11.44781793 1.63869038 13.27694609 -0.75 16.125 C-1.36359375 16.84945312 -1.9771875 17.57390625 -2.609375 18.3203125 C-3.06828125 18.87460938 -3.5271875 19.42890625 -4 20 C-5.7074998 18.71937515 -7.37373596 17.38232443 -9 16 C-9 15.34 -9 14.68 -9 14 C-7.34634594 12.97862543 -5.67623498 11.98387706 -4 11 C-1.87317909 9.42605291 0.03273687 7.78426191 2 6 C2 5.34 2 4.68 2 4 C0.68 3.34 -0.64 2.68 -2 2 C-1.34 1.34 -0.68 0.68 0 0 Z " fill="#252413" transform="translate(153,46)"/>
<path d="M0 0 C1.69140625 1.86328125 1.69140625 1.86328125 3.5625 4.3125 C4.18253906 5.11300781 4.80257812 5.91351563 5.44140625 6.73828125 C7 9 7 9 8 12 C11.22404978 10.33045181 11.22404978 10.33045181 11.6875 7.375 C11.790625 6.59125 11.89375 5.8075 12 5 C13.32 6.32 14.64 7.64 16 9 C14.77946141 12.66161578 13.63217696 13.16270474 10.4375 15.1875 C9.19806641 15.98220703 9.19806641 15.98220703 7.93359375 16.79296875 C7.29550781 17.19128906 6.65742187 17.58960937 6 18 C5.62875 17.319375 5.2575 16.63875 4.875 15.9375 C2.89979625 12.84301412 0.67337727 10.25716094 -1.79296875 7.55078125 C-3 6 -3 6 -3 4 C-3.66 3.67 -4.32 3.34 -5 3 C-2.25 0 -2.25 0 0 0 Z " fill="#1F1E0E" transform="translate(51,41)"/>
<path d="M0 0 C4.64475959 -0.04944066 9.28936596 -0.08573863 13.93432617 -0.10986328 C15.51443144 -0.11992041 17.0945181 -0.13356785 18.67456055 -0.15087891 C20.9458475 -0.17514022 23.21688836 -0.18648582 25.48828125 -0.1953125 C26.54780754 -0.21079636 26.54780754 -0.21079636 27.6287384 -0.22659302 C31.32197792 -0.22743775 32.83919216 -0.10720523 36 2 C29.01007531 4.15074606 22.46953324 4.30065762 15.1875 4.25 C13.49077148 4.26160156 13.49077148 4.26160156 11.75976562 4.2734375 C10.67759766 4.27085937 9.59542969 4.26828125 8.48046875 4.265625 C7.49973389 4.26336914 6.51899902 4.26111328 5.50854492 4.25878906 C3 4 3 4 0 2 C0 1.34 0 0.68 0 0 Z " fill="#1A1A0B" transform="translate(84,181)"/>
<path d="M0 0 C1.32 0.66 2.64 1.32 4 2 C2.63875 3.3921875 2.63875 3.3921875 1.25 4.8125 C-2.6587653 9.36506194 -4.2196914 14.34910974 -6 20 C-6.56235483 21.60421756 -7.12484358 23.20838819 -7.6875 24.8125 C-8.80209658 28.1805201 -9.5476513 31.47168012 -10 35 C-10.33 35 -10.66 35 -11 35 C-11.76027836 20.5335923 -8.82064893 11.42224482 0 0 Z " fill="#20200E" transform="translate(76,78)"/>
<path d="M0 0 C0.37125 1.5159375 0.37125 1.5159375 0.75 3.0625 C1.54863252 5.90979855 2.61844481 8.26952032 4.125 10.8125 C6 14 6 14 6 16 C6.66 16.33 7.32 16.66 8 17 C3.25 20 3.25 20 1 20 C0.88527344 19.28199219 0.77054687 18.56398438 0.65234375 17.82421875 C-0.03211904 14.86094573 -1.05846179 12.5173791 -2.4375 9.8125 C-2.86933594 8.95269531 -3.30117188 8.09289062 -3.74609375 7.20703125 C-4.93371729 4.88927568 -4.93371729 4.88927568 -7 3 C-2.25 0 -2.25 0 0 0 Z " fill="#252412" transform="translate(67,30)"/>
<path d="M0 0 C3.83100304 0.21684923 6.32712468 0.52898728 9.5 2.75 C11 5 11 5 10.75 7.75 C10.5025 8.4925 10.255 9.235 10 10 C7.8125 10.75 7.8125 10.75 5 11 C2.25 9.4375 2.25 9.4375 0 7 C-0.875 3.8125 -0.875 3.8125 -1 1 C-0.67 0.67 -0.34 0.34 0 0 Z " fill="#E7D7A8" transform="translate(39,56)"/>
<path d="M0 0 C-1 3 -1 3 -3.22265625 4.39453125 C-4.15980469 4.86246094 -5.09695312 5.33039062 -6.0625 5.8125 C-11.11954426 8.4466523 -15.57121899 11.42144343 -20 15 C-21.32 14.34 -22.64 13.68 -24 13 C-19.60244297 8.81185045 -14.97570667 5.60780242 -9.75 2.5625 C-8.82840088 2.01335938 -8.82840088 2.01335938 -7.88818359 1.453125 C-3.36258709 -1.12086236 -3.36258709 -1.12086236 0 0 Z " fill="#1E1E0E" transform="translate(67,21)"/>
<path d="M0 0 C2.38202314 0.69717751 4.39796142 1.54747857 6.5625 2.75 C6.8925 1.76 7.2225 0.77 7.5625 -0.25 C8.01625 0.53375 8.47 1.3175 8.9375 2.125 C10.44678742 4.78698031 10.44678742 4.78698031 12.5625 6.75 C11.675625 7.018125 10.78875 7.28625 9.875 7.5625 C6.59087609 8.5894416 6.59087609 8.5894416 4.125 10.375 C0.81356212 12.1518691 -1.73714734 11.9676678 -5.4375 11.75 C-2.50029492 10.22700477 0.4793649 8.94899698 3.5625 7.75 C3.5625 7.09 3.5625 6.43 3.5625 5.75 C1.9125 5.75 0.2625 5.75 -1.4375 5.75 C-1.7675 4.76 -2.0975 3.77 -2.4375 2.75 C-3.4275 2.42 -4.4175 2.09 -5.4375 1.75 C-2.4375 -0.25 -2.4375 -0.25 0 0 Z " fill="#1D1C09" transform="translate(86.4375,154.25)"/>
<path d="M0 0 C2.475 0.99 2.475 0.99 5 2 C5 2.66 5 3.32 5 4 C4.56042969 4.40863281 4.12085938 4.81726562 3.66796875 5.23828125 C1.40873422 7.62449852 0.52300322 10.14488379 -0.6875 13.1875 C-1.12449219 14.27417969 -1.56148437 15.36085938 -2.01171875 16.48046875 C-2.33785156 17.31191406 -2.66398438 18.14335938 -3 19 C-4.32 18.67 -5.64 18.34 -7 18 C-7.36923077 10.49230769 -7.36923077 10.49230769 -5.5 8 C-5.005 7.67 -4.51 7.34 -4 7 C-4 7.99 -4 8.98 -4 10 C-3.34 10 -2.68 10 -2 10 C-1.34 6.7 -0.68 3.4 0 0 Z " fill="#1A1909" transform="translate(132,29)"/>
<path d="M0 0 C0.99 0 1.98 0 3 0 C3 1.98 3 3.96 3 6 C4.98 5.67 6.96 5.34 9 5 C9 6.65 9 8.3 9 10 C7.35 9.67 5.7 9.34 4 9 C4 10.65 4 12.3 4 14 C5.65 14 7.3 14 9 14 C9 14.33 9 14.66 9 15 C4.545 15.495 4.545 15.495 0 16 C0 10.72 0 5.44 0 0 Z " fill="#292715" transform="translate(94,24)"/>
<path d="M0 0 C2.5 2.3125 2.5 2.3125 5 5 C5 5.99 5 6.98 5 8 C5.89781874 9.79340513 5.89781874 9.79340513 7.0625 11.5625 C7.701875 12.696875 8.34125 13.83125 9 15 C8.67 15.66 8.34 16.32 8 17 C7.01 17 6.02 17 5 17 C3.5 15 3.5 15 2 13 C1.01 13 0.02 13 -1 13 C-1.02686553 11.02090602 -1.04633375 9.04171029 -1.0625 7.0625 C-1.07410156 5.96035156 -1.08570312 4.85820312 -1.09765625 3.72265625 C-1 1 -1 1 0 0 Z " fill="#272410" transform="translate(67,131)"/>
<path d="M0 0 C0.33 0 0.66 0 1 0 C1.33 2.31 1.66 4.62 2 7 C2.66 6.34 3.32 5.68 4 5 C4.99 5 5.98 5 7 5 C7.50610724 11.07328688 6.04157942 14.77228537 3 20 C2.67 20 2.34 20 2 20 C2.495 15.545 2.495 15.545 3 11 C0.525 12.485 0.525 12.485 -2 14 C-1.85866501 12.22880197 -1.71176792 10.45804713 -1.5625 8.6875 C-1.48128906 7.70136719 -1.40007812 6.71523437 -1.31640625 5.69921875 C-1 3 -1 3 0 0 Z " fill="#1F1D0A" transform="translate(150,107)"/>
<path d="M0 0 C4.72173269 0.69869876 9.27775349 1.80182097 13.875 3.0625 C14.90753906 3.3419043 14.90753906 3.3419043 15.9609375 3.62695312 C17.64132514 4.08205811 19.32076322 4.54066678 21 5 C20.01 5.495 20.01 5.495 19 6 C19.33 6.99 19.66 7.98 20 9 C15.59866152 8.35980531 11.49253142 7.32945685 7.25 6 C6.12078125 5.649375 4.9915625 5.29875 3.828125 4.9375 C1 4 1 4 -1 3 C-0.67 2.01 -0.34 1.02 0 0 Z " fill="#232313" transform="translate(65,175)"/>
<path d="M0 0 C0.99 0.33 1.98 0.66 3 1 C5.3267064 6.83259393 5.42097868 12.7191003 5.625 18.9375 C5.66367188 19.90751953 5.70234375 20.87753906 5.7421875 21.87695312 C5.83575076 24.25112076 5.92149208 26.62529492 6 29 C5.01 28.67 4.02 28.34 3 28 C2.95101562 26.81921875 2.90203125 25.6384375 2.8515625 24.421875 C2.77651121 22.86456063 2.70096439 21.30727009 2.625 19.75 C2.5940625 18.97269531 2.563125 18.19539063 2.53125 17.39453125 C2.27341758 11.92620093 2.27341758 11.92620093 0 7 C-0.99 7.495 -0.99 7.495 -2 8 C-1.125 1.125 -1.125 1.125 0 0 Z " fill="#262514" transform="translate(60,115)"/>
<path d="M0 0 C1.32 0 2.64 0 4 0 C4.33 1.65 4.66 3.3 5 5 C6.32 5 7.64 5 9 5 C9.33 4.34 9.66 3.68 10 3 C11.65 3 13.3 3 15 3 C14.60856977 5.27029534 14.11258722 6.83408198 12.8125 8.75 C10.03880244 10.66289487 8.29177306 10.52668369 5 10 C2.125 7.8125 2.125 7.8125 0 5 C-0.3125 2.1875 -0.3125 2.1875 0 0 Z " fill="#DBD4B4" transform="translate(86,101)"/>
<path d="M0 0 C0.33 0.99 0.66 1.98 1 3 C-0.051875 3.268125 -1.10375 3.53625 -2.1875 3.8125 C-5.87717043 4.96174161 -9.22244439 6.22244439 -12 9 C-12.99 9.495 -12.99 9.495 -14 10 C-14 11.98 -14 13.96 -14 16 C-14.66 15.67 -15.32 15.34 -16 15 C-16.4140625 12.93359375 -16.4140625 12.93359375 -16.625 10.4375 C-16.69976562 9.61121094 -16.77453125 8.78492187 -16.8515625 7.93359375 C-16.90054688 7.29550781 -16.94953125 6.65742187 -17 6 C-16.40445313 5.8865625 -15.80890625 5.773125 -15.1953125 5.65625 C-12.83771707 4.95148838 -11.68662261 4.13140884 -9.875 2.5 C-5.93702988 -0.92432184 -4.9510385 -1.17261438 0 0 Z " fill="#1A1A08" transform="translate(126,93)"/>
<path d="M0 0 C9.24 0 18.48 0 28 0 C28.33 0.66 28.66 1.32 29 2 C26.05018055 2.98327315 24.11020492 3.12887338 21.03515625 3.1328125 C20.07029297 3.13410156 19.10542969 3.13539062 18.11132812 3.13671875 C16.6021582 3.13091797 16.6021582 3.13091797 15.0625 3.125 C13.55913086 3.13080078 13.55913086 3.13080078 12.02539062 3.13671875 C11.05923828 3.13542969 10.09308594 3.13414063 9.09765625 3.1328125 C8.21601807 3.13168457 7.33437988 3.13055664 6.42602539 3.12939453 C4.1454544 3.00775796 2.1859151 2.63923813 0 2 C0 1.34 0 0.68 0 0 Z " fill="#19190B" transform="translate(85,13)"/>
<path d="M0 0 C-0.13942681 3.56278089 -0.28767078 7.1251426 -0.4375 10.6875 C-0.47681641 11.69490234 -0.51613281 12.70230469 -0.55664062 13.74023438 C-0.59853516 14.71669922 -0.64042969 15.69316406 -0.68359375 16.69921875 C-0.72025146 17.59471436 -0.75690918 18.49020996 -0.79467773 19.4128418 C-1.00061751 22.00778088 -1.43767822 24.46054684 -2 27 C-4.98648563 24.01351437 -4.29249394 21.23452507 -4.32226562 17.15039062 C-4.31904297 16.13138672 -4.31582031 15.11238281 -4.3125 14.0625 C-4.32861328 13.04736328 -4.34472656 12.03222656 -4.36132812 10.98632812 C-4.36197266 10.01244141 -4.36261719 9.03855469 -4.36328125 8.03515625 C-4.36626221 7.1419165 -4.36924316 6.24867676 -4.37231445 5.32836914 C-3.99023801 2.93895078 -2.89107226 0 0 0 Z " fill="#201F10" transform="translate(18,85)"/>
<path d="M0 0 C-1 3 -1 3 -3.0625 4.625 C-6.92289003 6.43199108 -9.72362501 6.86205242 -14 7 C-16 5.5625 -16 5.5625 -17 4 C-11.59696035 -0.67289916 -6.95230941 -0.44534366 0 0 Z " fill="#222111" transform="translate(91,159)"/>
<path d="M0 0 C2.53827244 0.45326294 3.94137988 0.95420304 6 2.5625 C8.13084232 4.3890907 8.13084232 4.3890907 12 4 C12.66 4.66 13.32 5.32 14 6 C13.625 8.125 13.625 8.125 13 10 C7.37581437 9.77503257 4.8279038 8.47912718 1.06640625 4.5703125 C0 3 0 3 0 0 Z " fill="#A14020" transform="translate(88,121)"/>
<path d="M0 0 C0 0.66 0 1.32 0 2 C0.99 2.33 1.98 2.66 3 3 C-5.23412724 6.84603436 -11.19844977 9.1192853 -20 6 C-20 5.67 -20 5.34 -20 5 C-18.86820312 4.72285156 -17.73640625 4.44570312 -16.5703125 4.16015625 C-15.08851098 3.79439512 -13.60674182 3.42850289 -12.125 3.0625 C-11.37863281 2.88009766 -10.63226563 2.69769531 -9.86328125 2.50976562 C-6.61466819 1.70492906 -3.27193292 0 0 0 Z " fill="#252313" transform="translate(133,175)"/>
<path d="M0 0 C11.70615034 -0.55353075 11.70615034 -0.55353075 16 3 C15.34 4.32 14.68 5.64 14 7 C12.68 7 11.36 7 10 7 C10 6.34 10 5.68 10 5 C9.0925 5.0825 8.185 5.165 7.25 5.25 C4 5 4 5 1.625 3.0625 C0 1 0 1 0 0 Z " fill="#2D2A14" transform="translate(109,159)"/>
<path d="M0 0 C0.66 0 1.32 0 2 0 C2.64910154 1.58199631 3.29414694 3.16565724 3.9375 4.75 C4.29714844 5.63171875 4.65679687 6.5134375 5.02734375 7.421875 C6.77314525 12.04930066 7.11228275 15.77172492 7.0625 20.75 C7.05347656 21.92046875 7.04445312 23.0909375 7.03515625 24.296875 C7.02355469 25.18890625 7.01195312 26.0809375 7 27 C6.67 27 6.34 27 6 27 C5.94392578 25.86111328 5.94392578 25.86111328 5.88671875 24.69921875 C5.78810547 23.20841797 5.78810547 23.20841797 5.6875 21.6875 C5.60048828 20.20830078 5.60048828 20.20830078 5.51171875 18.69921875 C4.92369017 15.5974802 4.18108229 15.12669121 2 13 C1.015625 10.1171875 1.015625 10.1171875 0.25 6.875 C-0.01296875 5.79992187 -0.2759375 4.72484375 -0.546875 3.6171875 C-0.69640625 2.75351563 -0.8459375 1.88984375 -1 1 C-0.67 0.67 -0.34 0.34 0 0 Z " fill="#272712" transform="translate(127,86)"/>
<path d="M0 0 C4.95 0 9.9 0 15 0 C13.08423862 3.83152275 11.9191172 5.30158767 8.21875 7.31640625 C3.86592751 8.65750473 -0.58299324 7.73483657 -5 7 C-5.33 6.01 -5.66 5.02 -6 4 C-5.34 3.67 -4.68 3.34 -4 3 C-3.01 3.66 -2.02 4.32 -1 5 C2.75790722 4.65837207 6.36686163 4.01727874 10 3 C10 2.34 10 1.68 10 1 C6.7 1 3.4 1 0 1 C0 0.67 0 0.34 0 0 Z " fill="#2C2810" transform="translate(128,150)"/>
<path d="M0 0 C2.96417253 0.14322682 3.99299291 0.99323586 6.140625 3.06640625 C6.83671875 3.89011719 7.5328125 4.71382812 8.25 5.5625 C8.95640625 6.38878906 9.6628125 7.21507812 10.390625 8.06640625 C10.92171875 8.70449219 11.4528125 9.34257813 12 10 C10.68 11.32 9.36 12.64 8 14 C7.01 11.36 6.02 8.72 5 6 C2.69 8.31 0.38 10.62 -2 13 C-2.33 12.01 -2.66 11.02 -3 10 C-2.175 9.38125 -1.35 8.7625 -0.5 8.125 C0.7375 7.073125 0.7375 7.073125 2 6 C2 5.34 2 4.68 2 4 C0.68 3.34 -0.64 2.68 -2 2 C-1.34 1.34 -0.68 0.68 0 0 Z " fill="#1E1D0D" transform="translate(153,46)"/>
<path d="M0 0 C-0.45822468 3.46941546 -0.89131683 6.67395049 -2 10 C-2.9075 10.144375 -3.815 10.28875 -4.75 10.4375 C-7.21476956 10.86409473 -9.58847107 11.35074221 -12 12 C-8.375 6.25 -8.375 6.25 -5 4 C-5.66 3.34 -6.32 2.68 -7 2 C-4.35261084 0.5393715 -3.10551666 0 0 0 Z " fill="#262411" transform="translate(119,145)"/>
<path d="M0 0 C2.6875 -0.3125 2.6875 -0.3125 6 0 C8.875 2.5 8.875 2.5 11 5 C10.01 5 9.02 5 8 5 C9.65 6.65 11.3 8.3 13 10 C6.84348094 8.76869619 4.08919514 6.78735041 0 2 C0 1.34 0 0.68 0 0 Z " fill="#607817" transform="translate(82,59)"/>
<path d="M0 0 C3.02521196 -0.43217314 5.15522062 -0.55386198 7.76953125 1.16015625 C9.441737 2.69137978 10.78424675 4.08440355 12 6 C11.875 8.875 11.875 8.875 11 11 C6.86378916 7.6189962 3.18683431 4.33409466 0 0 Z " fill="#2A291A" transform="translate(152,34)"/>
<path d="M0 0 C1.32 0.33 2.64 0.66 4 1 C0.92482916 14.6332574 0.92482916 14.6332574 -1 21 C-1.33 21 -1.66 21 -2 21 C-2.3690205 6.21867882 -2.3690205 6.21867882 0 0 Z " fill="#2D2D18" transform="translate(67,92)"/>
<path d="M0 0 C1.65 0 3.3 0 5 0 C4.6875 2.875 4.6875 2.875 4 6 C0.76746204 8.15502531 -0.25150923 8.46856135 -4 8 C-5.8125 6.6875 -5.8125 6.6875 -7 5 C-7 4.01 -7 3.02 -7 2 C-6.34 2 -5.68 2 -5 2 C-5 2.99 -5 3.98 -5 5 C-3.68 4.67 -2.36 4.34 -1 4 C-0.67 2.68 -0.34 1.36 0 0 Z " fill="#EAE2C0" transform="translate(119,102)"/>
<path d="M0 0 C2.04119788 1.61594832 4.04072937 3.2856382 6 5 C6 5.66 6 6.32 6 7 C7.32 7.66 8.64 8.32 10 9 C9.67 9.33 9.34 9.66 9 10 C4.51287922 9.82741843 2.49401598 9.43095011 -0.9375 6.4375 C-1.618125 5.633125 -2.29875 4.82875 -3 4 C-2.67 3.01 -2.34 2.02 -2 1 C-1.34 0.67 -0.68 0.34 0 0 Z " fill="#262514" transform="translate(38,61)"/>
<path d="M0 0 C-2.07357484 5.06873851 -4.27236232 7.26847601 -9 10 C-9.66 9.67 -10.32 9.34 -11 9 C-10.34 8.01 -9.68 7.02 -9 6 C-9.99 6.66 -10.98 7.32 -12 8 C-9.82021749 2.45146271 -6.05820197 -0.69236594 0 0 Z " fill="#5F7617" transform="translate(115,58)"/>
<path d="M0 0 C-2.70623013 4.68385984 -4.87323859 7.10532731 -10 9 C-10.66 8.67 -11.32 8.34 -12 8 C-12 5 -12 5 -10.64453125 3.61328125 C-4.57852107 -0.69371531 -4.57852107 -0.69371531 0 0 Z " fill="#AA8328" transform="translate(150,136)"/>
<path d="M0 0 C2.625 0.375 2.625 0.375 5 1 C5.625 3.375 5.625 3.375 6 6 C5.34 6.66 4.68 7.32 4 8 C1.375 7.625 1.375 7.625 -1 7 C-1.625 4.625 -1.625 4.625 -2 2 C-1.34 1.34 -0.68 0.68 0 0 Z " fill="#252413" transform="translate(165,95)"/>
<path d="M0 0 C0.80824219 0.10183594 1.61648437 0.20367187 2.44921875 0.30859375 C3.06410156 0.39238281 3.67898437 0.47617188 4.3125 0.5625 C-2.09961954 4.83724636 -10.29814999 3.568361 -17.6875 3.125 C-19.13576172 3.04668945 -19.13576172 3.04668945 -20.61328125 2.96679688 C-22.9717825 2.83836364 -25.32972045 2.70346811 -27.6875 2.5625 C-27.6875 2.2325 -27.6875 1.9025 -27.6875 1.5625 C-27.09735107 1.53744385 -26.50720215 1.5123877 -25.89916992 1.48657227 C-23.22423186 1.37049948 -20.5496362 1.24782428 -17.875 1.125 C-16.94623047 1.08568359 -16.01746094 1.04636719 -15.06054688 1.00585938 C-14.16787109 0.96396484 -13.27519531 0.92207031 -12.35546875 0.87890625 C-11.53328857 0.84224854 -10.7111084 0.80559082 -9.86401367 0.76782227 C-0.72386521 -0.0944172 -0.72386521 -0.0944172 0 0 Z " fill="#524F39" transform="translate(118.6875,14.4375)"/>
<path d="M0 0 C0.99 0.33 1.98 0.66 3 1 C1.59155282 4.21524305 -0.10344786 6.32183868 -2.625 8.75 C-3.57246094 9.67039063 -3.57246094 9.67039063 -4.5390625 10.609375 C-5.02117187 11.06828125 -5.50328125 11.5271875 -6 12 C-6.33 11.34 -6.66 10.68 -7 10 C-7.66 9.67 -8.32 9.34 -9 9 C-6.03 6.03 -3.06 3.06 0 0 Z " fill="#181807" transform="translate(162,153)"/>
<path d="M0 0 C0.89203125 0.01804688 1.7840625 0.03609375 2.703125 0.0546875 C3.71632812 0.08949219 3.71632812 0.08949219 4.75 0.125 C4.75 0.785 4.75 1.445 4.75 2.125 C0.19573816 4.79090937 -2.98946963 5.44063182 -8.25 5.125 C-8.58 4.135 -8.91 3.145 -9.25 2.125 C-6.03817851 0.21891902 -3.71117397 -0.09766247 0 0 Z " fill="#B2892A" transform="translate(133.25,150.875)"/>
<path d="M0 0 C0.99 0.33 1.98 0.66 3 1 C3.33 3.64 3.66 6.28 4 9 C3.01 8.34 2.02 7.68 1 7 C0.34 8.98 -0.32 10.96 -1 13 C-1.66 12.67 -2.32 12.34 -3 12 C-2.88541307 10.56163249 -2.75790884 9.12429034 -2.625 7.6875 C-2.55539063 6.88699219 -2.48578125 6.08648437 -2.4140625 5.26171875 C-2 3 -2 3 0 0 Z " fill="#1B1A0B" transform="translate(138,115)"/>
<path d="M0 0 C0.33 0 0.66 0 1 0 C1.22677207 3.56157634 1.42815479 7.12415425 1.625 10.6875 C1.68945312 11.69490234 1.75390625 12.70230469 1.8203125 13.74023438 C1.871875 14.71669922 1.9234375 15.69316406 1.9765625 16.69921875 C2.02893066 17.59471436 2.08129883 18.49020996 2.13525391 19.4128418 C1.98391432 22.30768941 1.20867188 24.38258597 0 27 C-2.04389465 23.65544512 -2.14426867 21.44268669 -1.7578125 17.578125 C-1.66113281 16.55332031 -1.56445312 15.52851562 -1.46484375 14.47265625 C-1.35269531 13.40917969 -1.24054687 12.34570312 -1.125 11.25 C-1.02058594 10.17105469 -0.91617187 9.09210938 -0.80859375 7.98046875 C-0.54952206 5.31909589 -0.27962376 2.65927898 0 0 Z " fill="#363421" transform="translate(17,93)"/>
<path d="M0 0 C0.33 0.66 0.66 1.32 1 2 C1.66 2 2.32 2 3 2 C2.34 5.63 1.68 9.26 1 13 C0.34 12.67 -0.32 12.34 -1 12 C-1.33 16.29 -1.66 20.58 -2 25 C-2.33 25 -2.66 25 -3 25 C-3.35021655 16.11487651 -2.89452883 8.44237574 0 0 Z " fill="#4B4832" transform="translate(50,81)"/>
<path d="M0 0 C2.32633232 1.52665558 3.61198285 2.90173337 5 5.3125 C4.67 6.3025 4.34 7.2925 4 8.3125 C-1.5 6.84583333 -1.5 6.84583333 -3.875 4.3125 C-5 2.3125 -5 2.3125 -5 0.3125 C-2 -0.6875 -2 -0.6875 0 0 Z " fill="#272512" transform="translate(89,148.6875)"/>
<path d="M0 0 C0.70125 0.28875 1.4025 0.5775 2.125 0.875 C1.19225891 2.00394876 0.25359878 3.12800876 -0.6875 4.25 C-1.20957031 4.87648438 -1.73164062 5.50296875 -2.26953125 6.1484375 C-3.875 7.875 -3.875 7.875 -6.875 9.875 C-7.535 8.555 -8.195 7.235 -8.875 5.875 C-3.7809081 -0.16438731 -3.7809081 -0.16438731 0 0 Z " fill="#2F2E1F" transform="translate(43.875,35.125)"/>
<path d="M0 0 C3.80635497 3.20760251 7.54563567 6.40746109 11 10 C10.67 10.99 10.34 11.98 10 13 C6.14261455 10.22268248 2.58625606 7.11278967 -1 4 C-0.67 2.68 -0.34 1.36 0 0 Z " fill="#1A1909" transform="translate(35,151)"/>
<path d="M0 0 C1.67542976 0.28604898 3.34385343 0.61781233 5 1 C5 2.98 5 4.96 5 7 C2.625 7.625 2.625 7.625 0 8 C-0.66 7.34 -1.32 6.68 -2 6 C-1.44444444 1.44444444 -1.44444444 1.44444444 0 0 Z " fill="#1F1E0E" transform="translate(31,95)"/>
<path d="M0 0 C5.21979128 -0.1799928 9.07262981 0.02905192 14 2 C13.01 3.485 13.01 3.485 12 5 C7.06752387 5.55839352 3.93202672 5.09796044 0 2 C0 1.34 0 0.68 0 0 Z " fill="#B28829" transform="translate(62,151)"/>
<path d="M0 0 C2 2 2 2 2.1953125 4.8203125 C2.16050781 6.45613281 2.16050781 6.45613281 2.125 8.125 C2.10695312 9.22070312 2.08890625 10.31640625 2.0703125 11.4453125 C2.04710937 12.28835937 2.02390625 13.13140625 2 14 C0.66666667 14 -0.66666667 14 -2 14 C-2.1799928 8.78020872 -1.97094808 4.92737019 0 0 Z " fill="#AE8629" transform="translate(139,120)"/>
<path d="M0 0 C2.31 0 4.62 0 7 0 C7 0.66 7 1.32 7 2 C8.65 2 10.3 2 12 2 C10.68 2.33 9.36 2.66 8 3 C7.67 4.32 7.34 5.64 7 7 C5.35 6.67 3.7 6.34 2 6 C2 4.35 2 2.7 2 1 C1.34 0.67 0.68 0.34 0 0 Z " fill="#171706" transform="translate(88,100)"/>
<path d="M0 0 C2.24606427 1.77444972 2.95081002 2.58352485 3.29296875 5.48046875 C3.25816406 6.37378906 3.22335938 7.26710938 3.1875 8.1875 C3.16042969 9.08855469 3.13335937 9.98960938 3.10546875 10.91796875 C3.07066406 11.60503906 3.03585938 12.29210937 3 13 C2.01 13.33 1.02 13.66 0 14 C-1 13 -1 13 -1.1328125 10.56640625 C-1.13023437 9.57511719 -1.12765625 8.58382812 -1.125 7.5625 C-1.12757813 6.57378906 -1.13015625 5.58507812 -1.1328125 4.56640625 C-1 2 -1 2 0 0 Z " fill="#AA8328" transform="translate(145,104)"/>
<path d="M0 0 C0.33 0.66 0.66 1.32 1 2 C1.66 2 2.32 2 3 2 C2.34 5.3 1.68 8.6 1 12 C-3 13 -3 13 -5 12 C-5 11.34 -5 10.68 -5 10 C-4.34 10 -3.68 10 -3 10 C-2.01 6.7 -1.02 3.4 0 0 Z " fill="#2C2A19" transform="translate(119,31)"/>
<path d="M0 0 C2.64 0.33 5.28 0.66 8 1 C8 0.67 8 0.34 8 0 C9.65 0 11.3 0 13 0 C13 0.99 13 1.98 13 3 C13.66 3.66 14.32 4.32 15 5 C13.27119018 5.05449838 11.54187288 5.09301688 9.8125 5.125 C8.84957031 5.14820313 7.88664062 5.17140625 6.89453125 5.1953125 C3.87187222 4.9913544 1.73230015 4.26874632 -1 3 C-0.67 2.01 -0.34 1.02 0 0 Z " fill="#3D3618" transform="translate(64,154)"/>
<path d="M0 0 C0.33 0 0.66 0 1 0 C1.35338623 2.96844435 1.5417682 5.15598218 -0.11328125 7.734375 C-1.35503168 9.20348819 -2.67337918 10.60704814 -4 12 C-4.99 11.01 -5.98 10.02 -7 9 C-5.85793642 7.49712782 -4.71125043 5.99776716 -3.5625 4.5 C-2.92441406 3.6646875 -2.28632813 2.829375 -1.62890625 1.96875 C-0.82259766 0.99421875 -0.82259766 0.99421875 0 0 Z " fill="#202010" transform="translate(170,143)"/>
<path d="M0 0 C2.64 0 5.28 0 8 0 C7.52389341 4.99911924 5.96837781 7.97832683 3 12 C2.01 11.34 1.02 10.68 0 10 C1.32 8.02 2.64 6.04 4 4 C2.68 2.68 1.36 1.36 0 0 Z " fill="#2B2A17" transform="translate(110,55)"/>
<path d="M0 0 C3.53149946 0.32104541 5.55774608 0.65085217 8.375 2.875 C10 5 10 5 10 8 C5.17965738 7.58682778 3.09007389 5.61980085 0 2 C0 1.34 0 0.68 0 0 Z " fill="#BB8F2B" transform="translate(50,136)"/>
<path d="M0 0 C1 2 1 2 0.3984375 3.91015625 C-2.39218033 9.77897467 -2.39218033 9.77897467 -5.75 11 C-6.4925 11 -7.235 11 -8 11 C-6.46457536 6.52167812 -4.39145948 2.19572974 0 0 Z " fill="#B98E2B" transform="translate(153,117)"/>
<path d="M0 0 C0.66 0 1.32 0 2 0 C2 4.29 2 8.58 2 13 C1.01 13.33 0.02 13.66 -1 14 C-2.51516221 10.96967558 -2.17028053 8.34885038 -2 5 C-1 2.0625 -1 2.0625 0 0 Z " fill="#BF922D" transform="translate(53,104)"/>
<path d="M0 0 C1.15518918 0.90484792 2.29885406 1.8244206 3.4375 2.75 C4.07558594 3.26046875 4.71367188 3.7709375 5.37109375 4.296875 C7.18810554 6.19667629 7.60423197 7.43586908 8 10 C7.34 10 6.68 10 6 10 C6.33 10.66 6.66 11.32 7 12 C3.33663903 10.77887968 2.64957986 9.13279518 0.76953125 5.88671875 C0 4 0 4 0 0 Z " fill="#BC902C" transform="translate(46,117)"/>
<path d="M0 0 C1.65 0 3.3 0 5 0 C5 0.99 5 1.98 5 3 C5.495 3.495 5.99 3.99 6.5 4.5 C6.995 4.995 7.49 5.49 8 6 C8 6.99 8 7.98 8 9 C6.0625 8.6875 6.0625 8.6875 4 8 C3.67 7.01 3.34 6.02 3 5 C0.99983534 3.79117904 0.99983534 3.79117904 -1 3 C-0.67 2.01 -0.34 1.02 0 0 Z " fill="#2A2817" transform="translate(100,160)"/>
<path d="M0 0 C2.97 0 5.94 0 9 0 C9 0.33 9 0.66 9 1 C7.35 1 5.7 1 4 1 C4.33 1.99 4.66 2.98 5 4 C3.8803014 5.00593243 2.7540588 6.0045849 1.625 7 C0.99851562 7.556875 0.37203125 8.11375 -0.2734375 8.6875 C-2 10 -2 10 -4 10 C-3.65120368 6.74456771 -2.97866739 5.98126893 -0.4375 3.75 C0.366875 3.1725 1.17125 2.595 2 2 C1.34 1.34 0.68 0.68 0 0 Z " fill="#161506" transform="translate(96,159)"/>
<path d="M0 0 C3.99455527 0.61454696 6.74466336 2.70646737 10 5 C7.59454362 6.20272819 6.05003047 6.10071472 3.375 6.0625 C2.14910156 6.04896484 2.14910156 6.04896484 0.8984375 6.03515625 C-0.04128906 6.01775391 -0.04128906 6.01775391 -1 6 C-1.33 6.99 -1.66 7.98 -2 9 C-2 7.02 -2 5.04 -2 3 C-1.34 2.67 -0.68 2.34 0 2 C0 1.34 0 0.68 0 0 Z " fill="#505F1B" transform="translate(87,95)"/>
<path d="M0 0 C2.6224715 2.6224715 2.64217954 4.35023127 3 8 C2.5625 10.875 2.5625 10.875 2 13 C0.68 12.67 -0.64 12.34 -2 12 C-1.34 8.04 -0.68 4.08 0 0 Z " fill="#2C2B1B" transform="translate(17,74)"/>
<path d="M0 0 C3.68754757 0.49831724 5.60490662 1.10067643 8 4 C7.67 4.99 7.34 5.98 7 7 C3.64404172 6.40072174 1.62198774 5.15377564 -1 3 C-0.67 2.01 -0.34 1.02 0 0 Z " fill="#AFB64B" transform="translate(109,77)"/>
<path d="M0 0 C3.82669043 3.42388092 5.72278474 6.00724943 7 11 C6.01 11.33 5.02 11.66 4 12 C3.32332002 10.75539217 2.65905281 9.50403104 2 8.25 C1.62875 7.55390625 1.2575 6.8578125 0.875 6.140625 C0 4 0 4 0 0 Z " fill="#B58A2A" transform="translate(69,137)"/>
<path d="M0 0 C2.475 0.99 2.475 0.99 5 2 C5 2.66 5 3.32 5 4 C4.54625 4.433125 4.0925 4.86625 3.625 5.3125 C1.65690769 7.35628817 0.93273129 9.34530324 0 12 C-1.32 11.34 -2.64 10.68 -4 10 C-3.34 10 -2.68 10 -2 10 C-1.34 6.7 -0.68 3.4 0 0 Z " fill="#262514" transform="translate(132,29)"/>
<path d="M0 0 C-1.63412443 1.70840281 -2.86906094 2.93453047 -5 4 C-7.3329866 4.04022391 -9.66706666 4.04320247 -12 4 C-12 3.34 -12 2.68 -12 2 C-10.75579353 1.4654744 -9.50429064 0.94791389 -8.25 0.4375 C-7.55390625 0.14746094 -6.8578125 -0.14257812 -6.140625 -0.44140625 C-3.69987216 -1.07831803 -2.3596345 -0.80248831 0 0 Z " fill="#9A7825" transform="translate(91,160)"/>
<path d="M0 0 C3.35595828 0.59927826 5.37801226 1.84622436 8 4 C7.67 5.32 7.34 6.64 7 8 C4.13792848 6.71700242 1.9754912 5.469364 0 3 C0 2.01 0 1.02 0 0 Z " fill="#B34623" transform="translate(88,121)"/>
<path d="M0 0 C0.99 0.33 1.98 0.66 3 1 C3.0825 2.0725 3.165 3.145 3.25 4.25 C4.07120695 8.35603475 4.61915374 9.62427019 8 12 C11.14481791 12.80315654 11.14481791 12.80315654 14 13 C14 13.33 14 13.66 14 14 C5.99337748 14.76986755 5.99337748 14.76986755 2.5 12.0625 C0.54230954 8.06554865 0.19200885 4.40660303 0 0 Z " fill="#181809" transform="translate(83,98)"/>
<path d="M0 0 C-0.99 0.495 -0.99 0.495 -2 1 C-1.67 1.99 -1.34 2.98 -1 4 C-4.68266103 3.40049704 -8.34543185 2.75241109 -12 2 C-12 1.34 -12 0.68 -12 0 C-7.74433453 -1.16063604 -4.3164922 -0.76173392 0 0 Z " fill="#302F1E" transform="translate(86,180)"/>
<path d="M0 0 C4.95 0 9.9 0 15 0 C15 0.33 15 0.66 15 1 C11.7 1 8.4 1 5 1 C5 1.66 5 2.32 5 3 C5.66 3 6.32 3 7 3 C6.67 3.99 6.34 4.98 6 6 C3.96166576 4.7260411 1.96147874 3.38938077 0 2 C0 1.34 0 0.68 0 0 Z " fill="#191909" transform="translate(57,150)"/>
<path d="M0 0 C0.99 0.495 0.99 0.495 2 1 C2 3.64 2 6.28 2 9 C2.99 9.33 3.98 9.66 5 10 C4.34 11.65 3.68 13.3 3 15 C0.33684806 12.33684806 0.05573507 10.34655932 -0.09765625 6.640625 C-0.08605469 5.85171875 -0.07445312 5.0628125 -0.0625 4.25 C-0.05347656 3.45078125 -0.04445312 2.6515625 -0.03515625 1.828125 C-0.02355469 1.22484375 -0.01195312 0.6215625 0 0 Z " fill="#151505" transform="translate(135,127)"/>
<path d="M0 0 C-0.33 6.6 -0.66 13.2 -1 20 C-1.33 20 -1.66 20 -2 20 C-2.33 14.39 -2.66 8.78 -3 3 C-3.66 3 -4.32 3 -5 3 C-5 2.34 -5 1.68 -5 1 C-3 0 -3 0 0 0 Z " fill="#272615" transform="translate(87,23)"/>
<path d="M0 0 C3.9492568 0.55105909 7.34920174 1.38935371 11 3 C11 3.66 11 4.32 11 5 C4.61764706 5.49095023 4.61764706 5.49095023 1.5625 3.0625 C0 1 0 1 0 0 Z " fill="#A57F27" transform="translate(109,159)"/>
<path d="M0 0 C0.66 1.32 1.32 2.64 2 4 C0.35 5.32 -1.3 6.64 -3 8 C-4.32 7.34 -5.64 6.68 -7 6 C-7 5.34 -7 4.68 -7 4 C-3.25 2 -3.25 2 -1 2 C-0.67 1.34 -0.34 0.68 0 0 Z " fill="#3D3515" transform="translate(151,124)"/>
<path d="M0 0 C2.56687367 3.8503105 1.83288724 5.58569763 1 10 C1.99 10.66 2.98 11.32 4 12 C1.69 12.66 -0.62 13.32 -3 14 C-2.125 6.25 -2.125 6.25 -1 4 C-0.64830932 2.67139075 -0.31229724 1.33841672 0 0 Z " fill="#171605" transform="translate(144,120)"/>
<path d="M0 0 C0 0.99 0 1.98 0 3 C-0.66 3 -1.32 3 -2 3 C-2 3.66 -2 4.32 -2 5 C-1.34 5.33 -0.68 5.66 0 6 C-2.64 5.67 -5.28 5.34 -8 5 C-8 4.34 -8 3.68 -8 3 C-7.34 3 -6.68 3 -6 3 C-6 2.34 -6 1.68 -6 1 C-4 0 -4 0 0 0 Z " fill="#171706" transform="translate(118,154)"/>
<path d="M0 0 C0.66 0 1.32 0 2 0 C1.38461538 6.52307692 1.38461538 6.52307692 -0.5625 8.9375 C-1.036875 9.288125 -1.51125 9.63875 -2 10 C-2.66 9.67 -3.32 9.34 -4 9 C-2.94124926 5.59687262 -1.99097846 2.98646769 0 0 Z " fill="#BC902C" transform="translate(128,138)"/>
<path d="M0 0 C2.52017426 2.52017426 2.29730377 3.51499849 2.3125 7 C2.32925781 7.886875 2.34601562 8.77375 2.36328125 9.6875 C2.24339844 10.450625 2.12351563 11.21375 2 12 C1.01 12.66 0.02 13.32 -1 14 C-1.02694851 12.04174127 -1.04637218 10.08337774 -1.0625 8.125 C-1.07410156 7.03445312 -1.08570313 5.94390625 -1.09765625 4.8203125 C-1 2 -1 2 0 0 Z " fill="#C0932D" transform="translate(60,120)"/>
<path d="M0 0 C0.75 1.625 0.75 1.625 1 4 C-0.8125 7 -0.8125 7 -3 10 C-3.69429379 11.3191582 -4.37530495 12.64649406 -5 14 C-6.65 13.67 -8.3 13.34 -10 13 C-7.98502835 10.98502835 -5.98118437 8.98284457 -3.875 7.0625 C-1.83406526 4.81747179 -0.95301973 2.85905918 0 0 Z " fill="#DCCEA2" transform="translate(117,58)"/>
<path d="M0 0 C0 0.99 0 1.98 0 3 C0.66 3.33 1.32 3.66 2 4 C-0.64 4.66 -3.28 5.32 -6 6 C-6 5.34 -6 4.68 -6 4 C-6.66 3.67 -7.32 3.34 -8 3 C-2.25 0 -2.25 0 0 0 Z " fill="#2D2C1B" transform="translate(73,17)"/>
<path d="M0 0 C1.32 0.33 2.64 0.66 4 1 C4.33 3.97 4.66 6.94 5 10 C4.67 9.01 4.34 8.02 4 7 C3.01 6.67 2.02 6.34 1 6 C0.67 4.02 0.34 2.04 0 0 Z " fill="#1F1F0E" transform="translate(19,126)"/>
<path d="M0 0 C0.33 0.99 0.66 1.98 1 3 C-5.0546875 3.1953125 -5.0546875 3.1953125 -7 3 C-7.66 2.34 -8.32 1.68 -9 1 C-5.64919071 -1.10976881 -3.77897651 -1.0497157 0 0 Z " fill="#212309" transform="translate(126,93)"/>
<path d="M0 0 C-0.33 1.32 -0.66 2.64 -1 4 C-3.31 4.33 -5.62 4.66 -8 5 C-8 4.01 -8 3.02 -8 2 C-5.09399739 0.74335022 -3.20395416 0 0 0 Z " fill="#1F1F0F" transform="translate(141,172)"/>
<path d="M0 0 C1.65 0 3.3 0 5 0 C4.6875 1.875 4.6875 1.875 4 4 C3.01 4.66 2.02 5.32 1 6 C0.01 5.67 -0.98 5.34 -2 5 C-1.34 3.35 -0.68 1.7 0 0 Z " fill="#EFE5C3" transform="translate(96,104)"/>
<path d="M0 0 C0.66 0 1.32 0 2 0 C3.13480527 3.60993172 3.10015767 6.9842327 3.0625 10.75 C3.05347656 11.92046875 3.04445312 13.0909375 3.03515625 14.296875 C3.02355469 15.18890625 3.01195312 16.0809375 3 17 C2.67 17 2.34 17 2 17 C1.92652344 15.82630859 1.92652344 15.82630859 1.8515625 14.62890625 C1.77679688 13.61699219 1.70203125 12.60507813 1.625 11.5625 C1.55539063 10.55316406 1.48578125 9.54382813 1.4140625 8.50390625 C1.27742187 7.67761719 1.14078125 6.85132812 1 6 C0.34 5.67 -0.32 5.34 -1 5 C-0.67 3.35 -0.34 1.7 0 0 Z " fill="#46432F" transform="translate(131,96)"/>
<path d="M0 0 C0.66 0.33 1.32 0.66 2 1 C-2.43076923 6.78461538 -2.43076923 6.78461538 -5.3125 7.875 C-5.869375 7.91625 -6.42625 7.9575 -7 8 C-3.375 2.25 -3.375 2.25 0 0 Z " fill="#B2892A" transform="translate(114,149)"/>
<path d="M0 0 C0.33 0.66 0.66 1.32 1 2 C1.66 2 2.32 2 3 2 C2.34 4.64 1.68 7.28 1 10 C0.34 9.67 -0.32 9.34 -1 9 C-0.67 6.03 -0.34 3.06 0 0 Z " fill="#343017" transform="translate(136,118)"/>
<path d="M0 0 C2 3 2 3 2 5 C2.66 5.33 3.32 5.66 4 6 C3.54625 6.391875 3.0925 6.78375 2.625 7.1875 C0.72357081 9.30832487 -0.06204028 11.33042235 -1 14 C-2.13732426 10.59598052 -1.83989957 8.22543336 -1.0625 4.75 C-0.86785156 3.85796875 -0.67320313 2.9659375 -0.47265625 2.046875 C-0.31667969 1.37140625 -0.16070312 0.6959375 0 0 Z " fill="#BAB08C" transform="translate(58,109)"/>
<path d="M0 0 C0.33 1.32 0.66 2.64 1 4 C-2.3 4 -5.6 4 -9 4 C-3.66666667 0 -3.66666667 0 0 0 Z " fill="#CFC39A" transform="translate(85,52)"/>
<path d="M0 0 C2.33944736 0.28730055 4.6739143 0.61936779 7 1 C7.33 1.99 7.66 2.98 8 4 C1.25 3.25 1.25 3.25 -1 1 C-0.67 0.67 -0.34 0.34 0 0 Z " fill="#1D1C0B" transform="translate(113,49)"/>
<path d="M0 0 C2.475 0.495 2.475 0.495 5 1 C5 2.32 5 3.64 5 5 C3.35 5 1.7 5 0 5 C0 3.35 0 1.7 0 0 Z " fill="#F2E3B2" transform="translate(98,33)"/>
<path d="M0 0 C1.32 0 2.64 0 4 0 C3.67 1.32 3.34 2.64 3 4 C1.35 4.33 -0.3 4.66 -2 5 C-1.125 1.125 -1.125 1.125 0 0 Z " fill="#212111" transform="translate(151,163)"/>
<path d="M0 0 C3.36591866 1.44253657 5.51047079 3.33264727 8 6 C7.67 6.66 7.34 7.32 7 8 C3.83282717 6.41641358 2.26731682 5.54736301 0.6875 2.3125 C0.460625 1.549375 0.23375 0.78625 0 0 Z " fill="#B48A2A" transform="translate(84,149)"/>
<path d="M0 0 C4.95 1.98 4.95 1.98 10 4 C10 4.33 10 4.66 10 5 C3.6 5.49230769 3.6 5.49230769 0.5625 3 C0.046875 2.34 -0.46875 1.68 -1 1 C-0.67 0.67 -0.34 0.34 0 0 Z " fill="#1D1D0C" transform="translate(54,142)"/>
<path d="M0 0 C0.66 0 1.32 0 2 0 C2 3.3 2 6.6 2 10 C1.01 10.495 1.01 10.495 0 11 C-0.19406478 9.35492782 -0.38007935 7.70890406 -0.5625 6.0625 C-0.66691406 5.14597656 -0.77132812 4.22945312 -0.87890625 3.28515625 C-0.91886719 2.53105469 -0.95882812 1.77695313 -1 1 C-0.67 0.67 -0.34 0.34 0 0 Z " fill="#171709" transform="translate(131,132)"/>
<path d="M0 0 C0.66 0 1.32 0 2 0 C1.67 2.64 1.34 5.28 1 8 C0.01 8 -0.98 8 -2 8 C-1.125 2.25 -1.125 2.25 0 0 Z " fill="#1C1C08" transform="translate(130,116)"/>
<path d="M0 0 C0.99 0.33 1.98 0.66 3 1 C2.67 4.3 2.34 7.6 2 11 C-0.10814567 6.78370866 -0.17700355 4.60209225 0 0 Z " fill="#161607" transform="translate(181,80)"/>
<path d="M0 0 C0.33 0 0.66 0 1 0 C1.25 5.625 1.25 5.625 -1 9 C-1.66 9 -2.32 9 -3 9 C-2.5020163 5.26512223 -2.12508244 3.18762365 0 0 Z " fill="#201F0E" transform="translate(54,74)"/>
<path d="M0 0 C0.99 0 1.98 0 3 0 C3 0.99 3 1.98 3 3 C4.32 2.34 5.64 1.68 7 1 C5.35 2.65 3.7 4.3 2 6 C1.01 5.34 0.02 4.68 -1 4 C-0.67 2.68 -0.34 1.36 0 0 Z " fill="#25270E" transform="translate(101,62)"/>
<path d="M0 0 C0.33 0 0.66 0 1 0 C1 1.65 1 3.3 1 5 C-1.97 5 -4.94 5 -8 5 C-7 3 -7 3 -4 1.9375 C-2.515 1.4734375 -2.515 1.4734375 -1 1 C-0.67 0.67 -0.34 0.34 0 0 Z " fill="#1A1A0A" transform="translate(105,36)"/>
<path d="M0 0 C3.3 0 6.6 0 10 0 C10 0.66 10 1.32 10 2 C8.1875 3.0625 8.1875 3.0625 6 4 C5.01 3.67 4.02 3.34 3 3 C3.33 2.67 3.66 2.34 4 2 C2.68 1.34 1.36 0.68 0 0 Z " fill="#A68027" transform="translate(128,151)"/>
<path d="M0 0 C0.33 0 0.66 0 1 0 C1 3.3 1 6.6 1 10 C-0.32 9.67 -1.64 9.34 -3 9 C-2.5020163 5.26512223 -2.12508244 3.18762365 0 0 Z " fill="#5A4917" transform="translate(62,126)"/>
<path d="M0 0 C1.65 0 3.3 0 5 0 C4.875 1.875 4.875 1.875 4 4 C0.9375 5.25 0.9375 5.25 -2 6 C-2.33 5.01 -2.66 4.02 -3 3 C-1.68 2.67 -0.36 2.34 1 2 C0.67 1.34 0.34 0.68 0 0 Z " fill="#23260A" transform="translate(117,117)"/>
<path d="M0 0 C0.66 0.99 1.32 1.98 2 3 C0.09598862 4.90401138 -1.33425686 5.93520439 -4.046875 6.19921875 C-6.03233273 6.1886578 -8.0169914 6.09915043 -10 6 C-10 5.67 -10 5.34 -10 5 C-7.69 5 -5.38 5 -3 5 C-2.690625 4.360625 -2.38125 3.72125 -2.0625 3.0625 C-1 1 -1 1 0 0 Z " fill="#2F3214" transform="translate(100,107)"/>
<path d="M0 0 C0.91058531 3.07322544 1.08886184 5.80097361 1 9 C0.01 8.67 -0.98 8.34 -2 8 C-2 8.66 -2 9.32 -2 10 C-2.66 10 -3.32 10 -4 10 C-2.8905928 6.51329166 -1.73662334 3.22515763 0 0 Z " fill="#2D2C1D" transform="translate(24,57)"/>
<path d="M0 0 C3.32993034 3.82941989 5.05324525 8.37522222 7 13 C6.01 13.33 5.02 13.66 4 14 C3.896875 13.29875 3.79375 12.5975 3.6875 11.875 C3.08490202 8.87432137 3.08490202 8.87432137 1.4375 5.875 C0 3 0 3 0 0 Z " fill="#2B2919" transform="translate(64,36)"/>
<path d="M0 0 C3.3 0 6.6 0 10 0 C10 0.66 10 1.32 10 2 C6.33694766 2.74926071 3.57644848 3.2380014 0 2 C0 1.34 0 0.68 0 0 Z " fill="#313021" transform="translate(85,13)"/>
<path d="M0 0 C1.485 0.99 1.485 0.99 3 2 C3.1875 5.125 3.1875 5.125 3 8 C2.01 8.33 1.02 8.66 0 9 C-0.84454356 5.62182575 -1.10844919 3.32534757 0 0 Z " fill="#D7C99C" transform="translate(130,124)"/>
<path d="M0 0 C3.875 1.75 3.875 1.75 5 4 C4.01 4 3.02 4 2 4 C1.67 5.32 1.34 6.64 1 8 C0 7 0 7 -0.0625 3.4375 C-0.041875 2.303125 -0.02125 1.16875 0 0 Z " fill="#151406" transform="translate(43,112)"/>
<path d="M0 0 C1.65 0 3.3 0 5 0 C5 0.99 5 1.98 5 3 C3.02 3.33 1.04 3.66 -1 4 C-0.67 2.68 -0.34 1.36 0 0 Z " fill="#1D1D0E" transform="translate(74,16)"/>
<path d="M0 0 C1.4370809 -0.05422947 2.87475462 -0.09289723 4.3125 -0.125 C5.11300781 -0.14820313 5.91351563 -0.17140625 6.73828125 -0.1953125 C9 0 9 0 12 2 C7.48281619 3.36884358 4.41225737 2.47075246 0 1 C0 0.67 0 0.34 0 0 Z " fill="#1E1D0D" transform="translate(108,181)"/>
<path d="M0 0 C1.65 1.65 3.3 3.3 5 5 C4.01 5.495 4.01 5.495 3 6 C2.34 5.67 1.68 5.34 1 5 C0.34 5.99 -0.32 6.98 -1 8 C-1.04241723 5.66705225 -1.04092937 3.33297433 -1 1 C-0.67 0.67 -0.34 0.34 0 0 Z " fill="#373523" transform="translate(67,131)"/>
<path d="M0 0 C0.99 0 1.98 0 3 0 C4.38671875 1.53125 4.38671875 1.53125 5.6875 3.5 C6.12449219 4.1496875 6.56148437 4.799375 7.01171875 5.46875 C7.33785156 5.9740625 7.66398437 6.479375 8 7 C4.66272214 5.82744291 2.22562513 4.81131596 0 2 C0 1.34 0 0.68 0 0 Z " fill="#171605" transform="translate(47,126)"/>
<path d="M0 0 C0.33 0 0.66 0 1 0 C1.33 2.64 1.66 5.28 2 8 C1.01 8.66 0.02 9.32 -1 10 C-2.15837626 5.94568308 -1.83691257 3.78187881 0 0 Z " fill="#D1C499" transform="translate(65,113)"/>
<path d="M0 0 C-3.8503105 2.56687367 -5.58569763 1.83288724 -10 1 C-6.1496895 -1.56687367 -4.41430237 -0.83288724 0 0 Z " fill="#181709" transform="translate(127,17)"/>
<path d="M0 0 C-0.33 0.66 -0.66 1.32 -1 2 C-0.34 2.33 0.32 2.66 1 3 C-2.3 2.34 -5.6 1.68 -9 1 C-9 0.67 -9 0.34 -9 0 C-5.62182575 -0.84454356 -3.32534757 -1.10844919 0 0 Z " fill="#423F2C" transform="translate(122,180)"/>
<path d="M0 0 C0.66 0 1.32 0 2 0 C2 1.32 2 2.64 2 4 C1.34 4 0.68 4 0 4 C-0.33 6.64 -0.66 9.28 -1 12 C-1.33 12 -1.66 12 -2 12 C-2.17835515 7.45194365 -1.99785435 4.1205746 0 0 Z " fill="#9F7B26" transform="translate(53,104)"/>
<path d="M0 0 C0.33 0.66 0.66 1.32 1 2 C1.66 2 2.32 2 3 2 C2.67 4.31 2.34 6.62 2 9 C1.01 8.34 0.02 7.68 -1 7 C-0.67 4.69 -0.34 2.38 0 0 Z " fill="#393723" transform="translate(50,81)"/>
<path d="M0 0 C2.88575819 0.39803561 3.82189513 0.79009069 5.75 3.0625 C6.1625 3.701875 6.575 4.34125 7 5 C4.625 4.75 4.625 4.75 2 4 C0.6875 1.9375 0.6875 1.9375 0 0 Z " fill="#212010" transform="translate(135,63)"/>
<path d="M0 0 C1.98 0.66 3.96 1.32 6 2 C5.67 2.99 5.34 3.98 5 5 C2.69 4.01 0.38 3.02 -2 2 C-1.34 1.34 -0.68 0.68 0 0 Z " fill="#DACCA1" transform="translate(83,143)"/>
<path d="M0 0 C0.99 0 1.98 0 3 0 C3 1.32 3 2.64 3 4 C2.34 4 1.68 4 1 4 C0.34 5.32 -0.32 6.64 -1 8 C-0.67 5.36 -0.34 2.72 0 0 Z " fill="#1D1C09" transform="translate(52,100)"/>
<path d="M0 0 C0.66 0.33 1.32 0.66 2 1 C2 2.65 2 4.3 2 6 C1.34 6 0.68 6 0 6 C-0.33 6.66 -0.66 7.32 -1 8 C-1.04241723 5.66705225 -1.04092937 3.33297433 -1 1 C-0.67 0.67 -0.34 0.34 0 0 Z " fill="#151506" transform="translate(36,56)"/>
<path d="M0 0 C3.35595828 0.59927826 5.37801226 1.84622436 8 4 C5.36 4 2.72 4 0 4 C0 2.68 0 1.36 0 0 Z " fill="#2A2A19" transform="translate(53,168)"/>
<path d="M0 0 C0.66 0 1.32 0 2 0 C2.66 1.98 3.32 3.96 4 6 C2.35 6 0.7 6 -1 6 C-0.67 4.02 -0.34 2.04 0 0 Z " fill="#2A2814" transform="translate(121,145)"/>
<path d="M0 0 C0.99 0.33 1.98 0.66 3 1 C3 1.99 3 2.98 3 4 C1.68 4.33 0.36 4.66 -1 5 C-1 1 -1 1 0 0 Z " fill="#E1D2A6" transform="translate(144,41)"/>
</svg>
