<svg width="200" height="200" viewBox="0 0 200 200" fill="none" xmlns="http://www.w3.org/2000/svg">
<g clip-path="url(#clip0_2215_1305)">
<rect width="200" height="200" fill="#000F0E"/>
<g opacity="0.3">
<path d="M160.6 75.4196L159.612 73.4892L166.313 65.8081L156.168 66.7631L155.18 64.8328L165.747 59.4158L166.519 60.9239L158.654 64.9557L168.133 64.0758L168.781 65.3426L162.538 72.5414L170.403 68.5096L171.167 70.0026L160.6 75.4196Z" fill="#23F7DD"/>
<path d="M158.974 50.2584L159.97 51.5655L158.769 52.4807C159.329 52.3382 159.868 52.3743 160.387 52.5892C160.907 52.8041 161.361 53.1676 161.752 53.6796C162.333 54.4432 162.551 55.2505 162.403 56.1016C162.248 56.9436 161.766 57.6731 160.957 58.2901L156.774 61.4779L155.778 60.1709L159.704 57.1784C160.244 56.7671 160.571 56.2909 160.684 55.7498C160.791 55.1997 160.663 54.6866 160.3 54.2105C159.897 53.6804 159.371 53.3921 158.724 53.3456C158.07 53.29 157.447 53.4884 156.853 53.9409L153.17 56.7482L152.173 55.4412L158.974 50.2584Z" fill="#23F7DD"/>
<path d="M147.721 55.9537L146.592 54.7595L155.408 46.4292L156.537 47.6234L147.721 55.9537Z" fill="#23F7DD"/>
<path d="M143.721 50.7749L145.51 48.7788L143.629 47.0949L144.58 46.0337L146.461 47.7176L149.314 44.5339C149.616 44.1971 149.761 43.8569 149.75 43.5133C149.74 43.1698 149.583 42.8625 149.28 42.5913L148.384 41.7889L149.335 40.7277L150.319 41.6092C150.967 42.1893 151.319 42.8379 151.374 43.5551C151.42 44.2647 151.153 44.9437 150.572 45.5922L147.685 48.8138L148.985 49.9778L148.034 51.039L146.734 49.875L144.945 51.8711L143.721 50.7749Z" fill="#23F7DD"/>
<path d="M142.02 45.8771L140.709 44.8865L145.866 38.0681L147.178 39.0587L142.02 45.8771ZM138.482 47.69L139.731 46.0395L141.191 47.1425L139.942 48.793L138.482 47.69Z" fill="#23F7DD"/>
<path d="M139.378 43.7949L137.934 42.9076L139.412 36.2104L134.109 40.5563L132.651 39.6602L139.804 34.0225L141.19 34.8743L139.378 43.7949Z" fill="#23F7DD"/>
<path d="M131.458 29.5443C132.243 29.8926 132.852 30.3856 133.285 31.0233C133.709 31.6563 133.942 32.3538 133.987 33.1156C134.031 33.8774 133.89 34.625 133.563 35.3584C133.237 36.0918 132.791 36.6916 132.224 37.1578C131.654 37.6343 131.006 37.9222 130.282 38.0213C129.553 38.1308 128.801 38.0137 128.027 37.67C127.252 37.3263 126.662 36.8602 126.256 36.2719C125.846 35.6939 125.622 35.0567 125.586 34.3602C125.545 33.6741 125.674 32.9954 125.973 32.324C126.065 32.1174 126.163 31.9257 126.266 31.749L132.23 34.3955C132.499 33.6243 132.512 32.9129 132.271 32.2614C132.029 31.6098 131.567 31.1328 130.886 30.8303C130.318 30.5783 129.8 30.4909 129.333 30.568C128.866 30.6452 128.477 30.8807 128.165 31.2744L126.663 30.6076C127.166 29.8661 127.851 29.397 128.718 29.2002C129.584 29.0034 130.498 29.1181 131.458 29.5443ZM127.263 33.5089C127.048 34.131 127.051 34.7075 127.273 35.2386C127.494 35.7697 127.924 36.1773 128.565 36.4614C129.174 36.7318 129.751 36.7836 130.295 36.6169C130.824 36.4559 131.29 36.0753 131.694 35.475L127.263 33.5089Z" fill="#23F7DD"/>
<path d="M119.208 32.8127C120.526 33.2173 121.504 32.3826 122.144 30.3086L123.284 26.6141L124.855 27.0968L122.336 35.2634L120.765 34.7808L121.249 33.209C120.896 33.7036 120.508 34.022 120.086 34.1643C119.663 34.3066 119.166 34.2899 118.593 34.1141L117.605 33.8105L118.025 32.4494L119.208 32.8127Z" fill="#23F7DD"/>
<path d="M114.884 24.367C115.871 24.5566 116.621 24.9653 117.133 25.593C117.645 26.2206 117.842 26.9837 117.726 27.8822L116.211 27.5913C116.259 27.1056 116.148 26.6987 115.877 26.3706C115.596 26.0403 115.178 25.8219 114.623 25.7154C114.157 25.6259 113.758 25.6644 113.427 25.831C113.084 25.9954 112.883 26.233 112.823 26.5437C112.762 26.8545 112.805 27.1101 112.951 27.3106C113.085 27.5091 113.273 27.6661 113.516 27.7817C113.756 27.9084 114.096 28.0542 114.536 28.2193C115.116 28.4342 115.583 28.6389 115.937 28.8334C116.277 29.0369 116.548 29.3307 116.75 29.7147C116.941 30.0967 116.976 30.5984 116.856 31.2198C116.717 31.9412 116.327 32.4705 115.686 32.8079C115.045 33.1453 114.286 33.2298 113.41 33.0615C112.466 32.8804 111.748 32.4892 111.254 31.888C110.747 31.2958 110.542 30.6004 110.639 29.8018L112.17 30.0958C112.14 30.5504 112.281 30.9227 112.593 31.2128C112.892 31.5119 113.247 31.7009 113.658 31.7797C114.101 31.865 114.476 31.8333 114.781 31.6846C115.086 31.536 115.27 31.3008 115.332 30.9789C115.409 30.5794 115.312 30.2788 115.04 30.077C114.755 29.8842 114.305 29.6826 113.689 29.4724C113.085 29.2643 112.601 29.0564 112.239 28.8487C111.876 28.6409 111.591 28.3273 111.385 27.9078C111.165 27.4973 111.12 26.9536 111.251 26.2766C111.399 25.5109 111.806 24.9559 112.471 24.6117C113.125 24.2653 113.929 24.1838 114.884 24.367Z" fill="#23F7DD"/>
<path d="M105.587 29.318L108.908 35.3883L107.08 35.281L104.586 30.7196L101.563 34.9572L99.7179 34.8489L103.743 29.1928L100.361 23L102.206 23.1083L104.761 27.7922L107.859 23.4401L109.704 23.5484L105.587 29.318Z" fill="#23F7DD"/>
<path d="M94.2681 35.2206L86.7362 36.3399L86.5089 34.7974L92.2961 33.9374L91.7795 30.4333L87.0994 31.1288L86.872 29.5863L91.5521 28.8908L90.7933 23.7436L92.5379 23.4843L94.2681 35.2206Z" fill="#23F7DD"/>
<path d="M78.66 26.1856C79.4727 25.9432 80.2518 25.9053 80.9973 26.072C81.7461 26.2495 82.3996 26.6027 82.9579 27.1317C83.5054 27.6639 83.8999 28.3361 84.1413 29.1482C84.3827 29.9603 84.4195 30.7392 84.2518 31.4847C84.0733 32.2334 83.7175 32.8818 83.1844 33.4298C82.6545 33.9887 81.9832 34.3893 81.1705 34.6316C80.3578 34.874 79.5771 34.9065 78.8283 34.729C78.0828 34.5623 77.4363 34.2129 76.8888 33.6807C76.3413 33.1484 75.9469 32.4763 75.7055 31.6641C75.4641 30.852 75.4272 30.0732 75.5949 29.3277C75.7626 28.5822 76.1114 27.93 76.6413 27.3712C77.1744 26.8231 77.8473 26.4279 78.66 26.1856ZM82.5321 29.6281C82.2843 28.7944 81.8431 28.1833 81.2086 27.7949C80.5633 27.4097 79.8506 27.3335 79.0704 27.5662C78.301 27.7956 77.7568 28.2467 77.4377 28.9195C77.1078 29.5956 77.0668 30.3505 77.3146 31.1842C77.5625 32.018 78.009 32.6275 78.6544 33.0126C79.2889 33.401 79.9908 33.4805 80.7601 33.251C81.5403 33.0184 82.0954 32.564 82.4253 31.888C82.7443 31.2152 82.78 30.4619 82.5321 29.6281Z" fill="#23F7DD"/>
<path d="M64.8219 31.8754L66.3129 31.1795L66.9498 32.5463C66.9305 31.9694 67.0816 31.4502 67.403 30.9886C67.7243 30.5269 68.1771 30.1598 68.7612 29.8872C69.6323 29.4807 70.4678 29.4397 71.2679 29.7643C72.0577 30.0937 72.6673 30.7192 73.0967 31.6406L75.3152 36.4014L73.8241 37.0973L71.7416 32.6283C71.4553 32.014 71.06 31.594 70.5555 31.3682C70.0408 31.1472 69.5119 31.1635 68.9688 31.417C68.3642 31.6992 67.9697 32.1513 67.7855 32.7733C67.591 33.4 67.6512 34.0513 67.966 34.727L69.9197 38.9196L68.4287 39.6155L64.8219 31.8754Z" fill="#23F7DD"/>
<path d="M66.3015 40.7941L64.9272 41.6991L64.0982 40.4396C64.2011 41.0074 64.1319 41.5399 63.8904 42.037C63.6395 42.5403 63.2448 42.9692 62.7064 43.3238C61.9036 43.8525 61.0874 44.0113 60.258 43.8002C59.419 43.5953 58.7202 43.0683 58.1613 42.2192L55.2738 37.8322L56.6481 36.9272L59.3586 41.0453C59.7312 41.6114 60.1882 41.9663 60.7297 42.1101C61.2617 42.2602 61.778 42.1703 62.2786 41.8407C62.8359 41.4737 63.1605 40.9692 63.2524 40.3271C63.3443 39.6851 63.1854 39.0528 62.7755 38.4301L60.2327 34.5667L61.607 33.6617L66.3015 40.7941Z" fill="#23F7DD"/>
<path d="M49.6834 42.2823C50.3238 41.7089 51 41.3536 51.7121 41.2163C52.4233 41.0949 53.1196 41.1688 53.801 41.438C54.4815 41.7231 55.1081 42.1854 55.6808 42.8248C56.2536 43.4641 56.6405 44.1334 56.8417 44.8326C57.0419 45.5478 57.0389 46.2479 56.8326 46.9329C56.6254 47.6339 56.2059 48.2673 55.5739 48.8331C55.1442 49.2179 54.6658 49.472 54.1386 49.5953C53.6105 49.7346 53.1102 49.7354 52.6376 49.5977L55.8591 53.1942L54.6332 54.2919L46.5511 45.2689L47.777 44.1712L48.6248 45.1177C48.5322 44.6245 48.5804 44.1189 48.7694 43.601C48.9659 43.0915 49.2706 42.6519 49.6834 42.2823ZM54.4423 43.9338C53.847 43.2691 53.1915 42.8934 52.4759 42.8064C51.7519 42.727 51.095 42.9513 50.5052 43.4794C49.9154 44.0075 49.6245 44.6319 49.6323 45.3526C49.6317 46.0808 49.9291 46.7773 50.5244 47.4419C51.1197 48.1065 51.7794 48.4786 52.5034 48.558C53.219 48.6449 53.8717 48.4244 54.4615 47.8963C55.0513 47.3682 55.3465 46.74 55.347 46.0118C55.3392 45.2911 55.0376 44.5984 54.4423 43.9338Z" fill="#23F7DD"/>
<path d="M42.3523 49.7206C42.9114 49.053 43.5435 48.6676 44.2486 48.5645C44.9537 48.4614 45.6008 48.6562 46.19 49.149C46.8138 49.6708 47.1152 50.3136 47.0942 51.0775C47.082 51.8487 46.7491 52.6244 46.0956 53.4048L44.9521 54.7704C44.8287 54.9178 44.7726 55.0551 44.7838 55.1825C44.7877 55.3185 44.8504 55.4372 44.9717 55.5387C45.3789 55.8793 45.8235 56.008 46.3057 55.9248C46.7807 55.8503 47.2251 55.5659 47.6389 55.0717C48.0092 54.6295 48.2038 54.1508 48.2226 53.6358C48.2341 53.1294 48.0782 52.7262 47.7548 52.4262L48.735 51.2557C49.1305 51.6455 49.3919 52.1074 49.5192 52.6415C49.6552 53.1829 49.6442 53.7413 49.4863 54.3169C49.3371 54.8998 49.0483 55.447 48.6199 55.9586C48.1552 56.5135 47.641 56.9164 47.0773 57.1673C46.5223 57.4255 45.9605 57.5158 45.3919 57.4383C44.832 57.368 44.3138 57.1336 43.8373 56.735L39.6137 53.2021L40.6701 51.9405L41.7358 52.8319C41.5112 52.3787 41.454 51.8665 41.5642 51.2951C41.6757 50.7397 41.9384 50.2149 42.3523 49.7206ZM45.1704 50.4193C44.8759 50.1729 44.5389 50.0827 44.1595 50.1487C43.7888 50.2219 43.451 50.4406 43.146 50.8048C42.6523 51.3944 42.4451 52.0025 42.5244 52.6291C42.5964 53.2644 42.9357 53.8356 43.5421 54.3429L43.6981 54.4734L45.1139 52.7826C45.477 52.3491 45.6634 51.9153 45.6733 51.4813C45.6846 51.0632 45.517 50.7092 45.1704 50.4193Z" fill="#23F7DD"/>
<path d="M45.7017 64.1632L43.4594 62.7006L42.077 64.8164L40.8848 64.0388L42.2673 61.9231L38.6909 59.5904C38.3124 59.3435 37.9542 59.2516 37.6161 59.3147C37.2781 59.3777 36.9977 59.5796 36.775 59.9204L36.1163 60.9286L34.9242 60.151L35.6479 59.0434C36.1241 58.3145 36.7127 57.8681 37.4135 57.7042C38.1082 57.5497 38.8197 57.7101 39.5483 58.1852L43.1672 60.5457L44.1229 59.0831L45.315 59.8607L44.3594 61.3233L46.6017 62.7858L45.7017 64.1632Z" fill="#23F7DD"/>
<path d="M41.1144 66.592L40.3319 68.0392L32.8154 63.9846L33.5979 62.5373L41.1144 66.592ZM43.4384 69.8112L41.619 68.8298L42.4902 67.2184L44.3097 68.1999L43.4384 69.8112Z" fill="#23F7DD"/>
<path d="M29.5955 70.5649C29.9168 69.7802 30.3764 69.1496 30.9744 68.6732C31.5828 68.2011 32.2685 67.913 33.0313 67.8092C33.7899 67.7158 34.5614 67.8292 35.3459 68.1494C36.1305 68.4696 36.7606 68.9282 37.2364 69.5254C37.7079 70.133 37.9899 70.8159 38.0823 71.5741C38.1852 72.3366 38.076 73.1102 37.7547 73.8949C37.4334 74.6796 36.9685 75.308 36.3601 75.7802C35.7621 76.2566 35.0839 76.5415 34.3253 76.6349C33.5668 76.7283 32.7952 76.6149 32.0107 76.2947C31.2261 75.9745 30.596 75.5158 30.1202 74.9187C29.6444 74.3215 29.355 73.6417 29.2522 72.8793C29.1597 72.1211 29.2742 71.3496 29.5955 70.5649ZM34.7097 69.7031C33.9043 69.3744 33.151 69.3356 32.4499 69.5868C31.7446 69.8484 31.2377 70.3559 30.9292 71.1092C30.625 71.8521 30.635 72.5583 30.959 73.2279C31.2788 73.9079 31.8414 74.4122 32.6469 74.741C33.4523 75.0697 34.2078 75.1032 34.9131 74.8416C35.6142 74.5904 36.1168 74.0934 36.421 73.3505C36.7295 72.5972 36.7238 71.8806 36.404 71.2005C36.08 70.531 35.5152 70.0318 34.7097 69.7031Z" fill="#23F7DD"/>
<path d="M35.4295 79.6785L35.0358 81.2754L33.5706 80.9162C34.0323 81.2621 34.3436 81.6993 34.5043 82.2275C34.6623 82.7667 34.6642 83.3491 34.51 83.9747C34.28 84.9076 33.7887 85.5786 33.036 85.9876C32.2807 86.4076 31.4092 86.4966 30.4214 86.2544L25.3179 85.0032L25.7116 83.4063L30.5023 84.5808C31.1608 84.7423 31.7378 84.6917 32.2332 84.429C32.7258 84.1774 33.0439 83.7607 33.1873 83.179C33.3469 82.5315 33.2422 81.9413 32.8731 81.4086C32.504 80.8758 31.9573 80.5206 31.2329 80.3431L26.7385 79.2412L27.1323 77.6443L35.4295 79.6785Z" fill="#23F7DD"/>
<path d="M26.9298 95.5305C26.9559 95.0566 27.1418 94.6591 27.4878 94.3381C27.8443 94.029 28.2596 93.8872 28.7337 93.9126C29.2077 93.938 29.5994 94.1231 29.9088 94.4679C30.2288 94.8245 30.3758 95.2398 30.3498 95.7138C30.3237 96.1877 30.1324 96.5792 29.7758 96.8883C29.4299 97.2093 29.02 97.3571 28.5459 97.3317C28.0719 97.3063 27.6748 97.1152 27.3548 96.7586C27.0455 96.4138 26.9038 96.0045 26.9298 95.5305Z" fill="#23F7DD"/>
<path d="M24.8379 105.682L28.2058 108.527L27.514 100.217L28.9334 100.098L29.6252 108.408L32.4911 105.019L33.478 105.837L29.125 110.984L24 106.655L24.8379 105.682Z" fill="#23F7DD"/>
<path d="M28.5932 115.681C28.4892 115.218 28.56 114.785 28.8055 114.383C29.0646 113.988 29.4257 113.739 29.8889 113.634C30.3522 113.53 30.7796 113.601 31.1713 113.848C31.5765 114.104 31.8311 114.464 31.9351 114.927C32.0391 115.39 31.9616 115.818 31.7025 116.213C31.457 116.616 31.1026 116.869 30.6394 116.974C30.1762 117.079 29.742 117.003 29.3368 116.747C28.9451 116.499 28.6973 116.144 28.5932 115.681Z" fill="#23F7DD"/>
<path d="M39.4464 121.613L40.3702 123.575L33.4182 131.031L43.5891 130.412L44.5129 132.374L33.7727 137.438L33.051 135.905L41.0448 132.136L31.5426 132.702L30.9364 131.414L37.4145 124.426L29.4208 128.195L28.7063 126.678L39.4464 121.613Z" fill="#23F7DD"/>
<path d="M40.2383 146.815L39.2861 145.476L40.5165 144.601C39.9524 144.725 39.4145 144.671 38.9027 144.439C38.3909 144.207 37.9484 143.829 37.5754 143.304C37.0191 142.521 36.8289 141.707 37.0048 140.862C37.1871 140.025 37.6931 139.312 38.5226 138.722L42.8084 135.674L43.7606 137.014L39.7375 139.875C39.1845 140.268 38.8422 140.733 38.7106 141.27C38.5855 141.816 38.6964 142.334 39.0432 142.821C39.4294 143.365 39.9449 143.67 40.5899 143.738C41.2415 143.815 41.8714 143.638 42.4797 143.205L46.254 140.521L47.2062 141.86L40.2383 146.815Z" fill="#23F7DD"/>
<path d="M51.6734 141.495L52.7621 142.726L43.6749 150.761L42.5862 149.53L51.6734 141.495Z" fill="#23F7DD"/>
<path d="M55.4992 146.804L53.6454 148.74L55.4693 150.485L54.4837 151.514L52.6598 149.769L49.7031 152.857C49.3903 153.183 49.2335 153.519 49.2328 153.862C49.2321 154.206 49.3786 154.518 49.6724 154.799L50.5415 155.631L49.5559 156.66L48.6011 155.747C47.9728 155.145 47.643 154.485 47.6117 153.767C47.5887 153.056 47.8783 152.386 48.4806 151.757L51.4725 148.633L50.2117 147.426L51.1972 146.397L52.458 147.604L54.3118 145.668L55.4992 146.804Z" fill="#23F7DD"/>
<path d="M57.0366 151.756L58.3144 152.789L52.9341 159.433L51.6562 158.4L57.0366 151.756ZM60.6327 150.061L59.3304 151.669L57.9076 150.518L59.21 148.91L60.6327 150.061Z" fill="#23F7DD"/>
<path d="M59.6089 153.924L61.0222 154.859L59.3236 161.504L64.7675 157.336L66.195 158.28L58.8591 163.678L57.5023 162.78L59.6089 153.924Z" fill="#23F7DD"/>
<path d="M67.0516 168.43C66.2788 168.056 65.6864 167.543 65.2743 166.891C64.8725 166.244 64.662 165.539 64.643 164.777C64.624 164.014 64.7898 163.271 65.1403 162.549C65.4909 161.827 65.9567 161.242 66.538 160.795C67.1242 160.337 67.7808 160.071 68.508 159.996C69.24 159.911 69.9874 160.053 70.7501 160.422C71.5127 160.791 72.0871 161.276 72.4733 161.878C72.8644 162.469 73.0666 163.113 73.0798 163.811C73.0979 164.498 72.9465 165.172 72.6256 165.833C72.5268 166.036 72.4229 166.225 72.3137 166.398L66.4412 163.555C66.1468 164.317 66.1096 165.028 66.3296 165.687C66.5496 166.346 66.9952 166.838 67.6663 167.163C68.2256 167.434 68.74 167.539 69.2094 167.477C69.6789 167.415 70.0757 167.193 70.3998 166.809L71.8794 167.526C71.3519 168.25 70.6519 168.696 69.7792 168.864C68.9065 169.032 67.9973 168.887 67.0516 168.43ZM71.3752 164.606C71.6107 163.991 71.6267 163.415 71.4233 162.877C71.2198 162.339 70.8029 161.917 70.1724 161.612C69.5725 161.321 68.9978 161.251 68.4485 161.399C67.9143 161.543 67.4357 161.908 67.0128 162.494L71.3752 164.606Z" fill="#23F7DD"/>
<path d="M79.403 165.569C78.0994 165.12 77.0936 165.922 76.3855 167.974L75.1242 171.629L73.5694 171.095L76.3576 163.015L77.9123 163.55L77.3757 165.105C77.7455 164.622 78.1437 164.317 78.5705 164.188C78.9972 164.06 79.4938 164.093 80.0601 164.288L81.0378 164.624L80.5731 165.971L79.403 165.569Z" fill="#23F7DD"/>
<path d="M83.4448 174.153C82.464 173.931 81.7282 173.498 81.2376 172.853C80.747 172.209 80.5746 171.44 80.7205 170.546L82.2249 170.886C82.1609 171.37 82.2586 171.781 82.5179 172.118C82.7883 172.457 83.199 172.689 83.7501 172.814C84.2129 172.919 84.6128 172.893 84.9496 172.738C85.2974 172.585 85.5065 172.354 85.5768 172.046C85.6471 171.737 85.613 171.48 85.4743 171.275C85.3467 171.072 85.1637 170.909 84.9252 170.785C84.6893 170.651 84.3542 170.494 83.92 170.314C83.3474 170.08 82.8876 169.86 82.5405 169.654C82.207 169.439 81.9456 169.137 81.7565 168.746C81.5784 168.358 81.5596 167.856 81.7003 167.238C81.8636 166.522 82.271 166.006 82.9225 165.69C83.5741 165.374 84.3352 165.314 85.2059 165.512C86.1427 165.724 86.8479 166.139 87.3215 166.756C87.8086 167.365 87.9905 168.066 87.8673 168.861L86.3463 168.517C86.3917 168.064 86.2632 167.687 85.9608 167.386C85.6719 167.078 85.3235 166.877 84.9157 166.785C84.4749 166.685 84.0996 166.704 83.7899 166.842C83.4801 166.981 83.2888 167.21 83.216 167.53C83.1256 167.926 83.2128 168.23 83.4777 168.441C83.7562 168.643 84.1995 168.859 84.8076 169.09C85.4047 169.318 85.881 169.542 86.2366 169.761C86.5922 169.981 86.8663 170.304 87.0589 170.73C87.2651 171.147 87.2916 171.692 87.1383 172.365C86.965 173.125 86.5403 173.666 85.8642 173.988C85.1991 174.313 84.3927 174.368 83.4448 174.153Z" fill="#23F7DD"/>
<path d="M92.9 169.512L89.7817 163.335L91.605 163.503L93.9471 168.145L97.1086 164.009L98.9488 164.178L94.7386 169.698L97.9134 176L96.0732 175.831L93.6745 171.065L90.4345 175.312L88.5943 175.143L92.9 169.512Z" fill="#23F7DD"/>
<path d="M104.408 163.987L111.972 163.118L112.148 164.667L106.336 165.335L106.736 168.855L111.437 168.314L111.613 169.864L106.912 170.404L107.5 175.573L105.748 175.775L104.408 163.987Z" fill="#23F7DD"/>
<path d="M119.707 173.534C118.887 173.75 118.107 173.762 117.368 173.57C116.625 173.368 115.984 172.994 115.443 172.446C114.914 171.896 114.542 171.211 114.327 170.392C114.113 169.572 114.102 168.792 114.294 168.053C114.497 167.31 114.875 166.674 115.425 166.144C115.974 165.603 116.658 165.225 117.478 165.009C118.298 164.794 119.08 164.787 119.822 164.99C120.562 165.181 121.196 165.552 121.726 166.102C122.255 166.652 122.627 167.337 122.841 168.156C123.056 168.976 123.067 169.756 122.875 170.495C122.682 171.235 122.312 171.875 121.764 172.416C121.213 172.946 120.528 173.319 119.707 173.534ZM115.951 169.965C116.172 170.807 116.592 171.432 117.213 171.841C117.846 172.248 118.555 172.348 119.343 172.141C120.119 171.937 120.678 171.504 121.019 170.842C121.371 170.177 121.437 169.424 121.217 168.583C120.997 167.741 120.571 167.117 119.939 166.711C119.318 166.302 118.619 166.199 117.842 166.403C117.055 166.61 116.485 167.045 116.133 167.71C115.792 168.372 115.731 169.124 115.951 169.965Z" fill="#23F7DD"/>
<path d="M133.726 168.305L132.212 168.952L131.621 167.564C131.621 168.142 131.453 168.656 131.117 169.106C130.78 169.557 130.316 169.909 129.723 170.162C128.839 170.54 128.002 170.553 127.214 170.202C126.435 169.847 125.847 169.201 125.448 168.266L123.388 163.434L124.902 162.788L126.835 167.324C127.101 167.947 127.482 168.38 127.979 168.623C128.486 168.86 129.015 168.862 129.566 168.626C130.18 168.364 130.589 167.925 130.794 167.31C131.009 166.69 130.97 166.037 130.678 165.351L128.864 161.096L130.377 160.45L133.726 168.305Z" fill="#23F7DD"/>
<path d="M132.542 159.342L133.946 158.483L134.733 159.769C134.648 159.199 134.735 158.669 134.993 158.18C135.261 157.685 135.669 157.269 136.219 156.933C137.039 156.431 137.86 156.299 138.682 156.538C139.513 156.77 140.194 157.32 140.725 158.187L143.465 162.668L142.062 163.527L139.489 159.321C139.136 158.743 138.691 158.373 138.154 158.211C137.628 158.044 137.109 158.116 136.597 158.429C136.028 158.778 135.687 159.271 135.574 159.91C135.461 160.549 135.599 161.186 135.988 161.822L138.401 165.767L136.998 166.626L132.542 159.342Z" fill="#23F7DD"/>
<path d="M149.2 158.405C148.541 158.957 147.853 159.289 147.137 159.403C146.422 159.501 145.729 159.404 145.057 159.112C144.386 158.805 143.775 158.322 143.224 157.664C142.673 157.006 142.308 156.324 142.13 155.619C141.954 154.897 141.98 154.198 142.209 153.52C142.439 152.826 142.88 152.207 143.53 151.662C143.972 151.292 144.459 151.054 144.99 150.948C145.522 150.826 146.022 150.842 146.49 150.995L143.389 147.294L144.651 146.237L152.429 155.523L151.168 156.58L150.352 155.606C150.428 156.102 150.363 156.606 150.157 157.117C149.944 157.62 149.625 158.049 149.2 158.405ZM144.499 156.597C145.071 157.281 145.714 157.678 146.426 157.789C147.147 157.892 147.811 157.689 148.418 157.181C149.025 156.673 149.337 156.058 149.353 155.338C149.377 154.61 149.103 153.904 148.53 153.22C147.957 152.536 147.31 152.142 146.589 152.039C145.877 151.928 145.218 152.127 144.611 152.635C144.004 153.144 143.688 153.762 143.663 154.49C143.647 155.21 143.926 155.913 144.499 156.597Z" fill="#23F7DD"/>
<path d="M156.773 151.213C156.192 151.862 155.548 152.226 154.84 152.306C154.131 152.385 153.491 152.169 152.919 151.657C152.313 151.115 152.033 150.463 152.079 149.7C152.117 148.929 152.475 148.165 153.154 147.407L154.342 146.08C154.47 145.936 154.531 145.801 154.524 145.673C154.524 145.537 154.466 145.416 154.348 145.311C153.952 144.957 153.512 144.814 153.027 144.881C152.55 144.94 152.097 145.209 151.667 145.69C151.282 146.119 151.072 146.591 151.036 147.105C151.008 147.611 151.15 148.019 151.463 148.33L150.445 149.467C150.063 149.065 149.817 148.594 149.707 148.056C149.589 147.511 149.619 146.953 149.795 146.383C149.964 145.805 150.271 145.268 150.716 144.771C151.198 144.231 151.726 143.846 152.297 143.614C152.861 143.374 153.425 143.302 153.991 143.398C154.548 143.487 155.058 143.739 155.521 144.153L159.625 147.824L158.528 149.05L157.492 148.124C157.702 148.584 157.742 149.098 157.613 149.665C157.483 150.217 157.203 150.733 156.773 151.213ZM153.98 150.421C154.266 150.677 154.6 150.779 154.981 150.725C155.354 150.664 155.699 150.457 156.016 150.103C156.529 149.53 156.756 148.929 156.697 148.3C156.646 147.663 156.326 147.081 155.737 146.554L155.585 146.418L154.114 148.061C153.737 148.482 153.537 148.91 153.512 149.343C153.487 149.761 153.643 150.12 153.98 150.421Z" fill="#23F7DD"/>
<path d="M153.904 136.667L156.096 138.203L157.548 136.134L158.714 136.95L157.262 139.019L160.759 141.469C161.129 141.729 161.484 141.832 161.824 141.78C162.164 141.729 162.451 141.536 162.685 141.203L163.376 140.217L164.542 141.034L163.782 142.117C163.282 142.829 162.679 143.256 161.973 143.397C161.274 143.528 160.568 143.344 159.856 142.845L156.317 140.366L155.314 141.796L154.148 140.98L155.151 139.55L152.959 138.014L153.904 136.667Z" fill="#23F7DD"/>
<path d="M158.569 134.391L159.399 132.97L166.777 137.272L165.947 138.692L158.569 134.391ZM156.353 131.096L158.139 132.138L157.215 133.719L155.429 132.678L156.353 131.096Z" fill="#23F7DD"/>
<path d="M170.213 130.801C169.865 131.575 169.385 132.19 168.772 132.646C168.148 133.098 167.453 133.363 166.688 133.442C165.926 133.51 165.159 133.371 164.386 133.025C163.612 132.679 162.997 132.2 162.542 131.587C162.091 130.965 161.831 130.273 161.764 129.512C161.687 128.746 161.821 127.977 162.168 127.203C162.516 126.429 163.001 125.817 163.625 125.365C164.238 124.908 164.925 124.646 165.687 124.578C166.448 124.51 167.215 124.649 167.989 124.995C168.762 125.341 169.377 125.82 169.832 126.432C170.288 127.045 170.555 127.734 170.632 128.5C170.7 129.26 170.56 130.028 170.213 130.801ZM165.073 131.493C165.867 131.849 166.618 131.912 167.327 131.685C168.041 131.446 168.564 130.956 168.898 130.213C169.226 129.481 169.24 128.775 168.938 128.095C168.641 127.404 168.095 126.882 167.301 126.526C166.507 126.171 165.753 126.113 165.04 126.351C164.331 126.579 163.812 127.059 163.483 127.791C163.15 128.534 163.132 129.25 163.429 129.941C163.731 130.621 164.279 131.138 165.073 131.493Z" fill="#23F7DD"/>
<path d="M164.684 121.499L165.13 119.916L166.583 120.324C166.133 119.963 165.836 119.515 165.693 118.982C165.553 118.438 165.57 117.856 165.745 117.236C166.006 116.311 166.519 115.656 167.285 115.273C168.054 114.878 168.928 114.818 169.907 115.092L174.966 116.512L174.519 118.095L169.771 116.762C169.118 116.579 168.539 116.611 168.036 116.857C167.535 117.092 167.203 117.498 167.041 118.075C166.86 118.717 166.945 119.31 167.296 119.855C167.647 120.399 168.182 120.772 168.9 120.974L173.355 122.224L172.909 123.807L164.684 121.499Z" fill="#23F7DD"/>
<path d="M173.704 105.937C173.662 106.409 173.463 106.801 173.106 107.11C172.74 107.407 172.32 107.535 171.847 107.494C171.374 107.453 170.989 107.255 170.691 106.9C170.383 106.533 170.25 106.113 170.292 105.64C170.333 105.167 170.538 104.782 170.904 104.485C171.261 104.176 171.675 104.042 172.148 104.083C172.621 104.124 173.011 104.328 173.319 104.695C173.617 105.05 173.745 105.464 173.704 105.937Z" fill="#23F7DD"/>
<path d="M176.13 95.8591L172.859 92.904L173.275 101.233L171.852 101.306L171.436 92.9769L168.46 96.2691L167.5 95.4188L172.021 90.4181L177 94.915L176.13 95.8591Z" fill="#23F7DD"/>
<path d="M172.708 85.7409C172.797 86.2071 172.712 86.6374 172.453 87.032C172.181 87.4176 171.812 87.655 171.346 87.7442C170.879 87.8334 170.454 87.7479 170.071 87.4876C169.675 87.2183 169.432 86.8506 169.344 86.3845C169.255 85.9183 169.347 85.4925 169.619 85.1069C169.877 84.7123 170.24 84.4704 170.706 84.3812C171.173 84.292 171.604 84.382 172.001 84.6513C172.384 84.9115 172.62 85.2747 172.708 85.7409Z" fill="#23F7DD"/>
</g>
<g opacity="0.1">
<path d="M112.33 18.7381L109.595 18.6053L105.451 6.40897L100.067 18.1427L97.3319 18.0099L98.1099 3L100.246 3.10373L99.6673 14.2754L104.712 3.32054L106.506 3.40768L110.414 14.7972L110.993 3.62552L113.108 3.72823L112.33 18.7381Z" fill="#23F7DD" fill-opacity="0.8"/>
<path d="M83.8163 4.65716L85.8751 4.38843L86.114 6.28308C86.3129 5.5791 86.6942 5.01002 87.2579 4.57579C87.8216 4.14157 88.5067 3.8718 89.3132 3.76652C90.5159 3.60953 91.5353 3.88038 92.3712 4.5791C93.1931 5.27966 93.6845 6.26859 93.8455 7.54589L94.6775 14.1452L92.6187 14.414L91.8377 8.21911C91.7304 7.36758 91.4172 6.70881 90.8982 6.24281C90.3651 5.77865 89.7236 5.59552 88.9736 5.69341C88.1388 5.80238 87.491 6.1971 87.0303 6.87755C86.5554 7.55985 86.377 8.36933 86.4951 9.30601L87.2277 15.1177L85.169 15.3865L83.8163 4.65716Z" fill="#23F7DD" fill-opacity="0.8"/>
<path d="M82.9076 20.5954L80.8879 21.081L77.3747 6.15485L79.3944 5.6692L82.9076 20.5954Z" fill="#23F7DD" fill-opacity="0.8"/>
<path d="M74.7168 21.7184L73.6698 18.4971L70.639 19.499L70.0824 17.7864L73.1132 16.7846L71.4433 11.6469C71.2666 11.1032 70.9872 10.7289 70.6053 10.524C70.2233 10.3192 69.7882 10.2974 69.3 10.4588L67.8558 10.9362L67.2992 9.22361L68.8858 8.69915C69.93 8.35399 70.8611 8.37732 71.6793 8.76916C72.4839 9.16548 73.0563 9.88692 73.3965 10.9335L75.0863 16.1323L77.1814 15.4398L77.7381 17.1523L75.6429 17.8449L76.6899 21.0661L74.7168 21.7184Z" fill="#23F7DD" fill-opacity="0.8"/>
<path d="M68.2897 20.4961L66.3768 21.3104L62.1967 11.3521L64.1096 10.5378L68.2897 20.4961ZM68.0282 25.5214L67.0163 23.1108L69.1461 22.2042L70.158 24.6148L68.0282 25.5214Z" fill="#23F7DD" fill-opacity="0.8"/>
<path d="M64.3409 22.0828L62.4571 23.1073L56.0781 17.263L57.4652 25.822L55.5626 26.8567L53.9368 15.4532L55.7451 14.4697L64.3409 22.0828Z" fill="#23F7DD" fill-opacity="0.8"/>
<path d="M43.7578 21.7866C44.6355 21.1451 45.5598 20.7876 46.5309 20.7141C47.4905 20.649 48.4004 20.8324 49.2605 21.2642C50.1207 21.696 50.8479 22.3222 51.4422 23.1428C52.0364 23.9634 52.4088 24.8313 52.5593 25.7464C52.7182 26.6731 52.6224 27.5651 52.2718 28.4223C51.9296 29.291 51.3254 30.0419 50.4593 30.675C49.5932 31.3081 48.7102 31.6618 47.8104 31.7362C46.919 31.8221 46.0815 31.6655 45.2978 31.2661C44.5225 30.8784 43.8628 30.3088 43.3188 29.5576C43.1514 29.3264 43.0039 29.0984 42.8764 28.8735L49.5454 23.9989C48.8735 23.2174 48.1052 22.7538 47.2403 22.6082C46.3755 22.4627 45.562 22.6684 44.7998 23.2255C44.1647 23.6898 43.7412 24.2025 43.5296 24.7638C43.3179 25.325 43.3285 25.9006 43.5613 26.4904L41.8811 27.7185C41.3899 26.6989 41.3114 25.6515 41.6456 24.5765C41.9797 23.5016 42.6838 22.5716 43.7578 21.7866ZM45.4307 28.8889C45.9738 29.517 46.6055 29.8772 47.3258 29.9694C48.046 30.0616 48.7641 29.8461 49.4801 29.3227C50.1614 28.8247 50.5834 28.2247 50.746 27.5225C50.9055 26.8403 50.7851 26.0888 50.3848 25.2678L45.4307 28.8889Z" fill="#23F7DD" fill-opacity="0.8"/>
<path d="M39.5663 37.2887C40.8433 36.0979 40.5517 34.4977 38.6915 32.4879L35.3782 28.908L36.9011 27.4879L44.2253 35.4014L42.7024 36.8215L41.2928 35.2984C41.609 35.9982 41.711 36.6246 41.5989 37.1777C41.4868 37.7308 41.1534 38.266 40.5986 38.7832L39.6409 39.6763L38.4202 38.3574L39.5663 37.2887Z" fill="#23F7DD" fill-opacity="0.8"/>
<path d="M27.6017 36.7077C28.4346 35.7435 29.356 35.1786 30.3658 35.0129C31.3756 34.8472 32.3344 35.1114 33.2421 35.8054L31.9647 37.2842C31.4645 36.9254 30.9495 36.7909 30.4198 36.8806C29.8808 36.9812 29.3773 37.3023 28.9093 37.844C28.5163 38.299 28.3057 38.7609 28.2776 39.2296C28.2402 39.7091 28.3721 40.0798 28.6735 40.3417C28.9748 40.6035 29.2811 40.7179 29.5922 40.6849C29.8941 40.6626 30.1849 40.555 30.4647 40.3619C30.7553 40.1782 31.1301 39.897 31.5891 39.5183C32.1914 39.0174 32.7108 38.6343 33.1473 38.3688C33.5853 38.1235 34.0781 38.0111 34.6255 38.0317C35.1637 38.063 35.7341 38.3406 36.3367 38.8643C37.0363 39.4722 37.3674 40.234 37.3299 41.1498C37.2925 42.0655 36.9041 42.9513 36.1647 43.8072C35.3692 44.7281 34.4867 45.2699 33.5172 45.4326C32.549 45.6155 31.6595 45.402 30.8486 44.7922L32.1401 43.2971C32.6174 43.617 33.1134 43.6972 33.6281 43.5375C34.1442 43.3981 34.5754 43.1279 34.9217 42.7271C35.296 42.2937 35.4987 41.8629 35.5295 41.4345C35.5604 41.0062 35.4198 40.6564 35.1077 40.3852C34.7203 40.0485 34.3303 39.9657 33.9377 40.1366C33.5465 40.3277 33.0411 40.6946 32.4216 41.2373C31.8114 41.7692 31.2779 42.1686 30.8212 42.4356C30.3645 42.7026 29.8416 42.8172 29.2525 42.7794C28.6648 42.7618 28.0427 42.4678 27.3862 41.8973C26.6436 41.252 26.295 40.456 26.3404 39.5092C26.3764 38.5733 26.7969 37.6394 27.6017 36.7077Z" fill="#23F7DD" fill-opacity="0.8"/>
<path d="M27.1195 50.0299L35.8543 50.2134L34.579 52.1513L28.0161 52.0124L30.7295 58.0012L29.4424 59.9571L25.8146 51.9741L16.9077 51.7799L18.1948 49.824L24.9299 49.9737L22.1388 43.8306L23.4259 41.8747L27.1195 50.0299Z" fill="#23F7DD" fill-opacity="0.8"/>
<path d="M26.3956 66.1711L22.8464 75.1408L21.0175 74.4177L23.7446 67.5256L19.5898 65.8829L17.3844 71.4566L15.5555 70.7335L17.7609 65.1598L11.658 62.7469L12.4801 60.6692L26.3956 66.1711Z" fill="#23F7DD" fill-opacity="0.8"/>
<path d="M6.63811 77.5995C6.88825 76.5549 7.34051 75.6762 7.9949 74.9633C8.66315 74.2536 9.46304 73.7593 10.3946 73.4803C11.3228 73.2151 12.3069 73.2062 13.3469 73.4534C14.3869 73.7006 15.2609 74.1513 15.969 74.8054C16.6738 75.4733 17.1566 76.2726 17.4174 77.2031C17.6921 78.1368 17.7043 79.126 17.4542 80.1705C17.2041 81.215 16.7449 82.0921 16.0766 82.8017C15.4222 83.5147 14.6309 84.0037 13.7027 84.2688C12.7745 84.5339 11.7904 84.5429 10.7504 84.2957C9.7104 84.0484 8.83635 83.5978 8.12828 82.9437C7.4202 82.2897 6.92882 81.4957 6.65412 80.562C6.3933 79.6315 6.38796 78.644 6.63811 77.5995ZM12.8516 75.5216C11.7839 75.2678 10.8369 75.3665 10.0107 75.8178C9.18111 76.283 8.64626 77.017 8.40612 78.0197C8.16932 79.0085 8.31728 79.8901 8.85 80.6644C9.37938 81.4527 10.1779 81.9737 11.2457 82.2275C12.3134 82.4813 13.2621 82.3756 14.0916 81.9104C14.9179 81.4591 15.4494 80.7391 15.6862 79.7502C15.9263 78.7475 15.7817 77.852 15.2523 77.0638C14.7196 76.2895 13.9194 75.7754 12.8516 75.5216Z" fill="#23F7DD" fill-opacity="0.8"/>
<path d="M4.08567 96.3705L4.27021 94.2957L6.16667 94.4587C5.52437 94.1161 5.05292 93.623 4.75231 92.9793C4.4517 92.3356 4.33755 91.6074 4.40984 90.7946C4.51765 89.5825 5.00229 88.6399 5.86376 87.9667C6.72397 87.3079 7.79333 87.0334 9.07185 87.1433L15.6775 87.711L15.493 89.7857L9.29217 89.2528C8.43982 89.1796 7.73055 89.3485 7.16436 89.7597C6.59689 90.1851 6.27954 90.7756 6.21232 91.5314C6.13749 92.3727 6.3814 93.0906 6.94405 93.6849C7.50544 94.2936 8.25492 94.6382 9.19249 94.7187L15.0097 95.2187L14.8252 97.2935L4.08567 96.3705Z" fill="#23F7DD" fill-opacity="0.8"/>
<path d="M14.7649 100.371L14.8827 102.449L12.9817 102.565C13.6672 102.81 14.2049 103.221 14.5949 103.8C14.9857 104.392 15.2042 105.096 15.2503 105.91C15.3191 107.125 14.9755 108.12 14.2194 108.897C13.4641 109.688 12.4457 110.123 11.1642 110.201L4.54294 110.603L4.42512 108.524L10.6405 108.147C11.4949 108.095 12.1721 107.817 12.6723 107.314C13.1732 106.825 13.4022 106.202 13.3593 105.445C13.3115 104.602 12.9661 103.927 12.3231 103.422C11.68 102.916 10.8886 102.692 9.94878 102.749L4.11782 103.103L4 101.024L14.7649 100.371Z" fill="#23F7DD" fill-opacity="0.8"/>
<path d="M5.8618 119.543C5.64121 118.478 5.6815 117.512 5.98267 116.645C6.30071 115.788 6.82259 115.07 7.54832 114.492C8.29091 113.925 9.19283 113.529 10.2541 113.304C11.3153 113.079 12.2915 113.076 13.1827 113.297C14.0907 113.528 14.8535 113.973 15.4711 114.631C16.1055 115.3 16.5315 116.16 16.7492 117.21C16.8972 117.924 16.8716 118.609 16.6723 119.265C16.4899 119.933 16.1738 120.482 15.7239 120.914L21.6934 119.647L22.1157 121.684L7.13955 124.863L6.71724 122.825L8.28817 122.492C7.69079 122.283 7.16911 121.911 6.72314 121.377C6.29113 120.84 6.00402 120.229 5.8618 119.543ZM10.6807 115.362C9.5776 115.597 8.75185 116.079 8.2035 116.809C7.65804 117.553 7.4869 118.416 7.69007 119.396C7.89324 120.376 8.39091 121.089 9.18307 121.535C9.97814 121.994 10.9272 122.107 12.0304 121.873C13.1335 121.639 13.9578 121.15 14.5033 120.406C15.0516 119.675 15.2242 118.82 15.0211 117.84C14.8179 116.86 14.3188 116.14 13.5237 115.68C12.7315 115.234 11.7839 115.128 10.6807 115.362Z" fill="#23F7DD" fill-opacity="0.8"/>
<path d="M9.34185 132.277C8.96682 131.242 8.94635 130.306 9.28043 129.467C9.61452 128.628 10.2373 128.041 11.1489 127.705C12.114 127.35 13.0071 127.425 13.8283 127.929C14.6628 128.429 15.2993 129.283 15.7376 130.492L16.5047 132.608C16.5875 132.837 16.702 132.985 16.8482 133.053C16.9993 133.134 17.1687 133.14 17.3564 133.071C17.9864 132.839 18.4087 132.432 18.6233 131.851C18.8428 131.283 18.8137 130.616 18.5361 129.85C18.2877 129.165 17.8882 128.65 17.3375 128.304C16.7917 127.972 16.2525 127.889 15.72 128.055L15.0625 126.241C15.7388 126.053 16.409 126.058 17.073 126.255C17.7504 126.447 18.3535 126.811 18.8822 127.347C19.4243 127.878 19.839 128.54 20.1264 129.333C20.4381 130.193 20.5524 131.011 20.4694 131.788C20.3997 132.559 20.1424 133.233 19.6975 133.808C19.266 134.378 18.6816 134.799 17.9444 135.07L11.4095 137.477L10.7009 135.522L12.3497 134.915C11.7124 134.875 11.1166 134.615 10.5623 134.134C10.0263 133.661 9.61947 133.042 9.34185 132.277ZM11.8904 129.625C11.4347 129.793 11.1226 130.106 10.9544 130.564C10.7995 131.017 10.8244 131.525 11.0289 132.089C11.3601 133.003 11.8931 133.614 12.6277 133.922C13.3673 134.243 14.2062 134.231 15.1446 133.886L15.3858 133.797L14.4361 131.177C14.1926 130.506 13.8369 130.027 13.3691 129.743C12.9195 129.467 12.4266 129.428 11.8904 129.625Z" fill="#23F7DD" fill-opacity="0.8"/>
<path d="M27.2393 137.708L24.2211 139.246L25.6562 142.097L24.0516 142.915L22.6165 140.064L17.8027 142.517C17.2933 142.777 16.9659 143.112 16.8206 143.523C16.6753 143.933 16.7182 144.368 16.9493 144.827L17.6332 146.186L16.0286 147.004L15.2773 145.511C14.7829 144.529 14.6681 143.602 14.9331 142.729C15.2045 141.87 15.8305 141.19 16.8111 140.69L21.6822 138.208L20.6901 136.237L22.2947 135.42L23.2868 137.39L26.305 135.852L27.2393 137.708Z" fill="#23F7DD" fill-opacity="0.8"/>
<path d="M26.9859 144.273L28.0709 146.044L18.8799 151.735L17.7948 149.964L26.9859 144.273ZM31.9746 143.753L29.7498 145.13L28.5418 143.158L30.7666 141.781L31.9746 143.753Z" fill="#23F7DD" fill-opacity="0.8"/>
<path d="M24.0275 159.417C23.3739 158.569 22.9764 157.667 22.8348 156.711C22.7046 155.746 22.8244 154.812 23.1942 153.909C23.5728 153.018 24.1855 152.243 25.0323 151.584C25.8791 150.925 26.7793 150.523 27.7331 150.378C28.6955 150.243 29.62 150.365 30.5068 150.741C31.4048 151.109 32.1805 151.717 32.8341 152.564C33.4877 153.411 33.8796 154.318 34.0098 155.283C34.1513 156.239 34.0328 157.163 33.6543 158.054C33.2757 158.946 32.663 159.721 31.8162 160.38C30.9694 161.039 30.0692 161.441 29.1154 161.586C28.1617 161.732 27.2359 161.621 26.3379 161.253C25.4512 160.876 24.681 160.264 24.0275 159.417ZM26.3263 153.262C25.457 153.938 24.9374 154.74 24.7676 155.668C24.6064 156.607 24.8396 157.483 25.467 158.297C26.0857 159.099 26.8634 159.533 27.8 159.6C28.7454 159.678 29.6528 159.378 30.5222 158.702C31.3915 158.025 31.9068 157.218 32.0679 156.279C32.2377 155.351 32.0133 154.486 31.3946 153.684C30.7671 152.871 29.9808 152.425 29.0354 152.347C28.0987 152.28 27.1957 152.585 26.3263 153.262Z" fill="#23F7DD" fill-opacity="0.8"/>
<path d="M37.6783 158.762L39.1731 160.201L37.8525 161.582C38.5229 161.294 39.1975 161.228 39.8763 161.384C40.5654 161.551 41.2028 161.916 41.7884 162.48C42.6616 163.321 43.0833 164.283 43.0532 165.366C43.0335 166.46 42.5784 167.472 41.6881 168.403L37.0881 173.214L35.5933 171.775L39.9114 167.259C40.5049 166.639 40.8152 165.974 40.8422 165.265C40.8794 164.565 40.6258 163.954 40.0813 163.429C39.4752 162.846 38.7642 162.589 37.9484 162.658C37.1326 162.727 36.3983 163.103 35.7454 163.786L31.6944 168.022L30.1996 166.583L37.6783 158.762Z" fill="#23F7DD" fill-opacity="0.8"/>
<path d="M49.6081 178.083C49.107 177.756 48.7906 177.301 48.6592 176.719C48.5475 176.133 48.6557 175.588 48.9838 175.084C49.3118 174.58 49.7622 174.267 50.3348 174.145C50.9271 174.019 51.4739 174.119 51.975 174.447C52.4762 174.774 52.7827 175.231 52.8944 175.817C53.0258 176.399 52.9275 176.942 52.5994 177.446C52.2713 177.95 51.8111 178.265 51.2188 178.391C50.6462 178.513 50.1093 178.411 49.6081 178.083Z" fill="#23F7DD" fill-opacity="0.8"/>
<path d="M59.3715 186.78L64.6129 184.879L55.0977 180.398L55.866 178.765L65.3812 183.246L63.4953 177.964L65.0142 177.397L67.8786 185.419L59.9026 188.312L59.3715 186.78Z" fill="#23F7DD" fill-opacity="0.8"/>
<path d="M72.6724 188.964C72.1008 188.786 71.6728 188.436 71.3883 187.912C71.1216 187.379 71.0779 186.826 71.2572 186.252C71.4364 185.678 71.7852 185.254 72.3036 184.98C72.8399 184.697 73.3939 184.644 73.9654 184.822C74.537 184.999 74.9561 185.355 75.2227 185.888C75.5072 186.411 75.5599 186.96 75.3807 187.534C75.2014 188.108 74.8436 188.537 74.3074 188.82C73.7889 189.094 73.244 189.142 72.6724 188.964Z" fill="#23F7DD" fill-opacity="0.8"/>
<path d="M86.0277 180.796L88.7562 181.02L92.495 193.349L98.2631 181.799L100.992 182.022L99.7188 197L97.5872 196.825L98.5345 185.678L93.1321 196.46L91.3416 196.314L87.8125 184.799L86.8652 195.947L84.755 195.774L86.0277 180.796Z" fill="#23F7DD" fill-opacity="0.8"/>
<path d="M114.057 195.818L111.991 196.019L111.815 194.117C111.593 194.814 111.193 195.37 110.616 195.785C110.038 196.201 109.344 196.448 108.535 196.526C107.328 196.643 106.318 196.338 105.506 195.612C104.708 194.885 104.249 193.88 104.13 192.598L103.517 185.974L105.583 185.773L106.159 191.992C106.238 192.846 106.529 193.515 107.033 193.998C107.55 194.48 108.185 194.684 108.938 194.611C109.776 194.53 110.436 194.157 110.919 193.492C111.416 192.826 111.621 192.023 111.534 191.083L110.993 185.249L113.06 185.049L114.057 195.818Z" fill="#23F7DD" fill-opacity="0.8"/>
<path d="M115.491 179.917L117.526 179.499L120.544 194.535L118.51 194.954L115.491 179.917Z" fill="#23F7DD" fill-opacity="0.8"/>
<path d="M123.714 179.067L124.654 182.322L127.716 181.421L128.215 183.151L125.154 184.052L126.653 189.243C126.811 189.792 127.078 190.176 127.453 190.393C127.828 190.611 128.262 190.647 128.755 190.502L130.214 190.072L130.714 191.803L129.111 192.274C128.057 192.585 127.127 192.53 126.322 192.111C125.531 191.689 124.983 190.948 124.677 189.891L123.16 184.638L121.044 185.261L120.544 183.531L122.661 182.908L121.72 179.653L123.714 179.067Z" fill="#23F7DD" fill-opacity="0.8"/>
<path d="M130.096 180.502L132.035 179.752L135.883 189.845L133.945 190.595L130.096 180.502ZM130.523 175.488L131.455 177.931L129.297 178.766L128.365 176.323L130.523 175.488Z" fill="#23F7DD" fill-opacity="0.8"/>
<path d="M134.095 179.047L136.011 178.086L142.193 184.14L141.089 175.538L143.025 174.567L144.273 186.02L142.434 186.943L134.095 179.047Z" fill="#23F7DD" fill-opacity="0.8"/>
<path d="M154.654 180.027C153.756 180.639 152.821 180.966 151.848 181.007C150.887 181.04 149.983 180.827 149.138 180.367C148.293 179.906 147.587 179.256 147.02 178.416C146.453 177.576 146.11 176.696 145.989 175.777C145.861 174.845 145.986 173.957 146.365 173.112C146.736 172.255 147.364 171.524 148.251 170.92C149.137 170.316 150.031 169.992 150.933 169.947C151.826 169.891 152.658 170.075 153.428 170.501C154.19 170.914 154.831 171.505 155.35 172.274C155.509 172.511 155.649 172.744 155.769 172.973L148.944 177.624C149.589 178.427 150.342 178.916 151.201 179.09C152.061 179.265 152.88 179.086 153.661 178.554C154.311 178.111 154.751 177.613 154.981 177.059C155.211 176.505 155.219 175.929 155.006 175.332L156.726 174.16C157.183 175.196 157.227 176.245 156.857 177.309C156.488 178.372 155.754 179.278 154.654 180.027ZM153.217 172.872C152.695 172.226 152.075 171.845 151.359 171.729C150.642 171.613 149.917 171.805 149.185 172.304C148.487 172.779 148.046 173.365 147.86 174.062C147.678 174.738 147.774 175.493 148.147 176.327L153.217 172.872Z" fill="#23F7DD" fill-opacity="0.8"/>
<path d="M159.355 164.671C158.039 165.819 158.278 167.428 160.07 169.499L163.263 173.187L161.695 174.556L154.636 166.403L156.205 165.034L157.564 166.603C157.271 165.893 157.189 165.264 157.32 164.714C157.45 164.165 157.801 163.641 158.372 163.143L159.359 162.282L160.535 163.641L159.355 164.671Z" fill="#23F7DD" fill-opacity="0.8"/>
<path d="M171.292 165.649C170.428 166.585 169.488 167.119 168.474 167.252C167.459 167.384 166.51 167.088 165.626 166.364L166.951 164.928C167.439 165.303 167.949 165.455 168.481 165.383C169.023 165.3 169.537 164.996 170.023 164.47C170.431 164.028 170.656 163.574 170.7 163.106C170.753 162.628 170.633 162.253 170.341 161.981C170.048 161.71 169.746 161.585 169.434 161.608C169.132 161.62 168.837 161.718 168.551 161.902C168.255 162.075 167.871 162.344 167.4 162.707C166.782 163.188 166.25 163.554 165.805 163.805C165.359 164.035 164.863 164.131 164.317 164.093C163.78 164.043 163.219 163.747 162.634 163.203C161.955 162.573 161.649 161.8 161.717 160.886C161.784 159.972 162.202 159.099 162.969 158.268C163.794 157.374 164.694 156.862 165.668 156.732C166.642 156.581 167.524 156.824 168.314 157.46L166.974 158.912C166.508 158.576 166.015 158.48 165.495 158.622C164.975 158.744 164.535 159 164.176 159.389C163.787 159.81 163.57 160.234 163.525 160.661C163.48 161.088 163.609 161.443 163.912 161.724C164.288 162.073 164.675 162.169 165.073 162.011C165.471 161.833 165.988 161.483 166.625 160.961C167.252 160.45 167.798 160.069 168.264 159.817C168.729 159.565 169.255 159.468 169.843 159.525C170.429 159.562 171.041 159.877 171.679 160.469C172.399 161.139 172.722 161.946 172.645 162.891C172.578 163.825 172.127 164.745 171.292 165.649Z" fill="#23F7DD" fill-opacity="0.8"/>
<path d="M172.213 152.349L163.49 151.875L164.829 149.98L171.383 150.337L168.869 144.261L170.22 142.349L173.582 150.449L182.476 150.939L181.125 152.851L174.4 152.478L176.986 158.711L175.636 160.623L172.213 152.349Z" fill="#23F7DD" fill-opacity="0.8"/>
<path d="M173.469 136.239L177.312 127.391L179.116 128.174L176.163 134.973L180.261 136.753L182.649 131.255L184.453 132.038L182.065 137.536L188.084 140.151L187.194 142.2L173.469 136.239Z" fill="#23F7DD" fill-opacity="0.8"/>
<path d="M193.591 125.472C193.306 126.507 192.825 127.371 192.148 128.062C191.457 128.749 190.641 129.216 189.701 129.464C188.765 129.698 187.781 129.675 186.75 129.393C185.719 129.111 184.86 128.632 184.174 127.955C183.492 127.263 183.036 126.448 182.806 125.51C182.562 124.567 182.582 123.578 182.867 122.542C183.151 121.507 183.639 120.645 184.33 119.958C185.008 119.267 185.815 118.805 186.751 118.57C187.687 118.336 188.671 118.36 189.702 118.642C190.733 118.923 191.592 119.403 192.278 120.08C192.964 120.757 193.429 121.567 193.673 122.51C193.902 123.449 193.875 124.436 193.591 125.472ZM187.313 127.342C188.372 127.631 189.321 127.564 190.162 127.14C191.006 126.703 191.565 125.987 191.838 124.993C192.107 124.012 191.988 123.126 191.481 122.334C190.978 121.529 190.198 120.982 189.139 120.692C188.08 120.403 187.129 120.477 186.284 120.915C185.444 121.338 184.889 122.041 184.62 123.021C184.347 124.015 184.462 124.915 184.965 125.721C185.471 126.513 186.254 127.053 187.313 127.342Z" fill="#23F7DD" fill-opacity="0.8"/>
<path d="M196.761 106.793L196.508 108.861L194.618 108.635C195.249 108.999 195.704 109.508 195.983 110.161C196.262 110.814 196.352 111.546 196.253 112.356C196.105 113.564 195.59 114.49 194.707 115.134C193.825 115.764 192.748 116.003 191.474 115.851L184.891 115.064L185.144 112.996L191.323 113.735C192.172 113.837 192.887 113.691 193.466 113.299C194.047 112.893 194.384 112.313 194.476 111.56C194.578 110.721 194.358 109.996 193.816 109.383C193.275 108.756 192.537 108.386 191.603 108.275L185.806 107.582L186.059 105.514L196.761 106.793Z" fill="#23F7DD" fill-opacity="0.8"/>
<path d="M186.221 102.44L186.172 100.359L188.075 100.306C187.398 100.039 186.874 99.6092 186.504 99.0181C186.133 98.4127 185.938 97.7023 185.918 96.8868C185.89 95.6707 186.266 94.6869 187.047 93.9354C187.828 93.1696 188.86 92.769 190.143 92.7338L196.773 92.552L196.823 94.6336L190.599 94.8043C189.743 94.8278 189.057 95.0828 188.541 95.5694C188.024 96.0417 187.775 96.6569 187.793 97.4152C187.813 98.2593 188.136 98.9447 188.762 99.4715C189.388 99.9984 190.171 100.249 191.112 100.223L196.951 100.063L197 102.145L186.221 102.44Z" fill="#23F7DD" fill-opacity="0.8"/>
<path d="M195.75 83.5722C195.936 84.6432 195.864 85.6074 195.534 86.4649C195.188 87.3108 194.643 88.0106 193.898 88.5642C193.138 89.1061 192.223 89.4721 191.155 89.6619C190.087 89.8518 189.112 89.8219 188.228 89.5722C187.329 89.3109 186.581 88.841 185.986 88.1625C185.374 87.4724 184.976 86.5989 184.793 85.542C184.669 84.8233 184.717 84.1392 184.938 83.4899C185.142 82.829 185.476 82.2902 185.94 81.8737L179.933 82.9417L179.578 80.8913L194.649 78.2119L195.004 80.2623L193.423 80.5434C194.013 80.7725 194.522 81.1614 194.95 81.7099C195.364 82.2609 195.631 82.8817 195.75 83.5722ZM190.797 87.5904C191.907 87.393 192.748 86.9384 193.32 86.2267C193.89 85.5008 194.089 84.6446 193.919 83.6582C193.748 82.6717 193.274 81.9425 192.497 81.4706C191.718 80.9845 190.773 80.8402 189.663 81.0376C188.553 81.2349 187.713 81.6965 187.143 82.4224C186.571 83.1342 186.37 83.9833 186.541 84.9698C186.712 85.9562 187.187 86.6925 187.966 87.1785C188.743 87.6505 189.687 87.7878 190.797 87.5904Z" fill="#23F7DD" fill-opacity="0.8"/>
<path d="M192.693 70.728C193.034 71.7744 193.023 72.7112 192.662 73.5385C192.3 74.3657 191.658 74.932 190.736 75.2372C189.76 75.5604 188.87 75.4561 188.066 74.9244C187.248 74.3972 186.641 73.5221 186.242 72.299L185.546 70.1586C185.47 69.9276 185.361 69.7757 185.217 69.7029C185.069 69.6165 184.9 69.6047 184.71 69.6675C184.073 69.8785 183.637 70.2711 183.404 70.8452C183.165 71.4058 183.173 72.0734 183.425 72.848C183.65 73.5411 184.033 74.0694 184.572 74.4329C185.106 74.7829 185.642 74.8839 186.18 74.736L186.777 76.5706C186.095 76.7362 185.425 76.7095 184.768 76.4905C184.098 76.2759 183.507 75.8919 182.996 75.3383C182.472 74.7892 182.079 74.1138 181.818 73.312C181.535 72.4423 181.448 71.6206 181.557 70.847C181.652 70.0779 181.931 69.4133 182.395 68.8534C182.845 68.2979 183.443 67.8967 184.188 67.6498L190.798 65.4615L191.442 67.4388L189.774 67.9909C190.41 68.0515 190.996 68.3315 191.535 68.8308C192.055 69.321 192.441 69.9534 192.693 70.728ZM190.059 73.2938C190.52 73.1411 190.842 72.8388 191.025 72.3867C191.195 71.9391 191.187 71.4299 191.001 70.8592C190.7 69.9351 190.187 69.3068 189.463 68.9745C188.735 68.6285 187.896 68.6127 186.947 68.9269L186.703 69.0077L187.566 71.6577C187.787 72.3371 188.127 72.8269 188.585 73.1268C189.025 73.4177 189.516 73.4733 190.059 73.2938Z" fill="#23F7DD" fill-opacity="0.8"/>
<path d="M174.987 64.7041L178.054 63.2669L176.713 60.3695L178.344 59.6055L179.684 62.5029L184.576 60.2106C185.093 59.9681 185.431 59.6439 185.59 59.2383C185.749 58.8327 185.72 58.3965 185.505 57.9298L184.866 56.5492L186.496 55.7851L187.198 57.3019C187.66 58.3001 187.744 59.2307 187.45 60.0939C187.151 60.944 186.503 61.6026 185.506 62.0695L180.556 64.3891L181.483 66.3919L179.852 67.156L178.926 65.1531L175.859 66.5903L174.987 64.7041Z" fill="#23F7DD" fill-opacity="0.8"/>
<path d="M175.456 58.1507L174.431 56.3443L183.803 50.9614L184.829 52.7678L175.456 58.1507ZM170.454 58.5047L172.723 57.2017L173.865 59.213L171.596 60.5159L170.454 58.5047Z" fill="#23F7DD" fill-opacity="0.8"/>
<path d="M178.913 43.1116C179.538 43.9803 179.905 44.895 180.015 45.8558C180.113 46.825 179.963 47.7545 179.564 48.6443C179.156 49.5225 178.518 50.2769 177.65 50.9074C176.782 51.5379 175.869 51.91 174.911 52.0238C173.945 52.126 173.025 51.9741 172.151 51.5681C171.266 51.1706 170.511 50.5375 169.886 49.6688C169.261 48.8001 168.899 47.8811 168.8 46.9119C168.691 45.9511 168.84 45.0316 169.247 44.1534C169.655 43.2752 170.293 42.5208 171.161 41.8903C172.029 41.2598 172.942 40.8877 173.9 40.7739C174.857 40.6602 175.779 40.8021 176.664 41.1996C177.538 41.6056 178.287 42.2429 178.913 43.1116ZM176.412 49.1874C177.303 48.5401 177.849 47.7556 178.049 46.8341C178.241 45.9009 178.037 45.0174 177.437 44.1834C176.845 43.3611 176.082 42.901 175.149 42.8033C174.206 42.694 173.29 42.963 172.399 43.6103C171.508 44.2576 170.966 45.0479 170.774 45.981C170.574 46.9026 170.769 47.7746 171.361 48.5969C171.961 49.4309 172.733 49.9025 173.675 50.0118C174.609 50.1095 175.521 49.8347 176.412 49.1874Z" fill="#23F7DD" fill-opacity="0.8"/>
<path d="M165.249 43.3124L163.803 41.8244L165.168 40.4878C164.489 40.7538 163.812 40.7973 163.139 40.6181C162.456 40.4286 161.831 40.0425 161.265 39.4596C160.42 38.5903 160.03 37.6146 160.096 36.5323C160.152 35.4398 160.64 34.443 161.56 33.5419L166.316 28.8861L167.762 30.3741L163.298 34.7445C162.684 35.3453 162.352 35.9996 162.302 36.7075C162.242 37.4052 162.475 38.0251 163.002 38.5671C163.588 39.1705 164.29 39.4512 165.108 39.4092C165.925 39.3673 166.672 39.0159 167.347 38.3551L171.535 34.255L172.981 35.743L165.249 43.3124Z" fill="#23F7DD" fill-opacity="0.8"/>
<path d="M153.965 23.603C154.455 23.9469 154.756 24.4119 154.868 24.9979C154.96 25.5875 154.834 26.1288 154.49 26.6218C154.145 27.1148 153.685 27.4128 153.109 27.5157C152.513 27.6222 151.97 27.5035 151.48 27.1596C150.99 26.8157 150.698 26.3489 150.606 25.7593C150.494 25.1733 150.61 24.6338 150.955 24.1408C151.299 23.6478 151.769 23.348 152.366 23.2415C152.942 23.1386 153.475 23.2591 153.965 23.603Z" fill="#23F7DD" fill-opacity="0.8"/>
<path d="M144.495 14.5859L139.194 16.3123L148.555 21.1072L147.734 22.714L138.373 17.919L140.083 23.2607L138.546 23.7771L135.949 15.6635L144.015 13.0365L144.495 14.5859Z" fill="#23F7DD" fill-opacity="0.8"/>
<path d="M131.275 11.9606C131.84 12.1572 132.257 12.5219 132.524 13.0546C132.772 13.5961 132.798 14.1509 132.6 14.7189C132.402 15.2869 132.039 15.6991 131.512 15.9555C130.967 16.2208 130.412 16.255 129.846 16.0583C129.281 15.8616 128.874 15.4925 128.625 14.951C128.358 14.4183 128.323 13.868 128.521 13.3C128.719 12.732 129.091 12.3153 129.636 12.0501C130.164 11.7937 130.71 11.7639 131.275 11.9606Z" fill="#23F7DD" fill-opacity="0.8"/>
</g>
<g opacity="0.1">
<path d="M37.7308 5.72635L34.7988 8.07999L19.4315 -0.68531L24.5827 16.281L21.6507 18.6346L8.78068 2.49474L11.0713 0.655956L20.6503 12.6686L15.8587 -3.18711L17.7828 -4.73168L32.172 3.41954L22.5931 -8.59313L24.8608 -10.4135L37.7308 5.72635Z" fill="#23F7DD" fill-opacity="0.4"/>
<path d="M-4.40302 17.214L-2.53148 15.0631L-0.560452 16.7934C-0.997114 15.8885 -1.12345 14.9563 -0.939453 13.9966C-0.755459 13.0368 -0.296879 12.1356 0.436298 11.293C1.52963 10.0364 2.82414 9.38665 4.3198 9.34376C5.80259 9.31565 7.20838 9.88488 8.53716 11.0514L15.4025 17.0785L13.531 19.2295L7.0864 13.5718C6.20055 12.7941 5.27869 12.402 4.3208 12.3955C3.35005 12.4038 2.52382 12.7997 1.84209 13.5832C1.08319 14.4554 0.776768 15.4511 0.922844 16.5702C1.05606 17.7041 1.60989 18.6988 2.58432 19.5542L8.63026 24.8619L6.75874 27.0129L-4.40302 17.214Z" fill="#23F7DD" fill-opacity="0.4"/>
<path d="M9.17809 34.4273L7.54428 36.7657L-9.66068 24.6195L-8.02687 22.2811L9.17809 34.4273Z" fill="#23F7DD" fill-opacity="0.4"/>
<path d="M1.78118 43.0403L-2.22873 40.6819L-4.43183 44.4718L-6.56368 43.218L-4.36058 39.4282L-10.7561 35.6668C-11.4329 35.2688 -12.0609 35.1384 -12.6401 35.2756C-13.2194 35.4127 -13.6864 35.7866 -14.0413 36.397L-15.0911 38.2029L-17.2229 36.9491L-16.0696 34.9652C-15.3106 33.6595 -14.3322 32.8356 -13.1343 32.4934C-11.9462 32.1681 -10.7008 32.3886 -9.39802 33.1548L-2.92634 36.9609L-1.40339 34.3411L0.728458 35.5949L-0.794491 38.2147L3.21541 40.5731L1.78118 43.0403Z" fill="#23F7DD" fill-opacity="0.4"/>
<path d="M-5.9387 47.6362L-7.16343 50.2152L-20.5295 43.7836L-19.3047 41.2046L-5.9387 47.6362ZM-1.63087 53.0407L-4.8663 51.4838L-3.50267 48.6124L-0.267246 50.1693L-1.63087 53.0407Z" fill="#23F7DD" fill-opacity="0.4"/>
<path d="M-8.55278 52.8632L-9.55617 55.6318L-21.4358 55.4321L-12.2151 62.9683L-13.2286 65.7646L-25.2853 55.5213L-24.3221 52.8635L-8.55278 52.8632Z" fill="#23F7DD" fill-opacity="0.4"/>
<path d="M-29.9807 71.3014C-29.6627 69.8427 -29.0381 68.6334 -28.1068 67.6736C-27.1797 66.733 -26.0774 66.093 -24.7999 65.7536C-23.5225 65.4143 -22.2047 65.3959 -20.8465 65.6984C-19.4883 66.001 -18.3151 66.5541 -17.327 67.3579C-16.3197 68.1659 -15.6059 69.1701 -15.1856 70.3707C-14.7461 71.5754 -14.6833 72.8976 -14.9971 74.3371C-15.3109 75.7766 -15.8963 76.9443 -16.7535 77.8401C-17.5916 78.7402 -18.5952 79.3418 -19.7645 79.6449C-20.9146 79.9522 -22.1114 79.9674 -23.3548 79.6904C-23.7374 79.6052 -24.0966 79.5051 -24.4326 79.39L-22.0165 68.3057C-23.419 68.1141 -24.631 68.3372 -25.6525 68.975C-26.6741 69.6128 -27.323 70.5651 -27.5991 71.8319C-27.8292 72.8876 -27.7975 73.8003 -27.5039 74.5701C-27.2104 75.3398 -26.6753 75.9219 -25.8988 76.3162L-26.5075 79.1089C-27.941 78.5078 -28.9755 77.5026 -29.6111 76.0931C-30.2466 74.6837 -30.3698 73.0864 -29.9807 71.3014ZM-21.7929 77.0799C-20.6625 77.2311 -19.6851 77.0261 -18.8608 76.4651C-18.0365 75.9041 -17.4946 75.0286 -17.2352 73.8386C-16.9884 72.7062 -17.1011 71.705 -17.5734 70.835C-18.0307 69.9885 -18.839 69.3254 -19.9981 68.8459L-21.7929 77.0799Z" fill="#23F7DD" fill-opacity="0.4"/>
<path d="M-20.1713 91.0555C-19.9431 88.6686 -21.7002 87.289 -25.4426 86.9165L-32.1089 86.2532L-31.8367 83.4065L-17.1008 84.8729L-17.373 87.7195L-20.2091 87.4373C-19.2468 87.8689 -18.5714 88.42 -18.1829 89.0907C-17.7945 89.7613 -17.6498 90.6152 -17.749 91.6521L-17.9201 93.4423L-20.3761 93.1979L-20.1713 91.0555Z" fill="#23F7DD" fill-opacity="0.4"/>
<path d="M-32.9992 101.353C-33.0211 99.6034 -32.5885 98.1836 -31.7014 97.0938C-30.8143 96.004 -29.5881 95.4025 -28.023 95.2894L-27.9893 97.9729C-28.8303 98.0596 -29.4822 98.3902 -29.9449 98.9648C-30.4075 99.559 -30.6326 100.348 -30.6202 101.331C-30.6099 102.156 -30.4057 102.823 -30.0077 103.33C-29.6095 103.857 -29.1362 104.118 -28.588 104.113C-28.0398 104.108 -27.6208 103.947 -27.331 103.629C-27.041 103.332 -26.8401 102.956 -26.7283 102.503C-26.5969 102.05 -26.4677 101.419 -26.3408 100.612C-26.1778 99.5484 -25.9929 98.6815 -25.7859 98.0111C-25.559 97.3601 -25.1549 96.7959 -24.5734 96.3185C-23.9917 95.8607 -23.1526 95.6266 -22.0561 95.6163C-20.7834 95.6042 -19.7493 96.0859 -18.9538 97.0615C-18.1583 98.0371 -17.7508 99.3015 -17.7313 100.855C-17.7104 102.526 -18.1241 103.886 -18.9726 104.936C-19.8012 106.006 -20.91 106.597 -22.299 106.708L-22.333 103.995C-21.551 103.889 -20.9682 103.52 -20.5844 102.887C-20.1809 102.274 -19.9837 101.603 -19.9928 100.876C-20.0027 100.09 -20.1868 99.4622 -20.5451 98.9937C-20.9035 98.5252 -21.3665 98.2936 -21.9344 98.299C-22.6392 98.3057 -23.1156 98.5756 -23.3635 99.1089C-23.5916 99.6616 -23.7769 100.499 -23.9195 101.621C-24.0623 102.724 -24.2469 103.62 -24.4733 104.31C-24.6996 105.001 -25.1328 105.595 -25.7727 106.092C-26.3929 106.609 -27.3001 106.873 -28.4945 106.885C-29.8455 106.898 -30.9288 106.397 -31.7444 105.382C-32.5598 104.387 -32.978 103.044 -32.9992 101.353Z" fill="#23F7DD" fill-opacity="0.4"/>
<path d="M-21.3621 115.489L-12.2162 107.723L-11.7622 110.877L-18.6351 116.71L-10.3917 120.396L-9.93347 123.579L-20.9329 118.676L-30.2655 126.587L-30.7237 123.404L-23.6641 117.425L-32.1278 113.651L-32.5861 110.468L-21.3621 115.489Z" fill="#23F7DD" fill-opacity="0.4"/>
<path d="M-7.4062 132.742L-2.8857 145.196L-5.42424 146.118L-8.89767 136.549L-14.6646 138.643L-11.8556 146.382L-14.3941 147.304L-17.2031 139.565L-25.6741 142.642L-26.7211 139.757L-7.4062 132.742Z" fill="#23F7DD" fill-opacity="0.4"/>
<path d="M-17.3077 162.482C-18.0018 161.181 -18.3372 159.866 -18.3138 158.537C-18.2732 157.199 -17.9011 155.962 -17.1977 154.827C-16.485 153.709 -15.4815 152.804 -14.1873 152.111C-12.8931 151.418 -11.5843 151.086 -10.2607 151.113C-8.92793 151.158 -7.70379 151.54 -6.58828 152.259C-5.45551 152.969 -4.54206 153.975 -3.84792 155.277C-3.15377 156.578 -2.82703 157.898 -2.86768 159.236C-2.89107 160.565 -3.25912 161.788 -3.97181 162.906C-4.68449 164.024 -5.68794 164.929 -6.98215 165.622C-8.27636 166.315 -9.58523 166.648 -10.9088 166.62C-12.2323 166.592 -13.4604 166.223 -14.5932 165.514C-15.7087 164.794 -16.6135 163.784 -17.3077 162.482ZM-12.8129 154.688C-14.1417 155.4 -15.0252 156.363 -15.4635 157.58C-15.8926 158.813 -15.7739 160.055 -15.1075 161.305C-14.4504 162.537 -13.4955 163.308 -12.2427 163.619C-10.9807 163.948 -9.68527 163.756 -8.35655 163.045C-7.02783 162.333 -6.14893 161.361 -5.71987 160.127C-5.28155 158.911 -5.39095 157.687 -6.04807 156.455C-6.71445 155.205 -7.67865 154.416 -8.94069 154.088C-10.1935 153.777 -11.4842 153.977 -12.8129 154.688Z" fill="#23F7DD" fill-opacity="0.4"/>
<path d="M-2.83633 184.105L-4.53617 181.804L-2.43829 180.244C-3.41053 180.477 -4.34426 180.399 -5.23948 180.011C-6.1347 179.623 -6.91528 178.979 -7.5812 178.077C-8.57423 176.733 -8.9345 175.322 -8.66199 173.846C-8.3778 172.385 -7.52856 171.129 -6.11425 170.078L1.19299 164.647L2.89283 166.948L-3.96654 172.046C-4.90941 172.747 -5.48464 173.567 -5.69223 174.505C-5.88813 175.459 -5.67648 176.355 -5.05729 177.193C-4.36801 178.126 -3.46354 178.642 -2.34387 178.741C-1.21252 178.856 -0.128259 178.527 0.908897 177.756L7.34398 172.973L9.04382 175.274L-2.83633 184.105Z" fill="#23F7DD" fill-opacity="0.4"/>
<path d="M11.7842 178.493L13.7983 180.523L11.9494 182.372C12.8772 182 13.8049 181.934 14.7325 182.173C15.674 182.427 16.5392 182.951 17.3283 183.746C18.5049 184.932 19.0584 186.268 18.9888 187.756C18.933 189.257 18.2819 190.631 17.0354 191.878L10.5953 198.32L8.58121 196.291L14.6266 190.243C15.4576 189.412 15.9009 188.51 15.9565 187.537C16.026 186.578 15.6939 185.728 14.9603 184.989C14.1435 184.166 13.1744 183.787 12.0529 183.853C10.9313 183.919 9.91348 184.409 8.9994 185.323L3.32794 190.997L1.31384 188.967L11.7842 178.493Z" fill="#23F7DD" fill-opacity="0.4"/>
<path d="M20.0926 206.31C18.8967 205.417 18.0584 204.387 17.5776 203.221C17.1242 202.05 17.0073 200.838 17.227 199.583C17.474 198.323 18.0404 197.095 18.9262 195.897C19.812 194.699 20.8132 193.808 21.9298 193.223C23.0737 192.633 24.2629 192.396 25.4972 192.51C26.7589 192.621 27.9798 193.117 29.1599 193.998C29.9624 194.598 30.5601 195.325 30.9529 196.181C31.3731 197.034 31.5485 197.886 31.4792 198.74L36.4617 192.002L38.7511 193.711L26.2512 210.616L23.9617 208.906L25.2729 207.133C24.4681 207.462 23.5933 207.555 22.6487 207.412C21.7157 207.253 20.8636 206.886 20.0926 206.31ZM21.2393 197.625C20.3185 198.87 19.9089 200.118 20.0103 201.368C20.1275 202.63 20.7368 203.672 21.8383 204.494C22.9397 205.317 24.1006 205.597 25.3209 205.334C26.557 205.083 27.6354 204.334 28.5561 203.089C29.4769 201.844 29.8786 200.591 29.7615 199.329C29.66 198.078 29.0586 197.042 27.9571 196.219C26.8557 195.397 25.6869 195.111 24.4509 195.362C23.2306 195.625 22.16 196.379 21.2393 197.625Z" fill="#23F7DD" fill-opacity="0.4"/>
<path d="M35.267 216.233C33.9395 215.511 33.0655 214.567 32.6451 213.4C32.2247 212.234 32.3301 211.063 32.9614 209.888C33.6299 208.644 34.6159 207.907 35.9196 207.678C37.2325 207.432 38.6649 207.731 40.2165 208.575L42.932 210.051C43.2251 210.211 43.4777 210.259 43.6899 210.196C43.9193 210.142 44.099 209.994 44.229 209.752C44.6653 208.94 44.729 208.137 44.42 207.344C44.1283 206.56 43.491 205.901 42.5083 205.366C41.629 204.888 40.749 204.722 39.8684 204.868C39.0051 205.024 38.3751 205.43 37.9786 206.085L35.651 204.819C36.1749 204.01 36.8679 203.404 37.7299 203.002C38.6012 202.583 39.5528 202.408 40.5846 202.478C41.6257 202.53 42.6548 202.833 43.6721 203.386C44.7755 203.986 45.6382 204.724 46.2602 205.598C46.8914 206.455 47.2402 207.381 47.3065 208.377C47.3821 209.356 47.1646 210.321 46.654 211.272L42.1282 219.696L39.6197 218.332L40.7616 216.206C40.0706 216.746 39.2211 217.021 38.2132 217.031C37.2318 217.033 36.2497 216.767 35.267 216.233ZM35.472 211.186C35.1563 211.774 35.1205 212.38 35.3645 213.003C35.6178 213.61 36.1065 214.11 36.8306 214.504C38.003 215.142 39.1071 215.284 40.1429 214.932C41.1959 214.589 42.0473 213.813 42.6972 212.603L42.8643 212.292L39.5023 210.464C38.6403 209.995 37.8393 209.827 37.0992 209.961C36.3857 210.087 35.8433 210.495 35.472 211.186Z" fill="#23F7DD" fill-opacity="0.4"/>
<path d="M58.6111 205.52L56.9094 209.849L60.981 211.474L60.0763 213.775L56.0047 212.151L53.2906 219.057C53.0033 219.788 52.972 220.43 53.1966 220.985C53.4213 221.539 53.8615 221.947 54.5173 222.209L56.4575 222.983L55.5527 225.285L53.4213 224.434C52.0185 223.875 51.0561 223.026 50.5341 221.888C50.0302 220.757 50.0547 219.488 50.6076 218.082L53.354 211.094L50.5394 209.971L51.4441 207.669L54.2587 208.792L55.9605 204.462L58.6111 205.52Z" fill="#23F7DD" fill-opacity="0.4"/>
<path d="M64.3292 212.5L67.0575 213.332L62.7923 227.552L60.064 226.719L64.3292 212.5ZM68.9837 207.422L67.9513 210.864L64.9136 209.937L65.9461 206.495L68.9837 207.422Z" fill="#23F7DD" fill-opacity="0.4"/>
<path d="M75.0799 230.763C73.6364 230.487 72.4064 229.921 71.3898 229.067C70.3768 228.193 69.6494 227.124 69.2077 225.859C68.7853 224.598 68.7092 223.244 68.9796 221.795C69.2499 220.347 69.809 219.113 70.6569 218.095C71.5239 217.081 72.5847 216.364 73.8393 215.943C75.0974 215.504 76.4482 215.422 77.8917 215.698C79.3352 215.974 80.5635 216.549 81.5765 217.423C82.5931 218.277 83.3126 219.335 83.735 220.596C84.1575 221.857 84.2335 223.212 83.9632 224.66C83.6928 226.109 83.1337 227.342 82.2859 228.36C81.4381 229.378 80.3851 230.107 79.127 230.546C77.8724 230.967 76.5234 231.039 75.0799 230.763ZM71.8377 222.342C71.5601 223.829 71.7565 225.126 72.4267 226.235C73.1161 227.347 74.1538 228.035 75.5395 228.3C76.906 228.561 78.1011 228.3 79.1246 227.515C80.1673 226.735 80.8275 225.601 81.105 224.114C81.3826 222.627 81.1767 221.327 80.4872 220.215C79.817 219.107 78.7986 218.422 77.4321 218.161C76.0463 217.896 74.8321 218.154 73.7893 218.934C72.7658 219.719 72.1153 220.854 71.8377 222.342Z" fill="#23F7DD" fill-opacity="0.4"/>
<path d="M88.5159 217.659L91.3629 217.777L91.2632 220.4C91.6897 219.493 92.3232 218.811 93.1637 218.354C94.0237 217.898 95.0114 217.693 96.1267 217.739C97.79 217.808 99.0996 218.413 100.056 219.555C101.031 220.697 101.486 222.152 101.418 223.92L101.071 233.054L98.2239 232.936L98.55 224.362C98.5948 223.183 98.3082 222.217 97.6901 221.463C97.0916 220.711 96.2738 220.313 95.2368 220.27C94.0823 220.222 93.1172 220.605 92.3416 221.418C91.5659 222.232 91.1534 223.287 91.1041 224.584L90.7982 232.628L87.9511 232.51L88.5159 217.659Z" fill="#23F7DD" fill-opacity="0.4"/>
<path d="M118.375 226.66C117.562 226.78 116.823 226.6 116.158 226.122C115.509 225.621 115.124 224.962 115.002 224.145C114.88 223.328 115.058 222.596 115.535 221.949C116.029 221.28 116.683 220.885 117.496 220.766C118.31 220.646 119.041 220.836 119.689 221.337C120.354 221.816 120.748 222.464 120.87 223.281C120.991 224.098 120.805 224.841 120.312 225.51C119.834 226.157 119.189 226.54 118.375 226.66Z" fill="#23F7DD" fill-opacity="0.4"/>
<path d="M136.331 226.71L139.988 219.983L126.126 224.04L125.429 221.662L139.29 217.604L132.542 213.892L133.587 211.926L143.837 217.565L138.273 227.802L136.331 226.71Z" fill="#23F7DD" fill-opacity="0.4"/>
<path d="M151.993 216.844C151.244 217.182 150.485 217.211 149.715 216.932C148.956 216.627 148.407 216.098 148.068 215.344C147.73 214.591 147.702 213.837 147.986 213.084C148.279 212.304 148.8 211.746 149.55 211.408C150.299 211.07 151.054 211.054 151.813 211.359C152.582 211.638 153.136 212.154 153.475 212.908C153.814 213.661 153.836 214.428 153.543 215.207C153.259 215.961 152.743 216.506 151.993 216.844Z" fill="#23F7DD" fill-opacity="0.4"/>
<path d="M158.283 196.285L161.291 194.031L176.363 203.301L171.773 186.175L174.782 183.92L187.114 200.477L184.763 202.239L175.585 189.916L179.851 205.92L177.877 207.4L163.763 198.776L172.942 211.099L170.615 212.843L158.283 196.285Z" fill="#23F7DD" fill-opacity="0.4"/>
<path d="M200.777 186.206L198.835 188.293L196.922 186.499C197.329 187.417 197.424 188.353 197.209 189.306C196.993 190.259 196.505 191.145 195.745 191.962C194.61 193.182 193.295 193.788 191.799 193.781C190.315 193.76 188.929 193.144 187.639 191.934L180.976 185.683L182.917 183.596L189.173 189.464C190.032 190.271 190.941 190.693 191.898 190.731C192.869 190.755 193.708 190.387 194.415 189.627C195.202 188.78 195.541 187.796 195.432 186.672C195.336 185.535 194.816 184.522 193.87 183.635L188.002 178.13L189.943 176.042L200.777 186.206Z" fill="#23F7DD" fill-opacity="0.4"/>
<path d="M187.77 168.553L189.48 166.27L206.277 178.98L204.566 181.263L187.77 168.553Z" fill="#23F7DD" fill-opacity="0.4"/>
<path d="M195.447 160.191L199.377 162.681L201.705 158.967L203.794 160.291L201.467 164.005L207.736 167.976C208.399 168.397 209.022 168.548 209.606 168.43C210.189 168.312 210.669 167.954 211.043 167.356L212.152 165.586L214.242 166.91L213.024 168.854C212.222 170.134 211.217 170.925 210.008 171.227C208.81 171.512 207.572 171.251 206.295 170.442L199.952 166.423L198.343 168.99L196.254 167.667L197.863 165.099L193.932 162.609L195.447 160.191Z" fill="#23F7DD" fill-opacity="0.4"/>
<path d="M203.315 155.855L204.624 153.318L217.772 160.19L216.463 162.726L203.315 155.855ZM199.187 150.311L202.37 151.974L200.912 154.798L197.73 153.135L199.187 150.311Z" fill="#23F7DD" fill-opacity="0.4"/>
<path d="M206.1 150.718L207.195 147.985L219.062 148.579L210.094 140.741L211.2 137.98L222.913 148.618L221.863 151.242L206.1 150.718Z" fill="#23F7DD" fill-opacity="0.4"/>
<path d="M228.127 133.004C227.761 134.451 227.097 135.639 226.134 136.567C225.176 137.477 224.053 138.079 222.765 138.376C221.477 138.673 220.159 138.647 218.812 138.3C217.464 137.952 216.31 137.361 215.349 136.524C214.368 135.684 213.688 134.656 213.308 133.442C212.908 132.224 212.889 130.9 213.25 129.472C213.611 128.044 214.235 126.897 215.121 126.03C215.988 125.158 217.012 124.591 218.19 124.327C219.35 124.058 220.547 124.082 221.78 124.4C222.16 124.498 222.516 124.61 222.848 124.736L220.067 135.733C221.463 135.971 222.682 135.789 223.724 135.185C224.766 134.582 225.446 133.652 225.764 132.395C226.029 131.348 226.027 130.434 225.759 129.655C225.491 128.876 224.975 128.277 224.212 127.857L224.913 125.086C226.326 125.735 227.327 126.774 227.915 128.203C228.504 129.633 228.575 131.233 228.127 133.004ZM220.133 126.957C219.008 126.769 218.025 126.941 217.182 127.474C216.34 128.007 215.769 128.864 215.471 130.045C215.187 131.168 215.266 132.173 215.71 133.058C216.139 133.919 216.925 134.608 218.068 135.126L220.133 126.957Z" fill="#23F7DD" fill-opacity="0.4"/>
<path d="M218.973 112.937C218.666 115.315 220.377 116.752 224.106 117.248L230.747 118.133L230.381 120.969L215.7 119.013L216.066 116.178L218.892 116.554C217.944 116.091 217.287 115.517 216.921 114.834C216.555 114.151 216.438 113.293 216.572 112.26L216.802 110.477L219.248 110.803L218.973 112.937Z" fill="#23F7DD" fill-opacity="0.4"/>
<path d="M232.135 103.072C232.099 104.822 231.62 106.226 230.697 107.286C229.775 108.345 228.529 108.906 226.961 108.967L227.016 106.284C227.859 106.225 228.522 105.916 229.003 105.358C229.485 104.779 229.736 103.999 229.756 103.016C229.773 102.19 229.591 101.517 229.21 100.997C228.829 100.457 228.365 100.18 227.817 100.167C227.269 100.154 226.844 100.302 226.544 100.609C226.245 100.897 226.031 101.266 225.905 101.715C225.758 102.164 225.608 102.789 225.455 103.592C225.257 104.649 225.044 105.509 224.815 106.172C224.566 106.815 224.144 107.366 223.547 107.824C222.95 108.262 222.104 108.468 221.008 108.442C219.735 108.411 218.717 107.896 217.954 106.894C217.191 105.893 216.826 104.616 216.857 103.063C216.892 101.392 217.35 100.046 218.233 99.0251C219.096 97.9837 220.224 97.4304 221.616 97.3652L221.561 100.078C220.775 100.157 220.181 100.507 219.776 101.127C219.353 101.726 219.133 102.39 219.119 103.117C219.102 103.903 219.266 104.536 219.609 105.016C219.951 105.496 220.407 105.743 220.974 105.757C221.679 105.773 222.164 105.519 222.429 104.995C222.676 104.45 222.889 103.619 223.068 102.503C223.247 101.406 223.461 100.516 223.71 99.8338C223.959 99.1515 224.412 98.5723 225.068 98.0962C225.705 97.6001 226.62 97.3662 227.815 97.3946C229.165 97.4267 230.232 97.9634 231.014 99.0045C231.796 100.026 232.169 101.382 232.135 103.072Z" fill="#23F7DD" fill-opacity="0.4"/>
<path d="M220.969 88.5594L211.571 96.0155L211.221 92.8488L218.284 87.2478L210.165 83.29L209.812 80.094L220.645 85.3602L230.235 77.7646L230.588 80.9606L223.334 86.7011L231.669 90.754L232.023 93.9501L220.969 88.5594Z" fill="#23F7DD" fill-opacity="0.4"/>
<path d="M207.588 70.8532L203.481 58.2574L206.048 57.4204L209.205 67.0987L215.038 65.1973L212.486 57.3705L215.053 56.5335L217.606 64.3603L226.175 61.5673L227.126 64.4848L207.588 70.8532Z" fill="#23F7DD" fill-opacity="0.4"/>
<path d="M218.466 41.4613C219.117 42.7852 219.409 44.1108 219.342 45.4379C219.257 46.7738 218.844 47.9972 218.104 49.1082C217.355 50.2015 216.322 51.0729 215.005 51.7223C213.689 52.3717 212.369 52.6605 211.047 52.5889C209.717 52.4996 208.506 52.0771 207.414 51.3214C206.306 50.5743 205.426 49.5389 204.775 48.215C204.124 46.8911 203.841 45.5613 203.926 44.2254C203.993 42.8983 204.401 41.688 205.15 40.5946C205.899 39.5013 206.932 38.6299 208.249 37.9805C209.565 37.3311 210.885 37.0423 212.207 37.1139C213.529 37.1856 214.744 37.5949 215.853 38.342C216.944 39.0977 217.815 40.1375 218.466 41.4613ZM213.716 49.101C215.068 48.4343 215.983 47.5005 216.461 46.2996C216.931 45.081 216.853 43.8362 216.228 42.5653C215.612 41.3121 214.683 40.5092 213.441 40.1568C212.19 39.7868 210.889 39.9351 209.538 40.6018C208.186 41.2685 207.275 42.2111 206.806 43.4297C206.328 44.6307 206.397 45.8578 207.013 47.111C207.638 48.3819 208.575 49.2024 209.826 49.5725C211.068 49.9249 212.365 49.7677 213.716 49.101Z" fill="#23F7DD" fill-opacity="0.4"/>
<path d="M204.714 19.372L206.337 21.7281L204.189 23.2167C205.169 23.0165 206.099 23.1251 206.981 23.5427C207.863 23.9602 208.622 24.6305 209.258 25.5535C210.207 26.9299 210.52 28.3514 210.199 29.8178C209.867 31.2681 208.977 32.495 207.528 33.4985L200.045 38.6835L198.422 36.3274L205.446 31.4602C206.412 30.7912 207.014 29.9913 207.252 29.0606C207.48 28.1136 207.298 27.2111 206.706 26.3528C206.048 25.3974 205.161 24.8518 204.045 24.7159C202.918 24.5639 201.823 24.8558 200.761 25.5917L194.171 30.1578L192.548 27.8017L204.714 19.372Z" fill="#23F7DD" fill-opacity="0.4"/>
<path d="M189.915 24.4942L187.969 22.3989L189.878 20.612C188.938 20.9531 188.009 20.9885 187.09 20.7184C186.157 20.4338 185.309 19.8811 184.547 19.0602C183.41 17.8362 182.901 16.4821 183.019 14.9981C183.124 13.4997 183.821 12.1481 185.108 10.9435L191.757 4.71922L193.704 6.81448L187.461 12.6573C186.603 13.4604 186.131 14.3472 186.043 15.3177C185.942 16.2738 186.246 17.1334 186.955 17.8967C187.744 18.7463 188.7 19.1569 189.823 19.1286C190.947 19.1002 191.98 18.6443 192.924 17.7609L198.78 12.2795L200.726 14.3748L189.915 24.4942Z" fill="#23F7DD" fill-opacity="0.4"/>
<path d="M182.528 -3.58123C183.694 -2.64892 184.498 -1.59192 184.94 -0.410194C185.354 0.774627 185.431 1.99049 185.17 3.23737C184.882 4.48735 184.275 5.69619 183.35 6.86387C182.425 8.03156 181.395 8.88922 180.26 9.43686C179.097 9.9876 177.9 10.1853 176.67 10.0299C175.413 9.87753 174.209 9.34135 173.058 8.4213C172.276 7.79567 171.703 7.04854 171.338 6.17994C170.946 5.31443 170.799 4.45635 170.896 3.60572L165.694 10.1739L163.462 8.38908L176.514 -8.08912L178.746 -6.30425L177.377 -4.57574C178.192 -4.87744 179.07 -4.94124 180.009 -4.76713C180.936 -4.57765 181.776 -4.18233 182.528 -3.58123ZM181.095 5.06056C182.056 3.84678 182.507 2.61355 182.447 1.36084C182.371 0.0958554 181.797 -0.965989 180.723 -1.8247C179.649 -2.68341 178.498 -3.00166 177.269 -2.7794C176.026 -2.56941 174.923 -1.85751 173.962 -0.643734C173 0.570045 172.557 1.80943 172.633 3.07441C172.693 4.32713 173.26 5.38283 174.334 6.24154C175.408 7.10025 176.567 7.42462 177.81 7.21463C179.039 6.99237 180.134 6.27434 181.095 5.06056Z" fill="#23F7DD" fill-opacity="0.4"/>
<path d="M167.687 -14.0019C168.99 -13.2363 169.833 -12.2636 170.215 -11.0839C170.596 -9.90425 170.452 -8.73773 169.783 -7.58435C169.073 -6.36313 168.064 -5.65981 166.753 -5.4744C165.432 -5.27202 164.011 -5.61824 162.487 -6.51309L159.822 -8.07909C159.534 -8.24812 159.283 -8.30454 159.069 -8.24839C158.838 -8.20218 158.653 -8.06037 158.516 -7.82291C158.053 -7.02573 157.962 -6.22561 158.245 -5.42258C158.511 -4.62949 159.126 -3.94958 160.091 -3.38284C160.954 -2.87576 161.828 -2.68072 162.713 -2.7977C163.581 -2.92462 164.224 -3.30887 164.642 -3.95048L166.927 -2.60821C166.377 -1.81687 165.664 -1.23462 164.789 -0.861469C163.904 -0.471353 162.947 -0.328348 161.918 -0.432449C160.88 -0.51959 159.861 -0.856473 158.862 -1.4431C157.779 -2.07943 156.941 -2.84473 156.348 -3.739C155.746 -4.61631 155.427 -5.55386 155.394 -6.55165C155.351 -7.53249 155.6 -8.48936 156.142 -9.42224L160.943 -17.6909L163.406 -16.2442L162.194 -14.158C162.903 -14.6744 163.761 -14.921 164.769 -14.8976C165.75 -14.8672 166.723 -14.5686 167.687 -14.0019ZM167.316 -8.96522C167.651 -9.54191 167.707 -10.1461 167.483 -10.7777C167.25 -11.3924 166.778 -11.9086 166.067 -12.3262C164.916 -13.0023 163.818 -13.1816 162.771 -12.864C161.707 -12.5563 160.83 -11.8088 160.141 -10.6215L159.963 -10.3162L163.264 -8.37739C164.11 -7.88026 164.905 -7.68609 165.649 -7.79488C166.366 -7.89665 166.922 -8.28677 167.316 -8.96522Z" fill="#23F7DD" fill-opacity="0.4"/>
<path d="M144 -4.07175L145.844 -8.342L141.828 -10.1004L142.808 -12.3707L146.824 -10.6123L149.765 -17.4231C150.076 -18.1438 150.128 -18.7849 149.922 -19.3466C149.716 -19.9082 149.289 -20.3306 148.643 -20.6138L146.729 -21.4518L147.709 -23.722L149.811 -22.8015C151.195 -22.1957 152.129 -21.3154 152.613 -20.1607C153.08 -19.0139 153.013 -17.7468 152.414 -16.3594L149.439 -9.46751L152.215 -8.25194L151.235 -5.98168L148.459 -7.19725L146.615 -2.92698L144 -4.07175Z" fill="#23F7DD" fill-opacity="0.4"/>
<path d="M138.515 -11.237L135.815 -12.16L140.547 -26.2287L143.247 -25.3057L138.515 -11.237ZM133.695 -6.31774L134.84 -9.72326L137.846 -8.69561L136.701 -5.29008L133.695 -6.31774Z" fill="#23F7DD" fill-opacity="0.4"/>
<path d="M128.371 -29.8455C129.805 -29.5217 131.016 -28.9159 132.004 -28.0282C132.988 -27.1213 133.679 -26.0287 134.079 -24.7502C134.46 -23.476 134.491 -22.1196 134.173 -20.6811C133.855 -19.2425 133.256 -18.0286 132.375 -17.0395C131.474 -16.0546 130.39 -15.373 129.123 -14.9948C127.851 -14.5974 126.498 -14.5606 125.064 -14.8844C123.63 -15.2083 122.421 -15.8236 121.438 -16.7305C120.45 -17.6182 119.765 -18.6992 119.385 -19.9733C119.004 -21.2475 118.973 -22.6038 119.291 -24.0424C119.609 -25.481 120.208 -26.6949 121.089 -27.684C121.97 -28.6732 123.047 -29.3665 124.319 -29.7639C125.587 -30.1422 126.937 -30.1693 128.371 -29.8455ZM131.334 -21.3223C131.661 -22.7992 131.507 -24.1026 130.874 -25.2324C130.221 -26.3666 129.207 -27.0891 127.831 -27.4C126.473 -27.7065 125.27 -27.4849 124.221 -26.735C123.153 -25.9894 122.456 -24.8782 122.129 -23.4012C121.803 -21.9243 121.966 -20.6188 122.618 -19.4846C123.252 -18.3548 124.247 -17.6366 125.604 -17.33C126.981 -17.0191 128.203 -17.2365 129.271 -17.9821C130.32 -18.7319 131.008 -19.8453 131.334 -21.3223Z" fill="#23F7DD" fill-opacity="0.4"/>
<path d="M114.509 -17.1974L111.667 -17.4101L111.853 -20.0275C111.397 -19.1353 110.741 -18.4748 109.886 -18.046C109.012 -17.6187 108.017 -17.4467 106.904 -17.53C105.244 -17.6543 103.955 -18.3027 103.037 -19.4752C102.099 -20.6492 101.693 -22.1185 101.819 -23.883L102.467 -33L105.309 -32.7873L104.7 -24.2291C104.617 -23.0527 104.871 -22.0777 105.464 -21.304C106.038 -20.5318 106.842 -20.107 107.877 -20.0295C109.03 -19.9432 110.007 -20.2939 110.809 -21.0814C111.611 -21.8689 112.058 -22.9097 112.15 -24.2037L112.721 -32.2325L115.563 -32.0198L114.509 -17.1974Z" fill="#23F7DD" fill-opacity="0.4"/>
<path d="M84.9597 -27.1848C85.7766 -27.2775 86.5096 -27.0736 87.1586 -26.5733C87.7904 -26.0511 88.1538 -25.3798 88.2486 -24.5593C88.3435 -23.7387 88.1416 -23.0132 87.6431 -22.3826C87.1273 -21.7304 86.461 -21.3579 85.644 -21.2652C84.8271 -21.1726 84.1027 -21.3873 83.4709 -21.9094C82.8219 -22.4098 82.4499 -23.0702 82.355 -23.8908C82.2602 -24.7113 82.4707 -25.4477 82.9864 -26.1C83.485 -26.7306 84.1428 -27.0922 84.9597 -27.1848Z" fill="#23F7DD" fill-opacity="0.4"/>
<path d="M67.0132 -27.8319L63.1367 -21.2304L77.126 -24.8247L77.7448 -22.4247L63.7554 -18.8303L70.3783 -14.896L69.269 -12.9659L59.2094 -18.9418L65.1085 -28.9875L67.0132 -27.8319Z" fill="#23F7DD" fill-opacity="0.4"/>
<path d="M51.0329 -18.493C51.7932 -18.8056 52.5531 -18.8096 53.3128 -18.5051C54.0618 -18.175 54.5931 -17.6278 54.9068 -16.8635C55.2205 -16.0992 55.2232 -15.3452 54.9149 -14.6017C54.5959 -13.8325 54.0563 -13.2916 53.2961 -12.979C52.5358 -12.6665 51.7812 -12.6752 51.0322 -13.0053C50.2726 -13.3098 49.7359 -13.8442 49.4222 -14.6085C49.1085 -15.3728 49.1111 -16.1396 49.4301 -16.9088C49.7384 -17.6523 50.2727 -18.1804 51.0329 -18.493Z" fill="#23F7DD" fill-opacity="0.4"/>
</g>
<path d="M104.412 99.5L141 79.8718L134.849 68L101.346 81.607C100.483 81.9579 99.5265 81.9579 98.6638 81.607L65.1512 68.0095L59 79.8718L95.5882 99.5L59 119.128L65.1512 131L98.6544 117.393C99.5171 117.042 100.474 117.042 101.336 117.393L134.839 131L140.991 119.128L104.402 99.5H104.412Z" fill="#23F7DD"/>
</g>
<defs>
<clipPath id="clip0_2215_1305">
<rect width="200" height="200" fill="white"/>
</clipPath>
</defs>
</svg>
