<?xml version="1.0" standalone="no"?>
<!DOCTYPE svg PUBLIC "-//W3C//DTD SVG 20010904//EN"
 "http://www.w3.org/TR/2001/REC-SVG-20010904/DTD/svg10.dtd">
<svg version="1.0" xmlns="http://www.w3.org/2000/svg"
 width="300.000000pt" height="300.000000pt" viewBox="0 0 300.000000 300.000000"
 preserveAspectRatio="xMidYMid meet">
<metadata>
Created by potrace 1.16, written by Peter Selinger 2001-2019
</metadata>
<g transform="translate(0.000000,300.000000) scale(0.031120,-0.031120)"
fill="#000000" stroke="none">
<path d="M0 9106 l0 -534 27 -18 c16 -9 33 -23 38 -29 10 -11 124 -105 206
-170 21 -16 66 -52 101 -80 35 -27 68 -54 73 -61 6 -6 82 -69 170 -140 88 -70
166 -134 173 -141 8 -7 30 -26 50 -41 21 -15 43 -33 50 -40 8 -7 30 -25 50
-40 20 -15 44 -34 52 -42 9 -8 40 -35 70 -59 29 -25 58 -50 64 -55 6 -6 32
-27 56 -46 68 -53 68 -53 174 -142 54 -46 118 -97 143 -114 24 -18 54 -41 66
-52 12 -11 43 -30 69 -41 46 -20 47 -20 53 0 4 10 10 19 15 19 10 0 70 56 70
66 0 4 15 21 33 38 18 17 63 67 101 111 37 44 83 96 101 116 l34 36 -26 39
c-33 49 -100 131 -172 209 -140 152 -261 284 -301 330 -24 28 -78 86 -120 130
-41 44 -95 103 -119 130 -25 28 -70 77 -100 110 -31 33 -76 83 -100 110 -23
28 -73 82 -110 120 -36 39 -79 87 -95 105 -16 19 -54 62 -85 95 -31 33 -76 83
-100 110 -23 28 -68 77 -100 110 -31 33 -74 80 -95 105 -21 25 -62 70 -90 100
-28 30 -77 85 -109 123 l-59 67 -129 0 -129 0 0 -534z"/>
<path d="M401 9603 c20 -21 46 -49 58 -63 13 -14 53 -59 91 -100 37 -41 114
-127 171 -190 57 -63 123 -137 148 -164 54 -57 46 -49 136 -151 38 -44 81 -91
95 -105 14 -14 54 -59 90 -100 35 -41 73 -84 85 -95 11 -11 50 -54 85 -95 36
-41 67 -77 70 -80 20 -20 124 -136 167 -185 28 -33 66 -76 85 -95 18 -20 47
-52 63 -71 110 -132 309 -342 338 -358 33 -17 267 39 316 77 43 32 101 92 101
103 0 5 7 9 16 9 11 0 14 6 8 23 -11 35 -83 167 -120 220 -19 26 -34 50 -34
55 0 4 -11 16 -25 26 -14 10 -25 24 -25 30 0 6 -11 24 -25 40 -14 16 -25 32
-25 36 0 4 -11 20 -25 36 -14 16 -25 34 -25 41 0 6 -4 13 -8 15 -5 2 -44 55
-87 118 -44 63 -83 117 -87 118 -4 2 -8 10 -8 17 0 7 -4 15 -8 17 -5 2 -34 41
-65 88 -31 47 -75 110 -97 141 -22 31 -40 61 -40 67 0 6 -4 12 -8 14 -9 3
-213 301 -340 495 l-67 102 -520 1 -519 0 35 -37z"/>
<path d="M1520 9636 c0 -3 54 -85 121 -183 334 -495 478 -709 513 -766 21 -34
42 -63 47 -65 5 -2 9 -8 9 -13 0 -5 44 -76 98 -157 55 -82 102 -161 106 -175
3 -15 11 -27 16 -27 5 0 25 -23 43 -50 19 -28 62 -81 95 -119 l62 -69 56 17
c74 24 254 157 254 190 0 7 5 9 10 6 37 -23 -23 122 -178 435 -80 162 -149
297 -154 298 -4 2 -8 12 -8 23 0 10 -4 19 -10 19 -5 0 -10 6 -10 14 0 7 -30
72 -67 142 -65 127 -130 256 -202 404 l-36 75 -383 3 c-210 1 -382 0 -382 -2z"/>
<path d="M2380 9630 c0 -5 61 -130 135 -278 74 -148 135 -274 135 -280 0 -7 5
-12 10 -12 6 0 10 -9 10 -20 0 -11 5 -20 10 -20 6 0 10 -6 10 -12 0 -12 59
-135 161 -338 21 -41 55 -109 75 -150 21 -41 41 -77 44 -80 9 -9 30 -45 36
-62 4 -10 10 -18 15 -18 5 0 9 -5 9 -11 0 -6 9 -22 20 -36 11 -14 20 -21 20
-15 0 15 34 9 42 -8 5 -12 7 -12 7 2 1 13 11 17 49 17 26 -1 61 6 77 15 17 9
37 16 46 16 9 0 32 10 51 23 18 12 49 31 68 42 19 10 43 28 52 40 18 21 24 80
9 89 -5 3 -11 23 -15 43 -14 92 -28 135 -67 215 -5 10 -9 27 -9 37 0 11 -4 23
-10 26 -5 3 -10 17 -10 30 0 13 -4 27 -10 30 -5 3 -10 15 -10 26 0 10 -4 27
-10 37 -5 9 -23 60 -40 112 -17 52 -35 103 -40 112 -6 10 -10 25 -10 33 0 8
-4 23 -9 33 -10 18 -71 190 -91 257 -7 22 -16 48 -21 57 -5 10 -9 27 -9 38 0
20 -6 20 -365 20 -226 0 -365 -4 -365 -10z"/>
<path d="M3205 9618 c17 -57 48 -155 56 -173 4 -11 13 -38 20 -60 6 -22 15
-48 20 -57 5 -10 9 -25 9 -33 0 -8 4 -23 9 -33 5 -9 28 -78 51 -152 42 -135
48 -150 69 -203 6 -15 11 -36 11 -45 0 -9 7 -30 15 -46 8 -15 15 -36 15 -45 0
-10 3 -21 7 -25 4 -3 8 -14 9 -23 2 -10 7 -26 12 -38 37 -79 61 -132 65 -145
8 -27 124 -16 287 26 116 30 128 36 160 79 14 19 31 35 38 35 6 0 12 4 12 10
0 5 11 12 25 16 l26 6 -6 92 c-4 50 -10 100 -15 111 -5 11 -11 43 -14 70 -3
28 -9 75 -15 105 -5 30 -15 87 -21 125 -6 39 -16 95 -21 125 -21 126 -30 188
-37 240 l-7 55 -393 3 -393 2 6 -22z"/>
<path d="M4060 9596 c0 -25 4 -47 9 -50 8 -5 13 -40 27 -181 3 -27 9 -59 14
-70 5 -11 11 -40 14 -65 17 -140 22 -176 29 -187 5 -7 10 -34 13 -60 3 -27 8
-55 11 -63 3 -8 9 -35 14 -60 18 -107 39 -134 95 -124 13 2 24 0 24 -6 0 -6 3
-9 8 -6 4 2 32 -2 62 -10 43 -11 65 -12 100 -4 50 12 125 47 151 70 10 8 29
23 43 33 l25 17 -5 283 c-2 155 -7 337 -10 405 l-6 122 -309 0 -309 0 0 -44z"/>
<path d="M4774 9378 c7 -294 19 -555 26 -561 3 -2 39 -14 80 -27 87 -26 132
-27 198 -6 66 21 113 30 139 27 29 -3 33 17 51 249 4 47 10 90 15 97 4 7 12
63 17 125 16 179 29 301 36 331 l6 27 -287 0 -287 0 6 -262z"/>
<path d="M5406 9593 c-11 -82 -38 -334 -56 -533 -5 -52 -12 -112 -15 -133 -4
-20 -4 -57 -1 -81 6 -40 10 -45 40 -50 18 -4 59 -20 90 -37 55 -30 61 -31 194
-33 136 -2 137 -1 154 24 10 14 18 34 18 46 0 11 3 24 7 28 9 9 33 96 40 149
3 20 9 40 14 43 5 3 9 20 9 39 0 19 5 37 10 40 6 3 10 21 10 40 0 19 5 37 10
40 6 3 10 24 10 45 0 21 5 42 10 45 6 3 10 18 10 32 0 15 4 40 9 57 5 17 14
50 20 74 6 23 17 61 23 85 7 23 12 48 10 55 -2 7 4 22 13 34 8 13 15 26 15 30
0 5 -144 8 -319 8 l-319 0 -6 -47z"/>
<path d="M6126 9624 c-3 -9 -6 -26 -6 -39 0 -13 -4 -26 -9 -29 -5 -3 -12 -25
-15 -48 -16 -104 -19 -118 -27 -124 -5 -3 -9 -17 -9 -31 0 -15 -4 -40 -9 -57
-5 -17 -15 -51 -21 -76 -6 -25 -16 -58 -22 -75 -6 -16 -12 -41 -13 -55 -2 -14
-8 -38 -14 -55 -24 -74 -31 -103 -31 -126 0 -14 -5 -30 -10 -35 -6 -6 -11 -48
-13 -93 l-2 -83 60 -33 c62 -35 67 -38 125 -60 70 -27 343 -62 367 -47 9 6
123 233 123 245 0 3 16 41 36 84 20 43 41 89 46 103 6 14 14 33 19 42 5 10 9
25 9 33 0 8 5 15 10 15 6 0 10 7 10 15 0 8 4 23 9 33 5 9 13 28 19 42 5 14 21
50 36 80 14 30 26 60 26 65 0 6 9 27 20 48 11 20 20 39 20 42 0 3 9 26 21 53
12 26 24 56 29 67 13 35 32 79 41 98 9 16 -14 17 -405 17 -368 0 -415 -2 -420
-16z"/>
<path d="M7030 9620 c0 -11 -4 -20 -10 -20 -5 0 -10 -11 -10 -24 0 -14 -4 -28
-10 -31 -5 -3 -10 -15 -10 -26 0 -10 -4 -19 -10 -19 -5 0 -10 -7 -10 -15 0 -8
-9 -35 -20 -60 -11 -25 -29 -65 -40 -90 -11 -25 -20 -47 -20 -50 0 -5 -20 -51
-61 -141 -11 -22 -19 -44 -19 -49 0 -5 -9 -27 -19 -49 -32 -68 -56 -126 -106
-251 -25 -66 -55 -139 -66 -163 -23 -52 -36 -122 -21 -122 5 0 19 -15 31 -32
11 -18 23 -32 25 -31 16 5 46 -12 51 -28 4 -10 9 -18 13 -17 12 2 107 -44 114
-56 5 -7 8 -6 8 4 0 10 3 11 8 4 4 -6 16 -9 27 -7 11 2 41 5 67 6 26 1 44 5
42 9 -3 4 4 8 15 8 10 0 27 3 35 6 17 7 126 155 126 172 0 6 4 12 8 14 4 2 17
19 28 38 12 19 85 140 163 269 77 128 141 238 141 242 0 5 5 9 10 9 6 0 10 5
10 10 0 6 48 90 106 188 59 97 116 193 127 212 10 19 28 47 38 62 11 14 19 31
19 37 0 8 -114 11 -390 11 -383 0 -390 0 -390 -20z"/>
<path d="M7874 9558 c-27 -46 -53 -92 -60 -103 -6 -11 -23 -40 -38 -65 -15
-25 -29 -53 -33 -62 -3 -10 -9 -18 -14 -18 -5 0 -9 -5 -9 -11 0 -6 -8 -23 -19
-37 -10 -15 -28 -43 -38 -62 -11 -19 -59 -99 -107 -177 -47 -79 -86 -147 -86
-153 0 -5 -4 -10 -9 -10 -5 0 -11 -8 -15 -17 -3 -10 -14 -31 -23 -48 -43 -71
-97 -162 -113 -190 -9 -16 -41 -71 -69 -122 -53 -92 -85 -176 -73 -187 3 -4 8
-19 10 -34 2 -15 7 -31 13 -37 5 -5 9 -25 9 -45 0 -29 8 -45 35 -73 20 -20 47
-39 60 -42 14 -3 37 -8 53 -12 28 -7 122 -11 103 -5 -20 7 -11 20 9 15 11 -3
27 0 35 7 8 6 18 9 23 6 12 -7 105 88 214 219 128 155 241 294 263 325 11 15
47 60 80 100 33 41 86 107 117 148 32 41 71 90 88 108 16 18 30 38 30 43 0 5
4 11 8 13 4 2 45 50 90 108 46 58 104 132 130 165 26 33 54 68 62 79 8 10 29
35 46 55 17 20 44 54 60 76 16 22 36 47 44 55 9 8 23 27 33 43 l17 27 -438 0
-439 0 -49 -82z"/>
<path d="M8890 9619 c-23 -33 -181 -234 -258 -329 -38 -47 -87 -107 -108 -135
-21 -27 -42 -55 -48 -62 -33 -37 -291 -360 -441 -553 -44 -56 -92 -117 -106
-134 -14 -17 -62 -80 -108 -141 -45 -60 -94 -126 -110 -145 -16 -20 -42 -60
-57 -89 -24 -44 -26 -53 -14 -61 11 -7 12 -12 4 -20 -12 -12 -7 -57 8 -66 5
-3 4 -11 -2 -19 -7 -8 -8 -20 -4 -27 5 -7 7 -21 5 -32 -1 -10 3 -22 11 -27 7
-4 13 -14 14 -21 3 -34 5 -38 24 -38 11 0 30 -10 42 -22 15 -15 23 -18 26 -9
3 8 8 7 18 -6 13 -17 13 -17 14 1 0 15 3 16 15 6 8 -7 15 -8 15 -3 0 6 16 13
37 16 27 5 39 2 49 -11 12 -15 13 -15 14 -1 0 12 10 16 39 16 46 0 113 47 236
163 44 42 121 114 170 160 50 46 119 112 154 145 35 33 80 75 100 94 20 18 81
77 136 130 55 53 141 135 190 181 50 46 160 152 245 235 85 83 219 211 298
284 l142 134 0 203 0 204 -368 0 c-363 0 -368 0 -382 -21z"/>
<path d="M9521 8988 c-58 -56 -144 -138 -191 -182 -85 -80 -197 -186 -365
-346 -50 -47 -135 -128 -190 -180 -452 -425 -655 -626 -655 -647 0 -7 -5 -13
-11 -13 -7 0 -9 -11 -6 -30 4 -20 1 -34 -10 -46 -12 -12 -13 -18 -4 -24 10 -5
10 -16 2 -44 -5 -21 -7 -44 -4 -53 3 -8 1 -18 -6 -22 -9 -6 -9 -15 -1 -36 6
-15 8 -37 4 -48 -4 -13 -2 -17 5 -13 7 4 11 -1 11 -12 0 -11 13 -34 29 -51 15
-16 28 -32 27 -33 0 -2 1 -2 3 -1 2 1 18 -9 35 -22 43 -32 181 -50 263 -33 53
10 93 35 523 326 102 69 248 168 325 220 77 52 149 103 161 113 11 11 24 19
29 19 5 0 17 7 27 17 10 9 26 21 36 27 10 6 32 20 50 31 l32 20 0 583 c0 320
-3 582 -6 582 -3 0 -54 -46 -113 -102z"/>
<path d="M4789 8437 c-14 -40 -45 -44 -73 -9 -18 23 -23 24 -105 18 -119 -8
-189 -20 -234 -40 -22 -9 -44 -15 -50 -13 -7 2 -20 -8 -29 -22 -19 -28 -24
-71 -9 -71 5 0 12 -35 15 -77 9 -110 15 -180 22 -241 8 -72 -2 -121 -24 -118
-12 2 -18 15 -22 48 -3 25 -11 52 -17 59 -6 8 -13 34 -17 59 -15 118 -18 137
-32 167 -8 17 -14 41 -14 52 0 12 -6 39 -12 61 -12 39 -14 40 -58 41 -25 1
-49 0 -55 -1 -5 -2 -21 -4 -35 -5 -87 -8 -332 -94 -388 -135 -17 -13 -38 -20
-46 -17 -17 7 -61 -7 -151 -48 -119 -54 -185 -88 -196 -102 -6 -7 -18 -13 -25
-13 -26 0 -26 -45 -1 -101 81 -178 134 -315 126 -323 -13 -15 -11 -28 4 -20 8
5 8 3 -1 -7 -11 -12 -17 -9 -38 16 -13 17 -24 36 -24 43 0 6 -4 12 -10 12 -5
0 -10 5 -10 12 0 6 -6 19 -14 27 -7 9 -24 36 -37 61 -54 102 -115 190 -131
190 -37 0 -219 -115 -312 -197 -26 -24 -53 -43 -58 -43 -26 0 -258 -207 -258
-230 0 -5 -7 -10 -15 -10 -8 0 -22 -11 -30 -24 -13 -19 -14 -29 -5 -45 24 -46
102 -149 153 -203 l54 -58 604 0 604 0 0 -1032 0 -1033 1050 0 1050 0 2 1030
3 1030 658 3 659 2 8 -427 c5 -236 9 -493 8 -573 -10 -1633 -14 -3399 -8
-3695 l7 -380 118 -117 c65 -65 123 -118 128 -118 18 0 332 319 332 336 0 9
19 35 43 58 23 22 51 54 61 69 11 16 28 38 39 50 10 12 27 41 38 64 10 23 25
46 33 50 8 4 28 35 45 68 l32 60 -32 27 c-18 15 -44 33 -58 40 -43 22 -287
186 -301 202 -7 9 -19 16 -26 16 -17 0 -18 7 -2 24 7 7 20 11 30 8 26 -7 222
-108 333 -172 69 -40 90 -50 102 -50 7 0 23 21 35 48 12 26 32 61 45 78 13 17
23 34 23 37 0 4 14 36 30 70 17 35 30 70 30 78 0 8 6 26 14 41 8 14 19 43 26
63 11 33 10 38 -9 56 -12 11 -21 31 -21 45 0 20 5 25 23 24 12 -1 30 -2 39 -1
21 1 64 73 73 121 3 19 10 44 15 55 8 19 30 116 30 135 0 5 -16 12 -35 16 -36
6 -45 18 -22 27 9 4 9 7 -1 15 -8 5 -13 15 -12 23 5 30 -1 38 -37 50 -21 7
-39 12 -40 11 -2 -1 -20 4 -40 12 -21 7 -58 19 -83 26 -25 7 -61 18 -80 26
-19 7 -58 21 -87 30 -29 9 -57 22 -64 30 -6 8 -19 14 -27 14 -13 0 -11 4 5 15
19 13 36 14 114 5 50 -6 96 -13 101 -16 8 -5 50 -13 162 -30 l28 -4 -23 20
c-13 11 -18 19 -11 20 6 0 12 5 12 11 0 7 -11 8 -32 4 -26 -6 -30 -5 -25 9 4
10 1 19 -9 23 -8 3 -13 12 -10 19 3 8 1 24 -4 36 -5 13 -9 17 -9 9 -1 -10 -7
-8 -22 8 -18 19 -19 25 -8 32 11 7 10 9 -3 9 -10 0 -18 6 -18 14 0 8 -7 16
-15 20 -8 3 -15 13 -15 22 0 10 -5 14 -14 11 -10 -4 -17 4 -21 24 -4 16 -13
29 -21 29 -8 0 -14 6 -14 14 0 8 -12 28 -26 45 -23 27 -32 31 -77 31 -29 0
-58 4 -66 9 -17 11 -23 86 -9 113 5 10 4 19 -3 23 -6 4 -8 13 -5 20 3 8 -2 19
-10 25 -8 7 -14 9 -14 4 0 -4 -5 -3 -12 4 -7 7 -20 12 -30 12 -10 0 -20 10
-24 25 -3 14 -10 22 -15 20 -4 -3 -15 8 -24 25 -9 18 -31 37 -53 47 -47 20
-73 53 -75 98 -2 32 -33 78 -94 142 -13 13 -23 30 -23 37 0 19 -57 95 -107
143 -23 22 -43 45 -44 50 0 4 -2 19 -4 33 -2 14 -5 42 -6 63 -1 20 -5 37 -9
37 -3 0 -14 19 -24 43 -9 23 -21 49 -27 57 -18 29 -31 65 -35 100 -2 19 -9 64
-15 100 -6 36 -10 99 -10 140 5 340 -4 611 -20 642 -19 36 47 233 76 228 10
-2 45 47 45 63 0 9 3 17 8 19 4 2 20 18 35 37 16 19 53 52 83 73 30 22 54 43
54 49 0 5 7 9 16 9 8 0 13 4 10 9 -9 14 18 61 34 61 31 0 72 101 48 116 -4 3
-5 11 -2 19 5 12 -16 87 -55 200 -6 17 -13 42 -16 58 -3 15 -12 27 -20 27 -35
0 -55 33 -55 91 0 37 -5 61 -14 68 -8 7 -20 35 -27 62 -13 51 -70 129 -93 129
-7 0 -21 9 -30 19 -25 27 -83 53 -105 46 -15 -5 -122 -119 -211 -225 -72 -87
-123 -139 -131 -134 -5 3 -9 0 -9 -5 0 -6 -4 -11 -10 -11 -16 0 2 63 29 100
82 114 103 143 158 217 76 100 112 166 82 148 -6 -4 -5 3 3 15 12 20 8 26 -57
86 -38 36 -97 81 -130 101 -33 20 -68 43 -78 51 -15 14 -21 14 -50 1 -47 -22
-65 -14 -69 29 -2 27 -9 40 -27 48 -13 7 -26 16 -30 21 -3 4 -28 18 -56 30
-27 11 -92 40 -144 63 -51 22 -103 40 -115 38 -15 -2 -38 -37 -92 -144 -39
-77 -76 -154 -82 -170 -10 -25 -34 -70 -80 -151 -18 -33 -43 -19 -35 20 6 36
39 136 58 182 22 52 61 158 75 205 8 25 17 50 21 55 10 14 -1 65 -14 65 -6 0
-51 20 -101 44 -107 52 -225 91 -316 105 -65 11 -79 6 -80 -26 0 -8 -13 -13
-29 -13 -24 0 -31 5 -36 29 -3 16 -12 34 -18 39 -32 24 -145 44 -277 47 l-138
3 -6 -31 c-24 -144 -38 -233 -45 -297 -4 -41 -13 -88 -19 -103 -7 -16 -12 -45
-12 -65 0 -48 -16 -75 -26 -47 -7 18 -8 18 -16 -1 -12 -29 1 447 14 479 13 34
-5 58 -46 60 -14 1 -26 5 -26 8 0 15 -97 29 -204 29 l-115 0 -12 -33z"/>
<path d="M0 7991 l0 -449 30 -14 c16 -7 30 -16 30 -20 0 -5 4 -8 9 -8 5 0 45
-22 88 -49 43 -28 101 -62 128 -77 28 -14 52 -29 55 -33 8 -9 63 -42 83 -48 9
-3 17 -8 17 -12 0 -4 16 -13 35 -21 19 -8 35 -17 35 -22 0 -4 5 -8 10 -8 6 0
49 -25 95 -55 47 -30 90 -55 95 -55 6 0 10 -3 10 -7 0 -5 23 -19 50 -32 28
-14 50 -29 50 -33 0 -4 5 -8 11 -8 6 0 29 -12 52 -27 66 -44 81 -53 97 -60 8
-3 26 -14 40 -23 14 -10 42 -27 63 -39 20 -11 54 -31 75 -42 70 -41 151 -79
166 -79 8 0 20 8 25 18 6 9 11 13 11 7 0 -5 6 0 13 12 13 24 122 168 148 197
10 10 23 32 29 50 6 17 18 46 26 64 9 22 11 39 5 50 -10 19 -91 96 -157 149
-49 40 -297 235 -344 271 -19 15 -60 47 -90 70 -30 24 -82 65 -114 90 -32 26
-69 57 -82 68 -12 12 -37 32 -56 45 -18 13 -89 69 -158 124 -69 55 -137 109
-151 120 -15 11 -115 91 -222 178 -107 86 -197 157 -201 157 -3 0 -6 -202 -6
-449z"/>
<path d="M9505 7740 c-71 -49 -155 -106 -185 -127 -104 -71 -305 -212 -345
-241 -22 -15 -101 -72 -177 -125 -140 -99 -245 -191 -229 -201 5 -3 7 -15 4
-26 -4 -15 -11 -19 -27 -15 -17 5 -18 4 -6 -5 13 -9 11 -14 -14 -34 -18 -15
-24 -26 -17 -30 8 -5 7 -12 -4 -22 -8 -9 -15 -24 -15 -34 0 -10 -4 -22 -10
-25 -5 -3 -15 -16 -21 -27 -10 -18 -9 -20 5 -15 9 4 16 2 16 -3 0 -6 -4 -10
-10 -10 -15 0 -11 -52 5 -74 8 -11 12 -29 9 -43 -7 -25 13 -32 34 -11 6 6 15
8 19 4 4 -4 1 -11 -7 -16 -13 -8 -12 -10 2 -10 9 0 19 4 22 8 3 5 23 7 45 6
23 -1 41 2 41 6 0 10 40 1 58 -13 6 -5 12 -8 13 -6 0 2 2 12 4 22 2 11 7 22
11 25 4 4 4 -1 1 -10 -5 -15 -1 -18 23 -18 16 0 32 5 35 10 8 13 45 13 45 0 0
-12 32 -2 120 38 25 12 97 44 160 73 63 28 176 82 250 119 74 37 150 74 168
81 17 8 32 17 32 21 0 5 9 8 20 8 11 0 20 5 20 10 0 6 9 10 20 10 20 0 20 7
20 395 0 217 -1 395 -2 395 -2 -1 -61 -41 -133 -90z"/>
<path d="M0 7097 l0 -342 32 -14 c35 -14 84 -36 183 -81 119 -55 176 -80 180
-80 8 0 138 -59 170 -77 17 -10 32 -16 35 -16 3 1 34 -12 70 -29 83 -39 149
-68 175 -78 35 -13 69 -27 115 -48 83 -37 150 -55 150 -40 0 5 4 6 10 3 5 -3
10 1 10 10 0 9 18 37 40 62 22 25 40 50 40 55 0 5 8 25 17 46 9 20 18 45 20
55 2 9 4 25 6 35 2 9 6 24 9 32 22 54 19 73 -13 106 -18 19 -38 34 -45 34 -7
0 -25 11 -41 24 -15 13 -44 33 -64 44 -20 11 -47 26 -60 34 -13 7 -26 16 -29
19 -3 3 -28 19 -56 35 -152 86 -193 110 -231 136 -23 15 -45 28 -48 28 -4 0
-19 8 -33 19 -15 10 -44 28 -64 40 -21 11 -54 30 -73 41 -19 11 -50 28 -67 39
-18 10 -75 44 -127 75 -51 31 -95 56 -97 56 -2 0 -23 14 -47 30 -25 17 -47 30
-51 30 -3 0 -27 14 -53 30 -26 17 -51 30 -55 30 -4 0 -8 -154 -8 -343z"/>
<path d="M2308 7322 c-10 -2 -18 -7 -18 -12 0 -5 -54 -64 -120 -131 -66 -67
-120 -127 -120 -134 0 -6 -11 -22 -25 -35 -14 -13 -25 -27 -25 -32 0 -9 -61
-92 -91 -123 -41 -43 -68 -83 -74 -108 -4 -15 -18 -36 -31 -46 -13 -10 -24
-25 -24 -33 0 -8 -11 -29 -25 -48 -14 -19 -25 -42 -25 -52 0 -10 -7 -18 -17
-18 -14 0 -12 -5 10 -24 15 -13 43 -34 62 -47 19 -13 35 -27 35 -31 0 -5 5 -8
11 -8 12 0 134 -85 144 -99 3 -5 2 -16 -1 -24 -7 -20 -41 -8 -169 56 -50 25
-109 47 -130 49 -39 3 -40 2 -55 -43 -8 -25 -25 -56 -37 -69 -13 -13 -23 -34
-23 -47 0 -13 -4 -23 -9 -23 -10 0 -41 -78 -41 -105 0 -10 -8 -28 -19 -39 -10
-12 -33 -61 -50 -111 -17 -49 -35 -92 -40 -95 -4 -3 -13 -27 -20 -55 -7 -27
-17 -55 -23 -62 -5 -7 -8 -27 -7 -45 2 -18 -1 -46 -5 -61 -10 -34 12 -63 55
-72 16 -4 31 -11 34 -16 4 -5 19 -9 34 -9 15 0 31 -4 36 -9 6 -5 37 -19 70
-30 58 -20 104 -51 77 -51 -7 0 -11 -4 -7 -10 7 -11 -94 -2 -110 10 -5 4 -44
11 -85 15 -41 4 -80 12 -87 17 -7 6 -19 6 -32 -1 -11 -6 -26 -8 -34 -5 -12 4
-15 -9 -19 -67 -2 -45 -9 -74 -16 -77 -7 -2 -12 -23 -12 -51 0 -26 -4 -51 -9
-57 -5 -5 -12 -42 -15 -83 -3 -41 -10 -77 -15 -80 -10 -7 -31 -323 -31 -462 0
-78 2 -87 20 -92 11 -3 20 -1 20 5 0 5 6 6 13 1 6 -4 72 -13 145 -19 97 -7
136 -14 142 -25 12 -18 -15 -27 -87 -28 -28 -1 -63 -5 -76 -10 -20 -8 -111
-22 -154 -24 -18 -1 -24 -41 -12 -76 6 -17 9 -37 6 -45 -3 -7 -2 -17 3 -22 4
-5 11 -56 14 -114 4 -58 11 -121 16 -142 11 -38 30 -168 34 -228 4 -54 17
-123 26 -145 5 -11 13 -35 18 -54 12 -50 29 -57 109 -44 111 19 137 24 153 31
36 14 122 23 115 11 -4 -5 -1 -9 6 -9 19 0 1 -15 -55 -44 -27 -14 -57 -26 -67
-26 -10 0 -21 -4 -24 -10 -3 -5 -17 -10 -29 -10 -13 0 -29 -7 -36 -15 -7 -8
-21 -15 -32 -15 -10 0 -30 -7 -44 -17 -23 -15 -25 -20 -19 -66 4 -27 13 -61
21 -75 8 -15 14 -37 14 -49 0 -12 5 -25 10 -28 6 -4 8 -16 4 -27 -4 -14 -2
-18 5 -14 7 5 11 -1 11 -14 0 -12 11 -44 25 -72 14 -27 25 -58 25 -68 0 -10
11 -27 24 -38 15 -11 27 -34 32 -58 4 -21 10 -41 14 -44 4 -3 23 -38 43 -78
20 -40 45 -84 56 -99 12 -14 21 -34 21 -43 0 -10 6 -20 14 -23 8 -3 20 -21 26
-39 8 -21 24 -39 41 -47 31 -14 39 -11 192 78 83 48 137 64 137 41 0 -5 -4
-10 -10 -10 -5 0 -10 -7 -10 -15 0 -8 -4 -15 -8 -15 -7 0 -28 -17 -140 -111
-12 -10 -25 -19 -28 -19 -12 0 -64 -59 -64 -72 0 -8 14 -30 30 -48 17 -18 30
-37 30 -42 0 -8 39 -65 67 -98 7 -8 31 -37 54 -65 23 -27 59 -63 79 -79 24
-18 42 -43 49 -67 7 -22 20 -40 30 -44 11 -3 24 -19 30 -35 5 -17 15 -30 22
-30 6 0 51 -40 99 -90 50 -51 96 -90 107 -90 21 0 117 92 107 103 -4 4 -14 7
-23 7 -15 0 -16 237 -16 2622 0 1737 3 2626 10 2630 6 5 -19 36 -60 75 -102
99 -128 119 -147 115z"/>
<path d="M9615 6930 c-3 -5 -15 -10 -26 -10 -10 0 -19 -3 -19 -7 0 -9 -48 -33
-66 -33 -7 0 -14 -3 -16 -8 -1 -4 -48 -30 -103 -57 -55 -28 -102 -52 -105 -55
-12 -12 -51 -30 -64 -30 -8 0 -16 -4 -18 -8 -1 -4 -17 -14 -33 -22 -86 -42
-204 -117 -205 -129 0 -8 -6 -11 -16 -7 -9 3 -27 -3 -41 -14 -22 -17 -23 -20
-7 -20 15 0 16 -2 5 -9 -8 -5 -20 -7 -27 -4 -6 2 -15 0 -19 -6 -3 -6 -14 -11
-24 -11 -24 0 -47 -26 -29 -33 7 -3 -2 -12 -22 -21 -68 -31 -115 -71 -112 -96
1 -12 -3 -28 -8 -36 -15 -17 -23 -104 -9 -104 5 0 7 -5 4 -10 -3 -6 0 -13 8
-16 9 -3 18 -16 21 -30 6 -22 18 -28 54 -27 6 1 12 -4 12 -9 0 -6 13 -8 29 -6
21 3 31 0 34 -12 3 -13 15 -16 56 -14 29 2 59 8 67 14 7 7 37 14 66 15 29 2
44 1 34 -2 -14 -4 -16 -7 -6 -13 15 -9 60 8 60 23 0 5 12 6 28 3 16 -4 22 -3
14 2 -8 5 4 9 33 9 25 0 51 5 57 11 7 7 22 12 33 12 12 0 68 15 126 33 57 19
139 45 181 58 l78 24 0 333 c0 306 -4 356 -25 322z"/>
<path d="M2 6308 l3 -343 25 -3 c14 -2 34 -7 45 -12 11 -5 31 -11 45 -14 14
-2 43 -10 65 -16 22 -6 58 -16 80 -21 21 -6 44 -14 50 -18 5 -5 24 -11 40 -14
17 -3 48 -11 70 -17 62 -18 117 -31 153 -37 18 -3 35 -9 38 -14 3 -5 18 -9 34
-9 16 0 32 -4 35 -10 3 -5 21 -10 39 -10 17 0 36 -4 42 -9 5 -5 38 -12 74 -16
l66 -7 28 64 c16 34 39 86 52 113 13 28 26 73 30 100 3 28 14 77 25 109 17 54
18 61 3 77 -15 17 -71 46 -159 84 -22 10 -69 31 -105 47 -36 17 -69 31 -75 33
-5 1 -28 10 -50 19 -105 46 -148 64 -180 76 -28 10 -62 24 -117 49 -26 12 -55
21 -63 21 -8 0 -15 5 -15 10 0 6 -7 10 -15 10 -8 0 -37 10 -63 21 -113 51
-182 79 -193 79 -5 0 -8 -147 -7 -342z"/>
<path d="M9620 6181 c-8 -5 -44 -19 -80 -31 -36 -12 -120 -44 -187 -71 -67
-27 -128 -49 -136 -49 -7 0 -24 -10 -36 -21 -19 -18 -25 -19 -32 -8 -7 11 -9
11 -9 -2 0 -20 -27 -33 -32 -17 -5 13 -52 -15 -84 -49 -12 -13 -24 -23 -28
-23 -4 0 -14 -7 -22 -15 -9 -8 -25 -15 -36 -15 -11 0 -22 -8 -25 -20 -3 -11
-11 -20 -19 -20 -8 0 -11 -6 -7 -16 4 -10 -1 -17 -16 -21 -14 -3 -21 -13 -21
-29 0 -13 -4 -24 -10 -24 -5 0 -10 -6 -10 -14 0 -8 -4 -16 -10 -18 -13 -4 18
-67 52 -103 15 -16 28 -38 28 -47 0 -11 8 -18 19 -18 11 0 22 -4 26 -9 3 -5
23 -8 45 -6 22 3 40 0 40 -5 0 -12 79 -2 96 11 6 5 15 5 20 0 5 -5 28 -12 50
-16 36 -5 42 -4 47 14 3 11 2 22 -2 24 -3 2 1 2 9 -1 8 -3 31 -3 50 -2 19 1
44 2 55 2 93 -6 268 8 281 21 2 2 3 139 2 305 -3 264 -5 300 -18 293z"/>
<path d="M0 5541 l0 -348 41 -12 c23 -7 73 -14 111 -17 38 -2 73 -6 77 -8 4
-3 41 -8 82 -11 41 -3 94 -8 119 -11 25 -4 59 -7 75 -9 17 -1 71 -5 121 -10
131 -11 140 -8 155 63 7 31 16 62 19 67 17 23 75 303 80 385 0 12 -105 54
-160 65 -29 6 -92 26 -112 36 -10 5 -31 9 -47 9 -17 0 -32 4 -35 9 -3 5 -22
12 -41 15 -19 3 -51 9 -70 12 -19 3 -38 10 -41 15 -3 5 -20 9 -39 9 -19 0 -37
5 -40 10 -3 6 -19 10 -35 10 -16 0 -32 5 -35 10 -3 6 -21 10 -40 10 -19 0 -36
4 -39 9 -3 5 -20 11 -38 14 -18 3 -50 10 -70 15 l-38 10 0 -347z"/>
<path d="M9576 5463 c-22 -3 -49 -11 -60 -19 -11 -8 -28 -14 -37 -14 -26 0
-76 -29 -92 -54 -11 -16 -25 -23 -45 -22 -16 0 -37 -7 -46 -17 -11 -10 -33
-17 -57 -17 -28 0 -39 -4 -39 -15 0 -9 -6 -12 -15 -9 -8 4 -22 1 -30 -6 -11
-9 -15 -9 -15 -1 0 16 -51 2 -68 -18 -10 -12 -15 -13 -19 -3 -3 8 -13 1 -26
-20 -12 -18 -33 -35 -46 -38 -16 -4 -27 -15 -32 -34 -6 -22 -5 -26 7 -22 19 7
18 1 -3 -19 -16 -16 -16 -18 0 -27 20 -11 23 -30 3 -22 -8 3 -17 1 -21 -5 -3
-6 -1 -11 5 -11 7 0 10 -6 7 -14 -3 -8 -1 -17 6 -20 9 -3 8 -7 -3 -15 -12 -9
-12 -11 2 -16 9 -4 14 -13 12 -20 -4 -9 4 -15 23 -17 16 -2 27 -8 25 -15 -1
-7 7 -13 18 -13 11 0 20 -5 20 -11 0 -6 7 -9 15 -6 8 4 17 2 20 -4 4 -5 11 -7
16 -4 5 4 15 3 22 -2 6 -4 30 -9 52 -9 38 -2 87 -15 127 -35 10 -5 25 -9 33
-9 8 0 15 -6 16 -12 0 -7 4 -5 8 5 6 17 8 17 33 -2 14 -12 33 -21 41 -21 9 0
17 -4 19 -10 2 -5 45 -13 96 -16 l92 -7 0 337 c0 263 -3 336 -12 334 -7 -1
-31 -3 -52 -5z"/>
<path d="M0 4795 l0 -303 173 4 c418 10 494 13 527 25 43 14 60 35 59 68 0 14
4 65 10 113 9 67 8 100 -2 150 -8 35 -12 80 -9 100 7 64 -25 75 -298 96 -52 4
-100 11 -105 14 -6 4 -44 8 -85 9 -41 2 -97 9 -124 16 -27 7 -71 12 -97 11
l-49 -1 0 -302z"/>
<path d="M9505 4691 c-81 -19 -115 -36 -115 -56 0 -8 -5 -15 -11 -15 -6 0 -9
7 -6 15 4 8 2 17 -3 20 -6 4 -10 -2 -10 -13 0 -27 -35 -56 -60 -49 -16 4 -20
0 -20 -20 0 -21 -2 -23 -15 -13 -11 9 -19 7 -37 -12 -15 -14 -33 -22 -46 -20
-13 2 -37 -7 -57 -22 -18 -14 -39 -26 -45 -26 -6 0 -8 -5 -5 -10 5 -8 11 -7
21 1 21 17 18 -6 -3 -27 -17 -17 -17 -17 4 -12 17 4 24 0 33 -21 6 -14 28 -39
48 -54 32 -25 38 -26 48 -13 16 23 22 20 26 -11 2 -16 6 -26 9 -23 4 3 16 -3
27 -13 15 -14 21 -15 24 -5 4 10 9 9 22 -4 9 -10 16 -21 15 -25 0 -4 13 -13
30 -19 17 -5 39 -18 48 -27 16 -16 15 -17 -17 -18 -28 -1 -23 -3 20 -10 30 -5
64 -13 75 -18 11 -5 46 -11 78 -14 l57 -4 0 279 0 278 -32 -1 c-18 -1 -64 -8
-103 -18z"/>
<path d="M125 4424 c-22 -2 -59 -7 -83 -10 l-42 -5 0 -277 0 -277 63 7 c34 4
90 12 125 18 34 5 88 14 120 19 31 5 75 12 97 15 22 4 72 11 110 17 88 14 195
38 217 50 24 13 48 62 48 98 0 16 4 32 9 35 9 6 6 121 -4 161 -15 61 -32 112
-42 130 -11 19 -23 20 -295 21 -156 1 -301 0 -323 -2z"/>
<path d="M9420 4049 c0 -6 -9 -8 -20 -4 -13 4 -20 2 -18 -5 2 -7 -3 -15 -11
-18 -9 -3 -11 0 -6 9 5 8 -3 5 -16 -7 -21 -19 -38 -28 -74 -41 -5 -2 -25 -6
-42 -9 -18 -4 -33 -10 -33 -16 0 -5 -8 -8 -17 -6 -11 2 -19 -6 -23 -22 -4 -15
-12 -24 -22 -22 -22 3 -46 -27 -29 -37 9 -6 8 -10 -6 -15 -17 -7 -17 -8 0 -21
17 -12 17 -14 -3 -28 -16 -11 -18 -17 -9 -23 7 -4 15 -2 17 4 7 22 17 12 19
-20 2 -18 7 -34 13 -36 5 -2 10 -10 10 -18 0 -8 7 -14 15 -14 18 0 20 -19 3
-21 -7 -1 1 -4 17 -8 23 -5 29 -11 27 -27 -2 -15 4 -23 18 -27 24 -6 27 -27 3
-27 -33 0 9 -26 72 -45 33 -10 64 -21 70 -26 5 -5 19 -9 32 -9 12 0 32 -4 45
-9 30 -11 126 -38 161 -46 l27 -5 0 298 0 299 -82 6 c-115 9 -138 9 -138 -4z"/>
<path d="M3834 3986 c-3 -8 -4 -485 -2 -1060 l3 -1046 -593 0 -593 0 -24 -26
c-14 -15 -25 -30 -25 -34 0 -4 -16 -27 -35 -51 -47 -60 -47 -93 3 -118 20 -10
64 -44 97 -74 83 -75 210 -157 266 -170 14 -4 30 -17 36 -29 9 -20 53 -50 193
-133 38 -22 177 -85 188 -85 6 0 15 12 21 28 6 15 20 43 31 62 10 19 47 92 81
163 61 125 93 174 82 125 -4 -18 -3 -20 6 -8 9 12 11 9 11 -16 0 -16 -4 -34
-8 -40 -4 -5 -14 -27 -21 -49 -7 -22 -16 -49 -21 -60 -31 -75 -93 -256 -88
-260 10 -9 149 -75 158 -75 6 0 29 -8 53 -19 74 -33 155 -56 224 -65 23 -4 54
-12 70 -20 50 -26 176 -59 273 -72 152 -21 143 -23 159 43 7 32 15 82 18 113
2 30 9 62 14 72 5 9 9 40 9 69 0 62 36 170 55 163 14 -6 29 -139 18 -157 -4
-7 -11 -59 -15 -117 -4 -58 -11 -126 -14 -151 -7 -52 0 -59 62 -77 65 -19 331
-27 392 -13 37 9 60 10 84 2 42 -13 121 -13 228 -1 47 6 121 14 165 18 l80 7
-1 30 c-1 30 -16 143 -35 260 -17 102 -24 205 -16 205 5 0 6 10 3 23 -3 12 -3
16 0 10 3 -7 12 -13 19 -13 15 0 25 -22 25 -56 0 -14 5 -35 12 -47 6 -12 16
-42 20 -67 5 -25 13 -66 18 -92 6 -27 14 -69 18 -95 5 -27 14 -58 21 -71 6
-12 9 -31 6 -42 -3 -10 -2 -21 3 -24 10 -6 137 12 167 24 66 25 152 47 224 56
18 3 52 14 74 24 22 11 52 20 65 20 30 0 103 20 116 32 6 4 18 8 28 8 10 0 26
4 36 9 9 5 44 20 77 32 33 13 62 25 65 28 3 4 22 15 43 26 59 30 60 35 26 101
-73 138 -191 444 -150 384 9 -12 11 -12 11 -1 0 27 38 -19 75 -92 19 -40 46
-90 60 -112 26 -44 65 -122 86 -173 14 -33 34 -40 67 -23 9 4 37 18 62 29 123
58 240 130 319 198 20 17 52 39 71 49 58 29 214 150 271 210 92 97 91 84 6
183 -81 94 -104 107 -99 55 l4 -33 -669 0 -668 0 3 1060 2 1060 -1050 0 c-906
0 -1051 -2 -1056 -14z"/>
<path d="M689 3875 c-3 -2 -27 -7 -55 -10 -72 -7 -201 -25 -264 -36 -30 -5
-80 -14 -110 -18 -132 -21 -178 -30 -217 -40 l-43 -12 0 -324 c0 -179 2 -325
5 -325 3 0 13 4 23 9 9 5 37 14 62 21 25 7 53 16 62 21 10 5 27 9 37 9 11 0
23 5 26 10 3 6 17 10 31 10 13 0 32 4 42 9 15 8 178 61 282 92 19 6 44 14 55
19 11 4 40 14 65 21 25 7 49 16 55 21 5 4 17 8 26 8 28 0 118 49 130 71 5 11
8 33 4 49 -3 15 -2 31 4 34 7 5 7 15 0 33 -6 15 -7 38 -4 51 8 30 -35 115 -87
173 -22 24 -42 56 -45 70 -4 20 -13 28 -35 33 -37 7 -43 7 -49 1z"/>
<path d="M9195 3450 c-3 -5 -13 -10 -21 -10 -9 0 -22 -7 -31 -15 -8 -8 -19
-12 -25 -9 -6 4 -8 2 -5 -3 6 -10 -41 -35 -68 -37 -5 -1 -15 -8 -22 -16 -6 -8
-15 -16 -20 -16 -4 -1 -23 -8 -41 -15 -32 -13 -33 -17 -30 -57 2 -31 0 -41 -9
-37 -15 5 -18 -11 -3 -20 5 -3 12 -28 16 -55 4 -31 12 -50 19 -50 12 0 28 -45
24 -66 -1 -5 -1 -14 0 -21 1 -14 80 -63 138 -86 51 -20 132 -55 155 -68 10 -5
22 -9 28 -9 10 0 86 -32 122 -51 10 -5 22 -9 28 -9 11 0 88 -33 132 -56 60
-32 58 -45 58 304 l0 318 -52 13 c-29 6 -69 16 -88 22 -33 9 -79 17 -206 38
-29 5 -61 12 -72 15 -11 4 -23 2 -27 -4z"/>
<path d="M880 3302 c-14 -2 -52 -12 -85 -23 -65 -21 -82 -26 -195 -59 -41 -12
-83 -26 -92 -31 -10 -5 -27 -9 -37 -9 -11 0 -23 -4 -26 -10 -3 -5 -17 -10 -31
-10 -13 0 -32 -4 -42 -9 -16 -8 -98 -34 -192 -61 -25 -7 -59 -19 -77 -26 -17
-8 -36 -14 -42 -14 -5 0 -22 -5 -36 -12 l-25 -11 0 -384 c0 -210 3 -383 7
-383 5 0 231 107 276 131 79 42 180 89 193 89 7 0 14 3 16 8 4 9 192 102 207
102 6 0 11 5 11 10 0 6 5 10 12 10 10 0 285 129 318 150 8 5 34 19 58 32 47
24 112 78 94 78 -6 0 -14 21 -17 48 -10 67 -45 180 -61 197 -8 7 -14 18 -14
23 0 5 -7 15 -15 22 -8 7 -15 21 -15 31 0 10 -9 23 -21 29 -11 7 -18 14 -15
17 9 9 -63 55 -98 62 -17 4 -42 5 -56 3z"/>
<path d="M8930 2890 c0 -6 -6 -10 -14 -10 -8 0 -16 -6 -19 -12 -6 -15 -56 -41
-115 -58 -45 -14 -86 -57 -98 -104 -3 -14 -9 -24 -13 -22 -10 7 -14 -30 -13
-119 2 -105 5 -128 17 -138 6 -6 5 -10 -3 -14 -32 -13 175 -161 428 -305 19
-11 46 -28 60 -37 14 -9 34 -21 45 -28 11 -6 74 -45 139 -85 116 -71 167 -101
251 -146 l40 -22 3 412 c1 227 0 419 -3 425 -2 7 -15 13 -28 13 -13 0 -27 4
-33 9 -5 4 -52 25 -104 45 -52 21 -108 44 -125 51 -16 7 -79 32 -140 55 -60
23 -119 46 -130 50 -11 5 -38 14 -60 21 -22 6 -50 15 -62 20 -14 5 -23 5 -23
-1z"/>
<path d="M1160 2734 c-109 -50 -746 -370 -748 -376 -2 -5 -9 -8 -16 -8 -6 0
-72 -31 -146 -70 -74 -38 -161 -82 -192 -97 l-58 -28 0 -418 c0 -333 3 -416
13 -407 6 6 24 19 39 28 14 9 89 61 167 115 77 53 144 97 150 97 5 0 11 4 13
8 2 4 23 21 48 38 25 17 95 64 155 105 61 42 202 138 315 214 113 76 217 148
232 159 14 12 56 41 93 66 88 60 187 133 212 158 20 20 27 60 13 77 -7 8 -14
36 -15 63 -1 26 -4 48 -5 50 -3 3 -7 19 -9 35 -1 11 -27 45 -70 92 -10 11 -26
35 -35 53 -9 17 -21 32 -26 32 -6 0 -10 7 -10 15 0 21 -74 20 -120 -1z"/>
<path d="M8551 2272 c-7 -13 -12 -14 -24 -4 -10 8 -17 9 -21 3 -4 -6 -13 -8
-20 -5 -7 3 -20 -1 -27 -8 -8 -8 -22 -17 -32 -21 -35 -13 -106 -72 -107 -89 0
-9 -6 -18 -12 -20 -9 -3 -12 -30 -10 -96 2 -59 -1 -92 -7 -92 -10 0 -2 -13 44
-64 21 -24 150 -136 196 -171 15 -11 97 -78 184 -150 87 -71 176 -144 199
-162 90 -70 166 -131 236 -188 41 -33 86 -69 101 -80 15 -11 105 -83 200 -160
96 -77 177 -141 181 -143 5 -2 8 194 8 435 l0 438 -23 11 c-12 6 -71 41 -132
79 -60 37 -126 77 -145 87 -19 11 -47 29 -62 39 -14 11 -29 19 -32 19 -4 0
-23 11 -44 24 -20 13 -122 74 -227 135 -104 61 -201 118 -215 127 -95 58 -193
85 -209 56z"/>
<path d="M1440 2209 c-41 -23 -120 -74 -176 -113 -89 -62 -231 -160 -299 -206
-12 -8 -38 -26 -58 -40 -20 -14 -98 -67 -174 -119 -76 -52 -139 -98 -141 -103
-2 -4 -10 -8 -18 -8 -8 0 -14 -3 -14 -8 0 -4 -8 -12 -19 -17 -10 -6 -96 -64
-191 -130 -95 -66 -179 -124 -188 -130 -9 -5 -25 -18 -36 -27 -10 -10 -43 -32
-72 -50 l-54 -33 0 -484 0 -484 63 59 c104 97 259 239 312 284 28 23 80 70
116 104 180 168 380 346 671 601 57 50 130 115 163 146 33 31 79 72 102 91
144 121 362 331 390 378 15 26 14 29 -11 66 -14 21 -26 48 -26 59 -1 21 -22
55 -35 55 -4 0 -18 11 -31 25 -13 14 -27 25 -31 25 -4 0 -21 12 -38 28 -28 25
-109 72 -123 72 -4 0 -41 -19 -82 -41z"/>
<path d="M8163 1827 c3 -9 -17 -12 -76 -12 -55 0 -82 -4 -85 -13 -2 -6 -14
-12 -27 -12 -15 0 -43 -19 -78 -55 -49 -50 -55 -62 -70 -130 -10 -42 -17 -80
-17 -85 0 -14 183 -224 345 -395 78 -82 166 -177 196 -210 30 -33 86 -91 124
-130 39 -40 94 -98 124 -131 30 -32 132 -140 226 -239 94 -99 209 -220 255
-270 47 -50 97 -102 112 -117 l26 -28 211 0 211 0 0 349 c0 276 -3 350 -13
354 -7 3 -69 51 -137 107 -319 260 -380 310 -474 387 -56 45 -108 88 -116 95
-8 7 -35 29 -60 48 -24 19 -53 43 -65 53 -11 10 -33 28 -49 40 -16 12 -46 37
-67 55 -20 18 -51 43 -68 55 -16 12 -60 47 -98 78 -146 119 -242 187 -287 202
-34 12 -47 13 -43 4z"/>
<path d="M1815 1789 c-21 -16 -71 -60 -110 -97 -38 -37 -90 -85 -115 -107 -64
-55 -237 -214 -350 -320 -104 -98 -293 -272 -380 -351 -30 -27 -57 -51 -60
-54 -46 -45 -376 -349 -423 -389 -23 -20 -75 -68 -117 -107 -41 -39 -117 -108
-167 -153 l-93 -82 0 -65 0 -64 493 0 c270 0 497 4 502 8 6 4 30 32 54 62 25
30 50 60 55 65 6 6 27 30 46 55 19 25 49 61 67 80 17 19 42 49 54 65 13 17 39
48 58 71 86 98 137 159 151 179 8 12 35 45 60 74 99 115 137 159 175 206 22
27 69 83 105 125 36 41 76 89 90 107 14 17 67 82 118 145 145 177 148 181 166
217 15 27 16 38 6 62 -7 15 -11 32 -10 36 0 4 -9 10 -22 13 -14 4 -27 17 -33
35 -5 17 -18 39 -27 49 -10 11 -20 28 -23 37 -3 10 -15 21 -26 24 -10 4 -17
10 -14 15 3 5 -6 12 -20 16 -14 3 -25 12 -25 20 0 8 -6 14 -13 14 -7 0 -19 9
-27 20 -23 32 -95 27 -145 -11z"/>
<path d="M7645 1462 c-22 -1 -47 -5 -55 -9 -8 -3 -19 -7 -25 -8 -64 -9 -106
-19 -111 -26 -3 -5 -14 -9 -24 -9 -11 0 -24 -9 -30 -20 -6 -11 -17 -20 -25
-20 -8 0 -15 -4 -15 -10 0 -5 -18 -28 -39 -52 -33 -35 -39 -47 -34 -73 7 -36
38 -101 53 -110 6 -4 16 -17 21 -28 9 -21 41 -69 75 -112 8 -11 37 -51 64 -90
27 -38 53 -74 57 -80 5 -5 31 -41 58 -80 27 -38 63 -88 80 -111 16 -22 38 -51
48 -65 9 -13 65 -91 125 -174 59 -82 114 -160 122 -172 8 -11 46 -64 83 -117
l68 -96 474 0 c261 0 475 3 475 7 0 4 -37 45 -82 92 -46 48 -103 109 -128 136
-86 95 -314 340 -414 446 -56 58 -135 143 -176 189 -41 46 -127 138 -190 205
-362 378 -380 393 -455 387z"/>
<path d="M2285 1422 c-19 -15 -119 -128 -171 -191 -42 -52 -98 -118 -139 -166
-24 -27 -56 -67 -72 -87 -24 -32 -122 -152 -271 -331 -23 -29 -56 -69 -72 -91
-16 -21 -47 -59 -68 -85 -165 -195 -250 -297 -267 -320 -10 -14 -41 -51 -67
-80 -26 -30 -48 -59 -48 -63 0 -4 210 -8 468 -8 l467 0 33 50 c17 27 32 52 32
55 0 3 25 44 55 90 30 47 55 88 55 91 0 3 12 24 28 47 15 23 32 51 39 62 7 11
45 74 85 139 40 65 80 131 88 145 8 14 31 51 51 81 74 114 89 140 89 149 0 5
7 14 15 21 7 6 25 33 38 58 28 56 50 95 58 102 7 7 26 57 37 101 9 33 8 36
-19 48 -16 7 -27 17 -24 21 3 5 -3 11 -13 14 -11 4 -24 18 -30 31 -7 15 -20
25 -32 25 -11 0 -23 7 -26 15 -4 8 -11 15 -18 15 -6 0 -29 9 -51 20 -22 11
-52 20 -67 20 -15 0 -28 4 -28 9 0 25 -128 35 -155 13z"/>
<path d="M7080 1199 c0 -4 -16 -6 -36 -4 -22 3 -33 1 -29 -5 4 -6 -5 -9 -22
-8 -64 4 -114 -2 -107 -14 4 -7 3 -8 -5 -4 -7 5 -26 -3 -46 -18 -18 -14 -41
-26 -50 -26 -9 0 -14 -4 -11 -8 5 -8 -45 -52 -59 -52 -3 0 -5 7 -5 16 0 8 -5
12 -10 9 -7 -4 -7 -13 0 -26 9 -15 7 -19 -5 -19 -33 0 -8 -62 187 -460 82
-168 180 -367 216 -442 l67 -137 428 -1 c235 0 427 2 427 5 0 3 -30 48 -67
101 -38 53 -88 126 -113 163 -62 89 -206 301 -261 381 -24 36 -46 67 -49 70
-3 3 -11 17 -19 33 -8 15 -18 27 -23 27 -4 0 -8 6 -8 13 0 7 -8 22 -18 33 -15
15 -87 118 -157 222 -24 36 -53 69 -96 112 -39 38 -53 45 -88 46 -22 1 -41 -2
-41 -7z"/>
<path d="M2880 1170 c0 -4 -10 -11 -22 -14 -22 -6 -88 -86 -88 -106 0 -6 -4
-10 -8 -10 -5 0 -16 -15 -25 -32 -18 -35 -24 -45 -73 -123 -17 -28 -48 -82
-69 -120 -21 -39 -49 -88 -62 -110 -13 -22 -26 -48 -30 -57 -3 -10 -9 -18 -14
-18 -5 0 -9 -9 -9 -20 0 -11 -4 -20 -9 -20 -5 0 -11 -8 -15 -18 -6 -18 -20
-44 -75 -132 -19 -30 -42 -69 -52 -86 -9 -17 -23 -42 -31 -55 -7 -13 -15 -26
-18 -29 -3 -3 -14 -23 -26 -45 -30 -57 -64 -117 -80 -140 -8 -11 -14 -23 -14
-27 0 -5 161 -8 358 -8 l359 0 10 23 c14 28 42 93 78 177 15 36 36 82 46 103
10 22 19 47 19 58 0 10 5 19 10 19 6 0 10 7 10 15 0 8 4 23 9 33 39 77 51 106
51 123 0 10 5 19 10 19 6 0 10 6 10 13 0 7 9 32 20 55 11 22 20 45 20 50 0 4
11 32 25 61 14 29 40 96 57 148 35 106 33 122 -21 137 -17 5 -31 13 -31 17 0
5 -7 9 -15 9 -18 0 -88 32 -96 44 -4 5 -14 6 -23 3 -9 -4 -15 -1 -13 5 1 7 -2
12 -8 13 -41 4 -115 29 -115 40 0 7 -11 13 -25 13 -14 0 -25 -4 -25 -8z"/>
<path d="M6390 970 c-9 -6 -9 -9 1 -13 8 -3 3 -7 -13 -12 -16 -4 -28 -11 -28
-16 0 -25 -155 -76 -176 -58 -8 6 -13 3 -16 -9 -8 -28 4 -89 43 -222 6 -19 13
-47 16 -63 3 -15 9 -30 14 -33 5 -3 9 -16 9 -29 0 -13 5 -27 10 -30 6 -3 10
-17 10 -30 0 -13 5 -27 10 -30 6 -3 10 -16 10 -29 0 -12 4 -26 8 -32 5 -5 21
-47 37 -94 15 -47 32 -89 36 -94 5 -6 9 -20 9 -32 0 -13 5 -26 10 -29 6 -3 10
-17 10 -30 0 -13 5 -27 10 -30 6 -3 10 -17 10 -31 l0 -24 336 0 c184 0 333 3
331 8 -2 4 -33 68 -69 142 -36 74 -109 223 -162 330 -53 107 -96 201 -96 208
0 6 -3 12 -7 12 -9 0 -33 48 -33 66 0 7 -3 14 -7 16 -5 2 -17 21 -28 43 -25
51 -68 119 -77 123 -5 2 -8 10 -8 18 0 8 -4 14 -10 14 -5 0 -10 -5 -10 -10 0
-6 -20 -9 -45 -8 -25 2 -45 5 -45 8 0 8 -77 8 -90 0z"/>
<path d="M3373 948 c-5 -7 -27 -49 -47 -93 -20 -44 -41 -88 -47 -97 -5 -10 -9
-25 -9 -33 0 -8 -4 -15 -10 -15 -5 0 -10 -11 -10 -25 0 -14 -4 -25 -10 -25 -5
0 -10 -7 -10 -15 0 -8 -4 -23 -9 -33 -5 -9 -13 -28 -19 -42 -5 -14 -17 -41
-25 -60 -8 -19 -32 -75 -52 -125 -20 -49 -44 -106 -52 -125 -8 -19 -18 -44
-23 -55 -4 -11 -12 -32 -19 -47 -6 -16 -15 -39 -21 -53 -5 -14 -14 -35 -19
-47 -25 -63 -53 -58 299 -58 l320 0 0 34 c0 19 5 38 10 41 6 3 10 19 10 34 0
15 7 36 15 47 8 10 15 31 15 46 0 15 5 30 10 33 6 3 10 19 10 35 0 16 5 32 10
35 6 3 10 19 10 35 0 16 5 32 10 35 6 3 10 19 10 34 0 15 4 31 9 37 5 5 11 25
13 44 3 31 6 35 31 35 15 -1 27 5 27 12 0 7 -3 12 -7 12 -22 -4 -33 3 -33 20
0 11 6 22 13 24 9 4 8 6 -2 6 -9 1 -10 5 -3 14 11 14 22 64 27 132 3 28 7 60
10 72 4 18 1 21 -15 18 -11 -2 -20 0 -20 6 0 5 -9 9 -19 9 -11 0 -21 5 -23 11
-6 19 -142 60 -220 66 -43 3 -78 10 -78 15 0 6 -7 8 -15 4 -8 -3 -15 -1 -15 4
0 14 -16 12 -27 -2z"/>
<path d="M5960 803 c-14 -3 -27 -8 -30 -12 -3 -4 -32 -13 -65 -19 -32 -7 -63
-19 -68 -27 -4 -8 -15 -15 -22 -15 -8 0 -15 -4 -15 -9 0 -7 -48 -17 -113 -25
-4 -1 -14 -14 -23 -30 -11 -23 -13 -48 -8 -113 4 -46 11 -86 15 -89 5 -3 9
-29 9 -58 0 -28 4 -56 9 -62 5 -5 12 -31 14 -59 3 -27 10 -72 16 -100 5 -27
12 -70 16 -95 3 -25 8 -55 11 -68 l4 -22 311 0 c245 0 310 3 306 13 -2 6 -14
46 -27 87 -12 41 -33 107 -46 145 -12 39 -26 86 -29 105 -4 19 -12 44 -19 55
-7 11 -18 46 -25 77 -7 32 -17 60 -22 63 -5 4 -9 15 -9 26 0 10 -4 27 -9 37
-5 9 -23 51 -39 92 -29 74 -45 90 -97 102 -11 3 -31 3 -45 1z"/>
<path d="M3910 767 c0 -8 -6 -17 -12 -20 -7 -2 -21 -31 -31 -63 -11 -33 -25
-74 -33 -92 -8 -18 -12 -37 -9 -42 3 -4 -2 -13 -11 -20 -10 -9 -13 -22 -9 -42
4 -16 2 -28 -3 -28 -6 0 -13 -8 -16 -17 -2 -10 -3 0 0 22 3 30 2 35 -5 20 -9
-18 -10 -17 -10 8 -1 15 -5 27 -10 27 -5 0 -5 -15 -1 -36 5 -20 6 -43 3 -50
-3 -8 0 -14 6 -14 12 0 15 -36 3 -44 -4 -2 -9 -19 -10 -38 -2 -44 -30 -174
-47 -218 -7 -19 -17 -54 -22 -78 l-10 -42 295 2 296 3 9 30 c8 29 20 120 36
290 4 44 10 87 13 95 11 27 19 250 9 250 -12 0 -115 69 -119 81 -2 5 -10 9
-18 9 -8 0 -14 5 -14 10 0 6 -5 10 -11 10 -5 0 -8 -3 -5 -8 5 -9 -138 -7 -211
3 -44 6 -53 5 -53 -8z"/>
<path d="M4675 713 c-11 -2 -45 -13 -75 -23 -30 -11 -75 -21 -99 -22 -44 -3
-44 -4 -62 -58 -10 -30 -19 -81 -19 -112 0 -31 -5 -69 -11 -85 -11 -30 -26
-146 -35 -278 -4 -44 -10 -88 -15 -97 -5 -9 -9 -21 -9 -27 0 -8 99 -11 316
-11 l317 0 -5 178 c-3 97 -3 160 -1 139 4 -37 23 -43 23 -6 0 10 6 18 13 17
13 -3 18 -29 38 -210 l13 -118 284 0 284 0 -5 48 c-10 87 -25 167 -36 195 -6
16 -9 32 -6 36 2 4 0 25 -6 46 -6 20 -15 60 -20 89 -6 28 -14 71 -19 96 -23
122 -53 179 -86 166 -11 -4 -15 -2 -11 6 3 10 -10 13 -51 11 -30 0 -67 3 -81
9 -14 5 -65 9 -113 8 -148 -3 -136 1 -148 -55 -6 -27 -15 -108 -19 -180 -5
-76 -9 -104 -10 -67 0 38 -5 62 -12 62 -6 0 -9 -9 -6 -20 3 -11 1 -20 -4 -20
-5 0 -9 -9 -9 -21 0 -11 -4 -17 -10 -14 -5 3 -10 36 -10 73 0 105 -33 262 -47
225 -7 -19 -31 -16 -36 5 -4 16 -5 16 -6 0 -1 -18 -21 -26 -21 -10 0 5 -12 14
-27 21 -20 9 -28 9 -34 0 -4 -7 -15 -9 -25 -5 -25 10 -74 14 -99 9z"/>
</g>
</svg>
