<?xml version="1.0" encoding="utf-8"?>
<!-- Generator: Adobe Illustrator 25.1.0, SVG Export Plug-In . SVG Version: 6.00 Build 0)  -->
<svg version="1.1" id="Layer_1" xmlns="http://www.w3.org/2000/svg" xmlns:xlink="http://www.w3.org/1999/xlink" x="0px" y="0px"
	 viewBox="0 0 600 600" style="enable-background:new 0 0 600 600;" xml:space="preserve">
<style type="text/css">
	.st0{fill:#14A9FF;}
	.st1{fill:#FFFFFF;}
</style>
<g id="Layer_2_1_">
	<g id="Layer_5">
		<circle class="st0" cx="300" cy="300" r="300"/>
		<path class="st1" d="M159,258.4c-5.4-2.8-12.4-3.9-20.8-3.4c-7.6,0.4-15,2.7-21.3,6.9c-4.4,2.9-8.1,6.8-10.7,11.4l-2.7-44.8
			c-0.3-5.3-1.9-9.2-4.8-11.7c-2.9-2.5-6.9-3.6-12.1-3.3c-4.9,0.3-8.7,1.9-11.3,4.7c-2.7,2.8-3.8,6.9-3.5,12.2L79,349.9
			c0.3,5.2,2,9.1,4.9,11.6c3,2.6,6.9,3.7,11.8,3.4c10.7-0.7,15.7-6.3,15-17l-2.6-43.3c-0.4-7,1.2-12.7,5-17.2
			c3.8-4.4,9-6.9,15.7-7.3c5.2-0.3,9.2,1,11.9,4c2.8,3,4.4,8.1,4.8,15.2l2.8,46.2c0.3,5.2,2,9.1,5,11.6s7,3.7,11.9,3.4
			c5.2-0.3,9-1.9,11.5-4.8s3.6-6.9,3.3-12.1l-2.9-47.5c-0.6-10-2.4-18.1-5.5-24.4S164.4,261.1,159,258.4z"/>
		<path class="st1" d="M440.7,221c-4.7,0-8.2,1.2-10.7,3.6c-2.5,2.4-3.7,6-3.6,10.9V276c-2.3-3.8-5.5-7-9.3-9.3
			c-5.9-3.6-12.7-5.5-19.6-5.3c-15.4-0.4-29.6,8.5-35.8,22.7c-3.4,7.2-5.1,15.9-5.1,25.9s1.7,18.7,5.1,26.1c3,6.9,8,12.8,14.3,17
			c6.4,4,13.9,6,21.4,5.8c7,0.1,14-1.8,19.9-5.5c3.9-2.4,7.1-5.7,9.2-9.7v0.4c0,4.7,1.2,8.3,3.7,10.8s6.1,3.7,10.8,3.7
			c4.4,0,7.9-1.2,10.4-3.7c2.5-2.5,3.7-6.1,3.7-10.8V235.4c0-4.8-1.3-8.4-3.8-10.9C448.8,222.2,445.3,221,440.7,221z M416.9,334.5
			c-3.2,2-7,3.1-10.9,3c-5.7,0.2-11.2-2.3-14.9-6.7c-3.8-4.4-5.7-11.4-5.7-20.8c0-6.1,0.9-11.2,2.6-15.2c1.4-3.7,3.9-6.8,7.2-9
			c3.3-1.9,7-2.9,10.8-2.9c6.2,0,11.2,2.2,15.1,6.6c3.8,4.4,5.7,11.2,5.7,20.5c0,6.2-0.9,11.4-2.7,15.4
			C422.7,329.1,420.2,332.2,416.9,334.5z"/>
		<path class="st1" d="M522.8,362.9l-2.8,0.4c-1,0.1-2,0.2-3,0.2c-3.4,0.1-6.6-1.2-8.9-3.7c-2.2-2.5-3.3-6.3-3.3-11.5v-84.8
			c0-4.8-1.2-8.4-3.7-10.9c-2.5-2.4-6.1-3.6-10.8-3.6c-4.4,0-7.9,1.2-10.5,3.6c-2.5,2.4-3.8,6-3.8,10.9v86c0,12.5,2.8,21.8,8.4,28
			s14,9.3,25.4,9.3c1.6,0,3.3-0.1,4.9-0.2s3-0.3,4.2-0.4c2.7-0.3,5.3-1.7,7-3.8c1.5-2,2.3-4.9,2.3-8.6c0-4.5-0.4-7.4-1.2-8.9
			C526.2,363.4,524.5,362.6,522.8,362.9z"/>
		<path class="st1" d="M239.1,265c2.6,2.6,6,4,9.6,4c1.8,0,3.6-0.4,5.3-1.1c4.2-1.8,8.7-2.7,13.3-2.7c4.5,0,9,1,13.2,2.8
			c1.7,0.7,3.5,1.1,5.4,1.1c3.6,0,7.1-1.4,9.6-4l0.1-0.1c5.3-5.3,5.3-13.9-0.1-19.2c-1.1-1.1-2.4-2-3.8-2.7
			c-15.4-7.2-33.2-7.3-48.7-0.2c-4,1.9-6.9,5.6-7.7,10c-0.8,4.3,0.6,8.8,3.7,11.9L239.1,265z"/>
		<path class="st1" d="M295.4,357.5c-2.6-2.6-6-4-9.6-4c-1.8,0-3.7,0.4-5.4,1.1c-4.2,1.9-8.7,2.8-13.2,2.8l0,0
			c-4.5,0-9-0.9-13.2-2.7c-1.7-0.7-3.5-1.1-5.3-1.1c-3.6,0-7.1,1.5-9.6,4l-0.1,0.1c-3.1,3.1-4.5,7.6-3.8,11.9
			c0.8,4.4,3.7,8.1,7.7,10c15.5,7.1,33.3,7.1,48.7-0.2c4-1.9,6.9-5.6,7.6-10c0.8-4.3-0.6-8.8-3.8-11.9L295.4,357.5z"/>
		<path class="st1" d="M323.3,279c-3.6,0-7,1.4-9.5,4l-0.1,0.1c-3.9,3.9-5.1,9.9-2.9,15c3.7,8.5,3.7,18.1-0.1,26.6
			c-2.3,5.1-1.2,11.1,2.8,15l0.1,0.1c2.5,2.6,6,4,9.6,4c5.2,0,9.9-2.9,12.1-7.6c7.4-15.6,7.5-33.7,0.2-49.4
			C333.3,282.1,328.6,279,323.3,279z"/>
		<path class="st1" d="M221,283.1l-0.1-0.1c-2.5-2.6-5.9-4-9.5-4c-5.3,0-10.1,3.1-12.3,7.8c-7.1,15.5-7.1,33.4,0,48.9
			c3.2,6.7,11.2,9.6,17.9,6.5c1.4-0.7,2.7-1.6,3.8-2.7l0.1-0.1c3.9-3.9,5.1-9.7,2.9-14.8c-3.9-8.5-3.9-18.3,0.1-26.8
			C226,292.8,224.9,286.9,221,283.1z"/>
		<path class="st1" d="M325.1,266.5h0.6c7.4-0.1,13.3-6.2,13.2-13.6c0-3.4-1.4-6.6-3.7-9.1c-2.4-2.6-5.8-4.1-9.4-4.2h-0.4
			c-7.4,0-13.4,5.9-13.5,13.4c0,3.6,1.4,7,3.9,9.5C318.3,265,321.6,266.5,325.1,266.5z"/>
		<path class="st1" d="M209,266.4h0.3c7.5,0,13.5-6,13.5-13.5s-6-13.5-13.5-13.5H209c-7.4,0-13.3,5.9-13.5,13.3
			c0,3.7,1.4,7.2,3.9,9.8C202,265.1,205.4,266.5,209,266.4z"/>
		<path class="st1" d="M209.7,355.9h-0.4c-3.6,0-7.1,1.4-9.7,4c-2.4,2.4-3.7,5.6-3.7,9c-0.2,3.4,1,6.8,3.4,9.3
			c2.5,2.7,5.9,4.3,9.6,4.4h0.5c7.1,0,13-5.6,13.4-12.7c0.2-3.5-1-7-3.4-9.6C216.9,357.6,213.4,356,209.7,355.9z"/>
		<path class="st1" d="M325.7,355.9h-0.4c-3.6,0-7.1,1.4-9.7,4c-2.5,2.5-3.8,5.9-3.7,9.5c0,7.4,6,13.3,13.3,13.3c0,0,0.1,0,0.1,0
			l0,0c7.4,0.1,13.4-5.9,13.5-13.3c0-0.1,0-0.1,0-0.2c0-3.5-1.3-6.8-3.8-9.3C332.6,357.4,329.2,355.9,325.7,355.9z"/>
		<path class="st1" d="M249.2,299.8h0.1c3.5,0.1,6.3-2.7,6.4-6.2c0-1.7-0.6-3.3-1.8-4.5c-1.2-1.2-2.9-1.9-4.6-1.9l0,0
			c-3.5,0-6.4,2.8-6.4,6.3C242.9,296.9,245.7,299.8,249.2,299.8L249.2,299.8z"/>
		<path class="st1" d="M237.9,347.3c0-1.7-0.7-3.4-1.9-4.6c-1.2-1.2-2.8-2-4.5-2c-3.5,0-6.4,2.9-6.4,6.4c0.1,3.3,2.7,6,6,6.4h0.4
			C234.9,353.4,237.7,350.7,237.9,347.3z"/>
		<path class="st1" d="M303.5,340.8h-0.3c-3.4,0.1-6.1,2.6-6.5,6c-0.1,1.7,0.5,3.4,1.7,4.6c1.2,1.4,2.9,2.2,4.7,2.2l0,0
			c3.3-0.1,6.1-2.7,6.4-6c0.1-1.7-0.5-3.4-1.7-4.7C306.7,341.7,305.1,340.9,303.5,340.8z"/>
		<path class="st1" d="M231.1,281.7h0.2c3.5,0,6.3-2.9,6.3-6.4c0-3.3-2.5-6-5.8-6.3h-0.5c-3.3,0-6.1,2.6-6.4,5.9
			c-0.1,1.7,0.4,3.4,1.6,4.6C227.7,280.9,229.4,281.7,231.1,281.7z"/>
		<path class="st1" d="M298.4,271.3c-1.1,1.2-1.7,2.9-1.5,4.5c0.4,3.3,3.2,5.8,6.5,5.8h0.2c1.7-0.1,3.3-0.9,4.5-2.1
			c1.2-1.2,1.8-2.8,1.7-4.5c-0.3-3.4-3.1-6-6.5-6.1H303C301.2,269.1,299.5,269.9,298.4,271.3z"/>
		<path class="st1" d="M249.1,335.6h0.3c3.5,0,6.4-2.9,6.4-6.4c0-3.3-2.6-6.1-5.9-6.3h-0.4c-3.2,0.1-5.8,2.4-6.5,5.5
			c-0.3,1.7,0.2,3.4,1.3,4.6C245.5,334.5,247.2,335.5,249.1,335.6z"/>
		<path class="st1" d="M267.3,305c-3.3,0-6.1,2.6-6.3,5.9c-0.3,3.5,2.3,6.5,5.7,6.8c0.1,0,0.1,0,0.2,0h0.4c3.5-0.1,6.3-3,6.3-6.5
			c-0.1-3.2-2.5-5.9-5.7-6.2C267.7,305,267.5,305,267.3,305z"/>
		<path class="st1" d="M285.1,322.9c-3.4,0.2-6.1,2.9-6.2,6.3c0,1.7,0.7,3.4,1.9,4.6c1.2,1.2,2.7,1.9,4.4,1.9h0.1
			c3.4-0.2,6-2.9,6.2-6.3c0-1.7-0.7-3.4-1.9-4.6c-1.2-1.2-2.8-1.9-4.5-1.9H285.1z"/>
		<path class="st1" d="M291.6,293.1c-0.2-3.4-3-6-6.3-6.1c-0.2,0-0.3,0-0.5,0c-3.5,0.3-6.1,3.3-5.8,6.8c0.3,3.3,3,5.8,6.3,5.8
			c0.2,0,0.4,0,0.6,0C289.2,299.4,291.7,296.5,291.6,293.1z"/>
	</g>
</g>
</svg>
