<?xml version="1.0" standalone="no"?>
<!DOCTYPE svg PUBLIC "-//W3C//DTD SVG 20010904//EN"
 "http://www.w3.org/TR/2001/REC-SVG-20010904/DTD/svg10.dtd">
<svg version="1.0" xmlns="http://www.w3.org/2000/svg"
 width="251.000000pt" height="252.000000pt" viewBox="0 0 251.000000 252.000000"
 preserveAspectRatio="xMidYMid meet">
<metadata>
Created by potrace 1.16, written by Peter Selinger 2001-2019
</metadata>
<g transform="translate(0.000000,252.000000) scale(0.100000,-0.100000)"
fill="#000000" stroke="none">
<path d="M1123 2175 c-15 -11 -23 -28 -25 -58 l-3 -42 -187 -3 -188 -2 0 -65
0 -65 153 0 c85 0 323 3 530 7 l377 6 0 54 0 53 -172 0 c-95 0 -179 4 -186 9
-7 4 -15 25 -18 47 -7 64 -29 74 -153 74 -79 0 -112 -4 -128 -15z"/>
<path d="M710 1828 c-98 -51 -105 -98 -61 -418 17 -124 54 -388 81 -587 31
-230 55 -376 66 -399 9 -20 35 -48 57 -62 l41 -27 338 -3 c316 -3 341 -1 382
16 53 24 92 73 105 132 25 120 163 1201 157 1235 -9 48 -68 112 -114 125 -23
6 -225 10 -522 10 -484 0 -486 0 -530 -22z m930 -253 c0 -3 -32 -57 -71 -120
l-71 -115 -131 0 c-73 0 -149 -5 -171 -9 -77 -18 -139 -108 -139 -201 0 -189
185 -283 308 -157 l40 42 -117 3 c-65 1 -118 5 -118 7 0 3 26 57 57 120 68
136 50 127 268 123 l150 -3 3 -332 c1 -183 -1 -333 -5 -333 -5 0 -56 16 -115
36 -105 35 -108 36 -108 66 l0 30 -30 -26 c-114 -95 -366 -35 -475 114 -129
176 -135 398 -15 578 56 83 128 137 225 168 39 12 515 21 515 9z"/>
</g>
</svg>
