<?xml version="1.0" encoding="utf-8"?>
<!-- Generator: Adobe Illustrator 24.1.2, SVG Export Plug-In . SVG Version: 6.00 Build 0)  -->
<svg version="1.1" id="Capa_1" xmlns="http://www.w3.org/2000/svg" xmlns:xlink="http://www.w3.org/1999/xlink" x="0px" y="0px"
	 viewBox="0 0 500 500" style="enable-background:new 0 0 500 500;" xml:space="preserve">
<style type="text/css">
	.st0{fill:#121E2D;}
</style>
<g>
	<path class="st0" d="M250.59,264.49c12.94-5.81,24.44-14.55,31.9-26.39c17.41-27.62,17.15-68.96-0.59-94.12
		c-15.23-21.6-51.73-35.91-78.34-31.24v146.7c3.13,0.14,6.1,0.3,9.06,0.53C225.8,261.03,238.44,262.54,250.59,264.49z"/>
	<path class="st0" d="M289.3,327.06c-20.4-11.78-42.89-21.04-67.16-27.7l-2.79-0.22h-16.1l0.13,100.41h-51.56l-0.36-6.91
		c-0.13-2.1-0.25-4.1-0.25-6.09l0-69.61c0-71.08,0.01-144.57-0.17-216.85c-0.01-4.14,0.39-8.37,3.37-11.2
		c2.97-2.83,7.18-3.01,10.54-2.83c11.38,0.58,22.98,0.94,34.2,1.29c18.39,0.58,37.41,1.17,56.1,2.73
		c17.59,1.47,35.38,8.36,54.39,21.05c26.5,17.7,41.93,51.14,40.26,87.27c-1.56,33.8-17.6,62.3-44.29,79.16
		c50.27,16.43,89.88,43.57,121.47,82.73c9.66,11.98,18.04,24.22,25.16,36.71C482.26,355.73,500,304.94,500,250
		C500,111.93,388.07,0,250,0S0,111.93,0,250s111.93,250,250,250c59.95,0,114.97-21.11,158.04-56.3
		C380.43,395.82,340.68,356.73,289.3,327.06z"/>
</g>
</svg>
