<svg xmlns="http://www.w3.org/2000/svg" viewBox="0 0 300 300" height="200" width="200"><defs><style>.a{fill:#00a14b;}.b{fill:#006838;}.c{fill:#65bc46;}</style></defs><path class="a" d="M300,138A148.94,148.94,0,0,0,297,117.54l-37.09,21.38-17.64-10.17h0L292,100.08a148.15,148.15,0,0,0-7.6-17.79l-61.31,35.35v22.22L240.64,150l-17.59,10.14v22.22l61.31,35.34a149.49,149.49,0,0,0,7.6-17.77l-49.74-28.68,17.64-10.17L297,182.46A148.94,148.94,0,0,0,300,162.05L279.09,150Z" /><path class="a" d="M76.94,182.3V160.14L59.36,150h0l17.58-10.14V117.64L15.64,82.29A148.21,148.21,0,0,0,8,100.08l49.75,28.67h0L40.14,138.92,3.05,117.54a149,149,0,0,0-3,20.4L20.91,150,0,162.05a148.94,148.94,0,0,0,3.05,20.41l37.09-21.38,17.64,10.17L8,199.93a149.44,149.44,0,0,0,7.59,17.77l61.31-35.34Z" /><path class="b" d="M214.56,197l-19.22,11.08v20.27h0l-17.59-10.13-.06,0h0l-19.17,11.06h0l19.17,11.05v0l17.64,10.15,0,42.78a149.39,149.39,0,0,0,19.21-7.56V261.58h0l20.93,12.05a150.59,150.59,0,0,0,16.14-12.85l-37.08-21.36V219.09h0l49.72,28.64a150.1,150.1,0,0,0,11.63-15.46L214.62,197Z" /><path class="b" d="M177.71,240.36l-19.17-11.05-.06,0,0,70.66a149.92,149.92,0,0,0,19.22-2.31l0-57.33v0Z" /><path class="c" d="M122.27,2.31l0,57.33L104.64,49.48V6.71a150.1,150.1,0,0,0-19.22,7.56V38.41l-20.92-12A150.8,150.8,0,0,0,48.35,39.22L85.42,60.57V80.91h0L35.71,52.27A151.28,151.28,0,0,0,24.07,67.73L85.38,103,90,100.37l14.65-8.45V71.65h0l17.59,10.13,19.22-11.1h0l0,0,0-70.65A149.92,149.92,0,0,0,122.27,2.31Z" /><path class="a" d="M158.54,70.69l19.22,11.09,17.59-10.13V91.92l11.59,6.68,7.69,4.44,61.31-35.31A152.53,152.53,0,0,0,264.3,52.28L214.57,80.91V60.58l37.08-21.36a151.59,151.59,0,0,0-16.14-12.85L214.58,38.42h0V14.27a149.39,149.39,0,0,0-19.21-7.56l0,42.78L177.71,59.65l0-57.34A149.92,149.92,0,0,0,158.51,0l0,70.66.06,0Z" /><path class="a" d="M104.65,228.36V208.08l-.06,0h0L85.38,197l-61.3,35.31a148.67,148.67,0,0,0,11.63,15.46l49.72-28.64v20.34l9.66-5.56Zm-19.22-9.27V197l19.17,11.05Z" /><path class="a" d="M85.41,285.73a150.1,150.1,0,0,0,19.22,7.56V250.52L85.42,261.59Z" /><polygon class="a" points="85.43 197 85.43 219.09 104.6 208.05 85.43 197" /><path class="a" d="M141.46,229.32,135,225.58l-12.68-7.32h0l-.06,0-17.59,10.13h0l-9.57,5.51-9.66,5.56L48.35,260.78A150.8,150.8,0,0,0,64.5,273.64l20.92-12.05,19.22-11.07,17.65-10.16h0l0,57.33A149.92,149.92,0,0,0,141.49,300l0-70.65,0,0Z" /><polygon class="a" points="164.8 150 105.59 115.86 105.59 184.13 164.8 150" /><polygon class="b" points="105.59 184.13 135.2 201.2 135.2 167.07 105.59 184.13" /><polygon class="b" points="105.59 115.86 135.2 132.93 135.2 98.8 105.59 115.86" /><path class="a" d="M164.8,98.8v68.27h0V201.2l29.61-17.07V115.86Z" /><polygon class="b" points="164.8 150 194.41 167.07 194.41 132.93 164.8 150" /></svg>