<?xml version="1.0" encoding="UTF-8"?>
<!DOCTYPE svg PUBLIC "-//W3C//DTD SVG 1.1//EN" "http://www.w3.org/Graphics/SVG/1.1/DTD/svg11.dtd">
<svg xmlns="http://www.w3.org/2000/svg" version="1.1" width="200px" height="200px" style="shape-rendering:geometricPrecision; text-rendering:geometricPrecision; image-rendering:optimizeQuality; fill-rule:evenodd; clip-rule:evenodd" xmlns:xlink="http://www.w3.org/1999/xlink">
<g><path style="opacity:0.14" fill="#8cedf6" d="M 86.5,5.5 C 86.5,6.16667 86.5,6.83333 86.5,7.5C 84.6096,7.2965 83.1096,7.96317 82,9.5C 81.0255,7.12241 80.3589,7.45574 80,10.5C 78.7316,7.22125 77.2316,6.88792 75.5,9.5C 75.0679,10.7095 74.4013,11.7095 73.5,12.5C 72.4324,11.5655 71.099,11.2322 69.5,11.5C 67.1992,10.9396 64.8659,10.4396 62.5,10C 61.7476,9.32924 61.4142,8.4959 61.5,7.5C 62.9516,6.69808 64.6183,6.19808 66.5,6C 73.1583,5.50042 79.825,5.33375 86.5,5.5 Z"/></g>
<g><path style="opacity:0.973" fill="#233b40" d="M 124.5,4.5 C 124.67,5.82207 124.337,6.98873 123.5,8C 125.709,8.95697 125.543,10.1236 123,11.5C 120.871,10.1373 120.371,10.4706 121.5,12.5C 118.841,13.1591 117.174,14.8257 116.5,17.5C 115.635,18.5827 114.635,18.7494 113.5,18C 114.741,16.5135 114.241,15.6801 112,15.5C 110.744,15.6483 109.577,15.9816 108.5,16.5C 106.501,14.2021 104.501,11.8688 102.5,9.5C 102.815,4.87776 101.149,4.37776 97.5,8C 98.6405,8.74117 98.6405,9.57451 97.5,10.5C 95.8068,11.2283 94.3068,12.2283 93,13.5C 92.4646,11.7295 91.6313,11.3961 90.5,12.5C 91.6096,14.4959 91.2763,16.3292 89.5,18C 90.0944,18.4643 90.7611,18.631 91.5,18.5C 88.1856,18.9426 85.019,19.9426 82,21.5C 80.9887,20.6634 79.8221,20.33 78.5,20.5C 79.3984,19.8423 80.3984,19.1757 81.5,18.5C 81.2907,17.914 80.9574,17.414 80.5,17C 81.2266,15.6012 81.7266,14.1012 82,12.5C 83.904,13.1016 85.7373,12.6016 87.5,11C 85.6269,10.0471 85.2935,8.8804 86.5,7.5C 86.5,6.83333 86.5,6.16667 86.5,5.5C 96.3958,5.02103 106.562,4.35437 117,3.5C 119.587,3.5552 122.087,3.88853 124.5,4.5 Z"/></g>
<g><path style="opacity:0.992" fill="#325d77" d="M 75.5,9.5 C 78.9599,10.2604 79.2932,11.7604 76.5,14C 77.8333,14.3333 79.1667,14.6667 80.5,15C 78.3046,16.373 75.9712,16.7063 73.5,16C 73.8333,15.6667 74.1667,15.3333 74.5,15C 71.2018,14.7006 70.8685,13.8673 73.5,12.5C 74.4013,11.7095 75.0679,10.7095 75.5,9.5 Z"/></g>
<g><path style="opacity:0.318" fill="#b8c660" d="M 129.5,5.5 C 137.266,7.38133 144.6,10.3813 151.5,14.5C 150.77,16.0062 150.437,17.3395 150.5,18.5C 147.664,19.7755 144.664,20.4422 141.5,20.5C 141.5,21.5 141.5,22.5 141.5,23.5C 139.801,23.6602 138.134,23.4935 136.5,23C 138.098,20.2361 140.431,18.4028 143.5,17.5C 141.64,16.0613 139.973,14.3947 138.5,12.5C 137.5,13.1667 136.5,13.8333 135.5,14.5C 134.646,13.4783 133.646,12.6449 132.5,12C 134.952,11.7105 137.285,11.0438 139.5,10C 138.584,9.62576 137.75,9.12576 137,8.5C 135.174,10.1654 133.007,11.1654 130.5,11.5C 128.069,9.93182 128.069,8.43182 130.5,7C 129.833,6.66667 129.167,6.33333 128.5,6C 128.728,5.60123 129.062,5.43456 129.5,5.5 Z"/></g>
<g><path style="opacity:0.773" fill="#132335" d="M 59.5,7.5 C 60.9526,8.82487 60.6192,9.6582 58.5,10C 60.8367,11.7981 61.5033,13.9647 60.5,16.5C 57.6686,14.871 55.3353,15.371 53.5,18C 50.854,18.4974 48.1873,18.6641 45.5,18.5C 45.7148,20.1788 45.0481,21.1788 43.5,21.5C 43.0618,21.5654 42.7284,21.3988 42.5,21C 44.4904,19.1598 44.4904,17.9931 42.5,17.5C 47.3399,12.9078 53.0065,9.5745 59.5,7.5 Z"/></g>
<g><path style="opacity:0.992" fill="#74b2aa" d="M 108.5,16.5 C 108.833,17.1667 109.167,17.8333 109.5,18.5C 104.167,18.5 98.8333,18.5 93.5,18.5C 92.8333,18.5 92.1667,18.5 91.5,18.5C 90.7611,18.631 90.0944,18.4643 89.5,18C 91.2763,16.3292 91.6096,14.4959 90.5,12.5C 91.6313,11.3961 92.4646,11.7295 93,13.5C 94.3068,12.2283 95.8068,11.2283 97.5,10.5C 98.6405,9.57451 98.6405,8.74117 97.5,8C 101.149,4.37776 102.815,4.87776 102.5,9.5C 104.501,11.8688 106.501,14.2021 108.5,16.5 Z"/></g>
<g><path style="opacity:0.992" fill="#75b7d5" d="M 86.5,7.5 C 85.2935,8.8804 85.6269,10.0471 87.5,11C 85.7373,12.6016 83.904,13.1016 82,12.5C 81.7266,14.1012 81.2266,15.6012 80.5,17C 80.9574,17.414 81.2907,17.914 81.5,18.5C 80.3984,19.1757 79.3984,19.8423 78.5,20.5C 74.2396,21.5853 69.9062,22.252 65.5,22.5C 65.2267,20.549 65.8934,19.049 67.5,18C 65.0353,17.3678 63.3686,15.8678 62.5,13.5C 63.0016,12.479 63.6683,12.3123 64.5,13C 65.1552,14.4866 66.1552,15.6533 67.5,16.5C 67.4056,15.0285 68.4056,13.8618 70.5,13C 69.944,12.6174 69.6107,12.1174 69.5,11.5C 71.099,11.2322 72.4324,11.5655 73.5,12.5C 70.8685,13.8673 71.2018,14.7006 74.5,15C 74.1667,15.3333 73.8333,15.6667 73.5,16C 75.9712,16.7063 78.3046,16.373 80.5,15C 79.1667,14.6667 77.8333,14.3333 76.5,14C 79.2932,11.7604 78.9599,10.2604 75.5,9.5C 77.2316,6.88792 78.7316,7.22125 80,10.5C 80.3589,7.45574 81.0255,7.12241 82,9.5C 83.1096,7.96317 84.6096,7.2965 86.5,7.5 Z"/></g>
<g><path style="opacity:0.992" fill="#9abe73" d="M 124.5,4.5 C 126.415,4.21552 128.081,4.54885 129.5,5.5C 129.062,5.43456 128.728,5.60123 128.5,6C 129.167,6.33333 129.833,6.66667 130.5,7C 128.069,8.43182 128.069,9.93182 130.5,11.5C 128.958,12.3007 127.292,12.634 125.5,12.5C 126.138,14.46 126.138,16.2933 125.5,18C 129.723,20.2435 129.389,21.4102 124.5,21.5C 119.248,21.1375 114.248,20.1375 109.5,18.5C 109.167,17.8333 108.833,17.1667 108.5,16.5C 109.577,15.9816 110.744,15.6483 112,15.5C 114.241,15.6801 114.741,16.5135 113.5,18C 114.635,18.7494 115.635,18.5827 116.5,17.5C 117.174,14.8257 118.841,13.1591 121.5,12.5C 120.371,10.4706 120.871,10.1373 123,11.5C 125.543,10.1236 125.709,8.95697 123.5,8C 124.337,6.98873 124.67,5.82207 124.5,4.5 Z"/></g>
<g><path style="opacity:0.992" fill="#3f6789" d="M 59.5,7.5 C 60.1667,7.5 60.8333,7.5 61.5,7.5C 61.4142,8.4959 61.7476,9.32924 62.5,10C 64.8659,10.4396 67.1992,10.9396 69.5,11.5C 69.6107,12.1174 69.944,12.6174 70.5,13C 68.4056,13.8618 67.4056,15.0285 67.5,16.5C 66.1552,15.6533 65.1552,14.4866 64.5,13C 63.6683,12.3123 63.0016,12.479 62.5,13.5C 63.3686,15.8678 65.0353,17.3678 67.5,18C 65.8934,19.049 65.2267,20.549 65.5,22.5C 64.8826,22.3893 64.3826,22.056 64,21.5C 61.881,24.8165 59.0477,25.8165 55.5,24.5C 51.0028,24.6616 50.6695,23.1616 54.5,20C 52.8659,19.5065 51.1992,19.3398 49.5,19.5C 51.6674,24.0129 50.3341,25.8462 45.5,25C 44.1772,24.1841 43.5106,23.0174 43.5,21.5C 45.0481,21.1788 45.7148,20.1788 45.5,18.5C 48.1873,18.6641 50.854,18.4974 53.5,18C 55.3353,15.371 57.6686,14.871 60.5,16.5C 61.5033,13.9647 60.8367,11.7981 58.5,10C 60.6192,9.6582 60.9526,8.82487 59.5,7.5 Z"/></g>
<g><path style="opacity:0.973" fill="#24201f" d="M 151.5,14.5 C 158.205,19.5116 164.872,24.5116 171.5,29.5C 170.442,32.8854 168.109,34.8854 164.5,35.5C 163.353,35.1822 162.519,34.5156 162,33.5C 160.605,34.8146 159.605,34.4812 159,32.5C 157.421,33.172 156.254,32.5053 155.5,30.5C 154.821,28.1861 153.488,27.8528 151.5,29.5C 150.281,28.3539 148.948,27.3539 147.5,26.5C 148.167,26.1667 148.833,25.8333 149.5,25.5C 148.5,24.6667 147.5,23.8333 146.5,23C 147.733,21.3333 149.067,19.8333 150.5,18.5C 150.437,17.3395 150.77,16.0062 151.5,14.5 Z"/></g>
<g><path style="opacity:0.919" fill="#0b1425" d="M 91.5,18.5 C 92.1667,18.5 92.8333,18.5 93.5,18.5C 99.4667,19.0317 105.467,20.0317 111.5,21.5C 104.465,22.1581 97.4654,22.9914 90.5,24C 93.8168,24.4983 97.1501,24.665 100.5,24.5C 105.214,24.3531 109.881,24.6864 114.5,25.5C 113.637,26.9403 113.637,28.2736 114.5,29.5C 114.023,30.4776 113.357,31.3109 112.5,32C 117.764,33.3086 122.098,35.142 125.5,37.5C 125.192,38.3081 124.692,38.9747 124,39.5C 121.649,38.467 119.316,37.467 117,36.5C 115.596,36.5093 114.43,37.0093 113.5,38C 116.259,40.2282 119.259,42.0616 122.5,43.5C 122.833,44.8333 123.167,46.1667 123.5,47.5C 125.157,46.2676 126.824,45.4342 128.5,45C 127.833,46.3333 126.833,47.3333 125.5,48C 121.312,48.1762 117.312,48.6762 113.5,49.5C 91.8308,49.3334 70.1641,49.5 48.5,50C 54.4234,56.4294 60.7568,62.2627 67.5,67.5C 67.8039,68.1499 68.1373,68.8165 68.5,69.5C 77.9918,70.8222 87.3251,70.8222 96.5,69.5C 97.1667,69.5 97.8333,69.5 98.5,69.5C 99.7498,69.4226 100.583,68.756 101,67.5C 101.333,68.1667 101.667,68.8333 102,69.5C 103.314,68.6872 104.481,67.6872 105.5,66.5C 106.831,67.5922 107.664,68.9255 108,70.5C 108.333,69.8333 108.667,69.1667 109,68.5C 110.462,70.1482 112.295,71.1482 114.5,71.5C 122.646,74.9605 124.646,80.6272 120.5,88.5C 116.965,91.0546 112.965,92.3879 108.5,92.5C 103.5,92.5 98.5,92.5 93.5,92.5C 87.4908,92.6662 81.4908,92.4995 75.5,92C 69.4442,88.6536 63.4442,88.8203 57.5,92.5C 56.8333,92.3333 56.1667,92.1667 55.5,92C 56.6721,91.5814 57.6721,90.9147 58.5,90C 56.8659,89.5065 55.1992,89.3398 53.5,89.5C 52.5,89.5 51.5,89.5 50.5,89.5C 48.8819,92.1709 48.2153,95.1709 48.5,98.5C 45.9321,97.5504 43.4321,97.5504 41,98.5C 39.1746,97.8971 37.3413,97.2304 35.5,96.5C 34.8938,94.2906 34.2272,92.124 33.5,90C 33.8333,89.6667 34.1667,89.3333 34.5,89C 33.552,88.5172 32.552,88.3505 31.5,88.5C 33.0262,84.9526 32.6929,81.6193 30.5,78.5C 28.9984,79.0831 27.6651,79.9164 26.5,81C 27.1667,81.3333 27.8333,81.6667 28.5,82C 27.3595,82.7412 27.3595,83.5745 28.5,84.5C 27.3112,85.4287 25.9778,85.762 24.5,85.5C 25.2194,94.7651 23.0527,96.0985 18,89.5C 18.2547,84.5187 17.7547,79.5187 16.5,74.5C 16.9767,73.5224 17.6433,72.6891 18.5,72C 16.0801,72.9881 13.7467,72.6548 11.5,71C 12.7932,70.51 14.1266,70.3433 15.5,70.5C 15.6567,69.1266 15.49,67.7932 15,66.5C 14.6322,67.91 13.7989,68.91 12.5,69.5C 11.7425,68.1886 10.7425,67.6886 9.5,68C 9.83333,68.3333 10.1667,68.6667 10.5,69C 8.07199,70.1619 7.40533,71.8286 8.5,74C 7.38468,76.6156 6.05135,79.1156 4.5,81.5C 5.79141,82.5272 5.79141,83.5272 4.5,84.5C 4.16667,84.5 3.83333,84.5 3.5,84.5C 3.02583,77.3685 4.52583,70.7018 8,64.5C 11.6112,58.556 15.6112,52.8893 20,47.5C 22.4728,41.2211 25.4728,35.2211 29,29.5C 30.451,27.5359 32.2843,26.2026 34.5,25.5C 36.2232,26.807 38.0565,26.807 40,25.5C 39.2001,27.9697 39.7001,30.303 41.5,32.5C 45.6829,30.2429 50.0162,28.2429 54.5,26.5C 55.2975,26.0431 55.6309,25.3764 55.5,24.5C 59.0477,25.8165 61.881,24.8165 64,21.5C 64.3826,22.056 64.8826,22.3893 65.5,22.5C 69.9062,22.252 74.2396,21.5853 78.5,20.5C 79.8221,20.33 80.9887,20.6634 82,21.5C 85.019,19.9426 88.1856,18.9426 91.5,18.5 Z"/></g>
<g><path style="opacity:0.988" fill="#79905a" d="M 100.5,24.5 C 111.291,22.8997 121.958,24.0664 132.5,28C 131.552,28.4828 130.552,28.6495 129.5,28.5C 124.605,27.1211 119.605,26.1211 114.5,25.5C 109.881,24.6864 105.214,24.3531 100.5,24.5 Z"/></g>
<g><path style="opacity:0.992" fill="#4e4e30" d="M 150.5,18.5 C 149.067,19.8333 147.733,21.3333 146.5,23C 147.5,23.8333 148.5,24.6667 149.5,25.5C 148.833,25.8333 148.167,26.1667 147.5,26.5C 148.948,27.3539 150.281,28.3539 151.5,29.5C 153.488,27.8528 154.821,28.1861 155.5,30.5C 153.999,29.5573 152.665,29.8906 151.5,31.5C 142.893,26.9659 133.893,23.6325 124.5,21.5C 129.389,21.4102 129.723,20.2435 125.5,18C 126.138,16.2933 126.138,14.46 125.5,12.5C 127.292,12.634 128.958,12.3007 130.5,11.5C 133.007,11.1654 135.174,10.1654 137,8.5C 137.75,9.12576 138.584,9.62576 139.5,10C 137.285,11.0438 134.952,11.7105 132.5,12C 133.646,12.6449 134.646,13.4783 135.5,14.5C 136.5,13.8333 137.5,13.1667 138.5,12.5C 139.973,14.3947 141.64,16.0613 143.5,17.5C 140.431,18.4028 138.098,20.2361 136.5,23C 138.134,23.4935 139.801,23.6602 141.5,23.5C 141.5,22.5 141.5,21.5 141.5,20.5C 144.664,20.4422 147.664,19.7755 150.5,18.5 Z"/></g>
<g><path style="opacity:0.992" fill="#263e58" d="M 42.5,17.5 C 44.4904,17.9931 44.4904,19.1598 42.5,21C 42.7284,21.3988 43.0618,21.5654 43.5,21.5C 43.5106,23.0174 44.1772,24.1841 45.5,25C 50.3341,25.8462 51.6674,24.0129 49.5,19.5C 51.1992,19.3398 52.8659,19.5065 54.5,20C 50.6695,23.1616 51.0028,24.6616 55.5,24.5C 55.6309,25.3764 55.2975,26.0431 54.5,26.5C 50.0162,28.2429 45.6829,30.2429 41.5,32.5C 39.7001,30.303 39.2001,27.9697 40,25.5C 38.0565,26.807 36.2232,26.807 34.5,25.5C 36.7348,22.3269 39.4015,19.6602 42.5,17.5 Z"/></g>
<g><path style="opacity:0.235" fill="#6c4e26" d="M 155.5,30.5 C 156.254,32.5053 157.421,33.172 159,32.5C 159.605,34.4812 160.605,34.8146 162,33.5C 162.519,34.5156 163.353,35.1822 164.5,35.5C 168.109,34.8854 170.442,32.8854 171.5,29.5C 174.37,30.4333 176.704,32.1 178.5,34.5C 177.5,34.5 176.5,34.5 175.5,34.5C 175.649,35.552 175.483,36.552 175,37.5C 172.763,38.9852 171.263,40.9852 170.5,43.5C 164.701,38.7096 158.367,34.7096 151.5,31.5C 152.665,29.8906 153.999,29.5573 155.5,30.5 Z"/></g>
<g><path style="opacity:0.909" fill="#18181c" d="M 93.5,18.5 C 98.8333,18.5 104.167,18.5 109.5,18.5C 114.248,20.1375 119.248,21.1375 124.5,21.5C 133.893,23.6325 142.893,26.9659 151.5,31.5C 158.367,34.7096 164.701,38.7096 170.5,43.5C 171.458,43.9528 172.292,44.6195 173,45.5C 177.026,41.6318 178.192,42.6318 176.5,48.5C 178.885,51.2117 181.218,53.8784 183.5,56.5C 190.815,66.1253 195.815,76.792 198.5,88.5C 194.669,102.994 191.669,117.661 189.5,132.5C 187.412,131.061 185.079,130.394 182.5,130.5C 180.052,129.527 177.385,129.194 174.5,129.5C 175.919,128.549 177.585,128.216 179.5,128.5C 179.232,126.901 179.566,125.568 180.5,124.5C 182.185,114.357 183.852,104.523 185.5,95C 184.87,89.5024 184.036,84.0024 183,78.5C 181.933,77.8095 180.766,77.3095 179.5,77C 179.833,76.6667 180.167,76.3333 180.5,76C 178.023,75.7605 175.856,76.5938 174,78.5C 174.308,73.8633 172.975,73.53 170,77.5C 167.667,76.1667 165.333,74.8333 163,73.5C 162.833,73.1667 162.667,72.8333 162.5,72.5C 165.167,71.8333 167.833,71.1667 170.5,70.5C 170.128,67.6169 170.128,64.6169 170.5,61.5C 168.692,61.5086 167.025,61.0086 165.5,60C 165.833,59.6667 166.167,59.3333 166.5,59C 165.421,58.044 164.255,57.2106 163,56.5C 162.29,57.9733 161.124,58.6399 159.5,58.5C 159.784,56.1229 159.784,53.9562 159.5,52C 160.167,51.3333 160.833,50.6667 161.5,50C 156.86,46.6759 151.86,43.8425 146.5,41.5C 145.318,43.6454 143.818,43.6454 142,41.5C 141.717,38.2577 140.883,37.9244 139.5,40.5C 137.885,39.846 136.218,39.346 134.5,39C 133.598,36.7984 132.598,34.6317 131.5,32.5C 130.994,35.2505 129.66,35.0838 127.5,32C 128.973,31.2904 129.64,30.1238 129.5,28.5C 130.552,28.6495 131.552,28.4828 132.5,28C 121.958,24.0664 111.291,22.8997 100.5,24.5C 97.1501,24.665 93.8168,24.4983 90.5,24C 97.4654,22.9914 104.465,22.1581 111.5,21.5C 105.467,20.0317 99.4667,19.0317 93.5,18.5 Z"/></g>
<g><path style="opacity:0.992" fill="#af9635" d="M 178.5,58.5 C 165.823,45.159 150.823,35.3257 133.5,29C 146.617,32.0592 158.284,38.0592 168.5,47C 172.439,50.4294 175.772,54.2628 178.5,58.5 Z"/></g>
<g><path style="opacity:0.502" fill="#ddab2d" d="M 178.5,34.5 C 181.182,39.8644 183.849,45.1978 186.5,50.5C 185.5,50.5 184.5,50.5 183.5,50.5C 183.5,52.5 183.5,54.5 183.5,56.5C 181.218,53.8784 178.885,51.2117 176.5,48.5C 178.192,42.6318 177.026,41.6318 173,45.5C 172.292,44.6195 171.458,43.9528 170.5,43.5C 171.263,40.9852 172.763,38.9852 175,37.5C 175.483,36.552 175.649,35.552 175.5,34.5C 176.5,34.5 177.5,34.5 178.5,34.5 Z"/></g>
<g><path style="opacity:0.986" fill="#8e8ee3" d="M 113.5,49.5 C 114.791,49.2627 115.791,49.596 116.5,50.5C 112.167,50.5 107.833,50.5 103.5,50.5C 95.097,50.1301 86.7637,50.6301 78.5,52C 75.319,56.2653 71.319,59.5986 66.5,62C 67.3279,62.9147 68.3279,63.5814 69.5,64C 68.6634,65.0113 68.33,66.1779 68.5,67.5C 68.1667,67.5 67.8333,67.5 67.5,67.5C 60.7568,62.2627 54.4234,56.4294 48.5,50C 70.1641,49.5 91.8308,49.3334 113.5,49.5 Z"/></g>
<g><path style="opacity:0.973" fill="#ae68d6" d="M 103.5,50.5 C 107.833,50.5 112.167,50.5 116.5,50.5C 118.735,50.2053 120.735,50.5386 122.5,51.5C 118.167,51.5 113.833,51.5 109.5,51.5C 108.874,54.3149 107.54,56.8149 105.5,59C 106.756,59.4169 107.423,60.2502 107.5,61.5C 104.715,62.0171 102.048,62.8505 99.5,64C 100.167,64.6667 100.833,65.3333 101.5,66C 99.9443,66.7202 98.9443,67.8868 98.5,69.5C 97.8333,69.5 97.1667,69.5 96.5,69.5C 89.9971,69.8944 83.6638,69.2277 77.5,67.5C 76.2825,66.8386 74.9492,66.1719 73.5,65.5C 73.8333,65.1667 74.1667,64.8333 74.5,64.5C 86.8158,64.1709 96.4825,59.5043 103.5,50.5 Z"/></g>
<g><path style="opacity:0.949" fill="#cf5fd0" d="M 122.5,51.5 C 125.431,52.0075 128.098,53.0075 130.5,54.5C 126.009,57.7054 122.509,61.3721 120,65.5C 118.263,64.3802 116.429,63.3802 114.5,62.5C 113.833,62.8333 113.167,63.1667 112.5,63.5C 111.158,61.9951 109.492,61.3285 107.5,61.5C 107.423,60.2502 106.756,59.4169 105.5,59C 107.54,56.8149 108.874,54.3149 109.5,51.5C 113.833,51.5 118.167,51.5 122.5,51.5 Z"/></g>
<g><path style="opacity:0.992" fill="#9c79e6" d="M 103.5,50.5 C 96.4825,59.5043 86.8158,64.1709 74.5,64.5C 74.1667,64.8333 73.8333,65.1667 73.5,65.5C 74.9492,66.1719 76.2825,66.8386 77.5,67.5C 74.9028,67.7208 74.9028,68.2208 77.5,69C 74.8333,69.6667 72.1667,69.6667 69.5,69C 71.2705,68.4646 71.6039,67.6313 70.5,66.5C 69.8165,66.8627 69.1499,67.1961 68.5,67.5C 68.33,66.1779 68.6634,65.0113 69.5,64C 68.3279,63.5814 67.3279,62.9147 66.5,62C 71.319,59.5986 75.319,56.2653 78.5,52C 86.7637,50.6301 95.097,50.1301 103.5,50.5 Z"/></g>
<g><path style="opacity:0.99" fill="#101520" d="M 114.5,25.5 C 119.605,26.1211 124.605,27.1211 129.5,28.5C 129.64,30.1238 128.973,31.2904 127.5,32C 129.66,35.0838 130.994,35.2505 131.5,32.5C 132.598,34.6317 133.598,36.7984 134.5,39C 136.218,39.346 137.885,39.846 139.5,40.5C 140.883,37.9244 141.717,38.2577 142,41.5C 143.818,43.6454 145.318,43.6454 146.5,41.5C 151.86,43.8425 156.86,46.6759 161.5,50C 160.833,50.6667 160.167,51.3333 159.5,52C 159.784,53.9562 159.784,56.1229 159.5,58.5C 161.124,58.6399 162.29,57.9733 163,56.5C 164.255,57.2106 165.421,58.044 166.5,59C 166.167,59.3333 165.833,59.6667 165.5,60C 167.025,61.0086 168.692,61.5086 170.5,61.5C 170.128,64.6169 170.128,67.6169 170.5,70.5C 167.833,71.1667 165.167,71.8333 162.5,72.5C 162.667,72.8333 162.833,73.1667 163,73.5C 165.333,74.8333 167.667,76.1667 170,77.5C 172.975,73.53 174.308,73.8633 174,78.5C 175.856,76.5938 178.023,75.7605 180.5,76C 180.167,76.3333 179.833,76.6667 179.5,77C 180.766,77.3095 181.933,77.8095 183,78.5C 184.036,84.0024 184.87,89.5024 185.5,95C 183.852,104.523 182.185,114.357 180.5,124.5C 179.566,125.568 179.232,126.901 179.5,128.5C 177.585,128.216 175.919,128.549 174.5,129.5C 172.041,127.221 169.374,125.054 166.5,123C 159.011,119.909 153.011,121.742 148.5,128.5C 145.914,129.48 143.247,129.813 140.5,129.5C 140.167,128.5 139.5,127.833 138.5,127.5C 137.299,125.091 135.633,123.091 133.5,121.5C 132.214,118.883 130.547,116.55 128.5,114.5C 127.177,112.529 125.844,110.529 124.5,108.5C 143.812,104.038 152.312,92.038 150,72.5C 149.722,71.5842 149.222,70.9175 148.5,70.5C 146.291,64.2912 142.291,59.6246 136.5,56.5C 134.898,54.9261 132.898,54.2594 130.5,54.5C 128.098,53.0075 125.431,52.0075 122.5,51.5C 120.735,50.5386 118.735,50.2053 116.5,50.5C 115.791,49.596 114.791,49.2627 113.5,49.5C 117.312,48.6762 121.312,48.1762 125.5,48C 126.833,47.3333 127.833,46.3333 128.5,45C 126.824,45.4342 125.157,46.2676 123.5,47.5C 123.167,46.1667 122.833,44.8333 122.5,43.5C 119.259,42.0616 116.259,40.2282 113.5,38C 114.43,37.0093 115.596,36.5093 117,36.5C 119.316,37.467 121.649,38.467 124,39.5C 124.692,38.9747 125.192,38.3081 125.5,37.5C 122.098,35.142 117.764,33.3086 112.5,32C 113.357,31.3109 114.023,30.4776 114.5,29.5C 113.637,28.2736 113.637,26.9403 114.5,25.5 Z"/></g>
<g><path style="opacity:0.153" fill="#f6ba19" d="M 186.5,50.5 C 193.507,62.1894 197.507,74.8561 198.5,88.5C 195.815,76.792 190.815,66.1253 183.5,56.5C 183.5,54.5 183.5,52.5 183.5,50.5C 184.5,50.5 185.5,50.5 186.5,50.5 Z"/></g>
<g><path style="opacity:0.973" fill="#766020" d="M 178.5,58.5 C 181.046,60.2806 182.546,62.614 183,65.5C 180.98,63.4494 179.48,61.1161 178.5,58.5 Z"/></g>
<g><path style="opacity:0.992" fill="#44254f" d="M 107.5,61.5 C 108.598,62.397 108.598,63.2303 107.5,64C 110.492,64.5193 111.492,66.0193 110.5,68.5C 111.391,69.5896 112.391,69.5896 113.5,68.5C 114.386,69.325 114.719,70.325 114.5,71.5C 112.295,71.1482 110.462,70.1482 109,68.5C 108.667,69.1667 108.333,69.8333 108,70.5C 107.664,68.9255 106.831,67.5922 105.5,66.5C 104.481,67.6872 103.314,68.6872 102,69.5C 101.667,68.8333 101.333,68.1667 101,67.5C 100.583,68.756 99.7498,69.4226 98.5,69.5C 98.9443,67.8868 99.9443,66.7202 101.5,66C 100.833,65.3333 100.167,64.6667 99.5,64C 102.048,62.8505 104.715,62.0171 107.5,61.5 Z"/></g>
<g><path style="opacity:0.992" fill="#6d4286" d="M 77.5,67.5 C 83.6638,69.2277 89.9971,69.8944 96.5,69.5C 87.3251,70.8222 77.9918,70.8222 68.5,69.5C 68.1373,68.8165 67.8039,68.1499 67.5,67.5C 67.8333,67.5 68.1667,67.5 68.5,67.5C 69.1499,67.1961 69.8165,66.8627 70.5,66.5C 71.6039,67.6313 71.2705,68.4646 69.5,69C 72.1667,69.6667 74.8333,69.6667 77.5,69C 74.9028,68.2208 74.9028,67.7208 77.5,67.5 Z"/></g>
<g><path style="opacity:0.991" fill="#db4aa8" d="M 130.5,54.5 C 132.898,54.2594 134.898,54.9261 136.5,56.5C 134.563,58.0908 132.563,59.7575 130.5,61.5C 129.167,62.5 129.167,63.5 130.5,64.5C 127.63,67.3266 125.63,70.66 124.5,74.5C 125,74.8333 125.5,75.1667 126,75.5C 127.358,73.8113 129.025,72.478 131,71.5C 131.71,72.9733 132.876,73.6399 134.5,73.5C 134.196,76.5792 133.196,79.4125 131.5,82C 131.957,82.414 132.291,82.914 132.5,83.5C 128.808,84.7404 125.641,86.7404 123,89.5C 122.658,87.3808 121.825,87.0474 120.5,88.5C 124.646,80.6272 122.646,74.9605 114.5,71.5C 114.719,70.325 114.386,69.325 113.5,68.5C 112.391,69.5896 111.391,69.5896 110.5,68.5C 111.492,66.0193 110.492,64.5193 107.5,64C 108.598,63.2303 108.598,62.397 107.5,61.5C 109.492,61.3285 111.158,61.9951 112.5,63.5C 113.167,63.1667 113.833,62.8333 114.5,62.5C 116.429,63.3802 118.263,64.3802 120,65.5C 122.509,61.3721 126.009,57.7054 130.5,54.5 Z"/></g>
<g><path style="opacity:0.988" fill="#0b0f22" d="M 50.5,89.5 C 50.5,104.167 50.5,118.833 50.5,133.5C 49.8969,138.619 50.5636,143.285 52.5,147.5C 57.1667,147.5 61.8333,147.5 66.5,147.5C 71.1667,147.5 75.8333,147.5 80.5,147.5C 80.5,140.5 80.5,133.5 80.5,126.5C 80.6659,121.489 80.4993,116.489 80,111.5C 78.1735,112.841 77.0069,112.341 76.5,110C 76.6977,107.815 77.6977,106.315 79.5,105.5C 81.1401,104.68 82.8068,103.847 84.5,103C 83.8333,102.333 83.1667,101.667 82.5,101C 82.9677,99.0144 82.9677,97.1811 82.5,95.5C 85.8903,93.8033 89.2236,93.47 92.5,94.5C 91.4863,95.6737 90.153,96.3404 88.5,96.5C 87.2334,95.913 86.2334,95.913 85.5,96.5C 86.1499,98.5575 86.1499,100.724 85.5,103C 85.1142,106.111 86.4475,107.944 89.5,108.5C 92.1173,113.114 95.1173,117.447 98.5,121.5C 100.932,124.688 103.599,127.688 106.5,130.5C 107.124,132.754 108.457,134.421 110.5,135.5C 111.786,138.117 113.453,140.45 115.5,142.5C 116.833,144.5 118.5,146.167 120.5,147.5C 123.518,147.335 126.518,147.502 129.5,148C 119.176,155.763 118.843,163.93 128.5,172.5C 129.485,176.634 129.818,180.968 129.5,185.5C 126.167,186.167 122.833,186.833 119.5,187.5C 119.611,186.883 119.944,186.383 120.5,186C 119.241,185.077 117.908,184.243 116.5,183.5C 119.5,182.667 122.5,181.833 125.5,181C 119.811,181.113 114.144,181.779 108.5,183C 110.665,186.083 113.665,187.583 117.5,187.5C 109.237,189.444 100.903,191.611 92.5,194C 90.1902,194.497 87.8568,194.663 85.5,194.5C 85.3932,192.621 85.8932,192.288 87,193.5C 87.8333,191.333 89.3333,189.833 91.5,189C 91.1667,188.667 90.8333,188.333 90.5,188C 91.6667,187.5 92.5,186.667 93,185.5C 94.9643,187.688 96.4643,187.688 97.5,185.5C 98.9516,184.698 100.618,184.198 102.5,184C 97.6486,183.826 92.9819,183.326 88.5,182.5C 91.3054,181.681 94.3054,181.181 97.5,181C 93.6437,180.823 89.977,180.323 86.5,179.5C 92.5092,179.666 98.5092,179.499 104.5,179C 94.7831,178.462 85.1165,177.462 75.5,176C 69.3757,175.221 63.709,173.388 58.5,170.5C 59.8062,169.533 60.4729,168.199 60.5,166.5C 63.0488,166.387 65.3821,167.054 67.5,168.5C 67.8333,168.167 68.1667,167.833 68.5,167.5C 64.8845,165.525 61.5512,163.191 58.5,160.5C 57.8076,161.025 57.3076,161.692 57,162.5C 55.8869,161.289 54.7202,161.289 53.5,162.5C 51.4287,159.863 48.9287,158.863 46,159.5C 42.6617,157.436 39.4951,155.103 36.5,152.5C 35.914,152.709 35.414,153.043 35,153.5C 34.0536,151.212 32.8869,149.045 31.5,147C 31.8333,146.833 32.1667,146.667 32.5,146.5C 34.1461,147.779 35.3128,149.445 36,151.5C 37.5655,150.939 38.8989,151.606 40,153.5C 40.6667,152.167 41.3333,152.167 42,153.5C 42.242,151.862 43.0753,150.362 44.5,149C 42.1671,147.757 41.5004,146.091 42.5,144C 39.549,140.41 36.3823,138.91 33,139.5C 31.1697,143.144 29.5031,142.81 28,138.5C 27.51,137.207 27.3433,135.873 27.5,134.5C 24.3979,134.154 21.5645,134.821 19,136.5C 15.9517,135.217 15.785,133.551 18.5,131.5C 16.8637,129.44 15.197,126.94 13.5,124C 14.2106,122.745 15.044,121.579 16,120.5C 17.2742,124.99 18.9409,129.323 21,133.5C 23.9656,131.516 23.799,129.516 20.5,127.5C 18.6068,124.382 17.2735,121.048 16.5,117.5C 15.676,119.748 14.676,119.914 13.5,118C 14.2135,116.657 13.8802,115.324 12.5,114C 14.158,113.275 14.658,112.108 14,110.5C 12.6932,109.228 11.1932,108.228 9.5,107.5C 10.7585,105.352 10.7585,103.185 9.5,101C 10.5384,97.9736 11.8718,97.8069 13.5,100.5C 12.2385,102.575 12.4052,104.575 14,106.5C 14.6667,101.5 14.6667,96.5 14,91.5C 12.4728,93.221 11.4728,95.221 11,97.5C 10.6667,94.1667 10.3333,90.8333 10,87.5C 9.16274,89.0074 7.99608,89.5074 6.5,89C 5.90109,87.3775 5.23442,85.8775 4.5,84.5C 5.79141,83.5272 5.79141,82.5272 4.5,81.5C 6.05135,79.1156 7.38468,76.6156 8.5,74C 7.40533,71.8286 8.07199,70.1619 10.5,69C 10.1667,68.6667 9.83333,68.3333 9.5,68C 10.7425,67.6886 11.7425,68.1886 12.5,69.5C 13.7989,68.91 14.6322,67.91 15,66.5C 15.49,67.7932 15.6567,69.1266 15.5,70.5C 14.1266,70.3433 12.7932,70.51 11.5,71C 13.7467,72.6548 16.0801,72.9881 18.5,72C 17.6433,72.6891 16.9767,73.5224 16.5,74.5C 17.7547,79.5187 18.2547,84.5187 18,89.5C 23.0527,96.0985 25.2194,94.7651 24.5,85.5C 25.9778,85.762 27.3112,85.4287 28.5,84.5C 27.3595,83.5745 27.3595,82.7412 28.5,82C 27.8333,81.6667 27.1667,81.3333 26.5,81C 27.6651,79.9164 28.9984,79.0831 30.5,78.5C 32.6929,81.6193 33.0262,84.9526 31.5,88.5C 32.552,88.3505 33.552,88.5172 34.5,89C 34.1667,89.3333 33.8333,89.6667 33.5,90C 34.2272,92.124 34.8938,94.2906 35.5,96.5C 37.3413,97.2304 39.1746,97.8971 41,98.5C 43.4321,97.5504 45.9321,97.5504 48.5,98.5C 48.2153,95.1709 48.8819,92.1709 50.5,89.5 Z"/></g>
<g><path style="opacity:0.992" fill="#f046ac" d="M 136.5,56.5 C 142.291,59.6246 146.291,64.2912 148.5,70.5C 148.565,70.9382 148.399,71.2716 148,71.5C 145.553,68.2915 143.887,68.2915 143,71.5C 142.333,72.8333 141.667,72.8333 141,71.5C 136.191,79.7986 131.024,88.2986 125.5,97C 122.279,98.2775 118.946,99.1109 115.5,99.5C 115.198,102.373 114.531,105.039 113.5,107.5C 112.094,104.586 110.094,102.086 107.5,100C 106.552,99.5172 105.552,99.3505 104.5,99.5C 104.737,98.209 104.404,97.209 103.5,96.5C 102.909,95.8485 102.243,95.1818 101.5,94.5C 103.969,93.8319 106.302,93.1653 108.5,92.5C 112.965,92.3879 116.965,91.0546 120.5,88.5C 121.825,87.0474 122.658,87.3808 123,89.5C 125.641,86.7404 128.808,84.7404 132.5,83.5C 132.291,82.914 131.957,82.414 131.5,82C 133.196,79.4125 134.196,76.5792 134.5,73.5C 132.876,73.6399 131.71,72.9733 131,71.5C 129.025,72.478 127.358,73.8113 126,75.5C 125.5,75.1667 125,74.8333 124.5,74.5C 125.63,70.66 127.63,67.3266 130.5,64.5C 129.167,63.5 129.167,62.5 130.5,61.5C 132.563,59.7575 134.563,58.0908 136.5,56.5 Z"/></g>
<g><path style="opacity:0.992" fill="#7c2e6f" d="M 93.5,92.5 C 98.5,92.5 103.5,92.5 108.5,92.5C 106.302,93.1653 103.969,93.8319 101.5,94.5C 102.243,95.1818 102.909,95.8485 103.5,96.5C 102.35,99.2982 101.017,101.965 99.5,104.5C 99.428,102.689 98.5947,101.356 97,100.5C 95.2108,101.409 93.3774,101.576 91.5,101C 90.6243,99.4152 89.2909,98.4152 87.5,98C 88.056,97.6174 88.3893,97.1174 88.5,96.5C 90.153,96.3404 91.4863,95.6737 92.5,94.5C 93.3382,94.1583 93.6716,93.4916 93.5,92.5 Z"/></g>
<g><path style="opacity:0.992" fill="#f73f9d" d="M 148.5,70.5 C 149.222,70.9175 149.722,71.5842 150,72.5C 152.312,92.038 143.812,104.038 124.5,108.5C 125.844,110.529 127.177,112.529 128.5,114.5C 127.504,114.586 126.671,114.252 126,113.5C 119.971,115.434 114.138,117.767 108.5,120.5C 108.062,120.565 107.728,120.399 107.5,120C 110.576,119.089 112.909,117.256 114.5,114.5C 111.833,113.167 111.833,111.833 114.5,110.5C 113.873,109.583 113.539,108.583 113.5,107.5C 114.531,105.039 115.198,102.373 115.5,99.5C 118.946,99.1109 122.279,98.2775 125.5,97C 131.024,88.2986 136.191,79.7986 141,71.5C 141.667,72.8333 142.333,72.8333 143,71.5C 143.887,68.2915 145.553,68.2915 148,71.5C 148.399,71.2716 148.565,70.9382 148.5,70.5 Z"/></g>
<g><path style="opacity:0.973" fill="#1e1932" d="M 53.5,89.5 C 55.1992,89.3398 56.8659,89.5065 58.5,90C 57.6721,90.9147 56.6721,91.5814 55.5,92C 56.1667,92.1667 56.8333,92.3333 57.5,92.5C 63.4442,88.8203 69.4442,88.6536 75.5,92C 81.4908,92.4995 87.4908,92.6662 93.5,92.5C 93.6716,93.4916 93.3382,94.1583 92.5,94.5C 89.2236,93.47 85.8903,93.8033 82.5,95.5C 82.9677,97.1811 82.9677,99.0144 82.5,101C 83.1667,101.667 83.8333,102.333 84.5,103C 82.8068,103.847 81.1401,104.68 79.5,105.5C 79.7214,104.265 80.3881,103.265 81.5,102.5C 81.0004,101.119 80.0004,100.453 78.5,100.5C 74.1489,103.194 69.8155,105.861 65.5,108.5C 65.8869,109.72 66.7202,110.387 68,110.5C 72.7292,108.664 73.5626,109.664 70.5,113.5C 67.0973,115.187 64.264,114.52 62,111.5C 61.3162,110.216 61.4829,109.049 62.5,108C 61.2341,107.691 60.0674,107.191 59,106.5C 59.4296,108.127 59.5963,109.627 59.5,111C 55.6137,111.579 55.6137,112.412 59.5,113.5C 61.4738,115.464 63.1405,117.631 64.5,120C 61.0707,121.548 57.904,121.382 55,119.5C 53.9889,120.056 53.1556,120.722 52.5,121.5C 51.895,111.64 52.5616,101.973 54.5,92.5C 53.8728,91.5832 53.5394,90.5832 53.5,89.5 Z"/></g>
<g><path style="opacity:0.992" fill="#311737" d="M 88.5,96.5 C 88.3893,97.1174 88.056,97.6174 87.5,98C 89.2909,98.4152 90.6243,99.4152 91.5,101C 93.3774,101.576 95.2108,101.409 97,100.5C 98.5947,101.356 99.428,102.689 99.5,104.5C 99.5,104.833 99.5,105.167 99.5,105.5C 96.7224,105.022 94.7224,106.022 93.5,108.5C 92.6143,107.675 92.281,106.675 92.5,105.5C 91.1266,105.343 89.7932,105.51 88.5,106C 90.6192,106.342 90.9526,107.175 89.5,108.5C 86.4475,107.944 85.1142,106.111 85.5,103C 86.1499,100.724 86.1499,98.5575 85.5,96.5C 86.2334,95.913 87.2334,95.913 88.5,96.5 Z"/></g>
<g><path style="opacity:0.992" fill="#594e6a" d="M 50.5,89.5 C 51.5,89.5 52.5,89.5 53.5,89.5C 53.5394,90.5832 53.8728,91.5832 54.5,92.5C 52.5616,101.973 51.895,111.64 52.5,121.5C 52.2833,125.705 51.6167,129.705 50.5,133.5C 50.5,118.833 50.5,104.167 50.5,89.5 Z"/></g>
<g><path style="opacity:0.992" fill="#c93781" d="M 103.5,96.5 C 104.404,97.209 104.737,98.209 104.5,99.5C 105.552,99.3505 106.552,99.5172 107.5,100C 110.094,102.086 112.094,104.586 113.5,107.5C 113.539,108.583 113.873,109.583 114.5,110.5C 111.833,111.833 111.833,113.167 114.5,114.5C 112.909,117.256 110.576,119.089 107.5,120C 107.728,120.399 108.062,120.565 108.5,120.5C 109.789,121.637 110.789,122.97 111.5,124.5C 109.164,125.845 107.497,127.845 106.5,130.5C 103.599,127.688 100.932,124.688 98.5,121.5C 99.344,119.241 101.011,118.241 103.5,118.5C 103.52,116.857 102.853,115.524 101.5,114.5C 103.335,113.572 103.668,112.406 102.5,111C 103.938,110.781 105.271,110.281 106.5,109.5C 105.674,108.549 105.508,107.549 106,106.5C 106.718,107.451 107.551,107.617 108.5,107C 107.932,105.396 106.932,104.73 105.5,105C 103.887,107.421 102.553,109.921 101.5,112.5C 100.448,112.351 99.448,112.517 98.5,113C 99.7112,113.893 99.7112,114.726 98.5,115.5C 97.0158,113.926 95.3492,112.593 93.5,111.5C 95.0461,110.316 96.7127,109.316 98.5,108.5C 99.1272,107.583 99.4606,106.583 99.5,105.5C 99.5,105.167 99.5,104.833 99.5,104.5C 101.017,101.965 102.35,99.2982 103.5,96.5 Z"/></g>
<g><path style="opacity:0.992" fill="#752659" d="M 98.5,121.5 C 95.1173,117.447 92.1173,113.114 89.5,108.5C 90.9526,107.175 90.6192,106.342 88.5,106C 89.7932,105.51 91.1266,105.343 92.5,105.5C 92.281,106.675 92.6143,107.675 93.5,108.5C 94.7224,106.022 96.7224,105.022 99.5,105.5C 99.4606,106.583 99.1272,107.583 98.5,108.5C 96.7127,109.316 95.0461,110.316 93.5,111.5C 95.3492,112.593 97.0158,113.926 98.5,115.5C 99.7112,114.726 99.7112,113.893 98.5,113C 99.448,112.517 100.448,112.351 101.5,112.5C 102.553,109.921 103.887,107.421 105.5,105C 106.932,104.73 107.932,105.396 108.5,107C 107.551,107.617 106.718,107.451 106,106.5C 105.508,107.549 105.674,108.549 106.5,109.5C 105.271,110.281 103.938,110.781 102.5,111C 103.668,112.406 103.335,113.572 101.5,114.5C 102.853,115.524 103.52,116.857 103.5,118.5C 101.011,118.241 99.344,119.241 98.5,121.5 Z"/></g>
<g><path style="opacity:0.992" fill="#fb4386" d="M 128.5,114.5 C 130.547,116.55 132.214,118.883 133.5,121.5C 133.565,121.938 133.399,122.272 133,122.5C 131.687,121.427 130.187,120.76 128.5,120.5C 123.359,121.486 118.525,123.152 114,125.5C 113.329,124.748 112.496,124.414 111.5,124.5C 110.789,122.97 109.789,121.637 108.5,120.5C 114.138,117.767 119.971,115.434 126,113.5C 126.671,114.252 127.504,114.586 128.5,114.5 Z"/></g>
<g><path style="opacity:0.992" fill="#571f4a" d="M 79.5,105.5 C 77.6977,106.315 76.6977,107.815 76.5,110C 77.0069,112.341 78.1735,112.841 80,111.5C 80.4993,116.489 80.6659,121.489 80.5,126.5C 78.3875,125.56 76.3875,124.394 74.5,123C 76.1341,122.506 77.8008,122.34 79.5,122.5C 79.6641,119.813 79.4974,117.146 79,114.5C 77.8118,115.563 77.3118,116.897 77.5,118.5C 74.4816,118.335 71.4816,118.502 68.5,119C 70.1341,119.494 71.8008,119.66 73.5,119.5C 72.5283,123.909 70.8617,128.076 68.5,132C 70.4206,133.241 70.754,134.741 69.5,136.5C 68.6143,135.675 68.281,134.675 68.5,133.5C 67.5,133.5 66.5,133.5 65.5,133.5C 65.7373,134.791 65.404,135.791 64.5,136.5C 64.6309,135.624 64.2975,134.957 63.5,134.5C 62.2888,135.274 62.2888,136.107 63.5,137C 62.2559,137.456 61.4226,136.956 61,135.5C 60.059,137.061 58.8924,138.395 57.5,139.5C 55.5914,138.652 53.5914,138.318 51.5,138.5C 51.2641,141.609 51.5975,144.609 52.5,147.5C 50.5636,143.285 49.8969,138.619 50.5,133.5C 51.6167,129.705 52.2833,125.705 52.5,121.5C 53.1556,120.722 53.9889,120.056 55,119.5C 57.904,121.382 61.0707,121.548 64.5,120C 63.1405,117.631 61.4738,115.464 59.5,113.5C 55.6137,112.412 55.6137,111.579 59.5,111C 59.5963,109.627 59.4296,108.127 59,106.5C 60.0674,107.191 61.2341,107.691 62.5,108C 61.4829,109.049 61.3162,110.216 62,111.5C 64.264,114.52 67.0973,115.187 70.5,113.5C 73.5626,109.664 72.7292,108.664 68,110.5C 66.7202,110.387 65.8869,109.72 65.5,108.5C 69.8155,105.861 74.1489,103.194 78.5,100.5C 80.0004,100.453 81.0004,101.119 81.5,102.5C 80.3881,103.265 79.7214,104.265 79.5,105.5 Z"/></g>
<g><path style="opacity:0.29" fill="#94327c" d="M 3.5,107.5 C 4.93361,115.463 7.60027,123.129 11.5,130.5C 11.1543,131.696 10.6543,131.696 10,130.5C 6.74344,125.227 4.57678,119.561 3.5,113.5C 3.5,111.5 3.5,109.5 3.5,107.5 Z"/></g>
<g><path style="opacity:0.992" fill="#f94b73" d="M 133.5,121.5 C 135.633,123.091 137.299,125.091 138.5,127.5C 135.15,127.335 131.817,127.502 128.5,128C 125.861,129.946 122.861,130.946 119.5,131C 117.071,134.217 114.071,135.717 110.5,135.5C 108.457,134.421 107.124,132.754 106.5,130.5C 107.497,127.845 109.164,125.845 111.5,124.5C 112.496,124.414 113.329,124.748 114,125.5C 118.525,123.152 123.359,121.486 128.5,120.5C 130.187,120.76 131.687,121.427 133,122.5C 133.399,122.272 133.565,121.938 133.5,121.5 Z"/></g>
<g><path style="opacity:1" fill="#db6f1d" d="M 180.5,124.5 C 184.715,123.552 185.215,124.552 182,127.5C 180.961,126.756 180.461,125.756 180.5,124.5 Z"/></g>
<g><path style="opacity:0.992" fill="#f6595c" d="M 138.5,127.5 C 139.5,127.833 140.167,128.5 140.5,129.5C 133.203,130.721 129.037,135.054 128,142.5C 126.887,141.695 125.721,141.028 124.5,140.5C 124.083,139.876 123.416,139.543 122.5,139.5C 120.964,140.249 119.631,141.249 118.5,142.5C 117.719,141.271 117.219,139.938 117,138.5C 116.79,140.058 116.29,141.391 115.5,142.5C 113.453,140.45 111.786,138.117 110.5,135.5C 114.071,135.717 117.071,134.217 119.5,131C 122.861,130.946 125.861,129.946 128.5,128C 131.817,127.502 135.15,127.335 138.5,127.5 Z"/></g>
<g><path style="opacity:0.027" fill="#942f62" d="M 1.5,127.5 C 4.41759,132.333 7.08426,137.333 9.5,142.5C 4.45547,138.743 1.78881,133.743 1.5,127.5 Z"/></g>
<g><path style="opacity:0.992" fill="#ad3268" d="M 80.5,126.5 C 80.5,133.5 80.5,140.5 80.5,147.5C 75.8333,147.5 71.1667,147.5 66.5,147.5C 66.0986,146.009 65.932,144.342 66,142.5C 65.6667,143.167 65.3333,143.833 65,144.5C 63.5905,143.213 62.0905,142.046 60.5,141C 62.1667,140 63.8333,139 65.5,138C 64.944,137.617 64.6107,137.117 64.5,136.5C 65.404,135.791 65.7373,134.791 65.5,133.5C 66.5,133.5 67.5,133.5 68.5,133.5C 68.281,134.675 68.6143,135.675 69.5,136.5C 70.754,134.741 70.4206,133.241 68.5,132C 70.8617,128.076 72.5283,123.909 73.5,119.5C 71.8008,119.66 70.1341,119.494 68.5,119C 71.4816,118.502 74.4816,118.335 77.5,118.5C 77.3118,116.897 77.8118,115.563 79,114.5C 79.4974,117.146 79.6641,119.813 79.5,122.5C 77.8008,122.34 76.1341,122.506 74.5,123C 76.3875,124.394 78.3875,125.56 80.5,126.5 Z"/></g>
<g><path style="opacity:0.827" fill="#3b261b" d="M 181.5,131.5 C 184.833,132.167 186.833,134.167 187.5,137.5C 185.684,139.118 184.351,141.118 183.5,143.5C 183.167,143.5 182.833,143.5 182.5,143.5C 181.432,142.566 180.099,142.232 178.5,142.5C 179.008,139.824 179.175,137.157 179,134.5C 173.484,131.824 174.317,130.824 181.5,131.5 Z"/></g>
<g><path style="opacity:0.992" fill="#7b2c58" d="M 64.5,136.5 C 64.6107,137.117 64.944,137.617 65.5,138C 63.8333,139 62.1667,140 60.5,141C 62.0905,142.046 63.5905,143.213 65,144.5C 65.3333,143.833 65.6667,143.167 66,142.5C 65.932,144.342 66.0986,146.009 66.5,147.5C 61.8333,147.5 57.1667,147.5 52.5,147.5C 51.5975,144.609 51.2641,141.609 51.5,138.5C 53.5914,138.318 55.5914,138.652 57.5,139.5C 58.8924,138.395 60.059,137.061 61,135.5C 61.4226,136.956 62.2559,137.456 63.5,137C 62.2888,136.107 62.2888,135.274 63.5,134.5C 64.2975,134.957 64.6309,135.624 64.5,136.5 Z"/></g>
<g><path style="opacity:0.991" fill="#141026" d="M 3.5,84.5 C 3.83333,84.5 4.16667,84.5 4.5,84.5C 5.23442,85.8775 5.90109,87.3775 6.5,89C 7.99608,89.5074 9.16274,89.0074 10,87.5C 10.3333,90.8333 10.6667,94.1667 11,97.5C 11.4728,95.221 12.4728,93.221 14,91.5C 14.6667,96.5 14.6667,101.5 14,106.5C 12.4052,104.575 12.2385,102.575 13.5,100.5C 11.8718,97.8069 10.5384,97.9736 9.5,101C 10.7585,103.185 10.7585,105.352 9.5,107.5C 11.1932,108.228 12.6932,109.228 14,110.5C 14.658,112.108 14.158,113.275 12.5,114C 13.8802,115.324 14.2135,116.657 13.5,118C 14.676,119.914 15.676,119.748 16.5,117.5C 17.2735,121.048 18.6068,124.382 20.5,127.5C 23.799,129.516 23.9656,131.516 21,133.5C 18.9409,129.323 17.2742,124.99 16,120.5C 15.044,121.579 14.2106,122.745 13.5,124C 15.197,126.94 16.8637,129.44 18.5,131.5C 15.785,133.551 15.9517,135.217 19,136.5C 21.5645,134.821 24.3979,134.154 27.5,134.5C 27.3433,135.873 27.51,137.207 28,138.5C 29.5031,142.81 31.1697,143.144 33,139.5C 36.3823,138.91 39.549,140.41 42.5,144C 41.5004,146.091 42.1671,147.757 44.5,149C 43.0753,150.362 42.242,151.862 42,153.5C 41.3333,152.167 40.6667,152.167 40,153.5C 38.8989,151.606 37.5655,150.939 36,151.5C 35.3128,149.445 34.1461,147.779 32.5,146.5C 32.1667,146.667 31.8333,146.833 31.5,147C 32.8869,149.045 34.0536,151.212 35,153.5C 35.414,153.043 35.914,152.709 36.5,152.5C 39.4951,155.103 42.6617,157.436 46,159.5C 48.9287,158.863 51.4287,159.863 53.5,162.5C 54.7202,161.289 55.8869,161.289 57,162.5C 57.3076,161.692 57.8076,161.025 58.5,160.5C 61.5512,163.191 64.8845,165.525 68.5,167.5C 68.1667,167.833 67.8333,168.167 67.5,168.5C 65.3821,167.054 63.0488,166.387 60.5,166.5C 60.4729,168.199 59.8062,169.533 58.5,170.5C 48.2418,167.245 38.9084,162.245 30.5,155.5C 30.1667,155.667 29.8333,155.833 29.5,156C 46.1808,169.337 65.1808,177.17 86.5,179.5C 89.977,180.323 93.6437,180.823 97.5,181C 94.3054,181.181 91.3054,181.681 88.5,182.5C 83.8276,181.997 79.1609,181.831 74.5,182C 77.028,183.017 77.028,184.184 74.5,185.5C 75.7757,186.645 77.109,186.645 78.5,185.5C 79.1355,187.795 80.4689,189.461 82.5,190.5C 85.3659,188.422 88.3659,186.589 91.5,185C 93.4884,184.82 95.4884,184.986 97.5,185.5C 96.4643,187.688 94.9643,187.688 93,185.5C 92.5,186.667 91.6667,187.5 90.5,188C 90.8333,188.333 91.1667,188.667 91.5,189C 89.3333,189.833 87.8333,191.333 87,193.5C 85.8932,192.288 85.3932,192.621 85.5,194.5C 77.8333,192.5 70.1667,190.5 62.5,188.5C 63.8988,185.264 65.8988,182.43 68.5,180C 58.3734,177.268 48.7068,173.435 39.5,168.5C 36.7082,168.761 34.3749,169.761 32.5,171.5C 30.5,170.167 28.8333,168.5 27.5,166.5C 29.143,166.52 30.4763,165.853 31.5,164.5C 32.451,165.326 33.451,165.492 34.5,165C 26.8394,159.035 19.5061,152.868 12.5,146.5C 11.0256,145.564 10.0256,144.23 9.5,142.5C 7.08426,137.333 4.41759,132.333 1.5,127.5C 1.22914,122.566 1.89581,117.9 3.5,113.5C 4.57678,119.561 6.74344,125.227 10,130.5C 10.6543,131.696 11.1543,131.696 11.5,130.5C 7.60027,123.129 4.93361,115.463 3.5,107.5C 3.37763,100.057 3.37763,92.3901 3.5,84.5 Z"/></g>
<g><path style="opacity:0.992" fill="#954036" d="M 124.5,140.5 C 123.829,141.847 123.829,143.014 124.5,144C 122.77,145.852 121.604,145.686 121,143.5C 120.51,144.793 120.343,146.127 120.5,147.5C 118.5,146.167 116.833,144.5 115.5,142.5C 116.29,141.391 116.79,140.058 117,138.5C 117.219,139.938 117.719,141.271 118.5,142.5C 119.631,141.249 120.964,140.249 122.5,139.5C 123.416,139.543 124.083,139.876 124.5,140.5 Z"/></g>
<g><path style="opacity:1" fill="#616b96" d="M 165.5,146.5 C 164.399,148.394 163.066,149.061 161.5,148.5C 159.484,149.486 158.151,151.153 157.5,153.5C 156.893,153.376 156.56,153.043 156.5,152.5C 157.234,151.292 157.567,149.959 157.5,148.5C 155.876,148.36 154.71,149.027 154,150.5C 152.989,149.663 151.822,149.33 150.5,149.5C 150.833,148.833 151.167,148.167 151.5,147.5C 151.842,146.662 152.508,146.328 153.5,146.5C 157.532,145.234 161.532,145.234 165.5,146.5 Z"/></g>
<g><path style="opacity:1" fill="#70a064" d="M 165.5,146.5 C 169.407,147.407 172.074,149.74 173.5,153.5C 172.798,154.116 171.798,154.116 170.5,153.5C 169.097,152.069 167.431,150.902 165.5,150C 164.207,149.51 162.873,149.343 161.5,149.5C 161.5,149.167 161.5,148.833 161.5,148.5C 163.066,149.061 164.399,148.394 165.5,146.5 Z"/></g>
<g><path style="opacity:1" fill="#d46b24" d="M 174.5,129.5 C 177.385,129.194 180.052,129.527 182.5,130.5C 181.833,130.5 181.5,130.833 181.5,131.5C 174.317,130.824 173.484,131.824 179,134.5C 179.175,137.157 179.008,139.824 178.5,142.5C 180.099,142.232 181.432,142.566 182.5,143.5C 180.204,143.804 179.871,144.804 181.5,146.5C 181.5,147.167 181.167,147.5 180.5,147.5C 180.44,146.957 180.107,146.624 179.5,146.5C 178.833,147.167 178.167,147.833 177.5,148.5C 176.019,147.52 174.685,146.353 173.5,145C 172.563,144.308 171.897,144.475 171.5,145.5C 165.645,141.144 159.312,140.478 152.5,143.5C 153.127,144.417 153.461,145.417 153.5,146.5C 152.508,146.328 151.842,146.662 151.5,147.5C 147.828,147.658 144.995,149.325 143,152.5C 142.501,157.823 142.334,163.156 142.5,168.5C 141.596,169.209 141.263,170.209 141.5,171.5C 136.295,160.681 133.629,161.348 133.5,173.5C 131.956,173.297 130.622,172.63 129.5,171.5C 128.893,171.624 128.56,171.957 128.5,172.5C 118.843,163.93 119.176,155.763 129.5,148C 126.518,147.502 123.518,147.335 120.5,147.5C 120.343,146.127 120.51,144.793 121,143.5C 121.604,145.686 122.77,145.852 124.5,144C 123.829,143.014 123.829,141.847 124.5,140.5C 125.721,141.028 126.887,141.695 128,142.5C 129.037,135.054 133.203,130.721 140.5,129.5C 143.247,129.813 145.914,129.48 148.5,128.5C 153.011,121.742 159.011,119.909 166.5,123C 169.374,125.054 172.041,127.221 174.5,129.5 Z"/></g>
<g><path style="opacity:0.992" fill="#12131d" d="M 132.5,148.5 C 141.737,147.66 142.904,150.66 136,157.5C 133.95,154.852 132.784,151.852 132.5,148.5 Z"/></g>
<g><path style="opacity:0.996" fill="#492d20" d="M 159.5,137.5 C 161.423,137.795 163.09,138.628 164.5,140C 161.833,140.667 159.167,140.667 156.5,140C 157.571,139.148 158.571,138.315 159.5,137.5 Z"/></g>
<g><path style="opacity:0.992" fill="#fc6c4d" d="M 142.5,131.5 C 143.167,132.833 144.167,133.833 145.5,134.5C 143.722,136.829 142.722,139.496 142.5,142.5C 139.824,141.992 137.157,141.825 134.5,142C 133.107,143.171 132.273,144.671 132,146.5C 129.637,137.193 133.137,132.193 142.5,131.5 Z"/></g>
<g><path style="opacity:0.992" fill="#1d1a20" d="M 169.5,132.5 C 170.5,132.5 171.5,132.5 172.5,132.5C 170.289,137.041 171.622,139.875 176.5,141C 171.082,141.527 166.415,139.86 162.5,136C 164.925,134.787 167.259,133.621 169.5,132.5 Z"/></g>
<g><path style="opacity:0.992" fill="#151520" d="M 148.5,132.5 C 152.062,132.965 155.395,134.132 158.5,136C 156.194,138.139 153.527,139.639 150.5,140.5C 146.237,138.66 145.571,135.993 148.5,132.5 Z"/></g>
<g><path style="opacity:0.992" fill="#19151e" d="M 142.5,131.5 C 143.873,131.343 145.207,131.51 146.5,132C 145.748,132.671 145.414,133.504 145.5,134.5C 144.167,133.833 143.167,132.833 142.5,131.5 Z"/></g>
<g><path style="opacity:0.992" fill="#151721" d="M 156.5,123.5 C 162.38,122.776 167.047,124.776 170.5,129.5C 167.202,131.16 163.869,132.827 160.5,134.5C 156.888,133.361 153.554,131.694 150.5,129.5C 152.215,127.118 154.215,125.118 156.5,123.5 Z"/></g>
<g><path style="opacity:0.992" fill="#121421" d="M 128.5,150.5 C 129.376,150.369 130.043,150.702 130.5,151.5C 131.833,154.5 133.167,157.5 134.5,160.5C 132.827,163.869 131.16,167.202 129.5,170.5C 121.971,164.146 121.637,157.48 128.5,150.5 Z"/></g>
<g><path style="opacity:0.996" fill="#4d2e20" d="M 139.5,156.5 C 140.8,159.024 140.8,161.691 139.5,164.5C 137.025,161.887 137.025,159.22 139.5,156.5 Z"/></g>
<g><path style="opacity:0.141" fill="#592142" d="M 12.5,146.5 C 19.5061,152.868 26.8394,159.035 34.5,165C 33.451,165.492 32.451,165.326 31.5,164.5C 30.4763,165.853 29.143,166.52 27.5,166.5C 26.2058,165.71 25.0391,164.71 24,163.5C 20.3111,157.661 16.4777,151.994 12.5,146.5 Z"/></g>
<g><path style="opacity:0.808" fill="#191519" d="M 171.5,145.5 C 173.845,147.514 175.845,149.847 177.5,152.5C 178.96,161.278 176.293,168.778 169.5,175C 163.26,178.097 156.926,178.264 150.5,175.5C 147.19,173.854 144.523,171.52 142.5,168.5C 142.334,163.156 142.501,157.823 143,152.5C 144.995,149.325 147.828,147.658 151.5,147.5C 151.167,148.167 150.833,148.833 150.5,149.5C 149.833,150.167 149.167,150.833 148.5,151.5C 145.945,154.627 144.945,158.294 145.5,162.5C 145.433,163.959 145.766,165.292 146.5,166.5C 148.93,172.217 153.263,175.217 159.5,175.5C 163.854,176.251 167.187,174.917 169.5,171.5C 171.027,171.573 172.027,170.906 172.5,169.5C 175.31,166.648 175.977,163.315 174.5,159.5C 173.886,163.07 172.552,163.403 170.5,160.5C 171.612,159.735 172.279,158.735 172.5,157.5C 173.767,158.087 174.767,158.087 175.5,157.5C 175.006,155.974 174.339,154.641 173.5,153.5C 172.074,149.74 169.407,147.407 165.5,146.5C 161.532,145.234 157.532,145.234 153.5,146.5C 153.461,145.417 153.127,144.417 152.5,143.5C 159.312,140.478 165.645,141.144 171.5,145.5 Z"/></g>
<g><path style="opacity:1" fill="#795d90" d="M 148.5,151.5 C 149.778,151.782 150.778,152.449 151.5,153.5C 150.708,155.257 149.375,156.591 147.5,157.5C 148.949,158.172 150.282,158.839 151.5,159.5C 150.833,159.5 150.5,159.833 150.5,160.5C 149.21,161.058 148.377,162.058 148,163.5C 147.329,162.748 146.496,162.414 145.5,162.5C 144.945,158.294 145.945,154.627 148.5,151.5 Z"/></g>
<g><path style="opacity:1" fill="#683a91" d="M 162.5,153.5 C 164.71,153.894 166.043,155.227 166.5,157.5C 164.833,159.5 163.167,161.5 161.5,163.5C 161.833,161.5 162.167,159.5 162.5,157.5C 162.5,156.167 162.5,154.833 162.5,153.5 Z"/></g>
<g><path style="opacity:1" fill="#495c1d" d="M 151.5,153.5 C 152.5,154.167 153.5,154.833 154.5,155.5C 159.056,162.182 158.056,163.515 151.5,159.5C 150.282,158.839 148.949,158.172 147.5,157.5C 149.375,156.591 150.708,155.257 151.5,153.5 Z"/></g>
<g><path style="opacity:1" fill="#5a72a1" d="M 161.5,149.5 C 162.873,149.343 164.207,149.51 165.5,150C 167.431,150.902 169.097,152.069 170.5,153.5C 169.674,155.264 168.341,156.598 166.5,157.5C 166.043,155.227 164.71,153.894 162.5,153.5C 162.167,152.167 161.833,150.833 161.5,149.5 Z"/></g>
<g><path style="opacity:1" fill="#425d17" d="M 161.5,148.5 C 161.5,148.833 161.5,149.167 161.5,149.5C 161.833,150.833 162.167,152.167 162.5,153.5C 162.5,154.833 162.5,156.167 162.5,157.5C 161.442,158.6 160.608,159.934 160,161.5C 158.936,159.041 157.602,156.708 156,154.5C 155.617,155.056 155.117,155.389 154.5,155.5C 154.427,153.973 155.094,152.973 156.5,152.5C 156.56,153.043 156.893,153.376 157.5,153.5C 158.151,151.153 159.484,149.486 161.5,148.5 Z"/></g>
<g><path style="opacity:1" fill="#7da94a" d="M 156.5,152.5 C 155.094,152.973 154.427,153.973 154.5,155.5C 153.5,154.833 152.5,154.167 151.5,153.5C 150.778,152.449 149.778,151.782 148.5,151.5C 149.167,150.833 149.833,150.167 150.5,149.5C 151.822,149.33 152.989,149.663 154,150.5C 154.71,149.027 155.876,148.36 157.5,148.5C 157.567,149.959 157.234,151.292 156.5,152.5 Z"/></g>
<g><path style="opacity:1" fill="#353522" d="M 162.5,157.5 C 162.167,159.5 161.833,161.5 161.5,163.5C 160.305,163.678 159.138,164.011 158,164.5C 155.681,163.129 153.181,162.462 150.5,162.5C 150.5,161.833 150.5,161.167 150.5,160.5C 150.5,159.833 150.833,159.5 151.5,159.5C 158.056,163.515 159.056,162.182 154.5,155.5C 155.117,155.389 155.617,155.056 156,154.5C 157.602,156.708 158.936,159.041 160,161.5C 160.608,159.934 161.442,158.6 162.5,157.5 Z"/></g>
<g><path style="opacity:1" fill="#45602d" d="M 170.5,153.5 C 171.798,154.116 172.798,154.116 173.5,153.5C 174.339,154.641 175.006,155.974 175.5,157.5C 174.767,158.087 173.767,158.087 172.5,157.5C 170.022,158.195 168.022,159.695 166.5,162C 167.793,162.49 169.127,162.657 170.5,162.5C 170.185,165.211 170.852,167.544 172.5,169.5C 172.027,170.906 171.027,171.573 169.5,171.5C 169.167,171.5 168.833,171.5 168.5,171.5C 167.078,171.25 166.078,170.417 165.5,169C 164.207,168.51 162.873,168.343 161.5,168.5C 161.649,169.552 161.483,170.552 161,171.5C 160.28,169.888 160.446,168.388 161.5,167C 160.552,166.517 159.552,166.351 158.5,166.5C 156.708,165.691 154.708,165.191 152.5,165C 151.244,164.583 150.577,163.75 150.5,162.5C 153.181,162.462 155.681,163.129 158,164.5C 159.138,164.011 160.305,163.678 161.5,163.5C 163.167,161.5 164.833,159.5 166.5,157.5C 168.341,156.598 169.674,155.264 170.5,153.5 Z"/></g>
<g><path style="opacity:1" fill="#736e6d" d="M 150.5,160.5 C 150.5,161.167 150.5,161.833 150.5,162.5C 150.577,163.75 151.244,164.583 152.5,165C 154.708,165.191 156.708,165.691 158.5,166.5C 156.321,167.059 154.154,167.726 152,168.5C 150.2,167.68 148.366,167.014 146.5,166.5C 145.766,165.292 145.433,163.959 145.5,162.5C 146.496,162.414 147.329,162.748 148,163.5C 148.377,162.058 149.21,161.058 150.5,160.5 Z"/></g>
<g><path style="opacity:1" fill="#654574" d="M 172.5,157.5 C 172.279,158.735 171.612,159.735 170.5,160.5C 172.552,163.403 173.886,163.07 174.5,159.5C 175.977,163.315 175.31,166.648 172.5,169.5C 170.852,167.544 170.185,165.211 170.5,162.5C 169.127,162.657 167.793,162.49 166.5,162C 168.022,159.695 170.022,158.195 172.5,157.5 Z"/></g>
<g><path style="opacity:0.691" fill="#e6731b" d="M 181.5,131.5 C 181.5,130.833 181.833,130.5 182.5,130.5C 185.079,130.394 187.412,131.061 189.5,132.5C 192.338,137.037 193.005,141.87 191.5,147C 194.692,149.028 197.359,151.528 199.5,154.5C 199.5,158.5 199.5,162.5 199.5,166.5C 197.359,169.472 194.692,171.972 191.5,174C 193.667,181.165 191.667,186.832 185.5,191C 181.204,191.964 176.87,192.797 172.5,193.5C 170.785,195.882 168.785,197.882 166.5,199.5C 162.5,199.5 158.5,199.5 154.5,199.5C 152.215,197.882 150.215,195.882 148.5,193.5C 144.13,192.797 139.796,191.964 135.5,191C 132.977,189.64 130.977,187.807 129.5,185.5C 129.818,180.968 129.485,176.634 128.5,172.5C 128.56,171.957 128.893,171.624 129.5,171.5C 130.622,172.63 131.956,173.297 133.5,173.5C 135.886,174.298 138.22,175.298 140.5,176.5C 141.452,174.955 141.785,173.288 141.5,171.5C 141.263,170.209 141.596,169.209 142.5,168.5C 144.523,171.52 147.19,173.854 150.5,175.5C 151.058,176.79 152.058,177.623 153.5,178C 158.949,178.896 164.282,178.563 169.5,177C 178.29,170.875 180.957,162.708 177.5,152.5C 175.845,149.847 173.845,147.514 171.5,145.5C 171.897,144.475 172.563,144.308 173.5,145C 174.685,146.353 176.019,147.52 177.5,148.5C 178.167,147.833 178.833,147.167 179.5,146.5C 180.107,146.624 180.44,146.957 180.5,147.5C 181.176,151.187 182.676,154.52 185,157.5C 186.069,154.792 187.236,152.125 188.5,149.5C 186.423,147.918 184.09,146.918 181.5,146.5C 179.871,144.804 180.204,143.804 182.5,143.5C 182.833,143.5 183.167,143.5 183.5,143.5C 185.258,143.877 186.925,144.544 188.5,145.5C 189.89,142.524 189.557,139.857 187.5,137.5C 186.833,134.167 184.833,132.167 181.5,131.5 Z M 181.5,171.5 C 181.841,168.484 183.007,165.818 185,163.5C 186.069,166.208 187.236,168.875 188.5,171.5C 186.345,171.838 184.011,171.838 181.5,171.5 Z M 190.5,151.5 C 194.719,152.92 196.719,155.92 196.5,160.5C 196.654,164.527 194.987,167.527 191.5,169.5C 189.894,166.622 188.561,163.622 187.5,160.5C 188.798,157.578 189.798,154.578 190.5,151.5 Z M 181.5,146.5 C 184.09,146.918 186.423,147.918 188.5,149.5C 187.236,152.125 186.069,154.792 185,157.5C 182.676,154.52 181.176,151.187 180.5,147.5C 181.167,147.5 181.5,147.167 181.5,146.5 Z M 188.5,175.5 C 190.464,182.06 188.13,186.56 181.5,189C 179.421,189.808 177.421,189.641 175.5,188.5C 176.942,185.95 178.108,183.284 179,180.5C 181.369,180.273 183.869,180.107 186.5,180C 188.037,178.89 188.703,177.39 188.5,175.5 Z M 141.5,180.5 C 142.547,181.078 142.38,181.744 141,182.5C 139.892,186.447 141.392,188.614 145.5,189C 139.875,190.021 135.541,188.187 132.5,183.5C 135.715,183.095 138.715,182.095 141.5,180.5 Z M 148.5,181.5 C 148.56,180.957 148.893,180.624 149.5,180.5C 152.329,181.747 154.995,183.247 157.5,185C 154.792,186.069 152.125,187.236 149.5,188.5C 149.669,186.236 149.336,183.903 148.5,181.5 Z M 170.5,180.5 C 172.086,180.693 173.753,181.027 175.5,181.5C 174.42,183.996 173.086,186.33 171.5,188.5C 168.716,187.608 166.05,186.442 163.5,185C 165.898,183.476 168.231,181.976 170.5,180.5 Z M 159.5,187.5 C 162.899,188.634 166.232,189.967 169.5,191.5C 166.331,196.118 161.998,197.618 156.5,196C 154.545,195.047 152.878,193.713 151.5,192C 154.099,190.205 156.766,188.705 159.5,187.5 Z"/></g>
<g><path style="opacity:0.973" fill="#191720" d="M 141.5,171.5 C 141.785,173.288 141.452,174.955 140.5,176.5C 138.22,175.298 135.886,174.298 133.5,173.5C 133.629,161.348 136.295,160.681 141.5,171.5 Z"/></g>
<g><path style="opacity:1" fill="#728654" d="M 146.5,166.5 C 148.366,167.014 150.2,167.68 152,168.5C 154.154,167.726 156.321,167.059 158.5,166.5C 158.461,167.583 158.127,168.583 157.5,169.5C 158.853,170.524 159.52,171.857 159.5,173.5C 159.5,174.167 159.5,174.833 159.5,175.5C 153.263,175.217 148.93,172.217 146.5,166.5 Z"/></g>
<g><path style="opacity:1" fill="#5d7b84" d="M 158.5,166.5 C 159.552,166.351 160.552,166.517 161.5,167C 160.446,168.388 160.28,169.888 161,171.5C 161.483,170.552 161.649,169.552 161.5,168.5C 162.873,168.343 164.207,168.51 165.5,169C 166.078,170.417 167.078,171.25 168.5,171.5C 166.001,174.248 164.501,173.581 164,169.5C 163.124,171.635 161.624,172.969 159.5,173.5C 159.52,171.857 158.853,170.524 157.5,169.5C 158.127,168.583 158.461,167.583 158.5,166.5 Z"/></g>
<g><path style="opacity:1" fill="#655fa2" d="M 168.5,171.5 C 168.833,171.5 169.167,171.5 169.5,171.5C 167.187,174.917 163.854,176.251 159.5,175.5C 159.5,174.833 159.5,174.167 159.5,173.5C 161.624,172.969 163.124,171.635 164,169.5C 164.501,173.581 166.001,174.248 168.5,171.5 Z"/></g>
<g><path style="opacity:0.992" fill="#983162" d="M 58.5,170.5 C 63.709,173.388 69.3757,175.221 75.5,176C 85.1165,177.462 94.7831,178.462 104.5,179C 98.5092,179.499 92.5092,179.666 86.5,179.5C 65.1808,177.17 46.1808,169.337 29.5,156C 29.8333,155.833 30.1667,155.667 30.5,155.5C 38.9084,162.245 48.2418,167.245 58.5,170.5 Z"/></g>
<g><path style="opacity:0.043" fill="#41241b" d="M 143.5,173.5 C 144.962,174.458 146.295,175.624 147.5,177C 144.51,177.847 143.176,176.68 143.5,173.5 Z"/></g>
<g><path style="opacity:0.212" fill="#521538" d="M 51.5,179.5 C 49.6102,181.195 47.2769,181.528 44.5,180.5C 42.6115,179.396 40.9448,178.063 39.5,176.5C 41.205,175.465 42.8716,175.465 44.5,176.5C 45.5,175.833 46.5,175.167 47.5,174.5C 48.8569,176.186 50.1902,177.852 51.5,179.5 Z"/></g>
<g><path style="opacity:0.439" fill="#311d20" d="M 141.5,180.5 C 138.715,182.095 135.715,183.095 132.5,183.5C 131.532,180.555 131.366,177.555 132,174.5C 135.559,176.178 138.725,178.178 141.5,180.5 Z"/></g>
<g><path style="opacity:0.827" fill="#b13069" d="M 62.5,188.5 C 60.6943,187.976 59.0276,187.309 57.5,186.5C 58.6016,184.908 57.935,184.075 55.5,184C 54.3595,183.259 54.3595,182.425 55.5,181.5C 54.2342,180.638 52.9008,179.971 51.5,179.5C 50.1902,177.852 48.8569,176.186 47.5,174.5C 46.5,175.167 45.5,175.833 44.5,176.5C 42.8716,175.465 41.205,175.465 39.5,176.5C 36.9906,175.079 34.6572,173.412 32.5,171.5C 34.3749,169.761 36.7082,168.761 39.5,168.5C 48.7068,173.435 58.3734,177.268 68.5,180C 65.8988,182.43 63.8988,185.264 62.5,188.5 Z"/></g>
<g><path style="opacity:0.047" fill="#1c0718" d="M 51.5,179.5 C 52.9008,179.971 54.2342,180.638 55.5,181.5C 54.3595,182.425 54.3595,183.259 55.5,184C 57.935,184.075 58.6016,184.908 57.5,186.5C 52.4776,185.82 48.1443,183.82 44.5,180.5C 47.2769,181.528 49.6102,181.195 51.5,179.5 Z"/></g>
<g><path style="opacity:0.518" fill="#6b273e" d="M 119.5,187.5 C 118.833,187.5 118.167,187.5 117.5,187.5C 113.665,187.583 110.665,186.083 108.5,183C 114.144,181.779 119.811,181.113 125.5,181C 122.5,181.833 119.5,182.667 116.5,183.5C 117.908,184.243 119.241,185.077 120.5,186C 119.944,186.383 119.611,186.883 119.5,187.5 Z"/></g>
<g><path style="opacity:0.773" fill="#882c4d" d="M 88.5,182.5 C 92.9819,183.326 97.6486,183.826 102.5,184C 100.618,184.198 98.9516,184.698 97.5,185.5C 95.4884,184.986 93.4884,184.82 91.5,185C 88.3659,186.589 85.3659,188.422 82.5,190.5C 80.4689,189.461 79.1355,187.795 78.5,185.5C 77.109,186.645 75.7757,186.645 74.5,185.5C 77.028,184.184 77.028,183.017 74.5,182C 79.1609,181.831 83.8276,181.997 88.5,182.5 Z"/></g>
<g><path style="opacity:0.597" fill="#e57019" d="M 143.5,193.5 C 144.5,193.5 145.5,193.5 146.5,193.5C 146.5,194.5 146.5,195.5 146.5,196.5C 145.5,196.5 144.5,196.5 143.5,196.5C 143.5,195.5 143.5,194.5 143.5,193.5 Z"/></g>
<g><path style="opacity:0.998" fill="#e67519" d="M 138.5,199.5 C 137.5,199.5 136.5,199.5 135.5,199.5C 133.188,196.991 133.855,194.991 137.5,193.5C 138.5,194.833 139.5,196.167 140.5,197.5C 139.757,198.182 139.091,198.849 138.5,199.5 Z"/></g>
</svg>
