<svg width="200" height="200" viewBox="0 0 200 200" fill="none" xmlns="http://www.w3.org/2000/svg">
<rect width="200" height="200" rx="100" fill="black"/>
<path d="M99.2245 70.2495C101.956 65.1782 104.493 60.497 107.224 55.8157C107.42 55.4256 107.81 54.8405 108.005 54.4504C109.176 51.7196 111.127 50.5494 114.054 49.9642C122.249 48.5989 130.444 47.0384 138.639 47.2335C139.029 47.2335 139.42 47.2335 139.81 47.2335C144.493 47.4285 145.078 47.8186 146.444 52.3048C149.371 61.8623 150.932 71.6149 152.493 81.3674C155.615 100.873 156.2 120.378 156.2 140.078C156.2 142.418 156.005 144.564 155.81 146.905C155.81 148.27 155.225 149.245 153.664 149.635C144.688 152.171 135.712 153.341 126.346 152.561C124.59 152.366 123.81 151.586 123.225 150.025C121.664 145.929 121.078 141.443 120.493 137.152C119.127 125.059 118.151 112.966 116.785 100.873C116.785 100.092 116.59 99.117 116.2 98.3368C111.322 102.238 106.639 105.944 101.956 109.65C99.4196 111.6 99.2245 111.6 96.883 109.65C92.5903 105.944 88.2976 102.043 83.8098 98.1418C83.0293 102.823 82.8342 107.309 82.444 111.795C81.4683 122.523 81.2732 133.446 79.1269 143.979C78.7366 145.929 78.3464 147.685 77.5659 149.635C76.5903 152.366 76.0049 152.756 73.2732 152.756C66.2488 152.951 59.6147 151.781 52.7854 150.611C50.639 150.22 47.9073 150.415 46.3463 148.855C44.7853 147.295 45.1756 144.564 44.9805 142.418C43.8097 132.666 43.8097 122.718 44.0049 112.771C44.5902 96.7765 46.3463 81.1724 49.078 65.3732C49.8585 60.692 50.8341 56.0108 51.8098 51.5246C52.2 49.9642 52.9805 49.184 54.5415 48.5988C56.6878 47.8186 59.0293 47.6236 61.1756 47.4285C68.9805 47.2335 76.5903 48.2088 84.0049 49.9642C86.7367 50.5494 88.6879 51.9147 90.0537 54.4504C92.7854 59.5217 95.9074 64.593 99.2245 70.2495Z" fill="white"/>
</svg>
