<svg xmlns="http://www.w3.org/2000/svg" xmlns:xlink="http://www.w3.org/1999/xlink" viewBox="0 0 200 200"><defs><style>.cls-1,.cls-7,.cls-88{fill:#fff;}.cls-109,.cls-120,.cls-121,.cls-122,.cls-123,.cls-124,.cls-125,.cls-126,.cls-127,.cls-128,.cls-129,.cls-130,.cls-131,.cls-132,.cls-133,.cls-14,.cls-140,.cls-15,.cls-19,.cls-2,.cls-64,.cls-75,.cls-96,.cls-97{fill:none;}.cls-10,.cls-100,.cls-101,.cls-102,.cls-103,.cls-104,.cls-106,.cls-107,.cls-108,.cls-109,.cls-11,.cls-110,.cls-111,.cls-113,.cls-114,.cls-115,.cls-117,.cls-118,.cls-119,.cls-12,.cls-134,.cls-135,.cls-136,.cls-14,.cls-141,.cls-15,.cls-16,.cls-17,.cls-18,.cls-19,.cls-2,.cls-20,.cls-21,.cls-22,.cls-23,.cls-24,.cls-25,.cls-26,.cls-27,.cls-28,.cls-29,.cls-30,.cls-31,.cls-32,.cls-33,.cls-34,.cls-35,.cls-36,.cls-37,.cls-38,.cls-39,.cls-40,.cls-41,.cls-42,.cls-43,.cls-44,.cls-45,.cls-46,.cls-47,.cls-48,.cls-49,.cls-50,.cls-51,.cls-53,.cls-54,.cls-55,.cls-57,.cls-58,.cls-59,.cls-6,.cls-61,.cls-62,.cls-64,.cls-65,.cls-66,.cls-68,.cls-69,.cls-7,.cls-70,.cls-71,.cls-72,.cls-73,.cls-74,.cls-75,.cls-76,.cls-78,.cls-79,.cls-80,.cls-81,.cls-82,.cls-83,.cls-84,.cls-85,.cls-86,.cls-87,.cls-88,.cls-89,.cls-9,.cls-90,.cls-91,.cls-92,.cls-93,.cls-94,.cls-95,.cls-96,.cls-97,.cls-98,.cls-99{stroke:#122950;}.cls-2{stroke-width:0.34px;}.cls-3{fill:url(#linear-gradient);}.cls-4{fill:url(#linear-gradient-2);}.cls-108,.cls-5,.cls-90{fill:#122950;}.cls-10,.cls-11,.cls-12,.cls-15,.cls-6,.cls-7,.cls-9{stroke-width:0.54px;}.cls-6{fill:url(#linear-gradient-3);}.cls-8{fill:url(#linear-gradient-4);}.cls-9{fill:url(#linear-gradient-5);}.cls-10{fill:url(#linear-gradient-6);}.cls-11{fill:url(#linear-gradient-7);}.cls-12{fill:url(#linear-gradient-8);}.cls-13{fill:url(#linear-gradient-9);}.cls-14{stroke-width:0.47px;}.cls-16,.cls-17,.cls-18,.cls-19,.cls-20,.cls-21,.cls-23,.cls-24,.cls-25,.cls-26,.cls-27,.cls-28,.cls-30,.cls-32,.cls-33,.cls-34,.cls-35,.cls-36,.cls-38{stroke-width:0.93px;}.cls-16{fill:url(#linear-gradient-10);}.cls-17{fill:url(#linear-gradient-11);}.cls-18{fill:url(#linear-gradient-12);}.cls-20{fill:url(#linear-gradient-13);}.cls-21{fill:url(#linear-gradient-14);}.cls-22,.cls-29,.cls-31,.cls-37,.cls-39{stroke-width:0.7px;}.cls-22{fill:url(#linear-gradient-15);}.cls-23{fill:url(#linear-gradient-16);}.cls-24{fill:url(#linear-gradient-17);}.cls-25{fill:url(#linear-gradient-18);}.cls-26{fill:url(#linear-gradient-19);}.cls-27{fill:url(#linear-gradient-20);}.cls-28{fill:url(#linear-gradient-21);}.cls-29{fill:url(#linear-gradient-22);}.cls-30{fill:url(#linear-gradient-23);}.cls-31{fill:url(#linear-gradient-24);}.cls-32{fill:url(#linear-gradient-25);}.cls-33{fill:url(#linear-gradient-26);}.cls-34{fill:url(#linear-gradient-27);}.cls-35{fill:url(#linear-gradient-28);}.cls-36{fill:url(#linear-gradient-29);}.cls-37{fill:url(#linear-gradient-30);}.cls-38{fill:url(#linear-gradient-31);}.cls-39{fill:url(#linear-gradient-32);}.cls-100,.cls-101,.cls-102,.cls-103,.cls-104,.cls-106,.cls-110,.cls-111,.cls-113,.cls-114,.cls-117,.cls-118,.cls-119,.cls-120,.cls-40,.cls-41,.cls-42,.cls-43,.cls-44,.cls-45,.cls-46,.cls-47,.cls-48,.cls-49,.cls-50,.cls-51,.cls-53,.cls-54,.cls-55,.cls-57,.cls-58,.cls-59,.cls-61,.cls-62,.cls-64,.cls-65,.cls-66,.cls-98,.cls-99{stroke-width:0.44px;}.cls-40{fill:url(#linear-gradient-33);}.cls-41{fill:url(#linear-gradient-34);}.cls-42{fill:url(#linear-gradient-35);}.cls-43{fill:url(#linear-gradient-36);}.cls-44{fill:url(#linear-gradient-37);}.cls-45{fill:url(#linear-gradient-38);}.cls-46{fill:url(#linear-gradient-39);}.cls-47{fill:url(#linear-gradient-40);}.cls-48{fill:url(#linear-gradient-41);}.cls-49{fill:url(#linear-gradient-42);}.cls-50{fill:url(#linear-gradient-43);}.cls-51{fill:url(#linear-gradient-44);}.cls-52{fill:url(#linear-gradient-45);}.cls-53{fill:url(#linear-gradient-46);}.cls-54{fill:url(#linear-gradient-47);}.cls-55{fill:url(#linear-gradient-48);}.cls-56{fill:url(#linear-gradient-49);}.cls-57{fill:url(#linear-gradient-50);}.cls-58{fill:url(#linear-gradient-51);}.cls-59{fill:url(#linear-gradient-52);}.cls-60{fill:url(#linear-gradient-53);}.cls-61{fill:url(#linear-gradient-54);}.cls-62{fill:url(#linear-gradient-55);}.cls-63{fill:url(#linear-gradient-56);}.cls-65{fill:url(#linear-gradient-57);}.cls-66{fill:url(#linear-gradient-58);}.cls-67{fill:url(#linear-gradient-59);}.cls-68,.cls-69,.cls-70{stroke-width:0.7px;}.cls-68{fill:url(#linear-gradient-60);}.cls-69{fill:url(#linear-gradient-61);}.cls-70{fill:url(#linear-gradient-62);}.cls-71,.cls-72,.cls-73,.cls-93,.cls-94,.cls-95,.cls-96{stroke-width:0.39px;}.cls-71{fill:url(#linear-gradient-63);}.cls-72{fill:url(#linear-gradient-64);}.cls-73{fill:url(#linear-gradient-65);}.cls-141,.cls-74,.cls-78,.cls-79,.cls-80,.cls-81,.cls-82,.cls-83,.cls-84,.cls-85,.cls-86,.cls-87,.cls-88,.cls-89{stroke-width:0.62px;}.cls-74{fill:url(#linear-gradient-66);}.cls-134,.cls-135,.cls-136,.cls-75,.cls-76{stroke-width:0.37px;}.cls-76{fill:url(#linear-gradient-67);}.cls-77{fill:url(#linear-gradient-68);}.cls-78{fill:url(#linear-gradient-69);}.cls-79{fill:url(#linear-gradient-70);}.cls-80{fill:url(#linear-gradient-71);}.cls-81{fill:url(#linear-gradient-72);}.cls-82{fill:url(#linear-gradient-73);}.cls-83{fill:url(#linear-gradient-74);}.cls-84{fill:url(#linear-gradient-75);}.cls-85{fill:url(#linear-gradient-76);}.cls-86{fill:#d9d9d9;}.cls-87{fill:url(#linear-gradient-77);}.cls-89{fill:url(#linear-gradient-78);}.cls-90{stroke-width:0.86px;}.cls-91,.cls-92{stroke-width:0.77px;}.cls-91{fill:url(#linear-gradient-79);}.cls-92{fill:url(#linear-gradient-80);}.cls-93{fill:url(#linear-gradient-81);}.cls-94{fill:url(#linear-gradient-82);}.cls-95{fill:url(#linear-gradient-83);}.cls-97{stroke-linecap:round;stroke-width:0.3px;}.cls-98{fill:url(#linear-gradient-84);}.cls-99{fill:url(#linear-gradient-85);}.cls-100{fill:url(#linear-gradient-86);}.cls-101{fill:url(#linear-gradient-87);}.cls-102{fill:url(#linear-gradient-88);}.cls-103{fill:url(#linear-gradient-89);}.cls-104{fill:url(#linear-gradient-90);}.cls-105{fill:url(#linear-gradient-91);}.cls-106{fill:url(#linear-gradient-92);}.cls-107,.cls-109{stroke-width:0.55px;}.cls-107{fill:url(#linear-gradient-93);}.cls-108{stroke-width:0.33px;}.cls-110{fill:url(#linear-gradient-94);}.cls-111{fill:url(#linear-gradient-95);}.cls-112{fill:#5af1b0;}.cls-113{fill:url(#linear-gradient-96);}.cls-114{fill:url(#linear-gradient-97);}.cls-115{stroke-width:0.32px;fill:url(#linear-gradient-98);}.cls-116{fill:url(#linear-gradient-99);}.cls-117{fill:url(#linear-gradient-100);}.cls-118{fill:url(#linear-gradient-101);}.cls-119{fill:url(#linear-gradient-102);}.cls-120{stroke:#001e52;}.cls-121,.cls-122,.cls-123,.cls-124,.cls-125,.cls-127,.cls-128,.cls-129,.cls-131,.cls-132{stroke-width:0.56px;}.cls-121{stroke:url(#linear-gradient-103);}.cls-122{stroke:url(#linear-gradient-104);}.cls-123{stroke:url(#linear-gradient-105);}.cls-124{stroke:url(#linear-gradient-106);}.cls-125{stroke:url(#linear-gradient-107);}.cls-126{stroke-width:0.27px;stroke:url(#linear-gradient-108);}.cls-127{stroke:url(#linear-gradient-109);}.cls-128{stroke:url(#linear-gradient-110);}.cls-129{stroke:url(#linear-gradient-111);}.cls-130{stroke-width:0.33px;stroke:url(#linear-gradient-112);}.cls-131{stroke:url(#linear-gradient-113);}.cls-132{stroke:url(#linear-gradient-114);}.cls-133{stroke-width:0.27px;stroke:url(#linear-gradient-115);}.cls-134{fill:url(#linear-gradient-116);}.cls-135{fill:url(#linear-gradient-117);}.cls-136{fill:url(#linear-gradient-118);}.cls-137{fill:url(#linear-gradient-119);}.cls-138{fill:url(#linear-gradient-120);}.cls-139{fill:url(#linear-gradient-121);}.cls-140{stroke:#fff;stroke-width:0.38px;}.cls-141{fill:url(#linear-gradient-190);}</style><linearGradient id="linear-gradient" x1="31.84" y1="70.13" x2="32.8" y2="66.77" gradientTransform="matrix(1, 0, 0, -1, 0, 202)" gradientUnits="userSpaceOnUse"><stop offset="0" stop-color="#a2d4b9"/><stop offset="1" stop-color="#cbe2e1"/></linearGradient><linearGradient id="linear-gradient-2" x1="37.51" y1="66.89" x2="38.46" y2="63.57" xlink:href="#linear-gradient"/><linearGradient id="linear-gradient-3" x1="153.66" y1="129.49" x2="116.91" y2="116.82" gradientTransform="matrix(1, 0, 0, -1, 0, 202)" gradientUnits="userSpaceOnUse"><stop offset="0" stop-color="#449e7f"/><stop offset="1" stop-color="#2d7879"/></linearGradient><linearGradient id="linear-gradient-4" x1="119.38" y1="122.52" x2="110.62" y2="120.73" gradientTransform="matrix(1, 0, 0, -1, 0, 202)" gradientUnits="userSpaceOnUse"><stop offset="0" stop-color="#48b793"/><stop offset="1" stop-color="#29666c"/></linearGradient><linearGradient id="linear-gradient-5" x1="173.95" y1="104.36" x2="160.18" y2="102.03" xlink:href="#linear-gradient-3"/><linearGradient id="linear-gradient-6" x1="156.14" y1="141.76" x2="123.15" y2="129.35" xlink:href="#linear-gradient-3"/><linearGradient id="linear-gradient-7" x1="186.47" y1="127.37" x2="172.64" y2="123.39" gradientTransform="matrix(1, 0, 0, -1, 0, 202)" gradientUnits="userSpaceOnUse"><stop offset="0" stop-color="#0c3866"/><stop offset="1" stop-color="#276b76"/></linearGradient><linearGradient id="linear-gradient-8" x1="174.75" y1="156.5" x2="128.91" y2="135.48" xlink:href="#linear-gradient-3"/><linearGradient id="linear-gradient-9" x1="129.4" y1="171.67" x2="160.78" y2="131.29" gradientTransform="matrix(1, 0, 0, -1, 0, 202)" gradientUnits="userSpaceOnUse"><stop offset="0" stop-color="#012460"/><stop offset="1" stop-color="#2a7278"/></linearGradient><linearGradient id="linear-gradient-10" x1="129.46" y1="160.18" x2="120.73" y2="158.94" xlink:href="#linear-gradient-3"/><linearGradient id="linear-gradient-11" x1="139.13" y1="161.3" x2="132.35" y2="158.54" xlink:href="#linear-gradient-7"/><linearGradient id="linear-gradient-12" x1="134.63" y1="184.1" x2="123.33" y2="144.82" gradientTransform="matrix(1, 0, 0, -1, 0, 202)" gradientUnits="userSpaceOnUse"><stop offset="0" stop-color="#fffc8a"/><stop offset="1" stop-color="#45a17e"/></linearGradient><linearGradient id="linear-gradient-13" x1="119.88" y1="161.28" x2="126.97" y2="162.03" xlink:href="#linear-gradient-9"/><linearGradient id="linear-gradient-14" x1="123.69" y1="166.83" x2="120.31" y2="147.54" xlink:href="#linear-gradient-12"/><linearGradient id="linear-gradient-15" x1="131.34" y1="176.07" x2="131.12" y2="167.9" gradientTransform="matrix(1, 0, 0, -1, 0, 202)" gradientUnits="userSpaceOnUse"><stop offset="0" stop-color="#8cb6ac"/><stop offset="1" stop-color="#193d36"/></linearGradient><linearGradient id="linear-gradient-16" x1="134.82" y1="174.02" x2="127.93" y2="170.21" xlink:href="#linear-gradient-3"/><linearGradient id="linear-gradient-17" x1="146.96" y1="158.29" x2="138.12" y2="157.53" xlink:href="#linear-gradient-3"/><linearGradient id="linear-gradient-18" x1="157.41" y1="159.26" x2="149.27" y2="156.97" gradientTransform="matrix(1, 0, 0, -1, 0, 202)" gradientUnits="userSpaceOnUse"><stop offset="0.24" stop-color="#0c3866"/><stop offset="1" stop-color="#276b76"/></linearGradient><linearGradient id="linear-gradient-19" x1="152.06" y1="189.99" x2="140.76" y2="150.71" xlink:href="#linear-gradient-12"/><linearGradient id="linear-gradient-20" x1="137.31" y1="162.99" x2="144.4" y2="163.74" xlink:href="#linear-gradient-9"/><linearGradient id="linear-gradient-21" x1="141.12" y1="168.54" x2="137.74" y2="149.25" xlink:href="#linear-gradient-12"/><linearGradient id="linear-gradient-22" x1="148.77" y1="181.96" x2="148.55" y2="173.79" xlink:href="#linear-gradient-15"/><linearGradient id="linear-gradient-23" x1="152.25" y1="179.91" x2="145.36" y2="176.1" xlink:href="#linear-gradient-3"/><linearGradient id="linear-gradient-24" x1="157.93" y1="163.46" x2="153.81" y2="160.42" xlink:href="#linear-gradient-3"/><linearGradient id="linear-gradient-25" x1="165.33" y1="157.44" x2="156.46" y2="156.92" xlink:href="#linear-gradient-3"/><linearGradient id="linear-gradient-26" x1="178.52" y1="157.16" x2="169.82" y2="156.64" xlink:href="#linear-gradient-7"/><linearGradient id="linear-gradient-27" x1="170.42" y1="198.54" x2="159.12" y2="159.26" xlink:href="#linear-gradient-12"/><linearGradient id="linear-gradient-28" x1="162.09" y1="168.76" x2="158.7" y2="165.45" xlink:href="#linear-gradient-7"/><linearGradient id="linear-gradient-29" x1="159.6" y1="171.7" x2="156.22" y2="152.41" xlink:href="#linear-gradient-12"/><linearGradient id="linear-gradient-30" x1="167.13" y1="190.5" x2="166.91" y2="182.33" xlink:href="#linear-gradient-15"/><linearGradient id="linear-gradient-31" x1="170.6" y1="188.46" x2="163.72" y2="184.64" xlink:href="#linear-gradient-3"/><linearGradient id="linear-gradient-32" x1="176.29" y1="153.47" x2="172.17" y2="150.43" xlink:href="#linear-gradient-3"/><linearGradient id="linear-gradient-33" x1="61.54" y1="93.38" x2="61.54" y2="15.99" gradientTransform="matrix(1, 0, 0, -1, 0, 202)" gradientUnits="userSpaceOnUse"><stop offset="0" stop-color="#46d0b1"/><stop offset="1" stop-color="#2578d9"/></linearGradient><linearGradient id="linear-gradient-34" x1="82.11" y1="52.15" x2="82.11" y2="16.49" gradientTransform="matrix(1, 0, 0, -1, 0, 202)" gradientUnits="userSpaceOnUse"><stop offset="0" stop-color="#0057d3"/><stop offset="1" stop-color="#021a47"/></linearGradient><linearGradient id="linear-gradient-35" x1="80.7" y1="51.34" x2="80.7" y2="16.79" gradientTransform="matrix(1, 0, 0, -1, 0, 202)" gradientUnits="userSpaceOnUse"><stop offset="0" stop-color="#2668eb"/><stop offset="1" stop-color="#4bc9f0"/></linearGradient><linearGradient id="linear-gradient-36" x1="80.97" y1="43.1" x2="80.97" y2="26.26" gradientTransform="matrix(1, 0, 0, -1, 0, 202)" gradientUnits="userSpaceOnUse"><stop offset="0" stop-color="#2352b2"/><stop offset="1" stop-color="#012460"/></linearGradient><linearGradient id="linear-gradient-37" x1="81.04" y1="39.63" x2="81.04" y2="21.32" xlink:href="#linear-gradient-36"/><linearGradient id="linear-gradient-38" x1="62.63" y1="42.58" x2="63.91" y2="39.95" xlink:href="#linear-gradient-36"/><linearGradient id="linear-gradient-39" x1="97.11" y1="23.35" x2="98.38" y2="20.72" xlink:href="#linear-gradient-36"/><linearGradient id="linear-gradient-40" x1="34.53" y1="77.26" x2="34.53" y2="55.98" xlink:href="#linear-gradient-34"/><linearGradient id="linear-gradient-41" x1="33.85" y1="76.52" x2="33.85" y2="55.84" xlink:href="#linear-gradient-35"/><linearGradient id="linear-gradient-42" x1="24.65" y1="72.83" x2="27.86" y2="67.37" xlink:href="#linear-gradient-34"/><linearGradient id="linear-gradient-43" x1="23.46" y1="71.92" x2="26.49" y2="66.77" xlink:href="#linear-gradient-35"/><linearGradient id="linear-gradient-44" x1="26.15" y1="71.11" x2="26.15" y2="57.73" xlink:href="#linear-gradient-33"/><linearGradient id="linear-gradient-45" x1="26.57" y1="69.57" x2="26.57" y2="58.13" gradientTransform="matrix(1, 0, 0, -1, 0, 202)" gradientUnits="userSpaceOnUse"><stop offset="0" stop-color="#2668eb"/><stop offset="1" stop-color="#4bc9f0" stop-opacity="0"/></linearGradient><linearGradient id="linear-gradient-46" x1="31.64" y1="68.82" x2="34.85" y2="63.36" xlink:href="#linear-gradient-34"/><linearGradient id="linear-gradient-47" x1="30.46" y1="67.92" x2="33.48" y2="62.77" xlink:href="#linear-gradient-35"/><linearGradient id="linear-gradient-48" x1="33.15" y1="67.1" x2="33.15" y2="53.73" xlink:href="#linear-gradient-33"/><linearGradient id="linear-gradient-49" x1="33.57" y1="65.55" x2="33.57" y2="54.12" xlink:href="#linear-gradient-45"/><linearGradient id="linear-gradient-50" x1="38.9" y1="64.67" x2="42.11" y2="59.21" xlink:href="#linear-gradient-34"/><linearGradient id="linear-gradient-51" x1="37.71" y1="63.77" x2="40.74" y2="58.62" xlink:href="#linear-gradient-35"/><linearGradient id="linear-gradient-52" x1="40.4" y1="62.95" x2="40.4" y2="49.57" xlink:href="#linear-gradient-33"/><linearGradient id="linear-gradient-53" x1="40.83" y1="61.45" x2="40.83" y2="50.02" xlink:href="#linear-gradient-45"/><linearGradient id="linear-gradient-54" x1="126" y1="74.43" x2="158.12" y2="26.31" gradientTransform="matrix(1, 0, 0, -1, 0, 202)" gradientUnits="userSpaceOnUse"><stop offset="0" stop-color="#277dd7"/><stop offset="1" stop-color="#021a47"/></linearGradient><linearGradient id="linear-gradient-55" x1="96.13" y1="137.81" x2="96.13" y2="43.68" xlink:href="#linear-gradient-34"/><linearGradient id="linear-gradient-56" x1="95.21" y1="129.45" x2="95.21" y2="78.14" gradientTransform="matrix(1, 0, 0, -1, 0, 202)" gradientUnits="userSpaceOnUse"><stop offset="0" stop-color="#5b203b"/><stop offset="1" stop-color="#fe94a2"/></linearGradient><linearGradient id="linear-gradient-57" x1="46.86" y1="135.18" x2="46.86" y2="97.77" xlink:href="#linear-gradient-35"/><linearGradient id="linear-gradient-58" x1="41.79" y1="119.95" x2="41.79" y2="94.45" xlink:href="#linear-gradient-35"/><linearGradient id="linear-gradient-59" x1="29.97" y1="116.57" x2="29.97" y2="100.01" xlink:href="#linear-gradient-34"/><linearGradient id="linear-gradient-60" x1="75.39" y1="114.19" x2="71.62" y2="113.41" gradientTransform="matrix(1, 0, 0, -1, 0, 202)" gradientUnits="userSpaceOnUse"><stop offset="0" stop-color="#a2d4b9"/><stop offset="1" stop-color="#fff"/></linearGradient><linearGradient id="linear-gradient-61" x1="75.1" y1="123.51" x2="71.33" y2="122.73" xlink:href="#linear-gradient-60"/><linearGradient id="linear-gradient-62" x1="57.71" y1="113.83" x2="53.95" y2="113.05" xlink:href="#linear-gradient-60"/><linearGradient id="linear-gradient-63" x1="32.34" y1="125.32" x2="39.9" y2="125.04" xlink:href="#linear-gradient-3"/><linearGradient id="linear-gradient-64" x1="32.8" y1="164.87" x2="39.81" y2="162.75" xlink:href="#linear-gradient-3"/><linearGradient id="linear-gradient-65" x1="74.4" y1="144.7" x2="79.58" y2="144.56" xlink:href="#linear-gradient-3"/><linearGradient id="linear-gradient-66" x1="41.26" y1="152.93" x2="109.45" y2="95.78" xlink:href="#linear-gradient-12"/><linearGradient id="linear-gradient-67" x1="54.11" y1="123.06" x2="66.01" y2="116.91" xlink:href="#linear-gradient-3"/><linearGradient id="linear-gradient-68" x1="-1159.11" y1="203.43" x2="-1153.17" y2="194.73" gradientTransform="translate(-1094.6 279.52) rotate(180)" xlink:href="#linear-gradient-9"/><linearGradient id="linear-gradient-69" x1="51.98" y1="140.04" x2="67.76" y2="137.71" gradientTransform="matrix(1, 0, 0, -1, 0, 202)" gradientUnits="userSpaceOnUse"><stop offset="0" stop-color="#449e7f"/><stop offset="1" stop-color="#2d7879" stop-opacity="0"/></linearGradient><linearGradient id="linear-gradient-70" x1="63.76" y1="162.18" x2="57.36" y2="150.39" xlink:href="#linear-gradient-9"/><linearGradient id="linear-gradient-71" x1="52.74" y1="162.81" x2="66.89" y2="156.53" xlink:href="#linear-gradient-3"/><linearGradient id="linear-gradient-72" x1="66.7" y1="168.68" x2="56.41" y2="156" xlink:href="#linear-gradient-9"/><linearGradient id="linear-gradient-73" x1="53.42" y1="165.8" x2="66.3" y2="160.18" xlink:href="#linear-gradient-3"/><linearGradient id="linear-gradient-74" x1="53.96" y1="153.03" x2="56.98" y2="141.54" xlink:href="#linear-gradient-15"/><linearGradient id="linear-gradient-75" x1="50.3" y1="155.63" x2="51.91" y2="140.95" gradientTransform="matrix(1, 0, 0, -1, 0, 202)" gradientUnits="userSpaceOnUse"><stop offset="0" stop-color="#a1cdc3"/><stop offset="1" stop-color="#6d938a"/></linearGradient><linearGradient id="linear-gradient-76" x1="51.75" y1="158.39" x2="51.88" y2="153.73" xlink:href="#linear-gradient-15"/><linearGradient id="linear-gradient-77" x1="46.54" y1="153" x2="60.53" y2="142.55" xlink:href="#linear-gradient-12"/><linearGradient id="linear-gradient-78" x1="55.73" y1="176.42" x2="56.37" y2="167.47" xlink:href="#linear-gradient-75"/><linearGradient id="linear-gradient-79" x1="58.84" y1="166.43" x2="62.21" y2="165.97" xlink:href="#linear-gradient-3"/><linearGradient id="linear-gradient-80" x1="64.31" y1="172.2" x2="59.2" y2="170.42" xlink:href="#linear-gradient-9"/><linearGradient id="linear-gradient-81" x1="42.72" y1="126.18" x2="45.81" y2="126.13" xlink:href="#linear-gradient-7"/><linearGradient id="linear-gradient-82" x1="81.89" y1="149.78" x2="84.95" y2="149.73" xlink:href="#linear-gradient-7"/><linearGradient id="linear-gradient-83" x1="42.06" y1="182.49" x2="72.07" y2="170.69" xlink:href="#linear-gradient-3"/><linearGradient id="linear-gradient-84" x1="65.59" y1="116.57" x2="96.54" y2="101.46" xlink:href="#linear-gradient-9"/><linearGradient id="linear-gradient-85" x1="91.75" y1="111.62" x2="71.12" y2="108.45" xlink:href="#linear-gradient-3"/><linearGradient id="linear-gradient-86" x1="118.48" y1="105.63" x2="72.12" y2="113.46" gradientTransform="matrix(1, 0, 0, -1, 0, 202)" gradientUnits="userSpaceOnUse"><stop offset="0" stop-color="#0f243a"/><stop offset="1" stop-color="#265a66"/></linearGradient><linearGradient id="linear-gradient-87" x1="94.51" y1="124.44" x2="74.26" y2="91.08" xlink:href="#linear-gradient-15"/><linearGradient id="linear-gradient-88" x1="88.24" y1="108.11" x2="120.69" y2="87.4" xlink:href="#linear-gradient-9"/><linearGradient id="linear-gradient-89" x1="104.58" y1="131.01" x2="105.98" y2="85.57" gradientTransform="matrix(1, 0, 0, -1, 0, 202)" gradientUnits="userSpaceOnUse"><stop offset="0" stop-color="#3f957e"/><stop offset="1" stop-color="#2e797a" stop-opacity="0"/></linearGradient><linearGradient id="linear-gradient-90" x1="88.71" y1="79.63" x2="105.22" y2="70.73" xlink:href="#linear-gradient-9"/><linearGradient id="linear-gradient-91" x1="109.86" y1="74.92" x2="99.87" y2="76.52" gradientTransform="matrix(1, 0, 0, -1, 0, 202)" gradientUnits="userSpaceOnUse"><stop offset="0.13" stop-color="#122950"/><stop offset="0.66" stop-color="#122950" stop-opacity="0"/></linearGradient><linearGradient id="linear-gradient-92" x1="95.62" y1="84.71" x2="75.07" y2="80.29" xlink:href="#linear-gradient-3"/><linearGradient id="linear-gradient-93" x1="102.14" y1="77.21" x2="99.41" y2="71.87" xlink:href="#linear-gradient-56"/><linearGradient id="linear-gradient-94" x1="75.9" y1="98.68" x2="86.4" y2="72.43" gradientTransform="matrix(1, 0, 0, -1, 0, 202)" gradientUnits="userSpaceOnUse"><stop offset="0" stop-color="#00266a"/><stop offset="1" stop-color="#081730"/></linearGradient><linearGradient id="linear-gradient-95" x1="70.96" y1="90.12" x2="90.14" y2="77.8" xlink:href="#linear-gradient-9"/><linearGradient id="linear-gradient-96" x1="133.03" y1="87.41" x2="112.17" y2="84.17" xlink:href="#linear-gradient-3"/><linearGradient id="linear-gradient-97" x1="108.25" y1="91.14" x2="137.65" y2="77.27" xlink:href="#linear-gradient-9"/><linearGradient id="linear-gradient-98" x1="115.29" y1="90.59" x2="136.64" y2="80.51" gradientTransform="matrix(1, 0, 0, -1, 0, 202)" gradientUnits="userSpaceOnUse"><stop offset="0" stop-color="#011a45"/><stop offset="1" stop-color="#1c565a"/></linearGradient><linearGradient id="linear-gradient-99" x1="131.58" y1="30.5" x2="131.58" y2="17.44" xlink:href="#linear-gradient-34"/><linearGradient id="linear-gradient-100" x1="139.96" y1="88" x2="139.96" y2="56.36" xlink:href="#linear-gradient-35"/><linearGradient id="linear-gradient-101" x1="133.87" y1="57" x2="160.77" y2="32.38" gradientTransform="matrix(1, 0, 0, -1, 0, 202)" gradientUnits="userSpaceOnUse"><stop offset="0" stop-color="#3b96f4"/><stop offset="1" stop-color="#021a47"/></linearGradient><linearGradient id="linear-gradient-102" x1="128.49" y1="74.55" x2="128.49" y2="14.15" xlink:href="#linear-gradient-35"/><linearGradient id="linear-gradient-103" x1="189.38" y1="167.44" x2="187.15" y2="166.88" xlink:href="#linear-gradient-3"/><linearGradient id="linear-gradient-104" x1="186.33" y1="178.1" x2="184.82" y2="177.72" xlink:href="#linear-gradient-3"/><linearGradient id="linear-gradient-105" x1="99.29" y1="145.14" x2="97.78" y2="144.76" xlink:href="#linear-gradient-3"/><linearGradient id="linear-gradient-106" x1="92.42" y1="142.6" x2="90.15" y2="141.99" xlink:href="#linear-gradient-3"/><linearGradient id="linear-gradient-107" x1="111.68" y1="174.62" x2="109.4" y2="174.01" xlink:href="#linear-gradient-3"/><linearGradient id="linear-gradient-108" x1="25.59" y1="128.13" x2="24.48" y2="127.83" xlink:href="#linear-gradient-3"/><linearGradient id="linear-gradient-109" x1="23.17" y1="142.05" x2="21.37" y2="140.26" xlink:href="#linear-gradient-3"/><linearGradient id="linear-gradient-110" x1="190.95" y1="151.17" x2="189.15" y2="149.38" xlink:href="#linear-gradient-3"/><linearGradient id="linear-gradient-111" x1="92.26" y1="181.78" x2="90.46" y2="179.99" xlink:href="#linear-gradient-3"/><linearGradient id="linear-gradient-112" x1="15.08" y1="106" x2="14.01" y2="104.94" xlink:href="#linear-gradient-3"/><linearGradient id="linear-gradient-113" x1="109.31" y1="165.24" x2="108.18" y2="164.11" xlink:href="#linear-gradient-3"/><linearGradient id="linear-gradient-114" x1="28.45" y1="187.37" x2="25.95" y2="186.71" xlink:href="#linear-gradient-3"/><linearGradient id="linear-gradient-115" x1="44.53" y1="188.82" x2="43.32" y2="188.49" xlink:href="#linear-gradient-3"/><linearGradient id="linear-gradient-116" x1="127.55" y1="94.82" x2="136.98" y2="89.36" xlink:href="#linear-gradient-9"/><linearGradient id="linear-gradient-117" x1="133.43" y1="85.81" x2="129.09" y2="85.45" xlink:href="#linear-gradient-3"/><linearGradient id="linear-gradient-118" x1="138.93" y1="80.79" x2="135.39" y2="80.35" xlink:href="#linear-gradient-3"/><linearGradient id="linear-gradient-119" x1="104.8" y1="104.92" x2="92.77" y2="109.18" xlink:href="#linear-gradient-3"/><linearGradient id="linear-gradient-120" x1="97.94" y1="169.12" x2="98.29" y2="159.62" gradientTransform="matrix(1, 0, 0, -1, 0, 202)" gradientUnits="userSpaceOnUse"><stop offset="0" stop-color="#43e1c5"/><stop offset="1" stop-color="#4bafa6"/></linearGradient><linearGradient id="linear-gradient-121" x1="15.7" y1="174.83" x2="16.05" y2="165.33" gradientTransform="matrix(1, 0, 0, -1, 0, 202)" gradientUnits="userSpaceOnUse"><stop offset="0" stop-color="#010204"/><stop offset="1"/></linearGradient><linearGradient id="linear-gradient-190" x1="52.02" y1="133.3" x2="67.8" y2="130.97" xlink:href="#linear-gradient-69"/></defs><g id="Layer_2" data-name="Layer 2"><g id="Layer_1-2" data-name="Layer 1"><rect class="cls-1" width="200" height="200"/><path class="cls-2" d="M114.88,107.24l-3-1.84"/><path class="cls-3" d="M31.61,133.1c.17-.71,1.83-1.48,1.83-1.48a7.33,7.33,0,0,1-.12,1l-.69.26s0,5.85,0,6.53,2.86-1.66,2.86-1.66l.79.52s-2.84,2.76-4.15,2.13l-.52-.22S31.44,133.8,31.61,133.1Z"/><path class="cls-4" d="M37.24,136.34c.18-.71,1.84-1.48,1.84-1.48a6.79,6.79,0,0,1-.13,1l-.68.25s0,5.81,0,6.49S41.13,141,41.13,141l.74.43s-2.87,2.77-4.19,2.13l-.34-.17S37.07,137.05,37.24,136.34Z"/><path class="cls-5" d="M21.09,128l112.52-4.39,38.75-28.32,13,6.54c4.75,4,1.71,7.34,1.71,7.34l-18,11c-4.45,2.22,1.3,3.39,1.3,3.39l3.37,11.86L184,143.22a2.67,2.67,0,0,1-.19,4.39L160.9,162,172,168.84a1.64,1.64,0,0,1,0,2.79l-34.62,20.93a6.81,6.81,0,0,1-6.91.09l-10.83-6.17-6.89,3.63c-5.41,3.49-11.35.6-11.35.6l-88.5-51.4c-3.56-3.56,0-6.15,0-6.15Z"/><path class="cls-6" d="M109.5,59.77l0,0v0l.84-3.69,55.14,30.89v3.34l-1,1.58L156.41,103l-55-31.28Z"/><path class="cls-7" d="M109.51,59.77l0,0v0l.84-3.69,55.13,30.89v3.34l-1,1.58L161.68,96,106.35,64.51Z"/><path class="cls-8" d="M110.66,56.18,165.79,87v3l-4,5.89-55.2-31.56,3.17-4.65Z"/><path class="cls-9" d="M161.69,95.89l0,0,0,0L166,86.48l11.19-4.32v5.31l-15.69,27.21-6-11Z"/><path class="cls-10" d="M110.18,55.6h0l0,0-.09-.07-.34-.3a5.26,5.26,0,0,1-.92-1.26,1.74,1.74,0,0,1-.16-.56,8.07,8.07,0,0,1-.08-.94c0-.72,0-1.57,0-2.39s.1-1.6.15-2.17c0-.21,0-.39,0-.53L165,80.09l0,0h0l2.28.56v6.06h-.08c-.21,0-.5,0-.83,0a7.36,7.36,0,0,1-2.13-.3h0l-.05,0-.17-.08-.55-.29-1.89-1c-1.57-.87-3.75-2.1-6.32-3.56-5.14-2.91-11.86-6.76-18.54-10.59s-13.32-7.65-18.29-10.51l-6-3.45-1.68-1-.44-.25-.11-.07Z"/><path class="cls-11" d="M167.27,86.75V80.62l23-13.93v7l0,.1c0,.1-.11.23-.19.38a2.38,2.38,0,0,1-.66.81c-.15.11-1.35.84-3.11,1.89s-4,2.4-6.37,3.76-4.69,2.72-6.58,3.77c-.94.53-1.76,1-2.41,1.32a11.25,11.25,0,0,1-1.28.61,9.33,9.33,0,0,1-2,.42Z"/><path class="cls-12" d="M189.6,67.46,168.33,80.1a3.7,3.7,0,0,1-3.66.05l-55-30.7a2,2,0,0,1,0-3.55l19.52-11.13a5.28,5.28,0,0,1,5.1-.08l55.29,29.22A2,2,0,0,1,189.6,67.46Z"/><path class="cls-13" d="M130.53,36.59a4.83,4.83,0,0,1,4.65-.06L186,63.59a2,2,0,0,1,.09,3.48L167.69,78a3.39,3.39,0,0,1-3.4,0L113.67,49.69a2,2,0,0,1,0-3.48Z"/><path class="cls-14" d="M186,66.86,167.57,77.79a3.18,3.18,0,0,1-3.17,0L113.78,49.48a1.76,1.76,0,0,1,0-3.06l16.88-9.62a4.57,4.57,0,0,1,4.42-.06l50.82,27.05A1.76,1.76,0,0,1,186,66.86Z"/><path class="cls-15" d="M172.9,84.54,166.61,94a1,1,0,0,0,.43,1.4l.77.33a1,1,0,0,1,.41,1.42l-7.12,10.13"/><path class="cls-5" d="M167.3,74.91l13.11-5.55h.89l-9.56,6.06Z"/><path class="cls-5" d="M149,64.83l14-6h.9l-8.71,7.05Z"/><path class="cls-5" d="M131.73,55.18l14-6h.9l-8.71,7Z"/><path class="cls-16" d="M118.81,47.43l-.66-16.85,12.65,2.21.4,21.62Z"/><path class="cls-17" d="M132.13,54.54l-.58-21.75L144.36,31V49.53Z"/><path class="cls-18" d="M133,22.72l10.8,6a1.16,1.16,0,0,1,0,2l-10.16,5.69a4.91,4.91,0,0,1-4.81,0l-10.22-5.72a1.16,1.16,0,0,1,0-2l10.21-5.94A4.23,4.23,0,0,1,133,22.72Z"/><path class="cls-19" d="M128.25,41.9,132,43.39a1.44,1.44,0,0,0,1.2-.08l3.49-2a1.39,1.39,0,0,1,2.08,1.21v9.63"/><path class="cls-20" d="M122.41,35.91h0a5.88,5.88,0,0,0-2.12,1.41,1.17,1.17,0,0,0-.27,1.09,4.12,4.12,0,0,0,.74,1.36c.12.17.27.36.42.55.27.36.56.74.81,1.12a10.8,10.8,0,0,1,.87,1.68l.09.21a4.38,4.38,0,0,0,.79,1.33,1.18,1.18,0,0,0,1.15.27,8,8,0,0,0,2.74-1.34Zm0,0,0,0m0,0,0,0m0,0a2.38,2.38,0,0,1,2.3,0,6.32,6.32,0,0,1,2.6,2.3,6.45,6.45,0,0,1,1.14,3.28m-6-5.59,6,5.59m0,0a2.39,2.39,0,0,1-.88,2.13Z"/><path class="cls-21" d="M125.12,39.61A6.43,6.43,0,0,1,126,43a2.06,2.06,0,0,1-3.35,1.83,6.88,6.88,0,0,1-3.23-5.89,2.38,2.38,0,0,1,1.06-2,2.35,2.35,0,0,1,2.29.21A6.27,6.27,0,0,1,125.12,39.61Z"/><path class="cls-22" d="M138.23,29a3.37,3.37,0,0,1-2,2.74,10.94,10.94,0,0,1-10,0,3.37,3.37,0,0,1-2-2.74,3.39,3.39,0,0,1,2-2.74,10.94,10.94,0,0,1,10,0A3.39,3.39,0,0,1,138.23,29Z"/><path class="cls-23" d="M137.65,30.08c0,.6-.56,1.3-1.81,1.87a13.06,13.06,0,0,1-9.63,0c-1.25-.57-1.81-1.27-1.81-1.87s.56-1.31,1.81-1.88a13.19,13.19,0,0,1,9.63,0C137.09,28.77,137.65,29.47,137.65,30.08Z"/><path class="cls-24" d="M136.24,57.17l-.67-33.08,12.65,2.21.42,37.86Z"/><path class="cls-25" d="M149.57,64.27,149,25.79,161.79,24V59.27Z"/><path class="cls-26" d="M150.45,16.83l10.8,6a1.16,1.16,0,0,1,0,2l-10.16,5.69a4.91,4.91,0,0,1-4.81,0l-10.22-5.72a1.16,1.16,0,0,1,0-2l10.21-5.94A4.23,4.23,0,0,1,150.45,16.83Z"/><path class="cls-19" d="M145.68,39.68l3.75,1.49a1.42,1.42,0,0,0,1.21-.08l3.49-2a1.39,1.39,0,0,1,2.08,1.21V61.91"/><path class="cls-27" d="M139.84,34.2h0a5.74,5.74,0,0,0-2.12,1.42,1.14,1.14,0,0,0-.27,1.08,4,4,0,0,0,.74,1.36l.42.56c.27.35.56.73.81,1.11a10.45,10.45,0,0,1,.87,1.69l.09.2a4.26,4.26,0,0,0,.79,1.33,1.17,1.17,0,0,0,1.15.27A8,8,0,0,0,145,41.89Zm0,0,0,0m0,0,0,0m0,0a2.38,2.38,0,0,1,2.3,0,6.35,6.35,0,0,1,2.6,2.31,6.28,6.28,0,0,1,1.13,3.28m-6-5.59,6,5.59m0,0a2.34,2.34,0,0,1-.87,2.12Z"/><path class="cls-28" d="M142.55,37.91a6.3,6.3,0,0,1,.85,3.36,2.07,2.07,0,0,1-3.35,1.84,6.45,6.45,0,0,1-2.39-2.53,6.38,6.38,0,0,1-.84-3.36,2.07,2.07,0,0,1,3.35-1.84A6.3,6.3,0,0,1,142.55,37.91Z"/><path class="cls-29" d="M155.66,23.14a3.36,3.36,0,0,1-2,2.74,10.91,10.91,0,0,1-10,0,3.37,3.37,0,0,1-2-2.74,3.39,3.39,0,0,1,2-2.74,10.91,10.91,0,0,1,10,0A3.39,3.39,0,0,1,155.66,23.14Z"/><path class="cls-30" d="M155.08,24.19c0,.6-.56,1.3-1.81,1.87a13.19,13.19,0,0,1-9.63,0c-1.25-.57-1.81-1.27-1.81-1.87s.56-1.31,1.81-1.88a13.19,13.19,0,0,1,9.63,0C154.52,22.88,155.08,23.58,155.08,24.19Z"/><path class="cls-31" d="M159.25,38.85a3.85,3.85,0,0,1-7.17,2.73,3.85,3.85,0,0,1,7.17-2.73Z"/><path class="cls-32" d="M154.59,67.16l-.67-51.61,12.65,2.21L167,74.15Z"/><path class="cls-33" d="M167.93,74.26l-.6-56.5L180.15,16v53.3Z"/><path class="cls-34" d="M168.81,8.29l10.8,6a1.17,1.17,0,0,1,0,2L169.45,22a4.91,4.91,0,0,1-4.81,0l-10.22-5.73a1.16,1.16,0,0,1,0-2l10.21-5.94A4.23,4.23,0,0,1,168.81,8.29Z"/><path class="cls-19" d="M163.25,34.61,167,36.1a1.44,1.44,0,0,0,1.2-.08l3.49-2a1.39,1.39,0,0,1,2.08,1.21V72.3"/><path class="cls-35" d="M158.15,31h0A5.83,5.83,0,0,0,156,32.47a1.17,1.17,0,0,0-.27,1.08,4.22,4.22,0,0,0,.74,1.36l.42.56c.27.35.56.73.81,1.11a10.45,10.45,0,0,1,.87,1.69l.09.2a4.26,4.26,0,0,0,.79,1.33,1.18,1.18,0,0,0,1.15.27,8,8,0,0,0,2.74-1.34Zm0,0,0,0m0,0,0,0m0,0a2.36,2.36,0,0,1,2.29,0,6.85,6.85,0,0,1,3.74,5.59m-6-5.59,6,5.59m0,0a2.37,2.37,0,0,1-.88,2.12Z"/><path class="cls-36" d="M161,34.74a6.32,6.32,0,0,1,.84,3.37,2.05,2.05,0,0,1-3.34,1.83,6.82,6.82,0,0,1-3.23-5.89,2.38,2.38,0,0,1,1.06-2,2.36,2.36,0,0,1,2.28.21A6.35,6.35,0,0,1,161,34.74Z"/><path class="cls-37" d="M174,14.6a3.39,3.39,0,0,1-2,2.74,10.91,10.91,0,0,1-10,0,3.41,3.41,0,0,1-2-2.74,3.41,3.41,0,0,1,2-2.74,10.91,10.91,0,0,1,10,0A3.39,3.39,0,0,1,174,14.6Z"/><path class="cls-38" d="M173.43,15.64c0,.61-.55,1.31-1.8,1.88a13.19,13.19,0,0,1-9.63,0c-1.25-.57-1.81-1.27-1.81-1.88s.56-1.3,1.81-1.87a13.19,13.19,0,0,1,9.63,0C172.88,14.34,173.43,15,173.43,15.64Z"/><path class="cls-39" d="M177.61,48.84A3.85,3.85,0,1,1,172.78,47,3.68,3.68,0,0,1,177.61,48.84Z"/><path class="cls-40" d="M18.29,133.49h0a5.85,5.85,0,0,1-2.45-2.17,2.73,2.73,0,0,1-.29-.72,1.06,1.06,0,0,1,0-.2.1.1,0,0,1,0,0h0V109l92.07,48.76v28h-.1a5.62,5.62,0,0,1-.86,0,12,12,0,0,1-3.62-.93Z"/><path class="cls-41" d="M67,151.09,97,168a5.44,5.44,0,0,1,2.41,2.79L105,185.29h-1.86L59.26,158.76l4.93-7A2.17,2.17,0,0,1,67,151.09Z"/><path class="cls-42" d="M66.07,152l29.52,16.9A5.41,5.41,0,0,1,98,171.75l4.65,13-43.91-25,4.44-7A2.15,2.15,0,0,1,66.07,152Z"/><path class="cls-43" d="M68.25,156.13,93.9,170.67a.24.24,0,0,1,.12.2v1a.23.23,0,0,1-.34.2L68,157.35a.23.23,0,0,1-.12-.2v-.83A.22.22,0,0,1,68.25,156.13Z"/><path class="cls-44" d="M67.21,159.32l27.88,16a.23.23,0,0,1,.11.2v1a.22.22,0,0,1-.34.19L67,160.54a.23.23,0,0,1-.11-.2v-.83A.22.22,0,0,1,67.21,159.32Z"/><path class="cls-45" d="M64,159.78a1.06,1.06,0,1,1-1.49-.69A1.18,1.18,0,0,1,64,159.78Z"/><path class="cls-46" d="M98.44,179a1.17,1.17,0,0,1-.39,1.59,1.29,1.29,0,1,1,.39-1.59Z"/><path class="cls-47" d="M24.12,125.21,45.8,137.72a.65.65,0,0,1,.33.57v6.55a.66.66,0,0,1-.4.61l-.45.19a.69.69,0,0,1-.61,0l-20.49-13a.67.67,0,0,1-.29-.44l-1-5.3s0-.08,0-.12v-.83a.66.66,0,0,1,.28-.53l.21-.15A.65.65,0,0,1,24.12,125.21Z"/><path class="cls-48" d="M23.26,126.14l21.52,12.42a.34.34,0,0,1,.16.29v6.37a.33.33,0,0,1-.49.29l-21.52-12.2a.34.34,0,0,1-.16-.29v-6.59A.33.33,0,0,1,23.26,126.14Z"/><path class="cls-49" d="M28.3,130.7a2.7,2.7,0,0,1-.55,3.74,3,3,0,0,1-3-5.08A2.7,2.7,0,0,1,28.3,130.7Z"/><path class="cls-50" d="M26.9,131.52a2.55,2.55,0,0,1-.52,3.52,2.83,2.83,0,0,1-2.81-4.77A2.54,2.54,0,0,1,26.9,131.52Z"/><path class="cls-51" d="M26,133.88v0l-.65.26-.14.06v6.4l.33-.21,1.81-1.12,2.62,1.64-.18.17c-.24.23-.59.54-1,.88a11.87,11.87,0,0,1-3.06,1.89,2.18,2.18,0,0,1-2.41-.51,3.57,3.57,0,0,1-.65-.78c-.08-.11-.13-.21-.17-.27l0-.06v-8.15l0-.09c0-.08.07-.2.13-.34a9.1,9.1,0,0,1,.49-1,4.46,4.46,0,0,1,.75-1,1.64,1.64,0,0,1,.9-.5,1.63,1.63,0,0,1,1.14.54,1.51,1.51,0,0,1,.32.95,3.52,3.52,0,0,1-.12,1C26,133.7,26,133.81,26,133.88Z"/><path class="cls-52" d="M23.61,134.33c.22-.91,2.36-1.9,2.36-1.9a9,9,0,0,1-.16,1.32l-.88.33s-.06,7.52,0,8.39,3.68-2.14,3.68-2.14l1,.67s-3.65,3.56-5.34,2.75l-.67-.29S23.39,135.24,23.61,134.33Z"/><path class="cls-53" d="M35.3,134.7a2.72,2.72,0,0,1-.56,3.75,3,3,0,0,1-3-5.09A2.72,2.72,0,0,1,35.3,134.7Z"/><path class="cls-54" d="M33.89,135.53a2.53,2.53,0,0,1-.52,3.51,2.83,2.83,0,0,1-2.8-4.77A2.54,2.54,0,0,1,33.89,135.53Z"/><path class="cls-55" d="M32.94,137.89v0l-.65.27-.14,0v6.4l.33-.21,1.82-1.11,2.61,1.63-.18.18c-.24.22-.59.53-1,.87a12.42,12.42,0,0,1-3.07,1.9,2.18,2.18,0,0,1-2.41-.52,4.15,4.15,0,0,1-.65-.77c-.08-.12-.13-.21-.17-.28l0-.06v-8.14a.41.41,0,0,0,0-.1c0-.08.07-.19.13-.33a8.41,8.41,0,0,1,.49-1,4.72,4.72,0,0,1,.76-1,1.51,1.51,0,0,1,.89-.49,1.64,1.64,0,0,1,1.15.54,1.57,1.57,0,0,1,.31,1,3.45,3.45,0,0,1-.12,1A2.69,2.69,0,0,1,32.94,137.89Z"/><path class="cls-56" d="M30.62,138.34c.22-.91,2.36-1.89,2.36-1.89a9,9,0,0,1-.16,1.31l-.88.33s-.06,7.52,0,8.4,3.67-2.14,3.67-2.14l1,.67s-3.65,3.55-5.34,2.74l-.67-.29S30.4,139.25,30.62,138.34Z"/><path class="cls-57" d="M42.55,138.85A2.71,2.71,0,0,1,42,142.6a3,3,0,0,1-3-5.08A2.7,2.7,0,0,1,42.55,138.85Z"/><path class="cls-58" d="M41.15,139.68a2.54,2.54,0,0,1-.52,3.51,2.83,2.83,0,0,1-2.81-4.77A2.55,2.55,0,0,1,41.15,139.68Z"/><path class="cls-59" d="M40.2,142v0l-.65.26-.14,0v6.4l.33-.21,1.81-1.11,2.62,1.64-.18.17c-.24.22-.59.54-1,.88A11.87,11.87,0,0,1,39.91,152a2.19,2.19,0,0,1-2.41-.51,4.1,4.1,0,0,1-.65-.78c-.08-.12-.13-.21-.17-.28l0-.06v-8.14l0-.09c0-.08.07-.2.13-.34a9.15,9.15,0,0,1,.49-1,4.68,4.68,0,0,1,.75-1,1.56,1.56,0,0,1,.9-.49,1.59,1.59,0,0,1,1.14.54,1.51,1.51,0,0,1,.32.95,3.45,3.45,0,0,1-.12,1C40.26,141.85,40.22,142,40.2,142Z"/><path class="cls-60" d="M37.88,142.45c.22-.91,2.36-1.9,2.36-1.9a8.74,8.74,0,0,1-.17,1.32l-.87.33s-.06,7.51,0,8.39,3.67-2.14,3.67-2.14l1,.67s-3.64,3.56-5.33,2.74l-.67-.28S37.66,143.36,37.88,142.45Z"/><path class="cls-61" d="M107.61,156.78l68.79-39.32.61,28h0s0,0,0,.07a2.4,2.4,0,0,1,0,.27,3.35,3.35,0,0,1-.17.92,3.71,3.71,0,0,1-2.16,2.2h0l-61,36.4a10.56,10.56,0,0,1-4.49.6,8.1,8.1,0,0,1-1.26-.24l-.3-.09Z"/><path class="cls-62" d="M19.46,103.84h0L42.38,89.9l43-23.8a6.17,6.17,0,0,1,6,0l82.4,46.39h0l0,0,.2.12c.16.11.4.27.66.48a6.94,6.94,0,0,1,1.61,1.7,3.1,3.1,0,0,1,.51,2.39,5.11,5.11,0,0,1-2.32,2.9l-60.78,36h0a14.83,14.83,0,0,1-10.37,1.7,11.46,11.46,0,0,1-2.9-1.06,8,8,0,0,1-.77-.44l-.19-.14,0,0h0L20,113.76h0c-2.55-1.41-3.82-2.73-4.32-3.89a3.2,3.2,0,0,1,.29-3.08,8,8,0,0,1,2.17-2.15,9.83,9.83,0,0,1,.95-.59l.29-.16.07,0h0Z"/><path class="cls-63" d="M24.87,104.34l21.05-12.8L85.41,69.67a5.85,5.85,0,0,1,5.69,0l75.18,42.21s6.2,3.47.68,7.35l-55.85,33c-8,4.22-13.35,0-13.35,0L25.35,113.81C16.22,108.7,24.87,104.34,24.87,104.34Z"/><path class="cls-64" d="M25,104.54h0l-.07,0-.25.14c-.21.13-.51.31-.84.55a7.14,7.14,0,0,0-1.91,2,3,3,0,0,0-.25,2.82c.44,1.06,1.56,2.26,3.82,3.53h0L97.86,152.1h0Zm0,0h0l21-12.8L85.52,69.86a5.65,5.65,0,0,1,5.48,0l75.18,42.21h0l.05,0,.18.11c.15.1.37.25.61.44a6.18,6.18,0,0,1,1.48,1.56,2.83,2.83,0,0,1,.46,2.18,4.73,4.73,0,0,1-2.12,2.65L111,152.1a13.55,13.55,0,0,1-9.5,1.56,11,11,0,0,1-2.67-1c-.31-.16-.54-.31-.7-.41l-.18-.12,0,0h0Z"/><path class="cls-5" d="M71,120.14l10.15-5.82,13.12,8-.55-.34Z"/><path class="cls-5" d="M91.78,139.71l17.68-10.94v11.11h-.6Z"/><path class="cls-5" d="M113.37,144.38l17.06-10.09,2.45,5-11.87,7Z"/><path class="cls-5" d="M26,106.43,43.65,96.31l21.81,11-20.57-1.78Z"/><path class="cls-5" d="M42,118l4.77-3.18,10.7,3.93Z"/><path class="cls-65" d="M64.07,103.92,22,82.13l24.86-14.7h0a3.66,3.66,0,0,1,2.92-.16,7,7,0,0,1,1.14.44l.34.17.09.05,0,0h0L71.74,80Z"/><path class="cls-66" d="M22.11,86.75l-.21-.07v15.43l-2.38,1.32V85h0a.62.62,0,0,0,0-.1c0-.1.08-.23.15-.38a4.94,4.94,0,0,1,.66-1.09,3.17,3.17,0,0,1,1.21-.94,3.13,3.13,0,0,1,1.91-.12,6.06,6.06,0,0,1,1,.36c.45.19,1,.45,1.69.77,1.33.64,3.06,1.52,5.05,2.55,4,2.07,9,4.75,13.86,7.41s9.68,5.3,13.25,7.27l4.29,2.38,1.2.67.31.17v3.24L24.29,85.37h0a1.7,1.7,0,0,0-1.12-.07,1.61,1.61,0,0,0-.74.51,2.49,2.49,0,0,0-.39.59,1.19,1.19,0,0,0-.08.21l0,.07v0h0Z"/><path class="cls-67" d="M22.09,86.73c.66-1.92,2.2-1.15,2.2-1.15l13.55,7.15L22.09,102Z"/><path class="cls-68" d="M75,91.87V84.21L70.73,84v8.75a1.42,1.42,0,0,0,.56.29,3.21,3.21,0,0,0,1.24.12A3.25,3.25,0,0,0,75,91.87Z"/><path class="cls-69" d="M75,84V72.52l-4.24,2.42v9a2.19,2.19,0,0,0,.62.45,4.17,4.17,0,0,0,1.25.4A2.38,2.38,0,0,0,75,84Z"/><path class="cls-70" d="M57.59,93.62V82.2l-4.24,2.41v9a2,2,0,0,0,.62.46,3.9,3.9,0,0,0,1.25.39A2.35,2.35,0,0,0,57.59,93.62Z"/><path class="cls-71" d="M39.26,40.58l-8.52-4.77.12,75.37,11.07,6.66.34-75.4Z"/><path class="cls-72" d="M30.77,36.33v.05l11.47,6.83L40.83,39l-8.56-5.27a1,1,0,0,0-1,.2,1.63,1.63,0,0,0-.44.92A4.71,4.71,0,0,0,30.75,36,3.41,3.41,0,0,0,30.77,36.33Z"/><path class="cls-73" d="M73.36,25.07v69.2h7.79V20.48Z"/><path class="cls-74" d="M72.34,39.62H48.87V89.49a7.23,7.23,0,0,0,4.4,4.61A17.8,17.8,0,0,0,61,95.36a19.43,19.43,0,0,0,7.53-1.74c2.08-1,3.51-2.41,3.85-4.06Z"/><path class="cls-75" d="M60.77,60.16l-.16,0,0-.17c0-.12,0-.24,0-.36s0-.42.07-.63a.49.49,0,0,1,.15-.36.43.43,0,0,1,.36-.07h0l.84.08c.51,0,1,.09,1.55.18h0a1.75,1.75,0,0,0,.69,0,1,1,0,0,0,.52-.39h0l.17-.15.42-.38,1.23-1.12h0a.62.62,0,0,1,.2-.1l.12,0a.27.27,0,0,1,.18.06h0l.63.65.19.21.12.12-.12.13-2.32,2.67,3.46.76.16,0,0,.16,0,.32c0,.28-.07.54-.1.8a.34.34,0,0,1-.17.29.59.59,0,0,1-.25,0h0l-3-.31a.36.36,0,0,0-.23.08l-1.18,1.06-1.06,1a.5.5,0,0,1-.2.11h-.12a.23.23,0,0,1-.17-.06h0c-.21-.21-.42-.43-.62-.65l-.2-.21-.12-.12.11-.13,2.32-2.67Zm6.28-3.35s-.18,0-.24.06l1,.78-.19-.2C67.46,57.23,67.26,57,67.05,56.81Z"/><path class="cls-75" d="M59.4,72.81l.14-.09,1.75-1.11.15,2.06v.17h.91a.26.26,0,0,0,.15-.07.35.35,0,0,0,.05-.08.38.38,0,0,0,.06-.16m-3.22-.74,3,.73m-3-.73-.11-.13-.14-.18-.24-.3a.31.31,0,0,1,0-.51h0l.4-.33c.24-.21.5-.42.76-.61h0a.93.93,0,0,0,.28-.28.54.54,0,0,0,0-.35h0a.71.71,0,0,1,0-.14c0-.12,0-.23,0-.35,0-.34,0-.68,0-1h0a.6.6,0,0,1,0-.16s0,0,.06-.07a.22.22,0,0,1,.15-.08h.91v.17l.15,2.06,1.74-1.11.15-.09.1.13.12.15.32.39a.28.28,0,0,1,.06.27.32.32,0,0,1-.12.15h0m-4.8,2.4,4.8-2.4m-1.58,3.14h-.19m.19,0h-.19m.19,0c0-.3,0-.59,0-.89s0-.64,0-1m-.27,1.85c0-.29,0-.59,0-.88s0-.66.05-1m.18,0h-.18m.18,0h-.18m.18,0h-.18m1.68-1.27h0l-.12-.14Zm-1.58,1.06.13.13h0Z"/><path class="cls-75" d="M53.18,65.63l.08.14,1,1.8-2.07,0H52l0,.17c0,.06,0,.12,0,.17a5.46,5.46,0,0,0,0,.56h0a.2.2,0,0,0,.06.16l.07.06a.41.41,0,0,0,.16.06m.92-3.16-.9,3m.9-3,.14-.1m-.14.1.14-.1m-1.06,3.26h0l0-.19m0,.19h0l0-.19m0,.19.88.09,1,.1m-1.83-.38.88.09,1,.1m0,.19h0l0-.19m0,.19h0l0-.19m0,.19,0-.19m1.17,1.75h0l.15-.11-.15.11Zm0,0h0a.33.33,0,0,0,.15.13.28.28,0,0,0,.27,0Zm-2-5,.18-.13.32-.23a.35.35,0,0,1,.28-.09.38.38,0,0,1,.23.16h0c.1.14.2.28.31.41s.39.53.56.8h0a.85.85,0,0,0,.27.29.51.51,0,0,0,.34.07h0m-2.5-1.28,2.5,1.28m0,0h0m0,0h0m0,0,.15,0Zm-.71,1.37L55,68h.21l.1.19ZM54.2,69h0l.15-.11L54.2,69Z"/><path class="cls-76" d="M49,82.28c0,1.48,1.25,2.91,3.38,4A18.91,18.91,0,0,0,60.65,88,18.88,18.88,0,0,0,69,86.26c2.13-1.07,3.38-2.5,3.38-4S71.1,79.4,69,78.37a19.47,19.47,0,0,0-8.31-1.67,19.47,19.47,0,0,0-8.31,1.67C50.21,79.4,49,80.8,49,82.28Z"/><ellipse class="cls-77" cx="60.59" cy="81.83" rx="8.81" ry="4.31"/><path class="cls-78" d="M72.34,39.62H48.87V82.39A7.25,7.25,0,0,0,53.27,87,17.8,17.8,0,0,0,61,88.25a19.43,19.43,0,0,0,7.53-1.74c2.08-1,3.51-2.41,3.85-4.06Z"/><path class="cls-79" d="M73.56,44v-.63l-25.9.43v2.88c.09,1.42,1.31,2.79,3.34,3.92a21.42,21.42,0,0,0,7.62,2.28,21.67,21.67,0,0,0,8.56-.59,10.3,10.3,0,0,0,6.18-4.43,1.51,1.51,0,0,0,.2-.76Z"/><path class="cls-80" d="M47.5,42.65c0,2,1.38,3.78,3.75,5.14A19.05,19.05,0,0,0,60.53,50a19.05,19.05,0,0,0,9.28-2.19c2.37-1.36,3.75-3.19,3.75-5.14s-1.38-3.78-3.75-5.14a19.05,19.05,0,0,0-9.28-2.19,19.05,19.05,0,0,0-9.28,2.19C48.88,38.87,47.5,40.7,47.5,42.65Z"/><path class="cls-81" d="M48.75,42.23v0h0c0,1.79,1.25,3.47,3.38,4.71a17,17,0,0,0,8.38,2,17,17,0,0,0,8.39-2c2.13-1.24,3.38-2.92,3.38-4.71v0A6.55,6.55,0,0,0,72,38a4,4,0,0,0-2.48-1.9,14.71,14.71,0,0,0-4.07-.56c-1,0-2.06,0-3.13,0H60.51c-.83,0-1.67,0-2.48-.05h-.32l-2-.06a14.15,14.15,0,0,0-4,.37,3.82,3.82,0,0,0-2.45,1.86A7.94,7.94,0,0,0,48.75,42.23Z"/><path class="cls-82" d="M48.75,39.29c0,1.79,1.25,3.47,3.38,4.71a16.88,16.88,0,0,0,8.38,2,16.89,16.89,0,0,0,8.39-2c2.13-1.24,3.38-2.92,3.38-4.71S71,35.83,68.9,34.58a17,17,0,0,0-8.39-2,17,17,0,0,0-8.38,2C50,35.83,48.75,37.51,48.75,39.29Z"/><path class="cls-83" d="M55.79,58.78l.13-.08V47.31l-1.59.56v11.6l.18,0a4.3,4.3,0,0,0,.68-.3A6.94,6.94,0,0,0,55.79,58.78Z"/><path class="cls-84" d="M53.88,59.4l-.16-11.57-5.57-3.17L48.1,56a.46.46,0,0,0,.23.4l4.89,2.92a1.1,1.1,0,0,0,.59.14Z"/><path class="cls-85" d="M53.25,46.19a9.71,9.71,0,0,1-3.94-2.83l-1.07.75c1.25.77,5,3.09,5.33,3.27a1.21,1.21,0,0,0,.51.14,1,1,0,0,0,.43-.05,1.5,1.5,0,0,0,.31-.16l.5-.29,0,0-.16,0A19.51,19.51,0,0,1,53.25,46.19Z"/><path class="cls-86" d="M52.72,57.78V48.71l-4.07-2.35-.1,9a.14.14,0,0,0,.06.12Z"/><path class="cls-87" d="M52.67,57.56V48.92l-3.81-2.18-.1,8.52a.12.12,0,0,0,.07.11Z"/><path class="cls-88" d="M62.59,19.86l-.05,0-8.33,4.44,4.7,2.78,7.93-4.54-.08-.09a4.13,4.13,0,0,0-.51-.45,14.47,14.47,0,0,0-1.58-1c-.57-.33-1.14-.62-1.56-.84Z"/><path class="cls-89" d="M58.6,33.2V27.58l-5-3-.07,0-.13.08s0,0,0,0v0s0,.12,0,.21,0,.41,0,.69c0,.57,0,1.3,0,2s0,1.45,0,2c0,.27,0,.49,0,.65v.06Z"/><path class="cls-86" d="M57.83,23a1.21,1.21,0,0,0,.75,1,4.51,4.51,0,0,0,4.05,0,1.23,1.23,0,0,0,.75-1,1.26,1.26,0,0,0-.75-1,4.6,4.6,0,0,0-4.05,0A1.24,1.24,0,0,0,57.83,23Z"/><path class="cls-90" d="M57.9,39.82c0,.22.18.52.71.8a5.16,5.16,0,0,0,4.17,0c.53-.28.71-.58.71-.8s-.18-.52-.71-.79a5.16,5.16,0,0,0-4.17,0C58.08,39.3,57.9,39.61,57.9,39.82Z"/><path class="cls-91" d="M63,39.63V31.36l-4.63.74v7.53a2.33,2.33,0,0,0,.68.49,4.24,4.24,0,0,0,1.37.44A2.57,2.57,0,0,0,63,39.63Z"/><path class="cls-92" d="M63.05,34.57v-9.1l-4.63,2.64v6.46a2,2,0,0,0,.67.5,4.4,4.4,0,0,0,1.37.43A2.57,2.57,0,0,0,63.05,34.57Z"/><path class="cls-93" d="M46.65,115v-81l-4.46,1.8v82Z"/><path class="cls-94" d="M85.79,83.65V17.88l-4.43,2.38V86.61Z"/><path class="cls-95" d="M73.8,8.39l-42,25.26,8.84,5.46.06,0,0,.06,1.55,4L85.72,17.51l-.55-2.61A3.65,3.65,0,0,0,83,12.29Z"/><path class="cls-96" d="M40.5,39.28,84.06,13.22h0a.68.68,0,0,1,.64.47l1.24,3.91"/><path class="cls-96" d="M34.57,113.39V73.56a.69.69,0,0,1,1-.64l1.95.8a.69.69,0,0,0,1-.64V40.94"/><path class="cls-96" d="M30.76,50.37l2.9,1.18a.69.69,0,0,0,1-.64V38.74"/><path class="cls-96" d="M37.19,114.89V100.12a.7.7,0,0,1,.93-.65l1.1.41a.69.69,0,0,0,.93-.65V87.46a.69.69,0,0,1,.69-.69H42"/><path class="cls-97" d="M51.48,50.56,50,49.87"/><path class="cls-97" d="M51.48,53.18,50,52.49"/><path class="cls-97" d="M51.47,51.69,50,51"/><path class="cls-97" d="M51.47,54.3,50,53.62"/><path class="cls-98" d="M102.66,75.1v.05a8.48,8.48,0,0,1,.84,2.46,34.68,34.68,0,0,1,.56,3.75c.29,2.81.42,6.12.46,9.29s0,6.2-.06,8.43c0,1.12,0,2-.08,2.67,0,.32,0,.57,0,.74v.14l-.24.14-1,.55-3.55,2-10.8,6c-4,2.19-7.92,4.39-11,6-1.52.83-2.81,1.53-3.74,2L73,120l-.32.16-.13,0h0a2.14,2.14,0,0,1-1.14-.15,3,3,0,0,1-.43-.2l-.07,0-2-28.49L83.74,67.65,96.91,69h0l.14.06.53.25a11.68,11.68,0,0,1,1.68,1.07A9.26,9.26,0,0,1,102.66,75.1Z"/><path class="cls-99" d="M70.45,100.68v18.85l-5.07-2.88a2.62,2.62,0,0,1-1.33-2.33l.24-17.26a14.58,14.58,0,0,1,.27-2.63l1.14-5.81a13.89,13.89,0,0,1,.63-2.23c3.82-9.94,8.63-15.26,12.9-18.1A17.7,17.7,0,0,1,89,65.09a4,4,0,0,1,1.83.52c.91.48,2.35,1.24,3.61,1.93.64.35,1.22.67,1.67.94l.16.1a19.46,19.46,0,0,0-9.38,2.78c-5,2.87-10.73,8.61-14.6,19.9h0l-1.6,7.44A9.19,9.19,0,0,0,70.45,100.68Z"/><path class="cls-100" d="M98.43,97.05a28.45,28.45,0,0,1-9,10.84c-3.32,2.26-6.66,3-9.27,1.65s-4.07-4.37-4.27-8.39a28.51,28.51,0,0,1,3.25-13.68,32.39,32.39,0,0,1,9.76-11.63,16.72,16.72,0,0,1,5.47-2.7A6.62,6.62,0,0,1,99,73.4c2.59,1.29,3.67,4.73,3.47,9.16A38.06,38.06,0,0,1,98.43,97.05Z"/><path class="cls-101" d="M95.89,95.93a28.45,28.45,0,0,1-9,10.84c-3.32,2.26-6.66,3-9.27,1.65S73.59,104,73.39,100a28.51,28.51,0,0,1,3.25-13.68A32.39,32.39,0,0,1,86.4,74.72,17,17,0,0,1,91.87,72a6.68,6.68,0,0,1,4.61.27c2.59,1.29,3.67,4.73,3.47,9.16A38.06,38.06,0,0,1,95.89,95.93Z"/><path class="cls-102" d="M87.82,109.22l.29-.21c.34-.24.83-.61,1.43-1.11a34.75,34.75,0,0,0,4.51-4.53,37.21,37.21,0,0,0,8.21-18.56l28,16-12.71,31.58-7.77-5.36Z"/><path class="cls-103" d="M97,72.18,137.63,95.5l-21.69,35.83L76.6,108h0l-.07-.06-.25-.23a7.42,7.42,0,0,1-.85-1,11.32,11.32,0,0,1-1.88-4.21c-.9-3.88-.52-10.07,4.75-19.18,4.88-7.58,9.58-10.35,13-11.24a10.74,10.74,0,0,1,4.14-.28,7.8,7.8,0,0,1,1.13.23l.3.1.07,0Z"/><path class="cls-104" d="M110.37,124,110,129.1,93.36,139h0l-.1.06-.35.19a3.17,3.17,0,0,1-1,.3.87.87,0,0,1-.82-.3,2.44,2.44,0,0,1-.25-1.69l2.9-10.84,4.72-13.39H101a13.38,13.38,0,0,0,1.49,6.54,7.91,7.91,0,0,0,3.3,3.22,9.14,9.14,0,0,0,3.3.93,8.86,8.86,0,0,0,1.08,0Z"/><path class="cls-105" d="M102.07,118.12s2.1,3.71,4,4.48,4.1,1.37,4.1,1.37v5.2l-8.1,4.38Z"/><path class="cls-106" d="M100.66,113.05a3.07,3.07,0,0,0-.62.32,4.42,4.42,0,0,0-1.69,2.76,17.77,17.77,0,0,1-.62,1.83c-.33.85-.74,1.89-1.21,3.06l-.37.9c-.86,2.15-1.87,4.64-2.78,7.06A63.88,63.88,0,0,0,91,136.4a8.65,8.65,0,0,0-.3,2.44,1.66,1.66,0,0,0,.1.52.88.88,0,0,1-.2-.09c-.64-.28-1.56-.76-2.67-1.37-2.22-1.22-5.17-3-8.13-4.8s-6-3.72-8.23-5.22c-1.14-.74-2.09-1.39-2.79-1.88-.34-.25-.62-.45-.82-.61a1.78,1.78,0,0,1-.23-.19s-.07-.06-.07-.07,0,0,0,0,0-.12,0-.21a6.19,6.19,0,0,1,.16-.76c.17-.63.43-1.48.77-2.49.69-2,1.66-4.65,2.69-7.3s2.09-5.32,3-7.43c.43-1,.82-2,1.13-2.66a13.86,13.86,0,0,1,.65-1.37,12,12,0,0,1,1.61-2.09c.26-.28.49-.51.65-.66l.15-.14Z"/><path class="cls-107" d="M102.5,130a6.73,6.73,0,0,1-2.3,2.66,2,2,0,0,1-3.34-1.7,7.39,7.39,0,0,1,3.11-6.09,2,2,0,0,1,3.34,1.7A6.8,6.8,0,0,1,102.5,130Z"/><path class="cls-108" d="M101.79,129.53a4.12,4.12,0,0,1-1.4,1.62,1.41,1.41,0,0,1-1.39.21,1.44,1.44,0,0,1-.64-1.25,4.2,4.2,0,0,1,.49-2.09,4.12,4.12,0,0,1,1.4-1.62,1.41,1.41,0,0,1,1.39-.21,1.45,1.45,0,0,1,.65,1.25A4.2,4.2,0,0,1,101.79,129.53Z"/><path class="cls-109" d="M97,128.46l-2.48-1.33-2.14-1.23"/><path class="cls-110" d="M78.64,106.6l16.14,9.16a1.87,1.87,0,0,1,.81,2.32l-6.14,15.48a1.87,1.87,0,0,1-2.69.93L70.7,125.1a1.89,1.89,0,0,1-.8-2.32L76,107.54A1.88,1.88,0,0,1,78.64,106.6Z"/><path class="cls-111" d="M79,106.68l15.72,8.7a1.78,1.78,0,0,1,.79,2.21l-6.27,15.9a.44.44,0,0,1-.63.22l-16.16-9.14a1.78,1.78,0,0,1-.78-2.19l5.88-15.17A1,1,0,0,1,79,106.68Z"/><path class="cls-112" d="M88.11,120.12c-.9,2.3-2.61,1.32-3.86,2.25-1.64,1.24-2,3-2.76,3.59a.8.8,0,0,1-1.17-.26c-.67-1.22.17-3-.57-5.84-.45-1.9-2.2-2.8-1.78-5.39a3.84,3.84,0,0,1,2.14-3.11,5.64,5.64,0,0,0-.52,3c.28,1.25,1.6,2.61,2.13,3.74a4.73,4.73,0,0,1,.46,2.38,2.79,2.79,0,0,1,1.43-1.28c.92-.33,2.54-.07,3.32-.73s1-2.83,1-2.75a5.79,5.79,0,0,1,.16,4.34Z"/><path class="cls-113" d="M132.48,90.19l5.14,3.12a10.37,10.37,0,0,0-1.32.17,15.26,15.26,0,0,0-5.36,2.33c-4.35,2.87-9.92,9-14.93,21.86l0,.1,0,.09,4.93,8.23-9.32,17.79-5.81-3.32a1.65,1.65,0,0,1-.83-1.43V120.07a12.06,12.06,0,0,1,.35-2.87l1.36-5.51h0l0,0a1.83,1.83,0,0,1,.06-.19l.26-.72c.24-.62.59-1.52,1.06-2.58a50.69,50.69,0,0,1,4.29-7.79c3.85-5.66,9.65-11.2,17.51-11A5.25,5.25,0,0,1,132.48,90.19Z"/><path class="cls-114" d="M143.35,127.16h0l-29,17-.06,0-.25.05a3.82,3.82,0,0,1-.81.06,2,2,0,0,1-1.72-.84l.38-22.88v0s0-.08,0-.15.06-.33.11-.58c.1-.51.26-1.24.5-2.14a43.5,43.5,0,0,1,2.52-7c2.5-5.43,6.83-11.77,14.15-15.45,3.67-1.84,6.46-2.18,8.59-1.69a7.73,7.73,0,0,1,4.68,3.4,15.23,15.23,0,0,1,2,4.82,16.21,16.21,0,0,1,.34,1.75c0,.22,0,.39.07.51s0,.1,0,.13v0h0v19.94a2.69,2.69,0,0,1-.62,2.26,3.82,3.82,0,0,1-.61.57l-.21.13,0,0Z"/><path class="cls-115" d="M140.78,123.25h0l-21.09,12.38h0l-.18,0a2.51,2.51,0,0,1-.58,0,1.47,1.47,0,0,1-1.25-.61l.27-16.62v0l0-.11c0-.1,0-.24.08-.43.07-.36.19-.89.36-1.55a31.71,31.71,0,0,1,1.83-5.08,23,23,0,0,1,10.28-11.22c2.66-1.34,4.69-1.59,6.23-1.23a5.6,5.6,0,0,1,3.4,2.47,11,11,0,0,1,1.46,3.5c.12.51.2,1,.25,1.27,0,.16,0,.29,0,.37a.41.41,0,0,1,0,.1v0h0V121h0v0a2,2,0,0,1-.45,1.64,3.09,3.09,0,0,1-.44.41l-.15.1h-.06Z"/><path class="cls-116" d="M137.48,171.66l.43-.16-.07,11.36a1.72,1.72,0,0,1-2.5,1.53l-10.1-5.54Z"/><path class="cls-117" d="M161.92,131.83v.06l-22.47,13.43-.2-.49c-.19-.46-.46-1.09-.81-1.78a16,16,0,0,0-2.81-4.17h0l0,0L118,127.93l23.82-13.67,16.49,10.29a10.51,10.51,0,0,1,3.16,4.91,11.07,11.07,0,0,1,.4,1.83C161.9,131.52,161.91,131.71,161.92,131.83Z"/><path class="cls-5" d="M117.48,128.12l17.69-10.94-.34,9.35-.28.42Z"/><path class="cls-5" d="M124.41,124.66l17.68-10.94-1.84,10.94H124.41Z"/><path class="cls-118" d="M137.75,187.29l-.89-41.19L162,132l1.77,38.55h0v0a.57.57,0,0,1,0,.12,2.25,2.25,0,0,1-.11.43,2.56,2.56,0,0,1-.9,1.17c-.26.19-2,1.24-4.4,2.71s-5.55,3.35-8.64,5.2l-8.43,5-2.75,1.65Z"/><path class="cls-119" d="M117.7,127.84l16.93,10a11.56,11.56,0,0,1,3.6,4.4,16.74,16.74,0,0,1,.8,1.89c.09.24.15.43.19.57a.85.85,0,0,1,0,.15v0l-.22,40a3.43,3.43,0,0,1-.78,2,2.2,2.2,0,0,1-1.28.69,3.68,3.68,0,0,1-1.25,0,2,2,0,0,1-.4-.09l-.11,0h0l-12.92-7.14,2.89-1.7,8.12,4.67a1.83,1.83,0,0,0,1.16.28,2.17,2.17,0,0,0,1-.39,1.72,1.72,0,0,0,.64-1.23h0v-36a5.52,5.52,0,0,0-.43-2.29,7.69,7.69,0,0,0-3.78-4L117.7,132Z"/><path class="cls-120" d="M118.1,154.15V163a.77.77,0,0,0,1,.72l1.22-.45a.77.77,0,0,1,1,.72v16.59"/><path class="cls-120" d="M130.63,146.3v8.83a.76.76,0,0,0,1,.72l1.22-.45a.77.77,0,0,1,1,.72v17.39"/><path class="cls-120" d="M167.59,124.14v11.4a.77.77,0,0,0,1,.72l1.22-.45a.77.77,0,0,1,1,.72v14.63"/><circle class="cls-121" cx="188.15" cy="34.87" r="1.59"/><circle class="cls-122" cx="185.5" cy="24.11" r="0.98"/><circle class="cls-123" cx="98.46" cy="57.07" r="0.98"/><path class="cls-124" d="M92.8,59.73a1.64,1.64,0,1,1-1.63-1.54A1.6,1.6,0,0,1,92.8,59.73Z"/><path class="cls-125" d="M112.06,27.71a1.64,1.64,0,1,1-1.64-1.54A1.6,1.6,0,0,1,112.06,27.71Z"/><path class="cls-126" d="M25.78,74a.8.8,0,1,1-.8-.75A.77.77,0,0,1,25.78,74Z"/><path class="cls-127" d="M21.14,59.91,20,60.82a.19.19,0,0,0,0,.3l1.15.85.05.06L22,63.42a.19.19,0,0,0,.32,0L23.2,62l.05-.05,1.17-.86a.19.19,0,0,0,0-.3l-1.18-.91-.05,0-.89-1.36a.19.19,0,0,0-.32,0l-.81,1.35A.1.1,0,0,1,21.14,59.91Z"/><path class="cls-128" d="M188.92,50.79l-1.16.91a.19.19,0,0,0,0,.3l1.15.85s0,0,.06,0l.8,1.39a.19.19,0,0,0,.32,0l.89-1.4s0,0,.05,0L192.2,52a.19.19,0,0,0,0-.3L191,50.79l0,0-.9-1.36a.19.19,0,0,0-.32,0L189,50.74A.1.1,0,0,1,188.92,50.79Z"/><path class="cls-129" d="M90.22,20.18l-1.16.91a.19.19,0,0,0,0,.3l1.15.85a.1.1,0,0,1,0,.06l.81,1.38a.19.19,0,0,0,.32,0l.89-1.4s0,0,0-.05l1.17-.85a.19.19,0,0,0,0-.3l-1.18-.91,0-.05-.89-1.36a.19.19,0,0,0-.32,0l-.81,1.35A.12.12,0,0,1,90.22,20.18Z"/><path class="cls-130" d="M13.87,96l-.68.54a.11.11,0,0,0,0,.18l.68.5,0,0,.48.82a.11.11,0,0,0,.19,0l.53-.82s0,0,0,0l.69-.51a.11.11,0,0,0,0-.18l-.7-.54,0,0-.53-.81a.11.11,0,0,0-.19,0l-.48.8S13.89,96,13.87,96Z"/><path class="cls-131" d="M108,36.73l-.73.58a.11.11,0,0,0,0,.18L108,38l0,0,.51.87a.11.11,0,0,0,.2,0l.56-.88,0,0,.74-.54a.11.11,0,0,0,0-.18l-.74-.58,0,0-.56-.85a.12.12,0,0,0-.2,0l-.51.85S108,36.73,108,36.73Z"/><path class="cls-132" d="M28.9,15a1.83,1.83,0,1,1-1.83-1.73A1.78,1.78,0,0,1,28.9,15Z"/><path class="cls-133" d="M44.75,13.36a.89.89,0,1,1-.89-.84A.87.87,0,0,1,44.75,13.36Z"/><path class="cls-134" d="M139.58,115.87h0v.06l-5.29,1.86-6.15-11.66,4.49-2.58c3.3,1.23,5,4.27,6,7a21.45,21.45,0,0,1,.84,3.69c.06.48.1.88.12,1.16s0,.24,0,.32v.1Z"/><path class="cls-135" d="M127.8,105.9a10,10,0,0,1,5.64,6.58,17.88,17.88,0,0,1,.75,3.42c.05.45.08.81.09,1.07s0,.22,0,.29v.1h0v9.52l-6.49-4.29Z"/><path class="cls-136" d="M134.62,126.94l-.27-9.35,5.28-1.66v8.84Z"/><path class="cls-137" d="M86.4,93l10.87,1.08L93,84c1-.55,2-1.1,2.94-1.58.13-.06.47.18.58.36,1.42,2.48,2.81,5,4.24,7.44a1.5,1.5,0,0,0,.87.65c2.8.65,5.62,1.26,8.44,1.86.33.08.56.16.46.59-.22,1-.42,2-.64,3.14L99.06,95.4l4.24,10.07c-1,.54-2,1.09-2.94,1.56-.13.06-.47-.19-.58-.38-1.07-1.83-2.1-3.68-3.14-5.52a2.87,2.87,0,0,1-.28-.48A3.61,3.61,0,0,0,93,98.17c-2.24-.34-4.42-.94-6.63-1.4-.56-.11-.76-.34-.59-1C86,94.89,86.2,94,86.4,93Z"/><path class="cls-138" d="M92.54,40.88l5-3.21-5.19-2.84c.24-.57.46-1.12.71-1.66,0-.07.26-.08.37,0,1.44.57,2.87,1.16,4.31,1.72a.8.8,0,0,0,.59,0c1.41-.67,2.81-1.37,4.2-2.06.17-.09.3-.13.4.09l.79,1.55-5,3.21,5.2,2.84c-.24.57-.46,1.12-.72,1.65,0,.07-.26.08-.38,0l-3.19-1.28-.28-.11a2,2,0,0,0-2.25.07c-1.06.61-2.18,1.09-3.28,1.65-.27.14-.44.11-.58-.21C93,41.8,92.79,41.36,92.54,40.88Z"/><path class="cls-139" d="M10.3,35.18l5-3.22-5.19-2.83c.24-.58.46-1.13.71-1.67,0-.07.26-.08.37,0,1.44.57,2.87,1.16,4.31,1.72a.8.8,0,0,0,.59,0c1.41-.67,2.8-1.36,4.2-2.06.17-.08.29-.12.4.09.25.51.5,1,.79,1.55l-5,3.22,5.2,2.83c-.25.57-.47,1.12-.72,1.66,0,.06-.27.07-.38,0l-3.2-1.28a1.53,1.53,0,0,1-.27-.11,2,2,0,0,0-2.25.07c-1.06.62-2.19,1.1-3.28,1.65-.27.14-.44.11-.58-.21S10.54,35.66,10.3,35.18Z"/><path class="cls-140" d="M14.86,35.12a2,2,0,0,1,2.25-.07,1.53,1.53,0,0,0,.27.11Zm0,0c-.68.4-1.39.74-2.1,1.08m2.1-1.08-2.1,1.08m0,0c-.4.19-.79.37-1.18.57ZM10.2,35l-.15.09.08.15c.09.17.17.34.26.5s.3.58.44.88a.63.63,0,0,0,.35.38.7.7,0,0,0,.49-.08h0l1.16-.57c.71-.34,1.44-.68,2.12-1.08h0a2.47,2.47,0,0,1,1-.37,1.6,1.6,0,0,1,1,.29h0a1.88,1.88,0,0,0,.3.12l.82.33,2.37.95h0a.77.77,0,0,0,.3,0l.15,0a.3.3,0,0,0,.17-.14h0c.2-.41.37-.84.55-1.27.06-.13.11-.26.17-.4l.07-.16-.15-.08L16.85,31.9l4.7-3,.14-.09-.08-.16c-.07-.14-.14-.29-.22-.43-.19-.38-.38-.74-.56-1.11a.42.42,0,0,0-.33-.26.53.53,0,0,0-.32.08q-2.1,1-4.2,2.06a.61.61,0,0,1-.44,0l-2.27-.91-2-.81a.63.63,0,0,0-.3,0l-.15,0a.34.34,0,0,0-.16.14h0q-.28.61-.54,1.26l-.18.41-.06.16.15.08L14.9,32Z"/><path class="cls-2" d="M114.88,107.24l-3-1.84"/><path class="cls-3" d="M31.61,133.1c.17-.71,1.83-1.48,1.83-1.48a7.33,7.33,0,0,1-.12,1l-.69.26s0,5.85,0,6.53,2.86-1.66,2.86-1.66l.79.52s-2.84,2.76-4.15,2.13l-.52-.22S31.44,133.8,31.61,133.1Z"/><path class="cls-4" d="M37.24,136.34c.18-.71,1.84-1.48,1.84-1.48a6.79,6.79,0,0,1-.13,1l-.68.25s0,5.81,0,6.49S41.13,141,41.13,141l.74.43s-2.87,2.77-4.19,2.13l-.34-.17S37.07,137.05,37.24,136.34Z"/><path class="cls-5" d="M21.09,128l112.52-4.39,38.75-28.32,13,6.54c4.75,4,1.71,7.34,1.71,7.34l-18,11c-4.45,2.22,1.3,3.39,1.3,3.39l3.37,11.86L184,143.22a2.67,2.67,0,0,1-.19,4.39L160.9,162,172,168.84a1.64,1.64,0,0,1,0,2.79l-34.62,20.93a6.81,6.81,0,0,1-6.91.09l-10.83-6.17-6.89,3.63c-5.41,3.49-11.35.6-11.35.6l-88.5-51.4c-3.56-3.56,0-6.15,0-6.15Z"/><path class="cls-6" d="M109.5,59.77l0,0v0l.84-3.69,55.14,30.89v3.34l-1,1.58L156.41,103l-55-31.28Z"/><path class="cls-7" d="M109.51,59.77l0,0v0l.84-3.69,55.13,30.89v3.34l-1,1.58L161.68,96,106.35,64.51Z"/><path class="cls-8" d="M110.66,56.18,165.79,87v3l-4,5.89-55.2-31.56,3.17-4.65Z"/><path class="cls-9" d="M161.69,95.89l0,0,0,0L166,86.48l11.19-4.32v5.31l-15.69,27.21-6-11Z"/><path class="cls-10" d="M110.18,55.6h0l0,0-.09-.07-.34-.3a5.26,5.26,0,0,1-.92-1.26,1.74,1.74,0,0,1-.16-.56,8.07,8.07,0,0,1-.08-.94c0-.72,0-1.57,0-2.39s.1-1.6.15-2.17c0-.21,0-.39,0-.53L165,80.09l0,0h0l2.28.56v6.06h-.08c-.21,0-.5,0-.83,0a7.36,7.36,0,0,1-2.13-.3h0l-.05,0-.17-.08-.55-.29-1.89-1c-1.57-.87-3.75-2.1-6.32-3.56-5.14-2.91-11.86-6.76-18.54-10.59s-13.32-7.65-18.29-10.51l-6-3.45-1.68-1-.44-.25-.11-.07Z"/><path class="cls-11" d="M167.27,86.75V80.62l23-13.93v7l0,.1c0,.1-.11.23-.19.38a2.38,2.38,0,0,1-.66.81c-.15.11-1.35.84-3.11,1.89s-4,2.4-6.37,3.76-4.69,2.72-6.58,3.77c-.94.53-1.76,1-2.41,1.32a11.25,11.25,0,0,1-1.28.61,9.33,9.33,0,0,1-2,.42Z"/><path class="cls-12" d="M189.6,67.46,168.33,80.1a3.7,3.7,0,0,1-3.66.05l-55-30.7a2,2,0,0,1,0-3.55l19.52-11.13a5.28,5.28,0,0,1,5.1-.08l55.29,29.22A2,2,0,0,1,189.6,67.46Z"/><path class="cls-13" d="M130.53,36.59a4.83,4.83,0,0,1,4.65-.06L186,63.59a2,2,0,0,1,.09,3.48L167.69,78a3.39,3.39,0,0,1-3.4,0L113.67,49.69a2,2,0,0,1,0-3.48Z"/><path class="cls-14" d="M186,66.86,167.57,77.79a3.18,3.18,0,0,1-3.17,0L113.78,49.48a1.76,1.76,0,0,1,0-3.06l16.88-9.62a4.57,4.57,0,0,1,4.42-.06l50.82,27.05A1.76,1.76,0,0,1,186,66.86Z"/><path class="cls-15" d="M172.9,84.54,166.61,94a1,1,0,0,0,.43,1.4l.77.33a1,1,0,0,1,.41,1.42l-7.12,10.13"/><path class="cls-5" d="M167.3,74.91l13.11-5.55h.89l-9.56,6.06Z"/><path class="cls-5" d="M149,64.83l14-6h.9l-8.71,7.05Z"/><path class="cls-5" d="M131.73,55.18l14-6h.9l-8.71,7Z"/><path class="cls-16" d="M118.81,47.43l-.66-16.85,12.65,2.21.4,21.62Z"/><path class="cls-17" d="M132.13,54.54l-.58-21.75L144.36,31V49.53Z"/><path class="cls-18" d="M133,22.72l10.8,6a1.16,1.16,0,0,1,0,2l-10.16,5.69a4.91,4.91,0,0,1-4.81,0l-10.22-5.72a1.16,1.16,0,0,1,0-2l10.21-5.94A4.23,4.23,0,0,1,133,22.72Z"/><path class="cls-19" d="M128.25,41.9,132,43.39a1.44,1.44,0,0,0,1.2-.08l3.49-2a1.39,1.39,0,0,1,2.08,1.21v9.63"/><path class="cls-20" d="M122.41,35.91h0a5.88,5.88,0,0,0-2.12,1.41,1.17,1.17,0,0,0-.27,1.09,4.12,4.12,0,0,0,.74,1.36c.12.17.27.36.42.55.27.36.56.74.81,1.12a10.8,10.8,0,0,1,.87,1.68l.09.21a4.38,4.38,0,0,0,.79,1.33,1.18,1.18,0,0,0,1.15.27,8,8,0,0,0,2.74-1.34Zm0,0,0,0m0,0,0,0m0,0a2.38,2.38,0,0,1,2.3,0,6.32,6.32,0,0,1,2.6,2.3,6.45,6.45,0,0,1,1.14,3.28m-6-5.59,6,5.59m0,0a2.39,2.39,0,0,1-.88,2.13Z"/><path class="cls-21" d="M125.12,39.61A6.43,6.43,0,0,1,126,43a2.06,2.06,0,0,1-3.35,1.83,6.88,6.88,0,0,1-3.23-5.89,2.38,2.38,0,0,1,1.06-2,2.35,2.35,0,0,1,2.29.21A6.27,6.27,0,0,1,125.12,39.61Z"/><path class="cls-22" d="M138.23,29a3.37,3.37,0,0,1-2,2.74,10.94,10.94,0,0,1-10,0,3.37,3.37,0,0,1-2-2.74,3.39,3.39,0,0,1,2-2.74,10.94,10.94,0,0,1,10,0A3.39,3.39,0,0,1,138.23,29Z"/><path class="cls-23" d="M137.65,30.08c0,.6-.56,1.3-1.81,1.87a13.06,13.06,0,0,1-9.63,0c-1.25-.57-1.81-1.27-1.81-1.87s.56-1.31,1.81-1.88a13.19,13.19,0,0,1,9.63,0C137.09,28.77,137.65,29.47,137.65,30.08Z"/><path class="cls-24" d="M136.24,57.17l-.67-33.08,12.65,2.21.42,37.86Z"/><path class="cls-25" d="M149.57,64.27,149,25.79,161.79,24V59.27Z"/><path class="cls-26" d="M150.45,16.83l10.8,6a1.16,1.16,0,0,1,0,2l-10.16,5.69a4.91,4.91,0,0,1-4.81,0l-10.22-5.72a1.16,1.16,0,0,1,0-2l10.21-5.94A4.23,4.23,0,0,1,150.45,16.83Z"/><path class="cls-19" d="M145.68,39.68l3.75,1.49a1.42,1.42,0,0,0,1.21-.08l3.49-2a1.39,1.39,0,0,1,2.08,1.21V61.91"/><path class="cls-27" d="M139.84,34.2h0a5.74,5.74,0,0,0-2.12,1.42,1.14,1.14,0,0,0-.27,1.08,4,4,0,0,0,.74,1.36l.42.56c.27.35.56.73.81,1.11a10.45,10.45,0,0,1,.87,1.69l.09.2a4.26,4.26,0,0,0,.79,1.33,1.17,1.17,0,0,0,1.15.27A8,8,0,0,0,145,41.89Zm0,0,0,0m0,0,0,0m0,0a2.38,2.38,0,0,1,2.3,0,6.35,6.35,0,0,1,2.6,2.31,6.28,6.28,0,0,1,1.13,3.28m-6-5.59,6,5.59m0,0a2.34,2.34,0,0,1-.87,2.12Z"/><path class="cls-28" d="M142.55,37.91a6.3,6.3,0,0,1,.85,3.36,2.07,2.07,0,0,1-3.35,1.84,6.45,6.45,0,0,1-2.39-2.53,6.38,6.38,0,0,1-.84-3.36,2.07,2.07,0,0,1,3.35-1.84A6.3,6.3,0,0,1,142.55,37.91Z"/><path class="cls-29" d="M155.66,23.14a3.36,3.36,0,0,1-2,2.74,10.91,10.91,0,0,1-10,0,3.37,3.37,0,0,1-2-2.74,3.39,3.39,0,0,1,2-2.74,10.91,10.91,0,0,1,10,0A3.39,3.39,0,0,1,155.66,23.14Z"/><path class="cls-30" d="M155.08,24.19c0,.6-.56,1.3-1.81,1.87a13.19,13.19,0,0,1-9.63,0c-1.25-.57-1.81-1.27-1.81-1.87s.56-1.31,1.81-1.88a13.19,13.19,0,0,1,9.63,0C154.52,22.88,155.08,23.58,155.08,24.19Z"/><path class="cls-31" d="M159.25,38.85a3.85,3.85,0,0,1-7.17,2.73,3.85,3.85,0,0,1,7.17-2.73Z"/><path class="cls-32" d="M154.59,67.16l-.67-51.61,12.65,2.21L167,74.15Z"/><path class="cls-33" d="M167.93,74.26l-.6-56.5L180.15,16v53.3Z"/><path class="cls-34" d="M168.81,8.29l10.8,6a1.17,1.17,0,0,1,0,2L169.45,22a4.91,4.91,0,0,1-4.81,0l-10.22-5.73a1.16,1.16,0,0,1,0-2l10.21-5.94A4.23,4.23,0,0,1,168.81,8.29Z"/><path class="cls-19" d="M163.25,34.61,167,36.1a1.44,1.44,0,0,0,1.2-.08l3.49-2a1.39,1.39,0,0,1,2.08,1.21V72.3"/><path class="cls-35" d="M158.15,31h0A5.83,5.83,0,0,0,156,32.47a1.17,1.17,0,0,0-.27,1.08,4.22,4.22,0,0,0,.74,1.36l.42.56c.27.35.56.73.81,1.11a10.45,10.45,0,0,1,.87,1.69l.09.2a4.26,4.26,0,0,0,.79,1.33,1.18,1.18,0,0,0,1.15.27,8,8,0,0,0,2.74-1.34Zm0,0,0,0m0,0,0,0m0,0a2.36,2.36,0,0,1,2.29,0,6.85,6.85,0,0,1,3.74,5.59m-6-5.59,6,5.59m0,0a2.37,2.37,0,0,1-.88,2.12Z"/><path class="cls-36" d="M161,34.74a6.32,6.32,0,0,1,.84,3.37,2.05,2.05,0,0,1-3.34,1.83,6.82,6.82,0,0,1-3.23-5.89,2.38,2.38,0,0,1,1.06-2,2.36,2.36,0,0,1,2.28.21A6.35,6.35,0,0,1,161,34.74Z"/><path class="cls-37" d="M174,14.6a3.39,3.39,0,0,1-2,2.74,10.91,10.91,0,0,1-10,0,3.41,3.41,0,0,1-2-2.74,3.41,3.41,0,0,1,2-2.74,10.91,10.91,0,0,1,10,0A3.39,3.39,0,0,1,174,14.6Z"/><path class="cls-38" d="M173.43,15.64c0,.61-.55,1.31-1.8,1.88a13.19,13.19,0,0,1-9.63,0c-1.25-.57-1.81-1.27-1.81-1.88s.56-1.3,1.81-1.87a13.19,13.19,0,0,1,9.63,0C172.88,14.34,173.43,15,173.43,15.64Z"/><path class="cls-39" d="M177.61,48.84A3.85,3.85,0,1,1,172.78,47,3.68,3.68,0,0,1,177.61,48.84Z"/><path class="cls-40" d="M18.29,133.49h0a5.85,5.85,0,0,1-2.45-2.17,2.73,2.73,0,0,1-.29-.72,1.06,1.06,0,0,1,0-.2.1.1,0,0,1,0,0h0V109l92.07,48.76v28h-.1a5.62,5.62,0,0,1-.86,0,12,12,0,0,1-3.62-.93Z"/><path class="cls-41" d="M67,151.09,97,168a5.44,5.44,0,0,1,2.41,2.79L105,185.29h-1.86L59.26,158.76l4.93-7A2.17,2.17,0,0,1,67,151.09Z"/><path class="cls-42" d="M66.07,152l29.52,16.9A5.41,5.41,0,0,1,98,171.75l4.65,13-43.91-25,4.44-7A2.15,2.15,0,0,1,66.07,152Z"/><path class="cls-43" d="M68.25,156.13,93.9,170.67a.24.24,0,0,1,.12.2v1a.23.23,0,0,1-.34.2L68,157.35a.23.23,0,0,1-.12-.2v-.83A.22.22,0,0,1,68.25,156.13Z"/><path class="cls-44" d="M67.21,159.32l27.88,16a.23.23,0,0,1,.11.2v1a.22.22,0,0,1-.34.19L67,160.54a.23.23,0,0,1-.11-.2v-.83A.22.22,0,0,1,67.21,159.32Z"/><path class="cls-45" d="M64,159.78a1.06,1.06,0,1,1-1.49-.69A1.18,1.18,0,0,1,64,159.78Z"/><path class="cls-46" d="M98.44,179a1.17,1.17,0,0,1-.39,1.59,1.29,1.29,0,1,1,.39-1.59Z"/><path class="cls-47" d="M24.12,125.21,45.8,137.72a.65.65,0,0,1,.33.57v6.55a.66.66,0,0,1-.4.61l-.45.19a.69.69,0,0,1-.61,0l-20.49-13a.67.67,0,0,1-.29-.44l-1-5.3s0-.08,0-.12v-.83a.66.66,0,0,1,.28-.53l.21-.15A.65.65,0,0,1,24.12,125.21Z"/><path class="cls-48" d="M23.26,126.14l21.52,12.42a.34.34,0,0,1,.16.29v6.37a.33.33,0,0,1-.49.29l-21.52-12.2a.34.34,0,0,1-.16-.29v-6.59A.33.33,0,0,1,23.26,126.14Z"/><path class="cls-49" d="M28.3,130.7a2.7,2.7,0,0,1-.55,3.74,3,3,0,0,1-3-5.08A2.7,2.7,0,0,1,28.3,130.7Z"/><path class="cls-50" d="M26.9,131.52a2.55,2.55,0,0,1-.52,3.52,2.83,2.83,0,0,1-2.81-4.77A2.54,2.54,0,0,1,26.9,131.52Z"/><path class="cls-51" d="M26,133.88v0l-.65.26-.14.06v6.4l.33-.21,1.81-1.12,2.62,1.64-.18.17c-.24.23-.59.54-1,.88a11.87,11.87,0,0,1-3.06,1.89,2.18,2.18,0,0,1-2.41-.51,3.57,3.57,0,0,1-.65-.78c-.08-.11-.13-.21-.17-.27l0-.06v-8.15l0-.09c0-.08.07-.2.13-.34a9.1,9.1,0,0,1,.49-1,4.46,4.46,0,0,1,.75-1,1.64,1.64,0,0,1,.9-.5,1.63,1.63,0,0,1,1.14.54,1.51,1.51,0,0,1,.32.95,3.52,3.52,0,0,1-.12,1C26,133.7,26,133.81,26,133.88Z"/><path class="cls-52" d="M23.61,134.33c.22-.91,2.36-1.9,2.36-1.9a9,9,0,0,1-.16,1.32l-.88.33s-.06,7.52,0,8.39,3.68-2.14,3.68-2.14l1,.67s-3.65,3.56-5.34,2.75l-.67-.29S23.39,135.24,23.61,134.33Z"/><path class="cls-53" d="M35.3,134.7a2.72,2.72,0,0,1-.56,3.75,3,3,0,0,1-3-5.09A2.72,2.72,0,0,1,35.3,134.7Z"/><path class="cls-54" d="M33.89,135.53a2.53,2.53,0,0,1-.52,3.51,2.83,2.83,0,0,1-2.8-4.77A2.54,2.54,0,0,1,33.89,135.53Z"/><path class="cls-55" d="M32.94,137.89v0l-.65.27-.14,0v6.4l.33-.21,1.82-1.11,2.61,1.63-.18.18c-.24.22-.59.53-1,.87a12.42,12.42,0,0,1-3.07,1.9,2.18,2.18,0,0,1-2.41-.52,4.15,4.15,0,0,1-.65-.77c-.08-.12-.13-.21-.17-.28l0-.06v-8.14a.41.41,0,0,0,0-.1c0-.08.07-.19.13-.33a8.41,8.41,0,0,1,.49-1,4.72,4.72,0,0,1,.76-1,1.51,1.51,0,0,1,.89-.49,1.64,1.64,0,0,1,1.15.54,1.57,1.57,0,0,1,.31,1,3.45,3.45,0,0,1-.12,1A2.69,2.69,0,0,1,32.94,137.89Z"/><path class="cls-56" d="M30.62,138.34c.22-.91,2.36-1.89,2.36-1.89a9,9,0,0,1-.16,1.31l-.88.33s-.06,7.52,0,8.4,3.67-2.14,3.67-2.14l1,.67s-3.65,3.55-5.34,2.74l-.67-.29S30.4,139.25,30.62,138.34Z"/><path class="cls-57" d="M42.55,138.85A2.71,2.71,0,0,1,42,142.6a3,3,0,0,1-3-5.08A2.7,2.7,0,0,1,42.55,138.85Z"/><path class="cls-58" d="M41.15,139.68a2.54,2.54,0,0,1-.52,3.51,2.83,2.83,0,0,1-2.81-4.77A2.55,2.55,0,0,1,41.15,139.68Z"/><path class="cls-59" d="M40.2,142v0l-.65.26-.14,0v6.4l.33-.21,1.81-1.11,2.62,1.64-.18.17c-.24.22-.59.54-1,.88A11.87,11.87,0,0,1,39.91,152a2.19,2.19,0,0,1-2.41-.51,4.1,4.1,0,0,1-.65-.78c-.08-.12-.13-.21-.17-.28l0-.06v-8.14l0-.09c0-.08.07-.2.13-.34a9.15,9.15,0,0,1,.49-1,4.68,4.68,0,0,1,.75-1,1.56,1.56,0,0,1,.9-.49,1.59,1.59,0,0,1,1.14.54,1.51,1.51,0,0,1,.32.95,3.45,3.45,0,0,1-.12,1C40.26,141.85,40.22,142,40.2,142Z"/><path class="cls-60" d="M37.88,142.45c.22-.91,2.36-1.9,2.36-1.9a8.74,8.74,0,0,1-.17,1.32l-.87.33s-.06,7.51,0,8.39,3.67-2.14,3.67-2.14l1,.67s-3.64,3.56-5.33,2.74l-.67-.28S37.66,143.36,37.88,142.45Z"/><path class="cls-61" d="M107.61,156.78l68.79-39.32.61,28h0s0,0,0,.07a2.4,2.4,0,0,1,0,.27,3.35,3.35,0,0,1-.17.92,3.71,3.71,0,0,1-2.16,2.2h0l-61,36.4a10.56,10.56,0,0,1-4.49.6,8.1,8.1,0,0,1-1.26-.24l-.3-.09Z"/><path class="cls-62" d="M19.46,103.84h0L42.38,89.9l43-23.8a6.17,6.17,0,0,1,6,0l82.4,46.39h0l0,0,.2.12c.16.11.4.27.66.48a6.94,6.94,0,0,1,1.61,1.7,3.1,3.1,0,0,1,.51,2.39,5.11,5.11,0,0,1-2.32,2.9l-60.78,36h0a14.83,14.83,0,0,1-10.37,1.7,11.46,11.46,0,0,1-2.9-1.06,8,8,0,0,1-.77-.44l-.19-.14,0,0h0L20,113.76h0c-2.55-1.41-3.82-2.73-4.32-3.89a3.2,3.2,0,0,1,.29-3.08,8,8,0,0,1,2.17-2.15,9.83,9.83,0,0,1,.95-.59l.29-.16.07,0h0Z"/><path class="cls-63" d="M24.87,104.34l21.05-12.8L85.41,69.67a5.85,5.85,0,0,1,5.69,0l75.18,42.21s6.2,3.47.68,7.35l-55.85,33c-8,4.22-13.35,0-13.35,0L25.35,113.81C16.22,108.7,24.87,104.34,24.87,104.34Z"/><path class="cls-64" d="M25,104.54h0l-.07,0-.25.14c-.21.13-.51.31-.84.55a7.14,7.14,0,0,0-1.91,2,3,3,0,0,0-.25,2.82c.44,1.06,1.56,2.26,3.82,3.53h0L97.86,152.1h0M25,104.53l21-12.8L85.52,69.86a5.65,5.65,0,0,1,5.48,0l75.18,42.21h0l.05,0,.18.11c.15.1.37.25.61.44a6.18,6.18,0,0,1,1.48,1.56,2.83,2.83,0,0,1,.46,2.18,4.73,4.73,0,0,1-2.12,2.65L111,152.1a13.55,13.55,0,0,1-9.5,1.56,11,11,0,0,1-2.67-1c-.31-.16-.54-.31-.7-.41l-.18-.12,0,0h0l-2.13,2.17"/><path class="cls-5" d="M71,120.14l10.15-5.82,13.12,8-.55-.34Z"/><path class="cls-5" d="M91.78,139.71l17.68-10.94v11.11h-.6Z"/><path class="cls-5" d="M113.37,144.38l17.06-10.09,2.45,5-11.87,7Z"/><path class="cls-5" d="M24.67,104.64,42.36,94.52l21.81,11L43.6,103.7Z"/><path class="cls-5" d="M42,118l4.77-3.18,10.7,3.93Z"/><path class="cls-65" d="M64.07,103.92,22,82.13l24.86-14.7h0a3.66,3.66,0,0,1,2.92-.16,7,7,0,0,1,1.14.44l.34.17.09.05,0,0h0L71.74,80Z"/><path class="cls-66" d="M22.11,86.75l-.21-.07v15.43l-2.38,1.32V85h0a.62.62,0,0,0,0-.1c0-.1.08-.23.15-.38a4.94,4.94,0,0,1,.66-1.09,3.17,3.17,0,0,1,1.21-.94,3.13,3.13,0,0,1,1.91-.12,6.06,6.06,0,0,1,1,.36c.45.19,1,.45,1.69.77,1.33.64,3.06,1.52,5.05,2.55,4,2.07,9,4.75,13.86,7.41s9.68,5.3,13.25,7.27l4.29,2.38,1.2.67.31.17v3.24L24.29,85.37h0a1.7,1.7,0,0,0-1.12-.07,1.61,1.61,0,0,0-.74.51,2.49,2.49,0,0,0-.39.59,1.19,1.19,0,0,0-.08.21l0,.07v0h0Z"/><path class="cls-67" d="M22.09,86.73c.66-1.92,2.2-1.15,2.2-1.15l13.55,7.15L22.09,102Z"/><path class="cls-68" d="M75,91.87V84.21L70.73,84v8.75a1.42,1.42,0,0,0,.56.29,3.21,3.21,0,0,0,1.24.12A3.25,3.25,0,0,0,75,91.87Z"/><path class="cls-69" d="M75,84V72.52l-4.24,2.42v9a2.19,2.19,0,0,0,.62.45,4.17,4.17,0,0,0,1.25.4A2.38,2.38,0,0,0,75,84Z"/><path class="cls-70" d="M57.59,93.62V82.2l-4.24,2.41v9a2,2,0,0,0,.62.46,3.9,3.9,0,0,0,1.25.39A2.35,2.35,0,0,0,57.59,93.62Z"/><path class="cls-71" d="M39.26,40.58l-8.52-4.77.12,75.37,11.07,6.66.34-75.4Z"/><path class="cls-72" d="M30.77,36.33v.05l11.47,6.83L40.83,39l-8.56-5.27a1,1,0,0,0-1,.2,1.63,1.63,0,0,0-.44.92A4.71,4.71,0,0,0,30.75,36,3.41,3.41,0,0,0,30.77,36.33Z"/><path class="cls-73" d="M73.36,25.07v69.2h7.79V20.48Z"/><path class="cls-74" d="M72.34,39.62H48.87V89.49a7.23,7.23,0,0,0,4.4,4.61A17.8,17.8,0,0,0,61,95.36a19.43,19.43,0,0,0,7.53-1.74c2.08-1,3.51-2.41,3.85-4.06Z"/><path class="cls-75" d="M60.77,60.16l-.16,0,0-.17c0-.12,0-.24,0-.36s0-.42.07-.63a.49.49,0,0,1,.15-.36.43.43,0,0,1,.36-.07h0l.84.08c.51,0,1,.09,1.55.18h0a1.75,1.75,0,0,0,.69,0,1,1,0,0,0,.52-.39h0l.17-.15.42-.38,1.23-1.12h0a.62.62,0,0,1,.2-.1l.12,0a.27.27,0,0,1,.18.06h0l.63.65.19.21.12.12-.12.13-2.32,2.67,3.46.76.16,0,0,.16,0,.32c0,.28-.07.54-.1.8a.34.34,0,0,1-.17.29.59.59,0,0,1-.25,0h0l-3-.31a.36.36,0,0,0-.23.08l-1.18,1.06-1.06,1a.5.5,0,0,1-.2.11h-.12a.23.23,0,0,1-.17-.06h0c-.21-.21-.42-.43-.62-.65l-.2-.21-.12-.12.11-.13,2.32-2.67Zm6.28-3.35s-.18,0-.24.06l1,.78-.19-.2C67.46,57.23,67.26,57,67.05,56.81Z"/><path class="cls-75" d="M62.3,69.72l.1-.07.08.09.16.19c.1.11.19.22.29.32a.34.34,0,0,1,.11.25.3.3,0,0,1-.13.22h0l-.42.38c-.26.25-.53.49-.81.71h0a1.11,1.11,0,0,0-.31.36.69.69,0,0,0,0,.44h0a.43.43,0,0,1,0,.16v.39q0,.57,0,1.14h0a.37.37,0,0,1,0,.15l0,.07a.13.13,0,0,1-.11.06h0l-.62,0H60.2l0-.12-.28-2.41-2,1.41-.09.06-.08-.08-.14-.17-.37-.41a.25.25,0,0,1-.07-.22.33.33,0,0,1,.1-.14h0l1.55-1.4a.22.22,0,0,0,.06-.15c0-.37,0-.73,0-1.09s0-.66,0-1a.37.37,0,0,1,0-.15l0-.07a.19.19,0,0,1,.11-.05h0c.21,0,.41,0,.62,0H60v.12l.29,2.41Zm-1.18,4.74s.07-.09.07-.15l-.88.18h.2C60.71,74.48,60.92,74.48,61.12,74.46Z"/><path class="cls-75" d="M53,63.17l-.08-.09L53,63l.17-.19c.09-.12.19-.22.28-.34a.31.31,0,0,1,.22-.14.32.32,0,0,1,.24.09h0c.14.13.29.25.44.37s.56.45.82.7h0a1,1,0,0,0,.4.26.68.68,0,0,0,.44,0h0l.15,0,.39-.06,1.13-.16h0a.37.37,0,0,1,.15,0l.08,0a.14.14,0,0,1,.07.1h0a6.17,6.17,0,0,1,.11.62l0,.19,0,.11-.11,0-2.35.63L57.36,67l.08.09-.08.09-.14.16-.36.42a.24.24,0,0,1-.21.1.35.35,0,0,1-.15-.08h0l-1.62-1.34a.22.22,0,0,0-.16,0c-.36,0-.72.1-1.07.15l-1,.14a.36.36,0,0,1-.15,0l-.08,0a.17.17,0,0,1-.07-.1h0c0-.2-.07-.4-.11-.6l0-.2,0-.12.12,0,2.35-.63Zm4.86.5s-.11-.06-.16-.05l.3.85,0-.2C57.93,64.07,57.9,63.87,57.86,63.67Z"/><path class="cls-76" d="M49,82.28c0,1.48,1.25,2.91,3.38,4A18.91,18.91,0,0,0,60.65,88,18.88,18.88,0,0,0,69,86.26c2.13-1.07,3.38-2.5,3.38-4S71.1,79.4,69,78.37a19.47,19.47,0,0,0-8.31-1.67,19.47,19.47,0,0,0-8.31,1.67C50.21,79.4,49,80.8,49,82.28Z"/><ellipse class="cls-77" cx="60.59" cy="81.83" rx="8.81" ry="4.31"/><path class="cls-141" d="M72.39,46.36H48.91V89.13a7.27,7.27,0,0,0,4.41,4.61A17.75,17.75,0,0,0,61,95a19.21,19.21,0,0,0,7.52-1.73c2.09-1,3.51-2.41,3.86-4.06Z"/><path class="cls-79" d="M73.56,44v-.63l-25.9.43v2.88c.09,1.42,1.31,2.79,3.34,3.92a21.42,21.42,0,0,0,7.62,2.28,21.67,21.67,0,0,0,8.56-.59,10.3,10.3,0,0,0,6.18-4.43,1.51,1.51,0,0,0,.2-.76Z"/><path class="cls-80" d="M47.5,42.65c0,2,1.38,3.78,3.75,5.14A19.05,19.05,0,0,0,60.53,50a19.05,19.05,0,0,0,9.28-2.19c2.37-1.36,3.75-3.19,3.75-5.14s-1.38-3.78-3.75-5.14a19.05,19.05,0,0,0-9.28-2.19,19.05,19.05,0,0,0-9.28,2.19C48.88,38.87,47.5,40.7,47.5,42.65Z"/><path class="cls-81" d="M48.75,42.23v0h0c0,1.79,1.25,3.47,3.38,4.71a17,17,0,0,0,8.38,2,17,17,0,0,0,8.39-2c2.13-1.24,3.38-2.92,3.38-4.71v0A6.55,6.55,0,0,0,72,38a4,4,0,0,0-2.48-1.9,14.71,14.71,0,0,0-4.07-.56c-1,0-2.06,0-3.13,0H60.51c-.83,0-1.67,0-2.48-.05h-.32l-2-.06a14.15,14.15,0,0,0-4,.37,3.82,3.82,0,0,0-2.45,1.86A7.94,7.94,0,0,0,48.75,42.23Z"/><path class="cls-82" d="M48.75,39.29c0,1.79,1.25,3.47,3.38,4.71a16.88,16.88,0,0,0,8.38,2,16.89,16.89,0,0,0,8.39-2c2.13-1.24,3.38-2.92,3.38-4.71S71,35.83,68.9,34.58a17,17,0,0,0-8.39-2,17,17,0,0,0-8.38,2C50,35.83,48.75,37.51,48.75,39.29Z"/><path class="cls-83" d="M55.79,58.78l.13-.08V47.31l-1.59.56v11.6l.18,0a4.3,4.3,0,0,0,.68-.3A6.94,6.94,0,0,0,55.79,58.78Z"/><path class="cls-84" d="M53.88,59.4l-.16-11.57-5.57-3.17L48.1,56a.46.46,0,0,0,.23.4l4.89,2.92a1.1,1.1,0,0,0,.59.14Z"/><path class="cls-85" d="M53.25,46.19a9.71,9.71,0,0,1-3.94-2.83l-1.07.75c1.25.77,5,3.09,5.33,3.27a1.21,1.21,0,0,0,.51.14,1,1,0,0,0,.43-.05,1.5,1.5,0,0,0,.31-.16l.5-.29,0,0-.16,0A19.51,19.51,0,0,1,53.25,46.19Z"/><path class="cls-86" d="M52.72,57.78V48.71l-4.07-2.35-.1,9a.14.14,0,0,0,.06.12Z"/><path class="cls-87" d="M52.67,57.56V48.92l-3.81-2.18-.1,8.52a.12.12,0,0,0,.07.11Z"/><path class="cls-88" d="M62.59,19.86l-.05,0-8.33,4.44,4.7,2.78,7.93-4.54-.08-.09a4.13,4.13,0,0,0-.51-.45,14.47,14.47,0,0,0-1.58-1c-.57-.33-1.14-.62-1.56-.84Z"/><path class="cls-89" d="M58.6,33.2V27.58l-5-3-.07,0-.13.08s0,0,0,0v0s0,.12,0,.21,0,.41,0,.69c0,.57,0,1.3,0,2s0,1.45,0,2c0,.27,0,.49,0,.65v.06Z"/><path class="cls-86" d="M57.83,23a1.21,1.21,0,0,0,.75,1,4.51,4.51,0,0,0,4.05,0,1.23,1.23,0,0,0,.75-1,1.26,1.26,0,0,0-.75-1,4.6,4.6,0,0,0-4.05,0A1.24,1.24,0,0,0,57.83,23Z"/><path class="cls-90" d="M57.9,39.82c0,.22.18.52.71.8a5.16,5.16,0,0,0,4.17,0c.53-.28.71-.58.71-.8s-.18-.52-.71-.79a5.16,5.16,0,0,0-4.17,0C58.08,39.3,57.9,39.61,57.9,39.82Z"/><path class="cls-91" d="M63,39.63V31.36l-4.63.74v7.53a2.33,2.33,0,0,0,.68.49,4.24,4.24,0,0,0,1.37.44A2.57,2.57,0,0,0,63,39.63Z"/><path class="cls-92" d="M63.05,34.57v-9.1l-4.63,2.64v6.46a2,2,0,0,0,.67.5,4.4,4.4,0,0,0,1.37.43A2.57,2.57,0,0,0,63.05,34.57Z"/><path class="cls-93" d="M46.65,115v-81l-4.46,1.8v82Z"/><path class="cls-94" d="M85.79,83.65V17.88l-4.43,2.38V86.61Z"/><path class="cls-95" d="M73.8,8.39l-42,25.26,8.84,5.46.06,0,0,.06,1.55,4L85.72,17.51l-.55-2.61A3.65,3.65,0,0,0,83,12.29Z"/><path class="cls-96" d="M40.5,39.28,84.06,13.22h0a.68.68,0,0,1,.64.47l1.24,3.91"/><path class="cls-96" d="M34.57,113.39V73.56a.69.69,0,0,1,1-.64l1.95.8a.69.69,0,0,0,1-.64V40.94"/><path class="cls-96" d="M30.76,50.37l2.9,1.18a.69.69,0,0,0,1-.64V38.74"/><path class="cls-96" d="M37.19,114.89V100.12a.7.7,0,0,1,.93-.65l1.1.41a.69.69,0,0,0,.93-.65V87.46a.69.69,0,0,1,.69-.69H42"/><path class="cls-97" d="M51.48,50.56,50,49.87"/><path class="cls-97" d="M51.48,53.18,50,52.49"/><path class="cls-97" d="M51.47,51.69,50,51"/><path class="cls-97" d="M51.47,54.3,50,53.62"/><path class="cls-98" d="M102.66,75.1v.05a8.48,8.48,0,0,1,.84,2.46,34.68,34.68,0,0,1,.56,3.75c.29,2.81.42,6.12.46,9.29s0,6.2-.06,8.43c0,1.12,0,2-.08,2.67,0,.32,0,.57,0,.74v.14l-.24.14-1,.55-3.55,2-10.8,6c-4,2.19-7.92,4.39-11,6-1.52.83-2.81,1.53-3.74,2L73,120l-.32.16-.13,0h0a2.14,2.14,0,0,1-1.14-.15,3,3,0,0,1-.43-.2l-.07,0-2-28.49L83.74,67.65,96.91,69h0l.14.06.53.25a11.68,11.68,0,0,1,1.68,1.07A9.26,9.26,0,0,1,102.66,75.1Z"/><path class="cls-99" d="M70.45,100.68v18.85l-5.07-2.88a2.62,2.62,0,0,1-1.33-2.33l.24-17.26a14.58,14.58,0,0,1,.27-2.63l1.14-5.81a13.89,13.89,0,0,1,.63-2.23c3.82-9.94,8.63-15.26,12.9-18.1A17.7,17.7,0,0,1,89,65.09a4,4,0,0,1,1.83.52c.91.48,2.35,1.24,3.61,1.93.64.35,1.22.67,1.67.94l.16.1a19.46,19.46,0,0,0-9.38,2.78c-5,2.87-10.73,8.61-14.6,19.9h0l-1.6,7.44A9.19,9.19,0,0,0,70.45,100.68Z"/><path class="cls-100" d="M98.43,97.05a28.45,28.45,0,0,1-9,10.84c-3.32,2.26-6.66,3-9.27,1.65s-4.07-4.37-4.27-8.39a28.51,28.51,0,0,1,3.25-13.68,32.39,32.39,0,0,1,9.76-11.63,16.72,16.72,0,0,1,5.47-2.7A6.62,6.62,0,0,1,99,73.4c2.59,1.29,3.67,4.73,3.47,9.16A38.06,38.06,0,0,1,98.43,97.05Z"/><path class="cls-101" d="M95.89,95.93a28.45,28.45,0,0,1-9,10.84c-3.32,2.26-6.66,3-9.27,1.65S73.59,104,73.39,100a28.51,28.51,0,0,1,3.25-13.68A32.39,32.39,0,0,1,86.4,74.72,17,17,0,0,1,91.87,72a6.68,6.68,0,0,1,4.61.27c2.59,1.29,3.67,4.73,3.47,9.16A38.06,38.06,0,0,1,95.89,95.93Z"/><path class="cls-102" d="M87.82,109.22l.29-.21c.34-.24.83-.61,1.43-1.11a34.75,34.75,0,0,0,4.51-4.53,37.21,37.21,0,0,0,8.21-18.56l28,16-12.71,31.58-7.77-5.36Z"/><path class="cls-103" d="M97,72.18,137.63,95.5l-21.69,35.83L76.6,108h0l-.07-.06-.25-.23a7.42,7.42,0,0,1-.85-1,11.32,11.32,0,0,1-1.88-4.21c-.9-3.88-.52-10.07,4.75-19.18,4.88-7.58,9.58-10.35,13-11.24a10.74,10.74,0,0,1,4.14-.28,7.8,7.8,0,0,1,1.13.23l.3.1.07,0Z"/><path class="cls-104" d="M110.37,124,110,129.1,93.36,139h0l-.1.06-.35.19a3.17,3.17,0,0,1-1,.3.87.87,0,0,1-.82-.3,2.44,2.44,0,0,1-.25-1.69l2.9-10.84,4.72-13.39H101a13.38,13.38,0,0,0,1.49,6.54,7.91,7.91,0,0,0,3.3,3.22,9.14,9.14,0,0,0,3.3.93,8.86,8.86,0,0,0,1.08,0Z"/><path class="cls-105" d="M102.07,118.12s2.1,3.71,4,4.48,4.1,1.37,4.1,1.37v5.2l-8.1,4.38Z"/><path class="cls-106" d="M100.66,113.05a3.07,3.07,0,0,0-.62.32,4.42,4.42,0,0,0-1.69,2.76,17.77,17.77,0,0,1-.62,1.83c-.33.85-.74,1.89-1.21,3.06l-.37.9c-.86,2.15-1.87,4.64-2.78,7.06A63.88,63.88,0,0,0,91,136.4a8.65,8.65,0,0,0-.3,2.44,1.66,1.66,0,0,0,.1.52.88.88,0,0,1-.2-.09c-.64-.28-1.56-.76-2.67-1.37-2.22-1.22-5.17-3-8.13-4.8s-6-3.72-8.23-5.22c-1.14-.74-2.09-1.39-2.79-1.88-.34-.25-.62-.45-.82-.61a1.78,1.78,0,0,1-.23-.19s-.07-.06-.07-.07,0,0,0,0,0-.12,0-.21a6.19,6.19,0,0,1,.16-.76c.17-.63.43-1.48.77-2.49.69-2,1.66-4.65,2.69-7.3s2.09-5.32,3-7.43c.43-1,.82-2,1.13-2.66a13.86,13.86,0,0,1,.65-1.37,12,12,0,0,1,1.61-2.09c.26-.28.49-.51.65-.66l.15-.14Z"/><path class="cls-107" d="M102.5,130a6.73,6.73,0,0,1-2.3,2.66,2,2,0,0,1-3.34-1.7,7.39,7.39,0,0,1,3.11-6.09,2,2,0,0,1,3.34,1.7A6.8,6.8,0,0,1,102.5,130Z"/><path class="cls-108" d="M101.79,129.53a4.12,4.12,0,0,1-1.4,1.62,1.41,1.41,0,0,1-1.39.21,1.44,1.44,0,0,1-.64-1.25,4.2,4.2,0,0,1,.49-2.09,4.12,4.12,0,0,1,1.4-1.62,1.41,1.41,0,0,1,1.39-.21,1.45,1.45,0,0,1,.65,1.25A4.2,4.2,0,0,1,101.79,129.53Z"/><path class="cls-109" d="M97,128.46l-2.48-1.33-2.14-1.23"/><path class="cls-110" d="M78.64,106.6l16.14,9.16a1.87,1.87,0,0,1,.81,2.32l-6.14,15.48a1.87,1.87,0,0,1-2.69.93L70.7,125.1a1.89,1.89,0,0,1-.8-2.32L76,107.54A1.88,1.88,0,0,1,78.64,106.6Z"/><path class="cls-111" d="M79,106.68l15.72,8.7a1.78,1.78,0,0,1,.79,2.21l-6.27,15.9a.44.44,0,0,1-.63.22l-16.16-9.14a1.78,1.78,0,0,1-.78-2.19l5.88-15.17A1,1,0,0,1,79,106.68Z"/><path class="cls-112" d="M88.11,120.12c-.9,2.3-2.61,1.32-3.86,2.25-1.64,1.24-2,3-2.76,3.59a.8.8,0,0,1-1.17-.26c-.67-1.22.17-3-.57-5.84-.45-1.9-2.2-2.8-1.78-5.39a3.84,3.84,0,0,1,2.14-3.11,5.64,5.64,0,0,0-.52,3c.28,1.25,1.6,2.61,2.13,3.74a4.73,4.73,0,0,1,.46,2.38,2.79,2.79,0,0,1,1.43-1.28c.92-.33,2.54-.07,3.32-.73s1-2.83,1-2.75a5.79,5.79,0,0,1,.16,4.34Z"/><path class="cls-113" d="M132.48,90.19l5.14,3.12a10.37,10.37,0,0,0-1.32.17,15.26,15.26,0,0,0-5.36,2.33c-4.35,2.87-9.92,9-14.93,21.86l0,.1,0,.09,4.93,8.23-9.32,17.79-5.81-3.32a1.65,1.65,0,0,1-.83-1.43V120.07a12.06,12.06,0,0,1,.35-2.87l1.36-5.51h0l0,0a1.83,1.83,0,0,1,.06-.19l.26-.72c.24-.62.59-1.52,1.06-2.58a50.69,50.69,0,0,1,4.29-7.79c3.85-5.66,9.65-11.2,17.51-11A5.25,5.25,0,0,1,132.48,90.19Z"/><path class="cls-114" d="M143.35,127.16h0l-29,17-.06,0-.25.05a3.82,3.82,0,0,1-.81.06,2,2,0,0,1-1.72-.84l.38-22.88v0s0-.08,0-.15.06-.33.11-.58c.1-.51.26-1.24.5-2.14a43.5,43.5,0,0,1,2.52-7c2.5-5.43,6.83-11.77,14.15-15.45,3.67-1.84,6.46-2.18,8.59-1.69a7.73,7.73,0,0,1,4.68,3.4,15.23,15.23,0,0,1,2,4.82,16.21,16.21,0,0,1,.34,1.75c0,.22,0,.39.07.51s0,.1,0,.13v0h0v19.94a2.69,2.69,0,0,1-.62,2.26,3.82,3.82,0,0,1-.61.57l-.21.13,0,0Z"/><path class="cls-115" d="M140.78,123.25h0l-21.09,12.38h0l-.18,0a2.51,2.51,0,0,1-.58,0,1.47,1.47,0,0,1-1.25-.61l.27-16.62v0l0-.11c0-.1,0-.24.08-.43.07-.36.19-.89.36-1.55a31.71,31.71,0,0,1,1.83-5.08,23,23,0,0,1,10.28-11.22c2.66-1.34,4.69-1.59,6.23-1.23a5.6,5.6,0,0,1,3.4,2.47,11,11,0,0,1,1.46,3.5c.12.51.2,1,.25,1.27,0,.16,0,.29,0,.37a.41.41,0,0,1,0,.1v0h0V121h0v0a2,2,0,0,1-.45,1.64,3.09,3.09,0,0,1-.44.41l-.15.1h-.06Z"/><path class="cls-116" d="M137.48,171.66l.43-.16-.07,11.36a1.72,1.72,0,0,1-2.5,1.53l-10.1-5.54Z"/><path class="cls-117" d="M161.92,131.83v.06l-22.47,13.43-.2-.49c-.19-.46-.46-1.09-.81-1.78a16,16,0,0,0-2.81-4.17h0l0,0L118,127.93l23.82-13.67,16.49,10.29a10.51,10.51,0,0,1,3.16,4.91,11.07,11.07,0,0,1,.4,1.83C161.9,131.52,161.91,131.71,161.92,131.83Z"/><path class="cls-5" d="M117.48,128.12l17.69-10.94-.34,9.35-.28.42Z"/><path class="cls-5" d="M124.41,124.66l17.68-10.94-1.84,10.94H124.41Z"/><path class="cls-118" d="M137.75,187.29l-.89-41.19L162,132l1.77,38.55h0v0a.57.57,0,0,1,0,.12,2.25,2.25,0,0,1-.11.43,2.56,2.56,0,0,1-.9,1.17c-.26.19-2,1.24-4.4,2.71s-5.55,3.35-8.64,5.2l-8.43,5-2.75,1.65Z"/><path class="cls-119" d="M117.7,127.84l16.93,10a11.56,11.56,0,0,1,3.6,4.4,16.74,16.74,0,0,1,.8,1.89c.09.24.15.43.19.57a.85.85,0,0,1,0,.15v0l-.22,40a3.43,3.43,0,0,1-.78,2,2.2,2.2,0,0,1-1.28.69,3.68,3.68,0,0,1-1.25,0,2,2,0,0,1-.4-.09l-.11,0h0l-12.92-7.14,2.89-1.7,8.12,4.67a1.83,1.83,0,0,0,1.16.28,2.17,2.17,0,0,0,1-.39,1.72,1.72,0,0,0,.64-1.23h0v-36a5.52,5.52,0,0,0-.43-2.29,7.69,7.69,0,0,0-3.78-4L117.7,132Z"/><path class="cls-120" d="M118.1,154.15V163a.77.77,0,0,0,1,.72l1.22-.45a.77.77,0,0,1,1,.72v16.59"/><path class="cls-120" d="M130.63,146.3v8.83a.76.76,0,0,0,1,.72l1.22-.45a.77.77,0,0,1,1,.72v17.39"/><path class="cls-120" d="M167.59,124.14v11.4a.77.77,0,0,0,1,.72l1.22-.45a.77.77,0,0,1,1,.72v14.63"/><circle class="cls-121" cx="188.15" cy="34.87" r="1.59"/><circle class="cls-122" cx="185.5" cy="24.11" r="0.98"/><circle class="cls-123" cx="98.46" cy="57.07" r="0.98"/><path class="cls-124" d="M92.8,59.73a1.64,1.64,0,1,1-1.63-1.54A1.6,1.6,0,0,1,92.8,59.73Z"/><path class="cls-125" d="M112.06,27.71a1.64,1.64,0,1,1-1.64-1.54A1.6,1.6,0,0,1,112.06,27.71Z"/><path class="cls-126" d="M25.78,74a.8.8,0,1,1-.8-.75A.77.77,0,0,1,25.78,74Z"/><path class="cls-127" d="M21.14,59.91,20,60.82a.19.19,0,0,0,0,.3l1.15.85.05.06L22,63.42a.19.19,0,0,0,.32,0L23.2,62l.05-.05,1.17-.86a.19.19,0,0,0,0-.3l-1.18-.91-.05,0-.89-1.36a.19.19,0,0,0-.32,0l-.81,1.35A.1.1,0,0,1,21.14,59.91Z"/><path class="cls-128" d="M188.92,50.79l-1.16.91a.19.19,0,0,0,0,.3l1.15.85s0,0,.06,0l.8,1.39a.19.19,0,0,0,.32,0l.89-1.4s0,0,.05,0L192.2,52a.19.19,0,0,0,0-.3L191,50.79l0,0-.9-1.36a.19.19,0,0,0-.32,0L189,50.74A.1.1,0,0,1,188.92,50.79Z"/><path class="cls-129" d="M90.22,20.18l-1.16.91a.19.19,0,0,0,0,.3l1.15.85a.1.1,0,0,1,0,.06l.81,1.38a.19.19,0,0,0,.32,0l.89-1.4s0,0,0-.05l1.17-.85a.19.19,0,0,0,0-.3l-1.18-.91,0-.05-.89-1.36a.19.19,0,0,0-.32,0l-.81,1.35A.12.12,0,0,1,90.22,20.18Z"/><path class="cls-130" d="M13.87,96l-.68.54a.11.11,0,0,0,0,.18l.68.5,0,0,.48.82a.11.11,0,0,0,.19,0l.53-.82s0,0,0,0l.69-.51a.11.11,0,0,0,0-.18l-.7-.54,0,0-.53-.81a.11.11,0,0,0-.19,0l-.48.8S13.89,96,13.87,96Z"/><path class="cls-131" d="M108,36.73l-.73.58a.11.11,0,0,0,0,.18L108,38l0,0,.51.87a.11.11,0,0,0,.2,0l.56-.88,0,0,.74-.54a.11.11,0,0,0,0-.18l-.74-.58,0,0-.56-.85a.12.12,0,0,0-.2,0l-.51.85S108,36.73,108,36.73Z"/><path class="cls-132" d="M28.9,15a1.83,1.83,0,1,1-1.83-1.73A1.78,1.78,0,0,1,28.9,15Z"/><path class="cls-133" d="M44.75,13.36a.89.89,0,1,1-.89-.84A.87.87,0,0,1,44.75,13.36Z"/><path class="cls-134" d="M139.58,115.87h0v.06l-5.29,1.86-6.15-11.66,4.49-2.58c3.3,1.23,5,4.27,6,7a21.45,21.45,0,0,1,.84,3.69c.06.48.1.88.12,1.16s0,.24,0,.32v.1Z"/><path class="cls-135" d="M127.8,105.9a10,10,0,0,1,5.64,6.58,17.88,17.88,0,0,1,.75,3.42c.05.45.08.81.09,1.07s0,.22,0,.29v.1h0v9.52l-6.49-4.29Z"/><path class="cls-136" d="M134.62,126.94l-.27-9.35,5.28-1.66v8.84Z"/><path class="cls-137" d="M86.4,93l10.87,1.08L93,84c1-.55,2-1.1,2.94-1.58.13-.06.47.18.58.36,1.42,2.48,2.81,5,4.24,7.44a1.5,1.5,0,0,0,.87.65c2.8.65,5.62,1.26,8.44,1.86.33.08.56.16.46.59-.22,1-.42,2-.64,3.14L99.06,95.4l4.24,10.07c-1,.54-2,1.09-2.94,1.56-.13.06-.47-.19-.58-.38-1.07-1.83-2.1-3.68-3.14-5.52a2.87,2.87,0,0,1-.28-.48A3.61,3.61,0,0,0,93,98.17c-2.24-.34-4.42-.94-6.63-1.4-.56-.11-.76-.34-.59-1C86,94.89,86.2,94,86.4,93Z"/><path class="cls-138" d="M92.54,40.88l5-3.21-5.19-2.84c.24-.57.46-1.12.71-1.66,0-.07.26-.08.37,0,1.44.57,2.87,1.16,4.31,1.72a.8.8,0,0,0,.59,0c1.41-.67,2.81-1.37,4.2-2.06.17-.09.3-.13.4.09l.79,1.55-5,3.21,5.2,2.84c-.24.57-.46,1.12-.72,1.65,0,.07-.26.08-.38,0l-3.19-1.28-.28-.11a2,2,0,0,0-2.25.07c-1.06.61-2.18,1.09-3.28,1.65-.27.14-.44.11-.58-.21C93,41.8,92.79,41.36,92.54,40.88Z"/><path class="cls-139" d="M10.3,35.18l5-3.22-5.19-2.83c.24-.58.46-1.13.71-1.67,0-.07.26-.08.37,0,1.44.57,2.87,1.16,4.31,1.72a.8.8,0,0,0,.59,0c1.41-.67,2.8-1.36,4.2-2.06.17-.08.29-.12.4.09.25.51.5,1,.79,1.55l-5,3.22,5.2,2.83c-.25.57-.47,1.12-.72,1.66,0,.06-.27.07-.38,0l-3.2-1.28a1.53,1.53,0,0,1-.27-.11,2,2,0,0,0-2.25.07c-1.06.62-2.19,1.1-3.28,1.65-.27.14-.44.11-.58-.21S10.54,35.66,10.3,35.18Z"/><path class="cls-140" d="M14.86,35.12a2,2,0,0,1,2.25-.07,1.53,1.53,0,0,0,.27.11Zm0,0c-.68.4-1.39.74-2.1,1.08m2.1-1.08-2.1,1.08m0,0c-.4.19-.79.37-1.18.57ZM10.2,35l-.15.09.08.15c.09.17.17.34.26.5s.3.58.44.88a.63.63,0,0,0,.35.38.7.7,0,0,0,.49-.08h0l1.16-.57c.71-.34,1.44-.68,2.12-1.08h0a2.47,2.47,0,0,1,1-.37,1.6,1.6,0,0,1,1,.29h0a1.88,1.88,0,0,0,.3.12l.82.33,2.37.95h0a.77.77,0,0,0,.3,0l.15,0a.3.3,0,0,0,.17-.14h0c.2-.41.37-.84.55-1.27.06-.13.11-.26.17-.4l.07-.16-.15-.08L16.85,31.9l4.7-3,.14-.09-.08-.16c-.07-.14-.14-.29-.22-.43-.19-.38-.38-.74-.56-1.11a.42.42,0,0,0-.33-.26.53.53,0,0,0-.32.08q-2.1,1-4.2,2.06a.61.61,0,0,1-.44,0l-2.27-.91-2-.81a.63.63,0,0,0-.3,0l-.15,0a.34.34,0,0,0-.16.14h0q-.28.61-.54,1.26l-.18.41-.06.16.15.08L14.9,32Z"/></g></g></svg>