<svg xmlns="http://www.w3.org/2000/svg" width="200" height="200" viewBox="0 0 200 200"><path d="M12.7,120c-.3-.8-.7-3.7.3-1.8s4.4-1.7,4.6,2.8c-.9-6.8-3.7-20.2-.9-24,.6,9.5,6.7,17.2,9.5,25.8-1.4,4.5,6.5,15,2.7,5.7a92.5,92.5,0,0,0,21.5,24.7c-6.2-3.6-9.6-5.1-11.8,3.3-9.9-5.2-16.9-22.1-20.9-33.5C16.7,121.2,13.4,122.9,12.7,120Z" style="fill:#1b5364"/><path d="M187.7,116.8a90.7,90.7,0,0,1-33,53.7c.5-1.6,2.9-2.6,3.9-4.1-26.8,18.5,14.2-17.6,15.9-26.7,5.5-8.2,6-20.5,9.9-28.1,6.2,1.2.2,11.2-.1,15.4C185.7,124.3,185.5,118.4,187.7,116.8Z" style="fill:#344468"/><path d="M150.9,172.2c2.8-2,5.4-4.4,8.2-6.2-19.6,20.4-50.3,26.7-77.3,21.8.5-.8,1.9-.2,2.7-.2-1.5-.2-1.2-1.1-1.2-2.2-1.5.9-1-1.4,0-1.8s4.3-.1,4.7,1.5c-1.1,4.8,6.3,2.6,9.3,3.4s1.1-1.7.9-2.9.8,1.5,1,2.2c-.2-2.4,2.4-4.2,2.7-1,.4-2.6,6-2.9,5.4.1.1-.5.3-3.1,1-1.4,1-2.6,2.4.4,1.9,1.9.7-.1.4-2.9,1.3-1.8.4,3.5,12.8.5,13.8-3.4,5.3-3.6,14.1-7.3,19.8-9.5-.5-1.5,1.2-1.1,1.7-.3-1.6-2.6,1.7-1.1,1.1.8S150.1,172.2,150.9,172.2Z" style="fill:#637994"/><path d="M12.7,120c1.7,3,5.8.8,5.8,5.2a91.3,91.3,0,0,0,15.7,28.9c1.9,2.9,8.5,7,2.1,7.9A86,86,0,0,1,12.7,120Z" style="fill:#283750"/><path d="M77.4,186.8c-7.4-2-41.1-14.9-23.2-14.9,8.4,6.8,21.7,7,26.5,14.8C79.7,187.5,78.4,186.6,77.4,186.8Z" style="fill:#9eadbd"/><path d="M12.9,83A88.9,88.9,0,0,1,31.2,44.6c-.1,1.8-2.5,2.4-.1,3.5.4.8-.4.5-.7.5,1.3,2.4-1,.1-1.9.3A3.1,3.1,0,0,0,31.9,50,97.1,97.1,0,0,0,17.4,80.7c.1-1.9.6-4.1-2.2-3.7S14.1,81.6,12.9,83Z" style="fill:#9aacbe"/><path d="M16.8,118.7c-1.8.1-3.8,1.3-4.3-1.1l-.2.2c-.5-3.4-2.6-13.9-1.2-14.1C13.1,82,16.6,112.9,16.8,118.7Z" style="fill:#465e7d"/><path d="M14.9,100.2c.4-2.2-.2-3.8-2.4-3.6s-.4,5.5-1.4,7.7c-.2-.4-.2-.8-.4-1.2v1.2a67.4,67.4,0,0,1,.2-11c.8.8-.1,3,.1,4.2.7-3.6.9-22.2,5.8-20.4,2.5,4.3-1.7,11.1-1.2,16.4.9-6.9,2.2-17.9,5.6-22.5C16.8,76.9,15.1,110.9,14.9,100.2Z" style="fill:#7b92a9"/><path d="M127.4,14.8a87.8,87.8,0,0,1,36.9,22.9c-.2,1-1.5-.3-2.1-.5C158,33.8,139.3,20.7,134.9,19,133.3,17.9,123.2,14.4,127.4,14.8Z" style="fill:#5a7391"/><path d="M170.1,44.3a87.6,87.6,0,0,1,18.6,44.6C184.9,75.1,177.4,58.1,170.1,44.3Z" style="fill:#99acc0"/><path d="M31.9,50c-1.3,1.1-3.1-.4-3.5-1.3s1.5.7,2.3.9-.6-.7-.6-1.2h1c-3.5-2.6,3-6.1,4.6-8.9-1.6,2,2,4.3-1.1,2.5-.8-.2,1.5,2.9,3.2.9C36.2,45.3,33.8,47.8,31.9,50Z" style="fill:#8599ae"/><path d="M37.8,43c-1.6,2-3,.2-3.7-1.1a3.3,3.3,0,0,1,1.8.8c-2.8-3.2,3.6-6.2,5.5-8.5-2,1.9-.7,4.4,1.7,3.7A36.6,36.6,0,0,1,37.8,43Z" style="fill:#617892"/><path d="M53.6,171.7c-2.4,4-8.8-2.1-3.1,3.1-3.9-1.9-13-10.6-4.6-4.6.8.7.7-1.1,1-1.5S52.1,170.6,53.6,171.7Z" style="fill:#798ea4"/><path d="M44.5,169.4c-.8-.6-1.5-1.5-2.5-1.7v.6A88.8,88.8,0,0,1,18,136c5.8,8.2,16.5,33.4,27,29.1.8.5,1.6,1.3.5,2.1S45.6,169.3,44.5,169.4Z" style="fill:#6c7486"/><path d="M75.4,14.1c8.7-2.7,17.8-3.5,27-3.5,2.1,2.7-3.5.8-5.5,1.2C89.7,11.3,82.3,14.2,75.4,14.1Z" style="fill:#7695b4"/><path d="M40.9,34c-6.4,3.4,19.9-16.9,25.2-15.9-5.5,3.1-12.2,5.7-17.5,9.8C57.2,22.8,43.6,31.8,40.9,34Z" style="fill:#526b8a"/><path d="M170.1,44.3c.1,2.4,1.8,4,2.5,6-3.2-4.5-7.9-8.7-10.7-13.4.8.2,1.8,1.5,2.4.8Z" style="fill:#778ea9"/><path d="M77.4,186.8c.8-.6,2.1.5,3.2-.1-4-.3-.3-2.7-2.6-4.2a18.7,18.7,0,0,1,5.2,1.2c-.7.7-1.1,2.7.3,1.3-.1,1.6-.4,2.2,1.5,2.6A19.6,19.6,0,0,1,77.4,186.8Z" style="fill:#7d92a8"/><path d="M187.3,87v-.8c3.1,5.5,1.9,12.5,1.9,18.6-1.3-.1-.2,3-1.2,3.2A133.7,133.7,0,0,0,187.3,87Z" style="fill:#657b96"/><path d="M66.2,18.2c-1.1.2-2.3,1.1-3.4.7C74.5,13.3,89,11.2,101.5,12,89.5,11.7,77.4,14.2,66.2,18.2Z" style="fill:#607fa1"/><path d="M127.4,14.8l-1.6-.2c3.2,1.8,6.7,2.8,9.7,4.7-5.5-1.7-11.7-3.1-16.8-5.4,3.4.2,6.9,1.7,10.2,2.7-4.4-2.3-9.9-3-14.2-4.8A71,71,0,0,1,127.4,14.8Z" style="fill:#86a1bd"/><path d="M122.9,14.9c-6.3-1.7-13.1-2.6-19.3-4.3C109,11.1,121,12.1,122.9,14.9Z" style="fill:#ccd9e6"/><path d="M188.1,108.1a23.2,23.2,0,0,1,.7-3.8c1.4,6-1.7,12.5-3.2,18.4C186.5,117.9,187.4,112.9,188.1,108.1Z" style="fill:#475c7a"/><path d="M103.6,10.6c5.1,1.1,10.4,1.9,15.4,3.3-4.6-1.5-14.1-.2-16.6-3.3Z" style="fill:#9cb2ca"/><path d="M13.1,83c-1.2,5-1.5,10.2-2.1,15.3-.6-11.8,2.7-23.6,7.5-34.3-3.8,8.9-6.6,18.4-7.2,28.1C12.2,89.2,12.2,85.7,13.1,83Z" style="fill:#9aa9bb"/><path d="M39.2,34.9c.2.6.5-.1.7-.1C33.1,41.3,27,48.3,22.4,56.4,23.1,53.4,35,38.2,39.2,34.9Z" style="fill:#a5b4c5"/><path d="M122.9,14.9h.6c-4.6-2.2-9.8-2.9-14.8-3.7a56.3,56.3,0,0,1,20.8,5.8C127.3,16.4,125.1,15.5,122.9,14.9Z" style="fill:#9cb2ca"/><path d="M87,188.7c5.6-.1,11.5.7,17.1.8A81.7,81.7,0,0,1,87,188.7Z" style="fill:#377b96"/><path d="M107.4,189.3l-.4-.2c5.6-.4,11.1-1.9,16.6-2.7A88.7,88.7,0,0,1,107.4,189.3Z" style="fill:#377b96"/><path d="M40.9,34c2.2-1.6,4.2-3.5,6.5-4.9a33.7,33.7,0,0,1-6.2,5.1l.4-.6Z" style="fill:#a5b4c5"/><path d="M19.2,137.9c-1.9-2.5-2.6-5.6-3.8-8.4Z" style="fill:#465e7d"/><path d="M29,128.5c.2,1.5,1.4,2.5,1.8,3.9-5.5-.4-12.9-33.8-11.3-39.9,1.9,3.9,2.8,10.4,7.7,12,17.8,1,17-11.6,10.7,10.6C37.4,121.6,24,121.5,29,128.5Z" style="fill:#2f718d"/><path d="M36.6,118c-.2-1.7,3.3-2,2.3-.3s-.5.5-.2,1-.8.9-.2,1.3-1.2,1.4-.6,2.4-1.6.9-1.2,2.1,3.4,1,.2,3.9c-.5,1.3,3-1.1,3.1,1,3.3,2.1.3,1.4.8,3.1,2.4-.2,2.4.4,2.1,2,2.1-.2.4,1.9,2,2.1s5.1,2.1,3.5,3.5,2.4,1.4,2.9,2.7,1.4,1.7,2.4,1.7.6.2.5.6,1.5.5,1.5,1.7,1.4-.3,1.7.9,3.4,1.1,1.8,2.4c-.1-.9-1.3-.9-2-1.4s-1-.7-1.9-1.1-.1-1.6-1.1-1.1-1.2-1.6-2.4-1.8-.9-2-2-2.1-1.8-1.5-3.4-1.6,1.1-1.2.2-1.5-1.6-1.8-3.1-2.6-2.6-.9-2-2.4-4.6-.6-1.6-2.9c.3-1.2-2.1-.8-2.4-2-1.1.3-3.2,1.9-2.5,3s-1.3,3.3,1.6,3.2.6,3,2,3.3a2.2,2.2,0,0,1,2.4,1c3.1-.3,1.8,0,2,1.4,2.1.6-1.1,1.5-.3,2.1s5.8-1.3,3.1,1.4c-.1,1,4.4-.5,3.4,2s2.2.7,2.4,2.3,1,2.2,1.8,3.8,5.3-.9,2.9,1.7c-.6.7.9.6.6,1.4s1.4.2,1.1,1.4-5.6-2.2-3.3-2.3c-.8-1.5-3.8-.4-4.7-2.6.5-.7.7-2.7-.1-2.8a2,2,0,0,1-2.4-1.3c.1-.5.1-.5-.4-.6s.5-1.7-.9-1.7-2.2-1.9-4.1-1.3c-2.7-1.5,3-3.2-3.5-3.5-1.3-.3,1.1-1.4-.1-1.4-2.9.7-1.1-2.4-3.5-2.3-1.9-3.5-5.8-5.5-1.8-8.8-.4-2,1.7-2.7,1.4-4.6S39.4,120,36.6,118Z" style="fill:#694c2e"/><path d="M54,155.5l.2.3c-6.9-1.4-10.5,4.2-6.6,10-8.5-5.2-16.1-14.2-20.8-23C47.1,174.4,30.8,136.9,54,155.5Z" style="fill:#27647f"/><path d="M19.6,92.4c0,7.4.1,14.7,2.6,21.7-3.6-5.3-4.4-11.6-5.8-17.7-1.8,7.9.9,18.5,1.1,25a83.8,83.8,0,0,1-2.6-21.2c.2,1.2,0,2.4.5,3.4.5-10.8,1.1-22.8,6.2-32.5A95,95,0,0,0,19.6,92.4Z" style="fill:#38737f"/><path d="M29,128.5c-1.7-2.6-2.1-4,1-5.5s3.8-3.8,5.6-3c1,2.3-2.4,2.3-2.7,6.6-.4.3-2.1.5-1.4,1.3S29.6,131,29,128.5Z" style="fill:#aaaca6"/><path d="M36.6,139.8c1.3.1,3.6-.1,1.7,1.4a11.9,11.9,0,0,1,4.2,1.1c-3.2,3.5,1.1,1.4,1.6,3.3s4-.3,2.4,2.1c1.7,0,1,1.9,2.7,2.2s2,1.9.8,2.8A68.3,68.3,0,0,1,36.6,139.8Z" style="fill:#4c270c"/><path d="M29.6,129.6a1.6,1.6,0,0,0,1.5.2c-.5-.7,1.3-1.3.1-2.1s2.2.4,2.2-4.1c6.9-7.5-4.7-.9-5.9,1.9.3-3.2,6.6-4.9,9.1-7.5.7-.4,1.5,1,.8,1.3s.8,1.2-.2,1.8-3,2-2.5,4.2-2.1,1.7-1.3,3.3-2.6,1.6-2,3.9Z" style="fill:#867c6c"/><path d="M26.8,142.8c3.4,8.3,15.5,17.8,17.6,21.9-10.7-8.8-19-21.1-24-34.2C22.8,134.5,24.2,139,26.8,142.8Z" style="fill:#5f879d"/><path d="M35,137.8c1.1-.5,2.5.9,1.3,1.6A18.3,18.3,0,0,0,35,137.8Z" style="fill:#4c270c"/><path d="M150.9,172.2c-2,1.4-3.1,2.4-3.8-.8-1.2-1.2-.3,1,0,1.5s-2.6-1.8-1.7.1c-.8-.8-1.2-.6-1.9,0-5.5,4.5-14,4.8-18.6,10.2-2.3,3.3-12.5,6.4-13.8,2.2-.3.7-.3,2.1-1.1,2.3s.7-2.9-.6-3-.9.5-1,1.4-.3-.7-.5-1.1a9.5,9.5,0,0,0-.5,2.3c-1-.7.5-2.7-1.4-2.3s-3.9-.2-4.1,2.2c-.4-3.7-2.7-1.6-2.7,1.1a21.6,21.6,0,0,0-.5-2.7c1.4,5.2-6.6,2.4-10.4,2.2-.9-2.6-.1-3.9-3.9-4,1.6-.4,3.5.2,5.3.1-9.5-1.1-6.5-.5-3.8-7.5-1.1-8.1,5-8,11.3-6.8,19.7.2,38.8-6.5,54.1-22-4.2,4.1-8.3,12-14.6,13.1,1.7,3,12.6,5.1,8.4,9.1,4.1.2,11.2-8.5,15.7-11.4C159.7,163.2,143.7,169.1,150.9,172.2Z" style="fill:#377b96"/><path d="M155,164.5a82.2,82.2,0,0,0,5.7-6.1c-5,4.2-10,10-16,12.1,4.3-4.8-5.5-6.4-8.3-9.8,6.8-1,9.9-8.9,15-13,11.7-11.7,7.8-11.9,10.4-25.7,1.6-4.6,3.4-9.4,2.9-14.3.6-1.1-1.4-1.6-.6-2.6-2.1-1.7-2-1.6-.9-4.3s-4-6.5-.7-4.1c17.9,10.6,27.4-15.2,17.6,28.8,3-8.7,3.3-18.6,3.9-27.5C185.4,122.8,173.9,148.3,155,164.5Z" style="fill:#337691"/><path d="M183.3,112.2A74.7,74.7,0,0,0,184,98c-2.6-7,5.7-5.9,2.6-4.4,3.3,5.5,1.1,15.3.2,21.7A2.4,2.4,0,0,0,183.3,112.2Z" style="fill:#516a87"/><path d="M186.8,115.3l.9-6.2a.4.4,0,0,1,0,.5c.2-.7-.1-1.7.4-2.2a80.3,80.3,0,0,1-4.2,20.6A93.3,93.3,0,0,0,186.8,115.3Z" style="fill:#929dae"/><path d="M83.6,182.8c2.2.4,4.4.6,6.5,1.2a36,36,0,0,1-12.2-1.6C79.9,182.6,81.8,182.2,83.6,182.8Z" style="fill:#5f9faf"/><path d="M109.8,187.6c-1.1,1.3-1.9-1.3-.8-1.6S109.4,187,109.8,187.6Z" style="fill:#377b96"/><path d="M39.6,160.3c14.5,17-14-5.4-15.2-13C28.8,151.1,33.1,164.7,39.6,160.3Z" style="fill:#475f7d"/><path d="M81.5,182.4l.3.4c-11.2-1.2-22.9-6.7-31.3-13.7C60.1,174.4,70.5,180,81.5,182.4Z" style="fill:#7bbbc5"/><path d="M37.8,43c2.9-2.4,5.4-6.1,8.7-7.7-17.1,14.9-29.1,36.2-31,59.1C16.2,75.3,25,57,37.8,43Z" style="fill:#eef3f5"/><path d="M43.4,38.3c1-.8,1.8-2,2.9-2.5-7.5,6.2,17,13.7,17.9,15.9-21.2-.8-12.1-7.5-22.1-8.5C18.3,56,10.5,128.3,49.4,90.1c-.7,4.7-7.1,6.7-7.3,12.1-.3,1-.5-.8-.2-1.1-21.1,14.8-26.1-14-20.3-29.9-4.2,9-5.6,19.1-6.1,28.9C15.6,76.6,26.3,54.2,43.4,38.3Z" style="fill:#48818b"/><path d="M43.4,38.3C34.1,47.9,25.8,58.4,21.1,71A79.1,79.1,0,0,1,43.4,38.3Z" style="fill:#5094a8"/><path d="M13.6,96.3c-.6-.2-1.3.2-1.7-.4A4.1,4.1,0,0,1,15,96C14.6,96.5,14,96.1,13.6,96.3Z" style="fill:#465e7d"/><path d="M188.1,107.4c-.1.9-.2,1.7-.4,3.1,2.9-27.7-8.5-55.8-27.8-74.8A88.8,88.8,0,0,1,188.1,107.4Z" style="fill:#c3ccd6"/><path d="M159.9,35.7l.3.6a105,105,0,0,0-29.4-18.5A82.8,82.8,0,0,1,159.9,35.7Z" style="fill:#99acc0"/><path d="M63.5,51.6l1-.2c-10-4.1-29.9-11.8-11.9-20.6-3.4,2.2-6.6,4.8-9.7,7.1A51.3,51.3,0,0,1,59.4,26.7c-16.1,8.1-4.4,10.8,3.5,20,6.8,6.8,16.8,7,25.5,6.2C80.6,58.4,71.7,52.5,63.5,51.6Z" style="fill:#2d6d88"/><path d="M48.3,33.4c-2.3,1.1-4.6,5.5-7,4.5-.9-1.1-2.1-2.1-.2-3.4,3.3-3.2,7.3-5.8,11-8.6-1.5.5-2.6,1.8-4,2.4a54.4,54.4,0,0,1,11-6.8C56.8,25.7,42.8,28.1,48.3,33.4Z" style="fill:#3c5070"/><path d="M53.1,170.4a12.6,12.6,0,0,0-2.6-1.3,16.4,16.4,0,0,0,2.5,2.1c-3.4-2.4-7.1-4.3-9.5-7.8A84.3,84.3,0,0,1,53.1,170.4Z" style="fill:#5f9faf"/><path d="M45.8,165.9l3,2.4c-3.7-.5-.4,4.4-4.3,1.1.4-.5,1.3-.8.7-1.7S46.4,166.6,45.8,165.9Z" style="fill:#5f879d"/><path d="M130.8,17.8l2.4,1.1c-1,.4-3-1.3-3.8-.4.5,6.4-9.5-1.1-13.6-.6-8.8-.8,1-4.8-14.3-6.1C111.6,11.7,121.3,14.5,130.8,17.8Z" style="fill:#5a7391"/><path d="M48.3,33.4c-8-9.2,52.1-30.3,53.1-17.8C83.4,17.1,63.4,21.2,48.3,33.4Z" style="fill:#293853"/><path d="M49.1,32.8a83.4,83.4,0,0,1,51.1-16.6c3.7-1.9-1.2-5.1-4.2-4.3,3.7.2,15.2-1,11.4,4.8-1.5,0-6.5-.8-6.1.3,2.7.5-.2,2.3.5,3.5-3.1,4.2.3,12,0,17.3-3.1,16.4,4.5-9,7.6-12.9-7.3,27.7-20.4,35.3-48,26.9,8.8-1.1,18,7,26.9,1.1C74.6,56.1,63.4,49,54.7,39c-8.8-6.2-1.2-8.2,4.7-12.2C55.7,28.2,52.5,30.7,49.1,32.8Z" style="fill:#1f5b71"/><path d="M41.9,102.5c.7-5.3,7.1-10.5,8.8-13.4,1.8,6.2,1.8,1,3.9,2s3.6-3.5,6.6-1.7c.9,0-1.1-1.4-1.2-1.9.7-2.4,3.9,3.6,4,5.2s2.6-.3,2.2,1.5-1.9,6.7-4.8,3.7c-2.8,1.3-3.5-3.7-5.2-3.4-.4,2.9-3.2,1.2-4.1,2.3-.7,4-3.6,1.1-3,6.6-.2,3.4-1.9,6.5-1.6,9.6-2,2,4,8.8,1.1,9.8-4.8-7.8-1-15.6-.3-25.6-2,.2-3.9,2.7-4,4.5-1.7.6-2.8,1.3-2.7,3.4s-2.3,3.4-.5,3.9-1.3.6-1.5,1.3c-3.7,8.5,1.6,3.3-.1,8.4.7,2.4-2.1,4.8-.2,6.8s-1.1,1.4-.3,1.9,4.7,3.3,2.5,4.2c-.4.2-.2.7.2.5,4.7.1-.4,1.7,3.6,2.6-1.9,2.1.8.9,1.3,2.4s3.4,1.2,2.8,2.3c-2.2,2.3.9-.8-2.7-1.2-.5-1-1.9-1.5-2.8-2,1-2.3-2.7-.8-.8-3.1-.9-.6-4.2-.1-2.2-1.6s-.1-1-.9-1.6c-.4-2.3-2.1-.7-3.5-1,1.3-1.8,2.6-2.4.3-3.7s1.4-1.7.8-3,2.1-1.4.5-2.5c.9-.5-.3-1.8.8-2.2s-1-.8-1.5-.8C38.2,111.7,40.4,107.3,41.9,102.5Z" style="fill:#5c4026"/><path d="M56.9,147.9c.2,1,1,1.1,1.7,1.3s.4,1.6,1.8.8.5,1.7,1.8,1.5.5.4.2.8,2.6-.8,2,1.4,2-.3,1.9,1.1,1.8.3,2.1,1.5,1.4.5,2,.9-.1,1.4.6,1,3.4,1.7,5.2,2.1,1.5.2.4-.7-.7-1.8-1.7-2.5c1.6-1.3,1.9,1.6,2.9,1.5s1,.8,1.9,1c2.3,2.3.8,1,3.4,1.3.6,1.8,2-.2,2.6,1.5s1.6,6-1.1,2.4c-.9-.5,1.6,3.4-.7,1.5-1.1,1-1.6,1.4-1.7-.7-.6,1.1-.9,1-1.4,0-3.6,2.7-27.8-6.7-23.9-12.1-1.3-.2-3.4,1.2-3.9-1.1,1.1,1.7,5.4-1.8,3.8-2.6C53,152.8,54.9,149.8,56.9,147.9Z" style="fill:#8d5521"/><path d="M56.9,147.9c-2.5,3.4-4,3.9.4,1.8.4,3.9-7.3,4.4-5.8-.3.2-1.8-3.1.7-2.6-1.8,1.7-4.4-5.9.1-2.3-3.8-1.8.4-6.2.6-3-1.7-1.3-.5-1.3-.8-.5-1.7-3.9.2-1.6-1.5-4.4-1.1s-.4-2.9-1.8-3.4A1.4,1.4,0,0,1,35,135c-.3-.5.7-1.4.5-2-2.4-.3.7-4,2.1-3.3s3.8,1.4,1.5,3c4.6,1,1.4,1.6,2.9,2.7s3,3.9,5.1,4.5c-2.2,1.7,4,1.9,4,4.3C53.1,145,54.6,147.5,56.9,147.9Z" style="fill:#7c5b37"/><path d="M58,158c.6.2,1.8,1.3.5,1.2-10.4.1-2.1,11.6,2.5,15.1-5.5-.9-12.6-7.5-17.6-11.5,1.4.9,2.6,2.1,4.1,2.9C41.6,158.5,51.9,151.9,58,158Z" style="fill:#44859b"/><path d="M75,157c2.3,0,.9,3.3,2.8,2.8-1.5,3-4.8-2.7-7.3-1.5-.2-2.1-3.4-1.8-4.4-3.6s-1.5,0-2.2-.3c1.1-1.8-.2-2.1-1.8-1.7.1-.3.8-1.1.1-1.1s-.7-2.5-2.5-1.2.6-1.6-1-1.4-1.4-1-1.7-1.6-1.4-1.9-2.8-1.6c.1-1.4-1.2-.9-1.7-1.4-.7-2.1-4.7-2.5-4.1-4.4.6.8,2.8-.5,1.5,1.2a6,6,0,0,1,3.7,2.8c2.4-.9,2,1.9,3.1,2.6,4.1,0,12.1,10.6,15,8C72.5,155.7,74.6,155.3,75,157Z" style="fill:#6c3911"/><path d="M54,155.5l-1.4-.9C53.7,153.1,56.3,156,54,155.5Z" style="fill:#4c270c"/><path d="M55.4,147.6c-.7-.1-.9-.7-1.2-1.2C55.6,145.8,55,147.2,55.4,147.6Z" style="fill:#8d5521"/><path d="M77.5,166c1.6.5,3.4.4,5,1h0c26.4,6.5,79-12.2,77.3-41.6,1-1.2.2-3.8,2.2-4.4-3.2,5.7,1.5,12.2-2.5,16.9A78.4,78.4,0,0,1,115,168.4h.7c-6.3,2.1-30.7-2.2-29.4,5,1.3,4.2-5,9.1-2.7,9.4-9.3-2.2-4-.7.3-3.7C89.8,168.7,83.4,169.8,77.5,166Z" style="fill:#55878b"/><path d="M183.4,105.8c2.5-16.4-23.4,2.8-24-14.5-.1-1.6.7-1.4-1-3s-.6-3.6-2-4.5-.7-2.3-2.3-2.6c-2.5-2.3.8-1.7-4.1-3.1-.4-1.9-2.7-1.4-3.5-2.7-1.7-3.1-6.2-4.1-7.9-6.8,9.1-1.3,17.2-14.2,25.8-19.7.8-1-1.4-2-1-2.8C177.6,62,185.3,84.7,183.4,105.8Z" style="fill:#589cb1"/><path d="M162.7,132.8c-2.2-11,2.4-10.7,11.3-7.4,11.8,2.5-3.9,19.3-7.4,25.7-5.6,9.9-10.9,9.3-17.1.4,4.5-.1,2.4-5,5.7-5.9s2.1-2.8,3.1-4.3C162.2,139.6,162.3,136.5,162.7,132.8Z" style="fill:#344468"/><path d="M171.8,49.7a87.7,87.7,0,0,1,16,57.6c-.8-4.2,2.2-11.3-1.7-13.7,4-1-4.2-3-2.2,4.5a89.4,89.4,0,0,0-14.7-44.9c1-.1,1.5,2.1,2.3,2.9C171.1,52,175.5,55.6,171.8,49.7Z" style="fill:#758ba5"/><path d="M159.6,89.4c.2.3.5.6.1.9s-2,1.6,0,1.2c.4,4,5.3,7,2.9,11.5-.8,1.7,2.7.9,1.5,2.5,2.5,6.7-1.6,13.6-4.5,20-2.3,2.4,1.4,6.3.8,8.9-6.2-8.5,2.3-12.9,1.6-19.9-.6-1.2,1.2,0,1.3-1.8,2-1.4-2.2-3.1.6-4.8-.2-1.5-1.4-2-.9-3.1s-2-.8-1.8-1.8,1.8-1.4.9-2-1.9-1.7-.9-2.1c.3-2.9-4-1.1-1.5-4.4.8-1.3-2.2-.6-.5-2.3-4.6-.4,2-2.6-2.8-3.1C157,87.6,158.5,89.4,159.6,89.4Z" style="fill:#8d7a59"/><path d="M169.2,53.2c11.6,16.1,17.3,41.7,13.8,58.6a84.4,84.4,0,0,0-26.9-73.1C159.9,40.3,166,48.4,169.2,53.2Z" style="fill:#b6d2dc"/><path d="M160.4,134.4c-1.3-4.7-2.5-9.8,1.5-13.8,2-1.2,0-3.8,1.5-4.6,1.7-2.7.9-5.6,1.4-8.3.7,7.1-2.5,13.3-5.8,19.2-.3,2.8,3.6,7.9,0,9.6A3.6,3.6,0,0,1,160.4,134.4Z" style="fill:#344468"/><path d="M166.1,105.6a21.7,21.7,0,0,1-.8,3c-.6-2.4-.6-4.2-2.5-5.1C163.1,99.7,166.4,103.6,166.1,105.6Z" style="fill:#589cb1"/><path d="M183,111.8v.2a60.9,60.9,0,0,1-3.3,14.5A120.1,120.1,0,0,0,183,111.8Z" style="fill:#84a7b9"/><path d="M77.5,166c1,2.2,5.1,1.6,7.1,2.8,4.3,3.8,0,13.5-6.5,12.3l1.9.9a80.6,80.6,0,0,1-23.2-9.3,31.2,31.2,0,0,0,4.2,1.8c-14.5-12.6-5.3-21,8.2-10.6-3.9-.2-13.4-4.5-11.4,2.4,10.4,20.3,42.4,10,11.8-2.7Z" style="fill:#5f9faf"/><path d="M44.9,36.4A41.4,41.4,0,0,1,53,30.6a56.7,56.7,0,0,1-6.9,5.2l.3-.5Z" style="fill:#7599ac"/><path d="M49.4,90.2c-43.2,44.5-27.5-54-2.9-45.3,12.1,9.3-11.1,5.2-9.4,16.5-1.4,5.7-2.9-9.9,8.8-10.5-19.1-8.2-36.1,56.6-3.2,42.2C44.8,93.2,48.6,87,49.4,90.2Z" style="fill:#5094a8"/><path d="M38.2,56.5c2.3-5.1,8.9-3.1,12.2-6.7,3.4.4,9.6.3,11.6,1.6C54.3,52.2,44.6,51.1,38.2,56.5Z" style="fill:#588486"/><path d="M49.4,90.2c-.2-.3.2-1.1-.6-.9,1.8-4.8,1.1-10.4,1.7-15.3,3.6,7.8.7,8.4-.4,14.3a6,6,0,0,1-1.6,4.2C48.5,91.4,49.6,91.2,49.4,90.2Z" style="fill:#699ea0"/><path d="M169.2,53.2a91.2,91.2,0,0,0-8.3-10.3c1.4-.3,2.2,3.8,3.7,2.1,3.2-.6,1.1-1.3.7-3.3,4.5,6.2,9.8,7.7,6.3,14.7C170.7,55.4,170,54.2,169.2,53.2Z" style="fill:#5b738e"/><path d="M165.3,41.7c1.3,2.1,2.1,2.8-.8,3.6s-6.1-5.6-9.2-7.8c1-.3,1.4,1.7,2.5.1,2.9-1.7-1.4-3.4-2-5.1A91.6,91.6,0,0,1,165.3,41.7Z" style="fill:#405877"/><path d="M155.8,32.5C167.9,47.2,139.2,26,136,24,137.3,16,151.4,29.9,155.8,32.5Z" style="fill:#2a3955"/><path d="M141.7,22.9c-17.6-5,11.3,11,13.7,14.6a110.5,110.5,0,0,0-26.5-16.1C128.9,14,137.7,21.5,141.7,22.9Z" style="fill:#415978"/><path d="M109.5,24.9c-3.7,6.1-5.2,14.3-9,19.7,2.9-7.5-2.9-18.5,1.5-24.3-2.4-.8,3-2.7-1.6-3.6,2.1-.9,4.5-.2,6.8-.2s.2-1.4.7-2.1c.5-2.3-3.8-1.2-5.2-2.4,8.6.7,6.3,1,10.6,5.3-.7.5-1.7-.1-2.6.1C120.9,20.1,111.2,19.6,109.5,24.9Z" style="fill:#33748c"/><path d="M115.6,19.9c-1.1-2.1-3.6-1.4-5.3-2.5,8,0,16.2,2.8,23.4,6.2-2.7-.7-5.6-2.3-8.5-3.1,2.4,1,5.9,1.7,7.9,3.2-.8.2-2.9-1.1-3.1.2.9,4.9-4,9.2-3,14.2-3-1.6-1.2-7.5-3.1-10.4S120.3,20,115.6,19.9Z" style="fill:#3f829c"/><path d="M109.5,24.9c.3-1.3,4-5.7,3.6-3.5,3.5.5,1.4,1.1,4.1,1.8,1.1.1.4,1.8,1.5,1.9s1,2.7,1.3,4.2c-.4,3.4-2.7-2.3-3.1-.1-.8-.2-2.3-3.3-2.3-.7s-.8-1-1.4-1.3-2.5,2.4-3.4,3.2-.4,2.5-1.7,2.4-.6,0-.5.5c-.3,2.8-2.3,5.7-3.1,8.4,0,.5.7,1.9-.3,1.7-1,2.3,1.3,5.1,2.4,7.7.6.9.5-1.1,1.1-1,1.1,3.6,3.1,14.3,5.6,5.1-.7.7-.9,2.3-1.7,2.6-1.1-1.4,1.6-3.7,1-4.9s-.5-2.2-1.4-.8,1.6-4.5,2.3-4.7c2.6-1.2,1.2.9-.4,1.5s-.6,1.5-.7,2.5,2.6-.8.7,3c3.2-3-1.1,4.8-.6,6.1-2.4.1-2.2,3.1-.5,2.3-1.4-.4,3.2-7.3,2.1-1.6-1.1,3.1,2-.6.3,2.6-.1,1.1,1.2-.8,1.9-.3,3.6-.9-2.5,3.2,0,2.1.3-.7,2.2-1.4,1.8-.2s-2.5,1.8-1.1,2.6,3.5,2.1,4.2,3.9c-1.6-1.3-8.1-5-6.1-7.1-.9,0-2,.5-1.5-1-2.5,1-3.2-.4-4-2.1s-.9-1.1-1.8-.7-1.2-1.8-.5-1.6.3.7,1.8,1.3c3.9.8-3.7-6.1-1.7-7.3s.1-1.1-.3-.1C98.8,45.8,104.3,37.8,109.5,24.9Z" style="fill:#8c5929"/><path d="M44.9,53.1c17.2-6.6,36.1,9,51.4-3.1,1.7.1-1.2,2.9.9,3.1-1.9,1-4.5,2-6.3,4-.6.1-.2-1.6-.7-1.2s-2.1.5-3,1.4-7.4,6.4-5,8.2c.7,1,.6-2.2,1.3-.8,1.7,3.6-.9,1.2-2,3.3s-4.5,3.8-4.7,7.2c-2.1,3.7-.5-6.5.4-8.1s6.5-11.2,1.2-7.2c-4.2-1.6,3.8-3.2,4.9-4.1C68.8,54.5,57.7,49.6,42.6,54,43,53.2,44,53.1,44.9,53.1Z" style="fill:#9b6f43"/><path d="M102.7,41.9a13.3,13.3,0,0,0,1,5.6,3.4,3.4,0,0,1-1.6-1.3c-.2.6,1.9,3.4,2.4,2.6,1.3,1.1,1.2,3.3,2.5,4.4a5.4,5.4,0,0,1,.5-1.1c.3.3.6,1,.1,1.4-1.7,2.3,3.6,4.7,2.5,7.5-.6.6-1-.4-1.5-.4s-1.3.2-1.1-.9c-2.3.5-.9.1-1.8-1.3s-1.8-.5-1.6-1.5c-1.2.5-2.3-1.3-3.2-2.1C93.6,51.6,102.4,46.5,102.7,41.9Z" style="fill:#844e1f"/><path d="M101.2,44.9l.6-.4c-6.5,11.5-4.4,5.6,5.1,15.3-1.4,1.5-1.2.1-1.4-1s-2,0-1.8-1-3.3-2.1-4.4-3.6-1.5.3-1.6-.9-1,.3-1.2-.3.7-2,.1-2.8-1.4,2.5-3.3,1.9A20.4,20.4,0,0,0,101.2,44.9Z" style="fill:#8c5929"/><path d="M39,116c-2.7-.1-.3-1.6-.5-2.4s.8-3.9,2.7-4.2c-3-2.1,1-4.4.9-7,.8-.9,2.6.2,2.2-1.8,9.5-13.8-2.4,18.6,3.9,19.3-1.2,1.2,1.6,2.8,0,3.4-3-2.7,1.2-3.2-3.3-3.5.5-1.2,2.2-1.8-.1-2.6s1.5-1.6.2-2.2,1.4-2,.2-2.7-.1-.8,0-1.2c-2.8.8-1.1,2.5-3.1,2.5,3.4-.8,0,1.8.2,3,1.8-.1,1.9,1.6.6,2.6s-1.8,1.8.4,1.5c.3,1.3-3.3,1.5-2.3,2.7s0,.8-.2,1.3c2.1.1,1.2.6.1,1.6a3.1,3.1,0,0,1,2,2c.4.9,2.3,1.3,1.7,2.3s2.8,1.6,3.1,0c3.1-5.3,7.9-1.9,3.7,2.5.8-5.4-.4-1.9-1.4-4.3-1.1,1.1-3.1,3.5-2,5.1s.3.5-.1.9,1.9,0,2.1.6-1.5,1.1-.6,1.5c2.6-.3-.2,1.5-1.5.6s-2.6-1-2.2-2.4-3.3-.1-1.6-2-1.6-.6-1.8-1.4c1.5-1.3-1.5-3.5-2.8-4.4s1.1-.9-.6-3,.3-2.5.5-3.4-.5-2.6.5-3.7-1.4-1-.3-1.9S38.8,115.1,39,116Z" style="fill:#49290f"/><path d="M49.7,91c1.3-6.9,3.8-11.1.9-18.3,2.1,1.7,3.4-2,4.7,1.8,4.1-2.5-.6-4.1,1.1-4.4s1.5.1.8-.9,2-2.5,1.7-4.1,1.5-.3,1.4-1.4,1.1-.5,1.3-1.1,1.5-2.9,2.9-2.8c-1.2,2.7-6,4.7-3.9,7.9a2,2,0,0,0-2.2,1.5c.7.3,1.6-.2,2.1.7s-3.2.7-2.4,1.4.1,1.2-.2,1.7,1.6-1.1,2.5-.4-.9.7-1.1,1.1,1.6-.2,1,.5-1.2,3.5-3.4,1.9,1.7.7,2.2,1.5-.2,2.3-.4,3.4,1,1.9-.5,1.9.8.7-.2,1.2-3.8,3.9-2.8,6.3c.6-.1,1-1.9,1.7-1.2s2.5-.8,3.6-.6c-3.1-1.8.8-4.2.7-1-2.3-1.9-.2,1,.6,2-4.3-2-5.4,3.7-7.9,1.3-1.8,3.5-2.8-.1-3.6-2.1A18,18,0,0,0,49.7,91Z" style="fill:#765230"/><path d="M39,116c1.1-4.9.9,2.8.7,4.2s-1.5,4.2.4,5.7c-1.1,2.6,2.3,2.9,3,4.6-1.3,2.2.2,1,1.8,2.1-3.2,2.9,2.7,0,.9,2.8-.2,1.1,2.6.1,1.8,1.9,4.7,1.2,1.3-2.2,3.6-2.2.1,1.3-1.1,4.6,1,4.3.6,3.6,5.5,3.2,4.8,6.2-.1.8,1.4-.2,1.3.7s.7.3,1.1.3.7,1,1.5.7-.1.9.7,1,2.4,1.8,3.6,2.1c1.7-1.4-2-1.2-1.5-2.8s-1.8-.2-1.5-1.2-1.7-.8-.8-1.9-1.8-1.5-2.3-2.3-.5-1.6-1-2-1.1-2-1.6-2.4c-2.7-.9,1.3-2.6-2.9-3.9,1.7-2.4,2.8,1.8,2.9,3,1.6.2.6,1.1,1.1,1.7,2,1.1,1.8,4,4.4,5,.5.7-.4,1.4,1,1.7s.4,1,1,1.3.2,1.5,1.3,1.5.5,2.3,1.4,2.2c2.6,0,1.3,3,5.1,3.3-.1,5.2-5.7-1.6-7.9-2.5-2.5-2.5-7.6-3.5-8.5-6.7-.7-1.1-2.9.9-2.3-1.2-.9-.3-1.9-1.9-3.1-1.7s0-.8.2-1.1-1,.2-1.5-.1l.8-1.4c-2-.5-3-2.4-5.2-2.8a4.2,4.2,0,0,1,.9-1.4,11.7,11.7,0,0,0-2-.6c2.6-2.8-4-.8-1.3-3,.7-.7-1.9-3.3-3.1-3.6,1.8-2.6-1-1.5-.3-4.3C39,122.1,40.4,116.1,39,116Z" style="fill:#603513"/><path d="M61.2,87.6c.4-1.6-2.3-2-1.8-.4s1.3.7,1.2,1.7c-1.2-.7-3.4,1.6-3.8.4s-1,1.1-1.6,1.3c-2.5-2.7,4.3-6.1,2.2-7.7,2.8.3.8-2.7,1.9-4.5-1.2-2.3-.2-.8.6-2.7,2.8-4,.3-1.9.5-4.2,2.6-1,1.6-5,4.5-5.7.8.3.3-1.1,1.1-1.1s-.9-1.7-1.2-1.1-4.9,1.4-3.2-.2c.6.2,1.1-.5,1.2-1.1s1.3-.9,1.5-1.7c.7,1.3-.7,1.1-1,1.9s1.1-.1,1.9.4,1.7-.8,2.6,1.3-2,1.5-2.7,2.2c-2,2.4-2.2,5.6-3.1,7.8s-2.1,1.4-1.5,2.9-.6.4-.6.8-.5,1.9-.4,2.9.6,2.4-.1,2.9c-3.3,1.9-6,8.6-.3,1.7,1.3-3.7,2.1,3.2,4.2,3.2s1.2,5.1,3.1,3.1c3.9-3.1-2.6,13.3-5.5,14,2.1-8.1.5-4.9-4.4-10.1-.7,5.5-1.4-2.6-4.9,7.1-.2-8.8,1.5-3.2,5-8.1,1.5.9,2.2,4.1,4.6,3.5s1.9,2.9,3,.9,3.3-5.5,2.4-6.7C63.3,96.6,64.3,88.6,61.2,87.6Z" style="fill:#8f7353"/><path d="M51.6,102.7l.5-.4c.9,1.8-1.5,3.3-1.4,4.4s-3.2,3.7-1.3,5.8c-1.7,3.4,2.1,5.9,1,9.3.6-.3,4.3,1.6,2.9,1.8,1.1-1.6,2.5-.1.6.7,1.9.3-1,1.5-1.5,1.9,3.7-3,3.5,3,4.8,4.3-.7,2,2.5,2.8.8,4.9a8.7,8.7,0,0,0-1.8-3.6c-.2-.4-1.4.1-.8-.8.4-2.7-1,.2-2.2-.1s1.7-1.4,2-2.2c-1.8-.1-2.7-2.6-4.5-1.1-.6-.7,2.1-1.9.6-3.1s.6-1.3-.7-1.6-1.5.4-1.5-.4c1.7-2.6-1.5-4.8-1.2-7.4C47,110.6,49.2,106.4,51.6,102.7Z" style="fill:#80735d"/><path d="M51.6,102.7c-.8,3.1-4.8,6.1-3.2,9.6.1.9-1.3,1.2-.5,2.4s2.8,5.2,1.4,7.6c-.6-1.3.1-3.1-1.4-4,.9-1.2-1.9-1.8-.5-3.1-.5-1.6-.1-4.4.6-6.6s-.4-8,1.8-9.2,1.7-2.2,2.3-3.3c2.5.9,3.1-.2,4.5-2,1.4,1.1,1.8,3.9,4.1,3.7s2.5,2.9,4.1-.8c.5,1.4-2.4,4.1-2.6,1.6-.1-.6-.6-.5-.9-.4-2.7.9-3.1-2.7-4.8-3.4C53.6,100.1,51.5,93.4,51.6,102.7Z" style="fill:#765d40"/><path d="M58.7,89.5c4.6-.8,7.2,6.6,4.5,9-.5-.3-.3-1.6-1.4-1.2-3.4,1.2-3.4-2.4-5.2-3.5C49.5,99.8,55.8,90.2,58.7,89.5Z" style="fill:#49290f"/><path d="M63.4,99.5a18.6,18.6,0,0,0,2.7-5.9c-3.3,2.5-2.1-4.5-4.7-5.7,3.6.9,1.7,8.8,5.5,4C67.2,94.1,65.5,98.6,63.4,99.5Z" style="fill:#875f37"/><path d="M49.1,122.5c.1.7.9-.7,1.2,0,1.9.7.6,1.2,1.5,2.9s-1.5,1.3-1.1,2.2-2.6,3.5-3,3.2c-.3-2.2,4.1-3.2,2.7-5.6s-1.7-1.4-3.1-.5C47.1,123.7,48.5,123.1,49.1,122.5Z" style="fill:#765d40"/><path d="M50.8,92.7c1.6.9,1.4,3.3.1,4.5C49,96.7,49.4,93.5,50.8,92.7Z" style="fill:#49290f"/><path d="M69.6,163.6c4.2,3.9,15.2,3,12.5,11.2C74.3,189.6,39.5,155.3,69.6,163.6Z" style="fill:#68a8b8"/><path d="M97.4,168.3A67.7,67.7,0,0,1,82.5,167c1.4.2.5-1.6,2.3-.3,0-.9-.8-1.5-.6-2.4,3.3,4.1,2.6-.4.9-2.6-1.2.9-1.7-.3-2.3-.8s-3.3,0-2.2-1.7c1.9,1.5,5.4,1,6,4.2.6,1.3,3.7-2.1,4.2.1C92.6,168.2,91.2,157.5,97.4,168.3Z" style="fill:#a5692d"/><path d="M50.5,127.9c1.7-2.6,2.9.8,5,.7l-2.2,2.3c1.5-1.4,2.9-1.1,1.7,1,2.1-.3,2,2.4,2.8,3.7s1,1.1,1.1,2.1.4,3.1,2,3.9,2.6,1.1,2,2.7,2,.1,1.7,1.2,2.8,1.8,2.3,3.9c.6.4,2.5.8,2.5,2.2s3,.4,3,1.8,4.3,1.2,2.6,3.6c-.7-1.6-2.9-1.1-3.3-2.3s-.2-1.5-1.3-1.1-1.3-3.9-4.2-3.1c.1-1.1.4-2-1.1-2.4-2.9-2.9-5-6.7-7.9-9.8.8-.9-.1-1-.7-1.2s.1-2.1-.9-3.1-.7-1.5-1.5-.3c-.6-.8.8-3.1-1.1-1.2-1.4.3-1.2,2-2.2,3C50.6,133,55.9,128.1,50.5,127.9Z" style="fill:#685137"/><path d="M75.3,156.8c0-2.2-2.4-1.3-3.1-2.3s-1.4-1.6-2.4-2.1-.8-2.3-3.1-2.8c.5-1.9-1.6-1.8-2.4-3.4.8-1.6-.9-1.1-1.4-1.7s-2.5-2.3-3.2-4.5.4-2.3-1.3-2.3c1-2-2.4-2.6-1.5-4.5-.7-.4-.9-1.6-2.1-.9.2-.9,1-1.6.1-2.4l.7-.4a4.4,4.4,0,0,1-.2,2c2-.1,2.4,2.7,2.7,4,2.8-.3,2.4.5,1.8,1.9a9.2,9.2,0,0,0,2,4.7c3.3.5.4,1.5,2.3,2.3s.3,1.4,1.3,2.1,1.4.6,1.6,1.3,0,1.4.7,1.3,1.6,2.6,2.8,2.7,2.2.4,2.2,1.4,3.9.2,3.1,2.5,1.7.3,1.4,1.8,1.1-1,3.3,1.8c-.3,2.4-1.7-1.1-2.5-.6S77.3,156.8,75.3,156.8Z" style="fill:#816548"/><path d="M82.5,167l-2.9-.6c1.1-.7,1-1.6,1.9,0l.7-1.1Z" style="fill:#a5692d"/><path d="M138.9,155.6c-.8,1.5-4.9-.1-2,1.2a70.2,70.2,0,0,1-20.5,8.8c-.7-6.5-9.8-17.3,3.4-8.6.9.5,1.1-1.6,2-1.4s9.9,1.8,4.7-.4-10.9-7.4-11.2-13.3c.9,2.7,4,4.4,5.8,6.5-.7-2.4-2.3-6.6,1.8-4.7-.3-1.1.4-2.2.8-.5,2.1,3.9.9.7,2.4.5a6.1,6.1,0,0,0-3.3-2.4c-1.7-.4-3.1-5.1-5.7-3.2-.5,1.2-1.7-1.6-3.9-.3-4.5-3.7-8.3,3.1-8.2,7.1.4,1-1.5.5-1.7,1.6s-.7,2.4-2,3.2c1.4-9,9.3-18.2,11.4-28.1.9-4.1,1.8-3.9,4.5-5.3-2.1-2.2,5.6-.2,1.7.8,2.3.3.5,3,1.6,3.7,2.7,1.4,5.1-4.1,7.9,1.1-.7.4-1.6-1-2.3-.7s1.2,1.1,1.6,1.6.1,1.1-.4,1.6,2.7,2.1,3.2,3.6c-1.8,1.2-4.4-1.1-1.1,2.9-.4.7-1.1.1-1.6,0s.3,1,.6,1.5-2.4.4-.5,1.6c4.2.8,1.7.3,1.2-1.7,1.9.1,3.1,2.6,4.9,2.5s1-3.4,3.3-2.6c-.2-.6-1.7-1.3-.7-1.7s.9-1.9,2-1.9.5,0,.4-.5,1.5-.6,1.1-1.7.7-.6,1.2-.9-1.3-1.3-.2-1.8.5-1.7,1.5-1.7.8.1.6-.7,2.4-2.4,2.3-3.7,1.3-.6,1-1.4,1-1.6,1.2-2.6,1.7-1,1-2,1.4-2.4,1.3-4.3.1-1.9-.2-3.3,1-1.1.3-1.8,1.4-.9.3-1.6,1.6-1.4.5-2-.2-1-.1-1.9c-1.4-1.1.2-2.7,1.4-3.1-5.3.3,0-.7-2.1-3.2.9-1.1-1-.3-1.4-.8s4.1-1.2,5-1.3-.7,1.9.5,2,.1,2.3,1.3,3.1,1.5,2,.5,3.5,3,1.1,1.6,2.1,1.5,2.1.4,3-.4,1.5.5,1.9-.1,1.2.7,1.6-.2.6-.4,1,2.3.6,1.5,1.6,1,3.6-.3,7.7c-.4,1,.3,2-1.4,2s.7,1.1-.3,1.4-.5,2.2-1.2,3.2.1,1.9-1,2.2-.3,1.4-1.3,1.4c1.2,1.7-1.6.2-1.2,1.7s-1.8,1.1-2.4,1.8-2.8-.4-2.5.2c2.2,6.8,6.8-5.3,8,1.2.6,1.8,3.4,3.5,2.1,5.7-3.3-11.5-6.6-4.6-10.1,1.5-1.3.2-1.7,1.2-1.8,2.4s-2.1.2-1.6,1.3-1,.4-1.6,2.2c-2.3.3,1.6,2.4-.5,2.4s-3,2.1-2.2,3.6-1.4.6-1,1.6C139.1,154.8,131.3,153.6,138.9,155.6Z" style="fill:#f1d3a7"/><path d="M158.9,136.5c-3.8-16.3-6.3.5-9.8-5.8-2.5-3.2,2.7.4,4-2.7.3-1.3,1.5-.9,1.8-1.6-1.6-.8.2-.4.3-.6,1.6-2.2,2.1-5.2,3.4-7.2-1.1-1.5.6-.8.9-1.2s-.3-3.2.7-4.1-1-1.8.2-2.3c-2.9-1.9,2.2-3.1-1.9-4.5.3-.2.6-.3.8-.7s-.4-2.1-1.8-2.3-.6-1.2,0-1.4-2-2.3.5-3.7c-4.8-2.2,1-2.8-2-4.6-1.9-.1-1.1-2.6-1.7-3.3s-.7-1.3-.7-2.1c-1.6-.2-7.7.6-3,1.4-.9,1.6,1.3,1.8-.8,3.6,1,.4,2.1-.3,3,0-4.1,1.6-.9,2.8-2.6,4.7,2.8.9-1.3,1.6.8,2.8-1.1.5-.2,2-1.4,2.4,1.6,1-.7,1.9-.1,2.7a2.4,2.4,0,0,1,.4,2.2c0,1.4-2.4,1.8-1.3,3s.1,1.3-.6,1.6a25.6,25.6,0,0,1-4.7,8.3c.4.9.3,1.4-.9,1.1s-1.9,2.6-.9,3.5-1.3-.3-1.2.4-1.5,1.1-1.1,2.6c-1.6-.3-1.4,2-2.8,1.9l1.2,1.9c-4.2-1.7-.1,6-8.3-.1-.7.6,2.6,2,.6,2.1s-4.4-1.7-1.5-1.8c-2.3-1.7-1.4-1.9.9-1.7-2.7-2.4-1.7-3.2,1.2-2.8-.5-1.6-4.4-2.5-3.2-4.1s-.9-1.4-1.1-2.3,1.5-.3,2.2,0c-3.3-4.9-4.8,1-8.5-1.2.2-1.6.5-2.9-1.4-3.6,4.6-.5-3.9-3-.8-.5-7,1.4-4.7,10.6-9,15.3-1.7,6.1-6.9,11.6-7.4,17.7,6.3-6.9,3-16.5,15.7-11.1.2-2.3,4.6.3,4.8,2.1s4,1.4,4.5,3.4c-1.5-.7-.2,1.7-1.3,1.3s-1.1-2.5-2.1-2.7c.8,4.2-4.5-3.9-1.7,6.1-1.8-2-5.1-3.8-6-6.6.1,2.4,1.6,4.1,2.8,5.9-3.4.5,13.8,9,9.7,8.9-2.2,1.1-5.4-2.4-6.8-.3s-1.9.2-2.5-.1c-11.9-7.6-1.1,4-2,9.2-1.9-.7-.5-4.9-2.9-6.1s.3-2.5-1-3.6c-4.7-7.1,2.2-1,1.8-3.5-1.4-1-6.4-12.8-4.6-12.4s1.2,1.2,1.1-.5c.8,0,2.3,1,3.1.3-2.8-6.5-9.3.5-8.4,5.3-1.4,2-3.6,4.8-5.2,7.2s1.2,7.2-.5,10.1-1.4-1.3-2.2-1.9c-2.6,5.9.4-7.8,1.5-8.6,5.6-11.8,11-23.6,15.6-35.9.5-12.1-16.6,12.5-20.5,13.8-.9,1.9-9.6,4.2-5.6,2.4,5.6-1.1,8.3-7.2,13-9.7s4.5-6.4,7.5-9c.3-.5-1.5-.6-.2-1.3s6.2,1.2,7.9,1.3c-.1-1.6,2.9,0,3.1.9,3.9,1,7.1,2.3,11.2,2.4.6-1.2-3.5-2.7-1.1-2.9s3.8.8,4.9-1.7c1.3-.2-1-1.6.7-1.7s-.4-1.4.9-1.2,1.1-2.3,2.3-2.8-2.1-2.1.4-2c.6-.4-.4-1.5.8-1.9s.2-3.3-1.2-4c2.3-1-1.4-2,.4-3.5s.1-.4.1-.8c2.4.2-1,1.8.5,2.6s.6,1.4.5,1.9.3.7.3,1c1.1,1.9,2.1.1-.4,3.3-.8,1.1.9,1.9-1.4,2,2,.7-1.9,6-3.2,6,.4,1,.8,1.1-.3,1.9-.5,2.7-3,1.5-5.1,1.5.3.8,4.6,1.6,3.1,2.5-2.7-2.2-1.1,0-.9,1.6s-1.6-.1-.9,2.1c-4.1,1,.4,1,.7,3.9s-1.6-.3-2.2-.5c-1.1,1.6,3.8,1.3,4.1,3.3s.8,2.3,2.1,2c-.4-1.2-.2-1.6,1.2-1.5s-1.5-1.7-.1-1.8c3.1,1.7.6-.6,1.9-1.6s1.9-1.1,2.2-2.4.1-.6.5-.6,0-1.4.8-2,1.4-1.2,1.7-2.3,1.6-.6,1.1-1.9,1.5-.9,1.1-2.2,1.5-.8,1.1-1.4,1.4-2.2,1.2-3.3.7-3.5.1-4.6,1.2-1.3.2-2,.2-1.7.8-2.4-1.4,0-.5-2.5c-.8-.4.2-1.4-1-1.8s1.2-2.4-.1-3.4c.3-1.4-2.2-1.6-1.1-3s.8-2.3-.5-2.2-1.3-2.3-.1-2.8-.7-1.8-.9-1.7a.6.6,0,0,1-.9-.9c.6-.3,2.2-2.3,2.4-.8s1.9-1.1,2.5.1-2.3,1.3-.8,1.3-.4,2,2.8,1.5c1.5.1-.7,2.1,1.1,2.1s.1.9.3,1.4,2.3.8,1.9,1.9c-2,2,1.4.3,1.7,1.4s-1.6,1.8-.1,2.2.8,1,2.2,2.1c-.8.6-.6,1.3-1.1,2s.8.7,1.2.9-.9,2.1,1.2,4.3c-2.2,2.6,2,3.7,2,6.2-2.1,3.7-.2,1.4-.6,4.4.6,1.1-.8,2.4-.7,3.9a3.5,3.5,0,0,1-1.3,4c-1.4,1.9-1.1,4.8-2.9,6.6C156.3,130.1,161.5,133.5,158.9,136.5Z" style="fill:#e2c79e"/><path d="M138.9,155.6c-1.1-.3-3.6,0-3.4-1.6,1.7-.8,4.1-.5,4.5-3.3,1.7-.9-.5-6.1,3.7-4.4.4-1.1-2.2-1.5-.4-2.3s1-1.7,2.2-1.4c-1.5-2.4,1.9-.9,1.4-3.4,3.5-2.3,3.9-7.3,8.1-9.4C165.7,138.2,145.9,149.9,138.9,155.6Z" style="fill:#f0d9b5"/><path d="M97.4,168.3c-2-1.5-3.7-8.1-5.7-3.1-1.9-3.1-2.4-2.1-4.9-1.2-.8-1.1-.7-2.3-2.4-3s-4.2-2.8-6-3.2-.4-1.3-1.8-1.4-.5-1.1-.6-1.8c-2.7-.9-2.2-.4-4-2.7-2.9-.2-1.9-2.8-4.4-3.5,0-1.5-.9-1.3-1.7-2s.7-2.3-1.7-2.4,1.5-2.2-1-1.8c-3.8-3.3,1.5-3.8,4.5-3.5.9-1.1,6.9-3.2,4.7-.3-.7,1.2,2-1.1,2.7-.3s-1.4,6.5-1.5,5.6,1.2-4.3-1.5-2.8c0,.6-.4,1.4-.9.7s-1.3-.2-1.3-1.2-1.2.7-1.8.5c.6-2.9-6.9,1.2-2.9.6,2.3.9-3.6,1.9,2.5,2-.9,1.4-2.2,2.2.4,2.5s.3,1.6,2.1.1.4,1-.3,1.4c-.7,2.9,3.3,3.6,4.9,5.1-.4-2.6-3.4-6.1-1.1-8.1-1.8,9,10.6,16.4,18.2,12.5s8.4-12,11.5-18.4c2.1-3.4,13.1-22.6,7.8-23.8-7.6,6.2-9.6,17.6-16.9,24.6,4.1-5.8,12.4-25.7,18.4-25.1,3.5,4.2-7.6,21.9-9.8,27.1-2.7,7.8-7.5,19.6-17.7,17.6-1.1-.3.6.4.5.8,1,5.7,3.4.6,5.2,3s1.3-1.7,2.9-.1c3.8,4.6.8,2,3.8,1.5,2.1,4.8-.2,3.6,5.4,3.8Z" style="fill:#ab8b66"/><path d="M100.8,148.6c-.1,2.5-2.8,4.1-2.6,6.6.2.6-.5.1-.8.4,1.3,2.3-1.6,4.2-.6,6.4,1.3-4.5.9.5,2.2.8s.5-3.3.8-4.8c1.7,5.3,1.1-2.1,3.2-3.4.9.2,1.3,3.1,2.4,2.3-1.2-13,8.1,6.4,7.2-1.1.3.8,1.3,1.5.5,2.6s1.8,1.7,1.9,3.1c-2.2-3.6-3.8.2-2.8,1.7s3.7,3.5.2,3.4c1-.5.7-1.4-.2-2,.3,2.7-3.7,3.3-6.1,2.6.9-5.7,1.8-.1,3.1-1.3s.7-2.8-.2-3.3c-2.9,2.9-2.2-2.4-4.7,3.6-1.4,1-1.1-4.8-2.9-3.7s-3.4,2.2-3.4-.2c-4.1,4.1-5.3-8.5-2-3.4.7.6,1-1.3.2-1.5C96.5,154.6,99.8,151.5,100.8,148.6Z" style="fill:#e0c59d"/><path d="M93.9,159.2c.8,1.9,2.3,6,3.9,2.4,1.2,4.5,4.5-3.1,6.2,4.7.7-1.3,1.6-4.7,3.3-2.8,4.4-4.4,2.3,7,.1,1.2-.6.7-2.5,2.1-.5,2.9-2.6.8-7.7.4-4-2.5-.4-.9-.7-2.9-1.9-1.6-3.6,2.5-3.2-1.3-4.5.7s-2.2-3-3.8-1.9-1.6.9-2.2-.8c-3.3-2.6,1.3-2.5,3.1-4s2.4-3.5,3-2.8S93.2,157.1,93.9,159.2Z" style="fill:#ddb988"/><path d="M114.5,166.1c.1-.7-1.6-3-2.5-2.7C110.5,154.6,119.3,164.7,114.5,166.1Z" style="fill:#e1bc89"/><path d="M112.2,166.7c-.5-.6-.7-1.9.1-2.3S114.3,166.3,112.2,166.7Z" style="fill:#f1d3a7"/><path d="M136.9,156.8c-.8.4-1.5-.7-1.3-1.1l1.6,1Z" style="fill:#f0d9b5"/><path d="M127,38.1c1.8-24.2,9.9-12.6,24.3-3.8,19.1,15,13.2,15-2.7,28.2-3,1.8-5.9,8.5-9.7,5.9-.4,2,4.2,2.6,5.1,4.3-10.1-3.2-10.3-16.5-14.3-25.3-1.3-4-4.6-8.2-4.8-12.3a81.8,81.8,0,0,1,4.4,10A11.7,11.7,0,0,0,127,38.1Z" style="fill:#2c6b88"/><path d="M141,71.3c2.9-.2,4.8,4.6,8.1,5.2.5,2.4,3.5,1.4,4.2,3.1-2.8,3,1.8.7,1.7,3.2-1.7,2.8.1.7,1.7,1.3s-1,1.1,0,1.4-.6,2.6-.4,3.5c4.9-.1-1.1,3,3.1,3a3.5,3.5,0,0,1-.7,1.2c2.2.5.9,1.7.2,3l2.3,1.2c-1.2.4,1.5,1.2-.2,1.7,3.2,3.3-2.4,3.9,2.7,5.8-2.1,1,.5,1.4.2,2.2s-2,2-.6,3.4-.5,1.9.1,3.1c-2.5.4.5,2.1-1.7,2.7,2.3,4.9-7.3,7.2-1.5,18.2-4.3-6.1-2.5-10.8,1.2-15.9.5-1.2-.7-2.2.1-2.9s.6-.5.2-1-.2-1.3.5-1.2-.3-1.1.7-1.3-1.1-1.4-1-2.2,1.8-1.8,1.1-2.9-4.2-4-1.7-5.4c.7-.7-.9-1.6-1.2-2.2s.4-1.8-.2-2.2c-3.3-.3.3-2.8-1-3.4s-.2-1.6-1.8-1.9c.8-6-3,1.1-1-5.7-3.4,0,0-.6-3-1.6-.5-1.2,2-2.5-.5-1.9s-.2-2-1.2-3.1-3.6,0-3.2-1.6-2.7-1.2-3.3-2.5,0-.6-.7-.5-1.3-1.6-2.4-1.9-2.1.8-2.5-.3C138.8,69.4,140,72.4,141,71.3Z" style="fill:#a79170"/><path d="M156.3,89h-.4c1.6-2.1,1.7-1.9.3-4,1.6-1.9-1.5-.2-2.3-.5,3.6-4.2-4.4-1.7-.6-4.9-.2,1.9,2.5,1.6,2.4,3.8,3.1,1.2,1.2,4.4,3.9,6C158.3,90,157.6,87.7,156.3,89Z" style="fill:#7a6d4b"/><path d="M159.7,91.5c-2.3.8-1.7-.8-.1-1.6S159,91,159.7,91.5Z" style="fill:#7a6d4b"/><path d="M156.2,38.7c-8.9-8.5-20-14.1-31.4-18.3C136.3,24.1,147.9,29.9,156.2,38.7Z" style="fill:#9bb6c4"/><path d="M159.7,135.4c-6.3-13.2,1.1-11.9,2.1-24.4-2.6-1.6,2.2-3.3-.4-4.8s-.7-4.5-2-5.9-.8-.8-.3-1.6-1.3-1.3-2-2.1c.9-.4.7-1,.8-1.6,2.1-1.7-.6-.9-.8-1.4-.5-2.1-2-.8-.5-3.2s-1.9.1-2.3-.8,1.6-1.1.6-1.7c-3.1-1.7-.7-1.8-1.9-2.5s0-1.8-.9-2.1c-4.1-.1-.3-1.3-2.2-2.8.2-1.1-1.1-.7-1.8-1s-1-2.3-2.3-2.4-1.1-1.7-2-1.4-2.2-2.7-3-.7c2.5.8-1.6,3.7,4.1,4.4.3-.3.9-.5,1.2-.2s-2,1.5-1.5,2.7,2.6,4.7.8,5.7c-1.3-2.2-1.2-5.3-2.6-7.4s-5.3-7.9-1-7c.9.4,1.1,1.3,1.9,1.9s.8.7,1.8,1.2,3.3.6,2.7,1.9,2.1-.1,2.9,1.7-2.7,3.2,1.8,2.9c1.4,0-.8,1.8.3,2.1s.6,2.1,2.4,1.4-1.8,3.6.4,3.2-.4,4.1,3,4.4c1.2.5-1.7,2.1-.3,2.9s1.4,1.1,1.2,2.3,2.3,1.8,1.3,2.7c-2.8,1.6,1.7,3.7,1.8,5.4s-2.7,2.7-.4,3.7-1.3,2.5-1.1,3.5c.5,4.3-2.1,6.8-3.6,11.1S161,132.6,159.7,135.4Z" style="fill:#c5a881"/><path d="M159.9,135c-5.5-11,.9-11.5,2-21.7,2.5-2.4-1.9-2.7.5-4.9s-1.5-2.8-1.9-4.6,2.4-2.3,0-3.6.8-2.3-2.2-3.8c.1-2.9,2-1.3-1.1-3.9-.9-2.3,1.1-3.3-2.3-3.1.9-.8.3-2,1-2.9-1.8-.2-1.4.7-1.9-1.2-2.6,0-.2-1.9-1.1-2.4-5.1.6.5-2.8-2.2-2.8-.4-2-1.8-.5-2.7-1.3.5-2.6-2.1-1.7-3-2.5s-2.5-.9-2.6-2.5c0-.1-1.5-1.6-2.2,0,.6-4,5.5,3.8,8,3.2s0,1.1.1,1.7c7-.4-.2,4.7,5.8,3.9-1.2,1.2-1.2,2.5.7,2.4-.8,1.4.3,1.1,1.4,1.2-2.1,6.5,2.8.1.8,5.5a7.7,7.7,0,0,0,1.6.7c-1.2,1.1.3,1.3,1,1.8s-2,2.6-.2,2.7.1,3,2.2,4.1c-1.9,2.5.6,4.1,1.9,6.8-2.1,1.9-1.1,2.3-.1,4.2s-1.6.5-.6,1.5c-1.9,0-.5,1.7-.7,1.8s.2,2.4-.6,3.4C156.8,123.8,157.7,129.4,159.9,135Z" style="fill:#c2a782"/><path d="M50.5,75.4c1.1,9.9-1.7,17.7-12.9,13.6-4.3-1.3-10.4.6-11.5-4.5C21.9,73.6,32,44.2,46.2,50.9c-11,.8-11.1,13.4-9.1,20.8,4,1.5,5.1-4.4,8.3-3S50.7,72.1,50.5,75.4Z" style="fill:#68a1aa"/><path d="M27.5,65.5c-7.7,20.1,2.2,25.9,21.3,23.7C25.8,104.6,18.5,86.3,27.5,65.5Z" style="fill:#5397ae"/><path d="M50.5,75.4c-.2-3.7-3.3-5-5.8-6.8s-3.4,4.8-7.9,3.2c-1.9-5.7-.4-18.6,8.3-18.9-7.9,1.4-9.6,13-7.9,18.5,3.5.4,5.5-5.5,8.6-4.6,6.3,5.6,8.3,14.2,4.1,21.7,1.7-4.9,3.3-9.4.7-14.4Z" style="fill:#72a1a1"/><path d="M127,38.1a10.2,10.2,0,0,1,2.4,7.4c-1.4-3.4-3.1-6.8-4.5-10.3v.4c-2.1-5.3-5.8-20.2-13.8-13.2C121.2,13,124.3,32.2,127,38.1Z" style="fill:#5a7391"/><path d="M129.8,47.4c3.7,7.4,3.7,16.9,9.8,22.6-2,1.8-5.4-6.6-5.7-8.3s.6,1.9-.6,2.2c-1.7,4.2,3.1,6.7-3.1,8.8-3.6,1.7,1.9,2.1-3.3,4a49.5,49.5,0,0,1-13.7-11.6c-1.9-1.5-3.3-.3-3.9-3.2-1-1.1-2.8-.1-2.4-2.1.7,1.3,2.4,1.1,3.3,2.1s2.2,2.6,3.7,1.5a5.9,5.9,0,0,0-.2,1.4l1.7-.2c-.7.9-1.5,2.5.4,2,2,2.9,9.1,10.3,12.6,8.6.5-.6-.9-.1-1-.5s.2-1.3-.4-2c1.6,0,8.7-1.6,4.8-4.2-.6-.2-.5-.8.1-.9s-.2-3.1-1-.1a1,1,0,0,1-1.3-1.3c-.1-.8-1.6-.2-1.6-1.3-3.5-3.1-6.6,2.8-6-3.9-1.8,0,.6-1.9-.4-2.5s.2-1.8,0-2.8c1,.8.6,6.4,1.3,2.3.4.3,0,1,.3,1.4,3.2-4.7-1.3,3.1.5,2.7s-1.3.4-1,1.2,6.1-1.5,6.5.1c-1.9.7,1.4,2.4,1.4.6s-.4-.5-.7-1,1.5-1.5.5-2.9c-4-6.9-.6-1.7-1-6-.5-1.4.6-3.9,1.3-1.4C131.5,51.2,128.6,49,129.8,47.4Z" style="fill:#a66c32"/><path d="M111.5,28c1.9-1.7,1.7-1.4,3,1.2-.5-3.2,1.2-1.6,2.4-.1-.2-2.5,1.9,1.8,2.8,1,.3,2.4,1.3,5.2,1.8,7.8-1.6-.8-.8-3.5-1.8-4.9-1,.7-.4-1.5-1.6-1.2s-.4-.2-.5-.5-.8-.1-1.2-.8,1.7,4.1-.7,3.1c-.6,1.2.4,5.1-1.5,2.3,2,3.7-2.2,6.8.6,6,1.8,1.8-4.7,2-4.6,4.2,5.3-2.8,1.7,2.7,1.8.9-1.3,4.8-2.8,2-.3-.8-.8.4-1.7,1.1-2.5,1s2.1-3.2.6-2.5,1-3.7,2.4-3.7c3.5-.8-3.7-.7-4.6,3.8-1.6-3.4,2.6-5.9,5.4-6.2.1-.5-.9-.8-.2-1.2s.2-.2.1-.4c-2.3-.7-3.6-1.5-.3-1.6-1-1.7-2.2-4.1,1.4-.9C112,32.4,112.7,30,111.5,28Z" style="fill:#91714f"/><path d="M115.4,36.2c-.7-1,.3-1.9,0-2.9a4.3,4.3,0,0,1,1.2,1.1c.5-3.5,0-2.8,1.7-1-.4-4.4,5.5,8.4,3.5,8.9s-.1,1.4.3,2.6.2,2.2,1.2,3.3.1,10.6-1.5,5.3c-.7,1.1.7,3.1-.4,4.1,1,1,.2,2.1.1,3.2,2.6,0-.3,2.1.4,2.8s1.2,1,2.4.2c-3.8,5.6-6-10.3-2.8-11.3,3,.9-1-3.7,1.5-2.3-.8-.8-2.1-2.9-.1-1.3-.8-1.3-3.9-7.6-1.2-7.7-1.2-1.8-1.8-6-4-6-.3.7-1,1.1-1.7.5,2.4,1.5-2.5,7.9,1.1,6.1,1.6-.8-3.2,5.7-3.7,5.7.8-1.7.4-.9-.8-.3s.4-1.1.5-1.8-2,.9-3.2,1c.2-3,4.8-2.1,5.4-4.4-2.6.2-1.4-.8-.4-2.5s-1.7-2.8.5-2.5C115.7,36.7,115.3,36.5,115.4,36.2Z" style="fill:#7e5532"/><path d="M112.6,47.2c4.1-2.7-2.5,3-1.8,4.9a4.7,4.7,0,0,0,1-1c1.9,2.5-.2,3.9-.2,6.7.8-1,1.1-2.2,2-3.1-2.3,9.7-5.1.2-5.9-4.5l-.9,1.4c-1.5-2.9-3.4-5.1-3-8.5l.8.2c.3-5.7,3.3-11.2,6.9-15.3.6.8,1.6,1.6.7,2.5s.8-1.4-.8-.4c-.8,3.7-1.9-.6-2.6,4.3.6,1.1-.8.8-.9,1.4s-.9.1-.8,1.5-1.3,2.6-.8,4.5c-2.9,0-.6,9.7,1.3,6.9,2.7,6,1.7,3.7,4.8-.8-.8.2-2.3,4.6-2.7,2.1s1.7-2.4.2-3.2c.9.1,1.4-.8,2.1-.8s-1.7,2.5-1.8,4c1.3-.6,1-2.4,1.9-3.3a1.5,1.5,0,0,0,.1.7Z" style="fill:#a74"/><path d="M123.7,64.7c1.2-2.4,5.6,1,5.1,2.8s-.3,1.1.6,1.5c3,.8,2.7,2.5-.1,3.4-.9.6-2.3-.1-3.1-.8s1.6,2.1-1.6,2.3-4.9-4.3-7.9-5.9c-1.5-1.2,1.7-1.9,1.2-3s-3.5,2.6-2.1.1c1.2.2,3.6-2.1,2.3.9,4.1-2,7.6,7.9,11.5,5-1.5-1-5.1-2.8-2.2-4.5C125.4,66.1,126.1,63.9,123.7,64.7Z" style="fill:#844e1f"/><path d="M119.8,30.3c.1-3.3-.9-7-4.1-7.2-.3-1.7-1.8-1-2.7-1.5,6.2-9.9,19.1,32,14.6,25.8,1.3-1.9-1.8-6.4-2.7-8.1s-1.7-9.2-4.5-10.4c.4,3.9,3.1,7.7,3.7,11.8C122.3,38.1,121.6,33.5,119.8,30.3Z" style="fill:#a96e33"/><path d="M121.2,71.9c2.1,1.7,5.8,3.1,4.3-.7,2.9,2.7,9.3-.4,3.5-2.2-1.7-.4.6-2.2-.5-2.8s-2.3-2.9-4.5-2.4c3.3-1.7,7.6,6,7,2.7.9-1.8,2.8,1.2.5,1.5,4.9,2.8-2.2,4.9-4.5,4.8a1,1,0,0,1,.5,1.9l1.3.2c-2.6,3.2-8.2-3.1-10.4-5.4Z" style="fill:#9c5d21"/><path d="M117.5,64.5c-.6.4-1,1.2-1.7.6s1.8-.8,1.4-1.7-1.5-.1-2.1.6-.5.6-.9.3,2.1-2.8-.7-1.3a8.2,8.2,0,0,0,.4-4.1,6.2,6.2,0,0,0-1.1,1.7c-.9-2.3,1.4-4.7,1.5-7.1-.7.2-.6,1.1-1.3,1.2s1.8-2.6-.3-2.3c-1.9-2.8.4-3.4,2.3-5.3a4.6,4.6,0,0,0-1.6.7c1.3-1.3,1.6-3.4,3.2-4.6-.3,2.2.3,4.5-2.3,5.3,3.8-1.3.9,2,.2,3.9,2.7-1.4-1.5,4.4-1.4,6.3,2.6-3.3,1.2.9,1.2,2.3,2-2.8,1.3,1.3.5,2.6C116,62.5,118.4,62.3,117.5,64.5Z" style="fill:#794b2d"/><path d="M112.6,58.8c.9,2.8-1.8,2.2-.4,4.4-.1-.2-1.8-.2-1.6-.6C110.6,58.7,112.2,62.3,112.6,58.8Z" style="fill:#844e1f"/><path d="M62,72.9c1.6-2.4,1.4-7.2,5.6-7.9.7-.7-1.6-3.4-1.7-1.6-.6-1.2-2.1.9-2.7-.6s1.7-.7,1.1-2.2,2.2.2,2.6-1.1,5.3-.8,4.7-2.2-1.3-2.8-2.4-3.9c4.8.4,9,3.3,14.1,2.1.4,2.3-8,1.5-5.3,4.4,7.5-5.4-5.1,12.5-1.7,16.6,1-4.8,3.8-8.5,8.3-9.8,1.1-.4,0,1,.5,1.4s-1,.7-1.4.9c-1.3,2-.3-.5-1.3-.8.8,1.2-1.3.4-1.5,1.4s-2,1.3-2.1,2.3-.9,1-1.1,1.9-.9,5.3-1.9,3.2c-2.2-5.6,3.5-13.1,4-17.4-7.3,4.8-5.9,14.8-9.6,21.8-2.3-1.2-2.9-7.5-6.2-9C65.2,74.2,63.1,72.9,62,72.9Z" style="fill:#b5814e"/><path d="M84.7,66.8c-.7,1.6-2-.3-2.9,1s-4.2,4.4-5.1,7.4c-.8-5.8,8.4-7.1,6.7-10.7-.6.2-.4,1.6-.9,1.4-2.5-1.1-.4-2.6.4-4,.1.6,1.1.8.8,1.7a1,1,0,0,0-.8-1.7c1.8-1.4,5.3-8.2,6.2-3.3.3-1.2,2-2.7,1.9-.7,1.1-.9,1.9,1,3.1,1.4s.7,1,3,.3c-.1,1.8,1.3.3,2.1,1.2s1.7-.6,1.7.4.7.3,1,.2.9.5,1.1.1,0-1.9-1.1-1.7,1.4-3.4,1.7-1.9,1.3.2,2,1.3-.8,1.4,1.2.9c1,1.9,3.5.9,3.2,3.4,1.5,0,9.2,6.3,6.5,6.7,1.2-.3,1.9-.2,1,.9.7-.1,2.5-.1,1.4.9,4.6.3-1,1.7,2.9,1,.6,1.3,1.4,1.5,3,2.2s4,5,5.7,3.3c.1-.7-1.1-.2-.7-1.1s-.7-1.5-.4-2.2-1.2-1.6.1-1.9,2.2-1.6,3.7-2.1,1.9.7,2.1-.4c-3,.5-1.1-2.3-2.1-3.7s.1-2.2,0-3.3c1.4-.8-.4-1.9.5-2.8.7,3.2,2.6,5.6,3.9,8.3.9,1.1,4.1.9,3.1,2.5-1.9-2.2-4.8-.9-2.6,1.6s-3.6,2.5-3.1.6-1-.8-.4-1.6-3.4.3-3.9,1.1c1.2,15.9-3.6.6-10.6.5.5.5-.4.7-.9.8-2.2-.3,1.1-2-.2-2.1s-1.3-1.1-2.3-1.2,0-1-.6-.7c-2.2.1.3-1-1.9-1.8,1-1.1,1-1.4-.2-2.3-1.9-4.8-7.9,1.2-4.5-4,.3-1.3-2.7.7-1.4-1s0-.5-.2-.3-3.3,1.7-1.4-.5c.3-.9-1.3.2-1.5.5s.6,1.2-.1,1.7-5.1-.6-4.9-1.3-1.5.5-1.6-.5-1.9.5-1.9-.6-.4-.1-.6.1-.2-1.2-2.3-1c-.3,0-.6,0-.7-.4s-.6.5-1,.1.1-1.7-.5-1-1.6-1-2.2,1.1-.6-1-1.4-.3-.7-1.5-.3-2c-1,1.6-3,2.2-2.9,4.5.3-1.5.8-1.8,1.8-1.2.9-2.1,2.5-.1,2.1,1.4,1.8-2.5,2.7-1.5,1,.7,1.6-.8,2.6.4.7,1.7,6.2-5.6-3.9,9.4-1.8,2.8-3.1,4.5,0-2.2-3.4,2.3a6.7,6.7,0,0,1,1.6-5.9h-.3c2-3.8-.6,3.3-.7,4.1s.1-3.7,1.7-3.6c.9-3.1-2.3-.8-1-.5A30.1,30.1,0,0,1,84.7,66.8Z" style="fill:#ae7a45"/><path d="M105.9,60.3c-2.6,1.7,1.7-2.4-2.4-1.3.2-2.5-.8-.4-1.6.7,1.9-.2,1.4,1.6.9,2.3-.4-1.6-1.9,1.1-2-.9a16.7,16.7,0,0,1-3.8-.6c.3-1.7-.8-.4-.9-.4s-3.5-1.2-4.4-2.4c-1.7,1.5-.5-.6-.8-.7,4.2-4.8,8.1-4.2,12.2.2,1.6-.4.5.7.8,1C105.8,58.5,105.8,58.7,105.9,60.3Z" style="fill:#ab7034"/><path d="M64.5,60c.3-.8,1.5-.5,1.8-1.9s3.8-1.6,2.1-2.1c-3.2,2.5-3.5-1.3-5.3-1s-2.1-.1-2.8-.3a1.6,1.6,0,0,1-2.4.2c-2.1-.9.4,1.8-2.5.9-1.3-.3-3.1.6-3-.9-1.7,0-.7.4-.1.8-8.8-.2-8,10.8-11.5,11.7,1.3-4.9,4.3-10,9.3-12.1-1.3-1.3-3.8,2.3-4.6-.2,1.8-2.2-1.1-.1-1.9-1a31.9,31.9,0,0,1,11.1-.3c.7-.3,1.5-1.7,2.3-.4s1.8-.4,2.8,0,.9.7,1.4.2,6.8-.1,4.1,1.6c.3,1.4,1.1-1.3,1.9-.5,4.4-1.1,3.5,3,.5,3.6C66.4,58.9,66.3,60.7,64.5,60Z" style="fill:#8f5017"/><path d="M66.7,58.4c6.1-1.3,2.8-6-1.3-2.5-.4-.7-.3-1.1.6-1.1-1.2-2.9-4.4.3-6.4-1.3s-.8,1-1.6.7-1-1.5-2.1-1.2c-2.5,1.8-7.6.1-11.2.8,8.4-4.9,40.7.2,19.6,6.8C65,59.5,66.9,60.6,66.7,58.4Z" style="fill:#a5682d"/><path d="M43.6,54.1c.9,0,2-.5,2.8.1-2.5,3.8,2.8-.4,4,1.1A16.7,16.7,0,0,0,41,67.7c5.1-7.3-1.3,6.4-2.4,2.1,1.7-2.2,1.7-5.9,3.5-7.7s-.1-3.7,1.6-5c-1.1-5.1-4.9.5-6.2,3C38.1,57.1,40.1,53.8,43.6,54.1Z" style="fill:#784317"/><path d="M90.8,57c-1.4,0-1,1.5-1.9,2,.7-.9-.6-1.3-.6-2.1C90.2,56.8,90.4,54,90.8,57Z" style="fill:#ab7034"/><path d="M102.3,54.5c-3.6-2.4-5.4-2.2-1.8-5.8,2.8-.2,10.2,10.9,6.8,10.6-2.2,1.3.9-2.7-1.6-1.5C104.7,56.7,103.1,55.7,102.3,54.5Z" style="fill:#4e2407"/><path d="M48.2,123.3l-.9,1.3c6.3-4.9,1.7,9.3-2.4,7.2-1.4-.4.2-1.4-.5-2s-1.6-3-3.7-3.4a10.3,10.3,0,0,1,1.5-1.4l-1.7-.2c.2-.3,1-.8.5-1.2s2-1.7,2.2-2.9c-4.7,1.1.7-1.5.5-3.5-2.5-1-1-1.6-.2-3.5a4.1,4.1,0,0,0-1.9.1c3.3-1.1-.2-2.1,4-2.9-1.3.6,1.1,2.1-.7,2.7s1.2,1.3.5,2c-2.7,2,3.3,1.7-.5,4.1,1.1-.2,3.6.2,2,1.5C46.9,122.1,48,122.4,48.2,123.3Z" style="fill:#411e06"/><path d="M51.4,133.1c0,2.2-3.4,6.3-1.4,2.4-.8-.3-1.8.3-2.7-.4,1.5-1.6-.3-5.6,3-6.5C50.4,130.6,53.2,128.7,51.4,133.1Z" style="fill:#411e06"/><path d="M47.1,132.8c-.1,1.8-1.9.2-.3-.4Z" style="fill:#411e06"/><path d="M50.7,72.7c-2.4-3.2,1.3-.2,2.9-.7s-.2-1.2.7-1.6.4-.3,0-.7-2.8-2.6-4.2-3.6c-3.4,1,3.3-5.3-2.3-1.7-1-1.8,4.9-6.7,2.3-2.9-.5,1.9,6.9-3.1,6-1.2s-1.6,1.9-.3,2,4.2,1.9,3.4-1.9c2.7-.8,0-1.1.8-1.9s-.8-3.4,1-1.5c3.6,2.7-1.8,4,0,5.6a6.4,6.4,0,0,1,2.1-2.5c2-1-2.9,4.9-3.9,4.7.4,1.9-2.6,3.9-1.3,5.4l-1.9.2c2.3.9,1,4.3-1.2,4.1C55.1,70.7,51.7,75,50.7,72.7Z" style="fill:#65492c"/><path d="M66.7,58.4c.4,2.2-1.1,1.5-2.4,2.2.2,1.8-4.3,3.5-2.2,3.9s2.3-.5,3-1.3,2.1,2,.8,1.7,0,.6-.4.9-2,1.9-2.8,3.2-3.6,1.8-1.8,3.6-1.1,2.8-1.4,4.1.8,1.9-.3,2.9,1.2,3.7-1.1,3.2c1.7-.2,0-3.1.9-4.5s-3.1-.9-3-2.5,3.8,2.1,3.7-1c1-1.5-.3-.5-.8-1.1l1.7-.7c-.8-1.1-1.9.7-3,.1,1.1-.8,1-1.5-.1-2.2,1.1.2,1.8-.9,2.9-.6-.1-1.3-1.6-.4-2.2-1s.8-2.3,2.3-1.6c-2.2-2.8,2.4-5.6,4-7.7C65.6,59.9,66.5,59.9,66.7,58.4Z" style="fill:#8b653c"/><path d="M61.4,57.6a5.6,5.6,0,0,0-3.6-1.7c-2.9-1.1.3-1.8,1.7-.6,1-1.3,1.4-.2,2.4-.2s.8-1.5,2.5.2,2.9.2,4.6.7-4.3,4.1-5.3,3.9c1.1-.8,1.9-1.7,3-2.5-2.2-.1-3.8-2.3-6.2-1.4C61,56.3,62.1,57.1,61.4,57.6Z" style="fill:#784317"/><path d="M51.1,135.1c.4-2.9,4.5-5.2,2.6-.9,3.2-1.2.8,3.6,3.4,3.7-.6,1.6.6,1.8,1.6,2.5s1.5,2.2,2.4,3.1.9.6.3,1.2,1.7.5.9,1.8c3.1,1.1.1,1.9,3,2.6s.2,1.2-.1,1.4-4.6-2.2-3.9-3.2c-1,.8-1.4-.9-2.3-.5s-1,.4-.9-.5c-2.2-.5-1-.9-1.2-2.2-5.4-2.3-4-5.4-5.8-4.5C51,138.1,50.6,136.5,51.1,135.1Z" style="fill:#49290f"/><path d="M50.7,121.2c-.9-4-3.9-9.8.1-13.8.2-.2.5-.5.1-.5s.2-.8-.1-1.2c2.7-1.9-.2-8.1,4.6-8.2,1.7.6,0-1.9,1.1-2.1,4.4,4.6,7,2.6,4.4,10.2,3.2-2.9,5-7.3,6.1-11.5a9.1,9.1,0,0,1-3.6,9.3c-6.1,10.5-3.3,5.7-2.8-1.3-4.3,5.6-3.8-4.9-6.3-3.8-2.6,5-4.1,12.1-4.7,16.7.7.6-.4,2.2.4,2.5S51.3,120.6,50.7,121.2Z" style="fill:#9d8769"/><path d="M62,72.9a4.6,4.6,0,0,1,2.3.5l-.6-1.3c1.1.5,1,1.8,1.7,2.8a2.5,2.5,0,0,0-2.5-.2c.3,1.2-1.5.9-1.5,2s-1.2,2.9-.8,4.7c.7,3.4,4.9,6,5.3,9.4,1.2,1.6-.8,2.5-1.5.4s-3.5-4.2-4.6-7c-1,1.9-1.6,3.7-4.2,4.5A5.4,5.4,0,0,1,59.3,84C59.1,80.3,60.6,76.2,62,72.9Z" style="fill:#aa9170"/><path d="M66.5,91.8c-1.3-.1-.3-1.8-1.4-2s-.4-.7.3-.8c-1.8-.9.3-3.3,1-1,4.3-5.1-.4-10.8-1.7-15.3,2.6,1,4.6,10.9,5.9,7.5a8.7,8.7,0,0,1-1.3,4.5c-.6.3,1.3,2-.4,1.5.3,3.6-1.5,7.3-2,10.9-.1-2.2.7-4.3.5-6.3Z" style="fill:#ca965c"/><path d="M50.7,121.2c1.2-5.7-1.4-1.7-1.1-5,.3-5.5,1.5-13.5,5.3-18.5,2.1,2.4,2,8.6,6.1,4-.3,2.8-1.3,5.7-1.5,8.4,1.6-3.4,3.6-7.9,6.8-9.6-.6,1.8-3.5,4-4.4,6.5s-3.9,8.1-3.2,3.2c.3-1.7,2.8-7.4-.2-5.6s-2.4-9.3-5-3c-.9,2.4-2.2,6.5.8,7.7.5.7-1,2.6.8,2.1,1,1.3-.1,4.3,1,6.1-2.5,5.4,3,10.9,4.5,15.9,2.2,1.7.4,1.1-.9.8-3.2,1.3-.3-.5-.9-2-4.1-.5-.9-9.4-6.9-5.7.7-.8,1.9-1.1,2.6-1.9a1.7,1.7,0,0,0-1-.1c.4-.6,1.8-.7,1-1.6s-.6,1-1.6.8.7-.2.7-.5-2-1.7-3.5-1.3Z" style="fill:#988f7d"/><path d="M58.4,133.9v.8c.5-.7,1.8-1.3,2.4-.3s2.3-.7,1.3,1-1.1-.2-2.7-.3S57.7,135.9,58.4,133.9Z" style="fill:#82735c"/><path d="M57.1,130.5c-.1,1.8,3.5,1.2,1.4,3.1C57.6,132.9,56.5,131.8,57.1,130.5Z" style="fill:#82735c"/><path d="M58.9,89.9c4-.3,5.1,4.9,4.6,7.5a3.7,3.7,0,0,0-3.1-.3C57.7,96.8,54.7,89.8,58.9,89.9Z" style="fill:#0f0c08"/><path d="M79.2,170.2c1.9,12.2-18.7,2.3-17.8-4.8C66.8,162.1,75,167.2,79.2,170.2Z" style="fill:#7bbbc5"/><path d="M73.9,143.8c0-2.7,3.5-7.8-1.5-4.7-.2-.2-.8-.8-.1-.9,2.1-2.1-3.4-.7-4.1.5s-5.3-1.5-6.3,1.7c-.2.6.7.4,1,.6-.6,2.4,3.4-.5,1.1,2.6,3.4.3.3,2.8,3.1,3.2,1.1.2-.1,1.6,1.4,1.8s1.2,2.6,2.2,2.9c2.5-.6,1.9,3.3,4.7,2.6s.2,3.9,3.8,3.6c.2,1,1.1,1.1,1.7,1.6-1.4.3-1.6-2.3-3.3-1-.3-1.1-1.9-1.8-1.8-2.2.5-3-3.2-.4-3.2-3s-2.5-.4-2.9-2-1.3-1.5-2.5-2c.3-1.6-1.5-1.7-2-2.6s-.2-2.1-1.8-2.3,1.2-2-.8-1.6-.7-1.4-1.6-1.4c-2.4-6.4-.2-4.1,4.1-4,.4-.7.6.4,1,.3s-.2-1.4.6-.7,1.1-1.1,1.6-.2C77.5,136.3,77.3,133.9,73.9,143.8Z" style="fill:#82735c"/><path d="M90.5,164c.2,2.1-2.5,3-2.7.4.6-.4,1.7.4,2.4-.9Z" style="fill:#8d5521"/><path d="M68.7,136.9c-2.2-.9-1,1.7-2.5-.2-.6.2.6.9-.1,1.2-.8-1.2-2.5.1-3.2-1.2a1,1,0,0,1-1.6.3c-1.1-1.1-1,1.3-1.9.2,2.4-1.5-.5-1.4-1.5-1.8,1.2-.6,2.9-.6,3.3.6.6-.4,1.8-1.3.4-1.7s-3-6-4.6-9c2,2.2,3.1,6.6,6.1,7.6.8.4-.8,1.4.4,1.7s3,2,4.5,1.7S68.8,136.3,68.7,136.9Z" style="fill:#80735d"/><path d="M60,137.6a24.2,24.2,0,0,1,1,3.6C60.6,140,59.5,139.1,60,137.6Z" style="fill:#80735d"/><path d="M159,117.2c-4.8-1.2.2,1.7-3.9,7.1-.5.5-1.6-.3-1.6.7s-1.8.8-1.6,2c-1.4,0-2.3.4-1.2,1.8a16.4,16.4,0,0,0-4.4-.4c-1.2.1-4.8-3.7-2-2.8s-1-2.7.3-3.8c2.5.8,1-2.9,3-2.6s-1.5-3.9,3.4-5.4c-4-1.8,1-4.5-.1-7.6-.2-.2-.8-1.5.2-2-.8-1.4.2-2.6,1.5-3.1l-1.3-1.4c2.3-.6,3.3-2.8.1-2.5.1-.6.6-1.4.2-2.1s2.2-.5,2-2c-2.1.2-3.2-1.4-.6-1.9s1.2,3.1,3.6,3.2c-.4,1.3-1.4,2.1-1.3,3.3,2.9.4-.2,2.4,1.7,3.9-2,.3-.4,2.4.9,2.6-.9.6,1.5,1.3-.1,2s-.1.4.1.5C159.5,108.8,160.5,114.2,159,117.2Z" style="fill:#f0d9b5"/><path d="M141.4,132.8c2-.3,8.3,4,4.9.1.2-.6,1.3.5,1.4-.3s1.7-.9,2.3-.3-.9,1.6-1.8.6c2.8,3.6-3.1,3.3-2.9,6.5-1.3.9-4.3,1.5-4.7,2.4s-2.5-2.1-2.7-.1,3.7.8,2,3.1c-2.3-.6-3.3-3.8-4.9-5.4a4.5,4.5,0,0,0,.1,1.6c-.9-2.7-4-3.9-5.1-5.7,3.2-.5,4.8,4.7,7.9,5.5-2.5-6.9,2.3.2,2.9-2.5A7.6,7.6,0,0,1,141.4,132.8Z" style="fill:#e2c79e"/><path d="M144.1,128.6c1.4,1.4,1.7-1,2.6,1.5C146,129.6,142.7,130.1,144.1,128.6Z" style="fill:#f0d9b5"/><path d="M151.6,90.7c-.5-.8,1-1.5,1.4-2.2A1.6,1.6,0,0,1,151.6,90.7Z" style="fill:#f0d9b5"/><path d="M145.4,87.6c1.5-1.6-.4-4.2-1.1-5.9s2.1-1,1.8-2.2-1.1-.1-1.2.4c-1.9-.8-5-1.7-3.1-4.5-3.1-.2.3-2.4,1.6.3.8-.4,1.1-.3,1.2.7s1.4.2,1.9.9,1.3,2.8,3.3,2.2-.4,1.5,1.1,1.4c-2.5,3.8,2.6.8,1.5,3.6-.3.8,3.6,3.7,2.6,4.1.1-1.8-2.9-1-1.9-2.4s-.2-.8-.6-.8.9-2.3-1.1-2.1-.8-1.2-1.3-1.8c-3.1,1-1.4-.3-.5-1.3-1.8-.9-1.8,1.5-2.4-.2s-2.8,1.2-2.2,1.9,1.7.4,2.1,1.5c-1.2.5-1,2.8-.1,3.1s0,2,.1,2.9,2.8,3,1.4,5.2,1.7.7.7,1.8c1.1.6,0,1.7.1,1.7,2,1,.4,1.7-.1,2.4s1.3,1.3.2,2.3.7,1.1.1,1.8-.5,2.5-.4,3.7-2.5,1.9-1,3.6c-1.5.1-.9,2.1-2.3,2.3s-.4.3-.3.7.6,1.6-.7,1.8.3,1.3-.8,1.4c.6,1.6-2,1-1.5,2.6s.3.9-.6,1-.1,1.4-1.1,1.4c-3.1.5.1,5.4-3.7,3.2.1.6.8.8.9,1.5-3.7.3-.6,1.2-2.1,1.8s-1.6-.4-1.8-1.8-5.1-1.7-4.5-3.8c1.2-.4,1.4,1.4,2.5,1.1.2-1.9-5.1-4.8-1-4.1.6-.2.3-1-.1-1.3s2.6-.3.9-2.4.5-1.7,1.5-.4c0-1.3-2.8-1.4-3.6-2.5,2.6.7,7,0,5.6-3.5,2.1-.2,3.2-3.4,4-5.1-2.2-1.4.1-.8.5-1s-1.1-1.4.2-1.7.4-1.8,1.6-2.1c-1.5-.1-.9-1.8-1.9-2.3,2.4-1.2-2.5-2.1.1-3.5.6-.4-.4-.6-.7-.9s1-1.6-.6-1.8,1.1-1.9-.5-1.8c-3.5-2.4-3.1-4.6-8.2-6-6.3.8-17.5-3-21.2,3.1-1.1,2.3-5.8-2.4-6.1,2.7-1.2,6.9-7.2,10.3-13.6,6.8-1.6-.4-.3,2.5-1,3.4s-2.5-.1-3.6.3-6.7,1.3-4.5-.4c-.2-.7-1.8,0-1.4-1s-1.1.1-.9-.9c-2.6-2.6.1-5.7.2-9.3.2,1.2,2,3.1,1.3,4.3s1.1.7.7,1.6.2,1.8.9,1.4.3.9-.1,1.3c1.9-.4,3.5,1.8,5.9,1.8s-.1-2.7.9-3.3,3.5,2,4.7.8.8,0,1.4-.3-1.5-1.9-.1-1.5.7,1.9,2,2c-2.3-1.8,1.1-.5,2-1.2-3.2-2,2-.8,2.9-2.4-1.3.8-8.7.7-4.2-.4-1.1-1.5,1.6-1.6,2.5-2.7,1.6-6.9,4-2.6,8.7-3.9,5.5-5.4,21.6-3.8,27.1-1.2.7.7,5.1-.2,1.9,1.4,3.2-.2,3.9-.4,1.2,2,.2.6,1.5-.2,1.5.7s4.2,0,2.8,1.5,1.3.1.8,1.3-.3,2.2-.7,3.2,1.3-.3,1.1.4.9.3.8.9-1.2.1-1.6.6,2.1.8.7,1.2.7,1.7-.2,2.7-1.4,1.4-.9,3.4c-2.8.7,3.3,1.5-1.8,2.5,2.5.7,1.4,3.2-.8,2.2.7,1.8-1.5.3-1.6,1.2s-1,.7-.4,1.1c4.3,1.9-1.5,1.5-1.4,3.6s-1.8,1.5-.9,2.5-1.5.1-1.8.9,1.8,2.9.1,2.7,3.4,3,4.2,3.4-.4-.9.3-1.1-.1-2.2,1.7-1.5-.4-3.2,1.6-2.3.5.2.5-.3,1.7-1,1.5-2,.5-.7.4-1.1-.5-1,.1-1.1-.4-1.3,1.2-1.7.4-3.2,2-3.9-.3-4.1,1.7-5.2-1.4-1-.5-1.9-.9-2,.5-2.8-1.1-1.4.1-2.3-2.5-3.2-.7-4.8-2-.8-.8-1.7S144.2,88.6,145.4,87.6Z" style="fill:#deb885"/><path d="M109.1,113.2h.4c-6.3,7.5-13,17.6-23.2,19.7-3.4-1,.8-2.8,1.8-3.9s-1.7.8-2.7.4-2.5.8-3.4.3-1.1-2.5,0-2c-1.1-1.6,2.1.1,1.3-1.3s-3.8,1.1-2.6-1.3c-1.6-3.4-1.6-6.7-3.2-10-1.1-1.7-1.9-3.7.7-4.6-5.1-1.3-5.8,2.1-6.8-5-1.7,0,.2-.7.2-1.4-2.7,1.2-1.5-1.3.5-1.5-1,.6-1.1-.8-.3-1.2s-.8-1.5.4-1.2.4-1.3,1.7-2.1-.9-1,0-1.6c.2-2.5-5.6,9.8-7.5,8.1s1.5-.8,1.6-2.1c1.8-2-1-.4.1-2.4.9-.5,3.2-23.4,4.2-17.9.7-4.3,1.2.5,1.6,2.3s1.9,3.1,2.9,4.7c.8,3.7-2.4,7.2-1.7,10.4.8-.7.6.3.8.7,1.8-.1,3,1.6,4.1,2.6-4.5-.4-5.4,2.7-3.9,6,.9.4,4.4.7,3,2.2s.7,2.3-.2,3.8c2.7-1.8,5.5,1.8.7,1.2,0,1,1.7,1.6,1.3,2.9s.1,1.9,1,1.7,2.2,1.7,1.2,2.5,1.4.7,2.1,1,6.1-4.2,5.7-1c-.7,1.4-4.3,2.1-3.4,3.4,9.3-3.7,2.3,1.4,7.4.6.9-2.8,7-4.5,6-6.9-2.1-.2-1.1-1.9.3-.7C104.6,120.4,106.1,114.4,109.1,113.2Z" style="fill:#dccdba"/><path d="M80,102.8l-.6-.3c1.6.3,3-.6,4.3-.1a3.5,3.5,0,0,0,3.5.7c2.1-.7.2-4.1,1.8-4.9,3.5-.6,9.8,3.1,11.2-2,4.1-3.2,2.2-13.1,8.2-5.3,1.8-.5-.6-4.4,2.1-4.4,5.6-2,11.6-1,17.1-1.5s8,4.3,10.2,8.2c1.4.4.3,1.4.3,2.2s-.6.8-.2,1.2,1.5,1.6-.1,1.8c1.4,1.1,2.9,3.3.6,4.8.6,1.7-1.4.8-.7,2.2s-1.3,1.8-1.3,2.7.3.7-.4.9-.3.8-.9,1.4c-2.4,2.4-6.2,4.8-9.5,3.3-.3-1.1,1.5-1.2-.1-2.1-3.3-.5-6.9-2.6-10.3-2.2.3.7,1.5.9,1.2,2s1.6.5,1.5,1.3c-2.6,1.5-6.1-2.3-9.3,0,.9.5-.1,1.6-.9,1.5-3.9-5.1,8.9-.4,7.5-3.6-1.1-1.2-.6-1.3-.6-2.2s-2.5-1.9-3.7-2.6c1.8-.8,4.6,1.1,6.7,1.1-.1.7,4.7,4.1,4.2,2s5.3-.6,6.1.4c-2.6,2.1-1.1,1.6,1.2,3.1,1.5-2.5,1.9-1.3,4.6-2.3,1-.3-.4-1.4.7-1.7s1.6-2.2,2.1-3.1.2-4.2,1.4-3.8-1-1.8-.9-2.6.3-1.2,0-1.8-1.3-.6-.7-1.1c1.8-2.5-2.7-4.5-2.7-6.3s-1.9.1-2.5-.4,1.4-1.7,0-2-2.8-2.4-4.9-1c-2.8-.4-.2,2-3.3-.3-1.2.1-3-.6-3.2.7-2.8-.7-5.2,2.8-8.2.8-1.3-.7-.4.5-.5,1.2s-.6.5.3,1.4c1.4,2.7.7,5.8-2.8,4.9-1.7-.1.7-1.4-.2-2.1s-3-5.4-3.7-3.3c1,4.8-6.8,9.4-4.2,10.8C77.4,94.6,99.2,111.7,80,102.8Z" style="fill:#f1d3a7"/><path d="M115.6,110c-3.3-2.3,13,1.1,10.2,2.9s2.7,1,2.9,2.3-1.7-.4-2.3,0c2.4,1.1,5.4,1.6,1.9-1.2,1-1,4,.3,4.7-1.1s.4-1,1.2-1.2-.1-1.2.8-1.4.4-.2.3-.5,1.8-.3,1.4-1.5.4-.6.8-1-.8-2.2.6-2.9,1-.1.5-.6,1.1-1.4,1.1-2.5-1.5-.8-.7-1.6-1.2-.6-1.2-1.3c3-.9.1-.9.3-2.2s1-2.4-.1-2.9c-4.7-10.5-16.9-9.1-27-6.9-2.5.1-2,5.1-5.4,1.7-3-.7-2.3,6.4-5.4,8.4-1.6,6.4-10.8-1.4-11.8,3.3a2.9,2.9,0,0,1-3.9,3.3c-1.5-1.7-3.5.4-5.1-.6s-3.8-1.3-3.8-3.1a1.5,1.5,0,0,1-.9.2,1.3,1.3,0,0,0,.3-.5c-1.3-.7.4-1.6-.1-2.3s.9-.8,1.6-.6,1.2,1.5,1.3,2.3.4.4,1.1.7,1,.4,1.4,1.4c-2.9,1.9,4.5-.5,5.8.5s1.8-.8,2-1.8c-.6-4.9,3.3.1,5.8-1,9.1,2.8,5.8-12.1,12.8-10.2.6.4,2.7.7,1.7-.6,5.9-5.6,22.4-4.9,27,1a9.7,9.7,0,0,0,2.7,2.2c1,.9-1.8.6,1.1,2.4.7.4-.6.8.1,1.2s-1.1,1.2-.4,2.1,2,1.6,0,2.2c1.5.3,2.2,3.2,1,4.3s.7,1.8-1.7,2c1.8,1.4-.4,3.1-1.2,4.6-1.5-.4-.7.1-.9,1.1-1.8-.1-.6.6-.5,1.5-2.6,3.2-2.1,2.1-6.3,2.1,4.1,3.9.9,2.1-2.6,2.5-.9-.2-1.7-.2-2.3-1s-3.9.3-5-1.7c-3.3-3-1.2,2.3-5.8-1.9,2.3,1.1,1.7,1.1,4.2.7a6.7,6.7,0,0,1-2.2-2.8c1.3-.1.7,1.5,1.4,1.8s2.5,1.1,2.4-.6S115.4,108.7,115.6,110Z" style="fill:#ebcda0"/><path d="M112.6,155.8c1.3,4.6-4-1-4.8-2.7s-1.1,1-2.2-.8c-.1,3.2.5,7.4-2.7,2.3-1.4,1.6-1,4.5-2.2,5.6-4.6-7.8,6.2-13.3,6.1-21.2,1.9-3.3,5.9,3.5,3.2,1.6s2,4.8.3,6-1.2-2.1-2.3-2.2a67.2,67.2,0,0,0,4,7.5C109.6,152.5,112,154.4,112.6,155.8Z" style="fill:#e1bc89"/><path d="M85.3,129.1c5.9-2,2,.4-.3,2.5,7.4,3.9,16.3-8.6,21.2-13.9,22.9-21.3-9.4,35.6-9.5,40a1,1,0,0,1-.3,1.5c-.8.1-1.8-3.5-2.5,0,.5-2.2,28-48.6,17.3-45.1-7.3,5.2-21.7,28.4-28.8,16.4.3-.8,1.3.5,1.5-.2S85.5,130.7,85.3,129.1Z" style="fill:#d5bd9c"/><path d="M114.9,151.7c-2.8-3.1-5.1-13.5-.2-5.2-.6,2.1,2.6,4,4,4.9-.6-3.4,4.6,2.3,5.6,3.3s-1.1.9-1.7.4-3.2.9-4.5-.5S116,154.3,114.9,151.7Z" style="fill:#e1bc89"/><path d="M114.9,151.7c1.6,4.2,6.1,2.6,9.5,3.7a11.6,11.6,0,0,0-5.8-5.1c1.4,3.1-4.5-1.7-4.2-3.3a3.9,3.9,0,0,0-2.7-3.6c-.4,1.4,1.8,2.1.4,3a4.3,4.3,0,0,0,.4,1.4c-1.1-1.4-.9-3.6-1.4-5.4,2.3,0,2.6,4,4.4,3.2s.8.8.5,1.4c-3.3-.7,1.4,3.9,2.5,4.2a9.8,9.8,0,0,1-.5-1.6c3.1,1,10.9,8.5,3.3,5.4C119.3,156.4,115.3,154.3,114.9,151.7Z" style="fill:#e0c59d"/><path d="M111.6,154.2c-.7-3.3-2.4-6.8-3.8-10.2,4.2,4.8,2.5.5,1.6-2.9,1.7,3.3,1.9,7.1,4.2,10.3-1.2-.5-1.1-3.1-2.5-3.3s2.7,5.7,3,3.9C116.8,155.5,108.5,149.6,111.6,154.2Z" style="fill:#e0c59d"/><path d="M122.3,142.5v.4a9.2,9.2,0,0,1-2.1-1.3,2.8,2.8,0,0,1-.1.9C115.8,137,121.1,137.7,122.3,142.5Z" style="fill:#e0c59d"/><path d="M109.5,137.2c.9-1.5,4.8,1.2,4.5,2.7S108.7,139,109.5,137.2Z" style="fill:#e1bc89"/><path d="M106.8,139c-.3,8.1-7.6,11.3-7.1,18.3C97.8,150.5,106.7,146.1,106.8,139Z" style="fill:#e0c59d"/><path d="M120.1,146c-.5.3-4.6-1.7-3.8-3.3C117.7,142.9,119.9,144,120.1,146Z" style="fill:#e0c59d"/><path d="M114.1,152c-.1,2.5-2.7-2.5-3.3-3.4C111.4,146,113.3,151.3,114.1,152Z" style="fill:#e1bc89"/><path d="M99.6,160c-.3,5-2.2-1.3-.7-2.9C99.6,157.8,99.4,159.1,99.6,160Z" style="fill:#f1d3a7"/><path d="M125.2,119c-1.5-.7-3.7-.3-4.4-1.8C121.9,117,126.1,117.6,125.2,119Z" style="fill:#d5bd9c"/><path d="M115.5,141.4c-1.3-3.4,3.3.5,2.8,1.8s-.9-.6-1.3-1S115.4,142.1,115.5,141.4Z" style="fill:#f1d3a7"/><path d="M109.5,137.2c.2,2.3,2.7,2.9,4.5,2.7-1,.7-2.2,0-3.2-.3s.6,1.2.1,1.8l-.9-.8.8.4c.1-1.5-1.9-3.5-3.6-2.3C107.8,138,109,138.2,109.5,137.2Z" style="fill:#e0c59d"/><path d="M101.7,147c.8-5.7,5.3-9.7,6.6-15.1C107,137.3,102.8,141.4,101.7,147Z" style="fill:#e0c59d"/><path d="M128.8,119.7a1.6,1.6,0,0,1-1.7-.7A1.1,1.1,0,0,1,128.8,119.7Z" style="fill:#f1d3a7"/><path d="M82.2,156.4c-3.6.1-5.3-4.7-7.7-6.6-3.3-4.4,4.3-4.4,3.8-8.1,5.8-9.5,3.5,8.1,5.9,7.4.9-1.2,1.5-3.1,3.1-1.4,1.6-1.3-1.8-4.7-.2-6.4s.1-2-.1-3.1c2.7-4.7-.2-2.6-3.4-3.3,1.3-.3,5.6-1.8,6.3-.1s1.3,5.7-.7,8.3a52.7,52.7,0,0,1-.5,7.1c.5,1.5-2.6,1.1-2.3,2.4s3.4-1.4,4.4-3.1,4.5-2.3,3.9-5c0-.6-.9-1.1-1-.2-2.6,9-1.2-3.8-2.5-6,1.6,2,.7-1.8.4-2.7s.1,1.9-.4,2.7c-1-1.5.5-3.7-.5-5,1.3-1,7.8-5.9,6-2-4.2,1.9-1.2,5-4.1,3.9,0,1.5,1.4,3.3.2,4.8s2.3-2.1,1.2,0c-4.4,6.1,2.4.8,1.1,6.4-.7,1.5-.3.7.6,1.3C90.1,150.6,89,155.4,82.2,156.4Z" style="fill:#b87969"/><path d="M73.7,144.4c-2,3.1,1.2,5.7,1.3,8.6-1.4-.4-1.8-2.4-3.3-2.1s-.9-1-1.5-1.5-.1-2.1.7-3.4c-.9.1-1.5,1.2-2.3,1.3.2-2.6-4.8-.5-1-3.7-1.8.1-3.9.2-1.9-1.9l-2.3-.2c3.9-3.5,4.3-.2,6.6-1.9-.4,2.2,2.8.6,4.2.5C73.7,141.5,73.9,143.1,73.7,144.4Z" style="fill:#ab9c84"/><path d="M85.3,135c5.9-1.4.6,2.1,2.5,4.4-1.3,3.2-.2,5.2-.1,8.6-1.4-.7-2.3-1.4-2.9.6-2.9,3.4-1.3-7.5-3.5-9.6-1.5-.6-2.9,2.9-2.9,4.1s-4.9,1.9-4.6,5.4c-1-.9-.6-2-.3-3,6-6.6,7.3-14.2,10.1,0,.5,2.9,1,.8,1-.9s-2.2-6,.6-1.8c-1.9-5.9,2.5-6.5-1.6-7.5C84.1,134.6,84.8,135.5,85.3,135Z" style="fill:#9a5d4c"/><path d="M110.9,124.9c-6.2,12.3-9.2,28.4-21.6,35.2,1.6.3,1.3,4.9,3.5,2,1.7-1.3,2.6,3.9,4.1,1.3,1.5-.3.5,2.1,3.1.3s3.1-.3,3,1.9c-1.6.3-1.5,1.2-.6,2.4-6.1.3-2.5-.3-5.2-4l-1.3,1.8c-1.1-2.3-3.1-4.8-4.3-1.3-1-2.1-1.7-3-3.6-1.8s-1.4-3-3.4-3.8c16.9,1.3,18.5-22.9,26.3-34.2Z" style="fill:#c9a070"/><path d="M110.9,124.9c9.6-23.2-11.4-1.8-11.6,6-1.1-8.3-4,3.9-14.9,3.9-1.7-.4-2.9.2-2.6-2s.8-.2.5-.7c-2.9-1.6-2.2-1.9-2.8-4.7-2.3-3.6-1.5-7.6-2.8-11.7-2.8-2.3-2.7-.9-2.8-4.4-.8,2-1.7,2.9-2.8.3-1.5-1-3.2-1.9-4.4-2.9.4-1.4,3.1-1.4,2.4.5s1.6-.3,1.3,1,1.6.5,1.6,1.6,1.8-1.9,3.4-1.5,1.4,2.1,0,1.7-.5.1-.4.5c1.7,3.1,3.2,2.4,3.2,7.2-.4,1,2.3,2.8,1.1,3.1s-.1,1.1.3,1.4c-.8,1.8,2.8,4.5,1.2,6C89.8,148.4,122.4,91,110.9,124.9Z" style="fill:#b3a289"/><path d="M93,131.9c2.7-1.7,7-7.8,5.9-1,.9-.3,1.2-1.7.9-2.6-1.5-3.1,4.1-5.4,5.6-7.9-.7,1-.6,4.1-2.2,3.4-2,6.2-6.7,12.2-10.5,16.8,1.3-3.3-2.2-6.5,1.3-5.3-1-1.7,1.2-3.1,2.4-4.1s.2-1.3,0-1.4S94.5,131.6,93,131.9Z" style="fill:#c58871"/><path d="M82.2,156.4c.8-1.2,2.1-.9,3.3-1.1-7.6,2.5,7.5,5.3,12.5-4.3,3.3-11.5,13.9-24,14.2-35.6-1.5-.7-2.9,1.3-3.8,2.1s1.3,1.6-1.1,1.5c-3.4,8.8-10.3,16.3-14.8,24.2,3.6-4.8,15.3-31.4,20.5-27.4C109.7,126.1,97.5,167.6,82.2,156.4Z" style="fill:#7d6041"/><path d="M81.7,139.2c-.7-5.7-6.6,4.5-8,6.9,4.5-17.6.1-4.8-10.3-11.4,6.4,2.9,12.3-.2,18.9.3C80.3,135.8,82.2,137.6,81.7,139.2Z" style="fill:#804c34"/><path d="M74.5,149.8v-.3a38.6,38.6,0,0,0,6.3,6.9C77.5,155.4,75.1,153.5,74.5,149.8Z" style="fill:#816548"/><path d="M101.9,159.2v-.8c1.1,1.5,1.3-.4,1.4-1.3,3.6,5.3,2.2,1,3.2-2.1a10.5,10.5,0,0,1,.8,1.1c1.1-2.4,3.4,2.7,4.3,4s0,4.2-.7,5.5c-1.4-9-3.9-.1-5.8-5.2-.9,1.2,0,3.2-1.3,4.2C103.6,162.6,101.9,161.2,101.9,159.2Z" style="fill:#f1d3a7"/><path d="M90.4,160c.1-1.4,1.1-.7,1.6-.9s1.3,1.6,1.1,2.1-.8,0-1.6,1.2A8.6,8.6,0,0,1,90.4,160Z" style="fill:#e0c59d"/><path d="M127.6,47.4c.4.5.1.9.2,1.4,1.8-.8-.2-2.7.7-4.1.5,1,2.3,4.6.8,4.4s-.9,1.8-1.9,1.8.1-5.5-.9-3.6c-.8-.3-1.9,2.5-.2.3.1,1.3-1.8,6.4.6,4.6-1.5,3.4-5.1,4.8-2.1-.7-2.8,5-.9-4.2-.4-.7.3-1.3,1.4-5.1-.1-3.5a9.2,9.2,0,0,1-.5-3.7c-.5-.3-1.1-.4-1-1.4,1.8-1.8-1.6-6.5-2-9a11,11,0,0,1,.3,3.6c-.2-2.3-1.7-4.3-1.3-6.5,2.3,3.3,2.7,7.8,4.7,11,0,1.3,2.8,1,1,2.6S128.2,43.5,127.6,47.4Z" style="fill:#a67a4d"/><path d="M139.4,72.8c-.8,3.7,2.8,6.4,4.2,9.6-.7,1.9.6.8.5,2.1s1.3,2.4.4,3.4-.8-1.3-1.4-1.9-.9-1.6-1.3-2.2-2-2-3-2.9-2.9-1-.6-1.9c-2.2.1-.2-1.9-1.8-2.2s-3.8-.1-3.6,1c2.9,3.3-2.8,7-4.8,3.3-1.1-1.1-3.6,1.1-4.4-.6,1.7-.8,5.3-.4,1.2-1.9-.8-.2.4-.9-.3-1a3.1,3.1,0,0,0-2.3.3c-.9.1-6.6-2.1-4.3-2.8-1.4,1-3.4.3-4.5,2,.7.2,1.6.3,1.7,1.1s2.2.4,2.3,1.6,3,.4,1.9,1.8-1.3.4-3,1.4c-5.4-.2-9.5,5.5-14.7,3,3.7,1.2,21.7-6.2,9.7-6.2,5,1.2-.1,2.8-2.4,1.4-2.1-3,0-3.2,2.8-3.7-1.9.4-3.5-2.2-.7-1.8-.7-1.3-3.4,2.1-2.9.3s-5.9-3-6.2-4.2,1.6-.3,1.8-.7-4.2.2-2.5-1.4c-1.1.1-2-.1-.7-1.1-.8-1.3-4.5,2.6-3.1-.1-.7-.3-1.6.6-2.2.8s-.3-.8-.4-1.1-.8.7-1.2.3c4.9-3.5,4.3-3-.9-.4-.9-.3.5-3,1.3-3.4s2.7-1.6,2.3-2.4c-4.8,4.5-.9-3.4.1-1.2.6.7,1.7-.6,1.4,1.2a1.8,1.8,0,0,1,2-.7c.2.3-.6.9.2.9s5.6.7,5.3,2.6c1.3,0,3.6-4.5,4.1-2.2-.7.6-2.8,5.1-1.2,3.1s7.6-.2,4.6,1.8c.5.7,2.1,1.3,2,2.3s.1.6.6.7.4,1,.8,1.2c3.9.1-1.8,2.9,6.5,2.7a6.4,6.4,0,0,1,3.2,3.1c2.6,2.1,6.8,6.6,5.5-.6-2.8-2.5,2.5-7.3,2.4-3.6-.7,1,1.8.8,1.9,1.8s3-.6,3-1.7-1.1-1.9.3-2C138.6,72.5,138.2,72.9,139.4,72.8Z" style="fill:#c48b4f"/><path d="M139,71.7c-1.4.6-1,1.3-.1,1.9a3,3,0,0,1-3.3,2.2c.1-1.4-2.5-.8-2.1-2s-1.8-1.2-2.4.1,1.9,4.9.4,7.7c-2.9-.4-3.7-2.9-6-3.3,1-1.4-.8-1.3-1.1-2-1.2-3.6-5.5.3-6.6-2.6s-2.4-.9-1.7-2.4-1.5.2-1.5-1-1.4-1.6-2.1-2.4c2.6-1.4-1.7-5.6-4.9-1.2,1.3-5.5,3.5-5.1-2.8-1.3,1-2.6-3.9-2.1-5.4-3.1.8-1.5-1.3-.3-1.8.4V61.3c-2.2,1.1-.7-1.6-2.2-.1s-2.1.8-1,2.2,1.3-1.3,2.4-1.4c-.5,2.8-4.1,2.6-4.4,5.9,1.4.2,5-3.8,4.7-1.3-1,.9-2.8.5-3.4,1.9l1.4-.6a5,5,0,0,0-.3,1.3c1-.2,1.8-1.2,2.9-.8a3.3,3.3,0,0,0-.6,1c1.4,0,2.2-2.2,3.8-.8-1.7,1.1-.6,1,.8.9a4.7,4.7,0,0,0-1,1c1.1.5,2.4.1,3.3.5s-1.6,0-2.4.5l7.1,4.1c-.3.3-.6.4-.7.7s1.9-2.2,3.3-.6c-3.1,0-1.2,1.8.9,1.8l-3.8.9c-1.2,4.4,9.6,3.6,2.6,1.4a1.1,1.1,0,0,1,1.2.2c.8.4,1.1-1.1,1.9-.4a3,3,0,0,0,1.9,1c-3.6,5.4-12,4.3-16.8,6.7.4-3.8,7.8.1,7.5-2.4-5.8,0-11.2-3-17-2.7-1.8-.6.4-1.3.3-2.2s-.6-.8-.2-1.6a26.8,26.8,0,0,0-5.6,11.5c.4,2.4-3,.9-2.2,2.6,1.8,5.5,15.1-2,17.2-5.1-1.9,6.4-11,5.6-14.7,9.9-3.2-.9-8.4-12.7-8.3-16.3s2.6,10.4,6.6,9.4c.6-.1.4-1.3.4-1.7s1.1-.8.7-1.9c-.7-4.5,9.1-9.5,5.5-12,.8-1.5,4.1-2.7,1.2,0,2.8-.1.1.3,1.5,1.3-.5.8-1.5,1.6-1.7,2.6,1.7-.6,3.3,1.6,1.2,2.5,5,.7,11,3.7,15.9,1.9.1-4.2-7.4-7.6-11.6-7.7.6-1.3,7.4,1,4.8-.5s1.7-1.7.1-1.5-2.9.4-1.6-.7c-1.1-.7-2.9,1.4-3.6.1s1.5-.2,1-.7-1-.2-1.9-.4-.4-2.4.9-1.9c-1.5-.5-2.6,2.3-3.9,1.4-1.3.9-1.8,2.8-2.7,3.5-.6-1.2,1.2-2.3,1.7-3.3s-1.3-.7-.1-1.7c-3.7,2.2.8-3,.4-3.5s.8-1.8,1.2-2.6-1.4,1.2-2.3,1,1.8-1.1,1.1-2.2-1,1-1.5.5,2.4-4.1-1.2-.6c.6-1.3-.6-1.7-.8-2.7A9.2,9.2,0,0,1,86.1,61c-.5-1.7-1.3.4-1.6,1.2-.5-2.4,1.9-3.8,3.4-5.3a2.2,2.2,0,0,0-.3,2.2c.2-.1.6-.4.8-.2,1.1,2,.7-.5,1.3-.4s1.6.6,2.1-.5c.1.7-.1,2.1.8,1.1.8.9,2.7,0,2.6,1.8,1.1-1.2,2.1.7,3.1,0,.5,1,1.3.3,1.9.4-.5,1.8,1.1.5,1.5.9a1.7,1.7,0,0,0,2.3.5c.1,1,.6.4,1,.1s-.7-.5-.4-1,3.2-2.1,1.6-.3,3.7-2.5,1.7.9c4.6-1.6-1.6,3.5,1.5,2.4s4.9,1.4,5.9,3.5c-2.3,1.1.4.9.3,1.4s0,.8,1.2.9c-.4,1.1,2,1.9,3,2.2-1.3.9-1.6,2.4.4,1.5-.3-.2-.6-.2-.7-.5,4.2-.3,7.5,4.7,10.3,6.8,4-2.5-4.4-8.4,5.2-8.7-.1.7-1,1.5.3,1.6-.7,1.7,2.7,2.6,3.1.6-2.8-2.5-.3-5.5,2.3-2.3C140,71.9,139.7,70.6,139,71.7Z" style="fill:#b3804b"/><path d="M100.8,86.1c6.5,1.7,11.9-3.9,18.1-3.7-1.1-.6,1.7-1.3,0-1.7s-3.8-2.7-5.8-3.7c1.4-1.4,3.5-1.6,5.3-1.9l-1.1.5c2.5,1.9,4.9,2.1,7.7,1.9-1.2,2.2,1.8.7,2.1,2.2s-2.8.1-3.4.9c1.8,1,4.3-1,5.6,1.4,7.7,2.1,0-6.7,7-5.7,2.6,1.8-1,2.3,2.4,2.6-.8.2-2.1,1.3-.4,1.1s1.6,3.3,3.8,3.7c-.4,2.2.5,1.1,1.5,2.8s-.2,2.1,1,1.1c.5-3.9-7.9-13.5-4.4-14.7-.8,2.6.8,5.7,3,7.3,1.5,3.3,1.4,7.1,3.2,10.1,1.5,1-1.1,1.6,0,2.5a27.3,27.3,0,0,1,1,4.1c-.1.7,1.5.1.8.8-2.7.4.2,1.6-.2,2.6s0,1.9-.5,2.8c1.7,3.1-.7.1-.2,2.9-2.2,1.6.9,2.4-.4,3.8s-3.8,2.1-5.8.6c2.6-1.6.3-.9,1.3-2.6s3.2,0,.2-2.3c2.6-1.6-1-2.3,1.8-3.4-.9-1-1.3-1.8.1-2.2-.4-.4-2.7.2-1.4-.9,4.7-.3-1-3.1-.4-4.8,2.1-1.7-.7-2.9,0-4.7s-1.4-1.6-.9-2.5c-.9-6-6.1-.3-10.1-3.1s-11.4-.3-17.6-.2S105.9,88.7,100.8,86.1Z" style="fill:#cd985c"/><path d="M139.4,72.8c-1.2.6-1.2-.6-.4-1.1S139.2,72.5,139.4,72.8Z" style="fill:#cd985c"/><path d="M35.4,66.5c-1.3,4.8,3.7,9.3,7.1,4.8,1.1-2.3,2-3.1,3.7-.7,5.2,2.6,2.8,8.9,2.6,13.7-3.3,3.4-11.6-1.6-16.3-2-9.3-1.8-1.7-18,2.2-23.4C35.8,61.2,34.8,64.4,35.4,66.5Z" style="fill:#79bdca"/><path d="M37.5,60.1c6.5-11.5,7.3-1.4,3.4,5.2C35.9,78.6,35.9,67.3,37.5,60.1Z" style="fill:#381f0d"/><path d="M49,61.9c-.5.7-1.3,1.4-1.1,2.5,1-1.1,3.1-2.3,2.2.1-.1.3-2.8,1.2.2,1.6,4.6.8,6.1,8.1-.6,5.2C47.2,69,48.6,69.4,51,70c.6.3.9,2.8,1.9,1.2s-2.3-4.5-3-3.4-1.6.3-2.2.6c.7,1.9-.9-.1-1.4-.8s2.9-1.2,1.3-1-1.7-.9-1.1-2c-2.4-.3-2.1-1.1-3.8.8C47.7,56.3,42.2,68.4,49,61.9Z" style="fill:#765230"/><path d="M42.9,65.4c.6-2.7,2.5-.6,3.7-1s-.8,1-.5,1.7,1.8-.3,2.3.4-1.5.9-2.1,1.1c-2.4-3.7-11.6,10.9-9.6.3C34.8,75.1,42.6,69.2,42.9,65.4Z" style="fill:#65492c"/><path d="M47.7,69.2c-.4-2,.6-.6,1.4-1s.5-1.2,1.5-1,4.1,4.5,1.7,4.6c-2.1-1.5.2-1.5-4-2.4l.6.9A1.7,1.7,0,0,1,47.7,69.2Z" style="fill:#8b7355"/><path d="M128.8,56.1c-.5,2,4.4,4.7,1.3,7,3.7,1.6-4.3,2.8-.8,0-1.5.1-9.7,1.4-5.4-.8-3.3-1.9,3.5-6.3,4-8.4C128.4,49.3,130.7,55.1,128.8,56.1Z" style="fill:#a67a4d"/><path d="M133.2,63.8c.2,2.4-.6,7.3,2.4,7-.2,1.3-2,0-2.6.7s-2.3,1.9-3.8,2c1.2.9-.1,4.4,1.5,4.5-.7,4.7-8.8-6.7-10.7-4.4-.9-.5.9-.6.6-1.1s-3.1.1-1.4-1.1a7.5,7.5,0,0,0-2.1-.2c1.4-1.2.3-1-.9-1,1-.5,1-.7.7-1.5.3.7,1.7.7,1.2,1.9,1.2,1.1,3.8,1.5,4.4,2.8s3.3,1.3,4.2,3c.9.1,3.7-1.3,1.8-2.5.5-1.3,2.9-1.9,4.3-2.6S131.1,66.1,133.2,63.8Z" style="fill:#ab7034"/><path d="M124,45c1.1,2.8-.6,5.4-.5,8.1.7-.5.7-1.6,1.5-2-.1,1.5-1.3,2.7-1.3,4.2l.6-.3a14.9,14.9,0,0,1-1.4,2.4c-.9-.3.7-1.7-.1-1.9s-.5-1.1-.9-1.4.3,1.4-.3,1.6c-.4-1.6.1-3.7.9-.9,3.7-2.2-3-12.1-.4-12.8.3-.5,0-1.3,0-1.8s.9,3.2-.3,3.5C122.4,45.3,123.6,41.5,124,45Z" style="fill:#8d7151"/><path d="M122.9,57.4c.6-2.8,3.7-3.3,4.3-5.9,3.1-1.1-1,5.6-2.5,6.5s-1,1.1-1.4,1.8A4.1,4.1,0,0,1,122.9,57.4Z" style="fill:#7e5532"/><path d="M128.8,56.1c1.3-1.1-.2-2.5.3-3.9l-.7.4c0-.6,1.6-3.8-.3-2.8.4-2.8,1.1.1,1.8-1-.3,1.6,1.8,2.5,1,4.1s-.6-.8-.7-1.3C128.3,52.5,130.8,56,128.8,56.1Z" style="fill:#a96e33"/><path d="M132.7,61.6c.5,1.3.7,3.5-1.1,3.7s-.2-1-.2-1.4S131.8,60.3,132.7,61.6Z" style="fill:#9c5d21"/><path d="M122.9,57.4c-.1.9.2,1.8-.2,2.6-1.2-1.6-.9-4.3-.9-6.4C122.8,56.2,123.4,54.6,122.9,57.4Z" style="fill:#a67a4d"/><path d="M109.9,46.8c2.4.2-.9,3.1.1,3.7s1.3-2.9,2.7-2.9a18.8,18.8,0,0,0-3,6c-.9-1.3-1.8-6.2-3-3.6-1.4-1.7-3.5-8.2-.5-8-.8-2.4,1.2-3.3.7-5.5.3.2,2.1-1.8,1.8-2s-.4-1,0-1.1.1-2.7,2.4-1.7c-.7-1.2.6-1.7.9-2.6,0,1.8,1.1,3.8,2.3,5.7-2.4-2.2-3.8-2-1.2.5-.7.5-4.5.5-1.3,1.1,4.6,3.3-6.5,2.7-4.1,8.3-.8-2.8,7-5.7,5.2-3.5-1.7-.8-6,4.8-2.5,3C110.7,44.8,107.8,48.1,109.9,46.8Z" style="fill:#ba8e5e"/><path d="M122.1,40.2c-1-1.7-3.6-10.7-3.8-6.3-.7-.5-.5-1.5-1.3-1.9s-.1,1.9-.1,2.8l-1.2-1.3c1.6.8.7-2.4,0-2.9.8-.7,2.8.9,3.4,1.8s0,1.5.4.1A46.4,46.4,0,0,1,122.1,40.2Z" style="fill:#8d7151"/><path d="M121.9,39.1a15.8,15.8,0,0,1-1.2-6.4C122.8,35,124.8,47.9,121.9,39.1Z" style="fill:#b4895b"/><path d="M115.4,36.2c.4.6.6.9-.5.9s1.5,1.9-.7,3.8,2.4-.3.9,1.6c.2-1-.5-.4-.7-.3-2.5-.3,1.6-2.6,0-4.3C113.3,33.6,114.5,37.3,115.4,36.2Z" style="fill:#8d7151"/><path d="M117.5,63.8V63c-1.1.2-1.9-.1-2.9.9a9.3,9.3,0,0,0,.9-4c-.7.3-.5,1.3-1.3,1.3s1.2-2.8.2-3.4-.5,1.1-1.5,1.3c.4-2.5,2.2-4.7,2.4-7.1-2.6,2.3,1.1-2.5.9-3.7a15.3,15.3,0,0,0-2.5.6c3.6-1.8,1.8-4.6,4.1-7.2-1.3.6-3.1,1.2-1.5-1,1.6-5.7,3.1-4.2,5.4.4-3.1.1,1.3,6.7,1.4,8l-1.2-.7c.2.8,1.1,1.2,1.3,2.1l-1.1-.5c2.3,2.9-1.3,2.2-2,4.7-.5-.7.2-1.4.3-2.1s-.8-1.3-.1-1.9-.3-5.2-.9-6.6.7-2.1-.2-2.1c-2.8,1.1-.3,3.2-1.6,4.7s.3,1-1.1,3.2c2.2-1.5-1,2.5-1.2,3.6s.5-.9,1.1-.7-1.4,1.8-.2,2.5-2,3.1-1.6,5c2.6-3.7.8,1.1,1.4,1.6,1.5-1.9,2.6-1.4,1.1.6C118.2,62,118.3,63.4,117.5,63.8Z" style="fill:#604125"/><path d="M120.1,53.7c.5,3.1-.8,11.5,3.6,11,2.1-1.4,1.9,1.5,4,1.8-1.9,1.1-1.2,2.4.3,3.6s1.5,2.7-.7,1.6-6-7-9.3-5.4c-.2-1.5,1.5-5.1,1-1.7-.2.2,0,.4.2.1s1.1.5,1-.1a6.3,6.3,0,0,1-.6-3.2c-1.1-1.9-.1-1.4.6-2S118.9,55.4,120.1,53.7Z" style="fill:#6b3309"/><path d="M120.6,43.2c.1-.8-.5-2.8.9-2.1-.5-1.6-1.8-4-3.9-4.2.3,2.4-4.2,7.1.5,4.4a2.1,2.1,0,0,1-1.4,1.8c.3-.4.8-.6.8-1.2-4.5,2.5.6-4.6-1.6-6.4,1,.7,1.6,0,1.9-.9,2.5,1.6,2.9,4.5,4.1,6.8C120.4,41.1,121.1,42.7,120.6,43.2Z" style="fill:#794b2d"/><path d="M112,44.5c.5.7-.8,1-1.3,1.2S111.6,44.8,112,44.5Z" style="fill:#794b2d"/><path d="M114,44.6l-.3-.2C114.7,43,115.6,43.9,114,44.6Z" style="fill:#794b2d"/><path d="M120.1,53.7c-1.4,1.5,1.7,6.6-.8,6,.1,1.8,1.1,3.8.9,5.5-.6-.8-.7-.4-1.5,0s1-1.5.2-1.9-.5,1.4-1.4,1.2.6-1.3.4-1.8c-2.4.1.2-.8-.1-2a6.8,6.8,0,0,0-2.1,1.7c0-1.9.9-5-1.2-1.8-.9-2,3.2-3.7,1.6-5.2s1.8-4.1-.9-1.6c.1-1.6,1.6-2.8,2.1-4.4l-1.1.7c.3-1.1,1.4-1.5.4-2.6.9-.1.5-1.4,1.4-1.6s-1-1.8-.4-2.6c3.2-4.4,1,2.4,3.4,3.6-.9.8-.1,2.2.2,3C119.7,50.8,121.2,52.7,120.1,53.7Z" style="fill:#502408"/><path d="M123.1,37.4c-.1-2.9-3.9-6.6-2.4-9,3,3.1,2.7,8.6,5.2,12.1C126.5,45,123,39.3,123.1,37.4Z" style="fill:#925822"/><path d="M123.1,37.4c.1,1.1,3.1,7.9,2.8,3.1,0,2.2,3.7,5.2,1.7,6.9-.1-1.6-.9-4.1-1.9-1.8-1.1-1-.2-1.7.2-2.8C123.8,42,123.8,39.5,123.1,37.4Z" style="fill:#a66c32"/><path d="M100.8,86.1c3.5.9,6.3,1,9.1-1.4-2.4,4.4-7.4.3-9.9,2.8,0,3.5-9.7,7-5.1,7.4.8.2.9,1.4-.1.7-1,1.1-4.3-2.8-2.8.2-.6.4-1.1-.9-1.5-.6,1.2,3.1.1,2.3-1.5.1-.3.3-.2.9-.7.4s-1,2.2-1.8,2.7-5.1-.5-4.9-1.5C74.6,86,73,71,79.4,60.3c-9.2,10.3-7.7,28.1-13,40.3,0-4.1,2.4-10,2.5-14.9,3.2-4.6,2.7-21.6,11.3-26.5-.8,5.2-7.2,13.1-3.6,18.2.5-2.2,1.7-4.2,2.4-6.1,1,.1,1.9-2.8,2.4-1.7s0-.3.1-.6,1.7-.8,1.5.7c.5-.9,1.2-.9,2-1.1-.6,3.2,2.2-3.3,1.7.6,1.6-1.6.3,1.5,1.6.2,3.3-4-.2,2,1.6,2.3s-1.2,2-.9,2.9,1.3-2.3,1.5-1-1.7,1.3-.2,1.9c1.2,2.6-4.3,5.2-5.2,7.9-1,.9-1.1,2.1-1.3,3.6s-1.4.8-.7,1.5c-1.5,5.7-6-5.5-6.6-8.2C76.6,86,80,94,84.8,97.2,90.7,91.7,95.3,94.3,100.8,86.1Z" style="fill:#cc9d67"/><path d="M71.2,66.1c6.4-4.2-.4,8.5-.6,12.2a32.7,32.7,0,0,1-3-5.9c.6.2,1.1.8,1.7,1.1-2.2-5.3-.4-1.9.7-3.3S70.1,66.9,71.2,66.1Z" style="fill:#96622e"/><path d="M82.9,69.1v-.4c-.4.2-.7.7-1.2.4s-.2,1.6-.4.3c-.6.5-.8,1.5-1.9,1.7,1.1-.9,1.7-2.1,3.1-2.6C81.2,67.7,83.7,68.1,82.9,69.1Z" style="fill:#c48b4f"/><path d="M84.7,66.8c.7-1.1,1-2.7,2.1-3.5a15.3,15.3,0,0,0-1.9,4.1C85,66.6,85,66.6,84.7,66.8Z" style="fill:#b3804b"/><path d="M79.3,71.1c-1.1.5.2,2.7-1.7,2.6C78.7,73.3,78.2,71.6,79.3,71.1Z" style="fill:#c48b4f"/><path d="M86.3,63.7l-.5.3c.2-2.8,2.6-1.4,1.7.5s-.2,2.9-2.1,3.6c-.3-2,1.6-3.8,1.5-5.5Z" style="fill:#9b6f43"/><path d="M89.7,68.1c-.7.7-1.9,2.3-2.1.5-1,1.1-1.2,1.1-1-.5-.8.4-.9,1.4-1.8,1.7v-.7l.2.3c.5-1.3,2.6-2.8,1.7-.4.7-.5.9-1.6,1.7-2.1a13.6,13.6,0,0,0-.2,2,13.7,13.7,0,0,1,1.8-1.6C90.3,67.8,89.9,67.9,89.7,68.1Z" style="fill:#b3804b"/><path d="M82.9,61.9c1.2-.5,1.5,1.4.8,2.1s.2-1.5-.8-1.3v-.8Z" style="fill:#b3804b"/><path d="M85.2,63.3a4.1,4.1,0,0,1-1,2.2c-.4-.7.6-1.7.8-2.5Z" style="fill:#9b6f43"/><path d="M89.7,68.1c.5-.7.9-1.8,1.8-2.1a26.1,26.1,0,0,1-1.7,2.8C89.6,68.6,90.2,68.3,89.7,68.1Z" style="fill:#c48b4f"/><path d="M104.5,61.5c-.6,1.8-1.8.9-.3-.3Z" style="fill:#ab7034"/><path d="M49,61.9c-1,1.7-5.4,3.7-3.6.1l-.9.5c-.2-1.2,2.7-2.9,1.9-.7-.3.5.5.2.6.6,2.3.5-.7-2.9,3.9-3.2,2.9-.9,1,1,.1,1.9a21.4,21.4,0,0,1,2.7-.6c8.3-5.4-1.8,3.8,5-.2,1.4-.8.3-.4-.3-1,3-4.9-4.8-1.9-7.2-3.6,3.1.1,6.8-.8,9.4,1.3-.6.6.7,1.4-.8,1.7l1,.9c-2.5,1.4-.2.9-1.5,3.2-3.9-.7-5.1.6-3.2-3-1.8,1-8.4,4.3-5.3.4C49.8,59.8,49.6,61.3,49,61.9Z" style="fill:#735d40"/><path d="M51.2,55.7l1,.3c-5-.4-5.8,5-8.8,7.8C42.3,61,47.9,56,51.2,55.7Z" style="fill:#a5682d"/><path d="M52.4,55.6c-3.1-.4,1.4-1.7,0,0Z" style="fill:#784317"/><path d="M53.5,61.5c.4-.1,1-.7,1.3-.3s-1.4,1.2-.4,1.5c2.8-.1,1.8,1.1,3.4,2.4s-1.7,1.9-.5,2.8C55.9,71.1,48.7,62.3,53.5,61.5Z" style="fill:#332112"/><path d="M61.4,57.6c.5-1.1-1.3-1.3-1.1-1.7,2.5-1.2,4.4,1.4,6.6,1.4-1.7,2-4.5,2.7-5.7,5.5C58.4,61.7,64,59.5,61.4,57.6Z" style="fill:#613512"/><path d="M53.5,61.5c-3.8,1.4,1.1,8,3.6,6.8a2.2,2.2,0,0,1,.4-2.4c.5-1.2-1.8-3.4-3.4-3.1s2.2-2-.4-1.4l1.3-.5c.3.8-.6.9-.7,1.6,3.6.4,1.8.6,3.4,2.4s-1.5,1.9-.1,3.1C55.5,71.6,47.8,62.7,53.5,61.5Z" style="fill:#613512"/><path d="M56.3,138.7c.7,1.7-1.4,2.3,1.6,2.1.6,1.5-2.5,3.5-1.3,1.1H55.2c.1-.5-.3-.7-.8-.8-2.2-.1.2-3-2.4-3.2s3.2-9.5,1.2-1.3c1-4.5,3.1.5,1,2.3C54.9,138.7,55.7,138,56.3,138.7Z" style="fill:#411e06"/><path d="M58.5,145.3c-.7.3-1.1.1-.4-.6s-1.8-1.7.7-2C62.9,143.8,59.9,148.2,58.5,145.3Z" style="fill:#411e06"/><path d="M65.4,74.8a11.2,11.2,0,0,1,1.7,12.1c-.6-.4.1,3.2-1.3.4-.5-.9-.7.5-1.1.7-3.5-5.2-6-5.8-2.8-12.2.5-.3,1.2-.4.7-1.2S64.7,73.9,65.4,74.8Z" style="fill:#daba8f"/><path d="M57.7,126.7c-2.8-4.5-2.3-8.2,3.6-6.8-.3-1.9,2.3-2.2,3.5-1.1.1-.5.4-1.4,1-.6s-1.1,1.5-.5,1.9a27.9,27.9,0,0,1,7.4,2.4c.8-1.8,2.3-7.2,2.4-1.9-.3,3-3.8,4.8-6.6,5.1s-.9,2.5.4,1.1,4.9-1.8,4.2.2-2,3-2.8,3.7.5,1.2,1.1,1.5C72.9,135,57.9,129.4,57.7,126.7Z" style="fill:#1e1711"/><path d="M71.6,111.1c-.8-.3-1.4-.3-1.4-1.4s-.9-1-1.4-1.5c-2.3-1.7-1.8,2.3-3.3,2.7-5.1,4.3-9.8,3.7-9.5,12.1-1.9,0,.2-7.8-.7-10.2.9-2.1-1.5-.4-1.3-2s-.3-1.8-1.2-2.3c-1.5-2.5.3-6.7,1.7-9.4,2.1.4,1.1,7.6,5.7,4.7-.2,2.7-1.5,5.4-1.5,8.1,3.4-2.2,2.7-7,6.2-9.3,1.3,1.8-1.5,3.2-2.2,4.7s2,.6,1.3,2-3.2,1.9-2.4,3c3.5.8,2.4-3.5,4-3.3C68.7,103.8,69.6,108,71.6,111.1Z" style="fill:#acada6"/><path d="M67.8,125.7l3.4-.8c-1.7,1.3,2.6.2,2.4-1.1-.4.6-1.6,1.4-2.4,1.1,5-1.1,4.1-11.2,2.2-3.3-.8,2.6-5.6-1.7-8.1-1.3s1.5-1.5,0-2.3c-.1,2.1-4.8-1.5-3.7,2.1-4.5-.9-6.8.6-4.6,4.9-7.5-11.2,22.7-15.3,14.6-3.6,1.7.4,1.9-2.2,2.4-3.3,3.5-1.1.5,8.5-1.5,9.8s1.6,4.5-1,1.8c1,.7.6,1.7,1.2,2.5s.2.4.4,0,1.4,1.6.5,1.3-3.7-.4-5.5-.3-2.5,2-2.2-.4c-.8.1-2.3.8-2.5-.7s-3.1-2.1-3.9-3.6c2,2.5,6.2,1.6,7.5,3.9.1.2,1.6.6,1.7.4s1.8.5,2.6.1-1.3-.6-1.6-1.3.1-1.3.7-1c0-1.7,2.4-2.6,2.7-4.3-1.5-1.3-6.1,2.8-5.9-.2C67.6,127.7,69.6,126.1,67.8,125.7Z" style="fill:#302924"/><path d="M65,103.4c6-11.8,5.4-36.2,14.9-43.7-11,16.3,2.9,28.1-5,37.1,4.7-6-1.3-10.8-2-16.7-.2.8-.3,1.6-.5,2.3l-.6-1.3C69.3,88.6,71.3,98.4,65,103.4Z" style="fill:#c8b497"/><path d="M56.8,118.9a6.3,6.3,0,0,0-.1,5.8C52.4,116,67.8,108,73.4,114.5c.6.3,1,1.7,1.4,1.4,3-2.5,2.1,5.4,1.3,7s.6.5.4,1.1-1,1.3-.2,1.6.5,2.4,1.7,2.7.5.3.2.6,1,.9.4,1.5c-3.7-3.1,3,3.9-.5,3.7-1.3-.5-2.9,2.3-3.4.1a.4.4,0,0,1,.6-.3c2.7.6,1.9-2,1.3-3.5-.7,1.6-.8-1.1-1.7-1.2s-.4-1.3.7-1.3c-1.9-2.9,1.4-7,.6-11.1-.1-.2-.1-.6-.4-.6C73.4,120.2,69.6,105.2,56.8,118.9Z" style="fill:#7b705e"/><path d="M56.8,118.9c12.5-14,17.2,1.6,19-3,2.2,3.1-.9,7.1-1,10.4,1.3-.5.9.9,1.1,1.3s-.7.4-1.1.6.4.6.2.9.6,1.2,1.3,1.7c.2-2,1.1,1.4,1.2,2.3s-1.9.7-2.6,1c1.1,1.6-.2,2.1-1.7,2-7.7,1.9-12-3.3-15.5-9.4,2.2,3.1,6,4.9,7.1,7.9.6-2.1,1.4-.6,1.5.4s2.2,1.5,3.1.2,3,.8,4.2.2c-.4-1-3.2-.9-4.4-1.7s3.1.1,4-.3,1.6-.6,2.3.1-.7-1.2-1.5-.8c.8-7.1-3.2-2.6-.6-5.8s2.8-6.7,1.3-9.1c-1.6.6-.8,4.8-3.4,3.6C78.6,112.6,59.8,113,56.8,118.9Z" style="fill:#4e4335"/><path d="M143.7,103.7c.4,2.7-1.9.7.3,2.9-.3.8-2.3.1-1.2,1.4-.9.8.2,2.2-1.6,2.4,1.9,1.4,7.5-.2,5.1-2.9-.1-.3-.4-.8,0-.9,2-.4-.5-2.5,1.9-2.2a3.1,3.1,0,0,1-.2-4.5c-1,0-.9-1-1.1-1.5s1-.2,1.4-.9c-2.8-.9-1.1-6.8-2.9-9.1,1,.6,1.1,2.1,2.4,2.5-1.6,1-.7,1.5.4,1.9-2.3,2,1.9,3.9.2,5.7,0,.4-.2.9.5.9s-2.6,1.6-.5,3.1c-.7.4-.4.8-.1,1.3s-1.8,2.1-.5,4.7-2.6,2-1.9,4.1-2.7,1.3-1.3,2.8c-1.4.7-1.3.6-1.4,2.3s-2,1.3-1.5,2.9l-1.5-.3c.2,1.4.2,2.7-1.6,2.3.1,1.1-1.2,1.6-1,2.7-1.5-1.1-5.5-2.5-5-4.5l.9.9c-.8-1.8-1.5-3.5,1.4-3.2-1.5-1.5,1.9-1.5.6-3.1,1-2.2,5.5-1.3,1.2-3.7,1.8-1.4-.4-1.2,2.5-1.3-.8-2.2.8-.5,1.1-.6,2.2-.4.6-1.9-.7-2.4,1.5.1,3.6-1.2,1.1-1.7-.2-.1-.7-.2-.2-.4S142.5,104.4,143.7,103.7Z" style="fill:#deaf73"/><path d="M143.7,103.7c-2.1,3-3.2,0-1.2-1.7.2-2.1-2.3-2.6.8-3.4-.4-.4-1.3-.3-1.3-.9s3-.3,1-1.1c.7-1.1-2.3.2-1-1.6,0-.1,1.3-3.4-.2-2.9s.3-.7.1-1.5-2.3.4-3.1-.9c-2.9-.4-.4-1.2.4-2.7a5.3,5.3,0,0,1-3.3.1c4.6-2.1-26.1-6.6-28.6,0-1.2.7-3.1-.3-4.5.4s-.7-1.5-1.8-.8-3,3.2-1.9,3.8c-.8,1.2-2.2,1.5-3.3,2.2,1.4.9,0,1.4-1,1.1,1.1,1.7,4-.3,5.8-.1-2.5,2.8-2.8.6-4.2,1.6a7.1,7.1,0,0,0,1.4,1,4.5,4.5,0,0,1-3.2.3,4.3,4.3,0,0,0,1.2,1.1c-1,.2-1.6-.6-1.8-1.5s-1.2,0-.3,1c-1.1-.5-2.1,1.3-3.4,0s-4.3-1.1-2.9,1.2-8-.6-6.2-1.4c-2,.4-3-7.8-4.2-9.9,2.6,2.7,3.5,10.4,6.2,10.8s2.5,1.9,3.8-.3c.1-4.4,1.7-.8,1.9-2.5.3,0,1.4,2.4,2.1,2s-1.8-1.5-.6-2.2.8,1,1.5.8a12.5,12.5,0,0,1-.9-1.2c1.4-.3,2.1.9,3.3,1.3-.3-1.2.6-.3,1.2-.1C89.1,93,98,94,100.3,86.8c10.3-.4,21.9-7.2,32.7-2.4,2.5,1.7,5.5-2.1,8,0-1.1,1.1,1.2.8.8,2.1s.9,1.7,1.5,2.6c-1.2,1.3-.4,2.1.4,3-1.5,4.9-.8,1.2,1.5,6,.7,1.3-2.2.4-2.3,1.3s3.4.1.7,1.2a10.4,10.4,0,0,0,1.2,1.7C143.8,102.6,142.7,102.5,143.7,103.7Z" style="fill:#daae77"/><path d="M144.4,78.7c-.9.8-2.5-2.2-1.8-2.7s1.1,1.9,3.1,1.1S145.3,79.4,144.4,78.7Z" style="fill:#e2c79e"/><path d="M139.3,94.3c-.9-.2.4-1-.4-1.5s-1.3-.1-1.1-.7c.9-2.3-1.7-2-2.3-3.3s-4.2-3.3-6.4-4c4.9-.5,6.1,4.5,9.9,6.1C136.1,92.7,141,92,139.3,94.3Z" style="fill:#e2c79e"/><path d="M80,102.8c3,1.1,5.6,2.7,8.9,2.5-2-10.5,5.3-4.9,11.4-4.9-2.3-1.9,5.8-7.3,4.1-11,1.1-2.2,5.5,4.2,3.6,5.3,3.7,1.7,5.4-3.3,2.2-5.1.3-1,1.3-.8.2-2.3,4.8,1.9,7.3-1.9,8.7-.7s-.6-1.4,1.3-.8,3.2-.3,3.9,1.1-.1-1.4,1.1-.7,2.3-1.2,3.2,0,4.6-.2,2.1,2.7c.6,1.2,4.6-1.1,2.8,1.1,1.3,1.7,4.3,3.5,3.2,5.8-.7.6-.3.7.2,1-.2,3.2,2,3.7,1.2,5.1-2.7.8-.6,5.9-4.1,7,.5,3.7-4.4.2-4.3,3.1s-5.9-1.7-2.6-2.1-4.4-2.4-5.3-2.3c.8,3.9-1.2,1.6-3.4.6-.2,0-1.5.3-.6-.8a15.5,15.5,0,0,0-6.8-1.6c1.7.5,2.5,2.3,4.2,2.7-1.5,1.5.9,2.3.6,3.6-2.7,0-7-1.5-9,.9,2.9,1.5-1.5,2.7-1.9,4.7s-3.2,1.9-5.3,1.7c5.2,2-3.9,4.8-4.6,8-1,.9-3.3-.8-2.3-2.2-1.9-.2-3.7,2.2-5.8,1.3.5-1.8,4.2-2.4,3.8-4.2-2.4-.1-5.5,3.3-8.5,1.4.4-.6,2.7-3-.1-3s-1.3-3.2-2.7-4.8c4.6.9,2.3-3,0-.9s.2-2.2-1.3-2.7,1.5-1.2,1.2-1.9-2.6-.7-3.6-1.7C74.9,105.8,75.5,101.6,80,102.8Z" style="fill:#f7e1bd"/><path d="M65,103.4c2.2-1.7,2.8-4.2,4.1-6.4-.1,1-2.2,5.1-.2,3.8.4,2.2-3.6,2.8-2.2,3.8,2.9-.9,2.9-4.8,5.4-6.2s.2-3.8,2.2-2.4l-.6.9c1.3,1.1-1.1,3.8-1.9,3.4,1,1.4-2,2.4.7,2-.9.7-2.7.7-2.3,2.1,1.5-.9,2.2-.5.6.8.3-.1.6-.2.8.1s1.4,3,1.2,4.7c1.2-.1,7.6-.3,4.6,1s0,2.6.5,4.3c1,3.3,2.9,8.2,2.7,10.6.6.9,1.7-1,2.7.2s-.6,1.1-1.2.8.4,1.3-.7.8c.1,1.9,1.2,2.5,2.8,1.9s1.1.4,1.1-.5c.3,1-.2,1-1,.8-.4,1.5-2.5.1-3.7.5,1.8-1.6-1.2-3.6-1.3-5s-2.3-2.7.3-2.9c-2-1.5-1.4-4-2.1-6.2s-3.2-1.9-2.7-4.2c0-.4.8-.2,1.2-.2s.3-1.6-.5-1.4-1.9-.1-2.6,1.1c-3,1.6-3.3-10.4-7.2-1.9-.4-.1-.2-.4-.3-.7s-.7.7-.6,1-2.4,3.3-3.5,2.2,2.7-1.3,2.6-2.9-1.3-.6-1.4-1.6S65.2,105,65,103.4Z" style="fill:#c6bcb0"/><path d="M127.6,85.1c1.9,0,6.2,1.3,6.7,2.7S137.4,90,137,91s2,2.2,1.8,3.5c-1.7,3.2,2.5,3-.9,3.9.3.7,2,.4,1.1,1.5,2.7,1.9-1.3,2.7.1,4.4-1.8,0-1.5.9-.7,2.1-.7.3-.6,1.4-1.7,1.4.6,1.4-2.1,1.4-2,3.2s-2.6.2-1.4,2.4c-2.7,1.1-7.2-1.3-2.8,2.7-1.4.2-3.5.1-4.5-1,1-.3,1.7.5,2.6.1-7.1-2.2.9-3.3-5.1-4.1,2-.5,3.4.8,2.2,2.6,3.6,1.2,7.3-1.2,9.5-3.7-.6-1.4.7-.9,1.3-1.3-.9-2.1,2.8-1.3.8-3.9.8-.9,3.3-3.4,1.7-4.6s-2.1-1.5,0-2.5c.1-1.1-2.5-.5-.9-2C138.6,91.2,132.3,86.4,127.6,85.1Z" style="fill:#efd0a2"/><path d="M105.8,88.2c2.3,2.2,3.1-.2,4.2-1.7,5.6-1.8,11.3-1.7,17.2-1.3-5.4.2-11.6-.4-17.1,1.5C107.8,88.2,111,95.1,105.8,88.2Z" style="fill:#efd0a2"/><path d="M84.5,103.1c1.9.6,2.8-.1,3.9-3.3C89.1,102.4,87,104.4,84.5,103.1Z" style="fill:#efd0a2"/><path d="M102.6,91.8c1-1.2.9-4.8,3-3.7C102.8,87.9,104.7,91.4,102.6,91.8Z" style="fill:#efd0a2"/><path d="M115.6,110l-.3-.6a7,7,0,0,1,4.6,1.6c-1,.1.2,1.4-.7,1.3S117,111,115.6,110Z" style="fill:#e2c79e"/><path d="M123.3,113c-1-.5-2.5-.9-2.7-2.1C121,111.7,124.2,112.1,123.3,113Z" style="fill:#f1d3a7"/><path d="M122.5,113.7c.9-.1.5.6.4,1.2l-.9-.9Z" style="fill:#e2c79e"/><path d="M101.1,147c.3-2.4,1.6-4.3,2.4-6.4C103,142.8,101.6,144.8,101.1,147Z" style="fill:#ddb988"/><path d="M114.8,149.1c1.1.2,4.7,3.5,1.9,3.3C116.1,151.8,113.4,149.6,114.8,149.1Z" style="fill:#d2a570"/><path d="M83.2,156.8l-.5-.5c2-.3,4.5-2.8,6.1-1.9.3-3.3,4.4-5.5,6.8-6.8l-1.1.2c.7-1.9,1.1-5.7-2-3.8,2.8-8.8,11.6-14.9,14-24.2-.1-1.3,1.7-.6,2-1.2-1.3-1.9,1-1.6,1.7-3,.6,2.8-2.4.5-1.3,2.7,2.1-2.5,1.3,2.4.1,1.8s.9.7,0,2.1-.8.2-1.2-.3.3,2.4-.8,2.9.3,1.1-.4,1.7.7,1.1-.1,1.8c-5.5,1.5,2.4,2.3-2.8,3.1,2.2-.3-.5,5.2-.7,1.1-2,.4-2.5,3.1-3.9,4.1.4,1.9-1.9,1.1-.8,3.2-1-.7-1.4,0-.4.7-1.9-.1-.5,1-2.3,1.3s-.3,3.4,0,3.7c3-1.7.8,1.9-.1,2.9s.2,1.8-1,2.4-.2,1.7-1.4,1.5,1.3-3.4.2-2.9.2,2.4-1.3,3.4-1.6,1.3-2.4.3c-.6,2.4-4,2.1-6.2,3.3,1.3,1.4,4.1.6,5.4,1.4A8.7,8.7,0,0,1,83.2,156.8Z" style="fill:#6e3f20"/><path d="M84.8,134.6a20.3,20.3,0,0,0,6.8-1.9c-.1.4-1.4.4-.4,1.2s-.7,2.8,0,4.4h0c2.1,1.5-.5,12.9,2,7.3-.2-1.3,1.4-3.2,1.7-.9s-5.5,6.4-8,9.5c-2.2-5,2.4-1,1.6-4.7,1.5-2.8-1-5.8,1.9-8.4C90,136.2,91.1,133,84.8,134.6Z" style="fill:#c58871"/><path d="M57.4,117.4l-.6.8c.6-5.5,8.6-4.4,9.9-9.6.8-.4.6,1.1,1.8,1s2.9,2.7,4.4,3.5.2-3.1,1.4-1.6c-1.2,4.4,4.4,2.4,3.1,8.1,1,2.7.8,5.8,2.5,8.4-.1,4.4,1.3,1.7,2.6,4.6l-.7-.2c.5,2.3-.6,1.8,2.6,2.4-.9.2-6.1.4-4.2-.9.4,0,1.2-1,.8-1.4-4-2.2-1.3-1.9-2.7-4.2-.6-.5.4-1-.2-1.4a3.1,3.1,0,0,1-.3-3.1c-1.8.5-.3-1.8-.8-2.3s1.3-5.5-1.7-6.4C66.9,109.8,65.3,110.8,57.4,117.4Z" style="fill:#a69b89"/><path d="M57.4,117.4c7.4-6.3,9.5-8.3,17.6-2.5,3.7,1.4,1.3,5.9,2.1,8.8,2.1-.3-.1.9.5,1.4a10.6,10.6,0,0,1,1.3,5.5c0,1.6,4,1.2,1.7,3.6-2.8.4,3.6.8,4.7.8-3,.6-6.2,0-9.3-.1,4.3-2.9,3.4.3,1.1-5.8a5,5,0,0,1,1.3,1.2c.6-.6-.2-1-.6-1.3s.4-.2.4-.5c-1.7-.3-.7-2.7-2.3-3.1s-.1-.5.2-.6.9-.9-.3-1.3c-.1-2,2.3-6.3-.2-8.2-.8,0-.4,1.8-1.6.2C69.6,108.9,61.9,113.3,57.4,117.4Z" style="fill:#82735c"/><path d="M76,149.9c3.8-1.2,3.6,3.2,5.1,5.3C79,154.7,76.1,151.9,76,149.9Z" style="fill:#d29584"/><path d="M91.2,138.3c.1-1-.4-2.3.5-3C92.5,136.3,92.5,141.1,91.2,138.3Z" style="fill:#955522"/><path d="M82.3,135.1c1.2.4,2.7,0,3.4,1.2-1.8.7-.4,7.8-2,2.7-1.1,2.8,1.6,5.4.4,7.8C83.6,144.2,79.4,136.3,82.3,135.1Z" style="fill:#77452a"/><path d="M82.4,141.7c1.1,1.5,1.1,3.3,1.7,5,.7-2.8-1.7-5.3-.6-8.2.6.6.3,1.6.9,2.2.8-1.1-.9-3.1,1-4.1.4-.9-1.3-1.7-.8-.4-1.9-1.9,2.6-.3.8.8s.5,4.4-.3,6.3c-.1-2.5-2.7-2.2-.8-.1s.1,3-.1,4.3C83.1,145.8,83.3,143.6,82.4,141.7Z" style="fill:#804c34"/><path d="M88.8,157.8c-1.8-.3-4.2-.1-5.6-1.5,1.7-1.3,5.4-.9,6.1-3.2s.6,1.2,1.5.4,2.7-1,1.3-2.8,1.4-2.2,1.9-1.3-.4,1.9-1.1,2.7c1.7-.9,2.7-5.1,4.2-6.7-3.4.1-.9.5-2.8-3.4.8-.5,2.3-.1,2.3-1.3s1.1.8,1.7-.8c1.4.7-4.2,2.1-2.9,5,.5,1,0-1.4.9-1.5s1.2-.4,1.6-1.3c2.4-.9.2,1.4.6,2.3s-.5,1.4-.6,2.1c2.4,0,2.2-5.4,4-7.2,2-3.5,4.3-7,4.8-10.7-1.1.7-2.4,8.4-4,4.4-.8.8,1.1,1,.2,1.9,1.7,2.5-3.8,2.2-1.2-.6-1.7.2-2.3,3.6-3.6,4.9,0-1.9,2.8-6.1,5.1-6.9-.5,3.9,2.7-1.3.3-.6-.6-1,3.5-.6,1.5-1.3s3.8-2.1.9-3c.4-1.7,1.9-3.2,1.5-4.9s1.1-1.1.9-.1.1.7.5.6.5-2-.2-2.9c1.7,0,1.2-1.1,1.4-2.5-.9,1.8-2.1,0-1-.8,1.6,1.5.7-3,3.4-1.3.2,6.2-4.5,12.2-6.2,18-5.3,6.1-5.2,15.7-12.1,20.4C95.3,155.5,90.3,157.4,88.8,157.8Z" style="fill:#3f2f20"/><path d="M95.3,152.7c6.6-9.1,11.9-20.8,15.5-31.6-.9,7.7-5.7,13.4-8.9,20.4C100.1,143.8,99,153.4,95.3,152.7Z" style="fill:#6e3f20"/><path d="M95.3,152.7c5.3-1.4,4.4-10.3,8-14.1-3.1,8.2-8.5,23.9-20.1,18.2,4.3,3.3,13.8-2.5,10.6-2.7C94,153.5,94.8,153.2,95.3,152.7Z" style="fill:#715537"/><path d="M103.4,138.5c.7-2.3,2.6-3.8,3.5-6C106.2,134.8,104.5,136.4,103.4,138.5Z" style="fill:#715537"/><path d="M112,119.7c.3-1.5,1.7-5.4-1.2-4.2C113.4,113.6,112.9,118.4,112,119.7Z" style="fill:#6e3f20"/><path d="M109.7,126c.7-2.1.6-4.7,2.2-6.2C110.6,121.6,110.6,124,109.7,126Z" style="fill:#715537"/><path d="M78,135.4c2.7.2-1.3,4.8-2.7,5C75.8,138.7,75.5,135.3,78,135.4Z" style="fill:#552d0f"/><path d="M127.1,51.8c-2.6,3.6-1.5-4.6,0-5.5C127.4,47.9,128.2,50.2,127.1,51.8Z" style="fill:#bc9468"/><path d="M127.1,51.8c3-6.3,2,1.7.3,3.2C127.6,54.1,128.9,49.8,127.1,51.8Z" style="fill:#a66c32"/><path d="M124.1,49.7c.5-6.2,2-1.9.4,1.3Z" style="fill:#bc9468"/><path d="M121.9,39.1c.7,1.2.4,4.4,2,4A11.5,11.5,0,0,0,124,45c-.1-.6-.1-1.3-.9-1.4s-.2,1.5-1.7-.1C123.4,43.8,122,40.3,121.9,39.1Z" style="fill:#91714f"/><path d="M126.4,47.3l-1.1,1.6c-.4-.7.5-1.4.9-2Z" style="fill:#91714f"/><path d="M126.1,45.1c-.2-2.4,2.1.9,1.5,2.1C127.3,46.5,127.3,44.2,126.1,45.1Z" style="fill:#a96e33"/><path d="M134.5,75.3c1.3.8-1.7,1.4-2.3,1A3.5,3.5,0,0,1,134.5,75.3Z" style="fill:#cd985c"/><path d="M139.3,76.7c-.7.7-1.3.1-1.7-.5S139.2,75.5,139.3,76.7Z" style="fill:#ae7a45"/><path d="M138.5,78.5l-.5-.2C139.3,76.7,140.8,78.3,138.5,78.5Z" style="fill:#ae7a45"/><path d="M139.5,79.8l-.6-.4,1.1-1C140.5,79,140.4,79.7,139.5,79.8Z" style="fill:#ae7a45"/><path d="M140.6,80.1l.5.3C140.2,81.7,138.8,80.3,140.6,80.1Z" style="fill:#ae7a45"/><path d="M95.9,75.4c4.6-.5,11.5,3.6,12,7.8-5.3,1.8-11.5-1.4-16.7-1.8,2-1.1,1.4-3.1-1-2.5C90.9,76.6,93.4,74.4,95.9,75.4Z" style="fill:#c48b4f"/><path d="M99.2,87.3c-3.7,5.2-10.4,7-16.3,7.5-2.6-5.7-.3-1.4,1-4.4A24.8,24.8,0,0,1,90.1,78c-1,2.7,1.3.9-.9,3.7,2.5.3,24.9,3.9,14.9,4.1C102.3,85.6,100.3,85,99.2,87.3Z" style="fill:#936438"/><path d="M95.9,75.4c-1.2-.6-4.1,1.4-4.4.2s-3.4,1.3.3-2.5c-2.9,2.6-.7-1-2.3,1.1.1-2.2,4.9-5.2,6.4-4.2-1.9-.7-.3.9-1.2,1.6s1.1-.4,1.6-.4,1.1,1-.6,1.6c.6,1,4.9-1.8,3.3.5.5.5,2.3-.4,2.7.1-1.6.8-1.9,1,.3,1.9C100,76.2,98,74.3,95.9,75.4Z" style="fill:#aa7036"/><path d="M80.5,88.9c4.1,4.1,2.1-5,5.4-6.6-1.9,1.8-1,4.2-2.8,5.9C84.8,90,81.2,92.1,80.5,88.9Z" style="fill:#c48b4f"/><path d="M95.1,60.1c-.5,1.2-1.5,2.4-2.5,2.4C93.4,61.8,93.1,59.3,95.1,60.1Z" style="fill:#c48b4f"/><path d="M90.3,72.2c.3-.8-.6-.4-1-.2s-.6-1.4-.1-2.2c.7,1.2,1-.4,1.8-.4C89,71.4,92,70.3,90.3,72.2Z" style="fill:#c48b4f"/><path d="M105.7,63c.4-.6,1.5-1.9,2.4-1.4S105.8,65,105.7,63Z" style="fill:#c48b4f"/><path d="M91.3,59.2c1.6,1.1-.9,1.3-.4,2.8S90.2,59.4,91.3,59.2Z" style="fill:#c48b4f"/><path d="M92.6,63.6c.6.9-.1,1.5-.9,1.9S92.2,64.2,92.6,63.6Z" style="fill:#c48b4f"/><path d="M93.2,68.4c-.3.7-1.5,1.6-2,1.2S92.4,67.9,93.2,68.4Z" style="fill:#aa7036"/><path d="M89.8,59.6c.2,1.2-.8,1.2-1,1.8a2.3,2.3,0,0,1,.8-2.2C89.7,59.4,89.8,59.7,89.8,59.6Z" style="fill:#c48b4f"/><path d="M91.3,62.2a1.4,1.4,0,0,1,.6-1.2C92.8,61.8,91.5,64,91.3,62.2Z" style="fill:#c48b4f"/><path d="M104.8,76.2c-2-.8-.7-1.9.5-.4Z" style="fill:#aa7036"/><path d="M98.6,70.8l1.2.4c-.8.1-1.8.8-2.5.4Z" style="fill:#c48b4f"/><path d="M107.6,77.2c-.8-.3-1.7-.1-2.3-.6a10.2,10.2,0,0,1,3,.3Z" style="fill:#aa7036"/><path d="M48.8,74.2c.4,4.1-4.3,1.4-6.4.3s1.8-2.2,1.6-3.9C44.7,73.4,47.9,72.3,48.8,74.2Z" style="fill:#79bdca"/><path d="M126.5,62.9h-.4a4.7,4.7,0,0,0,1-1c-1.9-.7-.6-1,0-2.1l-1.4.7c1.4-2.9,4.4-2.8,4.3.5S127.9,62.5,126.5,62.9Z" style="fill:#d4ac7b"/><path d="M129,76.7c.1.9-1.4,1-1.3.2S128.7,76.4,129,76.7Z" style="fill:#a66c32"/><path d="M116.2,56.1c-.9,2-1.8.7-.3-.4Z" style="fill:#502408"/><path d="M121.5,66.2c1.6-3.1,3.9-.8,1.9,1.9A2.8,2.8,0,0,1,121.5,66.2Z" style="fill:#502408"/><path d="M119.8,37.5c-.6.1-1.2-.9-1.3-1.5S119.7,36.8,119.8,37.5Z" style="fill:#604125"/><path d="M81.7,89.1c-5.3-3.6-7-15.8-.2-18,.7.1,1.1-3.3,1.2-.7,1.8-1.6,1.2-.1,2.6-.1s2.3,2.3,4.3,2.2c-2.7,3.6,2.6,2.9-2.3,6.2,0-.3.1-.6-.2-.8-2,.3-.8,3.4-1.9,4.3-.3-1.1-1.2-.1-.8.8s-1.7-.1-1.1,1.3c-1.7.9-.1,3.1-1.7,3.8C82,88.5,82.4,88.9,81.7,89.1Z" style="fill:#caad85"/><path d="M87.3,68.9l.4-.6c.1,1.7.8.9,1.7.1a3.5,3.5,0,0,1-1.9,1.7C87.3,69.7,88,68.9,87.3,68.9Z" style="fill:#c48b4f"/><path d="M75.7,77.5l.2-.3C77.1,78.8,75.9,80,75.7,77.5Z" style="fill:#b5814e"/><path d="M45.9,60.7c-.9-5.2,14.5-6.9,13-2.4-1.2,1,0,1.2.9,1.2-2.2,1.8-5,3.8-2.9-.4-1.9.3-8.7,4.9-4.5,0-1-.1-6.1,1.3-4,2.3s-1,1.6-1.5,1.1S47.1,60.8,45.9,60.7Z" style="fill:#9b7f5d"/><path d="M61.1,80.6c3.7-12.4,8.3,4.8,4.1,2.4-.5-.5-.5,1.2-1,1.1s-2-3.4-2.4-1.3A11.4,11.4,0,0,1,61.1,80.6Z" style="fill:#e1d1bb"/><path d="M70.5,133.2c-4.1,0,2.5,1.3,3.5,2.1-1.7,1.3-3.8-1-5.4.6s-1.3-1-2.4-.7.2-1.1-.7-1.7-1.2,2.1-.9.8-4.1-4-5.9-6.5c2.2,1.9,4.2,3,5.7,5.3.7-.5.6-.7,1.4-.3C66.7,135.1,67.4,131.9,70.5,133.2Z" style="fill:#433629"/><path d="M74.7,119.3c1.2,4.3-10,9.3-8.3,3.1,4.3-.2,6.9,3.8,8-3.6Z" style="fill:#050403"/><path d="M67.8,125.7c2.6-.1-.7,2.7-.6.4Z" style="fill:#433629"/><path d="M75,121.9c1.1,2.3-2.2,4.2-1.1,5.8-.6-.3-1,.2-1.5.5,2.8-.6,1.4,3,1.7,4.4l.4-.5c.4.4,1.4,1.1,1.1,1.8-1.1-1-3,.2-4.4-.6a12.2,12.2,0,0,0,2.7,0c-.2-.4-.2-1-.7-1.1a1.3,1.3,0,0,1-.1.6c-.4-.2-1-1.2-.9-1.4s-1.3-1.2-.8-2.1.6,1.3,1.4,1.2C70.8,127.5,75.5,125.4,75,121.9Z" style="fill:#433629"/><path d="M71.2,124.9c1.1.3,2.1-1.6,2.6-1.1s-5.2,2.4-2.6,1.1Z" style="fill:#433629"/><path d="M73,134.4c-.7.1-1.7,0-2-.7C72.5,133.1,76.3,135.4,73,134.4Z" style="fill:#82735c"/><path d="M138.2,114.6c3.4,1.2,1.4,4.1-.9.9Z" style="fill:#cd985c"/><path d="M142.3,113.9c-1.5.3-1.9-1.3-.3-1.1S144,114,142.3,113.9Z" style="fill:#cd985c"/><path d="M140.3,114.6c1.5.3,1.3,2.4,0,1C140.8,115.3,139.7,114.9,140.3,114.6Z" style="fill:#cd985c"/><path d="M98,118.3l-.8.3c1.9.1-.7,5.8-2.4,4.6s1.4-1.4.2-2.3-.2-1.5-.6-2.1c1.3-.6-1-1.8.4-2.3-1-1.5-3.6-.9-5-.7,4.3,2.9-5.5,3.3-7.5,2.6.8-.7-.1-1.1-.5-1.6s2.5-1.7-.3-2.5.1-4.2-2.7-5.5c0-1.3,1.7-.9,2.1-1.8-2.7-.8,2.2-.6.3-2.4a99.7,99.7,0,0,0,11.1,6.3c-.9-2.1.4-3.2-1.5-5.5s.1-2.6-.3-4c1.9-1.9,1.1,0,3.3.4a3.1,3.1,0,0,0-.6-1.3c5.1,1.5,13.9-.1,16.9,4.5-1.7,2.4,4,1.4,2.9,4.3-2.9,2.3-7.9,1.3-10.3,5.1-.3.5-1.2.2-1.8-.2-.1,1.5-2.6,1.5-1.9,3.5S98.1,117.8,98,118.3Z" style="fill:#fbefda"/><path d="M91.1,121c-2.8-.3,1-4.1,1.8-1.2C92.3,120.3,92.2,121.3,91.1,121Z" style="fill:#fbefda"/><path d="M84.5,119.8c1.4,1,2.9-1.9,4-.7-1.1,1.1-2.8.8-3.8,2.3C83.7,121.1,83.1,119.8,84.5,119.8Z" style="fill:#dccdba"/><path d="M92.6,122.9c-2.4-2.1,3.7-1.9.8-.9C92.9,122.2,93.4,123,92.6,122.9Z" style="fill:#dccdba"/><path d="M101.3,117.4c.6.3.4,1.4-.2,1.6S99.9,117.3,101.3,117.4Z" style="fill:#dccdba"/><path d="M98.1,139.2c.8-1.3,2.1-5.4,3.8-5-.7,1.3-1.3,1.7.5,2.5.2-.6,1.7-1.5.1-1.4,1.3-.7-1.1-2.1.4-2.7-.6,1.7,2.3,1.8,1.5.3s1.9-2.5,1.9-4.4c2,3.9-6.4,11.6-6.7,17.2.3.9-2.3,1.7-1.9.4s-.3-2.2.9-3,.6-1-.1-1-.5,1.7-1.9,1.4-.2,1.9-1.1,1.9C93.4,142.2,99.2,141.4,98.1,139.2Z" style="fill:#2d1e13"/><path d="M98.3,139.8c-.4,1.4-1.6.3-.8-.7Z" style="fill:#9a8a75"/><path d="M82.3,135.3c1,.3.9,1.5,1.6,2-1.8.8-.9,2.9-1.1,4.4A6.9,6.9,0,0,1,82.3,135.3Z" style="fill:#49240a"/><path d="M106.9,127.5c.4-1.3,2.3-2.9.7-3.9,0-.9,1.8.1,1.4-1s1.5-1.5-.1-2.1c2.8-1.1-.3-5.9,3.3-4.8C111.6,117.9,109.1,128.8,106.9,127.5Z" style="fill:#2d1e13"/><path d="M89,157.1c-1.8-.1-3.7.1-5.2-.8,2.9-1,5-.9,6-3,.2,1.6,1.3,1.2,2.5.8C91.5,155,90.2,156.6,89,157.1Z" style="fill:#100d08"/><path d="M97.8,148.6c-.2.6-.3.9-1.3,1.3C93,151.2,97.9,143,97.8,148.6Z" style="fill:#2d1e13"/><path d="M94.2,154.1c2.9-1-3.8,4.1-5.4,3.7C90.5,156.9,94,156,94.2,154.1Z" style="fill:#6e3f20"/><path d="M97.5,144.2c-.6-.5-.9,1.7-1.6.1S98.9,143.3,97.5,144.2Z" style="fill:#6e3f20"/><path d="M96.3,75.9c3.1.3,7.7,2,8.5,5.6C101.9,84.2,85.8,76.9,96.3,75.9Z" style="fill:#dcb787"/><path d="M89,83.2c3.7-2.1,9.4,1.1,13,1.8-6.2,3.5-8.3,9-17.4,7.9-1.3-2.1,2.4-4.8,1.5-7.4s1.3-2.2,2.9-2.3a18.4,18.4,0,0,0-3.5,9.2c9.1-1.7,7.9-.5,14.9-7.2C96.6,84.4,93.2,82.3,89,83.2Z" style="fill:#5d391c"/><path d="M77.6,77.5c2.1-9.1,14.8-6.2,6.6-.7-.8.3.5,1.6-.3,1.8s-.1-.5-.4-.7c-.3,2.6-1.6,4.3-3,1.2-.3,1.6,1.3,2.7,1.2,4.2A30.3,30.3,0,0,1,77.6,77.5Z" style="fill:#dfd0bb"/><path d="M80.6,83c-.9.3-1.6-1.1-2-1.8S80.1,82.4,80.6,83Z" style="fill:#dfd0bb"/><path d="M89,83.2c4.4-1.3,7.8,1.4,11.9,1.9-8.4,7-4.4,5.9-15.3,7.6-1.5-.3,1.3-2.6-.1-2.1A17.5,17.5,0,0,1,89,83.2Z" style="fill:#48301b"/><path d="M87.1,90.4c-1.7-8.3,7.3-7.8,12.3-5.1C95.5,88.2,93.1,93.5,87.1,90.4Z" style="fill:#0f0d08"/><path d="M92.3,84.9c9.1-1.4-.9,9.8-2.6,1.9.2-2.7,2.4,2.9,3.2.3S89.1,86.3,92.3,84.9Z" style="fill:#57391f"/><path d="M89.6,90.3c-1-.3-1.9-1.6-1.4-2.4.5.8.8,1.7,1.7,2.2Z" style="fill:#6e6659"/><path d="M94.3,85.3c.9-.7,1.4,1.3.4,1.2S93.1,85.3,94.3,85.3Z" style="fill:#9b968b"/></svg>