<?xml version="1.0" encoding="UTF-8"?><svg id="Token" xmlns="http://www.w3.org/2000/svg" xmlns:xlink="http://www.w3.org/1999/xlink" viewBox="0 0 2000 2000"><defs><style>.cls-1{fill:#fff;}.cls-2{fill:url(#Dégradé_sans_nom_27);}</style><linearGradient id="Dégradé_sans_nom_27" x1="227.64" y1="1870.78" x2="1625.52" y2="294.77" gradientTransform="matrix(1, 0, 0, 1, 0, 0)" gradientUnits="userSpaceOnUse"><stop offset="0" stop-color="#00f3f7"/><stop offset=".5" stop-color="#5a51fc"/><stop offset="1" stop-color="#fa00ff"/></linearGradient></defs><circle class="cls-2" cx="1000" cy="1000" r="966.13"/><g><path class="cls-1" d="M1262.55,459.27c-5.84-8.01-11.59-16.09-17.25-24.27,3.47-1.84,7.09-3.63,10.85-5.38,102.12-34.37,221.35-52.09,362.43-48.83h.62v.63c3.26,140.42-14.27,259.21-48.34,361-1.89,4.35-3.86,8.44-5.86,12.27-8.18-5.67-16.27-11.41-24.27-17.25-3.27-2.37-6.53-4.76-9.76-7.16-21.32-15.81-42.04-32.21-62.21-49.2-7.23-6.09-14.37-12.26-21.45-18.5-19.45-17.17-38.35-34.92-56.66-53.24-18.31-18.31-36.06-37.21-53.24-56.66-6.24-7.08-12.41-14.22-18.5-21.45-16.99-20.16-33.39-40.88-49.2-62.21-2.41-3.24-4.8-6.49-7.16-9.76Z"/><path class="cls-1" d="M1531.55,801.66c-65.27-45.23-126.42-96.21-181.72-151.5-55.29-55.3-106.26-116.44-151.5-181.72l-8.1-11.68c-262,113.81-401.53,347.41-517.55,611.11-10.85,24.71-13.76,52.16-8.41,78.6,6.56,32.41,14.79,77.16,20.89,111.04,5.25,29.2,28.1,52.07,57.31,57.33,33.88,6.11,78.62,14.34,111.02,20.89,26.44,5.35,53.89,2.45,78.56-8.43,263.73-116,497.35-255.53,611.17-517.56l-11.69-8.09Zm-511.52,300.56c-33.76,33.75-88.5,33.75-122.26,0-33.75-33.76-33.75-88.5,0-122.26,33.76-33.76,88.5-33.76,122.26,0,33.76,33.76,33.76,88.5,0,122.26Zm247.95-195.15c-48.34,48.34-126.72,48.34-175.07,0-48.34-48.34-48.34-126.72,0-175.07,48.34-48.34,126.72-48.34,175.07,0,48.34,48.34,48.34,126.72,0,175.07Z"/><path class="cls-1" d="M759.97,762.77c-35.73,59.47-69.29,123.05-100.86,190.39h0c-54.65-40.78-133.18-16.08-154.65,48.64l-26.38,79.53c-4.11,13.45-29.88,14.67-30.93,2.1l-7.55-248.9c-1.75-57.85,60.43-109.58,118.26-107.4l186.53,8.96c13.39,.51,21.72,14.76,15.58,26.67Z"/><path class="cls-1" d="M1237.23,1240.03c-59.47,35.73-123.05,69.29-190.39,100.86h0c40.78,54.65,16.08,133.18-48.64,154.65l-79.53,26.38c-13.45,4.11-14.67,29.88-2.1,30.93l248.9,7.55c57.85,1.75,109.58-60.43,107.4-118.26l-8.96-186.53c-.51-13.39-14.76-21.72-26.67-15.58Z"/><path class="cls-1" d="M634.6,1309.18l-4.69-16.13c-1.65-5.67-9.12-6.94-12.54-2.13l-227.13,318.84,318.84-227.13c4.81-3.43,3.55-10.89-2.13-12.54l-16.13-4.69c-27.12-7.89-48.32-29.1-56.22-56.22Z"/><path class="cls-1" d="M596.15,1208.85c-7.64-17.64-11.63-36.38-11.86-56.26-.13-11.02-14.52-15.07-20.34-5.72l-147.63,237.03c-7.19,11.55-24.02,11.59-31.23,.06-175.05-279.8-140.93-653.11,102.41-896.45,219.37-219.37,544.4-268.71,811.29-148.03,4.48,2.03,9.46,2.66,14.31,1.78,23.13-4.21,46.54-7.91,69.77-11.12,4.76-.66,5.99-7,1.8-9.37-17.88-10.14-36.19-19.57-54.9-28.29-71.52-33.34-147.6-55.55-226.13-66.01-77.69-10.36-156.27-9.02-233.54,3.95-78.3,13.15-153.74,38.02-224.23,73.93-72.86,37.1-139.38,85.49-197.71,143.82-74.48,74.48-132.16,161.35-171.43,258.2-18.87,46.55-33.29,95.21-42.87,144.64-9.47,48.95-14.28,99.08-14.28,149,0,49.93,4.82,100.06,14.29,149.01,9.57,49.44,24,98.09,42.86,144.63,26.99,66.52,62.63,128.32,106.45,184.65,7.55,9.71,22.35,9.33,29.49-.68l19.39-27.22,163.01-230.79c2.22-3.14,2.62-7.21,1.09-10.74Z"/><path class="cls-1" d="M791.15,1403.85c17.64,7.64,36.38,11.63,56.26,11.86,11.02,.13,15.07,14.52,5.72,20.34l-237.03,147.63c-11.55,7.19-11.59,24.02-.06,31.23,279.8,175.05,653.11,140.93,896.45-102.41,219.37-219.37,268.71-544.4,148.03-811.29-2.03-4.48-2.66-9.46-1.78-14.31,4.21-23.13,7.91-46.54,11.12-69.77,.66-4.76,7-5.99,9.37-1.8,10.14,17.88,19.57,36.19,28.29,54.9,33.34,71.52,55.55,147.6,66.01,226.13,10.36,77.69,9.02,156.27-3.95,233.54-13.15,78.3-38.02,153.74-73.93,224.23-37.1,72.86-85.49,139.38-143.82,197.71-74.48,74.48-161.35,132.16-258.2,171.43-46.55,18.87-95.21,33.29-144.64,42.87-48.95,9.47-99.08,14.28-149,14.28-49.93,0-100.06-4.82-149.01-14.29-49.44-9.57-98.09-24-144.63-42.86-66.52-26.99-128.32-62.63-184.65-106.45-9.71-7.55-9.33-22.35,.68-29.49l27.22-19.39,230.79-163.01c3.14-2.22,7.21-2.62,10.74-1.09Z"/></g></svg>