<?xml version="1.0" encoding="UTF-8"?><svg id="Pièce" xmlns="http://www.w3.org/2000/svg" xmlns:xlink="http://www.w3.org/1999/xlink" viewBox="0 0 1905.22 1905.22"><defs><style>.cls-1{fill:#0c0c0c;}.cls-2{fill:url(#Dégradé_sans_nom_27);}</style><linearGradient id="Dégradé_sans_nom_27" x1="191.06" y1="1811.2" x2="1569.38" y2="257.25" gradientTransform="matrix(1, 0, 0, 1, 0, 0)" gradientUnits="userSpaceOnUse"><stop offset="0" stop-color="#00f3f7"/><stop offset=".5" stop-color="#5a51fc"/><stop offset="1" stop-color="#fa00ff"/></linearGradient></defs><circle class="cls-2" cx="952.61" cy="952.61" r="952.61"/><g><path class="cls-1" d="M878.45,932.09c-25.93,25.93-25.93,67.97,0,93.9,25.93,25.93,67.97,25.93,93.9,0,25.93-25.93,25.93-67.97,0-93.9-25.93-25.93-67.97-25.93-93.9,0Z"/><circle class="cls-1" cx="807.54" cy="1096.9" r="48.07"/><path class="cls-1" d="M952.61,96.41c-472.87,0-856.2,383.33-856.2,856.2s383.34,856.2,856.2,856.2,856.2-383.34,856.2-856.2S1425.48,96.41,952.61,96.41Zm449.24,717.2c5.17,20.27,8.3,41.06,12.33,61.61,.17,.85,.02,1.75,.02,3.41-15.27,0-30.17-.02-45.07,0-33.74,.05-67.49,.06-101.23,.3-3.62,.02-4.87-.99-5.62-4.48-8.8-41.05-25.18-78.82-49.93-112.79-43.76-60.04-101.56-99.2-174.07-116.3-1.41-.33-2.81-.72-4.21-1.06q-6.56-1.59-6.6-8.46c-.41-47.19-.82-94.39-1.23-141.58-.01-1.32,0-2.65,0-4.1,88.65,10.83,167.84,43.02,235.45,101.47,69.09,59.73,117.43,132.92,140.16,221.96Zm-6.94,138.45c.45,13.01-10.26,18.77-19.38,18.9-10.04,.15-16.68-6.77-16.83-17.21-.15-9.94,8.96-18.97,19.15-19.02,10.23-.04,17.07,6.9,17.06,17.32Zm-70.31,1.41c-.41,9.24-8.36,16.99-18.13,16.96-9.8-.03-17.93-8.04-17.87-17.57,.06-9.4,8.79-18.49,17.71-18.07,11.26,.53,18.71,9.04,18.28,18.68Zm-72.92,1.58c-.18,10.07-8.09,17.81-18.03,17.55-10.07-.27-17.46-7.47-17.62-18.51-.13-8.72,8.89-17.5,17.43-17.2,12.16,.43,19.36,10.06,18.23,18.17Zm-68.38-2.74c0,9.97-7.77,18.09-17.32,18.1-10.4,.01-18.52-7.71-18.56-17.65-.04-9.39,8.74-18.11,18.14-18.02,9.39,.09,17.74,8.36,17.73,17.58Zm-227.53-617.58c40.63,1.17,75.08,35.55,73.06,79.26-1.72,37.33-31.77,70.19-74.18,70.41-41.53,.22-75.55-34.32-75.26-75.8-.38-39.68,32.35-75.13,76.38-73.86Zm2.08,389.41c8.36,.34,14.95,8.11,14.6,17.22-.46,11.8-9.69,20.59-21.36,20.15-8.52-.33-16.61-6.9-15.78-18.95,.71-10.26,11-18.89,22.54-18.42Zm-23.11-192.86c.25-10.13,9.24-19.32,20.52-19.52,10.08-.18,16.88,7.26,16.65,17.38-.21,8.94-8.36,21.04-19.3,20.07-11.43-.17-18.14-6.81-17.87-17.93Zm.6,141.5c-.06-9.32,8.5-17.89,17.81-17.83,9.76,.06,17.77,8.4,17.84,18.56,.06,9.22-8.22,17.2-17.88,17.23-9.99,.03-17.71-7.77-17.77-17.95Zm19.92-53.79c-9.99,.11-17.56-6.51-17.82-18.1-.2-9.08,8.23-17.33,17.34-17.34,10.39,.21,18.21,6.95,18.07,17.86-.15,11.05-7.32,17.47-17.58,17.59Zm-363.06,25.48c75.36-89.08,172.11-137.87,287.2-153.85,0,1.73,0,2.94,0,4.16,0,47.87-.04,95.73,.12,143.6,.01,3.35-1.16,4.31-4.08,4.96-42.31,9.45-81.24,26.56-115.79,52.82-56.76,43.13-95.84,98.54-114.61,167.72-.73,2.69-1.34,5.41-1.98,8.12-.64,2.69-1.24,5.39-1.92,8.34h-150.74c11.06-88.93,44.06-167.62,101.79-235.86Zm65.5,384.31c-29.68,42.76-50.74,85.53-59.77,128.31-63.96-11.07-121.01-22.11-159.74-48.48-11.66-7.93-12.06-24.78-.72-33.16,42.04-31.12,127.65-39.34,220.23-46.67Zm-145.56-74.12c.01-9.53,8.07-17.91,17.25-17.93,11.06-.02,18.08,8.12,18.66,20.22,.34,7-10.47,15.75-17.94,15.47-10.19-.39-17.99-7.81-17.98-17.77Zm70.06,3.7c-.06-10.8,9.16-20.4,19.75-20.57,10.37-.16,17.53,6.43,17.21,16.64-.34,10.94-8.03,20.26-20.03,20.56-10.02,.25-16.87-6.63-16.93-16.63Zm71.84-3.65c-.2-9.55,7.91-18.21,17.2-18.38,9.65-.17,18.65,7.75,18.38,17.15-.3,10.35-6.6,18.28-17.21,18.63-10.12,.33-18.17-7.54-18.38-17.4Zm-319.61-.13c.08-40.85,33.67-75.65,75.79-75.08,41.19-.36,74.08,33.46,73.84,74.29-.23,38.89-31.12,74.91-75.79,74.84-44.14-.08-73.92-35.75-73.84-74.05Zm244.63,527.94c57.24-98.64,41.14-123.88-62-62l-96.82,63.67h0l63.67-96.82c61.89-103.14,36.64-119.23-62-62,44.58-83.96,107.74-125.57,189.47-124.83,25.82,35.85,56.66,66.69,92.51,92.51,.74,81.73-40.87,144.89-124.83,189.47Zm41.51-321.25c87.77-223.18,229.76-387.18,496.24-373.65h0c13.54,266.48-150.46,408.48-373.65,496.24-49.41-32.32-90.28-73.19-122.6-122.6Zm331.31,163.75c-8.39,.97-17.37-5.07-17.77-16.65-.35-10.07,8.5-19.42,18.57-19.66,9.72-.24,17.35,6.5,17.76,15.38,.52,11.26-8.54,22.27-18.55,20.93Zm18.47,52.5c-.01,8.22-5.94,17.66-18.35,17.59-9.43-.05-17.23-8.29-17.28-18.18-.05-9.08,8.74-17.68,18.07-17.66,9.7,.02,17.52,8.14,17.56,18.25Zm-17.55-124.01c-9.67,0-17.42-8.13-17.44-18.27-.02-9.15,8.17-17.38,17.31-17.4,10.44-.03,18.36,7.8,18.32,18.1-.04,9.69-8.21,17.58-18.19,17.57Zm-123.81,213.44c-8.39,11.33-25.23,10.94-33.16-.72-26.37-38.73-37.41-95.78-48.48-159.74,42.78-9.02,85.55-30.09,128.31-59.77-7.32,92.58-15.55,178.18-46.67,220.23Zm124.72,103.57c-41.62-.02-75.71-34-75.44-75.65,.28-42.61,34.74-74.16,74.5-73.88,41.4,.28,74.67,33.77,74.93,75.37,.26,41.7-33.58,74.58-74,74.17Zm74.63-151.79v-150.79c5.51-1.2,10.92-2.34,16.31-3.57,44.55-10.13,84-30.45,118.88-59.77,50.27-42.26,82.75-95.59,98.57-159.2,1.05-4.22,2.18-8.44,2.75-12.73,.36-2.7,1.48-3.17,3.89-3.16,41.02,.27,82.05,.47,123.07,.66,8.06,.04,16.11,0,24.49,0-19.18,176.64-156.57,361.28-387.97,388.54Zm467.41-390.52c-40.92,.51-75.13-32.93-75.33-74.46-.2-41.86,33.36-75.36,74.97-75.6,39.59-.22,75.32,30.73,75.38,75.08,.06,44.31-35.79,75.34-75.02,74.98Z"/></g></svg>