<?xml version="1.0" encoding="UTF-8"?>
<svg xmlns="http://www.w3.org/2000/svg" xmlns:xlink="http://www.w3.org/1999/xlink" width="200px" height="200px" viewBox="0 0 200 200" version="1.1">
<g id="surface1">
<path style=" stroke:none;fill-rule:nonzero;fill:rgb(100%,80%,0%);fill-opacity:1;" d="M 200 100 C 200 155.226562 155.226562 200 100 200 C 44.773438 200 0 155.226562 0 100 C 0 44.773438 44.773438 0 100 0 C 155.226562 0 200 44.773438 200 100 Z M 200 100 "/>
<path style=" stroke:none;fill-rule:nonzero;fill:rgb(0%,0%,0%);fill-opacity:1;" d="M 137 147.222656 C 103.945312 147.222656 71.015625 147.222656 37.820312 147.222656 C 39.296875 145.355469 40.996094 144.234375 42.492188 142.898438 C 45.960938 139.796875 49.433594 136.699219 52.953125 133.65625 C 57.320312 129.882812 61.738281 126.171875 66.128906 122.421875 C 69.730469 119.347656 73.3125 116.246094 76.914062 113.171875 C 82.890625 108.074219 88.867188 102.980469 94.855469 97.898438 C 99.800781 93.699219 104.765625 89.519531 109.714844 85.324219 C 114.125 81.585938 118.53125 77.851562 122.929688 74.101562 C 126.4375 71.105469 129.925781 68.089844 133.433594 65.089844 C 136.023438 62.875 138.628906 60.675781 141.21875 58.457031 C 141.835938 57.933594 142.40625 57.355469 143.0625 56.746094 C 142.308594 56.355469 141.675781 56.480469 141.070312 56.480469 C 128.78125 56.46875 116.492188 56.46875 104.203125 56.46875 C 89.414062 56.472656 74.625 56.476562 59.839844 56.480469 C 59.628906 56.480469 59.410156 56.527344 59.214844 56.472656 C 56.101562 55.644531 54.476562 57.601562 52.792969 59.714844 C 50.882812 62.113281 48.769531 64.351562 46.746094 66.660156 C 43.8125 69.996094 40.882812 73.332031 37.945312 76.667969 C 37.707031 76.941406 37.527344 77.308594 36.917969 77.277344 C 36.917969 68.28125 36.917969 59.285156 36.917969 50.171875 C 78.191406 50.171875 119.390625 50.171875 160.589844 50.171875 C 160.636719 50.277344 160.683594 50.382812 160.734375 50.488281 C 125.632812 80.457031 90.53125 110.425781 55.40625 140.414062 C 55.890625 140.914062 56.375 140.769531 56.808594 140.769531 C 67.929688 140.816406 79.054688 140.871094 90.175781 140.882812 C 96.171875 140.890625 102.175781 140.695312 108.167969 140.808594 C 115.085938 140.941406 121.996094 140.679688 128.910156 140.773438 C 133.367188 140.835938 137.824219 140.832031 142.277344 140.90625 C 143.207031 140.921875 143.84375 140.609375 144.410156 139.898438 C 148.007812 135.378906 151.628906 130.882812 155.242188 126.378906 C 156.828125 124.402344 158.421875 122.433594 160.011719 120.457031 C 160.191406 120.238281 160.316406 119.953125 160.667969 119.957031 C 161.050781 120.222656 160.972656 120.617188 160.960938 120.980469 C 160.769531 128.851562 160.8125 136.722656 160.96875 144.589844 C 161.019531 147.15625 161.054688 147.199219 158.496094 147.210938 C 151.371094 147.234375 144.25 147.21875 137 147.222656 Z M 137 147.222656 "/>
<path style=" stroke:none;fill-rule:nonzero;fill:rgb(0%,0%,0%);fill-opacity:1;" d="M 127.707031 130.929688 C 128 130.121094 127.859375 129.519531 127.285156 128.945312 C 119.714844 121.378906 112.15625 113.800781 104.59375 106.230469 C 104.335938 105.96875 104.121094 105.636719 103.554688 105.523438 C 103.199219 107.113281 103.40625 108.710938 103.410156 110.296875 C 103.433594 119.457031 103.445312 128.621094 103.480469 137.785156 C 103.480469 138.644531 103.160156 138.933594 102.28125 138.898438 C 100.621094 138.824219 98.957031 138.875 97.414062 138.875 C 97.105469 138.632812 97.136719 138.417969 97.136719 138.210938 C 97.140625 128.300781 97.148438 118.386719 97.140625 108.472656 C 97.140625 107.746094 97.1875 107.085938 97.796875 106.554688 C 100.734375 103.992188 103.648438 101.410156 106.707031 98.71875 C 109.03125 101.074219 111.296875 103.390625 113.585938 105.683594 C 119.558594 111.667969 125.570312 117.613281 131.488281 123.652344 C 132.382812 124.566406 133.191406 124.53125 134.226562 124.304688 C 136.632812 123.785156 139.042969 123.300781 141.457031 122.816406 C 141.554688 122.796875 141.675781 122.910156 142.023438 123.070312 C 136.957031 128.402344 131.941406 133.632812 126.734375 138.675781 C 126.601562 138.621094 126.46875 138.566406 126.335938 138.511719 C 126.78125 136.007812 127.230469 133.503906 127.707031 130.929688 Z M 127.707031 130.929688 "/>
<path style=" stroke:none;fill-rule:nonzero;fill:rgb(0%,0%,0%);fill-opacity:1;" d="M 103.476562 71 C 103.4375 76.578125 103.382812 82.035156 103.382812 87.488281 C 103.382812 88.222656 103.066406 88.632812 102.558594 89.046875 C 100.25 90.9375 97.941406 92.828125 95.667969 94.761719 C 94.371094 95.867188 94.246094 95.898438 93.042969 94.699219 C 86.183594 87.832031 79.28125 81.011719 72.5 74.066406 C 71.226562 72.765625 70.097656 72.476562 68.445312 72.976562 C 66.566406 73.546875 64.621094 73.921875 62.699219 74.34375 C 62.3125 74.429688 61.890625 74.359375 61.714844 74.359375 C 66.808594 69.234375 71.957031 64.054688 77.085938 58.894531 C 77.476562 59.753906 76.585938 60.632812 76.53125 61.644531 C 76.445312 63.269531 75.949219 64.871094 75.648438 66.488281 C 75.53125 67.121094 75.585938 67.699219 76.097656 68.210938 C 82.882812 74.976562 89.65625 81.75 96.433594 88.519531 C 96.515625 88.601562 96.644531 88.636719 96.820312 88.726562 C 97.164062 88.25 97.144531 87.710938 97.144531 87.191406 C 97.140625 78.113281 97.128906 69.03125 97.105469 59.949219 C 97.101562 58.433594 97.132812 58.375 98.695312 58.351562 C 99.445312 58.34375 100.195312 58.285156 100.945312 58.292969 C 101.6875 58.300781 102.429688 58.359375 103.273438 58.398438 C 103.527344 62.578125 103.46875 66.726562 103.476562 71 Z M 103.476562 71 "/>
<path style=" stroke:none;fill-rule:nonzero;fill:rgb(0%,0%,0%);fill-opacity:1;" d="M 62.164062 90.671875 C 62.875 89.488281 63.535156 88.382812 64.195312 87.273438 C 64.78125 86.285156 65.425781 86.300781 66.023438 87.324219 C 68.355469 91.3125 70.691406 95.292969 73.007812 99.289062 C 73.84375 100.726562 75.058594 100.960938 76.304688 99.839844 C 76.59375 99.578125 76.859375 99.515625 77.203125 99.59375 C 77.617188 99.6875 77.691406 100.027344 77.695312 100.367188 C 77.707031 101.53125 77.699219 102.695312 77.683594 103.863281 C 77.671875 104.652344 76.800781 104.324219 76.402344 104.796875 C 77.046875 105.980469 77.699219 107.167969 78.472656 108.582031 C 75.59375 108.582031 72.890625 108.582031 70.046875 108.582031 C 70.53125 107.492188 71.4375 107.015625 72.132812 106.351562 C 72.589844 105.910156 73.292969 105.632812 72.886719 104.734375 C 72.53125 103.957031 72.152344 103.457031 71.15625 103.46875 C 67.074219 103.519531 62.992188 103.519531 58.910156 103.464844 C 57.867188 103.449219 57.390625 104.046875 56.988281 104.777344 C 56.554688 105.558594 57.351562 105.867188 57.722656 106.300781 C 58.335938 107.011719 59.21875 107.480469 59.648438 108.324219 C 59.425781 108.851562 59.007812 108.769531 58.65625 108.773438 C 56.65625 108.785156 54.65625 108.796875 52.65625 108.769531 C 51.582031 108.757812 51.386719 108.417969 51.902344 107.453125 C 52.503906 106.328125 53.390625 105.355469 53.820312 103.917969 C 53.242188 104.472656 52.726562 104.496094 52.082031 104.199219 C 51.953125 102.914062 51.941406 101.582031 52.121094 100.273438 C 52.230469 99.464844 52.804688 99.410156 53.355469 99.921875 C 54.414062 100.90625 56.042969 100.726562 56.792969 99.496094 C 58.570312 96.582031 60.339844 93.667969 62.164062 90.671875 M 67.226562 95.398438 C 66.359375 94.417969 66.117188 92.988281 64.832031 92.058594 C 63.160156 94.828125 61.535156 97.519531 59.859375 100.296875 C 63.371094 100.296875 66.613281 100.296875 70.105469 100.296875 C 69.082031 98.550781 68.207031 97.050781 67.226562 95.398438 Z M 67.226562 95.398438 "/>
<path style=" stroke:none;fill-rule:nonzero;fill:rgb(0%,0%,0%);fill-opacity:1;" d="M 137.164062 96.652344 C 136.328125 93.621094 134.480469 91.671875 131.410156 91.234375 C 129.859375 91.007812 128.410156 91.765625 127.195312 92.753906 C 124.054688 95.308594 124.164062 100.789062 127.371094 103.273438 C 127.6875 103.519531 128.070312 103.726562 128.082031 104.296875 C 126.472656 104.550781 124.847656 104.582031 123.273438 104.363281 C 121.738281 104.144531 120.878906 104.816406 120.085938 105.9375 C 119.683594 106.5 119.464844 107.324219 118.574219 107.429688 C 118.289062 106.351562 118.320312 98.734375 118.601562 97.886719 C 119.386719 97.792969 119.496094 98.542969 119.816406 98.953125 C 120.253906 99.511719 120.722656 100.03125 121.222656 100.53125 C 121.550781 100.863281 121.957031 100.988281 122.359375 100.789062 C 122.824219 100.5625 122.535156 100.179688 122.476562 99.8125 C 121.738281 95.21875 123.328125 90.921875 128.082031 89.050781 C 131.582031 87.667969 135.160156 88.476562 137.914062 92.066406 C 139.832031 94.566406 140.328125 97.359375 139.542969 100.398438 C 139.515625 100.503906 139.539062 100.628906 139.539062 100.824219 C 141.914062 101.199219 141.988281 98.46875 143.777344 97.773438 C 144.058594 100.929688 144.035156 103.976562 143.785156 107.105469 C 142.5625 106.9375 142.214844 105.914062 141.652344 105.222656 C 141.105469 104.558594 140.554688 104.351562 139.730469 104.378906 C 137.914062 104.433594 136.089844 104.640625 134.042969 104.265625 C 135.90625 101.96875 137.984375 99.90625 137.164062 96.652344 Z M 137.164062 96.652344 "/>
<path style=" stroke:none;fill-rule:nonzero;fill:rgb(0%,0%,0%);fill-opacity:1;" d="M 103.5 164.96875 C 98.683594 164.96875 93.996094 164.96875 89.328125 164.96875 C 89.203125 164.167969 89.640625 164.039062 89.976562 163.828125 C 91.910156 162.609375 93.832031 161.375 95.785156 160.1875 C 96.546875 159.722656 96.960938 159.214844 97.03125 158.234375 C 97.214844 155.570312 97.125 152.910156 97.125 150.25 C 97.128906 149.464844 97.347656 149.085938 98.160156 149.085938 C 99.574219 149.085938 100.988281 149.066406 102.402344 149.03125 C 103.171875 149.011719 103.386719 149.359375 103.371094 150.101562 C 103.320312 152.722656 103.367188 155.339844 103.488281 157.960938 C 103.527344 158.800781 103.78125 159.339844 104.484375 159.800781 C 106.460938 161.097656 108.398438 162.457031 110.351562 163.792969 C 110.691406 164.023438 111.082031 164.210938 111.039062 164.878906 C 108.574219 165.089844 106.097656 164.914062 103.5 164.96875 Z M 103.5 164.96875 "/>
<path style=" stroke:none;fill-rule:nonzero;fill:rgb(0%,0%,0%);fill-opacity:1;" d="M 97.097656 46.214844 C 97.058594 45.238281 96.863281 44.335938 97.023438 43.5 C 97.445312 41.269531 95.980469 40.300781 94.46875 39.3125 C 93.003906 38.359375 91.539062 37.410156 90.085938 36.445312 C 89.929688 36.339844 89.839844 36.132812 89.535156 35.734375 C 96.769531 35.734375 103.773438 35.734375 110.804688 35.734375 C 110.78125 36.398438 110.277344 36.59375 109.882812 36.863281 C 108.019531 38.113281 106.164062 39.378906 104.273438 40.585938 C 103.597656 41.015625 103.304688 41.511719 103.332031 42.316406 C 103.386719 43.816406 103.3125 45.316406 103.371094 46.8125 C 103.40625 47.804688 103.160156 48.277344 102.039062 48.148438 C 100.96875 48.03125 99.875 48.101562 98.792969 48.113281 C 96.992188 48.132812 96.992188 48.140625 97.097656 46.214844 Z M 97.097656 46.214844 "/>
</g>
</svg>
