<svg width="32" height="32" viewBox="0 0 32 32" fill="none" xmlns="http://www.w3.org/2000/svg">
<rect width="32" height="32" rx="16" fill="#6932D4"/>
<rect x="1" y="1" width="30" height="30" rx="15" fill="#9660FF"/>
<rect x="2" y="2" width="28" height="28" rx="14" fill="#7C4DFF"/>
<path d="M7.69727 20.0001L15.1201 16.0197L7.70483 12.0394C8.08777 11.2971 8.43739 10.5807 8.83652 9.88787C8.8892 9.7975 9.21952 9.79 9.37439 9.85237C11.441 10.6678 13.4946 11.5144 15.5633 12.3266C15.8418 12.4251 16.1455 12.4251 16.424 12.3266C18.5098 11.5134 20.585 10.671 22.6634 9.82656C22.913 9.72437 23.0937 9.67806 23.2346 9.96856C23.5681 10.6398 23.9178 11.3036 24.2975 12.0394L16.8801 16.0197L24.3029 20.0001C23.9199 20.737 23.567 21.4546 23.1647 22.1419C23.112 22.2312 22.7775 22.2302 22.6139 22.1667C21.0788 21.5675 19.5523 20.9446 18.0236 20.3304C17.8862 20.2898 17.7526 20.2372 17.6245 20.1733C16.5315 19.4794 15.4945 19.6085 14.3466 20.1572C12.7663 20.9102 11.0989 21.4857 9.4777 22.1602C9.06783 22.3302 8.8322 22.2839 8.64395 21.8526C8.35995 21.2362 8.02645 20.6456 7.69727 20.0001Z" fill="black"/>
<rect x="1" y="1" width="30" height="30" rx="15" stroke="black" stroke-width="2"/>
</svg>
