<svg xmlns="http://www.w3.org/2000/svg" width="200" height="200" xmlns:v="https://vecta.io/nano"><style><![CDATA[.B{fill:rgb(14.509804%,16.862745%,16.862745%)}.C{fill:rgb(7.058824%,10.588235%,10.196078%)}.D{fill:rgb(4.705882%,9.019608%,9.411765%)}.E{fill:rgb(10.980392%,14.901961%,14.901961%)}.F{fill:rgb(4.313725%,3.137255%,1.176471%)}]]></style><path d="M0 0h200v200H0z" fill="rgb(2.745098%,6.27451%,5.882353%)"/><path d="M166 12h2v2h5l1 4 8-2c1.098 4.32 2.18 8.617 3 13l-3 1v-2h-2l-1 2-1.937.313c-2.328.516-2.328.516-3.375 3.125-.98 2.527-.98 2.527.313 4.563.313 3.375.313 3.375 0 7a87.79 87.79 0 0 1-4 4l.5 1.938L171 53c-1.687 2.75-1.687 2.75-4 5h-4l.246 2.563c-.305 4.227-1.961 6.957-4.184 10.438-2.68 4.238-4.762 7.879-5.062 13 1.355 1.773 1.355 1.773 3 3v2l-2 2h3l3 11-3 3-2 6c-.988 2.613-.988 2.613-3 5-3.023.922-6.043 1.113-9.187 1.313l-2.559.223L135 118c1.84 2.285 1.84 2.285 4.625 2.125L142 120c1.063 1.813 1.063 1.813 2 4l-1 3v-2h-2l2 6-6.055 3.906C135 136 135 136 133 136l-1 3c5.836-.531 5.836-.531 11-3 .621-2.035.621-2.035 1-4 5.84-1.699 10.93-2.254 17-2l-2-4c3.91-.922 6.824-1 11-1l-13-1 1-6-4 1c1.59-4.035 3.281-8.02 5-12 3.363 1.426 5.195 3.125 7.5 5.938 1.82 2.215 3.402 3.992 5.719 5.691L174 120v2l3 1-2 1-5.758-2.23c-3.395-1.164-6.676-1.449-10.242-1.77v3l2.344-.141c7.148-.25 11.551.383 17.656 4.141-3.98 1.066-7.91 1.523-12 2 .813 2.191.813 2.191 3.031 2.781l2.469.719c2.469.719 2.469.719 4.5 1.5l1 2-9-3v6l6 3v2l-3.687.25c-4.133.527-6.395 1.66-9.312 4.75-1.332 2.617-1.332 2.617-2 5l-4-1v-2l-4.59 3.711c-1.543 1.258-1.543 1.258-2.406 3.289l5-2-12 12-3-1c5.199-8.402 10.691-14.66 19-20l1-2c-3.57 1.539-6.082 3.695-8.937 6.313l-2.66 2.438c-2.527 2.367-4.992 4.766-7.402 7.25l-4 4-4-2v5l-4 2c9.492 1.672 14.918 1.227 22.93-4.156 5.27-3.164 11.164-4.297 17.07-5.844 5.254-1.418 5.254-1.418 10-4 1.289-2.258 1.941-4.242 2.5-6.781C181 147 181 147 183 143l17-2v59H0v-25c6.453-1.613 9.789-2.422 16-2l3 2c-5.625 2-5.625 2-9 2v7l1.75.813C14 186 14 186 15.625 187.555c3.434 2.09 6.73 1.844 10.625 1.758l2.199.012c5.133-.051 9.613-.922 14.551-2.324v-5l-3.25 1C36 184 36 184 32 184v-2h-3v3c-5.75.125-5.75.125-8-1v-4l4-1v-4c4.008-2.672 7.289-2.602 12-2 2.313 1.563 2.313 1.563 4 3 2.207-.219 2.207-.219 4-1l1 4 1.68.336 7.57 1.539 2.645.527 2.559.527 2.352.477c2.258.609 4.145 1.477 6.195 2.594v2l17 3 1-5 7.617.488c2.902.438 5.223 1.105 7.977 2.043 6.031 1.883 11.766 1.805 18.031 1.656l3.332-.043L132 189v-3c-3.355-.766-3.355-.766-7-1-1.645 1.395-1.645 1.395-3 3-2.687.188-2.687.188-5 0l-1-3-2.195.105c-5.922.164-9.57-.145-14.805-3.105-2.371-.586-4.738-1.051-7.145-1.473L90 180c-1.859-3.719-1.445-7.941-1-12 1.363-3.91 3.07-7.07 6-10l2.438.063c2.625.199 2.625.199 4.375-1.562L103 155c-1.754-5.594-3.633-8.086-8.766-10.941-5.258-2.492-10.437-3.957-16.172-4.871C72.266 138.141 67.82 135.262 63 132v2l3 1c-1.812.625-1.812.625-4 1l-3-2c.25-1.875.25-1.875 1-4l1.832-.902c2.5-1.266 3.793-2.656 5.605-4.785l1.684-1.949c2.418-3.039 4.641-6.187 6.879-9.359l-1.863.457-8.387 2.043-2.934.723-2.832.684-2.602.633C55 118 55 118 51 118c.676-6.09 1.75-12 3-18l-6 10c-5-1-5-1-6.875-2.312C40 106 40 106 40.242 104.055c1.324-3.59 4.543-5.277 7.758-7.055 2.953-1.18 5.938-2.145 9-3h-5l1-7 2.25-.5c3.941-2.148 5.277-5.344 6.75-9.5v-3c-6.473 2.859-6.473 2.859-10.887 7.957C50.797 84.07 50.797 84.07 51 87h-4l1.125 1.75C49 91 49 91 48.359 93.035c-1.797 2.598-3.207 2.875-6.234 3.652l-2.617.699L37 98l-2.32.582L33 99l-1-5h-2l-1-3c3.031-2.586 5.363-3.449 9.25-4.187 5.504-1.379 8.051-3.645 11.766-7.805C53.156 75.828 56.91 73.766 61 72h2l-.035-2.414C62.918 64.242 63.043 59.266 64 54c.191-3.859.234-7.289-1-11-.547-6.613-.5-12.246 3-18 1.855-.82 1.855-.82 4-1 2.035.891 2.035.891 4.063 2.25l2.035 1.328C77.926 28.945 79.508 30.27 81 32v2l2.656-.93c3.555-1.02 7.004-1.363 10.688-1.641l3.527-.281 7.258-.477c6.012-.52 9.941-.914 14.027-5.602L122 21c1.48-1.742 1.48-1.742 3-3 3.188-.187 3.188-.187 6 0 3.66 8.461 2.082 18.094 1 27l1.875.875C136 47 136 47 138 49c2.195.676 2.195.676 4.625 1.125l2.477.508L147 51v-4h2v-4l-2-1c.754-8.879.754-8.879 4-13l3-1 .375-3.437L155 21l2-1c.406-2.32.742-4.656 1-7l8 1zm0 0" fill="rgb(2.352941%,5.882353%,4.705882%)"/><path d="M166 12h2v2h5l1 4 8-2c1.098 4.32 2.18 8.617 3 13l-3 1v-2h-2l-1 2-1.937.313c-2.328.516-2.328.516-3.375 3.125-.98 2.527-.98 2.527.313 4.563.313 3.375.313 3.375 0 7a87.79 87.79 0 0 1-4 4l.5 1.938L171 53c-1.687 2.75-1.687 2.75-4 5h-4l.246 2.563c-.305 4.227-1.961 6.957-4.184 10.438-2.687 4.25-4.707 7.879-5.062 13 .824 2.32.824 2.32 2 4-2.773-1.496-4.699-2.562-6.5-5.187L148 81c-2.625-.336-2.625-.336-5 0l3 2-7 2 2 4-2.375-1c-2.469-1.117-2.469-1.117-4.625-1v2l4 1-3 2c-3.531-1.391-6.863-2.84-10-5-1-3.75-1-3.75-1-7l-2-1c-.723-1.645-1.395-3.312-2-5h-11c-.773 2.984-1.402 5.977-2 9-5.207 1.578-9.43 2.781-14.5.313-2.82-1.59-3.617-2.492-5.5-5.312-3.027-.289-3.027-.289-6.437-.062-6.246.273-6.246.273-9.562-1.934v-3h-2v12c-4-2-4-2-6-4l-3.437 10.5-.984 2.977C56.781 100.02 55.492 105.191 55 111l2-1c.652-2.023.652-2.023 1-4l7-2-4-2v-1l3.313-.937A167.21 167.21 0 0 0 71 98l-2 4 4 2v2l-5 1v2l5 2v2c-7.355 2.445-14.25 4.477-22 5 .676-6.09 1.75-12 3-18l-6 10c-5-1-5-1-6.875-2.312C40 106 40 106 40.242 104.055c1.324-3.59 4.543-5.277 7.758-7.055 2.953-1.18 5.938-2.145 9-3h-5l1-7 2.25-.5c3.941-2.148 5.277-5.344 6.75-9.5v-3c-6.473 2.859-6.473 2.859-10.887 7.957C50.797 84.07 50.797 84.07 51 87h-4l1.125 1.75C49 91 49 91 48.359 93.035c-1.797 2.598-3.207 2.875-6.234 3.652l-2.617.699L37 98l-2.32.582L33 99l-1-5h-2l-1-3c3.031-2.586 5.363-3.449 9.25-4.187 5.504-1.379 8.051-3.645 11.766-7.805C53.156 75.828 56.91 73.766 61 72h2l-.035-2.414C62.918 64.242 63.043 59.266 64 54c.191-3.859.234-7.289-1-11-.547-6.613-.5-12.246 3-18 1.855-.82 1.855-.82 4-1 2.035.891 2.035.891 4.063 2.25l2.035 1.328C77.926 28.945 79.508 30.27 81 32v2l2.656-.93c3.555-1.02 7.004-1.363 10.688-1.641l3.527-.281 7.258-.477c6.012-.52 9.941-.914 14.027-5.602L122 21c1.48-1.742 1.48-1.742 3-3 3.188-.187 3.188-.187 6 0 3.66 8.461 2.082 18.094 1 27l1.875.875C136 47 136 47 138 49c2.195.676 2.195.676 4.625 1.125l2.477.508L147 51v-4h2v-4l-2-1c.754-8.879.754-8.879 4-13l3-1 .375-3.437L155 21l2-1c.406-2.32.742-4.656 1-7l8 1zm0 0" fill="rgb(87.45098%,56.862745%,29.019608%)"/><path d="M200 141v59H0v-25c6.453-1.613 9.789-2.422 16-2l3 2c-5.625 2-5.625 2-9 2v7l1.75.813C14 186 14 186 15.625 187.555c3.434 2.09 6.73 1.844 10.625 1.758l2.199.012c5.133-.051 9.613-.922 14.551-2.324v-5l-3.25 1C36 184 36 184 32 184v-2h-3v3c-5.75.125-5.75.125-8-1v-4l4-1v-4c4.008-2.672 7.289-2.602 12-2 2.313 1.563 2.313 1.563 4 3 2.207-.219 2.207-.219 4-1l1 4 1.68.336 7.57 1.539 2.645.527 2.559.527 2.352.477c2.258.609 4.145 1.477 6.195 2.594v2l17 3 1-5 7.617.488c2.902.438 5.223 1.105 7.977 2.043 6.031 1.883 11.766 1.805 18.031 1.656l3.332-.043L132 189v-3c-3.355-.766-3.355-.766-7-1-1.645 1.395-1.645 1.395-3 3-2.687.188-2.687.188-5 0l-1-3-2.195.105c-5.922.164-9.57-.145-14.805-3.105-2.371-.586-4.738-1.051-7.145-1.473L90 180c-1.859-3.719-1.445-7.941-1-12 1.363-3.91 3.07-7.07 6-10l2.438.063c3.227-.078 3.395-.809 5.563-3.062 4.883-2.582 9.418-4.148 15-3 4.465 2.051 9.098 5.008 12 9 .504 4.109.328 5.512-2 9 9.492 1.672 14.922 1.227 22.93-4.156 5.273-3.164 11.168-4.297 17.07-5.844 5.258-1.418 5.258-1.418 10-4 1.293-2.258 1.945-4.242 2.5-6.781.563-2.492.969-4.152 2.5-6.219 2.898-.828 2.898-.828 6.375-1.25l3.461-.453C196 141 196 141 200 141zm0 0" fill="rgb(51.372549%,18.039216%,7.45098%)"/><path d="M24 124c6.109-.113 11.953.105 18 1v8l-3.312.938c-2.242.648-4.473 1.324-6.687 2.063l-1 2 2.875-.125C37 138 37 138 39 140l-3 2 2.574-.078c8.703-.145 16.82.652 25.363 2.266l3.68.676C76.98 146.648 86.414 148.707 95 153v2c-1.969 1.859-4.055 3.535-6.152 5.246S86.754 161.961 86 165l5-2-.496 2.105c-.543 3.129-.602 6.031-.566 9.207l.027 3.238L90 180l1.758.113c6.652.559 6.652.559 10.055 2.449 4.926 2.219 9.863 1.668 15.188 1.438v4c4.414-1.27 4.414-1.27 8-4 2.453.395 4.641 1.215 7 2v3c-9.605 4.805-26.133 1.102-35.906-2.125-3.18-.898-5.805-1.031-9.094-.875l-1 4c-11.52-.777-11.52-.777-17-3v-2l-3.762-.805-4.926-1.07-2.473-.527c-8.352-1.824-8.352-1.824-11.84-3.598-.812-2.125-.812-2.125-1-4-1.977.348-1.977.348-4 1l-1 2-1-3c-3.441-1.723-7.234-1.516-11-1-2.57 1.813-2.57 1.813-4 4l3 1-1 2-5-1v4l8 1v-3h3v2l12-3v6c-8.645 3.77-19.852 5.355-28.875 1.898-2.219-1.48-3.66-2.672-5.125-4.898-.5-3.875-.5-3.875 0-7l8-2-5-2 3-1-1-8 2-1 1 5 2.773-.035 3.602-.027 3.586-.035C31 168 31 168 33 169a146.95 146.95 0 0 0 6.152.141l3.793.059 7.875.055c7.914.152 17.188.758 23.18 6.746l1-3h-2l-1-2c-8.887-2.227-18.199-2.387-27.312-2.625l-3.723-.117L32 168l-2-5 1.645-.77 2.168-1.043 2.145-1.02c3.395-1.941 4.801-3.434 6.043-7.168-6.734-.109-13.301.297-20 1 .617-7.508.617-7.508 2.563-10L26 143l-1.5.438c-3.477.781-6.961 1.148-10.5 1.563l-1-9 4 1v-5h2l1-3h2c2.184-2.676 2.184-2.676 2-5zm0 0" fill="rgb(5.098039%,3.529412%,0.784314%)"/><path d="M67 26c5.941.371 10.574 4.551 14.617 8.633C82.977 36.117 82.977 36.117 85 37v-2l5 1 2.563.688c2.422.555 2.422.555 4.266-.687 2.723-1.254 4.41-1.047 7.359-.687l2.668.301C109 36 109 36 110 37c.211 2.078.367 4.164.5 6.25.258 4.07.695 7.727 1.5 11.75l13-2 3 4-4 1-1 4-6.836.293L114 62l-2-3c-1.965-.578-1.965-.578-4.125-.687L104 58l-2 7-9.082-.586C90 64 90 64 87 62c1.156 2.539 1.156 2.539 3 5 2.59.887 2.59.887 5 1l-1 3c-2.812.313-2.812.313-6 0-1.875-2.5-1.875-2.5-3-5-2.437.27-2.437.27-5 1l-2 3-3 1-1 3c4.652 1.02 8.32.719 13 0l2 1v5l-2-2c-3.328-.141-6.605.008-9.934.125C74 78 74 78 71 76v-3h-2v12c-4-2-4-2-6-4l-3.437 10.5-.984 2.977C56.781 100.02 55.492 105.191 55 111l2-1c.652-2.023.652-2.023 1-4l7-2-4-2v-1l3.313-.937A167.21 167.21 0 0 0 71 98l-2 4 4 2v2l-5 1v2l5 2v2c-7.355 2.445-14.25 4.477-22 5 .676-6.09 1.75-12 3-18l-6 10c-5-1-5-1-6.875-2.312C40 106 40 106 40.242 104.055c1.324-3.59 4.543-5.277 7.758-7.055 2.953-1.18 5.938-2.145 9-3h-5l1-7 2.25-.5c3.941-2.148 5.277-5.344 6.75-9.5v-3c-6.473 2.859-6.473 2.859-10.887 7.957C50.797 84.07 50.797 84.07 51 87h-4l1.125 1.75C49 91 49 91 48.359 93.035c-1.797 2.598-3.207 2.875-6.234 3.652l-2.617.699L37 98l-2.32.582L33 99l-1-5h-2l-1-3c3.031-2.586 5.363-3.449 9.25-4.187 5.504-1.379 8.051-3.645 11.766-7.805C53.156 75.828 56.91 73.766 61 72h2l-.035-2.414C62.918 64.242 63.043 59.266 64 54c.191-3.859.234-7.289-1-11-.094-1.852-.129-3.707-.125-5.562l-.008-2.941C63 32 63 32 64 30h2zm0 0" fill="rgb(87.45098%,58.039216%,32.941176%)"/><path d="M54 63l9 1c1.047 4.977 1.047 4.977 0 8-2.824 2.145-5.758 3.66-8.914 5.273-2.875 1.609-4.441 2.93-6.523 5.414-3.777 4.223-8.492 5.051-13.867 6.293L31 90c-.98 2.023-.98 2.023-1 4h2l1 4 8.301-2.246A121.4 121.4 0 0 0 47 94c.688-2.355.688-2.355 1-5l-2-3 5 1-.687-3.062C51 80 51 80 53.449 77.977 56.254 76.215 59.078 74.559 62 73c.949 2.555 1.102 3.715.18 6.324l-1.305 2.363-1.258 2.387C57.566 86.516 56.109 86.691 53 87l1 4h-2v3l5-2v2l-1.977.953C50.102 97.363 45.469 99.824 41 103c.574 2.867.859 3.859 3 6h4c1.809-2.203 1.809-2.203 3.25-5l1.578-2.812L54 99c1.711 3.418-.043 7.063-.937 10.625l-.59 2.43L51 118l-2.367-1.031c-2.934-1.078-3.742-.738-6.633.031l-3-2-1 2-1.375-2.062C32.422 110.234 27.031 106.012 21 104l1 6H12c-4.16-36.355-4.16-36.355-2-45l44-1zm0 0" fill="rgb(14.117647%,15.294118%,15.294118%)"/><path d="M117 72c1.938.688 1.938.688 4 2 .75 2.625.75 2.625 1 5l3 1-.125 3.188c.711 3.883.711 3.883 3.418 5.391L136 92l-1.738.168c-3.297 1.215-4.445 3.305-6.449 6.145l-2.105 2.926c-1.5 2.426-2.148 4.031-2.707 6.762-3.102 4.059-6.191 4.695-11 6a81.8 81.8 0 0 0-3.5 2.125c-3.934 2.109-6.105 2.551-10.5 1.875-2.523-2.355-3.398-4.637-4-8l-3 1 .352-2.195c.297-3.184.371-5.68-.352-8.805-2.996-2.773-6.332-4.273-10-6-2-2-2-2-3-4l-5-2-2-2c-2.445 1.871-2.969 2.824-3.512 5.918l-.176 3.27-.199 3.293L67 101l-5 1 4 2c-2.566 2.566-4.477 2.539-8 3v4h-3l-1 2c.352-8.055 2.398-15.055 5.063-22.625l1.145-3.332L63 79l1.875 2.438C66.742 84.039 66.742 84.039 69 85V73h2v3c4.016.684 7.555.996 11.625.75 3.695-.062 4.113.02 7.063 2.625L92 82c5.332 2.789 9.492 1.59 15 0v-7c3.16-1.875 5.363-2.098 9-2zm0 0" fill="rgb(43.529412%,29.411765%,21.176471%)"/><path d="M200 162v38c-18.008 1.195-27.355.547-41.59-10.262-4.328-3.121-8.98-5.703-13.598-8.363l-5.105-2.977-2.172-1.262L136 176v-2l7.367-1.473 6.59-1.32 17.199-3.43 8.211-1.629 4.012-.793 5.645-1.121 3.281-.648C195.613 162 195.613 162 200 162zm0 0" fill="rgb(58.039216%,55.686275%,54.117647%)"/><path d="M166 12h2v2h5l1 4 8-2c1.098 4.32 2.18 8.617 3 13l-3 1v-2h-2l-1 2-1.937.313c-2.328.516-2.328.516-3.375 3.125-.98 2.527-.98 2.527.313 4.563.313 3.375.313 3.375 0 7a87.79 87.79 0 0 1-4 4l.5 1.938L171 53c-1.687 2.75-1.687 2.75-4 5h-4l.242 2.559c-.297 4.227-1.926 7-4.117 10.504-2.363 3.883-4.582 7.641-6.125 11.938l-5.469-3.711L146 78v-2h-2v-2l-4 1 .141-1.758.547-7.93.219-2.766c.316-5.07.48-8.41-2.906-12.547l9 1v-4h2v-4l-2-1c.754-8.879.754-8.879 4-13l3-1 .375-3.437L155 21l2-1c.406-2.32.742-4.656 1-7l8 1zm0 0" fill="rgb(51.764706%,52.156863%,53.333333%)"/><path d="M24 124c6.109-.113 11.953.105 18 1v8l-3.312.938c-2.242.648-4.473 1.324-6.687 2.063l-1 2 2.875-.125C37 138 37 138 39 140l-3 2 2.574-.078c8.703-.145 16.82.652 25.363 2.266l3.68.676C76.98 146.648 86.414 148.707 95 153v2c-1.187 1.09-2.426 2.121-3.687 3.125-4.121 3.477-6.762 7.156-9.312 11.875-9.719-.973-19.762-2.777-29-6l-1-2h3c-2.945-1.801-5.887-3.504-9-5v-4c-6.262-1.617-12.227-1.984-18 1-3.25.125-3.25.125-6 0 .613-7.508.613-7.508 2.563-10L26 143l-1.5.438c-3.477.781-6.961 1.148-10.5 1.563l-1-9 4 1v-5h2l1-3h2c2.184-2.676 2.184-2.676 2-5zm0 0" fill="rgb(25.098039%,27.058824%,28.235294%)"/><path d="M21 104c3.926.613 6.461 2.547 9.625 4.875l2.914 2.117C36 113 36 113 38 116c3.793.156 3.793.156 6.563-.625C47 115 47 115 50 117c6.16.238 11.93-1.484 17.727-3.367 2.813-.781 5.371-.863 8.273-.633-1.324 3.945-2.91 6.227-5.937 9.063-2.09 1.973-3.949 3.781-5.629 6.121C63 130 63 130 60 131l-1 3h4v-2l1.742.875c5.281 2.633 10.207 5.07 16.07 6.063 7.691 1.359 16.07 3.887 21.188 10.063.25 2.75.25 2.75 0 5l3 1-1.937.313L101 156l-1 3-2.187-.312c-3.949.441-5.117 2.484-7.812 5.313-3.312 1.813-3.312 1.813-6 3 1.418-5.195 4.922-8.66 9-12h2v-2l-2.273-.551-3.102-.762-3.023-.738a187.34 187.34 0 0 1-8.32-2.418c-5.406-1.633-10.84-2.75-16.402-3.719l-3.016-.527C50.492 142.906 42.469 142.559 34 143l4-3-7-2 1-3c2.066-.73 2.066-.73 4.563-1.187l2.504-.48L41 133v-7l-15-2c2-3 2-3 4.625-3.687L33 120l-8-1-1.367-5.957c-.613-2.32-.613-2.32-2.633-5.043zm0 0" fill="rgb(1.568627%,3.529412%,2.745098%)"/><path d="M16 173l3 2c-5.625 2-5.625 2-9 2v7l1.75.813C14 186 14 186 15.625 187.555c3.434 2.09 6.73 1.844 10.625 1.758l2.199.012c5.133-.051 9.613-.922 14.551-2.324v-5l-3.25 1C36 184 36 184 32 184v-2h-3v3c-5.75.125-5.75.125-8-1v-4l4-1v-4c4.008-2.672 7.289-2.602 12-2 2.313 1.563 2.313 1.563 4 3 2.207-.219 2.207-.219 4-1l1 4 5 1v2l3 2c.293 2.383.293 2.383.188 5.125l-.082 2.758L54 194l-2.555 1.059-3.32 1.379-3.305 1.371c-1.625.688-3.242 1.402-4.82 2.191a252.96 252.96 0 0 1-8.945.098l-2.684-.004-8.496-.031-5.754-.012L0 200v-25c6.453-1.613 9.789-2.422 16-2zm0 0" fill="rgb(23.137255%,12.941176%,7.843137%)"/><path d="M64 30h1l.184 2.957.254 3.855.246 3.832c.188 3.348.188 3.348 1.316 6.355v8c5.699-1.238 9.957-3.617 14.863-6.758C84 47 84 47 86 47c-.875 4.875-.875 4.875-2 6l-1 7h-4v2h-2l-1 3h-7l-1 19c-4-2-4-2-5-3l-3.437 10.5-.984 2.977C56.781 100.02 55.492 105.191 55 111l2-1c.652-2.023.652-2.023 1-4l7-2-4-2v-1l3.313-.937A167.21 167.21 0 0 0 71 98l-2 4 4 2v2l-5 1v2l5 2v2c-7.355 2.445-14.25 4.477-22 5 .676-6.09 1.75-12 3-18l-6 10c-5-1-5-1-6.875-2.312C40 106 40 106 40.242 104.055c1.324-3.59 4.543-5.277 7.758-7.055 2.953-1.18 5.938-2.145 9-3h-5l1-7 2.25-.5c3.941-2.148 5.277-5.344 6.75-9.5v-3c-6.473 2.859-6.473 2.859-10.887 7.957C50.797 84.07 50.797 84.07 51 87h-4l1.125 1.75C49 91 49 91 48.359 93.035c-1.797 2.598-3.207 2.875-6.234 3.652l-2.617.699L37 98l-2.32.582L33 99l-1-5h-2l-1-3c3.031-2.586 5.363-3.449 9.25-4.187 5.504-1.379 8.051-3.645 11.766-7.805C53.156 75.828 56.91 73.766 61 72h2l-.035-2.414C62.918 64.242 63.043 59.266 64 54c.191-3.859.234-7.289-1-11-.094-1.852-.129-3.707-.125-5.562l-.008-2.941C63 32 63 32 64 30zm0 0" fill="rgb(54.509804%,54.117647%,52.54902%)"/><path d="M101 156c5.52-.215 9.367.07 13.875 3.375C116 161 116 161 115.688 163.188L115 165l2.063.625c6.293 2.945 10.438 7.145 13.293 13.473.805 2.379.957 4.414.645 6.902l-2.812-.687L125 185c-1.582 1.418-1.582 1.418-3 3-2.687.188-2.687.188-5 0l-1-3-2.195.105c-5.922.164-9.57-.145-14.805-3.105-2.371-.586-4.738-1.051-7.145-1.473L90 180c-1.859-3.719-1.445-7.941-1-12 1.363-3.91 3.07-7.07 6-10 2.625-.125 2.625-.125 5 0zm0 0" fill="rgb(72.54902%,64.705882%,55.686275%)"/><path d="M104 58h8l2 4h9l1-3c.625 1.813.625 1.813 1 4l-2 3 3 1 2-9h4l.313 1.875c.563 2.488.563 2.488 3.688 4.125v2h-3v2l-4 1-.367 2.773-.508 3.602-.492 3.586C127 82 127 82 125 84l-.375-1.937L124 80l-2-1-2-5h-11l-2 9c-5.355 1.625-9.461 2.77-14.625.125L89 81v-6c-4.645-.156-4.645-.156-9.187.625-2.484.516-3.695-.34-5.812-1.625.313-1.937.313-1.937 1-4l3-1c1.688-1.996 1.688-1.996 3-4 2.375.188 2.375.188 5 1 1.313 2.563 1.313 2.563 2 5 2.973-.344 2.973-.344 6-1l1-2-2.312.188C90 68 90 68 88.188 66.688 87 65 87 65 87 62l9.961 1.465C100 64 100 64 102 65zm0 0" fill="rgb(96.470588%,77.647059%,52.54902%)"/><path d="M50 181c6.941.332 12.789.754 19 4v2l17 3 1-5c5.43.301 10.566.711 15.75 2.438 6.586 2.176 13.383 2.785 20.25 3.563-3.312 2.211-6.164 2.992-10 4l-1.937.535c-2.227.504-4.344.688-6.625.84-3.539.285-7.004.699-10.496 1.336-11.969 2.176-23.484 2.66-35.629 2.477l-5.375-.039L40 200c2.406-2.406 4.422-3.008 7.625-4.125l3.039-1.07L53 194l.293-7.52c-.344-2.895-1.047-3.707-3.293-5.48zm0 0" fill="rgb(58.431373%,21.176471%,7.843137%)"/><path d="M159 107c3.363 1.426 5.195 3.125 7.5 5.938 1.82 2.215 3.402 3.992 5.719 5.691L174 120v2l3 1-2 1-5.758-2.23c-3.395-1.164-6.676-1.449-10.242-1.77v3l2.344-.141c7.148-.25 11.551.383 17.656 4.141-3.98 1.066-7.91 1.523-12 2 .813 2.191.813 2.191 3.031 2.781l2.469.719c2.469.719 2.469.719 4.5 1.5l1 2-9-3v6l6 3v2l-3.687.25c-4.133.527-6.395 1.66-9.312 4.75-1.332 2.617-1.332 2.617-2 5l-4-1v-2l-4.59 3.711c-1.543 1.258-1.543 1.258-2.406 3.289l5-2-12 12-3-1c5.199-8.402 10.691-14.66 19-20l1-2c-3.57 1.539-6.082 3.695-8.937 6.313l-2.66 2.43c-1.809 1.699-3.562 3.41-5.277 5.195-1.98 1.922-3.586 3.027-6.125 4.063l1-3h2l.625-1.687c1.949-3.281 4.316-5.016 7.375-7.309h2v-2a102.32 102.32 0 0 1 5-4l-1-2-2.055 1.781c-7.512 6.066-7.512 6.066-11.902 6.523-2.426-.273-4.695-.656-7.043-1.309v-3c3.832-.09 7.266.121 11 1 1.043-3.133.934-3.988 0-7h3l-.562-2.875C145 135 145 135 146 133h5l1-3h9l-2-4c3.91-.922 6.824-1 11-1l-13-1 1-6-4 1c1.59-4.035 3.281-8.02 5-12zm0 0" class="B"/><path d="M200 162v4l-9.863 2.344C187 169 187 169 184 169v3h5l-1 5-12 3v2l-8 2v2l-6.543 1.66c-4.594.637-7.996-.73-11.883-3.094l-2.41-1.465-2.477-1.539-2.531-1.523c-4.582-2.816-4.582-2.816-6.156-4.039v-2l7.371-1.473 6.586-1.316 17.199-3.43 8.211-1.633 4.012-.793 5.645-1.121 3.281-.648c7.719-1.676 7.719-1.676 11.699-1.586zm0 0" fill="rgb(71.372549%,70.196078%,67.45098%)"/><path d="M160.074 189.184l6.801 4.379 2.375 1.539L175 199v1H79v-1l12-2 3.41-.578c9.434-1.543 9.434-1.543 14.215-1.422 3.508.313 3.508.313 6.375-2 1.656-.387 3.32-.727 5-1l-2-2h11v2l7-1 1-3 3.563.125c3.125.023 4.984-.297 8.063-1.25 4.637-1.199 7.328-.043 11.453 2.309zm0 0" fill="rgb(37.647059%,13.333333%,5.098039%)"/><path d="M118 48c3.395-.238 5.422-.352 8.375 1.438 3.57 2.125 6.504 2.215 10.625 2.563l1-3 .875 1.875c1.063 2.258 1.063 2.258 3.125 4.125.043 2.063.043 2.063-.242 4.57l-.293 2.715-.34 2.84-.316 2.863L140 75l4-1v2h2v2l1.625.625c3.379 1.953 5.68 4.559 8.375 7.375l-1 2c-5.875-4.75-5.875-4.75-7-7h-5l3 2-7 2 2 4-2.375-1c-2.469-1.117-2.469-1.117-4.625-1v2l4 1-3 2-10-5 .938-5.062c.785-4.305 1.484-8.602 2.063-12.937l5-1v-2h3l-2-1.75C132 62 132 62 132 58h-4l-2 9-4-1 2-1v-8l3-1c-3.645-2.43-5.711-2.16-10-2zm0 0" fill="rgb(77.254902%,69.803922%,61.176471%)"/><path d="M24 124c6.109-.113 11.953.105 18 1v8l-3.312.938c-2.242.648-4.473 1.324-6.687 2.063l-1 2 2.875-.125C37 138 37 138 39 140l-3 2 2.922-.07 3.828-.055 3.797-.07c3.18.18 4.816.504 7.453 2.195l-2.203.262c-6.957.973-12.684 2.828-19.082 5.695-3.512 1.352-6.012 1.465-9.715 1.043v2h5v1h-6c.613-7.508.613-7.508 2.563-10L26 143l-1.5.438c-3.477.781-6.961 1.148-10.5 1.563l-1-9 4 1v-5h2l1-3h2c2.184-2.676 2.184-2.676 2-5zm0 0" class="C"/><path d="M41 151c3.063 1 3.063 1 5 2v4l3.375.875C53 159 53 159 55 161c1.969.672 1.969.672 4.125 1.125L63 163v1h-7c5.953 1.531 11.977 2.758 18 4l2.52.594c2.258.52 2.258.52 5.48.406 2.793-2.293 2.793-2.293 5-5 2.313-.812 2.313-.812 4-1l-.496 2.105c-.543 3.129-.602 6.031-.566 9.207l.027 3.238L90 180l1.934.148 2.504.227 2.496.211L99 181l1 2H88l-1-3-1.863-.113-2.449-.199-2.426-.176c-2.672-.605-3.648-1.316-5.262-3.512v-3h-2l-1-2c-8.887-2.227-18.199-2.387-27.312-2.625l-3.723-.117L32 168l-2-5 1.645-.77 2.168-1.043 2.145-1.02c3.395-1.941 4.801-3.434 6.043-7.168H29c4.047-2.699 7.254-2.434 12-2zm0 0" fill="rgb(11.372549%,14.117647%,13.72549%)"/><path d="M157 144l3 1c-2.387 2.465-4.781 4.813-7.383 7.055-5.34 4.605-9.234 8.746-12.617 14.945 3.477-1.516 5.957-3.578 8.75-6.125l2.422-2.195L153 157l-4 1c1.516-4.551 5.168-6.5 9-9l-1 4c3.129-.488 5.801-1.32 8.688-2.562 4.75-1.871 9.277-1.715 14.313-1.437 1 2 1 2 .5 4.375-2.535 4.441-6.422 5.984-11.125 7.434l-5.684 1.488c-4.684 1.227-9.012 2.617-13.102 5.262-8.246 5.258-14.176 4.84-23.59 3.441 1.375-1.5 1.375-1.5 3-3h2l-1-7c2.867.574 3.859.863 6 3l.996-1.504c3.43-4.895 7.074-8.348 11.879-11.887 2.645-2 4.859-4.195 7.125-6.609zm0 0" fill="rgb(3.137255%,3.921569%,1.960784%)"/><path d="M151 46c3.313 1.164 5.891 2.113 8 5v4l-6-1v6h2l1 3 4-4 3 2c-.582 4.328-2.164 7.297-4.437 11-2.199 3.602-4.109 7.031-5.562 11l-5.469-3.711L146 78v-2h-2v-2l-4 1 .141-1.758.547-7.93.219-2.766c.316-5.07.48-8.41-2.906-12.547h10l1 3-2 1 2 1 .438-3.937c.438-3.937.438-3.937 1.563-5.062zm0 0" fill="rgb(29.411765%,31.372549%,33.333333%)"/><path d="M167 19l5 1 2 8h-2l1 4h-2v-2h-3c-1.031 2.789-1.047 3.867-.062 6.75L169 39l-9-1v5h3v-2h5l-1 5h-3l1.5 3.188c1.328 3.066 1.809 5.434 1.5 8.813h-4v3h-4c-2.227 1.422-2.227 1.422-4 3v-4h-2v-6l6 1c-.961-2.953-1.508-4.641-4.062-6.5C153 47 153 47 152.25 44.313L152 42l-3-1c0-3 0-3 2.25-5.625 2.48-2.141 3.586-3.023 6.75-3.375l1-5c3.469.457 6.676.891 10 2v-5h-2zm0 0" fill="rgb(61.176471%,61.176471%,61.568627%)"/><path d="M16 163c2 3 2 3 2 5l2.738-.07 3.574-.055 3.551-.07C31 168 31 168 34 170c2.508.457 2.508.457 5.188.625l2.73.227L44 171l-1 2c-3.625.906-6.926.977-10.625.813-3.449-.062-4.09-.035-6.937 2.188L24 178l3 1-1 2-5-1v4l8 1v-3h3v2l12-3v6c-8.645 3.77-19.852 5.355-28.875 1.898-2.219-1.48-3.66-2.672-5.125-4.898-.5-3.875-.5-3.875 0-7l8-2-5-2 3-1-.562-3.937c-.316-2.215-.316-2.215-.437-4.062zm0 0" fill="rgb(15.686275%,7.058824%,1.176471%)"/><path d="M142 80c2.688-.375 2.688-.375 6 0l5 6c2.164.945 2.164.945 4 1v2l-2 2h3l3 11-4-1v-5h-2l-.375 3.25c-.539 3.234-1.215 4.926-2.625 7.75-.168 2.668-.168 2.668 0 5h-3c-5.121-5.906-11.043-14.094-12-22l-3-1v-2c3.875-1 3.875-1 5-1l-1-2 7-1zm0 0" fill="rgb(15.294118%,18.431373%,18.431373%)"/><path d="M135.285 140.902l2.777.035 2.785.027L143 141c1.125 2.313 1.125 2.313 2 5l-2 3-11-2v3c4.988.777 8.648.773 13.113-1.781 2.707-1.992 5.328-4.039 7.887-6.219l2 1c-1.051 2.621-1.648 3.793-4.125 5.25L149 149v2c-1.828 1.551-1.828 1.551-4.25 3.313-3.465 2.609-6.246 5.098-8.75 8.688l2 1c-3 0-3 0-6-1v5l-3 1 .438-3.625c-.004-2.652-.145-3.969-1.715-6.137-4.141-3.727-8.449-5.574-13.723-7.238v-1l2.375-.437c2.59-.437 2.59-.437 4.625-1.559l3 1 1.313-2 1.688-2h3l.938-1.937c1.57-3.043 1.57-3.043 4.348-3.16zm0 0" fill="rgb(10.196078%,12.54902%,12.54902%)"/><path d="M200 141v21c-6.441 1.43-10.687 2.23-17 2v-3h2l1-4h-8c1.016-4.484 2.148-8.785 4-13 3.313-1.75 3.313-1.75 7-2l3.688-.625C196 141 196 141 200 141zm0 0" fill="rgb(44.313725%,15.686275%,6.666667%)"/><path d="M117 72l4 2v6h2l1 7h-2l-1 5c-5.645 2.441-10.977 2.191-17 2v-2l-3.312-.187L97 91l-3-5 15-2-2-9c3.832-1.914 4.992-2.109 9-2zm0 0" fill="rgb(8.235294%,10.588235%,8.627451%)"/><path d="M158 106h1c-.469 4.777-1.242 8.047-4 12h3l-1 6h13l1 2h-11l1 4-1.898.184-2.477.254-2.461.246c-2.207.207-2.207.207-4.164 1.316a146.3 146.3 0 0 1-6 0l-.125 2.313C143 137 143 137 140.313 138.813c-3.367 1.207-5.77 1.441-9.312 1.188 1.398-3.406 2.852-4.871 6-6.75l2.125-1.297C141 131 141 131 143 131l-2-6 2-1-1-3-2.812.188C136 121 136 121 134.301 119.488L133 118c6.766-1.613 13.051-2.266 20-2zm0 0" fill="rgb(0.784314%,3.921569%,3.529412%)"/><path d="M67 26c6.063.379 10.418 4.672 14.742 8.57C83 36 83 36 83 38l2 1c-4.918 7.102-9.723 12.973-18 16-4.84-21.18-4.84-21.18 0-29zm0 0" fill="rgb(25.098039%,9.803922%,2.745098%)"/><path d="M160.285 10.902l2.777.035 2.785.027L168 11l-2 1v2l-8-1v7l-3 1 .625 1.75c.469 2.82-.016 3.918-1.625 6.25l-3 1c-1.965 3.926-3.344 7.656-4 12l3 1-1 4h-2l-1 2-1-3c-1.629-1.437-1.629-1.437-3.562-2.687l-1.941-1.324L138 41l-2 1v-5l4-1 .375-2.312C141 31 141 31 143 28l-3-1 1-1.812c1.207-2.242 1.207-2.242 1-5.187 2.5-1.687 2.5-1.687 5-3l2 3h2l1-3a143.69 143.69 0 0 1 5-5c1-1 1-1 3.285-1.098zm0 0" fill="rgb(12.156863%,15.294118%,16.862745%)"/><path d="M100 36l6 1 .375 1.75c.535 2.238.535 2.238 1.594 4.094 1.102 2.305 1.641 4.41 2.156 6.906l.508 2.422L111 54l4 1 1-1c2.996-.699 5.922-1.109 9-1 2.063 1.938 2.063 1.938 3 4l-4 1-1 4-6.836.293L114 62l-2-3c-1.965-.578-1.965-.578-4.125-.687L104 58l-2 7-2.484-.219-3.266-.281-3.234-.281L86 64h-2c.5-1.812.5-1.812 2-4 5.809-2.852 10.59-3.402 17-3v-7h-2l-1-4 2-1-.437-1.687c-.59-2.426-1.086-4.863-1.562-7.312zm0 0" fill="rgb(62.352941%,23.921569%,6.666667%)"/><path d="M101 156c5.52-.215 9.367.07 13.875 3.375C116 161 116 161 115.688 163.188L115 165l2.063.625c5.152 2.41 8.875 5.715 11.938 10.5 1.016 2.918 1.188 4.074 0 6.875l-.684-1.926c-1.148-2.293-1.148-2.293-3.664-2.867l-2.715-.395c-4.871-.75-4.871-.75-5.937-1.812-2.457-.25-2.457-.25-5 0l-2 2c-3.625.125-3.625.125-7 0 .379-2.781.676-4.59 2.438-6.812C106 170 106 170 108 170l-1-5-3-1v-2h-2zm0 0" fill="rgb(87.45098%,76.470588%,60.784314%)"/><path d="M168 7c2 3 2 3 2 6l2 1h-4v-3l-7.52.586c-2.723.281-2.723.281-5.48 2.414l-.875 1.938C152.629 18.68 150.719 19.566 148 21l-2-3-4 2 .625 1.813C143 24 143 24 141 27l2 1-.937 1.75c-1.141 2.18-1.141 2.18-1.5 4.438L140 36l-3 1c1.168 3.508 2.008 3.898 5 5.875 3.875 2.77 3.875 2.77 5 6V51c-4.523-.109-8.734-.332-12.562-2.937-3.414-4.289-2.992-7.777-2.437-13.062h1l.113-2.336.199-3.039.176-3.023L134 24l3-2 1-3h4v-3l1.938-.312L146 15l1-3 3 1 4.816-2.098C159.063 9.148 163.559 8.133 168 7zm0 0" fill="rgb(2.352941%,6.666667%,6.27451%)"/><path d="M80 113l2 2 2-1c-.629 5.484-3.277 8.465-7.312 12.063L75 128c.137 2.219.137 2.219 1 4h3c2.02.738 4.02 1.531 6 2.375l3.188 1.336C91 137 91 137 94 139l1 3c1.969 1.383 3.969 2.715 6 4l2 2-1 3-1.66-2.336c-5.18-5.895-13.512-7.594-20.965-9.102C73.051 138.25 68.266 135.672 63 132v2l3 1c-1.812.625-1.812.625-4 1l-3-2c.25-1.875.25-1.875 1-4l1.824-.883c2.59-1.332 3.895-2.875 5.738-5.117 2.109-2.559 3.637-4.133 6.438-6-1.527 3.438-3.598 6.117-6 9 5.297-4.027 8.793-8.176 12-14zm0 0" fill="rgb(17.647059%,19.607843%,19.215686%)"/><path d="M16 173l3 2c-5.625 2-5.625 2-9 2v7l1.75.813C14 186 14 186 15.875 187.625c2.805 1.813 4.852 1.598 8.125 1.375-2.742 1.828-4.797 2.715-7.887 3.727l-2.562.848-3.238 1.051L0 198v-23c6.453-1.613 9.789-2.422 16-2zm0 0" fill="rgb(85.882353%,51.372549%,23.529412%)"/><path d="M81 65c2.375.188 2.375.188 5 1 1.313 2.563 1.313 2.563 2 5 3.793-1.004 6.715-1.809 10-4l1 11 2-4c3.625-.75 3.625-.75 7-1v9c-8.758 3.863-8.758 3.863-13.16 2.168-1.992-.992-3.926-2.035-5.84-3.168v-6c-4.645-.156-4.645-.156-9.187.625-2.484.516-3.695-.34-5.812-1.625.313-1.937.313-1.937 1-4l3-1c1.688-1.996 1.688-1.996 3-4zm0 0" fill="rgb(85.490196%,82.352941%,75.686275%)"/><path d="M64 30h1l.184 2.957.254 3.855.246 3.832c.188 3.348.188 3.348 1.316 6.355v8c5.699-1.238 9.957-3.617 14.863-6.758C84 47 84 47 86 47c-.875 4.875-.875 4.875-2 6l-1 7h-4v2h-2l-1 3-8 1-1 14h-2c-1.148-3.645-1.098-7.043-1.062-10.848l.012-1.98.051-6.234.063-8.223.035-3.684c.047-3.078.047-3.078-1.098-6.031-.094-1.852-.129-3.711-.125-5.562l-.008-2.941C63 32 63 32 64 30zm0 0" fill="rgb(94.509804%,73.333333%,47.45098%)"/><path d="M62 73c.949 2.555 1.102 3.715.18 6.324l-1.305 2.363-1.258 2.387C57.566 86.516 56.109 86.691 53 87l1 4h-2v3l5-2v2l-1.941.918c-8.957 4.324-8.957 4.324-16.539 10.672-2.598 2.41-5.078 2.352-8.52 2.41-2.937-1.687-2.937-1.687-5-4v-4l4 1v3h2l.625-1.75c2.711-4.437 6.863-6.27 11.75-7.5L47 94c.688-2.355.688-2.355 1-5l-2-3 5 1-.687-3.062C51 80 51 80 53.449 77.977 56.254 76.215 59.078 74.559 62 73zm0 0" fill="rgb(3.921569%,4.705882%,4.313725%)"/><path d="M200 177v23h-13v-20c9-3 9-3 13-3zm0 0" fill="rgb(0.392157%,3.137255%,1.176471%)"/><path d="M32.5 62.938l4.227.016L47 63l-1 2H10c0 9.367.109 18.305 1 27.563 1.141 12.281 1.141 12.281 1 17.438l7 1-2 3v-2l-3 1-2-1-1 2-1-2-2 2c-1.266-5.789-2.074-11.512-2-17.437V93l-1-1c-1.098-9.113-2.023-17.504 2-26 5.492-5.492 18.094-3.109 25.5-3.062zm0 0" fill="rgb(7.843137%,10.588235%,11.372549%)"/><path d="M94 53l-4 2 1 4-2.375.813C85.719 60.848 85.719 60.848 84 64l3-1 1.188 1.938c2.199 2.5 3.57 2.711 6.813 3.063l-1 3c-2.812.313-2.812.313-6 0-1.875-2.5-1.875-2.5-3-5-2.437.27-2.437.27-5 1l-2 3-3 1-1 3c4.652 1.023 8.32.723 13 0l2 1v5l-2-2c-3.324-.141-6.605.008-9.934.125C74 78 74 78 71 76v-3h-2v12l-2-1 .438-7.812.121-2.234c.184-3.184.43-5.914 1.441-8.953l3.438-.375L76 64l1-2h2v-2h4v-5h2l1-3c3.621-1.207 4.641-.543 8 1zm0 0" fill="rgb(69.019608%,41.960784%,23.921569%)"/><path d="M187 181v19c-10.559 1.008-15.766-1.461-24-8 3-2 3-2 7-2v-2l2.59-.805 3.348-1.07 3.34-1.055c2.852-.77 2.852-.77 3.723-3.07 3-1 3-1 4-1zm0 0" fill="rgb(51.764706%,49.803922%,47.843137%)"/><path d="M178 167l-1 2c-2.043.633-4.09 1.02-6.187 1.438L169 171l-1 2c-3.586 1.742-7.066 2.449-11 3-.598 2.762-1 5.16-1 8-2.52.965-4.277 1.289-6.82.27-2.047-1.125-4.02-2.328-5.992-3.582l-2.102-1.262c-1.738-1.074-3.418-2.242-5.086-3.426v-2l11.875-2.375 9.973-1.992 6.059-1.238 2.656-.551 2.309-.484c3.09-.52 6.004-.496 9.129-.359zm0 0" fill="rgb(83.921569%,81.568627%,78.039216%)"/><path d="M166 131v2l-8-1v2l5 1v2h-8l13 4 1-2 6 3v2l-3.687.25c-4.133.527-6.395 1.66-9.312 4.75-1.332 2.617-1.332 2.617-2 5l-4-1v-2l-4.59 3.711c-1.543 1.258-1.543 1.258-2.406 3.289l5-2-12 12-3-1c5.199-8.402 10.691-14.66 19-20l1-2-2-1v-4l-7-1v-4l3-1v-3l7.52-.879C163 130 163 130 166 131zm0 0" fill="rgb(17.647059%,19.215686%,19.607843%)"/><path d="M130 20c1.293 4.914 1.109 9.773 1.063 14.813l-.012 2.68L131 44c-4.184-.531-6.457-1.824-9.687-4.5-2.992-2.504-2.992-2.504-6.312-4.5.613-2.961 1.254-4.383 3-7h2v-2h2l.813-1.875C124.656 20.824 126.258 20 130 20zm0 0" fill="rgb(40%,18.823529%,9.803922%)"/><path d="M113 37c8.367 1.047 8.367 1.047 13 5 2.305 1.117 4.641 2.105 7.012 3.07C135 46 135 46 137 48v4c-5.602.285-8.246.129-13-3-3.195-.715-3.195-.715-6-1l.125 2.375C118 53 118 53 116 55l-4-1zm0 0" fill="rgb(98.039216%,87.843137%,63.921569%)"/><path d="M97.625 157.875L100 158l-4 1v6h2v3h-2l-1 3-2 1c.641 2.477.641 2.477 2 5 2.523 1.359 2.523 1.359 5 2v2l16-1 1 2 7 3-2 3c-2.625.188-2.625.188-5 0l-1-3-2.195.105c-5.922.164-9.57-.145-14.805-3.105-2.371-.586-4.738-1.051-7.145-1.473L90 180c-1.859-3.719-1.445-7.941-1-12 1.531-4.395 3.473-9.879 8.625-10.125zm0 0" fill="rgb(45.882353%,30.196078%,23.137255%)"/><path d="M84 96c5.75 1.75 5.75 1.75 8 4 .215 3.844.18 7.316-1 11h2l1-4 .875 2.75c.891 2.57 1.84 4.863 3.125 7.25 6.086.535 8.68-.051 13.391-3.887 2.227-1.539 3.98-1.512 6.609-1.113-5.687 7.313-5.687 7.313-10 9-4.937.535-9.375.676-14-1.25-4.102-3.59-6.348-8.062-9-12.75l-1-1c-.07-1.687-.086-3.375-.062-5.062l.027-2.785zm0 0" fill="rgb(26.27451%,13.333333%,5.098039%)"/><path d="M118 152c4.137 1.781 7.199 4.027 10.063 7.5 1.109 2.953.871 4.527-.062 7.5l-3 1-1 3-6.934-4.199c-2.535-2.211-2.605-3.547-3.062-6.801-2.316-2.312-3.48-2.496-6.625-3.125l-2.48-.508L103 156l1.813-.875c7.879-4.051 7.879-4.051 13.188-3.125zm0 0" fill="rgb(70.196078%,53.72549%,39.607843%)"/><path d="M90 163l1 2-1 3-.062 6.188.027 3.293L90 180l1.934.148 2.504.227 2.496.211L99 181l1 2H88l-1-3-1.863-.113-2.449-.199-2.426-.176c-2.672-.605-3.648-1.316-5.262-3.512v-3h-2l-1-4-6-1v-1l3.5.438 2.207.254 4.43.773c2.328.523 2.328.523 5.863.535 2.855-2.27 2.855-2.27 5-5zm0 0" fill="rgb(11.764706%,7.45098%,2.352941%)"/><path d="M55 184c15.266 1.801 15.266 1.801 21 5l1 2c2.32.406 4.656.742 7 1v1l-9.625 2-2.738.578c-4.617.945-8.895 1.676-13.637 1.422v-2l-3-2c-.293-2.164-.293-2.164-.187-4.625l.082-2.477zm0 0" fill="rgb(67.058824%,25.098039%,9.019608%)"/><path d="M78 151c-.129 1.766-.129 1.766-1 4-2.652 1.922-2.652 1.922-5.937 3.75l-3.277 1.859C65 162 65 162 63 162l-1.75-1.812c-2.535-2.465-5.047-3.73-8.25-5.187 1-3 1-3 2.82-4.168 8.012-3.543 14.168-3.836 22.18.168zm0 0" fill="rgb(58.823529%,56.470588%,54.901961%)"/><path d="M23 99l.688 1.75c1.785 3.059 3.223 4.473 6.313 6.25 3.102.133 6.02-.125 9-1l1-2 1.75 2.5L44 109h4c1.809-2.203 1.809-2.203 3.25-5l1.578-2.812L54 99c1.711 3.418-.043 7.063-.937 10.625l-.59 2.43L51 118l-2.367-1.031c-2.934-1.078-3.742-.738-6.633.031l-3-2-1 2-1.375-2.062c-3.105-3.477-6.523-5.805-10.383-8.387C24 105 24 105 22 103c.375-2.125.375-2.125 1-4zm0 0" class="B"/><path d="M33.625 138.938l3.039.027L39 139l-3 3 2.922-.07 3.828-.055 3.797-.07c3.18.18 4.816.504 7.453 2.195l-2.203.262c-6.957.973-12.684 2.828-19.082 5.695-3.512 1.352-6.012 1.465-9.715 1.043v2h5v1h-6c.613-7.508.613-7.508 2.563-10L26 143l-1.75.5C22 144 22 144 18 144v-2l6.055-1.465c5.961-1.641 5.961-1.641 9.57-1.598zm0 0" fill="rgb(10.196078%,12.941176%,12.156863%)"/><path d="M37 173c2.313 1.563 2.313 1.563 4 3 2.207-.219 2.207-.219 4-1v5l-6.641 3.125C36 184 36 184 32 184v-2h-3v3c-5.75.125-5.75.125-8-1v-4l4-1v-4c4.008-2.672 7.289-2.602 12-2zm0 0" fill="rgb(22.745098%,20.392157%,18.431373%)"/><path d="M187 156l-2 5h-2v3l3 1-12.488 2.617-4.242.895-6.121 1.273-3.715.777c-3.445.441-6.062.199-9.434-.562 2.887-1.574 5.531-2.465 8.75-3.125l2.422-.508L163 166v-2c4.363-2.445 8.027-3.504 13-4l1-3c3.473-1.156 6.359-1.07 10-1zm0 0" fill="rgb(49.411765%,18.431373%,8.627451%)"/><path d="M159 59l4 2c-.582 4.328-2.164 7.297-4.437 11-2.199 3.602-4.109 7.031-5.562 11l-5.469-3.711L146 78v-2h-2l1-5h2l-1 3 5 1c.043-1.664.039-3.336 0-5l-1-1c-.039-1.664-.043-3.336 0-5l-3-1c3.012-.934 3.867-1.043 7 0l1-3 1 3zm0 0" fill="rgb(27.45098%,29.803922%,32.54902%)"/><path d="M68.813 145.125l2.254.402c8.109 1.551 16.527 3.77 23.934 7.473v2c-1.207 1.109-2.469 2.164-3.75 3.188-3.883 3.277-6.023 6.273-8.25 10.813l-3-2 6-8-1-1a146.3 146.3 0 0 1 0-6l-1.758-.148c-3.648-.348-6.883-.727-10.367-1.914-6.492-2.117-10.848-.676-16.875 2.066-1.988.395-3.988.754-6 1v-2l5-1v-3h2v-2c3.996-1.512 7.742-.625 11.813.125zm0 0" fill="rgb(29.803922%,29.803922%,29.803922%)"/><path d="M174 26h3l1 3-2.562 2.25L173 34c.113 1.961.113 1.961 1 4 .313 3.5.313 3.5 0 7l-4 4 1 4c-1.937 2.25-1.937 2.25-4 4l-2.344-5.957C164 49 164 49 164 46l3-1c.734-2.016.734-2.016 1-4h-5v2h-3v-5h8c-.348-1.977-.348-1.977-1-4l-2-1h3v-3h3v2h2l-1-4h2zm0 0" fill="rgb(41.176471%,41.960784%,43.529412%)"/><path d="M184 170v2h5l-1 5-12 3v2l-8 2v2c-9.785 2.578-9.785 2.578-14 1l-1-2 2.75.25c4.023-.309 4.531-1.445 7.25-4.25 3.25-.75 3.25-.75 6-1l1-3c2.563-1.187 2.563-1.187 5-2h-3v-2c7.285-3.43 7.285-3.43 12-3zm0 0" fill="rgb(67.058824%,65.882353%,63.529412%)"/><path d="M63 79c3.875 4.75 3.875 4.75 5 7h-2l-.148 2.336-.227 3.039-.211 3.023C65 97 65 97 63 99l2 2-3 1 4 2c-2.566 2.566-4.477 2.539-8 3v4h-3l-1 2c.352-8.055 2.398-15.055 5.063-22.625l1.145-3.332zm0 0" fill="rgb(34.901961%,35.686275%,34.117647%)"/><path d="M69 98h2l-2 4 4 2v2l-5 1v2l5 2v2l-9.668 3.125c-2.973.781-5.285 1.059-8.332.875v-6l2-1c.652-2.023.652-2.023 1-4l7-2-4-2v-1l3.438-.937c3.352-.691 3.352-.691 4.566-2.062zm0 0" fill="rgb(53.72549%,54.117647%,51.764706%)"/><path d="M85 35l5 1 2.563.688c2.422.555 2.422.555 4.266-.687 2.723-1.254 4.41-1.047 7.359-.687l2.668.301C109 36 109 36 110 37l.563 6.563.254 3.629L111 50l-2 1-.367-1.828-.508-2.422-.492-2.391c-.637-2.367-1.352-4.27-2.633-6.359-2.539-1.281-2.539-1.281-5-2l.938 2.25c.871 2.258 1.539 4.395 2.063 6.75l-4 2-1-3c-3.246-2.285-6.109-2.469-10-2a125.02 125.02 0 0 0-6 4h-3l5-7-1-2h2zm0 0" fill="rgb(80.784314%,38.431373%,12.941176%)"/><path d="M78 151l7 1 1 5h2c0 2 0 2-2.375 4.438L83 164l-2 3 1 3h-5l-.25-1.875c-.562-2.309-.562-2.309-2.812-3.375L72 164l7-2c-2.023 0-4.051.297-6.062.5l-2.785.281L68 163c.676-2.711 1.289-4.52 3.656-6.117l1.906-1.008c3.695-1.508 3.695-1.508 4.438-4.875zm0 0" fill="rgb(37.254902%,35.686275%,34.509804%)"/><path d="M104 58l6.055-.293L112 58l2 3h-6v4l3 2v3l-13 3-1-5-2 1c-3.371-.914-5.508-1.508-8-4v-3l9.961 1.465C100 64 100 64 102 65zm0 0" fill="rgb(94.901961%,73.72549%,48.235294%)"/><path d="M61 144l-4 1v2h-2v3l-5 1 4 2-1 2 2.75.813c2.965 1.082 4.867 2.172 7.25 4.188l-1 2-3-1v-2l-8-1v-3l-4 1v-4c-4.926-1.969-8.781-2.18-14-2 7.824-7.145 18.113-6.352 28-6zm0 0" fill="rgb(34.117647%,33.72549%,33.333333%)"/><path d="M150 91h8l3 11-4-1v-5h-2l-.375 3.25c-.539 3.234-1.215 4.926-2.625 7.75-.168 2.668-.168 2.668 0 5h-3c-1.605-1.969-1.605-1.969-3.187-4.5l-1.605-2.531L143 103l1-2h2zm0 0" fill="rgb(22.745098%,23.529412%,23.529412%)"/><path d="M128 58h4l.313 1.875c.563 2.488.563 2.488 3.688 4.125v2h-3v2l-4 1-.367 2.773-.508 3.602-.492 3.586C127 82 127 82 125 84l-.375-1.937L124 80l-2-1-.875-2.25c-1.262-3.09-2.965-5.23-5.125-7.75l4-1 1 1 1-2h4zm0 0" fill="rgb(94.117647%,92.941176%,87.843137%)"/><path d="M67 24c5.281.453 8.957 3.23 12.875 6.625C81 32 81 32 81 34l2.813-.937C92.938 30.484 102.605 30.867 112 31v1l-5 1 2.5 1.75L112 37v4h-2l-1-4c-6.641-1.086-6.641-1.086-13.125.125C91.531 38.449 89.078 36.828 85 35v2l-5-2v-2l-1.687-.75C76 31 76 31 73.5 28.938 71.172 27.133 69.855 26.422 67 26l-2 4c.875-4.875.875-4.875 2-6zm0 0" fill="rgb(88.627451%,52.54902%,23.137255%)"/><path d="M96 159h5l1 3h2v2l4 1v5l-4 1v2c-2.906 2.02-5.516 3.355-9 4l-.375-1.937L94 173l-2-1 4-4h2v-3h-2zm0 0" fill="rgb(83.137255%,47.058824%,23.137255%)"/><path d="M42.188 87.438l3.293.309L48 88c1 3 1 3 .367 5.082-1.812 2.543-3.25 2.836-6.242 3.605l-2.617.699L37 98l-2.32.582L33 99l-1-5h-2l-1-3c4.57-3.625 7.414-4.121 13.188-3.562zm0 0" fill="rgb(83.137255%,82.352941%,80%)"/><path d="M63 60h1l1 20h2V66l2-1-1 19c-4-2-4-2-5-3l-4 11h-1c-.449-5.406.422-8.508 3.125-13.203 1.094-1.914 1.094-1.914.875-4.797-6.473 2.859-6.473 2.859-10.887 7.957C50.797 84.07 50.797 84.07 51 87l-10 1-1-2 2.063-.562c2.852-1.395 4.07-2.48 6.188-4.75C51.961 76.789 56.082 74.172 61 72h2zm0 0" fill="rgb(67.843137%,57.254902%,47.843137%)"/><path d="M118 48c5.629-.555 8.758 1.145 13.375 4l1.941 1.156L138 56v4h-6v-2h-4l-2 9-4-1 2-1v-8l3-1c-3.645-2.43-5.711-2.16-10-2zm0 0" fill="rgb(72.941176%,42.352941%,22.352941%)"/><path d="M101 156c5.52-.215 9.367.07 13.875 3.375C116 161 116 161 115.688 163.188L115 165l4 2c-3.402 2.094-6.055 2.18-10 2v2l-3-1h2l-1-5-3-1v-2h-2zm0 0" fill="rgb(90.980392%,73.333333%,52.156863%)"/><path d="M159 107c3.363 1.426 5.195 3.125 7.5 5.938 1.82 2.215 3.402 3.992 5.719 5.691L174 120v2l3 1-2 1-5.691-2.297c-3.754-1.145-7.426-.945-11.309-.703v-3l-4 1c1.59-4.035 3.281-8.02 5-12zm0 0" fill="rgb(3.137255%,5.098039%,5.490196%)"/><path d="M10 67h6v2c1.457 1.625 1.457 1.625 3 3l-5 2-.879 5.859c-.129 2.313.277 3.914.879 6.141l.688 5.938.324 3.09C15 98.188 14.359 100.176 13 103h-1c-5.77-28.457-5.77-28.457-2-36zm0 0" fill="rgb(19.215686%,19.215686%,19.215686%)"/><path d="M175 157l2 1c-2.672 3.457-5.883 3.988-10 5l-2.437.625L163 164v2l-2.336.805-3.039 1.07-3.023 1.055c-2.707.918-2.707.918-4.602 3.07-3.375.922-6.387 1.082-9.863.879l-2.687-.145-2.762-.172-2.824-.156L125 172v-4l3-2c.25-3.086.25-3.086 0-6l2 1c.25 5.625.25 5.625-2 9 9.484 1.668 14.918 1.234 22.918-4.152 4.41-2.645 8.977-3.734 13.93-5 2.629-.707 4.941-1.52 7.402-2.66zm0 0" fill="rgb(33.72549%,10.980392%,3.137255%)"/><path d="M105 40c3.758 2.508 3.727 3.82 4.688 8.125l.762 3.32L111 54l4 1 1-1c2.996-.699 5.922-1.109 9-1 2.063 1.938 2.063 1.938 3 4l-4 1-1 4-6.836.293L114 62l-2-3c-3.566-.734-3.566-.734-7-1l3-1zm0 0" fill="rgb(65.490196%,33.72549%,15.686275%)"/><path d="M143 55l3 1c.688 2.063.688 2.063 1 4l-3 1v4l6-1c2.125 7.625 2.125 7.625 1 11h-6l2-4h-2l-1 3-4 1 1-19zm0 0" fill="rgb(20.784314%,23.529412%,25.490196%)"/><path d="M62 73c.949 2.555 1.102 3.715.18 6.324l-1.305 2.363-1.258 2.387C57.566 86.516 56.109 86.691 53 87l1 4h-2v4h-5l.625-2.812c.742-3.34.742-3.34-1.625-6.187l5 1-.687-3.062C51 80 51 80 53.449 77.977zm0 0" fill="rgb(22.352941%,22.352941%,21.568627%)"/><path d="M186 181h1v19c-11.199.492-11.199.492-15.25-2l-1.75-2 3-1 2 1v-2h3v-2l-2-1 10-2zm0 0" fill="rgb(43.921569%,40.784314%,40.392157%)"/><path d="M44 182v5c-6.242 2.535-12.246 4.211-19 3-2.926-1.367-5.461-3.016-8-5 2.621-1.312 4.23-.895 7.125-.562l2.758.309L29 185v-3h3v2l2.117-.691 2.758-.871 2.742-.879C42 181 42 181 44 182zm0 0" fill="rgb(2.352941%,4.705882%,3.529412%)"/><path d="M86 47c-.875 4.875-.875 4.875-2 6l-1 7h-4v2h-2l-1 3h-7v-3l7-1 1-5-3.875.625c-2.18.352-2.18.352-4.125.375l-2-2 2.875-.625c4.469-1.242 8.109-3.648 11.988-6.133C84 47 84 47 86 47zm0 0" fill="rgb(92.156863%,65.490196%,39.215686%)"/><path d="M124 115c2.602 1.25 4.887 2.586 7.313 4.188 3.762 2.207 6.453 1.848 10.688.813 1.063 1.813 1.063 1.813 2 4l-1 3v-2h-2l2 6c-2.375 1.563-2.375 1.563-5 3l-2-1 3-1-1-1a183.98 183.98 0 0 0-7 1c0-3.41.492-6.629 1-10l-2.875-1.812C126 118 126 118 124 115zm0 0" fill="rgb(7.058824%,10.196078%,8.627451%)"/><path d="M100 183l2.105.496c3.129.543 6.031.602 9.207.566l3.238-.027L117 184v4c4.414-1.27 4.414-1.27 8-4 2.449.395 4.641 1.215 7 2v3c-3.777 1.891-8.344 1.227-12.5 1.25l-2.898.063c-6.687.035-12.316-1.031-18.602-3.312 3.75-1.125 3.75-1.125 6 0-.961-2.328-.961-2.328-4-4zm0 0" fill="rgb(3.137255%,4.313725%,2.745098%)"/><path d="M137 69c1.238 3.715.566 4.844-.812 8.438l-1.082 2.871L132 87l-5-1c-2.16-5.398.867-10.973 3-16zm0 0" fill="rgb(56.078431%,42.745098%,34.901961%)"/><path d="M200 162v4c-22.801 5.559-22.801 5.559-32 7l1-3c1.848-.73 1.848-.73 4.063-1.187l2.223-.48L177 168l-1-2 8.625-2 2.449-.578c4.398-1 8.379-1.656 12.926-1.422zm0 0" fill="rgb(78.823529%,77.647059%,74.117647%)"/><path d="M163.188 10.875l2.73.055L168 11l-2 1v2l-8-1v7l-3 1 .625 1.75C156 25 156 25 155.313 27.188 154 29 154 29 151.875 29.75L150 30v-3l-7-1c.563-1.937.563-1.937 2-4 3.625-.75 3.625-.75 7-1l.551-1.68.762-2.195.738-2.18c2.027-4.16 4.996-4.18 9.137-4.07zm0 0" fill="rgb(21.176471%,23.137255%,25.098039%)"/><path d="M162 142l3 3-1.937 2.813c-2.148 3.031-2.148 3.031-3.062 6.188l-4-1v-2l-4.59 3.711c-1.543 1.258-1.543 1.258-2.406 3.289l5-2-12 12-3-1c4.438-7.172 9.137-13.621 16.313-18.25 2.895-1.633 2.895-1.633 4.688-4.75h2v-2zm0 0" fill="rgb(18.431373%,13.333333%,10.588235%)"/><path d="M160 47c2.938 1.563 2.938 1.563 6 4 .875 3.75.875 3.75 1 7h-4v3h-4c-2.227 1.422-2.227 1.422-4 3v-4h-2v-6h6l-.062-2.937C159 48 159 48 160 47zm0 0" fill="rgb(61.176471%,61.568627%,62.352941%)"/><path d="M30 125h12v8c-5.289 1.574-10.602 2.848-16 4l1-2h2v-3h2l-.5-1.812C30 128 30 128 30 125zm0 0" fill="rgb(66.27451%,64.313725%,62.352941%)"/><path d="M70 39l13 1c-1.785 4.469-2.453 5.883-5.812 8.875l-2.02 1.867C73 52 73 52 70.238 51.695L68 51l1-3h2zm0 0" fill="rgb(7.45098%,5.098039%,1.176471%)"/><path d="M130 20v2h-2l1 7-5 1v3h-2l-1 5-6-3c.613-2.961 1.254-4.383 3-7h2v-2h2l.813-1.875C124.656 20.824 126.258 20 130 20zm0 0" fill="rgb(45.490196%,21.960784%,12.156863%)"/><path d="M109 81l2 3-5 3 2 2-2 1c1.648 1.648 3.555 1.172 5.813 1.188l2.645.043c2.652-.238 4.27-.887 6.543-2.23v3c-5.645 2.441-10.977 2.195-17 2v-2l-3.312-.187L97 91l-3-5 15-2zm0 0" fill="rgb(12.54902%,11.372549%,8.235294%)"/><path d="M87 185l11 1 1 3 3 1c-8.66 2.238-16.125 3.504-25 2l-1-3 10 1zm0 0" fill="rgb(60%,20.784314%,6.666667%)"/><path d="M71 85l6.934 4.395C80 91 80 91 81 94l3 1v10l-1-2-1.801-.859C76.871 99.898 73.852 95.879 71 92c-1.062-3.5-1.062-3.5-1-6zm0 0" fill="rgb(17.254902%,8.235294%,0.784314%)"/><path d="M56 166c-2.996.996-4.172 1.008-7.187.563L45 166v-2c-3.117.645-3.117.645-4 3-2.066.414-2.066.414-4.562.625l-2.504.227L32 168l-2-5c9.668-4.934 16.582-1.191 26 3zm0 0" fill="rgb(16.862745%,19.607843%,20.392157%)"/><path d="M23 175l2 1-1 2 3 1-1 2-5-1v4l2 1h-5l6 3c-1.687 1.125-1.687 1.125-4 2-4.035-1.035-7.066-3.066-10-6-.312-2.75-.312-2.75 0-5l1.875 1c2.035 1.141 2.035 1.141 4.125 1v-2c5.273-3.223 5.273-3.223 7-4zm0 0" fill="rgb(12.54902%,13.333333%,12.156863%)"/><path d="M81 65c2.375.188 2.375.188 5 1l2 5c2.039.887 2.039.887 4 1h-3v3l-3.25-.062c-3.527-.102-3.527-.102-5.937.688-2.484.516-3.695-.34-5.812-1.625.313-1.937.313-1.937 1-4l3-1c1.688-1.996 1.688-1.996 3-4zm0 0" fill="rgb(82.745098%,77.254902%,67.843137%)"/><path d="M160 36l2 2h-2v5h3v-2h5l-1 5h-3l1 4-5-2v6l-1.812-2.375c-2.098-2.77-2.098-2.77-5.187-4.625-.187-2.625-.187-2.625 0-5l4-1 .375-1.937L158 37zm0 0" fill="rgb(55.686275%,56.470588%,57.254902%)"/><path d="M67 26c5.223.328 9.379 3.391 13 7v5H69v3h-2c-.234-4.82.547-8.465 2-13zm0 0" fill="rgb(38.823529%,18.039216%,8.627451%)"/><path d="M168 7c2 3 2 3 2 6l2 1h-4v-3l-7.52.586c-2.723.281-2.723.281-5.48 2.414l-.875 1.938C152.629 18.68 150.719 19.566 148 21l-2-3-3 2 1-5h2l1-3 3 1 4.816-2.098C159.063 9.148 163.559 8.133 168 7zm0 0" fill="rgb(8.235294%,11.764706%,13.333333%)"/><path d="M162 128l5 1 1 2c2.082.836 2.082.836 4.5 1.5l4.5 1.5 1 2-9-3-1 8c-5.277-.539-9.301-1.648-14-4l-1-2 10 2v-2l-5-1v-2l8 1zm0 0" fill="rgb(33.333333%,33.72549%,33.333333%)"/><path d="M110 152c5.961-.531 9.363.129 14.297 3.574 2.316 1.938 3.641 3.59 4.703 6.426-.312 2.813-.312 2.813-1 5l-3 1-1 3c-1.062-1.812-1.062-1.812-2-4l1-3h3c-.691-3.148-.691-3.148-3.285-4.387l-2.777-1.301-2.785-1.324L115 156v-2h-6zm0 0" fill="rgb(63.137255%,34.117647%,18.039216%)"/><path d="M113 37l8 1v1h-5l-1 2h2c1.289 1.531 1.289 1.531 2.625 3.5l1.352 1.969L122 48h-4l.125 2.375C118 53 118 53 116 55l-4-1zm0 0" fill="rgb(89.019608%,64.313725%,38.823529%)"/><path d="M139 71l1 4 4-1v2h2v2l1.625.625c3.379 1.953 5.68 4.559 8.375 7.375l-1 2c-5.875-4.75-5.875-4.75-7-7h-5l3 2c-2.047 2.047-6.305 1.699-9 2 .965-9.41.965-9.41 2-14zm0 0" fill="rgb(44.313725%,45.098039%,46.666667%)"/><path d="M98 45l1 2h2v3h2l1 7c-1 1-1 1-3.941 1.098l-3.621-.035-3.629-.027L90 58v-3l4-1 .375-1.937L95 50l2-1c.652-2.023.652-2.023 1-4zm0 0" fill="rgb(76.862745%,45.098039%,24.313725%)"/><path d="M54 99c1.711 3.418-.043 7.063-.937 10.625l-.59 2.43L51 118l-2.312-1c-2.676-1.176-2.676-1.176-5.687-1l-.312-2.25c-.508-2.809-.508-2.809-2.309-4.875L39 107l1-3 1.75 2.5L44 109h4c1.809-2.203 1.809-2.203 3.25-5l1.578-2.812zm0 0" fill="rgb(21.568627%,24.313725%,23.137255%)"/><path d="M142 80c2.813-.312 2.813-.312 6 0 1.875 2.5 1.875 2.5 3 5h-9l1 8 1-4h2v8h-2l-1 2-1.207-1.934-1.605-2.504-1.582-2.496C137.09 89.723 137.09 89.723 134 89v-2c3.875-1 3.875-1 5-1l-1-2 7-1zm0 0" fill="rgb(29.803922%,30.588235%,31.372549%)"/><path d="M93 107c2.18 3.27 3.496 6.383 5 10 6.086.535 8.68-.051 13.391-3.887 2.227-1.539 3.98-1.512 6.609-1.113-5.102 6.52-5.102 6.52-9 8-4.859.559-9.453.566-14.062-1.125-2.473-2.391-3.129-4.57-3.937-7.875h2zm0 0" fill="rgb(29.411765%,19.607843%,13.333333%)"/><path d="M69 73h2v3c2.332 1.207 4.496 2.164 7 3l-1 2h-4v4l-2.437 1.5C66.457 90.504 67.094 95.484 67 101l-5-1 2-3c.328-2.285.438-4.539.559-6.844C65 88 65 88 66.492 86.605c2.25-2.398 2.023-4.57 2.195-7.793l.199-3.293zm0 0" fill="rgb(37.647059%,23.529412%,15.294118%)"/><path d="M95 158h5l-4 1v6h2v3h-2l-1 3-2 1c.641 2.477.641 2.477 2 5 2.523 1.359 2.523 1.359 5 2v1c-3.211.219-5.352.359-8.203-1.223C90 177 90 177 89.688 174.836c.785-6.191 2.434-11.297 5.313-16.836zm0 0" fill="rgb(73.72549%,38.431373%,18.431373%)"/><path d="M71 150v3l3 1-6 4c-2.133-1.066-3.367-2.293-5-4l-3 1-5-1c1-3 1-3 3.063-4.187C62.25 148.656 66.996 148 71 150zm0 0" fill="rgb(73.72549%,70.980392%,67.843137%)"/><path d="M0 188h10v3l4 1c-1 2-1 2-3.941 3.07l-3.621 1.055-3.629 1.07L0 198zm0 0" fill="rgb(47.058824%,36.078431%,32.156863%)"/><path d="M117 72l4 2v5h-4l-2 1v3c-2.953-1.371-5.441-2.988-8-5 .313-1.937.313-1.937 1-4 2.938-.98 4.953-1 8-1zm0 0" fill="rgb(6.666667%,9.411765%,8.235294%)"/><path d="M200 166v5l-2.937.813L194 173l-1 3-5 1v-2l-2-1.437-2-1.562v-3l9.863-2.344C197 166 197 166 200 166zm0 0" fill="rgb(63.529412%,62.352941%,60.392157%)"/><path d="M82 149l8.398 2.246C93 152 93 152 95 153v2l-3.75 3.188c-3.883 3.277-6.023 6.273-8.25 10.813l-3-2 6-8-1-1a146.3 146.3 0 0 1 0-6l-3-1zm0 0" fill="rgb(28.627451%,28.235294%,27.45098%)"/><path d="M77 132c6.188 1.645 11.68 3.379 17 7l1 3c1.969 1.383 3.969 2.715 6 4l2 2-1 3-1.625-2.312c-2.578-2.914-4.832-4.156-8.375-5.687v-2l-1.906-.551C84.629 138.844 79.309 137.063 74 135zm0 0" fill="rgb(13.72549%,14.901961%,13.333333%)"/><path d="M13 185l5 4c3.211.336 3.211.336 6 0-6.352 4.234-6.352 4.234-10.187 3.688C12 192 12 192 10 191v-3H0v-3c4.461-1.324 8.492-1.086 13 0zm0 0" fill="rgb(74.509804%,52.54902%,39.215686%)"/><path d="M165 173c-2.566 2.566-4.477 2.539-8 3-.598 2.762-1 5.16-1 8-2.605.945-4.309 1.301-6.891.176L144 181c1.25-1.562 1.25-1.562 3-3 2.188.313 2.188.313 4 1v-2l-2-1 8.105-2.344c2.75-.625 5.09-.777 7.895-.656zm0 0" fill="rgb(76.078431%,75.686275%,73.72549%)"/><path d="M17 170l20 2v1l-3.875.188c-4.973.52-8.719 2.355-13.059 4.754C18 179 18 179 16 179v2l-3 1c-1.5-1.375-1.5-1.375-3-3v-2l10-2zm0 0" fill="rgb(8.627451%,7.843137%,5.098039%)"/><path d="M100 58c1 3 1 3 0 6H84c.676-2.441 1.488-3.711 3.703-4.969C92.145 57.199 95.242 56.691 100 58zm0 0" fill="rgb(31.764706%,18.039216%,10.196078%)"/><path d="M94 41l5 2-2 7h-2l-1 3-5-2 1-2h2l-1-6-3.312 1.5C84 46 84 46 81 46c4.703-3.836 6.848-5.363 13-5zm0 0" fill="rgb(77.647059%,45.098039%,23.137255%)"/><path d="M200 177v10c-4.234-1.312-8.074-2.945-12-5v-3l5.859-1.562C196 177 196 177 200 177zm0 0" fill="rgb(11.372549%,14.901961%,17.254902%)"/><path d="M164 193c4.109 1.449 7.469 3.453 11 6v1h-25v-1c9.41-3.445 9.41-3.445 14-3zm0 0" fill="rgb(24.313725%,9.411765%,2.745098%)"/><path d="M55 184c9.172.352 9.172.352 12.625 3.063L69 189c-2.68 2.68-4.391 2.387-8.125 2.625l-3.32.227L55 192zm0 0" fill="rgb(83.921569%,41.960784%,17.254902%)"/><path d="M154 60c1.5 1.125 1.5 1.125 3 3 .645 4.832-.582 7.844-3 12-1 1-1 1-3.562 1.063L148 76l3-1c.043-1.664.039-3.336 0-5l-1-1c-.039-1.664-.043-3.336 0-5l-3-1c3.012-.934 3.867-1.043 7 0zm0 0" fill="rgb(51.372549%,52.941176%,54.901961%)"/><path d="M23 193c1 3 1 3 1 4l2 1-1 2H5c2.648-1.766 4.941-2.891 7.875-4.062l2.555-1.035c2.516-.883 4.949-1.445 7.57-1.902zm0 0" fill="rgb(8.627451%,4.313725%,0.784314%)"/><path d="M97 159l5 1v2h2v2l4 1v5l-4 1v2c-1.937-.375-1.937-.375-4-1l-1-2 3-2 1-1-6-3zm0 0" fill="rgb(86.666667%,58.039216%,32.54902%)"/><path d="M128 58h4l.313 1.875c.563 2.488.563 2.488 3.688 4.125v2h-3v2l-4 1-1 7h-1l-.375-3.375c-.27-3.656-.27-3.656-2.625-5.625h2zm0 0" fill="rgb(82.352941%,76.862745%,68.627451%)"/><path d="M166 12h2v2h5l-2 4-1-2h-5l1 6c-2.762-.523-5.324-1.109-8-2v-7l8 1zm0 0" fill="rgb(37.647059%,39.607843%,41.960784%)"/><path d="M118.75 167.125c3.363 1.309 5.633 3.43 8.25 5.875l1 3c-6.621-.309-11.223-1.742-17-5 5.285-4.051 5.285-4.051 7.75-3.875zm0 0" fill="rgb(86.27451%,83.529412%,77.254902%)"/><path d="M81 156c1.563 2.48 2.059 3.609 1.625 6.563L82 165v5h-5l-.25-1.875c-.562-2.309-.562-2.309-2.812-3.375L72 164l7-2h-6c4.613-6 4.613-6 8-6zm0 0" fill="rgb(33.72549%,32.941176%,31.764706%)"/><path d="M124 85v2h-2l-1 3c-3.363 2.242-4.621 2.27-8.562 2.25l-2.941.016C107 92 107 92 105 90l7.324-3.027C116.367 85.504 119.688 85 124 85zm0 0" fill="rgb(5.882353%,7.45098%,3.921569%)"/><path d="M68 70l4 1 1 4c3.703.074 7.145-.02 10.813-.562C87 74 87 74 89 75v5l-2-2c-3.328-.141-6.605.008-9.934.125C74 78 74 78 71 76v-3h-2v12l-2-1zm0 0" fill="rgb(52.156863%,34.509804%,23.137255%)"/><path d="M179 7c2.375.688 2.375.688 5 2 1.313 2.625 1.313 2.625 2 5l-2 2c-.023 2.223-.023 2.223.375 4.625l.336 2.477L185 25c-2.793-2.555-3.488-4.223-4-8l-7 1-1-4 1-1 2.938.125L180 13l2-3-3-1zm0 0" fill="rgb(16.078431%,18.431373%,21.176471%)"/><path d="M32.5 172.875l2.406-.008C37 173 37 173 39 174l-1 3v-2h-2l-2 5h-7v-2h-3c2.07-4.586 3.555-5.141 8.5-5.125zm0 0" fill="rgb(34.117647%,29.411765%,25.098039%)"/><path d="M155 96h2c.688 2.813.688 2.813 1 6l-3 3c-1 2.488-1 2.488-1.687 5.188l-.762 2.73L152 115h-8l1-6 4 1v2h3l-.621-2.137c-.461-3.488.266-5.426 1.559-8.676l1.152-2.957zm0 0" fill="rgb(7.843137%,11.764706%,11.764706%)"/><path d="M118 179l3.5.938c2.918.887 5.695 1.871 8.5 3.063l1-2v5l-8.203-1.367A23.07 23.07 0 0 1 116 182v-2l-2 1-7.125.063-3.883-.027L100 181v-1l9.668-1.66c3.164-.324 5.293-.156 8.332.66zm0 0" fill="rgb(60%,51.372549%,45.098039%)"/><path d="M33.625 138.938l3.039.027L39 139c-2.051 2.246-3.008 3.004-6 4l2 2c-6.625 2.875-6.625 2.875-10 4l2-6c-3.043 0-5.996.555-9 1v-2l6.055-1.465c5.961-1.641 5.961-1.641 9.57-1.598zm0 0" fill="rgb(26.27451%,27.843137%,28.627451%)"/><path d="M169 42h5c-.434 2.523-.711 3.73-2.625 5.5L170 49l.563 1.938L171 53c-1.937 2.25-1.937 2.25-4 4l-2.344-5.957C164 49 164 49 164 46l1.938-.875c2.215-.953 2.215-.953 3.063-3.125zm0 0" fill="rgb(18.823529%,20.784314%,23.921569%)"/><path d="M200 171v6l-9.082 2.344C188 180 188 180 185 180l-3-2 11-2v-2l-2-2c3.074-.91 5.801-1.09 9-1zm0 0" fill="rgb(58.039216%,55.686275%,54.509804%)"/><path d="M135 129l1 2h2v-2l2 1c-3.418 4.953-7.445 7.684-13 10-2.375-.312-2.375-.312-4-1v-2c3.52-3.254 7.152-5.559 12-6zm0 0" fill="rgb(6.666667%,9.411765%,9.019608%)"/><path d="M68 57l-1 23h-2c-.812-2.852-1.117-5.367-1.098-8.328l.008-2.422.027-2.5.012-2.547L64 58c3-1 3-1 4-1zm0 0" fill="rgb(97.647059%,86.27451%,65.490196%)"/><path d="M22 192l1 2-2.668.805-3.52 1.07-3.48 1.055-6.082 2.195c-2.555.992-4.535 1.031-7.25.875l1-3c2.414-1.055 4.688-1.902 7.188-2.687l2.004-.68C14.242 192.316 17.75 191.754 22 192zm0 0" fill="rgb(13.72549%,8.235294%,3.529412%)"/><path d="M117 70v3c-1 1-1 1-4.379 1.098l-4.184-.035-2.156-.012L101 74l-1 5-2-1v-5c6.344-2.801 12.176-3.117 19-3zm0 0" fill="rgb(96.470588%,81.960784%,60.784314%)"/><path d="M182 16c1.098 4.32 2.18 8.617 3 13l-3 1v-2l-3-1 2-2-2-1.375L177 22v-2l-3-1c2.641-1.762 4.777-3 8-3zm0 0" fill="rgb(42.352941%,42.745098%,45.490196%)"/><path d="M186 180v2l-8.812 2.125-2.523.629-2.434.566-2.238.539C168 186 168 186 165 184l8-2v-2c8.43-2.57 8.43-2.57 13 0zm0 0" fill="rgb(62.352941%,60.784314%,58.823529%)"/><path d="M95 153l5 1v2c-1.391 1.148-1.391 1.148-3.25 2.375-2.23 1.516-3.98 2.863-5.875 4.813-2.141 2.07-4.07 2.879-6.875 3.813 1.418-5.195 4.922-8.66 9-12h2zm0 0" fill="rgb(10.588235%,6.666667%,3.529412%)"/><path d="M43 152l3 1v4l3.375.875C53 159 53 159 55 161c1.969.672 1.969.672 4.125 1.125L63 163v1c-5.598.289-9.77-.625-14.937-2.5l-2.07-.723L41 159l2-3zm0 0" fill="rgb(17.254902%,19.607843%,19.607843%)"/><path d="M10 178v6l2 1H0v-6c3.434-.625 6.492-1 10-1zm0 0" fill="rgb(77.647059%,40.392157%,17.647059%)"/><path d="M151 46c3.313 1.164 5.891 2.113 8 5v4h-9v-8zm0 0" fill="rgb(31.372549%,33.333333%,35.294118%)"/><path d="M10 67h6v2c1.457 1.625 1.457 1.625 3 3l-2.375.625c-2.934 1.184-2.934 1.184-3.937 4.5L12 80l-2-1zm0 0" fill="rgb(26.27451%,24.705882%,23.921569%)"/><path d="M104 58l6.055-.293L112 58l2 3-3.875.938c-2.227.539-4.07 1.035-6.125 2.063l-2 5-3-1v-3h-7v-1c7.75-.125 7.75-.125 10 1zm0 0" fill="rgb(80%,52.54902%,30.588235%)"/><path d="M137 49c2.508 1.652 3.609 2.406 5 5 .254 4.418-.105 8.668-1 13l-2 2V56l-5-1c-2.312-1.562-2.312-1.562-4-3h7zm0 0" fill="rgb(80.784314%,65.490196%,49.019608%)"/><path d="M177 127l2 9-9.277-3.613C167 131 167 131 166 128l6.836-.781zm0 0" fill="rgb(3.137255%,7.058824%,7.058824%)"/><path d="M159 107c3.906 1.953 5.477 3.391 8.25 6.625l2.141 2.477L171 118c-4.191 0-7.918-1.055-12-2zm0 0" fill="rgb(90.196078%,90.196078%,89.803922%)"/><path d="M132 60h6c.125 7.75.125 7.75-1 10l-3.437.375L130 71c-1.512 1.938-1.512 1.938-2 4v-6l5-1v-2h3l-2-1.875C132 62 132 62 132 60zm0 0" fill="rgb(71.764706%,66.27451%,59.215686%)"/><path d="M167 19l5 1 2 8h-2l1 4h-2v-2h-3v3l-3-1h2v-3h2v-5h-2zm0 0" fill="rgb(61.568627%,61.568627%,61.960784%)"/><path d="M67 186l5 2v2h2v2l-8.789 1.563c-3.117.426-6.07.512-9.211.438l-1-2 12-2zm0 0" fill="rgb(74.117647%,30.980392%,10.980392%)"/><path d="M36.563 150.813l2.379.02C41 151 41 151 43 152l1 5-2 1 2.336 1.023 3.039 1.352 3.023 1.336C53 163 53 163 55 165c-6.004-.648-11.402-2.859-17-5l4-7H29c3.156-2.105 3.953-2.254 7.563-2.187zm0 0" fill="rgb(7.45098%,11.372549%,11.372549%)"/><path d="M149 30c1.41 2.816.508 4.172-.437 7.125l-.871 2.758L147 42l3 1-2 4v-2h-2v-2h-2l.188-2.375L144 38l-3-2 1-3 2.375.188L147 33zm0 0" fill="rgb(25.490196%,27.45098%,29.019608%)"/><path d="M52 162l1.707.473c2.348.539 4.586.797 6.988.992l2.668.234 5.547.461 2.66.242 2.43.203C76 165 76 165 78 167l-1 2-1.766-.367c-5.871-1.199-11.73-2.176-17.668-2.973-2.766-.711-3.805-1.469-5.566-3.66zm0 0" fill="rgb(21.176471%,22.745098%,23.137255%)"/><path d="M48.313 144.875l3.238.055L54 145v3l-21 2c4.957-4.039 8.93-5.266 15.313-5.125zm0 0" fill="rgb(68.235294%,67.45098%,67.058824%)"/><path d="M51 100c1 3 1 3 .223 4.824L48 110c-2.781-.375-4.59-.672-6.812-2.437C40 106 40 106 40 104c1.875-.625 1.875-.625 4-1l2 2zm0 0" fill="rgb(79.215686%,77.647059%,75.686275%)"/><path d="M121 75l.313 1.938L122 79l3 1c.918 5.387 1.109 10.543 1 16l-6-1 2-8h2l-1-7h-2zm0 0" fill="rgb(53.333333%,43.529412%,37.647059%)"/><path d="M172 36l2 2c-.375 2.625-.375 2.625-1 5l-4-1-1 2v-3h-5v2h-3v-5h12zm0 0" fill="rgb(37.647059%,38.039216%,40.392157%)"/><path d="M168 139l7 3v2c-7.625 1-7.625 1-11 1l-1-2-1 1c-1.664.039-3.336.043-5 0l1-2h3v-2l7 1zm0 0" fill="rgb(11.372549%,13.72549%,13.333333%)"/><path d="M68 88c3 1 3 1 4.25 2.625 1.051 3.328.398 5.996-.25 9.375l-1-2-4 2-.098-8.496C67 89 67 89 68 88zm0 0" fill="rgb(5.490196%,11.372549%,10.196078%)"/><path d="M106 75c2 3 2 3 1.625 5.688L107 83c-5.355 1.625-9.461 2.77-14.625.125L89 81c3.395-1.094 6.105-.918 9.625-.5 3.828.598 3.828.598 7.375-.5zm0 0" fill="rgb(70.980392%,66.27451%,59.607843%)"/><path d="M62 73c.879 2.879 1.07 3.789.063 6.75C60 82 60 82 58.016 82.316c-2.008-.004-4.012-.152-6.016-.316v-3c2.188-1.605 2.188-1.605 5-3.187l2.813-1.605zm0 0" fill="rgb(4.705882%,7.843137%,6.666667%)"/><path d="M100 183l2.105.496c3.129.543 6.031.602 9.207.566l3.238-.027L117 184l-1 3-7 1 9 1v1c-7.246.414-13.168-.559-20-3 3.75-1.125 3.75-1.125 6 0-.961-2.332-.961-2.332-4-4zm0 0" fill="rgb(20.784314%,10.588235%,6.666667%)"/><path d="M45 177l1 2c2.527.656 2.527.656 5 1v2l2 2-9 3c-1-4.75-1-4.75-1-7h2zm0 0" fill="rgb(10.980392%,11.764706%,9.803922%)"/><path d="M143 55l3 1c.688 2.063.688 2.063 1 4l-3 1 .75 2.75L145 67l-4 4V56zm0 0" fill="rgb(15.294118%,17.254902%,18.431373%)"/><path d="M64 30h1l.184 2.957.254 3.855.246 3.832c.188 3.348.188 3.348 1.316 6.355l.125 4 .008 2.063C67 55 67 55 66 58h-2l.035-2.52.027-3.293.035-3.27c.039-2.984.039-2.984-1.098-5.918l-.125-5.562-.008-2.941C63 32 63 32 64 30zm0 0" fill="rgb(66.27451%,49.019608%,34.117647%)"/><path d="M127 32l.586 6.055c.277 2.172.277 2.172 2.414 3.945-5.383.359-5.383.359-7.937-1.125C121 39 121 39 121.188 35.875L122 33c2-1 2-1 5-1zm0 0" fill="rgb(27.058824%,14.117647%,7.45098%)"/><path d="M186 181h1v19h-1v-6l-6 1-1-5 7-1zm0 0" fill="rgb(35.294118%,34.901961%,35.686275%)"/><path d="M156 122l1 2h13l1 2h-11l1 4h-7l.5-1.812c.609-2.301.609-2.301.5-5.187zm0 0" class="D"/><path d="M71 85l6.934 4.395C80 91 80 91 81 94l3 1-2 1-5-3-2 3c-2.777-2.328-3.902-3.621-4.812-7.187L70 86zm0 0" fill="rgb(18.039216%,9.411765%,2.745098%)"/><path d="M112 31v1l-5 1v1H86c5.406-5.406 18.824-3.102 26-3zm0 0" fill="rgb(90.980392%,67.843137%,41.960784%)"/><path d="M33 180v2h2v2h-3v-2h-3v3c-5.75.125-5.75.125-8-1v-4c4.086-1.531 7.797-.633 12 0zm0 0" fill="rgb(32.54902%,28.627451%,26.27451%)"/><path d="M111.25 153.875L115 154l1 2c2.34 1.133 2.34 1.133 5.063 2.125l2.785 1.07L126 160v1l-6.738-.586C117 160 117 160 114 158l-5.687-1.125-3.012-.508L103 156c2.898-1.66 4.914-2.234 8.25-2.125zm0 0" fill="rgb(71.372549%,45.882353%,28.235294%)"/><path d="M79 69v5l3-2h5l1-3v2l4 1h-3v3l-3.25-.062c-3.527-.102-3.527-.102-5.937.688-2.484.516-3.695-.34-5.812-1.625.313-1.937.313-1.937 1-4 3-1 3-1 4-1zm0 0" fill="rgb(76.078431%,68.627451%,58.823529%)"/><path d="M147 37l1 4 5 1v4l-2 1c-.465 1.895-.465 1.895-.625 4.063L150 55c-3 0-3 0-6-2h5l-2-3v-3h2v-4l-2-1zm0 0" fill="rgb(40%,41.568627%,43.529412%)"/><path d="M24 124h10l-3 4v4h-2v3c-2 2-2 2-4 3v-2h-2v-2h4l-1-3 2-6zm0 0" fill="rgb(19.215686%,21.176471%,22.352941%)"/><path d="M54 96l1 2-3 4h-2l-5 4-1-2c-2.023-.652-2.023-.652-4-1 6.754-5.449 6.754-5.449 12-5zm0 0" fill="rgb(73.72549%,73.333333%,71.372549%)"/><path d="M104 44l.402 1.828.535 2.422.527 2.391 1.184 4.566L107 57l-3 3-2 5h-2v-7l3-1v-7h-2l-1-4c3-2 3-2 4-2zm0 0" fill="rgb(65.098039%,29.803922%,11.372549%)"/><path d="M159 27l7 1 1 4-1.937.375L163 33l-1 2-4-1v-6zm0 0" fill="rgb(78.823529%,79.215686%,79.215686%)"/><path d="M101 157l6.738.586C110 158 110 158 113 160v4l-7.617-2.246C103 161 103 161 101 160zm0 0" fill="rgb(85.098039%,76.862745%,64.705882%)"/><path d="M162 142l3 3-1.937 2.813c-2.148 3.031-2.148 3.031-3.062 6.188l-4-1v-2l-2-1c4.625-4.875 4.625-4.875 8-6zm0 0" fill="rgb(35.294118%,27.058824%,22.352941%)"/><path d="M67 106c5.414-.367 5.414-.367 8.375 1.5L77 109l-1 2h2c-.312 2.375-.312 2.375-1 5l-3 2 2-5h-3c-1.5-1.312-1.5-1.312-3-3l-1.687-1.625C67 107 67 107 67 106zm0 0" fill="rgb(21.960784%,23.137255%,22.745098%)"/><path d="M69 98h2l-2 4 4 2v2l-3.25.438L62 108l3-4-4-2v-1l3.438-.937c3.352-.691 3.352-.691 4.563-2.062zm0 0" fill="rgb(12.941176%,89.411765%,81.176471%)"/><path d="M87 62l2.063.938C92.371 64.133 95.516 64.59 99 65v6l4 1-5 1-1-5-2 1c-3.371-.914-5.508-1.508-8-4zm0 0" fill="rgb(92.156863%,74.901961%,53.72549%)"/><path d="M160 47c3 1.625 3 1.625 6 4 .375 3.25.375 3.25 0 6l-8-1c.484-3.121 1-5.996 2-9zm0 0" fill="rgb(78.431373%,78.431373%,79.215686%)"/><path d="M91 184l-1.937.75c-2.254 1.055-2.254 1.055-2.691 3.328L86 190c-11.523-.777-11.523-.777-17-3 4.52-1.457 7.516-.27 12 1v-2c3.645-2.43 5.711-2.16 10-2zm0 0" fill="rgb(28.627451%,9.803922%,1.568627%)"/><path d="M10 179c4.602 2.031 7.551 4.363 11 8l3 2c-2.5.875-2.5.875-6 1-3.09-1.551-5.773-3.344-8-6-.227-2.711-.227-2.711 0-5zm0 0" fill="rgb(36.078431%,16.470588%,7.843137%)"/><path d="M63 148c5.637-.227 9.945.473 15 3-.125 1.813-.125 1.813-1 4-3.062 1.75-3.062 1.75-6 3l2-4-2-1v-3l-8-1zm0 0" fill="rgb(56.470588%,53.72549%,50.588235%)"/><path d="M82 55h1v5h-4v2h-2l-1 3h-7v-3l7-1v-2l6-1zm0 0" fill="rgb(83.137255%,58.823529%,37.254902%)"/><path d="M163.125 22.75C165 24 165 24 167 26l-1 3-3.312-.687c-3.594-.715-3.594-.715-5.625 1.125L156 31c-1-2-1-2-.312-4.5C157 24 157 24 158.875 22.563 161 22 161 22 163.125 22.75zm0 0" fill="rgb(66.666667%,66.666667%,67.45098%)"/><path d="M142 16c1.238 3.578.875 6.344 0 10l-2 2c-2.125-.375-2.125-.375-4-1 .523-2.762 1.109-5.324 2-8h4zm0 0" fill="rgb(6.666667%,10.980392%,11.764706%)"/><path d="M199 5h1v15h-4l-1-9 4-2zm0 0" fill="rgb(21.960784%,23.137255%,25.098039%)"/><path d="M43 189c-16.723 5.711-16.723 5.711-23.5 3l-1.5-1c5.066-1.762 9.309-2.168 14.668-1.973 2.313.07 2.313.07 4.383-.586 2.301-.52 3.727-.156 5.949.559zm0 0" fill="rgb(27.843137%,20.784314%,17.647059%)"/><path d="M88 168h1l1 12 4.438.375c2.496.211 2.496.211 4.563.625l1 2c-7.914.609-7.914.609-11.562-1.437-2.109-3.762-1.934-7.336-1.434-11.562l1-2zm0 0" fill="rgb(27.45098%,16.078431%,9.803922%)"/><path d="M123 158l5 1 1 7-1.937.813c-2.395 1.074-2.395 1.074-3.062 4.188-1.062-1.812-1.062-1.812-2-4l1-3h3l-1-3-2-1zm0 0" fill="rgb(49.411765%,35.686275%,28.235294%)"/><path d="M153 142l2 1c-1.051 2.621-1.648 3.793-4.125 5.25L149 149v2c-5.75 1.125-5.75 1.125-8 0zm0 0" fill="rgb(7.843137%,10.196078%,10.980392%)"/><path d="M137 69c1.238 3.715.566 4.844-.812 8.438l-1.082 2.871L132 87l-3-1h2v-6h3l-1-3h2c-1.25-3.652-1.672-4.781-5-7zm0 0" fill="rgb(61.568627%,49.803922%,41.568627%)"/><path d="M110 63c6.75.75 6.75.75 9 3l2-1 2 2-2 3-3-1-6 1 1-3-3-2zm0 0" fill="rgb(98.039216%,86.27451%,64.313725%)"/><path d="M130 18c5.063 7.594 3.133 17.352 2 26-1.777-3.062-2.242-5.238-2.195-8.766l.02-2.695.051-2.789.027-2.836L130 20l-2-1zm0 0" fill="rgb(68.235294%,48.627451%,32.54902%)"/><path d="M67 24c5.281.453 8.957 3.23 12.875 6.625C81 32 81 32 81 34h3v2l-4-1v-2l-1.687-.75C76 31 76 31 73.5 28.938 71.172 27.133 69.855 26.422 67 26l-2 4c.875-4.875.875-4.875 2-6zm0 0" fill="rgb(86.27451%,67.843137%,45.490196%)"/><path d="M83 183l8.25-.125 2.355-.051c7.117-.062 7.117-.062 10.395 2.176v2l-8.398-.684C93 186 93 186 91 185c-4.652-.305-4.652-.305-9 1zm0 0" fill="rgb(14.509804%,6.27451%,1.568627%)"/><path d="M200 162v4c-3.879 1.191-6.914 2-11 2 .813-2.437.813-2.437 2-5 3.195-1.066 5.656-1.074 9-1zm0 0" fill="rgb(72.156863%,69.803922%,67.058824%)"/><path d="M145 143l3 1c-.293 2.816-.844 3.855-2.937 5.813-4.473 1.734-8.406.938-13.062.188v-3c3.832-.09 7.266.121 11 1zm0 0" fill="rgb(17.254902%,18.823529%,19.215686%)"/><path d="M142 74h2v2h2v2l1.625.625c3.379 1.953 5.68 4.559 8.375 7.375l-1 2c-5.875-4.75-5.875-4.75-7-7-2.125-.469-2.125-.469-4.562-.625l-2.504-.227L139 80l3-3zm0 0" fill="rgb(49.411765%,50.980392%,52.54902%)"/><path d="M168 43l-1 3h-3l1 4-5-2v6c-1.562-1.687-1.562-1.687-3-4 .313-2.75.313-2.75 1-5l6.055-1.562C166 43 166 43 168 43zm0 0" fill="rgb(64.705882%,64.705882%,65.490196%)"/><path d="M0 188h10l-1 4-9 1zm0 0" fill="rgb(69.411765%,45.882353%,34.117647%)"/><path d="M71 160l-2 2 6.836-.684c2.207-.207 2.207-.207 4.164-1.316-.734 1.949-.734 1.949-2 4-4.82 1.594-10.121 1.129-15 0v-2c4.391-3.203 4.391-3.203 8-2zm0 0" fill="rgb(30.196078%,30.196078%,30.196078%)"/><path d="M150 131l1 2h-5v8h-11c4-3 4-3 6.188-3.937 2.02-.922 2.02-.922 2.563-3.187L144 132zm0 0" fill="rgb(5.882353%,10.196078%,9.411765%)"/><path d="M42 128c2.863 1.281 5.023 2.531 7 5v3l-14-1v-1l6-1zm0 0" fill="rgb(16.862745%,19.607843%,19.215686%)"/><path d="M39 104c2.648 2.578 4.945 4.914 7 8 2.586.25 2.586.25 5 0v6l-2.312-1c-2.676-1.176-2.676-1.176-5.687-1l-.312-2.25c-.734-2.945-1.867-4.379-3.684-6.75v-3zm0 0" fill="rgb(14.901961%,17.647059%,18.039216%)"/><path d="M100 198v2H79v-1l10.254-1.66c3.801-.344 7.004-.027 10.746.66zm0 0" fill="rgb(49.019608%,15.686275%,5.098039%)"/><path d="M153 135l7.422.684c2.223.27 4.422.711 6.578 1.316l1 4c-5.277-.539-9.301-1.648-14-4zm0 0" fill="rgb(44.313725%,42.745098%,40.392157%)"/><path d="M86 107c3.75 1.25 4.223 2.926 6.023 6.281 1.555 2.734 3.184 4.32 5.977 5.719l5.125.563 2.758.254L108 120v1c-11.926.563-11.926.563-16-3-2.988-3.219-4.375-6.977-6-11zm0 0" fill="rgb(18.823529%,14.117647%,9.019608%)"/><path d="M120.125 54.875L123 55c0 4 0 4-1 6h-6c-.625-1.875-.625-1.875-1-4 2-2 2-2 5.125-2.125zm0 0" fill="rgb(8.627451%,8.235294%,5.490196%)"/><path d="M90 171l3 1 .875 2.438c.902 2.801.902 2.801 3.75 3.875L100 179v1c-3.219.219-5.434.27-8.375-1.125C90 177 90 177 89.75 173.813zm0 0" fill="rgb(60%,40%,27.843137%)"/><path d="M113 172c3.574.613 6.656 1.613 10 3l6 2 1 6-1.191-1.941c-2.25-2.559-3.418-2.629-6.746-2.996-3.883-.617-4.793-.793-7.687-3.687zm0 0" fill="rgb(81.176471%,76.078431%,67.45098%)"/><path d="M17 170l20 2v1l-1.793.184c-5.016.52-5.016.52-9.957 1.504-2.98.414-4.641-.238-7.25-1.687zm0 0" fill="rgb(2.352941%,2.352941%,0.784314%)"/><path d="M200 166v5c-6.398 1.23-6.398 1.23-9.437.063L189 170c3.699-3.039 6.23-4 11-4zm0 0" fill="rgb(61.176471%,60%,57.647059%)"/><path d="M182 145l-1 5h-13c3.652-3.652 8.512-7.742 14-5zm0 0" fill="rgb(10.980392%,6.27451%,1.568627%)"/><path d="M24 113h1v6h9c-1 2-1 2-3.875 3L27 123l-3 2-3-1h2zm0 0" class="C"/><path d="M76 113c-1.172 3.336-2.187 5.773-5 8h-2l-2-7c3.195-1.066 5.656-1.074 9-1zm0 0" fill="rgb(5.098039%,6.27451%,5.490196%)"/><path d="M85 35h3c.688 2.313.688 2.313 1 5-1.125 1.563-1.125 1.563-3 3l-2.687 2.188L81 47l-2-1 5-7-1-2h2zm0 0" fill="rgb(67.058824%,30.588235%,12.156863%)"/><path d="M130 18l-2.312 1.75c-2.695 2.086-2.695 2.086-4.375 4.5L122 26h-2v2c-1.375 1.625-1.375 1.625-3 3h-2c1.328-3.887 2.934-6.391 5.813-9.312l2.02-2.113c2.605-1.891 4.023-1.898 7.168-1.574zm0 0" fill="rgb(90.196078%,80%,63.921569%)"/><path d="M72 170l6 3 1-2c2 4.75 2 4.75 2 7h2l-1 2c-2.914-1.074-4.777-1.777-7-4v-3h-2zm0 0" fill="rgb(32.156863%,24.313725%,20%)"/><path d="M39 162c-.687 2.438-.687 2.438-2 5-2.625.813-2.625.813-5 1l-2-5c2.957-1.477 5.742-1.059 9-1zm0 0" fill="rgb(23.921569%,25.098039%,24.705882%)"/><path d="M66 106l2 1v2l5 2v2l-5.957.879C65 114 65 114 62 113h2v-4zm0 0" fill="rgb(54.901961%,52.941176%,50.196078%)"/><path d="M28 91l2 1v2h2c1.188 2.75 1.188 2.75 2 6-1.25 2.375-1.25 2.375-3 4h-2l-3-6 1-2 3 3v-4l-4-2zm0 0" fill="rgb(16.470588%,18.039216%,17.254902%)"/><path d="M138 50h10l1 3-2 1c-.652 2.023-.652 2.023-1 4l-1-2-1.875-.312c-3.07-.992-3.699-2.91-5.125-5.687zm0 0" fill="rgb(25.882353%,27.058824%,29.019608%)"/><path d="M130 44c2.914 1.074 4.777 1.777 7 4v4h-8l-1-2 3-1zm0 0" fill="rgb(95.686275%,81.176471%,57.254902%)"/><path d="M78 151l3 1-4.492 6.055c-2.672 3.449-4.234 4.27-8.508 4.945.676-2.711 1.289-4.52 3.656-6.117l1.906-1.008c3.695-1.508 3.695-1.508 4.438-4.875zm0 0" fill="rgb(43.921569%,41.960784%,40.392157%)"/><path d="M138.75 126.688L142 127l1 4-5 3-2-1 3-1-1-1-7 1c2.383-3.812 3.137-4.93 7.75-5.312zm0 0" fill="rgb(16.862745%,16.862745%,16.078431%)"/><path d="M115.563 111.938L118 112c-3.734 5.664-3.734 5.664-7.336 6.621L104 119c1.203-2.41 2.164-2.805 4.5-4.062 5.453-2.961 5.453-2.961 7.063-3zm0 0" fill="rgb(35.294118%,23.137255%,16.862745%)"/><path d="M129 91h3c-1.375 4.402-3.801 7.504-6.66 11.035-1.375 2.02-1.91 3.578-2.34 5.965h-3c.629-3.418 1.953-5.668 3.938-8.5 1.926-2.762 3.629-5.449 5.063-8.5zm0 0" fill="rgb(50.588235%,34.901961%,26.666667%)"/><path d="M115 38l7 1c0 3 0 3-1 5l2 1v2l5 2-3 1c-2.043-1.363-2.043-1.363-4.187-3.312l-2.168-1.926C117 43 117 43 117 41h-2zm0 0" fill="rgb(96.470588%,80.392157%,54.117647%)"/><path d="M16 163c2 3 2 3 2 5h8v1l-7 1-1 3 3 1-1 2a56.11 56.11 0 0 1-7-4h3l-.562-3.937L15 164zm0 0" fill="rgb(14.117647%,6.666667%,1.568627%)"/><path d="M73.438 146.313l2.309.238c2.367.473 4.156 1.277 6.254 2.449v2c-6.047.289-10.707-1.152-16-4 3-1 4.379-1.031 7.438-.687zm0 0" fill="rgb(33.333333%,32.54902%,31.372549%)"/><path d="M66 86h3l-1 3-.562 6.188-.254 3.293L67 101l-5-1 2-3c.418-2.211.418-2.211.563-4.562.344-4.246.344-4.246 1.438-6.437zm0 0" fill="rgb(25.490196%,25.098039%,24.705882%)"/><path d="M109 81l2 3-5 3 2 2c-4.906.281-7.246.164-11-3l7.617-1.562C107 84 107 84 109 84zm0 0" fill="rgb(27.45098%,22.352941%,18.431373%)"/><path d="M130 53l8 3v4h-6v-2l-2-1zm0 0" fill="rgb(73.333333%,56.862745%,41.960784%)"/><path d="M91 43c.688 2.813.688 2.813 1 6-1.789 2.594-2.961 2.988-6 4l-1 2h-2c1.75-3.875 1.75-3.875 4-5 .652-2.023.652-2.023 1-4l-4-1c2.648-1.461 3.895-2 7-2zm0 0" fill="rgb(86.27451%,53.72549%,28.627451%)"/><path d="M182 28v2l3-1c-.75 2.438-.75 2.438-2 5-2.125.813-2.125.813-4 1l-.875-1.937c-.953-2.215-.953-2.215-3.125-3.062 4.75-2 4.75-2 7-2zm0 0" fill="rgb(20.392157%,21.568627%,23.137255%)"/><path d="M168 7c2 3 2 3 2 6l2 1h-4v-3l-7.617.684c-2.395.188-2.395.188-4.383 1.316l1-3c2.504-.949 2.504-.949 5.563-1.687l3.066-.762zm0 0" fill="rgb(12.156863%,15.294118%,17.647059%)"/><path d="M90 187h9v2l3 1c-2.883.961-4.699 1.105-7.687 1.063l-2.449-.027L90 191zm0 0" fill="rgb(68.627451%,25.098039%,8.627451%)"/><path d="M117 177l10 1 2 5-7.617-1.172C119 181 119 181 117 177zm0 0" fill="rgb(68.627451%,63.137255%,58.039216%)"/><path d="M157 121h2v2l2.344-.141c7.148-.25 11.551.383 17.656 4.141-3.383.977-5.566.859-9 0v-2l-13-1zm0 0" fill="rgb(30.980392%,32.54902%,32.941176%)"/><path d="M136 91c1 3 1 3 .063 5.188L135 98l-1-1-2 4-4-4 4-5 4 1zm0 0" fill="rgb(14.901961%,16.078431%,14.901961%)"/><path d="M86 63l4 4c2.641.797 2.641.797 5 1l-1 3c-2.812.313-2.812.313-6 0-1.625-2.375-1.625-2.375-3-5-2.066-1.328-2.066-1.328-4-2 2.25-.75 2.25-.75 5-1zm0 0" fill="rgb(75.294118%,49.019608%,29.803922%)"/><path d="M89.285 58.902l2.777.035 2.785.027L97 59l2 4h-2v-2l-7.52 1.465c-2.594.512-2.594.512-5.48 1.535 2.406-4.977 2.406-4.977 5.285-5.098zm0 0" fill="rgb(19.215686%,10.196078%,4.705882%)"/><path d="M80 53l-1 6h-2v-3l-3.875.625c-2.18.352-2.18.352-4.125.375l-2-2 3.375-.937c6.66-1.953 6.66-1.953 9.625-1.062zm0 0" fill="rgb(92.54902%,68.627451%,42.352941%)"/><path d="M80 113l2 2 2-1c-.375 2.781-.672 4.59-2.437 6.813C80 122 80 122 78 122l-2 1c.566-3.957 1.809-6.664 4-10zm0 0" fill="rgb(9.803922%,13.333333%,12.54902%)"/><path d="M138 93c3 1 3 1 4.438 2.625L144 97c2.164-.227 2.164-.227 4-1l-1 6h-5c-4-6.75-4-6.75-4-9zm0 0" fill="rgb(13.333333%,15.686275%,15.686275%)"/><path d="M46 86c3.688.496 5.605 1.102 8 4l-2 1v4h-5l.625-2.812c.742-3.34.742-3.34-1.625-6.187zm0 0" fill="rgb(34.117647%,32.156863%,31.372549%)"/><path d="M142 85h9l2 5h-5v-2h-5zm0 0" fill="rgb(1.568627%,3.921569%,3.529412%)"/><path d="M92 71h4v8h-5c-.125-5.75-.125-5.75 1-8zm0 0" fill="rgb(94.509804%,92.941176%,85.490196%)"/><path d="M54 194l-2.555 1.059-3.32 1.379-3.305 1.371L40 200h-7c3.566-1.906 7.27-3.297 11.063-4.687l3.723-1.387C51 193 51 193 54 194zm0 0" fill="rgb(6.27451%,3.529412%,1.568627%)"/><path d="M82 149l8.398 2.246C93 152 93 152 95 153v2l-4 2-.625-1.937c-1.27-2.41-1.27-2.41-4.5-2.812L83 152zm0 0" fill="rgb(18.823529%,19.215686%,18.431373%)"/><path d="M152 93l2 1 .195 6.738C154 103 154 103 152 106h-2l.684-7.52C151 96 151 96 152 93zm0 0" fill="rgb(49.019608%,46.666667%,45.098039%)"/><path d="M125 68l2 1 .195 9.961C127 82 127 82 125 84l-.375-1.937L124 80l-2-1v-3h3zm0 0" fill="rgb(88.235294%,87.058824%,82.745098%)"/><path d="M89 75v5l-2-2c-2.898-.242-2.898-.242-6.125-.125l-3.32.055L75 78v-2c5.164-1.793 8.512-2.121 14-1zm0 0" fill="rgb(59.607843%,50.196078%,41.960784%)"/><path d="M108 73v2h-2v5l-6-1 1-5c2.465-1.23 4.281-1.07 7-1zm0 0" fill="rgb(94.509804%,91.764706%,83.921569%)"/><path d="M96 51h5l1 6h-6c-1.125-3.75-1.125-3.75 0-6zm0 0" fill="rgb(87.45098%,76.078431%,61.960784%)"/><path d="M55 184l9 3c-2.359 2.098-3.547 2.969-6.75 3.188L55 190zm0 0" fill="rgb(89.803922%,50.196078%,21.176471%)"/><path d="M111 172l5 2v1l-2.375.375c-2.766.414-2.766.414-4.625 2.625h-7l1-5 2 2c2.07.645 2.07.645 4 1v-2h2zm0 0" fill="rgb(81.568627%,73.72549%,62.352941%)"/><path d="M26 143l1 3-1 2 4 2v1h-7v2h5v1h-6c.613-7.508.613-7.508 2.563-10zm0 0" fill="rgb(13.72549%,16.862745%,17.254902%)"/><path d="M186 164h6c-2.867 3.492-4.844 5.289-9.312 5.813L179 170c2.219-3.328 3.348-3.75 7-5zm0 0" fill="rgb(75.294118%,74.117647%,71.764706%)"/><path d="M26 125h2c.09 3.199-.09 5.926-1 9h-4v2l-3-1c1.449-3.387 3.418-5.418 6-8zm0 0" class="E"/><path d="M55 112h4v2l10-1c-3.266 3.266-7.41 3.934-11.937 4.125L55 117zm0 0" fill="rgb(75.686275%,73.72549%,71.372549%)"/><path d="M145 109l4 1v2l4-1-1 4h-8zm0 0" fill="rgb(17.254902%,17.647059%,16.470588%)"/><path d="M94 53c-2.879 2.879-6.184 3.727-10 5 .48-4.574.48-4.574 2.75-6.437 3-.75 4.539.082 7.25 1.438zm0 0" fill="rgb(70.196078%,37.254902%,18.039216%)"/><path d="M158 13l5 1-1 5 2 1-1 2-5-2zm0 0" fill="rgb(43.921569%,44.313725%,46.27451%)"/><path d="M19 196l-2 2-1 2H5c2.414-1.609 4.34-2.656 7-3.687l2.063-.824C16 195 16 195 19 196zm0 0" class="F"/><path d="M116 181l9.18.684C128 182 128 182 130 183l1-2v5l-8.203-1.367c-2.57-.582-4.52-1.34-6.797-2.633zm0 0" fill="rgb(50.196078%,43.921569%,40.392157%)"/><path d="M200 176a59.74 59.74 0 0 1-9 3.813l-2.562.895c-2.437.293-2.437.293-4.75-1.133L182 178c6.148-1.629 11.641-2.203 18-2zm0 0" fill="rgb(52.156863%,52.156863%,53.333333%)"/><path d="M66 167c5.508.59 10.648 1.566 16 3l-2 4-1-2h-4c-2.359-.875-2.359-.875-4.75-2l-2.422-1.125L66 168zm0 0" fill="rgb(6.666667%,8.235294%,7.843137%)"/><path d="M30 125h3c.125 7.625.125 7.625-1 11l-6 1 1-2h2v-3h2l-.5-1.812C30 128 30 128 30 125zm0 0" fill="rgb(42.352941%,42.352941%,42.745098%)"/><path d="M48 81l1 3h2v3l-10 1-1-2 2.313-.812C44.875 84.055 46.195 83.09 48 81zm0 0" fill="rgb(52.156863%,50.980392%,49.411765%)"/><path d="M128 75l2 3h-2v2h2l1 6-5-1 .684-6.934C127 76 127 76 128 75zm0 0" fill="rgb(55.294118%,45.098039%,39.215686%)"/><path d="M79 65l2 1c-2.625 3.875-2.625 3.875-6 5l-1 3 3 1h-4c-1.125-5.625-1.125-5.625 0-9l3 1zm0 0" fill="rgb(61.960784%,49.411765%,38.823529%)"/><path d="M69 65h10l-3 3c-2-1-2-1-3-2l-1 5-4-1zm0 0" fill="rgb(63.137255%,41.960784%,27.058824%)"/><path d="M142 44c1.938.688 1.938.688 4 2 .75 2.625.75 2.625 1 5l-7-1c.875-4.875.875-4.875 2-6zm0 0" fill="rgb(7.843137%,10.980392%,12.156863%)"/><path d="M98 39c1.938.75 1.938.75 4 2 .75 2.125.75 2.125 1 4l-4 2c-1.43-2.355-2.086-3.48-1.625-6.25zm0 0" fill="rgb(75.294118%,35.294118%,13.333333%)"/><path d="M78 34l5 2v2l2 1c-2 2-2 2-4.129 2.047l-2.434-.297-2.441-.266L74 40l-1-2h7zm0 0" fill="rgb(29.411765%,11.372549%,3.921569%)"/><path d="M82 162v8h-5l-.25-1.875c-.562-2.309-.562-2.309-2.812-3.375L72 164c3-1 3-1 5.563-.437L80 164zm0 0" fill="rgb(39.215686%,39.215686%,39.215686%)"/><path d="M35 141l-2 2 2 2c-6.625 2.875-6.625 2.875-10 4 1.742-6.168 3.391-8.355 10-8zm0 0" fill="rgb(38.823529%,39.607843%,40%)"/><path d="M126 88c3.957.566 6.664 1.809 10 4l-2 1c-2.625-.937-2.625-.937-5-2l-2 6h-1zm0 0" fill="rgb(49.803922%,28.627451%,18.431373%)"/><path d="M120 79l3 1 1 5-9 1zm0 0" fill="rgb(20%,17.647059%,14.901961%)"/><path d="M118 48c5.293-.504 7.813.813 12 4l-3 1v-2l-2.312-.437C122 50 122 50 119 49v2h3l-1 3-4-1zm0 0" fill="rgb(85.098039%,57.647059%,34.117647%)"/><path d="M107 36l3 1 1 13-2 1-1.562-8.203C107 40 107 40 107 36zm0 0" fill="rgb(78.823529%,41.568627%,17.254902%)"/><path d="M156 34l1 6-2 1v-2l-6 2c0-3 0-3 1.813-5.187C153 34 153 34 156 34zm0 0" fill="rgb(76.078431%,76.078431%,75.686275%)"/><path d="M119 29l1 3 2 1-1 5-6-3c.313-1.875.313-1.875 1-4zm0 0" fill="rgb(43.137255%,19.215686%,8.235294%)"/><path d="M148 23l8 1c-.75 2.438-.75 2.438-2 5-2.125.813-2.125.813-4 1v-3l-3-1zm0 0" fill="rgb(27.45098%,29.411765%,31.372549%)"/><path d="M125 184c2.449.395 4.641 1.215 7 2v3c-2.711 1.355-5.008 1.066-8 1l3-2-4-2zm0 0" fill="rgb(16.078431%,10.588235%,7.45098%)"/><path d="M52 181c6.305.367 11.332 1.164 17 4-3.973 1.563-6.812.359-10.75-.937l-3.547-1.152L52 182zm0 0" fill="rgb(45.098039%,16.078431%,2.745098%)"/><path d="M28 164c3 1 3 1 4 3l6 1v1l-16-1c4-3 4-3 6-4zm0 0" fill="rgb(9.411765%,11.372549%,10.980392%)"/><path d="M64 151c-1.687 2.063-1.687 2.063-4 4-2.75-.25-2.75-.25-5-1l1-3c3.289-1.098 4.715-.801 8 0zm0 0" fill="rgb(74.901961%,73.333333%,70.588235%)"/><path d="M66 130l3 1v2h3l3 3 5 2c-2.352.813-3.652 1.102-6.07.398-5.598-2.789-5.598-2.789-7.43-6.148zm0 0" fill="rgb(9.019608%,12.941176%,13.72549%)"/><path d="M23 99l.688 1.75c2.18 3.738 5.395 5.738 9.125 7.813L35 110v3l-8.398-6.055C24 105 24 105 22 103c.375-2.125.375-2.125 1-4zm0 0" fill="rgb(54.117647%,54.117647%,55.294118%)"/><path d="M158 91l3 11-4-1v-6h-2l-1-3c2-1 2-1 4-1zm0 0" fill="rgb(52.941176%,54.117647%,55.686275%)"/><path d="M33 88l3 1-4 2c.188 2.445.188 2.445 1 5 1.969 1.359 1.969 1.359 4 2l-4 1-1-5h-2l-1-3c1.813-1.562 1.813-1.562 4-3zm0 0" fill="rgb(50.196078%,50.196078%,51.372549%)"/><path d="M58 86c.25 2.313.25 2.313 0 5-2.043 1.977-3.117 3-6 3l1-7c3.875-1 3.875-1 5-1zm0 0" fill="rgb(54.901961%,50.980392%,47.058824%)"/><path d="M124 57l4 1-2 9-4-1 2-1zm0 0" fill="rgb(81.176471%,56.470588%,36.078431%)"/><path d="M112 48l5 1v5l-4 1c-1-1-1-1-1.062-4.062zm0 0" fill="rgb(90.196078%,81.176471%,67.45098%)"/><path d="M93 41l1 5h-3v-3l-3.312 1.5C84 46 84 46 81 46c4.348-3.547 6.367-5.148 12-5zm0 0" fill="rgb(83.529412%,47.058824%,21.960784%)"/><path d="M138 39l6 1v3h2v2h2l-2 4-1-3c-1.633-1.367-1.633-1.367-3.562-2.562L138 41zm0 0" fill="rgb(18.039216%,19.607843%,21.176471%)"/><path d="M113 37l8 1v1h-5l-1 2h2l3 5h-4c-2.566-3.301-3-4.73-3-9zm0 0" fill="rgb(94.509804%,71.764706%,42.745098%)"/><path d="M137 36l7 1 1 3-3.375-.125c-3.668-.285-3.668-.285-5.625 2.125v-5zm0 0" fill="rgb(9.019608%,12.54902%,13.333333%)"/><path d="M172.438 189.875L174 191c-1.625 1.563-1.625 1.563-4 3-3.187-.187-3.187-.187-6-1l-1-2c6.398-2.215 6.398-2.215 9.438-1.125zm0 0" fill="rgb(54.901961%,51.764706%,50.980392%)"/><path d="M12 185v2l-12 1v-3c4.086-1.531 7.797-.633 12 0zm0 0" fill="rgb(79.607843%,63.921569%,49.019608%)"/><path d="M54 152l2 2c2.941-.309 5.344-.672 8-2l1 5-6.738.195C56 157 56 157 53 155zm0 0" fill="rgb(63.921569%,62.352941%,60.784314%)"/><path d="M64 128l1 4h-2v2l3 1c-1.812.625-1.812.625-4 1l-3-2c.25-1.875.25-1.875 1-4 2.063-1.25 2.063-1.25 4-2zm0 0" fill="rgb(10.980392%,15.294118%,15.294118%)"/><path d="M125 84l8 3v2h5l-3 3-10-5zm0 0" fill="rgb(89.803922%,79.215686%,65.098039%)"/><path d="M98 67l1 13-3-1v-8l-2-1c2.875-3 2.875-3 4-3zm0 0" fill="rgb(95.686275%,84.313725%,65.098039%)"/><path d="M22 192l1 2c-4.789 1.629-8.055 2.207-13 1 4.215-2.812 7.031-3.109 12-3zm0 0" fill="rgb(19.607843%,10.196078%,5.490196%)"/><path d="M200 179c-.312 1.938-.312 1.938-1 4-3 1-3 1-6.187-.437L190 181v-1c3.434-.625 6.492-1 10-1zm0 0" fill="rgb(7.058824%,10.588235%,10.980392%)"/><path d="M51 154c8.57 3 8.57 3 12 6l-1 2-3-1v-2l-8-1zm0 0" fill="rgb(31.372549%,32.54902%,34.509804%)"/><path d="M70 150l1 3 3 1-6 4-2-1c.313-2.375.313-2.375 1-5zm0 0" fill="rgb(68.235294%,65.098039%,62.352941%)"/><path d="M119 149l5 1v2l2 2c-3.305 1.125-5.051.895-8.25-.437l-2.141-.871L114 152v-1l5-1zm0 0" fill="rgb(13.72549%,10.980392%,8.235294%)"/><path d="M33 125h9l-2 3v-2l-2 1 1 2h-4l-2 4zm0 0" fill="rgb(57.254902%,55.686275%,53.72549%)"/><path d="M11 104h1v6l7 1-2 3v-2l-3 1-2-1-1 2-2-2c.363-2.828 1.098-5.289 2-8zm0 0" fill="rgb(10.196078%,12.54902%,13.72549%)"/><path d="M47 88l2 1-2 6-6 1v-3l5-1zm0 0" fill="rgb(62.745098%,59.607843%,56.470588%)"/><path d="M145 71h2l-1 3 6 2-1 5-5-3v-2h-2zm0 0" fill="rgb(38.039216%,40.392157%,42.352941%)"/><path d="M97 49l3 1-4 1v6l-6 1v-3l4-1 .375-1.937L95 50zm0 0" fill="rgb(80%,49.803922%,27.843137%)"/><path d="M101 156c5.473-.215 9.609-.145 13.813 3.625L116 161l-2 4-.687-2.375c-1.078-2.77-1.078-2.77-3.562-3.875-2.902-.793-5.77-1.336-8.75-1.75zm0 0" fill="rgb(78.823529%,64.313725%,49.019608%)"/><path d="M53 107h1l1 11h-4c.875-7.625.875-7.625 2-11zm0 0" fill="rgb(58.823529%,59.215686%,57.647059%)"/><path d="M63 83l2 1-.5 1.563c-.629 2.617-.629 2.617-.437 6.063C64 95 64 95 62 97l-.437-1.875C61.066 92.969 61.066 92.969 60 91c.559-1.945.559-1.945 1.438-4.125l.871-2.195zm0 0" fill="rgb(42.352941%,41.568627%,40.392157%)"/><path d="M36 87l11 1-1 4-5-1v-2l-5-1zm0 0" fill="rgb(72.941176%,72.156863%,70.196078%)"/><path d="M62 78c1.262 3.777.48 5.035-.937 8.688l-1.152 3.012L59 92h-1c-.5-6.117.75-9.023 4-14zm0 0" fill="rgb(70.980392%,69.019608%,65.490196%)"/><path d="M154 67c1.188 1.688 1.188 1.688 2 4-1.062 2.75-1.062 2.75-3 5-2.687.313-2.687.313-5 0l3-1v-6h2zm0 0" fill="rgb(47.058824%,49.019608%,50.980392%)"/><path d="M67 190l1 2c-4.176 1.59-7.531 2.215-12 2l-1-2zm0 0" fill="rgb(76.470588%,34.509804%,14.117647%)"/><path d="M101 172v3l-6 2-1-4c3.625-2.125 3.625-2.125 7-1zm0 0" fill="rgb(75.686275%,51.372549%,33.72549%)"/><path d="M157 149c1 2 1 2 .5 4.5-1.5 2.5-1.5 2.5-5.125 3.813L149 158c1.582-4.273 4.508-6.266 8-9zm0 0" fill="rgb(6.666667%,6.666667%,5.490196%)"/><path d="M181 147l1 4h4l-1 4h-5zm0 0" fill="rgb(32.156863%,12.54902%,6.666667%)"/><path d="M159 107h1v8l3.25-.812L167 114c2.438 2.438 2.438 2.438 4 5l-2.062-.937c-3.305-1.195-6.453-1.652-9.937-2.062zm0 0" fill="rgb(72.54902%,72.54902%,72.156863%)"/><path d="M38 106l5 5v3c-3.875-.875-3.875-.875-5-2zm0 0" fill="rgb(40.392157%,40.784314%,41.960784%)"/><path d="M121 89v3c-5.645 2.441-10.977 2.191-17 2v-1l2.703-.367 3.547-.508 3.516-.492c2.816-.551 4.789-1.191 7.234-2.633zm0 0" fill="rgb(26.666667%,20.784314%,17.647059%)"/><path d="M76 40h7l-2 5h-3zm0 0" fill="rgb(16.862745%,7.843137%,1.960784%)"/><path d="M167 19l5 1v6h-2v-2h-3zm0 0" fill="rgb(67.058824%,67.058824%,67.45098%)"/><path d="M16 188l8 2-5.859 2.441c-2.492.652-3.754.477-6.141-.441l-2-2h6zm0 0" fill="rgb(63.529412%,49.803922%,41.568627%)"/><path d="M124 161l2 1v2h-3l-1 5-4-4c2.051-2.246 3.008-3.004 6-4zm0 0" fill="rgb(61.176471%,48.627451%,39.215686%)"/><path d="M200 157v5h-7c.75-1.937.75-1.937 2-4 1.754-.637 3.141-1 5-1zm0 0" fill="rgb(36.862745%,12.941176%,5.490196%)"/><path d="M163 101c-.812 2.938-.812 2.938-2 6l-3 1c-1.668 1.5-1.668 1.5-3 3 1.16-4.258 2.746-10 8-10zm0 0" fill="rgb(12.941176%,16.470588%,17.254902%)"/><path d="M68 88l3 1-1.367 7.715L69 99l-2 1-.098-8.496C67 89 67 89 68 88zm0 0" fill="rgb(15.294118%,16.470588%,16.078431%)"/><path d="M146 69l3 2 2-2c1 3 1 3 0 6h-6l2-4-2-1zm0 0" fill="rgb(27.058824%,29.803922%,31.764706%)"/><path d="M130 59c1.563 1.25 1.563 1.25 3 3-.312 2.188-.312 2.188-1 4h-4c.875-5.875.875-5.875 2-7zm0 0" fill="rgb(87.843137%,87.058824%,81.960784%)"/><path d="M152 47l4 1v4l-4 1c-1-3-1-3 0-6zm0 0" fill="rgb(18.431373%,20.392157%,22.352941%)"/><path d="M145 35h3l-1 7 3 1-2 4v-2h-2v-2h-2v-2h2zm0 0" fill="rgb(31.764706%,32.941176%,34.509804%)"/><path d="M177 7l5 3-2 4-4-1V8zm0 0" fill="rgb(6.27451%,9.803922%,10.980392%)"/><path d="M29 182h3l1 3-9.863 1.855L20 187l-3-3 12 1zm0 0" fill="rgb(7.843137%,9.019608%,8.235294%)"/><path d="M23 175l2 1-1 2 3 1-1 2h-6l1-5zm0 0" fill="rgb(21.568627%,20.392157%,20%)"/><path d="M29 174h3v4l3 1c-1 1-1 1-4.562 1.063L27 180l2-1zm0 0" fill="rgb(76.862745%,77.254902%,76.862745%)"/><path d="M145 158l2 1c-1.25 3.461-2.676 6.148-5 9l-3-1zm0 0" fill="rgb(33.72549%,29.411765%,25.882353%)"/><path d="M146 152c0 3 0 3-2.312 5.5L141 160l-1.687 1.813C138 163 138 163 136 163l1-3h2l.688-1.75c1.645-2.816 3.707-4.332 6.313-6.25zm0 0" fill="rgb(34.901961%,35.294118%,32.156863%)"/><path d="M88 98l4 2v7l-2 1zm0 0" fill="rgb(33.72549%,19.215686%,10.980392%)"/><path d="M119 93l4 1v5l-4 2 1-5-4-1h3zm0 0" fill="rgb(49.411765%,34.901961%,27.45098%)"/><path d="M122 88h3v8l-5-1zm0 0" fill="rgb(65.098039%,58.039216%,53.333333%)"/><path d="M126.5 54.938L128 57l-2.301-.324-3.012-.363-2.988-.387c-2.742-.195-2.742-.195-4.555 1.555L114 59c.875-3.875.875-3.875 2-5 7.285-1.555 7.285-1.555 10.5.938zm0 0" fill="rgb(45.098039%,21.960784%,10.588235%)"/><path d="M137 49c1.063 1.813 1.063 1.813 2 4l-1 3c-5.75-1.75-5.75-1.75-8-4h7zm0 0" fill="rgb(89.019608%,70.196078%,48.235294%)"/><path d="M122 33h4l-1 7-4-1zm0 0" fill="rgb(16.470588%,8.627451%,3.137255%)"/><path d="M99 31h13v1l-5 1v1h-8zm0 0" fill="rgb(88.627451%,64.705882%,39.607843%)"/><path d="M110 190c4.516-.078 8.59-.102 13 1-3.301 2.199-3.891 2.211-7.625 1.75l-2.414-.266L111 192zm0 0" fill="rgb(53.333333%,18.039216%,5.882353%)"/><path d="M149 176h3c.625 1.875.625 1.875 1 4l-2 2-7-1c1.25-1.562 1.25-1.562 3-3 2.188.313 2.188.313 4 1v-2zm0 0" fill="rgb(78.823529%,78.823529%,77.254902%)"/><path d="M117 168v4l5 2c-3 1-3 1-5.043.223l-2.145-1.16-2.168-1.152L111 171c3.75-3 3.75-3 6-3zm0 0" fill="rgb(88.235294%,82.745098%,72.156863%)"/><path d="M151 137l10 2v3l-4 1v-3l-2.437-.375L152 139zm0 0" fill="rgb(21.176471%,22.745098%,22.745098%)"/><path d="M87 84h8l.438 1.875c.496 2.156.496 2.156 1.563 4.125l-6-1v-3zm0 0" fill="rgb(31.372549%,22.352941%,16.862745%)"/><path d="M87 62c4.875 1.75 4.875 1.75 6 4l3 1-1 2c-5.75-1.75-5.75-1.75-8-4zm0 0" fill="rgb(86.666667%,67.058824%,44.313725%)"/><path d="M65 46l2 1c.125 7.625.125 7.625-1 11h-2zm0 0" fill="rgb(83.137255%,58.039216%,35.686275%)"/><path d="M105 30h10l1 2-1 3-4-1v-2l-6-1zm0 0" fill="rgb(69.411765%,42.352941%,21.960784%)"/><path d="M102 173c0 3 0 3-1 6h6v1c-6.625.25-6.625.25-10-2 1-3 1-3 3.063-4.187zm0 0" fill="rgb(74.117647%,58.823529%,45.098039%)"/><path d="M69 146c-3 2-3 2-6 1.75-3-.75-3-.75-6-2.75 4.52-1.457 7.516-.27 12 1zm0 0" fill="rgb(22.352941%,23.529412%,22.745098%)"/><path d="M171 118l3 2v2l3 1c-2 1-2 1-3.945.441l-2.18-.879-2.195-.871L167 121zm0 0" fill="rgb(20.784314%,22.745098%,23.921569%)"/><path d="M50 105c.98 3.055.98 4.945 0 8l-5-1-1-2 1.875-.25c2.309-.562 2.309-.562 3.375-2.812zm0 0" fill="rgb(30.196078%,30.196078%,29.803922%)"/><path d="M73 104l5 2 1 7-1-2h-2v-2l-3-2zm0 0" fill="rgb(9.803922%,12.54902%,11.764706%)"/><path d="M153 75h3l-2 7h-3c-.125-2.375-.125-2.375 0-5zm0 0" fill="rgb(34.117647%,36.470588%,38.823529%)"/><path d="M139 71l1 4 3 1v3l-5 1zm0 0" fill="rgb(55.294118%,53.72549%,52.941176%)"/><path d="M81 67h5v4h-6zm0 0" fill="rgb(89.019608%,87.058824%,80.392157%)"/><path d="M124 59c.688 1.813.688 1.813 1 4-1.437 1.75-1.437 1.75-3 3l-2-1v-2l-4-1h7zm0 0" fill="rgb(88.235294%,67.45098%,47.45098%)"/><path d="M78 47c0 3 0 3-2.25 5.75L73 55l-4-1zm0 0" fill="rgb(69.411765%,41.176471%,22.745098%)"/><path d="M169 42h5v2l-5 1v3l-4-1-1 2v-3l1.938-.875c2.215-.953 2.215-.953 3.063-3.125zm0 0" fill="rgb(25.490196%,26.666667%,28.627451%)"/><path d="M150 30l4 1-4 2 1 5h-2l-1 3c-.285-7.43-.285-7.43 2-11zm0 0" fill="rgb(60.392157%,60.392157%,61.176471%)"/><path d="M146 27h4c-.613 2.961-1.254 4.383-3 7h-2zm0 0" fill="rgb(14.901961%,17.647059%,18.823529%)"/><path d="M199 5l1 4zm-2 4l2 1-2 9 3 1h-4l-.977-6.836L195 11zm0 0" fill="rgb(16.862745%,18.431373%,20.392157%)"/><path d="M178 192v2h-3v2h-6l-2-2 2.25-.437 4.938-1.125C176 192 176 192 178 192zm0 0" fill="rgb(49.411765%,45.882353%,45.490196%)"/><path d="M147 183l6 2-1 2-7 1zm0 0" fill="rgb(43.921569%,16.470588%,7.45098%)"/><path d="M181 159c-1 2-1 2-3.25 3.125-2.766.879-4.871 1.039-7.75.875 1-2 1-2 3.25-3.125 2.766-.879 4.871-1.039 7.75-.875zm0 0" fill="rgb(58.039216%,23.529412%,11.764706%)"/><path d="M123 151c3.375 1.188 5.648 2.277 8 5-3 1-3 1-6 1zm0 0" fill="rgb(18.431373%,18.431373%,17.647059%)"/><path d="M39 148h12l-3 3c-6.332-.332-6.332-.332-9-3zm0 0" fill="rgb(45.098039%,45.490196%,47.058824%)"/><path d="M63.563 108.938L66 109l-2 4h-2v2h-2v-5c1-1 1-1 3.563-1.062zm0 0" fill="rgb(62.352941%,60.784314%,58.039216%)"/><path d="M47 99v6l-2 1-1-2c-2.023-.652-2.023-.652-4-1 5.875-4 5.875-4 7-4zm0 0" fill="rgb(48.627451%,49.019608%,48.627451%)"/><path d="M147 79c3.816 1.555 6.191 4.035 9 7l-1 2c-6.57-5.145-6.57-5.145-8-9zm0 0" fill="rgb(85.882353%,85.098039%,85.490196%)"/><path d="M142 80c2.813-.312 2.813-.312 6 0 1.875 2.5 1.875 2.5 3 5-5.539-.492-5.539-.492-7.875-3.062zm0 0" fill="rgb(36.078431%,37.254902%,38.431373%)"/><path d="M83 55l1 3 1.875-1.5C88 55 88 55 90 55l1 4-8 1zm0 0" fill="rgb(77.647059%,43.921569%,22.745098%)"/><path d="M88 35l7 3-2 1v2h-5zm0 0" fill="rgb(83.529412%,41.960784%,16.078431%)"/><path d="M176 23l5 1 1 2-2 1-1 3-.875-1.937c-.953-2.215-.953-2.215-3.125-3.062zm0 0" fill="rgb(51.372549%,51.372549%,52.941176%)"/><path d="M70 170l3 1v2h2l-1 4-5-3zm0 0" fill="rgb(6.27451%,7.058824%,5.098039%)"/><path d="M104 169v1l-2.937.938c-2.902.758-2.902.758-4.062 2.063h-5c3.922-4.098 6.316-4.105 12-4zm0 0" fill="rgb(78.039216%,47.45098%,26.27451%)"/><path d="M128 160l2 1c.313 2.688.313 2.688 0 6-2.5 2.875-2.5 2.875-5 5v-4l3-2c.25-3.086.25-3.086 0-6zm0 0" fill="rgb(27.843137%,18.823529%,13.72549%)"/><path d="M108 165l7 2v2h-6v2l-3-1h2zm0 0" fill="rgb(89.019608%,66.666667%,42.745098%)"/><path d="M85 155c2 2 2 2 3 4l-5 3v-2l-2-1zm0 0" fill="rgb(43.529412%,41.960784%,40.784314%)"/><path d="M156 148c2.125.375 2.125.375 4 1v5l-4-1v-2l-2-1zm0 0" fill="rgb(30.588235%,20.392157%,15.294118%)"/><path d="M42 103l5 2v3l-6-1-1-3zm0 0" fill="rgb(70.980392%,70.196078%,68.627451%)"/><path d="M136 86l4 2v5l-1.312-1.437c-1.711-1.797-1.711-1.797-4.687-2.562v-2zm0 0" fill="rgb(32.941176%,33.333333%,33.333333%)"/><path d="M122 67l3 1 1 5h-3l-2-3zm0 0" fill="rgb(95.294118%,92.156863%,82.745098%)"/><path d="M97 61v2l2 1h-9l-1-2c2.711-1.355 5.008-1.066 8-1zm0 0" fill="rgb(18.823529%,17.647059%,12.941176%)"/><path d="M152 54c1.125 3.75 1.125 3.75 0 6h-2v-2l-3-1 1-2zm0 0" fill="rgb(36.862745%,38.823529%,40.784314%)"/><path d="M160 38l6 1v2h-3v2h-3zm0 0" fill="rgb(32.941176%,33.72549%,35.294118%)"/><path d="M157 36h1l-1 7-7-2 1-2 5 1zm0 0" fill="rgb(65.490196%,65.882353%,65.490196%)"/><path d="M25 192h2v7l-5-1zm0 0" fill="rgb(29.803922%,13.72549%,7.45098%)"/><path d="M166 186l2 2c-6.285 2.43-6.285 2.43-10 1l1-2c3.438-.75 3.438-.75 7-1zm0 0" fill="rgb(62.352941%,60.392157%,59.215686%)"/><path d="M16 161h2l1 2h2v4l-3 1c-1.562-1.812-1.562-1.812-3-4zm0 0" fill="rgb(7.058824%,5.098039%,1.176471%)"/><path d="M110 152c5.672-.293 8.992-.008 14 3v1c-2.375.125-2.375.125-5 0l-2-2c-2.324-.398-4.656-.738-7-1zm0 0" fill="rgb(51.372549%,23.921569%,10.980392%)"/><path d="M34 131l5 1v2l-8 1 1-2h2zm0 0" fill="rgb(73.72549%,72.156863%,70.588235%)"/><path d="M175 127h2l2 9c-2-1.125-2-1.125-4-3-.25-3.187-.25-3.187 0-6zm0 0" class="E"/><path d="M69 128c2.125.375 2.125.375 4 1l-1 4h-3v-2l-2-1zm0 0" fill="rgb(37.254902%,31.372549%,27.843137%)"/><path d="M138 121h5l1 6-1-2-2-.437-2-.562zm0 0" fill="rgb(30.588235%,25.098039%,20.784314%)"/><path d="M110 84l1 2c2.023.652 2.023.652 4 1l-7 2-3-2zm0 0" fill="rgb(16.078431%,14.509804%,12.156863%)"/><path d="M140 67l1 4h4l-1 3c-2.062.688-2.062.688-4 1zm0 0" fill="rgb(30.588235%,30.196078%,29.019608%)"/><path d="M159 59l4 2-1 5h-2l-2-5zm0 0" fill="rgb(40.784314%,41.960784%,43.921569%)"/><path d="M93 41l6 2-2 5h-2c-1.461-2.648-2-3.895-2-7zm0 0" fill="rgb(78.823529%,41.960784%,18.039216%)"/><path d="M124 22c0 3.191-.234 4.395-2 7-2.625 1.25-2.625 1.25-5 2l1-3h2v-2h2zm0 0" fill="rgb(56.078431%,34.117647%,19.215686%)"/><path d="M117 184l7 1-2 3c-2.625.188-2.625.188-5 0zm0 0" fill="rgb(32.54902%,26.666667%,24.705882%)"/><path d="M32 174h7l-1 3v-2h-2v2l-4 1zm0 0" fill="rgb(38.431373%,33.72549%,30.588235%)"/><path d="M67 166h11l-1 3-10-2zm0 0" fill="rgb(27.843137%,29.411765%,30.588235%)"/><path d="M152 151l3 1-2.312 1.813c-2.035 1.656-3.883 3.289-5.687 5.188 0-3 0-3 2.5-5.687zm0 0" fill="rgb(19.607843%,18.823529%,15.686275%)"/><path d="M129 91h3c-1.27 3.914-2.512 5.789-6 8zm0 0" fill="rgb(68.235294%,56.078431%,44.705882%)"/><path d="M129 76l5 2v2h-3l-1 2v-2h-2zm0 0" fill="rgb(52.54902%,40%,33.333333%)"/><path d="M111 71h7l-2 3c-2.625.188-2.625.188-5 0zm0 0" fill="rgb(50.588235%,49.019608%,47.058824%)"/><path d="M117 70v1l-3.375.938c-3.422.887-3.422.887-5.625 2.063l-3-3c3.98-1.324 7.852-1.066 12-1zm0 0" fill="rgb(84.313725%,76.078431%,64.313725%)"/><path d="M104 63c1 2 1 2 .063 5.125L103 71h-4l1-3 2 1zm0 0" fill="rgb(92.54902%,65.098039%,38.431373%)"/><path d="M144 60c2 .313 2 .313 4 1l1 2-5 2-1-4zm0 0" fill="rgb(35.686275%,38.039216%,40%)"/><path d="M104 58h8l1 2-10 2zm0 0" fill="rgb(80.784314%,47.843137%,24.705882%)"/><path d="M117 55h2v2l2 1v2l-5 1c-.625-1.875-.625-1.875-1-4zm0 0" fill="rgb(17.254902%,13.72549%,7.843137%)"/><path d="M147 37l1 4 5 1v4h-2v-4h-4zm0 0" fill="rgb(48.235294%,48.627451%,49.411765%)"/><path d="M100 36l6 1-1 2h-2l-1 3c-2-3.75-2-3.75-2-6zm0 0" fill="rgb(72.941176%,29.019608%,7.058824%)"/><path d="M159 27l2 1-1 4 3 1-1 2-4-1v-6zm0 0" fill="rgb(72.941176%,72.941176%,72.54902%)"/><path d="M156 14h2v6l-2 1v-2h-2zm0 0" fill="rgb(30.980392%,31.764706%,34.117647%)"/><path d="M26 197l-1 3h-9c3.813-2.543 5.477-3.117 10-3zm0 0" fill="rgb(16.470588%,7.843137%,3.137255%)"/><path d="M0 189l9 2c-3.766 1.883-5.031 2.223-9 2zm0 0" fill="rgb(61.960784%,39.607843%,29.411765%)"/><path d="M90 187h5v4h-5zm0 0" fill="rgb(72.156863%,28.235294%,10.196078%)"/><path d="M94 184h9l1 3-10-2zm0 0" class="F"/><path d="M123 176c2.375-.187 2.375-.187 5 0 2 3 2 3 1.625 5.188L129 183l-.75-1.875c-1.457-2.477-2.629-3.074-5.25-4.125zm0 0" fill="rgb(80.392157%,77.254902%,72.54902%)"/><path d="M126 172l8.398-.195C137 172 137 172 139 174l-5 1-1-1-7-1zm0 0" fill="rgb(43.921569%,13.72549%,3.921569%)"/><path d="M163 166l8 1v1l-9 1zm0 0" fill="rgb(54.117647%,22.745098%,11.372549%)"/><path d="M42 145h12v3h-3v-2h-9zm0 0" fill="rgb(53.72549%,51.764706%,48.235294%)"/><path d="M134 123h5l2 4h-5zm0 0" fill="rgb(10.588235%,13.333333%,12.54902%)"/><path d="M54 118c-1.625 1.125-1.625 1.125-4 2a39.57 39.57 0 0 1-8-3c4.145-3.281 7.719-.934 12 1zm0 0" class="D"/><path d="M51 112v6c-1.937-.812-1.937-.812-4-2l-1-3c3.875-1 3.875-1 5-1zm0 0" fill="rgb(12.156863%,16.078431%,15.686275%)"/><path d="M158 111h1v6l-5 2c1.125-2.973 2.223-5.336 4-8zm0 0" fill="rgb(18.823529%,20%,20.392157%)"/><path d="M66 106l2 1v2l5 2-1 2-5-2v-3l-2-1zm0 0" fill="rgb(41.176471%,41.568627%,39.607843%)"/><path d="M75 89l6 3v2l3 1-2 1-5.469-3.711L75 91zm0 0" fill="rgb(26.27451%,13.333333%,5.882353%)"/><path d="M104 89l2 1 7 2v1l-6.738.195C104 93 104 93 101 91h3zm0 0" fill="rgb(16.862745%,14.509804%,10.980392%)"/><path d="M122 89c-2.359 2.098-3.547 2.969-6.75 3.188L113 92v-2c5.625-2.125 5.625-2.125 9-1zm0 0" fill="rgb(10.588235%,10.980392%,8.627451%)"/><path d="M82.688 76.875l2.449.055L87 77v1h-6v2l-6-1c3.203-2.137 4.02-2.23 7.688-2.125zm0 0" fill="rgb(45.882353%,34.509804%,27.058824%)"/><path d="M62 73c.625 1.875.625 1.875 1 4l-2 2v-2l-5 1c3.75-3.875 3.75-3.875 6-5zm0 0" fill="rgb(17.647059%,18.431373%,17.254902%)"/><path d="M154 56l2 1v2h2c-.375 1.938-.375 1.938-1 4l-2 1zm0 0" fill="rgb(72.941176%,73.72549%,73.72549%)"/><path d="M158 45l3 1-2 8c-1.617-2.57-2.043-3.676-1.625-6.75zm0 0" fill="rgb(71.372549%,71.372549%,71.372549%)"/><path d="M157 24l4 1v2l-5 4-1-2zm0 0" fill="rgb(59.215686%,59.607843%,59.215686%)"/><path d="M55 184l1 2c2.527.656 2.527.656 5 1-2.141 2.141-3.133 2.426-6 3zm0 0" fill="rgb(93.333333%,56.470588%,25.098039%)"/><path d="M43 175h2v5l-4 1zm0 0" fill="rgb(37.254902%,32.941176%,29.411765%)"/><path d="M16 169l.813 1.938c1.074 2.395 1.074 2.395 4.188 3.063l-1 2a56.11 56.11 0 0 1-7-4h3zm0 0" fill="rgb(35.686275%,17.254902%,6.666667%)"/><path d="M37 164l-2 3h-4l-1-3c3.012-.934 3.867-1.043 7 0zm0 0" fill="rgb(36.470588%,36.862745%,37.254902%)"/><path d="M77 132h2v3l4 2-9-2zm0 0" fill="rgb(10.588235%,12.941176%,12.156863%)"/><path d="M158 132h4v2h4v2c-5.75-.875-5.75-.875-8-2zm0 0" fill="rgb(29.411765%,29.411765%,28.235294%)"/><path d="M28 91l2 1v2h2l-1 4-1-3c-2-1.211-2-1.211-4-2zm0 0" fill="rgb(22.745098%,23.921569%,24.313725%)"/><path d="M107 65l4 2v3h-4l-1-4zm0 0" fill="rgb(94.117647%,69.803922%,42.745098%)"/><path d="M132 40l2 3c2.059.723 2.059.723 4 1l-3 3-3-2c-.187-2.625-.187-2.625 0-5zm0 0" fill="rgb(15.294118%,15.294118%,13.72549%)"/></svg>