<?xml version="1.0" encoding="UTF-8"?>
<svg xmlns="http://www.w3.org/2000/svg" xmlns:xlink="http://www.w3.org/1999/xlink" width="200px" height="200px" viewBox="0 0 200 200" version="1.1">
<g id="surface1">
<path style=" stroke:none;fill-rule:nonzero;fill:rgb(32.54902%,3.529412%,80.392157%);fill-opacity:1;" d="M 100 60.953125 C 78.53125 60.953125 61.15625 85.066406 61.15625 114.867188 L 82.742188 114.867188 C 82.742188 101.597656 90.460938 90.914062 100 90.914062 C 109.539062 90.914062 117.257812 101.597656 117.257812 114.867188 L 138.84375 114.867188 C 138.84375 85.066406 121.46875 60.953125 100 60.953125 Z M 100 60.953125 "/>
<path style=" stroke:none;fill-rule:nonzero;fill:rgb(24.313725%,40.784314%,100%);fill-opacity:1;" d="M 125.886719 114.867188 L 121.585938 114.867188 C 121.585938 98.335938 111.929688 84.910156 100 84.910156 C 88.070312 84.910156 78.414062 98.335938 78.414062 114.867188 L 74.113281 114.867188 C 74.113281 95.019531 85.679688 78.90625 100 78.90625 C 114.320312 78.910156 125.886719 95.019531 125.886719 114.867188 Z M 125.886719 114.867188 "/>
<path style=" stroke:none;fill-rule:nonzero;fill:rgb(40.784314%,76.862745%,4.705882%);fill-opacity:1;" d="M 130.214844 114.867188 L 125.886719 114.867188 C 125.886719 95.019531 114.320312 78.90625 100 78.90625 C 85.679688 78.90625 74.113281 95.019531 74.113281 114.867188 L 69.785156 114.867188 C 69.785156 91.699219 83.308594 72.957031 100 72.957031 C 116.691406 72.957031 130.214844 91.699219 130.214844 114.867188 Z M 130.214844 114.867188 "/>
<path style=" stroke:none;fill-rule:nonzero;fill:rgb(97.254902%,60.392157%,32.941176%);fill-opacity:1;" d="M 134.519531 114.867188 L 130.214844 114.867188 C 130.214844 91.699219 116.691406 72.957031 100 72.957031 C 83.308594 72.957031 69.785156 91.699219 69.785156 114.867188 L 65.480469 114.867188 C 65.480469 88.382812 80.917969 66.953125 100 66.953125 C 119.082031 66.953125 134.519531 88.382812 134.519531 114.867188 Z M 134.519531 114.867188 "/>
<path style=" stroke:none;fill-rule:nonzero;fill:rgb(93.72549%,26.666667%,30.588235%);fill-opacity:1;" d="M 138.84375 114.867188 L 134.519531 114.867188 C 134.519531 88.382812 119.082031 66.953125 100 66.953125 C 80.917969 66.953125 65.480469 88.382812 65.480469 114.867188 L 61.15625 114.867188 C 61.15625 85.066406 78.53125 60.953125 100 60.953125 C 121.46875 60.953125 138.84375 85.066406 138.84375 114.867188 Z M 138.84375 114.867188 "/>
<path style=" stroke:none;fill-rule:nonzero;fill:rgb(87.843137%,91.372549%,96.470588%);fill-opacity:1;" d="M 145.160156 115.730469 C 150.683594 108.410156 141.449219 101.140625 137.476562 107.976562 C 134.003906 100.679688 124.191406 102.429688 122.699219 111.300781 C 120.199219 105.3125 110.425781 106.863281 113.949219 119.296875 C 105.90625 122.699219 112.984375 142.226562 121.734375 133.371094 C 124.210938 142.121094 140.550781 140.199219 142.277344 131.390625 C 149.691406 132.726562 153.769531 119.3125 145.160156 115.730469 Z M 145.160156 115.730469 "/>
<path style=" stroke:none;fill-rule:nonzero;fill:rgb(87.843137%,91.372549%,96.470588%);fill-opacity:1;" d="M 54.839844 115.730469 C 49.316406 108.410156 58.550781 101.140625 62.523438 107.976562 C 65.996094 100.679688 75.808594 102.429688 77.300781 111.300781 C 79.800781 105.3125 89.574219 106.863281 86.050781 119.296875 C 94.09375 122.699219 87.015625 142.226562 78.265625 133.371094 C 75.789062 142.121094 59.449219 140.199219 57.722656 131.390625 C 50.308594 132.726562 46.230469 119.3125 54.839844 115.730469 Z M 54.839844 115.730469 "/>
</g>
</svg>
