<?xml version="1.0" encoding="UTF-8"?>
<svg version="1.1" xmlns="http://www.w3.org/2000/svg" width="200" height="200">
<path d="M0 0 C66 0 132 0 200 0 C200 66 200 132 200 200 C134 200 68 200 0 200 C0 134 0 68 0 0 Z " fill="#FDFDFC" transform="translate(0,0)"/>
<path d="M0 0 C0.91136719 0.4021875 1.82273438 0.804375 2.76171875 1.21875 C26.2083671 12.11389586 44.08485376 33.44216942 52.9375 57.4375 C54.62715673 62.5705606 56.1929583 67.65076208 57 73 C57.14179688 73.69738281 57.28359375 74.39476563 57.4296875 75.11328125 C57.6875 77.1875 57.6875 77.1875 57 81 C54.43544089 83.74428563 51.31039972 85.28492211 48 87 C47.39961914 87.31469238 46.79923828 87.62938477 46.18066406 87.95361328 C42.11645014 90.07305717 38.01597335 92.10688931 33.88476562 94.09228516 C32.25605067 94.87668441 30.63506992 95.67710537 29.015625 96.48046875 C19.85371864 100.88523142 8.16244654 106.14564312 -2.125 103.44140625 C-7.78230253 100.78954569 -13.07715854 97.63379286 -18.33203125 94.26196289 C-26.09924048 89.4043386 -33.36522365 87.4908842 -42.5 87.625 C-43.29019531 87.61339844 -44.08039063 87.60179688 -44.89453125 87.58984375 C-52.88744088 87.62908881 -59.62663709 89.95703164 -66.5625 93.875 C-67.48546875 94.39320312 -68.4084375 94.91140625 -69.359375 95.4453125 C-71.71359509 96.83137699 -74.01709551 98.26937649 -76.3125 99.75 C-82.9664826 103.94754278 -89.12824255 105.07205805 -96.8046875 103.3828125 C-111.18045673 99.33178526 -130.24262756 91.75737244 -141 81 C-141.27983933 75.86527377 -140.60343024 71.25642375 -139.3125 66.3125 C-139.13170898 65.61406982 -138.95091797 64.91563965 -138.76464844 64.19604492 C-131.96972624 38.90608533 -114.91237167 17.4387682 -92.56640625 4 C-64.27623841 -12.24966233 -29.49282302 -13.71433763 0 0 Z " fill="#FCC167" transform="translate(142,9)"/>
<path d="M0 0 C0.33 0 0.66 0 1 0 C1.20753906 0.969375 1.41507812 1.93875 1.62890625 2.9375 C7.71951011 29.97242749 22.65996853 53.07959849 46.25 68.1875 C53.76799211 72.65186586 61.70126858 76.23375619 70 79 C69.68184326 78.33790527 69.36368652 77.67581055 69.03588867 76.99365234 C65.90696587 70.32384458 63.48936861 63.65382664 61.3125 56.625 C58.2915994 47.14734341 54.57602555 38.28620135 50.06176758 29.42431641 C49.64822021 28.60624512 49.23467285 27.78817383 48.80859375 26.9453125 C48.43532959 26.22875488 48.06206543 25.51219727 47.67749023 24.77392578 C47.45391846 24.18853027 47.23034668 23.60313477 47 23 C47.33 22.34 47.66 21.68 48 21 C48.89460938 21.67546875 49.78921875 22.3509375 50.7109375 23.046875 C60.52832637 30.34314097 69.20743367 36.49495767 82 35 C84.43471986 34.48605198 86.64289744 33.81986176 89 33 C88.0925 32.29875 87.185 31.5975 86.25 30.875 C82.06747554 27.35495578 79.58815456 23.79713895 77.875 18.5625 C78.02749781 14.21631233 79.18192109 12.75036642 81.96875 9.578125 C87.49965081 5.28104053 92.72192725 4.51587182 99.5 4.625 C100.58087891 4.60759766 100.58087891 4.60759766 101.68359375 4.58984375 C109.0484057 4.62979752 114.48872695 6.97501575 120 12 C121.60745059 15.21490118 121.40305242 17.4301071 121 21 C118.39867465 25.55020102 114.84077415 29.45467002 111 33 C118.51018185 36.16218183 125.33042875 35.92627704 132.875 33.0625 C139.66503527 30.01139324 145.25370437 25.67650655 151 21 C152 24 152 24 151.19897461 26.07446289 C150.55714233 27.2615686 150.55714233 27.2615686 149.90234375 28.47265625 C149.433125 29.3637207 148.96390625 30.25478516 148.48046875 31.17285156 C147.97128906 32.12643555 147.46210938 33.08001953 146.9375 34.0625 C141.885373 43.81733659 138.09291206 53.48134975 135 64 C134.67386719 65.05445313 134.34773437 66.10890625 134.01171875 67.1953125 C132.90998434 70.77725472 131.88973072 74.35945045 131 78 C139.42484982 74.97294744 147.26343406 71.51170479 155 67 C153.9275 66.7525 152.855 66.505 151.75 66.25 C147.8930141 64.96433803 146.31039961 64.28787637 144 61 C142.9375 57.625 142.9375 57.625 143 54 C146.10728719 49.18003482 148.52115558 47.30656152 154.09179688 46.05078125 C154.82462891 45.91027344 155.55746094 45.76976562 156.3125 45.625 C157.03373047 45.46128906 157.75496094 45.29757813 158.49804688 45.12890625 C163.40920836 44.08060452 167.98340595 43.60882196 173 44 C174.01320312 44.78310547 174.01320312 44.78310547 175.046875 45.58203125 C177.06824212 47.38207038 177.06824212 47.38207038 180.453125 46.63671875 C181.70609375 46.32347656 182.9590625 46.01023438 184.25 45.6875 C185.51328125 45.38199219 186.7765625 45.07648438 188.078125 44.76171875 C189.04234375 44.51035156 190.0065625 44.25898438 191 44 C187.72158936 54.8488468 180.34702517 63.56746841 173 72 C172.45988281 72.62519531 171.91976562 73.25039062 171.36328125 73.89453125 C155.11407949 91.37163239 129.99983957 102.11916283 106.36690521 103.11044502 C98.84173485 103.28110043 91.31551363 103.22960196 83.7890625 103.1953125 C81.36526609 103.1915758 78.94146815 103.18873194 76.51766968 103.18673706 C70.18188198 103.17915235 63.84618803 103.15954892 57.51043701 103.1373291 C49.8852024 103.11313304 42.2599362 103.10406509 34.63467407 103.09242249 C23.08971779 103.07312099 11.54496665 103.03476236 0 103 C0 69.01 0 35.02 0 0 Z " fill="#BBDBFB" transform="translate(0,97)"/>
<path d="M0 0 C1.08087891 -0.01740234 1.08087891 -0.01740234 2.18359375 -0.03515625 C9.5484057 0.00479752 14.98872695 2.35001575 20.5 7.375 C22.10745059 10.58990118 21.90305242 12.8051071 21.5 16.375 C18.89867465 20.92520102 15.34077415 24.82967002 11.5 28.375 C19.01018185 31.53718183 25.83042875 31.30127704 33.375 28.4375 C40.16503527 25.38639324 45.75370437 21.05150655 51.5 16.375 C52.5 19.375 52.5 19.375 51.69897461 21.44946289 C51.05714233 22.6365686 51.05714233 22.6365686 50.40234375 23.84765625 C49.933125 24.7387207 49.46390625 25.62978516 48.98046875 26.54785156 C48.47128906 27.50143555 47.96210938 28.45501953 47.4375 29.4375 C41.92052117 40.08988997 37.74501022 50.7559658 34.72265625 62.359375 C32.26176621 71.73696782 26.67325101 79.9991916 18.5 85.375 C9.29685055 90.23438791 0.14361877 91.99803526 -10.22265625 89.796875 C-19.59089621 86.53061067 -26.47300328 79.97301997 -31.125 71.3125 C-34.50359544 64.00402314 -36.86431294 56.39160884 -39.28930664 48.72387695 C-41.99186898 40.38044424 -45.46054978 32.60742933 -49.4387207 24.79858398 C-49.85210693 23.98075439 -50.26549316 23.1629248 -50.69140625 22.3203125 C-51.06467041 21.60375488 -51.43793457 20.88719727 -51.82250977 20.14892578 C-52.04608154 19.56353027 -52.26965332 18.97813477 -52.5 18.375 C-52.17 17.715 -51.84 17.055 -51.5 16.375 C-50.60539062 17.05046875 -49.71078125 17.7259375 -48.7890625 18.421875 C-38.97167363 25.71814097 -30.29256633 31.86995767 -17.5 30.375 C-15.06528014 29.86105198 -12.85710256 29.19486176 -10.5 28.375 C-11.4075 27.67375 -12.315 26.9725 -13.25 26.25 C-17.43252446 22.72995578 -19.91184544 19.17213895 -21.625 13.9375 C-21.47250219 9.59131233 -20.31807891 8.12536642 -17.53125 4.953125 C-12.00034919 0.65604053 -6.77807275 -0.10912818 0 0 Z " fill="#1D0345" transform="translate(99.5,101.625)"/>
<path d="M0 0 C0.33 0 0.66 0 1 0 C1.12375 0.85078125 1.2475 1.7015625 1.375 2.578125 C4.94372528 23.544386 14.08062077 41.02776268 28 57 C28.82757812 57.95519531 28.82757812 57.95519531 29.671875 58.9296875 C44.76319184 75.14164668 66.75011342 83.2145951 88 87 C88 87.33 88 87.66 88 88 C58.96 88 29.92 88 0 88 C0 58.96 0 29.92 0 0 Z " fill="#FDFEFE" transform="translate(0,112)"/>
<path d="M0 0 C30.36 0 60.72 0 92 0 C92 22.11 92 44.22 92 67 C90.02 67.99 90.02 67.99 88 69 C88 68.34 88 67.68 88 67 C87.34 67 86.68 67 86 67 C85.59910156 65.99582031 85.19820313 64.99164063 84.78515625 63.95703125 C76.73898202 44.36676512 64.46203505 28.95420787 47 17 C46.32582031 16.52046875 45.65164062 16.0409375 44.95703125 15.546875 C31.45387366 6.44879867 15.8764504 2.97007049 0 1 C0 0.67 0 0.34 0 0 Z " fill="#FEFEFC" transform="translate(108,0)"/>
<path d="M0 0 C-1.05067942 2.82875229 -1.95931462 4.94982137 -3.875 7.3125 C-5.3006842 9.84176645 -5.3006842 9.84176645 -4.30078125 11.77734375 C-3.53851318 13.12802927 -2.77545349 14.47826825 -2.01171875 15.828125 C0.04300741 20.23904294 -0.18964859 24.66403801 -1.765625 29.20703125 C-3.57833623 33.08421915 -5.61514224 36.29211379 -9 39 C-9.66 39 -10.32 39 -11 39 C-11 39.66 -11 40.32 -11 41 C-9.02 40.34 -7.04 39.68 -5 39 C-5.9977758 41.99332739 -6.7522025 42.94766315 -9 45 C-7.02 45.99 -5.04 46.98 -3 48 C-3 47.34 -3 46.68 -3 46 C-1.35 46.33 0.3 46.66 2 47 C-0.66024486 49.66024486 -3.0797115 50.08982158 -6.6875 51.125 C-7.88761719 51.47820312 -9.08773437 51.83140625 -10.32421875 52.1953125 C-21.46259124 54.63368097 -28.36212641 50.08141369 -37.5 44.4375 C-38.10457031 44.04957275 -38.70914063 43.66164551 -39.33203125 43.26196289 C-47.26427212 38.30112756 -54.76857139 36.56485648 -64.0625 36.3125 C-64.92810547 36.27833984 -65.79371094 36.24417969 -66.68554688 36.20898438 C-68.78994387 36.12759886 -70.8949457 36.06210231 -73 36 C-72.360625 35.71125 -71.72125 35.4225 -71.0625 35.125 C-68.84793921 34.17176549 -68.84793921 34.17176549 -68 32 C-66.14233398 31.58935547 -66.14233398 31.58935547 -63.74609375 31.3671875 C-62.46508789 31.24150391 -62.46508789 31.24150391 -61.15820312 31.11328125 C-60.26037109 31.03464844 -59.36253906 30.95601562 -58.4375 30.875 C-57.53580078 30.78863281 -56.63410156 30.70226562 -55.70507812 30.61328125 C-53.47083234 30.40049594 -51.23549958 30.19918195 -49 30 C-51.64 28.68 -54.28 27.36 -57 26 C-54.58340539 24.05113338 -52.16491688 22.12134352 -49.6640625 20.28125 C-48.43816406 19.36859375 -48.43816406 19.36859375 -47.1875 18.4375 C-46.39730469 17.85871094 -45.60710937 17.27992187 -44.79296875 16.68359375 C-44.20128906 16.12800781 -43.60960938 15.57242188 -43 15 C-43 14.01 -43 13.02 -43 12 C-41.68 11.67 -40.36 11.34 -39 11 C-39 10.34 -39 9.68 -39 9 C-40.32 8.67 -41.64 8.34 -43 8 C-39.69670028 4.69670028 -36.56608538 4.52575984 -32.12109375 4.2109375 C-29.81256943 4.06018673 -29.81256943 4.06018673 -27 3 C-27.33 3.99 -27.66 4.98 -28 6 C-30.31 6.33 -32.62 6.66 -35 7 C-32.36 7 -29.72 7 -27 7 C-27 7.66 -27 8.32 -27 9 C-27.99 9.33 -28.98 9.66 -30 10 C-26.49938918 9.35173874 -24.01189321 7.85347275 -21 6 C-18 5 -18 5 -14.875 5.25 C-10.27569348 4.95327055 -7.77019354 3.4806707 -3.91796875 1.09375 C-2 0 -2 0 0 0 Z " fill="#FCC168" transform="translate(163,60)"/>
<path d="M0 0 C0.99 3.63 1.98 7.26 3 11 C3.474375 9.741875 3.94875 8.48375 4.4375 7.1875 C4.70433594 6.47980469 4.97117187 5.77210938 5.24609375 5.04296875 C5.86225186 3.37327604 6.43719235 1.68842296 7 0 C15.51652251 -0.55846049 22.83681074 1.22454049 30 6 C29.68644011 12.11441789 26.8904125 16.45983176 23 21 C16.27412368 26.74934256 9.12959252 29.5236248 0.25390625 29.23828125 C-7.91970556 28.37417324 -13.55723718 23.97636702 -19 18 C-21.44119511 14.52353366 -23.05052754 11.74452973 -22.92578125 7.4375 C-22 5 -22 5 -19.62890625 3.41796875 C-12.71671035 0.64428504 -7.44633874 -0.54752491 0 0 Z " fill="#06DCB6" transform="translate(96,155)"/>
<path d="M0 0 C8.06435656 4.14804547 15.97889305 8.46787486 23.6875 13.25 C24.3578125 13.66169434 25.028125 14.07338867 25.71875 14.49755859 C29.22457086 16.70119192 32.19582452 18.9047582 35 22 C33.02 22 31.04 22 29 22 C28.896875 23.19625 28.79375 24.3925 28.6875 25.625 C28.00001771 30.95534216 26.49496659 34.65088381 22.4375 38.3125 C18.67844829 40.91492041 16.60658139 41.44294052 12 41 C7.31978788 38.75349818 4.77653828 36.06807491 2.69140625 31.41796875 C1.34303476 26.70247748 1.26030567 21.83133687 2 17 C2.94761244 15.30300017 3.94013865 13.62925495 5 12 C4.8726873 8.05330633 2.14083228 5.17671887 0 2 C0 1.34 0 0.68 0 0 Z " fill="#1E0243" transform="translate(36,59)"/>
<path d="M0 0 C0.67546875 0.52207031 1.3509375 1.04414063 2.046875 1.58203125 C4.06824212 3.38207038 4.06824212 3.38207038 7.453125 2.63671875 C8.70609375 2.32347656 9.9590625 2.01023438 11.25 1.6875 C12.51328125 1.38199219 13.7765625 1.07648438 15.078125 0.76171875 C16.04234375 0.51035156 17.0065625 0.25898438 18 0 C16.21875 5.7734375 16.21875 5.7734375 14.25 7.8125 C11.51802789 9.25437417 9.0534269 9.65301967 6 10 C5.9175 10.5775 5.835 11.155 5.75 11.75 C4.72898851 14.81303448 3.52293053 15.95610691 1 18 C-1.69063404 19.04546162 -4.43051262 19.65177833 -7.25 20.25 C-7.97574219 20.42273438 -8.70148438 20.59546875 -9.44921875 20.7734375 C-14.39481074 21.88421217 -18.93209142 22.33205416 -24 22 C-27.59385281 19.47665654 -28.76154966 17.72859825 -30.125 13.5625 C-29.98920893 9.69245454 -29.15983196 8.22226664 -26.62695312 5.36206055 C-23.68677814 2.90059052 -20.38157306 2.33327434 -16.6875 1.625 C-15.96626953 1.46128906 -15.24503906 1.29757813 -14.50195312 1.12890625 C-9.59079164 0.08060452 -5.01659405 -0.39117804 0 0 Z " fill="#1E0545" transform="translate(173,141)"/>
<path d="M0 0 C2.6875 -0.3125 2.6875 -0.3125 5 0 C6.38917208 4.04122788 5.76460214 6.91633877 4.13671875 10.8203125 C-1.13693851 20.93268622 -9.22902719 27.7515699 -20.0078125 31.3046875 C-29.01913474 33.39870233 -38.01184098 32.86235766 -46 28 C-50.56043189 24.43655957 -54.77811701 20.83282448 -58 16 C-57.75 13.375 -57.75 13.375 -57 11 C-56.34 10.67 -55.68 10.34 -55 10 C-54.34 9.01 -53.68 8.02 -53 7 C-52.731875 7.50789062 -52.46375 8.01578125 -52.1875 8.5390625 C-48.44226366 15.11786581 -43.91943879 19.16536908 -37.0625 22.375 C-27.54530728 24.31728423 -19.56637731 22.21612911 -11.1875 17.375 C-7.08852438 12.92468362 -4.35229632 7.50192291 -1.48828125 2.203125 C-0.99714844 1.47609375 -0.50601563 0.7490625 0 0 Z " fill="#1A0644" transform="translate(128,160)"/>
<path d="M0 0 C-1.05067942 2.82875229 -1.95931462 4.94982137 -3.875 7.3125 C-5.3006842 9.84176645 -5.3006842 9.84176645 -4.30078125 11.77734375 C-3.53851318 13.12802927 -2.77545349 14.47826825 -2.01171875 15.828125 C0.04535318 20.24407863 -0.22016843 24.64382439 -1.73046875 29.20703125 C-3.66541054 33.46390319 -5.78001328 36.7427978 -10 39 C-13.6875 38.75 -13.6875 38.75 -17 38 C-17.66 38 -18.32 38 -19 38 C-21.61896089 35.17152224 -22.4739075 32.78786597 -23 29 C-21.02 28.67 -19.04 28.34 -17 28 C-16.27743171 23.51866426 -16.27743171 23.51866426 -16 19 C-19.29075996 19.37904208 -19.29075996 19.37904208 -22 21 C-22.04080783 22.99958364 -22.04254356 25.00045254 -22 27 C-23.98 27.99 -23.98 27.99 -26 29 C-26.33 26.36 -26.66 23.72 -27 21 C-29.64 21 -32.28 21 -35 21 C-32.37311557 18.21966649 -29.83878581 16.10771224 -26.55078125 14.16015625 C-25.70193359 13.65419922 -24.85308594 13.14824219 -23.97851562 12.62695312 C-22.65883789 11.85254883 -22.65883789 11.85254883 -21.3125 11.0625 C-20.45205078 10.55009766 -19.59160156 10.03769531 -18.70507812 9.50976562 C-14.48625756 7.00772208 -10.24478528 4.54479638 -5.98046875 2.12109375 C-5.26141357 1.71173584 -4.5423584 1.30237793 -3.80151367 0.88061523 C-2 0 -2 0 0 0 Z " fill="#1F0442" transform="translate(163,60)"/>
<path d="M0 0 C6.6705484 2.14410484 12.54929335 6.01320127 17 11.4375 C18.32241541 14.8261895 18.40045081 17.39594275 18 21 C16.48588929 23.02965147 15.65592066 23.9002454 13.125 24.28515625 C3.8624561 23.31463235 -5.96507744 18.21566828 -12 11 C-13.25 7.9375 -13.25 7.9375 -13 5 C-9.54330982 -0.1292822 -5.88563594 -1.01476482 0 0 Z " fill="#FDFBF5" transform="translate(60,42)"/>
<path d="M0 0 C3 1.625 3 1.625 5 4 C5.8125 6.8125 5.8125 6.8125 5 10 C-0.1613797 16.31627405 -8.77882221 22.12861328 -16.85546875 23.4765625 C-19.38754974 23.55694602 -21.54242799 23.62040467 -24 23 C-26 20 -26 20 -26.0625 16.8125 C-24.35803688 10.69648527 -20.8288452 6.9012044 -15.59375 3.3828125 C-10.2325967 0.45403431 -6.0804904 -0.92753243 0 0 Z " fill="#FDFCF8" transform="translate(147,42)"/>
<path d="M0 0 C0.598125 0.226875 1.19625 0.45375 1.8125 0.6875 C3.0625 7.3125 3.0625 7.3125 0.8125 10.6875 C-2.3125 10.875 -2.3125 10.875 -5.1875 10.6875 C-3.98368552 13.18111571 -2.73321278 15.36893083 -1.1875 17.6875 C-1.1875 18.3475 -1.1875 19.0075 -1.1875 19.6875 C-0.07375 19.48125 1.04 19.275 2.1875 19.0625 C3.38375 18.93875 4.58 18.815 5.8125 18.6875 C6.4725 19.3475 7.1325 20.0075 7.8125 20.6875 C7.4825 21.3475 7.1525 22.0075 6.8125 22.6875 C8.7925 22.0275 10.7725 21.3675 12.8125 20.6875 C11.8147242 23.68082739 11.0602975 24.63516315 8.8125 26.6875 C10.7925 27.6775 12.7725 28.6675 14.8125 29.6875 C14.8125 29.0275 14.8125 28.3675 14.8125 27.6875 C16.4625 28.0175 18.1125 28.3475 19.8125 28.6875 C17.15225514 31.34774486 14.7327885 31.77732158 11.125 32.8125 C9.92488281 33.16570312 8.72476563 33.51890625 7.48828125 33.8828125 C1.90528366 35.10502026 -2.71446786 35.34760564 -7.9375 32.875 C-8.67484375 32.53855469 -9.4121875 32.20210937 -10.171875 31.85546875 C-12.20474895 30.67750497 -13.61682673 29.42219928 -15.1875 27.6875 C-13.5478125 27.2234375 -13.5478125 27.2234375 -11.875 26.75 C-9.63342006 26.10412103 -7.4005649 25.4251883 -5.1875 24.6875 C-5.1875 23.6975 -5.1875 22.7075 -5.1875 21.6875 C-6.5075 21.0275 -7.8275 20.3675 -9.1875 19.6875 C-8.8575 19.0275 -8.5275 18.3675 -8.1875 17.6875 C-8.12690959 16.38431125 -8.12690959 16.38431125 -9.1875 14.125 C-10.36849738 10.06532152 -10.33263679 6.89646686 -10.1875 2.6875 C-8.1875 4.6875 -8.1875 4.6875 -8.0625 7.8125 C-8.10375 8.76125 -8.145 9.71 -8.1875 10.6875 C-6.58335785 9.50226003 -6.58335785 9.50226003 -5.1875 7.6875 C-5.1875 6.8625 -5.1875 6.0375 -5.1875 5.1875 C-5.1875 2.6875 -5.1875 2.6875 -3.9375 0.8125 C-2.1875 -0.3125 -2.1875 -0.3125 0 0 Z " fill="#FBC16A" transform="translate(145.1875,78.3125)"/>
<path d="M0 0 C2.3546132 0.93639058 4.70869425 1.87408357 7.0625 2.8125 C8.04766602 3.20405273 8.04766602 3.20405273 9.05273438 3.60351562 C10.0340332 3.99506836 10.0340332 3.99506836 11.03515625 4.39453125 C11.69789551 4.65282715 12.36063477 4.91112305 13.04345703 5.17724609 C15 6 15 6 16.81201172 6.98291016 C18.77791272 8.08281868 18.77791272 8.08281868 22 9 C24.72787575 8.06229271 26.60320878 7.22124461 29 5.75 C33.72504877 2.97614325 37.55387184 1.47236826 43 1 C39.57933564 6.05663427 35.08997609 8.83507897 30 12 C30.5775 12.433125 31.155 12.86625 31.75 13.3125 C33.83333333 14.875 35.91666667 16.4375 38 18 C36.20841511 18.02696365 34.41671527 18.04637917 32.625 18.0625 C31.62726563 18.07410156 30.62953125 18.08570312 29.6015625 18.09765625 C27 18 27 18 25 17 C20.34724024 16.6947378 20.34724024 16.6947378 16 18 C14.29297265 18.06996014 12.58331997 18.08440154 10.875 18.0625 C9.96492188 18.05347656 9.05484375 18.04445313 8.1171875 18.03515625 C7.06917969 18.01775391 7.06917969 18.01775391 6 18 C7.62366466 14.75267068 10.75387839 14.29844864 14 13 C13.24074219 12.45730469 12.48148438 11.91460937 11.69921875 11.35546875 C10.70535156 10.64003906 9.71148437 9.92460938 8.6875 9.1875 C7.70136719 8.47980469 6.71523437 7.77210937 5.69921875 7.04296875 C1.67961783 4.00063694 1.67961783 4.00063694 0 2 C0 1.34 0 0.68 0 0 Z " fill="#F79432" transform="translate(78,73)"/>
<path d="M0 0 C0.33 0 0.66 0 1 0 C1.35493454 11.47621673 0.92872552 21.82745451 -2 33 C-2.28230469 34.28777344 -2.56460938 35.57554687 -2.85546875 36.90234375 C-3.88282305 40.7165442 -4.84128511 43.68725514 -7 47 C-11.18568938 49.39182251 -15.21099756 50.52305978 -20 51 C-20.66 50.67 -21.32 50.34 -22 50 C-21.5875 49.52433594 -21.175 49.04867187 -20.75 48.55859375 C-9.15519692 34.50507126 -2.87807623 17.86984642 0 0 Z " fill="#BDDCF8" transform="translate(199,94)"/>
<path d="M0 0 C0.83337891 -0.01224609 1.66675781 -0.02449219 2.52539062 -0.03710938 C8.09111568 -0.05030872 12.51779044 0.66514522 17.5625 3.1875 C17.2325 5.1675 16.9025 7.1475 16.5625 9.1875 C17.5525 9.5175 18.5425 9.8475 19.5625 10.1875 C18.9025 10.5175 18.2425 10.8475 17.5625 11.1875 C15.88041365 10.21366054 14.21511839 9.21054948 12.5625 8.1875 C5.08235152 5.90759173 -6.27925688 5.50499057 -13.375 9.125 C-14.385625 9.805625 -15.39625 10.48625 -16.4375 11.1875 C-17.4275 11.6825 -17.4275 11.6825 -18.4375 12.1875 C-18.72625 11.40375 -19.015 10.62 -19.3125 9.8125 C-20.28662254 7.09078368 -20.28662254 7.09078368 -22.4375 5.1875 C-21.21243102 4.53392722 -19.98220484 3.89001767 -18.75 3.25 C-18.06550781 2.89035156 -17.38101563 2.53070313 -16.67578125 2.16015625 C-11.27869051 -0.18517638 -5.78426571 0.00445286 0 0 Z " fill="#F5F4F0" transform="translate(99.4375,95.8125)"/>
<path d="M0 0 C1.5877405 0.90901174 3.17001197 1.82757924 4.75 2.75 C5.63171875 3.26046875 6.5134375 3.7709375 7.421875 4.296875 C9.96537343 5.97712548 11.92902925 7.77419032 14 10 C12.02 10 10.04 10 8 10 C7.87625 11.2375 7.7525 12.475 7.625 13.75 C7.24253695 16.8762197 6.69450477 19.28879237 5 22 C4.2575 21.360625 3.515 20.72125 2.75 20.0625 C0.21266055 18.15949541 -1.02234096 17.61606739 -4 17 C-4.66 16.34 -5.32 15.68 -6 15 C-5.54545455 9.54545455 -5.54545455 9.54545455 -3 7 C-2.01 7 -1.02 7 0 7 C0 6.01 0 5.02 0 4 C-0.66 3.67 -1.32 3.34 -2 3 C-1.34 2.01 -0.68 1.02 0 0 Z " fill="#1E053F" transform="translate(57,71)"/>
<path d="M0 0 C0.65484375 0.144375 1.3096875 0.28875 1.984375 0.4375 C10.64189866 2.19835227 19.72927731 3.78949476 28 0 C31.5 3.5 31.5 3.5 35 7 C27.73308803 10.22973866 21.62271436 11.40239649 13.87109375 9.05078125 C8.22826789 6.85596432 3.80890212 4.76112765 0 0 Z " fill="#B6D4F4" transform="translate(55,123)"/>
<path d="M0 0 C0 0.99 0 1.98 0 3 C-1.93625098 3.98163422 -3.87404539 4.96022454 -5.8125 5.9375 C-7.43091797 6.75541016 -7.43091797 6.75541016 -9.08203125 7.58984375 C-14.85484247 10.37964944 -20.97553039 11.2229837 -27.2109375 9.328125 C-28.83999302 8.62330914 -30.42632131 7.82104975 -32 7 C-26.69688385 1.25495751 -26.69688385 1.25495751 -23 1 C-22.34 1.33 -21.68 1.66 -21 2 C-13.69543432 2.44489564 -6.990556 2.19311561 0 0 Z " fill="#B7D4F4" transform="translate(142,123)"/>
<path d="M0 0 C0.598125 0.226875 1.19625 0.45375 1.8125 0.6875 C3.0625 7.3125 3.0625 7.3125 0.8125 10.6875 C-2.3125 10.875 -2.3125 10.875 -5.1875 10.6875 C-3.98368552 13.18111571 -2.73321278 15.36893083 -1.1875 17.6875 C-1.1875 18.3475 -1.1875 19.0075 -1.1875 19.6875 C-0.07375 19.48125 1.04 19.275 2.1875 19.0625 C3.38375 18.93875 4.58 18.815 5.8125 18.6875 C6.4725 19.3475 7.1325 20.0075 7.8125 20.6875 C4.99248673 22.09750664 2.94242745 21.93298451 -0.1875 21.6875 C-4.66369413 19.94069254 -6.86664383 16.90899681 -9.25 12.89453125 C-10.75426027 9.35325186 -10.52680556 6.48772232 -10.1875 2.6875 C-8.1875 4.6875 -8.1875 4.6875 -8.0625 7.8125 C-8.10375 8.76125 -8.145 9.71 -8.1875 10.6875 C-6.58335785 9.50226003 -6.58335785 9.50226003 -5.1875 7.6875 C-5.1875 6.8625 -5.1875 6.0375 -5.1875 5.1875 C-5.1875 2.6875 -5.1875 2.6875 -3.9375 0.8125 C-2.1875 -0.3125 -2.1875 -0.3125 0 0 Z " fill="#250B35" transform="translate(145.1875,78.3125)"/>
<path d="M0 0 C0.33 0 0.66 0 1 0 C1.25394531 1.03898437 1.50789062 2.07796875 1.76953125 3.1484375 C3.65986225 10.82767688 5.606916 18.45815952 8 26 C7.01 25.01 6.02 24.02 5 23 C5 25.97 5 28.94 5 32 C-0.0963789 26.9036211 -0.15568132 15.59788151 -0.20654297 8.5847168 C-0.17957819 5.72126478 -0.10958667 2.86142961 0 0 Z " fill="#C2DEF4" transform="translate(0,97)"/>
<path d="M0 0 C0.66 0.33 1.32 0.66 2 1 C1.46456089 5.60477637 0.53921666 9.99439461 -0.5625 14.5 C-2.26915805 21.21382917 -2.26915805 21.21382917 -2 28 C0.86615486 30.49540371 0.86615486 30.49540371 4 32 C3.67 32.66 3.34 33.32 3 34 C-0.28451428 33.43370443 -1.91110244 32.61167301 -4 30 C-4.38818359 27.91870117 -4.38818359 27.91870117 -4.3984375 25.54296875 C-4.40230469 24.67736328 -4.40617188 23.81175781 -4.41015625 22.91992188 C-4.39855469 22.01822266 -4.38695312 21.11652344 -4.375 20.1875 C-4.38660156 19.29740234 -4.39820313 18.40730469 -4.41015625 17.49023438 C-4.38659029 12.19182076 -3.80695639 8.63977624 -1 4 C-0.31363375 1.76474965 -0.31363375 1.76474965 0 0 Z " fill="#FCFAF0" transform="translate(4,62)"/>
<path d="M0 0 C0 0.99 0 1.98 0 3 C-3.96 4.98 -7.92 6.96 -12 9 C-12.66 7.68 -13.32 6.36 -14 5 C-17.0982878 4.07500217 -17.0982878 4.07500217 -20.625 3.75 C-21.81351562 3.60046875 -23.00203125 3.4509375 -24.2265625 3.296875 C-25.14179687 3.19890625 -26.05703125 3.1009375 -27 3 C-26.67 2.34 -26.34 1.68 -26 1 C-25.30519531 1.16113281 -24.61039062 1.32226562 -23.89453125 1.48828125 C-15.85080478 2.91031656 -7.76828773 2.43710988 0 0 Z " fill="#C0DBF5" transform="translate(142,123)"/>
<path d="M0 0 C0.598125 0.226875 1.19625 0.45375 1.8125 0.6875 C3.0625 7.3125 3.0625 7.3125 0.8125 10.6875 C-0.8375 10.3575 -2.4875 10.0275 -4.1875 9.6875 C-5.52304084 3.25262141 -5.52304084 3.25262141 -4 0.6875 C-2.1875 -0.3125 -2.1875 -0.3125 0 0 Z " fill="#F2F0F4" transform="translate(145.1875,78.3125)"/>
<path d="M0 0 C3.53571429 0.53571429 3.53571429 0.53571429 5 2 C5.1875 5.4375 5.1875 5.4375 5 9 C4.34 9.66 3.68 10.32 3 11 C0.06546739 10.63318342 -0.86437246 10.13562754 -3 8 C-2.54545455 2.54545455 -2.54545455 2.54545455 0 0 Z " fill="#F0EDF1" transform="translate(54,78)"/>
<path d="M0 0 C2.27076842 -0.02699725 4.54162821 -0.04639453 6.8125 -0.0625 C8.07707031 -0.07410156 9.34164062 -0.08570312 10.64453125 -0.09765625 C14 0 14 0 17 1 C17 1.66 17 2.32 17 3 C13.93466836 4.53266582 10.73245728 4.10276471 7.375 4.0625 C6.66859375 4.05798828 5.9621875 4.05347656 5.234375 4.04882812 C3.48954725 4.03703875 1.744763 4.01910324 0 4 C0 2.68 0 1.36 0 0 Z " fill="#F6F5F8" transform="translate(92,106)"/>
<path d="M0 0 C-1.03254155 2.77991956 -2.04100251 5.05857502 -3.75 7.5 C-5.34749483 9.98886107 -5.34749483 9.98886107 -4.1875 12.8125 C-3.795625 13.534375 -3.40375 14.25625 -3 15 C-7 11 -7 11 -8.5625 9.25 C-10.05980796 7.67191064 -10.05980796 7.67191064 -13 8 C-13 7.34 -13 6.68 -13 6 C-11.21118264 4.99491199 -9.41885304 3.99607264 -7.625 3 C-6.62726563 2.443125 -5.62953125 1.88625 -4.6015625 1.3125 C-2 0 -2 0 0 0 Z " fill="#210836" transform="translate(163,60)"/>
<path d="M0 0 C1.74991334 -0.02715383 3.49994945 -0.04646551 5.25 -0.0625 C6.71179688 -0.07990234 6.71179688 -0.07990234 8.203125 -0.09765625 C10.65758678 -0.01195577 12.66168914 0.29293934 15 1 C15 1.66 15 2.32 15 3 C10.38 2.34 5.76 1.68 1 1 C0.566875 3.3821875 0.566875 3.3821875 0.125 5.8125 C-0.50728374 9.29006055 -0.99706653 10.99559979 -3 14 C-3.53154742 12.39935157 -4.04988353 10.79431126 -4.5625 9.1875 C-4.85253906 8.29417969 -5.14257812 7.40085938 -5.44140625 6.48046875 C-6 4 -6 4 -5 1 C-4.01 2.32 -3.02 3.64 -2 5 C-1.34 3.35 -0.68 1.7 0 0 Z " fill="#0C0F40" transform="translate(102,154)"/>
<path d="M0 0 C0.33 0.66 0.66 1.32 1 2 C2.32 1.34 3.64 0.68 5 0 C5 7.92 5 15.84 5 24 C4.34 23.67 3.68 23.34 3 23 C3.0928125 21.39125 3.0928125 21.39125 3.1875 19.75 C3.21394741 14.82196548 1.96275521 10.36070286 0.65625 5.63671875 C0 3 0 3 0 0 Z " fill="#FCF9F0" transform="translate(195,67)"/>
<path d="M0 0 C-0.165 0.598125 -0.33 1.19625 -0.5 1.8125 C-1.1114124 4.11344336 -1.1114124 4.11344336 -1 7 C-1.66 6.67 -2.32 6.34 -3 6 C-2.690625 6.61875 -2.38125 7.2375 -2.0625 7.875 C-1.375 9.25 -0.6875 10.625 0 12 C-0.66 12 -1.32 12 -2 12 C-2.33 12.66 -2.66 13.32 -3 14 C-7 7.08154506 -7 7.08154506 -7 3.125 C-6 1 -6 1 -4.0625 -0.375 C-2 -1 -2 -1 0 0 Z " fill="#0ED9B9" transform="translate(80,159)"/>
<path d="M0 0 C1.32 0.33 2.64 0.66 4 1 C4.40368295 7.45892714 3.5915262 12.06108578 1 18 C-0.32 16.35 -1.64 14.7 -3 13 C-1.02 9.7 0.96 6.4 3 3 C2.34 3 1.68 3 1 3 C0.67 2.01 0.34 1.02 0 0 Z " fill="#F5C074" transform="translate(160,57)"/>
<path d="M0 0 C0.65484375 0.144375 1.3096875 0.28875 1.984375 0.4375 C10.64189866 2.19835227 19.72927731 3.78949476 28 0 C27.50390625 1.9609375 27.50390625 1.9609375 26 4 C23.20328905 4.41189553 20.7384924 4.60553176 17.9375 4.625 C15.26977267 4.67111456 12.66425755 4.79346841 10 5 C9.67 5.66 9.34 6.32 9 7 C7.4972763 6.02501855 5.99788037 5.04490611 4.5 4.0625 C3.6646875 3.51722656 2.829375 2.97195312 1.96875 2.41015625 C1.3190625 1.94480469 0.669375 1.47945313 0 1 C0 0.67 0 0.34 0 0 Z " fill="#C0DAF0" transform="translate(55,123)"/>
<path d="M0 0 C-0.33 1.32 -0.66 2.64 -1 4 C-6.28 3.34 -11.56 2.68 -17 2 C-10.84738248 -2.61446314 -7.1726764 -2.43870998 0 0 Z " fill="#27134B" transform="translate(114,104)"/>
<path d="M0 0 C0.66 0.33 1.32 0.66 2 1 C2 2.32 2 3.64 2 5 C4.64 5.66 7.28 6.32 10 7 C8 9 8 9 5.1875 9.3125 C1.67774407 8.96840628 -0.14864101 8.01272399 -3 6 C-2.625 3.5625 -2.625 3.5625 -2 1 C-1.34 0.67 -0.68 0.34 0 0 Z " fill="#22073E" transform="translate(46,91)"/>
<path d="M0 0 C3.96 1.98 7.92 3.96 12 6 C11.34 6.66 10.68 7.32 10 8 C9.34 7.67 8.68 7.34 8 7 C7.67 8.32 7.34 9.64 7 11 C2.80901128 7.25016798 1.88343932 5.65031797 0 0 Z " fill="#260D36" transform="translate(36,59)"/>
<path d="M0 0 C0.33 0.66 0.66 1.32 1 2 C0.67 2.99 0.34 3.98 0 5 C-4.62 5 -9.24 5 -14 5 C-12.68 4.34 -11.36 3.68 -10 3 C-9.67 2.34 -9.34 1.68 -9 1 C-6.93359375 0.5859375 -6.93359375 0.5859375 -4.4375 0.375 C-3.61121094 0.30023438 -2.78492187 0.22546875 -1.93359375 0.1484375 C-0.97646484 0.07496094 -0.97646484 0.07496094 0 0 Z " fill="#F7C471" transform="translate(104,91)"/>
<path d="M0 0 C0.66 0.99 1.32 1.98 2 3 C-2.29 4.65 -6.58 6.3 -11 8 C-9.57832479 2.31329916 -6.15816547 -1.16505833 0 0 Z " fill="#130842" transform="translate(84,153)"/>
<path d="M0 0 C-1.485 2.475 -1.485 2.475 -3 5 C-5.375 4.75 -5.375 4.75 -8 4 C-9.3125 1.9375 -9.3125 1.9375 -10 0 C-3.375 -1.125 -3.375 -1.125 0 0 Z " fill="#E5E3EA" transform="translate(83,140)"/>
<path d="M0 0 C2.97 0.33 5.94 0.66 9 1 C8.34 2.65 7.68 4.3 7 6 C4.625 5.8125 4.625 5.8125 2 5 C0.6875 2.4375 0.6875 2.4375 0 0 Z " fill="#EAE7ED" transform="translate(117,139)"/>
<path d="M0 0 C6.875 3.75 6.875 3.75 8 6 C6.02 6 4.04 6 2 6 C2 7.65 2 9.3 2 11 C0.5907717 8.3694405 -0.52274325 5.95899183 -1 3 C-0.67 2.01 -0.34 1.02 0 0 Z " fill="#30133A" transform="translate(63,75)"/>
<path d="M0 0 C4.62 0 9.24 0 14 0 C9.95443108 3.03417669 8.99159125 3.40526243 4.25 3.6875 C3.26515625 3.75324219 2.2803125 3.81898437 1.265625 3.88671875 C0.51796875 3.92410156 -0.2296875 3.96148437 -1 4 C-0.01 3.34 0.98 2.68 2 2 C1.34 1.34 0.68 0.68 0 0 Z " fill="#0F0134" transform="translate(93,102)"/>
<path d="M0 0 C6.6 0 13.2 0 20 0 C19.01 0.33 18.02 0.66 17 1 C17 1.66 17 2.32 17 3 C11.39 2.34 5.78 1.68 0 1 C0 0.67 0 0.34 0 0 Z " fill="#FCF4E3" transform="translate(108,0)"/>
<path d="M0 0 C1.11375 0.598125 2.2275 1.19625 3.375 1.8125 C4.00148438 2.14894531 4.62796875 2.48539062 5.2734375 2.83203125 C7 4 7 4 9 7 C7.68 7 6.36 7 5 7 C4.67 7.99 4.34 8.98 4 10 C3.32845067 8.71086513 2.66291141 7.41859796 2 6.125 C1.62875 5.40570313 1.2575 4.68640625 0.875 3.9453125 C0 2 0 2 0 0 Z " fill="#241942" transform="translate(47,118)"/>
<path d="M0 0 C1.485 0.99 1.485 0.99 3 2 C3 2.66 3 3.32 3 4 C5.475 4.99 5.475 4.99 8 6 C7.34 6.66 6.68 7.32 6 8 C3.5 7.875 3.5 7.875 1 7 C-0.3125 4.9375 -0.3125 4.9375 -1 3 C-0.67 2.67 -0.34 2.34 0 2 C0 1.34 0 0.68 0 0 Z " fill="#F3BD74" transform="translate(137,93)"/>
<path d="M0 0 C0.99 0.495 0.99 0.495 2 1 C1.938125 2.258125 1.87625 3.51625 1.8125 4.8125 C1.68966523 8.06725581 1.68966523 8.06725581 3.5 10.625 C3.995 11.07875 4.49 11.5325 5 12 C5.1875 15.1875 5.1875 15.1875 5 18 C2.21622453 15.59583028 0.98234594 13.55155842 0 10 C-0.15883546 6.65933154 -0.11679107 3.34152226 0 0 Z " fill="#1C052E" transform="translate(38,78)"/>
<path d="M0 0 C0.33 0.66 0.66 1.32 1 2 C-0.65 2.66 -2.3 3.32 -4 4 C-4 4.66 -4 5.32 -4 6 C-4.66 6 -5.32 6 -6 6 C-6 6.66 -6 7.32 -6 8 C-5.34 8.33 -4.68 8.66 -4 9 C-6.31 8.67 -8.62 8.34 -11 8 C-7.72291137 4.32966073 -4.28477792 2.30718811 0 0 Z " fill="#F5C573" transform="translate(50,13)"/>
<path d="M0 0 C5.28 0 10.56 0 16 0 C16 0.33 16 0.66 16 1 C14.43883181 1.33951619 12.87598662 1.67132544 11.3125 2 C10.00732422 2.2784375 10.00732422 2.2784375 8.67578125 2.5625 C6.06287036 2.98972047 3.64186962 3.07616201 1 3 C0.67 2.01 0.34 1.02 0 0 Z " fill="#FDFAF0" transform="translate(72,0)"/>
<path d="M0 0 C0.33 1.32 0.66 2.64 1 4 C-0.875 5.0625 -0.875 5.0625 -3 6 C-3.66 5.67 -4.32 5.34 -5 5 C-5 5.66 -5 6.32 -5 7 C-6.65 7 -8.3 7 -10 7 C-6.76478258 4.51137122 -3.40739705 2.24578442 0 0 Z " fill="#0F0A42" transform="translate(118,176)"/>
<path d="M0 0 C-1.32 2.31 -2.64 4.62 -4 7 C-4.99 6.34 -5.98 5.68 -7 5 C-6.67 3.35 -6.34 1.7 -6 0 C-2.25 -1.125 -2.25 -1.125 0 0 Z " fill="#B8D5F0" transform="translate(187,150)"/>
<path d="M0 0 C1.74627478 2.61941217 2.38722388 4.03824877 3 7 C4.32 6.67 5.64 6.34 7 6 C6.67 7.32 6.34 8.64 6 10 C1.125 8.125 1.125 8.125 0 7 C-0.04092937 4.66702567 -0.04241723 2.33294775 0 0 Z " fill="#F3C46F" transform="translate(1,83)"/>
<path d="M0 0 C0.99 0 1.98 0 3 0 C2.25 4.75 2.25 4.75 0 7 C0 7.66 0 8.32 0 9 C-0.66 9 -1.32 9 -2 9 C-3 6 -3 6 -1.5625 2.8125 C-1.046875 1.884375 -0.53125 0.95625 0 0 Z " fill="#110C44" transform="translate(125,165)"/>
<path d="M0 0 C3.3 0 6.6 0 10 0 C8.68 1.65 7.36 3.3 6 5 C5.01 4.67 4.02 4.34 3 4 C3 3.01 3 2.02 3 1 C2.01 1.33 1.02 1.66 0 2 C0 1.34 0 0.68 0 0 Z " fill="#F9FBFC" transform="translate(85,98)"/>
<path d="M0 0 C-1.1858237 3.37503669 -2.27573689 5.64722731 -5 8 C-5.33 6.02 -5.66 4.04 -6 2 C-2.25 0 -2.25 0 0 0 Z " fill="#291131" transform="translate(163,60)"/>
<path d="M0 0 C1.875 1.3125 1.875 1.3125 2.875 5.3125 C-0.095 4.3225 -3.065 3.3325 -6.125 2.3125 C-4.65791707 -0.62166587 -3.05900192 -0.98967709 0 0 Z " fill="#F7C370" transform="translate(66.125,40.6875)"/>
<path d="M0 0 C0.33 0 0.66 0 1 0 C1 1.98 1 3.96 1 6 C1.99 6 2.98 6 4 6 C3.67 7.65 3.34 9.3 3 11 C0.24438617 8.96324195 -0.03270868 7.84190804 -0.75 4.375 C-0.8325 3.26125 -0.915 2.1475 -1 1 C-0.67 0.67 -0.34 0.34 0 0 Z " fill="#2A194B" transform="translate(144,150)"/>
<path d="M0 0 C0.99 0 1.98 0 3 0 C3 0.66 3 1.32 3 2 C3.66 2 4.32 2 5 2 C5 2.66 5 3.32 5 4 C3.02 4.33 1.04 4.66 -1 5 C-1.33 4.01 -1.66 3.02 -2 2 C-1.34 2 -0.68 2 0 2 C0 1.34 0 0.68 0 0 Z " fill="#FCC160" transform="translate(64,66)"/>
<path d="M0 0 C1.98 0 3.96 0 6 0 C2.80009492 2.74277578 -0.00499382 4.6302836 -4 6 C-4.33 5.01 -4.66 4.02 -5 3 C-4.34 2.67 -3.68 2.34 -3 2 C-2.01 2.33 -1.02 2.66 0 3 C0 2.01 0 1.02 0 0 Z " fill="#F0BF71" transform="translate(155,60)"/>
<path d="M0 0 C0.99 0.33 1.98 0.66 3 1 C1.18705073 3.7194239 -0.66475218 5.74259377 -3 8 C-3.99 7.67 -4.98 7.34 -6 7 C-4.02 4.69 -2.04 2.38 0 0 Z " fill="#F7C371" transform="translate(27,31)"/>
<path d="M0 0 C5.94 0.99 5.94 0.99 12 2 C12 2.33 12 2.66 12 3 C8.04 3 4.08 3 0 3 C0 2.01 0 1.02 0 0 Z " fill="#F4FAFA" transform="translate(76,197)"/>
<path d="M0 0 C-3.41016497 2.86453858 -6.90694544 4.34703566 -11 6 C-11.66 5.34 -12.32 4.68 -13 4 C-11.35 4 -9.7 4 -8 4 C-8 3.34 -8 2.68 -8 2 C-4.77208445 -0.1519437 -3.71599191 -0.20086443 0 0 Z " fill="#F5C478" transform="translate(69,106)"/>
<path d="M0 0 C0.33 0.99 0.66 1.98 1 3 C-0.65 4.65 -2.3 6.3 -4 8 C-4 5.33579484 -3.90837763 3.47739354 -3 1 C-2.01 0.67 -1.02 0.34 0 0 Z " fill="#19073E" transform="translate(130,170)"/>
<path d="M0 0 C0.33 0 0.66 0 1 0 C1 1.98 1 3.96 1 6 C1.66 6.33 2.32 6.66 3 7 C1.02 7.99 1.02 7.99 -1 9 C-1.625 5.625 -1.625 5.625 -2 2 C-1.34 1.34 -0.68 0.68 0 0 Z " fill="#200248" transform="translate(138,80)"/>
<path d="M0 0 C0 0.33 0 0.66 0 1 C-0.60328125 1.12117188 -1.2065625 1.24234375 -1.828125 1.3671875 C-2.62734375 1.53476562 -3.4265625 1.70234375 -4.25 1.875 C-5.03890625 2.03742187 -5.8278125 2.19984375 -6.640625 2.3671875 C-8.96831144 2.99150075 -10.89031952 3.84838542 -13 5 C-13.66 4.34 -14.32 3.68 -15 3 C-9.63560356 0.31780178 -5.98993047 -0.3152595 0 0 Z " fill="#FBF0D7" transform="translate(147,42)"/>
<path d="M0 0 C-2 2 -2 2 -5.125 2.125 C-6.548125 2.063125 -6.548125 2.063125 -8 2 C-8.33 1.34 -8.66 0.68 -9 0 C-5.93109813 -1.53445094 -3.29905734 -0.54984289 0 0 Z " fill="#351839" transform="translate(153,98)"/>
<path d="M0 0 C-2.97 2.475 -2.97 2.475 -6 5 C-6.33 3.68 -6.66 2.36 -7 1 C-3.375 -1.125 -3.375 -1.125 0 0 Z " fill="#240738" transform="translate(159,94)"/>
<path d="M0 0 C2.64 0 5.28 0 8 0 C5.29811996 1.80125336 3.06942297 3.00243753 0 4 C-0.99 3.67 -1.98 3.34 -3 3 C-2.34 3 -1.68 3 -1 3 C-0.67 2.01 -0.34 1.02 0 0 Z " fill="#FDF8ED" transform="translate(65,3)"/>
<path d="M0 0 C1 3 1 3 0.0625 5.1875 C-0.4634375 6.0846875 -0.4634375 6.0846875 -1 7 C-1.99 6.67 -2.98 6.34 -4 6 C-4 5.01 -4 4.02 -4 3 C-2 1.3125 -2 1.3125 0 0 Z " fill="#25163E" transform="translate(151,118)"/>
<path d="M0 0 C2.31 0.33 4.62 0.66 7 1 C5 3 5 3 1.875 3.125 C0.451875 3.063125 0.451875 3.063125 -1 3 C-0.67 2.01 -0.34 1.02 0 0 Z " fill="#35193C" transform="translate(49,97)"/>
<path d="M0 0 C0.6875 1.75 0.6875 1.75 1 4 C-0.4375 6.25 -0.4375 6.25 -2 8 C-2.33 6.02 -2.66 4.04 -3 2 C-2.01 1.34 -1.02 0.68 0 0 Z " fill="#17CDB3" transform="translate(76,159)"/>
<path d="M0 0 C0.33 0.66 0.66 1.32 1 2 C2.32 1.67 3.64 1.34 5 1 C5 1.66 5 2.32 5 3 C2.03 3.66 -0.94 4.32 -4 5 C-2.68 3.35 -1.36 1.7 0 0 Z " fill="#B9CDEB" transform="translate(181,140)"/>
<path d="M0 0 C0 0.99 0 1.98 0 3 C-0.99 3.33 -1.98 3.66 -3 4 C-3.66 3.67 -4.32 3.34 -5 3 C-4.67 3.99 -4.34 4.98 -4 6 C-4.99 6 -5.98 6 -7 6 C-7 4.68 -7 3.36 -7 2 C-4.69 1.34 -2.38 0.68 0 0 Z " fill="#16033A" transform="translate(147,87)"/>
<path d="M0 0 C1.65 1.65 3.3 3.3 5 5 C4.01 5.33 3.02 5.66 2 6 C1.67 6.66 1.34 7.32 1 8 C0.67 5.36 0.34 2.72 0 0 Z " fill="#F3C472" transform="translate(177,37)"/>
</svg>
