<svg xmlns="http://www.w3.org/2000/svg" xmlns:xlink="http://www.w3.org/1999/xlink" width="200" zoomAndPan="magnify" viewBox="0 0 150 149.999998" height="200" preserveAspectRatio="xMidYMid meet" version="1.0"><defs><g/><clipPath id="75a51beb0b"><path d="M 5.777344 5.777344 L 144.222656 5.777344 L 144.222656 144.222656 L 5.777344 144.222656 Z M 5.777344 5.777344 " clip-rule="nonzero"/></clipPath><clipPath id="6017583b94"><path d="M 75 5.777344 C 36.769531 5.777344 5.777344 36.769531 5.777344 75 C 5.777344 113.230469 36.769531 144.222656 75 144.222656 C 113.230469 144.222656 144.222656 113.230469 144.222656 75 C 144.222656 36.769531 113.230469 5.777344 75 5.777344 " clip-rule="nonzero"/></clipPath><clipPath id="c97003abac"><path d="M 5.777344 5.777344 L 144.527344 5.777344 L 144.527344 144.527344 L 5.777344 144.527344 Z M 5.777344 5.777344 " clip-rule="nonzero"/></clipPath><clipPath id="ab70647d88"><path d="M 75.152344 5.777344 C 36.835938 5.777344 5.777344 36.835938 5.777344 75.152344 C 5.777344 113.464844 36.835938 144.527344 75.152344 144.527344 C 113.464844 144.527344 144.527344 113.464844 144.527344 75.152344 C 144.527344 36.835938 113.464844 5.777344 75.152344 5.777344 " clip-rule="nonzero"/></clipPath><clipPath id="8d903975d7"><path d="M 29 15.195312 L 73 15.195312 L 73 45 L 29 45 Z M 29 15.195312 " clip-rule="nonzero"/></clipPath><clipPath id="2b4734772a"><path d="M 12.027344 34 L 78.203125 34 L 78.203125 135.195312 L 12.027344 135.195312 Z M 12.027344 34 " clip-rule="nonzero"/></clipPath><clipPath id="644c6d7223"><path d="M 76 15.195312 L 120 15.195312 L 120 45 L 76 45 Z M 76 15.195312 " clip-rule="nonzero"/></clipPath><clipPath id="49f0fd3082"><path d="M 71 34 L 137.277344 34 L 137.277344 135.195312 L 71 135.195312 Z M 71 34 " clip-rule="nonzero"/></clipPath><clipPath id="75d2e841be"><path d="M 36.722656 68.878906 L 47.960938 68.878906 L 47.960938 80.878906 L 36.722656 80.878906 Z M 36.722656 68.878906 " clip-rule="nonzero"/></clipPath><clipPath id="743c7c4499"><path d="M 99.820312 68.878906 L 110.320312 68.878906 L 110.320312 80.878906 L 99.820312 80.878906 Z M 99.820312 68.878906 " clip-rule="nonzero"/></clipPath></defs><g clip-path="url(#75a51beb0b)"><g clip-path="url(#6017583b94)"><path fill="#fbc02e" d="M 5.777344 5.777344 L 144.222656 5.777344 L 144.222656 144.222656 L 5.777344 144.222656 Z M 5.777344 5.777344 " fill-opacity="1" fill-rule="nonzero"/></g></g><g clip-path="url(#c97003abac)"><g clip-path="url(#ab70647d88)"><path stroke-linecap="butt" transform="matrix(0.75165, 0, 0, 0.75165, 5.776727, 5.776728)" fill="none" stroke-linejoin="miter" d="M 92.297716 0.00081922 C 41.321351 0.00081922 0.000820218 41.32135 0.000820218 92.297715 C 0.000820218 143.268884 41.321351 184.594611 92.297716 184.594611 C 143.268885 184.594611 184.594612 143.268884 184.594612 92.297715 C 184.594612 41.32135 143.268885 0.00081922 92.297716 0.00081922 " stroke="#ffeb3b" stroke-width="2" stroke-opacity="1" stroke-miterlimit="4"/></g></g><g clip-path="url(#8d903975d7)"><path fill="#ffeb3b" d="M 31.796875 38.683594 C 32.25 39.816406 32.527344 40.929688 31.503906 41.9375 C 31.429688 42.015625 31.367188 42.101562 31.308594 42.195312 L 29.628906 44.402344 L 30.183594 44.015625 L 31.726562 41.910156 C 31.953125 41.632812 32.175781 41.355469 32.472656 41.171875 C 32.652344 41.0625 32.859375 40.988281 33.109375 40.96875 C 33.382812 41.121094 33.644531 41.289062 33.914062 41.445312 C 34.183594 41.605469 34.453125 41.753906 34.742188 41.859375 C 35.378906 42.105469 36.066406 42.335938 36.738281 42.355469 C 38.371094 42.398438 41.550781 40.953125 41.796875 40.746094 C 40.847656 40.398438 40.03125 40.070312 39.199219 39.792969 C 38.722656 39.640625 38.226562 39.546875 37.734375 39.46875 C 37.539062 39.4375 37.347656 39.414062 37.15625 39.398438 C 35.820312 39.285156 34.234375 39.605469 33.191406 40.601562 C 32.722656 40.332031 34.617188 38.753906 35.292969 37.867188 C 36.066406 36.851562 36.921875 37.160156 36.988281 37.128906 C 37.277344 37.378906 37.558594 37.640625 37.855469 37.875 C 38.703125 38.535156 39.648438 38.964844 40.738281 38.890625 C 41.5 38.839844 42.269531 38.738281 43.011719 38.554688 C 43.707031 38.386719 44.371094 38.082031 45.046875 37.835938 C 45.054688 37.746094 45.0625 37.65625 45.070312 37.566406 C 44.339844 37.210938 43.617188 36.839844 42.871094 36.515625 C 42.433594 36.328125 41.960938 36.214844 41.503906 36.070312 C 41.332031 36.015625 41.164062 35.96875 40.992188 35.929688 C 39.804688 35.660156 38.660156 35.78125 37.582031 36.496094 C 37.226562 36.585938 36.871094 36.671875 36.421875 36.785156 C 36.617188 36.574219 36.742188 36.414062 36.894531 36.277344 C 37.660156 35.582031 38.445312 34.90625 39.195312 34.195312 C 39.589844 33.820312 39.976562 33.492188 40.5625 33.546875 C 41.851562 34.582031 43.039062 35.921875 44.859375 35.808594 C 46.164062 35.730469 47.574219 35.867188 48.753906 34.957031 C 48.195312 34.289062 47.558594 33.820312 46.757812 33.582031 C 46.460938 33.492188 46.148438 33.410156 45.898438 33.25 C 44.796875 32.539062 43.59375 32.511719 42.378906 32.757812 C 41.8125 32.875 41.285156 33.175781 40.738281 33.394531 C 40.636719 33.355469 40.535156 33.320312 40.347656 33.253906 C 41.070312 32.675781 41.761719 32.121094 42.449219 31.574219 L 43.351562 30.941406 C 43.441406 30.894531 43.53125 30.847656 43.609375 30.789062 C 44.289062 30.304688 44.542969 30.296875 45.207031 30.796875 C 45.378906 30.921875 45.5625 31.046875 45.683594 31.214844 C 47.074219 33.15625 49.113281 33.296875 51.222656 33.152344 C 51.757812 33.117188 52.277344 32.859375 52.859375 32.6875 C 52.367188 31.941406 51.828125 31.445312 51.117188 31.136719 C 50.785156 30.992188 50.441406 30.839844 50.148438 30.632812 C 49.042969 29.84375 47.820312 29.648438 46.511719 29.839844 C 45.902344 29.929688 45.300781 30.058594 44.691406 30.167969 C 44.671875 30.125 48.851562 27.570312 48.851562 27.570312 C 48.863281 27.570312 49.242188 27.765625 49.339844 27.859375 C 49.621094 28.121094 51.613281 30.4375 52.746094 30.683594 C 53.839844 30.917969 57.003906 30.542969 56.632812 30.054688 C 55.847656 29.019531 53.800781 26.542969 49.488281 27.234375 C 49.722656 27.078125 49.789062 27.058594 50.078125 26.863281 L 50.136719 26.839844 C 50.144531 26.835938 50.152344 26.832031 50.160156 26.828125 L 54.015625 25.210938 C 54.074219 25.476562 54.359375 25.886719 54.664062 26.386719 C 55.136719 27.160156 55.632812 27.878906 56.40625 28.363281 C 57.820312 29.246094 59.339844 29.273438 61.070312 28.890625 C 60.769531 28.410156 60.589844 27.976562 60.28125 27.660156 C 59.71875 27.085938 59.113281 26.542969 58.472656 26.050781 C 57.667969 25.433594 56.671875 25.363281 55.707031 25.113281 C 55.316406 25.015625 55.007812 24.949219 54.765625 24.914062 C 55.542969 24.636719 57.714844 23.875 58.359375 23.742188 C 58.609375 23.703125 58.96875 23.773438 59.140625 23.9375 C 59.4375 24.21875 59.695312 24.585938 59.859375 24.964844 C 60.535156 26.550781 61.65625 27.605469 63.367188 27.941406 C 64.214844 28.105469 65.085938 28.136719 66.027344 27.8125 C 65.890625 27.53125 65.820312 27.265625 65.652344 27.078125 C 65.25 26.613281 64.75 26.226562 64.386719 25.738281 C 63.5 24.539062 62.304688 23.9375 60.863281 23.742188 C 60.304688 23.667969 59.734375 23.632812 59.019531 23.566406 C 59.3125 23.460938 59.46875 23.390625 59.625 23.351562 C 60.792969 23.070312 61.953125 22.792969 63.121094 22.527344 C 64.003906 22.324219 64.230469 22.449219 64.582031 23.269531 C 64.65625 23.449219 64.71875 23.632812 64.785156 23.8125 C 65.328125 25.296875 66.414062 26.125 67.964844 26.324219 C 68.433594 26.386719 68.921875 26.296875 69.527344 26.273438 C 68.226562 24.265625 67.023438 22.441406 64.425781 22.402344 C 65.714844 21.808594 66.058594 21.863281 67.117188 22.484375 C 67.605469 22.773438 68.164062 22.960938 68.707031 23.136719 C 69.753906 23.480469 72.535156 21.617188 72.828125 20.863281 C 72.539062 20.929688 70.976562 21.199219 70.507812 21.027344 C 68.855469 20.441406 67.394531 20.804688 65.980469 21.679688 C 65.753906 21.820312 64.839844 21.984375 64.820312 21.9375 C 64.980469 21.84375 65.460938 21.597656 65.628906 21.523438 C 67.960938 20.480469 68.796875 18.445312 69.234375 16.078125 C 67.9375 16.289062 66.839844 16.8125 66.007812 17.824219 C 65.226562 18.769531 64.890625 19.925781 64.484375 21.046875 C 64.234375 21.734375 63.792969 22.226562 62.996094 22.332031 C 62.484375 22.398438 61.980469 22.550781 61.46875 22.664062 C 60.964844 22.777344 60.460938 22.886719 59.878906 23.019531 C 59.972656 22.910156 62.535156 21.105469 63.421875 19.796875 C 64.347656 18.433594 64.105469 16.78125 64.65625 15.332031 C 64.664062 15.304688 64.628906 15.265625 64.613281 15.230469 C 64.578125 15.21875 64.539062 15.191406 64.507812 15.195312 C 64.449219 15.199219 64.394531 15.222656 64.339844 15.238281 C 62.042969 15.96875 60.578125 17.519531 59.871094 19.792969 C 59.632812 20.5625 59.511719 21.367188 59.261719 22.132812 C 59.007812 22.902344 58.585938 23.550781 57.671875 23.707031 C 57.605469 23.71875 57.542969 23.738281 57.480469 23.757812 L 55.386719 24.328125 C 56.492188 23.664062 57.257812 22.15625 57.257812 22.15625 C 57.59375 21.414062 58.167969 20.75 58.363281 19.980469 C 58.652344 18.820312 58.703125 17.601562 58.851562 16.40625 C 58.855469 16.375 58.824219 16.339844 58.808594 16.304688 C 58.691406 16.3125 58.550781 16.351562 58.398438 16.417969 C 57.84375 16.652344 57.113281 17.207031 56.527344 17.730469 C 56.488281 17.765625 56.449219 17.800781 56.410156 17.835938 C 56.320312 17.917969 56.234375 18 56.152344 18.078125 C 56.125 18.109375 56.09375 18.132812 56.066406 18.160156 C 55.960938 18.269531 55.867188 18.367188 55.789062 18.453125 C 54.742188 19.640625 54.636719 21.175781 54.292969 22.617188 C 54.136719 23.285156 54.195312 24.605469 54.140625 24.691406 L 49.496094 27.007812 C 50.613281 26.015625 52.570312 23.660156 52.855469 21.800781 C 53.011719 20.78125 52.996094 19.738281 53.03125 18.703125 C 53.039062 18.46875 52.945312 18.230469 52.886719 17.945312 C 52.746094 18.007812 52.65625 18.039062 52.574219 18.082031 C 51.554688 18.605469 50.910156 19.492188 50.324219 20.425781 C 49.390625 21.914062 49.027344 23.554688 49.183594 25.285156 C 49.269531 26.238281 48.773438 27.410156 47.957031 27.867188 C 47.519531 28.109375 47.089844 28.371094 46.65625 28.625 C 46.222656 28.871094 45.785156 29.117188 45.351562 29.363281 C 46.550781 28.046875 47.417969 26.597656 47.730469 24.851562 C 48.011719 23.304688 47.382812 21.816406 47.402344 20.285156 C 47.402344 20.261719 47.351562 20.238281 47.304688 20.195312 C 47.167969 20.28125 47.015625 20.363281 46.878906 20.46875 C 46.714844 20.601562 46.539062 20.730469 46.402344 20.890625 C 44.742188 22.859375 43.992188 25.109375 44.300781 27.691406 C 44.441406 28.878906 44.507812 30.058594 43.257812 30.796875 L 42.472656 31.351562 C 42.457031 31.359375 42.441406 31.367188 42.429688 31.378906 C 42.253906 31.5 42.082031 31.625 41.90625 31.75 L 41.875 31.773438 L 41.878906 31.773438 C 41.558594 32.007812 41.242188 32.25 40.921875 32.488281 C 40.898438 32.335938 40.945312 32.261719 41 32.195312 C 42.617188 30.078125 43.46875 27.8125 42.457031 25.148438 C 42.347656 24.851562 42.382812 24.503906 42.34375 24.179688 C 42.296875 23.761719 42.242188 23.339844 42.191406 22.921875 C 41.832031 23.160156 41.609375 23.398438 41.425781 23.664062 C 40.519531 24.992188 39.601562 26.347656 39.574219 28.015625 C 39.558594 29.175781 39.753906 30.34375 39.882812 31.507812 C 39.996094 32.503906 39.976562 33.429688 39.003906 34.058594 C 38.75 34.226562 38.546875 34.472656 38.316406 34.679688 C 37.808594 35.128906 37.300781 35.574219 36.839844 35.980469 C 37.210938 35.164062 37.652344 34.347656 37.960938 33.484375 C 38.425781 32.167969 38.503906 30.808594 38.070312 29.453125 C 37.71875 28.351562 37.335938 27.257812 36.929688 26.054688 C 36.613281 26.5 36.195312 26.886719 36.019531 27.363281 C 35.671875 28.308594 35.449219 29.304688 35.1875 30.285156 C 35.121094 30.542969 35.101562 30.8125 35.082031 31.082031 C 34.980469 32.390625 35.261719 33.644531 35.652344 34.882812 C 35.90625 35.6875 36.097656 36.566406 35.539062 37.273438 C 34.796875 38.21875 33.769531 39.285156 32.9375 40.179688 C 33.226562 39.410156 33.699219 38.445312 33.921875 37.679688 C 34.363281 36.152344 34.332031 34.628906 33.699219 33.152344 C 33.195312 31.976562 32.671875 30.8125 32.125 29.566406 C 32.054688 29.640625 31.339844 31.859375 31.140625 32.832031 C 31.097656 33.039062 30.25 35.601562 31.402344 37.71875 C 31.570312 38.023438 31.671875 38.359375 31.796875 38.683594 " fill-opacity="1" fill-rule="nonzero"/></g><g clip-path="url(#2b4734772a)"><path fill="#ffeb3b" d="M 78.136719 131.78125 C 78.066406 131.664062 77.964844 131.550781 77.828125 131.441406 C 77.457031 131.140625 76.910156 130.726562 76.371094 130.328125 C 75.046875 129.359375 73.546875 128.652344 71.949219 128.273438 C 71.71875 128.21875 71.523438 128.183594 71.398438 128.167969 C 70.617188 128.09375 70.382812 127.605469 70.234375 126.902344 C 70.179688 126.648438 70.144531 126.390625 70.128906 126.128906 C 70.058594 125.089844 69.75 124.132812 69.027344 123.363281 C 68.636719 122.949219 68.132812 122.644531 67.707031 122.265625 C 66.789062 121.453125 65.886719 120.621094 64.941406 119.765625 C 65.085938 120.539062 65.164062 121.28125 65.371094 121.988281 C 65.601562 122.773438 66.019531 125.464844 68.421875 126.964844 C 69.023438 127.339844 69.691406 127.609375 70.324219 127.925781 C 68.765625 127.855469 67.234375 127.6875 65.703125 127.488281 C 65.523438 127.464844 65.351562 127.304688 65.320312 127.128906 C 65.1875 126.460938 65.058594 125.785156 65.019531 125.105469 C 64.933594 123.726562 64.453125 122.59375 63.335938 121.707031 C 62.710938 121.210938 62.203125 120.5625 61.660156 119.96875 C 61.261719 119.53125 60.886719 119.066406 60.46875 118.570312 C 60.535156 119.359375 60.574219 120.046875 60.65625 120.730469 C 60.710938 121.1875 60.789062 124.457031 63.667969 126.453125 C 64.070312 126.734375 64.507812 126.96875 65.082031 127.316406 C 64.746094 127.289062 64.582031 127.292969 64.421875 127.261719 C 63.292969 127.015625 62.164062 126.765625 61.03125 126.515625 C 60.1875 126.328125 59.917969 126.015625 59.90625 125.179688 C 59.90625 125.03125 59.921875 124.882812 59.945312 124.734375 C 60.140625 123.503906 60.070312 122.3125 59.363281 121.253906 C 59.042969 120.777344 58.628906 120.367188 58.28125 119.910156 C 57.566406 118.96875 56.863281 118.015625 56.140625 117.042969 C 56.140625 118.089844 56.128906 119.117188 56.152344 120.140625 C 56.15625 120.382812 56.136719 123.496094 58.617188 125.234375 C 59.003906 125.503906 59.378906 125.789062 59.859375 126.140625 C 59.640625 126.128906 59.542969 126.140625 59.457031 126.113281 C 58.257812 125.734375 57.054688 125.378906 55.867188 124.96875 C 55.027344 124.675781 54.863281 124.351562 54.972656 123.460938 C 54.992188 123.304688 55.027344 123.148438 55.066406 122.996094 C 55.46875 121.382812 55.296875 119.910156 54.15625 118.605469 C 53.703125 118.089844 53.363281 117.476562 53.015625 116.878906 C 52.683594 116.308594 52.40625 115.699219 52.105469 115.109375 C 51.96875 115.28125 51.945312 115.425781 51.933594 115.570312 C 51.886719 116.121094 51.828125 116.675781 51.808594 117.230469 C 51.789062 117.761719 51.800781 118.292969 51.824219 118.824219 C 51.835938 119.109375 51.265625 121.617188 53.410156 123.210938 C 53.890625 123.570312 54.289062 124.03125 54.855469 124.554688 C 54.566406 124.472656 54.4375 124.445312 54.320312 124.398438 C 53.238281 123.9375 52.152344 123.476562 51.074219 123.007812 C 50.113281 122.589844 49.960938 122.238281 50.222656 121.183594 C 50.261719 121.035156 50.3125 120.886719 50.367188 120.742188 C 50.957031 119.203125 50.800781 117.773438 49.886719 116.402344 C 49.503906 115.835938 49.210938 115.199219 48.921875 114.578125 C 48.632812 113.949219 48.402344 113.300781 48.105469 112.554688 C 47.976562 113.289062 47.867188 113.886719 47.769531 114.492188 C 47.675781 115.09375 47.640625 115.707031 47.515625 116.300781 C 47.160156 117.996094 47.910156 119.960938 48.820312 121.121094 C 49.128906 121.507812 49.476562 121.863281 49.808594 122.234375 C 49.617188 122.246094 49.457031 122.195312 49.3125 122.117188 C 48.316406 121.566406 47.3125 121.023438 46.332031 120.453125 C 45.480469 119.957031 45.371094 119.464844 45.773438 118.453125 C 45.828125 118.3125 45.894531 118.175781 45.964844 118.039062 C 46.414062 117.132812 46.554688 116.171875 46.320312 115.199219 C 46.175781 114.59375 45.867188 114.03125 45.660156 113.4375 C 45.394531 112.679688 45.171875 111.910156 44.910156 111.152344 C 44.777344 110.769531 44.605469 110.40625 44.402344 109.917969 C 44.261719 110.472656 44.210938 110.925781 44.03125 111.316406 C 43.617188 112.21875 43.457031 113.148438 43.5 114.125 C 43.507812 114.296875 43.476562 114.472656 43.4375 114.640625 C 43.179688 115.691406 43.382812 116.683594 43.875 117.601562 C 44.265625 118.339844 44.769531 119.015625 45.308594 119.847656 C 44.265625 119.136719 43.328125 118.488281 42.382812 117.851562 L 41.605469 117.257812 C 41.113281 116.761719 41.078125 116.53125 41.371094 115.816406 C 41.488281 115.535156 41.652344 115.269531 41.808594 115.003906 C 42.390625 114.015625 42.621094 112.949219 42.371094 111.835938 C 42.066406 110.472656 41.6875 109.125 41.332031 107.773438 C 41.257812 107.484375 41.160156 107.203125 41.039062 106.804688 C 40.808594 107.433594 40.605469 107.945312 40.429688 108.46875 C 40.191406 109.171875 39.964844 109.875 39.75 110.585938 C 39.6875 110.785156 39.691406 111.007812 39.628906 111.203125 C 39.234375 112.417969 39.332031 113.605469 39.871094 114.746094 C 40.175781 115.382812 40.550781 115.992188 40.890625 116.613281 C 39.804688 115.820312 38.789062 114.964844 37.796875 114.085938 C 37.078125 113.453125 37.03125 113.035156 37.53125 112.199219 C 37.667969 111.96875 37.847656 111.761719 38 111.542969 C 38.738281 110.476562 39.09375 109.28125 38.800781 108.035156 C 38.539062 106.925781 38.253906 105.84375 38.261719 104.695312 C 38.265625 104.285156 38.101562 103.871094 38.019531 103.488281 C 37.605469 104.191406 37.183594 104.855469 36.824219 105.550781 C 36.617188 105.957031 36.246094 107.417969 36.132812 107.683594 C 35.652344 108.820312 35.644531 109.976562 36.039062 111.128906 C 36.269531 111.804688 36.582031 112.453125 36.859375 113.117188 C 35.878906 112.226562 34.96875 111.285156 34.074219 110.328125 C 33.386719 109.59375 33.386719 109.070312 34.046875 108.285156 C 34.210938 108.09375 34.398438 107.925781 34.558594 107.730469 C 35.398438 106.6875 35.738281 105.507812 35.609375 104.167969 C 35.511719 103.175781 35.464844 102.179688 35.414062 101.183594 C 35.390625 100.714844 35.410156 100.242188 35.410156 99.617188 C 34.941406 100.304688 34.554688 100.824219 34.222656 101.371094 C 33.898438 101.90625 32.039062 104.042969 32.617188 107.195312 C 32.746094 107.898438 33.019531 108.570312 33.238281 109.300781 C 33.125 109.199219 33.027344 109.128906 32.957031 109.039062 C 32.175781 108.058594 31.398438 107.078125 30.628906 106.085938 C 30.144531 105.464844 30.144531 105.121094 30.621094 104.488281 C 30.796875 104.261719 31.011719 104.0625 31.226562 103.871094 C 32.25 102.945312 32.820312 101.8125 32.875 100.425781 C 32.921875 99.277344 32.984375 98.132812 33.03125 96.984375 C 33.046875 96.59375 33.03125 96.199219 33.03125 95.707031 C 32.644531 96.21875 32.367188 96.6875 31.988281 97.050781 C 29.851562 99.097656 29.367188 101.800781 29.574219 102.992188 C 29.679688 103.621094 29.8125 104.25 29.960938 105.027344 C 29.804688 104.84375 29.734375 104.785156 29.6875 104.710938 C 29.050781 103.722656 28.417969 102.730469 27.78125 101.746094 C 27.285156 100.972656 27.320312 100.574219 27.972656 99.933594 C 28.152344 99.761719 28.363281 99.621094 28.5625 99.46875 C 29.574219 98.683594 30.296875 97.710938 30.488281 96.417969 C 30.660156 95.261719 30.804688 94.105469 30.964844 92.949219 C 31.011719 92.605469 31.0625 92.257812 31.109375 91.914062 C 30.664062 92.246094 30.203125 92.566406 29.804688 92.949219 C 29.339844 93.394531 28.945312 93.917969 28.542969 94.421875 C 28.320312 94.699219 28.132812 95 27.976562 95.3125 C 27.640625 95.988281 27.1875 96.65625 27.085938 97.367188 C 26.941406 98.429688 27.078125 99.53125 27.089844 100.589844 C 26.53125 99.457031 25.902344 98.269531 25.347656 97.046875 C 24.902344 96.066406 25.054688 95.683594 25.949219 95.039062 C 26.050781 94.964844 26.164062 94.898438 26.277344 94.839844 C 27.480469 94.203125 28.207031 93.179688 28.578125 91.921875 C 28.753906 91.339844 28.78125 90.710938 28.886719 90.109375 C 28.976562 89.609375 29.089844 89.113281 29.191406 88.617188 C 29.386719 88.171875 29.578125 87.730469 29.832031 87.15625 C 29.613281 87.273438 29.527344 87.304688 29.457031 87.359375 C 28.859375 87.835938 28.253906 88.304688 27.675781 88.804688 C 27.386719 89.058594 27.148438 89.371094 26.898438 89.667969 C 26.621094 89.988281 26.351562 90.308594 26.089844 90.636719 C 25.917969 90.851562 25.507812 91.414062 25.46875 91.476562 C 25.433594 91.535156 25.402344 91.589844 25.371094 91.644531 C 25.351562 91.6875 25.269531 91.882812 25.242188 91.933594 C 24.464844 93.265625 24.839844 95.070312 24.839844 95.921875 C 24.597656 95.34375 24.371094 94.804688 24.148438 94.273438 L 23.789062 93.347656 C 23.632812 92.902344 23.472656 92.457031 23.3125 92.015625 C 23.003906 91.175781 23.085938 90.898438 23.828125 90.378906 C 24.015625 90.246094 24.238281 90.164062 24.445312 90.0625 C 25.894531 89.367188 26.886719 88.324219 27.238281 86.6875 C 27.40625 85.894531 27.78125 85.144531 28.066406 84.375 C 28.234375 83.925781 28.40625 83.480469 28.574219 83.03125 C 27.851562 83.339844 27.226562 83.640625 26.6875 84.058594 C 26.070312 84.535156 25.566406 85.15625 24.949219 85.640625 C 23.964844 86.410156 23.425781 87.421875 23.210938 88.609375 C 23.078125 89.332031 22.882812 90.671875 22.859375 90.585938 C 22.527344 89.363281 22.183594 88.144531 21.882812 86.914062 C 21.660156 86.007812 21.792969 85.722656 22.554688 85.289062 C 22.734375 85.183594 22.953125 85.144531 23.152344 85.078125 C 24.539062 84.617188 25.386719 83.828125 25.910156 82.878906 C 26.011719 82.6875 27.242188 79.941406 27.5625 79.382812 C 27.746094 79.058594 27.871094 78.699219 28.035156 78.324219 C 27.253906 78.691406 24.425781 80.527344 24.167969 80.6875 C 22.894531 81.46875 22.238281 82.644531 21.941406 84.058594 C 21.832031 84.585938 21.539062 85.230469 21.453125 85.226562 C 21.226562 83.710938 21.050781 82.621094 20.84375 81.101562 C 20.824219 80.949219 20.929688 80.691406 21.054688 80.625 C 21.558594 80.355469 22.085938 80.128906 22.617188 79.914062 C 23.242188 79.660156 25.261719 78.179688 25.558594 77.707031 C 26.398438 76.375 27.15625 74.988281 27.898438 73.703125 C 27.335938 73.925781 26.65625 74.175781 25.996094 74.460938 C 25.507812 74.675781 22.339844 76.289062 21.589844 78.09375 C 21.5625 78.15625 21.527344 78.210938 21.5 78.269531 C 21.199219 78.921875 21.035156 79.636719 20.8125 80.324219 C 20.640625 79.074219 20.566406 77.816406 20.480469 76.5625 C 20.464844 76.324219 20.433594 76.089844 20.449219 75.859375 C 20.457031 75.800781 20.464844 75.746094 20.476562 75.691406 C 20.480469 75.660156 20.488281 75.632812 20.496094 75.605469 C 20.535156 75.46875 20.605469 75.335938 20.722656 75.210938 C 20.722656 75.210938 21.949219 74.910156 22.566406 74.765625 C 23.984375 74.425781 25.109375 73.71875 25.8125 72.382812 C 26.128906 71.777344 26.574219 71.230469 27.003906 70.691406 C 27.425781 70.15625 27.90625 69.664062 28.394531 69.117188 C 27.449219 69.363281 26.578125 69.582031 25.714844 69.824219 C 25.457031 69.894531 25.210938 70.019531 24.972656 70.140625 C 24.476562 70.394531 23.980469 70.648438 23.5 70.929688 C 22.472656 71.523438 21.71875 72.304688 21.246094 73.261719 C 21.054688 73.648438 20.375 74.847656 20.363281 74.761719 C 20.332031 74.519531 20.398438 74.386719 20.417969 74.140625 C 20.523438 72.808594 20.628906 71.480469 20.734375 70.148438 C 20.734375 70.148438 22.207031 69.761719 22.824219 69.667969 C 24.253906 69.449219 25.453125 68.886719 26.285156 67.625 C 26.671875 67.039062 27.191406 66.53125 27.683594 66.023438 C 28.152344 65.535156 28.667969 65.09375 29.257812 64.539062 C 28.519531 64.710938 27.929688 64.9375 27.328125 64.960938 C 25.800781 65.023438 24.515625 65.753906 23.253906 66.445312 C 22.828125 66.679688 22.476562 66.976562 22.171875 67.316406 C 21.582031 67.980469 20.777344 69.746094 20.777344 69.746094 C 20.78125 69.6875 20.789062 69.628906 20.792969 69.570312 C 20.839844 69.117188 20.886719 68.667969 20.933594 68.214844 C 20.980469 67.761719 21.027344 67.308594 21.074219 66.859375 C 21.113281 66.511719 21.15625 66.160156 21.199219 65.8125 C 21.3125 64.882812 21.53125 64.691406 22.46875 64.582031 C 22.675781 64.554688 22.890625 64.574219 23.101562 64.585938 C 24.734375 64.671875 26.144531 64.25 27.222656 62.925781 C 27.640625 62.410156 28.171875 61.972656 28.6875 61.542969 C 29.234375 61.085938 29.824219 60.675781 30.414062 60.226562 C 29.414062 60.285156 28.472656 60.316406 27.535156 60.402344 C 27.195312 60.433594 24.523438 60.40625 22.960938 62.511719 C 22.460938 63.183594 21.964844 63.863281 21.464844 64.5625 C 21.464844 64.464844 21.445312 64.371094 21.464844 64.289062 C 21.761719 63.050781 22.0625 61.816406 22.359375 60.582031 C 22.566406 59.710938 22.738281 59.558594 23.648438 59.515625 C 23.855469 59.507812 24.066406 59.523438 24.269531 59.566406 C 25.953125 59.902344 27.394531 59.523438 28.660156 58.332031 C 29.25 57.773438 29.996094 57.382812 30.671875 56.914062 C 31.0625 56.644531 31.53125 56.441406 31.691406 55.910156 C 31.054688 55.910156 30.5 55.894531 29.945312 55.914062 C 29.355469 55.9375 26.175781 55.714844 24.207031 57.703125 C 23.683594 58.234375 23.242188 58.84375 22.765625 59.417969 C 23.109375 58.152344 23.527344 56.898438 23.992188 55.667969 C 24.375 54.640625 24.789062 54.445312 25.878906 54.671875 C 26.066406 54.710938 26.25 54.78125 26.441406 54.820312 C 27.800781 55.101562 29.078125 54.953125 30.261719 54.148438 C 31.054688 53.613281 31.902344 53.164062 32.71875 52.664062 C 33.007812 52.488281 33.277344 52.277344 33.640625 52.023438 C 32.910156 51.839844 32.355469 51.613281 31.796875 51.582031 C 31.035156 51.535156 28.207031 51.109375 26.011719 52.984375 C 25.523438 53.398438 25.089844 53.867188 24.628906 54.3125 C 25.085938 53.0625 25.628906 51.859375 26.222656 50.679688 C 26.640625 49.84375 27.074219 49.683594 27.980469 49.941406 C 28.128906 49.980469 28.265625 50.0625 28.410156 50.113281 C 29.90625 50.644531 31.332031 50.628906 32.742188 49.769531 C 33.472656 49.320312 34.316406 49.054688 35.09375 48.679688 C 35.410156 48.527344 35.683594 48.292969 35.992188 48.085938 C 34.253906 47.214844 32.519531 47.363281 30.8125 47.40625 C 30.292969 47.421875 29.785156 47.5625 29.335938 47.824219 C 28.464844 48.328125 27.660156 48.945312 26.734375 49.582031 C 27.519531 48.28125 28.28125 47.039062 29.015625 45.785156 C 29.246094 45.390625 29.574219 45.242188 29.980469 45.359375 C 30.570312 45.53125 31.136719 45.773438 31.714844 45.976562 C 32.695312 46.316406 33.679688 46.539062 34.675781 46.039062 C 35.925781 45.515625 38.496094 44.347656 38.542969 44.269531 C 37.53125 43.835938 34.910156 43.328125 34.644531 43.328125 C 32.082031 43.324219 30.316406 44.570312 29.582031 45.03125 C 29.785156 44.691406 29.945312 44.421875 30.175781 44.03125 C 30.144531 44.054688 30.113281 44.078125 30.085938 44.097656 C 29.878906 44.238281 29.75 44.328125 29.621094 44.417969 C 29.742188 43.992188 29.859375 43.5625 29.976562 43.132812 C 30.105469 42.667969 30.234375 42.199219 30.363281 41.734375 C 30.554688 40.757812 30.574219 39.808594 30.347656 38.902344 C 30.335938 38.859375 30.328125 38.816406 30.316406 38.773438 C 30.277344 38.636719 30.230469 38.496094 30.179688 38.359375 C 30.160156 38.308594 30.140625 38.257812 30.121094 38.207031 C 30.058594 38.054688 29.992188 37.898438 29.910156 37.75 C 29.816406 37.570312 29.714844 37.394531 29.597656 37.222656 C 29.425781 36.964844 29.21875 36.726562 29.089844 36.453125 C 28.714844 35.675781 28.367188 34.882812 28.019531 34.109375 C 26.273438 36.65625 27.066406 39.023438 27.097656 39.136719 C 27.335938 40.121094 27.8125 43.792969 29.207031 44.847656 C 28.496094 46.105469 27.785156 47.367188 27.070312 48.628906 L 26.722656 49.257812 L 26.949219 48.523438 C 27.042969 48.128906 27.15625 47.742188 27.214844 47.34375 C 27.230469 47.246094 27.328125 46.648438 27.339844 46.457031 C 27.425781 44.910156 27.203125 43.417969 26.304688 42.101562 C 25.554688 41.007812 24.78125 39.933594 24.039062 38.882812 C 23.679688 39.488281 23.621094 40.433594 23.550781 41.417969 C 23.230469 46.125 26 48.71875 26.042969 48.824219 C 26.304688 49.507812 26.320312 50.152344 25.925781 50.8125 C 25.582031 51.390625 25.324219 52.019531 25.027344 52.625 C 24.917969 52.847656 24.792969 53.066406 24.726562 53.195312 C 24.726562 52.484375 24.777344 51.714844 24.71875 50.953125 C 24.574219 49.179688 24.117188 47.535156 22.601562 46.378906 C 22.46875 46.277344 22.375 46.117188 22.269531 45.984375 C 21.707031 45.269531 21.144531 44.558594 20.574219 43.832031 C 19.449219 45.996094 20.558594 50.242188 22.933594 52.621094 C 23.859375 53.546875 24.414062 54.671875 23.613281 56.003906 C 23.582031 56.054688 23.582031 56.117188 23.5625 56.171875 C 23.285156 56.933594 23.003906 57.699219 22.792969 58.285156 C 22.664062 57.277344 22.605469 56.125 22.355469 55.011719 C 22.082031 53.792969 21.46875 52.722656 20.464844 51.910156 C 19.421875 51.070312 18.445312 50.167969 17.785156 48.945312 C 17.59375 50.195312 17.058594 53.660156 20.550781 57.378906 C 20.960938 57.8125 21.421875 58.21875 21.746094 58.710938 C 22.011719 59.109375 22.300781 59.652344 22.234375 60.078125 C 22.046875 61.242188 21.675781 62.382812 21.394531 63.476562 C 21.21875 62.59375 21.113281 61.65625 20.839844 60.765625 C 20.359375 59.21875 19.523438 57.941406 18.039062 57.089844 C 17.257812 56.636719 16.628906 55.914062 15.976562 55.265625 C 15.746094 55.039062 15.660156 54.664062 15.457031 54.257812 C 15.339844 55.53125 15.570312 56.640625 15.917969 57.71875 C 16.15625 58.457031 16.511719 59.164062 16.824219 59.878906 C 16.945312 60.148438 17.082031 60.410156 17.238281 60.660156 C 17.90625 61.714844 18.757812 62.59375 19.769531 63.332031 C 20.402344 63.792969 21.039062 64.410156 21.015625 65.195312 C 20.988281 66.242188 20.773438 67.285156 20.601562 68.328125 L 20.496094 69.53125 L 20.398438 68.511719 L 20.402344 68.511719 C 20.339844 68.28125 20.304688 68.054688 20.257812 67.832031 C 19.863281 65.9375 19.019531 64.308594 17.390625 63.179688 C 16.988281 62.902344 16.441406 62.816406 16.066406 62.511719 C 15.265625 61.863281 14.535156 61.125 13.777344 60.425781 C 13.746094 60.398438 13.691406 60.390625 13.632812 60.367188 C 13.886719 61.917969 14.324219 65.085938 16.664062 66.984375 C 17.410156 67.589844 18.203125 68.140625 18.914062 68.785156 C 19.445312 69.269531 20.175781 69.820312 20.269531 70.425781 C 20.453125 71.613281 20.210938 73.523438 20.171875 74.746094 C 19.957031 74.425781 19.910156 73.4375 19.808594 73.113281 C 19.234375 71.328125 18.25 69.824219 16.59375 68.882812 C 15.480469 68.253906 14.285156 67.769531 13.019531 67.171875 C 13 67.417969 12.929688 67.640625 12.976562 67.835938 C 13.179688 68.6875 13.53125 69.472656 14.144531 70.125 C 14.3125 70.304688 14.429688 70.53125 14.570312 70.734375 C 14.914062 71.222656 15.167969 71.8125 15.613281 72.171875 C 16.53125 72.925781 17.574219 73.527344 18.519531 74.25 C 19.121094 74.707031 19.976562 75.183594 20.136719 75.800781 C 20.445312 77.011719 20.34375 78.328125 20.417969 79.699219 C 20.109375 78.996094 19.890625 78.375 19.574219 77.808594 C 18.683594 76.21875 17.511719 74.929688 15.671875 74.40625 C 15.230469 74.277344 14.789062 74.125 14.378906 73.921875 C 13.546875 73.511719 12.738281 73.054688 12.027344 72.675781 C 12.125 72.945312 12.265625 73.398438 12.445312 73.839844 C 13.023438 75.234375 14.183594 76.214844 15.03125 77.417969 C 15.164062 77.605469 15.339844 77.761719 15.519531 77.910156 C 16.46875 78.679688 17.5 79.296875 18.667969 79.710938 C 19.488281 80.003906 20.378906 80.417969 20.609375 81.308594 C 20.914062 82.464844 20.980469 83.683594 21.164062 85.007812 C 20.824219 84.371094 20.589844 83.824219 20.257812 83.339844 C 19.257812 81.875 18.03125 80.65625 16.21875 80.257812 C 14.75 79.9375 13.28125 79.644531 12.089844 78.636719 C 12.082031 78.632812 12.039062 78.667969 12.035156 78.671875 C 12.246094 79.105469 12.382812 79.589844 12.675781 79.953125 C 13.53125 81.003906 14.414062 82.042969 15.355469 83.019531 C 16.414062 84.117188 17.757812 84.753906 19.234375 85.109375 C 20.121094 85.324219 21.074219 85.605469 21.4375 86.449219 C 21.90625 87.542969 22.175781 89.089844 22.488281 90.257812 C 22.277344 90.148438 22.097656 89.660156 22 89.503906 C 20.964844 87.839844 19.566406 86.617188 17.65625 86.066406 C 17.183594 85.929688 16.644531 86.015625 16.167969 85.886719 C 15.054688 85.574219 13.824219 85.625 12.847656 84.835938 C 13.5 86.09375 15.820312 89.507812 20.117188 90.417969 C 20.660156 90.535156 21.226562 90.617188 21.742188 90.8125 C 22.398438 91.054688 22.988281 91.394531 23.144531 92.199219 C 23.234375 92.648438 23.4375 93.070312 23.625 93.492188 L 24.535156 95.886719 C 24.324219 95.753906 21.226562 92.019531 19.230469 91.914062 C 17.773438 91.835938 15.542969 91.574219 14.199219 90.847656 C 14.1875 90.839844 15.492188 93.84375 19.15625 94.96875 C 19.472656 95.066406 24.925781 96.203125 25.320312 97.515625 C 25.417969 97.84375 25.617188 98.140625 25.769531 98.453125 C 25.992188 98.910156 26.605469 100.058594 26.828125 100.515625 C 26.765625 100.5625 23.335938 97.351562 21.546875 97.027344 C 21.28125 96.980469 20.4375 96.972656 20.316406 96.984375 C 18.859375 97.132812 15.960938 96.671875 15.886719 96.730469 C 16.570312 97.339844 17.21875 97.964844 17.925781 98.519531 C 18.160156 98.703125 19.832031 99.597656 20.230469 99.777344 C 20.753906 100.019531 21.28125 100.324219 21.835938 100.40625 C 22.992188 100.582031 24.171875 100.640625 25.339844 100.734375 C 26.359375 100.816406 27.308594 100.988281 27.742188 102.09375 C 27.816406 102.289062 27.960938 102.457031 28.074219 102.636719 C 28.429688 103.210938 28.785156 103.789062 29.140625 104.367188 C 28.914062 104.335938 28.785156 104.226562 28.660156 104.117188 C 27.40625 103.023438 25.984375 102.214844 24.304688 102.167969 C 23.050781 102.128906 21.789062 102.398438 20.527344 102.480469 C 20 102.515625 18.457031 102.363281 18.417969 102.453125 C 19.234375 103.015625 20.027344 103.621094 20.878906 104.125 C 21.332031 104.390625 25.566406 105.726562 27.257812 105.527344 C 28.351562 105.398438 29.355469 105.378906 30.152344 105.921875 L 31.144531 107.128906 L 31.148438 107.132812 C 31.460938 107.707031 31.960938 108.191406 32.371094 108.71875 C 31.988281 108.589844 31.703125 108.371094 31.394531 108.1875 C 29.433594 107.039062 27.410156 106.480469 25.148438 107.351562 C 24.390625 107.644531 23.539062 107.707031 22.71875 107.816406 C 22.371094 107.863281 22.003906 107.75 21.515625 107.699219 C 22.917969 108.832031 27.429688 110.171875 28.292969 110.199219 C 29.242188 110.230469 30.203125 110.015625 31.15625 109.878906 C 32.230469 109.71875 33.253906 109.601562 34.050781 110.617188 C 34.5625 111.265625 35.1875 111.828125 35.753906 112.433594 C 35.835938 112.519531 35.898438 112.625 35.964844 112.722656 C 35.761719 112.699219 35.625 112.605469 35.480469 112.523438 C 33.566406 111.472656 31.550781 110.925781 29.417969 111.710938 C 27.960938 112.246094 26.554688 112.882812 24.929688 112.777344 C 25.9375 113.261719 28.773438 114.882812 34.25 114.167969 C 34.75 114.101562 35.210938 113.804688 35.699219 113.777344 C 36.238281 113.746094 36.910156 113.71875 37.308594 114 C 38.261719 114.667969 39.09375 115.519531 39.972656 116.296875 C 39.730469 116.28125 39.527344 116.1875 39.320312 116.105469 C 37.070312 115.222656 34.839844 114.90625 32.667969 116.335938 C 32.445312 116.484375 32.175781 116.558594 31.921875 116.648438 C 31.015625 116.953125 30.105469 117.246094 29.257812 117.523438 C 30.449219 118.066406 35.007812 119.144531 38.855469 117.703125 C 39.050781 117.628906 39.230469 117.535156 39.421875 117.472656 C 40.113281 117.234375 40.808594 117.179688 41.507812 117.453125 C 41.546875 117.46875 41.585938 117.488281 41.628906 117.503906 C 41.648438 117.511719 41.667969 117.523438 41.6875 117.53125 L 42.144531 117.917969 L 42.148438 117.917969 C 42.15625 117.925781 42.167969 117.9375 42.179688 117.945312 C 42.898438 118.472656 43.621094 118.988281 44.191406 119.402344 C 43.203125 119.257812 40.84375 118.9375 39.753906 119.023438 C 38.070312 119.15625 36.980469 120.457031 35.511719 121.007812 C 35.050781 121.179688 34.589844 121.355469 34.125 121.511719 C 33.933594 121.578125 33.730469 121.597656 33.53125 121.640625 C 34.371094 121.953125 39.71875 122.722656 43.253906 121.003906 C 44.421875 120.433594 45.476562 119.988281 46.6875 120.890625 C 47.382812 121.410156 48.191406 121.777344 48.945312 122.214844 C 48.761719 122.265625 48.621094 122.214844 48.472656 122.195312 C 43.390625 121.527344 39.519531 125.351562 38.382812 125.421875 C 38.378906 125.421875 38.371094 125.457031 38.339844 125.550781 C 39.34375 125.660156 43.921875 126.148438 47.910156 123.917969 C 48.316406 123.695312 48.679688 123.394531 49.097656 123.203125 C 49.730469 122.910156 50.371094 122.84375 51.039062 123.203125 C 51.71875 123.566406 52.449219 123.832031 53.15625 124.148438 C 53.328125 124.226562 53.492188 124.324219 53.660156 124.414062 C 53.441406 124.503906 53.273438 124.480469 53.105469 124.460938 C 51.089844 124.234375 49.199219 124.558594 47.570312 125.824219 C 46.78125 126.429688 46.097656 127.167969 45.332031 127.804688 C 45 128.082031 44.585938 128.257812 44.199219 128.46875 C 44.039062 128.554688 43.859375 128.601562 43.691406 128.667969 C 44.238281 128.796875 44.765625 128.839844 45.296875 128.886719 C 46.335938 128.972656 47.308594 128.609375 48.308594 128.464844 C 49.679688 128.265625 50.878906 127.792969 51.980469 127.019531 C 52.613281 126.578125 53.164062 126.03125 53.796875 125.589844 C 54.46875 125.121094 55.183594 124.894531 56.027344 125.253906 C 56.789062 125.574219 57.601562 125.773438 58.386719 126.035156 C 58.570312 126.097656 59.320312 126.449219 59.46875 126.511719 C 57.742188 126.328125 53.59375 127.199219 52.546875 128.449219 C 51.617188 129.558594 49.394531 131.398438 49.394531 131.515625 C 50.03125 131.488281 54.945312 130.351562 55.835938 129.996094 C 56.9375 129.554688 57.746094 128.632812 58.527344 127.734375 C 59.03125 127.15625 59.703125 126.605469 60.453125 126.675781 C 61.636719 126.789062 63.261719 127.253906 64.429688 127.519531 C 63.234375 127.652344 59.222656 128.703125 58.023438 130.300781 C 57.554688 130.929688 57.101562 131.570312 56.59375 132.164062 C 56.230469 132.589844 55.785156 132.949219 55.375 133.335938 C 55.28125 133.421875 55.171875 133.488281 55.074219 133.5625 C 55.632812 133.613281 56.15625 133.527344 56.679688 133.460938 C 57.695312 133.332031 58.558594 132.78125 59.496094 132.472656 C 61.320312 131.863281 62.621094 130.6875 63.734375 129.21875 C 64.496094 128.210938 65.351562 127.496094 66.765625 127.828125 C 67.59375 128.023438 69.195312 128.109375 70.046875 128.207031 C 69.0625 128.394531 65.292969 129.460938 64.09375 130.976562 C 63.394531 131.855469 62.910156 132.898438 62.292969 133.84375 C 62.042969 134.21875 61.695312 134.53125 61.378906 134.855469 C 61.25 134.988281 61.082031 135.082031 60.933594 135.191406 C 61.152344 135.226562 61.332031 135.179688 61.511719 135.144531 C 62.769531 134.894531 65.328125 133.601562 65.472656 133.511719 C 66.089844 133.128906 66.808594 132.832031 67.292969 132.324219 C 68.085938 131.496094 68.734375 130.527344 69.433594 129.609375 C 69.882812 129.023438 70.347656 128.300781 71.117188 128.34375 C 71.847656 128.386719 72.558594 128.679688 73.277344 128.914062 C 73.277344 128.914062 74.347656 129.066406 77.199219 131.878906 C 77.296875 131.972656 77.378906 132.078125 77.457031 132.191406 C 77.738281 132.609375 78.394531 132.210938 78.136719 131.78125 " fill-opacity="1" fill-rule="nonzero"/></g><g clip-path="url(#644c6d7223)"><path fill="#ffeb3b" d="M 117.515625 38.683594 C 117.066406 39.816406 116.789062 40.929688 117.808594 41.9375 C 117.886719 42.015625 117.949219 42.101562 118.003906 42.195312 L 119.683594 44.402344 L 119.132812 44.015625 L 117.589844 41.910156 C 117.359375 41.632812 117.140625 41.355469 116.84375 41.171875 C 116.664062 41.0625 116.457031 40.988281 116.203125 40.96875 C 115.933594 41.121094 115.667969 41.289062 115.402344 41.445312 C 115.132812 41.605469 114.859375 41.753906 114.574219 41.859375 C 113.9375 42.105469 113.25 42.335938 112.578125 42.355469 C 110.941406 42.398438 107.761719 40.953125 107.519531 40.746094 C 108.46875 40.398438 109.285156 40.070312 110.117188 39.792969 C 110.589844 39.640625 111.089844 39.546875 111.582031 39.46875 C 111.777344 39.4375 111.96875 39.414062 112.160156 39.398438 C 113.492188 39.285156 115.082031 39.605469 116.125 40.601562 C 116.589844 40.332031 114.699219 38.753906 114.023438 37.867188 C 113.25 36.851562 112.394531 37.160156 112.328125 37.128906 C 112.039062 37.378906 111.757812 37.640625 111.460938 37.875 C 110.613281 38.535156 109.667969 38.964844 108.574219 38.890625 C 107.8125 38.839844 107.046875 38.738281 106.304688 38.554688 C 105.609375 38.386719 104.945312 38.082031 104.269531 37.835938 C 104.261719 37.746094 104.253906 37.65625 104.242188 37.566406 C 104.976562 37.210938 105.699219 36.839844 106.441406 36.515625 C 106.878906 36.328125 107.351562 36.214844 107.8125 36.070312 C 107.984375 36.015625 108.152344 35.96875 108.320312 35.929688 C 109.507812 35.660156 110.652344 35.78125 111.734375 36.496094 C 112.089844 36.585938 112.441406 36.671875 112.890625 36.785156 C 112.699219 36.574219 112.570312 36.414062 112.421875 36.277344 C 111.65625 35.582031 110.871094 34.90625 110.121094 34.195312 C 109.726562 33.820312 109.335938 33.492188 108.75 33.546875 C 107.464844 34.582031 106.277344 35.921875 104.453125 35.808594 C 103.152344 35.730469 101.742188 35.867188 100.5625 34.957031 C 101.117188 34.289062 101.753906 33.820312 102.558594 33.582031 C 102.851562 33.492188 103.164062 33.410156 103.417969 33.25 C 104.519531 32.539062 105.722656 32.511719 106.9375 32.757812 C 107.503906 32.875 108.03125 33.175781 108.578125 33.394531 C 108.679688 33.355469 108.78125 33.320312 108.964844 33.253906 C 108.246094 32.675781 107.554688 32.121094 106.867188 31.574219 L 105.964844 30.941406 C 105.875 30.894531 105.785156 30.847656 105.703125 30.789062 C 105.027344 30.304688 104.773438 30.296875 104.109375 30.796875 C 103.9375 30.921875 103.753906 31.046875 103.632812 31.214844 C 102.238281 33.15625 100.203125 33.296875 98.089844 33.152344 C 97.558594 33.117188 97.039062 32.859375 96.457031 32.6875 C 96.949219 31.941406 97.488281 31.445312 98.195312 31.136719 C 98.53125 30.992188 98.875 30.839844 99.167969 30.632812 C 100.269531 29.84375 101.496094 29.648438 102.804688 29.839844 C 103.414062 29.929688 104.015625 30.058594 104.625 30.167969 C 104.644531 30.125 100.464844 27.570312 100.464844 27.570312 C 100.453125 27.570312 100.070312 27.765625 99.972656 27.859375 C 99.695312 28.121094 97.703125 30.4375 96.570312 30.683594 C 95.476562 30.917969 92.3125 30.542969 92.679688 30.054688 C 93.46875 29.019531 95.515625 26.542969 99.824219 27.234375 C 99.589844 27.078125 99.527344 27.058594 99.238281 26.863281 L 99.179688 26.839844 C 99.171875 26.835938 99.164062 26.832031 99.15625 26.828125 L 95.296875 25.210938 C 95.242188 25.476562 94.957031 25.886719 94.652344 26.386719 C 94.179688 27.160156 93.679688 27.878906 92.910156 28.363281 C 91.496094 29.246094 89.976562 29.273438 88.246094 28.890625 C 88.546875 28.410156 88.726562 27.976562 89.035156 27.660156 C 89.597656 27.085938 90.203125 26.542969 90.84375 26.050781 C 91.648438 25.433594 92.644531 25.363281 93.609375 25.113281 C 94 25.015625 94.308594 24.949219 94.550781 24.914062 C 93.773438 24.636719 91.601562 23.875 90.957031 23.742188 C 90.707031 23.703125 90.347656 23.773438 90.175781 23.9375 C 89.878906 24.21875 89.617188 24.585938 89.457031 24.964844 C 88.78125 26.550781 87.660156 27.605469 85.949219 27.941406 C 85.097656 28.105469 84.230469 28.136719 83.289062 27.8125 C 83.425781 27.53125 83.496094 27.265625 83.660156 27.078125 C 84.066406 26.613281 84.566406 26.226562 84.929688 25.738281 C 85.8125 24.539062 87.011719 23.9375 88.449219 23.742188 C 89.011719 23.667969 89.582031 23.632812 90.296875 23.566406 C 90 23.460938 89.847656 23.390625 89.6875 23.351562 C 88.523438 23.070312 87.363281 22.792969 86.195312 22.527344 C 85.3125 22.324219 85.082031 22.449219 84.734375 23.269531 C 84.65625 23.449219 84.597656 23.632812 84.53125 23.8125 C 83.984375 25.296875 82.902344 26.125 81.351562 26.324219 C 80.882812 26.386719 80.394531 26.296875 79.789062 26.273438 C 81.089844 24.265625 82.292969 22.441406 84.886719 22.402344 C 83.601562 21.808594 83.257812 21.863281 82.199219 22.484375 C 81.710938 22.773438 81.152344 22.960938 80.605469 23.136719 C 79.558594 23.480469 76.78125 21.617188 76.488281 20.863281 C 76.773438 20.929688 78.335938 21.199219 78.808594 21.027344 C 80.460938 20.441406 81.917969 20.804688 83.335938 21.679688 C 83.5625 21.820312 84.476562 21.984375 84.496094 21.9375 C 84.335938 21.84375 83.855469 21.597656 83.6875 21.523438 C 81.351562 20.480469 80.519531 18.445312 80.078125 16.078125 C 81.378906 16.289062 82.472656 16.8125 83.308594 17.824219 C 84.085938 18.769531 84.421875 19.925781 84.832031 21.046875 C 85.082031 21.734375 85.523438 22.226562 86.316406 22.332031 C 86.832031 22.398438 87.335938 22.550781 87.84375 22.664062 C 88.351562 22.777344 88.855469 22.886719 89.4375 23.019531 C 89.34375 22.910156 86.78125 21.105469 85.894531 19.796875 C 84.96875 18.433594 85.207031 16.78125 84.660156 15.332031 C 84.652344 15.304688 84.6875 15.265625 84.703125 15.230469 C 84.738281 15.21875 84.773438 15.191406 84.808594 15.195312 C 84.863281 15.199219 84.921875 15.222656 84.976562 15.238281 C 87.273438 15.96875 88.738281 17.519531 89.445312 19.792969 C 89.683594 20.5625 89.804688 21.367188 90.054688 22.132812 C 90.308594 22.902344 90.730469 23.550781 91.644531 23.707031 C 91.710938 23.71875 91.773438 23.738281 91.835938 23.757812 L 93.929688 24.328125 C 92.824219 23.664062 92.058594 22.15625 92.058594 22.15625 C 91.71875 21.414062 91.148438 20.75 90.953125 19.980469 C 90.664062 18.820312 90.613281 17.601562 90.464844 16.40625 C 90.460938 16.375 90.492188 16.339844 90.507812 16.304688 C 90.625 16.3125 90.765625 16.351562 90.917969 16.417969 C 91.472656 16.652344 92.203125 17.207031 92.789062 17.730469 C 92.828125 17.765625 92.867188 17.800781 92.90625 17.835938 C 92.996094 17.917969 93.082031 18 93.164062 18.078125 C 93.191406 18.109375 93.21875 18.132812 93.25 18.160156 C 93.355469 18.269531 93.449219 18.367188 93.523438 18.453125 C 94.574219 19.640625 94.679688 21.175781 95.023438 22.617188 C 95.179688 23.285156 95.117188 24.605469 95.175781 24.691406 L 99.816406 27.007812 C 98.703125 26.015625 96.746094 23.660156 96.457031 21.800781 C 96.304688 20.78125 96.320312 19.738281 96.285156 18.703125 C 96.277344 18.46875 96.371094 18.230469 96.425781 17.945312 C 96.570312 18.007812 96.660156 18.039062 96.738281 18.082031 C 97.761719 18.605469 98.40625 19.492188 98.992188 20.425781 C 99.925781 21.914062 100.289062 23.554688 100.132812 25.285156 C 100.042969 26.238281 100.542969 27.410156 101.359375 27.867188 C 101.796875 28.109375 102.226562 28.371094 102.660156 28.625 C 103.09375 28.871094 103.53125 29.117188 103.964844 29.363281 C 102.765625 28.046875 101.898438 26.597656 101.582031 24.851562 C 101.304688 23.304688 101.933594 21.816406 101.914062 20.285156 C 101.910156 20.261719 101.960938 20.238281 102.007812 20.195312 C 102.148438 20.28125 102.300781 20.363281 102.433594 20.46875 C 102.601562 20.601562 102.777344 20.730469 102.910156 20.890625 C 104.574219 22.859375 105.320312 25.109375 105.015625 27.691406 C 104.871094 28.878906 104.808594 30.058594 106.058594 30.796875 L 106.84375 31.351562 C 106.855469 31.359375 106.871094 31.367188 106.886719 31.378906 C 107.0625 31.5 107.234375 31.625 107.40625 31.75 L 107.4375 31.773438 C 107.757812 32.007812 108.074219 32.25 108.394531 32.488281 C 108.417969 32.335938 108.371094 32.261719 108.316406 32.195312 C 106.695312 30.078125 105.84375 27.8125 106.855469 25.148438 C 106.96875 24.851562 106.933594 24.503906 106.972656 24.179688 C 107.019531 23.761719 107.074219 23.339844 107.125 22.921875 C 107.484375 23.160156 107.707031 23.398438 107.886719 23.664062 C 108.796875 24.992188 109.714844 26.347656 109.738281 28.015625 C 109.757812 29.175781 109.5625 30.34375 109.429688 31.507812 C 109.320312 32.503906 109.339844 33.429688 110.308594 34.058594 C 110.566406 34.226562 110.769531 34.472656 111 34.679688 C 111.503906 35.128906 112.011719 35.574219 112.476562 35.980469 C 112.101562 35.164062 111.660156 34.347656 111.355469 33.484375 C 110.890625 32.167969 110.8125 30.808594 111.242188 29.453125 C 111.597656 28.351562 111.980469 27.257812 112.386719 26.054688 C 112.703125 26.5 113.121094 26.886719 113.296875 27.363281 C 113.644531 28.308594 113.867188 29.304688 114.125 30.285156 C 114.195312 30.542969 114.214844 30.8125 114.234375 31.082031 C 114.332031 32.390625 114.054688 33.644531 113.660156 34.882812 C 113.40625 35.6875 113.21875 36.566406 113.773438 37.273438 C 114.519531 38.21875 115.546875 39.285156 116.378906 40.179688 C 116.085938 39.410156 115.613281 38.445312 115.390625 37.679688 C 114.949219 36.152344 114.984375 34.628906 115.617188 33.152344 C 116.121094 31.976562 116.640625 30.8125 117.191406 29.566406 C 117.261719 29.640625 117.972656 31.859375 118.175781 32.832031 C 118.21875 33.039062 119.066406 35.601562 117.914062 37.71875 C 117.746094 38.023438 117.644531 38.359375 117.515625 38.683594 " fill-opacity="1" fill-rule="nonzero"/></g><g clip-path="url(#49f0fd3082)"><path fill="#ffeb3b" d="M 71.179688 131.78125 C 71.25 131.664062 71.351562 131.550781 71.488281 131.441406 C 71.855469 131.140625 72.40625 130.726562 72.945312 130.328125 C 74.265625 129.359375 75.769531 128.652344 77.367188 128.273438 C 77.597656 128.21875 77.792969 128.183594 77.917969 128.167969 C 78.699219 128.09375 78.933594 127.605469 79.082031 126.902344 C 79.132812 126.648438 79.167969 126.390625 79.1875 126.128906 C 79.257812 125.089844 79.566406 124.132812 80.289062 123.363281 C 80.675781 122.949219 81.183594 122.644531 81.609375 122.265625 C 82.527344 121.453125 83.429688 120.621094 84.375 119.765625 C 84.230469 120.539062 84.152344 121.28125 83.945312 121.988281 C 83.714844 122.773438 83.292969 125.464844 80.894531 126.964844 C 80.292969 127.339844 79.625 127.609375 78.992188 127.925781 C 80.550781 127.855469 82.082031 127.6875 83.613281 127.488281 C 83.789062 127.464844 83.960938 127.304688 83.996094 127.128906 C 84.128906 126.460938 84.257812 125.785156 84.296875 125.105469 C 84.378906 123.726562 84.859375 122.59375 85.980469 121.707031 C 86.605469 121.210938 87.113281 120.5625 87.65625 119.96875 C 88.054688 119.53125 88.425781 119.066406 88.847656 118.570312 C 88.78125 119.359375 88.742188 120.046875 88.660156 120.730469 C 88.605469 121.1875 88.527344 124.457031 85.648438 126.453125 C 85.246094 126.734375 84.808594 126.96875 84.234375 127.316406 C 84.570312 127.289062 84.734375 127.292969 84.890625 127.261719 C 86.023438 127.015625 87.152344 126.765625 88.28125 126.515625 C 89.128906 126.328125 89.398438 126.015625 89.410156 125.179688 C 89.410156 125.03125 89.394531 124.882812 89.371094 124.734375 C 89.175781 123.503906 89.242188 122.3125 89.953125 121.253906 C 90.273438 120.777344 90.6875 120.367188 91.035156 119.910156 C 91.75 118.96875 92.449219 118.015625 93.175781 117.042969 C 93.175781 118.089844 93.1875 119.117188 93.164062 120.140625 C 93.160156 120.382812 93.179688 123.496094 90.695312 125.234375 C 90.3125 125.503906 89.9375 125.789062 89.457031 126.140625 C 89.675781 126.128906 89.773438 126.140625 89.859375 126.113281 C 91.058594 125.734375 92.261719 125.378906 93.449219 124.96875 C 94.289062 124.675781 94.453125 124.351562 94.34375 123.460938 C 94.320312 123.304688 94.289062 123.148438 94.25 122.996094 C 93.847656 121.382812 94.019531 119.910156 95.160156 118.605469 C 95.609375 118.089844 95.953125 117.476562 96.300781 116.878906 C 96.632812 116.308594 96.910156 115.699219 97.210938 115.109375 C 97.347656 115.28125 97.371094 115.425781 97.382812 115.570312 C 97.429688 116.121094 97.488281 116.675781 97.507812 117.230469 C 97.527344 117.761719 97.515625 118.292969 97.492188 118.824219 C 97.480469 119.109375 98.050781 121.617188 95.90625 123.210938 C 95.425781 123.570312 95.027344 124.03125 94.460938 124.554688 C 94.75 124.472656 94.878906 124.445312 94.996094 124.398438 C 96.078125 123.9375 97.160156 123.476562 98.242188 123.007812 C 99.203125 122.589844 99.355469 122.238281 99.089844 121.183594 C 99.054688 121.035156 99.003906 120.886719 98.949219 120.742188 C 98.359375 119.203125 98.511719 117.773438 99.429688 116.402344 C 99.8125 115.835938 100.105469 115.199219 100.394531 114.578125 C 100.683594 113.949219 100.914062 113.300781 101.210938 112.554688 C 101.335938 113.289062 101.449219 113.886719 101.546875 114.492188 C 101.640625 115.09375 101.675781 115.707031 101.800781 116.300781 C 102.152344 117.996094 101.40625 119.960938 100.492188 121.121094 C 100.1875 121.507812 99.839844 121.863281 99.507812 122.234375 C 99.699219 122.246094 99.859375 122.195312 100 122.117188 C 101 121.566406 102 121.023438 102.984375 120.453125 C 103.835938 119.957031 103.941406 119.464844 103.542969 118.453125 C 103.488281 118.3125 103.421875 118.175781 103.351562 118.039062 C 102.902344 117.132812 102.761719 116.171875 102.996094 115.199219 C 103.140625 114.59375 103.449219 114.03125 103.65625 113.4375 C 103.917969 112.679688 104.144531 111.910156 104.40625 111.152344 C 104.535156 110.769531 104.710938 110.40625 104.914062 109.917969 C 105.054688 110.472656 105.105469 110.925781 105.285156 111.316406 C 105.695312 112.21875 105.859375 113.148438 105.816406 114.125 C 105.804688 114.296875 105.839844 114.472656 105.878906 114.640625 C 106.136719 115.691406 105.933594 116.683594 105.441406 117.601562 C 105.050781 118.339844 104.546875 119.015625 104.007812 119.847656 C 105.050781 119.136719 105.988281 118.488281 106.933594 117.851562 L 107.707031 117.257812 C 108.203125 116.761719 108.238281 116.53125 107.945312 115.816406 C 107.828125 115.535156 107.664062 115.269531 107.507812 115.003906 C 106.925781 114.015625 106.695312 112.949219 106.945312 111.835938 C 107.246094 110.472656 107.628906 109.125 107.984375 107.773438 C 108.058594 107.484375 108.152344 107.203125 108.277344 106.804688 C 108.507812 107.433594 108.710938 107.945312 108.886719 108.46875 C 109.125 109.171875 109.351562 109.875 109.566406 110.585938 C 109.628906 110.785156 109.625 111.007812 109.6875 111.203125 C 110.082031 112.417969 109.984375 113.605469 109.441406 114.746094 C 109.140625 115.382812 108.765625 115.992188 108.425781 116.613281 C 109.511719 115.820312 110.527344 114.964844 111.519531 114.085938 C 112.238281 113.453125 112.285156 113.035156 111.785156 112.199219 C 111.648438 111.96875 111.464844 111.761719 111.3125 111.542969 C 110.578125 110.476562 110.222656 109.28125 110.515625 108.035156 C 110.773438 106.925781 111.058594 105.84375 111.054688 104.695312 C 111.050781 104.285156 111.214844 103.871094 111.296875 103.488281 C 111.710938 104.191406 112.132812 104.855469 112.492188 105.550781 C 112.699219 105.957031 113.070312 107.417969 113.179688 107.683594 C 113.664062 108.820312 113.671875 109.976562 113.277344 111.128906 C 113.046875 111.804688 112.730469 112.453125 112.457031 113.117188 C 113.433594 112.226562 114.347656 111.285156 115.242188 110.328125 C 115.929688 109.59375 115.929688 109.070312 115.265625 108.285156 C 115.105469 108.09375 114.914062 107.925781 114.757812 107.730469 C 113.917969 106.6875 113.578125 105.507812 113.707031 104.167969 C 113.804688 103.175781 113.851562 102.179688 113.902344 101.183594 C 113.925781 100.714844 113.90625 100.242188 113.90625 99.617188 C 114.375 100.304688 114.757812 100.824219 115.09375 101.371094 C 115.417969 101.90625 117.273438 104.042969 116.699219 107.195312 C 116.570312 107.898438 116.296875 108.570312 116.078125 109.300781 C 116.191406 109.199219 116.289062 109.128906 116.359375 109.039062 C 117.136719 108.058594 117.917969 107.078125 118.6875 106.085938 C 119.171875 105.464844 119.171875 105.121094 118.691406 104.488281 C 118.519531 104.261719 118.304688 104.0625 118.089844 103.871094 C 117.0625 102.945312 116.496094 101.8125 116.4375 100.425781 C 116.394531 99.277344 116.332031 98.132812 116.285156 96.984375 C 116.269531 96.59375 116.28125 96.199219 116.28125 95.707031 C 116.671875 96.21875 116.949219 96.6875 117.328125 97.050781 C 119.464844 99.097656 119.945312 101.800781 119.742188 102.992188 C 119.636719 103.621094 119.503906 104.25 119.355469 105.027344 C 119.511719 104.84375 119.582031 104.785156 119.628906 104.710938 C 120.265625 103.722656 120.898438 102.730469 121.535156 101.746094 C 122.03125 100.972656 121.996094 100.574219 121.339844 99.933594 C 121.164062 99.761719 120.953125 99.621094 120.753906 99.46875 C 119.742188 98.683594 119.019531 97.710938 118.828125 96.417969 C 118.65625 95.261719 118.511719 94.105469 118.351562 92.949219 C 118.304688 92.605469 118.253906 92.257812 118.203125 91.914062 C 118.652344 92.246094 119.113281 92.566406 119.511719 92.949219 C 119.976562 93.394531 120.371094 93.917969 120.773438 94.421875 C 120.992188 94.699219 121.179688 95 121.339844 95.3125 C 121.675781 95.988281 122.128906 96.65625 122.226562 97.367188 C 122.375 98.429688 122.238281 99.53125 122.222656 100.589844 C 122.785156 99.457031 123.414062 98.269531 123.96875 97.046875 C 124.414062 96.066406 124.261719 95.683594 123.367188 95.039062 C 123.261719 94.964844 123.152344 94.898438 123.039062 94.839844 C 121.835938 94.203125 121.109375 93.179688 120.734375 91.921875 C 120.5625 91.339844 120.535156 90.710938 120.429688 90.109375 C 120.335938 89.609375 120.226562 89.113281 120.125 88.617188 C 119.929688 88.171875 119.734375 87.730469 119.484375 87.15625 C 119.699219 87.273438 119.789062 87.304688 119.855469 87.359375 C 120.453125 87.835938 121.0625 88.304688 121.636719 88.804688 C 121.929688 89.058594 122.167969 89.371094 122.417969 89.667969 C 122.691406 89.988281 122.964844 90.308594 123.226562 90.636719 C 123.394531 90.851562 123.808594 91.414062 123.847656 91.476562 C 123.878906 91.535156 123.914062 91.589844 123.941406 91.644531 C 123.964844 91.6875 124.042969 91.882812 124.074219 91.933594 C 124.851562 93.265625 124.476562 95.070312 124.476562 95.921875 C 124.71875 95.34375 124.945312 94.804688 125.167969 94.273438 L 125.523438 93.347656 C 125.683594 92.902344 125.839844 92.457031 126.003906 92.015625 C 126.3125 91.175781 126.230469 90.898438 125.488281 90.378906 C 125.300781 90.246094 125.078125 90.164062 124.871094 90.0625 C 123.417969 89.367188 122.429688 88.324219 122.078125 86.6875 C 121.910156 85.894531 121.535156 85.144531 121.25 84.375 C 121.082031 83.925781 120.910156 83.480469 120.738281 83.03125 C 121.464844 83.339844 122.089844 83.640625 122.625 84.058594 C 123.246094 84.535156 123.75 85.15625 124.367188 85.640625 C 125.347656 86.410156 125.890625 87.421875 126.105469 88.609375 C 126.234375 89.332031 126.433594 90.671875 126.457031 90.585938 C 126.789062 89.363281 127.132812 88.144531 127.433594 86.914062 C 127.65625 86.007812 127.523438 85.722656 126.761719 85.289062 C 126.578125 85.183594 126.363281 85.144531 126.164062 85.078125 C 124.773438 84.617188 123.929688 83.828125 123.40625 82.878906 C 123.300781 82.6875 122.070312 79.941406 121.75 79.382812 C 121.566406 79.058594 121.445312 78.699219 121.28125 78.324219 C 122.058594 78.691406 124.890625 80.527344 125.148438 80.6875 C 126.421875 81.46875 127.078125 82.644531 127.371094 84.058594 C 127.480469 84.585938 127.777344 85.230469 127.863281 85.226562 C 128.089844 83.710938 128.265625 82.621094 128.472656 81.101562 C 128.492188 80.949219 128.382812 80.691406 128.257812 80.625 C 127.757812 80.355469 127.230469 80.128906 126.699219 79.914062 C 126.074219 79.660156 124.050781 78.179688 123.753906 77.707031 C 122.917969 76.375 122.160156 74.988281 121.417969 73.703125 C 121.980469 73.925781 122.65625 74.175781 123.320312 74.460938 C 123.808594 74.675781 126.976562 76.289062 127.726562 78.09375 C 127.753906 78.15625 127.789062 78.210938 127.816406 78.269531 C 128.113281 78.921875 128.28125 79.636719 128.503906 80.324219 C 128.675781 79.074219 128.75 77.816406 128.832031 76.5625 C 128.847656 76.324219 128.882812 76.089844 128.863281 75.859375 C 128.859375 75.800781 128.851562 75.746094 128.839844 75.691406 C 128.835938 75.660156 128.828125 75.632812 128.820312 75.605469 C 128.78125 75.46875 128.707031 75.335938 128.589844 75.210938 C 128.589844 75.210938 127.363281 74.910156 126.75 74.765625 C 125.332031 74.425781 124.207031 73.71875 123.503906 72.382812 C 123.1875 71.777344 122.742188 71.230469 122.3125 70.691406 C 121.886719 70.15625 121.410156 69.664062 120.921875 69.117188 C 121.867188 69.363281 122.738281 69.582031 123.597656 69.824219 C 123.859375 69.894531 124.101562 70.019531 124.34375 70.140625 C 124.839844 70.394531 125.335938 70.648438 125.816406 70.929688 C 126.84375 71.523438 127.59375 72.304688 128.070312 73.261719 C 128.257812 73.648438 128.9375 74.847656 128.949219 74.761719 C 128.984375 74.519531 128.917969 74.386719 128.898438 74.140625 C 128.792969 72.808594 128.6875 71.480469 128.578125 70.148438 C 128.578125 70.148438 127.109375 69.761719 126.492188 69.667969 C 125.0625 69.449219 123.863281 68.886719 123.03125 67.625 C 122.644531 67.039062 122.125 66.53125 121.632812 66.023438 C 121.160156 65.535156 120.644531 65.09375 120.054688 64.539062 C 120.796875 64.710938 121.386719 64.9375 121.988281 64.960938 C 123.515625 65.023438 124.800781 65.753906 126.0625 66.445312 C 126.484375 66.679688 126.839844 66.976562 127.144531 67.316406 C 127.734375 67.980469 128.539062 69.746094 128.539062 69.746094 C 128.535156 69.6875 128.527344 69.628906 128.519531 69.570312 C 128.472656 69.117188 128.429688 68.667969 128.382812 68.214844 C 128.335938 67.761719 128.289062 67.308594 128.238281 66.859375 C 128.199219 66.511719 128.160156 66.160156 128.117188 65.8125 C 128.003906 64.882812 127.785156 64.691406 126.847656 64.582031 C 126.640625 64.554688 126.425781 64.574219 126.214844 64.585938 C 124.582031 64.671875 123.171875 64.25 122.09375 62.925781 C 121.671875 62.410156 121.144531 61.972656 120.628906 61.542969 C 120.082031 61.085938 119.492188 60.675781 118.902344 60.226562 C 119.902344 60.285156 120.84375 60.316406 121.78125 60.402344 C 122.117188 60.433594 124.792969 60.40625 126.355469 62.511719 C 126.855469 63.183594 127.347656 63.863281 127.851562 64.5625 C 127.851562 64.464844 127.871094 64.371094 127.851562 64.289062 C 127.554688 63.050781 127.253906 61.816406 126.957031 60.582031 C 126.746094 59.710938 126.578125 59.558594 125.667969 59.515625 C 125.460938 59.507812 125.25 59.523438 125.046875 59.566406 C 123.363281 59.902344 121.917969 59.523438 120.65625 58.332031 C 120.0625 57.773438 119.320312 57.382812 118.640625 56.914062 C 118.253906 56.644531 117.785156 56.441406 117.625 55.910156 C 118.261719 55.910156 118.816406 55.894531 119.367188 55.914062 C 119.960938 55.9375 123.140625 55.714844 125.109375 57.703125 C 125.632812 58.234375 126.074219 58.84375 126.550781 59.417969 C 126.207031 58.152344 125.789062 56.898438 125.324219 55.667969 C 124.941406 54.640625 124.523438 54.445312 123.4375 54.671875 C 123.246094 54.710938 123.0625 54.78125 122.875 54.820312 C 121.511719 55.101562 120.238281 54.953125 119.050781 54.148438 C 118.261719 53.613281 117.414062 53.164062 116.597656 52.664062 C 116.308594 52.488281 116.039062 52.277344 115.675781 52.023438 C 116.40625 51.839844 116.957031 51.613281 117.519531 51.582031 C 118.28125 51.535156 121.109375 51.109375 123.304688 52.984375 C 123.789062 53.398438 124.226562 53.867188 124.6875 54.3125 C 124.230469 53.0625 123.683594 51.859375 123.09375 50.679688 C 122.671875 49.84375 122.242188 49.683594 121.335938 49.941406 C 121.1875 49.980469 121.050781 50.0625 120.90625 50.113281 C 119.410156 50.644531 117.980469 50.628906 116.574219 49.769531 C 115.839844 49.320312 115 49.054688 114.222656 48.679688 C 113.90625 48.527344 113.632812 48.292969 113.324219 48.085938 C 115.0625 47.214844 116.796875 47.363281 118.503906 47.40625 C 119.023438 47.421875 119.53125 47.5625 119.976562 47.824219 C 120.851562 48.328125 121.65625 48.945312 122.578125 49.582031 C 121.796875 48.28125 121.035156 47.039062 120.300781 45.785156 C 120.066406 45.390625 119.738281 45.242188 119.335938 45.359375 C 118.746094 45.53125 118.179688 45.773438 117.601562 45.976562 C 116.621094 46.316406 115.636719 46.539062 114.636719 46.039062 C 113.390625 45.515625 110.820312 44.347656 110.773438 44.269531 C 111.785156 43.835938 114.40625 43.328125 114.667969 43.328125 C 117.234375 43.324219 119 44.570312 119.734375 45.03125 C 119.53125 44.691406 119.371094 44.421875 119.140625 44.03125 C 119.171875 44.054688 119.203125 44.078125 119.230469 44.097656 C 119.433594 44.238281 119.5625 44.328125 119.695312 44.417969 C 119.574219 43.992188 119.457031 43.5625 119.339844 43.132812 C 119.207031 42.667969 119.082031 42.199219 118.949219 41.734375 C 118.761719 40.757812 118.742188 39.808594 118.96875 38.902344 C 118.976562 38.859375 118.988281 38.816406 119 38.773438 C 119.039062 38.636719 119.085938 38.496094 119.136719 38.359375 C 119.152344 38.308594 119.175781 38.257812 119.195312 38.207031 C 119.253906 38.054688 119.324219 37.898438 119.40625 37.75 C 119.496094 37.570312 119.601562 37.394531 119.71875 37.222656 C 119.890625 36.964844 120.09375 36.726562 120.226562 36.453125 C 120.601562 35.675781 120.945312 34.882812 121.296875 34.109375 C 123.042969 36.65625 122.246094 39.023438 122.21875 39.136719 C 121.980469 40.121094 121.503906 43.792969 120.109375 44.847656 C 120.820312 46.105469 121.53125 47.367188 122.246094 48.628906 L 122.59375 49.257812 L 122.367188 48.523438 C 122.273438 48.128906 122.160156 47.742188 122.097656 47.34375 C 122.085938 47.246094 121.984375 46.648438 121.976562 46.457031 C 121.886719 44.910156 122.109375 43.417969 123.011719 42.101562 C 123.757812 41.007812 124.535156 39.933594 125.277344 38.882812 C 125.636719 39.488281 125.695312 40.433594 125.765625 41.417969 C 126.085938 46.125 123.3125 48.71875 123.273438 48.824219 C 123.011719 49.507812 122.992188 50.152344 123.390625 50.8125 C 123.734375 51.390625 123.988281 52.019531 124.289062 52.625 C 124.398438 52.847656 124.519531 53.066406 124.585938 53.195312 C 124.585938 52.484375 124.539062 51.714844 124.597656 50.953125 C 124.742188 49.179688 125.199219 47.535156 126.714844 46.378906 C 126.847656 46.277344 126.941406 46.117188 127.046875 45.984375 C 127.609375 45.269531 128.171875 44.558594 128.742188 43.832031 C 129.867188 45.996094 128.757812 50.242188 126.382812 52.621094 C 125.457031 53.546875 124.902344 54.671875 125.703125 56.003906 C 125.730469 56.054688 125.734375 56.117188 125.753906 56.171875 C 126.03125 56.933594 126.308594 57.699219 126.523438 58.285156 C 126.648438 57.277344 126.710938 56.125 126.957031 55.011719 C 127.230469 53.792969 127.847656 52.722656 128.851562 51.910156 C 129.894531 51.070312 130.871094 50.167969 131.53125 48.945312 C 131.722656 50.195312 132.257812 53.660156 128.765625 57.378906 C 128.355469 57.8125 127.894531 58.21875 127.566406 58.710938 C 127.304688 59.109375 127.011719 59.652344 127.082031 60.078125 C 127.269531 61.242188 127.636719 62.382812 127.921875 63.476562 C 128.097656 62.59375 128.203125 61.65625 128.476562 60.765625 C 128.957031 59.21875 129.792969 57.941406 131.277344 57.089844 C 132.054688 56.636719 132.6875 55.914062 133.339844 55.265625 C 133.570312 55.039062 133.65625 54.664062 133.859375 54.257812 C 133.976562 55.53125 133.746094 56.640625 133.398438 57.71875 C 133.15625 58.457031 132.804688 59.164062 132.492188 59.878906 C 132.371094 60.148438 132.234375 60.410156 132.078125 60.660156 C 131.40625 61.714844 130.558594 62.59375 129.546875 63.332031 C 128.914062 63.792969 128.277344 64.410156 128.300781 65.195312 C 128.328125 66.242188 128.542969 67.285156 128.714844 68.328125 L 128.820312 69.53125 L 128.914062 68.511719 C 128.976562 68.28125 129.011719 68.054688 129.058594 67.832031 C 129.453125 65.9375 130.296875 64.308594 131.925781 63.179688 C 132.328125 62.902344 132.875 62.816406 133.25 62.511719 C 134.046875 61.863281 134.777344 61.125 135.539062 60.425781 C 135.570312 60.398438 135.625 60.390625 135.683594 60.367188 C 135.425781 61.917969 134.992188 65.085938 132.652344 66.984375 C 131.90625 67.589844 131.109375 68.140625 130.402344 68.785156 C 129.871094 69.269531 129.136719 69.820312 129.042969 70.425781 C 128.859375 71.613281 129.105469 73.523438 129.144531 74.746094 C 129.359375 74.425781 129.402344 73.4375 129.507812 73.113281 C 130.082031 71.328125 131.066406 69.824219 132.722656 68.882812 C 133.835938 68.253906 135.03125 67.769531 136.292969 67.171875 C 136.316406 67.417969 136.386719 67.640625 136.339844 67.835938 C 136.136719 68.6875 135.78125 69.472656 135.171875 70.125 C 135 70.304688 134.886719 70.53125 134.742188 70.734375 C 134.402344 71.222656 134.148438 71.8125 133.703125 72.171875 C 132.785156 72.925781 131.742188 73.527344 130.796875 74.25 C 130.195312 74.707031 129.339844 75.183594 129.179688 75.800781 C 128.871094 77.011719 128.972656 78.328125 128.898438 79.699219 C 129.207031 78.996094 129.421875 78.375 129.738281 77.808594 C 130.628906 76.21875 131.804688 74.929688 133.644531 74.40625 C 134.085938 74.277344 134.527344 74.125 134.9375 73.921875 C 135.769531 73.511719 136.578125 73.054688 137.285156 72.675781 C 137.191406 72.945312 137.050781 73.398438 136.871094 73.839844 C 136.292969 75.234375 135.128906 76.214844 134.285156 77.417969 C 134.152344 77.605469 133.972656 77.761719 133.796875 77.910156 C 132.847656 78.679688 131.816406 79.296875 130.648438 79.710938 C 129.828125 80.003906 128.9375 80.417969 128.703125 81.308594 C 128.398438 82.464844 128.335938 83.683594 128.152344 85.007812 C 128.492188 84.371094 128.726562 83.824219 129.054688 83.339844 C 130.058594 81.875 131.285156 80.65625 133.097656 80.257812 C 134.566406 79.9375 136.035156 79.644531 137.226562 78.636719 C 137.234375 78.632812 137.277344 78.667969 137.28125 78.671875 C 137.070312 79.105469 136.933594 79.589844 136.640625 79.953125 C 135.785156 81.003906 134.902344 82.042969 133.960938 83.019531 C 132.902344 84.117188 131.554688 84.753906 130.082031 85.109375 C 129.195312 85.324219 128.242188 85.605469 127.878906 86.449219 C 127.410156 87.542969 127.140625 89.089844 126.828125 90.257812 C 127.035156 90.148438 127.214844 89.660156 127.3125 89.503906 C 128.351562 87.839844 129.746094 86.617188 131.660156 86.066406 C 132.132812 85.929688 132.671875 86.015625 133.148438 85.886719 C 134.261719 85.574219 135.488281 85.625 136.46875 84.835938 C 135.816406 86.09375 133.492188 89.507812 129.199219 90.417969 C 128.65625 90.535156 128.089844 90.617188 127.574219 90.8125 C 126.917969 91.054688 126.328125 91.394531 126.167969 92.199219 C 126.082031 92.648438 125.875 93.070312 125.691406 93.492188 L 124.777344 95.886719 C 124.992188 95.753906 128.089844 92.019531 130.085938 91.914062 C 131.542969 91.835938 133.773438 91.574219 135.117188 90.847656 C 135.128906 90.839844 133.824219 93.84375 130.15625 94.96875 C 129.84375 95.066406 124.390625 96.203125 123.996094 97.515625 C 123.898438 97.84375 123.699219 98.140625 123.546875 98.453125 C 123.324219 98.910156 122.710938 100.058594 122.488281 100.515625 C 122.546875 100.5625 125.980469 97.351562 127.769531 97.027344 C 128.03125 96.980469 128.878906 96.972656 128.996094 96.984375 C 130.457031 97.132812 133.355469 96.671875 133.429688 96.730469 C 132.746094 97.339844 132.097656 97.964844 131.390625 98.519531 C 131.15625 98.703125 129.484375 99.597656 129.082031 99.777344 C 128.558594 100.019531 128.035156 100.324219 127.480469 100.40625 C 126.320312 100.582031 125.144531 100.640625 123.972656 100.734375 C 122.957031 100.816406 122.007812 100.988281 121.574219 102.09375 C 121.496094 102.289062 121.351562 102.457031 121.242188 102.636719 C 120.886719 103.210938 120.53125 103.789062 120.171875 104.367188 C 120.402344 104.335938 120.53125 104.226562 120.65625 104.117188 C 121.90625 103.023438 123.332031 102.214844 125.011719 102.167969 C 126.265625 102.128906 127.527344 102.398438 128.789062 102.480469 C 129.316406 102.515625 130.859375 102.363281 130.898438 102.453125 C 130.082031 103.015625 129.289062 103.621094 128.4375 104.125 C 127.984375 104.390625 123.746094 105.726562 122.058594 105.527344 C 120.964844 105.398438 119.957031 105.378906 119.160156 105.921875 L 118.171875 107.128906 L 118.167969 107.132812 C 117.855469 107.707031 117.355469 108.191406 116.945312 108.71875 C 117.328125 108.589844 117.613281 108.371094 117.921875 108.1875 C 119.882812 107.039062 121.90625 106.480469 124.167969 107.351562 C 124.925781 107.644531 125.777344 107.707031 126.597656 107.816406 C 126.945312 107.863281 127.3125 107.75 127.800781 107.699219 C 126.398438 108.832031 121.886719 110.171875 121.023438 110.199219 C 120.074219 110.230469 119.109375 110.015625 118.160156 109.878906 C 117.082031 109.71875 116.058594 109.601562 115.261719 110.617188 C 114.753906 111.265625 114.128906 111.828125 113.558594 112.433594 C 113.480469 112.519531 113.417969 112.625 113.347656 112.722656 C 113.554688 112.699219 113.691406 112.605469 113.835938 112.523438 C 115.75 111.472656 117.765625 110.925781 119.898438 111.710938 C 121.351562 112.246094 122.761719 112.882812 124.386719 112.777344 C 123.375 113.261719 120.542969 114.882812 115.0625 114.167969 C 114.566406 114.101562 114.105469 113.804688 113.617188 113.777344 C 113.078125 113.746094 112.402344 113.71875 112.007812 114 C 111.050781 114.667969 110.222656 115.519531 109.34375 116.296875 C 109.585938 116.28125 109.789062 116.1875 109.996094 116.105469 C 112.246094 115.222656 114.472656 114.90625 116.648438 116.335938 C 116.867188 116.484375 117.140625 116.558594 117.394531 116.648438 C 118.300781 116.953125 119.210938 117.246094 120.058594 117.523438 C 118.867188 118.066406 114.308594 119.144531 110.460938 117.703125 C 110.265625 117.628906 110.082031 117.535156 109.894531 117.472656 C 109.203125 117.234375 108.507812 117.179688 107.808594 117.453125 C 107.769531 117.46875 107.726562 117.488281 107.6875 117.503906 C 107.667969 117.511719 107.648438 117.523438 107.625 117.53125 L 107.171875 117.917969 L 107.167969 117.917969 C 107.15625 117.925781 107.148438 117.9375 107.132812 117.945312 C 106.417969 118.472656 105.695312 118.988281 105.121094 119.402344 C 106.113281 119.257812 108.472656 118.9375 109.5625 119.023438 C 111.246094 119.15625 112.335938 120.457031 113.804688 121.007812 C 114.265625 121.179688 114.722656 121.355469 115.191406 121.511719 C 115.382812 121.578125 115.585938 121.597656 115.785156 121.640625 C 114.941406 121.953125 109.597656 122.722656 106.0625 121.003906 C 104.894531 120.433594 103.839844 119.988281 102.628906 120.890625 C 101.933594 121.410156 101.125 121.777344 100.367188 122.214844 C 100.554688 122.265625 100.695312 122.214844 100.84375 122.195312 C 105.925781 121.527344 109.792969 125.351562 110.929688 125.421875 C 110.9375 125.421875 110.941406 125.457031 110.972656 125.550781 C 109.96875 125.660156 105.394531 126.148438 101.402344 123.917969 C 101 123.695312 100.636719 123.394531 100.21875 123.203125 C 99.585938 122.910156 98.945312 122.84375 98.273438 123.203125 C 97.597656 123.566406 96.867188 123.832031 96.160156 124.148438 C 95.988281 124.226562 95.824219 124.324219 95.652344 124.414062 C 95.875 124.503906 96.042969 124.480469 96.210938 124.460938 C 98.226562 124.234375 100.117188 124.558594 101.746094 125.824219 C 102.53125 126.429688 103.21875 127.167969 103.984375 127.804688 C 104.316406 128.082031 104.730469 128.257812 105.113281 128.46875 C 105.273438 128.554688 105.453125 128.601562 105.625 128.667969 C 105.078125 128.796875 104.550781 128.839844 104.019531 128.886719 C 102.980469 128.972656 102.007812 128.609375 101.003906 128.464844 C 99.636719 128.265625 98.433594 127.792969 97.332031 127.019531 C 96.703125 126.578125 96.148438 126.03125 95.519531 125.589844 C 94.847656 125.121094 94.132812 124.894531 93.285156 125.253906 C 92.527344 125.574219 91.714844 125.773438 90.925781 126.035156 C 90.746094 126.097656 89.996094 126.449219 89.847656 126.511719 C 91.574219 126.328125 95.71875 127.199219 96.769531 128.449219 C 97.699219 129.558594 99.917969 131.398438 99.917969 131.515625 C 99.285156 131.488281 94.371094 130.351562 93.480469 129.996094 C 92.375 129.554688 91.570312 128.632812 90.789062 127.734375 C 90.285156 127.15625 89.609375 126.605469 88.863281 126.675781 C 87.679688 126.789062 86.054688 127.253906 84.886719 127.519531 C 86.082031 127.652344 90.089844 128.703125 91.289062 130.300781 C 91.761719 130.929688 92.214844 131.570312 92.722656 132.164062 C 93.085938 132.589844 93.527344 132.949219 93.941406 133.335938 C 94.035156 133.421875 94.144531 133.488281 94.242188 133.5625 C 93.679688 133.613281 93.160156 133.527344 92.632812 133.460938 C 91.621094 133.332031 90.757812 132.78125 89.820312 132.472656 C 87.996094 131.863281 86.695312 130.6875 85.582031 129.21875 C 84.820312 128.210938 83.964844 127.496094 82.550781 127.828125 C 81.722656 128.023438 80.121094 128.109375 79.269531 128.207031 C 80.253906 128.394531 84.023438 129.460938 85.222656 130.976562 C 85.921875 131.855469 86.402344 132.898438 87.023438 133.84375 C 87.269531 134.21875 87.621094 134.53125 87.9375 134.855469 C 88.066406 134.988281 88.234375 135.082031 88.382812 135.191406 C 88.164062 135.226562 87.984375 135.179688 87.800781 135.144531 C 86.546875 134.894531 83.988281 133.601562 83.839844 133.511719 C 83.222656 133.128906 82.507812 132.832031 82.019531 132.324219 C 81.230469 131.496094 80.582031 130.527344 79.882812 129.609375 C 79.433594 129.023438 78.96875 128.300781 78.199219 128.34375 C 77.46875 128.386719 76.757812 128.679688 76.039062 128.914062 C 76.039062 128.914062 74.964844 129.066406 72.113281 131.878906 C 72.019531 131.972656 71.9375 132.078125 71.859375 132.191406 C 71.578125 132.609375 70.921875 132.210938 71.179688 131.78125 " fill-opacity="1" fill-rule="nonzero"/></g><g fill="#ffeb3b" fill-opacity="1"><g transform="translate(44.840063, 96.57656)"><g><path d="M 60.328125 -4.078125 L 60.234375 0 L 37.015625 0 L 36.484375 -2.78125 C 38.335938 -3.644531 41.171875 -4.65625 44.984375 -5.8125 L 40.390625 -17.421875 L 16.984375 -17.421875 L 12.140625 -5.109375 L 21.234375 -4.078125 L 21.140625 0 L -1.21875 0 L -1.734375 -2.78125 C -0.285156 -3.46875 2.109375 -4.332031 5.453125 -5.375 L 25.734375 -54.515625 L 25.140625 -56.078125 L 31.984375 -58.421875 L 54 -4.765625 Z M 38.3125 -22.703125 L 28.609375 -47.15625 L 19.0625 -22.703125 Z M 38.3125 -22.703125 "/></g></g></g><g clip-path="url(#75d2e841be)"><path fill="#ffeb3b" d="M 42.453125 68.878906 C 43.941406 68.878906 45.230469 69.445312 46.324219 70.574219 C 47.414062 71.707031 47.960938 73.117188 47.960938 74.8125 C 47.960938 76.554688 47.410156 78.003906 46.3125 79.152344 C 45.210938 80.304688 43.878906 80.878906 42.316406 80.878906 C 40.738281 80.878906 39.410156 80.320312 38.335938 79.195312 C 37.261719 78.074219 36.722656 76.621094 36.722656 74.835938 C 36.722656 73.015625 37.34375 71.527344 38.585938 70.375 C 39.664062 69.378906 40.953125 68.878906 42.453125 68.878906 Z M 42.292969 69.496094 C 41.265625 69.496094 40.441406 69.878906 39.820312 70.640625 C 39.046875 71.585938 38.660156 72.976562 38.660156 74.804688 C 38.660156 76.675781 39.0625 78.117188 39.863281 79.128906 C 40.476562 79.894531 41.289062 80.277344 42.300781 80.277344 C 43.378906 80.277344 44.269531 79.859375 44.96875 79.019531 C 45.671875 78.175781 46.023438 76.851562 46.023438 75.039062 C 46.023438 73.078125 45.636719 71.613281 44.863281 70.648438 C 44.242188 69.878906 43.386719 69.496094 42.292969 69.496094 Z M 44.554688 72.421875 L 44.867188 72.421875 L 44.867188 77.335938 L 44.554688 77.335938 L 44.554688 76.929688 C 44.554688 76.457031 44.414062 76.113281 44.136719 75.898438 C 43.957031 75.761719 43.523438 75.695312 42.835938 75.695312 L 41.851562 75.695312 C 41.269531 75.695312 40.886719 75.734375 40.699219 75.804688 C 40.558594 75.863281 40.4375 75.976562 40.335938 76.152344 C 40.199219 76.402344 40.132812 76.660156 40.132812 76.929688 L 40.132812 77.335938 L 39.820312 77.335938 L 39.820312 72.421875 L 40.132812 72.421875 L 40.132812 72.835938 C 40.132812 73.304688 40.269531 73.644531 40.546875 73.859375 C 40.726562 74 41.160156 74.070312 41.851562 74.070312 L 42.835938 74.070312 C 43.417969 74.070312 43.800781 74.035156 43.984375 73.960938 C 44.128906 73.902344 44.25 73.785156 44.351562 73.605469 C 44.484375 73.363281 44.554688 73.105469 44.554688 72.835938 L 44.554688 72.421875 " fill-opacity="1" fill-rule="nonzero"/></g><g clip-path="url(#743c7c4499)"><path fill="#ffeb3b" d="M 110.191406 80.878906 L 105.773438 80.878906 L 105.667969 80.597656 C 106.472656 79.851562 108.503906 77.675781 108.503906 74.609375 C 108.503906 72.785156 108.144531 71.421875 107.421875 70.523438 C 106.84375 69.808594 106.042969 69.453125 105.023438 69.453125 C 104.0625 69.453125 103.296875 69.808594 102.714844 70.515625 C 101.996094 71.398438 101.636719 72.6875 101.636719 74.390625 C 101.636719 77.480469 103.683594 79.824219 104.457031 80.601562 L 104.34375 80.878906 L 99.945312 80.878906 L 99.828125 78.539062 L 100.132812 78.539062 C 100.132812 78.539062 100.367188 79.164062 100.5 79.375 C 100.636719 79.582031 100.835938 79.742188 101.097656 79.855469 C 101.308594 79.933594 101.679688 79.972656 102.210938 79.972656 L 103.074219 79.972656 C 102.734375 79.710938 101.9375 79.082031 101.332031 78.476562 C 100.304688 77.453125 99.828125 76.078125 99.828125 74.421875 C 99.828125 72.726562 100.40625 71.34375 101.5625 70.273438 C 102.570312 69.34375 103.773438 68.878906 105.171875 68.878906 C 106.5625 68.878906 107.765625 69.40625 108.785156 70.457031 C 109.800781 71.507812 110.3125 72.824219 110.3125 74.398438 C 110.3125 76.019531 109.796875 77.367188 108.773438 78.4375 C 108.1875 79.046875 107.382812 79.703125 107.042969 79.972656 L 107.925781 79.972656 C 108.457031 79.972656 108.828125 79.933594 109.039062 79.855469 C 109.304688 79.742188 109.503906 79.582031 109.636719 79.375 C 109.769531 79.164062 110.003906 78.539062 110.003906 78.539062 L 110.3125 78.539062 L 110.191406 80.878906 " fill-opacity="1" fill-rule="nonzero"/></g></svg>