<?xml version="1.0" encoding="UTF-8"?>
<!DOCTYPE svg PUBLIC "-//W3C//DTD SVG 1.1//EN" "http://www.w3.org/Graphics/SVG/1.1/DTD/svg11.dtd">
<svg xmlns="http://www.w3.org/2000/svg" version="1.1" width="200px" height="200px" style="shape-rendering:geometricPrecision; text-rendering:geometricPrecision; image-rendering:optimizeQuality; fill-rule:evenodd; clip-rule:evenodd" xmlns:xlink="http://www.w3.org/1999/xlink">
<g><path style="opacity:1" fill="#dea76c" d="M -0.5,-0.5 C 66.1667,-0.5 132.833,-0.5 199.5,-0.5C 199.5,66.1667 199.5,132.833 199.5,199.5C 185.5,199.5 171.5,199.5 157.5,199.5C 157.5,197.5 157.5,195.5 157.5,193.5C 158.043,193.44 158.376,193.107 158.5,192.5C 157.95,190.343 157.283,188.343 156.5,186.5C 156.5,186.167 156.5,185.833 156.5,185.5C 157.833,183.167 157.833,180.833 156.5,178.5C 155.601,172.589 154.934,166.922 154.5,161.5C 154.178,159.525 154.178,157.858 154.5,156.5C 155.043,156.44 155.376,156.107 155.5,155.5C 154.757,154.818 154.091,154.151 153.5,153.5C 151.807,150.816 150.14,148.149 148.5,145.5C 148.167,144.5 147.5,143.833 146.5,143.5C 144.806,141.139 142.806,139.139 140.5,137.5C 141.738,137.19 141.738,136.69 140.5,136C 142.315,135.243 143.981,134.41 145.5,133.5C 147.094,133.92 148.594,134.586 150,135.5C 153.869,133.938 154.036,132.938 150.5,132.5C 152.008,129.86 151.674,127.527 149.5,125.5C 158.305,110.72 166.972,95.8868 175.5,81C 173.851,76.7368 171.351,75.5702 168,77.5C 167.235,77.4301 166.735,77.0967 166.5,76.5C 168.559,70.8493 167.226,66.1827 162.5,62.5C 156.853,59.9311 151.853,60.9311 147.5,65.5C 145.809,64.1363 144.142,62.803 142.5,61.5C 142.791,55.077 142.458,48.7436 141.5,42.5C 142.472,37.6706 142.139,33.004 140.5,28.5C 139.265,25.5908 137.598,22.9242 135.5,20.5C 133.929,19.6906 132.262,19.3573 130.5,19.5C 128.973,19.427 127.973,20.0937 127.5,21.5C 127.5,22.1667 127.167,22.5 126.5,22.5C 124.973,22.427 123.973,23.0937 123.5,24.5C 122.833,25.8333 121.833,26.8333 120.5,27.5C 118.738,28.2623 117.738,29.5956 117.5,31.5C 117.672,32.4916 117.338,33.1583 116.5,33.5C 115.094,33.9731 114.427,34.9731 114.5,36.5C 112.139,36.3259 109.806,35.9926 107.5,35.5C 100.806,36.2504 94.1395,36.5838 87.5,36.5C 85.3364,36.2785 83.6697,35.2785 82.5,33.5C 81.5987,32.7095 80.9321,31.7095 80.5,30.5C 80.573,28.9731 79.9063,27.9731 78.5,27.5C 76.7041,26.2073 75.0375,24.7073 73.5,23C 67.5921,21.6137 63.9255,23.7804 62.5,29.5C 62.5654,29.0618 62.3988,28.7284 62,28.5C 60.4511,31.3117 59.6178,34.3117 59.5,37.5C 58.5206,40.6248 58.1872,43.9581 58.5,47.5C 57.6753,51.6472 57.1753,55.9805 57,60.5C 56,61.5 55,62.5 54,63.5C 53.8141,67.5159 53.8141,71.5159 54,75.5C 52.866,79.5798 51.366,83.4132 49.5,87C 50.0603,91.0145 51.227,94.8479 53,98.5C 54.5,96.1667 56,93.8333 57.5,91.5C 59.1965,92.3636 60.3632,93.6969 61,95.5C 61.3333,92.8333 61.6667,90.1667 62,87.5C 62.5662,89.7226 63.3995,91.7226 64.5,93.5C 66.0739,95.1016 66.7406,97.1016 66.5,99.5C 66.2053,101.735 66.5386,103.735 67.5,105.5C 67.5,106.167 67.5,106.833 67.5,107.5C 66.0462,109.263 66.3796,110.597 68.5,111.5C 67.8536,115.553 66.5203,119.386 64.5,123C 64.8466,126.121 63.8466,128.954 61.5,131.5C 60.609,132.11 59.609,132.443 58.5,132.5C 58.5,131.833 58.1667,131.5 57.5,131.5C 57.0472,130.542 56.3805,129.708 55.5,129C 57.8305,127.512 58.1638,125.679 56.5,123.5C 57.5,123.5 58.5,123.5 59.5,123.5C 59.8719,120.978 59.0386,118.978 57,117.5C 55.951,119.107 54.451,119.773 52.5,119.5C 52.5299,118.503 52.0299,117.836 51,117.5C 49.4223,118.547 47.9223,118.547 46.5,117.5C 44.3884,114.25 42.0551,111.25 39.5,108.5C 34.4005,100.621 29.0672,92.9548 23.5,85.5C 20.4825,80.1269 17.4825,74.7935 14.5,69.5C 13.3991,68.4017 12.0657,68.235 10.5,69C 11.7112,69.8928 11.7112,70.7261 10.5,71.5C 8.75981,69.4694 7.09314,69.8027 5.5,72.5C 1.48096,75.1827 1.64763,77.516 6,79.5C 15.326,95.8205 25.826,111.32 37.5,126C 36.3128,127.019 35.3128,128.186 34.5,129.5C 34.9569,130.298 35.6236,130.631 36.5,130.5C 36.756,132.912 35.756,134.579 33.5,135.5C 35.0225,137.283 37.0225,137.949 39.5,137.5C 39.5,136.5 39.5,135.5 39.5,134.5C 40.552,134.351 41.552,134.517 42.5,135C 41.1118,135.889 41.2785,136.389 43,136.5C 45.279,135.67 47.1123,136.503 48.5,139C 47.944,139.383 47.6107,139.883 47.5,140.5C 45.2487,141.695 42.9154,142.695 40.5,143.5C 39.6618,143.842 39.3284,144.508 39.5,145.5C 37.1667,144.5 36.5,145.167 37.5,147.5C 36.8333,147.5 36.5,147.833 36.5,148.5C 35.1154,149.574 33.9487,150.907 33,152.5C 32.5946,156.266 31.7613,159.933 30.5,163.5C 31.2372,166.095 31.2372,168.762 30.5,171.5C 29.5386,173.265 29.2053,175.265 29.5,177.5C 28.5269,179.948 28.1936,182.615 28.5,185.5C 27.1472,187.128 27.4805,188.462 29.5,189.5C 28.7222,190.156 28.0556,190.989 27.5,192C 28.7845,194.547 28.7845,197.047 27.5,199.5C 18.1667,199.5 8.83333,199.5 -0.5,199.5C -0.5,132.833 -0.5,66.1667 -0.5,-0.5 Z"/></g>
<g><path style="opacity:1" fill="#000000" d="M 130.5,19.5 C 130.027,20.9063 129.027,21.573 127.5,21.5C 127.973,20.0937 128.973,19.427 130.5,19.5 Z"/></g>
<g><path style="opacity:1" fill="#ed5b0a" d="M 130.5,19.5 C 132.262,19.3573 133.929,19.6906 135.5,20.5C 137.598,22.9242 139.265,25.5908 140.5,28.5C 139.979,32.4809 139.646,36.4809 139.5,40.5C 138.167,40.1667 136.833,39.8333 135.5,39.5C 134.833,37.8333 134.167,36.1667 133.5,34.5C 133.5,34.1667 133.5,33.8333 133.5,33.5C 133.702,31.0108 133.202,28.6775 132,26.5C 127.963,28.9261 124.463,31.9261 121.5,35.5C 119.621,36.3414 117.621,36.6747 115.5,36.5C 116.11,35.609 116.443,34.609 116.5,33.5C 117.338,33.1583 117.672,32.4916 117.5,31.5C 119.262,30.7377 120.262,29.4044 120.5,27.5C 121.833,26.8333 122.833,25.8333 123.5,24.5C 125.027,24.573 126.027,23.9063 126.5,22.5C 127.167,22.5 127.5,22.1667 127.5,21.5C 129.027,21.573 130.027,20.9063 130.5,19.5 Z"/></g>
<g><path style="opacity:1" fill="#f35d09" d="M 78.5,27.5 C 78.427,29.0269 79.0937,30.0269 80.5,30.5C 80.9321,31.7095 81.5987,32.7095 82.5,33.5C 83.3195,35.8123 84.1529,38.1457 85,40.5C 85.4796,38.867 86.3129,37.5336 87.5,36.5C 94.1395,36.5838 100.806,36.2504 107.5,35.5C 98.4728,37.6784 89.4728,40.3451 80.5,43.5C 80.5979,41.4471 79.9313,39.7804 78.5,38.5C 76.5924,34.9199 73.9257,31.9199 70.5,29.5C 67.6259,34.4557 65.9592,39.789 65.5,45.5C 64.6829,47.9686 64.1829,50.6353 64,53.5C 62.6081,55.8418 61.7748,55.8418 61.5,53.5C 61.1062,52.0328 60.7728,50.5328 60.5,49C 61.3953,42.2889 62.062,35.7889 62.5,29.5C 63.9255,23.7804 67.5921,21.6137 73.5,23C 75.0375,24.7073 76.7041,26.2073 78.5,27.5 Z"/></g>
<g><path style="opacity:1" fill="#030202" d="M 126.5,22.5 C 126.027,23.9063 125.027,24.573 123.5,24.5C 123.973,23.0937 124.973,22.427 126.5,22.5 Z"/></g>
<g><path style="opacity:1" fill="#211003" d="M 78.5,27.5 C 79.9063,27.9731 80.573,28.9731 80.5,30.5C 79.0937,30.0269 78.427,29.0269 78.5,27.5 Z"/></g>
<g><path style="opacity:1" fill="#160801" d="M 120.5,27.5 C 120.262,29.4044 119.262,30.7377 117.5,31.5C 117.738,29.5956 118.738,28.2623 120.5,27.5 Z"/></g>
<g><path style="opacity:1" fill="#613323" d="M 133.5,33.5 C 132.859,31.9577 131.859,30.6243 130.5,29.5C 128.132,31.5333 126.132,33.8666 124.5,36.5C 123.209,36.7373 122.209,36.404 121.5,35.5C 124.463,31.9261 127.963,28.9261 132,26.5C 133.202,28.6775 133.702,31.0108 133.5,33.5 Z"/></g>
<g><path style="opacity:1" fill="#d06d4c" d="M 133.5,33.5 C 133.5,33.8333 133.5,34.1667 133.5,34.5C 133.762,35.9778 133.429,37.3112 132.5,38.5C 129.904,37.5178 127.238,36.8511 124.5,36.5C 126.132,33.8666 128.132,31.5333 130.5,29.5C 131.859,30.6243 132.859,31.9577 133.5,33.5 Z"/></g>
<g><path style="opacity:1" fill="#6b3827" d="M 78.5,38.5 C 76.1885,37.0859 74.1885,35.2526 72.5,33C 71.6683,32.3123 71.0016,32.479 70.5,33.5C 67.7772,39.0867 66.7772,44.7533 67.5,50.5C 67.2172,51.2891 66.7172,51.9558 66,52.5C 65.5034,50.1902 65.3367,47.8568 65.5,45.5C 65.9592,39.789 67.6259,34.4557 70.5,29.5C 73.9257,31.9199 76.5924,34.9199 78.5,38.5 Z"/></g>
<g><path style="opacity:1" fill="#cd6b4c" d="M 78.5,38.5 C 77.1592,40.8342 77.8259,42.5009 80.5,43.5C 80.6106,45.6477 79.944,45.981 78.5,44.5C 75.9613,46.2003 73.2947,47.7003 70.5,49C 69.7476,49.6708 69.4142,50.5041 69.5,51.5C 68.8333,51.1667 68.1667,50.8333 67.5,50.5C 66.7772,44.7533 67.7772,39.0867 70.5,33.5C 71.0016,32.479 71.6683,32.3123 72.5,33C 74.1885,35.2526 76.1885,37.0859 78.5,38.5 Z"/></g>
<g><path style="opacity:1" fill="#913909" d="M 62.5,29.5 C 62.062,35.7889 61.3953,42.2889 60.5,49C 60.7728,50.5328 61.1062,52.0328 61.5,53.5C 60.8186,55.1585 59.9853,56.8251 59,58.5C 58.5014,54.8484 58.3347,51.1817 58.5,47.5C 59.9345,44.2403 60.2678,40.907 59.5,37.5C 59.6178,34.3117 60.4511,31.3117 62,28.5C 62.3988,28.7284 62.5654,29.0618 62.5,29.5 Z"/></g>
<g><path style="opacity:1" fill="#7e320c" d="M 140.5,28.5 C 142.139,33.004 142.472,37.6706 141.5,42.5C 140.5,42.1667 139.833,41.5 139.5,40.5C 139.646,36.4809 139.979,32.4809 140.5,28.5 Z"/></g>
<g><path style="opacity:1" fill="#2f170a" d="M 116.5,33.5 C 116.443,34.609 116.11,35.609 115.5,36.5C 115.167,36.5 114.833,36.5 114.5,36.5C 114.427,34.9731 115.094,33.9731 116.5,33.5 Z"/></g>
<g><path style="opacity:1" fill="#120c09" d="M 82.5,33.5 C 83.6697,35.2785 85.3364,36.2785 87.5,36.5C 86.3129,37.5336 85.4796,38.867 85,40.5C 84.1529,38.1457 83.3195,35.8123 82.5,33.5 Z"/></g>
<g><path style="opacity:1" fill="#3c3938" d="M 133.5,34.5 C 134.167,36.1667 134.833,37.8333 135.5,39.5C 135.511,41.0174 136.177,42.1841 137.5,43C 136.5,43.5 135.5,44 134.5,44.5C 134.264,43.7528 133.93,42.9195 133.5,42C 129.167,41.3333 124.833,41.3333 120.5,42C 122.087,42.8624 123.754,43.5291 125.5,44C 125.094,45.8029 125.594,47.6362 127,49.5C 128.399,50.2266 129.899,50.7266 131.5,51C 130.294,52.0177 130.627,52.5177 132.5,52.5C 133.647,52.1822 134.481,51.5156 135,50.5C 135.249,51.624 135.749,52.624 136.5,53.5C 136.911,52.7376 137.077,51.7376 137,50.5C 138.385,51.5505 139.385,52.8839 140,54.5C 140.333,53.8333 140.667,53.1667 141,52.5C 141.494,54.1341 141.66,55.8008 141.5,57.5C 136.876,55.8606 132.543,55.5273 128.5,56.5C 127.833,56.1667 127.167,55.8333 126.5,55.5C 117.056,55.0537 108.056,55.0537 99.5,55.5C 93.3132,56.3381 87.6465,58.3381 82.5,61.5C 80.1878,59.8545 78.1878,57.8545 76.5,55.5C 75.914,55.7093 75.414,56.0426 75,56.5C 73.2703,54.5981 71.437,52.9314 69.5,51.5C 69.4142,50.5041 69.7476,49.6708 70.5,49C 73.2947,47.7003 75.9613,46.2003 78.5,44.5C 79.944,45.981 80.6106,45.6477 80.5,43.5C 89.4728,40.3451 98.4728,37.6784 107.5,35.5C 109.806,35.9926 112.139,36.3259 114.5,36.5C 114.833,36.5 115.167,36.5 115.5,36.5C 117.621,36.6747 119.621,36.3414 121.5,35.5C 122.209,36.404 123.209,36.7373 124.5,36.5C 127.238,36.8511 129.904,37.5178 132.5,38.5C 133.429,37.3112 133.762,35.9778 133.5,34.5 Z"/></g>
<g><path style="opacity:1" fill="#0f0805" d="M 78.5,38.5 C 79.9313,39.7804 80.5979,41.4471 80.5,43.5C 77.8259,42.5009 77.1592,40.8342 78.5,38.5 Z"/></g>
<g><path style="opacity:1" fill="#080101" d="M 59.5,37.5 C 60.2678,40.907 59.9345,44.2403 58.5,47.5C 58.1872,43.9581 58.5206,40.6248 59.5,37.5 Z"/></g>
<g><path style="opacity:1" fill="#201d1d" d="M 135.5,39.5 C 136.833,39.8333 138.167,40.1667 139.5,40.5C 139.833,41.5 140.5,42.1667 141.5,42.5C 142.458,48.7436 142.791,55.077 142.5,61.5C 141.603,62.5981 140.77,62.5981 140,61.5C 139.667,62.1667 139.333,62.8333 139,63.5C 138.722,62.5842 138.222,61.9175 137.5,61.5C 138.091,60.8485 138.757,60.1818 139.5,59.5C 138.833,59.1667 138.167,58.8333 137.5,58.5C 134.346,57.596 131.346,57.2627 128.5,57.5C 128.5,57.1667 128.5,56.8333 128.5,56.5C 132.543,55.5273 136.876,55.8606 141.5,57.5C 141.66,55.8008 141.494,54.1341 141,52.5C 140.667,53.1667 140.333,53.8333 140,54.5C 139.385,52.8839 138.385,51.5505 137,50.5C 137.077,51.7376 136.911,52.7376 136.5,53.5C 135.749,52.624 135.249,51.624 135,50.5C 134.481,51.5156 133.647,52.1822 132.5,52.5C 130.627,52.5177 130.294,52.0177 131.5,51C 129.899,50.7266 128.399,50.2266 127,49.5C 125.594,47.6362 125.094,45.8029 125.5,44C 123.754,43.5291 122.087,42.8624 120.5,42C 124.833,41.3333 129.167,41.3333 133.5,42C 133.93,42.9195 134.264,43.7528 134.5,44.5C 135.5,44 136.5,43.5 137.5,43C 136.177,42.1841 135.511,41.0174 135.5,39.5 Z"/></g>
<g><path style="opacity:1" fill="#aeadab" d="M 84.5,47.5 C 87.8099,48.8712 87.9766,50.2045 85,51.5C 83.2317,50.3181 83.0651,48.9848 84.5,47.5 Z"/></g>
<g><path style="opacity:1" fill="#0d0b0b" d="M 126.5,55.5 C 126.158,56.3382 125.492,56.6716 124.5,56.5C 121.167,56.5 117.833,56.5 114.5,56.5C 113.209,56.2627 112.209,56.596 111.5,57.5C 111.565,57.9382 111.399,58.2716 111,58.5C 109.887,57.695 108.721,57.0283 107.5,56.5C 107.167,56.5 106.833,56.5 106.5,56.5C 98.3306,57.4005 90.3306,59.0671 82.5,61.5C 87.6465,58.3381 93.3132,56.3381 99.5,55.5C 108.056,55.0537 117.056,55.0537 126.5,55.5 Z"/></g>
<g><path style="opacity:1" fill="#f05a08" d="M 107.5,56.5 C 108.721,57.0283 109.887,57.695 111,58.5C 111.399,58.2716 111.565,57.9382 111.5,57.5C 113.196,59.129 114.196,58.7957 114.5,56.5C 117.833,56.5 121.167,56.5 124.5,56.5C 124.351,57.552 124.517,58.552 125,59.5C 125.816,58.1772 126.983,57.5106 128.5,57.5C 131.346,57.2627 134.346,57.596 137.5,58.5C 138.167,58.8333 138.833,59.1667 139.5,59.5C 138.757,60.1818 138.091,60.8485 137.5,61.5C 136.039,60.3143 134.705,60.3143 133.5,61.5C 130.903,61.7208 130.903,62.2208 133.5,63C 131.568,64.4585 129.568,65.6252 127.5,66.5C 127.167,66.5 126.833,66.5 126.5,66.5C 125.883,66.3893 125.383,66.056 125,65.5C 124.751,66.624 124.251,67.624 123.5,68.5C 123.167,67.8333 122.833,67.1667 122.5,66.5C 121.583,67.1272 120.583,67.4606 119.5,67.5C 118.508,67.3284 117.842,67.6618 117.5,68.5C 116.833,68.1667 116.167,67.8333 115.5,67.5C 115.5,66.8333 115.167,66.5 114.5,66.5C 113.167,65.8333 112.167,64.8333 111.5,63.5C 109.797,61.4075 108.464,59.0741 107.5,56.5 Z"/></g>
<g><path style="opacity:1" fill="#dbcbb0" d="M 111.5,57.5 C 112.209,56.596 113.209,56.2627 114.5,56.5C 114.196,58.7957 113.196,59.129 111.5,57.5 Z"/></g>
<g><path style="opacity:1" fill="#d3c3aa" d="M 126.5,55.5 C 127.167,55.8333 127.833,56.1667 128.5,56.5C 128.5,56.8333 128.5,57.1667 128.5,57.5C 126.983,57.5106 125.816,58.1772 125,59.5C 124.517,58.552 124.351,57.552 124.5,56.5C 125.492,56.6716 126.158,56.3382 126.5,55.5 Z"/></g>
<g><path style="opacity:1" fill="#211e1e" d="M 65.5,45.5 C 65.3367,47.8568 65.5034,50.1902 66,52.5C 66.7172,51.9558 67.2172,51.2891 67.5,50.5C 68.1667,50.8333 68.8333,51.1667 69.5,51.5C 71.437,52.9314 73.2703,54.5981 75,56.5C 75.414,56.0426 75.914,55.7093 76.5,55.5C 78.1878,57.8545 80.1878,59.8545 82.5,61.5C 80.036,62.5665 77.7026,63.8998 75.5,65.5C 72.6689,66.0787 70.3356,67.412 68.5,69.5C 66.0313,70.5686 63.6979,71.9019 61.5,73.5C 60.5416,73.9528 59.7083,74.6195 59,75.5C 57.664,79.9425 58.664,83.6092 62,86.5C 62.7172,85.9558 63.2172,85.2891 63.5,84.5C 64.3909,85.2613 65.0576,86.2613 65.5,87.5C 62.9218,87.6767 62.9218,88.8433 65.5,91C 64.7476,91.6708 64.4142,92.5041 64.5,93.5C 63.3995,91.7226 62.5662,89.7226 62,87.5C 61.6667,90.1667 61.3333,92.8333 61,95.5C 60.3632,93.6969 59.1965,92.3636 57.5,91.5C 56,93.8333 54.5,96.1667 53,98.5C 51.227,94.8479 50.0603,91.0145 49.5,87C 51.366,83.4132 52.866,79.5798 54,75.5C 53.8141,71.5159 53.8141,67.5159 54,63.5C 55,62.5 56,61.5 57,60.5C 57.1753,55.9805 57.6753,51.6472 58.5,47.5C 58.3347,51.1817 58.5014,54.8484 59,58.5C 59.9853,56.8251 60.8186,55.1585 61.5,53.5C 61.7748,55.8418 62.6081,55.8418 64,53.5C 64.1829,50.6353 64.6829,47.9686 65.5,45.5 Z"/></g>
<g><path style="opacity:1" fill="#f25c09" d="M 106.5,56.5 C 105.402,57.397 105.402,58.2303 106.5,59C 102.148,59.4189 101.815,60.0855 105.5,61C 104.584,61.2784 103.918,61.7784 103.5,62.5C 98.3975,63.9747 93.8975,66.6414 90,70.5C 88.841,69.434 88.0076,69.7673 87.5,71.5C 83.3218,74.1847 80.9885,78.0181 80.5,83C 79.9271,89.8351 81.9271,96.0017 86.5,101.5C 87.2328,103.25 87.5662,104.917 87.5,106.5C 86.596,107.209 86.2627,108.209 86.5,109.5C 85.1667,110.5 85.1667,111.5 86.5,112.5C 84.4195,116.194 83.7529,120.028 84.5,124C 83.7654,127.869 82.4321,131.536 80.5,135C 81.1667,135.333 81.8333,135.667 82.5,136C 81.695,137.113 81.0283,138.279 80.5,139.5C 79.8826,139.611 79.3826,139.944 79,140.5C 72.0513,137.458 66.2179,134.458 61.5,131.5C 63.8466,128.954 64.8466,126.121 64.5,123C 66.5203,119.386 67.8536,115.553 68.5,111.5C 68.7678,109.901 68.4345,108.568 67.5,107.5C 67.5,106.833 67.5,106.167 67.5,105.5C 68.4845,103.402 68.1511,101.402 66.5,99.5C 66.7406,97.1016 66.0739,95.1016 64.5,93.5C 64.4142,92.5041 64.7476,91.6708 65.5,91C 62.9218,88.8433 62.9218,87.6767 65.5,87.5C 65.0576,86.2613 64.3909,85.2613 63.5,84.5C 61.78,81.1108 61.1134,77.4441 61.5,73.5C 63.6979,71.9019 66.0313,70.5686 68.5,69.5C 70.5492,69.7058 70.8825,70.5391 69.5,72C 72.9464,73.9628 72.9464,75.2961 69.5,76C 71.1376,78.1335 71.971,80.6335 72,83.5C 72.9749,80.2397 74.1416,77.073 75.5,74C 74.3659,72.984 74.6992,72.3173 76.5,72C 74.0426,70.8456 74.0426,69.5123 76.5,68C 76.1164,67.0494 75.7831,66.2161 75.5,65.5C 77.7026,63.8998 80.036,62.5665 82.5,61.5C 90.3306,59.0671 98.3306,57.4005 106.5,56.5 Z"/></g>
<g><path style="opacity:1" fill="#000000" d="M 133.5,61.5 C 134.705,60.3143 136.039,60.3143 137.5,61.5C 137.167,62.5 136.5,63.1667 135.5,63.5C 135.5,62.1667 134.833,61.5 133.5,61.5 Z"/></g>
<g><path style="opacity:1" fill="#9c330a" d="M 106.5,56.5 C 106.833,56.5 107.167,56.5 107.5,56.5C 108.464,59.0741 109.797,61.4075 111.5,63.5C 108.873,62.9084 106.206,62.5751 103.5,62.5C 103.918,61.7784 104.584,61.2784 105.5,61C 101.815,60.0855 102.148,59.4189 106.5,59C 105.402,58.2303 105.402,57.397 106.5,56.5 Z"/></g>
<g><path style="opacity:1" fill="#f5f3f0" d="M 137.5,61.5 C 138.222,61.9175 138.722,62.5842 139,63.5C 139.333,62.8333 139.667,62.1667 140,61.5C 140.77,62.5981 141.603,62.5981 142.5,61.5C 144.142,62.803 145.809,64.1363 147.5,65.5C 147.892,67.1789 148.392,68.8455 149,70.5C 151.969,69.3974 152.136,68.064 149.5,66.5C 151.422,65.289 153.255,63.9557 155,62.5C 155.333,63.1667 155.667,63.8333 156,64.5C 157.789,62.771 159.956,62.1043 162.5,62.5C 167.226,66.1827 168.559,70.8493 166.5,76.5C 165.167,77.5 163.833,78.5 162.5,79.5C 160.833,79.5 159.167,79.5 157.5,79.5C 156.391,79.5569 155.391,79.8902 154.5,80.5C 154.167,79.8333 153.833,79.1667 153.5,78.5C 153.672,77.5084 153.338,76.8417 152.5,76.5C 151.833,76.5 151.167,76.5 150.5,76.5C 150.611,75.8826 150.944,75.3826 151.5,75C 150.584,74.7216 149.918,74.2216 149.5,73.5C 152.797,73.6713 153.131,73.0046 150.5,71.5C 149.893,71.6236 149.56,71.9569 149.5,72.5C 148.463,73.9303 147.796,75.597 147.5,77.5C 145.075,80.0458 142.075,81.5458 138.5,82C 139.833,82.3333 141.167,82.6667 142.5,83C 141.594,84.6995 141.261,86.5328 141.5,88.5C 140.778,88.9175 140.278,89.5842 140,90.5C 139.89,87.2323 138.39,84.8989 135.5,83.5C 135.5,83.1667 135.5,82.8333 135.5,82.5C 136.239,82.631 136.906,82.4643 137.5,82C 136.437,80.8118 135.103,80.3118 133.5,80.5C 132.833,80.5 132.167,80.5 131.5,80.5C 132.11,79.609 132.443,78.609 132.5,77.5C 132.567,76.0413 132.234,74.7079 131.5,73.5C 131.938,73.5654 132.272,73.3988 132.5,73C 131.773,71.6012 131.273,70.1012 131,68.5C 130.329,69.2524 129.496,69.5858 128.5,69.5C 127.662,69.1583 127.328,68.4916 127.5,67.5C 130.799,67.8517 133.466,66.5184 135.5,63.5C 136.5,63.1667 137.167,62.5 137.5,61.5 Z"/></g>
<g><path style="opacity:1" fill="#3a110a" d="M 103.5,62.5 C 106.206,62.5751 108.873,62.9084 111.5,63.5C 112.167,64.8333 113.167,65.8333 114.5,66.5C 113.922,68.4435 112.922,68.7768 111.5,67.5C 110.808,68.0253 110.308,68.6919 110,69.5C 108.657,68.7865 107.324,69.1198 106,70.5C 104,67.8333 102,67.8333 100,70.5C 97.499,68.9442 95.999,69.6108 95.5,72.5C 94.8106,73.7736 93.9772,73.7736 93,72.5C 90.8266,75.277 90.3266,75.1103 91.5,72C 90.2068,71.51 88.8734,71.3433 87.5,71.5C 88.0076,69.7673 88.841,69.434 90,70.5C 93.8975,66.6414 98.3975,63.9747 103.5,62.5 Z"/></g>
<g><path style="opacity:1" fill="#34130a" d="M 162.5,62.5 C 159.956,62.1043 157.789,62.771 156,64.5C 155.667,63.8333 155.333,63.1667 155,62.5C 153.255,63.9557 151.422,65.289 149.5,66.5C 152.136,68.064 151.969,69.3974 149,70.5C 148.392,68.8455 147.892,67.1789 147.5,65.5C 151.853,60.9311 156.853,59.9311 162.5,62.5 Z"/></g>
<g><path style="opacity:1" fill="#6b382c" d="M 133.5,61.5 C 134.833,61.5 135.5,62.1667 135.5,63.5C 133.466,66.5184 130.799,67.8517 127.5,67.5C 127.5,67.1667 127.5,66.8333 127.5,66.5C 129.568,65.6252 131.568,64.4585 133.5,63C 130.903,62.2208 130.903,61.7208 133.5,61.5 Z"/></g>
<g><path style="opacity:1" fill="#030303" d="M 138.5,67.5 C 145.486,67.331 147.153,70.1643 143.5,76C 140.353,76.9269 138.019,75.9269 136.5,73C 138.891,71.6914 138.891,70.6914 136.5,70C 137.381,69.2917 138.047,68.4584 138.5,67.5 Z"/></g>
<g><path style="opacity:1" fill="#030303" d="M 159.5,67.5 C 165.02,68.0435 166.354,70.5435 163.5,75C 161.299,75.8249 159.466,75.3249 158,73.5C 157.544,72.2559 158.044,71.4226 159.5,71C 158.833,70.6667 158.167,70.3333 157.5,70C 158.381,69.2917 159.047,68.4584 159.5,67.5 Z"/></g>
<g><path style="opacity:1" fill="#7f120c" d="M 75.5,65.5 C 75.7831,66.2161 76.1164,67.0494 76.5,68C 74.0426,69.5123 74.0426,70.8456 76.5,72C 74.6992,72.3173 74.3659,72.984 75.5,74C 74.1416,77.073 72.9749,80.2397 72,83.5C 71.971,80.6335 71.1376,78.1335 69.5,76C 72.9464,75.2961 72.9464,73.9628 69.5,72C 70.8825,70.5391 70.5492,69.7058 68.5,69.5C 70.3356,67.412 72.6689,66.0787 75.5,65.5 Z"/></g>
<g><path style="opacity:1" fill="#5b251c" d="M 126.5,66.5 C 127.204,70.4713 125.871,71.8046 122.5,70.5C 121.694,69.2719 120.694,68.2719 119.5,67.5C 120.583,67.4606 121.583,67.1272 122.5,66.5C 122.833,67.1667 123.167,67.8333 123.5,68.5C 124.251,67.624 124.751,66.624 125,65.5C 125.383,66.056 125.883,66.3893 126.5,66.5 Z"/></g>
<g><path style="opacity:1" fill="#772e1f" d="M 131.5,73.5 C 130.05,72.3424 129.05,72.8424 128.5,75C 129.056,75.3826 129.389,75.8826 129.5,76.5C 128.504,76.4142 127.671,76.7476 127,77.5C 126.768,76.2625 126.268,75.2625 125.5,74.5C 126.075,72.5887 127.075,70.922 128.5,69.5C 129.496,69.5858 130.329,69.2524 131,68.5C 131.273,70.1012 131.773,71.6012 132.5,73C 132.272,73.3988 131.938,73.5654 131.5,73.5 Z"/></g>
<g><path style="opacity:1" fill="#676159" d="M 14.5,69.5 C 14.0472,70.4584 13.3805,71.2917 12.5,72C 10.2199,72.2326 8.21986,73.066 6.5,74.5C 5.70245,74.0431 5.36912,73.3764 5.5,72.5C 7.09314,69.8027 8.75981,69.4694 10.5,71.5C 11.7112,70.7261 11.7112,69.8928 10.5,69C 12.0657,68.235 13.3991,68.4017 14.5,69.5 Z"/></g>
<g><path style="opacity:1" fill="#6e0f04" d="M 149.5,73.5 C 149.5,73.1667 149.5,72.8333 149.5,72.5C 149.56,71.9569 149.893,71.6236 150.5,71.5C 153.131,73.0046 152.797,73.6713 149.5,73.5 Z"/></g>
<g><path style="opacity:1" fill="#a3190b" d="M 114.5,66.5 C 115.167,66.5 115.5,66.8333 115.5,67.5C 114.402,68.397 114.402,69.2303 115.5,70C 116.816,70.5281 117.483,70.0281 117.5,68.5C 117.842,67.6618 118.508,67.3284 119.5,67.5C 120.694,68.2719 121.694,69.2719 122.5,70.5C 125.871,71.8046 127.204,70.4713 126.5,66.5C 126.833,66.5 127.167,66.5 127.5,66.5C 127.5,66.8333 127.5,67.1667 127.5,67.5C 127.328,68.4916 127.662,69.1583 128.5,69.5C 127.075,70.922 126.075,72.5887 125.5,74.5C 123.5,74.5 121.5,74.5 119.5,74.5C 120.061,71.8133 119.394,71.8133 117.5,74.5C 115.265,74.2053 113.265,74.5386 111.5,75.5C 110.833,75.5 110.167,75.5 109.5,75.5C 107.107,74.79 104.607,74.1233 102,73.5C 100.62,74.2555 100.453,74.9222 101.5,75.5C 101.229,77.3117 100.562,78.9783 99.5,80.5C 99.433,78.5756 99.0997,76.5756 98.5,74.5C 97.7492,75.376 97.2492,76.376 97,77.5C 96.3164,75.5211 96.8164,73.8544 98.5,72.5C 97.7666,71.913 96.7666,71.913 95.5,72.5C 95.999,69.6108 97.499,68.9442 100,70.5C 102,67.8333 104,67.8333 106,70.5C 107.324,69.1198 108.657,68.7865 110,69.5C 110.308,68.6919 110.808,68.0253 111.5,67.5C 112.922,68.7768 113.922,68.4435 114.5,66.5 Z"/></g>
<g><path style="opacity:1" fill="#cdcdcd" d="M 104.5,71.5 C 108.373,73.1539 108.04,73.6539 103.5,73C 104.056,72.6174 104.389,72.1174 104.5,71.5 Z"/></g>
<g><path style="opacity:1" fill="#939393" d="M 122.5,70.5 C 123.368,72.8919 122.701,73.0586 120.5,71C 121.094,70.5357 121.761,70.369 122.5,70.5 Z"/></g>
<g><path style="opacity:1" fill="#353535" d="M 115.5,67.5 C 116.167,67.8333 116.833,68.1667 117.5,68.5C 117.483,70.0281 116.816,70.5281 115.5,70C 114.402,69.2303 114.402,68.397 115.5,67.5 Z"/></g>
<g><path style="opacity:1" fill="#000000" d="M 149.5,72.5 C 149.5,72.8333 149.5,73.1667 149.5,73.5C 149.918,74.2216 150.584,74.7216 151.5,75C 150.944,75.3826 150.611,75.8826 150.5,76.5C 149.833,76.8333 149.167,77.1667 148.5,77.5C 148.167,77.5 147.833,77.5 147.5,77.5C 147.796,75.597 148.463,73.9303 149.5,72.5 Z"/></g>
<g><path style="opacity:1" fill="#ad4305" d="M 61.5,73.5 C 61.1134,77.4441 61.78,81.1108 63.5,84.5C 63.2172,85.2891 62.7172,85.9558 62,86.5C 58.664,83.6092 57.664,79.9425 59,75.5C 59.7083,74.6195 60.5416,73.9528 61.5,73.5 Z"/></g>
<g><path style="opacity:1" fill="#f3e0c1" d="M 87.5,71.5 C 88.8734,71.3433 90.2068,71.51 91.5,72C 90.3266,75.1103 90.8266,75.277 93,72.5C 93.9772,73.7736 94.8106,73.7736 95.5,72.5C 96.7666,71.913 97.7666,71.913 98.5,72.5C 96.8164,73.8544 96.3164,75.5211 97,77.5C 97.2492,76.376 97.7492,75.376 98.5,74.5C 99.0997,76.5756 99.433,78.5756 99.5,80.5C 100.562,78.9783 101.229,77.3117 101.5,75.5C 104.167,75.5 106.833,75.5 109.5,75.5C 110.167,75.5 110.833,75.5 111.5,75.5C 112.161,76.7175 112.828,78.0508 113.5,79.5C 117.353,78.0036 120.686,78.6703 123.5,81.5C 123.872,84.0217 123.039,86.0217 121,87.5C 120.333,89.1667 120.333,90.8333 121,92.5C 122.958,96.4505 126.125,98.9505 130.5,100C 131.252,100.671 131.586,101.504 131.5,102.5C 128.222,100.994 125.222,101.327 122.5,103.5C 120.22,104.64 117.886,105.807 115.5,107C 118.807,107.653 121.473,109.319 123.5,112C 125.473,112.495 127.473,112.662 129.5,112.5C 130.492,112.328 131.158,112.662 131.5,113.5C 130.18,114.942 128.514,115.608 126.5,115.5C 121.13,115.608 115.797,115.275 110.5,114.5C 109.791,113.596 108.791,113.263 107.5,113.5C 106.828,112.733 105.995,112.066 105,111.5C 103.989,112.337 102.822,112.67 101.5,112.5C 97.254,110.263 93.254,107.597 89.5,104.5C 88.8333,103.167 87.8333,102.167 86.5,101.5C 81.9271,96.0017 79.9271,89.8351 80.5,83C 80.9885,78.0181 83.3218,74.1847 87.5,71.5 Z"/></g>
<g><path style="opacity:1" fill="#392624" d="M 119.5,74.5 C 119.062,75.5063 118.396,75.5063 117.5,74.5C 119.394,71.8133 120.061,71.8133 119.5,74.5 Z"/></g>
<g><path style="opacity:1" fill="#0e0908" d="M 109.5,75.5 C 106.833,75.5 104.167,75.5 101.5,75.5C 100.453,74.9222 100.62,74.2555 102,73.5C 104.607,74.1233 107.107,74.79 109.5,75.5 Z"/></g>
<g><path style="opacity:1" fill="#f35b08" d="M 111.5,75.5 C 113.265,74.5386 115.265,74.2053 117.5,74.5C 118.396,75.5063 119.062,75.5063 119.5,74.5C 121.5,74.5 123.5,74.5 125.5,74.5C 126.268,75.2625 126.768,76.2625 127,77.5C 127.671,76.7476 128.504,76.4142 129.5,76.5C 129.389,77.1174 129.056,77.6174 128.5,78C 129.701,78.9025 130.535,80.0692 131,81.5C 131.399,81.2716 131.565,80.9382 131.5,80.5C 132.167,80.5 132.833,80.5 133.5,80.5C 133.369,81.2389 133.536,81.9056 134,82.5C 134.69,81.2617 135.19,81.2617 135.5,82.5C 135.5,82.8333 135.5,83.1667 135.5,83.5C 131.936,84.4227 128.269,84.756 124.5,84.5C 124.737,83.209 124.404,82.209 123.5,81.5C 120.686,78.6703 117.353,78.0036 113.5,79.5C 112.828,78.0508 112.161,76.7175 111.5,75.5 Z"/></g>
<g><path style="opacity:1" fill="#161313" d="M 131.5,73.5 C 132.234,74.7079 132.567,76.0413 132.5,77.5C 131.391,77.4431 130.391,77.1098 129.5,76.5C 129.389,75.8826 129.056,75.3826 128.5,75C 129.05,72.8424 130.05,72.3424 131.5,73.5 Z"/></g>
<g><path style="opacity:1" fill="#7a2618" d="M 129.5,76.5 C 130.391,77.1098 131.391,77.4431 132.5,77.5C 132.443,78.609 132.11,79.609 131.5,80.5C 131.565,80.9382 131.399,81.2716 131,81.5C 130.535,80.0692 129.701,78.9025 128.5,78C 129.056,77.6174 129.389,77.1174 129.5,76.5 Z"/></g>
<g><path style="opacity:1" fill="#d6a168" d="M 147.5,77.5 C 147.833,77.5 148.167,77.5 148.5,77.5C 149.659,79.2503 151.326,80.2503 153.5,80.5C 153.917,81.1239 154.584,81.4573 155.5,81.5C 156.713,81.2528 157.38,80.5862 157.5,79.5C 159.167,79.5 160.833,79.5 162.5,79.5C 159.757,85.9852 156.757,92.3186 153.5,98.5C 148.939,105.939 144.105,113.273 139,120.5C 137.173,119.338 135.506,119.672 134,121.5C 131.981,119.078 130.481,119.578 129.5,123C 129.57,123.765 129.903,124.265 130.5,124.5C 131.579,125.736 132.579,127.069 133.5,128.5C 132.223,130.95 130.723,133.283 129,135.5C 127.483,133.76 125.983,132.094 124.5,130.5C 123.13,128.75 122.13,126.75 121.5,124.5C 122.239,124.631 122.906,124.464 123.5,124C 122.214,121.978 121.214,119.811 120.5,117.5C 122.631,116.831 124.631,116.165 126.5,115.5C 128.514,115.608 130.18,114.942 131.5,113.5C 132.71,113.068 133.71,112.401 134.5,111.5C 135.167,111.5 135.5,111.167 135.5,110.5C 135.328,109.508 135.662,108.842 136.5,108.5C 137.401,107.71 138.068,106.71 138.5,105.5C 141.037,101.6 142.037,97.2664 141.5,92.5C 141.5,91.1667 141.5,89.8333 141.5,88.5C 141.261,86.5328 141.594,84.6995 142.5,83C 141.167,82.6667 139.833,82.3333 138.5,82C 142.075,81.5458 145.075,80.0458 147.5,77.5 Z"/></g>
<g><path style="opacity:1" fill="#a50d06" d="M 150.5,76.5 C 151.167,76.5 151.833,76.5 152.5,76.5C 149.742,77.9665 150.075,78.6332 153.5,78.5C 153.833,79.1667 154.167,79.8333 154.5,80.5C 154.167,80.5 153.833,80.5 153.5,80.5C 151.326,80.2503 149.659,79.2503 148.5,77.5C 149.167,77.1667 149.833,76.8333 150.5,76.5 Z"/></g>
<g><path style="opacity:1" fill="#646363" d="M 152.5,76.5 C 153.338,76.8417 153.672,77.5084 153.5,78.5C 150.075,78.6332 149.742,77.9665 152.5,76.5 Z"/></g>
<g><path style="opacity:1" fill="#070000" d="M 157.5,79.5 C 157.38,80.5862 156.713,81.2528 155.5,81.5C 154.584,81.4573 153.917,81.1239 153.5,80.5C 153.833,80.5 154.167,80.5 154.5,80.5C 155.391,79.8902 156.391,79.5569 157.5,79.5 Z"/></g>
<g><path style="opacity:1" fill="#171211" d="M 133.5,80.5 C 135.103,80.3118 136.437,80.8118 137.5,82C 136.906,82.4643 136.239,82.631 135.5,82.5C 135.19,81.2617 134.69,81.2617 134,82.5C 133.536,81.9056 133.369,81.2389 133.5,80.5 Z"/></g>
<g><path style="opacity:1" fill="#212020" d="M 123.5,81.5 C 124.404,82.209 124.737,83.209 124.5,84.5C 128.269,84.756 131.936,84.4227 135.5,83.5C 138.39,84.8989 139.89,87.2323 140,90.5C 140.278,89.5842 140.778,88.9175 141.5,88.5C 141.5,89.8333 141.5,91.1667 141.5,92.5C 140.85,92.1961 140.183,91.8627 139.5,91.5C 138.835,95.844 136.502,98.844 132.5,100.5C 132.624,101.107 132.957,101.44 133.5,101.5C 133.158,102.338 132.492,102.672 131.5,102.5C 131.586,101.504 131.252,100.671 130.5,100C 126.125,98.9505 122.958,96.4505 121,92.5C 120.333,90.8333 120.333,89.1667 121,87.5C 123.039,86.0217 123.872,84.0217 123.5,81.5 Z"/></g>
<g><path style="opacity:1" fill="#dccbaf" d="M 141.5,92.5 C 142.037,97.2664 141.037,101.6 138.5,105.5C 138.167,105.5 137.833,105.5 137.5,105.5C 136.833,103.5 135.5,102.167 133.5,101.5C 132.957,101.44 132.624,101.107 132.5,100.5C 136.502,98.844 138.835,95.844 139.5,91.5C 140.183,91.8627 140.85,92.1961 141.5,92.5 Z"/></g>
<g><path style="opacity:1" fill="#2a2b2f" d="M 23.5,85.5 C 29.0672,92.9548 34.4005,100.621 39.5,108.5C 38.9642,109.335 38.1309,109.335 37,108.5C 35.6057,109.613 34.439,110.947 33.5,112.5C 29.9652,111.827 29.6318,110.327 32.5,108C 33.5,107.667 34.5,107.333 35.5,107C 33.765,106.349 32.0983,106.515 30.5,107.5C 28.8662,107.032 27.6995,106.032 27,104.5C 26.6667,105.167 26.3333,105.833 26,106.5C 25.3378,105.016 24.5045,103.683 23.5,102.5C 25.9732,102.264 27.6399,100.931 28.5,98.5C 26.4181,97.1057 24.7514,97.439 23.5,99.5C 22.8826,99.6107 22.3826,99.944 22,100.5C 21.5348,99.0692 20.7014,97.9025 19.5,97C 24.7208,96.4577 24.7208,95.6244 19.5,94.5C 19.7093,93.914 20.0426,93.414 20.5,93C 22.5,92.6667 24.5,92.3333 26.5,92C 22.8917,91.9741 19.5583,91.1407 16.5,89.5C 18.8091,88.165 21.1424,86.8317 23.5,85.5 Z"/></g>
<g><path style="opacity:1" fill="#5f5b57" d="M 23.5,102.5 C 22.8843,101.798 22.8843,100.798 23.5,99.5C 24.7514,97.439 26.4181,97.1057 28.5,98.5C 27.6399,100.931 25.9732,102.264 23.5,102.5 Z"/></g>
<g><path style="opacity:1" fill="#0f0500" d="M 66.5,99.5 C 68.1511,101.402 68.4845,103.402 67.5,105.5C 66.5386,103.735 66.2053,101.735 66.5,99.5 Z"/></g>
<g><path style="opacity:1" fill="#221206" d="M 86.5,101.5 C 87.8333,102.167 88.8333,103.167 89.5,104.5C 89.5,104.833 89.5,105.167 89.5,105.5C 88.8333,105.833 88.1667,106.167 87.5,106.5C 87.5662,104.917 87.2328,103.25 86.5,101.5 Z"/></g>
<g><path style="opacity:1" fill="#d61b54" d="M 131.5,102.5 C 132.492,102.672 133.158,102.338 133.5,101.5C 135.5,102.167 136.833,103.5 137.5,105.5C 135.801,105.34 134.134,105.506 132.5,106C 134.437,106.122 135.77,106.955 136.5,108.5C 135.662,108.842 135.328,109.508 135.5,110.5C 132.751,110.274 130.084,110.607 127.5,111.5C 125.668,110.752 124.001,109.752 122.5,108.5C 123.729,107.719 125.062,107.219 126.5,107C 124.5,106.667 122.5,106.333 120.5,106C 121.381,105.292 122.047,104.458 122.5,103.5C 125.222,101.327 128.222,100.994 131.5,102.5 Z"/></g>
<g><path style="opacity:1" fill="#b4a58f" d="M 89.5,104.5 C 93.254,107.597 97.254,110.263 101.5,112.5C 103.265,113.461 105.265,113.795 107.5,113.5C 108.791,113.263 109.791,113.596 110.5,114.5C 111.263,115.268 112.263,115.768 113.5,116C 114.252,116.671 114.586,117.504 114.5,118.5C 103.97,118.733 95.6367,114.4 89.5,105.5C 89.5,105.167 89.5,104.833 89.5,104.5 Z"/></g>
<g><path style="opacity:1" fill="#18181b" d="M 145.5,133.5 C 146.568,132.566 147.901,132.232 149.5,132.5C 150.223,128.61 148.89,125.944 145.5,124.5C 145.218,123.222 144.551,122.222 143.5,121.5C 144.675,121.719 145.675,121.386 146.5,120.5C 145.386,119.224 144.386,119.224 143.5,120.5C 142.957,120.44 142.624,120.107 142.5,119.5C 144.296,118.859 145.796,117.859 147,116.5C 147.826,118.405 148.993,118.739 150.5,117.5C 150.135,116.098 149.301,115.098 148,114.5C 146.899,115.291 146.066,115.291 145.5,114.5C 148.062,113.359 150.728,112.526 153.5,112C 153.043,111.586 152.709,111.086 152.5,110.5C 157.527,108.267 157.194,106.434 151.5,105C 154.167,104.333 156.833,103.667 159.5,103C 158.138,100.561 156.305,100.061 154,101.5C 154.109,100.231 153.942,99.2312 153.5,98.5C 156.757,92.3186 159.757,85.9852 162.5,79.5C 163.833,78.5 165.167,77.5 166.5,76.5C 166.735,77.0967 167.235,77.4301 168,77.5C 171.351,75.5702 173.851,76.7368 175.5,81C 166.972,95.8868 158.305,110.72 149.5,125.5C 151.674,127.527 152.008,129.86 150.5,132.5C 154.036,132.938 153.869,133.938 150,135.5C 148.594,134.586 147.094,133.92 145.5,133.5 Z"/></g>
<g><path style="opacity:1" fill="#68645f" d="M 162.5,87.5 C 165.676,85.7271 167.343,86.7271 167.5,90.5C 166.127,90.6567 164.793,90.49 163.5,90C 164.566,88.841 164.233,88.0076 162.5,87.5 Z"/></g>
<g><path style="opacity:1" fill="#6b6760" d="M 164.5,82.5 C 166.838,81.053 168.838,81.553 170.5,84C 169.07,85.4404 167.403,85.7737 165.5,85C 166.566,83.841 166.233,83.0076 164.5,82.5 Z"/></g>
<g><path style="opacity:1" fill="#f3e0c0" d="M 89.5,105.5 C 95.6367,114.4 103.97,118.733 114.5,118.5C 115.167,119.833 115.833,121.167 116.5,122.5C 115.57,126.622 116.237,130.956 118.5,135.5C 117.494,135.938 117.494,136.604 118.5,137.5C 119.441,139.772 120.774,141.772 122.5,143.5C 117.38,146.78 112.38,150.28 107.5,154C 106.563,154.692 105.897,154.525 105.5,153.5C 106.433,150.358 107.099,147.024 107.5,143.5C 105.792,140.619 104.292,137.619 103,134.5C 101.295,135.763 99.6282,136.097 98,135.5C 97.3923,137.154 96.8923,138.821 96.5,140.5C 97.7683,141.787 97.435,142.787 95.5,143.5C 94.7542,144.736 94.4208,146.07 94.5,147.5C 90.3388,145.255 86.0055,143.255 81.5,141.5C 80.7025,141.043 80.3691,140.376 80.5,139.5C 81.0283,138.279 81.695,137.113 82.5,136C 81.8333,135.667 81.1667,135.333 80.5,135C 82.4321,131.536 83.7654,127.869 84.5,124C 83.7529,120.028 84.4195,116.194 86.5,112.5C 87.625,111.652 87.625,110.652 86.5,109.5C 86.2627,108.209 86.596,107.209 87.5,106.5C 88.1667,106.167 88.8333,105.833 89.5,105.5 Z"/></g>
<g><path style="opacity:1" fill="#010100" d="M 130.5,105.5 C 131.043,105.56 131.376,105.893 131.5,106.5C 130.635,107.583 129.635,107.749 128.5,107C 129.416,106.722 130.082,106.222 130.5,105.5 Z"/></g>
<g><path style="opacity:1" fill="#5e2128" d="M 137.5,105.5 C 137.833,105.5 138.167,105.5 138.5,105.5C 138.068,106.71 137.401,107.71 136.5,108.5C 135.77,106.955 134.437,106.122 132.5,106C 134.134,105.506 135.801,105.34 137.5,105.5 Z"/></g>
<g><path style="opacity:1" fill="#161719" d="M 14.5,69.5 C 17.4825,74.7935 20.4825,80.1269 23.5,85.5C 21.1424,86.8317 18.8091,88.165 16.5,89.5C 19.5583,91.1407 22.8917,91.9741 26.5,92C 24.5,92.3333 22.5,92.6667 20.5,93C 20.0426,93.414 19.7093,93.914 19.5,94.5C 24.7208,95.6244 24.7208,96.4577 19.5,97C 20.7014,97.9025 21.5348,99.0692 22,100.5C 22.3826,99.944 22.8826,99.6107 23.5,99.5C 22.8843,100.798 22.8843,101.798 23.5,102.5C 24.5045,103.683 25.3378,105.016 26,106.5C 26.3333,105.833 26.6667,105.167 27,104.5C 27.6995,106.032 28.8662,107.032 30.5,107.5C 32.0983,106.515 33.765,106.349 35.5,107C 34.5,107.333 33.5,107.667 32.5,108C 29.6318,110.327 29.9652,111.827 33.5,112.5C 34.439,110.947 35.6057,109.613 37,108.5C 38.1309,109.335 38.9642,109.335 39.5,108.5C 42.0551,111.25 44.3884,114.25 46.5,117.5C 47.9223,118.547 49.4223,118.547 51,117.5C 52.0299,117.836 52.5299,118.503 52.5,119.5C 50.864,118.754 49.1973,119.088 47.5,120.5C 46.3425,124.909 43.6759,126.409 39.5,125C 38.2423,126.741 37.2423,128.574 36.5,130.5C 35.6236,130.631 34.9569,130.298 34.5,129.5C 35.3128,128.186 36.3128,127.019 37.5,126C 25.826,111.32 15.326,95.8205 6,79.5C 1.64763,77.516 1.48096,75.1827 5.5,72.5C 5.36912,73.3764 5.70245,74.0431 6.5,74.5C 8.21986,73.066 10.2199,72.2326 12.5,72C 13.3805,71.2917 14.0472,70.4584 14.5,69.5 Z"/></g>
<g><path style="opacity:1" fill="#5f5e5e" d="M 14.5,81.5 C 15.8734,81.3433 17.2068,81.51 18.5,82C 17.1667,82.6667 17.1667,83.3333 18.5,84C 16.8309,85.669 14.8309,86.5023 12.5,86.5C 12.3915,84.4862 13.0582,82.8195 14.5,81.5 Z"/></g>
<g><path style="opacity:1" fill="#706a61" d="M 10.5,75.5 C 13.1662,75.0658 14.3329,76.0658 14,78.5C 10.2736,80.0747 9.10698,79.0747 10.5,75.5 Z"/></g>
<g><path style="opacity:1" fill="#000000" d="M 67.5,107.5 C 68.4345,108.568 68.7678,109.901 68.5,111.5C 66.3796,110.597 66.0462,109.263 67.5,107.5 Z"/></g>
<g><path style="opacity:1" fill="#000000" d="M 86.5,109.5 C 87.625,110.652 87.625,111.652 86.5,112.5C 85.1667,111.5 85.1667,110.5 86.5,109.5 Z"/></g>
<g><path style="opacity:1" fill="#8c1432" d="M 122.5,103.5 C 122.047,104.458 121.381,105.292 120.5,106C 122.5,106.333 124.5,106.667 126.5,107C 125.062,107.219 123.729,107.719 122.5,108.5C 124.001,109.752 125.668,110.752 127.5,111.5C 130.084,110.607 132.751,110.274 135.5,110.5C 135.5,111.167 135.167,111.5 134.5,111.5C 132.585,111.216 130.919,111.549 129.5,112.5C 127.473,112.662 125.473,112.495 123.5,112C 121.473,109.319 118.807,107.653 115.5,107C 117.886,105.807 120.22,104.64 122.5,103.5 Z"/></g>
<g><path style="opacity:1" fill="#323032" d="M 153.5,98.5 C 153.942,99.2312 154.109,100.231 154,101.5C 156.305,100.061 158.138,100.561 159.5,103C 156.833,103.667 154.167,104.333 151.5,105C 157.194,106.434 157.527,108.267 152.5,110.5C 152.709,111.086 153.043,111.586 153.5,112C 150.728,112.526 148.062,113.359 145.5,114.5C 146.066,115.291 146.899,115.291 148,114.5C 149.301,115.098 150.135,116.098 150.5,117.5C 148.993,118.739 147.826,118.405 147,116.5C 145.796,117.859 144.296,118.859 142.5,119.5C 142.624,120.107 142.957,120.44 143.5,120.5C 143.5,120.833 143.5,121.167 143.5,121.5C 144.551,122.222 145.218,123.222 145.5,124.5C 144.737,125.268 143.737,125.768 142.5,126C 145.482,128.191 145.815,130.524 143.5,133C 144.094,133.464 144.761,133.631 145.5,133.5C 143.981,134.41 142.315,135.243 140.5,136C 141.738,136.69 141.738,137.19 140.5,137.5C 139.305,137.322 138.138,136.989 137,136.5C 135.022,137.906 132.855,138.906 130.5,139.5C 128.647,137.554 126.314,136.054 123.5,135C 124.167,134.667 124.833,134.333 125.5,134C 124.663,132.989 124.33,131.822 124.5,130.5C 125.983,132.094 127.483,133.76 129,135.5C 130.723,133.283 132.223,130.95 133.5,128.5C 134.167,128.167 134.833,127.833 135.5,127.5C 135.415,126.005 136.081,125.005 137.5,124.5C 138.768,125.428 140.101,125.595 141.5,125C 139.941,123.369 137.941,122.536 135.5,122.5C 133.36,122.556 131.694,123.223 130.5,124.5C 129.903,124.265 129.57,123.765 129.5,123C 130.481,119.578 131.981,119.078 134,121.5C 135.506,119.672 137.173,119.338 139,120.5C 144.105,113.273 148.939,105.939 153.5,98.5 Z"/></g>
<g><path style="opacity:1" fill="#000000" d="M 107.5,113.5 C 105.265,113.795 103.265,113.461 101.5,112.5C 102.822,112.67 103.989,112.337 105,111.5C 105.995,112.066 106.828,112.733 107.5,113.5 Z"/></g>
<g><path style="opacity:1" fill="#010000" d="M 129.5,112.5 C 130.919,111.549 132.585,111.216 134.5,111.5C 133.71,112.401 132.71,113.068 131.5,113.5C 131.158,112.662 130.492,112.328 129.5,112.5 Z"/></g>
<g><path style="opacity:1" fill="#6f6b65" d="M 35.5,112.5 C 40.1074,112.373 40.7741,114.039 37.5,117.5C 34.3759,116.731 33.7092,115.064 35.5,112.5 Z"/></g>
<g><path style="opacity:1" fill="#160a03" d="M 110.5,114.5 C 115.797,115.275 121.13,115.608 126.5,115.5C 124.631,116.165 122.631,116.831 120.5,117.5C 121.214,119.811 122.214,121.978 123.5,124C 122.906,124.464 122.239,124.631 121.5,124.5C 118.375,123.9 118.042,122.733 120.5,121C 119.838,119.668 118.672,118.502 117,117.5C 116.506,119.134 116.34,120.801 116.5,122.5C 115.833,121.167 115.167,119.833 114.5,118.5C 114.586,117.504 114.252,116.671 113.5,116C 112.263,115.768 111.263,115.268 110.5,114.5 Z"/></g>
<g><path style="opacity:1" fill="#861109" d="M 74.5,111.5 C 75.0735,113.788 76.0735,115.955 77.5,118C 76.1667,119.333 76.1667,120.667 77.5,122C 76.3722,124.065 74.7055,124.732 72.5,124C 73.1667,122.333 73.8333,120.667 74.5,119C 74.2625,116.712 74.2625,114.212 74.5,111.5 Z"/></g>
<g><path style="opacity:1" fill="#f15c09" d="M 121.5,124.5 C 122.13,126.75 123.13,128.75 124.5,130.5C 124.33,131.822 124.663,132.989 125.5,134C 124.833,134.333 124.167,134.667 123.5,135C 126.314,136.054 128.647,137.554 130.5,139.5C 127.86,140.82 125.193,142.153 122.5,143.5C 120.774,141.772 119.441,139.772 118.5,137.5C 120.933,137.214 120.933,136.548 118.5,135.5C 116.237,130.956 115.57,126.622 116.5,122.5C 116.34,120.801 116.506,119.134 117,117.5C 118.672,118.502 119.838,119.668 120.5,121C 118.042,122.733 118.375,123.9 121.5,124.5 Z"/></g>
<g><path style="opacity:1" fill="#968b7c" d="M 39.5,118.5 C 44.4214,118.135 44.7547,119.135 40.5,121.5C 39.6143,120.675 39.281,119.675 39.5,118.5 Z"/></g>
<g><path style="opacity:1" fill="#c4b8a8" d="M 143.5,121.5 C 143.5,121.167 143.5,120.833 143.5,120.5C 144.386,119.224 145.386,119.224 146.5,120.5C 145.675,121.386 144.675,121.719 143.5,121.5 Z"/></g>
<g><path style="opacity:1" fill="#898175" d="M 135.5,127.5 C 134.833,127.833 134.167,128.167 133.5,128.5C 132.579,127.069 131.579,125.736 130.5,124.5C 131.694,123.223 133.36,122.556 135.5,122.5C 137.941,122.536 139.941,123.369 141.5,125C 140.101,125.595 138.768,125.428 137.5,124.5C 136.081,125.005 135.415,126.005 135.5,127.5 Z"/></g>
<g><path style="opacity:1" fill="#700f0b" d="M 73.5,125.5 C 74.3764,125.369 75.0431,125.702 75.5,126.5C 74.9017,127.795 74.4017,129.128 74,130.5C 73.6667,130.167 73.3333,129.833 73,129.5C 71.4006,131.036 69.5672,131.536 67.5,131C 69.2544,128.788 71.2544,126.955 73.5,125.5 Z"/></g>
<g><path style="opacity:1" fill="#736e65" d="M 56.5,123.5 C 55.1128,125.422 53.2794,125.422 51,123.5C 48.6959,125.068 46.1959,126.235 43.5,127C 42.4019,127.77 42.4019,128.603 43.5,129.5C 41.2775,130.114 39.6108,131.448 38.5,133.5C 37.8243,132.398 37.1577,131.398 36.5,130.5C 37.2423,128.574 38.2423,126.741 39.5,125C 43.6759,126.409 46.3425,124.909 47.5,120.5C 49.1973,119.088 50.864,118.754 52.5,119.5C 54.451,119.773 55.951,119.107 57,117.5C 59.0386,118.978 59.8719,120.978 59.5,123.5C 58.5,123.5 57.5,123.5 56.5,123.5 Z"/></g>
<g><path style="opacity:1" fill="#3e3d3d" d="M 56.5,123.5 C 58.1638,125.679 57.8305,127.512 55.5,129C 56.3805,129.708 57.0472,130.542 57.5,131.5C 57.5852,132.995 56.9185,133.995 55.5,134.5C 53.603,133.632 52.2696,132.299 51.5,130.5C 53.0376,128.449 52.7043,126.782 50.5,125.5C 48.1495,126.861 45.8162,128.194 43.5,129.5C 42.4019,128.603 42.4019,127.77 43.5,127C 46.1959,126.235 48.6959,125.068 51,123.5C 53.2794,125.422 55.1128,125.422 56.5,123.5 Z"/></g>
<g><path style="opacity:1" fill="#635e57" d="M 145.5,124.5 C 148.89,125.944 150.223,128.61 149.5,132.5C 147.901,132.232 146.568,132.566 145.5,133.5C 144.761,133.631 144.094,133.464 143.5,133C 145.815,130.524 145.482,128.191 142.5,126C 143.737,125.768 144.737,125.268 145.5,124.5 Z"/></g>
<g><path style="opacity:1" fill="#939392" d="M 51.5,130.5 C 48.1499,134.82 45.4832,134.486 43.5,129.5C 45.8162,128.194 48.1495,126.861 50.5,125.5C 52.7043,126.782 53.0376,128.449 51.5,130.5 Z"/></g>
<g><path style="opacity:1" fill="#969695" d="M 135.5,127.5 C 139.857,125.729 142.357,127.063 143,131.5C 141.23,132.276 139.397,132.11 137.5,131C 136.177,130.184 135.511,129.017 135.5,127.5 Z"/></g>
<g><path style="opacity:1" fill="#e4c5a8" d="M 105.5,153.5 C 105.167,153.5 104.833,153.5 104.5,153.5C 105.283,149.854 105.45,146.188 105,142.5C 104.119,145.647 102.953,148.647 101.5,151.5C 99.6316,150.737 97.9649,149.737 96.5,148.5C 97.6829,145.297 99.0163,142.13 100.5,139C 100.333,138.5 100.167,138 100,137.5C 99.5776,139.426 98.4109,140.426 96.5,140.5C 96.8923,138.821 97.3923,137.154 98,135.5C 99.6282,136.097 101.295,135.763 103,134.5C 104.292,137.619 105.792,140.619 107.5,143.5C 107.099,147.024 106.433,150.358 105.5,153.5 Z"/></g>
<g><path style="opacity:1" fill="#040202" d="M 118.5,135.5 C 120.933,136.548 120.933,137.214 118.5,137.5C 117.494,136.604 117.494,135.938 118.5,135.5 Z"/></g>
<g><path style="opacity:1" fill="#f45d09" d="M 75.5,150.5 C 73.5149,155.141 71.5149,159.807 69.5,164.5C 70.5891,168.953 70.5891,173.62 69.5,178.5C 68.9259,183.767 66.2593,187.767 61.5,190.5C 61.5,190.167 61.5,189.833 61.5,189.5C 61.1934,183.907 61.5268,178.407 62.5,173C 61.7734,171.601 61.2734,170.101 61,168.5C 60.5005,174.491 60.3338,180.491 60.5,186.5C 59.5944,191.119 57.9277,195.453 55.5,199.5C 48.5,199.5 41.5,199.5 34.5,199.5C 35.3619,194.187 35.5285,188.854 35,183.5C 33.6667,186.833 32.3333,190.167 31,193.5C 30.5357,192.906 30.369,192.239 30.5,191.5C 30.5,190.833 30.5,190.167 30.5,189.5C 31.3444,183.544 31.3444,177.544 30.5,171.5C 31.2372,168.762 31.2372,166.095 30.5,163.5C 31.7613,159.933 32.5946,156.266 33,152.5C 33.9487,150.907 35.1154,149.574 36.5,148.5C 38.4664,149.441 40.4664,150.441 42.5,151.5C 43.086,151.291 43.586,150.957 44,150.5C 45,151.833 46,153.167 47,154.5C 47.4491,149.115 44.9491,146.448 39.5,146.5C 39.5,146.167 39.5,145.833 39.5,145.5C 41.6977,145.591 42.0311,144.925 40.5,143.5C 42.9154,142.695 45.2487,141.695 47.5,140.5C 49.8194,139.833 52.1527,139.666 54.5,140C 61.8397,143.003 68.8397,146.503 75.5,150.5 Z"/></g>
<g><path style="opacity:1" fill="#f55e09" d="M 146.5,143.5 C 145.34,145.203 146.007,145.869 148.5,145.5C 150.14,148.149 151.807,150.816 153.5,153.5C 152.957,153.56 152.624,153.893 152.5,154.5C 153.243,155.182 153.909,155.849 154.5,156.5C 154.178,157.858 154.178,159.525 154.5,161.5C 153.883,161.611 153.383,161.944 153,162.5C 152.722,161.584 152.222,160.918 151.5,160.5C 150.034,159.653 149.2,158.32 149,156.5C 148.5,157 148,157.5 147.5,158C 148.08,159.335 148.413,160.502 148.5,161.5C 147.412,169.892 147.912,178.226 150,186.5C 150.671,187.252 151.504,187.586 152.5,187.5C 151.441,192.995 151.441,196.995 152.5,199.5C 149.5,199.5 146.5,199.5 143.5,199.5C 143.586,193.353 142.753,187.353 141,181.5C 140.667,182.833 140.333,184.167 140,185.5C 137.735,184.084 136.569,182.084 136.5,179.5C 136.296,176.482 135.963,173.482 135.5,170.5C 135.935,168.297 135.935,166.297 135.5,164.5C 134.274,160.38 132.274,156.713 129.5,153.5C 130.838,151.304 132.505,149.304 134.5,147.5C 137.607,146.111 140.607,144.445 143.5,142.5C 144.417,143.127 145.417,143.461 146.5,143.5 Z"/></g>
<g><path style="opacity:1" fill="#000000" d="M 40.5,143.5 C 42.0311,144.925 41.6977,145.591 39.5,145.5C 39.3284,144.508 39.6618,143.842 40.5,143.5 Z"/></g>
<g><path style="opacity:1" fill="#3f281e" d="M 61.5,131.5 C 66.2179,134.458 72.0513,137.458 79,140.5C 79.3826,139.944 79.8826,139.611 80.5,139.5C 80.3691,140.376 80.7025,141.043 81.5,141.5C 86.0055,143.255 90.3388,145.255 94.5,147.5C 94.8417,148.338 95.5084,148.672 96.5,148.5C 97.9649,149.737 99.6316,150.737 101.5,151.5C 102.29,152.401 103.29,153.068 104.5,153.5C 104.833,153.5 105.167,153.5 105.5,153.5C 105.897,154.525 106.563,154.692 107.5,154C 112.38,150.28 117.38,146.78 122.5,143.5C 125.193,142.153 127.86,140.82 130.5,139.5C 132.855,138.906 135.022,137.906 137,136.5C 138.138,136.989 139.305,137.322 140.5,137.5C 142.806,139.139 144.806,141.139 146.5,143.5C 145.417,143.461 144.417,143.127 143.5,142.5C 140.607,144.445 137.607,146.111 134.5,147.5C 130.943,148.612 127.61,150.278 124.5,152.5C 118.617,157.877 112.284,162.711 105.5,167C 104.748,167.671 104.414,168.504 104.5,169.5C 95.9147,173.804 87.9147,179.137 80.5,185.5C 79.7065,185.069 78.8732,184.735 78,184.5C 76.9895,184.892 76.4895,185.559 76.5,186.5C 75.1719,183.584 73.1719,182.417 70.5,183C 71.056,182.617 71.3893,182.117 71.5,181.5C 73.3603,180.061 75.027,178.395 76.5,176.5C 78.9095,175.299 80.9095,173.633 82.5,171.5C 87.4685,168.522 92.1352,165.189 96.5,161.5C 92.3762,157.501 87.8762,153.835 83,150.5C 79.1853,149.878 75.352,148.378 71.5,146C 66.2461,143.373 60.5794,140.54 54.5,137.5C 56.0777,136.702 57.7444,136.202 59.5,136C 58.6634,134.989 58.33,133.822 58.5,132.5C 59.609,132.443 60.609,132.11 61.5,131.5 Z"/></g>
<g><path style="opacity:1" fill="#77110d" d="M 104.5,153.5 C 103.29,153.068 102.29,152.401 101.5,151.5C 102.953,148.647 104.119,145.647 105,142.5C 105.45,146.188 105.283,149.854 104.5,153.5 Z"/></g>
<g><path style="opacity:1" fill="#7d110d" d="M 96.5,148.5 C 95.5084,148.672 94.8417,148.338 94.5,147.5C 94.4208,146.07 94.7542,144.736 95.5,143.5C 97.435,142.787 97.7683,141.787 96.5,140.5C 98.4109,140.426 99.5776,139.426 100,137.5C 100.167,138 100.333,138.5 100.5,139C 99.0163,142.13 97.6829,145.297 96.5,148.5 Z"/></g>
<g><path style="opacity:1" fill="#221b19" d="M 43.5,129.5 C 45.4832,134.486 48.1499,134.82 51.5,130.5C 52.2696,132.299 53.603,133.632 55.5,134.5C 56.9185,133.995 57.5852,132.995 57.5,131.5C 58.1667,131.5 58.5,131.833 58.5,132.5C 58.33,133.822 58.6634,134.989 59.5,136C 57.7444,136.202 56.0777,136.702 54.5,137.5C 60.5794,140.54 66.2461,143.373 71.5,146C 75.352,148.378 79.1853,149.878 83,150.5C 87.8762,153.835 92.3762,157.501 96.5,161.5C 92.5,159.167 88.5,156.833 84.5,154.5C 84.1667,154.5 83.8333,154.5 83.5,154.5C 81.1515,152.659 78.4848,151.326 75.5,150.5C 68.8397,146.503 61.8397,143.003 54.5,140C 52.1527,139.666 49.8194,139.833 47.5,140.5C 47.6107,139.883 47.944,139.383 48.5,139C 47.1123,136.503 45.279,135.67 43,136.5C 41.2785,136.389 41.1118,135.889 42.5,135C 41.552,134.517 40.552,134.351 39.5,134.5C 39.5,135.5 39.5,136.5 39.5,137.5C 37.0225,137.949 35.0225,137.283 33.5,135.5C 35.756,134.579 36.756,132.912 36.5,130.5C 37.1577,131.398 37.8243,132.398 38.5,133.5C 39.6108,131.448 41.2775,130.114 43.5,129.5 Z"/></g>
<g><path style="opacity:1" fill="#120200" d="M 146.5,143.5 C 147.5,143.833 148.167,144.5 148.5,145.5C 146.007,145.869 145.34,145.203 146.5,143.5 Z"/></g>
<g><path style="opacity:1" fill="#110a08" d="M 39.5,145.5 C 39.5,145.833 39.5,146.167 39.5,146.5C 38.8333,146.833 38.1667,147.167 37.5,147.5C 36.5,145.167 37.1667,144.5 39.5,145.5 Z"/></g>
<g><path style="opacity:1" fill="#281203" d="M 138.5,146.5 C 139.289,146.783 139.956,147.283 140.5,148C 139.184,148.528 138.517,148.028 138.5,146.5 Z"/></g>
<g><path style="opacity:1" fill="#ab2e0d" d="M 39.5,146.5 C 44.9491,146.448 47.4491,149.115 47,154.5C 46,153.167 45,151.833 44,150.5C 43.586,150.957 43.086,151.291 42.5,151.5C 40.4664,150.441 38.4664,149.441 36.5,148.5C 36.5,147.833 36.8333,147.5 37.5,147.5C 38.1667,147.167 38.8333,146.833 39.5,146.5 Z"/></g>
<g><path style="opacity:1" fill="#e7d2b4" d="M 75.5,150.5 C 78.4848,151.326 81.1515,152.659 83.5,154.5C 81.6214,154.393 81.2881,154.893 82.5,156C 80.1885,160.959 77.8552,165.959 75.5,171C 76.2603,173.025 76.5936,174.858 76.5,176.5C 75.027,178.395 73.3603,180.061 71.5,181.5C 70.8333,180.5 70.1667,179.5 69.5,178.5C 70.5891,173.62 70.5891,168.953 69.5,164.5C 71.5149,159.807 73.5149,155.141 75.5,150.5 Z"/></g>
<g><path style="opacity:1" fill="#f4e0c0" d="M 129.5,153.5 C 132.274,156.713 134.274,160.38 135.5,164.5C 134.761,164.369 134.094,164.536 133.5,165C 131.946,167.287 130.279,169.454 128.5,171.5C 124.878,169.213 121.545,166.547 118.5,163.5C 116.248,162.043 116.581,160.543 119.5,159C 122.45,156.361 125.783,154.527 129.5,153.5 Z"/></g>
<g><path style="opacity:1" fill="#160f0c" d="M 153.5,153.5 C 154.091,154.151 154.757,154.818 155.5,155.5C 155.376,156.107 155.043,156.44 154.5,156.5C 153.909,155.849 153.243,155.182 152.5,154.5C 152.624,153.893 152.957,153.56 153.5,153.5 Z"/></g>
<g><path style="opacity:1" fill="#74130c" d="M 151.5,160.5 C 151.875,163.397 151.375,166.063 150,168.5C 149.5,168 149,167.5 148.5,167C 149.807,165.057 149.807,163.223 148.5,161.5C 148.413,160.502 148.08,159.335 147.5,158C 148,157.5 148.5,157 149,156.5C 149.2,158.32 150.034,159.653 151.5,160.5 Z"/></g>
<g><path style="opacity:1" fill="#f3dcbc" d="M 84.5,154.5 C 88.5,156.833 92.5,159.167 96.5,161.5C 92.1352,165.189 87.4685,168.522 82.5,171.5C 81.1688,165.388 81.8355,159.721 84.5,154.5 Z"/></g>
<g><path style="opacity:1" fill="#88130e" d="M 83.5,154.5 C 83.8333,154.5 84.1667,154.5 84.5,154.5C 81.8355,159.721 81.1688,165.388 82.5,171.5C 80.9095,173.633 78.9095,175.299 76.5,176.5C 76.5936,174.858 76.2603,173.025 75.5,171C 77.8552,165.959 80.1885,160.959 82.5,156C 81.2881,154.893 81.6214,154.393 83.5,154.5 Z"/></g>
<g><path style="opacity:1" fill="#1f1510" d="M 134.5,147.5 C 132.505,149.304 130.838,151.304 129.5,153.5C 125.783,154.527 122.45,156.361 119.5,159C 116.581,160.543 116.248,162.043 118.5,163.5C 116.589,163.574 115.422,164.574 115,166.5C 113.16,165.167 112.66,165.334 113.5,167C 112.376,167.249 111.376,167.749 110.5,168.5C 116.641,174.472 122.975,180.305 129.5,186C 128.944,186.383 128.611,186.883 128.5,187.5C 127.5,186.833 126.5,186.167 125.5,185.5C 124.5,183.833 123.167,182.5 121.5,181.5C 117.361,177.532 113.027,173.699 108.5,170C 107.207,169.51 105.873,169.343 104.5,169.5C 104.414,168.504 104.748,167.671 105.5,167C 112.284,162.711 118.617,157.877 124.5,152.5C 127.61,150.278 130.943,148.612 134.5,147.5 Z"/></g>
<g><path style="opacity:1" fill="#773021" d="M 135.5,164.5 C 135.935,166.297 135.935,168.297 135.5,170.5C 132.876,170.077 131.209,171.41 130.5,174.5C 129.599,173.71 128.932,172.71 128.5,171.5C 130.279,169.454 131.946,167.287 133.5,165C 134.094,164.536 134.761,164.369 135.5,164.5 Z"/></g>
<g><path style="opacity:1" fill="#000000" d="M 139.5,167.5 C 140.224,169.218 140.891,171.052 141.5,173C 141,173.5 140.5,174 140,174.5C 139.503,172.19 139.337,169.857 139.5,167.5 Z"/></g>
<g><path style="opacity:1" fill="#f2ddbe" d="M 104.5,169.5 C 105.873,169.343 107.207,169.51 108.5,170C 113.027,173.699 117.361,177.532 121.5,181.5C 119.534,182.255 119.2,183.421 120.5,185C 119.809,186.067 119.309,187.234 119,188.5C 118.667,188.167 118.333,187.833 118,187.5C 118.001,191.579 117.834,195.579 117.5,199.5C 110.5,199.5 103.5,199.5 96.5,199.5C 99.5399,195.34 100.707,190.674 100,185.5C 97.1793,189.709 95.6793,194.375 95.5,199.5C 87.8333,199.5 80.1667,199.5 72.5,199.5C 72.5,198.167 72.5,196.833 72.5,195.5C 82.8522,186.485 93.5188,177.818 104.5,169.5 Z"/></g>
<g><path style="opacity:1" fill="#0f0501" d="M 61.5,189.5 C 60.596,188.791 60.2627,187.791 60.5,186.5C 60.3338,180.491 60.5005,174.491 61,168.5C 61.2734,170.101 61.7734,171.601 62.5,173C 61.5268,178.407 61.1934,183.907 61.5,189.5 Z"/></g>
<g><path style="opacity:1" fill="#dcc8ac" d="M 135.5,170.5 C 135.963,173.482 136.296,176.482 136.5,179.5C 133.885,178.55 131.885,176.883 130.5,174.5C 131.209,171.41 132.876,170.077 135.5,170.5 Z"/></g>
<g><path style="opacity:1" fill="#9c400e" d="M 30.5,171.5 C 31.3444,177.544 31.3444,183.544 30.5,189.5C 30.1667,189.5 29.8333,189.5 29.5,189.5C 29.5674,188.041 29.2341,186.708 28.5,185.5C 29.4778,185.189 30.1445,184.522 30.5,183.5C 29.6518,181.591 29.3184,179.591 29.5,177.5C 29.2053,175.265 29.5386,173.265 30.5,171.5 Z"/></g>
<g><path style="opacity:1" fill="#85100b" d="M 51.5,166.5 C 51.4602,169.875 51.7935,173.375 52.5,177C 50.1898,178.637 48.6898,180.804 48,183.5C 47.6667,181.833 47.3333,180.167 47,178.5C 46.6892,180.556 46.1892,182.556 45.5,184.5C 46.0016,185.716 46.3349,186.883 46.5,188C 46,188.5 45.5,189 45,189.5C 44.5,188.333 43.6667,187.5 42.5,187C 44.4545,184.832 45.1212,182.498 44.5,180C 45.9165,177.017 46.7499,173.85 47,170.5C 47.3333,171.5 47.6667,172.5 48,173.5C 48.6529,170.861 49.8196,168.527 51.5,166.5 Z"/></g>
<g><path style="opacity:1" fill="#000000" d="M 29.5,177.5 C 29.3184,179.591 29.6518,181.591 30.5,183.5C 30.1445,184.522 29.4778,185.189 28.5,185.5C 28.1936,182.615 28.5269,179.948 29.5,177.5 Z"/></g>
<g><path style="opacity:1" fill="#38241b" d="M 118.5,163.5 C 121.545,166.547 124.878,169.213 128.5,171.5C 128.932,172.71 129.599,173.71 130.5,174.5C 131.885,176.883 133.885,178.55 136.5,179.5C 136.569,182.084 137.735,184.084 140,185.5C 140.333,184.167 140.667,182.833 141,181.5C 142.753,187.353 143.586,193.353 143.5,199.5C 141.833,199.5 140.167,199.5 138.5,199.5C 137.167,197.5 135.5,195.833 133.5,194.5C 131.42,192.427 129.754,190.093 128.5,187.5C 128.611,186.883 128.944,186.383 129.5,186C 122.975,180.305 116.641,174.472 110.5,168.5C 111.376,167.749 112.376,167.249 113.5,167C 112.66,165.334 113.16,165.167 115,166.5C 115.422,164.574 116.589,163.574 118.5,163.5 Z"/></g>
<g><path style="opacity:1" fill="#000000" d="M 156.5,178.5 C 157.833,180.833 157.833,183.167 156.5,185.5C 155.933,183.302 155.933,180.969 156.5,178.5 Z"/></g>
<g><path style="opacity:1" fill="#a84107" d="M 34.5,199.5 C 32.8333,199.5 31.1667,199.5 29.5,199.5C 29.1936,196.615 29.5269,193.948 30.5,191.5C 30.369,192.239 30.5357,192.906 31,193.5C 32.3333,190.167 33.6667,186.833 35,183.5C 35.5285,188.854 35.3619,194.187 34.5,199.5 Z"/></g>
<g><path style="opacity:1" fill="#dc510a" d="M 151.5,160.5 C 152.222,160.918 152.722,161.584 153,162.5C 153.383,161.944 153.883,161.611 154.5,161.5C 154.934,166.922 155.601,172.589 156.5,178.5C 155.933,180.969 155.933,183.302 156.5,185.5C 156.5,185.833 156.5,186.167 156.5,186.5C 156.371,188.216 156.038,189.883 155.5,191.5C 155.649,192.552 155.483,193.552 155,194.5C 154.61,191.896 153.776,189.562 152.5,187.5C 151.504,187.586 150.671,187.252 150,186.5C 147.912,178.226 147.412,169.892 148.5,161.5C 149.807,163.223 149.807,165.057 148.5,167C 149,167.5 149.5,168 150,168.5C 151.375,166.063 151.875,163.397 151.5,160.5 Z"/></g>
<g><path style="opacity:1" fill="#77100b" d="M 148.5,170.5 C 149.601,169.402 150.934,169.235 152.5,170C 152.871,175.113 152.371,180.28 151,185.5C 150.223,182.571 150.39,179.737 151.5,177C 150.868,174.585 149.868,172.418 148.5,170.5 Z"/></g>
<g><path style="opacity:1" fill="#261913" d="M 104.5,169.5 C 93.5188,177.818 82.8522,186.485 72.5,195.5C 70.7376,196.262 69.7376,197.596 69.5,199.5C 66.1667,199.5 62.8333,199.5 59.5,199.5C 59.2069,196.246 59.8736,193.246 61.5,190.5C 66.2593,187.767 68.9259,183.767 69.5,178.5C 70.1667,179.5 70.8333,180.5 71.5,181.5C 71.3893,182.117 71.056,182.617 70.5,183C 73.1719,182.417 75.1719,183.584 76.5,186.5C 76.4895,185.559 76.9895,184.892 78,184.5C 78.8732,184.735 79.7065,185.069 80.5,185.5C 87.9147,179.137 95.9147,173.804 104.5,169.5 Z"/></g>
<g><path style="opacity:1" fill="#1f130b" d="M 28.5,185.5 C 29.2341,186.708 29.5674,188.041 29.5,189.5C 27.4805,188.462 27.1472,187.128 28.5,185.5 Z"/></g>
<g><path style="opacity:1" fill="#813106" d="M 60.5,186.5 C 60.2627,187.791 60.596,188.791 61.5,189.5C 61.5,189.833 61.5,190.167 61.5,190.5C 59.8736,193.246 59.2069,196.246 59.5,199.5C 58.1667,199.5 56.8333,199.5 55.5,199.5C 57.9277,195.453 59.5944,191.119 60.5,186.5 Z"/></g>
<g><path style="opacity:1" fill="#7c1c12" d="M 121.5,181.5 C 123.167,182.5 124.5,183.833 125.5,185.5C 124.969,188.237 124.136,190.904 123,193.5C 122.716,191.114 121.716,190.448 120,191.5C 119.544,192.744 120.044,193.577 121.5,194C 120.777,196.018 119.777,197.852 118.5,199.5C 118.167,199.5 117.833,199.5 117.5,199.5C 117.834,195.579 118.001,191.579 118,187.5C 118.333,187.833 118.667,188.167 119,188.5C 119.309,187.234 119.809,186.067 120.5,185C 119.2,183.421 119.534,182.255 121.5,181.5 Z"/></g>
<g><path style="opacity:1" fill="#e7d3b5" d="M 125.5,185.5 C 126.5,186.167 127.5,186.833 128.5,187.5C 129.754,190.093 131.42,192.427 133.5,194.5C 133.5,196.167 133.5,197.833 133.5,199.5C 128.5,199.5 123.5,199.5 118.5,199.5C 119.777,197.852 120.777,196.018 121.5,194C 120.044,193.577 119.544,192.744 120,191.5C 121.716,190.448 122.716,191.114 123,193.5C 124.136,190.904 124.969,188.237 125.5,185.5 Z"/></g>
<g><path style="opacity:1" fill="#441f0c" d="M 156.5,186.5 C 157.283,188.343 157.95,190.343 158.5,192.5C 158.376,193.107 158.043,193.44 157.5,193.5C 157.167,192.5 156.5,191.833 155.5,191.5C 156.038,189.883 156.371,188.216 156.5,186.5 Z"/></g>
<g><path style="opacity:1" fill="#040100" d="M 29.5,189.5 C 29.8333,189.5 30.1667,189.5 30.5,189.5C 30.5,190.167 30.5,190.833 30.5,191.5C 29.5269,193.948 29.1936,196.615 29.5,199.5C 28.8333,199.5 28.1667,199.5 27.5,199.5C 28.7845,197.047 28.7845,194.547 27.5,192C 28.0556,190.989 28.7222,190.156 29.5,189.5 Z"/></g>
<g><path style="opacity:1" fill="#83160f" d="M 96.5,199.5 C 96.1667,199.5 95.8333,199.5 95.5,199.5C 95.6793,194.375 97.1793,189.709 100,185.5C 100.707,190.674 99.5399,195.34 96.5,199.5 Z"/></g>
<g><path style="opacity:1" fill="#8f3a0e" d="M 152.5,187.5 C 153.776,189.562 154.61,191.896 155,194.5C 155.483,193.552 155.649,192.552 155.5,191.5C 156.5,191.833 157.167,192.5 157.5,193.5C 157.5,195.5 157.5,197.5 157.5,199.5C 155.833,199.5 154.167,199.5 152.5,199.5C 151.441,196.995 151.441,192.995 152.5,187.5 Z"/></g>
<g><path style="opacity:1" fill="#f25d09" d="M 133.5,194.5 C 135.5,195.833 137.167,197.5 138.5,199.5C 136.833,199.5 135.167,199.5 133.5,199.5C 133.5,197.833 133.5,196.167 133.5,194.5 Z"/></g>
<g><path style="opacity:1" fill="#e3560b" d="M 72.5,195.5 C 72.5,196.833 72.5,198.167 72.5,199.5C 71.5,199.5 70.5,199.5 69.5,199.5C 69.7376,197.596 70.7376,196.262 72.5,195.5 Z"/></g>
</svg>
