<?xml version="1.0" encoding="UTF-8"?>
<!DOCTYPE svg PUBLIC "-//W3C//DTD SVG 1.1//EN" "http://www.w3.org/Graphics/SVG/1.1/DTD/svg11.dtd">
<svg xmlns="http://www.w3.org/2000/svg" version="1.1" width="200px" height="200px" style="shape-rendering:geometricPrecision; text-rendering:geometricPrecision; image-rendering:optimizeQuality; fill-rule:evenodd; clip-rule:evenodd" xmlns:xlink="http://www.w3.org/1999/xlink">
<g><path style="opacity:0.997" fill="#27f6dd" d="M 100.5,199.5 C 99.8333,199.5 99.1667,199.5 98.5,199.5C 55.1414,195.98 24.6414,174.313 7,134.5C -7.36699,86.9363 5.13301,48.103 44.5,18C 78.8646,-3.55592 113.865,-4.55592 149.5,15C 192.898,44.3192 207.064,84.1525 192,134.5C 174.327,174.355 143.827,196.021 100.5,199.5 Z M 42.5,36.5 C 52.6014,41.7531 61.1014,49.0864 68,58.5C 90.0179,90.7064 94.6846,125.373 82,162.5C 79.8929,167.841 77.2262,172.841 74,177.5C 59.2113,168.366 44.7113,158.866 30.5,149C 39.9375,131.461 39.7709,113.961 30,96.5C 25.3247,90.6612 20.4914,84.9945 15.5,79.5C 24.9487,65.398 33.9487,51.0647 42.5,36.5 Z M 153.5,36.5 C 155.592,36.5614 157.092,37.5614 158,39.5C 166.25,53.0027 174.75,66.336 183.5,79.5C 178.509,84.9945 173.675,90.6612 169,96.5C 159.229,113.961 159.062,131.461 168.5,149C 154.289,158.866 139.789,168.366 125,177.5C 112.288,156.25 107.621,133.25 111,108.5C 115.688,78.7751 129.854,54.7751 153.5,36.5 Z"/></g>
</svg>
