<?xml version="1.0"?>
<svg version="1.1" xmlns="http://www.w3.org/2000/svg" width="200px" height="200px" style="border: dashed 2px #aaa"><path fill="#09ff00" d="M41.88,102.24c0,9.12-7.92,17.12-16.24,24.96c-2.8,2.64-5.6,5.2-7.92,7.44l21.2,0c1.6,0,2.32,0.48,2.32,2l0,4.24c0,1.52-0.64,2.32-2.32,2.32l-31.36,0c-1.92,0-2.48-0.64-2.48-2.48l0-3.84c0-1.6,0.32-2.24,1.44-3.36c4.96-5.04,10.48-9.84,14.96-14.48c6.08-6.32,9.92-11.52,9.92-16.16c0-4.96-3.52-7.36-8.24-7.36c-3.6,0-7.84,1.36-11.52,3.52c-0.4,0.24-0.8,0.4-1.2,0.4c-0.64,0-1.12-0.48-1.44-1.2l-1.84-4c-0.16-0.4-0.32-0.72-0.32-1.04c0-0.64,0.4-1.2,1.2-1.68c4.72-2.88,10.4-4.72,16.48-4.72c9.92,0,17.36,5.44,17.36,15.44z M93.04,115.36c0,15.12-5.44,28.8-19.76,28.8s-19.84-13.28-19.84-28.4c0-15.04,6-28.96,20-28.96c14.24,0,19.6,13.52,19.6,28.56z M82.32,115.36c0-12.16-2.64-19.68-8.88-19.68c-6.64,0-9.28,8-9.28,19.68c0,11.92,2.32,19.84,9.12,19.84c6.88,0,9.04-8,9.04-19.84z M141.16,102.24c0,9.12-7.92,17.12-16.24,24.96c-2.8,2.64-5.6,5.2-7.92,7.44l21.2,0c1.6,0,2.32,0.48,2.32,2l0,4.24c0,1.52-0.64,2.32-2.32,2.32l-31.36,0c-1.92,0-2.48-0.64-2.48-2.48l0-3.84c0-1.6,0.32-2.24,1.44-3.36c4.96-5.04,10.48-9.84,14.96-14.48c6.08-6.32,9.92-11.52,9.92-16.16c0-4.96-3.52-7.36-8.24-7.36c-3.6,0-7.84,1.36-11.52,3.52c-0.4,0.24-0.8,0.4-1.2,0.4c-0.64,0-1.12-0.48-1.44-1.2l-1.84-4c-0.16-0.4-0.32-0.72-0.32-1.04c0-0.64,0.4-1.2,1.2-1.68c4.72-2.88,10.4-4.72,16.48-4.72c9.92,0,17.36,5.44,17.36,15.44z M189.84,141.2c0,1.52-0.96,2-2.24,2l-5.84,0c-1.36,0-2.16-0.48-2.16-2.08l0-9.92l-25.2,0c-1.92,0-2.24-1.04-2.24-2.48l0-2.96c0-1.44,0.16-2.24,1.04-4l15.12-31.84c0.64-1.44,1.2-2.08,2.8-2.08l5.76,0c1.28,0,1.68,0.56,1.68,1.28c0,0.48-0.16,0.88-0.32,1.28l-14.88,32.24l16.24,0l0-12.4c0-1.6,0.88-2,2.24-2l5.76,0c1.44,0,2.24,0.4,2.24,2l0,30.96z"/><path fill="#" d=""/></svg>
