<?xml version="1.0" encoding="UTF-8"?>
<!DOCTYPE svg PUBLIC "-//W3C//DTD SVG 1.1//EN" "http://www.w3.org/Graphics/SVG/1.1/DTD/svg11.dtd">
<svg xmlns="http://www.w3.org/2000/svg" version="1.1" width="200px" height="200px" style="shape-rendering:geometricPrecision; text-rendering:geometricPrecision; image-rendering:optimizeQuality; fill-rule:evenodd; clip-rule:evenodd" xmlns:xlink="http://www.w3.org/1999/xlink">
<g><path style="opacity:0.714" fill="#73cbc5" d="M 107.5,19.5 C 106.167,20.1667 106.167,20.8333 107.5,21.5C 107.065,24.8375 107.732,27.8375 109.5,30.5C 106.708,29.6082 105.375,27.6082 105.5,24.5C 106.833,23.8333 106.833,23.1667 105.5,22.5C 105.719,21.325 105.386,20.325 104.5,19.5C 102.776,22.053 101.276,24.7197 100,27.5C 99.5357,26.9056 99.369,26.2389 99.5,25.5C 100.969,23.1643 102.302,20.6643 103.5,18C 105.352,17.2274 106.686,17.7274 107.5,19.5 Z"/></g>
<g><path style="opacity:0.286" fill="#8fd5d1" d="M 159.5,17.5 C 159.539,16.4168 159.873,15.4168 160.5,14.5C 159.998,13.479 159.332,13.3123 158.5,14C 154.602,17.7288 150.935,21.5621 147.5,25.5C 148.032,21.5385 146.532,18.2052 143,15.5C 142.517,14.552 142.351,13.552 142.5,12.5C 147.048,12.1994 150.215,14.1994 152,18.5C 153.833,16.6667 155.667,14.8333 157.5,13C 163.038,12.5718 163.705,14.0718 159.5,17.5 Z"/></g>
<g><path style="opacity:0.984" fill="#c9f2ef" d="M 133.5,18.5 C 135.977,18.0508 137.977,18.7175 139.5,20.5C 137.78,20.7463 135.78,20.7463 133.5,20.5C 133.5,21.5 133.5,22.5 133.5,23.5C 135.5,23.5 137.5,23.5 139.5,23.5C 142.965,25.2635 143.299,27.5969 140.5,30.5C 137.365,31.7828 134.365,31.7828 131.5,30.5C 132.183,28.8235 133.517,28.1568 135.5,28.5C 136.833,28.5 137.5,27.8333 137.5,26.5C 135.782,25.776 133.948,25.1094 132,24.5C 131.506,22.8659 131.34,21.1992 131.5,19.5C 131.842,18.6618 132.508,18.3284 133.5,18.5 Z"/></g>
<g><path style="opacity:0.227" fill="#68beba" d="M 133.5,18.5 C 135.948,17.5269 138.615,17.1936 141.5,17.5C 141.747,19.8583 141.081,21.8583 139.5,23.5C 137.5,23.5 135.5,23.5 133.5,23.5C 133.5,22.5 133.5,21.5 133.5,20.5C 135.78,20.7463 137.78,20.7463 139.5,20.5C 137.977,18.7175 135.977,18.0508 133.5,18.5 Z"/></g>
<g><path style="opacity:1" fill="#ccf2ee" d="M 119.5,20.5 C 119.5,21.8333 119.5,23.1667 119.5,24.5C 119.5,24.8333 119.5,25.1667 119.5,25.5C 116.5,25.5 113.5,25.5 110.5,25.5C 110.5,26.5 110.5,27.5 110.5,28.5C 111.791,28.7373 112.791,28.404 113.5,27.5C 113.833,27.5 114.167,27.5 114.5,27.5C 115.398,28.1577 116.398,28.8243 117.5,29.5C 114.914,30.48 112.247,30.8134 109.5,30.5C 107.732,27.8375 107.065,24.8375 107.5,21.5C 107.5,20.8333 107.5,20.1667 107.5,19.5C 111.76,16.6851 115.76,17.0184 119.5,20.5 Z"/></g>
<g><path style="opacity:0.153" fill="#67b5b2" d="M 111.5,20.5 C 113.665,20.1159 115.332,20.7826 116.5,22.5C 114.5,23.8333 112.5,23.8333 110.5,22.5C 110.863,21.8165 111.196,21.1499 111.5,20.5 Z"/></g>
<g><path style="opacity:0.286" fill="#76c9c5" d="M 131.5,19.5 C 131.34,21.1992 131.506,22.8659 132,24.5C 133.948,25.1094 135.782,25.776 137.5,26.5C 136.127,26.3433 134.793,26.51 133.5,27C 134.416,27.2784 135.082,27.7784 135.5,28.5C 133.517,28.1568 132.183,28.8235 131.5,30.5C 130.522,30.189 129.855,29.5223 129.5,28.5C 130.873,25.6166 130.207,23.2833 127.5,21.5C 126.026,22.4363 125.026,23.7697 124.5,25.5C 126.5,30.8333 124.833,32.5 119.5,30.5C 115.951,32.6975 112.618,32.6975 109.5,30.5C 112.247,30.8134 114.914,30.48 117.5,29.5C 116.398,28.8243 115.398,28.1577 114.5,27.5C 114.167,26.1667 113.833,26.1667 113.5,27.5C 112.791,28.404 111.791,28.7373 110.5,28.5C 110.5,27.5 110.5,26.5 110.5,25.5C 113.5,25.5 116.5,25.5 119.5,25.5C 119.082,26.2216 118.416,26.7216 117.5,27C 118.333,27.8333 119.167,28.6667 120,29.5C 120.78,27.6131 120.613,25.9464 119.5,24.5C 119.5,23.1667 119.5,21.8333 119.5,20.5C 120.167,19.8333 120.833,19.1667 121.5,18.5C 121.176,22.5546 121.509,26.5546 122.5,30.5C 123.089,27.1631 124.089,23.9965 125.5,21C 124.244,20.5831 123.577,19.7498 123.5,18.5C 126.482,16.9225 129.149,17.2558 131.5,19.5 Z"/></g>
<g><path style="opacity:1" fill="#d4f3ed" d="M 159.5,17.5 C 159.167,18.1667 158.833,18.8333 158.5,19.5C 156.983,19.5106 155.816,20.1772 155,21.5C 153.25,23.7343 151.75,26.0676 150.5,28.5C 150.5,29.1667 150.167,29.5 149.5,29.5C 147.84,31.2484 145.84,31.7484 143.5,31C 144.823,30.1841 145.489,29.0174 145.5,27.5C 145.833,26.5 146.5,25.8333 147.5,25.5C 150.935,21.5621 154.602,17.7288 158.5,14C 159.332,13.3123 159.998,13.479 160.5,14.5C 159.873,15.4168 159.539,16.4168 159.5,17.5 Z"/></g>
<g><path style="opacity:0.986" fill="#d2f5f1" d="M 99.5,24.5 C 99.5,24.8333 99.5,25.1667 99.5,25.5C 99.369,26.2389 99.5357,26.9056 100,27.5C 101.276,24.7197 102.776,22.053 104.5,19.5C 105.386,20.325 105.719,21.325 105.5,22.5C 105.5,22.8333 105.5,23.1667 105.5,23.5C 103.804,25.2681 102.47,27.4348 101.5,30C 100.365,30.7494 99.365,30.5827 98.5,29.5C 98.0576,28.2613 97.3909,27.2613 96.5,26.5C 95.0582,25.1805 94.3915,23.5138 94.5,21.5C 94.5173,19.9719 95.184,19.4719 96.5,20C 97.0527,21.8778 98.0527,23.3778 99.5,24.5 Z"/></g>
<g><path style="opacity:0.827" fill="#c7f0ec" d="M 57.5,13.5 C 57.5,19.1667 57.5,24.8333 57.5,30.5C 56.5,30.5 55.5,30.5 54.5,30.5C 54.6653,26.8183 54.4986,23.1516 54,19.5C 52.9614,20.2438 52.4614,21.2438 52.5,22.5C 51.6597,24.8525 50.3264,26.8525 48.5,28.5C 46.7377,27.3115 45.7377,25.6449 45.5,23.5C 45.205,21.5767 44.3717,19.9101 43,18.5C 42.8265,22.5408 42.3265,26.5408 41.5,30.5C 40.5046,24.8722 40.1712,19.2055 40.5,13.5C 41.5,13.5 42.5,13.5 43.5,13.5C 44.9117,15.9801 46.5784,18.3134 48.5,20.5C 50.0426,17.914 51.7093,15.414 53.5,13C 55.0657,12.235 56.3991,12.4017 57.5,13.5 Z"/></g>
<g><path style="opacity:0.945" fill="#e1f9f8" d="M 121.5,18.5 C 122.167,18.5 122.833,18.5 123.5,18.5C 123.577,19.7498 124.244,20.5831 125.5,21C 124.089,23.9965 123.089,27.1631 122.5,30.5C 121.509,26.5546 121.176,22.5546 121.5,18.5 Z"/></g>
<g><path style="opacity:0.322" fill="#74c9c4" d="M 76.5,13.5 C 77.4345,14.5676 77.7678,15.901 77.5,17.5C 78.5,17.5 79.5,17.5 80.5,17.5C 81.4563,12.3699 83.123,12.2033 85.5,17C 86.448,17.4828 87.448,17.6495 88.5,17.5C 87.7366,13.8622 89.0699,12.3622 92.5,13C 93.8602,14.9376 93.5268,16.6043 91.5,18C 96.5617,16.8745 99.2284,19.0412 99.5,24.5C 98.0527,23.3778 97.0527,21.8778 96.5,20C 95.184,19.4719 94.5173,19.9719 94.5,21.5C 93.6365,20.537 92.9698,20.537 92.5,21.5C 93.4173,24.7577 93.7507,28.091 93.5,31.5C 89.9651,32.0117 86.6318,32.0117 83.5,31.5C 82.5041,31.5858 81.6708,31.2524 81,30.5C 80.8214,27.4465 80.3214,24.4465 79.5,21.5C 78.0089,22.3481 77.3422,23.6814 77.5,25.5C 77.8396,27.5122 78.1729,29.5122 78.5,31.5C 75.7508,31.2739 73.0841,31.6072 70.5,32.5C 67.557,31.7565 64.557,31.2565 61.5,31C 59.8717,27.3967 59.0384,23.5634 59,19.5C 58.5012,23.4862 58.3345,27.4862 58.5,31.5C 56.7988,31.9662 55.2988,31.9662 54,31.5C 53.8195,28.3054 53.3195,25.3054 52.5,22.5C 52.4614,21.2438 52.9614,20.2438 54,19.5C 54.4986,23.1516 54.6653,26.8183 54.5,30.5C 55.5,30.5 56.5,30.5 57.5,30.5C 57.5,24.8333 57.5,19.1667 57.5,13.5C 58.3019,14.9516 58.8019,16.6183 59,18.5C 60.6667,17.1667 62.3333,17.1667 64,18.5C 63.9167,21.1194 63.75,23.786 63.5,26.5C 62.8343,23.9723 62.1676,21.3056 61.5,18.5C 58.4421,28.0979 61.7754,32.0979 71.5,30.5C 71.5,26.5 71.5,22.5 71.5,18.5C 73.0739,16.8984 73.7406,14.8984 73.5,12.5C 74.791,12.2627 75.791,12.596 76.5,13.5 Z M 87.5,20.5 C 88.8003,23.0241 88.8003,25.6908 87.5,28.5C 84.9711,26.9375 83.9711,24.6041 84.5,21.5C 85.791,21.7373 86.791,21.404 87.5,20.5 Z"/></g>
<g><path style="opacity:1" fill="#caf3f0" d="M 71.5,18.5 C 71.5,22.5 71.5,26.5 71.5,30.5C 61.7754,32.0979 58.4421,28.0979 61.5,18.5C 62.1676,21.3056 62.8343,23.9723 63.5,26.5C 65.0682,28.9312 66.5682,28.9312 68,26.5C 68.3333,23.8333 68.6667,21.1667 69,18.5C 69.9772,17.2264 70.8106,17.2264 71.5,18.5 Z"/></g>
<g><path style="opacity:0.988" fill="#e3faf9" d="M 89.5,19.5 C 90.7868,20.8714 91.4535,22.7047 91.5,25C 91.1667,26.8333 90.8333,28.6667 90.5,30.5C 89.5108,26.8927 89.1774,23.226 89.5,19.5 Z"/></g>
<g><path style="opacity:1" fill="#d7fef9" d="M 76.5,13.5 C 76.8288,19.2055 76.4954,24.8722 75.5,30.5C 75.1667,27.6667 74.8333,24.8333 74.5,22C 74.5191,18.7485 75.1858,15.9151 76.5,13.5 Z"/></g>
<g><path style="opacity:1" fill="#dcfaf6" d="M 83.5,31.5 C 82.2335,27.5309 80.9002,23.5309 79.5,19.5C 80.6461,18.2813 81.6461,16.9479 82.5,15.5C 83.3857,16.325 83.719,17.325 83.5,18.5C 87.5,19.1667 87.5,19.8333 83.5,20.5C 83.3359,23.1873 83.5026,25.854 84,28.5C 87.4665,30.1806 87.2998,31.1806 83.5,31.5 Z"/></g>
<g><path style="opacity:0.525" fill="#7ac8c3" d="M 43.5,13.5 C 42.5,13.5 41.5,13.5 40.5,13.5C 40.1712,19.2055 40.5046,24.8722 41.5,30.5C 42.3265,26.5408 42.8265,22.5408 43,18.5C 44.3717,19.9101 45.205,21.5767 45.5,23.5C 44.8826,23.3893 44.3826,23.056 44,22.5C 43.7883,25.7577 43.2883,28.9243 42.5,32C 40.08,32.9149 38.7466,32.0815 38.5,29.5C 38.4105,24.8695 38.7439,20.2028 39.5,15.5C 39.6962,13.7139 40.5295,12.3805 42,11.5C 42.7172,12.0442 43.2172,12.7109 43.5,13.5 Z"/></g>
<g><path style="opacity:0.204" fill="#74c2bd" d="M 105.5,23.5 C 105.5,23.8333 105.5,24.1667 105.5,24.5C 104.851,27.5827 103.351,30.2494 101,32.5C 97.8022,31.7703 96.3022,29.7703 96.5,26.5C 97.3909,27.2613 98.0576,28.2613 98.5,29.5C 99.365,30.5827 100.365,30.7494 101.5,30C 102.47,27.4348 103.804,25.2681 105.5,23.5 Z"/></g>
<g><path style="opacity:0.294" fill="#68c6bf" d="M 145.5,27.5 C 145.489,29.0174 144.823,30.1841 143.5,31C 145.84,31.7484 147.84,31.2484 149.5,29.5C 149.586,30.4959 149.252,31.3292 148.5,32C 146.527,32.4955 144.527,32.6621 142.5,32.5C 142.273,30.0672 143.273,28.4006 145.5,27.5 Z"/></g>
<g><path style="opacity:0.329" fill="#69c6c2" d="M 158.5,19.5 C 157.71,20.7942 156.71,21.9609 155.5,23C 156.756,23.4169 157.423,24.2502 157.5,25.5C 160.364,27.0233 162.031,29.3567 162.5,32.5C 157.376,33.5361 154.21,31.5361 153,26.5C 152.292,27.3805 151.458,28.0472 150.5,28.5C 151.75,26.0676 153.25,23.7343 155,21.5C 155.816,20.1772 156.983,19.5106 158.5,19.5 Z"/></g>
<g><path style="opacity:0.941" fill="#d6f7f5" d="M 157.5,25.5 C 158.203,27.7157 159.536,29.549 161.5,31C 156.491,31.4939 154.491,29.3273 155.5,24.5C 156.183,24.8627 156.85,25.1961 157.5,25.5 Z"/></g>
<g><path style="opacity:0.678" fill="#266260" d="M 139.5,39.5 C 137.585,39.2155 135.919,39.5489 134.5,40.5C 134.823,47.0221 134.49,53.3554 133.5,59.5C 132.167,59.5 130.833,59.5 129.5,59.5C 129.5,57.8333 129.5,56.1667 129.5,54.5C 130.434,55.5676 130.768,56.901 130.5,58.5C 131.5,58.5 132.5,58.5 133.5,58.5C 133.808,52.5746 133.475,46.7412 132.5,41C 134.51,38.4872 136.843,37.9872 139.5,39.5 Z"/></g>
<g><path style="opacity:0.564" fill="#2d6064" d="M 75.5,50.5 C 91.9916,49.5035 108.658,49.1702 125.5,49.5C 125.5,49.8333 125.5,50.1667 125.5,50.5C 125.167,50.5 124.833,50.5 124.5,50.5C 108.833,50.5 93.1667,50.5 77.5,50.5C 77.7678,52.099 77.4345,53.4324 76.5,54.5C 76.7678,52.901 76.4345,51.5676 75.5,50.5 Z"/></g>
<g><path style="opacity:1" fill="#0d1618" d="M 71.5,54.5 C 71.8333,54.5 72.1667,54.5 72.5,54.5C 73.8333,54.5 75.1667,54.5 76.5,54.5C 77.4345,53.4324 77.7678,52.099 77.5,50.5C 93.1667,50.5 108.833,50.5 124.5,50.5C 124.5,51.8333 124.5,53.1667 124.5,54.5C 110.167,54.5 95.8333,54.5 81.5,54.5C 81.5,55.5 81.5,56.5 81.5,57.5C 80.1979,59.0276 78.5313,60.0276 76.5,60.5C 75.596,61.209 75.2627,62.209 75.5,63.5C 73.2627,62.551 70.9294,61.8844 68.5,61.5C 68.1159,66.4426 65.9492,67.4426 62,64.5C 61.5003,56.5069 61.3336,48.5069 61.5,40.5C 60.5,40.5 59.5,40.5 58.5,40.5C 58.8279,51.6794 58.4946,62.6794 57.5,73.5C 57.5,62.1667 57.5,50.8333 57.5,39.5C 59.1667,39.5 60.8333,39.5 62.5,39.5C 62.3336,47.5069 62.5003,55.5069 63,63.5C 64.3561,64.3802 65.8561,64.7135 67.5,64.5C 67.5,62.8333 67.5,61.1667 67.5,59.5C 68.8333,59.5 70.1667,59.5 71.5,59.5C 71.5,57.8333 71.5,56.1667 71.5,54.5 Z"/></g>
<g><path style="opacity:0.094" fill="#5fa5a6" d="M 75.5,50.5 C 76.4345,51.5676 76.7678,52.901 76.5,54.5C 75.1667,54.5 73.8333,54.5 72.5,54.5C 73.209,53.596 74.209,53.2627 75.5,53.5C 75.5,52.5 75.5,51.5 75.5,50.5 Z"/></g>
<g><path style="opacity:0.027" fill="#4db2ad" d="M 125.5,49.5 C 126.434,50.5676 126.768,51.901 126.5,53.5C 127.791,53.2627 128.791,53.596 129.5,54.5C 128.167,54.5 126.833,54.5 125.5,54.5C 125.5,53.1667 125.5,51.8333 125.5,50.5C 125.5,50.1667 125.5,49.8333 125.5,49.5 Z"/></g>
<g><path style="opacity:0.169" fill="#449d99" d="M 139.5,39.5 C 140.495,50.3206 140.828,61.3206 140.5,72.5C 142.099,72.2322 143.432,72.5655 144.5,73.5C 144.167,73.5 143.833,73.5 143.5,73.5C 142.167,73.5 140.833,73.5 139.5,73.5C 139.5,62.1667 139.5,50.8333 139.5,39.5 Z"/></g>
<g><path style="opacity:0.438" fill="#377876" d="M 71.5,54.5 C 71.5,56.1667 71.5,57.8333 71.5,59.5C 70.1667,59.5 68.8333,59.5 67.5,59.5C 67.5,61.1667 67.5,62.8333 67.5,64.5C 65.8561,64.7135 64.3561,64.3802 63,63.5C 62.5003,55.5069 62.3336,47.5069 62.5,39.5C 60.8333,39.5 59.1667,39.5 57.5,39.5C 57.5,50.8333 57.5,62.1667 57.5,73.5C 55.8333,73.5 54.1667,73.5 52.5,73.5C 52.5,75.1667 52.5,76.8333 52.5,78.5C 50.8333,78.5 49.1667,78.5 47.5,78.5C 47.5,84.8333 47.5,91.1667 47.5,97.5C 46.5093,91.021 46.176,84.3543 46.5,77.5C 48.1667,77.5 49.8333,77.5 51.5,77.5C 51.5,75.8333 51.5,74.1667 51.5,72.5C 53.1667,72.5 54.8333,72.5 56.5,72.5C 56.5,61.1667 56.5,49.8333 56.5,38.5C 58.8333,38.5 61.1667,38.5 63.5,38.5C 63.3336,46.5069 63.5003,54.5069 64,62.5C 64.6667,63.8333 65.3333,63.8333 66,62.5C 66.49,61.2068 66.6567,59.8734 66.5,58.5C 67.8333,58.5 69.1667,58.5 70.5,58.5C 70.2322,56.901 70.5655,55.5676 71.5,54.5 Z"/></g>
<g><path style="opacity:1" fill="#2c3033" d="M 124.5,50.5 C 124.833,50.5 125.167,50.5 125.5,50.5C 125.5,51.8333 125.5,53.1667 125.5,54.5C 126.833,54.5 128.167,54.5 129.5,54.5C 129.5,56.1667 129.5,57.8333 129.5,59.5C 129.5,60.8333 129.5,62.1667 129.5,63.5C 128.167,63.5 126.833,63.5 125.5,63.5C 125.072,60.7535 123.406,59.0868 120.5,58.5C 114.047,59.1481 107.547,59.4815 101,59.5C 94.2613,59.4595 87.7613,58.7928 81.5,57.5C 81.5,56.5 81.5,55.5 81.5,54.5C 95.8333,54.5 110.167,54.5 124.5,54.5C 124.5,53.1667 124.5,51.8333 124.5,50.5 Z"/></g>
<g><path style="opacity:1" fill="#121218" d="M 134.5,40.5 C 135.833,40.5 137.167,40.5 138.5,40.5C 138.172,51.6794 138.505,62.6794 139.5,73.5C 140.833,73.5 142.167,73.5 143.5,73.5C 143.5,75.1667 143.5,76.8333 143.5,78.5C 144.833,78.5 146.167,78.5 147.5,78.5C 147.5,79.8333 147.5,81.1667 147.5,82.5C 146.178,82.33 145.011,82.6634 144,83.5C 143.333,87.8333 143.333,92.1667 144,96.5C 145.587,97.727 146.921,97.3937 148,95.5C 148.499,91.5138 148.666,87.5138 148.5,83.5C 149.833,83.5 151.167,83.5 152.5,83.5C 152.5,87.8333 152.5,92.1667 152.5,96.5C 151.167,96.5 149.833,96.5 148.5,96.5C 148.5,98.1667 148.5,99.8333 148.5,101.5C 146.585,101.216 144.919,101.549 143.5,102.5C 142.883,102.611 142.383,102.944 142,103.5C 140.097,101.559 139.264,99.2257 139.5,96.5C 139.5,90.5 139.5,84.5 139.5,78.5C 137.833,78.5 136.167,78.5 134.5,78.5C 134.5,76.8333 134.5,75.1667 134.5,73.5C 133.5,73.5 132.5,73.5 131.5,73.5C 116.342,72.5038 101.009,72.1705 85.5,72.5C 85.9923,76.2896 85.159,76.9563 83,74.5C 82.5065,72.8659 82.3398,71.1992 82.5,69.5C 100.008,69.83 117.341,69.4967 134.5,68.5C 135.244,65.0504 133.91,63.3838 130.5,63.5C 130.5,62.5 130.5,61.5 130.5,60.5C 131.791,60.7373 132.791,60.404 133.5,59.5C 134.49,53.3554 134.823,47.0221 134.5,40.5 Z"/></g>
<g><path style="opacity:0.973" fill="#08292a" d="M 134.5,40.5 C 135.919,39.5489 137.585,39.2155 139.5,39.5C 139.5,50.8333 139.5,62.1667 139.5,73.5C 138.505,62.6794 138.172,51.6794 138.5,40.5C 137.167,40.5 135.833,40.5 134.5,40.5 Z"/></g>
<g><path style="opacity:1" fill="#121317" d="M 76.5,60.5 C 76.33,61.8221 76.6634,62.9887 77.5,64C 75.5273,64.4955 73.5273,64.6621 71.5,64.5C 71.5,65.8333 71.5,67.1667 71.5,68.5C 69.8333,68.5 68.1667,68.5 66.5,68.5C 66.3354,71.5184 66.502,74.5184 67,77.5C 68.3561,78.3802 69.8561,78.7135 71.5,78.5C 71.2322,80.099 71.5655,81.4324 72.5,82.5C 72.5628,87.2029 72.2295,91.8696 71.5,96.5C 70.1667,96.5 68.8333,96.5 67.5,96.5C 67.8195,91.6367 67.4861,86.97 66.5,82.5C 65.0384,81.5423 63.7051,80.3756 62.5,79C 60.8659,78.5065 59.1992,78.3398 57.5,78.5C 57.7678,80.099 57.4345,81.4324 56.5,82.5C 56.8808,80.0582 56.2141,79.3915 54.5,80.5C 53.8182,79.7573 53.1515,79.0906 52.5,78.5C 52.5,76.8333 52.5,75.1667 52.5,73.5C 54.1667,73.5 55.8333,73.5 57.5,73.5C 58.4946,62.6794 58.8279,51.6794 58.5,40.5C 59.5,40.5 60.5,40.5 61.5,40.5C 61.3336,48.5069 61.5003,56.5069 62,64.5C 65.9492,67.4426 68.1159,66.4426 68.5,61.5C 70.9294,61.8844 73.2627,62.551 75.5,63.5C 75.2627,62.209 75.596,61.209 76.5,60.5 Z"/></g>
<g><path style="opacity:1" fill="#242528" d="M 81.5,57.5 C 87.7613,58.7928 94.2613,59.4595 101,59.5C 107.547,59.4815 114.047,59.1481 120.5,58.5C 123.406,59.0868 125.072,60.7535 125.5,63.5C 126.833,63.5 128.167,63.5 129.5,63.5C 129.5,62.1667 129.5,60.8333 129.5,59.5C 130.833,59.5 132.167,59.5 133.5,59.5C 132.791,60.404 131.791,60.7373 130.5,60.5C 130.5,61.5 130.5,62.5 130.5,63.5C 133.91,63.3838 135.244,65.0504 134.5,68.5C 116.833,68.5 99.1667,68.5 81.5,68.5C 81.5,70.1667 81.5,71.8333 81.5,73.5C 79.8333,73.5 78.1667,73.5 76.5,73.5C 76.5,76.5 76.5,79.5 76.5,82.5C 75.1667,82.5 73.8333,82.5 72.5,82.5C 71.5655,81.4324 71.2322,80.099 71.5,78.5C 69.8561,78.7135 68.3561,78.3802 67,77.5C 66.502,74.5184 66.3354,71.5184 66.5,68.5C 68.1667,68.5 69.8333,68.5 71.5,68.5C 71.5,67.1667 71.5,65.8333 71.5,64.5C 73.5273,64.6621 75.5273,64.4955 77.5,64C 76.6634,62.9887 76.33,61.8221 76.5,60.5C 78.5313,60.0276 80.1979,59.0276 81.5,57.5 Z"/></g>
<g><path style="opacity:1" fill="#262729" d="M 130.5,92.5 C 125.117,93.1748 124.451,95.1748 128.5,98.5C 129.167,97.8333 129.833,97.1667 130.5,96.5C 131.666,98.1673 131.666,99.834 130.5,101.5C 115.833,101.5 101.167,101.5 86.5,101.5C 86.5,99.8333 86.5,98.1667 86.5,96.5C 85.1667,96.5 83.8333,96.5 82.5,96.5C 83.209,95.596 84.209,95.2627 85.5,95.5C 84.9132,89.6973 85.5798,84.1973 87.5,79C 101.408,78.1774 115.242,78.3441 129,79.5C 129.49,78.2068 129.657,76.8734 129.5,75.5C 130.552,75.3505 131.552,75.5172 132.5,76C 131.663,77.0113 131.33,78.1779 131.5,79.5C 135.5,79.8333 135.5,80.1667 131.5,80.5C 132.724,82.8197 134.058,85.153 135.5,87.5C 134.819,90.1811 133.152,91.8478 130.5,92.5 Z"/></g>
<g><path style="opacity:1" fill="#242528" d="M 131.5,73.5 C 132.5,73.5 133.5,73.5 134.5,73.5C 134.5,75.1667 134.5,76.8333 134.5,78.5C 136.167,78.5 137.833,78.5 139.5,78.5C 139.5,84.5 139.5,90.5 139.5,96.5C 135.5,95.8333 133.833,97.5 134.5,101.5C 133.5,101.5 132.5,101.5 131.5,101.5C 131.167,101.5 130.833,101.5 130.5,101.5C 131.666,99.834 131.666,98.1673 130.5,96.5C 129.833,97.1667 129.167,97.8333 128.5,98.5C 124.451,95.1748 125.117,93.1748 130.5,92.5C 133.152,91.8478 134.819,90.1811 135.5,87.5C 134.058,85.153 132.724,82.8197 131.5,80.5C 135.5,80.1667 135.5,79.8333 131.5,79.5C 131.33,78.1779 131.663,77.0113 132.5,76C 131.552,75.5172 130.552,75.3505 129.5,75.5C 129.657,76.8734 129.49,78.2068 129,79.5C 115.242,78.3441 101.408,78.1774 87.5,79C 85.5798,84.1973 84.9132,89.6973 85.5,95.5C 84.209,95.2627 83.209,95.596 82.5,96.5C 81.5104,90.69 81.1771,84.69 81.5,78.5C 85.5,79.1667 87.1667,77.5 86.5,73.5C 101.5,73.5 116.5,73.5 131.5,73.5 Z"/></g>
<g><path style="opacity:1" fill="#17181b" d="M 134.5,68.5 C 117.341,69.4967 100.008,69.83 82.5,69.5C 82.3398,71.1992 82.5065,72.8659 83,74.5C 85.159,76.9563 85.9923,76.2896 85.5,72.5C 101.009,72.1705 116.342,72.5038 131.5,73.5C 116.5,73.5 101.5,73.5 86.5,73.5C 87.1667,77.5 85.5,79.1667 81.5,78.5C 81.1771,84.69 81.5104,90.69 82.5,96.5C 83.8333,96.5 85.1667,96.5 86.5,96.5C 86.5,98.1667 86.5,99.8333 86.5,101.5C 101.167,101.5 115.833,101.5 130.5,101.5C 130.833,101.5 131.167,101.5 131.5,101.5C 119.678,102.495 107.678,102.828 95.5,102.5C 91.2982,102.4 87.4649,102.733 84,103.5C 83.6667,102.833 83.3333,102.167 83,101.5C 82.5065,103.134 82.3398,104.801 82.5,106.5C 77.213,107.342 71.8797,107.676 66.5,107.5C 66.8174,104.428 66.4841,101.428 65.5,98.5C 64.8165,98.1373 64.1499,97.8039 63.5,97.5C 64.209,96.596 65.209,96.2627 66.5,96.5C 66.5,91.8333 66.5,87.1667 66.5,82.5C 67.4861,86.97 67.8195,91.6367 67.5,96.5C 68.8333,96.5 70.1667,96.5 71.5,96.5C 72.2295,91.8696 72.5628,87.2029 72.5,82.5C 73.8333,82.5 75.1667,82.5 76.5,82.5C 76.5,79.5 76.5,76.5 76.5,73.5C 78.1667,73.5 79.8333,73.5 81.5,73.5C 81.5,71.8333 81.5,70.1667 81.5,68.5C 99.1667,68.5 116.833,68.5 134.5,68.5 Z"/></g>
<g><path style="opacity:1" fill="#eaebe6" d="M 91.5,81.5 C 93.1667,81.5 94.8333,81.5 96.5,81.5C 96.5,85.1667 96.5,88.8333 96.5,92.5C 94.8333,92.5 93.1667,92.5 91.5,92.5C 91.5,88.8333 91.5,85.1667 91.5,81.5 Z"/></g>
<g><path style="opacity:1" fill="#272e2e" d="M 147.5,78.5 C 148.451,79.9187 148.784,81.5853 148.5,83.5C 148.666,87.5138 148.499,91.5138 148,95.5C 146.921,97.3937 145.587,97.727 144,96.5C 143.333,92.1667 143.333,87.8333 144,83.5C 145.011,82.6634 146.178,82.33 147.5,82.5C 147.5,81.1667 147.5,79.8333 147.5,78.5 Z"/></g>
<g><path style="opacity:0.416" fill="#367678" d="M 143.5,73.5 C 143.833,73.5 144.167,73.5 144.5,73.5C 144.5,74.8333 144.5,76.1667 144.5,77.5C 146.167,77.5 147.833,77.5 149.5,77.5C 149.5,79.1667 149.5,80.8333 149.5,82.5C 150.833,82.5 152.167,82.5 153.5,82.5C 153.827,87.544 153.494,92.544 152.5,97.5C 150.227,98.3751 149.227,100.042 149.5,102.5C 146.05,101.756 144.384,103.09 144.5,106.5C 144.167,106.5 143.833,106.5 143.5,106.5C 143.5,105.167 143.5,103.833 143.5,102.5C 144.919,101.549 146.585,101.216 148.5,101.5C 148.5,99.8333 148.5,98.1667 148.5,96.5C 149.833,96.5 151.167,96.5 152.5,96.5C 152.5,92.1667 152.5,87.8333 152.5,83.5C 151.167,83.5 149.833,83.5 148.5,83.5C 148.784,81.5853 148.451,79.9187 147.5,78.5C 146.167,78.5 144.833,78.5 143.5,78.5C 143.5,76.8333 143.5,75.1667 143.5,73.5 Z"/></g>
<g><path style="opacity:1" fill="#27292c" d="M 66.5,82.5 C 66.5,87.1667 66.5,91.8333 66.5,96.5C 65.209,96.2627 64.209,96.596 63.5,97.5C 61.5,97.5 59.5,97.5 57.5,97.5C 57.5,95.8333 57.5,94.1667 57.5,92.5C 55.8333,92.5 54.1667,92.5 52.5,92.5C 52.5,89.1667 52.5,85.8333 52.5,82.5C 53.8333,82.5 55.1667,82.5 56.5,82.5C 57.4345,81.4324 57.7678,80.099 57.5,78.5C 59.1992,78.3398 60.8659,78.5065 62.5,79C 63.7051,80.3756 65.0384,81.5423 66.5,82.5 Z"/></g>
<g><path style="opacity:1" fill="#edece8" d="M 130.5,92.5 C 128.833,92.5 127.167,92.5 125.5,92.5C 125.5,88.8333 125.5,85.1667 125.5,81.5C 127.167,81.5 128.833,81.5 130.5,81.5C 130.5,85.1667 130.5,88.8333 130.5,92.5 Z"/></g>
<g><path style="opacity:1" fill="#0a272b" d="M 52.5,78.5 C 51.4324,79.4345 50.099,79.7678 48.5,79.5C 48.5,85.1667 48.5,90.8333 48.5,96.5C 50.099,96.2322 51.4324,96.5655 52.5,97.5C 50.8333,97.5 49.1667,97.5 47.5,97.5C 47.5,91.1667 47.5,84.8333 47.5,78.5C 49.1667,78.5 50.8333,78.5 52.5,78.5 Z"/></g>
<g><path style="opacity:1" fill="#15161a" d="M 139.5,96.5 C 139.264,99.2257 140.097,101.559 142,103.5C 142.383,102.944 142.883,102.611 143.5,102.5C 143.5,103.833 143.5,105.167 143.5,106.5C 142.167,106.5 140.833,106.5 139.5,106.5C 139.5,108.167 139.5,109.833 139.5,111.5C 137.833,111.5 136.167,111.5 134.5,111.5C 127.267,111.763 119.934,111.763 112.5,111.5C 112.567,112.959 112.234,114.292 111.5,115.5C 111.167,115.5 110.833,115.5 110.5,115.5C 110.5,114.167 110.5,112.833 110.5,111.5C 108.833,111.5 107.167,111.5 105.5,111.5C 108.283,110.841 110.949,109.675 113.5,108C 112.62,106.644 112.286,105.144 112.5,103.5C 106.642,103.822 100.975,103.489 95.5,102.5C 107.678,102.828 119.678,102.495 131.5,101.5C 132.5,101.5 133.5,101.5 134.5,101.5C 133.833,97.5 135.5,95.8333 139.5,96.5 Z"/></g>
<g><path style="opacity:1" fill="#141418" d="M 52.5,78.5 C 53.1515,79.0906 53.8182,79.7573 54.5,80.5C 56.2141,79.3915 56.8808,80.0582 56.5,82.5C 55.1667,82.5 53.8333,82.5 52.5,82.5C 52.5,85.8333 52.5,89.1667 52.5,92.5C 54.1667,92.5 55.8333,92.5 57.5,92.5C 57.5,94.1667 57.5,95.8333 57.5,97.5C 59.5,97.5 61.5,97.5 63.5,97.5C 64.1499,97.8039 64.8165,98.1373 65.5,98.5C 66.4841,101.428 66.8174,104.428 66.5,107.5C 71.8797,107.676 77.213,107.342 82.5,106.5C 82.3398,104.801 82.5065,103.134 83,101.5C 83.3333,102.167 83.6667,102.833 84,103.5C 87.4649,102.733 91.2982,102.4 95.5,102.5C 100.975,103.489 106.642,103.822 112.5,103.5C 112.286,105.144 112.62,106.644 113.5,108C 110.949,109.675 108.283,110.841 105.5,111.5C 92.5,111.5 79.5,111.5 66.5,111.5C 66.5,113.167 66.5,114.833 66.5,116.5C 66.0987,123.855 65.0987,131.189 63.5,138.5C 65.455,140.692 65.7883,143.025 64.5,145.5C 63.8826,145.389 63.3826,145.056 63,144.5C 62.5006,149.823 62.334,155.156 62.5,160.5C 60.5,160.5 58.5,160.5 56.5,160.5C 56.5,149.833 56.5,139.167 56.5,128.5C 54.2188,128.923 52.5521,128.256 51.5,126.5C 51.8333,126.5 52.1667,126.5 52.5,126.5C 54.1667,126.5 55.8333,126.5 57.5,126.5C 57.5,123.167 57.5,119.833 57.5,116.5C 58.8333,116.5 60.1667,116.5 61.5,116.5C 61.5,113.167 61.5,109.833 61.5,106.5C 60.1667,106.5 58.8333,106.5 57.5,106.5C 57.5,104.833 57.5,103.167 57.5,101.5C 55.8333,101.5 54.1667,101.5 52.5,101.5C 52.5,100.167 52.5,98.8333 52.5,97.5C 51.4324,96.5655 50.099,96.2322 48.5,96.5C 48.5,90.8333 48.5,85.1667 48.5,79.5C 50.099,79.7678 51.4324,79.4345 52.5,78.5 Z"/></g>
<g><path style="opacity:0.11" fill="#489d9a" d="M 143.5,106.5 C 143.833,106.5 144.167,106.5 144.5,106.5C 143.432,107.434 142.099,107.768 140.5,107.5C 140.5,109.167 140.5,110.833 140.5,112.5C 138.833,112.5 137.167,112.5 135.5,112.5C 135.5,113.5 135.5,114.5 135.5,115.5C 137.167,115.5 138.833,115.5 140.5,115.5C 140.5,117.167 140.5,118.833 140.5,120.5C 142.099,120.232 143.432,120.566 144.5,121.5C 142.833,121.5 141.167,121.5 139.5,121.5C 139.5,119.833 139.5,118.167 139.5,116.5C 137.833,116.5 136.167,116.5 134.5,116.5C 134.5,114.833 134.5,113.167 134.5,111.5C 136.167,111.5 137.833,111.5 139.5,111.5C 139.5,109.833 139.5,108.167 139.5,106.5C 140.833,106.5 142.167,106.5 143.5,106.5 Z"/></g>
<g><path style="opacity:1" fill="#32302e" d="M 105.5,111.5 C 107.167,111.5 108.833,111.5 110.5,111.5C 110.5,112.833 110.5,114.167 110.5,115.5C 110.5,115.833 110.5,116.167 110.5,116.5C 96.1667,116.5 81.8333,116.5 67.5,116.5C 67.1667,116.5 66.8333,116.5 66.5,116.5C 66.5,114.833 66.5,113.167 66.5,111.5C 79.5,111.5 92.5,111.5 105.5,111.5 Z"/></g>
<g><path style="opacity:0.537" fill="#398380" d="M 47.5,97.5 C 49.1667,97.5 50.8333,97.5 52.5,97.5C 52.5,98.8333 52.5,100.167 52.5,101.5C 54.1667,101.5 55.8333,101.5 57.5,101.5C 57.5,103.167 57.5,104.833 57.5,106.5C 58.8333,106.5 60.1667,106.5 61.5,106.5C 61.5,109.833 61.5,113.167 61.5,116.5C 60.1667,116.5 58.8333,116.5 57.5,116.5C 57.5,119.833 57.5,123.167 57.5,126.5C 55.8333,126.5 54.1667,126.5 52.5,126.5C 52.5,124.833 52.5,123.167 52.5,121.5C 53.4345,122.568 53.7678,123.901 53.5,125.5C 54.5,125.5 55.5,125.5 56.5,125.5C 56.5,122.167 56.5,118.833 56.5,115.5C 57.8333,115.5 59.1667,115.5 60.5,115.5C 60.5,112.833 60.5,110.167 60.5,107.5C 59.1667,107.5 57.8333,107.5 56.5,107.5C 57.1667,103.5 55.5,101.833 51.5,102.5C 51.5,101.167 51.5,99.8333 51.5,98.5C 49.901,98.7678 48.5676,98.4345 47.5,97.5 Z"/></g>
<g><path style="opacity:0.549" fill="#225f62" d="M 139.5,121.5 C 141.167,121.5 142.833,121.5 144.5,121.5C 144.5,124.5 144.5,127.5 144.5,130.5C 144.5,130.833 144.5,131.167 144.5,131.5C 144.167,131.5 143.833,131.5 143.5,131.5C 143.5,128.5 143.5,125.5 143.5,122.5C 141.901,122.768 140.568,122.434 139.5,121.5 Z"/></g>
<g><path style="opacity:0.098" fill="#4c9b9a" d="M 172.5,126.5 C 164.648,126.175 156.982,126.508 149.5,127.5C 149.5,128.833 149.5,130.167 149.5,131.5C 147.833,131.5 146.167,131.5 144.5,131.5C 144.5,131.167 144.5,130.833 144.5,130.5C 145.833,130.5 147.167,130.5 148.5,130.5C 148.5,128.833 148.5,127.167 148.5,125.5C 156.684,125.174 164.684,125.508 172.5,126.5 Z"/></g>
<g><path style="opacity:0.951" fill="#073235" d="M 149.5,127.5 C 156.982,126.508 164.648,126.175 172.5,126.5C 172.5,128.167 172.5,129.833 172.5,131.5C 174.167,131.5 175.833,131.5 177.5,131.5C 177.5,132.833 177.5,134.167 177.5,135.5C 176.596,134.791 176.263,133.791 176.5,132.5C 174.585,132.784 172.919,132.451 171.5,131.5C 171.5,130.167 171.5,128.833 171.5,127.5C 164.167,127.5 156.833,127.5 149.5,127.5 Z"/></g>
<g><path style="opacity:1" fill="#325252" d="M 52.5,121.5 C 52.5,123.167 52.5,124.833 52.5,126.5C 52.1667,126.5 51.8333,126.5 51.5,126.5C 51.5,125.167 51.5,123.833 51.5,122.5C 44.5,122.5 37.5,122.5 30.5,122.5C 30.5,123.833 30.5,125.167 30.5,126.5C 36.1667,126.5 41.8333,126.5 47.5,126.5C 47.5,127.833 47.5,129.167 47.5,130.5C 44.8127,130.664 42.146,130.497 39.5,130C 41.8333,129.667 44.1667,129.333 46.5,129C 41.0833,128.219 35.7499,128.385 30.5,129.5C 27.6627,127.598 24.3293,126.931 20.5,127.5C 20.5,127.167 20.5,126.833 20.5,126.5C 23.2869,125.523 26.2869,125.19 29.5,125.5C 29.5,123.833 29.5,122.167 29.5,120.5C 37.3516,120.175 45.0182,120.508 52.5,121.5 Z"/></g>
<g><path style="opacity:0.169" fill="#479592" d="M 172.5,126.5 C 173.434,127.568 173.768,128.901 173.5,130.5C 175.099,130.232 176.432,130.566 177.5,131.5C 175.833,131.5 174.167,131.5 172.5,131.5C 172.5,129.833 172.5,128.167 172.5,126.5 Z"/></g>
<g><path style="opacity:1" fill="#26282a" d="M 47.5,130.5 C 48.9187,131.451 50.5853,131.784 52.5,131.5C 52.5,137.833 52.5,144.167 52.5,150.5C 43.1667,150.5 33.8333,150.5 24.5,150.5C 24.0025,146.241 24.6692,142.241 26.5,138.5C 25.6258,136.253 25.2924,133.92 25.5,131.5C 27.7812,131.923 29.4479,131.256 30.5,129.5C 35.7499,128.385 41.0833,128.219 46.5,129C 44.1667,129.333 41.8333,129.667 39.5,130C 42.146,130.497 44.8127,130.664 47.5,130.5 Z"/></g>
<g><path style="opacity:1" fill="#262729" d="M 143.5,131.5 C 143.5,137.833 143.5,144.167 143.5,150.5C 134.5,150.5 125.5,150.5 116.5,150.5C 116.5,144.167 116.5,137.833 116.5,131.5C 117.833,131.5 119.167,131.5 120.5,131.5C 120.5,129.833 120.5,128.167 120.5,126.5C 126.833,126.5 133.167,126.5 139.5,126.5C 139.5,128.167 139.5,129.833 139.5,131.5C 140.833,131.5 142.167,131.5 143.5,131.5 Z"/></g>
<g><path style="opacity:0.208" fill="#429997" d="M 20.5,126.5 C 20.5,126.833 20.5,127.167 20.5,127.5C 20.5,128.833 20.5,130.167 20.5,131.5C 18.8333,131.5 17.1667,131.5 15.5,131.5C 15.5,134.5 15.5,137.5 15.5,140.5C 15.1667,140.5 14.8333,140.5 14.5,140.5C 14.5,137.167 14.5,133.833 14.5,130.5C 16.1667,130.5 17.8333,130.5 19.5,130.5C 19.2322,128.901 19.5655,127.568 20.5,126.5 Z"/></g>
<g><path style="opacity:0.663" fill="#1f5c5d" d="M 177.5,131.5 C 178.434,132.568 178.768,133.901 178.5,135.5C 179.833,135.5 181.167,135.5 182.5,135.5C 182.5,142.167 182.5,148.833 182.5,155.5C 180.833,155.5 179.167,155.5 177.5,155.5C 178.568,154.566 179.901,154.232 181.5,154.5C 181.5,148.5 181.5,142.5 181.5,136.5C 180.167,136.5 178.833,136.5 177.5,136.5C 177.5,136.167 177.5,135.833 177.5,135.5C 177.5,134.167 177.5,132.833 177.5,131.5 Z"/></g>
<g><path style="opacity:1" fill="#141419" d="M 149.5,127.5 C 156.833,127.5 164.167,127.5 171.5,127.5C 171.5,128.833 171.5,130.167 171.5,131.5C 165.5,131.5 159.5,131.5 153.5,131.5C 153.5,137.833 153.5,144.167 153.5,150.5C 161.5,150.5 169.5,150.5 177.5,150.5C 177.5,145.833 177.5,141.167 177.5,136.5C 178.833,136.5 180.167,136.5 181.5,136.5C 181.5,142.5 181.5,148.5 181.5,154.5C 179.901,154.232 178.568,154.566 177.5,155.5C 176.539,157.265 176.205,159.265 176.5,161.5C 170.87,160.463 165.203,160.463 159.5,161.5C 159.5,162.5 159.5,163.5 159.5,164.5C 164.032,164.182 168.366,164.515 172.5,165.5C 166.463,165.171 160.463,165.504 154.5,166.5C 153.37,169.303 151.37,170.97 148.5,171.5C 145.579,171.854 143.246,170.854 141.5,168.5C 140.817,168.863 140.15,169.196 139.5,169.5C 139.5,168.167 139.5,166.833 139.5,165.5C 139.5,162.167 139.5,158.833 139.5,155.5C 140.833,155.5 142.167,155.5 143.5,155.5C 144.358,147.868 144.691,140.201 144.5,132.5C 146.415,132.784 148.081,132.451 149.5,131.5C 149.5,130.167 149.5,128.833 149.5,127.5 Z"/></g>
<g><path style="opacity:1" fill="#26282b" d="M 171.5,131.5 C 172.919,132.451 174.585,132.784 176.5,132.5C 176.263,133.791 176.596,134.791 177.5,135.5C 177.5,135.833 177.5,136.167 177.5,136.5C 177.5,141.167 177.5,145.833 177.5,150.5C 169.5,150.5 161.5,150.5 153.5,150.5C 153.5,144.167 153.5,137.833 153.5,131.5C 159.5,131.5 165.5,131.5 171.5,131.5 Z"/></g>
<g><path style="opacity:1" fill="#131318" d="M 134.5,111.5 C 134.5,113.167 134.5,114.833 134.5,116.5C 136.167,116.5 137.833,116.5 139.5,116.5C 139.5,118.167 139.5,119.833 139.5,121.5C 140.568,122.434 141.901,122.768 143.5,122.5C 143.5,125.5 143.5,128.5 143.5,131.5C 142.167,131.5 140.833,131.5 139.5,131.5C 139.5,129.833 139.5,128.167 139.5,126.5C 133.167,126.5 126.833,126.5 120.5,126.5C 120.5,128.167 120.5,129.833 120.5,131.5C 119.167,131.5 117.833,131.5 116.5,131.5C 115.505,142.654 115.172,153.988 115.5,165.5C 112.091,165.751 108.758,165.417 105.5,164.5C 104.702,164.957 104.369,165.624 104.5,166.5C 95.25,165.528 85.9167,165.195 76.5,165.5C 77.3984,164.842 78.3984,164.176 79.5,163.5C 90.3942,162.823 101.228,162.156 112,161.5C 112.828,145.994 112.661,130.661 111.5,115.5C 112.234,114.292 112.567,112.959 112.5,111.5C 119.934,111.763 127.267,111.763 134.5,111.5 Z"/></g>
<g><path style="opacity:0.675" fill="#1a6d6e" d="M 14.5,140.5 C 14.8333,140.5 15.1667,140.5 15.5,140.5C 14.4324,141.434 13.099,141.768 11.5,141.5C 11.5,146.167 11.5,150.833 11.5,155.5C 11.1667,155.5 10.8333,155.5 10.5,155.5C 10.6327,151.107 10.2994,146.773 9.5,142.5C 10.6685,140.783 12.3352,140.116 14.5,140.5 Z"/></g>
<g><path style="opacity:1" fill="#14161a" d="M 20.5,127.5 C 24.3293,126.931 27.6627,127.598 30.5,129.5C 29.4479,131.256 27.7812,131.923 25.5,131.5C 25.2924,133.92 25.6258,136.253 26.5,138.5C 24.6692,142.241 24.0025,146.241 24.5,150.5C 23.6236,150.369 22.9569,150.702 22.5,151.5C 24.1667,152.167 25.8333,152.833 27.5,153.5C 34.6553,154.167 41.6553,154.833 48.5,155.5C 42.4908,155.334 36.4908,155.501 30.5,156C 29.6198,157.356 29.2865,158.856 29.5,160.5C 26.3648,160.452 24.6981,158.785 24.5,155.5C 21.6462,151.248 19.9796,151.582 19.5,156.5C 19.9971,158.818 20.3305,161.152 20.5,163.5C 18.8598,160.512 18.0265,157.179 18,153.5C 17.7513,159.064 16.9179,164.398 15.5,169.5C 15.5,164.833 15.5,160.167 15.5,155.5C 14.1667,155.5 12.8333,155.5 11.5,155.5C 11.5,150.833 11.5,146.167 11.5,141.5C 13.099,141.768 14.4324,141.434 15.5,140.5C 15.5,137.5 15.5,134.5 15.5,131.5C 17.1667,131.5 18.8333,131.5 20.5,131.5C 20.5,130.167 20.5,128.833 20.5,127.5 Z"/></g>
<g><path style="opacity:1" fill="#1a1c1f" d="M 116.5,131.5 C 116.5,137.833 116.5,144.167 116.5,150.5C 125.5,150.5 134.5,150.5 143.5,150.5C 143.5,144.167 143.5,137.833 143.5,131.5C 143.833,131.5 144.167,131.5 144.5,131.5C 146.167,131.5 147.833,131.5 149.5,131.5C 148.081,132.451 146.415,132.784 144.5,132.5C 144.691,140.201 144.358,147.868 143.5,155.5C 142.167,155.5 140.833,155.5 139.5,155.5C 131.833,155.5 124.167,155.5 116.5,155.5C 116.5,158.833 116.5,162.167 116.5,165.5C 124.167,165.5 131.833,165.5 139.5,165.5C 139.5,166.833 139.5,168.167 139.5,169.5C 133.957,169.281 128.623,169.281 123.5,169.5C 122.808,168.975 122.308,168.308 122,167.5C 119.894,169.291 117.394,169.958 114.5,169.5C 112.606,168.952 110.94,167.952 109.5,166.5C 107.684,167.735 106.017,167.735 104.5,166.5C 104.369,165.624 104.702,164.957 105.5,164.5C 108.758,165.417 112.091,165.751 115.5,165.5C 115.172,153.988 115.505,142.654 116.5,131.5 Z"/></g>
<g><path style="opacity:1" fill="#242528" d="M 139.5,155.5 C 139.5,158.833 139.5,162.167 139.5,165.5C 131.833,165.5 124.167,165.5 116.5,165.5C 116.5,162.167 116.5,158.833 116.5,155.5C 124.167,155.5 131.833,155.5 139.5,155.5 Z"/></g>
<g><path style="opacity:0.157" fill="#49a59f" d="M 177.5,155.5 C 179.167,155.5 180.833,155.5 182.5,155.5C 181.432,156.434 180.099,156.768 178.5,156.5C 178.5,160.5 178.5,164.5 178.5,168.5C 182.042,168.187 185.375,168.521 188.5,169.5C 184.833,169.5 181.167,169.5 177.5,169.5C 177.5,164.833 177.5,160.167 177.5,155.5 Z"/></g>
<g><path style="opacity:1" fill="#121316" d="M 51.5,126.5 C 52.5521,128.256 54.2188,128.923 56.5,128.5C 56.5,139.167 56.5,149.833 56.5,160.5C 58.5,160.5 60.5,160.5 62.5,160.5C 62.334,155.156 62.5006,149.823 63,144.5C 63.3826,145.056 63.8826,145.389 64.5,145.5C 65.3267,150.651 65.8267,155.984 66,161.5C 67.0848,162.736 67.9181,164.069 68.5,165.5C 66.5,165.167 64.5,164.833 62.5,164.5C 62.0833,167.079 62.75,169.246 64.5,171C 62.5273,171.495 60.5273,171.662 58.5,171.5C 58.8626,166.264 56.6959,165.264 52,168.5C 51.5503,166.481 50.717,164.648 49.5,163C 41.4129,162.392 33.5795,162.559 26,163.5C 25,162.833 24,162.167 23,161.5C 21.8372,163.285 21.1705,165.285 21,167.5C 20.51,166.207 20.3433,164.873 20.5,163.5C 20.3305,161.152 19.9971,158.818 19.5,156.5C 19.9796,151.582 21.6462,151.248 24.5,155.5C 24.6981,158.785 26.3648,160.452 29.5,160.5C 35.5092,160.666 41.5092,160.499 47.5,160C 48.3802,158.644 48.7135,157.144 48.5,155.5C 41.6553,154.833 34.6553,154.167 27.5,153.5C 25.8333,152.833 24.1667,152.167 22.5,151.5C 22.9569,150.702 23.6236,150.369 24.5,150.5C 33.8333,150.5 43.1667,150.5 52.5,150.5C 52.5,144.167 52.5,137.833 52.5,131.5C 50.5853,131.784 48.9187,131.451 47.5,130.5C 47.5,129.167 47.5,127.833 47.5,126.5C 41.8333,126.5 36.1667,126.5 30.5,126.5C 30.5,125.167 30.5,123.833 30.5,122.5C 37.5,122.5 44.5,122.5 51.5,122.5C 51.5,123.833 51.5,125.167 51.5,126.5 Z"/></g>
<g><path style="opacity:1" fill="#242527" d="M 48.5,155.5 C 48.7135,157.144 48.3802,158.644 47.5,160C 41.5092,160.499 35.5092,160.666 29.5,160.5C 29.2865,158.856 29.6198,157.356 30.5,156C 36.4908,155.501 42.4908,155.334 48.5,155.5 Z"/></g>
<g><path style="opacity:0.222" fill="#469a97" d="M 10.5,155.5 C 10.8333,155.5 11.1667,155.5 11.5,155.5C 12.8333,155.5 14.1667,155.5 15.5,155.5C 15.5,160.167 15.5,164.833 15.5,169.5C 13.8333,169.5 12.1667,169.5 10.5,169.5C 11.5676,168.566 12.901,168.232 14.5,168.5C 14.5,164.5 14.5,160.5 14.5,156.5C 12.901,156.768 11.5676,156.434 10.5,155.5 Z"/></g>
<g><path style="opacity:1" fill="#17181b" d="M 20.5,163.5 C 20.3433,164.873 20.51,166.207 21,167.5C 21.1705,165.285 21.8372,163.285 23,161.5C 24,162.167 25,162.833 26,163.5C 33.5795,162.559 41.4129,162.392 49.5,163C 50.717,164.648 51.5503,166.481 52,168.5C 56.6959,165.264 58.8626,166.264 58.5,171.5C 57.5084,171.328 56.8417,171.662 56.5,172.5C 56.5,178.833 56.5,185.167 56.5,191.5C 57.8333,191.5 59.1667,191.5 60.5,191.5C 61.1515,190.909 61.8182,190.243 62.5,189.5C 63.2298,190.934 64.2298,192.1 65.5,193C 61.7168,193.609 60.0502,195.776 60.5,199.5C 56.1667,199.5 51.8333,199.5 47.5,199.5C 47.3398,197.801 47.5065,196.134 48,194.5C 50.3333,193.5 52.6667,192.5 55,191.5C 55.5908,190.517 55.2575,189.85 54,189.5C 52.9889,190.056 52.1556,190.722 51.5,191.5C 54.1667,185.167 54.1667,178.833 51.5,172.5C 48.9046,170.986 47.5713,168.652 47.5,165.5C 41.5,165.5 35.5,165.5 29.5,165.5C 29.33,166.822 29.6634,167.989 30.5,169C 32.6079,169.36 34.6079,170.027 36.5,171C 35.5842,171.278 34.9175,171.778 34.5,172.5C 34.9227,174.781 34.256,176.448 32.5,177.5C 31.4975,175.989 30.8308,174.322 30.5,172.5C 29.1667,172.5 27.8333,172.5 26.5,172.5C 25.8999,173.9 24.8999,174.9 23.5,175.5C 21.9519,175.179 21.2852,174.179 21.5,172.5C 18.8333,172.5 16.1667,172.5 13.5,172.5C 11.7723,178.664 11.1056,184.997 11.5,191.5C 12.5,191.5 13.5,191.5 14.5,191.5C 14.8333,191.5 15.1667,191.5 15.5,191.5C 16.1174,191.389 16.6174,191.056 17,190.5C 18.4653,192.915 20.632,193.915 23.5,193.5C 23.5,194.5 23.5,195.5 23.5,196.5C 22.1266,196.343 20.7932,196.51 19.5,197C 21.437,197.122 22.7703,197.955 23.5,199.5C 20.8333,199.5 18.1667,199.5 15.5,199.5C 15.5,197.5 15.5,195.5 15.5,193.5C 13.1667,193.5 10.8333,193.5 8.5,193.5C 8.5,186.833 8.5,180.167 8.5,173.5C 10.1765,172.817 10.8432,171.483 10.5,169.5C 12.1667,169.5 13.8333,169.5 15.5,169.5C 16.9179,164.398 17.7513,159.064 18,153.5C 18.0265,157.179 18.8598,160.512 20.5,163.5 Z"/></g>
<g><path style="opacity:1" fill="#17110f" d="M 110.5,116.5 C 110.5,116.167 110.5,115.833 110.5,115.5C 110.833,115.5 111.167,115.5 111.5,115.5C 112.661,130.661 112.828,145.994 112,161.5C 101.228,162.156 90.3942,162.823 79.5,163.5C 78.3984,164.176 77.3984,164.842 76.5,165.5C 73.8333,165.5 71.1667,165.5 68.5,165.5C 67.9181,164.069 67.0848,162.736 66,161.5C 65.8267,155.984 65.3267,150.651 64.5,145.5C 65.7883,143.025 65.455,140.692 63.5,138.5C 65.0987,131.189 66.0987,123.855 66.5,116.5C 66.5,131.167 66.5,145.833 66.5,160.5C 81.5,160.5 96.5,160.5 111.5,160.5C 111.829,145.657 111.496,130.99 110.5,116.5 Z"/></g>
<g><path style="opacity:1" fill="#6a5341" d="M 66.5,116.5 C 66.8333,116.5 67.1667,116.5 67.5,116.5C 67.5,117.167 67.5,117.833 67.5,118.5C 67.5,132.167 67.5,145.833 67.5,159.5C 68.8333,159.5 70.1667,159.5 71.5,159.5C 80.8333,159.5 90.1667,159.5 99.5,159.5C 103.167,159.5 106.833,159.5 110.5,159.5C 110.5,145.167 110.5,130.833 110.5,116.5C 111.496,130.99 111.829,145.657 111.5,160.5C 96.5,160.5 81.5,160.5 66.5,160.5C 66.5,145.833 66.5,131.167 66.5,116.5 Z"/></g>
<g><path style="opacity:1" fill="#a09f78" d="M 71.5,141.5 C 71.5,144.5 71.5,147.5 71.5,150.5C 76.8333,150.5 82.1667,150.5 87.5,150.5C 87.5,150.833 87.5,151.167 87.5,151.5C 82.1667,151.5 76.8333,151.5 71.5,151.5C 70.1667,148.167 70.1667,144.833 71.5,141.5 Z"/></g>
<g><path style="opacity:1" fill="#689477" d="M 71.5,140.5 C 73.4147,140.216 75.0813,140.549 76.5,141.5C 75.1667,141.5 73.8333,141.5 72.5,141.5C 72.5,144.167 72.5,146.833 72.5,149.5C 77.5,149.5 82.5,149.5 87.5,149.5C 87.5,149.833 87.5,150.167 87.5,150.5C 82.1667,150.5 76.8333,150.5 71.5,150.5C 71.5,147.5 71.5,144.5 71.5,141.5C 71.5,141.167 71.5,140.833 71.5,140.5 Z"/></g>
<g><path style="opacity:1" fill="#359c89" d="M 76.5,141.5 C 76.5,142.833 76.5,144.167 76.5,145.5C 80.1667,145.5 83.8333,145.5 87.5,145.5C 87.5,146.833 87.5,148.167 87.5,149.5C 82.5,149.5 77.5,149.5 72.5,149.5C 72.5,146.833 72.5,144.167 72.5,141.5C 73.8333,141.5 75.1667,141.5 76.5,141.5 Z"/></g>
<g><path style="opacity:1" fill="#b6a072" d="M 77.5,131.5 C 80.8333,131.5 84.1667,131.5 87.5,131.5C 84.7131,132.477 81.7131,132.81 78.5,132.5C 78.5713,135.024 77.5713,137.024 75.5,138.5C 76.325,139.386 77.325,139.719 78.5,139.5C 78.5,140.833 78.5,142.167 78.5,143.5C 79.5,143.5 80.5,143.5 81.5,143.5C 81.5,142.167 81.5,140.833 81.5,139.5C 83.9418,139.119 84.6085,139.786 83.5,141.5C 85.3983,142.734 87.065,142.401 88.5,140.5C 89.7193,141.263 90.7193,142.263 91.5,143.5C 92.5,142.833 93.5,142.167 94.5,141.5C 95.6039,142.631 95.2705,143.465 93.5,144C 96.5209,144.867 99.1876,144.367 101.5,142.5C 101.5,143.5 101.5,144.5 101.5,145.5C 98.1667,145.5 94.8333,145.5 91.5,145.5C 91.5,147.167 91.5,148.833 91.5,150.5C 96.1785,150.666 100.845,150.499 105.5,150C 106.792,146.835 106.792,143.668 105.5,140.5C 106.777,141.694 107.444,143.36 107.5,145.5C 107.712,148.011 107.045,150.178 105.5,152C 99.4492,152.746 93.4492,152.579 87.5,151.5C 87.5,151.167 87.5,150.833 87.5,150.5C 87.5,150.167 87.5,149.833 87.5,149.5C 87.5,148.167 87.5,146.833 87.5,145.5C 83.8333,145.5 80.1667,145.5 76.5,145.5C 76.5,144.167 76.5,142.833 76.5,141.5C 75.0813,140.549 73.4147,140.216 71.5,140.5C 71.5,139.167 71.5,137.833 71.5,136.5C 73.099,136.768 74.4324,136.434 75.5,135.5C 76.1667,134.167 76.8333,132.833 77.5,131.5 Z"/></g>
<g><path style="opacity:1" fill="#4a9983" d="M 105.5,140.5 C 106.792,143.668 106.792,146.835 105.5,150C 100.845,150.499 96.1785,150.666 91.5,150.5C 91.5,148.833 91.5,147.167 91.5,145.5C 94.8333,145.5 98.1667,145.5 101.5,145.5C 101.5,144.5 101.5,143.5 101.5,142.5C 102.183,140.824 103.517,140.157 105.5,140.5 Z"/></g>
<g><path style="opacity:1" fill="#c79c6c" d="M 87.5,131.5 C 88.8333,131.5 90.1667,131.5 91.5,131.5C 94.2869,132.477 97.2869,132.81 100.5,132.5C 100.263,133.791 100.596,134.791 101.5,135.5C 103.05,136.72 104.716,136.72 106.5,135.5C 107.5,135.5 108.5,135.5 109.5,135.5C 109.666,142.841 109.5,150.174 109,157.5C 105.73,158.132 102.563,158.799 99.5,159.5C 90.1667,159.5 80.8333,159.5 71.5,159.5C 71.5,156.833 71.5,154.167 71.5,151.5C 76.8333,151.5 82.1667,151.5 87.5,151.5C 93.4492,152.579 99.4492,152.746 105.5,152C 107.045,150.178 107.712,148.011 107.5,145.5C 107.444,143.36 106.777,141.694 105.5,140.5C 103.517,140.157 102.183,140.824 101.5,142.5C 99.1876,144.367 96.5209,144.867 93.5,144C 95.2705,143.465 95.6039,142.631 94.5,141.5C 93.5,142.167 92.5,142.833 91.5,143.5C 90.7193,142.263 89.7193,141.263 88.5,140.5C 87.065,142.401 85.3983,142.734 83.5,141.5C 84.6085,139.786 83.9418,139.119 81.5,139.5C 81.5,140.833 81.5,142.167 81.5,143.5C 80.5,143.5 79.5,143.5 78.5,143.5C 78.5,142.167 78.5,140.833 78.5,139.5C 77.325,139.719 76.325,139.386 75.5,138.5C 77.5713,137.024 78.5713,135.024 78.5,132.5C 81.7131,132.81 84.7131,132.477 87.5,131.5 Z"/></g>
<g><path style="opacity:1" fill="#9da37c" d="M 91.5,131.5 C 94.8333,131.5 98.1667,131.5 101.5,131.5C 101.5,132.833 101.5,134.167 101.5,135.5C 100.596,134.791 100.263,133.791 100.5,132.5C 97.2869,132.81 94.2869,132.477 91.5,131.5 Z"/></g>
<g><path style="opacity:1" fill="#679a7a" d="M 71.5,125.5 C 76.5111,125.334 81.5111,125.501 86.5,126C 87.4061,127.699 87.7394,129.533 87.5,131.5C 84.1667,131.5 80.8333,131.5 77.5,131.5C 80.2869,130.523 83.2869,130.19 86.5,130.5C 86.5,129.5 86.5,128.5 86.5,127.5C 81.8333,127.5 77.1667,127.5 72.5,127.5C 72.5,130.167 72.5,132.833 72.5,135.5C 73.5,135.5 74.5,135.5 75.5,135.5C 74.4324,136.434 73.099,136.768 71.5,136.5C 71.5,132.833 71.5,129.167 71.5,125.5 Z"/></g>
<g><path style="opacity:1" fill="#2e9e8a" d="M 77.5,131.5 C 76.8333,132.833 76.1667,134.167 75.5,135.5C 74.5,135.5 73.5,135.5 72.5,135.5C 72.5,132.833 72.5,130.167 72.5,127.5C 77.1667,127.5 81.8333,127.5 86.5,127.5C 86.5,128.5 86.5,129.5 86.5,130.5C 83.2869,130.19 80.2869,130.523 77.5,131.5 Z"/></g>
<g><path style="opacity:1" fill="#a67f54" d="M 71.5,117.5 C 71.5,120.167 71.5,122.833 71.5,125.5C 71.5,129.167 71.5,132.833 71.5,136.5C 71.5,137.833 71.5,139.167 71.5,140.5C 71.5,140.833 71.5,141.167 71.5,141.5C 70.1667,144.833 70.1667,148.167 71.5,151.5C 71.5,154.167 71.5,156.833 71.5,159.5C 70.1667,159.5 68.8333,159.5 67.5,159.5C 67.5,145.833 67.5,132.167 67.5,118.5C 68.7079,117.766 70.0413,117.433 71.5,117.5 Z"/></g>
<g><path style="opacity:1" fill="#bb9b77" d="M 67.5,116.5 C 81.8333,116.5 96.1667,116.5 110.5,116.5C 110.5,130.833 110.5,145.167 110.5,159.5C 106.833,159.5 103.167,159.5 99.5,159.5C 102.563,158.799 105.73,158.132 109,157.5C 109.5,150.174 109.666,142.841 109.5,135.5C 108.5,135.5 107.5,135.5 106.5,135.5C 106.747,132.061 106.414,128.728 105.5,125.5C 106.833,125.5 108.167,125.5 109.5,125.5C 109.326,123.139 108.993,120.806 108.5,118.5C 104.833,118.5 101.167,118.5 97.5,118.5C 97.7852,120.288 97.4519,121.955 96.5,123.5C 94.9668,121.711 93.9668,119.711 93.5,117.5C 86.1667,117.5 78.8333,117.5 71.5,117.5C 70.0413,117.433 68.7079,117.766 67.5,118.5C 67.5,117.833 67.5,117.167 67.5,116.5 Z"/></g>
<g><path style="opacity:1" fill="#5f987a" d="M 105.5,125.5 C 106.414,128.728 106.747,132.061 106.5,135.5C 104.716,136.72 103.05,136.72 101.5,135.5C 101.5,134.167 101.5,132.833 101.5,131.5C 98.1667,131.5 94.8333,131.5 91.5,131.5C 91.5,129.5 91.5,127.5 91.5,125.5C 96.1667,125.5 100.833,125.5 105.5,125.5 Z"/></g>
<g><path style="opacity:1" fill="#299f8d" d="M 101.5,131.5 C 98.7131,130.523 95.7131,130.19 92.5,130.5C 92.5,129.5 92.5,128.5 92.5,127.5C 96.5138,127.334 100.514,127.501 104.5,128C 105.423,130.041 105.756,132.208 105.5,134.5C 104.5,134.5 103.5,134.5 102.5,134.5C 102.737,133.209 102.404,132.209 101.5,131.5 Z"/></g>
<g><path style="opacity:1" fill="#c69c6e" d="M 71.5,117.5 C 78.8333,117.5 86.1667,117.5 93.5,117.5C 93.9668,119.711 94.9668,121.711 96.5,123.5C 97.4519,121.955 97.7852,120.288 97.5,118.5C 101.167,118.5 104.833,118.5 108.5,118.5C 108.993,120.806 109.326,123.139 109.5,125.5C 108.167,125.5 106.833,125.5 105.5,125.5C 100.833,125.5 96.1667,125.5 91.5,125.5C 91.5,127.5 91.5,129.5 91.5,131.5C 90.1667,131.5 88.8333,131.5 87.5,131.5C 87.7394,129.533 87.4061,127.699 86.5,126C 81.5111,125.501 76.5111,125.334 71.5,125.5C 71.5,122.833 71.5,120.167 71.5,117.5 Z"/></g>
<g><path style="opacity:1" fill="#1e1e20" d="M 68.5,165.5 C 71.1667,165.5 73.8333,165.5 76.5,165.5C 85.9167,165.195 95.25,165.528 104.5,166.5C 106.017,167.735 107.684,167.735 109.5,166.5C 110.94,167.952 112.606,168.952 114.5,169.5C 115.551,170.222 116.218,171.222 116.5,172.5C 115.833,173.833 115.167,175.167 114.5,176.5C 114.5,175.167 114.5,173.833 114.5,172.5C 111.167,172.5 107.833,172.5 104.5,172.5C 103.833,172.5 103.5,172.833 103.5,173.5C 102.833,179.5 102.167,185.5 101.5,191.5C 101.5,185.167 101.5,178.833 101.5,172.5C 98.0922,172.563 95.7589,174.23 94.5,177.5C 93.2411,174.23 90.9078,172.563 87.5,172.5C 87.5,178.833 87.5,185.167 87.5,191.5C 88.5,191.5 89.5,191.5 90.5,191.5C 90.185,187.629 90.5184,183.962 91.5,180.5C 91.2065,184.437 91.5399,188.27 92.5,192C 89.854,192.497 87.1873,192.664 84.5,192.5C 84.5,191.5 84.5,190.5 84.5,189.5C 84.5,189.167 84.5,188.833 84.5,188.5C 84.5,184.167 84.5,179.833 84.5,175.5C 83.5,175.5 82.5,175.5 81.5,175.5C 81.5,174.5 81.5,173.5 81.5,172.5C 79.1667,172.5 76.8333,172.5 74.5,172.5C 74.7148,174.179 74.0481,175.179 72.5,175.5C 71.5151,179.634 71.1818,183.968 71.5,188.5C 70.5139,184.03 70.1805,179.363 70.5,174.5C 71.675,174.719 72.675,174.386 73.5,173.5C 72.3493,172.269 71.1827,172.269 70,173.5C 69.3333,172.833 68.6667,172.167 68,171.5C 67.516,173.193 68.016,174.527 69.5,175.5C 69.1667,175.5 68.8333,175.5 68.5,175.5C 66.9519,175.179 66.2852,174.179 66.5,172.5C 63.1667,172.5 59.8333,172.5 56.5,172.5C 56.8417,171.662 57.5084,171.328 58.5,171.5C 60.5273,171.662 62.5273,171.495 64.5,171C 62.75,169.246 62.0833,167.079 62.5,164.5C 64.5,164.833 66.5,165.167 68.5,165.5 Z"/></g>
<g><path style="opacity:1" fill="#181819" d="M 139.5,169.5 C 140.15,169.196 140.817,168.863 141.5,168.5C 143.246,170.854 145.579,171.854 148.5,171.5C 148.5,171.833 148.5,172.167 148.5,172.5C 147.513,177.305 147.179,182.305 147.5,187.5C 145.833,187.5 144.167,187.5 142.5,187.5C 142.5,182.5 142.5,177.5 142.5,172.5C 141.5,172.5 140.5,172.5 139.5,172.5C 138.184,178.013 138.184,183.68 139.5,189.5C 142.758,191.68 146.091,192.014 149.5,190.5C 149.5,189.167 150.167,188.5 151.5,188.5C 152.418,192.212 152.418,195.878 151.5,199.5C 147.5,199.5 143.5,199.5 139.5,199.5C 139.5,198.167 139.5,196.833 139.5,195.5C 133.824,195.666 128.157,195.499 122.5,195C 125.941,194.164 126.108,193.331 123,192.5C 118.313,192.58 113.646,192.914 109,193.5C 107.698,192.915 106.531,192.249 105.5,191.5C 108.5,191.5 111.5,191.5 114.5,191.5C 114.5,190.167 114.5,188.833 114.5,187.5C 112.167,187.5 109.833,187.5 107.5,187.5C 107.5,186.167 107.5,184.833 107.5,183.5C 109.5,183.5 111.5,183.5 113.5,183.5C 113.5,182.5 113.5,181.5 113.5,180.5C 112.081,179.549 110.415,179.216 108.5,179.5C 108.5,178.5 108.5,177.5 108.5,176.5C 110.5,176.5 112.5,176.5 114.5,176.5C 115.167,175.167 115.833,173.833 116.5,172.5C 116.218,171.222 115.551,170.222 114.5,169.5C 117.394,169.958 119.894,169.291 122,167.5C 122.308,168.308 122.808,168.975 123.5,169.5C 128.623,169.281 133.957,169.281 139.5,169.5 Z"/></g>
<g><path style="opacity:0.325" fill="#498f8c" d="M 10.5,169.5 C 10.8432,171.483 10.1765,172.817 8.5,173.5C 8.98869,172.005 9.65536,170.671 10.5,169.5 Z"/></g>
<g><path style="opacity:1" fill="#c3c2bf" d="M 166.5,172.5 C 166.5,173.833 166.5,175.167 166.5,176.5C 163.833,176.5 161.167,176.5 158.5,176.5C 158.167,176.5 157.833,176.5 157.5,176.5C 160.028,175.834 162.694,175.168 165.5,174.5C 161.877,173.057 158.544,173.391 155.5,175.5C 155.5,174.5 155.5,173.5 155.5,172.5C 159.167,172.5 162.833,172.5 166.5,172.5 Z"/></g>
<g><path style="opacity:1" fill="#151618" d="M 177.5,155.5 C 177.5,160.167 177.5,164.833 177.5,169.5C 180.962,170.482 184.629,170.815 188.5,170.5C 188.5,178.167 188.5,185.833 188.5,193.5C 184.833,193.5 181.167,193.5 177.5,193.5C 175.118,191.954 172.451,191.287 169.5,191.5C 169.856,188.224 168.856,185.557 166.5,183.5C 165.449,182.778 164.782,181.778 164.5,180.5C 162.735,179.539 160.735,179.205 158.5,179.5C 158.5,178.5 158.5,177.5 158.5,176.5C 161.167,176.5 163.833,176.5 166.5,176.5C 166.5,175.167 166.5,173.833 166.5,172.5C 167.609,171.71 168.942,171.21 170.5,171C 169.5,170.667 168.5,170.333 167.5,170C 169.134,169.506 170.801,169.34 172.5,169.5C 172.5,168.167 172.5,166.833 172.5,165.5C 168.366,164.515 164.032,164.182 159.5,164.5C 159.5,163.5 159.5,162.5 159.5,161.5C 165.203,160.463 170.87,160.463 176.5,161.5C 176.205,159.265 176.539,157.265 177.5,155.5 Z"/></g>
<g><path style="opacity:1" fill="#eae8e2" d="M 104.5,172.5 C 107.833,172.5 111.167,172.5 114.5,172.5C 114.5,173.833 114.5,175.167 114.5,176.5C 112.5,176.5 110.5,176.5 108.5,176.5C 107.566,177.568 107.232,178.901 107.5,180.5C 109.5,180.5 111.5,180.5 113.5,180.5C 113.5,181.5 113.5,182.5 113.5,183.5C 111.5,183.5 109.5,183.5 107.5,183.5C 107.5,184.833 107.5,186.167 107.5,187.5C 109.369,188.165 111.369,188.831 113.5,189.5C 110.572,190.484 107.572,190.817 104.5,190.5C 104.5,184.5 104.5,178.5 104.5,172.5 Z"/></g>
<g><path style="opacity:0.712" fill="#2e7072" d="M 177.5,169.5 C 181.167,169.5 184.833,169.5 188.5,169.5C 189.695,169.866 190.361,170.699 190.5,172C 190.428,179.103 190.261,186.27 190,193.5C 186.392,195.161 182.725,195.495 179,194.5C 178.506,196.134 178.34,197.801 178.5,199.5C 178.167,199.5 177.833,199.5 177.5,199.5C 177.5,197.5 177.5,195.5 177.5,193.5C 181.167,193.5 184.833,193.5 188.5,193.5C 188.5,185.833 188.5,178.167 188.5,170.5C 184.629,170.815 180.962,170.482 177.5,169.5 Z"/></g>
<g><path style="opacity:1" fill="#ebe9e4" d="M 176.5,172.5 C 177.5,172.5 178.5,172.5 179.5,172.5C 179.5,178.5 179.5,184.5 179.5,190.5C 178.5,190.5 177.5,190.5 176.5,190.5C 176.5,184.5 176.5,178.5 176.5,172.5 Z"/></g>
<g><path style="opacity:1" fill="#a09f9e" d="M 68.5,175.5 C 68.8333,175.5 69.1667,175.5 69.5,175.5C 69.8399,178.144 69.1733,180.477 67.5,182.5C 69.2603,185.212 69.927,188.212 69.5,191.5C 67.901,191.768 66.5676,191.434 65.5,190.5C 66.5,190.5 67.5,190.5 68.5,190.5C 68.6584,187.639 67.9917,184.972 66.5,182.5C 67.8936,180.354 68.5603,178.021 68.5,175.5 Z"/></g>
<g><path style="opacity:1" fill="#d6d6cf" d="M 132.5,172.5 C 133.833,172.5 135.167,172.5 136.5,172.5C 136.5,178.833 136.5,185.167 136.5,191.5C 135.167,191.5 133.833,191.5 132.5,191.5C 132.5,185.167 132.5,178.833 132.5,172.5 Z"/></g>
<g><path style="opacity:1" fill="#edeee8" d="M 183.5,172.5 C 184.5,172.5 185.5,172.5 186.5,172.5C 186.5,178.5 186.5,184.5 186.5,190.5C 185.5,190.5 184.5,190.5 183.5,190.5C 183.5,184.5 183.5,178.5 183.5,172.5 Z"/></g>
<g><path style="opacity:1" fill="#dad9d2" d="M 51.5,172.5 C 54.1667,178.833 54.1667,185.167 51.5,191.5C 48.1667,191.5 44.8333,191.5 41.5,191.5C 41.5,185.167 41.5,178.833 41.5,172.5C 44.8333,172.5 48.1667,172.5 51.5,172.5 Z"/></g>
<g><path style="opacity:1" fill="#161416" d="M 45.5,176.5 C 46.8333,176.5 48.1667,176.5 49.5,176.5C 49.5,180.167 49.5,183.833 49.5,187.5C 48.1667,187.5 46.8333,187.5 45.5,187.5C 45.5,183.833 45.5,180.167 45.5,176.5 Z"/></g>
<g><path style="opacity:1" fill="#dbd9d3" d="M 101.5,191.5 C 100.167,191.5 98.8333,191.5 97.5,191.5C 97.815,187.629 97.4816,183.962 96.5,180.5C 95.8485,181.091 95.1818,181.757 94.5,182.5C 93.8182,181.757 93.1515,181.091 92.5,180.5C 92.1667,180.5 91.8333,180.5 91.5,180.5C 90.5184,183.962 90.185,187.629 90.5,191.5C 89.5,191.5 88.5,191.5 87.5,191.5C 87.5,185.167 87.5,178.833 87.5,172.5C 90.9078,172.563 93.2411,174.23 94.5,177.5C 95.7589,174.23 98.0922,172.563 101.5,172.5C 101.5,178.833 101.5,185.167 101.5,191.5 Z"/></g>
<g><path style="opacity:1" fill="#8e8a88" d="M 139.5,172.5 C 139.172,177.875 139.505,183.208 140.5,188.5C 143.212,190.26 146.212,190.927 149.5,190.5C 146.091,192.014 142.758,191.68 139.5,189.5C 138.184,183.68 138.184,178.013 139.5,172.5 Z"/></g>
<g><path style="opacity:1" fill="#6d6c67" d="M 108.5,176.5 C 108.5,177.5 108.5,178.5 108.5,179.5C 110.415,179.216 112.081,179.549 113.5,180.5C 111.5,180.5 109.5,180.5 107.5,180.5C 107.232,178.901 107.566,177.568 108.5,176.5 Z"/></g>
<g><path style="opacity:1" fill="#949490" d="M 128.5,175.5 C 129.812,180.015 129.812,184.682 128.5,189.5C 127.817,189.863 127.15,190.196 126.5,190.5C 128.258,185.728 128.925,180.728 128.5,175.5 Z"/></g>
<g><path style="opacity:1" fill="#625f5c" d="M 157.5,176.5 C 157.833,176.5 158.167,176.5 158.5,176.5C 158.5,177.5 158.5,178.5 158.5,179.5C 160.735,179.205 162.735,179.539 164.5,180.5C 162.167,180.5 159.833,180.5 157.5,180.5C 157.5,179.167 157.5,177.833 157.5,176.5 Z"/></g>
<g><path style="opacity:1" fill="#a2a2a1" d="M 116.5,172.5 C 116.833,172.5 117.167,172.5 117.5,172.5C 117.5,178.5 117.5,184.5 117.5,190.5C 120.5,190.5 123.5,190.5 126.5,190.5C 123.375,191.479 120.042,191.813 116.5,191.5C 116.5,185.167 116.5,178.833 116.5,172.5 Z"/></g>
<g><path style="opacity:1" fill="#ebe9e3" d="M 23.5,175.5 C 23.5,180.5 23.5,185.5 23.5,190.5C 22.5,190.5 21.5,190.5 20.5,190.5C 20.5,188.833 20.5,187.167 20.5,185.5C 18.5,185.5 16.5,185.5 14.5,185.5C 14.5,187.5 14.5,189.5 14.5,191.5C 13.5,191.5 12.5,191.5 11.5,191.5C 11.1056,184.997 11.7723,178.664 13.5,172.5C 16.1667,172.5 18.8333,172.5 21.5,172.5C 21.2852,174.179 21.9519,175.179 23.5,175.5 Z"/></g>
<g><path style="opacity:1" fill="#575551" d="M 15.5,176.5 C 15.5,178.167 15.5,179.833 15.5,181.5C 16.8333,181.5 18.1667,181.5 19.5,181.5C 19.5,179.833 19.5,178.167 19.5,176.5C 20.4614,178.265 20.7947,180.265 20.5,182.5C 18.5,182.5 16.5,182.5 14.5,182.5C 14.2053,180.265 14.5386,178.265 15.5,176.5 Z"/></g>
<g><path style="opacity:1" fill="#151316" d="M 15.5,176.5 C 16.8333,176.5 18.1667,176.5 19.5,176.5C 19.5,178.167 19.5,179.833 19.5,181.5C 18.1667,181.5 16.8333,181.5 15.5,181.5C 15.5,179.833 15.5,178.167 15.5,176.5 Z"/></g>
<g><path style="opacity:1" fill="#e6e4de" d="M 84.5,188.5 C 82.4057,189.242 80.239,189.909 78,190.5C 76.2841,190.252 74.7841,189.585 73.5,188.5C 72.5078,184.217 72.1744,179.884 72.5,175.5C 74.0481,175.179 74.7148,174.179 74.5,172.5C 76.8333,172.5 79.1667,172.5 81.5,172.5C 81.5,173.5 81.5,174.5 81.5,175.5C 82.5,175.5 83.5,175.5 84.5,175.5C 84.5,179.833 84.5,184.167 84.5,188.5 Z"/></g>
<g><path style="opacity:1" fill="#9d9d9c" d="M 183.5,172.5 C 183.5,178.5 183.5,184.5 183.5,190.5C 184.5,190.5 185.5,190.5 186.5,190.5C 185.432,191.434 184.099,191.768 182.5,191.5C 182.177,184.978 182.51,178.645 183.5,172.5 Z"/></g>
<g><path style="opacity:1" fill="#e5e4de" d="M 56.5,172.5 C 59.8333,172.5 63.1667,172.5 66.5,172.5C 66.2852,174.179 66.9519,175.179 68.5,175.5C 68.5603,178.021 67.8936,180.354 66.5,182.5C 67.9917,184.972 68.6584,187.639 68.5,190.5C 67.5,190.5 66.5,190.5 65.5,190.5C 65.5,188.5 65.5,186.5 65.5,184.5C 63.8333,184.5 62.1667,184.5 60.5,184.5C 60.5,186.833 60.5,189.167 60.5,191.5C 59.1667,191.5 57.8333,191.5 56.5,191.5C 56.5,185.167 56.5,178.833 56.5,172.5 Z"/></g>
<g><path style="opacity:1" fill="#1e1d1a" d="M 60.5,176.5 C 62.1667,176.5 63.8333,176.5 65.5,176.5C 65.5,177.833 65.5,179.167 65.5,180.5C 63.8333,180.5 62.1667,180.5 60.5,180.5C 60.5,179.167 60.5,177.833 60.5,176.5 Z"/></g>
<g><path style="opacity:1" fill="#e9e8e3" d="M 117.5,172.5 C 120.5,172.5 123.5,172.5 126.5,172.5C 126.285,174.179 126.952,175.179 128.5,175.5C 128.925,180.728 128.258,185.728 126.5,190.5C 123.5,190.5 120.5,190.5 117.5,190.5C 117.5,184.5 117.5,178.5 117.5,172.5 Z"/></g>
<g><path style="opacity:1" fill="#232222" d="M 120.5,176.5 C 122.167,176.5 123.833,176.5 125.5,176.5C 125.5,180.167 125.5,183.833 125.5,187.5C 123.833,187.5 122.167,187.5 120.5,187.5C 120.5,183.833 120.5,180.167 120.5,176.5 Z"/></g>
<g><path style="opacity:1" fill="#a09c9a" d="M 176.5,172.5 C 176.5,178.5 176.5,184.5 176.5,190.5C 177.5,190.5 178.5,190.5 179.5,190.5C 178.432,191.434 177.099,191.768 175.5,191.5C 175.177,184.978 175.51,178.645 176.5,172.5 Z"/></g>
<g><path style="opacity:1" fill="#908f8c" d="M 23.5,190.5 C 22.4324,191.434 21.099,191.768 19.5,191.5C 19.5,189.833 19.5,188.167 19.5,186.5C 18.1667,186.5 16.8333,186.5 15.5,186.5C 15.5,188.167 15.5,189.833 15.5,191.5C 15.1667,191.5 14.8333,191.5 14.5,191.5C 14.5,189.5 14.5,187.5 14.5,185.5C 16.5,185.5 18.5,185.5 20.5,185.5C 20.5,187.167 20.5,188.833 20.5,190.5C 21.5,190.5 22.5,190.5 23.5,190.5 Z"/></g>
<g><path style="opacity:1" fill="#deded9" d="M 157.5,176.5 C 157.5,177.833 157.5,179.167 157.5,180.5C 159.833,180.5 162.167,180.5 164.5,180.5C 164.782,181.778 165.449,182.778 166.5,183.5C 166.307,186.308 165.64,188.975 164.5,191.5C 161.167,191.5 157.833,191.5 154.5,191.5C 154.5,190.167 154.5,188.833 154.5,187.5C 157.167,187.5 159.833,187.5 162.5,187.5C 163.434,186.432 163.768,185.099 163.5,183.5C 160.833,183.5 158.167,183.5 155.5,183.5C 154.653,181.971 153.986,180.304 153.5,178.5C 153.64,176.97 154.307,175.97 155.5,175.5C 158.544,173.391 161.877,173.057 165.5,174.5C 162.694,175.168 160.028,175.834 157.5,176.5 Z"/></g>
<g><path style="opacity:1" fill="#e3e0db" d="M 139.5,172.5 C 140.5,172.5 141.5,172.5 142.5,172.5C 142.5,177.5 142.5,182.5 142.5,187.5C 144.167,187.5 145.833,187.5 147.5,187.5C 147.179,182.305 147.513,177.305 148.5,172.5C 149.5,172.5 150.5,172.5 151.5,172.5C 151.5,177.833 151.5,183.167 151.5,188.5C 150.167,188.5 149.5,189.167 149.5,190.5C 146.212,190.927 143.212,190.26 140.5,188.5C 139.505,183.208 139.172,177.875 139.5,172.5 Z"/></g>
<g><path style="opacity:1" fill="#a8a5a3" d="M 104.5,172.5 C 104.5,178.5 104.5,184.5 104.5,190.5C 107.572,190.817 110.572,190.484 113.5,189.5C 111.369,188.831 109.369,188.165 107.5,187.5C 109.833,187.5 112.167,187.5 114.5,187.5C 114.5,188.833 114.5,190.167 114.5,191.5C 111.5,191.5 108.5,191.5 105.5,191.5C 103.547,185.926 102.88,179.926 103.5,173.5C 103.5,172.833 103.833,172.5 104.5,172.5 Z"/></g>
<g><path style="opacity:1" fill="#1e1e20" d="M 51.5,172.5 C 48.1667,172.5 44.8333,172.5 41.5,172.5C 41.5,178.833 41.5,185.167 41.5,191.5C 44.8333,191.5 48.1667,191.5 51.5,191.5C 52.1556,190.722 52.9889,190.056 54,189.5C 55.2575,189.85 55.5908,190.517 55,191.5C 52.6667,192.5 50.3333,193.5 48,194.5C 47.5065,196.134 47.3398,197.801 47.5,199.5C 39.5,199.5 31.5,199.5 23.5,199.5C 22.7703,197.955 21.437,197.122 19.5,197C 20.7932,196.51 22.1266,196.343 23.5,196.5C 23.5,195.5 23.5,194.5 23.5,193.5C 20.632,193.915 18.4653,192.915 17,190.5C 16.6174,191.056 16.1174,191.389 15.5,191.5C 15.5,189.833 15.5,188.167 15.5,186.5C 16.8333,186.5 18.1667,186.5 19.5,186.5C 19.5,188.167 19.5,189.833 19.5,191.5C 21.099,191.768 22.4324,191.434 23.5,190.5C 23.5,185.5 23.5,180.5 23.5,175.5C 24.8999,174.9 25.8999,173.9 26.5,172.5C 26.5,178.5 26.5,184.5 26.5,190.5C 27.5676,191.434 28.901,191.768 30.5,191.5C 30.5,187.833 30.5,184.167 30.5,180.5C 31.8589,181.007 32.8589,182.007 33.5,183.5C 34.48,186.086 34.8134,188.753 34.5,191.5C 35.8333,191.5 37.1667,191.5 38.5,191.5C 38.5,185.167 38.5,178.833 38.5,172.5C 37.5,172.5 36.5,172.5 35.5,172.5C 35.1667,172.5 34.8333,172.5 34.5,172.5C 34.9175,171.778 35.5842,171.278 36.5,171C 34.6079,170.027 32.6079,169.36 30.5,169C 29.6634,167.989 29.33,166.822 29.5,165.5C 35.5,165.5 41.5,165.5 47.5,165.5C 47.5713,168.652 48.9046,170.986 51.5,172.5 Z"/></g>
<g><path style="opacity:1" fill="#a09d99" d="M 30.5,180.5 C 30.5,184.167 30.5,187.833 30.5,191.5C 28.901,191.768 27.5676,191.434 26.5,190.5C 27.5,190.5 28.5,190.5 29.5,190.5C 29.1872,186.958 29.5206,183.625 30.5,180.5 Z"/></g>
<g><path style="opacity:1" fill="#e2dfda" d="M 26.5,172.5 C 27.8333,172.5 29.1667,172.5 30.5,172.5C 30.8308,174.322 31.4975,175.989 32.5,177.5C 33.209,178.404 34.209,178.737 35.5,178.5C 35.5,176.5 35.5,174.5 35.5,172.5C 36.5,172.5 37.5,172.5 38.5,172.5C 38.5,178.833 38.5,185.167 38.5,191.5C 37.1667,191.5 35.8333,191.5 34.5,191.5C 34.8134,188.753 34.48,186.086 33.5,183.5C 32.8589,182.007 31.8589,181.007 30.5,180.5C 29.5206,183.625 29.1872,186.958 29.5,190.5C 28.5,190.5 27.5,190.5 26.5,190.5C 26.5,184.5 26.5,178.5 26.5,172.5 Z"/></g>
<g><path style="opacity:1" fill="#827f7a" d="M 34.5,172.5 C 34.8333,172.5 35.1667,172.5 35.5,172.5C 35.5,174.5 35.5,176.5 35.5,178.5C 34.209,178.737 33.209,178.404 32.5,177.5C 34.256,176.448 34.9227,174.781 34.5,172.5 Z"/></g>
<g><path style="opacity:0.718" fill="#357977" d="M 8.5,173.5 C 8.5,180.167 8.5,186.833 8.5,193.5C 10.8333,193.5 13.1667,193.5 15.5,193.5C 15.5,195.5 15.5,197.5 15.5,199.5C 15.1667,199.5 14.8333,199.5 14.5,199.5C 14.7692,197.571 14.2692,195.905 13,194.5C 11.3333,195.833 9.66667,195.833 8,194.5C 7.17874,187.321 7.3454,180.321 8.5,173.5 Z"/></g>
<g><path style="opacity:1" fill="#18181b" d="M 71.5,188.5 C 75.4976,192.083 79.8309,192.416 84.5,189.5C 84.5,190.5 84.5,191.5 84.5,192.5C 87.1873,192.664 89.854,192.497 92.5,192C 91.5399,188.27 91.2065,184.437 91.5,180.5C 91.8333,180.5 92.1667,180.5 92.5,180.5C 92.5,181.5 92.5,182.5 92.5,183.5C 93.8333,183.5 95.1667,183.5 96.5,183.5C 96.5,182.5 96.5,181.5 96.5,180.5C 97.4816,183.962 97.815,187.629 97.5,191.5C 98.8333,191.5 100.167,191.5 101.5,191.5C 102.167,185.5 102.833,179.5 103.5,173.5C 102.88,179.926 103.547,185.926 105.5,191.5C 106.531,192.249 107.698,192.915 109,193.5C 113.646,192.914 118.313,192.58 123,192.5C 126.108,193.331 125.941,194.164 122.5,195C 128.157,195.499 133.824,195.666 139.5,195.5C 139.5,196.833 139.5,198.167 139.5,199.5C 113.167,199.5 86.8333,199.5 60.5,199.5C 60.0502,195.776 61.7168,193.609 65.5,193C 64.2298,192.1 63.2298,190.934 62.5,189.5C 61.8182,190.243 61.1515,190.909 60.5,191.5C 60.5,189.167 60.5,186.833 60.5,184.5C 62.1667,184.5 63.8333,184.5 65.5,184.5C 65.5,186.5 65.5,188.5 65.5,190.5C 66.5676,191.434 67.901,191.768 69.5,191.5C 69.927,188.212 69.2603,185.212 67.5,182.5C 69.1733,180.477 69.8399,178.144 69.5,175.5C 68.016,174.527 67.516,173.193 68,171.5C 68.6667,172.167 69.3333,172.833 70,173.5C 71.1827,172.269 72.3493,172.269 73.5,173.5C 72.675,174.386 71.675,174.719 70.5,174.5C 70.1805,179.363 70.5139,184.03 71.5,188.5 Z"/></g>
<g><path style="opacity:1" fill="#9b9b95" d="M 72.5,175.5 C 72.1744,179.884 72.5078,184.217 73.5,188.5C 74.7841,189.585 76.2841,190.252 78,190.5C 80.239,189.909 82.4057,189.242 84.5,188.5C 84.5,188.833 84.5,189.167 84.5,189.5C 79.8309,192.416 75.4976,192.083 71.5,188.5C 71.1818,183.968 71.5151,179.634 72.5,175.5 Z"/></g>
<g><path style="opacity:1" fill="#6e6c6c" d="M 92.5,180.5 C 93.1515,181.091 93.8182,181.757 94.5,182.5C 95.1818,181.757 95.8485,181.091 96.5,180.5C 96.5,181.5 96.5,182.5 96.5,183.5C 95.1667,183.5 93.8333,183.5 92.5,183.5C 92.5,182.5 92.5,181.5 92.5,180.5 Z"/></g>
<g><path style="opacity:1" fill="#1a191a" d="M 75.5,176.5 C 77.1667,176.5 78.8333,176.5 80.5,176.5C 80.5,180.167 80.5,183.833 80.5,187.5C 78.8333,187.5 77.1667,187.5 75.5,187.5C 75.5,183.833 75.5,180.167 75.5,176.5 Z"/></g>
<g><path style="opacity:1" fill="#1b1b1e" d="M 172.5,165.5 C 172.5,166.833 172.5,168.167 172.5,169.5C 170.801,169.34 169.134,169.506 167.5,170C 168.5,170.333 169.5,170.667 170.5,171C 168.942,171.21 167.609,171.71 166.5,172.5C 162.833,172.5 159.167,172.5 155.5,172.5C 155.5,173.5 155.5,174.5 155.5,175.5C 154.307,175.97 153.64,176.97 153.5,178.5C 153.986,180.304 154.653,181.971 155.5,183.5C 157.607,184.468 159.941,184.802 162.5,184.5C 162.5,185.5 162.5,186.5 162.5,187.5C 159.833,187.5 157.167,187.5 154.5,187.5C 154.5,188.833 154.5,190.167 154.5,191.5C 157.833,191.5 161.167,191.5 164.5,191.5C 165.64,188.975 166.307,186.308 166.5,183.5C 168.856,185.557 169.856,188.224 169.5,191.5C 172.451,191.287 175.118,191.954 177.5,193.5C 177.5,195.5 177.5,197.5 177.5,199.5C 168.833,199.5 160.167,199.5 151.5,199.5C 152.418,195.878 152.418,192.212 151.5,188.5C 151.5,183.167 151.5,177.833 151.5,172.5C 150.5,172.5 149.5,172.5 148.5,172.5C 148.5,172.167 148.5,171.833 148.5,171.5C 151.37,170.97 153.37,169.303 154.5,166.5C 160.463,165.504 166.463,165.171 172.5,165.5 Z"/></g>
<g><path style="opacity:1" fill="#676561" d="M 155.5,183.5 C 158.167,183.5 160.833,183.5 163.5,183.5C 163.768,185.099 163.434,186.432 162.5,187.5C 162.5,186.5 162.5,185.5 162.5,184.5C 159.941,184.802 157.607,184.468 155.5,183.5 Z"/></g>
</svg>
