<?xml version="1.0" standalone="no"?>
<!DOCTYPE svg PUBLIC "-//W3C//DTD SVG 20010904//EN"
 "http://www.w3.org/TR/2001/REC-SVG-20010904/DTD/svg10.dtd">
<svg version="1.0" xmlns="http://www.w3.org/2000/svg"
 width="200.000000pt" height="200.000000pt" viewBox="0 0 200.000000 200.000000"
 preserveAspectRatio="xMidYMid meet">

<g transform="translate(0.000000,200.000000) scale(0.100000,-0.100000)"
fill="#000000" stroke="none">
<path d="M843 1874 c-201 -34 -367 -124 -504 -271 -98 -107 -171 -236 -204
-363 -18 -71 -19 -80 -1 -80 18 0 49 -47 40 -62 -5 -7 0 -9 15 -5 18 4 20 3
10 -9 -15 -18 -28 -18 -50 2 -11 10 -19 12 -24 5 -3 -6 0 -11 8 -11 18 0 78
-68 66 -76 -5 -3 -13 -3 -17 0 -5 3 -9 -2 -9 -10 0 -10 7 -14 20 -10 27 7 47
-3 40 -21 -5 -14 -4 -14 18 0 17 11 31 12 47 6 28 -10 19 -33 -10 -26 -16 5
-19 1 -17 -21 2 -15 0 -28 -4 -29 -19 -7 -47 -1 -61 12 -8 8 -17 11 -20 6 -3
-5 1 -12 10 -15 8 -3 12 -10 9 -16 -6 -9 33 -16 60 -10 19 3 -9 -18 -34 -25
-16 -5 -21 -4 -17 4 4 6 3 11 -3 11 -26 0 -17 -20 14 -30 41 -13 42 -35 2 -35
-15 1 -27 -3 -27 -7 0 -4 -11 -2 -25 4 -24 11 -30 24 -27 61 1 10 -7 30 -18
44 l-20 26 0 -31 c0 -17 5 -53 12 -81 9 -42 15 -50 29 -46 25 8 34 -14 10 -23
-19 -7 -19 -9 9 -80 149 -370 547 -598 945 -542 93 14 216 54 291 95 88 49
184 122 184 141 0 8 4 13 9 10 11 -7 45 30 37 42 -3 5 3 12 13 15 24 6 112
123 105 140 -2 7 -16 14 -31 15 -55 4 -72 46 -23 55 37 8 57 1 63 -21 4 -15 5
-14 6 1 0 10 8 25 16 34 14 14 14 18 0 40 -19 28 -19 28 13 37 17 6 22 3 23
-11 0 -10 7 1 16 24 14 42 14 43 -14 71 -15 15 -40 33 -55 39 -16 7 -28 20
-28 28 0 9 4 14 9 11 5 -4 12 0 14 6 4 10 8 9 16 -2 5 -8 13 -11 18 -7 11 11
-19 28 -39 21 -9 -2 -19 -1 -21 3 -3 5 6 10 21 11 15 1 29 7 31 13 2 6 16 -2
32 -17 15 -15 26 -31 23 -36 -3 -4 2 -8 10 -8 20 0 31 90 22 190 -18 219 -120
437 -273 581 -79 75 -126 107 -229 156 -114 54 -183 74 -230 66 -35 -6 -58
-23 -30 -23 9 0 25 -9 36 -20 11 -11 30 -20 43 -20 17 0 19 -2 7 -10 -16 -10
-8 -22 18 -26 9 -2 30 -5 46 -8 16 -2 32 -10 36 -17 5 -6 14 -10 22 -7 23 9
83 -25 82 -48 0 -16 5 -19 33 -16 25 3 33 0 33 -12 0 -9 4 -16 8 -16 14 0 35
-54 23 -58 -19 -6 -12 -20 12 -24 12 -3 -3 -5 -33 -6 -30 0 -57 3 -61 9 -7 12
-52 -11 -76 -39 -24 -30 -119 -41 -121 -14 -2 37 10 73 23 68 9 -3 11 2 8 15
-3 10 -8 19 -12 19 -17 -1 -41 -30 -41 -49 0 -11 -8 -29 -17 -39 -10 -9 -25
-29 -35 -42 l-16 -25 5 40 c9 82 10 100 6 112 -6 14 -77 53 -98 53 -8 0 -15 7
-15 15 0 9 -7 18 -15 21 -8 4 -12 10 -9 15 3 5 9 7 14 4 4 -3 24 -7 43 -9 28
-4 35 -2 30 10 -3 7 -16 14 -29 14 -20 0 -24 5 -24 30 0 20 -6 33 -17 37 -10
4 -30 19 -44 34 l-26 28 25 3 c14 2 27 9 30 16 5 15 -61 14 -165 -4z m74 -55
c7 -13 19 -23 26 -21 10 1 12 -7 9 -28 -2 -16 -8 -27 -13 -24 -5 3 -9 1 -9 -5
0 -5 5 -13 10 -16 16 -10 12 -25 -5 -19 -8 4 -15 12 -15 18 0 8 -15 13 -37 13
-21 0 -30 -2 -20 -4 26 -7 20 -69 -5 -65 -11 2 -18 -3 -18 -13 0 -8 -4 -15
-10 -15 -5 0 -10 -5 -10 -11 0 -5 5 -7 10 -4 6 3 10 2 10 -4 0 -15 -58 -53
-70 -46 -5 3 -10 -1 -10 -11 0 -11 6 -15 20 -11 25 6 25 5 1 -34 -18 -29 -20
-30 -30 -12 -11 16 -11 16 -6 -4 5 -17 2 -23 -10 -23 -23 0 -72 43 -67 58 2 7
-4 12 -13 12 -9 0 -13 5 -10 10 3 6 0 10 -9 10 -8 0 -17 6 -19 13 -3 6 -6 2
-6 -10 -1 -12 5 -28 13 -35 11 -12 10 -15 -9 -25 -31 -14 -40 -5 -42 44 -2 32
1 41 11 37 8 -3 16 4 19 16 5 19 8 20 29 9 13 -7 33 -23 45 -36 12 -12 28 -23
35 -23 7 0 1 10 -14 20 -18 14 -24 27 -21 40 5 17 7 18 20 5 8 -9 18 -13 23
-10 4 3 11 -2 14 -11 3 -9 12 -14 20 -11 7 3 18 1 24 -5 8 -8 13 -7 18 6 4 10
2 22 -5 29 -6 6 -11 20 -10 32 0 11 3 14 6 8 6 -18 23 -16 23 1 0 8 5 16 12
18 7 3 3 13 -12 28 l-23 23 -11 -34 c-8 -23 -19 -35 -36 -39 -27 -7 -56 13
-45 31 4 6 -3 21 -15 34 l-23 24 29 12 c16 6 40 11 54 11 14 0 34 6 45 14 19
14 19 16 3 28 -10 7 -18 16 -18 20 0 14 35 5 57 -16 20 -19 23 -19 23 -4 0 13
5 16 22 11 17 -6 20 -4 15 10 -11 26 16 13 30 -16z m73 -44 c0 -8 -4 -15 -10
-15 -5 0 -10 7 -10 15 0 8 5 15 10 15 6 0 10 -7 10 -15z m-318 -85 c5 -3 -4
-6 -20 -5 -16 0 -26 6 -24 14 1 7 -2 10 -8 6 -18 -11 -32 5 -19 21 10 13 16
11 38 -8 14 -12 29 -25 33 -28z m-138 25 c-10 -8 -23 -15 -28 -15 -6 0 -1 7
10 15 10 8 23 15 28 15 6 0 1 -7 -10 -15z m43 -23 c9 -6 8 -12 -5 -23 -10 -9
-25 -16 -33 -17 -8 0 -25 -3 -39 -6 -21 -6 -22 -5 -5 3 11 5 16 10 11 10 -5 1
-1 10 9 21 19 21 41 25 62 12z m402 -16 c12 -14 4 -76 -10 -76 -4 0 -11 9 -14
21 -7 20 -32 21 -27 0 1 -6 -2 -11 -8 -11 -5 0 -10 7 -10 15 0 8 -4 15 -9 15
-5 0 -4 -16 2 -36 10 -33 13 -35 44 -29 38 7 77 -10 69 -31 -4 -11 -2 -12 14
-2 10 7 16 16 13 22 -3 5 -1 6 4 3 18 -11 34 -67 20 -67 -9 0 -9 -2 1 -8 8 -6
11 -26 10 -58 -3 -39 -6 -49 -20 -48 -12 1 -19 -8 -24 -32 -6 -30 -8 -33 -19
-18 -12 17 -18 -38 -31 -281 -5 -105 -11 -135 -24 -135 -6 0 -9 6 -8 13 2 6
-4 11 -13 9 -17 -2 -35 40 -24 58 3 5 1 11 -5 15 -5 3 -10 17 -10 30 0 13 -5
27 -10 30 -6 4 -7 11 -4 17 4 6 10 5 16 -3 6 -9 7 9 2 51 -3 36 -6 80 -5 99 2
41 -17 141 -31 158 -5 7 -7 16 -4 21 3 5 6 28 7 51 2 23 7 45 11 47 5 3 1 15
-7 27 -17 25 -20 63 -5 72 8 5 7 11 -1 21 -9 12 -6 14 20 14 21 0 31 5 31 16
0 8 4 13 9 9 5 -3 12 -1 16 5 9 14 20 13 34 -4z m-399 -36 c0 -5 -10 -10 -22
-9 -22 0 -22 1 -3 9 11 5 21 9 23 9 1 1 2 -3 2 -9z m-133 -25 c26 -24 26 -25
8 -45 -10 -11 -28 -20 -40 -20 -13 0 -30 -11 -38 -24 -15 -22 -15 -25 -1 -30
9 -3 20 -4 25 0 18 11 8 -23 -12 -42 -16 -15 -22 -16 -29 -5 -6 10 -12 8 -25
-12 -10 -15 -22 -24 -31 -20 -20 7 -18 23 4 23 12 0 14 2 4 8 -18 12 -1 51 38
85 23 21 30 34 26 50 -4 15 1 27 17 39 28 22 23 22 54 -7z m403 -109 c-7 -9
-10 -22 -7 -30 4 -11 1 -13 -10 -9 -13 5 -15 2 -10 -17 7 -27 -9 -64 -24 -54
-5 3 -7 14 -4 24 3 10 1 21 -5 25 -8 5 -4 12 9 22 12 8 21 25 21 38 0 25 19
38 34 24 5 -5 4 -14 -4 -23z m710 25 c0 -5 -7 -14 -15 -21 -15 -13 -11 -35 6
-25 5 4 9 1 9 -4 0 -16 -15 -13 -43 9 -15 12 -24 27 -20 35 5 16 63 21 63 6z
m-354 -53 c-8 -18 -19 -34 -24 -36 -6 -2 -3 13 6 32 20 45 36 48 18 4z m291
-2 c-3 -7 -1 -19 4 -25 5 -6 2 -5 -7 3 -9 8 -13 19 -10 25 10 16 19 14 13 -3z
m-204 -2 c9 -3 13 -13 9 -26 -4 -15 -2 -19 7 -14 7 5 20 -1 30 -13 10 -11 21
-18 24 -15 3 4 13 4 22 0 14 -5 14 -8 0 -36 -14 -27 -18 -29 -30 -16 -21 20
-19 26 8 26 22 0 22 1 -3 14 -14 7 -29 9 -34 5 -13 -12 -51 29 -51 57 -1 13 0
24 1 24 1 0 9 -3 17 -6z m87 -15 c14 -24 9 -32 -14 -23 -17 7 -23 44 -6 44 5
0 14 -9 20 -21z m-845 1 c-3 -5 -10 -10 -16 -10 -5 0 -9 5 -9 10 0 6 7 10 16
10 8 0 12 -4 9 -10z m65 -11 c0 -5 5 -7 11 -4 15 10 59 -35 58 -59 0 -12 -3
-15 -6 -8 -2 6 -13 12 -24 12 -13 0 -19 7 -19 24 0 19 -4 23 -20 19 -14 -4
-20 0 -20 11 0 9 5 16 10 16 6 0 10 -5 10 -11z m980 7 c0 -3 -4 -8 -10 -11 -5
-3 -10 -1 -10 4 0 6 5 11 10 11 6 0 10 -2 10 -4z m-733 -131 c0 -36 -4 -68 -9
-71 -5 -3 -6 -22 -2 -41 4 -23 3 -34 -3 -30 -6 4 -21 -5 -33 -18 -13 -14 -27
-25 -32 -25 -13 0 -9 28 5 37 28 17 65 97 60 130 -5 29 2 83 10 83 2 0 4 -29
4 -65z m-537 36 c0 -5 -7 -12 -16 -15 -24 -9 -28 -7 -14 9 14 17 30 20 30 6z
m415 -15 l24 -13 -30 -31 c-17 -18 -28 -32 -24 -32 4 0 2 -8 -5 -17 -7 -10 9
5 34 32 37 40 48 47 56 35 6 -9 5 -17 -1 -21 -6 -3 -12 -21 -15 -40 -6 -54 -9
-66 -22 -82 -10 -11 -10 -16 -1 -19 8 -3 8 -8 -2 -19 -25 -27 -37 -56 -29 -68
8 -15 63 11 118 55 l32 27 0 -36 c0 -25 -8 -45 -26 -64 -14 -15 -32 -42 -39
-59 -7 -18 -22 -35 -34 -39 -11 -3 -30 -22 -42 -41 -12 -20 -32 -40 -46 -45
-15 -5 -23 -15 -21 -26 2 -12 -4 -18 -20 -19 -31 -2 -41 -14 -11 -14 21 0 30
-11 57 -70 18 -39 36 -70 41 -70 5 0 8 -6 7 -14 0 -8 4 -15 9 -14 6 0 9 4 7 9
-3 14 30 -5 51 -29 12 -13 20 -40 22 -74 2 -29 13 -72 24 -95 12 -23 21 -52
20 -65 0 -16 -5 -11 -16 20 -15 43 -26 51 -39 30 -4 -6 0 -16 8 -22 9 -7 12
-18 8 -30 -7 -21 -13 -7 -63 152 -31 97 -69 141 -152 178 -29 12 -56 28 -60
34 -4 6 -18 16 -32 21 -14 5 -27 18 -30 29 -3 11 -11 20 -17 20 -7 0 -13 7
-13 15 0 9 6 14 14 11 7 -3 13 -1 13 3 0 5 -12 14 -27 19 -16 6 -23 11 -16 11
6 1 9 9 6 20 -3 10 0 22 6 25 6 4 11 19 11 33 0 20 4 24 19 20 17 -4 19 0 16
23 -3 22 1 29 18 34 17 4 19 8 9 14 -9 6 -2 9 19 10 18 0 45 10 61 22 16 12
40 23 53 24 35 4 64 33 58 57 -5 16 -7 17 -17 5 -14 -17 -57 -28 -74 -17 -9 5
-2 8 18 9 34 1 53 12 33 19 -10 3 -10 10 -2 25 6 11 8 22 5 25 -3 3 -8 -2 -12
-11 -7 -17 -49 -22 -59 -7 -3 5 11 22 30 37 20 15 33 29 30 32 -3 3 -13 -2
-23 -11 -10 -10 -24 -17 -30 -17 -6 0 -26 -9 -44 -19 -28 -17 -60 -26 -103
-30 -5 -1 -3 -5 5 -11 8 -5 11 -12 7 -16 -4 -4 -12 -3 -18 3 -16 16 -56 3 -74
-23 -8 -13 -11 -24 -6 -24 5 0 13 5 16 10 4 6 11 8 16 5 5 -3 6 0 4 8 -5 10 5
12 47 6 29 -4 67 -11 83 -16 28 -9 29 -10 8 -17 -12 -4 -42 -4 -67 -1 -25 4
-46 3 -46 -1 0 -4 12 -21 27 -36 15 -15 21 -28 15 -28 -7 0 -12 -7 -12 -15 0
-8 -3 -15 -7 -16 -5 0 -16 -2 -25 -4 -10 -2 -18 3 -18 10 0 15 -11 24 -37 30
-78 19 -97 25 -116 42 -27 22 -37 35 -37 48 1 6 12 -2 25 -18 24 -26 25 -27
45 -10 27 23 44 53 30 53 -5 0 -10 -7 -10 -15 0 -8 -6 -15 -14 -15 -8 0 -17
-6 -20 -12 -3 -9 -11 -6 -24 10 -13 13 -26 20 -36 16 -19 -7 -59 33 -50 48 4
5 17 7 31 3 23 -5 24 -4 10 10 -9 8 -20 15 -25 15 -7 0 -6 13 1 35 12 42 24
45 33 8 7 -25 8 -25 20 -8 19 25 30 11 16 -20 -7 -15 -8 -26 -2 -30 6 -4 13 2
16 12 17 53 25 63 48 63 14 0 30 -8 35 -17 9 -15 11 -13 11 12 1 28 2 29 10 8
14 -35 26 -27 22 12 -4 36 5 44 26 23 7 -7 32 -18 55 -23 23 -6 42 -16 42 -22
0 -18 12 -26 50 -29 29 -3 35 0 35 16 0 13 7 20 19 20 10 0 21 7 25 15 3 8 12
15 20 15 10 0 12 7 8 22 -3 14 -2 19 6 14 7 -4 23 -13 37 -20z m934 -25 c-13
-4 -15 -2 -23 29 l-7 25 20 -25 c11 -14 15 -27 10 -29z m-1070 5 c10 -12 9
-14 -5 -12 -10 2 -20 8 -22 14 -5 17 13 15 27 -2z m492 -49 c-8 -8 -11 0 -10
29 1 39 1 39 11 11 7 -21 7 -32 -1 -40z m350 10 c-6 -15 -15 -27 -21 -27 -15
0 -12 26 5 40 8 7 16 20 16 29 1 14 2 14 6 0 2 -8 -1 -28 -6 -42z m-214 10 c6
-4 12 -15 12 -25 0 -24 5 -43 20 -70 20 -38 8 -43 -28 -12 -28 25 -34 38 -36
74 -1 43 5 50 32 33z m476 -40 c5 -29 3 -36 -6 -29 -8 6 -18 3 -31 -9 -17 -17
-18 -19 -3 -19 22 0 21 -8 -1 -28 -9 -10 -13 -14 -8 -9 22 16 24 5 3 -16 -12
-13 -25 -22 -29 -20 -5 2 -8 -1 -8 -7 0 -6 -4 -9 -9 -6 -5 4 -19 -6 -31 -21
-12 -16 -19 -21 -17 -12 3 9 -1 16 -9 16 -8 0 -14 -4 -14 -8 0 -3 -9 -9 -20
-12 -15 -4 -20 0 -20 13 0 11 -10 20 -25 24 -14 4 -25 11 -25 17 0 6 9 8 22 3
13 -4 35 -7 50 -6 16 0 28 -4 28 -9 0 -5 5 -9 10 -9 16 0 11 19 -11 41 -11 11
-27 18 -35 15 -9 -3 -12 -1 -9 5 4 5 14 9 23 8 10 -1 22 -1 28 0 17 2 92 79
85 88 -3 4 2 1 12 -7 16 -12 20 -12 28 1 5 8 9 20 9 28 0 24 7 8 13 -32z
m-368 3 c4 -6 11 -8 16 -5 5 4 9 1 9 -4 0 -6 -4 -11 -9 -11 -17 0 -41 12 -41
21 0 12 17 11 25 -1z m-185 -73 c0 -4 -7 -2 -15 7 -8 8 -15 21 -15 28 1 14 30
-20 30 -35z m324 18 c4 -11 -3 -19 -21 -26 -28 -10 -63 -4 -63 12 0 6 5 7 10
4 6 -3 10 1 10 9 0 21 56 22 64 1z m-1289 -35 c10 -11 13 -20 8 -20 -6 0 -13
7 -17 15 -3 9 -12 12 -22 8 -12 -4 -15 -3 -10 5 10 17 20 15 41 -8z m1168 -23
c16 3 27 1 27 -6 0 -6 -4 -11 -10 -11 -22 0 -8 -26 27 -49 29 -19 46 -22 84
-19 30 3 46 1 42 -5 -3 -5 0 -7 8 -5 8 3 13 11 11 17 -1 8 4 7 18 -1 17 -11
22 -10 29 0 5 8 16 12 25 10 15 -3 15 -5 0 -26 -12 -18 -19 -20 -29 -12 -8 7
-20 8 -27 4 -13 -9 -18 -10 -53 -13 -13 -1 -16 -4 -8 -9 6 -4 13 -16 15 -27 3
-22 -38 -42 -66 -32 -24 9 -8 37 22 37 24 0 23 2 -13 20 -37 19 -85 27 -85 14
0 -3 11 -20 25 -38 29 -38 31 -46 10 -46 -8 0 -15 -9 -15 -21 0 -11 3 -18 8
-15 4 2 16 -2 26 -10 18 -13 18 -14 -5 -33 -18 -15 -21 -22 -13 -31 17 -17
-55 -92 -126 -132 -67 -38 -63 -37 -66 -14 -4 25 6 47 17 40 11 -7 6 77 -6 96
-4 7 -3 15 4 19 13 9 -1 64 -23 86 -13 13 -15 13 -21 -6 -9 -26 -22 -14 -29
26 -2 17 -5 32 -5 34 -1 2 -9 -3 -19 -13 -18 -15 -19 -15 -30 9 -6 14 -16 25
-20 25 -9 0 -22 56 -25 109 -3 39 20 35 45 -8 13 -23 28 -41 34 -41 12 0 84
-79 84 -92 0 -5 7 -8 15 -8 12 0 13 4 5 19 -17 33 -12 44 15 37 36 -9 31 4
-20 54 -25 24 -45 48 -45 52 0 17 27 7 59 -23 79 -72 120 -78 53 -8 -32 32
-38 44 -29 54 10 11 16 11 33 0 11 -7 32 -11 47 -8z m-1069 -78 c-6 -11 -24
-2 -24 11 0 5 7 7 15 4 8 -4 12 -10 9 -15z m-64 -10 c0 -7 14 -9 43 -5 56 9
87 10 114 4 33 -6 40 -18 15 -25 -12 -3 -22 -9 -22 -14 0 -5 -18 -8 -40 -7
-21 1 -46 -4 -54 -11 -12 -10 -15 -9 -20 6 -3 10 -19 24 -36 31 -17 8 -28 18
-24 23 7 13 24 11 24 -2z m1352 -51 c-7 -7 -12 -8 -12 -2 0 14 12 26 19 19 2
-3 -1 -11 -7 -17z m-1155 6 c-3 -3 -12 -4 -19 -1 -8 3 -5 6 6 6 11 1 17 -2 13
-5z m-97 -23 c0 -5 -9 -7 -20 -4 -11 3 -20 7 -20 9 0 2 9 4 20 4 11 0 20 -4
20 -9z m65 -20 c-3 -11 -1 -22 5 -26 16 -10 12 -21 -9 -22 -12 -1 -20 6 -23
21 -6 30 1 46 19 46 10 0 12 -6 8 -19z m1250 -29 c-8 -9 -25 20 -18 31 3 5 10
2 15 -7 6 -10 7 -20 3 -24z m105 18 c0 -5 -2 -10 -4 -10 -3 0 -8 5 -11 10 -3
6 -1 10 4 10 6 0 11 -4 11 -10z m-185 -10 c5 -8 12 -7 22 2 15 12 15 11 2 -9
-9 -15 -17 -19 -23 -13 -6 6 -21 10 -35 11 -24 0 -24 1 -6 9 27 12 33 12 40 0z
m-1220 -29 c-3 -5 -1 -12 5 -16 5 -3 10 -13 10 -21 0 -11 -6 -13 -22 -8 -31 9
-33 11 -20 27 7 8 9 17 5 20 -3 4 1 7 11 7 9 0 15 -4 11 -9z m1270 -11 c-3 -5
-10 -10 -16 -10 -5 0 -9 5 -9 10 0 6 7 10 16 10 8 0 12 -4 9 -10z m98 -6 c9
-4 17 -13 17 -20 0 -22 -29 -28 -49 -10 -10 9 -21 13 -24 9 -4 -3 -7 -2 -7 3
0 16 23 35 35 29 5 -3 18 -8 28 -11z m-1003 -65 c0 -5 -4 -9 -8 -9 -5 0 -9 7
-9 15 0 8 4 12 9 9 4 -3 8 -9 8 -15z m740 11 c0 -5 -7 -10 -15 -10 -8 0 -15 5
-15 10 0 6 7 10 15 10 8 0 15 -4 15 -10z m-1153 -16 c-3 -3 -12 -4 -19 -1 -8
3 -5 6 6 6 11 1 17 -2 13 -5z m1427 -11 c4 -5 13 -8 19 -8 7 0 13 -8 15 -17 3
-14 -3 -18 -26 -18 -37 0 -46 10 -24 27 16 12 16 13 0 7 -10 -3 -18 -1 -18 5
0 12 23 15 34 4z m-1404 -44 c-11 -8 -12 -12 -2 -16 6 -2 12 -11 12 -19 0 -17
-42 -10 -74 12 -15 10 -16 14 -5 18 8 2 21 7 29 9 8 3 24 6 35 6 17 1 18 -1 5
-10z m1497 -15 c-3 -3 -12 -4 -19 -1 -8 3 -5 6 6 6 11 1 17 -2 13 -5z m-1572
-34 c-3 -5 3 -10 14 -10 12 0 21 -5 21 -11 0 -5 5 -7 12 -3 7 4 8 3 4 -5 -4
-6 -11 -9 -16 -6 -4 3 -15 -6 -24 -20 -9 -14 -13 -25 -9 -25 10 0 -19 -20 -29
-20 -7 0 -4 26 7 61 4 10 2 19 -4 19 -6 0 -8 7 -5 15 4 8 13 15 21 15 8 0 11
-4 8 -10z m165 -15 c-7 -8 -17 -12 -22 -9 -6 4 -5 10 3 15 22 14 33 10 19 -6z
m107 -10 c18 -19 10 -33 -10 -17 -13 11 -42 11 -53 -1 -4 -4 -14 -7 -23 -7 -9
1 0 9 19 20 43 24 48 24 67 5z m451 -9 c2 -10 -6 -50 -19 -88 l-22 -71 -14 54
c-9 34 -10 55 -4 57 5 2 15 19 21 38 12 36 32 41 38 10z m56 -20 c-3 -15 -13
-30 -20 -33 -9 -3 -14 -21 -14 -45 0 -23 -4 -57 -10 -77 -5 -20 -12 -48 -15
-63 -4 -19 -12 -28 -25 -28 -21 0 -27 24 -9 36 8 5 8 9 -1 14 -9 5 -8 11 2 21
14 14 39 90 43 132 1 12 4 23 5 25 1 1 3 5 4 10 1 4 8 18 15 31 17 30 35 14
25 -23z m159 -67 c-18 -26 -33 -50 -33 -55 0 -4 -9 -17 -20 -29 -20 -21 -83
-170 -100 -233 -43 -172 -48 -181 -95 -160 -23 10 -45 61 -59 143 -3 17 -9 41
-12 55 -7 23 -6 24 10 11 14 -12 19 -12 25 -2 10 16 21 16 33 -1 7 -9 8 -7 4
7 -5 17 3 26 41 45 25 14 55 29 65 35 10 5 18 19 18 31 0 12 10 34 22 50 12
16 15 23 8 17 -8 -7 -17 -13 -21 -13 -13 0 10 74 26 86 9 7 12 14 6 15 -5 2
-3 13 6 24 11 14 17 16 20 7 4 -10 8 -10 19 -1 10 8 14 8 14 0 0 -6 5 -11 11
-11 5 0 8 4 5 8 -3 5 0 25 6 46 l12 37 11 -33 c10 -30 8 -37 -22 -79z m147 66
c-7 -8 -17 -12 -23 -8 -6 4 -3 9 9 14 27 11 28 11 14 -6z m405 5 c3 -5 2 -10
-4 -10 -5 0 -13 5 -16 10 -3 6 -2 10 4 10 5 0 13 -4 16 -10z m-1405 -4 c0 -3
-4 -8 -10 -11 -5 -3 -10 -1 -10 4 0 6 5 11 10 11 6 0 10 -2 10 -4z m110 -38
c0 -3 19 -5 43 -3 31 2 42 8 41 19 -1 12 3 13 16 6 32 -17 34 -60 3 -60 -13 0
-13 3 -3 15 19 23 3 18 -22 -7 -17 -17 -18 -20 -4 -15 12 5 16 3 13 -5 -2 -8
-18 -12 -41 -11 -23 2 -35 -1 -31 -7 3 -6 1 -10 -4 -10 -6 0 -11 -9 -11 -21 0
-11 5 -17 10 -14 6 3 15 3 20 0 12 -7 -6 -28 -31 -37 -13 -5 -16 -2 -12 12 3
11 -5 33 -17 51 l-23 31 22 -12 c13 -6 26 -9 29 -5 10 10 -22 59 -46 70 -26
12 -28 22 -4 27 18 4 52 -12 52 -24z m-120 -8 c0 -5 -5 -10 -11 -10 -5 0 -7 5
-4 10 3 6 8 10 11 10 2 0 4 -4 4 -10z m979 -49 c-13 -10 -28 -17 -32 -14 -5 3
4 13 20 23 36 22 43 17 12 -9z m158 -47 c-3 -3 -12 -4 -19 -1 -8 3 -5 6 6 6
11 1 17 -2 13 -5z m-1122 -14 c-3 -5 -14 -10 -23 -9 -14 0 -13 2 3 9 27 11 27
11 20 0z m925 -18 c-24 -8 -52 -44 -46 -59 6 -13 4 -14 -9 -3 -12 10 -19 10
-27 2 -8 -8 -4 -14 17 -22 34 -13 55 1 36 24 -7 8 -8 17 -3 20 12 7 22 -28 15
-54 -6 -22 -29 -27 -36 -7 -3 9 -9 9 -25 0 -14 -8 -23 -9 -27 -3 -11 17 28 72
65 93 19 10 37 24 39 31 3 7 6 6 9 -3 3 -8 -1 -17 -8 -19z m-644 -39 c-10 -10
-19 5 -10 18 6 11 8 11 12 0 2 -7 1 -15 -2 -18z m714 7 c0 -5 -5 -10 -11 -10
-5 0 -7 5 -4 10 3 6 8 10 11 10 2 0 4 -4 4 -10z m320 -5 c-7 -8 -16 -12 -21
-9 -13 8 -1 24 18 24 13 0 13 -3 3 -15z m-1009 -35 c10 0 19 -7 19 -15 0 -18
-11 -19 -45 -3 -27 12 -36 34 -9 24 9 -3 24 -6 35 -6z"/>
<path d="M820 1790 c0 -5 5 -10 11 -10 5 0 7 5 4 10 -3 6 -8 10 -11 10 -2 0
-4 -4 -4 -10z"/>
<path d="M800 1736 c0 -2 9 -6 20 -9 11 -3 20 -1 20 4 0 5 -9 9 -20 9 -11 0
-20 -2 -20 -4z"/>
<path d="M925 1550 c-8 -12 5 -60 16 -60 5 0 9 6 9 14 0 8 3 21 6 29 6 16 -22
32 -31 17z"/>
<path d="M325 1490 c-3 -6 1 -7 9 -4 18 7 21 14 7 14 -6 0 -13 -4 -16 -10z"/>
<path d="M220 1239 c0 -5 5 -7 10 -4 6 3 10 8 10 11 0 2 -4 4 -10 4 -5 0 -10
-5 -10 -11z"/>
<path d="M690 1215 c-17 -21 -9 -27 13 -10 10 7 14 16 9 19 -5 3 -15 -1 -22
-9z"/>
<path d="M430 1061 c0 -6 5 -13 10 -16 6 -3 10 1 10 9 0 9 -4 16 -10 16 -5 0
-10 -4 -10 -9z"/>
<path d="M597 1042 c-10 -10 -17 -21 -17 -24 0 -3 -14 -21 -31 -39 -17 -18
-37 -46 -45 -62 -14 -26 -14 -30 3 -42 23 -17 27 -13 53 55 12 30 30 70 41 89
23 38 20 50 -4 23z"/>
<path d="M1194 1248 c-4 -7 -4 -10 1 -6 4 4 15 2 24 -5 14 -11 14 -10 2 6 -16
20 -18 21 -27 5z"/>
<path d="M1330 921 c0 -5 5 -13 10 -16 6 -3 10 -2 10 4 0 5 -4 13 -10 16 -5 3
-10 2 -10 -4z"/>
<path d="M880 289 c0 -15 7 -32 15 -39 19 -16 19 0 0 36 l-15 29 0 -26z"/>
<path d="M967 270 c-3 -11 -1 -20 4 -20 5 0 9 9 9 20 0 11 -2 20 -4 20 -2 0
-6 -9 -9 -20z"/>
<path d="M1061 1840 c-25 -6 -42 -30 -21 -30 6 0 9 -4 6 -9 -10 -15 20 -20 44
-8 28 14 38 37 17 37 -9 0 -17 4 -19 8 -1 5 -14 6 -27 2z"/>
<path d="M1110 1761 c0 -14 5 -19 15 -14 17 6 15 25 -3 31 -7 2 -12 -5 -12
-17z"/>
<path d="M1150 1750 c-14 -26 -2 -73 16 -66 8 3 14 1 14 -4 0 -6 -4 -10 -10
-10 -5 0 -10 -7 -10 -15 0 -8 5 -15 10 -15 6 0 10 7 10 16 0 10 6 14 14 11 14
-6 36 10 36 27 0 5 -6 2 -13 -8 -12 -16 -14 -17 -27 -1 -10 12 -10 19 -2 27
17 17 15 32 -8 45 -16 11 -21 10 -30 -7z"/>
<path d="M1302 1670 c-14 -23 -16 -66 -3 -74 5 -3 11 1 14 8 3 8 1 17 -6 20
-7 2 1 5 16 5 16 1 26 -3 22 -9 -3 -5 -1 -10 5 -10 7 0 10 7 7 15 -4 8 -2 17
3 20 17 11 12 38 -6 31 -9 -4 -22 -2 -28 3 -8 7 -16 4 -24 -9z"/>
<path d="M1126 1653 c-6 -14 -5 -15 5 -6 7 7 10 15 7 18 -3 3 -9 -2 -12 -12z"/>
<path d="M1383 1635 c0 -8 4 -15 9 -15 4 0 8 7 8 15 0 8 -4 15 -8 15 -5 0 -9
-7 -9 -15z"/>
<path d="M1291 1571 c-8 -6 -11 -16 -6 -31 5 -15 4 -20 -4 -16 -6 4 -11 2 -11
-3 0 -22 36 -8 63 25 l29 34 -29 0 c-15 0 -34 -4 -42 -9z"/>
<path d="M107 1041 c-3 -14 -1 -18 9 -14 16 6 18 19 5 27 -5 3 -11 -3 -14 -13z"/>
<path d="M118 1016 c-10 -7 -18 -20 -18 -29 0 -11 6 -14 18 -10 29 10 41 24
35 39 -6 17 -13 17 -35 0z"/>
<path d="M114 945 c-10 -8 -14 -15 -8 -15 6 0 17 7 24 15 16 19 9 19 -16 0z"/>
</g>
</svg>
