<?xml version="1.0" encoding="UTF-8"?>
<!DOCTYPE svg PUBLIC "-//W3C//DTD SVG 1.1//EN" "http://www.w3.org/Graphics/SVG/1.1/DTD/svg11.dtd">
<svg xmlns="http://www.w3.org/2000/svg" version="1.1" width="200px" height="200px" style="shape-rendering:geometricPrecision; text-rendering:geometricPrecision; image-rendering:optimizeQuality; fill-rule:evenodd; clip-rule:evenodd" xmlns:xlink="http://www.w3.org/1999/xlink">
<g><path style="opacity:0.999" fill="#070707" d="M 100.5,6.5 C 99.2102,7.93476 97.5435,8.93476 95.5,9.5C 97.522,12.3557 100.022,14.689 103,16.5C 103.333,18.1667 103.667,19.8333 104,21.5C 105.609,22.1466 107.109,22.98 108.5,24C 105.808,24.4298 103.141,24.2631 100.5,23.5C 101.167,25.5 101.833,27.5 102.5,29.5C 106.127,30.2796 109.46,31.7796 112.5,34C 114.155,35.4443 114.822,37.2776 114.5,39.5C 113.77,43.0306 113.104,46.6973 112.5,50.5C 113.325,51.3857 114.325,51.719 115.5,51.5C 115.5,50.5 115.5,49.5 115.5,48.5C 117.5,46.1667 119.5,43.8333 121.5,41.5C 120.632,45.0882 119.298,48.5882 117.5,52C 117.85,53.2575 118.517,53.5908 119.5,53C 120.488,50.833 121.821,48.9997 123.5,47.5C 124.568,48.4345 125.901,48.7678 127.5,48.5C 126.937,54.4389 129.603,57.9389 135.5,59C 133.912,62.5749 134.912,63.7416 138.5,62.5C 139.747,60.677 140.414,58.677 140.5,56.5C 137.245,56.9864 134.578,55.9864 132.5,53.5C 131.859,51.7045 130.859,50.2045 129.5,49C 130.381,48.2917 131.047,47.4584 131.5,46.5C 134.268,44.9128 136.935,43.0795 139.5,41C 140.928,40.4209 142.262,40.5876 143.5,41.5C 145.833,42.1667 148.167,42.8333 150.5,43.5C 149.314,44.7054 149.314,46.0387 150.5,47.5C 151.5,48.1667 152.5,48.8333 153.5,49.5C 154.806,50.4674 155.473,51.8007 155.5,53.5C 156.5,53.5 157.5,53.5 158.5,53.5C 158.473,51.8007 157.806,50.4674 156.5,49.5C 155.909,48.8485 155.243,48.1818 154.5,47.5C 155.95,46.1502 156.617,44.4835 156.5,42.5C 154.833,42.5 153.167,42.5 151.5,42.5C 152.815,41.1054 152.481,40.1054 150.5,39.5C 150.923,38.7354 151.257,37.9021 151.5,37C 149.873,34.2362 148.54,31.4029 147.5,28.5C 145.396,28.7989 143.396,28.4656 141.5,27.5C 140.307,25.4733 138.64,23.9733 136.5,23C 131.975,21.2471 127.308,19.7471 122.5,18.5C 120.167,18.1667 119.833,17.1667 121.5,15.5C 118.226,14.5298 115.226,13.0298 112.5,11C 111.167,10.3333 111.167,9.66667 112.5,9C 116.524,8.50267 120.524,8.66934 124.5,9.5C 130.404,12.4518 136.404,15.4518 142.5,18.5C 145.566,20.8899 148.9,22.8899 152.5,24.5C 152.833,24.5 153.167,24.5 153.5,24.5C 157.411,30.0819 162.077,35.0819 167.5,39.5C 167.738,41.4044 168.738,42.7377 170.5,43.5C 170.427,45.0269 171.094,46.0269 172.5,46.5C 172.427,48.0269 173.094,49.0269 174.5,49.5C 174.427,51.0269 175.094,52.0269 176.5,52.5C 179.12,60.701 182.12,68.701 185.5,76.5C 186.451,77.9187 186.784,79.5853 186.5,81.5C 186.336,84.1873 186.503,86.854 187,89.5C 187.278,90.4158 187.778,91.0825 188.5,91.5C 188.5,97.5 188.5,103.5 188.5,109.5C 187.288,110.23 186.288,111.23 185.5,112.5C 183.657,106.791 179.99,105.124 174.5,107.5C 173.314,108.705 173.314,110.039 174.5,111.5C 174.351,112.552 174.517,113.552 175,114.5C 179.078,116.936 182.578,119.936 185.5,123.5C 185.567,124.959 185.234,126.292 184.5,127.5C 183.009,127.901 181.342,128.068 179.5,128C 178.572,128.388 177.905,129.055 177.5,130C 178.167,131.667 178.833,133.333 179.5,135C 178.258,136.651 177.424,138.485 177,140.5C 174.547,137.515 171.547,136.848 168,138.5C 167.333,139.833 167.333,141.167 168,142.5C 170.739,143.616 173.239,144.949 175.5,146.5C 172.605,151.899 168.771,156.566 164,160.5C 163.51,161.793 163.343,163.127 163.5,164.5C 163.167,165.5 162.5,166.167 161.5,166.5C 160.5,166.5 159.5,166.5 158.5,166.5C 158.5,167.5 158.5,168.5 158.5,169.5C 151.866,176.787 143.866,182.12 134.5,185.5C 130.668,185.882 127.335,187.215 124.5,189.5C 116.518,192.218 108.185,193.552 99.5,193.5C 92.1907,193.694 85.1907,192.694 78.5,190.5C 72.7639,187.638 66.7639,185.304 60.5,183.5C 58.847,183.34 57.5137,182.674 56.5,181.5C 56.0269,180.094 55.0269,179.427 53.5,179.5C 53.0269,178.094 52.0269,177.427 50.5,177.5C 49.7377,175.738 48.4044,174.738 46.5,174.5C 44.1002,171.097 41.1002,168.43 37.5,166.5C 36.8333,163.167 34.8333,161.167 31.5,160.5C 31.5,160.167 31.5,159.833 31.5,159.5C 31.5,157.5 30.5,156.5 28.5,156.5C 28.5,156.167 28.5,155.833 28.5,155.5C 27.8645,153.205 26.5311,151.539 24.5,150.5C 24.5,150.167 24.5,149.833 24.5,149.5C 22.8815,145.931 21.5481,142.264 20.5,138.5C 21.4959,138.586 22.3292,138.252 23,137.5C 23.4365,134.228 25.2699,132.561 28.5,132.5C 28.719,131.325 28.3857,130.325 27.5,129.5C 25.2062,128.294 22.8728,127.294 20.5,126.5C 20.5,129.167 20.5,131.833 20.5,134.5C 19.7321,135.263 19.2321,136.263 19,137.5C 18.0657,134.864 17.2324,132.197 16.5,129.5C 17.6511,127.675 18.3178,125.675 18.5,123.5C 14.6157,123.942 12.6157,122.275 12.5,118.5C 12.1936,115.615 12.5269,112.948 13.5,110.5C 15.1405,113.528 15.9738,116.861 16,120.5C 16.6708,121.252 17.5041,121.586 18.5,121.5C 20.6382,121.938 22.9715,122.105 25.5,122C 23.4078,122.953 23.0745,124.286 24.5,126C 26.6775,127.202 29.0108,127.702 31.5,127.5C 30.1667,125.167 30.1667,122.833 31.5,120.5C 30.0695,120.421 28.7362,120.754 27.5,121.5C 26.8503,119.816 25.8503,118.483 24.5,117.5C 24.1667,117.5 23.8333,117.5 23.5,117.5C 24.8001,116.173 26.1335,114.84 27.5,113.5C 25.0251,113.036 23.0251,112.036 21.5,110.5C 23.6112,111.742 25.6112,111.742 27.5,110.5C 28.1614,109.282 28.8281,107.949 29.5,106.5C 30.1067,106.624 30.44,106.957 30.5,107.5C 29.962,109.117 29.6287,110.784 29.5,112.5C 31.1667,112.5 32.8333,112.5 34.5,112.5C 34.3713,110.784 34.038,109.117 33.5,107.5C 32.8333,106.833 32.1667,106.167 31.5,105.5C 32.7181,103.668 32.0514,102.668 29.5,102.5C 31.4931,101.528 31.8264,100.195 30.5,98.5C 32.9496,98.702 35.283,98.3686 37.5,97.5C 38.4674,98.8062 39.8007,99.4729 41.5,99.5C 40.9035,97.602 40.9035,95.9354 41.5,94.5C 41.8333,95.1667 42.1667,95.8333 42.5,96.5C 46.5228,98.5305 48.8561,97.1972 49.5,92.5C 48.8118,91.1451 47.8118,90.1451 46.5,89.5C 46.5,89.1667 46.5,88.8333 46.5,88.5C 49.5,87.8333 52.5,87.1667 55.5,86.5C 57.337,86.3605 57.6704,85.6939 56.5,84.5C 53.9795,83.2147 51.3128,82.5481 48.5,82.5C 48.5,82.1667 48.5,81.8333 48.5,81.5C 48.5858,80.5041 48.2524,79.6708 47.5,79C 52.0904,78.8634 56.0904,77.3634 59.5,74.5C 60.4916,74.3284 61.1583,74.6618 61.5,75.5C 60.596,76.209 60.2627,77.209 60.5,78.5C 62.5,78.5 64.5,78.5 66.5,78.5C 66.6751,81.3289 65.3418,82.9955 62.5,83.5C 65.4033,84.9044 68.0699,84.571 70.5,82.5C 71.521,83.0016 71.6877,83.6683 71,84.5C 66.6456,87.1813 62.1456,89.6813 57.5,92C 55.8659,92.4935 54.1992,92.6602 52.5,92.5C 52.5391,94.3588 51.7058,95.6921 50,96.5C 49.5065,98.1341 49.3398,99.8008 49.5,101.5C 47.8762,101.36 46.7096,102.027 46,103.5C 44.7873,106.768 44.454,110.101 45,113.5C 45.7504,114.126 46.5838,114.626 47.5,115C 46.572,115.388 45.9054,116.055 45.5,117C 50.9859,124.132 57.9859,129.465 66.5,133C 68,134.5 69.5,136 71,137.5C 74.7912,145.54 77.7912,153.873 80,162.5C 80.3076,163.308 80.8076,163.975 81.5,164.5C 82.0997,162.424 82.433,160.424 82.5,158.5C 83.7681,160.304 84.4348,162.304 84.5,164.5C 85.5,164.5 86.5,164.5 87.5,164.5C 84.6951,156.343 82.5284,148.009 81,139.5C 79.1551,136.817 76.6551,135.15 73.5,134.5C 70.7455,129.992 68.2455,125.326 66,120.5C 65.2496,119.874 64.4162,119.374 63.5,119C 65.6091,118.093 66.9424,116.593 67.5,114.5C 71.7541,109.716 76.2541,105.049 81,100.5C 81.3333,99.1667 81.6667,97.8333 82,96.5C 86.0355,93.0959 87.8688,88.7626 87.5,83.5C 84.5611,83.918 82.2278,85.418 80.5,88C 78.1667,89.1667 75.8333,90.3333 73.5,91.5C 72.2291,89.1937 72.5624,87.1937 74.5,85.5C 75.4728,84.2086 76.4728,84.2086 77.5,85.5C 78.5223,85.1445 79.189,84.4778 79.5,83.5C 80.6697,81.7215 82.3364,80.7215 84.5,80.5C 84.5045,76.4659 84.8379,72.4659 85.5,68.5C 86.4794,65.3752 86.8128,62.0419 86.5,58.5C 87.963,61.2026 88.7963,64.2026 89,67.5C 89.1733,73.0158 89.6733,78.3491 90.5,83.5C 90.7521,86.2438 90.0855,88.7438 88.5,91C 90.0588,95.5673 91.3921,100.067 92.5,104.5C 92.5,105.167 92.8333,105.5 93.5,105.5C 96.6539,109.689 98.4873,109.022 99,103.5C 99.611,93.502 100.111,83.502 100.5,73.5C 100.5,72.5 100.5,71.5 100.5,70.5C 101.451,69.0813 101.784,67.4147 101.5,65.5C 102.5,65.5 103.5,65.5 104.5,65.5C 104.5,63.8333 104.5,62.1667 104.5,60.5C 105.531,59.7515 106.698,59.0848 108,58.5C 108.313,53.8415 108.48,49.3415 108.5,45C 107.87,40.6308 106.037,39.7974 103,42.5C 102.764,40.8807 101.931,39.8807 100.5,39.5C 98.0314,38.6829 95.3647,38.1829 92.5,38C 92.0426,37.586 91.7093,37.086 91.5,36.5C 92.5,35.5 93.5,34.5 94.5,33.5C 95.4154,35.9803 96.9154,36.6469 99,35.5C 99.6667,33.1667 99.6667,30.8333 99,28.5C 98.1841,27.1772 97.0174,26.5106 95.5,26.5C 95.5,26.1667 95.5,25.8333 95.5,25.5C 95.67,24.1779 95.3366,23.0113 94.5,22C 95.7014,21.0975 96.5348,19.9308 97,18.5C 98.813,19.6091 99.6463,18.9424 99.5,16.5C 97.6916,16.5086 96.0249,16.0086 94.5,15C 93.1741,12.8416 91.5075,11.0082 89.5,9.5C 88.6143,10.325 88.281,11.325 88.5,12.5C 86.8561,12.2865 85.3561,12.6198 84,13.5C 82.2658,11.5494 80.0991,10.5494 77.5,10.5C 77.5,10.1667 77.5,9.83333 77.5,9.5C 84.9831,7.43937 92.6497,6.43937 100.5,6.5 Z"/></g>
<g><path style="opacity:0.776" fill="#b7b7b7" d="M 100.5,5.5 C 100.5,5.83333 100.5,6.16667 100.5,6.5C 92.6497,6.43937 84.9831,7.43937 77.5,9.5C 74.5979,10.5778 71.5979,11.2444 68.5,11.5C 78.5519,6.9331 89.2185,4.9331 100.5,5.5 Z"/></g>
<g><path style="opacity:1" fill="#0d0d0d" d="M 77.5,9.5 C 77.5,9.83333 77.5,10.1667 77.5,10.5C 77.3832,12.4835 78.0499,14.1502 79.5,15.5C 79.1667,15.8333 78.8333,16.1667 78.5,16.5C 75.148,17.226 71.8147,18.0593 68.5,19C 67.572,19.3879 66.9054,20.0546 66.5,21C 68.626,23.414 69.9594,26.2473 70.5,29.5C 75.4445,30.776 78.6111,28.776 80,23.5C 80.956,24.5786 81.7894,25.7453 82.5,27C 79.0696,28.675 78.0696,31.175 79.5,34.5C 79.7373,35.791 79.404,36.791 78.5,37.5C 75.0927,35.3462 71.4261,33.6795 67.5,32.5C 67.6567,33.8734 67.49,35.2068 67,36.5C 65.2658,34.5494 63.0991,33.5494 60.5,33.5C 60.5,34.5 60.5,35.5 60.5,36.5C 59.5,36.5 58.5,36.5 57.5,36.5C 57.2161,39.7766 57.5495,42.9433 58.5,46C 60.1124,46.7203 61.6124,46.5536 63,45.5C 62.7821,43.4132 62.9488,41.4132 63.5,39.5C 65.7548,41.7187 67.7548,44.052 69.5,46.5C 72.1132,50.4804 74.7799,50.4804 77.5,46.5C 78.9063,46.0269 79.573,45.0269 79.5,43.5C 80.404,42.791 80.7373,41.791 80.5,40.5C 79.448,40.6495 78.448,40.4828 77.5,40C 79.0664,39.3918 80.3998,38.5585 81.5,37.5C 82.8118,36.8549 83.8118,35.8549 84.5,34.5C 83.9478,32.9974 83.9478,31.3307 84.5,29.5C 85.8221,29.67 86.9887,29.3366 88,28.5C 88.4955,26.5273 88.6621,24.5273 88.5,22.5C 91.0384,23.0427 93.3718,24.0427 95.5,25.5C 95.5,25.8333 95.5,26.1667 95.5,26.5C 93.1657,29.1543 90.1657,30.4876 86.5,30.5C 86.4326,31.9587 86.7659,33.2921 87.5,34.5C 86.1152,37.8515 86.4485,41.1849 88.5,44.5C 86.7829,48.9966 86.1162,53.6632 86.5,58.5C 86.8128,62.0419 86.4794,65.3752 85.5,68.5C 84.8365,55.5067 84.0032,55.84 83,69.5C 82.19,73.7869 80.3567,77.4536 77.5,80.5C 76.7784,80.9175 76.2784,81.5842 76,82.5C 75.5357,81.9056 75.369,81.2389 75.5,80.5C 77.1498,75.6228 78.4831,70.6228 79.5,65.5C 78.5,65.5 77.5,65.5 76.5,65.5C 75.8333,64.8333 75.1667,64.1667 74.5,63.5C 72.6954,62.7629 71.0287,61.7629 69.5,60.5C 66.762,65.4068 62.9286,69.0734 58,71.5C 55.4853,71.1583 53.652,69.8249 52.5,67.5C 48.4378,65.7967 44.4378,64.1301 40.5,62.5C 40.6633,64.8568 40.4966,67.1902 40,69.5C 38.6107,65.7279 37.6107,65.7279 37,69.5C 35.1917,67.6041 33.025,67.1041 30.5,68C 29.5229,70.6024 28.3563,73.1024 27,75.5C 26.5038,73.9651 26.6705,72.4651 27.5,71C 26.8626,69.2874 25.8626,69.1207 24.5,70.5C 21.9553,65.0123 20.2887,65.3456 19.5,71.5C 19.1484,73.9241 20.1484,75.4241 22.5,76C 21.2068,76.49 19.8734,76.6567 18.5,76.5C 17.596,77.209 17.2627,78.209 17.5,79.5C 16.0222,79.762 14.6888,79.4287 13.5,78.5C 15.3109,71.7374 17.3109,65.0708 19.5,58.5C 20.3764,58.6309 21.0431,58.2975 21.5,57.5C 23.5128,53.1076 25.5128,48.7743 27.5,44.5C 31.468,40.3605 35.3013,36.0272 39,31.5C 43.3602,27.9681 47.5268,24.3014 51.5,20.5C 54.1979,20.1551 56.1979,18.8218 57.5,16.5C 60.3126,16.9754 62.3126,15.9754 63.5,13.5C 65.698,13.8799 67.3646,13.2132 68.5,11.5C 71.5979,11.2444 74.5979,10.5778 77.5,9.5 Z"/></g>
<g><path style="opacity:0.965" fill="#a8a8a8" d="M 68.5,11.5 C 67.3646,13.2132 65.698,13.8799 63.5,13.5C 64.7804,12.0687 66.4471,11.4021 68.5,11.5 Z"/></g>
<g><path style="opacity:1" fill="#e5e5e5" d="M 95.5,25.5 C 93.3718,24.0427 91.0384,23.0427 88.5,22.5C 88.6621,24.5273 88.4955,26.5273 88,28.5C 86.9887,29.3366 85.8221,29.67 84.5,29.5C 83.9478,31.3307 83.9478,32.9974 84.5,34.5C 83.8118,35.8549 82.8118,36.8549 81.5,37.5C 80.8333,36.5 80.1667,35.5 79.5,34.5C 78.0696,31.175 79.0696,28.675 82.5,27C 81.7894,25.7453 80.956,24.5786 80,23.5C 78.6111,28.776 75.4445,30.776 70.5,29.5C 69.9594,26.2473 68.626,23.414 66.5,21C 66.9054,20.0546 67.572,19.3879 68.5,19C 71.8147,18.0593 75.148,17.226 78.5,16.5C 78.8333,16.1667 79.1667,15.8333 79.5,15.5C 78.0499,14.1502 77.3832,12.4835 77.5,10.5C 80.0991,10.5494 82.2658,11.5494 84,13.5C 85.3561,12.6198 86.8561,12.2865 88.5,12.5C 88.281,11.325 88.6143,10.325 89.5,9.5C 91.5075,11.0082 93.1741,12.8416 94.5,15C 96.0249,16.0086 97.6916,16.5086 99.5,16.5C 99.6463,18.9424 98.813,19.6091 97,18.5C 96.5348,19.9308 95.7014,21.0975 94.5,22C 95.3366,23.0113 95.67,24.1779 95.5,25.5 Z"/></g>
<g><path style="opacity:0.718" fill="#c5c5c5" d="M 124.5,9.5 C 131.938,10.9713 138.604,13.9713 144.5,18.5C 143.833,18.5 143.167,18.5 142.5,18.5C 136.404,15.4518 130.404,12.4518 124.5,9.5 Z"/></g>
<g><path style="opacity:0.988" fill="#959595" d="M 63.5,13.5 C 62.3126,15.9754 60.3126,16.9754 57.5,16.5C 59.1815,14.9925 61.1815,13.9925 63.5,13.5 Z"/></g>
<g><path style="opacity:0.725" fill="#a6a6a6" d="M 57.5,16.5 C 56.1979,18.8218 54.1979,20.1551 51.5,20.5C 53.1475,18.6736 55.1475,17.3403 57.5,16.5 Z"/></g>
<g><path style="opacity:1" fill="#ececec" d="M 100.5,5.5 C 108.915,5.12454 116.915,6.45787 124.5,9.5C 120.524,8.66934 116.524,8.50267 112.5,9C 111.167,9.66667 111.167,10.3333 112.5,11C 115.226,13.0298 118.226,14.5298 121.5,15.5C 119.833,17.1667 120.167,18.1667 122.5,18.5C 127.308,19.7471 131.975,21.2471 136.5,23C 138.64,23.9733 140.307,25.4733 141.5,27.5C 143.396,28.4656 145.396,28.7989 147.5,28.5C 148.54,31.4029 149.873,34.2362 151.5,37C 151.257,37.9021 150.923,38.7354 150.5,39.5C 148.721,41.3435 146.388,42.0102 143.5,41.5C 142.262,40.5876 140.928,40.4209 139.5,41C 136.935,43.0795 134.268,44.9128 131.5,46.5C 129.302,46.5912 128.969,45.9245 130.5,44.5C 131.932,42.6729 133.599,41.0063 135.5,39.5C 133.484,38.3058 131.484,38.3058 129.5,39.5C 128.793,41.2307 127.793,42.8974 126.5,44.5C 127.523,46.8948 126.523,47.8948 123.5,47.5C 122.659,45.6208 122.325,43.6208 122.5,41.5C 123.822,39.6889 124.322,37.6889 124,35.5C 121.961,36.9783 121.128,38.9783 121.5,41.5C 119.5,43.8333 117.5,46.1667 115.5,48.5C 114.523,45.7131 114.19,42.7131 114.5,39.5C 114.822,37.2776 114.155,35.4443 112.5,34C 109.46,31.7796 106.127,30.2796 102.5,29.5C 101.833,27.5 101.167,25.5 100.5,23.5C 103.141,24.2631 105.808,24.4298 108.5,24C 107.109,22.98 105.609,22.1466 104,21.5C 103.667,19.8333 103.333,18.1667 103,16.5C 100.022,14.689 97.522,12.3557 95.5,9.5C 97.5435,8.93476 99.2102,7.93476 100.5,6.5C 100.5,6.16667 100.5,5.83333 100.5,5.5 Z"/></g>
<g><path style="opacity:1" fill="#585858" d="M 111.5,17.5 C 113.465,17.9483 113.798,18.9483 112.5,20.5C 111.614,19.675 111.281,18.675 111.5,17.5 Z"/></g>
<g><path style="opacity:1" fill="#111111" d="M 105.5,11.5 C 113.337,12.8531 113.337,14.5197 105.5,16.5C 104.929,14.64 104.929,12.9733 105.5,11.5 Z"/></g>
<g><path style="opacity:0.875" fill="#818181" d="M 142.5,18.5 C 143.167,18.5 143.833,18.5 144.5,18.5C 147.563,20.0252 150.23,22.0252 152.5,24.5C 148.9,22.8899 145.566,20.8899 142.5,18.5 Z"/></g>
<g><path style="opacity:1" fill="#0c0c0c" d="M 119.5,23.5 C 118.272,24.3065 117.272,25.3065 116.5,26.5C 115.378,24.7116 115.211,22.7116 116,20.5C 118.321,19.6387 119.487,20.6387 119.5,23.5 Z"/></g>
<g><path style="opacity:1" fill="#d7d7d7" d="M 60.5,21.5 C 63.3404,22.4234 65.6737,24.0901 67.5,26.5C 66.8333,26.8333 66.1667,27.1667 65.5,27.5C 63.5,26.5 61.5,25.5 59.5,24.5C 60.1272,23.5832 60.4606,22.5832 60.5,21.5 Z"/></g>
<g><path style="opacity:1" fill="#b6b6b6" d="M 53.5,22.5 C 55.8418,22.7748 55.8418,23.6081 53.5,25C 52.5,25.6667 51.5,25.6667 50.5,25C 51.5707,24.1482 52.5707,23.3149 53.5,22.5 Z"/></g>
<g><path style="opacity:0.89" fill="#949494" d="M 51.5,20.5 C 47.5268,24.3014 43.3602,27.9681 39,31.5C 35.3013,36.0272 31.468,40.3605 27.5,44.5C 33.2808,34.2634 41.2808,26.2634 51.5,20.5 Z"/></g>
<g><path style="opacity:1" fill="#e0e0e0" d="M 57.5,29.5 C 56.2905,29.9321 55.2905,30.5987 54.5,31.5C 53.1667,31.5 51.8333,31.5 50.5,31.5C 50.7165,28.1133 52.5498,26.1133 56,25.5C 59.6151,26.1898 60.1151,27.5231 57.5,29.5 Z"/></g>
<g><path style="opacity:0.871" fill="#7a7a7a" d="M 153.5,24.5 C 156.833,27.5 160.167,30.5 163.5,33.5C 165.252,35.2459 166.585,37.2459 167.5,39.5C 162.077,35.0819 157.411,30.0819 153.5,24.5 Z"/></g>
<g><path style="opacity:1" fill="#181818" d="M 136.5,31.5 C 134.389,32.7416 132.389,32.7416 130.5,31.5C 130.685,29.1104 132.018,28.1104 134.5,28.5C 137.239,28.5474 137.905,29.5474 136.5,31.5 Z"/></g>
<g><path style="opacity:1" fill="#797979" d="M 119.5,23.5 C 119.178,25.7224 119.845,27.5557 121.5,29C 119.924,29.4396 118.59,30.273 117.5,31.5C 116.406,30.132 116.74,28.9653 118.5,28C 117.584,27.7216 116.918,27.2216 116.5,26.5C 117.272,25.3065 118.272,24.3065 119.5,23.5 Z"/></g>
<g><path style="opacity:1" fill="#5f5f5f" d="M 57.5,29.5 C 59.9038,32.5179 58.9038,34.1846 54.5,34.5C 54.5,33.5 54.5,32.5 54.5,31.5C 55.2905,30.5987 56.2905,29.9321 57.5,29.5 Z"/></g>
<g><path style="opacity:1" fill="#f3f3f3" d="M 100.5,39.5 C 101.931,39.8807 102.764,40.8807 103,42.5C 106.037,39.7974 107.87,40.6308 108.5,45C 108.48,49.3415 108.313,53.8415 108,58.5C 106.698,59.0848 105.531,59.7515 104.5,60.5C 103.566,61.5676 103.232,62.901 103.5,64.5C 102.5,64.5 101.5,64.5 100.5,64.5C 100.5,66.5 100.5,68.5 100.5,70.5C 100.5,71.5 100.5,72.5 100.5,73.5C 98.9314,83.9708 97.9314,94.6374 97.5,105.5C 96.1667,105.5 94.8333,105.5 93.5,105.5C 92.8333,105.5 92.5,105.167 92.5,104.5C 92.8344,99.6738 91.8344,95.1738 89.5,91C 90.6582,89.9914 91.3248,88.6581 91.5,87C 91.4857,85.6153 91.1524,84.4486 90.5,83.5C 89.6733,78.3491 89.1733,73.0158 89,67.5C 88.7963,64.2026 87.963,61.2026 86.5,58.5C 86.1162,53.6632 86.7829,48.9966 88.5,44.5C 86.4485,41.1849 86.1152,37.8515 87.5,34.5C 88.0736,33.4719 88.407,32.4719 88.5,31.5C 89.7289,33.923 90.7289,36.423 91.5,39C 94.4816,39.498 97.4816,39.6646 100.5,39.5 Z"/></g>
<g><path style="opacity:0.004" fill="#9fa09f" d="M 163.5,32.5 C 164.833,33.1667 164.833,33.1667 163.5,32.5 Z"/></g>
<g><path style="opacity:1" fill="#7d7d7d" d="M 130.5,31.5 C 132.389,32.7416 134.389,32.7416 136.5,31.5C 136.719,32.675 136.386,33.675 135.5,34.5C 134.264,33.7542 132.93,33.4208 131.5,33.5C 131.719,34.675 131.386,35.675 130.5,36.5C 129.212,34.7015 129.212,33.0348 130.5,31.5 Z"/></g>
<g><path style="opacity:1" fill="#e5e5e5" d="M 78.5,37.5 C 77.1938,38.4674 76.5271,39.8007 76.5,41.5C 78.1788,41.2852 79.1788,41.9519 79.5,43.5C 79.573,45.0269 78.9063,46.0269 77.5,46.5C 76.5041,46.5858 75.6708,46.2524 75,45.5C 74.7508,46.624 74.2508,47.624 73.5,48.5C 72.3777,47.3698 71.0443,46.7031 69.5,46.5C 67.7548,44.052 65.7548,41.7187 63.5,39.5C 62.9488,41.4132 62.7821,43.4132 63,45.5C 61.6124,46.5536 60.1124,46.7203 58.5,46C 57.5495,42.9433 57.2161,39.7766 57.5,36.5C 58.5,36.5 59.5,36.5 60.5,36.5C 60.5,35.5 60.5,34.5 60.5,33.5C 63.0991,33.5494 65.2658,34.5494 67,36.5C 67.49,35.2068 67.6567,33.8734 67.5,32.5C 71.4261,33.6795 75.0927,35.3462 78.5,37.5 Z"/></g>
<g><path style="opacity:1" fill="#131313" d="M 122.5,41.5 C 122.167,41.5 121.833,41.5 121.5,41.5C 121.128,38.9783 121.961,36.9783 124,35.5C 124.322,37.6889 123.822,39.6889 122.5,41.5 Z"/></g>
<g><path style="opacity:1" fill="#cacaca" d="M 95.5,26.5 C 97.0174,26.5106 98.1841,27.1772 99,28.5C 99.6667,30.8333 99.6667,33.1667 99,35.5C 96.9154,36.6469 95.4154,35.9803 94.5,33.5C 93.5,34.5 92.5,35.5 91.5,36.5C 91.7093,37.086 92.0426,37.586 92.5,38C 95.3647,38.1829 98.0314,38.6829 100.5,39.5C 97.4816,39.6646 94.4816,39.498 91.5,39C 90.7289,36.423 89.7289,33.923 88.5,31.5C 88.407,32.4719 88.0736,33.4719 87.5,34.5C 86.7659,33.2921 86.4326,31.9587 86.5,30.5C 90.1657,30.4876 93.1657,29.1543 95.5,26.5 Z"/></g>
<g><path style="opacity:1" fill="#9e9e9e" d="M 79.5,34.5 C 80.1667,35.5 80.8333,36.5 81.5,37.5C 80.3998,38.5585 79.0664,39.3918 77.5,40C 78.448,40.4828 79.448,40.6495 80.5,40.5C 80.7373,41.791 80.404,42.791 79.5,43.5C 79.1788,41.9519 78.1788,41.2852 76.5,41.5C 76.5271,39.8007 77.1938,38.4674 78.5,37.5C 79.404,36.791 79.7373,35.791 79.5,34.5 Z"/></g>
<g><path style="opacity:1" fill="#202020" d="M 130.5,44.5 C 129.549,43.0813 129.216,41.4147 129.5,39.5C 131.484,38.3058 133.484,38.3058 135.5,39.5C 133.599,41.0063 131.932,42.6729 130.5,44.5 Z"/></g>
<g><path style="opacity:1" fill="#5b5b5b" d="M 150.5,39.5 C 152.481,40.1054 152.815,41.1054 151.5,42.5C 151.5,43.1667 151.167,43.5 150.5,43.5C 148.167,42.8333 145.833,42.1667 143.5,41.5C 146.388,42.0102 148.721,41.3435 150.5,39.5 Z"/></g>
<g><path style="opacity:0.816" fill="#a1a1a1" d="M 167.5,39.5 C 169.262,40.2623 170.262,41.5956 170.5,43.5C 168.738,42.7377 167.738,41.4044 167.5,39.5 Z"/></g>
<g><path style="opacity:1" fill="#dadada" d="M 151.5,42.5 C 153.167,42.5 154.833,42.5 156.5,42.5C 156.617,44.4835 155.95,46.1502 154.5,47.5C 155.243,48.1818 155.909,48.8485 156.5,49.5C 155.5,49.5 154.5,49.5 153.5,49.5C 152.5,48.8333 151.5,48.1667 150.5,47.5C 149.314,46.0387 149.314,44.7054 150.5,43.5C 151.167,43.5 151.5,43.1667 151.5,42.5 Z"/></g>
<g><path style="opacity:0.686" fill="#a1a1a1" d="M 170.5,43.5 C 171.906,43.9731 172.573,44.9731 172.5,46.5C 171.094,46.0269 170.427,45.0269 170.5,43.5 Z"/></g>
<g><path style="opacity:1" fill="#4f4f4f" d="M 93.5,41.5 C 94.6935,41.9704 95.3601,42.9704 95.5,44.5C 95.1667,45.5 94.8333,46.5 94.5,47.5C 93.5344,45.604 93.2011,43.604 93.5,41.5 Z"/></g>
<g><path style="opacity:1" fill="#848484" d="M 114.5,39.5 C 114.19,42.7131 114.523,45.7131 115.5,48.5C 115.5,49.5 115.5,50.5 115.5,51.5C 114.325,51.719 113.325,51.3857 112.5,50.5C 113.104,46.6973 113.77,43.0306 114.5,39.5 Z"/></g>
<g><path style="opacity:1" fill="#dedede" d="M 40.5,32.5 C 47.4117,33.1698 48.7451,36.0032 44.5,41C 40.6698,41.1789 38.5031,43.0122 38,46.5C 39.2051,47.0712 40.3717,47.7379 41.5,48.5C 40.8333,49.8333 40.1667,51.1667 39.5,52.5C 38.2243,53.6446 36.891,53.6446 35.5,52.5C 34.5,54.1667 33.1667,55.5 31.5,56.5C 28.9357,54.9813 28.9357,53.4813 31.5,52C 31.225,47.7222 33.0584,44.2222 37,41.5C 36.9134,37.9199 38.0801,34.9199 40.5,32.5 Z"/></g>
<g><path style="opacity:1" fill="#9f9f9f" d="M 121.5,41.5 C 121.833,41.5 122.167,41.5 122.5,41.5C 122.325,43.6208 122.659,45.6208 123.5,47.5C 121.821,48.9997 120.488,50.833 119.5,53C 118.517,53.5908 117.85,53.2575 117.5,52C 119.298,48.5882 120.632,45.0882 121.5,41.5 Z"/></g>
<g><path style="opacity:1" fill="#919191" d="M 77.5,46.5 C 74.7799,50.4804 72.1132,50.4804 69.5,46.5C 71.0443,46.7031 72.3777,47.3698 73.5,48.5C 74.2508,47.624 74.7508,46.624 75,45.5C 75.6708,46.2524 76.5041,46.5858 77.5,46.5 Z"/></g>
<g><path style="opacity:0.608" fill="#bdbdbd" d="M 172.5,46.5 C 173.906,46.9731 174.573,47.9731 174.5,49.5C 173.094,49.0269 172.427,48.0269 172.5,46.5 Z"/></g>
<g><path style="opacity:1" fill="#cccccc" d="M 83.5,42.5 C 85.2517,42.4176 86.2517,43.2509 86.5,45C 84.8639,49.0748 83.5306,53.2414 82.5,57.5C 81.675,58.3857 80.675,58.719 79.5,58.5C 79.6199,56.2655 79.2865,54.0989 78.5,52C 80.641,49.0723 82.3076,45.9056 83.5,42.5 Z"/></g>
<g><path style="opacity:1" fill="#b5b5b5" d="M 134.5,48.5 C 138.009,48.8079 139.676,50.8079 139.5,54.5C 135.686,54.3491 134.019,52.3491 134.5,48.5 Z"/></g>
<g><path style="opacity:1" fill="#b5b5b5" d="M 150.5,47.5 C 150.762,48.9778 150.429,50.3112 149.5,51.5C 149.167,50.8333 148.833,50.1667 148.5,49.5C 148.747,48.2867 149.414,47.62 150.5,47.5 Z"/></g>
<g><path style="opacity:1" fill="#a8a8a8" d="M 51.5,49.5 C 52.5,49.5 53.5,49.5 54.5,49.5C 54.5,50.5 54.5,51.5 54.5,52.5C 53.5,52.5 52.5,52.5 51.5,52.5C 51.5,51.5 51.5,50.5 51.5,49.5 Z"/></g>
<g><path style="opacity:1" fill="#6f6f6f" d="M 153.5,49.5 C 154.5,49.5 155.5,49.5 156.5,49.5C 157.806,50.4674 158.473,51.8007 158.5,53.5C 157.5,53.5 156.5,53.5 155.5,53.5C 155.473,51.8007 154.806,50.4674 153.5,49.5 Z"/></g>
<g><path style="opacity:0.384" fill="#cdcdcd" d="M 174.5,49.5 C 175.906,49.9731 176.573,50.9731 176.5,52.5C 175.094,52.0269 174.427,51.0269 174.5,49.5 Z"/></g>
<g><path style="opacity:1" fill="#cfcfcf" d="M 58.5,50.5 C 61.6209,51.6581 64.4542,53.3248 67,55.5C 67.49,56.7932 67.6567,58.1266 67.5,59.5C 63.5,60.1667 61.8333,58.5 62.5,54.5C 61.1667,54.5 59.8333,54.5 58.5,54.5C 58.5,53.1667 58.5,51.8333 58.5,50.5 Z"/></g>
<g><path style="opacity:0.988" fill="#717171" d="M 27.5,44.5 C 25.5128,48.7743 23.5128,53.1076 21.5,57.5C 21.0431,58.2975 20.3764,58.6309 19.5,58.5C 21.1588,53.1734 23.8255,48.5067 27.5,44.5 Z"/></g>
<g><path style="opacity:0.976" fill="#aeaeae" d="M 176.5,52.5 C 181.058,59.8332 184.058,67.8332 185.5,76.5C 182.12,68.701 179.12,60.701 176.5,52.5 Z"/></g>
<g><path style="opacity:1" fill="#c4c4c4" d="M 129.5,39.5 C 129.216,41.4147 129.549,43.0813 130.5,44.5C 128.969,45.9245 129.302,46.5912 131.5,46.5C 131.047,47.4584 130.381,48.2917 129.5,49C 130.859,50.2045 131.859,51.7045 132.5,53.5C 134.578,55.9864 137.245,56.9864 140.5,56.5C 140.414,58.677 139.747,60.677 138.5,62.5C 134.912,63.7416 133.912,62.5749 135.5,59C 129.603,57.9389 126.937,54.4389 127.5,48.5C 125.901,48.7678 124.568,48.4345 123.5,47.5C 126.523,47.8948 127.523,46.8948 126.5,44.5C 127.793,42.8974 128.793,41.2307 129.5,39.5 Z"/></g>
<g><path style="opacity:1" fill="#989898" d="M 29.5,60.5 C 31.8852,61.8673 31.5518,63.2007 28.5,64.5C 28.1667,64 27.8333,63.5 27.5,63C 28.0556,61.9889 28.7222,61.1556 29.5,60.5 Z"/></g>
<g><path style="opacity:1" fill="#858585" d="M 104.5,60.5 C 104.5,62.1667 104.5,63.8333 104.5,65.5C 103.5,65.5 102.5,65.5 101.5,65.5C 101.784,67.4147 101.451,69.0813 100.5,70.5C 100.5,68.5 100.5,66.5 100.5,64.5C 101.5,64.5 102.5,64.5 103.5,64.5C 103.232,62.901 103.566,61.5676 104.5,60.5 Z"/></g>
<g><path style="opacity:1" fill="#bababa" d="M 163.5,60.5 C 165.922,61.9923 166.588,63.9923 165.5,66.5C 163.717,64.9775 163.051,62.9775 163.5,60.5 Z"/></g>
<g><path style="opacity:0.878" fill="#8a8a8a" d="M 19.5,58.5 C 17.3109,65.0708 15.3109,71.7374 13.5,78.5C 14.6888,79.4287 16.0222,79.762 17.5,79.5C 17.427,81.0269 18.0937,82.0269 19.5,82.5C 17.8333,82.5 16.1667,82.5 14.5,82.5C 12.9519,82.1788 12.2852,81.1788 12.5,79.5C 13.4616,71.9484 15.7949,64.9484 19.5,58.5 Z"/></g>
<g><path style="opacity:1" fill="#606060" d="M 109.5,65.5 C 108.351,65.7911 107.684,66.6244 107.5,68C 107.684,69.3756 108.351,70.2089 109.5,70.5C 108.791,71.404 107.791,71.7373 106.5,71.5C 106.187,68.7531 106.52,66.0865 107.5,63.5C 108.522,63.8555 109.189,64.5222 109.5,65.5 Z"/></g>
<g><path style="opacity:1" fill="#c3c3c3" d="M 109.5,65.5 C 109.5,67.1667 109.5,68.8333 109.5,70.5C 108.351,70.2089 107.684,69.3756 107.5,68C 107.684,66.6244 108.351,65.7911 109.5,65.5 Z"/></g>
<g><path style="opacity:1" fill="#f2f2f2" d="M 121.5,67.5 C 122.167,67.5 122.5,67.8333 122.5,68.5C 122.5,69.8333 122.5,71.1667 122.5,72.5C 121.5,72.5 120.5,72.5 119.5,72.5C 119.077,70.2188 119.744,68.5521 121.5,67.5 Z"/></g>
<g><path style="opacity:1" fill="#6b6b6b" d="M 74.5,63.5 C 75.1667,64.1667 75.8333,64.8333 76.5,65.5C 74.8729,67.6298 73.0396,69.6298 71,71.5C 72.2758,69.0011 73.4424,66.3344 74.5,63.5 Z"/></g>
<g><path style="opacity:1" fill="#bbbbbb" d="M 142.5,63.5 C 144.97,66.0616 144.97,68.8949 142.5,72C 141.552,72.4828 140.552,72.6495 139.5,72.5C 140.759,69.634 141.759,66.634 142.5,63.5 Z"/></g>
<g><path style="opacity:1" fill="#c1c1c1" d="M 130.5,70.5 C 132.394,71.0476 134.06,72.0476 135.5,73.5C 132.167,75.2518 130.501,74.2518 130.5,70.5 Z"/></g>
<g><path style="opacity:1" fill="#e5e5e5" d="M 169.5,71.5 C 169.5,72.8333 169.5,74.1667 169.5,75.5C 168.209,75.2627 167.209,75.596 166.5,76.5C 167.648,80.2271 166.648,83.3938 163.5,86C 161.156,86.8372 159.156,88.1706 157.5,90C 154.522,90.696 151.522,91.196 148.5,91.5C 147.167,89.1667 145.833,86.8333 144.5,84.5C 147.799,85.3761 151.132,85.5428 154.5,85C 153.149,83.3829 151.482,82.2162 149.5,81.5C 155.154,80.5286 159.487,77.5286 162.5,72.5C 163.776,71.3554 165.109,71.3554 166.5,72.5C 167.243,71.0921 168.077,69.7588 169,68.5C 169.483,69.448 169.649,70.448 169.5,71.5 Z"/></g>
<g><path style="opacity:1" fill="#d7d7d7" d="M 85.5,68.5 C 84.8379,72.4659 84.5045,76.4659 84.5,80.5C 82.3364,80.7215 80.6697,81.7215 79.5,83.5C 77.9519,83.1788 77.2852,82.1788 77.5,80.5C 80.3567,77.4536 82.19,73.7869 83,69.5C 84.0032,55.84 84.8365,55.5067 85.5,68.5 Z"/></g>
<g><path style="opacity:1" fill="#cdcdcd" d="M 121.5,67.5 C 119.744,68.5521 119.077,70.2188 119.5,72.5C 120.5,72.5 121.5,72.5 122.5,72.5C 122.5,71.1667 122.5,69.8333 122.5,68.5C 124.147,72.629 125.48,76.9623 126.5,81.5C 125.833,81.5 125.167,81.5 124.5,81.5C 118.957,78.0886 116.957,73.0886 118.5,66.5C 119.791,66.2627 120.791,66.596 121.5,67.5 Z"/></g>
<g><path style="opacity:1" fill="#6a6a6a" d="M 169.5,71.5 C 170.451,72.9187 170.784,74.5853 170.5,76.5C 169.167,76.5 167.833,76.5 166.5,76.5C 167.209,75.596 168.209,75.2627 169.5,75.5C 169.5,74.1667 169.5,72.8333 169.5,71.5 Z"/></g>
<g><path style="opacity:1" fill="#b3b3b3" d="M 145.5,80.5 C 144.551,81.1524 143.385,81.4857 142,81.5C 140.027,81.6906 138.527,81.024 137.5,79.5C 140.657,74.8549 143.99,74.5216 147.5,78.5C 147.145,79.5223 146.478,80.189 145.5,80.5 Z"/></g>
<g><path style="opacity:1" fill="#5f5f5f" d="M 18.5,76.5 C 18.4326,77.9587 18.7659,79.2921 19.5,80.5C 19.5,80.8333 19.5,81.1667 19.5,81.5C 19.5,81.8333 19.5,82.1667 19.5,82.5C 18.0937,82.0269 17.427,81.0269 17.5,79.5C 17.2627,78.209 17.596,77.209 18.5,76.5 Z"/></g>
<g><path style="opacity:1" fill="#fbfbfb" d="M 145.5,80.5 C 143.473,80.6621 141.473,80.4955 139.5,80C 140.955,77.9838 142.955,77.1505 145.5,77.5C 145.5,78.5 145.5,79.5 145.5,80.5 Z"/></g>
<g><path style="opacity:1" fill="#b2b2b2" d="M 110.5,75.5 C 112.59,75.4501 113.923,76.4501 114.5,78.5C 112.219,79.2617 110.886,78.2617 110.5,75.5 Z"/></g>
<g><path style="opacity:0.95" fill="#efefef" d="M 12.5,79.5 C 12.2852,81.1788 12.9519,82.1788 14.5,82.5C 16.9145,84.34 18.5812,86.6733 19.5,89.5C 20.7514,90.472 20.418,91.1386 18.5,91.5C 16.9446,91.278 15.6113,90.6113 14.5,89.5C 15.1156,91.8391 16.7823,93.8391 19.5,95.5C 21.1157,97.4158 20.7823,98.9158 18.5,100C 21.5087,99.84 23.6754,101.007 25,103.5C 25.3826,102.944 25.8826,102.611 26.5,102.5C 27.5,102.5 28.5,102.5 29.5,102.5C 32.0514,102.668 32.7181,103.668 31.5,105.5C 30.1667,105.5 28.8333,105.5 27.5,105.5C 27.5,107.167 27.5,108.833 27.5,110.5C 25.6112,111.742 23.6112,111.742 21.5,110.5C 21.0237,108.934 20.357,108.6 19.5,109.5C 20.046,110.772 20.3793,112.106 20.5,113.5C 20.6198,115.588 21.6198,116.922 23.5,117.5C 23.8333,117.5 24.1667,117.5 24.5,117.5C 24.4142,118.496 24.7476,119.329 25.5,120C 23.1341,120.44 20.8008,120.94 18.5,121.5C 17.5041,121.586 16.6708,121.252 16,120.5C 15.9738,116.861 15.1405,113.528 13.5,110.5C 13.2172,109.711 12.7172,109.044 12,108.5C 11.5065,110.134 11.3398,111.801 11.5,113.5C 10.5166,109.702 10.1832,105.702 10.5,101.5C 13.204,101.33 14.8707,99.9971 15.5,97.5C 12.4417,93.2482 11.4417,93.5815 12.5,98.5C 11.8333,98.8333 11.1667,99.1667 10.5,99.5C 10.1326,92.5854 10.7993,85.9188 12.5,79.5 Z"/></g>
<g><path style="opacity:1" fill="#ababab" d="M 19.5,81.5 C 19.5,81.1667 19.5,80.8333 19.5,80.5C 23.7977,81.3209 27.7977,82.8209 31.5,85C 30.4092,86.5501 29.0758,87.7168 27.5,88.5C 24.9558,87.2921 23.6225,85.2921 23.5,82.5C 22.0413,82.5674 20.7079,82.2341 19.5,81.5 Z"/></g>
<g><path style="opacity:1" fill="#5e5e5e" d="M 124.5,81.5 C 125.167,81.5 125.833,81.5 126.5,81.5C 127.791,81.2627 128.791,81.596 129.5,82.5C 128.5,82.5 127.5,82.5 126.5,82.5C 126.5,83.5 126.5,84.5 126.5,85.5C 125.655,84.3285 124.989,82.9952 124.5,81.5 Z"/></g>
<g><path style="opacity:1" fill="#141414" d="M 14.5,82.5 C 16.1667,82.5 17.8333,82.5 19.5,82.5C 19.5,82.1667 19.5,81.8333 19.5,81.5C 20.7079,82.2341 22.0413,82.5674 23.5,82.5C 23.6225,85.2921 24.9558,87.2921 27.5,88.5C 27.5,89.1667 27.8333,89.5 28.5,89.5C 28.5,89.8333 28.5,90.1667 28.5,90.5C 26.0576,90.3537 25.3909,91.187 26.5,93C 25.2068,93.49 23.8734,93.6567 22.5,93.5C 21.8333,93.5 21.5,93.1667 21.5,92.5C 21.762,91.0222 21.4287,89.6888 20.5,88.5C 19.8933,88.6236 19.56,88.9569 19.5,89.5C 18.5812,86.6733 16.9145,84.34 14.5,82.5 Z"/></g>
<g><path style="opacity:1" fill="#979797" d="M 75.5,80.5 C 75.369,81.2389 75.5357,81.9056 76,82.5C 76.2784,81.5842 76.7784,80.9175 77.5,80.5C 77.2852,82.1788 77.9519,83.1788 79.5,83.5C 79.189,84.4778 78.5223,85.1445 77.5,85.5C 76.4728,84.2086 75.4728,84.2086 74.5,85.5C 74.2155,83.5853 74.5489,81.9187 75.5,80.5 Z"/></g>
<g><path style="opacity:1" fill="#ebebeb" d="M 129.5,82.5 C 132.054,83.388 134.721,83.7214 137.5,83.5C 135.833,88.0471 137.499,90.8805 142.5,92C 145.89,92.2463 149.223,92.7463 152.5,93.5C 153.167,92.8333 153.833,92.1667 154.5,91.5C 156.786,92.4196 159.119,92.4196 161.5,91.5C 161.631,94.3667 160.297,96.0334 157.5,96.5C 157.265,95.9033 156.765,95.5699 156,95.5C 153.865,96.1271 151.698,96.6271 149.5,97C 151.601,101.316 150.268,103.816 145.5,104.5C 143.734,104.566 142.734,103.732 142.5,102C 143.093,100.118 144.427,99.1183 146.5,99C 143.819,96.9303 140.819,96.2636 137.5,97C 139.782,99.3974 141.116,102.231 141.5,105.5C 140.5,105.5 139.5,105.5 138.5,105.5C 138.5,106.5 138.5,107.5 138.5,108.5C 142.151,108.229 143.485,109.563 142.5,112.5C 139.908,114.036 138.908,116.369 139.5,119.5C 134.829,126.515 128.496,131.182 120.5,133.5C 120.422,129.626 121.089,125.96 122.5,122.5C 121.963,118.171 121.463,113.838 121,109.5C 120.098,106.196 118.764,105.862 117,108.5C 116.228,108.355 115.561,108.022 115,107.5C 114.808,105.423 114.308,103.423 113.5,101.5C 112.377,103.289 111.044,103.622 109.5,102.5C 107.049,99.5997 105.715,96.2663 105.5,92.5C 104.964,89.3019 105.631,86.6353 107.5,84.5C 111.686,89.9312 116.352,94.9312 121.5,99.5C 121.281,100.675 121.614,101.675 122.5,102.5C 123.452,100.955 123.785,99.288 123.5,97.5C 124.978,97.762 126.311,97.4287 127.5,96.5C 127.376,95.8933 127.043,95.56 126.5,95.5C 123.551,92.2123 120.551,88.879 117.5,85.5C 118.723,84.3861 120.056,84.2195 121.5,85C 124.646,87.3116 127.646,89.8116 130.5,92.5C 130.833,92.3333 131.167,92.1667 131.5,92C 129.946,89.7131 128.279,87.5465 126.5,85.5C 126.5,84.5 126.5,83.5 126.5,82.5C 127.5,82.5 128.5,82.5 129.5,82.5 Z"/></g>
<g><path style="opacity:1" fill="#eaeaea" d="M 74.5,63.5 C 73.4424,66.3344 72.2758,69.0011 71,71.5C 73.0396,69.6298 74.8729,67.6298 76.5,65.5C 77.5,65.5 78.5,65.5 79.5,65.5C 78.4831,70.6228 77.1498,75.6228 75.5,80.5C 74.5489,81.9187 74.2155,83.5853 74.5,85.5C 72.5624,87.1937 72.2291,89.1937 73.5,91.5C 75.8333,90.3333 78.1667,89.1667 80.5,88C 82.2278,85.418 84.5611,83.918 87.5,83.5C 87.8688,88.7626 86.0355,93.0959 82,96.5C 81.6667,97.8333 81.3333,99.1667 81,100.5C 76.2541,105.049 71.7541,109.716 67.5,114.5C 66.9424,116.593 65.6091,118.093 63.5,119C 64.4162,119.374 65.2496,119.874 66,120.5C 68.2455,125.326 70.7455,129.992 73.5,134.5C 76.6551,135.15 79.1551,136.817 81,139.5C 82.5284,148.009 84.6951,156.343 87.5,164.5C 86.5,164.5 85.5,164.5 84.5,164.5C 84.4348,162.304 83.7681,160.304 82.5,158.5C 82.433,160.424 82.0997,162.424 81.5,164.5C 80.8076,163.975 80.3076,163.308 80,162.5C 77.7912,153.873 74.7912,145.54 71,137.5C 69.5,136 68,134.5 66.5,133C 57.9859,129.465 50.9859,124.132 45.5,117C 45.9054,116.055 46.572,115.388 47.5,115C 46.5838,114.626 45.7504,114.126 45,113.5C 44.454,110.101 44.7873,106.768 46,103.5C 46.7096,102.027 47.8762,101.36 49.5,101.5C 49.3398,99.8008 49.5065,98.1341 50,96.5C 51.7058,95.6921 52.5391,94.3588 52.5,92.5C 54.1992,92.6602 55.8659,92.4935 57.5,92C 62.1456,89.6813 66.6456,87.1813 71,84.5C 71.6877,83.6683 71.521,83.0016 70.5,82.5C 68.0699,84.571 65.4033,84.9044 62.5,83.5C 65.3418,82.9955 66.6751,81.3289 66.5,78.5C 64.5,78.5 62.5,78.5 60.5,78.5C 60.2627,77.209 60.596,76.209 61.5,75.5C 63.2959,74.2073 64.9625,72.7073 66.5,71C 64.0979,71.8705 61.7646,73.0371 59.5,74.5C 56.0904,77.3634 52.0904,78.8634 47.5,79C 48.2524,79.6708 48.5858,80.5041 48.5,81.5C 44.2101,79.4878 40.8768,80.4878 38.5,84.5C 39.5736,85.0798 40.5736,84.5798 41.5,83C 43.8098,82.5034 46.1432,82.3367 48.5,82.5C 51.3128,82.5481 53.9795,83.2147 56.5,84.5C 57.6704,85.6939 57.337,86.3605 55.5,86.5C 52.1016,86.1796 48.7683,86.513 45.5,87.5C 45.6236,88.1067 45.9569,88.44 46.5,88.5C 46.5,88.8333 46.5,89.1667 46.5,89.5C 47.5192,91.5405 47.5192,93.5405 46.5,95.5C 45.8333,94.5 45.1667,93.5 44.5,92.5C 43.4104,93.3914 43.4104,94.3914 44.5,95.5C 44.0431,96.2975 43.3764,96.6309 42.5,96.5C 42.1667,95.8333 41.8333,95.1667 41.5,94.5C 41.3893,93.8826 41.056,93.3826 40.5,93C 36.5621,91.5258 32.5621,90.3591 28.5,89.5C 27.8333,89.5 27.5,89.1667 27.5,88.5C 29.0758,87.7168 30.4092,86.5501 31.5,85C 27.7977,82.8209 23.7977,81.3209 19.5,80.5C 18.7659,79.2921 18.4326,77.9587 18.5,76.5C 19.8734,76.6567 21.2068,76.49 22.5,76C 20.1484,75.4241 19.1484,73.9241 19.5,71.5C 20.2887,65.3456 21.9553,65.0123 24.5,70.5C 25.8626,69.1207 26.8626,69.2874 27.5,71C 26.6705,72.4651 26.5038,73.9651 27,75.5C 28.3563,73.1024 29.5229,70.6024 30.5,68C 33.025,67.1041 35.1917,67.6041 37,69.5C 37.6107,65.7279 38.6107,65.7279 40,69.5C 40.4966,67.1902 40.6633,64.8568 40.5,62.5C 44.4378,64.1301 48.4378,65.7967 52.5,67.5C 53.652,69.8249 55.4853,71.1583 58,71.5C 62.9286,69.0734 66.762,65.4068 69.5,60.5C 71.0287,61.7629 72.6954,62.7629 74.5,63.5 Z"/></g>
<g><path style="opacity:1" fill="#535353" d="M 48.5,81.5 C 48.5,81.8333 48.5,82.1667 48.5,82.5C 46.1432,82.3367 43.8098,82.5034 41.5,83C 40.5736,84.5798 39.5736,85.0798 38.5,84.5C 40.8768,80.4878 44.2101,79.4878 48.5,81.5 Z"/></g>
<g><path style="opacity:1" fill="#656565" d="M 61.5,75.5 C 61.1583,74.6618 60.4916,74.3284 59.5,74.5C 61.7646,73.0371 64.0979,71.8705 66.5,71C 64.9625,72.7073 63.2959,74.2073 61.5,75.5 Z"/></g>
<g><path style="opacity:1" fill="#aeaeae" d="M 56.5,63.5 C 59.5644,63.6031 60.5644,64.9364 59.5,67.5C 57.4501,66.9234 56.4501,65.5901 56.5,63.5 Z"/></g>
<g><path style="opacity:1" fill="#676767" d="M 55.5,86.5 C 52.5,87.1667 49.5,87.8333 46.5,88.5C 45.9569,88.44 45.6236,88.1067 45.5,87.5C 48.7683,86.513 52.1016,86.1796 55.5,86.5 Z"/></g>
<g><path style="opacity:1" fill="#adadad" d="M 100.5,73.5 C 100.111,83.502 99.611,93.502 99,103.5C 98.4873,109.022 96.6539,109.689 93.5,105.5C 94.8333,105.5 96.1667,105.5 97.5,105.5C 97.9314,94.6374 98.9314,83.9708 100.5,73.5 Z"/></g>
<g><path style="opacity:1" fill="#858585" d="M 107.5,84.5 C 105.631,86.6353 104.964,89.3019 105.5,92.5C 104.523,89.7131 104.19,86.7131 104.5,83.5C 105.791,83.2627 106.791,83.596 107.5,84.5 Z"/></g>
<g><path style="opacity:0.898" fill="#777777" d="M 186.5,81.5 C 187.581,84.6267 188.247,87.9601 188.5,91.5C 187.778,91.0825 187.278,90.4158 187,89.5C 186.503,86.854 186.336,84.1873 186.5,81.5 Z"/></g>
<g><path style="opacity:1" fill="#797979" d="M 19.5,89.5 C 19.56,88.9569 19.8933,88.6236 20.5,88.5C 21.4287,89.6888 21.762,91.0222 21.5,92.5C 19.2043,92.8041 18.871,93.8041 20.5,95.5C 20.1667,95.5 19.8333,95.5 19.5,95.5C 16.7823,93.8391 15.1156,91.8391 14.5,89.5C 15.6113,90.6113 16.9446,91.278 18.5,91.5C 20.418,91.1386 20.7514,90.472 19.5,89.5 Z"/></g>
<g><path style="opacity:1" fill="#959595" d="M 28.5,89.5 C 32.5621,90.3591 36.5621,91.5258 40.5,93C 41.056,93.3826 41.3893,93.8826 41.5,94.5C 40.9035,95.9354 40.9035,97.602 41.5,99.5C 39.8007,99.4729 38.4674,98.8062 37.5,97.5C 38.1408,96.5178 38.8075,95.5178 39.5,94.5C 33.6705,93.8172 28.0038,93.4839 22.5,93.5C 23.8734,93.6567 25.2068,93.49 26.5,93C 25.3909,91.187 26.0576,90.3537 28.5,90.5C 28.5,90.1667 28.5,89.8333 28.5,89.5 Z"/></g>
<g><path style="opacity:1" fill="#000000" d="M 28.5,90.5 C 30.1789,90.8923 31.8455,91.3923 33.5,92C 32.6667,92.1667 31.8333,92.3333 31,92.5C 29.6244,92.3158 28.7911,91.6491 28.5,90.5 Z"/></g>
<g><path style="opacity:1" fill="#adadad" d="M 90.5,83.5 C 91.1524,84.4486 91.4857,85.6153 91.5,87C 91.3248,88.6581 90.6582,89.9914 89.5,91C 91.8344,95.1738 92.8344,99.6738 92.5,104.5C 91.3921,100.067 90.0588,95.5673 88.5,91C 90.0855,88.7438 90.7521,86.2438 90.5,83.5 Z"/></g>
<g><path style="opacity:1" fill="#eeeeee" d="M 21.5,92.5 C 21.5,93.1667 21.8333,93.5 22.5,93.5C 28.0038,93.4839 33.6705,93.8172 39.5,94.5C 38.8075,95.5178 38.1408,96.5178 37.5,97.5C 35.283,98.3686 32.9496,98.702 30.5,98.5C 28.6203,98.2291 27.287,98.8958 26.5,100.5C 25.135,98.1402 23.135,96.4735 20.5,95.5C 18.871,93.8041 19.2043,92.8041 21.5,92.5 Z"/></g>
<g><path style="opacity:1" fill="#b0b0b0" d="M 46.5,89.5 C 47.8118,90.1451 48.8118,91.1451 49.5,92.5C 48.8561,97.1972 46.5228,98.5305 42.5,96.5C 43.3764,96.6309 44.0431,96.2975 44.5,95.5C 43.4104,94.3914 43.4104,93.3914 44.5,92.5C 45.1667,93.5 45.8333,94.5 46.5,95.5C 47.5192,93.5405 47.5192,91.5405 46.5,89.5 Z"/></g>
<g><path style="opacity:1" fill="#828282" d="M 15.5,97.5 C 14.391,97.5569 13.391,97.8902 12.5,98.5C 11.4417,93.5815 12.4417,93.2482 15.5,97.5 Z"/></g>
<g><path style="opacity:1" fill="#151515" d="M 19.5,95.5 C 19.8333,95.5 20.1667,95.5 20.5,95.5C 23.135,96.4735 25.135,98.1402 26.5,100.5C 27.5063,100.938 27.5063,101.604 26.5,102.5C 25.8826,102.611 25.3826,102.944 25,103.5C 23.6754,101.007 21.5087,99.84 18.5,100C 20.7823,98.9158 21.1157,97.4158 19.5,95.5 Z"/></g>
<g><path style="opacity:1" fill="#9c9c9c" d="M 126.5,95.5 C 127.043,95.56 127.376,95.8933 127.5,96.5C 126.311,97.4287 124.978,97.762 123.5,97.5C 123.785,99.288 123.452,100.955 122.5,102.5C 121.614,101.675 121.281,100.675 121.5,99.5C 121.5,98.5 121.5,97.5 121.5,96.5C 123.415,96.7845 125.081,96.4511 126.5,95.5 Z"/></g>
<g><path style="opacity:0.973" fill="#141414" d="M 15.5,97.5 C 14.8707,99.9971 13.204,101.33 10.5,101.5C 10.5,100.833 10.5,100.167 10.5,99.5C 11.1667,99.1667 11.8333,98.8333 12.5,98.5C 13.391,97.8902 14.391,97.5569 15.5,97.5 Z"/></g>
<g><path style="opacity:1" fill="#bdbdbd" d="M 157.5,96.5 C 157.27,98.9828 156.603,99.4828 155.5,98C 155.836,96.9701 156.503,96.4701 157.5,96.5 Z"/></g>
<g><path style="opacity:1" fill="#9e9e9e" d="M 30.5,98.5 C 31.8264,100.195 31.4931,101.528 29.5,102.5C 28.5,102.5 27.5,102.5 26.5,102.5C 27.5063,101.604 27.5063,100.938 26.5,100.5C 27.287,98.8958 28.6203,98.2291 30.5,98.5 Z"/></g>
<g><path style="opacity:1" fill="#212121" d="M 60.5,94.5 C 61.0431,94.56 61.3764,94.8933 61.5,95.5C 58.1894,100.765 55.8561,106.432 54.5,112.5C 52.3652,112.853 51.0319,112.02 50.5,110C 53.6779,104.671 57.0113,99.5043 60.5,94.5 Z"/></g>
<g><path style="opacity:1" fill="#c8c8c8" d="M 35.5,100.5 C 36.5,100.5 37.5,100.5 38.5,100.5C 38.5751,103.206 38.9084,105.873 39.5,108.5C 35.0129,107.527 33.6796,104.86 35.5,100.5 Z"/></g>
<g><path style="opacity:1" fill="#a9a9a9" d="M 171.5,102.5 C 173.225,102.843 173.725,103.843 173,105.5C 171.961,104.756 171.461,103.756 171.5,102.5 Z"/></g>
<g><path style="opacity:1" fill="#bdbdbd" d="M 150.5,103.5 C 153.368,104.017 156.034,104.35 158.5,104.5C 156.041,107.959 153.041,108.292 149.5,105.5C 149.863,104.817 150.196,104.15 150.5,103.5 Z"/></g>
<g><path style="opacity:1" fill="#a9a9a9" d="M 160.5,101.5 C 163.119,102.403 163.786,104.069 162.5,106.5C 160.783,105.332 160.116,103.665 160.5,101.5 Z"/></g>
<g><path style="opacity:1" fill="#7e7e7e" d="M 31.5,105.5 C 32.1667,106.167 32.8333,106.833 33.5,107.5C 32.5,107.5 31.5,107.5 30.5,107.5C 30.44,106.957 30.1067,106.624 29.5,106.5C 28.8281,107.949 28.1614,109.282 27.5,110.5C 27.5,108.833 27.5,107.167 27.5,105.5C 28.8333,105.5 30.1667,105.5 31.5,105.5 Z"/></g>
<g><path style="opacity:0.913" fill="#ebebeb" d="M 188.5,109.5 C 187.712,114.234 186.712,118.9 185.5,123.5C 182.578,119.936 179.078,116.936 175,114.5C 174.517,113.552 174.351,112.552 174.5,111.5C 176.225,110.722 177.891,110.389 179.5,110.5C 177.345,109.999 175.678,108.999 174.5,107.5C 179.99,105.124 183.657,106.791 185.5,112.5C 186.288,111.23 187.288,110.23 188.5,109.5 Z"/></g>
<g><path style="opacity:1" fill="#aaaaaa" d="M 157.5,107.5 C 160.957,107.667 161.29,108.667 158.5,110.5C 157.614,109.675 157.281,108.675 157.5,107.5 Z"/></g>
<g><path style="opacity:1" fill="#d9d9d9" d="M 165.5,107.5 C 169.837,107.969 171.504,110.135 170.5,114C 167.613,114.392 165.28,113.392 163.5,111C 163.978,109.697 164.645,108.531 165.5,107.5 Z"/></g>
<g><path style="opacity:1" fill="#888888" d="M 174.5,107.5 C 175.678,108.999 177.345,109.999 179.5,110.5C 177.891,110.389 176.225,110.722 174.5,111.5C 173.314,110.039 173.314,108.705 174.5,107.5 Z"/></g>
<g><path style="opacity:0.788" fill="#6c6c6c" d="M 13.5,110.5 C 12.5269,112.948 12.1936,115.615 12.5,118.5C 11.5489,117.081 11.2155,115.415 11.5,113.5C 11.3398,111.801 11.5065,110.134 12,108.5C 12.7172,109.044 13.2172,109.711 13.5,110.5 Z"/></g>
<g><path style="opacity:1" fill="#dddddd" d="M 30.5,107.5 C 31.5,107.5 32.5,107.5 33.5,107.5C 34.038,109.117 34.3713,110.784 34.5,112.5C 32.8333,112.5 31.1667,112.5 29.5,112.5C 29.6287,110.784 29.962,109.117 30.5,107.5 Z"/></g>
<g><path style="opacity:1" fill="#b5b5b5" d="M 21.5,110.5 C 23.0251,112.036 25.0251,113.036 27.5,113.5C 26.1335,114.84 24.8001,116.173 23.5,117.5C 21.6198,116.922 20.6198,115.588 20.5,113.5C 20.3793,112.106 20.046,110.772 19.5,109.5C 20.357,108.6 21.0237,108.934 21.5,110.5 Z"/></g>
<g><path style="opacity:1" fill="#a7a7a7" d="M 142.5,112.5 C 143.234,113.708 143.567,115.041 143.5,116.5C 142.5,116.5 141.5,116.5 140.5,116.5C 140.737,117.791 140.404,118.791 139.5,119.5C 138.908,116.369 139.908,114.036 142.5,112.5 Z"/></g>
<g><path style="opacity:1" fill="#a7a7a7" d="M 67.5,114.5 C 71.31,115.754 71.31,116.754 67.5,117.5C 67.5,116.5 67.5,115.5 67.5,114.5 Z"/></g>
<g><path style="opacity:1" fill="#c8c8c8" d="M 167.5,116.5 C 169.783,116.608 171.783,117.441 173.5,119C 174.517,120.049 174.684,121.216 174,122.5C 172.274,123.576 170.441,123.743 168.5,123C 168.742,120.928 168.409,118.761 167.5,116.5 Z"/></g>
<g><path style="opacity:1" fill="#cdcdcd" d="M 24.5,117.5 C 25.8503,118.483 26.8503,119.816 27.5,121.5C 28.7362,120.754 30.0695,120.421 31.5,120.5C 30.1667,122.833 30.1667,125.167 31.5,127.5C 29.0108,127.702 26.6775,127.202 24.5,126C 23.0745,124.286 23.4078,122.953 25.5,122C 22.9715,122.105 20.6382,121.938 18.5,121.5C 20.8008,120.94 23.1341,120.44 25.5,120C 24.7476,119.329 24.4142,118.496 24.5,117.5 Z"/></g>
<g><path style="opacity:1" fill="#656565" d="M 177.5,122.5 C 178.5,122.5 179.5,122.5 180.5,122.5C 180.5,123.5 180.5,124.5 180.5,125.5C 179.5,125.5 178.5,125.5 177.5,125.5C 177.5,124.5 177.5,123.5 177.5,122.5 Z"/></g>
<g><path style="opacity:1" fill="#d9d9d9" d="M 20.5,138.5 C 20.5,137.167 20.5,135.833 20.5,134.5C 20.5,131.833 20.5,129.167 20.5,126.5C 22.8728,127.294 25.2062,128.294 27.5,129.5C 28.3857,130.325 28.719,131.325 28.5,132.5C 25.2699,132.561 23.4365,134.228 23,137.5C 22.3292,138.252 21.4959,138.586 20.5,138.5 Z"/></g>
<g><path style="opacity:1" fill="#ababab" d="M 37.5,127.5 C 41.193,128.247 41.193,129.58 37.5,131.5C 36.3744,130.192 36.3744,128.858 37.5,127.5 Z"/></g>
<g><path style="opacity:0.826" fill="#e9e9e9" d="M 184.5,127.5 C 182.542,134.74 179.542,141.407 175.5,147.5C 175.5,147.167 175.5,146.833 175.5,146.5C 173.239,144.949 170.739,143.616 168,142.5C 167.333,141.167 167.333,139.833 168,138.5C 171.547,136.848 174.547,137.515 177,140.5C 177.424,138.485 178.258,136.651 179.5,135C 178.833,133.333 178.167,131.667 177.5,130C 177.905,129.055 178.572,128.388 179.5,128C 181.342,128.068 183.009,127.901 184.5,127.5 Z"/></g>
<g><path style="opacity:1" fill="#d8d8d8" d="M 95.5,134.5 C 94.1366,138.115 93.1366,141.948 92.5,146C 92.1667,146.5 91.8333,147 91.5,147.5C 90.8243,146.398 90.1577,145.398 89.5,144.5C 87.8031,139.025 88.8031,134.025 92.5,129.5C 93.325,128.614 94.325,128.281 95.5,128.5C 95.5,130.5 95.5,132.5 95.5,134.5 Z"/></g>
<g><path style="opacity:1" fill="#bebebe" d="M 45.5,128.5 C 49.734,128.062 51.4006,129.728 50.5,133.5C 47.4452,132.807 44.4452,132.473 41.5,132.5C 42.8665,131.16 44.1999,129.827 45.5,128.5 Z"/></g>
<g><path style="opacity:1" fill="#8e8e8e" d="M 130.5,131.5 C 132.885,132.867 132.552,134.201 129.5,135.5C 129.167,135 128.833,134.5 128.5,134C 129.056,132.989 129.722,132.156 130.5,131.5 Z"/></g>
<g><path style="opacity:1" fill="#acacac" d="M 169.5,132.5 C 170.675,132.281 171.675,132.614 172.5,133.5C 170.948,134.798 169.948,134.465 169.5,132.5 Z"/></g>
<g><path style="opacity:1" fill="#838383" d="M 29.5,132.5 C 32.9571,132.667 33.2904,133.667 30.5,135.5C 29.6143,134.675 29.281,133.675 29.5,132.5 Z"/></g>
<g><path style="opacity:1" fill="#e5e5e5" d="M 53.5,135.5 C 54.2178,137.137 54.3845,138.803 54,140.5C 53.6924,139.692 53.1924,139.025 52.5,138.5C 49.9185,142.434 46.2518,144.101 41.5,143.5C 40.577,140.74 38.7437,138.74 36,137.5C 35.5172,136.552 35.3505,135.552 35.5,134.5C 38.3456,134.03 40.6789,134.863 42.5,137C 45.146,137.497 47.8127,137.664 50.5,137.5C 50.5,136.5 50.5,135.5 50.5,134.5C 51.791,134.263 52.791,134.596 53.5,135.5 Z"/></g>
<g><path style="opacity:0.996" fill="#a3a3a3" d="M 12.5,118.5 C 12.6157,122.275 14.6157,123.942 18.5,123.5C 18.3178,125.675 17.6511,127.675 16.5,129.5C 17.2324,132.197 18.0657,134.864 19,137.5C 19.2321,136.263 19.7321,135.263 20.5,134.5C 20.5,135.833 20.5,137.167 20.5,138.5C 21.5481,142.264 22.8815,145.931 24.5,149.5C 18.0307,140.211 14.0307,129.878 12.5,118.5 Z"/></g>
<g><path style="opacity:1" fill="#bbbbbb" d="M 28.5,137.5 C 30.337,137.639 30.6704,138.306 29.5,139.5C 28.7025,139.043 28.3691,138.376 28.5,137.5 Z"/></g>
<g><path style="opacity:1" fill="#505050" d="M 95.5,134.5 C 95.5,135.167 95.8333,135.5 96.5,135.5C 95.5352,140.359 94.2018,145.025 92.5,149.5C 91.791,148.596 90.791,148.263 89.5,148.5C 89.5,147.167 89.5,145.833 89.5,144.5C 90.1577,145.398 90.8243,146.398 91.5,147.5C 91.8333,147 92.1667,146.5 92.5,146C 93.1366,141.948 94.1366,138.115 95.5,134.5 Z"/></g>
<g><path style="opacity:1" fill="#dedede" d="M 92.5,149.5 C 94.2018,145.025 95.5352,140.359 96.5,135.5C 96.3243,131.808 97.9909,129.808 101.5,129.5C 102.172,132.908 101.172,135.575 98.5,137.5C 97.8265,144.592 96.6598,151.592 95,158.5C 93.6439,159.38 92.1439,159.714 90.5,159.5C 90.9949,157.176 90.9949,155.009 90.5,153C 90.9783,151.697 91.645,150.531 92.5,149.5 Z"/></g>
<g><path style="opacity:1" fill="#b0b0b0" d="M 53.5,135.5 C 55.6157,137.088 55.949,139.088 54.5,141.5C 51.5307,143.667 48.1974,145.001 44.5,145.5C 43.1285,147.62 43.7952,148.62 46.5,148.5C 46.7373,149.791 46.404,150.791 45.5,151.5C 45.1788,149.952 44.1788,149.285 42.5,149.5C 42.5,148.167 42.5,146.833 42.5,145.5C 41.209,145.263 40.209,145.596 39.5,146.5C 38.5222,146.189 37.8555,145.522 37.5,144.5C 38.9049,144.24 40.2382,143.907 41.5,143.5C 46.2518,144.101 49.9185,142.434 52.5,138.5C 53.1924,139.025 53.6924,139.692 54,140.5C 54.3845,138.803 54.2178,137.137 53.5,135.5 Z"/></g>
<g><path style="opacity:1" fill="#aeaeae" d="M 128.5,140.5 C 130.028,140.517 130.528,141.184 130,142.5C 128.677,145.059 126.843,145.725 124.5,144.5C 125.867,143.16 127.2,141.827 128.5,140.5 Z"/></g>
<g><path style="opacity:1" fill="#e3e3e3" d="M 45.5,151.5 C 44.5943,152.965 43.261,153.965 41.5,154.5C 40.6185,151.87 39.9519,149.203 39.5,146.5C 40.209,145.596 41.209,145.263 42.5,145.5C 42.5,146.833 42.5,148.167 42.5,149.5C 44.1788,149.285 45.1788,149.952 45.5,151.5 Z"/></g>
<g><path style="opacity:1" fill="#868686" d="M 141.5,147.5 C 142.675,147.281 143.675,147.614 144.5,148.5C 142.948,149.798 141.948,149.465 141.5,147.5 Z"/></g>
<g><path style="opacity:0.882" fill="#878787" d="M 24.5,150.5 C 26.5311,151.539 27.8645,153.205 28.5,155.5C 26.457,154.421 25.1237,152.754 24.5,150.5 Z"/></g>
<g><path style="opacity:1" fill="#aaaaaa" d="M 29.5,149.5 C 33.2762,149.469 33.4429,150.136 30,151.5C 28.3164,151.317 28.1498,150.65 29.5,149.5 Z"/></g>
<g><path style="opacity:1" fill="#c5c5c5" d="M 123.5,149.5 C 124.497,149.47 125.164,149.97 125.5,151C 124.201,152.326 122.868,153.66 121.5,155C 123.444,157.153 123.944,159.653 123,162.5C 119.847,162.691 116.681,163.024 113.5,163.5C 113.34,161.801 113.506,160.134 114,158.5C 117.062,155.268 120.229,152.268 123.5,149.5 Z"/></g>
<g><path style="opacity:1" fill="#b7b7b7" d="M 161.5,153.5 C 165.193,154.247 165.193,155.58 161.5,157.5C 160.374,156.192 160.374,154.858 161.5,153.5 Z"/></g>
<g><path style="opacity:1" fill="#a3a3a3" d="M 58.5,153.5 C 59.5,153.5 60.5,153.5 61.5,153.5C 61.5,154.5 61.5,155.5 61.5,156.5C 60.5,156.5 59.5,156.5 58.5,156.5C 58.5,155.5 58.5,154.5 58.5,153.5 Z"/></g>
<g><path style="opacity:1" fill="#bbbbbb" d="M 129.5,154.5 C 131.337,154.639 131.67,155.306 130.5,156.5C 129.702,156.043 129.369,155.376 129.5,154.5 Z"/></g>
<g><path style="opacity:0.498" fill="#b4b4b4" d="M 175.5,146.5 C 175.5,146.833 175.5,147.167 175.5,147.5C 172.727,154.052 168.727,159.719 163.5,164.5C 163.343,163.127 163.51,161.793 164,160.5C 168.771,156.566 172.605,151.899 175.5,146.5 Z"/></g>
<g><path style="opacity:0.843" fill="#7a7a7a" d="M 28.5,156.5 C 30.5,156.5 31.5,157.5 31.5,159.5C 30.1667,158.833 29.1667,157.833 28.5,156.5 Z"/></g>
<g><path style="opacity:1" fill="#e9e9e9" d="M 101.5,175.5 C 100.213,176.768 99.213,176.435 98.5,174.5C 96.5104,175.463 96.1771,176.796 97.5,178.5C 98.9038,177.001 99.5704,177.334 99.5,179.5C 98.5123,182.782 97.8457,186.115 97.5,189.5C 95.1206,192.14 92.6206,192.14 90,189.5C 86.6362,182.844 85.1362,175.844 85.5,168.5C 86.086,168.709 86.586,169.043 87,169.5C 91.7425,165.606 96.9092,162.273 102.5,159.5C 104.625,156.153 105.291,152.653 104.5,149C 105.282,145.322 106.448,141.822 108,138.5C 108.689,137.643 109.522,136.977 110.5,136.5C 111.967,136.723 113.467,137.056 115,137.5C 115.096,134.549 115.929,131.882 117.5,129.5C 118.086,129.709 118.586,130.043 119,130.5C 119.667,133.167 119.667,135.833 119,138.5C 110.63,149.682 104.797,162.016 101.5,175.5 Z"/></g>
<g><path style="opacity:1" fill="#e3e3e3" d="M 57.5,158.5 C 59.7638,159.219 62.0971,159.552 64.5,159.5C 64.5,160.5 64.5,161.5 64.5,162.5C 60.9983,162.924 58.665,161.59 57.5,158.5 Z"/></g>
<g><path style="opacity:1" fill="#393939" d="M 116.5,158.5 C 118.372,159.359 120.038,159.692 121.5,159.5C 120.667,159.833 119.833,160.167 119,160.5C 117.624,160.316 116.791,159.649 116.5,158.5 Z"/></g>
<g><path style="opacity:0.867" fill="#666666" d="M 31.5,160.5 C 34.8333,161.167 36.8333,163.167 37.5,166.5C 35.1667,164.833 33.1667,162.833 31.5,160.5 Z"/></g>
<g><path style="opacity:0.914" fill="#7c7c7c" d="M 37.5,166.5 C 41.1002,168.43 44.1002,171.097 46.5,174.5C 42.8998,172.57 39.8998,169.903 37.5,166.5 Z"/></g>
<g><path style="opacity:0.859" fill="#b8b8b8" d="M 161.5,166.5 C 160.833,167.833 159.833,168.833 158.5,169.5C 158.5,168.5 158.5,167.5 158.5,166.5C 159.5,166.5 160.5,166.5 161.5,166.5 Z"/></g>
<g><path style="opacity:0.886" fill="#8d8d8d" d="M 46.5,174.5 C 48.4044,174.738 49.7377,175.738 50.5,177.5C 48.5956,177.262 47.2623,176.262 46.5,174.5 Z"/></g>
<g><path style="opacity:1" fill="#bbbbbb" d="M 101.5,175.5 C 101.038,180.519 99.7043,185.186 97.5,189.5C 97.8457,186.115 98.5123,182.782 99.5,179.5C 99.5704,177.334 98.9038,177.001 97.5,178.5C 96.1771,176.796 96.5104,175.463 98.5,174.5C 99.213,176.435 100.213,176.768 101.5,175.5 Z"/></g>
<g><path style="opacity:0.631" fill="#a6a6a6" d="M 50.5,177.5 C 52.0269,177.427 53.0269,178.094 53.5,179.5C 51.9731,179.573 50.9731,178.906 50.5,177.5 Z"/></g>
<g><path style="opacity:0.518" fill="#a8a8a8" d="M 53.5,179.5 C 55.0269,179.427 56.0269,180.094 56.5,181.5C 54.9731,181.573 53.9731,180.906 53.5,179.5 Z"/></g>
<g><path style="opacity:0.992" fill="#6d6d6d" d="M 60.5,183.5 C 66.7639,185.304 72.7639,187.638 78.5,190.5C 71.8229,189.722 65.8229,187.389 60.5,183.5 Z"/></g>
<g><path style="opacity:0.698" fill="#585858" d="M 134.5,185.5 C 131.47,187.403 128.137,188.737 124.5,189.5C 127.335,187.215 130.668,185.882 134.5,185.5 Z"/></g>
</svg>
