<svg xmlns="http://www.w3.org/2000/svg" viewBox="0 0 3882.52 3963.91"><defs><style>.cls-1{fill:#f6bf1f;}.cls-2{fill:#f47627;}.cls-3{fill:#030302;}.cls-4{fill:#f26722;}.cls-5{fill:#f47727;}.cls-6{fill:#edeceb;}.cls-7{fill:#dccbc2;}.cls-8{fill:#e06826;}.cls-9{fill:#fff;}.cls-10{fill:#f4f1ef;}.cls-11{fill:#f6a11e;}.cls-12{fill:#dbc793;}</style></defs><g id="Layer_9" data-name="Layer 9"><path d="M2232.23,387.58" transform="translate(-58.74 -28.91)"/></g><g id="Layer_2" data-name="Layer 2"><path class="cls-1" d="M59.55,487.28c1.28,16.25,1506.71-809.51,3821.08-131.94,20,5.87-330-91.92-310.32-84.45-26.43,67.53-1483.82-683.11-3234.83,306.47,0,0,113.61,1966.84,2288.56,3258,0,0,665.3-455.23,867-900.18,0,0-574.83,900.18-948.14,1050.32S10.86,1928.63,59.55,487.28Z" transform="translate(-58.74 -28.91)"/><path class="cls-2" d="M204.72,561.16C491.75,346.81,1410.05-404,3941.26,373.77,2452.45,85.59,1638.36-183.64,589.78,669.57c0,0,100.44,1719,1958.74,3081.76,0,0,552.47-139.37,954.26-836.25,0,0-652.92,1192.44-954.26,991.12C2548.52,3906.2,489.33,2760.21,204.72,561.16Z" transform="translate(-58.74 -28.91)"/><g id="Layer_7" data-name="Layer 7"><path class="cls-3" d="M2776.83,338" transform="translate(-58.74 -28.91)"/></g><path class="cls-4" d="M2547,546.36" transform="translate(-58.74 -28.91)"/><path class="cls-5" d="M2632.83,2677.77" transform="translate(-58.74 -28.91)"/><path class="cls-6" d="M1514.53,2210" transform="translate(-58.74 -28.91)"/><path class="cls-3" d="M2634,1336.47c-60.38-119.45-130.24-161.38-138.24-275.38-5.85-83.42,12.36-164.75,12.36-164.75.85-3.77,11-37,31.3-103.34,11.46-37.45,25.47-81,47.49-130.21,26-58.24,39.05-87.35,62.81-107.24,47.55-39.79,95-28.12,98.81-49,4.8-26.55-68.28-65.34-127.92-81.19-21.35-5.67-59-15.31-107.23-9.19-79.27,10.06-126.59,55.06-138.64,41.36-7.95-9,7-35.09,11.49-42.89,20.84-36.18,49.59-42.51,47.49-53.62-3.21-17-73.52-19.27-116.42-16.09a591.5,591.5,0,0,0-108.77,18.39c-22.49,6-57.76,15.6-96.51,35.23-23.47,11.89-57.67,32.25-113.36,85.79-83.29,80.06-130.37,153.29-136.34,149.36-6.67-4.38,56.13-92.93,36.76-111.83-6.54-6.38-20-2.9-96,29.88-59.26,25.58-110.8,49.24-112.33,49.94-28.25,13-69.33,31.25-120.47,51.91L1418,708.74c-55.61,20.46-134.38,48.84-229.79,81.2C1068,830.7,983.33,856.78,986,871.13c2.91,15.55,106.09,5,107.24,15.32,1,9.22-81.15,18.68-181.58,53.55-95.89,33.29-191.58,83.91-186.38,101.45,5.32,18,120.11-10.84,125.91,7.38,6.7,21-143.36,67.23-304.85,180.77-135.29,95.11-235.3,207-222.13,225.19,11.28,15.56,102.62-41.72,114.9-24.51,11.71,16.41-67.53,73.84-136.34,180.76-70.44,109.46-104.1,230.61-81.19,245.11,16.9,10.7,62.07-38.3,71.7-29.18,7.76,7.35-18.67,41.9-41.07,88.92-25.58,53.71-33.77,98.21-41.36,139.41-11.92,64.76-9.92,111.14-6.13,199.15,3.7,85.56,12.4,124,19.92,150.12,16.21,56.38,27.31,95,52.08,101.11,60.56,14.94,155.58-176,168.52-168.51,8.39,4.83-31.15,85.48-21.44,90.81,1.46.81,5.06.46,24.5-20.34,34.26-36.65,46.21-60.29,52.08-58.21,9.34,3.3-15.49,64.81,0,75.06,22.37,14.8,115.37-86.11,153.2-127.15,70.12-76.08,116.94-139.49,124.08-134.81,8.86,5.81-58.91,106.21-40.61,122.06,14.73,12.75,69.85-42.48,190.46-104.18,1.17-.59,5.27-2.79,11.51-6,0,0,38.89-19.86,80.17-35.89,59.48-23.09,156.35-48.37,265.06-82.21,46.64-14.51,65.68-21.33,106.18-31.66,10.84-2.76,134.47-34,139.4-19.92,4,11.3-73,39-68.94,56.69,3.74,16,70.92,9,150.13,9.19,124.25.36,284.9.84,355.92,92.42,17.57,22.66,4.61,38.69,25.58,72.66,30.61,49.56,79.52,71.29,101.06,80.53,51.17,22,84.08,18.38,130.72,24.51,131.85,17.35,227.11,92.38,224.68,98.05-2.34,5.44-97.66-46.76-253.28-73.53-68.64-11.81-136.88-16.59-163.4-18.39-41.85-2.84-83.33-5.65-136.85-4.08-53.7,1.57-130.17,4.29-222.64,30.64-59.44,16.93-111.33,31.71-165.45,71.48-81.2,59.69-118.43,138.06-122.32,151.74-122.75,431.54,1158.18,1161.91,1163.46,1154.68,2.11-2.89-129.31-86.19-301.73-258.59-85.06-85-185.83-197.5-208.34-222.63-49.64-55.4-74.45-83.1-87.83-100.09-71.14-90.36-170.57-216.64-171.58-377.87-.24-39.31.28-109.7,47-169.53,35.38-45.32,81.22-64,100.09-71.49,170-67.09,354.46,79.07,661.78,98,180.63,11.15,308.44-12.47,355.41-24.51,0,0,235.56-60.38,394.21-257.36,10.42-12.93,23.36-30.57,22.47-53.11-2.26-57.24-91.17-82.69-210.38-153.19-109.1-64.52-182.27-130.51-220.6-165.45-67.24-61.29-131.67-119.49-181.79-204.25C2639.27,1608.71,2736.26,1538.9,2634,1336.47Z" transform="translate(-58.74 -28.91)"/><path class="cls-7" d="M2416.72,1824.67c-9-4-17.94-7.94-26.83-12.1-29.66-13.88-56.74-31.33-83.76-50.19-1.09-.75-2.19-1.48-3.27-2.23-7.92-1.76-15.78-3.75-23.55-6.06a497.77,497.77,0,0,1-59.13-22.21,123,123,0,0,1-18.42-10.05,52.31,52.31,0,0,1-16.9-3.23c-5.88,1.5-8.52,2.61-8.89,4.78-1.06,6.38,19.53,9.87,40.15,29.39,12.75,12.07,12.49,17.94,25.48,34.29,29.46,41.35,74.83,60,136.66,52.26,5.61-.25,44.9-2.15,48.4-9.73C2423.29,1828.06,2420,1826.41,2416.72,1824.67Z" transform="translate(-58.74 -28.91)"/><path class="cls-6" d="M3206.28,2373.43l-42.54,77.78L3123.38,2423l-82.75-38.34c-20.22-10.75-50.9-26.52-89.11-44-25.15-11.51-69.81-29.33-159.13-65-25.09-10-61.12-24.25-106.88-41.5-10.65-4-21.78-8.14-35.39-13.09-41.72-15.19-62.58-22.79-87.24-30.24-20.91-6.32-54-14.92-120-32.12-22.9-6-27-6.83-48-12.48l-88.85-24-39.83-11.74-39.88-12.66q-55.23-20.52-53.49-33.3,1.07-7.84,23.58-12.77c4.73-1.9,5.75-3.58,5.79-4.76.23-5.76-21.86-11.17-112.17-28.43-49.93-9.54-61.7-11.43-73.36-13.1-36.48-5.26-64.13-7.37-70.47-7.83a951.05,951.05,0,0,0-103.83-2c-20.18.75-42.12,2.29-48.34,2.73-4.85.34-23.7,1.68-37.79,3.06-42.37,4.15-81,12.49-98.16,16.45-5.58,1.29-25.92,3.78-66.6,8.74-7.55.92-18.84,2.18-22.13-3.4-3-5.14,2.25-13.51,4.43-16.68a176.13,176.13,0,0,1,15.32-15c11.13-9.66,18.21-13.42,17.36-16.85-.92-3.65-10.16-4.53-15.83-4.6-17.18-.21-35.07.08-53.62,1a854,854,0,0,0-145.28,20q-105.79,18.6-220,44.4c-69.64,15.88-136.34,32.85-200,50.49-5,2.24-12.73,5.59-22.46,9.19-11.82,4.36-12.94,4.06-22.47,7.66-13.72,5.17-16.54,7.73-32.17,14.3-5.57,2.33-13.38,5.43-23,8.68a72.39,72.39,0,0,1-21.62,3c-8.39-.11-15.17-.16-21.35-4.78-2.37-1.77-6.5-5.58-9.08-13.12l18.86-34.17c11.22-13,12.42-17.39,11.23-18.89-2.88-3.64-22.61,6.05-37.53,16.6-12.38,8.75-21.28,18.6-39.06,38.29-5.37,6-21.54,24.12-32.69,34-.65.58-3.16,2.75-6.48,5.84-6.89,6.42-10.94,10.95-29.77,28.37l-50.65,46.9-39.22,36.34-33.19,25.53-30.64,24q-15.56,7.77-19.28,4-5.29-5.4,13.15-34.09a9.78,9.78,0,0,0-4.94-3.88c-16.82-5.26-43.72,50.11-52.81,46.18-2.36-1-2.67-5.69-.46-33.11,1.25-15.61,2.52-28.59,3.48-37.79.87-4.29,1.36-9.28-.93-10.72-5.53-3.46-23.34,16.25-41.44,35.2-15,15.73-36.35,37.34-63.58,62.57l-33.3,26.24c-7.22.34-19.64-.25-30.27-8.08-13-9.59-16.55-25-18.81-38.82-7-42.78-4.9-87.5-2.46-115.35l194.8-148.34L1091,1874l522.73-22.2L2201,1926.46l476.3,159.44c182.68,26.88,387.6,96.22,513.11,265.06Q3198.7,2362.06,3206.28,2373.43Z" transform="translate(-58.74 -28.91)"/><path class="cls-2" d="M3264,2326.61c-1.76-3.37-5.25-7-12.15-14.06-2.3-2.36-10.92-11.07-18.91-17.89-11.95-10.21-37-28.52-71.11-49.92l-147.68-91.95s-66.36-54.36-129.65-111.19c-120.59-108.25-180.88-162.38-217.45-249.22-24.74-58.75-33.76-115-33.76-115-8-50.13-2.93-71.12-10.81-125.25-7.2-49.5-19.24-85.32-28.36-112.47-12-35.6-42.28-123.41-113.45-216-45.69-59.45-109-121.89-152.61-164.87-51.25-50.53-53.4-76.17-78.33-108.63-124.1-161.59-376-259.55-470-186.6-33.12,25.72-50.23,75.42-52.67,74.13-1.61-.85,8.83-21.87,29.71-63.9,11.39-22.95,17.21-34.62,23-44.74,11.82-20.78,18.41-29.1,36.46-56.23,30.16-45.3,45.15-68,40.52-72.85-5.78-6-28.27,9-71.58,26.84-34.34,14.17-48.32,16.37-94.54,30.67C1635.2,674.62,1602,688,1539.05,711.66c-206.29,77.69-402.87,142.86-399.47,152.86,2.22,6.52,87-18.15,90.49-8.95,7.13,18.58-328.85,145-320.09,168.7,4,10.93,77.76-9.45,82.39,2.56,7.41,19.27-180.87,75.21-359.25,223.66-77.51,64.49-146.87,141.23-136.41,153.37,11.26,13.07,114.12-50,117.5-44.74,2.16,3.38-40.88,27.53-83.74,63.91-49.83,42.29-77.77,82.73-106.69,125.25-60.3,88.62-106.72,191.4-93.19,199.37,8.71,5.13,38.15-31.45,45.47-26.41,8.31,5.72-27.75,54.32-50.42,121-11.18,32.87-14.81,62.12-21.61,119.28-7,58.49-10,112.09-9.62,163.39,1.77,37,3.94,74.09,6.19,111.13,9.52,89.68,23.89,97.14,30.44,98.67,17.87,4.19,32.45-22.72,91.84-73.27,26.05-22.18,86.83-73.91,102.64-63,14.94,10.26-21.28,68.79-9,76.68,12.7,8.16,62.44-47.39,113.44-93.72,123.52-112.21,260-175.45,270.12-163.59,6.91,8.08-47.14,48.37-37.82,63.05,14.25,22.44,153.89-50.61,318.74-95.43,250-68,492-53.07,497-25.56,3.38,18.42-98.69,46.92-95.44,56.23s105.13-28.63,246.7-37.49c107.34-6.71,180.71,6.93,280.92,25.56,44.14,8.21,123.14,25,122.45,42.61-.44,11.13-32.27,13.65-32.41,22.15-.32,19.21,162.12,19.42,354.75,68.16,13.82,3.5,167.61,42.87,273.71,92,16.18,7.5,44.17,21.2,86.44,37.49,36,13.88,51.77,17.83,102.64,37.49,28.55,11,12.3,5.43,61,25.07,56.27,22.72,74.49,28.8,77.7,43.09,2.89,12.89-8,25.59-18,35.79-67,68.07-153.06,88.61-153.06,88.61-77.73,18.55-141.58,7.83-185.48,0-56.25-10-104.13-30-199.88-69.87-72.52-30.2-90.52-41.72-171.08-73.27-60.4-23.66-91.35-35.63-127.85-42.6-91-17.39-171-4-171.07,1.7-.08,4.53,50,1.22,129.65,20.45a735,735,0,0,1,145.86,52.83c34,16.55,61.1,33,93.64,52.82,47.84,29.12,54.38,36.57,91.84,56.24,32.27,16.94,53.55,25.13,52.22,29-1.55,4.48-32.76-.47-57.62-6.82A340.58,340.58,0,0,1,2501,2483c-31.71-18.09-78.16-31.37-171.07-57.94-176.67-50.53-335.37-51.18-358.35-51.12-115,.28-200.57,22.58-219.69,27.26-89.07,21.81-215.4,52.74-326.16,156.1-49.5,46.19-158.8,148.18-140.94,259.4,6,37.38,55.24,90,153.71,195.33,59.76,63.9,113.24,115.37,161.35,161.68,49.36,47.51,89.79,84.71,113.88,106.65,0,0,55.36,50.41,112.75,99.94,154.31,133.17,305.69,246.31,305.69,246.31,124.11,119.93,240.47,191,325.05,233.83,72.25,36.61,167.38,84.81,192,57.2,22.62-25.38-14-115.14-79.23-152-7.19-4.06-4.33-1.34-26.1-10.81-41.55-18.09-65.75-33.11-116.08-61.76-53.48-30.44-43.91-23.6-62-34.69-35.43-21.69-55.31-37.64-125.54-92.33-3.35-2.61-21.13-16.38-56.66-44-41.4-32.13-52.52-40.78-67.32-52.53-7.13-5.65-31.94-25.35-55.54-44.88-26.8-22.17-69.92-57.83-106-93.29-23.13-22.74-31.8-34-94-110.29-115.32-141.5-118.9-143.64-138.89-173.62-30.38-45.57-57.64-87-79.66-149.11-10.42-29.37-25-71.55-28.59-128.68-1.81-29-7.58-121.89,41-201.52,33.06-54.21,80.56-86,80.56-86,3.84-2.57,7.07-4.57,9.47-6,38.83-23.68,72.53-30.41,127.86-40.9A797.46,797.46,0,0,1,2076,2423.32c66.05,4.6,113.75,15.94,167.47,29,25.78,6.26,51.49,13.25,216.1,68.17,120.28,40.13,145.65,49.44,196.28,57.94,37.7,6.32,80.24,13.21,136.86,10.22,92.51-4.88,164.54-33,192.68-44.31,15.53-6.21,44-18.91,100.84-44.3,34.17-15.26,51.42-23,59.42-27.27,0,0,60.37-32.36,104.45-85.2a74.08,74.08,0,0,0,15.31-29C3267.07,2352,3270.46,2338.87,3264,2326.61Z" transform="translate(-58.74 -28.91)"/><g id="Layer_12" data-name="Layer 12"><path class="cls-8" d="M1920.63,1689.81c272.46-108.78,387.26-83.55,440.54-35.36,29.52,26.69,63,81.06,147.06,143a692.51,692.51,0,0,0,104.17,63.31,1116.47,1116.47,0,0,1-179.74,37.79c-76.36,9.53-115.44,14-159.32-2-55.75-20.34-74.42-56.14-117.45-96C2112,1759.8,2040.45,1712.84,1920.63,1689.81Z" transform="translate(-58.74 -28.91)"/><circle class="cls-8" cx="2318.58" cy="1786.89" r="35.98"/></g><path id="eye" class="cls-9" d="M2450.55,1828.57c-1.5,13.24-41.36,19.22-58.08,21.72-22.69,3.41-54.81,7.87-93.19-3.83-13.55-4.13-32.34-10.07-50-25.56-14.55-12.8-13.79-19.34-27-35.79-31.17-38.77-68.66-43.72-66.18-57.51.35-1.92,1.82-5.92,39.17-19.17,29.52-10.47,44.29-15.71,60.77-17.89,34-4.51,60.1,1.15,66.18,2.55,14.46,3.33,30.74,7.08,47.27,19.17,18.61,13.61,27.57,30.51,33.77,42.18,12.59,23.74,7.76,29.89,20.26,46C2437.65,1818.66,2451.44,1820.65,2450.55,1828.57Z" transform="translate(-58.74 -28.91)"/><path class="cls-10" d="M2768.4,1508.4" transform="translate(-58.74 -28.91)"/><path class="cls-6" d="M1722.87,2010.87" transform="translate(-58.74 -28.91)"/><path class="cls-6" d="M1702.45,2050.19" transform="translate(-58.74 -28.91)"/><path class="cls-7" d="M1640.13,2622.31" transform="translate(-58.74 -28.91)"/><path class="cls-5" d="M1413.69,2760.79" transform="translate(-58.74 -28.91)"/><path class="cls-5" d="M2032.32,2710.45" transform="translate(-58.74 -28.91)"/><path class="cls-5" d="M2547.54,3687.32" transform="translate(-58.74 -28.91)"/><path class="cls-11" d="M2559.3,3296.66" transform="translate(-58.74 -28.91)"/><path class="cls-6" d="M780.74,2409.17" transform="translate(-58.74 -28.91)"/><path class="cls-6" d="M701.85,2324.15" transform="translate(-58.74 -28.91)"/><path class="cls-6" d="M1468.57,2164.06" transform="translate(-58.74 -28.91)"/><path class="cls-6" d="M1473.94,2124.23" transform="translate(-58.74 -28.91)"/><path class="cls-6" d="M1906,2148.74" transform="translate(-58.74 -28.91)"/><path class="cls-6" d="M1435.89,2322.36" transform="translate(-58.74 -28.91)"/><path class="cls-6" d="M3237.43,2679.81" transform="translate(-58.74 -28.91)"/><path class="cls-6" d="M3286.45,2657.34" transform="translate(-58.74 -28.91)"/><path class="cls-3" d="M2451,2784" transform="translate(-58.74 -28.91)"/><path class="cls-3" d="M2120.15,2724.74" transform="translate(-58.74 -28.91)"/><path class="cls-3" d="M2353,2753.34" transform="translate(-58.74 -28.91)"/><path class="cls-3" d="M2110.45,445.26" transform="translate(-58.74 -28.91)"/><path class="cls-2" d="M2496,596.4" transform="translate(-58.74 -28.91)"/><path class="cls-3" d="M2544,614.53" transform="translate(-58.74 -28.91)"/><path class="cls-3" d="M2339.72,438.45" transform="translate(-58.74 -28.91)"/></g><g id="Layer_10" data-name="Layer 10"><path class="cls-2" d="M1728.11,804.49c-16.92,40-25.38,60.06-22.6,67.66,8.49,23.15,53.22,10.63,102.2,34.32,36.47,17.64,39.64,44.82,76.65,77.26C1895,993,1989.92,1075.09,2119.6,1132a997.44,997.44,0,0,0,110.87,40.57c42.6,12.65,38.31,8.09,84.41,20.89,21.91,6.09,45.88,3.4,67.36,10.89.94.33,4,1.45,6.12,0,3.35-2.29,1.25-9,1.54-19.4,0-.43,0-.82,0-1.25a89.69,89.69,0,0,1,1.83-13.35l.16-.72c1.92-8.27,13-16.8,16.46-22,6.31-9.49-5.68-19.15-8.42-41.81-.74-6.14-.54-11,7.27-47,4.88-22.47,8.86-39.25,10.22-45,8.05-34,25.29-108.19,28.45-120.43,1.44-5.59,2.22-8.31,4.23-16.43,13.1-52.93,17.8-69.76,22.18-81.62.11-.31,1.29-3.24,2.84-7.23,4.61-11.81,7.84-20.59,9.57-25.28,1.11-3,4.82-12.88,12.26-32.68,8-21.21,7.82-20.13,13.28-34.72,8.48-22.7,8.25-23.45,12.76-34.73,6.69-16.71,12.73-29,17.11-37.78,11-22.09,16.62-33.72,26.94-48.25,8.41-11.85,18-25.38,34.72-39.32,10.06-8.39,22.69-18.17,41.74-25.85,12.64-5.09,20.7-6.15,21.62-11.18,1.55-8.46-18.87-18.77-24.85-21.79-16.72-8.43-35.35-13.59-66.38-16a385,385,0,0,0-77.62,1.71c-20.28,2.57-41.09,5.21-66.72,15-22.13,8.42-33.19,12.64-44.6,20.08a130.65,130.65,0,0,1-38.13,17.7c-8.24,2.25-11.44,2.16-13.66.43-4.73-3.7-1.42-12.11,3.32-42.89,2.49-16.16,2.4-19.17,4.9-27.32,1.37-4.52,4.13-12.52,8.17-22.13,6-14.19,7.89-15.69,6.72-18.47-3-7.11-19.6-6.57-40.43-6a265.58,265.58,0,0,0-31,2.72c-12.88,1.78-22.58,3.9-29.61,5.45-5.24,1.15-18.18,4-32.68,8.51-17.72,5.46-25.87,9.63-58.94,23.83-23.84,10.24-29.4,12.06-37.53,15.83-12.89,6-49,23.44-109.53,68.17-29.46,21.77-51.73,40.73-96.26,78.64-13.92,11.85-34.15,29.09-60.76,52.85-140.25,125.18-88.4,101.45-120.26,130C1735,788.49,1733,793,1728.11,804.49Z" transform="translate(-58.74 -28.91)"/></g><g id="Layer_11" data-name="Layer 11"><path class="cls-12" d="M2330.28,424.57c-57.61,8.75-142.85,29.41-232.44,82.53-161.29,95.65-235.4,236.49-262.6,296.32L1951.78,700.7l-7,94.68s14.63,33.77,135.1-94.54c0,0,31.15,66.37-47.55,127.37,0,0,80.61,67.63,190.85-121.59Q2276.7,565.59,2330.28,424.57Z" transform="translate(-58.74 -28.91)"/></g></svg>