<?xml version="1.0" encoding="UTF-8" standalone="no"?>
<!-- Created with Inkscape (http://www.inkscape.org/) -->

<svg
   width="27.336849mm"
   height="27.33519mm"
   viewBox="0 0 27.336849 27.33519"
   version="1.1"
   id="svg1238"
   inkscape:version="1.1.1 (3bf5ae0d25, 2021-09-20)"
   sodipodi:docname="WFLS-5385b4.svg"
   xmlns:inkscape="http://www.inkscape.org/namespaces/inkscape"
   xmlns:sodipodi="http://sodipodi.sourceforge.net/DTD/sodipodi-0.dtd"
   xmlns="http://www.w3.org/2000/svg"
   xmlns:svg="http://www.w3.org/2000/svg">
  <sodipodi:namedview
     id="namedview1240"
     pagecolor="#ffffff"
     bordercolor="#666666"
     borderopacity="1.0"
     inkscape:pageshadow="2"
     inkscape:pageopacity="0.0"
     inkscape:pagecheckerboard="0"
     inkscape:document-units="mm"
     showgrid="false"
     fit-margin-top="2"
     fit-margin-left="2"
     fit-margin-right="2"
     fit-margin-bottom="2"
     inkscape:zoom="10.618967"
     inkscape:cx="66.296465"
     inkscape:cy="63.188818"
     inkscape:window-width="2880"
     inkscape:window-height="1706"
     inkscape:window-x="4093"
     inkscape:window-y="-11"
     inkscape:window-maximized="1"
     inkscape:current-layer="layer1" />
  <defs
     id="defs1235" />
  <g
     inkscape:label="Layer 1"
     inkscape:groupmode="layer"
     id="layer1"
     transform="translate(-62.87386,-99.15254)">
    <path
       id="path84284"
       style="display:inline;fill:#ffcc00;fill-opacity:1;stroke:none;stroke-width:0.165437;stroke-miterlimit:4;stroke-dasharray:none;stroke-opacity:1"
       d="m 76.54224,101.15254 c -2.55116,0 -4.91217,0.82086 -6.83347,2.21243 0.22321,0.16654 0.40654,0.3807 0.53667,0.62692 1.77443,-1.26707 3.94773,-2.01225 6.2968,-2.01225 2.34965,0 4.52334,0.7457 6.29801,2.01335 0.12909,-0.24654 0.31141,-0.46127 0.53376,-0.62863 -1.92104,-1.39092 -4.28127,-2.21182 -6.83177,-2.21182 z m -7.95817,2.18589 c -0.84171,2e-5 -1.52404,0.68236 -1.52406,1.52407 2e-5,0.84171 0.68235,1.52404 1.52406,1.52406 0.84171,-2e-5 1.52405,-0.68235 1.52407,-1.52406 -2e-5,-0.84171 -0.68236,-1.52405 -1.52407,-1.52407 z m 15.91682,0 c -0.84171,2e-5 -1.52405,0.68236 -1.52407,1.52407 2e-5,0.84171 0.68236,1.52404 1.52407,1.52406 0.84171,-2e-5 1.52405,-0.68235 1.52407,-1.52406 -2e-5,-0.84171 -0.68236,-1.52405 -1.52407,-1.52407 z m -7.95841,0.1034 c -2.48748,3e-5 -4.87307,0.98821 -6.63196,2.74715 -3.66269,3.66274 -3.66269,9.60117 0,13.26391 3.66275,3.66269 9.60117,3.66269 13.26392,0 3.66269,-3.66274 3.66269,-9.60117 0,-13.26391 -1.75889,-1.75894 -4.14448,-2.74712 -6.63196,-2.74715 z m 0.0556,1.17292 c 0.22791,0.001 0.45567,0.0123 0.68267,0.0327 l -0.771,0.77088 -0.76481,-0.76481 c 0.28351,-0.0277 0.56828,-0.0407 0.85314,-0.0388 z m -1.52758,0.13328 1.05477,1.0549 -1.32631,1.32644 -1.32644,-1.32644 0.89508,-0.89507 c 0.23185,-0.0635 0.46637,-0.11687 0.7029,-0.15983 z m 2.96295,0.003 c 0.19998,0.037 0.39851,0.0814 0.59519,0.13316 l 0.96221,0.9622 -1.32632,1.32645 -1.32645,-1.32645 z m -5.48218,0.89919 0.10845,0.10845 -1.32632,1.32644 -0.32437,-0.32436 c 0.46934,-0.42865 0.98689,-0.80133 1.54224,-1.11053 z m 7.99559,0.007 c 0.55463,0.31011 1.07137,0.6836 1.53983,1.11294 l -0.35746,0.35757 -1.32644,-1.32644 z m -13.45948,0.32801 c -1.39223,1.92158 -2.21352,4.28321 -2.21352,6.83503 0,2.55031 0.82259,4.9089 2.21328,6.82984 0.16764,-0.22231 0.38267,-0.40451 0.62948,-0.53339 -1.26773,-1.77471 -2.01577,-3.94671 -2.01577,-6.29645 0,-2.35751 0.75067,-4.5379 2.02607,-6.31583 -0.24902,-0.12354 -0.46746,-0.30088 -0.63954,-0.5192 z m 18.91151,0.003 c -0.16732,0.22233 -0.38202,0.40465 -0.62852,0.53375 1.26759,1.77464 2.01323,3.94829 2.01323,6.29789 0,2.3493 -0.74774,4.52096 -2.01504,6.29547 0.24687,0.12878 0.46198,0.31091 0.62971,0.53316 1.39021,-1.92073 2.21244,-4.27885 2.21244,-6.82863 0,-2.55046 -0.82094,-4.91062 -2.21182,-6.83164 z m -12.91084,0.19787 1.32645,1.32643 -1.32645,1.32645 -1.32632,-1.32645 z m 6.88642,0.0432 1.32643,1.32633 -1.32643,1.32643 -1.32633,-1.32643 z m -3.42086,7e-4 1.32644,1.32643 -1.32644,1.32645 -1.32631,-1.32645 z m -6.03677,1.02666 0.32206,0.32219 -1.32644,1.32632 -0.1139,-0.11389 c 0.31213,-0.55309 0.6874,-1.06807 1.11828,-1.53462 z m 12.08203,0.0331 c 0.42871,0.46925 0.80146,0.98671 1.11075,1.54199 l -0.138,0.13802 -1.32632,-1.32631 z m -4.3352,0.65032 1.32644,1.32643 -1.32644,1.32632 -1.32644,-1.32632 z m -3.42083,8.6e-4 1.32631,1.32643 -1.32631,1.32632 -1.32646,-1.32632 z m -3.57573,0.0662 1.32645,1.32644 -1.32645,1.32643 -1.32642,-1.32643 z m 10.54986,0.0646 1.32644,1.32643 -1.32644,1.32644 -1.32644,-1.32644 z m -5.2642,1.57931 1.32644,1.32633 -1.32644,1.32643 -1.32632,-1.32643 z m -6.99644,0.0672 1.32632,1.32631 -1.32632,1.32632 -1.07731,-1.07731 c 0.0421,-0.21896 0.0931,-0.43611 0.15291,-0.65092 z m 3.46555,0.0437 1.32633,1.32644 -1.32633,1.32632 -1.32644,-1.32632 z m 7.08429,0.0206 1.32632,1.32632 -1.32632,1.32644 -1.32644,-1.32644 z m 3.42243,8.7e-4 0.94948,0.94947 c 0.0534,0.204 0.0989,0.40998 0.13645,0.61748 l -1.08593,1.08593 -1.32632,-1.32645 z m -8.79678,1.68848 1.32646,1.32633 -1.32646,1.32644 -1.3263,-1.32644 z m -3.42084,7e-4 1.32644,1.32643 -1.32644,1.32645 -1.32631,-1.32645 z m 7.08428,0.0206 1.32645,1.32644 -1.32645,1.32644 -1.32643,-1.32644 z m 3.42255,8.7e-4 1.32644,1.32644 -1.32644,1.32633 -1.32644,-1.32633 z m -13.43839,0.5117 0.77086,0.77088 -0.77669,0.77682 c -0.0468,-0.51494 -0.0448,-1.03314 0.006,-1.5477 z m 16.3336,0.10246 c 0.0442,0.50117 0.0422,1.00534 -0.006,1.50614 l -0.75004,-0.75005 z m -11.69198,1.07428 1.32645,1.32646 -1.32645,1.32643 -1.32644,-1.32643 z m -3.44241,0.0223 1.32643,1.32645 -1.32643,1.32642 -0.97784,-0.97795 c -0.0492,-0.18838 -0.0916,-0.37845 -0.12723,-0.56985 z m 10.52827,0 1.32645,1.32632 -1.32645,1.32643 -1.32632,-1.32643 z m 3.46557,0.0438 1.04181,1.04181 c -0.0458,0.24959 -0.1032,0.49692 -0.17194,0.7412 l -0.86987,0.86988 -1.32632,-1.32645 z m -6.99814,0.0653 1.32645,1.32644 -1.32645,1.32644 -1.32644,-1.32644 z m -5.28564,1.60077 1.32632,1.32644 -1.32632,1.32643 -1.32644,-1.32643 z m 10.57298,0.0447 1.32643,1.32643 -1.32643,1.32645 -1.32644,-1.32645 z m -6.99824,0.0655 1.32642,1.32632 -1.32642,1.32643 -1.32633,-1.32643 z m 3.42255,8.6e-4 1.32643,1.32632 -1.32643,1.32644 -1.32634,-1.32644 z m -8.75207,1.64378 1.32644,1.32645 -0.36423,0.36423 c -0.42946,-0.46836 -0.80306,-0.98502 -1.11331,-1.53958 z m 14.08242,0.0447 0.0933,0.0932 c -0.30933,0.55528 -0.68213,1.07275 -1.11089,1.54199 L 82.29,118.04069 Z m -7.04115,0.0223 1.32644,1.32644 -1.32644,1.32645 -1.32644,-1.32645 z m -3.44411,0.0207 1.32644,1.32643 -1.32644,1.32633 -1.32632,-1.32633 z m 6.90967,0.0231 1.32644,1.32644 -1.32644,1.32644 -1.32644,-1.32644 z m -5.1979,1.68861 1.32631,1.32631 -1.0961,1.09622 c -0.19847,-0.0362 -0.39554,-0.0797 -0.59081,-0.13037 l -0.96586,-0.96585 z m 3.48699,0.0223 1.32644,1.32645 -0.90163,0.90161 c -0.22615,0.0643 -0.45496,0.1189 -0.6858,0.16358 l -1.06532,-1.06532 z m -6.95341,0.0206 1.32631,1.32633 -0.14832,0.14831 c -0.55524,-0.3093 -1.07267,-0.68205 -1.54188,-1.11076 z m 10.4191,0.0231 0.30995,0.30995 c -0.46655,0.43084 -0.98153,0.80606 -1.53461,1.11815 l -0.10182,-0.10183 z m -13.21146,0.71865 c -0.84171,2e-5 -1.52405,0.68236 -1.52407,1.52407 2e-5,0.84171 0.68236,1.52404 1.52407,1.52406 0.84171,-2e-5 1.52405,-0.68235 1.52407,-1.52406 -2e-5,-0.84171 -0.68236,-1.52405 -1.52407,-1.52407 z m 15.9168,0 c -0.84171,3e-5 -1.52403,0.68236 -1.52405,1.52407 2e-5,0.8417 0.68235,1.52403 1.52405,1.52406 0.84171,-1e-5 1.52406,-0.68235 1.52408,-1.52406 -2e-5,-0.84172 -0.68236,-1.52406 -1.52408,-1.52407 z m -7.90339,0.96984 0.75876,0.75877 c -0.50707,0.0497 -1.01766,0.052 -1.52516,0.007 z m 6.24143,1.42143 c -1.77474,1.26783 -3.94684,2.0159 -6.29668,2.0159 -2.34973,0 -4.52174,-0.74805 -6.29644,-2.01577 -0.12882,0.24684 -0.31098,0.46191 -0.53326,0.6296 1.9209,1.39064 4.27946,2.21315 6.8297,2.21315 2.5503,0 4.90898,-0.82256 6.82995,-2.21328 -0.22228,-0.16769 -0.40444,-0.38276 -0.53327,-0.6296 z"
       sodipodi:nodetypes="sccsccsssssssssssssssssscccsscccccccccccccccccccccccsccsccccsccsccccccccccccccccccccccccccccccccccccccccccccccccccccccccccccccccccccccccccccccccccccccccccccccccccccccccccccccccccccccccccccccccccccccccccccccccccccccccccccccccccccccccccccccccccccccccccccccccccccsssssssssscccccsccscc" />
  </g>
</svg>
