<?xml version="1.0" encoding="utf-8"?>
<!-- Generator: Adobe Illustrator 27.2.0, SVG Export Plug-In . SVG Version: 6.00 Build 0)  -->
<svg version="1.1" id="Layer_1" xmlns="http://www.w3.org/2000/svg" xmlns:xlink="http://www.w3.org/1999/xlink" x="0px" y="0px"
	 width="200px" height="200px" viewBox="0 0 200 200" style="enable-background:new 0 0 200 200;" xml:space="preserve">
<style type="text/css">
	.st0{fill:#6E0D19;}
	.st1{fill:#442E07;enable-background:new    ;}
	.st2{fill:#442E07;}
</style>
<g>
	<g>
		<g>
			<g id="Warstwa_2_00000080897286157067116180000018128514612303856013_">
				<g id="Warstwa_1-2_00000172426434276422320680000013327941031143244208_">
					<g id="logotyp_00000111907519748099856710000008312137594950391693_">
						<path id="eye_00000074404133472173142100000010361517039498523551_" class="st0" d="M125.2,86.9c-1.8,2.2-3.8,3.5-6.6,3.7
							c-2.3,0.2-4.2,1.6-6,3c-3.7,3.1-6,8.8-6,9c2.9-5.2,7.8-9.5,12.8-10.2C122.5,92.1,125.1,87.1,125.2,86.9z"/>
						<g id="eye-2_00000101787351628690498340000016146052770105516729_">
							<path class="st0" d="M74.8,86.9c1.8,2.2,3.8,3.5,6.6,3.7c2.3,0.2,4.2,1.6,6,3c3.7,3.1,6,8.8,6,9c-2.9-5.2-7.8-9.5-12.8-10.2
								C77.5,92.1,74.9,87.1,74.8,86.9z"/>
						</g>
					</g>
				</g>
			</g>
		</g>
		<path id="main_00000062910534651732188410000011645293093287204235_" class="st1" d="M116.1,130.2c4.6-6.7,9.2-12.4,14.1-16.2
			c9.3-7.2,18-9.1,18-9.1s-1.7-1.9-3.4-4.1c-4.1,2.4-8.6,4.3-13.2,5.7c4.3-1.9,8.4-4.2,12.3-6.8c-1.5-2-2.7-3.9-2.4-4.4
			c0.9-1.1,3.9-2.8,3.9-2.8c-2.1-1.6-4-3.4-5.8-5.3c-1.2,2.1-4.9,5.3-5,5.4c1.3-1.8,3.5-5.1,4.1-6.3c-0.2-0.2-0.4-0.4-0.6-0.7
			c-1,1.5-2.3,3.2-2.4,3.4c0.7-1.1,1.5-3,1.9-3.9c-1.2-1.5-2.1-2.9-2.3-4.1c-0.6-4.1-0.9-5.1-0.9-5.1s-0.5,1.8-2.3,4.6
			c-2.1,3.2-0.6,4.5-5.1,11s-9.5,6.3-14.8,7.4c-5.3,1.1-6.9,9-6.9,9c0-2.5,0.9-6.7,2.3-10.2c1.4-3.5,4.6-6.7,13.4-11.4
			c8.8-4.8,9-6.7,12.4-13.1c3.4-6.4-0.2-20.1-0.2-20.1c0.4,18-9.9,21.8-9.9,21.8c4.9-5.8,6.9-9.9,7.4-17.4c0.2-3.2,0.3-6.8,0.3-9.9
			c0-3.1,0.3-6.2,0.8-9.2c-3.2,2.5-6.3,7.7-9.2,11.5c0.2,0.1,0.3,0.3,0.5,0.5c-0.5,0.4-0.9,0.7-1.3,0.8c-0.1,0-0.1,0-0.2-0.1
			c-0.2,0.2-0.4,0.4-0.5,0.6c-1.8,2.1-3.8,4-5.8,5.9c-3.8,3.4-6,3.4-6,3.4c-1.8,0.1-3.5,0-5.2-0.2c-2.6-0.3-3.7-1.7-4-2
			c-0.2,0.3-1.4,1.7-4,2c-1.8,0.2-3.5,0.3-5.2,0.2c0,0-2.2,0-6-3.4c-2.1-1.9-4-3.8-5.8-5.9c-3.3-3.7-6.9-10.3-10.6-13.2
			c0.5,3,0.7,6.2,0.8,9.2c0,3.1,0,6.7,0.3,9.9c0.5,7.6,2.5,11.6,7.4,17.4c0,0-10.2-3.7-9.9-21.8c0,0-3.6,13.8-0.2,20.1
			c3.4,6.4,3.6,8.3,12.4,13.1c8.8,4.8,12,7.9,13.4,11.4c1.4,3.5,2.3,7.8,2.3,10.2c0,0-1.6-7.9-6.9-9C82.5,97.8,77.6,98,73,91.5
			c-4.6-6.5-3.1-7.8-5.1-11c-1.8-2.8-2.3-4.6-2.3-4.6s-0.4,0.9-0.9,5.1c-0.2,1.2-1,2.6-2.3,4.1c0.5,0.9,1.3,2.8,1.9,3.9
			c-0.2-0.2-1.4-1.9-2.4-3.4c-0.2,0.2-0.4,0.4-0.6,0.7c0.6,1.2,2.8,4.4,4.1,6.3c-0.1-0.1-3.8-3.3-5-5.4c-1.8,1.9-3.7,3.7-5.8,5.3
			c0,0,3,1.8,3.9,2.8c0.4,0.5-0.9,2.4-2.4,4.4c3.9,2.6,7.9,4.9,12.3,6.8c-4.6-1.3-9-3.2-13.2-5.7c-1.7,2.1-3.4,4.1-3.4,4.1
			s8.7,1.9,18,9.1c4.9,3.8,9.5,9.5,14.1,16.2c-4.2-5.6-9.5-10.4-15.5-14c-5-3-10.3-5.6-15.7-7.6c0,0,9.3,8.5,12.3,19.3
			c0,0,7.7-0.5,9.5-1.6c0,0.2-1.9,5.1-1.8,6.2c0.2,1,16.7,12.8,27.3,29.3c10.6-16.4,27.2-28.3,27.3-29.3c0.2-1.1-1.7-6-1.8-6.2
			c1.8,1.1,9.5,1.6,9.5,1.6c0.4-1.4,0.9-2.8,1.4-4.1c-0.3-0.1-0.6-0.3-0.9-0.5c-0.4-0.3-0.5-1.6-0.3-1.8c0.9-0.8,1.7-0.7,2.3-0.2
			c0.7-1.4,1.5-2.7,2.3-4l0,0c2.1-3.2,4.5-6.1,7.2-8.7c-5.5,2-10.8,4.6-15.7,7.6C125.6,119.9,120.4,124.7,116.1,130.2z M124.4,81.5
			c0.2,0.1,0.4,0.2,0.6,0.4c-0.2,0.4-0.4,0.7-0.6,1.1c0,0-0.4-0.2-0.6-0.2C124,82.3,124.2,81.9,124.4,81.5z M127.4,66.6
			c0.1,0.1,0.2,0.2,0.3,0.2c-0.1,0.2-0.1,0.3-0.2,0.4c-0.1-0.1-0.2-0.2-0.3-0.3C127.2,66.8,127.3,66.7,127.4,66.6L127.4,66.6z
			 M114.7,60.8c0.2,0.5,0.4,1,0.6,1.5c-0.2,0.1-0.4,0.2-0.6,0.3c-0.2-0.5-0.4-1-0.6-1.5L114.7,60.8z M74.2,63.4
			c0-0.1-0.1-0.2-0.2-0.4c0.1-0.1,0.2-0.2,0.3-0.2c0.1,0.1,0.2,0.2,0.2,0.3C74.5,63.2,74.4,63.3,74.2,63.4z M77.3,79.2
			c-0.2-0.3-0.4-0.7-0.6-1.1c0.2-0.1,0.4-0.2,0.6-0.4c0.2,0.4,0.4,0.7,0.7,1.1C77.7,79,77.4,79.2,77.3,79.2L77.3,79.2z M53.5,105.3
			c0,0-0.1,0-0.1-0.1c0,0,0-0.1,0-0.1c0,0,0.1,0,0.1,0C53.5,105.1,53.5,105.2,53.5,105.3z M53.6,104.1c-0.1,0-0.2,0-0.2,0
			c0-0.2,0-0.4,0.1-0.6c0.1,0,0.1,0,0.2,0C53.6,103.6,53.6,103.9,53.6,104.1L53.6,104.1z M60.4,117.2c0,0-0.1,0-0.1-0.1
			c0,0,0-0.1,0-0.2c0,0,0.1,0,0.2-0.1C60.4,117,60.4,117.1,60.4,117.2L60.4,117.2z M62,113.8c-0.1,0-0.2-0.1-0.4-0.2
			c0-0.2,0.1-0.3,0.2-0.5c0.1,0,0.4,0.1,0.4,0.2C62.1,113.4,62,113.6,62,113.8L62,113.8z M66.1,119.6c-1.4,1.1-2.6,0.7-3.5-0.9
			c1.2-0.7,2.2-2.3,3.9-0.9C66.6,118,66.4,119.4,66.1,119.6L66.1,119.6z M77.6,125.7c-0.2,0-0.3,0-0.4,0c0-0.3,0.1-0.6,0.2-0.9
			c0.1,0,0.2,0,0.3,0C77.7,125.1,77.6,125.4,77.6,125.7L77.6,125.7z M78.3,127.3c-0.2-0.3-0.4-0.5-0.4-0.7c0-0.1,0.2-0.3,0.3-0.4
			c0.2,0.2,0.3,0.3,0.5,0.5C78.8,126.8,78.6,127,78.3,127.3L78.3,127.3z M79.5,120.8c-0.1,0-0.3-0.2-0.8-0.5
			c0.4-0.1,0.5-0.2,0.7-0.2s0.3,0.2,0.4,0.3C79.7,120.6,79.6,120.8,79.5,120.8L79.5,120.8z M99.7,158.9c-0.4-0.5-0.8-0.8-0.7-1.1
			c0.1-0.4,0.5-0.6,0.8-1c0.3,0.3,0.7,0.5,0.7,0.8C100.5,157.9,100.1,158.2,99.7,158.9L99.7,158.9z M99.7,154.8h0.1l0,0.1
			L99.7,154.8z M102.7,152.8c0,0-0.1-0.1-0.2-0.1c0.1-0.2,0.3-0.4,0.4-0.5c0.1,0.1,0.2,0.1,0.2,0.2
			C103,152.5,102.8,152.6,102.7,152.8L102.7,152.8z M114.2,144.5c-0.2-0.1-0.3-0.1-0.4-0.2c0.1-0.1,0.2-0.2,0.3-0.3
			c0,0,0.2,0.1,0.3,0.2C114.3,144.3,114.2,144.4,114.2,144.5L114.2,144.5z M115.1,110.2c-1.6,1.8-2.7,4.9-3,9.3
			c-0.5,9.8-2.1,15.5-2.1,15.5c-2.8,6.9-8.5,8.5-10,8.8c-1.5-0.3-7.1-1.9-10-8.8c0,0-1.6-5.8-2.1-15.5c-0.2-4.3-1.4-7.5-3-9.3
			c-1.9-2.2-6.7-2.6-6.7-2.6s6.4-1.2,9.6,3.5c3.4,4.9,2.1,14.5,2.1,14.5s1.1-1.5,1.2-4.9c1.8,1.9,2.9,4.2,3.2,6.7
			c0.6-0.7,1.5-1.1,2.4-1.2c0.5,0,1.9-0.2,3.2-0.2c1.4,0,2.7,0.1,3.2,0.2c0.9,0.1,1.8,0.5,2.4,1.2c0.3-2.5,1.4-4.9,3.2-6.7
			c0.1,3.4,1.2,4.9,1.2,4.9s-1.2-9.5,2.1-14.5c3.2-4.7,9.6-3.5,9.6-3.5S117.1,107.9,115.1,110.2L115.1,110.2z M118.7,132.1
			c-0.1-0.2-0.2-0.4-0.2-0.6c0.5-0.2,1-0.4,1.5-0.6l0.3,0.7C119.6,131.8,119.2,131.9,118.7,132.1L118.7,132.1z M121.9,124.3
			c0.1-0.1,0.2-0.3,0.4-0.3c0.2,0,0.4,0.1,0.7,0.2c-0.5,0.3-0.7,0.5-0.8,0.5C122.1,124.6,122,124.4,121.9,124.3z M123.4,131.1
			c-0.2-0.3-0.4-0.5-0.4-0.5c0.1-0.2,0.3-0.4,0.5-0.5c0.1,0.1,0.4,0.3,0.3,0.4C123.7,130.6,123.5,130.8,123.4,131.1z M124.1,129.5
			c0-0.3,0-0.6,0-0.9c0.1,0,0.2,0,0.3,0c0,0.3,0.1,0.6,0.2,0.9C124.4,129.5,124.2,129.5,124.1,129.5z"/>
		<path id="nose_00000116931362872805230400000003746867990961856702_" class="st1" d="M107.8,134.3c-0.6,5.1-5.4,7-7.8,7.6
			c-0.2-0.1-0.5-0.2-0.8-0.2c0.1-0.1,0.1-0.2,0.2-0.4c-0.4-0.2-0.7-0.4-1.1-0.7c-0.1,0.2-0.2,0.4-0.2,0.6c-2.4-1-5.4-3-5.8-6.9
			c-0.2-1.5-0.2-3-0.2-4.4c0-1.6,0.3-3.3,0.7-4.9c0.9,1,1.1,2.9,1.1,2.9c-1.4,4.2,0.3,6,1.2,6.8s1.8-0.2,1.6-1.1
			c-0.2-0.6-0.5-1.2-0.7-1.7c0,0,2.7,0.7,3.1,2.4s-1.1,1.6-1.1,1.6c-2.6-0.3-2.4,0.8-2.4,0.8c0,1.4,3.4,2.5,4.6,2.9
			c1.2-0.4,4.6-1.6,4.6-2.9c0,0,0.2-1.1-2.4-0.8c0,0-1.6,0.2-1.1-1.6s3.1-2.4,3.1-2.4c-0.3,0.5-0.5,1.1-0.7,1.7
			c-0.3,0.8,0.7,1.9,1.6,1.1s2.7-2.6,1.2-6.8c0,0,0.1-1.9,1.1-2.9c0.4,1.6,0.7,3.2,0.7,4.9C108,131.3,108,132.8,107.8,134.3z"/>
	</g>
	<path class="st2" d="M100,10.7c-49.3,0-89.3,40-89.3,89.3s40,89.3,89.3,89.3s89.3-40,89.3-89.3S149.3,10.7,100,10.7z M100,183.2
		c-45.9,0-83.2-37.2-83.2-83.2S54.1,16.8,100,16.8s83.2,37.2,83.2,83.2S145.9,183.2,100,183.2z"/>
</g>
</svg>
