<svg width="200" height="200" viewBox="0 0 200 200" fill="none" xmlns="http://www.w3.org/2000/svg">
<rect width="200" height="200" fill="black"/>
<path d="M121.734 94.5867C127.584 94.5867 132.343 99.3461 132.343 105.196C132.343 111.045 127.584 115.805 121.734 115.805C115.884 115.805 111.125 111.045 111.125 105.196C111.125 99.3404 115.884 94.5867 121.734 94.5867ZM121.734 112.878C125.974 112.878 129.421 109.431 129.421 105.191C129.421 100.951 125.974 97.5035 121.734 97.5035C117.494 97.5035 114.047 100.951 114.047 105.191C114.047 109.431 117.494 112.878 121.734 112.878Z" fill="white"/>
<path d="M121.734 70.6138C127.584 70.6138 132.343 75.3734 132.343 81.2229C132.343 87.0724 127.584 91.832 121.734 91.832C115.884 91.832 111.125 87.0724 111.125 81.2229C111.125 75.3734 115.884 70.6138 121.734 70.6138ZM121.734 88.9096C125.974 88.9096 129.421 85.4624 129.421 81.2224C129.421 76.9878 125.974 73.5352 121.734 73.5352C117.494 73.5352 114.047 76.9821 114.047 81.2224C114.047 85.4568 117.494 88.9096 121.734 88.9096Z" fill="white"/>
<path d="M132.343 57.2502C132.343 63.1 127.584 67.8594 121.734 67.8594C115.884 67.8594 111.125 63.1 111.125 57.2502C111.125 51.4007 115.884 46.6414 121.734 46.6414C127.584 46.6414 132.343 51.4007 132.343 57.2502ZM114.047 57.2502C114.047 61.4905 117.494 64.9374 121.735 64.9374C125.975 64.9374 129.422 61.4905 129.422 57.2502C129.422 53.0102 125.975 49.5633 121.735 49.5633C117.494 49.5633 114.047 53.0158 114.047 57.2502Z" fill="white"/>
<path d="M97.7029 115.805C91.8534 115.805 87.0938 111.045 87.0938 105.196C87.0938 99.3461 91.8534 94.5864 97.7029 94.5864C103.552 94.5864 108.312 99.3461 108.312 105.196C108.312 111.045 103.552 115.805 97.7029 115.805ZM97.7029 97.5133C93.4682 97.5133 90.0157 100.96 90.0157 105.2C90.0157 109.441 93.4626 112.888 97.7029 112.888C101.943 112.888 105.39 109.441 105.39 105.2C105.39 100.96 101.943 97.5133 97.7029 97.5133Z" fill="white"/>
<path d="M97.7029 70.6138C103.552 70.6138 108.312 75.3734 108.312 81.2229C108.312 87.0724 103.552 91.832 97.7029 91.832C91.8534 91.832 87.0938 87.0724 87.0938 81.2229C87.0938 75.3734 91.8534 70.6138 97.7029 70.6138ZM97.7029 88.9096C101.943 88.9096 105.39 85.4624 105.39 81.2224C105.39 76.988 101.943 73.5352 97.7029 73.5352C93.4682 73.5352 90.0157 76.9821 90.0157 81.2224C90.0157 85.4568 93.4682 88.9096 97.7029 88.9096Z" fill="white"/>
<path d="M108.312 57.2502C108.312 63.1 103.552 67.8594 97.7029 67.8594C91.8531 67.8594 87.0938 63.1 87.0938 57.2502C87.0938 51.4007 91.8531 46.6414 97.7029 46.6414C103.552 46.6414 108.312 51.4007 108.312 57.2502ZM97.7029 49.5633C93.4682 49.5633 90.0157 53.0102 90.0157 57.2502C90.0157 61.4905 93.4626 64.9374 97.7029 64.9374C101.943 64.9374 105.39 61.4905 105.39 57.2502C105.39 53.0158 101.943 49.5633 97.7029 49.5633Z" fill="white"/>
<path d="M73.6873 94.5867C79.5368 94.5867 84.2964 99.3461 84.2964 105.196C84.2964 111.045 79.5368 115.805 73.6873 115.805C67.8377 115.805 63.0781 111.045 63.0781 105.196C63.0838 99.3404 67.8377 94.5867 73.6873 94.5867ZM73.6873 112.878C77.9217 112.878 81.3745 109.431 81.3745 105.191C81.3745 100.951 77.9273 97.5035 73.6873 97.5035C69.447 97.5035 66.0001 100.951 66.0001 105.191C66.0057 109.431 69.4529 112.878 73.6873 112.878Z" fill="white"/>
<path d="M73.6873 70.6138C79.5368 70.6138 84.2964 75.3734 84.2964 81.2229C84.2964 87.0724 79.5368 91.832 73.6873 91.832C67.8377 91.832 63.0781 87.0724 63.0781 81.2229C63.0838 75.3734 67.8377 70.6138 73.6873 70.6138ZM73.6873 88.9096C77.9217 88.9096 81.3745 85.4624 81.3745 81.2224C81.3745 76.9878 77.9273 73.5352 73.6873 73.5352C69.447 73.5352 66.0001 76.9821 66.0001 81.2224C66.0057 85.4568 69.4529 88.9096 73.6873 88.9096Z" fill="white"/>
<path d="M84.2961 57.2502C84.2961 63.1 79.5368 67.8594 73.6873 67.8594C67.8375 67.8594 63.0781 63.1 63.0781 57.2502C63.0781 51.4007 67.8375 46.6414 73.6873 46.6414C79.5368 46.6414 84.2961 51.4007 84.2961 57.2502ZM73.6873 49.5633C69.447 49.5633 66.0001 53.0102 66.0001 57.2502C66.0001 61.4905 69.447 64.9374 73.6873 64.9374C77.9217 64.9374 81.3742 61.4905 81.3742 57.2502C81.3742 53.0158 77.9273 49.5633 73.6873 49.5633Z" fill="white"/>
<path d="M49.9451 70.6177C55.7946 70.6177 60.5542 75.3773 60.5542 81.2268C60.5542 87.0763 55.7946 91.8359 49.9451 91.8359C44.0956 91.8359 39.3359 87.0763 39.3359 81.2268C39.3359 75.3773 44.0956 70.6177 49.9451 70.6177ZM49.9451 88.9133C54.1797 88.9133 57.6323 85.4663 57.6323 81.2263C57.6323 76.9917 54.1853 73.5391 49.9451 73.5391C45.705 73.5391 42.2579 76.986 42.2579 81.2263C42.2579 85.4607 45.7107 88.9133 49.9451 88.9133Z" fill="white"/>
<path d="M49.9451 46.6411C55.7946 46.6411 60.5542 51.4005 60.5542 57.2502C60.5542 63.0997 55.7946 67.8594 49.9451 67.8594C44.0956 67.8594 39.3359 63.0997 39.3359 57.2502C39.3359 51.4005 44.0956 46.6411 49.9451 46.6411ZM49.9451 64.9367C54.1797 64.9367 57.6323 61.4898 57.6323 57.2495C57.6323 53.0095 54.1853 49.5626 49.9451 49.5626C45.705 49.5626 42.2579 53.0095 42.2579 57.2495C42.2579 61.4898 45.7107 64.9367 49.9451 64.9367Z" fill="white"/>
<path d="M49.9451 94.5864C55.7946 94.5864 60.5542 99.3461 60.5542 105.196C60.5542 111.045 55.7946 115.805 49.9451 115.805C44.0956 115.805 39.3359 111.045 39.3359 105.196C39.3359 99.3404 44.0956 94.5864 49.9451 94.5864ZM49.9451 112.878C54.1797 112.878 57.6323 109.431 57.6323 105.191C57.6323 100.95 54.1853 97.5035 49.9451 97.5035C45.705 97.5035 42.2579 100.95 42.2579 105.191C42.2579 109.431 45.7107 112.878 49.9451 112.878Z" fill="white"/>
<path d="M121.734 118.563C127.584 118.563 132.343 123.323 132.343 129.172C132.343 135.022 127.584 139.781 121.734 139.781C115.884 139.781 111.125 135.022 111.125 129.172C111.125 123.323 115.884 118.563 121.734 118.563ZM121.734 136.859C125.974 136.859 129.421 133.412 129.421 129.172C129.421 124.931 125.974 121.484 121.734 121.484C117.494 121.484 114.047 124.931 114.047 129.172C114.047 133.412 117.494 136.859 121.734 136.859Z" fill="white"/>
<path d="M145.898 115.805C140.049 115.805 135.289 111.045 135.289 105.196C135.289 99.3461 140.049 94.5864 145.898 94.5864C151.748 94.5864 156.507 99.3461 156.507 105.196C156.507 111.045 151.748 115.805 145.898 115.805ZM145.898 97.5135C141.658 97.5135 138.211 100.96 138.211 105.201C138.211 109.441 141.658 112.888 145.898 112.888C150.138 112.888 153.585 109.441 153.585 105.201C153.585 100.96 150.138 97.5135 145.898 97.5135Z" fill="white"/>
<path d="M145.898 91.832C140.049 91.832 135.289 87.0724 135.289 81.2229C135.289 75.3734 140.049 70.6138 145.898 70.6138C151.748 70.6138 156.507 75.3734 156.507 81.2229C156.507 87.0724 151.748 91.832 145.898 91.832ZM145.898 73.5362C141.658 73.5362 138.211 76.9834 138.211 81.2234C138.211 85.4637 141.658 88.9106 145.898 88.9106C150.138 88.9106 153.585 85.4637 153.585 81.2234C153.585 76.9834 150.138 73.5362 145.898 73.5362Z" fill="white"/>
<path d="M145.898 67.8594C140.049 67.8594 135.289 63.1 135.289 57.2502C135.289 51.4007 140.049 46.6411 145.898 46.6411C151.748 46.6411 156.507 51.4007 156.507 57.2502C156.507 63.1 151.748 67.8594 145.898 67.8594ZM145.898 49.5638C141.658 49.5638 138.211 53.0107 138.211 57.251C138.211 61.491 141.658 64.9382 145.898 64.9382C150.138 64.9382 153.585 61.491 153.585 57.251C153.585 53.0163 150.138 49.5638 145.898 49.5638Z" fill="white"/>
<path d="M145.898 22.6646C151.748 22.6646 156.507 27.4242 156.507 33.2737C156.507 39.1232 151.748 43.8828 145.898 43.8828C140.049 43.8828 135.289 39.1232 135.289 33.2737C135.289 27.4242 140.049 22.6646 145.898 22.6646ZM145.898 40.9601C150.138 40.9601 153.585 37.5132 153.585 33.2732C153.585 29.0329 150.138 25.586 145.898 25.586C141.658 25.586 138.211 29.0329 138.211 33.2732C138.211 37.5076 141.658 40.9601 145.898 40.9601Z" fill="white"/>
<path d="M135.289 129.172C135.289 123.323 140.048 118.563 145.898 118.563C151.748 118.563 156.507 123.323 156.507 129.172C156.507 135.022 151.748 139.781 145.898 139.781C140.048 139.781 135.289 135.022 135.289 129.172ZM145.898 136.859C150.138 136.859 153.585 133.412 153.585 129.172C153.585 124.932 150.138 121.485 145.898 121.485C141.658 121.485 138.211 124.932 138.211 129.172C138.211 133.412 141.658 136.859 145.898 136.859Z" fill="white"/>
<path d="M97.7029 139.781C91.8534 139.781 87.0938 135.022 87.0938 129.172C87.0938 123.323 91.8534 118.563 97.7029 118.563C103.552 118.563 108.312 123.323 108.312 129.172C108.312 135.022 103.552 139.781 97.7029 139.781ZM97.7029 121.486C93.4682 121.486 90.0157 124.933 90.0157 129.173C90.0157 133.413 93.4626 136.86 97.7029 136.86C101.943 136.86 105.39 133.413 105.39 129.173C105.39 124.938 101.943 121.486 97.7029 121.486Z" fill="white"/>
<path d="M73.6873 118.563C79.5368 118.563 84.2964 123.323 84.2964 129.172C84.2964 135.022 79.5368 139.781 73.6873 139.781C67.8377 139.781 63.0781 135.022 63.0781 129.172C63.0838 123.323 67.8377 118.563 73.6873 118.563ZM73.6873 136.859C77.9217 136.859 81.3745 133.412 81.3745 129.172C81.3745 124.931 77.9273 121.484 73.6873 121.484C69.447 121.484 66.0001 124.931 66.0001 129.172C66.0057 133.412 69.4529 136.859 73.6873 136.859Z" fill="white"/>
<path d="M49.9451 118.563C55.7946 118.563 60.5542 123.323 60.5542 129.172C60.5542 135.022 55.7946 139.781 49.9451 139.781C44.0956 139.781 39.3359 135.022 39.3359 129.172C39.3359 123.323 44.0956 118.563 49.9451 118.563ZM49.9451 136.859C54.1797 136.859 57.6323 133.412 57.6323 129.172C57.6323 124.931 54.1853 121.484 49.9451 121.484C45.705 121.484 42.2579 124.931 42.2579 129.172C42.2579 133.412 45.7107 136.859 49.9451 136.859Z" fill="white"/>
<path d="M156.508 162.022V145.685H154.037L147.258 148.92L148.916 152.183L152.137 150.647V162.022H147.909V165.637H160.257V162.022H156.508Z" fill="white"/>
<path d="M144.761 162.022H134.207C134.327 160.494 135.439 159.844 137.772 158.79C141.017 157.298 144.759 156.11 144.759 151.376C144.759 146.566 141.018 145.274 136.756 145.274C134.256 145.274 131.927 145.714 130.051 146.479L131.598 149.764C133.07 149.335 134.762 149.126 136.325 149.126C139.017 149.126 140.342 149.71 140.342 151.692C140.342 153.22 139.656 153.62 136.164 155.172C132.897 156.581 129.742 158.025 129.703 161.876V165.637H144.761V162.022Z" fill="white"/>
<path d="M115.981 162.022H112.481V148.715H115.981C119.672 148.715 122.018 151.323 122.018 155.367C122.018 159.412 119.672 162.022 115.981 162.022ZM116.334 145.098H108.109V165.637H116.334C122.442 165.637 126.465 161.273 126.465 155.367C126.465 149.461 122.442 145.098 116.334 145.098Z" fill="white"/>
<path d="M104.943 162.022H95.7311V145.098H91.3594V165.637H104.943V162.022Z" fill="white"/>
<path d="M86.4811 165.637V145.098H82.1094V165.637H86.4811Z" fill="white"/>
<path d="M77.4008 145.098L73.0303 145.101V158.258C73.0303 160.781 71.1483 162.303 68.5795 162.304C66.0228 162.303 64.1284 160.777 64.1284 158.258V145.101L59.7578 145.098V158.258C59.7578 163.023 63.7302 166.047 68.5814 166.047C73.46 166.047 77.4008 163.023 77.4008 158.258V145.098Z" fill="white"/>
<path d="M49.0117 162.15H43.7075V156.753H49.0117C50.5085 156.753 51.6368 157.751 51.627 159.438C51.627 161.158 50.4965 162.15 49.0117 162.15ZM43.7075 148.584H47.8495C49.172 148.584 50.1539 149.461 50.1441 150.988C50.1441 152.522 49.162 153.391 47.8495 153.391H43.7075V148.584ZM52.4507 154.639C53.7495 153.803 54.5928 152.394 54.5928 150.606C54.6146 147.288 52.0051 145.098 48.7543 145.1H39.3359V165.637H43.7075V165.633H49.7225C53.2345 165.633 56.0737 163.275 56.0737 159.642C56.0896 157.165 54.5869 155.34 52.4507 154.639Z" fill="white"/>
</svg>
