<?xml version="1.0" encoding="UTF-8"?>
<!DOCTYPE svg PUBLIC "-//W3C//DTD SVG 1.1//EN" "http://www.w3.org/Graphics/SVG/1.1/DTD/svg11.dtd">
<svg xmlns="http://www.w3.org/2000/svg" version="1.1" width="200px" height="200px" style="shape-rendering:geometricPrecision; text-rendering:geometricPrecision; image-rendering:optimizeQuality; fill-rule:evenodd; clip-rule:evenodd" xmlns:xlink="http://www.w3.org/1999/xlink">
<g><path style="opacity:1" fill="#981ceb" d="M -0.5,-0.5 C 66.1667,-0.5 132.833,-0.5 199.5,-0.5C 199.5,66.1667 199.5,132.833 199.5,199.5C 132.833,199.5 66.1667,199.5 -0.5,199.5C -0.5,132.833 -0.5,66.1667 -0.5,-0.5 Z"/></g>
<g><path style="opacity:1" fill="#4e0c18" d="M 88.5,30.5 C 120.677,28.6752 146.177,40.6752 165,66.5C 169.643,73.4575 172.309,81.1242 173,89.5C 176.831,93.6483 177.331,98.1483 174.5,103C 186.403,119.161 186.236,135.328 174,151.5C 153.172,172.561 127.839,182.895 98,182.5C 66.7247,182.524 41.3914,170.524 22,146.5C 13.3221,132.649 12.3221,118.316 19,103.5C 21.111,101.898 22.611,99.8983 23.5,97.5C 18.8305,90.6823 19.6639,84.6823 26,79.5C 38.7807,52.885 59.614,36.5517 88.5,30.5 Z"/></g>
<g><path style="opacity:1" fill="#fbeae4" d="M 161.5,66.5 C 161.19,67.7383 160.69,67.7383 160,66.5C 157.908,63.319 155.575,60.319 153,57.5C 154.037,62.2719 155.704,66.9385 158,71.5C 160.523,81.5697 158.023,90.0697 150.5,97C 147.854,97.4974 145.187,97.6641 142.5,97.5C 140.143,97.6633 137.81,97.4966 135.5,97C 134.944,96.6174 134.611,96.1174 134.5,95.5C 133.726,92.6191 132.393,89.9524 130.5,87.5C 129.575,86.4376 128.575,86.4376 127.5,87.5C 124.403,80.4381 119.07,75.9381 111.5,74C 91.518,70.6931 71.518,67.5264 51.5,64.5C 49.5477,64.0051 47.5477,63.6718 45.5,63.5C 42.6789,63.7777 40.0122,64.2777 37.5,65C 57.6733,39.0905 84.0067,29.0905 116.5,35C 135.556,39.9169 150.556,50.4169 161.5,66.5 Z"/></g>
<g><path style="opacity:1" fill="#f8a9a8" d="M 129.5,51.5 C 132.524,51.3642 134.024,52.6975 134,55.5C 131.507,56.9455 129.673,56.2789 128.5,53.5C 128.863,52.8165 129.196,52.1499 129.5,51.5 Z"/></g>
<g><path style="opacity:1" fill="#f7acaa" d="M 126.5,64.5 C 129.084,65.0483 130.084,66.715 129.5,69.5C 126.722,69.9783 124.722,68.9783 123.5,66.5C 124.602,65.8243 125.602,65.1577 126.5,64.5 Z"/></g>
<g><path style="opacity:1" fill="#f5e7e7" d="M 51.5,65.5 C 68.611,68.811 85.9443,71.6443 103.5,74C 108.584,75.3768 113.251,77.5435 117.5,80.5C 118.931,83.3538 119.764,86.3538 120,89.5C 115.268,80.541 107.768,75.7077 97.5,75C 80.3671,72.2399 63.2004,69.7399 46,67.5C 40.1805,67.2692 35.3471,69.2692 31.5,73.5C 32.8803,70.4483 35.2136,68.2817 38.5,67C 42.7305,65.7101 47.0638,65.2101 51.5,65.5 Z"/></g>
<g><path style="opacity:1" fill="#fbd6cf" d="M 161.5,66.5 C 162.401,67.2905 163.068,68.2905 163.5,69.5C 163.713,74.4138 164.38,79.2471 165.5,84C 165.449,88.7608 164.449,93.2608 162.5,97.5C 158.215,98.2949 153.881,98.6282 149.5,98.5C 146.941,98.8016 144.607,98.4682 142.5,97.5C 145.187,97.6641 147.854,97.4974 150.5,97C 158.023,90.0697 160.523,81.5697 158,71.5C 155.704,66.9385 154.037,62.2719 153,57.5C 155.575,60.319 157.908,63.319 160,66.5C 160.69,67.7383 161.19,67.7383 161.5,66.5 Z"/></g>
<g><path style="opacity:1" fill="#f5a7a6" d="M 147.5,79.5 C 151.35,79.7007 152.35,81.5341 150.5,85C 145.664,85.0251 144.664,83.1918 147.5,79.5 Z"/></g>
<g><path style="opacity:1" fill="#e5a3a5" d="M 23.5,82.5 C 24.3764,82.3691 25.0431,82.7025 25.5,83.5C 24.9752,85.9879 24.1419,88.3213 23,90.5C 22.3985,87.7795 22.5651,85.1128 23.5,82.5 Z"/></g>
<g><path style="opacity:1" fill="#f2adae" d="M 163.5,69.5 C 168.807,76.596 170.974,84.596 170,93.5C 167.843,95.495 165.343,96.8283 162.5,97.5C 164.449,93.2608 165.449,88.7608 165.5,84C 164.38,79.2471 163.713,74.4138 163.5,69.5 Z"/></g>
<g><path style="opacity:1" fill="#f9b6b5" d="M 134.5,95.5 C 132.958,94.6993 131.292,94.366 129.5,94.5C 129.233,92.0347 128.566,89.7014 127.5,87.5C 128.575,86.4376 129.575,86.4376 130.5,87.5C 132.393,89.9524 133.726,92.6191 134.5,95.5 Z"/></g>
<g><path style="opacity:1" fill="#f6aeb2" d="M 173.5,92.5 C 173.703,94.3904 173.037,95.8904 171.5,97C 163.45,101.679 154.783,103.512 145.5,102.5C 149.232,100.869 153.232,99.8693 157.5,99.5C 164.14,99.8405 169.473,97.5072 173.5,92.5 Z"/></g>
<g><path style="opacity:1" fill="#d86579" d="M 173.5,92.5 C 174.915,96.2135 174.581,99.8802 172.5,103.5C 163.803,108.209 154.47,109.709 144.5,108C 145.406,106.301 145.739,104.467 145.5,102.5C 154.783,103.512 163.45,101.679 171.5,97C 173.037,95.8904 173.703,94.3904 173.5,92.5 Z"/></g>
<g><path style="opacity:1" fill="#581218" d="M 51.5,64.5 C 71.518,67.5264 91.518,70.6931 111.5,74C 119.07,75.9381 124.403,80.4381 127.5,87.5C 128.566,89.7014 129.233,92.0347 129.5,94.5C 131.292,94.366 132.958,94.6993 134.5,95.5C 134.611,96.1174 134.944,96.6174 135.5,97C 137.81,97.4966 140.143,97.6633 142.5,97.5C 144.607,98.4682 146.941,98.8016 149.5,98.5C 151.948,99.4731 154.615,99.8064 157.5,99.5C 153.232,99.8693 149.232,100.869 145.5,102.5C 145.739,104.467 145.406,106.301 144.5,108C 154.47,109.709 163.803,108.209 172.5,103.5C 173.506,103.938 173.506,104.604 172.5,105.5C 169.524,107.664 166.191,109.164 162.5,110C 155.174,110.5 147.841,110.666 140.5,110.5C 136.355,110.33 132.355,110.997 128.5,112.5C 122.036,124.236 112.369,128.569 99.5,125.5C 104.28,125.882 107.614,125.549 109.5,124.5C 115.064,122.105 119.231,118.105 122,112.5C 123.201,107.061 124.034,101.561 124.5,96C 124.592,93.1789 123.926,90.6789 122.5,88.5C 121.617,85.2957 119.95,82.6291 117.5,80.5C 113.251,77.5435 108.584,75.3768 103.5,74C 85.9443,71.6443 68.611,68.811 51.5,65.5C 51.5,65.1667 51.5,64.8333 51.5,64.5 Z"/></g>
<g><path style="opacity:1" fill="#d35e74" d="M 133.5,97.5 C 137.317,101.173 137.317,105.007 133.5,109C 128.841,110.651 126.174,109.151 125.5,104.5C 126.5,104.5 127.5,104.5 128.5,104.5C 129.412,101.594 131.078,99.2609 133.5,97.5 Z"/></g>
<g><path style="opacity:1" fill="#d76275" d="M 137.5,100.5 C 138.404,101.209 138.737,102.209 138.5,103.5C 140.167,103.5 141.833,103.5 143.5,103.5C 143.465,108.378 141.132,109.711 136.5,107.5C 137.374,105.253 137.708,102.92 137.5,100.5 Z"/></g>
<g><path style="opacity:1" fill="#46070c" d="M 133.5,101.5 C 134.844,103.185 134.677,104.852 133,106.5C 132.36,104.735 132.527,103.068 133.5,101.5 Z"/></g>
<g><path style="opacity:1" fill="#f6b1b0" d="M 133.5,97.5 C 131.078,99.2609 129.412,101.594 128.5,104.5C 127.5,104.5 126.5,104.5 125.5,104.5C 125.288,98.357 127.955,96.0236 133.5,97.5 Z"/></g>
<g><path style="opacity:1" fill="#fbabac" d="M 137.5,100.5 C 138.946,99.3871 140.613,99.2204 142.5,100C 143.337,101.011 143.67,102.178 143.5,103.5C 141.833,103.5 140.167,103.5 138.5,103.5C 138.737,102.209 138.404,101.209 137.5,100.5 Z"/></g>
<g><path style="opacity:1" fill="#df7786" d="M 119.5,79.5 C 123.564,83.1225 126.231,87.6225 127.5,93C 127.167,93.8333 126.833,94.6667 126.5,95.5C 125.231,89.6361 122.898,84.3028 119.5,79.5 Z"/></g>
<g><path style="opacity:1" fill="#d56176" d="M 73.5,98.5 C 71.4727,98.3379 69.4727,98.5045 67.5,99C 63.8128,102.21 60.9794,106.044 59,110.5C 57.786,112.049 56.286,113.215 54.5,114C 48.9836,114.817 43.6503,114.651 38.5,113.5C 43.1785,113.666 47.8452,113.499 52.5,113C 53.9423,112.623 54.9423,111.79 55.5,110.5C 58.0638,107.72 60.3971,104.72 62.5,101.5C 63.9616,100.542 65.2949,99.3756 66.5,98C 69.0385,97.2042 71.3718,97.3709 73.5,98.5 Z"/></g>
<g><path style="opacity:1" fill="#f9a3a4" d="M 117.5,80.5 C 119.95,82.6291 121.617,85.2957 122.5,88.5C 122.424,93.9647 122.258,99.6314 122,105.5C 119.969,118.367 112.469,124.367 99.5,123.5C 92.2901,123.313 87.1235,119.98 84,113.5C 82.8635,109.757 81.5302,106.09 80,102.5C 78.3621,100.266 76.1955,98.933 73.5,98.5C 71.3718,97.3709 69.0385,97.2042 66.5,98C 65.2949,99.3756 63.9616,100.542 62.5,101.5C 62.4226,100.25 61.756,99.4169 60.5,99C 66.0462,94.086 72.2129,93.2527 79,96.5C 79.4643,95.9056 79.631,95.2389 79.5,94.5C 85.3924,97.6061 88.2257,102.606 88,109.5C 89.6941,112.358 91.8607,114.691 94.5,116.5C 91.9028,116.721 91.9028,117.221 94.5,118C 98.7411,119.457 103.074,119.791 107.5,119C 109.584,118.303 111.251,117.136 112.5,115.5C 120.166,104.008 119.166,93.5084 109.5,84C 103.342,81.8038 97.0091,80.1371 90.5,79C 75.3069,77.02 60.1402,74.8534 45,72.5C 41.397,72.4271 38.397,73.7604 36,76.5C 31.1564,85.254 30.4898,94.254 34,103.5C 36.3978,106.108 39.2312,107.775 42.5,108.5C 41.7611,108.369 41.0944,108.536 40.5,109C 47.2035,111.407 52.8701,109.907 57.5,104.5C 57.326,106.331 56.326,108.165 54.5,110C 54.7284,110.399 55.0618,110.565 55.5,110.5C 54.9423,111.79 53.9423,112.623 52.5,113C 47.8452,113.499 43.1785,113.666 38.5,113.5C 31.8519,111.683 27.6852,107.35 26,100.5C 24.829,92.2238 25.829,84.2238 29,76.5C 29.3768,75.0577 30.2101,74.0577 31.5,73.5C 35.3471,69.2692 40.1805,67.2692 46,67.5C 63.2004,69.7399 80.3671,72.2399 97.5,75C 107.768,75.7077 115.268,80.541 120,89.5C 119.764,86.3538 118.931,83.3538 117.5,80.5 Z"/></g>
<g><path style="opacity:1" fill="#f8b8b7" d="M 79.5,94.5 C 79.631,95.2389 79.4643,95.9056 79,96.5C 72.2129,93.2527 66.0462,94.086 60.5,99C 61.756,99.4169 62.4226,100.25 62.5,101.5C 60.3971,104.72 58.0638,107.72 55.5,110.5C 55.0618,110.565 54.7284,110.399 54.5,110C 56.326,108.165 57.326,106.331 57.5,104.5C 52.8701,109.907 47.2035,111.407 40.5,109C 41.0944,108.536 41.7611,108.369 42.5,108.5C 50.1465,109.681 55.3132,106.681 58,99.5C 63.882,92.3094 71.0486,90.6427 79.5,94.5 Z"/></g>
<g><path style="opacity:1" fill="#52131a" d="M 112.5,115.5 C 109.452,116.794 106.285,117.794 103,118.5C 100.13,117.907 97.297,117.241 94.5,116.5C 91.8607,114.691 89.6941,112.358 88,109.5C 88.2257,102.606 85.3924,97.6061 79.5,94.5C 71.0486,90.6427 63.882,92.3094 58,99.5C 55.3132,106.681 50.1465,109.681 42.5,108.5C 39.2312,107.775 36.3978,106.108 34,103.5C 30.4898,94.254 31.1564,85.254 36,76.5C 38.397,73.7604 41.397,72.4271 45,72.5C 60.1402,74.8534 75.3069,77.02 90.5,79C 97.0091,80.1371 103.342,81.8038 109.5,84C 119.166,93.5084 120.166,104.008 112.5,115.5 Z"/></g>
<g><path style="opacity:1" fill="#d2c7d2" d="M 55.5,76.5 C 56.2625,77.2679 57.2625,77.7679 58.5,78C 54.8926,81.0977 51.8926,84.5977 49.5,88.5C 47.6308,86.4243 45.4641,86.0909 43,87.5C 41.7619,90.9257 42.9286,92.5923 46.5,92.5C 43.5526,95.0195 41.0526,98.0195 39,101.5C 38.3292,102.252 37.4959,102.586 36.5,102.5C 35.2101,101.942 34.3768,100.942 34,99.5C 33.1253,92.6592 33.792,85.9925 36,79.5C 40.4908,74.7409 45.9908,73.2409 52.5,75C 53.7375,75.2321 54.7375,75.7321 55.5,76.5 Z"/></g>
<g><path style="opacity:1" fill="#4d0f17" d="M 49.5,88.5 C 49.4456,90.632 48.4456,91.9653 46.5,92.5C 42.9286,92.5923 41.7619,90.9257 43,87.5C 45.4641,86.0909 47.6308,86.4243 49.5,88.5 Z"/></g>
<g><path style="opacity:1" fill="#c9bcca" d="M 93.5,81.5 C 113.316,82.7917 119.816,92.7917 113,111.5C 106.746,117.639 99.9129,118.139 92.5,113C 89.6231,109.372 88.1231,105.206 88,100.5C 85.9718,97.3078 83.4718,94.6411 80.5,92.5C 85.1768,89.1498 89.5101,85.4831 93.5,81.5 Z"/></g>
<g><path style="opacity:1" fill="#4a0108" d="M 99.5,96.5 C 104.159,96.0146 105.492,97.848 103.5,102C 98.7282,102.81 97.3948,100.977 99.5,96.5 Z"/></g>
<g><path style="opacity:1" fill="#fafafa" d="M 90.5,81.5 C 91.5,81.5 92.5,81.5 93.5,81.5C 89.5101,85.4831 85.1768,89.1498 80.5,92.5C 79.391,92.4431 78.391,92.1098 77.5,91.5C 81.2718,87.3897 85.6051,84.0563 90.5,81.5 Z"/></g>
<g><path style="opacity:1" fill="#c9bcca" d="M 63.5,77.5 C 72.7975,77.9883 81.7975,79.3216 90.5,81.5C 85.6051,84.0563 81.2718,87.3897 77.5,91.5C 69.1181,89.3037 62.2847,91.637 57,98.5C 53.6788,106.167 48.1788,108.5 40.5,105.5C 46.7456,95.0144 54.4123,85.6811 63.5,77.5 Z"/></g>
<g><path style="opacity:1" fill="#f6f4f6" d="M 55.5,76.5 C 58.3854,76.1936 61.0521,76.5269 63.5,77.5C 54.4123,85.6811 46.7456,95.0144 40.5,105.5C 38.5956,105.262 37.2623,104.262 36.5,102.5C 37.4959,102.586 38.3292,102.252 39,101.5C 41.0526,98.0195 43.5526,95.0195 46.5,92.5C 48.4456,91.9653 49.4456,90.632 49.5,88.5C 51.8926,84.5977 54.8926,81.0977 58.5,78C 57.2625,77.7679 56.2625,77.2679 55.5,76.5 Z"/></g>
<g><path style="opacity:1" fill="#da6679" d="M 122.5,88.5 C 123.926,90.6789 124.592,93.1789 124.5,96C 124.034,101.561 123.201,107.061 122,112.5C 119.231,118.105 115.064,122.105 109.5,124.5C 105.958,124.813 102.625,124.479 99.5,123.5C 112.469,124.367 119.969,118.367 122,105.5C 122.258,99.6314 122.424,93.9647 122.5,88.5 Z"/></g>
<g><path style="opacity:1" fill="#fbe8e2" d="M 92.5,124.5 C 97.1764,129.123 102.843,130.623 109.5,129C 119.696,123.879 130.03,119.045 140.5,114.5C 142.5,114.5 144.5,114.5 146.5,114.5C 150.611,130.453 145.278,142.286 130.5,150C 122.443,153.161 114.443,153.161 106.5,150C 98.222,143.224 90.8887,135.724 84.5,127.5C 80.0017,120.584 73.6684,117.417 65.5,118C 63.3395,118.996 61.6728,120.496 60.5,122.5C 59.3065,123.272 58.3065,124.272 57.5,125.5C 56.7321,124.737 56.2321,123.737 56,122.5C 51.8006,127.034 47.3006,131.201 42.5,135C 35.2644,139.013 28.7644,138.18 23,132.5C 20.8536,127.235 19.0203,121.901 17.5,116.5C 17.5712,110.594 19.7379,105.594 24,101.5C 25.5516,105.873 28.0516,109.539 31.5,112.5C 32.6582,115.822 34.9916,117.988 38.5,119C 42.1667,119.667 45.8333,119.667 49.5,119C 50.5707,118.148 51.5707,117.315 52.5,116.5C 55.4013,115.464 57.9013,113.797 60,111.5C 61.8865,107.56 64.3865,104.06 67.5,101C 71.2441,100.071 74.7441,100.571 78,102.5C 80.1524,107.447 82.1524,112.447 84,117.5C 86.4162,120.423 89.2496,122.757 92.5,124.5 Z"/></g>
<g><path style="opacity:1" fill="#f2a0a6" d="M 140.5,110.5 C 140.842,111.338 141.508,111.672 142.5,111.5C 143.609,112.29 144.942,112.79 146.5,113C 144.292,113.191 142.292,113.691 140.5,114.5C 130.03,119.045 119.696,123.879 109.5,129C 102.843,130.623 97.1764,129.123 92.5,124.5C 94.8056,124.993 97.139,125.326 99.5,125.5C 112.369,128.569 122.036,124.236 128.5,112.5C 132.355,110.997 136.355,110.33 140.5,110.5 Z"/></g>
<g><path style="opacity:1" fill="#ec9aa1" d="M 31.5,112.5 C 38.0313,115.967 45.0313,117.3 52.5,116.5C 51.5707,117.315 50.5707,118.148 49.5,119C 45.8333,119.667 42.1667,119.667 38.5,119C 34.9916,117.988 32.6582,115.822 31.5,112.5 Z"/></g>
<g><path style="opacity:1" fill="#e1687a" d="M 124.5,109.5 C 125.695,109.866 126.361,110.699 126.5,112C 125.029,117.472 121.696,120.805 116.5,122C 120.561,118.709 123.227,114.543 124.5,109.5 Z"/></g>
<g><path style="opacity:1" fill="#f8e3e3" d="M 112.5,115.5 C 111.251,117.136 109.584,118.303 107.5,119C 103.074,119.791 98.7411,119.457 94.5,118C 91.9028,117.221 91.9028,116.721 94.5,116.5C 97.297,117.241 100.13,117.907 103,118.5C 106.285,117.794 109.452,116.794 112.5,115.5 Z"/></g>
<g><path style="opacity:1" fill="#f4b5b4" d="M 84.5,127.5 C 84.5,128.167 84.5,128.833 84.5,129.5C 78.4847,120.435 70.4847,118.102 60.5,122.5C 61.6728,120.496 63.3395,118.996 65.5,118C 73.6684,117.417 80.0017,120.584 84.5,127.5 Z"/></g>
<g><path style="opacity:1" fill="#471518" d="M 84.5,129.5 C 88.3576,138.187 94.191,145.187 102,150.5C 102.688,151.332 102.521,151.998 101.5,152.5C 100.482,151.807 99.4822,151.141 98.5,150.5C 90.9957,144.155 85.1624,136.488 81,127.5C 75.3554,121.219 68.8554,120.052 61.5,124C 57.6007,128.996 53.6007,133.829 49.5,138.5C 47.2965,139.946 44.9631,140.78 42.5,141C 49.0477,137.286 54.0477,132.12 57.5,125.5C 58.3065,124.272 59.3065,123.272 60.5,122.5C 70.4847,118.102 78.4847,120.435 84.5,129.5 Z"/></g>
<g><path style="opacity:1" fill="#facfca" d="M 17.5,116.5 C 19.0203,121.901 20.8536,127.235 23,132.5C 28.7644,138.18 35.2644,139.013 42.5,135C 47.3006,131.201 51.8006,127.034 56,122.5C 56.2321,123.737 56.7321,124.737 57.5,125.5C 54.0477,132.12 49.0477,137.286 42.5,141C 44.9631,140.78 47.2965,139.946 49.5,138.5C 49.5858,139.496 49.2524,140.329 48.5,141C 46.0838,142.063 43.5838,142.896 41,143.5C 39.3468,143.18 38.3468,142.18 38,140.5C 37.3333,141.5 37.3333,142.5 38,143.5C 39.4194,144.46 40.9194,145.293 42.5,146C 41.5838,146.374 40.7504,146.874 40,147.5C 36.4841,145.074 33.1508,142.407 30,139.5C 29.6012,139.728 29.4346,140.062 29.5,140.5C 27.4329,138.488 25.0996,138.154 22.5,139.5C 24.4446,142.393 26.1113,145.393 27.5,148.5C 22.5353,143.576 19.3686,137.576 18,130.5C 16.5107,125.711 16.344,121.044 17.5,116.5 Z"/></g>
<g><path style="opacity:1" fill="#f6aaa6" d="M 25.5,125.5 C 28.423,126.163 29.0897,127.83 27.5,130.5C 24.8068,129.468 24.1402,127.802 25.5,125.5 Z"/></g>
<g><path style="opacity:1" fill="#fbdfd9" d="M 98.5,150.5 C 98.5858,151.496 98.2524,152.329 97.5,153C 99.5767,153.192 101.577,153.692 103.5,154.5C 104.953,156.644 104.62,158.477 102.5,160C 100.347,160.099 98.6808,160.933 97.5,162.5C 71.0845,166.138 48.4179,158.805 29.5,140.5C 29.4346,140.062 29.6012,139.728 30,139.5C 33.1508,142.407 36.4841,145.074 40,147.5C 40.7504,146.874 41.5838,146.374 42.5,146C 40.9194,145.293 39.4194,144.46 38,143.5C 37.3333,142.5 37.3333,141.5 38,140.5C 38.3468,142.18 39.3468,143.18 41,143.5C 43.5838,142.896 46.0838,142.063 48.5,141C 49.2524,140.329 49.5858,139.496 49.5,138.5C 53.6007,133.829 57.6007,128.996 61.5,124C 68.8554,120.052 75.3554,121.219 81,127.5C 85.1624,136.488 90.9957,144.155 98.5,150.5 Z"/></g>
<g><path style="opacity:1" fill="#f6b4b5" d="M 142.5,111.5 C 151.931,111.251 161.265,112.084 170.5,114C 171.089,116.514 172.422,118.514 174.5,120C 173.975,120.692 173.308,121.192 172.5,121.5C 171.25,128.515 169.083,135.182 166,141.5C 150.401,160.225 130.235,171.059 105.5,174C 85.027,176.422 65.6937,172.922 47.5,163.5C 47.2129,164.2 46.8795,164.867 46.5,165.5C 38.5798,161.578 32.2465,155.912 27.5,148.5C 26.1113,145.393 24.4446,142.393 22.5,139.5C 25.0996,138.154 27.4329,138.488 29.5,140.5C 48.4179,158.805 71.0845,166.138 97.5,162.5C 118.299,161.291 136.965,154.458 153.5,142C 157.164,138.005 159.498,133.338 160.5,128C 159.328,127.581 158.328,126.915 157.5,126C 159.573,125.882 160.907,124.882 161.5,123C 158.324,117.076 153.324,114.242 146.5,114.5C 144.5,114.5 142.5,114.5 140.5,114.5C 142.292,113.691 144.292,113.191 146.5,113C 144.942,112.79 143.609,112.29 142.5,111.5 Z"/></g>
<g><path style="opacity:1" fill="#fbd6d0" d="M 146.5,114.5 C 153.324,114.242 158.324,117.076 161.5,123C 160.907,124.882 159.573,125.882 157.5,126C 158.328,126.915 159.328,127.581 160.5,128C 159.498,133.338 157.164,138.005 153.5,142C 136.965,154.458 118.299,161.291 97.5,162.5C 98.6808,160.933 100.347,160.099 102.5,160C 104.62,158.477 104.953,156.644 103.5,154.5C 101.577,153.692 99.5767,153.192 97.5,153C 98.2524,152.329 98.5858,151.496 98.5,150.5C 99.4822,151.141 100.482,151.807 101.5,152.5C 102.521,151.998 102.688,151.332 102,150.5C 94.191,145.187 88.3576,138.187 84.5,129.5C 84.5,128.833 84.5,128.167 84.5,127.5C 90.8887,135.724 98.222,143.224 106.5,150C 114.443,153.161 122.443,153.161 130.5,150C 145.278,142.286 150.611,130.453 146.5,114.5 Z"/></g>
<g><path style="opacity:1" fill="#f9aba9" d="M 133.5,138.5 C 136.95,137.756 138.616,139.09 138.5,142.5C 135.05,143.244 133.384,141.91 133.5,138.5 Z"/></g>
<g><path style="opacity:1" fill="#ec98a0" d="M 172.5,105.5 C 176.841,108.696 179.341,113.029 180,118.5C 181.939,134.455 176.773,147.621 164.5,158C 142.021,175.047 116.688,182.38 88.5,180C 73.3097,178.216 59.3097,173.382 46.5,165.5C 46.8795,164.867 47.2129,164.2 47.5,163.5C 65.6937,172.922 85.027,176.422 105.5,174C 130.235,171.059 150.401,160.225 166,141.5C 169.083,135.182 171.25,128.515 172.5,121.5C 173.308,121.192 173.975,120.692 174.5,120C 172.422,118.514 171.089,116.514 170.5,114C 161.265,112.084 151.931,111.251 142.5,111.5C 141.508,111.672 140.842,111.338 140.5,110.5C 147.841,110.666 155.174,110.5 162.5,110C 166.191,109.164 169.524,107.664 172.5,105.5 Z"/></g>
</svg>
