<?xml version="1.0" encoding="UTF-8"?>
<svg xmlns="http://www.w3.org/2000/svg" xmlns:xlink="http://www.w3.org/1999/xlink" width="200px" height="200px" viewBox="0 0 200 200" version="1.1">
<g id="surface1">
<path style=" stroke:none;fill-rule:nonzero;fill:rgb(0%,0%,0%);fill-opacity:1;" d="M 108.082031 6.390625 C 108.082031 6.4375 109.117188 7 110.363281 7.636719 C 112.265625 8.625 113.039062 9.1875 114.921875 11.042969 C 116.824219 12.921875 117.339844 13.605469 118.164062 15.296875 C 119.738281 18.585938 120.207031 21.96875 119.359375 24.320312 C 119.101562 25.070312 117.199219 26.457031 116.777344 26.199219 C 116.660156 26.128906 116.542969 25.679688 116.542969 25.234375 C 116.542969 24.058594 115.671875 20.816406 114.96875 19.265625 C 113.957031 17.105469 112.476562 15.0625 111.984375 15.109375 C 111.75 15.132812 111.488281 14.992188 111.417969 14.800781 C 111.300781 14.496094 111.347656 14.496094 111.726562 14.800781 C 112.101562 15.109375 112.148438 15.109375 112.03125 14.800781 C 111.960938 14.589844 111.675781 14.472656 111.371094 14.519531 C 111.066406 14.542969 110.667969 14.355469 110.433594 14.097656 C 110.199219 13.839844 109.9375 13.628906 109.867188 13.628906 C 109.585938 13.628906 109.046875 12.992188 109.1875 12.828125 C 109.28125 12.757812 109.164062 12.6875 108.953125 12.6875 C 108.742188 12.6875 108.503906 12.59375 108.433594 12.453125 C 108.246094 12.125 109 12.429688 109.796875 12.96875 C 110.148438 13.226562 110.433594 13.324219 110.433594 13.203125 C 110.433594 12.921875 108.671875 11.464844 107.589844 10.855469 C 107.144531 10.621094 106.25 10.078125 105.59375 9.65625 C 104.066406 8.71875 101.738281 7.871094 99.320312 7.378906 C 97.886719 7.097656 96.453125 7.023438 93.070312 7.097656 L 88.699219 7.167969 L 85.054688 8.648438 C 83.058594 9.46875 81.203125 10.339844 80.96875 10.574219 C 80.523438 11.019531 80.546875 11.019531 81.90625 10.574219 C 82.660156 10.339844 84.070312 9.867188 85.007812 9.539062 C 91.988281 7.121094 102.042969 9.023438 108.035156 13.886719 C 111.867188 16.964844 114.824219 22.390625 114.613281 25.894531 L 114.542969 27.136719 L 113.039062 27.890625 C 112.21875 28.3125 111.230469 28.664062 110.855469 28.664062 C 110.363281 28.664062 110.078125 28.476562 109.75 27.890625 C 107.121094 23.402344 105.308594 20.933594 103.195312 18.890625 C 102.324219 18.070312 101.386719 17.316406 101.105469 17.246094 C 100.800781 17.152344 100.5625 17.011719 100.5625 16.917969 C 100.5625 16.730469 99.601562 16.09375 97.980469 15.203125 C 96.640625 14.472656 92.832031 13.226562 90.929688 12.921875 C 89.636719 12.710938 87.78125 12.664062 83.882812 12.804688 C 80.96875 12.898438 77.75 12.992188 76.714844 13.015625 L 74.835938 13.039062 L 72.839844 14.472656 C 70.675781 16.046875 69.855469 16.824219 70.113281 17.082031 C 70.253906 17.222656 71.050781 17.035156 77.492188 15.296875 C 84.140625 13.488281 89.519531 13.863281 95.042969 16.566406 C 98.238281 18.09375 100 19.359375 102.207031 21.617188 C 104.160156 23.613281 107.613281 28.359375 107.613281 29.042969 C 107.613281 29.324219 107.425781 29.371094 106.742188 29.230469 C 105.378906 28.996094 102.5625 28.03125 100.609375 27.113281 C 98.589844 26.199219 98.683594 26.222656 98.683594 26.621094 C 98.683594 26.925781 99.34375 27.375 101.480469 28.476562 C 103.171875 29.347656 101.996094 29.136719 99.953125 28.195312 C 98.472656 27.515625 94.574219 24.953125 93 23.636719 C 91.589844 22.4375 88.769531 21.148438 86.75 20.769531 C 85.761719 20.605469 83.625 20.464844 82 20.441406 C 80.378906 20.441406 78.03125 20.324219 76.785156 20.160156 C 74.53125 19.878906 73.402344 20.019531 72.085938 20.699219 C 71.851562 20.816406 71.382812 20.910156 71.027344 20.910156 C 70.652344 20.910156 70.230469 21.003906 70.042969 21.125 C 69.855469 21.265625 69.476562 21.265625 69.148438 21.125 C 68.796875 20.980469 68.609375 21.003906 68.609375 21.171875 C 68.609375 21.359375 68.351562 21.382812 67.855469 21.265625 C 67.433594 21.171875 66.210938 21.074219 65.15625 21.027344 C 64.074219 20.980469 63.085938 20.863281 62.921875 20.769531 C 62.757812 20.675781 62.78125 20.769531 62.96875 20.980469 C 63.535156 21.570312 66.566406 23.003906 68.1875 23.425781 C 70.207031 23.964844 74.953125 23.941406 78.359375 23.402344 C 82.167969 22.769531 87.171875 23.097656 87.171875 23.964844 C 87.171875 24.058594 86.347656 24.4375 85.363281 24.789062 C 84.375 25.164062 82.871094 25.800781 82 26.222656 C 79.816406 27.277344 79.113281 27.445312 74.882812 27.960938 C 72.839844 28.195312 71.027344 28.5 70.886719 28.617188 C 70.722656 28.757812 69.972656 28.925781 69.195312 28.996094 C 68.234375 29.066406 68.023438 29.042969 68.492188 28.925781 C 69.101562 28.757812 69.125 28.710938 68.65625 28.6875 C 68.351562 28.6875 68.1875 28.570312 68.257812 28.429688 C 68.539062 27.960938 67.878906 27.300781 66.566406 26.785156 C 65.8125 26.480469 64.121094 25.726562 62.78125 25.070312 C 60.550781 24.011719 60.175781 23.894531 57.917969 23.730469 C 56.601562 23.613281 55.050781 23.402344 54.488281 23.261719 C 53.3125 22.933594 50.871094 21.734375 50.632812 21.382812 C 50.5625 21.265625 50.304688 21.148438 50.09375 21.148438 C 49.742188 21.148438 49.742188 21.195312 50.046875 21.40625 C 50.351562 21.617188 50.351562 21.640625 50.046875 21.570312 C 49.859375 21.5 49.507812 21.074219 49.273438 20.582031 C 48.753906 19.5 48.519531 19.574219 48.917969 20.699219 C 49.296875 21.851562 50.164062 22.957031 51.855469 24.484375 C 53.453125 25.894531 54.675781 26.574219 57.636719 27.609375 C 58.648438 27.960938 59.421875 28.289062 59.398438 28.335938 C 59.351562 28.382812 58.363281 28.265625 57.214844 28.101562 C 54.933594 27.75 54.441406 27.796875 55.6875 28.21875 L 56.460938 28.5 L 55.804688 28.851562 L 55.121094 29.207031 L 55.710938 29.488281 C 56.015625 29.652344 56.90625 29.910156 57.683594 30.074219 C 59.609375 30.476562 61.699219 31.460938 63.015625 32.589844 C 64.566406 33.929688 66.304688 34.304688 71.050781 34.304688 C 73.824219 34.304688 74.71875 34.375 74.71875 34.585938 C 74.71875 34.984375 74.105469 35.855469 73.027344 37.007812 C 72.554688 37.5 72.179688 37.96875 72.226562 37.992188 C 72.414062 38.179688 75.023438 37.03125 76.316406 36.207031 C 78.03125 35.078125 78.546875 34.398438 80.121094 31.25 C 82.378906 26.738281 83.765625 25.65625 87.664062 25.421875 C 89.003906 25.351562 89.753906 25.398438 89.753906 25.539062 C 89.753906 25.679688 89.285156 25.847656 88.699219 25.917969 C 87.3125 26.058594 84.773438 27.300781 84.023438 28.21875 C 83.695312 28.59375 83.316406 29.324219 83.175781 29.816406 C 83.058594 30.308594 82.683594 30.992188 82.378906 31.320312 C 82.074219 31.648438 81.882812 31.976562 81.953125 32.050781 C 82.023438 32.121094 81.929688 32.191406 81.765625 32.191406 C 81.601562 32.191406 81.507812 32.261719 81.578125 32.332031 C 81.71875 32.472656 80.308594 34.117188 78.546875 35.878906 C 76.785156 37.640625 72.507812 39.824219 69.429688 40.53125 C 65.15625 41.519531 63.933594 41.636719 54.957031 41.683594 L 46.125 41.753906 L 44.855469 42.433594 C 43.070312 43.375 40.671875 45.886719 39.683594 47.863281 C 38.957031 49.296875 38.886719 49.695312 38.839844 51.691406 C 38.792969 53.171875 38.839844 53.757812 38.980469 53.453125 C 39.097656 53.195312 39.636719 52.609375 40.179688 52.160156 C 40.71875 51.714844 41.660156 50.824219 42.269531 50.210938 C 43.210938 49.226562 44.335938 48.402344 44.738281 48.402344 C 44.808594 48.402344 44.550781 48.847656 44.148438 49.414062 C 43.773438 49.953125 43.304688 50.964844 43.117188 51.644531 C 42.785156 52.960938 42.386719 56.132812 42.597656 55.921875 C 42.667969 55.851562 43.046875 55.238281 43.445312 54.558594 C 44.265625 53.148438 46.757812 49.976562 46.921875 50.140625 C 46.96875 50.1875 46.523438 51.011719 45.910156 51.949219 C 43.328125 55.992188 42.644531 58.457031 42.855469 62.851562 C 42.925781 64.402344 43.140625 66.304688 43.328125 67.082031 L 43.632812 68.492188 L 43.796875 67.082031 C 44.078125 64.707031 44.40625 63.628906 45.371094 61.796875 C 46.3125 60.078125 47.296875 58.742188 46.875 59.796875 C 45.464844 63.300781 45.464844 63.179688 45.464844 69.21875 L 45.464844 74.882812 L 43.445312 74.765625 C 40.179688 74.578125 37.335938 75.679688 34.984375 78.054688 C 33.527344 79.511719 32.074219 82.472656 31.695312 84.679688 C 31.34375 86.75 31.53125 91.894531 32.050781 94.007812 C 33.386719 99.578125 37.59375 108.199219 41.117188 112.546875 C 41.894531 113.511719 42.949219 115.132812 43.46875 116.164062 C 43.984375 117.175781 44.429688 117.878906 44.429688 117.738281 C 44.5 117.152344 44.523438 117.035156 44.667969 116.894531 C 44.832031 116.753906 45.347656 118.585938 45.347656 119.3125 C 45.347656 120.488281 47.722656 123.777344 49.320312 124.835938 C 51.457031 126.246094 54.066406 126.574219 56.34375 125.726562 C 58.8125 124.789062 58.742188 125.1875 57.144531 120.253906 C 54.839844 113.25 53.382812 107.074219 52.515625 100.328125 C 52.042969 96.851562 51.785156 91.871094 52.066406 91.871094 C 52.421875 91.871094 53.972656 95.417969 54.160156 96.570312 C 54.230469 97.15625 54.558594 98.566406 54.863281 99.742188 C 55.144531 100.894531 55.59375 102.703125 55.804688 103.734375 C 56.039062 104.769531 56.367188 106.085938 56.53125 106.671875 C 56.953125 108.011719 58.269531 112.734375 58.410156 113.371094 C 58.480469 113.628906 58.292969 113.417969 58.011719 112.898438 C 56.695312 110.597656 57.519531 115.226562 59.046875 118.914062 C 59.609375 120.253906 60.148438 121.664062 60.246094 122.0625 C 60.339844 122.4375 61.183594 124.367188 62.125 126.292969 C 63.816406 129.792969 66.234375 133.457031 68.914062 136.628906 C 70.207031 138.15625 75.445312 143.304688 75.703125 143.328125 C 75.800781 143.328125 76.527344 143.890625 77.351562 144.574219 C 78.925781 145.910156 81.835938 147.769531 84.9375 149.4375 C 85.972656 149.976562 86.9375 150.539062 87.054688 150.65625 C 87.195312 150.800781 85.621094 150.046875 83.601562 148.988281 C 79.816406 147.0625 76.808594 145.207031 74.484375 143.445312 C 73.777344 142.902344 72.554688 142.011719 71.78125 141.425781 C 71.003906 140.859375 68.960938 139.027344 67.246094 137.359375 L 64.121094 134.304688 L 63.394531 135.246094 C 62.242188 136.726562 50.585938 148.238281 48.566406 149.882812 C 47.507812 150.773438 46.757812 151.550781 46.757812 151.808594 C 46.757812 152.632812 50.726562 163.886719 51.269531 164.613281 C 51.363281 164.753906 51.738281 164.824219 52.089844 164.753906 C 52.585938 164.660156 52.679688 164.707031 52.5625 165.015625 C 52.421875 165.367188 52.960938 165.4375 56.8125 165.460938 C 57.121094 165.460938 57.542969 165.601562 57.753906 165.789062 C 57.988281 165.976562 58.503906 166.398438 58.90625 166.730469 C 59.328125 167.058594 59.679688 167.480469 59.679688 167.667969 C 59.679688 168.1875 58.835938 169.761719 57.472656 171.757812 C 55.898438 174.082031 55.757812 174.226562 55.332031 173.871094 C 55.027344 173.613281 55.027344 173.707031 55.332031 174.578125 C 55.875 176.128906 55.59375 175.941406 54.769531 174.25 C 53.59375 171.804688 47.910156 157.636719 47.601562 156.367188 C 47.507812 155.96875 47.203125 155.144531 46.945312 154.535156 L 46.453125 153.40625 L 45.253906 154.558594 C 44.054688 155.710938 40.671875 158.386719 38.886719 159.585938 C 38.371094 159.9375 37.148438 160.902344 36.183594 161.75 C 35.222656 162.59375 33.574219 164.027344 32.519531 164.921875 C 30.59375 166.566406 23.777344 173.355469 23.144531 174.25 C 22.863281 174.671875 22.839844 176.457031 22.957031 187.359375 L 23.097656 199.953125 L 28.429688 199.953125 L 28.453125 186.960938 C 28.453125 179.839844 28.546875 173.777344 28.640625 173.542969 C 28.804688 173.097656 28.828125 173.097656 28.996094 173.519531 C 29.136719 173.894531 29.207031 173.917969 29.371094 173.636719 C 29.511719 173.425781 29.605469 173.402344 29.605469 173.566406 C 29.605469 173.824219 29.886719 173.824219 30.546875 173.566406 C 30.734375 173.496094 31.273438 173.378906 31.71875 173.355469 C 32.191406 173.308594 32.519531 173.167969 32.496094 173.027344 C 32.472656 172.863281 32.636719 172.792969 32.894531 172.863281 C 33.222656 172.957031 33.363281 172.863281 33.386719 172.554688 C 33.410156 172.296875 33.503906 172.578125 33.625 173.167969 C 33.71875 173.753906 33.8125 179.207031 33.8125 185.292969 C 33.835938 191.375 33.90625 197.15625 33.976562 198.144531 L 34.140625 199.953125 L 39.472656 199.953125 L 39.472656 188.652344 C 39.472656 182.449219 39.542969 176.621094 39.613281 175.726562 L 39.777344 174.082031 L 40.53125 174.929688 C 41.234375 175.679688 41.988281 175.964844 42.363281 175.585938 C 42.574219 175.398438 43.9375 175.328125 44.429688 175.492188 C 44.808594 175.632812 47.226562 178.664062 47.226562 178.996094 C 47.226562 179.089844 47.109375 178.996094 46.992188 178.804688 C 46.78125 178.5 46.757812 178.5 46.757812 178.804688 C 46.757812 179.253906 47.578125 180.5 47.746094 180.308594 C 47.839844 180.238281 47.792969 180.59375 47.699219 181.085938 C 47.554688 181.625 47.578125 182.074219 47.699219 182.191406 C 47.839844 182.332031 47.933594 182.542969 47.933594 182.660156 C 47.933594 182.800781 47.816406 182.753906 47.675781 182.566406 C 47.507812 182.308594 47.460938 182.730469 47.53125 184.046875 C 47.601562 185.03125 47.554688 185.925781 47.4375 185.996094 C 47.320312 186.066406 47.226562 186.773438 47.203125 187.570312 C 47.179688 189.238281 47.085938 191.09375 47.015625 191.257812 C 46.992188 191.328125 46.921875 191.683594 46.898438 192.082031 C 46.523438 195.605469 46.195312 197.507812 45.980469 197.648438 C 45.769531 197.769531 45.769531 197.886719 46.003906 198.121094 C 46.40625 198.519531 46.359375 198.800781 45.886719 198.613281 C 45.628906 198.519531 45.558594 198.542969 45.675781 198.730469 C 45.769531 198.871094 45.722656 199.226562 45.582031 199.484375 C 45.324219 199.953125 45.347656 199.953125 60.550781 199.953125 C 75.679688 199.953125 75.773438 199.953125 76.597656 199.460938 C 77.351562 198.988281 85.386719 194.832031 88.347656 193.351562 C 89.777344 192.644531 91.988281 192.082031 94.054688 191.871094 C 94.808594 191.800781 95.535156 191.660156 95.675781 191.589844 C 95.839844 191.472656 95.863281 191.542969 95.746094 191.753906 C 95.136719 192.761719 93.023438 195.863281 91.730469 197.625 C 90.90625 198.753906 90.226562 199.71875 90.226562 199.8125 C 90.226562 200.28125 90.90625 199.8125 91.472656 198.964844 L 92.105469 197.980469 L 92.105469 199.953125 L 96.804688 199.953125 L 96.804688 197.648438 C 96.804688 196.40625 96.898438 195.230469 97.015625 195.042969 C 97.179688 194.785156 98.050781 194.738281 101.527344 194.832031 C 105.96875 194.925781 106.8125 195.113281 107.589844 196.050781 C 107.753906 196.265625 107.988281 196.359375 108.082031 196.3125 C 108.269531 196.195312 108.480469 197.25 108.601562 199.011719 L 108.671875 199.835938 L 112.359375 199.882812 L 116.070312 199.929688 L 115.085938 198.542969 C 114.542969 197.769531 114.003906 197.226562 113.886719 197.296875 C 113.746094 197.367188 113.722656 197.320312 113.816406 197.179688 C 113.910156 197.015625 113.863281 196.898438 113.699219 196.898438 C 113.535156 196.898438 113.488281 196.828125 113.558594 196.757812 C 113.699219 196.617188 112.359375 194.550781 112.148438 194.550781 C 112.101562 194.550781 112.125 194.667969 112.21875 194.832031 C 112.3125 194.996094 112.289062 195.019531 112.125 194.925781 C 111.960938 194.832031 111.84375 194.621094 111.84375 194.453125 C 111.84375 194.007812 110.761719 192.644531 110.550781 192.855469 C 110.433594 192.949219 110.433594 192.878906 110.527344 192.714844 C 110.621094 192.550781 110.574219 192.246094 110.410156 192.058594 C 109.867188 191.398438 110.316406 191.542969 111.9375 192.503906 C 112.804688 193.046875 113.722656 193.585938 113.933594 193.726562 C 114.144531 193.84375 114.753906 194.3125 115.296875 194.738281 C 116.519531 195.699219 120.230469 198.144531 122.015625 199.175781 L 123.402344 199.953125 L 142.550781 199.953125 L 142.714844 198.027344 C 142.855469 195.933594 142.976562 195.089844 143.164062 194.382812 C 143.585938 192.878906 143.585938 192.832031 142.902344 193.867188 C 142.128906 195.066406 141.398438 195.441406 139.683594 195.535156 C 135.148438 195.769531 124.4375 193.117188 120.066406 190.695312 C 119.738281 190.507812 118.632812 190.015625 117.597656 189.613281 C 115.34375 188.722656 110.339844 186.183594 109.84375 185.691406 C 109.140625 184.984375 109.773438 184.984375 111.535156 185.667969 C 118.515625 188.371094 123.121094 189.707031 125.140625 189.566406 C 126.128906 189.496094 126.292969 189.425781 126.222656 189.027344 C 126.082031 188.300781 125.585938 188.0625 121.242188 186.675781 C 114.824219 184.632812 110.855469 183.246094 110.03125 182.800781 C 109.632812 182.566406 109.234375 182.425781 109.164062 182.496094 C 109.09375 182.589844 109.023438 183.527344 109.023438 184.585938 C 109.023438 185.667969 108.929688 186.605469 108.789062 186.675781 C 108.648438 186.773438 108.550781 186.324219 108.550781 185.503906 C 108.550781 184.023438 108.625 184.070312 106.4375 183.859375 C 104.769531 183.695312 97.0625 183.695312 96.804688 183.859375 C 96.710938 183.90625 96.570312 180.828125 96.476562 177.019531 C 96.335938 171.78125 96.359375 169.996094 96.570312 169.738281 C 96.804688 169.476562 97.910156 169.40625 102.796875 169.40625 L 108.742188 169.40625 L 109 170.136719 C 109.28125 170.980469 109.46875 170.957031 111.726562 169.808594 C 112.5 169.429688 114.875 168.398438 116.964844 167.503906 C 119.078125 166.636719 121.027344 165.71875 121.289062 165.484375 C 122.367188 164.519531 127.160156 157.824219 128.054688 156.015625 C 128.335938 155.425781 128.804688 154.628906 129.089844 154.253906 C 130.664062 152.113281 134.09375 146.027344 135.902344 142.152344 C 137.054688 139.730469 138.371094 137.664062 139.753906 136.089844 C 142.738281 132.683594 144.808594 129.582031 146.050781 126.574219 C 146.382812 125.773438 146.734375 125.023438 146.851562 124.929688 C 146.945312 124.8125 147.53125 125 148.167969 125.328125 C 148.777344 125.65625 149.835938 126.058594 150.515625 126.199219 C 154.253906 127.042969 158.8125 124.175781 160.339844 120.042969 C 161.253906 117.527344 162.265625 115.8125 164.707031 112.546875 C 165.929688 110.902344 167.363281 108.648438 168.023438 107.285156 C 168.65625 105.96875 169.03125 105.097656 168.890625 105.355469 C 168.726562 105.59375 167.949219 106.742188 167.175781 107.941406 C 165.578125 110.339844 163.085938 113.675781 162.5 114.167969 C 162.289062 114.332031 162.125 114.613281 162.125 114.753906 C 162.125 114.921875 161.914062 115.273438 161.652344 115.554688 C 161.394531 115.8125 161.253906 116.1875 161.324219 116.375 C 161.394531 116.566406 161.300781 116.871094 161.113281 117.035156 C 160.949219 117.222656 160.785156 117.527344 160.785156 117.738281 C 160.785156 118.914062 158.574219 121.921875 157.730469 121.945312 C 157.566406 121.945312 157.425781 122.039062 157.425781 122.132812 C 157.425781 122.25 156.789062 122.507812 156.015625 122.746094 C 153.3125 123.566406 151.199219 122.839844 150.257812 120.769531 C 149.695312 119.523438 149.882812 116.613281 150.773438 113.015625 L 151.457031 110.316406 L 153.078125 110.199219 C 157.542969 109.84375 161.890625 106.34375 161.890625 103.101562 C 161.890625 101.011719 160.574219 97.578125 158.882812 95.324219 C 157.753906 93.773438 157.472656 93.234375 156.929688 91.542969 C 156.4375 90.039062 156.34375 88.464844 156.71875 88.226562 C 157.121094 87.96875 159.304688 89.332031 160.972656 90.882812 C 161.867188 91.707031 162.59375 92.292969 162.59375 92.199219 C 162.59375 92.105469 162.453125 91.847656 162.265625 91.660156 C 161.652344 90.976562 160.480469 88.394531 160.363281 87.453125 C 160.148438 85.691406 161.488281 83.882812 162.992188 83.882812 C 163.722656 83.882812 164.824219 84.914062 165.273438 86.019531 C 166.304688 88.605469 166.683594 95.089844 166.117188 100.894531 C 165.8125 103.972656 164.945312 105.757812 161.796875 109.703125 C 161.136719 110.527344 160.621094 111.277344 160.644531 111.394531 C 160.691406 111.488281 160.457031 112.101562 160.148438 112.710938 C 159.46875 114.097656 159.1875 115.273438 159.515625 115.460938 C 159.65625 115.554688 160.101562 114.851562 160.550781 113.910156 C 160.996094 112.96875 161.914062 111.441406 162.59375 110.550781 C 167.949219 103.40625 170.886719 96.757812 171.546875 90.226562 C 171.992188 85.855469 171.40625 83.082031 169.550781 80.898438 C 168.5625 79.769531 166.824219 78.804688 165.367188 78.59375 C 164.097656 78.40625 163.226562 78.734375 164.355469 78.972656 C 165.015625 79.113281 164.992188 79.136719 164.121094 79.160156 C 161.019531 79.253906 158.011719 82.355469 156.8125 86.652344 C 156.390625 88.15625 155.992188 88.628906 156.132812 87.453125 C 156.179688 87.101562 156.0625 86.652344 155.898438 86.464844 C 155.378906 85.878906 154.605469 83.175781 154.605469 82 C 154.605469 81.179688 154.769531 80.640625 155.332031 79.792969 C 156.179688 78.523438 159.1875 75.492188 159.796875 75.304688 C 160.222656 75.164062 160.714844 73.027344 160.714844 71.3125 C 160.714844 70.441406 159.5625 67.269531 158.433594 64.96875 C 157.496094 63.085938 155.570312 60.902344 152.539062 58.269531 C 150.234375 56.273438 150.023438 55.992188 149.460938 53.949219 C 148.917969 52.019531 148.941406 52.019531 151.996094 53.5 C 153.851562 54.394531 154.582031 54.933594 156.132812 56.484375 C 159.09375 59.445312 160.550781 62.335938 161.207031 66.449219 C 161.417969 67.832031 161.511719 68.117188 161.773438 67.902344 C 162.21875 67.527344 163.015625 65.015625 163.179688 63.441406 C 163.324219 62.171875 163.300781 62.125 162.335938 61.207031 C 161.820312 60.691406 160.503906 59.070312 159.46875 57.589844 C 157.097656 54.300781 155.617188 52.9375 151.761719 50.632812 L 148.777344 48.824219 L 148.261719 46.921875 C 147.578125 44.40625 147.578125 44.5 148.261719 44.621094 C 149.367188 44.761719 153.265625 46.265625 154.558594 47.039062 C 155.261719 47.460938 156.929688 48.871094 158.246094 50.164062 C 160.222656 52.089844 160.808594 52.84375 161.582031 54.417969 C 162.101562 55.449219 162.710938 57.097656 162.945312 58.058594 L 163.371094 59.796875 L 163.699219 59.046875 C 164.003906 58.269531 164.191406 53.453125 163.910156 53.171875 C 163.839844 53.101562 163.769531 53.429688 163.746094 53.949219 L 163.746094 54.863281 L 163.441406 54.042969 C 162.992188 52.84375 160.410156 49.199219 158.882812 47.625 C 156.15625 44.808594 152.796875 42.902344 149.058594 42.035156 L 146.875 41.542969 L 146.476562 40.320312 C 146.265625 39.660156 145.839844 38.628906 145.535156 38.015625 C 145.230469 37.40625 144.972656 36.84375 144.972656 36.796875 C 144.972656 36.535156 146.828125 36.183594 148.261719 36.160156 C 150.328125 36.136719 149.4375 35.785156 146.40625 35.433594 C 144.691406 35.246094 144.054688 35.054688 143.75 34.703125 C 143.117188 34.023438 143.234375 33.625 144.21875 33.175781 L 145.089844 32.800781 L 144.03125 32.660156 C 143.445312 32.589844 142.738281 32.402344 142.457031 32.238281 C 141.28125 31.601562 141.1875 31.90625 142.128906 33.292969 C 143.75 35.714844 146.3125 43 146.6875 46.289062 C 146.757812 46.875 146.921875 47.769531 147.0625 48.285156 C 147.179688 48.800781 147.34375 50.28125 147.414062 51.574219 C 147.460938 52.867188 147.699219 54.652344 147.910156 55.570312 C 148.121094 56.460938 148.332031 57.566406 148.402344 57.988281 C 148.449219 58.433594 148.542969 58.882812 148.613281 58.976562 C 148.660156 59.070312 148.777344 59.820312 148.847656 60.644531 C 148.941406 61.464844 149.105469 62.265625 149.226562 62.429688 C 149.367188 62.59375 149.4375 62.804688 149.367188 62.898438 C 149.226562 63.132812 149.507812 64.683594 150.023438 66.730469 C 150.234375 67.574219 150.445312 68.84375 150.492188 69.550781 C 150.515625 70.253906 150.632812 71.050781 150.75 71.3125 C 150.871094 71.570312 150.941406 73.027344 150.941406 74.578125 C 150.941406 77.726562 150.800781 77.984375 148.917969 78.5 C 147.675781 78.828125 147.367188 78.664062 147.203125 77.609375 C 146.710938 74.695312 144.972656 70.957031 142.976562 68.539062 C 141.707031 67.011719 141.328125 66.375 142.011719 66.941406 C 142.292969 67.175781 142.457031 67.058594 142.949219 66.328125 C 143.75 65.179688 143.773438 64.144531 143.046875 64.144531 C 142.738281 64.144531 141.871094 63.863281 141.09375 63.535156 C 138.511719 62.429688 136.441406 62.03125 133.222656 62.054688 C 130.96875 62.078125 130.523438 62.125 131.34375 62.265625 C 133.90625 62.734375 137.523438 64.449219 140.0625 66.398438 C 143.421875 68.984375 146.21875 73.800781 146.96875 78.3125 C 147.085938 78.996094 147.203125 79.183594 147.507812 79.089844 C 147.722656 79.042969 148.308594 78.925781 148.777344 78.851562 C 149.507812 78.710938 149.648438 78.757812 149.789062 79.183594 C 150.023438 79.886719 149.8125 80.003906 148.378906 80.003906 L 147.132812 80.003906 L 147.039062 82.472656 C 146.945312 84.585938 146.804688 85.199219 146.148438 86.820312 C 145.699219 87.851562 145.019531 89.214844 144.621094 89.875 C 144.21875 90.507812 143.679688 91.351562 143.445312 91.730469 L 143.023438 92.410156 L 143.773438 91.894531 C 144.621094 91.28125 144.972656 90.648438 146.382812 87.21875 L 147.390625 84.796875 L 149.578125 83.503906 C 150.800781 82.800781 151.902344 82.285156 152.042969 82.378906 C 152.398438 82.589844 152.160156 86.867188 151.691406 89.355469 C 151.316406 91.257812 150.351562 93.796875 149.671875 94.691406 L 149.226562 95.277344 L 149.367188 94.691406 C 149.484375 94.148438 149.4375 94.171875 148.777344 94.925781 C 148.378906 95.371094 148.050781 95.839844 148.027344 95.933594 C 148.027344 96.265625 142.976562 102.066406 141.117188 103.898438 C 140.484375 104.535156 139.730469 105.097656 139.425781 105.167969 C 139.121094 105.238281 138.863281 105.402344 138.863281 105.5 C 138.863281 106.0625 136.796875 104.933594 135.878906 103.875 C 135.125 103.007812 135.199219 102.539062 136.347656 100.632812 C 137.078125 99.390625 138.015625 98.355469 140.039062 96.546875 C 143.117188 93.796875 143.09375 93.820312 143.09375 93.117188 C 143.09375 92.667969 142.832031 92.855469 141.519531 94.195312 C 139.824219 95.886719 138.816406 96.617188 136.300781 97.863281 C 133.765625 99.128906 132.121094 99.484375 128.640625 99.484375 C 126.011719 99.460938 125.328125 99.390625 123.636719 98.847656 C 118.609375 97.25 114.636719 93.914062 112.40625 89.378906 C 110.972656 86.464844 110.621094 84.585938 110.597656 80.003906 C 110.574219 75.75 110.832031 74.460938 112.21875 71.921875 C 113.863281 68.914062 116.496094 66.425781 120.136719 64.425781 C 122.15625 63.324219 124.460938 62.617188 127.46875 62.171875 C 127.867188 62.101562 127.183594 62.101562 125.988281 62.171875 C 124.128906 62.265625 118.914062 63.371094 117.199219 64.027344 C 116.328125 64.355469 116.824219 63.722656 118.023438 62.921875 C 119.359375 62.03125 122.699219 59.1875 122.578125 59.046875 C 122.367188 58.859375 119.054688 60.410156 117.550781 61.394531 C 115.484375 62.78125 115.0625 62.921875 112.78125 63.109375 C 111.019531 63.25 110.902344 63.25 110.902344 62.804688 C 110.902344 61.136719 113.957031 57.589844 116.398438 56.390625 C 117.949219 55.640625 117.738281 55.425781 116.140625 56.132812 C 114.824219 56.742188 111.675781 58.882812 111.417969 59.351562 C 111.253906 59.632812 111.019531 59.703125 110.597656 59.585938 C 109.9375 59.421875 109.421875 58.222656 109.65625 57.332031 C 109.84375 56.625 109.351562 56.765625 109.070312 57.496094 C 108.625 58.648438 108.574219 59.046875 108.433594 61.652344 C 108.363281 63.0625 108.199219 64.402344 108.058594 64.660156 C 107.800781 65.132812 106.53125 65.226562 104.910156 64.875 C 104.394531 64.753906 102.914062 64.589844 101.644531 64.519531 C 98.589844 64.332031 98.332031 64.074219 97.746094 60.808594 C 97.390625 58.882812 97.179688 58.269531 96.359375 57.023438 C 95.839844 56.226562 95.394531 55.640625 95.394531 55.734375 C 95.394531 55.804688 95.558594 56.53125 95.769531 57.332031 C 95.980469 58.222656 96.074219 59.117188 95.980469 59.679688 L 95.816406 60.597656 L 95.207031 60.199219 C 94.855469 59.984375 93.984375 59.234375 93.28125 58.550781 C 90.695312 56.085938 87.523438 55.121094 80.851562 54.792969 C 76.410156 54.558594 76.316406 54.535156 75.609375 52.914062 C 75.375 52.375 75.070312 51.925781 74.953125 51.925781 C 74.859375 51.925781 74.71875 51.175781 74.671875 50.28125 C 74.601562 48.660156 74.601562 48.636719 75.304688 48.308594 C 77.539062 47.273438 82.542969 46.148438 86.867188 45.722656 C 88.652344 45.535156 89.636719 45.394531 89.050781 45.371094 C 88.464844 45.371094 86.890625 45.464844 85.527344 45.582031 C 78.617188 46.21875 78.195312 46.171875 77.089844 44.808594 C 76.574219 44.195312 76.503906 43.914062 76.574219 42.363281 C 76.621094 40.859375 76.714844 40.507812 77.207031 39.992188 C 77.515625 39.636719 77.84375 39.191406 77.890625 38.980469 C 77.960938 38.769531 78.453125 38.132812 78.972656 37.570312 C 79.488281 37.007812 80.828125 35.175781 81.953125 33.480469 C 83.765625 30.78125 84.140625 30.378906 85.175781 29.863281 C 87.078125 28.925781 90.132812 29.089844 97.507812 30.546875 C 99.765625 30.992188 100.847656 31.039062 103.710938 30.78125 C 107.472656 30.449219 110.621094 29.675781 113.347656 28.335938 C 114.519531 27.773438 115.835938 27.253906 116.28125 27.160156 C 116.707031 27.089844 117.667969 26.667969 118.398438 26.222656 C 119.125 25.773438 120.394531 25.257812 121.242188 25.046875 C 122.085938 24.859375 123.238281 24.507812 123.824219 24.296875 C 124.625 23.988281 125.679688 23.894531 128.054688 23.871094 L 131.203125 23.847656 L 131.367188 23.261719 C 131.460938 22.933594 131.53125 22.296875 131.554688 21.851562 L 131.554688 21.027344 L 131.179688 21.734375 C 130.710938 22.601562 130.402344 22.816406 129.957031 22.578125 C 129.558594 22.367188 129.347656 22.390625 128.054688 22.675781 C 127.421875 22.816406 127.300781 22.792969 127.421875 22.484375 C 127.890625 21.289062 128.03125 20.207031 127.84375 19.714844 C 127.632812 19.171875 127.609375 19.171875 127.609375 19.855469 C 127.585938 20.839844 126.832031 21.945312 125.726562 22.699219 C 124.742188 23.332031 124.058594 23.332031 124.058594 22.648438 C 124.058594 22.34375 123.988281 22.367188 123.636719 22.792969 C 123.332031 23.167969 122.957031 23.308594 122.0625 23.332031 L 120.910156 23.378906 L 120.488281 20.816406 C 119.785156 16.566406 117.433594 12.265625 114.332031 9.5625 C 112.921875 8.363281 108.082031 5.898438 108.082031 6.390625 Z M 58.410156 46.335938 C 58.71875 46.640625 57.988281 48.894531 57.472656 49.226562 C 56.484375 49.882812 49.8125 52.632812 49.226562 52.632812 C 48.777344 52.632812 48.613281 52.46875 48.496094 51.972656 C 48.425781 51.621094 48.332031 51.222656 48.285156 51.082031 C 48.167969 50.679688 48.988281 48.988281 49.601562 48.402344 C 50.257812 47.792969 52.207031 46.875 53.898438 46.382812 C 55.074219 46.074219 58.082031 46.027344 58.410156 46.335938 Z M 56.507812 54.441406 C 56.203125 55.59375 55.921875 56.671875 55.828125 56.859375 C 55.757812 57.050781 54.933594 57.683594 54.019531 58.246094 C 53.101562 58.8125 51.714844 59.820312 50.941406 60.480469 C 50.140625 61.136719 49.226562 61.914062 48.894531 62.171875 L 48.285156 62.6875 L 48.214844 60.949219 C 48.167969 59.960938 48.261719 59 48.425781 58.71875 C 48.613281 58.363281 48.613281 58.269531 48.425781 58.363281 C 48.285156 58.457031 48.167969 58.410156 48.167969 58.269531 C 48.167969 57.777344 50.847656 55.308594 52.375 54.441406 C 53.898438 53.523438 56.320312 52.421875 56.765625 52.398438 C 56.929688 52.398438 56.835938 53.148438 56.507812 54.441406 Z M 86.441406 55.59375 C 90.0625 56.34375 91.824219 57.332031 93.632812 59.609375 C 94.667969 60.925781 95.441406 62.78125 95.230469 63.371094 C 95.066406 63.792969 92.527344 63.769531 91.519531 63.347656 C 91.09375 63.15625 90.015625 62.523438 89.144531 61.9375 C 87.828125 61.019531 83.882812 58.976562 83.457031 58.976562 C 82.894531 58.976562 86.160156 61.582031 88.628906 63.109375 C 89.566406 63.675781 90.203125 64.144531 90.039062 64.144531 C 89.875 64.144531 87.875 63.652344 85.574219 63.039062 L 81.414062 61.960938 L 75.964844 61.867188 C 69.523438 61.75 67.832031 61.9375 65.554688 63.085938 C 64.660156 63.535156 63.839844 63.910156 63.746094 63.910156 C 63.417969 63.910156 65.695312 61.726562 67.902344 59.9375 C 71.359375 57.167969 74.625 55.640625 78.125 55.191406 C 80.027344 54.957031 84.304688 55.167969 86.441406 55.59375 Z M 152.277344 61.488281 C 154.558594 63.933594 157.472656 70.253906 157.824219 73.566406 C 157.988281 75.117188 157.800781 75.304688 156.367188 75.210938 C 154.535156 75.117188 153.949219 74.320312 152.75 70.253906 C 152.042969 67.855469 150.988281 63.300781 150.632812 61.042969 C 150.46875 60.054688 150.492188 59.960938 150.824219 60.148438 C 151.035156 60.269531 151.691406 60.855469 152.277344 61.488281 Z M 54.371094 62.3125 C 54.183594 63.132812 53.757812 64.660156 53.429688 65.742188 C 52.984375 67.246094 52.75 67.691406 52.46875 67.621094 C 51.925781 67.527344 51.667969 66.328125 51.925781 65.273438 C 52.066406 64.777344 52.277344 63.933594 52.421875 63.394531 C 52.65625 62.5 54.019531 60.855469 54.535156 60.855469 C 54.628906 60.855469 54.558594 61.511719 54.371094 62.3125 Z M 81.882812 62.804688 C 84.421875 63.699219 87.945312 65.507812 89.472656 66.753906 C 91.871094 68.679688 94.289062 72.460938 95.300781 75.773438 C 95.535156 76.550781 95.746094 77.207031 95.769531 77.253906 C 95.792969 77.300781 96.289062 76.996094 96.875 76.597656 C 98.027344 75.824219 99.273438 75.304688 101.152344 74.835938 C 101.808594 74.671875 102.089844 74.507812 101.832031 74.507812 C 101.550781 74.484375 100.65625 74.695312 99.859375 74.953125 C 99.058594 75.210938 98.355469 75.421875 98.332031 75.421875 C 98.308594 75.421875 98.214844 74.507812 98.144531 73.355469 C 98.050781 72.226562 97.863281 70.675781 97.722656 69.925781 L 97.4375 68.539062 L 98.238281 67.878906 C 100.140625 66.28125 103.570312 65.90625 106.015625 67.035156 C 107.496094 67.691406 109.328125 69.265625 109.890625 70.347656 C 110.148438 70.863281 110.222656 71.476562 110.125 72.816406 C 109.914062 75.539062 109.726562 76.410156 109.328125 76.269531 C 109.09375 76.175781 109.164062 76.363281 109.46875 76.808594 C 110.480469 78.21875 109.867188 78.570312 108.339844 77.445312 C 105.238281 75.164062 102.253906 74.882812 98.707031 76.527344 C 98.027344 76.855469 97.109375 77.421875 96.6875 77.796875 L 95.910156 78.476562 L 96.027344 80.308594 C 96.265625 83.835938 94.714844 88.085938 91.566406 92.410156 C 89.355469 95.441406 85.855469 97.886719 82.121094 98.964844 C 80.546875 99.414062 79.722656 99.507812 76.949219 99.484375 C 74.035156 99.484375 73.449219 99.414062 71.78125 98.847656 C 65.976562 96.921875 61.652344 92.175781 59.796875 85.667969 C 59.28125 83.882812 59.210938 83.128906 59.210938 80.144531 C 59.210938 75.609375 59.796875 73.660156 62.265625 70.019531 C 64.753906 66.351562 69.550781 63.25 74.25 62.265625 C 76.082031 61.890625 80.027344 62.171875 81.882812 62.804688 Z M 49.671875 68.164062 C 49.34375 69.125 48.894531 70.839844 48.660156 71.992188 C 48.261719 73.847656 47.957031 74.460938 47.414062 74.484375 C 46.828125 74.484375 47.675781 71.453125 49.035156 68.5625 C 49.625 67.292969 50.164062 66.28125 50.210938 66.328125 C 50.234375 66.375 50 67.199219 49.671875 68.164062 Z M 157.191406 76.433594 C 157.191406 76.832031 155.476562 77.65625 152.867188 78.523438 C 150.871094 79.183594 150.140625 79.230469 150.140625 78.734375 C 150.140625 78.382812 150.800781 78.078125 153.734375 77.042969 C 156.578125 76.082031 157.191406 75.964844 157.191406 76.433594 Z M 50.375 76.972656 C 51.152344 77.160156 52.679688 77.609375 53.734375 77.9375 C 55.59375 78.523438 55.640625 78.546875 55.402344 79.089844 C 55.074219 79.792969 55.378906 80.191406 56.835938 80.96875 C 58.574219 81.882812 56.953125 81.367188 54.628906 80.238281 C 53.476562 79.699219 52.089844 79.113281 51.574219 78.949219 C 50.234375 78.546875 49.058594 77.84375 48.566406 77.160156 C 48.191406 76.644531 48.191406 76.597656 48.542969 76.597656 C 48.753906 76.597656 49.578125 76.761719 50.375 76.972656 Z M 104.582031 78.007812 C 105.640625 78.3125 106.835938 79.113281 107.449219 79.910156 C 107.730469 80.308594 108.410156 82.660156 109.210938 86.136719 L 110.550781 91.753906 L 110.480469 95.464844 C 110.457031 97.578125 110.503906 99.128906 110.621094 99.058594 C 110.738281 98.988281 110.972656 98.144531 111.113281 97.15625 C 111.371094 95.558594 111.464844 95.394531 111.9375 95.394531 C 112.804688 95.394531 114.027344 95.886719 114.707031 96.5 C 115.648438 97.390625 116.613281 99.742188 116.730469 101.433594 L 116.824219 102.890625 L 114.992188 102.820312 C 113.652344 102.773438 112.734375 102.609375 111.699219 102.160156 L 110.246094 101.574219 L 108.976562 102.445312 C 106.460938 104.136719 103.171875 104.230469 100.964844 102.703125 C 98.027344 100.679688 96.96875 97.179688 97.484375 91.210938 C 97.625 89.566406 97.792969 87.21875 97.863281 85.996094 C 98.097656 81.835938 98.238281 80.734375 98.660156 79.746094 C 99.035156 78.898438 99.296875 78.6875 100.351562 78.289062 C 101.761719 77.75 103.289062 77.65625 104.582031 78.007812 Z M 58.175781 79.207031 C 58.339844 79.347656 58.457031 80.027344 58.480469 80.78125 C 58.527344 83.953125 59.703125 88.652344 61.160156 91.542969 C 63.039062 95.230469 67.105469 98.519531 71.664062 100 C 73.378906 100.5625 74.058594 100.632812 76.597656 100.65625 C 78.21875 100.679688 80.003906 100.609375 80.59375 100.515625 C 81.179688 100.421875 81.484375 100.421875 81.296875 100.492188 C 81.109375 100.5625 80.425781 100.964844 79.769531 101.410156 C 78.640625 102.160156 75.871094 103.078125 75.445312 102.820312 C 75.351562 102.75 74.367188 102.84375 73.308594 103.03125 C 71.40625 103.359375 69.878906 103.242188 68.890625 102.703125 C 68.703125 102.609375 66.988281 100.964844 65.085938 99.058594 C 61.675781 95.675781 60.621094 94.21875 60.292969 92.527344 C 60.246094 92.222656 59.867188 90.671875 59.46875 89.050781 C 58.671875 85.714844 58.035156 81.742188 58.199219 81.085938 C 58.292969 80.734375 58.128906 80.570312 57.496094 80.378906 C 56.695312 80.097656 56.390625 79.746094 56.390625 79.019531 C 56.390625 78.757812 56.554688 78.710938 57.167969 78.828125 C 57.566406 78.925781 58.035156 79.089844 58.175781 79.207031 Z M 149.4375 80.828125 C 148.964844 81.132812 148.425781 81.132812 148.613281 80.828125 C 148.683594 80.6875 148.988281 80.59375 149.273438 80.59375 C 149.695312 80.59375 149.71875 80.640625 149.4375 80.828125 Z M 54.394531 89.875 C 55.710938 94.289062 57.800781 97.980469 61.890625 103.148438 C 63.746094 105.476562 64.945312 107.449219 64.800781 107.871094 C 64.753906 108.011719 64.332031 107.566406 63.863281 106.882812 C 63.394531 106.179688 62.101562 104.511719 60.972656 103.148438 C 56.367188 97.648438 53.875 92.832031 53.664062 89.097656 C 53.617188 88.109375 53.617188 87.382812 53.664062 87.523438 C 53.710938 87.640625 54.042969 88.699219 54.394531 89.875 Z M 152.253906 94.101562 C 152.609375 93.890625 152.75 95.253906 152.492188 96.453125 C 152.351562 97.085938 152.136719 98.097656 152.019531 98.683594 C 151.574219 101.175781 151.480469 101.503906 151.316406 101.503906 C 151.082031 101.503906 149.929688 103.972656 149.742188 104.839844 C 149.671875 105.261719 149.53125 105.710938 149.414062 105.851562 C 149.320312 105.96875 149.175781 106.507812 149.082031 107.023438 C 148.988281 107.542969 148.847656 108.058594 148.753906 108.199219 C 148.683594 108.316406 148.589844 108.648438 148.566406 108.90625 C 148.542969 109.351562 147.34375 112.851562 146.875 113.839844 C 146.074219 115.554688 145.464844 116.988281 145.324219 117.480469 C 145.230469 117.808594 144.972656 118.445312 144.738281 118.890625 C 144.5 119.335938 143.9375 120.511719 143.46875 121.476562 C 142.855469 122.792969 142.175781 123.730469 140.695312 125.257812 C 138.535156 127.515625 137.828125 127.914062 137.59375 127.066406 C 137.5 126.761719 137.335938 124.789062 137.21875 122.648438 C 137.101562 120.511719 137.007812 118.726562 136.984375 118.65625 C 136.984375 118.585938 136.867188 118.703125 136.75 118.890625 C 136.605469 119.101562 136.511719 119.125 136.511719 118.960938 C 136.511719 118.796875 136.136719 118.070312 135.691406 117.316406 C 135.246094 116.566406 134.867188 116 134.867188 116.070312 C 134.867188 116.140625 135.078125 117.199219 135.339844 118.421875 C 135.949219 121.3125 135.925781 123.121094 135.316406 125.117188 C 134.84375 126.597656 133.976562 128.21875 133.457031 128.523438 C 133.222656 128.664062 132.285156 130.78125 132.285156 131.179688 C 132.285156 131.882812 131.132812 133.503906 129.371094 135.316406 C 126.855469 137.921875 125.398438 139.332031 125.1875 139.332031 C 125.09375 139.332031 124.882812 139.472656 124.71875 139.660156 C 124.011719 140.367188 122.53125 140.929688 121.617188 140.835938 C 121.101562 140.789062 120.582031 140.648438 120.464844 140.53125 C 120.066406 140.132812 121.148438 137.59375 122.25 136.394531 C 122.484375 136.136719 123.003906 135.410156 123.425781 134.75 C 123.824219 134.117188 124.414062 133.316406 124.71875 132.988281 C 125 132.660156 125.351562 131.976562 125.492188 131.484375 C 125.917969 129.910156 125.800781 125.164062 125.28125 122.414062 C 124.625 119.007812 124.484375 117.949219 124.71875 117.949219 C 125.140625 117.949219 129.300781 123.988281 130.5 126.386719 C 130.921875 127.207031 131.203125 127.539062 131.460938 127.445312 C 131.90625 127.253906 131.929688 125.46875 131.507812 124.273438 C 131.179688 123.285156 128.851562 119.429688 127.75 118.023438 C 125.398438 114.992188 124.789062 114.097656 123.285156 111.511719 C 120.113281 105.992188 119.195312 103.617188 120.253906 103.617188 C 120.488281 103.617188 121.617188 103.828125 122.792969 104.089844 C 125.585938 104.722656 130.378906 104.957031 132.308594 104.558594 L 133.765625 104.253906 L 134.445312 105.050781 C 136.867188 107.917969 138.394531 110.316406 138.746094 111.84375 C 138.839844 112.289062 139.003906 113.769531 139.074219 115.132812 L 139.214844 117.597656 L 139.875 114.566406 C 140.742188 110.621094 141.730469 108.648438 144.195312 105.96875 C 146.453125 103.5 147.699219 101.855469 148.824219 99.859375 C 149.296875 99.011719 149.789062 98.167969 149.90625 97.980469 C 150.023438 97.792969 150.28125 97.203125 150.492188 96.6875 C 150.703125 96.171875 151.035156 95.488281 151.222656 95.160156 C 151.433594 94.832031 151.644531 94.359375 151.714844 94.101562 C 151.808594 93.84375 151.902344 93.773438 151.972656 93.9375 C 152.019531 94.101562 152.136719 94.171875 152.253906 94.101562 Z M 120.230469 98.660156 C 122.296875 99.695312 125.164062 100.445312 128.171875 100.773438 C 130.546875 101.035156 130.875 101.011719 132.238281 100.585938 L 133.71875 100.140625 L 133.386719 100.632812 C 132.917969 101.339844 132.261719 101.691406 132.121094 101.316406 C 132.050781 101.175781 131.789062 101.035156 131.554688 101.035156 C 131.109375 101.035156 131.109375 101.082031 131.4375 101.550781 C 133.058594 103.851562 128.429688 104.066406 122.367188 101.949219 C 119.148438 100.824219 118.539062 100.328125 117.386719 98.003906 L 116.589844 96.359375 L 117.667969 97.132812 C 118.28125 97.578125 119.429688 98.261719 120.230469 98.660156 Z M 88.910156 97.4375 C 88.816406 97.816406 88.511719 98.613281 88.226562 99.273438 C 87.921875 99.90625 87.21875 101.902344 86.628906 103.664062 C 84.867188 108.90625 82.378906 113.558594 78.925781 118.09375 C 77.84375 119.5 76.363281 120.324219 75.773438 119.832031 C 74.671875 118.914062 73.988281 115.742188 74.105469 111.960938 C 74.175781 109.492188 74.273438 108.976562 74.835938 107.800781 C 75.5625 106.25 76.128906 105.851562 80.570312 103.640625 C 84.398438 101.761719 85.054688 101.246094 85.054688 100.1875 C 85.054688 99.4375 85.007812 99.390625 84.421875 99.507812 C 83.859375 99.601562 83.882812 99.578125 84.585938 99.25 C 85.03125 99.035156 85.574219 98.730469 85.785156 98.542969 C 86.207031 98.167969 88.605469 96.804688 88.886719 96.804688 C 88.980469 96.804688 88.980469 97.085938 88.910156 97.4375 Z M 92.574219 98.496094 C 92.574219 98.894531 92.503906 99.152344 92.410156 99.058594 C 92.152344 98.824219 92.152344 97.746094 92.386719 97.746094 C 92.480469 97.746094 92.574219 98.074219 92.574219 98.496094 Z M 97.578125 105.003906 C 98.261719 105.617188 99.035156 106.859375 98.847656 107.050781 C 98.800781 107.097656 98.449219 106.71875 98.074219 106.179688 C 97.722656 105.664062 96.992188 104.839844 96.453125 104.371094 C 95.722656 103.710938 95.652344 103.617188 96.21875 103.949219 C 96.617188 104.183594 97.226562 104.652344 97.578125 105.003906 Z M 117.175781 105.78125 C 118.820312 107.566406 122.25 114.121094 123.238281 117.292969 C 123.566406 118.421875 124.058594 120.394531 124.296875 121.710938 C 125.09375 125.75 124.835938 127.539062 123.542969 126.949219 C 123.214844 126.808594 121.664062 125.445312 120.089844 123.917969 C 116.425781 120.371094 116.472656 120.417969 115.71875 120.910156 C 115.179688 121.265625 114.921875 121.289062 113.769531 121.050781 C 108.246094 119.949219 106.4375 119.523438 105.59375 119.101562 C 104.699219 118.679688 104.582031 118.515625 104.207031 117.199219 C 103.851562 115.929688 103.851562 115.53125 104.089844 113.863281 C 104.464844 111.464844 104.792969 110.832031 106.039062 110.101562 C 107.050781 109.515625 110.148438 108.550781 111.042969 108.550781 C 111.84375 108.550781 114.707031 107 115.578125 106.109375 C 116.023438 105.640625 116.472656 105.261719 116.542969 105.261719 C 116.636719 105.261719 116.917969 105.5 117.175781 105.78125 Z M 103.265625 114.425781 C 103.710938 116.472656 103.78125 119.574219 103.40625 119.808594 C 103.265625 119.902344 102.324219 119.878906 101.339844 119.761719 C 99.648438 119.550781 97.320312 119.691406 94.523438 120.207031 C 93.585938 120.394531 93.328125 119.925781 93.75 118.890625 C 94.054688 118.140625 99.226562 113.886719 101.222656 112.734375 C 102.609375 111.9375 102.773438 112.078125 103.265625 114.425781 Z M 80.804688 121.945312 C 80.261719 126.433594 80.261719 128.5 80.710938 130.757812 C 81.132812 132.800781 81.484375 133.695312 82.730469 135.878906 C 83.457031 137.148438 83.601562 137.59375 83.386719 137.828125 C 82.332031 139.097656 79.230469 136.394531 77.867188 132.988281 C 77.515625 132.144531 77.136719 131.203125 76.972656 130.898438 C 76.832031 130.570312 76.714844 129.089844 76.714844 127.375 C 76.714844 124.554688 76.761719 124.320312 77.375 123.121094 C 78.195312 121.546875 80.898438 117.925781 81.085938 118.140625 C 81.179688 118.234375 81.039062 119.949219 80.804688 121.945312 Z M 87.335938 118.9375 C 88.0625 119.621094 88.085938 121.382812 87.40625 122.132812 C 87.125 122.414062 86.984375 122.648438 87.054688 122.648438 C 87.382812 122.648438 85.410156 124.8125 84.796875 125.117188 C 84.234375 125.421875 84.140625 125.398438 83.789062 125.023438 C 83.550781 124.765625 83.410156 124.199219 83.410156 123.566406 C 83.410156 122.34375 84.046875 119.738281 84.351562 119.644531 C 84.492188 119.597656 84.585938 119.40625 84.585938 119.21875 C 84.585938 119.054688 84.867188 118.84375 85.246094 118.75 C 85.597656 118.679688 85.996094 118.585938 86.113281 118.539062 C 86.605469 118.375 86.796875 118.445312 87.335938 118.9375 Z M 71.050781 130.476562 C 71.6875 132.871094 73.566406 137.125 74.625 138.605469 C 75.117188 139.285156 75.046875 139.261719 74.25 138.394531 C 72.769531 136.773438 70.792969 132.589844 70.253906 129.933594 C 69.785156 127.632812 69.644531 123.613281 69.972656 121.828125 C 70.089844 121.148438 70.183594 121.898438 70.277344 124.53125 C 70.394531 127.375 70.582031 128.6875 71.050781 130.476562 Z M 108.789062 121.96875 C 111.042969 122.226562 113.816406 122.886719 115.789062 123.636719 C 116.894531 124.035156 117.621094 124.625 119.902344 126.855469 C 121.453125 128.359375 122.863281 129.886719 123.050781 130.238281 C 123.730469 131.578125 123.308594 133.457031 121.898438 135.316406 C 121.003906 136.488281 119.429688 135.949219 117.363281 133.742188 C 116.425781 132.730469 114.707031 131.367188 112.851562 130.121094 C 109.304688 127.75 108.058594 127.351562 103.382812 127.183594 C 101.035156 127.089844 100 127.183594 98.238281 127.5625 C 95.371094 128.171875 93.984375 128.898438 91.683594 131.015625 C 88.910156 133.574219 87.828125 133.882812 86.535156 132.496094 C 85.925781 131.8125 85.316406 130.121094 85.410156 129.324219 C 85.433594 129.019531 85.363281 128.6875 85.246094 128.617188 C 84.960938 128.429688 87.757812 125.234375 88.886719 124.460938 C 89.875 123.800781 93.140625 122.675781 95.441406 122.179688 C 98.496094 121.570312 104.535156 121.476562 108.789062 121.96875 Z M 106.203125 128.996094 C 109.984375 129.769531 113.839844 132.097656 115.859375 134.796875 C 117.363281 136.84375 118.257812 139.96875 117.738281 141.566406 C 117.621094 141.941406 117.503906 142.128906 117.503906 141.964844 C 117.480469 141.777344 117.128906 142.105469 116.707031 142.667969 C 115.695312 143.984375 114.707031 144.644531 112.78125 145.207031 C 110.902344 145.769531 109.023438 145.792969 105.640625 145.324219 C 102.585938 144.902344 101.433594 144.644531 99.199219 143.914062 C 97.484375 143.351562 95.136719 141.871094 93.9375 140.601562 C 93.1875 139.777344 92.105469 137.78125 92.105469 137.195312 C 92.105469 136.960938 91.988281 136.699219 91.847656 136.628906 C 91.707031 136.535156 91.636719 135.761719 91.683594 134.703125 L 91.753906 132.941406 L 93.164062 131.859375 C 94.878906 130.570312 97.414062 129.371094 99.152344 129.019531 C 99.859375 128.875 100.65625 128.710938 100.917969 128.664062 C 102.066406 128.453125 104.160156 128.570312 106.203125 128.996094 Z M 74.929688 136.019531 C 75.445312 136.914062 76.222656 137.945312 76.644531 138.324219 C 77.042969 138.675781 77.703125 139.332031 78.101562 139.753906 C 78.5 140.203125 80.027344 141.519531 81.484375 142.667969 C 82.941406 143.84375 84.070312 144.855469 84.023438 144.902344 C 83.859375 145.066406 80.757812 143 78.546875 141.28125 C 76.597656 139.777344 74.835938 137.640625 74.128906 135.972656 C 73.800781 135.175781 73.660156 134.398438 73.871094 134.398438 C 73.917969 134.398438 74.390625 135.125 74.929688 136.019531 Z M 135.363281 139.777344 C 135.222656 140.015625 134.445312 140.742188 133.648438 141.375 C 132.074219 142.621094 128.523438 145.042969 128.523438 144.902344 C 128.523438 144.832031 129.722656 143.890625 131.179688 142.785156 C 132.613281 141.683594 134.1875 140.460938 134.632812 140.0625 C 135.597656 139.214844 135.667969 139.191406 135.363281 139.777344 Z M 90.460938 145.300781 C 91.824219 147.039062 92.621094 147.675781 94.667969 148.707031 C 96.6875 149.742188 99.320312 150.375 101.527344 150.375 C 102.65625 150.375 103.429688 150.46875 103.523438 150.65625 C 103.757812 151.011719 98.636719 150.726562 96.710938 150.257812 C 92.714844 149.296875 88.980469 146.050781 88.441406 143.09375 L 88.300781 142.269531 L 88.792969 143.046875 C 89.050781 143.46875 89.800781 144.476562 90.460938 145.300781 Z M 109.1875 150.046875 C 109.117188 150.117188 108.90625 150.140625 108.742188 150.070312 C 108.550781 150 108.625 149.929688 108.882812 149.929688 C 109.140625 149.90625 109.28125 149.976562 109.1875 150.046875 Z M 107.917969 150.304688 C 107.753906 150.351562 107.472656 150.351562 107.332031 150.304688 C 107.167969 150.234375 107.285156 150.1875 107.613281 150.1875 C 107.941406 150.1875 108.058594 150.234375 107.917969 150.304688 Z M 104.863281 150.539062 C 104.699219 150.585938 104.417969 150.585938 104.277344 150.539062 C 104.113281 150.46875 104.230469 150.421875 104.558594 150.421875 C 104.886719 150.421875 105.003906 150.46875 104.863281 150.539062 Z M 90.554688 153.03125 C 91.707031 153.972656 92.691406 154.886719 92.761719 155.074219 C 92.808594 155.261719 92.292969 154.886719 91.613281 154.230469 C 90.90625 153.570312 89.824219 152.65625 89.191406 152.160156 C 88.558594 151.691406 88.132812 151.316406 88.25 151.316406 C 88.371094 151.316406 89.402344 152.089844 90.554688 153.03125 Z M 126.269531 154.628906 C 126.175781 155.402344 125.304688 156.695312 123.800781 158.339844 C 123.332031 158.859375 122.769531 159.796875 122.554688 160.457031 C 121.992188 162.195312 119.996094 165.367188 119.101562 165.976562 C 118.65625 166.28125 117.785156 166.707031 117.128906 166.941406 C 116.496094 167.199219 115.648438 167.574219 115.273438 167.785156 C 114.898438 168.023438 114.425781 168.140625 114.214844 168.070312 C 114.003906 168 113.699219 167.902344 113.535156 167.855469 C 113.324219 167.785156 113.347656 167.644531 113.652344 167.339844 C 113.886719 167.105469 114.238281 166.660156 114.425781 166.351562 C 115.71875 164.332031 118.75 160.972656 121.5 158.480469 C 122.0625 157.941406 123.167969 156.835938 123.964844 156.015625 C 126.199219 153.617188 126.386719 153.5 126.269531 154.628906 Z M 71.21875 162.007812 C 77.042969 163.0625 79.957031 164.050781 92.808594 169.335938 C 93.914062 169.785156 94.949219 170.277344 95.113281 170.394531 C 95.511719 170.722656 95.511719 173.402344 95.089844 173.402344 C 94.925781 173.402344 93.515625 172.980469 91.988281 172.4375 C 87.710938 171.003906 84.773438 170.113281 84.140625 170.113281 L 83.574219 170.113281 L 84.09375 170.675781 C 84.375 170.957031 85.03125 171.359375 85.550781 171.5 C 86.089844 171.664062 87.007812 172.085938 87.59375 172.4375 C 88.203125 172.816406 89.449219 173.402344 90.390625 173.730469 C 93.375 174.859375 94.761719 176.175781 94.785156 177.9375 L 94.808594 178.925781 L 93.28125 179.066406 C 91.542969 179.207031 90.929688 179.441406 91.425781 179.769531 C 91.660156 179.910156 91.613281 179.980469 91.234375 179.980469 C 90.578125 179.980469 90.554688 180.238281 91.164062 180.804688 C 91.542969 181.132812 91.847656 181.179688 92.925781 181.039062 C 94.574219 180.851562 95.160156 181.25 95.160156 182.566406 C 95.160156 183.574219 94.714844 183.859375 91.730469 184.679688 C 86.347656 186.207031 81.53125 188.085938 81.53125 188.722656 C 81.53125 188.886719 82.050781 188.933594 83.246094 188.839844 C 84.820312 188.722656 87.757812 187.875 92.550781 186.207031 C 94.453125 185.527344 95.089844 185.550781 94.691406 186.300781 C 94.453125 186.773438 90.835938 188.769531 88.464844 189.753906 C 87.828125 190.015625 86.652344 190.53125 85.878906 190.90625 C 85.101562 191.257812 83.953125 191.730469 83.292969 191.964844 C 80.875 192.832031 80.261719 193.164062 80.617188 193.398438 C 80.851562 193.5625 80.78125 193.585938 80.355469 193.492188 C 80.027344 193.421875 78.21875 193.726562 76.246094 194.195312 C 74.296875 194.644531 71.546875 195.160156 70.089844 195.300781 C 67.738281 195.535156 67.339844 195.511719 66.398438 195.160156 C 64.121094 194.289062 62.921875 191.941406 62.476562 187.382812 C 62.125 183.90625 61.84375 183.339844 62.078125 186.628906 C 62.453125 191.542969 63.0625 193.609375 64.519531 195.042969 C 65.320312 195.816406 65.414062 195.839844 67.738281 195.957031 C 69.902344 196.074219 70.019531 196.101562 68.84375 196.21875 C 66.824219 196.453125 64.96875 196.148438 64.261719 195.488281 C 63.417969 194.691406 62.359375 192.363281 62.054688 190.671875 C 61.253906 186.113281 60.972656 174.507812 61.535156 169.195312 C 61.84375 166.28125 62.757812 163.109375 63.558594 162.195312 C 64.496094 161.089844 65.929688 161.042969 71.21875 162.007812 Z M 113.722656 168.234375 C 113.910156 168.351562 113.980469 168.46875 113.839844 168.46875 C 113.722656 168.46875 113.441406 168.351562 113.25 168.234375 C 113.0625 168.117188 113.015625 168 113.132812 168 C 113.273438 168 113.535156 168.117188 113.722656 168.234375 Z M 97.109375 187.007812 C 97.273438 187.125 97.886719 187.265625 98.449219 187.335938 L 99.507812 187.429688 L 98.332031 187.453125 C 96.992188 187.5 96.546875 187.21875 96.59375 186.324219 C 96.640625 185.808594 96.640625 185.808594 96.734375 186.253906 C 96.78125 186.535156 96.96875 186.867188 97.109375 187.007812 Z M 106.625 187.429688 C 106.390625 187.476562 106.015625 187.476562 105.804688 187.429688 C 105.570312 187.359375 105.757812 187.3125 106.203125 187.3125 C 106.648438 187.3125 106.835938 187.359375 106.625 187.429688 Z M 104.160156 187.664062 C 103.851562 187.710938 103.382812 187.710938 103.101562 187.664062 C 102.796875 187.617188 103.03125 187.570312 103.617188 187.570312 C 104.207031 187.570312 104.441406 187.617188 104.160156 187.664062 Z M 120.183594 191.519531 C 120.699219 191.753906 120.863281 191.894531 120.535156 191.824219 C 119.878906 191.660156 118.65625 191.046875 119.007812 191.046875 C 119.148438 191.046875 119.667969 191.257812 120.183594 191.519531 Z M 82.472656 192.902344 C 82.285156 193.023438 82.023438 193.140625 81.882812 193.140625 C 81.765625 193.140625 81.8125 193.023438 82 192.902344 C 82.191406 192.785156 82.472656 192.667969 82.589844 192.667969 C 82.730469 192.667969 82.660156 192.785156 82.472656 192.902344 Z M 76.292969 194.925781 C 76.222656 194.996094 76.011719 195.019531 75.847656 194.949219 C 75.65625 194.878906 75.726562 194.808594 75.988281 194.808594 C 76.246094 194.785156 76.386719 194.855469 76.292969 194.925781 Z M 75.257812 195.183594 C 75.09375 195.230469 74.8125 195.230469 74.671875 195.183594 C 74.507812 195.113281 74.625 195.066406 74.953125 195.066406 C 75.28125 195.066406 75.398438 195.113281 75.257812 195.183594 Z M 73.777344 195.488281 C 72.980469 195.746094 72.367188 195.746094 72.957031 195.488281 C 73.214844 195.371094 73.636719 195.300781 73.894531 195.300781 C 74.273438 195.300781 74.25 195.347656 73.777344 195.488281 Z M 131.976562 195.394531 C 131.90625 195.464844 131.695312 195.488281 131.53125 195.417969 C 131.34375 195.347656 131.414062 195.277344 131.671875 195.277344 C 131.929688 195.253906 132.074219 195.324219 131.976562 195.394531 Z M 132.917969 195.628906 C 132.847656 195.699219 132.636719 195.722656 132.472656 195.652344 C 132.285156 195.582031 132.355469 195.511719 132.613281 195.511719 C 132.871094 195.488281 133.011719 195.558594 132.917969 195.628906 Z M 71.5 195.886719 C 71.335938 195.933594 71.050781 195.933594 70.910156 195.886719 C 70.746094 195.816406 70.863281 195.769531 71.195312 195.769531 C 71.523438 195.769531 71.640625 195.816406 71.5 195.886719 Z M 138.15625 196.476562 C 138.15625 196.921875 136.984375 199.34375 136.84375 199.199219 C 136.628906 198.964844 137.570312 196.195312 137.875 196.195312 C 138.015625 196.195312 138.15625 196.335938 138.15625 196.476562 Z M 138.15625 196.476562 "/>
<path style=" stroke:none;fill-rule:nonzero;fill:rgb(0%,0%,0%);fill-opacity:1;" d="M 73.894531 63.558594 C 71.546875 64.074219 68.679688 65.554688 66.496094 67.386719 C 62.054688 71.074219 60.527344 74.035156 60.246094 79.535156 C 60.101562 81.789062 60.175781 82.472656 60.691406 84.773438 C 61.042969 86.230469 61.675781 88.203125 62.125 89.121094 C 62.992188 90.953125 65.34375 93.890625 67.011719 95.207031 C 68.703125 96.570312 68.585938 96.40625 66.257812 94.007812 C 65.039062 92.761719 63.746094 91.210938 63.394531 90.578125 C 62.171875 88.273438 62.101562 84.398438 63.25 82.519531 C 63.652344 81.882812 64.921875 81.0625 65.53125 81.0625 C 65.601562 81.0625 66.046875 81.71875 66.472656 82.519531 C 67.785156 84.960938 68.679688 85.878906 70.628906 86.84375 C 72.226562 87.640625 72.601562 87.734375 74.789062 87.828125 C 76.105469 87.875 77.5625 87.828125 78.007812 87.710938 L 78.828125 87.476562 L 77.230469 86.75 C 76.339844 86.324219 75.5625 85.996094 75.515625 85.996094 C 75.445312 85.996094 74.554688 85.457031 73.542969 84.796875 C 71.265625 83.339844 70.488281 82.472656 70.488281 81.414062 C 70.488281 80.191406 71.003906 80.050781 72.722656 80.875 C 73.519531 81.25 74.8125 81.648438 75.5625 81.765625 C 78.640625 82.285156 82.894531 81.8125 85.148438 80.757812 C 86.84375 79.933594 87.382812 79.816406 87.757812 80.121094 C 88.226562 80.523438 88.203125 81.507812 87.710938 82.050781 C 87.359375 82.449219 87.359375 82.519531 87.640625 82.707031 C 88.324219 83.128906 87.054688 84.75 83.339844 88.226562 C 82.871094 88.675781 81.882812 89.378906 81.179688 89.777344 C 80.476562 90.179688 79.816406 90.601562 79.746094 90.71875 C 79.675781 90.835938 79.136719 91.164062 78.523438 91.425781 C 77.914062 91.707031 76.925781 92.152344 76.339844 92.457031 C 75.75 92.738281 74.058594 93.375 72.578125 93.867188 C 71.125 94.335938 69.714844 94.878906 69.453125 95.066406 C 69.03125 95.371094 69.03125 95.394531 69.40625 95.535156 C 70.417969 95.933594 78.734375 92.480469 82.121094 90.273438 C 82.894531 89.777344 84.421875 88.558594 85.527344 87.546875 C 87.242188 85.996094 87.523438 85.808594 87.734375 86.160156 C 87.851562 86.371094 87.992188 87.851562 88.0625 89.425781 C 88.179688 92.246094 88.15625 92.339844 87.453125 93.84375 C 86.675781 95.488281 85.621094 96.453125 83.574219 97.320312 C 82.964844 97.578125 82.496094 97.863281 82.566406 97.910156 C 82.707031 98.074219 85.644531 96.664062 86.75 95.910156 C 88.394531 94.761719 90.648438 92.433594 91.257812 91.1875 C 91.589844 90.554688 91.941406 89.992188 92.058594 89.945312 C 92.246094 89.875 93.351562 88.015625 93.585938 87.335938 C 93.679688 87.078125 93.65625 86.960938 93.515625 87.054688 C 93.210938 87.242188 93.210938 87.335938 93.75 85.410156 C 94.078125 84.210938 94.21875 82.988281 94.242188 80.945312 C 94.265625 78.734375 94.3125 78.359375 94.476562 79.183594 C 94.808594 81.109375 94.714844 83.527344 94.21875 85.078125 C 93.984375 85.902344 93.796875 86.582031 93.84375 86.628906 C 93.867188 86.652344 94.148438 86.089844 94.476562 85.339844 C 94.972656 84.164062 95.042969 83.671875 95.019531 81.296875 C 94.996094 78.101562 94.574219 76.339844 93.28125 73.660156 C 90.15625 67.292969 83.8125 63.179688 77.183594 63.226562 C 76.152344 63.226562 74.671875 63.394531 73.894531 63.558594 Z M 74.082031 64.636719 C 72.769531 64.875 71.40625 65.554688 71.570312 65.835938 C 71.734375 66.09375 71.003906 66.964844 70.582031 66.964844 C 70.417969 66.964844 69.855469 67.386719 69.3125 67.902344 C 68.023438 69.148438 67.644531 69.148438 67.949219 67.902344 C 68.164062 67.105469 68.398438 66.871094 69.808594 66.023438 C 71.476562 64.992188 73.144531 64.425781 74.367188 64.425781 C 74.929688 64.425781 74.859375 64.472656 74.082031 64.636719 Z M 76.597656 72.507812 C 75.894531 72.699219 74.859375 73.121094 74.296875 73.449219 C 73.730469 73.777344 73.214844 74.011719 73.167969 73.941406 C 72.839844 73.613281 76.246094 72.15625 77.300781 72.15625 C 77.632812 72.15625 77.300781 72.320312 76.597656 72.507812 Z M 81.414062 74.105469 C 81.671875 74.296875 81.789062 74.554688 81.695312 74.8125 C 81.460938 75.398438 80.050781 75.234375 79.933594 74.625 C 79.769531 73.871094 80.664062 73.542969 81.414062 74.105469 Z M 72.839844 78.710938 C 74.367188 79.488281 76.972656 80.378906 78.195312 80.523438 C 79.582031 80.6875 81.882812 80.214844 82.425781 79.675781 C 82.636719 79.464844 83.035156 79.136719 83.269531 78.949219 C 83.671875 78.617188 83.695312 78.640625 83.550781 79.113281 L 83.386719 79.605469 L 84.75 79.183594 C 85.503906 78.972656 86.488281 78.710938 86.9375 78.617188 C 87.757812 78.476562 87.757812 78.476562 86.582031 79.230469 C 84.632812 80.449219 83.128906 81.039062 81.226562 81.296875 C 79.207031 81.578125 76.503906 81.320312 75 80.710938 C 74.152344 80.332031 71.195312 78.5 71.195312 78.335938 C 71.195312 78.101562 72.015625 78.289062 72.839844 78.710938 Z M 72.839844 78.710938 "/>
<path style=" stroke:none;fill-rule:nonzero;fill:rgb(0%,0%,0%);fill-opacity:1;" d="M 79.183594 98.449219 C 78.617188 98.636719 78.617188 98.636719 79.300781 98.636719 C 79.699219 98.636719 80.261719 98.542969 80.59375 98.449219 C 81.15625 98.261719 81.15625 98.261719 80.476562 98.261719 C 80.097656 98.261719 79.511719 98.355469 79.183594 98.449219 Z M 79.183594 98.449219 "/>
<path style=" stroke:none;fill-rule:nonzero;fill:rgb(0%,0%,0%);fill-opacity:1;" d="M 76.902344 98.847656 C 77.113281 98.894531 77.492188 98.894531 77.726562 98.847656 C 77.9375 98.777344 77.75 98.730469 77.300781 98.730469 C 76.855469 98.730469 76.667969 98.777344 76.902344 98.847656 Z M 76.902344 98.847656 "/>
<path style=" stroke:none;fill-rule:nonzero;fill:rgb(0%,0%,0%);fill-opacity:1;" d="M 90.15625 180.710938 C 90.320312 180.875 90.507812 180.945312 90.578125 180.875 C 90.648438 180.804688 90.53125 180.664062 90.296875 180.59375 C 89.96875 180.449219 89.945312 180.476562 90.15625 180.710938 Z M 90.15625 180.710938 "/>
<path style=" stroke:none;fill-rule:nonzero;fill:rgb(0%,0%,0%);fill-opacity:1;" d="M 61.867188 182.917969 C 61.867188 183.550781 61.914062 183.8125 61.960938 183.433594 C 62.007812 183.082031 62.007812 182.566406 61.960938 182.261719 C 61.914062 181.976562 61.867188 182.261719 61.867188 182.917969 Z M 61.867188 182.917969 "/>
<path style=" stroke:none;fill-rule:nonzero;fill:rgb(0%,0%,0%);fill-opacity:1;" d="M 50.894531 32.074219 C 50.304688 32.402344 49.199219 33.035156 48.496094 33.480469 C 45.628906 35.316406 43.914062 36.042969 42.222656 36.136719 C 40.25 36.253906 38.863281 35.808594 37.265625 34.46875 L 36.089844 33.503906 L 36.535156 34.257812 C 37.007812 35.03125 38.203125 36.089844 39.238281 36.652344 C 39.566406 36.84375 41.1875 37.359375 42.832031 37.851562 C 44.5 38.324219 45.910156 38.792969 45.980469 38.863281 C 46.050781 38.933594 45.980469 39.144531 45.816406 39.355469 C 45.324219 39.96875 45.910156 39.753906 46.757812 39.003906 C 47.886719 38.0625 48.050781 38.132812 47.320312 39.238281 C 46.96875 39.753906 46.734375 40.25 46.804688 40.296875 C 46.875 40.367188 47.320312 40.273438 47.839844 40.109375 C 48.613281 39.824219 54.066406 38.488281 55.570312 38.179688 C 55.96875 38.085938 56.039062 37.875 56.085938 36.890625 C 56.109375 36.230469 56.25 35.550781 56.390625 35.386719 C 56.507812 35.199219 57.285156 34.820312 58.105469 34.515625 L 59.5625 33.976562 L 58.503906 33.8125 C 57.917969 33.71875 56.882812 33.625 56.203125 33.625 C 54.769531 33.601562 53.289062 32.941406 52.726562 32.074219 C 52.253906 31.34375 52.253906 31.34375 50.894531 32.074219 Z M 50.894531 32.074219 "/>
<path style=" stroke:none;fill-rule:nonzero;fill:rgb(0%,0%,0%);fill-opacity:1;" d="M 88.816406 50.800781 C 91.542969 51.246094 95.394531 51.996094 98.308594 52.65625 C 102.398438 53.570312 103.972656 53.546875 108.152344 52.492188 C 109.984375 52.019531 111.535156 51.574219 111.605469 51.527344 C 111.773438 51.339844 107.355469 51.949219 105.144531 52.398438 C 103.101562 52.820312 99.976562 52.5625 96.804688 51.738281 C 95.324219 51.339844 92.878906 50.917969 91.375 50.773438 C 88.203125 50.46875 86.984375 50.492188 88.816406 50.800781 Z M 88.816406 50.800781 "/>
<path style=" stroke:none;fill-rule:nonzero;fill:rgb(0%,0%,0%);fill-opacity:1;" d="M 119.078125 55.378906 C 119.242188 55.449219 119.453125 55.425781 119.523438 55.355469 C 119.621094 55.285156 119.476562 55.214844 119.21875 55.238281 C 118.960938 55.238281 118.890625 55.308594 119.078125 55.378906 Z M 119.078125 55.378906 "/>
<path style=" stroke:none;fill-rule:nonzero;fill:rgb(0%,0%,0%);fill-opacity:1;" d="M 118.140625 55.617188 C 118.304688 55.6875 118.515625 55.664062 118.585938 55.59375 C 118.679688 55.523438 118.539062 55.449219 118.28125 55.476562 C 118.023438 55.476562 117.949219 55.546875 118.140625 55.617188 Z M 118.140625 55.617188 "/>
<path style=" stroke:none;fill-rule:nonzero;fill:rgb(0%,0%,0%);fill-opacity:1;" d="M 132.074219 56.25 C 132.308594 56.460938 133.695312 57.097656 133.695312 57 C 133.695312 56.859375 132.402344 56.15625 132.144531 56.15625 C 132.050781 56.15625 132.023438 56.203125 132.074219 56.25 Z M 132.074219 56.25 "/>
<path style=" stroke:none;fill-rule:nonzero;fill:rgb(0%,0%,0%);fill-opacity:1;" d="M 140.296875 61.628906 C 141.730469 62.992188 143.304688 64.214844 142.976562 63.675781 C 142.714844 63.25 141.449219 62.148438 140.085938 61.160156 L 138.980469 60.339844 Z M 140.296875 61.628906 "/>
<path style=" stroke:none;fill-rule:nonzero;fill:rgb(0%,0%,0%);fill-opacity:1;" d="M 129.066406 61.960938 C 129.277344 62.007812 129.652344 62.007812 129.886719 61.960938 C 130.097656 61.890625 129.910156 61.84375 129.464844 61.84375 C 129.019531 61.84375 128.828125 61.890625 129.066406 61.960938 Z M 129.066406 61.960938 "/>
<path style=" stroke:none;fill-rule:nonzero;fill:rgb(0%,0%,0%);fill-opacity:1;" d="M 125.941406 63.347656 C 123.191406 63.886719 118.890625 66.070312 116.824219 68 C 115.25 69.476562 113.394531 72.0625 112.570312 73.894531 C 111.160156 77.066406 110.878906 82.074219 111.914062 85.527344 C 113.226562 89.898438 115.179688 93.070312 117.597656 94.738281 C 118 95.019531 117.691406 94.621094 116.941406 93.84375 C 112.804688 89.660156 110.761719 83.316406 112.03125 78.59375 C 112.546875 76.597656 113.109375 76.269531 113.371094 77.820312 C 113.488281 78.476562 113.792969 79.113281 114.308594 79.652344 C 114.730469 80.097656 115.601562 81.273438 116.234375 82.238281 C 118.023438 84.890625 121.21875 88.324219 123.332031 89.851562 C 124.390625 90.601562 127.492188 92.480469 130.238281 94.007812 C 132.964844 95.535156 135.363281 96.898438 135.503906 97.039062 C 135.878906 97.367188 138.535156 95.769531 140.484375 94.054688 C 142.949219 91.871094 145.066406 88.417969 145.371094 86.019531 C 145.558594 84.46875 145.980469 83.90625 145.816406 85.410156 C 145.699219 86.394531 145.722656 86.511719 145.957031 86.113281 C 146.453125 85.292969 146.289062 79.394531 145.722656 77.300781 C 143.9375 70.699219 139.566406 66.023438 133.105469 63.792969 C 131.953125 63.394531 127.230469 63.109375 125.941406 63.347656 Z M 129.863281 64.519531 C 129.792969 64.589844 129.582031 64.613281 129.417969 64.542969 C 129.230469 64.472656 129.300781 64.402344 129.558594 64.402344 C 129.816406 64.378906 129.957031 64.449219 129.863281 64.519531 Z M 132.824219 64.992188 C 134.65625 65.460938 136.042969 66.164062 136.042969 66.636719 C 136.042969 66.824219 136.324219 67.363281 136.652344 67.808594 C 137.007812 68.257812 137.242188 68.679688 137.171875 68.726562 C 137.007812 68.890625 134.398438 67.269531 133.648438 66.566406 C 133.292969 66.234375 133.058594 65.859375 133.128906 65.765625 C 133.292969 65.484375 132.777344 65.226562 131.460938 64.945312 C 130.828125 64.777344 130.546875 64.660156 130.851562 64.636719 C 131.15625 64.636719 132.023438 64.777344 132.824219 64.992188 Z M 142.035156 71.617188 C 143.46875 73.753906 144.808594 76.878906 144.429688 77.113281 C 144.265625 77.207031 143.5625 77.300781 142.855469 77.300781 C 140.90625 77.300781 138.816406 76.457031 136.277344 74.625 C 134.375 73.238281 132.777344 72.367188 129.230469 70.792969 C 128.664062 70.535156 128.6875 70.511719 129.605469 70.511719 C 130.121094 70.488281 132.023438 70.746094 133.835938 71.074219 C 135.621094 71.40625 137.359375 71.664062 137.640625 71.664062 C 137.945312 71.664062 138.628906 71.289062 139.167969 70.839844 C 139.683594 70.394531 140.320312 70.019531 140.554688 70.019531 C 140.8125 70.019531 141.375 70.628906 142.035156 71.617188 Z M 131.15625 72.792969 C 131.953125 73.214844 133.011719 73.894531 133.457031 74.273438 L 134.28125 75 L 133.386719 74.484375 C 130.425781 72.769531 128.546875 72.25 125.609375 72.414062 C 124.507812 72.460938 123.636719 72.484375 123.660156 72.4375 C 123.941406 72.15625 125.917969 71.921875 127.632812 71.96875 C 129.394531 72.039062 129.863281 72.132812 131.15625 72.792969 Z M 122.675781 72.957031 C 122.25 73.144531 121.828125 73.308594 121.734375 73.308594 C 121.429688 73.285156 122.792969 72.625 123.121094 72.625 C 123.308594 72.625 123.121094 72.769531 122.675781 72.957031 Z M 129.582031 74.296875 C 129.746094 74.4375 129.652344 74.625 129.371094 74.859375 C 128.757812 75.28125 128.40625 75.28125 127.9375 74.789062 C 127.5625 74.414062 127.5625 74.390625 127.960938 74.082031 C 128.382812 73.777344 129.136719 73.871094 129.582031 74.296875 Z M 132 77.9375 C 131.953125 78.382812 131.648438 78.78125 131.0625 79.160156 C 130.570312 79.464844 130.214844 79.769531 130.261719 79.816406 C 130.308594 79.886719 131.132812 79.582031 132.074219 79.183594 C 133.035156 78.757812 134.1875 78.265625 134.632812 78.078125 C 135.363281 77.75 135.410156 77.75 135.125 78.101562 C 134.46875 78.898438 131.390625 80.59375 129.933594 80.96875 C 127.9375 81.460938 124.507812 81.320312 122.53125 80.640625 C 120.605469 79.980469 118.328125 78.949219 118.492188 78.804688 C 118.539062 78.734375 120.113281 79.089844 121.96875 79.558594 C 125.773438 80.523438 128.171875 80.6875 129.394531 80.027344 C 129.792969 79.839844 130.449219 79.136719 130.851562 78.476562 C 131.648438 77.183594 132.121094 76.949219 132 77.9375 Z M 137.640625 79.652344 C 138.347656 79.957031 138.628906 80.238281 138.628906 80.59375 C 138.628906 81.367188 137.78125 82.800781 136.84375 83.671875 C 136.371094 84.117188 135.761719 84.679688 135.480469 84.960938 C 134.867188 85.527344 132.496094 86.511719 130.664062 86.9375 C 128.5 87.453125 127.207031 87.125 123.730469 85.269531 C 119.878906 83.175781 118.65625 82.074219 118.65625 80.59375 C 118.65625 79.980469 118.796875 80.003906 120.417969 80.710938 C 124.578125 82.566406 130.074219 82.332031 133.480469 80.144531 C 135.199219 79.066406 136.113281 78.949219 137.640625 79.652344 Z M 145.441406 81.414062 C 145.441406 82.023438 145.300781 82.777344 145.113281 83.128906 C 144.761719 83.8125 141.449219 87.078125 139.96875 88.203125 C 138.863281 89.050781 138.417969 89.875 138.15625 91.589844 C 138.039062 92.316406 137.757812 93.257812 137.570312 93.679688 C 137.125 94.621094 135.691406 96.101562 135.246094 96.101562 C 134.726562 96.101562 132.730469 94.925781 130.992188 93.5625 C 130.097656 92.855469 128.875 92.058594 128.265625 91.753906 C 127.679688 91.449219 126.480469 90.625 125.609375 89.945312 C 123.425781 88.179688 121.96875 87.171875 121.710938 87.171875 C 121.570312 87.171875 121.476562 87.054688 121.476562 86.914062 C 121.476562 86.773438 121.050781 86.183594 120.535156 85.597656 C 118.726562 83.550781 119.40625 83.601562 123.777344 85.902344 C 126.410156 87.289062 127.492188 87.734375 128.664062 87.898438 C 131.484375 88.300781 135.363281 87.125 137.148438 85.339844 C 137.59375 84.890625 138.371094 83.648438 138.886719 82.566406 L 139.777344 80.617188 L 142.316406 80.523438 C 143.703125 80.5 144.996094 80.425781 145.160156 80.402344 C 145.347656 80.378906 145.441406 80.710938 145.441406 81.414062 Z M 144.359375 87.804688 C 144.007812 88.699219 143.445312 89.851562 143.140625 90.414062 C 142.503906 91.542969 140.554688 93.75 139.542969 94.453125 L 138.886719 94.949219 L 139.003906 93.703125 C 139.167969 92.246094 139.636719 90.859375 140.296875 90.015625 C 140.8125 89.332031 144.808594 86.019531 144.949219 86.136719 C 144.996094 86.183594 144.738281 86.9375 144.359375 87.804688 Z M 144.359375 87.804688 "/>
<path style=" stroke:none;fill-rule:nonzero;fill:rgb(0%,0%,0%);fill-opacity:1;" d="M 121.003906 97.039062 C 121.195312 97.15625 121.476562 97.273438 121.59375 97.273438 C 121.734375 97.273438 121.664062 97.15625 121.476562 97.039062 C 121.289062 96.921875 121.027344 96.804688 120.886719 96.804688 C 120.769531 96.804688 120.816406 96.921875 121.003906 97.039062 Z M 121.003906 97.039062 "/>
<path style=" stroke:none;fill-rule:nonzero;fill:rgb(0%,0%,0%);fill-opacity:1;" d="M 132.730469 98.097656 C 132.660156 98.144531 132.023438 98.308594 131.320312 98.425781 C 130.378906 98.566406 130.261719 98.636719 130.875 98.636719 C 131.90625 98.636719 134.328125 98.050781 133.433594 98.003906 C 133.105469 98.003906 132.777344 98.027344 132.730469 98.097656 Z M 132.730469 98.097656 "/>
<path style=" stroke:none;fill-rule:nonzero;fill:rgb(0%,0%,0%);fill-opacity:1;" d="M 126.832031 98.613281 C 126.996094 98.683594 127.207031 98.660156 127.277344 98.589844 C 127.375 98.519531 127.230469 98.449219 126.972656 98.472656 C 126.714844 98.472656 126.644531 98.542969 126.832031 98.613281 Z M 126.832031 98.613281 "/>
<path style=" stroke:none;fill-rule:nonzero;fill:rgb(0%,0%,0%);fill-opacity:1;" d="M 128.476562 98.847656 C 128.757812 98.894531 129.230469 98.894531 129.535156 98.847656 C 129.816406 98.800781 129.582031 98.753906 128.996094 98.753906 C 128.40625 98.753906 128.171875 98.800781 128.476562 98.847656 Z M 128.476562 98.847656 "/>
<path style=" stroke:none;fill-rule:nonzero;fill:rgb(0%,0%,0%);fill-opacity:1;" d="M 169.523438 103.875 C 169.429688 104.019531 169.40625 104.160156 169.476562 104.230469 C 169.523438 104.300781 169.644531 104.183594 169.714844 103.972656 C 169.878906 103.570312 169.738281 103.5 169.523438 103.875 Z M 169.523438 103.875 "/>
<path style=" stroke:none;fill-rule:nonzero;fill:rgb(0%,0%,0%);fill-opacity:1;" d="M 158.835938 154.136719 C 158.835938 154.253906 158.953125 154.371094 159.070312 154.371094 C 159.210938 154.371094 159.304688 154.253906 159.304688 154.136719 C 159.304688 153.996094 159.210938 153.898438 159.070312 153.898438 C 158.953125 153.898438 158.835938 153.996094 158.835938 154.136719 Z M 158.835938 154.136719 "/>
<path style=" stroke:none;fill-rule:nonzero;fill:rgb(0%,0%,0%);fill-opacity:1;" d="M 51.691406 165.4375 C 51.691406 165.554688 51.808594 165.601562 51.925781 165.53125 C 52.066406 165.460938 52.160156 165.34375 52.160156 165.273438 C 52.160156 165.226562 52.066406 165.179688 51.925781 165.179688 C 51.808594 165.179688 51.691406 165.296875 51.691406 165.4375 Z M 51.691406 165.4375 "/>
<path style=" stroke:none;fill-rule:nonzero;fill:rgb(0%,0%,0%);fill-opacity:1;" d="M 153.898438 167.785156 C 153.898438 168 151.316406 174.152344 149.882812 177.277344 L 148.402344 180.570312 L 148.378906 190.25 L 148.378906 199.953125 L 153.359375 199.953125 L 153.523438 187.3125 C 153.617188 180.378906 153.78125 173.167969 153.875 171.289062 C 153.996094 169.40625 154.042969 167.832031 153.996094 167.785156 C 153.949219 167.738281 153.898438 167.738281 153.898438 167.785156 Z M 153.898438 167.785156 "/>
<path style=" stroke:none;fill-rule:nonzero;fill:rgb(0%,0%,0%);fill-opacity:1;" d="M 120.652344 169.808594 C 119.382812 170.113281 113.394531 172.132812 111.726562 172.816406 C 110.691406 173.238281 109.65625 173.660156 109.445312 173.730469 C 109.09375 173.824219 109.023438 174.128906 109.023438 175.28125 C 109.023438 176.503906 109.070312 176.691406 109.46875 176.691406 C 109.703125 176.691406 110.433594 176.316406 111.042969 175.871094 C 112.804688 174.601562 114.027344 174.035156 117.714844 172.699219 C 119.597656 172.015625 121.429688 171.3125 121.78125 171.125 C 122.578125 170.722656 123.355469 169.972656 123.191406 169.785156 C 123.027344 169.621094 121.359375 169.644531 120.652344 169.808594 Z M 120.652344 169.808594 "/>
<path style=" stroke:none;fill-rule:nonzero;fill:rgb(0%,0%,0%);fill-opacity:1;" d="M 159.117188 185.078125 L 159.070312 199.953125 L 164.472656 199.953125 L 164.425781 189.308594 C 164.402344 183.480469 164.332031 179.371094 164.238281 180.214844 C 164.144531 181.0625 164.074219 181.578125 164.050781 181.414062 C 164.003906 181.15625 163.933594 181.132812 163.746094 181.320312 C 163.535156 181.53125 163.347656 181.460938 162.96875 181.132812 C 162.570312 180.734375 162.546875 180.640625 162.828125 180.449219 C 163.085938 180.285156 163.039062 180.191406 162.570312 180.027344 C 161.820312 179.722656 161.511719 179.347656 161.136719 178.21875 C 160.761719 177.136719 160.101562 176.621094 159.773438 177.160156 C 159.65625 177.351562 159.539062 177.46875 159.515625 177.398438 C 159.492188 177.324219 159.398438 175.679688 159.304688 173.753906 C 159.210938 171.640625 159.140625 176.222656 159.117188 185.078125 Z M 164.167969 183.789062 C 164.121094 184.09375 164.074219 183.90625 164.074219 183.386719 C 164.050781 182.871094 164.097656 182.636719 164.167969 182.847656 C 164.214844 183.082031 164.214844 183.503906 164.167969 183.789062 Z M 163.699219 183.789062 C 163.628906 183.953125 163.582031 183.835938 163.582031 183.503906 C 163.582031 183.175781 163.628906 183.058594 163.699219 183.199219 C 163.746094 183.363281 163.746094 183.648438 163.699219 183.789062 Z M 163.699219 183.789062 "/>
<path style=" stroke:none;fill-rule:nonzero;fill:rgb(0%,0%,0%);fill-opacity:1;" d="M 21.640625 176.269531 C 21.050781 177.230469 18.023438 181.15625 17.878906 181.15625 C 17.667969 181.15625 16.09375 183.601562 14.332031 186.652344 C 12.476562 189.898438 10.785156 193.960938 9.398438 198.519531 L 8.976562 199.953125 L 9.890625 199.953125 C 10.714844 199.953125 10.832031 199.882812 11.253906 198.988281 C 11.511719 198.449219 11.796875 197.578125 11.890625 197.039062 C 12.125 195.464844 12.21875 195.746094 12.21875 197.910156 L 12.21875 199.953125 L 17.785156 199.953125 L 17.976562 191.070312 C 18.070312 186.207031 18.140625 181.976562 18.117188 181.671875 C 18.117188 181.390625 18.210938 181.15625 18.328125 181.15625 C 18.46875 181.15625 18.5625 181.296875 18.5625 181.4375 C 18.5625 181.601562 18.984375 181.273438 19.5 180.6875 C 20.019531 180.097656 20.441406 179.722656 20.464844 179.863281 C 20.464844 179.980469 20.558594 179.839844 20.652344 179.511719 C 20.746094 179.160156 21.003906 178.898438 21.335938 178.851562 C 21.640625 178.804688 21.851562 178.59375 21.851562 178.382812 C 21.851562 178.078125 21.898438 178.054688 22.0625 178.289062 C 22.320312 178.734375 22.625 177.160156 22.414062 176.363281 C 22.226562 175.609375 22.0625 175.585938 21.640625 176.269531 Z M 21.640625 176.269531 "/>
<path style=" stroke:none;fill-rule:nonzero;fill:rgb(0%,0%,0%);fill-opacity:1;" d="M 115.015625 178.828125 C 114.121094 178.949219 112.429688 179.019531 111.253906 178.996094 L 109.140625 178.972656 L 109.140625 181.015625 L 112.3125 181.4375 C 114.449219 181.71875 116.636719 181.835938 119.007812 181.8125 L 122.53125 181.742188 L 122.578125 181.15625 C 122.625 180.144531 121.265625 179.136719 119.523438 178.925781 C 117.199219 178.640625 116.753906 178.640625 115.015625 178.828125 Z M 115.015625 178.828125 "/>
<path style=" stroke:none;fill-rule:nonzero;fill:rgb(0%,0%,0%);fill-opacity:1;" d="M 145.675781 185.316406 C 145.019531 186.75 144.738281 187.5 144.855469 187.5 C 145.042969 187.5 146.195312 184.890625 146.074219 184.773438 C 146.027344 184.726562 145.839844 184.960938 145.675781 185.316406 Z M 145.675781 185.316406 "/>
<path style=" stroke:none;fill-rule:nonzero;fill:rgb(0%,0%,0%);fill-opacity:1;" d="M 169.878906 192.527344 L 169.878906 199.953125 L 174.578125 199.953125 L 174.53125 197.769531 C 174.484375 196.59375 174.367188 195.535156 174.273438 195.464844 C 174.175781 195.394531 174.082031 194.550781 174.058594 193.609375 C 174.058594 192.644531 173.917969 191.636719 173.730469 191.28125 C 173.542969 190.953125 173.402344 190.460938 173.402344 190.203125 C 173.402344 189.945312 173.191406 189.472656 172.933594 189.144531 C 172.675781 188.816406 172.460938 188.417969 172.460938 188.25 C 172.460938 188.109375 172.273438 187.96875 172.0625 187.96875 C 171.734375 187.96875 171.710938 187.921875 171.945312 187.757812 C 172.203125 187.617188 172.109375 187.40625 171.546875 186.820312 C 170.722656 185.972656 170.582031 185.925781 170.558594 186.488281 C 170.558594 186.773438 170.511719 186.796875 170.417969 186.605469 C 170.347656 186.441406 170.488281 186.089844 170.722656 185.832031 C 170.933594 185.597656 171.003906 185.386719 170.863281 185.386719 C 170.722656 185.386719 170.464844 185.316406 170.253906 185.246094 C 169.949219 185.125 169.902344 185.972656 169.878906 192.527344 Z M 169.878906 192.527344 "/>
<path style=" stroke:none;fill-rule:nonzero;fill:rgb(0%,0%,0%);fill-opacity:1;" d="M 171.289062 185.597656 C 171.289062 185.738281 171.40625 185.902344 171.523438 185.972656 C 171.664062 186.042969 171.757812 185.949219 171.757812 185.761719 C 171.757812 185.550781 171.664062 185.386719 171.523438 185.386719 C 171.40625 185.386719 171.289062 185.480469 171.289062 185.597656 Z M 171.289062 185.597656 "/>
<path style=" stroke:none;fill-rule:nonzero;fill:rgb(0%,0%,0%);fill-opacity:1;" d="M 181.648438 189.851562 C 181.625 191.730469 181.554688 194.761719 181.460938 196.59375 L 181.320312 199.953125 L 187.03125 199.953125 L 187.007812 197.0625 C 186.984375 193.984375 186.652344 189.074219 186.605469 190.742188 C 186.582031 191.351562 186.464844 191.707031 186.324219 191.613281 C 186.207031 191.542969 186.089844 191.589844 186.089844 191.707031 C 186.089844 191.847656 186.207031 191.964844 186.324219 191.964844 C 186.464844 191.964844 186.558594 192.128906 186.558594 192.339844 C 186.558594 192.527344 186.464844 192.644531 186.347656 192.574219 C 186.230469 192.480469 186.066406 192.574219 186.019531 192.714844 C 185.949219 192.878906 185.878906 192.691406 185.878906 192.316406 C 185.832031 191.234375 185.574219 190.953125 184.820312 191.257812 C 184.28125 191.449219 184.09375 191.398438 183.601562 190.90625 C 183.269531 190.578125 182.871094 190.390625 182.683594 190.460938 C 182.496094 190.554688 182.332031 190.484375 182.332031 190.34375 C 182.332031 190.203125 182.402344 190.109375 182.519531 190.109375 C 183.128906 190.203125 183.269531 190.0625 183.035156 189.613281 C 182.894531 189.355469 182.847656 189.027344 182.917969 188.910156 C 182.988281 188.792969 182.824219 188.488281 182.566406 188.25 C 182.285156 187.992188 181.976562 187.5 181.859375 187.125 C 181.742188 186.652344 181.648438 187.546875 181.648438 189.851562 Z M 182.542969 189.613281 C 182.542969 189.824219 182.449219 189.800781 182.332031 189.496094 C 182.214844 189.238281 182.121094 188.863281 182.121094 188.675781 C 182.121094 188.464844 182.214844 188.488281 182.332031 188.792969 C 182.449219 189.050781 182.542969 189.425781 182.542969 189.613281 Z M 184.140625 191.871094 C 184.070312 191.941406 183.859375 191.964844 183.695312 191.894531 C 183.503906 191.824219 183.574219 191.753906 183.835938 191.753906 C 184.09375 191.730469 184.234375 191.800781 184.140625 191.871094 Z M 184.140625 191.871094 "/>
<path style=" stroke:none;fill-rule:nonzero;fill:rgb(0%,0%,0%);fill-opacity:1;" d="M 191.964844 188.132812 C 191.964844 188.417969 192.058594 188.675781 192.199219 188.722656 C 192.316406 188.746094 193.023438 190.15625 193.726562 191.847656 C 194.453125 193.515625 195.136719 195.113281 195.230469 195.371094 C 195.347656 195.628906 195.816406 196.78125 196.289062 197.957031 C 196.734375 199.128906 197.109375 199.929688 197.132812 199.742188 C 197.132812 199.578125 196.335938 197.390625 195.347656 194.925781 C 193.445312 190.203125 191.964844 187.21875 191.964844 188.132812 Z M 191.964844 188.132812 "/>
<path style=" stroke:none;fill-rule:nonzero;fill:rgb(0%,0%,0%);fill-opacity:1;" d="M 174.859375 191.730469 C 174.859375 192.175781 174.90625 192.363281 174.976562 192.128906 C 175.023438 191.917969 175.023438 191.542969 174.976562 191.304688 C 174.90625 191.09375 174.859375 191.28125 174.859375 191.730469 Z M 174.859375 191.730469 "/>
<path style=" stroke:none;fill-rule:nonzero;fill:rgb(0%,0%,0%);fill-opacity:1;" d="M 174.835938 193.28125 C 174.835938 193.539062 174.90625 193.609375 174.976562 193.421875 C 175.046875 193.257812 175.023438 193.046875 174.953125 192.976562 C 174.882812 192.878906 174.8125 193.023438 174.835938 193.28125 Z M 174.835938 193.28125 "/>
<path style=" stroke:none;fill-rule:nonzero;fill:rgb(0%,0%,0%);fill-opacity:1;" d="M 174.90625 196.898438 C 174.90625 198.636719 174.929688 199.367188 174.976562 198.472656 C 175.023438 197.601562 175.023438 196.195312 174.976562 195.300781 C 174.929688 194.429688 174.90625 195.160156 174.90625 196.898438 Z M 174.90625 196.898438 "/>
</g>
</svg>
