<svg xmlns="http://www.w3.org/2000/svg" id="Ebene_2" data-name="Ebene 2" width="200px" height="200px"><defs><linearGradient id="Unbenannter_Verlauf_8" x1="81.02" x2="117.3" y1="9.38" y2="190.24" data-name="Unbenannter Verlauf 8" gradientUnits="userSpaceOnUse"><stop offset="0" stop-color="#f6cb8d"/><stop offset="1" stop-color="#a16b39"/></linearGradient><linearGradient id="Unbenannter_Verlauf_11" x1="83.85" x2="114.42" y1="23.5" y2="175.87" data-name="Unbenannter Verlauf 11" gradientUnits="userSpaceOnUse"><stop offset="0" stop-color="#1ec7cf"/><stop offset="1" stop-color="#2b8091"/></linearGradient><style>.cls-128,.cls-143,.cls-146,.cls-147,.cls-149,.cls-171,.cls-19,.cls-200,.cls-204,.cls-218,.cls-24,.cls-245,.cls-257,.cls-276,.cls-294,.cls-298,.cls-33,.cls-34,.cls-53,.cls-86{stroke-width:0}.cls-128{fill-rule:evenodd;isolation:isolate}.cls-19{fill:#061b37}.cls-24{fill:#3fabbc}.cls-33{fill:#06112f}.cls-34{fill:#49819c}.cls-53{fill:#061633}.cls-86{fill:#020d28}.cls-128{fill:#101528;opacity:.89}.cls-143{fill:#051e3e}.cls-146{fill:#03243f}.cls-147{fill:#000822}.cls-149{fill:#000}.cls-171{fill:#061a35}.cls-200{fill:#031734}.cls-204{fill:#040d2c}.cls-218{fill:#1c7990}.cls-245{fill:#041837}.cls-257{fill:#24b1c2}.cls-276{fill:#041c39}.cls-294{fill:#2eb0be}.cls-298{fill:#071d3a}</style></defs><g id="Ebene_2-2" data-name="Ebene 2"><path d="M99 196.5c-53.76 0-97.5-43.74-97.5-97.5S45.24 1.5 99 1.5s97.5 43.74 97.5 97.5-43.74 97.5-97.5 97.5Z" style="fill:url(#Unbenannter_Verlauf_8);stroke-width:0"/><path d="M99 3c52.93 0 96 43.07 96 96s-43.07 96-96 96S3 151.93 3 99 46.07 3 99 3m0-3C44.32 0 0 44.32 0 99s44.32 99 99 99 99-44.32 99-99S153.68 0 99 0Z" class="cls-149"/><path d="M99 181.14c-45.29 0-82.14-36.85-82.14-82.14S53.71 16.86 99 16.86 181.14 53.71 181.14 99 144.29 181.14 99 181.14Z" style="fill:url(#Unbenannter_Verlauf_11);stroke-width:0"/><path d="M99 17.36c45.02 0 81.64 36.62 81.64 81.64S144.02 180.64 99 180.64 17.36 144.02 17.36 99 53.98 17.36 99 17.36m0-1c-45.64 0-82.64 37-82.64 82.64s37 82.64 82.64 82.64 82.64-37 82.64-82.64-37-82.64-82.64-82.64Z" class="cls-149"/></g><g id="towers"><path d="M148.64 85.69c-8.37-.97-10.24.14-23.04-.2-8.7-.23-9.5-.5-20.84-1.03-25.2-1.18-37.97-1.71-46.26 1.03-4.57 1.51-7.56 2.95-13.13 3.41-4.91.4-10.94.26-17.78-.97-3.36-.61-10.04 3.75-10.35 6.57h163.6c.16-1.05.21-2.58-.65-3.83-2.03-2.95-7.48-1.92-13.22-1.88-7.91.05-7.31-1.82-18.33-3.1Z" class="cls-171"/><path d="M64.33 85.49H58.5V62.57l2.82-4 3.01 4v22.92zm64.61 0h-12.3V61.21l5.95-10.11 6.35 10.11v24.28zM73.98 36.65V32.4h-3.14v4.48l-4.5 5.55v43.16h12.64V42.43l-5-5.78zm25.78-13.28h-3.14v5.26l-4.5 6.51v19.51l-5.45 6.85v24.27h18.09V35.14l-5-6.78v-4.99zm5.21 31.13v31.27h5.57V61.5l-5.57-7z" style="fill:#daa24c;stroke:#02164c;stroke-miterlimit:10;stroke-width:.5px"/><path d="M99.31 35.29h4.33v50.08h-4.33zM78.24 84.67h-4.33V38l4.33 5v41.67z" style="fill:#a76f35;stroke-width:0"/><path d="M123.22 61h4.79v24.49h-4.79z" style="fill:#a76f35;stroke-miterlimit:10;stroke-width:.5px;stroke:#000"/><path d="M48.94 89.6v.2c-.3.3-.7 0-.9.2-.9.2-1.8.4-2.6-.2-.2-.1-.2.2-.3.3-.3.4-.7.6-1.2.8-.1-.2-.2-.4-.2-.6.1-3.6.4-7.2.3-10.8v-2.6c.3-1.5.2-3 .4-4.5 0-.3.2-.9-.5-.6-.3.1-.6.1-.8 0-.2 0-.2-.2-.2-.4 0-.3.5-.3.5-.7.2-.2.2-.4.4-.6 1 0 1.8 0 2.6.9s1.8 1.7 2.4 2.7c.2.4.4.7.2 1.1-.1.2-.3.3-.6.3-.6-.2-.6-.9-1-1.3-.2-.2-.3-.8-.7-.7-.5 0-.4.6-.5.9-.3 1.5-.3 2.9-.3 4.4v10.1c0 .6.2.8.8.6h.5c.6 0 1.2-.1 1.6.3l.1.2Z" style="fill:#030c2b;stroke-width:0"/><path d="M48.94 75c-.5-1.3-1.1-2.5-2.3-3.2-.2-.1-.4-.4-.6-.4-.4 0 0-1.6-1-.5-.3-.6-.8-.5-1.4-.5-.4.4-.9.3-1.3.3-1.2.2-.1.7-.1 1.1.2.4.1.9.4 1.3.3.8-.4.8-.8.9-.8.3-.8-.2-.8-.8s0-1.2-.4-1.7c-.4.4-.6.2-.9-.2-.1-.3.3-.6 0-.9-.3-.2-.8-.2-.6-.9.1-.7-.8-.5-1.3-.7-.2-.2-.4-.4-.3-.7.4-.9-.7-.6-.9-1-.2-.2-.2-.5-.1-.8 0-.4.4-.4.7-.6.5-.3.7-1.1 1.5-.4.4.3.8-.2.8-.5 0-.7.5-1.3.6-2 .6-.2 1.1-.2 1.7.2 0 0 .2.1.2.2.2.7 1 .7 1.5 1.1.4.3.8.6 1.2.8 0 0 .2 0 .3.1h.3c0-.1.1-.2.2-.3l.2-.2c.3-.2.4-.4.3-.8 0-.3.1-.5.3-.7s.3-.3.5-.3c.5-.2.9-.1 1.1.4.1.4 0 .7 0 1.1 0 0-.1.2 0 .1.1 0 .2-.1.4-.1h.8c1 0 .9.3.4.9-.3.3-.5.6-.9.8 0 0-.3 0-.3.3h.2c.2 0 .5.1.7.3 0 .1.2.3.2.4.4.4-.2.9 0 1.4 1 .3 2.2.4 3.1 1.1.7.5 1.1 1.1.6 1.9-.8 0-1.4-.7-2.2-.8-.2 0-.4 0-.5.2-.2.3 0 .5 0 .8v1c-.2.3-.4.3-.6 0-.2-.3-.2-.6-.3-.8 0 .4.1.7.4 1 .3 1 .4 2.1-.2 3-.8 0-.6-.5-.4-1l-.4.1Z" class="cls-147"/><path d="M47.64 89.2c-.2.1-.3.3-.5.4h-.4c-.5.3-.8 0-.9-.5V76.2c0-1 .1-2 .5-3 .1-.3.1-.7.5-.7.3 0 .4.3.6.5.2.3.3.6.5.9-.8 0-.9.7-1 1.3-.3.9-.2 1.8-.2 2.7v10.2c0 .7.8.4 1.1.9l-.2.2Z" style="fill:#227a90;stroke-width:0"/><path d="M42.94 90.1c.7 0 .9-.2.9-.9v-6.6c0-1 .1-2 .4-3 .2 3.4-.2 6.9-.2 10.3 0 .2 0 .5-.3.6-1.1.4-2.1.2-3-.5-.3-.2-.8-.2-.8-.8 0-.1 0-.2.2-.3 1.1-.2 1.7.8 2.7 1l.1.2Z" style="fill:#296e88;stroke-width:0"/><path d="M44.34 76.8c-.2 0-.3.2-.5.2-.7-.9-.1-1.9-.4-2.8-.2-.3-.4-.1-.6 0 0 0-.2 0-.2-.2v-.9c.2-.3.5-.6.7-.9 0-.2.3-.3.4-.4.1-.4.4-.7.7-.6.4.1.2.6.2.9-.2 1.6 0 3.2-.4 4.7h.1Z" style="fill:#3e9bb2;stroke-width:0"/><path d="M46.64 75c0-.4 0-.8.1-1.2.4 0 .6.4 1 .3.4.3.4.8.7 1.1.4.4.5.9.6 1.3v.5c-.2.1-.4 0-.6 0-.4-.4-.8-.8-.6-1.4-.4-.1-1 .2-1.2-.5V75Z" style="fill:#19869f;stroke-width:0"/><path d="M42.04 70.4h1.6c.1.2.2.5-.2.5-.1.2-.3.3-.5.5v.5c.1.1.2.3.2.4 0 .2 0 .4-.1.6-.1.3-.4.2-.6.3-.8-.2-.3-.9-.5-1.4-.3-.5-.4-.9 0-1.4h.1Z" style="fill:#09051e;stroke-width:0"/><path d="M48.94 76.6c-.2-.5-.3-.9-.5-1.4.2 0 .3-.2.5-.2 0 .4-.1.8.5.9.1.1.2.3.2.4 0 .2 0 .4-.2.6-.5.3-.3-.3-.5-.4v.1Z" class="cls-200"/><path d="M42.94 72.3v-.5h.9c0 .2-.1.3-.2.5-.2.3-.4.4-.7 0Z" style="fill:#001d36;stroke-width:0"/><path d="M42.94 71.4c0-.3.2-.4.5-.5 0 .2 0 .3.1.5h-.6Z" class="cls-147"/><path d="M35.34 74.3v.9c-.4.5-1 .7-1.3 1.4-.2.5-.8 0-1.2-.3-.3-.8-.3-1.5 0-2.3.2-.8.3-1.7 1.4-1.8.1.1.2.2.1.4 0 0 0 .2-.1.3-.3.5-.6 1-.7 1.6v.3c0 .3-.1.5 0 .8.9-.2 1-1.3 2-1.3h-.2Z" style="fill:#22738c;stroke-width:0"/><path d="M34.14 72.7v-.5c0-.2.2-.4.3-.7.8 0 1-.9 1.6-1.1.2.2.2.5.1.8-.5.7-1.2 1.1-2 1.5Z" style="fill:#032039;stroke-width:0"/><path d="M32.84 74.1v2.3c-.7-.6-.7-1.7 0-2.3Z" style="fill:#207b96;stroke-width:0"/><path d="M32.84 69.3h-.2c-.2-.2-.3-.4-.5-.7h.7c.2.1.3.3.3.5 0 .1-.1.3-.3.1v.1Z" class="cls-24"/><path d="M35.54 63.1c.2-.3.3-.6.5-.9 1.6-.6 3.2-.8 4.8 0 0 .2 0 .4-.2.5-.2 0-.3 0-.4-.1-.6-.5-1.1 0-1.7 0h-.5c-.9-.3-1.6.7-2.4.3l-.1.2Z" style="fill:#3fb2c2;stroke-width:0"/><path d="M42.54 63.1c1.2 0 1.6 1.1 2.4 1.6.1 0 .2.2.4.2v.5c-.2.4-.5.4-.7 0-.8-.5-1.5-1.1-2.2-1.6-.1-.2-.2-.4-.2-.6h.3v-.1Z" style="fill:#318ba0;stroke-width:0"/><path d="M40.44 62.5s.2.1.2.2c.4-.2.7 0 .9.2 0 0 .1.2.2.3 0 .2 0 .3-.2.2-.6-.2-1.2-.3-1.8-.2-.3.2-.4.1-.5-.2.2-.5.6-.8 1.1-.5h.1Z" class="cls-143"/><path d="M41.54 62.9c-.3 0-.6-.2-.9-.2 0-.1.2-.3.2-.4.5 0 .7.1.7.6Z" style="fill:#58b3c6;stroke-width:0"/><path d="M41.54 63.4s.2-.1.2-.2h.4c0 .1.2.3.2.4-.3.5-.6.4-.9 0v-.2h.1Z" style="fill:#042942;stroke-width:0"/><path d="M48.94 68.6c-.5-.1-.7-.5-.1-.6.9-.2 0-.6.2-.8.5-.2 1 0 1.4-.2s1 .2 1.4-.5c.2-.3.7 0 .9.4 0 0 .1.2.3.2-.1 0-.3-.1-.3-.3-.5-.5-1-.7-1.7-.7-.6 0-1.3.4-2-.1.2-.8 1-.8 1.6-1.1.5-.1.9-.2 1.4-.3 2 .2 3.2 1.3 3.9 3.1 0 .4-.1.7-.6.8-.5 0-1.1-.1-1.6-.2-.1 0-.2 0-.3-.1-1.1-.7-2.1-.2-3.2.1h-.4c-.2 0-.5 0-.7.2h-.1l-.1.1Z" class="cls-33"/><path d="M34.14 72.7c.5-.6 1.2-1 1.8-1.4.4-.5.9-.8 1.6-.5.3.1.7 0 .9-.2.4-.4.8-.4 1.2-.2.5.3 0 .6 0 .9-.1.1-.2.4-.4.4-.8 0-1.1.7-1.7 1.1h-.3c-.6 0-.9.4-1.2.9-.2.2-.4.3-.6.5-.5.2-.7.7-1 1-.7.7-.8.6-1.2-.4v-.2c.5-.5.7-1.2.9-1.8v-.1Z" style="fill:#050721;stroke-width:0"/><path d="M37.64 72.7c.2 0 .4-.2.3-.4-.2-.8.2-.9.8-.7.5.2.6-.4 1-.3 1.1.8.6-.6 1.3-.7.2 0 .2.3 0 .5-.2.3-.9.7.2.6.3 0 0 .5 0 .6.4.4-.8 1.4.5 1.4 0 0 .2.2.1.3 0 .6 0 1.4-.8 1.5-.7 0-.5-.8-.7-1.3-.1-.4-.2-.8-.2-1.2 0-.2 0-.5-.3-.4-.4.2-.8.3-1 .7-.2.3-.4.7-.9.5s-.7-.7-.5-1.2l.2.1Z" class="cls-86"/><path d="M39.24 62.9c.1.2.3.2.5.2.3.3.8.7 0 1l-.3.2c.8 1.2-.8 1.2-.9 2.1-.4-1.8-1.1-.3-1.6-.3-.1-.1-.2-.3-.2-.4 0-.2 0-.3.1-.5.1-.5 1.2 0 .9-.9 0-.4-.9-.9 0-1.3.1 0 .3-.1.4-.1.3 0 .6-.2.9 0h.2Z" style="fill:#020f27;stroke-width:0"/><path d="M39.74 70.4c-.4 0-.8 0-1 .5-.1.3-.7.6-1 .4-.7-.7-1.2 0-1.7 0v-.9c.2-.2.3-.4.5-.5.4-.2.7-.4 1.1-.6v-.4c1.3-.2 1.4 0 1.4 1.2 0 .5.8-.2.7.4v-.1Z" class="cls-86"/><path d="M33.04 69.1c0-.1-.1-.3-.2-.4 0-.2.2-.4.4-.5.6-.2 1-.7 1.6-.9.4 0 .2-.3.2-.6 0-.1 0-.2.1-.3.4 0 .8-.7 1.4-.2v.9c-.4.5-.8.9-.8 1.5-.1.3-.3.5-.5.6-.5.3-1 .2-1.5 0-.2 0-.4-.2-.6-.3l-.1.2Z" class="cls-204"/><path d="M48.94 66.1c.6 0 1.2 0 1.8-.1 1-.3 1.5.3 2.1.8-.1.1 0 .4-.2.5-.4-.6-.3-.3-.9-.1-.9.2-1.8.7-2.7.1v-.5c-.2-.2-.2-.4-.1-.6l.1-.1h-.1Z" style="fill:#020b1f;stroke-width:0"/><path d="M40.64 72.7c.1 1 .2 1.9.4 2.9h.3c.2-.6.4-1.1.5-1.7 0-.1 0-.4.2-.3.6.3.5 0 .5-.4 0-.3.1-.4.4-.3 0 0 .1 0 .1.1-.3.3-.2.6-.2.9v.1c-.2.5-.3 1-.6 1.4-.5.4-.3 1.4-1.3 1.3-.3-.1-.4-.4-.5-.7 0-1 0-2.1-.2-3.1 0-.2.1-.5.5-.5l-.1.3Z" style="fill:#06243e;stroke-width:0"/><path d="m49.14 65.2.3-.6c-.5 0-1.1.2-1.5-.1v-.3c.2-.3.5-.6.7-.9.7-.5 1.5-.5 2.3-.3.5.2.3.6 0 .8-.2.2-.5.4-.5.7 0 .1 0 .2-.1.3-.3.5-.6.8-1.2.4Z" class="cls-53"/><path d="M49.44 76.4v-3.7c.2 0 .3.3.5 0 .8.2.9.4.7 1.5-.4.4 0 .8 0 1.3 0 .9-.2 1.2-1.2.9Z" style="fill:#0b0323;stroke-width:0"/><path d="M46.14 63.4c-.7.1-.9-.2-.9-.9v-1.7c.1-.1.3-.2.4 0 .3.7.9.5 1.4.4.5.5-.1 1 0 1.4 0 .2-.2.3-.4.4-.1 0-.3.2-.4.3l-.1.1Z" style="fill:#36bfc9;stroke-width:0"/><path d="M52.64 71.6c.5-.7.2-1.3-.5-1.7-.7-.4-1.4-1-2.3-.8-.3 0-.7-.2-.9-.4.1-.1.3-.2.5-.2h.9c.4 0 .7.1 1 .3 1.1.6 2.4 1.1 2.4 2.7 0 .4 0 .8-.6 1-.4 0-.7-.2-.6-.7l.1-.1v-.1Z" class="cls-276"/><path d="M35.54 68.6c-.1-.7.1-1.2.9-1.4h.9c.3 0 .4.1.5.4 0 .3-.1.5-.4.5-.4.4-1.1.2-1.5.5h-.4Z" style="fill:#0b0425;stroke-width:0"/><path d="M50.34 74.1c.2-.6.2-1.1-.5-1.4v-1.2h.3c.5.4.8.9 1 1.5 0 .2 0 .5.1.7 0 .4 0 .8-.3 1.1-.6.1-.9 0-.7-.7h.1Z" class="cls-171"/><path d="M41.54 63.6c.3.2.6.2.9 0 .8.5 1.6 1 2.1 1.8-1.2-.2-2.1-1-3-1.8Z" class="cls-245"/><path d="M46.54 63.1c0-.1.1-.3.2-.4.2-.6.5-1 1.2-1.1.1 0 .2 0 .3.1s.1.3.1.5c-.1.4-.2.9-.5 1.2h-.3c-.2-.4-.6-.3-1-.3Z" class="cls-19"/><path d="M49.14 65.2c.6.2.9-.3 1.2-.6.2.2.4.3.2.6-.5.3-1.1.6-1.6.9-.1.1-.3.2-.4.2-.2 0-.3-.1-.2-.3.3-.2.6-.5.9-.7l-.1-.1Z" style="fill:#56738e;stroke-width:0"/><path d="M50.54 70.5c.9 0 1.6.4 2.2 1.1-.4.3-.8 0-1.2 0-.1 0-.3-.1-.4-.2 0 0-.2-.1-.2-.2-.2-.2-.3-.4-.2-.7h-.2Z" class="cls-276"/><path d="M35.84 68.6c.3-.8 1.1-.3 1.6-.5 0 .2.2.4.2.7 0 .1-.2.2-.3.2-.5-.2-1.2.5-1.5-.4Z" class="cls-204"/><path d="M36.54 66.3c-.5-.3-.9.7-1.4.2.3-.9 1-1 1.8-.9v.5c-.2 0-.3.1-.5.2h.1Z" class="cls-146"/><path d="M42.04 70.4v1.4c-.6-.1-.6-.7-.6-1.1s.4-.3.6-.3Z" class="cls-86"/><path d="M50.84 71.1h.2c0 .6-.5.4-.9.4h-.2c.2-.2-.5-.7.2-.7.3 0 .5.2.7.3Z" style="fill:#599fb4;stroke-width:0"/><path d="M47.54 63.4h.2c.4.2.3.6.3.9v.2s-.1.2-.2.2c-.2 0-.3 0-.3-.2-.2-.4 0-.8 0-1.1Z" style="fill:#3a5067;stroke-width:0"/><path d="M49.44 72.7c-.3-.3-.6-.7-.4-1.3.5.4.3.9.4 1.3Z" style="fill:#110823;stroke-width:0"/><path d="M48.54 66.1h.4v.7c-.3 0-.5 0-.7-.2 0-.2 0-.3.3-.4v-.1Z" class="cls-33"/><path d="M48.54 66.1c0 .1-.2.3-.3.4-.2 0-.5.2-.6 0 0-.4.3-.5.6-.7 0 0 .1.2.2.2l.1.1Z" style="fill:#354260;stroke-width:0"/><path d="M45.44 64.9c0-.4.2-.7.5-.9.2.5.1.9-.5.9Z" class="cls-19"/><path d="M50.84 71.1c-.3 0-.5-.1-.7-.3.1-.1.2-.2.4-.3.1.2.3.4.3.6Z" style="fill:#25a8b6;stroke-width:0"/><path d="M47.54 64.5s.2.1.3.2c0 .2-.2.5-.5.3s0-.4.2-.5Z" class="cls-53"/><path d="M44.54 65.4c.2.1.5.2.7 0 0 .2 0 .4-.3.4s-.4-.2-.4-.4Z" class="cls-245"/><path d="M43.84 77.7c-.2 0-.4 0-.4.2-.3.3-.4.8-.9.7.2-.9 0-1.2-.4-.6-.3.5-.6 0-.8.3 0 0 .1.4-.2.2q-.4-.3-.7.2c.1-.3-.4-.7 0-1 0 0 .2-.1.2-.2 1-.6 1.8-1.4 2.2-2.5.6-.3.3-1 .8-1.4.5 1.1 0 2.3.2 3.4v.7Z" class="cls-257"/><path d="M42.94 75c-.2 1.4-1.2 2.1-2.3 2.7-.2-.4-.2-.7.2-.9.8-.1.3-1.3 1.1-1.4.5-.3.3-1 .7-1.4h.3c.3.3.2.6 0 .9v.1Z" style="fill:#309ab1;stroke-width:0"/><path d="M42.94 75v-.9c0-.5.3-.5.7-.4-.1.5.2 1.2-.7 1.4V75Z" style="fill:#1fa3b9;stroke-width:0"/><path d="M42.94 73.1v-.8c.2.1.5.1.7 0 0 .4-.4.6-.7.9v-.1Z" style="fill:#0a435b;stroke-width:0"/><path d="M48.94 77.7v-1.1c.2.1.3.3.5.4h.1c.3.2.3.6.4.9v.3c0 .3.2.5.3.8 0 .2.1.4.1.6-.3.4-.6.3-1.2-.2 0-.1-.1-.3-.1-.4 0-.4.2-.9-.2-1.3h.1Z" class="cls-218"/><path d="M50.34 74.1c0 .4.3.7.7.7v.1c.1 1 .6 2 .4 3 0 .3-.2.7-.6.8-.5 0-.7-.3-1-.6 0-.4 0-.9-.5-1.2v-.7c1.1 0 1.1-.6.7-1.3-.2-.4-.6-.8.2-1l.1.2Z" style="fill:#010924;stroke-width:0"/><path d="M35.54 63.1c.8-.2 1.6-.9 2.5-.6 0 .4-.3.4-.5.6-.2 0-.3.2-.4.4-.2.2 0 .5-.2.8 0 0-.2 0-.3.1-.6 0-1.1-.1-1.5-.7 0-.3.2-.4.4-.5v-.1Z" style="fill:#083c5c;stroke-width:0"/><path d="m35.14 63.6 1.6.6c.4 0 .7.3.7.7 0 .3-.3.3-.5.3s-.3 0-.5-.1c0-.6-.6-.4-1-.5-.4 0-.6-.3-.7-.6 0-.2.2-.2.4-.3v-.1Z" style="fill:#3bb4c8;stroke-width:0"/><path d="M36.54 65h.5s.1 0 0 .1v.4c-.7.2-1.4.3-1.8.9-.2.3-.4.6-.9.5-.2-1.3 1.1-1.1 1.7-1.6.2-.2.6-.1.6-.5l-.1.2Z" style="fill:#41aaba;stroke-width:0"/><path d="M34.24 67.1c.3-.2.5-.5.9-.5 0 .4.4.4.6.7-1 .2-1.6.9-2.5 1.1-.2-.7.5-.8.8-1.1v-.2h.2Z" class="cls-146"/><path d="M34.14 67.2c0 .5-.6.7-.8 1.1-.1 0-.3.2-.4.3-.3-1.1.4-1.4 1.3-1.4h-.1Z" class="cls-24"/><path d="M37.64 72.7c0 .4.2.9.6 1 .4 0 .4-.5.6-.7.4-.3.9-.5 1.3-.8.3.2.1.5.1.8 0 .2 0 .4-.2.6h-.3c-.3-.3-.4 0-.5.2 0 .2-.3.4-.4.6-.1.2-.3.3-.4.5-.3.3-.6.4-.8-.1 0-.1-.1-.3-.2-.4v-1.8h.3l-.1.1Z" style="fill:#041935;stroke-width:0"/><path d="M33.24 74.8c.4.5.7 1 1.1 0 .2-.4.5-.6 1-.7v.2c-.7.7-1.3 1.5-2.2 2-.1-.6-.2-1.1 0-1.5h.1Z" class="cls-298"/><path d="m39.94 73.6.3-.4c0-.1.1-.1.2 0v3.2c0 .3.2.6 0 .9-.4-.7-.1-1.5-.2-2.2 0-.4.2-.9-.4-1-.2-.2 0-.3.2-.5h-.1Z" style="fill:#6497af;stroke-width:0"/><path d="M36.04 73.6c0-.8.3-1.3 1.2-.9-.2.6-.7.8-1.2.9Z" class="cls-298"/><path d="M39.94 73.6c0 .2-.1.3-.2.5-.3.2-.6.3-.9.5 0-.2.1-.5.2-.7.2-.3.4-.5.7-.2h.1l.1-.1Z" style="fill:#113d5a;stroke-width:0"/><path d="M42.04 79.1v.4c-.6 0-.8.7-1.4.7.3-.6.8-.9 1.4-1.1Z" class="cls-257"/><path d="M37.44 74.5s.1.2.2.2c0 .3.2.5.4.7-.2.2-.4.4-.8.4 0-.4 0-.9.1-1.3h.1Z" style="fill:#0b6f82;stroke-width:0"/><path d="M40.34 77.3v-.9c.1.2.3.3.4.5-.2.3-.3.6-.2.9h-.3v-.5h.1Z" style="fill:#00536d;stroke-width:0"/><path d="M38.14 75.5c-.5 0-.5-.4-.4-.7.2.2.4.4.7.3 0 .1-.2.3-.3.4Z" style="fill:#03374c;stroke-width:0"/><path d="M36.54 70.2c-.2 0-.3.1-.5.2-.2-.7-.7-.3-1.1-.4-.4 0-1 .3-1.2-.4.6-.2 1.3 0 2-.4h.6c.9.1.9.5.3 1h-.1Z" style="fill:#3791ab;stroke-width:0"/><path d="M35.84 69.3c-.7.4-1.4.2-2.1.2h-.2v-.3c.5 0 1.1.2 1.6-.1.2-.2.5-.2.7 0v.2Z" class="cls-34"/><path d="M34.14 72.7c0 .8 0 1.5-.9 1.8 0-.7.4-1.3.9-1.8Z" class="cls-298"/><path d="M40.44 62.5c-.5-.2-.7.4-1.1.4-.1-.3-.8.1-.7-.5.6-.2 1.2-.7 1.8 0v.1Z" style="fill:#104562;stroke-width:0"/><path d="M38.54 62.4c.2.2.5.3.7.5-.3 0-.6.1-.9.2-.2-.3-.7.1-.9-.2.2-.1.5-.3.7-.4h.5l-.1-.1Z" class="cls-143"/><path d="M56.34 70.5c-.7 0-1.5-.3-2.1.4-.6 0-.4-.5-.4-.8.2-.4.6-.8 1-1.1.3-.2.8-.1 1-.5.1-.2.1-.4 0-.6l-.2-.2c-.9-1.4-1.9-2.6-3.7-2.7-.3-.2-.9-.2-.8-.9 0-.2.3-.3.5-.4.2 0 .5-.1.6-.3.1-.3 0-.6.2-.9.3-.5.8-.5 1.3-.5 1.2 0 2.4 0 3.5.3.1 0 .2 0 .3.1.3.2.4.6.5.8v.5c.3.7.2 1.3-.5 1.6-.3.1-.5.4-.5.7v3c0 .3.2.6.5.7.3.2.3.5.2.8-.3.3-.6.3-.9.3-.2 0-.4-.1-.5-.3Z" style="fill:#29b6c5;stroke-width:0"/><path d="M49.44 79.1h-.5v-1.4c.8.2.3.9.5 1.4Z" style="fill:#0b8a92;stroke-width:0"/><path d="M54.94 69.1c-.3.3-.4.8-.9.9-1 0-1.3-.4-1.1-1.7.1-.3.3-.4.6-.3v.1c.3.5 1.2.2 1.3 1h.1Z" style="fill:#1dbdcc;stroke-width:0"/><path d="M53.54 67.9c-.1 0-.3.1-.4.2-.2 0-.4.1-.6.2-.4.1-.8 0-1.1.4l-.2.2c-.3 0-.6-.2-.9-.3-.1-.1-.3-.3-.3-.5 1.1-.5 2.3-.9 3.5-.2Z" style="fill:#2c91aa;stroke-width:0"/><path d="M54.94 69.1c-.4-.4-1.2-.2-1.3-1 .5.1 1.1 0 1.6.3.2.2.5 0 .7 0 0 0 .2 0 .2.2-.2.5-.7.4-1.2.5Z" class="cls-294"/><path d="M51.24 64c0 .5.6.5.7.9-.4.1-.9.3-1.4.3 0-.2-.1-.4-.2-.6.3-.3.4-.9.9-.5V64Z" style="fill:#438ea3;stroke-width:0"/><path d="M52.64 67.2c0-.2 0-.4.2-.5.2.3.7.1.8.6-.4 0-.7 0-1-.1Z" style="fill:#000914;stroke-width:0"/><path d="M50.04 68.1c.2 0 .3.3.3.5h-.9c-.2-.2 0-.3.2-.4h.4v-.1Z" style="fill:#4694a8;stroke-width:0"/><path d="M49.64 68.2c0 .1-.1.3-.2.4h-.5c0-.5.3-.4.7-.4Z" style="fill:#346980;stroke-width:0"/><path d="M40.44 73.2h-.2v-.9c.3 0 .5 0 .4.4l-.2.5Z" style="fill:#47647f;stroke-width:0"/><path d="M36.94 64c-.5-.3 0-.6 0-.9.3-.2.6-.2.9 0-.1.2-.9.4 0 .7.6.1-.1.3 0 .5-.4.3-.7.1-.9-.3Z" class="cls-143"/><path d="M36.94 64c.3.2.6.3.9.3.2.1.5.3.5.4 0 .4-.4.2-.6.3-.3 0-.5.1-.8.2V65c.7-.5-.3-.5-.2-.8h.2V64Z" style="fill:#519bb1;stroke-width:0"/><path d="M37.84 63.2h-.9c0-.2.3-.2.5-.3.3 0 .7 0 .9.2h-.4l-.1.1Z" style="fill:#2d4b73;stroke-width:0"/><path d="M36.54 70.2c.6-.9-.5-.6-.7-.9.5-.3 1.1-.3 1.6-.4h.1v.2c.1.1.4.2.2.4-.5.2-.9.5-1.4.7h.2Z" class="cls-34"/><path d="M37.84 69.5c0-.1-.1-.3-.2-.4.2 0 .6-.1.6.2 0 .2-.2.2-.4.2Z" style="fill:#7191a7;stroke-width:0"/><path d="M37.44 68.9c-.5.4-1 .5-1.6.4-.2-.2-.5-.1-.7-.1l.5-.5h.2c.5.6 1.2-.3 1.7.3l-.1-.1Z" style="fill:#02233f;stroke-width:0"/><path d="M42.74 74.1c-.2.5 0 1.2-.7 1.4.3-.4 0-1.2.7-1.4Z" style="fill:#5091ab;stroke-width:0"/><path d="M48.44 62.9c.1.2-.4.6.2.7 0 .3-.4.5-.6.7-.4-.2-.2-.6-.3-.9.2-.4.3-.8.5-1.1.6 0 .3.4.3.7l-.1-.1Z" style="fill:#3a839d;stroke-width:0"/><path d="M51.24 63.1h.9c.4.6-.2.5-.5.6-.1 0-.3.2-.4.3-.4 0-.6.4-.9.4-.2-.8.9-.7.9-1.4v.1Z" style="fill:#042642;stroke-width:0"/><path d="M48.04 61.7c-.6 0-.8.7-1.2.9-.3-.5.4-.9.3-1.4.5-.3.9-.4.9.4v.1Z" style="fill:#58bdd1;stroke-width:0"/><path d="M52.64 68.2c.2-.2.3-.2.5 0 0 .8 0 1.5.9 1.8 0 .3-.1.7.2.9-.1.3-.4.5-.7.5 0-1.5-1.3-1.9-2.3-2.5v-.3c.4-.4 1 0 1.4-.4Z" class="cls-294"/><path d="M53.04 72.3v.4c-.9 0-1.7-.6-1.8-1.4.5 0 .9.1 1.3.3 0 .3.2.5.5.7Z" style="fill:#3c98af;stroke-width:0"/><path d="M50.94 73c.6.2.4.7.5 1.1.1.3.2.5 0 .7-.1 0-.2 0-.3-.1 0-.4 0-.7-.1-1.1V73h-.1Z" style="fill:#63becc;stroke-width:0"/><path d="M51.04 73.6c.3.4.2.8.2 1.2h-.2v-1.2Z" style="fill:#5399af;stroke-width:0"/><path d="M49.84 78.2c.4 0 .6.3 1 .5.1.2 0 .3 0 .5-.2.1-.5.1-.7 0 0-.3-.2-.6-.3-.9v-.1Zm-.4-1.1c.6.2.6.6.5 1.1-.3-.3-.4-.7-.5-1.1Z" class="cls-200"/><path d="M50.14 79.1h.6c.2.3 0 .4-.2.5h-.2c-.2-.1-.2-.3-.2-.5Z" style="fill:#014260;stroke-width:0"/><path d="M50.54 79.6c0-.2.1-.3.2-.5v-.4l.4-.7c.4-1-.3-2 .1-2.9 0-.1.2-.1.3 0 0 .8.2 1.5.4 2.3 0-.4 0-.8.1-1.3.5.8.5 1.3-.1 1.8-.3.2-.4.4-.4.7-.1.5-.5.9-.9 1.1h-.2l.1-.1Z" class="cls-218"/><path d="M39.74 73.6c-.2 0-.5.2-.7.2 0-.4.2-.7.5-.8.3 0 .1.3.2.5v.1Z" style="fill:#406482;stroke-width:0"/><path d="M51.44 75s-.1-.2-.2-.2c.3-.2.2-.5.3-.7 0 .2.1.3.2.5v.4h-.3Z" style="fill:#4b9ab0;stroke-width:0"/><path d="M51.64 63.8c.1-.2.6-.3.5-.6.2 0 .3.3.3.5-.2.2-.5.2-.7.2l-.1-.1Z" style="fill:#258997;stroke-width:0"/><path d="M52.64 68.2c-.2.8-.9.3-1.4.4.2-.8.9-.3 1.4-.4Z" style="fill:#15b4c9;stroke-width:0"/></g><g id="car_rough" data-name="car rough"><path d="M21.26 160.3c-1.06-.65-2.06-1.4-2.98-2.24-.17.33-.33.66-.5.99.72 2.26 1.14 4.58 1.24 6.96 2.69-1.75 4.43-1.09 5.22 1.99-.27 3.16-1.93 4.24-4.97 3.23a8.158 8.158 0 0 1-1.99-3.73c-3.45.7-5.11-.79-4.97-4.48.15-2.48.64-4.88 1.49-7.21-.51-.63-1.09-1.21-1.74-1.74-.5 1.33-.99 2.65-1.49 3.98-3.51 1.82-5.33.66-5.47-3.48-.3-2-.22-3.99.25-5.97-.74-2.13-1.16-4.28-1.24-6.46 1.05-2.21 2.62-3.95 4.72-5.22m137.74 45.51c1.9-.8 3.72-1.8 5.47-2.98l-.5-.5a118.57 118.57 0 0 0-12.43 4.48c-1.05.09-2.05-.08-2.98-.5.01-.84.35-1.51.99-1.99 3.65-1.36 7.3-2.77 10.94-4.23 7.16-5 14.45-9.81 21.88-14.42.6-.52 1.1-1.1 1.49-1.74 2.3-1.31 4.13-3.13 5.47-5.47a8.437 8.437 0 0 0-3.98-.5c-1.22-.48-2.54-.65-3.98-.5 1.32-.9 2.81-1.4 4.48-1.49h8.45c-9.59 13.16-21.2 24.18-34.81 33.07" class="cls-128"/><path d="M5.85 122.26c.76 4.2 2.17 8.18 4.23 11.93.25-1.15.33-2.31.25-3.48v-3.98c-.11-.83.22-1.33.99-1.49-.16 3.08 0 6.06.5 8.95.17.42.5.58.99.5.24.7.73 1.03 1.49.99 1.29 1.36 2.78 1.69 4.48.99.66 1.99.66 3.98 0 5.97-2.43-.7-4.59-1.86-6.46-3.48v-2.49c-.83-.11-1.33.22-1.49.99-.93 1.1-2.09 1.76-3.48 1.99a12.4 12.4 0 0 1-.5 3.98c-.66 1.33-.66 2.65 0 3.98-.16 2.25 0 4.41.5 6.46-.15 1.05.02 2.04.5 2.98.58-.21 1.08-.54 1.49-.99.46-1.62.62-3.28.5-4.97.31-.06.56-.22.75-.5 1.35 1.1 2.76 2.1 4.23 2.98 1.43.96 2.92 1.79 4.48 2.49.5.17.83.5.99.99 1.98 2.73 4.47 4.81 7.46 6.22 4.89 4.19 10.36 7.5 16.41 9.95 1.07.66 2.07 1.41 2.98 2.24 2.43 1.71 5.08 2.87 7.96 3.48 2.95.95 5.93 1.78 8.95 2.49.49-.09.82.08.99.5 1.54 1.78 3.53 2.44 5.97 1.99-.74 1.28-1.9 1.95-3.48 1.99-3.85-2.16-7.99-3.32-12.43-3.48a25.25 25.25 0 0 1-5.97-2.98c-1.09-.38-2.25-.71-3.48-.99l-.5.5m144.68-43.28c5.16 2.2 6.57 5.84 4.23 10.94-.17 3.81-.33 7.62-.5 11.44-1.27 2.2-2.92 2.53-4.97.99-.55-1.95-.88-3.94-.99-5.97-1.85.81-3.42.48-4.72-.99 1.72-.48 3.38-1.14 4.97-1.99.5-.04.91.12 1.24.5.09 1.75.34 3.41.75 4.97v2.49h1.99v-1.99c.08-2.33 0-4.65-.25-6.96-.12-.62-.36-1.11-.75-1.49-.33 0-.5-.17-.5-.5-.5-.33-.99-.66-1.49-.99 3.92 0 5.32-2 4.23-5.97-.19-.28-.44-.44-.75-.5-.49.09-.82-.08-.99-.5a7.224 7.224 0 0 0-2.98-1.99c-.8-.27-1.63-.43-2.49-.5h-.5c-.86-.57-1.36-1.4-1.49-2.49.11-1.09.44-2.09.99-2.98.31-.06.56-.22.75-.5.24.64.33 1.31.25 1.99-.47.71-.64 1.53-.5 2.49.95.14 1.78-.02 2.49-.5" class="cls-128"/><path d="M16.79 88.44c-.49 4.38-.66 8.86-.5 13.43" style="opacity:1;fill:#bc8a51;isolation:isolate;fill-rule:evenodd;stroke-width:0"/><path d="M182.13 103.36c.5.42 1.08.58 1.74.5.33-.17.66-.33.99-.5 1.5 3.52 2.5 7.16 2.98 10.94v1.49c-.97 1.09-1.63.76-1.99-.99-.71-2.9-1.2-5.89-1.49-8.95h-1.49c0-.33-.17-.5-.5-.5-.77-.47-1.6-.8-2.49-.99-1.64-.99-3.3-1.98-4.97-2.98-.39-.8-1.05-1.13-1.99-.99-.59-.38-1.09-.88-1.49-1.49-.39-.45-.89-.78-1.49-.99-1.45-.92-2.94-1.75-4.48-2.49-.24-.7-.73-1.03-1.49-.99-10.56-4.92-21.67-7.98-33.32-9.2" style="fill:#0f162a;opacity:1;isolation:isolate;fill-rule:evenodd;stroke-width:0"/><path d="M9.33 123.25c.11 1.28.44 2.44.99 3.48v3.98c-.91-.31-1.49-.97-1.74-1.99-.65-1.87-1.23-3.69-1.74-5.47" style="fill:#c59255;opacity:1;isolation:isolate;fill-rule:evenodd;stroke-width:0"/><path d="M90.88 91.93c-2.58.78-4.57 2.28-5.97 4.48h-.5c-1.67.59-3.16 1.5-4.48 2.73-1.14.88-1.97 1.96-2.49 3.23-.49-.09-.82.08-.99.5-1.14.32-1.97.98-2.49 1.99-.99-.17-1.99-.33-2.98-.5-.56-.68-.56-1.34 0-1.99 4.38-3.14 8.69-6.37 12.93-9.7 1.58-.7 3.07-1.53 4.48-2.49" style="fill:#eaeded;fill-rule:evenodd;stroke-width:0"/><path d="M105.3 91.68c-3.45 2.88-6.93 5.61-10.44 8.2-2.77.78-5.59 1.03-8.45.75 1.96-.8 3.45-2.12 4.48-3.98-3.59.94-7.24 2.43-10.94 4.48-.78 1.36-1.94 1.94-3.48 1.74.17-.42.5-.58.99-.5 2.34-1.99 4.66-3.98 6.96-5.97h.5c2.01-1.5 4-2.99 5.97-4.48" style="fill:#69d2e0;opacity:1;isolation:isolate;fill-rule:evenodd;stroke-width:0"/><path d="M90.88 91.93a1159.9 1159.9 0 0 1-5.97 4.48c1.4-2.2 3.39-3.69 5.97-4.48" style="fill:#b4e6eb;fill-rule:evenodd;stroke-width:0"/><path d="M124.2 91.68c2.83 1.05 5.56 2.3 8.2 3.73.24.52.16 1.02-.25 1.49-.85.52-1.52 1.18-1.99 1.99v-.5c.17-.66.33-1.33.5-1.99-2.99-1.92-6.31-3.33-9.95-4.23a171.62 171.62 0 0 0-19.39-2.73" style="fill:#707071;fill-rule:evenodd;stroke-width:0"/><path d="M117.23 92.92c4.55.93 9.03 2.09 13.43 3.48-.17.66-.33 1.33-.5 1.99-2.82 3.75-5.81 7.48-8.95 11.19-7.93 1.51-15.72 1.1-23.37-1.24.83-.12 1.58-.46 2.24-.99.81 1.06 1.72 1.23 2.73.5a59.7 59.7 0 0 0 6.46-6.46c3.01-2.51 5.67-5.33 7.96-8.45Z" style="fill:#055c77;opacity:1;isolation:isolate;fill-rule:evenodd;stroke-width:0"/><path d="M101.32 89.44a173.6 173.6 0 0 1 19.39 2.73c3.64.9 6.95 2.31 9.95 4.23-4.4-1.39-8.87-2.55-13.43-3.48h-.5c-4.86-1.14-9.83-1.97-14.92-2.49" style="fill:#313c44;fill-rule:evenodd;stroke-width:0"/><path d="M154.03 93.42h-2.49c-3.9-.5-7.71-.17-11.44.99h-.99c.17-.33.33-.66.5-.99 4.87-1.81 9.68-1.81 14.42 0Z" style="fill:#565855;fill-rule:evenodd;stroke-width:0"/><path d="M151.55 93.42c.55.39 1.21.64 1.99.75-.47.24-.97.32-1.49.25-4.15-.33-8.13.17-11.93 1.49-.44.07-.77-.1-.99-.5.37-.34.7-.67.99-.99 3.72-1.17 7.54-1.5 11.44-.99Z" style="fill:#a4855b;fill-rule:evenodd;stroke-width:0"/><path d="M139.61 93.42c-.17.33-.33.66-.5.99-1.8.97-3.29 2.3-4.48 3.98-.99.83-1.99 1.66-2.98 2.49a21.51 21.51 0 0 1 7.96-7.46Z" style="fill:#959d9c;opacity:.98;isolation:isolate;fill-rule:evenodd;stroke-width:0"/><path d="M151.55 93.42h2.49c2.08.05 3.74.87 4.97 2.49a3.89 3.89 0 0 0-2.49-.25c.28.19.44.44.5.75a46.39 46.39 0 0 0-4.97-1.99c.52.07 1.02 0 1.49-.25-.77-.1-1.44-.35-1.99-.75Z" style="fill:#737265;fill-rule:evenodd;stroke-width:0"/><path d="M152.04 94.41c1.67.56 3.33 1.22 4.97 1.99.56.31 1.06.72 1.49 1.24-.98.25-1.98.33-2.98.25-1.87-.63-3.7-.47-5.47.5-5.68.63-11.15 2.13-16.41 4.48-.33 0-.5-.17-.5-.5 1.03-1.03 1.86-2.19 2.49-3.48 1.44-1.13 2.93-2.12 4.48-2.98 3.8-1.32 7.78-1.82 11.93-1.49Z" style="opacity:1;fill:#131729;isolation:isolate;fill-rule:evenodd;stroke-width:0"/><path d="M163.98 94.41c.76-.04 1.26.3 1.49.99-.76.04-1.26-.3-1.49-.99Z" style="fill:#717784;fill-rule:evenodd;stroke-width:0"/><path d="M88.39 90.18c-1.41.95-2.9 1.78-4.48 2.49-4.24 3.33-8.55 6.56-12.93 9.7-.56.65-.56 1.31 0 1.99-.68-.25-1.17-.75-1.49-1.49-1.68.47-1.85.14-.5-.99 3.8-3.06 7.61-6.13 11.44-9.2 3.48-2.46 7.29-4.2 11.44-5.22" style="fill:#6c707c;fill-rule:evenodd;stroke-width:0"/><path d="M46.62 97.4c.99.25 1.98.49 2.98.75-.41.08-.83.17-1.24.25-4.7-.97-9.42-1.13-14.17-.5-5.08 2.8-10.55 3.96-16.41 3.48 2.61-.89 5.43-1.31 8.45-1.24.7-.18 1.2-.6 1.49-1.24l-9.95-.99c3.84-.35 7.65-.68 11.44-.99.57-.86 1.4-1.36 2.49-1.49 4.99.62 9.97 1.28 14.92 1.99Z" style="fill:#addbe1;opacity:1;isolation:isolate;fill-rule:evenodd;stroke-width:0"/><path d="M101.82 90.43c5.09.52 10.06 1.35 14.92 2.49-2.68 2.68-5.17 5.5-7.46 8.45a59.7 59.7 0 0 1-6.46 6.46c-.8.09-1.46-.16-1.99-.75.92-.34 1.75-.84 2.49-1.49.77-1.39 1.76-2.55 2.98-3.48-.57-.32-1.07-.73-1.49-1.24-.84-.59-1.67-.59-2.49 0l-1.99 2.98c-1.23.64-2.39.64-3.48 0 .68-1.17 1.67-2 2.98-2.49 3.13-2.47 6.12-5.12 8.95-7.96-.25-.51-.58-.59-.99-.25a48.029 48.029 0 0 0-8.95 7.21c-1.35-.04-2.67-.2-3.98-.5 3.52-2.59 7-5.33 10.44-8.2" style="fill:#42bdce;opacity:1;isolation:isolate;fill-rule:evenodd;stroke-width:0"/><path d="M139.11 94.41h.99c-.29.32-.63.66-.99.99.23.4.56.56.99.5-1.54.86-3.03 1.85-4.48 2.98-.17-.42-.5-.58-.99-.5 1.18-1.68 2.68-3.01 4.48-3.98Z" style="fill:#816d4f;opacity:1;isolation:isolate;fill-rule:evenodd;stroke-width:0"/><path d="M84.42 96.4c-2.3 1.98-4.62 3.97-6.96 5.97.52-1.27 1.35-2.35 2.49-3.23 1.31-1.23 2.8-2.15 4.48-2.73Z" style="fill:#ace3ea;fill-rule:evenodd;stroke-width:0"/><path d="M116.74 92.92h.5a47.481 47.481 0 0 1-7.96 8.45 88.75 88.75 0 0 1 7.46-8.45Z" style="fill:#1b839b;fill-rule:evenodd;stroke-width:0"/><path d="M155.52 97.89c-.8-.13-1.46.03-1.99.5h-3.48c1.77-.97 3.6-1.13 5.47-.5Z" style="fill:#264b5d;opacity:.97;isolation:isolate;fill-rule:evenodd;stroke-width:0"/><path d="M159 95.9c1.62.72 3.11 1.55 4.48 2.49-.68-.08-1.35 0-1.99.25 1.07 1.99 2.23 3.57 3.48 4.72.71.64 1.04 1.47.99 2.49a3.5 3.5 0 0 1-1.99.5 43.92 43.92 0 0 0-2.24-5.97 7.971 7.971 0 0 0-3.73-.5c.38-.38.88-.63 1.49-.75l-.5-.5c-1.82-.25-3.64-.33-5.47-.25.53-.46 1.19-.63 1.99-.5 1.01.08 2 0 2.98-.25-.43-.52-.93-.93-1.49-1.24-.06-.31-.22-.56-.5-.75.84-.19 1.67-.11 2.49.25Z" style="fill:#549092;opacity:1;isolation:isolate;fill-rule:evenodd;stroke-width:0"/><path d="M99.83 101.37c0-.66-.33-.99-.99-.99 2.68-2.75 5.66-5.16 8.95-7.21.41-.34.74-.26.99.25-2.83 2.83-5.82 5.49-8.95 7.96Z" style="fill:#259daf;fill-rule:evenodd;stroke-width:0"/><path d="M150.05 98.39h3.48c1.83-.08 3.65 0 5.47.25l.5.5c-.62.12-1.11.36-1.49.75-8.19 1.84-16.48 3.49-24.86 4.97-.03-.73.13-1.39.5-1.99a55.125 55.125 0 0 1 16.41-4.48Z" style="fill:#4a99a0;opacity:1;isolation:isolate;fill-rule:evenodd;stroke-width:0"/><path d="M169.94 97.89c.6.21 1.1.55 1.49.99-.83.11-1.33-.22-1.49-.99Z" style="fill:#4f5666;fill-rule:evenodd;stroke-width:0"/><path d="M94.86 99.88c1.31.29 2.63.46 3.98.5-2.54 1.95-5.02 4.02-7.46 6.22-3.05-.59-6.2-.83-9.45-.75-2.68-.17-5.33-.5-7.96-.99.52-1.01 1.35-1.67 2.49-1.99 1.54.2 2.7-.38 3.48-1.74 3.7-2.05 7.35-3.54 10.94-4.48-1.03 1.85-2.52 3.18-4.48 3.98 2.86.28 5.68.03 8.45-.75Z" style="fill:#3eb5c6;opacity:1;isolation:isolate;fill-rule:evenodd;stroke-width:0"/><path d="M158.01 99.88c1.3-.13 2.55.03 3.73.5a45.29 45.29 0 0 1 2.24 5.97c.73.03 1.39-.13 1.99-.5v1.49c-1.81.41-3.63.74-5.47.99-1.15.13-2.15-.2-2.98-.99-.6.38-.6.8 0 1.24-1.42.09-2.75.34-3.98.75-1.73.26-3.39.75-4.97 1.49l3.48.99c-1.11.38-2.27.79-3.48 1.24.5.08.99.17 1.49.25a86.87 86.87 0 0 1 12.93-1.99c-.72.4-1.55.65-2.49.75.42.5.58 1.08.5 1.74-.66.33-1.33.66-1.99.99-8.28 1.9-16.57 3.65-24.86 5.22-2.26.53-4.42 1.28-6.46 2.24v.5c-.4.77-.56 1.6-.5 2.49 1.28.03 2.28.61 2.98 1.74.64.24 1.31.33 1.99.25v6.96c.09.49-.08.82-.5.99-2.47.9-4.62 2.31-6.46 4.23-.47.24-.97.32-1.49.25h-.99c-.52-1.51-1.51-2.51-2.98-2.98v5.47h-3.98c.04-1.62-.63-2.29-1.99-1.99.46 1.95.63 3.94.5 5.97h-.5c-3.88-.68-7.19.31-9.95 2.98-.54-.06-.87-.39-.99-.99a25.02 25.02 0 0 1 2.49-5.22c-.3-.23-.63-.31-.99-.25-2.37-1.23-4.85-1.31-7.46-.25a32.312 32.312 0 0 0-4.97 6.71c-1.06 1.28-2.47 2.11-4.23 2.49-.51-.17-.76-.5-.75-.99 1.87-4.03 4.36-7.68 7.46-10.94-.25-.17-.5-.33-.75-.5-1.48 1.31-2.8 2.8-3.98 4.48-1 2.33-2.24 4.49-3.73 6.46-.78.12-1.44.45-1.99.99-1.89-.36-3.22.3-3.98 1.99-2.14.29-4.3.45-6.46.5h-.99c-.99-.33-1.99-.66-2.98-.99-2.85-.86-5.84-1.19-8.95-.99h-.99c-1.04-.55-2.2-.88-3.48-.99-1.33-.83-2.65-1.66-3.98-2.49-.22-.81-.38-1.64-.5-2.49.07-.76.4-1.26.99-1.49 5.97.82 11.93 1.15 17.9.99-.13-1.27-.63-2.26-1.49-2.98.77-.61 1.6-.61 2.49 0 .64-.76.64-1.59 0-2.49-.34.18-.67.35-.99.5-.56-.42-.56-.92 0-1.49.66-.83.66-1.66 0-2.49v-1.49c-.8.13-1.46-.03-1.99-.5-.38-.38-.88-.63-1.49-.75 1.32-.25 2.64-.33 3.98-.25 3.11-.48 5.93-1.64 8.45-3.48 5.32-1.77 10.62-3.43 15.91-4.97 8.49-1.66 16.94-3.49 25.36-5.47l12.93-2.49c.63-.29 1.29-.54 1.99-.75-2.08-.09-4.07-.34-5.97-.75 1.6-.49 3.26-.99 4.97-1.49-.33-.17-.66-.33-.99-.5-2.85.38-5.66.87-8.45 1.49-1.09.05-1.26-.29-.5-.99.17-.5.5-.83.99-.99.21.31.54.48.99.5 1.31-.44 2.63-.77 3.98-.99 1.11.53 2.27.44 3.48-.25-.24-1.86-.73-3.61-1.49-5.22.15-1.11-.02-2.11-.5-2.98.21-.6.55-1.1.99-1.49 0 .33.17.5.5.5a3.5 3.5 0 0 0-.5 1.99c8.38-1.48 16.67-3.14 24.86-4.97Z" style="fill:#172d42;opacity:1;isolation:isolate;fill-rule:evenodd;stroke-width:0"/><path d="M67.51 100.88c-.34.83-1 1.17-1.99.99-3.69-.64-7.42-1.14-11.19-1.49-3.57.6-7.13.6-10.69 0a63.475 63.475 0 0 1 23.87.5Z" style="fill:#aad8df;fill-rule:evenodd;stroke-width:0"/><path d="M172.93 100.38c.93-.13 1.6.2 1.99.99-.82-.08-1.48-.41-1.99-.99Z" style="fill:#828b99;fill-rule:evenodd;stroke-width:0"/><path d="M163.48 98.39c.7 1.59 1.19 3.25 1.49 4.97-1.26-1.16-2.42-2.73-3.48-4.72.64-.24 1.31-.33 1.99-.25Z" style="fill:#9a8864;fill-rule:evenodd;stroke-width:0"/><path d="M130.16 98.39v.5c-.71 1.58-1.54 3.07-2.49 4.48a13.02 13.02 0 0 0-2.49 3.48v.5c-1.16.17-1.82.83-1.99 1.99v.5c-.99 0-1.49.5-1.49 1.49-.55.03-1.05.19-1.49.5-2.33.08-4.65.25-6.96.5-8.07-.86-16.02-2.02-23.87-3.48-1.9-.49-3.89-.82-5.97-.99l-6.46-.99c-3.82-.37-7.64-.87-11.44-1.49-5.4 1.02-10.71 2.18-15.91 3.48-2.68-.05-5.33.2-7.96.75.81.12 1.3.53 1.49 1.24-1.19-.12-2.19.21-2.98.99h-1.49c-.04 1.63.29 3.12.99 4.48-.13.73.04 1.4.5 1.99.76.25 1.42.58 1.99.99-.88.92-2.04 1.25-3.48.99-.17.99.16 1.65.99 1.99.78.59 1.61 1.09 2.49 1.49-.17.42-.5.58-.99.5a78.271 78.271 0 0 0-11.93-2.49c0-.66.33-.99.99-.99 1.67.14 3.33.23 4.97.25.74-.87.57-1.45-.5-1.74v-.99c.5.01.83-.23.99-.75-.1-1.36-.6-2.44-1.49-3.23-.11-.82.06-1.56.5-2.24 2.04-.51 4.03-1.17 5.97-1.99-.25-.08-.5-.17-.75-.25-7.71 1.57-15.25 3.56-22.63 5.97.07.89-.1 1.72-.5 2.49-1.94.45-3.27 1.61-3.98 3.48-.86 4.09-1.19 8.24-.99 12.43-.49-2.89-.66-5.87-.5-8.95v-1.49c-.08-.84 0-1.67.25-2.49 1.52-2.1 2.93-4.25 4.23-6.46.71-.47 1.53-.64 2.49-.5.12-.64-.05-1.14-.5-1.49v-.99c-.14-.95.02-1.78.5-2.49h.5c-.08 1.01 0 2 .25 2.98.26.51.67.84 1.24.99 3.65-1.32 7.29-2.48 10.94-3.48 2.12-.2 4.11-.7 5.97-1.49h1.99c4.95-1.32 9.93-2.32 14.92-2.98 1.11.15 2.11-.02 2.98-.5.8.13 1.46-.03 1.99-.5.8.13 1.46-.03 1.99-.5 1.82 0 3.31-.66 4.48-1.99.99.17 1.65-.16 1.99-.99 0-.66.33-.99.99-.99-.83.97-.67 1.64.5 1.99-1.35 1.14-1.18 1.47.5.99.32.74.82 1.24 1.49 1.49.99.17 1.99.33 2.98.5 2.62.49 5.28.83 7.96.99 4.17 1.16 8.48 1.83 12.93 1.99.88.48 1.87.64 2.98.5 7.65 2.34 15.44 2.76 23.37 1.24 3.15-3.71 6.13-7.44 8.95-11.19Z" style="fill:#181f33;opacity:1;isolation:isolate;fill-rule:evenodd;stroke-width:0"/><path d="M102.81 107.84c-1.02.73-1.93.56-2.73-.5a4.5 4.5 0 0 1-2.24.99c-1.11.15-2.11-.02-2.98-.5-.55-.39-1.21-.64-1.99-.75 1.13-1.38 2.45-2.46 3.98-3.23 1.09.64 2.25.64 3.48 0l1.99-2.98c.81-.59 1.64-.59 2.49 0 .42.51.92.92 1.49 1.24-1.22.93-2.21 2.09-2.98 3.48-.73.65-1.56 1.15-2.49 1.49.53.59 1.19.84 1.99.75Z" style="fill:#1ea1b6;fill-rule:evenodd;stroke-width:0"/><path d="m50.1 103.36 8.95.99c-.53.46-1.19.63-1.99.5-5.59.18-11.14-.15-16.66-.99a67.27 67.27 0 0 1-22.13 1.49c-.37-.6-.53-1.26-.5-1.99 3.56.29 7.13.62 10.69.99 4.02-.94 8.08-1.61 12.18-1.99 3.17.17 6.32.5 9.45.99Z" style="fill:#cce6ea;opacity:1;isolation:isolate;fill-rule:evenodd;stroke-width:0"/><path d="M50.1 103.36c3.74-.16 7.39 0 10.94.5-.53.46-1.19.63-1.99.5l-8.95-.99Z" style="fill:#70b3c1;fill-rule:evenodd;stroke-width:0"/><path d="M16.79 88.44c-.16 1.76.01 3.42.5 4.97-.16 2.75 0 5.4.5 7.96v1.99c-.03.73.13 1.39.5 1.99v3.98c-.47.71-.64 1.53-.5 2.49-.65-3.23-1.15-6.54-1.49-9.95-.16-4.57 0-9.04.5-13.43" style="fill:#272c37;fill-rule:evenodd;stroke-width:0"/><path d="M131.66 100.88c.07.52 0 1.02-.25 1.49-2.2 2.93-4.43 5.75-6.71 8.45a82.86 82.86 0 0 1 6.96-9.95Z" style="fill:#787a73;fill-rule:evenodd;stroke-width:0"/><path d="M132.15 103.86c.48.88.64 1.87.5 2.98 0 1.26.17 2.51.5 3.73-.29 1.31-1.12 1.89-2.49 1.74-1.34.23-2.67.56-3.98.99-.46-.02-.79-.19-.99-.5 1.77-3.26 3.93-6.25 6.46-8.95Z" style="fill:#151728;opacity:1;isolation:isolate;fill-rule:evenodd;stroke-width:0"/><path d="M134.64 98.39c.49-.09.82.08.99.5-.62 1.29-1.45 2.45-2.49 3.48-.45.39-.78.89-.99 1.49-2.54 2.7-4.69 5.69-6.46 8.95-.5.17-.83.5-.99.99-.66 0-.99-.33-.99-.99-.13-.93.2-1.6.99-1.99 2.28-2.7 4.52-5.52 6.71-8.45.24-.47.32-.97.25-1.49.99-.83 1.99-1.66 2.98-2.49Z" style="fill:#9c7e54;opacity:.98;isolation:isolate;fill-rule:evenodd;stroke-width:0"/><path d="M179.89 104.36c.89.2 1.72.53 2.49.99.05 1.09-.29 1.26-.99.5h-3.98c1.01-.23 1.84-.73 2.49-1.49Z" style="fill:#a0b1be;fill-rule:evenodd;stroke-width:0"/><path d="M54.08 105.35c-4.99.67-9.96 1.66-14.92 2.98.44-.94.44-1.93 0-2.98h14.92Z" style="fill:#2f7b92;opacity:1;isolation:isolate;fill-rule:evenodd;stroke-width:0"/><path d="M98.84 100.38c.66 0 .99.33.99.99-1.31.48-2.3 1.31-2.98 2.49-1.52.77-2.85 1.85-3.98 3.23.77.1 1.44.35 1.99.75-4.45-.16-8.76-.82-12.93-1.99 3.25-.09 6.4.16 9.45.75 2.44-2.19 4.92-4.26 7.46-6.22Z" style="fill:#1f899f;fill-rule:evenodd;stroke-width:0"/><path d="M127.68 103.36c-.23 1.56-1.06 2.72-2.49 3.48.64-1.3 1.47-2.46 2.49-3.48Z" style="fill:#798492;opacity:.98;isolation:isolate;fill-rule:evenodd;stroke-width:0"/><path d="M154.03 103.86c.37 1.25.71 2.58.99 3.98-1.57.84-3.23 1.09-4.97.75 2.37-.79 3.7-2.37 3.98-4.72Z" style="fill:#495266;opacity:.99;isolation:isolate;fill-rule:evenodd;stroke-width:0"/><path d="M147.07 109.83c-2.21.04-4.37-.29-6.46-.99-.55 1.01-1.37 1.67-2.49 1.99-.56.56-.89 1.22-.99 1.99.13.73-.04 1.4-.5 1.99-.96-3.25-.13-5.91 2.49-7.96 2.31.47 4.63.88 6.96 1.24.73.35 1.06.93.99 1.74Z" style="fill:#79bfce;opacity:.99;isolation:isolate;fill-rule:evenodd;stroke-width:0"/><path d="M182.38 105.35c.33 0 .5.17.5.5a2.77 2.77 0 0 1-.5 1.49c.33.5.66.99.99 1.49-.23.4-.56.56-.99.5-1.26-.42-2.5-.92-3.73-1.49-1.27.3-2.51.63-3.73.99l-.99-.99c1.98-.33 3.97-.66 5.97-.99.76-.07 1.26-.4 1.49-.99.71.76 1.04.6.99-.5Z" style="fill:#5e788d;fill-rule:evenodd;stroke-width:0"/><path d="M182.87 105.85h1.49c.29 3.06.79 6.05 1.49 8.95h-.99c.08-.84 0-1.67-.25-2.49-.69-1.09-1.44-2.09-2.24-2.98.44.07.77-.1.99-.5-.33-.5-.66-.99-.99-1.49.31-.46.48-.95.5-1.49Z" style="fill:#4d5c70;fill-rule:evenodd;stroke-width:0"/><path d="M125.19 107.34c-.5.83-1.16 1.49-1.99 1.99.17-1.16.83-1.82 1.99-1.99Z" style="opacity:.98;fill:#7b8895;isolation:isolate;fill-rule:evenodd;stroke-width:0"/><path d="M165.97 105.85c.46.53.63 1.19.5 1.99-1.25.21-2.41.54-3.48.99-.95.14-1.78-.02-2.49-.5 1.84-.25 3.66-.58 5.47-.99v-1.49Z" style="fill:#73695b;fill-rule:evenodd;stroke-width:0"/><path d="m76.96 106.84 6.46.99c-.71.9-1.7 1.23-2.98.99h-2.98c.89-.4 1.89-.65 2.98-.75-.99-.17-1.99-.33-2.98-.5-.28-.19-.44-.44-.5-.75Z" style="fill:#d5d6d9;fill-rule:evenodd;stroke-width:0"/><path d="M83.42 107.84c2.08.17 4.07.51 5.97.99-2.98.5-5.97.99-8.95 1.49.66-.5.66-.99 0-1.49 1.28.24 2.28-.1 2.98-.99Z" style="fill:#8e8f96;fill-rule:evenodd;stroke-width:0"/><path d="M160.5 108.33c.71.47 1.53.64 2.49.5-1.7.7-3.52 1.03-5.47.99-1.22-.48-2.54-.65-3.98-.5 1.23-.41 2.55-.65 3.98-.75-.6-.44-.6-.86 0-1.24.83.8 1.83 1.13 2.98.99Z" style="fill:#393f44;opacity:.99;isolation:isolate;fill-rule:evenodd;stroke-width:0"/><path d="M37.18 108.33c-1.86.8-3.85 1.29-5.97 1.49-3.14.41-6.29.74-9.45.99h-1.49v-1.49c3.02-.21 5.92-.88 8.7-1.99 2.82.25 5.55.58 8.2.99Z" style="opacity:.99;fill:#aed8de;isolation:isolate;fill-rule:evenodd;stroke-width:0"/><path d="M49.61 108.83c-2.13.66-4.29 1.32-6.46 1.99-.19-.71-.69-1.13-1.49-1.24 2.63-.54 5.28-.79 7.96-.75Z" style="fill:#515467;opacity:1;isolation:isolate;fill-rule:evenodd;stroke-width:0"/><path d="M76.96 106.84c.06.31.22.56.5.75.99.17 1.99.33 2.98.5-1.1.09-2.09.34-2.98.75a619.8 619.8 0 0 0-23.87 5.72c-3.45.94-6.77 2.19-9.95 3.73 1.3.44 2.62.77 3.98.99a300.87 300.87 0 0 1 32.82-8.95c2.98-.5 5.97-.99 8.95-1.49 7.85 1.46 15.8 2.62 23.87 3.48 1.73.41 3.55.66 5.47.75.61.74.61 1.49 0 2.24-2.89.45-5.71.95-8.45 1.49-1.6-.15-3.09.01-4.48.5-5.09.26-10.07.93-14.92 1.99-9.71.75-19.16 2.57-28.34 5.47a703.08 703.08 0 0 1-20.39-5.47 6.74 6.74 0 0 0-1.99-.99c-.46-.59-.63-1.25-.5-1.99.33-1.47.49-2.96.5-4.48.8-.78 1.79-1.11 2.98-.99 2.18-.67 4.33-1.33 6.46-1.99a281.5 281.5 0 0 1 15.91-3.48c3.8.62 7.61 1.12 11.44 1.49Z" style="fill:#f4f6f6;fill-rule:evenodd;stroke-width:0"/><path d="M132.65 106.84c.76 1.62 1.26 3.36 1.49 5.22-1.21.69-2.37.78-3.48.25 1.36.15 2.19-.43 2.49-1.74a14.7 14.7 0 0 1-.5-3.73Z" style="fill:#485264;opacity:1;isolation:isolate;fill-rule:evenodd;stroke-width:0"/><path d="M147.07 109.83c.07.52 0 1.02-.25 1.49-.26-.51-.67-.84-1.24-.99-2.81.94-5.62 1.76-8.45 2.49.1-.77.43-1.43.99-1.99 1.11-.31 1.94-.98 2.49-1.99 2.09.7 4.25 1.03 6.46.99Z" style="fill:#30889e;opacity:.99;isolation:isolate;fill-rule:evenodd;stroke-width:0"/><path d="M177.4 105.85h3.98c-.23.59-.73.92-1.49.99-2 .33-3.98.66-5.97.99-7.21 1.74-14.51 3.07-21.88 3.98l-3.48-.99c3.01-.14 5.99-.47 8.95-.99 1.95.03 3.77-.3 5.47-.99 1.07-.45 2.23-.78 3.48-.99 3.72-.61 7.37-1.28 10.94-1.99Z" style="fill:#24384c;opacity:1;isolation:isolate;fill-rule:evenodd;stroke-width:0"/><path d="M153.53 109.33c1.43-.15 2.76.01 3.98.5-2.96.53-5.94.86-8.95.99 1.59-.74 3.24-1.23 4.97-1.49Z" style="fill:#806b4b;opacity:1;isolation:isolate;fill-rule:evenodd;stroke-width:0"/><path d="m173.92 107.84.99.99c-4.1.53-8.08 1.36-11.93 2.49-4.35.34-8.66 1-12.93 1.99-.5-.08-.99-.17-1.49-.25 1.21-.45 2.37-.86 3.48-1.24 7.37-.91 14.67-2.24 21.88-3.98Z" style="fill:#7c9fb5;fill-rule:evenodd;stroke-width:0"/><path d="M123.2 109.83c-.33.66-.83 1.16-1.49 1.49 0-.99.5-1.49 1.49-1.49Z" style="fill:#818d9b;fill-rule:evenodd;stroke-width:0"/><path d="M18.78 109.33c.46.53.63 1.19.5 1.99.95.14 1.78-.02 2.49-.5 3.16-.25 6.31-.58 9.45-.99-3.65 1-7.29 2.16-10.94 3.48-.57-.16-.98-.49-1.24-.99-.25-.98-.33-1.98-.25-2.98Z" style="fill:#31778c;fill-rule:evenodd;stroke-width:0"/><path d="M120.22 111.82v3.48h-1.49c.61-.75.61-1.5 0-2.24a29.69 29.69 0 0 1-5.47-.75c2.31-.25 4.63-.41 6.96-.5Z" style="fill:#586071;fill-rule:evenodd;stroke-width:0"/><path d="M80.98 109.95h2.95c.65.49.65.98 0 1.47a298.508 298.508 0 0 0-32.41 8.84c-1.34-.22-2.65-.55-3.93-.98a56.76 56.76 0 0 1 9.82-3.68c7.89-2.05 15.74-3.94 23.57-5.65Z" style="fill:#74737e;fill-rule:evenodd;stroke-width:0"/><path d="M182.38 109.33c.8.89 1.55 1.89 2.24 2.98.25.81.33 1.64.25 2.49.87 1.93.54 3.59-.99 4.97-.33.5-.66.99-.99 1.49-1.97.33-3.96.49-5.97.5v1.49h-1.49c.11-.58-.06-1.08-.5-1.49-1.11.8-2.27 1.46-3.48 1.99.59-1.67 1.5-3.16 2.73-4.48.33-.5.33-.99 0-1.49a37.793 37.793 0 0 0-3.98 4.48c-.14-.46-.39-.79-.75-.99h-.99c-.76 1.19-1.25 2.51-1.49 3.98-1.35-.04-2.67-.2-3.98-.5-.62-1.94-1.2-3.92-1.74-5.97a52.85 52.85 0 0 0-1.74 6.96c-8.88 1.93-17.66 4.08-26.35 6.46v-5.97c1.35-1.05 2.76-2.05 4.23-2.98.38-.78.3-1.44-.25-1.99-3.16.42-6.31.91-9.45 1.49v-.5c2.05-.96 4.2-1.71 6.46-2.24 8.29-1.58 16.58-3.32 24.86-5.22 1.21-.07 1.55.34.99 1.24-1.49.41-2.98.83-4.48 1.24 3.78.82 6.93-.26 9.45-3.23 1.36-.21 2.68-.54 3.98-.99-2.67-.03-5.32.22-7.96.75.08-.66-.08-1.24-.5-1.74.94-.1 1.76-.35 2.49-.75 3.86-1.13 7.83-1.96 11.93-2.49 1.22-.36 2.46-.69 3.73-.99 1.23.57 2.47 1.07 3.73 1.49Z" style="fill:#0d1327;opacity:1;isolation:isolate;fill-rule:evenodd;stroke-width:0"/><path d="M179.39 112.31c1.23.55 1.72 1.54 1.49 2.98-2.2-.1-4.35.15-6.46.75-1.54 1.65-2.04 1.4-1.49-.75a8.113 8.113 0 0 0 2.49-2.98c1.32-.55 2.65-.55 3.98 0Z" style="fill:#3193a8;fill-rule:evenodd;stroke-width:0"/><path d="M179.39 112.31c-1.33-.55-2.66-.55-3.98 0-.6 1.21-1.43 2.21-2.49 2.98.21-.79.54-1.54.99-2.24-.2-.47-.53-.8-.99-.99 2.07-.83 4.23-1.24 6.46-1.24v1.49Z" style="fill:#2c7085;fill-rule:evenodd;stroke-width:0"/><path d="M129.67 115.3c-2.17.04-4.32.21-6.46.5-.07-.37.02-.7.25-.99.64.64 1.22.64 1.74 0a96.33 96.33 0 0 1 8.45-1.49c.33.17.66.33.99.5-1.72.5-3.37 1-4.97 1.49Z" style="fill:#755d45;fill-rule:evenodd;stroke-width:0"/><path d="M159 114.8c.66-.33 1.33-.66 1.99-.99 2.64-.52 5.29-.77 7.96-.75-1.29.46-2.62.79-3.98.99-2.52 2.97-5.67 4.05-9.45 3.23 1.49-.41 2.98-.83 4.48-1.24.55-.9.22-1.32-.99-1.24Z" style="fill:#4f545e;opacity:.99;isolation:isolate;fill-rule:evenodd;stroke-width:0"/><path d="M34.19 114.3c.89.8 1.39 1.87 1.49 3.23-.17.51-.5.76-.99.75-2.28-.39-4.6-.63-6.96-.75 2-1.43 4.16-2.51 6.46-3.23Z" style="fill:#d4dadc;fill-rule:evenodd;stroke-width:0"/><path d="M40.16 111.82c0 1.51-.17 3.01-.5 4.48-.7-1.35-1.03-2.84-.99-4.48h1.49Z" style="fill:#7f8088;fill-rule:evenodd;stroke-width:0"/><path d="M123.7 112.81c0 .66.33.99.99.99-.76.71-.6 1.04.5.99-.52.64-1.1.64-1.74 0-.23.3-.31.63-.25.99h-.99c-.06-1.35.44-2.35 1.49-2.98Z" style="fill:#606263;fill-rule:evenodd;stroke-width:0"/><path d="M118.73 115.3h1.49c.48.99 1.15 1.16 1.99.5h.99c2.14-.29 4.3-.45 6.46-.5 1.9.41 3.88.66 5.97.75-.7.2-1.36.45-1.99.75-.56-.33-1.22-.49-1.99-.5-3.93.39-7.74 1.06-11.44 1.99-10.33 1.55-20.6 3.37-30.83 5.47-.22.03-.38-.05-.5-.25.41-.45.91-.79 1.49-.99-1.43-.4-2.75-.32-3.98.25-8.49 1.35-16.94 2.92-25.36 4.72 3.98.18 7.96.09 11.93-.25.64-.12 1.14.05 1.49.5-.66.33-1.16.83-1.49 1.49-1.52.83-3.17 1.17-4.97.99-3.94-.32-7.92-.9-11.93-1.74.77-.36 1.27-.94 1.49-1.74h.5c1.58-.38 3.07-.88 4.48-1.49 10.58-1.9 21.19-3.64 31.82-5.22-1.26-.09-2.42-.34-3.48-.75 4.85-1.06 9.82-1.73 14.92-1.99 1.46.45 2.95.78 4.48.99v-1.49c2.75-.54 5.56-1.04 8.45-1.49Z" style="fill:#24374a;opacity:1;isolation:isolate;fill-rule:evenodd;stroke-width:0"/><path d="M34.19 114.3c-2.31.72-4.46 1.8-6.46 3.23 2.36.11 4.68.36 6.96.75v.99c-3.66-.16-7.31 0-10.94.5.23.4.56.56.99.5-1.16.61-2.4 1.1-3.73 1.49-.81 2.67-1.39 5.32-1.74 7.96v-4.97c-1.64-.43-3.29-.77-4.97-.99-.3 1.82-.39 3.64-.25 5.47.71 1 1.62 1.74 2.73 2.24.47.34.8.26.99-.25.58-.11 1.08.06 1.49.5-.55.34-1.05.67-1.49.99-1.71-.79-3.54-1.29-5.47-1.49-.1 1.22.07 2.38.5 3.48-.49.09-.82-.08-.99-.5-.2-4.19.13-8.34.99-12.43.71-1.87 2.04-3.03 3.98-3.48.4-.77.56-1.6.5-2.49 7.38-2.4 14.92-4.39 22.63-5.97.25.08.5.17.75.25a40.2 40.2 0 0 1-5.97 1.99c-.44.67-.6 1.42-.5 2.24Z" style="opacity:1;fill:#4d7b8d;isolation:isolate;fill-rule:evenodd;stroke-width:0"/><path d="M16.79 118.28c3.47-1.24 6.95-2.07 10.44-2.49-3.18 2.66-6.66 3.49-10.44 2.49Z" style="fill:#53cbda;fill-rule:evenodd;stroke-width:0"/><path d="M105.8 117.29c1.39-.49 2.88-.65 4.48-.5v1.49a28.42 28.42 0 0 1-4.48-.99Z" style="fill:#78777b;fill-rule:evenodd;stroke-width:0"/><path d="M191.33 109.83h.5c-.76 8.01-2.75 15.63-5.97 22.87.08-.68 0-1.35-.25-1.99-.19.28-.44.44-.75.5.03-.55.19-1.05.5-1.49.78-.8 1.11-1.79.99-2.98.55-1.04.88-2.2.99-3.48.33 0 .5-.17.5-.5.51-1.22.84-2.55.99-3.98-1.61.54-3.27.87-4.97.99 1.54-1.39 1.87-3.05.99-4.97h.99c.36 1.76 1.02 2.09 1.99.99.34.83 1 1.17 1.99.99.22-2.42.72-4.74 1.49-6.96Z" style="fill:#212637;opacity:1;isolation:isolate;fill-rule:evenodd;stroke-width:0"/><path d="m133.64 116.79-12.93 2.49c.09-.49-.08-.82-.5-.99 3.7-.93 7.51-1.6 11.44-1.99.77 0 1.43.17 1.99.5Z" style="fill:#81a9bd;opacity:1;isolation:isolate;fill-rule:evenodd;stroke-width:0"/><path d="m6.84 123.25-.99-.99" style="fill:#815e38;fill-rule:evenodd;stroke-width:0"/><path d="M34.69 119.27c1.07.29 1.24.87.5 1.74-1.64-.02-3.3-.11-4.97-.25-.88-.48-1.87-.64-2.98-.5h-2.49c-.44.07-.77-.1-.99-.5 3.63-.5 7.28-.66 10.94-.5Z" style="fill:#d5d8db;fill-rule:evenodd;stroke-width:0"/><path d="M171.44 123.75c-1.48-.14-2.15-.97-1.99-2.49.36.21.61.54.75.99 1.21-1.61 2.54-3.1 3.98-4.48.33.5.33.99 0 1.49-1.23 1.31-2.15 2.8-2.73 4.48Z" style="fill:#273850;fill-rule:evenodd;stroke-width:0"/><path d="M187.85 122.76c-.27-.8-.43-1.63-.5-2.49-1.61-.04-3.1.29-4.48.99.33-.5.66-.99.99-1.49 1.71-.13 3.36-.46 4.97-.99a14.17 14.17 0 0 1-.99 3.98Z" style="fill:#7d99a5;fill-rule:evenodd;stroke-width:0"/><path d="M27.23 120.27c1.11-.15 2.11.02 2.98.5-.66 0-.99.33-.99.99h-2.98c.52-.36.85-.86.99-1.49Z" style="fill:#6b6b73;fill-rule:evenodd;stroke-width:0"/><path d="M58.06 126.73h-.5a24.03 24.03 0 0 0-5.72 4.48c-.24.64-.33 1.31-.25 1.99-.7 1.7-1.2 3.53-1.49 5.47-.29-.1-.54-.27-.75-.5-.04-1.56.04-3.13.25-4.72.1-1.43-.23-2.67-.99-3.73-.3-1.13-.97-1.96-1.99-2.49-.63-2.22-2.12-3.38-4.48-3.48-.88-.4-1.7-.9-2.49-1.49-.15-.32-.32-.65-.5-.99 1.63-.58 3.29-.66 4.97-.25 4.65 1.25 9.29 2.49 13.92 3.73v1.99Z" style="fill:#ccd9e2;fill-rule:evenodd;stroke-width:0"/><path d="M42.15 119.27a703.08 703.08 0 0 0 20.39 5.47v.5c-1.41.61-2.9 1.11-4.48 1.49v-1.99c-4.63-1.24-9.27-2.48-13.92-3.73a8.513 8.513 0 0 0-4.97.25c.18.34.35.67.5.99-.83-.34-1.17-1-.99-1.99 1.44.25 2.6-.08 3.48-.99Z" style="fill:#999da4;fill-rule:evenodd;stroke-width:0"/><path d="M120.22 118.28c.42.17.58.5.5.99-8.42 1.98-16.87 3.81-25.36 5.47-6.58 1.13-13.13 2.45-19.64 3.98-1.17.09-1.42-.24-.75-.99 4.85-1.34 9.66-2.67 14.42-3.98 10.23-2.1 20.5-3.92 30.83-5.47Z" style="fill:#c3dde3;fill-rule:evenodd;stroke-width:0"/><path d="M28.23 122.26v-.5h.99c4.05.51 8.02 1.34 11.93 2.49.58.42 1.25.75 1.99.99 0 .33-.17.5-.5.5-4.76-1.4-9.57-2.56-14.42-3.48Z" style="fill:#b2a9a2;fill-rule:evenodd;stroke-width:0"/><path d="M168.45 121.26c.24 1.7-.26 3.03-1.49 3.98.24-1.46.74-2.79 1.49-3.98Z" style="fill:#2c5267;opacity:.96;isolation:isolate;fill-rule:evenodd;stroke-width:0"/><path d="M90.88 119.27c1.06.4 2.22.65 3.48.75a1059.6 1059.6 0 0 0-31.82 5.22v-.5c9.18-2.9 18.63-4.72 28.34-5.47Z" style="fill:#757675;fill-rule:evenodd;stroke-width:0"/><path d="M187.85 122.76c0 .33-.17.5-.5.5-2.33.17-4.65.42-6.96.75-4.14 1.44-8.28 2.76-12.43 3.98 1.14.41 2.3.74 3.48.99-3.44.03-6.75.45-9.95 1.24-2.32 1.19-4.8 1.93-7.46 2.24a70.14 70.14 0 0 0-6.96 3.73c-6.45-.53-12.42.8-17.9 3.98-2.98 1.33-5.97 2.65-8.95 3.98.04-.62.37-1.04.99-1.24-.62-.12-1.11-.36-1.49-.75h2.49a5.548 5.548 0 0 0-1.49-3.48c.08-.17.17-.33.25-.5.52.6 1.1 1.1 1.74 1.49h.99c.55.55 1.21.63 1.99.25 1.94-1.7 3.93-3.27 5.97-4.72.42-.17.58-.5.5-.99h.5c3.09-.3 6.16.03 9.2.99 2.61-.71 5.18-1.54 7.71-2.49.33-.99.66-1.99.99-2.98 2.41 1.26 4.73 1.09 6.96-.5 3.17-1.33 6.32-2.66 9.45-3.98 1.23-.95 1.73-2.28 1.49-3.98h.99c-.16 1.51.51 2.34 1.99 2.49 4.07.5 7.89-.33 11.44-2.49 1.37-.71 2.86-1.04 4.48-.99.06.85.23 1.68.5 2.49Z" style="fill:#99c6cf;opacity:1;isolation:isolate;fill-rule:evenodd;stroke-width:0"/><path d="M182.87 121.26c-3.55 2.16-7.36 2.99-11.44 2.49 1.21-.53 2.37-1.19 3.48-1.99.44.41.61.91.5 1.49h1.49v-1.49c2.01 0 3.99-.17 5.97-.5Z" style="fill:#36546e;fill-rule:evenodd;stroke-width:0"/><path d="M166.96 125.24c-3.13 1.32-6.28 2.65-9.45 3.98.65-1.15 1.31-2.31 1.99-3.48.42-2.35 1-4.67 1.74-6.96.54 2.04 1.12 4.03 1.74 5.97 1.31.29 2.63.46 3.98.5Z" style="fill:#315f76;opacity:1;isolation:isolate;fill-rule:evenodd;stroke-width:0"/><path d="M9.33 123.25h.5c.3.99.8 1.15 1.49.5v1.49c-.77.16-1.1.66-.99 1.49" style="fill:#3d2a23;opacity:1;isolation:isolate;fill-rule:evenodd;stroke-width:0"/><path d="M192.32 115.3c-1.44 6.58-3.26 13.05-5.47 19.39-.83-.34-1.17-1-.99-1.99 3.22-7.24 5.21-14.87 5.97-22.87" style="fill:#b9af9c;fill-rule:evenodd;stroke-width:0"/><path d="M19.27 129.72c-1.28.05-2.44-.28-3.48-.99-.42-1.53-.58-3.02-.5-4.48-.43 1.05-.76 2.13-.99 3.23.2.99.7 1.73 1.49 2.24.66.5 1.33.99 1.99 1.49-.2.51-.53.59-.99.25a6.489 6.489 0 0 1-2.73-2.24c-.14-1.82-.06-3.65.25-5.47 1.68.23 3.34.56 4.97.99v4.97Z" style="fill:#9099ac;fill-rule:evenodd;stroke-width:0"/><path d="M15.79 128.72v.99c-.8-.51-1.29-1.25-1.49-2.24.24-1.11.57-2.18.99-3.23-.09 1.45.08 2.95.5 4.48Z" style="fill:#606678;fill-rule:evenodd;stroke-width:0"/><path d="M28.23 122.26c4.85.92 9.66 2.08 14.42 3.48.63.49 1.29.98 1.99 1.49-.06.3-.23.47-.5.5-5.36-2.4-11-3.73-16.91-3.98-1.12-.85-.79-1.34.99-1.49Z" style="fill:#6f5c45;fill-rule:evenodd;stroke-width:0"/><path d="M42.15 123.75c2.36.1 3.85 1.26 4.48 3.48-1.15-.65-2.31-1.31-3.48-1.99-.74-.24-1.41-.57-1.99-.99.49.09.82-.08.99-.5Z" style="fill:#696670;opacity:.99;isolation:isolate;fill-rule:evenodd;stroke-width:0"/><path d="M45.63 129.72c.32-.15.65-.32.99-.5.4.78.65 1.61.75 2.49.14-.46.39-.79.75-.99-.3 5.3-.46 10.6-.5 15.91l-.99.99c-1.14.24-2.13.73-2.98 1.49-7.73-1.27-15.36-3.01-22.87-5.22-.44-.35-.77-.77-.99-1.24.5-5.12 1.16-10.25 1.99-15.42-.14-.92.19-1.58.99-1.99a524.44 524.44 0 0 0 21.88 4.97c.46-.02.79-.19.99-.5Z" style="fill:#5a4334;opacity:1;isolation:isolate;fill-rule:evenodd;stroke-width:0"/><path d="M26.24 121.76h1.99v.5c-1.79.15-2.12.64-.99 1.49-1.53-.16-3.02 0-4.48.5 6.98.57 13.7 2.06 20.14 4.48.53-.01.95-.18 1.24-.5.99 0 1.49.5 1.49 1.49-.21.31-.54.48-.99.5-7.33-1.5-14.62-3.16-21.88-4.97-.8.41-1.13 1.07-.99 1.99-.47-.71-.64-1.53-.5-2.49.17-.99.33-1.99.5-2.98h4.48Z" style="fill:#b69463;opacity:1;isolation:isolate;fill-rule:evenodd;stroke-width:0"/><path d="M27.23 123.75a45.8 45.8 0 0 1 16.91 3.98v.5c-.3.32-.71.48-1.24.5-6.44-2.42-13.15-3.91-20.14-4.48 1.46-.49 2.95-.65 4.48-.5Z" style="fill:#e1c485;fill-rule:evenodd;stroke-width:0"/><path d="M86.4 122.76c1.23-.56 2.55-.65 3.98-.25-.58.21-1.08.54-1.49.99.11.2.28.28.5.25-4.77 1.31-9.57 2.64-14.42 3.98h-.5c-.35-.45-.85-.62-1.49-.5 5.01-1.64 10.15-3.05 15.42-4.23-.64-.24-1.31-.33-1.99-.25Z" style="fill:#314a60;fill-rule:evenodd;stroke-width:0"/><path d="M127.68 122.26c-8.54 1.93-17 4.08-25.36 6.46 1.37-.73 1.21-1.06-.5-.99 7.78-1.65 15.57-3.56 23.37-5.72.94-.39 1.77-.3 2.49.25Z" style="fill:#234f65;fill-rule:evenodd;stroke-width:0"/><path d="M159.5 125.74c-.68 1.17-1.34 2.33-1.99 3.48-2.23 1.59-4.55 1.75-6.96.5-.33.99-.66 1.99-.99 2.98-2.53.94-5.1 1.77-7.71 2.49-3.04-.97-6.11-1.3-9.2-.99.36-.6.53-1.26.5-1.99 8.7-2.38 17.48-4.54 26.35-6.46Z" style="fill:#0a415c;fill-rule:evenodd;stroke-width:0"/><path d="M86.4 122.76c.68-.08 1.35 0 1.99.25a168.15 168.15 0 0 0-15.42 4.23c-3.98.34-7.95.43-11.93.25 8.42-1.8 16.87-3.37 25.36-4.72Z" style="fill:#72bad2;fill-rule:evenodd;stroke-width:0"/><path d="M95.36 124.74c-5.29 1.54-10.6 3.2-15.91 4.97-2.32.15-4.56.64-6.71 1.49-.29-.71-.2-1.37.25-1.99.33-.66.83-1.16 1.49-1.49h.5c-.68.75-.43 1.08.75.99 6.52-1.53 13.06-2.85 19.64-3.98Z" style="fill:#6eb8c8;fill-rule:evenodd;stroke-width:0"/><path d="M186.35 126.73c.12 1.19-.21 2.19-.99 2.98-1.96-.74-3.95-1.57-5.97-2.49 2.05-.35 4.12-.68 6.22-.99.38.03.63.2.75.5Z" style="fill:#5eadba;fill-rule:evenodd;stroke-width:0"/><path d="M43.14 125.24c1.17.68 2.33 1.34 3.48 1.99 1.02.53 1.69 1.36 1.99 2.49-.42.17-.58.5-.5.99-.36.21-.61.54-.75.99-.1-.87-.35-1.7-.75-2.49-.34.18-.67.35-.99.5 0-.99-.5-1.49-1.49-1.49v-.5c.27-.03.44-.2.5-.5-.7-.51-1.36-1-1.99-1.49.33 0 .5-.17.5-.5Z" style="fill:#9f8769;fill-rule:evenodd;stroke-width:0"/><path d="M101.82 127.73c1.7-.07 1.87.27.5.99-.58-.11-1.08.06-1.49.5 2.45.56 4.6 1.64 6.46 3.23-5.39.54-10.19 2.45-14.42 5.72-.46-.79-.46-1.62 0-2.49 1.44-1.38 2.76-2.87 3.98-4.48.3-.44.47-.94.5-1.49v-.5c1.56-.43 3.05-.92 4.48-1.49Z" style="fill:#2892a8;opacity:1;isolation:isolate;fill-rule:evenodd;stroke-width:0"/><path d="M24.74 120.27h2.49a2.35 2.35 0 0 1-.99 1.49h-4.48c-.17.99-.33 1.99-.5 2.98a89.41 89.41 0 0 0-1.49 17.9c.23.48.56.89.99 1.24 7.52 2.21 15.14 3.95 22.87 5.22v.99c-2.5-.06-4.98-.22-7.46-.5-.06-.31-.22-.56-.5-.75-1.15-.25-2.31-.33-3.48-.25-1.2-.63-2.52-.96-3.98-.99-1.41-.61-2.9-1.11-4.48-1.49a22.06 22.06 0 0 0-3.98-1.74c-.4-.55-.73-1.13-.99-1.74.66-1.99.66-3.98 0-5.97.18-1.51-.15-2.83-.99-3.98.45-.33.94-.66 1.49-.99-.41-.44-.91-.61-1.49-.5-.66-.5-1.33-.99-1.99-1.49v-.99c1.04.72 2.2 1.05 3.48.99.35-2.63.93-5.29 1.74-7.96 1.33-.39 2.57-.89 3.73-1.49Z" style="fill:#212636;fill-rule:evenodd;stroke-width:0"/><path d="M57.56 126.73c-.22.8-.72 1.38-1.49 1.74 4.01.84 7.99 1.42 11.93 1.74-4.08.29-8.06-.04-11.93-.99-.7.51-1.36 1-1.99 1.49-1.34.35-2.17 1.18-2.49 2.49-.08-.68 0-1.35.25-1.99 1.71-1.8 3.62-3.29 5.72-4.48Z" style="fill:#3b7791;fill-rule:evenodd;stroke-width:0"/><path d="M180.88 129.22c.6.36 1.26.53 1.99.5.02 1.39-.64 2.3-1.99 2.73-2.15.29-4.31.54-6.46.75-1.78-.8-3.77-1.3-5.97-1.49 4.11-1.29 8.25-2.11 12.43-2.49Z" style="opacity:1;fill:#48b4c6;isolation:isolate;fill-rule:evenodd;stroke-width:0"/><path d="M179.39 127.23c2.02.91 4.01 1.74 5.97 2.49-.3.44-.47.94-.5 1.49-3.72 2.77-7.86 3.76-12.43 2.98.72-.33 1.38-.67 1.99-.99 2.16-.21 4.31-.46 6.46-.75 1.35-.44 2.01-1.35 1.99-2.73-.73.03-1.39-.13-1.99-.5-.88-.48-1.87-.64-2.98-.5v-1.49h1.49Z" style="fill:#9fd8df;fill-rule:evenodd;stroke-width:0"/><path d="M187.85 134.69h-.99c2.21-6.34 4.03-12.81 5.47-19.39" style="fill:#9a7951;fill-rule:evenodd;stroke-width:0"/><path d="M48.61 129.72c-.13 5.64-.29 11.27-.5 16.91h-.5c.03-5.31.2-10.61.5-15.91-.09-.49.08-.82.5-.99Z" style="fill:#504a47;fill-rule:evenodd;stroke-width:0"/><path d="M68.01 130.21c1.8.17 3.45-.16 4.97-.99-.45.62-.54 1.28-.25 1.99a21.71 21.71 0 0 1 6.71-1.49c-2.52 1.84-5.34 3-8.45 3.48-5.04-.82-10.18-1.4-15.42-1.74-.62-.12-1.11-.36-1.49-.75.63-.49 1.29-.98 1.99-1.49 3.88.96 7.85 1.29 11.93.99Z" style="fill:#349bb0;fill-rule:evenodd;stroke-width:0"/><path d="M97.34 129.22v.5a23.53 23.53 0 0 1-7.46 1.24c2.48-.66 4.96-1.24 7.46-1.74Z" style="fill:#2c647a;fill-rule:evenodd;stroke-width:0"/><path d="M17.78 132.7c.85 1.14 1.18 2.47.99 3.98-1.69.7-3.18.36-4.48-.99-.24-.7-.73-1.03-1.49-.99-.43-1.1-.6-2.26-.5-3.48 1.93.2 3.76.7 5.47 1.49Z" style="fill:#48b3cd;opacity:1;isolation:isolate;fill-rule:evenodd;stroke-width:0"/><path d="M54.08 130.71c.38.38.88.63 1.49.75 5.24.34 10.38.92 15.42 1.74-1.34-.08-2.66 0-3.98.25.62.12 1.11.36 1.49.75a48.31 48.31 0 0 0-12.93-.75c-1.26.95-1.1 1.7.5 2.24.13 1.77 1.12 2.44 2.98 1.99v.5c-1.05.48-2.21.65-3.48.5-.84-.81-1.34-.64-1.49.5 1.87.64 3.86.98 5.97.99-.35.45-.85.62-1.49.5-2.01-.09-4-.17-5.97-.25-1.23 1.32-1.23 2.56 0 3.73-.59.23-.92.73-.99 1.49.11.85.28 1.68.5 2.49-.55-.03-1.05-.19-1.49-.5-.06-4.84.27-9.65.99-14.42.31-1.31 1.14-2.14 2.49-2.49Z" style="fill:#1c374d;fill-rule:evenodd;stroke-width:0"/><path d="M96.85 131.21c-1.21 1.61-2.54 3.1-3.98 4.48.76-2.02 2.08-3.51 3.98-4.48Z" style="fill:#1f6076;fill-rule:evenodd;stroke-width:0"/><path d="M161.49 130.21c.91.07 1.08.4.5.99-1.48.83-2.97 1.49-4.48 1.99-.93.33-1.92.66-2.98.99 3.73.4 7.38.9 10.94 1.49-.68.64-1.59.97-2.73.99-1.66-.14-3.32-.3-4.97-.5-4.29.7-8.52 1.37-12.68 1.99-3.96.49-7.78 1.56-11.44 3.23-1.68.41-3.34.33-4.97-.25.18-.34.35-.67.5-.99a176.16 176.16 0 0 1 17.9-3.98 70.14 70.14 0 0 1 6.96-3.73c2.66-.31 5.14-1.05 7.46-2.24Z" style="fill:#297f94;opacity:1;isolation:isolate;fill-rule:evenodd;stroke-width:0"/><path d="M68.5 134.19c.53.46 1.19.63 1.99.5v1.49a3.5 3.5 0 0 0-1.99-.5c-4.18-.96-8.33-1.29-12.43-.99v.99c-1.59-.54-1.76-1.29-.5-2.24 4.35-.33 8.66-.09 12.93.75Z" style="fill:#728190;fill-rule:evenodd;stroke-width:0"/><path d="M157.51 133.2c5.32-.07 10.29 1.17 14.92 3.73-2.36-.09-4.68-.51-6.96-1.24-3.56-.6-7.21-1.09-10.94-1.49 1.06-.33 2.05-.66 2.98-.99Z" style="fill:#a3d8df;opacity:1;isolation:isolate;fill-rule:evenodd;stroke-width:0"/><path d="M12.81 134.69c.76-.04 1.26.3 1.49.99-.76.04-1.26-.3-1.49-.99Z" style="fill:#2c627a;fill-rule:evenodd;stroke-width:0"/><path d="M185.86 132.7c-.17.99.16 1.65.99 1.99h.99c-.71.47-1.53.64-2.49.5-.14-.95.02-1.78.5-2.49Z" style="fill:#73645b;fill-rule:evenodd;stroke-width:0"/><path d="M56.07 134.69c4.11-.3 8.25.03 12.43.99.32.49.65.99.99 1.49-.41.17-.83.33-1.24.5-1.36-.56-2.77-.89-4.23-.99v1.49h-4.97v-.5c1.01.08 2 0 2.98-.25-1.14-.41-2.3-.74-3.48-.99-.42-.5-.58-1.08-.5-1.74h-1.99Z" style="fill:#86939d;opacity:.99;isolation:isolate;fill-rule:evenodd;stroke-width:0"/><path d="M28.23 134.19c.33 1.15.5 2.39.5 3.73.1 1.84-.24 3.58-.99 5.22l-.5-.5c.38-2.81.71-5.63.99-8.45Z" style="fill:#9d7c5f;opacity:1;isolation:isolate;fill-rule:evenodd;stroke-width:0"/><path d="M21.26 124.74c-.14.95.02 1.78.5 2.49-.83 5.16-1.49 10.3-1.99 15.42-.09-6.09.4-12.06 1.49-17.9Z" style="fill:#978066;opacity:1;isolation:isolate;fill-rule:evenodd;stroke-width:0"/><path d="M56.07 134.69h1.99c-.08.66.08 1.24.5 1.74 1.18.25 2.34.59 3.48.99-.98.25-1.98.33-2.98.25-1.86.45-2.85-.21-2.98-1.99v-.99Z" style="fill:#b4bfc6;fill-rule:evenodd;stroke-width:0"/><path d="M185.86 136.68c.85.06 1.68.23 2.49.5.17.33.33.66.5.99v1.49h-4.48c1.23-.41 2.55-.65 3.98-.75-.59-.54-1.26-.96-1.99-1.24-.17-.33-.33-.66-.5-.99Z" style="fill:#6ea5b3;fill-rule:evenodd;stroke-width:0"/><path d="M12.31 139.16c-.39-.55-.64-1.21-.75-1.99-.19.28-.44.44-.75.5.16-.77.66-1.1 1.49-.99v2.49Z" style="fill:#6e7f8e;fill-rule:evenodd;stroke-width:0"/><path d="M185.36 136.68h.5c.17.33.33.66.5.99a37.6 37.6 0 0 0-12.93 1.99 63.82 63.82 0 0 1-13.43-1.49c2.9-.35 5.8-.19 8.7.5a78.54 78.54 0 0 1 16.66-1.99Z" style="fill:#a9d9e1;fill-rule:evenodd;stroke-width:0"/><path d="M186.35 137.67c.73.28 1.4.7 1.99 1.24-1.42.09-2.75.34-3.98.75-4.16-.24-8.22.26-12.18 1.49-.58-.17-1.16-.33-1.74-.5 1.06-.33 2.05-.66 2.98-.99a37.6 37.6 0 0 1 12.93-1.99Z" style="fill:#2d7e95;opacity:1;isolation:isolate;fill-rule:evenodd;stroke-width:0"/><path d="M55.57 138.67c-.35.45-.85.62-1.49.5.15-1.14.65-1.31 1.49-.5Z" style="fill:#aab7c0;fill-rule:evenodd;stroke-width:0"/><path d="M68.5 135.68c.73-.03 1.39.13 1.99.5.66.83.66 1.66 0 2.49-2.2.13-4.36-.03-6.46-.5v-1.49c1.46.11 2.87.44 4.23.99.41-.17.83-.33 1.24-.5-.34-.51-.68-1-.99-1.49Z" style="fill:#a9b4bd;fill-rule:evenodd;stroke-width:0"/><path d="M188.34 137.18c1.17.42 2.16 1.08 2.98 1.99-.89-.2-1.72-.53-2.49-.99-.17-.33-.33-.66-.5-.99Z" style="fill:#36697d;opacity:.99;isolation:isolate;fill-rule:evenodd;stroke-width:0"/><path d="M48.61 129.72c.76 1.06 1.09 2.3.99 3.73-.21 1.59-.29 3.16-.25 4.72.21.23.45.39.75.5.3-1.94.79-3.77 1.49-5.47a89.09 89.09 0 0 0-.99 14.42c-.64-.73-1.46-1.06-2.49-.99.2-5.63.37-11.27.5-16.91Z" style="fill:#83a1b1;fill-rule:evenodd;stroke-width:0"/><path d="M131.66 135.19a77.18 77.18 0 0 0-5.97 4.72c-.78.38-1.44.3-1.99-.25.52.07 1.02 0 1.49-.25 1.84-1.91 4-3.32 6.46-4.23Z" style="fill:#537787;fill-rule:evenodd;stroke-width:0"/><path d="M147.07 136.18c-5.98 1-11.94 2.33-17.9 3.98 5.48-3.18 11.45-4.5 17.9-3.98Z" style="fill:#4293a5;opacity:.99;isolation:isolate;fill-rule:evenodd;stroke-width:0"/><path d="M145.08 138.17c4.33-.1 8.64.15 12.93.75-3.46.82-6.94.9-10.44.25l-2.49-.99Z" style="fill:#95d1da;fill-rule:evenodd;stroke-width:0"/><path d="M59.06 138.17h4.97c2.11.47 4.26.63 6.46.5-.56.57-.56 1.07 0 1.49-.89.4-1.89.65-2.98.75 1.58-.03 2.9.39 3.98 1.24-.89-.61-1.72-.61-2.49 0-3.6-.14-7.08-.64-10.44-1.49.64.12 1.14-.05 1.49-.5-2.1-.02-4.09-.35-5.97-.99.64.12 1.14-.05 1.49-.5 1.27.15 2.43-.02 3.48-.5Z" style="fill:#2f4458;fill-rule:evenodd;stroke-width:0"/><path d="m10.82 137.67-.99 2.49c-1.47.65-2.13 1.81-1.99 3.48h-.99c.38-1.29.55-2.62.5-3.98 1.39-.23 2.55-.89 3.48-1.99Z" style="opacity:.98;fill:#98aeb6;isolation:isolate;fill-rule:evenodd;stroke-width:0"/><path d="M147.57 139.16c1.09.33 2.25.66 3.48.99-.25.71-.75 1.04-1.49.99-2.5.25-4.98.58-7.46.99a5.316 5.316 0 0 1-2.98-.99l.5-.5a29.72 29.72 0 0 1 7.96-1.49Z" style="fill:#177890;fill-rule:evenodd;stroke-width:0"/><path d="M187.35 123.25c-.11 1.28-.44 2.44-.99 3.48-.12-.3-.37-.46-.75-.5-2.09.32-4.17.65-6.22.99h-1.49v1.49c1.11-.15 2.11.02 2.98.5-4.18.37-8.33 1.2-12.43 2.49 2.2.19 4.18.69 5.97 1.49-.61.33-1.27.66-1.99.99 4.57.78 8.71-.22 12.43-2.98-.55.9-.89 1.89-.99 2.98.13 1.09.63 1.92 1.49 2.49-5.62.07-11.17.73-16.66 1.99-2.9-.69-5.8-.85-8.7-.5 4.42.97 8.89 1.47 13.43 1.49-.93.33-1.92.66-2.98.99.58.17 1.16.33 1.74.5a33.89 33.89 0 0 1 12.18-1.49 74.16 74.16 0 0 1-12.18 3.48c-3.03-.79-6.1-1.04-9.2-.75 7.29 2.3 14.58 2.3 21.88 0 1.86-1.25 3.85-2.16 5.97-2.73.11.58-.06 1.08-.5 1.49-1.71 1.68-3.7 2.84-5.97 3.48-2.97.99-5.96 1.65-8.95 1.99-4.11-.37-8.17-1.03-12.18-1.99-6.62.94-13.17 1.93-19.64 2.98-1.48.16-2.64-.34-3.48-1.49 2.21-.13 4.36-.54 6.46-1.24a81 81 0 0 0-8.95-.25c5.94-.24 11.91-.9 17.9-1.99-2.11-.28-4.1-.78-5.97-1.49.74.04 1.24-.29 1.49-.99-1.23-.33-2.39-.66-3.48-.99 3.5.65 6.98.57 10.44-.25-4.29-.6-8.6-.85-12.93-.75 4.16-.62 8.39-1.29 12.68-1.99 1.65.2 3.31.36 4.97.5 1.14-.02 2.05-.35 2.73-.99 2.28.74 4.6 1.15 6.96 1.24-4.63-2.56-9.6-3.8-14.92-3.73 1.5-.5 2.99-1.16 4.48-1.99.58-.59.42-.93-.5-.99 3.19-.8 6.51-1.21 9.95-1.24a28.14 28.14 0 0 1-3.48-.99c4.15-1.22 8.29-2.54 12.43-3.98 2.32-.33 4.64-.58 6.96-.75Z" style="fill:#3393a8;opacity:1;isolation:isolate;fill-rule:evenodd;stroke-width:0"/><path d="M46.62 136.18c.33.56.49 1.22.5 1.99-.3 2.65-.55 5.3-.75 7.96-.3-3.33-.22-6.64.25-9.95Z" style="fill:#9b6f3f;opacity:1;isolation:isolate;fill-rule:evenodd;stroke-width:0"/><path d="M60.05 140.16c.47-.32 1.05-.49 1.74-.5l5.22.75c-2.33.23-4.65.15-6.96-.25Z" style="fill:#9ba5b1;fill-rule:evenodd;stroke-width:0"/><path d="M71.49 142.15c-1.07-.86-2.4-1.27-3.98-1.24 1.1-.09 2.09-.34 2.98-.75.32-.15.65-.32.99-.5.64.89.64 1.72 0 2.49Z" style="opacity:.99;fill:#94a3b0;isolation:isolate;fill-rule:evenodd;stroke-width:0"/><path d="M122.7 139.66c-.64-.39-1.22-.89-1.74-1.49-.08.17-.17.33-.25.5.91.99 1.41 2.15 1.49 3.48h-2.49v-5.47c1.47.47 2.46 1.47 2.98 2.98Z" style="fill:#6796a5;fill-rule:evenodd;stroke-width:0"/><path d="m145.08 138.17 2.49.99c-2.74.14-5.39.63-7.96 1.49l-.5.5c.9.63 1.89.96 2.98.99-2.13.68-4.37 1.17-6.71 1.49-2.23-.35-4.47-.68-6.71-.99-3.08.94-6.15 1.94-9.2 2.98-.41-.17-.83-.33-1.24-.5.63-.43 1.29-.76 1.99-.99 2.98-1.33 5.97-2.65 8.95-3.98-.15.32-.32.65-.5.99 1.63.58 3.29.66 4.97.25 3.66-1.67 7.47-2.75 11.44-3.23Z" style="fill:#318fa5;fill-rule:evenodd;stroke-width:0"/><path d="M37.67 138.17c.32.3.48.71.5 1.24-.26 2.25-.59 4.49-.99 6.71-.17-.33-.33-.66-.5-.99.3-2.35.63-4.67.99-6.96Z" style="fill:#9b7b5b;opacity:1;isolation:isolate;fill-rule:evenodd;stroke-width:0"/><path d="M58.56 140.66c3.36.86 6.84 1.35 10.44 1.49.86.72 1.36 1.72 1.49 2.98-5.97.15-11.94-.18-17.9-.99-1.23-1.17-1.23-2.41 0-3.73 1.97.08 3.96.16 5.97.25Z" style="fill:#33a4ba;fill-rule:evenodd;stroke-width:0"/><path d="M9.83 140.16c-.11.58.06 1.08.5 1.49 1.95 1.39 4.1 2.05 6.46 1.99v1.49c-1.98.41-3.97.5-5.97.25-1.26-.21-2.25-.79-2.98-1.74-.14-1.67.52-2.83 1.99-3.48Z" style="fill:#4b9daa;opacity:1;isolation:isolate;fill-rule:evenodd;stroke-width:0"/><path d="M41.15 138.67c.32.3.48.71.5 1.24-.2 2.32-.62 4.56-1.24 6.71-.35-2.72-.1-5.37.75-7.96Z" style="fill:#92704b;opacity:.99;isolation:isolate;fill-rule:evenodd;stroke-width:0"/><path d="M104.31 142.65c-1.33 2.3-2.65 4.63-3.98 6.96-.66-1.99-1.33-3.98-1.99-5.97-.49 2.46-.66 4.95-.5 7.46-1.87.08-3.69.41-5.47.99-1.11-.81-1.28-1.81-.5-2.98a32.05 32.05 0 0 1 4.97-6.71c2.6-1.07 5.09-.98 7.46.25Z" style="fill:#0b213b;opacity:1;isolation:isolate;fill-rule:evenodd;stroke-width:0"/><path d="M188.84 138.17c.77.47 1.6.8 2.49.99.17.42.5.58.99.5.16.65.33 1.32.5 1.99-.62.91-.96 1.91-.99 2.98-1.68-.02-3.34.15-4.97.5-.71-.04-1.37.13-1.99.5-.4-.23-.56-.56-.5-.99 2.26-.64 4.25-1.8 5.97-3.48.44-.41.61-.91.5-1.49-2.12.57-4.11 1.48-5.97 2.73-7.3 2.3-14.59 2.3-21.88 0 3.1-.29 6.17-.05 9.2.75a73.88 73.88 0 0 0 12.18-3.48h4.48v-1.49Z" style="fill:#c7e3e6;fill-rule:evenodd;stroke-width:0"/><path d="M149.56 141.15c1.87.71 3.86 1.21 5.97 1.49-5.99 1.09-11.96 1.75-17.9 1.99a558.607 558.607 0 0 0-32.82 4.97v1.49c-.38-.21-.79-.38-1.24-.5-1.35.59-2.76.92-4.23.99 1.54-.73 3.03-1.56 4.48-2.49 3.5-.54 6.81-1.54 9.95-2.98h.5c1.62-.09 2.45-.92 2.49-2.49h-1.49c-.12-.64.05-1.14.5-1.49h3.98c.38.38.88.63 1.49.75-.62.21-.96.62-.99 1.24-.7.23-1.36.57-1.99.99.41.17.83.33 1.24.5 3.05-1.05 6.12-2.04 9.2-2.98 2.24.31 4.48.64 6.71.99 2.34-.32 4.58-.82 6.71-1.49 2.47-.41 4.96-.74 7.46-.99Z" style="fill:#96cbd8;opacity:1;isolation:isolate;fill-rule:evenodd;stroke-width:0"/><path d="M86.9 150.6c-.17-.42-.5-.58-.99-.5 1.49-1.98 2.73-4.13 3.73-6.46 1.18-1.67 2.5-3.16 3.98-4.48.25.17.5.33.75.5a40.65 40.65 0 0 0-7.46 10.94Z" style="fill:#294961;opacity:.99;isolation:isolate;fill-rule:evenodd;stroke-width:0"/><path d="M115.74 142.15c-.45.35-.62.85-.5 1.49h1.49c-.03 1.57-.86 2.4-2.49 2.49.13-2.02-.03-4.01-.5-5.97 1.36-.3 2.03.36 1.99 1.99Z" style="fill:#5c99ad;opacity:.99;isolation:isolate;fill-rule:evenodd;stroke-width:0"/><path d="M12.31 139.16c1.87 1.62 4.03 2.78 6.46 3.48.26.61.59 1.19.99 1.74 1.43.47 2.76 1.05 3.98 1.74-3.39.1-6.87.18-10.44.25-.75.74-1.16 1.65-1.24 2.73-.33-.37-.75-.54-1.24-.5-.2-.51-.53-.59-.99-.25-.4.55-.73 1.13-.99 1.74-.4 1.06-.65 2.22-.75 3.48a68.27 68.27 0 0 1-1.24-5.97c-.66-1.33-.66-2.65 0-3.98h.99c.73.95 1.73 1.53 2.98 1.74 2 .25 3.99.16 5.97-.25v-1.49c-2.36.06-4.52-.6-6.46-1.99-.44-.41-.61-.91-.5-1.49l.99-2.49c.31-.06.56-.22.75-.5.1.77.35 1.44.75 1.99Z" style="fill:#bad2d8;opacity:.99;isolation:isolate;fill-rule:evenodd;stroke-width:0"/><path d="M137.62 144.63a81 81 0 0 1 8.95.25c-2.1.7-4.26 1.12-6.46 1.24a509.53 509.53 0 0 0-33.32 4.97h-1.99v-1.49c10.89-1.98 21.83-3.64 32.82-4.97Z" style="fill:#287c93;opacity:1;isolation:isolate;fill-rule:evenodd;stroke-width:0"/><path d="M192.32 139.66c.31.06.56.22.75.5 1.1 3.97-.31 5.96-4.23 5.97h-2.49c.17-.33.33-.66.5-.99 1.63-.35 3.29-.52 4.97-.5.04-1.08.37-2.07.99-2.98-.17-.67-.34-1.33-.5-1.99Z" style="fill:#658a9a;fill-rule:evenodd;stroke-width:0"/><path d="M175.41 146.62c1.67-.08 3.32 0 4.97.25-.46.14-.79.39-.99.75-1.96.43-3.95.59-5.97.5-3.16.01-6.31-.15-9.45-.5-.99-.16-1.98-.33-2.98-.5-3.79.74-7.6 1.32-11.44 1.74-1.6.45-3.09 1.03-4.48 1.74-3.05 1.04-6.2 1.71-9.45 1.99a96.53 96.53 0 0 0-14.92-.25c6.37-2.1 12.84-2.52 19.39-1.24 1.34-.53 2.67-1.03 3.98-1.49.13-.8-.03-1.46-.5-1.99 6.47-1.05 13.02-2.04 19.64-2.98 4.01.96 8.07 1.62 12.18 1.99Z" style="fill:#c5e4e7;fill-rule:evenodd;stroke-width:0"/><path d="M184.36 144.63c-.07.44.1.77.5.99.61-.37 1.28-.54 1.99-.5-.17.33-.33.66-.5.99-2.22.68-4.54 1.18-6.96 1.49.21-.36.54-.61.99-.75-1.65-.25-3.31-.33-4.97-.25 2.99-.34 5.98-1 8.95-1.99Z" style="fill:#9ac4cc;fill-rule:evenodd;stroke-width:0"/><path d="M23.75 146.13c1.58.38 3.07.88 4.48 1.49-.6.53-1.35.87-2.24.99-1.75-.29-3.49-.63-5.22-.99-2.15-.61-4.3-.61-6.46 0v1.49c-.33-.45-.66-.94-.99-1.49-.62.75-.62 1.49 0 2.24 1.58 1.18 3.24 2.09 4.97 2.73-.64-.12-1.14.05-1.49.5-.66-.17-1.33-.33-1.99-.5-1.07-.31-1.9-.98-2.49-1.99-.5-.66-.99-1.33-1.49-1.99.5-.04.91.12 1.24.5.08-1.08.5-1.99 1.24-2.73 3.57-.07 7.05-.15 10.44-.25Z" style="fill:#5d95a5;opacity:1;isolation:isolate;fill-rule:evenodd;stroke-width:0"/><path d="M113.75 146.13c-3.13 1.45-6.45 2.44-9.95 2.98 2.75-2.67 6.07-3.67 9.95-2.98Z" style="fill:#487692;opacity:1;isolation:isolate;fill-rule:evenodd;stroke-width:0"/><path d="M186.35 146.13h2.49c.5.33.99.66 1.49.99-3.7.35-7.35 1.01-10.94 1.99v-1.49c2.42-.31 4.74-.81 6.96-1.49Z" style="fill:#232e44;fill-rule:evenodd;stroke-width:0"/><path d="M20.77 147.62c1.36.79 2.85 1.45 4.48 1.99.55.56.38.98-.5 1.24-3.02-.46-6-1.2-8.95-2.24-.48.23-.48.57 0 .99-.55-.03-1.05-.19-1.49-.5v-1.49c2.16-.61 4.32-.61 6.46 0Z" style="fill:#43a3b3;opacity:.99;isolation:isolate;fill-rule:evenodd;stroke-width:0"/><path d="M163.98 147.62c-.19.71-.69 1.13-1.49 1.24 3.74.18 7.39-.06 10.94-.75 2.02.1 4.01-.07 5.97-.5v1.49c-.49-.09-.82.08-.99.5l-6.46.99c-2.49-.06-4.98-.22-7.46-.5-5.19.85-10.42 1.51-15.66 1.99-1.02-.06-2.01-.22-2.98-.5-.51-.17-.76-.5-.75-.99 1.38-.71 2.88-1.29 4.48-1.74 3.84-.42 7.65-1 11.44-1.74 1 .17 1.99.33 2.98.5Z" style="fill:#1c738b;opacity:1;isolation:isolate;fill-rule:evenodd;stroke-width:0"/><path d="M163.98 147.62c3.14.34 6.29.51 9.45.5-3.55.68-7.2.93-10.94.75.81-.12 1.3-.53 1.49-1.24Z" style="fill:#4497a8;fill-rule:evenodd;stroke-width:0"/><path d="M14.3 149.11c.44.3.94.47 1.49.5 1.03.5 2.03 1 2.98 1.49.23.48.56.89.99 1.24-.47.24-.97.32-1.49.25-1.74-.65-3.39-1.56-4.97-2.73-.62-.74-.62-1.49 0-2.24.34.55.67 1.05.99 1.49Z" style="fill:#182236;fill-rule:evenodd;stroke-width:0"/><path d="M104.31 142.65c.37-.07.7.02.99.25a25.26 25.26 0 0 0-2.49 5.22c.12.6.45.93.99.99-1.45.92-2.94 1.75-4.48 2.49-1.99.59-3.98 1.09-5.97 1.49-3.19-.26-6.34-.76-9.45-1.49v-.5a3.41 3.41 0 0 1 1.99-.99c.49-.09.82.08.99.5-.01.5.23.83.75.99 1.76-.37 3.17-1.2 4.23-2.49-.78 1.18-.62 2.17.5 2.98 1.78-.59 3.6-.92 5.47-.99-.16-2.51 0-4.99.5-7.46.66 1.99 1.33 3.98 1.99 5.97 1.33-2.34 2.65-4.66 3.98-6.96Z" style="fill:#3a6884;opacity:1;isolation:isolate;fill-rule:evenodd;stroke-width:0"/><path d="M50.6 147.62c.44.3.94.47 1.49.5 1.33.83 2.65 1.66 3.98 2.49-1.35-.04-2.67-.2-3.98-.5v1.49c2.49.25 2.32.42-.5.5h-.5c-1.23-.41-2.55-.65-3.98-.75 1.39-.61 2.72-1.36 3.98-2.24-.31-.46-.48-.95-.5-1.49Z" style="fill:#84a6b6;fill-rule:evenodd;stroke-width:0"/><path d="M190.33 147.12c0 .33.17.5.5.5.09.49-.08.82-.5.99-3.55.1-7.03.6-10.44 1.49-.35-.45-.85-.62-1.49-.5.17-.42.5-.58.99-.5 3.59-.98 7.24-1.64 10.94-1.99Z" style="fill:#85b0c1;fill-rule:evenodd;stroke-width:0"/><path d="M190.33 148.61c.15 1.27-.02 2.43-.5 3.48.33-2-.33-2.66-1.99-1.99-1.6.85-3.25 1.51-4.97 1.99-.33.17-.66.33-.99.5h-8.45c2.19-.73 4.34-1.56 6.46-2.49 3.41-.9 6.89-1.39 10.44-1.49Z" style="fill:#357b96;opacity:1;isolation:isolate;fill-rule:evenodd;stroke-width:0"/><path d="M47.62 146.62h.5c1.02-.07 1.85.26 2.49.99.02.54.19 1.04.5 1.49a24 24 0 0 1-3.98 2.24c1.42.09 2.75.34 3.98.75a79.58 79.58 0 0 0-15.42.99c-.83-.17-1.66-.33-2.49-.5 1.14-.54 2.3-.54 3.48 0 .91-.14 1.74-.47 2.49-.99-4.62-1.19-9.26-1.28-13.92-.25-.28.19-.44.44-.5.75a4.508 4.508 0 0 1-1.49 2.49c-1.51-1.19-3-2.35-4.48-3.48-.96-.49-1.95-.99-2.98-1.49-.48-.43-.48-.76 0-.99 2.95 1.04 5.93 1.78 8.95 2.24.88-.27 1.05-.68.5-1.24-1.62-.54-3.11-1.2-4.48-1.99 1.73.37 3.47.7 5.22.99.89-.13 1.63-.46 2.24-.99 1.46.03 2.78.36 3.98.99 1.16.77 2.49 1.1 3.98.99 2.48.27 4.96.44 7.46.5 1.01-.83 2.01-1.66 2.98-2.49l.99-.99Z" style="fill:#96bfc9;opacity:1;isolation:isolate;fill-rule:evenodd;stroke-width:0"/><path d="M46.62 147.62c-.97.82-1.97 1.65-2.98 2.49v-.99c.85-.76 1.85-1.26 2.98-1.49Z" style="fill:#6b7275;fill-rule:evenodd;stroke-width:0"/><path d="M32.2 148.61c1.17-.08 2.33 0 3.48.25.28.19.44.44.5.75-1.49.1-2.82-.23-3.98-.99Z" style="fill:#597c8b;fill-rule:evenodd;stroke-width:0"/><path d="M56.07 150.6c1.28.11 2.44.44 3.48.99-.37-.07-.7.02-.99.25 1.11.47 2.1 1.05 2.98 1.74-2.09.15-4.08-.18-5.97-.99h-3.98v-.5c2.82-.08 2.98-.25.5-.5v-1.49c1.31.29 2.63.46 3.98.5Z" style="fill:#6caaba;opacity:1;isolation:isolate;fill-rule:evenodd;stroke-width:0"/><path d="M12.31 150.6c.58 1.01 1.41 1.68 2.49 1.99v.99c-1.47-.89-2.88-1.88-4.23-2.98-.19.28-.44.44-.75.5-.01-.5.23-.83.75-.99.57.24 1.15.41 1.74.5Z" style="fill:#1a445c;fill-rule:evenodd;stroke-width:0"/><path d="M104.8 151.1h1.99v.5c.72.4 1.55.65 2.49.75-3.24.09-6.39.33-9.45.75-2.74 1.25-5.56 1.58-8.45.99.66-.33 1.33-.66 1.99-.99 1.99-.4 3.98-.9 5.97-1.49 1.46-.07 2.87-.4 4.23-.99.45.12.86.29 1.24.5Z" style="fill:#b0dbe5;opacity:1;isolation:isolate;fill-rule:evenodd;stroke-width:0"/><path d="M60.55 151.6c3.11-.2 6.1.14 8.95.99-1.83-.11-3.65-.28-5.47-.5-1.27.15-2.43-.02-3.48-.5Z" style="fill:#315469;opacity:1;isolation:isolate;fill-rule:evenodd;stroke-width:0"/><path d="M140.11 146.13c.84 1.15 2 1.65 3.48 1.49.46.53.63 1.19.5 1.99-1.31.46-2.63.96-3.98 1.49-6.55-1.27-13.02-.86-19.39 1.24 4.97-.3 9.95-.22 14.92.25 3.24-.28 6.39-.95 9.45-1.99-.01.5.23.83.75.99.97.27 1.97.44 2.98.5 5.25-.47 10.47-1.14 15.66-1.99 2.48.28 4.97.44 7.46.5-3.92 1.68-8.06 2.51-12.43 2.49-4.98-.08-9.95 0-14.92.25-.28.19-.44.44-.5.75-.53.46-1.19.63-1.99.5-3.95.66-7.92.99-11.93.99v-1.49c-4.19-.11-8.33.22-12.43.99a99.09 99.09 0 0 0-17.9 0c1.22-.56 2.55-.97 3.98-1.24 3.07-.09 6.06-.33 8.95-.75 1.69-.8 3.52-1.38 5.47-1.74-2.17-.08-4.33.17-6.46.75-1.63-.41-3.29-.58-4.97-.5v-.5a509.53 509.53 0 0 1 33.32-4.97Z" style="fill:#2b8fa6;opacity:1;isolation:isolate;fill-rule:evenodd;stroke-width:0"/><path d="M187.85 150.1c1.65-.67 2.32 0 1.99 1.99v3.48a24.48 24.48 0 0 1-.75-4.97c-.33-.37-.75-.54-1.24-.5Z" style="opacity:.99;fill:#1a4460;isolation:isolate;fill-rule:evenodd;stroke-width:0"/><path d="M83.92 151.6c3.11.74 6.26 1.23 9.45 1.49-.66.33-1.33.66-1.99.99a60.55 60.55 0 0 0-9.95-.5c.69-.86 1.52-1.52 2.49-1.99Z" style="fill:#8dbfd2;opacity:1;isolation:isolate;fill-rule:evenodd;stroke-width:0"/><path d="M112.76 153.09H99.83c3.06-.41 6.21-.66 9.45-.75-.94-.1-1.76-.35-2.49-.75 1.68-.08 3.34.09 4.97.5 2.14-.58 4.29-.83 6.46-.75-1.95.36-3.78.94-5.47 1.74Z" style="fill:#94c9d4;opacity:1;isolation:isolate;fill-rule:evenodd;stroke-width:0"/><path d="M178.4 149.61c.64-.12 1.14.05 1.49.5a76.78 76.78 0 0 1-6.46 2.49c-1.67.09-3.16.59-4.48 1.49-1.93.46-3.75 1.21-5.47 2.24-6.8.14-13.6.14-20.39 0-4.55.64-8.86 1.88-12.93 3.73-.66.17-1.33.33-1.99.5 0-.62-.17-1.29-.5-1.99-4.33-1.11-8.81-1.61-13.43-1.49-2.06.29-3.89-.04-5.47-.99 2.96-.53 5.94-.86 8.95-.99 8.17 2.75 16.29 2.58 24.37-.5.8.13 1.46-.03 1.99-.5 5.21-.28 10.35-.61 15.42-.99 4.37.02 8.51-.8 12.43-2.49l6.46-.99Z" style="fill:#cbe5e8;opacity:1;isolation:isolate;fill-rule:evenodd;stroke-width:0"/><path d="M190.83 147.62c.38.38.63.88.75 1.49.25 2.31.33 4.63.25 6.96a3.5 3.5 0 0 1-1.99.5v-4.48c.48-1.05.65-2.21.5-3.48.42-.17.58-.5.5-.99Z" style="fill:#52a4bd;fill-rule:evenodd;stroke-width:0"/><path d="M6.84 147.62c.32 1.95.73 3.94 1.24 5.97.09-1.26.34-2.42.75-3.48.1 1.5.27 2.99.5 4.48-.73.03-1.39-.13-1.99-.5-.49-2.06-.66-4.21-.5-6.46Z" style="fill:#8fb5c0;fill-rule:evenodd;stroke-width:0"/><path d="m24.74 152.09 5.97 2.49v.99c-.33 0-.5.17-.5.5-1.27-.44-2.6-.61-3.98-.5-1.06-.27-2.05-.6-2.98-.99.76-.65 1.26-1.48 1.49-2.49Z" style="fill:#4db8c4;opacity:1;isolation:isolate;fill-rule:evenodd;stroke-width:0"/><path d="M51.1 152.09h.5v.5c-2.16-.08-4.32 0-6.46.25-.23.21-.39.45-.5.75 2.76.55 5.5.38 8.2-.5 1.21.81 2.12.64 2.73-.5a12.4 12.4 0 0 0 5.97.99c1.45.54 2.95.79 4.48.75-1.3-.22-1.96-.97-1.99-2.24 1.82.22 3.64.39 5.47.5.99.33 1.99.66 2.98.99-1.64-.09-1.81.25-.5.99-.58.17-1.16.33-1.74.5-1.25-.29-2.49-.38-3.73-.25.33.17.66.33.99.5 3.78.65 7.59.9 11.44.75v.99a74.62 74.62 0 0 1-19.39 1.24c-.62-.12-1.11-.36-1.49-.75 2.51.16 4.99 0 7.46-.5-3.41-.4-6.81-.9-10.19-1.49-.68.09-1.1.42-1.24.99-4.36-1.1-8.76-1.1-13.18 0-2.17-.16-4.24-.49-6.22-.99 2.9.22 5.72-.11 8.45-.99-4.13-.36-8.28-.36-12.43 0l-5.97-2.49c.06-.31.22-.56.5-.75 4.66-1.03 9.3-.95 13.92.25-.75.53-1.58.86-2.49.99-1.18-.54-2.34-.54-3.48 0 .83.17 1.66.33 2.49.5a78.75 78.75 0 0 1 15.42-.99Z" style="fill:#369aae;opacity:1;isolation:isolate;fill-rule:evenodd;stroke-width:0"/><path d="M51.6 152.59h3.98c-.62 1.14-1.53 1.31-2.73.5-2.71.88-5.44 1.05-8.2.5.1-.29.27-.54.5-.75 2.15-.25 4.3-.33 6.46-.25Z" style="fill:#1a7c95;fill-rule:evenodd;stroke-width:0"/><path d="M159.5 153.09c-5.06.38-10.2.71-15.42.99.06-.31.22-.56.5-.75 4.97-.25 9.94-.33 14.92-.25Z" style="fill:#52b0c3;fill-rule:evenodd;stroke-width:0"/><path d="M59.55 151.6h.99c1.05.48 2.21.65 3.48.5.03 1.27.69 2.01 1.99 2.24-1.53.04-3.02-.21-4.48-.75-.88-.69-1.88-1.27-2.98-1.74.3-.23.63-.31.99-.25Z" style="fill:#9ed7e2;fill-rule:evenodd;stroke-width:0"/><path d="M79.94 153.09c-1.66.85-3.49 1.19-5.47.99-.49.09-.82-.08-.99-.5 2.17-.04 4.32-.21 6.46-.5Z" style="fill:#205e75;fill-rule:evenodd;stroke-width:0"/><path d="M14.8 152.59c.66.17 1.33.33 1.99.5 1.72.27 2.55 1.27 2.49 2.98-1.56-.7-3.05-1.53-4.48-2.49v-.99Z" style="fill:#30687e;opacity:1;isolation:isolate;fill-rule:evenodd;stroke-width:0"/><path d="M10.82 148.61c.5.66.99 1.33 1.49 1.99-.59-.09-1.17-.25-1.74-.5-.51.17-.76.5-.75.99.12 1.7-.04 3.35-.5 4.97-.41.45-.91.79-1.49.99a4.89 4.89 0 0 1-.5-2.98c.6.36 1.26.53 1.99.5-.23-1.48-.4-2.97-.5-4.48.26-.61.59-1.19.99-1.74.47-.34.8-.26.99.25Z" style="fill:#2b6880;opacity:1;isolation:isolate;fill-rule:evenodd;stroke-width:0"/><path d="M34.69 155.57h-3.98v-.99c4.16-.36 8.3-.36 12.43 0-2.73.89-5.55 1.22-8.45.99Z" style="fill:#127992;fill-rule:evenodd;stroke-width:0"/><path d="M83.92 151.1v.5c-.97.47-1.79 1.13-2.49 1.99 3.3-.11 6.61.06 9.95.5 2.89.58 5.71.25 8.45-.99h12.93c-2.89.41-5.88.66-8.95.75-1.43.27-2.76.69-3.98 1.24-2.54.47-5.11.8-7.71.99-4.38-.41-8.78-.58-13.18-.5-1.52-.56-3.01-1.06-4.48-1.49 1.98.19 3.81-.14 5.47-.99.76-1.69 2.09-2.35 3.98-1.99Z" style="fill:#418fa7;opacity:1;isolation:isolate;fill-rule:evenodd;stroke-width:0"/><path d="M142.1 154.58c-8.08 3.08-16.2 3.24-24.37.5 4.1-.77 8.24-1.1 12.43-.99v1.49c4.01 0 7.99-.34 11.93-.99Z" style="fill:#45abc0;opacity:1;isolation:isolate;fill-rule:evenodd;stroke-width:0"/><path d="M117.73 155.08c-3.01.14-5.99.47-8.95.99-2.27.47-4.59.63-6.96.5-3.58.04-7.06.37-10.44.99-2.29-.11-4.44.22-6.46.99-1.63-.35-3.29-.52-4.97-.5-.17-.5-.5-.83-.99-.99v-1.49c4.4-.08 8.79.09 13.18.5 2.6-.19 5.17-.52 7.71-.99a99.09 99.09 0 0 1 17.9 0Z" style="opacity:1;isolation:isolate;fill-rule:evenodd;stroke-width:0;fill:#42a7bc"/><path d="M172.93 154.58c1.37-.16 2.69 0 3.98.5-1.34 2.34-3.17 4.16-5.47 5.47h-2.49c.14-1.71.47-3.37.99-4.97.71-.9 1.7-1.23 2.98-.99Z" style="fill:#1e6a80;opacity:1;isolation:isolate;fill-rule:evenodd;stroke-width:0"/><path d="M72.48 153.59h.99c.17.42.5.58.99.5 1.46.43 2.96.93 4.48 1.49v.5c-3.84.15-7.66-.09-11.44-.75-.33-.17-.66-.33-.99-.5 1.24-.13 2.48-.05 3.73.25.58-.17 1.16-.33 1.74-.5-1.31-.75-1.14-1.08.5-.99Z" style="fill:#93d0d9;opacity:1;isolation:isolate;fill-rule:evenodd;stroke-width:0"/><path d="M16.79 153.09c.35-.45.85-.62 1.49-.5a7.29 7.29 0 0 1 2.98 1.99c0 .82.32 1.48.99 1.99-.23.4-.56.56-.99.5h-.99c-.17-.5-.5-.83-.99-.99.06-1.72-.77-2.71-2.49-2.98Z" style="fill:#8eb9c3;fill-rule:evenodd;stroke-width:0"/><path d="M21.26 154.58c2.82 1.27 5.64 2.43 8.45 3.48 1.02 1.16 2.34 1.74 3.98 1.74a11.7 11.7 0 0 1-5.97 2.73c-2.58-1.25-4.74-3.08-6.46-5.47.44.07.77-.1.99-.5-.67-.51-1-1.17-.99-1.99Z" style="fill:#256980;opacity:.99;isolation:isolate;fill-rule:evenodd;stroke-width:0"/><path d="M58.06 157.56c-1.38-.18-2.7-.51-3.98-.99.14-.57.56-.9 1.24-.99 3.38.59 6.78 1.09 10.19 1.49-2.46.49-4.95.66-7.46.5Z" style="fill:#1b7a93;fill-rule:evenodd;stroke-width:0"/><path d="M169.94 155.57c-.52 1.61-.85 3.26-.99 4.97h2.49c-.39.64-.89 1.22-1.49 1.74-7.43 4.61-14.72 9.42-21.88 14.42-3.64 1.46-7.29 2.87-10.94 4.23-1.31.47-2.64.97-3.98 1.49v-1.49c.66 0 .99-.33.99-.99 4.43-.3 8.57-1.54 12.43-3.73.4-.65.9-1.23 1.49-1.74-.66-.17-1.33-.33-1.99-.5a93.06 93.06 0 0 0-15.91 4.23c-5.17.39-10.31 1.06-15.42 1.99-7.96.13-15.92.38-23.87.75a218.39 218.39 0 0 0-18.4-2.24c-8.7-2.25-17.49-3.91-26.35-4.97.46.14.79.39.99.75v.99c-.91-.83-1.91-1.58-2.98-2.24-6.05-2.44-11.52-5.76-16.41-9.95-2.99-1.41-5.48-3.48-7.46-6.22h.99c1.73 2.39 3.88 4.22 6.46 5.47 2.25-.35 4.24-1.26 5.97-2.73-1.64 0-2.96-.58-3.98-1.74 1.59-.05 3.08.28 4.48.99 1.45.72 2.94 1.47 4.48 2.24 13.18 1.23 26.27 3.05 39.28 5.47 6.29.69 12.58.86 18.9.5 5.14-.75 10.28-1.49 15.42-2.24 2.48.36 4.97.44 7.46.25 4.7-1.12 9.34-2.45 13.92-3.98 3.64-.39 7.29-.72 10.94-.99.23-.21.39-.45.5-.75-.5-.17-.99-.33-1.49-.5-2.14.48-4.3.56-6.46.25 3.36-.7 6.76-1.12 10.19-1.24 4.89.47 9.77.55 14.67.25a72.48 72.48 0 0 1 7.96-2.73Z" style="fill:#05526a;opacity:1;isolation:isolate;fill-rule:evenodd;stroke-width:0"/><path d="M191.82 156.07v1.99h-1.99v-1.49c.73.03 1.39-.13 1.99-.5Z" style="fill:#104e70;fill-rule:evenodd;stroke-width:0"/><path d="M18.78 151.1c1.47 1.13 2.96 2.29 4.48 3.48.93.39 1.93.72 2.98.99a90.25 90.25 0 0 0 8.95 2.98c-.49-.09-.82.08-.99.5a9.107 9.107 0 0 0-4.48-.99c-2.82-1.05-5.63-2.21-8.45-3.48a7.29 7.29 0 0 0-2.98-1.99c.52.07 1.02 0 1.49-.25-.44-.35-.77-.77-.99-1.24Z" style="fill:#1b2d41;fill-rule:evenodd;stroke-width:0"/><path d="M101.82 156.57c2 .33 3.99.91 5.97 1.74-.47.24-.97.32-1.49.25-7.05-.14-14.01.52-20.88 1.99 1.95-1.09 3.93-2.08 5.97-2.98 3.38-.62 6.86-.96 10.44-.99Z" style="fill:#cde9ec;fill-rule:evenodd;stroke-width:0"/><path d="M26.24 155.57c1.38-.11 2.71.06 3.98.5 2.91.97 5.9 1.63 8.95 1.99 3.48-.37 6.96-.7 10.44-.99 1.26 0 2.42.17 3.48.5-1.92.33-3.9.66-5.97.99.63.43 1.29.76 1.99.99 2.95.54 5.77 1.37 8.45 2.49-7.5-.96-14.96-2.12-22.38-3.48-3.04-.84-6.02-1.84-8.95-2.98Z" style="fill:#558ca0;opacity:1;isolation:isolate;fill-rule:evenodd;stroke-width:0"/><path d="M91.38 157.56c-2.03.9-4.02 1.89-5.97 2.98-.44.3-.94.47-1.49.5-1.04.36-2.04.36-2.98 0 1.23-.33 2.39-.66 3.48-.99.94-.36 1.1-.86.5-1.49 2.02-.77 4.18-1.1 6.46-.99Z" style="opacity:.99;fill:#86c5cf;isolation:isolate;fill-rule:evenodd;stroke-width:0"/><path d="M14.3 157.56c.5-.04.91.12 1.24.5.53 2 1.11 3.99 1.74 5.97-.05.47-.22.88-.5 1.24-.96.37-1.88.29-2.73-.25-.19-2.49-.11-4.98.25-7.46Z" style="fill:#588299;opacity:1;isolation:isolate;fill-rule:evenodd;stroke-width:0"/><path d="M53.09 157.56c2.62.97 5.27 1.97 7.96 2.98-.25.17-.5.33-.75.5a46.886 46.886 0 0 0-8.95-2.49c-.99.03-1.73.37-2.24.99-.7-.23-1.36-.57-1.99-.99 2.06-.33 4.05-.66 5.97-.99Z" style="fill:#6aa4b5;fill-rule:evenodd;stroke-width:0"/><path d="M79.94 158.06c1.68-.02 3.34.15 4.97.5.6.64.44 1.13-.5 1.49-2.27-.11-4.59-.2-6.96-.25-.68-.46-1.34-.88-1.99-1.24 1.39-.49 2.88-.65 4.48-.5Z" style="fill:#2d7f98;fill-rule:evenodd;stroke-width:0"/><path d="M112.76 159.55c-.73.03-1.39-.13-1.99-.5 2.21-.66 4.62-.99 7.21-.99 2.4.08 4.81.17 7.21.25-4.08.98-8.23 1.39-12.43 1.24Z" style="fill:#1a758d;fill-rule:evenodd;stroke-width:0"/><path d="M114.25 157.07c4.62-.12 9.09.38 13.43 1.49-1.15.65-2.31 1.31-3.48 1.99-2.32-.48-4.72-.48-7.21 0-1.57.07-2.98-.26-4.23-.99 4.2.15 8.35-.26 12.43-1.24-2.4-.08-4.81-.17-7.21-.25-2.59 0-5 .33-7.21.99-.77-.16-1.1-.66-.99-1.49 1.6.15 3.09-.01 4.48-.5Z" style="fill:#3b91a5;fill-rule:evenodd;stroke-width:0"/><path d="M30.21 156.07c0-.33.17-.5.5-.5h3.98c1.97.51 4.05.84 6.22.99 4.42-1.1 8.81-1.1 13.18 0 1.28.48 2.6.82 3.98.99.38.38.88.63 1.49.75 6.52.43 12.99.01 19.39-1.24.5.17.83.5.99.99-1.6-.15-3.09.01-4.48.5-2.76.35-5.41 1.01-7.96 1.99 2.72.5 5.37 1 7.96 1.49h-17.9c-2.69-1.11-5.5-1.94-8.45-2.49.5-.63 1.25-.96 2.24-.99 3.09.53 6.07 1.36 8.95 2.49.25-.17.5-.33.75-.5-2.69-1.02-5.34-2.01-7.96-2.98-1.06-.33-2.23-.5-3.48-.5-3.48.29-6.97.62-10.44.99-3.05-.35-6.04-1.02-8.95-1.99Z" style="opacity:.99;fill:#b8e0e6;isolation:isolate;fill-rule:evenodd;stroke-width:0"/><path d="M108.78 156.07c1.58.95 3.41 1.28 5.47.99-1.39.49-2.88.65-4.48.5-.11.83.22 1.33.99 1.49.6.36 1.26.53 1.99.5 1.25.73 2.66 1.06 4.23.99 2.49-.48 4.89-.48 7.21 0-6.23 1.43-12.2.77-17.9-1.99.52.07 1.02 0 1.49-.25-1.98-.83-3.97-1.41-5.97-1.74 2.37.14 4.69-.03 6.96-.5Z" style="fill:#9ed2d9;fill-rule:evenodd;stroke-width:0"/><path d="M168.95 154.08c1.43-.15 2.76.01 3.98.5-1.28-.24-2.28.1-2.98.99-2.71.77-5.36 1.68-7.96 2.73-4.89.3-9.78.22-14.67-.25-3.44.12-6.83.54-10.19 1.24 2.17.31 4.32.23 6.46-.25.5.17.99.33 1.49.5-.1.29-.27.54-.5.75-3.65.28-7.3.61-10.94.99-4.58 1.53-9.22 2.85-13.92 3.98-2.49.19-4.97.11-7.46-.25-5.14.75-10.27 1.49-15.42 2.24-6.31.36-12.61.2-18.9-.5a436.872 436.872 0 0 0-39.28-5.47c-1.54-.77-3.03-1.51-4.48-2.24.17-.42.5-.58.99-.5 7.42 1.36 14.88 2.52 22.38 3.48 5.05.41 10.19.66 15.42.75 2.5.38 4.82 1.2 6.96 2.49 1.54.46 3.12.71 4.72.75 5.22-.34 10.44-.59 15.66-.75 4.53-1.45 9.17-2.03 13.92-1.74 2.32.33 4.64.41 6.96.25 2.16-.75 4.32-1.5 6.46-2.24 1.17-.05 2-.54 2.49-1.49 4.07-1.85 8.38-3.09 12.93-3.73 6.79.14 13.59.14 20.39 0 1.72-1.03 3.54-1.77 5.47-2.24Z" style="fill:#131d31;opacity:1;isolation:isolate;fill-rule:evenodd;stroke-width:0"/><path d="M114.25 163.03v.5c-4.75-.29-9.39.29-13.92 1.74-5.23.15-10.45.4-15.66.75-1.61-.04-3.18-.29-4.72-.75a18.984 18.984 0 0 0-6.96-2.49c-5.23-.08-10.36-.33-15.42-.75h17.9c3.62.66 7.27 1.32 10.94 1.99a39.9 39.9 0 0 0 5.47-.99c6.1-.99 12.23-1.4 18.4-1.24 1.37.47 2.69.88 3.98 1.24Z" style="fill:#b9d9e1;opacity:1;isolation:isolate;fill-rule:evenodd;stroke-width:0"/><path d="M127.68 158.56c.33.7.5 1.36.5 1.99-.17.33-.33.66-.5.99-2.15.74-4.3 1.49-6.46 2.24-2.32.17-4.64.08-6.96-.25v-.5c4.21.38 8.19-.37 11.93-2.24.82-.56 1.31-1.31 1.49-2.24Z" style="fill:#83a8b6;fill-rule:evenodd;stroke-width:0"/><path d="M130.16 160.05c-.49.95-1.32 1.45-2.49 1.49.17-.33.33-.66.5-.99.66-.17 1.33-.33 1.99-.5Z" style="fill:#3a485c;fill-rule:evenodd;stroke-width:0"/><path d="M75.47 158.56c.65.36 1.31.78 1.99 1.24 2.37.05 4.69.13 6.96.25-1.09.33-2.25.66-3.48.99.95.36 1.94.36 2.98 0 .93.78 2.09 1.27 3.48 1.49 1.46.49 2.95.65 4.48.5-1.73.45-3.56.78-5.47.99-3.67-.67-7.32-1.33-10.94-1.99-2.58-.49-5.24-.99-7.96-1.49 2.54-.98 5.2-1.64 7.96-1.99Z" style="fill:#429db2;opacity:1;isolation:isolate;fill-rule:evenodd;stroke-width:0"/><path d="M106.3 158.56c5.71 2.76 11.67 3.42 17.9 1.99 1.17-.68 2.33-1.34 3.48-1.99-.18.93-.68 1.68-1.49 2.24-3.75 1.87-7.72 2.61-11.93 2.24-1.28-.36-2.61-.77-3.98-1.24-6.17-.16-12.3.26-18.4 1.24-1.53.16-3.02 0-4.48-.5-1.39-.22-2.55-.72-3.48-1.49.55-.03 1.05-.19 1.49-.5a90.888 90.888 0 0 1 20.88-1.99Z" style="fill:#307c93;fill-rule:evenodd;stroke-width:0"/><path d="M175.91 163.53c3.97-.59 5.3.99 3.98 4.72-4.81 1.41-6.13-.17-3.98-4.72Z" style="fill:#0b1025;opacity:.9;isolation:isolate;fill-rule:evenodd;stroke-width:0"/><path d="M38.17 173.48a49.17 49.17 0 0 0 8.45 3.73c-2.89.05-5.54-.78-7.96-2.49-.37-.33-.54-.75-.5-1.24Z" style="fill:#313e54;opacity:1;isolation:isolate;fill-rule:evenodd;stroke-width:0"/><path d="M96.35 186.4c-1.46-.49-2.95-.65-4.48-.5h-17.9c.12-.64-.05-1.14-.5-1.49.56-.33 1.22-.49 1.99-.5a17.8 17.8 0 0 0 7.46.75 88.31 88.31 0 0 1-6.46-1.74c-2.03-.56-4.01-1.23-5.97-1.99a3.5 3.5 0 0 0-1.99-.5c-4.42-.62-8.89-1.28-13.43-1.99-2.63-1.32-5.28-2.64-7.96-3.98-.21-.36-.54-.61-.99-.75 8.87 1.06 17.65 2.72 26.35 4.97 6.17.48 12.3 1.23 18.4 2.24 7.95-.37 15.91-.62 23.87-.75 5.1-.93 10.24-1.59 15.42-1.99a94.241 94.241 0 0 1 15.91-4.23c.66.17 1.33.33 1.99.5-.59.51-1.09 1.09-1.49 1.74-3.86 2.19-8 3.43-12.43 3.73-2.25-.16-4.41 0-6.46.5-3.99 1.41-7.97 2.82-11.93 4.23 3.09-.09 6.15-.5 9.2-1.24 2.15.6 4.22.6 6.22 0h.5c.64-.12 1.14.05 1.49.5-1.5.91-3.08 1.74-4.72 2.49-8.85-.15-17.72-.15-26.6 0" style="fill:#0e172b;opacity:1;isolation:isolate;fill-rule:evenodd;stroke-width:0"/><path d="M47.12 174.47c2.67 1.34 5.32 2.66 7.96 3.98v.5c-2.87-.61-5.53-1.77-7.96-3.48v-.99Z" style="fill:#427088;fill-rule:evenodd;stroke-width:0"/><path d="M55.08 178.95v-.5c4.53.71 9.01 1.37 13.43 1.99-1.6-.15-3.09.01-4.48.5v.5c-3.02-.7-6-1.53-8.95-2.49Z" style="fill:#285269;fill-rule:evenodd;stroke-width:0"/><path d="M127.68 180.44c2.06-.49 4.21-.66 6.46-.5 0 .66-.33.99-.99.99-1.72-.49-3.54-.65-5.47-.5Z" style="fill:#6390a8;fill-rule:evenodd;stroke-width:0"/><path d="m45.13 178.95.5-.5c1.23.28 2.39.61 3.48.99-.52-.07-1.02 0-1.49.25" style="fill:#6d4d33;fill-rule:evenodd;stroke-width:0"/><path d="M127.68 180.44c1.92-.16 3.75 0 5.47.5v1.49c-.76-.04-1.26.3-1.49.99h-.5c-.73.13-1.4-.04-1.99-.5 2.74-1.47 2.65-1.97-.25-1.49-.68-.09-1.1-.42-1.24-.99Z" style="fill:#86bdd4;opacity:1;isolation:isolate;fill-rule:evenodd;stroke-width:0"/><path d="M64.03 180.93c1.39-.49 2.88-.65 4.48-.5.73-.03 1.39.13 1.99.5.01.5-.23.83-.75.99a15.95 15.95 0 0 0-5.72-.99Z" style="fill:#84c2d4;fill-rule:evenodd;stroke-width:0"/><path d="M64.03 181.43v-.5c1.96-.02 3.87.31 5.72.99.51-.17.76-.5.75-.99 1.95.76 3.94 1.42 5.97 1.99-2.89.57-5.88.66-8.95.25-.7-.68-1.53-1.1-2.49-1.24-.17-.42-.5-.58-.99-.5Z" style="fill:#54869f;opacity:1;isolation:isolate;fill-rule:evenodd;stroke-width:0"/><path d="M127.68 180.44c.14.57.56.9 1.24.99 2.9-.48 2.99.02.25 1.49.59.46 1.25.63 1.99.5-1.99.6-4.07.6-6.22 0-3.05.74-6.11 1.16-9.2 1.24 3.96-1.41 7.94-2.82 11.93-4.23Z" style="opacity:.99;fill:#436982;isolation:isolate;fill-rule:evenodd;stroke-width:0"/><path d="M137.13 180.93c-.65.48-.98 1.14-.99 1.99-1.03.23-2.03.57-2.98.99-.35-.45-.85-.62-1.49-.5.24-.7.73-1.03 1.49-.99 1.34-.52 2.67-1.02 3.98-1.49Z" style="fill:#413a3a;fill-rule:evenodd;stroke-width:0"/><path d="M92.37 183.42c-.49-.09-.82.08-.99.5-4.48-.25-8.79-1.16-12.93-2.73 4.63.96 9.27 1.7 13.92 2.24Z" style="fill:#39677e;fill-rule:evenodd;stroke-width:0"/><path d="m104.31 184.42-10.94-.99c6.15.09 12.28-.16 18.4-.75 2.22-.35 4.37-.93 6.46-1.74.55.56.38.98-.5 1.24-4.48.87-8.95 1.62-13.43 2.24Z" style="fill:#3f6c84;fill-rule:evenodd;stroke-width:0"/><path d="M65.02 181.93c.96.15 1.79.56 2.49 1.24 3.07.41 6.06.32 8.95-.25 2.09.65 4.25 1.23 6.46 1.74-2.54.28-5.02.04-7.46-.75-.77 0-1.43.17-1.99.5-.77-.4-1.6-.56-2.49-.5-2.44.45-4.43-.21-5.97-1.99Z" style="fill:#3d637c;fill-rule:evenodd;stroke-width:0"/><path d="M47.62 179.69c.47-.24.97-.32 1.49-.25 1.87 1.27 3.86 2.26 5.97 2.98" style="fill:#9d8060;opacity:.98;isolation:isolate;fill-rule:evenodd;stroke-width:0"/><path d="M91.38 183.92c.17-.42.5-.58.99-.5h.99l10.94.99c-4.34.14-8.65-.03-12.93-.5Z" style="fill:#5c96aa;fill-rule:evenodd;stroke-width:0"/><path d="M67.51 185.91c1.58-.04 2.74-.7 3.48-1.99.89-.07 1.72.1 2.49.5.11.58-.06 1.08-.5 1.49" style="fill:#695647;opacity:1;isolation:isolate;fill-rule:evenodd;stroke-width:0"/><path d="M146.57 182.43c-.84-.08-1.67 0-2.49.25a36.821 36.821 0 0 1-7.46 3.23h-.5c1.21-.6 2.21-1.43 2.98-2.49 4.04-1.71 8.19-3.2 12.43-4.48l.5.5a31.3 31.3 0 0 1-5.47 2.98Z" style="fill:#674f3c;fill-rule:evenodd;stroke-width:0"/><path d="M72.98 185.91c.44-.41.61-.91.5-1.49.45.35.62.85.5 1.49h17.9" style="fill:#1d1a26;opacity:1;isolation:isolate;fill-rule:evenodd;stroke-width:0"/><path d="M136.63 185.91a37.39 37.39 0 0 0 7.46-3.23c.81-.25 1.64-.33 2.49-.25" style="fill:#6f4d31;fill-rule:evenodd;stroke-width:0"/><path d="M101.82 186.4c8.88-.15 17.75-.15 26.6 0a43.12 43.12 0 0 0 4.72-2.49c.96-.43 1.95-.76 2.98-.99.93.42 1.93.58 2.98.5a8.113 8.113 0 0 1-2.98 2.49c-.46-.24-.95-.41-1.49-.5" style="fill:#6e4c2f;opacity:.99;isolation:isolate;fill-rule:evenodd;stroke-width:0"/><path d="M134.64 185.41c.54.09 1.04.26 1.49.5h.5m-44.76 0c1.53-.16 3.02 0 4.48.5m-41.27-3.98c4.44.16 8.58 1.32 12.43 3.48" style="fill:#7d5735;fill-rule:evenodd;stroke-width:0"/><path d="M164.47 94.41c.24.71.74 1.04 1.5 1 1.55.74 3.05 1.58 4.51 2.51.16.78.66 1.11 1.5 1 .4.62.91 1.12 1.5 1.5.51.59 1.18.92 2.01 1 1.69 1.01 3.36 2.01 5.02 3.01-.65.77-1.49 1.27-2.51 1.5-3.6.72-7.28 1.39-11.03 2.01.13-.8-.03-1.47-.5-2.01.05-1.03-.29-1.87-1-2.51-.3-1.74-.8-3.41-1.5-5.02-1.38-.94-2.88-1.78-4.51-2.51-1.25-1.63-2.92-2.46-5.02-2.51-4.78-1.82-9.63-1.82-14.54 0-3.32 1.81-5.99 4.32-8.02 7.52a81.212 81.212 0 0 0-7.02 10.03c-.8.39-1.14 1.06-1 2.01-1.06.64-1.56 1.65-1.5 3.01-.85.67-1.52.5-2.01-.5v-3.51c.45-.31.95-.47 1.5-.5.67-.33 1.17-.84 1.5-1.5v-.5c.84-.5 1.5-1.17 2.01-2.01v-.5c1.44-.76 2.27-1.93 2.51-3.51.96-1.42 1.8-2.92 2.51-4.51.48-.81 1.15-1.48 2.01-2.01.41-.48.5-.98.25-1.5-2.67-1.45-5.42-2.7-8.28-3.76-9.47-2.46-19-3.55-28.59-3.26-1.51.08-3.02 0-4.51-.25.28-.19.45-.44.5-.75 12.87-3.09 25.92-3.84 39.12-2.26 11.75 1.23 22.95 4.32 33.6 9.28Z" style="fill:#d3e2e9;opacity:1;isolation:isolate;fill-rule:evenodd;stroke-width:0"/></g></svg>