<?xml version="1.0" standalone="no"?>
<!DOCTYPE svg PUBLIC "-//W3C//DTD SVG 20010904//EN"
 "http://www.w3.org/TR/2001/REC-SVG-20010904/DTD/svg10.dtd">
<svg version="1.0" xmlns="http://www.w3.org/2000/svg"
 width="500.000000pt" height="500.000000pt" viewBox="0 0 500.000000 500.000000"
 preserveAspectRatio="xMidYMid meet">

<g transform="translate(0.000000,500.000000) scale(0.100000,-0.100000)"
fill="#000000" stroke="none">
<path d="M2623 3573 c-7 -2 -13 -22 -13 -42 0 -34 -5 -41 -51 -70 -126 -83
-214 -191 -286 -353 -44 -102 -51 -126 -63 -214 -15 -114 19 -283 60 -300 8
-4 76 -8 150 -9 l135 -3 -134 8 c-122 7 -136 9 -153 30 -47 58 -63 237 -33
355 9 33 43 115 76 182 56 112 69 130 144 200 45 43 96 86 114 96 l32 19 -17
-39 c-50 -113 -65 -230 -39 -318 l14 -50 -7 50 c-14 101 -8 176 22 259 18 50
32 73 36 65 4 -8 10 -93 14 -189 3 -96 9 -218 12 -270 4 -52 3 -92 -1 -88 -4
4 -22 44 -41 90 -39 96 -46 90 -9 -7 35 -93 97 -210 150 -280 51 -68 50 -71
-42 -84 -48 -7 -52 -9 -20 -10 36 -1 127 17 127 25 0 2 -22 32 -50 66 -45 56
-50 67 -50 112 -1 48 -2 49 -14 27 -12 -21 -14 -22 -20 -6 -4 10 -11 109 -17
219 -5 111 -13 253 -18 316 -7 112 -6 116 16 139 l23 24 85 -23 c62 -17 98
-21 132 -16 51 7 180 62 170 72 -3 4 -27 -3 -53 -16 -94 -43 -202 -39 -258 10
-19 17 -40 30 -47 30 -8 0 8 -16 35 -35 27 -19 56 -35 64 -35 9 0 12 -3 9 -7
-4 -3 -34 2 -68 12 -48 15 -67 16 -90 8 -26 -10 -29 -9 -29 7 0 11 10 26 22
34 22 15 9 21 -19 9z m220 -80 c-7 -2 -19 -2 -25 0 -7 3 -2 5 12 5 14 0 19 -2
13 -5z"/>
<path d="M2643 3393 c4 -43 14 -132 22 -198 8 -66 15 -169 16 -230 1 -87 3
-100 9 -65 9 50 -2 212 -25 395 -8 65 -15 128 -15 140 1 19 2 19 20 -4 24 -28
27 -15 4 17 -29 42 -37 27 -31 -55z"/>
<path d="M2690 3396 c0 -37 198 -366 326 -540 40 -55 71 -103 68 -108 -7 -12
-62 -35 -174 -74 -52 -18 -90 -33 -84 -33 21 -2 142 39 211 70 l68 31 33 -38
c17 -20 32 -33 32 -27 0 5 -11 20 -25 33 -31 30 -31 35 3 66 28 27 10 22 -22
-5 -17 -15 -20 -13 -52 24 -77 90 -244 347 -330 509 -30 56 -54 97 -54 92z"/>
<path d="M2214 3181 c-96 -72 -218 -198 -261 -272 -18 -30 -38 -80 -43 -112
-10 -50 -8 -63 9 -102 11 -25 16 -45 12 -45 -4 0 -27 14 -50 31 -45 32 -73 31
-31 -1 38 -30 152 -88 225 -115 79 -30 166 -73 219 -110 21 -14 40 -24 43 -22
5 6 -80 60 -153 98 -33 16 -51 28 -42 25 10 -3 52 -7 95 -10 l78 -5 -86 13
c-166 26 -259 57 -272 91 -8 19 -10 19 49 -9 27 -13 67 -29 89 -35 42 -11 105
-15 105 -6 0 3 -11 27 -24 53 -61 120 -74 258 -32 347 21 45 80 134 138 207
37 48 14 40 -68 -21z m30 -3 c-4 -7 -25 -39 -47 -71 -21 -32 -50 -83 -64 -114
-23 -49 -25 -65 -21 -152 3 -85 8 -106 36 -163 18 -36 32 -69 32 -73 0 -10
-78 5 -138 27 -30 11 -69 34 -88 50 -31 27 -34 35 -34 83 0 102 94 241 252
370 68 55 85 66 72 43z"/>
<path d="M2920 2630 c-9 -5 -67 -22 -130 -39 -102 -28 -213 -43 -390 -55 -30
-2 8 -2 85 1 142 4 215 15 340 51 38 11 72 19 74 17 2 -3 -11 -21 -29 -42 -18
-20 -41 -56 -52 -79 l-18 -43 -201 0 c-110 1 -203 -2 -206 -5 -4 -3 91 -6 210
-6 189 0 217 2 217 15 0 26 30 77 77 133 45 53 52 68 23 52z"/>
<path d="M2578 2593 c12 -2 30 -2 40 0 9 3 -1 5 -23 4 -22 0 -30 -2 -17 -4z"/>
<path d="M2757 2235 c-8 -8 -42 -79 -76 -158 -79 -187 -82 -235 -14 -282 27
-18 45 -22 75 -19 55 5 137 44 187 90 41 36 94 113 90 130 -4 15 20 64 31 64
5 0 10 7 10 15 0 8 4 15 9 15 12 0 21 39 10 46 -5 3 -9 18 -9 34 0 19 -7 33
-19 40 -32 16 -38 12 -51 -35 -7 -25 -17 -48 -22 -51 -4 -3 -20 -28 -34 -56
-29 -57 -96 -133 -134 -153 -14 -7 -42 -16 -61 -20 -29 -5 -38 -3 -43 11 -4
10 -3 20 2 23 18 11 42 70 36 86 -4 10 -2 15 7 13 9 -2 14 5 13 19 0 12 2 20
6 18 10 -6 62 107 52 114 -5 3 -17 21 -26 39 -19 37 -20 37 -39 17z"/>
<path d="M1015 2214 c-16 -13 -36 -29 -42 -35 -7 -5 -13 -18 -13 -29 0 -10
-20 -60 -45 -111 -80 -164 -58 -251 68 -274 38 -7 182 29 194 48 4 6 -4 7 -21
3 -27 -7 -27 -6 -9 12 10 11 26 23 36 29 14 7 10 9 -18 9 -20 0 -30 -3 -22 -8
8 -5 9 -8 0 -8 -6 0 -19 -3 -29 -7 -13 -5 -15 -3 -9 7 6 10 4 12 -9 7 -10 -4
-23 -7 -29 -7 -7 0 -6 -4 2 -9 10 -6 -8 -9 -52 -7 -36 1 -69 4 -72 8 -10 9 13
84 29 98 8 6 54 19 102 29 49 10 89 22 91 28 2 5 -5 21 -16 34 -18 22 -21 23
-72 12 -30 -6 -55 -9 -57 -8 -2 2 1 12 7 23 7 14 32 23 88 35 43 8 92 21 108
27 29 11 29 12 10 23 -11 7 -42 17 -70 22 -44 10 -50 14 -47 35 5 46 -55 54
-103 14z m90 -414 c-11 -5 -29 -8 -40 -8 -16 0 -15 2 5 8 34 11 60 11 35 0z"/>
<path d="M1398 2158 c-66 -99 -120 -205 -141 -274 -15 -49 -14 -50 10 -74 26
-25 82 -31 106 -12 18 14 204 82 225 82 10 0 26 6 37 13 16 13 15 14 -16 10
-34 -3 -34 -3 6 10 57 19 86 37 80 48 -4 5 -11 9 -16 9 -6 0 -7 -5 -3 -11 5
-8 1 -8 -14 0 -15 8 -33 7 -68 -3 -27 -8 -77 -15 -112 -15 -35 -1 -74 -6 -88
-11 -18 -7 -24 -6 -24 5 0 7 5 17 11 20 5 4 14 17 20 28 5 12 24 42 42 67 63
87 73 180 21 188 -16 2 -33 -15 -76 -80z m152 -278 c-8 -5 -22 -9 -30 -9 -10
0 -8 3 5 9 27 12 43 12 25 0z"/>
<path d="M1843 2198 c-34 -55 -126 -249 -147 -311 -14 -42 -14 -52 -2 -82 10
-23 22 -35 34 -35 25 0 56 35 48 55 -6 17 14 73 40 113 15 23 16 23 36 5 11
-10 52 -55 90 -101 38 -45 82 -89 98 -97 37 -19 83 -19 121 1 17 8 37 13 44
10 14 -5 30 27 38 79 13 71 22 82 78 88 29 4 54 5 56 3 6 -6 -20 -56 -28 -56
-4 0 -8 -8 -8 -17 1 -10 -3 -35 -6 -56 -6 -29 -4 -42 11 -58 40 -44 51 -43 73
7 25 55 26 65 7 39 -13 -18 -14 -18 -9 8 3 15 9 27 14 27 5 0 9 6 9 14 0 8 4
16 9 18 12 4 64 109 57 115 -3 3 7 21 23 39 64 72 85 195 35 202 -16 2 -26 -9
-44 -47 -13 -28 -36 -70 -51 -93 -26 -38 -32 -42 -64 -39 -21 1 -46 -4 -61
-14 -33 -21 -39 -15 -16 16 59 78 78 152 48 192 -29 38 -49 21 -109 -96 -31
-61 -64 -129 -72 -150 -8 -20 -22 -40 -32 -44 -10 -4 -20 -10 -23 -13 -3 -4
-14 -12 -25 -18 -18 -10 -16 -11 18 -12 36 0 37 -1 31 -27 -10 -40 -12 -43
-40 -43 -39 0 -74 23 -149 99 -59 60 -66 71 -47 71 13 0 20 4 17 10 -3 5 0 7
7 5 8 -3 25 6 37 19 13 14 27 23 31 21 4 -2 24 13 45 35 30 31 36 43 31 63 -8
33 -62 51 -126 43 -47 -6 -48 -6 -53 24 -9 45 -41 40 -74 -12z m294 -444 c-3
-3 -12 -4 -19 -1 -8 3 -5 6 6 6 11 1 17 -2 13 -5z"/>
<path d="M3262 2162 c-65 -69 -130 -161 -185 -262 l-32 -58 21 -29 c12 -15 31
-29 43 -31 17 -3 21 2 21 23 0 14 4 24 9 21 5 -3 33 37 62 90 30 53 71 115 92
138 41 44 42 38 10 -46 -23 -60 -11 -101 30 -106 31 -4 63 17 134 86 43 42 81
67 89 59 3 -3 -13 -41 -35 -86 -23 -44 -41 -91 -41 -105 0 -30 28 -62 61 -70
21 -5 28 -1 37 20 7 14 12 37 12 51 0 15 7 34 16 44 9 10 17 31 19 46 4 39 23
84 42 98 32 24 10 114 -33 134 -21 9 -33 7 -74 -14 -28 -14 -50 -30 -50 -36 0
-5 -4 -8 -8 -5 -5 3 -25 -6 -45 -19 -45 -31 -47 -31 -47 3 -1 43 -35 108 -61
115 -19 5 -34 -5 -87 -61z"/>
<path d="M1670 1920 c-8 -5 -10 -10 -5 -10 6 0 17 5 25 10 8 5 11 10 5 10 -5
0 -17 -5 -25 -10z"/>
<path d="M761 1671 c-58 -16 -88 -115 -54 -181 24 -46 59 -65 106 -56 33 6 37
10 37 36 0 17 -4 30 -10 30 -5 0 -10 -9 -10 -20 0 -23 -37 -28 -70 -10 -44 24
-44 146 0 170 32 17 60 12 60 -10 0 -11 7 -20 15 -20 10 0 15 10 15 29 0 37
-31 48 -89 32z"/>
<path d="M951 1568 c-19 -57 -36 -109 -38 -115 -3 -7 2 -13 10 -13 8 0 20 14
26 30 9 27 14 30 55 30 41 0 45 -2 51 -30 4 -20 13 -30 25 -30 17 0 15 10 -19
113 -29 87 -42 113 -57 115 -17 2 -25 -13 -53 -100z m78 -20 c1 -13 -7 -18
-29 -18 -16 0 -30 1 -30 3 0 2 8 25 17 52 l16 49 13 -34 c7 -19 13 -43 13 -52z"/>
<path d="M1167 1663 c-4 -3 -7 -55 -7 -115 0 -87 3 -108 14 -108 11 0 16 14
18 48 2 38 7 48 23 50 16 2 26 -8 43 -43 20 -42 46 -65 58 -53 2 3 -7 26 -22
51 -24 43 -24 48 -10 69 20 29 20 72 0 92 -16 16 -104 23 -117 9z m84 -23 c28
-15 25 -58 -5 -72 -37 -16 -56 -4 -56 35 0 48 18 59 61 37z"/>
<path d="M1380 1661 c0 -6 15 -11 33 -13 l32 -3 3 -92 3 -93 -36 0 c-19 0 -35
-4 -35 -10 0 -6 33 -10 80 -10 47 0 80 4 80 10 0 6 -13 10 -30 10 l-30 0 0 95
0 95 30 0 c17 0 30 5 30 10 0 6 -33 10 -80 10 -44 0 -80 -4 -80 -9z"/>
<path d="M1632 1553 l3 -118 49 1 c40 0 53 5 72 28 29 33 30 46 5 77 -17 22
-17 27 -5 44 36 49 5 85 -72 85 l-55 0 3 -117z m92 81 c9 -8 16 -18 16 -21 0
-16 -36 -43 -57 -43 -20 0 -23 5 -23 40 0 36 3 40 24 40 14 0 32 -7 40 -16z
m14 -122 c5 -32 -15 -52 -49 -52 -27 0 -29 3 -29 41 l0 40 38 -3 c30 -2 38 -7
40 -26z"/>
<path d="M1862 1553 c3 -117 3 -118 28 -121 46 -7 97 16 110 49 11 27 10 33
-8 59 -18 24 -19 30 -7 40 8 7 15 23 15 36 0 38 -26 54 -86 54 l-55 0 3 -117z
m89 87 c10 -6 19 -16 19 -22 0 -20 -33 -48 -57 -48 -20 0 -23 5 -23 40 0 34 3
40 21 40 11 0 29 -5 40 -10z m17 -128 c5 -32 -15 -52 -49 -52 -27 0 -29 3 -29
41 l0 40 38 -3 c30 -2 38 -7 40 -26z"/>
<path d="M2090 1555 l0 -115 70 0 c40 0 70 4 70 10 0 6 -25 10 -55 10 l-55 0
0 39 0 40 47 3 c67 4 70 28 3 28 l-51 0 3 38 3 37 53 3 c77 4 63 22 -18 22
l-70 0 0 -115z"/>
<path d="M2366 1662 c-3 -5 -18 -49 -35 -98 -16 -49 -32 -97 -36 -106 -5 -13
-2 -18 8 -18 8 0 20 14 27 30 11 27 17 30 55 30 39 0 44 -3 54 -30 5 -17 17
-30 27 -30 9 0 14 6 11 13 -2 6 -20 58 -38 114 -25 76 -38 103 -51 103 -9 0
-19 -4 -22 -8z m39 -86 l14 -46 -35 0 c-19 0 -33 3 -31 8 3 4 10 27 17 51 13
50 17 49 35 -13z"/>
<path d="M2540 1555 c0 -94 3 -115 15 -115 11 0 15 17 17 76 l3 77 48 -77 c27
-42 53 -76 58 -76 5 0 9 51 9 115 0 132 -18 158 -22 33 l-3 -83 -52 83 c-29
45 -57 82 -63 82 -6 0 -10 -43 -10 -115z"/>
<path d="M3010 1555 c0 -96 3 -115 15 -115 11 0 15 12 15 50 0 43 3 50 20 50
14 0 27 -15 45 -50 14 -27 32 -50 40 -50 20 0 19 8 -10 58 l-25 44 20 25 c24
31 25 51 4 81 -12 18 -25 22 -70 22 l-54 0 0 -115z m86 87 c35 -24 9 -82 -36
-82 -17 0 -20 7 -20 45 0 40 2 45 23 45 12 0 27 -4 33 -8z"/>
<path d="M3230 1555 c0 -96 3 -115 15 -115 11 0 15 12 15 50 l0 50 50 0 50 0
0 -50 c0 -38 4 -50 15 -50 12 0 15 19 15 115 0 96 -3 115 -15 115 -11 0 -15
-12 -15 -50 l0 -50 -50 0 -50 0 0 50 c0 38 -4 50 -15 50 -12 0 -15 -19 -15
-115z"/>
<path d="M3460 1571 c0 -97 1 -100 27 -121 34 -27 89 -22 116 11 23 29 26 209
2 209 -12 0 -15 -16 -15 -86 0 -99 -10 -124 -48 -124 -45 0 -52 16 -52 117 0
76 -3 93 -15 93 -12 0 -15 -18 -15 -99z"/>
<path d="M3690 1555 c0 -96 3 -115 15 -115 12 0 15 16 15 83 l0 82 21 -32 c12
-18 24 -33 28 -33 4 0 17 17 29 38 l22 37 0 -87 c0 -72 3 -88 15 -88 12 0 15
19 15 115 0 95 -3 115 -15 115 -8 0 -25 -18 -37 -40 -13 -22 -26 -40 -29 -40
-3 0 -15 18 -28 40 -40 71 -51 55 -51 -75z"/>
</g>
</svg>
