<svg width="200" height="200" viewBox="0 0 200 200" fill="none" xmlns="http://www.w3.org/2000/svg">
<g clip-path="url(#clip0_432_2722)">
<path d="M200 100C200 44.7715 155.228 0 100 0C44.7715 0 0 44.7715 0 100C0 155.228 44.7715 200 100 200C155.228 200 200 155.228 200 100Z" fill="black"/>
<path d="M187.5 100C187.5 51.6751 148.325 12.5 100 12.5C51.6751 12.5 12.5 51.6751 12.5 100C12.5 148.325 51.6751 187.5 100 187.5C148.325 187.5 187.5 148.325 187.5 100Z" fill="#3FA3FF"/>
<path d="M118.399 109.774C118.399 100.014 112.542 96.6677 100.831 95.274C92.4644 94.1584 90.7912 91.9271 90.7912 88.0227C90.7912 84.1184 93.58 81.609 99.1569 81.609C104.177 81.609 106.966 83.2827 108.359 87.4652C108.639 88.3021 109.476 88.8596 110.312 88.8596H114.773C115.889 88.8596 116.726 88.0227 116.726 86.9077V86.629C115.61 80.4934 110.591 75.7534 104.177 75.1959V68.5027C104.177 67.3871 103.34 66.5509 101.946 66.2715H97.7631C96.6475 66.2715 95.8106 67.1084 95.5319 68.5027V74.9165C87.1656 76.0321 81.8681 81.609 81.8681 88.5809C81.8681 97.7834 87.445 101.408 99.1569 102.803C106.966 104.197 109.476 105.87 109.476 110.332C109.476 114.795 105.571 117.861 100.273 117.861C93.0219 117.861 90.5125 114.794 89.6756 110.611C89.3975 109.496 88.5606 108.938 87.7237 108.938H82.9831C81.8681 108.938 81.0312 109.774 81.0312 110.89V111.169C82.1462 118.14 86.6081 123.16 95.8106 124.555V131.247C95.8106 132.362 96.6475 133.199 98.0412 133.478H102.224C103.34 133.478 104.177 132.641 104.456 131.247V124.555C112.822 123.16 118.399 117.303 118.399 109.774Z" fill="black"/>
<path d="M85.7658 139.041C64.0145 131.234 52.8597 106.973 60.9471 85.5C65.1301 73.7875 74.3326 64.8644 85.7658 60.6812C86.8814 60.1237 87.4389 59.2871 87.4389 57.8924V53.9885C87.4389 52.8728 86.8814 52.0363 85.7658 51.7578C85.4864 51.7578 84.9289 51.7578 84.6501 52.0362C58.1583 60.4021 43.6572 88.5675 52.0231 115.059C57.0426 130.676 69.0339 142.667 84.6501 147.686C85.7658 148.244 86.8814 147.686 87.1595 146.571C87.4389 146.292 87.4389 146.013 87.4389 145.456V141.551C87.4389 140.714 86.602 139.599 85.7658 139.041ZM115.325 52.0362C114.21 51.4787 113.094 52.0363 112.816 53.1519C112.536 53.431 112.536 53.7094 112.536 54.2676V58.1714C112.536 59.2871 113.373 60.4021 114.21 60.9603C135.961 68.7681 147.116 93.0294 139.028 114.502C134.845 126.214 125.643 135.137 114.21 139.321C113.094 139.878 112.536 140.714 112.536 142.109V146.013C112.536 147.129 113.094 147.966 114.21 148.244C114.489 148.244 115.046 148.244 115.325 147.966C141.817 139.599 156.318 111.434 147.953 84.9425C142.933 69.0469 130.663 57.0557 115.325 52.0362Z" fill="black"/>
</g>
<defs>
<clipPath id="clip0_432_2722">
<rect width="200" height="200" fill="white"/>
</clipPath>
</defs>
</svg>
