<?xml version="1.0" standalone="no"?>
<!DOCTYPE svg PUBLIC "-//W3C//DTD SVG 20010904//EN"
 "http://www.w3.org/TR/2001/REC-SVG-20010904/DTD/svg10.dtd">
<svg version="1.0" xmlns="http://www.w3.org/2000/svg"
 width="130.000000pt" height="130.000000pt" viewBox="0 0 130.000000 130.000000"
 preserveAspectRatio="xMidYMid meet">

<g transform="translate(0.000000,130.000000) scale(0.100000,-0.100000)"
fill="#000000" stroke="none">
<path d="M490 1171 c0 -6 5 -13 10 -16 6 -3 10 1 10 9 0 9 -4 16 -10 16 -5 0
-10 -4 -10 -9z"/>
<path d="M800 1164 c0 -8 5 -12 10 -9 6 3 10 10 10 16 0 5 -4 9 -10 9 -5 0
-10 -7 -10 -16z"/>
<path d="M440 1136 c0 -8 -6 -17 -12 -20 -10 -5 -10 -7 0 -12 7 -3 12 -25 12
-56 0 -31 6 -55 16 -65 8 -9 13 -22 10 -29 -3 -8 1 -14 9 -14 8 0 15 -7 15
-15 0 -8 7 -15 15 -15 24 0 18 -39 -10 -64 -32 -29 -31 -36 1 -36 14 0 23 4
19 10 -3 6 3 10 14 10 19 0 21 6 21 51 0 42 -3 52 -20 56 -11 3 -17 9 -14 14
3 5 -2 9 -10 9 -10 0 -16 9 -16 24 0 13 -7 26 -15 30 -10 3 -15 19 -15 46 0
22 -4 40 -10 40 -21 0 -9 20 15 26 14 3 25 10 25 15 0 5 -11 9 -25 9 -15 0
-25 -6 -25 -14z"/>
<path d="M820 1141 c0 -5 11 -12 25 -15 24 -6 36 -26 15 -26 -5 0 -10 -18 -10
-40 0 -27 -5 -43 -15 -46 -8 -4 -15 -15 -15 -26 0 -21 -16 -41 -40 -50 -20 -8
-15 -108 6 -108 8 0 14 -4 14 -10 0 -5 9 -10 20 -10 26 0 25 8 -5 36 -28 25
-34 64 -10 64 8 0 15 7 15 15 0 8 7 15 15 15 9 0 15 9 15 25 0 14 5 25 10 25
6 0 10 23 10 51 0 38 5 55 18 65 16 13 16 13 0 14 -10 0 -18 7 -18 15 0 9 -9
15 -25 15 -14 0 -25 -4 -25 -9z"/>
<path d="M360 1030 c0 -29 -4 -40 -15 -40 -12 0 -15 -14 -15 -65 0 -51 3 -65
15 -65 12 0 15 14 15 65 0 37 4 65 10 65 6 0 10 14 10 30 0 23 4 30 20 30 11
0 20 5 20 10 0 6 -13 10 -30 10 -28 0 -30 -2 -30 -40z"/>
<path d="M900 1060 c0 -5 7 -10 15 -10 10 0 15 -10 15 -30 0 -16 4 -30 10 -30
5 0 10 -28 12 -62 2 -38 8 -63 16 -66 9 -3 12 14 12 62 0 52 -3 66 -15 66 -11
0 -15 11 -15 40 0 36 -2 40 -25 40 -14 0 -25 -4 -25 -10z"/>
<path d="M630 999 c0 -5 5 -7 10 -4 6 3 10 8 10 11 0 2 -4 4 -10 4 -5 0 -10
-5 -10 -11z"/>
<path d="M650 980 c0 -5 7 -10 15 -10 8 0 15 5 15 10 0 6 -7 10 -15 10 -8 0
-15 -4 -15 -10z"/>
<path d="M685 950 c-3 -5 1 -10 9 -10 9 0 16 5 16 10 0 6 -4 10 -9 10 -6 0
-13 -4 -16 -10z"/>
<path d="M632 915 c1 -14 6 -25 10 -25 4 0 8 11 8 25 0 14 -4 25 -10 25 -5 0
-9 -11 -8 -25z"/>
<path d="M710 870 c0 -22 5 -40 10 -40 6 0 10 18 10 40 0 22 -4 40 -10 40 -5
0 -10 -18 -10 -40z"/>
<path d="M600 870 c0 -5 7 -10 15 -10 8 0 15 5 15 10 0 6 -7 10 -15 10 -8 0
-15 -4 -15 -10z"/>
<path d="M366 851 c-4 -7 -5 -15 -2 -18 9 -9 19 4 14 18 -4 11 -6 11 -12 0z"/>
<path d="M580 836 c0 -14 5 -26 10 -26 6 0 10 9 10 19 0 11 -4 23 -10 26 -6 4
-10 -5 -10 -19z"/>
<path d="M930 847 c0 -9 -7 -17 -15 -17 -8 0 -15 -4 -15 -10 0 -15 19 -12 37
6 12 11 13 18 4 27 -8 8 -11 7 -11 -6z"/>
<path d="M385 820 c-3 -5 1 -10 9 -10 9 0 16 5 16 10 0 6 -4 10 -9 10 -6 0
-13 -4 -16 -10z"/>
<path d="M600 790 c0 -5 4 -10 9 -10 6 0 13 5 16 10 3 6 -1 10 -9 10 -9 0 -16
-4 -16 -10z"/>
<path d="M440 750 c0 -16 5 -30 10 -30 6 0 10 -7 10 -15 0 -8 7 -15 15 -15 9
0 18 7 21 15 5 12 33 15 164 15 118 0 159 3 163 13 2 7 8 8 13 3 5 -5 4 -11
-3 -13 -18 -6 -16 -33 2 -33 8 0 15 7 15 15 0 8 5 15 10 15 6 0 10 14 10 30 0
25 -4 30 -25 30 -16 0 -25 -6 -25 -15 0 -13 -25 -15 -165 -15 -140 0 -165 2
-165 15 0 9 -9 15 -25 15 -21 0 -25 -5 -25 -30z m50 -20 c0 -5 -4 -10 -10 -10
-5 0 -10 5 -10 10 0 6 5 10 10 10 6 0 10 -4 10 -10z"/>
<path d="M410 695 c0 -26 -24 -35 -34 -12 -5 10 -7 10 -12 0 -3 -7 -12 -13
-20 -13 -11 0 -14 -18 -14 -85 0 -69 -3 -85 -15 -85 -10 0 -15 -10 -15 -34 0
-25 7 -39 30 -56 26 -20 30 -29 30 -71 0 -27 5 -49 10 -49 6 0 10 -7 10 -15 0
-8 7 -15 15 -15 8 0 15 -7 15 -15 0 -8 7 -15 15 -15 8 0 15 -7 15 -15 0 -9 9
-15 25 -15 14 0 25 -4 25 -10 0 -6 57 -10 150 -10 93 0 150 4 150 10 0 6 10
10 23 10 22 0 57 31 57 50 0 6 7 10 15 10 8 0 15 7 15 15 0 8 -7 15 -15 15 -8
0 -15 -7 -15 -15 0 -8 -7 -15 -15 -15 -8 0 -15 -7 -15 -15 0 -9 -9 -15 -25
-15 -14 0 -25 -4 -25 -10 0 -6 -57 -10 -151 -10 -97 0 -148 4 -144 10 4 6 -7
10 -24 10 -17 0 -31 5 -31 10 0 13 -37 50 -50 50 -5 0 -10 23 -10 51 0 49 -15
79 -39 79 -6 0 -11 18 -11 40 0 29 4 40 15 40 12 0 15 16 15 85 0 50 4 85 10
85 6 0 10 -7 10 -15 0 -19 27 -19 46 -1 19 20 18 66 -1 66 -9 0 -15 -9 -15
-25z"/>
<path d="M870 694 c0 -14 6 -32 14 -40 17 -16 46 -19 46 -4 0 6 5 10 10 10 6
0 10 -33 10 -80 0 -64 3 -80 15 -80 25 0 19 -58 -10 -84 -18 -17 -25 -34 -25
-60 0 -25 -5 -36 -14 -36 -21 0 -30 -19 -12 -26 24 -9 51 24 48 60 -3 26 3 37
27 56 24 17 31 31 31 56 0 24 -5 34 -15 34 -12 0 -15 16 -15 85 0 70 -3 85
-16 85 -8 0 -12 5 -9 10 3 6 -1 10 -9 10 -9 0 -16 -4 -16 -10 0 -5 -7 -10 -15
-10 -9 0 -15 9 -15 25 0 16 -6 25 -15 25 -9 0 -15 -10 -15 -26z"/>
<path d="M490 655 c0 -8 7 -15 15 -15 8 0 15 7 15 15 0 8 -7 15 -15 15 -8 0
-15 -7 -15 -15z"/>
<path d="M790 655 c0 -8 7 -15 15 -15 8 0 15 7 15 15 0 8 -7 15 -15 15 -8 0
-15 -7 -15 -15z"/>
<path d="M490 545 c0 -8 7 -15 15 -15 8 0 15 7 15 15 0 8 -7 15 -15 15 -8 0
-15 -7 -15 -15z"/>
<path d="M790 545 c0 -8 7 -15 15 -15 10 0 14 -9 13 -25 -3 -34 -14 -31 -27 6
-13 36 -31 30 -31 -12 0 -19 5 -29 15 -29 8 0 15 -4 15 -10 0 -5 7 -10 15 -10
8 0 15 5 15 10 0 6 7 10 15 10 23 0 19 52 -5 73 -25 21 -40 22 -40 2z"/>
<path d="M467 533 c-14 -13 -6 -49 13 -66 23 -19 40 -22 40 -7 0 6 7 10 15 10
10 0 15 10 15 29 0 43 -17 47 -33 9 l-13 -33 -12 33 c-11 33 -14 36 -25 25z"/>
<path d="M572 383 c5 -25 28 -28 28 -4 0 12 -6 21 -16 21 -9 0 -14 -7 -12 -17z"/>
<path d="M710 379 c0 -24 23 -21 28 4 2 10 -3 17 -12 17 -10 0 -16 -9 -16 -21z"/>
<path d="M600 275 c0 -12 13 -15 55 -15 42 0 55 3 55 15 0 12 -13 15 -55 15
-42 0 -55 -3 -55 -15z"/>
</g>
</svg>
