<?xml version="1.0" encoding="UTF-8"?>
<svg version="1.1" xmlns="http://www.w3.org/2000/svg" width="200" height="200">
<path d="M0 0 C66 0 132 0 200 0 C200 66 200 132 200 200 C134 200 68 200 0 200 C0 134 0 68 0 0 Z " fill="#F4BDCF" transform="translate(0,0)"/>
<path d="M0 0 C66 0 132 0 200 0 C200 66 200 132 200 200 C134 200 68 200 0 200 C0 191.42 0 182.84 0 174 C0.99 174 1.98 174 3 174 C3 175.65 3 177.3 3 179 C3.99580078 179.07347656 3.99580078 179.07347656 5.01171875 179.1484375 C9.73533155 179.54839304 13.63696805 180.06087469 18 182 C19.9924325 182.37593066 21.9918674 182.71979545 24 183 C24 183.66 24 184.32 24 185 C68.055 185.495 68.055 185.495 113 186 C113 186.33 113 186.66 113 187 C125.21 187.33 137.42 187.66 150 188 C150 187.34 150 186.68 150 186 C156.27 185.67 162.54 185.34 169 185 C169 184.34 169 183.68 169 183 C179.00999285 180.48063101 188.74292135 180.85450952 199 181 C199 174.07 199 167.14 199 160 C196.36 160 193.72 160 191 160 C189.90248217 153.00998353 188.82678345 146.02765937 188 139 C187.34 139 186.68 139 186 139 C185.9175 138.05125 185.835 137.1025 185.75 136.125 C185.5025 135.09375 185.255 134.0625 185 133 C183.08333333 131.83333333 183.08333333 131.83333333 181 131 C179.875 128.9375 179.875 128.9375 179 127 C178.34 126.67 177.68 126.34 177 126 C176.25390625 123.73095703 176.25390625 123.73095703 175.5625 120.7578125 C175.30726563 119.69175781 175.05203125 118.62570313 174.7890625 117.52734375 C174.52867187 116.40457031 174.26828125 115.28179687 174 114.125 C173.48460655 111.9179934 172.96399934 109.71219608 172.4375 107.5078125 C172.20933594 106.52441895 171.98117188 105.54102539 171.74609375 104.52783203 C171.0735556 101.78915197 171.0735556 101.78915197 169 99 C168.835 97.824375 168.67 96.64875 168.5 95.4375 C168.34152243 91.9428808 168.34152243 91.9428808 166 90 C165.3125 86.4375 165.3125 86.4375 165 83 C165.33 82.67 165.66 82.34 166 82 C166.43287803 77.679051 166.43287803 77.679051 164.4375 74 C163 72 163 72 163.3125 68.75 C163.6528125 67.38875 163.6528125 67.38875 164 66 C164.66 66 165.32 66 166 66 C166.3403125 64.3603125 166.3403125 64.3603125 166.6875 62.6875 C168.2032785 58.42888422 169.1573604 58.01738579 173 56 C174.32793606 53.93299345 174.32793606 53.93299345 175 52 C175.66 52 176.32 52 177 52 C176.08708441 45.10544346 174.79074705 41.23639794 170 36 C166.69858854 30.88752855 164.38569173 25.92068287 163 20 C162.401875 19.938125 161.80375 19.87625 161.1875 19.8125 C159 19 159 19 157.5625 16.5 C156.23562616 13.74097653 156.23562616 13.74097653 153.375 13.3125 C152.199375 13.1578125 152.199375 13.1578125 151 13 C150.67 12.34 150.34 11.68 150 11 C146.72444392 10.52998967 146.72444392 10.52998967 142.9375 10.375 C141.00197266 10.26285156 141.00197266 10.26285156 139.02734375 10.1484375 C137.52880859 10.07496094 137.52880859 10.07496094 136 10 C135.85304687 11.10794922 135.85304687 11.10794922 135.703125 12.23828125 C134.46828299 20.61604557 132.75725486 28.86411771 128 36 C124.375 36.1875 124.375 36.1875 121 36 C120.67 37.65 120.34 39.3 120 41 C118.02 40.67 116.04 40.34 114 40 C114 39.34 114 38.68 114 38 C110.7 38 107.4 38 104 38 C103.01 36.02 103.01 36.02 102 34 C98.37 34 94.74 34 91 34 C91 34.66 91 35.32 91 36 C88.03 36 85.06 36 82 36 C82 36.66 82 37.32 82 38 C80.96552734 38.05607422 80.96552734 38.05607422 79.91015625 38.11328125 C73.72516336 38.54597623 67.5616393 39.04194129 62 42 C60.9935725 43.66279327 59.99414593 45.32983484 59 47 C56.47881487 48.36670305 53.92920881 49.50340901 51.27734375 50.59375 C48.41707288 52.35995499 48.07163435 53.89025732 47 57 C46.236875 57.433125 45.47375 57.86625 44.6875 58.3125 C35.88668986 63.83859009 31.26519728 78.56720786 28 88 C27.34 88 26.68 88 26 88 C25.83564453 88.99580078 25.83564453 88.99580078 25.66796875 90.01171875 C24.77688356 94.97426637 23.89037316 98.78487248 21 103 C20.71125 103.804375 20.4225 104.60875 20.125 105.4375 C18.90438006 108.21780097 17.20691162 110.07387616 15.2265625 112.34375 C13.4998522 114.67535881 12.67742512 117.09961904 11.7578125 119.83203125 C10.42050656 123.65782918 8.68044014 127.3149739 7 131 C6.34 131 5.68 131 5 131 C5.04125 132.2375 5.0825 133.475 5.125 134.75 C5.13658291 138.01637962 4.8568702 140.2146947 3 143 C2.01 143 1.02 143 0 143 C0 95.81 0 48.62 0 0 Z " fill="#F6F5F6" transform="translate(0,0)"/>
<path d="M0 0 C4.62 0 9.24 0 14 0 C14.33 0.99 14.66 1.98 15 3 C16.11375 2.814375 16.11375 2.814375 17.25 2.625 C18.1575 2.74875 19.065 2.8725 20 3 C22.125 5.9375 22.125 5.9375 24 9 C24.99 9.33 25.98 9.66 27 10 C28.17578125 12.1875 28.17578125 12.1875 29.3125 15 C31.99151592 21.22668245 35.17050155 27.17050155 40 32 C40.4140625 34.3828125 40.4140625 34.3828125 40.625 37.125 C40.69976562 38.03507812 40.77453125 38.94515625 40.8515625 39.8828125 C40.90054688 40.58148438 40.94953125 41.28015625 41 42 C40.01 42.495 40.01 42.495 39 43 C38.54625 43.804375 38.0925 44.60875 37.625 45.4375 C36 48 36 48 33.9375 48.9375 C31.64492552 49.92778146 31.64492552 49.92778146 30.75 53.125 C30.5025 54.07375 30.255 55.0225 30 56 C29.34 56 28.68 56 28 56 C27.62063713 60.29496459 27.62063713 60.29496459 29.5 64 C31.54769984 66.73026646 31.2957036 68.67333454 31 72 C30 73 30 73 27.4375 73.0625 C26.633125 73.041875 25.82875 73.02125 25 73 C24.01515892 71.25318707 23.03733813 69.5024149 22.0625 67.75 C21.51722656 66.77546875 20.97195312 65.8009375 20.41015625 64.796875 C19 62 19 62 18.46484375 59.69921875 C18.31144531 59.13847656 18.15804687 58.57773438 18 58 C17.175 57.690625 16.35 57.38125 15.5 57.0625 C14.2625 56.5365625 14.2625 56.5365625 13 56 C12.5 53.5 12.5 53.5 12 51 C9.7193293 49.78702351 9.7193293 49.78702351 7 49 C4.1875 47.5625 4.1875 47.5625 2 46 C2 45.01 2 44.02 2 43 C0.92105469 42.81050781 0.92105469 42.81050781 -0.1796875 42.6171875 C-2.97114347 42.00631486 -5.46917208 41.17271193 -8.125 40.125 C-8.97320312 39.79757813 -9.82140625 39.47015625 -10.6953125 39.1328125 C-13.06389069 37.9685961 -14.47439925 37.15408744 -16 35 C-16.07421875 32.73828125 -16.07421875 32.73828125 -15.6875 30.3125 C-15.56761719 29.50425781 -15.44773437 28.69601563 -15.32421875 27.86328125 C-15.21722656 27.24839844 -15.11023438 26.63351563 -15 26 C-12.69 26 -10.38 26 -8 26 C-7.81824219 25.3709375 -7.63648438 24.741875 -7.44921875 24.09375 C-6.23670895 19.96499869 -5.00315367 15.88499052 -3.4375 11.875 C-1.92828175 7.98280558 -0.94357502 4.06463085 0 0 Z " fill="#0C090A" transform="translate(136,10)"/>
<path d="M0 0 C0.99 0 1.98 0 3 0 C2.46541848 4.54394294 0.60129653 7.29512312 -2 11 C-2.69429379 12.3191582 -3.37530495 13.64649406 -4 15 C-4.66 15 -5.32 15 -6 15 C-6.226875 15.886875 -6.45375 16.77375 -6.6875 17.6875 C-8.07344088 22.58850832 -10.00545474 27.28083676 -11.87890625 32.01171875 C-12.75595508 34.349497 -13.47302365 36.56643507 -14 39 C-14.66 39 -15.32 39 -16 39 C-16.2475 40.216875 -16.495 41.43375 -16.75 42.6875 C-17.71793069 46.57996414 -19.12020288 49.12020288 -22 52 C-22.66 52 -23.32 52 -24 52 C-24.12375 52.99 -24.12375 52.99 -24.25 54 C-24.90265291 56.61061165 -25.60910644 58.24813734 -26.875 60.5625 C-29.23128585 65.03515895 -30.28649923 69.64755802 -31.38671875 74.55859375 C-32 77 -32 77 -33 78 C-34.80818047 86.8399934 -35.07253684 96.46517544 -32 105 C-30 111.66666667 -30 111.66666667 -30 115 C-28.68 115.33 -27.36 115.66 -26 116 C-26 116.66 -26 117.32 -26 118 C-20.39 118.66 -14.78 119.32 -9 120 C-9 120.66 -9 121.32 -9 122 C-4.53820714 121.87999502 -0.0765595 121.75567554 4.38500977 121.62768555 C5.89669693 121.58488834 7.40841558 121.54318624 8.92016602 121.50268555 C11.11744958 121.44361486 13.31459601 121.38117654 15.51171875 121.31640625 C16.24404221 121.29498062 16.97636566 121.27355499 17.73088074 121.2514801 C21.94739738 121.11321674 26.11255544 120.82365044 30.3125 120.40625 C39.31871607 119.65285959 48.31047981 120.40312599 57.3125 120.9375 C59.13211792 121.03919359 60.95177941 121.14011058 62.77148438 121.24023438 C67.18154234 121.48455245 71.59087983 121.7393262 76 122 C76 122.66 76 123.32 76 124 C85.24 124 94.48 124 104 124 C104 123.34 104 122.68 104 122 C104.64437012 121.9498877 105.28874023 121.89977539 105.95263672 121.84814453 C108.92728091 121.61326215 111.90110515 121.36918009 114.875 121.125 C115.88820312 121.04636719 116.90140625 120.96773438 117.9453125 120.88671875 C123.69723009 120.40739228 129.25027545 119.67265612 134.88476562 118.41015625 C137.61206538 117.88131696 140.2318616 117.85430851 143 118 C143 117.34 143 116.68 143 116 C143.78375 115.38125 144.5675 114.7625 145.375 114.125 C149.52518491 110.25698064 149.42855184 104.34773131 150 99 C152.97 99 155.94 99 159 99 C159 105.93 159 112.86 159 120 C149.75 120.4375 149.75 120.4375 146.85449219 120.56811523 C146.09297852 120.60622314 145.33146484 120.64433105 144.546875 120.68359375 C143.77182617 120.72025146 142.99677734 120.75690918 142.19824219 120.79467773 C140.00608104 120.94295669 140.00608104 120.94295669 137.95019531 121.51586914 C134.97628868 122.25413364 132.04748277 122.05860544 129 122 C129 122.66 129 123.32 129 124 C124.64667264 124.84023188 120.55557481 125.10770995 116.125 125.0625 C114.39636719 125.04896484 114.39636719 125.04896484 112.6328125 125.03515625 C111.32957031 125.01775391 111.32957031 125.01775391 110 125 C110 125.66 110 126.32 110 127 C97.46 127 84.92 127 72 127 C72 126.67 72 126.34 72 126 C70.92702667 125.98969254 69.85405334 125.97938507 68.74856567 125.96876526 C58.65385543 125.87115551 48.55920853 125.76843339 38.46460152 125.66066074 C33.27443724 125.60541475 28.08426734 125.55199207 22.89404297 125.50268555 C17.88844661 125.45506673 12.88292019 125.40272483 7.87740707 125.34705925 C5.96439218 125.32662443 4.05135809 125.30791324 2.13830948 125.29092598 C-0.53400381 125.2669069 -3.20618421 125.23684898 -5.87841797 125.20532227 C-6.67539093 125.1995668 -7.47236389 125.19381134 -8.29348755 125.18788147 C-13.77189568 125.11405216 -13.77189568 125.11405216 -16 124 C-16 123.34 -16 122.68 -16 122 C-17.2375 121.896875 -18.475 121.79375 -19.75 121.6875 C-25.64362532 121.04831894 -31.28618214 119.53722003 -37 118 C-37 116.35 -37 114.7 -37 113 C-37.99 113 -38.98 113 -40 113 C-40 102.77 -40 92.54 -40 82 C-38.515 81.505 -38.515 81.505 -37 81 C-36.34 77.37 -35.68 73.74 -35 70 C-34.34 70 -33.68 70 -33 70 C-32.86207031 69.41734375 -32.72414063 68.8346875 -32.58203125 68.234375 C-30.39990415 59.85735017 -27.12183577 52.12183577 -21 46 C-17.97389605 39.9477921 -16.07884585 33.42648286 -14 27 C-13.34 27 -12.68 27 -12 27 C-11.80857422 25.91525391 -11.80857422 25.91525391 -11.61328125 24.80859375 C-10.09346481 17.84841529 -7.08602828 11.79952401 -3 6 C-1.97069953 4.01492052 -0.96136071 2.01885749 0 0 Z " fill="#8C566C" transform="translate(40,61)"/>
<path d="M0 0 C2.97 0.495 2.97 0.495 6 1 C6 1.66 6 2.32 6 3 C7.0828125 3.3403125 7.0828125 3.3403125 8.1875 3.6875 C11.54149161 5.25269608 13.50485584 7.29692716 16 10 C16.495 10.495 16.495 10.495 17 11 C17.07258946 13.18639453 17.08373783 15.37500389 17.0625 17.5625 C17.05347656 18.76003906 17.04445313 19.95757812 17.03515625 21.19140625 C17.02355469 22.11824219 17.01195313 23.04507813 17 24 C14.37461501 25.3126925 12.34310895 25.16057286 9.40625 25.2109375 C8.29378906 25.23929688 7.18132812 25.26765625 6.03515625 25.296875 C3.67854505 25.34895481 1.32174835 25.3932271 -1.03515625 25.4296875 C-2.14761719 25.460625 -3.26007813 25.4915625 -4.40625 25.5234375 C-5.43041016 25.54325684 -6.45457031 25.56307617 -7.50976562 25.58349609 C-8.33154297 25.72094238 -9.15332031 25.85838867 -10 26 C-10.66 26.99 -11.32 27.98 -12 29 C-18.96243074 29.75855277 -29.21015025 30.5161062 -35.29980469 26.47314453 C-38.5205745 24.71599037 -40.49430389 24.66601397 -44.140625 24.7421875 C-45.29304688 24.75636719 -46.44546875 24.77054688 -47.6328125 24.78515625 C-49.42332031 24.82962891 -49.42332031 24.82962891 -51.25 24.875 C-53.63013798 24.91813683 -56.01035006 24.95741944 -58.390625 24.9921875 C-59.44282227 25.01651855 -60.49501953 25.04084961 -61.57910156 25.06591797 C-64 25 -64 25 -65 24 C-65.71953223 17.94885194 -65.22407018 12.8426985 -62.22265625 7.49609375 C-61 6 -61 6 -58.25 5 C-57.5075 5 -56.765 5 -56 5 C-56 4.34 -56 3.68 -56 3 C-54.68 3 -53.36 3 -52 3 C-52 2.34 -52 1.68 -52 1 C-50.35 1 -48.7 1 -47 1 C-47 1.99 -47 2.98 -47 4 C-48.11375 4.226875 -49.2275 4.45375 -50.375 4.6875 C-54.16038373 5.60623658 -54.16038373 5.60623658 -55.4375 8.625 C-55.7159375 9.800625 -55.7159375 9.800625 -56 11 C-54.783125 10.67 -53.56625 10.34 -52.3125 10 C-49.12789396 9.19677787 -46.3027157 8.79358027 -43 9 C-43 10.65 -43 12.3 -43 14 C-45.97 14 -48.94 14 -52 14 C-52 14.66 -52 15.32 -52 16 C-53.32 16.33 -54.64 16.66 -56 17 C-56 17.99 -56 18.98 -56 20 C-51.38 19.67 -46.76 19.34 -42 19 C-42 18.34 -42 17.68 -42 17 C-40.35425434 16.97311849 -38.70838587 16.95365877 -37.0625 16.9375 C-36.14597656 16.92589844 -35.22945312 16.91429687 -34.28515625 16.90234375 C-32 17 -32 17 -31 18 C-28.25890274 18.12770009 -25.55414003 18.185221 -22.8125 18.1875 C-21.67844727 18.20586914 -21.67844727 18.20586914 -20.52148438 18.22460938 C-15.99779845 18.23637959 -12.17737216 17.95288915 -8 16 C-6.77479736 12.99152582 -6.77479736 12.99152582 -6 10 C-5.01 9.67 -4.02 9.34 -3 9 C-2.87625 8.2575 -2.7525 7.515 -2.625 6.75 C-2.04513299 4.19858515 -1.26291261 2.2732427 0 0 Z " fill="#ECA0B5" transform="translate(110,122)"/>
<path d="M0 0 C26.73 0 53.46 0 81 0 C81 0.33 81 0.66 81 1 C87.6 1.33 94.2 1.66 101 2 C100.67 2.66 100.34 3.32 100 4 C96.68751813 4.02888146 93.37506833 4.04675799 90.0625 4.0625 C89.11697266 4.07087891 88.17144531 4.07925781 87.19726562 4.08789062 C85.84858398 4.09272461 85.84858398 4.09272461 84.47265625 4.09765625 C83.22367554 4.10551147 83.22367554 4.10551147 81.94946289 4.11352539 C80 4 80 4 79 3 C76.81360547 2.92741054 74.62499611 2.91626217 72.4375 2.9375 C71.23996094 2.94652344 70.04242188 2.95554688 68.80859375 2.96484375 C67.41833984 2.98224609 67.41833984 2.98224609 66 3 C66.69867188 3.04898438 67.39734375 3.09796875 68.1171875 3.1484375 C69.02726562 3.22320312 69.93734375 3.29796875 70.875 3.375 C71.77992187 3.44460937 72.68484375 3.51421875 73.6171875 3.5859375 C76 4 76 4 78 6 C78 7.32 78 8.64 78 10 C107.37 10 136.74 10 167 10 C167 10.66 167 11.32 167 12 C102.32 12 37.64 12 -29 12 C-29 11.34 -29 10.68 -29 10 C-15.47 10 -1.94 10 12 10 C11.505 7.03 11.505 7.03 11 4 C19.415 3.505 19.415 3.505 28 3 C14.14 2.505 14.14 2.505 0 2 C0 1.34 0 0.68 0 0 Z " fill="#DAD7D8" transform="translate(32,186)"/>
<path d="M0 0 C0.99 0.495 0.99 0.495 2 1 C2.44921875 3.80078125 2.44921875 3.80078125 2.6875 7.3125 C2.77386719 8.46363281 2.86023438 9.61476563 2.94921875 10.80078125 C2.99210699 13.50274031 2.83397927 15.46043907 2 18 C1.34 18 0.68 18 0 18 C0 17.34 0 16.68 0 16 C-1.98 16 -3.96 16 -6 16 C-6.18175781 16.55429688 -6.36351563 17.10859375 -6.55078125 17.6796875 C-6.80214844 18.40414062 -7.05351563 19.12859375 -7.3125 19.875 C-7.55613281 20.59429687 -7.79976563 21.31359375 -8.05078125 22.0546875 C-9 24 -9 24 -12 26 C-12.268125 26.804375 -12.53625 27.60875 -12.8125 28.4375 C-14.49969458 32.0782883 -16.28844923 32.55291223 -20 34 C-22.95154655 34.36201828 -25.84356217 34.33099404 -28.8125 34.25 C-29.58787109 34.24484375 -30.36324219 34.2396875 -31.16210938 34.234375 C-36.84517802 34.15482198 -36.84517802 34.15482198 -38 33 C-39.68183948 32.76712992 -41.3712416 32.58735834 -43.0625 32.4375 C-43.98160156 32.35371094 -44.90070313 32.26992187 -45.84765625 32.18359375 C-46.91306641 32.09271484 -46.91306641 32.09271484 -48 32 C-48 32.66 -48 33.32 -48 34 C-52.62 34.33 -57.24 34.66 -62 35 C-62 34.01 -62 33.02 -62 32 C-60.68 31.67 -59.36 31.34 -58 31 C-58 30.34 -58 29.68 -58 29 C-55.03 29 -52.06 29 -49 29 C-49 27.35 -49 25.7 -49 24 C-49.60328125 24.144375 -50.2065625 24.28875 -50.828125 24.4375 C-51.62734375 24.623125 -52.4265625 24.80875 -53.25 25 C-54.03890625 25.185625 -54.8278125 25.37125 -55.640625 25.5625 C-58 26 -58 26 -62 26 C-61.34 24.02 -60.68 22.04 -60 20 C-56.535 19.505 -56.535 19.505 -53 19 C-53 18.01 -53 17.02 -53 16 C-54.65 16 -56.3 16 -58 16 C-58 16.66 -58 17.32 -58 18 C-59.32 18 -60.64 18 -62 18 C-62 18.66 -62 19.32 -62 20 C-63.65 20.33 -65.3 20.66 -67 21 C-67.12375 21.5775 -67.2475 22.155 -67.375 22.75 C-68 25 -68 25 -69.03125 26.78125 C-70.24940913 29.57122737 -70.19717752 31.71854429 -70.125 34.75 C-70.10695312 35.73484375 -70.08890625 36.7196875 -70.0703125 37.734375 C-70.04710937 38.48203125 -70.02390625 39.2296875 -70 40 C-70.66 40 -71.32 40 -72 40 C-72 35.05 -72 30.1 -72 25 C-71.34 25 -70.68 25 -70 25 C-70 24.34 -70 23.68 -70 23 C-69.34 23 -68.68 23 -68 23 C-68 22.01 -68 21.02 -68 20 C-61.25 16 -61.25 16 -59 16 C-58.67 15.34 -58.34 14.68 -58 14 C-57.01 14 -56.02 14 -55 14 C-54.67 11.36 -54.34 8.72 -54 6 C-53.34 6 -52.68 6 -52 6 C-50.52646701 10.60479059 -50 14.1439501 -50 19 C-48.79255056 22.20476624 -48.79255056 22.20476624 -46 24 C-45.40267181 21.23735711 -45 18.83967231 -45 16 C-44.34 16.33 -43.68 16.66 -43 17 C-34.42055598 20.97027463 -24.16196983 20.42168497 -15 19 C-14.7215625 18.01 -14.7215625 18.01 -14.4375 17 C-12.39962281 12.74703891 -9.51393446 9.15393227 -6 6 C-5.01 6 -4.02 6 -3 6 C-2.814375 5.071875 -2.814375 5.071875 -2.625 4.125 C-2 2 -2 2 0 0 Z " fill="#F0A7BC" transform="translate(116,107)"/>
<path d="M0 0 C0.98120464 3.05263664 0.98120464 4.94736336 0 8 C2.64 8.33 5.28 8.66 8 9 C8 9.99 8 10.98 8 12 C8.99 12 9.98 12 11 12 C11.33 13.32 11.66 14.64 12 16 C12.99 16 13.98 16 15 16 C18 20.22222222 18 20.22222222 18 23 C19.98 23.66 21.96 24.32 24 25 C24 25.99 24 26.98 24 28 C24.99 28.33 25.98 28.66 27 29 C27.71727778 30.64551962 28.38325228 32.31422289 29 34 C29.66 34.66 30.32 35.32 31 36 C31 37.32 31 38.64 31 40 C31.99 40 32.98 40 34 40 C34 40.66 34 41.32 34 42 C33.34 42 32.68 42 32 42 C31.62063713 46.29496459 31.62063713 46.29496459 33.5 50 C35.54769984 52.73026646 35.2957036 54.67333454 35 58 C34 59 34 59 31.4375 59.0625 C30.633125 59.041875 29.82875 59.02125 29 59 C28.01515892 57.25318707 27.03733813 55.5024149 26.0625 53.75 C25.51722656 52.77546875 24.97195312 51.8009375 24.41015625 50.796875 C23 48 23 48 22.46484375 45.69921875 C22.31144531 45.13847656 22.15804687 44.57773438 22 44 C21.175 43.690625 20.35 43.38125 19.5 43.0625 C18.2625 42.5365625 18.2625 42.5365625 17 42 C16.5 39.5 16.5 39.5 16 37 C13.7193293 35.78702351 13.7193293 35.78702351 11 35 C8.1875 33.5625 8.1875 33.5625 6 32 C6 31.01 6 30.02 6 29 C4.92105469 28.81050781 4.92105469 28.81050781 3.8203125 28.6171875 C1.02885653 28.00631486 -1.46917208 27.17271193 -4.125 26.125 C-4.97320312 25.79757813 -5.82140625 25.47015625 -6.6953125 25.1328125 C-9.06389069 23.9685961 -10.47439925 23.15408744 -12 21 C-12.07421875 18.73828125 -12.07421875 18.73828125 -11.6875 16.3125 C-11.56761719 15.50425781 -11.44773437 14.69601563 -11.32421875 13.86328125 C-11.21722656 13.24839844 -11.11023438 12.63351563 -11 12 C-8.69 12 -6.38 12 -4 12 C-3.79503906 11.30132812 -3.59007812 10.60265625 -3.37890625 9.8828125 C-3.10949219 8.97273438 -2.84007812 8.06265625 -2.5625 7.125 C-2.29566406 6.22007813 -2.02882812 5.31515625 -1.75390625 4.3828125 C-1 2 -1 2 0 0 Z " fill="#251113" transform="translate(132,24)"/>
<path d="M0 0 C0.99 0 1.98 0 3 0 C2.68289062 0.87785156 2.36578125 1.75570313 2.0390625 2.66015625 C0.38520825 8.44864612 0.53152064 14.46036816 0.375 20.4375 C0.33632812 21.64599609 0.29765625 22.85449219 0.2578125 24.09960938 C0.16400542 27.06625817 0.07830754 30.03290836 0 33 C-4.47529692 33.98205073 -8.74730243 34.11553625 -13.3125 34.0625 C-14.05306641 34.05798828 -14.79363281 34.05347656 -15.55664062 34.04882812 C-17.37112899 34.03712175 -19.18557534 34.01918898 -21 34 C-21.33 36.31 -21.66 38.62 -22 41 C-26.875 36.375 -26.875 36.375 -28 33 C-26.02 33 -24.04 33 -22 33 C-22.00523682 32.23856689 -22.01047363 31.47713379 -22.01586914 30.69262695 C-22.03669525 27.23259308 -22.04967813 23.77257241 -22.0625 20.3125 C-22.07087891 19.11431641 -22.07925781 17.91613281 -22.08789062 16.68164062 C-22.09111328 15.52470703 -22.09433594 14.36777344 -22.09765625 13.17578125 C-22.10289307 12.11270752 -22.10812988 11.04963379 -22.11352539 9.9543457 C-22.00716844 7.1865491 -21.62894788 4.69207103 -21 2 C-20.39937744 1.97494385 -19.79875488 1.9498877 -19.17993164 1.92407227 C-16.47388563 1.8084472 -13.76821717 1.68557064 -11.0625 1.5625 C-10.11697266 1.52318359 -9.17144531 1.48386719 -8.19726562 1.44335938 C-7.29814453 1.40146484 -6.39902344 1.35957031 -5.47265625 1.31640625 C-4.64000244 1.27974854 -3.80734863 1.24309082 -2.94946289 1.20532227 C-0.99661142 1.20632897 -0.99661142 1.20632897 0 0 Z " fill="#ECECEC" transform="translate(197,0)"/>
<path d="M0 0 C6.27 0 12.54 0 19 0 C19 10.23 19 20.46 19 31 C15.6717269 32.66413655 12.00266027 31.81867406 8.375 31.5625 C7.57320312 31.51029297 6.77140625 31.45808594 5.9453125 31.40429688 C3.96320897 31.27451629 1.98155501 31.13790265 0 31 C0 35.29 0 39.58 0 44 C-1.485 44.495 -1.485 44.495 -3 45 C-3 36.75 -3 28.5 -3 20 C-2.34 19.67 -1.68 19.34 -1 19 C-0.67 12.73 -0.34 6.46 0 0 Z " fill="#ECECEC" transform="translate(3,2)"/>
<path d="M0 0 C2.97 0 5.94 0 9 0 C9 6.93 9 13.86 9 21 C-0.25 21.4375 -0.25 21.4375 -3.14550781 21.56811523 C-3.90702148 21.60622314 -4.66853516 21.64433105 -5.453125 21.68359375 C-6.61569824 21.73858032 -6.61569824 21.73858032 -7.80175781 21.79467773 C-9.99391896 21.94295669 -9.99391896 21.94295669 -12.04980469 22.51586914 C-15.02371132 23.25413364 -17.95251723 23.05860544 -21 23 C-21 23.66 -21 24.32 -21 25 C-25.35332736 25.84023188 -29.44442519 26.10770995 -33.875 26.0625 C-35.02742188 26.05347656 -36.17984375 26.04445312 -37.3671875 26.03515625 C-38.23601562 26.02355469 -39.10484375 26.01195312 -40 26 C-40 26.66 -40 27.32 -40 28 C-52.54 28 -65.08 28 -78 28 C-78 27.67 -78 27.34 -78 27 C-95.16 26.67 -112.32 26.34 -130 26 C-130 25.67 -130 25.34 -130 25 C-124.72 25 -119.44 25 -114 25 C-114 24.01 -114 23.02 -114 22 C-115.32 21.67 -116.64 21.34 -118 21 C-103.48 21.66 -88.96 22.32 -74 23 C-74 23.66 -74 24.32 -74 25 C-64.76 25 -55.52 25 -46 25 C-46 24.34 -46 23.68 -46 23 C-45.35562988 22.9498877 -44.71125977 22.89977539 -44.04736328 22.84814453 C-41.07271909 22.61326215 -38.09889485 22.36918009 -35.125 22.125 C-33.60519531 22.00705078 -33.60519531 22.00705078 -32.0546875 21.88671875 C-26.30276991 21.40739228 -20.74972455 20.67265612 -15.11523438 19.41015625 C-12.38793462 18.88131696 -9.7681384 18.85430851 -7 19 C-7 18.34 -7 17.68 -7 17 C-5.824375 16.071875 -5.824375 16.071875 -4.625 15.125 C-0.47481509 11.25698064 -0.57144816 5.34773131 0 0 Z " fill="#C4AFBB" transform="translate(190,160)"/>
<path d="M0 0 C13.86 0 27.72 0 42 0 C40 2 40 2 38.02880859 2.22705078 C37.24328613 2.21657715 36.45776367 2.20610352 35.6484375 2.1953125 C34.79765625 2.18886719 33.946875 2.18242188 33.0703125 2.17578125 C31.73613281 2.15064453 31.73613281 2.15064453 30.375 2.125 C29.4778125 2.11597656 28.580625 2.10695312 27.65625 2.09765625 C25.43723414 2.0740497 23.21874923 2.0411231 21 2 C21.00785522 2.98226563 21.00785522 2.98226563 21.01586914 3.984375 C21.036827 6.98957333 21.0497195 9.99475621 21.0625 13 C21.07087891 14.02996094 21.07925781 15.05992188 21.08789062 16.12109375 C21.10613637 21.85025613 20.86475384 27.33484101 20 33 C14.49568879 33.36695408 14.49568879 33.36695408 12.390625 31.80859375 C10.17416674 28.92595282 9.7462829 25.67254845 8.94140625 22.1796875 C8.63074219 21.46039062 8.32007813 20.74109375 8 20 C6.02594479 19.30724336 6.02594479 19.30724336 4 19 C2.375 16.5 2.375 16.5 1 14 C0.34 13.67 -0.32 13.34 -1 13 C-2 9 -2 9 0 0 Z " fill="#F8F8F8" transform="translate(155,0)"/>
<path d="M0 0 C2.97 0.495 2.97 0.495 6 1 C6 1.66 6 2.32 6 3 C7.0828125 3.3403125 7.0828125 3.3403125 8.1875 3.6875 C11.54149161 5.25269608 13.50485584 7.29692716 16 10 C16.33 10.33 16.66 10.66 17 11 C17.07258946 13.18639453 17.08373783 15.37500389 17.0625 17.5625 C17.05347656 18.76003906 17.04445313 19.95757812 17.03515625 21.19140625 C17.02355469 22.11824219 17.01195313 23.04507813 17 24 C13.7492389 25.62538055 10.19264307 25.14277895 6.625 25.125 C5.47257812 25.13080078 5.47257812 25.13080078 4.296875 25.13671875 C3.55179688 25.13542969 2.80671875 25.13414062 2.0390625 25.1328125 C1.02126709 25.13112061 1.02126709 25.13112061 -0.01708984 25.12939453 C-2.11235417 24.99266834 -3.98229148 24.56770955 -6 24 C-6 23.01 -6 22.02 -6 21 C-7.65 20.67 -9.3 20.34 -11 20 C-10.67 18.68 -10.34 17.36 -10 16 C-9.34 16 -8.68 16 -8 16 C-7.731875 15.030625 -7.46375 14.06125 -7.1875 13.0625 C-6.795625 12.051875 -6.40375 11.04125 -6 10 C-5.01 9.67 -4.02 9.34 -3 9 C-2.87625 8.2575 -2.7525 7.515 -2.625 6.75 C-2.04513299 4.19858515 -1.26291261 2.2732427 0 0 Z " fill="#CE6281" transform="translate(110,122)"/>
<path d="M0 0 C0.08086147 1.79093191 0.13912702 3.58289628 0.1875 5.375 C0.23970703 6.87160156 0.23970703 6.87160156 0.29296875 8.3984375 C0.19628906 9.25695312 0.09960938 10.11546875 0 11 C-3.27278139 13.18185426 -3.9351248 13.21432326 -7.66796875 12.9765625 C-8.56064453 12.925 -9.45332031 12.8734375 -10.37304688 12.8203125 C-11.30181641 12.75585938 -12.23058594 12.69140625 -13.1875 12.625 C-14.12787109 12.56828125 -15.06824219 12.5115625 -16.03710938 12.453125 C-18.35884909 12.31169923 -20.6794993 12.1602967 -23 12 C-23.495 11.01 -23.495 11.01 -24 10 C-27.29159316 9.94209647 -30.58305603 9.90643739 -33.875 9.875 C-34.81214844 9.85824219 -35.74929687 9.84148437 -36.71484375 9.82421875 C-38.05869141 9.81455078 -38.05869141 9.81455078 -39.4296875 9.8046875 C-40.67081299 9.78897705 -40.67081299 9.78897705 -41.93701172 9.77294922 C-44.22398157 9.80697743 -44.22398157 9.80697743 -46 12 C-48.5344671 12.27899696 -50.90078418 12.41602263 -53.4375 12.4375 C-54.11876953 12.47037109 -54.80003906 12.50324219 -55.50195312 12.53710938 C-57.49609375 12.55859375 -57.49609375 12.55859375 -61 12 C-61.99 10.35 -62.98 8.7 -64 7 C-59.05 7 -54.1 7 -49 7 C-49 6.34 -49 5.68 -49 5 C-42.73 4.67 -36.46 4.34 -30 4 C-30 3.34 -30 2.68 -30 2 C-20.0529464 -0.5035281 -10.17233107 -0.18974296 0 0 Z " fill="#F5F0F3" transform="translate(199,181)"/>
<path d="M0 0 C0.98120464 3.05263664 0.98120464 4.94736336 0 8 C2.64 8.33 5.28 8.66 8 9 C8 9.99 8 10.98 8 12 C8.99 12 9.98 12 11 12 C11.33 13.32 11.66 14.64 12 16 C12.99 16 13.98 16 15 16 C18 20.22222222 18 20.22222222 18 23 C19.98 23.66 21.96 24.32 24 25 C24 25.99 24 26.98 24 28 C24.99 28.33 25.98 28.66 27 29 C27.71727778 30.64551962 28.38325228 32.31422289 29 34 C29.66 34.66 30.32 35.32 31 36 C31 37.32 31 38.64 31 40 C31.99 40 32.98 40 34 40 C34 40.66 34 41.32 34 42 C33.34 42 32.68 42 32 42 C31.67 43.65 31.34 45.3 31 47 C30.67 46.01 30.34 45.02 30 44 C29.21625 43.731875 28.4325 43.46375 27.625 43.1875 C24.06078467 41.57511687 23.68639457 39.44305558 22 36 C20.34738161 34.97695052 18.68208635 33.97383946 17 33 C16.1875 30.8125 16.1875 30.8125 16 29 C15.401875 28.9175 14.80375 28.835 14.1875 28.75 C11.38912218 27.79055618 10.7444088 26.3258784 9 24 C6.90584196 23.20376178 6.90584196 23.20376178 5 23 C5 21.35 5 19.7 5 18 C1.77403651 17.14742393 -1.46583688 16.5239577 -4.75 15.9375 C-5.73484375 15.76089844 -6.7196875 15.58429687 -7.734375 15.40234375 C-8.48203125 15.26957031 -9.2296875 15.13679688 -10 15 C-9.67 17.64 -9.34 20.28 -9 23 C-9.66 23 -10.32 23 -11 23 C-12.26026798 20.47946405 -11.91874445 19.1457902 -11.5625 16.375 C-11.46066406 15.55773438 -11.35882813 14.74046875 -11.25390625 13.8984375 C-11.17011719 13.27195312 -11.08632812 12.64546875 -11 12 C-8.69 12 -6.38 12 -4 12 C-3.79503906 11.30132812 -3.59007812 10.60265625 -3.37890625 9.8828125 C-3.10949219 8.97273438 -2.84007812 8.06265625 -2.5625 7.125 C-2.29566406 6.22007813 -2.02882812 5.31515625 -1.75390625 4.3828125 C-1 2 -1 2 0 0 Z " fill="#8C1B1B" transform="translate(132,24)"/>
<path d="M0 0 C0.33 0 0.66 0 1 0 C1.10663576 14.90275792 1.08406056 29.79093613 0.625 44.6875 C0.59414307 45.89180664 0.56328613 47.09611328 0.53149414 48.33691406 C0.4927417 49.44647461 0.45398926 50.55603516 0.4140625 51.69921875 C0.3826416 52.67721436 0.3512207 53.65520996 0.31884766 54.6628418 C0 57 0 57 -2 59 C-1.01 59.66 -0.02 60.32 1 61 C-1.64 61 -4.28 61 -7 61 C-8.09751783 54.00998353 -9.17321655 47.02765937 -10 40 C-10.66 40 -11.32 40 -12 40 C-12.0825 39.05125 -12.165 38.1025 -12.25 37.125 C-12.4975 36.09375 -12.745 35.0625 -13 34 C-14.96672915 32.8499169 -14.96672915 32.8499169 -17 32 C-17.625 29.9453125 -17.625 29.9453125 -18 28 C-16.28490234 28.01740234 -16.28490234 28.01740234 -14.53515625 28.03515625 C-13.04427246 28.04453288 -11.55338691 28.05363321 -10.0625 28.0625 C-9.30775391 28.07087891 -8.55300781 28.07925781 -7.77539062 28.08789062 C-5.85005687 28.09652441 -3.92464419 28.05224333 -2 28 C-0.19605125 26.19605125 -0.76294211 23.43322201 -0.68359375 20.99609375 C-0.64169922 19.78115234 -0.59980469 18.56621094 -0.55664062 17.31445312 C-0.51732422 16.03505859 -0.47800781 14.75566406 -0.4375 13.4375 C-0.39431641 12.15423828 -0.35113281 10.87097656 -0.30664062 9.54882812 C-0.200152 6.36600147 -0.09814038 3.18309326 0 0 Z " fill="#EEEAEB" transform="translate(198,99)"/>
<path d="M0 0 C1.79093191 -0.08086147 3.58289628 -0.13912702 5.375 -0.1875 C6.87160156 -0.23970703 6.87160156 -0.23970703 8.3984375 -0.29296875 C9.25695312 -0.19628906 10.11546875 -0.09960938 11 0 C11.66 0.99 12.32 1.98 13 3 C15.42521494 3.58189266 15.42521494 3.58189266 18.125 3.6875 C19.49011719 3.78611328 19.49011719 3.78611328 20.8828125 3.88671875 C21.58148438 3.92410156 22.28015625 3.96148437 23 4 C23 4.66 23 5.32 23 6 C25.97 6.495 25.97 6.495 29 7 C29.495 9.97 29.495 9.97 30 13 C28.68 13 27.36 13 26 13 C25.505 11.02 25.505 11.02 25 9 C11.32211249 4.72566015 -8.99517394 3.4033491 -22 10 C-23.67667398 11.21105237 -23.67667398 11.21105237 -25.1875 12.5625 C-28 15 -28 15 -31.25 16.0625 C-34.10123951 16.69460487 -34.10123951 16.69460487 -35.0625 18.875 C-35.371875 19.57625 -35.68125 20.2775 -36 21 C-40.44444444 25 -40.44444444 25 -43 25 C-43.33 25.99 -43.66 26.98 -44 28 C-46.0625 29.1875 -46.0625 29.1875 -48 30 C-48 29.01 -48 28.02 -48 27 C-48.66 26.67 -49.32 26.34 -50 26 C-47.94766315 23.7522025 -46.99332739 22.9977758 -44 22 C-43.7525 21.236875 -43.505 20.47375 -43.25 19.6875 C-41.38485337 15.67743474 -38.96529019 14.87829535 -35 13 C-34.01 13 -33.02 13 -32 13 C-31.731875 12.21625 -31.46375 11.4325 -31.1875 10.625 C-30 8 -30 8 -27 6 C-20.97597809 3.74099178 -15.38622808 3.79213001 -9 4 C-9 3.34 -9 2.68 -9 2 C-6.03 2 -3.06 2 0 2 C0 1.34 0 0.68 0 0 Z " fill="#DAA4B4" transform="translate(91,34)"/>
<path d="M0 0 C1.65 0 3.3 0 5 0 C5 0.99 5 1.98 5 3 C3.88625 3.226875 2.7725 3.45375 1.625 3.6875 C-2.16038373 4.60623658 -2.16038373 4.60623658 -3.4375 7.625 C-3.7159375 8.800625 -3.7159375 8.800625 -4 10 C-2.783125 9.67 -1.56625 9.34 -0.3125 9 C2.87210604 8.19677787 5.6972843 7.79358027 9 8 C9 9.65 9 11.3 9 13 C6.03 13 3.06 13 0 13 C0 13.66 0 14.32 0 15 C-1.32 15.33 -2.64 15.66 -4 16 C-4 16.99 -4 17.98 -4 19 C0.62 18.67 5.24 18.34 10 18 C10 17.34 10 16.68 10 16 C11.65 16 13.3 16 15 16 C15.33 16.66 15.66 17.32 16 18 C12.38026598 19.31626692 9.90432869 20 6 20 C6 20.99 6 21.98 6 23 C2.82606311 24.58696844 -0.58174205 24.1431447 -4.0625 24.125 C-4.80822266 24.12886719 -5.55394531 24.13273437 -6.32226562 24.13671875 C-11.87336499 24.12663501 -11.87336499 24.12663501 -13 23 C-13.71953223 16.94885194 -13.22407018 11.8426985 -10.22265625 6.49609375 C-9 5 -9 5 -6.25 4 C-5.5075 4 -4.765 4 -4 4 C-4 3.34 -4 2.68 -4 2 C-2.68 2 -1.36 2 0 2 C0 1.34 0 0.68 0 0 Z " fill="#B1204C" transform="translate(58,123)"/>
<path d="M0 0 C0.99 0.66 1.98 1.32 3 2 C3.66 2 4.32 2 5 2 C4.04792348 4.44819677 3.12494122 6.78299682 1.8125 9.0625 C0.81028526 11.4523967 1.14419702 12.60375166 2 15 C1.34 15 0.68 15 0 15 C-0.17786056 20.15795631 -0.11596899 24.18029285 2 29 C2.66 29.33 3.32 29.66 4 30 C4 30.66 4 31.32 4 32 C4.66 32 5.32 32 6 32 C6.16894443 33.74978157 6.33506309 35.49983612 6.5 37.25 C6.5928125 38.22453125 6.685625 39.1990625 6.78125 40.203125 C6.95800168 42.46302153 7 44.73320193 7 47 C8.98 47 10.96 47 13 47 C13 47.99 13 48.98 13 50 C17.95 49.505 17.95 49.505 23 49 C23.33 49.99 23.66 50.98 24 52 C25.98 52 27.96 52 30 52 C30 52.33 30 52.66 30 53 C27.36 53 24.72 53 22 53 C22 52.34 22 51.68 22 51 C21.27554687 51.02320313 20.55109375 51.04640625 19.8046875 51.0703125 C9.76624857 51.25769669 9.76624857 51.25769669 5 49 C4.67 48.34 4.34 47.68 4 47 C3.01 46.67 2.02 46.34 1 46 C0.33984375 44.00390625 0.33984375 44.00390625 -0.0625 41.5625 C-0.63171515 37.85836343 -0.63171515 37.85836343 -3 35 C-5.68023923 23.17641301 -4.05294013 11.24117356 0 0 Z " fill="#DF9EBE" transform="translate(9,130)"/>
<path d="M0 0 C2.97 0 5.94 0 9 0 C9 6.93 9 13.86 9 21 C-0.25 21.4375 -0.25 21.4375 -3.14550781 21.56811523 C-3.90702148 21.60622314 -4.66853516 21.64433105 -5.453125 21.68359375 C-6.61569824 21.73858032 -6.61569824 21.73858032 -7.80175781 21.79467773 C-9.96018649 21.9962813 -11.90676807 22.4536533 -14 23 C-15.58211573 23.06548492 -17.16670081 23.08578381 -18.75 23.0625 C-19.54921875 23.05347656 -20.3484375 23.04445312 -21.171875 23.03515625 C-21.77515625 23.02355469 -22.3784375 23.01195312 -23 23 C-23 22.34 -23 21.68 -23 21 C-17.61972975 19.80911014 -12.54708616 18.7080481 -7 19 C-7 18.34 -7 17.68 -7 17 C-6.21625 16.38125 -5.4325 15.7625 -4.625 15.125 C-0.47481509 11.25698064 -0.57144816 5.34773131 0 0 Z " fill="#956376" transform="translate(190,160)"/>
<path d="M0 0 C0.99 0 1.98 0 3 0 C3.20496094 0.56589844 3.40992188 1.13179688 3.62109375 1.71484375 C3.89050781 2.44832031 4.15992188 3.18179688 4.4375 3.9375 C4.83775391 5.03384766 4.83775391 5.03384766 5.24609375 6.15234375 C5.85386948 7.98305678 5.85386948 7.98305678 7 9 C7.32545535 10.32549087 7.61001123 11.66110935 7.875 13 C8.55343806 16.19117161 9.36216824 19.23288497 10.4375 22.3125 C12.74455039 28.99823787 15 35.89712478 15 43 C15.61875 43.2475 16.2375 43.495 16.875 43.75 C19.37818306 45.22246063 19.83045281 46.41028837 21 49 C21.66 49.33 22.32 49.66 23 50 C23.625 53.0625 23.625 53.0625 24 56 C24.66 56 25.32 56 26 56 C28.90948901 65.89226262 29.55376836 75.81418521 28 86 C25.4867494 82.23012411 25.39378567 78.82571566 25 74.4375 C24.83064247 72.80702821 24.65878388 71.17681419 24.484375 69.546875 C24.3596582 68.3702832 24.3596582 68.3702832 24.23242188 67.16992188 C23.66762526 58.6626229 23.66762526 58.6626229 19 52 C18.01 51.34 17.02 50.68 16 50 C12.85029303 46.85029303 12.13048761 42.50664571 10.85546875 38.32226562 C10.28903552 36.53087708 9.64941754 34.76300209 9 33 C8.34 32.67 7.68 32.34 7 32 C7.18046875 31.43539062 7.3609375 30.87078125 7.546875 30.2890625 C8.06221329 27.68571563 7.81986908 25.95667963 7.25 23.375 C7.09015625 22.59898438 6.9303125 21.82296875 6.765625 21.0234375 C6.08735273 18.63797318 6.08735273 18.63797318 3 17 C2.70703125 14.8359375 2.70703125 14.8359375 2.8125 12.375 C2.83957031 11.55773437 2.86664063 10.74046875 2.89453125 9.8984375 C2.92933594 9.27195312 2.96414062 8.64546875 3 8 C2.34 8 1.68 8 1 8 C0.67 5.36 0.34 2.72 0 0 Z " fill="#D7A0B1" transform="translate(162,83)"/>
<path d="M0 0 C2.15537496 2.71160075 4.04589841 5.53704422 5.9375 8.4375 C6.5975 9.0975 7.2575 9.7575 7.9375 10.4375 C8.0625 13.0625 8.0625 13.0625 7.9375 15.4375 C6.9475 14.4475 5.9575 13.4575 4.9375 12.4375 C4.69 13.530625 4.4425 14.62375 4.1875 15.75 C2.91761465 19.49616178 2.34541814 20.62704349 -1.0625 22.4375 C-1.7225 22.4375 -2.3825 22.4375 -3.0625 22.4375 C-3.3925 21.1175 -3.7225 19.7975 -4.0625 18.4375 C-5.7125 18.1075 -7.3625 17.7775 -9.0625 17.4375 C-9.27102314 11.03120576 -9.2208195 5.50777358 -7.0625 -0.5625 C-2.67361111 -2.02546296 -2.67361111 -2.02546296 0 0 Z " fill="#0B1918" transform="translate(168.0625,31.5625)"/>
<path d="M0 0 C0.66 0 1.32 0 2 0 C3.47353299 4.60479059 4 8.1439501 4 13 C5.20744944 16.20476624 5.20744944 16.20476624 8 18 C8.59355614 20.64860427 8.74209269 23.29197322 9 26 C8.01 26 7.02 26 6 26 C6 26.66 6 27.32 6 28 C1.38 28.33 -3.24 28.66 -8 29 C-8 28.01 -8 27.02 -8 26 C-6.68 25.67 -5.36 25.34 -4 25 C-4 24.34 -4 23.68 -4 23 C-1.03 23 1.94 23 5 23 C5 21.35 5 19.7 5 18 C4.39671875 18.144375 3.7934375 18.28875 3.171875 18.4375 C2.37265625 18.623125 1.5734375 18.80875 0.75 19 C-0.03890625 19.185625 -0.8278125 19.37125 -1.640625 19.5625 C-4 20 -4 20 -8 20 C-7.34 18.02 -6.68 16.04 -6 14 C-2.535 13.505 -2.535 13.505 1 13 C1 12.01 1 11.02 1 10 C-0.65 10 -2.3 10 -4 10 C-4 10.66 -4 11.32 -4 12 C-5.32 12 -6.64 12 -8 12 C-8 12.66 -8 13.32 -8 14 C-9.65 14.33 -11.3 14.66 -13 15 C-13.12375 15.5775 -13.2475 16.155 -13.375 16.75 C-14 19 -14 19 -15.03125 20.78125 C-16.24940913 23.57122737 -16.19717752 25.71854429 -16.125 28.75 C-16.10695312 29.73484375 -16.08890625 30.7196875 -16.0703125 31.734375 C-16.04710937 32.48203125 -16.02390625 33.2296875 -16 34 C-16.66 34 -17.32 34 -18 34 C-18 29.05 -18 24.1 -18 19 C-17.34 19 -16.68 19 -16 19 C-16 18.34 -16 17.68 -16 17 C-15.34 17 -14.68 17 -14 17 C-14 16.01 -14 15.02 -14 14 C-7.25 10 -7.25 10 -5 10 C-4.67 9.34 -4.34 8.68 -4 8 C-3.01 8 -2.02 8 -1 8 C-0.67 5.36 -0.34 2.72 0 0 Z " fill="#EA8DA8" transform="translate(62,113)"/>
<path d="M0 0 C0.99 0 1.98 0 3 0 C4.31716987 3.95150962 3.19076223 6.07748911 2 10 C2 10.99 2 11.98 2 13 C1.01 13 0.02 13 -1 13 C-1.33 12.34 -1.66 11.68 -2 11 C-5.27555608 10.52998967 -5.27555608 10.52998967 -9.0625 10.375 C-10.99802734 10.26285156 -10.99802734 10.26285156 -12.97265625 10.1484375 C-14.47119141 10.07496094 -14.47119141 10.07496094 -16 10 C-16.10957031 10.81984375 -16.21914062 11.6396875 -16.33203125 12.484375 C-16.49058594 13.56203125 -16.64914063 14.6396875 -16.8125 15.75 C-16.96332031 16.81734375 -17.11414063 17.8846875 -17.26953125 18.984375 C-18 22 -18 22 -21 26 C-21 22.04 -21 18.08 -21 14 C-20.01 13.67 -19.02 13.34 -18 13 C-18.515625 12.67 -19.03125 12.34 -19.5625 12 C-21.87837972 8.77790648 -20.58288216 5.82926556 -20 2 C-19.42967041 1.97494385 -18.85934082 1.9498877 -18.27172852 1.92407227 C-15.70173843 1.80843451 -13.13214473 1.68556376 -10.5625 1.5625 C-9.66466797 1.52318359 -8.76683594 1.48386719 -7.84179688 1.44335938 C-6.98779297 1.40146484 -6.13378906 1.35957031 -5.25390625 1.31640625 C-4.46314697 1.27974854 -3.6723877 1.24309082 -2.85766602 1.20532227 C-0.98598559 1.19436743 -0.98598559 1.19436743 0 0 Z " fill="#E7E6E7" transform="translate(152,0)"/>
<path d="M0 0 C0 0.66 0 1.32 0 2 C5.61 2.66 11.22 3.32 17 4 C17 4.66 17 5.32 17 6 C39.275 5.505 39.275 5.505 62 5 C62 5.99 62 6.98 62 8 C51.44832244 8.78765286 40.95733653 9.16050282 30.37646484 9.13037109 C28.07773597 9.12488725 25.77919268 9.13042353 23.48046875 9.13671875 C22.01041624 9.13605985 20.54036384 9.13478261 19.0703125 9.1328125 C17.75820801 9.13168457 16.44610352 9.13055664 15.09423828 9.12939453 C12 9 12 9 10 8 C10 7.34 10 6.68 10 6 C8.7625 5.896875 7.525 5.79375 6.25 5.6875 C0.35637468 5.04831894 -5.28618214 3.53722003 -11 2 C-11 1.01 -11 0.02 -11 -1 C-6.58937864 -2.0257259 -4.07369424 -2.03684712 0 0 Z " fill="#5C484E" transform="translate(14,177)"/>
<path d="M0 0 C0.98120464 3.05263664 0.98120464 4.94736336 0 8 C2.64 8.33 5.28 8.66 8 9 C8 9.99 8 10.98 8 12 C8.99 12 9.98 12 11 12 C11.103125 12.639375 11.20625 13.27875 11.3125 13.9375 C11.539375 14.618125 11.76625 15.29875 12 16 C12.99 16.33 13.98 16.66 15 17 C14.01 17 13.02 17 12 17 C12 19.97 12 22.94 12 26 C9.69 25.01 7.38 24.02 5 23 C5 21.35 5 19.7 5 18 C1.77403651 17.14742393 -1.46583688 16.5239577 -4.75 15.9375 C-5.73484375 15.76089844 -6.7196875 15.58429687 -7.734375 15.40234375 C-8.48203125 15.26957031 -9.2296875 15.13679688 -10 15 C-9.67 17.64 -9.34 20.28 -9 23 C-9.66 23 -10.32 23 -11 23 C-12.26026798 20.47946405 -11.91874445 19.1457902 -11.5625 16.375 C-11.46066406 15.55773438 -11.35882813 14.74046875 -11.25390625 13.8984375 C-11.17011719 13.27195312 -11.08632812 12.64546875 -11 12 C-8.69 12 -6.38 12 -4 12 C-3.79503906 11.30132812 -3.59007812 10.60265625 -3.37890625 9.8828125 C-3.10949219 8.97273438 -2.84007812 8.06265625 -2.5625 7.125 C-2.29566406 6.22007813 -2.02882812 5.31515625 -1.75390625 4.3828125 C-1 2 -1 2 0 0 Z " fill="#590D10" transform="translate(132,24)"/>
<path d="M0 0 C0.99 0 1.98 0 3 0 C2.46541848 4.54394294 0.60129653 7.29512312 -2 11 C-2.69429379 12.3191582 -3.37530495 13.64649406 -4 15 C-4.66 15 -5.32 15 -6 15 C-6.226875 15.886875 -6.45375 16.77375 -6.6875 17.6875 C-8.07344088 22.58850832 -10.00545474 27.28083676 -11.87890625 32.01171875 C-12.75595508 34.349497 -13.47302365 36.56643507 -14 39 C-14.66 39 -15.32 39 -16 39 C-16.2475 40.216875 -16.495 41.43375 -16.75 42.6875 C-17.71793069 46.57996414 -19.12020288 49.12020288 -22 52 C-22.66 52 -23.32 52 -24 52 C-24.12375 52.99 -24.12375 52.99 -24.25 54 C-24.90265291 56.61061165 -25.60910644 58.24813734 -26.875 60.5625 C-29.60316777 65.75000149 -30.74807713 71.30944148 -32 77 C-32.66 77 -33.32 77 -34 77 C-34.81151628 69.85865676 -31.95952175 64.38544378 -29 58 C-28.64292969 57.20464844 -28.28585938 56.40929687 -27.91796875 55.58984375 C-26.0574037 51.62409752 -24.10948569 49.10948569 -21 46 C-17.97389605 39.9477921 -16.07884585 33.42648286 -14 27 C-13.34 27 -12.68 27 -12 27 C-11.80857422 25.91525391 -11.80857422 25.91525391 -11.61328125 24.80859375 C-10.09346481 17.84841529 -7.08602828 11.79952401 -3 6 C-1.97069953 4.01492052 -0.96136071 2.01885749 0 0 Z " fill="#7B5C65" transform="translate(40,61)"/>
<path d="M0 0 C5.8022175 -0.36263859 9.63999211 0.74315457 15 3 C15 4.65 15 6.3 15 8 C15.66 8 16.32 8 17 8 C17.33 9.32 17.66 10.64 18 12 C18.99 12 19.98 12 21 12 C22.125 15.75 22.125 15.75 21 18 C19.35 17.67 17.7 17.34 16 17 C16 16.01 16 15.02 16 14 C15.28457031 13.87753906 14.56914062 13.75507812 13.83203125 13.62890625 C10.94887287 12.98864625 8.41407527 12.06448444 5.6875 10.9375 C4.36298828 10.39416016 4.36298828 10.39416016 3.01171875 9.83984375 C2.34785156 9.56269531 1.68398437 9.28554688 1 9 C0.67 6.03 0.34 3.06 0 0 Z " fill="#0D0709" transform="translate(122,39)"/>
<path d="M0 0 C2.97 0.495 2.97 0.495 6 1 C6 1.66 6 2.32 6 3 C7.32 3 8.64 3 10 3 C11.52150158 6.04300316 11.23899393 8.654085 11 12 C10.01 12.66 9.02 13.32 8 14 C7.67 14.99 7.34 15.98 7 17 C4.125 17.125 4.125 17.125 1 17 C-1.2551922 14.7448078 -1.97723468 12.9952413 -3 10 C-3 9.01 -3 8.02 -3 7 C-2.01 7 -1.02 7 0 7 C0 4.69 0 2.38 0 0 Z " fill="#251518" transform="translate(143,17)"/>
<path d="M0 0 C1.32 0.66 2.64 1.32 4 2 C4 6.29 4 10.58 4 15 C0.7492389 16.62538055 -2.80735693 16.14277895 -6.375 16.125 C-7.52742188 16.13080078 -7.52742188 16.13080078 -8.703125 16.13671875 C-9.44820312 16.13542969 -10.19328125 16.13414062 -10.9609375 16.1328125 C-11.97873291 16.13112061 -11.97873291 16.13112061 -13.01708984 16.12939453 C-15.11235417 15.99266834 -16.98229148 15.56770955 -19 15 C-19 14.01 -19 13.02 -19 12 C-20.65 11.67 -22.3 11.34 -24 11 C-24 10.01 -24 9.02 -24 8 C-21.65684622 8.45351363 -19.32716831 8.91563179 -17.015625 9.51171875 C-11.22274422 10.95993894 -3.57522732 12.78761366 2 10 C2 8.35 2 6.7 2 5 C1.34 5 0.68 5 0 5 C0 3.35 0 1.7 0 0 Z " fill="#A23855" transform="translate(123,131)"/>
<path d="M0 0 C1.79093191 -0.08086147 3.58289628 -0.13912702 5.375 -0.1875 C6.87160156 -0.23970703 6.87160156 -0.23970703 8.3984375 -0.29296875 C9.25695312 -0.19628906 10.11546875 -0.09960938 11 0 C11.66 0.99 12.32 1.98 13 3 C15.42521494 3.58189266 15.42521494 3.58189266 18.125 3.6875 C19.49011719 3.78611328 19.49011719 3.78611328 20.8828125 3.88671875 C21.58148438 3.92410156 22.28015625 3.96148437 23 4 C23 4.66 23 5.32 23 6 C24.98 6.33 26.96 6.66 29 7 C29.495 9.97 29.495 9.97 30 13 C28.68 13 27.36 13 26 13 C25.505 11.02 25.505 11.02 25 9 C17.90818778 6.98129108 10.81965292 6.16327031 3.5 5.375 C2.29601562 5.2409375 1.09203125 5.106875 -0.1484375 4.96875 C-3.09845726 4.64097003 -6.04893308 4.3181898 -9 4 C-9 3.34 -9 2.68 -9 2 C-6.03 2 -3.06 2 0 2 C0 1.34 0 0.68 0 0 Z " fill="#D6AFBB" transform="translate(91,34)"/>
<path d="M0 0 C0.66 0 1.32 0 2 0 C3.29440005 6.73088027 3.22878303 13.44475579 1 20 C-1.56602442 21.83060711 -2.81021216 22 -6 22 C-6.08133791 20.08404032 -6.13934367 18.16708068 -6.1875 16.25 C-6.22230469 15.18265625 -6.25710937 14.1153125 -6.29296875 13.015625 C-5.96519378 9.64172798 -5.19124671 8.49879011 -3 6 C-2.30686092 4.34416775 -1.63525576 2.67889021 -1 1 C-0.67 0.67 -0.34 0.34 0 0 Z " fill="#FCEAF0" transform="translate(70,76)"/>
<path d="M0 0 C2.64 0 5.28 0 8 0 C8 5.28 8 10.56 8 16 C5.03 16 2.06 16 -1 16 C-0.835 15.030625 -0.67 14.06125 -0.5 13.0625 C0.13396273 8.70512237 0.0896672 4.39369296 0 0 Z " fill="#B5577D" transform="translate(191,160)"/>
<path d="M0 0 C0.66 1.32 1.32 2.64 2 4 C2.66 4 3.32 4 4 4 C4 5.65 4 7.3 4 9 C3.01 9.495 3.01 9.495 2 10 C1.54625 10.804375 1.0925 11.60875 0.625 12.4375 C-1.1429443 15.22541216 -2.16791265 15.58395632 -5 17 C-5.80528889 19.05000871 -5.80528889 19.05000871 -6 21 C-7.32 21 -8.64 21 -10 21 C-10.66 19.02 -11.32 17.04 -12 15 C-10.68 14.67 -9.36 14.34 -8 14 C-8 13.01 -8 12.02 -8 11 C-5.625 8.3125 -5.625 8.3125 -3 6 C-2.34 6 -1.68 6 -1 6 C-1.020625 5.195625 -1.04125 4.39125 -1.0625 3.5625 C-1 1 -1 1 0 0 Z " fill="#0C0E0F" transform="translate(173,43)"/>
<path d="M0 0 C3.93778511 0.1387078 7.87514223 0.28718492 11.8125 0.4375 C12.93205078 0.47681641 14.05160156 0.51613281 15.20507812 0.55664062 C16.81479492 0.61948242 16.81479492 0.61948242 18.45703125 0.68359375 C19.44678955 0.72025146 20.43654785 0.75690918 21.45629883 0.79467773 C24 1 24 1 27 2 C27.495 3.485 27.495 3.485 28 5 C14.8 5 1.6 5 -12 5 C-12 4.67 -12 4.34 -12 4 C-6.72 4 -1.44 4 4 4 C4 3.01 4 2.02 4 1 C2.68 0.67 1.36 0.34 0 0 Z " fill="#E6B4C4" transform="translate(72,181)"/>
<path d="M0 0 C0 0.66 0 1.32 0 2 C-4.35332736 2.84023188 -8.44442519 3.10770995 -12.875 3.0625 C-14.02742188 3.05347656 -15.17984375 3.04445312 -16.3671875 3.03515625 C-17.23601562 3.02355469 -18.10484375 3.01195312 -19 3 C-19 3.66 -19 4.32 -19 5 C-24.61 5 -30.22 5 -36 5 C-35.67 4.34 -35.34 3.68 -35 3 C-31.7 3 -28.4 3 -25 3 C-25 2.01 -25 1.02 -25 0 C-3.18181818 -1.59090909 -3.18181818 -1.59090909 0 0 Z " fill="#D5B5C1" transform="translate(169,183)"/>
<path d="M0 0 C2.3125 -0.3125 2.3125 -0.3125 5 0 C6.6875 2.3125 6.6875 2.3125 8 5 C8.99 6.485 8.99 6.485 10 8 C10.1875 11.125 10.1875 11.125 10 14 C9 15 9 15 6.4375 15.0625 C5.633125 15.041875 4.82875 15.02125 4 15 C0.40621058 9.60931587 -0.45356243 6.46326465 0 0 Z " fill="#0A0606" transform="translate(157,68)"/>
<path d="M0 0 C0.33 0.33 0.66 0.66 1 1 C2.4887186 1.08669432 3.981445 1.10703494 5.47265625 1.09765625 C6.82133789 1.09282227 6.82133789 1.09282227 8.19726562 1.08789062 C9.14279297 1.07951172 10.08832031 1.07113281 11.0625 1.0625 C12.01189453 1.05798828 12.96128906 1.05347656 13.93945312 1.04882812 C16.29303065 1.0370011 18.64648477 1.02052025 21 1 C21 1.66 21 2.32 21 3 C19.35 3.33 17.7 3.66 16 4 C16 4.99 16 5.98 16 7 C11.71 7 7.42 7 3 7 C3 6.01 3 5.02 3 4 C-1.29 4 -5.58 4 -10 4 C-6.67592877 0.67592877 -4.64631767 -0.36681455 0 0 Z " fill="#D48097" transform="translate(78,139)"/>
<path d="M0 0 C0.99 0 1.98 0 3 0 C2.67 2.64 2.34 5.28 2 8 C3.98 8 5.96 8 8 8 C7.67 9.32 7.34 10.64 7 12 C6.34 12 5.68 12 5 12 C5.04125 13.2375 5.0825 14.475 5.125 15.75 C5.13658291 19.01637962 4.8568702 21.2146947 3 24 C2.01 24 1.02 24 0 24 C0 16.08 0 8.16 0 0 Z " fill="#F3E9EE" transform="translate(0,119)"/>
<path d="M0 0 C0.99 0.66 1.98 1.32 3 2 C3.66 2 4.32 2 5 2 C4.04792348 4.44819677 3.12494122 6.78299682 1.8125 9.0625 C0.81028526 11.4523967 1.14419702 12.60375166 2 15 C1.34 15 0.68 15 0 15 C-0.07654536 19.51617599 -0.10228696 23.59085217 1 28 C0.01 27.67 -0.98 27.34 -2 27 C-2 26.34 -2 25.68 -2 25 C-2.66 25 -3.32 25 -4 25 C-4.18264751 16.05027211 -3.03960126 8.43059218 0 0 Z " fill="#E69CB9" transform="translate(9,130)"/>
<path d="M0 0 C1.32 0 2.64 0 4 0 C4 1.32 4 2.64 4 4 C4.99 4 5.98 4 7 4 C7 7.96 7 11.92 7 16 C5.35 16 3.7 16 2 16 C1 15 1 15 0.9375 12.4375 C0.958125 11.633125 0.97875 10.82875 1 10 C0.34 10 -0.32 10 -1 10 C-1.02689216 8.52093108 -1.04634621 7.04172517 -1.0625 5.5625 C-1.07410156 4.73878906 -1.08570313 3.91507812 -1.09765625 3.06640625 C-1 1 -1 1 0 0 Z " fill="#25181B" transform="translate(133,92)"/>
<path d="M0 0 C0 0.66 0 1.32 0 2 C5.61 2.66 11.22 3.32 17 4 C17 4.66 17 5.32 17 6 C18.98 6 20.96 6 23 6 C23 6.66 23 7.32 23 8 C20.03 8 17.06 8 14 8 C14 7.34 14 6.68 14 6 C13.39414062 6.03480469 12.78828125 6.06960937 12.1640625 6.10546875 C6.4275292 6.2908029 1.75402173 5.61170661 -3.67578125 3.75390625 C-6.09861797 2.96801132 -8.49617104 2.45645024 -11 2 C-11 1.01 -11 0.02 -11 -1 C-6.58937864 -2.0257259 -4.07369424 -2.03684712 0 0 Z " fill="#623F4C" transform="translate(14,177)"/>
<path d="M0 0 C4 2 4 2 5.125 5.25 C5.41375 6.4875 5.7025 7.725 6 9 C6.37125 10.0725 6.7425 11.145 7.125 12.25 C8 15 8 15 8 18 C6.35 18 4.7 18 3 18 C3 17.34 3 16.68 3 16 C2.01 16 1.02 16 0 16 C0 10.72 0 5.44 0 0 Z " fill="#A46581" transform="translate(0,158)"/>
<path d="M0 0 C0.08107583 1.93681161 0.13922475 3.8745934 0.1875 5.8125 C0.22230469 6.89144531 0.25710937 7.97039062 0.29296875 9.08203125 C0 12 0 12 -1.37890625 13.90234375 C-3 15 -3 15 -5.125 14.75 C-7 14 -7 14 -8 13 C-8.04458152 8.60426226 -7.7500517 5.02507065 -5.125 1.4375 C-3 0 -3 0 0 0 Z " fill="#3F2429" transform="translate(54,88)"/>
<path d="M0 0 C1.60495567 0.11442461 3.20898119 0.24194694 4.8125 0.375 C5.70582031 0.44460937 6.59914063 0.51421875 7.51953125 0.5859375 C10 1 10 1 13 3 C12.34 3 11.68 3 11 3 C10.67 4.32 10.34 5.64 10 7 C9.11957031 6.97679687 8.23914063 6.95359375 7.33203125 6.9296875 C6.17058594 6.91164063 5.00914063 6.89359375 3.8125 6.875 C2.66394531 6.85179687 1.51539062 6.82859375 0.33203125 6.8046875 C-2.91740372 6.99515848 -5.08660521 7.60639873 -8 9 C-6.9893322 5.96799661 -6.36506843 5.00121175 -4 3 C-3.01 2.67 -2.02 2.34 -1 2 C-0.67 1.34 -0.34 0.68 0 0 Z " fill="#F2ADCC" transform="translate(103,40)"/>
<path d="M0 0 C1.65 0 3.3 0 5 0 C5 0.99 5 1.98 5 3 C3.88625 3.226875 2.7725 3.45375 1.625 3.6875 C-2.16038373 4.60623658 -2.16038373 4.60623658 -3.4375 7.625 C-3.7159375 8.800625 -3.7159375 8.800625 -4 10 C-3.34 10 -2.68 10 -2 10 C-2.66 11.65 -3.32 13.3 -4 15 C-5.65 15 -7.3 15 -9 15 C-9 13.68 -9 12.36 -9 11 C-9.33 11.66 -9.66 12.32 -10 13 C-10.66 13 -11.32 13 -12 13 C-11.37215066 10.07003641 -10.71202908 7.48244217 -9 5 C-6.375 4.25 -6.375 4.25 -4 4 C-4 3.34 -4 2.68 -4 2 C-2.68 2 -1.36 2 0 2 C0 1.34 0 0.68 0 0 Z " fill="#A8375A" transform="translate(58,123)"/>
<path d="M0 0 C0.83144531 0.05220703 1.66289063 0.10441406 2.51953125 0.15820312 C4.55508108 0.28688731 6.59010441 0.42385407 8.625 0.5625 C8.625 1.2225 8.625 1.8825 8.625 2.5625 C5.655 2.5625 2.685 2.5625 -0.375 2.5625 C-0.375 3.2225 -0.375 3.8825 -0.375 4.5625 C-1.12265625 4.62308594 -1.8703125 4.68367188 -2.640625 4.74609375 C-3.62546875 4.82988281 -4.6103125 4.91367187 -5.625 5 C-7.08679688 5.12181641 -7.08679688 5.12181641 -8.578125 5.24609375 C-10.93961753 5.51324584 -13.09401065 5.91621968 -15.375 6.5625 C-15.375 4.5825 -15.375 2.6025 -15.375 0.5625 C-10.12418443 -0.58452282 -5.30983462 -0.36838566 0 0 Z " fill="#F2DFE5" transform="translate(82.375,33.4375)"/>
<path d="M0 0 C1.65 0 3.3 0 5 0 C5 0.66 5 1.32 5 2 C6.65 2 8.3 2 10 2 C10.12375 2.86625 10.12375 2.86625 10.25 3.75 C10.85805014 6.15141828 10.85805014 6.15141828 12.9375 7.875 C15.39795079 10.41000991 16.08043573 12.62826436 17 16 C17.66 16 18.32 16 19 16 C19.66 18.64 20.32 21.28 21 24 C20.34 23.67 19.68 23.34 19 23 C18.66666667 21.66666667 18.33333333 20.33333333 18 19 C17.34 18.67 16.68 18.34 16 18 C16 17.01 16 16.02 16 15 C15.1028125 14.8453125 15.1028125 14.8453125 14.1875 14.6875 C11.60614427 13.87621677 10.66482877 13.11887297 9 11 C7.8125 8.3125 7.8125 8.3125 7 6 C6.01 6 5.02 6 4 6 C3.67 4.68 3.34 3.36 3 2 C2.01 2 1.02 2 0 2 C0 1.34 0 0.68 0 0 Z " fill="#210203" transform="translate(140,34)"/>
<path d="M0 0 C0.77085938 -0.00257812 1.54171875 -0.00515625 2.3359375 -0.0078125 C4.5578189 0.12110212 6.49118508 0.51116283 8.625 1.125 C8.625 1.785 8.625 2.445 8.625 3.125 C7.305 3.125 5.985 3.125 4.625 3.125 C4.295 4.775 3.965 6.425 3.625 8.125 C0.655 7.63 0.655 7.63 -2.375 7.125 C-2.375 6.465 -2.375 5.805 -2.375 5.125 C-5.675 5.125 -8.975 5.125 -12.375 5.125 C-12.705 4.465 -13.035 3.805 -13.375 3.125 C-11.065 3.125 -8.755 3.125 -6.375 3.125 C-6.375 2.465 -6.375 1.805 -6.375 1.125 C-4.03562093 -0.04468953 -2.60130632 -0.00864221 0 0 Z " fill="#EFDFE5" transform="translate(116.375,32.875)"/>
<path d="M0 0 C2.625 -0.1875 2.625 -0.1875 5 0 C4.67 1.98 4.34 3.96 4 6 C6.475 6.99 6.475 6.99 9 8 C9 8.99 9 9.98 9 11 C7.37509046 11.02698189 5.75005367 11.04638757 4.125 11.0625 C2.76761719 11.07990234 2.76761719 11.07990234 1.3828125 11.09765625 C-1 11 -1 11 -3 10 C-2.25 3.375 -2.25 3.375 0 0 Z " fill="#9D153C" transform="translate(110,125)"/>
<path d="M0 0 C2 1 2 1 3.125 4.0625 C3.41375 5.031875 3.7025 6.00125 4 7 C3.01 7 2.02 7 1 7 C1 7.66 1 8.32 1 9 C-3.62 9.33 -8.24 9.66 -13 10 C-13 9.01 -13 8.02 -13 7 C-11.68 6.67 -10.36 6.34 -9 6 C-9 5.34 -9 4.68 -9 4 C-6.03 4 -3.06 4 0 4 C0 2.68 0 1.36 0 0 Z " fill="#D04E72" transform="translate(67,132)"/>
<path d="M0 0 C0 0.99 0 1.98 0 3 C-6.14338683 6.07169341 -14.69503834 3.70569011 -21 2 C-21 1.34 -21 0.68 -21 0 C-14.38887206 -2.20370931 -6.77840295 -1.20504941 0 0 Z " fill="#E85D84" transform="translate(125,139)"/>
<path d="M0 0 C1.65 0.33 3.3 0.66 5 1 C5.19844701 6.1530074 4.57919878 10.37140851 3.125 15.3125 C2.60292969 17.13201172 2.60292969 17.13201172 2.0703125 18.98828125 C1 22 1 22 -1 24 C-1 20.04 -1 16.08 -1 12 C-0.01 11.67 0.98 11.34 2 11 C1.484375 10.67 0.96875 10.34 0.4375 10 C-1.33227513 7.53770416 -1.07158882 6.74507002 -0.6875 3.8125 C-0.460625 2.554375 -0.23375 1.29625 0 0 Z " fill="#E8E8E8" transform="translate(132,2)"/>
<path d="M0 0 C1.06541016 0.00902344 2.13082031 0.01804688 3.22851562 0.02734375 C5.84008034 0.05076586 8.45116937 0.08356548 11.0625 0.125 C8.04920079 3.13829921 4.55126108 2.5517556 0.5 2.6875 C-1.1341958 2.75857311 -2.76831337 2.83147012 -4.40234375 2.90625 C-5.57772705 2.95845703 -5.57772705 2.95845703 -6.77685547 3.01171875 C-10.52294596 3.20812395 -14.21911297 3.64298687 -17.9375 4.125 C-17.9375 5.115 -17.9375 6.105 -17.9375 7.125 C-18.5975 7.125 -19.2575 7.125 -19.9375 7.125 C-19.9375 7.785 -19.9375 8.445 -19.9375 9.125 C-20.5975 9.125 -21.2575 9.125 -21.9375 9.125 C-20.0625 4.375 -20.0625 4.375 -18.9375 2.125 C-12.71013856 -0.34521549 -6.62146043 -0.10686404 0 0 Z " fill="#D295A8" transform="translate(82.9375,37.875)"/>
<path d="M0 0 C0.9991932 3.10860106 0.83036989 4.88611292 0 8 C0.33 8.66 0.66 9.32 1 10 C0.06553465 12.03144641 -0.93224776 14.03533587 -2 16 C-4.64 15.67 -7.28 15.34 -10 15 C-9.67 17.64 -9.34 20.28 -9 23 C-9.66 23 -10.32 23 -11 23 C-12.26026798 20.47946405 -11.91874445 19.1457902 -11.5625 16.375 C-11.46066406 15.55773438 -11.35882813 14.74046875 -11.25390625 13.8984375 C-11.17011719 13.27195312 -11.08632812 12.64546875 -11 12 C-8.69 12 -6.38 12 -4 12 C-3.79503906 11.30132812 -3.59007812 10.60265625 -3.37890625 9.8828125 C-3.10949219 8.97273438 -2.84007812 8.06265625 -2.5625 7.125 C-2.29566406 6.22007813 -2.02882812 5.31515625 -1.75390625 4.3828125 C-1 2 -1 2 0 0 Z " fill="#544144" transform="translate(132,24)"/>
<path d="M0 0 C1.9375 0.8125 1.9375 0.8125 4 2 C4.33 2.99 4.66 3.98 5 5 C6.65 5.33 8.3 5.66 10 6 C10 7.32 10 8.64 10 10 C11.32 10.33 12.64 10.66 14 11 C13.01 11.33 12.02 11.66 11 12 C10.34 11.67 9.68 11.34 9 11 C9 11.99 9 12.98 9 14 C4.125 12.25 4.125 12.25 3 10 C3.28112064 7.99199544 3.61067967 5.98985949 4 4 C3.01 4 2.02 4 1 4 C0.67 2.68 0.34 1.36 0 0 Z " fill="#2C090C" transform="translate(139,47)"/>
<path d="M0 0 C4.95 0 9.9 0 15 0 C15 0.66 15 1.32 15 2 C17.97 2.495 17.97 2.495 21 3 C21.33 4.98 21.66 6.96 22 9 C20.68 9 19.36 9 18 9 C17.67 7.68 17.34 6.36 17 5 C11.3297637 3.45357192 5.852795 2.51482919 0 2 C0 1.34 0 0.68 0 0 Z " fill="#D694B1" transform="translate(99,38)"/>
<path d="M0 0 C0.99 0 1.98 0 3 0 C3 6.93 3 13.86 3 21 C2.01 21.33 1.02 21.66 0 22 C0 14.74 0 7.48 0 0 Z " fill="#FEFEFE" transform="translate(0,0)"/>
<path d="M0 0 C1.98 0 3.96 0 6 0 C6.06058594 0.72445312 6.12117187 1.44890625 6.18359375 2.1953125 C6.70708128 8.3104903 6.70708128 8.3104903 7.625 14.375 C8.02808466 17.1965926 7.72521296 19.26030661 7 22 C6.67 22 6.34 22 6 22 C5.73445312 20.83082031 5.46890625 19.66164063 5.1953125 18.45703125 C4.83875149 16.90880583 4.48196898 15.36063141 4.125 13.8125 C3.95097656 13.04357422 3.77695313 12.27464844 3.59765625 11.48242188 C2.67454956 7.49938746 1.66927814 3.75211617 0 0 Z " fill="#F7E6EA" transform="translate(169,97)"/>
<path d="M0 0 C2.4375 0.625 2.4375 0.625 5 2 C5.33 3.98 5.66 5.96 6 8 C0.06 7.67 -5.88 7.34 -12 7 C-11.67 5.35 -11.34 3.7 -11 2 C-10.34 1.67 -9.68 1.34 -9 1 C-9 1.99 -9 2.98 -9 4 C-5.04 4.33 -1.08 4.66 3 5 C3 4.01 3 3.02 3 2 C2.01 1.67 1.02 1.34 0 1 C0 0.67 0 0.34 0 0 Z " fill="#C13D63" transform="translate(116,131)"/>
<path d="M0 0 C1.32 0 2.64 0 4 0 C3.95875 0.928125 3.9175 1.85625 3.875 2.8125 C3.72863661 6.15809719 3.72863661 6.15809719 6 9 C1.73383684 10.13764351 -1.56486311 11 -6 11 C-5.34 9.02 -4.68 7.04 -4 5 C-0.535 4.505 -0.535 4.505 3 4 C3 3.01 3 2.02 3 1 C2.01 0.67 1.02 0.34 0 0 Z " fill="#E26A8D" transform="translate(60,122)"/>
<path d="M0 0 C2.375 0.25 2.375 0.25 5 1 C6.125 3 6.125 3 7 5 C7.99 5.33 8.98 5.66 10 6 C10 7.98 10 9.96 10 12 C8.68 11.67 7.36 11.34 6 11 C5.67 9.35 5.34 7.7 5 6 C3.35 5.67 1.7 5.34 0 5 C0 3.35 0 1.7 0 0 Z " fill="#750306" transform="translate(134,35)"/>
<path d="M0 0 C3.3566285 2.23775234 3.57996014 2.93320048 4.6875 6.625 C4.93886719 7.44226563 5.19023437 8.25953125 5.44921875 9.1015625 C5.72185547 10.04128906 5.72185547 10.04128906 6 11 C5.01 11.66 4.02 12.32 3 13 C2.67 12.34 2.34 11.68 2 11 C1.01 12.485 1.01 12.485 0 14 C0 12.68 0 11.36 0 10 C-0.66 10 -1.32 10 -2 10 C-2 8.02 -2 6.04 -2 4 C-1.34 4 -0.68 4 0 4 C0 2.68 0 1.36 0 0 Z " fill="#E7ACBB" transform="translate(154,71)"/>
<path d="M0 0 C1.32 0 2.64 0 4 0 C4 0.66 4 1.32 4 2 C6.97 2 9.94 2 13 2 C13 1.34 13 0.68 13 0 C18.61 0 24.22 0 30 0 C30 0.66 30 1.32 30 2 C4.36363636 4.18181818 4.36363636 4.18181818 0 2 C0 1.34 0 0.68 0 0 Z " fill="#80666D" transform="translate(24,183)"/>
<path d="M0 0 C0 1.32 0 2.64 0 4 C-7.17859349 6.04061541 -13.52605426 7.37369729 -21 7 C-21 6.34 -21 5.68 -21 5 C-15.61972975 3.80911014 -10.54708616 2.7080481 -5 3 C-5 2.34 -5 1.68 -5 1 C-3 0 -3 0 0 0 Z " fill="#7A555F" transform="translate(188,176)"/>
<path d="M0 0 C2.41696872 -0.05411124 4.83271787 -0.09372278 7.25 -0.125 C7.93191406 -0.14175781 8.61382812 -0.15851563 9.31640625 -0.17578125 C13.0608235 -0.21213482 15.82352727 -0.07944349 19 2 C19 2.33 19 2.66 19 3 C12.4 3 5.8 3 -1 3 C-0.67 2.01 -0.34 1.02 0 0 Z " fill="#EFE9EB" transform="translate(177,190)"/>
<path d="M0 0 C0.99 0.495 0.99 0.495 2 1 C4.204364 1.22950319 6.41392173 1.41075933 8.625 1.5625 C9.81351563 1.64628906 11.00203125 1.73007813 12.2265625 1.81640625 C13.59941406 1.90728516 13.59941406 1.90728516 15 2 C15 2.99 15 3.98 15 5 C10.05 5.33 5.1 5.66 0 6 C0 4.02 0 2.04 0 0 Z " fill="#981E42" transform="translate(46,141)"/>
<path d="M0 0 C4.68738665 0.90723613 9.34193744 1.9547267 14 3 C12.68 4.32 11.36 5.64 10 7 C12.31 7 14.62 7 17 7 C17 7.33 17 7.66 17 8 C8.42857143 8.14285714 8.42857143 8.14285714 5 7 C5 6.01 5 5.02 5 4 C3.35 3.67 1.7 3.34 0 3 C0 2.01 0 1.02 0 0 Z " fill="#B24B67" transform="translate(99,139)"/>
<path d="M0 0 C1.66611905 -0.042721 3.33382885 -0.04063832 5 0 C5.33 0.33 5.66 0.66 6 1 C7.84891946 1.23363881 9.70488031 1.41303635 11.5625 1.5625 C12.57441406 1.64628906 13.58632812 1.73007813 14.62890625 1.81640625 C15.80259766 1.90728516 15.80259766 1.90728516 17 2 C16.67 2.66 16.34 3.32 16 4 C9.83754289 5.12365904 3.74763027 5.12152558 -2.5 5.0625 C-3.4178125 5.05798828 -4.335625 5.05347656 -5.28125 5.04882812 C-7.52090391 5.03716326 -9.76041545 5.02079614 -12 5 C-12 4.67 -12 4.34 -12 4 C-6.72 4 -1.44 4 4 4 C4 3.01 4 2.02 4 1 C2.68 0.67 1.36 0.34 0 0 Z " fill="#CBA6B1" transform="translate(72,181)"/>
<path d="M0 0 C1.32 0 2.64 0 4 0 C4 1.32 4 2.64 4 4 C4.66 4 5.32 4 6 4 C6 4.66 6 5.32 6 6 C6.99 5.67 7.98 5.34 9 5 C8.979375 5.969375 8.95875 6.93875 8.9375 7.9375 C8.64381501 10.87465895 8.64381501 10.87465895 10 12 C10.14115161 14.67058851 10.04247107 17.32432238 10 20 C9.67 20 9.34 20 9 20 C8.67 17.36 8.34 14.72 8 12 C7.34 12 6.68 12 6 12 C5.9175 11.05125 5.835 10.1025 5.75 9.125 C5.5025 8.09375 5.255 7.0625 5 6 C3.03327085 4.8499169 3.03327085 4.8499169 1 4 C0.25 1.875 0.25 1.875 0 0 Z " fill="#F6E3E9" transform="translate(180,127)"/>
<path d="M0 0 C0.66 0 1.32 0 2 0 C2.33 1.32 2.66 2.64 3 4 C3.99 4 4.98 4 6 4 C7.125 7.75 7.125 7.75 6 10 C4.35 9.67 2.7 9.34 1 9 C1 8.01 1 7.02 1 6 C0.21625 5.87625 -0.5675 5.7525 -1.375 5.625 C-4 5 -4 5 -6 3 C-3.03 3.495 -3.03 3.495 0 4 C0 2.68 0 1.36 0 0 Z " fill="#190C10" transform="translate(137,47)"/>
<path d="M0 0 C0 1.65 0 3.3 0 5 C-2.97 5 -5.94 5 -9 5 C-9.33 5.66 -9.66 6.32 -10 7 C-10 6.34 -10 5.68 -10 5 C-10.66 4.67 -11.32 4.34 -12 4 C-8.47224824 -0.05691453 -5.19281521 -0.14424487 0 0 Z " fill="#AF2E52" transform="translate(67,131)"/>
<path d="M0 0 C0.66 0 1.32 0 2 0 C2 0.66 2 1.32 2 2 C3.98 2 5.96 2 8 2 C8 2.99 8 3.98 8 5 C11.3 4.67 14.6 4.34 18 4 C18.33 4.99 18.66 5.98 19 7 C20.98 7 22.96 7 25 7 C25 7.33 25 7.66 25 8 C22.36 8 19.72 8 17 8 C17 7.34 17 6.68 17 6 C16.27554687 6.02320313 15.55109375 6.04640625 14.8046875 6.0703125 C4.52442159 6.2622108 4.52442159 6.2622108 0 4 C-0.33 3.01 -0.66 2.02 -1 1 C-0.67 0.67 -0.34 0.34 0 0 Z " fill="#C78A9C" transform="translate(14,175)"/>
<path d="M0 0 C1.65 0 3.3 0 5 0 C5.33 0.66 5.66 1.32 6 2 C2.38026598 3.31626692 -0.09567131 4 -4 4 C-4 4.99 -4 5.98 -4 7 C-6.52475462 8.26237731 -8.31200466 8.09856404 -11.125 8.0625 C-12.03507812 8.05347656 -12.94515625 8.04445312 -13.8828125 8.03515625 C-14.58148438 8.02355469 -15.28015625 8.01195312 -16 8 C-16 7.67 -16 7.34 -16 7 C-13.03 7 -10.06 7 -7 7 C-7 6.01 -7 5.02 -7 4 C-7.66 3.67 -8.32 3.34 -9 3 C-6.04335481 1.5216774 -3.25770263 1.93967217 0 2 C0 1.34 0 0.68 0 0 Z " fill="#9C2F4F" transform="translate(68,139)"/>
<path d="M0 0 C2.97 0.495 2.97 0.495 6 1 C6 1.99 6 2.98 6 4 C6.99 4.33 7.98 4.66 9 5 C9.33 7.31 9.66 9.62 10 12 C9.34 12 8.68 12 8 12 C7.54625 11.21625 7.0925 10.4325 6.625 9.625 C5.25954308 6.88627873 5.25954308 6.88627873 2.875 6 C2.25625 5.67 1.6375 5.34 1 5 C0.25 2.375 0.25 2.375 0 0 Z " fill="#850E17" transform="translate(148,52)"/>
<path d="M0 0 C0.99 0 1.98 0 3 0 C3 0.66 3 1.32 3 2 C3.99 2 4.98 2 6 2 C6 5.63 6 9.26 6 13 C5.01 12.67 4.02 12.34 3 12 C3.33 9.69 3.66 7.38 4 5 C2.68 5 1.36 5 0 5 C0 3.35 0 1.7 0 0 Z " fill="#B76D8D" transform="translate(193,163)"/>
<path d="M0 0 C0.99 0 1.98 0 3 0 C2.28528402 6.0750858 -1.36975626 10.28068314 -5 15 C-5 14.34 -5 13.68 -5 13 C-5.66 12.67 -6.32 12.34 -7 12 C-6.401875 11.13375 -5.80375 10.2675 -5.1875 9.375 C-3.17955466 6.37380056 -1.55344902 3.26224294 0 0 Z " fill="#916D78" transform="translate(40,61)"/>
<path d="M0 0 C2.1875 -0.5 2.1875 -0.5 5 0 C6.50602515 1.92314582 7.63908537 3.90137462 8.7890625 6.0546875 C9.99980546 8.29831629 9.99980546 8.29831629 13 10 C13.6875 12.625 13.6875 12.625 14 15 C10.17475764 13.549046 8.80909034 11.61818068 7 8 C7 7.34 7 6.68 7 6 C6.01 6 5.02 6 4 6 C3.67 4.68 3.34 3.36 3 2 C2.01 2 1.02 2 0 2 C0 1.34 0 0.68 0 0 Z " fill="#2C0205" transform="translate(140,34)"/>
<path d="M0 0 C0.99 0.33 1.98 0.66 3 1 C3 5.62 3 10.24 3 15 C2.01 15 1.02 15 0 15 C0 10.05 0 5.1 0 0 Z " fill="#F8E9F0" transform="translate(0,158)"/>
<path d="M0 0 C1.32 0.33 2.64 0.66 4 1 C3.67 1.99 3.34 2.98 3 4 C2.34 4 1.68 4 1 4 C1.04125 5.2375 1.0825 6.475 1.125 7.75 C1.13658291 11.01637962 0.8568702 13.2146947 -1 16 C-1.33 16 -1.66 16 -2 16 C-2.05402274 13.89611431 -2.09280256 11.79183286 -2.125 9.6875 C-2.14820313 8.51574219 -2.17140625 7.34398437 -2.1953125 6.13671875 C-2 3 -2 3 0 0 Z " fill="#E6D2DA" transform="translate(4,127)"/>
<path d="M0 0 C0.5625 1.9375 0.5625 1.9375 1 4 C0.67 4.33 0.34 4.66 0 5 C-0.23075082 6.34747084 -0.41153063 7.70377565 -0.5625 9.0625 C-0.706875 10.361875 -0.85125 11.66125 -1 13 C0.32 13 1.64 13 3 13 C3.185625 11.1128125 3.185625 11.1128125 3.375 9.1875 C3.69868059 5.89674737 4.06604999 4.90092502 6 2 C5.94004678 3.79260132 5.8512759 5.58425795 5.75 7.375 C5.70359375 8.37273437 5.6571875 9.37046875 5.609375 10.3984375 C5 13 5 13 3.140625 14.3515625 C1 15 1 15 -2 15 C-2.05406122 13.06280622 -2.09282025 11.12518079 -2.125 9.1875 C-2.14820313 8.10855469 -2.17140625 7.02960938 -2.1953125 5.91796875 C-2 3 -2 3 0 0 Z " fill="#F7DDE5" transform="translate(66,83)"/>
<path d="M0 0 C0.66 0.33 1.32 0.66 2 1 C1.525625 1.9075 1.05125 2.815 0.5625 3.75 C-0.64628821 6.26427949 -1.47993886 8.29568209 -2 11 C-3.98 11.33 -5.96 11.66 -8 12 C-7.8125 9.6875 -7.8125 9.6875 -7 7 C-5.36368108 5.95107762 -3.69514137 4.95093297 -2 4 C-0.67206394 1.93299345 -0.67206394 1.93299345 0 0 Z " fill="#CFCDCF" transform="translate(175,52)"/>
<path d="M0 0 C0.99 0 1.98 0 3 0 C3 2.97 3 5.94 3 9 C1.35 9 -0.3 9 -2 9 C-2.125 5.625 -2.125 5.625 -2 2 C-1.34 1.34 -0.68 0.68 0 0 Z " fill="#0F0304" transform="translate(51,88)"/>
<path d="M0 0 C4.62 0 9.24 0 14 0 C14 0.33 14 0.66 14 1 C11.69 1 9.38 1 7 1 C6.67 3.31 6.34 5.62 6 8 C1.125 3.375 1.125 3.375 0 0 Z " fill="#D4D5D7" transform="translate(169,33)"/>
<path d="M0 0 C0.66 0 1.32 0 2 0 C1.32648181 2.86245231 0.47328234 5.60114533 -0.5 8.375 C-1.69429193 11.89961764 -2.52523553 15.29683716 -3 19 C-3.66 19 -4.32 19 -5 19 C-5.8089913 11.8808766 -2.93279777 6.37883514 0 0 Z " fill="#674551" transform="translate(11,119)"/>
<path d="M0 0 C2.375 0.6875 2.375 0.6875 5 2 C6.3125 4.625 6.3125 4.625 7 7 C7.66 5.35 8.32 3.7 9 2 C9.33 2 9.66 2 10 2 C10.04254356 3.99954746 10.04080783 6.00041636 10 8 C9 9 9 9 6.4375 9.0625 C5.633125 9.041875 4.82875 9.02125 4 9 C0 2.25 0 2.25 0 0 Z " fill="#432D31" transform="translate(157,74)"/>
<path d="M0 0 C2.66666667 1.33333333 5.33333333 2.66666667 8 4 C8 4.99 8 5.98 8 7 C6.35 7 4.7 7 3 7 C2.67 7.66 2.34 8.32 2 9 C-0.29013653 5.5647952 -0.17842973 4.014669 0 0 Z " fill="#DAA7B7" transform="translate(140,57)"/>
<path d="M0 0 C0.99 0 1.98 0 3 0 C3.508783 1.55966218 4.00663469 3.12289241 4.5 4.6875 C4.7784375 5.55761719 5.056875 6.42773438 5.34375 7.32421875 C5.99850805 9.99391677 6.11831495 12.26396684 6 15 C4.5 13.75 4.5 13.75 3 12 C3 10.68 3 9.36 3 8 C2.34 8 1.68 8 1 8 C0.67 5.36 0.34 2.72 0 0 Z " fill="#C897A6" transform="translate(162,83)"/>
<path d="M0 0 C1.051875 -0.00386719 1.051875 -0.00386719 2.125 -0.0078125 C4 0.125 4 0.125 6 1.125 C6 1.785 6 2.445 6 3.125 C0.06 3.62 0.06 3.62 -6 4.125 C-6 3.135 -6 2.145 -6 1.125 C-3.75487738 0.00243869 -2.48543351 -0.00913762 0 0 Z " fill="#8C7179" transform="translate(163,181.875)"/>
<path d="M0 0 C5.61 0 11.22 0 17 0 C17 0.66 17 1.32 17 2 C9.08 2.495 9.08 2.495 1 3 C0.67 2.01 0.34 1.02 0 0 Z " fill="#D9ADBB" transform="translate(99,183)"/>
<path d="M0 0 C0.66 0 1.32 0 2 0 C2 0.99 2 1.98 2 3 C9.59 3 17.18 3 25 3 C25 3.33 25 3.66 25 4 C20.93751511 4.02909769 16.87505714 4.04683174 12.8125 4.0625 C11.08676758 4.07506836 11.08676758 4.07506836 9.32617188 4.08789062 C8.21435547 4.09111328 7.10253906 4.09433594 5.95703125 4.09765625 C4.93585205 4.10289307 3.91467285 4.10812988 2.86254883 4.11352539 C0.13098384 4.00519467 -2.34169374 3.61706868 -5 3 C-4.360625 2.690625 -3.72125 2.38125 -3.0625 2.0625 C-1.06389179 1.1654837 -1.06389179 1.1654837 0 0 Z " fill="#DFB3C0" transform="translate(39,179)"/>
<path d="M0 0 C0.99 0.66 1.98 1.32 3 2 C3 3.32 3 4.64 3 6 C3.99 6 4.98 6 6 6 C6 6.66 6 7.32 6 8 C5.34 8 4.68 8 4 8 C3.67 9.65 3.34 11.3 3 13 C2.67 12.01 2.34 11.02 2 10 C-0.50447516 8.78130071 -0.50447516 8.78130071 -3 8 C-3 7.34 -3 6.68 -3 6 C-1.35 6 0.3 6 2 6 C1.34 4.02 0.68 2.04 0 0 Z " fill="#5F1F21" transform="translate(160,58)"/>
<path d="M0 0 C-0.25 1.875 -0.25 1.875 -1 4 C-3.0625 5.25 -3.0625 5.25 -5 6 C-5 4.68 -5 3.36 -5 2 C-2 0 -2 0 0 0 Z M-8 6 C-7.01 6.33 -6.02 6.66 -5 7 C-5.99 7.33 -6.98 7.66 -8 8 C-8.33 8.99 -8.66 9.98 -9 11 C-11.0625 12.1875 -11.0625 12.1875 -13 13 C-12.6189482 10.23737447 -12.16402868 9.15856106 -10.125 7.1875 C-9.42375 6.795625 -8.7225 6.40375 -8 6 Z " fill="#E8A3B8" transform="translate(56,51)"/>
<path d="M0 0 C1.258125 -0.04125 2.51625 -0.0825 3.8125 -0.125 C4.52019531 -0.14820313 5.22789063 -0.17140625 5.95703125 -0.1953125 C8 0 8 0 11 2 C11.99 2.33 12.98 2.66 14 3 C13 4 13 4 9.83984375 4.09765625 C7.90818359 4.08025391 7.90818359 4.08025391 5.9375 4.0625 C4.64714844 4.05347656 3.35679688 4.04445312 2.02734375 4.03515625 C1.02832031 4.02355469 0.02929688 4.01195312 -1 4 C0.32 3.67 1.64 3.34 3 3 C3 2.34 3 1.68 3 1 C2.01 0.67 1.02 0.34 0 0 Z " fill="#F3ADC1" transform="translate(85,147)"/>
<path d="M0 0 C1.98 0.99 1.98 0.99 4 2 C4 6.29 4 10.58 4 15 C3.34 15 2.68 15 2 15 C2 14.01 2 13.02 2 12 C1.34 11.67 0.68 11.34 0 11 C0.66 10.67 1.32 10.34 2 10 C2 8.35 2 6.7 2 5 C1.34 5 0.68 5 0 5 C0 3.35 0 1.7 0 0 Z " fill="#AC566E" transform="translate(123,131)"/>
<path d="M0 0 C-0.33 0.66 -0.66 1.32 -1 2 C-1.99 2.33 -2.98 2.66 -4 3 C-4.73323796 5.01508358 -4.73323796 5.01508358 -5 7 C-6.32 7 -7.64 7 -9 7 C-9.66 5.02 -10.32 3.04 -11 1 C-7.27569643 0.30710631 -3.78916254 -0.11144596 0 0 Z " fill="#230402" transform="translate(172,57)"/>
<path d="M0 0 C0.99 0 1.98 0 3 0 C4.40113616 1.95309888 5.73339467 3.95708818 7 6 C7.66 6.66 8.32 7.32 9 8 C9.125 10.625 9.125 10.625 9 13 C7 11.6875 7 11.6875 5 10 C5 9.01 5 8.02 5 7 C4.01 6.67 3.02 6.34 2 6 C0.8125 2.9375 0.8125 2.9375 0 0 Z " fill="#222427" transform="translate(167,34)"/>
<path d="M0 0 C1.19297098 3.57891295 0.69377582 4.98092113 -0.3125 8.5625 C-0.57675781 9.53316406 -0.84101563 10.50382812 -1.11328125 11.50390625 C-2 14 -2 14 -4 16 C-4 12.04 -4 8.08 -4 4 C-3.01 3.67 -2.02 3.34 -1 3 C-0.67 2.01 -0.34 1.02 0 0 Z " fill="#AAABAA" transform="translate(135,10)"/>
<path d="M0 0 C-2.55274874 2.45605371 -3.85890643 2.98802939 -7.453125 3.29296875 C-8.70609375 3.25816406 -9.9590625 3.22335938 -11.25 3.1875 C-12.51328125 3.16042969 -13.7765625 3.13335937 -15.078125 3.10546875 C-16.04234375 3.07066406 -17.0065625 3.03585938 -18 3 C-18 2.34 -18 1.68 -18 1 C-15.93769732 0.8309093 -13.8751477 0.66482867 -11.8125 0.5 C-10.08966797 0.36078125 -10.08966797 0.36078125 -8.33203125 0.21875 C-5.53927574 0.0354038 -2.79680188 -0.04213637 0 0 Z " fill="#F2E0E6" transform="translate(168,185)"/>
<path d="M0 0 C0.33 0 0.66 0 1 0 C1.47489233 1.66212316 1.94887374 3.32451263 2.41796875 4.98828125 C2.97634454 6.91823784 3.58096688 8.83463227 4.1875 10.75 C5 14 5 14 4 17 C0.67739222 12.01608833 -0.41886651 6.92756157 -1 1 C-0.67 0.67 -0.34 0.34 0 0 Z " fill="#925072" transform="translate(5,159)"/>
<path d="M0 0 C0.33 0.99 0.66 1.98 1 3 C0.67 3.66 0.34 4.32 0 5 C0.66 5 1.32 5 2 5 C1.34 6.65 0.68 8.3 0 10 C-1.65 10 -3.3 10 -5 10 C-3.84414715 6.08788267 -2.64465038 3.1254959 0 0 Z " fill="#C83864" transform="translate(54,128)"/>
<path d="M0 0 C0.33 0 0.66 0 1 0 C1.33 4.95 1.66 9.9 2 15 C0.68 15 -0.64 15 -2 15 C-2.33 15.99 -2.66 16.98 -3 18 C-3.99 18 -4.98 18 -6 18 C-6 17.01 -6 16.02 -6 15 C-4.78763672 14.35611328 -4.78763672 14.35611328 -3.55078125 13.69921875 C-0.70383602 12.21903157 -0.70383602 12.21903157 -0.29296875 9.08203125 C-0.25816406 8.00308594 -0.22335938 6.92414063 -0.1875 5.8125 C-0.13980469 4.72582031 -0.09210937 3.63914062 -0.04296875 2.51953125 C-0.02878906 1.68808594 -0.01460937 0.85664062 0 0 Z " fill="#C28E9B" transform="translate(54,88)"/>
<path d="M0 0 C2 3 2 3 2 5 C2.99 5.33 3.98 5.66 5 6 C4.01 6.33 3.02 6.66 2 7 C2 8.65 2 10.3 2 12 C1.01 11.34 0.02 10.68 -1 10 C-1 9.01 -1 8.02 -1 7 C-1.99 6.67 -2.98 6.34 -4 6 C-3.01 5.67 -2.02 5.34 -1 5 C-0.67 3.35 -0.34 1.7 0 0 Z " fill="#321216" transform="translate(155,61)"/>
<path d="M0 0 C2.97 0.99 5.94 1.98 9 3 C9.33 4.65 9.66 6.3 10 8 C10.99 8 11.98 8 13 8 C13.33 9.32 13.66 10.64 14 12 C11.69 11.01 9.38 10.02 7 9 C7 7.35 7 5.7 7 4 C6.1028125 3.7834375 6.1028125 3.7834375 5.1875 3.5625 C3.43849596 3.1127561 1.71322977 2.57107659 0 2 C0 1.34 0 0.68 0 0 Z " fill="#530809" transform="translate(130,38)"/>
<path d="M0 0 C0.33 0.99 0.66 1.98 1 3 C0.01 4.485 0.01 4.485 -1 6 C-1.16713569 8.62531524 -1.16713569 8.62531524 -1 11 C-1.66 10.67 -2.32 10.34 -3 10 C-3.66 11.32 -4.32 12.64 -5 14 C-5 10.7 -5 7.4 -5 4 C-4.01 4 -3.02 4 -2 4 C-1.34 2.68 -0.68 1.36 0 0 Z " fill="#A2284E" transform="translate(50,132)"/>
<path d="M0 0 C0.99 0.33 1.98 0.66 3 1 C2.34 4.63 1.68 8.26 1 12 C-1 10.1875 -1 10.1875 -3 8 C-3 7.01 -3 6.02 -3 5 C-2.01 5 -1.02 5 0 5 C0 3.35 0 1.7 0 0 Z " fill="#301F22" transform="translate(143,19)"/>
<path d="M0 0 C1.62418745 -0.08090971 3.24951745 -0.13914995 4.875 -0.1875 C5.77992188 -0.22230469 6.68484375 -0.25710937 7.6171875 -0.29296875 C8.79667969 -0.14794922 8.79667969 -0.14794922 10 0 C10.66 0.99 11.32 1.98 12 3 C8.04 3 4.08 3 0 3 C0 2.01 0 1.02 0 0 Z " fill="#A19FA0" transform="translate(137,7)"/>
<path d="M0 0 C-2.93447357 2.93447357 -6.18259456 2.46158423 -10.125 2.625 C-10.87910156 2.66367188 -11.63320312 2.70234375 -12.41015625 2.7421875 C-14.27303184 2.83651031 -16.13648255 2.91934662 -18 3 C-11.80168814 -0.20043553 -6.94794313 -1.41794758 0 0 Z " fill="#E6A4B8" transform="translate(177,179)"/>
<path d="M0 0 C0.33 0.99 0.66 1.98 1 3 C-0.8125 5.6875 -0.8125 5.6875 -3 8 C-3.66 8 -4.32 8 -5 8 C-5 8.66 -5 9.32 -5 10 C-5.99 10 -6.98 10 -8 10 C-5.98604326 5.66224703 -4.0174983 2.6783322 0 0 Z " fill="#DC95A9" transform="translate(188,169)"/>
<path d="M0 0 C0.96846689 2.61486062 1.04559628 3.8442127 0.25 6.5625 C-0.95399982 8.91029965 -2.1205204 10.20223691 -4 12 C-4.33 12.99 -4.66 13.98 -5 15 C-4.01 15.33 -3.02 15.66 -2 16 C-3.8125 16.625 -3.8125 16.625 -6 17 C-6.99 16.34 -7.98 15.68 -9 15 C-8.34 15 -7.68 15 -7 15 C-6.731875 14.030625 -6.46375 13.06125 -6.1875 12.0625 C-5.795625 11.051875 -5.40375 10.04125 -5 9 C-4.01 8.67 -3.02 8.34 -2 8 C-1.855625 7.236875 -1.71125 6.47375 -1.5625 5.6875 C-1 3 -1 3 0 0 Z " fill="#D76C8A" transform="translate(109,123)"/>
<path d="M0 0 C1.65 0 3.3 0 5 0 C4.67 1.65 4.34 3.3 4 5 C2.02 5.33 0.04 5.66 -2 6 C-1.49396008 3.83125748 -1.00016187 2.00032373 0 0 Z " fill="#AF2D53" transform="translate(110,125)"/>
<path d="M0 0 C1.15941038 3.47823115 0.70820884 5.45895578 0 9 C-1.98 9.33 -3.96 9.66 -6 10 C-5.67 8.68 -5.34 7.36 -5 6 C-4.34 6 -3.68 6 -3 6 C-2.87625 5.38125 -2.7525 4.7625 -2.625 4.125 C-2 2 -2 2 0 0 Z " fill="#DEA5B4" transform="translate(39,70)"/>
<path d="M0 0 C2.97 0.495 2.97 0.495 6 1 C6 1.66 6 2.32 6 3 C8.475 3.99 8.475 3.99 11 5 C8.83032311 5.95465783 7.43671207 6.14401212 5.17578125 5.3984375 C3.4315257 4.64129615 1.71372869 3.82390802 0 3 C0 2.01 0 1.02 0 0 Z " fill="#B75371" transform="translate(110,122)"/>
<path d="M0 0 C3 1 3 1 3.94921875 2.7421875 C4.19285156 3.44601563 4.43648437 4.14984375 4.6875 4.875 C4.93886719 5.57367188 5.19023437 6.27234375 5.44921875 6.9921875 C6 9 6 9 6 12 C4.68 12 3.36 12 2 12 C2.04125 11.13375 2.0825 10.2675 2.125 9.375 C1.99542279 5.87641532 1.23980344 3.25448403 0 0 Z " fill="#7C1B1F" transform="translate(156,52)"/>
<path d="M0 0 C2.00720923 0.28674418 4.0085944 0.61866701 6 1 C6.33 2.98 6.66 4.96 7 7 C5.68 7 4.36 7 3 7 C2.896875 6.38125 2.79375 5.7625 2.6875 5.125 C2.12474627 2.63473516 2.12474627 2.63473516 -1 1 C-0.67 0.67 -0.34 0.34 0 0 Z " fill="#D1A0B7" transform="translate(114,40)"/>
<path d="M0 0 C0 0.99 0 1.98 0 3 C-3.3 3 -6.6 3 -10 3 C-10 2.34 -10 1.68 -10 1 C-6.78548731 -0.60725635 -3.56387464 -0.05748185 0 0 Z " fill="#DA4C76" transform="translate(68,138)"/>
<path d="M0 0 C2.875 0.1875 2.875 0.1875 6 1 C7.375 3.5625 7.375 3.5625 8 6 C5.36 5.34 2.72 4.68 0 4 C0 2.68 0 1.36 0 0 Z " fill="#E56A8E" transform="translate(114,127)"/>
<path d="M0 0 C2.86724686 0.57344937 3.8614515 0.8614515 6 3 C-0.6 3 -7.2 3 -14 3 C-14 2.67 -14 2.34 -14 2 C-9.38 2 -4.76 2 0 2 C0 1.34 0 0.68 0 0 Z " fill="#554348" transform="translate(54,183)"/>
<path d="M0 0 C2.97 0 5.94 0 9 0 C9 0.99 9 1.98 9 3 C6.03 3 3.06 3 0 3 C0 2.01 0 1.02 0 0 Z " fill="#5D3245" transform="translate(190,177)"/>
<path d="M0 0 C1.65 0 3.3 0 5 0 C4.67 3.3 4.34 6.6 4 10 C3.67 10 3.34 10 3 10 C1.87119943 6.68885166 0.78697325 3.41021743 0 0 Z " fill="#F2D9DF" transform="translate(169,97)"/>
<path d="M0 0 C0.99 0.33 1.98 0.66 3 1 C3 1.99 3 2.98 3 4 C2.21625 4.45375 1.4325 4.9075 0.625 5.375 C-2.44960012 7.27832388 -2.9906414 8.60488472 -4 12 C-4.33 12 -4.66 12 -5 12 C-5 10.02 -5 8.04 -5 6 C-4.34 6 -3.68 6 -3 6 C-3 5.34 -3 4.68 -3 4 C-2.34 4 -1.68 4 -1 4 C-0.67 2.68 -0.34 1.36 0 0 Z " fill="#C2909D" transform="translate(51,84)"/>
<path d="M0 0 C2 2 2 2 2.23046875 4.09375 C2.21628906 4.8878125 2.20210937 5.681875 2.1875 6.5 C2.18105469 7.2940625 2.17460937 8.088125 2.16796875 8.90625 C2 11 2 11 1 13 C0.01 12.67 -0.98 12.34 -2 12 C-1.34 8.04 -0.68 4.08 0 0 Z " fill="#9D4665" transform="translate(190,160)"/>
<path d="M0 0 C0.66 0 1.32 0 2 0 C2.24915939 1.76813112 2.47366632 3.53974982 2.6875 5.3125 C2.81511719 6.29863281 2.94273438 7.28476563 3.07421875 8.30078125 C3 11 3 11 1.51953125 12.85546875 C1.01808594 13.23316406 0.51664063 13.61085937 0 14 C-1.35276714 11.29446571 -0.5907217 9.95360849 0 7 C0.03824623 4.66698014 0.04574284 2.33288492 0 0 Z " fill="#E898B1" transform="translate(13,162)"/>
<path d="M0 0 C0 1.98 0 3.96 0 6 C-1.98 6.99 -1.98 6.99 -4 8 C-4 5.69 -4 3.38 -4 1 C-1 0 -1 0 0 0 Z " fill="#BE7E99" transform="translate(4,142)"/>
<path d="M0 0 C1.65 0 3.3 0 5 0 C5 0.99 5 1.98 5 3 C2.36 3.66 -0.28 4.32 -3 5 C-3.33 4.01 -3.66 3.02 -4 2 C-2.68 2 -1.36 2 0 2 C0 1.34 0 0.68 0 0 Z " fill="#B04363" transform="translate(58,123)"/>
<path d="M0 0 C0.99 0.33 1.98 0.66 3 1 C2.44894091 4.9492568 1.61064629 8.34920174 0 12 C-0.33 12 -0.66 12 -1 12 C-2.11658501 7.31034294 -1.80619523 4.46236469 0 0 Z " fill="#E8DDE0" transform="translate(28,76)"/>
<path d="M0 0 C2.31 0.66 4.62 1.32 7 2 C7 3.98 7 5.96 7 8 C6.67 7.01 6.34 6.02 6 5 C3.03 4.505 3.03 4.505 0 4 C0 2.68 0 1.36 0 0 Z " fill="#A61621" transform="translate(148,48)"/>
<path d="M0 0 C2.31 0 4.62 0 7 0 C7 1.65 7 3.3 7 5 C6.01 5 5.02 5 4 5 C4 4.34 4 3.68 4 3 C3.01 3 2.02 3 1 3 C0.67 2.01 0.34 1.02 0 0 Z " fill="#A16C82" transform="translate(192,160)"/>
<path d="M0 0 C0.99 0.66 1.98 1.32 3 2 C3 2.99 3 3.98 3 5 C2.34 5.66 1.68 6.32 1 7 C0.67 7.99 0.34 8.98 0 10 C-0.66 10 -1.32 10 -2 10 C-2 8.02 -2 6.04 -2 4 C-1.34 4 -0.68 4 0 4 C0 2.68 0 1.36 0 0 Z " fill="#DDA4B3" transform="translate(154,71)"/>
<path d="M0 0 C0.33 0.66 0.66 1.32 1 2 C2.64363134 2.72159424 4.31050386 3.39351421 6 4 C5.67 4.99 5.34 5.98 5 7 C5 6.34 5 5.68 5 5 C4.01 5 3.02 5 2 5 C2 5.66 2 6.32 2 7 C1.34 7 0.68 7 0 7 C0 6.01 0 5.02 0 4 C-0.99 3.67 -1.98 3.34 -3 3 C-2.01 2.01 -1.02 1.02 0 0 Z " fill="#E0A2B3" transform="translate(148,64)"/>
<path d="M0 0 C3.96 0 7.92 0 12 0 C12 0.99 12 1.98 12 3 C10.02 3 8.04 3 6 3 C6 2.34 6 1.68 6 1 C4.02 1 2.04 1 0 1 C0 0.67 0 0.34 0 0 Z " fill="#775F65" transform="translate(64,182)"/>
<path d="M0 0 C1.32 0 2.64 0 4 0 C4 0.66 4 1.32 4 2 C5.98 2 7.96 2 10 2 C10 2.66 10 3.32 10 4 C7.03 4 4.06 4 1 4 C0.67 2.68 0.34 1.36 0 0 Z " fill="#6C444F" transform="translate(27,181)"/>
<path d="M0 0 C0.66 0 1.32 0 2 0 C1.41196203 3.02419525 0.77321882 6.01758453 0 9 C-0.99 9 -1.98 9 -3 9 C-2.44271087 5.65626525 -1.64826111 2.96687001 0 0 Z " fill="#FA9EB8" transform="translate(107,122)"/>
<path d="M0 0 C0.66 0.33 1.32 0.66 2 1 C2 3.97 2 6.94 2 10 C0.35 10.33 -1.3 10.66 -3 11 C-2.690625 10.29875 -2.38125 9.5975 -2.0625 8.875 C-0.96697322 5.91063343 -0.43577008 3.12301892 0 0 Z " fill="#F3CCD7" transform="translate(142,100)"/>
<path d="M0 0 C0.99 0 1.98 0 3 0 C3 1.65 3 3.3 3 5 C0.1875 5.625 0.1875 5.625 -3 6 C-3.99 5.34 -4.98 4.68 -6 4 C-4.35 4 -2.7 4 -1 4 C-0.67 2.68 -0.34 1.36 0 0 Z " fill="#F9B7D8" transform="translate(114,43)"/>
<path d="M0 0 C0.66 0 1.32 0 2 0 C2 0.99 2 1.98 2 3 C1.34 3 0.68 3 0 3 C0 3.66 0 4.32 0 5 C0.99 5.33 1.98 5.66 3 6 C0.69 6 -1.62 6 -4 6 C-4 5.01 -4 4.02 -4 3 C-2.68 2.67 -1.36 2.34 0 2 C0 1.34 0 0.68 0 0 Z " fill="#CB4169" transform="translate(58,136)"/>
<path d="M0 0 C0.66 0 1.32 0 2 0 C1.66354211 3.14027363 0.94763914 4.05098295 -1.375 6.3125 C-2.674375 7.1478125 -2.674375 7.1478125 -4 8 C-4.99 7.67 -5.98 7.34 -7 7 C-4.94766315 4.7522025 -3.99332739 3.9977758 -1 3 C-0.67 2.01 -0.34 1.02 0 0 Z " fill="#B78A98" transform="translate(48,53)"/>
<path d="M0 0 C0.99 0 1.98 0 3 0 C3 0.66 3 1.32 3 2 C3.66 2 4.32 2 5 2 C5 2.99 5 3.98 5 5 C3.35 5 1.7 5 0 5 C0 3.35 0 1.7 0 0 Z " fill="#D180A0" transform="translate(193,163)"/>
<path d="M0 0 C1.485 0.99 1.485 0.99 3 2 C2.67 4.31 2.34 6.62 2 9 C1.34 8.67 0.68 8.34 0 8 C0 5.36 0 2.72 0 0 Z " fill="#D7A2B3" transform="translate(186,140)"/>
<path d="M0 0 C0.66 0 1.32 0 2 0 C2 0.99 2 1.98 2 3 C2.66 3 3.32 3 4 3 C3.34 4.98 2.68 6.96 2 9 C0.14223235 5.86501708 -0.20140476 3.62528568 0 0 Z " fill="#E7B3CD" transform="translate(160,101)"/>
<path d="M0 0 C2.0625 0.4375 2.0625 0.4375 4 1 C2.26440562 4.057952 0.61527381 6.63379989 -2 9 C-1.125 1.125 -1.125 1.125 0 0 Z " fill="#EFDFE3" transform="translate(39,58)"/>
<path d="M0 0 C2.76276177 0.52268466 5.3260876 1.10869587 8 2 C8 3.65 8 5.3 8 7 C7.34 7 6.68 7 6 7 C5.7525 6.38125 5.505 5.7625 5.25 5.125 C3.79371361 2.64931313 2.62187494 2.04874998 0 1 C0 0.67 0 0.34 0 0 Z " fill="#220102" transform="translate(129,40)"/>
<path d="M0 0 C0.33 0.66 0.66 1.32 1 2 C2.32 1.67 3.64 1.34 5 1 C5 1.66 5 2.32 5 3 C5.99 3.33 6.98 3.66 8 4 C4.8035914 5.06546953 2.34252724 5.07427838 -1 5 C-0.67 3.35 -0.34 1.7 0 0 Z " fill="#1C0204" transform="translate(132,28)"/>
<path d="M0 0 C2.31 0.33 4.62 0.66 7 1 C7 1.99 7 2.98 7 4 C4.69 3.67 2.38 3.34 0 3 C0 2.01 0 1.02 0 0 Z " fill="#A31B44" transform="translate(107,132)"/>
<path d="M0 0 C0.66 0.33 1.32 0.66 2 1 C1.67 1.99 1.34 2.98 1 4 C2.65 4 4.3 4 6 4 C2.91190305 5.76462683 1.76687864 6 -2 6 C-1.34 4.02 -0.68 2.04 0 0 Z " fill="#D95179" transform="translate(56,127)"/>
<path d="M0 0 C1 3 1 3 0.1875 5.625 C-1 8 -1 8 -3 9 C-2.25 2.25 -2.25 2.25 0 0 Z " fill="#603E48" transform="translate(27,89)"/>
<path d="M0 0 C2.375 0.625 2.375 0.625 5 2 C6.3125 5.125 6.3125 5.125 7 8 C3.70851757 6.86500606 3.0040131 6.00716624 1.25 2.875 C0.8375 1.92625 0.425 0.9775 0 0 Z " fill="#4B0B0E" transform="translate(147,41)"/>
<path d="M0 0 C0 1.32 0 2.64 0 4 C-1.98 4 -3.96 4 -6 4 C-5.67 3.01 -5.34 2.02 -5 1 C-3 0 -3 0 0 0 Z " fill="#431E28" transform="translate(188,176)"/>
<path d="M0 0 C0 2.31 0 4.62 0 7 C-0.99 7 -1.98 7 -3 7 C-3 5.02 -3 3.04 -3 1 C-1 0 -1 0 0 0 Z " fill="#AF597F" transform="translate(3,149)"/>
<path d="M0 0 C1.98 0 3.96 0 6 0 C6 0.99 6 1.98 6 3 C3.69 3 1.38 3 -1 3 C-0.67 2.01 -0.34 1.02 0 0 Z " fill="#891638" transform="translate(55,143)"/>
<path d="M0 0 C-0.66 0 -1.32 0 -2 0 C-2 0.66 -2 1.32 -2 2 C-1.34 2.33 -0.68 2.66 0 3 C-1.98 3 -3.96 3 -6 3 C-6 2.01 -6 1.02 -6 0 C-3.50907189 -1.24546405 -2.58919267 -0.7767578 0 0 Z " fill="#B08A96" transform="translate(163,183)"/>
<path d="M0 0 C1.9375 0.6875 1.9375 0.6875 4 2 C4.75 4.625 4.75 4.625 5 7 C3.0625 6.3125 3.0625 6.3125 1 5 C0.25 2.375 0.25 2.375 0 0 Z " fill="#EFB6C7" transform="translate(181,136)"/>
<path d="M0 0 C0.33 1.32 0.66 2.64 1 4 C-3.43076923 7.07692308 -3.43076923 7.07692308 -6.3125 6.6875 C-6.869375 6.460625 -7.42625 6.23375 -8 6 C-6.576875 5.9071875 -6.576875 5.9071875 -5.125 5.8125 C-4.09375 5.544375 -3.0625 5.27625 -2 5 C-0.54708727 2.53744315 -0.54708727 2.53744315 0 0 Z " fill="#F0B2C4" transform="translate(103,121)"/>
<path d="M0 0 C0.33 0 0.66 0 1 0 C1.25 2.25 1.25 2.25 1 5 C-1 7.3125 -1 7.3125 -3 9 C-3 5.30581799 -1.71820705 3.22163822 0 0 Z " fill="#D7A8BF" transform="translate(15,116)"/>
<path d="M0 0 C0.99 0 1.98 0 3 0 C3 2.64 3 5.28 3 8 C2.67 7.01 2.34 6.02 2 5 C1.34 5 0.68 5 0 5 C0 3.35 0 1.7 0 0 Z " fill="#CB98A4" transform="translate(169,102)"/>
<path d="M0 0 C0.66 0 1.32 0 2 0 C2 1.65 2 3.3 2 5 C2.99 5.33 3.98 5.66 5 6 C3.0625 6.5625 3.0625 6.5625 1 7 C0 6 0 6 -0.0625 2.9375 C-0.041875 1.968125 -0.02125 0.99875 0 0 Z " fill="#07130F" transform="translate(159,43)"/>
<path d="M0 0 C0 0.66 0 1.32 0 2 C1.98 2 3.96 2 6 2 C6 2.33 6 2.66 6 3 C3.36 3 0.72 3 -2 3 C-2 2.34 -2 1.68 -2 1 C-3.32 0.67 -4.64 0.34 -6 0 C-2.25 -1.125 -2.25 -1.125 0 0 Z " fill="#CF91A3" transform="translate(33,180)"/>
<path d="M0 0 C0.99 0 1.98 0 3 0 C3 0.99 3 1.98 3 3 C-0.63 3 -4.26 3 -8 3 C-8 2.67 -8 2.34 -8 2 C-5.36 2 -2.72 2 0 2 C0 1.34 0 0.68 0 0 Z " fill="#F26E93" transform="translate(122,139)"/>
<path d="M0 0 C0.99 0 1.98 0 3 0 C3 1.65 3 3.3 3 5 C2.01 5 1.02 5 0 5 C-0.5625 3.0625 -0.5625 3.0625 -1 1 C-0.67 0.67 -0.34 0.34 0 0 Z " fill="#0B0205" transform="translate(151,61)"/>
<path d="M0 0 C-0.33 0.66 -0.66 1.32 -1 2 C-1.99 2.33 -2.98 2.66 -4 3 C-5.20882096 5.00016466 -5.20882096 5.00016466 -6 7 C-6.33 5.02 -6.66 3.04 -7 1 C-4.53721199 -0.231394 -2.7204945 -0.07159196 0 0 Z " fill="#2C2A2B" transform="translate(172,57)"/>
<path d="M0 0 C0.33 0 0.66 0 1 0 C1 1.65 1 3.3 1 5 C-2.75 6.125 -2.75 6.125 -5 5 C-5 4.34 -5 3.68 -5 3 C-3.35 3 -1.7 3 0 3 C0 2.01 0 1.02 0 0 Z " fill="#180C13" transform="translate(150,31)"/>
</svg>
