<?xml version="1.0" encoding="UTF-8"?><svg id="Layer_2" xmlns="http://www.w3.org/2000/svg" viewBox="0 0 199.94 199.94"><defs><style>.cls-1{fill:#fff;}.cls-2{fill:#ffa914;}.cls-3{fill:#253756;}</style></defs><g id="Layer_1-2"><g><g><circle class="cls-3" cx="99.96" cy="99.99" r="90.27"/><path class="cls-2" d="M99.97,19.88c21.39,0,41.49,8.35,56.65,23.44,15.16,15.16,23.44,35.26,23.44,56.65s-8.35,41.49-23.44,56.65-35.26,23.44-56.65,23.44-41.49-8.35-56.65-23.44c-15.16-15.09-23.44-35.26-23.44-56.65s8.35-41.49,23.44-56.65,35.26-23.44,56.65-23.44m0-19.27C45.12,.61,.61,45.12,.61,99.97s44.51,99.35,99.35,99.35,99.35-44.51,99.35-99.35C199.39,45.12,154.88,.61,99.97,.61h0Z"/></g><path class="cls-3" d="M99.97,9.69c24.1,0,46.79,9.37,63.84,26.43s26.43,39.74,26.43,63.84-9.37,46.79-26.43,63.84c-17.06,17.06-39.74,26.43-63.84,26.43s-46.79-9.37-63.84-26.43c-17.06-17.06-26.43-39.68-26.43-63.84s9.37-46.79,26.43-63.84c17.06-17.06,39.74-26.43,63.84-26.43m0-9.69C44.78,0,0,44.78,0,99.97s44.78,99.97,99.97,99.97,99.97-44.78,99.97-99.97S155.22,0,99.97,0h0Z"/><path class="cls-2" d="M100.13,46.8c-2.68,0-7.16-4.33-7.16-6.56s4.33-6.86,6.56-6.86c.75,0,1.79,.45,2.39,.89,1.19,1.04,2.39,2.24,3.43,3.43,1.49,1.64,1.49,3.13,0,4.77-1.04,1.19-2.24,2.39-3.43,3.43-.6,.6-1.49,.75-1.79,.89Z"/><path class="cls-1" d="M100.13,165.79c-2.68,0-7.16-4.33-7.16-6.56s4.33-6.86,6.56-6.86c.75,0,1.79,.45,2.39,.89,1.19,1.04,2.39,2.24,3.43,3.43,1.49,1.64,1.49,3.13,0,4.77-1.04,1.19-2.24,2.39-3.43,3.43-.6,.6-1.49,.75-1.79,.89Z"/><path class="cls-1" d="M142.2,88.14v13.17c0,1.38-1.22,2.6-2.6,2.6H60.44c-1.38,0-2.6-1.22-2.6-2.6v-13.17c0-2.91,2.3-5.21,5.21-5.21h7.2c-1.07-1.99-1.68-4.13-1.68-6.58,0-7.96,6.58-14.55,14.55-14.55,6.89,0,11.33,3.52,17,11.33,5.66-7.81,10.11-11.33,17-11.33,7.96,0,14.55,6.58,14.55,14.55,0,2.45-.61,4.59-1.68,6.58h6.89c2.91-.15,5.36,2.3,5.36,5.21Zm-79.16,21.13h31.69v26.33h-26.33c-2.91,0-5.21-2.3-5.21-5.21v-21.13h-.15Zm34.3-26.49c-8.42-12.71-10.87-13.17-14.24-13.17-3.67,0-6.58,2.91-6.58,6.58s2.91,6.58,6.58,6.58h14.24Zm26.33-6.58c0-3.67-2.91-6.58-6.58-6.58-3.37,0-5.66,.61-14.24,13.17h14.24c3.67,0,6.58-2.91,6.58-6.58Zm-18.37,33.07h31.69v21.13c0,2.91-2.3,5.21-5.21,5.21h-26.33v-26.33h-.15Z"/></g></g></svg>