<svg id="Layer_1" data-name="Layer 1" xmlns="http://www.w3.org/2000/svg" xmlns:xlink="http://www.w3.org/1999/xlink" width="200" height="200" viewBox="0 0 200 200"><defs><style>.cls-1{fill:url(#linear-gradient);}.cls-2{opacity:0.11;isolation:isolate;fill:url(#radial-gradient);}.cls-3{fill:url(#linear-gradient-2);}.cls-4{fill:url(#linear-gradient-3);}</style><linearGradient id="linear-gradient" x1="112.24" y1="73.13" x2="112.24" y2="130.87" gradientTransform="matrix(1, 0, 0, -1, 0, 202)" gradientUnits="userSpaceOnUse"><stop offset="0" stop-color="#ff742c"/><stop offset="1" stop-color="#ffc904"/></linearGradient><radialGradient id="radial-gradient" cx="112.24" cy="92.61" r="24.62" gradientTransform="matrix(1, 0, 0, -1, 0, 202)" gradientUnits="userSpaceOnUse"><stop offset="0" stop-color="#001957" stop-opacity="0.95"/><stop offset="1" stop-color="#001957"/></radialGradient><linearGradient id="linear-gradient-2" x1="100" y1="260.8" x2="100" y2="3.04" gradientTransform="matrix(1, 0, 0, -1, 0, 202)" gradientUnits="userSpaceOnUse"><stop offset="0.11" stop-color="#00d4fe"/><stop offset="0.23" stop-color="#04b0d9"/><stop offset="0.43" stop-color="#0978a1"/><stop offset="0.61" stop-color="#0e4b75"/><stop offset="0.77" stop-color="#112b55"/><stop offset="0.91" stop-color="#131841"/><stop offset="1" stop-color="#14113a"/></linearGradient><linearGradient id="linear-gradient-3" x1="115.86" y1="168.8" x2="115.86" y2="-37.2" gradientTransform="matrix(1, 0, 0, -1, 0, 202)" gradientUnits="userSpaceOnUse"><stop offset="0" stop-color="#00d4fe"/><stop offset="0.13" stop-color="#04b0d9"/><stop offset="0.35" stop-color="#0978a1"/><stop offset="0.56" stop-color="#0e4b75"/><stop offset="0.74" stop-color="#112b55"/><stop offset="0.89" stop-color="#131841"/><stop offset="1" stop-color="#14113a"/></linearGradient></defs><g id="Layer_2" data-name="Layer 2"><g id="Layer_1-2" data-name="Layer 1-2"><circle class="cls-1" cx="112.24" cy="100" r="28.86"/><path class="cls-2" d="M112.24,108.69a28.84,28.84,0,0,1-27-18.77,28.86,28.86,0,1,0,54,0A28.86,28.86,0,0,1,112.24,108.69Z"/><path class="cls-3" d="M198.16,108.63a88,88,0,0,1-44.31,67.06,88.09,88.09,0,0,1-80.35,1.68c-9.29-4.58-18.09-11.38-22.12-20.92C47.56,147.56,49.55,140,54,133.28c.71-1.09,1.46-2.22,2.29-3.34a40.74,40.74,0,0,1,3.6-4.58,22.57,22.57,0,0,1,2.67-2.5c5.43-4.23,8-1.77,11.52,3.42,11.28,16.63,34,24.94,53.21,18.67,22.47-7.32,36.94-33.5,31.12-56.44-5-19.62-23-33.5-43-34.77A44,44,0,0,0,87.74,61C77.64,68,72.47,79.42,67,90a170,170,0,0,1-11.86,20.13c-1.34,1.93-2.72,3.82-4.21,5.59a72.22,72.22,0,0,1-19.73,17.37c-9,5.34-17.09,7-26.35,7.23A3.39,3.39,0,0,1,2.2,134.8a138.87,138.87,0,0,0,9.42-13.21c5.27-8.19,8.9-17.32,12.06-26.47C33.31,67.36,41.92,41.78,68.56,26,90.85,12.83,118.9,9.88,143.22,19.1c31.71,12,53.42,43.27,55.24,76.69A83.43,83.43,0,0,1,198.16,108.63Z"/><path class="cls-4" d="M182.66,99.94a66.79,66.79,0,0,1-126.48,30,40.83,40.83,0,0,1,3.61-4.58,22.57,22.57,0,0,1,2.67-2.5c5.43-4.23,8-1.77,11.52,3.42,11.28,16.63,34,24.94,53.2,18.67,22.48-7.32,36.94-33.5,31.12-56.44-5-19.62-23-33.5-43-34.77A44,44,0,0,0,87.74,61C77.64,68,72.47,79.42,67,90a170,170,0,0,1-11.86,20.13c-1.34,1.93-2.72,3.82-4.21,5.59A66.78,66.78,0,1,1,182.66,99.94Z"/></g></g></svg>