<?xml version="1.0" encoding="UTF-8"?>
<!DOCTYPE svg PUBLIC "-//W3C//DTD SVG 1.1//EN" "http://www.w3.org/Graphics/SVG/1.1/DTD/svg11.dtd">
<svg xmlns="http://www.w3.org/2000/svg" version="1.1" width="200px" height="200px" style="shape-rendering:geometricPrecision; text-rendering:geometricPrecision; image-rendering:optimizeQuality; fill-rule:evenodd; clip-rule:evenodd" xmlns:xlink="http://www.w3.org/1999/xlink">
<g><path style="opacity:0.998" fill="#2adac5" d="M 139.5,97.5 C 130.51,98.6096 121.51,99.6096 112.5,100.5C 108.715,97.8953 108.715,95.0619 112.5,92C 119.21,91.2796 125.876,90.2796 132.5,89C 135.624,88.5209 138.457,87.3543 141,85.5C 142.233,79.468 144.066,73.6346 146.5,68C 141.898,69.3776 137.398,71.2109 133,73.5C 129.929,73.2622 128.429,71.5956 128.5,68.5C 128.406,66.0884 129.406,64.255 131.5,63C 138.435,59.6329 145.101,55.7995 151.5,51.5C 152.706,48.9206 154.039,46.4206 155.5,44C 155.167,43.8333 154.833,43.6667 154.5,43.5C 150.939,45.7788 147.273,47.7788 143.5,49.5C 142.078,49.7086 140.745,50.2086 139.5,51C 136.883,53.4423 134.55,55.9423 132.5,58.5C 122.231,70.2732 112.898,82.7732 104.5,96C 117.773,112.606 130.273,129.773 142,147.5C 142.713,139.726 142.047,132.059 140,124.5C 139.044,123.421 138.211,122.255 137.5,121C 132.131,118.327 126.798,115.66 121.5,113C 118.833,110.333 118.833,107.667 121.5,105C 130.93,105.917 139.097,109.75 146,116.5C 147.909,120.315 149.242,124.315 150,128.5C 150.356,138.3 151.689,147.967 154,157.5C 155.023,161.317 154.523,164.817 152.5,168C 147.518,168.76 143.685,166.927 141,162.5C 128.11,142.782 114.277,123.782 99.5,105.5C 84.6123,124.263 70.4456,143.596 57,163.5C 54.135,167.858 50.3016,169.191 45.5,167.5C 44.3391,163.205 44.1725,158.871 45,154.5C 47.2013,145.292 48.5347,135.958 49,126.5C 50.1087,122.281 51.7754,118.281 54,114.5C 59.3056,110.429 65.139,107.263 71.5,105C 73.5,104.333 75.5,104.333 77.5,105C 79.0363,108.24 78.703,111.24 76.5,114C 70.6395,116.18 65.1395,119.013 60,122.5C 57.1305,130.952 55.7971,139.619 56,148.5C 68.5,130.833 81,113.167 93.5,95.5C 92.4867,93.4734 91.4867,91.4734 90.5,89.5C 89.7828,87.0634 88.7828,84.7301 87.5,82.5C 84.9437,78.6842 81.9437,75.3509 78.5,72.5C 69.2998,60.5324 57.9665,50.8657 44.5,43.5C 43.9438,47.2165 45.2772,50.3832 48.5,53C 54.8333,56.6667 61.1667,60.3333 67.5,64C 71.7763,68.1255 71.2763,71.2922 66,73.5C 61.6944,71.515 57.361,69.515 53,67.5C 54.165,73.4932 55.665,79.4932 57.5,85.5C 60.7817,87.8734 64.4483,89.3734 68.5,90C 74.4853,90.7985 80.4853,91.4652 86.5,92C 91.0313,96.9063 90.0313,100.073 83.5,101.5C 76.8389,100.63 70.1722,99.7969 63.5,99C 56.6818,97.6737 51.8485,93.8404 49,87.5C 44.3668,69.0957 37.8668,51.429 29.5,34.5C 29.8333,31.5 31.5,29.8333 34.5,29.5C 51.6404,34.6581 66.1404,43.9914 78,57.5C 85.6661,66.8484 92.8328,76.515 99.5,86.5C 109.162,71.3341 120.495,57.5008 133.5,45C 140.03,39.902 147.03,35.5686 154.5,32C 158.314,30.0859 162.314,29.4192 166.5,30C 168.478,32.4973 168.978,35.3307 168,38.5C 159.83,54.0084 153.83,70.3418 150,87.5C 147.925,92.4098 144.425,95.7431 139.5,97.5 Z"/></g>
<g><path style="opacity:0.008" fill="#2f827d" d="M 143.5,49.5 C 140.149,52.8482 136.482,55.8482 132.5,58.5C 134.55,55.9423 136.883,53.4423 139.5,51C 140.745,50.2086 142.078,49.7086 143.5,49.5 Z"/></g>
<g><path style="opacity:0.149" fill="#2b978f" d="M 78.5,72.5 C 81.9437,75.3509 84.9437,78.6842 87.5,82.5C 88.7828,84.7301 89.7828,87.0634 90.5,89.5C 85.7748,84.3972 81.7748,78.7305 78.5,72.5 Z"/></g>
<g><path style="opacity:0.118" fill="#356561" d="M 139.5,97.5 C 133.771,99.3092 127.771,100.476 121.5,101C 118.304,101.805 115.304,101.638 112.5,100.5C 121.51,99.6096 130.51,98.6096 139.5,97.5 Z"/></g>
</svg>
