<?xml version="1.0" encoding="UTF-8"?>
<!DOCTYPE svg PUBLIC "-//W3C//DTD SVG 1.1//EN" "http://www.w3.org/Graphics/SVG/1.1/DTD/svg11.dtd">
<svg xmlns="http://www.w3.org/2000/svg" version="1.1" width="200px" height="200px" style="shape-rendering:geometricPrecision; text-rendering:geometricPrecision; image-rendering:optimizeQuality; fill-rule:evenodd; clip-rule:evenodd" xmlns:xlink="http://www.w3.org/1999/xlink">
<g><path style="opacity:0.011" fill="#1e104b" d="M 82.5,46.5 C 83.9464,45.3871 85.6131,45.2204 87.5,46C 85.8659,46.4935 84.1992,46.6602 82.5,46.5 Z"/></g>
<g><path style="opacity:0.012" fill="#1e114a" d="M 97.5,46.5 C 99.2884,45.3775 101.288,45.2109 103.5,46C 101.527,46.4955 99.5273,46.6621 97.5,46.5 Z"/></g>
<g><path style="opacity:0.01" fill="#1e114b" d="M 81.5,47.5 C 80.448,47.6495 79.448,47.4828 78.5,47C 79.7494,46.2599 80.7494,46.4265 81.5,47.5 Z"/></g>
<g><path style="opacity:0.012" fill="#1e124a" d="M 104.5,47.5 C 105.251,46.4265 106.251,46.2599 107.5,47C 106.552,47.4828 105.552,47.6495 104.5,47.5 Z"/></g>
<g><path style="opacity:0.016" fill="#1f124b" d="M 75.5,48.5 C 75.8966,47.475 76.5632,47.3083 77.5,48C 76.9056,48.4643 76.2389,48.631 75.5,48.5 Z"/></g>
<g><path style="opacity:0.933" fill="#21144a" d="M 104.5,47.5 C 105.568,48.4345 106.901,48.7678 108.5,48.5C 110.214,49.7384 112.214,50.405 114.5,50.5C 116.849,52.341 119.515,53.6743 122.5,54.5C 124.46,56.1563 126.46,57.823 128.5,59.5C 128.5,60.1667 128.833,60.5 129.5,60.5C 131.177,62.5398 132.844,64.5398 134.5,66.5C 134.328,67.4916 134.662,68.1583 135.5,68.5C 135.263,69.791 135.596,70.791 136.5,71.5C 136.5,72.5 136.5,73.5 136.5,74.5C 135.449,80.1133 133.115,85.28 129.5,90C 127.922,91.0945 126.255,91.9278 124.5,92.5C 124.833,91.8333 125.167,91.1667 125.5,90.5C 125.5,89.8333 125.833,89.5 126.5,89.5C 129.309,89.0423 129.976,87.7089 128.5,85.5C 128.5,84.5 128.5,83.5 128.5,82.5C 130.584,80.9233 132.584,79.09 134.5,77C 132.03,74.9859 130.03,75.1525 128.5,77.5C 127.655,76.3285 126.989,74.9952 126.5,73.5C 129.068,72.4263 130.735,70.4263 131.5,67.5C 131.043,66.7025 130.376,66.3691 129.5,66.5C 127.604,65.5195 125.604,64.5195 123.5,63.5C 122.261,63.9424 121.261,64.6091 120.5,65.5C 119.5,65.1667 118.833,64.5 118.5,63.5C 119.473,61.0521 119.806,58.3854 119.5,55.5C 115.655,55.2878 112.321,56.2878 109.5,58.5C 108.005,58.0113 106.671,57.3446 105.5,56.5C 106.239,56.631 106.906,56.4643 107.5,56C 106.435,53.5938 105.102,51.4271 103.5,49.5C 100.941,50.6076 98.6076,51.9409 96.5,53.5C 91.5,53.5 86.5,53.5 81.5,53.5C 80.5886,49.8768 79.2553,49.7101 77.5,53C 77.7284,53.3988 78.0618,53.5654 78.5,53.5C 77.791,54.404 76.791,54.7373 75.5,54.5C 74.4324,53.5655 73.099,53.2322 71.5,53.5C 71.5,54.5 71.5,55.5 71.5,56.5C 67.0001,59.3386 64.0001,63.3386 62.5,68.5C 62.1667,68.5 61.8333,68.5 61.5,68.5C 61.8333,66.5 62.1667,64.5 62.5,62.5C 63.404,61.791 63.7373,60.791 63.5,59.5C 68.1537,53.5047 74.1537,49.5047 81.5,47.5C 89.1626,46.249 96.8293,46.249 104.5,47.5 Z"/></g>
<g><path style="opacity:0.01" fill="#1f104b" d="M 108.5,48.5 C 109.251,47.4265 110.251,47.2599 111.5,48C 110.552,48.4828 109.552,48.6495 108.5,48.5 Z"/></g>
<g><path style="opacity:0.01" fill="#1f114b" d="M 114.5,49.5 C 113.761,49.631 113.094,49.4643 112.5,49C 113.437,48.3083 114.103,48.475 114.5,49.5 Z"/></g>
<g><path style="opacity:0.012" fill="#1f114b" d="M 114.5,50.5 C 114.5,50.1667 114.5,49.8333 114.5,49.5C 117.167,49.8333 117.167,50.1667 114.5,50.5 Z"/></g>
<g><path style="opacity:1" fill="#038b43" d="M 88.5,48.5 C 89.9616,49.4577 91.2949,50.6244 92.5,52C 89.8333,52.6667 87.1667,52.6667 84.5,52C 85.7305,50.5952 87.0639,49.4286 88.5,48.5 Z"/></g>
<g><path style="opacity:0.012" fill="#1f124b" d="M 117.5,50.5 C 118.833,51.1667 118.833,51.1667 117.5,50.5 Z"/></g>
<g><path style="opacity:0.999" fill="#227b44" d="M 105.5,56.5 C 102.215,56.0719 99.2154,55.0719 96.5,53.5C 98.6076,51.9409 100.941,50.6076 103.5,49.5C 105.102,51.4271 106.435,53.5938 107.5,56C 106.906,56.4643 106.239,56.631 105.5,56.5 Z"/></g>
<g><path style="opacity:0.012" fill="#1f114b" d="M 119.5,51.5 C 120.833,52.1667 120.833,52.1667 119.5,51.5 Z"/></g>
<g><path style="opacity:0.996" fill="#087c44" d="M 81.5,53.5 C 80.5,53.5 79.5,53.5 78.5,53.5C 78.0618,53.5654 77.7284,53.3988 77.5,53C 79.2553,49.7101 80.5886,49.8768 81.5,53.5 Z"/></g>
<g><path style="opacity:0.016" fill="#1e124c" d="M 122.5,53.5 C 123.833,54.1667 123.833,54.1667 122.5,53.5 Z"/></g>
<g><path style="opacity:0.996" fill="#256745" d="M 75.5,54.5 C 75.1583,55.3382 74.4916,55.6716 73.5,55.5C 72.8333,55.8333 72.1667,56.1667 71.5,56.5C 71.5,55.5 71.5,54.5 71.5,53.5C 73.099,53.2322 74.4324,53.5655 75.5,54.5 Z"/></g>
<g><path style="opacity:1" fill="#ee2234" d="M 78.5,53.5 C 79.5,53.5 80.5,53.5 81.5,53.5C 86.5,53.5 91.5,53.5 96.5,53.5C 99.2154,55.0719 102.215,56.0719 105.5,56.5C 106.671,57.3446 108.005,58.0113 109.5,58.5C 112.661,59.9131 115.661,61.5797 118.5,63.5C 118.833,64.5 119.5,65.1667 120.5,65.5C 120.5,66.1667 120.833,66.5 121.5,66.5C 123.555,68.5549 125.221,70.8883 126.5,73.5C 126.989,74.9952 127.655,76.3285 128.5,77.5C 128.5,79.1667 128.5,80.8333 128.5,82.5C 128.5,83.5 128.5,84.5 128.5,85.5C 127.326,86.5137 126.66,87.847 126.5,89.5C 125.833,89.5 125.5,89.8333 125.5,90.5C 124.662,90.1583 124.328,89.4916 124.5,88.5C 124.409,79.8209 120.742,72.9875 113.5,68C 103.074,61.6222 91.7405,58.4555 79.5,58.5C 78.1266,58.6567 76.7932,58.49 75.5,58C 75.8333,57.6667 76.1667,57.3333 76.5,57C 75.2625,56.7679 74.2625,56.2679 73.5,55.5C 74.4916,55.6716 75.1583,55.3382 75.5,54.5C 76.791,54.7373 77.791,54.404 78.5,53.5 Z"/></g>
<g><path style="opacity:0.008" fill="#1f114b" d="M 124.5,54.5 C 125.833,55.1667 125.833,55.1667 124.5,54.5 Z"/></g>
<g><path style="opacity:0.008" fill="#1f114a" d="M 63.5,56.5 C 64.8333,57.1667 64.8333,57.1667 63.5,56.5 Z"/></g>
<g><path style="opacity:1" fill="#157c45" d="M 118.5,63.5 C 115.661,61.5797 112.661,59.9131 109.5,58.5C 112.321,56.2878 115.655,55.2878 119.5,55.5C 119.806,58.3854 119.473,61.0521 118.5,63.5 Z"/></g>
<g><path style="opacity:0.012" fill="#1e114b" d="M 63.5,59.5 C 62.8333,58.1667 62.8333,58.1667 63.5,59.5 Z"/></g>
<g><path style="opacity:0.004" fill="#1e134c" d="M 128.5,59.5 C 128.56,58.9569 128.893,58.6236 129.5,58.5C 130.773,59.2565 130.773,59.9232 129.5,60.5C 128.833,60.5 128.5,60.1667 128.5,59.5 Z"/></g>
<g><path style="opacity:0.012" fill="#1e114b" d="M 62.5,62.5 C 61.475,62.1034 61.3083,61.4368 62,60.5C 62.4643,61.0944 62.631,61.7611 62.5,62.5 Z"/></g>
<g><path style="opacity:0.996" fill="#b7223a" d="M 73.5,55.5 C 74.2625,56.2679 75.2625,56.7679 76.5,57C 76.1667,57.3333 75.8333,57.6667 75.5,58C 76.7932,58.49 78.1266,58.6567 79.5,58.5C 72.5331,59.8017 67.1998,63.4684 63.5,69.5C 62.8333,69.5 62.5,69.1667 62.5,68.5C 64.0001,63.3386 67.0001,59.3386 71.5,56.5C 72.1667,56.1667 72.8333,55.8333 73.5,55.5 Z"/></g>
<g><path style="opacity:1" fill="#efcf2b" d="M 79.5,58.5 C 91.7405,58.4555 103.074,61.6222 113.5,68C 120.742,72.9875 124.409,79.8209 124.5,88.5C 123.778,88.9175 123.278,89.5842 123,90.5C 121.587,87.3388 119.92,84.3388 118,81.5C 116.871,79.8588 115.371,78.8588 113.5,78.5C 108.481,73.826 102.481,70.9927 95.5,70C 87.6239,68.8619 79.9573,69.5285 72.5,72C 71.2899,73.0391 70.2899,74.2058 69.5,75.5C 67.8828,77.1209 66.7162,79.1209 66,81.5C 65.1482,80.4293 64.3149,79.4293 63.5,78.5C 63.5,75.5 63.5,72.5 63.5,69.5C 67.1998,63.4684 72.5331,59.8017 79.5,58.5 Z"/></g>
<g><path style="opacity:0.012" fill="#1f134b" d="M 134.5,65.5 C 135.833,66.1667 135.833,66.1667 134.5,65.5 Z"/></g>
<g><path style="opacity:0.016" fill="#611444" d="M 60.5,68.5 C 59.4265,67.7494 59.2599,66.7494 60,65.5C 60.4828,66.448 60.6495,67.448 60.5,68.5 Z"/></g>
<g><path style="opacity:1" fill="#ffdee1" d="M 115.5,67.5 C 116.721,66.5354 118.054,66.702 119.5,68C 121.329,69.1133 122.163,70.6133 122,72.5C 120.242,70.2345 118.075,68.5678 115.5,67.5 Z"/></g>
<g><path style="opacity:1" fill="#689286" d="M 129.5,66.5 C 128.761,66.369 128.094,66.5357 127.5,67C 128.696,67.6543 128.696,68.1543 127.5,68.5C 126.045,65.6434 124.045,64.9768 121.5,66.5C 120.833,66.5 120.5,66.1667 120.5,65.5C 121.261,64.6091 122.261,63.9424 123.5,63.5C 125.604,64.5195 127.604,65.5195 129.5,66.5 Z"/></g>
<g><path style="opacity:0.012" fill="#1f114c" d="M 135.5,67.5 C 136.833,68.1667 136.833,68.1667 135.5,67.5 Z"/></g>
<g><path style="opacity:1" fill="#118544" d="M 129.5,66.5 C 130.376,66.3691 131.043,66.7025 131.5,67.5C 130.735,70.4263 129.068,72.4263 126.5,73.5C 125.221,70.8883 123.555,68.5549 121.5,66.5C 124.045,64.9768 126.045,65.6434 127.5,68.5C 128.696,68.1543 128.696,67.6543 127.5,67C 128.094,66.5357 128.761,66.369 129.5,66.5 Z"/></g>
<g><path style="opacity:1" fill="#2b174a" d="M 74.5,61.5 C 76.5273,61.3379 78.5273,61.5045 80.5,62C 72.8372,63.6645 67.6705,68.1645 65,75.5C 64.4453,68.2688 67.6119,63.6022 74.5,61.5 Z"/></g>
<g><path style="opacity:0.004" fill="#211049" d="M 58.5,69.5 C 59.5983,70.6009 59.765,71.9343 59,73.5C 58.51,72.2068 58.3433,70.8734 58.5,69.5 Z"/></g>
<g><path style="opacity:1" fill="#781a47" d="M 60.5,68.5 C 60.8333,68.5 61.1667,68.5 61.5,68.5C 61.8333,68.5 62.1667,68.5 62.5,68.5C 62.5,69.1667 62.8333,69.5 63.5,69.5C 63.5,72.5 63.5,75.5 63.5,78.5C 62.8333,77.8333 62.1667,77.1667 61.5,76.5C 60.7347,73.9039 60.4013,71.2372 60.5,68.5 Z"/></g>
<g><path style="opacity:1" fill="#2b1743" d="M 113.5,78.5 C 108.196,75.3499 102.529,73.0166 96.5,71.5C 90.8615,70.5409 85.1949,70.3742 79.5,71C 77.5087,71.3736 75.842,72.207 74.5,73.5C 72.8333,74.1667 71.1667,74.8333 69.5,75.5C 70.2899,74.2058 71.2899,73.0391 72.5,72C 79.9573,69.5285 87.6239,68.8619 95.5,70C 102.481,70.9927 108.481,73.826 113.5,78.5 Z"/></g>
<g><path style="opacity:0.016" fill="#1f124b" d="M 136.5,71.5 C 136.369,70.7611 136.536,70.0944 137,69.5C 137.692,70.4368 137.525,71.1034 136.5,71.5 Z"/></g>
<g><path style="opacity:1" fill="#fefae7" d="M 107.5,69.5 C 112.45,70.4284 116.617,72.7617 120,76.5C 121.187,78.0444 121.52,79.7111 121,81.5C 116.825,76.8782 112.325,72.8782 107.5,69.5 Z"/></g>
<g><path style="opacity:1" fill="#60391f" d="M 96.5,71.5 C 96.6816,73.5914 96.3482,75.5914 95.5,77.5C 96.6119,78.2652 97.2786,79.2652 97.5,80.5C 97.5,81.5 97.5,82.5 97.5,83.5C 96.1225,84.2344 94.6225,84.9011 93,85.5C 91.6124,84.4464 90.1124,84.2797 88.5,85C 91.8645,85.8025 93.1978,87.6358 92.5,90.5C 91.8333,90.5 91.1667,90.5 90.5,90.5C 89.7101,89.2058 88.7101,88.0391 87.5,87C 84.0764,86.2534 80.7431,86.42 77.5,87.5C 76.8333,87.8333 76.1667,88.1667 75.5,88.5C 75.5654,88.0618 75.3988,87.7284 75,87.5C 73.7119,91.853 71.2119,92.6863 67.5,90C 66.9186,89.1074 66.5852,88.1074 66.5,87C 68.256,84.2264 69.5893,81.2264 70.5,78C 73.8649,75.8426 77.0316,76.0092 80,78.5C 80.7494,77.365 80.5827,76.365 79.5,75.5C 77.6639,74.9724 75.9972,74.3058 74.5,73.5C 75.842,72.207 77.5087,71.3736 79.5,71C 85.1949,70.3742 90.8615,70.5409 96.5,71.5 Z"/></g>
<g><path style="opacity:0.016" fill="#623460" d="M 60.5,76.5 C 59.8333,75.1667 59.8333,75.1667 60.5,76.5 Z"/></g>
<g><path style="opacity:0.937" fill="#040202" d="M 136.5,74.5 C 138.147,77.4735 140.147,80.1401 142.5,82.5C 142.66,84.153 143.326,85.4863 144.5,86.5C 144.402,88.5529 145.069,90.2196 146.5,91.5C 146.232,93.099 146.566,94.4324 147.5,95.5C 148.833,102.833 148.833,110.167 147.5,117.5C 146.262,119.214 145.595,121.214 145.5,123.5C 144.596,124.209 144.263,125.209 144.5,126.5C 143.662,126.842 143.328,127.508 143.5,128.5C 142.094,128.973 141.427,129.973 141.5,131.5C 140.662,131.842 140.328,132.508 140.5,133.5C 139.833,133.5 139.5,133.833 139.5,134.5C 139.167,134.5 138.833,134.5 138.5,134.5C 137.485,133.54 137.485,132.373 138.5,131C 137.961,128.518 136.961,126.352 135.5,124.5C 134.62,121.738 133.454,119.071 132,116.5C 132.633,108.73 130.3,102.064 125,96.5C 122.55,100.905 118.717,102.738 113.5,102C 111.977,106.772 108.644,109.106 103.5,109C 102.051,110.102 100.718,111.269 99.5,112.5C 99.7512,110.83 100.418,109.33 101.5,108C 104.232,107.587 106.899,106.92 109.5,106C 110.76,103.699 112.093,101.532 113.5,99.5C 119.947,102.012 122.947,100.012 122.5,93.5C 122.957,92.7025 123.624,92.3691 124.5,92.5C 126.255,91.9278 127.922,91.0945 129.5,90C 133.115,85.28 135.449,80.1133 136.5,74.5 Z"/></g>
<g><path style="opacity:0.004" fill="#f4f5f4" d="M 59.5,76.5 C 58.8333,77.1667 58.8333,77.1667 59.5,76.5 Z"/></g>
<g><path style="opacity:1" fill="#0d8244" d="M 128.5,82.5 C 128.5,80.8333 128.5,79.1667 128.5,77.5C 130.03,75.1525 132.03,74.9859 134.5,77C 132.584,79.09 130.584,80.9233 128.5,82.5 Z"/></g>
<g><path style="opacity:0.971" fill="#f6f6f6" d="M 60.5,76.5 C 60.8333,76.5 61.1667,76.5 61.5,76.5C 62.1667,77.1667 62.8333,77.8333 63.5,78.5C 64.2071,81.7861 64.5405,85.1194 64.5,88.5C 62.1667,88.5 59.8333,88.5 57.5,88.5C 57.5,89.5 57.5,90.5 57.5,91.5C 58.8333,91.5 60.1667,91.5 61.5,91.5C 61.2695,94.6944 61.9362,97.6944 63.5,100.5C 63.0609,102.104 62.3943,103.604 61.5,105C 62.1667,106 62.8333,107 63.5,108C 61.9212,110.82 60.9212,113.82 60.5,117C 60.8207,122.742 60.8207,128.576 60.5,134.5C 60.1667,134.5 59.8333,134.5 59.5,134.5C 59.0679,133.29 58.4013,132.29 57.5,131.5C 57.573,129.973 56.9063,128.973 55.5,128.5C 55.6716,127.508 55.3382,126.842 54.5,126.5C 54.7373,125.209 54.404,124.209 53.5,123.5C 53.405,121.214 52.7384,119.214 51.5,117.5C 50.1667,110.167 50.1667,102.833 51.5,95.5C 52.4345,94.4324 52.7678,93.099 52.5,91.5C 54.8937,86.3806 57.5604,81.3806 60.5,76.5 Z"/></g>
<g><path style="opacity:1" fill="#59351f" d="M 96.5,71.5 C 102.529,73.0166 108.196,75.3499 113.5,78.5C 115.371,78.8588 116.871,79.8588 118,81.5C 119.92,84.3388 121.587,87.3388 123,90.5C 123.278,89.5842 123.778,88.9175 124.5,88.5C 124.328,89.4916 124.662,90.1583 125.5,90.5C 125.167,91.1667 124.833,91.8333 124.5,92.5C 123.624,92.3691 122.957,92.7025 122.5,93.5C 122.947,100.012 119.947,102.012 113.5,99.5C 112.53,98.3707 111.364,97.3707 110,96.5C 109.235,96.5699 108.735,96.9033 108.5,97.5C 105.06,96.4887 101.726,95.4887 98.5,94.5C 97.4151,92.4178 95.9151,92.0844 94,93.5C 93.8333,93.1667 93.6667,92.8333 93.5,92.5C 97.374,90.9975 97.0407,90.3309 92.5,90.5C 93.1978,87.6358 91.8645,85.8025 88.5,85C 90.1124,84.2797 91.6124,84.4464 93,85.5C 94.6225,84.9011 96.1225,84.2344 97.5,83.5C 100.851,86.4947 103.518,85.9947 105.5,82C 103.518,78.0053 100.851,77.5053 97.5,80.5C 97.2786,79.2652 96.6119,78.2652 95.5,77.5C 96.3482,75.5914 96.6816,73.5914 96.5,71.5 Z"/></g>
<g><path style="opacity:1" fill="#19110f" d="M 97.5,83.5 C 97.5,82.5 97.5,81.5 97.5,80.5C 100.851,77.5053 103.518,78.0053 105.5,82C 103.518,85.9947 100.851,86.4947 97.5,83.5 Z"/></g>
<g><path style="opacity:1" fill="#d5d5d5" d="M 100.5,80.5 C 102.465,80.9483 102.798,81.9483 101.5,83.5C 100.614,82.675 100.281,81.675 100.5,80.5 Z"/></g>
<g><path style="opacity:0.012" fill="#000100" d="M 142.5,81.5 C 143.833,82.1667 143.833,82.1667 142.5,81.5 Z"/></g>
<g><path style="opacity:0.006" fill="#010101" d="M 144.5,86.5 C 144.369,85.7611 144.536,85.0944 145,84.5C 145.692,85.4368 145.525,86.1034 144.5,86.5 Z"/></g>
<g><path style="opacity:1" fill="#185846" d="M 128.5,85.5 C 129.976,87.7089 129.309,89.0423 126.5,89.5C 126.66,87.847 127.326,86.5137 128.5,85.5 Z"/></g>
<g><path style="opacity:0.008" fill="#000000" d="M 146.5,91.5 C 146.369,90.7611 146.536,90.0944 147,89.5C 147.692,90.4368 147.525,91.1034 146.5,91.5 Z"/></g>
<g><path style="opacity:0.012" fill="#fafafa" d="M 52.5,91.5 C 51.475,91.1034 51.3083,90.4368 52,89.5C 52.4643,90.0944 52.631,90.7611 52.5,91.5 Z"/></g>
<g><path style="opacity:0.005" fill="#020202" d="M 147.5,95.5 C 147.351,94.448 147.517,93.448 148,92.5C 148.74,93.7494 148.573,94.7494 147.5,95.5 Z"/></g>
<g><path style="opacity:0.006" fill="#fdfdfd" d="M 51.5,95.5 C 50.4265,94.7494 50.2599,93.7494 51,92.5C 51.4828,93.448 51.6495,94.448 51.5,95.5 Z"/></g>
<g><path style="opacity:1" fill="#d8cdc2" d="M 90.5,90.5 C 91.1667,90.5 91.8333,90.5 92.5,90.5C 97.0407,90.3309 97.374,90.9975 93.5,92.5C 93.6667,92.8333 93.8333,93.1667 94,93.5C 95.9151,92.0844 97.4151,92.4178 98.5,94.5C 96.4205,95.0444 94.4205,95.8777 92.5,97C 92.9574,97.414 93.2907,97.914 93.5,98.5C 91.5787,99.641 89.5787,99.8077 87.5,99C 86.2264,98.0228 86.2264,97.1894 87.5,96.5C 88.5,96.1667 89.1667,95.5 89.5,94.5C 89.4326,93.0413 89.7659,91.7079 90.5,90.5 Z"/></g>
<g><path style="opacity:1" fill="#1a1310" d="M 74.5,73.5 C 75.9972,74.3058 77.6639,74.9724 79.5,75.5C 80.5827,76.365 80.7494,77.365 80,78.5C 77.0316,76.0092 73.8649,75.8426 70.5,78C 69.5893,81.2264 68.256,84.2264 66.5,87C 66.5852,88.1074 66.9186,89.1074 67.5,90C 71.2119,92.6863 73.7119,91.853 75,87.5C 75.3988,87.7284 75.5654,88.0618 75.5,88.5C 73.2961,94.6386 75.2961,97.4719 81.5,97C 78.038,94.7607 76.7046,91.594 77.5,87.5C 80.7431,86.42 84.0764,86.2534 87.5,87C 88.7101,88.0391 89.7101,89.2058 90.5,90.5C 89.7659,91.7079 89.4326,93.0413 89.5,94.5C 87.9261,92.8984 87.2594,90.8984 87.5,88.5C 85.8014,88.3796 84.1347,88.0463 82.5,87.5C 79.254,88.1244 78.9207,89.2911 81.5,91C 80.9034,92.6282 81.2367,94.2949 82.5,96C 84.3806,95.904 86.0473,96.0707 87.5,96.5C 86.2264,97.1894 86.2264,98.0228 87.5,99C 89.5787,99.8077 91.5787,99.641 93.5,98.5C 93.2907,97.914 92.9574,97.414 92.5,97C 94.4205,95.8777 96.4205,95.0444 98.5,94.5C 101.726,95.4887 105.06,96.4887 108.5,97.5C 108.938,97.4346 109.272,97.6012 109.5,98C 108.833,98.1667 108.167,98.3333 107.5,98.5C 103.906,97.1806 100.239,96.6806 96.5,97C 99.9927,97.9419 103.326,99.2752 106.5,101C 103.185,101.011 100.019,100.178 97,98.5C 96.5,98.8333 96,99.1667 95.5,99.5C 97.1184,101.316 99.1184,102.649 101.5,103.5C 102.833,104.167 102.833,104.833 101.5,105.5C 99.3021,103.902 96.9687,102.569 94.5,101.5C 90.1684,102.097 85.8351,102.263 81.5,102C 79.1161,98.6421 77.9495,98.8088 78,102.5C 78.8333,103.333 79.6667,104.167 80.5,105C 84.2027,105.579 87.8694,105.412 91.5,104.5C 91.9382,104.435 92.2716,104.601 92.5,105C 86.8586,108.716 81.692,108.216 77,103.5C 76.2881,101.153 75.1214,99.1526 73.5,97.5C 68.621,98.7033 65.9543,101.703 65.5,106.5C 66.8333,106.5 68.1667,106.5 69.5,106.5C 69.2965,108.39 69.9632,109.89 71.5,111C 75.2522,113.293 79.0856,115.46 83,117.5C 83.5,117 84,116.5 84.5,116C 89.7008,115.567 94.7008,114.4 99.5,112.5C 98.5213,114.145 97.188,115.479 95.5,116.5C 97.0284,117.861 98.6951,119.028 100.5,120C 101.696,120.654 101.696,121.154 100.5,121.5C 96.1613,117.657 91.1613,116.157 85.5,117C 83.7397,117.965 83.4063,119.132 84.5,120.5C 87.3478,118.524 90.3478,118.191 93.5,119.5C 90.2861,120.044 87.2861,121.044 84.5,122.5C 88.0946,122.448 91.7613,122.782 95.5,123.5C 92.5535,124.321 89.5535,124.821 86.5,125C 91.4389,126.436 95.7722,128.936 99.5,132.5C 99.1667,132.833 98.8333,133.167 98.5,133.5C 95.7984,131.78 93.1318,130.113 90.5,128.5C 88.7354,127.539 86.7354,127.205 84.5,127.5C 83.039,122.213 82.3723,122.547 82.5,128.5C 79.1016,128.82 75.7683,128.487 72.5,127.5C 75.2707,126.783 77.9374,126.449 80.5,126.5C 78.3805,124.6 76.0472,122.934 73.5,121.5C 73.6667,121.167 73.8333,120.833 74,120.5C 76.0563,122.319 78.2229,122.985 80.5,122.5C 73.7671,116.133 69.6005,117.467 68,126.5C 67.3333,124.833 67.3333,123.167 68,121.5C 69.6427,119.023 71.476,116.69 73.5,114.5C 71.3501,112.851 69.3501,111.018 67.5,109C 66.5509,108.383 65.7175,108.549 65,109.5C 64.0187,111.96 63.1854,114.46 62.5,117C 62.7773,122.452 62.944,127.952 63,133.5C 64,134.167 65,134.833 66,135.5C 67.2049,138.562 68.3716,141.562 69.5,144.5C 69.1667,144.5 68.8333,144.5 68.5,144.5C 65.4297,141.436 62.7631,138.103 60.5,134.5C 60.8207,128.576 60.8207,122.742 60.5,117C 60.9212,113.82 61.9212,110.82 63.5,108C 62.8333,107 62.1667,106 61.5,105C 62.3943,103.604 63.0609,102.104 63.5,100.5C 61.9362,97.6944 61.2695,94.6944 61.5,91.5C 60.1667,91.5 58.8333,91.5 57.5,91.5C 57.5,90.5 57.5,89.5 57.5,88.5C 59.8333,88.5 62.1667,88.5 64.5,88.5C 64.5405,85.1194 64.2071,81.7861 63.5,78.5C 64.3149,79.4293 65.1482,80.4293 66,81.5C 66.7162,79.1209 67.8828,77.1209 69.5,75.5C 71.1667,74.8333 72.8333,74.1667 74.5,73.5 Z"/></g>
<g><path style="opacity:1" fill="#cbc2b7" d="M 77.5,87.5 C 76.7046,91.594 78.038,94.7607 81.5,97C 75.2961,97.4719 73.2961,94.6386 75.5,88.5C 76.1667,88.1667 76.8333,87.8333 77.5,87.5 Z"/></g>
<g><path style="opacity:1" fill="#41271a" d="M 64.5,91.5 C 75.4046,92.1917 76.0712,94.8584 66.5,99.5C 64.5001,96.9502 63.8335,94.2836 64.5,91.5 Z"/></g>
<g><path style="opacity:1" fill="#393939" d="M 89.5,94.5 C 89.1667,95.5 88.5,96.1667 87.5,96.5C 86.0473,96.0707 84.3806,95.904 82.5,96C 81.2367,94.2949 80.9034,92.6282 81.5,91C 78.9207,89.2911 79.254,88.1244 82.5,87.5C 84.1347,88.0463 85.8014,88.3796 87.5,88.5C 87.2594,90.8984 87.9261,92.8984 89.5,94.5 Z"/></g>
<g><path style="opacity:0.009" fill="#010101" d="M 148.5,96.5 C 149.613,97.9464 149.78,99.6131 149,101.5C 148.506,99.8659 148.34,98.1992 148.5,96.5 Z"/></g>
<g><path style="opacity:0.008" fill="#fcfcfc" d="M 49.5,96.5 C 50.6129,97.9464 50.7796,99.6131 50,101.5C 49.5065,99.8659 49.3398,98.1992 49.5,96.5 Z"/></g>
<g><path style="opacity:1" fill="#60391e" d="M 135.5,124.5 C 135.225,126.758 134.225,127.092 132.5,125.5C 130.522,137.494 129.188,137.494 128.5,125.5C 128.668,131.484 126.002,135.817 120.5,138.5C 120.12,136.979 119.954,135.313 120,133.5C 118.68,137.487 116.013,140.154 112,141.5C 111.228,141.355 110.561,141.022 110,140.5C 107.926,143.078 105.426,145.078 102.5,146.5C 102.957,147.298 103.624,147.631 104.5,147.5C 104.918,148.222 105.584,148.722 106.5,149C 103.308,149.697 101.308,151.53 100.5,154.5C 99.5,154.5 98.5,154.5 97.5,154.5C 97.084,151.417 96.4174,148.417 95.5,145.5C 96.0905,143.903 97.0905,142.569 98.5,141.5C 97.132,140.406 95.9653,140.74 95,142.5C 94.7811,141.062 94.2811,139.729 93.5,138.5C 91.6043,139.639 90.6043,138.973 90.5,136.5C 91.2541,133.744 91.2541,131.078 90.5,128.5C 93.1318,130.113 95.7984,131.78 98.5,133.5C 98.8333,133.167 99.1667,132.833 99.5,132.5C 95.7722,128.936 91.4389,126.436 86.5,125C 89.5535,124.821 92.5535,124.321 95.5,123.5C 91.7613,122.782 88.0946,122.448 84.5,122.5C 87.2861,121.044 90.2861,120.044 93.5,119.5C 90.3478,118.191 87.3478,118.524 84.5,120.5C 83.4063,119.132 83.7397,117.965 85.5,117C 91.1613,116.157 96.1613,117.657 100.5,121.5C 101.696,121.154 101.696,120.654 100.5,120C 98.6951,119.028 97.0284,117.861 95.5,116.5C 97.188,115.479 98.5213,114.145 99.5,112.5C 100.718,111.269 102.051,110.102 103.5,109C 108.644,109.106 111.977,106.772 113.5,102C 118.717,102.738 122.55,100.905 125,96.5C 130.3,102.064 132.633,108.73 132,116.5C 133.454,119.071 134.62,121.738 135.5,124.5 Z"/></g>
<g><path style="opacity:1" fill="#60391f" d="M 108.5,97.5 C 108.735,96.9033 109.235,96.5699 110,96.5C 111.364,97.3707 112.53,98.3707 113.5,99.5C 112.093,101.532 110.76,103.699 109.5,106C 106.899,106.92 104.232,107.587 101.5,108C 100.418,109.33 99.7512,110.83 99.5,112.5C 94.7008,114.4 89.7008,115.567 84.5,116C 84,116.5 83.5,117 83,117.5C 79.0856,115.46 75.2522,113.293 71.5,111C 69.9632,109.89 69.2965,108.39 69.5,106.5C 68.1667,106.5 66.8333,106.5 65.5,106.5C 65.9543,101.703 68.621,98.7033 73.5,97.5C 75.1214,99.1526 76.2881,101.153 77,103.5C 81.692,108.216 86.8586,108.716 92.5,105C 92.2716,104.601 91.9382,104.435 91.5,104.5C 92.6935,103.728 93.6935,102.728 94.5,101.5C 96.9687,102.569 99.3021,103.902 101.5,105.5C 102.833,104.833 102.833,104.167 101.5,103.5C 99.1184,102.649 97.1184,101.316 95.5,99.5C 96,99.1667 96.5,98.8333 97,98.5C 100.019,100.178 103.185,101.011 106.5,101C 103.326,99.2752 99.9927,97.9419 96.5,97C 100.239,96.6806 103.906,97.1806 107.5,98.5C 108.167,98.3333 108.833,98.1667 109.5,98C 109.272,97.6012 108.938,97.4346 108.5,97.5 Z"/></g>
<g><path style="opacity:1" fill="#e4dacd" d="M 94.5,101.5 C 93.6935,102.728 92.6935,103.728 91.5,104.5C 87.8694,105.412 84.2027,105.579 80.5,105C 79.6667,104.167 78.8333,103.333 78,102.5C 77.9495,98.8088 79.1161,98.6421 81.5,102C 85.8351,102.263 90.1684,102.097 94.5,101.5 Z"/></g>
<g><path style="opacity:1" fill="#633c1f" d="M 123.5,104.5 C 123.56,103.957 123.893,103.624 124.5,103.5C 125.833,109.5 125.833,115.5 124.5,121.5C 123.264,122.246 121.93,122.579 120.5,122.5C 120.5,125.167 120.5,127.833 120.5,130.5C 117.256,130.898 114.589,132.398 112.5,135C 109.518,135.498 106.518,135.665 103.5,135.5C 103.232,132.881 103.565,130.381 104.5,128C 102.608,127.027 100.608,126.36 98.5,126C 100.769,125.242 102.936,125.409 105,126.5C 109.053,121.705 108.219,118.538 102.5,117C 103.661,115.172 105.161,113.672 107,112.5C 109.886,114.225 113.052,114.892 116.5,114.5C 116.5,112.5 116.5,110.5 116.5,108.5C 118.199,108.66 119.866,108.494 121.5,108C 117.81,107.576 117.643,106.742 121,105.5C 122.183,106.731 123.349,106.731 124.5,105.5C 124.376,104.893 124.043,104.56 123.5,104.5 Z"/></g>
<g><path style="opacity:0.009" fill="#020202" d="M 148.5,110.5 C 149.622,112.288 149.789,114.288 149,116.5C 148.505,114.527 148.338,112.527 148.5,110.5 Z"/></g>
<g><path style="opacity:0.004" fill="#f6f6f6" d="M 49.5,111.5 C 50.6129,112.946 50.7796,114.613 50,116.5C 49.5065,114.866 49.3398,113.199 49.5,111.5 Z"/></g>
<g><path style="opacity:0.006" fill="#fbfbfb" d="M 51.5,117.5 C 51.6495,118.552 51.4828,119.552 51,120.5C 50.2599,119.251 50.4265,118.251 51.5,117.5 Z"/></g>
<g><path style="opacity:0.005" fill="#000100" d="M 147.5,117.5 C 148.573,118.251 148.74,119.251 148,120.5C 147.517,119.552 147.351,118.552 147.5,117.5 Z"/></g>
<g><path style="opacity:0.008" fill="#000100" d="M 146.5,123.5 C 146.369,122.761 146.536,122.094 147,121.5C 147.692,122.437 147.525,123.103 146.5,123.5 Z"/></g>
<g><path style="opacity:0.004" fill="#f2f2f2" d="M 52.5,123.5 C 51.475,123.103 51.3083,122.437 52,121.5C 52.4643,122.094 52.631,122.761 52.5,123.5 Z"/></g>
<g><path style="opacity:0.008" fill="#010101" d="M 145.5,123.5 C 145.833,123.5 146.167,123.5 146.5,123.5C 146.167,126.167 145.833,126.167 145.5,123.5 Z"/></g>
<g><path style="opacity:0.008" fill="#f9f9f9" d="M 52.5,123.5 C 52.8333,123.5 53.1667,123.5 53.5,123.5C 53.1667,126.167 52.8333,126.167 52.5,123.5 Z"/></g>
<g><path style="opacity:0.008" fill="#020302" d="M 144.5,126.5 C 145.833,127.167 145.833,127.167 144.5,126.5 Z"/></g>
<g><path style="opacity:0.004" fill="#f6f6f6" d="M 54.5,126.5 C 54.5,127.167 54.5,127.833 54.5,128.5C 53.1667,127.833 53.1667,127.167 54.5,126.5 Z"/></g>
<g><path style="opacity:0.984" fill="#5f391e" d="M 90.5,128.5 C 91.2541,131.078 91.2541,133.744 90.5,136.5C 88.9719,136.517 88.4719,137.184 89,138.5C 91.9277,140.418 93.5943,143.085 94,146.5C 94.3826,145.944 94.8826,145.611 95.5,145.5C 96.4174,148.417 97.084,151.417 97.5,154.5C 94.8333,154.5 92.1667,154.5 89.5,154.5C 85.6472,152.993 81.6472,151.66 77.5,150.5C 77.0269,149.094 76.0269,148.427 74.5,148.5C 72.8577,147.197 71.1911,145.864 69.5,144.5C 68.3716,141.562 67.2049,138.562 66,135.5C 65,134.833 64,134.167 63,133.5C 62.944,127.952 62.7773,122.452 62.5,117C 63.1854,114.46 64.0187,111.96 65,109.5C 65.7175,108.549 66.5509,108.383 67.5,109C 69.3501,111.018 71.3501,112.851 73.5,114.5C 71.476,116.69 69.6427,119.023 68,121.5C 67.3333,123.167 67.3333,124.833 68,126.5C 69.6005,117.467 73.7671,116.133 80.5,122.5C 78.2229,122.985 76.0563,122.319 74,120.5C 73.8333,120.833 73.6667,121.167 73.5,121.5C 76.0472,122.934 78.3805,124.6 80.5,126.5C 77.9374,126.449 75.2707,126.783 72.5,127.5C 75.7683,128.487 79.1016,128.82 82.5,128.5C 82.3723,122.547 83.039,122.213 84.5,127.5C 86.7354,127.205 88.7354,127.539 90.5,128.5 Z"/></g>
<g><path style="opacity:0.012" fill="#f9faf9" d="M 54.5,128.5 C 54.8333,128.5 55.1667,128.5 55.5,128.5C 55.3147,129.17 54.9813,129.17 54.5,128.5 Z"/></g>
<g><path style="opacity:0.012" fill="#000100" d="M 143.5,128.5 C 144.833,129.167 144.833,129.167 143.5,128.5 Z"/></g>
<g><path style="opacity:0.008" fill="#f6f7f6" d="M 56.5,131.5 C 55.8333,130.167 55.8333,130.167 56.5,131.5 Z"/></g>
<g><path style="opacity:0.008" fill="#000100" d="M 142.5,130.5 C 143.833,131.167 143.833,131.167 142.5,130.5 Z"/></g>
<g><path style="opacity:0.004" fill="#f6f6f6" d="M 56.5,131.5 C 56.8333,131.5 57.1667,131.5 57.5,131.5C 57.1667,134.167 56.8333,134.167 56.5,131.5 Z"/></g>
<g><path style="opacity:0.004" fill="#040100" d="M 141.5,131.5 C 141.833,131.5 142.167,131.5 142.5,131.5C 142.672,132.492 142.338,133.158 141.5,133.5C 141.5,132.833 141.5,132.167 141.5,131.5 Z"/></g>
<g><path style="opacity:0.008" fill="#050000" d="M 140.5,133.5 C 140.833,133.5 141.167,133.5 141.5,133.5C 141.315,134.17 140.981,134.17 140.5,133.5 Z"/></g>
<g><path style="opacity:0.008" fill="#5a3d28" d="M 139.5,134.5 C 139.833,134.5 140.167,134.5 140.5,134.5C 140.315,135.17 139.981,135.17 139.5,134.5 Z"/></g>
<g><path style="opacity:0.004" fill="#272525" d="M 59.5,134.5 C 59.631,135.239 59.4643,135.906 59,136.5C 58.3083,135.563 58.475,134.897 59.5,134.5 Z"/></g>
<g><path style="opacity:0.008" fill="#5a341a" d="M 138.5,136.5 C 139.833,137.167 139.833,137.167 138.5,136.5 Z"/></g>
<g><path style="opacity:0.008" fill="#603b1f" d="M 137.5,137.5 C 137.833,137.5 138.167,137.5 138.5,137.5C 138.315,138.17 137.981,138.17 137.5,137.5 Z"/></g>
<g><path style="opacity:0.012" fill="#643b1e" d="M 136.5,138.5 C 136.833,138.5 137.167,138.5 137.5,138.5C 137.315,139.17 136.981,139.17 136.5,138.5 Z"/></g>
<g><path style="opacity:0.012" fill="#613b1d" d="M 135.5,139.5 C 135.833,139.5 136.167,139.5 136.5,139.5C 136.315,140.17 135.981,140.17 135.5,139.5 Z"/></g>
<g><path style="opacity:0.008" fill="#613c20" d="M 134.5,140.5 C 134.833,140.5 135.167,140.5 135.5,140.5C 135.315,141.17 134.981,141.17 134.5,140.5 Z"/></g>
<g><path style="opacity:1" fill="#22130c" d="M 90.5,136.5 C 90.6043,138.973 91.6043,139.639 93.5,138.5C 94.2811,139.729 94.7811,141.062 95,142.5C 95.9653,140.74 97.132,140.406 98.5,141.5C 97.0905,142.569 96.0905,143.903 95.5,145.5C 94.8826,145.611 94.3826,145.944 94,146.5C 93.5943,143.085 91.9277,140.418 89,138.5C 88.4719,137.184 88.9719,136.517 90.5,136.5 Z"/></g>
<g><path style="opacity:0.012" fill="#603b1f" d="M 133.5,141.5 C 133.833,141.5 134.167,141.5 134.5,141.5C 134.315,142.17 133.981,142.17 133.5,141.5 Z"/></g>
<g><path style="opacity:0.012" fill="#643c1e" d="M 132.5,142.5 C 132.833,142.5 133.167,142.5 133.5,142.5C 133.315,143.17 132.981,143.17 132.5,142.5 Z"/></g>
<g><path style="opacity:1" fill="#20120a" d="M 128.5,125.5 C 129.498,130.535 128.165,134.702 124.5,138C 119.597,140.138 114.597,141.805 109.5,143C 107.963,144.707 106.296,146.207 104.5,147.5C 103.624,147.631 102.957,147.298 102.5,146.5C 105.426,145.078 107.926,143.078 110,140.5C 110.561,141.022 111.228,141.355 112,141.5C 116.013,140.154 118.68,137.487 120,133.5C 119.954,135.313 120.12,136.979 120.5,138.5C 126.002,135.817 128.668,131.484 128.5,125.5 Z"/></g>
<g><path style="opacity:0.955" fill="#5d371e" d="M 135.5,124.5 C 136.961,126.352 137.961,128.518 138.5,131C 137.485,132.373 137.485,133.54 138.5,134.5C 137.89,135.391 137.557,136.391 137.5,137.5C 136.833,137.5 136.5,137.833 136.5,138.5C 135.833,138.5 135.5,138.833 135.5,139.5C 134.833,139.5 134.5,139.833 134.5,140.5C 133.833,140.5 133.5,140.833 133.5,141.5C 132.833,141.5 132.5,141.833 132.5,142.5C 131.833,142.5 131.5,142.833 131.5,143.5C 130.833,143.5 130.5,143.833 130.5,144.5C 128.973,144.427 127.973,145.094 127.5,146.5C 126.833,146.5 126.5,146.833 126.5,147.5C 125.508,147.328 124.842,147.662 124.5,148.5C 122.973,148.427 121.973,149.094 121.5,150.5C 120.209,150.263 119.209,150.596 118.5,151.5C 117.508,151.328 116.842,151.662 116.5,152.5C 115.209,152.263 114.209,152.596 113.5,153.5C 111.901,153.232 110.568,153.566 109.5,154.5C 106.5,154.5 103.5,154.5 100.5,154.5C 101.308,151.53 103.308,149.697 106.5,149C 105.584,148.722 104.918,148.222 104.5,147.5C 106.296,146.207 107.963,144.707 109.5,143C 114.597,141.805 119.597,140.138 124.5,138C 128.165,134.702 129.498,130.535 128.5,125.5C 129.188,137.494 130.522,137.494 132.5,125.5C 134.225,127.092 135.225,126.758 135.5,124.5 Z"/></g>
<g><path style="opacity:0.012" fill="#57361d" d="M 131.5,143.5 C 131.833,143.5 132.167,143.5 132.5,143.5C 132.315,144.17 131.981,144.17 131.5,143.5 Z"/></g>
<g><path style="opacity:0.008" fill="#301d10" d="M 68.5,144.5 C 68.5,144.833 68.5,145.167 68.5,145.5C 67.8299,145.019 67.8299,144.685 68.5,144.5 Z"/></g>
<g><path style="opacity:0.008" fill="#543119" d="M 130.5,144.5 C 130.833,144.5 131.167,144.5 131.5,144.5C 131.315,145.17 130.981,145.17 130.5,144.5 Z"/></g>
<g><path style="opacity:0.008" fill="#452b18" d="M 68.5,145.5 C 69.8333,146.167 69.8333,146.167 68.5,145.5 Z"/></g>
<g><path style="opacity:0.004" fill="#4a2a19" d="M 130.5,145.5 C 129.833,146.167 129.833,146.167 130.5,145.5 Z"/></g>
<g><path style="opacity:0.008" fill="#3c281d" d="M 127.5,146.5 C 128.833,147.167 128.833,147.167 127.5,146.5 Z"/></g>
<g><path style="opacity:0.008" fill="#63391f" d="M 126.5,147.5 C 126.833,147.5 127.167,147.5 127.5,147.5C 127.315,148.17 126.981,148.17 126.5,147.5 Z"/></g>
<g><path style="opacity:0.008" fill="#603c1d" d="M 74.5,148.5 C 74.5,148.833 74.5,149.167 74.5,149.5C 71.8333,149.167 71.8333,148.833 74.5,148.5 Z"/></g>
<g><path style="opacity:0.004" fill="#60381d" d="M 124.5,149.5 C 124.5,149.167 124.5,148.833 124.5,148.5C 125.167,148.5 125.833,148.5 126.5,148.5C 126.158,149.338 125.492,149.672 124.5,149.5 Z"/></g>
<g><path style="opacity:0.008" fill="#5f3a1c" d="M 74.5,149.5 C 75.8333,150.167 75.8333,150.167 74.5,149.5 Z"/></g>
<g><path style="opacity:0.008" fill="#5e391c" d="M 124.5,149.5 C 123.833,150.167 123.833,150.167 124.5,149.5 Z"/></g>
<g><path style="opacity:0.008" fill="#643c1e" d="M 77.5,150.5 C 76.8333,151.167 76.8333,151.167 77.5,150.5 Z"/></g>
<g><path style="opacity:0.008" fill="#633d1e" d="M 121.5,150.5 C 122.833,151.167 122.833,151.167 121.5,150.5 Z"/></g>
<g><path style="opacity:0.008" fill="#643f22" d="M 118.5,152.5 C 118.5,152.167 118.5,151.833 118.5,151.5C 121.167,151.833 121.167,152.167 118.5,152.5 Z"/></g>
<g><path style="opacity:0.008" fill="#5c391f" d="M 116.5,153.5 C 116.5,153.167 116.5,152.833 116.5,152.5C 117.167,152.5 117.833,152.5 118.5,152.5C 118.158,153.338 117.492,153.672 116.5,153.5 Z"/></g>
<g><path style="opacity:0.008" fill="#683921" d="M 113.5,154.5 C 113.5,154.167 113.5,153.833 113.5,153.5C 114.5,153.5 115.5,153.5 116.5,153.5C 115.791,154.404 114.791,154.737 113.5,154.5 Z"/></g>
<g><path style="opacity:0.008" fill="#683e20" d="M 89.5,154.5 C 88.3991,155.598 87.0657,155.765 85.5,155C 86.7932,154.51 88.1266,154.343 89.5,154.5 Z"/></g>
<g><path style="opacity:0.008" fill="#673e20" d="M 109.5,154.5 C 110.833,154.5 112.167,154.5 113.5,154.5C 112.167,155.833 110.833,155.833 109.5,154.5 Z"/></g>
<g><path style="opacity:0.012" fill="#673e20" d="M 90.5,156.5 C 92.2884,155.378 94.2884,155.211 96.5,156C 94.5273,156.495 92.5273,156.662 90.5,156.5 Z"/></g>
<g><path style="opacity:0.012" fill="#643d20" d="M 102.5,156.5 C 104.288,155.378 106.288,155.211 108.5,156C 106.527,156.495 104.527,156.662 102.5,156.5 Z"/></g>
</svg>
