<svg width="198" height="198" viewBox="0 0 198 198" fill="none" xmlns="http://www.w3.org/2000/svg"><radialGradient id="a" cx="0" cy="0" gradientTransform="matrix(0 99 -99 0 99 99)" gradientUnits="userSpaceOnUse" r="1"><stop offset="0" stop-color="#4fd1c5"/><stop offset="1" stop-color="#667eea"/></radialGradient><radialGradient id="b" cx="0" cy="0" gradientTransform="matrix(0 75 -75 0 99 99)" gradientUnits="userSpaceOnUse" r="1"><stop offset="0" stop-color="#05ffe8"/><stop offset="1" stop-color="#667eea"/></radialGradient><clipPath id="c"><path d="m0 0h198v198h-198z"/></clipPath><clipPath id="d"><path d="m59 53h80v92h-80z"/></clipPath><g clip-path="url(#c)"><circle cx="99" cy="99" fill="url(#a)" r="99"/><g fill="#fff"><path d="m29.1008 165.119.2924-.376c.0416.031 4.2704 3.152 15.7656.322 10.6332-2.619 29.8144-11.005 60.8072-36.09 2.666-2.159 5.412-4.433 8.159-6.76l.618.616c-2.75 2.33-5.498 4.607-8.168 6.768-31.1446 25.208-50.7334 33.352-61.4218 35.958-11.6668 2.844-15.8788-.303-16.0524-.438z" fill-opacity=".32"/><path d="m11.2981 138.872c-.0676-.112-1.61039-2.824 2.2692-9.476 3.5472-6.082 12.5404-16.788 35.2428-33.2576 15.4968-11.242 34.0788-22.6288 52.3249-32.0632l.448.5196c-18.2329 9.4276-36.8021 20.806-52.2869 32.0392-43.29519 31.408-37.8048 41.977-37.7412 42.083z" fill-opacity=".32"/><path d="m2.38488 101.843c-.01-.064-.9496-6.5404 2.2748-16.238 2.97-8.9348 10.18402-22.5268 27.68362-36.5396 14.3536-11.494 35.2036-20.5636 57.2032-24.882 7.6364-1.4988 15.2795-2.3976 22.7175-2.6716 11.72-.432 22.746.678 32.771 3.2984l-.101.3872c-9.988-2.6108-21.227-3.4064-32.908-2.976-7.417.2732-15.0395 1.1696-22.6555 2.6644-21.9384 4.3068-42.4724 13.0364-56.7776 24.492-17.4104 13.9416-24.58842 27.4488-27.54482 36.3256-3.2016 9.614-2.2776 16.0156-2.268 16.0796z" fill-opacity=".32"/><path d="m65.7778 188.771.1756-.36c.0848.042 8.6696 4.137 22.5856 2.721 12.85-1.307 33.003-7.714 56.039-30.813 23.712-23.778 32.725-49.813 36.112-67.4671 3.932-20.4984 2.18-40.2708-4.573-51.6012l.344-.2048c6.8 11.4112 8.571 31.2908 4.622 51.8812-3.397 17.7089-12.128 44.0779-35.912 67.9269-23.132 23.196-43.7 29.371-56.6208 30.679-14.0204 1.419-22.6868-2.72-22.7724-2.762z" fill-opacity=".32"/><path d="m149.259 133.655c-2.104-1.717-3.919-3.301-5.311-4.553l.572-.664c6.764 6.089 23.641 20.087 34.258 18.565 2.673-.383 4.763-1.766 6.213-4.112l.405.25c-1.527 2.472-3.731 3.93-6.551 4.334-8.606 1.234-21.393-7.134-29.586-13.82z" fill-opacity=".32"/><path d="m110.066 90.3272c-10.7074-14.7724-19.335-29.5192-25.6438-43.8308-9.4476-21.4352-8.5568-32.8488-6.358-38.38918 1.6676-4.2024 4.236-5.3288 4.3448-5.3748l.186.4392c-.0252.0104-2.5128 1.1152-4.1008 5.1444-2.1512 5.45878-2.7496 16.42638 6.6176 37.67798 6.2944 14.2812 14.9052 28.9984 25.5932 43.7432z" fill-opacity=".32"/><path d="m97.5333 167.894c-4.058-3.312-7.89-6.757-11.3716-10.015-6.8612-6.422-18.2672-18.469-28.9912-33.894-8.7468-12.58-20.0596-32.0805-25.4876-52.0617-5.1288-18.8796-4.2332-30.066-2.5788-36.1256 1.8048-6.6112 4.8044-8.7 4.9312-8.786l.2244.3312c-.03.0208-3.0252 2.1208-4.7848 8.6148-1.628 6.0096-2.5 17.1096 2.594 35.8612 10.426 38.3771 42.7792 74.9241 54.3664 85.7681 15.9317 14.911 39.2367 33.77 57.6077 25.457l.165.364c-14.547 6.584-32.068-3.594-46.6747-15.514z" fill-opacity=".32"/><path d="m53.327 178.002c-1.7904-1.462-3.3784-2.86-4.686-4.108l-.238-.226c-7.2424-6.908-22.3124-21.28-35.2796-49.292-13.004028-28.0904-8.28083-47.5432-8.23163-47.7364l.2908.0736c-.0492.1924-4.742399 19.5508 8.21283 47.5368 12.9436 27.96 27.9856 42.306 35.2144 49.2l.2384.228c7.014 6.69 22.1552 17.79 32.9284 19.094l-.0364.298c-8.8316-1.07-20.5604-8.66-28.4132-15.068z" fill-opacity=".32"/><path d="m81.4884 193.084.0516-.107c.896.429 9.7032 2.66 17.764-.876 5.809-2.549 9.86-7.442 12.039-14.543 5.73-18.667-1.49-46.021-19.3122-73.172-7.6136-11.5985-18.328-23.1973-29.3996-31.8337-8.7032-6.786-21.6488-14.8984-33.8976-15.0108-10.744-.0992-16.5872 5.148-19.59716 9.5672-3.2624 4.7896-3.9924 9.6632-3.9996 9.712l-.2384-.0916c.0068-.0488.8624-4.8756 4.14-9.6876 1.92556-2.8272 4.33956-5.072 7.17436-6.6716 3.5428-1.9996 7.7556-2.9912 12.522-2.9476 5.0144.0464 10.6132 1.4688 16.6416 4.2284 5.572 2.5512 11.402 6.1876 17.3276 10.8084 11.0816 8.638 21.8056 20.2528 29.426 31.8619 8.023 12.222 14.149 25.012 17.716 36.989 4.165 13.987 4.707 26.194 1.611 36.283-2.19 7.135-6.263 12.053-12.105 14.616-8.1008 3.555-16.9616 1.306-17.8636.875z" fill-opacity=".32"/><path d="m46.0937 108.445c-9.0752-7.406-17.1724-9.7544-21.3488-9.5152-7.3304.42-15.01081 2.9132-16.40081 18.2232-.7364 8.115 2.25561 17.27 4.89521 23.521 2.8612 6.776 5.9364 11.695 5.9672 11.744 4.9736 6.487 9.9248 11.759 14.7128 15.666 10.7088 8.739 18.8704 9.225 23.8312 8.093 6.0892-1.389 10.0064-5.636 11.5112-8.85 3.2132-6.867 3.4956-24.803-9.4276-43.7-4.0748-5.959-8.698-11.067-13.7404-15.182zm-12.1268 60.045c-4.7948-3.913-9.8172-9.108-14.7996-15.606-.1984-.026-3.2776-5.09-6.1424-11.875-2.6452-6.264-5.71121-15.344-4.97241-23.483.6464-7.122 2.85881-12.394 6.40721-15.327 3.2236-2.6656 7.186-3.2104 10.2784-3.3876 4.198-.2408 12.3292 2.1136 21.4308 9.5416 5.0512 4.122 9.682 9.238 13.7632 15.207 12.9508 18.938 12.6616 36.927 9.4368 43.817-1.5156 3.238-5.4612 7.517-11.592 8.916-3.2924.751-6.7984.643-10.486-.458-4.3044-1.285-8.7276-3.594-13.324-7.345z" fill-opacity=".32"/><path d="m144.088 183.539-.104-.344c17.706-8.012 10.706-35.679 7.315-49.088-.127-.506-.25-.99-.365-1.452-1.551-6.189-9.181-23.604-21.289-42.9421-10.293-16.4388-26.824-39.0192-47.1205-53.2424-9.1304-6.3976-17.4424-10.7796-24.706-13.024-5.68-1.7548-10.876-2.2832-15.112-1.4216-6.1076 1.2424-8.3956 4.796-8.418 4.8324l-.2668-.1896c.0228-.0368 2.3572-3.6808 8.5136-4.9352 4.2552-.8672 9.6128-.1612 15.3128 1.5988 7.2764 2.2476 15.6016 6.6356 24.744 13.042 20.3149 14.232 36.8549 36.8284 47.1539 53.2768 12.115 19.3479 19.751 36.7789 21.303 42.9759.116.462.238.946.366 1.452 3.398 13.44 10.469 41.407-7.327 49.461z" fill-opacity=".32"/><path d="m184.733 143.535c5-10.279.926-24.517-2.996-34.289-1.853-4.617-19.148-46.1321-55.213-81.4337-17.652-17.2772-28.3607-22.80479-34.4963-24.61119-6.6372-1.954-9.1364.1952-9.1616.2172l-.3888-.3412c.0248-.022 2.558-2.212401 9.2464-.2508 3.916 1.148 8.4763 3.4732 13.5543 6.9104 6.344 4.29399 13.52 10.34679 21.329 17.99039 14.542 14.2344 27.693 31.0288 39.086 49.9156 9.671 16.032 14.81 28.2093 16.154 31.5593 3.93 9.793 8.323 24.316 3.303 34.638z" fill-opacity=".32"/><path d="m29.182 165.056c-6.6608-7.816 3.816-28.225 28.744-55.992 26.0476-29.0142 60.662-53.3546 75.326-62.1714 14.646-8.806 28.415-13.8244 35.935-13.0964 2.657.2572 4.638 1.17 5.887 2.7124 1.677 2.0696 1.416 4.5764 1.414 4.6016l-.261.0856c.003-.0244.4-2.5836-1.246-4.614-1.229-1.5148-3.182-2.4136-5.806-2.6676-3.785-.3664-9.264.7412-15.843 3.2028-6.218 2.3264-13.14 5.742-20.018 9.8772-14.659 8.814-49.2616 33.1456-75.2996 62.1488-12.8252 14.286-21.7908 26.508-26.6488 36.325-4.4984 9.093-4.9692 15.529-1.84 19.201z" fill-opacity=".32"/><path d="m52.8824 181.926c-4.518-3.686-8.3728-8.649-11.4836-14.43-4.4524-8.272-7.136-18.359-7.7608-29.17-.6836-11.828 1.0064-24.307 5.0228-37.09 11.5648-36.8057 36.686-59.4269 50.6308-69.6353 2.5396-1.8592 5.0396-3.5532 7.4304-5.0352 6.358-3.9408 18.31-9.0564 31.07-10.504l-.025.216c-12.741 1.4456-24.635 6.4548-30.9826 10.3888-2.3884 1.4804-4.8856 3.1728-7.4224 5.03-13.9332 10.2-39.0332 32.8016-50.588 69.5757-7.7032 24.515-6.7084 48.633 2.7288 66.168 5.7904 10.758 14.448 18.251 24.3788 21.094l-.088.347c-4.6232-1.325-8.9984-3.762-12.9112-6.955z" fill-opacity=".32"/><path d="m20.2753 133.19c-10.70965-8.739-16.84685-20.327-18.01285-34.9429l.2404-.2416c1.2352 15.4795 7.92525 27.8125 19.87445 36.6685 23.2408 17.212 59.8763 17.116 86.4117 11.287 21.367-4.694 41.711-14.817 57.284-28.505 15.599-13.709 24.203-29.0673 24.229-43.2437.022-11.5292-3.716-19.9116-6.857-24.9128-3.401-5.4172-6.849-8.1392-6.883-8.1692l.073-.0932c.032.0236 3.498 2.7628 6.911 8.1992 3.148 5.0148 6.897 13.4184 6.875 24.9764-.013 7.182-2.223 14.6796-6.568 22.284-4.181 7.3183-10.137 14.4003-17.701 21.0483-7.554 6.639-16.291 12.477-25.968 17.35-10.028 5.05-20.582 8.813-31.369 11.182-15.1838 3.335-31.525 4.331-46.0146 2.802-7.8916-.833-15.2531-2.391-21.8803-4.631-7.0996-2.4-13.3621-5.589-18.6132-9.478-.6948-.515-1.3724-1.042-2.0316-1.58z" fill-opacity=".32"/><path d="m43.3176 151.076c-3.8872-3.172-7.5836-6.644-11.018-10.373-14.5988-15.85-22.74558-34.492-22.93958-52.4906-.096-8.8656 1.00678-17.476 3.27758-25.5913 1.8164-6.4924 4.3804-12.6844 7.6208-18.404 5.5176-9.74 11.1608-14.798 11.2176-14.848l.0788.0892c-.0564.0496-5.688 5.0976-11.196 14.822-5.0832 8.9745-11.09679 23.8809-10.88039 43.9309.4232 39.1568 37.20479 73.9188 71.29319 81.8188 34.1114 7.905 60.4874 3.362 85.5224-14.731 25.295-18.281 36.062-51.236 27.429-83.9566l.115-.0304c4.298 16.2884 3.96 32.791-.976 47.722-4.89 14.794-14.054 27.367-26.498 36.361-12.703 9.18-25.56 14.8-39.306 17.18-13.8 2.389-28.9492 1.595-46.3128-2.43-12.8664-2.981-25.9716-9.72-37.4276-19.069z" fill-opacity=".32"/><path d="m162.011 171.894-.077-.09c21.324-18.146 33.35-48.696 31.387-79.7273-1.006-15.8916-5.552-28.7332-9.188-36.7076-3.941-8.6408-7.692-13.5868-7.729-13.6356l.094-.0724c.038.0492 3.795 5.0032 7.741 13.6552 3.642 7.984 8.194 20.8412 9.2 36.7524.962 15.1923-1.388 30.5643-6.794 44.4543-5.486 14.094-14.004 26.325-24.634 35.371z" fill-opacity=".32"/><path d="m3.31567 80.4672c8.39443-45.3941 48.40163-78.69768 95.12883-79.18928 6.0155-.0636 12.0965.4292 18.0755 1.464l-.051.2952c-5.961-1.0312-12.024-1.5224-18.0213-1.4592-46.584.49-86.4688 33.69078-94.83683 78.94358z" fill-opacity=".32"/><path d="m80.7437 192.902.0764-.392c12.4979 2.422 25.3749 2.128 37.7749-.262l-.177.702c-12.451 2.401-25.126 2.384-37.6743-.048z" fill-opacity=".32"/><path d="m182.48 148.76c6.391-10.097 10.786-21.208 13.064-33.025 2.242-11.635 2.322-23.3816.237-34.9136-1.378-7.6204-3.701-15.0804-6.904-22.1732l.091-.0408c3.207 7.1 5.532 14.568 6.912 22.196 2.087 11.5448 2.007 23.3036-.238 34.9516-2.28 11.828-6.68 22.951-13.077 33.058z" fill-opacity=".32"/><path d="m12.716 140.203c-.464-.379-.8896-.804-1.3144-1.272l.252-.236c2.5372 2.79 4.6648 4.555 19.214 2.614 14.5052-1.936 50.358-16.021 82.9864-35.402 39.414-23.4108 56.858-41.7268 63.747-50.5608 3.193-4.0944 4.282-7.594 3.361-10.1996-1.063-3.0104-4.666-3.6144-4.702-3.6224l.151-.2664c.036.008 3.64.8788 4.726 3.9508.936 2.6464-.222 6.082-3.442 10.2108-6.895 8.8408-24.349 27.1688-63.78 50.5896-32.6414 19.388-68.5146 33.48-83.0322 35.417-11.7416 1.567-15.5624.902-18.1668-1.223z" fill-opacity=".32"/><path d="m84.6526 2.40039.1372.4568c-.05.0152-5.0444 1.6528-9.3996 12.66081-4.0288 10.1832-8.3108 30.6748-5.8308 70.4692.2136 3.4248.4764 6.9804.7808 10.5672l-.8608.1468c-.3048-3.5912-.5676-7.15-.7812-10.5784-2.4928-39.9904 2.2228-60.674 6.294-70.8944 4.444-11.15601 9.4492-12.76521 9.6604-12.82801z" fill-opacity=".32"/><path d="m116.36 3.10449c.131.01 3.234.324 6.407 7.34121 2.9 6.4148 6.414 19.9488 6.678 47.9944.18 19.1444-1.31 40.8872-4.196 61.2239l-.684.064c2.885-20.3223 4.374-42.0495 4.194-61.1787-.503-53.48521-12.299-55.13641-12.422-55.14601z" fill-opacity=".32"/><path d="m151.702 17.3008c.058.0292 5.88 3.0172 11.915 11.2648 5.559 7.5988 12.455 21.3548 13.733 43.7368 1.048 18.3588-3.645 40.6066-12.876 61.0376-3.204 7.092-6.901 13.841-10.989 20.062-6.44 9.801-13.735 18.143-21.681 24.794l-.257-.307c7.916-6.626 15.079-15.324 21.498-25.093 4.076-6.203 7.763-12.934 10.958-20.007 9.206-20.374 13.992-42.167 12.947-60.4638-1.271-22.2684-8.119-35.9464-13.639-43.5-5.979-8.1808-11.732-11.1384-11.789-11.1672z" fill-opacity=".32"/><path d="m44.1217 18.582.1916.3516c-.0832.0452-8.396 4.6676-15.3072 16.8288-6.3824 11.2292-12.8412 31.3652-7.3676 63.5256 5.6348 33.104 21.628 55.539 34.052 68.53 14.426 15.084 31.5548 25.116 44.7015 26.18l-.032.398c-13.2407-1.071-30.4675-11.149-44.9583-26.302-12.4628-13.031-28.8916-35.429-34.5428-68.6328-5.4968-32.2944 1.3912-52.6348 7.814-63.922 6.9692-12.2484 15.3652-16.9112 15.4488-16.9572z" fill-opacity=".32"/><path d="m40.6553 118.556c2.618-.719 4.9612-1.28 6.7892-1.689l.2096.851c-8.8836 1.983-30.0716 7.625-34.9848 17.158-1.2376 2.401-1.3212 4.906-.2496 7.446l-.4392.186c-1.1296-2.677-1.0404-5.318.2648-7.85 3.9832-7.729 18.2124-13.3 28.41-16.102z" fill-opacity=".32"/><path d="m98.6785 111.728c18.2435-.165 35.2615 1.351 50.5815 4.505 22.943 4.723 31.728 12.064 34.969 17.067 2.459 3.794 1.888 6.541 1.862 6.655l-.465-.102c.005-.027.547-2.694-1.816-6.324-3.202-4.916-11.793-11.76-34.54-16.444-15.287-3.147-32.271-4.659-50.4811-4.495z" fill-opacity=".32"/><path d="m42.7309 56.5599c5.05-1.3876 10.0784-2.514 14.7516-3.4628 9.2096-1.87 25.638-4.1828 44.4235-3.9824 15.321.1632 37.769 2.2456 57.198 9.4024 18.358 6.762 26.955 13.9748 30.935 18.8352 4.341 5.3024 4.305 8.9576 4.301 9.1108l-.4-.0092c.001-.0368.026-3.6944-4.247-8.892-3.954-4.81-12.494-11.9536-30.727-18.67-37.318-13.7452-85.8515-8.5608-101.4039-5.4028-21.3848 4.3412-50.26083 12.4036-54.13323 32.1928l-.392-.0772c3.066-15.6704 21.51443-24.05 39.69403-29.0448z" fill-opacity=".32"/><path d="m60.1138 14.6771c2.2284-.6124 4.2888-1.0956 6.0628-1.4384l.3232-.0628c9.826-1.8988 30.2724-5.85002 60.6162-.1824 30.428 5.6824 43.543 20.8052 43.672 20.9576l-.229.194c-.128-.1516-13.184-15.1952-43.498-20.8572-30.2876-5.65642-50.6964-1.7128-60.504.1828l-.3236.0624c-9.5176 1.838-27.338 7.7444-34.6444 15.7684l-.2216-.2024c5.9896-6.5776 18.9728-11.7368 28.7464-14.422z" fill-opacity=".32"/><path d="m31.5004 28.8848.0576.1044c-.8684.4816-7.7916 6.3652-9.5808 14.9844-1.2896 6.2112.35 12.3476 4.8736 18.2388 11.892 15.488 38.368 25.4579 70.8232 26.6695 13.864.5176 29.526-1.4919 42.981-5.5095 10.574-3.1592 24.688-9.0072 31.878-18.924 6.308-8.6984 5.418-16.5008 3.561-21.5152-2.012-5.4344-5.561-8.854-5.596-8.888l.212-.1412c.036.0336 3.474 3.5284 5.496 8.9884 1.188 3.208 1.618 6.476 1.279 9.7132-.424 4.046-2.057 8.054-4.855 11.9128-2.944 4.0592-7.348 7.7976-13.091 11.1108-5.308 3.0624-11.651 5.706-18.85 7.8572-13.462 4.0244-29.143 6.032-43.0194 5.514-14.6104-.5452-28.584-2.966-40.4108-7.0004-13.8128-4.7112-24.0752-11.3444-30.5024-19.7152-4.5452-5.9196-6.1924-12.0888-4.8956-18.3356 1.798-8.6616 8.7652-14.5788 9.6396-15.0644z" fill-opacity=".32"/><path d="m120.99 49.094c11.295-3.1032 17.901-8.3408 20.127-11.8832 3.906-6.2168 6.326-13.9204-5.346-23.9268-6.186-5.30242-15.38-8.17002-22.004-9.64202-7.181-1.59559-12.972-1.9404-13.029-1.9436-8.1691.2936-15.3351 1.27281-21.2939 2.91001-13.3284 3.66199-18.454 10.03201-20.4072 14.73081-2.3964 5.7672-1.206 11.4208.5416 14.51 3.7336 6.5984 18.1864 17.2232 41.0755 17.6436 7.218.1328 14.06-.6744 20.336-2.3988zm-41.9043-44.68162c5.968-1.6396 13.1116-2.72199 21.2953-3.01639.136-.146 6.047.27919 13.237 1.87679 6.638 1.4748 15.814 4.23881 22.019 9.55802 5.429 4.6544 8.443 9.5124 8.777 14.104.304 4.172-1.549 7.7168-3.197 10.3392-2.236 3.5604-8.868 8.8224-20.196 11.9348-6.286 1.7272-13.14 2.536-20.369 2.4028-22.9387-.4216-37.4307-11.0828-41.1767-17.704-1.7608-3.1124-2.9608-8.8072-.5476-14.614 1.296-3.1184 3.4156-5.9132 6.4504-8.28 3.5416-2.76322 7.9868-5.02922 13.7076-6.60122z" fill-opacity=".32"/><path d="m3.00019 85.4316.3404.1148c-3.732001 19.0726 22.87121 29.4026 35.76361 34.4106.4864.189.9524.371 1.3952.544 5.9428 2.323 24.5568 6.199 47.3328 7.539 19.3618 1.139 47.3438.754 70.6988-7.544 10.504-3.732 18.893-7.966 24.932-12.585 4.722-3.612 8.164-7.54 9.916-11.491 2.528-5.6976.958-9.6216.941-9.6612l.309-.1072c.017.04 1.634 4.054-.912 9.798-1.759 3.9704-5.44 7.9274-10.178 11.5524-6.048 4.627-14.449 8.868-24.969 12.606-23.371 8.307-51.371 8.69-70.745 7.55-22.7888-1.34-41.4188-5.22-47.3688-7.547-.4428-.173-.9088-.354-1.3952-.543-12.9224-5.02-39.812012-15.466-36.06081-34.6364z" fill-opacity=".32"/><path d="m12.0442 141.74c5.4792 10.031 19.4428 14.962 29.6796 17.43 4.8368 1.166 48.6916 11.132 98.3622 2.201 24.31-4.371 35.021-9.895 40.049-13.849 5.439-4.276 5.136-7.558 5.132-7.591l.504-.119c.003.033.32 3.366-5.154 7.68-3.206 2.526-7.743 4.894-13.487 7.041-7.176 2.681-16.268 5.021-27.023 6.955-20.028 3.601-41.3356 4.585-63.3304 2.923-18.6696-1.41-31.5712-4.28-35.0812-5.125-10.2584-2.473-24.6392-7.311-30.1412-17.384z" fill-opacity=".32"/><path d="m84.657 2.5031c10.23-.898 20.79 19.4676 28.971 55.8752 8.548 38.042 8.323 80.3577 7.009 97.4177-1.312 17.038-5.202 31.168-10.153 36.874-1.75 2.016-3.642 3.102-5.623 3.226-2.659.167-4.55-1.498-4.569-1.515l.081-.262c.018.016 1.874 1.823 4.482 1.659 1.947-.124 3.812-1.195 5.539-3.186 2.493-2.872 4.765-7.979 6.572-14.766 1.708-6.416 2.937-14.037 3.553-22.039 1.313-17.054 1.538-59.3543-7.007-97.3827-4.209-18.7312-8.973-33.1208-14.1582-42.7688-4.8024-8.9356-9.7748-13.05-14.5804-12.6276z" fill-opacity=".32"/><path d="m57.1734 12.0404c5.6228-1.5452 11.9012-1.8108 18.4152-.9956 9.322 1.166 19.0972 4.8248 28.2694 10.5816 10.035 6.298 19.225 14.9072 27.315 25.5888 23.291 30.7556 27.167 64.3378 27.404 81.6188.043 3.146-.025 6.166-.203 8.973-.473 7.465-3.231 20.17-9.447 31.408l-.161-.146c6.206-11.221 9.017-23.817 9.49-31.27.177-2.804.246-5.82.203-8.964-.238-17.266-4.11-50.8194-27.381-81.5486-15.514-20.4852-35.7446-33.652-55.5042-36.124-12.1232-1.51684-23.2464 1.1964-31.3192 7.6416l-.2312-.2728c3.7584-3 8.2808-5.1528 13.15-6.4908z" fill-opacity=".32"/><path d="m115.787 13.7127c13.329-3.6624 26.329-1.9476 38.916 5.5728l.057.336c-13.33-7.9648-27.258-9.66004-41.4-5.0556-27.4964 8.9644-48.6508 38.8752-59.2792 63.8783-8.558 20.1324-12.0988 42.5778-9.97 63.2028 2.132 20.657 9.6608 36.57 21.1984 44.807 9.3832 6.7 18.3808 8.511 24.2764 8.851 6.386.368 10.6024-.864 10.6464-.875l.034.114c-.038.011-4.2792 1.249-10.6872.879-5.9112-.34-14.932-2.156-24.3388-8.872-5.8452-4.173-10.6744-10.319-14.3532-18.267-3.5404-7.649-5.86-16.607-6.894-26.625-1.0324-10.003-.726-20.506.9108-31.216 1.6968-11.1 4.7472-21.8812 9.068-32.0452 6.0816-14.3067 14.7412-28.2003 24.3844-39.1223 5.2524-5.9484 10.7884-11.0448 16.4552-15.1468 6.0708-4.3944 12.2988-7.65 18.5118-9.6756.822-.268 1.644-.5148 2.464-.7404z" fill-opacity=".32"/><path d="m87.8568 22.1255c4.838-1.3296 9.8096-2.33 14.8392-2.9676 21.377-2.7104 41.29 1.4544 56.071 11.7272 7.28 5.0604 13.658 10.9493 18.955 17.5029 4.238 5.2432 7.798 10.9212 10.581 16.8764 4.74 10.1416 5.591 17.6719 5.599 17.7471l-.118.0125c-.008-.0748-.858-7.5896-5.59-17.7144-4.368-9.3432-13.03-22.8832-29.495-34.3272-32.155-22.34885-81.801-12.5209-107.9954 10.6803-26.2112 23.2168-37.7956 47.3444-37.56 78.2323.2372 31.209 20.8536 59.083 52.5216 71.011l-.0416.111c-15.7648-5.938-29.0172-15.777-38.3244-28.453-9.2216-12.559-14.1576-27.314-14.2744-42.668-.1196-15.672 2.7524-29.4068 8.7796-41.9884 6.0508-12.6308 15.478-24.5156 28.8208-36.3332 9.8868-8.7576 22.9736-15.5317 37.2316-19.4489z" fill-opacity=".32"/><path d="m2.10205 106.787.1184-.011c2.4296 27.895 20.35525 55.401 46.78165 71.785 13.5332 8.391 26.6328 12.129 35.2392 13.787 9.3252 1.796 15.53 1.606 15.5916 1.604l.004.119c-.0616.002-6.2764.193-15.6144-1.606-8.6168-1.659-21.7328-5.402-35.2828-13.803-12.9376-8.021-24.1032-18.844-32.2892-31.3-8.30685-12.639-13.33725-26.67-14.54845-40.575z" fill-opacity=".32"/><path d="m168.582 30.4482c32.128 33.1493 36.082 85.0538 9.401 123.4178-3.434 4.939-7.36 9.61-11.669 13.883l-.211-.213c4.296-4.26 8.21-8.917 11.634-13.841 26.599-38.247 22.658-89.9915-9.37-123.038z" fill-opacity=".32"/><path d="m32.081 28.3838.2756.2896c-9.2172 8.7808-16.4412 19.4448-21.6796 30.9356l-.47-.5516c5.26-11.5372 12.6192-21.8576 21.874-30.6736z" fill-opacity=".32"/><path d="m9.09142 136.876c4.52478 11.059 11.03238 21.08 19.34238 29.785 8.182 8.571 17.7084 15.444 28.3148 20.429 7.0084 3.293 14.4344 5.724 22.0708 7.224l-.0196.098c-7.6444-1.502-15.078-3.935-22.0936-7.232-10.6176-4.99-20.154-11.87-28.3448-20.45-8.3184-8.714-14.8332-18.745-19.36238-29.816z" fill-opacity=".32"/><path d="m114.454 3.4887c.577-.1588 1.17-.2588 1.797-.3344l.047.342c-3.744.4512-6.416 1.162-13.266 14.1436-6.8291 12.9424-16.1295 50.3232-19.2455 88.1461-3.7644 45.688 1.0524 70.518 4.2584 81.252 1.486 4.975 3.7072 7.891 6.3644 8.65 3.0696.878 5.6497-1.708 5.6767-1.732l.13.277c-.028.025-2.8255 2.457-5.9587 1.561-2.6992-.77-4.8276-3.705-6.326-8.722-3.2088-10.743-8.0292-35.589-4.2636-81.296 3.118-37.8377 12.4248-75.2385 19.2593-88.1917 5.529-10.4772 8.285-13.2048 11.527-14.0956z" fill-opacity=".32"/><path d="m113.222 150.535c-.11.835.478 1.601 1.313 1.711.835.109 1.6-.479 1.71-1.313.11-.835-.478-1.601-1.313-1.711-.835-.109-1.601.478-1.71 1.313z" fill-opacity=".32"/><path d="m70.3957 83.494c-.1252.9548-1.0012 1.6272-1.956 1.5016-.9552-.1252-1.6276-1.0012-1.502-1.956.1256-.9552 1.0012-1.6277 1.9564-1.5021.9548.1256 1.6272 1.0013 1.5016 1.9565z" fill-opacity=".32"/><path d="m15.8065 107.275c-.0776.592-.6216 1.01-1.2144.932s-1.01-.622-.9324-1.214c.078-.593.6216-1.011 1.2148-.933.5928.078 1.01.622.932 1.215z" fill-opacity=".32"/><path d="m146.365 25.3132c-.099.7536-.79 1.2844-1.544 1.1856-.754-.0992-1.285-.7904-1.186-1.5444s.791-1.2848 1.544-1.1856c.754.0992 1.285.7904 1.186 1.5444z" fill-opacity=".32"/><path d="m86.0566 3.02366c-.092.6996-.7336 1.1924-1.4336 1.1004-.6996-.092-1.192-.734-1.1-1.4336.0916-.69959.7336-1.19199 1.4332-1.10039.6996.092 1.1924.734 1.1004 1.43359z" fill-opacity=".32"/><path d="m177.235 41.4696c-.091.7-.733 1.1924-1.433 1.1004-.699-.092-1.192-.7336-1.1-1.4332s.733-1.1924 1.433-1.1004 1.192.7336 1.1 1.4332z" fill-opacity=".32"/><path d="m67.1333 189.267c-.092.699-.7336 1.192-1.4332 1.101-.6996-.093-1.1924-.735-1.1004-1.434.092-.7.7336-1.192 1.4332-1.101.7.092 1.1924.735 1.1004 1.434z" fill-opacity=".32"/><path d="m156.233 17.2997c-.092.7-.733 1.1924-1.433 1.1004-.699-.0916-1.192-.7336-1.1-1.4332s.733-1.1924 1.433-1.1004 1.192.7336 1.1 1.4332z" fill-opacity=".32"/><path d="m70.0694 165.709c-.0484.369-.3868.629-.7556.58-.3693-.048-.6289-.387-.5805-.756s.3869-.629.7561-.58c.3688.049.6288.387.58.756z" fill-opacity=".32"/><path d="m9.55566 71.82c-.0484.3692-.3868.6288-.75559.5804-.3692-.0484-.6288-.3868-.5804-.756.0484-.3688.3868-.6284.756-.58.36879.0484.62839.3868.57999.7556z" fill-opacity=".32"/><path d="m129.668 186.488c-.048.369-.387.629-.756.58-.369-.048-.628-.386-.58-.755.049-.369.387-.629.756-.581.369.049.629.387.58.756z" fill-opacity=".32"/><path d="m79.1333 194.467c-.0456.347-.364.592-.7116.547-.3472-.046-.592-.365-.5464-.712.0456-.348.3644-.592.7116-.546.3476.045.592.364.5464.711z" fill-opacity=".32"/><path d="m66.6956 149.083c-.0456.348-.3644.592-.7116.547-.3476-.046-.592-.365-.5464-.712s.3644-.592.7116-.546c.3476.045.592.364.5464.711z" fill-opacity=".32"/><path d="m41.1465 145.498c-.054.413-.4324.703-.8444.649-.4124-.054-.7024-.433-.6484-.845s.4324-.702.8444-.648c.4124.054.7024.432.6484.844z" fill-opacity=".32"/><path d="m53.2669 155.934c-.0692.526-.552.896-1.078.827-.5264-.069-.8968-.552-.8276-1.078s.5516-.896 1.078-.827c.526.069.8968.552.8276 1.078z" fill-opacity=".32"/><path d="m26.3868 161.243c-.0632.481-.5052.821-.9868.757-.482-.063-.8212-.505-.7576-.986.0632-.482.5052-.822.9868-.758.482.063.8212.505.7576.987z" fill-opacity=".32"/><path d="m126.524 106.947c-.081.621-.651 1.058-1.271.977-.621-.082-1.058-.651-.977-1.272.082-.621.651-1.058 1.272-.976.621.081 1.058.651.976 1.271z" fill-opacity=".32"/><path d="m188.25 134.867c-.081.621-.651 1.058-1.272.976-.621-.081-1.058-.651-.976-1.272.081-.621.651-1.058 1.272-.976.621.081 1.057.651.976 1.272z" fill-opacity=".32"/><path d="m109.938 166.891c-.081.621-.65 1.058-1.271.977-.621-.082-1.058-.652-.977-1.272.082-.621.651-1.058 1.272-.977.621.082 1.058.651.976 1.272z" fill-opacity=".32"/><path d="m120.163 192.585c-.086.656-.688 1.119-1.345 1.033-.657-.087-1.119-.689-1.033-1.346s.689-1.119 1.346-1.033c.656.086 1.119.689 1.032 1.346z" fill-opacity=".32"/><path d="m180.273 40.2891c-.049.3712-.39.6328-.761.584s-.633-.3896-.584-.7608.389-.6328.761-.584c.371.0488.632.3896.584.7608z" fill-opacity=".32"/><path d="m12.6001 140.333c-.0484.368-.3856.627-.7532.579-.368-.049-.6268-.386-.5784-.754.0484-.367.3856-.626.7532-.578s.6264.386.5784.753z" fill-opacity=".32"/><path d="m28.6946 123.744c-.0796.604-.634 1.03-1.2384.95-.6044-.079-1.0296-.634-.9504-1.238.0796-.604.634-1.03 1.238-.95.6044.079 1.03.634.9508 1.238z" fill-opacity=".32"/><path d="m112.575 90.8601c-.143 1.0908-1.144 1.8588-2.234 1.7152-1.091-.1432-1.859-1.1436-1.716-2.2344.144-1.0908 1.144-1.8588 2.235-1.7152 1.091.1432 1.859 1.1436 1.715 2.2344z" fill-opacity=".32"/><path d="m102.647 64.2737c-.11.8352-.876 1.4232-1.711 1.3136-.835-.11-1.4231-.876-1.3131-1.7108.1096-.8352.8751-1.4232 1.7111-1.3136.835.11 1.423.8756 1.313 1.7108z" fill-opacity=".32"/><path d="m83.6669 68.7337c-.0388.2952-.3092.5028-.6044.464-.2948-.0388-.5024-.3092-.4636-.604.0388-.2952.3088-.5028.6036-.464s.5032.3092.4644.604z" fill-opacity=".32"/><path d="m5.13416 124.022c-.0484.368-.38641.628-.75521.579-.3688-.048-.6284-.386-.5796-.755.0484-.368.3864-.628.7552-.579.36841.048.62801.386.57961.755z" fill-opacity=".32"/><path d="m108.804 110.964c-.054.407-.427.693-.834.64-.407-.054-.693-.427-.64-.834s.427-.693.834-.64c.407.054.693.427.64.834z" fill-opacity=".32"/><path d="m152.439 17.3977c-.054.4068-.427.6936-.834.64s-.694-.4268-.64-.8336c.053-.4068.426-.6936.834-.64.406.0536.693.4268.64.8336z" fill-opacity=".32"/><path d="m28.0757 37.0908c-.3076-.0372-.5268-.3164-.4896-.624.0368-.3076.3164-.5272.624-.49.3076.0368.5268.3164.49.624-.0372.3076-.3163.5272-.6244.49z" fill-opacity=".32"/><path d="m161.499 76.4415c-.465-.056-.796-.478-.74-.9424.056-.4648.478-.796.942-.74.465.056.796.478.74.9424-.056.4648-.478.796-.942.74z" fill-opacity=".32"/><path d="m151.299 125.575c-.465-.056-.796-.478-.74-.943.056-.464.478-.795.942-.739.465.056.796.477.74.942s-.478.796-.942.74z" fill-opacity=".32"/><path d="m178.6 95.4001c-.464-.056-.796-.478-.74-.9424s.478-.7956.943-.7396c.464.0556.796.4776.74.9424-.056.4644-.478.7956-.943.7396z" fill-opacity=".32"/><path d="m185.295 143.982c-.464-.055-.796-.477-.74-.942s.478-.796.942-.74c.465.056.796.478.74.943-.056.464-.478.795-.942.739z" fill-opacity=".32"/><path d="m149.165 99.9743c-.464-.056-.795-.478-.739-.9424s.478-.7956.942-.7396.796.4776.74.9424c-.056.4644-.478.7953-.943.7396z" fill-opacity=".32"/><path d="m108.591 64.6738c-.464-.056-.796-.478-.74-.9424s.478-.7956.943-.74c.464.056.795.478.739.9424-.056.4648-.478.796-.942.74z" fill-opacity=".32"/><path d="m78.0576 150.54c-.4644-.056-.7956-.478-.74-.943.056-.464.478-.795.9424-.739.4648.056.796.478.74.942-.056.465-.478.796-.9424.74z" fill-opacity=".32"/><path d="m83.6002 74.8005c-.4648-.056-.796-.478-.74-.9424s.478-.7956.9424-.7396c.4648.0556.796.4776.74.9424-.056.4644-.478.7956-.9424.7396z" fill-opacity=".32"/><path d="m29.2065 99.5426c-.4644-.056-.7956-.4779-.7396-.9423s.4776-.7956.9424-.7396c.4644.0556.7952.4776.7396.9424-.056.4643-.478.7955-.9424.7395z" fill-opacity=".32"/><path d="m168.376 31.0908c-.308-.0372-.527-.3164-.49-.624s.317-.5272.624-.49c.308.0368.527.3164.49.624s-.316.5272-.624.49z" fill-opacity=".32"/><path d="m44.4989 76.8419c-.4648-.056-.796-.478-.74-.9424.056-.4648.478-.796.9424-.74.4648.056.7956.478.74.9424-.056.4648-.478.796-.9424.74z" fill-opacity=".32"/><path d="m56.099 185.142c-.4648-.056-.796-.478-.74-.943.056-.464.478-.796.9424-.74s.796.478.74.943c-.056.464-.478.796-.9424.74z" fill-opacity=".32"/><path d="m101.533 20.7335c-.464-.056-.795-.478-.739-.9424.056-.4648.478-.796.942-.74.465.056.796.478.74.9424-.056.4648-.478.796-.943.74z" fill-opacity=".32"/><path d="m45.3974 45.6827c-.4644-.056-.7956-.478-.7396-.9424.056-.4648.478-.796.9424-.74s.7956.478.7396.9424c-.0556.4644-.4776.7956-.9424.74z" fill-opacity=".32"/><path d="m42.6549 129.006c-.6656-.08-1.1404-.685-1.0604-1.351.0804-.665.6852-1.14 1.3508-1.06s1.1404.685 1.0604 1.351c-.0804.666-.6848 1.14-1.3508 1.06z" fill-opacity=".32"/><path d="m131.215 179.223c-.638-.065-1.102-.636-1.037-1.274s.635-1.103 1.274-1.038c.638.066 1.103.636 1.037 1.274-.065.639-.635 1.103-1.274 1.038z" fill-opacity=".32"/><path d="m86.4021 194.435c-.6384-.066-1.1028-.636-1.0376-1.274s.6356-1.103 1.274-1.038c.638.065 1.1028.636 1.0376 1.274s-.6356 1.103-1.274 1.038z" fill-opacity=".32"/><path d="m122.363 6.35751c-.871-.0892-1.505-.8676-1.416-1.7388s.867-1.5052 1.738-1.416c.872.0888 1.506.8672 1.416 1.7384-.088.8712-.867 1.5056-1.738 1.4164z" fill-opacity=".32"/><path d="m182.726 64.305c-.638-.0652-1.103-.6356-1.038-1.274.066-.6384.636-1.1028 1.274-1.0376.639.0652 1.103.6356 1.038 1.274-.066.6384-.636 1.1028-1.274 1.0376z" fill-opacity=".32"/><path d="m24.9382 35.9535c-.8948-.1076-1.5328-.9204-1.4248-1.8152.1076-.8952.9204-1.5332 1.8152-1.4252.8948.1076 1.5332.9204 1.4252 1.8152-.1076.8948-.9204 1.5332-1.8156 1.4252z" fill-opacity=".32"/><path d="m193.191 79.0235c-.595-.0716-1.02-.6128-.948-1.2084s.613-1.0204 1.208-.9488c.596.0716 1.021.6128.949 1.2088-.071.5956-.613 1.0204-1.209.9484z" fill-opacity=".32"/><path d="m194.882 84.5404c-.312-.0372-.535-.3208-.497-.6332.038-.312.321-.5344.633-.4968s.535.3208.497.6332c-.037.312-.321.5344-.633.4968z" fill-opacity=".32"/><path d="m68.5912 16.2898c-.3124-.0376-.5348-.3208-.4972-.6332.0376-.312.3212-.5348.6332-.4972s.5348.3212.4972.6336c-.0376.312-.3212.5344-.6332.4968z" fill-opacity=".32"/><path d="m134.867 137.801c-.313-.038-.535-.322-.497-.634.037-.312.321-.534.633-.497.312.038.535.321.497.633-.038.313-.321.535-.633.498z" fill-opacity=".32"/><path d="m144.732 116.565c-.312-.037-.535-.321-.497-.633.037-.312.321-.535.633-.497.312.037.535.321.497.633-.037.312-.321.535-.633.497z" fill-opacity=".32"/><path d="m142.4 10.4007c-.312-.0376-.535-.3208-.497-.63315.038-.312.321-.5344.633-.4968.313.0376.535.3208.497.6332-.037.31195-.321.53435-.633.49675z" fill-opacity=".32"/><path d="m151.133 86.6004c-.312-.0376-.534-.3212-.497-.6332.038-.312.321-.5348.634-.4972.312.0376.534.3212.496.6332-.037.3124-.32.5348-.633.4972z" fill-opacity=".32"/><path d="m142.867 56.7337c-.313-.0376-.535-.3208-.497-.6332.037-.3119.321-.5343.633-.4967s.535.3208.497.6331c-.038.312-.321.5344-.633.4968z" fill-opacity=".32"/><path d="m.263716 96.7302c-.3119993-.0376-.534799-.3211-.496799-.6331.0372-.3124.3207993-.5349.633199-.4973.311999.0376.534399.3213.496799.6333s-.320799.5347-.633199.4971z" fill-opacity=".32"/><path d="m74.3757 173.836c-1.0128-.122-1.7352-1.042-1.6132-2.055s1.042-1.736 2.0548-1.613c1.0128.122 1.7352 1.042 1.6132 2.055s-1.042 1.735-2.0548 1.613z" fill-opacity=".32"/><path d="m169.8 137.601c-.567-.069-.971-.584-.903-1.151s.583-.972 1.15-.903c.568.068.972.583.904 1.15-.068.568-.584.972-1.151.904z" fill-opacity=".32"/><path d="m70.5494 191.07c-.5672-.068-.9716-.583-.9032-1.151.0684-.567.5836-.971 1.1508-.903.5672.069.9716.584.9032 1.151-.0684.568-.5836.972-1.1508.903z" fill-opacity=".32"/><path d="m99.7029 195.028c-.5948-.072-1.0188-.612-.9472-1.207s.612-1.019 1.2068-.947c.5945.072 1.0185.612.9475 1.207-.072.595-.612 1.019-1.2071.947z" fill-opacity=".32"/><path d="m165.973 168.613c-.594-.072-1.019-.612-.947-1.207s.612-1.019 1.207-.947 1.019.612.947 1.207c-.071.595-.612 1.019-1.207.947z" fill-opacity=".32"/><path d="m44.1834 20.0105c-.5948-.0716-1.0188-.612-.9472-1.2068s.612-1.0188 1.2068-.9472 1.0192.6116.9472 1.2068c-.0716.5948-.6116 1.0188-1.2068.9472z" fill-opacity=".32"/><path d="m57.9248 128.738c-.5948-.071-1.0188-.612-.9472-1.207.0716-.594.612-1.019 1.2068-.947s1.0188.612.9472 1.207-.6116 1.019-1.2068.947z" fill-opacity=".32"/><path d="m51.8036 90.6112c-.5948-.0716-1.0192-.612-.9476-1.2068.072-.5948.612-1.0192 1.2072-.9472.5948.0716 1.0188.6116.9472 1.2068-.0716.5948-.612 1.0188-1.2068.9472z" fill-opacity=".32"/><path d="m69.4037 114.344c-.5948-.072-1.0192-.612-.9476-1.207.072-.595.612-1.019 1.2072-.947.5948.071 1.0188.612.9472 1.206-.0716.595-.612 1.02-1.2068.948z" fill-opacity=".32"/><path d="m10.6 60.0675c-.5952-.0716-1.01918-.612-.94758-1.2068.0716-.5951.61198-1.0191 1.20678-.9475s1.0192.612.9476 1.2068c-.0716.5947-.612 1.0191-1.2068.9475z" fill-opacity=".32"/><path d="m186.25 62.0935c-.383-.046-.656-.394-.61-.7772s.394-.6564.777-.61c.383.046.656.394.61.7772s-.394.6564-.777.61z" fill-opacity=".32"/><path d="m85.4498 156.628c-.3832-.046-.656-.394-.61-.777s.394-.657.7772-.611.6564.394.6104.778c-.0464.383-.3944.656-.7776.61z" fill-opacity=".32"/><path d="m187.625 68.8768c-.434-.052-.744-.4464-.691-.8804.052-.434.446-.7432.88-.6908.434.052.743.4464.691.88-.052.434-.446.7436-.88.6912z" fill-opacity=".32"/><path d="m51.3982 65.6759c-.6876-.0828-1.178-.7072-1.0948-1.3948.0828-.6876.7072-1.178 1.3948-1.0952s1.178.7072 1.0952 1.3948c-.0828.688-.7076 1.178-1.3952 1.0952z" fill-opacity=".32"/><path d="m33.1333 142.467c-.6876-.083-1.178-.708-1.0948-1.395.0828-.688.7072-1.178 1.3948-1.095s1.178.707 1.0952 1.395c-.0828.687-.7076 1.178-1.3952 1.095z" fill-opacity=".32"/><path d="m46.9001 118.691c-.6876-.083-1.178-.708-1.0948-1.395.0828-.688.7072-1.178 1.3948-1.095.6877.082 1.1781.707 1.0953 1.394-.0828.688-.7076 1.178-1.3953 1.096z" fill-opacity=".32"/><path d="m116.358 3.96015c-.509-.0616-.873-.5244-.811-1.034.061-.51.524-.8732 1.034-.812.509.0616.873.5244.811 1.034-.061.51-.524.8732-1.034.812z" fill-opacity=".32"/><path d="m87.4793 12.6649c-.5096-.0612-.8732-.5244-.8116-1.034.0612-.5096.524-.8732 1.034-.8116.5096.0612.8732.524.8116 1.034-.0612.5096-.5244.8732-1.034.8116z" fill-opacity=".32"/><path d="m144.425 130.518c-.978-.118-1.676-1.006-1.558-1.985.118-.978 1.006-1.675 1.984-1.557s1.676 1.006 1.558 1.984-1.006 1.676-1.984 1.558z" fill-opacity=".32"/><path d="m98.4258 114.275c-1.2568-.151-2.1532-1.293-2.0016-2.55.1512-1.257 1.2928-2.154 2.55-2.002 1.2568.151 2.1528 1.293 2.0018 2.55s-1.293 2.153-2.5502 2.002z" fill-opacity=".32"/><path d="m37.0982 57.2495c-.9724-.1172-1.6656-1.0004-1.5484-1.9724.1172-.9724 1-1.6656 1.9724-1.5484.9724.1168 1.6656 1 1.5484 1.9724-.1172.972-1.0004 1.6652-1.9724 1.5484z" fill-opacity=".32"/><path d="m12.0018 145.047c-.9092-.11-1.5576-.936-1.448-1.845s.9352-1.557 1.8444-1.448 1.5576.935 1.448 1.845c-.1096.909-.9352 1.557-1.8444 1.448z" fill-opacity=".32"/><path d="m93.4692 173.932c-.294-.035-.5032-.302-.468-.596.0356-.294.3024-.503.596-.468.294.035.5036.303.468.596-.0352.294-.302.504-.596.468z" fill-opacity=".32"/><path d="m121.536 34.9322c-.294-.0352-.503-.3024-.468-.596.035-.294.302-.5036.596-.468.294.0352.504.3024.468.596-.035.294-.302.5036-.596.468z" fill-opacity=".32"/><path d="m103.272 3.93155c-.294-.0356-.503-.3024-.468-.5964s.302-.5032.596-.468c.294.0356.503.3024.468.5964-.035.2936-.302.5032-.596.468z" fill-opacity=".32"/><path d="m137.204 127.202c-.294-.035-.503-.302-.468-.596s.302-.504.596-.468c.294.035.503.302.468.596s-.302.503-.596.468z" fill-opacity=".32"/><path d="m107.005 8.46475c-.294-.0356-.503-.3024-.468-.59641.036-.2936.303-.5032.596-.468.294.0356.504.3024.468.59641-.035.294-.302.5032-.596.468z" fill-opacity=".32"/><path d="m182.501 149.346c-.294-.036-.503-.303-.468-.597.036-.293.302-.503.596-.468.294.036.504.303.468.597-.035.293-.302.503-.596.468z" fill-opacity=".32"/><path d="m100.136 129.132c-.294-.035-.5036-.302-.468-.596.0352-.294.302-.503.596-.468.294.036.504.303.468.596-.035.294-.302.504-.596.468z" fill-opacity=".32"/><path d="m190.936 51.732c-.294-.0352-.504-.3024-.468-.596.035-.294.302-.5036.596-.468.294.0352.504.3024.468.596-.035.294-.302.5036-.596.468z" fill-opacity=".32"/><path d="m14.537 116.135c-.2936-.036-.5032-.303-.468-.597.0356-.293.3024-.503.5964-.468.2936.036.5032.303.468.597-.0356.293-.3024.503-.5964.468z" fill-opacity=".32"/><path d="m181.069 115.399c-.294-.035-.503-.302-.468-.596.036-.294.303-.503.597-.468.293.036.503.302.468.596-.036.294-.303.504-.597.468z" fill-opacity=".32"/><path d="m174.001 78.9296c-.293-.0356-.503-.3024-.468-.5964.036-.2936.303-.5032.597-.468.293.0356.503.3024.468.5964-.036.2936-.303.5032-.597.468z" fill-opacity=".32"/><path d="m85.0002 95.0006c-.294-.0352-.5032-.3024-.468-.596.0352-.294.3024-.5036.596-.468.294.0352.5036.302.468.596-.0352.2939-.302.5032-.596.468z" fill-opacity=".32"/><path d="m173.082 92.9379c-.849-.1024-1.455-.8736-1.353-1.7227.103-.8492.874-1.4544 1.723-1.3524.849.1024 1.455.8736 1.352 1.7228-.102.8492-.873 1.4543-1.722 1.3523z" fill-opacity=".32"/><path d="m3.17489 81.8419c-.8492-.1024-1.4544-.8736-1.3524-1.7228.1024-.8488.8736-1.4544 1.7228-1.352.8492.102 1.45441.8732 1.35241 1.7224-.1024.8492-.8736 1.4548-1.72281 1.3524z" fill-opacity=".32"/><path d="m69.9442 98.0861c-.8492-.1024-1.4544-.8736-1.3524-1.7224.1024-.8492.8736-1.4548 1.7228-1.3524s1.4544.8736 1.3524 1.7224c-.1024.8492-.8736 1.4548-1.7228 1.3524z" fill-opacity=".32"/><path d="m114.558 123.969c-.849-.102-1.455-.873-1.352-1.723.102-.848.873-1.454 1.722-1.352s1.455.874 1.352 1.723c-.102.849-.873 1.454-1.722 1.352z" fill-opacity=".32"/><path d="m194.444 88.1896c-.849-.1024-1.454-.8736-1.352-1.7228.102-.8488.873-1.4544 1.723-1.352.849.102 1.454.8732 1.352 1.7224s-.874 1.4544-1.723 1.3524z" fill-opacity=".32"/><path d="m133.144 153.553c-.849-.103-1.454-.874-1.352-1.723s.873-1.454 1.723-1.352c.849.102 1.454.873 1.352 1.722-.102.85-.874 1.455-1.723 1.353z" fill-opacity=".32"/><path d="m188.415 77.7378c-.849-.1024-1.455-.8736-1.353-1.7228.103-.8492.874-1.4544 1.723-1.3524.849.1024 1.455.8736 1.353 1.7228-.103.8492-.874 1.4544-1.723 1.3524z" fill-opacity=".32"/><path d="m2.33661 98.3396c-.59-.0712-1.0108-.6068-.9396-1.1968s.6068-1.0108 1.1968-.9396 1.0108.6068.9396 1.1968-.6068 1.0104-1.1968.9396z" fill-opacity=".32"/><path d="m124.663 121.602c-.849-.103-1.455-.874-1.352-1.723.102-.849.873-1.454 1.722-1.352s1.455.873 1.353 1.722c-.102.85-.874 1.455-1.723 1.353z" fill-opacity=".32"/><path d="m127.202 53.1455c-.426-.0512-.73-.4384-.678-.8644.051-.426.438-.73.864-.6788.426.0516.73.4384.679.8648-.052.426-.438.73-.865.6784z" fill-opacity=".32"/><path d="m94.2689 43.2794c-.426-.0516-.73-.4384-.6788-.8648.0516-.426.4384-.73.8648-.6784.426.0512.7296.4384.6784.8644s-.4384.73-.8644.6788z" fill-opacity=".32"/><path d="m65.7357 13.6787c-.4264-.0512-.73-.4384-.6788-.8644.0512-.4264.4384-.73.8644-.6788.4264.0512.73.4384.6788.8644-.0512.4264-.4384.73-.8644.6788z" fill-opacity=".32"/><path d="m33.9425 27.7832c-.426-.0512-.73-.4384-.6788-.8644.0516-.426.4384-.73.8648-.6788.426.0516.73.4384.6784.8648-.0512.426-.4384.73-.8644.6784z" fill-opacity=".32"/><path d="m2.22056 102.02c-.426-.051-.73-.438-.6788-.864.0516-.426.4384-.73.8648-.679.426.052.73.439.6784.865-.0512.426-.4384.73-.8644.678z" fill-opacity=".32"/><path d="m127.689 16.9256c-.358-.0432-.614-.3684-.57-.7264.042-.358.368-.6136.726-.5704s.613.3684.57.7264c-.043.3584-.368.6136-.726.5704z" fill-opacity=".32"/><path d="m197.189 114.582c-.358-.043-.614-.369-.57-.727.042-.358.368-.613.726-.57s.613.368.57.727c-.043.358-.368.613-.726.57z" fill-opacity=".32"/><path d="m130.407 93.5711c-.358-.0432-.614-.3684-.57-.7264.043-.3584.368-.6136.726-.5704s.614.3684.57.7264c-.043.358-.368.6136-.726.5704z" fill-opacity=".32"/><path d="m44.7333 101.667c-.2896-.034-.496-.298-.4608-.587.0348-.289.2976-.496.5872-.461s.496.298.4612.587c-.0352.29-.298.496-.5876.461z" fill-opacity=".32"/><path d="m33.9133 103.696c-.4372-.052-.7488-.45-.696-.886.0524-.438.4496-.749.8868-.697.4368.053.7488.45.696.887s-.4496.749-.8868.696z" fill-opacity=".32"/><path d="m8.91135 137.642c.402.048.7672-.238.8156-.64s-.2384-.768-.6404-.816-.7672.238-.8156.64.2384.767.6404.816z" fill-opacity=".32"/><path d="m193.6 115.401c.402.048.767-.239.816-.641.048-.402-.239-.767-.641-.815-.402-.049-.767.238-.815.64-.049.402.238.767.64.816z" fill-opacity=".32"/><path d="m39.8 26.4c-.2608-.0316-.4468-.2684-.4152-.5292.0312-.2608.268-.4468.5288-.4152s.4468.2684.4156.5292c-.0316.2608-.2684.4468-.5292.4152z" fill-opacity=".32"/><path d="m130.343 7.07282c-.26-.0316-.446-.2684-.415-.5292s.268-.4464.529-.4152c.261.0316.447.2684.415.5292-.031.2608-.268.4468-.529.4152z" fill-opacity=".32"/><path d="m85.0041 43.2828c-.2604-.0316-.4464-.2684-.4152-.5292.0316-.2608.2684-.4464.5292-.4152.2608.0316.4468.2684.4152.5292-.0312.2608-.268.4468-.5292.4152z" fill-opacity=".32"/><path d="m89.0041 9.41567c-.2604-.0316-.4464-.2684-.4152-.5292.0316-.2608.2684-.4468.5292-.4152.2608.0312.4468.268.4152.5288-.0312.2608-.268.4468-.5292.4156z" fill-opacity=".32"/><path d="m2.47004 87.3824c-.2608-.0312-.4468-.268-.4156-.5288.0316-.2608.2684-.4468.5292-.4156.2608.0316.4468.2684.4152.5292-.0312.2608-.268.4468-.5288.4152z" fill-opacity=".32"/><path d="m131.071 6.61587c-.261-.0316-.446-.2684-.415-.5292s.268-.4468.529-.4152c.261.0312.446.268.415.5288s-.268.4468-.529.4156z" fill-opacity=".32"/><path d="m148.652 170.013c-.261-.031-.447-.268-.415-.529.031-.261.268-.447.529-.415.261.031.446.268.415.529s-.268.447-.529.415z" fill-opacity=".32"/><path d="m161.954 172.366c-.261-.031-.446-.268-.415-.529.032-.261.268-.447.529-.416.261.032.447.269.415.53-.031.26-.268.446-.529.415z" fill-opacity=".32"/><path d="m139.015 140.196c-.26-.031-.446-.268-.415-.529s.269-.447.529-.416c.261.032.447.269.416.53-.032.261-.269.447-.53.415z" fill-opacity=".32"/><path d="m175.343 34.2731c-.26-.0316-.446-.2684-.415-.5292s.268-.4468.529-.4152c.261.0312.447.268.415.5288-.031.2608-.268.4468-.529.4156z" fill-opacity=".32"/><path d="m197.015 106.196c-.26-.031-.446-.268-.415-.529s.269-.447.529-.416c.261.032.447.269.416.53-.032.26-.269.446-.53.415z" fill-opacity=".32"/><path d="m193.781 71.7844c-.26-.0312-.446-.268-.415-.5288s.268-.4468.529-.4152c.261.0312.447.268.415.5288-.031.2608-.268.4468-.529.4152z" fill-opacity=".32"/><path d="m74.0097 34.2727c-.2608-.0312-.4464-.268-.4152-.5288.0316-.2608.2684-.4468.5292-.4152.2608.0312.4468.268.4152.5288-.0312.2608-.2684.4468-.5292.4152z" fill-opacity=".32"/><path d="m37.6001 183.001c-.2608-.032-.4468-.269-.4152-.53.0312-.26.268-.446.5288-.415s.4468.269.4156.529c-.0316.261-.2684.447-.5292.416z" fill-opacity=".32"/><path d="m188.912 59.0787c-.261-.0312-.447-.2684-.415-.5292.03-.2608.268-.4464.528-.4152.261.0316.447.2684.416.5292-.032.2608-.268.4468-.529.4152z" fill-opacity=".32"/><path d="m57.6098 101.072c-.2608-.031-.4464-.267-.4152-.528.0316-.261.2684-.447.5292-.416.2608.032.4468.268.4152.529-.0312.261-.2684.447-.5292.415z" fill-opacity=".32"/><path d="m23.0865 37.1451c-.2608-.0312-.4468-.2684-.4156-.5292.0316-.2604.2684-.4464.5292-.4152.2608.0316.4468.2684.4152.5292-.0312.2608-.268.4468-.5288.4152z" fill-opacity=".32"/><path d="m86.1433 181.873c-.2608-.032-.4468-.269-.4152-.53.0312-.26.268-.446.5288-.415.2608.032.4468.268.4152.529-.0312.261-.268.447-.5288.416z" fill-opacity=".32"/><path d="m2.16382 107.249c-.2608-.032-.4468-.269-.4152-.53.0312-.26.2684-.446.5292-.415.26079.031.44639.268.41519.529-.0316.261-.26839.447-.52919.416z" fill-opacity=".32"/><path d="m61.2864 24.8775c-.2608-.0312-.4468-.268-.4156-.5288.0316-.2608.2684-.4468.5292-.4156.2608.0316.4468.2684.4152.5292-.0312.2608-.268.4468-.5288.4152z" fill-opacity=".32"/><path d="m131.415 27.7292c-.261-.0316-.446-.2684-.415-.5292.032-.2608.268-.4469.529-.4153.261.0312.447.2681.415.5289-.031.2608-.268.4468-.529.4156z" fill-opacity=".32"/><path d="m134.749 97.2623c-.261-.0316-.447-.2684-.416-.5292.032-.2608.269-.4464.529-.4152.261.0316.447.2684.416.5292-.032.2608-.268.4468-.529.4152z" fill-opacity=".32"/><path d="m70.5433 2.80621c-.2608-.0312-.4468-.268-.4156-.5288.0316-.2608.2684-.4468.5292-.4156.2608.0316.4468.2684.4152.5292-.0312.2608-.268.4468-.5288.4152z" fill-opacity=".32"/></g><circle cx="99" cy="99" fill="url(#b)" r="75"/><g clip-path="url(#d)" fill="#fff"><path d="m137.954 96.1866-35.715-41.6875c-.402-.4698-.9-.8467-1.46-1.105-.561-.2584-1.1697-.3921-1.786-.3921s-1.2253.1337-1.7856.3921c-.5602.2583-1.0585.6352-1.4608 1.105l-35.7143 41.6875c-.6743.7797-1.0457 1.7785-1.0457 2.8121 0 1.0333.3714 2.0323 1.0457 2.8123l35.7143 41.687c.4023.47.9006.847 1.4608 1.105.5603.259 1.1693.392 1.7856.392s1.225-.133 1.786-.392c.56-.258 1.058-.635 1.46-1.105l35.715-41.687c.674-.78 1.045-1.779 1.045-2.8123 0-1.0336-.371-2.0324-1.045-2.8121zm-16.795 4.6714-19.982 23.027c-.272.312-.607.561-.982.732-.3756.171-.7829.259-1.1948.259-.412 0-.8193-.088-1.1946-.259-.3754-.171-.7102-.42-.9822-.732l-19.9822-23.019c-.4498-.516-.6978-1.1792-.6978-1.8655s.248-1.3492.6978-1.8651l19.9822-23.0198c.272-.3114.6068-.5608.9822-.7317.3753-.1709.7826-.2592 1.1946-.2592.4119 0 .8192.0883 1.1948.2592.375.1709.71.4203.982.7317l19.982 23.0198c.45.5159.698 1.1788.698 1.8651s-.248 1.3495-.698 1.8655z" fill-opacity=".98" opacity=".4"/><path d="m121.159 97.1357c.45.5159.698 1.1788.698 1.8652 0 .6863-.248 1.3491-.698 1.8651l-19.982 23.02c-.272.311-.607.561-.982.731-.3757.171-.783.26-1.195.26-.4119 0-.8192-.089-1.1945-.26-.3754-.17-.7102-.42-.9822-.731l-19.9822-23.02c-.4498-.516-.6978-1.1788-.6978-1.8651 0-.6864.248-1.3493.6978-1.8652l19.9822-23.0198c.272-.3113.6068-.5608.9822-.7316.3753-.1709.7826-.2593 1.1945-.2593.412 0 .8193.0884 1.195.2593.375.1708.71.4203.982.7316z" fill-opacity=".95"/></g></g></svg>
