<?xml version="1.0" standalone="yes"?>
<svg xmlns="http://www.w3.org/2000/svg" width="207" height="207">
<path style="fill:#2f4a5e; stroke:none;" d="M0 0L0 74L4 74L6 87L7 87L7 81L8 81L9 84L10 84L9 68L10 68L11 84L12 84L13 65C17.4664 66.4011 21.0674 67.5715 22 62L21 62L21 66L13 63L16 53L17 53L20 59L21 59L21 50L28 47L26 40L42 50L43 50L40 47L42 1L0 0z"/>
<path style="fill:#5aa4b1; stroke:none;" d="M40 0L40 1L42 2C39.552 4.51036 40.8512 10.5396 41.0895 14C41.8204 24.6141 38.2892 40.7118 43 50C36.6797 44.9326 33.222 47.084 26 48L31 56C24.9004 57.8517 26.3397 62.7705 27 68L28 68L29 59L30 59L36 76L13 65L12 84L11 84L10 68L9 68L10 84L9 84L8 81L7 81C6.73197 87.2425 3.04443 98.7923 9 103L12 95L9 95L12 94L9 86L16 89L14 85C18.9821 85.5516 27.1445 88.9699 26 95L32 97L32 100C22.9143 102.64 19.5316 97.2245 15 90L14 90L24 108L29 109L29 105L35 105L34 107L35 107L38 105L42 116L28 114L28 115L38 116L38 117L33 117L36 122L43 118L40 127L31 132C36.155 130.021 42.7347 127.098 46 133L36 132L44 137L38 141L38 142L45 141L45 140L43 140L43 139C49.1432 137.689 48.4625 133.155 50 128L44 128L45 122L48 123C46.7982 119.373 45.8076 117.827 42 117L42 116L54 112L54 111L49 112L49 105L45 103L45 102L50 107L66 108L66 109L47 116L47 117L54 117L49 123L55 120C50.9226 125.99 50.3378 132.018 52 139L49 137C45.0783 142.929 40.6517 146.504 41 154L42 154L47 146C44.7218 152.112 43.6584 156.736 46 163L42 157L41 157L34 178L39 174L37 179L41 176L43 192L42 187L39 201C42.2616 199.027 52.4834 193.607 49 189L49 188L84 181L84 180L59 176L59 175C64.139 176.06 80.8373 181.867 85.1535 177.958C87.4487 175.879 84.7093 169.435 83.9846 167.005C80.6021 155.661 61.6584 155.827 52 156L52 155C58.0745 153.074 65.4245 155.293 70.8372 153.307C78.8346 150.373 67.4163 142.018 64 141L64 140L68 140L67 136L64 137L75 119C71.7601 125.184 68.5543 131.768 70.3171 139C71.3036 143.047 74.3495 145.763 75 150L95 137C92.5277 132.492 89.1876 130.248 84 131L87 129L87 128L75 112L78 104L57 106L57 105L62 105L60 99L70 102L70 101C64.373 98.6824 63.3042 97.0555 64 91L67 99L68 99L67 92C71.51 88.0684 68.23 76.3559 68 71C65.8366 72.3708 63.2617 76.3806 67 77L68 91L67 91L64 89L64 78L59 79L62 75L61 78L62 78L62 63L67 65L65 70L68 70C67.5596 63.797 67.2891 59.6973 61 57L61 72L60 72L59 42L55 51L54 51L54 46L53 46L47 72L46 72L42 55L43 55L44 58L45 58L48 56L44 6L45 6L45 9C51.3476 7.76315 53.9184 6.84592 54 0L40 0z"/>
<path style="fill:#b6c8cc; stroke:none;" d="M43.6667 0.333328L44.3333 0.666672L43.6667 0.333328z"/>
<path style="fill:#2f4a5e; stroke:none;" d="M54 0C53.846 4.70135 49.4347 11.6113 45 6L44 6L44.4059 43.7454L48 59C54.2977 56.424 53.0158 51.9467 53 46L54 46L54 51L55 51L59 42C59 50.9769 59.2857 58.8796 70 59L70 68L73 68L71 60L76 60L75 58L79 58L79 57C66.0153 53.1555 76.5839 39.6351 79 32L80 32L81 43L82 43C88.2562 28.5406 95.0906 15.0319 111 9L96 31L97 31C102.954 22.0689 109.748 21.313 119 19C123.459 17.8853 131.571 19.7153 131 22L132 22L133 20C123.402 16.7509 113.332 17.4061 104 21L117 7L117 6C98.6607 8.70839 84.3592 22.731 82 41L81 41L82 29L74 38C72.2123 30.4913 74.5332 22.2031 71.6481 15C66.6055 2.41002 58 -5.91644 58 13L57 13L56 0L54 0z"/>
<path style="fill:#5aa4b1; stroke:none;" d="M56 0L57 13L58 13L60 1L56 0M65 0L72.6096 19L74 38L83 29L83 18L84 18L84 22L85 22L88 11L82 15L81 15L81 4L77 4L77 27L76 27L76 1L65 0z"/>
<path style="fill:#b6c8cc; stroke:none;" d="M74 0L74 1L76 27L77 27L77 4L81 4L81 15L82 15L88 11L85 22L84 22L84 18L83 18L82 36L83 36L93.4113 16L94 0L86 0L83 8L81 0L74 0z"/>
<path style="fill:#5aa4b1; stroke:none;" d="M81 0L83 8L86 0L81 0M91 0L92 1L91 0M94 0L94 17L117 6L117 1L110 0L112 2L94 0z"/>
<path style="fill:#2f4a5e; stroke:none;" d="M106 0L106 1L109 2L106 0z"/>
<path style="fill:#9f649a; stroke:none;" d="M109 0L112 3L112 2L109 0z"/>
<path style="fill:#b6c8cc; stroke:none;" d="M116 0L116 9C110.818 9.8855 107.788 13.8954 107 19L129 18L129 0L116 0z"/>
<path style="fill:#5aa4b1; stroke:none;" d="M129 0L128 19L132 22L131 22C130.454 18.6544 124.023 18.884 121 19.0602C111.389 19.6201 101.524 21.6922 97 31L96 31L111 9C100.939 11.3642 91.4279 21.0667 86.7855 30C84.5637 34.2753 84.1608 39.3693 81 43L77 50L75 49L77 38L78 38L78 43L79 43L80 32L79 32C76.6174 37.1043 66.2679 52.8129 76.2137 56.3063C78.9162 57.2556 82.174 55.7389 85 56.0062C88.2938 56.3177 90.8366 56.916 94 55.4267C101.641 51.8293 106.266 43.86 114 40L110 45L106 48L113 51C105.73 51.8102 103.282 57.7584 98 62L101 53C95.0594 56.7532 90.8064 58.8653 84 56L82 61L90 62L91 65L92 65L92 61L93 61C93.4614 63.8683 94.392 66.6874 98.0046 65.5733C107.614 62.6098 110.381 53.4819 122 54L122 55L118 55L118 56L120 56L120 57L112 57L112 58L116 59L112 64L112 65L114 67L90 66C91.0208 71.1041 83.6299 63.4802 84 62L82 65C79.4178 64.2252 77.8975 63.6944 79 61L79 60L73 62L73 68L70 68L70 59L69 59C69 62.5789 67.7132 68.4613 72 69C68.8546 82.2116 72.6999 91.1914 76 103L77 103L79 100L79 99L77 99L77 97L79 98L79 97L74.517 83L78 69L81 71L82 70L77 67L83 65L83 70L92 69L92 70C86.6394 71.0106 82.5378 71.537 79 76L91 74L85 81L82 81L82 82L86 82C84.3307 85.6824 81.9052 88.5612 78 86L77 86L79 92L91 84.6034L118 84L118 83C113.183 78.2566 109.577 78.2569 103 78L103 77C109.729 76.3799 117.651 70.8459 122 78L123 78C121.329 67.2896 106.266 70.6523 98 70L98 69C104.917 69.2397 116.053 66.6635 121.606 71.6497C124.629 74.3649 125.088 78.703 128.144 81.4715C133.151 86.0065 140.834 89.0201 139 97L122 87.1829L106 86L108 90L105 86L96 85C94.6778 92.4175 89.3733 97.4185 93 105L95 105L100 91L101 91L103 93L102 101L101 101L100 98L99 98C97.0908 109.726 112.625 107.588 111.679 97.0015C111.423 94.1308 109.716 92.1496 108 90C120.504 99.3183 106.973 118.206 97 105C83.1829 108.834 94.068 89.6857 95 85C88.9736 86.5232 82.4491 89.9613 84 97L87 89L88 89L77 110L84 107L82 116L87 112L86 120L89 113L90 113L93 125L94 125L95 119L96 119L98 127L105 118L106 118L108 126L109 126L114 114L115 114L118 121L117 112L118 112L123 118L122 105L135 116L134 105L135 105L141 112L140 99L141 99L149 108L147 103L148 102L154 107L152 97L151 97L148 101L151 95L136.465 78L126 45L136 53L137 59L138 59L133 48L140 47L142 54L139 55C143.322 61.6857 149.489 67.2919 144 75L142 71L138 80L139 80L139 78L140 78L144 88L145 88L144 77L147 77L146 84L149 67L152 68L150 63L149 63L147 67L149 62L149 61L146 57L148 58L148 57L148 56L145 57L147 42L146 42L146 45L145 45C144.456 41.7375 142.783 39.1958 146 40L141 29L140 29L139 32L135 31L136 27L124 27L123 23L128 21L128 25L138 23L136 16L138 1L137 0L129 0z"/>
<path style="fill:#2f4a5e; stroke:none;" d="M134 0L135 1L134 0M137 0L138 19L139 19L139 16L144 12L145 12L145 15L148 14L151 29L153 19L154 19L152 33L155 33L155 34L153 40L157 41L156 54C151.419 54.9816 153 61.1162 153 65L152 65L148 31L147 31C141.748 44.0867 150.129 59.5986 153.153 72C154.604 77.951 152.916 84.5353 159 88L158 62C167.383 70.6714 161.049 86.4738 160 97L158 96L155 105L154 105C154.476 101.68 157.281 91.3315 154.971 88.7963C152.971 86.6009 149.552 89.1435 147.093 88.4074C143.001 87.1823 140.87 81.7029 140 78L139 78L138 80L135 70L134 70L154 107L149 102L148 102L149 108L141 99L140 99L141 112L135 105L134 105L135 116L122 105L123 118L118 112L117 112L118 121L115 114L114 114L109 126L108 126L106 118L105 118L98 127L96 119L95 119L94 125L93 125L90 113L89 113L86 120L87 112L82 116L84 107L77 110C81.352 103.122 87.5581 97.5003 88 89L87 89C84.3253 103.776 69.6251 104.992 57 105L57 106L78 104L75 112L81 110L80 119L84 117L83 123L90 120L92 127L95 124L96 124L97 131L105 123L107 127L102 129L102 130L110 129L114 120L115 120L121 123L120 119L125 123L126 123L125 112L134 122L135 122L137 117L136 111L144 115L144 116L142 118C152.766 115.061 159.828 112.446 171 115L169 116L169 117L176 120L169 114L169 113C179.215 109.766 188.168 101.465 193 92L194 92C193.31 108.068 189.359 117.641 178 129L179 122L177 121L176 121L177 124L173 124L175 122L175 121L170 121L176 133L172 130L173 141L149 133.61L131 140L134 125L129 134L128 134L127 130L126 130C128.897 140.154 125.982 151.773 112 151.458C96.481 151.109 90.6583 138.063 75 150C74.6384 145.196 71.3982 142.463 70.3171 138C68.6346 131.054 72.7566 125.174 75 119L64 137L67 136L68 140L64 140L64 141C65.7335 141.765 67.4199 142.448 68.9167 143.652C82.3515 154.461 57.1964 152.807 52 155L52 156L78.9769 160.94L85 165L84 169L85 169L85 167L86 167L88 179L87 179L86 177C79.4365 181.572 66.3747 175.993 59 175L59 176C67.6547 179.55 74.6601 181.179 84 180L84 181L49 188L49 189L51 190L38 201L38 202L92 179L99 181.861L116 192L115 198L121 196L125 201L129 195C130.828 198.101 132.481 198.454 136 198C133.714 191.996 139.893 188.334 145 187L141 207L143 207C143.168 203.394 143.477 199.214 147.133 197.357C152.767 194.496 162.848 199.463 158 206L158 207L207 207L207 190L192 188L197 183L197 182L179 183L179 180L191 171.028L207 170L207 137L201 137L207 133L207 132L199 131L200 126C197.796 126.395 193.709 128.172 197 130L197 131L193 125L200 124L200 123L195 123L196 120L193 121L204 110L207 110L207 104L196 108C197.641 99.1595 199.276 89.7511 194 82L198 82L200 94L201 94L202 89L203 89L204 93L205 93C206.775 89.148 207.554 85.592 205 82L207 64L206 64L190 72L186 76L182 82L182 83L184 82L184 83C181.807 84.581 177.265 86.9837 182 88L182 89L180 89L180 90L187 91L188 95L188 96L177 104C177.03 93.2566 178.639 83.547 175.11 73C171.885 63.3646 158.195 52.271 168 42L165 41L165 19L166 19L166 24L167 24L168 0L147 0L147 5L146 5L146 0L137 0z"/>
<path style="fill:#5aa4b1; stroke:none;" d="M139 0L140 1L139 0M144 0L145 1L144 0M146 0L146 5L147 5L146 0z"/>
<path style="fill:#9f649a; stroke:none;" d="M168 0C168.091 10.9733 169.481 21.9868 169.428 33C169.408 37.3189 167.004 42.0857 171 45L169 50L172 52L172 53L167 61L170 64L185 37L186 37C186.001 47.0825 192.881 73.8468 180 78L182 84C177.611 86.4218 178.107 90.4116 178 95L187 93L187 91L179 86L184 82L182 83L182 82L186 76L192 70L196 70L196 71L194 71L194 72L201 67C195.108 63.117 202.346 56.9111 206 54L202 68C208.182 64.7559 207 58.1224 207 52L198 56L197 56L192 65L191 65L195 52L191 54C190.47 46.5001 190.329 39.666 198 36L192 45L206 33L206 39L207 39L207 20L206 20L197 31L204 19L204 0L191 13L190 13L190 33L183 34L173 50L172 31L173 31L173 33L174 33L175 22L176 20L183 12L183 22L184 22L187 0L180 0C179.476 6.41028 177.559 16.3821 173 21L178 0C173.631 2.66313 172.984 8.24503 172 13L171 13L170 0L168 0z"/>
<path style="fill:#2f4a5e; stroke:none;" d="M170 0L171 13L172 13L176 0L170 0z"/>
<path style="fill:#aa9173; stroke:none;" d="M178 0L173 21C178.102 17.6139 179.744 5.8761 180 0L178 0z"/>
<path style="fill:#2f4a5e; stroke:none;" d="M181 0L182 1L181 0M185 34L190 33C190.545 19.4326 192.238 12.3414 198 0C194.63 0 189.427 -0.943298 186.769 1.60339C181.62 6.53714 185.567 26.81 185 34z"/>
<path style="fill:#5aa4b1; stroke:none;" d="M198 0L195 8L196 8L200 0L198 0z"/>
<path style="fill:#aa9173; stroke:none;" d="M200 0L201 1L200 0z"/>
<path style="fill:#2f4a5e; stroke:none;" d="M204 0L204 19C200.057 22.19 196.805 25.7384 197 31C208.781 22.5209 206.518 12.6394 206 0L204 0z"/>
<path style="fill:#9f649a; stroke:none;" d="M206 0L206 6L207 6L206 0z"/>
<path style="fill:#5aa4b1; stroke:none;" d="M166 1L166 7L167 7L166 1z"/>
<path style="fill:#aa9173; stroke:none;" d="M176 1L177 2L176 1M199 1L196 8L197 8L199 1z"/>
<path style="fill:#5aa4b1; stroke:none;" d="M59 2L60 3L59 2z"/>
<path style="fill:#b6c8cc; stroke:none;" d="M198 2L199 3L198 2z"/>
<path style="fill:#9f649a; stroke:none;" d="M112 3L113 4L112 3z"/>
<path style="fill:#2f4a5e; stroke:none;" d="M134 3L136 7L134 3M181 3L181 10L182 10L181 3z"/>
<path style="fill:#b6c8cc; stroke:none;" d="M197 4L198 5L197 4z"/>
<path style="fill:#5aa4b1; stroke:none;" d="M139 5L139 10L142 9L139 5z"/>
<path style="fill:#b6c8cc; stroke:none;" d="M196 5L197 6L196 5M112 6L113 7L112 6z"/>
<path style="fill:#5aa4b1; stroke:none;" d="M145 6L145 11L146 11L147 6L145 6z"/>
<path style="fill:#b6c8cc; stroke:none;" d="M195 6L196 7L195 6M109 7L110 8L109 7z"/>
<path style="fill:#5aa4b1; stroke:none;" d="M117 7L118 8L117 7z"/>
<path style="fill:#aa9173; stroke:none;" d="M168 7L168 41L169 41C169.413 31.3529 171.765 15.9732 168 7z"/>
<path style="fill:#b6c8cc; stroke:none;" d="M194 7L192 13L193 13L194 7z"/>
<path style="fill:#5aa4b1; stroke:none;" d="M84 8L82 11L84 8z"/>
<path style="fill:#b6c8cc; stroke:none;" d="M107 8L108 9L107 8z"/>
<path style="fill:#5aa4b1; stroke:none;" d="M111 8L112 9L111 8M115 8L116 9L115 8M153 8L153 16L154 16L153 8M193 8L194 9L193 8z"/>
<path style="fill:#aa9173; stroke:none;" d="M195.333 8.66667L195.667 9.33333L195.333 8.66667z"/>
<path style="fill:#9f649a; stroke:none;" d="M206 8L207 9L206 8z"/>
<path style="fill:#5aa4b1; stroke:none;" d="M60 9L61 10L60 9z"/>
<path style="fill:#2f4a5e; stroke:none;" d="M135 9L134 12L135 9z"/>
<path style="fill:#aa9173; stroke:none;" d="M202 9L198 14L202 9z"/>
<path style="fill:#5aa4b1; stroke:none;" d="M192 10L193 11L192 10M194 10L195 11L194 10M59 11L60 16L61 16L62 11L59 11z"/>
<path style="fill:#2f4a5e; stroke:none;" d="M131 11L131 16L132 16L131 11z"/>
<path style="fill:#b6c8cc; stroke:none;" d="M61 12L61 20L62 20L61 12z"/>
<path style="fill:#5aa4b1; stroke:none;" d="M144 12L143 17L145 20L144 20L142 18L142 22L139 22L139 25L142 24L141 27L144 26L146 28C145.697 30.444 145.563 31.0282 148 31L148 38L149 38L150 32L151 32L152 41L149 40L149 54C152.965 56.5711 151.536 60.781 152 65L153 65C153 60.8076 152.175 56.4796 156 54L157 41L153 40L155 33L152 33L152 32L154 19L153 19L151 29L148 15L145 16L144 12M182 12L182 19L183 19L182 12M191 12L191 15L193 14L193 13L191 12z"/>
<path style="fill:#aa9173; stroke:none;" d="M193 12L194 13L193 12z"/>
<path style="fill:#9f649a; stroke:none;" d="M47 13L48 14L47 13z"/>
<path style="fill:#5aa4b1; stroke:none;" d="M48 13L48 14C55.3334 15.333 55.9948 19.2543 56 26L57 26L59 16L48 13M62 13L62 20L61 20L59 17L58 27L60 40L61 40L65 30L65 29L62 13z"/>
<path style="fill:#b6c8cc; stroke:none;" d="M84 13L85 14L84 13z"/>
<path style="fill:#2f4a5e; stroke:none;" d="M180 13L179 20L177 20L176 22L173 38L174 38L176 30L178 31L179 18L180 13z"/>
<path style="fill:#aa9173; stroke:none;" d="M184 13L184 21L185 21L184 13z"/>
<path style="fill:#9f649a; stroke:none;" d="M137 14L137 16L139 16L137 14M143.333 14.6667L143.667 15.3333L143.333 14.6667M145 16L148 14L145 16z"/>
<path style="fill:#b6c8cc; stroke:none;" d="M181 14L174.801 36L176 42L174 48C183.363 39.9875 186.502 25.4484 181 14M101 15C92.638 21.8284 87.3993 29.1738 86 40L87 40L101 15z"/>
<path style="fill:#aa9173; stroke:none;" d="M136 15L137 16L136 15z"/>
<path style="fill:#9f649a; stroke:none;" d="M148 15L149 16L148 15z"/>
<path style="fill:#5aa4b1; stroke:none;" d="M106 16L104 21L108 20L106 16z"/>
<path style="fill:#9f649a; stroke:none;" d="M139 16L137 19L138 23L142 22L142 18L144 20C144.794 16.6743 141.792 16.3193 139 16M147 16L148 17L147 16z"/>
<path style="fill:#b6c8cc; stroke:none;" d="M173 16L174 17L173 16z"/>
<path style="fill:#9f649a; stroke:none;" d="M185 16L186 17L185 16z"/>
<path style="fill:#5aa4b1; stroke:none;" d="M64 17L64 18L67 18L64 17M93 17L94 18L93 17M113 17L114 18L113 17M115 17L116 18L115 17M117.667 17.3333L118.333 17.6667L117.667 17.3333z"/>
<path style="fill:#aa9173; stroke:none;" d="M119 17L119 18L123 18L119 17M137 17L138 18L137 17z"/>
<path style="fill:#5aa4b1; stroke:none;" d="M68.6667 18.3333L69.3333 18.6667L68.6667 18.3333M92 18L93 19L92 18M110 18L111 19L110 18z"/>
<path style="fill:#9f649a; stroke:none;" d="M127 18L128 19L127 18z"/>
<path style="fill:#b6c8cc; stroke:none;" d="M133.333 18.6667L133.667 19.3333L133.333 18.6667z"/>
<path style="fill:#aa9173; stroke:none;" d="M134 18L134 20L136 18L134 18z"/>
<path style="fill:#5aa4b1; stroke:none;" d="M179 18L180 26L181 26L179 18z"/>
<path style="fill:#9f649a; stroke:none;" d="M185.333 18.6667L185.667 19.3333L185.333 18.6667z"/>
<path style="fill:#5aa4b1; stroke:none;" d="M91 19L92 20L91 19z"/>
<path style="fill:#b6c8cc; stroke:none;" d="M105 19L106 20L105 19z"/>
<path style="fill:#5aa4b1; stroke:none;" d="M165 19L165 41L168 41L168 22L167 22L167 24L166 24L165 19M178 19L179 20L178 19M90 20L91 21L90 20z"/>
<path style="fill:#9f649a; stroke:none;" d="M135 20L136 21L135 20M143.333 20.6667L143.667 21.3333L143.333 20.6667z"/>
<path style="fill:#aa9173; stroke:none;" d="M176 20L177 21L176 20z"/>
<path style="fill:#5aa4b1; stroke:none;" d="M185 20L185 23L186 23L185 20z"/>
<path style="fill:#b6c8cc; stroke:none;" d="M81 21L82 22L81 21z"/>
<path style="fill:#5aa4b1; stroke:none;" d="M103 21L104 22L103 21z"/>
<path style="fill:#b6c8cc; stroke:none;" d="M116 33L124 21C118.08 23.0184 115.178 26.7208 116 33z"/>
<path style="fill:#2f4a5e; stroke:none;" d="M127 21L128 22L127 21z"/>
<path style="fill:#aa9173; stroke:none;" d="M133 21L134 22L133 21z"/>
<path style="fill:#5aa4b1; stroke:none;" d="M177 21L178 22L177 21z"/>
<path style="fill:#9f649a; stroke:none;" d="M185 21L186 22L185 21z"/>
<path style="fill:#b6c8cc; stroke:none;" d="M63 22L63 29L65 29L63 22z"/>
<path style="fill:#2f4a5e; stroke:none;" d="M123 24L126 23L123 24z"/>
<path style="fill:#b6c8cc; stroke:none;" d="M123 26L129 22L123 26z"/>
<path style="fill:#aa9173; stroke:none;" d="M173 22L172 27L173 27L173 22M175 22L176 23L175 22z"/>
<path style="fill:#2f4a5e; stroke:none;" d="M183 22L184 23L183 22z"/>
<path style="fill:#aa9173; stroke:none;" d="M184 22L184 29L185 29L184 22z"/>
<path style="fill:#5aa4b1; stroke:none;" d="M64 23L65 24L64 23z"/>
<path style="fill:#aa9173; stroke:none;" d="M124 23L125 24L124 23z"/>
<path style="fill:#9f649a; stroke:none;" d="M136 23L139 25L139 24L136 23z"/>
<path style="fill:#2f4a5e; stroke:none;" d="M137 23L137 24L140 24L137 23z"/>
<path style="fill:#9f649a; stroke:none;" d="M142 23L143 24L142 23z"/>
<path style="fill:#5aa4b1; stroke:none;" d="M176.333 23.6667L176.667 24.3333L176.333 23.6667z"/>
<path style="fill:#9f649a; stroke:none;" d="M183 23L183 29L184 29L183 23M185 23L185 26L186 26L185 23z"/>
<path style="fill:#5aa4b1; stroke:none;" d="M87 24L88 25L87 24M121 24L122 25L121 24z"/>
<path style="fill:#2f4a5e; stroke:none;" d="M122 24L123 25L122 24M126 25L126 26C133.373 26.0057 139.123 27.0596 144 33L145 33L144 26L141 27C140.236 22.3174 129.534 24.5826 126 25z"/>
<path style="fill:#9f649a; stroke:none;" d="M134 24L135 25L134 24M141 24L142 25L141 24z"/>
<path style="fill:#b6c8cc; stroke:none;" d="M78 25L78 31L79 31L80 25L78 25z"/>
<path style="fill:#2f4a5e; stroke:none;" d="M121.333 25.6667L121.667 26.3333L121.333 25.6667z"/>
<path style="fill:#9f649a; stroke:none;" d="M145 25L146 26L145 25z"/>
<path style="fill:#2f4a5e; stroke:none;" d="M206 25L207 26L206 25z"/>
<path style="fill:#b6c8cc; stroke:none;" d="M122 26L123 27L122 26z"/>
<path style="fill:#2f4a5e; stroke:none;" d="M124 26L125 27L124 26z"/>
<path style="fill:#9f649a; stroke:none;" d="M134.667 26.3333L135.333 26.6667L134.667 26.3333z"/>
<path style="fill:#5aa4b1; stroke:none;" d="M185 26L186 27L185 26M85 27L86 28L85 27z"/>
<path style="fill:#b6c8cc; stroke:none;" d="M121 27L122 28L121 27z"/>
<path style="fill:#9f649a; stroke:none;" d="M133.333 27.6667L133.667 28.3333L133.333 27.6667M136 27C136.661 30.111 138.192 29.9652 141 29L141 28L136 27M143 27L145 30L143 27z"/>
<path style="fill:#5aa4b1; stroke:none;" d="M179 27L180 28L179 27z"/>
<path style="fill:#9f649a; stroke:none;" d="M185 27L185 30L186 30L185 27z"/>
<path style="fill:#5aa4b1; stroke:none;" d="M53 28L54 38C58.4128 37.0544 57 31.7675 57 28L53 28z"/>
<path style="fill:#2f4a5e; stroke:none;" d="M121 28L122 29L121 28z"/>
<path style="fill:#aa9173; stroke:none;" d="M132 28L133 29L132 28M144.667 28.3333L145.333 28.6667L144.667 28.3333M133 29L134 30L133 29z"/>
<path style="fill:#2f4a5e; stroke:none;" d="M135 29C136.278 31.8983 138.25 32.483 139 29L135 29z"/>
<path style="fill:#9f649a; stroke:none;" d="M141 29L142 30L141 29z"/>
<path style="fill:#b6c8cc; stroke:none;" d="M151.333 29.6667L151.667 30.3333L151.333 29.6667z"/>
<path style="fill:#5aa4b1; stroke:none;" d="M155.333 29.6667L155.667 30.3333L155.333 29.6667z"/>
<path style="fill:#2f4a5e; stroke:none;" d="M166 29L167 30L166 29z"/>
<path style="fill:#5aa4b1; stroke:none;" d="M178 29L179 30L178 29M183 29L184 30L183 29z"/>
<path style="fill:#b6c8cc; stroke:none;" d="M184 29L185 30L184 29z"/>
<path style="fill:#2f4a5e; stroke:none;" d="M195 29L187 40L194 32L197 32L197 31L195 32L195 29M61 30L62 31L61 30z"/>
<path style="fill:#9f649a; stroke:none;" d="M142 30L143 31L142 30z"/>
<path style="fill:#aa9173; stroke:none;" d="M145 30L146 31L145 30z"/>
<path style="fill:#5aa4b1; stroke:none;" d="M158.667 30.3333L159.333 30.6667L158.667 30.3333z"/>
<path style="fill:#2f4a5e; stroke:none;" d="M167.333 30.6667L167.667 31.3333L167.333 30.6667z"/>
<path style="fill:#5aa4b1; stroke:none;" d="M176 30L175 34L176 30z"/>
<path style="fill:#9f649a; stroke:none;" d="M183 30L184 31L183 30z"/>
<path style="fill:#aa9173; stroke:none;" d="M184 30L184 34L185 34L184 30z"/>
<path style="fill:#5aa4b1; stroke:none;" d="M80 31L81 41L82 41L80 31z"/>
<path style="fill:#b6c8cc; stroke:none;" d="M130 31L132 34L130 31z"/>
<path style="fill:#aa9173; stroke:none;" d="M142 31L143 32L142 31z"/>
<path style="fill:#9f649a; stroke:none;" d="M144 31L144 35C145.813 33.4444 145.813 32.5556 144 31z"/>
<path style="fill:#aa9173; stroke:none;" d="M172 31L172 35L173 35L172 31z"/>
<path style="fill:#5aa4b1; stroke:none;" d="M183 31L183 34L184 34L183 31M83 32L84 33L83 32z"/>
<path style="fill:#aa9173; stroke:none;" d="M133 32L133 33L137 34L137 33L133 32M140 32L141 33L140 32z"/>
<path style="fill:#9f649a; stroke:none;" d="M143 32L144 33L143 32z"/>
<path style="fill:#b6c8cc; stroke:none;" d="M150 32C149.095 35.8454 148.599 38.5448 152 41L150 32z"/>
<path style="fill:#9f649a; stroke:none;" d="M159 35L160 35L163 34C160.866 32.1437 159.639 32.0775 159 35z"/>
<path style="fill:#b6c8cc; stroke:none;" d="M134 33L136 35L136 33L134 33z"/>
<path style="fill:#9f649a; stroke:none;" d="M141 33L142 37L143 37L141 33z"/>
<path style="fill:#b6c8cc; stroke:none;" d="M158 33L159 34L158 33z"/>
<path style="fill:#aa9173; stroke:none;" d="M205 33L193 46L194 46L197 42L198 50L192 49L191 54L195 52L191 65L192 65L197 57L194 58L196 51L197 51L197 56L198 56L205 44C204.921 50.7194 201.694 53.7288 198 59C205.946 53.3828 208.876 42.236 205 33z"/>
<path style="fill:#2f4a5e; stroke:none;" d="M132 34L133 35L132 34M138 34L139 35L138 34z"/>
<path style="fill:#5aa4b1; stroke:none;" d="M156 34L157 35L156 34z"/>
<path style="fill:#9f649a; stroke:none;" d="M157 34L158 35L157 34z"/>
<path style="fill:#5aa4b1; stroke:none;" d="M158 34L159 35L158 34M174 34L174 37L175 37L174 34z"/>
<path style="fill:#b6c8cc; stroke:none;" d="M133 35L134 36L133 35z"/>
<path style="fill:#9f649a; stroke:none;" d="M138 35L139 36L138 35z"/>
<path style="fill:#2f4a5e; stroke:none;" d="M183.333 35.6667L183.667 36.3333L183.333 35.6667z"/>
<path style="fill:#5aa4b1; stroke:none;" d="M23 36L23 39L24 39L23 36z"/>
<path style="fill:#9f649a; stroke:none;" d="M41 36L42 37L41 36z"/>
<path style="fill:#b6c8cc; stroke:none;" d="M130 37L134 38L130 37z"/>
<path style="fill:#aa9173; stroke:none;" d="M133 36L134 37L133 36z"/>
<path style="fill:#9f649a; stroke:none;" d="M139 36L140 37L139 36z"/>
<path style="fill:#5aa4b1; stroke:none;" d="M159 36L160 40L159 36z"/>
<path style="fill:#aa9173; stroke:none;" d="M191 45L198 36C193.254 37.3652 191.536 40.1951 191 45z"/>
<path style="fill:#b6c8cc; stroke:none;" d="M199 47L200 47L204 36C199.265 38.6568 199.018 41.8775 199 47z"/>
<path style="fill:#5aa4b1; stroke:none;" d="M52 37L53 38L52 37z"/>
<path style="fill:#9f649a; stroke:none;" d="M82 37L83 38L82 37z"/>
<path style="fill:#2f4a5e; stroke:none;" d="M114 39L114 40L126 45L126 44L119 40L123 38L114 39z"/>
<path style="fill:#aa9173; stroke:none;" d="M140 37L143 39L140 37z"/>
<path style="fill:#9f649a; stroke:none;" d="M145 37L146 38L145 37z"/>
<path style="fill:#aa9173; stroke:none;" d="M178 37L176 42L178 37M185 37L184 41L185 41L185 37z"/>
<path style="fill:#b6c8cc; stroke:none;" d="M77 38L75 49L77 50C80.958 46.9552 81.5603 44.6991 80 40L79 40L79 43L78 43L77 38z"/>
<path style="fill:#2f4a5e; stroke:none;" d="M135 38L136 39L135 38M137 41L140 38L137 41z"/>
<path style="fill:#5aa4b1; stroke:none;" d="M156 38L157 39L156 38z"/>
<path style="fill:#b6c8cc; stroke:none;" d="M185 38C184.044 46.3645 186.728 55.8143 183.923 63.9066C181.466 70.9939 175.434 71.1353 177 80C188.723 74.9945 189.528 48.7902 185 38z"/>
<path style="fill:#9f649a; stroke:none;" d="M25 39L26 40L25 39z"/>
<path style="fill:#b6c8cc; stroke:none;" d="M129 39L130 40L129 39z"/>
<path style="fill:#9f649a; stroke:none;" d="M139 39L140 40L139 39z"/>
<path style="fill:#b6c8cc; stroke:none;" d="M144 39L145 45L146 45L144 39z"/>
<path style="fill:#aa9173; stroke:none;" d="M173 39L173 43L174 43L173 39M181 39L182 40L181 39z"/>
<path style="fill:#2f4a5e; stroke:none;" d="M206 39L206 42L207 42L206 39z"/>
<path style="fill:#9f649a; stroke:none;" d="M26 40C26.1254 43.8776 26.5016 46.0718 30 48L31 47L26 40z"/>
<path style="fill:#b6c8cc; stroke:none;" d="M96 40C91.9262 42.423 88.5555 43.8188 89 49L92 49L96 40z"/>
<path style="fill:#2f4a5e; stroke:none;" d="M83 55L83 56C95.0126 61.0888 107.68 49.6897 114 40C101.3 44.3751 97.7324 57.901 83 55z"/>
<path style="fill:#aa9173; stroke:none;" d="M179.333 40.6667L179.667 41.3333L179.333 40.6667z"/>
<path style="fill:#2f4a5e; stroke:none;" d="M182 40L183 46L184 46L184 40L182 40z"/>
<path style="fill:#5aa4b1; stroke:none;" d="M80 41L81 42L80 41z"/>
<path style="fill:#9f649a; stroke:none;" d="M82.3333 41.6667L82.6667 42.3333L82.3333 41.6667M135 41L137 43L135 41z"/>
<path style="fill:#2f4a5e; stroke:none;" d="M136 41L137 42L136 41z"/>
<path style="fill:#aa9173; stroke:none;" d="M140 41L141 42L140 41z"/>
<path style="fill:#9f649a; stroke:none;" d="M183 41L184 42L183 41z"/>
<path style="fill:#5aa4b1; stroke:none;" d="M28 42L29 43L28 42M68 42L69 43L68 42z"/>
<path style="fill:#2f4a5e; stroke:none;" d="M137 42L138 43L137 42z"/>
<path style="fill:#b6c8cc; stroke:none;" d="M150 42L151 46L152 46L150 42z"/>
<path style="fill:#5aa4b1; stroke:none;" d="M159 42L160 43L159 42z"/>
<path style="fill:#aa9173; stroke:none;" d="M175 42L174 45L175 42M178 42L179 43L178 42z"/>
<path style="fill:#5aa4b1; stroke:none;" d="M184 42L184 46L185 46L184 42z"/>
<path style="fill:#b6c8cc; stroke:none;" d="M196 42L193 51C196.691 48.9647 197.624 45.9164 196 42z"/>
<path style="fill:#9f649a; stroke:none;" d="M206 42L206 48L207 48L206 42M124 43L125 44L124 43z"/>
<path style="fill:#aa9173; stroke:none;" d="M134 43L137 46L134 43M138 43L139 44L138 43M140 43L142 45L140 43z"/>
<path style="fill:#5aa4b1; stroke:none;" d="M165 43C165 48.2309 163.14 56.8493 168 60L169 44L165 43z"/>
<path style="fill:#2f4a5e; stroke:none;" d="M172 43L173 44L172 43z"/>
<path style="fill:#5aa4b1; stroke:none;" d="M181 43L177 50L180 49L178 53L178 54L180 54L178 56C180.54 56.5229 180.685 56.5947 181 54L182 54L184 61L180 59L177 65L182 62L183 67L184 67L185 65C184.551 57.4284 187.029 48.7472 181 43z"/>
<path style="fill:#9f649a; stroke:none;" d="M183 43L184 44L183 43M197 43L197 50L198 50L197 43z"/>
<path style="fill:#b6c8cc; stroke:none;" d="M109 44L110 45L109 44z"/>
<path style="fill:#9f649a; stroke:none;" d="M136 44L137 45L136 44M149 44L150 45L149 44z"/>
<path style="fill:#5aa4b1; stroke:none;" d="M158 45L158 46L162 45L158 45z"/>
<path style="fill:#b6c8cc; stroke:none;" d="M167 44L167 58C170.619 55.2649 170.613 46.6824 167 44z"/>
<path style="fill:#aa9173; stroke:none;" d="M168 44L169 45L168 44M177 44L178 45L177 44M180 44L181 45L180 44z"/>
<path style="fill:#b6c8cc; stroke:none;" d="M204 44C199.988 48.3358 198.467 52.1445 198 58C202.831 54.5566 206.535 50.0575 204 44z"/>
<path style="fill:#2f4a5e; stroke:none;" d="M110 45L110 46L119 48L110 45M126 45L132 54L133 54L126 45M129.667 45.3333L130.333 45.6667L129.667 45.3333z"/>
<path style="fill:#aa9173; stroke:none;" d="M170.333 45.6667L170.667 46.3333L170.333 45.6667z"/>
<path style="fill:#5aa4b1; stroke:none;" d="M191 45L190 50L193 45L191 45z"/>
<path style="fill:#9f649a; stroke:none;" d="M40 46L41 47L40 46z"/>
<path style="fill:#2f4a5e; stroke:none;" d="M107.667 46.3333L108.333 46.6667L107.667 46.3333z"/>
<path style="fill:#aa9173; stroke:none;" d="M173 46L173 50L174 50L173 46M176 46L177 47L176 46M179 46L180 47L179 46z"/>
<path style="fill:#2f4a5e; stroke:none;" d="M190.333 46.6667L190.667 47.3333L190.333 46.6667z"/>
<path style="fill:#aa9173; stroke:none;" d="M30 47L31 48L30 47z"/>
<path style="fill:#b6c8cc; stroke:none;" d="M43 47L44 48L43 47M108 47L109 48L108 47z"/>
<path style="fill:#2f4a5e; stroke:none;" d="M131.667 47.3333L132.333 47.6667L131.667 47.3333z"/>
<path style="fill:#9f649a; stroke:none;" d="M135 47C137.115 48.927 138.172 49.3692 140 47L135 47z"/>
<path style="fill:#b6c8cc; stroke:none;" d="M145 47L146 48L145 47M153 47L154 48L153 47z"/>
<path style="fill:#aa9173; stroke:none;" d="M175 47L176 48L175 47M178 47L179 48L178 47M186 47L186 74L187 74L186 47z"/>
<path style="fill:#9f649a; stroke:none;" d="M41 48L42 49L41 48z"/>
<path style="fill:#b6c8cc; stroke:none;" d="M98 62L113 51C107.027 42.5544 97.1384 55.2361 98 62z"/>
<path style="fill:#9f649a; stroke:none;" d="M133 48L134 49L133 48z"/>
<path style="fill:#2f4a5e; stroke:none;" d="M134 48C136.624 55.3887 139.213 62.848 147 66C142.938 59.5201 139.907 57.043 140 49L134 48z"/>
<path style="fill:#9f649a; stroke:none;" d="M158.667 48.3333L159.333 48.6667L158.667 48.3333z"/>
<path style="fill:#2f4a5e; stroke:none;" d="M170.667 48.3333L171.333 48.6667L170.667 48.3333z"/>
<path style="fill:#aa9173; stroke:none;" d="M177 48L178 49L177 48z"/>
<path style="fill:#2f4a5e; stroke:none;" d="M182 48L183 49L182 48M206 48L206 52L207 52L206 48z"/>
<path style="fill:#b6c8cc; stroke:none;" d="M114 49L114 51L117 51L117 49L114 49z"/>
<path style="fill:#9f649a; stroke:none;" d="M149 49L150 50L149 49z"/>
<path style="fill:#b6c8cc; stroke:none;" d="M178 49L173 63L178 56L178 55L180 55L180 54L178 54L178 53L180 53L180 49L178 49z"/>
<path style="fill:#9f649a; stroke:none;" d="M21 50L22 68L23 68L23 63L26 63L31 56C28.2029 51.9087 25.9993 50.1656 21 50z"/>
<path style="fill:#5aa4b1; stroke:none;" d="M103 50L104 51L103 50z"/>
<path style="fill:#aa9173; stroke:none;" d="M169 50L169 55L170 55L172 53L169 50M176 50L175 52L176 50z"/>
<path style="fill:#2f4a5e; stroke:none;" d="M182 50L183 54L184 54L182 50z"/>
<path style="fill:#b6c8cc; stroke:none;" d="M76 51L77 52L76 51z"/>
<path style="fill:#5aa4b1; stroke:none;" d="M102 51L103 52L102 51z"/>
<path style="fill:#9f649a; stroke:none;" d="M140 51L140 54L141 54L140 51M158 51L159 52L158 51z"/>
<path style="fill:#5aa4b1; stroke:none;" d="M176 51L177 52L176 51z"/>
<path style="fill:#b6c8cc; stroke:none;" d="M196 51L194 58C196.824 56.1711 197.263 54.1174 196 51M150 52L150 53L153 53L150 52M170 52L171 53L170 52z"/>
<path style="fill:#5aa4b1; stroke:none;" d="M16 53L13 63L21 66C20.956 60.6858 20.8789 55.9638 16 53M19 53L20 54L19 53z"/>
<path style="fill:#b6c8cc; stroke:none;" d="M44 53L44 54L47 54L47 53L44 53z"/>
<path style="fill:#2f4a5e; stroke:none;" d="M93 61L92 61L92 65L91 65L90 62L82 61L84 57L80 62L78 61L77 62L77 64L78 65L84 62L88 65L86 67C88.2371 67.7907 90 68.6259 90 66C96.4652 69.4181 99.8072 66.6548 106 64L102 67L102 68L114 67L112 65L112 64L114 62L107 63L114 59L114 58L112 58L112 57L120 57L120 56L118 56L118 55L122 55C112.215 49.4268 95.8566 72.3679 93 61z"/>
<path style="fill:#9f649a; stroke:none;" d="M133.333 53.6667L133.667 54.3333L133.333 53.6667z"/>
<path style="fill:#b6c8cc; stroke:none;" d="M134 53L136 55L136 53L134 53z"/>
<path style="fill:#aa9173; stroke:none;" d="M141 53L142 54L141 53z"/>
<path style="fill:#b6c8cc; stroke:none;" d="M146 53L145 57L146 57L146 53z"/>
<path style="fill:#5aa4b1; stroke:none;" d="M159 53L159 54L164 54L159 53z"/>
<path style="fill:#2f4a5e; stroke:none;" d="M173.333 53.6667L173.667 54.3333L173.333 53.6667z"/>
<path style="fill:#5aa4b1; stroke:none;" d="M175 53L176 54L175 53z"/>
<path style="fill:#2f4a5e; stroke:none;" d="M34 54L35 55L34 54z"/>
<path style="fill:#9f649a; stroke:none;" d="M60 54L61 55L60 54z"/>
<path style="fill:#2f4a5e; stroke:none;" d="M81.6667 54.3333L82.3333 54.6667L81.6667 54.3333z"/>
<path style="fill:#aa9173; stroke:none;" d="M134 54L133 55L136 74L137 74L141 68L139 64L142 63L134 54z"/>
<path style="fill:#b6c8cc; stroke:none;" d="M150 54L151 63L152 63L152 54L150 54z"/>
<path style="fill:#5aa4b1; stroke:none;" d="M157 54L157 57L158 57L157 54z"/>
<path style="fill:#b6c8cc; stroke:none;" d="M181 54L182 55L181 54z"/>
<path style="fill:#aa9173; stroke:none;" d="M205 54C200.542 57.702 198.187 61.1323 198 67L202 68C205.373 63.7073 207.239 59.3361 205 54z"/>
<path style="fill:#b6c8cc; stroke:none;" d="M42 55L46 72L47 72L47 55L45 58L44 58L42 55M59 55L60 56L59 55z"/>
<path style="fill:#aa9173; stroke:none;" d="M181 55L182 56L181 55z"/>
<path style="fill:#b6c8cc; stroke:none;" d="M60 56L60 72L61 72L60 56M77 60L84 56L77 60z"/>
<path style="fill:#9f649a; stroke:none;" d="M133 56L134 57L133 56M139 56L140 57L139 56z"/>
<path style="fill:#aa9173; stroke:none;" d="M140.333 56.6667L140.667 57.3333L140.333 56.6667M142 56L143 57L142 56M169.333 56.6667L169.667 57.3333L169.333 56.6667z"/>
<path style="fill:#9f649a; stroke:none;" d="M180 57L183 60L183 56L180 57z"/>
<path style="fill:#2f4a5e; stroke:none;" d="M120 57L121 58L120 57M133 57L134 69L135 69L133 57z"/>
<path style="fill:#5aa4b1; stroke:none;" d="M134 57L135 58L134 57z"/>
<path style="fill:#b6c8cc; stroke:none;" d="M146 57L147 61L148 61L146 57z"/>
<path style="fill:#aa9173; stroke:none;" d="M179 57L178 58L178 59L179 60L180 60L181 59L181 58L179 57z"/>
<path style="fill:#9f649a; stroke:none;" d="M27.3333 58.6667L27.6667 59.3333L27.3333 58.6667M75 58L71 60L71 62C73.9998 61.7679 77.0056 61.3235 75 58z"/>
<path style="fill:#5aa4b1; stroke:none;" d="M76.6667 58.3333L77.3333 58.6667L76.6667 58.3333z"/>
<path style="fill:#9f649a; stroke:none;" d="M133 58L135 61L135 58L133 58M140 58L141 59L140 58M29 59L29 68L27 71L31 72L29 59z"/>
<path style="fill:#b6c8cc; stroke:none;" d="M66 59C68.5528 67.0529 71.7008 84.5185 67 92L67 100L70 101L70 102L60 99L62 105L76 103L71.3171 92.9105L69 59L66 59z"/>
<path style="fill:#2f4a5e; stroke:none;" d="M88.3333 59.6667L88.6667 60.3333L88.3333 59.6667z"/>
<path style="fill:#b6c8cc; stroke:none;" d="M108 62L110 64L115 59L108 62z"/>
<path style="fill:#2f4a5e; stroke:none;" d="M115 59L116 60L115 59z"/>
<path style="fill:#b6c8cc; stroke:none;" d="M135 59L136 63L137 63L135 59z"/>
<path style="fill:#aa9173; stroke:none;" d="M141 59L142 60L141 59z"/>
<path style="fill:#9f649a; stroke:none;" d="M177 59L176 66L177 66L179 59L177 59z"/>
<path style="fill:#2f4a5e; stroke:none;" d="M183.333 59.6667L183.667 60.3333L183.333 59.6667M21 60L22 61L21 60z"/>
<path style="fill:#9f649a; stroke:none;" d="M80 60L81 61L80 60z"/>
<path style="fill:#b6c8cc; stroke:none;" d="M90 60L91 61L90 60z"/>
<path style="fill:#2f4a5e; stroke:none;" d="M93 60L94 61L93 60z"/>
<path style="fill:#5aa4b1; stroke:none;" d="M108 60L109 61L108 60z"/>
<path style="fill:#aa9173; stroke:none;" d="M142 60L143 61L142 60M144 60L145 61L144 60M150 60L151 61L150 60z"/>
<path style="fill:#9f649a; stroke:none;" d="M77 61L78 62L77 61M79 61L80 62L79 61z"/>
<path style="fill:#5aa4b1; stroke:none;" d="M107 61L108 62L107 61M109 61L109 64L110 64L109 61z"/>
<path style="fill:#aa9173; stroke:none;" d="M175 61L174 69L178 65L175 61M178 61L179 62L178 61z"/>
<path style="fill:#b6c8cc; stroke:none;" d="M65 62L66 63L65 62M91 62L92 63L91 62z"/>
<path style="fill:#aa9173; stroke:none;" d="M107 62L108 63L107 62z"/>
<path style="fill:#5aa4b1; stroke:none;" d="M135.333 62.6667L135.667 63.3333L135.333 62.6667z"/>
<path style="fill:#b6c8cc; stroke:none;" d="M148 62L148 66L149 66L148 62z"/>
<path style="fill:#5aa4b1; stroke:none;" d="M158 62L158 78L161 79L159 88L152 73C153.309 78.5012 153.392 85.8527 147 88L147 89L147 90C151.575 88.7028 155.045 87.2196 156 93L157 93L157 89L158 89L158 96L154 95L154 96L156 97L154 105L155 105L162 89L159 90C161.296 85.872 164.709 81.394 160 78L163 76L160 62L158 62M163 62C169.26 84.224 162.845 95.4796 150 113C157.68 112.029 166.741 111.833 172.258 105.366C180.882 95.2558 173.819 67.8313 163 62z"/>
<path style="fill:#aa9173; stroke:none;" d="M172 62L173 65L172 62M177 62L178 63L177 62z"/>
<path style="fill:#b6c8cc; stroke:none;" d="M181 62L182 63L181 62z"/>
<path style="fill:#2f4a5e; stroke:none;" d="M23 63L23 69L26 71L27 71L26 63L23 63M62 63L64 81L65 81L68 70L65 70L67 65L62 63z"/>
<path style="fill:#aa9173; stroke:none;" d="M111 63L112 64L111 63z"/>
<path style="fill:#5aa4b1; stroke:none;" d="M140 63L139 65L140 63z"/>
<path style="fill:#b6c8cc; stroke:none;" d="M141 63L141 68C137.135 68.893 137.106 72.4268 137 76L141 73L141 72L139 70L144 75C148.793 70.3011 146.053 66.019 141 63z"/>
<path style="fill:#9f649a; stroke:none;" d="M173 63L171 66L173 69L174 69L173 63z"/>
<path style="fill:#aa9173; stroke:none;" d="M179 63L176 71L181 69L182 63L179 63M196 63L194 68L196 63z"/>
<path style="fill:#9f649a; stroke:none;" d="M25 64L27 66L27 64L25 64z"/>
<path style="fill:#b6c8cc; stroke:none;" d="M76 64L77 65L76 64z"/>
<path style="fill:#aa9173; stroke:none;" d="M79 64L80 65L79 64z"/>
<path style="fill:#b6c8cc; stroke:none;" d="M86 64L87 65L86 64z"/>
<path style="fill:#aa9173; stroke:none;" d="M104 64L105 65L104 64z"/>
<path style="fill:#5aa4b1; stroke:none;" d="M105.333 64.6667L105.667 65.3333L105.333 64.6667M143 64L144 65L143 64z"/>
<path style="fill:#b6c8cc; stroke:none;" d="M171 64L172 65L171 64z"/>
<path style="fill:#5aa4b1; stroke:none;" d="M174 64L174 68L175 68L174 64z"/>
<path style="fill:#2f4a5e; stroke:none;" d="M82.3333 65.6667L82.6667 66.3333L82.3333 65.6667z"/>
<path style="fill:#aa9173; stroke:none;" d="M86 65L87 66L86 65z"/>
<path style="fill:#5aa4b1; stroke:none;" d="M87 65L88 66L87 65z"/>
<path style="fill:#9f649a; stroke:none;" d="M89 65L90 66L89 65z"/>
<path style="fill:#b6c8cc; stroke:none;" d="M100 68L105 66L100 68M135.333 65.6667L135.667 66.3333L135.333 65.6667M175 72L180 65C176.552 66.6631 174.938 68.1163 175 72z"/>
<path style="fill:#9f649a; stroke:none;" d="M181 65L180 68L181 65z"/>
<path style="fill:#2f4a5e; stroke:none;" d="M183 65L184 66L183 65M34 66L35 67L34 66M77 68L80 66L77 68z"/>
<path style="fill:#b6c8cc; stroke:none;" d="M81 66L80 69L81 66M91 66L92 67L91 66z"/>
<path style="fill:#9f649a; stroke:none;" d="M100 66L101 67L100 66z"/>
<path style="fill:#5aa4b1; stroke:none;" d="M142 66L143 67L142 66z"/>
<path style="fill:#2f4a5e; stroke:none;" d="M147.667 66.3333L148.333 66.6667L147.667 66.3333z"/>
<path style="fill:#aa9173; stroke:none;" d="M173 66L174 67L173 66z"/>
<path style="fill:#2f4a5e; stroke:none;" d="M182 66L183 67L182 66M28 67L29 68L28 67M67 67L68 68L67 67z"/>
<path style="fill:#aa9173; stroke:none;" d="M82.3333 67.6667L82.6667 68.3333L82.3333 67.6667z"/>
<path style="fill:#2f4a5e; stroke:none;" d="M149 67L150 68L149 67M30 68L31 72L28 71L28 72L36 76L30 68M98 69L98 70L119.853 72.5177L125 81C126.364 65.2229 108.248 69.1293 98 69z"/>
<path style="fill:#b6c8cc; stroke:none;" d="M148 68L146 89L149 89C153.653 82.2218 152.817 75.8762 153 68L148 68z"/>
<path style="fill:#5aa4b1; stroke:none;" d="M1 71L4 71L3 69L1 71z"/>
<path style="fill:#9f649a; stroke:none;" d="M25 69L26 70L25 69z"/>
<path style="fill:#2f4a5e; stroke:none;" d="M71.3333 69.6667L71.6667 70.3333L71.3333 69.6667M78 69L74.2793 83L78 96L82 97C84.1342 90.7261 88.9448 87.251 95 85C93.5809 89.2885 82.9837 110.309 97 105C104.795 120.594 123.362 97.5786 108 90C110.049 93.4587 112.605 96.8635 110.667 100.985C108.475 105.644 101.472 108.495 99.4066 101.98C98.4044 98.8185 100.71 94.2955 101 91L100 91L95 105L93 105L96 85L105 86L108 90L106 86C110.916 87.453 119.935 88.8721 122 83L119 84L118 78L122 78C118.753 69.8435 109.24 75.9773 103 77L103 78L118 83L118 84L91 84.0278L79 92C75.6752 79.4333 79.3079 73.1366 92 70L92 69L81 71L78 69z"/>
<path style="fill:#9f649a; stroke:none;" d="M134 69L135 70L134 69z"/>
<path style="fill:#aa9173; stroke:none;" d="M139 70L141 72L141 70L139 70M192 70L192 71L196 71L192 70z"/>
<path style="fill:#b6c8cc; stroke:none;" d="M42 71L42 81L34 79L34 80L43 87L36 84L36 93L58 102L48 73L42 71z"/>
<path style="fill:#9f649a; stroke:none;" d="M78.6667 71.3333L79.3333 71.6667L78.6667 71.3333M174 71L175 72L174 71M176 71L177 72L176 71M206 71L207 72L206 71z"/>
<path style="fill:#aa9173; stroke:none;" d="M175.667 72.3333L176.333 72.6667L175.667 72.3333z"/>
<path style="fill:#9f649a; stroke:none;" d="M66 73L67 74L66 73z"/>
<path style="fill:#b6c8cc; stroke:none;" d="M86 82L82 82L82 81L85 81L91 74C84.2837 72.198 73.4724 76.7404 77.7569 85.6813C80.2629 90.9107 85.1633 85.036 86 82z"/>
<path style="fill:#9f649a; stroke:none;" d="M175 73L176 74L175 73z"/>
<path style="fill:#5aa4b1; stroke:none;" d="M185 73L186 74L185 73M0 74C0.0134776 77.1942 -0.402857 79.2708 3 80L3 81L0 81C0 87.3286 -2.80988 99.2957 5 101L5 86L2 86L4 74L0 74z"/>
<path style="fill:#9f649a; stroke:none;" d="M136 74L137 75L136 74z"/>
<path style="fill:#5aa4b1; stroke:none;" d="M158.667 74.3333L159.333 74.6667L158.667 74.3333M184 74L185 75L184 74z"/>
<path style="fill:#b6c8cc; stroke:none;" d="M60 75L59 79L63 77L61 78L62 75L60 75z"/>
<path style="fill:#5aa4b1; stroke:none;" d="M155 75L156 76L155 75z"/>
<path style="fill:#aa9173; stroke:none;" d="M137.333 76.6667L137.667 77.3333L137.333 76.6667z"/>
<path style="fill:#b6c8cc; stroke:none;" d="M160 78C162.396 78.5746 162.487 78.4751 163 76L160 78z"/>
<path style="fill:#2f4a5e; stroke:none;" d="M66.3333 77.6667L66.6667 78.3333L66.3333 77.6667z"/>
<path style="fill:#5aa4b1; stroke:none;" d="M78 77L79 78L78 77z"/>
<path style="fill:#2f4a5e; stroke:none;" d="M141 77L142 78L141 77M144 77L144 86L145 86L147 77L144 77z"/>
<path style="fill:#aa9173; stroke:none;" d="M176 77L177 78L176 77M181 77L181 79L183 77L181 77M182 81L186 77L182 81z"/>
<path style="fill:#9f649a; stroke:none;" d="M197 77L198 78L197 77z"/>
<path style="fill:#b6c8cc; stroke:none;" d="M65 78L67 88L65 78z"/>
<path style="fill:#2f4a5e; stroke:none;" d="M100.667 78.3333L101.333 78.6667L100.667 78.3333z"/>
<path style="fill:#b6c8cc; stroke:none;" d="M107 78L108 79L107 78z"/>
<path style="fill:#9f649a; stroke:none;" d="M118.333 78.6667L118.667 79.3333L118.333 78.6667z"/>
<path style="fill:#aa9173; stroke:none;" d="M119 84L120 84L119 81L124 82L124 81L120 81L124 80C120.118 77.1395 118.217 79.889 119 84z"/>
<path style="fill:#9f649a; stroke:none;" d="M136 78L137 79L136 78M176 78L177 79L176 78z"/>
<path style="fill:#b6c8cc; stroke:none;" d="M3 79L4 80L3 79z"/>
<path style="fill:#5aa4b1; stroke:none;" d="M6 79L7 80L6 79M77.3333 79.6667L77.6667 80.3333L77.3333 79.6667z"/>
<path style="fill:#2f4a5e; stroke:none;" d="M93 83L99 80L93 83z"/>
<path style="fill:#9f649a; stroke:none;" d="M120 81L124 81L120 81z"/>
<path style="fill:#b6c8cc; stroke:none;" d="M159.667 79.3333L160.333 79.6667L159.667 79.3333z"/>
<path style="fill:#aa9173; stroke:none;" d="M179 79L179 83L178 86L182 84L179 79z"/>
<path style="fill:#9f649a; stroke:none;" d="M199 79L200 80L199 79z"/>
<path style="fill:#2f4a5e; stroke:none;" d="M0.666667 80.3333L1.33333 80.6667L0.666667 80.3333z"/>
<path style="fill:#9f649a; stroke:none;" d="M2 80L3 81L2 80z"/>
<path style="fill:#b6c8cc; stroke:none;" d="M14 80L15 81L14 80M60 80L62 82L62 83L58 83L58 87L63 87L60 80z"/>
<path style="fill:#2f4a5e; stroke:none;" d="M66 80L67 81L66 80M114 80L115 81L114 80z"/>
<path style="fill:#9f649a; stroke:none;" d="M120 82L123 88L124 88L123 83L127 80L120 82M64 81L64 89L65 89L64 81z"/>
<path style="fill:#b6c8cc; stroke:none;" d="M119.333 81.6667L119.667 82.3333L119.333 81.6667z"/>
<path style="fill:#2f4a5e; stroke:none;" d="M133 95L133 86L135 87C132.393 82.9394 122.174 79.8007 124.662 87.9105C125.749 91.4531 129.96 93.4845 133 95z"/>
<path style="fill:#9f649a; stroke:none;" d="M206 81L205 83L207 83L206 81M177 82L178 83L177 82z"/>
<path style="fill:#b6c8cc; stroke:none;" d="M178 82L179 83L178 82z"/>
<path style="fill:#5aa4b1; stroke:none;" d="M194.667 82.3333L195.333 82.6667L194.667 82.3333z"/>
<path style="fill:#9f649a; stroke:none;" d="M196 82L198 87L199 87L196 82z"/>
<path style="fill:#aa9173; stroke:none;" d="M4 83L3 87L4 87L4 83z"/>
<path style="fill:#9f649a; stroke:none;" d="M66 83L68 87L66 83z"/>
<path style="fill:#aa9173; stroke:none;" d="M123.333 83.6667L123.667 84.3333L123.333 83.6667z"/>
<path style="fill:#b6c8cc; stroke:none;" d="M195 83L196 84L195 83M28 84L27 88L31 89L30 84L28 84M161 84L159 90C161.555 88.3502 162.098 86.8804 161 84z"/>
<path style="fill:#aa9173; stroke:none;" d="M162 84L163 85L162 84z"/>
<path style="fill:#9f649a; stroke:none;" d="M177 84L178 85L177 84M193 84L194 85L193 84z"/>
<path style="fill:#5aa4b1; stroke:none;" d="M196 84L197 89L198 89L196 84z"/>
<path style="fill:#b6c8cc; stroke:none;" d="M2 85L3 86L2 85M14 85C16.5482 90.0151 22.641 92.9667 28 94C25.2501 88.3603 20.2002 85.3388 14 85z"/>
<path style="fill:#5aa4b1; stroke:none;" d="M162 85L163 86L162 85z"/>
<path style="fill:#9f649a; stroke:none;" d="M5 86L5 101L0 100L0 101L7 102L5 86M9 86L15 90L9 86M133 86L136 90L136 86L133 86z"/>
<path style="fill:#aa9173; stroke:none;" d="M162 86L163 87L162 86z"/>
<path style="fill:#9f649a; stroke:none;" d="M206 86L207 87L206 86z"/>
<path style="fill:#aa9173; stroke:none;" d="M67 87L68 88L67 87M198 87L199 88L198 87M13 88L14 89L13 88z"/>
<path style="fill:#9f649a; stroke:none;" d="M66.3333 88.6667L66.6667 89.3333L66.3333 88.6667z"/>
<path style="fill:#aa9173; stroke:none;" d="M145 88L146 89L145 88z"/>
<path style="fill:#5aa4b1; stroke:none;" d="M152.667 88.3333L153.333 88.6667L152.667 88.3333z"/>
<path style="fill:#aa9173; stroke:none;" d="M180 88L181 89L180 88z"/>
<path style="fill:#9f649a; stroke:none;" d="M181 88L182 89L181 88z"/>
<path style="fill:#b6c8cc; stroke:none;" d="M198 88L198 105L199 105L198 88z"/>
<path style="fill:#9f649a; stroke:none;" d="M206 88L207 89L206 88z"/>
<path style="fill:#aa9173; stroke:none;" d="M9 89L11 91L9 89z"/>
<path style="fill:#2f4a5e; stroke:none;" d="M15 89C17.5386 97.5659 23.2072 103.852 32 99L32 97L15 89z"/>
<path style="fill:#5aa4b1; stroke:none;" d="M17 89L18 90L17 89z"/>
<path style="fill:#b6c8cc; stroke:none;" d="M58 89L63 93L58 89z"/>
<path style="fill:#2f4a5e; stroke:none;" d="M67.3333 89.6667L67.6667 90.3333L67.3333 89.6667z"/>
<path style="fill:#aa9173; stroke:none;" d="M136 89L135 90L137 92L136 96L140 95L138 93L140 91L138 89L136 89z"/>
<path style="fill:#b6c8cc; stroke:none;" d="M157 89L156 96L157 89z"/>
<path style="fill:#aa9173; stroke:none;" d="M178 89L179 90L178 89z"/>
<path style="fill:#9f649a; stroke:none;" d="M199 89L199 102C206.149 102.701 206.98 95.6576 207 90L206 90L205 93L204 93L203 89L202 89L201 94L200 94L199 89z"/>
<path style="fill:#5aa4b1; stroke:none;" d="M19 90L20 91L19 90z"/>
<path style="fill:#b6c8cc; stroke:none;" d="M65 90L66 91L65 90M75 90L76 91L75 90M138 90L139 91L138 90z"/>
<path style="fill:#2f4a5e; stroke:none;" d="M158 90L159 91L158 90z"/>
<path style="fill:#9f649a; stroke:none;" d="M188 91L188 92L191 92L191 91L188 91z"/>
<path style="fill:#aa9173; stroke:none;" d="M12 91L12 96L16 97L12 91z"/>
<path style="fill:#5aa4b1; stroke:none;" d="M21 91L22 92L21 91z"/>
<path style="fill:#2f4a5e; stroke:none;" d="M64 91C63.2279 95.2274 62.5517 98.2105 67 100L67 99L65 97C68.6135 96.4148 65.8168 92.5948 64 91z"/>
<path style="fill:#9f649a; stroke:none;" d="M134 91L136 96L137 92L134 91z"/>
<path style="fill:#2f4a5e; stroke:none;" d="M179.667 91.3333L180.333 91.6667L179.667 91.3333z"/>
<path style="fill:#aa9173; stroke:none;" d="M189 91L190 92L189 91z"/>
<path style="fill:#5aa4b1; stroke:none;" d="M22 92L23 93L22 92z"/>
<path style="fill:#2f4a5e; stroke:none;" d="M57 92L59 95L57 92z"/>
<path style="fill:#9f649a; stroke:none;" d="M65 92L66 93L65 92z"/>
<path style="fill:#2f4a5e; stroke:none;" d="M135 92L136 93L135 92z"/>
<path style="fill:#5aa4b1; stroke:none;" d="M193 92C186.342 100.981 179.237 108.215 169 113L169 114L176 120L174 119L174 120L173 124L177 124L176 122L176 121L177 121L179 122L178 129C187.892 122.032 198.167 104.668 193 92M24 93L25 94L24 93z"/>
<path style="fill:#9f649a; stroke:none;" d="M78 93L79 94L78 93z"/>
<path style="fill:#b6c8cc; stroke:none;" d="M95 93L93 98L94 98L95 93M102 93L101 101L102 101L102 93z"/>
<path style="fill:#9f649a; stroke:none;" d="M138 93L139 94L138 93z"/>
<path style="fill:#b6c8cc; stroke:none;" d="M139.667 93.3333L140.333 93.6667L139.667 93.3333z"/>
<path style="fill:#5aa4b1; stroke:none;" d="M152 93L153 95L154 95L155 93L152 93z"/>
<path style="fill:#b6c8cc; stroke:none;" d="M9 94L10 96L11 96L12 94L9 94z"/>
<path style="fill:#2f4a5e; stroke:none;" d="M33 94L33 97L35 97L35 94L33 94z"/>
<path style="fill:#b6c8cc; stroke:none;" d="M75 94L75 96L77 96L77 94L75 94z"/>
<path style="fill:#aa9173; stroke:none;" d="M82 94L83 95L82 94M179 94L180 95L179 94z"/>
<path style="fill:#b6c8cc; stroke:none;" d="M179 95L179 96L186 96L179 95z"/>
<path style="fill:#5aa4b1; stroke:none;" d="M185 94C185 97.7802 179.654 95.4889 177 95L182 97L177 99L177 104L188 95L185 94M197 94L196 108L204 105L204 104C201.151 103.25 199.438 101.383 199 105L198 105L197 94z"/>
<path style="fill:#9f649a; stroke:none;" d="M79 95L79 100L80 100L79 95z"/>
<path style="fill:#b6c8cc; stroke:none;" d="M82 95L78 103C80.8027 100.891 84.2272 98.4822 82 95z"/>
<path style="fill:#5aa4b1; stroke:none;" d="M100.333 95.6667L100.667 96.3333L100.333 95.6667z"/>
<path style="fill:#b6c8cc; stroke:none;" d="M138 95L137 97L139 97L138 95z"/>
<path style="fill:#9f649a; stroke:none;" d="M159.333 95.6667L159.667 96.3333L159.333 95.6667z"/>
<path style="fill:#2f4a5e; stroke:none;" d="M204 95L203 98L203 99L204 95z"/>
<path style="fill:#b6c8cc; stroke:none;" d="M3 112L0 115L0 116L5 116L5 117L3 117L3 118L6 119L7 122L4 123L0 120L2 124L0 127C7.39196 129.91 12.9746 131.911 21 130L21 128L18 127C24.2327 124.37 31.5 124.219 38 126L38 127L33 128L33 129L40 127L43 118L35 122L35 121L37 120L33 117L38 117L38 116L28 115L28 114L42 116L37 106L34 107L35 105L34 105L33 109L24 108C23.1625 105.418 22.0024 104.204 19.9954 102.334C18.8565 101.273 17.8048 100.164 16.7099 99.0617C13.1794 95.508 9.56866 96.9639 8.86497 102.012C8.04923 107.863 12.2031 113.937 3 112z"/>
<path style="fill:#aa9173; stroke:none;" d="M78 96L79 97L78 96M80.3333 96.6667L80.6667 97.3333L80.3333 96.6667z"/>
<path style="fill:#9f649a; stroke:none;" d="M136 96L137 97L136 96z"/>
<path style="fill:#b6c8cc; stroke:none;" d="M149 96L148 101L151 96L149 96M154.667 96.3333L155.333 96.6667L154.667 96.3333z"/>
<path style="fill:#aa9173; stroke:none;" d="M202 96L201 99L202 99L202 96z"/>
<path style="fill:#9f649a; stroke:none;" d="M65 97L65 99L67 99L65 97z"/>
<path style="fill:#2f4a5e; stroke:none;" d="M77 97L77 99L79 99L77 97z"/>
<path style="fill:#b6c8cc; stroke:none;" d="M177 97L178 100L182 97L177 97z"/>
<path style="fill:#aa9173; stroke:none;" d="M199 97L199 101L200 101L199 97M4 98L5 99L4 98z"/>
<path style="fill:#5aa4b1; stroke:none;" d="M11 98L10 103L11 103L11 101L12 101L15 104L13 98L11 98z"/>
<path style="fill:#aa9173; stroke:none;" d="M13 98L14 99L13 98z"/>
<path style="fill:#5aa4b1; stroke:none;" d="M82 98L83 99L82 98z"/>
<path style="fill:#2f4a5e; stroke:none;" d="M139 98L140 99L139 98M206 98L204 101C206.251 100.527 207.118 100.14 206 98z"/>
<path style="fill:#9f649a; stroke:none;" d="M31 99L32 100L31 99z"/>
<path style="fill:#2f4a5e; stroke:none;" d="M48 99L49 100L48 99z"/>
<path style="fill:#aa9173; stroke:none;" d="M1 100L2 101L1 100z"/>
<path style="fill:#9f649a; stroke:none;" d="M29 100L30 101L29 100z"/>
<path style="fill:#aa9173; stroke:none;" d="M78.6667 100.333L79.3333 100.667L78.6667 100.333M81 100L82 101L81 100z"/>
<path style="fill:#2f4a5e; stroke:none;" d="M202 100L203 101L202 100z"/>
<path style="fill:#aa9173; stroke:none;" d="M0 101L3 103L3 102L0 101z"/>
<path style="fill:#9f649a; stroke:none;" d="M27.6667 101.333L28.3333 101.667L27.6667 101.333z"/>
<path style="fill:#aa9173; stroke:none;" d="M80 101L81 102L80 101z"/>
<path style="fill:#2f4a5e; stroke:none;" d="M147 101L148 102L147 101z"/>
<path style="fill:#5aa4b1; stroke:none;" d="M204 101L205 102L204 101z"/>
<path style="fill:#b6c8cc; stroke:none;" d="M201 103L201 104L207 101L201 103z"/>
<path style="fill:#5aa4b1; stroke:none;" d="M0 102L8 109L0 102z"/>
<path style="fill:#b6c8cc; stroke:none;" d="M3 102L4 103L3 102z"/>
<path style="fill:#aa9173; stroke:none;" d="M4 102L4 103L8 104L8 105L4 105L4 106L9 107L8 112L0 111L1 115L2 115L3 112C12.5493 114.735 11.0819 104.127 4 102z"/>
<path style="fill:#2f4a5e; stroke:none;" d="M39 102L40 105L41 105L41 102L39 102M45 102L45 103L49 112L54 111L54 112L42 116L42 117L48 123L45 122L44 128L50 128C46.9439 138.24 42.5787 144.08 35 152L36 162L35 162L34 159L30 159C25.0624 161.952 23.0805 161.21 23 168L14 170L14 171L23 171L24 171L25 168L28 169L28 170L25 171L27 174L20 181L0 185L0 207L91 207L86 186L92 182L91 182L84 184C85.682 188.94 92.102 198.473 88.9329 203.682C86.1373 208.278 72.5245 205.805 68 205.285C56.2666 203.938 43.2085 208.682 31.5756 204.846C26.9889 203.334 23.5173 198.987 19 197L19 195L32 192L32 191L9 190L9 189C19.4517 188.971 27.7787 185.364 36 179L35 185L39 184L36 192L38 191L38 192L31 202L37 203L37 202L33 202L42 187L43 192C47.4516 188.586 41.2671 180.939 41 176L40 176L37 184L39 174L34 178L38.4005 165L39.5718 151L49 137L52 139C50.6316 131.629 51.602 126.651 55 120L49 123L54 117L47 117L47 116L66 109L66 108L50 107C49.272 103.649 48.403 102.588 45 102z"/>
<path style="fill:#9f649a; stroke:none;" d="M77 102L78 103L77 102z"/>
<path style="fill:#aa9173; stroke:none;" d="M79 102L80 103L79 102z"/>
<path style="fill:#b6c8cc; stroke:none;" d="M146 102L147 103L146 102z"/>
<path style="fill:#9f649a; stroke:none;" d="M154 102L155 103L154 102M1 103L1 104L8 105L1 103z"/>
<path style="fill:#5aa4b1; stroke:none;" d="M69 103L70 104L69 103z"/>
<path style="fill:#b6c8cc; stroke:none;" d="M147 103L148 104L147 103z"/>
<path style="fill:#5aa4b1; stroke:none;" d="M205.667 103.333L206.333 103.667L205.667 103.333z"/>
<path style="fill:#aa9173; stroke:none;" d="M22 104L23 105L22 104z"/>
<path style="fill:#9f649a; stroke:none;" d="M47 104L48 105L47 104z"/>
<path style="fill:#5aa4b1; stroke:none;" d="M65.6667 104.333L66.3333 104.667L65.6667 104.333z"/>
<path style="fill:#2f4a5e; stroke:none;" d="M86 104L84 107L86 104M0 105L0 107L2 107L0 105z"/>
<path style="fill:#9f649a; stroke:none;" d="M1 105L2 106L1 105z"/>
<path style="fill:#aa9173; stroke:none;" d="M29 105L32 107L29 105M37.3333 105.667L37.6667 106.333L37.3333 105.667M77 105L78 106L77 105z"/>
<path style="fill:#9f649a; stroke:none;" d="M0 107L0 108L9 110L9 109L3 106L0 107M5.66667 106.333L6.33333 106.667L5.66667 106.333z"/>
<path style="fill:#aa9173; stroke:none;" d="M24 106L25 107L24 106M27 106L28 107L27 106z"/>
<path style="fill:#9f649a; stroke:none;" d="M48 106L49 107L48 106M142 106L143 107L142 106z"/>
<path style="fill:#aa9173; stroke:none;" d="M143 106L142 108L143 106z"/>
<path style="fill:#2f4a5e; stroke:none;" d="M3.66667 107.333L4.33333 107.667L3.66667 107.333z"/>
<path style="fill:#9f649a; stroke:none;" d="M8 107L9 108L8 107z"/>
<path style="fill:#b6c8cc; stroke:none;" d="M29 107L30 108L29 107z"/>
<path style="fill:#5aa4b1; stroke:none;" d="M30 109L33 107L30 109z"/>
<path style="fill:#2f4a5e; stroke:none;" d="M41 107L42 108L41 107z"/>
<path style="fill:#5aa4b1; stroke:none;" d="M143 107L144 115L149 114L149 113L143 107z"/>
<path style="fill:#b6c8cc; stroke:none;" d="M150 107L151 108L150 107z"/>
<path style="fill:#5aa4b1; stroke:none;" d="M0 108L1 112L9 111L0 108z"/>
<path style="fill:#aa9173; stroke:none;" d="M11 108L12 109L11 108M29 108L30 109L29 108M32 108L33 109L32 108z"/>
<path style="fill:#5aa4b1; stroke:none;" d="M145 108L146 109L145 108M150 108L151 109L150 108M57 109L58 110L57 109z"/>
<path style="fill:#aa9173; stroke:none;" d="M142.333 109.667L142.667 110.333L142.333 109.667z"/>
<path style="fill:#9f649a; stroke:none;" d="M146 109L147 110L146 109z"/>
<path style="fill:#5aa4b1; stroke:none;" d="M149 109L150 110L149 109z"/>
<path style="fill:#9f649a; stroke:none;" d="M80 110L81 111L80 110M147.667 110.333L148.333 110.667L147.667 110.333M204 110L206 114L205 118L207 110L204 110z"/>
<path style="fill:#b6c8cc; stroke:none;" d="M78 111L80 117L81 117L81 111L78 111z"/>
<path style="fill:#aa9173; stroke:none;" d="M79 111L80 112L79 111z"/>
<path style="fill:#9f649a; stroke:none;" d="M136.333 111.667L136.667 112.333L136.333 111.667z"/>
<path style="fill:#b6c8cc; stroke:none;" d="M137.333 111.667L137.667 112.333L137.333 111.667z"/>
<path style="fill:#5aa4b1; stroke:none;" d="M0 112L0 115L2 114L2 113L0 112M80 112L81 113L80 112M125 112L126 122C133.733 119.836 130.841 114.602 125 112z"/>
<path style="fill:#aa9173; stroke:none;" d="M138 112L137 114L138 112z"/>
<path style="fill:#5aa4b1; stroke:none;" d="M201 112L202 113L201 112z"/>
<path style="fill:#b6c8cc; stroke:none;" d="M59 125L67 113C60.8629 114.249 57.49 118.801 59 125z"/>
<path style="fill:#aa9173; stroke:none;" d="M79 113L80 114L79 113z"/>
<path style="fill:#5aa4b1; stroke:none;" d="M138.667 113.333L139.333 113.667L138.667 113.333z"/>
<path style="fill:#9f649a; stroke:none;" d="M139 115L142 114L139 115z"/>
<path style="fill:#5aa4b1; stroke:none;" d="M142 118L144 115L143 114L133 124L131 140L149 133.905L173 141L172 130L176 133C174.937 127.951 167.433 119.756 171 115C160.572 111.695 151.928 114.17 142 118z"/>
<path style="fill:#b6c8cc; stroke:none;" d="M136 114L136 115L138 117L142 114L136 114z"/>
<path style="fill:#5aa4b1; stroke:none;" d="M196 120C196 122.826 197.142 122.791 200 123L200 124L193 125L194 130L195 130L200 126L199 131L207 129L207 128L204 128L204 127L207 127L207 123L201 124L204 114C202.133 114.375 189.917 119.001 196 120z"/>
<path style="fill:#aa9173; stroke:none;" d="M205 114L204 116L205 114M136 115L138 118L135 117L139 118L136 115z"/>
<path style="fill:#2f4a5e; stroke:none;" d="M159 118L168 116C164.539 114.562 161.22 114.858 159 118z"/>
<path style="fill:#9f649a; stroke:none;" d="M194 115L195 116L194 115z"/>
<path style="fill:#b6c8cc; stroke:none;" d="M205 115L206 116L205 115z"/>
<path style="fill:#5aa4b1; stroke:none;" d="M0 116L0 120L7 122L3 118L3 117L5 117L0 116z"/>
<path style="fill:#2f4a5e; stroke:none;" d="M54 116L55 117L54 116z"/>
<path style="fill:#9f649a; stroke:none;" d="M84 116L85 117L84 116z"/>
<path style="fill:#2f4a5e; stroke:none;" d="M96.3333 116.667L96.6667 117.333L96.3333 116.667z"/>
<path style="fill:#5aa4b1; stroke:none;" d="M171 116L171 118L173 118L171 116z"/>
<path style="fill:#2f4a5e; stroke:none;" d="M204 116L201 124L207 123L204 116M76 117L75 119L76 117z"/>
<path style="fill:#aa9173; stroke:none;" d="M80 117L81 118L80 117M81 120L82 120C82.6534 118.04 83 117.446 83 120L84 120L83 117L81 120z"/>
<path style="fill:#b6c8cc; stroke:none;" d="M83 117L84 118L83 117M132 117L131 120L132 117M136 117L137 118L136 117z"/>
<path style="fill:#5aa4b1; stroke:none;" d="M137 117L138 118L137 117z"/>
<path style="fill:#9f649a; stroke:none;" d="M139 117L140 118L139 117z"/>
<path style="fill:#b6c8cc; stroke:none;" d="M155 117L155 118L158 118L155 117M170 117L175 121L170 117z"/>
<path style="fill:#5aa4b1; stroke:none;" d="M48 118L50 120L48 118z"/>
<path style="fill:#b6c8cc; stroke:none;" d="M82 118L82 121L83 121L82 118z"/>
<path style="fill:#aa9173; stroke:none;" d="M133 118L134 119L133 118z"/>
<path style="fill:#b6c8cc; stroke:none;" d="M138 118L135 122L124 124L124 125L129 127L125 128L125 129C130.072 128.889 138.123 123.515 138 118z"/>
<path style="fill:#2f4a5e; stroke:none;" d="M55 119L56 120L55 119z"/>
<path style="fill:#5aa4b1; stroke:none;" d="M120 119L121 123C114.158 120.854 112.21 122.303 110 129C115.235 127.905 123.172 126.567 125 121L120 119M133.333 119.667L133.667 120.333L133.333 119.667z"/>
<path style="fill:#aa9173; stroke:none;" d="M33 120L34 121L33 120z"/>
<path style="fill:#5aa4b1; stroke:none;" d="M89 120L90 121L89 120z"/>
<path style="fill:#b6c8cc; stroke:none;" d="M114 120L115 121L114 120z"/>
<path style="fill:#aa9173; stroke:none;" d="M131.667 120.333L132.333 120.667L131.667 120.333z"/>
<path style="fill:#9f649a; stroke:none;" d="M193 120L194 121L193 120z"/>
<path style="fill:#aa9173; stroke:none;" d="M35 121L36 122L35 121M82 121L83 122L82 121z"/>
<path style="fill:#b6c8cc; stroke:none;" d="M86 124L85 124L85 122L84 122L89 129L88 125L89 125L92 127C91.1953 123.924 87.2376 118.254 86 124z"/>
<path style="fill:#aa9173; stroke:none;" d="M89 121L90 122L89 121M137 121L138 122L137 121z"/>
<path style="fill:#5aa4b1; stroke:none;" d="M38 122L37 125L38 125L38 122z"/>
<path style="fill:#aa9173; stroke:none;" d="M85.3333 122.667L85.6667 123.333L85.3333 122.667z"/>
<path style="fill:#5aa4b1; stroke:none;" d="M90 122L91 123L90 122z"/>
<path style="fill:#9f649a; stroke:none;" d="M126 122L127 123L126 122z"/>
<path style="fill:#5aa4b1; stroke:none;" d="M129 122L132 124L129 122z"/>
<path style="fill:#aa9173; stroke:none;" d="M131 122L131 123L134 123L131 122M136 122L137 123L136 122z"/>
<path style="fill:#9f649a; stroke:none;" d="M195 122L196 123L195 122z"/>
<path style="fill:#5aa4b1; stroke:none;" d="M0 123L0 125L2 123L0 123M87 123L86 125L87 123z"/>
<path style="fill:#9f649a; stroke:none;" d="M88 123L89 124L88 123z"/>
<path style="fill:#5aa4b1; stroke:none;" d="M104 123L100 129L107 127L104 123M190 123L176 142L188 140L188 134L190 135L190 123M21 125L21 126L38 127C33.4856 123.127 26.6383 124.999 21 125z"/>
<path style="fill:#aa9173; stroke:none;" d="M87 124L88 125L87 124z"/>
<path style="fill:#5aa4b1; stroke:none;" d="M91 124L92 125L91 124M95 124L93 128L97 128L95 124z"/>
<path style="fill:#9f649a; stroke:none;" d="M126 124L125 126L126 124z"/>
<path style="fill:#aa9173; stroke:none;" d="M128 124L128 125L132 125L128 124M84 125L87 128L84 125M86 125L87 126L86 125M88 125L88 128L89 128L88 125z"/>
<path style="fill:#2f4a5e; stroke:none;" d="M120 125L121 126L120 125z"/>
<path style="fill:#aa9173; stroke:none;" d="M121 125L121 126L125 126L121 125z"/>
<path style="fill:#5aa4b1; stroke:none;" d="M126 125L127 128L128 128L126 125z"/>
<path style="fill:#aa9173; stroke:none;" d="M127 125L128 126L127 125z"/>
<path style="fill:#9f649a; stroke:none;" d="M201.667 125.333L202.333 125.667L201.667 125.333z"/>
<path style="fill:#2f4a5e; stroke:none;" d="M205 125L206 126L205 125z"/>
<path style="fill:#5aa4b1; stroke:none;" d="M18 126L18 127L21 128L21 130L9 132L0 127L0 138L5 137L5 138L0 142L12 140L10 138L23 135L22 132L30 132L30 131L18 126z"/>
<path style="fill:#9f649a; stroke:none;" d="M20 126L21 127L20 126z"/>
<path style="fill:#2f4a5e; stroke:none;" d="M21 126C24.3942 132.541 30.7897 129.88 36 127L21 126M84 126L85 127L84 126M90.3333 126.667L90.6667 127.333L90.3333 126.667z"/>
<path style="fill:#aa9173; stroke:none;" d="M118.667 126.333L119.333 126.667L118.667 126.333z"/>
<path style="fill:#b6c8cc; stroke:none;" d="M117 127L117 128L120 131L115 128L116 132L121 133L125 131L125 130L122 127L126 127L117 127z"/>
<path style="fill:#aa9173; stroke:none;" d="M126 126L123 130L126 126M128 126L129 127L128 126z"/>
<path style="fill:#2f4a5e; stroke:none;" d="M85 127L86 128L85 127z"/>
<path style="fill:#5aa4b1; stroke:none;" d="M89 127L90 128L89 127z"/>
<path style="fill:#aa9173; stroke:none;" d="M91 127L90 132L96 133L96 128L91 127z"/>
<path style="fill:#9f649a; stroke:none;" d="M92 127L93 128L92 127z"/>
<path style="fill:#aa9173; stroke:none;" d="M116 127L116 129L118 129L116 127z"/>
<path style="fill:#5aa4b1; stroke:none;" d="M122.667 127.333L123.333 127.667L122.667 127.333z"/>
<path style="fill:#9f649a; stroke:none;" d="M126 127L127 128L126 127z"/>
<path style="fill:#5aa4b1; stroke:none;" d="M130 127L127 130L128 134L129 134L130 127z"/>
<path style="fill:#9f649a; stroke:none;" d="M202 127L203 128L202 127z"/>
<path style="fill:#2f4a5e; stroke:none;" d="M204 127L204 128L207 128L204 127z"/>
<path style="fill:#9f649a; stroke:none;" d="M89 128L90 129L89 128z"/>
<path style="fill:#b6c8cc; stroke:none;" d="M90 128L90 131L91 131L92 128L90 128M94 128L95 129L94 128M96 128L94 130L96 133L93 131L92 132L96 136L99 134L96 140L98 137L92 140L89 139L86 144L90 144L89 141L100 143L98 146L102 148L102 142L99 139C102.92 139.092 105.04 137.373 107 134L116 134L116 133L112 133L112 132L114 128L111 129L112 134L108 134L110 130L109 129C105.174 129.841 98.6384 127.869 99 133L96 128z"/>
<path style="fill:#5aa4b1; stroke:none;" d="M105 129L105 130L109 129L105 129z"/>
<path style="fill:#aa9173; stroke:none;" d="M112 128L113 129L112 128M114 128L113 130L115 130L114 128z"/>
<path style="fill:#5aa4b1; stroke:none;" d="M118 128L120 131L118 128z"/>
<path style="fill:#aa9173; stroke:none;" d="M120 128L122 130L120 128z"/>
<path style="fill:#9f649a; stroke:none;" d="M123 128L124 129L123 128z"/>
<path style="fill:#aa9173; stroke:none;" d="M129 128L130 129L129 128z"/>
<path style="fill:#5aa4b1; stroke:none;" d="M9 129L9 130L19 130L9 129z"/>
<path style="fill:#2f4a5e; stroke:none;" d="M33 132L22 132L23 135C19.645 135.758 10.3362 135.538 12 140C-2.21506 141.536 0 148.41 0 161L21 154L23 155L35 150L33 151L33 150C32.6219 141.096 37.8162 142.84 43 137L36 132L46 133C44.2511 127.731 36.2704 128.199 33 132M84 129L84 130L90 131L84 129z"/>
<path style="fill:#aa9173; stroke:none;" d="M88.6667 129.333L89.3333 129.667L88.6667 129.333z"/>
<path style="fill:#b6c8cc; stroke:none;" d="M92 129L93 130L92 129z"/>
<path style="fill:#2f4a5e; stroke:none;" d="M93 129L94 130L93 129z"/>
<path style="fill:#aa9173; stroke:none;" d="M100 129L101 130L100 129z"/>
<path style="fill:#9f649a; stroke:none;" d="M104 129L105 130L104 129z"/>
<path style="fill:#aa9173; stroke:none;" d="M109.667 129.333L110.333 129.667L109.667 129.333M119 129L120 130L119 129z"/>
<path style="fill:#9f649a; stroke:none;" d="M125 129L126 130L125 129z"/>
<path style="fill:#aa9173; stroke:none;" d="M126 129L127 130L126 129z"/>
<path style="fill:#9f649a; stroke:none;" d="M201.667 129.333L202.333 129.667L201.667 129.333z"/>
<path style="fill:#2f4a5e; stroke:none;" d="M203 129L203 130L207 130L203 129M21 130L22 131L21 130z"/>
<path style="fill:#b6c8cc; stroke:none;" d="M28 130L28 131L32 131L28 130M84 130L85 131L84 130z"/>
<path style="fill:#5aa4b1; stroke:none;" d="M92 130L93 131L92 130z"/>
<path style="fill:#aa9173; stroke:none;" d="M108 130L109 131L108 130z"/>
<path style="fill:#9f649a; stroke:none;" d="M110 130L111 131L110 130z"/>
<path style="fill:#5aa4b1; stroke:none;" d="M114 130L115 131L114 130z"/>
<path style="fill:#9f649a; stroke:none;" d="M115 130L116 131L115 130z"/>
<path style="fill:#aa9173; stroke:none;" d="M116 130L117 131L116 130M118 130L119 131L118 130z"/>
<path style="fill:#5aa4b1; stroke:none;" d="M125 130C119.268 133.215 112.921 133.262 107.005 135.728C99.9488 138.668 101.568 148.12 108.058 150.851C120.572 156.116 134.149 141.094 125 130z"/>
<path style="fill:#9f649a; stroke:none;" d="M194 130L194 131L197 131L194 130z"/>
<path style="fill:#b6c8cc; stroke:none;" d="M200.667 130.333L201.333 130.667L200.667 130.333z"/>
<path style="fill:#aa9173; stroke:none;" d="M202 130L203 131L202 130z"/>
<path style="fill:#b6c8cc; stroke:none;" d="M203 130L204 131L203 130z"/>
<path style="fill:#aa9173; stroke:none;" d="M204 130L205 131L204 130z"/>
<path style="fill:#b6c8cc; stroke:none;" d="M205.667 130.333L206.333 130.667L205.667 130.333z"/>
<path style="fill:#2f4a5e; stroke:none;" d="M9.66667 131.333L10.3333 131.667L9.66667 131.333z"/>
<path style="fill:#b6c8cc; stroke:none;" d="M23.6667 131.333L24.3333 131.667L23.6667 131.333M85 131L87 133L85 131M91 131L92 132L91 131z"/>
<path style="fill:#aa9173; stroke:none;" d="M97 131L97 133L99 133L97 131z"/>
<path style="fill:#2f4a5e; stroke:none;" d="M100.667 131.333L101.333 131.667L100.667 131.333z"/>
<path style="fill:#aa9173; stroke:none;" d="M102 131L103 132L102 131z"/>
<path style="fill:#5aa4b1; stroke:none;" d="M105 131L105 134L106 134L105 131z"/>
<path style="fill:#aa9173; stroke:none;" d="M106 131L107 132L106 131z"/>
<path style="fill:#5aa4b1; stroke:none;" d="M109 131L111 133L111 131L109 131z"/>
<path style="fill:#aa9173; stroke:none;" d="M111 131L112 132L111 131M112 132L112 133L118 133L112 132M120 131L120 132L123 132L120 131z"/>
<path style="fill:#9f649a; stroke:none;" d="M204 131L204 132L207 132L204 131z"/>
<path style="fill:#b6c8cc; stroke:none;" d="M14 132L14 133L19 133L14 132M48 132L49 133L48 132z"/>
<path style="fill:#aa9173; stroke:none;" d="M100 132L99 134L100 132z"/>
<path style="fill:#5aa4b1; stroke:none;" d="M101 132L100 134L102 134L101 132z"/>
<path style="fill:#9f649a; stroke:none;" d="M106.667 132.333L107.333 132.667L106.667 132.333z"/>
<path style="fill:#aa9173; stroke:none;" d="M108 133L108 134L112 134L108 133z"/>
<path style="fill:#5aa4b1; stroke:none;" d="M198 132L199 133L198 132z"/>
<path style="fill:#b6c8cc; stroke:none;" d="M21 133L22 134L21 133M88 133L89 134L88 133z"/>
<path style="fill:#aa9173; stroke:none;" d="M103.667 133.333L104.333 133.667L103.667 133.333M106 133L107 134L106 133z"/>
<path style="fill:#5aa4b1; stroke:none;" d="M201 137L207 137L207 136L202 135L202 134L205 134L201 137z"/>
<path style="fill:#9f649a; stroke:none;" d="M205.667 133.333L206.333 133.667L205.667 133.333z"/>
<path style="fill:#b6c8cc; stroke:none;" d="M4 134L4 135L9 135L4 134z"/>
<path style="fill:#2f4a5e; stroke:none;" d="M11 134L11 135L14 135L11 134z"/>
<path style="fill:#b6c8cc; stroke:none;" d="M18.6667 134.333L19.3333 134.667L18.6667 134.333z"/>
<path style="fill:#2f4a5e; stroke:none;" d="M94.3333 134.667L94.6667 135.333L94.3333 134.667z"/>
<path style="fill:#aa9173; stroke:none;" d="M97.6667 134.333L98.3333 134.667L97.6667 134.333M107 134L108 135L107 134M112 134L113 135L112 134z"/>
<path style="fill:#5aa4b1; stroke:none;" d="M193 134L194 135L193 134z"/>
<path style="fill:#9f649a; stroke:none;" d="M194 134L195 135L194 134z"/>
<path style="fill:#5aa4b1; stroke:none;" d="M196 134L197 135L196 134z"/>
<path style="fill:#b6c8cc; stroke:none;" d="M202 134L202 135L207 136L202 134z"/>
<path style="fill:#5aa4b1; stroke:none;" d="M206 134L207 135L206 134z"/>
<path style="fill:#b6c8cc; stroke:none;" d="M1 135L2 136L1 135z"/>
<path style="fill:#aa9173; stroke:none;" d="M95 135L98 137L98 136L95 135z"/>
<path style="fill:#9f649a; stroke:none;" d="M97 135L98 136L97 135z"/>
<path style="fill:#2f4a5e; stroke:none;" d="M98 135L99 136L98 135z"/>
<path style="fill:#5aa4b1; stroke:none;" d="M99 135L97 139L99 135z"/>
<path style="fill:#aa9173; stroke:none;" d="M102.667 135.333L103.333 135.667L102.667 135.333z"/>
<path style="fill:#2f4a5e; stroke:none;" d="M5.66667 136.333L6.33333 136.667L5.66667 136.333z"/>
<path style="fill:#9f649a; stroke:none;" d="M42 136L43 137L42 136M48 136L49 137L48 136M95 136L96 137L95 136z"/>
<path style="fill:#5aa4b1; stroke:none;" d="M102 136L103 137L102 136M118 153L133 161C125.472 156.831 119.662 155.006 111 155L111 156C117.137 156.268 121.396 157.905 126 162L101 153L110 155L110 154C94.955 151.654 87.1485 141.301 73 154L73 155C76.3278 157.618 80.6021 158.483 83.7145 161.264C96.0442 172.279 104.104 190.556 123 191L123 192C119.048 192.301 117.178 193.118 116 197L122 194L123 199L124 199L128 195L128 191L129 191L131 196L142 184L141 186C147.072 182.48 151.2 177.406 154 171L139 165L139 164C149.419 167.39 158.111 169.682 169 167L169 166L146 157L146 156C161.705 156.335 172.84 169.111 189 161L189 160L172 154L175 159L170 159C170.428 149.804 162.615 145.207 154 145L154 144L179 153L179 154L177 154L177 155L179 152C187.067 149.966 193.276 145.441 197 138C189.09 140.874 182.723 145.053 174 143L175 147L170 146L172 143C156.527 132.725 142.617 136.558 128 145.999C124.603 148.193 120.284 149.649 118 153z"/>
<path style="fill:#2f4a5e; stroke:none;" d="M0 141L5 138C2.09167 137.199 0.958012 138.251 0 141z"/>
<path style="fill:#9f649a; stroke:none;" d="M43 137L44 138L43 137z"/>
<path style="fill:#aa9173; stroke:none;" d="M94 137L95 138L94 137z"/>
<path style="fill:#2f4a5e; stroke:none;" d="M95.6667 137.333L96.3333 137.667L95.6667 137.333z"/>
<path style="fill:#9f649a; stroke:none;" d="M41.3333 138.667L41.6667 139.333L41.3333 138.667z"/>
<path style="fill:#aa9173; stroke:none;" d="M46 138L47 139L46 138z"/>
<path style="fill:#9f649a; stroke:none;" d="M47 138L48 139L47 138z"/>
<path style="fill:#2f4a5e; stroke:none;" d="M8.66667 139.333L9.33333 139.667L8.66667 139.333z"/>
<path style="fill:#9f649a; stroke:none;" d="M43 139L43 140L47 140L43 139z"/>
<path style="fill:#2f4a5e; stroke:none;" d="M52 139L54 141L52 139z"/>
<path style="fill:#aa9173; stroke:none;" d="M90.6667 139.333L91.3333 139.667L90.6667 139.333M96.6667 139.333L97.3333 139.667L96.6667 139.333z"/>
<path style="fill:#5aa4b1; stroke:none;" d="M99 139L100 140L99 139z"/>
<path style="fill:#2f4a5e; stroke:none;" d="M4 140L5 141L4 140z"/>
<path style="fill:#5aa4b1; stroke:none;" d="M30 140L28 143L30 140z"/>
<path style="fill:#9f649a; stroke:none;" d="M39.6667 140.333L40.3333 140.667L39.6667 140.333z"/>
<path style="fill:#aa9173; stroke:none;" d="M88 140L89 141L88 140M99.6667 140.333L100.333 140.667L99.6667 140.333z"/>
<path style="fill:#9f649a; stroke:none;" d="M35 141L35 142L38 142L35 141z"/>
<path style="fill:#aa9173; stroke:none;" d="M41 141L41 142L44 142L41 141M87 141L88 142L87 141z"/>
<path style="fill:#5aa4b1; stroke:none;" d="M89 141L94 144L94 143L89 141M33 142L32 147L35 142L33 142z"/>
<path style="fill:#aa9173; stroke:none;" d="M35 142L35 143L39 143L35 142z"/>
<path style="fill:#b6c8cc; stroke:none;" d="M34 150C38.7319 149 40.7036 146.083 43 142C37.1564 142.466 32.7468 143.245 34 150z"/>
<path style="fill:#9f649a; stroke:none;" d="M43 142L44 143L43 142z"/>
<path style="fill:#2f4a5e; stroke:none;" d="M53 147L58 142L53 147z"/>
<path style="fill:#aa9173; stroke:none;" d="M86 142L87 143L86 142M42 143L43 144L42 143z"/>
<path style="fill:#5aa4b1; stroke:none;" d="M94 144L94 145L100 143L94 144z"/>
<path style="fill:#aa9173; stroke:none;" d="M101 143L103 149L104 149L101 143z"/>
<path style="fill:#b6c8cc; stroke:none;" d="M170 143L175 147L170 143z"/>
<path style="fill:#aa9173; stroke:none;" d="M41 144L42 145L41 144z"/>
<path style="fill:#b6c8cc; stroke:none;" d="M60 147L64 144L60 147z"/>
<path style="fill:#9f649a; stroke:none;" d="M97 145L98 146L97 145z"/>
<path style="fill:#2f4a5e; stroke:none;" d="M153 145L154 146L153 145z"/>
<path style="fill:#b6c8cc; stroke:none;" d="M46 146L42 154L41 154L41 149L40 149L34 175C41.4389 171.023 41 164.548 41 157L42 157L46 163L46 146z"/>
<path style="fill:#aa9173; stroke:none;" d="M99 146L100 147L99 146z"/>
<path style="fill:#9f649a; stroke:none;" d="M39 147L40 148L39 147z"/>
<path style="fill:#5aa4b1; stroke:none;" d="M33.3333 149.667L33.6667 150.333L33.3333 149.667z"/>
<path style="fill:#aa9173; stroke:none;" d="M37 149L38 150L37 149z"/>
<path style="fill:#5aa4b1; stroke:none;" d="M26.6667 150.333L27.3333 150.667L26.6667 150.333M35 150L34 153C29.9547 152.76 25.5936 151.326 23 155L21 154L6 159L6 160L37 154L37 153L37 150L35 150M39 150L40 151L39 150z"/>
<path style="fill:#b6c8cc; stroke:none;" d="M96 150L97 151L96 150M98 151L101 153L98 151z"/>
<path style="fill:#5aa4b1; stroke:none;" d="M38 153L39 154L38 153z"/>
<path style="fill:#b6c8cc; stroke:none;" d="M101 153C106.779 159.924 117.694 159.734 126 162C120.417 154.951 109.241 155.181 101 153M0 164C8.97836 162.68 18.0633 160.288 26.9606 158.414C30.9352 157.576 34.488 158.331 36 154C27.4144 154.683 5.03445 156.65 0 164z"/>
<path style="fill:#aa9173; stroke:none;" d="M36.3333 154.667L36.6667 155.333L36.3333 154.667z"/>
<path style="fill:#b6c8cc; stroke:none;" d="M170 154L170 159L175 159L170 154z"/>
<path style="fill:#2f4a5e; stroke:none;" d="M50.6667 156.333L51.3333 156.667L50.6667 156.333z"/>
<path style="fill:#5aa4b1; stroke:none;" d="M30 157L1 164L1 165L5 167L6 166L4 165L4 164L10 165L10 164L8 164L8 163L14 164L18 163L17 161L18 161L22 162L22 166L4 168L0 171L0 177L8 176L8 177C3.72765 177.645 0.788547 178.445 0 183L5 179C7.13164 180.7 9.01756 181.073 9 178L21 177L21 178L0 184L0 185L20 181L27 174L25 171L28 170L28 169C25.207 168.547 24.3637 167.999 24 171L23 171L14 171L14 170L23 168C23.1735 162.676 24.5241 160.717 30 161L30 157z"/>
<path style="fill:#aa9173; stroke:none;" d="M34 157L35 158L34 157z"/>
<path style="fill:#9f649a; stroke:none;" d="M35 157L35 162L36 162L35 157z"/>
<path style="fill:#b6c8cc; stroke:none;" d="M56 158L56 159L68 159L56 158z"/>
<path style="fill:#2f4a5e; stroke:none;" d="M78 157L79 158L78 157z"/>
<path style="fill:#9f649a; stroke:none;" d="M30 158L30 159L34 159L30 158z"/>
<path style="fill:#5aa4b1; stroke:none;" d="M34.3333 158.667L34.6667 159.333L34.3333 158.667M0 161L0 162L5 161L0 161z"/>
<path style="fill:#2f4a5e; stroke:none;" d="M98 160C104.695 169.542 110.532 178.964 123 179L123 178C110.97 177.375 108.226 164.501 98 160M17 161L18 163L17 163C14.832 162.284 13.969 161.706 14 164L8 163L8 164L10 164L10 165L4 164L4 165L6 166L5 167L0 164L0 171L4 168L6 170L22 166L22 162L17 161z"/>
<path style="fill:#5aa4b1; stroke:none;" d="M38.3333 161.667L38.6667 162.333L38.3333 161.667z"/>
<path style="fill:#2f4a5e; stroke:none;" d="M133 161L134 162L133 161z"/>
<path style="fill:#5aa4b1; stroke:none;" d="M28 162L29 163L28 162z"/>
<path style="fill:#b6c8cc; stroke:none;" d="M126 162L127 163L126 162z"/>
<path style="fill:#2f4a5e; stroke:none;" d="M135 163L135 164L139 164L135 163z"/>
<path style="fill:#5aa4b1; stroke:none;" d="M24 163L25 166L26 166L27 163L24 163z"/>
<path style="fill:#9f649a; stroke:none;" d="M84.3333 165.667L84.6667 166.333L84.3333 165.667z"/>
<path style="fill:#5aa4b1; stroke:none;" d="M38 166L39 167L38 166z"/>
<path style="fill:#aa9173; stroke:none;" d="M85 167L86 168L85 167z"/>
<path style="fill:#5aa4b1; stroke:none;" d="M184 167C180.309 168.063 166.279 173.316 172.607 179.239C179.553 185.74 183.483 171.07 184 167M31 168L32 169L31 168z"/>
<path style="fill:#b6c8cc; stroke:none;" d="M85 168L86 169L85 168z"/>
<path style="fill:#5aa4b1; stroke:none;" d="M36 169L37 170L36 169z"/>
<path style="fill:#aa9173; stroke:none;" d="M85 169L86 174L87 174L85 169z"/>
<path style="fill:#2f4a5e; stroke:none;" d="M143.667 169.333L144.333 169.667L143.667 169.333z"/>
<path style="fill:#5aa4b1; stroke:none;" d="M35 170L36 171L35 170z"/>
<path style="fill:#9f649a; stroke:none;" d="M86 170L87 171L86 170z"/>
<path style="fill:#5aa4b1; stroke:none;" d="M189 171L189 172L207 172L207 170L189 171z"/>
<path style="fill:#2f4a5e; stroke:none;" d="M11.6667 171.333L12.3333 171.667L11.6667 171.333M85 171L85 174L86 174L85 171z"/>
<path style="fill:#5aa4b1; stroke:none;" d="M88 171L88 174L91 174L88 171z"/>
<path style="fill:#b6c8cc; stroke:none;" d="M89 171L90 172L89 171z"/>
<path style="fill:#2f4a5e; stroke:none;" d="M7.66667 172.333L8.33333 172.667L7.66667 172.333M23 172L24 173L23 172z"/>
<path style="fill:#5aa4b1; stroke:none;" d="M34 172L35 173L34 172z"/>
<path style="fill:#b6c8cc; stroke:none;" d="M88 172L89 173L88 172z"/>
<path style="fill:#5aa4b1; stroke:none;" d="M154 178L164 177C162.673 169.358 156.3 172.941 154 178z"/>
<path style="fill:#b6c8cc; stroke:none;" d="M188 172L188 173L207 173L188 172M16.6667 173.333L17.3333 173.667L16.6667 173.333z"/>
<path style="fill:#5aa4b1; stroke:none;" d="M185 176L207 177L207 173C200.406 173 189.876 171.02 185 176z"/>
<path style="fill:#b6c8cc; stroke:none;" d="M8 175L8 176L15 175L8 175z"/>
<path style="fill:#2f4a5e; stroke:none;" d="M57.6667 174.333L58.3333 174.667L57.6667 174.333z"/>
<path style="fill:#9f649a; stroke:none;" d="M86 174L87 175L86 174z"/>
<path style="fill:#aa9173; stroke:none;" d="M86 175L87 176L86 175z"/>
<path style="fill:#5aa4b1; stroke:none;" d="M92 175L95 179L92 175z"/>
<path style="fill:#b6c8cc; stroke:none;" d="M0 179L8 177L0 179M53 176L60 180L53 176z"/>
<path style="fill:#9f649a; stroke:none;" d="M87 176L88 177L87 176z"/>
<path style="fill:#b6c8cc; stroke:none;" d="M182 179L191 181L191 180L184 180L184 179L207 179L207 177C199.687 176.423 187.644 173.067 182 179M9 178C9 181.048 7.15759 180.199 5 179L0 183L0 184L21 178L9 178M39 177L37 181L39 177z"/>
<path style="fill:#aa9173; stroke:none;" d="M87 177L88 178L87 177z"/>
<path style="fill:#5aa4b1; stroke:none;" d="M183 177L184 178L183 177z"/>
<path style="fill:#9f649a; stroke:none;" d="M87 178L88 179L87 178z"/>
<path style="fill:#5aa4b1; stroke:none;" d="M35 179C27.1029 185.016 19.0424 188.917 9 189L9 190C17.6226 193.214 35.8628 195.636 39 184L35 185L35 179M39 179L37 184L39 179z"/>
<path style="fill:#9f649a; stroke:none;" d="M89.3333 179.667L89.6667 180.333L89.3333 179.667z"/>
<path style="fill:#aa9173; stroke:none;" d="M90 179L88 185L91 184L90 179z"/>
<path style="fill:#9f649a; stroke:none;" d="M91 179L92 180L91 179z"/>
<path style="fill:#5aa4b1; stroke:none;" d="M179 180L179 183L197 182L197 183L192 188L202 187L202 188L199 188L199 189L206 188L206 189L203 189L203 190L207 190C205.869 186.846 204.281 186.163 201 186L199 181L207 181L207 179L184 179L184 180L191 180L179 180z"/>
<path style="fill:#b6c8cc; stroke:none;" d="M88 180C85.3297 184.269 76.7395 185.78 72 187.329C58.4626 191.752 44.4506 202.871 30 203L37 192L35 193L36 190L22 194C27.8381 207.097 49.7004 210.674 57 197C60.279 202.147 64.4051 201.482 70 201L70 204L89 205L84 184L88 185L88 180z"/>
<path style="fill:#5aa4b1; stroke:none;" d="M86 186L91 207L141 207L145 187C139.718 187.839 132.299 191.956 136 198L129 195L125 201L121 196L115 198L116 192L95.1289 180.706L86 186M144 196C156.656 192.651 161.166 195.512 163 181C151.352 178.839 146.278 185.101 144 196z"/>
<path style="fill:#2f4a5e; stroke:none;" d="M48 181L46 189L49 188L48 181z"/>
<path style="fill:#9f649a; stroke:none;" d="M91 181L92 182L91 181z"/>
<path style="fill:#2f4a5e; stroke:none;" d="M199 181L201 186L207 187L207 181L199 181z"/>
<path style="fill:#9f649a; stroke:none;" d="M83.3333 182.667L83.6667 183.333L83.3333 182.667z"/>
<path style="fill:#aa9173; stroke:none;" d="M84.6667 182.333L85.3333 182.667L84.6667 182.333z"/>
<path style="fill:#9f649a; stroke:none;" d="M86 182L87 183L86 182z"/>
<path style="fill:#aa9173; stroke:none;" d="M87 182L88 183L87 182z"/>
<path style="fill:#b6c8cc; stroke:none;" d="M90 182L91 183L90 182z"/>
<path style="fill:#aa9173; stroke:none;" d="M81 183L82 184L81 183z"/>
<path style="fill:#b6c8cc; stroke:none;" d="M185 183L186 184L185 183z"/>
<path style="fill:#aa9173; stroke:none;" d="M79 184L80 185L79 184M85.6667 184.333L86.3333 184.667L85.6667 184.333z"/>
<path style="fill:#5aa4b1; stroke:none;" d="M170 184L169 195C176.536 194.995 180.795 194.441 181 186L170 184z"/>
<path style="fill:#aa9173; stroke:none;" d="M77 185L78 186L77 185z"/>
<path style="fill:#5aa4b1; stroke:none;" d="M84 185L85 186L84 185z"/>
<path style="fill:#b6c8cc; stroke:none;" d="M34.3333 186.667L34.6667 187.333L34.3333 186.667z"/>
<path style="fill:#9f649a; stroke:none;" d="M74 186L75 187L74 186z"/>
<path style="fill:#b6c8cc; stroke:none;" d="M194 186L194 187L198 187L194 186z"/>
<path style="fill:#9f649a; stroke:none;" d="M71 187L72 188L71 187z"/>
<path style="fill:#b6c8cc; stroke:none;" d="M198 187L198 188L202 188L198 187z"/>
<path style="fill:#aa9173; stroke:none;" d="M68 188L69 189L68 188z"/>
<path style="fill:#b6c8cc; stroke:none;" d="M202 188L202 189L206 189L202 188z"/>
<path style="fill:#2f4a5e; stroke:none;" d="M33 190L34 191L33 190z"/>
<path style="fill:#aa9173; stroke:none;" d="M34 190L35 191L34 190M36 190L37 191L36 190z"/>
<path style="fill:#5aa4b1; stroke:none;" d="M52 194L59 190L52 194M86 190L87 191L86 190z"/>
<path style="fill:#aa9173; stroke:none;" d="M32 191L33 192L32 191M35.3333 191.667L35.6667 192.333L35.3333 191.667M37 191L38 192L37 191z"/>
<path style="fill:#9f649a; stroke:none;" d="M61 191L62 192L61 191M29 192L30 193L29 192M37 192L38 193L37 192z"/>
<path style="fill:#b6c8cc; stroke:none;" d="M40 192L34 202C39.1794 200.632 42.2548 197.438 40 192z"/>
<path style="fill:#aa9173; stroke:none;" d="M60 192L61 193L60 192z"/>
<path style="fill:#5aa4b1; stroke:none;" d="M84 192L85 193L84 192M87 192L88 193L87 192z"/>
<path style="fill:#aa9173; stroke:none;" d="M26 193L27 194L26 193M58 193L59 194L58 193z"/>
<path style="fill:#2f4a5e; stroke:none;" d="M122 193L123 194L122 193z"/>
<path style="fill:#5aa4b1; stroke:none;" d="M20 194L19 197L26 201L22 194L20 194z"/>
<path style="fill:#aa9173; stroke:none;" d="M36 194L37 195L36 194z"/>
<path style="fill:#5aa4b1; stroke:none;" d="M38 194L39 195L38 194M51 194L52 195L51 194z"/>
<path style="fill:#aa9173; stroke:none;" d="M56 194L57 195L56 194z"/>
<path style="fill:#9f649a; stroke:none;" d="M88 194L89 195L88 194z"/>
<path style="fill:#aa9173; stroke:none;" d="M35 195L36 196L35 195z"/>
<path style="fill:#5aa4b1; stroke:none;" d="M37 195L38 196L37 195M80 195L80 201L85 201L80 195z"/>
<path style="fill:#aa9173; stroke:none;" d="M34 196L35 197L34 196z"/>
<path style="fill:#5aa4b1; stroke:none;" d="M143 207L151 206.999C171.391 206.891 149.207 188.133 143.894 200.132C142.95 202.263 143.049 204.727 143 207z"/>
<path style="fill:#9f649a; stroke:none;" d="M33.3333 197.667L33.6667 198.333L33.3333 197.667z"/>
<path style="fill:#5aa4b1; stroke:none;" d="M36 197L37 198L36 197z"/>
<path style="fill:#aa9173; stroke:none;" d="M57 197L48 205L48 206L61 204L57 197M32.3333 198.667L32.6667 199.333L32.3333 198.667z"/>
<path style="fill:#5aa4b1; stroke:none;" d="M35 198L36 199L35 198z"/>
<path style="fill:#aa9173; stroke:none;" d="M46 198L47 199L46 198z"/>
<path style="fill:#5aa4b1; stroke:none;" d="M75 198L74 202L77 198L75 198z"/>
<path style="fill:#aa9173; stroke:none;" d="M43 199L44 200L43 199z"/>
<path style="fill:#9f649a; stroke:none;" d="M89 199L90 200L89 199z"/>
<path style="fill:#5aa4b1; stroke:none;" d="M168 202L172 199L168 202M89 200L90 201L89 200M26 201L27 202L26 201M33 201L34 202L33 201M36.6667 201.333L37.3333 201.667L36.6667 201.333M61 201L60 205L77 206L77 205L70 204L70 201L61 201z"/>
<path style="fill:#aa9173; stroke:none;" d="M89.3333 201.667L89.6667 202.333L89.3333 201.667z"/>
<path style="fill:#5aa4b1; stroke:none;" d="M27 202L28 203L27 202z"/>
<path style="fill:#9f649a; stroke:none;" d="M30 202L31 203L30 202z"/>
<path style="fill:#5aa4b1; stroke:none;" d="M31.6667 202.333L32.3333 202.667L31.6667 202.333z"/>
<path style="fill:#aa9173; stroke:none;" d="M37 202L38 203L37 202z"/>
<path style="fill:#5aa4b1; stroke:none;" d="M28 203L29 204L28 203M89.3333 203.667L89.6667 204.333L89.3333 203.667M29.6667 204.333L30.3333 204.667L29.6667 204.333z"/>
<path style="fill:#aa9173; stroke:none;" d="M44 204L45 205L44 204z"/>
<path style="fill:#5aa4b1; stroke:none;" d="M40 205L40 206L48 206L40 205M78 205L78 206L89 206L78 205M32 205L33 206L32 205M35.6667 205.333L36.3333 205.667L35.6667 205.333z"/>
<path style="fill:#9f649a; stroke:none;" d="M38.6667 205.333L39.3333 205.667L38.6667 205.333z"/>
<path style="fill:#5aa4b1; stroke:none;" d="M58.6667 205.333L59.3333 205.667L58.6667 205.333z"/>
</svg>
