<svg width="200" height="200" viewBox="0 0 200 200" fill="none" xmlns="http://www.w3.org/2000/svg">
<g clip-path="url(#clip0_10034_35697)">
<path d="M200 100C200 44.7715 155.228 0 100 0C44.7715 0 0 44.7715 0 100C0 155.228 44.7715 200 100 200C155.228 200 200 155.228 200 100Z" fill="black"/>
<path d="M187.5 100C187.5 51.6751 148.325 12.5 100 12.5C51.6751 12.5 12.5 51.6751 12.5 100C12.5 148.325 51.6751 187.5 100 187.5C148.325 187.5 187.5 148.325 187.5 100Z" fill="#46FFCA"/>
<path d="M151.629 80.5014C149.106 99.3295 131.636 99.1352 122.707 110.005C107.761 128.64 113.778 145.138 99.8024 148.826C85.8268 145.138 91.8443 128.445 76.898 109.811C68.3574 98.747 50.694 99.1352 48.3647 80.1133C46.4237 65.7495 53.9938 56.8205 60.011 51.1914C60.3992 50.8032 56.323 64.9727 62.5343 73.7077C67.9693 81.0839 82.9155 85.3539 90.2912 90.9833C99.0262 97.9708 99.9968 105.541 99.9968 105.347C100.191 105.347 101.356 97.9708 109.702 91.3714C117.078 85.742 132.024 81.472 137.459 74.0958C143.671 65.5552 139.594 51.3855 139.982 51.7737C146.194 57.4028 153.57 66.3314 151.629 80.5014Z" fill="black"/>
</g>
<defs>
<clipPath id="clip0_10034_35697">
<rect width="200" height="200" fill="white"/>
</clipPath>
</defs>
</svg>
