<?xml version="1.0" encoding="UTF-8" standalone="no"?>
<!-- Created with Inkscape (http://www.inkscape.org/) -->

<svg
   width="200"
   height="200"
   viewBox="0 0 52.916665 52.916665"
   version="1.1"
   id="svg1"
   xml:space="preserve"
   inkscape:version="1.3.2 (091e20e, 2023-11-25)"
   sodipodi:docname="ROF.svg"
   xmlns:inkscape="http://www.inkscape.org/namespaces/inkscape"
   xmlns:sodipodi="http://sodipodi.sourceforge.net/DTD/sodipodi-0.dtd"
   xmlns="http://www.w3.org/2000/svg"
   xmlns:svg="http://www.w3.org/2000/svg"><sodipodi:namedview
     id="namedview1"
     pagecolor="#ffffff"
     bordercolor="#000000"
     borderopacity="0.25"
     inkscape:showpageshadow="2"
     inkscape:pageopacity="0.0"
     inkscape:pagecheckerboard="0"
     inkscape:deskcolor="#d1d1d1"
     inkscape:document-units="px"
     inkscape:zoom="1.4174225"
     inkscape:cx="87.835487"
     inkscape:cy="92.774029"
     inkscape:window-width="1440"
     inkscape:window-height="900"
     inkscape:window-x="0"
     inkscape:window-y="0"
     inkscape:window-maximized="0"
     inkscape:current-layer="layer1" /><defs
     id="defs1" /><g
     inkscape:label="Strat 1"
     inkscape:groupmode="layer"
     id="layer1"><path
       style="fill:#000000;stroke-width:1"
       d="M 21.58063,52.725913 C 10.122319,50.348378 1.7527415,41.40898 0.55952665,30.27365 -0.787043,17.707181 7.6118901,6.1822154 20.392896,3.0584177 c 3.760026,-0.9189858 9.212305,-0.907572 12.887538,0.026983 9.27572,2.3586585 16.4566,9.2749453 19.054236,18.3521423 0.440321,1.538658 0.604862,3.309565 0.607094,6.533937 0.003,4.182176 -0.06017,4.601642 -1.157237,7.697831 -2.765082,7.8037 -8.825026,13.633619 -16.838221,16.199071 -2.826513,0.904921 -3.964885,1.092281 -7.25617,1.194264 -2.523254,0.07819 -4.683744,-0.04089 -6.109506,-0.336727 z M 21.241277,36.654057 v -5.406135 h 1.6722 1.672201 l 3.80109,5.268768 c 2.090599,2.897823 3.983789,5.336458 4.207088,5.41919 0.223301,0.08273 1.819986,0.107689 3.54819,0.05546 l 3.142187,-0.09497 -4.273238,-5.726627 -4.273238,-5.726626 1.614621,-0.780087 c 3.559991,-1.719974 4.9725,-3.875782 4.9725,-7.589159 0,-3.885426 -1.370986,-5.81187 -5.412676,-7.605632 -1.550767,-0.688252 -2.238066,-0.753246 -9.059,-0.856639 l -7.380919,-0.111883 v 14.280245 14.280237 h 2.884496 2.884498 z m 0,-14.45931 v -4.138504 l 3.478365,0.158009 c 1.998656,0.09079 3.994851,0.370681 4.692475,0.657935 1.503055,0.6189 2.173891,2.00805 1.904869,3.944558 -0.349234,2.513908 -2.414453,3.511508 -7.27605,3.514681 l -2.799659,0.0018 z"
       id="path1" /></g></svg>
