<?xml version="1.0" encoding="UTF-8" standalone="no"?>
<!-- Created with Inkscape (http://www.inkscape.org/) -->

<svg
   width="200"
   height="200"
   viewBox="0 0 52.916665 52.916666"
   version="1.1"
   id="svg1"
   xml:space="preserve"
   inkscape:version="1.3.2 (091e20e, 2023-11-25)"
   sodipodi:docname="Rof.svg"
   xmlns:inkscape="http://www.inkscape.org/namespaces/inkscape"
   xmlns:sodipodi="http://sodipodi.sourceforge.net/DTD/sodipodi-0.dtd"
   xmlns="http://www.w3.org/2000/svg"
   xmlns:svg="http://www.w3.org/2000/svg"><sodipodi:namedview
     id="namedview1"
     pagecolor="#ffffff"
     bordercolor="#000000"
     borderopacity="0.25"
     inkscape:showpageshadow="2"
     inkscape:pageopacity="0.0"
     inkscape:pagecheckerboard="0"
     inkscape:deskcolor="#d1d1d1"
     inkscape:document-units="px"
     inkscape:zoom="0.63014985"
     inkscape:cx="170.59434"
     inkscape:cy="84.900441"
     inkscape:window-width="1440"
     inkscape:window-height="900"
     inkscape:window-x="0"
     inkscape:window-y="0"
     inkscape:window-maximized="0"
     inkscape:current-layer="layer1" /><defs
     id="defs1" /><g
     inkscape:label="Strat 1"
     inkscape:groupmode="layer"
     id="layer1"><path
       style="fill:#000000"
       d="M 24.832337,46.657205 C 17.688511,45.737542 11.63162,41.434586 8.6949498,35.192831 c -1.282417,-2.725717 -1.279436,-2.792302 0.18864,-4.213918 l 1.2879972,-1.247236 0.461762,1.63451 c 1.494988,5.291845 5.935139,9.814288 11.370301,11.581034 1.833911,0.596129 2.599984,0.699034 5.19391,0.697688 2.625961,-0.0014 3.332619,-0.09956 5.159375,-0.716922 4.035137,-1.363703 6.803709,-3.420778 9.020399,-6.702242 1.223782,-1.811619 2.472777,-4.772609 2.483395,-5.887384 0.0052,-0.545438 -0.108125,-0.585865 -1.642211,-0.585865 h -1.647793 l -2.056374,2.011871 -2.056374,2.011872 V 31.56333 29.350421 l 2.188339,-2.142424 2.188339,-2.142424 H 42.631277 44.4279 L 44.251888,23.828746 C 43.361038,17.568789 38.682225,12.184441 32.307969,10.083758 L 29.858062,9.276373 30.985221,8.1877042 c 1.296641,-1.2523624 1.778178,-1.3195366 3.703915,-0.5166943 5.050824,2.1056959 9.28723,6.1506141 11.315934,10.8044471 2.740708,6.287158 1.838938,14.347878 -2.232937,19.95991 -4.20032,5.789055 -11.893947,9.128888 -18.939796,8.221838 z M 41.881935,28.450573 c 0.584452,-0.457094 1.312998,-0.781154 1.756173,-0.781154 0.416553,0 0.757369,-0.117173 0.757369,-0.260385 0,-0.14674 -0.746584,-0.260384 -1.710586,-0.260384 -1.536053,0 -1.806008,0.08245 -2.645833,0.808127 -1.166149,1.007644 -1.175707,1.274949 -0.04559,1.274949 0.590166,0 1.225897,-0.262967 1.888465,-0.781153 z m -21.91632,10.241794 c -0.09701,-0.09548 -0.176389,-3.84344 -0.176389,-8.328813 v -8.155223 l 0.988577,-0.406499 c 1.756863,-0.722415 2.980173,-2.289332 2.980173,-3.817253 0,-0.381529 0.671467,-1.253357 1.911608,-2.482017 l 1.911607,-1.893912 h 1.650342 c 3.420053,0 6.466669,1.932457 8.056201,5.110017 0.715287,1.429897 0.845937,1.982081 0.845937,3.575313 0,3.104609 -1.656061,5.859891 -4.328555,7.201659 -0.578218,0.290304 -1.051306,0.625673 -1.051306,0.745265 0,0.119592 1.14578,1.962687 2.546177,4.095766 1.400398,2.133079 2.603761,4.024791 2.674141,4.203806 0.09746,0.247891 -0.543651,0.32548 -2.689399,0.32548 h -2.817362 l -2.086862,-3.189711 c -3.045797,-4.655417 -2.768006,-4.361442 -4.121339,-4.361442 h -1.178273 v 3.775577 3.775576 h -2.469445 c -1.358194,0 -2.548819,-0.07811 -2.645833,-0.173589 z M 30.896452,25.651033 c 0.506423,-0.250397 1.201637,-0.865374 1.544922,-1.366614 0.512408,-0.748183 0.604068,-1.157587 0.511968,-2.28672 -0.210833,-2.58479 -2.360649,-3.862867 -6.152657,-3.657788 l -1.5875,0.08585 -0.07322,3.840672 -0.07322,3.840673 2.454469,-4.04e-4 c 1.808644,-2.99e-4 2.696743,-0.120196 3.375236,-0.455674 z M 6.9976698,29.837031 C 6.6898948,28.003893 6.8203148,23.755667 7.2424988,21.862167 8.5961348,15.791081 13.288954,10.305732 19.215854,7.8667327 22.334332,6.5834374 27.317986,5.9379886 30.012762,6.468391 l 0.764682,0.1505093 -1.228838,1.2415477 c -1.218012,1.2306101 -1.247672,1.2430935 -3.366721,1.417011 -4.134061,0.3392963 -7.732764,1.867061 -10.642227,4.517964 -3.637706,3.314428 -5.52729,7.475254 -5.536105,12.190391 l -0.0039,2.091971 -1.417384,1.377564 -1.417384,1.377564 z m 7.6321812,-3.469535 c 1.449748,-1.432116 2.695437,-2.603846 2.768197,-2.603846 0.07276,0 -1.053866,1.17173 -2.503614,2.603846 -1.449748,1.432115 -2.695436,2.603846 -2.768197,2.603846 -0.07276,0 1.053866,-1.171731 2.503614,-2.603846 z m 2.715305,-6.136064 c -1.415709,-0.755966 -1.949041,-2.841023 -1.091943,-4.268948 0.988703,-1.64718 3.386198,-2.101318 4.820968,-0.913197 1.646701,1.363619 1.646701,3.566646 0,4.930265 -0.925736,0.766594 -2.558567,0.876885 -3.729025,0.25188 z m 7.596598,-8.17828 c 0.860249,-0.855524 1.623452,-1.497077 1.696007,-1.425673 0.173218,0.170469 -2.650291,2.981171 -2.994756,2.981171 -0.145936,0 0.438501,-0.699974 1.298749,-1.555498 z"
       id="path1" /></g></svg>
