<svg xmlns="http://www.w3.org/2000/svg" width="200" height="200"><path d="M201 50v151H1V1h200v49m-46.6 142.8l1-1c.3-.2.5-.5 1.3-.8.8 0 1.5 0 2.8.3.8 1 1.6 1.8 2.5 3.3l1.2 1c.2-.5.5-1 1.3-1.8.8-.6 1.6-1.2 3.2-1.7 1.7 1 3.4 2 5.1 2.7.5.2 1.4-.5 2.4-1.2.2-.3.5-.5 1.5-.6l6-4c1.4-1 2.9-2 4.5-2.4.6.5 1.2 1 1.7 2.2-.3 1.4-.7 2.8-1.4 4.5l-1.1.9-1 1 .6.5c.3-.5.6-1 1.3-1.7.3-.2.5-.5 1.3-.9l5.5-6.4c.2-.3.5-.5 1.5-.6 4-1.2 1.8-3 .3-4.4-2.4-2.2-2.5-4 0-6.2.8-.7 1.3-1.8 2.2-3-6.3-3.5-3.8-7.1-.8-9.7l-3.4-8.7.4-.2c.3-.2.5-.5.6-1.3 0 0 0-.5.7-.5 3-1.7 3-1.7-1.7-5l-.3-.6-.7-3.4h.7c4.6-1.7 5-2.6 2-5.5-.6-.5-1.2-1-2-2.1-.2-1.1-.5-2.3-.5-4 .6-.5 1.2-1 2.5-1.5l2-1.8c-1-.4-1.8-.8-3-1.7l-1-2c-.2-.8-.5-1.6-.2-2.7.8-1 1.6-1.8 3-2.8-.2-1-.4-2-1-3.5-1-.8-1.8-1.6-2.7-3 0-.4 0-.9.6-1.6.8-1 1.6-1.8 3.1-2.8-.2-1-.4-2-1-3.4-.9-.8-1.8-1.7-2.7-3.2 0-.8 0-1.5.6-2.5.8-.6 1.6-1.2 3.1-1.9l1-1.8-3.3-1.4c-.5-.6-1-1.2-1.4-2.5.3-1.1.7-2.2 1.6-3.6l4.1-3.2c-1.7-1.1-2.7-1.8-4-2.9l-1-1.2 4-8.2c-5.5-3.1-3.6-6.7.9-10.5-6-3.5-4.7-7.1 0-11-1.7-.4-2.6-.5-3.5-1.2l-.2-1a1.5 1.5 0 0 0-.6-.6v-.9c0-1.7 0-3.4.2-5.6.2-.3.5-.5 1.5-.6 2.7-1.2 2.7-1.4-.9-4.4l-1-1.1c-.3-.8-.5-1.6-.2-2.7.8-1 1.6-1.8 3-2.8-.2-1-.4-2-1-3.4-.6-.5-1.2-1-2-2.1-.2-1.1-.5-2.3-.5-4 .6-.5 1.2-1 2.5-1.5l2-1.8-3.3-1.4c-.5-.6-1-1.2-1.5-2.5-1-1-2-2.2-3.6-3.5-.8-.6-1.6-1.2-2.4-2.5-.3-2.4-1.2-3-3-1l-4.7 5-3.6-6c-3.5 2-6 3.4-9.1 4.7-.5-.3-1-.5-1.5-1.6l-1.7-3-1.6 3.3c-.6.5-1.2 1-2.5 1.5-1 0-2.1 0-3.6-.5-.9-.5-1.7-1-2.6-2.2-.3-2.4-1.2-3-3-1l-4.5 4.7-3.7-5.4c-3.9 1.8-6.8 3.1-10.2 4.3-.3-.2-.5-.4-.6-1.5l-1.6-3-1.6 3.3c-1 .8-1.8 1.6-3.4 2.4-.5 0-.9 0-1.7-.5-1.2-.8-2.4-1.6-3.6-3.2-.3-2.4-1.3-3-3-1-1.1 1.4-2 3-3 4.4h-2l-4.5-7.6-5.3 8.7-3.8-5.3c-2.7-3-3.1-1-3.5 2-1 .8-1.8 1.6-3.4 2.4-.5 0-.9 0-1.7-.5-1.2-.8-2.4-1.6-3.6-3.2a737.2 737.2 0 0 0-1.6-2L82 9.6c-.2.3-.5.5-1.5.6l-9.1-5-3.6 6-4.3-4.5c-2.8-3-3.1-1-3.5 2.1-1 .8-1.8 1.6-3.4 2.4-.8-.3-1.6-.6-2.8-1.5-.9-.5-1.8-1-2.6-2.2l-1.6-2C49 6.5 48.5 7.7 48 9h-.7L40 8v-.7c-.4-2.4-1.4-3-3-1-1.1 1.4-2 3-3.8 5.7-2-2.9-2.8-4.3-3.9-5.5-2.6-3-3.1-1-3.9 1.5l-2.8 2.1c-.8 0-1.7-.1-2.9-.7-.9-.5-1.8-1-2.6-2.2l-1.6-2L14 9h-.7l-10 7.2c1.8 3.5 3.3 6.1 4.7 9.4-.3.5-.6 1-1.7 1.4l-4.5 1L9 33v.8c0 .8 0 1.5-.2 2.8-.6.5-1.2 1-2.5 1.5l-2.9 1.8 3.2 1.5c.8 1 1.6 1.8 2.4 3.5 0 .8 0 1.5-.2 2.8-.6.5-1.2 1-2.5 1.5l-2.1 1.4 2.3 2 1.7 3.1c0 .8-.1 1.7-.7 2.8-.5.6-1 1.2-2.1 1.8l-2 1.7 3.2 1.5c.8 1 1.6 1.8 2.4 3.5 0 .8 0 1.5-.3 2.8-1 .8-1.8 1.6-3.3 2.5l-1 1.2 2.1 1c.8 1 1.6 1.8 2.4 3.5 0 .8 0 1.5-.3 2.8-1 .8-1.8 1.6-3.4 2.4l-2 1.4c.9.5 1.7 1 2.8 2.1.6.5 1.2 1 1.7 2.2l-3 4.8c-1.8 2.7-.6 3.5 2.5 3.7.5.6 1 1.2 1.2 2.4l-5.6 7c7.5 7.2 7.5 7.2 10.3 7.5.3.2.5.4.6 1.6 0 1.4 0 2.8-.7 4.2-5 .3-6.5 4.7-8.8 7.9-.5.7 2 3.6 3.2 5.5.5.9 1 1.8 1.1 3.2-.6.5-1.2 1-2.5 1.5l-4.5 1L9 144v.8c0 .8 0 1.5-.2 2.8-.6.5-1.2 1-2.5 1.5l-2.1 1.4 2.4 1.9 1.7 2.2c.2.3.5.5.8.6v.8c0 .8 0 1.5-.3 2.8-1 .8-1.8 1.6-3.4 2.4l-1.8 1c.8.3 1.7.6 3 1.3l1.7 3.1c0 .8-.1 1.7-.7 2.9-.5.9-1 1.7-2.2 2.6l-2 1.4c.9.5 1.7 1 2.8 2.1.6.5 1.2 1 2 2 0 .8-.1 1.7-.7 2.7-.5.6-1 1.2-2 2l-1.9 2.4 4 1.6c.5.6 1 1.2 1.5 2.5 0 .8 0 1.5-.4 2.5l-1 1-.8.9.7-.3 1-1c.3-.2.5-.5 1.3-.8.8 0 1.5 0 2.8.3.8.6 1.6 1.2 2.4 2.4.4 3.4 2 1.9 3.1.6 2.5-3 4.6-2.6 6.9.2.5.6 1.3 1 2.3 1.7.3-1.4.5-2.3 1.2-3.4.8-.6 1.6-1.2 3.2-1.7.8 0 1.5 0 2.4.3l.3.1-.4-1.2c0-.8 0-1.5.2-2.8.6-.5 1.2-1 2.6-1.5 1.4 0 2.8 0 4.6.2.3.2.5.5.6 1.5l.3 3.5c1.5-.1 2.6-.2 4.2 0 .8.6 1.6 1.2 2.5 2.4.8.5 2 1.5 2.3 1.3 1.5-1 2.7-2.3 4-3.6 2 1.6 4 3 5.8 4.6l1-1.3-4.9-4.6c.6-1.4 1.1-2.7 2.4-4l4.4 2.7c1.3.8 2.6 1.5 4 3 1.2 2.3 2.5 4.5 5.2 4l1-1.7c-2-1-4.1-2-6.2-3.8 0-.8 0-1.5.3-2.8 1-.8 1.8-1.6 3.5-2.4.8 0 1.5 0 2.8.2.5.6 1 1.2 1.5 2.5-.3 3.2 1.7 3.4 4.6 3.5.8.6 1.6 1.2 2.4 2.4l1 1.9 3.2-4c.2-.3.5-.5 1.4-.5l4.8-4.3c.3-.2.5-.5 1.3-.7.7.4 1.5.7 2 1.2 2.5 2.4 4.9 5 7.4 7.3 2.3 2.1 3.8 1.8 4-2.2.6-.5 1.2-1 2.4-1.5l3.7-1.6c2-1 3.8-2.2 5.7-2.8l1.2 2 4.3 2.6 1.7 2.2c.2.3.5.5.8.6v.6l1.2 1 1-2c.9-.5 1.7-1 3.4-1.5l4.8 3c2.6 1.8 3.5.7 4.2-2 2-1.4 4-2.8 6-4 1.7-1 3.5-2 5.3-2.3l1.2 2c.3.8.5 1.6.3 2.6l-1 1-1 1-1.1.9-1 1 .6.5c.3-.5.6-1 1.3-1.7l1-1M6.4 7L4.7 5.5l-.3 2.1c.8 0 1.5 0 2-.7m32 188.9l1-1.3-1.3-.3c0 .5-.1 1 .4 1.6m80.1-1h-1.2v.5c.4 0 .8 0 1.2-.5m-23.3-.4l-.9.8.3.3c.3-.3.6-.5.5-1.2m102.4-187l-.8-.9a28 28 0 0 1-.4.3c.3.3.5.6 1.2.5m-.3 187.1l-.9.8.3.3c.3-.3.6-.5.5-1.1zm0 0" fill-rule="nonzero" fill="#fdfdfd" fill-opacity="1"/><path d="M26 8c0-2.6.6-4.5 3.2-1.5 1 1.2 1.9 2.7 3.9 5.5 1.8-2.8 2.7-4.3 3.8-5.7 1.7-2 2.7-1.4 2.7 1.4l-3.8 5.6c1.3.4 2.8 1.5 3.8 1.1 3.6-1.5 1.2-3.9.4-6v-.5c2.4.3 4.9.7 7.5 1.3-2.2 2.2-.8 4 0 5.7h-1.2c-1.6.3-3.2.5-4.6 1.2-.4.2-.3 2.6.2 2.9 1.2.7 2.8.8 4.2 1 .6.1 1.3 0 1.8.2-3.4 4.7.4 5.4 3.3 7 .7 1.8 1.3 3.3 1.5 4.7-1.8-.3-3.2-.7-4.7-1.3-.6-3.7-2.5-5.6-6-6-1.3-1.7-2.6-3.1-4-4.5-1 1.6-2 3.2-3.4 4.9-3.7.6-5.6 2.5-6 6-2.7.9-6.3.6-5 5-2.2 1.1-4 2.3-6 3.4 4 4.8 5 4.5 8.6-1.5l5-5c1 0 1.9 0 2.6.4-1.7 3.1-3.3 5.9-5.4 8.7-1 .1-2 0-2.2.4-1 1-2 2.2-2.1 3.5-.1.7 1.3 2.4 2 2.4 1.2 0 2.6-1 3.6-1.8.6-.6.8-1.7 1.6-2.6 1 0 1.9 0 2.6.4 0 1.1 0 1.9-.3 2.7-1.8 1.2-3.3 2.4-6 4.5 3 1.5 5.2 2.5 7 3.8-.3 1.1-.5 2-1.1 2.8-3.5 1.5-6 3.3-3 7-2.2.2-4 .2-5.7.8-.4.1-.8 2.5-.4 3 3 2.9 6.2 5.5 9.4 8.6-1 1.1-2 1.9-3 2.3-1.8-1.5-3.5-2.6-5.3-3.8-.5 1.1-1.6 3-1.3 3.3 1.3 1.2 3 2 4.7 3.2 1.2 2.2 2.4 4 3.3 5.5 2.7-1.3 4.3-2 6.2-2.5.8 4.1 1.3 7.8 1.4 11.5-1.6 0-2.8 0-4-.3l-5-6-5.1-5c-.5-1-.7-2-1.3-2.4-1.4-.8-3-1.2-4.4-1.8-.4 1.5-1 3-1.2 4.5v2l-.2-.1c-4.7-3.4-5.4.4-7 3.3-1.8 2-3.2 4-4.7 5.9-2.6 0-4-.8-2-3.5l3.4-5.2c3.7-1 5.6-2.8 6-6.4 1-.1 1.9 0 2.2-.4.9-1 2-2.2 2-3.5.2-.7-1.2-2.4-2-2.4-1.1 0-2.5 1-3.5 1.8-.6.6-.8 1.7-1.5 2.6H8.9c0-.8 0-1.5.3-2.7 1.8-2 3.2-3.7 5-5.5l4.5-4.8c-1.6-1-3.2-2-4.8-3.4-.6-3.7-2.5-5.6-6-5.6 0-.8 0-1.7.5-2.8 1.4-.6 2.5-1 3.6-.9 1 2.2 2.3 4 3.4 6 4.8-4 4.5-5-1.5-8.6-1.7-1.8-3.3-3.2-5-4.6 0-.8 0-1.5.4-2.6 3 1.3 5.9 3 8.6 5 .3 1.3.4 2.6 1 3 1 .7 2.7 1.2 3.8 1 .8-.2 1.8-2.5 1.5-3-.8-1-2.2-1.7-3.5-2-.8-.2-2 .5-2.8.4 1-4.2-3.3-10-9-12.6 0-.8 0-1.5.4-2.6 1-.4 1.9-.4 2.7 0 1.2 1.8 2.4 3.3 4.5 6L20 32l.3.1c3.9-2.8 7.4-5.6 10.7-8.3-1-2.2-1.5-3.5-1.7-4.8 2.3.8 4.5 3.2 6-.2.4-1-.7-2.7-1.1-4.1-1.6 1-3.3 1.8-4.8 2.9-.3.2-.2 1-.7 1.4-1.5 0-2.5 0-3.5-.3 0-1 0-2 .3-2.8 2.2-1.1 4-2.2 6.9-4l-6.3-4m-7.4 64a3213.8 3213.8 0 0 1 3.6 3.8c.7-1.3 2.3-3 2-3.7-1.1-2.3-3.1-2.9-5.6 0m2.2-12.8a1337.6 1337.6 0 0 1-1.9 4.2c1.1.5 2.3 1.4 3.4 1.2.9-.1 2.4-2 2.2-2.2-.8-1.2-2-2.2-3.8-3.2m7.2-5.6l-3.8 3.6c1.3.7 3 2.3 3.7 2 2.3-1.1 2.9-3.1 0-5.6zM193 143c.2 1.1.5 2.2.4 3.7-1.7.3-3 .3-4.5 0-.3-4.2-2.9-4.8-5.9-5-.7-2.2-1.5-4-2.6-6.8l-4.9 5.3c2.4 1.4 4.4 2.6 6.4 4l5 5c-1.4 1.8-2.7 3.2-4.3 4.5-2-1.8-3.9-3.4-5.7-5.4.6-2.8 1.4-5.8-2.1-6-1.2 0-2.6 3.2-3.8 5-.2.3 0 1-.4 1.5-1.5 0-2.5 0-3.6-.5 0-2 0-3.8.4-5.4 3.5-2.6 6.7-5 9.7-7.8.4-.4.1-2.4-.5-2.8-.9-.7-2.9-1.2-3.4-.7-3 3-5.5 6.2-8.6 9.4H162v-.4a76.6 76.6 0 0 1 5.3-7.8c1.4-.8 3-1.3 3.4-2.3.5-1.2.1-2.8 0-4.2-1.3.1-3.1-.2-4 .5-1 1-1.3 2.7-2.2 4a473.2 473.2 0 0 1-3.2-1.5c2-2.6 3.7-5 5.8-7.5 2.3-1.5 6.2-2.5 4-5.7-2.4-3.2-6.1-5.5-9.2-8.5 1-1.5 2-2.6 3-3.3 1.1 2.2 2.3 4 3.4 6 4.8-4 4.5-5-1.5-8.6-2-1.8-4.1-3.2-6.2-5 .5-8.8 1-17.2 1.8-25.6 1.4 0 2.4 0 3.3.3-1 4 1.5 4.8 4.3 6 1.6 2.4 2 5.7 5.9 5 1.1 2.2 2.2 4 4 6.9 1.8-2.8 2.9-4.5 4.3-6.2h2.6v.4c0 1.1 0 1.9-.3 2.7l-5 5.1c-1.3.7-2.5 1.1-3.2 2-.7 1-1.4 2.4-1 3.3.3 1 2 2.2 2.8 2 1-.1 2-1.5 2.5-2.6s.2-2.6.5-3.7c4.5 1.7 5.5-.8 6-4.1h4.6c-.3 1.1-.7 2.2-1.4 3.7-1.8 2-3.2 3.7-5 5.3-3.4.8-6.3 1.8-5 6-2.5.8-4.6 1.6-7.4 2.7l5.6 5.1c1.3-2.8 2.3-4.9 3.5-6.8 1.1.4 2 .6 2.7 1.2.3 1.1.7 2 .6 2.7-3.7.6-5.6 2.5-6 6-1.7 1.3-3.1 2.6-4.5 3.9 1.6 1 3.2 2 4.9 3.5.6 3.7 2.5 5.6 5.9 5.9-1.4 1.4-2.6 2.6-4 3.4-.4-1.4-.6-2.7-1.4-3.4-1-.8-2.7-1.8-3.5-1.5-1 .5-2 2.7-1.7 3.4.6 1 2.3 1.7 3.7 2.1.8.3 2-.2 2.7 0-.6 1.3-1.6 3-1.4 3.2 3.4 3 7 5.7 10.5 8.5m-21-46.7c-1-1.4-1.8-3.4-3-3.9-1-.3-2.7 1.4-4 2.1l.1 2c2 .5 4 1 6 2.2 0 .8-.2 2 .3 2.4 1 1 2.3 2.1 3.7 2.6.6.2 2.5-1.5 2.4-2-.3-1.4-1.2-2.9-2.2-3.9-.7-.7-2-.6-3.2-1.6m-1.7-7.6c.7 1 1.2 2.6 2.2 3.1 1.2.5 2.8.1 4.2 0-.1-1.3.2-3.1-.5-4-1-1-2.7-1.3-4-2.5-1-1.4-1.7-3.5-3-4-1-.4-2.8 1.2-5.6 2.5 3 1.9 4.7 3 6.7 4.7m7.4 23c-1.3-.8-2.5-2-3.9-2.3-.7-.1-2 1.6-2.3 2.7-.2.7 1.4 2.5 1.9 2.4 1.5-.3 2.9-1.3 4.3-2.8m-3.2 14.3l3.2-3.2c-1-.8-1.8-2.3-2.8-2.4-1-.1-3.1 1.3-3 1.7.2 1.3 1.3 2.5 2.7 3.9zm0 0" fill-rule="nonzero" fill="#f3f3f5" fill-opacity="1"/><path d="M167 10l8.6-5c.8 1.5 2 3.6 3.6 6 2.3-2.3 3.5-3.5 4.7-5 1.8-2 2.7-1.2 2.7 1.5-1.8 1.6-3.3 2.7-6 4.9 3.2 1.5 5.2 2.5 7.2 3.7 1.6 1.8 3.4 3.2 5 4.7.3 1 .6 2.3.5 3.7-1.7.3-3 .3-4.5 0-1-2.1-1.7-4-3-6.2-1.7 2-3 3.2-4.6 5 2.2 1.4 4 2.5 5.7 3.8l5.9 5.7c.2.8.5 1.6.4 2.7-1.7.3-3 .3-4.5 0l-5-6c-1.8-1.5-3.5-2.6-5.3-3.8-.5 1-1.6 3-1.3 3.3 1.3 1.2 3 2 4.7 3.2l5 6c1.7 3 3 6 7 3.7 0 1.7 0 3.4-.4 5.5-1.8 0-3.2-.2-4.6-1-1.7-2-3.3-3.8-5-6l-3.6-5-5.6 4.5c3.4 1.3 5.4 2 7.3 3.2l5 6 4.4 4.6 3.6-4 3.5.8c-4.6 3.8-6 7.5 0 11-4.5 3.7-6.3 7.4-1 10.5-1.3 3-2.6 5.6-4.1 8.5-2.3 1-4.4 1.6-6.5 2.3v-.4c.7-2.1 1.3-4 2.3-5.6 1.9-1.7 5-4 4.7-5-1.3-3.4-4-1.5-6-.2-.3.2-.6 0-1-.2l2.5-6.5c-.4 0 0 0 .2-.1 1.6-1 3.3-1.7 4.9-2.6-.7-1-1.8-3-2-3-1.7.7-3 1.8-4.7 2.7-2 1-4 2-5.8 2.6 2.6-2.2 1-4 .2-5.7 2.8.6 5.6 1.5 6.2-2 .2-1-2-2.7-3.2-4-.5-.3-1.6 0-2.3-.3.5-4.3-1-6-5.1-5-.8-2.4-1.7-4.5-3.1-7.8-2.3 3.3-3.6 5.2-5.2 7.2-3.5 1.5-6 3.3-3 7-3.7-1.8-5.8 1-8.4 2-.3-.2-.4-.4-.2-1 1-2.2 2-4.1 3.4-6 3.7-.6 5.6-2.5 6-6l6.2-3c-2-1.7-3.2-3-5-4.6-1.4 2.2-2.4 3.9-4 5.6-1 0-1.8 0-2.5-.4 0-1.1 0-2 .3-2.7l5-5.1c1.4-.8 3-1.3 3.4-2.3.5-1.2 0-2.8 0-4.2-1.3 0-3.1-.2-4 .5-1 1-1.3 2.7-2.2 4-1.1-.4-2-.6-2.7-1.3 0-1.1 0-2 .3-2.7l5-5.1c1.3-.7 2.5-1.1 3.2-2 .7-1 1.4-2.4 1-3.3-.3-1-2-2.2-2.8-2-1 0-2 1.5-2.5 2.6-.5 1-.2 2.6-.5 3.7-1.8-.7-3.2-1.3-4.6-2.1 0-1 0-2 .3-2.8 3.7-.6 5.7-2.4 5.6-6M180 20.4c.8-1.3 2-2.5 2.3-4 0-.6-1.6-2-2.7-2.2-.7-.2-2.5 1.4-2.4 1.9.3 1.5 1.3 2.9 2.8 4.3m-9 2.7c1.3.8 2.5 2 3.9 2.3.7 0 2-1.6 2.3-2.7.2-.7-1.4-2.5-2-2.4-1.4.3-2.8 1.3-4.2 2.8M173 9.3c-.4 1.3-1.1 2.7-1 4 0 .6 2.2 1.2 3.3 1 .9-.2 1.5-1.6 2.2-2.4-1.3-1-2.6-2-4.5-2.6m-.6 26.5c1.5-.3 3-.5 4.6-1 0 0 0-2.3-.6-2.8-1-.6-3-1.1-3.3-.7-.8 1-.8 2.6-.7 4.4zM154 186c-1.8 1-3.6 1.9-5.3 3-2 1.3-4 2.7-6.2 3.7.3-2.1.9-3.9 1.8-5.6 4.6 1 5.3-2 6-5.4l2.2-2.8.3-.4-.4-1c0-1 0-1.8.2-2.6l.2-.4-.4-.9c0-.7 0-1.1.2-1.7l-.2-1.5c0-3.4 0-6.4.2-9.5 0-.4 0-.7-.3-1.4l-1.3-4-8-8c.3-1.4.6-2.6 1.4-3.7 1.5 0 2.5 0 3.7.3.3 1 .5 1.7 1 2 1 .9 2.3 2 3.5 2.1.8 0 2.3-1.8 2.2-2.7 0-1.2-1.2-2.5-2.1-3.4-.6-.7-1.7-1-2.6-1.7-1.2-1.8-2.4-3.3-4.5-6-1.5 3.2-2.5 5.2-3.8 7.3-4.2.4-4.8 3-4.8 6.4-2.4 1.7-4.6 3.2-7 4.5-.8-1.5-1.3-2.7-1.5-3.9 3.4-3.7 6.5-7.3 10-11 1.5-.5 3.2-.8 3.7-1.7.6-1.2.3-2.9.4-4.3-1.5.3-3.4.1-4.5 1-.9.7-.7 2.7-1.2 4-3.9 0-9.8 5.8-11 10.1-3.6.4-3.8-1.7-3.2-4 4.7-.7 5.3-3 3.6-6.8 5.8-3.7 11.3-7.1 16.8-10.2-.3 4.2 2.2 5.8 5.2 7.3l5.1 5c1.9 5.4 5 5 8.9 2.7v.3l-2.6 4c1 1.3 1.8 2.5 2.4 3.7l-1.2 1.1c-.4 10.1-.4 20-.6 29.9h-.9c-2 2-3.5 4-5.2 6zM9 147c0-.8 0-1.5.4-2.6 1.1-.4 1.9-.4 2.7 0l4 5.5 5-5c-3.1-1.2-5.1-2-7-3.1-1.7-2.1-3.3-3.9-5-5.6l-1.4-2.6c-1.1-1.9-3.7-4.8-3.2-5.5 2.3-3.2 3.8-7.6 9.1-7.9.4 0 .4 0 .2.3-3.4 4.7.4 5.4 3.2 7-1 1.4-2 2.6-3 3.4-.5-1.5-.8-3.2-1.7-3.7-1.2-.6-2.9-.3-4.3-.4.3 1.5.1 3.4 1 4.5.7.9 2.7.7 4 1.2 1.4 2.5 2.8 4.8 4.5 6.7 4.8 5.3 5.3 5.2 9-1 2.6-1.4 5.6-2.3 4-6 6-1 6.6-2.3 4-7 3.1.7 5.7 1.6 7.7-1.7.5-.9 2.6-.9 4-1l5 5c.3 1.1.7 1.9.6 2.7-1.5 0-2.6 0-3.7-.3-1.8-1.5-3.5-2.6-5.3-3.8-.5 1.1-1.6 3-1.3 3.3 1.3 1.2 3 2 4.7 3.2 1 2 2 3.5 3.1 5.1 1.3 1.9 2.6 3.7 3.5 5.5-1.8-.3-3.2-.6-4.7-1.3l-5.1-6-4.5-4.6-4.7 5c-1.8 1.2-3.3 2.4-5.5 4.2l6 4c.7 1.8 1.3 3.2 1.5 4.7-9.1-2.5-14.7-.6-17.9 5.9-1.4-.7-2.6-1.3-3.7-2.2-1.7-2.1-3.3-3.9-5-5.6zM132 10l9.8-4.5 3.7 5.4 4.5-4.7c1.8-2 2.7-1.3 2.7 1.4-1.8 1.6-3.3 2.7-6 4.9 3.2 1.5 5.2 2.5 7.2 3.7 0 1 0 2-.3 2.8-2.2 1.1-4 2.2-6.9 4 2.8 1.8 4.5 2.9 6.2 4.3 0 1.1 0 1.9-.3 2.7-2.4-1.6-4.6-3.1-7.6-5.4-.6 2-2 4.4-1.4 5 2.8 3 6.2 5.6 9.4 8.7-1.1 1.5-2.3 2.7-3.7 3.6-4-3.7-7.7-7.3-11.3-11.2.2-3.9-1.3-5.8-5-6.1-.6-3.7-2.5-5.6-6-5.9 0-1 0-2 .3-2.8 3.4-.8 6.3-1.8 4.6-6m11.4 14a3213.8 3213.8 0 0 1-3.6-3.8c-.7 1.3-2.3 3-2 3.7 1.1 2.3 3.1 2.8 5.6 0m-5.9-7.8c-1.3-.4-2.7-1.1-4-1-.6.1-1.2 2.2-1 3.3.2.9 1.6 1.5 2.4 2.2 1-1.3 2-2.6 2.6-4.5m7 3.8c1.3-.3 3-.4 3.9-1.2.5-.4 0-2.4-.7-3.3-.4-.6-2.7-.7-2.8-.6-.5 1.5-.7 3-.5 5M139.6 9l-1.9 4.1c1.1.5 2.3 1.4 3.4 1.3.9-.1 2.4-2 2.2-2.2-.8-1.2-2-2.2-3.8-3.2zM13 114c-2.4 0-2.4 0-10-7.3 1.9-2.4 3.7-4.7 6.1-7.4 2-2.3 3.4-4.3 5.1-6.3 2.7-.9 6.3-.7 4.6-5h.4c1.8 0 3.2 0 4.5.3-.6 4.3 3.1 4.2 5.2 6l5 5c4 3.8 8 7.2 12.3 10.8 2.1 3 4 6 5.5 8.8-1.5.4-2.6.7-3.8.7-1.4-2-2.8-3.7-4.1-5.3l-2.9 5.7-.3-.1c-2.1.3-3.9.7-5.7.8 0-2.5 0-4.5.3-6.6 2.1-.2 3.9-.3 5.6-.7.3 0 .7-2 .5-2-1.6-.9-3.3-1.6-5-2.3-.4-.2-1 0-1.3-.3.8-5 0-5.6-6-5 3.4-4.7-.3-5.4-3.3-7l-4.5-6.2c-1.8 2.7-3 4.6-4.7 6.5-2.6 1.4-5.5 2.3-4 6-1.2 0-2.3-.2-2.8.3-1 1-2.1 2.3-2.6 3.7-.2.6 1.5 2.5 2 2.4 1.4-.3 2.9-1.2 3.9-2.2.7-.7.6-2 1.2-3.2 2.7-.9 6.3-.7 5-5 1.8 0 3.2 0 4.5.3-.4 1.4-.6 2.6-1.1 3.6l-6 5.1c-2.6 1.4-5.5 2.3-3.6 6zM60 8c.1-2.5.5-4.5 3.2-1.6l4.3 4.5 3.6-6 9.4 5.3c.7 1.8 1 3.2 1.1 4.7-2.8-.5-5.8-1.6-6.3 2-.4 3 2 4.6 5 4.4.2 0 .4.5.4 1-1.8.7-3.3 1.2-4.8 1.3-1.6-1.3-3.5-3.3-4.7-3-3.2 1-2 3.9-1.6 6.4-5.3 1.9-8.5 5.7-11.5 9.8-2-.4-3.6-.6-5-1.2.4-1.1.6-2 1.2-2.8l6-6c1.8-1.2 3.3-2.4 6-4.5-3.1-1.5-5.2-2.5-7.1-3.8.4-1.1.6-2 1.2-2.8 1.8-1.2 3.3-2.4 5.5-4.2A2157.1 2157.1 0 0 0 60 7.7m6 6.6c-2 1.6-3 3.5-.5 5.2.7.5 3 .1 3.5-.6 1.9-2.7.3-4.1-3-4.6m4.6-4.7c0 1.4-.4 2.9.1 4 .3.5 2.4.6 3.3.2.8-.3 1-1.8 1.5-2.7-1.5-.6-3-1.3-5-1.5zM194 154l3.4 8.7c-3 2.6-5.4 6.2.8 9.7-.9 1.3-1.4 2.3-2.2 3-2.5 2.1-2.3 4 0 6.2 1.5 1.4 3.6 3.2-.7 4a304.1 304.1 0 0 1-3.9-4.5l-4.5 5-4.3 3c-2 1.3-4 2.7-6.2 3.8.7-1.8 1.6-3.2 2.8-4.7l5-5.1c1.7-1.7 3.1-3.3 4.5-4.9-1.7-1-3.3-2-5-3.4 0-1.4 0-2.5.5-3.6 1.5 0 2.7 0 3.8.4.3 1.3.4 2.6 1 3 1 .7 2.7 1.2 3.8 1 .8-.2 1.8-2.5 1.5-3-.8-1-2.2-1.7-3.5-2-.8-.2-1.9.5-2.8.4l-.5-5.6c-1.9.3-3.8.7-5.9.8.5-2.1 1.3-4 2.5-6 1.6 0 2.7 0 3.8.3-.9 4 2 4.2 4.2 4.3.8 0 1.7-2 2.5-3l-5.2-1.8c-.4-.1-1 .1-1.4-.1l.8-6.2 5.2.5zM94 8c.1-2.5.5-4.5 3.2-1.5 1 1.2 2 2.6 3.8 5.3l5.3-8.7 4.5 7.6h2c1-1.5 1.9-3 3-4.4 1.7-2 2.7-1.4 2.7 1.4-1.8 1.6-3.3 2.7-6 4.9 3.2 1.5 5.2 2.5 7.3 3.8.6 2.3 1.2 4.2 1.4 6.1-2.4-.7-4.5-1.3-6.5-2.4-1-2.2-2-4-3-5.8-1.9 1.3-4.8 2-3.4 5.4-1.8-.2-3.2-.4-4.6-1-1.1-1.7-2.3-3-3.4-4.4-.9 1.6-1.8 3.2-3 4.8-1.4.1-2.5.1-3.5-.2 0-1.2 0-2 .3-3 1.8-1.2 3.3-2.4 5.5-4.2a4310.2 4310.2 0 0 0-5.9-3.8m13.8 6.5c.4-1.3 1.1-2.7 1-4-.1-.6-2.2-1.2-3.3-1-.9.2-1.5 1.6-2.2 2.4 1.3 1 2.6 2 4.5 2.6zm0 0" fill-rule="nonzero" fill="#f3f3f5" fill-opacity="1"/><path d="M142 193c0 2.7-.8 3.8-3.5 2l-5.2-3.4c-1-3.7-2.8-5.6-6.4-6l-5.8-5.9c-.1-.4-.2-.6-.1-1.2.2-1.1.3-1.9.8-2.6 2.2-.3 4.1-.7 6-.6 1 2.2 2 5.4 3 5.4 6.8.4 2.6-6.1 4.8-8.6h9.7c0 1.9-.2 3.3-.6 4.8-3.5-2.3-6.3-2.6-8.7 2.5 2 .8 4 1.7 5.9 3 0 1.1 0 1.9-.4 2.6-1.1 0-1.9 0-2.7-.4-2.5-3.6-5-3.2-8.4-.1 2.1 1.3 3.8 2.4 5.6 3.8 2 1.8 4 3.2 5.9 4.7zm-34 0c0 3.4-1.5 3.8-3.8 1.6l-7.4-7.3c-.6-.5-1.4-.8-2.4-1.7-.4-1.4-.4-2.5 0-3.7 1.5-2.2 2.8-4.2 3.8-6.3 1.6-3 3-6.3 4.6-9 1.9 1.7 3.6 3 5.3 4.8 0 1.5 0 2.5-.4 3.6-1.7 1.3-3.1 2.6-4.5 3.9 1.6 1 3.2 2 4.9 3.5 0 1.1 0 1.9-.4 2.6-1.5 0-2.5 0-3.7-.4-3.1-4.8-3.8-4.8-7 .1 1.7 1 3.4 2.1 5.2 3.5 2 1.8 4 3.2 5.9 4.7zm0 0" fill-rule="nonzero" fill="#f3f3f5" fill-opacity="1"/><path d="M60 16l-1.1 3c-1 1.4-1.4 2.2-2.2 3l-3 2.2c-1 1-2 2-2.7 2.9-2.8-1.3-6.6-2-3.1-6.7 0-.3 0-.3.4-.4l3-2.2L48 15c-1.3-1.8-2.7-3.5-.1-5.7.1-.3.1-.3.4-.4L51 8c.9.5 1.7 1 2.8 2.1 1.2 1.7 2.2 2.9 3.4 4.2L60 16zm0 0" fill-rule="nonzero" fill="#fdfdfd" fill-opacity="1"/><path d="M68 188v3l-3.9-2.3-4.8-2.7c-.3 0-.3 0-.3-.4-1.4-1.8-2.7-3.2-4-5l.2-1 .1-.3.6-.4c.1-.8 0-1.5-.2-2.5-.6-6.4 3.9-4.3 6.9-4.7 4-.5 3.7 2.1 3.6 4.7 0 1.1 0 2.3-.2 3.6l-3.2 4.4 5.4 3.4zm0 0" fill-rule="nonzero" fill="#f3f3f5" fill-opacity="1"/><path d="M193 143c-3.5-2.8-7.1-5.6-10.5-8.6-.2-.2.8-1.9 1.4-3.2l.1-.3 4.2-3.9c.9-1 1.3-1.5 2.2-2.1h3.6l1 2v3a30.4 30.4 0 0 1-2.2 1.7c-1.4.2-2.4.1-3.4 0-1.5 4.9 1.9 4.2 4.6 4.3.6.5 1.2 1 1.7 2-1 2-1.8 3.5-2.8 5h.1zm0 0" fill-rule="nonzero" fill="#fefefe" fill-opacity="1"/><path d="M8 25l-4.7-8.8c3-2.2 6.5-4.7 10.2-7-1.8 4-.7 5.6 4.4 7 0 1 0 2-.2 2.8-1.5.3-2.6.7-3.7.6-.5-1.5-.8-3.2-1.7-3.7-1.2-.6-2.9-.3-4.3-.4.3 1.5.1 3.4 1 4.5.7 1 2.7.7 4 1.2-1 4.6 2 5.3 5.1 6l2 4.7h-.4c-2.1-.3-3.9-.7-5.6-1.4-.6-3.7-2.4-5.6-6-5.6zm72 166c-2.3.1-4.4 0-3.7-3.5 4.3.1 6-1.4 5-5.5 2-1.3 5.3-2.7 5.2-3.9-.2-3.4-3.1-2.8-5.5-2.4.3-1.8.7-3.2 1.3-4.7 1.6-.4 2.8-.8 4.3-.9 1.3 3.5 2.5 6.6 3.3 10-1.5 2-2.7 4-4.3 6-2.1 1.7-3.9 3.3-5.6 5zm0 0" fill-rule="nonzero" fill="#f3f3f5" fill-opacity="1"/><path d="M194 154l-5.2-.5-.8 6.2v.4c-1.2 0-2.3 0-4-.4-.7-2.1-1-3.8-1.2-5.6 1.4-1.4 2.7-2.9 4.2-5 .7-1.1 1.3-1.6 1.9-2h4.6c.4 0 .4 0 .4.4l1 4.6s0 .5-.2.9c-.5.6-.7.8-.8 1.2v-.2zm0 0" fill-rule="nonzero" fill="#fcfcfc" fill-opacity="1"/><path d="M13.2 114.1c-2-3.8.8-4.7 3.6-5.8 1.4 1 2.3 2 3.2 3l3.1 3 2 2c0 1.1 0 2-.2 3a15.1 15.1 0 0 1-2 1.7c-1 0-2 0-3-.3-.7-.7-1.3-1.2-1.8-2l.2-3.7h-4.2c0-.3-.3-.6-.8-.9zm0 0" fill-rule="nonzero" fill="#fefefe" fill-opacity="1"/><path d="M8.9 36.3c5.8 2.3 10.2 8.2 9.2 12.4v.4l-8.6-5c-1.2-1-2-1.8-3-3.2 0-1.2.4-2 .7-2.8L9 36.4zm0 0" fill-rule="nonzero" fill="#fdfdfd" fill-opacity="1"/><path d="M46 191l-3.7.3c0-1.2-.2-2.4 0-3.8l6-2.6v-2l-6-3c.3-1 .5-2 1.1-2.8 2-1 3.8-2 5.6-2.6l2.1 8v3.6h-.3c-1.8 1.7-3.2 3.3-4.6 5zm0 0" fill-rule="nonzero" fill="#f3f3f5" fill-opacity="1"/><path d="M196 119c-.8 1-1.6 1.8-3 3h-3.2c-1-1-1.9-2-2.7-3.3l.1-3c1-1 2-1.9 3.2-2.7h2.6c1 .8 1.8 1.6 2.9 3l.1 3zm-8-11c-.3-.8-.6-1.6-.9-3 1-1.4 2-2.2 3.2-3h2.6c.9.8 1.8 1.7 2.8 3.1.2 1.4.2 2.1.2 2.9-.8 1-1.6 1.8-3 2.9-1 .1-1.5.1-2.1-.1l-2.8-2.7zm0 0" fill-rule="nonzero" fill="#fdfdfd" fill-opacity="1"/><path d="M28 193l-.7 3.1c-1-.8-1.8-1.1-2.3-1.7-2.3-2.8-4.4-3-7-.2-1 1.3-2.6 2.8-2.7-1 3.3-1.5 4.4-3.4 3-6.3l7.6-1-.2.3c-3.1 3.8-1.6 5.7 2 6.7zm0 0" fill-rule="nonzero" fill="#f3f3f5" fill-opacity="1"/><path d="M189 25h4.6c1 .5 1.6 1 2.3 2.1v3c-.7 1-1.5 1.8-2.6 2.8a34.3 34.3 0 0 1-6-5.8c.6-1 1-1.5 1.7-2zm0 0" fill-rule="nonzero" fill="#fdfdfd" fill-opacity="1"/><path d="M59 186a1126.2 1126.2 0 0 1-1.6 4l4.9 4.6-1 1.3-5.8-4.6c-1.4 1.3-2.6 2.6-4 3.6-.3.2-1.5-.8-2-1.6l4.7-3.2L51 186h8zm15-1c-.8 0-1.5 0-2.6-.4-.4-1.2-.4-2-.2-3 .8-2.7 1.5-5.2 2.4-7.5 2.4 1 4.4 2 6.4 3.4 0 1.5 0 2.5-.3 3.5-4-1-4.8 1.5-5.7 4.1zm101 9c-.7.3-1.6 1-2.1.7-1.8-.7-3.4-1.8-5.5-3-1-3.7-2.8-5.6-6.2-6 .4-1.4.6-2.5 1.2-3.7 1.4-.4 2.4-.8 3.5-.8-1.2 5 1.3 6.4 5.2 7.2 1.3 2.1 2.7 3.9 4 5.6zm0 0" fill-rule="nonzero" fill="#f3f3f5" fill-opacity="1"/><path d="M7.7 58.1c3.8 0 5.7 1.8 6.1 5.8-.7 1.1-1.3 1.6-2.2 2H9l-2.7-3.2C6 61.4 6 60.7 6 60L7.7 58zM14 82c0 3.5-2 5.4-5.6 6-1-.5-1.5-1-2.2-2l-.1-2.9L9 80.4c.9-.3 1.6-.3 3-.2 1.1.7 1.6 1.3 2 1.9zm90 103l3.9.1c1.1.7 1.6 1.3 2.1 2.3v3.6l-1.9 1.7a25.7 25.7 0 0 1-5.9-4.7c.6-1.4 1.2-2.2 1.7-3zm0 0" fill-rule="nonzero" fill="#fefefe" fill-opacity="1"/><path d="M86 186c1.2-2 2.4-3.9 4.2-5.8 1.7.7 2.7 1.3 3.8 2v3.5c-.1.7-.3 1-1.2 1.3-2.4.4-4.1.8-6 1-.4-.7-.6-1.3-.7-1.8zm0 0" fill-rule="nonzero" fill="#fcfbfc" fill-opacity="1"/><path d="M25.7 8c2 1 3.7 2.1 6.6 4-3 1.8-4.7 3-7.1 4-1.1-.8-1.6-1.4-2-2.3a666.7 666.7 0 0 1 0-3.6l2.7-2zM154 16l-7.3-3.5c2.6-2.1 4.1-3.3 6-4.5 1.2.5 2 1 3.1 2 .2 1.7.2 2.8 0 4.1-.7.8-1.3 1.2-1.9 1.7zm0 0" fill-rule="nonzero" fill="#fefefe" fill-opacity="1"/><path d="M120 16l-7.3-3.5c2.6-2.1 4.1-3.3 6-4.5 1.6.8 2.8 1.6 4 2.9l-.8 3.3c-.7.8-1.3 1.2-1.9 1.7zm1.2 164c2 1.8 3.9 3.5 5.6 5.7-.5.7-.7 1-1.1 1.3l-4.7 1-1.1-2c-.4-1.7-.6-2.9-.7-4.2l2-1.8zM82 15l-1.1-4.7 1.3-1.2c1.2-.6 2-.8 2.8-1 1.2.8 2.4 1.6 3.6 3l-.7 3.3c-.7.8-1.3 1.2-2.2 1.7-1.5-.3-2.6-.7-3.7-1zm0 0" fill-rule="nonzero" fill="#fdfdfd" fill-opacity="1"/><path d="M162 182c-.2 1.2-.5 2.3-1 3.8-.6.6-.8.9-1.3 1.2l-4.6 1-1-1.7c1.6-2.3 3.2-4.3 5.4-6 1.2.8 2 1.3 2.6 1.9zm0 0" fill-rule="nonzero" fill="#fcfcfc" fill-opacity="1"/><path d="M8 169c0-.8 0-1.7.5-2.8 2-1.4 4-2.5 6.8-4.3L9 158c0-.8 0-1.5.4-2.6 1-.4 1.9-.4 2.7 0l5.8 6c0 .8 0 1.2-.4 1.7-2 2.3-3.8 4.6-5.5 7h-.3c-1.4-.5-2.6-.7-3.7-1zm0 0" fill-rule="nonzero" fill="#f3f3f5" fill-opacity="1"/><path d="M7.7 169.2c1.4 0 2.5.3 4 1 2.5 4.2 1.4 5.8-3.8 6.8-.6-.5-1.2-1-1.9-2.1a29.1 29.1 0 0 1 0-2.9l1.7-2.8zm159-159.3c.3 3.7-1.7 5.5-5.6 6-1.1-.7-1.6-1.3-2-2.2.3-1.5.7-2.6 1-3.7l2.2-1.7c1.2 0 2 .4 2.8.7l1.7.9zM188 16l-7.3-3.5c2.6-2.1 4.1-3.3 6-4.5 1.2.6 2 1.1 3 2.2.3 1.6.3 2.7.2 4l-1.9 1.7zm0 0" fill-rule="nonzero" fill="#fefefe" fill-opacity="1"/><path d="M160 187c.1-.3.3-.6.8-1 3.8 0 5.6 1.9 6.2 5.6-.8 1-1.6 1.5-3 2.2h-2l-2.7-3.1c0-1.6.4-2.7.7-3.8zm-34 0c.1-.3.3-.6.8-.9 3.8-.1 5.6 1.8 6.2 5.5-.9.9-1.7 1.4-3.1 2.1-1 .3-1.4.3-1.9.3l-.1-.2c-.3-.5-.6-.7-.9-.8l-1.7-2.2c0-1.6.4-2.7.7-3.8zM18 16c-5.2-1-6.3-2.6-4.1-6.7.1-.3.1-.3.4-.4L17 8c.9.5 1.7 1 2.8 2.1.2 1.7.2 2.8 0 4L18.1 16zm0 0" fill-rule="nonzero" fill="#fdfdfd" fill-opacity="1"/><path d="M175.1 193.8c-1.4-1.5-2.8-3.3-3.8-5.5.8-1 1.2-1.6 2-2.3 1.1-.4 2-.6 3-.8 1 1 2 2 2.7 2.9l-2.9 4.7-1 1zm0 0" fill-rule="nonzero" fill="#fefefe" fill-opacity="1"/><path d="M189 36h4.6c.7.1 1 .3 1.3 1.2V41c-.2.1-.5.3-.8.8-4.1 2.6-5.4-.5-6.8-3.7.6-1 1-1.5 1.7-2zm0 0" fill-rule="nonzero" fill="#fdfdfd" fill-opacity="1"/><path d="M12 155H9.4c-.4 0-.4 0-.5-.2-.3-.5-.6-.7-.9-.8a32.3 32.3 0 0 1-1.7-2.2c0-1.2.4-2 .7-2.8l2-1.7a24.6 24.6 0 0 1 5 5.6c-.8 1-1.4 1.6-2 2zm-6 27c.5-.6 1-1.2 2-1.9 2 .6 3.5 1.2 5 2.1l.8 1.1c-1.7 1.8-3.3 3.2-5 4.6a105.1 105.1 0 0 0-1.9-2.2c-.6-1.6-.9-2.7-1.1-3.8zm0 0" fill-rule="nonzero" fill="#fefefe" fill-opacity="1"/><path d="M13 182l-4.7-2c-.3-.8-.2-1.7-.3-2.8 5.1-1.3 6.2-3 4-7-.1-.3-.1-.3.2-.3 2 .3 3.8.7 5.5 1.4 0 1.5 0 2.5-.3 3.6-4.9.5-4.7 3.8-4.6 7zm-4 6.4c1.6-1.8 3.3-3.2 5.3-5.2 1.9-2.2 3.4-4 5.2-5.4 1.2 1.1 2.1 2 2.7 3l-5.5 5.2c-1.8 1.7-3.2 3.3-4.6 5H9v-2.6zm0 0" fill-rule="nonzero" fill="#f3f3f5" fill-opacity="1"/><path d="M8.9 47.3c1.8 1.2 3.4 2.6 4.8 4.5A26 26 0 0 1 12 54c-1.1.3-2.2.7-3.7 1-.8-1-1.3-1.7-2-3.1 0-1.3.4-2 .7-3l1.9-1.6zm0 0" fill-rule="nonzero" fill="#fdfdfd" fill-opacity="1"/><path d="M8.9 158.3c1.8.8 3.5 1.9 6.4 3.7-3 1.8-4.7 2.9-7 4-.8-1-1.3-1.7-2-3.1-.3-1-.2-1.4-.2-2 1-.7 1.8-1.5 2.8-2.6zM60.3 16c-1.2-.5-2-1-3.1-2-.2-1.4-.2-2.1-.2-2.9 1-.8 1.8-1.6 2.8-2.7 1.8.8 3.5 1.9 6 3.5-2.3 1.8-3.7 3-5.6 4.2zM188 97c1.4-1.7 2.8-3.3 4.6-5 .9.6 1.3 1.2 2.2 2.2.6 1.2.9 2 1.1 2.8-.8.6-1.6 1.2-3 1.9-1.4.1-2.2.1-3-.2L188 97zm0 0" fill-rule="nonzero" fill="#fefefe" fill-opacity="1"/><path d="M8 25.3c3.6-.3 5.4 1.6 5.9 5.6-.7 1.1-1.3 1.6-2 2H9.5c-.4 0-.4 0-.4-.4L7 27l1-1.7zm0 0" fill-rule="nonzero" fill="#fdfdfd" fill-opacity="1"/><path d="M131.8 9.9c1.8 4.3-1 5.3-4.5 5.8-.7-.7-1-1.2-1.4-2-.4-1.1-.6-2-1-2.7a59.4 59.4 0 0 1 3.3-2.7c1.2 0 2 .4 2.8.7 0 .3.3.6.8.9zm0 0" fill-rule="nonzero" fill="#fefefe" fill-opacity="1"/><path d="M189 47l4.7 1c.4 0 .4 0 .5.3.3.5.6.7.9.8v.7l-3.6 4.1c-1.4-1.4-2.8-2.8-4.2-4.9.6-1 1-1.5 1.7-2zM12 144H9.4c-.4 0-.4 0-.4-.4L7 138l1.9-1.7a24.6 24.6 0 0 1 5 5.6c-.7 1.1-1.3 1.6-1.9 2zm30 36l6.1 2.8.1 2c-1.9.8-3.8 1.6-6 2.2l-1.2-1.3c-.6-1.2-.9-2-.8-3 .8-1 1.2-2 1.7-2.9zm145.1 6.3c1.4-1.9 2.9-3.5 4.3-5.2l3.5 4.5c-.3.5-.6.7-1.2 1.2-1.9.6-3.3.9-4.8 1.2l-1.9-1.7zm0 0" fill-rule="nonzero" fill="#fdfdfd" fill-opacity="1"/><path d="M74.3 185.1c.6-2.7 1.5-5.3 5.5-4l1.2 1c1.3 4-.4 5.5-4.7 5l-2-2zM93.9 8.3c1.8.8 3.5 1.9 6 3.5-2.3 1.8-3.7 3-5.7 4-1-.7-1.6-1.2-2.3-2l-.9-2.7c1-.8 1.8-1.6 2.8-2.7zm0 0" fill-rule="nonzero" fill="#fefefe" fill-opacity="1"/><path d="M71 181.9v2.7c-1 1.2-1.8 2-3 3-1.7-.8-3.4-2-5.4-3.1 1.3-1.8 2-3 3.5-4.2 2 .5 3.4 1 4.8 1.6zm0 0" fill-rule="nonzero" fill="#fdfcfd" fill-opacity="1"/><path d="M14 72l-4.6 5c-1.2-1-2-1.8-3-3.2-.3-1-.3-1.4-.3-1.8l3.2-2.7c1.6.4 2.7 1 4 2 .3.5.6.7.9.8zm0 0" fill-rule="nonzero" fill="#fdfdfd" fill-opacity="1"/><path d="M188 16.3c.6-.8 1.2-1.3 2.2-2 1.2-.3 2-.3 2.7-.3l1.8 2c.3 1.3.2 2 .2 3l-1.9 1.7c-1.9-1.2-3.6-2.7-5.2-4.4zM14 93c-1.4 2-2.9 4-4.6 6l-2-1.8c1.2-2 2.6-4 4.7-5.9 1 .6 1.5 1.1 2 1.7zm71.6 93c.5.6.7 1.1 1.2 2.1.6 1.3.9 2 1.1 2.9l-1.2.8-3.8 1.2-2.7-1.9c1.5-1.8 3.2-3.5 5.3-5.1zm-34.9 0c1.2 1.2 2.1 2.3 3.4 4l-4.7 2.9c-1.2-.5-2-1.1-3-1.8 1.2-1.8 2.6-3.4 4.4-5.1zm0 0" fill-rule="nonzero" fill="#fefefe" fill-opacity="1"/><path d="M119 182l.9 3.7c-1.7 1.4-3.6 2.6-5.5 3.7-1.2.6-2.4 1-4 1.6-.3-1-.3-2.1 0-3.5 5 1 4.7-3.5 7-5.5a14.3 14.3 0 0 1 1.7 0zm0 0" fill-rule="nonzero" fill="#f3f3f5" fill-opacity="1"/><path d="M12.3 191.1a19.5 19.5 0 0 1 4.5-4.9c.6.5 1 .6 1.2.7 1.8 3 .7 4.8-2.6 6-1.2-.5-2-1-3-1.8zm16 1.8c-4-1-5.5-2.8-2-6.5 2 1.4 3.4 3 4.8 4.7a68.5 68.5 0 0 1-2.7 1.9zm0 0" fill-rule="nonzero" fill="#fefefe" fill-opacity="1"/><path d="M36 186l-2.2 1.7a18.6 18.6 0 0 1-4.3-5.6c2.4-.3 4.4-.6 6.4-.3v4.2zm0 0" fill-rule="nonzero" fill="#fdfdfd" fill-opacity="1"/><path d="M29 182.2c1.4 2 3 3.8 4.6 5.8.3.8.3 1.5.3 2.7v.3h-2.6c-1.8-1.6-3.2-3.3-5-5-.3 0-.3 0-.3-.4 0-1.5 0-2.5.4-3.6l2.6.2zm160 6.2c1.4-.7 2.9-1 4.6-1.3-1.4 2-3.2 4-5.3 6l-.3-.1 1-4.6zM6.6 27c1 1.8 1.6 3.5 2.3 5.6-2-1-4-2.4-7.2-4.6l4.9-1zm0 111c1 1.8 1.6 3.5 2.3 5.6-2-1-4-2.4-7.2-4.6l4.9-1zm187.3-2.3c-2.6.3-6 1-4.5-4l3.3.2c.6 1.1.8 2.3 1.2 3.7zM14 115.4c1.3-.4 2.5-.4 4.2-.4 0 1.3-.1 2.3-.5 3.7-1.5.7-2.6 1-3.7 1.3v-4.6zM68 191l6.2 3-1 1.7c-2.6.4-4-1.7-5.2-4.4v-.3zm-31.6-5c-.4-1.3-.5-2.5-.4-4.4.3-.8.6-1 1-.7 1.1.9 2 1.5 3 2l.9 2.7c-1.3.3-2.7.3-4.5.3zm51.9 5c-.6-.8-.8-1.6-1.2-2.7 1.6-.6 3.4-1 5.5-1.3-1 1.3-2.5 2.7-4.3 4zm105.1-48c.5-1.5 1.5-3 2.5-4.7 2.8 2.1 2.4 3-2.5 4.7zm1.6-61l3.7 2.5-4.4 3.4c-.3.1-.3.1-.3-.2l1-5.6zm-35.4-72c0 1.1-.3 2.2-1 3.7-1.1.3-1.9.4-2.6.4v-3.6c1-.4 2.1-.4 3.6-.4zm35.8 142c-.7-1.4-1-2.8-1.4-4.6 4.7 3 4.7 3 1.4 4.6zm-69.8 35c0 1-.3 2.2-.6 3.6-1.3-.4-2.5-1.2-4-2.3 1.3-.6 2.7-1 4.5-1.3zm34 0c0 1-.3 2.2-.6 3.6-.8.3-1.5.3-2.7.3h-.3l-.9-2.7c1.3-.6 2.7-1 4.5-1.3zM13 71l-3.7-2c-.3-.8-.3-1.5-.3-2.7.8-.4 1.5-.4 2.7 0 .7 1.8 1 3.2 1.3 4.7zm180-57.4c-.8.4-1.5.4-2.6.4-.4-1-.4-2.1-.4-3.6 1 .7 2 1.8 3 3.2zM83 193.3c1.1-.7 2.2-1 3.6-1.3-.7 1.2-1.7 2.4-2.7 3.6l-1-2.2zM20 14v-3.6c.8-.3 1.7-.3 2.8-.3.3 1 .3 2-.1 3.5-1.1.4-1.9.4-2.7.4zm145-5.4c-.8 0-1.6-.2-2.7-.6.1-1 .6-1.9 1-2.8l1.7 3.4zm-148-1c-.8.6-1.6.9-2.7 1.2.2-1.1.6-2.4 1.1-3.7L17 7.5zm34 0c-.8.6-1.6.9-2.7 1.2.2-1.1.6-2.4 1.1-3.7L51 7.5zM190 122h2.7c.6.8.9 1.6 1.2 2.7-1 .3-2 .3-3.5 0-.4-1.1-.4-1.9-.4-2.6zM124.7 11c.6.8.8 1.6.8 2.7-1.3.3-2.4.3-3.5.3.2-.9.3-1.7.7-2.8.7-.2 1.2-.2 2-.2zM85 7.6c-.8.6-1.6.9-2.7 1.2l1-3.7 1.6 2.4zM5.7 182.1c.5 1 .8 2.1 1.2 3.6-1-.1-2.2-.6-3.4-1l2.2-2.6zM90.7 11c.6.8.8 1.6.8 2.7-1.3.3-2.4.3-3.5.3.2-.9.3-1.7.7-2.8.7-.2 1.2-.2 2-.2zm-34 0c.3.8.3 1.5.3 2.7-1-.7-2-1.9-3-3.3.8 0 1.6.3 2.7.6zM131 8.6c-.8 0-1.6-.3-2.7-.6.1-1 .6-1.9 1-2.8.6 1 1.1 2 1.6 3.4zM6.6 7.3c-.6.3-1.4.3-2.1.4l.3-2.1 1.8 1.8zm0 30.7c0 .8-.3 1.6-.6 2.7-.9 0-1.8-.5-2.6-.9L6.6 38zm188.7 3c-.3-1-.3-2.1-.3-3.6 3.4 2.2 3.4 2.4.3 3.6zM190 99h2.6c.4.8.4 1.5.4 2.6-.8.4-1.5.4-2.6 0-.4-1.1-.4-1.9-.4-2.6zM5.7 83c.3.7.3 1.5.3 2.6-.9-.2-1.7-.7-2.6-1.2.6-.5 1.3-1 2.3-1.4zm189.7-64c-.3-.8-.2-1.7-.3-2.7.8.1 1.7.5 2.7.9-.7.6-1.3 1.2-2.4 1.9zM5.7 172c.3.7.3 1.5.3 2.6-.9-.2-1.7-.7-2.6-1.2.6-.5 1.3-1 2.3-1.4zm189.7-42c-.3-.8-.2-1.7-.3-2.8.8.1 1.7.5 2.7 1l-2.4 1.9zM5.7 60c.3.7.3 1.5.3 2.6-.9 0-1.8-.4-2.6-.8.6-.6 1.3-1.2 2.3-1.8zm190.6 37c-.6-.8-.8-1.6-1.2-2.7.8 0 1.7.5 2.7.8-.4.6-.7 1.2-1.4 1.8zM6.7 49c0 .8-.3 1.6-.6 2.7-.6-.2-1.3-.8-1.9-1.3.7-.4 1.4-.9 2.5-1.4zm0 100c0 .8-.3 1.6-.6 2.7-.6-.2-1.3-.8-1.9-1.3.7-.5 1.4-1 2.5-1.4zm189.6-41c-.3-.7-.3-1.5-.3-2.6.2.6.4 1.6.3 2.6zM5.7 161c.3.4.3.9.3 1.7-.8 0-1.7-.3-2.5-.6l2.2-1.1zm32.5 34.8c-.2-.6-.2-1-.1-1.6l1.3.3c-.3.4-.6.9-1.2 1.2zM196.3 30c-.3-.7-.3-1.5-.3-2.6.2.6.4 1.6.3 2.6zm0 89c-.3-.7-.3-1.5-.3-2.6.2.6.4 1.6.3 2.6zm-5.3-8h1.7c.3.4.3.9.3 1.7-.8.3-1.5.3-2.6 0 0-.8.3-1.3.6-1.7zm-72.4 84c-.4.2-.8.2-1.2.2v-.5c.4 0 .8 0 1.2.3zm-23.1-.4c-.1.4-.4.7-.7 1l-.3-.3c.3-.3.6-.5 1-.6zM197.4 7.5c-.4-.1-.7-.4-1-.7l.4-.3c.3.3.5.6.6 1zM128 194.3c.4-.3.9-.3 1.6-.3.1.5-.1 1-.4 1.6-.4-.3-.8-.6-1.3-1.3zm25-.3l-1 1.5-.6-.5c.3-.3.6-.6 1.3-1h.3zm9 .3c.4-.3.9-.3 1.6-.3.1.5-.1 1-.4 1.6-.4-.3-.8-.6-1.3-1.3zm25-.3l-1 1.5-.6-.5c.3-.3.6-.6 1.3-1h.3zm10.5.6c-.1.4-.4.7-.7 1l-.3-.3c.3-.3.6-.5 1-.6zM5.7 72c.3.4.3.9.3 1.6-.5.1-1-.1-1.6-.4.3-.4.6-.8 1.3-1.3zM156 191c-.1.3-.3.6-.8.9l-.2.1c.1-.3.3-.6.8-.9l.2-.1zM7 193c.1-.3.3-.6.8-.9l.2-.1c-.1.3-.3.6-.8.9l-.2.1zm147 0c.1-.3.3-.6.8-.9l.2-.1c-.1.3-.3.6-.8.9l-.2.1zM7 193h-.1.1zm120.1.2c.2-.1.5 0 .8.6-.2.1-.5 0-.8-.6zm26.9-.2c-.1.3-.3.6-.8.9l-.2.1c.1-.3.3-.6.8-.9l.2-.1zm33 1c.1-.3.3-.6.8-.9l.2-.1c-.1.3-.3.6-.8.9l-.2.1zM8 192c.1-.3.3-.6.8-.9l.2-.1c-.1.3-.3.6-.8.9l-.2.1zm186.2-38.1c-.1-.2 0-.5.6-.8.1.2 0 .5-.6.8zm-186.1.3c.2-.1.5 0 .8.6-.2.1-.5 0-.8-.6zM194 81c.3.1.6.3.9.8.1.2.1.2-.1.1-.5-.3-.7-.6-.8-.9zm.9-32.2c-.2.1-.5 0-.8-.6.2-.1.5 0 .8.6zM34 191l.4.4-.3-.3-.1-.1zm0 0" fill-rule="nonzero" fill="#f3f3f5" fill-opacity="1"/><path d="M94 19.3l4-.1 6-.1 5 .8 6 .7 6.8 2.1c1 .3 1.7.5 2.4.9 2.3 1 4.3 1.8 6.6 3 2.6 1.8 5 3.2 7.3 4.7l11.5 11.2 4.4 6c0 .2.4.6.4 1l3.5 6c0 .3 0 .5.4 1l.5 1 2.2 7 1.3 6.6-1.6 26c-2.7 6.1-5.3 11.6-8.1 17.2l-9 10.8c-.4.2-.5.4-.6.7a2238.9 2238.9 0 0 1-17.1 10.7c-2.3 1-4 1.7-6.2 2.4-4.1.9-7.8 1.7-12 2.4l-3.8.2h-6l-5-.3-10.7-2.4-5.7-2-16.2-9.9-3.1-2.9-3-3c-.6-.8-1.2-1.3-1.7-1.8l-6-9.1-5.8-13-1.8-12c-.1-3.9-.2-7 0-10.3l.3-3c1-4.5 2-8.6 3.3-13 .5-1 .8-1.8 1.4-2.7 1-.4 1.7-.8 2.7-1l4 2.6-2.4 6.7-1.4 5.9-.7 7.2v4c0 2.5.3 4.5.4 7l1 5c1.6 4.1 3 8 4.8 12l4 6 5 6 7 6 6 4c2 .5 3.8.4 5.3 1 3 1.2 5.8 2.8 9 4.4l2.8.6c3.8.4 7.3.5 11.2.7l8-1 5-1.1 4-1.2 7-3 3.2-2c1.7-1 3-2.1 4.6-3.2l1.2-1 3.8-3.2 3.3-3.7c.7-.7 1-1.3 1.8-2l2-2.9c1.2-1.8 2-3.3 3-5 1.7-3.9 3-7.5 4.6-11.4l1.3-7 .5-7v-3l-.8-6-2.4-8c-1.3-3.3-1.8-7.4-4-8.7-2.8-1.6-2.8-4-4.1-6.3l-5.3-5.9c-2-1.8-4-3.3-6-5-4.4-2.4-8.6-4.5-13.1-6.7-1.3 0-2.2.2-3.3 0-2.8-1-5.6-1.6-8.5-2.4-1-.2-2-.2-3.4-.3h-7.8l-4.4.7L82 30.2c-4.5 2-8.6 4-13 6.2L64 40l-2.8.2-1-.5-1.3-2.5c2.7-4.2 5.9-8 11.5-10l6-3 5-1.7c.5-.3 1-.5 1.2-.4l3.2-1.2.9-.2 7.7-1.2zm0 0" fill-rule="nonzero" fill="#57b3f3" fill-opacity="1"/><path d="M34 47l.1-3c1-1.5 2-2.3 3.2-3 1.5-1 2.6-2 3.7-3h.3c3.8-3.5 4.8 0 7 2.2-1.5 1.3-3 2.4-4 3.7-1 1.2-1.5 2.8-2.3 4.4-.3.5-.6.7-1.3.8h-4.9l-1.7-2zm0 0" fill-rule="nonzero" fill="#fdfdfd" fill-opacity="1"/><path d="M20.3 32.1c-1-1.5-1.6-3-2-5 .7-1.4 1.2-2.3 2-3.2 1-1 1.9-2 2.8-3.3.7-.8 1.3-1.2 1.9-1.7h4l2 4.8c-3.3 2.7-7 5.5-10.7 8.3zm0 0" fill-rule="nonzero" fill="#fefefe" fill-opacity="1"/><path d="M37 41c-1 .8-1.8 1.6-2.8 2.7-1 .3-1.6.3-3 .2-1.1-.7-1.6-1.3-2-1.9 1.7-2.8 3.3-5.5 5-8.7 0-.4 0-.4.4-.4 2.2-.4 4-1 6-.9.3 0 .6 2.6.8 4l-.1 2h-.4c-2.4 0-4.8-.5-3.6 3zm1.7 31c0 .8 0 1.5-.5 2.6L34 77c-3.2-2.7-6.4-5.4-9.4-8.2-.5-.4 0-2.8.4-3 1.7-.6 3.5-.6 5.7-.8.4 0 .4 0 .4.4 0 5.7 4.8 5 7.7 6.7zm0 0" fill-rule="nonzero" fill="#fdfdfd" fill-opacity="1"/><path d="M34 77.4c1.3-1 2.5-1.7 4-2.4.4 3 .4 6 .4 9.6-1.8 1.2-3.5 2-6.2 3.3-1-1.4-2.1-3.3-3.2-5.8.7-1.1 1.3-1.6 1.9-2 1-.8 2-1.5 3-2.6zm0 0" fill-rule="nonzero" fill="#fcfcfc" fill-opacity="1"/><path d="M40 97c2.3 4 4 8.1 6 12.6-4-3-8-6.5-11.8-10.6.7-1 1.3-1.6 1.9-2h4zm0 0" fill-rule="nonzero" fill="#f6fafc" fill-opacity="1"/><path d="M51.1 27.3c.7-1.2 1.5-2.1 3-3.2 1.4-.1 2.2-.1 3.2 0 1 1 2 2 2.7 2.9-1.8 2-3.6 3.8-6 5.8-.8-.2-1-.4-1-.7l-1.9-4.7zm0 0" fill-rule="nonzero" fill="#fdfdfd" fill-opacity="1"/><path d="M43.3 56.1c-.3.8-.7 1.5-1.5 2.6-2.3.6-4 1-6 1.1L34 58l1-2.8c1-1 1.5-1.6 2.3-2.2 1 0 1.9 0 2.9.2l3 3zm0 0" fill-rule="nonzero" fill="#fdfdfe" fill-opacity="1"/><path d="M37 53l-1.7 2-7.5-3.4c2.6-2 4.1-3.3 6-4.5.8.6 1.3 1.1 2.2 2.2.7 1.6.9 2.7 1.1 3.8zm0 0" fill-rule="nonzero" fill="#fefefe" fill-opacity="1"/><path d="M29 31c0-3.5 2-5.4 6-5.9.8.3 1 .6 1 1.3L34 33h-2.9c-1.1-.8-1.6-1.4-2-2zm-4-12.2l-2.2 2c-1.2.3-2 .2-3-.1L17.9 19l-.1-2.8c.6-.8 1-1.4 1.8-2.1l3-.1c.9.6 1.4 1.1 2.1 1.8.3 1 .4 1.8.3 3zM24 88h-4.6c-.5-.6-.7-1.3-.5-2l1.2-4.5c1.5.6 3 1 4.4 1.8.6.3.8 1.4 1.2 2.6-.6 1-1.1 1.6-1.7 2zm0 0" fill-rule="nonzero" fill="#fdfdfd" fill-opacity="1"/><path d="M42 25c3.5 0 5.4 2 5.9 6-.7 1.1-1.3 1.6-2.2 2-3.3-1.5-5.2-3.5-4.7-7l.2-.1c.5-.3.7-.6.8-.9zm-8.3 33c.8.6 1.3 1.1 2.2 2.1.8 4.4-.8 6.1-4.9 4.8v.1c-3.2-3.6-.9-5.4 2.7-7zm0 0" fill-rule="nonzero" fill="#fefefe" fill-opacity="1"/><path d="M12 54.4c.5-1 1-1.5 1.7-2.2 6.3 3 6.5 4 1.7 8-1.2-1.8-2.3-3.6-3.4-6zM26 38c-3.2 6-4.2 6.3-8.3 1.5 1.9-1.2 3.7-2.3 6.2-3.3 1.1.7 1.6 1.3 2 1.9zm0 0" fill-rule="nonzero" fill="#fdfdfd" fill-opacity="1"/><path d="M36 96.6c-.6 1-1.2 1.3-2 2.1-1.7-1.2-3.3-2.6-4.7-4.6l1.7-3c1.7 1.6 3.3 3.4 5 5.5zm0 0" fill-rule="nonzero" fill="#fefefe" fill-opacity="1"/><path d="M31 90.7c-.5 1.2-1 2-1.7 3-2.3-1.3-6-1.1-5.4-5.4l2-2c1.8 1.2 3.4 2.6 5 4.4zM13 71.2a79 79 0 0 1-1-4.9c.5-.9 1.1-1.3 1.8-2 1.7.8 3.3 1.8 5 2.8l-4.5 4.8c-.6 0-.9-.1-1.2-.6zM12 33.3l1.8-2c1.9 0 3.6.4 5.7.7-.6 2-1.6 4.1-3 7.3-2.1-2.6-3.3-4.1-4.5-6zm0 0" fill-rule="nonzero" fill="#fefefe" fill-opacity="1"/><path d="M48 20c-.7 0-1.3.2-2 .1-1.4-.2-3-.3-4.2-1-.5-.3-.5-2.7-.2-2.9 1.4-.7 3-.9 4.6-1.2h1.3c.4 0 .4 0 .4.4V20h.1zm0 0" fill-rule="nonzero" fill="#fdfdfd" fill-opacity="1"/><path d="M46 33l2-1.7c1.4 0 3 .3 4.7.7l1.1 1c0 1-.3 1.7-.9 3l-1.2 1.3c-4 1-4.8-1.5-5.7-4.1zm-19.7 5l-2-1.8c-2-4.5 1.7-4.2 4.4-5.1.8.6 1.3 1.2 2 1.9-1.2 1.8-2.6 3.4-4.4 5zm0 0" fill-rule="nonzero" fill="#fefefe" fill-opacity="1"/><path d="M14.4 93c-.8-.6-1.3-1.2-2-2 1-3 1.7-6.6 6.4-3.2 2 4.5-1.7 4.2-4.3 5zM36 26c-.1-.3-.3-.6-.8-.9.8-1.7 1.9-3.3 2.9-5 1.3 1.4 2.6 2.7 3.9 4.5 0 .4 0 .4-.2.5-.5.3-.7.6-.8.9h-5zm0 0" fill-rule="nonzero" fill="#fdfdfd" fill-opacity="1"/><path d="M31 79.7l-1.8 2c-1.7-.6-3.4-1.4-4.8-2.6-.3-.3.8-2.1 1.3-3.3 1.8 1 3.5 2.3 5.3 3.8zm0 0" fill-rule="nonzero" fill="#fefefe" fill-opacity="1"/><path d="M28.6 42c1 .6 1.3 1.2 2 2 0 1-.3 2-1 2.6-1 1-2.3 1.7-3.6 1.8-.6 0-2-1.7-2-2.4.2-1.3 1.2-2.4 2.1-3.5.3-.4 1.2-.3 2.2-.4zm0 0" fill-rule="nonzero" fill="#fdfdfd" fill-opacity="1"/><path d="M14.4 82c-1-.6-1.3-1.2-2-2 0-1 .3-2 1-2.6 1-1 2.3-1.7 3.6-1.8.6 0 2 1.7 2 2.4-.2 1.3-1.2 2.4-2.1 3.5-.3.4-1.2.3-2.2.4zM29 19c0-.5 0-1.2.3-1.4l4.8-2.9c.4 1.4 1.6 3.1 1.1 4.1-1.5 3.4-3.7 1-6 .2H29zm0 0" fill-rule="nonzero" fill="#fefefe" fill-opacity="1"/><path d="M40 8v.5c.7 2 3.2 4.4-.4 6-1 .4-2.5-.7-3.8-1.1 1.1-1.7 2.3-3.5 3.8-5.3L40 8zM18 49c1-.3 2-1 2.8-.7 1.3.3 2.7 1 3.5 2 .3.4-.7 2.7-1.5 3-1.1.3-2.7-.2-3.8-1-.6-.4-.7-1.7-1-3V49zm0 0" fill-rule="nonzero" fill="#fdfdfd" fill-opacity="1"/><path d="M18.9 71.7c2.2-2.5 4.2-1.9 5.4.4.4.7-1.3 2.4-2 3.7-1.2-1.3-2.4-2.5-3.4-4zm0 0" fill-rule="nonzero" fill="#fefefe" fill-opacity="1"/><path d="M21.1 59.1c1.4 1 2.6 2 3.4 3.3.1.2-1.4 2-2.2 2.2-1 .1-2.3-.8-3.4-1.2.6-1.4 1.2-2.8 2.2-4.2zm0 0" fill-rule="nonzero" fill="#fdfdfd" fill-opacity="1"/><path d="M28.3 53.9c2.5 2.2 1.9 4.2-.4 5.4-.7.4-2.4-1.3-3.7-2 1.3-1.2 2.5-2.4 4-3.4zm0 0" fill-rule="nonzero" fill="#fefefe" fill-opacity="1"/><path d="M162.3 182c-1-.5-1.7-1-2.6-1.8-.2-.2.1-.3.5-.6.5-10.1.6-20 .7-29.8.2-.3.4-.5 1.2-1l4.8-.1h4l6-.1 5.7 5c.5 2 .7 3.7 1 5.8-.7 2.3-1.5 4.2-2 6.6 1 2 1.5 3.4 2.1 4.8v4c-.3 2.5-.6 4.2-1 6-2 0-3.9-.1-5.7-.6-.3-1.8-.5-3.1-.5-4.8 0-6.3-1-7.4-7-7.4-6 .8-2.7 5-3.5 8.2 0 1.7-.2 3-.3 4.6l-3.5 1.2m14-22.2c-.6-1.6-.9-4.3-2-4.7-2.2-.7-5.7-1.2-7 0-1.4 1.3-1 4.6-1.4 7 .4.5 1 .9 1.3 1.4 2.8-1 5.7-2 9-3.8zm0 0" fill-rule="nonzero" fill="#8c48c5" fill-opacity="1"/><path d="M162 140.6c-3.8 2.7-7 3-8.7-2.6.6-1 1.1-1.6 2.1-2h3.7l.8-1-12.4-12.4c2.2-1.4 3.9-2.5 5.7-3.3l2.9 3c.8 1 1.7 1.8 2.5 2.6.2-1 .4-2 .8-3 1-1 1.9-2 3-2.8 1.1.3 1.9.7 2.8 1.2l1.9 1.7-5.4 7.4 3.3 1.8a77.7 77.7 0 0 0 2.2 1.8c-1.7 2.4-3.3 5-5 7.6zm0 0" fill-rule="nonzero" fill="#fefefe" fill-opacity="1"/><path d="M152.7 114c2.6-5.5 5.1-11 8-16.7 2.1 1.1 4.2 2.6 6 4.5a25 25 0 0 1-1.8 2.2c-1 1.1-2 2.2-3 4-1 1.4-2 2.3-3.3 3-.8.7-1.2 1.3-1.9 2.3-1 .4-2 .6-3 .7h-1zm0 0" fill-rule="nonzero" fill="#f6fafc" fill-opacity="1"/><path d="M159 111l3-2.7c3.2 2.4 7 4.6 9.3 7.9 2.3 3.1-1.6 4.2-4 5.7-.9-.3-1.5-.8-2.2-2 0-2.7.4-5.1-3.3-4.2-1-1-2-1.9-2.9-3V111zm0 0" fill-rule="nonzero" fill="#fefefe" fill-opacity="1"/><path d="M165 141c2.7-3.2 5.3-6.4 8.2-9.4.5-.5 2.5 0 3.4.7.6.4 1 2.4.5 2.8a70.9 70.9 0 0 1-9.8 7.6 28.2 28.2 0 0 1-2.2-1.7zm11-59c-3.8 1-4.3-2.3-5.7-5 1-1 1.8-1.5 3-2.1 1.1-.4 2-.6 3-.7 1 1 1.9 2 2.7 3.2 0 1.1 0 1.9-.2 2.9L176 82zm-11.4 59c1 .5 1.5 1 2.2 1.7l.1 5.7c-1.4.5-2.8.5-4.6.5-1.2-1.2-2-2.3-3-3.6.8-1.1 1.7-2.4 2.6-4 .8-.3 1.5-.3 2.7-.3zm25.1-19.1c.3.9.3 1.6.3 2.8-.5 1-1 1.5-1.7 2.2-3.8.1-5.7-1.8-6-5.5l2-1.5a69 69 0 0 1 2.7-.9l2.7 2.8zm3.9-40.9l1.2.9c-.1 1.9-.4 3.6-.8 5.7-1.4.4-2.8.4-4.9.3-1.2-.7-1.7-1.3-2.1-1.9v-2.6c2-1 4.2-1.7 6.6-2.4zm-2.8 29.7c-.1.7-.5 1.2-.8 2-1 1.1-1.8 2-3.2 3-2-.4-3.4-1-4.8-1.7 0-3.5 2-5.4 5.6-6 1.3.8 2.1 1.6 3.2 2.7zm0 0" fill-rule="nonzero" fill="#fdfdfd" fill-opacity="1"/><path d="M189.9 98.7v3c-1 1.2-1.7 2-2.8 3-1 0-1.7-.2-3-.8-.6-.6-1-.8-1.2-.9-1.6-4.2 1.2-5.2 4.6-6 1 .5 1.5 1 2.2 1.7zM176 82.4c.9-.9 1.7-1.4 3.1-2 1.3 0 2 .4 3 1l1.9 1.7-4 6.2c-1.8-2.9-2.9-4.7-4-6.9zm0 0" fill-rule="nonzero" fill="#fefefe" fill-opacity="1"/><path d="M184.4 83c-1-.5-1.5-1-2.2-2a24.7 24.7 0 0 1 5-5.6c.7.8 1.3 1.2 1.9 1.7l-2 5.6c-.8.4-1.5.4-2.7.4zm-7.4 65.4c-1.7.4-3.4.5-5.6.5-.4-.6-.6-1.2-.4-1.5 1.2-1.8 2.6-5 3.8-5 3.5.2 2.7 3.2 2.1 6zm0 0" fill-rule="nonzero" fill="#fdfdfd" fill-opacity="1"/><path d="M165 104.4c.5-1 1-1.5 1.7-2.2 6.3 3 6.5 4 1.7 8-1.2-1.8-2.3-3.6-3.4-6zm17.6-1.4c.7.1 1 .3 1.3.8-.8 2.3-1.8 4.3-3 7.1l-5.6-5.1c2.8-1.1 5-2 7.4-2.7zm0 0" fill-rule="nonzero" fill="#fefefe" fill-opacity="1"/><path d="M182 144l-6.4-3.7 4.9-5.3c1.1 2.7 2 4.6 2.4 7l-.9 2zm0 0" fill-rule="nonzero" fill="#fdfdfd" fill-opacity="1"/><path d="M173 75l-2.8 1.7c-2.8-.6-5.3-1.5-4-5.5.6-.6.8-.9 1.3-1.2l5.6 1v4zm-5.7 57.9c-.9-.3-1.5-.8-2.2-1.6.5-1.7.7-3.5 1.8-4.4.8-.7 2.6-.4 4-.5 0 1.4.5 3 0 4.2-.5 1-2 1.5-3.4 2.3zm0 0" fill-rule="nonzero" fill="#fefefe" fill-opacity="1"/><path d="M172 86c1.4.6 3.2.9 4.2 1.9.7.8.4 2.6.5 4-1.4 0-3 .5-4.2 0-1-.5-1.5-2-2.2-3.7.6-1 1-1.6 1.7-2zm12 34l-1.7 1c-2-1-3.5-2-5.2-3.1 1.4-1.3 2.7-2.6 4.5-3.9.4 0 .4 0 .4.3l2 5.7zm-2 24.3c.1-.9.3-1.4.7-2.2 3.4-.4 6 .3 6.2 4.4-.6.9-1.2 1.3-1.9 2.1-1.8-1.2-3.4-2.6-5-4.4zM172 97c1 .3 2.5.2 3.2.9 1 1 1.9 2.5 2.2 3.9.1.5-1.8 2.1-2.4 2-1.4-.4-2.7-1.5-3.7-2.6-.4-.5-.2-1.6-.2-3 .3-.9.6-1 .9-1.2zm0 0" fill-rule="nonzero" fill="#fdfdfd" fill-opacity="1"/><path d="M172.1 85.7l-2 2c-1.8-.8-3.5-2-6.5-3.8 2.8-1.3 4.5-2.8 5.6-2.4 1.3.5 2 2.6 3 4.3zm0 0" fill-rule="nonzero" fill="#fefefe" fill-opacity="1"/><path d="M167 70c-.1.3-.3.6-.8 1h-3.6c-.8-2-1.3-4-1.3-6.6 2.2 0 4 .3 5.7 1V70zm0 0" fill-rule="nonzero" fill="#fcfcfc" fill-opacity="1"/><path d="M183 92c0 1.3.2 2.7-.2 3.9-.4 1-1.5 2.5-2.5 2.6-1 0-2.5-1-2.8-2-.3-1 .4-2.4 1-3.3.6-.8 1.9-1.2 3.4-2 .8.3 1 .5 1 .8zm0 0" fill-rule="nonzero" fill="#fefefe" fill-opacity="1"/><path d="M183.3 92.1l-1-1c1.2-1.8 2.7-3.4 4.4-5l2 1.8c0 3.5-.9 6-5.4 4.3zm.7 38.9c-1 .1-2 .6-2.9.4-1.4-.4-3.1-1-3.7-2.1-.4-.7.7-3 1.7-3.4.8-.4 2.6.6 3.5 1.5.8.7 1 2 1.4 3.4v.4zm0 0" fill-rule="nonzero" fill="#fefefe" fill-opacity="1"/><path d="M172 96.6c-.3.5-.6.7-1 1.1l-6-1.2-.1-2c1.4-.8 3-2.5 4-2 1.3.3 2 2.4 3 4.1zm0 0" fill-rule="nonzero" fill="#fdfdfd" fill-opacity="1"/><path d="M177.7 112c-1.4 1.1-2.8 2.1-4.3 2.4-.5.1-2-1.7-2-2.4.4-1 1.8-2.8 2.4-2.7 1.4.2 2.6 1.5 3.9 2.6zm-3.6 13.9c-1-1.3-2.1-2.5-2.4-3.8 0-.4 2-1.8 3-1.7 1 .1 1.9 1.5 2.8 2.4-1 1-2.1 2.1-3.5 3.2zM179 77a89.2 89.2 0 0 1-2.7-3.1l-3.3-2.8-.1-.3c-.7-1.8-1.3-3.2-1.7-5a15.4 15.4 0 0 1 2.1-1.9l3-3c1-1 1.9-2 3-2.9.8 0 1.2 0 1.8.2.3.5.6.7.9.8 1.3 1.7 2.7 3.5 0 5.8l-1.2 1.2c-.1 1 .1 2 .5 3.3 1 1 2 1.9 2.8 3-1.7 1.8-3.3 3.2-5 4.6zm0 0" fill-rule="nonzero" fill="#fefefe" fill-opacity="1"/><path d="M181 66c.1-.3.3-.6.8-1l6.2-3c1.6-.7 3-2 4.7-2.5.3-.1 1.4 1.9 2 2.9a846.7 846.7 0 0 1-4.9 2.6c-.3 0-.6.2-.2 0l-2.5 6.6c0 .4 0 .4-.4.4h-2.6c-1-.8-1.8-1.6-2.9-3l-.1-3zm0 0" fill-rule="nonzero" fill="#fdfdfd" fill-opacity="1"/><path d="M153.8 48c-1.3-1.7-2.7-3.4-4-5.5 1-1.5 2.2-2.6 3.4-4.4.7-1.1 1.3-1.6 2.3-2h4.9l1.7 2v2.6c0 .4 0 .4-.2.5-.5.3-.7.6-.8.9h-.3a50.6 50.6 0 0 0-5.8 5.2c0 .2 0 .7-.3.8h-1zm0 0" fill-rule="nonzero" fill="#fbfbfc" fill-opacity="1"/><path d="M153 30a28.8 28.8 0 0 1 .1-3c.7-1 1.3-1.6 2.3-2l5 .1 1.6 2v3c-1 1.4-2 2.2-3.3 3-1 0-1.9 0-3-.2L153 30zm17 17l4.9-7.2c1.4 3.4 2.2 5.4 3 8-.7 1.1-1.3 1.6-2.2 2.1l-3-.1-2.7-2.9zm0 0" fill-rule="nonzero" fill="#fdfdfd" fill-opacity="1"/><path d="M162.3 27c-.8-.6-1.3-1.1-2.2-2.2-.7-1.6-.9-2.7-1-4l2-1.7c1.4.6 3 1 4.7 2l1.2 1c-1.4 1.6-2.9 3.3-4.6 5zm20.1 32c-.7-.1-1-.3-1.2-1.1v-3.1l1.9-1.7c.8 0 2-.3 2.4.1 1.3 1.2 3.4 2.9 3.2 4-.6 3.4-3.5 2.5-6.2 1.9zm.7-6.3c-.7.8-1.3 1.3-2.4 2-1.3.3-2 .3-3 .2-.8-.7-1.2-1.3-1.7-2.2v-2.6l1.9-1.7c4.2-1.6 5.7.1 5.2 4.4zm0 0" fill-rule="nonzero" fill="#fefefe" fill-opacity="1"/><path d="M167 43c0 3.5-2 5.4-5.6 5.7-.7-.8-1-1.2-1.3-2l1-4.6.2-.1c.5-.3.7-.6.8-1h-.1c.8 0 1.5 0 2.9.2 1.1.7 1.6 1.3 2 1.9zm22.4 34c-1-.5-1.5-1-2.2-2l-.1-2.9c.3 0 .7 0 1-.2 2.1-1.2 4.7-3.2 6 .2.4 1-2.8 3.3-4.7 5zM159 33c1-.8 1.8-1.6 2.8-2.7 1 0 1.7.2 3 .9L167 33c-1.4 1.6-2.9 3.3-4.6 5-.8-.6-1.3-1.1-2.2-2.1-.6-1.2-.9-2-1.1-2.8zm10.7 14c1.1.9 2 1.8 3 3.2.3 1.3.3 2 .3 2.8h-.3l-5.7 1c-3.2-3.6-.9-5.4 2.7-7zM189 35.6c-.6.9-1.2 1.3-1.9 2a24.8 24.8 0 0 1-5-5.6c.7-1.1 1.3-1.6 1.9-2 1.7 1.8 3.3 3.5 5 5.6zm0 0" fill-rule="nonzero" fill="#fdfdfd" fill-opacity="1"/><path d="M161 18.8c-.6.7-1.2 1.2-2.2 2-1.2.3-2 .3-3 0L154 19l-.1-2.8 2-2c.9-.3 1.6-.3 2.8-.3.9.6 1.3 1.2 2 1.9.3 1 .4 1.8.4 2.9zm28 27.8c-.6.9-1.2 1.3-1.9 2a24.9 24.9 0 0 1-5-5.6c.7-1.1 1.3-1.6 1.9-2 1.7 1.8 3.3 3.5 5 5.6zm0 0" fill-rule="nonzero" fill="#fefefe" fill-opacity="1"/><path d="M160 47l1 1.7-3 6.3c-1.3-1.6-2.5-3.5-3.5-5.8.3-.7.5-.9.5-1.2 0 0 0-.5.4-.7 1.8-.3 3.2-.3 4.6-.3zm0 0" fill-rule="nonzero" fill="#f7fbfd" fill-opacity="1"/><path d="M167.3 32.9c-.9-.3-1.5-.8-2.2-1.6.5-1.7.7-3.5 1.8-4.4.8-.7 2.6-.4 4-.5 0 1.4.5 3 0 4.2-.5 1-2 1.5-3.4 2.3zm.1 10.1c-.9-.6-1.3-1.2-2-1.9.8-1.8 1.9-3.5 3.3-5.7l5 4.7c-2.3 1.1-4 2-6.2 2.9zm16.6-2.3l-1.8 2c-2-.5-4-1.3-7.5-2.6l5.6-4.4c1.3 1.7 2.5 3.1 3.6 5zm5-16.1c-.6.8-1.2 1.3-1.9 2-1.8-.8-3.5-1.9-5.7-3.3l4.7-5c1.2 2.3 2 4 2.9 6.2zM158.7 57s-.3-.3-.3-.6c2.5-1.5 4.5-4.2 8.2-2.4.4 0 .4 0 .4.4l-3.5 5.9-4.8-3.2zm0 0" fill-rule="nonzero" fill="#fefefe" fill-opacity="1"/><path d="M167.3 21.9c-.6 0-.9-.1-1.2-.6 0-1.5-.3-3 .1-4s1.5-2.5 2.5-2.6c.9-.1 2.5 1 2.8 2 .3.9-.4 2.4-1 3.3-.6.8-1.9 1.2-3.2 2zm0 0" fill-rule="nonzero" fill="#fdfdfd" fill-opacity="1"/><path d="M184 29.7l-1.8 2c-1.7-.6-3.4-1.4-4.8-2.6-.3-.3.8-2.1 1.3-3.3 1.8 1 3.5 2.3 5.3 3.8zm-4-9c-1.1-1.4-2.1-2.8-2.4-4.3-.1-.5 1.7-2 2.4-1.9 1 .3 2.8 1.7 2.7 2.3-.2 1.4-1.5 2.6-2.6 3.9zm-8.7 2.3c1.4-1.1 2.8-2.1 4.3-2.4.5-.1 2 1.7 1.9 2.4-.3 1-1.7 2.8-2.3 2.7-1.4-.2-2.6-1.5-3.9-2.6zm2.2-13.6c1.6.8 2.9 1.8 4.2 2.8-.7.8-1.3 2.2-2.2 2.4-1 .2-3.2-.5-3.3-1-.2-1.2.6-2.6 1.2-4.1zm-1.2 26.4c0-1.6.1-3.2 1-4.1.4-.4 2.4 0 3.3.7.6.4.7 2.7.6 2.8-1.5.5-3 .7-4.8.7zm0 0" fill-rule="nonzero" fill="#fefefe" fill-opacity="1"/><path d="M145.2 177c0-1.5 0-3 .2-4.8h-9.7c-2.3 2.5 2 9-4.8 8.6-1.1 0-2-3.3-3-5.8v-4.4-8-3l2.3-6.5c2.2-1.5 4.3-3 7.2-4.7 2.4-.3 4-.3 5.8-.4 2.7 2.4 5.3 4.8 7.7 8-.4 6.9-.7 13-.6 19.3 0 2.7-.6 4.5-3.5 5.2-.2 0-.7-.1-.7-.4l-.6-1.5-.1-1.6m-7.1-21.7c-3.7 2.3-3.2 5.7-2.7 9.3h10c.7-7.6-.6-9.4-7.3-9.3zm0 0" fill-rule="nonzero" fill="#8c48c6" fill-opacity="1"/><path d="M129.9 152.8c-.5 2.3-1.3 4.4-2.3 6.8-.8 0-1.2-.3-1.6-1-1.5-1.5-3-2.6-4.6-4a52.4 52.4 0 0 1-.4-4l-6-2.8-2-2c-.7-.9-1.3-1.3-2.2-1.9-1.1-1-2-1.8-2.7-2.7 3.7-.8 7.4-1.6 11.5-2 1 1.4 1.8 2.6 2.5 4-.2 2.2 0 4.2 3.9 4 1 .7 1.6 1.3 2 2a126 126 0 0 0 2 3.7zm0 0" fill-rule="nonzero" fill="#faf9fb" fill-opacity="1"/><path d="M128.4 149l-2-1.8c.6-4.4 6.5-10.2 10.5-10 .6.6.9.8 1.2.9-3 3.6-6.2 7.3-9.6 11zm0 0" fill-rule="nonzero" fill="#fefefe" fill-opacity="1"/><path d="M146.8 180.5c2.7-.7 3.4-2.5 3.3-5.2-.1-6.2.2-12.5.6-19 .7.8 1 1.9 1.5 3.6 0 .8 0 1 .2 1.2l-.2 9.7c0 1 0 1 .2 1.3l-.1 1.8v1.2l-.1 2.8v1.2c-.6.8-1.2 1.6-2.3 2.7-1.4-.3-2.3-.8-3.1-1.2zm0 0" fill-rule="nonzero" fill="#8a32c5" fill-opacity="1"/><path d="M139 185l3 .1c1 .7 1.6 1.3 2 2a215.2 215.2 0 0 1-1.7 5.6c-2-1-4-2.6-6-4.7 1-1.4 1.9-2.2 2.8-3zm0 0" fill-rule="nonzero" fill="#fefefe" fill-opacity="1"/><path d="M148 144l-3.9-.1c-1-.7-1.6-1.3-2-2 1-2 2-4 3.4-7.2 2.1 2.6 3.3 4 4.2 6a71 71 0 0 1-1.7 3.2zm0 0" fill-rule="nonzero" fill="#fdfdfd" fill-opacity="1"/><path d="M142.9 126c0-.7.2-.9 1-1 4 .5 6 2.4 6 6.3l-2 1.7c-3-1.2-5.4-2.8-5-7zm0 0" fill-rule="nonzero" fill="#fefefe" fill-opacity="1"/><path d="M144.3 187.1l-2-2c-.3-.9-.3-1.6-.2-3 .3-.9.6-1 1.2-1l2.6-.8.7.1 3.1 1.5c0 3.2-.8 6.1-5.4 5.2zm0 0" fill-rule="nonzero" fill="#fcfbfc" fill-opacity="1"/><path d="M148 144.3c.5-1.2 1-2 1.7-3 1.1.2 2.2.4 2.8 1.1 1 1 2 2.2 2.1 3.4 0 1-1.5 2.7-2.2 2.7-1.2 0-2.4-1.3-3.5-2-.5-.5-.6-1.2-1-2zm0 0" fill-rule="nonzero" fill="#fefefe" fill-opacity="1"/><path d="M138.4 138c-.7-.1-1-.3-1.2-.8.2-1.6 0-3.6.8-4.3 1-1 3-.7 4.5-1 0 1.5.2 3-.4 4.3-.5.9-2.1 1.2-3.7 1.7zm0 0" fill-rule="nonzero" fill="#fdfdfd" fill-opacity="1"/><path d="M148 133.3c.6-.8 1.1-1.3 2.1-2.2 4.2-.6 4.5 2.1 4.8 5l-1.9 1.6c-1.8-1.2-3.4-2.6-5-4.4zm0 0" fill-rule="nonzero" fill="#fefefe" fill-opacity="1"/><path d="M141.6 142c1 .6 1.4 1.2 2.1 2 0 1.1-.4 2.2-.7 3.7-1.7.4-3.4.4-5.6.5-.7-3.2 0-5.8 4.2-6zm0 0" fill-rule="nonzero" fill="#fdfdfd" fill-opacity="1"/><path d="M122.4 143c-1-1.2-1.7-2.4-2.4-4 1.7-1 3.4-1.7 5.5-2.5 2.2 3.5 1.6 5.8-3 6.5zm0 0" fill-rule="nonzero" fill="#fafcfd" fill-opacity="1"/><path d="M160.6 150c.3 9.7.2 19.5-.1 29.7-.3-9.6-.3-19.5 0-29.6zm0 0" fill-rule="nonzero" fill="#810ec3" fill-opacity="1"/><path d="M152.5 172c-.2 0-.3-.4-.2-.8.2 0 .3.3.2.7zm0-11c-.2 0-.3-.3-.3-.7.2 0 .3.3.3.7zm-.1 18c-.2 0-.2-.3-.2-.7.2 0 .4.1.4.3 0 0 0 .2-.3.4zm.1-4c-.2 0-.2-.3-.2-.7.2 0 .4 0 .4.3l-.2.4zm0 0" fill-rule="nonzero" fill="#ccb9e3" fill-opacity="1"/><path d="M36.9 180.7c-.3 0-.6.2-1 .5l-6.5 1c-1.2 0-2-.1-3.3-.3a33.5 33.5 0 0 1-3.5-1.1 70.2 70.2 0 0 1-3-3.2A59.8 59.8 0 0 1 18 175v-4l-.1-8V161v-6c3-6.5 8.6-8.5 17.9-5.8 1.4.5 2 .8 3 1.5 1 1.7 2 3 2.8 5l.4 2.8c-1 1.4-1.7 2.4-2.8 3.4-.8 0-1.3 0-2-.2-1-1.3-1.8-2.4-2.5-4-2.6-1.1-5.2-2.2-7.8-2.3-.7 0-1.6 3.3-2 5.2-.3 1 0 2.3 0 3.8v7c.2 3.9 2.7 4 5.3 3.7 3.4-.5 5-3 6.2-6.1 2 .3 3.5.7 5 1.5l.2 3.9-.6 1.9a170.5 170.5 0 0 0-4 4.5zm0 0" fill-rule="nonzero" fill="#8f4cc7" fill-opacity="1"/><path d="M14 131c1-1 2-2.3 3.2-4 1-1.4 2-2.2 3.2-3l3 .1c1 1 1.9 2 2.7 3.2 0 .8 0 1.2-.3 2l-3 3-3.6 2.6.6 1.1 4.5.1c.8.7 1.2 1.3 1.7 1.9-3.3 6.2-3.8 6.3-8.6 1-1.8-2-3.1-4.3-4.3-6.8.6-.6.8-.9.9-1.2zm34-1l3.9.1c1.2.7 1.6 1.3 2.1 2.3-.4 3.6 1.7 3.8 4.3 3.7.8.7 1.2 1.3 1.6 2.2-2 2.1-4 3.9-6 5.6-.5-.3-.7-.6-.8-.9l-3.9-5.6c-1-1.6-2-3.1-3-5.4.7-1.1 1.3-1.6 1.9-2zm-7-10l2.9-5.7c1.4 1.7 2.8 3.3 4 5.6-.7 1.1-1.3 1.6-1.9 2-1.3.4-3.4.4-4 1.3-2 3.3-4.6 2.4-7.7 1.7-.4 0-.4 0-.4-.4v-2.6l.2-.1c.5-.3.7-.6.8-.9 1.8-.4 3.6-.8 5.8-1l.6.4-.3-.3zm0 0" fill-rule="nonzero" fill="#fdfdfd" fill-opacity="1"/><path d="M54 132l-1.7-2c-.6-1-.9-1.6-1-3 1-1.3 1.9-2.2 3-3h2.5c1 .8 1.9 1.5 3 3-.2 1.4-.5 2.2-1.1 3.2l-2 2-2.8-.1zm0 0" fill-rule="nonzero" fill="#fdfdfd" fill-opacity="1"/><path d="M54 124l-2.7 2.8c-2-1.3-3.6-2.7-5.2-4.5.6-.8 1-1.3 1.8-2 1.3-.6 2.4-1 3.9-1.3 1 .5 1.5 1 2 2.2l.2 2.8zm-15.3 26.3l-2.4-1.2c-.8-1.6-1.4-3-2-5 .2-.8.4-1 1.1-1.1 4.8-2.3 6.2 1 7.5 4.3-.3.5-.6.7-1.2.8l-2.7 2-.3.2zM26.3 138c-.8-.6-1.3-1.1-2.2-2.2-.6-1.6-.9-2.7-1.1-3.8.8-.9 1.6-1.8 2.9-2.6 1.3.6 2.2 1 3.2 1.8.3.5.6.7.9.8 2 3.7-1 4.6-3.6 6zm7.7-2a5549 5549 0 0 1 4.4-5c1.4 1.4 2.9 2.8 4.3 4.9-.6 1-1.1 1.6-2.1 2a89.6 89.6 0 0 1-5.9-1.1c-.5-.3-.7-.6-.8-.9zm-14-12c-1 .8-1.8 1.6-2.8 2.7-3-1-6.7-1.7-3.3-6.4 1.2-.6 2.3-1 3.8-1.3 1 .5 1.5 1 2.2 2.1.2 1.4.1 2.1.1 2.9zm0 0" fill-rule="nonzero" fill="#fefefe" fill-opacity="1"/><path d="M41 138l2-1.7a24.8 24.8 0 0 1 5 5.6c-.8 1.1-1.4 1.6-2.3 2-1.8-2-3.2-4-4.7-5.9zm0 0" fill-rule="nonzero" fill="#fdfdfd" fill-opacity="1"/><path d="M33.7 136l1.3 1.2c.3 2.2.2 4 0 5.8-.3.1-.6.3-1 .8l-6-3.5c2.4-1.8 3.8-3 5.6-4.2zm-3.3-4c-.7-.1-1-.3-1.3-1.1 1.6-2.3 3.2-4.1 4.9-5.9 3 4.7 2.4 6-3.6 7zm0 0" fill-rule="nonzero" fill="#fefefe" fill-opacity="1"/><path d="M46 144l2-1.7c1.4 0 3 .3 4.7.7.5.4.6.6 1.1 1.3-1 2-2.2 3.4-4 5.7l-3.8-6zm0 0" fill-rule="nonzero" fill="#fdfdfd" fill-opacity="1"/><path d="M14 130.6c0 .7-.3 1-.8 1.2-1.6-.2-3.6 0-4.3-.8-1-1-.7-3-1-4.5 1.5 0 3-.2 4.3.4.9.5 1.2 2.1 1.7 3.7zm-2 13.7l1.8-2c2 .5 4 1.3 7.2 2.5a4534.2 4534.2 0 0 1-5 5c-1.8-2.2-2.9-3.7-4-5.5zm0 0" fill-rule="nonzero" fill="#fefefe" fill-opacity="1"/><path d="M17.7 154.8c.3 2 .2 3.6.1 5.8-2-1.3-3.9-3-5.8-5.2.5-.8 1.1-1.3 1.8-2 1.3.3 2.4.8 4 1.5zm0 0" fill-rule="nonzero" fill="#fdfdfd" fill-opacity="1"/><path d="M48 129.7l-1.8 2c-1.7-.6-3.4-1.4-4.8-2.6-.3-.3.8-2.1 1.3-3.3 1.8 1 3.5 2.3 5.3 3.8zm0 0" fill-rule="nonzero" fill="#fefefe" fill-opacity="1"/><path d="M152.7 30c1 1 2 1.8 3 3.2 0 1.2-.4 2-.7 2.8l-2 1.7c-3.2-2.5-6.5-5-9.4-8-.6-.6.8-3 1.4-5 3 2.3 5.2 3.8 7.6 5.4zm0 0" fill-rule="nonzero" fill="#fdfdfd" fill-opacity="1"/><path d="M130.5 26.2c-2-.8-4-1.6-6.3-3 .8-1.8 1.8-3 2.8-4.2 3.5 0 5.4 2 6 5.6 0 .4 0 .4-.2.5l-1.2 1h-1.1zm0 0" fill-rule="nonzero" fill="#f8fafc" fill-opacity="1"/><path d="M153.6 19c1 .5 1.5 1 2.2 2-.2 1.7-.6 2.8-.9 4l-1.9 1.7c-1.8-.8-3.5-1.9-6.4-3.7 3-1.8 4.7-2.9 7-4zm-26.6-.2l-3.2 4.2c-.6.2-1.1 0-1.9-.3-.8-2-1.4-4-2-6.3.6-.9 1.2-1.3 1.9-2.1 1.2-.3 2.3-.3 3.7-.3.7.5 1 1 1.3 1.7.2 1 .2 2 .2 3zm16.1 5.5c-2.2 2.5-4.2 1.9-5.4-.4-.4-.7 1.3-2.4 2-3.7 1.2 1.3 2.4 2.5 3.4 4zm-5.5-7.8c-.8 1.6-1.8 3-2.8 4.2-.8-.7-2.2-1.3-2.4-2.2-.2-1 .5-3.2 1-3.3 1.2-.2 2.6.6 4.1 1.2zm6.6 3.2c0-1.8.2-3.4.7-4.8 0-.1 2.3 0 2.8.6.6.9 1.1 3 .7 3.3-1 .8-2.6.8-4.1 1zm-4.1-10.6c1.4 1 2.6 2 3.4 3.3.1.2-1.4 2-2.2 2.2-1 .1-2.3-.8-3.4-1.3.6-1.4 1.2-2.8 2.2-4.2zm0 0" fill-rule="nonzero" fill="#fefefe" fill-opacity="1"/><path d="M130.7 26.5c0-.3.3-.3 1-.5 1-.3 1-.6 1.3-1 3.6 0 5.2 1.9 5 5.8-2.4-1-4.7-2.6-7.3-4.3zm0 0" fill-rule="nonzero" fill="#f6fafc" fill-opacity="1"/><path d="M20 111c-1-.8-1.8-1.6-2.8-2.7 1.7-2 3.5-3.8 5.8-5.1 1.3.9 2.2 1.4 3 2.2l-.1 3c-1 1-2 1.9-3.2 2.7H20zm15 3v6.6c0 .4 0 .4-.3.5-.5.3-.7.6-.8.9h-.4l-2.9-.1c-.8-.7-1.2-1.3-1.7-2.3l.1-4.9c.7-.8 1.3-1.2 2.2-1.7h2.6l.1.2c.3.5.6.7.9.8zM24 99a72.3 72.3 0 0 1-4.9-.1c-1.2-.7-1.6-1.3-2.1-1.9l4.3-6.5c1.8 2.4 3.1 4.1 4.4 6.5-.6 1-1.1 1.5-1.7 2zm0 0" fill-rule="nonzero" fill="#fdfdfd" fill-opacity="1"/><path d="M23.9 99.3l2-2c3 1 6.7 1.7 3.3 6.4-.1.3-.1.3-.4.4a83.6 83.6 0 0 1-2.7 1c-1-.6-1.8-1-2.8-1.8 0-1.4.3-2.5.7-4zm0 0" fill-rule="nonzero" fill="#fefefe" fill-opacity="1"/><path d="M35 109h1.5c1.7.7 3.4 1.4 5 2.3.2.1-.2 2-.5 2-1.7.4-3.5.5-5.6.7-.4 0-.4 0-.5-.2-.3-.5-.6-.7-.9-.8v-.4l.1-2.9c.3-.5.6-.7.9-.8zm0 0" fill-rule="nonzero" fill="#fdfdfd" fill-opacity="1"/><path d="M14 104c-.3 1-.2 2.5-1 3.2-1 1-2.4 1.9-3.8 2.2-.5 0-2.1-1.8-2-2.4.4-1.4 1.5-2.7 2.6-3.7.4-.4 1.6-.2 3-.2.9.3 1 .6 1.2.9zm0 0" fill-rule="nonzero" fill="#fefefe" fill-opacity="1"/><path d="M14.4 104c-.5-.3-.6-.6-1.1-1-2.1-3.7.8-4.6 3.4-6l2 1.9c2 4.5-1.7 4.2-4.4 5zm0 0" fill-rule="nonzero" fill="#fdfdfd" fill-opacity="1"/><path d="M35.1 108.7l-1.4 1c-1.9-1.8-3.3-3.8-4.8-5.7h.1c6.2-.9 7-.4 6.1 4.7zm0 0" fill-rule="nonzero" fill="#fefefe" fill-opacity="1"/><path d="M52 37c.1-.3.3-.6.8-1l5.4.9c.8.8 1.2 1.6 1.7 2.9.1.8.1 1-.2 1.2l-3 3h-1.3c-1-.4-1.7-.8-2.4-1.5a433.3 433.3 0 0 0-1-5.6zm0 0" fill-rule="nonzero" fill="#fdfdfe" fill-opacity="1"/><path d="M60.3 27c-1.2-1-2-1.8-3-3.2-.3-1-.3-1.4-.3-1.8l1.7-2.8c2.3.8 4.4 1.8 7.5 3.3-2.6 2-4 3.3-6 4.5zm0 0" fill-rule="nonzero" fill="#fefefe" fill-opacity="1"/><path d="M82 21.9l-.7.2c-.5-.2-.7-.7-1-.7-3 0-5.4-1.4-5-4.4.6-3.6 3.6-2.6 6.4-2 .4 0 .4 0 .4.4v6.5zm0 0" fill-rule="nonzero" fill="#fdfdfd" fill-opacity="1"/><path d="M76 23.7c-1.7 1.3-3.5 2.2-5.6 3-1-2.2-2.3-5 1-6 1-.4 3 1.7 4.7 3zm0 0" fill-rule="nonzero" fill="#f7fbfd" fill-opacity="1"/><path d="M66.3 14.5c3 .6 4.6 2 2.7 4.7-.5.7-2.8 1-3.5.6-2.4-1.7-1.5-3.6.8-5.3zM71 9.7c1.8.4 3.2 1 4.7 1.7-.5 1-.7 2.4-1.5 2.7-1 .4-3 .3-3.3-.2-.5-1.1-.1-2.6.1-4.2zm0 0" fill-rule="nonzero" fill="#fefefe" fill-opacity="1"/><path d="M184.2 171c-1-1.4-1.6-2.9-2.3-4.6 1.8-.7 3.7-1 5.6-1.3l.5 5.6v.4h-3.8zm0 0" fill-rule="nonzero" fill="#fdfdfd" fill-opacity="1"/><path d="M177.1 180.8c1.7 0 3.5.2 5.5.5.7.7 1 1.2 1.3 1.7-1.4 1.6-2.9 3.3-4.6 5-1.2-1-2-1.8-3-3.2-.3-1-.3-1.4 0-2l.8-2zm0 0" fill-rule="nonzero" fill="#fdfcfd" fill-opacity="1"/><path d="M188 160c.5 0 1-.4 1.4-.2 1.8.5 3.5 1.2 5.2 1.8-.9 1-1.8 3-2.5 3-2.2-.1-5.1-.3-4.2-4.3l.1-.3zm-3.7 22.9c-.6-.4-1-.9-1.3-1.7l.8-5.8c1.7.6 3.4 1.6 5 2.6l-4.5 4.9zM188 171c1-.3 2-1 2.8-.7 1.3.3 2.7 1 3.5 2 .3.4-.7 2.7-1.5 3-1.1.3-2.7-.2-3.8-1-.6-.4-.7-1.7-1-3v-.4zm0 0" fill-rule="nonzero" fill="#fdfdfd" fill-opacity="1"/><path d="M94 18.9c-2.3.8-4.7 1.2-7.6 1.3-.4-1.6-.4-3-.4-4.2l1.9-1.7c1.2-.3 2.3-.3 3.7-.3 1 .5 1.6 1 2.3 1.7 0 1 0 2 .2 3.2zm0 0" fill-rule="nonzero" fill="#f8fafc" fill-opacity="1"/><path d="M115 20.1c-1.8.2-3.5 0-5.7-.4-2.2-3.5.8-4.2 2.6-5.4 1 1.8 2 3.6 3 5.8zm0 0" fill-rule="nonzero" fill="#fdfdfd" fill-opacity="1"/><path d="M107.5 14.6c-1.6-.8-3-1.8-4.2-2.8.7-.8 1.3-2.2 2.2-2.4 1-.2 3.2.5 3.3 1 .2 1.2-.6 2.6-1.2 4.1zm0 0" fill-rule="nonzero" fill="#fefefe" fill-opacity="1"/><path d="M104 18.7c-1.7.4-3.4.4-5.6.4.5-1.6 1.3-3.2 2.2-4.8l3.4 4.4zm0 0" fill-rule="nonzero" fill="#fdfdfe" fill-opacity="1"/><path d="M115.2 148.1c2 .7 3.8 1.4 5.5 2.8-.4 5.4-.7 10.2-.6 15 0 4.4.6 8.7.9 13l.2.8c-.5.8-1.1 1.3-2 2-.7.2-1.1.1-2 0-.4 0-.3-.5-.3-1l-.1-11c-.4-6.7-1.1-13.2-1.7-20V148zm0 0" fill-rule="nonzero" fill="#8c46c6" fill-opacity="1"/><path d="M143 181c-.3.1-.6.3-1 .8-2-.6-4-1.5-6-2.3 2.5-5.1 5.3-4.7 8.8-2.5.4.5.5.9.2 1.7a94.8 94.8 0 0 1-2 2.3zm0 0" fill-rule="nonzero" fill="#fdfdfd" fill-opacity="1"/><path d="M127.8 171v3.6c-2 .7-3.8 1-6.1 1-.4-2-.3-3.8 0-5.5l6 1zm0 0" fill-rule="nonzero" fill="#fcfcfc" fill-opacity="1"/><path d="M139 184.6c-1 1.2-1.9 2-2.9 3-1.8-.8-3.5-1.8-5.6-3.2 3.4-3 6-3.5 8.4.1zm0 0" fill-rule="nonzero" fill="#fefefe" fill-opacity="1"/><path d="M121.4 170v5.5c0 1.2 0 2-.3 3-.4-4-.9-8.3-1-12.7 0-4.8.2-9.5.6-14.6.4.8.5 1.8.6 3.7l.1 4.5v6l.1 4.6zm0 0" fill-rule="nonzero" fill="#8b31c8" fill-opacity="1"/><path d="M94.3 182c-1.4-.4-2.5-1-3.8-2l-4-10.2c-.7-2-1.2-3.5-1.4-5l-.4-.5c-.7-1.3-1.3-2.3-1.8-3.7l-2.7-7.2.7-5.1h4.2l8.4 19.2 1.4.2c.6-2.2 1-4.4 1.9-6.5 2-4.5 4.1-9 6.5-13.4 1.6.7 2.8 1.4 4 2.4l-3.1 10.7c-.6 1.4-1 2.7-1.4 4-.3.5-.3.7-.3 1l-4.4 9.4c-1 2-2.3 4-3.8 6.3zm0 0" fill-rule="nonzero" fill="#8d49c6" fill-opacity="1"/><path d="M108 175c0-1 0-2 .2-3.8.7-1 1.2-1.7 2.1-2.2 1.4 0 2.4 0 3.5.2l.7 1.3c0 2 0 3.8-.2 5.6l-.9 1c-1 .3-1.8.7-2.7.8l-2.7-2.8zm0 0" fill-rule="nonzero" fill="#fdfdfd" fill-opacity="1"/><path d="M117 181.3v.5c-2 2.1-1.8 6.7-6.7 5.3l-2-2c-.3-.9-.3-1.6 0-2.9 1-1 2-1.7 3-2.2 1.4 0 2.3 0 3.6.2l2 1zm0 0" fill-rule="nonzero" fill="#fefefe" fill-opacity="1"/><path d="M110 169l-1.7 1.8c-2-1.2-3.7-2.5-5.6-4.2-.2-.7-.2-1 .5-1.5 2-.9 3.4-1.5 5-2 .8 1 1.3 2 1.9 3l-.1 2.8zm1 11a59.8 59.8 0 0 1-2.7 1.9c-1.9-1-3.5-2-5.1-3 1.4-1.3 2.7-2.6 4.5-3.9 1.2.9 2 1.8 3.1 3.1.3 1 .3 1.4.3 1.9zm0 0" fill-rule="nonzero" fill="#fdfdfd" fill-opacity="1"/><path d="M104 184.6c-.5 1.2-1.1 2-1.8 3-1.8-.8-3.5-1.9-5.2-3 3.2-5 4-4.9 7 0zm0 0" fill-rule="nonzero" fill="#fefefe" fill-opacity="1"/><path d="M48.3 19.9c-.3-1.3-.3-2.7-.3-4.5 1 .5 2.3 1.4 3.4 2.3l-3.1 2.2zm8.4 2.1c.4.4.3.9.4 1.7-.8.3-1.5.3-2.7.3.4-.7 1.2-1.3 2.3-2zm0 0" fill-rule="nonzero" fill="#f3f3f5" fill-opacity="1"/><path d="M71.2 181.6c-1.6-.2-3-.7-4.8-1.4a14 14 0 0 1-.3-3.6c0-2.6.3-5.2-3.6-4.7-3 .4-7.5-1.7-7 5 0 1.2 0 1.8.2 2.3 0 0-.3 0-.5.2-.4 0-.5 0-.6.2l.6.3c0 .2 0 .4-.5 1-1.4.7-2.5 1-3.6 1.2-.7-2.4-1.4-4.8-2-8v-2.5-9-2c-.2-7 3.8-10.2 9.5-12.6 2 0 3.9 0 5.9.3l9.3 7-.4 6v12.6l-2 7.6m-7.4-26c-3-1.5-5.8-1.2-7.2 1.9-1 1.9-1 6.2-.6 6.3 3 .9 6.5 1 11 1.4-1.1-4-2-6.5-3.3-9.6zm0 0" fill-rule="nonzero" fill="#8f4cc7" fill-opacity="1"/><path d="M51 182.4c1-.7 2.2-1 3.6-1.3 1.7 1.3 3 2.7 4.4 4.5-2.4.4-4.8.4-7.6.4-.4-1-.4-2.1-.4-3.6zm0 0" fill-rule="nonzero" fill="#fdfcfd" fill-opacity="1"/><path d="M55.8 179c-.3-.3-.3-1-.2-1.7.3.3.3 1 .2 1.8zm-.7.7l-.6-.2h.5c.2.1.1.2.1.3zm0 0" fill-rule="nonzero" fill="#e0d4ec" fill-opacity="1"/><path d="M17.7 19c1 .5 1.5 1 2.2 2v3c-.4 1-1 1.7-1.6 2.8-3.4-.2-6.3-1-5.2-5.6.6-.6.8-.9.9-1.2 1-.3 2.2-.7 3.7-1zm0 0" fill-rule="nonzero" fill="#fdfdfd" fill-opacity="1"/><path d="M14 19.6c0 .7-.3 1-.8 1.2-1.6-.2-3.6 0-4.3-.8-1-1-.7-3-1-4.5 1.5 0 3-.2 4.3.4.9.5 1.2 2.1 1.7 3.7zm0 0" fill-rule="nonzero" fill="#fefefe" fill-opacity="1"/><path d="M73.3 163c0-.4 0-1 .3-1.7a116.9 116.9 0 0 1 4.4-3l5 2.7a158.6 158.6 0 0 0 1.8 3.4l.2.5 1.4 4.6c-1.2.7-2.4 1-4.2 1.3-1.4-.7-2.3-1.2-3.2-2-2-2.1-3.8-4-5.7-5.7zm0 0" fill-rule="nonzero" fill="#fcfcfc" fill-opacity="1"/><path d="M79 169l2.8 1.7c-.1 1.7-.4 3.1-.9 5.1-.3.8-.6 1-1 1.1-2-1-4-2-6.4-3-.4-.5-.4-1 0-1.7L79 169zm0 0" fill-rule="nonzero" fill="#fdfdfd" fill-opacity="1"/><path d="M80 177.4l1-1.2c2.4-1 5.4-1.5 5.6 1.9 0 1.2-3 2.6-5.2 3.9-.7-.1-1-.3-1.3-.8v-3.8zM31 113l-2.2 1.9c-1.6.6-2.7.9-3.8 1.1-.6-.5-1.2-1-1.9-2.1a27 27 0 0 1-.1-3l3.2-2.7c2 1.4 3.3 3 4.8 4.7zm0 0" fill-rule="nonzero" fill="#fdfdfd" fill-opacity="1"/><path d="M29 120l1.7 2.2c-1.4 2-3 3.3-4.7 4.8l-2.7-3.2c-.3-1.3-.3-2-.3-2.8.6-.5 1.1-1 2.2-1.7 1.6 0 2.7.4 3.8.8zm0 0" fill-rule="nonzero" fill="#fefefe" fill-opacity="1"/><path d="M29 119.6c-1.1 0-2.2-.3-3.7-.6-.4-.8-.4-1.5-.4-2.6 1.1-.6 2.2-.9 3.7-1.2.3 1.3.3 2.7.3 4.5zm-6.4-8.6c.4.8.4 1.5.4 2.6-1-.4-2-1.2-3-2.3.8-.3 1.5-.3 2.6-.3zm.2 10c.3.7.3 1.4.3 2.5-.8.4-1.5.4-2.6.4-.4-.8-.4-1.5-.4-2.6.8-.3 1.7-.2 2.8-.3zm0 0" fill-rule="nonzero" fill="#f3f3f5" fill-opacity="1"/><path d="M48.8 172v1.6c-1.8 1.3-3.5 2.3-5.7 3l-2-.7c0-.5.1-1 .6-1.8.7-1.4 1-2.3 1.2-3.6 0-.8 0-1.2.3-1.6l5.5 3zm0 0" fill-rule="nonzero" fill="#fcfcfc" fill-opacity="1"/><path d="M40.9 176.2c.8 0 1.3.2 2 .6-.1 1-.4 1.8-.7 3-.6 1.2-1 2.1-1.8 3.2-1.2-.4-2.2-1-3.3-1.9 1.1-1.7 2.4-3 3.9-4.8zm0 0" fill-rule="nonzero" fill="#efebf4" fill-opacity="1"/><path d="M184.3 119.9c-1-1.6-1.6-3.4-2.3-5.5 1.4.3 2.8 1 4.6 1.6.3.8.3 1.5.3 2.7-.8.6-1.6.9-2.7 1.2zm0 0" fill-rule="nonzero" fill="#f3f3f5" fill-opacity="1"/><path d="M22.2 180.8l3.5 1c.3 1.2.3 2.2.3 3.7-2.4.7-4.8 1-7.6 1.4-.7-.1-1-.3-1.3-.8 1.5-2 3-3.6 5-5.4zm0 0" fill-rule="nonzero" fill="#fcfbfc" fill-opacity="1"/><path d="M173 186l-1.7 2c-4.2-.4-6.7-1.9-5.5-6.8 0-.4 0-.3.4-.3l6.8 1v4zm0 0" fill-rule="nonzero" fill="#fdfdfd" fill-opacity="1"/><path d="M85.7 16c.3 1.3.3 2.6.3 4.2 0 .4-.3.5-.6.2C84 20 83 20 82 20v-4.6c1 0 2.2.2 3.7.6zm0 0" fill-rule="nonzero" fill="#f3f3f5" fill-opacity="1"/><path d="M17.5 163c.4 2.4.4 4.8.4 7.6-1.8 0-3.5-.2-5.5-.5 1.3-2.3 3-4.6 5-7zm0 0" fill-rule="nonzero" fill="#fdfdfd" fill-opacity="1"/><path d="M173.3 185.9c-.3-1-.3-2 0-3.4 1 0 2 .2 2.7.5v1.7c-.8.6-1.6.8-2.7 1.2zm0 0" fill-rule="nonzero" fill="#f3f3f5" fill-opacity="1"/><path d="M17.6 175c.8.7 1 1.3 1.6 2.3-1.5 2-3 3.7-5 5.6-.5 0-.8 0-1.1-.6-.2-3.4-.4-6.7 4.5-7.2zm0 0" fill-rule="nonzero" fill="#fdfdfd" fill-opacity="1"/><path d="M51.7 37.1c.6 1.6 1 3.4.9 5.6-1.6 1.1-3 1.8-4.3 2.5l3.8 5.4c1.4 1.3 2.6 2.6 4.1 3 .5.2 1.6-1.7 2.5-2.6-1-.7-2-1.4-2.8-2.4.3-.7.6-1.2 1.2-1.6 4.3 2.6 6.8 1.5 8.3-3 1.1 0 1.9 0 2.6.4 0 1.1 0 2-.3 2.7-5.4 3.3-5.5 3.7-1.7 7.4l-.1 4a102.5 102.5 0 0 1-2.8 3.6l3 4.3c-.7 1.1-1.3 2-2 2.3-1.2-1.7-2.3-3-3.5-4.3l-1.8 5.2c-.1.4.1 1 .2 1.4h-.4c-2.1.2-4 .3-5.6.7-.3 0-.4 2.4-.2 2.4 1.7.5 3.4.7 5.2 1 .3 0 .6 0 1 .2-1.1 3-2.5 5.2-6 4.3-.7-6.4-4.3-3.4-7.1-2.6.1-2.2.3-4.3 1-6.7 4.3 2 5.4-1 7.5-3.9L48.2 64l2.2-6.4-4-3c0-2 1-4.3.4-5-.9-1-3.1-1-4.8-1.6.7-1.4 1.3-3 2.2-4.2 1-1.3 2.5-2.4 4-3.7-2.1-2.2-3.1-5.7-7-2.3-.3-.5-.1-1.2-.2-1.8-.2-1.4-.5-4-.8-4-1.8 0-3.7.5-6 1 .3-2 1-4.2 1.6-6.7 1.4-.4 2.8-.4 4.6-.4-.1 3.5 1.8 5.5 5.1 7 1.2 2.6 2 5.2 6 4.2M56 64.8c.6-1.4 1.2-2.8 1.9-4-1.1-.6-2.3-1.5-3.4-1.4-.9.1-2.4 2-2.2 2.2.8 1.2 2 2.2 3.8 3.2m7.3-7l-1.9-4.4c-1 .5-2.4.7-2.7 1.5-.4 1-.3 3 .2 3.3 1.1.5 2.6.1 4.4-.4zM83 160.7c-1.5-.5-3-1.3-5-2.4l-4.3 2.7c-.2-1.7-.1-3.5 0-5.7-2.8-2-5.9-4.4-9.3-7.4 0-2 .4-3.5 1-5 1-.1 1.9 0 2.2-.4.9-1 2-2.2 2.1-3.5.1-.7-1.3-2.4-2-2.4-1.2 0-2.6 1-3.6 1.8-.6.6-.8 1.7-1.5 2.7-3.3 1.4-5.2 3.3-4.7 6.9-5.3 2.4-9.3 5.7-9.4 12.6-2.4-.6-4.4-1.6-6.4-2.5-.2-.7-.3-1.4-.1-2.6l7.3-4.4-6.4-4c-1.5-3.1-2.9-6.3-7.7-4-.3-1.8-.2-3.5-.2-5.6 1.6 0 3.4.3 5.5.7l5 5.9c1.4 1.8 2.5 3.5 4 6 1.8-2.3 3-3.7 4.2-5.5 2-2.1 3.9-4 6.3-6a487.3 487.3 0 0 0 6-4.8l-7.3-3.5c.3-.8.7-1.6 1-2.8 5.3 2.8 10.6 6 15.8 9.5-.3 2.4-.5 4.3-1 6.2-1.8.1-3.4.1-4.6.8-.6.3-1 2.4-.6 3a77.5 77.5 0 0 0 7.6 7.7c.5.5 2-.3 3.1-.4l2.7 6.8zm0 0" fill-rule="nonzero" fill="#f3f3f5" fill-opacity="1"/><path d="M155.6 80c0 2 0 4.3-.7 6.7-4.5-1.3-6 1.2-7.3 4.4-1.2 0-2 0-3-.3-1-9.2-5-16-12.6-21 .4-1.4.6-2.6 1.3-3.7 1.5 0 2.5 0 3.6.3l5 6c1.2 1.8 2.4 3.3 4.2 5.6 1.6-2.5 2.7-4.2 4.1-6 1.7-.2 3-.6 4.4-1 .3 1.9.6 3.6.5 5.7-2.2-1-4-2.3-5.7.4-.6 1-.3 2.4-.4 3.7h5.6c.3 0 .5-.4.8-.6zm-1.8 14c-1.4 3.6-2.7 7.2-4.5 10.7-3.5-3.7-5 0-8.7 1.7l5.6 4c-.5.8-1 1.7-1.9 2.3-1.9-1.2-3.4-2.3-5-3-.2-.1-1.2 1.6-1.9 2.5l5 3c-1 1.2-1.9 2.3-3.2 3.3-2-1.6-3.5-3-5-4.9v-3.2c3.4-4.3 6.6-8.4 10-12.3 4.7 1.1 5.4-1.8 6.2-5l3.5.8zm-9.4-46.1c1.2 2 1.2 4.4 4 6 2.2 1.3 2.7 5.4 3.6 8.7-1 .4-1.4.4-2 0l-5.1-5-4.8-4.5c-1 1.6-2 3.2-3.4 4.9-5.8.9-5.8 4-4 8l-7-1.4 1.1-5.2c4.3.7 6-2 7.5-5.5 1.4-1.3 2.5-2.7 4-4l6-2zm0 0" fill-rule="nonzero" fill="#eef1f2" fill-opacity="1"/><path d="M74 127.3c-2-1.2-3.8-2.3-5.9-4-.2-.8-.2-1 0-1.4l.8-1.8h.4c4.3 0 5.2-3.3 7-6 2.1 0 3.8.2 5.5.7v5.6c-.8.7-1.4 1.2-2.3 1.7-4 0-5 2.5-5.7 5.3zm0 0" fill-rule="nonzero" fill="#fbfcfd" fill-opacity="1"/><path d="M52 105c-1.7-3.8-3.3-7.5-4.5-11.7 2-.7 3.8-1 5.4-1-1.3 5.2-.5 6.1 5 7 .8 1.4 1.3 2.6 2 4.2-2.8.7-5.5 1.1-8 1.5zm0 0" fill-rule="nonzero" fill="#f3f3f5" fill-opacity="1"/><path d="M82 30.1c3.3-.8 6.6-1.6 10.6-2.2 1 .8 1.2 1.4 1.1 2.2l-5.9 6.1c-1.4 1-2.6 2-4 2.4-3-2.6-4.3-5.2-1.9-8.6zm0 0" fill-rule="nonzero" fill="#fbfbfb" fill-opacity="1"/><path d="M155.4 136c-.7-2.7-1-5.5-5-5.1-.4-3.5-2.3-5.5-6.3-6 2.5-3.6 5.3-7 8.5-10.8.5-.2.7-.2 1.2.2 0 1.8-.3 3.2-.7 4.7l-5.6 3.5 12.4 12.4-.8 1h-3.7zM81.6 30c-2 3.5-.8 6 2.1 9-.6 1-1.1 1.6-1.8 1.8-1.3-1.9-2.5-3.4-4.6-6.1-1.5 3.3-2.4 5.3-3.8 7.4-1.1 0-1.9 0-2.6-.4l-2-5.5c4-2 8.2-4.1 12.6-6zM31 65.4c4 1 5.6-.8 5.1-5 1.6-.6 3.3-1 5.5-1.3-.6 4-1.6 8.1-2.7 12.6-3-1.3-8-.5-7.9-6.3zm0 0" fill-rule="nonzero" fill="#f3f3f5" fill-opacity="1"/><path d="M74.2 127.5c.5-3 1.5-5.6 5.5-5.2 2.4 1.8 4.4 3.2 6.4 5l2 5.4c-3-1.4-5.7-3-8.7-4.2-1.5-.6-3.3-.5-5.2-1zm0 0" fill-rule="nonzero" fill="#eef1f2" fill-opacity="1"/><path d="M110 133.3c-2.3.3-4.7.6-7.6.7-.8-.5-1-.7-1.2-1.2 2.8-2.5 3.6-5 .8-8 0-.4 0-.6.4-.7 3.6 2 6.5 3 7.9-2 .2 0 .7 0 .7.4 0 1 0 1.9-.2 3-.4 2.9-.6 5.4-.8 8zm0 0" fill-rule="nonzero" fill="#f4f3f2" fill-opacity="1"/><path d="M120 30c4.2 2 8.4 4.2 12.7 7-.5 1.8-1.1 3-2 4H128v-.4c-1.3-3.5-3.5-5-6.9-5-.3-2.1-.7-4-1.1-5.7zm0 0" fill-rule="nonzero" fill="#eef1f2" fill-opacity="1"/><path d="M61 117.2c-1.7-1.8-3.4-3.6-5-6 1-1.5 2-2.3 3.2-3.1h4.9c.4.5.6.7.8 1.4 0 1.5 0 2.5-.3 3.7-1.5 1.4-2.6 2.7-3.8 4zm0 0" fill-rule="nonzero" fill="#fbfcfd" fill-opacity="1"/><path d="M61 117.5c1-1.6 2.2-3 4-4.3 5 .7 5.8 3 4 6.9l-.3.2-.8 1.8v1c-2.3-1.5-4.5-3.3-7-5.5zm0 0" fill-rule="nonzero" fill="#fbfbfc" fill-opacity="1"/><path d="M158.7 57.4c1.3.5 2.6 1.4 4.8 2.9 1.2-1.8 2.3-3.7 3.5-6 1.8-.6 3.5-1 5.5-1-.4 1.9-1 3.3-1.9 4.8-5.6 2-6 3-3.6 7l-5.7-1c-1.1-2-1.8-4.2-2.6-6.7zm0 0" fill-rule="nonzero" fill="#f3f3f5" fill-opacity="1"/><path d="M150 63h2c1.2 2.4 2 4.9 2.8 7.7-1.4.7-2.7 1-4.7 1.2-1.4-1-2.3-2-3-3.2v-3l3-2.7zm0 0" fill-rule="nonzero" fill="#f8fafc" fill-opacity="1"/><path d="M82 138.8c3.5.7 6.9 1.4 10.7 2.6 0 2.2-.3 4-1 5.6-1.8 0-3.2 0-4.6-.4l-5-6v-2zm0 0" fill-rule="nonzero" fill="#f3f3f5" fill-opacity="1"/><path d="M107.4 150l-4-2.3c-.7-.8-1-1.2-1.3-2l2-4.3 3.6-.3c1.2 1 2 1.8 3 3 .4 1 .4 1.4 0 1.9-.7 1-1.1 2-1.6 3.2 0 .3 0 .7-.3.7h-1.3zm0 0" fill-rule="nonzero" fill="#fdfcfd" fill-opacity="1"/><path d="M119.7 29.9c.7 2 1.1 3.7 1.1 6-.9 1-1.4 1.6-2.2 2.2h-3c-1-.7-1.9-1.3-2.5-2.3.4-1 .6-2 1.2-2.8 1-1 1.5-1.8 2.1-2.7 1-.1 2-.3 3.2-.3zm0 0" fill-rule="nonzero" fill="#fefefe" fill-opacity="1"/><path d="M41.9 48.2c1.8.3 4 .3 4.9 1.4.7.8-.4 3-.7 5-.8.7-1.5 1-2.5 1.4-1.2-.8-2.1-1.7-3.3-3.2 0-1.6.4-2.7.7-3.8.3 0 .6-.3.9-.8zm0 0" fill-rule="nonzero" fill="#fdfdfd" fill-opacity="1"/><path d="M134 123c-1.4 1-2.7 2-4.8 3l-3.4-.1c-.5-.3-.7-.6-.8-1.3 0-1.1 0-2 .3-2.8 1-1 1.9-2 3-2.8l4 1 1.7 2v.7zm0 0" fill-rule="nonzero" fill="#fdfdfe" fill-opacity="1"/><path d="M101 133l1 .9c-3.4.1-6.9 0-10.6-.8.4-2.8 1-5 2-7l2.8 1c.3.5.6.7 1 1.1 1.3 1.8 2.7 3.2 4 4.7zm0 0" fill-rule="nonzero" fill="#eef1f2" fill-opacity="1"/><path d="M81.8 138.6c.2.7.2 1.2 0 2.3-.8 1.4-1.2 2.3-2 3.2l-3.9-.1c-.5-.3-.7-.6-.8-1 .2-2 .5-4 1-6 2 .5 3.8 1 5.8 1.7zm0 0" fill-rule="nonzero" fill="#f8fafc" fill-opacity="1"/><path d="M65 44c-1 4.5-3.6 5.6-8 2.7-.7-1-1-1.8-1.4-2.6l1.3-.2c1.4-1 2.2-2 3-3v-1c.2-.1.4-.1 1 .3 1.3.8 2.2 1.2 3.2 2l.9 1.7zm0 0" fill-rule="nonzero" fill="#fdfdfd" fill-opacity="1"/><path d="M92 147l1-5.5c1.4-.3 2.8-.3 4.5 0 .4.3.5.6.6.8.3.5.6.7.9.8v3l-.3.1c-1.8 1-3.2 2-4.8 2.6-.7-.8-1.3-1.2-1.9-1.7zm1-21l-2 6.9c-.8.3-1.5.2-2.6 0-1-1.8-1.7-3.5-2.1-5.7.7-1 1.2-1.6 2-2.2.8 0 1.2 0 1.9.3 1 .4 2 .6 2.8.8zm0 0" fill-rule="nonzero" fill="#fefefe" fill-opacity="1"/><path d="M134 122c-.5-.6-1-1.1-1.7-2.2.4-2.3 1-4 1.7-5.8l4.8 4.5c-1 1.3-2 2.3-3.6 3.4h-1.1zm0 0" fill-rule="nonzero" fill="#fdfdfd" fill-opacity="1"/><path d="M65.4 44c-.6-.5-1-1-1.3-2a22 22 0 0 1-.2-2l4.8-3.6c1 1.6 1.6 3.3 2 5.7-1 1-2 1.6-2.7 2h-2.6zm0 0" fill-rule="nonzero" fill="#f8fafc" fill-opacity="1"/><path d="M144.2 47.6c-1.7 1-3.6 1.7-6 2-1-1-1.7-1.8-2-3 .6-1.7 1.2-3.1 2.1-4.6h.8c1.7 1.8 3.4 3.5 5.2 5.6zm0 0" fill-rule="nonzero" fill="#fafcfd" fill-opacity="1"/><path d="M155.7 79.7c-.3.6-.6 1-.9 1h-5.6c.1-1.2 0-2.7.4-3.7 1.6-2.7 3.5-1.4 5.6 0 .4.8.5 1.6.5 2.7zm0 0" fill-rule="nonzero" fill="#fdfdfd" fill-opacity="1"/><path d="M110.5 133.3c-.2-2.5 0-5 .7-8 1-.3 1.4-.3 2 0l2.8 3a90.4 90.4 0 0 1-1 3.8l-4.6 1zm0 0" fill-rule="nonzero" fill="#fefefe" fill-opacity="1"/><path d="M154 93.6c-1.3.1-2.4-.1-3.8-.7a101 101 0 0 0-2.2-1.8c1-3.1 2.3-5.7 6.7-4 0 2.1-.3 4.2-.8 6.6zm0 0" fill-rule="nonzero" fill="#fdfdfe" fill-opacity="1"/><path d="M59 108c-1 .8-2 1.6-3 2.8-1.4-1.4-2.7-3.3-4-5.4 2.6-.7 5.3-1.1 8.2-1.7.7.6 1.2 1.3 1.2 2.2l-1.6 1.2c-.5.3-.7.6-.8.9zm0 0" fill-rule="nonzero" fill="#fafcfd" fill-opacity="1"/><path d="M45.8 77.4c3-1.2 6.5-4.2 7 2.4-1.4 1-2.6 1.6-4 2a66.8 66.8 0 0 0-3-1v-3.5zm0 0" fill-rule="nonzero" fill="#fefefe" fill-opacity="1"/><path d="M53 92l-5.4 1c-.7-1.4-1-2.8-1-4.6 1-1 1.8-1.7 2.9-2.3 1.5 1 2.6 2 3.7 3.3V92zm0 0" fill-rule="nonzero" fill="#fdfdfd" fill-opacity="1"/><path d="M48 64.3c2 .4 4 1.2 6.3 2.1-2.2 2.8-3.2 5.8-7.3 3.5 0-1.9.3-3.6 1-5.7zm0 0" fill-rule="nonzero" fill="#fafcfd" fill-opacity="1"/><path d="M97 27.2c2.4 0 4.7 0 7.5.3.5.8.5 1.2.2 1.7l-3 3.6c-1.2 0-1.9 0-2.7-.4-.7-1-1.4-1.7-2-2.8V27zm0 0" fill-rule="nonzero" fill="#fdfdfd" fill-opacity="1"/><path d="M146.4 110.1c-1.8-.9-3.4-2-5.8-3.7 3.8-1.6 5.2-5.4 8.5-1.4-.7 2-1.5 3.4-2.6 5.1zm0 0" fill-rule="nonzero" fill="#fafcfd" fill-opacity="1"/><path d="M125 125l.8 1.2.3 2c-2.1 1-4.2 1.8-6.7 2.4-.4-1.4-.4-2.5-.1-3.7.7-.7 1.2-1.3 2.1-1.8h3.6zm0 0" fill-rule="nonzero" fill="#f6fafc" fill-opacity="1"/><path d="M142.5 115l-5.2-3c.7-.8 1.7-2.5 2-2.4 1.6.7 3.1 1.8 4.7 3.2-.4 1-.8 1.5-1.5 2.2zm0 0" fill-rule="nonzero" fill="#fdfdfe" fill-opacity="1"/><path d="M116.5 29.8c-.6 1.2-1.2 2-2.5 3-1.5.2-2.2.2-3-.1l-3-4v-1c2.9.6 5.6 1.2 8.5 2zm0 0" fill-rule="nonzero" fill="#fbfcfd" fill-opacity="1"/><path d="M139 41.7c0 .3-.3.3-1 .4-2 .3-3.6.7-5 .7l-2-1.7a571 571 0 0 0 2-3.8c2 1.2 4 2.7 6 4.5zm0 0" fill-rule="nonzero" fill="#f7fbfd" fill-opacity="1"/><path d="M49 86l-2.5 2c-.5-2-.7-4-.8-6.5 1-.2 1.8 0 3 .8.3 1.6.3 2.7.3 3.7zm0 0" fill-rule="nonzero" fill="#f3f3f5" fill-opacity="1"/><path d="M119 127v3.6c-1 .8-2.2 1.2-3.6 1.5 0-1.2.3-2.3.8-4 .5-.7.7-1 1.1-1.2h1.7zm0 0" fill-rule="nonzero" fill="#eef1f2" fill-opacity="1"/><path d="M99 146c0-.7 0-1.5.3-2.6 1.1-1 2-1.5 2.7-2a8.6 8.6 0 0 1 1.7 0c-.3 1.4-1 2.7-2 4.4-1.2.3-2 .3-2.7.3zm0 0" fill-rule="nonzero" fill="#f3f3f5" fill-opacity="1"/><path d="M96.7 27c.3.9.3 1.6 0 2.7-1.2.4-1.9.4-2.7.4l-1-2c1-.4 2.2-.7 3.7-1zm11.3.4c0 .5 0 .7-.4 1.3-1.1.3-1.9.3-2.6.3v-1.5c1-.3 2-.3 3-.1zm0 0" fill-rule="nonzero" fill="#eceded" fill-opacity="1"/><path d="M82 20.3c1-.3 2-.3 3.2 0-.8.8-1.7 1.2-2.9 1.6-.3-.4-.3-.9-.3-1.6zm0 0" fill-rule="nonzero" fill="#f8fafc" fill-opacity="1"/><path d="M101.6 141.2c-.4.7-1.2 1.2-2.3 1.8-.3 0-.3 0-.4-.2-.3-.5-.6-.7-.9-.8v-.5c1-.2 2.2-.3 3.7-.3zm0 0" fill-rule="nonzero" fill="#e7eef6" fill-opacity="1"/><path d="M54.3 124c-.4-.7-.4-1.5-.4-2.6 1 .4 1.8 1.2 2.8 2.3-.6.3-1.4.3-2.4.2zm0 0" fill-rule="nonzero" fill="#f3f3f5" fill-opacity="1"/><path d="M126.4 128c-.3-.4-.3-.9-.4-1.7.8-.3 1.6-.3 2.9-.2-.5.7-1.3 1.3-2.5 2zm0 0" fill-rule="nonzero" fill="#eef1f2" fill-opacity="1"/><path d="M63.6 39.9c.4.4.4 1 .4 1.8-1 0-1.8-.5-2.8-1.2.6-.4 1.3-.4 2.4-.6zm91.1 8.1c.2.3.1.5-.3.8-.2.1-.5-.3-.6-.5.1-.3.3-.3.8-.3zm0 0" fill-rule="nonzero" fill="#f3f3f5" fill-opacity="1"/><path d="M134 122.2c.2-.2.4-.2.8-.2 0 .3-.1.5-.6 1-.2 0-.2-.5-.2-.8zm0 0" fill-rule="nonzero" fill="#eef1f2" fill-opacity="1"/><path d="M40.6 49c0 1.1-.3 2.2-.6 3.7-.8.3-1.5.3-2.6.4-.6-1.1-.9-2.2-1.2-3.7 1.3-.3 2.6-.3 4.5-.3zm-3.3-8c-1.5-3.5.9-3 3.3-3-.7 1-1.8 2-3.3 3zM20.4 24c-.4-.8-.4-1.5-.4-2.6.8-.3 1.7-.2 2.8-.3-.5.9-1.3 1.9-2.4 3zm20.8 1.9c-.1-.2 0-.5.6-.8.1.2 0 .5-.6.8zm0 0" fill-rule="nonzero" fill="#f3f3f5" fill-opacity="1"/><path d="M176 160.1c-3 1.4-5.9 2.4-8.7 3.4l-1.3-1.4c.4-2.5 0-5.8 1.4-7 1.3-1.2 4.8-.8 7 0 1 .4 1.3 3 1.7 5zm0 0" fill-rule="nonzero" fill="#e9e2f1" fill-opacity="1"/><path d="M166.2 176c.7-2.8-2.6-7 3.5-7.5 1.4 2.5 2.4 4.5 3.2 6.8-.7.8-1.3 1.2-2.2 1.7l-4.5-1zm0 0" fill-rule="nonzero" fill="#fcfcfc" fill-opacity="1"/><path d="M171 177l2.2-1.7c1.3 0 2.3.3 3.2.6l.7 4.5c0 1-.3 1.6-.8 2.5-1 0-1.9-.3-3-.7-.3-.1-.3-.1-.4-.4l-1.8-4.7zm0 0" fill-rule="nonzero" fill="#fdfdfd" fill-opacity="1"/><path d="M176.5 175.5c-1 0-2-.2-3.2-.5-1.3-2-2.2-4-3.3-6.5 5.4-.4 6.5.7 6.5 7zm-5.8 1.5c1 1.5 1.5 3 2.2 4.7-2 0-4.1-.4-6.6-.8-.3-1.5-.3-2.9-.1-4.6 1.5 0 2.8.4 4.6.7zm0 0" fill-rule="nonzero" fill="#f3f3f5" fill-opacity="1"/><path d="M153.1 119.3c.2-1.7.5-3.1 1-5 .8-.5 1.6-.7 3-1.1 1-.3 1.4-.3 2-.3 1 .8 1.7 1.6 2.8 3l.1 3c-.8 1-1.6 1.8-3 2.8h-3c-.9-.7-1.8-1.5-2.8-2.6zm0 0" fill-rule="nonzero" fill="#fdfdfd" fill-opacity="1"/><path d="M162.3 119c-.3-.8-.3-1.5-.3-2.7 3.5-1.6 3 1 3 3.3-.8 0-1.6-.3-2.7-.6zm-6.3 3.4c.7-.4 1.5-.4 2.6-.4.2 1 0 2-.2 3-.8-.7-1.6-1.5-2.5-2.6zm3-9.7c-.4.3-.9.3-1.7.3.1-.7.6-1.3 1.3-2 .3.4.3.9.3 1.7zM186.6 72c.4.8.4 1.5.4 2.6l-5 6c-.8 0-1.6-.3-2.7-.6-.3-.8-.3-1.5-.3-2.7 1.6-1.8 3.3-3.2 5-5 .8-.3 1.5-.3 2.7-.3zm-13.6-.6c1 .4 2 1.2 3 2.3-.8.6-1.6.8-2.7 1.2-.3-1-.3-2-.3-3.5zm-2-5.4l1.8 4.7c-1.6 0-3.3-.3-5.5-.7-.4-1.4-.4-2.8 0-4.5 1.4 0 2.6.2 3.7.4zm0 0" fill-rule="nonzero" fill="#f3f3f5" fill-opacity="1"/><path d="M171 58c.6-1.5 1.1-3 2-4.7 0-.3 0-.3.3-.4l2.8.1 1.8 2.2c.6 1.2 1 2 1.1 2.8-.8 1-1.6 1.8-3 2.8h-2L171 58zm0 0" fill-rule="nonzero" fill="#fdfdfd" fill-opacity="1"/><path d="M170.6 58c1.2.8 2.1 1.6 3 3l-.6 3-1.8 1.7c-1.3 0-2.4-.2-3.8-.6-2.8-4.2-2.3-5.2 3.3-7zm0 0" fill-rule="nonzero" fill="#fdfdfd" fill-opacity="1"/><path d="M173.3 63.9c-.1-.7 0-1.6.4-2.7.7-.2 1.2-.2 2-.2-.5 1-1.3 1.8-2.4 2.9zm6-5.9c-.6-.8-.8-1.6-1.2-2.7.6-.3 1.4-.3 2.5-.3.4.8.4 1.5.4 2.6-.4.4-.9.4-1.7.4zm1.4 8c.3.7.3 1.5.3 2.6a5.8 5.8 0 0 1-.3-2.6zM160 46.6c-1.4.4-2.8.4-4.6.4 1.4-1.6 3.1-3.3 5.2-5 0 1.4-.3 2.8-.6 4.6zM155.4 36c-.1-.8.2-1.6.6-2.7.8-.3 1.5-.3 2.7-.3.6.8.9 1.6 1.2 2.7-1.3.3-2.7.3-4.5.3zm6.4 5.1c.1.2 0 .5-.6.8-.1-.2 0-.5.6-.8zM155.4 25c0-1.1.3-2.2.6-3.7.8-.4 1.5-.3 2.6-.3.6 1.1.9 2.2 1.2 3.7-1.3.3-2.7.3-4.5.3zM176 52.6c-.8.3-1.7.2-2.8.3-.3-.7-.3-1.4-.3-2.5.8-.4 1.5-.4 2.6-.4.4.8.4 1.5.4 2.6zm0 0" fill-rule="nonzero" fill="#f3f3f5" fill-opacity="1"/><path d="M138.4 155.1c6.3 0 7.6 1.8 7 9.4h-10c-.6-3.6-1-7 3-9.4zm0 0" fill-rule="nonzero" fill="#f0ebf5" fill-opacity="1"/><path d="M121.8 170c-.4-1.4-.5-2.8-.1-4.6l6-2.4v7.6c-2 .1-3.8-.2-6-.5zm0 0" fill-rule="nonzero" fill="#f3f3f5" fill-opacity="1"/><path d="M127.8 162.6c-2 1-3.8 1.7-6 2.4-.4-1.7-.5-3.4 0-5.5 1.7-.4 3-.4 4.3-.4l1.5 1c.3.8.4 1.5.4 2.6zm0 0" fill-rule="nonzero" fill="#fdfcfd" fill-opacity="1"/><path d="M143.3 181c.2-.6.8-1.2 1.6-2 .5.2.7.5.9 1-.7.5-1.5.7-2.6 1zM126 158.7c-1.2.4-2.5.4-4.2.4-.5-1-.5-2.2-.5-3.7 1.6.7 3.1 1.8 4.6 3.3zm0 0" fill-rule="nonzero" fill="#f3f3f5" fill-opacity="1"/><path d="M111 146v-1.7c.6.1 1.3.6 2 1.6 0 .6 0 1-.3 1-.8 0-1.2 0-1.7-.2v-.7zm0 0" fill-rule="nonzero" fill="#e7eef6" fill-opacity="1"/><path d="M113 147v-.7c.7.3 1.3.7 2 1.6 0 .3 0 .3-.3.3l-1.8-1zm0 0" fill-rule="nonzero" fill="#f8f6fa" fill-opacity="1"/><path d="M36 169c-.8 3.2-2.4 5.5-5.9 6-2.6.4-5 .2-4.9-3.7l4.6-4.3-4.9-3.1c0-1.1-.5-2.3-.2-3.4.5-1.9 1.4-5.2 2-5.2 2.6 0 5.2 1.2 7.4 2.3-2 1.5-3.8 2.7-7 4.8 3.5 1.6 5.6 2.6 7.5 3.8l1.1 2.8zm0 0" fill-rule="nonzero" fill="#f2f0f5" fill-opacity="1"/><path d="M36.3 169c-.7-.9-1-1.7-1.2-3l2.3-4.3h2.1c1.5 1.5 2.5 2.8 3.4 4.5v2.6c0 .4 0 1-.2 1.6-.6 0-1-.3-1.4-.5-1.6-.4-3.2-.8-5-1zm0 0" fill-rule="nonzero" fill="#f6f3fa" fill-opacity="1"/><path d="M42.9 147.2c1.8.8 3.5 2 6.5 3.8-3 1.8-5 3-7.3 4-1.3-1.4-2.2-2.8-3.2-4.5-.1-.3 0-.4.5-.5 1.2-.7 2-1.4 2.8-2 .3 0 .6-.3.9-.8zm0 0" fill-rule="nonzero" fill="#fdfdfd" fill-opacity="1"/><path d="M37.2 161.6c-.4 1.5-1 2.7-2 4.2-2.3-.7-4.3-1.7-8-3.3 3.2-2.1 4.9-3.3 7-4.4 1.2 1 2 2.2 3 3.5zm0 0" fill-rule="nonzero" fill="#fdfcfd" fill-opacity="1"/><path d="M43 166c-1-1.3-1.9-2.6-3.2-4 .5-1.2 1.3-2.3 2.2-3.6 2.1.7 4.1 1.6 6.5 2.6.4.5.4 1 0 1.7l-5.6 3.3zm-18.1-1.6c1.7.6 3.3 1.7 5 2.7-1.4 1.3-2.8 2.6-4.5 3.9-.4-2-.5-4-.5-6.6zm0 0" fill-rule="nonzero" fill="#fdfdfd" fill-opacity="1"/><path d="M41.4 170.5c.4-.1.8 0 1.4.4 0 1-.3 2-.8 3-.4-1-.5-2-.6-3.5zm0 0" fill-rule="nonzero" fill="#efebf4" fill-opacity="1"/><path d="M26 127.3c1.6-1.8 3.3-3.2 5-5 .8-.3 1.5-.3 2.7-.3.4.8.4 1.5.4 2.6l-5 6c-.9 0-1.8-.6-2.9-1.4-.2-.7-.2-1-.2-2zm-3.3 4.7c.5 1 .8 2.1 1.1 3.6-1.3.3-2.7.3-4 .3l-.7-1.2 3.6-2.7zm0 0" fill-rule="nonzero" fill="#f3f3f5" fill-opacity="1"/><path d="M58.7 130.1c2.3 1 4.4 1.8 7.5 3.3-2.6 2.1-4 3.3-6 4.5-.8-.6-1.3-1-2.2-2.2-.6-1.6-.9-2.7-1-3.8l1.6-1.9zm0 0" fill-rule="nonzero" fill="#fefefe" fill-opacity="1"/><path d="M56.8 132c.5 1 .7 2.3 1 3.7-2.1.5-4.1.3-3.8-3.3.8-.3 1.7-.3 2.8-.3zM41 120l.4.4-.3-.3-.1-.1zm-6.8 1.9c-.1-.2 0-.5.6-.8.1.2 0 .5-.6.8zm7.5 26.1c-.4.6-1.2 1.3-2.3 2 .4-.6 1.2-1.3 2.3-2zm91.1-122.9c.1.2 0 .5-.6.8-.1-.2 0-.5.6-.8zM31.4 113c-1.8-1.6-3.2-3.3-5-5-.3-.8-.4-1.5-.4-2.7.8-.6 1.6-.9 2.7-1.3 1.7 1.8 3.2 3.8 5 5.8.4.8.4 1.5.4 2.7-.8.4-1.5.4-2.6.4zm2.7.2c.2-.1.5 0 .8.6-.2.1-.5 0-.8-.6zm0 0" fill-rule="nonzero" fill="#f3f3f5" fill-opacity="1"/><path d="M55.4 44.1c.6.8 1 1.5 1.3 2.6-.2.8-.5 1.2-1.1 2.1-1.5.7-2.5 1-3.6 1.4l-3.7-5 4.3-2 2.8 1zm0 0" fill-rule="nonzero" fill="#68bcf4" fill-opacity="1"/><path d="M59.7 41c-.4 1-1.2 2-2.3 3 .4-1 1.2-2 2.3-3zm0 0" fill-rule="nonzero" fill="#f3f3f5" fill-opacity="1"/><path d="M117 180.9c-.7.2-1.3-.1-2-1-.4-1.3-.4-2-.4-3v-1l.1-5.7v-1.7-2.8-8.2-2.8-2.2l.6-2.6 1.7 19.7c.2 3.5 0 7 .1 11zm0 0" fill-rule="nonzero" fill="#8625c4" fill-opacity="1"/><path d="M115.1 149.7c0 1-.3 1.8-.7 3-.4 1.1-.5 1.7-1 2.2-1 0-1.7 0-2.6-.3a262.5 262.5 0 0 1-1.8-4.6s0-.5.3-.9l1.7-2.1h1.7l2.2 1c.3.5.3.9.3 1.6zm0 0" fill-rule="nonzero" fill="#fcfbfc" fill-opacity="1"/><path d="M99 146h2.6c.7.5 1 .9 1.4 1.6-2 4.8-4.2 9.2-6.2 13.7-.9 2-1.3 4.3-1.9 6.5l-1.4-.2-8.2-19.4c.5-.8 1.1-1 1.7-1.2h4.6c1 .5 1.6 1 2.3 2.1.5 3 1.5 3.8 3 1.7 1-1.3 1.4-3.1 2-4.7zm0 0" fill-rule="nonzero" fill="#f4f1f7" fill-opacity="1"/><path d="M74.7 142.9l1.2 1.4c2 1.7 3.5 3 5 4l-.7 5.2c-1 .6-2.6 1.3-3.1.8a77.5 77.5 0 0 1-7.6-7.7c-.4-.5 0-2.6.6-3 1.2-.7 2.8-.7 4.6-.8zm0 0" fill-rule="nonzero" fill="#fdfdfd" fill-opacity="1"/><path d="M108.7 150c.8 1.5 1.4 3 2.1 5 .2 1.4.2 2.2 0 3.2-1 1-2 1.9-3.3 2.7l-3-.1 3-10.5c.3-.4.7-.4 1.3-.4zm0 0" fill-rule="nonzero" fill="#f8f6fa" fill-opacity="1"/><path d="M87 146.6c-.6.6-1.2.8-1.9 1.3-1.2.3-2.3.3-3.7 0-.7-1.5-1-2.7-1.3-4l1.7-2.8c2 1.6 3.6 3.3 5.3 5.4zm0 0" fill-rule="nonzero" fill="#fdfdfd" fill-opacity="1"/><path d="M104.2 161.1c1.1-.2 2-.2 3.3.2.4.8.4 1.2.5 1.7l-4.7 2c0-1.2.4-2.4 1-3.9zM79.6 144c.7 1.2 1 2.4 1.3 4v.4c-1.6-1.2-3.1-2.5-4.8-4 1-.3 2-.3 3.5-.3zm5.5 20.9c-.2 0-.2-.2-.2-.2l.2.2zm29.4 1.2l-.1 2.4c-.3.4-.7.5-.7.5h-3.4c-.3-.8-.2-1.7.1-2.8 1.3-.2 2.3-.2 3.5-.2h.6zm.1 11l.2 2.5c-1 .4-2 .3-3.4.3-.4-.4-.4-.9-.4-1.7.7-.7 1.4-1 2.7-1.3h1zm0 0" fill-rule="nonzero" fill="#f3f3f5" fill-opacity="1"/><path d="M113.9 169.2c-.1-.2.3-.3.5-.3.3.2.3.4.3.9-.4 0-.6 0-.8-.6zm.7 7.6c0 .3-.5.3-.7.2 0-.3 0-.6.4-1 .2 0 .3.3.3.8zm0 0" fill-rule="nonzero" fill="#d0bbe6" fill-opacity="1"/><path d="M113.7 166h-3.4c-.9-.9-1.4-1.8-2-2.8-.4-.6-.4-1-.4-1.8 1-1 1.8-2 3.2-3 1.2-.3 2-.3 2.6 0v7.6zm0 0" fill-rule="nonzero" fill="#fefefe" fill-opacity="1"/><path d="M64 155.9c1 2.8 2 5.4 3 9.4-4.6-.5-8-.6-11-1.4-.5-.1-.4-4.4.5-6.3 1.4-3 4.3-3.4 7.5-1.6zm0 0" fill-rule="nonzero" fill="#efeaf5" fill-opacity="1"/><path d="M58.4 148c-1-3.6 1-5.5 4.5-6.8 1 .6 1.6 1.1 2 1.7l-1 4.7c-1.8.4-3.5.3-5.6.3zm0 0" fill-rule="nonzero" fill="#fdfdfd" fill-opacity="1"/><path d="M43 166.4c1.7-1.3 3.4-2.3 5.5-3.3.4 2.7.4 5.4.4 8.5-1.8-.5-3.5-1.5-5.6-2.5-.3-.8-.3-1.5-.3-2.7zm0 0" fill-rule="nonzero" fill="#f2f0f5" fill-opacity="1"/><path d="M79 168.7c-1.7 1.3-3.4 2.3-5.4 3.3-.4-2.7-.5-5.4-.4-8.6 2 1.3 4 3 5.9 5.2zm0 0" fill-rule="nonzero" fill="#f3f3f5" fill-opacity="1"/><path d="M49.3 86c-.3-1-.3-2.1-.3-3.6 1.1-1 2.3-1.5 3.7-2.2 3.7.4 5-1.9 6.2-5.2v-4h.4l4.7-2 2.3-2.7 5.6-4.5L66 58c0-1 0-2.1.4-3.6 1.1-.4 1.9-.4 3-.5.8-1 1.2-2 1.7-3.2 0-.4 0-.6.2-1 1.8-1.4 3.3-2.6 5.2-3.8 1.3-.4 2.2-.8 3-.7-3.5 7.6-3.3 14.8.3 22.2-11.5 1.2-18.8 7.2-23 17.7L53 89c-1.1-1-2.2-2-3.7-3zm0 0" fill-rule="nonzero" fill="#f6f5f4" fill-opacity="1"/><path d="M76 46c-1.5 1.2-3 2.3-5 3.6-1.3-.8-2-1.7-3-2.6v-2.6c1-.9 1.8-1.4 2.8-2.1 1-.3 1.7-.3 3-.2 1 .3 1 .6 1.3 1.2A97 97 0 0 1 76 46zM66 58.3c1.8.8 3.5 1.9 6 3.5-2.2 1.8-3.7 3-5.5 4.2-1.3-1.2-2.2-2.5-3.3-4a102.5 102.5 0 0 0 2.8-3.7zm0 0" fill-rule="nonzero" fill="#fefefe" fill-opacity="1"/><path d="M67.7 47l3 2.8c.3.3.3.5 0 1A67.8 67.8 0 0 0 69 54h-2.6c-4.2-3.3-4.1-3.7 1.3-7zm0 0" fill-rule="nonzero" fill="#fdfdfd" fill-opacity="1"/><path d="M58.6 71c.4 1 .4 2.2.4 3.6-.3.5-.7.6-1 .5-1.7-.3-3.5-.5-5.2-1-.2 0 0-2.3.2-2.4 1.7-.4 3.5-.6 5.6-.7zm5.4-2.4c-1.4 1-2.9 1.7-4.6 2.4-.4-.5-.7-1-.6-1.4.5-1.8 1.2-3.5 1.8-5.2 1.1 1.3 2.3 2.6 3.4 4.3zm-8.1-3.7c-1.4-1-2.6-2-3.4-3.3-.1-.2 1.4-2 2.2-2.2 1-.1 2.3.8 3.4 1.3-.6 1.4-1.2 2.8-2.2 4.2zm7.4-6.8c-1.6.3-3.1.7-4.2.1-.5-.3-.6-2.4-.2-3.3.3-.8 1.8-1 2.7-1.5.6 1.5 1.3 3 1.7 4.7zm0 0" fill-rule="nonzero" fill="#fefefe" fill-opacity="1"/><path d="M52 50.6c1-.7 2-1 3.5-1.5 1.3.6 2.2 1.3 3.2 2-1 1-2 2.8-2.5 2.6-1.5-.5-2.7-1.8-4.1-3zm0 0" fill-rule="nonzero" fill="#fdfdfe" fill-opacity="1"/><path d="M65.4 143c-1-.6-1.3-1.2-2-2 0-1 .3-2 1-2.6 1-1 2.3-1.7 3.6-1.8.6 0 2 1.7 2 2.4-.2 1.3-1.2 2.4-2.1 3.5-.3.4-1.2.3-2.2.4zm0 0" fill-rule="nonzero" fill="#fefefe" fill-opacity="1"/><path d="M57.1 85C61 74.7 68.3 68.7 79.8 67.5c-3.6-7.4-3.9-14.6-.3-22.3 0-.5.1-.6.3-.8.9-1.2 1.6-2.2 2.2-3.3l1.9-1.8c1.3-1.1 2.5-2 4.3-3L99 32.8l3 .2c3.5.7 6.3 1.4 9.2 2.3l1.8.8c.8.6 1.6 1.2 2.7 2.3l3.4 3c.7 1 1.4 1.9 2 3l1.8 3.5v19.6l9 2.6c7.6 4.7 11.8 11.4 12.6 21-.2 2.8-.5 4.8-.8 6.9l-10.1 12.6c-3.3 1.4-6 2.5-9 3.5-1.5 0-2.5.2-4 .3l-7-1-2.7-1-10.1-7.8c-4 2.9-7.9 5.7-12.1 8.5-.8.2-1.3.4-2.3.5l-4.4.9c-1.7-.1-3.4-.2-5.8-.6l-11.1-4.7a58.4 58.4 0 0 0-1-1.1 64.2 64.2 0 0 0-2.3-2.1c-.4-.7-.8-1.5-1.5-2.3-.8-1.4-1.4-2.6-2.2-4.5-.5-5-.7-9.5-.9-14m9.2-3c-4.4 8.4-3 16.2 4 21.8 5.6 4.6 15.3 4.4 20.8-.4 5-4.3 6.9-9.8 5.6-16C95.4 81 91 76.7 84.5 75.2c-7-1.6-13 .4-18 7m38.6 13.2c3.3 9 10.4 13.4 19.3 11.6 7-1.4 13.5-7 13-16.8-.3-6.6-3.3-11.2-9-13.8-6-2.7-12.5-2.7-17.8 1.8-5 4.2-7.7 9.5-5.6 17.1M90 43.4c-1 1-2 1.8-2.7 3-4.4 6-4.6 13.5-.5 19 4.7 6.3 12 8.6 19.4 6.2 6.4-2 11-8.6 11-15.6 0-13.3-14-20.1-27-12.5zm0 0" fill-rule="nonzero" fill="#7c593e" fill-opacity="1"/><path d="M132.1 69.7c-3.5-.7-7-1.7-9.2-2.3 0-7 0-13.1.5-19.7 1.2-.6 2-.6 2.8-.6.8.7 1.2 1.3 1.6 2.2l-2 5c2.4-1 3.8-1.6 5.5-2.1L134 54c-1.2 3.4-3 6.2-7.2 5.4a4382.5 4382.5 0 0 0-1 5.2l7 1.4c0 1.2-.2 2.3-.6 3.7zm0 0" fill-rule="nonzero" fill="#fcfcfc" fill-opacity="1"/><path d="M133.4 66c-2.5-4-2.5-7 3.5-7.8 1.4 1 2.3 2 2.8 3l-.9 3-1.8 1.7h-3.6zm0 0" fill-rule="nonzero" fill="#fdfdfd" fill-opacity="1"/><path d="M137 66.3c.6-.9 1.1-1.4 2-2.2 1.2-.3 2-.2 3 .1l2.8 3v2c-1 1-2 2-2.9 2.7-1.7-1.8-3.3-3.5-5-5.6zm5 6c.9-1.1 1.8-2 3.2-3 1-.3 1.4-.3 1.8-.3l2.7 2.9c-.8 1.8-1.9 3.5-3.5 6-1.8-2.3-3-3.7-4.2-5.6zm2.1 25.7c0-2.2.3-4.3.7-6.7.9-.4 1.7-.4 2.8-.4 1 .5 1.5 1 2.2 1.7-.3 3.5-1 6.5-5.7 5.3zm0 0" fill-rule="nonzero" fill="#fdfdfd" fill-opacity="1"/><path d="M125 114l8.5-3.3c.4.7.4 1.6.5 2.8l-2 6c-1 0-2.2-.2-3.7-1a238 238 0 0 1-3.3-4.6zm0 0" fill-rule="nonzero" fill="#f4f3f2" fill-opacity="1"/><path d="M140 61c-.8-1-1.7-1.8-2.7-2.8.8-1.8 1.8-3.4 2.8-5 1.6 1.4 3.1 2.8 4.7 4.8-.9 1.4-1.8 2.2-3 3h-1.7zm0 0" fill-rule="nonzero" fill="#fdfdfd" fill-opacity="1"/><path d="M142 61c1-.8 1.8-1.6 2.8-2.7 1.8 1.2 3.4 2.6 5.1 4.4-.9 1.2-1.8 2-3 3l-2 1.3c-.9-.8-1.8-1.6-2.8-3.1a19.7 19.7 0 0 1-.2-2.9zm-7.6-7c-1.2-.6-2-1.1-3-2.2 1.4-2 3-3.3 4.7-4.8a69.3 69.3 0 0 1 1.9 2.7c-1 1.6-2 2.9-3.5 4.2zm0 0" fill-rule="nonzero" fill="#fdfdfd" fill-opacity="1"/><path d="M65 109.4c3.5 1 7 2.6 10.7 4.4-1.1 3-2 6.2-6.4 6.2 1.5-3.7.7-6.1-4-7-.4-1-.4-2.1-.4-3.6zm0 0" fill-rule="nonzero" fill="#ebe9e8" fill-opacity="1"/><path d="M88 125l-1.7 1.8c-2.2-1.3-4.2-2.7-6.2-4.5.6-.8 1-1.3 2-2.2 1.3-.6 2-.9 3-.9 1 .7 2 1.2 2.9 2.1v3.6zm0 0" fill-rule="nonzero" fill="#fefefe" fill-opacity="1"/><path d="M85 119l-2.7 1c-.3-1.6-.3-3.3-.3-5.3 1.3-.7 2.7-1 4.5-.9-.2 2-.8 3.6-1.4 5.2zm0 0" fill-rule="nonzero" fill="#eef1f2" fill-opacity="1"/><path d="M68.2 121.8c0-.4.1-1 .5-1.7 0 .4 0 1-.5 1.7zm0 0" fill-rule="nonzero" fill="#ebe9e8" fill-opacity="1"/><path d="M56.8 85.1c.5 4.3.7 8.7 1 13.5-5.3-.2-6-1-4.8-6.3v-3c1.2-1.6 2.4-2.8 3.8-4.2zm0 0" fill-rule="nonzero" fill="#f3f1f1" fill-opacity="1"/><path d="M99 32.4c-3.4 1.4-6.8 2.5-10.6 3.6 1.4-1.9 3.2-3.8 5.3-5.8h2.9c1 .6 1.7 1.3 2.4 2.3zm0 0" fill-rule="nonzero" fill="#edebea" fill-opacity="1"/><path d="M82 40.8c-.6 1.4-1.3 2.4-2.5 3.4L75 43c-.1-.3-.3-.6-.8-1 .7-2 1.7-4.1 3.2-7.4 2.1 2.7 3.4 4.2 4.6 6zm0 0" fill-rule="nonzero" fill="#fdfdfd" fill-opacity="1"/><path d="M101.2 132.7a14.2 14.2 0 0 1-3.8-4.5c1.7-1.4 3.2-2.3 4.7-3.2 2.7 2.7 2 5.2-.8 7.7zM110 122c-1.2 5.2-4 4.2-7.7 2-.3 0-.3 0-.3-.3 0-.8 0-1.2.3-1.7 2.1-.7 3.9-1.3 5.8-1.7.7.8 1.3 1.2 1.9 1.7zm0 0" fill-rule="nonzero" fill="#fefefe" fill-opacity="1"/><path d="M102 124.8c-1.5 1.2-3 2-4.7 3-.6 0-.9 0-1-1 1-1.3 1.8-2 3.1-3h2.6v.8zm0 0" fill-rule="nonzero" fill="#f8f7f6" fill-opacity="1"/><path d="M113 125h-1.7c-.3-.8-.3-1.5-.3-2.6 0-.4 0-.4.3-.4 1.1-.3 1.9-.7 2.7-.6 0 1 0 1.9-.2 2.7-.5.3-.7.6-.8.9zm-2.7-3c-.8-.5-1.4-1-2-2 .2-.8.4-1 1-.9.8 1 1.2 2 1.7 2.9h-.7zm0 0" fill-rule="nonzero" fill="#eef1f2" fill-opacity="1"/><path d="M128 49l-1.9-2.2c-.8-3.3-2.8-3.2-5-3-.6-.7-1.3-1.5-2-3a34.9 34.9 0 0 1-.1-3l1.7-1.8c3.7-.5 6 1 7.1 4.6 0 .4 0 .3.2.3h2.6c1 .5 1.5 1 2.2 2-1.5 2.4-3.2 4-4.9 5.9zm0 0" fill-rule="nonzero" fill="#fcfcfc" fill-opacity="1"/><path d="M61.4 105.9c1 .5 1.7 1 2.4 2-1 .2-2 .2-3.4 0-.4-.2-.4-.7-.4-.7.3-.3.7-.7 1.4-1.1zm0 0" fill-rule="nonzero" fill="#ebe9e8" fill-opacity="1"/><path d="M59.8 107.1c.2 0 .2.4.2.6-.2.2-.3.3-.8.3-.2-.3 0-.6.5-.9zm0 0" fill-rule="nonzero" fill="#f3f3f5" fill-opacity="1"/><path d="M145 67.3c.5-.7 1-1 1.7-1.3.3.7.3 1.5.3 2.6-.4.4-1 .4-1.7.4-.3-.4-.3-.9-.4-1.7zm0 0" fill-rule="nonzero" fill="#eef1f2" fill-opacity="1"/><path d="M111 146.7c-.5.8-1 1.4-1.7 2.1.2-.8.6-1.8 1.4-2.8.3 0 .3.4.3.7zm0 0" fill-rule="nonzero" fill="#f8f6fa" fill-opacity="1"/><path d="M113.2 35.7c-.7 0-1.2 0-2-.8L111 33h2.6c0 .8-.1 1.6-.5 2.7zm5.4 2.3c.4.7.4 1.5.4 2.6-1-.4-2-1.2-3-2.3.7-.3 1.5-.3 2.6-.3zm0 0" fill-rule="nonzero" fill="#eef1f2" fill-opacity="1"/><path d="M124.6 114c1.4 1.5 2.4 2.9 3.4 4.7-.8 1.3-1.6 2.2-2.9 3l-3.4.2c-.7-1-1.2-2-1.7-3.1l1-4.3 3.6-.4zm0 0" fill-rule="nonzero" fill="#fdfdfd" fill-opacity="1"/><path d="M122 122c.9-.2 1.8-.3 2.9-.2.2 1 .2 1.7.2 2.9-1 .4-2.1.4-3.5 0 0-1.1.2-2 .5-2.7zm0 0" fill-rule="nonzero" fill="#eef1f2" fill-opacity="1"/><path d="M99 124l-2.9 2.7c-1 0-1.7-.2-2.8-.6-.3-.1-.3-.1-.4-.4-.7-.8-1.3-1.2-1.9-2 0-.8 0-1.2.3-1.8.8-1.4 1.2-2.6 2-3.8 2.1 1 3.9 2 5.6 3.4v2.5zm0 0" fill-rule="nonzero" fill="#fefefe" fill-opacity="1"/><path d="M98.7 146.1c-.4 1.5-.7 3.3-1.7 4.6-1.6 2.1-2.6 1.3-3-1.4 1.5-1.3 3-2.2 4.7-3.2zm-.6-3.9c.2-.1.5 0 .8.6-.2.1-.5 0-.8-.6zm0 0" fill-rule="nonzero" fill="#f3f3f5" fill-opacity="1"/><path d="M91 122l-.2 1.8-.8 1.2h-1.7c-.3-1-.3-2.1 0-3.6 1.1 0 2 .3 2.7.6zm0 0" fill-rule="nonzero" fill="#eef1f2" fill-opacity="1"/><path d="M90.2 125.3c-.1-.6 0-.8.6-1.1.8.4 1.4.9 2 1.6-.7 0-1.6 0-2.7-.5zm0 0" fill-rule="nonzero" fill="#f8f7f6" fill-opacity="1"/><path d="M127.9 49.3c1.8-2 3.5-3.8 5-6 1.5-.7 3-1 4.8-1.3-.2 1.4-.8 2.9-1.5 4.7-1.8 1.7-3.4 3.2-5 5-1.4 1-2.8 1.6-5.2 2.6l2-5zm0 0" fill-rule="nonzero" fill="#eef1f2" fill-opacity="1"/><path d="M113.1 125.3c0-.6.2-1 1-1 1.3 1 2.1 1.9 3 2.8 0 .3-.3.6-.8.9-1-.7-2-1.5-3-2.6zm0 0" fill-rule="nonzero" fill="#f4f3f2" fill-opacity="1"/><path d="M111 32.7v2c-2.8-.3-5.5-1-8.7-1.8.5-1.3 1.3-2.4 2.4-3.7l2.9-.1c1.4 1 2.3 2.2 3.4 3.7zm0 0" fill-rule="nonzero" fill="#edebea" fill-opacity="1"/><path d="M117.3 127c-1.2-1-2-1.8-3-2.9-.3-.9-.3-1.6-.3-2.8 0-.4 0-.4.4-.4l5.7-2 1.7 2.8c0 1-.2 1.8-.6 3a15.6 15.6 0 0 1-1.9 2c-.7.2-1 .2-2 .2zm0 0" fill-rule="nonzero" fill="#fefefe" fill-opacity="1"/><path d="M114 166c-.3-2.4-.3-4.8 0-7.6.1-.4.5-.4.5-.4 0 2.5.2 5 .1 7.8 0 .5-.5.4-.7.4zm0 0" fill-rule="nonzero" fill="#d0bbe6" fill-opacity="1"/><path d="M114.6 157.5c0 .3-.5.4-.7.4h-2.6c-.3-.8-.3-1.5-.3-2.6.7-.4 1.4-.4 2.6-.3h1v2.4zm0 0" fill-rule="nonzero" fill="#f3f3f5" fill-opacity="1"/><path d="M114.7 154.8c-.1.4-.5.3-.7.3 0-.6 0-1.1.4-2 .3.4.4.9.3 1.7zm0 0" fill-rule="nonzero" fill="#d0bbe6" fill-opacity="1"/><path d="M75.1 43.3c1.2 0 2.5.4 4.1 1 .4.3.3.4.3.4l-3.2 1.2c-.6-.8-.9-1.6-1.3-2.7zM69.3 54c.1-.9.6-1.8 1.4-2.8-.2.8-.6 1.8-1.4 2.8zm0 0" fill-rule="nonzero" fill="#f3f3f5" fill-opacity="1"/><path d="M66.5 81.7c4.7-6.3 10.7-8.3 17.8-6.7 6.5 1.5 11 5.8 12.3 12.4 1.3 6.3-.6 11.8-5.6 16-5.6 4.8-15.2 5-20.8.4-7-5.6-8.4-13.5-3.7-22m7.5 1.6c-1 1.6-2.8 3.2-3 5-.3 1.7 1 3.6 1.6 5.4 1.6-.8 3.2-1.4 4.7-2.4s3-2.3 4.2-3.7c1-1 2.4-3.3 2-3.8-.9-1.2-2.7-2.3-4.2-2.5-1.5 0-3 1-5.2 2zM105 95c-2-7.2.7-12.5 5.6-16.7 5.3-4.5 11.8-4.5 17.8-1.8 5.7 2.5 8.6 7.2 9 13.8.5 9.9-6.1 15.4-13 16.8-8.9 1.8-16-2.7-19.4-12m8.3-10c-.6 1.2-1.8 2.4-1.7 3.5.1 1.9 1 3.7 1.6 5.5l4.7-3c1.2-.9 2.5-1.8 3.5-3s1.8-2.7 2.7-4c-1.6-.9-3.2-2.6-4.7-2.4-2 .2-3.8 1.8-6.1 3.4zm0 0" fill-rule="nonzero" fill="#b59a85" fill-opacity="1"/><path d="M90.3 43.2c13-7.4 26.7-.6 26.8 12.7 0 7-4.5 13.5-11 15.6-7.5 2.4-14.7 0-19.4-6.2-4-5.5-3.9-13 .5-19 .8-1 1.8-2 3-3.1m2.4 7.3c-.5.7-1.3 1.4-1.3 2 .3 2.3 1 4.5 1.4 6.7l5-3.5c1.3-1 2.8-1.7 3.7-3 1-1.1 2.3-3.2 2-4.1-.7-1.2-3-2.3-4.3-2-2 .5-4 2-6.5 3.8zm0 0" fill-rule="nonzero" fill="#b69a86" fill-opacity="1"/><path d="M99 121l-5.7-3.3-4.4-4.8 11.8-8.5c3 2.3 6.4 5 10 8.1-.8 1.9-1.9 3.2-3.3 4.5-1.5 0-2.5 0-3.7-.3-1-1.4-2-2.6-2.7-3.9.2-.6.1-1 0-1.4l-1.3 1.9a3490.8 3490.8 0 0 1-.7 7.7zm0 0" fill-rule="nonzero" fill="#f8f7f6" fill-opacity="1"/><path d="M88.7 112.9a34 34 0 0 1 4.3 4.8c-.4 1.6-1 2.8-1.6 4.2l-3-.8a14.8 14.8 0 0 1-3.1-1.7c.5-2 1-3.5 1.7-5.4.5-.6 1-.8 1.8-1zm0 0" fill-rule="nonzero" fill="#fdfdfd" fill-opacity="1"/><path d="M108 117c1-1.3 2-2.6 3.1-4.3.8-.2 1.5 0 2.6.8.4 2.8.3 5.1.3 7.5l-2.7 1c-.8-.9-1.3-1.8-2.1-3a12.7 12.7 0 0 1-1.2-1.9zm0 0" fill-rule="nonzero" fill="#fefefe" fill-opacity="1"/><path d="M114.4 121c-.3-2.3-.3-4.6-.3-7.2 2-.1 4 0 6.6.5 0 1.4-.3 2.8-.6 4.4-1.8 1-3.5 1.6-5.7 2.3zm0 0" fill-rule="nonzero" fill="#f4f3f2" fill-opacity="1"/><path d="M121.2 44.2c2.2-.7 4-.7 4.7 2.5-.6.4-1.3.4-2.5.5-1-.9-1.6-1.8-2.2-3zM141.7 61c.3.8.3 1.5.3 2.6-.8.3-1.7.2-2.8.3 0-.8 0-1.6.5-2.7.7-.2 1.2-.2 2-.2zm0 0" fill-rule="nonzero" fill="#eef1f2" fill-opacity="1"/><path d="M107.6 117c.7.5 1 1 1.3 1.7l-.8 1c-1.9.9-3.7 1.5-5.8 2-.3-.2-.3-.7-.2-1l2-3.7h3.5zm0 0" fill-rule="nonzero" fill="#f4f3f2" fill-opacity="1"/><path d="M102 121v2.7c-.8.3-1.5.3-2.6.3-.4-.8-.4-1.5-.4-2.6 0-.4 0-.4.4-.4h2.6zm26-80h-.1.1zm0 0" fill-rule="nonzero" fill="#eef1f2" fill-opacity="1"/><path d="M74.3 83.2c1.8-.8 3.4-2 5-1.8 1.4 0 3.3 1.2 4.1 2.5.4.6-1 2.7-2 3.8-1.2 1.4-2.7 2.7-4.2 3.7-1.4 1-3 1.6-4.7 2.4C72 92 70.7 90 71 88.4c.3-1.8 2-3.3 3.3-5.2zm0 0" fill-rule="nonzero" fill="#7c5a3f" fill-opacity="1"/><path d="M113.4 84.5c2.1-1.3 4-3 5.9-3 1.5-.1 3.1 1.5 4.7 2.4-.9 1.4-1.6 2.9-2.7 4l-3.4 3-4.7 3c-.6-1.8-1.5-3.6-1.6-5.5 0-1.1 1-2.4 1.9-3.8zm0 0" fill-rule="nonzero" fill="#7c593e" fill-opacity="1"/><path d="M93 50.1c2.2-1.4 4-3 6.3-3.5 1.3-.3 3.6 1 4.2 2 .4 1-1 3-2 4.2-1 1.2-2.3 2-3.6 3l-5 3.4c-.5-2.2-1.1-4.5-1.4-6.7 0-.6.8-1.4 1.5-2.4zm0 0" fill-rule="nonzero" fill="#7b593d" fill-opacity="1"/><path d="M102.1 120.7c-.9.3-1.6.3-2.8.3 0-2.4.2-4.9.8-7.6.3-.4.8-.4.8-.4l3 3.7c-.5 1.4-1 2.6-1.8 4zm0 0" fill-rule="nonzero" fill="#fdfdfd" fill-opacity="1"/><path d="M101.2 112.8c-.2.2-.7.2-1 .2.2-.5.6-1 1-1.5v1.4zm0 0" fill-rule="nonzero" fill="#eef1f2" fill-opacity="1"/></svg>