<?xml version="1.0" encoding="UTF-8"?>
<!DOCTYPE svg PUBLIC "-//W3C//DTD SVG 1.1//EN" "http://www.w3.org/Graphics/SVG/1.1/DTD/svg11.dtd">
<svg xmlns="http://www.w3.org/2000/svg" version="1.1" width="200px" height="200px" style="shape-rendering:geometricPrecision; text-rendering:geometricPrecision; image-rendering:optimizeQuality; fill-rule:evenodd; clip-rule:evenodd" xmlns:xlink="http://www.w3.org/1999/xlink">
<g><path style="opacity:1" fill="#0f2e4d" d="M -0.5,-0.5 C 66.1667,-0.5 132.833,-0.5 199.5,-0.5C 199.5,66.1667 199.5,132.833 199.5,199.5C 132.833,199.5 66.1667,199.5 -0.5,199.5C -0.5,132.833 -0.5,66.1667 -0.5,-0.5 Z"/></g>
<g><path style="opacity:1" fill="#080822" d="M 155.5,39.5 C 154.215,41.0622 152.715,42.3955 151,43.5C 149.233,42.66 147.899,41.3266 147,39.5C 146.833,40.1667 146.667,40.8333 146.5,41.5C 157.101,51.3362 165.268,63.0029 171,76.5C 181.536,114.235 170.702,144.069 138.5,166C 132.743,169.193 126.743,171.693 120.5,173.5C 106.473,177.385 92.4728,177.385 78.5,173.5C 48.09,163.59 29.9233,142.924 24,111.5C 22.9729,101.132 23.8062,90.9657 26.5,81C 26.1667,80.8333 25.8333,80.6667 25.5,80.5C 24.1936,81.9122 23.3603,83.5789 23,85.5C 22.2613,86.5742 21.2613,87.2409 20,87.5C 17.6138,83.6005 14.7805,79.9338 11.5,76.5C 12.1001,74.0645 13.6001,72.3978 16,71.5C 16.246,66.5607 18.5794,64.894 23,66.5C 23.3104,70.6415 25.4771,72.9748 29.5,73.5C 39.5375,49.6412 57.2041,34.4745 82.5,28C 99.2379,25.1527 115.571,26.6527 131.5,32.5C 131.833,30.5 132.167,28.5 132.5,26.5C 133.477,23.7131 133.81,20.7131 133.5,17.5C 135.722,17.178 137.556,17.8446 139,19.5C 141.861,23.8878 144.194,28.5545 146,33.5C 147.292,31.7513 148.458,29.918 149.5,28C 150.5,27.3333 151.5,27.3333 152.5,28C 153.923,30.8513 155.589,33.518 157.5,36C 157.022,37.3026 156.355,38.4693 155.5,39.5 Z"/></g>
<g><path style="opacity:1" fill="#f1efe1" d="M 127.5,36.5 C 126.833,37.8333 125.833,38.8333 124.5,39.5C 120.029,37.5403 115.363,35.8737 110.5,34.5C 110.189,33.5222 109.522,32.8555 108.5,32.5C 107.15,33.9501 105.484,34.6168 103.5,34.5C 68.6677,34.4951 45.1677,50.8285 33,83.5C 31.6367,91.4295 31.1367,99.4295 31.5,107.5C 30.1429,106.41 29.1429,105.076 28.5,103.5C 28.8167,71.677 43.4833,49.177 72.5,36C 90.9219,28.6315 109.255,28.7982 127.5,36.5 Z"/></g>
<g><path style="opacity:1" fill="#131221" d="M 110.5,34.5 C 110.244,36.7925 110.577,38.9592 111.5,41C 116.061,41.9449 120.394,41.4449 124.5,39.5C 125.833,38.8333 126.833,37.8333 127.5,36.5C 128.653,37.3132 128.653,38.3132 127.5,39.5C 127.957,40.2975 128.624,40.6309 129.5,40.5C 127.11,43.0283 124.11,44.5283 120.5,45C 115.053,45.6355 109.72,45.1355 104.5,43.5C 103.761,43.631 103.094,43.4643 102.5,43C 104.329,41.8867 105.163,40.3867 105,38.5C 103.052,39.1094 101.218,39.776 99.5,40.5C 94.0073,40.9157 88.6739,42.0824 83.5,44C 81.9069,44.9487 80.5736,46.1154 79.5,47.5C 77.7202,48.9899 77.0535,50.9899 77.5,53.5C 79.0038,55.8356 81.0038,57.669 83.5,59C 96.1204,64.9729 109.12,65.9729 122.5,62C 123.942,61.6232 124.942,60.7899 125.5,59.5C 126.167,59.5 126.833,59.5 127.5,59.5C 127.527,61.1993 128.194,62.5326 129.5,63.5C 118.639,68.39 107.306,69.7233 95.5,67.5C 92.6324,66.36 89.6324,65.36 86.5,64.5C 80.7348,62.6251 76.0682,59.2918 72.5,54.5C 70.4899,53.6509 68.8233,54.3176 67.5,56.5C 61.887,59.1129 57.5537,63.1129 54.5,68.5C 52.1782,69.8021 50.8449,71.8021 50.5,74.5C 48.3176,75.8233 47.6509,77.4899 48.5,79.5C 82.1667,79.5 115.833,79.5 149.5,79.5C 150.167,79.5 150.833,79.5 151.5,79.5C 123.67,80.3323 95.6697,80.8323 67.5,81C 63.1667,81.3333 58.8333,81.6667 54.5,82C 58.5,82.3333 62.5,82.6667 66.5,83C 64.3333,83.1667 62.1667,83.3333 60,83.5C 54.3898,83.0261 49.0564,82.3594 44,81.5C 41.2203,90.9522 39.7203,100.619 39.5,110.5C 38.3475,104.681 38.1808,98.6812 39,92.5C 40.5,86.3332 42.5,80.3332 45,74.5C 48.9311,68.0695 53.4311,62.0695 58.5,56.5C 61.0417,53.7349 64.0417,51.7349 67.5,50.5C 70.3311,49.9213 72.6644,48.588 74.5,46.5C 77.4629,43.0486 81.1296,40.5486 85.5,39C 91.8129,38.2357 97.8129,36.7357 103.5,34.5C 105.484,34.6168 107.15,33.9501 108.5,32.5C 109.522,32.8555 110.189,33.5222 110.5,34.5 Z"/></g>
<g><path style="opacity:1" fill="#cbcece" d="M 99.5,40.5 C 99.9382,40.4346 100.272,40.6012 100.5,41C 93.2691,42.4778 86.2691,44.6444 79.5,47.5C 80.5736,46.1154 81.9069,44.9487 83.5,44C 88.6739,42.0824 94.0073,40.9157 99.5,40.5 Z"/></g>
<g><path style="opacity:1" fill="#254a69" d="M 138.5,32.5 C 140.506,43.8168 136.839,52.8168 127.5,59.5C 126.833,59.5 126.167,59.5 125.5,59.5C 125.53,58.5028 125.03,57.8361 124,57.5C 110.877,62.9758 98.0441,62.4758 85.5,56C 82.8981,54.8604 80.2314,54.0271 77.5,53.5C 77.0535,50.9899 77.7202,48.9899 79.5,47.5C 86.2691,44.6444 93.2691,42.4778 100.5,41C 100.272,40.6012 99.9382,40.4346 99.5,40.5C 101.218,39.776 103.052,39.1094 105,38.5C 105.163,40.3867 104.329,41.8867 102.5,43C 103.094,43.4643 103.761,43.631 104.5,43.5C 104.389,44.1174 104.056,44.6174 103.5,45C 106.637,45.6011 109.637,46.6011 112.5,48C 125.616,50.0142 134.282,44.8475 138.5,32.5 Z"/></g>
<g><path style="opacity:1" fill="#edeee4" d="M 138.5,28.5 C 138.5,29.8333 138.5,31.1667 138.5,32.5C 134.282,44.8475 125.616,50.0142 112.5,48C 109.637,46.6011 106.637,45.6011 103.5,45C 104.056,44.6174 104.389,44.1174 104.5,43.5C 109.72,45.1355 115.053,45.6355 120.5,45C 124.11,44.5283 127.11,43.0283 129.5,40.5C 133.968,36.5701 136.634,31.5701 137.5,25.5C 138.386,26.325 138.719,27.325 138.5,28.5 Z"/></g>
<g><path style="opacity:1" fill="#b7724c" d="M 74.5,46.5 C 72.6644,48.588 70.3311,49.9213 67.5,50.5C 69.3356,48.412 71.6689,47.0787 74.5,46.5 Z"/></g>
<g><path style="opacity:1" fill="#113453" d="M 171.5,27.5 C 170.448,27.3505 169.448,27.5172 168.5,28C 167.129,31.3801 164.962,34.2134 162,36.5C 162.027,38.4174 162.861,40.084 164.5,41.5C 164.006,43.0255 163.339,44.3588 162.5,45.5C 161.895,43.9743 160.729,42.9743 159,42.5C 156.342,43.694 155.176,42.694 155.5,39.5C 156.355,38.4693 157.022,37.3026 157.5,36C 155.589,33.518 153.923,30.8513 152.5,28C 151.5,27.3333 150.5,27.3333 149.5,28C 148.458,29.918 147.292,31.7513 146,33.5C 144.194,28.5545 141.861,23.8878 139,19.5C 137.556,17.8446 135.722,17.178 133.5,17.5C 133.81,20.7131 133.477,23.7131 132.5,26.5C 132.664,23.8127 132.497,21.146 132,18.5C 131.803,20.8609 130.636,22.5276 128.5,23.5C 124.534,22.9108 120.867,21.5775 117.5,19.5C 116.808,20.0253 116.308,20.6919 116,21.5C 115.333,20.1667 114.333,19.1667 113,18.5C 111.201,18.7205 109.368,19.0539 107.5,19.5C 105.45,18.9234 104.45,17.5901 104.5,15.5C 102.833,15.5 101.167,15.5 99.5,15.5C 99.5,14.5 99.5,13.5 99.5,12.5C 98.448,12.3505 97.448,12.5172 96.5,13C 97.6956,13.6543 97.6956,14.1543 96.5,14.5C 91.0918,14.8521 85.5918,14.8521 80,14.5C 75.5231,17 70.6898,18.6667 65.5,19.5C 59.5452,22.96 54.3785,27.2933 50,32.5C 49.1739,30.5946 48.0072,30.2612 46.5,31.5C 45.977,33.9329 44.8104,35.9329 43,37.5C 40.6827,38.8264 38.3494,40.1597 36,41.5C 34.2354,42.2393 32.2354,42.2393 30,41.5C 25.0959,45.7799 21.2626,50.9466 18.5,57C 19.0104,58.8261 19.8438,58.9928 21,57.5C 21.3876,59.0758 20.8876,60.4091 19.5,61.5C 18.8076,60.9747 18.3076,60.3081 18,59.5C 15.058,63.664 12.2246,67.8307 9.5,72C 10.1193,73.8348 10.286,76.0014 10,78.5C 9.58605,78.0426 9.08605,77.7093 8.5,77.5C 9.13833,80.6468 8.13833,83.1468 5.5,85C 6.67209,85.4186 7.67209,86.0853 8.5,87C 3.22196,86.6206 3.22196,87.6206 8.5,90C 7.74022,91.4411 7.07356,92.9411 6.5,94.5C 6.723,95.9667 7.05634,97.4667 7.5,99C 6.5,99.3333 5.5,99.6667 4.5,100C 5.78749,101.41 6.95416,102.91 8,104.5C 8.98649,100.625 10.1532,100.625 11.5,104.5C 6.46327,106.797 6.46327,108.797 11.5,110.5C 12.7468,112.042 12.7468,113.542 11.5,115C 13.669,116.328 14.0023,117.994 12.5,120C 14.0705,124.016 15.0705,128.183 15.5,132.5C 15.0233,133.478 14.3567,134.311 13.5,135C 14.4491,135.617 15.2825,135.451 16,134.5C 18.3361,135.292 18.8361,136.625 17.5,138.5C 18.8064,139.912 19.6397,141.579 20,143.5C 21.7566,143.133 23.2566,143.966 24.5,146C 23.552,146.483 22.552,146.649 21.5,146.5C 21.3505,147.552 21.5172,148.552 22,149.5C 24.9261,154.21 28.4261,158.376 32.5,162C 30.5946,162.826 30.2612,163.993 31.5,165.5C 32.1924,164.975 32.6924,164.308 33,163.5C 37.8179,166.927 42.6512,170.261 47.5,173.5C 50.8048,171.373 53.3048,172.373 55,176.5C 56.0113,175.663 57.1779,175.33 58.5,175.5C 57.1435,177.499 57.8101,178.665 60.5,179C 86.8327,180.985 113.166,180.985 139.5,179C 140.756,178.583 141.423,177.75 141.5,176.5C 143.01,175.272 144.51,175.272 146,176.5C 146.483,175.552 146.649,174.552 146.5,173.5C 149.045,174.427 151.378,174.427 153.5,173.5C 158.973,169.527 163.973,165.027 168.5,160C 166.233,158.919 166.066,157.419 168,155.5C 170.835,152.219 173.669,149.053 176.5,146C 175.833,145.333 175.167,144.667 174.5,144C 177.449,141.31 178.449,138.143 177.5,134.5C 177.719,133.062 178.219,131.729 179,130.5C 179.333,130.833 179.667,131.167 180,131.5C 181.447,121.853 183.281,112.353 185.5,103C 185.678,98.3306 185.012,93.664 183.5,89C 184.517,87.9505 184.684,86.7839 184,85.5C 183.76,86.6332 183.26,87.1332 182.5,87C 183.061,85.4345 182.394,84.1011 180.5,83C 182.929,82.5488 183.096,81.7155 181,80.5C 180.505,78.5273 180.338,76.5273 180.5,74.5C 179.5,74.5 178.5,74.5 177.5,74.5C 178.035,71.7615 177.035,69.9282 174.5,69C 174.827,66.3151 174.827,63.4818 174.5,60.5C 173.127,60.6567 171.793,60.49 170.5,60C 171.774,59.0228 171.774,58.1894 170.5,57.5C 171.3,55.3175 172.8,53.6508 175,52.5C 175.483,51.552 175.649,50.552 175.5,49.5C 177.032,50.6774 178.532,52.0107 180,53.5C 180.308,52.6919 180.808,52.0253 181.5,51.5C 184.265,54.2371 186.265,57.4037 187.5,61C 187.224,63.724 187.224,66.3907 187.5,69C 188.227,70.3988 188.727,71.8988 189,73.5C 189.914,72.3463 190.747,72.513 191.5,74C 190.978,74.5613 190.645,75.228 190.5,76C 191.5,77.6667 192.5,79.3333 193.5,81C 193.355,81.772 193.022,82.4387 192.5,83C 193.428,83.3879 194.095,84.0546 194.5,85C 194.8,92.0659 194.8,99.0659 194.5,106C 198.088,109.274 198.088,112.607 194.5,116C 195.022,116.561 195.355,117.228 195.5,118C 193.283,119.708 192.617,121.708 193.5,124C 191.303,127.274 190.636,130.774 191.5,134.5C 187.513,138.283 185.346,142.95 185,148.5C 183.668,149.162 182.502,150.328 181.5,152C 181.833,152.333 182.167,152.667 182.5,153C 180.602,153.9 178.936,155.066 177.5,156.5C 178.025,157.192 178.692,157.692 179.5,158C 177.519,158.605 177.185,159.605 178.5,161C 175.054,165.112 171.221,168.946 167,172.5C 166.779,175.943 165.779,176.276 164,173.5C 160.851,175.471 158.684,178.138 157.5,181.5C 155.089,181.137 153.589,182.137 153,184.5C 151.594,183.332 150.428,183.665 149.5,185.5C 148.549,184.674 147.549,184.508 146.5,185C 146.833,185.333 147.167,185.667 147.5,186C 145.939,186.318 144.772,187.151 144,188.5C 142.284,187.448 141.284,188.114 141,190.5C 140.667,190.167 140.333,189.833 140,189.5C 138.025,190.75 136.859,192.083 136.5,193.5C 135.037,193.368 133.537,193.035 132,192.5C 130.575,195.198 128.575,195.864 126,194.5C 125.667,195.167 125.333,195.833 125,196.5C 122.558,195.912 120.058,195.579 117.5,195.5C 113.936,196.047 110.436,196.714 107,197.5C 99.6511,197.421 92.3178,197.421 85,197.5C 82.2474,195.929 79.4141,195.596 76.5,196.5C 75.2519,195.96 74.0852,195.293 73,194.5C 72.6667,194.833 72.3333,195.167 72,195.5C 69.1348,191.959 65.6348,190.292 61.5,190.5C 59.5,189.167 57.5,187.833 55.5,186.5C 54.8333,186.833 54.1667,187.167 53.5,187.5C 50.7659,185.629 47.7659,184.629 44.5,184.5C 44.6567,183.127 44.49,181.793 44,180.5C 42.7964,181.471 42.2964,182.471 42.5,183.5C 41.5857,181.336 40.419,179.336 39,177.5C 38.6924,178.308 38.1924,178.975 37.5,179.5C 36.4164,178.335 35.5831,177.002 35,175.5C 34.3333,176.167 33.6667,176.833 33,177.5C 30.2116,173.988 27.545,170.321 25,166.5C 24.6667,167.167 24.3333,167.833 24,168.5C 20.6415,165.119 18.3082,161.119 17,156.5C 15.984,155.366 15.3173,155.699 15,157.5C 13.908,154.956 13.2414,152.289 13,149.5C 10.2656,148.638 10.0989,147.805 12.5,147C 9.1743,140.043 6.50763,133.209 4.5,126.5C 3.91859,121.877 3.91859,117.044 4.5,112C 3.83333,111.333 3.16667,110.667 2.5,110C 3.46228,106.939 3.12894,103.606 1.5,100C 1.99136,96.0699 1.99136,92.2365 1.5,88.5C 1.87481,86.5406 2.54148,84.7073 3.5,83C 2.18543,81.6054 2.51877,80.6054 4.5,80C 4.16667,79 3.83333,78 3.5,77C 5.36146,75.9717 6.69479,74.4717 7.5,72.5C 7.58125,70.0836 7.91458,67.5836 8.5,65C 9.50535,63.328 10.8387,61.9946 12.5,61C 11.8333,60 11.1667,59 10.5,58C 11.4491,57.3828 12.2825,57.5494 13,58.5C 13.3958,55.3036 14.5625,52.4703 16.5,50C 15.8333,49.6667 15.1667,49.3333 14.5,49C 16.348,47.482 17.848,45.6487 19,43.5C 21.1293,44.8627 21.6293,44.5294 20.5,42.5C 21.8281,39.5838 23.8281,38.4171 26.5,39C 28.9713,35.0744 32.3046,32.0744 36.5,30C 35.4464,28.6124 35.2797,27.1124 36,25.5C 37,25.5 38,25.5 39,25.5C 39.9147,24.6721 40.5814,23.6721 41,22.5C 42.813,23.6091 43.6463,22.9424 43.5,20.5C 45.143,20.5198 46.4763,19.8532 47.5,18.5C 48.1924,19.0253 48.6924,19.6919 49,20.5C 50.3062,17.5428 52.3062,15.2094 55,13.5C 57.9794,14.5144 60.646,13.8477 63,11.5C 63.6891,12.3567 64.5224,13.0233 65.5,13.5C 67.8429,11.6558 70.0096,9.65575 72,7.5C 72.4186,8.67209 73.0853,9.67209 74,10.5C 77.1221,7.97575 80.6221,7.30908 84.5,8.5C 86.3853,7.39064 88.3853,6.55731 90.5,6C 90.1667,5.66667 89.8333,5.33333 89.5,5C 90.6667,4.83333 91.8333,4.66667 93,4.5C 96.0693,5.46295 99.2359,6.46295 102.5,7.5C 107.56,6.89671 112.394,7.89671 117,10.5C 117.667,9.83333 118.333,9.16667 119,8.5C 119.85,9.42386 120.85,9.42386 122,8.5C 125.98,10.5984 130.147,12.2651 134.5,13.5C 136.739,12.9216 138.739,12.9216 140.5,13.5C 141.984,15.0737 143.651,16.407 145.5,17.5C 146.086,17.2907 146.586,16.9574 147,16.5C 147.508,18.9042 148.675,19.5709 150.5,18.5C 151.251,19.376 151.751,20.376 152,21.5C 153.011,20.6634 154.178,20.33 155.5,20.5C 155.5,21.5 155.5,22.5 155.5,23.5C 157.451,23.2267 158.951,23.8934 160,25.5C 160.414,25.0426 160.914,24.7093 161.5,24.5C 161.833,25.1667 162.167,25.8333 162.5,26.5C 165.764,25.1584 168.764,25.4917 171.5,27.5 Z"/></g>
<g><path style="opacity:1" fill="#de963c" d="M 152.5,36.5 C 151.525,40.2654 150.192,40.2654 148.5,36.5C 150.073,34.1638 151.406,34.1638 152.5,36.5 Z"/></g>
<g><path style="opacity:1" fill="#f4bf38" d="M 110.5,34.5 C 115.363,35.8737 120.029,37.5403 124.5,39.5C 120.394,41.4449 116.061,41.9449 111.5,41C 110.577,38.9592 110.244,36.7925 110.5,34.5 Z"/></g>
<g><path style="opacity:1" fill="#dfd4a8" d="M 152.5,36.5 C 151.406,34.1638 150.073,34.1638 148.5,36.5C 148.062,36.5654 147.728,36.3988 147.5,36C 149.049,34.786 150.215,33.286 151,31.5C 151.785,33.286 152.951,34.786 154.5,36C 153.906,36.4643 153.239,36.631 152.5,36.5 Z"/></g>
<g><path style="opacity:1" fill="#132f55" d="M 138.5,28.5 C 144.481,39.0357 143.481,49.0357 135.5,58.5C 133.5,60.1667 131.5,61.8333 129.5,63.5C 128.194,62.5326 127.527,61.1993 127.5,59.5C 136.839,52.8168 140.506,43.8168 138.5,32.5C 138.5,31.1667 138.5,29.8333 138.5,28.5 Z"/></g>
<g><path style="opacity:1" fill="#b0624e" d="M 147.5,50.5 C 147.5,51.5 147.5,52.5 147.5,53.5C 145.844,55.4602 144.177,57.4602 142.5,59.5C 141.711,59.2172 141.044,58.7172 140.5,58C 142.821,55.1917 144.488,52.025 145.5,48.5C 146.522,48.8555 147.189,49.5222 147.5,50.5 Z"/></g>
<g><path style="opacity:1" fill="#0c0c23" d="M 171.5,27.5 C 173.112,31.1018 175.112,34.4351 177.5,37.5C 175.575,39.9765 173.909,42.6432 172.5,45.5C 172.754,47.4172 173.754,48.7505 175.5,49.5C 175.649,50.552 175.483,51.552 175,52.5C 172.8,53.6508 171.3,55.3175 170.5,57.5C 169.777,59.2133 168.443,60.2133 166.5,60.5C 164.38,57.5944 161.88,54.9277 159,52.5C 158.333,51.5 158.333,50.5 159,49.5C 160.627,48.4677 161.793,47.1344 162.5,45.5C 163.339,44.3588 164.006,43.0255 164.5,41.5C 162.861,40.084 162.027,38.4174 162,36.5C 164.962,34.2134 167.129,31.3801 168.5,28C 169.448,27.5172 170.448,27.3505 171.5,27.5 Z"/></g>
<g><path style="opacity:1" fill="#d27942" d="M 163.5,51.5 C 165.833,52.8333 168.167,52.8333 170.5,51.5C 169.164,53.0103 167.997,54.6769 167,56.5C 166.003,54.6769 164.836,53.0103 163.5,51.5 Z"/></g>
<g><path style="opacity:1" fill="#f7d57b" d="M 170.5,51.5 C 168.167,52.8333 165.833,52.8333 163.5,51.5C 163.062,51.5654 162.728,51.3988 162.5,51C 164.81,49.3626 166.31,47.196 167,44.5C 167.883,47.1024 169.383,49.2691 171.5,51C 171.272,51.3988 170.938,51.5654 170.5,51.5 Z"/></g>
<g><path style="opacity:1" fill="#d2843e" d="M 166.5,37.5 C 168.833,38.8333 171.167,38.8333 173.5,37.5C 172.164,39.0103 170.997,40.6769 170,42.5C 169.003,40.6769 167.836,39.0103 166.5,37.5 Z"/></g>
<g><path style="opacity:1" fill="#f8d985" d="M 173.5,37.5 C 171.167,38.8333 168.833,38.8333 166.5,37.5C 166.062,37.5654 165.728,37.3988 165.5,37C 167.726,35.7727 169.226,33.9393 170,31.5C 170.564,33.8867 171.73,35.8867 173.5,37.5 Z"/></g>
<g><path style="opacity:1" fill="#143957" d="M 132.5,26.5 C 132.167,28.5 131.833,30.5 131.5,32.5C 115.571,26.6527 99.2379,25.1527 82.5,28C 57.2041,34.4745 39.5375,49.6412 29.5,73.5C 25.4771,72.9748 23.3104,70.6415 23,66.5C 18.5794,64.894 16.246,66.5607 16,71.5C 13.6001,72.3978 12.1001,74.0645 11.5,76.5C 14.7805,79.9338 17.6138,83.6005 20,87.5C 21.2613,87.2409 22.2613,86.5742 23,85.5C 23.3603,83.5789 24.1936,81.9122 25.5,80.5C 25.8333,80.6667 26.1667,80.8333 26.5,81C 23.8062,90.9657 22.9729,101.132 24,111.5C 29.9233,142.924 48.09,163.59 78.5,173.5C 71.9809,174.281 65.3142,174.948 58.5,175.5C 57.1779,175.33 56.0113,175.663 55,176.5C 53.3048,172.373 50.8048,171.373 47.5,173.5C 42.6512,170.261 37.8179,166.927 33,163.5C 32.6924,164.308 32.1924,164.975 31.5,165.5C 30.2612,163.993 30.5946,162.826 32.5,162C 28.4261,158.376 24.9261,154.21 22,149.5C 21.5172,148.552 21.3505,147.552 21.5,146.5C 22.552,146.649 23.552,146.483 24.5,146C 23.2566,143.966 21.7566,143.133 20,143.5C 19.6397,141.579 18.8064,139.912 17.5,138.5C 18.8361,136.625 18.3361,135.292 16,134.5C 15.2825,135.451 14.4491,135.617 13.5,135C 14.3567,134.311 15.0233,133.478 15.5,132.5C 15.0705,128.183 14.0705,124.016 12.5,120C 14.0023,117.994 13.669,116.328 11.5,115C 12.7468,113.542 12.7468,112.042 11.5,110.5C 6.46327,108.797 6.46327,106.797 11.5,104.5C 10.1532,100.625 8.98649,100.625 8,104.5C 6.95416,102.91 5.78749,101.41 4.5,100C 5.5,99.6667 6.5,99.3333 7.5,99C 7.05634,97.4667 6.723,95.9667 6.5,94.5C 7.07356,92.9411 7.74022,91.4411 8.5,90C 3.22196,87.6206 3.22196,86.6206 8.5,87C 7.67209,86.0853 6.67209,85.4186 5.5,85C 8.13833,83.1468 9.13833,80.6468 8.5,77.5C 9.08605,77.7093 9.58605,78.0426 10,78.5C 10.286,76.0014 10.1193,73.8348 9.5,72C 12.2246,67.8307 15.058,63.664 18,59.5C 18.3076,60.3081 18.8076,60.9747 19.5,61.5C 20.8876,60.4091 21.3876,59.0758 21,57.5C 19.8438,58.9928 19.0104,58.8261 18.5,57C 21.2626,50.9466 25.0959,45.7799 30,41.5C 32.2354,42.2393 34.2354,42.2393 36,41.5C 38.3494,40.1597 40.6827,38.8264 43,37.5C 44.8104,35.9329 45.977,33.9329 46.5,31.5C 48.0072,30.2612 49.1739,30.5946 50,32.5C 54.3785,27.2933 59.5452,22.96 65.5,19.5C 70.6898,18.6667 75.5231,17 80,14.5C 85.5918,14.8521 91.0918,14.8521 96.5,14.5C 97.6956,14.1543 97.6956,13.6543 96.5,13C 97.448,12.5172 98.448,12.3505 99.5,12.5C 99.5,13.5 99.5,14.5 99.5,15.5C 101.167,15.5 102.833,15.5 104.5,15.5C 104.45,17.5901 105.45,18.9234 107.5,19.5C 109.368,19.0539 111.201,18.7205 113,18.5C 114.333,19.1667 115.333,20.1667 116,21.5C 116.308,20.6919 116.808,20.0253 117.5,19.5C 120.867,21.5775 124.534,22.9108 128.5,23.5C 130.636,22.5276 131.803,20.8609 132,18.5C 132.497,21.146 132.664,23.8127 132.5,26.5 Z"/></g>
<g><path style="opacity:1" fill="#0e0e23" d="M 29.5,46.5 C 30.9778,46.238 32.3112,46.5713 33.5,47.5C 34.8713,49.8567 36.2046,52.19 37.5,54.5C 36.0483,58.4776 33.3817,60.6442 29.5,61C 28.0248,58.6908 26.3581,56.5241 24.5,54.5C 26.5891,52.0817 28.2558,49.415 29.5,46.5 Z"/></g>
<g><path style="opacity:1" fill="#eabf75" d="M 30.5,50.5 C 35.0239,52.3271 35.3572,54.6604 31.5,57.5C 30.6184,56.2402 29.6184,55.0736 28.5,54C 29.8228,53.1841 30.4894,52.0174 30.5,50.5 Z"/></g>
<g><path style="opacity:1" fill="#153b59" d="M 155.5,39.5 C 155.176,42.694 156.342,43.694 159,42.5C 160.729,42.9743 161.895,43.9743 162.5,45.5C 161.793,47.1344 160.627,48.4677 159,49.5C 158.333,50.5 158.333,51.5 159,52.5C 161.88,54.9277 164.38,57.5944 166.5,60.5C 168.443,60.2133 169.777,59.2133 170.5,57.5C 171.774,58.1894 171.774,59.0228 170.5,60C 171.793,60.49 173.127,60.6567 174.5,60.5C 174.827,63.4818 174.827,66.3151 174.5,69C 177.035,69.9282 178.035,71.7615 177.5,74.5C 178.5,74.5 179.5,74.5 180.5,74.5C 180.338,76.5273 180.505,78.5273 181,80.5C 183.096,81.7155 182.929,82.5488 180.5,83C 182.394,84.1011 183.061,85.4345 182.5,87C 183.26,87.1332 183.76,86.6332 184,85.5C 184.684,86.7839 184.517,87.9505 183.5,89C 185.012,93.664 185.678,98.3306 185.5,103C 183.281,112.353 181.447,121.853 180,131.5C 179.667,131.167 179.333,130.833 179,130.5C 178.219,131.729 177.719,133.062 177.5,134.5C 178.449,138.143 177.449,141.31 174.5,144C 175.167,144.667 175.833,145.333 176.5,146C 173.669,149.053 170.835,152.219 168,155.5C 166.066,157.419 166.233,158.919 168.5,160C 163.973,165.027 158.973,169.527 153.5,173.5C 151.378,174.427 149.045,174.427 146.5,173.5C 146.649,174.552 146.483,175.552 146,176.5C 144.51,175.272 143.01,175.272 141.5,176.5C 134.359,175.854 127.359,174.854 120.5,173.5C 126.743,171.693 132.743,169.193 138.5,166C 170.702,144.069 181.536,114.235 171,76.5C 165.268,63.0029 157.101,51.3362 146.5,41.5C 146.667,40.8333 146.833,40.1667 147,39.5C 147.899,41.3266 149.233,42.66 151,43.5C 152.715,42.3955 154.215,41.0622 155.5,39.5 Z"/></g>
<g><path style="opacity:1" fill="#f3f0df" d="M 147.5,50.5 C 156.811,57.7814 163.144,67.1147 166.5,78.5C 166.567,79.9587 166.234,81.2921 165.5,82.5C 161.799,71.4363 155.799,61.7697 147.5,53.5C 147.5,52.5 147.5,51.5 147.5,50.5 Z"/></g>
<g><path style="opacity:1" fill="#f0cd76" d="M 24.5,76.5 C 22.2362,77.2186 19.9029,77.552 17.5,77.5C 16.6236,77.6309 15.9569,77.2975 15.5,76.5C 17.8934,74.7234 19.5601,72.3901 20.5,69.5C 21.1049,72.2967 22.4383,74.63 24.5,76.5 Z"/></g>
<g><path style="opacity:1" fill="#c37542" d="M 24.5,76.5 C 22.4383,78.37 21.1049,80.7033 20.5,83.5C 19.7937,81.296 18.7937,79.296 17.5,77.5C 19.9029,77.552 22.2362,77.2186 24.5,76.5 Z"/></g>
<g><path style="opacity:1" fill="#af634e" d="M 28.5,103.5 C 29.1429,105.076 30.1429,106.41 31.5,107.5C 31.5111,109.547 31.8444,111.547 32.5,113.5C 32.1667,114.167 31.8333,114.833 31.5,115.5C 30.5712,114.45 29.9046,114.45 29.5,115.5C 28.5166,111.702 28.1832,107.702 28.5,103.5 Z"/></g>
<g><path style="opacity:1" fill="#90564b" d="M 166.5,78.5 C 177.007,116.658 165.007,145.491 130.5,165C 93.6056,179.031 63.1056,170.531 39,139.5C 35.0592,132.951 32.2259,125.951 30.5,118.5C 31.8221,118.33 32.9887,118.663 34,119.5C 49.2049,155.024 76.0382,170.191 114.5,165C 142.693,157.145 160.193,139.312 167,111.5C 167.811,101.744 167.311,92.0772 165.5,82.5C 166.234,81.2921 166.567,79.9587 166.5,78.5 Z"/></g>
<g><path style="opacity:1" fill="#f8c23d" d="M 103.5,34.5 C 97.8129,36.7357 91.8129,38.2357 85.5,39C 81.1296,40.5486 77.4629,43.0486 74.5,46.5C 71.6689,47.0787 69.3356,48.412 67.5,50.5C 64.0417,51.7349 61.0417,53.7349 58.5,56.5C 53.4311,62.0695 48.9311,68.0695 45,74.5C 42.5,80.3332 40.5,86.3332 39,92.5C 38.1808,98.6812 38.3475,104.681 39.5,110.5C 39.5,111.167 39.8333,111.5 40.5,111.5C 46.4622,138.129 62.7955,154.462 89.5,160.5C 95.987,161.654 102.654,161.821 109.5,161C 110.737,160.768 111.737,160.268 112.5,159.5C 123.951,156.776 133.951,151.442 142.5,143.5C 144.587,142.415 145.92,140.749 146.5,138.5C 159.433,121.457 162.766,102.791 156.5,82.5C 153.615,73.7275 148.949,66.0608 142.5,59.5C 144.177,57.4602 145.844,55.4602 147.5,53.5C 155.799,61.7697 161.799,71.4363 165.5,82.5C 167.311,92.0772 167.811,101.744 167,111.5C 160.193,139.312 142.693,157.145 114.5,165C 76.0382,170.191 49.2049,155.024 34,119.5C 32.9887,118.663 31.8221,118.33 30.5,118.5C 29.596,117.791 29.2627,116.791 29.5,115.5C 29.9046,114.45 30.5712,114.45 31.5,115.5C 31.8333,114.833 32.1667,114.167 32.5,113.5C 31.8444,111.547 31.5111,109.547 31.5,107.5C 31.1367,99.4295 31.6367,91.4295 33,83.5C 45.1677,50.8285 68.6677,34.4951 103.5,34.5 Z"/></g>
<g><path style="opacity:1" fill="#ba6c50" d="M 67.5,146.5 C 68.8175,146.179 70.1508,145.846 71.5,145.5C 101.732,159.03 125.899,152.03 144,124.5C 148.515,116.527 150.348,108.194 149.5,99.5C 149.5,98.1667 149.5,96.8333 149.5,95.5C 151.5,95.5 153.5,95.5 155.5,95.5C 156.276,123.792 143.609,143.292 117.5,154C 99.4539,159.425 82.7872,156.925 67.5,146.5 Z"/></g>
<g><path style="opacity:1" fill="#d8c888" d="M 146.5,138.5 C 145.92,140.749 144.587,142.415 142.5,143.5C 143.08,141.251 144.413,139.585 146.5,138.5 Z"/></g>
<g><path style="opacity:1" fill="#111022" d="M 156.5,82.5 C 162.766,102.791 159.433,121.457 146.5,138.5C 144.413,139.585 143.08,141.251 142.5,143.5C 133.951,151.442 123.951,156.776 112.5,159.5C 104.868,160.358 97.2011,160.691 89.5,160.5C 62.7955,154.462 46.4622,138.129 40.5,111.5C 41.3413,110.991 41.8413,111.657 42,113.5C 42.3826,112.944 42.8826,112.611 43.5,112.5C 47.5567,126.612 55.5567,137.945 67.5,146.5C 82.7872,156.925 99.4539,159.425 117.5,154C 143.609,143.292 156.276,123.792 155.5,95.5C 153.5,95.5 151.5,95.5 149.5,95.5C 149.5,96.8333 149.5,98.1667 149.5,99.5C 149.672,100.492 149.338,101.158 148.5,101.5C 147.265,93.4762 150.098,91.4762 157,95.5C 157.415,91.152 157.249,86.8187 156.5,82.5 Z"/></g>
<g><path style="opacity:1" fill="#f8c13d" d="M 103.5,98.5 C 104.492,101.823 105.492,105.156 106.5,108.5C 110.38,116.275 116.713,119.609 125.5,118.5C 135.045,120.062 142.045,116.729 146.5,108.5C 147.167,106.167 147.833,103.833 148.5,101.5C 149.338,101.158 149.672,100.492 149.5,99.5C 150.348,108.194 148.515,116.527 144,124.5C 125.899,152.03 101.732,159.03 71.5,145.5C 70.1508,145.846 68.8175,146.179 67.5,146.5C 55.5567,137.945 47.5567,126.612 43.5,112.5C 43.5,111.167 43.5,109.833 43.5,108.5C 43.5,105.167 43.5,101.833 43.5,98.5C 45.5,98.5 47.5,98.5 49.5,98.5C 50.1667,101.5 50.8333,104.5 51.5,107.5C 55.4363,115.807 62.1029,119.474 71.5,118.5C 77.2301,119.055 82.5635,117.888 87.5,115C 89.4641,113.549 90.7974,111.716 91.5,109.5C 93.121,105.927 94.4543,102.261 95.5,98.5C 98.1293,97.2857 100.796,97.2857 103.5,98.5 Z"/></g>
<g><path style="opacity:1" fill="#d6bd70" d="M 121.5,122.5 C 122.641,125.64 122.808,128.973 122,132.5C 121.617,133.056 121.117,133.389 120.5,133.5C 121.114,129.865 121.448,126.198 121.5,122.5 Z"/></g>
<g><path style="opacity:1" fill="#bd7354" d="M 133.5,125.5 C 135.337,125.639 135.67,126.306 134.5,127.5C 133.702,127.043 133.369,126.376 133.5,125.5 Z"/></g>
<g><path style="opacity:1" fill="#e5a155" d="M 59.5,124.5 C 60.1667,125.833 60.8333,125.833 61.5,124.5C 65.5,125.167 65.5,125.833 61.5,126.5C 60.8333,130.5 60.1667,130.5 59.5,126.5C 55.5,125.833 55.5,125.167 59.5,124.5 Z"/></g>
<g><path style="opacity:1" fill="#faebc7" d="M 61.5,124.5 C 60.8333,125.833 60.1667,125.833 59.5,124.5C 60.1667,120.5 60.8333,120.5 61.5,124.5 Z"/></g>
<g><path style="opacity:1" fill="#060521" d="M 121.5,122.5 C 121.448,126.198 121.114,129.865 120.5,133.5C 113.278,146.601 102.611,150.434 88.5,145C 79.8078,139.452 76.1412,131.619 77.5,121.5C 91.8217,120.334 106.155,120.167 120.5,121C 121.056,121.383 121.389,121.883 121.5,122.5 Z"/></g>
<g><path style="opacity:1" fill="#f8605e" d="M 111.5,138.5 C 106.394,143.06 100.394,144.56 93.5,143C 90.4048,142.065 88.0714,140.231 86.5,137.5C 90.4474,135.942 94.6141,135.276 99,135.5C 102.167,135.667 105.333,135.833 108.5,136C 109.942,136.377 110.942,137.21 111.5,138.5 Z"/></g>
<g><path style="opacity:1" fill="#8d2d62" d="M 111.5,138.5 C 110.942,137.21 109.942,136.377 108.5,136C 105.333,135.833 102.167,135.667 99,135.5C 94.6141,135.276 90.4474,135.942 86.5,137.5C 86.9315,135.193 88.5982,133.36 91.5,132C 95.5458,132.193 99.5458,132.027 103.5,131.5C 107.818,131.55 111.152,133.383 113.5,137C 112.956,137.717 112.289,138.217 111.5,138.5 Z"/></g>
<g><path style="opacity:1" fill="#b86c4b" d="M 106.5,108.5 C 111.706,114.76 118.372,117.093 126.5,115.5C 130.167,115.333 133.833,115.167 137.5,115C 140.883,113.314 143.883,111.147 146.5,108.5C 142.045,116.729 135.045,120.062 125.5,118.5C 116.713,119.609 110.38,116.275 106.5,108.5 Z"/></g>
<g><path style="opacity:1" fill="#b5694d" d="M 51.5,107.5 C 54.3904,110.553 57.7238,113.053 61.5,115C 68.5,115.667 75.5,115.667 82.5,115C 85.829,113.671 88.829,111.837 91.5,109.5C 90.7974,111.716 89.4641,113.549 87.5,115C 82.5635,117.888 77.2301,119.055 71.5,118.5C 62.1029,119.474 55.4363,115.807 51.5,107.5 Z"/></g>
<g><path style="opacity:1" fill="#244562" d="M 89.5,96.5 C 90.6241,106.548 85.9574,111.382 75.5,111C 80.3699,106.298 85.0366,101.465 89.5,96.5 Z"/></g>
<g><path style="opacity:1" fill="#214362" d="M 144.5,95.5 C 145.37,105.47 140.703,110.637 130.5,111C 135.744,106.261 140.41,101.095 144.5,95.5 Z"/></g>
<g><path style="opacity:1" fill="#a36443" d="M 49.5,98.5 C 47.5,98.5 45.5,98.5 43.5,98.5C 43.5,101.833 43.5,105.167 43.5,108.5C 42.5151,104.366 42.1818,100.032 42.5,95.5C 44.8333,95.5 47.1667,95.5 49.5,95.5C 49.5,96.5 49.5,97.5 49.5,98.5 Z"/></g>
<g><path style="opacity:1" fill="#bb6a4c" d="M 103.5,98.5 C 100.796,97.2857 98.1293,97.2857 95.5,98.5C 95.5,97.5 95.5,96.5 95.5,95.5C 98.1667,95.5 100.833,95.5 103.5,95.5C 103.5,96.5 103.5,97.5 103.5,98.5 Z"/></g>
<g><path style="opacity:1" fill="#f8f9ea" d="M 126.5,87.5 C 131.032,87.1818 135.366,87.5151 139.5,88.5C 132.672,95.4959 126.005,102.663 119.5,110C 114.294,110.783 111.46,108.616 111,103.5C 116.397,98.2714 121.564,92.938 126.5,87.5 Z"/></g>
<g><path style="opacity:1" fill="#e0e6e2" d="M 114.5,84.5 C 116.527,84.3379 118.527,84.5045 120.5,85C 116.298,88.8666 112.465,93.0332 109,97.5C 108.333,95.5 108.333,93.5 109,91.5C 111.43,89.5779 113.263,87.2446 114.5,84.5 Z"/></g>
<g><path style="opacity:1" fill="#f8f9ea" d="M 72.5,87.5 C 76.7016,87.1832 80.7016,87.5166 84.5,88.5C 81.1691,91.9995 78.0024,95.6662 75,99.5C 71.2511,103.756 67.0844,107.422 62.5,110.5C 59.2606,109.596 56.9272,107.596 55.5,104.5C 60.8543,98.479 66.521,92.8123 72.5,87.5 Z"/></g>
<g><path style="opacity:1" fill="#d1d7d6" d="M 60.5,84.5 C 62.1992,84.3398 63.8659,84.5065 65.5,85C 62.0194,89.315 58.3527,93.4816 54.5,97.5C 53.359,95.5787 53.1923,93.5787 54,91.5C 56.3722,89.2968 58.5389,86.9635 60.5,84.5 Z"/></g>
<g><path style="opacity:1" fill="#aac4d6" d="M 129.5,84.5 C 134.032,84.1818 138.366,84.5151 142.5,85.5C 141.833,86.8333 140.833,87.8333 139.5,88.5C 135.366,87.5151 131.032,87.1818 126.5,87.5C 127.167,86.1667 128.167,85.1667 129.5,84.5 Z"/></g>
<g><path style="opacity:1" fill="#adc6d7" d="M 84.5,88.5 C 80.7016,87.5166 76.7016,87.1832 72.5,87.5C 72.9528,86.5416 73.6195,85.7083 74.5,85C 79.1667,84.3333 83.8333,84.3333 88.5,85C 87.2949,86.3756 85.9616,87.5423 84.5,88.5 Z"/></g>
<g><path style="opacity:1" fill="#4f5368" d="M 129.5,84.5 C 134.015,83.1876 138.682,83.1876 143.5,84.5C 143.376,85.1067 143.043,85.44 142.5,85.5C 138.366,84.5151 134.032,84.1818 129.5,84.5 Z"/></g>
<g><path style="opacity:1" fill="#dfe0d7" d="M 50.5,74.5 C 50.1075,76.2838 49.4408,77.9505 48.5,79.5C 47.6509,77.4899 48.3176,75.8233 50.5,74.5 Z"/></g>
<g><path style="opacity:1" fill="#ece9d6" d="M 54.5,68.5 C 53.6597,70.8525 52.3264,72.8525 50.5,74.5C 50.8449,71.8021 52.1782,69.8021 54.5,68.5 Z"/></g>
<g><path style="opacity:1" fill="#fdc439" d="M 72.5,54.5 C 76.0682,59.2918 80.7348,62.6251 86.5,64.5C 88.6402,67.3409 91.6402,68.6743 95.5,68.5C 109.809,71.9794 123.476,69.9794 136.5,62.5C 141.976,67.3076 146.31,72.9742 149.5,79.5C 115.833,79.5 82.1667,79.5 48.5,79.5C 49.4408,77.9505 50.1075,76.2838 50.5,74.5C 52.3264,72.8525 53.6597,70.8525 54.5,68.5C 58.8593,64.4718 63.1927,60.4718 67.5,56.5C 69.2838,56.1075 70.9505,55.4408 72.5,54.5 Z"/></g>
<g><path style="opacity:1" fill="#cf8e38" d="M 86.5,64.5 C 89.6324,65.36 92.6324,66.36 95.5,67.5C 95.5,67.8333 95.5,68.1667 95.5,68.5C 91.6402,68.6743 88.6402,67.3409 86.5,64.5 Z"/></g>
<g><path style="opacity:1" fill="#eaeadc" d="M 67.5,56.5 C 63.1927,60.4718 58.8593,64.4718 54.5,68.5C 57.5537,63.1129 61.887,59.1129 67.5,56.5 Z"/></g>
<g><path style="opacity:1" fill="#faf6d8" d="M 66.5,62.5 C 68.337,62.6395 68.6704,63.3061 67.5,64.5C 66.7025,64.0431 66.3691,63.3764 66.5,62.5 Z"/></g>
<g><path style="opacity:1" fill="#b96c4a" d="M 135.5,58.5 C 142.274,64.2902 147.607,71.2902 151.5,79.5C 150.833,79.5 150.167,79.5 149.5,79.5C 146.31,72.9742 141.976,67.3076 136.5,62.5C 123.476,69.9794 109.809,71.9794 95.5,68.5C 95.5,68.1667 95.5,67.8333 95.5,67.5C 107.306,69.7233 118.639,68.39 129.5,63.5C 131.5,61.8333 133.5,60.1667 135.5,58.5 Z"/></g>
<g><path style="opacity:1" fill="#132e51" d="M 77.5,53.5 C 80.2314,54.0271 82.8981,54.8604 85.5,56C 98.0441,62.4758 110.877,62.9758 124,57.5C 125.03,57.8361 125.53,58.5028 125.5,59.5C 124.942,60.7899 123.942,61.6232 122.5,62C 109.12,65.9729 96.1204,64.9729 83.5,59C 81.0038,57.669 79.0038,55.8356 77.5,53.5 Z"/></g>
<g><path style="opacity:1" fill="#e7e6d3" d="M 72.5,54.5 C 70.9505,55.4408 69.2838,56.1075 67.5,56.5C 68.8233,54.3176 70.4899,53.6509 72.5,54.5 Z"/></g>
<g><path style="opacity:1" fill="#ada385" d="M 112.5,159.5 C 111.737,160.268 110.737,160.768 109.5,161C 102.654,161.821 95.987,161.654 89.5,160.5C 97.2011,160.691 104.868,160.358 112.5,159.5 Z"/></g>
<g><path style="opacity:1" fill="#0e2c4e" d="M 78.5,173.5 C 92.4728,177.385 106.473,177.385 120.5,173.5C 127.359,174.854 134.359,175.854 141.5,176.5C 141.423,177.75 140.756,178.583 139.5,179C 113.166,180.985 86.8327,180.985 60.5,179C 57.8101,178.665 57.1435,177.499 58.5,175.5C 65.3142,174.948 71.9809,174.281 78.5,173.5 Z"/></g>
</svg>
