<?xml version="1.0" standalone="no"?>
<!DOCTYPE svg PUBLIC "-//W3C//DTD SVG 20010904//EN"
 "http://www.w3.org/TR/2001/REC-SVG-20010904/DTD/svg10.dtd">
<svg version="1.0" xmlns="http://www.w3.org/2000/svg"
 width="400.000000pt" height="400.000000pt" viewBox="0 0 400.000000 400.000000"
 preserveAspectRatio="xMidYMid meet">

<g transform="translate(0.000000,400.000000) scale(0.100000,-0.100000)"
fill="#000000" stroke="none">
<path d="M0 2000 l0 -2000 2000 0 2000 0 0 2000 0 2000 -2000 0 -2000 0 0
-2000z m1845 883 c66 -22 121 -81 172 -184 24 -46 169 -325 323 -619 154 -294
280 -546 280 -559 0 -50 -62 -80 -102 -48 -8 6 -152 273 -318 592 -166 319
-314 602 -328 628 -39 72 -105 97 -170 63 -30 -16 -17 8 -447 -791 -136 -253
-257 -470 -268 -482 -38 -42 -107 -19 -107 36 0 14 72 158 159 321 88 162 238
441 334 620 115 216 188 339 214 366 66 69 162 90 258 57z m1180 -8 l25 -24 0
-676 c0 -662 0 -675 -20 -695 -24 -24 -63 -26 -84 -4 -14 14 -16 91 -17 687
-1 370 -1 679 0 687 3 19 38 50 58 50 7 0 25 -11 38 -25z m-861 -1492 c-97
-109 -174 -200 -174 -205 0 -3 31 -41 70 -84 47 -53 66 -82 59 -89 -7 -7 -19
0 -36 20 -14 17 -46 52 -70 79 l-44 50 -131 -130 -131 -129 120 140 120 140
-21 26 c-11 15 -43 52 -70 83 -32 37 -46 60 -40 66 7 7 35 -18 80 -70 38 -44
71 -79 74 -79 3 1 61 61 130 133 69 73 127 131 129 129 2 -1 -27 -37 -65 -80z
m-1036 -38 c91 -39 121 -99 122 -243 0 -91 -2 -103 -17 -100 -14 3 -16 16 -14
85 3 105 -12 159 -55 199 -48 46 -101 53 -161 22 -69 -34 -83 -68 -83 -201 0
-96 -2 -108 -17 -105 -14 3 -16 18 -15 116 2 119 10 148 54 189 53 50 122 64
186 38z m570 -2 c3 -10 -19 -13 -90 -13 -117 0 -155 -11 -198 -55 -62 -64 -50
-172 27 -222 20 -14 54 -19 142 -23 83 -4 116 -9 119 -18 3 -11 -20 -13 -120
-10 -119 3 -126 4 -162 32 -53 40 -76 82 -76 138 0 83 32 135 105 169 32 15
60 18 144 16 73 -1 106 -6 109 -14z m572 -104 c4 -99 8 -118 28 -147 65 -90
197 -81 249 18 20 37 23 58 23 147 0 79 3 104 13 101 8 -3 13 -36 15 -107 3
-121 -14 -172 -73 -217 -30 -22 -50 -29 -99 -32 -53 -3 -66 0 -103 24 -69 46
-83 82 -83 219 0 89 3 116 13 113 8 -3 14 -40 17 -119z m778 104 c3 -10 -29
-13 -136 -13 -126 0 -142 -2 -166 -21 -35 -28 -35 -70 0 -98 23 -18 41 -21
135 -21 100 0 110 -2 136 -24 23 -20 28 -32 28 -71 0 -39 -5 -51 -28 -71 -27
-23 -34 -24 -178 -24 -126 0 -149 2 -149 15 0 13 23 15 144 15 144 0 145 0
165 26 12 15 21 32 21 39 0 7 -9 24 -21 39 -20 25 -24 26 -125 26 -143 0 -184
22 -184 100 0 41 14 66 48 85 35 19 303 17 310 -2z m-1465 -157 c8 -20 -20
-43 -35 -28 -14 14 -3 42 16 42 7 0 16 -6 19 -14z"/>
</g>
</svg>
