<?xml version="1.0" encoding="utf-8"?>
<!-- Generator: Adobe Illustrator 28.0.0, SVG Export Plug-In . SVG Version: 6.00 Build 0)  -->
<svg version="1.1" id="Layer_1" xmlns="http://www.w3.org/2000/svg" xmlns:xlink="http://www.w3.org/1999/xlink" x="0px" y="0px"
	 viewBox="0 0 2239.4 2239.4" style="enable-background:new 0 0 2239.4 2239.4;" xml:space="preserve">
<style type="text/css">
	.st0{fill:#EC1D24;}
</style>
<path id="XMLID_3_" class="st0" d="M2193.9,2094.5l-107.5-203l-307.5-576.6v-0.8l-0.8-0.8c27.1-142.1,29.3-270.6,27.8-344.3
	c-29.3,168.4-97.7,363.1-236.1,571.3l72.9,136.8l0,0l114.3,215l-481.9-0.8c-84.2,82.7-181.2,165.4-291.7,248.8h905.9h275.9
	C2189.4,2139.6,2204.4,2115.5,2193.9,2094.5z"/>
<path id="XMLID_2_" class="st0" d="M1721.1,566.1c-63.1,648.8-710.4,974.3-1140.4,1120.9l533.8-1005.9l234.6,454.1
	c78.2-72.2,148.1-153.4,205.2-244.3l-79.7-150.4l-331.5-624c-12-22.6-45.9-22.6-57.9,0L197.2,1789.2L45.4,2073.4
	c-13.5,25.6,9.8,55.6,37.6,48.9C1864.6,1678.7,1721.1,566.1,1721.1,566.1z"/>
</svg>
