<?xml version="1.0" encoding="utf-8"?>
<!-- Generator: Adobe Illustrator 28.4.1, SVG Export Plug-In . SVG Version: 6.00 Build 0)  -->
<svg version="1.1" xmlns="http://www.w3.org/2000/svg" xmlns:xlink="http://www.w3.org/1999/xlink" x="0px" y="0px"
	 viewBox="0 0 2000 2000" style="enable-background:new 0 0 2000 2000;" xml:space="preserve">
<style type="text/css">
	.st0{fill:#352F3A;}
	.st1{fill:#CBFF63;}
	.st2{fill:#FEFCFD;}
	.st3{fill:#23DAD5;}
	.st4{fill:#96A8AD;}
	.st5{fill:#FCFFFE;}
	.st6{fill:#8BA8AA;}
	.st7{fill:#FDFFFF;}
	.st8{fill:#20FCF2;}
</style>
<g id="Layer_3">
	<rect class="st0" width="2000" height="2000"/>
</g>
<g id="Layer_2">
	<path class="st1" d="M1482,196c-56,34-112,68-168,102c0,70,0,140,0,210c57,31.7,114,63.3,171,95c57.7-31.7,115.3-63.3,173-95
		c0-70,0-140,0-210C1599.3,264,1540.7,230,1482,196z M1470,561c-40.7-23.3-81.3-46.7-122-70c0-50.7,0-101.3,0-152
		c40.7,22.6,81.3,45.1,122,67.7C1470,458.1,1470,509.6,1470,561z M1483.4,378.8c-40.3-23.9-80.7-47.8-121-71.7
		c40.2-24.4,80.4-48.8,120.6-73.1c42.7,24.3,85.3,48.7,128,73C1568.5,330.9,1525.9,354.9,1483.4,378.8z M1623,489.8
		c-40.7,23.3-81.3,46.7-122,70c0-51.4,0-102.9,0-154.3c40.7-22.6,81.3-45.1,122-67.7C1623,388.5,1623,439.1,1623,489.8z"/>
	<path class="st2" d="M1547,650c-1.5,2.3-3.4,5.6-5,10c-2.7,7.3-4.9,18.6-2,20c3.4,1.7,12.9-10.7,16-15c3.3,15.3,6.7,30.7,10,46
		c11-2.3,22-4.7,33-7c-4.7-20.7-9.3-41.3-14-62c-6.1,0.4-13.2,1.3-21,3C1557.6,646.4,1551.9,648.2,1547,650z"/>
	<path class="st2" d="M1596,640c4.3,20.7,8.7,41.3,13,62c7.7-1.3,15.3-2.7,23-4c-3.7-23-7.3-46-11-69c-2.9,0-8.2,0.4-14,3
		C1601.5,634.5,1597.9,637.9,1596,640z"/>
	<path class="st2" d="M1634,626c3,23.3,6,46.7,9,70c4.3-0.7,8.7-1.3,13-2c1-24.7,2-49.3,3-74c-3.1-0.4-8.1-0.6-14,1
		C1640.1,622.3,1636.4,624.4,1634,626z"/>
	<path class="st2" d="M1672,619c-2,24.3-4,48.7-6,73c5-0.3,10-0.7,15-1c4-23.3,8-46.7,12-70c-3.6-0.9-8-1.7-13-2
		C1677.1,618.8,1674.4,618.9,1672,619z"/>
	<path class="st2" d="M1512,778c1.3,9,2.7,18,4,27c0.4,0.8,1,1.6,2,2c2.4,0.9,5.4-1.5,6-2c4.2-3.3,60.5-39.9,139-91
		c-12.6,1.3-25.6,3-39,5c-17.5,2.6-34.2,5.7-50,9C1553.3,744.7,1532.7,761.3,1512,778z"/>
	<path class="st3" d="M1492,799c1.1-0.5-7.9-14.2-4-32c1.2-5.8,3.4-9.9,4-11c4.2-7.7,11.5-14.9,49-31c6.5-2.8,12.3-5.1,17-7
		c-6-3.3-12-6.7-18-10c-4,1.5-9.9,3.9-17,7c-15.5,6.8-23.2,10.2-30,16c-5,4.2-13.9,11.8-17,24C1470.2,778.3,1490.5,799.7,1492,799z"
		/>
	<path class="st2" d="M1504,827c-30,84.3-60,168.7-90,253c0.2,1.3,0.6,3,2,4c2,1.4,4.9,0.4,6,0c8.2-2.8,57.8-29.8,60-31
		c19-76.3,38-152.7,57-229C1527.3,825,1515.7,826,1504,827z"/>
	<path class="st4" d="M1478,822c-30.7,78-61.3,156-92,234c0.8,2.3,2.5,6.2,6,10c3.7,4,7.7,6,10,7c29.3-82.7,58.7-165.3,88-248
		C1486,824,1482,823,1478,822z"/>
	<path class="st3" d="M1321,976c0.1,2.2,0.7,7,4,12c3.1,4.7,7.1,7,9,8c41.3-61,82.7-122,124-183c5.9,0.5,7.5-1.4,8-2
		c2.5-3.5-1.2-11.6-10-20C1411,852.7,1366,914.3,1321,976z"/>
	<path class="st3" d="M1310,993c-1.9,1.1-2.5,6.3,6,30c6.8,19.2,10.6,29.8,19,45c7.9,14.4,20.8,34.3,41,55c2.2-1.2,10.1-5.9,14-16
		c3.3-8.7,1.7-16.3,1-19c-8.9-2.3-14.8-5.8-18-8c-30.7-20.8-35.7-69.8-57-85C1312,992.2,1310.5,992.7,1310,993z"/>
	<path class="st5" d="M1353,900c-10.5,7.5-24.7,19.3-38,37c-0.4,0.6-0.8,1.1-1.2,1.6c-11.7,15.9-18.6,31.1-22.8,42.4
		c-27.7-34.7-55.3-69.3-83-104c4.7-1.8,12.7-4.7,23-7c13.4-3.1,67.9-15.4,107,15C1342.2,888.3,1347.6,893.1,1353,900z"/>
	<path class="st6" d="M1313.8,938.6c-11.7,15.9-18.6,31.1-22.8,42.4c-27.7-34.7-55.3-69.3-83-104c10.7,0.1,24.7,1.5,40,7
		C1286.1,897.6,1306.5,926.8,1313.8,938.6z"/>
	<path class="st3" d="M1185,915c-2.3,0.4-1.7,23,3,45c3.2,15,10.3,46.1,36,76c26.8,31.1,58.6,43.4,73,48c-24.7-13.7-58.4-37.2-81-77
		C1190.9,962.9,1188.3,914.4,1185,915z"/>
	<path class="st5" d="M1340,842c-44.8-8.3-94-20.7-146-39c-18.1-6.4-35.5-13.1-52-20c-3.2-3.9-7.9-10.6-11-20
		c-3.2-9.6-3.3-17.9-3-23c2.2-1.1,4.6-2.2,7.2-3.3c6.9-3,15.2-6.1,24.8-8.6c1-0.3,13.9-3.7,27-5.1c16.3-1.7,45.8-4.3,78,11
		c41.2,19.7,58.6,55.6,63,65c7.2,15.5,10.2,29.7,11.6,39.8C1339.8,839.9,1339.9,841,1340,842z"/>
	<path class="st6" d="M1340,842c-44.8-8.3-94-20.7-146-39c-18.1-6.4-35.5-13.1-52-20c-3.2-3.9-7.9-10.6-11-20
		c-3.2-9.6-3.3-17.9-3-23c2.2-1.1,4.6-2.2,7.2-3.3c5.1-0.8,10.8-1.2,17-0.9c0,0,5.3,0.4,10.8,1.2c83.8,11,143.6,64.6,176.6,101.8
		L1340,842z"/>
	<path class="st3" d="M1142,793c0,3,0,6,0,9c19.9,9.8,48.4,22.2,84,32c59.9,16.5,113.8,18.4,114,17c0.1-0.9-21.5-3.4-49-9
		C1252.9,834.3,1201.9,820.3,1142,793z"/>
	<path class="st5" d="M1156,920c-16.2,7.7-39,18-67,29c-29.7,11.6-111.9,43.9-119,31c-1.9-3.5,2.4-9.2,6-14
		c18.4-24.5,38.9-52.7,64-88c-21.3-27.7-42.7-55.3-64-83c42.3-13.7,84.7-27.3,127-41c16.1,50.5,32.3,101.1,48.4,151.6
		C1152.9,910.4,1154.5,915.2,1156,920z"/>
	<path class="st1" d="M971,822c-50.7,1-101.3,2-152,3c-15.7,17.3-31.3,34.7-47,52c37,62.7,74,125.3,111,188c45-62,90-124,135-186
		C1002.3,860,986.7,841,971,822z M875,1011c-23.7-40.3-47.3-80.7-71-121c24.7,0,49.3,0,74,0C877,930.3,876,970.7,875,1011z M879,869
		c-23,0-46,0-69,0c6-8,12-16,18-24c17.3-1.3,34.7-2.7,52-4C879.7,850.3,879.3,859.7,879,869z M958,844c6,7.7,12,15.3,18,23
		c-25,0.4-49.9,0.9-74.9,1.3c0.3-9.1,0.6-18.2,0.9-27.3C920.7,842,939.3,843,958,844z M899.6,890.7c26.8-0.2,53.6-0.5,80.4-0.7
		c-28.1,40.6-56.2,81.1-84.3,121.7C897,971.4,898.3,931,899.6,890.7z"/>
	<path class="st6" d="M958,999c-0.4-1.7,48.8-10.2,111-32c38.1-13.4,68.3-27.2,88-37c1,5.3,2,10.7,3,16c-30,12.4-72.5,27.8-125,40
		C994.6,995.3,958.3,1000.5,958,999z"/>
	<path class="st3" d="M694,925c-2.8,10.5-4.7,19.4-6,26c3.3,18.8,11.1,47.2,32,74c15.6,20.1,33.7,33.2,35,32
		c1.3-1.3-17.7-17.9-31-47c-7.2-15.8-10.4-30.1-12-40c34,8.3,68,16.7,102,25c-2.7-4.7-5.3-9.3-8-14c-32.3-13.3-64.7-26.7-97-40
		c2.6-36.7,11.5-64.5,20-84c20.7-47.7,41.8-75.5,41-76C768.9,780.3,717.7,837.5,694,925z"/>
	<path class="st3" d="M708,1034c-0.3,5.3-0.7,10.7-1,16c23,24,46,48,69,72c-0.7-5.7-1.3-11.3-2-17c-7.3-11-16.5-23.3-28-36
		C732.7,1054.4,719.6,1042.9,708,1034z"/>
	<path class="st3" d="M727,1085c2,23.7,4,47.3,6,71c9.3,11.7,18.7,23.3,28,35c-8.1-17.7-16.3-41-20-69c-1.3-10-1.9-19.3-2-28
		C735,1091,731,1088,727,1085z"/>
	<path class="st3" d="M721.2,1161.1c-0.3,5.3-0.7,10.7-1,16c23,24,46,48,69,72c-0.7-5.7-1.3-11.3-2-17c-7.3-11-16.5-23.3-28-36
		C745.9,1181.5,732.8,1170,721.2,1161.1z"/>
	<path class="st3" d="M737.2,1206.1c2,23.7,4,47.3,6,71c9.3,11.7,18.7,23.3,28,35c-8.1-17.7-16.3-41-20-69c-1.3-10-1.9-19.3-2-28
		C745.2,1212.1,741.2,1209.1,737.2,1206.1z"/>
	<path class="st3" d="M735.1,1284.4c-0.3,5.3-0.6,10.7-0.9,16c20.9,24,41.9,48,62.8,72c-0.6-5.7-1.2-11.3-1.8-17
		c-6.6-11-15-23.3-25.5-36C757.6,1304.9,745.6,1293.3,735.1,1284.4z"/>
	<path class="st3" d="M776,1061c3,20.3,6,40.7,9,61c2.8,4,10.6,14.3,24,17c8,1.6,16.6,0.2,17-2c0.4-2.7-11.8-4.1-22-15
		c-3.5-3.7-5.7-7.4-7-10c-2.3-16-4.7-32-7-48c28.4-24.6,42.1-37.6,41-39C829.8,1023.5,811.5,1035.5,776,1061z"/>
	<path class="st3" d="M790,1142c1.3,29.3,2.7,58.7,4,88c2.8,3,7.1,7.4,13,12c5.9,4.6,13.1,9.6,23,11c5.6,0.8,11.8,0.3,12-1
		c0.2-1.1-3.9-1.8-10-5c-1.7-0.9-9-5.7-17-13c-3.6-3.3-5.8-6.7-7-9c-1.3-25-2.7-50-4-75C799.3,1147.3,794.7,1144.7,790,1142z"/>
	<path class="st3" d="M798.1,1256.9c1.3,29.3,2.7,58.7,4,88c2.8,3,7.1,7.4,13,12c5.9,4.6,13.1,9.6,23,11c5.6,0.8,11.8,0.3,12-1
		c0.2-1.1-3.9-1.8-10-5c-1.7-0.9-9-5.7-17-13c-3.6-3.3-5.8-6.7-7-9c-1.3-25-2.7-50-4-75C807.4,1262.2,802.7,1259.6,798.1,1256.9z"/>
	<path class="st6" d="M1156,920c-16.2,7.7-39,18-67,29c-29.7,11.6-111.9,43.9-119,31c-1.9-3.5,2.4-9.2,6-14
		c4.4-5.8,8.8-11.6,13.2-17.3c54.1-14.4,108.2-28.7,162.2-43.1C1152.9,910.4,1154.5,915.2,1156,920z"/>
	<path class="st7" d="M999,1064c-3.7,16.3-7.3,32.7-11,49c-14.2,9-28.4,18-42.5,26.9c-21.5-2-43-4-64.5-5.9c0.7-11.7,1.3-23.3,2-35
		c13.7-18.2,27.3-36.4,41-54.6c2.3-3.1,4.7-6.3,7-9.4C953.7,1044.7,976.3,1054.3,999,1064z"/>
	<path class="st7" d="M983,1139c-3.7,29.3-7.3,58.7-11,88c-12.2,7.1-24.5,14.2-36.7,21.3c-0.4,0.2-0.9,0.5-1.3,0.7
		c-18-2.3-36-4.7-54-7c1-27.3,2-54.7,3-82c19.3,1.7,38.7,3.3,58,5c0.8-0.5,1.5-0.9,2.2-1.4C956.5,1155.4,969.8,1147.2,983,1139z"/>
	<path class="st7" d="M967,1253.5c-3.2,29.3-6.4,58.7-9.6,88c-11,7.3-22,14.5-32.9,21.8c-0.1,0.1-0.2,0.1-0.3,0.2
		c-15.7-2.3-31.5-4.7-47.2-7c0.9-27.3,1.8-54.7,2.6-82c16.9,1.7,33.8,3.3,50.7,5c0.7-0.5,1.5-1.1,2.2-1.6
		C944,1269.8,955.5,1261.7,967,1253.5z"/>
	<path class="st6" d="M930.3,1279.5c-2,28-4.1,56-6.1,84c-15.7-2.3-31.5-4.7-47.2-7c0.9-27.3,1.8-54.7,2.6-82
		C896.4,1276.2,913.3,1277.8,930.3,1279.5z"/>
	<path class="st6" d="M941,1165c-2.3,28-4.7,56-7,84c-18-2.3-36-4.7-54-7c1-27.3,2-54.7,3-82C902.3,1161.7,921.7,1163.3,941,1165z"
		/>
	<path class="st6" d="M948,1113c-0.8,9-1.7,18-2.5,26.9c-21.5-2-43-4-64.5-5.9c0.7-11.7,1.3-23.3,2-35c13.7-18.2,27.3-36.4,41-54.6
		C932,1067.3,940,1090.1,948,1113z"/>
	<path class="st6" d="M1008,1136c-3,21.7-6,43.3-9,65c48-29,96-58,144-87c6.3-24,12.7-48,19-72
		C1110.7,1073.3,1059.3,1104.7,1008,1136z"/>
	<path class="st6" d="M993.6,1257.5c-3,21.7-6,43.3-9,65c44.1-26.5,88.3-53,132.4-79.5c6.3-22.7,12.7-45.3,19-68
		C1088.5,1202.5,1041.1,1230,993.6,1257.5z"/>
	<path class="st1" d="M1008,1103c-0.3,5.7-0.7,11.3-1,17c55.3-34.3,110.7-68.7,166-103c0.3-6.7,0.7-13.3,1-20
		C1118.7,1032.3,1063.3,1067.7,1008,1103z"/>
	<path class="st1" d="M988.1,1230.2c-0.3,5.7-0.7,11.3-1,17c50.3-30.7,100.6-61.5,150.9-92.2c1.7-7.3,3.3-14.7,5-22
		C1091.4,1165.4,1039.7,1197.8,988.1,1230.2z"/>
	<path class="st1" d="M972,1347.1c-0.3,5.7-0.7,11.3-1,17c50.3-30.7,100.6-61.5,150.9-92.2c1.7-7.3,3.3-14.7,5-22
		C1075.3,1282.3,1023.7,1314.7,972,1347.1z"/>
	<path class="st3" d="M642,946c-2.1-13-3.9-33.6,1-58c2.7-13.4,8.8-42,31-67c25.3-28.4,59.5-38.8,60-38c0.3,0.5-9.6,5.1-22,15
		c-8.7,7-27,23.4-40,49c-18.2,35.9-15.8,70.5-14,85C652.7,936.7,647.3,941.3,642,946z"/>
	<path class="st3" d="M658,965c-1.7-1.1-23.6,24.8-41,58c-12.8,24.5-26.4,51-25,85c1,25.1,9.9,47.5,13,47c3.1-0.5-2.4-23.8,2-58
		c4.9-38.5,19.6-69.2,31-93C649.9,979.1,659.2,965.8,658,965z"/>
	<path class="st1" d="M960,774c-2.9-4.9,34.2-32.1,45-40c19.5-14.3,34.8-25.5,59-39c44.7-24.9,73.3-40.9,99-31
		c8.3,3.2,10.1,6.7,23,11c20,6.7,29.5,3,44,10c5.9,2.8,14.1,8.2,22,19c-44.8-5.5-77.2,1.3-99,9c-49.3,17.4-74,31-74,31
		c-0.1,0-0.2,0.1-0.4,0.2c-7.1,3.9-22.3,12.1-42.6,15.8c-5.6,1-13.5,2.1-23,2c58.8-40.1,91.6-55,111-61c4.4-1.4,27.4-8.3,27-10
		c-0.2-0.8-5.2-0.2-7,0c-37.6,4.3-73,24-73,24c-20.8,11.5-47.7,28-77.8,51c-3.8,1.5-9,3.3-15.2,5C966.6,774,960.9,775.6,960,774z"/>
	<path class="st1" d="M770,716c7.1-8.1,14-13.5,19-17c8.7-6,16.2-11,24-9c4.1,1.1,6.7,3.7,8,5c8.8,9.1,31.5,36.9,61,75
		c-2.4,1.4-6.7,3.4-12,3c-4.5-0.3-7.7-2.2-9-3c-28.3-16.7-57.7-31.8-85-50C774.9,719.2,771,716.7,770,716z"/>
	<path class="st1" d="M677,751c-1.2-2.9,12.3-11.8,23-17c6-2.9,15.7-7.7,27-9c17-2,30.5,4.7,45,12c29,14.7,52.4,27,71,37
		c-5.9,0.4-15,0.7-26,0c-21.6-1.4-26.7-5.1-49-9c-18.7-3.3-72.4-12.7-88-13C679.3,752,677.4,752,677,751z"/>
	<path class="st1" d="M946,449c-0.3,9.7-0.7,19.3-1,29c18.6-1.6,40.1-2.8,64-3c15.6-0.2,29.7-0.3,48,1c18.1,1.3,39.7,3.8,64,9
		c0.7-10.3,1.3-20.7,2-31c-20.6-3.6-43.3-6.5-68-8C1014,443.5,977.2,445.4,946,449z"/>
	<path class="st5" d="M1115,500c-9,42.7-18,85.3-27,128h-50c-11-34.3-22-68.7-33-103c-19-9.7-38-19.3-57-29
		c20.3-2.1,42.8-3.5,67.3-3.5c8.7,0,17.6,0.2,26.7,0.5C1068.6,494.1,1093,496.7,1115,500z"/>
	<path class="st5" d="M1112,437c-24.8-4.9-53.7-8.9-86-10c-4.9-0.2-9.8-0.3-14.6-0.3c-14.7-0.1-28.5,0.4-41.4,1.3
		c0.5-2,6.3-30.1-13-49c-19.2-18.8-46.8-12.2-52-11c-28.1,6.7-43.6,31.4-44,31c-0.3-0.3,7.5-14.4,23.8-29.7
		c8.6-8.1,19.7-16.5,33.2-23.3c13.3-6.8,50.3-22.9,96-12c11.5,2.8,53.9,13.5,80,54C1106.3,407.1,1110.4,425.8,1112,437z"/>
	<path class="st6" d="M1011.4,426.7c-14.7-0.1-28.5,0.4-41.4,1.3c0.5-2,6.3-30.1-13-49c-19.2-18.8-46.8-12.2-52-11
		c-28.1,6.7-43.6,31.4-44,31c-0.3-0.3,7.5-14.4,23.8-29.7c3-2,6.1-3.8,9.2-5.3c7.2-3.6,38.2-17.9,71-3
		C990.6,372.6,1008.1,397.8,1011.4,426.7z"/>
	<path class="st6" d="M1038.5,628h-0.5c-11-34.3-22-68.7-33-103c-19-9.7-38-19.3-57-29c20.3-2.1,42.8-3.5,67.3-3.5
		C1023,537.7,1030.7,582.8,1038.5,628z"/>
	<path class="st5" d="M921,479.5c0,22.1-13,40.7-30.9,46.6c-3.8,1.3-7.9,1.9-12.1,1.9c-23.8,0-43-21.7-43-48.5
		c0-15.7,6.6-29.7,16.9-38.6c7.2-6.2,16.3-9.9,26.1-9.9C901.8,431,921,452.7,921,479.5z"/>
	<path class="st8" d="M907,487.5c0,15.7-6.6,29.7-16.9,38.6c-3.8,1.3-7.9,1.9-12.1,1.9c-23.8,0-43-21.7-43-48.5
		c0-15.7,6.6-29.7,16.9-38.6c3.8-1.3,7.9-1.9,12.1-1.9C887.8,439,907,460.7,907,487.5z"/>
	<path class="st8" d="M783,339c15.7,33,31.3,66,47,99c5-6.3,10-12.7,15-19c-18.3-28-36.7-56-55-84C787.7,336.3,785.3,337.7,783,339z
		"/>
	<path class="st8" d="M867,553c-1.7,51-3.3,102-5,153c6,4,12,8,18,12c1.3-53.3,2.7-106.7,4-160C878.3,556.3,872.7,554.7,867,553z"/>
	<path class="st8" d="M903,539c0.3,5.7,1.6,15.4,7,26c1.5,2.9,6.4,11.8,16,20c0,0,4.5,3.8,10,7c11.9,6.9,47.2,20.5,95,36
		c-2.7-4-5.3-8-8-12c-29-10.6-51.3-21.5-67-30c-10.8-5.8-20.2-11.5-29-22c-9.4-11.3-13.8-23.1-16-31c-0.8,1.1-2,2.6-4,4
		C905.5,538,904.1,538.6,903,539z"/>
	<path class="st3" d="M734,1311c3.3,3.7,6.7,7.3,10,11c-9,56.7-18,113.3-27,170c-10.3,4.7-20.7,9.3-31,14
		C702,1441,718,1376,734,1311z"/>
	<path class="st3" d="M430,1363c33-65.7,66-131.3,99-197c4.2-0.6,8.9-1,14-1c12.6,0,23.2,2.4,31,5c-40.7,64-81.3,128-122,192
		c-3.6-0.2-7.7-0.2-12,0C436.4,1362.2,433.1,1362.6,430,1363z"/>
	<path class="st3" d="M502,1384c2.5,2,5.2,4.3,8,7c3.6,3.5,6.5,6.9,9,10c51-43,102-86,153-129c-5.7-9-11.3-18-17-27
		C604,1291.3,553,1337.7,502,1384z"/>
	<path class="st5" d="M465,1367c42.3-63.7,84.7-127.3,127-191c6,1.9,12.9,4.7,20,9c23.2,14.2,33.8,35.7,38,46
		c-52.7,48.7-105.3,97.3-158,146c-3.6-2-8-4.1-13-6C473.9,1369.1,469.1,1367.8,465,1367z"/>
	<path class="st5" d="M390,1523c8-5.5,18.1-13.6,28-25c10.8-12.5,17.7-24.7,22-34c1.9-0.3,10-1.2,17,4c3.1,2.3,5,5.1,6,7
		c-3.3,9.6-8.3,21.4-16,34c-7.4,12.1-15.2,21.7-22,29c-4.7-0.5-11.5-1.7-19-5C398.8,1529.9,393.5,1526,390,1523z"/>
	<path class="st5" d="M437,1541c5.5-7.2,11.4-15.8,17-26c6.8-12.4,11.6-24,15-34c1.9-0.1,5.8-0.1,10,2c5.6,2.8,8.2,7.4,9,9
		c-1.2,7.6-3.3,16.9-7,27c-4.3,11.6-9.4,20.9-14,28c-4.7,0.8-12.9,1.4-22-2C441.8,1543.8,439.2,1542.4,437,1541z"/>
	<path class="st5" d="M411,1441c-13.7,9.8-21,14.2-22,13c-1.1-1.3,5.6-9.3,20-24c4.4,1,11.6,3.4,19,9c6,4.5,9.8,9.5,12,13
		c3.6-0.2,13.8-0.4,24,6c8.1,5,12.2,11.7,14,15c2.7,0.3,7.9,1.3,13,5c2.8,2,4.7,4.3,6,6c1.7,0,4.2,0.1,7,1c2.7,0.8,4.7,2.1,6,3
		c1.3-8.6,2.5-20.6,2-35c-0.6-17.1-0.9-26.7-5-36c-14.2-32.4-63.7-37.3-71-38c-11.8-1.2-35.5-3.5-55,11c-9,6.7-14,14.5-18,21
		c-5.4,8.8-13.2,24.1-16,46c3,7,6,14,9,21c-2,7.3-4,14.7-6,22c2.1,2.7,5.6,6.6,11,10c6.8,4.2,13.3,5.5,17,6c7.1-3.8,15.5-9.2,24-17
		c16-14.6,24.5-30.6,29-41c-1.4-2.5-3.6-5.8-7-9C419.2,1444.4,414.2,1442.1,411,1441z"/>
	<path class="st5" d="M476,1549c3.7-6.1,7.7-13.8,11-23c4.3-11.9,6.2-22.6,7-31c1.9,0,4.1,0.1,6.6,0.6c5.4,1.1,9.3,3.6,11.6,5.3
		c0.3,6,0,13.5-1.6,21.9c-1.8,9.6-4.8,17.8-7.7,24.1c-4.7,1.8-11.7,3.6-20.1,3.1C480.4,1549.8,478.1,1549.5,476,1549z"/>
	<path class="st6" d="M908,599c-0.3,17.1,1,39.1,7,64c9,37.3,24.9,65.3,37,83c2-4.7,4-9.3,6-14c-7-16.7-14-36.1-20-58
		c-5.8-21.1-9.5-40.6-12-58C920,610.3,914,604.7,908,599z"/>
	<path class="st5" d="M636.6,1744.1c-4.6-0.5-35.6-4.5-54.2-32.3c-15-22.2-16.5-51.3-4.2-76.1c51.3-27.5,102.7-54.9,154-82.4
		c5.5,0.7,20.5,3.4,33.6,15.8c9.5,9,13.7,19.1,15.4,24.4c11.8-5.4,23.6-10.8,35.4-16.2c-2.2-7-10.3-29.8-33.9-45.8
		c-27.6-18.6-56.4-14.5-62.7-13.5c-55.4,29-110.7,58-166.1,87.1c-30.3,40.8-31.5,95-4.2,132.9c32.9,45.8,90.4,44.5,95,44.3
		c42.8-18.7,86.7-39.6,131.5-62.9c13.4-7,26.6-14,39.5-21.1c3.8-4.6,10.1-13.2,13.6-25.7c3.7-13,2.7-24,1.7-30
		c-12.8,5.4-25.6,10.7-38.4,16.1c0.1,1,0.2,2.4-0.1,4c-0.6,3-2.3,5.1-3.1,5.9C738.5,1693.8,687.5,1718.9,636.6,1744.1z"/>
	<path class="st5" d="M741.3,1591.5c-8.9,8.4-10.4,19.8-10.5,20.8c-0.2,1.8-1.6,15.9,8.4,27.2c9.2,10.4,24.4,14.2,38.8,9.9
		c71.1-31,142.2-62,213.3-92.9c12-8.8,17.4-23.5,13.9-36.7c-5.5-20.6-30-26.6-31.4-24.8c-1,1.2,7.6,7.1,6.6,15.2
		c-0.4,3.6-2.6,6.3-4.2,7.9c-71.4,32-142.9,63.9-214.3,95.9c-4.4-1.6-10.6-4.5-12.8-10.3c-2.6-7,1.8-14.6-0.6-16
		C746.5,1586.6,742.4,1590.4,741.3,1591.5z"/>
	<path class="st5" d="M823.3,1548.4c3.5,5.4,7.1,10.8,10.6,16.3c17.9-8.2,35.7-16.5,53.6-24.7c-1.2-6.4-2.4-12.7-3.5-19.1
		C863.8,1530.1,843.5,1539.3,823.3,1548.4z"/>
	<path class="st5" d="M941.9,1523.3c-1-5.6-1.8-13.6-0.6-23.1c1.4-11,4.8-19.6,7.6-25.1c51.3-27.5,102.7-54.9,154-82.4
		c5.6,0.7,20.7,3.3,33.6,15.8c7.8,7.5,11.7,15.6,13.6,20.7c4.9-0.9,11.7-2.6,19.2-6.5c6.2-3.2,10.8-7,14.1-10
		c-2.2-7.1-9.5-27.1-30-41.7c-27.3-19.5-57.1-14.5-62.7-13.5c-55.4,29-110.7,58-166.1,87.1c-6.3,8.4-16.9,24.8-21.5,48.1
		c-3.9,20.1-1.7,36.9,0.3,46.8C916.3,1534,929.1,1528.6,941.9,1523.3z"/>
	<path class="st5" d="M1207.1,1477.6c-14.5,5.3-28.9,10.6-43.4,16c0.5,1.1,1.4,3.7,0.8,7c-0.7,4.3-3.5,6.9-4.3,7.6
		c-50.9,25.1-101.9,50.3-152.8,75.4c-3.5,0.3-8.7,0.4-14.8-1c-5.7-1.4-10-3.6-12.9-5.3c-16.2,7.6-32.4,15.2-48.6,22.9
		c9.6,6.6,26.1,16,48.5,20.2c14.2,2.7,26.6,2.4,35.8,1.5c42.8-18.7,86.7-39.6,131.5-62.9c13.4-7,26.6-14,39.5-21.1
		c4.6-5.3,11.1-14.1,15.6-26.6C1207.2,1497.1,1207.5,1484.8,1207.1,1477.6z"/>
	<path class="st5" d="M1123,1426.8c-8.4,8.8-9.4,20.3-9.4,21.3c-0.1,1.8-0.8,16,9.7,26.7c9.7,9.9,25.1,13,39.2,7.9
		c69.4-34.6,138.8-69.1,208.3-103.7c11.5-9.4,16.2-24.3,12-37.3c-6.6-20.3-31.3-25-32.6-23.1c-0.9,1.3,8,6.7,7.4,14.8
		c-0.2,3.6-2.2,6.4-3.8,8.1c-69.7,35.6-139.5,71.1-209.2,106.7c-4.5-1.3-10.8-4-13.3-9.6c-3-6.8,1-14.7-1.4-16
		C1128,1421.7,1124.1,1425.7,1123,1426.8z"/>
	<path class="st5" d="M1202.7,1379.7c3.8,5.2,7.6,10.5,11.4,15.7c17.4-9.1,34.8-18.3,52.3-27.4c-1.5-6.3-3-12.6-4.5-18.9
		C1242.2,1359.2,1222.5,1369.4,1202.7,1379.7z"/>
	<path class="st5" d="M1512,1169.6c-17.5-9.6-34.4-9-41.2-8.7c-11.6,0.6-20.1,3.4-22.8,4.3c-50.7,36.6-101.3,73.3-152,109.9
		c-5.1,9.2-13.2,27-14.4,50.7c-0.7,14.6,1.4,27.1,3.9,36.5c3.5-1.8,7-3.7,10.4-5.6c8.9-5,17.5-10.3,25.8-16.1
		c-0.7-3.8-1.2-8-1.3-12.7c-0.2-11.1,2-20.1,3.9-25.9c46.9-34.5,93.8-69,140.6-103.5c3.6-0.1,8.1,0.1,13.1,1.2
		c10,2.1,17.2,6.7,21.4,9.9c8.6-10.1,17.2-20.3,25.7-30.4C1522.4,1176.4,1517.9,1172.8,1512,1169.6z"/>
	<path class="st5" d="M1569.9,1237.1c-9.9,11.1-19.9,22.2-29.8,33.3c1.8,4.9,4.4,14.7,1.4,25.9c-0.8,3.1-2,5.8-3.2,8.1
		c-46.8,32.2-93.7,64.3-140.5,96.5c-3.4,0.8-8.6,1.7-14.8,1.1c-5.8-0.5-10.4-2.1-13.5-3.4c-16,8.9-32.1,17.8-48.1,26.7
		c10.3,5.8,29.2,14.7,54.2,15.9c14.5,0.7,26.7-1.3,35.7-3.6c39.7-24.7,80.2-51.6,121.2-81.1c12.3-8.8,24.3-17.7,36.1-26.5
		c4.3-6.8,9.1-16.4,11.7-28.6C1586.7,1270.7,1574.5,1245.6,1569.9,1237.1z"/>
	<path class="st5" d="M1470.4,1224c-4.5,11.4-0.9,22.3-0.6,23.3c0.6,1.7,5.3,15.1,19.2,21c12.7,5.5,28.1,2.5,39.3-7.6
		c51.1-58.4,102.1-116.7,153.2-175.1c7.1-13,5.7-28.7-3.1-39.1c-13.8-16.3-38.5-11.2-39-9c-0.3,1.5,9.9,3.1,12.5,10.9
		c1.1,3.4,0.4,6.8-0.4,8.9c-51,59.4-101.9,118.8-152.9,178.3c-4.7,0.5-11.5,0.4-15.9-3.9c-5.4-5.2-4.6-14-7.4-14.2
		C1473,1217.4,1471,1222.6,1470.4,1224z"/>
	<path class="st5" d="M1526.2,1150.1c5.5,3.4,11,6.8,16.5,10.2c12.6-15.1,25.3-30.2,37.9-45.3c-3.8-5.2-7.6-10.5-11.4-15.7
		C1554.9,1116.2,1540.6,1133.1,1526.2,1150.1z"/>
	<path class="st5" d="M1808.6,874c-33.8-32.4-87.6-38.8-132.2-14.6c-36.5,50.7-73,101.5-109.5,152.2c-1.9,6.1-10,34.1,4.6,64
		c5.3,10.9,12.2,19.1,18.9,25.3c8.2-10.6,16.4-21.2,24.6-31.9c-1.3-1.5-2.6-3.1-3.9-4.9c-10.5-14.7-11-30-10.9-35.5
		c34.4-47,68.8-93.9,103.2-140.9c26.3-8.7,54.9-3.1,74.8,14.8c24.9,22.4,24.5,53.6,24.4,58.2c-32,46.9-64.1,93.8-96.1,140.7
		c-1.7,0.9-3.8,1.7-6.3,2.3c-7,1.6-12.9,0-15.9-1.1c-8.3,11.5-16.6,22.9-24.8,34.4c8,3,24.7,8.1,45.3,4.5
		c11.9-2.1,21.1-6.3,27.3-9.9c8.8-11.8,17.6-23.9,26.4-36.2c29.3-41.1,56.2-81.6,80.7-121.4C1839.9,969.8,1849.4,913.1,1808.6,874z"
		/>
	<path class="st1" d="M196,1606c0.3-8.9,1.1-22.9,3-40c6.6-57.8,16.3-142.3,76-194c19-16.4,38.4-25.5,46-29
		c33.9-15.6,64.7-18.6,83-19c-3.3,9-6.7,18-10,27c-5.3,1.1-46.8,10.1-68,51c-20,38.6-6.2,75.5-4,81c-2.7,12-5.3,24-8,36
		c17.1,14.7,47.9,37.2,92,51c50.5,15.8,93.8,12.5,117,9c3.3-5.5,5.6-10.1,7-13c4-8.4,15.2-33.8,16-71c0-0.5,0-0.5,0-8
		c0-24.1,0-43.3,0-56c14.5,4.9,35.6,13.9,57,31c28.1,22.4,43.4,47.8,51,63c29.7-101.2,49.9-179,58-216c2.5-11.3,6.2-29.8,6-54
		c-0.2-21.3-3.4-38.7-6-50c-6.7,13.7-13.3,27.3-20,41c0.3,11.7,0.7,23.3,1,35c-55.7,47.3-111.3,94.7-167,142c0,21.3,0,42.7,0,64
		c0.3,2.2,0.8,5.3,1,9c0.2,3.6,0.8,14.8-2,29c-2.7,13.8-7.6,25-12,33c-6.5,2.4-16.1,5-28,5c-7,0-13.1-0.9-18-2c-4,0.7-8.7,1.2-14,1
		c-13.3-0.4-23.7-4.7-30-8c-4.3-0.2-9-0.8-14-2c-17.2-4-29.6-12.6-37-19c-4.9-1.4-10.7-3.5-17-7c-10.4-5.8-17.6-12.8-22-18
		c2.7-9.7,5.3-19.3,8-29c-3-5.1-7-13.3-8-24c-1.4-15.2,3.9-26.6,10-39c6.8-13.9,14.4-29.4,32-40c13.4-8,26.5-9.7,34-10
		c5.6-12,11.3-24,17-36c28.3-59.6,57-118.3,86-176c9.3-5,19.3-10.1,30-15c9.6-4.5,19-8.4,28-12c0.6-19.5,3.3-45.2,12-74
		c11.4-38,28.7-66.5,42-85c-2-9-4-18-6-27c-23.5,16.4-57.1,41.5-94,76c-85.1,79.6-128.5,153.7-131,152c-2.3-1.6,33.3-68.8,95-139
		c48.1-54.7,95.7-92.6,130-117c0.6-12,2.5-26.3,7-42c9.9-34.4,27.6-58.8,40-73c-21.8,10.6-51.9,26.4-86,48
		c-58,36.7-193.9,124.9-291,296c-88.7,156.2-101.8,305.3-103,383c-19.1-86.6-15-158-9-203c18.5-138.2,82.6-232,112-274
		c47.7-68.1,96-110.2,133-142c81.6-70.2,160.5-113.7,217-140c2.8-7.5,13.5-33.4,42-50c31.2-18.2,61.8-12.5,69-11
		c3-5.2,15.2-25,41-34c26.9-9.4,49.8-0.2,55,2c2.3-42,4.7-84,7-126c-5.9-3.7-21.3-14.4-30-35c-10.7-25.3-4-48.1-2-54
		c-21-47-42-94-63-141c9-4.7,18-9.3,27-14c20.3,26.3,40.7,52.7,61,79c8.6-11.9,23.6-29.4,47-44c54.4-33.8,110.2-24.1,121-22
		c17.3,3.3,58.9,11.4,89,49c21.3,26.6,26.5,55.1,28,69c5,2,10,4,15,6c-1.7,21.3-3.3,42.7-5,64c-3.3,0.3-6.7,0.7-10,1
		c-7.7,45.3-15.3,90.7-23,136c-14,3-28,6-42,9c-0.3,5.7-0.7,11.3-1,17c26.2-13.1,49.1-18,64-20c16.9-2.3,33.8-4.4,53,2
		c6.4,2.1,7.8,3.4,18,7c20,7,33.4,8.4,40,10c13.4,3.2,31.1,14.5,49,51c5.8,4.6,14,11.6,23,21c15.8,16.5,37.8,39.5,46,74
		c2.5,10.6,5.1,28.3,1,51c4.3,4.7,8.7,9.3,13,14c4.6-6.7,73.7-108,77-111c1.4-1.3,3-2,3-2c1.5-0.7,2.9-0.9,4-1c-1-6.6-2-20.4,6-33
		c2.2-3.5,5-6.6,9-10c17.9-15,45.4-22.3,57-25c-1.5-3.7-3.3-9.1-4-16c-0.5-4.6-2.3-28.9,13-41c3.7-2.9,8.1-4.3,17-7
		c12.2-3.7,22.7-5.3,30-6c7.6-5.3,16.5-10.6,27-15c41.9-17.7,81.8-10.8,101-6c-5.7,33-11.3,66-17,99c-4,2.3-8,4.7-12,7
		c-0.3,3.7-0.7,7.3-1,11c-41.7,27.7-83.3,55.3-125,83c1.3,3.7,2.7,7.3,4,11c-19.3,82.3-38.7,164.7-58,247
		c-42.3,28.7-84.7,57.3-127,86c1,3.3,2,6.7,3,10c49.3-30.3,98.7-60.7,148-91c-2.6-13.9-5.4-39.6,3-70c7-25.3,18.8-43.4,27-54
		c9-41.3,18-82.7,27-124c-1.7-2.7-3.3-5.3-5-8c41-26,82-52,123-78c1-4.3,2-8.7,3-13c4-2,8-4,12-6c7.3-40.7,14.7-81.3,22-122
		c-15-6.4-47.9-17.9-90-13c-37,4.3-63.6,19.2-77,28c-4.3,0.8-10.5,2.1-18,4c-10.5,2.7-15.9,4.1-21,7c-8.9,5.1-13.9,12-16,15
		c-8,11.3-9.5,22.9-11,34c-0.8,6.2-1,11.4-1,15c-5.1,0.8-49.7,8.8-65,45c-3.7,8.8-5,17.5-5,25c-18,25.7-36,51.3-54,77
		c-0.4-11.2-2.2-24.6-7-39c-15.6-47.1-52.1-72.7-67-82c-1.5-4.1-13.1-34.5-35-50c-11.1-7.8-22-11-22-11c-6.6-1.9-8.7-1.4-17-3
		c-10.3-2-14.7-4.3-28-9c-16-5.7-24-8.5-32-10c-9.4-1.7-23.5-2.5-42,3c5.3-34.7,10.7-69.3,16-104c4.7-1.7,9.3-3.3,14-5
		c1.7-31.3,3.3-62.7,5-94c-6.3-2.7-12.7-5.3-19-8c-1.6-9.3-4.8-22.9-12-38c-15.5-32.4-39.3-50-49-57c-54.1-39.1-136.4-41.6-197-7
		c-21.6,12.3-36.3,27.1-45,37c-19-24.7-38-49.3-57-74c-18,9.7-36,19.3-54,29c22,52,44,104,66,156c-2.2,7.5-7.6,30,2,56
		c8.9,24.1,25.5,37.3,32,42c-1.3,29.3-2.7,58.7-4,88c-7.8-1.5-26.1-3.9-47,4c-23.7,8.9-36.5,25.6-41,32c-9.9-1.7-35.2-4.7-63,8
		c-35.7,16.3-50.4,47-54,55c-13.7,6.6-32.3,16-54,28c-83.4,46.3-139.5,91.8-152,102c-29.8,24.5-71.8,59.3-117,115
		c-35.5,43.7-58.6,82.5-71,105c-23.6,42.6-55.6,101.6-71,186c-4,21.8-17.6,103.9,3,208C170.4,1539.5,184.2,1578.1,196,1606z"/>
	<path class="st1" d="M1206,1053c-19.7,65.7-39.3,131.3-59,197c12.7,31.3,25.3,62.7,38,94c21-9.3,42-18.7,63-28
		c0.2-8.8,1.4-22.1,7-37c6.4-17.1,15.7-29.1,22-36c83-58.7,166-117.3,249-176c-50.3,27-100.7,54-151,81c-17.3-12-34.7-24-52-36
		c-15.5-2.1-38.6-7.1-64-20C1234.2,1079.4,1216.8,1064.1,1206,1053z"/>
</g>
</svg>
