<?xml version="1.0" encoding="UTF-8"?>
<svg id="Layer_1" data-name="Layer 1"
    xmlns="http://www.w3.org/2000/svg" viewBox="0 0 200 200">
    <defs>
        <style>
      .cls-1 {
        fill: #84611a;
      }

      .cls-1, .cls-2, .cls-3, .cls-4, .cls-5, .cls-6, .cls-7, .cls-8, .cls-9, .cls-10, .cls-11, .cls-12, .cls-13, .cls-14, .cls-15, .cls-16, .cls-17 {
        stroke-width: 0px;
      }

      .cls-2 {
        fill: #666564;
      }

      .cls-3 {
        fill: #261b16;
      }

      .cls-4 {
        fill: #000;
      }

      .cls-5 {
        fill: #3a2b23;
      }

      .cls-6 {
        fill: #653b21;
      }

      .cls-7 {
        fill: #423333;
      }

      .cls-8 {
        fill: #aa9f8d;
      }

      .cls-9 {
        fill: #935e47;
      }

      .cls-10 {
        fill: #512e1a;
      }

      .cls-11 {
        fill: #ba731c;
      }

      .cls-12 {
        fill: #d8d0bf;
      }

      .cls-13 {
        fill: #181819;
      }

      .cls-14 {
        fill: #f7c34d;
      }

      .cls-15 {
        fill: #2d2d2d;
      }

      .cls-16 {
        fill: #23f7dd;
      }

      .cls-17 {
        fill: #fff;
      }
        </style>
    </defs>
    <circle class="cls-16" cx="100" cy="100" r="100"/>
    <path class="cls-9" d="M142.12,127.73c1.74,3.11,2.8,6.59,2.34,10.17s-1.74,6.71-3.82,9.49c-.42.57-.26,1.5.38,1.83.73.38,1.48-.08,1.91-.66,2.37-3.16,3.78-6.96,4.28-10.87.51-4.01-.65-8.02-2.6-11.5-.85-1.51-3.28.12-2.49,1.54h0Z"/>
    <path class="cls-5" d="M68.85,152.83c-2.03-.08-3.51-.72-6.12-1.85-3.13-1.35-4.06-2.41-10.08-5.77-2.12-1.18-1.8-.94-2.33-1.27-3.08-1.97-4.87-4.56-7.47-10.09-.77-1.64-1.49-3.28-3.32-7.86-3.96-9.94-4.25-11.44-4.37-13.05-.28-3.89.54-6.96,1.04-8.47,1.22-3.73,3.13-6.21,4.29-7.7,3.01-3.85,4.66-5.53,6.97-5.97,5.03-.95,7.31,4.88,9.13,7.74,2.01,3.15,3.9,6.37,5.41,9.71.9,1.98,1.17,3.54,1.29,3.99,3.26,12.02,20.88,28.35,15.73,36.23-1.81,2.78-6.47,4.52-10.19,4.37Z"/>
    <path class="cls-3" d="M45.17,91.45c-4.36,3.47-7.6,7.99-9.15,13.36-1.05,3.64-1.31,7.5-.49,11.21.25,1.12.64,2.06,1.1,3.09,1.36,3.03,2.62,6.1,3.86,9.18.71,1.75,1.38,3.53,2.21,5.23,1.36,2.78,2.8,5.77,4.88,8.1,1.97,2.21,4.73,2.97,7.2,4.42,1.37.8,2.57,1.76,3.8,2.75,1.22.98,2.63,1.79,4.04,2.47,3.53,1.71,7.54,2,11.21.52.65-.26,1.27-.55,1.88-.9,1.26-.71.31-2.44-.96-1.72-2.97,1.68-6.47,2.03-9.68.79-1.47-.57-2.93-1.36-4.22-2.26-1.04-.72-1.95-1.61-3-2.34-1.39-.96-2.84-1.77-4.38-2.45-2.53-1.13-2.99-1.28-3.23-1.87-.27-.66-.25-2.1,3.17-5.26-1.73-2.46-4.18-6.19-6.66-10.99-4.14-8-6.26-12.08-5.96-17.11.47-7.95,6.68-13.61,9.75-16.02-.92-.16-2.22-.33-3.79-.3-.85.01-1.5.03-1.57.09Z"/>
    <path class="cls-4" d="M64.16,112.58c-2.18-5.52-4.35-11.21-7.4-16.31-1.2-2-2.63-4.08-4.65-5.34s-4.64-1.39-6.74-.51c-1.17.49-1.91,1.33-2.76,2.2-1,1.02-1.95,2.07-2.82,3.2-1.44,1.87-2.71,3.86-3.64,6.03-2.37,5.48-2.65,11.96-.67,17.61.65,1.87,1.77,3.55,2.72,5.27.39.71.82,1.4,1.08,2.17.29.88.5,1.8.78,2.69.54,1.67,1.26,3.27,2.09,4.82.87,1.63,1.84,3.2,2.85,4.75s2.06,2.83,3.29,4.12c1.16,1.23,2.48,1.91,4.04,2.52s2.87,1.5,4.23,2.49c.67.49,1.38.94,2.08,1.4.79.53,1.62.98,2.41,1.49,1.38.89,2.81,1.63,4.37,2.14,2.64.86,5.51.86,8.13-.05,4.37-1.51,8.33-5.72,7.21-10.68-.33-1.45-.93-2.8-1.56-4.14-.58-1.23-1.17-2.45-1.87-3.61-1.18-1.95-2.76-3.57-4.13-5.38-2.83-3.72-5.02-7.91-6.97-12.15-.72-1.57-1.4-3.15-2.06-4.74-.42-1.01-2.26-.73-1.79.43,2.06,4.98,4.35,9.91,7.27,14.46.87,1.35,1.8,2.66,2.82,3.9,1.56,1.9,3.07,3.72,4.18,5.93,1.03,2.07,2.44,4.45,2.39,6.84-.04,1.96-1.05,3.83-2.43,5.17-1.94,1.88-4.75,2.92-7.43,2.92s-5.11-1.15-7.36-2.54c-1.4-.86-2.81-1.7-4.15-2.67-1.24-.9-2.47-1.85-3.89-2.44-.71-.3-1.44-.55-2.15-.87s-1.32-.81-1.89-1.38c-1.18-1.19-2.2-2.48-3.11-3.88-1.86-2.84-3.62-5.78-4.7-9.02-.52-1.57-.84-3.11-1.64-4.56-.57-1.03-1.1-2.08-1.7-3.09-2.4-4.08-2.94-9.14-2.2-13.77.82-5.1,3.49-9.69,7.03-13.4.77-.81,1.5-1.8,2.49-2.35.8-.45,1.56-.6,2.38-.6,1.07,0,2.18.21,3.07.8s1.56,1.38,2.19,2.19c1.58,2.05,2.78,4.38,3.88,6.71s2.13,4.75,3.13,7.15c.62,1.5,1.23,3,1.83,4.51.4,1.02,2.25.74,1.79-.43h0Z"/>
    <path class="cls-4" d="M48.84,96.97c-3.37,4.4-5.68,9.55-6.55,15.04-.06.4.64.6.7.17.85-5.37,3.1-10.43,6.4-14.74.26-.34-.31-.79-.55-.47h0Z"/>
    <path class="cls-4" d="M52.67,101.58c-3.62,4.31-5.87,9.61-6.25,15.24-.03.4.68.6.7.17.37-5.52,2.55-10.72,6.1-14.95.28-.33-.29-.78-.55-.47h0Z"/>
    <path class="cls-4" d="M77.54,155.83c4-1.83,8.04-4.97,9.29-9.38.53-1.9.57-4.12-.58-5.8-.99-1.45-2.62-2.26-4.3-2.62-2.63-.57-5.4-.16-7.96.56-.55.15-.45,1.04.17.87,3.32-.94,8.21-1.6,10.88,1.23s.64,7.5-1.59,9.97c-1.68,1.85-3.79,3.27-6.05,4.31-.51.23-.41,1.14.17.87h0Z"/>
    <path class="cls-4" d="M43.01,98.24c4.42,3.6,7.98,8.17,10.23,13.42.16.37.85.27.66-.16-2.29-5.36-5.92-10.04-10.44-13.71-.34-.28-.82.15-.45.45h0Z"/>
    <path class="cls-4" d="M41.39,103.35c3.88,3.64,6.9,8.12,8.73,13.12.14.38.82.28.66-.16-1.86-5.12-4.97-9.69-8.94-13.42-.32-.3-.8.13-.45.45h0Z"/>
    <path class="cls-5" d="M95.47,173.71c-.58.41-1.84,1.17-3.7,1.44-.28.04-2.88.38-5.24-.77-.4-.19-.92-.56-1.98-1.29-.8-.55-1.56-1.12-2.45-1.82-2.22-1.74-3.13-2.79-4.64-3.67-.97-.56-.9-.32-2.42-1.07-1.93-.96-3.08-1.54-3.83-2.63-.2-.29-.88-1.33-.76-2.49.2-1.97,2.65-3.78,6.09-4.45-.04-.38-.36-3.89,2.83-6.03,2.23-1.5,4.9-1.48,5.85-1.48,2.41.02,4.33.8,5.29,1.19.98.4,2.05.83,2.85,1.54,2.06,1.84.39,3.84,1.21,6.36,1.57,4.78,9.92,4.9,10.96,9.58.12.52.36,1.73-.52,2.64-1.12,1.16-3.29,1.05-3.67,1.03-.49,1.37-1.83,2.35-3.36,2.48-1.24.11-2.19-.38-2.52-.57Z"/>
    <path class="cls-3" d="M76.41,157.71s-.3.1-.29.1c.04-.01.26-.07.01,0-.25.07-.51.13-.77.19-.32.07-.63.12-.94.15-1.06.12-1.53-.04-1.93.04-1.34.26-2.28,3.18-1.28,5.72.09.23.42,1.03,1.28,2,1.87,2.14,3.63,2.06,7.57,4.59,1.18.76,1.71,1.35,3.37,2.36,1.51.92,2.37,1.28,3.11,1.52.26.08,1.38.44,2.99.61.87.09,3.87.39,4.27-.39.23-.46-.52-1.11-.77-1.33-1.46-1.26-3.45-1.39-4.85-1.62-1.34-.23-4.66-2.46-11.24-6.91-.41-.28-1.27-.88-1.22-1.63,0-.12.05-.5.64-1.03.92-.84,1.96-.97,2.65-1.25,1.38-.57,1.36-1.73,2.93-8.27.29-1.23.51-2.1.09-2.29-.52-.23-1.88.62-2.74,1.62-1.73,2.02-2.25,5.61-2.88,5.82Z"/>
    <path class="cls-4" d="M75.97,156.44c-2.72.27-6.1,1.72-6.41,4.8-.18,1.72.79,3.34,1.86,4.6,1.14,1.34,2.63,2.18,4.11,3.1,2.71,1.69,5.33,3.5,8.16,4.99,1.54.81,3.14,1.57,4.86,1.86,1.6.28,3.48.46,5.02-.15,1.88-.74,2.82-2.65,2.26-4.59-.42-1.43-1.67-2.5-3.04-2.99-.49-.17-.99-.01-1.27.44-.22.35-.23,1.05.25,1.22,1.01.36,1.88,1,2.29,2.01-.13-.32.04.2.06.3.05.26.07.52.03.78-.11.69-.63,1.04-1.25,1.21-1.27.36-2.79.16-4.07-.1-1.42-.29-2.73-.93-4.01-1.6-2.25-1.18-4.33-2.55-6.47-3.91-2.46-1.56-5.38-2.88-6.64-5.68-.71-1.58-.09-2.92,1.4-3.69.85-.44,1.81-.68,2.73-.78,1.08-.11,1.38-1.95.14-1.83h0Z"/>
    <path class="cls-4" d="M94.26,174.47c2.68,1.44,6.8.82,7.52-2.58.46-2.15-.67-4.11-2.48-5.23-.92-.56-2.01,1.05-1.02,1.66.47.29.93.7,1.27,1.18.45.65.56,1.35.5,1.95-.21,2.35-3.2,2.19-4.76,1.35-.95-.51-2.04,1.11-1.02,1.66h0Z"/>
    <path class="cls-4" d="M101.05,172.69c2.17.42,4.56-.3,5.23-2.61.48-1.65.04-3.72-1.36-4.81-.65-.5-1.4-.84-2.13-1.21-1.09-.56-2.12-1.2-3.14-1.86-2-1.29-4.18-2.86-4.61-5.38-.14-.86,0-1.72-.03-2.58-.04-.98-.36-1.83-1.01-2.57-1.03-1.17-2.6-1.81-4.07-2.22-3.21-.9-7.22-.99-10.32.38-1.69.75-2.72,1.91-3.03,3.75-.41,2.43-1.4,4.55-3.02,6.42-.81.93.38,2.14,1.2,1.2,1.41-1.63,2.63-3.52,3.23-5.61.33-1.14.19-2.67,1.09-3.47.79-.7,2.24-1.08,3.38-1.25,1.6-.24,3.23-.24,4.83-.02,1.47.21,2.96.57,4.25,1.35.5.3.98.68,1.3,1.18.41.64.36,1.36.33,2.09-.1,2.15.5,4.07,1.97,5.68s3.49,2.82,5.36,3.9c.86.5,1.78.91,2.64,1.4.58.33,1,.73,1.25,1.36.29.73.37,1.7-.04,2.41-.54.93-1.8.86-2.72.68-1.05-.21-1.78,1.57-.6,1.81h0Z"/>
    <path class="cls-5" d="M129.58,171.31c-.6.39-1.9,1.12-3.77,1.33-.28.03-2.89.29-5.2-.93-.39-.21-.89-.59-1.91-1.35-.77-.57-1.51-1.17-2.37-1.89-2.14-1.8-3-2.88-4.47-3.81-.94-.59-.88-.34-2.37-1.15-1.89-1.02-3-1.64-3.71-2.74-.19-.3-.82-1.35-.64-2.51.29-1.96,2.83-3.7,6.29-4.26-.02-.38-.18-3.89,3.11-5.94,2.3-1.43,4.97-1.34,5.92-1.3,2.4.09,4.29.93,5.23,1.35.96.42,2.01.89,2.78,1.63,1.98,1.9.21,3.85.92,6.39,1.35,4.82,9.69,5.19,10.51,9.9.09.52.28,1.73-.64,2.62-1.17,1.12-3.33.96-3.72.92-.56,1.36-1.93,2.3-3.47,2.38-1.24.07-2.17-.45-2.49-.64Z"/>
    <path class="cls-3" d="M111.27,154.75s-.3.09-.3.09c.05-.01.26-.06.01,0-.25.06-.51.12-.77.16-.33.06-.63.1-.94.12-1.06.09-1.52-.08-1.93-.01-1.35.22-2.42,3.11-1.54,5.68.08.23.37,1.04,1.18,2.04,1.78,2.2,3.53,2.17,7.35,4.82,1.14.79,1.65,1.4,3.26,2.46,1.47.96,2.31,1.35,3.04,1.61.25.09,1.36.48,2.96.7.86.11,3.85.51,4.28-.26.25-.45-.47-1.13-.71-1.35-1.4-1.3-3.38-1.49-4.77-1.77-1.33-.27-4.54-2.59-10.91-7.24-.39-.29-1.23-.91-1.15-1.66.01-.12.08-.49.69-1.01.96-.81,2-.91,2.71-1.17,1.41-.52,1.43-1.69,3.31-8.17.35-1.22.61-2.08.2-2.28-.51-.25-1.91.56-2.82,1.54-1.82,1.97-2.51,5.54-3.14,5.73Z"/>
    <path class="cls-4" d="M110.84,153.46c-2.75.19-6.14,1.56-6.59,4.63-.24,1.69.64,3.3,1.64,4.6,1.09,1.41,2.56,2.3,4.02,3.28,2.66,1.79,5.22,3.69,8.01,5.28,1.47.84,3.01,1.6,4.68,1.95s3.53.56,5.11-.04c1.84-.7,2.82-2.6,2.33-4.51-.37-1.43-1.58-2.54-2.93-3.07-1-.39-2.09,1.24-1.02,1.66.88.35,1.8.98,2.12,1.9.39,1.13-.09,2.14-1.27,2.42-1.28.3-2.8.06-4.06-.24-1.4-.33-2.69-1.02-3.93-1.73-2.17-1.24-4.18-2.66-6.24-4.07-2.38-1.63-5.3-3.05-6.41-5.91s2.08-4.14,4.4-4.31c1.09-.08,1.39-1.92.14-1.83h0Z"/>
    <path class="cls-4" d="M128.38,172.05c2.61,1.52,6.74.98,7.59-2.34.55-2.14-.48-4.15-2.27-5.34-.9-.59-1.99,1.02-1.02,1.66.35.23.94.78,1.24,1.31.34.59.46,1.24.35,1.91-.38,2.29-3.32,2.04-4.86,1.14-.93-.54-2.02,1.08-1.02,1.66h0Z"/>
    <path class="cls-4" d="M135.25,170.47c2.21.5,4.62-.24,5.34-2.57.5-1.6.15-3.66-1.2-4.76-.63-.52-1.37-.87-2.07-1.27-1.09-.61-2.12-1.3-3.14-2.01-1.91-1.33-3.93-2.96-4.24-5.42-.11-.89.11-1.78.09-2.67-.01-.94-.3-1.76-.89-2.5-.97-1.22-2.5-1.89-3.94-2.35-3.19-1.02-7.25-1.23-10.41.06-1.62.67-2.75,1.75-3.13,3.5-.24,1.14-.52,2.23-1.07,3.27-.62,1.18-1.4,2.25-2.31,3.21-.85.9.34,2.11,1.2,1.2,1.49-1.59,2.77-3.45,3.46-5.52.24-.72.35-1.46.53-2.2.13-.53.33-.91.72-1.22.92-.72,2.35-1.02,3.54-1.15,1.61-.18,3.24-.12,4.83.16,1.44.25,2.92.67,4.15,1.5.5.34.99.78,1.25,1.33.31.65.2,1.35.13,2.04-.19,2.11.37,4.02,1.75,5.65s3.37,2.92,5.19,4.06c.84.53,1.74.96,2.58,1.48.56.34.96.78,1.18,1.41.25.75.27,1.73-.19,2.4-.61.89-1.85.78-2.77.57-1.05-.24-1.77,1.54-.6,1.81h0Z"/>
    <path class="cls-6" d="M152.88,121.61s-.47-1.51-.76-2.86c-.67-3.22.22-4.6-.19-8.02-.18-1.55-.53-2.65-.9-3.8-.38-1.19-2.49-7.84-8.96-12.62-4.24-3.13-8.43-4.04-15.35-5.54-7.65-1.66-13.55-1.85-21.02-2.06-6.83-.19-14.59-.37-24.63,1.11-6,.89-10.94,2.09-14.52,3.09-5.46,2.33-8.04,3.94-7.74,4.81.15.42.96.67,2.45.76-1.2,1.02-2.69,2.5-4.03,4.48-1.36,2.01-2.1,3.86-2.52,5.25-.43.83-1.01,2.04-1.57,3.52-1.02,2.69-1.36,4.6-1.96,8-1.14,6.4-1.66,9.6-1.8,11.48-.15,2.12-.32,4.44-.11,7.46.47,6.48,2.51,13.23,3.75,13.14.25-.02.58-.33.88-1.63.41.73.96,1.64,1.69,2.64,0,0,.3.42.78,1.02,0,0,.94,1.18,1.86,2.13.14.15.39.32.74.5,1.81.97,6.3,2.45,12.54,3.82,1.84.4,3.83.8,5.95,1.17,6.67-.13,11.9-.21,14.9-.26,3.61-.06,6.92-.11,10.04-.18,5.01-.11,9.57-.27,14.21-.61,3.19-.23,6.41-.54,9.85-.96,8.52-1.05,10.38-1.85,11.84-2.72.17-.1.34-.21.51-.31,4.78-3.09,7.27-8.32,9.98-14,1.01-2.13,1.72-3.91,2.16-5.1.73,1.07,1.27,1.57,1.62,1.48.68-.16.64-2.54-.13-7.13.97.51,2.23,1.04,2.85.65.99-.61-.3-3.1-1.56-6.36-.29-.76-.59-1.55-.85-2.38Z"/>
    <path class="cls-9" d="M114.57,158.92c3.83-.31,7.64-.71,11.46-1.12,2.38-.25,4.85-.33,7.17-.92,2.2-.56,4.33-1.62,6.22-2.86,2.97-1.94,5.18-4.44,6.77-7.59,1.99-3.93,3.72-8.01,5.07-12.2l-1.57.75c.71.43,1.42.86,2.13,1.29.76.46,1.78-.49,1.6-1.28-.52-2.37-1.03-4.73-1.55-7.1l-1.36,1.36c1.45.38,2.91.76,4.36,1.13.77.2,1.76-.87,1.28-1.6-1.52-2.34-2.75-4.89-3.48-7.59-.4-1.49-.67-3.02-.75-4.56-.07-1.3-.04-2.6-.13-3.9-.38-5.5-2.63-10.99-6.42-15-3.44-3.63-7.94-6.02-12.63-7.61-4.19-1.43-8.49-1.92-12.89-2.27-6.86-.54-13.72-.9-20.6-.9-1.25,0-1.57,2.08-.16,2.08,5.97,0,11.94.26,17.89.71,4.66.35,9.4.61,13.88,2.04,4.22,1.34,8.33,3.29,11.64,6.29,4.07,3.68,6.44,8.77,7.12,14.18.17,1.38.15,2.77.2,4.16.06,1.68.26,3.33.67,4.97.76,3.05,2.06,5.94,3.78,8.57l1.28-1.6c-1.45-.38-2.91-.76-4.36-1.13-.74-.19-1.52.65-1.36,1.36.52,2.37,1.03,4.73,1.55,7.1l1.6-1.28c-.71-.43-1.42-.86-2.13-1.29-.59-.36-1.38.18-1.57.75-1.15,3.57-2.58,7.02-4.2,10.41-.69,1.44-1.4,2.88-2.33,4.18s-2.14,2.37-3.41,3.29c-1.86,1.35-3.96,2.45-6.17,3.08-.8.23-1.21.29-2.11.4-1.32.16-2.65.28-3.97.41-4.12.42-8.24.88-12.37,1.21-1.23.1-1.57,2.19-.16,2.08h0Z"/>
    <path class="cls-10" d="M52.5,116.98c-3.45,4.09-3,17.77-3,17.77.34,10.15,1.25,13,3.37,14.06.65.32,1.27.41,1.69.44,3.07,3.55,6.24,5.49,8.24,6.51,3.86,1.97,7.22,2.48,11.2,3.08,3.72.56,6.66.62,6.7.36.05-.34-5.06-.39-10.18-3.68-2.16-1.39-3.66-2.93-4.94-4.24-2.12-2.17-3.75-3.84-4.79-6.25-1.27-2.94-1.16-5.47-1-8.75.12-2.44.57-6.15,2.19-10.49-4.99-4.24-6.44-6.75-6.73-8.3-.06-.32-.23-1.56-.9-1.69-.71-.14-1.55.81-1.85,1.17Z"/>
    <path class="cls-4" d="M51.61,114.15c-3.67,10.76-3.93,22.57-.6,33.45.34,1.1.66,2.9,2.03,3.13.69.12,1.36-.19,1.73-.79.28-.45.26-.98.46-1.45l-1.7.35c.07.12.14.25.2.38.09.21.09.16.02-.15l1.21-.97s.58.39.34.15c-.1-.1-.02-.17-.04.01l-1.74.58c.96,1.57,1.92,3.15,3.12,4.55.59.69,1.26,1.41,2.02,1.92.55.37,1.26.57,1.87.8,3.71,1.4,7.53,2.53,11.41,3.31,7.82,1.57,15.8,1.6,23.74,1.14,5.94-.34,11.87-.88,17.81-1.29,3.79-.26,7.59-.48,11.38-.66,1.02-.05,2.07-.02,3.08-.18,1.12-.17,2.24-.36,3.37-.53,2-.3,4.06-.6,5.96-1.33,4.11-1.58,6.95-5.02,9.18-8.67,2.36-3.87,4.07-8.08,5.8-12.26l-1.7.35.24-.7.67-.32h-.04c.21.08.42.15.63.22l.21.45-1.7.35c.73,1.07,2.38,2.93,3.48,1.1.61-1.01.42-2.42.3-3.53-.15-1.35-.34-2.69-.56-4.02l-1.41,1.13c1.24.64,3.37,1.52,4.34-.02.6-.95.21-2.25-.15-3.22-.38-1.03-.85-2.02-1.25-3.04-1.73-4.4-2.72-8.98-2.49-13.72.06-1.25-1.78-.96-1.83.14-.21,4.25.48,8.4,1.85,12.42.61,1.77,1.44,3.46,2.05,5.23.08.23.15.46.2.7.04.2,0,.55.08.72-.1-.24.48-.14-.1-.23s-1.15-.37-1.68-.64c-.7-.36-1.54.4-1.41,1.13.28,1.67.64,3.43.64,5.13,0,.2,0,.41-.03.61-.04.35-.31.57.24.31.46-.21.37-.11.1-.35s-.5-.56-.71-.86c-.46-.67-1.47-.41-1.7.35-.21.7-.05,1.67.92,1.46.82-.17,1.13-1.11.78-1.81-.41-.81-1.44-.28-1.7.35-1.49,3.6-2.95,7.21-4.88,10.6-1.83,3.21-3.99,6.4-7.28,8.25-1.66.93-3.53,1.37-5.39,1.68-2,.34-4.07.77-6.09.86-3.82.17-7.63.37-11.44.62-5.52.36-11.04.85-16.56,1.22-7.63.51-15.31.8-22.91-.33-4.39-.65-8.73-1.73-12.92-3.21-.78-.28-1.55-.56-2.32-.87-.37-.15-.74-.27-1.06-.51-.37-.28-.71-.62-1.03-.95-1.4-1.44-2.43-3.16-3.47-4.86-.5-.81-1.68-.26-1.74.58-.04.53.32,1.43.93,1.5s1.17-.36,1.21-.97c.03-.4-.21-.78-.4-1.11-.43-.8-1.42-.29-1.7.35-.07.16-.34.86-.26.99,0,0,.4-.22.4-.23,0,.04-.13-.12-.12-.12-.09-.24-.26-.41-.34-.67-.34-1.03-.65-2.07-.93-3.11-.66-2.48-1.13-5.01-1.43-7.56-.63-5.48-.38-11.09.74-16.49.46-2.2,1.05-4.37,1.78-6.49.41-1.21-1.37-1.4-1.74-.33h0Z"/>
    <path class="cls-4" d="M153.11,112.77c-.93-7.59-4.94-14.54-11.42-18.7-5.63-3.61-12.52-4.86-19.02-5.87-4.76-.74-9.55-1.3-14.33-1.88-1.22-.15-2.44-.26-3.66-.34-7.33-.49-14.72-.32-22.04.24-2.73.21-5.46.47-8.18.8-2.01.24-4.01.5-5.98.97s-3.82,1.12-5.46,2.2c-.8.53-1.53,1.16-2.13,1.91-.51.63-1.42,1.7-.81,2.49s1.74.8,2.65.91l-.07-1.26c-.28.22-.55.43-.84.63-.06.04-.16.09-.21.14-.24.28-.37-.35.41.07l.3.58c.01.25-.27.37-.05.26.08-.04.17-.15.22-.18.19-.14.37-.23.41-.23l-.24-1.27c-.87.68-1.73,1.36-2.59,2.06-.58.47-1.24.91-1.72,1.48-.76.9-1.25,2.06-1.74,3.12-1.94,4.19-3.49,8.57-4.98,12.93-.31.92,1.04,1.06,1.31.25,1.44-4.22,2.94-8.45,4.79-12.51.45-.99.91-2.05,1.57-2.93,0,0,.05-.08.17-.19.43-.39.9-.75,1.35-1.12.8-.65,1.62-1.29,2.43-1.93.5-.39.56-1.26-.24-1.27-.67,0-1.61.68-1.94,1.25-.26.46-.05,1.08.55,1.03s1.21-.68,1.63-1.01c.37-.29.65-1.17-.07-1.26-.59-.07-1.7,0-2.03-.6l.03.51c1.53-3.38,5.95-4.5,9.26-5.09,4.57-.82,9.27-1.17,13.89-1.48,6.66-.44,13.37-.57,20.03-.12.91.06,1.83.13,2.74.24,4.61.53,9.23,1.1,13.82,1.78,6.3.93,12.92,2,18.57,5.11,6.2,3.42,10.49,9.51,11.89,16.43.15.76.28,1.53.37,2.31.11.9,1.46.35,1.37-.45h0Z"/>
    <path class="cls-6" d="M153.39,74.08c-1.22-3.98-2.8-8.37-4.88-13.01-1.66-3.73-3.41-7.1-5.13-10.11l.72-5.34c.03-1.01.01-4.97-2.93-8.18-.84-.91-3.53-3.74-7.43-3.44-2.12.16-4.15,1.33-5.35,3.05-1.7-.23-3.43-.45-5.2-.66-2.2-.26-4.37-.48-6.49-.67.17-.08.34-.16.5-.25.65-.33,1.35-.78,1.5-1.5.13-.66-.28-1.34-.84-1.71-.56-.37-1.25-.49-1.92-.56-3.26-.38-6.56-.01-9.82.36,1.37-1.01,2.73-2.02,4.1-3.03.26-.19.54-.42.61-.74.16-.77-.94-1.11-1.72-1.07-5.26.28-10.35,2.79-13.81,6.76-.13-1.16-.58-3.65-2.51-5.73-3.28-3.55-9.03-3.94-9.62-2.74-.64,1.3,4.59,4.93,4.14,5.52-.3.4-2.55-1.49-6.11-1.85-2.38-.24-5.28.21-5.43,1.06-.13.72,1.66,2.08,10.54,4.93-3.14.65-6.95,1.71-11.1,3.48-3.95,1.69-7.22,3.59-9.78,5.32l-.65.41c-.97-.34-2.04-.57-3.21-.61-.76-.03-4.49-.16-7.41,2.52-4.18,3.84-2.98,10.03-2.78,11.11.25,1.3.67,2.46,1.19,3.49h0c-2.2,3.56-4.87,8.81-6.53,15.56-2.3,9.38-1.59,17.36-.78,22.14,1.57-1.04,3.13-2.08,4.7-3.12-.88,2.26-1.86,5.56-2.07,9.64-.29,5.6,1.02,10.07,2.01,12.67,1.06-1.32,2.12-2.65,3.18-3.97.38,1.61,1.18,4.11,3.01,6.69.47.67,1.83,2.49,4.36,4.42,3.72,2.83,7.49,4.01,9.83,4.61,22.07,5.66,50.88,1.59,50.88,1.59,6.12-.87,13.42-2.22,20.61-7.36,1.75-1.25,3.09-2.44,3.95-3.26,1.8-1.36,7.73-6.17,9.9-14.89,1.83-7.38-.07-13.42-.91-15.69,1.03,1.25,1.75,1.78,2.16,1.61,1.13-.49-.02-6.29-3.46-17.4Z"/>
    <path class="cls-10" d="M55.63,54.04c.03-.54.1-1.08.2-1.61-.1.53.04-.12.06-.22.05-.21.11-.41.18-.61.07-.21.15-.43.23-.64.04-.11.09-.22.14-.32-.1.21-.09.2.01,0,.12-.21.24-.43.37-.64.05-.07.52-.67.23-.34.13-.15.26-.3.4-.44.07-.07.71-.58.31-.29.34-.24.7-.46,1.08-.65-.47.23.17-.06.26-.09.2-.07.41-.14.62-.2.08-.02.75-.15.32-.08.22-.03.45-.07.67-.09.46-.04.93-.06,1.39-.04-.35-.02.35.04.41.05.18.02.36.05.54.08.49.09.98.21,1.46.36.21.07.24.08.1.03.12.04.24.09.37.14.25.1.49.2.73.32.49.23.97.5,1.43.79.88.56,1.68,1.25,2.47,2.08,1.61,1.68,4.53-1.23,2.92-2.92-2.79-2.91-6.6-4.82-10.67-4.78s-7.44,2.35-9.05,6.01c-.61,1.37-.92,2.9-1,4.39-.06,1.02.74,1.85,1.77,1.77s2.01-1.01,2.06-2.06h0Z"/>
    <path class="cls-5" d="M68.33,59.66c-1.04.6-2.11,1.25-3.19,1.95-2.55,1.65-4.81,3.34-6.82,5-.38-.25-.78-.56-1.19-.92-1.1-.98-1.83-2.02-2.3-2.86-.57-1.1-1.48-3.26-1.15-5.93.15-1.23.35-3.02,1.82-4.19,1.31-1.05,3.1-1.07,3.65-1.05,2.33.07,3.92,1.51,5.32,2.75,1.02.9,2.63,2.57,3.86,5.25Z"/>
    <path class="cls-9" d="M115.82,36.83c4.35.85,8.7,1.71,13.06,2.56.35-.59,1.43-2.24,3.51-2.95,2.47-.84,5.35-.02,7.36,2.08.42-.07.84-.15,1.26-.22.52-.57.73-1.08.64-1.52-.42-1.94-5.57-3.87-9.5-2.16-1.54.67-2.52,1.74-3.06,2.45-3.52-.3-7.04-.6-10.56-.9-.9.22-1.8.44-2.71.66Z"/>
    <path class="cls-10" d="M69.86,46.28c4.15-3.44,7.95-5.28,10.8-6.33,4.58-1.7,9.52-2.42,9.58-4.16,0-.11,0-.47-.79-1.27-3.41-3.48-9.25-2.69-10.04-5.19-.08-.27-.16-.7-.5-.86-.67-.31-2.04.57-2.32,1.73-.12.47-.06.9.12,1.26.31.59.97.8,1.24.89,1.22.4,4.04,1.42,7.84,2.75-3.25,1.49-5.98,2.49-7.88,3.12,0,0-3.94,1.62-10.32,4.83-2.11,1.06-1.42,2.4-1.36,2.56.31.73,1.76.98,3.63.68Z"/>
    <path class="cls-5" d="M133.59,50.3c-.21-2.91.46-5.08.93-6.25.71-1.79,1.49-3.74,3.5-4.69,1.52-.71,3.66-.81,4.91.07,2.4,1.68,2.31,7.4-1.04,13.98-2.77-1.04-5.54-2.07-8.31-3.11Z"/>
    <path class="cls-12" d="M137.77,80.36c-.28-.6-.62-1.18-1.02-1.71-1.79-2.36-5.28-3.68-7.82-2.16l-.38.05c.14.16.26.33.37.52.89,1.59-.1,3.23-.54,3.95-.22.36-2.26,3.58-6.87,4.14-.11.01-.21.02-.31.03-3.68.34-6.22-1.32-6.82-1.72-.8-.53-2.9-1.9-2.87-3.84l-1.18-.04c-5.99-1.74-10.39-1.19-12.66-.71-2.2.47-3.38,1.1-4.3,2.03,0,0,0,0-.01.02-1.58,1.62-1.9,4.07-1.87,6.32,0,.79.05,1.58.13,2.36.18,1.88.54,3.74,1.09,5.54.41,1.35.94,2.72,1.92,3.73.1.11.21.21.32.3,1.03.9,2.35,1.37,3.74,1.6,0,0,0,0,0,0l-.06.37c-.15,1.27-.55,6.08,2.64,9.85,2.47,2.92,5.7,3.59,9.46,4.37,6.63,1.37,11.83-.26,13.73-.89,2.27-.74,4.16-1.39,6.03-3.14,2.74-2.56,3.58-5.74,3.97-7.2.65-2.48.46-4.13.4-4.58-.16-1.22-.52-2.2-.81-2.86.59-.03,1.89-.18,3.03-1.13.85-.71,1.22-1.51,1.51-2.23.77-1.89.79-4.18.63-6.27v-.04c-.17-2.28-.49-4.64-1.45-6.69Z"/>
    <path class="cls-10" d="M101.82,32.85c1.62-1.31,4.26-2.79,8.69-3.31.06-.07.61-.69.43-1.46-.03-.11-.13-.44-.41-.72-.48-.46-1.23-.53-1.91-.3-2.57.85-14.54,6.39-13.63,8.16.16.31.65.35,1.17.39,2.49.19,4.4-1.75,5.67-2.77Z"/>
    <path class="cls-10" d="M69.42,125.33c-.55-.19-1.57-.58-2.85-1.22-2.71-1.36-5.31-3.51-7.13-6.24-1.77-2.64-2.78-5.55-3.21-8.74-.21-1.56-2.46-1.38-3.19-.39-.94,1.29-1.88,2.57-2.83,3.86,1.08.29,2.17.58,3.25.87-.92-7.12-.85-14.37.32-21.46.12-.73,0-1.49-.7-1.9-.64-.38-1.48-.3-2.08.16-1.65,1.26-3.31,2.52-4.96,3.78.95.41,1.9.83,2.84,1.24.04-8.57,1.56-17.07,4.48-25.13.22-.6.26-.71.48-1.27.19-.49.39-.98.59-1.47.39-.94.8-1.86,1.22-2.79.41-.89.29-2.09-.72-2.52-.96-.41-2.17.21-2.59,1.12-3.77,8.19-6.11,16.95-6.94,25.93-.2,2.23-.31,4.46-.32,6.7,0,1.52,1.72,2.09,2.84,1.24,1.65-1.26,3.31-2.52,4.96-3.78-.93-.58-1.85-1.16-2.78-1.74-1.22,7.43-1.41,14.99-.45,22.46.1.75.39,1.39,1.19,1.59.71.18,1.61-.11,2.06-.72.94-1.29,1.88-2.57,2.83-3.86-1.06-.13-2.12-.26-3.19-.39.92,6.87,4.91,12.9,10.9,16.4,1.27.74,5.04,2.85,13.08,3.65,6.61.65,12.98.11,13-.45.03-.76-11.57-1.98-20.1-4.93Z"/>
    <path class="cls-15" d="M129.07,76.36c.89,1.59-.1,3.23-.54,3.95-.22.36-2.26,3.58-6.87,4.14-.11.01-.21.02-.31.03-3.68.34-6.22-1.32-6.82-1.72-.8-.53-2.9-1.9-2.87-3.84,0-.14.02-.28.04-.43.31-1.8,2.33-2.93,3.23-3.44,3.37-1.89,7.26-1.5,8.36-1.35,1.26.17,4.06.57,5.41,2.13.14.16.26.33.37.52Z"/>
    <path class="cls-4" d="M73.32,49.51c-1.54-2.44-3.74-4.48-6.39-5.65-1.29-.57-2.65-.93-4.06-1.01-1.48-.09-2.76.26-4.19.53-2.64.49-5.06,2.75-6.25,5.1-1.47,2.91-1.78,6.4-1.02,9.56.83,3.48,3.01,6.92,5.99,8.95.89.6,1.98-1.01,1.02-1.66-2.23-1.52-4.01-4.17-4.87-6.71-.95-2.81-.94-5.88.11-8.66.41-1.07,1.04-2.05,1.86-2.86.75-.74,1.8-1.57,2.83-1.85.49-.14,1.03-.22,1.53-.35.63-.16,1.27-.23,1.92-.24,1.2-.02,2.43.21,3.54.63,2.61.99,4.84,2.88,6.33,5.24.61.98,2.24-.11,1.66-1.02h0Z"/>
    <path class="cls-10" d="M91.6,80.53c-3.47,2.85-3.84,7.64-3.93,8.88-.32,4.15,1.13,7.72,2.63,9.71,1.4,1.86,3.26,3.27,5.42,4.13-.3-.68-.6-1.35-.9-2.03-1.12,6.32,1.27,13.78,7.2,16.94,2.79,1.49,6.32,1.6,9.39,1.93,4.13.44,7.71.51,12.07-.92,2.56-.84,6.36-2.1,8.38-5.62,1.33-2.33,1.65-5.26,1.24-5.42-.31-.12-.89,1.34-1.86,2.64-4.78,6.37-16.47,5.67-17.48,5.59-1.67-.14-3.35-.34-5.01-.56-.72-.09-1.43-.2-2.14-.34-.17-.03-.34-.07-.51-.11-.04,0-.58-.15-.19-.04-.3-.08-.6-.18-.9-.29-.52-.19-1.03-.43-1.5-.72.38.23-.07-.05-.12-.09-.13-.09-.25-.18-.38-.28-.42-.32-.81-.66-1.18-1.03-.83-.83-1.61-2.01-2.19-3.23-.05-.11-.1-.22-.16-.34-.08-.19-.08-.17.02.05-.03-.08-.07-.16-.1-.24-.08-.21-.16-.41-.23-.62-.32-.9-.58-1.83-.72-2.77-.12-.79-.15-1.69-.11-2.53.01-.34.04-.69.08-1.03.05-.51-.07.38.01-.08.03-.16.05-.33.08-.49.14-.79-.08-1.7-.9-2.03-1.91-.76-3.46-1.96-4.52-3.68-.58-.94-.84-1.57-1.14-2.65-.13-.48-.24-.96-.32-1.45-.02-.12-.04-.24-.05-.36.02.19.02.17,0-.05-.02-.2-.04-.4-.05-.6-.06-.78-.06-1.57-.02-2.36.02-.32.04-.64.08-.97.02-.19.16-.58,0,0,0,0,.03-.24.04-.28.11-.69.25-2.12.35-2.8.06-.41.25-1.5.75-2.58.89-1.9,2.26-2.72,2.12-2.92-.15-.21-1.81.42-3.22,1.58Z"/>
    <path class="cls-9" d="M141.94,54.07c5.4,8.67,9.2,18.27,11.19,28.3.47,2.39.85,4.8,1.11,7.22.68-.5,1.35-1,2.03-1.51-.61-.32-1.39-.67-2.34-.95-.93-.27-1.76-.4-2.44-.46.62,1.78,1.37,4.44,1.65,7.73.2,2.34.82,11.16-4.6,19.43-3.85,5.87-8.87,8.62-14.04,11.46-7.46,4.11-13.65,5.21-13.57,5.49.08.28,6.07-.67,12.61-3.58,3.44-1.53,6.82-3.35,9.81-5.65,3.13-2.41,5.76-5.34,7.98-8.6,2.09-3.07,3.75-6.44,4.57-10.08,1.13-5,.65-10.27-1.32-15l-1.99,1.85c.78.32,1.56.63,2.34.95.9.37,2.14-.5,2.03-1.51-1.13-10.47-4.1-20.67-8.85-30.08-1.16-2.31-2.43-4.56-3.8-6.75-.91-1.47-3.22.34-2.37,1.72Z"/>
    <path class="cls-4" d="M68.83,59.23c-.75-1.85-1.85-3.56-3.26-4.97s-2.94-2.69-4.84-3.2c-1.67-.45-3.61-.21-5.12.62-1.65.91-2.59,2.64-2.94,4.44-.48,2.49.11,5.06,1.2,7.31.5,1.04,2.13-.05,1.66-1.02-1-2.07-1.61-4.57-.92-6.83.56-1.84,1.98-2.8,3.89-2.89s3.54,1.02,4.94,2.28c1.65,1.49,2.89,3.23,3.73,5.29.43,1.06,2.07-.03,1.66-1.02h0Z"/>
    <path class="cls-4" d="M129.26,39.19c1.08-3.76,5.43-5.09,8.8-3.6,3.94,1.75,5.75,6.08,5.45,10.21-.19,2.6-1.14,5.08-2.44,7.32-.64,1.1.93,1.82,1.52.78,2.61-4.5,3.88-10.1,1.53-14.99-2.02-4.22-7.07-7.05-11.66-5.27-2.32.9-4.25,2.79-4.94,5.21-.35,1.23,1.42,1.43,1.74.33h0Z"/>
    <path class="cls-4" d="M66.74,44.75c6.26-4.2,13.28-7.15,20.66-8.7.9-.19.99-1.5.13-1.77-2.22-.71-4.44-1.45-6.59-2.35-.97-.4-2.25-.96-2.96-1.49.05.04-.18-.15-.25-.21-.04-.04-.08-.09-.12-.13-.13-.12,0,.15,0,0-.01-.25-.02.16-.02,0,0-.14-.03.25,0,.11.04-.17-.12.27-.12.31.02.11-.14.02.03,0,.34-.04.72-.25,1.08-.32.59-.11,1.19-.15,1.79-.16,1.25-.03,2.49.14,3.69.5.87.26,1.7.64,2.52,1.02.52.24,1.13.58,1.72.39.71-.23,1.04-1.04.71-1.7-.24-.48-.69-.88-1.06-1.26-.97-.97-2.23-1.9-2.9-3.11-.03-.05-.13-.26-.11-.22-.06-.1.08-.11-.02.03-.04.06-.08.16-.11.23-.1.2.07-.11-.05.06-.08.11-.02,0,.04-.01.1-.03-.15.06.03,0,.45-.16,1.11-.16,1.68-.11,2.08.19,4.2,1.04,5.78,2.42,1.78,1.55,2.74,3.71,3.01,6.03.14,1.19,1.93.46,1.81-.6-.27-2.26-1.16-4.45-2.72-6.13s-3.64-2.74-5.82-3.27c-1.38-.33-3.33-.63-4.61.18-1.51.95-.63,2.52.25,3.55.55.64,1.17,1.22,1.78,1.81.28.27.56.53.83.81.1.1.2.21.29.31.04.05.31.35.18.21,0,0,.06.11.06.11l.02.05c-.14-.28.01-.49.45-.63l.5-.51s-.06,0-.09-.02c0,0-.19-.1-.04,0-.29-.18-.65-.29-.97-.44-1.03-.48-2.1-.89-3.21-1.16-1.33-.32-2.71-.42-4.07-.33-1.06.07-2.24.21-3.19.73-1.01.56-1.34,1.67-.56,2.53s1.97,1.33,2.97,1.77c2.51,1.11,5.13,1.96,7.74,2.8l.13-1.77c-7.53,1.58-14.72,4.62-21.11,8.91-.98.66-.28,2.24.78,1.52h0Z"/>
    <path class="cls-2" d="M125.35,75.56c-.63-.22-1.51-.44-2.13-.06-.58.36-.59,1.06-.22,1.57.66.92,2.69,1.74,3.51.56.9-1.31-1.28-2.46-2.35-2.17-.62.16-.94.79-.58,1.35.44.68,1.45.88,2.19.82.35-.03.67-.51.38-.81-.46-.45-1-.74-1.64-.85-.53-.1-.89.8-.3.9.5.09.88.29,1.24.65l.38-.81c-.31.02-.62,0-.92-.12-.16-.07-.3-.16-.44-.26-.15-.11-.15-.02.01,0,.3.04.57.1.83.27.23.15.64.52.22.66-.46.15-1.16-.22-1.49-.51-.16-.14-.46-.39-.27-.53.18-.13.89.1,1.06.16.5.18,1.05-.64.51-.83h0Z"/>
    <path class="cls-8" d="M99.6,77.4c-.07,0-.34-.04-.71-.04-.12,0-.24,0-.38.01-.38.03-.75.11-1.12.2-.59.15-1.15.42-1.68.73-1.08.64-1.92,1.61-2.58,2.66-.65,1.03-1.02,2.27-1.19,3.47-.19,1.29-.18,2.61-.09,3.91.08,1.08.2,2.17.39,3.24.21,1.14.48,2.28.94,3.34.51,1.15,1.17,2.18,2.09,3.05.81.77,1.81,1.35,2.86,1.7.65.22,1.3.4,1.98.5.69.1,1.4.14,2.1.16.93.02,1.95.02,3.5-.17,2.13-.25,9.64-1.78,9.57-2.12-.07-.37-8.86,1.41-13.61-.4-.34-.13-2.54-.99-2.54-1.01,0,0,.42.14.4.13-.57-.19-1.11-.44-1.61-.76.12.08.23.15.35.23-.44-.29-.84-.63-1.2-1.02.09.1.18.2.28.31-.42-.46-.77-.98-1.06-1.53.06.12.13.25.19.37-.47-.92-.78-1.9-1-2.91.03.14.06.28.09.42-.21-.96-.33-1.93-.43-2.91-.11-1.1-.18-2.21-.12-3.31,0,.14-.02.29-.02.43.05-.89.19-1.78.47-2.63-.04.13-.09.26-.13.4.19-.57.44-1.1.76-1.61-.08.12-.15.23-.23.35.3-.46.66-.88,1.07-1.25-.1.09-.2.18-.31.28.36-.32.75-.6,1.18-.83.02-.01-.38.18-.37.19,0,.01.6-.27.74-.33,1.92-.89,6.98-1.9,6.94-2.5-.03-.44-2.9-.63-3.21-.65-.65-.04-1.75-.06-2.31-.13Z"/>
    <path class="cls-8" d="M125.22,95.93c.39.3,1.63,1.24,3.37,1.56,4.74.88,9.44-3.46,9.22-3.89-.08-.16-.83.33-2.71.65-2.08.36-5.1.89-7.06-.61-1.67-1.29-2.06-3.67-2.42-5.9-.41-2.52-.02-3.94-.86-4.36-.82-.42-2.31.33-3.03,1.41-1.22,1.8-.37,4.25.35,6.27.52,1.48,1.2,3.38,3.13,4.87Z"/>
    <path class="cls-7" d="M109.54,100.12c-.29.61-1.24,2.83-.53,5.57.1.38.82,2.97,3.31,4.68,2.81,1.93,5.95,1.41,7.84,1.11,2.11-.34,6.97-1.14,9.27-5.45,2.15-4.03.53-8.26.24-9-6.71,1.03-13.42,2.06-20.13,3.09"/>
    <path class="cls-13" d="M118.39,74.19c.51.85-2.62,2.46-2.54,4.8.1,3.06,5.66,4.76,5.47,5.2-.23.52-8.61-.49-9.11-4.75-.21-1.83,1.07-3.9,2.79-4.86,1.24-.69,3.04-.98,3.39-.4Z"/>
    <path class="cls-8" d="M99.29,109.57c.52.91,1.77,3.05,4.67,4.43.67.32,2.3,1.02,8.54,1.22,5.22.17,7.83.25,10.55-.4,5.46-1.3,9.49-4.36,9.24-4.74-.17-.25-2.06.85-6.18,1.76,0,0-7.61,1.68-14.06.45-.02,0-.46-.09-1.05-.21-1.48-.3-2.69-.57-2.88-.62-1.87-.45-4.53-3.1-5.17-6.37-.5-2.55.47-4.17-.75-4.83-.74-.4-1.93-.24-2.71.18-2.49,1.31-2,6-.22,9.12Z"/>
    <path class="cls-4" d="M96.31,35.21c2.28-2.89,5.46-5.03,8.95-6.16.86-.28,1.74-.5,2.63-.65.76-.13,1.73-.36,2.5-.19.05.01.35.16.41.15.03.02.06.04.08.07.04-.21.01-.27-.08-.17-.12-.01-.59.44-.7.52-.22.16-.43.32-.65.48-.94.69-1.87,1.38-2.81,2.08-.61.45-.77,1.8.32,1.68,1.81-.21,3.63-.41,5.46-.49,1.66-.07,3.52-.16,5.13.29.45.13,1.37.59,1.14,1.22-.19.51-1.21.84-1.65,1.04-1.54.7-3.17,1.2-4.84,1.49-.5.09-.95.45-.98.98-.03.45.36.93.85.85,2.17-.38,4.25-1.04,6.22-2.02.84-.41,1.68-.95,2.07-1.84.36-.84.2-1.74-.37-2.44-1.26-1.57-3.99-1.42-5.79-1.43-2.37-.02-4.74.25-7.09.52l.32,1.68c.9-.67,1.8-1.33,2.7-2,.78-.58,1.93-1.17,2.37-2.08.88-1.83-1.36-2.52-2.73-2.43-3.68.26-7.3,1.56-10.33,3.66-1.77,1.23-3.31,2.71-4.65,4.4-.3.38-.16,1,.25,1.22.49.26.98-.07,1.27-.44h0Z"/>
    <path class="cls-4" d="M129.6,36.19c-3.89-.53-7.78-.97-11.69-1.33-.51-.05-1,.24-1.17.74-.14.42.06,1.02.57,1.07,3.91.36,7.8.8,11.69,1.33,1.06.14,1.79-1.64.6-1.81h0Z"/>
    <path class="cls-4" d="M142.55,50.82c6.06,9.17,10.46,19.4,12.74,30.16.75,3.51,1.26,7.07,1.57,10.65l1.2-1.2c-.88-.07-1.69-.45-2.21-1.2-.66-.95-2.09.02-1.66,1.02,2.13,5,2.17,10.83.62,16-.13.44-.28.87-.46,1.29-.06.14-.12.27-.18.41-.04.09-.08.17-.12.26-.07.15.02-.04.03-.06-.03.06-.05.12-.08.17-.22.44-.44.88-.68,1.32-3.75,6.82-9.92,12.08-16.71,15.71-2.75,1.47-5.64,2.76-8.65,3.58-2.64.71-5.39,1.01-8.11,1.19-1.09.07-1.39,1.91-.14,1.83,2.67-.18,5.33-.51,7.94-1.13s5.25-1.74,7.74-2.94c4.66-2.24,9.03-5.18,12.74-8.79,2.45-2.39,4.64-5.09,6.36-8.05.72-1.24,1.42-2.56,1.88-3.92,1.93-5.7,1.83-12.36-.53-17.9l-1.66,1.02c.77,1.12,1.9,1.87,3.27,1.98.71.06,1.26-.49,1.2-1.2-1.03-12.08-4.61-23.86-10.4-34.51-1.25-2.3-2.61-4.55-4.05-6.73-.63-.96-2.25.12-1.66,1.02h0Z"/>
    <path class="cls-13" d="M87.57,60.75c-.53.21-3.34,1.42-4.48,4.47-1.03,2.74-.49,6.37,2.07,8.35,3.09,2.38,7.21.87,9.29-.63.63-.46,3.43-2.48,3.38-5.83-.05-3.17-2.6-5.07-3.17-5.46-3.13-2.18-6.67-1.04-7.08-.9"/>
    <path class="cls-4" d="M52.48,59.72c-2.1,4.08-3.9,8.33-5.3,12.7-1.89,5.91-2.87,12.01-2.98,18.21-.05,2.71.13,5.42.48,8.11.08.61.85.76,1.29.46,1.57-1.04,3.13-2.08,4.7-3.12l-1.26-.93c-2.85,7.43-2.75,15.54-.02,22.98.21.57,1.12.48,1.43.09,1.06-1.32,2.12-2.65,3.18-3.97l-1.5-.3c1.07,6.14,5.32,11.62,10.94,14.31,2.03.97,4.27,1.47,6.46,1.93,2.42.51,4.89.83,7.35,1.09,3.98.41,7.97.65,11.97.76,1.1.03,1.38-1.8.14-1.83-6-.17-12.1-.53-18-1.66-1.97-.38-4.01-.79-5.88-1.52-2.05-.8-3.93-2.05-5.55-3.55-2.9-2.69-4.93-6.23-5.61-10.13-.12-.69-1.09-.81-1.5-.3-1.06,1.32-2.12,2.65-3.18,3.97l1.43.09c-2.57-7-2.57-14.66.1-21.63.3-.78-.61-1.36-1.26-.93-1.57,1.04-3.13,2.08-4.7,3.12l1.29.46c-.64-4.97-.56-9.97.07-14.94.76-5.96,2.57-11.75,4.91-17.26.78-1.84,1.63-3.65,2.55-5.43.58-1.13-.98-1.85-1.52-.78h0Z"/>
    <path class="cls-4" d="M115.32,75.82c2.55-1.39,5.57-1.55,8.39-1.1,1.3.21,2.73.51,3.79,1.33,1.37,1.06,1.08,2.57.26,3.88-.38.61-.67.93-1.3,1.5-.98.89-2.18,1.5-3.45,1.86-2.73.75-5.63.18-7.97-1.35-1.03-.67-2.41-1.67-2.47-3.02-.07-1.51,1.63-2.46,2.75-3.09,1.04-.58.33-2.15-.78-1.52-1.47.83-3.03,1.91-3.59,3.58-.61,1.8.29,3.5,1.65,4.67,2.34,2.02,5.42,3.1,8.51,2.87s6.24-1.84,8.04-4.48c.91-1.33,1.56-3.04.96-4.63-.66-1.74-2.5-2.59-4.18-3.05-3.73-1.02-7.97-.82-11.38,1.05-1.05.57-.33,2.13.78,1.52Z"/>
    <path class="cls-10" d="M81.45,69.27c-.36.13-.46,4.42,2.37,7,2.06,1.88,4.62,1.9,5.74,1.9,3.67.02,8.4-1.92,9.43-5.56.78-2.77-.86-5.55-1.17-5.5-.34.05-.96,3.79-1.18,4.13,0,0-.08.12-.07.12,0,0,.24-.32.02-.05-.12.14-.22.3-.34.44-.25.3-.65.74-.85.92-.17.15-.6.49-.89.69-.16.11-.32.22-.48.32-.08.05-.17.1-.25.15.14-.08.15-.08.02-.01-1.44.76-2.88,1.21-4.33,1.25-.76.02-1.69-.08-2.29-.27-.42-.13-.83-.29-1.23-.48-.16-.08-.32-.17-.48-.25-.25-.14-.11-.08.05.03-.72-.51-1.26-.98-1.74-1.53-.35-.41-.33-.48-1.11-1.65-.75-1.13-1.13-1.69-1.22-1.66Z"/>
    <path class="cls-10" d="M136.91,65.29c-.04.11-.08.26-.08.26-.12.4.21-.47.06-.16-.04.08-.07.16-.1.24-.22.51-.5.99-.78,1.47-.13.19-.1.16.07-.1-.06.08-.12.16-.18.24-.09.12-.19.24-.29.36-.14.16-.28.32-.43.48-.14.14-.36.32-.08.09-.32.27-.65.51-.99.74-.2.12-.21.13-.03.02-.11.06-.23.12-.34.17-.21.1-.42.19-.64.26-1.81.65-3.71.24-5.32-.65-.12-.07-.11-.06.03.02-.1-.06-.19-.13-.29-.19-.18-.13-.35-.26-.53-.4-.28-.23-.77-.68-.88-.82.07.09-.21-.32-.25-.38-.1-.19-.1-.19,0,.02-.05-.23-.06-.18-.04.17,0,.48-.2.79-.56,1.1.17-.12.15-.11-.04.02.13-.06.27-.1.41-.14.98-.29,1.62-1.6,1.36-2.56-.09-.32-.24-.56-.44-.74-.46-.42-.99-.12-1.89-.28-1.06-.18-1.24-.71-1.62-.59-.82.28-1.18,3.21-.02,5.51,1.27,2.52,3.9,3.37,4.75,3.64,3.14,1.01,5.89.02,7.01-.49.93-.42,3.21-1.45,4.37-3.91,1.35-2.85.57-6.31-.18-6.44-.74-.13-2.03,2.89-2.07,3Z"/>
    <path class="cls-4" d="M133.2,97.36c.55,2.34.76,4.77.29,7.14-.25,1.28-.68,2.41-1.24,3.4-1.84,3.2-5.13,4.98-8.61,5.89-2.95.77-6.04.93-9.07.85-4.07-.11-8.52-.24-11.62-3.24-2.77-2.68-3.77-6.74-3.45-10.5.1-1.25-1.74-.95-1.83.14-.3,3.57.48,7.37,2.62,10.28,1.61,2.19,3.9,3.66,6.52,4.37,2.18.59,4.47.65,6.71.74,6.89.29,15.06-.64,19.5-6.58,2.78-3.73,3.05-8.7,2.01-13.09-.28-1.17-2.05-.45-1.81.6h0Z"/>
    <path class="cls-4" d="M134.32,49.97c.01-1.79.27-3.54.85-5.23.51-1.49,1.1-3.03,2.38-4.03,1.19-.93,2.69-1.5,4.09-.62.78.49,1.34,1.33,1.64,2.18.17.49.86.46,1.22.25.46-.27.61-.79.44-1.27-.42-1.19-1.32-2.3-2.43-2.91-1.83-1.01-3.94-.46-5.54.7-1.75,1.26-2.65,2.98-3.38,4.96-.73,1.96-1.08,4.03-1.1,6.11-.01,1.25,1.82.96,1.83-.14h0Z"/>
    <path class="cls-4" d="M81.68,65.57c-1.08,3.15-.15,6.65,2.6,8.6,3.05,2.16,7.47,1.96,10.54-.06,2.79-1.83,4.44-5.27,3.63-8.58s-3.83-5.94-7.3-6.18c-4.08-.28-8.06,2.41-9.47,6.22-.44,1.2,1.34,1.39,1.74.33.96-2.58,3.55-4.5,6.29-4.72,2.9-.23,5.58,1.48,6.68,4.14.98,2.35.23,5.07-1.65,6.73-2.16,1.92-5.63,2.36-8.23,1.16-2.83-1.3-4.1-4.38-3.09-7.31.41-1.21-1.37-1.4-1.74-.33Z"/>
    <path class="cls-4" d="M56.58,69.6c4.83-5.3,10.95-9.23,17.77-11.45,1.08-.35.89-2.13-.33-1.74-7.13,2.33-13.58,6.45-18.63,11.99-.83.91.35,2.12,1.2,1.2h0Z"/>
    <path class="cls-4" d="M133.43,79.83c8.96-4.04,18.52-6.64,28.28-7.7.54-.06.69-.98.07-.91-9.84,1.07-19.49,3.68-28.52,7.75-.51.23-.42,1.13.17.87h0Z"/>
    <path class="cls-4" d="M165.91,87.79c-9.63-3.07-19.91-3.88-29.9-2.38-.53.08-.69,1.01-.07.91,9.92-1.49,20.1-.67,29.67,2.37.51.16.87-.72.3-.9h0Z"/>
    <path class="cls-4" d="M134.54,92.66c8.08,1.47,16.55,3.38,22.92,8.9,1.63,1.41,3.06,3.02,4.23,4.83.31.48,1.12-.06.83-.51-4.48-6.96-12.28-10.55-20.05-12.52-2.52-.64-5.08-1.14-7.63-1.6-.53-.1-.89.79-.3.9h0Z"/>
    <path class="cls-4" d="M97.42,81.35c-8.06-3.33-16.95-2.62-25.29-.86-2.52.53-5.03,1.16-7.53,1.79-.55.14-.45,1.02.17.87,10.4-2.64,21.78-5.25,32.13-.97.5.21,1.04-.61.51-.83h0Z"/>
    <path class="cls-4" d="M95.08,88.3c-8.06-1.1-16.36.29-23.65,3.89-2.09,1.03-4.08,2.25-5.95,3.63-.47.35-.12,1.14.39.76,6.39-4.7,14.14-7.4,22.07-7.72,2.29-.09,4.58.02,6.85.33.53.07.89-.82.3-.9h0Z"/>
    <path class="cls-4" d="M100.51,94.89c-7.29.87-14.19,4.24-19.4,9.41-1.49,1.48-2.84,3.11-4.02,4.86-.36.53.43.88.76.39,5.12-7.55,13.53-12.66,22.59-13.74.54-.06.69-.99.07-.91h0Z"/>
    <path class="cls-4" d="M130.41,51c3.9.7,7.65,1.98,11.16,3.82.96.5,2.05-1.12,1.02-1.66-3.63-1.9-7.55-3.25-11.59-3.97-1.06-.19-1.78,1.59-.6,1.81h0Z"/>
    <g>
        <path class="cls-17" d="M91.88,63.09c-.11-.02-1.46-.23-2.34.81-.54.63-.81,1.63-.38,2.51.4.81,1.3,1.33,2.2,1.3,1-.03,1.79-.66,2.16-1.41.15-.3.51-1.19.05-2.07-.48-.93-1.49-1.11-1.69-1.14Z"/>
        <path class="cls-17" d="M92.03,62.64c-1.28-.21-2.59.39-3.2,1.55-.85,1.62.05,3.57,1.86,3.93,1.58.31,3.12-.82,3.48-2.35s-.64-2.85-2.14-3.12c-.53-.1-.89.8-.3.9.93.17,1.69.86,1.6,1.88-.1,1.14-1.19,2.01-2.33,1.79-1.33-.26-2.03-1.74-1.25-2.89.44-.64,1.24-.91,1.99-.78.53.09.89-.81.3-.9Z"/>
    </g>
    <path class="cls-13" d="M128.73,55.93c-.53.21-3.34,1.42-4.48,4.47-1.03,2.74-.49,6.37,2.07,8.35,3.09,2.38,7.21.87,9.29-.63.63-.46,3.43-2.48,3.38-5.83-.05-3.17-2.6-5.07-3.17-5.46-3.13-2.18-6.67-1.04-7.08-.9"/>
    <path class="cls-4" d="M122.84,60.74c-1.08,3.15-.15,6.65,2.6,8.6,3.05,2.16,7.47,1.96,10.54-.06,2.79-1.83,4.44-5.27,3.63-8.58-.82-3.38-3.83-5.94-7.3-6.18-4.08-.28-8.06,2.41-9.47,6.22-.44,1.2,1.34,1.39,1.74.33.96-2.58,3.55-4.5,6.29-4.72,2.9-.23,5.58,1.48,6.68,4.14.98,2.35.23,5.07-1.65,6.73-2.16,1.92-5.63,2.36-8.23,1.16-2.83-1.3-4.1-4.38-3.09-7.31.41-1.21-1.37-1.4-1.74-.33Z"/>
    <g>
        <path class="cls-17" d="M133.04,58.27c-.11-.02-1.46-.23-2.34.81-.54.63-.81,1.63-.38,2.51.4.81,1.3,1.33,2.2,1.3,1-.03,1.79-.66,2.16-1.41.15-.3.51-1.19.05-2.07-.48-.93-1.49-1.11-1.69-1.14Z"/>
        <path class="cls-17" d="M133.19,57.82c-1.28-.21-2.59.39-3.2,1.55-.85,1.62.05,3.57,1.86,3.93,1.58.31,3.12-.82,3.48-2.35.36-1.53-.64-2.85-2.14-3.12-.53-.1-.89.8-.3.9.93.17,1.69.86,1.6,1.88-.1,1.14-1.19,2.01-2.33,1.79-1.33-.26-2.03-1.74-1.25-2.89.44-.64,1.24-.91,1.99-.78.53.09.89-.81.3-.9Z"/>
    </g>
    <path class="cls-4" d="M81.32,58.3c2.22-1.71,4.81-2.81,7.6-3.15,1.08-.13,1.38-1.98.14-1.83-3.1.38-6.04,1.55-8.52,3.46-.38.3-.69.79-.44,1.27.21.42.85.54,1.22.25h0Z"/>
    <path class="cls-4" d="M108.67,99.96c-.85,2.93-1.22,6.46.65,9.09,1.34,1.87,3.54,2.88,5.76,3.28,4.95.91,10.97-.7,14.23-4.68,2.29-2.8,2.76-6.46,2.08-9.93-.23-1.18-2.01-.46-1.81.6.52,2.68.35,5.55-1.26,7.85-1.23,1.75-3.17,2.94-5.15,3.66-3.6,1.3-8.92,1.62-11.82-1.39-2.07-2.15-1.71-5.51-.95-8.15.35-1.23-1.42-1.43-1.74-.33h0Z"/>
    <path class="cls-4" d="M51.15,77.15c-1.25,3.19-2.03,6.54-2.33,9.95-.04.47.65.36.69-.05.3-3.36,1.07-6.63,2.29-9.77.17-.45-.5-.52-.65-.12h0Z"/>
    <path class="cls-4" d="M51.43,84.29c-.52,1.59-.71,3.22-.6,4.88.02.3.41.26.56.11.64-.62,1.29-1.24,1.93-1.87.34-.32-.11-.77-.45-.45-.64.62-1.29,1.24-1.93,1.87l.56.11c-.11-1.54.09-3.06.57-4.53.15-.46-.52-.53-.65-.12h0Z"/>
    <path class="cls-4" d="M70.88,58.29c-.63-2.03-1.74-3.84-3.29-5.29-.3-.28-.82.24-.52.52,1.46,1.38,2.54,3.08,3.13,5,.13.43.8.16.68-.22h0Z"/>
    <path class="cls-4" d="M56.46,52.48c-1.15,2.03-1.27,4.45-.31,6.57.18.39.79-.01.62-.38-.85-1.9-.77-4.08.26-5.89.24-.42-.35-.68-.57-.29h0Z"/>
    <path class="cls-4" d="M139.15,39.48c3.03.69,3.22,4.3,2.98,6.79-.04.47.65.36.69-.05.27-2.82-.09-6.65-3.44-7.41-.39-.09-.67.58-.22.68h0Z"/>
    <path class="cls-4" d="M130.38,46.77c-.27,1.23-.46,2.47-.56,3.72-.04.47.65.36.69-.05.1-1.19.27-2.38.53-3.55.1-.47-.56-.54-.65-.12h0Z"/>
    <path class="cls-4" d="M78.95,72.22c.48,2.31,2.18,4.16,4.43,4.85.39.12.66-.54.22-.68-2.02-.62-3.55-2.33-3.98-4.39-.09-.44-.76-.17-.68.22h0Z"/>
    <path class="cls-4" d="M140.21,66.77c-.94,2.19-2.57,3.96-4.65,5.12-.39.22-.12.8.29.57,2.25-1.25,3.99-3.2,5.01-5.56.19-.44-.49-.51-.65-.12h0Z"/>
    <path class="cls-4" d="M109.81,41.54c.57-.16,1.15-.27,1.74-.3.36-.02,1.48-.16,1.66.28l-.08.64c-.14.12-.3.22-.46.31-.26.15-.54.27-.81.38-.46.18-.94.33-1.42.47-.41.12-.33.79.12.65.97-.29,3.89-.99,3.43-2.55s-3.27-.82-4.29-.54c-.41.12-.34.78.12.65h0Z"/>
    <path class="cls-4" d="M97.62,39.86c1.28-1.97,3.31-3.4,5.61-3.9.53-.11,1.3-.3,1.83-.11.8.29.65,1.08.29,1.69-.64,1.1-1.73,1.94-2.86,2.49-.4.2-.13.78.29.57,1.34-.66,2.73-1.77,3.34-3.17.55-1.27-.11-2.32-1.5-2.33-3.03-.01-5.99,1.99-7.59,4.46-.26.4.33.67.57.29h0Z"/>
    <path class="cls-4" d="M54.87,101.46c-.19,1.06-.29,2.14-.26,3.22.01.43.04.87.09,1.3.03.28,0,.74.22.97.4.41.83-.13,1.06-.44.62-.85,1.23-1.7,1.84-2.54.28-.39-.31-.65-.57-.29-.41.57-.82,1.13-1.23,1.7-.2.28-.39.58-.61.85.07.3.08.28.02-.06-.02-.13-.03-.27-.05-.4-.16-1.45-.08-2.91.18-4.35.08-.46-.61-.35-.69.05h0Z"/>
    <path class="cls-4" d="M60.16,115.39c.92,2.26,2.68,4.14,4.88,5.19.65.31,2.03,1.07,2.58.26.27-.39.13-.84-.02-1.25-.27-.79-.55-1.58-.83-2.37l-.5.5c.73.28,1.47.56,2.2.84.38.14.78-.47.38-.62-.73-.28-1.47-.56-2.2-.84-.32-.12-.61.19-.5.5.19.54.38,1.08.57,1.62.12.34.66,1.43-.11,1.2-.87-.26-1.71-.69-2.45-1.2-1.52-1.04-2.68-2.52-3.38-4.22-.16-.4-.78.01-.62.38h0Z"/>
    <path class="cls-4" d="M107.18,95.12c.41,0,.52-.69.05-.69-.41,0-.52.69-.05.69h0Z"/>
    <path class="cls-4" d="M101.96,91.18c.41,0,.52-.69.05-.69-.41,0-.52.69-.05.69h0Z"/>
    <path class="cls-4" d="M107.29,87.68c.41,0,.52-.69.05-.69-.41,0-.52.69-.05.69h0Z"/>
    <path class="cls-10" d="M96.01,108.87c-1.39,1.68-3.26,4.3-4.68,7.88-.49,1.25-2.06,5.44-2.04,10.73,0,2.97.53,14.56,10.07,21.93,7.18,5.54,15.2,5.42,17.72,5.27,7.39-7.64,9.83-18.73,6.22-28.39-4.08-10.92-15.16-18.08-27.29-17.42Z"/>
    <path class="cls-4" d="M110.67,90.43c.41,0,.52-.69.05-.69-.41,0-.52.69-.05.69h0Z"/>
    <path class="cls-4" d="M131.1,88.88c.41,0,.52-.69.05-.69-.41,0-.52.69-.05.69h0Z"/>
    <path class="cls-4" d="M133.31,83.87c.41,0,.52-.69.05-.69-.41,0-.52.69-.05.69h0Z"/>
    <path class="cls-4" d="M129.26,84.43c.41,0,.52-.69.05-.69-.41,0-.52.69-.05.69h0Z"/>
    <path class="cls-4" d="M102.04,118.77c5.03,1.56,10.32,2.1,15.56,1.6.41-.04.52-.73.05-.69-5.19.5-10.41-.05-15.39-1.59-.38-.12-.66.54-.22.68h0Z"/>
    <path class="cls-4" d="M147.09,105.78l.18,2.21c.03.33-.02.87.32,1.08.68.4,1.43-.83,1.73-1.25,1.18-1.67,1.67-3.72,1.44-5.74-.05-.45-.72-.17-.68.22.17,1.55-.13,3.12-.88,4.49-.17.3-.91,1.64-1.22,1.54-.07-.02-.1-1.23-.11-1.38l-.11-1.38c-.04-.45-.71-.17-.68.22h0Z"/>
    <path class="cls-4" d="M149.74,80.51c.29.21.29.69.51.95s.56.42.9.29c.37-.14.48-.51.55-.87.1-.53.16-1.06.19-1.6.02-.47-.67-.36-.69.05-.02.33-.04.66-.09,1-.02.18-.05.36-.09.53-.03.16,0,.28-.18.16s-.22-.43-.3-.61c-.1-.23-.23-.38-.43-.53-.33-.24-.73.37-.38.62h0Z"/>
    <path class="cls-4" d="M57.17,130.75c-1.94.72-3.45,2.24-4.15,4.19-.16.45.51.52.65.12.61-1.7,1.92-3.04,3.62-3.67.4-.15.33-.82-.12-.65h0Z"/>
    <path class="cls-4" d="M56.05,133.37c-.49.36-.85.85-1,1.44-.12.46.54.54.65.12s.31-.75.64-.99c.15-.11.26-.3.16-.48-.08-.16-.32-.2-.46-.09h0Z"/>
    <path class="cls-4" d="M62.62,147.7c.79,2.42,2.37,4.45,4.53,5.79.27.17.55-.17.53-.42-.04-.58-.09-1.17-.13-1.75l-.53.42c1.27.88,2.66,1.52,4.14,1.96.39.11.66-.55.22-.68-1.43-.42-2.75-1.06-3.98-1.9-.27-.18-.55.18-.53.42.04.58.09,1.17.13,1.75l.53-.42c-2-1.24-3.51-3.15-4.24-5.39-.14-.43-.8-.16-.68.22h0Z"/>
    <path class="cls-4" d="M132.14,152.33c1.72-1.14,3.3-2.47,4.71-3.97l-.55-.29c-.14.57-.28,1.13-.43,1.7-.1.38.29.49.55.29,2.13-1.7,3.77-3.91,4.81-6.43.18-.44-.49-.51-.65-.12-.99,2.4-2.58,4.48-4.61,6.1l.55.29c.14-.57.28-1.13.43-1.7.09-.34-.31-.55-.55-.29-1.37,1.46-2.89,2.74-4.56,3.85-.37.25-.11.84.29.57h0Z"/>
    <path class="cls-4" d="M146.35,119.16c.3,2.97.01,5.96-.85,8.82-.14.46.53.53.65.12.9-2.98,1.19-6.08.88-9.17-.05-.45-.72-.17-.68.22h0Z"/>
    <path class="cls-4" d="M148.85,117.22c.06.96,0,1.91-.19,2.85-.08.46.61.34.69-.05.19-1.01.24-2.01.18-3.03-.03-.44-.7-.17-.68.22h0Z"/>
    <path class="cls-4" d="M113.35,152.08c1.4-1.93,2.3-4.15,2.65-6.51l-.65.22c.39.59.77,1.17,1.16,1.76.16.25.44.15.6-.04,1.7-2.17,2.62-4.84,2.64-7.6,0-.47-.68-.36-.69.05-.02,2.65-.9,5.17-2.53,7.25l.6-.04c-.39-.59-.77-1.17-1.16-1.76-.2-.31-.61-.09-.65.22-.34,2.24-1.21,4.33-2.54,6.16-.28.39.31.65.57.29h0Z"/>
    <g>
        <ellipse class="cls-11" cx="121.41" cy="126.42" rx="27.47" ry="28.09"/>
        <path class="cls-4" d="M147.91,126.5c-.35,14.53-11.43,27.03-26.42,27.04-14.7,0-26.54-12.7-26.57-27.19s11.72-27.07,26.42-27.04,26.22,12.68,26.57,27.19c.03,1.33,1.98,1.03,1.95-.15-.29-12.06-7.27-23.14-18.84-27.33s-24.37-.15-31.8,9.35c-15.86,20.27,1.59,51.84,27.61,46.56,13.58-2.75,22.7-15.02,23.02-28.58.03-1.33-1.92-1.02-1.95.15Z"/>
    </g>
    <g>
        <ellipse class="cls-14" cx="126.09" cy="126.69" rx="27.47" ry="28.09"/>
        <path class="cls-4" d="M152.59,126.76c-.35,14.53-11.43,27.03-26.42,27.04-14.7,0-26.54-12.7-26.57-27.19s11.72-27.07,26.42-27.04,26.22,12.68,26.57,27.19c.03,1.33,1.98,1.03,1.95-.15-.29-12.06-7.27-23.14-18.84-27.33s-24.37-.15-31.8,9.35c-15.86,20.27,1.59,51.84,27.61,46.56,13.58-2.75,22.7-15.02,23.02-28.58.03-1.33-1.92-1.02-1.95.15Z"/>
    </g>
    <g>
        <path class="cls-1" d="M129.64,149.42l-3.31.23c-.1-.02-.19-.05-.29-.06-3.05-.06-5.98-.69-8.74-2.02-6.5-3.12-10.71-8.24-12.56-15.36-.2-.76-.34-1.53-.5-2.3-.08-1.13-.16-2.26-.23-3.39.02-.1.05-.2.05-.3.05-3.12.66-6.12,1.94-8.95,3.03-6.65,8.01-10.94,14.96-12.82.74-.2,1.49-.34,2.24-.51,1.1-.08,2.21-.15,3.31-.23.1.02.19.05.29.06,3.05.06,5.98.69,8.74,2.02,6.5,3.13,10.71,8.24,12.56,15.36.2.76.34,1.53.5,2.3l.23,3.39c-.02.08-.05.17-.05.25-.04,3.14-.65,6.15-1.94,8.99-3.03,6.65-8.01,10.94-14.96,12.82-.74.2-1.49.34-2.24.51ZM146.44,125.36c-.76-11.14-10.08-19.62-20.92-19.13-11.3.52-19.84,10.45-19.03,21.91.8,11.23,10.19,19.6,20.96,19.08,11.32-.54,19.78-10.51,18.99-21.86Z"/>
        <path class="cls-1" d="M123.42,117.91c-.6-.28-1.24-.41-1.8-.91.73-.33,1.35-.19,2,.03-.23-.3-.42-.56-.63-.83.89-.43,1.92.16,2.38,1.31.82-.65,1.7-1.12,2.76-.89.02.04.04.09.06.13-.22.19-.44.38-.68.59.53.01,1.04,0,1.54.05.51.04.62.3.33.75.51.07,1.01.14,1.52.2.1.01.24,0,.31-.07.58-.53,1.22-.54,1.86-.19.72.4,1.01,1.11.9,1.89-.08.57.07.98.33,1.44,1.17,2.05,1.87,4.26,2.09,6.62.02.22.14.48-.18.62-.04.02-.04.16-.03.24.35,2.42-.78,4.09-2.62,5.38-2.03,1.42-4.34,1.94-6.75,2.09-1.72.1-3.42-.1-5.1-.51-1.68-.41-3-1.34-3.97-2.79-.08-.12-.16-.24-.24-.36-.04,0-.08,0-.1.01-.17.12-.33.25-.49.37-.08-.2-.19-.39-.24-.6-.27-1.03-.24-2.06.03-3.15-.22.11-.39.19-.7.33,0-.87-.03-1.63.01-2.39.09-1.55.56-3,1.23-4.39.14-.28.12-.54.1-.85-.04-.52-.05-1.09.11-1.57.3-.92,1.18-1.32,2.2-1.17.17.03.39.04.53-.05.96-.57,1.98-1,3.06-1.25.05-.01.1-.05.19-.09ZM127.93,125.63c-.59-.06-1.13-.17-1.66-.16-.69.01-1.38.13-1.76.84-.42.78-.22,2.48.37,3.14.09.1.18.21.3.26.3.11.34.33.36.62.05,1.27.74,2.14,1.97,2.29.9.1,1.84.1,2.73-.05,1.51-.27,2.31-1.48,2.15-3.02-.01-.13.1-.29.18-.42.2-.33.51-.62.62-.98.23-.75.09-1.51-.24-2.21-.34-.71-.86-.97-1.59-.88-.11.01-.25-.03-.36-.09-1.06-.52-2.32-.25-3.05.65ZM131.5,124.73c.87-.07,1.55-.82,1.48-1.62-.07-.78-.8-1.39-1.59-1.33-.88.07-1.58.86-1.52,1.69.06.77.79,1.33,1.63,1.26ZM124.29,125.33c.89-.06,1.54-.75,1.49-1.58-.05-.8-.77-1.43-1.55-1.37-.86.06-1.61.87-1.55,1.68.05.78.75,1.33,1.61,1.28Z"/>
        <path class="cls-1" d="M133.5,136.96c-.46-.44-.87-.82-1.31-1.24,1.53-.63,2.78-1.58,3.79-2.91.2.17.38.32.55.46.49-.59.97-1.18,1.42-1.73.64.57,1.18,1.06,1.71,1.53-.7.82-1.47,1.72-2.26,2.65.64.57,1.18,1.06,1.74,1.54.08.07.21.08.32.09.89.05,1.59.74,1.63,1.61.04.9-.61,1.68-1.49,1.79-.86.1-1.63-.52-1.81-1.44-.02-.12-.08-.26-.17-.34-.52-.48-1.04-.95-1.57-1.42-.77.93-1.53,1.82-2.24,2.67-.62-.56-1.18-1.05-1.8-1.6.45-.5.96-1.06,1.51-1.66Z"/>
        <path class="cls-1" d="M116.84,137.15c-.93-.82-1.81-1.6-2.68-2.37.47-.55.94-1.09,1.41-1.64.53.49,1.08,1.01,1.67,1.56.25-.27.43-.45.65-.68.99,1.44,2.41,2.12,4.12,2.39-.39.48-.75.92-1.12,1.38.59.52,1.17,1.02,1.73,1.51-.53.62-.99,1.16-1.47,1.72-.85-.76-1.73-1.55-2.64-2.38-.52.62-.99,1.16-1.44,1.72-.08.1-.09.27-.1.41-.06.88-.74,1.58-1.57,1.62-.87.03-1.63-.63-1.73-1.5-.11-.91.44-1.68,1.3-1.88.15-.03.32-.09.42-.19.47-.52.92-1.06,1.45-1.68Z"/>
        <path class="cls-1" d="M139.27,112.54c-.31,1.25-.65,2.44-.9,3.66-.18.91-.57,1.64-1.19,2.31-.81.87-1.55,1.81-2.36,2.76-.23-.37-.44-.67-.37-1.14.23-1.44-.54-2.49-1.95-2.77-.07-.01-.14-.04-.25-.06.8-.94,1.58-1.86,2.36-2.78.06-.07.17-.12.26-.16,1.39-.59,2.79-1.17,4.18-1.76.05-.02.1-.03.21-.06Z"/>
        <path class="cls-1" d="M111.82,114.4c1.64.44,3.18.85,4.73,1.26.11.03.21.1.3.18,1,.89,2.01,1.78,3.01,2.67.04.04.07.08.16.18-.94-.07-1.79,0-2.47.67-.67.66-.89,1.48-.72,2.45-.08-.03-.13-.04-.17-.07-.92-.82-1.85-1.64-2.77-2.47-.09-.08-.17-.17-.21-.28-.61-1.5-1.21-3-1.84-4.58Z"/>
        <path class="cls-1" d="M129.65,127.21c.36,1.48-.38,1.94-1.36,2.13-.77.15-1.58.15-2.37.16-.46,0-.84-.26-.93-.73-.12-.65-.18-1.31-.21-1.97-.01-.39.27-.64.63-.76.79-.27,1.58-.12,2.36.08.06.02.14.06.17.12.35.64.94.85,1.6.92.04,0,.08.03.12.05Z"/>
        <path class="cls-1" d="M125.98,130.03l2.36-.16s0,0,.01.01c.16.95.35,1.11,1.31,1.06.14,0,.29-.02.43-.04.82-.12,1.05-.42,1.11-1.46l.62-.04c.34.81,0,2.04-.89,2.45-1.24.58-2.53.63-3.82.23-.79-.24-1.18-1.04-1.15-2.06Z"/>
        <path class="cls-1" d="M130.08,127.15c1.04-.49,1.25-.74,1.4-1.66.4-.07.7.12.91.45.45.71.56,1.49.35,2.3-.12.47-.54.72-1.12.74-.65.02-1.15-.22-1.32-.73-.12-.36-.15-.74-.21-1.1Z"/>
        <path class="cls-1" d="M129.71,126.82c-.4-.18-.83-.33-1.2-.56-.31-.2-.28-.46,0-.69.49-.41,1.65-.51,2.21-.2.3.17.36.41.18.71-.2.34-.69.61-1.19.74Z"/>
        <path class="cls-1" d="M129.66,129.15c.12.16.22.31.32.45.1-.17.19-.34.31-.55.39.05.48.37.47.79-.01.43-.3.55-.63.6-.23.04-.46.05-.69.06-.28.01-.52-.06-.6-.39-.08-.31-.03-.54.32-.65.2-.07.37-.23.5-.31Z"/>
        <path class="cls-1" d="M132.23,122.77c.02.37-.21.62-.52.63-.31,0-.5-.16-.51-.48,0-.33.18-.52.5-.54.31-.02.49.13.53.39Z"/>
        <path class="cls-1" d="M125.15,123.25c.02.37-.21.62-.52.63-.31,0-.5-.16-.51-.48,0-.33.18-.52.5-.54.31-.02.49.13.53.39Z"/>
    </g>
    <path class="cls-17" d="M114.57,99.01c-.74,3.38.07,4.63.45,5.06.05.06.1.11.11.11.3.28,1.03.67,3.78.95,3.15.31,4.77.45,6.5-.43.68-.34,1.61-.82,2.17-1.84.94-1.72.33-3.66.01-4.6-1.19-3.59-4.52-5.32-5.57-5.82-.32.85-.87,1.97-1.81,3.07-2.01,2.38-4.54,3.21-5.65,3.5Z"/>
    <g>
        <path class="cls-6" d="M90.1,126.3c-1.31.26-3.27.68-5.66,1.26-3.75.92-3.66,1.06-5.16,1.36-6.25,1.26-8.63-1.05-11.35,1.01-1.34,1.02-2.11,2.61-2.21,4.1-.16,2.38,1.35,4.78,3.87,6.21,7.38.11,11.63.62,14.21,1.11.74.14,2.88.57,5.8.8,1.56.13,2.75.15,4.67.18,3.69.06,5.54.15,6.17-.02,1.53-.4,1.33-.85,5.62-3.81,2.88-1.98,4.39-2.78,4.2-3.46-.14-.53-1.22-.66-1.86-.74-.95-.12-1.86-.03-2.68.16.77-.46,1.37-.92,1.82-1.29,1.11-.92,2.13-1.8,2.51-3.33.05-.22.53-2.14-.26-2.91-.75-.74-2.49-.26-4.24.52.2-.2.4-.41.59-.64.58-.68,1.01-1.37,1.31-1.98.04-.58.02-1.62-.58-2.66-.18-.31-.27-.47-.43-.59-.91-.67-2.61.45-5.24,1.74-.94.46-2.35,1.11-4.14,1.79.23-.37.58-.91,1.02-1.57,1.37-2.03,1.73-2.34,1.73-2.97,0-1.05-1.03-2.15-2.06-2.4-1.57-.38-3.73,1.09-4.51,3.87,0,0,0,0,0,0-1.27,1.16-2.33,2.56-3.17,4.24Z"/>
        <path class="cls-10" d="M69.65,139.93c1.89,2.16,4.69,1.82,11.91,2.21,4.34.24,4.41.55,8.54.57,2.65.01,5.31.06,7.96-.13,1.93-.14,3.9-.45,5.7-1.19,2.67-1.11,5.01-2.88,6.91-5.05,1.59-1.82-1.84-4.07-3.33-2.37-1.39,1.59-2.96,2.93-4.99,3.84-.76.34-1.55.59-2.35.79-.46.11.2-.03-.27.06-.21.04-.42.07-.64.1-.48.07-.96.12-1.45.16-4.2.34-7.41.16-7.41.16-8.87-.46-20.64-2.7-21.33-.66-.16.46.31.99.75,1.5Z"/>
        <path class="cls-9" d="M90.98,128c.93-.65,1.7-1.44,1.7-1.44.4-.4.62-.67.62-.67,1.53-1.92,1.44-3.3,2.93-4.72.54-.51,1.35-1.1,2.59-1.5-.66-.57-1.66-1.25-2.68-1.05-1.21.24-1.72,1.58-3.09,3.64-1.42,2.13-2.12,3.19-3.19,3.97-1.42,1.05-2.4.89-10.69,2.3-.74.12-.53.13-1.12.25-5.58,1.08-8.31-.64-10.12,1.16-.2.2-.74.73-.6,1.18.29.88,3.07.61,8.72.11,0,0,11.84-1.05,14.91-3.21Z"/>
        <path class="cls-4" d="M69.7,139.11c4.49,1,9.04,1.25,13.6,1.74,2.05.22,4.07.4,6.13.47,3.23.11,6.49.07,9.71-.28,2.77-.3,5.92-.75,8.23-2.45.94-.69,1.72-1.59,2.14-2.69.15-.38.26-.78.33-1.18.03-.17.18-.76.03-.9-.22-.21-1.33.46-1.58.57-2.34,1.07-4.67,2.25-7.25,2.56-.7.08-1.27-1.05-.65-1.49,1.65-1.19,3.69-1.57,5.34-2.76,1.53-1.11,4.55-2.72,3.76-5.05-.1-.3-.25-.69-.62-.58-.17.05-.42.39-.56.51-.19.16-.38.33-.58.48-.72.57-1.48,1.08-2.29,1.51-1.6.86-3.39,1.35-5.21,1.38-.77.01-1.34-1.26-.49-1.6.21-.08.36-.12.59-.1.7.06.87,1.04.46,1.49-.2.21-.48.23-.75.2-.84-.08-.96-1.48-.11-1.64,2.34-.44,4.63-1.67,5.88-3.76.48-.8,1.09-2.2.53-3.12-.73-1.18-2.09.05-2.79.55-1.81,1.3-3.66,2.65-5.9,3.06-.82.15-2.23.26-2.13-.99.04-.57.56-1.01.94-1.39.55-.55,1.12-1.08,1.61-1.68.32-.39,1.02-1.18.88-1.74-.23-.87-1.57-.79-2.18-.54-1.19.5-2.16,1.44-2.82,2.54-1.07,1.79-1.74,3.82-3.7,4.87-1.71.92-3.83,1.23-5.7,1.65-5.32,1.19-10.75,1.72-16.21,1.61-.92-.02-1.28-1.67-.3-1.65,3.67.08,7.35-.12,10.98-.64,3.03-.43,6.13-1,9.05-1.92,1.04-.33,1.91-.73,2.64-1.57,1.08-1.24,1.5-2.89,2.5-4.18.95-1.22,2.54-2.54,4.18-2.56,1.31-.01,2.76.9,3,2.24.23,1.27-.63,2.41-1.41,3.31-.42.48-.87.92-1.32,1.37-.19.19-.39.38-.57.58-.09.1,0,.05-.1.11-.03.03-.05.07-.07.11.09-.18.09-.37,0-.59l-.43-.46c-.08-.04-.34.03-.1-.03.1-.02.22-.01.32-.02.21-.02.41-.05.62-.09.44-.08.86-.21,1.27-.38.82-.32,1.59-.76,2.32-1.25s1.4-.99,2.1-1.49,1.35-1.01,2.23-.99c1.88.05,2.85,1.85,2.73,3.55s-1.1,3.3-2.31,4.45c-1.5,1.43-3.44,2.27-5.46,2.65l-.11-1.64-.34.09.46,1.49.18.02-.49-1.6c2.21-.04,4.31-.8,6.11-2.07.47-.33.91-.69,1.34-1.06.4-.35.73-.72,1.29-.78,1.06-.11,1.8.79,2.14,1.68.41,1.09.36,2.26-.16,3.3-.64,1.27-1.74,2.07-2.86,2.89-1.02.74-1.99,1.5-3.15,2s-2.28.83-3.26,1.54l-.65-1.49c2.49-.3,4.73-1.48,6.98-2.51.98-.45,2.19-1.14,3.09-.16s.61,2.37.28,3.47c-1.09,3.68-4.66,5.26-8.1,6.02-3.57.78-7.28.92-10.92.89-2.26-.02-4.53-.1-6.78-.3-2.34-.21-4.68-.47-7.02-.69-2.91-.27-5.8-.66-8.66-1.29-.9-.2-.92-1.86.09-1.63h0Z"/>
    </g>
    <path class="cls-6" d="M157.84,135.62c.63-.36,1.61-1.03,2.31-2.22.68-1.15.72-2.71.77-5.82.03-1.78-.05-3.61-.55-5.31-.06-.21-.13-.42-.19-.62-.19-.04-.36-.08-.52-.11-.78-1.68-1.77-3.09-2.96-4.24,0,0,0,0,0,0-.74-2.78-2.75-4.25-4.22-3.87-.96.25-1.92,1.35-1.92,2.4,0,.63.34.94,1.61,2.97.41.65.74,1.2.95,1.57-1.67-.68-2.99-1.33-3.87-1.79-2.46-1.29-4.06-2.41-4.9-1.74-.15.12-.23.27-.4.59-.56,1.04-.58,2.09-.54,2.66.29.61.68,1.3,1.23,1.98.18.23.37.44.55.64-1.63-.79-3.26-1.26-3.96-.52-.74.77-.29,2.69-.24,2.91.35,1.52,1.31,2.4,2.35,3.33.42.37.98.83,1.7,1.29-.77-.19-1.61-.27-2.5-.16-.6.08-1.6.21-1.74.74-.17.68,1.24,1.48,3.93,3.46,3.18,2.34,3.72,3.11,4.52,3.53.04.02.36.17.73.28,1.72.52,3.46-.04,4.68-.44.82-.27,1.93-.72,3.19-1.48Z"/>
    <path class="cls-10" d="M159.45,134.32c1.53-1.27,2.32-2.95,1.93-4.28-.08-.27-.22-.6-.52-.94-.28.86-1.22,3.33-3.46,4.45,0,0-1.73.86-4.79.62-.22-.02-.99-.11-1.35-.16-.2-.03-.4-.07-.59-.1-.06-.01-.1-.02-.13-.02-.02,0-.06-.02-.13-.04-.75-.2-1.49-.45-2.2-.79-1.9-.91-3.37-2.25-4.67-3.84-1.4-1.71-4.6.55-3.12,2.37,1.78,2.17,3.96,3.94,6.46,5.05,1.32.59,3.04,1.23,5.33,1.19.66-.01,1.74-.04,3.05-.5,2.16-.76,3.53-2.19,4.18-2.99Z"/>
    <path class="cls-9" d="M157.25,121.8s.72.78,1.59,1.44c.46.35,1.13.67,1.94.96-.09-.65-.21-1.3-.4-1.92-.06-.19-.12-.38-.18-.57-.11-.07-.21-.15-.32-.23-.99-.78-1.66-1.85-2.98-3.97-1.28-2.06-1.75-3.4-2.89-3.64-.96-.2-1.89.48-2.5,1.05,1.16.4,1.92.99,2.43,1.5,1.39,1.42,1.31,2.81,2.74,4.72,0,0,.2.27.58.67Z"/>
    <path class="cls-4" d="M156.13,137.12c2.55-1.23,5.81-4.18,5.33-6.87-.12-.69-.47-1.22-.77-1.58-.16.86-.95,4.74-4.15,6.64-1.7,1.01-3.29,1-5.34.97-.49,0-4.83-.2-7.69-2.45-.88-.69-1.61-1.59-2-2.69-.14-.38-.24-.78-.31-1.18-.03-.17-.16-.76-.03-.9.2-.21,1.24.46,1.47.57,2.19,1.07,4.36,2.25,6.78,2.56.65.08,1.18-1.05.61-1.49-1.54-1.19-3.45-1.57-4.99-2.76-1.43-1.11-4.25-2.72-3.52-5.05.1-.3.23-.69.58-.58.16.05.39.39.52.51.18.16.36.33.54.48.67.57,1.39,1.08,2.14,1.51,1.5.85,3.16,1.35,4.86,1.38,0,0,0,0,0,0,0,0,0,0,0,0,0,0,0,0,0,0,.06,0,.12,0,.17,0,.37-.04.59-.38.64-.74.09-.34,0-.7-.36-.85-.15-.06-.27-.1-.42-.1-2.1-.48-4.13-1.69-5.25-3.71-.44-.8-1.02-2.2-.49-3.12.68-1.18,1.95.05,2.61.55,1.69,1.3,3.42,2.65,5.51,3.06.77.15,2.08.26,1.99-.99-.04-.57-.52-1.01-.87-1.39-.51-.55-1.05-1.08-1.51-1.68-.3-.39-.96-1.18-.82-1.74.21-.87,1.47-.79,2.03-.54,1.11.5,2.02,1.44,2.63,2.54,1.12,2.01,2.18,3.28,2.18,3.28,1.49,2.48,2.23,3.75,2.46,5.04.26,1.45.07,2.73-.15,3.62h0c-.11.42-.22.97-.24,1.62-.03.98.15,1.78.32,2.3,1.07-1.77,1.37-3.34,1.47-4.27.45-4.18-1.87-7.7-2.58-8.77h0c-.21-.23-.34-.35-.45-.47-1.01-1.24-1.4-2.89-2.34-4.18-.89-1.22-2.38-2.54-3.91-2.56-1.22-.01-2.58.9-2.8,2.24-.22,1.27.59,2.41,1.32,3.31.2.24.41.48.62.71-.09-.03-.18-.07-.26-.1-.77-.32-1.49-.76-2.17-1.25-.67-.48-1.31-.99-1.96-1.49-.64-.49-1.26-1.01-2.08-.99-1.76.05-2.66,1.85-2.55,3.55.06.85.31,1.67.7,2.43-.04-.04-.08-.07-.12-.11-.37-.35-.69-.72-1.21-.78-.99-.11-1.68.79-2,1.68-.39,1.09-.34,2.26.15,3.3.35.75.86,1.33,1.42,1.86-.55-.15-1.1-.12-1.56.41-.81.93-.57,2.37-.26,3.47,1.1,3.99,7.22,5.92,7.57,6.02,1.57.46,4.98,1.47,8.53-.25Z"/>
    <path class="cls-4" d="M113.65,99.08c-.27,2.45-.03,6.1,2.65,7.14.85.33,1.78.37,2.68.33,1.21-.06,2.47-.08,3.66-.25,2-.3,4.51-.99,5.59-2.86.53-.92.53-1.99.55-3.02.03-1.28-.07-2.56-.3-3.81-.22-1.18-2-.46-1.81.6.16.85.26,1.72.27,2.59.02.81.07,1.73-.12,2.52-.36,1.5-2.8,1.97-4.06,2.16-.97.15-1.95.12-2.93.2-.8.07-1.64.15-2.43-.08-1.15-.33-1.63-1.43-1.85-2.51-.2-1.03-.21-2.09-.1-3.13.14-1.24-1.71-.94-1.83.14h0Z"/>
    <path class="cls-4" d="M121.16,94.13c.24,1.39.33,2.79.28,4.2-.04,1.25,1.79.96,1.83-.14.06-1.56-.04-3.12-.3-4.66-.2-1.19-1.98-.46-1.81.6h0Z"/>
    <path class="cls-4" d="M129.47,76.55c2.78-1.58,6.07.69,7.38,3.15.81,1.52,1.18,3.2,1.41,4.9s.35,3.34.23,5c-.1,1.45-.42,2.99-1.34,4.15s-2.42,1.85-3.87,2.14c-2.51.5-5.55.26-7.59-1.38-1.02-.82-2.08-2.2-2.38-3.39-.27-1.06-.26-2.29-.37-3.38-.12-1.19-.25-2.38-.37-3.58s-1.92-.46-1.81.6c.12,1.19.25,2.38.37,3.58.11,1.1.09,2.35.38,3.42.38,1.41,1.3,2.77,2.35,3.76,2.41,2.28,6.01,2.78,9.19,2.22,1.8-.32,3.52-1.04,4.85-2.31s2.03-3.09,2.31-4.91.15-3.74-.04-5.59c-.2-2-.58-4.01-1.46-5.84-1.74-3.63-6.19-6.23-10.03-4.05-1.04.59-.32,2.15.78,1.52h0Z"/>
    <path class="cls-4" d="M121.51,91.16c-.49,1.82-1.42,3.53-2.89,4.75-1.37,1.13-3.48,1.78-5.25,2.27-3.82,1.07-7.65,1.18-11.58,1.18-2.11,0-4.56-.19-6.17-1.73-1.81-1.73-2.32-4.77-2.71-7.13s-.68-5.14.02-7.51c.57-1.94,1.91-3.06,3.8-3.63,4.29-1.29,9.15-.8,13.46.43,1.03.3,1.76-1.47.6-1.81-4.3-1.23-8.85-1.61-13.25-.65-2.21.48-4.32,1.47-5.54,3.47-1.38,2.27-1.37,5.08-1.2,7.64.2,2.9.72,6.11,2.07,8.72,1.22,2.36,3.5,3.54,6.06,3.88,1.81.24,3.71.19,5.54.16,2.47-.03,4.92-.3,7.33-.82,2.55-.55,5.41-1.3,7.54-2.9,1.95-1.47,3.28-3.65,3.91-5.99.33-1.23-1.44-1.43-1.74-.33h0Z"/>
</svg>