<?xml version="1.0" encoding="UTF-8" standalone="no" ?>
<!DOCTYPE svg PUBLIC "-//W3C//DTD SVG 1.1//EN" "http://www.w3.org/Graphics/SVG/1.1/DTD/svg11.dtd">
<svg xmlns="http://www.w3.org/2000/svg" xmlns:xlink="http://www.w3.org/1999/xlink" version="1.1" width="1080" height="1080" viewBox="0 0 1080 1080" xml:space="preserve">
<desc>Created with Fabric.js 5.2.4</desc>
<defs>
</defs>
<g transform="matrix(1 0 0 1 540 540)" id="09bc05d2-57a6-4385-a609-7749cdddf62c"  >
<rect style="stroke: none; stroke-width: 1; stroke-dasharray: none; stroke-linecap: butt; stroke-dashoffset: 0; stroke-linejoin: miter; stroke-miterlimit: 4; fill: rgb(255,255,255); fill-rule: nonzero; opacity: 1; visibility: hidden;" vector-effect="non-scaling-stroke"  x="-540" y="-540" rx="0" ry="0" width="1080" height="1080" />
</g>
<g transform="matrix(1 0 0 1 540 540)" id="37130c39-a6f8-44b3-ae67-6531d97cbedc"  >
</g>
<g transform="matrix(0.59 0 0 0.59 540 540)"  >
<g style="" vector-effect="non-scaling-stroke"   >
		<g transform="matrix(1 0 0 1 -174.34 -315.96)"  >
<path style="stroke: none; stroke-width: 1; stroke-dasharray: none; stroke-linecap: butt; stroke-dashoffset: 0; stroke-linejoin: miter; stroke-miterlimit: 4; fill: rgb(0,192,235); fill-rule: nonzero; opacity: 1;" vector-effect="non-scaling-stroke"  transform=" translate(-479.37, -534.43)" d="M 16.34 1067.39 L 942.39 532.7400000000001 C 952.5 526.9000000000001 958.73 516.1100000000001 958.73 504.4300000000001 L 958.73 189.93 C 958.73 178.25 952.5 167.46 942.38 161.62 L 670.03 4.38 C 659.92 -1.46 647.4599999999999 -1.46 637.3399999999999 4.38 L 452.13999999999993 111.32 C 444.87999999999994 115.50999999999999 444.7699999999999 125.92999999999999 452.0299999999999 130.13 C 485.3699999999999 149.38 564.5899999999999 195.12 637.5899999999999 237.26999999999998 C 702.8499999999999 274.95 702.8299999999999 369.13 637.5699999999999 406.80999999999995 L 16.34 765.46 C 6.23 771.3 0 782.09 0 793.77 L 0 1057.96 C 0 1066.3500000000001 9.08 1071.5900000000001 16.34 1067.39 Z" stroke-linecap="round" />
</g>
		<g transform="matrix(1 0 0 1 -354.11 -429.19)"  >
<path style="stroke: none; stroke-width: 1; stroke-dasharray: none; stroke-linecap: butt; stroke-dashoffset: 0; stroke-linejoin: miter; stroke-miterlimit: 4; fill: rgb(0,106,182); fill-rule: nonzero; opacity: 1;" vector-effect="non-scaling-stroke"  transform=" translate(-299.6, -421.21)" d="M 16.35 664.81 L 593.75 331.4599999999999 C 601.01 327.2699999999999 601.01 316.7799999999999 593.75 312.5899999999999 L 364.99 180.51999999999992 C 354.88 174.67999999999992 342.42 174.67999999999992 332.3 180.51999999999992 L 16.34 362.95 C 6.23 368.79 0 379.58 0 391.25 L 0 655.37 C 0 663.76 9.08 669 16.34 664.8 Z" stroke-linecap="round" />
</g>
		<g transform="matrix(1 0 0 1 179.77 328.53)"  >
<path style="stroke: none; stroke-width: 1; stroke-dasharray: none; stroke-linecap: butt; stroke-dashoffset: 0; stroke-linejoin: miter; stroke-miterlimit: 4; fill: rgb(0,192,235); fill-rule: nonzero; opacity: 1;" vector-effect="non-scaling-stroke"  transform=" translate(-833.47, -1178.92)" d="M 1291.07 834.66 L 364.9799999999999 1369.32 C 357.7199999999999 1373.51 357.7199999999999 1384 364.9799999999999 1388.1899999999998 L 593.78 1520.2799999999997 C 603.89 1526.1199999999997 616.35 1526.1199999999997 626.4599999999999 1520.2799999999997 L 1291.07 1136.5799999999997 C 1301.1799999999998 1130.7399999999998 1307.4099999999999 1119.9499999999996 1307.4099999999999 1108.2699999999998 L 1307.4099999999999 844.0899999999997 C 1307.4099999999999 835.6999999999997 1298.33 830.4599999999997 1291.07 834.6599999999997 Z" stroke-linecap="round" />
</g>
		<g transform="matrix(1 0 0 1 -27.23 301.92)"  >
<path style="stroke: none; stroke-width: 1; stroke-dasharray: none; stroke-linecap: butt; stroke-dashoffset: 0; stroke-linejoin: miter; stroke-miterlimit: 4; fill: rgb(0,106,182); fill-rule: nonzero; opacity: 1;" vector-effect="non-scaling-stroke"  transform=" translate(-626.47, -1152.32)" d="M 321.41 1463.68 C 256.04 1425.94 256.04 1331.5900000000001 321.41 1293.8500000000001 L 1247.5 759.1700000000002 C 1254.76 754.9800000000001 1254.76 744.4900000000002 1247.5 740.3000000000002 L 1018.73 608.2200000000001 C 1008.62 602.3800000000001 996.16 602.3800000000001 986.0500000000001 608.2200000000001 L 16.34 1168.04 C 6.23 1173.88 0 1184.67 0 1196.35 L 0 1510.85 C 0 1522.53 6.23 1533.32 16.34 1539.1599999999999 L 288.71 1696.4099999999999 C 298.82 1702.2499999999998 311.28 1702.2499999999998 321.39 1696.4099999999999 L 506.61 1589.4799999999998 C 513.87 1585.2899999999997 513.87 1574.7999999999997 506.61 1570.61 L 321.41 1463.6799999999998 Z" stroke-linecap="round" />
</g>
</g>
</g>
</svg>