<svg width="42" height="42" viewBox="0 0 42 42" fill="none" xmlns="http://www.w3.org/2000/svg">
<path d="M32.891 12.1836L20.6769 0L17.3786 3.29009L29.6442 15.5251C32.0664 17.9413 33.3548 21.1285 33.3548 24.5728C33.3548 31.6671 27.5828 37.4247 20.4708 37.4247C13.3588 37.4247 7.58673 31.6671 7.58673 24.5728C7.58673 21.1285 8.92667 17.9413 11.3489 15.4737L14.2349 12.5949L17.224 15.5765L14.338 18.4553C12.6888 20.1004 11.8127 22.2595 11.8127 24.5214C11.8127 29.2509 15.6779 33.1065 20.4193 33.1065C25.1606 33.1065 29.0258 29.2509 29.0258 24.5214C29.0258 22.2081 28.1497 20.049 26.5005 18.4553L23.2022 21.7454C23.9753 22.5165 24.3875 23.4933 24.3875 24.5728C24.3875 26.7834 22.5838 28.5312 20.4193 28.5312C18.2032 28.5312 16.451 26.7319 16.451 24.5728C16.451 23.4933 16.8632 22.5165 17.6363 21.7454L23.8206 15.5765L14.338 6.01469L8.15362 12.1836C4.8553 15.4737 3 19.8947 3 24.5214C3 34.1346 10.885 42 20.5223 42C30.1596 42 38.0446 34.1346 38.0446 24.5214C38.0446 19.8947 36.2409 15.5251 32.891 12.1836Z" fill="#2563EB"/>
</svg>
