<?xml version="1.0" encoding="UTF-8"?>
<svg version="1.1" xmlns="http://www.w3.org/2000/svg" width="200" height="200" viewBox="0 0 1080 1080">
  <path d="M0 0 C1.30917892 -0.00701431 2.61835785 -0.01402863 3.96720886 -0.02125549 C8.17085255 -0.04065589 12.37444106 -0.04568979 16.578125 -0.046875 C17.65278959 -0.04753778 17.65278959 -0.04753778 18.74916458 -0.04821396 C40.58593564 -0.05527651 62.14979342 0.30469298 83.828125 3.203125 C85.15729345 3.37185076 86.4865605 3.5398013 87.81591797 3.70703125 C138.07949278 10.11041483 187.45413089 23.81225075 233.828125 44.203125 C234.85873047 44.65526367 235.88933594 45.10740234 236.95117188 45.57324219 C268.47968583 59.5136959 298.73824607 76.18242538 326.828125 96.203125 C327.54274902 96.70666504 328.25737305 97.21020508 328.99365234 97.72900391 C339.35197853 105.0290079 349.33407901 112.66974121 359.08398438 120.76318359 C361.53979237 122.79066898 364.03135368 124.77318196 366.515625 126.765625 C371.78366796 131.07656105 376.75704807 135.67314098 381.7265625 140.3203125 C384.28052016 142.70679753 386.88659329 145.02433432 389.515625 147.328125 C394.51302929 151.80770615 399.26280967 156.52865398 404.015625 161.265625 C405.15680786 162.39991943 405.15680786 162.39991943 406.32104492 163.55712891 C410.47031026 167.71771248 414.45064392 171.9658425 418.28442383 176.41870117 C420.32425875 178.77662517 422.45199313 181.04803185 424.578125 183.328125 C429.32687787 188.5359718 433.68045692 193.98012103 437.98828125 199.5546875 C439.85909299 201.97376268 441.76041048 204.36164974 443.69921875 206.7265625 C504.42229181 280.89516895 542.84115125 375.98931869 558.03125 522.375 C558.04177147 524.33876839 558.04177147 524.33876839 558.05250549 526.34220886 C558.07190589 530.54585255 558.07693979 534.74944106 558.078125 538.953125 C558.07856686 539.66956806 558.07900871 540.38601112 558.07946396 541.12416458 C558.08652651 562.96093564 557.72655702 584.52479342 554.828125 606.203125 C554.65939924 607.53229345 554.4914487 608.8615605 554.32421875 610.19091797 C547.92083517 660.45449278 534.21899925 709.82913089 513.828125 756.203125 C513.37598633 757.23373047 512.92384766 758.26433594 512.45800781 759.32617188 C498.5175541 790.85468583 481.84882462 821.11324607 461.828125 849.203125 C461.32458496 849.91774902 460.82104492 850.63237305 460.30224609 851.36865234 C453.0022421 861.72697853 445.36150879 871.70907901 437.26806641 881.45898438 C435.24058102 883.91479237 433.25806804 886.40635368 431.265625 888.890625 C426.95468895 894.15866796 422.35810902 899.13204807 417.7109375 904.1015625 C415.32445247 906.65552016 413.00691568 909.26159329 410.703125 911.890625 C406.22354385 916.88802929 401.50259602 921.63780967 396.765625 926.390625 C396.00942871 927.15141357 395.25323242 927.91220215 394.47412109 928.69604492 C390.31353752 932.84531026 386.0654075 936.82564392 381.61254883 940.65942383 C379.25462483 942.69925875 376.98321815 944.82699313 374.703125 946.953125 C369.4952782 951.70187787 364.05112897 956.05545692 358.4765625 960.36328125 C356.05748732 962.23409299 353.66960026 964.13541048 351.3046875 966.07421875 C277.13608105 1026.79729181 182.04193131 1065.21615125 35.65625 1080.40625 C33.69248161 1080.41677147 33.69248161 1080.41677147 31.68904114 1080.42750549 C27.48539745 1080.44690589 23.28180894 1080.45193979 19.078125 1080.453125 C18.36168194 1080.45356686 17.64523888 1080.45400871 16.90708542 1080.45446396 C-4.92968564 1080.46152651 -26.49354342 1080.10155702 -48.171875 1077.203125 C-49.50104345 1077.03439924 -50.8303105 1076.8664487 -52.15966797 1076.69921875 C-102.42324278 1070.29583517 -151.79788089 1056.59399925 -198.171875 1036.203125 C-199.20248047 1035.75098633 -200.23308594 1035.29884766 -201.29492188 1034.83300781 C-232.82343583 1020.8925541 -263.08199607 1004.22382462 -291.171875 984.203125 C-292.24381104 983.44781494 -292.24381104 983.44781494 -293.33740234 982.67724609 C-303.69572853 975.3772421 -313.67782901 967.73650879 -323.42773438 959.64306641 C-325.88354237 957.61558102 -328.37510368 955.63306804 -330.859375 953.640625 C-336.12741796 949.32968895 -341.10079807 944.73310902 -346.0703125 940.0859375 C-348.62427016 937.69945247 -351.23034329 935.38191568 -353.859375 933.078125 C-358.85677929 928.59854385 -363.60655967 923.87759602 -368.359375 919.140625 C-369.50055786 918.00633057 -369.50055786 918.00633057 -370.66479492 916.84912109 C-374.81406026 912.68853752 -378.79439392 908.4404075 -382.62817383 903.98754883 C-384.66800875 901.62962483 -386.79574313 899.35821815 -388.921875 897.078125 C-393.67062787 891.8702782 -398.02420692 886.42612897 -402.33203125 880.8515625 C-404.20284299 878.43248732 -406.10416048 876.04460026 -408.04296875 873.6796875 C-468.76604181 799.51108105 -507.18490125 704.41693131 -522.375 558.03125 C-522.38201431 556.72207108 -522.38902863 555.41289215 -522.39625549 554.06404114 C-522.41565589 549.86039745 -522.42068979 545.65680894 -522.421875 541.453125 C-522.42231686 540.73668194 -522.42275871 540.02023888 -522.42321396 539.28208542 C-522.43027651 517.44531436 -522.07030702 495.88145658 -519.171875 474.203125 C-519.00314924 472.87395655 -518.8351987 471.5446895 -518.66796875 470.21533203 C-512.26458517 419.95175722 -498.56274925 370.57711911 -478.171875 324.203125 C-477.71973633 323.17251953 -477.26759766 322.14191406 -476.80175781 321.08007812 C-462.8613041 289.55156417 -446.19257462 259.29300393 -426.171875 231.203125 C-425.41656494 230.13118896 -425.41656494 230.13118896 -424.64599609 229.03759766 C-417.3459921 218.67927147 -409.70525879 208.69717099 -401.61181641 198.94726562 C-399.58433102 196.49145763 -397.60181804 193.99989632 -395.609375 191.515625 C-391.29843895 186.24758204 -386.70185902 181.27420193 -382.0546875 176.3046875 C-379.66820247 173.75072984 -377.35066568 171.14465671 -375.046875 168.515625 C-370.56729385 163.51822071 -365.84634602 158.76844033 -361.109375 154.015625 C-360.35317871 153.25483643 -359.59698242 152.49404785 -358.81787109 151.71020508 C-354.65728752 147.56093974 -350.4091575 143.58060608 -345.95629883 139.74682617 C-343.59837483 137.70699125 -341.32696815 135.57925687 -339.046875 133.453125 C-333.8390282 128.70437213 -328.39487897 124.35079308 -322.8203125 120.04296875 C-320.40123732 118.17215701 -318.01335026 116.27083952 -315.6484375 114.33203125 C-241.47983105 53.60895819 -146.38568131 15.19009875 0 0 Z" fill="#7DE8F1" transform="translate(522.171875,-0.203125)"/>
  <path d="M0 0 C1.11669571 0.00539291 1.11669571 0.00539291 2.25595093 0.01089478 C3.0363826 0.01074875 3.81681427 0.01060272 4.62089539 0.01045227 C7.21273534 0.01115158 9.80450432 0.01894481 12.39633179 0.02676392 C14.18852194 0.02862803 15.9807126 0.03005196 17.77290344 0.03105164 C22.49938351 0.03487733 27.22583305 0.04470805 31.95230103 0.05575562 C37.61823139 0.06776298 43.28417195 0.07237173 48.95011139 0.07820892 C57.5663207 0.08791978 66.18246297 0.10707597 74.79867554 0.12442017 C75.12867554 24.87442017 75.45867554 49.62442017 75.79867554 75.12442017 C89.65867554 75.61942017 89.65867554 75.61942017 103.79867554 76.12442017 C103.79867554 51.04442017 103.79867554 25.96442017 103.79867554 0.12442017 C130.52867554 0.12442017 157.25867554 0.12442017 184.79867554 0.12442017 C184.79867554 25.20442017 184.79867554 50.28442017 184.79867554 76.12442017 C225.71867554 76.12442017 266.63867554 76.12442017 308.79867554 76.12442017 C308.79867554 89.65442017 308.79867554 103.18442017 308.79867554 117.12442017 C312.25207397 117.1128186 315.70547241 117.10121704 319.26351929 117.08926392 C322.59286405 117.08147448 325.92220782 117.07539707 329.2515564 117.06948853 C331.57285005 117.06444683 333.89414051 117.05761365 336.21542358 117.04898071 C339.54396348 117.03690792 342.87246156 117.03119038 346.20101929 117.02676392 C347.24579941 117.02160263 348.29057953 117.01644135 349.36701965 117.01112366 C350.32794022 117.01104813 351.28886078 117.0109726 352.27890015 117.01089478 C353.12939438 117.00867416 353.97988861 117.00645355 354.8561554 117.00416565 C356.79867554 117.12442017 356.79867554 117.12442017 357.79867554 118.12442017 C357.89551134 120.20002822 357.92054456 122.2789922 357.91893005 124.3568573 C357.91978448 125.01516365 357.9206389 125.67347001 357.92151922 126.35172504 C357.92317584 128.57359123 357.91764972 130.79538312 357.91220093 133.01724243 C357.91191907 134.60357664 357.91207676 136.18991098 357.91264343 137.77624512 C357.91293146 142.09630738 357.90703391 146.41634213 357.90006948 150.73639798 C357.89383678 155.24610332 357.89323221 159.75580921 357.89204407 164.26551819 C357.8889305 172.81136391 357.88071677 181.35719691 357.87069458 189.90303701 C357.85953422 199.6295965 357.85402319 209.35615658 357.84899914 219.08272088 C357.83853418 239.09662775 357.82093425 259.11052316 357.79867554 279.12442017 C354.14364815 279.96522168 350.77048808 280.24999169 347.02326965 280.25140381 C345.86943787 280.25422363 344.71560608 280.25704346 343.52680969 280.25994873 C342.27001907 280.2579245 341.01322845 280.25590027 339.71835327 280.2538147 C338.37436882 280.2551705 337.03038474 280.25695144 335.68640137 280.25912476 C332.04397377 280.26367733 328.40157454 280.26191858 324.75914645 280.25874567 C320.94534145 280.25621136 317.13153886 280.25856255 313.31773376 280.26013184 C306.91464808 280.26195018 300.51157393 280.25955577 294.10848999 280.25479126 C286.70636268 280.24934696 279.30426291 280.25111386 271.90213627 280.25661767 C265.54448601 280.26115556 259.18684405 280.26179609 252.8291927 280.259179 C249.03299417 280.25762026 245.23680858 280.2574115 241.44061089 280.26071548 C237.87260651 280.26360408 234.30463765 280.26160027 230.73663712 280.25582123 C228.80276285 280.25386838 226.86888557 280.25683898 224.93501282 280.25994873 C223.78400085 280.25712891 222.63298889 280.25430908 221.44709778 280.25140381 C220.44699393 280.25102678 219.44689009 280.25064976 218.41648006 280.25026131 C215.79867554 280.12442017 215.79867554 280.12442017 211.79867554 279.12442017 C211.46867554 238.86442017 211.13867554 198.60442017 210.79867554 157.12442017 C130.27867554 157.12442017 49.75867554 157.12442017 -33.20132446 157.12442017 C-33.20132446 319.15442017 -33.20132446 481.18442017 -33.20132446 648.12442017 C47.64867554 648.12442017 128.49867554 648.12442017 211.79867554 648.12442017 C211.30367554 567.43942017 211.30367554 567.43942017 210.79867554 485.12442017 C194.95867554 484.79442017 179.11867554 484.46442017 162.79867554 484.12442017 C162.79867554 457.39442017 162.79867554 430.66442017 162.79867554 403.12442017 C227.14867554 403.12442017 291.49867554 403.12442017 357.79867554 403.12442017 C357.79867554 497.17442017 357.79867554 591.22442017 357.79867554 688.12442017 C341.62867554 688.12442017 325.45867554 688.12442017 308.79867554 688.12442017 C308.79867554 701.65442017 308.79867554 715.18442017 308.79867554 729.12442017 C247.91367554 729.61942017 247.91367554 729.61942017 185.79867554 730.12442017 C185.46867554 755.20442017 185.13867554 780.28442017 184.79867554 806.12442017 C158.06867554 806.12442017 131.33867554 806.12442017 103.79867554 806.12442017 C103.30367554 768.00942017 103.30367554 768.00942017 102.79867554 729.12442017 C93.88867554 729.12442017 84.97867554 729.12442017 75.79867554 729.12442017 C75.46867554 754.53442017 75.13867554 779.94442017 74.79867554 806.12442017 C48.06867554 806.12442017 21.33867554 806.12442017 -6.20132446 806.12442017 C-6.53132446 781.04442017 -6.86132446 755.96442017 -7.20132446 730.12442017 C-31.62132446 729.79442017 -56.04132446 729.46442017 -81.20132446 729.12442017 C-81.53132446 715.59442017 -81.86132446 702.06442017 -82.20132446 688.12442017 C-114.21132446 688.12442017 -146.22132446 688.12442017 -179.20132446 688.12442017 C-179.20132446 499.69442017 -179.20132446 311.26442017 -179.20132446 117.12442017 C-146.86132446 117.12442017 -114.52132446 117.12442017 -81.20132446 117.12442017 C-81.20132446 103.59442017 -81.20132446 90.06442017 -81.20132446 76.12442017 C-56.45132446 76.12442017 -31.70132446 76.12442017 -6.20132446 76.12442017 C-6.24093936 51.48683607 -6.24093936 51.48683607 -6.29141235 26.84927368 C-6.29592896 22.0930481 -6.29592896 22.0930481 -6.29676819 19.86915588 C-6.29830762 18.31003026 -6.30183253 16.75090586 -6.30690002 15.19178772 C-6.31417845 12.83540771 -6.31523185 10.47910069 -6.31484985 8.12271118 C-6.31844796 7.42368211 -6.32204607 6.72465303 -6.32575321 6.00444126 C-6.31292631 0.1276347 -5.83858961 0.01189921 0 0 Z" fill="#F6E943" transform="translate(451.2013244628906,136.87557983398438)"/>
</svg>