<?xml version="1.0" encoding="UTF-8"?>
<svg width="512" height="512" version="1.1" viewBox="0 0 512 512" xmlns="http://www.w3.org/2000/svg"><circle cx="256" cy="256" r="256" stroke-width="7.7027"/><path d="m195.25 153.2v36.451h121.5v-36.451c0-33.565-27.186-60.752-60.752-60.752s-60.752 27.186-60.752 60.752zm-48.602 36.451v-36.451c0-60.372 48.981-109.35 109.35-109.35s109.35 48.981 109.35 109.35v36.451h12.15c26.807 0 48.602 21.795 48.602 48.602v145.8c0 26.807-21.795 48.602-48.602 48.602h-243.01c-26.807 0-48.602-21.795-48.602-48.602v-145.8c0-26.807 21.795-48.602 48.602-48.602z" fill="#23f7dd" stroke-width=".7594"/></svg>
