<?xml version="1.0" encoding="utf-8"?>
<!-- Generator: Adobe Illustrator 28.0.0, SVG Export Plug-In . SVG Version: 6.00 Build 0)  -->
<svg version="1.1" id="Layer_1" xmlns="http://www.w3.org/2000/svg" xmlns:xlink="http://www.w3.org/1999/xlink" x="0px" y="0px"
	 viewBox="0 0 338 340" style="enable-background:new 0 0 338 340;" xml:space="preserve">
<style type="text/css">
	.st0{fill:#FDFDFD;}
	.st1{fill:#FFFFFF;}
	.st2{fill:#757171;}
	.st3{fill:#ABA8A8;}
	.st4{fill:#F5CC2F;}
</style>
<path class="st0" d="M160.2,330.5c-50.7,0-101.3,0-152,0c-1,0-1.2-0.2-1.2-1.2C7,222.5,7,115.7,7,8.9c0-1.1,0.3-1.3,1.3-1.3
	c107.1,0,214.2,0,321.3,0c1,0,1.3,0.2,1.3,1.3c0,106.8,0,213.5,0,320.3c0,1.2-0.3,1.3-1.4,1.3c-51.1,0-102.3,0-153.4,0
	c-0.1-0.1-0.1-0.2,0-0.4c1.4-0.5,2.9-0.4,4.4-0.4c10.2-0.6,20.3-2.3,30.2-4.9c7.8-2,15.3-4.8,22.7-8.1c12.7-5.7,24.4-13,35.2-21.8
	c3.5-2.8,6.9-5.8,10-9c0.5-0.5,0.6-0.9,0-1.4c-0.2-0.2-0.4-0.4-0.6-0.6c-20-20-40-40-60.1-60.1c-1.2-1.2-1.2-1.2-2.4,0
	c-6.2,6.6-13.5,11.8-21.7,15.5c-6.2,2.8-12.6,4.6-19.4,5.1c-2.5,0.2-5.1,0.2-7.6,0.2c-5.3,0.1-10.5-0.9-15.6-2.5
	c-8.9-2.6-16.8-7.1-23.9-13c-0.8-0.7-1.6-1.5-2.5-2.2c-0.5-0.5-1-0.5-1.5,0c-0.2,0.3-0.5,0.5-0.7,0.7c-20,20-39.9,39.9-59.9,59.9
	c-0.1,0.1-0.1,0.1-0.2,0.2c-1.2,1.2-1.2,1.3,0.1,2.4c2.3,2,4.7,4,7.1,6c9.8,7.8,20.4,14.4,31.8,19.7c13.5,6.3,27.7,10.4,42.5,12.6
	c5,0.7,10,1.2,15.1,1.5c0.3,0,0.6,0,0.9,0.2C160.3,330.3,160.3,330.4,160.2,330.5z"/>
<path class="st1" d="M160.2,330.3c-22.3-1.1-43.6-6.4-63.5-16.5c-12.7-6.5-24.3-14.5-34.8-24c-0.8-0.7-0.7-1,0-1.7
	c20.5-20.5,41-41,61.4-61.5c0.9-0.9,1.3-0.7,2,0c8.9,8.1,19,13.9,30.8,16.3c16.1,3.3,31.1,0.6,45.1-7.9c5.5-3.4,10.5-7.4,14.8-12.2
	c0.6-0.7,0.9-0.7,1.6,0c20.5,20.6,41.1,41.1,61.7,61.6c1,1,0.2,1.3-0.3,1.8c-16.1,15.6-34.6,27.3-55.6,35
	c-14.8,5.4-30.1,8.3-45.9,9.1c-0.4,0-0.8,0-1.2,0c-1.7,0.3-3.4-0.1-5,0.2c-2.5,0-5.1,0-7.6,0C162.5,330.2,161.3,330.5,160.2,330.3z"
	/>
<path class="st2" d="M171.2,330.5c1.7-0.4,3.3-0.2,5-0.2c0,0.1,0,0.1,0,0.2C174.5,330.5,172.9,330.5,171.2,330.5z"/>
<path class="st3" d="M160.2,330.3c1.2,0,2.3-0.2,3.4,0.2c-1.1,0-2.3,0-3.4,0C160.2,330.4,160.2,330.3,160.2,330.3z"/>
<path class="st4" d="M7.2,171.2c0-27.6,5.2-51.4,16.6-73.8C31.2,83,40.5,69.9,51.9,58.3c0.7-0.7,1-0.8,1.8,0
	c20.6,20.6,41.1,41.2,61.7,61.7c0.7,0.7,0.8,1.1,0.1,1.9c-8.3,9.8-13.9,20.9-16,33.6c-3.7,22.4,1.3,42.5,15.8,60.2
	c1.5,1.8,3.1,3.6,4.8,5.2c0.5,0.5,0.5,0.8,0,1.2c-0.2,0.2-0.4,0.4-0.7,0.6C99.2,243,79,263.2,58.7,283.5c-1.2,1.2-1.3,1.3-2.6,0
	c-19.1-18.1-32.7-39.7-41.1-64.7c-3.7-11-6-22.3-7.1-33.9C7.5,179.5,7.2,174.1,7.2,171.2z"/>
<path class="st1" d="M120.4,116.8c-0.3-0.4-0.6-0.7-0.9-1C99,95.3,78.5,74.8,58,54.4c-0.9-0.9-0.9-1.3,0-2.2
	c22.7-21.6,49.2-35.6,80.1-41.4c11.9-2.2,24-3.1,36.1-2.8c39.9,1.2,74.5,15.2,103.9,42.3c2.2,2,4.2,4.2,6.3,6.3
	c0.4,0.4,0.6,0.8,0,1.2c-0.2,0.1-0.3,0.3-0.5,0.5c-20.5,20.5-41.1,41.1-61.6,61.7c-0.9,0.9-1.3,0.9-2.1-0.1
	c-9.3-11.8-21-20.1-35.6-23.9c-17.2-4.4-33.4-1.6-48.5,7.7c-5.6,3.4-10.4,7.6-14.8,12.4C121,116.2,120.8,116.5,120.4,116.8z"/>
<path class="st1" d="M330.4,168.7c-0.1,37.9-12.1,71.6-36,101c-3,3.7-6.2,7.1-9.5,10.5c-0.7,0.8-1.1,0.6-1.7-0.1
	c-17.9-17.9-35.8-35.8-53.7-53.7c-2.7-2.7-5.3-5.3-8-8c-0.6-0.6-0.6-0.9,0-1.5c9.2-10.6,15-22.9,16.9-36.8
	c2.7-19.8-1.2-38-13.1-54.3c-0.6-0.8-0.4-1.1,0.2-1.7c20.7-20.7,41.4-41.4,62.1-62.1c0.8-0.8,1.1-0.7,1.8,0.1
	c19,20.9,31.7,45.1,37.5,72.8C329.4,146.2,330.4,156.6,330.4,168.7z"/>
</svg>
