<svg width="200" height="200" viewBox="0 0 200 200" fill="none" xmlns="http://www.w3.org/2000/svg">
<g clip-path="url(#clip0_1837_2)">
<path d="M200 0H0V200H200V0Z" fill="black"/>
<path d="M149.778 81.2431C147.347 99.3812 130.518 99.1942 121.916 109.666C107.802 127.262 113.094 142.883 100.626 146.839C100.128 146.997 99.5742 146.997 99.0761 146.839C86.6089 142.875 91.9004 127.075 77.7863 109.479C69.5587 98.8202 52.5426 99.1942 50.2987 80.8691C48.4288 67.0318 55.7214 58.4303 61.5181 53.0075C61.8921 52.6335 57.9653 66.2839 63.949 74.6984C69.1847 81.8041 83.583 85.9179 90.6887 91.3406C99.1032 98.0723 100.038 105.365 100.038 105.178C100.225 105.178 101.347 98.0723 109.388 91.7146C116.493 86.2919 130.892 82.1781 136.127 75.0724C142.111 66.8448 138.184 53.1945 138.558 53.5685C144.542 58.9912 151.648 67.5928 149.778 81.2431Z" fill="#3364F6"/>
</g>
<defs>
<clipPath id="clip0_1837_2">
<rect width="200" height="200" fill="white"/>
</clipPath>
</defs>
</svg>
