<?xml version="1.0" encoding="utf-8"?>
<!-- Generator: Adobe Illustrator 16.0.0, SVG Export Plug-In . SVG Version: 6.00 Build 0)  -->
<!DOCTYPE svg PUBLIC "-//W3C//DTD SVG 1.1//EN" "http://www.w3.org/Graphics/SVG/1.1/DTD/svg11.dtd">
<svg version="1.1" id="Calque_1" xmlns="http://www.w3.org/2000/svg" xmlns:xlink="http://www.w3.org/1999/xlink" x="0px" y="0px"
	 width="192px" height="192px" viewBox="0 0 192 192" enable-background="new 0 0 192 192" xml:space="preserve">
<title>JEX_A_Black</title>
<g id="Grid" display="none">
	<rect x="-0.039" display="inline" width="192" height="192"/>
	<line display="inline" fill="none" x1="-0.039" y1="0" x2="-0.039" y2="-14.477"/>
	<line display="inline" fill="none" x1="191.961" y1="0" x2="191.961" y2="-14.477"/>
	<line display="inline" fill="none" x1="191.961" y1="0" x2="206.438" y2="0"/>
	<line display="inline" fill="none" x1="-0.039" y1="192" x2="-0.039" y2="206.477"/>
	<line display="inline" fill="none" x1="191.961" y1="192" x2="191.961" y2="206.477"/>
	<line display="inline" fill="none" x1="191.961" y1="192" x2="206.438" y2="192"/>
</g>
<g id="Layer_2">
	<path fill="#00A19A" d="M19.545,143.155c-0.984,2.694-1.667,5.488-2.035,8.333C-13.241,108.298-3.157,48.356,40.033,17.604
		c36.955-26.312,87.284-23.164,120.671,7.547c0,0-34.253,33.907-45.196,43.124c-15.131,12.749-35.866,29.414-40.474,24.921
		s33.83-67.853,33.83-67.853s-44.889,71.501-51.532,67.2c-6.643-4.301,3.226-63.437,3.226-63.437s-21.082,87.667-29.03,86.093
		c-3.84-0.729-4.301-21.658-4.109-34.253C26.88,96.807,25.037,128.141,19.545,143.155z M116.391,113.933
		c6.489,8.947,59.98-19.814,59.98-19.814s-53.223,29.53-62.055,37.095s-12.402,16.243-4.915,18.547
		c14.745,4.34,66.739-6.912,66.739-6.912s-92.16,23.77-92.467,31.795c-0.423,7.412,24.96,7.681,28.8,7.681l0,0
		c-1.92,0-10.214,0-43.776,0.384c-5.53,0-9.869,0.308-12.826,0.537c48.122,22.256,105.175,1.285,127.429-46.838
		c15.789-34.143,10.184-74.36-14.341-102.883C168.96,33.523,110.707,106.215,116.391,113.933z M107.827,92.505
		C122.572,86.592,192,0,192,0S87.897,100.492,107.827,92.505L107.827,92.505z M82.829,121.844
		c-7.027-7.681-32.025,6.259-43.699,16.857c-9.216,8.332-13.44,19.199-11.52,27.455c1.503-4.378,4.353-8.168,8.141-10.828
		c7.411-5.568,16.089-6.49,19.43-2.074s0,12.52-7.411,18.087c-3.006,2.315-6.521,3.882-10.253,4.569
		c7.68,1.997,18.317-1.268,26.88-9.101C76.301,156.25,89.856,129.6,82.829,121.844z"/>
</g>
</svg>
