<?xml version="1.0" encoding="UTF-8"?>
<!DOCTYPE svg PUBLIC "-//W3C//DTD SVG 1.1//EN" "http://www.w3.org/Graphics/SVG/1.1/DTD/svg11.dtd">
<svg xmlns="http://www.w3.org/2000/svg" version="1.1" width="200px" height="200px" style="shape-rendering:geometricPrecision; text-rendering:geometricPrecision; image-rendering:optimizeQuality; fill-rule:evenodd; clip-rule:evenodd" xmlns:xlink="http://www.w3.org/1999/xlink">
<g><path style="opacity:0.304" fill="#120e0c" d="M 130.5,126.5 C 131.391,125.89 132.391,125.557 133.5,125.5C 137.973,126.956 142.307,126.623 146.5,124.5C 145.942,125.79 144.942,126.623 143.5,127C 139.759,127.502 136.092,127.502 132.5,127C 135.84,130.951 140.173,132.618 145.5,132C 143.579,132.36 141.912,133.194 140.5,134.5C 142.265,137.709 144.265,140.709 146.5,143.5C 147.698,139.559 149.698,136.059 152.5,133C 157.617,129.858 163.117,127.691 169,126.5C 169.684,125.216 169.517,124.049 168.5,123C 166.167,122.667 163.833,122.333 161.5,122C 163.256,121.798 164.922,121.298 166.5,120.5C 164.228,119.515 161.895,118.681 159.5,118C 161.167,117.667 162.833,117.333 164.5,117C 164.167,116.667 163.833,116.333 163.5,116C 160.176,115.483 157.51,114.65 155.5,113.5C 155.837,117.308 155.337,120.974 154,124.5C 155.725,118.14 154.058,112.807 149,108.5C 149.428,110.746 149.928,113.079 150.5,115.5C 150.401,117.799 149.734,119.799 148.5,121.5C 149.008,111.517 145.008,103.851 136.5,98.5C 135.833,97.8333 135.167,97.1667 134.5,96.5C 135.167,96.1667 135.833,95.8333 136.5,95.5C 137.404,94.791 137.737,93.791 137.5,92.5C 140.258,91.623 142.924,90.4563 145.5,89C 146.696,88.3457 146.696,87.8457 145.5,87.5C 139.715,89.7793 133.715,90.7793 127.5,90.5C 130.656,89.5661 133.989,88.8994 137.5,88.5C 143.712,87.8209 149.045,85.3209 153.5,81C 153.272,80.6012 152.938,80.4346 152.5,80.5C 159.222,67.86 159.055,55.1933 152,42.5C 149.559,39.5464 146.725,37.2131 143.5,35.5C 144.239,35.631 144.906,35.4643 145.5,35C 143.568,33.5415 141.568,32.3748 139.5,31.5C 142.999,31.741 143.332,30.9076 140.5,29C 129.272,22.7849 117.272,20.7849 104.5,23C 89.0913,26.9109 79.0913,36.4109 74.5,51.5C 75.1098,52.391 75.4431,53.391 75.5,54.5C 71.1667,54.1667 69.1667,56.1667 69.5,60.5C 68.8333,62.1667 68.1667,63.8333 67.5,65.5C 64.2044,63.9732 61.0377,64.3065 58,66.5C 54.205,74.2933 52.705,82.2933 53.5,90.5C 53.5,90.8333 53.5,91.1667 53.5,91.5C 52.8333,91.8333 52.1667,92.1667 51.5,92.5C 49.2219,89.5278 46.2219,87.8611 42.5,87.5C 44.3025,92.0963 45.8025,96.7629 47,101.5C 45.2685,97.705 43.2685,94.0383 41,90.5C 40.51,89.2068 40.3433,87.8734 40.5,86.5C 40.5,85.8333 40.5,85.1667 40.5,84.5C 43.5792,84.8042 46.4125,85.8042 49,87.5C 51.1992,79.7207 53.8658,72.054 57,64.5C 59.8002,62.5053 62.9668,61.5053 66.5,61.5C 67.6165,57.2675 69.2832,53.2675 71.5,49.5C 69.9711,42.7471 68.1378,36.0805 66,29.5C 64.8066,27.3949 63.1399,25.7282 61,24.5C 61.1484,23.175 60.9817,22.0084 60.5,21C 62.9368,19.6253 65.6035,19.1253 68.5,19.5C 69.176,28.3743 71.0094,37.041 74,45.5C 78.8679,34.9667 86.7012,27.4667 97.5,23C 111.939,17.8894 125.939,18.8894 139.5,26C 149.304,33.1308 155.971,42.4642 159.5,54C 160.816,60.3674 160.816,66.7008 159.5,73C 158.045,76.6963 156.212,80.1963 154,83.5C 148.955,88.051 143.788,92.3844 138.5,96.5C 146.125,105.464 155.458,111.631 166.5,115C 168.468,118.313 170.468,121.646 172.5,125C 171.743,126.512 170.743,127.846 169.5,129C 163.459,130.29 157.792,132.456 152.5,135.5C 151.21,137.657 150.376,139.99 150,142.5C 147.966,145.859 145.632,146.192 143,143.5C 142,141.5 141,139.5 140,137.5C 136.408,134.14 133.241,130.474 130.5,126.5 Z"/></g>
<g><path style="opacity:1" fill="#ce5a28" d="M 63.5,20.5 C 64.5,20.5 65.5,20.5 66.5,20.5C 66.4261,24.5412 65.0928,25.2079 62.5,22.5C 62.8627,21.8165 63.1961,21.1499 63.5,20.5 Z"/></g>
<g><path style="opacity:1" fill="#f3f3f3" d="M 139.5,31.5 C 138.432,30.5655 137.099,30.2322 135.5,30.5C 122.293,26.7876 109.626,28.2876 97.5,35C 95.2101,36.7772 93.5434,38.9438 92.5,41.5C 90.2542,43.6489 88.7542,46.3156 88,49.5C 82.2097,81.8728 95.3764,95.5395 127.5,90.5C 133.715,90.7793 139.715,89.7793 145.5,87.5C 146.696,87.8457 146.696,88.3457 145.5,89C 142.924,90.4563 140.258,91.623 137.5,92.5C 123.121,96.6647 108.788,96.498 94.5,92C 87.2491,89.4093 81.9158,84.7426 78.5,78C 85.8275,70.356 86.4942,62.0227 80.5,53C 78.6547,51.872 76.6547,51.372 74.5,51.5C 79.0913,36.4109 89.0913,26.9109 104.5,23C 117.272,20.7849 129.272,22.7849 140.5,29C 143.332,30.9076 142.999,31.741 139.5,31.5 Z"/></g>
<g><path style="opacity:1" fill="#223532" d="M 135.5,30.5 C 126.1,30.1137 116.766,30.6137 107.5,32C 101.49,33.6662 96.4901,36.8328 92.5,41.5C 93.5434,38.9438 95.2101,36.7772 97.5,35C 109.626,28.2876 122.293,26.7876 135.5,30.5 Z"/></g>
<g><path style="opacity:1" fill="#20e0c9" d="M 135.5,30.5 C 135.918,31.2216 136.584,31.7216 137.5,32C 129.5,32.3333 121.5,32.6667 113.5,33C 110.401,33.3874 107.734,34.5541 105.5,36.5C 103.596,36.7376 102.262,37.7376 101.5,39.5C 99.5,39.5 98.5,40.5 98.5,42.5C 97.0937,42.9731 96.427,43.9731 96.5,45.5C 95.3263,46.5137 94.6596,47.847 94.5,49.5C 90.5559,57.4727 90.5559,65.4727 94.5,73.5C 95.6737,74.5137 96.3404,75.847 96.5,77.5C 98.8253,82.6467 102.825,85.8134 108.5,87C 117.827,87.4998 127.161,87.6665 136.5,87.5C 137.167,87.5 137.5,87.8333 137.5,88.5C 133.989,88.8994 130.656,89.5661 127.5,90.5C 96.746,94.2478 83.9127,80.9145 89,50.5C 90.1798,47.4788 91.3465,44.4788 92.5,41.5C 96.4901,36.8328 101.49,33.6662 107.5,32C 116.766,30.6137 126.1,30.1137 135.5,30.5 Z"/></g>
<g><path style="opacity:1" fill="#d9dad9" d="M 125.5,34.5 C 122.058,34.945 119.391,36.6117 117.5,39.5C 117.167,39.5 116.833,39.5 116.5,39.5C 115.128,38.4884 113.795,37.4884 112.5,36.5C 112.389,35.8826 112.056,35.3826 111.5,35C 116.277,33.4121 120.943,33.2454 125.5,34.5 Z"/></g>
<g><path style="opacity:0.997" fill="#eaeef1" d="M 143.5,35.5 C 146.725,37.2131 149.559,39.5464 152,42.5C 159.055,55.1933 159.222,67.86 152.5,80.5C 150.973,80.427 149.973,81.0937 149.5,82.5C 144.175,83.8312 138.842,85.1645 133.5,86.5C 132.893,86.3764 132.56,86.0431 132.5,85.5C 134.181,83.9925 136.181,82.9925 138.5,82.5C 141.354,81.7949 144.021,80.7949 146.5,79.5C 148.844,78.0834 151.177,76.7501 153.5,75.5C 153.649,74.448 153.483,73.448 153,72.5C 148.943,70.4077 145.443,67.741 142.5,64.5C 143.287,61.5923 144.62,58.9256 146.5,56.5C 147.404,55.791 147.737,54.791 147.5,53.5C 148.535,50.5427 147.535,48.2094 144.5,46.5C 143.738,44.7376 142.404,43.7376 140.5,43.5C 139.167,43.5 137.833,43.5 136.5,43.5C 136.088,41.1133 135.088,39.1133 133.5,37.5C 132.128,36.4884 130.795,35.4884 129.5,34.5C 130.449,33.8476 131.615,33.5143 133,33.5C 136.527,34.0909 140.027,34.7575 143.5,35.5 Z"/></g>
<g><path style="opacity:1" fill="#3f534e" d="M 135.5,30.5 C 137.099,30.2322 138.432,30.5655 139.5,31.5C 141.568,32.3748 143.568,33.5415 145.5,35C 144.906,35.4643 144.239,35.631 143.5,35.5C 140.027,34.7575 136.527,34.0909 133,33.5C 131.615,33.5143 130.449,33.8476 129.5,34.5C 128.167,34.5 126.833,34.5 125.5,34.5C 120.943,33.2454 116.277,33.4121 111.5,35C 112.056,35.3826 112.389,35.8826 112.5,36.5C 110.167,36.5 107.833,36.5 105.5,36.5C 107.734,34.5541 110.401,33.3874 113.5,33C 121.5,32.6667 129.5,32.3333 137.5,32C 136.584,31.7216 135.918,31.2216 135.5,30.5 Z"/></g>
<g><path style="opacity:1" fill="#e5b434" d="M 125.5,34.5 C 126.833,34.5 128.167,34.5 129.5,34.5C 130.795,35.4884 132.128,36.4884 133.5,37.5C 133.539,38.5832 133.873,39.5832 134.5,40.5C 130.592,41.0955 126.926,42.0955 123.5,43.5C 122.022,43.762 120.689,43.4287 119.5,42.5C 119.058,41.2613 118.391,40.2613 117.5,39.5C 119.391,36.6117 122.058,34.945 125.5,34.5 Z"/></g>
<g><path style="opacity:1" fill="#e8b734" d="M 105.5,36.5 C 107.833,36.5 110.167,36.5 112.5,36.5C 113.795,37.4884 115.128,38.4884 116.5,39.5C 117.028,40.7206 117.695,41.8873 118.5,43C 116.04,43.0625 113.54,42.8958 111,42.5C 108.7,42.4944 106.534,42.9944 104.5,44C 109.688,42.8836 114.688,43.5502 119.5,46C 117.122,46.5112 114.788,47.1779 112.5,48C 115.811,47.7852 119.144,47.7852 122.5,48C 123.167,48.3333 123.833,48.6667 124.5,49C 122.942,49.21 121.609,49.71 120.5,50.5C 118.833,50.5 117.167,50.5 115.5,50.5C 115.265,49.9033 114.765,49.5699 114,49.5C 111.766,50.7015 109.599,52.0348 107.5,53.5C 105.776,52.3387 104.11,52.5053 102.5,54C 104.878,54.9745 104.544,55.6411 101.5,56C 106.833,56.6667 106.833,57.3333 101.5,58C 103.134,58.4935 104.801,58.6602 106.5,58.5C 107.514,59.6737 108.847,60.3404 110.5,60.5C 106.603,61.8161 106.936,62.8161 111.5,63.5C 111.265,66.4108 112.265,69.0774 114.5,71.5C 116.237,77.3814 120.237,80.3814 126.5,80.5C 130.5,81.1667 134.5,81.8333 138.5,82.5C 136.181,82.9925 134.181,83.9925 132.5,85.5C 124.869,86.5644 117.202,86.7311 109.5,86C 104.223,84.5475 99.8901,81.7141 96.5,77.5C 96.3404,75.847 95.6737,74.5137 94.5,73.5C 93.205,65.4929 93.205,57.4929 94.5,49.5C 94.6596,47.847 95.3263,46.5137 96.5,45.5C 97.9063,45.0269 98.573,44.0269 98.5,42.5C 99.8333,41.8333 100.833,40.8333 101.5,39.5C 103.404,39.2624 104.738,38.2624 105.5,36.5 Z"/></g>
<g><path style="opacity:1" fill="#4e4820" d="M 105.5,36.5 C 104.738,38.2624 103.404,39.2624 101.5,39.5C 102.262,37.7376 103.596,36.7376 105.5,36.5 Z"/></g>
<g><path style="opacity:1" fill="#364329" d="M 101.5,39.5 C 100.833,40.8333 99.8333,41.8333 98.5,42.5C 98.5,40.5 99.5,39.5 101.5,39.5 Z"/></g>
<g><path style="opacity:1" fill="#a6852b" d="M 133.5,37.5 C 135.088,39.1133 136.088,41.1133 136.5,43.5C 132.203,42.4879 127.87,42.4879 123.5,43.5C 126.926,42.0955 130.592,41.0955 134.5,40.5C 133.873,39.5832 133.539,38.5832 133.5,37.5 Z"/></g>
<g><path style="opacity:1" fill="#e2b332" d="M 136.5,43.5 C 137.833,43.5 139.167,43.5 140.5,43.5C 141.598,44.397 141.598,45.2303 140.5,46C 138.32,46.4188 136.154,46.2521 134,45.5C 132.124,45.5247 130.624,46.1914 129.5,47.5C 126.333,48.463 123.333,47.7963 120.5,45.5C 121.602,44.8243 122.602,44.1577 123.5,43.5C 127.87,42.4879 132.203,42.4879 136.5,43.5 Z"/></g>
<g><path style="opacity:1" fill="#413f1f" d="M 98.5,42.5 C 98.573,44.0269 97.9063,45.0269 96.5,45.5C 96.427,43.9731 97.0937,42.9731 98.5,42.5 Z"/></g>
<g><path style="opacity:1" fill="#907425" d="M 116.5,39.5 C 116.833,39.5 117.167,39.5 117.5,39.5C 118.391,40.2613 119.058,41.2613 119.5,42.5C 120.689,43.4287 122.022,43.762 123.5,43.5C 122.602,44.1577 121.602,44.8243 120.5,45.5C 123.333,47.7963 126.333,48.463 129.5,47.5C 129.611,48.1174 129.944,48.6174 130.5,49C 127.59,49.2022 124.923,50.0355 122.5,51.5C 121.833,51.5 121.167,51.5 120.5,51.5C 120.5,51.1667 120.5,50.8333 120.5,50.5C 121.609,49.71 122.942,49.21 124.5,49C 123.833,48.6667 123.167,48.3333 122.5,48C 119.144,47.7852 115.811,47.7852 112.5,48C 114.788,47.1779 117.122,46.5112 119.5,46C 114.688,43.5502 109.688,42.8836 104.5,44C 106.534,42.9944 108.7,42.4944 111,42.5C 113.54,42.8958 116.04,43.0625 118.5,43C 117.695,41.8873 117.028,40.7206 116.5,39.5 Z"/></g>
<g><path style="opacity:1" fill="#b08d2d" d="M 140.5,43.5 C 142.404,43.7376 143.738,44.7376 144.5,46.5C 141.312,47.9819 137.979,48.9819 134.5,49.5C 133.209,49.2627 132.209,49.596 131.5,50.5C 130.5,51.1667 129.5,51.8333 128.5,52.5C 127.833,52.5 127.167,52.5 126.5,52.5C 125.167,52.1667 123.833,51.8333 122.5,51.5C 124.923,50.0355 127.59,49.2022 130.5,49C 129.944,48.6174 129.611,48.1174 129.5,47.5C 130.624,46.1914 132.124,45.5247 134,45.5C 136.154,46.2521 138.32,46.4188 140.5,46C 141.598,45.2303 141.598,44.397 140.5,43.5 Z"/></g>
<g><path style="opacity:1" fill="#817350" d="M 144.5,46.5 C 147.535,48.2094 148.535,50.5427 147.5,53.5C 147.426,51.5891 146.426,50.4224 144.5,50C 142.613,49.2204 140.946,49.3871 139.5,50.5C 137.958,49.6993 136.292,49.366 134.5,49.5C 137.979,48.9819 141.312,47.9819 144.5,46.5 Z"/></g>
<g><path style="opacity:1" fill="#e4e7e9" d="M 147.5,53.5 C 146.5,53.8333 145.833,54.5 145.5,55.5C 142.833,56.1667 140.167,56.8333 137.5,57.5C 140.485,55.9016 141.151,53.5682 139.5,50.5C 140.946,49.3871 142.613,49.2204 144.5,50C 146.426,50.4224 147.426,51.5891 147.5,53.5 Z"/></g>
<g><path style="opacity:1" fill="#787873" d="M 115.5,50.5 C 117.167,50.5 118.833,50.5 120.5,50.5C 120.5,50.8333 120.5,51.1667 120.5,51.5C 119.209,51.2627 118.209,51.596 117.5,52.5C 115.5,53.1667 113.5,53.8333 111.5,54.5C 111.833,53.8333 112.167,53.1667 112.5,52.5C 113.5,51.8333 114.5,51.1667 115.5,50.5 Z"/></g>
<g><path style="opacity:1" fill="#e4e8eb" d="M 117.5,52.5 C 118.209,51.596 119.209,51.2627 120.5,51.5C 121.167,51.5 121.833,51.5 122.5,51.5C 123.833,51.8333 125.167,52.1667 126.5,52.5C 126.675,54.6208 126.341,56.6208 125.5,58.5C 122.692,59.9288 119.692,60.5955 116.5,60.5C 118.443,59.7089 119.443,58.2089 119.5,56C 119.613,54.3009 118.947,53.1342 117.5,52.5 Z"/></g>
<g><path style="opacity:1" fill="#212425" d="M 131.5,50.5 C 132.209,49.596 133.209,49.2627 134.5,49.5C 136.292,49.366 137.958,49.6993 139.5,50.5C 141.151,53.5682 140.485,55.9016 137.5,57.5C 137.167,57.5 136.833,57.5 136.5,57.5C 132.736,56.615 131.736,54.4484 133.5,51C 132.906,50.5357 132.239,50.369 131.5,50.5 Z"/></g>
<g><path style="opacity:1" fill="#dde0e0" d="M 131.5,50.5 C 132.239,50.369 132.906,50.5357 133.5,51C 131.736,54.4484 132.736,56.615 136.5,57.5C 134.393,58.4682 132.059,58.8016 129.5,58.5C 127.338,56.8311 127.005,54.8311 128.5,52.5C 129.5,51.8333 130.5,51.1667 131.5,50.5 Z"/></g>
<g><path style="opacity:1" fill="#9c7e2b" d="M 115.5,50.5 C 114.5,51.1667 113.5,51.8333 112.5,52.5C 109.5,53.5 107.5,55.5 106.5,58.5C 104.801,58.6602 103.134,58.4935 101.5,58C 106.833,57.3333 106.833,56.6667 101.5,56C 104.544,55.6411 104.878,54.9745 102.5,54C 104.11,52.5053 105.776,52.3387 107.5,53.5C 109.599,52.0348 111.766,50.7015 114,49.5C 114.765,49.5699 115.265,49.9033 115.5,50.5 Z"/></g>
<g><path style="opacity:1" fill="#dbdddd" d="M 112.5,52.5 C 112.167,53.1667 111.833,53.8333 111.5,54.5C 111.253,56.8583 111.919,58.8583 113.5,60.5C 112.5,60.5 111.5,60.5 110.5,60.5C 108.847,60.3404 107.514,59.6737 106.5,58.5C 107.5,55.5 109.5,53.5 112.5,52.5 Z"/></g>
<g><path style="opacity:1" fill="#1a1c1e" d="M 117.5,52.5 C 118.947,53.1342 119.613,54.3009 119.5,56C 119.443,58.2089 118.443,59.7089 116.5,60.5C 115.5,60.5 114.5,60.5 113.5,60.5C 111.919,58.8583 111.253,56.8583 111.5,54.5C 113.5,53.8333 115.5,53.1667 117.5,52.5 Z"/></g>
<g><path style="opacity:1" fill="#5f5a48" d="M 147.5,53.5 C 147.737,54.791 147.404,55.791 146.5,56.5C 146.5,55.8333 146.167,55.5 145.5,55.5C 145.833,54.5 146.5,53.8333 147.5,53.5 Z"/></g>
<g><path style="opacity:1" fill="#bb9732" d="M 145.5,55.5 C 146.167,55.5 146.5,55.8333 146.5,56.5C 143.603,57.129 140.936,58.129 138.5,59.5C 137.833,59.5 137.167,59.5 136.5,59.5C 132.638,59.9337 130.305,59.6004 129.5,58.5C 132.059,58.8016 134.393,58.4682 136.5,57.5C 136.833,57.5 137.167,57.5 137.5,57.5C 140.167,56.8333 142.833,56.1667 145.5,55.5 Z"/></g>
<g><path style="opacity:1" fill="#454c2e" d="M 94.5,49.5 C 93.205,57.4929 93.205,65.4929 94.5,73.5C 90.5559,65.4727 90.5559,57.4727 94.5,49.5 Z"/></g>
<g><path style="opacity:1" fill="#7e5c2e" d="M 126.5,52.5 C 127.167,52.5 127.833,52.5 128.5,52.5C 127.005,54.8311 127.338,56.8311 129.5,58.5C 130.305,59.6004 132.638,59.9337 136.5,59.5C 133.375,60.4794 130.042,60.8128 126.5,60.5C 126.672,59.5084 126.338,58.8417 125.5,58.5C 126.341,56.6208 126.675,54.6208 126.5,52.5 Z"/></g>
<g><path style="opacity:1" fill="#7c6138" d="M 146.5,56.5 C 144.62,58.9256 143.287,61.5923 142.5,64.5C 142.167,64.5 141.833,64.5 141.5,64.5C 141.408,62.1523 140.408,60.4856 138.5,59.5C 140.936,58.129 143.603,57.129 146.5,56.5 Z"/></g>
<g><path style="opacity:1" fill="#bc9639" d="M 125.5,58.5 C 126.338,58.8417 126.672,59.5084 126.5,60.5C 124.409,61.8654 122.076,62.5321 119.5,62.5C 116.615,62.1936 113.948,62.5269 111.5,63.5C 106.936,62.8161 106.603,61.8161 110.5,60.5C 111.5,60.5 112.5,60.5 113.5,60.5C 114.5,60.5 115.5,60.5 116.5,60.5C 119.692,60.5955 122.692,59.9288 125.5,58.5 Z"/></g>
<g><path style="opacity:1" fill="#e26735" d="M 136.5,59.5 C 137.167,59.5 137.833,59.5 138.5,59.5C 140.408,60.4856 141.408,62.1523 141.5,64.5C 140.427,65.2506 140.26,66.2506 141,67.5C 143.383,70.2728 146.217,72.4395 149.5,74C 147.5,75 145.5,76 143.5,77C 144.056,77.3826 144.389,77.8826 144.5,78.5C 138.943,79.7871 133.443,79.4537 128,77.5C 126.238,77.9444 126.405,78.4444 128.5,79C 130.167,79.3333 131.833,79.6667 133.5,80C 131.19,80.4966 128.857,80.6633 126.5,80.5C 120.237,80.3814 116.237,77.3814 114.5,71.5C 114.435,71.0618 114.601,70.7284 115,70.5C 116.113,72.3293 117.613,73.1626 119.5,73C 116.112,70.4687 113.779,67.302 112.5,63.5C 115.059,63.8016 117.393,63.4682 119.5,62.5C 122.076,62.5321 124.409,61.8654 126.5,60.5C 130.042,60.8128 133.375,60.4794 136.5,59.5 Z"/></g>
<g><path style="opacity:1" fill="#f6f6f6" d="M 67.5,65.5 C 67.8092,71.9691 70.9759,76.3024 77,78.5C 78.7068,80.9088 79.5402,83.5755 79.5,86.5C 75.13,86.6152 70.9633,85.9485 67,84.5C 65.2933,84.5085 63.7933,84.8418 62.5,85.5C 60.6162,86.3816 59.2829,87.8816 58.5,90C 56.8659,90.4935 55.1992,90.6602 53.5,90.5C 52.705,82.2933 54.205,74.2933 58,66.5C 61.0377,64.3065 64.2044,63.9732 67.5,65.5 Z"/></g>
<g><path style="opacity:1" fill="#c3c3ae" d="M 69.5,60.5 C 69.1667,56.1667 71.1667,54.1667 75.5,54.5C 75.8333,55.5 76.5,56.1667 77.5,56.5C 77.5858,55.5041 77.2524,54.6708 76.5,54C 77.5,53.3333 78.5,53.3333 79.5,54C 82.4119,59.4605 83.2452,65.2939 82,71.5C 81.5348,72.9308 80.7014,74.0975 79.5,75C 78.2559,75.4561 77.4226,74.9561 77,73.5C 74.7328,74.9348 72.7328,74.6015 71,72.5C 69.7338,68.6049 69.2338,64.6049 69.5,60.5 Z"/></g>
<g><path style="opacity:0.992" fill="#1d1916" d="M 72.5,58.5 C 73.3864,57.2241 74.3864,57.2241 75.5,58.5C 76.5999,62.4425 76.7666,66.4425 76,70.5C 75.0228,71.7736 74.1894,71.7736 73.5,70.5C 74.1174,70.3893 74.6174,70.056 75,69.5C 75.6667,66.5 75.6667,63.5 75,60.5C 74.5831,59.244 73.7498,58.5774 72.5,58.5 Z"/></g>
<g><path style="opacity:0.98" fill="#593524" d="M 72.5,58.5 C 72.307,62.5662 72.6403,66.5662 73.5,70.5C 71.452,68.5436 70.452,66.0436 70.5,63C 70.3068,60.9919 70.9735,59.4919 72.5,58.5 Z"/></g>
<g><path style="opacity:1" fill="#141412" d="M 77.5,56.5 C 78.2216,56.9175 78.7216,57.5842 79,58.5C 79.6667,62.8333 79.6667,67.1667 79,71.5C 78.6643,66.4682 78.1643,61.4682 77.5,56.5 Z"/></g>
<g><path style="opacity:0.98" fill="#d95f2b" d="M 72.5,58.5 C 73.7498,58.5774 74.5831,59.244 75,60.5C 75.6667,63.5 75.6667,66.5 75,69.5C 74.6174,70.056 74.1174,70.3893 73.5,70.5C 72.6403,66.5662 72.307,62.5662 72.5,58.5 Z"/></g>
<g><path style="opacity:1" fill="#894823" d="M 119.5,62.5 C 117.393,63.4682 115.059,63.8016 112.5,63.5C 113.779,67.302 116.112,70.4687 119.5,73C 117.613,73.1626 116.113,72.3293 115,70.5C 114.601,70.7284 114.435,71.0618 114.5,71.5C 112.265,69.0774 111.265,66.4108 111.5,63.5C 113.948,62.5269 116.615,62.1936 119.5,62.5 Z"/></g>
<g><path style="opacity:1" fill="#ba5b35" d="M 141.5,64.5 C 141.833,64.5 142.167,64.5 142.5,64.5C 145.443,67.741 148.943,70.4077 153,72.5C 153.483,73.448 153.649,74.448 153.5,75.5C 151.177,76.7501 148.844,78.0834 146.5,79.5C 145.833,79.1667 145.167,78.8333 144.5,78.5C 144.389,77.8826 144.056,77.3826 143.5,77C 145.5,76 147.5,75 149.5,74C 146.217,72.4395 143.383,70.2728 141,67.5C 140.26,66.2506 140.427,65.2506 141.5,64.5 Z"/></g>
<g><path style="opacity:1" fill="#2c3b38" d="M 92.5,41.5 C 91.3465,44.4788 90.1798,47.4788 89,50.5C 83.9127,80.9145 96.746,94.2478 127.5,90.5C 95.3764,95.5395 82.2097,81.8728 88,49.5C 88.7542,46.3156 90.2542,43.6489 92.5,41.5 Z"/></g>
<g><path style="opacity:1" fill="#8a4a27" d="M 144.5,78.5 C 145.167,78.8333 145.833,79.1667 146.5,79.5C 144.021,80.7949 141.354,81.7949 138.5,82.5C 134.5,81.8333 130.5,81.1667 126.5,80.5C 128.857,80.6633 131.19,80.4966 133.5,80C 131.833,79.6667 130.167,79.3333 128.5,79C 126.405,78.4444 126.238,77.9444 128,77.5C 133.443,79.4537 138.943,79.7871 144.5,78.5 Z"/></g>
<g><path style="opacity:0.339" fill="#1b130e" d="M 40.5,84.5 C 40.5,85.1667 40.5,85.8333 40.5,86.5C 38.7704,85.0243 37.4371,85.3576 36.5,87.5C 38.8676,91.3738 41.0343,95.3738 43,99.5C 43.6667,100.833 43.6667,102.167 43,103.5C 42.0642,99.7926 40.2308,96.6259 37.5,94C 35.1667,93.3333 32.8333,93.3333 30.5,94C 29.0439,94.4226 28.5439,95.2559 29,96.5C 32.5666,98.0371 35.7333,100.204 38.5,103C 33.3664,101.296 30.3664,103.129 29.5,108.5C 31.7867,108.276 33.9534,107.609 36,106.5C 38.2767,108.874 40.4434,111.374 42.5,114C 45.2305,114.728 47.8971,114.562 50.5,113.5C 52.0715,117.937 55.0715,120.103 59.5,120C 60.0219,119.439 60.3552,118.772 60.5,118C 59.2135,115.929 58.0468,113.762 57,111.5C 56.2472,104.817 54.4139,98.4836 51.5,92.5C 52.1667,92.1667 52.8333,91.8333 53.5,91.5C 55.3012,98.9041 57.6345,105.904 60.5,112.5C 60.5,113.167 60.5,113.833 60.5,114.5C 62.9136,120.589 60.9136,122.755 54.5,121C 52.9825,119.315 51.3159,117.815 49.5,116.5C 48.0585,119.736 48.3919,122.736 50.5,125.5C 54.014,127.117 57.6807,128.117 61.5,128.5C 62.5676,129.434 63.901,129.768 65.5,129.5C 65.5,131.167 65.5,132.833 65.5,134.5C 64.4324,135.434 63.099,135.768 61.5,135.5C 61.5,135.167 61.5,134.833 61.5,134.5C 65.4221,133.883 65.4221,133.216 61.5,132.5C 59.7927,132.728 58.126,133.062 56.5,133.5C 49.7813,140.795 48.7813,148.795 53.5,157.5C 53.2893,159.424 52.6226,159.757 51.5,158.5C 51.1141,155.738 49.7808,154.738 47.5,155.5C 48.1925,156.518 48.8592,157.518 49.5,158.5C 49.6716,159.492 49.3382,160.158 48.5,160.5C 42.9028,151.316 43.2362,142.316 49.5,133.5C 49.1667,133.167 48.8333,132.833 48.5,132.5C 46.8144,133.857 45.1477,135.19 43.5,136.5C 40.5086,142.141 38.5086,148.141 37.5,154.5C 37.6946,157.218 38.6946,159.551 40.5,161.5C 40.573,163.027 39.9063,164.027 38.5,164.5C 36.321,164.16 34.4877,163.16 33,161.5C 30.3759,149.368 33.8759,138.868 43.5,130C 46.1743,128.613 48.8409,128.113 51.5,128.5C 47.0726,125.976 45.0726,121.976 45.5,116.5C 41.0794,115.75 37.7461,113.417 35.5,109.5C 31.3356,112.906 28.6689,112.072 27.5,107C 27.99,104.497 29.3234,102.497 31.5,101C 26.2052,97.5953 26.2052,94.0953 31.5,90.5C 33.0175,91.9108 34.3508,91.7441 35.5,90C 33.666,85.3252 35.3327,83.4919 40.5,84.5 Z M 51.5,128.5 C 53.3547,128.272 54.1881,128.939 54,130.5C 53.0053,129.934 52.172,129.267 51.5,128.5 Z"/></g>
<g><path style="opacity:1" fill="#2a4b3b" d="M 96.5,77.5 C 99.8901,81.7141 104.223,84.5475 109.5,86C 117.202,86.7311 124.869,86.5644 132.5,85.5C 132.56,86.0431 132.893,86.3764 133.5,86.5C 138.842,85.1645 144.175,83.8312 149.5,82.5C 145.333,84.624 141,86.2906 136.5,87.5C 127.161,87.6665 117.827,87.4998 108.5,87C 102.825,85.8134 98.8253,82.6467 96.5,77.5 Z"/></g>
<g><path style="opacity:1" fill="#22c0ad" d="M 152.5,80.5 C 152.938,80.4346 153.272,80.6012 153.5,81C 149.045,85.3209 143.712,87.8209 137.5,88.5C 137.5,87.8333 137.167,87.5 136.5,87.5C 141,86.2906 145.333,84.624 149.5,82.5C 149.973,81.0937 150.973,80.427 152.5,80.5 Z"/></g>
<g><path style="opacity:1" fill="#e4632d" d="M 40.5,86.5 C 40.3433,87.8734 40.51,89.2068 41,90.5C 43.2685,94.0383 45.2685,97.705 47,101.5C 45.8025,96.7629 44.3025,92.0963 42.5,87.5C 46.2219,87.8611 49.2219,89.5278 51.5,92.5C 54.4139,98.4836 56.2472,104.817 57,111.5C 58.0468,113.762 59.2135,115.929 60.5,118C 60.3552,118.772 60.0219,119.439 59.5,120C 55.0715,120.103 52.0715,117.937 50.5,113.5C 47.8971,114.562 45.2305,114.728 42.5,114C 40.4434,111.374 38.2767,108.874 36,106.5C 33.9534,107.609 31.7867,108.276 29.5,108.5C 30.3664,103.129 33.3664,101.296 38.5,103C 35.7333,100.204 32.5666,98.0371 29,96.5C 28.5439,95.2559 29.0439,94.4226 30.5,94C 32.8333,93.3333 35.1667,93.3333 37.5,94C 40.2308,96.6259 42.0642,99.7926 43,103.5C 43.6667,102.167 43.6667,100.833 43,99.5C 41.0343,95.3738 38.8676,91.3738 36.5,87.5C 37.4371,85.3576 38.7704,85.0243 40.5,86.5 Z"/></g>
<g><path style="opacity:1" fill="#c95727" d="M 53.5,91.5 C 56.1117,92.7787 58.4451,94.4453 60.5,96.5C 61.8333,101.833 61.8333,107.167 60.5,112.5C 57.6345,105.904 55.3012,98.9041 53.5,91.5 Z"/></g>
<g><path style="opacity:1" fill="#2b312e" d="M 74.5,51.5 C 76.6547,51.372 78.6547,51.872 80.5,53C 86.4942,62.0227 85.8275,70.356 78.5,78C 81.9158,84.7426 87.2491,89.4093 94.5,92C 108.788,96.498 123.121,96.6647 137.5,92.5C 137.737,93.791 137.404,94.791 136.5,95.5C 136.265,94.9033 135.765,94.5699 135,94.5C 132.865,95.1271 130.698,95.6271 128.5,96C 127.244,96.4169 126.577,97.2502 126.5,98.5C 123.6,97.2634 120.433,96.5967 117,96.5C 113.979,96.5022 111.146,96.8356 108.5,97.5C 107.883,97.6107 107.383,97.944 107,98.5C 103.284,96.3902 99.2835,94.7235 95,93.5C 94.228,93.6448 93.5613,93.9781 93,94.5C 91.0354,91.9214 88.5354,89.9214 85.5,88.5C 84.246,90.2592 84.5794,91.7592 86.5,93C 97.9614,99.3148 110.295,101.815 123.5,100.5C 111.025,102.993 99.025,101.326 87.5,95.5C 87.5356,101.809 85.5356,107.309 81.5,112C 78.854,112.497 76.1873,112.664 73.5,112.5C 73.6287,114.216 73.962,115.883 74.5,117.5C 80.6266,125.062 88.2932,130.395 97.5,133.5C 93.3754,133.723 92.7088,135.223 95.5,138C 99.4726,138.998 103.473,139.331 107.5,139C 108.337,137.989 108.67,136.822 108.5,135.5C 109.167,136.167 109.833,136.833 110.5,137.5C 111.946,138.613 113.613,138.78 115.5,138C 118.764,137.362 121.764,136.196 124.5,134.5C 125.805,136.397 126.471,138.731 126.5,141.5C 126.497,144.025 126.163,146.359 125.5,148.5C 125.666,144.154 125.499,139.821 125,135.5C 118.659,139.032 111.825,140.698 104.5,140.5C 89.3541,139.678 77.5208,133.011 69,120.5C 67.7506,125.278 66.5839,129.945 65.5,134.5C 65.5,132.833 65.5,131.167 65.5,129.5C 63.901,129.768 62.5676,129.434 61.5,128.5C 62.8333,128.5 64.1667,128.5 65.5,128.5C 66.6845,123.575 67.3512,118.575 67.5,113.5C 65.0504,113.298 62.717,113.631 60.5,114.5C 60.5,113.833 60.5,113.167 60.5,112.5C 61.8333,107.167 61.8333,101.833 60.5,96.5C 58.4451,94.4453 56.1117,92.7787 53.5,91.5C 53.5,91.1667 53.5,90.8333 53.5,90.5C 55.1992,90.6602 56.8659,90.4935 58.5,90C 59.2829,87.8816 60.6162,86.3816 62.5,85.5C 63.7933,84.8418 65.2933,84.5085 67,84.5C 70.9633,85.9485 75.13,86.6152 79.5,86.5C 79.5402,83.5755 78.7068,80.9088 77,78.5C 70.9759,76.3024 67.8092,71.9691 67.5,65.5C 68.1667,63.8333 68.8333,62.1667 69.5,60.5C 69.2338,64.6049 69.7338,68.6049 71,72.5C 72.7328,74.6015 74.7328,74.9348 77,73.5C 77.4226,74.9561 78.2559,75.4561 79.5,75C 80.7014,74.0975 81.5348,72.9308 82,71.5C 83.2452,65.2939 82.4119,59.4605 79.5,54C 78.5,53.3333 77.5,53.3333 76.5,54C 77.2524,54.6708 77.5858,55.5041 77.5,56.5C 76.5,56.1667 75.8333,55.5 75.5,54.5C 75.4431,53.391 75.1098,52.391 74.5,51.5 Z"/></g>
<g><path style="opacity:1" fill="#383122" d="M 67.5,91.5 C 69.1361,92.7489 70.3028,94.4156 71,96.5C 71.8045,99.6965 71.6378,102.696 70.5,105.5C 70.9594,100.485 69.9594,95.8187 67.5,91.5 Z"/></g>
<g><path style="opacity:1" fill="#f3f3f3" d="M 67.5,91.5 C 69.9594,95.8187 70.9594,100.485 70.5,105.5C 69.3104,107.355 67.9771,109.188 66.5,111C 65.2068,111.49 63.8734,111.657 62.5,111.5C 63.412,107.869 63.5787,104.203 63,100.5C 62.7996,98.6803 61.9663,97.347 60.5,96.5C 60.2969,94.9557 59.6302,93.6223 58.5,92.5C 61.2947,90.312 64.2947,89.9786 67.5,91.5 Z"/></g>
<g><path style="opacity:1" fill="#f7f7f7" d="M 79.5,110.5 C 77.2646,110.795 75.2646,110.461 73.5,109.5C 75.8002,104.568 75.9669,99.5677 74,94.5C 73.6174,93.944 73.1174,93.6107 72.5,93.5C 72.2488,91.8297 71.5822,90.3297 70.5,89C 83.1046,86.616 87.6046,91.7827 84,104.5C 83.6682,107.543 82.1682,109.543 79.5,110.5 Z"/></g>
<g><path style="opacity:1" fill="#d9a828" d="M 62.5,85.5 C 71.8148,85.54 72.3148,86.54 64,88.5C 61.4219,88.3176 60.9219,87.3176 62.5,85.5 Z"/></g>
<g><path style="opacity:1" fill="#20e6ce" d="M 108.5,97.5 C 114.271,96.8872 119.604,97.5539 124.5,99.5C 123.833,99.5 123.5,99.8333 123.5,100.5C 110.295,101.815 97.9614,99.3148 86.5,93C 84.5794,91.7592 84.246,90.2592 85.5,88.5C 88.5354,89.9214 91.0354,91.9214 93,94.5C 93.5613,93.9781 94.228,93.6448 95,93.5C 99.2835,94.7235 103.284,96.3902 107,98.5C 107.383,97.944 107.883,97.6107 108.5,97.5 Z"/></g>
<g><path style="opacity:1" fill="#f3f3f3" d="M 123.5,100.5 C 126.518,100.296 129.518,99.9629 132.5,99.5C 131.931,105.578 130.931,111.578 129.5,117.5C 129.347,126.82 124.681,132.32 115.5,134C 109.484,134.499 103.484,134.332 97.5,133.5C 88.2932,130.395 80.6266,125.062 74.5,117.5C 73.962,115.883 73.6287,114.216 73.5,112.5C 76.1873,112.664 78.854,112.497 81.5,112C 85.5356,107.309 87.5356,101.809 87.5,95.5C 99.025,101.326 111.025,102.993 123.5,100.5 Z"/></g>
<g><path style="opacity:1" fill="#148c7e" d="M 108.5,97.5 C 111.146,96.8356 113.979,96.5022 117,96.5C 120.433,96.5967 123.6,97.2634 126.5,98.5C 126.5,98.8333 126.5,99.1667 126.5,99.5C 125.833,99.5 125.167,99.5 124.5,99.5C 119.604,97.5539 114.271,96.8872 108.5,97.5 Z"/></g>
<g><path style="opacity:1" fill="#1dcfbb" d="M 136.5,95.5 C 135.833,95.8333 135.167,96.1667 134.5,96.5C 131.833,97.5 129.167,98.5 126.5,99.5C 126.5,99.1667 126.5,98.8333 126.5,98.5C 126.577,97.2502 127.244,96.4169 128.5,96C 130.698,95.6271 132.865,95.1271 135,94.5C 135.765,94.5699 136.265,94.9033 136.5,95.5 Z"/></g>
<g><path style="opacity:1" fill="#323636" d="M 134.5,96.5 C 135.167,97.1667 135.833,97.8333 136.5,98.5C 135.351,98.7911 134.684,99.6244 134.5,101C 133.422,106.694 132.088,112.194 130.5,117.5C 130.167,117.5 129.833,117.5 129.5,117.5C 130.931,111.578 131.931,105.578 132.5,99.5C 129.518,99.9629 126.518,100.296 123.5,100.5C 123.5,99.8333 123.833,99.5 124.5,99.5C 125.167,99.5 125.833,99.5 126.5,99.5C 129.167,98.5 131.833,97.5 134.5,96.5 Z"/></g>
<g><path style="opacity:1" fill="#f2f2f2" d="M 136.5,98.5 C 145.008,103.851 149.008,111.517 148.5,121.5C 147.094,121.973 146.427,122.973 146.5,124.5C 142.307,126.623 137.973,126.956 133.5,125.5C 132.89,124.609 132.557,123.609 132.5,122.5C 130.744,121.448 130.077,119.781 130.5,117.5C 132.088,112.194 133.422,106.694 134.5,101C 134.684,99.6244 135.351,98.7911 136.5,98.5 Z"/></g>
<g><path style="opacity:1" fill="#4bd0c0" d="M 122.5,104.5 C 123.793,103.355 124.959,103.689 126,105.5C 126.965,103.74 128.132,103.406 129.5,104.5C 127.027,106.098 127.027,107.598 129.5,109C 127.3,108.416 125.133,108.582 123,109.5C 122.689,108.258 123.189,107.258 124.5,106.5C 124.145,105.478 123.478,104.811 122.5,104.5 Z"/></g>
<g><path style="opacity:1" fill="#d3a327" d="M 72.5,93.5 C 73.5269,97.446 73.6936,101.446 73,105.5C 72.5883,107.997 71.4216,109.997 69.5,111.5C 69.1667,111.333 68.8333,111.167 68.5,111C 69.8613,109.416 70.528,107.582 70.5,105.5C 71.6378,102.696 71.8045,99.6965 71,96.5C 70.3028,94.4156 69.1361,92.7489 67.5,91.5C 67.3691,90.6236 67.7025,89.9569 68.5,89.5C 69.84,90.8665 71.1733,92.1999 72.5,93.5 Z"/></g>
<g><path style="opacity:1" fill="#8f8f8f" d="M 73.5,109.5 C 75.2646,110.461 77.2646,110.795 79.5,110.5C 77.3066,111.797 74.9732,111.797 72.5,110.5C 72.6236,109.893 72.9569,109.56 73.5,109.5 Z"/></g>
<g><path style="opacity:1" fill="#f3f3f3" d="M 61.5,128.5 C 57.6807,128.117 54.014,127.117 50.5,125.5C 48.3919,122.736 48.0585,119.736 49.5,116.5C 51.3159,117.815 52.9825,119.315 54.5,121C 60.9136,122.755 62.9136,120.589 60.5,114.5C 62.717,113.631 65.0504,113.298 67.5,113.5C 67.3512,118.575 66.6845,123.575 65.5,128.5C 64.1667,128.5 62.8333,128.5 61.5,128.5 Z"/></g>
<g><path style="opacity:1" fill="#3e3625" d="M 121.5,111.5 C 124.585,111.418 126.252,112.918 126.5,116C 126.043,121.385 124.043,126.051 120.5,130C 111.434,132.566 102.767,131.732 94.5,127.5C 93.4215,121.231 95.0882,115.731 99.5,111C 107.012,110.178 114.345,110.345 121.5,111.5 Z"/></g>
<g><path style="opacity:1" fill="#dfac2a" d="M 121.5,111.5 C 122.962,112.801 124.296,114.301 125.5,116C 123.48,129.34 116.48,133.173 104.5,127.5C 106.108,124.062 106.942,120.396 107,116.5C 105.677,120.127 104.511,123.793 103.5,127.5C 101.712,128.622 99.7116,128.789 97.5,128C 96.1772,127.184 95.5106,126.017 95.5,124.5C 97.8466,123.393 98.18,121.726 96.5,119.5C 96.6423,116.383 97.9756,113.883 100.5,112C 107.492,111.5 114.492,111.334 121.5,111.5 Z"/></g>
<g><path style="opacity:1" fill="#de612c" d="M 146.5,124.5 C 147.906,124.027 148.573,123.027 148.5,121.5C 149.734,119.799 150.401,117.799 150.5,115.5C 149.928,113.079 149.428,110.746 149,108.5C 154.058,112.807 155.725,118.14 154,124.5C 155.337,120.974 155.837,117.308 155.5,113.5C 157.51,114.65 160.176,115.483 163.5,116C 163.833,116.333 164.167,116.667 164.5,117C 162.833,117.333 161.167,117.667 159.5,118C 161.895,118.681 164.228,119.515 166.5,120.5C 164.922,121.298 163.256,121.798 161.5,122C 163.833,122.333 166.167,122.667 168.5,123C 169.517,124.049 169.684,125.216 169,126.5C 163.117,127.691 157.617,129.858 152.5,133C 149.698,136.059 147.698,139.559 146.5,143.5C 144.265,140.709 142.265,137.709 140.5,134.5C 141.912,133.194 143.579,132.36 145.5,132C 140.173,132.618 135.84,130.951 132.5,127C 136.092,127.502 139.759,127.502 143.5,127C 144.942,126.623 145.942,125.79 146.5,124.5 Z"/></g>
<g><path style="opacity:1" fill="#5b5b5b" d="M 140.5,116.5 C 140.461,115.244 140.961,114.244 142,113.5C 142.585,114.998 142.085,115.998 140.5,116.5 Z"/></g>
<g><path style="opacity:1" fill="#584311" d="M 121.5,117.5 C 120.5,117.5 119.5,117.5 118.5,117.5C 119.5,114.833 120.5,114.833 121.5,117.5 Z"/></g>
<g><path style="opacity:1" fill="#594411" d="M 111.5,115.5 C 114.79,116.656 115.29,118.656 113,121.5C 113.195,116.386 112.528,116.386 111,121.5C 109.09,119.373 109.257,117.373 111.5,115.5 Z"/></g>
<g><path style="opacity:1" fill="#1eddc7" d="M 74.5,117.5 C 75.6194,120.888 77.6194,123.721 80.5,126C 79.6667,126.833 78.8333,127.667 78,128.5C 72.4803,124.386 69.9803,119.053 70.5,112.5C 71.6888,114.363 73.0221,116.03 74.5,117.5 Z"/></g>
<g><path style="opacity:1" fill="#5c4711" d="M 104.5,127.5 C 104.167,127.5 103.833,127.5 103.5,127.5C 104.511,123.793 105.677,120.127 107,116.5C 106.942,120.396 106.108,124.062 104.5,127.5 Z"/></g>
<g><path style="opacity:1" fill="#5e5e5e" d="M 140.5,116.5 C 140.167,118.833 138.833,120.167 136.5,120.5C 137.5,118.833 138.833,117.5 140.5,116.5 Z"/></g>
<g><path style="opacity:1" fill="#86681a" d="M 118.5,117.5 C 119.5,117.5 120.5,117.5 121.5,117.5C 122.851,120.828 121.517,122.161 117.5,121.5C 117.232,119.901 117.566,118.568 118.5,117.5 Z"/></g>
<g><path style="opacity:1" fill="#3c3c3c" d="M 136.5,120.5 C 135.713,122.104 134.38,122.771 132.5,122.5C 133.514,121.326 134.847,120.66 136.5,120.5 Z"/></g>
<g><path style="opacity:1" fill="#f9f9f9" d="M 104.5,140.5 C 104.5,141.167 104.5,141.833 104.5,142.5C 96.5269,142.289 90.1936,145.456 85.5,152C 82.9007,153.795 80.2341,155.295 77.5,156.5C 73.5,156.5 69.5,156.5 65.5,156.5C 57.818,153.92 55.318,148.586 58,140.5C 58.9973,138.677 60.1639,137.01 61.5,135.5C 63.099,135.768 64.4324,135.434 65.5,134.5C 66.5839,129.945 67.7506,125.278 69,120.5C 77.5208,133.011 89.3541,139.678 104.5,140.5 Z"/></g>
<g><path style="opacity:1" fill="#98771e" d="M 96.5,119.5 C 98.18,121.726 97.8466,123.393 95.5,124.5C 95.2155,122.585 95.5489,120.919 96.5,119.5 Z"/></g>
<g><path style="opacity:0.409" fill="#0f100f" d="M 129.5,117.5 C 129.833,117.5 130.167,117.5 130.5,117.5C 130.077,119.781 130.744,121.448 132.5,122.5C 132.557,123.609 132.89,124.609 133.5,125.5C 132.391,125.557 131.391,125.89 130.5,126.5C 128.507,128 128.174,129.833 129.5,132C 128.833,135 128.167,138 127.5,141C 129.296,148.999 127.63,155.999 122.5,162C 120.167,163.167 117.833,164.333 115.5,165.5C 114.914,165.291 114.414,164.957 114,164.5C 111.222,165.612 109.055,167.445 107.5,170C 100.084,171.508 93.4178,174.508 87.5,179C 77.7616,182.084 72.4283,178.584 71.5,168.5C 72.1705,165.154 72.8372,161.821 73.5,158.5C 66.0569,160.484 58.3902,161.651 50.5,162C 47.2682,163.449 43.9349,164.616 40.5,165.5C 39.5836,165.457 38.9169,165.124 38.5,164.5C 39.9063,164.027 40.573,163.027 40.5,161.5C 43.2372,161.599 45.9039,161.265 48.5,160.5C 49.3382,160.158 49.6716,159.492 49.5,158.5C 50.1667,158.5 50.8333,158.5 51.5,158.5C 52.6226,159.757 53.2893,159.424 53.5,157.5C 57.633,158.726 61.633,158.726 65.5,157.5C 65.5,157.167 65.5,156.833 65.5,156.5C 69.5,156.5 73.5,156.5 77.5,156.5C 79.2239,156.461 79.5573,156.794 78.5,157.5C 76.2239,157.756 75.0572,159.09 75,161.5C 74.3333,165.5 74.3333,169.5 75,173.5C 76.2699,177.035 78.4366,178.369 81.5,177.5C 81.8333,177.5 82.1667,177.5 82.5,177.5C 86.1019,177.533 89.1019,176.199 91.5,173.5C 90.4756,172.148 89.4756,170.815 88.5,169.5C 90.8825,171.046 93.5491,171.713 96.5,171.5C 97.7095,171.068 98.7095,170.401 99.5,169.5C 101.801,168.94 104.134,168.44 106.5,168C 107.381,167.292 108.047,166.458 108.5,165.5C 108.5,164.833 108.5,164.167 108.5,163.5C 119.401,164.24 125.068,159.24 125.5,148.5C 126.163,146.359 126.497,144.025 126.5,141.5C 126.471,138.731 125.805,136.397 124.5,134.5C 127.252,130.484 126.919,129.984 123.5,133C 119.58,134.313 115.58,135.313 111.5,136C 110.944,136.383 110.611,136.883 110.5,137.5C 109.833,136.833 109.167,136.167 108.5,135.5C 104.511,135.884 100.845,135.217 97.5,133.5C 103.484,134.332 109.484,134.499 115.5,134C 124.681,132.32 129.347,126.82 129.5,117.5 Z"/></g>
<g><path style="opacity:1" fill="#312724" d="M 148.5,121.5 C 148.573,123.027 147.906,124.027 146.5,124.5C 146.427,122.973 147.094,121.973 148.5,121.5 Z"/></g>
<g><path style="opacity:1" fill="#392d0f" d="M 113.5,122.5 C 117.5,123.167 117.5,123.833 113.5,124.5C 112.441,127.595 112.441,126.928 113.5,122.5 Z"/></g>
<g><path style="opacity:1" fill="#20ecd3" d="M 80.5,127.5 C 84.2226,128.858 87.8892,130.525 91.5,132.5C 92.8229,134.204 92.4896,135.537 90.5,136.5C 87.0061,134.921 83.6728,133.087 80.5,131C 79.3157,129.855 79.3157,128.688 80.5,127.5 Z"/></g>
<g><path style="opacity:1" fill="#eaeaea" d="M 61.5,134.5 C 56.022,138.479 54.1887,143.812 56,150.5C 57.9247,154.6 61.0914,156.934 65.5,157.5C 61.633,158.726 57.633,158.726 53.5,157.5C 48.7813,148.795 49.7813,140.795 56.5,133.5C 58.126,133.062 59.7927,132.728 61.5,132.5C 65.4221,133.216 65.4221,133.883 61.5,134.5 Z"/></g>
<g><path style="opacity:1" fill="#1fe4cd" d="M 97.5,133.5 C 100.845,135.217 104.511,135.884 108.5,135.5C 108.67,136.822 108.337,137.989 107.5,139C 103.473,139.331 99.4726,138.998 95.5,138C 92.7088,135.223 93.3754,133.723 97.5,133.5 Z"/></g>
<g><path style="opacity:1" fill="#f1f1f1" d="M 48.5,160.5 C 45.9039,161.265 43.2372,161.599 40.5,161.5C 38.6946,159.551 37.6946,157.218 37.5,154.5C 38.5086,148.141 40.5086,142.141 43.5,136.5C 45.1477,135.19 46.8144,133.857 48.5,132.5C 48.8333,132.833 49.1667,133.167 49.5,133.5C 43.2362,142.316 42.9028,151.316 48.5,160.5 Z"/></g>
<g><path style="opacity:1" fill="#1fe0ca" d="M 124.5,134.5 C 121.764,136.196 118.764,137.362 115.5,138C 113.613,138.78 111.946,138.613 110.5,137.5C 110.611,136.883 110.944,136.383 111.5,136C 115.58,135.313 119.58,134.313 123.5,133C 126.919,129.984 127.252,130.484 124.5,134.5 Z"/></g>
<g><path style="opacity:1" fill="#fafafa" d="M 125.5,148.5 C 125.068,159.24 119.401,164.24 108.5,163.5C 101.198,164.522 96.5311,161.522 94.5,154.5C 95.48,147.026 99.8134,143.193 107.5,143C 106.552,142.517 105.552,142.351 104.5,142.5C 104.5,141.833 104.5,141.167 104.5,140.5C 111.825,140.698 118.659,139.032 125,135.5C 125.499,139.821 125.666,144.154 125.5,148.5 Z"/></g>
<g><path style="opacity:1" fill="#dbaa29" d="M 56.5,133.5 C 52.9955,134.455 50.8289,136.789 50,140.5C 49.1305,144.824 48.2971,149.158 47.5,153.5C 46.914,153.291 46.414,152.957 46,152.5C 44.1913,143.751 47.1913,136.751 55,131.5C 56.0299,131.836 56.5299,132.503 56.5,133.5 Z"/></g>
<g><path style="opacity:1" fill="#efefef" d="M 94.5,154.5 C 95.6488,162.649 100.315,166.316 108.5,165.5C 108.047,166.458 107.381,167.292 106.5,168C 104.134,168.44 101.801,168.94 99.5,169.5C 95.5075,169.755 92.6742,168.089 91,164.5C 88.355,157.915 89.1883,151.915 93.5,146.5C 98.2466,144.107 98.4133,145.107 94,149.5C 93.2204,151.387 93.3871,153.054 94.5,154.5 Z"/></g>
<g><path style="opacity:0.999" fill="#d15b29" d="M 43.5,136.5 C 38.223,142.838 36.0563,150.171 37,158.5C 37.4652,159.931 38.2986,161.097 39.5,162C 36.7019,162.561 34.8686,161.394 34,158.5C 33.4393,147.622 37.2727,138.622 45.5,131.5C 45.8333,131.667 46.1667,131.833 46.5,132C 44.8588,133.129 43.8588,134.629 43.5,136.5 Z"/></g>
<g><path style="opacity:1" fill="#2a2621" d="M 104.5,142.5 C 105.552,142.351 106.552,142.517 107.5,143C 99.8134,143.193 95.48,147.026 94.5,154.5C 93.3871,153.054 93.2204,151.387 94,149.5C 98.4133,145.107 98.2466,144.107 93.5,146.5C 89.1883,151.915 88.355,157.915 91,164.5C 92.6742,168.089 95.5075,169.755 99.5,169.5C 98.7095,170.401 97.7095,171.068 96.5,171.5C 94.1535,168.965 91.4868,168.298 88.5,169.5C 86.8639,168.251 85.6972,166.584 85,164.5C 84.8022,161.298 83.9689,158.298 82.5,155.5C 77.2765,162.963 77.2765,170.296 82.5,177.5C 82.1667,177.5 81.8333,177.5 81.5,177.5C 79.8267,176.657 78.66,175.324 78,173.5C 77.3914,168.139 77.5581,162.805 78.5,157.5C 79.5573,156.794 79.2239,156.461 77.5,156.5C 80.2341,155.295 82.9007,153.795 85.5,152C 90.1936,145.456 96.5269,142.289 104.5,142.5 Z"/></g>
<g><path style="opacity:1" fill="#d3a427" d="M 51.5,158.5 C 50.8333,158.5 50.1667,158.5 49.5,158.5C 48.8592,157.518 48.1925,156.518 47.5,155.5C 49.7808,154.738 51.1141,155.738 51.5,158.5 Z"/></g>
<g><path style="opacity:1" fill="#3c3c3c" d="M 61.5,134.5 C 61.5,134.833 61.5,135.167 61.5,135.5C 60.1639,137.01 58.9973,138.677 58,140.5C 55.318,148.586 57.818,153.92 65.5,156.5C 65.5,156.833 65.5,157.167 65.5,157.5C 61.0914,156.934 57.9247,154.6 56,150.5C 54.1887,143.812 56.022,138.479 61.5,134.5 Z"/></g>
<g><path style="opacity:1" fill="#f0f0f0" d="M 88.5,169.5 C 89.4756,170.815 90.4756,172.148 91.5,173.5C 89.1019,176.199 86.1019,177.533 82.5,177.5C 77.2765,170.296 77.2765,162.963 82.5,155.5C 83.9689,158.298 84.8022,161.298 85,164.5C 85.6972,166.584 86.8639,168.251 88.5,169.5 Z"/></g>
<g><path style="opacity:1" fill="#d8a728" d="M 86.5,152.5 C 89.0168,154.077 89.0168,155.91 86.5,158C 88.8692,160.93 89.8692,164.096 89.5,167.5C 87.8035,166.636 86.6368,165.303 86,163.5C 85.6608,160.964 85.1608,158.464 84.5,156C 84.9783,154.697 85.645,153.531 86.5,152.5 Z"/></g>
<g><path style="opacity:1" fill="#494949" d="M 94.5,154.5 C 96.5311,161.522 101.198,164.522 108.5,163.5C 108.5,164.167 108.5,164.833 108.5,165.5C 100.315,166.316 95.6488,162.649 94.5,154.5 Z"/></g>
<g><path style="opacity:0.999" fill="#d55c2a" d="M 78.5,157.5 C 77.5581,162.805 77.3914,168.139 78,173.5C 78.66,175.324 79.8267,176.657 81.5,177.5C 78.4366,178.369 76.2699,177.035 75,173.5C 74.3333,169.5 74.3333,165.5 75,161.5C 75.0572,159.09 76.2239,157.756 78.5,157.5 Z"/></g>
<g><path style="opacity:1" fill="#a47f1f" d="M 88.5,169.5 C 91.4868,168.298 94.1535,168.965 96.5,171.5C 93.5491,171.713 90.8825,171.046 88.5,169.5 Z"/></g>
</svg>
