<?xml version="1.0" encoding="UTF-8"?>
<!DOCTYPE svg PUBLIC "-//W3C//DTD SVG 1.1//EN" "http://www.w3.org/Graphics/SVG/1.1/DTD/svg11.dtd">
<svg xmlns="http://www.w3.org/2000/svg" version="1.1" width="200px" height="200px" style="shape-rendering:geometricPrecision; text-rendering:geometricPrecision; image-rendering:optimizeQuality; fill-rule:evenodd; clip-rule:evenodd" xmlns:xlink="http://www.w3.org/1999/xlink">
<g><path style="opacity:0.651" fill="#040201" d="M 79.5,-0.5 C 92.8333,-0.5 106.167,-0.5 119.5,-0.5C 161.833,10.5 188.5,37.1667 199.5,79.5C 199.5,92.8333 199.5,106.167 199.5,119.5C 190.688,156.651 168.355,181.984 132.5,195.5C 131.778,195.082 131.278,194.416 131,193.5C 130.505,195.473 130.338,197.473 130.5,199.5C 126.833,199.5 123.167,199.5 119.5,199.5C 122.672,197.748 125.672,195.748 128.5,193.5C 129.5,193.167 130.167,192.5 130.5,191.5C 131.167,191.5 131.5,191.167 131.5,190.5C 131.833,190.5 132.167,190.5 132.5,190.5C 147.982,185.007 160.982,176.007 171.5,163.5C 180.101,154.646 186.434,144.313 190.5,132.5C 204.515,87.7048 193.182,50.5382 156.5,21C 135.39,5.78791 112.057,-0.0454228 86.5,3.5C 76.8126,4.17677 67.8126,6.84343 59.5,11.5C 49.4503,15.5575 40.7836,21.5575 33.5,29.5C 16.5506,44.7244 6.38398,63.7244 3,86.5C 2.17639,95.3433 2.34305,104.01 3.5,112.5C 9.42679,149.169 29.4268,175.002 63.5,190C 64.7932,190.49 66.1266,190.657 67.5,190.5C 67.634,192.292 67.3007,193.958 66.5,195.5C 30.6544,181.993 8.32103,156.659 -0.5,119.5C -0.5,106.167 -0.5,92.8333 -0.5,79.5C 10.5,37.1667 37.1667,10.5 79.5,-0.5 Z"/></g>
<g><path style="opacity:1" fill="#4e3c17" d="M 86.5,3.5 C 92.8421,3.33379 99.1754,3.50046 105.5,4C 114.331,6.79159 123.331,9.12493 132.5,11C 136.993,13.079 141.326,15.4123 145.5,18C 142.635,18.1829 139.969,18.6829 137.5,19.5C 137.5,20.1667 137.5,20.8333 137.5,21.5C 136.539,23.2646 136.205,25.2646 136.5,27.5C 135.5,28.8333 134.5,28.8333 133.5,27.5C 134.748,26.6661 135.415,25.3328 135.5,23.5C 135.415,21.6672 134.748,20.3339 133.5,19.5C 133.611,18.8826 133.944,18.3826 134.5,18C 110.31,6.75843 85.31,4.59176 59.5,11.5C 67.8126,6.84343 76.8126,4.17677 86.5,3.5 Z"/></g>
<g><path style="opacity:1" fill="#3d2f12" d="M 86.5,3.5 C 112.057,-0.0454228 135.39,5.78791 156.5,21C 193.182,50.5382 204.515,87.7048 190.5,132.5C 199.868,85.6048 185.534,47.9382 147.5,19.5C 146.817,19.8627 146.15,20.1961 145.5,20.5C 143.052,19.5269 140.385,19.1936 137.5,19.5C 139.969,18.6829 142.635,18.1829 145.5,18C 141.326,15.4123 136.993,13.079 132.5,11C 123.331,9.12493 114.331,6.79159 105.5,4C 99.1754,3.50046 92.8421,3.33379 86.5,3.5 Z"/></g>
<g><path style="opacity:1" fill="#5b471b" d="M 133.5,19.5 C 133.5,20.5 133.5,21.5 133.5,22.5C 132.5,22.5 131.5,22.5 130.5,22.5C 130.719,21.325 130.386,20.325 129.5,19.5C 129.167,20.8333 128.833,22.1667 128.5,23.5C 128.585,25.3328 129.252,26.6661 130.5,27.5C 130.5,27.8333 130.5,28.1667 130.5,28.5C 128.801,28.4729 127.467,27.8062 126.5,26.5C 126.5,25.5 126.5,24.5 126.5,23.5C 125.127,23.3433 123.793,23.51 122.5,24C 123.609,25.813 122.942,26.6463 120.5,26.5C 120.5,24.8333 120.5,23.1667 120.5,21.5C 127.167,20.8333 127.167,20.1667 120.5,19.5C 121.398,18.8423 122.398,18.1757 123.5,17.5C 112.99,12.9318 101.99,10.9318 90.5,11.5C 78.2907,10.8678 66.624,13.0345 55.5,18C 56.056,18.3826 56.3893,18.8826 56.5,19.5C 54.7085,19.366 53.0418,19.6993 51.5,20.5C 50.7494,19.4265 49.7494,19.2599 48.5,20C 43.7815,23.688 38.7815,26.8546 33.5,29.5C 40.7836,21.5575 49.4503,15.5575 59.5,11.5C 85.31,4.59176 110.31,6.75843 134.5,18C 133.944,18.3826 133.611,18.8826 133.5,19.5 Z"/></g>
<g><path style="opacity:1" fill="#6f5621" d="M 120.5,19.5 C 119.5,20.1667 118.5,20.8333 117.5,21.5C 116.49,23.0134 116.157,25.3467 116.5,28.5C 115.209,28.7373 114.209,28.404 113.5,27.5C 112.193,26.8466 110.86,26.1799 109.5,25.5C 108.438,26.4246 108.438,27.4246 109.5,28.5C 107.901,28.7678 106.568,28.4345 105.5,27.5C 104.833,26.8333 104.167,26.1667 103.5,25.5C 103.5,23.5 103.5,21.5 103.5,19.5C 102.5,19.5 101.5,19.5 100.5,19.5C 99.9384,28.5696 98.6051,28.5696 96.5,19.5C 95.5258,21.7427 95.1924,24.076 95.5,26.5C 94.8333,26.5 94.1667,26.5 93.5,26.5C 92.0646,25.9035 90.398,25.9035 88.5,26.5C 88.5,24.8333 88.5,23.1667 88.5,21.5C 90.1992,21.6602 91.8659,21.4935 93.5,21C 88.3801,18.1249 85.7134,19.6249 85.5,25.5C 85.1667,25.5 84.8333,25.5 84.5,25.5C 84.5,23.5 84.5,21.5 84.5,19.5C 83.5,19.5 82.5,19.5 81.5,19.5C 81.6495,20.552 81.4828,21.552 81,22.5C 78.199,18.3125 76.699,18.6459 76.5,23.5C 76.5854,25.3328 77.2521,26.6661 78.5,27.5C 77.791,28.404 76.791,28.7373 75.5,28.5C 75.1667,16.5 74.8333,16.5 74.5,28.5C 71.8333,28.5 69.1667,28.5 66.5,28.5C 65.209,28.7373 64.209,28.404 63.5,27.5C 65.0744,27.0629 66.2411,26.0629 67,24.5C 67.2492,25.624 67.7492,26.624 68.5,27.5C 69.48,24.9135 69.8134,22.2469 69.5,19.5C 68.1667,19.5 66.8333,19.5 65.5,19.5C 65.6738,24.0214 65.0071,24.3548 63.5,20.5C 62.675,19.6143 61.675,19.281 60.5,19.5C 59.5318,21.6074 59.1984,23.9407 59.5,26.5C 59.1667,26.5 58.8333,26.5 58.5,26.5C 58.4386,24.4078 57.4386,22.9078 55.5,22C 58.7982,21.7006 59.1315,20.8673 56.5,19.5C 56.3893,18.8826 56.056,18.3826 55.5,18C 66.624,13.0345 78.2907,10.8678 90.5,11.5C 101.99,10.9318 112.99,12.9318 123.5,17.5C 122.398,18.1757 121.398,18.8423 120.5,19.5 Z"/></g>
<g><path style="opacity:1" fill="#050301" d="M 133.5,19.5 C 134.748,20.3339 135.415,21.6672 135.5,23.5C 135.415,25.3328 134.748,26.6661 133.5,27.5C 133.5,26.5 133.5,25.5 133.5,24.5C 132.5,24.5 131.5,24.5 130.5,24.5C 130.5,25.5 130.5,26.5 130.5,27.5C 129.252,26.6661 128.585,25.3328 128.5,23.5C 128.833,22.1667 129.167,20.8333 129.5,19.5C 130.386,20.325 130.719,21.325 130.5,22.5C 131.5,22.5 132.5,22.5 133.5,22.5C 133.5,21.5 133.5,20.5 133.5,19.5 Z"/></g>
<g><path style="opacity:1" fill="#060501" d="M 137.5,19.5 C 140.385,19.1936 143.052,19.5269 145.5,20.5C 144.791,21.404 143.791,21.7373 142.5,21.5C 142.5,23.5 142.5,25.5 142.5,27.5C 140.94,25.8439 139.94,23.8439 139.5,21.5C 138.833,21.5 138.167,21.5 137.5,21.5C 137.5,20.8333 137.5,20.1667 137.5,19.5 Z"/></g>
<g><path style="opacity:1" fill="#161105" d="M 56.5,19.5 C 59.1315,20.8673 58.7982,21.7006 55.5,22C 57.4386,22.9078 58.4386,24.4078 58.5,26.5C 57.0655,28.3784 55.3989,29.045 53.5,28.5C 53.0472,27.5416 52.3805,26.7083 51.5,26C 52.5,25.6667 53.5,25.3333 54.5,25C 52.5614,24.0922 51.5614,22.5922 51.5,20.5C 53.0418,19.6993 54.7085,19.366 56.5,19.5 Z"/></g>
<g><path style="opacity:1" fill="#030201" d="M 71.5,19.5 C 72.7479,20.3339 73.4146,21.6672 73.5,23.5C 73.1667,24.8333 72.8333,26.1667 72.5,27.5C 71.52,24.9135 71.1866,22.2469 71.5,19.5 Z"/></g>
<g><path style="opacity:1" fill="#140f05" d="M 84.5,25.5 C 84.5,26.5 84.5,27.5 84.5,28.5C 82.0901,28.0791 80.2568,26.7458 79,24.5C 78.5172,25.448 78.3505,26.448 78.5,27.5C 77.2521,26.6661 76.5854,25.3328 76.5,23.5C 76.699,18.6459 78.199,18.3125 81,22.5C 81.4828,21.552 81.6495,20.552 81.5,19.5C 82.5,19.5 83.5,19.5 84.5,19.5C 84.5,21.5 84.5,23.5 84.5,25.5 Z"/></g>
<g><path style="opacity:1" fill="#140f05" d="M 103.5,25.5 C 102.599,27.7271 100.933,28.7271 98.5,28.5C 98.1667,28.5 97.8333,28.5 97.5,28.5C 97.1667,27.5 96.5,26.8333 95.5,26.5C 95.1924,24.076 95.5258,21.7427 96.5,19.5C 98.6051,28.5696 99.9384,28.5696 100.5,19.5C 101.5,19.5 102.5,19.5 103.5,19.5C 103.5,21.5 103.5,23.5 103.5,25.5 Z"/></g>
<g><path style="opacity:1" fill="#0e0a03" d="M 105.5,27.5 C 105.5,24.8333 105.5,22.1667 105.5,19.5C 107.604,19.2011 109.604,19.5344 111.5,20.5C 110.271,21.2811 108.938,21.7811 107.5,22C 112.797,23.1342 112.797,23.9675 107.5,24.5C 107.715,26.1788 107.048,27.1788 105.5,27.5 Z"/></g>
<g><path style="opacity:1" fill="#030200" d="M 113.5,27.5 C 113.187,24.7531 113.52,22.0865 114.5,19.5C 114.833,20.8333 115.167,22.1667 115.5,23.5C 115.415,25.3328 114.748,26.6661 113.5,27.5 Z"/></g>
<g><path style="opacity:1" fill="#171206" d="M 93.5,26.5 C 90.5258,29.3092 87.8591,28.9758 85.5,25.5C 85.7134,19.6249 88.3801,18.1249 93.5,21C 91.8659,21.4935 90.1992,21.6602 88.5,21.5C 88.5,23.1667 88.5,24.8333 88.5,26.5C 90.398,25.9035 92.0646,25.9035 93.5,26.5 Z"/></g>
<g><path style="opacity:1" fill="#151005" d="M 120.5,19.5 C 127.167,20.1667 127.167,20.8333 120.5,21.5C 120.5,23.1667 120.5,24.8333 120.5,26.5C 122.942,26.6463 123.609,25.813 122.5,24C 123.793,23.51 125.127,23.3433 126.5,23.5C 126.5,24.5 126.5,25.5 126.5,26.5C 125.833,27.1667 125.167,27.8333 124.5,28.5C 119.306,29.1447 116.972,26.8114 117.5,21.5C 118.5,20.8333 119.5,20.1667 120.5,19.5 Z"/></g>
<g><path style="opacity:1" fill="#4a3a16" d="M 190.5,132.5 C 186.434,144.313 180.101,154.646 171.5,163.5C 175.542,156.42 179.376,149.087 183,141.5C 198.271,93.3885 186.104,53.8885 146.5,23C 145.552,22.5172 144.552,22.3505 143.5,22.5C 143.5,23.8333 143.5,25.1667 143.5,26.5C 143.5,27.1667 143.167,27.5 142.5,27.5C 142.5,25.5 142.5,23.5 142.5,21.5C 143.791,21.7373 144.791,21.404 145.5,20.5C 146.15,20.1961 146.817,19.8627 147.5,19.5C 185.534,47.9382 199.868,85.6048 190.5,132.5 Z"/></g>
<g><path style="opacity:1" fill="#6c5420" d="M 51.5,20.5 C 51.5614,22.5922 52.5614,24.0922 54.5,25C 53.5,25.3333 52.5,25.6667 51.5,26C 52.3805,26.7083 53.0472,27.5416 53.5,28.5C 45.8019,28.9235 39.1352,31.7568 33.5,37C 25.1608,43.9973 18.3275,52.1639 13,61.5C 10.072,70.284 7.07199,79.284 4,88.5C 3.50029,96.4931 3.33362,104.493 3.5,112.5C 2.34305,104.01 2.17639,95.3433 3,86.5C 6.38398,63.7244 16.5506,44.7244 33.5,29.5C 38.7815,26.8546 43.7815,23.688 48.5,20C 49.7494,19.2599 50.7494,19.4265 51.5,20.5 Z"/></g>
<g><path style="opacity:1" fill="#57441a" d="M 171.5,163.5 C 160.982,176.007 147.982,185.007 132.5,190.5C 171.44,169.305 188.94,136.305 185,91.5C 182.005,71.5127 173.672,54.1793 160,39.5C 154.893,34.5474 149.393,30.214 143.5,26.5C 143.5,25.1667 143.5,23.8333 143.5,22.5C 144.552,22.3505 145.552,22.5172 146.5,23C 186.104,53.8885 198.271,93.3885 183,141.5C 179.376,149.087 175.542,156.42 171.5,163.5 Z"/></g>
<g><path style="opacity:1" fill="#0e0a03" d="M 60.5,19.5 C 61.675,19.281 62.675,19.6143 63.5,20.5C 65.0071,24.3548 65.6738,24.0214 65.5,19.5C 66.8333,19.5 68.1667,19.5 69.5,19.5C 69.8134,22.2469 69.48,24.9135 68.5,27.5C 67.7492,26.624 67.2492,25.624 67,24.5C 66.2411,26.0629 65.0744,27.0629 63.5,27.5C 63.5,26.8333 63.5,26.1667 63.5,25.5C 63.5386,24.2438 63.0386,23.2438 62,22.5C 61.6667,24.1667 61.3333,25.8333 61,27.5C 60.5026,24.854 60.3359,22.1873 60.5,19.5 Z"/></g>
<g><path style="opacity:1" fill="#3c2e11" d="M 60.5,19.5 C 60.3359,22.1873 60.5026,24.854 61,27.5C 61.3333,25.8333 61.6667,24.1667 62,22.5C 63.0386,23.2438 63.5386,24.2438 63.5,25.5C 62.8999,26.9002 61.8999,27.9002 60.5,28.5C 59.6618,28.1583 59.3284,27.4916 59.5,26.5C 59.1984,23.9407 59.5318,21.6074 60.5,19.5 Z"/></g>
<g><path style="opacity:1" fill="#6d5421" d="M 137.5,21.5 C 138.167,21.5 138.833,21.5 139.5,21.5C 139.5,23.8333 139.5,26.1667 139.5,28.5C 145.972,31.7816 151.805,36.1149 157,41.5C 186.116,75.0983 190.449,111.765 170,151.5C 160.905,166.429 148.739,178.096 133.5,186.5C 133.5,184.833 133.5,183.167 133.5,181.5C 133.5,180.833 133.5,180.167 133.5,179.5C 133.5,179.167 133.5,178.833 133.5,178.5C 135.651,182.281 136.651,181.614 136.5,176.5C 136.833,176.5 137.167,176.5 137.5,176.5C 137.34,178.199 137.506,179.866 138,181.5C 173.032,157.427 186.366,124.427 178,82.5C 171.145,58.8231 157.312,40.4898 136.5,27.5C 136.205,25.2646 136.539,23.2646 137.5,21.5 Z"/></g>
<g><path style="opacity:1" fill="#755b23" d="M 133.5,27.5 C 134.5,28.8333 135.5,28.8333 136.5,27.5C 157.312,40.4898 171.145,58.8231 178,82.5C 186.366,124.427 173.032,157.427 138,181.5C 137.506,179.866 137.34,178.199 137.5,176.5C 137.833,176.5 138.167,176.5 138.5,176.5C 172.454,151.819 183.954,118.819 173,77.5C 164.967,55.6477 150.8,39.3144 130.5,28.5C 130.5,28.1667 130.5,27.8333 130.5,27.5C 130.5,26.5 130.5,25.5 130.5,24.5C 131.5,24.5 132.5,24.5 133.5,24.5C 133.5,25.5 133.5,26.5 133.5,27.5 Z"/></g>
<g><path style="opacity:1" fill="#634d1e" d="M 139.5,21.5 C 139.94,23.8439 140.94,25.8439 142.5,27.5C 143.167,27.5 143.5,27.1667 143.5,26.5C 149.393,30.214 154.893,34.5474 160,39.5C 173.672,54.1793 182.005,71.5127 185,91.5C 188.94,136.305 171.44,169.305 132.5,190.5C 132.167,190.5 131.833,190.5 131.5,190.5C 131.733,188.938 132.4,187.605 133.5,186.5C 148.739,178.096 160.905,166.429 170,151.5C 190.449,111.765 186.116,75.0983 157,41.5C 151.805,36.1149 145.972,31.7816 139.5,28.5C 139.5,26.1667 139.5,23.8333 139.5,21.5 Z"/></g>
<g><path style="opacity:1" fill="#806326" d="M 58.5,26.5 C 58.8333,26.5 59.1667,26.5 59.5,26.5C 59.3284,27.4916 59.6618,28.1583 60.5,28.5C 36.7298,37.4915 20.2298,54.1582 11,78.5C -0.00782763,122.974 14.1588,156.807 53.5,180C 55.7221,180.695 57.8887,181.528 60,182.5C 60.7648,182.43 61.2648,182.097 61.5,181.5C 63.9726,181.088 65.3059,182.088 65.5,184.5C 65.3284,185.492 65.6618,186.158 66.5,186.5C 66.5,187.833 67.1667,188.5 68.5,188.5C 68.5,188.833 68.5,189.167 68.5,189.5C 67.8333,189.5 67.5,189.833 67.5,190.5C 66.1266,190.657 64.7932,190.49 63.5,190C 29.4268,175.002 9.42679,149.169 3.5,112.5C 3.33362,104.493 3.50029,96.4931 4,88.5C 7.07199,79.284 10.072,70.284 13,61.5C 18.3275,52.1639 25.1608,43.9973 33.5,37C 39.1352,31.7568 45.8019,28.9235 53.5,28.5C 55.3989,29.045 57.0655,28.3784 58.5,26.5 Z"/></g>
<g><path style="opacity:1" fill="#8e6e2b" d="M 117.5,21.5 C 116.972,26.8114 119.306,29.1447 124.5,28.5C 167.053,52.6413 181.553,88.308 168,135.5C 162.354,148.979 153.854,160.312 142.5,169.5C 141.571,168.311 141.238,166.978 141.5,165.5C 141.448,163.097 141.781,160.764 142.5,158.5C 142.833,158.5 143.167,158.5 143.5,158.5C 143.351,159.552 143.517,160.552 144,161.5C 160.993,146.668 169.493,127.835 169.5,105C 168.3,74.8358 154.967,51.8358 129.5,36C 123.204,32.4028 116.537,29.9028 109.5,28.5C 108.438,27.4246 108.438,26.4246 109.5,25.5C 110.86,26.1799 112.193,26.8466 113.5,27.5C 114.209,28.404 115.209,28.7373 116.5,28.5C 116.157,25.3467 116.49,23.0134 117.5,21.5 Z"/></g>
<g><path style="opacity:1" fill="#8e6e2b" d="M 63.5,25.5 C 63.5,26.1667 63.5,26.8333 63.5,27.5C 64.209,28.404 65.209,28.7373 66.5,28.5C 23.9506,46.5894 6.1173,78.5894 13,124.5C 20.4163,149.419 35.9163,167.419 59.5,178.5C 60.2975,178.043 60.6309,177.376 60.5,176.5C 60.8333,176.5 61.1667,176.5 61.5,176.5C 61.5,178.167 61.5,179.833 61.5,181.5C 61.2648,182.097 60.7648,182.43 60,182.5C 57.8887,181.528 55.7221,180.695 53.5,180C 14.1588,156.807 -0.00782763,122.974 11,78.5C 20.2298,54.1582 36.7298,37.4915 60.5,28.5C 61.8999,27.9002 62.8999,26.9002 63.5,25.5 Z"/></g>
<g><path style="opacity:1" fill="#a47f31" d="M 97.5,28.5 C 97.8333,28.5 98.1667,28.5 98.5,28.5C 112.263,31.5912 125.263,36.7578 137.5,44C 169.49,73.1044 175.657,106.938 156,145.5C 153.337,150.662 149.504,154.662 144.5,157.5C 144.372,155.345 144.872,153.345 146,151.5C 165.28,125.359 167.613,97.692 153,68.5C 130.554,35.7955 100.388,25.6289 62.5,38C 31.1643,52.8195 16.331,77.6529 18,112.5C 21.3819,137.943 34.2152,156.943 56.5,169.5C 57.3857,168.675 57.719,167.675 57.5,166.5C 57.8333,166.5 58.1667,166.5 58.5,166.5C 59.3382,166.842 59.6716,167.508 59.5,168.5C 58.7093,170.309 58.7093,172.309 59.5,174.5C 58.8826,174.611 58.3826,174.944 58,175.5C 21.2549,155.28 7.25495,124.613 16,83.5C 25.3701,55.1243 44.5368,37.6243 73.5,31C 81.6061,30.6846 89.6061,29.8513 97.5,28.5 Z"/></g>
<g><path style="opacity:1" fill="#ad8634" d="M 144.5,157.5 C 144.167,157.5 143.833,157.5 143.5,157.5C 143.5,153.833 143.5,150.167 143.5,146.5C 144.338,146.158 144.672,145.492 144.5,144.5C 153.351,132.972 157.684,119.805 157.5,105C 156.558,74.762 142.225,53.762 114.5,42C 113.251,41.2599 112.251,41.4265 111.5,42.5C 111.167,42.5 110.833,42.5 110.5,42.5C 108.852,41.0735 106.852,40.2401 104.5,40C 101.767,35.6168 98.1,34.1168 93.5,35.5C 91.139,35.6741 88.8056,36.0074 86.5,36.5C 79.4318,35.1598 72.4318,35.9932 65.5,39C 51.1119,44.7489 39.6119,53.9155 31,66.5C 21.2632,82.52 17.9299,99.8534 21,118.5C 25.4297,139.732 36.9297,155.732 55.5,166.5C 56.1067,166.376 56.44,166.043 56.5,165.5C 57.1667,165.5 57.5,165.833 57.5,166.5C 57.719,167.675 57.3857,168.675 56.5,169.5C 34.2152,156.943 21.3819,137.943 18,112.5C 16.331,77.6529 31.1643,52.8195 62.5,38C 100.388,25.6289 130.554,35.7955 153,68.5C 167.613,97.692 165.28,125.359 146,151.5C 144.872,153.345 144.372,155.345 144.5,157.5 Z"/></g>
<g><path style="opacity:1" fill="#b68d36" d="M 86.5,36.5 C 85.1535,38.5368 83.8202,40.5368 82.5,42.5C 62.4,43.1789 46.5667,52.5122 35,70.5C 18.8178,103.241 23.9845,132.074 50.5,157C 52.0779,158.094 53.7446,158.928 55.5,159.5C 56.1495,161.435 56.4828,163.435 56.5,165.5C 56.44,166.043 56.1067,166.376 55.5,166.5C 36.9297,155.732 25.4297,139.732 21,118.5C 17.9299,99.8534 21.2632,82.52 31,66.5C 39.6119,53.9155 51.1119,44.7489 65.5,39C 72.4318,35.9932 79.4318,35.1598 86.5,36.5 Z"/></g>
<g><path style="opacity:1" fill="#422e27" d="M 93.5,35.5 C 98.1,34.1168 101.767,35.6168 104.5,40C 106.852,40.2401 108.852,41.0735 110.5,42.5C 110.034,47.0295 110.034,51.3628 110.5,55.5C 110.5,56.1667 110.5,56.8333 110.5,57.5C 109.833,57.1667 109.167,56.8333 108.5,56.5C 110.021,46.3438 106.021,42.6772 96.5,45.5C 95.181,43.5316 95.181,41.5316 96.5,39.5C 96.0233,38.5224 95.3567,37.6891 94.5,37C 98.2259,35.9568 97.8926,35.4568 93.5,35.5 Z"/></g>
<g><path style="opacity:1" fill="#bc9238" d="M 144.5,144.5 C 144.802,141.941 144.468,139.607 143.5,137.5C 143.5,136.167 143.5,134.833 143.5,133.5C 145.335,132.878 146.502,131.544 147,129.5C 155.325,105.118 151.658,82.7844 136,62.5C 128.666,55.7589 120.5,50.4256 111.5,46.5C 111.5,45.1667 111.5,43.8333 111.5,42.5C 112.251,41.4265 113.251,41.2599 114.5,42C 142.225,53.762 156.558,74.762 157.5,105C 157.684,119.805 153.351,132.972 144.5,144.5 Z"/></g>
<g><path style="opacity:1" fill="#c2973a" d="M 82.5,42.5 C 82.5,42.8333 82.5,43.1667 82.5,43.5C 81.5318,45.6074 81.1984,47.9407 81.5,50.5C 80.7321,49.7375 80.2321,48.7375 80,47.5C 49.6034,54.5687 33.7701,73.7353 32.5,105C 32.4162,123.463 39.2495,138.63 53,150.5C 53.21,148.942 53.71,147.609 54.5,146.5C 54.4672,150.869 54.8005,155.202 55.5,159.5C 53.7446,158.928 52.0779,158.094 50.5,157C 23.9845,132.074 18.8178,103.241 35,70.5C 46.5667,52.5122 62.4,43.1789 82.5,42.5 Z"/></g>
<g><path style="opacity:1" fill="#231816" d="M 93.5,35.5 C 97.8926,35.4568 98.2259,35.9568 94.5,37C 95.3567,37.6891 96.0233,38.5224 96.5,39.5C 95.181,41.5316 95.181,43.5316 96.5,45.5C 93.1501,45.335 89.8168,45.5017 86.5,46C 85.944,46.3826 85.6107,46.8826 85.5,47.5C 84.8333,47.5 84.5,47.8333 84.5,48.5C 82.744,47.4479 82.0773,45.7812 82.5,43.5C 82.5,43.1667 82.5,42.8333 82.5,42.5C 83.8202,40.5368 85.1535,38.5368 86.5,36.5C 88.8056,36.0074 91.139,35.6741 93.5,35.5 Z"/></g>
<g><path style="opacity:1" fill="#806739" d="M 110.5,42.5 C 110.833,42.5 111.167,42.5 111.5,42.5C 111.5,43.8333 111.5,45.1667 111.5,46.5C 111.296,49.5176 110.963,52.5176 110.5,55.5C 110.034,51.3628 110.034,47.0295 110.5,42.5 Z"/></g>
<g><path style="opacity:1" fill="#cb9d3d" d="M 81.5,50.5 C 81.5,51.1667 81.5,51.8333 81.5,52.5C 53.2648,58.5726 38.5981,76.0726 37.5,105C 37.593,119.96 42.7597,132.793 53,143.5C 53.1981,141.618 53.6981,139.952 54.5,138.5C 54.5,140.167 54.5,141.833 54.5,143.5C 54.5,144.5 54.5,145.5 54.5,146.5C 53.71,147.609 53.21,148.942 53,150.5C 39.2495,138.63 32.4162,123.463 32.5,105C 33.7701,73.7353 49.6034,54.5687 80,47.5C 80.2321,48.7375 80.7321,49.7375 81.5,50.5 Z"/></g>
<g><path style="opacity:1" fill="#f1a974" d="M 108.5,56.5 C 109.833,59.5 109.833,62.5 108.5,65.5C 107.434,67.8522 106.267,70.1856 105,72.5C 104.506,70.8659 104.34,69.1992 104.5,67.5C 102.901,67.7678 101.568,67.4345 100.5,66.5C 105.109,66.0053 107.442,63.3386 107.5,58.5C 107.771,56.6203 107.104,55.287 105.5,54.5C 104.833,54.5 104.167,54.5 103.5,54.5C 104.472,53.6009 105.138,52.4343 105.5,51C 103.928,50.2396 103.262,48.4062 103.5,45.5C 101.023,45.0508 99.0225,45.7175 97.5,47.5C 99.1713,49.5098 99.838,51.8431 99.5,54.5C 99.5,54.8333 99.5,55.1667 99.5,55.5C 92.8201,56.3886 89.8201,53.3886 90.5,46.5C 92.7354,46.7947 94.7354,46.4614 96.5,45.5C 106.021,42.6772 110.021,46.3438 108.5,56.5 Z"/></g>
<g><path style="opacity:1" fill="#c89c3d" d="M 111.5,46.5 C 120.5,50.4256 128.666,55.7589 136,62.5C 151.658,82.7844 155.325,105.118 147,129.5C 146.502,131.544 145.335,132.878 143.5,133.5C 143.34,131.847 142.674,130.514 141.5,129.5C 141.5,128.833 141.5,128.167 141.5,127.5C 141.431,122.146 141.098,116.813 140.5,111.5C 140.5,110.833 140.5,110.167 140.5,109.5C 141.29,110.609 141.79,111.942 142,113.5C 144.433,94.8019 139.266,78.6352 126.5,65C 122.438,61.9711 118.105,59.4711 113.5,57.5C 112.5,56.8333 111.5,56.1667 110.5,55.5C 110.963,52.5176 111.296,49.5176 111.5,46.5 Z"/></g>
<g><path style="opacity:1" fill="#4f382d" d="M 82.5,43.5 C 82.0773,45.7812 82.744,47.4479 84.5,48.5C 84.6602,50.1992 84.4935,51.8659 84,53.5C 83.6174,52.944 83.1174,52.6107 82.5,52.5C 82.1667,52.5 81.8333,52.5 81.5,52.5C 81.5,51.8333 81.5,51.1667 81.5,50.5C 81.1984,47.9407 81.5318,45.6074 82.5,43.5 Z"/></g>
<g><path style="opacity:1" fill="#face99" d="M 103.5,54.5 C 102.167,54.5 100.833,54.5 99.5,54.5C 99.838,51.8431 99.1713,49.5098 97.5,47.5C 99.0225,45.7175 101.023,45.0508 103.5,45.5C 103.262,48.4062 103.928,50.2396 105.5,51C 105.138,52.4343 104.472,53.6009 103.5,54.5 Z"/></g>
<g><path style="opacity:1" fill="#cd6746" d="M 96.5,45.5 C 94.7354,46.4614 92.7354,46.7947 90.5,46.5C 89.8201,53.3886 92.8201,56.3886 99.5,55.5C 101.102,57.0739 103.102,57.7406 105.5,57.5C 105.5,56.5 105.5,55.5 105.5,54.5C 107.104,55.287 107.771,56.6203 107.5,58.5C 106.041,58.4326 104.708,58.7659 103.5,59.5C 101.173,59.7529 99.1727,59.0863 97.5,57.5C 97.1667,57.8333 96.8333,58.1667 96.5,58.5C 97.0505,60.6568 97.7171,62.6568 98.5,64.5C 96.2889,65.1111 94.6223,66.4444 93.5,68.5C 91.6159,68.7118 90.2826,69.7118 89.5,71.5C 88.0815,70.9953 87.4148,69.9953 87.5,68.5C 86.9417,61.3533 86.275,54.3533 85.5,47.5C 85.6107,46.8826 85.944,46.3826 86.5,46C 89.8168,45.5017 93.1501,45.335 96.5,45.5 Z"/></g>
<g><path style="opacity:1" fill="#815945" d="M 85.5,47.5 C 84.6193,53.9036 84.6193,60.237 85.5,66.5C 85.5,66.8333 85.5,67.1667 85.5,67.5C 83.9137,65.9192 82.9137,63.9192 82.5,61.5C 83.0662,58.5826 83.0662,55.5826 82.5,52.5C 83.1174,52.6107 83.6174,52.944 84,53.5C 84.4935,51.8659 84.6602,50.1992 84.5,48.5C 84.5,47.8333 84.8333,47.5 85.5,47.5 Z"/></g>
<g><path style="opacity:1" fill="#773828" d="M 99.5,54.5 C 100.833,54.5 102.167,54.5 103.5,54.5C 104.167,54.5 104.833,54.5 105.5,54.5C 105.5,55.5 105.5,56.5 105.5,57.5C 103.102,57.7406 101.102,57.0739 99.5,55.5C 99.5,55.1667 99.5,54.8333 99.5,54.5 Z"/></g>
<g><path style="opacity:1" fill="#58251b" d="M 87.5,55.5 C 90.1569,55.162 92.4902,55.8287 94.5,57.5C 94.2907,58.086 93.9574,58.586 93.5,59C 91.5273,59.4955 89.5273,59.6621 87.5,59.5C 87.5,58.1667 87.5,56.8333 87.5,55.5 Z"/></g>
<g><path style="opacity:1" fill="#d5a540" d="M 81.5,52.5 C 81.8333,52.5 82.1667,52.5 82.5,52.5C 83.0662,55.5826 83.0662,58.5826 82.5,61.5C 82.9137,63.9192 83.9137,65.9192 85.5,67.5C 86.4925,70.8229 87.4925,74.1563 88.5,77.5C 88.5,78.5 88.5,79.5 88.5,80.5C 87.6618,80.8417 87.3284,81.5084 87.5,82.5C 86.8333,83.1667 86.1667,83.8333 85.5,84.5C 84.1283,85.5116 82.795,86.5116 81.5,87.5C 77.6228,89.6853 73.6228,91.6853 69.5,93.5C 66.9009,93.5494 64.7342,94.5494 63,96.5C 61.677,101.153 60.3437,105.819 59,110.5C 58.3744,112.713 58.5411,114.88 59.5,117C 57.1396,123.945 55.473,131.112 54.5,138.5C 53.6981,139.952 53.1981,141.618 53,143.5C 42.7597,132.793 37.593,119.96 37.5,105C 38.5981,76.0726 53.2648,58.5726 81.5,52.5 Z"/></g>
<g><path style="opacity:1" fill="#f6ad7c" d="M 103.5,59.5 C 102.791,60.404 101.791,60.7373 100.5,60.5C 100.561,62.5922 101.561,64.0922 103.5,65C 102.552,65.4828 101.552,65.6495 100.5,65.5C 100.158,64.6618 99.4916,64.3284 98.5,64.5C 97.7171,62.6568 97.0505,60.6568 96.5,58.5C 96.8333,58.1667 97.1667,57.8333 97.5,57.5C 99.1727,59.0863 101.173,59.7529 103.5,59.5 Z"/></g>
<g><path style="opacity:1" fill="#fbd09e" d="M 107.5,58.5 C 107.442,63.3386 105.109,66.0053 100.5,66.5C 100.5,66.1667 100.5,65.8333 100.5,65.5C 101.552,65.6495 102.552,65.4828 103.5,65C 101.561,64.0922 100.561,62.5922 100.5,60.5C 101.791,60.7373 102.791,60.404 103.5,59.5C 104.708,58.7659 106.041,58.4326 107.5,58.5 Z"/></g>
<g><path style="opacity:1" fill="#836045" d="M 108.5,56.5 C 109.167,56.8333 109.833,57.1667 110.5,57.5C 110.5,60.5 110.5,63.5 110.5,66.5C 110.5,67.1667 110.167,67.5 109.5,67.5C 109.672,66.5084 109.338,65.8417 108.5,65.5C 109.833,62.5 109.833,59.5 108.5,56.5 Z"/></g>
<g><path style="opacity:1" fill="#d2a171" d="M 110.5,55.5 C 111.5,56.1667 112.5,56.8333 113.5,57.5C 114.075,61.1547 113.075,64.1547 110.5,66.5C 110.5,63.5 110.5,60.5 110.5,57.5C 110.5,56.8333 110.5,56.1667 110.5,55.5 Z"/></g>
<g><path style="opacity:1" fill="#99772e" d="M 78.5,27.5 C 78.3505,26.448 78.5172,25.448 79,24.5C 80.2568,26.7458 82.0901,28.0791 84.5,28.5C 84.5,27.5 84.5,26.5 84.5,25.5C 84.8333,25.5 85.1667,25.5 85.5,25.5C 87.8591,28.9758 90.5258,29.3092 93.5,26.5C 94.1667,26.5 94.8333,26.5 95.5,26.5C 96.5,26.8333 97.1667,27.5 97.5,28.5C 89.6061,29.8513 81.6061,30.6846 73.5,31C 44.5368,37.6243 25.3701,55.1243 16,83.5C 7.25495,124.613 21.2549,155.28 58,175.5C 58.3826,174.944 58.8826,174.611 59.5,174.5C 60.3382,174.842 60.6716,175.508 60.5,176.5C 60.6309,177.376 60.2975,178.043 59.5,178.5C 35.9163,167.419 20.4163,149.419 13,124.5C 6.1173,78.5894 23.9506,46.5894 66.5,28.5C 69.1667,28.5 71.8333,28.5 74.5,28.5C 74.8333,16.5 75.1667,16.5 75.5,28.5C 76.791,28.7373 77.791,28.404 78.5,27.5 Z"/></g>
<g><path style="opacity:1" fill="#99772e" d="M 103.5,25.5 C 104.167,26.1667 104.833,26.8333 105.5,27.5C 106.568,28.4345 107.901,28.7678 109.5,28.5C 116.537,29.9028 123.204,32.4028 129.5,36C 154.967,51.8358 168.3,74.8358 169.5,105C 169.493,127.835 160.993,146.668 144,161.5C 143.517,160.552 143.351,159.552 143.5,158.5C 143.5,158.167 143.5,157.833 143.5,157.5C 143.833,157.5 144.167,157.5 144.5,157.5C 149.504,154.662 153.337,150.662 156,145.5C 175.657,106.938 169.49,73.1044 137.5,44C 125.263,36.7578 112.263,31.5912 98.5,28.5C 100.933,28.7271 102.599,27.7271 103.5,25.5 Z"/></g>
<g><path style="opacity:1" fill="#dbbca6" d="M 85.5,47.5 C 86.275,54.3533 86.9417,61.3533 87.5,68.5C 86.8333,67.8333 86.1667,67.1667 85.5,66.5C 84.6193,60.237 84.6193,53.9036 85.5,47.5 Z"/></g>
<g><path style="opacity:1" fill="#d4a541" d="M 113.5,57.5 C 118.105,59.4711 122.438,61.9711 126.5,65C 139.266,78.6352 144.433,94.8019 142,113.5C 141.79,111.942 141.29,110.609 140.5,109.5C 140.016,103.381 138.016,97.8809 134.5,93C 126.714,90.2722 119.381,86.7722 112.5,82.5C 111.833,81.1667 110.833,80.1667 109.5,79.5C 109.5,78.8333 109.167,78.5 108.5,78.5C 108.5,77.1667 108.5,75.8333 108.5,74.5C 108.993,72.1944 109.326,69.861 109.5,67.5C 110.167,67.5 110.5,67.1667 110.5,66.5C 113.075,64.1547 114.075,61.1547 113.5,57.5 Z"/></g>
<g><path style="opacity:1" fill="#bb5439" d="M 96.5,69.5 C 98.7354,69.2053 100.735,69.5386 102.5,70.5C 100.517,70.1568 99.1834,70.8235 98.5,72.5C 96.8333,73.1667 95.1667,73.8333 93.5,74.5C 92.7659,73.2921 92.4326,71.9587 92.5,70.5C 94.099,70.7678 95.4324,70.4345 96.5,69.5 Z"/></g>
<g><path style="opacity:1" fill="#462c24" d="M 98.5,64.5 C 99.4916,64.3284 100.158,64.6618 100.5,65.5C 100.5,65.8333 100.5,66.1667 100.5,66.5C 101.568,67.4345 102.901,67.7678 104.5,67.5C 104.34,69.1992 104.506,70.8659 105,72.5C 106.267,70.1856 107.434,67.8522 108.5,65.5C 109.338,65.8417 109.672,66.5084 109.5,67.5C 109.326,69.861 108.993,72.1944 108.5,74.5C 107.31,76.8693 105.643,78.8693 103.5,80.5C 102.5,79.8333 101.5,79.1667 100.5,78.5C 101.404,77.791 101.737,76.791 101.5,75.5C 102.339,74.3588 103.006,73.0255 103.5,71.5C 103.376,70.8933 103.043,70.56 102.5,70.5C 100.735,69.5386 98.7354,69.2053 96.5,69.5C 95.791,68.596 94.791,68.2627 93.5,68.5C 94.6223,66.4444 96.2889,65.1111 98.5,64.5 Z"/></g>
<g><path style="opacity:1" fill="#e09a68" d="M 102.5,70.5 C 103.043,70.56 103.376,70.8933 103.5,71.5C 103.006,73.0255 102.339,74.3588 101.5,75.5C 100.9,74.0998 99.8999,73.0998 98.5,72.5C 99.1834,70.8235 100.517,70.1568 102.5,70.5 Z"/></g>
<g><path style="opacity:1" fill="#816427" d="M 126.5,26.5 C 127.467,27.8062 128.801,28.4729 130.5,28.5C 150.8,39.3144 164.967,55.6477 173,77.5C 183.954,118.819 172.454,151.819 138.5,176.5C 139.267,172.673 140.267,169.006 141.5,165.5C 141.238,166.978 141.571,168.311 142.5,169.5C 153.854,160.312 162.354,148.979 168,135.5C 181.553,88.308 167.053,52.6413 124.5,28.5C 125.167,27.8333 125.833,27.1667 126.5,26.5 Z"/></g>
<g><path style="opacity:1" fill="#683823" d="M 98.5,72.5 C 99.8999,73.0998 100.9,74.0998 101.5,75.5C 101.737,76.791 101.404,77.791 100.5,78.5C 99.7784,78.0825 99.2784,77.4158 99,76.5C 96.4717,77.9341 94.6383,77.2675 93.5,74.5C 95.1667,73.8333 96.8333,73.1667 98.5,72.5 Z"/></g>
<g><path style="opacity:1" fill="#2d1f1c" d="M 85.5,66.5 C 86.1667,67.1667 86.8333,67.8333 87.5,68.5C 87.4148,69.9953 88.0815,70.9953 89.5,71.5C 90.2826,69.7118 91.6159,68.7118 93.5,68.5C 94.791,68.2627 95.791,68.596 96.5,69.5C 95.4324,70.4345 94.099,70.7678 92.5,70.5C 92.4326,71.9587 92.7659,73.2921 93.5,74.5C 94.6383,77.2675 96.4717,77.9341 99,76.5C 99.2784,77.4158 99.7784,78.0825 100.5,78.5C 101.5,79.1667 102.5,79.8333 103.5,80.5C 97.7578,83.6761 92.7578,82.6761 88.5,77.5C 87.4925,74.1563 86.4925,70.8229 85.5,67.5C 85.5,67.1667 85.5,66.8333 85.5,66.5 Z"/></g>
<g><path style="opacity:1" fill="#cc8f5e" d="M 108.5,74.5 C 108.5,75.8333 108.5,77.1667 108.5,78.5C 106.833,79.8333 105.167,81.1667 103.5,82.5C 103.5,81.8333 103.5,81.1667 103.5,80.5C 105.643,78.8693 107.31,76.8693 108.5,74.5 Z"/></g>
<g><path style="opacity:1" fill="#e1dbd2" d="M 108.5,78.5 C 109.167,78.5 109.5,78.8333 109.5,79.5C 110.604,89.7918 109.604,99.7918 106.5,109.5C 106.255,104.536 106.922,99.7022 108.5,95C 108.472,93.9302 108.139,93.0968 107.5,92.5C 107.806,89.6146 107.473,86.9479 106.5,84.5C 106.44,83.9569 106.107,83.6236 105.5,83.5C 104.06,84.9524 102.394,85.9524 100.5,86.5C 100.771,84.5695 101.771,83.2362 103.5,82.5C 105.167,81.1667 106.833,79.8333 108.5,78.5 Z"/></g>
<g><path style="opacity:1" fill="#e1d9d5" d="M 88.5,80.5 C 89.1667,80.8333 89.8333,81.1667 90.5,81.5C 90.5,82.5 90.5,83.5 90.5,84.5C 89.5386,86.2646 89.2053,88.2646 89.5,90.5C 88.3263,89.4863 87.6596,88.153 87.5,86.5C 87.5,85.1667 87.5,83.8333 87.5,82.5C 87.3284,81.5084 87.6618,80.8417 88.5,80.5 Z"/></g>
<g><path style="opacity:1" fill="#b09692" d="M 90.5,81.5 C 92.9095,82.7007 94.9095,84.3674 96.5,86.5C 96.44,87.0431 96.1067,87.3764 95.5,87.5C 93.9713,86.2371 92.3046,85.2371 90.5,84.5C 90.5,83.5 90.5,82.5 90.5,81.5 Z"/></g>
<g><path style="opacity:1" fill="#8a422e" d="M 88.5,77.5 C 92.7578,82.6761 97.7578,83.6761 103.5,80.5C 103.5,81.1667 103.5,81.8333 103.5,82.5C 101.771,83.2362 100.771,84.5695 100.5,86.5C 99.1667,86.5 97.8333,86.5 96.5,86.5C 94.9095,84.3674 92.9095,82.7007 90.5,81.5C 89.8333,81.1667 89.1667,80.8333 88.5,80.5C 88.5,79.5 88.5,78.5 88.5,77.5 Z"/></g>
<g><path style="opacity:1" fill="#eed495" d="M 85.5,84.5 C 84.9688,86.5441 83.8022,88.2107 82,89.5C 81.5357,88.9056 81.369,88.2389 81.5,87.5C 82.795,86.5116 84.1283,85.5116 85.5,84.5 Z"/></g>
<g><path style="opacity:1" fill="#25161e" d="M 106.5,84.5 C 106.5,86.1667 106.5,87.8333 106.5,89.5C 104.801,89.3398 103.134,89.5065 101.5,90C 102.167,90.3333 102.833,90.6667 103.5,91C 103.272,91.3988 102.938,91.5654 102.5,91.5C 101.833,91.5 101.167,91.5 100.5,91.5C 97.3107,90.8339 93.9773,90.1672 90.5,89.5C 93.8019,88.7718 97.1352,88.6051 100.5,89C 103.058,88.1162 105.058,86.6162 106.5,84.5 Z"/></g>
<g><path style="opacity:1" fill="#513d45" d="M 106.5,84.5 C 107.473,86.9479 107.806,89.6146 107.5,92.5C 107.027,93.9063 106.027,94.573 104.5,94.5C 103.833,93.5 103.167,92.5 102.5,91.5C 102.938,91.5654 103.272,91.3988 103.5,91C 102.833,90.6667 102.167,90.3333 101.5,90C 103.134,89.5065 104.801,89.3398 106.5,89.5C 106.5,87.8333 106.5,86.1667 106.5,84.5 Z"/></g>
<g><path style="opacity:1" fill="#bc9ba1" d="M 87.5,86.5 C 87.6596,88.153 88.3263,89.4863 89.5,90.5C 89.2291,92.3797 89.8958,93.713 91.5,94.5C 91.5,94.8333 91.5,95.1667 91.5,95.5C 89.5,95.5 87.5,95.5 85.5,95.5C 85.9896,92.3447 86.6562,89.3447 87.5,86.5 Z"/></g>
<g><path style="opacity:1" fill="#433139" d="M 106.5,84.5 C 105.058,86.6162 103.058,88.1162 100.5,89C 97.1352,88.6051 93.8019,88.7718 90.5,89.5C 93.9773,90.1672 97.3107,90.8339 100.5,91.5C 97.9899,91.0535 95.9899,91.7202 94.5,93.5C 93.391,93.5569 92.391,93.8902 91.5,94.5C 89.8958,93.713 89.2291,92.3797 89.5,90.5C 89.2053,88.2646 89.5386,86.2646 90.5,84.5C 92.3046,85.2371 93.9713,86.2371 95.5,87.5C 96.1067,87.3764 96.44,87.0431 96.5,86.5C 97.8333,86.5 99.1667,86.5 100.5,86.5C 102.394,85.9524 104.06,84.9524 105.5,83.5C 106.107,83.6236 106.44,83.9569 106.5,84.5 Z"/></g>
<g><path style="opacity:1" fill="#936547" d="M 87.5,82.5 C 87.5,83.8333 87.5,85.1667 87.5,86.5C 86.6562,89.3447 85.9896,92.3447 85.5,95.5C 85.5,95.8333 85.5,96.1667 85.5,96.5C 84.8333,102.167 84.1667,107.833 83.5,113.5C 83.5,108.167 83.5,102.833 83.5,97.5C 82.5,97.5 81.5,97.5 80.5,97.5C 79.4324,96.5655 78.099,96.2322 76.5,96.5C 76.1667,96.5 75.8333,96.5 75.5,96.5C 75.1667,96.5 74.8333,96.5 74.5,96.5C 74.38,95.4138 73.7133,94.7472 72.5,94.5C 71.1508,94.8457 69.8175,95.179 68.5,95.5C 68.0618,95.5654 67.7284,95.3988 67.5,95C 68.4158,94.7216 69.0825,94.2216 69.5,93.5C 73.6228,91.6853 77.6228,89.6853 81.5,87.5C 81.369,88.2389 81.5357,88.9056 82,89.5C 83.8022,88.2107 84.9688,86.5441 85.5,84.5C 86.1667,83.8333 86.8333,83.1667 87.5,82.5 Z"/></g>
<g><path style="opacity:1" fill="#f6f6f0" d="M 107.5,92.5 C 108.139,93.0968 108.472,93.9302 108.5,95C 106.922,99.7022 106.255,104.536 106.5,109.5C 106.567,110.959 106.234,112.292 105.5,113.5C 104.275,112.848 103.608,111.681 103.5,110C 102.377,104.885 101.71,99.7187 101.5,94.5C 102.5,94.5 103.5,94.5 104.5,94.5C 106.027,94.573 107.027,93.9063 107.5,92.5 Z"/></g>
<g><path style="opacity:1" fill="#ddd5a2" d="M 74.5,96.5 C 72.0704,99.5916 70.0704,102.925 68.5,106.5C 68.0372,103.779 67.3705,101.112 66.5,98.5C 66.7822,97.2223 67.4489,96.2223 68.5,95.5C 69.8175,95.179 71.1508,94.8457 72.5,94.5C 73.7133,94.7472 74.38,95.4138 74.5,96.5 Z"/></g>
<g><path style="opacity:1" fill="#e1daa5" d="M 80.5,97.5 C 81.5,97.5 82.5,97.5 83.5,97.5C 83.5,102.833 83.5,108.167 83.5,113.5C 83.7148,115.179 83.0481,116.179 81.5,116.5C 80.1261,111.426 79.1261,106.26 78.5,101C 78.6083,99.3189 79.2749,98.1522 80.5,97.5 Z"/></g>
<g><path style="opacity:1" fill="#fbfbf9" d="M 100.5,98.5 C 99.4246,97.4376 98.4246,97.4376 97.5,98.5C 99.3462,102.582 100.013,106.915 99.5,111.5C 98.5,111.5 97.5,111.5 96.5,111.5C 96.5,109.833 96.5,108.167 96.5,106.5C 96.5,101.833 96.5,97.1667 96.5,92.5C 97.8333,92.5 99.1667,92.5 100.5,92.5C 100.5,94.5 100.5,96.5 100.5,98.5 Z"/></g>
<g><path style="opacity:1" fill="#f8f6ca" d="M 112.5,82.5 C 119.381,86.7722 126.714,90.2722 134.5,93C 138.016,97.8809 140.016,103.381 140.5,109.5C 140.5,110.167 140.5,110.833 140.5,111.5C 137.41,113.584 135.077,116.251 133.5,119.5C 138.026,120.409 140.692,123.075 141.5,127.5C 141.5,128.167 141.5,128.833 141.5,129.5C 141.631,130.239 141.464,130.906 141,131.5C 140.163,129.156 138.829,127.156 137,125.5C 138.11,129.215 139.943,132.715 142.5,136C 140.243,135.563 137.91,135.063 135.5,134.5C 133.955,133.77 133.122,132.437 133,130.5C 132.409,124.502 131.909,118.502 131.5,112.5C 131.604,106.741 132.104,101.074 133,95.5C 131.14,100.687 129.974,106.021 129.5,111.5C 123.819,111.635 118.152,111.968 112.5,112.5C 112.5,114.833 112.5,117.167 112.5,119.5C 110.5,120.833 108.5,120.833 106.5,119.5C 109.279,107.162 111.279,94.8284 112.5,82.5 Z"/></g>
<g><path style="opacity:1" fill="#beb085" d="M 131.5,112.5 C 130.833,114.833 130.167,117.167 129.5,119.5C 129.167,119.5 128.833,119.5 128.5,119.5C 128.5,119.167 128.5,118.833 128.5,118.5C 129.404,117.791 129.737,116.791 129.5,115.5C 129.5,114.167 129.5,112.833 129.5,111.5C 129.974,106.021 131.14,100.687 133,95.5C 132.104,101.074 131.604,106.741 131.5,112.5 Z"/></g>
<g><path style="opacity:1" fill="#e8e7ab" d="M 75.5,96.5 C 75.8333,96.5 76.1667,96.5 76.5,96.5C 76.8333,100.5 77.1667,104.5 77.5,108.5C 77.8432,110.483 77.1765,111.817 75.5,112.5C 75.5,107.167 75.5,101.833 75.5,96.5 Z"/></g>
<g><path style="opacity:1" fill="#e8b774" d="M 69.5,93.5 C 69.0825,94.2216 68.4158,94.7216 67.5,95C 67.7284,95.3988 68.0618,95.5654 68.5,95.5C 67.4489,96.2223 66.7822,97.2223 66.5,98.5C 65.7784,98.0825 65.2784,97.4158 65,96.5C 63.0713,103.015 61.9046,109.682 61.5,116.5C 60.5655,117.568 60.2322,118.901 60.5,120.5C 59.6373,122.421 58.9707,124.421 58.5,126.5C 57.5318,128.607 57.1984,130.941 57.5,133.5C 57.5,133.833 57.5,134.167 57.5,134.5C 56.5,135.833 55.5,137.167 54.5,138.5C 55.473,131.112 57.1396,123.945 59.5,117C 58.5411,114.88 58.3744,112.713 59,110.5C 60.3437,105.819 61.677,101.153 63,96.5C 64.7342,94.5494 66.9009,93.5494 69.5,93.5 Z"/></g>
<g><path style="opacity:1" fill="#8c5c44" d="M 66.5,98.5 C 67.3705,101.112 68.0372,103.779 68.5,106.5C 68.5271,108.199 69.1938,109.533 70.5,110.5C 68.744,111.552 68.0773,113.219 68.5,115.5C 67.6805,112.695 67.1805,109.695 67,106.5C 66.5014,110.152 66.3347,113.818 66.5,117.5C 65.8333,118.833 65.1667,120.167 64.5,121.5C 63.925,119.589 62.925,117.922 61.5,116.5C 61.9046,109.682 63.0713,103.015 65,96.5C 65.2784,97.4158 65.7784,98.0825 66.5,98.5 Z"/></g>
<g><path style="opacity:1" fill="#d2c5bd" d="M 100.5,91.5 C 101.167,91.5 101.833,91.5 102.5,91.5C 103.167,92.5 103.833,93.5 104.5,94.5C 103.5,94.5 102.5,94.5 101.5,94.5C 101.71,99.7187 102.377,104.885 103.5,110C 103.608,111.681 104.275,112.848 105.5,113.5C 105.089,117.221 104.422,120.888 103.5,124.5C 102.728,123.306 101.728,122.306 100.5,121.5C 101.573,113.818 101.573,106.152 100.5,98.5C 100.5,96.5 100.5,94.5 100.5,92.5C 99.1667,92.5 97.8333,92.5 96.5,92.5C 96.5,97.1667 96.5,101.833 96.5,106.5C 96.1667,106.5 95.8333,106.5 95.5,106.5C 95.8182,101.968 95.4849,97.6344 94.5,93.5C 95.9899,91.7202 97.9899,91.0535 100.5,91.5 Z"/></g>
<g><path style="opacity:1" fill="#958760" d="M 76.5,96.5 C 78.099,96.2322 79.4324,96.5655 80.5,97.5C 79.2749,98.1522 78.6083,99.3189 78.5,101C 79.1261,106.26 80.1261,111.426 81.5,116.5C 81.1667,116.5 80.8333,116.5 80.5,116.5C 79.5,113.833 78.5,111.167 77.5,108.5C 77.1667,104.5 76.8333,100.5 76.5,96.5 Z"/></g>
<g><path style="opacity:1" fill="#eceadf" d="M 85.5,95.5 C 87.5,95.5 89.5,95.5 91.5,95.5C 92.0431,95.56 92.3764,95.8933 92.5,96.5C 90.8683,99.8965 89.5349,103.396 88.5,107C 89.3134,109.46 89.9801,111.96 90.5,114.5C 89.8278,117.512 89.1611,120.512 88.5,123.5C 87.1127,121.123 86.2794,118.457 86,115.5C 85.5005,109.175 85.3338,102.842 85.5,96.5C 85.5,96.1667 85.5,95.8333 85.5,95.5 Z"/></g>
<g><path style="opacity:1" fill="#d4c7be" d="M 94.5,93.5 C 93.07,97.9581 91.7367,102.458 90.5,107C 93.113,114.272 93.113,121.439 90.5,128.5C 90.5979,126.447 89.9313,124.78 88.5,123.5C 89.1611,120.512 89.8278,117.512 90.5,114.5C 89.9801,111.96 89.3134,109.46 88.5,107C 89.5349,103.396 90.8683,99.8965 92.5,96.5C 92.3764,95.8933 92.0431,95.56 91.5,95.5C 91.5,95.1667 91.5,94.8333 91.5,94.5C 92.391,93.8902 93.391,93.5569 94.5,93.5 Z"/></g>
<g><path style="opacity:1" fill="#e3965a" d="M 70.5,110.5 C 71.3711,116.855 72.3711,123.188 73.5,129.5C 73.6716,130.492 73.3382,131.158 72.5,131.5C 71.1665,126.166 69.8331,120.833 68.5,115.5C 68.0773,113.219 68.744,111.552 70.5,110.5 Z"/></g>
<g><path style="opacity:1" fill="#9a8065" d="M 109.5,79.5 C 110.833,80.1667 111.833,81.1667 112.5,82.5C 111.279,94.8284 109.279,107.162 106.5,119.5C 105.797,121.629 104.797,123.629 103.5,125.5C 103.5,125.167 103.5,124.833 103.5,124.5C 104.422,120.888 105.089,117.221 105.5,113.5C 106.234,112.292 106.567,110.959 106.5,109.5C 109.604,99.7918 110.604,89.7918 109.5,79.5 Z"/></g>
<g><path style="opacity:1" fill="#f9f8e8" d="M 129.5,111.5 C 129.5,112.833 129.5,114.167 129.5,115.5C 124.595,114.555 119.595,114.221 114.5,114.5C 114.5,115.5 114.5,116.5 114.5,117.5C 119.363,117.181 124.03,117.514 128.5,118.5C 128.5,118.833 128.5,119.167 128.5,119.5C 123.167,119.5 117.833,119.5 112.5,119.5C 112.5,117.167 112.5,114.833 112.5,112.5C 118.152,111.968 123.819,111.635 129.5,111.5 Z"/></g>
<g><path style="opacity:1" fill="#d6d6d0" d="M 129.5,115.5 C 129.737,116.791 129.404,117.791 128.5,118.5C 124.03,117.514 119.363,117.181 114.5,117.5C 114.5,116.5 114.5,115.5 114.5,114.5C 119.595,114.221 124.595,114.555 129.5,115.5 Z"/></g>
<g><path style="opacity:1" fill="#e3dda6" d="M 140.5,111.5 C 141.098,116.813 141.431,122.146 141.5,127.5C 140.692,123.075 138.026,120.409 133.5,119.5C 135.077,116.251 137.41,113.584 140.5,111.5 Z"/></g>
<g><path style="opacity:1" fill="#f1f1ea" d="M 94.5,93.5 C 95.4849,97.6344 95.8182,101.968 95.5,106.5C 96.2222,112.879 95.2222,118.879 92.5,124.5C 94.6931,128.419 95.0265,132.419 93.5,136.5C 92.5115,133.919 91.5115,131.252 90.5,128.5C 93.113,121.439 93.113,114.272 90.5,107C 91.7367,102.458 93.07,97.9581 94.5,93.5 Z"/></g>
<g><path style="opacity:1" fill="#d8d5ca" d="M 100.5,98.5 C 101.573,106.152 101.573,113.818 100.5,121.5C 100.806,124.385 100.473,127.052 99.5,129.5C 99.666,124.156 99.4994,118.823 99,113.5C 98.586,113.957 98.086,114.291 97.5,114.5C 95.9721,119.368 96.3054,124.035 98.5,128.5C 97.7579,129.287 96.9246,129.953 96,130.5C 95.5017,133.817 95.335,137.15 95.5,140.5C 95.1667,140.5 94.8333,140.5 94.5,140.5C 94.1667,139.167 93.8333,137.833 93.5,136.5C 95.0265,132.419 94.6931,128.419 92.5,124.5C 95.2222,118.879 96.2222,112.879 95.5,106.5C 95.8333,106.5 96.1667,106.5 96.5,106.5C 96.5,108.167 96.5,109.833 96.5,111.5C 97.5,111.5 98.5,111.5 99.5,111.5C 100.013,106.915 99.3462,102.582 97.5,98.5C 98.4246,97.4376 99.4246,97.4376 100.5,98.5 Z"/></g>
<g><path style="opacity:1" fill="#fbf9d0" d="M 112.5,119.5 C 117.833,119.5 123.167,119.5 128.5,119.5C 127.674,123.136 127.008,126.803 126.5,130.5C 125.681,133.305 125.181,136.305 125,139.5C 124.667,137.5 124.333,135.5 124,133.5C 120.952,137.605 118.452,141.939 116.5,146.5C 114.61,146.297 113.11,146.963 112,148.5C 111.536,147.906 111.369,147.239 111.5,146.5C 112.435,143.887 112.602,141.221 112,138.5C 110.961,139.71 109.794,140.71 108.5,141.5C 107.522,141.189 106.855,140.522 106.5,139.5C 111.094,133.587 113.094,126.921 112.5,119.5 Z"/></g>
<g><path style="opacity:1" fill="#bc5835" d="M 60.5,120.5 C 61.4972,120.47 62.1639,120.97 62.5,122C 61.6831,123.49 60.8498,124.99 60,126.5C 59.31,127.738 58.81,127.738 58.5,126.5C 58.9707,124.421 59.6373,122.421 60.5,120.5 Z"/></g>
<g><path style="opacity:1" fill="#44261d" d="M 68.5,115.5 C 69.8331,120.833 71.1665,126.166 72.5,131.5C 72.5,132.167 72.5,132.833 72.5,133.5C 70.9174,135.508 69.9174,137.841 69.5,140.5C 69.5,139.5 69.5,138.5 69.5,137.5C 69.473,131.949 68.8063,126.616 67.5,121.5C 67.5674,120.041 67.2341,118.708 66.5,117.5C 66.3347,113.818 66.5014,110.152 67,106.5C 67.1805,109.695 67.6805,112.695 68.5,115.5 Z"/></g>
<g><path style="opacity:1" fill="#c5b079" d="M 85.5,96.5 C 85.3338,102.842 85.5005,109.175 86,115.5C 86.2794,118.457 87.1127,121.123 88.5,123.5C 89.9313,124.78 90.5979,126.447 90.5,128.5C 91.5115,131.252 92.5115,133.919 93.5,136.5C 93.8333,137.833 94.1667,139.167 94.5,140.5C 94.5,141.167 94.1667,141.5 93.5,141.5C 89.2435,133.319 85.2435,124.986 81.5,116.5C 83.0481,116.179 83.7148,115.179 83.5,113.5C 84.1667,107.833 84.8333,102.167 85.5,96.5 Z"/></g>
<g><path style="opacity:1" fill="#e3965d" d="M 61.5,116.5 C 62.925,117.922 63.925,119.589 64.5,121.5C 62.1517,125.535 59.8184,129.535 57.5,133.5C 57.1984,130.941 57.5318,128.607 58.5,126.5C 58.81,127.738 59.31,127.738 60,126.5C 60.8498,124.99 61.6831,123.49 62.5,122C 62.1639,120.97 61.4972,120.47 60.5,120.5C 60.2322,118.901 60.5655,117.568 61.5,116.5 Z"/></g>
<g><path style="opacity:1" fill="#7b5b3a" d="M 128.5,119.5 C 128.833,119.5 129.167,119.5 129.5,119.5C 129.5,120.833 129.5,122.167 129.5,123.5C 128.523,126.287 128.19,129.287 128.5,132.5C 127.833,132.167 127.167,131.833 126.5,131.5C 126.5,131.167 126.5,130.833 126.5,130.5C 127.008,126.803 127.674,123.136 128.5,119.5 Z"/></g>
<g><path style="opacity:1" fill="#612c28" d="M 66.5,117.5 C 67.2341,118.708 67.5674,120.041 67.5,121.5C 66.6854,126.869 65.6854,132.202 64.5,137.5C 63.1667,137.5 61.8333,137.5 60.5,137.5C 60.2942,135.451 59.4609,135.117 58,136.5C 57.5357,135.906 57.369,135.239 57.5,134.5C 57.5,134.167 57.5,133.833 57.5,133.5C 59.8184,129.535 62.1517,125.535 64.5,121.5C 65.1667,120.167 65.8333,118.833 66.5,117.5 Z"/></g>
<g><path style="opacity:1" fill="#b4c091" d="M 77.5,108.5 C 78.5,111.167 79.5,113.833 80.5,116.5C 84.3237,127.152 88.9904,137.486 94.5,147.5C 94.1667,147.5 93.8333,147.5 93.5,147.5C 91.8333,146.167 90.1667,144.833 88.5,143.5C 88.1667,142.833 87.8333,142.167 87.5,141.5C 85.4196,136.341 83.0862,131.341 80.5,126.5C 80.6716,125.508 80.3382,124.842 79.5,124.5C 78.3627,120.421 77.0294,116.421 75.5,112.5C 77.1765,111.817 77.8432,110.483 77.5,108.5 Z"/></g>
<g><path style="opacity:1" fill="#3f342e" d="M 74.5,96.5 C 74.8333,96.5 75.1667,96.5 75.5,96.5C 75.5,101.833 75.5,107.167 75.5,112.5C 77.0294,116.421 78.3627,120.421 79.5,124.5C 80.1356,131.011 80.1356,137.345 79.5,143.5C 79.1667,143.5 78.8333,143.5 78.5,143.5C 77.9744,141.77 76.9744,140.436 75.5,139.5C 75.678,135.878 75.0114,132.544 73.5,129.5C 72.3711,123.188 71.3711,116.855 70.5,110.5C 69.1938,109.533 68.5271,108.199 68.5,106.5C 70.0704,102.925 72.0704,99.5916 74.5,96.5 Z"/></g>
<g><path style="opacity:1" fill="#f0e6a9" d="M 106.5,119.5 C 108.5,120.833 110.5,120.833 112.5,119.5C 113.094,126.921 111.094,133.587 106.5,139.5C 106.855,140.522 107.522,141.189 108.5,141.5C 106.393,143.727 104.06,145.727 101.5,147.5C 103.422,145.105 104.589,142.438 105,139.5C 102.667,142.5 100.333,145.5 98,148.5C 97.5172,147.552 97.3505,146.552 97.5,145.5C 99.6659,138.992 101.666,132.326 103.5,125.5C 104.797,123.629 105.797,121.629 106.5,119.5 Z"/></g>
<g><path style="opacity:1" fill="#3f1e14" d="M 126.5,131.5 C 127.167,131.833 127.833,132.167 128.5,132.5C 128.5,132.833 128.5,133.167 128.5,133.5C 128.833,136.167 129.167,138.833 129.5,141.5C 128.1,140.9 127.1,139.9 126.5,138.5C 126.5,136.167 126.5,133.833 126.5,131.5 Z"/></g>
<g><path style="opacity:1" fill="#b56a3b" d="M 129.5,123.5 C 130.953,129.54 132.62,135.54 134.5,141.5C 133.279,140.972 132.113,140.305 131,139.5C 130.434,137.277 129.6,135.277 128.5,133.5C 128.5,133.167 128.5,132.833 128.5,132.5C 128.19,129.287 128.523,126.287 129.5,123.5 Z"/></g>
<g><path style="opacity:1" fill="#716d56" d="M 80.5,126.5 C 83.0862,131.341 85.4196,136.341 87.5,141.5C 82.4978,137.86 80.1644,132.86 80.5,126.5 Z"/></g>
<g><path style="opacity:1" fill="#4f3930" d="M 80.5,116.5 C 80.8333,116.5 81.1667,116.5 81.5,116.5C 85.2435,124.986 89.2435,133.319 93.5,141.5C 94.4867,143.473 95.4867,145.473 96.5,147.5C 96.0302,148.463 95.3635,148.463 94.5,147.5C 88.9904,137.486 84.3237,127.152 80.5,116.5 Z"/></g>
<g><path style="opacity:1" fill="#d8c387" d="M 131.5,112.5 C 131.909,118.502 132.409,124.502 133,130.5C 133.122,132.437 133.955,133.77 135.5,134.5C 136.716,136.451 138.382,137.951 140.5,139C 138.833,139.333 137.167,139.667 135.5,140C 138.122,140.923 140.622,142.089 143,143.5C 143.495,141.527 143.662,139.527 143.5,137.5C 144.468,139.607 144.802,141.941 144.5,144.5C 144.672,145.492 144.338,146.158 143.5,146.5C 142.564,145.026 141.23,144.026 139.5,143.5C 137.486,143.608 135.82,142.942 134.5,141.5C 132.62,135.54 130.953,129.54 129.5,123.5C 129.5,122.167 129.5,120.833 129.5,119.5C 130.167,117.167 130.833,114.833 131.5,112.5 Z"/></g>
<g><path style="opacity:1" fill="#7a4632" d="M 73.5,129.5 C 75.0114,132.544 75.678,135.878 75.5,139.5C 73.6535,137.97 72.6535,135.97 72.5,133.5C 72.5,132.833 72.5,132.167 72.5,131.5C 73.3382,131.158 73.6716,130.492 73.5,129.5 Z"/></g>
<g><path style="opacity:1" fill="#f3f2ee" d="M 99.5,129.5 C 98.9648,133.309 97.9648,136.976 96.5,140.5C 96.1667,140.5 95.8333,140.5 95.5,140.5C 95.335,137.15 95.5017,133.817 96,130.5C 96.9246,129.953 97.7579,129.287 98.5,128.5C 96.3054,124.035 95.9721,119.368 97.5,114.5C 98.086,114.291 98.586,113.957 99,113.5C 99.4994,118.823 99.666,124.156 99.5,129.5 Z"/></g>
<g><path style="opacity:1" fill="#dfd8a3" d="M 141.5,129.5 C 142.674,130.514 143.34,131.847 143.5,133.5C 143.5,134.833 143.5,136.167 143.5,137.5C 143.662,139.527 143.495,141.527 143,143.5C 140.622,142.089 138.122,140.923 135.5,140C 137.167,139.667 138.833,139.333 140.5,139C 138.382,137.951 136.716,136.451 135.5,134.5C 137.91,135.063 140.243,135.563 142.5,136C 139.943,132.715 138.11,129.215 137,125.5C 138.829,127.156 140.163,129.156 141,131.5C 141.464,130.906 141.631,130.239 141.5,129.5 Z"/></g>
<g><path style="opacity:1" fill="#9d756e" d="M 100.5,121.5 C 101.728,122.306 102.728,123.306 103.5,124.5C 103.5,124.833 103.5,125.167 103.5,125.5C 101.666,132.326 99.6659,138.992 97.5,145.5C 95.6275,144.104 95.2942,142.437 96.5,140.5C 97.9648,136.976 98.9648,133.309 99.5,129.5C 100.473,127.052 100.806,124.385 100.5,121.5 Z"/></g>
<g><path style="opacity:1" fill="#de7a4c" d="M 57.5,134.5 C 57.369,135.239 57.5357,135.906 58,136.5C 59.4609,135.117 60.2942,135.451 60.5,137.5C 59.8333,137.833 59.1667,138.167 58.5,138.5C 57.3604,140.045 56.3604,141.712 55.5,143.5C 55.1667,143.5 54.8333,143.5 54.5,143.5C 54.5,141.833 54.5,140.167 54.5,138.5C 55.5,137.167 56.5,135.833 57.5,134.5 Z"/></g>
<g><path style="opacity:1" fill="#1e1011" d="M 69.5,137.5 C 69.5,138.5 69.5,139.5 69.5,140.5C 69.5,141.167 69.5,141.833 69.5,142.5C 68.8333,145.833 68.1667,149.167 67.5,152.5C 67.637,149.188 66.637,146.354 64.5,144C 67.037,142.391 68.7037,140.225 69.5,137.5 Z"/></g>
<g><path style="opacity:1" fill="#763923" d="M 128.5,133.5 C 129.6,135.277 130.434,137.277 131,139.5C 132.113,140.305 133.279,140.972 134.5,141.5C 135.82,142.942 137.486,143.608 139.5,143.5C 137.898,145.074 135.898,145.741 133.5,145.5C 132.391,145.557 131.391,145.89 130.5,146.5C 130.784,144.585 130.451,142.919 129.5,141.5C 129.167,138.833 128.833,136.167 128.5,133.5 Z"/></g>
<g><path style="opacity:1" fill="#c89f46" d="M 126.5,138.5 C 127.1,139.9 128.1,140.9 129.5,141.5C 130.451,142.919 130.784,144.585 130.5,146.5C 130.221,151.589 128.887,156.255 126.5,160.5C 126.5,161.5 126.5,162.5 126.5,163.5C 126.167,163.5 125.833,163.5 125.5,163.5C 124.908,160.873 124.575,158.206 124.5,155.5C 124.647,149.767 125.314,144.1 126.5,138.5 Z"/></g>
<g><path style="opacity:1" fill="#eee6ab" d="M 126.5,130.5 C 126.5,130.833 126.5,131.167 126.5,131.5C 126.5,133.833 126.5,136.167 126.5,138.5C 125.314,144.1 124.647,149.767 124.5,155.5C 123.681,152.695 123.181,149.695 123,146.5C 121.661,149.377 119.827,151.044 117.5,151.5C 119.781,149.606 120.948,147.272 121,144.5C 118.128,147.037 115.628,149.87 113.5,153C 112.207,153.49 110.873,153.657 109.5,153.5C 109.171,150.772 109.837,148.438 111.5,146.5C 111.369,147.239 111.536,147.906 112,148.5C 113.11,146.963 114.61,146.297 116.5,146.5C 118.452,141.939 120.952,137.605 124,133.5C 124.333,135.5 124.667,137.5 125,139.5C 125.181,136.305 125.681,133.305 126.5,130.5 Z"/></g>
<g><path style="opacity:1" fill="#431c1e" d="M 67.5,121.5 C 68.8063,126.616 69.473,131.949 69.5,137.5C 68.7037,140.225 67.037,142.391 64.5,144C 66.637,146.354 67.637,149.188 67.5,152.5C 65.4508,152.294 65.1175,151.461 66.5,150C 63.5184,149.502 60.5184,149.335 57.5,149.5C 58.9136,147.862 58.5803,146.528 56.5,145.5C 57.1455,143.568 58.4788,142.401 60.5,142C 59.0267,141.29 58.3601,140.124 58.5,138.5C 59.1667,138.167 59.8333,137.833 60.5,137.5C 61.8333,137.5 63.1667,137.5 64.5,137.5C 65.6854,132.202 66.6854,126.869 67.5,121.5 Z"/></g>
<g><path style="opacity:1" fill="#473730" d="M 88.5,143.5 C 90.1667,144.833 91.8333,146.167 93.5,147.5C 94.6923,149.113 95.6923,150.78 96.5,152.5C 96.5,153.167 96.5,153.833 96.5,154.5C 96.6716,155.492 96.3382,156.158 95.5,156.5C 94.962,154.883 94.6287,153.216 94.5,151.5C 92.079,151.122 89.7457,150.455 87.5,149.5C 85.9802,146.744 83.9802,144.41 81.5,142.5C 81.8333,141.833 82.1667,141.167 82.5,140.5C 84.0712,142.415 86.0712,143.415 88.5,143.5 Z"/></g>
<g><path style="opacity:1" fill="#e5ce8b" d="M 111.5,146.5 C 109.837,148.438 109.171,150.772 109.5,153.5C 107.409,153.682 105.409,153.348 103.5,152.5C 103.167,153 102.833,153.5 102.5,154C 104.178,155.875 105.178,158.042 105.5,160.5C 103.856,160.286 102.356,160.62 101,161.5C 100.583,160.244 99.7498,159.577 98.5,159.5C 98.2041,157.597 97.5375,155.93 96.5,154.5C 96.5,153.833 96.5,153.167 96.5,152.5C 100.394,153.864 101.06,153.031 98.5,150C 99.3734,148.955 100.373,148.122 101.5,147.5C 104.06,145.727 106.393,143.727 108.5,141.5C 109.794,140.71 110.961,139.71 112,138.5C 112.602,141.221 112.435,143.887 111.5,146.5 Z"/></g>
<g><path style="opacity:1" fill="#d6794d" d="M 72.5,133.5 C 72.6535,135.97 73.6535,137.97 75.5,139.5C 76.9744,140.436 77.9744,141.77 78.5,143.5C 77.8106,144.774 76.9772,144.774 76,143.5C 75.8333,144 75.6667,144.5 75.5,145C 76.8966,146.961 77.8966,149.128 78.5,151.5C 77.1768,153.827 75.8435,156.16 74.5,158.5C 71.9474,162.157 71.9474,165.823 74.5,169.5C 73.5,169.5 72.5,169.5 71.5,169.5C 70.5318,167.393 70.1984,165.059 70.5,162.5C 71.7511,159.37 73.0845,156.204 74.5,153C 72.8326,149.666 71.6659,146.166 71,142.5C 70.8238,146.688 70.3238,150.688 69.5,154.5C 69.5,150.5 69.5,146.5 69.5,142.5C 69.5,141.833 69.5,141.167 69.5,140.5C 69.9174,137.841 70.9174,135.508 72.5,133.5 Z"/></g>
<g><path style="opacity:1" fill="#583933" d="M 78.5,143.5 C 78.8333,143.5 79.1667,143.5 79.5,143.5C 80.2543,146.091 81.921,147.924 84.5,149C 83.0654,148.689 81.7321,148.855 80.5,149.5C 80.1667,152.167 79.8333,154.833 79.5,157.5C 77.9246,158.456 76.258,159.123 74.5,159.5C 74.5,159.167 74.5,158.833 74.5,158.5C 75.8435,156.16 77.1768,153.827 78.5,151.5C 77.8966,149.128 76.8966,146.961 75.5,145C 75.6667,144.5 75.8333,144 76,143.5C 76.9772,144.774 77.8106,144.774 78.5,143.5 Z"/></g>
<g><path style="opacity:1" fill="#834237" d="M 58.5,138.5 C 58.3601,140.124 59.0267,141.29 60.5,142C 58.4788,142.401 57.1455,143.568 56.5,145.5C 58.5803,146.528 58.9136,147.862 57.5,149.5C 57.5,152.833 57.5,156.167 57.5,159.5C 56.5416,154.342 55.8749,149.009 55.5,143.5C 56.3604,141.712 57.3604,140.045 58.5,138.5 Z"/></g>
<g><path style="opacity:1" fill="#5a5446" d="M 79.5,124.5 C 80.3382,124.842 80.6716,125.508 80.5,126.5C 80.1644,132.86 82.4978,137.86 87.5,141.5C 87.8333,142.167 88.1667,142.833 88.5,143.5C 86.0712,143.415 84.0712,142.415 82.5,140.5C 82.1667,141.167 81.8333,141.833 81.5,142.5C 83.9802,144.41 85.9802,146.744 87.5,149.5C 85.9652,150.844 84.6319,152.511 83.5,154.5C 86.2952,154.637 88.9619,154.637 91.5,154.5C 88.3338,156.834 85.6671,159.667 83.5,163C 84.4158,163.278 85.0825,163.778 85.5,164.5C 83.1475,165.34 81.1475,166.674 79.5,168.5C 79.1667,169.5 78.5,170.167 77.5,170.5C 77.5,170.167 77.5,169.833 77.5,169.5C 77.9234,168.735 78.2568,167.902 78.5,167C 76.4767,164.825 75.1434,162.325 74.5,159.5C 76.258,159.123 77.9246,158.456 79.5,157.5C 79.8333,154.833 80.1667,152.167 80.5,149.5C 81.7321,148.855 83.0654,148.689 84.5,149C 81.921,147.924 80.2543,146.091 79.5,143.5C 80.1356,137.345 80.1356,131.011 79.5,124.5 Z"/></g>
<g><path style="opacity:1" fill="#fbf9d0" d="M 124.5,155.5 C 124.575,158.206 124.908,160.873 125.5,163.5C 122.888,164.371 120.221,165.037 117.5,165.5C 117.196,164.85 116.863,164.183 116.5,163.5C 113.178,161.666 109.844,160.166 106.5,159C 108.885,164.281 111.885,169.114 115.5,173.5C 118.484,176.521 118.151,177.521 114.5,176.5C 110.473,171.783 107.473,166.449 105.5,160.5C 105.178,158.042 104.178,155.875 102.5,154C 102.833,153.5 103.167,153 103.5,152.5C 105.409,153.348 107.409,153.682 109.5,153.5C 110.873,153.657 112.207,153.49 113.5,153C 115.628,149.87 118.128,147.037 121,144.5C 120.948,147.272 119.781,149.606 117.5,151.5C 119.827,151.044 121.661,149.377 123,146.5C 123.181,149.695 123.681,152.695 124.5,155.5 Z"/></g>
<g><path style="opacity:1" fill="#623132" d="M 69.5,142.5 C 69.5,146.5 69.5,150.5 69.5,154.5C 69.5,156.833 69.5,159.167 69.5,161.5C 68.373,165.683 67.373,170.017 66.5,174.5C 66.0133,175.473 65.5133,176.473 65,177.5C 64.5831,176.244 63.7498,175.577 62.5,175.5C 62.8134,172.753 62.48,170.086 61.5,167.5C 60.8165,167.863 60.1499,168.196 59.5,168.5C 59.6716,167.508 59.3382,166.842 58.5,166.5C 58.2606,164.533 58.5939,162.699 59.5,161C 58.5842,160.722 57.9175,160.222 57.5,159.5C 57.5,156.167 57.5,152.833 57.5,149.5C 60.5184,149.335 63.5184,149.502 66.5,150C 65.1175,151.461 65.4508,152.294 67.5,152.5C 68.1667,149.167 68.8333,145.833 69.5,142.5 Z"/></g>
<g><path style="opacity:1" fill="#c6983d" d="M 70.5,162.5 C 70.5,161.833 70.1667,161.5 69.5,161.5C 69.5,159.167 69.5,156.833 69.5,154.5C 70.3238,150.688 70.8238,146.688 71,142.5C 71.6659,146.166 72.8326,149.666 74.5,153C 73.0845,156.204 71.7511,159.37 70.5,162.5 Z"/></g>
<g><path style="opacity:1" fill="#ad9568" d="M 101.5,147.5 C 100.373,148.122 99.3734,148.955 98.5,150C 101.06,153.031 100.394,153.864 96.5,152.5C 95.6923,150.78 94.6923,149.113 93.5,147.5C 93.8333,147.5 94.1667,147.5 94.5,147.5C 95.3635,148.463 96.0302,148.463 96.5,147.5C 95.4867,145.473 94.4867,143.473 93.5,141.5C 94.1667,141.5 94.5,141.167 94.5,140.5C 94.8333,140.5 95.1667,140.5 95.5,140.5C 95.8333,140.5 96.1667,140.5 96.5,140.5C 95.2942,142.437 95.6275,144.104 97.5,145.5C 97.3505,146.552 97.5172,147.552 98,148.5C 100.333,145.5 102.667,142.5 105,139.5C 104.589,142.438 103.422,145.105 101.5,147.5 Z"/></g>
<g><path style="opacity:1" fill="#ddac76" d="M 54.5,143.5 C 54.8333,143.5 55.1667,143.5 55.5,143.5C 55.8749,149.009 56.5416,154.342 57.5,159.5C 57.9175,160.222 58.5842,160.722 59.5,161C 58.5939,162.699 58.2606,164.533 58.5,166.5C 58.1667,166.5 57.8333,166.5 57.5,166.5C 57.5,165.833 57.1667,165.5 56.5,165.5C 56.4828,163.435 56.1495,161.435 55.5,159.5C 54.8005,155.202 54.4672,150.869 54.5,146.5C 54.5,145.5 54.5,144.5 54.5,143.5 Z"/></g>
<g><path style="opacity:1" fill="#c29060" d="M 139.5,143.5 C 141.23,144.026 142.564,145.026 143.5,146.5C 143.5,150.167 143.5,153.833 143.5,157.5C 143.5,157.833 143.5,158.167 143.5,158.5C 143.167,158.5 142.833,158.5 142.5,158.5C 140.844,159.146 139.177,159.813 137.5,160.5C 135.865,159.954 134.199,159.62 132.5,159.5C 131.596,158.791 131.263,157.791 131.5,156.5C 138.041,156.462 138.041,155.796 131.5,154.5C 132.309,152.929 132.643,151.262 132.5,149.5C 133.675,149.719 134.675,149.386 135.5,148.5C 134.388,147.735 133.721,146.735 133.5,145.5C 135.898,145.741 137.898,145.074 139.5,143.5 Z"/></g>
<g><path style="opacity:1" fill="#9f5531" d="M 133.5,145.5 C 133.721,146.735 134.388,147.735 135.5,148.5C 134.675,149.386 133.675,149.719 132.5,149.5C 132.643,151.262 132.309,152.929 131.5,154.5C 138.041,155.796 138.041,156.462 131.5,156.5C 131.263,157.791 131.596,158.791 132.5,159.5C 132.918,160.222 133.584,160.722 134.5,161C 132.563,161.122 131.23,161.955 130.5,163.5C 129.91,164.766 129.41,166.099 129,167.5C 128.617,166.944 128.117,166.611 127.5,166.5C 127.5,166.167 127.5,165.833 127.5,165.5C 128.139,164.903 128.472,164.07 128.5,163C 128.316,161.624 127.649,160.791 126.5,160.5C 128.887,156.255 130.221,151.589 130.5,146.5C 131.391,145.89 132.391,145.557 133.5,145.5 Z"/></g>
<g><path style="opacity:1" fill="#a4b390" d="M 77.5,161.5 C 79.268,160.493 80.6013,161.159 81.5,163.5C 81.1667,163.833 80.8333,164.167 80.5,164.5C 79.265,163.66 78.265,162.66 77.5,161.5 Z"/></g>
<g><path style="opacity:1" fill="#ae7f52" d="M 142.5,158.5 C 141.781,160.764 141.448,163.097 141.5,165.5C 140.267,169.006 139.267,172.673 138.5,176.5C 138.167,176.5 137.833,176.5 137.5,176.5C 137.167,176.5 136.833,176.5 136.5,176.5C 135.71,175.599 134.71,174.932 133.5,174.5C 133.196,173.85 132.863,173.183 132.5,172.5C 135.438,168.591 134.771,165.591 130.5,163.5C 131.23,161.955 132.563,161.122 134.5,161C 133.584,160.722 132.918,160.222 132.5,159.5C 134.199,159.62 135.865,159.954 137.5,160.5C 139.177,159.813 140.844,159.146 142.5,158.5 Z"/></g>
<g><path style="opacity:1" fill="#8e9976" d="M 91.5,154.5 C 92.0431,154.56 92.3764,154.893 92.5,155.5C 91.7457,160.021 89.7457,163.688 86.5,166.5C 86.1667,165.833 85.8333,165.167 85.5,164.5C 85.0825,163.778 84.4158,163.278 83.5,163C 85.6671,159.667 88.3338,156.834 91.5,154.5 Z"/></g>
<g><path style="opacity:1" fill="#797c61" d="M 87.5,149.5 C 89.7457,150.455 92.079,151.122 94.5,151.5C 94.6287,153.216 94.962,154.883 95.5,156.5C 95.5,156.833 95.5,157.167 95.5,157.5C 94.1681,161.162 92.8348,164.828 91.5,168.5C 91.5,168.833 91.5,169.167 91.5,169.5C 89.6001,172.518 88.2667,175.851 87.5,179.5C 86.695,176.431 87.0283,173.265 88.5,170C 87.5705,168.923 86.9038,167.756 86.5,166.5C 89.7457,163.688 91.7457,160.021 92.5,155.5C 92.3764,154.893 92.0431,154.56 91.5,154.5C 88.9619,154.637 86.2952,154.637 83.5,154.5C 84.6319,152.511 85.9652,150.844 87.5,149.5 Z"/></g>
<g><path style="opacity:1" fill="#ddc283" d="M 117.5,165.5 C 118.801,166.882 119.634,168.548 120,170.5C 121.093,168.651 122.426,166.984 124,165.5C 124.14,167.256 123.64,168.922 122.5,170.5C 125.101,171.713 124.934,173.713 122,176.5C 121.517,175.552 121.351,174.552 121.5,173.5C 119.5,173.5 117.5,173.5 115.5,173.5C 111.885,169.114 108.885,164.281 106.5,159C 109.844,160.166 113.178,161.666 116.5,163.5C 116.863,164.183 117.196,164.85 117.5,165.5 Z"/></g>
<g><path style="opacity:1" fill="#5a2f1e" d="M 126.5,160.5 C 127.649,160.791 128.316,161.624 128.5,163C 128.472,164.07 128.139,164.903 127.5,165.5C 127.167,164.833 126.833,164.167 126.5,163.5C 126.5,162.5 126.5,161.5 126.5,160.5 Z"/></g>
<g><path style="opacity:1" fill="#d85839" d="M 74.5,158.5 C 74.5,158.833 74.5,159.167 74.5,159.5C 75.1434,162.325 76.4767,164.825 78.5,167C 78.2568,167.902 77.9234,168.735 77.5,169.5C 76.5,169.5 75.5,169.5 74.5,169.5C 71.9474,165.823 71.9474,162.157 74.5,158.5 Z"/></g>
<g><path style="opacity:1" fill="#c49d99" d="M 95.5,157.5 C 96.4816,160.962 96.815,164.629 96.5,168.5C 94.8333,168.5 93.1667,168.5 91.5,168.5C 92.8348,164.828 94.1681,161.162 95.5,157.5 Z"/></g>
<g><path style="opacity:1" fill="#8d5559" d="M 96.5,154.5 C 97.5375,155.93 98.2041,157.597 98.5,159.5C 99.1667,161.833 99.8333,164.167 100.5,166.5C 100.5,167.167 100.5,167.833 100.5,168.5C 98.3926,169.468 96.0593,169.802 93.5,169.5C 92.8333,169.5 92.1667,169.5 91.5,169.5C 91.5,169.167 91.5,168.833 91.5,168.5C 93.1667,168.5 94.8333,168.5 96.5,168.5C 96.815,164.629 96.4816,160.962 95.5,157.5C 95.5,157.167 95.5,156.833 95.5,156.5C 96.3382,156.158 96.6716,155.492 96.5,154.5 Z"/></g>
<g><path style="opacity:1" fill="#5c3b2c" d="M 100.5,168.5 C 101.338,168.842 101.672,169.508 101.5,170.5C 99.1432,170.337 96.8098,170.503 94.5,171C 93.8742,171.75 93.3742,172.584 93,173.5C 92.4209,172.072 92.5876,170.738 93.5,169.5C 96.0593,169.802 98.3926,169.468 100.5,168.5 Z"/></g>
<g><path style="opacity:1" fill="#b16954" d="M 62.5,175.5 C 62.5,176.167 62.1667,176.5 61.5,176.5C 61.7174,173.579 61.0507,170.913 59.5,168.5C 60.1499,168.196 60.8165,167.863 61.5,167.5C 62.48,170.086 62.8134,172.753 62.5,175.5 Z"/></g>
<g><path style="opacity:1" fill="#443533" d="M 69.5,161.5 C 70.1667,161.5 70.5,161.833 70.5,162.5C 70.1984,165.059 70.5318,167.393 71.5,169.5C 71.5,170.5 71.5,171.5 71.5,172.5C 72.8333,172.5 74.1667,172.5 75.5,172.5C 72.4864,177.203 69.4864,181.87 66.5,186.5C 65.6618,186.158 65.3284,185.492 65.5,184.5C 70.1828,181.129 71.3494,176.796 69,171.5C 68.1482,172.571 67.3149,173.571 66.5,174.5C 67.373,170.017 68.373,165.683 69.5,161.5 Z"/></g>
<g><path style="opacity:1" fill="#95614c" d="M 71.5,169.5 C 72.5,169.5 73.5,169.5 74.5,169.5C 75.5,169.5 76.5,169.5 77.5,169.5C 77.5,169.833 77.5,170.167 77.5,170.5C 77.1667,171.5 76.5,172.167 75.5,172.5C 74.1667,172.5 72.8333,172.5 71.5,172.5C 71.5,171.5 71.5,170.5 71.5,169.5 Z"/></g>
<g><path style="opacity:1" fill="#d1b480" d="M 130.5,163.5 C 134.771,165.591 135.438,168.591 132.5,172.5C 132.863,173.183 133.196,173.85 133.5,174.5C 132.624,174.369 131.957,174.702 131.5,175.5C 132.193,176.518 132.859,177.518 133.5,178.5C 133.5,178.833 133.5,179.167 133.5,179.5C 131.292,178.106 129.792,176.106 129,173.5C 128.821,177.025 128.321,180.359 127.5,183.5C 127.5,182.833 127.5,182.167 127.5,181.5C 127.706,178.505 127.04,175.838 125.5,173.5C 126.015,171.106 126.681,168.772 127.5,166.5C 128.117,166.611 128.617,166.944 129,167.5C 129.41,166.099 129.91,164.766 130.5,163.5 Z"/></g>
<g><path style="opacity:1" fill="#ceaa6d" d="M 98.5,159.5 C 99.7498,159.577 100.583,160.244 101,161.5C 102.356,160.62 103.856,160.286 105.5,160.5C 107.473,166.449 110.473,171.783 114.5,176.5C 112.983,176.489 111.816,175.823 111,174.5C 110.938,176.115 110.771,177.448 110.5,178.5C 109.512,177.205 108.512,175.872 107.5,174.5C 106.366,171.63 105.7,168.63 105.5,165.5C 103.708,165.366 102.042,165.699 100.5,166.5C 99.8333,164.167 99.1667,161.833 98.5,159.5 Z"/></g>
<g><path style="opacity:1" fill="#eecc8f" d="M 59.5,168.5 C 61.0507,170.913 61.7174,173.579 61.5,176.5C 61.1667,176.5 60.8333,176.5 60.5,176.5C 60.6716,175.508 60.3382,174.842 59.5,174.5C 58.7093,172.309 58.7093,170.309 59.5,168.5 Z"/></g>
<g><path style="opacity:1" fill="#2b1f23" d="M 65.5,184.5 C 65.3059,182.088 63.9726,181.088 61.5,181.5C 61.5,179.833 61.5,178.167 61.5,176.5C 62.1667,176.5 62.5,176.167 62.5,175.5C 63.7498,175.577 64.5831,176.244 65,177.5C 65.5133,176.473 66.0133,175.473 66.5,174.5C 67.3149,173.571 68.1482,172.571 69,171.5C 71.3494,176.796 70.1828,181.129 65.5,184.5 Z"/></g>
<g><path style="opacity:1" fill="#362a2a" d="M 85.5,164.5 C 85.8333,165.167 86.1667,165.833 86.5,166.5C 86.9038,167.756 87.5705,168.923 88.5,170C 87.0283,173.265 86.695,176.431 87.5,179.5C 87.6309,180.376 87.2975,181.043 86.5,181.5C 85.5078,177.217 85.1744,172.884 85.5,168.5C 83.5,168.5 81.5,168.5 79.5,168.5C 81.1475,166.674 83.1475,165.34 85.5,164.5 Z"/></g>
<g><path style="opacity:1" fill="#231117" d="M 91.5,169.5 C 92.1667,169.5 92.8333,169.5 93.5,169.5C 92.5876,170.738 92.4209,172.072 93,173.5C 93.3742,172.584 93.8742,171.75 94.5,171C 96.8098,170.503 99.1432,170.337 101.5,170.5C 102.829,174.822 104.163,179.155 105.5,183.5C 103.549,182.718 102.049,181.384 101,179.5C 100.51,180.793 100.343,182.127 100.5,183.5C 99.0695,183.421 97.7362,183.754 96.5,184.5C 93.3473,182.979 90.3473,181.312 87.5,179.5C 88.2667,175.851 89.6001,172.518 91.5,169.5 Z"/></g>
<g><path style="opacity:1" fill="#b2865a" d="M 107.5,174.5 C 106.402,175.601 106.235,176.934 107,178.5C 108.509,184.214 110.675,189.548 113.5,194.5C 114.248,196.332 115.248,197.999 116.5,199.5C 115.833,199.5 115.167,199.5 114.5,199.5C 110.979,194.458 107.979,189.125 105.5,183.5C 104.163,179.155 102.829,174.822 101.5,170.5C 101.672,169.508 101.338,168.842 100.5,168.5C 100.5,167.833 100.5,167.167 100.5,166.5C 102.042,165.699 103.708,165.366 105.5,165.5C 105.7,168.63 106.366,171.63 107.5,174.5 Z"/></g>
<g><path style="opacity:1" fill="#a77952" d="M 133.5,179.5 C 133.5,180.167 133.5,180.833 133.5,181.5C 131.887,181.056 130.72,180.056 130,178.5C 129.371,182.871 129.537,187.204 130.5,191.5C 130.167,192.5 129.5,193.167 128.5,193.5C 128.747,190.061 128.414,186.728 127.5,183.5C 128.321,180.359 128.821,177.025 129,173.5C 129.792,176.106 131.292,178.106 133.5,179.5 Z"/></g>
<g><path style="opacity:1" fill="#f1e8b8" d="M 125.5,163.5 C 125.833,163.5 126.167,163.5 126.5,163.5C 126.833,164.167 127.167,164.833 127.5,165.5C 127.5,165.833 127.5,166.167 127.5,166.5C 126.681,168.772 126.015,171.106 125.5,173.5C 124.519,177.251 123.353,180.917 122,184.5C 119.295,181.964 116.795,179.297 114.5,176.5C 118.151,177.521 118.484,176.521 115.5,173.5C 117.5,173.5 119.5,173.5 121.5,173.5C 121.351,174.552 121.517,175.552 122,176.5C 124.934,173.713 125.101,171.713 122.5,170.5C 123.64,168.922 124.14,167.256 124,165.5C 122.426,166.984 121.093,168.651 120,170.5C 119.634,168.548 118.801,166.882 117.5,165.5C 120.221,165.037 122.888,164.371 125.5,163.5 Z"/></g>
<g><path style="opacity:1" fill="#241918" d="M 133.5,174.5 C 134.71,174.932 135.71,175.599 136.5,176.5C 136.651,181.614 135.651,182.281 133.5,178.5C 132.859,177.518 132.193,176.518 131.5,175.5C 131.957,174.702 132.624,174.369 133.5,174.5 Z"/></g>
<g><path style="opacity:1" fill="#1b0b16" d="M 79.5,168.5 C 81.5,168.5 83.5,168.5 85.5,168.5C 85.1744,172.884 85.5078,177.217 86.5,181.5C 87.2975,181.043 87.6309,180.376 87.5,179.5C 90.3473,181.312 93.3473,182.979 96.5,184.5C 97.7362,183.754 99.0695,183.421 100.5,183.5C 100.343,182.127 100.51,180.793 101,179.5C 102.049,181.384 103.549,182.718 105.5,183.5C 107.979,189.125 110.979,194.458 114.5,199.5C 104.5,199.5 94.5,199.5 84.5,199.5C 85.8083,198.768 87.1416,197.934 88.5,197C 80.8961,196.569 80.5628,194.902 87.5,192C 82.2785,189.067 79.4451,184.567 79,178.5C 76.8826,182.344 75.0492,186.344 73.5,190.5C 75.1374,192.749 77.3041,194.415 80,195.5C 80.49,196.793 80.6567,198.127 80.5,199.5C 77.5,199.5 74.5,199.5 71.5,199.5C 73.1084,195.006 72.1084,191.34 68.5,188.5C 67.1667,188.5 66.5,187.833 66.5,186.5C 69.4864,181.87 72.4864,177.203 75.5,172.5C 76.5,172.167 77.1667,171.5 77.5,170.5C 78.5,170.167 79.1667,169.5 79.5,168.5 Z"/></g>
<g><path style="opacity:1" fill="#773224" d="M 107.5,174.5 C 108.512,175.872 109.512,177.205 110.5,178.5C 113.42,183.427 116.754,188.094 120.5,192.5C 118.131,192.015 115.797,192.681 113.5,194.5C 110.675,189.548 108.509,184.214 107,178.5C 106.235,176.934 106.402,175.601 107.5,174.5 Z"/></g>
<g><path style="opacity:1" fill="#874e34" d="M 133.5,181.5 C 133.5,183.167 133.5,184.833 133.5,186.5C 132.4,187.605 131.733,188.938 131.5,190.5C 131.5,191.167 131.167,191.5 130.5,191.5C 129.537,187.204 129.371,182.871 130,178.5C 130.72,180.056 131.887,181.056 133.5,181.5 Z"/></g>
<g><path style="opacity:1" fill="#bb9265" d="M 125.5,173.5 C 127.04,175.838 127.706,178.505 127.5,181.5C 124.947,184.954 123.113,188.954 122,193.5C 121.617,192.944 121.117,192.611 120.5,192.5C 116.754,188.094 113.42,183.427 110.5,178.5C 110.771,177.448 110.938,176.115 111,174.5C 111.816,175.823 112.983,176.489 114.5,176.5C 116.795,179.297 119.295,181.964 122,184.5C 123.353,180.917 124.519,177.251 125.5,173.5 Z"/></g>
<g><path style="opacity:1" fill="#6d3737" d="M 68.5,188.5 C 72.1084,191.34 73.1084,195.006 71.5,199.5C 70.8333,199.5 70.1667,199.5 69.5,199.5C 70.2907,197.309 70.2907,195.309 69.5,193.5C 69.1667,192.167 68.8333,190.833 68.5,189.5C 68.5,189.167 68.5,188.833 68.5,188.5 Z"/></g>
<g><path style="opacity:1" fill="#38313f" d="M 84.5,199.5 C 83.1667,199.5 81.8333,199.5 80.5,199.5C 80.6567,198.127 80.49,196.793 80,195.5C 77.3041,194.415 75.1374,192.749 73.5,190.5C 75.0492,186.344 76.8826,182.344 79,178.5C 79.4451,184.567 82.2785,189.067 87.5,192C 80.5628,194.902 80.8961,196.569 88.5,197C 87.1416,197.934 85.8083,198.768 84.5,199.5 Z"/></g>
<g><path style="opacity:0.996" fill="#d9ae6f" d="M 68.5,189.5 C 68.8333,190.833 69.1667,192.167 69.5,193.5C 68.8505,195.435 68.5172,197.435 68.5,199.5C 67.8333,199.5 67.1667,199.5 66.5,199.5C 66.5,198.167 66.5,196.833 66.5,195.5C 67.3007,193.958 67.634,192.292 67.5,190.5C 67.5,189.833 67.8333,189.5 68.5,189.5 Z"/></g>
<g><path style="opacity:1" fill="#86412d" d="M 127.5,181.5 C 127.5,182.167 127.5,182.833 127.5,183.5C 128.414,186.728 128.747,190.061 128.5,193.5C 125.672,195.748 122.672,197.748 119.5,199.5C 118.5,199.5 117.5,199.5 116.5,199.5C 115.248,197.999 114.248,196.332 113.5,194.5C 115.797,192.681 118.131,192.015 120.5,192.5C 121.117,192.611 121.617,192.944 122,193.5C 123.113,188.954 124.947,184.954 127.5,181.5 Z"/></g>
<g><path style="opacity:1" fill="#c2633f" d="M 69.5,193.5 C 70.2907,195.309 70.2907,197.309 69.5,199.5C 69.1667,199.5 68.8333,199.5 68.5,199.5C 68.5172,197.435 68.8505,195.435 69.5,193.5 Z"/></g>
<g><path style="opacity:0.341" fill="#5a5647" d="M 132.5,195.5 C 132.5,196.833 132.5,198.167 132.5,199.5C 131.833,199.5 131.167,199.5 130.5,199.5C 130.338,197.473 130.505,195.473 131,193.5C 131.278,194.416 131.778,195.082 132.5,195.5 Z"/></g>
</svg>
