<svg width="500" height="500" viewBox="0 0 500 500" fill="none" xmlns="http://www.w3.org/2000/svg">
<g clip-path="url(#clip0_2425_857)">
<rect width="500" height="500" rx="80" fill="url(#paint0_linear_2425_857)"/>
<path d="M116.798 141.198C109.523 135.255 98.7352 136.298 93.4702 144.078C72.3163 175.337 60.9308 212.341 61.0003 250.345C61.0697 288.349 72.5903 325.311 93.8583 356.494C99.1517 364.254 109.943 365.257 117.197 359.288C124.451 353.318 125.403 342.643 120.264 334.779C103.911 309.754 95.0753 280.418 95.0202 250.283C94.9652 220.148 103.693 190.78 119.955 165.696C125.065 157.813 124.074 147.141 116.798 141.198Z" fill="#585858"/>
<path d="M360.553 118.248C366.592 111.052 365.692 100.251 357.982 94.8839C326.748 73.1399 289.549 61.2532 251.229 61.004C212.909 60.7548 175.558 72.1569 144.044 93.4928C136.265 98.7595 135.225 109.547 141.169 116.822C147.114 124.096 157.786 125.084 165.668 119.973C190.963 103.567 220.613 94.8256 251.008 95.0233C281.402 95.2209 310.936 104.347 336.015 121.08C343.829 126.295 354.514 125.445 360.553 118.248Z" fill="#C2C2C2"/>
<path d="M381.751 360.553C388.948 366.592 399.747 365.692 405.115 357.982C426.859 326.748 438.746 289.549 438.995 251.229C439.244 212.908 427.842 175.558 406.506 144.044C401.239 136.265 390.452 135.225 383.178 141.17C375.903 147.114 374.915 157.786 380.026 165.668C396.432 190.963 405.173 220.613 404.976 251.008C404.778 281.403 395.652 310.936 378.919 336.015C373.704 343.83 374.554 354.514 381.751 360.553Z" fill="#585858"/>
<path d="M139.449 381.752C133.41 388.949 134.309 399.748 142.02 405.116C173.253 426.86 210.453 438.747 248.773 438.996C287.094 439.245 324.443 427.843 355.958 406.507C363.737 401.24 364.777 390.453 358.832 383.179C352.887 375.904 342.215 374.916 334.334 380.027C309.039 396.433 279.388 405.174 248.994 404.977C218.599 404.779 189.066 395.653 163.987 378.92C156.172 373.705 145.487 374.555 139.449 381.752Z" fill="#C2C2C2"/>
<path d="M235.707 136.142C234.579 127.159 226.342 120.689 217.569 122.928C194.915 128.71 174.114 140.472 157.414 157.119C140.714 173.765 128.885 194.529 123.031 217.165C120.765 225.931 127.208 234.189 136.188 235.345C145.166 236.501 153.251 230.092 155.881 221.428C160.569 205.987 169.012 191.85 180.56 180.34C192.108 168.828 206.271 160.431 221.728 155.792C230.399 153.19 236.835 145.125 235.707 136.142Z" fill="#585858"/>
<path d="M363.781 235.107C372.758 233.932 379.184 225.659 376.899 216.899C370.998 194.275 359.125 173.536 342.391 156.925C325.656 140.314 304.83 128.595 282.163 122.86C273.386 120.64 265.163 127.126 264.054 136.112C262.945 145.097 269.397 153.149 278.073 155.733C293.54 160.339 307.721 168.707 319.293 180.194C330.865 191.68 339.337 205.799 344.058 221.232C346.706 229.89 354.804 236.282 363.781 235.107Z" fill="#C2C2C2"/>
<path d="M264.241 363.865C265.364 372.848 273.599 379.321 282.372 377.087C305.029 371.316 325.837 359.563 342.544 342.924C359.251 326.286 371.09 305.527 376.954 282.894C379.226 274.13 372.786 265.869 363.808 264.708C354.828 263.548 346.74 269.953 344.106 278.615C339.411 294.055 330.962 308.188 319.409 319.693C307.855 331.199 293.688 339.59 278.229 344.221C269.556 346.819 263.118 354.881 264.241 363.865Z" fill="#585858"/>
<path d="M136.085 263.81C127.097 264.9 120.593 273.11 122.794 281.892C128.48 304.571 140.156 325.422 156.73 342.192C173.306 358.961 194.02 370.879 216.631 376.827C225.387 379.132 233.672 372.723 234.866 363.749C236.061 354.774 229.685 346.662 221.033 343.996C205.612 339.242 191.511 330.74 180.049 319.144C168.586 307.548 160.248 293.349 155.675 277.873C153.11 269.19 145.073 262.721 136.085 263.81Z" fill="#C2C2C2"/>
</g>
<defs>
<linearGradient id="paint0_linear_2425_857" x1="-75" y1="-66" x2="535" y2="544" gradientUnits="userSpaceOnUse">
<stop stop-color="#F7F8FA"/>
<stop offset="1" stop-color="#F7F8FA"/>
</linearGradient>
<clipPath id="clip0_2425_857">
<rect width="500" height="500" fill="white"/>
</clipPath>
</defs>
</svg>
