<svg width="200" height="200" viewBox="0 0 200 200" fill="none" xmlns="http://www.w3.org/2000/svg">
<g clip-path="url(#clip0_4226_892)">
<rect width="200" height="200" rx="32" fill="url(#paint0_linear_4226_892)"/>
<path d="M46.7178 56.4793C43.8075 54.1021 39.4925 54.519 37.3865 57.6311C28.925 70.135 24.3708 84.9365 24.3986 100.138C24.4263 115.34 29.0346 130.124 37.5417 142.597C39.6591 145.702 43.9756 146.103 46.8771 143.715C49.7789 141.327 50.1596 137.057 48.1039 133.911C41.5628 123.902 38.0285 112.167 38.0065 100.113C37.9845 88.0592 41.4758 76.312 47.9804 66.2784C50.0245 63.1253 49.628 58.8565 46.7178 56.4793Z" fill="#585858"/>
<path d="M144.22 47.2992C146.636 44.4206 146.276 40.1006 143.192 37.9536C130.698 29.256 115.819 24.5013 100.491 24.4016C85.1627 24.3019 70.2224 28.8628 57.6167 37.3971C54.505 39.5038 54.0891 43.8189 56.4669 46.7286C58.8448 49.6383 63.1137 50.0338 66.2664 47.9891C76.3843 41.4268 88.2445 37.9303 100.402 38.0093C112.56 38.0884 124.374 41.7389 134.405 48.4322C137.531 50.518 141.805 50.1779 144.22 47.2992Z" fill="#C2C2C2"/>
<path d="M152.7 144.221C155.578 146.637 159.898 146.277 162.045 143.193C170.743 130.699 175.498 115.82 175.597 100.492C175.697 85.1633 171.136 70.2233 162.602 57.6176C160.495 54.5059 156.18 54.09 153.27 56.4678C150.361 58.8457 149.965 63.1146 152.01 66.2673C158.572 76.3853 162.068 88.2454 161.989 100.403C161.911 112.561 158.26 124.374 151.567 134.406C149.481 137.532 149.821 141.806 152.7 144.221Z" fill="#585858"/>
<path d="M55.7802 152.701C53.3647 155.579 53.7245 159.899 56.8087 162.046C69.3022 170.744 84.1819 175.499 99.5099 175.598C114.838 175.698 129.778 171.137 142.384 162.603C145.496 160.496 145.912 156.181 143.534 153.272C141.156 150.362 136.887 149.966 133.734 152.011C123.616 158.573 111.756 162.07 99.5983 161.991C87.4405 161.912 75.627 158.261 65.5954 151.568C62.4696 149.482 58.1957 149.822 55.7802 152.701Z" fill="#C2C2C2"/>
<path d="M94.2845 54.4569C93.8333 50.8637 90.5385 48.2757 87.0293 49.1712C77.9677 51.4839 69.647 56.1889 62.967 62.8474C56.2873 69.506 51.5554 77.8115 49.2141 86.8661C48.3074 90.3722 50.8848 93.6754 54.4766 94.1381C58.0681 94.6005 61.3021 92.0368 62.3541 88.5713C64.2293 82.3946 67.6065 76.74 72.2255 72.1358C76.8448 67.5313 82.5101 64.1723 88.6928 62.3169C92.1614 61.276 94.7355 58.05 94.2845 54.4569Z" fill="#585858"/>
<path d="M145.511 94.0427C149.102 93.5727 151.672 90.2637 150.758 86.7596C148.397 77.7101 143.648 69.4146 136.955 62.7702C130.261 56.1255 121.93 51.4379 112.864 49.1442C109.353 48.2561 106.063 50.8506 105.62 54.4448C105.176 58.039 107.757 61.2596 111.228 62.2931C117.415 64.1357 123.087 67.4829 127.716 72.0777C132.344 76.6722 135.733 82.3197 137.622 88.4927C138.681 91.9558 141.92 94.5128 145.511 94.0427Z" fill="#C2C2C2"/>
<path d="M105.695 145.546C106.145 149.139 109.439 151.729 112.948 150.835C122.011 148.526 130.334 143.825 137.017 137.17C143.7 130.514 148.435 122.211 150.781 113.158C151.69 109.652 149.114 106.348 145.522 105.883C141.93 105.419 138.695 107.981 137.642 111.446C135.764 117.622 132.384 123.275 127.763 127.877C123.141 132.479 117.474 135.836 111.291 137.688C107.822 138.728 105.246 141.952 105.695 145.546Z" fill="#585858"/>
<path d="M54.434 105.524C50.8388 105.96 48.2371 109.244 49.1178 112.757C51.3921 121.828 56.0622 130.169 62.6922 136.877C69.3225 143.585 77.6079 148.351 86.6523 150.731C90.1548 151.653 93.4688 149.089 93.9465 145.499C94.4243 141.91 91.8741 138.665 88.4133 137.598C82.2447 135.697 76.6042 132.296 72.0195 127.657C67.4345 123.019 64.0993 117.34 62.2701 111.149C61.244 107.676 58.0292 105.088 54.434 105.524Z" fill="#C2C2C2"/>
</g>
<defs>
<linearGradient id="paint0_linear_4226_892" x1="-30" y1="-26.4" x2="214" y2="217.6" gradientUnits="userSpaceOnUse">
<stop stop-color="#F7F8FA"/>
<stop offset="1" stop-color="#F7F8FA"/>
</linearGradient>
<clipPath id="clip0_4226_892">
<rect width="200" height="200" fill="white"/>
</clipPath>
</defs>
</svg>
