<svg width="200" height="200" viewBox="0 0 200 200" fill="none" xmlns="http://www.w3.org/2000/svg">
<g clip-path="url(#clip0_4073_437)">
<rect width="200" height="200" fill="black"/>
<path fill-rule="evenodd" clip-rule="evenodd" d="M44 58.7113L99.5761 160L156 58.9433L122.238 97.9124C119.155 95.1031 111.909 88.8351 107.593 86.2371C107.053 84.4072 105.403 80.268 103.122 78.3505C109.083 76.0052 122.099 65.0515 126.478 40C115.532 42.268 92.1762 53.3763 90.2491 74.5619C84.2368 75.8763 80.3827 78.3505 74.9098 85.232C74.8071 85.4639 74.6632 86.0979 74.9098 86.7784C74.9341 86.8453 74.9585 86.9377 74.9885 87.0513C75.3742 88.5119 76.6885 93.4884 90.6345 93.2732C91.9449 101.392 97.5565 117.582 103.045 126.057C102.921 126.057 63.6302 81.1598 44 58.7113ZM94.797 75.4124C96.2769 61.866 109.982 51.9072 118.076 47.268C117.175 48.6818 116.278 50.1277 115.373 51.5854C109.698 60.7313 103.733 70.3439 94.797 75.4124Z" fill="white"/>
<g opacity="0.7">
<path d="M49.4529 42.0772L43.6204 38.7552L44.4275 38.0743L48.1793 40.3257L49.336 41.0454L49.3635 41.0222L48.8305 39.7763L47.2434 35.6988L48.0413 35.0257L50.3517 41.319L49.4529 42.0772Z" fill="white"/>
<path d="M56.9942 36.3308L52.383 28.8968L53.2498 28.3591L57.5194 35.2425L57.1636 35.1242L61.0387 32.7206L61.5321 33.516L56.9942 36.3308Z" fill="white"/>
<path d="M69.1984 29.8996C68.6466 30.1351 68.1202 30.2162 67.6192 30.1429C67.1256 30.0665 66.6801 29.8478 66.2825 29.4869C65.885 29.1259 65.559 28.6474 65.3047 28.0514C65.0441 27.4407 64.9211 26.867 64.9356 26.3302C64.947 25.7861 65.0922 25.311 65.3712 24.9049C65.6471 24.4915 66.0609 24.167 66.6128 23.9315C67.2015 23.6804 67.7436 23.6056 68.2393 23.7072C68.7349 23.8089 69.1678 24.059 69.538 24.4577C69.9155 24.8533 70.2141 25.3696 70.4337 26.0065L66.2285 27.8008C66.4399 28.2759 66.6846 28.6456 66.9626 28.9097C67.2447 29.1633 67.5491 29.3161 67.8757 29.3681C68.2066 29.4096 68.5486 29.355 68.9018 29.2043C69.3285 29.0222 69.6325 28.7663 69.8137 28.4368C69.9949 28.1072 70.0485 27.7538 69.9745 27.3766L70.8244 27.014C70.9467 27.4228 70.9534 27.8157 70.8446 28.1926C70.7432 28.5664 70.5472 28.9022 70.2568 29.2001C69.9707 29.4875 69.6179 29.7206 69.1984 29.8996ZM66.0229 27.2884L65.867 27.1983L69.3879 25.696L69.3545 25.8929C69.1641 25.4262 68.943 25.0813 68.6912 24.8582C68.4363 24.6277 68.1555 24.4997 67.8489 24.474C67.5464 24.4378 67.2333 24.4887 66.9095 24.6269C66.571 24.7713 66.3081 24.9705 66.1207 25.2244C65.9333 25.4783 65.8273 25.7801 65.8026 26.1299C65.7821 26.4692 65.8555 26.8553 66.0229 27.2884Z" fill="white"/>
<path d="M79.8966 26.2221C79.524 26.3153 79.1651 26.3309 78.8197 26.2688C78.4802 26.197 78.1648 26.0574 77.8738 25.8498C77.5808 25.6344 77.3237 25.3483 77.1024 24.9913C76.887 24.6246 76.7162 24.189 76.5901 23.6845C76.4232 23.0171 76.3853 22.4205 76.4764 21.8946C76.5753 21.3669 76.7809 20.9361 77.0933 20.6024C77.4115 20.2589 77.8189 20.0251 78.3156 19.9008C78.6726 19.8115 79.0093 19.7892 79.3255 19.8338C79.6476 19.8687 79.9358 19.9657 80.1899 20.1248C80.4422 20.2761 80.6537 20.4788 80.8245 20.733L80.8827 20.7184L80.6003 19.4408L81.5083 19.2137L83.0368 25.3254L82.0939 25.5613L81.7736 24.2807L81.7154 24.2953C81.6631 24.7454 81.4826 25.1451 81.1742 25.4944C80.8657 25.8437 80.4398 26.0863 79.8966 26.2221ZM80.0129 25.3519C80.4242 25.249 80.7453 25.0656 80.9762 24.8017C81.2071 24.5378 81.3584 24.2361 81.4301 23.8966C81.5019 23.557 81.4951 23.2165 81.4097 22.875L81.2233 22.13C81.1379 21.7885 80.9837 21.4848 80.7605 21.219C80.5354 20.9455 80.2599 20.7505 79.9339 20.6341C79.606 20.51 79.2363 20.4993 78.825 20.6022C78.4525 20.6954 78.1498 20.87 77.917 21.1262C77.6822 21.3745 77.5309 21.6928 77.4631 22.0808C77.3952 22.4689 77.4263 22.9229 77.5563 23.4429C77.6844 23.9551 77.8707 24.3703 78.1152 24.6885C78.3578 24.9989 78.6421 25.2123 78.9681 25.3287C79.2921 25.4373 79.6404 25.4451 80.0129 25.3519Z" fill="white"/>
<path d="M90.2669 26.1083L89.611 17.8302L90.532 17.7559L90.6731 19.0567L90.7449 19.0509C90.8623 18.6161 91.1021 18.2556 91.4642 17.9696C91.8337 17.6749 92.2936 17.5054 92.8438 17.461C93.2266 17.4301 93.5792 17.4739 93.9018 17.5923C94.2323 17.7101 94.5245 17.8992 94.7783 18.1597C95.032 18.4201 95.2351 18.7488 95.3876 19.1459C95.5473 19.5343 95.6481 19.9876 95.6899 20.5059C95.7453 21.1917 95.6849 21.7865 95.5088 22.2903C95.3322 22.7861 95.0587 23.1774 94.6886 23.4641C94.3264 23.7501 93.8862 23.9141 93.3679 23.9559C93.009 23.9848 92.6736 23.9557 92.3616 23.8685C92.0569 23.7727 91.7922 23.6255 91.5675 23.427C91.3428 23.2284 91.1674 22.9937 91.0412 22.723L90.9694 22.7288L91.2358 26.0301L90.2669 26.1083ZM92.9793 23.1686C93.362 23.1377 93.6896 23.019 93.9618 22.8124C94.2341 22.6058 94.4355 22.3167 94.566 21.945C94.7039 21.5647 94.7516 21.1114 94.7091 20.5851C94.666 20.0508 94.5462 19.611 94.3498 19.2657C94.1614 18.9197 93.9162 18.6666 93.6144 18.5064C93.3119 18.3382 92.9692 18.2695 92.5865 18.3004C92.1718 18.3339 91.825 18.4622 91.5461 18.6853C91.2744 18.8999 91.0757 19.1727 90.95 19.5039C90.8236 19.8271 90.7745 20.1642 90.8028 20.515L90.8636 21.2686C90.8849 21.5317 90.9493 21.7834 91.057 22.0235C91.1646 22.2636 91.3062 22.4769 91.4818 22.6634C91.6647 22.8412 91.8803 22.9763 92.1285 23.0687C92.3847 23.1604 92.6683 23.1937 92.9793 23.1686Z" fill="white"/>
<path d="M114.117 25.1845C113.482 25.0571 112.926 24.8356 112.451 24.5199C111.984 24.2059 111.604 23.8197 111.313 23.3614C111.031 22.8968 110.845 22.3782 110.756 21.8055C110.676 21.2265 110.702 20.6115 110.832 19.9605C110.968 19.2859 111.187 18.7016 111.49 18.2076C111.802 17.7073 112.182 17.3019 112.627 16.9915C113.081 16.6827 113.587 16.4782 114.146 16.3782C114.704 16.2781 115.293 16.2902 115.913 16.4145C116.619 16.5561 117.222 16.8035 117.722 17.1568C118.23 17.5117 118.613 17.9434 118.87 18.4518C119.129 18.9525 119.238 19.5048 119.199 20.1088L118.163 19.9011C118.173 19.4461 118.074 19.0429 117.867 18.6913C117.661 18.3398 117.373 18.0454 117.004 17.8083C116.643 17.5727 116.22 17.4062 115.734 17.3086C115.098 17.1812 114.513 17.2107 113.978 17.3971C113.444 17.5756 112.992 17.897 112.622 18.3612C112.259 18.827 112.005 19.4246 111.858 20.154C111.748 20.7031 111.724 21.2122 111.785 21.6814C111.847 22.1427 111.985 22.5538 112.198 22.9148C112.411 23.2757 112.693 23.5771 113.045 23.819C113.405 24.0545 113.825 24.2203 114.304 24.3162C114.915 24.439 115.472 24.4283 115.974 24.2842C116.486 24.1339 116.912 23.8604 117.253 23.4636C117.603 23.0606 117.842 22.5414 117.969 21.9061L118.021 21.6473L118.315 22.1346L115.021 21.4737L115.176 20.6972L119.13 21.4902L119.026 22.0079C118.903 22.6197 118.694 23.153 118.399 23.6079C118.104 24.0627 117.741 24.4265 117.311 24.6992C116.881 24.972 116.396 25.1521 115.856 25.2397C115.316 25.3272 114.737 25.3088 114.117 25.1845Z" fill="white"/>
<path d="M124.477 27.8776L126.674 21.973L127.484 22.2743L127.134 23.3862L127.179 23.4029C127.446 23.0754 127.779 22.8704 128.176 22.788C128.574 22.7055 128.972 22.7382 129.369 22.886C129.437 22.9111 129.499 22.9386 129.556 22.9684C129.616 22.9907 129.671 23.0154 129.721 23.0424L129.398 23.9084C129.349 23.8814 129.294 23.8567 129.234 23.8344C129.177 23.8046 129.114 23.7771 129.047 23.752C128.702 23.6237 128.378 23.5758 128.076 23.6084C127.774 23.6411 127.503 23.7494 127.264 23.9336C127.035 24.113 126.842 24.3658 126.687 24.6921L125.377 28.2123L124.477 27.8776Z" fill="white"/>
<path d="M135.618 32.9338C135.219 32.7145 134.89 32.4477 134.634 32.1336C134.384 31.8234 134.21 31.4766 134.11 31.0933C134.017 30.7138 133.998 30.3156 134.053 29.8989C134.119 29.4789 134.27 29.055 134.504 28.6272C134.816 28.059 135.198 27.6207 135.65 27.3121C136.102 27.0036 136.594 26.8397 137.124 26.8205C137.666 26.7982 138.207 26.9352 138.747 27.2315C139.146 27.4508 139.471 27.7156 139.721 28.0259C139.981 28.333 140.158 28.6763 140.251 29.0557C140.344 29.4352 140.357 29.8349 140.291 30.2549C140.225 30.6748 140.072 31.1022 139.834 31.5371C139.526 32.0982 139.146 32.5331 138.694 32.8416C138.249 33.154 137.759 33.3233 137.224 33.3495C136.694 33.3686 136.158 33.2301 135.618 32.9338ZM136.022 32.1973C136.38 32.3936 136.736 32.4841 137.091 32.469C137.45 32.4469 137.79 32.3184 138.11 32.0836C138.442 31.8456 138.729 31.5057 138.971 31.0638C139.152 30.7342 139.271 30.4165 139.33 30.1108C139.392 29.7981 139.396 29.5083 139.341 29.2412C139.291 28.9672 139.184 28.7215 139.02 28.504C138.857 28.2865 138.635 28.1008 138.354 27.9469C137.996 27.7507 137.633 27.6652 137.263 27.6905C136.904 27.7126 136.561 27.8391 136.233 28.0701C135.913 28.3049 135.628 28.6503 135.378 29.1062C135.201 29.4288 135.078 29.7446 135.009 30.0534C134.95 30.3591 134.948 30.6455 135.003 30.9125C135.064 31.1834 135.18 31.4294 135.35 31.6508C135.525 31.8651 135.749 32.0473 136.022 32.1973Z" fill="white"/>
<path d="M145.823 39.558C145.459 39.2712 145.198 38.9492 145.041 38.5919C144.889 38.2284 144.857 37.8419 144.945 37.4326C145.038 37.017 145.257 36.5891 145.603 36.1489L147.992 33.1114L148.756 33.7122L146.516 36.5611C146.259 36.8881 146.083 37.2025 145.988 37.5044C145.898 37.8001 145.9 38.0818 145.995 38.3496C146.096 38.6224 146.297 38.8775 146.599 39.1148C146.895 39.3472 147.213 39.4801 147.553 39.5135C147.893 39.5469 148.23 39.4809 148.563 39.3157C148.897 39.1504 149.199 38.8949 149.471 38.549L151.548 35.9077L152.312 36.5085L148.418 41.4609L147.692 40.8898L148.485 39.8036L148.438 39.7665C148.029 40.0149 147.588 40.1217 147.117 40.0869C146.651 40.0458 146.219 39.8696 145.823 39.558Z" fill="white"/>
<path d="M152.209 47.6394L158.35 42.0495L158.973 42.7319L158.031 43.6404L158.08 43.6936C158.496 43.5199 158.927 43.4886 159.375 43.5996C159.835 43.7111 160.25 43.9707 160.623 44.3784C160.881 44.662 161.063 44.9675 161.167 45.295C161.276 45.6284 161.306 45.9752 161.255 46.3353C161.205 46.6954 161.07 47.0574 160.849 47.4211C160.64 47.7853 160.344 48.1427 159.96 48.4933C159.451 48.9572 158.944 49.2739 158.438 49.4434C157.938 49.6075 157.462 49.6311 157.008 49.5142C156.56 49.4032 156.161 49.1557 155.81 48.7716C155.568 48.5058 155.385 48.2228 155.263 47.9228C155.152 47.6233 155.106 47.3239 155.125 47.0247C155.145 46.7254 155.223 46.443 155.359 46.1774L155.311 46.1242L152.865 48.3573L152.209 47.6394ZM156.194 47.9822C156.453 48.2658 156.748 48.4519 157.078 48.5405C157.408 48.6292 157.76 48.6112 158.134 48.4866C158.519 48.3626 158.906 48.1226 159.296 47.7666C159.692 47.4052 159.966 47.0411 160.119 46.6743C160.277 46.3134 160.327 45.9646 160.268 45.6279C160.216 45.2857 160.06 44.9729 159.801 44.6893C159.521 44.382 159.207 44.1865 158.86 44.1028C158.524 44.0195 158.186 44.0297 157.848 44.1332C157.515 44.2313 157.218 44.399 156.958 44.6363L156.4 45.146C156.205 45.324 156.046 45.5291 155.922 45.7613C155.798 45.9935 155.716 46.2361 155.676 46.4891C155.648 46.7427 155.673 46.9958 155.752 47.2486C155.837 47.5072 155.984 47.7518 156.194 47.9822Z" fill="white"/>
<path d="M168.028 60.7347L168.757 60.3428L170.388 63.3765L169.658 63.7684L168.028 60.7347Z" fill="white"/>
<path d="M173.078 80.1413C172.996 79.8403 172.974 79.5894 173.01 79.3888C173.049 79.1958 173.143 79.0377 173.292 78.9144C173.451 78.7967 173.657 78.7032 173.912 78.634L178.058 77.5079L177.737 76.3267L178.513 76.1159L178.834 77.2971L180.652 76.8032L181.034 77.7067L179.089 78.2351L179.472 79.6479L178.696 79.8587L178.313 78.4459L174.329 79.528C174.113 79.5867 173.981 79.6641 173.932 79.7602C173.883 79.8562 173.888 80.0085 173.944 80.2169L174.18 81.0855L173.393 81.2994L173.078 80.1413Z" fill="white"/>
<path d="M174.961 90.0815C174.915 89.7002 174.944 89.3421 175.049 89.0072C175.163 88.6793 175.341 88.384 175.583 88.1211C175.833 87.8574 176.15 87.6381 176.531 87.4632C176.922 87.2954 177.376 87.1804 177.892 87.1184C178.575 87.0362 179.172 87.0733 179.682 87.2295C180.193 87.3936 180.595 87.6515 180.887 88.0031C181.188 88.3618 181.369 88.7953 181.43 89.3036C181.474 89.669 181.454 90.0058 181.37 90.314C181.295 90.6292 181.163 90.9029 180.974 91.1352C180.792 91.3665 180.564 91.551 180.291 91.6887L180.298 91.7482L181.601 91.6278L181.713 92.5571L175.458 93.3092L175.342 92.3442L176.652 92.1866L176.645 92.127C176.205 92.0188 175.831 91.7898 175.523 91.4401C175.215 91.0903 175.028 90.6375 174.961 90.0815ZM175.81 90.3057C175.86 90.7267 176.002 91.0682 176.235 91.3303C176.468 91.5924 176.748 91.7802 177.076 91.8939C177.404 92.0076 177.743 92.0434 178.092 92.0014L178.855 91.9097C179.204 91.8676 179.525 91.7526 179.817 91.5644C180.116 91.3753 180.344 91.1263 180.5 90.8174C180.664 90.5076 180.721 90.1422 180.671 89.7213C180.625 89.34 180.489 89.0179 180.264 88.7548C180.047 88.4909 179.75 88.3009 179.374 88.1851C178.997 88.0692 178.543 88.0432 178.011 88.1072C177.487 88.1703 177.051 88.3032 176.705 88.506C176.367 88.7078 176.12 88.9631 175.963 89.272C175.815 89.5799 175.764 89.9245 175.81 90.3057Z" fill="white"/>
<path d="M175.761 100.482L184.502 100.819L184.464 101.802L178.804 101.584L179.382 102.171L181.896 104.862L181.849 106.085L179.51 103.533L175.55 105.95L175.594 104.811L178.238 103.195L178.876 102.836L177.713 101.542L175.723 101.465L175.761 100.482Z" fill="white"/>
<path d="M174.255 114.4C174.368 113.811 174.595 113.329 174.937 112.955C175.276 112.588 175.707 112.341 176.228 112.214C176.75 112.086 177.329 112.084 177.965 112.207C178.617 112.332 179.161 112.551 179.598 112.864C180.043 113.177 180.355 113.564 180.536 114.022C180.724 114.482 180.761 115.007 180.648 115.596C180.527 116.224 180.285 116.715 179.924 117.069C179.562 117.423 179.113 117.642 178.575 117.726C178.036 117.817 177.441 117.776 176.79 117.602L177.656 113.112C177.144 113.022 176.7 113.018 176.326 113.1C175.958 113.192 175.661 113.359 175.435 113.601C175.216 113.852 175.07 114.166 174.997 114.543C174.909 114.999 174.951 115.394 175.123 115.728C175.295 116.063 175.558 116.305 175.912 116.455L175.737 117.362C175.329 117.235 175 117.02 174.748 116.719C174.495 116.426 174.327 116.076 174.242 115.668C174.164 115.27 174.168 114.848 174.255 114.4ZM178.196 113.229L178.357 113.15L177.633 116.909L177.488 116.771C177.982 116.874 178.391 116.884 178.717 116.8C179.051 116.718 179.314 116.557 179.507 116.317C179.706 116.086 179.839 115.798 179.905 115.453C179.975 115.091 179.957 114.762 179.852 114.465C179.746 114.167 179.555 113.91 179.279 113.694C179.009 113.487 178.648 113.332 178.196 113.229Z" fill="white"/>
<path d="M168.396 132.478C168.563 132.133 168.781 131.847 169.05 131.622C169.322 131.407 169.631 131.254 169.977 131.163C170.33 131.076 170.715 131.062 171.13 131.121C171.55 131.19 171.994 131.338 172.462 131.564C173.082 131.863 173.564 132.216 173.91 132.623C174.252 133.037 174.451 133.471 174.507 133.924C174.567 134.389 174.486 134.851 174.263 135.312C174.103 135.644 173.905 135.917 173.668 136.131C173.435 136.356 173.176 136.515 172.891 136.609C172.613 136.705 172.322 136.738 172.017 136.706L171.991 136.76L173.153 137.362L172.746 138.205L167.073 135.465L167.496 134.589L168.685 135.163L168.711 135.109C168.399 134.781 168.207 134.386 168.136 133.926C168.066 133.465 168.152 132.983 168.396 132.478ZM168.99 133.125C168.805 133.507 168.74 133.871 168.795 134.217C168.85 134.564 168.985 134.873 169.2 135.146C169.415 135.418 169.681 135.631 169.997 135.784L170.689 136.118C171.006 136.271 171.338 136.347 171.685 136.346C172.039 136.348 172.366 136.262 172.664 136.086C172.969 135.913 173.214 135.636 173.398 135.255C173.565 134.909 173.625 134.564 173.577 134.222C173.537 133.882 173.389 133.562 173.135 133.262C172.88 132.961 172.512 132.694 172.029 132.461C171.554 132.231 171.115 132.108 170.714 132.093C170.321 132.08 169.975 132.162 169.677 132.337C169.386 132.517 169.157 132.779 168.99 133.125Z" fill="white"/>
<path d="M158.033 148.975L164.336 151.282L163.653 152.088L159.579 150.491L158.319 149.973L158.296 150.001L159.028 151.141L161.271 154.898L160.596 155.694L157.272 149.872L158.033 148.975Z" fill="white"/>
<path d="M151.652 155.754L155.935 160.374L155.222 161.035L150.939 156.414L151.652 155.754ZM156.644 161.14L157.599 162.17L156.886 162.831L155.931 161.801L156.644 161.14Z" fill="white"/>
<path d="M145.776 160.765L149.505 165.843L148.809 166.354L148.071 165.452L148.033 165.48C148.16 165.883 148.149 166.273 147.999 166.651C147.85 167.029 147.604 167.343 147.263 167.594C147.205 167.637 147.148 167.674 147.091 167.705C147.04 167.743 146.989 167.775 146.939 167.802L146.392 167.057C146.442 167.031 146.493 166.998 146.544 166.96C146.601 166.929 146.658 166.892 146.716 166.849C147.012 166.631 147.23 166.387 147.369 166.117C147.507 165.846 147.566 165.56 147.543 165.259C147.519 164.969 147.413 164.67 147.225 164.361L145.002 161.333L145.776 160.765Z" fill="white"/>
<path d="M136.283 166.959C136.555 166.808 136.793 166.726 136.997 166.713C137.194 166.705 137.37 166.758 137.525 166.873C137.677 166.999 137.818 167.177 137.946 167.408L140.031 171.164L141.101 170.57L141.492 171.273L140.422 171.867L141.336 173.514L140.551 174.101L139.572 172.339L138.292 173.049L137.902 172.347L139.182 171.636L137.177 168.027C137.069 167.831 136.962 167.721 136.857 167.697C136.752 167.673 136.605 167.713 136.416 167.818L135.63 168.255L135.233 167.542L136.283 166.959Z" fill="white"/>
<path d="M127.016 171.192C127.45 171.028 127.86 170.971 128.247 171.022C128.637 171.08 128.984 171.252 129.289 171.539C129.597 171.833 129.85 172.242 130.048 172.766L131.414 176.38L130.505 176.724L129.224 173.334C129.076 172.945 128.898 172.632 128.689 172.394C128.482 172.165 128.24 172.021 127.962 171.964C127.676 171.909 127.353 171.95 126.994 172.086C126.642 172.218 126.364 172.422 126.16 172.696C125.956 172.97 125.838 173.292 125.807 173.663C125.776 174.034 125.839 174.425 125.994 174.837L127.182 177.98L126.273 178.323L124.046 172.43L124.91 172.104L125.43 173.344L125.486 173.323C125.485 172.844 125.621 172.412 125.894 172.027C126.17 171.648 126.544 171.37 127.016 171.192Z" fill="white"/>
<path d="M115.06 174.762C115.437 174.687 115.796 174.689 116.138 174.768C116.474 174.856 116.782 175.01 117.063 175.232C117.345 175.461 117.588 175.759 117.792 176.127C117.989 176.503 118.139 176.947 118.24 177.457C118.375 178.131 118.384 178.729 118.267 179.25C118.143 179.772 117.917 180.193 117.589 180.511C117.254 180.839 116.836 181.052 116.334 181.153C115.973 181.224 115.636 181.231 115.322 181.171C115.002 181.12 114.719 181.01 114.473 180.838C114.228 180.675 114.027 180.462 113.868 180.2L113.81 180.212L114.03 181.502L113.112 181.685L111.88 175.506L112.833 175.316L113.092 176.611L113.15 176.599C113.224 176.152 113.424 175.762 113.749 175.428C114.074 175.094 114.511 174.872 115.06 174.762ZM114.902 175.626C114.486 175.709 114.157 175.876 113.913 176.129C113.67 176.381 113.504 176.675 113.416 177.011C113.328 177.347 113.318 177.687 113.387 178.033L113.537 178.786C113.606 179.131 113.746 179.442 113.956 179.718C114.167 180.002 114.433 180.21 114.753 180.342C115.075 180.482 115.443 180.51 115.859 180.427C116.236 180.352 116.547 180.192 116.791 179.948C117.038 179.711 117.204 179.401 117.291 179.016C117.377 178.632 117.368 178.177 117.263 177.651C117.16 177.133 116.994 176.71 116.765 176.38C116.538 176.058 116.264 175.831 115.944 175.699C115.626 175.575 115.278 175.551 114.902 175.626Z" fill="white"/>
<path d="M104.716 176.324L105.275 185.054L104.305 185.117L103.746 176.386L104.716 176.324Z" fill="white"/>
<path d="M89.2655 175.86L88.0564 184.524L87.0938 184.39L88.3028 175.726L89.2655 175.86Z" fill="white"/>
<path d="M79.3784 173.771C79.9574 173.928 80.4207 174.191 80.7684 174.559C81.1084 174.925 81.3225 175.373 81.4107 175.902C81.499 176.432 81.4582 177.009 81.2883 177.635C81.1143 178.275 80.8552 178.802 80.5111 179.214C80.1649 179.634 79.7565 179.917 79.2858 180.063C78.8131 180.216 78.2872 180.214 77.7082 180.057C77.0905 179.889 76.6188 179.612 76.2928 179.225C75.9668 178.838 75.7822 178.373 75.7388 177.831C75.6878 177.286 75.7735 176.696 75.9959 176.06L80.4081 177.259C80.5367 176.755 80.5737 176.313 80.5193 175.934C80.4551 175.56 80.3109 175.251 80.0869 175.008C79.853 174.77 79.5508 174.601 79.1802 174.5C78.7324 174.379 78.3353 174.391 77.9888 174.537C77.6424 174.684 77.3812 174.928 77.2055 175.27L76.3138 175.028C76.4713 174.631 76.7095 174.318 77.0285 174.09C77.3398 173.86 77.7017 173.718 78.1142 173.664C78.5169 173.616 78.9383 173.651 79.3784 173.771ZM80.2518 177.788L80.3183 177.956L76.6241 176.952L76.7724 176.818C76.6325 177.303 76.5923 177.71 76.6515 178.041C76.7087 178.38 76.8497 178.655 77.0744 178.865C77.2893 179.081 77.5667 179.235 77.9063 179.327C78.2615 179.424 78.5913 179.43 78.8957 179.347C79.2001 179.264 79.4704 179.093 79.7066 178.834C79.933 178.58 80.1147 178.232 80.2518 177.788Z" fill="white"/>
<path d="M68.7035 170.026C69.0536 170.184 69.3449 170.394 69.5775 170.657C69.7994 170.924 69.9603 171.229 70.06 171.572C70.1565 171.922 70.1809 172.306 70.1332 172.724C70.0749 173.145 69.939 173.593 69.7253 174.067C69.4426 174.694 69.1025 175.186 68.7051 175.542C68.3003 175.895 67.8719 176.105 67.42 176.173C66.9574 176.246 66.4927 176.177 66.0259 175.966C65.6904 175.815 65.4124 175.624 65.1919 175.393C64.9608 175.166 64.7948 174.911 64.6939 174.629C64.5897 174.354 64.5494 174.064 64.573 173.758L64.5182 173.734L63.9479 174.911L63.0946 174.527L65.6834 168.783L66.5696 169.183L66.0271 170.386L66.0818 170.411C66.4019 170.09 66.7913 169.888 67.2498 169.805C67.7084 169.722 68.193 169.796 68.7035 170.026ZM68.0728 170.637C67.6863 170.462 67.3206 170.407 66.9759 170.471C66.6311 170.535 66.3253 170.678 66.0586 170.9C65.7918 171.122 65.5861 171.394 65.4414 171.715L65.1258 172.415C64.9812 172.736 64.9141 173.07 64.9244 173.416C64.9315 173.771 65.0269 174.094 65.2105 174.388C65.3909 174.689 65.6744 174.926 66.0609 175.1C66.411 175.258 66.7568 175.309 67.0982 175.252C67.4364 175.202 67.7524 175.047 68.0462 174.784C68.34 174.522 68.597 174.146 68.8173 173.657C69.0342 173.176 69.1454 172.735 69.1508 172.334C69.1528 171.94 69.062 171.596 68.8784 171.303C68.6914 171.016 68.4229 170.794 68.0728 170.637Z" fill="white"/>
<path d="M60.4952 163.687L55.8789 170.59L55.1101 170.077L55.8057 168.969L55.7458 168.929C55.3841 169.198 54.9725 169.332 54.511 169.332C54.0384 169.334 53.5725 169.182 53.1132 168.876C52.7937 168.663 52.5441 168.41 52.3643 168.117C52.178 167.82 52.0659 167.49 52.0282 167.129C51.9905 166.767 52.0349 166.383 52.1614 165.977C52.2767 165.573 52.4787 165.155 52.7671 164.722C53.1488 164.15 53.5648 163.721 54.0152 163.434C54.4612 163.155 54.9183 163.017 55.3864 163.022C55.8479 163.022 56.295 163.166 56.7277 163.454C57.0272 163.654 57.2724 163.885 57.4632 164.147C57.6429 164.411 57.7594 164.69 57.8127 164.985C57.8659 165.28 57.8581 165.573 57.7893 165.864L57.8493 165.904L59.6865 163.148L60.4952 163.687ZM56.5446 164.313C56.2251 164.1 55.8945 163.99 55.5528 163.984C55.2111 163.977 54.8739 164.079 54.541 164.29C54.1971 164.503 53.8787 164.829 53.5858 165.268C53.2885 165.714 53.1099 166.134 53.05 166.526C52.9834 166.915 53.0189 167.265 53.1565 167.578C53.2896 167.897 53.5159 168.164 53.8354 168.377C54.1815 168.608 54.5332 168.722 54.8904 168.72C55.2366 168.72 55.5616 168.629 55.8656 168.447C56.1651 168.271 56.4125 168.037 56.6078 167.744L57.0272 167.115C57.1736 166.896 57.279 166.658 57.3434 166.403C57.4077 166.148 57.4288 165.893 57.4066 165.638C57.3733 165.385 57.2879 165.145 57.1503 164.919C57.0061 164.688 56.8042 164.486 56.5446 164.313Z" fill="white"/>
<path d="M41.9915 154.781L41.3778 155.337L39.0659 152.784L39.6796 152.228L41.9915 154.781Z" fill="white"/>
<path d="M32.8217 137.964L27.9938 142.323L27.5425 141.462L31.6751 137.793L31.6528 137.75L26.3392 139.167L25.7933 138.125L29.9481 134.498L29.9314 134.466L24.5732 135.797L24.1387 134.968L30.4707 133.479L31.0668 134.616L27.1503 138.078L27.1726 138.12L32.2089 136.795L32.8217 137.964Z" fill="white"/>
<path d="M26.8023 124.069C26.99 124.639 27.0261 125.17 26.9105 125.663C26.7924 126.149 26.5367 126.574 26.1433 126.939C25.7498 127.305 25.2454 127.589 24.6299 127.792C23.9993 127.999 23.4172 128.073 22.8836 128.013C22.3424 127.956 21.8813 127.771 21.5004 127.458C21.1119 127.148 20.8238 126.708 20.6361 126.138C20.4359 125.53 20.4074 124.984 20.5508 124.499C20.6942 124.013 20.9803 123.603 21.409 123.268C21.8352 122.926 22.375 122.672 23.0282 122.508L24.4587 126.85C24.9501 126.68 25.3392 126.467 25.6259 126.213C25.9026 125.953 26.0807 125.663 26.1603 125.342C26.2297 125.016 26.2044 124.67 26.0843 124.306C25.9391 123.865 25.71 123.54 25.3971 123.332C25.0841 123.123 24.7365 123.04 24.3544 123.081L24.0653 122.204C24.483 122.117 24.875 122.143 25.2414 122.284C25.6052 122.417 25.9232 122.64 26.1953 122.955C26.4573 123.265 26.6596 123.636 26.8023 124.069ZM23.9307 127.011L23.8277 127.159L22.63 123.523L22.8234 123.573C22.3422 123.723 21.9797 123.914 21.736 124.146C21.4847 124.38 21.3333 124.649 21.2816 124.953C21.2198 125.251 21.244 125.567 21.3541 125.902C21.4693 126.251 21.6454 126.53 21.8825 126.738C22.1195 126.947 22.4113 127.078 22.7577 127.132C23.094 127.182 23.485 127.141 23.9307 127.011Z" fill="white"/>
<path d="M23.1863 107.53L14.474 108.32L14.3863 107.352L23.0986 106.562L23.1863 107.53Z" fill="white"/>
<path d="M22.9764 97.4265C22.9547 98.0261 22.8041 98.537 22.5246 98.9592C22.2455 99.3733 21.858 99.6835 21.3622 99.8897C20.8664 100.096 20.2947 100.187 19.6471 100.164C18.9836 100.14 18.412 100.007 17.9324 99.7654C17.4449 99.5236 17.0767 99.1901 16.8279 98.7648C16.5712 98.3392 16.4537 97.8266 16.4754 97.227C16.4986 96.5874 16.6616 96.065 16.9644 95.6597C17.2673 95.2544 17.6779 94.9691 18.1962 94.8037C18.7149 94.6304 19.3091 94.5799 19.9789 94.6522L19.8134 99.2212C20.3333 99.232 20.7719 99.1678 21.1292 99.0287C21.4788 98.8812 21.7466 98.6708 21.9326 98.3974C22.1109 98.1156 22.207 97.7829 22.2209 97.3991C22.2377 96.9354 22.1356 96.5515 21.9144 96.2473C21.6933 95.9431 21.3963 95.7442 21.0234 95.6506L21.0569 94.7272C21.4789 94.7906 21.8373 94.9516 22.1321 95.2105C22.4272 95.4613 22.6478 95.7815 22.7938 96.1711C22.932 96.5523 22.9929 96.9708 22.9764 97.4265ZM19.2622 99.1892L19.1144 99.2919L19.2529 95.4664L19.4169 95.5804C18.9135 95.5542 18.5073 95.6075 18.1983 95.7404C17.8813 95.873 17.6459 96.0726 17.4922 96.3393C17.3307 96.5976 17.2436 96.9026 17.2309 97.2544C17.2176 97.6222 17.2859 97.9448 17.436 98.2225C17.586 98.5001 17.8141 98.7245 18.1201 98.8957C18.4184 99.0586 18.7991 99.1564 19.2622 99.1892Z" fill="white"/>
<path d="M24.1999 86.1805C24.1257 86.5573 23.987 86.8887 23.7839 87.1749C23.5745 87.4516 23.3139 87.6776 23.0022 87.8526C22.6827 88.0262 22.3143 88.1371 21.8971 88.1854C21.4736 88.2243 21.0068 88.1935 20.4966 88.093C19.8215 87.9601 19.2655 87.7405 18.8284 87.4343C18.3929 87.1202 18.0906 86.7509 17.9214 86.3262C17.746 85.8921 17.7077 85.4239 17.8067 84.9215C17.8778 84.5605 18.0008 84.2463 18.1757 83.9791C18.3443 83.7024 18.5547 83.483 18.8068 83.3206C19.0511 83.1567 19.3246 83.0516 19.6272 83.0052L19.6388 82.9463L18.3624 82.6583L18.5433 81.7399L24.7246 82.9572L24.5368 83.9108L23.2416 83.6558L23.2301 83.7147C23.6151 83.9536 23.9001 84.2869 24.0849 84.7147C24.2698 85.1425 24.3081 85.6311 24.1999 86.1805ZM23.4619 85.705C23.5438 85.289 23.5145 84.9203 23.3739 84.5991C23.2333 84.2779 23.0246 84.0126 22.7479 83.8032C22.4711 83.5938 22.1601 83.455 21.8147 83.387L21.0612 83.2386C20.7158 83.1706 20.3754 83.181 20.0399 83.2699C19.6965 83.3572 19.4029 83.5236 19.1588 83.7691C18.9069 84.013 18.74 84.343 18.6581 84.759C18.5839 85.1357 18.6132 85.484 18.7459 85.8036C18.8708 86.1218 19.0944 86.3941 19.4167 86.6206C19.739 86.8472 20.1631 87.0122 20.689 87.1158C21.2071 87.2178 21.6621 87.2259 22.0541 87.14C22.4382 87.0526 22.7523 86.8861 22.9963 86.6406C23.2325 86.3936 23.3877 86.0817 23.4619 85.705Z" fill="white"/>
<path d="M28.5101 76.7466L20.7397 73.8179L21.0643 72.9528L22.3016 73.3787L22.3268 73.3112C21.9833 73.02 21.7591 72.6496 21.6543 72.2001C21.5449 71.7404 21.5871 71.2521 21.7811 70.7353C21.916 70.3758 22.1057 70.0752 22.3501 69.8337C22.5973 69.5847 22.8928 69.4008 23.2365 69.282C23.5801 69.1631 23.964 69.1192 24.3882 69.1502C24.8076 69.1709 25.2608 69.2726 25.7477 69.4553C26.3918 69.697 26.9044 70.0047 27.2854 70.3784C27.6589 70.7492 27.8966 71.1632 27.9986 71.6201C28.1033 72.0696 28.0644 72.5377 27.8817 73.0246C27.7552 73.3616 27.5861 73.6528 27.3745 73.8981C27.1581 74.133 26.9123 74.3099 26.637 74.4288C26.3617 74.5476 26.0747 74.6066 25.776 74.6056L25.7507 74.673L28.8516 75.8366L28.5101 76.7466ZM27.0039 73.0412C27.1388 72.6817 27.1707 72.3348 27.0996 72.0005C27.0285 71.6662 26.8526 71.361 26.5717 71.0847C26.2862 70.7981 25.8963 70.562 25.4019 70.3765C24.9001 70.1882 24.4512 70.1095 24.0551 70.1403C23.6618 70.1636 23.3285 70.2778 23.055 70.4828C22.7741 70.6849 22.5661 70.9658 22.4312 71.3253C22.2851 71.7148 22.2536 72.0832 22.3369 72.4306C22.4155 72.7677 22.5778 73.0636 22.824 73.3184C23.0627 73.5703 23.3469 73.7581 23.6764 73.8818L24.3842 74.1474C24.6314 74.2401 24.8866 74.2889 25.1497 74.2936C25.4128 74.2984 25.6661 74.261 25.9095 74.1814C26.1483 74.0916 26.3623 73.954 26.5515 73.7687C26.7435 73.5758 26.8943 73.3333 27.0039 73.0412Z" fill="white"/>
<path d="M32.9826 56.7049L32.302 56.2334L34.2632 53.4023L34.9438 53.8738L32.9826 56.7049Z" fill="white"/>
</g>
</g>
<defs>
<clipPath id="clip0_4073_437">
<rect width="200" height="200" fill="white"/>
</clipPath>
</defs>
</svg>
