<svg width="200" height="200" viewBox="0 0 200 200" fill="none" xmlns="http://www.w3.org/2000/svg">
<circle cx="100" cy="100" r="100" fill="#412297"/>
<path d="M121.315 122.335H58.7754V104.467H121.315V122.335ZM139.184 95.5322H76.6436V77.6641H139.184V95.5322Z" fill="#ECE5FF"/>
<path d="M31.9586 42.0601L42.0601 31.9585L67.314 57.2123L57.2124 67.3139L31.9586 42.0601Z" fill="#A180FF"/>
<path d="M132.685 142.787L142.787 132.685L168.041 157.939L157.939 168.041L132.685 142.787Z" fill="#A180FF"/>
<path d="M42.0399 168.02L31.9384 157.919L57.1922 132.665L67.2937 142.767L42.0399 168.02Z" fill="#A180FF"/>
<path d="M142.767 67.2937L132.665 57.1922L157.919 31.9384L168.02 42.0399L142.767 67.2937Z" fill="#A180FF"/>
<path d="M163.979 99.9996C163.979 64.6647 135.335 36.02 99.9996 36.02C64.6647 36.02 36.02 64.6647 36.02 99.9996C36.02 135.335 64.6647 163.979 99.9996 163.979V171.122C60.7198 171.122 28.8772 139.279 28.8772 99.9996C28.8772 60.7198 60.7198 28.8772 99.9996 28.8772C139.279 28.8772 171.122 60.7198 171.122 99.9996C171.122 139.279 139.279 171.122 99.9996 171.122V163.979C135.335 163.979 163.979 135.335 163.979 99.9996Z" fill="#A180FF"/>
<path d="M92.8567 10.918H107.142V25.2037H92.8567V10.918Z" fill="#A180FF"/>
<path d="M92.8567 39.4894H107.142V53.7751H92.8567V39.4894Z" fill="#A180FF"/>
<path d="M92.8567 146.224H107.142V160.51H92.8567V146.224Z" fill="#A180FF"/>
<path d="M92.8567 174.796H107.142V189.081H92.8567V174.796Z" fill="#A180FF"/>
<path d="M189.081 92.8568V107.142H174.796V92.8568H189.081Z" fill="#A180FF"/>
<path d="M160.51 92.8568V107.142H146.224V92.8568H160.51Z" fill="#A180FF"/>
<path d="M53.7751 92.8567L53.7751 107.142L39.4894 107.142V92.8567H53.7751Z" fill="#A180FF"/>
<path d="M25.2037 92.8567V107.142H10.918L10.918 92.8567H25.2037Z" fill="#A180FF"/>
<path d="M42.0601 168.041L31.9586 157.939L52.1617 137.736L62.2632 147.837L42.0601 168.041Z" fill="#A180FF"/>
<path d="M147.838 62.2631L137.736 52.1616L157.939 31.9585L168.041 42.0601L147.838 62.2631Z" fill="#A180FF"/>
</svg>
