<svg width="200" height="200" viewBox="0 0 200 200" fill="none" xmlns="http://www.w3.org/2000/svg">
<circle cx="100" cy="100" r="100" fill="#7C4DFF"/>
<path d="M127.665 128.673H47.3477V105.734H127.665V128.673ZM150.613 94.2646H70.2959V71.3262H150.613V94.2646Z" fill="white"/>
<path d="M89.4501 170.645C91.7582 170.989 94.086 171.221 96.4253 171.339C98.7646 171.456 101.104 171.458 103.435 171.345L104.122 185.615C101.325 185.749 98.5176 185.747 95.7104 185.606C92.9033 185.466 90.11 185.187 87.3402 184.774L89.4501 170.645ZM136.572 177.52C134.039 178.715 131.445 179.787 128.797 180.731C126.15 181.676 123.463 182.487 120.746 183.165L117.288 169.304C119.552 168.739 121.792 168.063 123.998 167.276C126.204 166.489 128.366 165.596 130.476 164.6L136.572 177.52ZM63.2183 161.23C65.2188 162.432 67.2807 163.537 69.3971 164.54C71.5134 165.544 73.674 166.441 75.8706 167.229L71.0448 180.675C68.4089 179.729 65.8162 178.653 63.2766 177.449C60.737 176.244 58.2628 174.918 55.8621 173.476L63.2183 161.23ZM163.454 157.623C161.571 159.697 159.584 161.68 157.5 163.565C155.416 165.451 153.243 167.229 150.992 168.895L142.494 157.413C144.369 156.024 146.179 154.542 147.916 152.971C149.653 151.4 151.309 149.747 152.878 148.019L163.454 157.623ZM42.5861 142.494C43.9745 144.37 45.4565 146.18 47.0278 147.917C48.5991 149.654 50.2519 151.309 51.9796 152.878L42.3756 163.454C40.3024 161.571 38.319 159.584 36.4335 157.5C34.548 155.416 32.7695 153.243 31.1035 150.992L42.5861 142.494ZM180.675 128.954C179.729 131.59 178.653 134.183 177.449 136.722C176.244 139.262 174.918 141.736 173.476 144.137L161.23 136.781C162.432 134.78 163.537 132.718 164.54 130.602C165.544 128.485 166.441 126.325 167.229 124.128L180.675 128.954ZM30.6947 117.288C31.2595 119.552 31.936 121.792 32.723 123.998C33.5099 126.204 34.4034 128.366 35.3991 130.476L22.4791 136.572C21.2842 134.039 20.2119 131.445 19.2676 128.797C18.3233 126.15 17.5115 123.463 16.8337 120.746L30.6947 117.288ZM185.615 95.8769C185.749 98.6741 185.747 101.481 185.606 104.288C185.466 107.096 185.187 109.889 184.774 112.659L170.645 110.549C170.989 108.241 171.221 105.913 171.339 103.574C171.456 101.234 171.458 98.895 171.345 96.564L185.615 95.8769ZM29.3542 89.4501C29.0095 91.7582 28.7776 94.0861 28.6604 96.4254C28.5432 98.7646 28.5413 101.104 28.6536 103.435L14.3843 104.122C14.2496 101.325 14.2519 98.5176 14.3926 95.7105C14.5332 92.9034 14.8115 90.11 15.2252 87.3402L29.3542 89.4501ZM177.52 63.4272C178.715 65.96 179.787 68.5544 180.731 71.2016C181.676 73.8489 182.487 76.5362 183.165 79.2534L169.304 82.711C168.739 80.4467 168.063 78.2073 167.276 76.0013C166.489 73.7952 165.596 71.6332 164.6 69.5226L177.52 63.4272ZM38.7688 63.2184C37.5671 65.2189 36.462 67.2807 35.4585 69.3971C34.455 71.5135 33.558 73.6741 32.7697 75.8706L19.3237 71.0448C20.2697 68.4089 21.3461 65.8163 22.5503 63.2766C23.7544 60.737 25.0806 58.2628 26.5227 55.8621L38.7688 63.2184ZM157.623 36.5453C159.697 38.428 161.68 40.4146 163.565 42.499C165.451 44.5834 167.229 46.7555 168.895 49.0065L157.413 57.5053C156.024 55.6294 154.542 53.8195 152.971 52.0824C151.4 50.3454 149.747 48.6899 148.019 47.121L157.623 36.5453ZM57.5052 42.5862C55.6294 43.9746 53.8194 45.4566 52.0824 47.0278C50.3454 48.5991 48.6899 50.2519 47.121 51.9796L36.5453 42.3756C38.428 40.3024 40.4146 38.319 42.4989 36.4335C44.5833 34.548 46.7554 32.7696 49.0064 31.1035L57.5052 42.5862ZM128.954 19.3238C131.59 20.2698 134.183 21.3461 136.722 22.5503C139.262 23.7545 141.736 25.0806 144.137 26.5227L136.781 38.7688C134.78 37.5671 132.718 36.462 130.602 35.4586C128.485 34.4551 126.325 33.5581 124.128 32.7697L128.954 19.3238ZM82.711 30.6947C80.4467 31.2596 78.2073 31.9361 76.0012 32.723C73.7951 33.5099 71.6332 34.4034 69.5225 35.3992L63.4272 22.4792C65.96 21.2842 68.5543 20.212 71.2016 19.2677C73.8489 18.3234 76.5361 17.5115 79.2534 16.8337L82.711 30.6947ZM95.8769 14.3843C98.5867 14.2539 101.306 14.2519 104.025 14.3798L104.288 14.3926L104.552 14.4062C107.27 14.5507 109.975 14.8245 112.659 15.2252L110.549 29.3543C108.241 29.0096 105.913 28.7776 103.574 28.6604C101.234 28.5432 98.895 28.5414 96.5639 28.6536L95.8769 14.3843Z" fill="white" fill-opacity="0.16"/>
</svg>
