<?xml version="1.0" encoding="UTF-8"?>
<!DOCTYPE svg PUBLIC "-//W3C//DTD SVG 1.1//EN" "http://www.w3.org/Graphics/SVG/1.1/DTD/svg11.dtd">
<svg xmlns="http://www.w3.org/2000/svg" version="1.1" width="200px" height="200px" style="shape-rendering:geometricPrecision; text-rendering:geometricPrecision; image-rendering:optimizeQuality; fill-rule:evenodd; clip-rule:evenodd" xmlns:xlink="http://www.w3.org/1999/xlink">
<g><path style="opacity:1" fill="#010101" d="M -0.5,-0.5 C 66.1667,-0.5 132.833,-0.5 199.5,-0.5C 199.5,66.1667 199.5,132.833 199.5,199.5C 132.833,199.5 66.1667,199.5 -0.5,199.5C -0.5,132.833 -0.5,66.1667 -0.5,-0.5 Z"/></g>
<g><path style="opacity:1" fill="#e8e8e8" d="M 63.5,7.5 C 70.175,7.33375 76.8417,7.50042 83.5,8C 85.0717,13.1157 86.5717,18.2824 88,23.5C 89.1724,18.1463 90.3391,12.813 91.5,7.5C 96.544,7.17252 101.544,7.50585 106.5,8.5C 107.999,13.8277 109.499,19.161 111,24.5C 111.96,18.8229 113.46,13.3229 115.5,8C 122.158,7.50042 128.825,7.33375 135.5,7.5C 134.144,27.3643 136.144,46.8643 141.5,66C 141.355,66.772 141.022,67.4387 140.5,68C 130.151,68.8323 119.817,68.6656 109.5,67.5C 106.522,62.5315 103.189,57.8648 99.5,53.5C 95.6726,58.1675 92.0059,63.0008 88.5,68C 78.172,68.4998 67.8387,68.6665 57.5,68.5C 62.1347,48.4513 64.1347,28.118 63.5,7.5 Z"/></g>
<g><path style="opacity:1" fill="#040404" d="M 117.5,11.5 C 122.167,11.5 126.833,11.5 131.5,11.5C 131.175,19.3516 131.508,27.0182 132.5,34.5C 133.186,43.9272 134.519,53.2606 136.5,62.5C 128.567,64.4684 120.234,65.135 111.5,64.5C 107.743,58.6495 103.743,52.9829 99.5,47.5C 94.9517,52.5563 90.9517,58.0563 87.5,64C 78.8397,64.4998 70.1731,64.6664 61.5,64.5C 65.7982,46.7735 67.4649,28.7735 66.5,10.5C 71.1785,10.3342 75.8452,10.5008 80.5,11C 83.0315,17.9588 84.8649,25.1255 86,32.5C 87.0113,33.3366 88.1779,33.67 89.5,33.5C 90.8456,25.7586 92.5122,18.0919 94.5,10.5C 97.7766,10.2161 100.943,10.5495 104,11.5C 106.144,18.7778 107.977,26.1111 109.5,33.5C 110.5,33.5 111.5,33.5 112.5,33.5C 113.852,26.0927 115.519,18.7593 117.5,11.5 Z"/></g>
<g><path style="opacity:1" fill="#353535" d="M 117.5,11.5 C 122.305,10.5128 127.305,10.1795 132.5,10.5C 132.5,18.5 132.5,26.5 132.5,34.5C 131.508,27.0182 131.175,19.3516 131.5,11.5C 126.833,11.5 122.167,11.5 117.5,11.5 Z"/></g>
<g><path style="opacity:1" fill="#717171" d="M 136.5,62.5 C 137.404,63.209 137.737,64.209 137.5,65.5C 128.651,65.8264 119.984,65.493 111.5,64.5C 120.234,65.135 128.567,64.4684 136.5,62.5 Z"/></g>
<g><path style="opacity:1" fill="#ede9e3" d="M 55.5,74.5 C 64.1731,74.3336 72.8397,74.5002 81.5,75C 83.8589,80.2449 85.6922,85.7449 87,91.5C 88.4436,85.8359 90.2769,80.3359 92.5,75C 97.1667,74.3333 101.833,74.3333 106.5,75C 108.241,80.1257 109.908,85.2924 111.5,90.5C 113.402,85.3873 115.068,80.2206 116.5,75C 125.518,74.168 134.518,74.3347 143.5,75.5C 152.499,92.7907 152.666,110.124 144,127.5C 142.207,130.295 140.04,132.795 137.5,135C 128.5,135.667 119.5,135.667 110.5,135C 106.955,130.077 103.288,125.244 99.5,120.5C 95.6726,125.167 92.0059,130.001 88.5,135C 79.5,135.667 70.5,135.667 61.5,135C 50.2128,123.426 46.0461,109.593 49,93.5C 50.2804,86.8246 52.447,80.4913 55.5,74.5 Z"/></g>
<g><path style="opacity:1" fill="#fe9d05" d="M 56.5,78.5 C 64.5,78.5 72.5,78.5 80.5,78.5C 82.1667,85.8333 83.8333,93.1667 85.5,100.5C 86.5,100.5 87.5,100.5 88.5,100.5C 90.4812,93.2414 92.1479,85.9081 93.5,78.5C 97.226,78.1774 100.893,78.5108 104.5,79.5C 106.643,86.0729 108.477,92.7396 110,99.5C 111,100.833 112,100.833 113,99.5C 114.734,92.7992 116.567,86.1325 118.5,79.5C 126.392,78.1862 134.225,78.1862 142,79.5C 147.94,94.5398 147.94,109.54 142,124.5C 138.336,131.404 132.503,134.071 124.5,132.5C 120.5,132.333 116.5,132.167 112.5,132C 108.878,127.255 105.378,122.422 102,117.5C 101.261,116.426 100.261,115.759 99,115.5C 94.4783,120.7 90.3117,126.2 86.5,132C 78.5,132.667 70.5,132.667 62.5,132C 55.4057,123.893 51.739,114.393 51.5,103.5C 52.2737,94.9647 53.9404,86.6314 56.5,78.5 Z"/></g>
<g><path style="opacity:1" fill="#fcfcfc" d="M 64.5,142.5 C 70.8421,142.334 77.1754,142.5 83.5,143C 85.3782,146.674 86.8782,150.507 88,154.5C 89.5047,150.65 91.0047,146.817 92.5,143C 97.1667,142.333 101.833,142.333 106.5,143C 107.757,146.524 109.09,150.024 110.5,153.5C 112.026,150.256 113.36,146.923 114.5,143.5C 121.134,142.503 127.8,142.17 134.5,142.5C 132.695,147.278 131.029,152.111 129.5,157C 131.804,164.107 135.304,170.607 140,176.5C 140.634,184.549 136.8,189.049 128.5,190C 122.167,190.667 115.833,190.667 109.5,190C 106,185.167 102.5,180.333 99,175.5C 95.6377,180.03 92.4711,184.697 89.5,189.5C 80.6784,191.126 72.0117,190.626 63.5,188C 59.0341,184.901 57.5341,180.735 59,175.5C 63.4124,169.841 66.9124,163.674 69.5,157C 67.9296,152.049 66.263,147.216 64.5,142.5 Z"/></g>
</svg>
