<svg xmlns="http://www.w3.org/2000/svg" width="200" height="200" style="shape-rendering:geometricPrecision;text-rendering:geometricPrecision;image-rendering:optimizeQuality;fill-rule:evenodd;clip-rule:evenodd"><path fill="#28223c" d="M-.5-.5h15q.626 1.083 2 1.5a29 29 0 0 1-5 2.5 150 150 0 0 0-5 10.5q1.255 1.517 1 3.5-2.398-.402-4 1-.276 3.638-2 0a31 31 0 0 1-2 2z" style="opacity:1"/><path fill="#54909d" d="M53.5-.5h7q2.178 1.203 5 1.5a76.4 76.4 0 0 1 6 10l-1 1q5.622 3.272-1 5.5a15 15 0 0 1-1-2q-5.705.906-11 2 .329 1.763-1 3l-1-2q-1.427 1.239-3 .5a708 708 0 0 0 7-6.5q-3.067-2.353-1-5.5-2.27-2.82-2-6.5-1.936.356-3-1" style="opacity:1"/><path fill="#33405b" d="M136.5-.5h6q-1.663 1.185-4 1.5 6.114 5.038 14 6.5a64.6 64.6 0 0 1 6 7.5q-2 1.5 0 3 1.9.465 3.5 1.5l1-1q3.107 1.296 5 4 1.34-1.816 2.5 0a8.9 8.9 0 0 1-3 4q1.773 3.218 4.5 0 1.5 2 3 0 1.076.816 1.5 2-3.716.93 0 3-.186.91-1 1-.513-1.258-2-1-1.793.265-3.5 1a80 80 0 0 0-4-3l-1 1-1-5q-1 2-2 0-1.566 1.684-2 4-6.172-4.71-4-12-3.24-2.495-6.5-5-2.504 2.085-5 1l-2.5-6-1 1a55.5 55.5 0 0 0-5.5-7q.544-1.025 1-2" style="opacity:1"/><path fill="#303954" d="M142.5-.5h7q-1.205 1.385-.5 3 4 2 6 6l3-3q.926 1.424-.5 2.5 2.023 1.159 2.5 3.5l1-2q1.25 2.25 3.5 3.5l-1 1a15.3 15.3 0 0 1 1.5 4.5q5.356-3.135 11 0 2.241-1.87 4.5 0a14.7 14.7 0 0 1-5 1.5q4 1 0 2 2.9 1.175 4.5-1.5l1 2q1.676-.247 3.5-1 3.921 1.727 7.5 6l2.5-3q2.254.828 5 0v2q-1.96 2.96-5 5a2.43 2.43 0 0 0-.5-2q-1.626 3.424-4.5 1-3.49.38-6-2-3.985 2.421-5.5-2-.417 1.374-1.5 2-.424-1.184-1.5-2-1.5 2-3 0-2.727 3.218-4.5 0a8.9 8.9 0 0 0 3-4q-1.16-1.816-2.5 0-1.893-2.704-5-4l-1 1a11.4 11.4 0 0 0-3.5-1.5q-2-1.5 0-3a64.6 64.6 0 0 0-6-7.5q-7.886-1.462-14-6.5 2.337-.315 4-1.5" style="opacity:1"/><path fill="#2a263f" d="M149.5-.5h23q-3.196 1.221-7 1.5a134 134 0 0 0 8 4.5 4.46 4.46 0 0 0 1.5-2q.244 3.265 2.5 5.5 4.905 1.492 10 2.5-2 1.5 0 3a58 58 0 0 0 7 3q.768 4.276 5 4v3q-2.746.828-5 0l-2.5 3q-3.579-4.273-7.5-6-1.824.753-3.5 1l-1-2q-1.6 2.675-4.5 1.5 4-1 0-2a14.7 14.7 0 0 0 5-1.5q-2.259-1.87-4.5 0-5.644-3.135-11 0a15.3 15.3 0 0 0-1.5-4.5l1-1q-2.25-1.25-3.5-3.5l-1 2q-.477-2.341-2.5-3.5 1.426-1.076.5-2.5l-3 3q-2-4-6-6-.705-1.615.5-3" style="opacity:1"/><path fill="#23142d" d="M172.5-.5h27v22q-4.232.276-5-4a58 58 0 0 1-7-3q-2-1.5 0-3a103 103 0 0 1-10-2.5q-2.256-2.235-2.5-5.5a4.46 4.46 0 0 1-1.5 2 134 134 0 0 1-8-4.5q3.804-.279 7-1.5" style="opacity:1"/><path fill="#2b2e49" d="M14.5-.5h11q3.363 2.558 0 6a272 272 0 0 0-12 14q1.654.746 3 1a7.25 7.25 0 0 1-2 2.5 24.3 24.3 0 0 1 3 5.5q-1 0-1 1-4.287.708-6-3 .607-3.225 1.5-6-1.5-2-3 0-2.127-3.752-3 1-.354-2.43-2.5-3 1.602-1.402 4-1 .255-1.983-1-3.5a150 150 0 0 1 5-10.5 29 29 0 0 0 5-2.5q-1.374-.417-2-1.5" style="opacity:1"/><path fill="#34435d" d="M25.5-.5h9a71 71 0 0 0 4 2q-1.73 3.978-5.5 6 .404 4.002.5 7.5a15.3 15.3 0 0 0-1.5 4.5 13.9 13.9 0 0 0-4 3 12.8 12.8 0 0 1-3 6q-2.1-2.538-5.5-2a20.1 20.1 0 0 1-1.5 6 8.43 8.43 0 0 1-.5-4 24.3 24.3 0 0 0-3-5.5 7.25 7.25 0 0 0 2-2.5q-1.346-.254-3-1a272 272 0 0 1 12-14q3.363-3.442 0-6" style="opacity:1"/><path fill="#374d69" d="M34.5-.5h7q0 1 1 1a20.5 20.5 0 0 0-3 8q-2.405-.282-4 1.5.175 1.902 1 4-3.601 3.74 0 7a9.5 9.5 0 0 0-1.5 2.5A691 691 0 0 0 22.5 34q-2.418 1.08-4.5-.5a10.1 10.1 0 0 0-1.5 4h-5q.356-1.936-1-3-.255-1.983 1-3.5 2.823-.297 5-1.5 0-1 1-1a8.43 8.43 0 0 0 .5 4 20.1 20.1 0 0 0 1.5-6q3.4-.538 5.5 2a12.8 12.8 0 0 0 3-6 13.9 13.9 0 0 1 4-3 15.3 15.3 0 0 1 1.5-4.5q-.096-3.498-.5-7.5 3.77-2.022 5.5-6a71 71 0 0 1-4-2" style="opacity:1"/><path fill="#3b5974" d="M42.5.5q1.79.705 2 3a12.8 12.8 0 0 1-2 4.5q.608 1.418 2 2-3.312 2.754-4 7 1.637 3.096.5 6.5a55 55 0 0 0-12.5 10q3.7.936 7 2.5a6.98 6.98 0 0 0-2.5 3.5q-2.26-1.552-4.5.5 1.816 1.34 0 2.5-1.388-1.71-2.5 0a4.45 4.45 0 0 0-1.5-2q-4.593 1.878-8 3-.18 1.63-2 2a14.2 14.2 0 0 1-4-3q-.255-1.983 1-3.5 2.823-.297 5-1.5a10.1 10.1 0 0 1 1.5-4q2.082 1.58 4.5.5A691 691 0 0 1 35 23.5a9.5 9.5 0 0 1 1.5-2.5q-3.601-3.26 0-7-.825-2.098-1-4 1.595-1.782 4-1.5.66-4.32 3-8" style="opacity:1"/><path fill="#5ca3ad" d="M60.5-.5h9q4.226 1.89 9 5.5-2.487 1.088-1.5 3.5a4.45 4.45 0 0 1 1.5-2l3 4a4.45 4.45 0 0 0 1.5-2q3.17 3.86 6 6 .594-3.69 3.5-6-.519-1.794-1.5 0-1.195-2.639.5-5 1.83-1.817 3.5 0 1.875-2.54 4.5-4h8v1q-4.5-.207-7 4.5l1 1Q95.376 9.5 96 16.5q1.632-3.647 1.5 1-10.099.246-4 7.5-.912 1.305-2.5 1.5-1.807-2.205-4-6-1.28 2.437-3 1-2.983 5.79 3.5 7.5a31.4 31.4 0 0 1-3 7.5 168 168 0 0 1-6-11.5q.685-.621 1-1.5-4.145-.906-7-4-1.968 1.44-4-.5.835-.575 1-1.5 6.622-2.228 1-5.5l1-1a76.4 76.4 0 0 0-6-10q-2.822-.297-5-1.5" style="opacity:1"/><path fill="#68b9c1" d="M69.5-.5h30Q96.875.96 95 3.5q-1.67-1.817-3.5 0-1.695 2.361-.5 5 .981-1.794 1.5 0-2.906 2.31-3.5 6-2.83-2.14-6-6a4.45 4.45 0 0 1-1.5 2l-3-4a4.45 4.45 0 0 0-1.5 2q-.987-2.412 1.5-3.5-4.774-3.61-9-5.5" style="opacity:1"/><path fill="#42657d" d="M41.5-.5h6q1.144 1.152 3 1.5-1.872 4.173 1 9l-2 1q1.392.582 2 2a258 258 0 0 0-5 11.5 36 36 0 0 0-4 7q-3.981-1.776-6 2.5.343.598 1 .5a9.17 9.17 0 0 1-2 4.5q.175 1.902 1 4a106 106 0 0 1-6.5 2.5q-5.088-1.65-11 0-1.062-1.32-2.5-2 3.407-1.122 8-3a4.45 4.45 0 0 1 1.5 2q1.112-1.71 2.5 0 1.816-1.16 0-2.5 2.24-2.052 4.5-.5a6.98 6.98 0 0 1 2.5-3.5 38 38 0 0 0-7-2.5 55 55 0 0 1 12.5-10q1.137-3.404-.5-6.5.688-4.246 4-7-1.392-.582-2-2a12.8 12.8 0 0 0 2-4.5q-.21-2.295-2-3-1 0-1-1" style="opacity:1"/><path fill="#477287" d="M47.5-.5h6q1.064 1.356 3 1-.27 3.68 2 6.5-2.067 3.147 1 5.5a708 708 0 0 1-7 6.5q1.573.739 3-.5l1 2q1.329-1.237 1-3h3q-1.936 1.46 0 3a42.6 42.6 0 0 0-8 3.5q-2.462 1.694-3 4.5-2.2 1.27-2.5 4-1.03-3.63 1.5-6.5-1.374-.417-2-1.5a258 258 0 0 1 5-11.5q-.608-1.418-2-2l2-1q-2.872-4.827-1-9-1.856-.348-3-1.5" style="opacity:1"/><path fill="#5998a3" d="M107.5.5q.519 4.653-2 8.5l2 1q-2 2.5 0 5-3.038 1.791-1 4.5-2.953 2.882-4.5 0-2.682 2.285-.5 5-3.43 3.595-5 8.5 1.816 1.67 0 3.5a26.9 26.9 0 0 1-6 3.5 10.94 10.94 0 0 1 3 4.5q-5.583.035-11 .5-1.816 1.67 0 3.5-3.858 1.842-4 6 2.405-.282 4 1.5a27.6 27.6 0 0 0-5 1.5q-.225-2.34-1-5 1.65-1.657 2-4a73 73 0 0 0 5-9.5l-1-1q1.373-.417 2-1.5a31.4 31.4 0 0 0 3-7.5q-6.483-1.71-3.5-7.5 1.72 1.437 3-1 2.193 3.795 4 6 1.588-.195 2.5-1.5-6.099-7.254 4-7.5.132-4.647-1.5-1-.624-7 5.5-10.5l-1-1q2.5-4.707 7-4.5" style="opacity:1"/><path fill="#3b516a" d="M125.5-.5h11q-.456.975-1 2a55.5 55.5 0 0 1 5.5 7l1-1 2.5 6q2.496 1.085 5-1 3.26 2.505 6.5 5-2.172 7.29 4 12 .434-2.316 2-4 1 2 2 0l1 5 1-1a80 80 0 0 1 4 3 14 14 0 0 1 3.5-1l-2 5h-1q-4.33-.65-7.5-4-1.949.699-4.5 0-3.297-4.815-8.5-8-.004-3.827-2.5-6h-1q-2.7-1.658-3.5 2l-1-1a31 31 0 0 0-3.5 3q-1.657-2.48-.5-5-3.61.26-7 0l-1-3q-5.06 4.435-7.5-2l1.5-3q3.5-1.23 6.5-1-3.801-1.915-7.5 0a9.5 9.5 0 0 0-1.5-2.5q1.359-2.55 1-5.5 1.936.356 3-1" style="opacity:1"/><path fill="#4c7287" d="M112.5-.5h13q-1.064 1.356-3 1 .359 2.95-1 5.5a9.5 9.5 0 0 1 1.5 2.5q3.699-1.915 7.5 0-3-.23-6.5 1l-1.5 3q2.44 6.435 7.5 2l1 3q3.39.26 7 0-1.157 2.52.5 5a38.4 38.4 0 0 0-7-1.5q-4.5-7-9 0 1.1 3.487 4.5 4.5 1.989-.383 3-2 1.725 5.032-2.5 3-7.296 2.634 0 6.5-4.575.745-3 4.5 3.508 1.265 6 0-1.23 2.417-4 2l-2 1q-.925.166-1.5 1a8.4 8.4 0 0 1-.5-4q-2.466-.32-4.5 1l-1-2a10.1 10.1 0 0 0-1.5 4q-7.617.244-2-3.5-1.6-4.04 3-5.5-3.025-1.08-5-3.5a3.94 3.94 0 0 1 1-2 4.45 4.45 0 0 1-2-1.5q1.412.015 2-1.5-6.617-7.517-2-15.5.41-3.642-1-6.5 1.856-.348 3-1.5" style="opacity:1"/><path fill="#518a9a" d="M60.5 17.5a18.4 18.4 0 0 1 6 .5l-3 1a32.5 32.5 0 0 1 7 3q-4.567.539-1 2a4.93 4.93 0 0 1-3 .5q-.401 2.398 1 4-2.365 3.126-5.5 6a26.9 26.9 0 0 1-6.5-5.5q-2.35-1.147-4 .5l-2-1q.538-2.806 3-4.5a42.6 42.6 0 0 1 8-3.5q-1.936-1.54 0-3" style="opacity:1"/><path fill="#54929f" d="M101.5 24.5q3.121 5.073 7.5 1 3 6.5 0 13-1.517-1.255-3.5-1l-2 8h4a4.93 4.93 0 0 0 .5 3l1-7 1.5 1.5a62 62 0 0 1-.5 6.5q1.896-.21 3.5 0a13 13 0 0 0-4.5 4q-1.047-1.785-2.5-3 .197-1.314-1-2a10.3 10.3 0 0 0-1.5 4q-5.774-4.164-9.5 2-3.414.385-3.5 4a106 106 0 0 0 0 9 14.4 14.4 0 0 0-2.5-5.5q-1.574-.739-3 .5a19.95 19.95 0 0 0-8-2.5q1.647-1.155 0-2.5a27.6 27.6 0 0 1 5-1.5q-1.595-1.782-4-1.5.142-4.158 4-6-1.816-1.83 0-3.5 5.417-.465 11-.5a10.94 10.94 0 0 0-3-4.5 26.9 26.9 0 0 0 6-3.5q1.816-1.83 0-3.5 1.57-4.905 5-8.5" style="opacity:1"/><path fill="#344564" d="M3.5 18.5q2.146.57 2.5 3 .873-4.752 3-1 1.5-2 3 0a50 50 0 0 0-1.5 6 9.1 9.1 0 0 1-1 5q-2.757 1.033-5 1a54 54 0 0 0 6 2q.451 6.179-6 6-.968 2.898-4 3.5 3.536 1.83-1 2.5v-26a31 31 0 0 0 2-2q1.725 3.638 2 0" style="opacity:1"/><path fill="#3d5d76" d="M138.5 22.5a447 447 0 0 1-2 17q-1.39 3.114-5 3.5 7.56 1.115.5 3.5a12.4 12.4 0 0 0-2.5-4q-1.388-1.71-2.5 0a4.93 4.93 0 0 1-.5-3q2.77.417 4-2-2.492 1.265-6 0-1.575-3.754 3-4.5-7.296-3.866 0-6.5 4.225 2.032 2.5-3-1.011 1.617-3 2-3.4-1.013-4.5-4.5 4.5-7 9 0 3.63.435 7 1.5" style="opacity:1"/><path fill="#88aaaf" d="M147.5 18.5q2.496 2.174 2.5 6 5.203 3.185 8.5 8-5.924-1.087-10.5-5 .841-4.431-.5-9" style="opacity:1"/><path fill="#4d879d" d="M46.5 24.5q.626 1.083 2 1.5-2.53 2.87-1.5 6.5.3-2.73 2.5-4-.639 5.82 0 11 2.68.664 5 1a11.74 11.74 0 0 0-3 5q-1.437-.68-2.5-2-.417 1.374-1.5 2a24 24 0 0 1-2.5-6l-1 3q-.445-3.414 1.5-6.5-.689-2.913-3-4.5a36 36 0 0 1 4-7" style="opacity:1"/><path fill="#def7f0" d="M67.5 28.5h5q-2.96 4.289-7 8a34.8 34.8 0 0 0 7 7q.329 1.762-1 3a5.58 5.58 0 0 0-3-1 63 63 0 0 0-6.5-7 63 63 0 0 0-6.5 7h-4a11.74 11.74 0 0 1 3-5q2.468-1.468 4-4a51.7 51.7 0 0 1-7-7q1.65-1.647 4-.5a26.9 26.9 0 0 0 6.5 5.5q3.135-2.874 5.5-6" style="opacity:1"/><path fill="#518d9d" d="M72.5 43.5a34.8 34.8 0 0 1-7-7q4.04-3.711 7-8 .465-1.857 1.5 0 3.315 7.968-1.5 15" style="opacity:1"/><path fill="#416982" d="m49.5 28.5 2 1a51.7 51.7 0 0 0 7 7q-1.532 2.532-4 4a52 52 0 0 1-5-1q-.639-5.18 0-11" style="opacity:1"/><path fill="#48697f" d="M189.5 30.5q-1.461 2.377-4.5 3a3.65 3.65 0 0 0-1.5-1 168 168 0 0 0-7.5 2 2.43 2.43 0 0 1-.5-2q.814-.09 1-1-3.716-2.07 0-3 1.083-.626 1.5-2 1.515 4.421 5.5 2 2.51 2.38 6 2" style="opacity:1"/><path fill="#789aa4" d="M10.5 26.5q1.713 3.708 6 3-2.177 1.203-5 1.5-1.255 1.517-1 3.5a54 54 0 0 1-6-2q2.243.033 5-1a9.1 9.1 0 0 0 1-5" style="opacity:1"/><path fill="#9deee6" d="M199.5 26.5v7a22.8 22.8 0 0 1-4 5q2.396-3.385-2-4l1-2v-1q3.04-2.04 5-5" style="opacity:1"/><path fill="#8bf4ee" d="M155.5 36.5q-.09.814-1 1-3.12-1.245-6-3-2.891 2.69-7 3a32.5 32.5 0 0 1 .5-8q.294-2.68 2.5-4 3.369 5.875 10 7-.401 2.398 1 4" style="opacity:1"/><path fill="#73949f" d="M194.5 31.5v1a1093 1093 0 0 0-23 4l2-5q1.487-.258 2 1a2.43 2.43 0 0 0 .5 2 168 168 0 0 1 7.5-2q.879.315 1.5 1 3.039-.623 4.5-3 2.874 2.424 4.5-1 .696.891.5 2" style="opacity:1"/><path fill="#6e8f9d" d="M158.5 32.5q2.551.699 4.5 0 3.17 3.35 7.5 4a36.6 36.6 0 0 0-7 4 31 31 0 0 0-2-2q.11-2.29-2-3a5.73 5.73 0 0 1-1-3" style="opacity:1"/><path fill="#6bb6bf" d="M69.5 17.5q-.165.925-1 1.5 2.032 1.94 4 .5 2.855 3.094 7 4a3.65 3.65 0 0 1-1 1.5 168 168 0 0 0 6 11.5q-.627 1.083-2 1.5l1 1a73 73 0 0 1-5 9.5q-1.94 1.185-3.5 3l-1-2q-3.735 1.08-7.5 2 .156-3.305 2-6a5.58 5.58 0 0 1 3 1q1.329-1.238 1-3 4.815-7.032 1.5-15-1.035-1.857-1.5 0h-5q-1.401-1.602-1-4a4.93 4.93 0 0 0 3-.5q-3.567-1.461 1-2a32.5 32.5 0 0 0-7-3l3-1a18.4 18.4 0 0 0-6-.5h-3q5.295-1.094 11-2 .43 1.05 1 2" style="opacity:1"/><path fill="#5eecee" d="M193.5 34.5q4.396.615 2 4h-1q-4.503 1.18-11 0-3.172.801-5.5 3-4.272-1.135-7 3a166 166 0 0 0-8.5-1 73 73 0 0 1 6.5-4 4.94 4.94 0 0 0 2.5 1 59.2 59.2 0 0 1 22-6" style="opacity:1"/><path fill="#457086" d="M126.5 39.5a4.93 4.93 0 0 0 .5 3q1.112-1.71 2.5 0a12.4 12.4 0 0 1 2.5 4q7.06-2.385-.5-3.5 3.61-.386 5-3.5l1 8q2.549-.24 5 .5 1.455 2.52 3 4.5v2q-.925-.165-1.5-1-3.589 5.429-9.5 4.5 1.701 1.524-1 2a57.4 57.4 0 0 0-9 .5q-2.294-.044-3.5-2a7.5 7.5 0 0 0-.5-5q-.36 2.006-1.5 5a36.2 36.2 0 0 1-2.5-11q1.257-.513 1-2 2.585-1.96 5.5 0a43 43 0 0 0 1.5-5z" style="opacity:1"/><path fill="#d6f8ed" d="m194.5 32.5-1 2a59.2 59.2 0 0 0-22 6 4.94 4.94 0 0 1-2.5-1 73 73 0 0 0-6.5 4q-1.426-2.128-1-5a31 31 0 0 1 2 2 36.6 36.6 0 0 1 7-4h1a1093 1093 0 0 1 23-4" style="opacity:1"/><path fill="#61a2ae" d="M42.5 31.5q2.311 1.587 3 4.5-1.945 3.086-1.5 6.5l1-3a24 24 0 0 0 2.5 6q-1.905 2.413-3 5.5-7.277.262-14 1.5a154.5 154.5 0 0 0-31-5v-1q4.536-.67 1-2.5 3.032-.602 4-3.5 6.451.178 6-6 1.356 1.064 1 3h5q-2.177 1.203-5 1.5-1.255 1.517-1 3.5-4.88-2.654-7 2.5 3.516 1.936 7 1.5 6.566 1.48 12.5 0l2 2q1-2 2 0l1-2q7.315 1.154 16 1-1.533-4.713-1.5-10h-4q.356-1.936-1-3-.657.098-1-.5 2.019-4.276 6-2.5" style="opacity:1"/><path fill="#4b7f91" d="M37.5 34.5q1.356 1.064 1 3h4q-.033 5.287 1.5 10-8.685.154-16-1l-1 2q-1-2-2 0l-2-2q-5.934 1.48-12.5 0 1.357-1.803 0-4a14.2 14.2 0 0 0 4 3q1.82-.37 2-2 1.438.68 2.5 2 5.912-1.65 11 0a106 106 0 0 0 6.5-2.5q-.825-2.098-1-4a9.17 9.17 0 0 0 2-4.5" style="opacity:1"/><path fill="#6fa8b2" d="M124.5 40.5a43 43 0 0 1-1.5 5q-2.915-1.96-5.5 0-1.029-2.022-3-3.5.834-.575 1-1.5a10.1 10.1 0 0 1 1.5-4l1 2q2.034-1.32 4.5-1a8.4 8.4 0 0 0 .5 4q.575-.834 1.5-1" style="opacity:1"/><path fill="#2bb8de" d="M160.5 43.5q-3.452-2.04-5 2-2.318 1.428-5 1 .322 2.519-2 3a6.54 6.54 0 0 1-3-3q4.895-.261 5-5 4.75-.984 9-1 1.329 1.238 1 3" style="opacity:1"/><path fill="#4f8796" d="M107.5-.5h5q-1.144 1.152-3 1.5 1.41 2.858 1 6.5-4.617 7.983 2 15.5-.588 1.515-2 1.5a4.45 4.45 0 0 0 2 1.5 3.94 3.94 0 0 0-1 2q1.975 2.42 5 3.5-4.6 1.46-3 5.5-5.617 3.744 2 3.5-.166.925-1 1.5 1.971 1.478 3 3.5.257 1.487-1 2-1.282 6.865-1.5 16-1.527 1.81-1.5-1 1.28-2.855 0-6-6.507.183-1 1v4h-3q.356-1.936-1-3-.106-3.96-3-6.5.105-1.148 1-1.5 1.453 1.215 2.5 3a13 13 0 0 1 4.5-4q-1.604-.21-3.5 0 .428-3.31.5-6.5l-1.5-1.5-1 7a4.93 4.93 0 0 1-.5-3h-4l2-8q1.983-.255 3.5 1 3-6.5 0-13-4.379 4.073-7.5-1-2.182-2.715.5-5 1.547 2.882 4.5 0-2.038-2.709 1-4.5-2-2.5 0-5l-2-1q2.519-3.847 2-8.5z" style="opacity:1"/><path fill="#678d9b" d="M146.5 18.5q-1.796 4.323-6 6.5.797 4.82 0 10a30.1 30.1 0 0 0 1.5 9.5 76 76 0 0 0 6.5 8h-3q-1.545-1.98-3-4.5a12.9 12.9 0 0 0-5-.5l-1-8a447 447 0 0 0 2-17 31 31 0 0 1 3.5-3l1 1q.8-3.658 3.5-2" style="opacity:1"/><path fill="#365777" d="M10.5 42.5q1.357 2.197 0 4-3.484.436-7-1.5 2.12-5.154 7-2.5" style="opacity:1"/><path fill="#24a0d6" d="M188.5 45.5a41 41 0 0 1-7 5 2.43 2.43 0 0 0-.5-2q-1.5 2-3 0l-1 2q-3.087-.915-2.5-3-4.442 1.024-1 2.5a2.43 2.43 0 0 1-2 .5q-1.657-1.65-4-2 3.768-3.345 8.5-2 2.19-2.884 5-2l6-4q1.904 2.107 1.5 5" style="opacity:1"/><path fill="#32cfe8" d="m194.5 38.5-4 6-2 1q.404-2.893-1.5-5l-6 4q-2.81-.884-5 2-4.732-1.345-8.5 2a68 68 0 0 1-7-2l2-3q4.237.388 8.5 1 2.728-4.135 7-3 2.328-2.199 5.5-3 6.497 1.18 11 0" style="opacity:1"/><path fill="#518d9c" d="M68.5 45.5q-1.844 2.695-2 6-8.707 1.464-15-4.5 2.338-.315 4-1.5a63 63 0 0 1 6.5-7 63 63 0 0 1 6.5 7" style="opacity:1"/><path fill="#dbf5e7" d="M146.5 18.5h1q1.341 4.569.5 9 4.576 3.913 10.5 5a5.73 5.73 0 0 0 1 3q-2.276-.015-3.5-2a4.93 4.93 0 0 0-.5 3q-1.401-1.602-1-4-6.631-1.125-10-7-2.206 1.32-2.5 4a32.5 32.5 0 0 0-.5 8q.288 5.403 4 9a6.54 6.54 0 0 0 3 3q1.65 1.657 2 4a10.1 10.1 0 0 1-1.5 6l-9.5 9.5a20.1 20.1 0 0 1-6 1.5q1.577-1.083 2-3 2.282.47 5-1.5 5.98-4.714 9-11.5-.064-1.374-1-2a76 76 0 0 1-6.5-8 30.1 30.1 0 0 1-1.5-9.5q.797-5.18 0-10 4.204-2.177 6-6.5" style="opacity:1"/><path fill="#206ab6" d="M160.5 43.5a41 41 0 0 0-4.5 6q-2.176 2.946-5.5 4-.35-2.343-2-4 2.322-.481 2-3 2.682.428 5-1 1.548-4.04 5-2" style="opacity:1"/><path fill="#2288ca" d="M160.5 46.5a68 68 0 0 0 7 2q2.343.35 4 2 1.445 1.295 0 2-3.573-.575-7.5 0-2.514-3.99-5 0-1.006-1.128-2.5-1a797 797 0 0 0 4-5" style="opacity:1"/><path fill="#cce9e2" d="M190.5 44.5q-2.683 3.926-7 6.5a178 178 0 0 1-22 8.5 5.73 5.73 0 0 1 1-3q9.47-1.65 19-6a41 41 0 0 0 7-5z" style="opacity:1"/><path fill="#3a5f92" d="M-.5 48.5h1a59.6 59.6 0 0 1 10 4l-11-2z" style="opacity:1"/><path fill="#70e5e8" d="M.5 48.5q9.066.394 17 4h-7a59.6 59.6 0 0 0-10-4" style="opacity:1"/><path fill="#2c2f4b" d="M199.5 40.5v32q-1.095 4.617-3.5 9-.417-1.373-1.5-2a80 80 0 0 0 2-11h-3q.837 11.311-8 18a4.93 4.93 0 0 1-3-.5 38.5 38.5 0 0 0 5-5.5 27.2 27.2 0 0 1 3-10.5q-.343-.598-1-.5-.933-7.868-7-14v-3q4.78-.81 7.5 3l1.5-1a10.3 10.3 0 0 1-1-3q4.26-5.61 6.5-11 1.155 1.647 2.5 0" style="opacity:1"/><path fill="#5bdbe6" d="M159.5 35.5q2.11.71 2 3-.426 2.872 1 5l-2 3a797 797 0 0 1-4 5 40.8 40.8 0 0 1-6 8.5l1 1a81 81 0 0 0-5 5.5 216 216 0 0 1-11.5 8 12.9 12.9 0 0 0-.5 5q-.513 1.257-2 1 .197-1.314-1-2-2.254.828-5 0 .329 1.762-1 3-1.816-1.16 0-2.5-3.203-.952-6 1 1.007 1.48 0 3.5h-2q1.205-1.385.5-3a7.3 7.3 0 0 0-2 3l-1-3a15.3 15.3 0 0 1-4.5 1.5q1.26 2.5-1.5.5-3.532 1.788-5.5 5-1 0-1 1-1.083-1.577-3-2-2.872-.426-5 1-1.083-1.577-3-2-.538-2.977-2.5-2a9.5 9.5 0 0 0-2.5-1.5q.342-.598 1-.5a142 142 0 0 1 15-1v-3q1.494-.128 2.5 1a26.4 26.4 0 0 0 4.5-4q1.94.987 4.5 1 3.816.246 6.5-2 6.083 1.829 12-1 1.197-.686 1-2a20.1 20.1 0 0 0 6-1.5l9.5-9.5a10.1 10.1 0 0 0 1.5-6q3.324-1.054 5.5-4a41 41 0 0 1 4.5-6q.329-1.762-1-3-4.25.016-9 1-.105 4.739-5 5-3.712-3.597-4-9 4.109-.31 7-3 2.88 1.755 6 3 .91-.186 1-1a4.93 4.93 0 0 1 .5-3q1.224 1.985 3.5 2" style="opacity:1"/><path fill="#235299" d="M181.5 50.5q-9.53 4.35-19 6-3.838-.165-7 2a32.4 32.4 0 0 0-4 10h-3v6h-5q-.201 2.687 1 5-1 0-1 1-2.682-.428-5 1-4.61 3.154-8 9 .016-2.276 2-3.5-5.894-.022-9 6.5a19.6 19.6 0 0 1-4-3.5q2.462-1.694 3-4.5 1 0 1-1a53.5 53.5 0 0 0 9-4q1.487.257 2-1 2.193-1.33 5.5-3a120 120 0 0 1 6.5-10 81 81 0 0 1 5-5.5l-1-1a40.8 40.8 0 0 0 6-8.5q1.494-.128 2.5 1 2.486-3.99 5 0 3.927-.575 7.5 0 1.445-.705 0-2a2.43 2.43 0 0 0 2-.5q-3.442-1.476 1-2.5-.587 2.085 2.5 3l1-2q1.5 2 3 0 .696.891.5 2" style="opacity:1"/><path fill="#60c9de" d="M-.5 51.5v-1l11 2q3.015 2.347 7 3a34.4 34.4 0 0 1 11 8q-2.197-1.358-4 0-2.249-4.548-7-4.5 2.461 1.694 3 4.5-3.97-3.465-8-7-1.07 2.902-3 1-.96-1.473-2-3a44.3 44.3 0 0 1-8-3" style="opacity:1"/><path fill="#1a2652" d="M10.5 52.5h3a9.8 9.8 0 0 1 4 3q-3.985-.653-7-3" style="opacity:1"/><path fill="#62aab5" d="M76.5 52.5q.775 2.66 1 5 1.647 1.345 0 2.5a19.95 19.95 0 0 1 8 2.5q1.426-1.239 3-.5a14.4 14.4 0 0 1 2.5 5.5 106 106 0 0 1 0-9q.086-3.615 3.5-4-4.323 5.882 1.5 2 3.37 2.482 7 1 .926 1.424-.5 2.5 5.011 2.292 0 6-3.96 1.258-7-1.5l-1 1a186 186 0 0 1 2 3q-.975 1.659-1 3-1.98-2.655-4.5-1l-5-4q-2.109 1.752-3.5-1-3.69 1.21-7-1.5a7.3 7.3 0 0 0-3-2l1-1q-2.483-2.166-2-5.5a19 19 0 0 0 5-3" style="opacity:1"/><path fill="#8cdfde" d="M47.5 45.5q3.747 4.847 6 9.5-3.282-.34-7 1a11.5 11.5 0 0 1 4.5 3.5q1.722-1.437 3 1 3.28.783 7 0 1.064 2.21 3.5 2a19.9 19.9 0 0 1 5.5-1l1 3q3.03-1.104 4.5 2.5 5.27 1.246 9.5 4.5h5q.476 2.7 2 1 1.492.85 2.5 2a79.7 79.7 0 0 1-25-5.5q-3.864-1.173-6-4.5l-2 1a623 623 0 0 0-31-13q6.723-1.238 14-1.5 1.095-3.087 3-5.5" style="opacity:1"/><path fill="#69c4ce" d="M51.5 45.5h4q-1.662 1.185-4 1.5 6.293 5.964 15 4.5 3.765-.92 7.5-2l1 2a14.7 14.7 0 0 1 3.5-3q-.35 2.343-2 4a19 19 0 0 1-5 3q-1.152 1.144-1.5 3l-1-2q-1.574 1.526-3.5.5l1-1a25.25 25.25 0 0 0-10 0 55 55 0 0 0 7 2q-.045 2.145 1 4.5-2.436.21-3.5-2-3.72.783-7 0-1.278-2.437-3-1a11.5 11.5 0 0 0-4.5-3.5q3.718-1.34 7-1-2.253-4.653-6-9.5 1.083-.626 1.5-2 1.063 1.32 2.5 2" style="opacity:1"/><path fill="#64a5af" d="M106.5 50.5q-.895.352-1 1.5 2.894 2.54 3 6.5a12 12 0 0 0 1 6 14.8 14.8 0 0 1-4 3.5q6.135 1.431 11.5-1.5 2.98 1.094 6-1 4.815-.392 9 1a19.7 19.7 0 0 0 5.5-5 18.9 18.9 0 0 0 8-3.5q1.936-1.937 0-3.5v-2h3q.936.626 1 2-3.02 6.786-9 11.5-2.718 1.97-5 1.5-.925-.165-1.5-1-7.404 4.022-15.5 2a42 42 0 0 0-6 2q-5.369-.276-10 2-.255-1.983 1-3.5-3.491 1.206-7-.5a186 186 0 0 0-2-3l1-1q3.04 2.758 7 1.5 5.011-3.708 0-6 1.426-1.076.5-2.5-3.63 1.482-7-1-5.823 3.882-1.5-2 3.726-6.164 9.5-2a10.3 10.3 0 0 1 1.5-4q1.197.686 1 2" style="opacity:1"/><path fill="#7bdde1" d="M182.5 55.5q-.291 5.257-3 1 .907-2.972 3-1" style="opacity:1"/><path fill="#3586b4" d="M190.5 56.5h3q-.839 7.71-3 0" style="opacity:1"/><path fill="#3c5d8a" d="M-.5 51.5a44.3 44.3 0 0 0 8 3q1.04 1.527 2 3-.658-.098-1 .5 3.435 2.666 5 6.5-1.437-.68-2.5-2l-1 2q-3.268-2.01-1.5 1a2.43 2.43 0 0 0-2 .5 46.4 46.4 0 0 0 6.5 9.5l1-1a8.9 8.9 0 0 0 3 4l1-2q3.75 5.75 9.5 9.5l-2 1a41 41 0 0 1 6 4.5q-1.358 1.803 0 4 0 1-1 1-7.377-11.382-18-20a22.2 22.2 0 0 0-7-6 9.1 9.1 0 0 0-1-5 30 30 0 0 1-5-5z" style="opacity:1"/><path fill="#22578f" d="M17.5 55.5q5.408.448 10 3.5a41 41 0 0 0 9 6q1.985 1.224 2 3.5.098.658-.5 1-2.456-3.35-6.5-4l-3-2a34.4 34.4 0 0 0-11-8" style="opacity:1"/><path fill="#ebfbeb" d="M-.5 48.5v-1a154.5 154.5 0 0 1 31 5 623 623 0 0 1 31 13l2-1q2.136 3.327 6 4.5a79.7 79.7 0 0 0 25 5.5q9.606 1.083 18-3 5.418-1.517 11-.5-1.794.981 0 1.5 4.981-1.14 10-2 .197 1.314-1 2-5.917 2.829-12 1-5.57-2.122-11 1a26.4 26.4 0 0 1-4.5 4q-1.006-1.128-2.5-1-3.395-1.575-8 0a593 593 0 0 1-20.5-5q-.598.342-.5 1-4.642-4.137-10.5-3a268 268 0 0 0-16-9 3.94 3.94 0 0 0-2 1q-2.289-4.617-7.5-5.5-8.724-3.665-18-4.5h-2q-7.934-3.606-17-4z" style="opacity:1"/><path fill="#2c3f6a" d="M162.5 56.5a5.73 5.73 0 0 0-1 3 10.1 10.1 0 0 0-4 1.5l1 1q-2.553 3.352-3 7.5l-2 2q-2.11-.71-2-3 1.15-5.305 4-10 3.162-2.165 7-2" style="opacity:1"/><path fill="#243a7f" d="M20.5 63.5q1.8 3.615 5 6 .015 2.276 2 3.5-2.143.869-4-.5-.278-2.544-2.5-4-.705 1.615.5 3a2.43 2.43 0 0 1-.5 2 101 101 0 0 0-7.5-9q-1.565-3.834-5-6.5.342-.598 1-.5 1.93 1.902 3-1 4.03 3.535 8 7" style="opacity:1"/><path fill="#4279b6" d="M24.5 63.5v1q-.165.925-1 1.5 1.985 1.224 2 3.5a16.6 16.6 0 0 1-5-6q-.539-2.806-3-4.5 4.751-.048 7 4.5" style="opacity:1"/><path fill="#92c4c5" d="M-.5 60.5a30 30 0 0 0 5 5 9.1 9.1 0 0 1 1 5l-6-7z" style="opacity:1"/><path fill="#272a54" d="M13.5 64.5q.305 2.317 2 4-1.828-.586-2.5 2-1.575-3.177-4.5-5-1.768-3.01 1.5-1l1-2q1.063 1.32 2.5 2" style="opacity:1"/><path fill="#3f86aa" d="M193.5 61.5q1.79.705 2 3l-1 3q-2.048-3.081-1-6" style="opacity:1"/><path fill="#56a2c6" d="m28.5 63.5 3 2q1.95 1.651 1.5 4-1.256-2.26-3.5-1.5 2.26 1.256 1.5 3.5a24.1 24.1 0 0 0-6.5-7v-1q1.803-1.358 4 0" style="opacity:1"/><path fill="#54909e" d="M116.5 47.5a36.2 36.2 0 0 0 2.5 11q1.14-2.994 1.5-5a7.5 7.5 0 0 1 .5 5q1.206 1.956 3.5 2a57.4 57.4 0 0 1 9-.5q2.701-.476 1-2 5.911.928 9.5-4.5.575.835 1.5 1 1.936 1.563 0 3.5a18.9 18.9 0 0 1-8 3.5 19.7 19.7 0 0 1-5.5 5q-4.185-1.392-9-1-3.02 2.094-6 1-5.365 2.931-11.5 1.5a14.8 14.8 0 0 0 4-3.5 12 12 0 0 1-1-6q1.356 1.064 1 3h3v-4q-5.507-.817 1-1 1.28 3.145 0 6-.027 2.81 1.5 1 .218-9.135 1.5-16" style="opacity:1"/><path fill="#658c9f" d="M15.5 62.5q3.384 1.592 3.5 5-2.703-1.934-3.5-5" style="opacity:1"/><path fill="#31bce0" d="M13.5 52.5h6a107 107 0 0 1 12 7.5 32.6 32.6 0 0 0 10 4 361 361 0 0 1 12 8.5 43.7 43.7 0 0 0-9-1 2.43 2.43 0 0 0 2-.5q-4.658-1.265-8-2.5-.015-2.276-2-3.5a41 41 0 0 1-9-6q-4.592-3.052-10-3.5a9.8 9.8 0 0 0-4-3" style="opacity:1"/><path fill="#99cccb" d="M135.5 67.5q-.423 1.917-2 3-5.019.86-10 2-1.794-.519 0-1.5-5.582-1.017-11 .5v-1a42 42 0 0 1 6-2q8.096 2.022 15.5-2 .575.835 1.5 1" style="opacity:1"/><path fill="#77efee" d="M19.5 52.5q9.276.835 18 4.5 5.211.883 7.5 5.5a3.94 3.94 0 0 1 2-1 268 268 0 0 1 16 9q5.858-1.137 10.5 3 1.854 3.492 6 3.5-1.373.417-2 1.5a49.4 49.4 0 0 1-11-1 65 65 0 0 0-13-5 361 361 0 0 0-12-8.5 32.6 32.6 0 0 1-10-4 107 107 0 0 0-12-7.5" style="opacity:1"/><path fill="#708d9a" d="m23.5 72.5-2-1q-1.205-1.385-.5-3 2.222 1.456 2.5 4" style="opacity:1"/><path fill="#243b77" d="M24.5 64.5a24.1 24.1 0 0 1 6.5 7q.76-2.244-1.5-3.5 2.244-.76 3.5 1.5.45-2.349-1.5-4 4.044.65 6.5 4 .598-.342.5-1 3.342 1.235 8 2.5a2.43 2.43 0 0 1-2 .5q-2 1 0 2 2.34 2.445-1 3.5 2.797 1.952 6 1-4.365-1.047-2-4.5a10.2 10.2 0 0 1 3 3q3.528 8.979 13 8-3.84-.453-7 1-4.094-2.605-8-3-.165-.925-1-1.5-7.8.682-12.5-5.5l-1 4q-1.575-3.177-4.5-5-.936-3.38-4-5-.015-2.276-2-3.5.835-.575 1-1.5" style="opacity:1"/><path fill="#68bbc5" d="M71.5 55.5q-.483 3.334 2 5.5l-1 1a7.3 7.3 0 0 1 3 2q3.31 2.71 7 1.5 1.391 2.752 3.5 1l5 4q2.52-1.655 4.5 1 .025-1.341 1-3 3.509 1.706 7 .5-1.255 1.517-1 3.5 4.631-2.276 10-2v1q-8.394 4.083-18 3-1.008-1.15-2.5-2-1.524 1.7-2-1h-5q-4.23-3.254-9.5-4.5-1.47-3.604-4.5-2.5l-1-3a19.9 19.9 0 0 0-5.5 1q-1.045-2.355-1-4.5a55 55 0 0 1-7-2 25.25 25.25 0 0 1 10 0l-1 1q1.926 1.026 3.5-.5l1 2q.348-1.856 1.5-3" style="opacity:1"/><path fill="#437891" d="m-.5 63.5 6 7v2q-.166.925-1 1.5 4.446 4.07 3 9.5-.465 1.857-1.5 0A11.4 11.4 0 0 0 4.5 80l1-1q-3.268-.663-2-3a109 109 0 0 1-4-9.5z" style="opacity:1"/><path fill="#2aa2d3" d="M146.5 66.5a120 120 0 0 0-6.5 10q-3.307 1.67-5.5 3-.24-2.55.5-5a216 216 0 0 0 11.5-8" style="opacity:1"/><path fill="#344764" d="M179.5 56.5q2.709 4.257 3-1 6.067 6.132 7 14-2.127 6.344-6 12l.5 1q1.224-1.985 3.5-2a38.5 38.5 0 0 1-5 5.5q1.422.725 3 .5-2.993 3.21-7.5 4 .524-5.814-2.5 0-11.677 3.503-20.5-5-1-1 0-2 1.5 2 3 0 2.783 3.564 6.5 2l1-2q-.606-1.884-2-3.5.765-2.74 2.5-.5l1-3q2.005 1.898 4.5 1.5a7.3 7.3 0 0 0-3-2 20.2 20.2 0 0 1 6-4 4.93 4.93 0 0 0-3-.5q-.32-2.466 1-4.5l-3-1 6-3-4-2a34.5 34.5 0 0 1 6-5.5q1.025.544 2 1" style="opacity:1"/><path fill="#b2dad7" d="M155.5 69.5a21 21 0 0 1-2 7q1.663 2.198-1.5 3-2.373 6.59-7.5 11l2-5q-.11-2.29 2-3 1.856-2.198 3-5a31.7 31.7 0 0 0 2-6z" style="opacity:1"/><path fill="#3380b5" d="M120.5 73.5q-2.684 2.246-6.5 2-2.56-.013-4.5-1 5.43-3.122 11-1" style="opacity:1"/><path fill="#4f768b" d="M199.5 33.5v7q-1.345 1.647-2.5 0-2.24 5.39-6.5 11 .27 1.581 1 3l-1.5 1q-2.72-3.81-7.5-3v3q-2.093-1.972-3 1a44 44 0 0 1-2-1 34.5 34.5 0 0 0-6 5.5l4 2-6 3 3 1q-1.32 2.034-1 4.5a4.93 4.93 0 0 1 3 .5 20.2 20.2 0 0 0-6 4 7.3 7.3 0 0 1 3 2q-2.495.398-4.5-1.5l-1 3q-1.735-2.24-2.5.5 1.394 1.616 2 3.5-6.07-.052-8-6 1.143-.615 3-.5a78 78 0 0 1-4-8q1.953-5.163 5-9.5a178 178 0 0 0 22-8.5q4.317-2.574 7-6.5l4-6h1a22.8 22.8 0 0 0 4-5" style="opacity:1"/><path fill="#376187" d="M-.5 66.5q1.72 4.71 4 9.5-1.268 2.337 2 3l-1 1A11.4 11.4 0 0 1 6 83.5q1.035 1.857 1.5 0 .975.456 2 1a25.9 25.9 0 0 1 1 10q-1.163 8.295-2.5 17l-1-17-1 14-1-18q-1.215 9.873.5 19.5l-1 .5a74 74 0 0 1-1.5-12l-1 14q.125-5.717-2.5-10z" style="opacity:1"/><path fill="#5e95aa" d="M34.5 70.5a46 46 0 0 1 6 5.5q-4.539-.778-6-5.5" style="opacity:1"/><path fill="#1f2758" d="M151.5 68.5q-.11 2.29 2 3a31.7 31.7 0 0 1-2 6q-3.087 2.15-7 2-1.201-2.313-1-5h5v-6z" style="opacity:1"/><path fill="#7ba3b1" d="M44.5 73.5h3q-2.365 3.453 2 4.5-3.203.952-6-1 3.34-1.055 1-3.5" style="opacity:1"/><path fill="#a5f6ed" d="M102.5 77.5v3a142 142 0 0 0-15 1 65.5 65.5 0 0 0-10-3q.627-1.083 2-1.5-4.146-.008-6-3.5-.098-.658.5-1a593 593 0 0 0 20.5 5q4.605-1.575 8 0" style="opacity:1"/><path fill="#569aab" d="M5.5 72.5a79 79 0 0 1 6.5 8q2.025 6.945 5.5 13-1.226 3.703-1.5 8a18.4 18.4 0 0 1-.5-6q-.424-1.184-1.5-2l-1 9-1-14a217 217 0 0 1-1.5 21v-15a25.9 25.9 0 0 0-1-10 44 44 0 0 0-2-1q1.446-5.43-3-9.5.834-.575 1-1.5" style="opacity:1"/><path fill="#2c9dd1" d="M44.5 71.5q4.56.034 9 1a65 65 0 0 1 13 5q.915 1.337 1 3-2.276.015-3.5 2a6.98 6.98 0 0 0-3.5-2.5l1-1a42 42 0 0 0-8 0 20.5 20.5 0 0 0-2.5-4.5 2.43 2.43 0 0 0-.5 2 10.2 10.2 0 0 0-3-3h-3q-2-1 0-2" style="opacity:1"/><path fill="#3ac4e2" d="M66.5 77.5a49.4 49.4 0 0 0 11 1 65.5 65.5 0 0 1 10 3q-.658-.098-1 .5 1.374.561 2.5 1.5 1.962-.977 2.5 2v1q-4.314.438-8 0l-1.5-3q-1.59-.369-3.5 0a4.45 4.45 0 0 1-1.5-2q-2.586 4.845-6 1a2.43 2.43 0 0 0-.5 2l-3-4a5.73 5.73 0 0 0-1-3" style="opacity:1"/><path fill="#3d698f" d="M151.5 77.5q-1.144 2.802-3 5-.18-1.63-2-2-1.972.981-3 0 0-1 1-1 3.913.15 7-2" style="opacity:1"/><path fill="#2667ad" d="m67.5 80.5 3 4q-3.282 1.685-7 0-9.472.979-13-8a2.43 2.43 0 0 1 .5-2 20.5 20.5 0 0 1 2.5 4.5 42 42 0 0 1 8 0l-1 1a6.98 6.98 0 0 1 3.5 2.5q1.224-1.985 3.5-2" style="opacity:1"/><path fill="#3e9fca" d="M132.5 80.5a53.5 53.5 0 0 1-9 4q-1.355-3.18-4-1 1.007-2.02 0-3.5 2.797-1.952 6-1-1.816 1.34 0 2.5 1.329-1.238 1-3 2.746.828 5 0 1.197.686 1 2" style="opacity:1"/><path fill="#313f5c" d="M13.5 64.5q3.954 4.215 7.5 9a2.43 2.43 0 0 0 .5-2l2 1q1.857 1.369 4 .5-1.985-1.224-2-3.5 3.064 1.62 4 5a4.93 4.93 0 0 0-3 .5q2.667 3.333.5 6.5l-5-5q1.854 4.914 6.5 8.5 1 1 2 0-1.794-.981 0-1.5l5 4q3.958-.954 7 2.5 1.875 1.11 3-.5a115 115 0 0 1 13 6q-.626 1.083-2 1.5 3.143.834.5 1.5-3.993-.418-2.5-3.5l-3-1.5-1 2a36.2 36.2 0 0 0-7-4l-1 2q-3.118-3.909-6 0-1.495-.128-2.5 1a82 82 0 0 0-2.5-3 41 41 0 0 0-6-4.5l2-1q-5.75-3.75-9.5-9.5l-1 2a8.9 8.9 0 0 1-3-4l-1 1A46.4 46.4 0 0 1 6.5 66a2.43 2.43 0 0 1 2-.5q2.925 1.823 4.5 5 .672-2.586 2.5-2-1.695-1.683-2-4" style="opacity:1"/><path fill="#3692c3" d="M83.5 86.5q0 1-1 1-11.849.792-24-2h-2q3.16-1.453 7-1 3.718 1.685 7 0a2.43 2.43 0 0 1 .5-2q3.414 3.845 6-1a4.45 4.45 0 0 0 1.5 2q1.91-.369 3.5 0z" style="opacity:1"/><path fill="#75a6b1" d="M12.5 76.5q10.623 8.618 18 20h-2q-2.468-4.468-7-7a89 89 0 0 0-9-13" style="opacity:1"/><path fill="#2ca2d4" d="m117.5 83.5-2 2q-1.487-.257-2 1h-8v3q-1.5-.5-2-2 1.968-3.212 5.5-5 2.76 2 1.5-.5a15.3 15.3 0 0 0 4.5-1.5l1 3a7.3 7.3 0 0 1 2-3q.705 1.615-.5 3" style="opacity:1"/><path fill="#3374ab" d="m146.5 85.5-2 5a25.6 25.6 0 0 0-6 6 407 407 0 0 0-8 4q-.166-.925-1-1.5a10.9 10.9 0 0 0 5-4.5 36.2 36.2 0 0 0 8.5-5q1.03-5.207-3-1-1.032-1.248.5-2 2.916-2.594 6-1" style="opacity:1"/><path fill="#c3e8e0" d="M5.5 70.5a22.2 22.2 0 0 1 7 6 89 89 0 0 1 9 13q4.532 2.532 7 7a91 91 0 0 1-9.5-7q.533 2.19-.5 4h-1q-3.475-6.055-5.5-13a79 79 0 0 0-6.5-8z" style="opacity:1"/><path fill="#2b304e" d="M29.5 74.5q2.925 1.823 4.5 5l1-4q4.7 6.182 12.5 5.5.835.575 1 1.5a2.43 2.43 0 0 0-2 .5l6 4-3 1q1.794.981 0 1.5l-4-2q-1.445.704 0 2-1.125 1.61-3 .5-3.042-3.454-7-2.5l-5-4q-1.794.519 0 1.5-1 1-2 0-4.646-3.586-6.5-8.5l5 5q2.167-3.167-.5-6.5a4.93 4.93 0 0 1 3-.5" style="opacity:1"/><path fill="#257bbe" d="M123.5 84.5q0 1-1 1-2.826.318-4 3-2.032-1.032-3-3l2-2h2q2.645-2.18 4 1" style="opacity:1"/><path fill="#1f4289" d="M58.5 85.5q12.151 2.792 24 2-2.377.753-1.5 3 1.517-1.255 3.5-1a4.93 4.93 0 0 0 .5 3q1.47-4.783 4-1 .513-3.18 2.5-1v2q-5.034-.514-6 3-1.98-2.655-4.5-1a8.9 8.9 0 0 1-3-4q-1.676-.354-3.5 0-6.318-.633-12 2a416 416 0 0 1-4-7" style="opacity:1"/><path fill="#1d6bb6" d="M83.5 86.5q3.686.438 8 0v4q-1.987-2.18-2.5 1-2.53-3.783-4 1a4.93 4.93 0 0 1-.5-3q-1.983-.255-3.5 1-.877-2.247 1.5-3 1 0 1-1" style="opacity:1"/><path fill="#2b2b46" d="M199.5 78.5v62q-3.105.125-1 3-1.245 3.493-2.5 7a4.93 4.93 0 0 1-.5-3h-3q.925-9.147-2-17 .525-3.189 0-7 3.71-.354 5-4a47 47 0 0 1-4-7.5l2-3a62 62 0 0 1-5-5.5q-1.87-2.313 0-4.5a8.9 8.9 0 0 0-4-3q9.97-6.715 15-17.5" style="opacity:1"/><path fill="#cbe9e6" d="M113.5 86.5q.513-1.257 2-1 .968 1.968 3 3 1.174-2.682 4-3-.538 2.807-3 4.5a19.6 19.6 0 0 0 4 3.5q-.09.814-1 1a15 15 0 0 1-3.5-3q-5.496 8.023-1.5-1-1.532-2.532-4-4" style="opacity:1"/><path fill="#c9e9e7" d="M91.5 85.5q1.917.423 3 2 3.262 5.835 5-1 1.917.423 3 2 1.662 12.743-2.5 1-3 8-6 0a20.2 20.2 0 0 1-1.5 6q-1.329-1.238-1-3v-7" style="opacity:1"/><path fill="#1e81c7" d="M99.5 86.5q-1.738 6.835-5 1 2.128-1.426 5-1" style="opacity:1"/><path fill="#202451" d="M143.5 80.5q1.028.981 3 0 1.82.37 2 2-2.11.71-2 3-3.084-1.594-6 1-1.532.752-.5 2 4.03-4.207 3 1a36.2 36.2 0 0 1-8.5 5 10.9 10.9 0 0 1-5 4.5q.834.575 1 1.5h-1a63.2 63.2 0 0 1-16 7q-2.81.027-1-1.5-4.213-3.084-4 2.5h-3q-.679-1.437-2-2.5l1-1a55 55 0 0 1-7-3 8.4 8.4 0 0 1 4-.5h1q4.507 1.712 9.5 0 1.989.383 3 2 .75-1.75 2.5-2.5-1.128-1.006-1-2.5 1.938-4.755 5-1 4.055-1.593 4.5-6l1 4q.386-3.61 3.5-5 3.39-5.846 8-9 2.318-1.428 5-1" style="opacity:1"/><path fill="#1f1938" d="M48.5 82.5q3.906.395 8 3h2a416 416 0 0 0 4 7q5.682-2.633 12-2l-5 2q-1.487-.257-2 1-3.444.456-1 3-.658-.098-1 .5 1.116 1.559 3 1.5.513 1.257 2 1 1.5 2.5 4 4l2 7a4.93 4.93 0 0 1-3-.5q1.7-1.524-1-2l2-1q-5.035 1.184-10-1l3-1q-.678-2.418-4-3 3.737-.939 0-2.5a3.65 3.65 0 0 1 1-1.5 24 24 0 0 1-6-2.5 115 115 0 0 0-13-6q-1.445-1.296 0-2l4 2q1.794-.519 0-1.5l3-1-6-4a2.43 2.43 0 0 1 2-.5" style="opacity:1"/><path fill="#bbdbde" d="M112.5 86.5q-1.634 2.425-5 2.5 9.867 1.328 0 3.5l6 2q-8.442 3.8-8-5v-3z" style="opacity:1"/><path fill="#17347e" d="M67.5 93.5q2.818-.16 1 1.5 2.985 2.76 0 3.5-.5-1.5-2-2-2.444-2.544 1-3" style="opacity:1"/><path fill="#457c99" d="M156.5 89.5q-1.15 1.008-2 2.5 8.448 6.238 19 5.5v-3q2.818-1.262 6-1a4.93 4.93 0 0 0 .5 3q6.34-1.646.5 1-1.954 4.282 0 9 3.306 1.458 4 5h-5a81 81 0 0 1 3-2.5q-3.522-.52-5.5-3.5-1.517 1.255-3.5 1v5a64 64 0 0 1-11-2.5 130 130 0 0 0 11-3.5 9.86 9.86 0 0 0-1-6q-8.805-.762-16.5-5-.21 2.633 1.5 5-1.431 7.43-9 7v-1q1.663-1.185 4-1.5a23 23 0 0 1-5-2 19 19 0 0 0 5-3q-2.316-.434-4-2 2.886-.27 5-.5-9.86-1.707 0-2.5-3.895-.422-7-.5l3-4q.879.315 1.5 1 2.008-5.398 5.5-1" style="opacity:1"/><path fill="#286db4" d="M67.5 93.5q.513-1.257 2-1 7.839-1.552 12 5l-4-1q-2.148-3.22-5.5-1 .087 2.903 2.5 5 .098.658-.5 1-1.224-1.985-3.5-2-1.487.257-2-1 2.985-.74 0-3.5 1.818-1.66-1-1.5" style="opacity:1"/><path fill="#182c6f" d="M112.5 86.5h1q2.468 1.468 4 4-3.996 9.023 1.5 1a15 15 0 0 0 3.5 3q.91-.186 1-1 3.106-6.522 9-6.5-1.984 1.224-2 3.5-3.114 1.39-3.5 5l-1-4q-.445 4.407-4.5 6-3.062-3.755-5 1-.925-.165-1.5-1-1.423 5.817-3.5 0a6.8 6.8 0 0 0-1.5 3 6.54 6.54 0 0 0-3-3q-.466 1.864 1.5 3a9.86 9.86 0 0 1-6 1h-1q.404-2.893-1.5-5a14.8 14.8 0 0 1-3.5 4q-1.816-1.16 0-2.5-5.475-2.253-11-.5-1.195.686-1 2-2.29.11-3-2-4.161-6.552-12-5l5-2q1.824-.354 3.5 0a8.9 8.9 0 0 0 3 4q2.52-1.655 4.5 1 .966-3.514 6-3-.329 1.762 1 3a20.2 20.2 0 0 0 1.5-6q3 8 6 0 4.162 11.743 2.5-1 0-1 1-1 .5 1.5 2 2-.442 8.8 8 5l-6-2q9.867-2.172 0-3.5 3.366-.075 5-2.5" style="opacity:1"/><path fill="#31405d" d="M156.5 89.5q7.452 5.815 17 5v3q-10.552.738-19-5.5.85-1.492 2-2.5" style="opacity:1"/><path fill="#82a3ac" d="M66.5 96.5q1.5.5 2 2-1.884.059-3-1.5.342-.598 1-.5" style="opacity:1"/><path fill="#2d3654" d="M199.5 72.5v6q-5.03 10.785-15 17.5a8.9 8.9 0 0 1 4 3q-1.87 2.187 0 4.5a62 62 0 0 0 5 5.5l-2 3a47 47 0 0 0 4 7.5q-1.29 3.646-5 4 .525 3.811 0 7h-3q1.35-3.896-2-7 4.192-.657 7-3v-2q-.29-3.618-4-3-.106-3.786 3-6-1.783-1.393-4-1-1.28-4.294-5-7a3.65 3.65 0 0 1 1-1.5q-2.163-.565-3-2.5 5.84-2.646-.5-1a4.93 4.93 0 0 1-.5-3q9.389-4.886 15-14 1.083.627 1.5 2 2.405-4.383 3.5-9" style="opacity:1"/><path fill="#212443" d="M58.5 95.5a24 24 0 0 0 6 2.5q-.685.621-1 1.5 3.737 1.561 0 2.5 3.322.582 4 3l-3 1q4.965 2.184 10 1l-2 1q2.7.476 1 2a4.93 4.93 0 0 0 3 .5h1v2q-3.018.77-6 .5l2-1a21.4 21.4 0 0 0-5 0l1-1q-4.567-.539-1-2-4.89.258-8-1l1-1a23 23 0 0 1-5-2l6-3q-2.316-1.78-5-1l2 1-7 3.5a183 183 0 0 1-16-8.5q1.007-1.48 0-3.5 2.882-3.909 6 0l1-2a36.2 36.2 0 0 1 7 4l1-2 3 1.5q-1.493 3.082 2.5 3.5 2.643-.666-.5-1.5 1.374-.417 2-1.5" style="opacity:1"/><path fill="#252e58" d="M101.5 101.5a8.4 8.4 0 0 0-4 .5 55 55 0 0 0 7 3l-1 1q1.321 1.063 2 2.5-3.49.38-6-2-.91.186-1 1a73.3 73.3 0 0 0-14-8q-.195-1.314 1-2 5.525-1.753 11 .5-1.816 1.34 0 2.5a14.8 14.8 0 0 0 3.5-4q1.904 2.107 1.5 5" style="opacity:1"/><path fill="#d7f5ef" d="M144.5 90.5a407 407 0 0 1-3 6q-1.467.467-2 2 1.712 1.388 0 2.5-3.043 1.021-6 1a38.5 38.5 0 0 0 5-5.5 25.6 25.6 0 0 1 6-6" style="opacity:1"/><path fill="#5c9cad" d="M161.5 59.5q-3.047 4.337-5 9.5a78 78 0 0 0 4 8q-1.857-.115-3 .5 1.93 5.948 8 6l-1 2q-3.717 1.564-6.5-2-1.5 2-3 0-1 1 0 2 8.823 8.503 20.5 5 3.024-5.814 2.5 0 4.507-.79 7.5-4 8.837-6.689 8-18h3a80 80 0 0 1-2 11q-5.612 9.114-15 14-3.182-.262-6 1-9.548.815-17-5-3.492-4.398-5.5 1a3.65 3.65 0 0 0-1.5-1l-3 4q3.105.078 7 .5-9.86.793 0 2.5-2.114.23-5 .5 1.684 1.566 4 2a19 19 0 0 1-5 3 23 23 0 0 0 5 2q-2.337.315-4 1.5a11.74 11.74 0 0 1-5-3 2.43 2.43 0 0 1 .5-2q.981 1.794 1.5 0a125 125 0 0 0-4-4 407 407 0 0 0 3-6q5.127-4.41 7.5-11 3.163-.802 1.5-3a21 21 0 0 0 2-7q.447-4.148 3-7.5l-1-1a10.1 10.1 0 0 1 4-1.5" style="opacity:1"/><path fill="#487b93" d="M164.5 85.5q6.864.492 14 .5a22.7 22.7 0 0 1-7.5 3.5 29.5 29.5 0 0 0-6.5-1z" style="opacity:1"/><path fill="#507f91" d="M189.5 69.5q.657-.098 1 .5a27.2 27.2 0 0 0-3 10.5q-2.276.015-3.5 2l-.5-1q3.873-5.656 6-12" style="opacity:1"/><path fill="#c3f6ed" d="m77.5 96.5 4 1q.71 2.11 3 2a73.3 73.3 0 0 1 14 8q1.942 1.482 4 3l1 2q-5.82-4.284-13-6-1.812-1.1-4-1 .128-1.494-1-2.5a73 73 0 0 0-10-5.5q.686-1.195 2-1" style="opacity:1"/><path fill="#466f88" d="M17.5 93.5h1q2.605 3.762 2.5 9l1-5q2.523 2.047.5 4.5 1.13 2.23 2.5.5.743 2.96.5 6-6.81-.253-1 2a16 16 0 0 0-2 5v2q-1.222 3.422-4 6a43.3 43.3 0 0 0-2 9h-1q.008-6.431 1.5-13 1.003 3.792 2.5 0-2.75-2.202-1-5 2.676 1.26 3-2.5l-1-1.5q-2.995 1.871-6 2.5a8.9 8.9 0 0 1 4-3 20.4 20.4 0 0 1-1.5-5.5 14.7 14.7 0 0 1-1.5 5q-1.968-7.227 0-14a18.4 18.4 0 0 0 .5 6q.274-4.297 1.5-8" style="opacity:1"/><path fill="#4d88a4" d="M40.5 103.5q-5.827-1.144-7-7-.098-.658.5-1a88 88 0 0 1 6.5 8" style="opacity:1"/><path fill="#2e456d" d="M116.5 98.5q-.128 1.494 1 2.5-1.75.75-2.5 2.5-1.011-1.617-3-2-4.993 1.712-9.5 0a9.86 9.86 0 0 0 6-1q-1.966-1.136-1.5-3a6.54 6.54 0 0 1 3 3 6.8 6.8 0 0 1 1.5-3q2.077 5.817 3.5 0 .575.835 1.5 1" style="opacity:1"/><path fill="#6ebbc9" d="M138.5 96.5a38.5 38.5 0 0 1-5 5.5q2.957.021 6-1 1.712-1.112 0-2.5.533-1.533 2-2a125 125 0 0 1 4 4q-.519 1.794-1.5 0a2.43 2.43 0 0 0-.5 2q-2.21 1.762-5 3l2 2-1 1q-6.552-2.775-10 3 0-3-3-3-1.698-1.281-4 0a81 81 0 0 0 5.5-5l1 1a8.4 8.4 0 0 0 .5-4h1a407 407 0 0 1 8-4" style="opacity:1"/><path fill="#b0dbd9" d="m31.5 95.5 2 1q1.173 5.856 7 7l1 2h-1a5.73 5.73 0 0 0-3-1q-.09-.814-1-1-3.63 2.694-5 7a14.76 14.76 0 0 0-5 4l-4 3v-2q3.981-2.94 5-8 4.135-1.88 7-5.5-3.744-1.996-6-5.5h2q1 0 1-1" style="opacity:1"/><path fill="#39d9ea" d="M77.5 96.5q-1.314-.195-2 1a73 73 0 0 1 10 5.5q1.128 1.006 1 2.5a16.9 16.9 0 0 1-8-1q.9-4.114-4-4-2.413-2.097-2.5-5 3.352-2.22 5.5 1" style="opacity:1"/><path fill="#39516c" d="M173.5 111.5q.25 14.508-.5 29-1-2-2 0-1.435-4.318 1.5-7.5a4.93 4.93 0 0 0-3-.5h-4q-2.64 1.881-1-16-2.188-.1-4 1l-2-4q.123-4.005-3.5 0l-1-2-5 7q-1.566-1.684-2-4l-1 2q-2.034-1.32-4.5-1a94 94 0 0 1 5.5-6l1 1q2.001-2.067.5-4 7.569.43 9-7-1.71-2.367-1.5-5 7.695 4.238 16.5 5a9.86 9.86 0 0 1 1 6 130 130 0 0 1-11 3.5 64 64 0 0 0 11 2.5" style="opacity:1"/><path fill="#2d456f" d="M31.5 91.5q1.222 1.395 2.5 3 1.005-1.128 2.5-1 1.007 2.02 0 3.5a183 183 0 0 0 16 8.5l7-3.5-2-1q2.684-.78 5 1l-6 3a23 23 0 0 0 5 2l-1 1q3.11 1.258 8 1-3.567 1.461 1 2l-1 1a21.4 21.4 0 0 1 5 0l-2 1q2.982.27 6-.5l3 2v1q-4.39 1.098-9-.5-8.017-2.503-16-5-.802-3.163-3-1.5-1.794-.519 0-1.5-2.24-2.052-4.5-.5-.486-3.103-2.5-1a16.1 16.1 0 0 0-5-2 88 88 0 0 0-6.5-8q-.598.342-.5 1l-2-1q-1.358-2.197 0-4" style="opacity:1"/><path fill="#6295a2" d="M28.5 96.5q2.256 3.504 6 5.5-2.865 3.62-7 5.5-1.019 5.06-5 8a16 16 0 0 1 2-5q-5.81-2.253 1-2a18.4 18.4 0 0 0-.5-6q-1.37 1.73-2.5-.5 2.023-2.453-.5-4.5l-1 5q.105-5.238-2.5-9 1.033-1.81.5-4a91 91 0 0 0 9.5 7" style="opacity:1"/><path fill="#bbd7d2" d="M74.5 103.5q2.922 2.73 3 7h-1z" style="opacity:1"/><path fill="#2e416b" d="M129.5 100.5a8.4 8.4 0 0 1-.5 4l-1-1a81 81 0 0 1-5.5 5h-1a31.6 31.6 0 0 0-9.5 3 137 137 0 0 0-7.5-.5q-1.133-2.07-2-.5a309 309 0 0 1-4-3q.09-.814 1-1 2.51 2.38 6 2h3q-.213-5.584 4-2.5-1.81 1.527 1 1.5a63.2 63.2 0 0 0 16-7" style="opacity:1"/><path fill="#3f647d" d="M143.5 102.5a11.74 11.74 0 0 0 5 3v1q1.501 1.933-.5 4l-1-1a94 94 0 0 0-5.5 6q-3.232-1.579-1 2a7.3 7.3 0 0 1-2 3q-4.395-2.517-3 1.5-.389 1.892-2 3 .582 2.288 0 5 4.671 2.254 9-1.5l1 .5q-2.25 1.25-3.5 3.5-1.61-1.17-3.5.5 3.898 1.153 7.5-.5 2.268 5.803 6.5 3a6.8 6.8 0 0 1 1.5 3q.417-1.373 1.5-2v5a44 44 0 0 0-2 3q-.962-2.24-3-3a219 219 0 0 1-23-15.5l2-1a16.7 16.7 0 0 1-4-4q3.827-2.274-1-2.5a4.93 4.93 0 0 1-.5 3q-1.256-2.776-2.5-5.5 1.926-1.026 3.5.5 2.767-2.775 6-1 2.001-2.067.5-4 3.448-5.775 10-3l1-1-2-2q2.79-1.238 5-3" style="opacity:1"/><path fill="#182563" d="M37.5 104.5a5.73 5.73 0 0 1 3 1q-1.892 2.979 1 5.5-3.264.244-5.5 2.5-3.298-5.283 1.5-9" style="opacity:1"/><path fill="#d2ede2" d="M41.5 105.5a148.3 148.3 0 0 0 26 10.5q7.567 1.44 15 2-1.32-1.062-2-2.5v-1l2 1 3 4v2q-20.397-2.976-39-12-1.816 1.16 0 2.5-4.596 2.93-5 8.5h-3a120 120 0 0 1-5 4q2.47-4.965 7-8 1.352-1.185 2-3 .989-2.457 2-5-1.905-1.182-3-3" style="opacity:1"/><path fill="#39bbdf" d="M70.5 99.5q2.276.015 3.5 2 .598-.342.5-1 4.9-.114 4 4a16.9 16.9 0 0 0 8 1q2.188-.1 4 1a907 907 0 0 1 4.5 7q6.567-1.755.5 2a16.1 16.1 0 0 1-5-2 4.45 4.45 0 0 0-1.5 2q-3.81-7.068-11.5-9v-4q-1.936-.356-3 1-2.5-1.5-4-4" style="opacity:1"/><path fill="#99e6e4" d="M179.5 111.5q-1.5.5-2 2l-4-2v-5q1.983.255 3.5-1 1.978 2.98 5.5 3.5a81 81 0 0 0-3 2.5" style="opacity:1"/><path fill="#aecbc9" d="M77.5 110.5q2.643 1.144 3 4l-3-2z" style="opacity:1"/><path fill="#384e68" d="M158.5 113.5a51 51 0 0 1-2.5 4 4.46 4.46 0 0 0-1.5-2 22.5 22.5 0 0 1-4 3q5.74.783 0 4.5l1 .5 6-5q1.059 3.399-.5 7a41.5 41.5 0 0 0-9 6 26.6 26.6 0 0 1-3.5-2q2.439-2.235 5-4.5-2.244-.76-3.5 1.5-2.68-1.265-5.5-.5-.643-3.622 2-7a14 14 0 0 1-1-3.5q2.466-.32 4.5 1l1-2q.434 2.316 2 4l5-7 1 2q3.623-4.005 3.5 0" style="opacity:1"/><path fill="#324363" d="M180.5 97.5q.837 1.935 3 2.5a3.65 3.65 0 0 0-1 1.5q3.72 2.706 5 7 2.217-.393 4 1-3.106 2.214-3 6 3.71-.618 4 3-2.05-2.029-3 1 1.237 1.329 3 1-2.808 2.343-7 3 3.35 3.104 2 7v16q-3.12-2.727-4-7 1.793-2.2 0-4.5a9.3 9.3 0 0 1 2-2.5 7.3 7.3 0 0 1-2-3.5q.183-7.584 0-15 2.248-1.257 1-2.5-.694-3.542-4-5-1.954-4.718 0-9" style="opacity:1"/><path fill="#3a5874" d="M15.5 95.5q-1.968 6.773 0 14a14.7 14.7 0 0 0 1.5-5 20.4 20.4 0 0 0 1.5 5.5 8.9 8.9 0 0 0-4 3q3.005-.629 6-2.5l1 1.5q-.324 3.76-3 2.5-1.75 2.798 1 5-1.497 3.792-2.5 0-1.492 6.569-1.5 13-.945 3.604-3 7 .186.91 1 1 .129 1.494-1 2.5-2.91 1.114-5.5-.5.069 4.7-3 8-2.19-3.723-4.5 0v-9q9.535.185 8.5-10-.634 2.184-2.5 1.5-.175-1.903-1-4 2.446-1.638 5-2.5 2.375-4.9-1-9l3-2a12 12 0 0 1-1-6 217 217 0 0 0 1.5-21l1 14 1-9q1.076.816 1.5 2" style="opacity:1"/><path fill="#214b93" d="M37.5 104.5q-4.798 3.717-1.5 9 2.236-2.256 5.5-2.5-2.892-2.521-1-5.5h1q1.095 1.818 3 3-1.011 2.543-2 5-1.495-.128-2.5 1l-1-2a28.8 28.8 0 0 1-6 4q-3.918-2.305-1.5-6 1.37-4.306 5-7 .91.186 1 1" style="opacity:1"/><path fill="#5b8ca2" d="M121.5 108.5q-6.708 6.066-16 5l-2-1-1-2q.867-1.57 2 .5 3.947.16 7.5.5a31.6 31.6 0 0 1 9.5-3" style="opacity:1"/><path fill="#4685a6" d="M40.5 103.5a16.1 16.1 0 0 1 5 2q2.014-2.103 2.5 1 2.26-1.552 4.5.5-1.794.981 0 1.5 2.198-1.663 3 1.5 7.983 2.497 16 5 4.61 1.598 9 .5.68 1.438 2 2.5a134 134 0 0 1-15-2 148.3 148.3 0 0 1-26-10.5z" style="opacity:1"/><path fill="#1d5ba8" d="M74.5 103.5q1.064-1.356 3-1v4q7.69 1.932 11.5 9a4.45 4.45 0 0 1 1.5-2 16.1 16.1 0 0 0 5 2 26.7 26.7 0 0 1 5 7 8.4 8.4 0 0 1-4-.5q1.656-1.697-1-2.5a3.65 3.65 0 0 0-1.5 1q-.294-2.679-2.5-4a35 35 0 0 0-4.5 1 9.6 9.6 0 0 0-3-3q-1.148.105-1.5 1l-2-1q-.357-2.856-3-4-.078-4.27-3-7" style="opacity:1"/><path fill="#208acc" d="M31.5 110.5q-2.418 3.695 1.5 6a28.8 28.8 0 0 0 6-4l1 2q1.005-1.128 2.5-1-.648 1.815-2 3l-6 1.5q-4.725 4.39-9.5 6.5-1.753-.763-2.5-2.5 3.244-3.113 4-7.5a14.76 14.76 0 0 1 5-4" style="opacity:1"/><path fill="#87b2b6" d="M125.5 109.5q-6.894 3.894-11 11 1.821 2.353 5 2.5 2.305 1.665 2 4.5-3.663.571-2-2-2.318-1.428-5-1-2 0-2-2a97 97 0 0 1 0-7 115 115 0 0 1 13-6" style="opacity:1"/><path fill="#c0e1d8" d="M126.5 108.5q-1 0-1 1a115 115 0 0 0-13 6 97 97 0 0 0 0 7 24.2 24.2 0 0 1-7-9q9.292 1.066 16-5h1q2.302-1.281 4 0" style="opacity:1"/><path fill="#4a7e90" d="M67.5 127.5q-1.767 2.757 1 5 .165.925 1 1.5-3.021 2.694-6.5 1.5a887 887 0 0 1-29.5 8.5q-.834.575-1 1.5a146 146 0 0 0-22 6q-1.82-.37-2-2 6.27-.14 11-4 3.176 1.548 6.5 0 11.835-6.896 26-12 2.934.426 6.5 0 .639-2.458 0-4 .634-3.422-2-5a20.7 20.7 0 0 1-1-5q-2.436-.21-3.5 2-1.559-1.116-1.5-3-.128-2.243 2-3 5.24 1.81 9.5 5 4.314-1.334 7.5 2.5l-2 1q1.776 1.718 0 3.5" style="opacity:1"/><path fill="#3b5772" d="m158.5 113.5 2 4v2q.25 11.011-.5 22a72.4 72.4 0 0 1-.5-12h-3q.43 2.666 2 5-.064 1.374-1 2h-4q-1.083.627-1.5 2a6.8 6.8 0 0 0-1.5-3q-4.232 2.803-6.5-3-3.602 1.653-7.5.5 1.89-1.67 3.5-.5 1.25-2.25 3.5-3.5l-1-.5q-4.329 3.754-9 1.5.582-2.712 0-5 1.611-1.108 2-3-1.395-4.017 3-1.5a7.3 7.3 0 0 0 2-3q-2.232-3.579 1-2a14 14 0 0 0 1 3.5q-2.643 3.378-2 7 2.82-.765 5.5.5 1.256-2.26 3.5-1.5a377 377 0 0 0-5 4.5 26.6 26.6 0 0 0 3.5 2 41.5 41.5 0 0 1 9-6q1.559-3.601.5-7l-6 5-1-.5q5.74-3.717 0-4.5a22.5 22.5 0 0 0 4-3 4.46 4.46 0 0 1 1.5 2 51 51 0 0 0 2.5-4" style="opacity:1"/><path fill="#59e7ee" d="M192.5 118.5v2q-1.763.329-3-1 .95-3.029 3-1" style="opacity:1"/><path fill="#446b81" d="M50.5 118.5q-.059 1.884 1.5 3 1.064-2.21 3.5-2a20.7 20.7 0 0 0 1 5q-3.864.333-2.5 4 2.034 1.32 4.5 1 .639 1.542 0 4-3.566.426-6.5 0-14.165 5.104-26 12-3.324 1.548-6.5 0-4.73 3.86-11 4-2.867 3.303-7 5h-2v-4q2.31-3.723 4.5 0 3.069-3.3 3-8 2.59 1.614 5.5.5 1.129-1.006 1-2.5-.098-.657.5-1 1.236 6.247 6.5 2.5 4.95-3.41 7-9l-1-1a15.8 15.8 0 0 0 5.5-3.5l1 2q2.611-2.314 5.5-2.5a6.8 6.8 0 0 1-3-1.5l5-5q3.985-.37 7-3a4.45 4.45 0 0 1 1.5 2q.417-1.373 1.5-2" style="opacity:1"/><path fill="#179cd9" d="M109.5 127.5q-1.739-2.625-5-3l-3-2q4.134-3.174 7.5 2 1.734-2.24 2.5.5-1.514.532-2 2.5" style="opacity:1"/><path fill="#2e4266" d="M10.5 94.5v15a12 12 0 0 0 1 6l-3 2q3.375 4.1 1 9-2.554.862-5 2.5.825 2.097 1 4 1.866.684 2.5-1.5 1.035 10.185-8.5 10v-39q2.625 4.283 2.5 10l1-14a74 74 0 0 0 1.5 12l1-.5q-1.715-9.627-.5-19.5l1 18 1-14 1 17q1.337-8.705 2.5-17" style="opacity:1"/><path fill="#679fa9" d="M85.5 121.5q4.225.892 7 4v1q-2.95-.359-5.5 1-.466-1.863 1.5-3-3.96.286-8-2-2.025 3.352-4.5 4-1.73-2.995-4.5-1 .315.879 1 1.5a15.3 15.3 0 0 0-4.5 1.5q-.598-.343-.5-1 1.776-1.782 0-3.5l2-1q-3.186-3.834-7.5-2.5-4.26-3.19-9.5-5-2.128.757-2 3-1.083.627-1.5 2a4.45 4.45 0 0 0-1.5-2q-3.015 2.63-7 3-1.487.257-2-1h3q.404-5.57 5-8.5-1.816-1.34 0-2.5 18.603 9.024 39 12" style="opacity:1"/><path fill="#366891" d="M177.5 113.5q1.483 8.213 1 17-1.458-2.99-4-1v-15q1.937.356 3-1" style="opacity:1"/><path fill="#3b5d87" d="M85.5 119.5q3.208 2.915 7 2a240 240 0 0 1 3 6l-3-2q-2.775-3.108-7-4z" style="opacity:1"/><path fill="#2566ae" d="M104.5 124.5q3.261.375 5 3l3 2a28 28 0 0 1 1.5 4q1.112 1.712 2.5 0a31 31 0 0 0 2 2q2.235 2.67 6 2v3h-5q-1.657-1.65-4-2-.166-.925-1-1.5a18.5 18.5 0 0 0-6-.5l-1-2q9.44-1.197 1-6a17.5 17.5 0 0 1-6-3q.686-1.197 2-1" style="opacity:1"/><path fill="#30d3e8" d="M56.5 124.5q2.634 1.578 2 5-2.466.32-4.5-1-1.364-3.667 2.5-4" style="opacity:1"/><path fill="#4bd8e9" d="M90.5 106.5q7.18 1.716 13 6l2 1a24.2 24.2 0 0 0 7 9q0 2 2 2l1.5 3a371 371 0 0 1 14.5 13q-5.722 1.962-11 0h5v-3q-3.765.67-6-2 2.021.792 4 .5-2.853-3.543-6.5-3.5-1.45-1.767-1.5-4-1.025.544-2 1l-3-2q.486-1.968 2-2.5-.766-2.74-2.5-.5-3.366-5.174-7.5-2h-1a26.7 26.7 0 0 0-5-7q6.067-3.755-.5-2a907 907 0 0 0-4.5-7" style="opacity:1"/><path fill="#71e5e9" d="M26.5 114.5q-.756 4.387-4 7.5.747 1.737 2.5 2.5 4.775-2.11 9.5-6.5l6-1.5q-4.53 3.035-7 8-5.832 2.818-10 8a8543 8543 0 0 1-6.5 6 18.4 18.4 0 0 1-.5-6 43.3 43.3 0 0 1 2-9q2.778-2.578 4-6z" style="opacity:1"/><path fill="#cde7de" d="m92.5 125.5 3 2q-.128 1.494 1 2.5 6.596-.197 11 4.5l1 2q-.09.814-1 1a31 31 0 0 0-2-2q-3.637-4.893-10-4.5-.85-1.492-2-2.5l-1-2z" style="opacity:1"/><path fill="#afd4cf" d="M114.5 124.5q2.682-.428 5 1-1.663 2.571 2 2 1.272 2.39 4 3.5l-1 1 4 1q3.485 4.504 7 7.5-8.18 2.935-17 1.5a14.7 14.7 0 0 1-3-3.5q2.343.35 4 2 5.278 1.962 11 0a371 371 0 0 0-14.5-13z" style="opacity:1"/><path fill="#1a3f8b" d="M100.5 122.5h1l3 2q-1.314-.197-2 1a17.5 17.5 0 0 0 6 3q8.44 4.803-1 6-4.404-4.697-11-4.5-1.128-1.006-1-2.5a240 240 0 0 0-3-6q-3.792.915-7-2l-3-4q.352-.895 1.5-1a9.6 9.6 0 0 1 3 3 35 35 0 0 1 4.5-1q2.206 1.321 2.5 4a3.65 3.65 0 0 1 1.5-1q2.656.803 1 2.5a8.4 8.4 0 0 0 4 .5" style="opacity:1"/><path fill="#38c2da" d="M178.5 130.5v16q-2.461-.97-4-3 1.298-7.15 0-14 2.542-1.99 4 1" style="opacity:1"/><path fill="#4d8596" d="m92.5 126.5 1 2q-.255 1.983 1 3.5 2.825.324 5 2-.722 1.512-.5 3.5-5.84-3.506-12.5-1a7.3 7.3 0 0 1-3-2q-3.401 1.566-7 .5.247-1.676 1-3.5l-1.5-1a18.2 18.2 0 0 1-3.5 2q-2.22-1.398-4 0-2.767-2.243-1-5-.098.657.5 1a15.3 15.3 0 0 1 4.5-1.5 3.65 3.65 0 0 1-1-1.5q2.77-1.995 4.5 1 2.475-.648 4.5-4 4.04 2.286 8 2-1.966 1.137-1.5 3 2.55-1.359 5.5-1" style="opacity:1"/><path fill="#1baede" d="M118.5 135.5a31 31 0 0 1-2-2q-1.388 1.712-2.5 0a28 28 0 0 0-1.5-4q.975-.456 2-1 .05 2.233 1.5 4 3.647-.043 6.5 3.5-1.979.292-4-.5" style="opacity:1"/><path fill="#4d788b" d="M126.5 108.5q3 0 3 3 1.501 1.933-.5 4-3.233-1.775-6 1-1.574-1.526-3.5-.5 1.244 2.724 2.5 5.5a4.93 4.93 0 0 0 .5-3q4.827.226 1 2.5a16.7 16.7 0 0 0 4 4l-2 1a219 219 0 0 0 23 15.5h-3a8.4 8.4 0 0 1-.5 4q-5.331-1.625-9.5-5-3.515-2.996-7-7.5l-4-1 1-1q-2.728-1.11-4-3.5.305-2.835-2-4.5-3.179-.147-5-2.5 4.106-7.106 11-11 0-1 1-1" style="opacity:1"/><path fill="#638595" d="M38.5 120.5q.513 1.257 2 1l-5 5a6.8 6.8 0 0 0 3 1.5q-2.889.186-5.5 2.5l-1-2a15.8 15.8 0 0 1-5.5 3.5l1 1q-2.05 5.59-7 9-5.264 3.747-6.5-2.5-.598.343-.5 1-.814-.09-1-1 2.055-3.396 3-7-.003 14.581 7.5 2l1 1q.705-1.615-.5-3 4.168-5.182 10-8 2.48-1.876 5-4" style="opacity:1"/><path fill="#5694a1" d="M93.5 128.5q1.15 1.008 2 2.5 6.363-.393 10 4.5-.974 3.19-1 6h-2a59 59 0 0 1-12-4q-9.48.24-19 0a77 77 0 0 1-11 1.5 2371 2371 0 0 0-26.5 7.5q-.575-.834-1.5-1 .166-.925 1-1.5a887 887 0 0 0 29.5-8.5q3.479 1.194 6.5-1.5-.835-.575-1-1.5 1.78-1.398 4 0a18.2 18.2 0 0 0 3.5-2l1.5 1q-.753 1.824-1 3.5 3.599 1.066 7-.5a7.3 7.3 0 0 0 3 2q6.66-2.506 12.5 1-.222-1.988.5-3.5-2.175-1.676-5-2-1.255-1.517-1-3.5" style="opacity:1"/><path fill="#dcf4e4" d="M15.5 132.5h1a18.4 18.4 0 0 0 .5 6q3.37-3.108 6.5-6 1.205 1.385.5 3l-1-1q-7.503 12.581-7.5-2" style="opacity:1"/><path fill="#467790" d="M160.5 119.5q.975.456 2 1a133 133 0 0 1 1 23l-6 1v-8q.936-.626 1-2-1.57-2.334-2-5h3a72.4 72.4 0 0 0 .5 12q.75-10.989.5-22" style="opacity:1"/><path fill="#3c5770" d="M179.5 111.5h5q1.248 1.243-1 2.5.183 7.416 0 15a7.3 7.3 0 0 0 2 3.5 9.3 9.3 0 0 0-2 2.5q1.793 2.3 0 4.5.88 4.273 4 7v6q-2.835.305-4.5-2l-1 3-1-8-1 2a648 648 0 0 1-.5-36" style="opacity:1"/><path fill="#63a6b0" d="M105.5 135.5a31 31 0 0 1 2 2q.91-.186 1-1a18.5 18.5 0 0 1 6 .5q.834.575 1 1.5a14.7 14.7 0 0 0 3 3.5q8.82 1.435 17-1.5 4.169 3.375 9.5 5a8.4 8.4 0 0 0 .5-4h3q2.038.76 3 3a44 44 0 0 1 2-3v6q-.514 2.587-3 1.5-1.32-2.034-1-4.5h-3q.57 3.297-2 5h-2q-1.521-1.897-4.5-2a65 65 0 0 1-12-2l-1 1q-3.943-.642-7-3-5.013.688-10 1-2.593-.711-3.5-3 .026-2.81 1-6" style="opacity:1"/><path fill="#9ed2cf" d="M63.5 140.5q1.858 3.445 5.5 1a2921 2921 0 0 1 57.5 7 3177 3177 0 0 1-37-1.5q-10.112-.051-19.5-3.5-19.134 6.481-39.5 7 .68-1.437 2-2.5 12.88-.301 25-3.5 3.398-1.598 6-4" style="opacity:1"/><path fill="#72bec4" d="M102.5 141.5h2q.907 2.289 3.5 3 4.987-.312 10-1 3.057 2.358 7 3l1-1a65 65 0 0 0 12 2q2.979.103 4.5 2a97 97 0 0 1-16-1 2921 2921 0 0 0-57.5-7q-3.642 2.445-5.5-1a262 262 0 0 0 16.5-1q2.83.703 4.5 3 8.63-2.126 17 1 1.197-.686 1-2" style="opacity:1"/><path fill="#548a9d" d="m173.5 111.5 4 2q-1.063 1.356-3 1v15q1.298 6.85 0 14-2.426 13.54-5 0v-3h-3v-7q1.936.356 3-1a4.93 4.93 0 0 1 3 .5q-2.935 3.182-1.5 7.5 1-2 2 0 .75-14.492.5-29" style="opacity:1"/><path fill="#e8f8e4" d="M126.5 148.5a97 97 0 0 0 16 1h2q7.23 1.48 15 2 2.926.41 4.5-2 1.63 3.647 1.5-1a2.43 2.43 0 0 1 2 .5q-1.255 1.517-1 3.5 6.486.641 13 1 4.633 1.927 10 2-1.94.987-4.5 1a846 846 0 0 0-65.5-6 536 536 0 0 1-31 0q-5.04.808-10 2-3.162-2.174-5 1.5-2.823.297-5 1.5h-1q-.165-.925-1-1.5-5.04-.505-10-1.5-9.28 1.854-18.5 0-3.05-.22-5 2-3.216-3.245-7 0-1.95-.69-4-1a237 237 0 0 0-22.5 3v-2h2a253 253 0 0 1 29-4q20.366-.519 39.5-7 9.388 3.449 19.5 3.5 18.5.858 37 1.5" style="opacity:1"/><path fill="#65bbc7" d="M169.5 132.5q-1.064 1.356-3 1v7h3v3q-1.436 7.844-3.5 0a12.9 12.9 0 0 0-.5 5q.13 4.647-1.5 1-1.574 2.41-4.5 2 .16-2.818-1.5-1l-2.5-2.5q1.426-1.077.5-2.5-1.062 1.321-2.5 2v-11h4v8l6-1a133 133 0 0 0-1-23 44 44 0 0 0-2-1v-2q1.812-1.1 4-1-1.64 17.881 1 16z" style="opacity:1"/><path fill="#69aab3" d="M102.5 141.5q.197 1.314-1 2-8.37-3.126-17-1-1.67-2.297-4.5-3a262 262 0 0 1-16.5 1q-2.602 2.402-6 4-12.12 3.199-25 3.5-1.32 1.063-2 2.5a253 253 0 0 0-29 4q4.133-1.697 7-5 .18 1.63 2 2a146 146 0 0 1 22-6q.925.166 1.5 1a2371 2371 0 0 1 26.5-7.5 77 77 0 0 0 11-1.5q9.52.24 19 0a59 59 0 0 0 12 4" style="opacity:1"/><path fill="#374c68" d="M199.5 140.5v15q-3.5-2-7 0v-8h3a4.93 4.93 0 0 0 .5 3q1.255-3.507 2.5-7-2.105-2.875 1-3" style="opacity:1"/><path fill="#92ede8" d="M153.5 147.5q1.438-.679 2.5-2 .926 1.423-.5 2.5l2.5 2.5q1.66-1.818 1.5 1-7.77-.52-15-2 2.57-1.703 2-5h3q-.32 2.466 1 4.5 2.486 1.087 3-1.5" style="opacity:1"/><path fill="#53a7be" d="M179.5 111.5q-.25 18.007.5 36l1-2 1 8 1-3q1.665 2.305 4.5 2v-7q1.812 1.1 4 1v-15h-3q.469 5.313-1 10v-11h3q2.925 7.853 2 17v8h-3q-5.367-.073-10-2a51.6 51.6 0 0 0-1-7v-16q.483-8.787-1-17 .5-1.5 2-2" style="opacity:1"/><path fill="#366f9b" d="M187.5 145.5v-4q1.469-4.687 1-10h3v15q-2.188.1-4-1" style="opacity:1"/><path fill="#bff9ec" d="M119.5 150.5q0 1-1 1a255 255 0 0 0-38 3q-3.585-2.439-4 2a25 25 0 0 0-8-1q2.177-1.203 5-1.5 1.838-3.674 5-1.5 4.96-1.192 10-2 15.073.449 31 0" style="opacity:1"/><path fill="#90f4ed" d="M118.5 151.5q-.762 2.6-2.5 1a20.4 20.4 0 0 1-5.5 1.5q-1.007 1.48 0 3.5h-5q-2.308-1.351-5.5-4-1.512.722-3.5.5 1.17 1.61-.5 3.5-9.181-2.772-19.5-1 .415-4.439 4-2a255 255 0 0 1 38-3" style="opacity:1"/><path fill="#9ae1dd" d="M119.5 150.5a846 846 0 0 1 65.5 6q2.56-.013 4.5-1h3q3.5-2 7 0v4a77 77 0 0 1-10-1q-6.768-2.264-13.5 1-8.77-6.741-18-2-2.127-2.794-5.5-1.5 3.143.834.5 1.5-4.042-.65-9-1-4.299-.3-7.5 2h-2q-.762-2.6-2.5-1a2.43 2.43 0 0 1-.5-2q-.436-1.724-2.5-2a72 72 0 0 1-7.5 3 3.65 3.65 0 0 1-1.5-1 6.55 6.55 0 0 1-3 3q-3.062-1.384-6.5-1-1.007-2.02 0-3.5a20.4 20.4 0 0 0 5.5-1.5q1.738 1.6 2.5-1 1 0 1-1" style="opacity:1"/><path fill="#90e5e2" d="M169.5 143.5q2.574 13.54 5 0 1.539 2.03 4 3a51.6 51.6 0 0 1 1 7 300 300 0 0 1-13-1q-.255-1.983 1-3.5a2.43 2.43 0 0 0-2-.5 12.9 12.9 0 0 1 .5-5q2.064 7.844 3.5 0" style="opacity:1"/><path fill="#9fe3de" d="M67.5 155.5a53.8 53.8 0 0 1-11.5 1q-3.91-2.726-8.5-1.5 1.985 1.224 2 3.5a460 460 0 0 0-14.5-3q-4.763.669-9.5 1.5 3.217 1.114.5 2.5-2.82-2.269-6.5-2-3.24.014-4 2-7.98-2.42-16-1v-2a237 237 0 0 1 22.5-3q2.05.31 4 1 3.784-3.245 7 0 1.95-2.22 5-2 9.22 1.854 18.5 0 4.96.995 10 1.5.835.575 1 1.5" style="opacity:1"/><path fill="#73e4e6" d="M105.5 157.5q2.025 1.725-.5 2a25.2 25.2 0 0 0-5.5-1q-2.75.128-4 2-3.87.625-6.5-2a14.8 14.8 0 0 0-5.5 3l-1-2a39 39 0 0 1-7 1.5l5 1q-3.446 1.74 1 3-3.47 3.744-8 1.5-7.484 3.01-15 .5-1.884-.625-2-2.5 4.918 1.488 10 .5 8.26-4.348.5-6.5-6.085 2.354-11.5-1a19 19 0 0 1-6 1q-.015-2.276-2-3.5 4.59-1.226 8.5 1.5a53.8 53.8 0 0 0 11.5-1h1a25 25 0 0 1 8 1q10.319-1.772 19.5 1 1.67-1.89.5-3.5 1.988.222 3.5-.5 3.192 2.649 5.5 4" style="opacity:1"/><path fill="#67d1da" d="M49.5 158.5a19 19 0 0 0 6-1q5.415 3.354 11.5 1 7.76 2.152-.5 6.5-5.082.988-10-.5-6.45-.136-13 .5a43 43 0 0 0 6-5l-1.5-.5q-1.725 1.386-3 0-2.788 1.618-4.5 4-2.313-1.201-5-1a2.43 2.43 0 0 0-.5-2 7.25 7.25 0 0 1-2.5 2 133 133 0 0 0-13-2.5q1.647-1.155 0-2.5 3.68-.269 6.5 2 2.717-1.386-.5-2.5a282 282 0 0 1 9.5-1.5 460 460 0 0 1 14.5 3" style="opacity:1"/><path fill="#64ccd6" d="M131.5 155.5q-1.356 1.064-1 3-6.172-2.07-11.5 2l-1-1a35.9 35.9 0 0 1-10.5 3.5q2.844 1.597.5 2.5-3.083-1.788-6 0-3.836-2.534-8.5-3.5 1.373-.417 2-1.5 1.25-1.872 4-2 2.812.195 5.5 1 2.525-.275.5-2h5q3.438-.384 6.5 1a6.55 6.55 0 0 0 3-3q.621.686 1.5 1a72 72 0 0 0 7.5-3q2.064.276 2.5 2" style="opacity:1"/><path fill="#68bec9" d="M189.5 158.5a32.2 32.2 0 0 0-7.5 4l-1-2q-3.457.119-7.5.5 7.941 1.227 0 1.5a28 28 0 0 0-5 5 31 31 0 0 0-2-2q1.655-.747 3-1a19 19 0 0 1-5-3 6.55 6.55 0 0 0-3 3q1.817 1.83 0 3.5a4.46 4.46 0 0 1 2 1.5q-3.024 1.791-6 0 4.18-2.558-1-3.5a6.55 6.55 0 0 1 3-3q-3.359-4.46-8-1l2 1a18.5 18.5 0 0 1-6 .5v-1a2.43 2.43 0 0 0 2-.5q-2.66-3.127-6-1.5-3.793-.644-7-2 3.201-2.3 7.5-2 4.958.35 9 1 2.643-.666-.5-1.5 3.373-1.294 5.5 1.5 9.23-4.741 18 2 6.732-3.264 13.5-1" style="opacity:1"/><path fill="#64a8b5" d="M189.5 158.5q4.96.826 10 1v5q-3.587.524-6.5-1l-1 2-2-4q-1.43 3.138-4 1a26.6 26.6 0 0 0-3.5 2 176 176 0 0 0 17 3v1q-2.818 1.262-6 1a41.5 41.5 0 0 1-9-1q-2.295.21-3 2-1.442-2.647-1-6-3.261-.63-6 0-1.197-.686-1-2 7.941-.273 0-1.5 4.043-.381 7.5-.5l1 2a32.2 32.2 0 0 1 7.5-4" style="opacity:1"/><path fill="#50a2ba" d="M19.5 157.5q1.647 1.345 0 2.5 6.582.93 13 2.5a7.25 7.25 0 0 0 2.5-2q.696.891.5 2a28 28 0 0 0-1.5 4q-3.135-1.386-7.5-3-.91.186-1 1a14.8 14.8 0 0 0-6.5 2q-2.5-2-5 0l-.5-1a10.3 10.3 0 0 1 4-1.5q-7.96-1.938-16 .5.514-2.975-2-4v-2q8.02-1.42 16 1 .76-1.986 4-2" style="opacity:1"/><path fill="#57b4c6" d="M131.5 155.5a2.43 2.43 0 0 0 .5 2q1.738-1.6 2.5 1a43.5 43.5 0 0 1-8 3.5q1.73 1.37-.5 2.5a4.46 4.46 0 0 0-1.5-2 31.7 31.7 0 0 1-6 2q-1.083.627-1.5 2l-1-1a40.7 40.7 0 0 1-14.5 2.5q1.794-.981 0-1.5l-2 1q-1.794-.519 0-1.5-5.835-1.542-10 2.5-1.388-1.712-2.5 0-.582-1.392-2-2-3.867 2.278-8.5 2.5 1.605 1.278 3 2.5-7.987-1.892-16 0-2.186-2.267-5.5-3-6.96.32-14.5.5l3-1q-2.692-.385-6-2l2-1q-1.374-.417-2-1.5 1.712-2.382 4.5-4 1.275 1.386 3 0l1.5.5a43 43 0 0 1-6 5q6.55-.636 13-.5.116 1.875 2 2.5 7.517 2.51 15-.5 4.53 2.244 8-1.5-4.446-1.26-1-3l-5-1a39 39 0 0 0 7-1.5l1 2a14.8 14.8 0 0 1 5.5-3q2.63 2.625 6.5 2-.627 1.083-2 1.5 4.664.966 8.5 3.5 2.917-1.788 6 0 2.344-.903-.5-2.5a35.9 35.9 0 0 0 10.5-3.5l1 1q5.328-4.07 11.5-2-.356-1.936 1-3" style="opacity:1"/><path fill="#53a2ba" d="M134.5 158.5h2q3.207 1.356 7 2 3.34-1.627 6 1.5a2.43 2.43 0 0 1-2 .5q-5.585 1.148-11 .5l-16 7q2.788.901 1 2.5h-1q-2.177-1.203-5-1.5a15.4 15.4 0 0 1 6-3q-4-1 0-2-1.856-.348-3-1.5a31.7 31.7 0 0 0 6-2 4.46 4.46 0 0 1 1.5 2q2.23-1.13.5-2.5a43.5 43.5 0 0 0 8-3.5" style="opacity:1"/><path fill="#35638a" d="M199.5 164.5v3a176 176 0 0 1-17-3 26.6 26.6 0 0 1 3.5-2q2.57 2.138 4-1l2 4 1-2q2.913 1.524 6.5 1" style="opacity:1"/><path fill="#59a9bd" d="M157.5 169.5q-3.406.831-7-1.5l2-1-4.5-.5q-5.547.688-10.5 2.5a7.3 7.3 0 0 1 3-2q-2.701-.476-1-2a100 100 0 0 0 8-1.5 18.5 18.5 0 0 0 6-.5l-2-1q4.641-3.46 8 1a6.55 6.55 0 0 0-3 3q5.18.942 1 3.5" style="opacity:1"/><path fill="#2d4c76" d="M172.5 178.5q-12.997 1.192-5-7.5 2.337-.315 4-1.5a4.93 4.93 0 0 1 .5-3q3.134 3.005 7.5 3.5l-7 1a29.9 29.9 0 0 0 6 7 18.5 18.5 0 0 1-6 .5" style="opacity:1"/><path fill="#3d7ca1" d="M168.5 167.5q-3.663-.571-2 2a7.25 7.25 0 0 1-2 2.5q-2.822.297-5 1.5a29.2 29.2 0 0 1-9-1q.166-.925 1-1.5a30.5 30.5 0 0 0-9-1.5v3q-4.828.609-9 0 3.595-3.12-1.5-1-1.418-.608-2-2-1.377 2.814-4.5 3-2.192 1.779-4 0 1.788-1.599-1-2.5l16-7q5.415.648 11-.5v1a100 100 0 0 1-8 1.5q-1.701 1.524 1 2a7.3 7.3 0 0 0-3 2q4.953-1.812 10.5-2.5l4.5.5-2 1q3.594 2.331 7 1.5 2.976 1.791 6 0a4.46 4.46 0 0 0-2-1.5q1.817-1.67 0-3.5a6.55 6.55 0 0 1 3-3 19 19 0 0 0 5 3q-1.345.253-3 1a31 31 0 0 1 2 2" style="opacity:1"/><path fill="#4184a6" d="M35.5 162.5q2.687-.201 5 1 .626 1.083 2 1.5l-2 1q3.308 1.615 6 2l-3 1q7.54-.18 14.5-.5 3.314.733 5.5 3h-1a75.3 75.3 0 0 1-17 3q-6.088.1-12 .5 1.75-.75 2.5-2.5 4.315 1.995 8.5-.5a43 43 0 0 0-5-1.5q-4.989 1.452-10 1.5a135 135 0 0 1 7-2.5 34.3 34.3 0 0 0-8-1.5l1-1q-2.905-.183-4-2.5.09-.814 1-1 4.365 1.614 7.5 3 .615-2.101 1.5-4" style="opacity:1"/><path fill="#37658c" d="M173.5 162.5q-.197 1.314 1 2 2.739-.63 6 0-.442 3.353 1 6a127 127 0 0 0-2 9q-3.839.452-7-1a18.5 18.5 0 0 0 6-.5 29.9 29.9 0 0 1-6-7l7-1q-4.366-.495-7.5-3.5a4.93 4.93 0 0 0-.5 3q-1.815-.648-3-2a28 28 0 0 1 5-5" style="opacity:1"/><path fill="#517f95" d="M199.5 168.5v2h-5a73 73 0 0 1 1.5 12l-2.5-2.5q.536-5.428 0-10.5 3.182.262 6-1" style="opacity:1"/><path fill="#5ca8ba" d="M20.5 172.5q-3.675-.303-7 1a4.93 4.93 0 0 0-3 .5q1.935 4.538-2 1a41 41 0 0 0-9-.5v-4q5.05.065 10-1 6.233.166 11 3" style="opacity:1"/><path fill="#427fa0" d="M118.5 164.5q1.144 1.152 3 1.5-4 1 0 2a15.4 15.4 0 0 0-6 3q2.823.297 5 1.5-6.59-.065-1 1.5a29 29 0 0 0-4 1.5q-5.397-3.905-10 1-4.27.078-7 3-9.98-.42-20 2a135 135 0 0 1 22-6.5 7.3 7.3 0 0 1-3-2 181 181 0 0 1-16-1.5h-2a82 82 0 0 0-3-2.5q4.633-.222 8.5-2.5 1.418.608 2 2 1.112-1.712 2.5 0 4.165-4.042 10-2.5-1.794.981 0 1.5l2-1q1.794.519 0 1.5 7.456.075 14.5-2.5l1 1q.417-1.373 1.5-2" style="opacity:1"/><path fill="#314d71" d="M120.5 172.5h1q1.808 1.779 4 0 .072 4.188-4 5.5 6.445-1.141 13 .5v5q-10.062.999-20-2a35.8 35.8 0 0 0-9-5q4.603-4.905 10-1a29 29 0 0 1 4-1.5q-5.59-1.565 1-1.5" style="opacity:1"/><path fill="#386991" d="M-.5 160.5q2.514 1.025 2 4 8.04-2.438 16-.5a10.3 10.3 0 0 0-4 1.5l.5 1q2.5-2 5 0a14.8 14.8 0 0 1 6.5-2q1.095 2.317 4 2.5l-1 1a34.3 34.3 0 0 1 8 1.5 135 135 0 0 0-7 2.5q5.011-.048 10-1.5 2.545.599 5 1.5-4.185 2.495-8.5.5-.75 1.75-2.5 2.5 5.912-.4 12-.5a11.45 11.45 0 0 0-5 3q-6.825-2.461-13 1a28 28 0 0 0-5-1.5q3.322-.255 6-2-3.105-2.541-6.5-.5-1.545-.504-1.5-2-4.767-2.834-11-3-4.95 1.065-10 1z" style="opacity:1"/><path fill="#5caabd" d="M62.5 171.5q7.101 2.366 15 2.5a7.3 7.3 0 0 1 3 2q-5.77-1.695-11.5-1.5-2.502 1.48-3.5 3-7.845-1.363 0-3.5-4.142-1.616-5 2.5a31 31 0 0 1-2-2q-3.914 1.095-8 1.5a152 152 0 0 0 13 3.5q1.374-.064 2-1 3.352-.442 6 1-9.61.223.5 2a54.3 54.3 0 0 0 14.5-5.5 4.46 4.46 0 0 0-2-1.5q-1.182 1.905-3 3 .544-3.616-3-4.5 1.855-.348 3-1.5a181 181 0 0 0 16 1.5 7.3 7.3 0 0 0 3 2 135 135 0 0 0-22 6.5q-7.857 3.052-16 1-10.622-3.402-22-5a11.45 11.45 0 0 1 5-3 75.3 75.3 0 0 0 17-3" style="opacity:1"/><path fill="#376d96" d="M60.5 176.5q1.92 2.147 5 2-.626.936-2 1a152 152 0 0 1-13-3.5q4.086-.405 8-1.5a31 31 0 0 0 2 2" style="opacity:1"/><path fill="#83d6da" d="M79.5 171.5h2q-1.145 1.152-3 1.5 3.544.884 3 4.5-4.953 1.19-10 2-2.648-1.442-6-1-3.08.147-5-2 .858-4.116 5-2.5-7.845 2.137 0 3.5.998-1.52 3.5-3 5.73-.195 11.5 1.5a7.3 7.3 0 0 0-3-2q-7.899-.134-15-2.5h1q8.013-1.892 16 0" style="opacity:1"/><path fill="#2d4f7e" d="M150.5 172.5a29.2 29.2 0 0 0 9 1q5.514 2.718-.5 6-1 1 0 2 3.604-4.298 2.5.5a12.9 12.9 0 0 0 5 .5v2q-8.708-1.419-14 6-.895-.353-1-1.5 3.324-2.579 5-6.5-2.78-1.89-5.5 0a15 15 0 0 0-3.5-3q-1.329 1.237-1 3h-7q-.166-.925-1-1.5a18.5 18.5 0 0 1 6-.5q.093-6.102 6-8" style="opacity:1"/><path fill="#263a6b" d="M13.5 173.5v8q-3.739 1.91-8 2-8.013 3.122 1 5-1.357 2.197 0 4-1.824.354-3.5 0-2.23-1.13-.5-2.5l-3-1.5v-14a41 41 0 0 1 9 .5q3.935 3.538 2-1a4.93 4.93 0 0 1 3-.5" style="opacity:1"/><path fill="#62a9b9" d="M168.5 167.5q1.185 1.352 3 2-1.663 1.185-4 1.5-7.997 8.692 5 7.5 3.161 1.452 7 1h1q-1.737 2.175 1.5 3 .834-3.143 1.5-.5-1.386 1.725 0 3l-2 .5a981 981 0 0 1-6-5q-1.794.519 0 1.5-4.817 1.197-9-1.5-1.445.705 0 2a12.9 12.9 0 0 1-5-.5q1.104-4.798-2.5-.5-1-1 0-2 6.014-3.282.5-6 2.178-1.203 5-1.5a7.25 7.25 0 0 0 2-2.5q-1.663-2.571 2-2" style="opacity:1"/><path fill="#315e8f" d="M71.5 179.5q5.047-.81 10-2 1.818-1.095 3-3a4.46 4.46 0 0 1 2 1.5 54.3 54.3 0 0 1-14.5 5.5q-10.11-1.777-.5-2" style="opacity:1"/><path fill="#305078" d="M105.5 176.5a35.8 35.8 0 0 1 9 5q-4.387-.06-8 2.5 1.373.417 2 1.5-7.351 1.676-13 6.5 8.534-3.933 18-6.5v1a16.3 16.3 0 0 1-5 2q-4.226.451-2 4 7.682 4.961 17 5.5a4.93 4.93 0 0 1-3 .5 447 447 0 0 1-26-5q-1.911-1.034 0-2.5-2.377-.127-4-.5a240 240 0 0 1 6-3 16.6 16.6 0 0 1 4-2.5q-3.46-2.742 1-5a4.93 4.93 0 0 0-3-.5q2.73-2.922 7-3" style="opacity:1"/><path fill="#31537d" d="M20.5 172.5q-.045 1.496 1.5 2 3.395-2.041 6.5.5-2.678 1.745-6 2a28 28 0 0 1 5 1.5q6.175-3.461 13-1 11.378 1.598 22 5-5.313-.469-10 1-2.436-.21-3.5 2-3.399-2.184-7.5-2.5.685-.621 1-1.5-5.5-2-11 0a6.85 6.85 0 0 0-1 4q-2.975.514-4-2-6.067-2.516-13-2v-8q3.325-1.303 7-1" style="opacity:1"/><path fill="#5295b0" d="M133.5 172.5a27.2 27.2 0 0 0-6 3.5q5.216.995 10.5 1.5 3.076.115 5.5-1.5l-2-1q1.129-1.006 1-2.5v-3q4.602.07 9 1.5-.834.575-1 1.5-5.907 1.898-6 8a18.5 18.5 0 0 0-6 .5q.834.575 1 1.5-2.188-.1-4 1h-1v-5q-6.556-1.641-13-.5 4.072-1.312 4-5.5 3.123-.186 4.5-3 .582 1.392 2 2 5.095-2.12 1.5 1" style="opacity:1"/><path fill="#2f4f79" d="M133.5 172.5q4.172.609 9 0 .129 1.494-1 2.5l2 1q-2.424 1.615-5.5 1.5a114 114 0 0 1-10.5-1.5 27.2 27.2 0 0 1 6-3.5" style="opacity:1"/><path fill="#5497af" d="M13.5 181.5q6.933-.516 13 2-4.828.226-1 2.5a43 43 0 0 1-5 1.5 36 36 0 0 0-4.5-2 3.65 3.65 0 0 1-1.5 1 9.3 9.3 0 0 0-2.5-2l-2 2q-1.418-.608-2-2-4.283 4.233-2.5-1 4.261-.09 8-2" style="opacity:1"/><path fill="#2e486f" d="M98.5 179.5a4.93 4.93 0 0 1 3 .5q-4.46 2.258-1 5a16.6 16.6 0 0 0-4 2.5q-.18-1.63-2-2a18.9 18.9 0 0 0-8-2 71 71 0 0 0-11 3q-3.14.022-5.5-2-5.172 3.156 1 4l1-1q.465 1.9 1.5 3.5-3.428 2.93-6.5-.5a9.17 9.17 0 0 1-4.5 2q-.424-1.074-1-2.5l2-1q-5.24-3.656-11-5.5 4.687-1.469 10-1 8.143 2.052 16-1 10.02-2.42 20-2" style="opacity:1"/><path fill="#3e5f7b" d="M180.5 179.5q4.851-.443 9 2a20.5 20.5 0 0 0-3 5.5q-4.678-1.01-9 .5-1.356 1.063-1 3-.618 3.58-3 6l2-9a18.5 18.5 0 0 1-6-.5l4-1a17.8 17.8 0 0 0-7-1.5v-2q-1.445-1.295 0-2 4.183 2.697 9 1.5-1.794-.981 0-1.5a981 981 0 0 0 6 5l2-.5q-1.386-1.275 0-3-.666-2.643-1.5.5-3.237-.825-1.5-3" style="opacity:1"/><path fill="#283760" d="M193.5 169.5q.536 5.072 0 10.5l2.5 2.5a73 73 0 0 0-1.5-12h5v14a8.4 8.4 0 0 0-4 .5l1 1q-6.018 2.704 1 3l-3 .5q-5.676-1.215-11.5 0-3.443-.07-5.5-2 4.322-1.51 9-.5a20.5 20.5 0 0 1 3-5.5q-4.149-2.443-9-2h-1a127 127 0 0 1 2-9q.705-1.79 3-2 4.452.993 9 1" style="opacity:1"/><path fill="#7bbec5" d="M113.5 185.5q-9.466 2.567-18 6.5 5.649-4.824 13-6.5 3.64-2.577 8-1.5-1.856.348-3 1.5" style="opacity:1"/><path fill="#3f6c8d" d="M114.5 181.5q9.938 2.999 20 2h1q-.166.925-1 1.5 6.442 1.368 13 2l-3 1q2 1 0 2-4.981 1.22-9 4.5-.393-2.448 3-3.5-4-1 0-2-4.684-2.027-9-.5-8.37-1.234-1-2.5-7.467.077-15 .5v-1q1.144-1.152 3-1.5-4.36-1.077-8 1.5-.627-1.083-2-1.5 3.613-2.56 8-2.5" style="opacity:1"/><path fill="#335b85" d="M5.5 183.5q-1.783 5.233 2.5 1 .582 1.392 2 2l2-2a9.3 9.3 0 0 1 2.5 2 3.65 3.65 0 0 0 1.5-1 36 36 0 0 1 4.5 2q-.165.925-1 1.5a89 89 0 0 0-12 1.5q.257-1.487-1-2-9.013-1.878-1-5" style="opacity:1"/><path fill="#242b53" d="m152.5 190.5-1 2q-2.18 1.53-1 3.5-3.075.624-4 3.5h-2a42.3 42.3 0 0 1 5-7 4.46 4.46 0 0 0-1.5-2 58.6 58.6 0 0 0-9.5 9h-18v-1a4.93 4.93 0 0 0 3-.5q-9.318-.539-17-5.5-2.226-3.549 2-4 .5 3.5 4 4 8.213 1.483 17 1 4-2.5 0-5 4.316-1.527 9 .5-4 1 0 2-3.393 1.052-3 3.5 4.019-3.28 9-4.5 2-1 0-2l3-1a116 116 0 0 1-13-2q.834-.575 1-1.5 1.812-1.1 4-1h7q-.329-1.763 1-3a15 15 0 0 1 3.5 3q2.72-1.89 5.5 0-1.676 3.921-5 6.5.105 1.147 1 1.5" style="opacity:1"/><path fill="#6bbec9" d="M129.5 188.5q4 2.5 0 5l-1-2q1.857-.465 0-1.5a29 29 0 0 1-4-1.5q-.14 1.458-1 3h-7v-3a12.9 12.9 0 0 0 5-.5q-6.049-1.56-11 2 1.321 1.063 2 2.5-3.5-.5-4-4a16.3 16.3 0 0 0 5-2 327 327 0 0 1 15-.5q-7.37 1.266 1 2.5" style="opacity:1"/><path fill="#211e44" d="M166.5 184.5q3.64.034 7 1.5l-4 1q2.96.743 6 .5l-2 9h-7v-3q-3.816.594-6.5-2-4.183-.131-8.5 1l1-2q5.292-7.419 14-6" style="opacity:1"/><path fill="#253562" d="M52.5 183.5q5.76 1.844 11 5.5l-2 1q.576 1.426 1 2.5.165.925 1 1.5-1.374.417-2 1.5a5.58 5.58 0 0 0-3 1q-4.373-4.25-9-1l-1-2a9.1 9.1 0 0 1-5 1q-1.788-1.599 1-2.5-2.91-.456-5-2.5-2 2-4 0a18 18 0 0 0-3.5 2q-2.04-5.175-6.5-1.5 1.816 1.34 0 2.5-1.848-2.925-5-2.5l2 2q-2.41.173-4.5-1.5-.068 2.135-3.5 3-3.774-1.245-7-3a89 89 0 0 1 12-1.5q.835-.575 1-1.5a43 43 0 0 0 5-1.5q-3.828-2.274 1-2.5 1.025 2.514 4 2a6.85 6.85 0 0 1 1-4q5.5-2 11 0a3.65 3.65 0 0 1-1 1.5q4.101.316 7.5 2.5 1.064-2.21 3.5-2" style="opacity:1"/><path fill="#201d41" d="M199.5 184.5v10q-2.146.572-2.5 3-2.846-2.274-6.5-2l2-4q-8.034-.489-16-1-.356-1.937 1-3 2.057 1.93 5.5 2 5.824-1.215 11.5 0l3-.5q-7.018-.296-1-3l-1-1a8.4 8.4 0 0 1 4-.5" style="opacity:1"/><path fill="#3873a1" d="M123.5 191.5q2.324 1.83 5 0l1 2q-8.787.483-17-1-.679-1.437-2-2.5 4.951-3.56 11-2a12.9 12.9 0 0 1-5 .5v3z" style="opacity:1"/><path fill="#274f8f" d="M128.5 191.5q-2.676 1.83-5 0 .86-1.542 1-3a29 29 0 0 0 4 1.5q1.857 1.035 0 1.5" style="opacity:1"/><path fill="#211d41" d="M6.5 188.5q1.257.513 1 2 3.226 1.755 7 3 3.432-.865 3.5-3 2.09 1.673 4.5 1.5l-2-2q3.153-.425 5 2.5 1.816-1.16 0-2.5 4.46-3.675 6.5 1.5a18 18 0 0 1 3.5-2q2 2 4 0 2.09 2.044 5 2.5-2.788.901-1 2.5-2.178 3.528-6 1-4.373 2.215-9 2.5 3.669-2.224-1-3.5-2.153 2.851-5 1-5.829 1.632 0 2.5-1.373.417-2 1.5h-3q1.647-1.345 0-2.5-5.183-4.128-11-4.5-1.357-1.803 0-4" style="opacity:1"/><path fill="#1f0f26" d="M176.5 190.5q7.966.511 16 1l-2 4q3.654-.274 6.5 2 .354-2.428 2.5-3v5h-53q.925-2.876 4-3.5-1.18-1.97 1-3.5 4.317-1.131 8.5-1 2.684 2.594 6.5 2v3h7q2.382-2.42 3-6" style="opacity:1"/><path fill="#1e0d24" d="M144.5 199.5h-6a58.6 58.6 0 0 1 9.5-9 4.46 4.46 0 0 1 1.5 2 42.3 42.3 0 0 0-5 7" style="opacity:1"/><path fill="#21132c" d="m-.5 188.5 3 1.5q-1.73 1.37.5 2.5 1.676.354 3.5 0 5.817.372 11 4.5 1.647 1.155 0 2.5h-18z" style="opacity:1"/><path fill="#231730" d="M77.5 199.5h-57q.627-1.083 2-1.5-5.829-.868 0-2.5 2.847 1.851 5-1 4.669 1.276 1 3.5 4.627-.285 9-2.5 3.822 2.528 6-1a9.1 9.1 0 0 0 5-1l1 2q4.627-3.25 9 1a5.58 5.58 0 0 1 3-1q6.5.273 12.5 2 1.25-2.25 3.5-3.5l-3-1a11.3 11.3 0 0 0 3.5-1.5q1.159 2.023 3.5 2.5-3.267.663-2 3-3.653.112-2 2.5" style="opacity:1"/><path fill="#252a50" d="M96.5 187.5a240 240 0 0 0-6 3q1.623.373 4 .5-1.911 1.466 0 2.5 1.77 2.351 5 2.5-4.75.378-9 .5-3.198-2.425-7-1.5 3.737.939 0 2.5a31 31 0 0 1 2 2h-8q-1.653-2.388 2-2.5-1.267-2.337 2-3-2.341-.477-3.5-2.5a11.3 11.3 0 0 1-3.5 1.5l3 1q-2.25 1.25-3.5 3.5-6-1.727-12.5-2 .626-1.083 2-1.5-.835-.575-1-1.5a9.17 9.17 0 0 0 4.5-2q3.072 3.43 6.5.5a11.4 11.4 0 0 1-1.5-3.5l-1 1q-6.172-.844-1-4 2.36 2.022 5.5 2a71 71 0 0 1 11-3q4.23.117 8 2 1.82.37 2 2" style="opacity:1"/><path fill="#1f1737" d="M94.5 193.5a447 447 0 0 0 26 5v1h-35a31 31 0 0 0-2-2q3.737-1.561 0-2.5 3.802-.925 7 1.5 4.25-.122 9-.5-3.23-.149-5-2.5" style="opacity:1"/></svg>