<svg xmlns="http://www.w3.org/2000/svg" width="200" height="200"><path fill="#000100" d="M0 0h200v200H0z"/><path fill="#82A86F" d="M92 7c2.436 8.852 4.402 17.663 5.75 26.75l.386 2.597C98.652 39.974 99 43.32 99 47c7.15-3.373 7.15-3.373 13.75-7.687 5.278-3.756 9.709-4.569 16.125-4.438l3.492.055L135 35v1l-10 2 4.875-.187c9.658.037 16.976 2.652 24.125 9.187 6.562 7.094 8.428 14.65 8.352 24.082C161.53 77.899 157.62 84.047 153 89c-2.403 1.37-4.681 2.561-7.187 3.688C141.158 94.48 141.158 94.48 138 98c-3.283 2.28-6.046 3.435-10 4v5h6l1 3c2.015.733 2.015.733 4 1l-.562 2.25c-.627 2.631-.627 2.631.144 4.633.552 2.797-.148 4.176-1.332 6.742l-1.047 2.352c-1.763 2.965-3.782 3.892-7.016 4.898-3.275.998-3.275.998-6.062 3.125-7.217 4.619-15.133 4.337-23.437 4.313l-3.225.048c-16.875.01-16.875.01-22.12-4.918L73 133l-2.375-.75c-3.721-1.772-5.73-4.628-7.625-8.25v-3l-8-2v2h2l.742 2.21C63.018 137.947 71.614 157.907 85 167l-1.5-2.125c-1.73-3.314-1.98-5.188-1.5-8.875 1.59-2.11 2.458-2.906 5.086-3.363 4.524.1 7.707.637 11.914 2.363 4.302.443 7.289.474 11-2 4.041-.573 7.78-.506 11.563 1.063 2.158 2.91 1.702 5.428 1.437 8.937 3.595-3.329 6.224-6.99 9-11 2.938 2.71 2.938 2.71 3.5 5.313-.595 3.198-1.98 4.65-4.309 6.867-1.44 1.912-1.44 1.912-1.601 5.03-.703 4.518-2.344 7.62-4.59 11.54-2.83 4.97-2.83 4.97-5 10.25-8.754 5.836-26.678 3.926-36.867 2.434C77.457 192.182 72.235 190.509 67 188l-2.586-.625C62 186 62 186 60.961 182.754a135 135 0 0 1-.586-4.191l-.346-2.288A544 544 0 0 1 59 169c-2.345-16.423-5.49-32.536-11.047-48.215-1.049-3.066-1.896-6.164-2.766-9.285-4.457-14.414-14.7-27.703-24.253-39.266l-1.437-1.76a331 331 0 0 0-3.927-4.642C14 63 14 63 14.492 60.055c1.665-3.374 3.46-6.592 5.508-9.742l1.176-1.825C25.194 42.425 29.922 37.194 35 32c3.857 1.476 5.218 3.47 7.25 7l1.578 2.688C45 44 45 44 45 46l9-7-1-5h-1V24h-4c2.088-5.783 7.852-7.652 13.085-10.145C71.121 9.374 80.987 6.943 92 7"/><path fill="#719A64" d="M92 7c2.436 8.852 4.402 17.663 5.75 26.75l.386 2.597C98.652 39.974 99 43.32 99 47c7.15-3.373 7.15-3.373 13.75-7.687 5.278-3.756 9.709-4.569 16.125-4.438l3.492.055L135 35v1l-10 2 4.875-.187c9.658.037 16.976 2.652 24.125 9.187 6.562 7.094 8.428 14.65 8.352 24.082C161.53 77.899 157.62 84.047 153 89c-2.403 1.37-4.681 2.561-7.187 3.688C141.158 94.48 141.158 94.48 138 98c-3.283 2.28-6.046 3.435-10 4v5h6l1 3c2.015.733 2.015.733 4 1l-.562 2.25c-.627 2.631-.627 2.631.144 4.633.552 2.797-.148 4.176-1.332 6.742l-1.047 2.352c-1.763 2.965-3.782 3.892-7.016 4.898-3.275.998-3.275.998-6.062 3.125-4.46 2.854-8.614 4.164-14 3.813C107 138 107 138 105 135v-3l-2.247-.335c-3.357-.506-6.711-1.023-10.065-1.54l-3.538-.527-3.388-.528-3.127-.476C80 128 80 128 77 126l15-1-1-3-3.562.125c-4.162.015-7.503-.813-11.438-2.125v-3l11-2-3-1c-.23-3.367-.34-5.414 1.375-8.375L87 104h2v-5h-7l-1 3c-8.923 4.817-18.747 8.526-29 8 1.512-3.848 3.606-5.688 7-8 3.418-.906 3.418-.906 7.188-1.5C72.508 99.416 78.18 97.698 84 95h-3l2.188-2.125c7.406-7.49 11.928-13.924 12.437-24.75-.275-8.771-3.595-15.579-9.937-21.625C77.522 40.358 68.88 40.62 59 41c2-2 2-2 5.477-2.195q2.074.02 4.148.07l2.14.027c1.746.024 3.49.06 5.235.098v-2c-7.363-.224-13.87.099-21 2l-2-5h-1V24h-4c2.088-5.783 7.852-7.652 13.085-10.145C71.121 9.374 80.987 6.943 92 7"/><path fill="#3F502A" d="M99 7c18.717-.641 32.972 4.674 50 12v2l2 .625c8.477 3.885 8.477 3.885 11 7.375.393 4.47-.165 8.605-1 13l1.023-1.75 1.352-2.25 1.336-2.25L166 34h2a83 83 0 0 1 4.563 5.5l1.323 1.736c3.402 4.581 6.442 9.328 9.302 14.264l1.207 2.03c1.503 2.685 2.587 4.877 2.683 7.982-1.61 3.716-4.003 6.646-6.516 9.8-5.682 7.352-10.75 14.924-15.499 22.907a313 313 0 0 1-2.946 4.808c-3.341 5.626-4.863 10.49-5.699 16.97-.407 2.921-1.036 5.654-1.793 8.503-2.807 11.028-5.454 22-6.078 33.395l-.195 3.54a248 248 0 0 0-.23 6.896c-.339 7.63-.339 7.63-2.433 10.41-4.324 3.333-9.727 4.995-14.876 6.634l-2.405.824c-6.404 2.097-6.404 2.097-10.408.801h2l.285-2.11c.858-3.468 2.359-6.053 4.153-9.14 2.606-4.684 4.245-8.621 5.093-13.883.715-2.847 2.596-4.672 4.469-6.867l-1-3-1-3-1.645 2.406-2.167 3.094-2.145 3.094L124 164h-3l1-1c.333-3.458.333-3.458 0-7-3.122-2.081-3.933-2.274-7.5-2.25l-2.344-.016c-2.451.139-2.451.139-5.156 2.266-6.913.446-6.913.446-10.437-1-3.743-1.46-7.587-1.531-11.563-1-2.273 1.858-2.273 1.858-2.312 4.75.353 3.68 1.49 6.062 3.312 9.25-9.237-4.076-14.208-14.643-19-23l-1.101-1.908C61.808 135.938 58.162 129.28 57 121h-2v-2c3.716-.2 4.772-.152 8 2 1.176 2.059 1.176 2.059 2.313 4.438 2.257 4.25 4.11 5.81 8.687 7.562l1.813 1.563c6.736 4.426 15.888 3.773 23.624 3.75l3.237.048c9.457.006 16.974-1.201 24.326-7.361q3.498-1.009 7-2c1.79-2.686 2.66-4.663 3.625-7.687.26-.809.52-1.617.79-2.45.192-.615.386-1.23.585-1.863l-2-1 1-5-3-1-1-2c-3.03-.658-3.03-.658-6-1v-5l-3-1 3.688-.312c3.723-.45 6.229-1.472 9.312-3.688l-2-2 1.652-.48c9.802-3.033 16.19-5.96 21.254-15.215 3.03-6.384 2.65-13.075 1.469-19.93-3.438-8.438-8.158-14.573-16.516-18.34C136.388 38.351 128.824 38.718 121 39c2.139-2.139 3.133-2.427 6-3-9.126.931-15.08 4.537-22.547 9.574C102 47 102 47 99 47l-1-8 2 2c.153-11.372-.316-22.65-1-34"/><path fill="#8CAD41" d="M140.375 51.563c4.024 2.4 6.96 4.982 8.625 9.437.86 6.632 1.162 13.451-3 19q-2.996 2.506-6 5c-1.57 2.997-2 4.612-2 8l-2 2 3 2c-3.653 2.634-6.485 4.469-11 5v5h6l1 3c2.015.733 2.015.733 4 1l-.562 2.25c-.627 2.631-.627 2.631.144 4.633.552 2.797-.148 4.176-1.332 6.742l-1.047 2.352c-1.763 2.965-3.782 3.892-7.016 4.898-3.275.998-3.275.998-6.062 3.125-4.46 2.854-8.614 4.164-14 3.813C107 138 107 138 105 135v-3l-2.247-.335c-3.357-.506-6.711-1.023-10.065-1.54l-3.538-.527-3.388-.528-3.127-.476C80 128 80 128 77 126l15-1-1-3-3.562.125c-4.162.015-7.503-.813-11.438-2.125v-3l11-2-3-1c-.23-3.367-.34-5.414 1.375-8.375L87 104h2v-2.312C89 96 89 96 90.875 93.812 93 92 93 92 95 92c1.206-2.332 2.165-4.496 3-7 3.063-1.687 3.063-1.687 6-3l-1-2.687c-.912-3.022-1.183-5.197-1-8.313h3l.629 2.125C107.84 79.937 110.39 85.373 116 90c4.996 2.18 9.633 2.455 15 2l2-3-1.723-.297c-6.706-1.299-11.821-3.048-16.59-8.203-3.754-5.562-4.5-9.821-3.687-16.5 1.68-5.323 4.233-8.977 9-12 6.481-3.001 13.766-3.36 20.375-.437"/><path fill="#17291B" d="M99 7c18.717-.641 32.972 4.674 50 12v2l2 .625c8.477 3.885 8.477 3.885 11 7.375.393 4.47-.165 8.605-1 13l1.023-1.75 1.352-2.25 1.336-2.25L166 34h2a83 83 0 0 1 4.563 5.5l1.323 1.736c3.402 4.581 6.442 9.328 9.302 14.264l1.207 2.03c1.503 2.685 2.587 4.877 2.683 7.982-1.61 3.716-4.003 6.646-6.516 9.8C172.358 85.922 165.333 97.182 159 109h-1c.547-8.18 2.171-16.018 4-24h-2l-.625 2.125c-1.718 3.592-3.973 6.71-7.375 8.875-2.195-.336-2.195-.336-4-1 .188-2.312.188-2.312 1-5l2.348-1.355c3.052-1.893 4.148-3.543 5.902-6.645l1.516-2.625c3.274-6.3 2.79-13.147 1.609-20-3.438-8.438-8.158-14.573-16.516-18.34C136.388 38.351 128.824 38.718 121 39c2.139-2.139 3.133-2.427 6-3-9.126.931-15.08 4.537-22.547 9.574C102 47 102 47 99 47l-1-8 2 2c.153-11.372-.316-22.65-1-34"/><path fill="#9FB542" d="M68 147c3.762 4.634 7.269 9.434 10.781 14.258 1.947 2.406 3.655 4.052 6.219 5.742l-1.5-2.125c-1.73-3.314-1.98-5.188-1.5-8.875 1.59-2.11 2.458-2.906 5.086-3.363 4.524.1 7.707.637 11.914 2.363 4.302.443 7.289.474 11-2 4.041-.573 7.78-.506 11.563 1.063 2.158 2.91 1.702 5.428 1.437 8.937 3.595-3.329 6.224-6.99 9-11 2.938 2.71 2.938 2.71 3.5 5.313-.595 3.198-1.98 4.65-4.309 6.867-1.44 1.912-1.44 1.912-1.601 5.03-.703 4.518-2.344 7.62-4.59 11.54-2.83 4.97-2.83 4.97-5 10.25-6.54 4.36-15.96 3.114-23.625 3.188l-2.385.04c-5.564.007-10.613-.815-15.99-2.228v-1h8c-3.686-11.132-8.378-20.35-15-30-2.36-3.483-3.377-5.59-3.187-9.812l.082-2.395z"/><path fill="#080808" d="M147 113c-1.007 5.118-2.228 9.949-4.168 14.793a74 74 0 0 0-1.633 4.883C137.546 144.825 131.176 155.342 123 165l-2-1 1-1c.333-3.458.333-3.458 0-7-3.122-2.081-3.933-2.274-7.5-2.25l-2.344-.016c-2.451.139-2.451.139-5.156 2.266-6.913.446-6.913.446-10.437-1-3.743-1.46-7.587-1.531-11.563-1-2.273 1.858-2.273 1.858-2.312 4.75.353 3.68 1.49 6.062 3.312 9.25-9.237-4.076-14.208-14.643-19-23l-1.101-1.908C61.808 135.938 58.162 129.28 57 121h-2v-2c3.716-.2 4.772-.152 8 2 1.176 2.059 1.176 2.059 2.313 4.438 2.257 4.25 4.11 5.81 8.687 7.562l1.813 1.563c6.736 4.426 15.888 3.773 23.624 3.75l3.237.048c9.457.006 16.974-1.201 24.326-7.361q3.498-1.009 7-2c2.104-2.829 2.104-2.829 2.813-5.812C138.494 118.674 141.583 113 147 113"/><path fill="#73726E" d="M146 41c7.03 4.225 11.699 9.454 15 17 2.054 8.692 1.77 15.802-2.516 23.71-3.23 4.982-5.978 7.953-11.359 10.603l-3.055 1.55c-3.247 1.203-5.638 1.357-9.07 1.137l1.5-1.312c1.832-1.685 1.832-1.685 1.5-4.688v-3a174 174 0 0 1 5-4c5.095-5.802 5.362-10.284 5.27-17.828-.358-4.203-1.242-6.22-4.27-9.172-5.81-4.333-11.93-5.009-19-4-4.704 1.398-7.374 3.213-10.437 7.063C111.739 63.37 111.118 68.078 112 74c2.468 5.864 6.031 9.868 11.898 12.36 3.37 1.027 6.59 1.39 10.102 1.64-1 2.5-1 2.5-3 5-5.916.69-11.906.298-16.852-3.375-6.238-5.734-9.549-13.097-10.457-21.473-.37-9.243 1.66-15.735 7.727-22.804 9.733-8.97 22.857-9.56 34.582-4.348"/><path fill="#345D3A" d="M99 7c15.917-.545 28.409 2.84 43 9 .043 5.158-.228 9.883-1 15a97 97 0 0 0 0 5l2.313.813c2.56 1.131 3.884 2.1 5.687 4.187-3.39.165-5.957.013-9.219-1-4.075-1.078-7.513-1.2-11.719-1.125l-2.072.027c-1.663.024-3.327.06-4.99.098 2.139-2.139 3.133-2.427 6-3-9.126.931-15.08 4.537-22.547 9.574C102 47 102 47 99 47l-1-8 2 2c.153-11.372-.316-22.65-1-34"/><path fill="#EBECE4" d="M79 42c.125 3.375.125 3.375 0 7-2.641 2.641-4.072 2.287-7.75 2.438-6.348.448-10.294 1.35-14.625 6.25L55 60c.615-.095 1.23-.19 1.863-.29.809-.11 1.617-.22 2.45-.335l2.425-.352C64 59 64 59 67 61c.188 3.625.188 3.625 0 7-5.143 2.571-10.855.68-16-1 1.087 8.036 2.222 13.761 8.625 19.25C63.968 88.502 68.193 89.278 73 90c-4.75 5.875-4.75 5.875-7 7-7.135.678-13.016.115-18.844-4.441-5.665-5.173-9.77-12.471-10.36-20.23C36.644 62.235 39.28 55.511 46 48c8.795-8.163 21.873-10.812 33-6"/><path fill="#664023" d="M140.375 51.563c4.024 2.4 6.96 4.982 8.625 9.437.86 6.632 1.162 13.451-3 19-4.749 4.619-8.541 7.297-15.25 7.375-5.912-.099-9.113-.724-13.75-4.375-4.852-5.245-6.473-9.335-6.316-16.398.655-5.392 2.904-9.226 6.754-12.977 6.999-4.438 15.22-5.474 22.937-2.062"/><path fill="#7E4C2A" d="M85.605 57.332c4.248 4.7 4.177 10.192 3.938 16.281-.958 5.976-3.633 9.123-8.3 12.754C75.617 89.78 69.391 89.891 63 89c-5.265-2.538-8.489-6.205-11.25-11.312C50.727 74.022 50.871 70.8 51 67l2.992.219 3.883.281 3.867.281C63.492 67.9 65.246 68 67 68l-1-7c-3.724-.693-7.21-1.111-11-1 1.29-2.878 2.454-5.09 5-7 9.303-2.496 18.102-1.894 25.605 4.332"/><path fill="#C3D368" d="M90 98c-.45 4.95-1.573 6.573-5 10-.803 3.145-.803 3.145-1 6l4-1-1 3c-2.75.917-4.36 1.109-7.187 1.063L76 117l1 3 3.027.367 3.91.508 3.903.492L91 122l1 2 3 2-15 1 4.96.84 6.415 1.097 3.273.553 3.125.537 2.889.492C103 131 103 131 105 132a161 161 0 0 1 3 7c-24.432.663-24.432.663-32-3a96 96 0 0 1-3-3l-2.375-.75C66.805 130.43 65 127.667 63 124a256 256 0 0 1-2-7c-1.478-1.902-1.478-1.902-3-3 4.27-5.384 10.612-6.447 17-8v-2l2.813-1.312c3.12-1.415 3.12-1.415 4.687-3.376 2.328-2.036 4.535-1.51 7.5-1.312"/><path fill="#6E8F39" d="M132 152c2.938 2.71 2.938 2.71 3.5 5.313-.595 3.198-1.98 4.65-4.309 6.867-1.44 1.912-1.44 1.912-1.601 5.03-.703 4.518-2.344 7.62-4.59 11.54-2.83 4.97-2.83 4.97-5 10.25-8.45 5.634-23.119 3.092-33 3v-1l5-1-7-10 1-2 2 1v-2h-2c-1.324-1.426-1.324-1.426-2.687-3.312l-1.387-1.864L81 172l1-3 1 2c1.815.583 1.815.583 4 .938 3.326.645 6.245 1.53 9.375 2.812 5.483 1.863 10.216 1.113 15.625-.75 3.245-1.723 6.107-3.744 9-6l3.063-2.187L126 164v-3c1.313-2.262 1.313-2.262 3-4.687l1.688-2.45z"/><path fill="#CDD36C" d="M56 129c3.645 2.43 4.74 4.951 6 9 .49 2.677.762 5.283 1 8l5 1-.062 3.563c.915 8.735 7.386 16.556 12.25 23.609 1.602 2.5 2.628 4.576 3.5 7.39l.699 2.192c.655 2.399 1.153 4.802 1.613 7.246-7.162.318-12.616.388-19-3l-2.59-.637C62 186 62 186 60.96 182.753a133 133 0 0 1-.585-4.19l-.34-2.273a439 439 0 0 1-.688-4.811c-.459-3.278-.99-6.542-1.519-9.809-1.177-7.295-2.286-14.602-3.398-21.908A712 712 0 0 0 53 131z"/><path fill="#477134" d="M76 33h4a749 749 0 0 1 4 6l2.234.852C92.032 42.259 97.473 47.795 101 53c.923 3.582.856 6.417 0 10h2q.29 2.968.563 5.938l.316 3.34L104 75l-1 1 2 6c-4.75 3-4.75 3-7 3l-.187 1.688C96.656 89.98 94.535 91.642 92 94l-1.937 2.25C87.445 98.47 85.369 98.694 82 99l-1 3c-8.923 4.817-18.747 8.526-29 8 1.512-3.848 3.606-5.688 7-8 3.418-.906 3.418-.906 7.188-1.5C72.508 99.416 78.18 97.698 84 95h-3l2.188-2.125c7.406-7.49 11.928-13.924 12.437-24.75-.275-8.771-3.595-15.579-9.937-21.625C77.522 40.358 68.88 40.62 59 41c2-2 2-2 5.477-2.195q2.074.02 4.148.07l2.14.027c1.746.024 3.49.06 5.235.098l-.562-2.437L75 34z"/><path fill="#7EAC65" d="M35 32c3.857 1.476 5.218 3.47 7.25 7l1.578 2.688C45 44 45 44 45 46l2.125-1.68C55.503 37.923 61.44 35.472 72 36c2.5.5 2.5.5 4 1v2l-17 1v2l-1.828.805-2.422 1.07-2.39 1.055C47.013 47.253 47.013 47.253 44 52a191 191 0 0 1-3.879 5.219C38.914 59.137 38.431 60.787 38 63h-2v15c-2.477-3.096-4.687-5.917-6.797-9.207l-1.465-2.275c-.49-.77-.982-1.538-1.488-2.33l-1.535-2.39Q22.854 58.903 21 56l-1 1h-3c3.6-9.825 10.945-17.48 18-25"/><path fill="#E3E5DB" d="M136 38c2.62 2.62 2.981 4.016 3.05 7.676L139 48l-2.527.262c-7.827.977-15.354 2.172-20.875 8.293C111.792 61.999 111.039 67.547 112 74c2.468 5.864 6.031 9.868 11.898 12.36 3.37 1.027 6.59 1.39 10.102 1.64-1 2.5-1 2.5-3 5-5.916.69-11.906.298-16.852-3.375-6.238-5.734-9.549-13.097-10.457-21.473-.37-9.243 1.66-15.735 7.727-22.804C118.083 39.205 127.072 36.265 136 38"/><path fill="#A9BF57" d="m43 93 1.938 1.938c6.287 4.234 14.012 3.157 21.25 2.25l2.326-.252C72.912 96.419 76.82 95.534 81 94c1.66-.361 3.326-.705 5-1-5.648 6.25-13.187 7.855-21.312 8.938-5.409.78-7.987 2.061-11.688 6.062l-1 2 3.762-.84 4.926-1.097 2.474-.553c3.939-.877 7.876-1.743 11.838-2.51-3.655 2.992-7.35 4.368-11.758 5.938-2.556.975-2.556.975-4.242 4.062l3 2 1 4-8-2v2h2l.883 2.457c2.52 6.806 5.332 13.122 8.98 19.398C68 145 68 145 68 147l-5-1-.55-1.977c-1.425-4.95-2.944-9.488-5.45-14.023l-3 2 1 10c-2.04-3.06-2.628-5.084-3.437-8.625C50.31 128.131 48.757 123.092 47 118c-1.714-5.143-2.366-9.96-2.781-15.332C43.952 99.415 43.5 96.224 43 93"/><path fill="#6C6957" d="M138 113c1.455 4.648.63 8.483-1 13-3.243 4.234-6.01 5.472-11 7l-2.875 2c-4.46 2.854-8.614 4.164-14 3.813C107 138 107 138 105 135v-3c-.6-.08-1.201-.16-1.82-.244-2.707-.367-5.412-.749-8.118-1.131l-2.865-.383-2.724-.39c-.833-.116-1.666-.23-2.524-.35L85 129l-1-2 3.656-.148 4.844-.227c.791-.03 1.583-.062 2.398-.094 8.067-.396 14.665-2.326 22.102-5.531a243 243 0 0 1 4.875-1.437c5.643-1.631 10.88-3.94 16.125-6.563"/><path fill="#283329" d="M181 57h3c3.025 5.203 3.025 5.203 2.93 8.25-1.345 3.976-3.772 6.804-6.368 10.063C172.358 85.92 165.333 97.18 159 109h-1c.547-8.18 2.171-16.018 4-24h-2l-.625 2.125c-1.718 3.592-3.973 6.71-7.375 8.875-2.195-.336-2.195-.336-4-1 .188-2.312.188-2.312 1-5l2.348-1.355c3.052-1.893 4.148-3.543 5.902-6.645l1.516-2.625c2.293-4.413 2.355-8.208 2.297-13.062l-.014-2.127q-.02-2.594-.049-5.186c2.512 3.768 2.447 6.995 2.625 11.375l.117 2.29c.185 3.78.303 7.548.258 11.335l1.18-2.098a371 371 0 0 1 11.07-18.152l1.285-2.024c1.075-1.63 2.262-3.187 3.465-4.726"/><path fill="#868979" d="M79 43c6.02 1.086 10.086 5.42 13.629 10.195C96.663 60.16 97.21 67.116 96 75c-2.89 8.922-7.829 15.408-15.926 20.121-2.642 1.273-4.578 1.943-7.511 1.567L71 96l2.938-1.687c3.276-1.942 3.276-1.942 3.562-4.813.5-2.5.5-2.5 3.313-4.437L84 83c4.01-4.01 4.327-7.536 4.5-13-.184-5.455-.38-9.086-4.5-13-6.542-5.194-14.029-4.403-22-4 3.404-2.27 5.165-2.365 9.188-2.625l3.292-.227L77 50z"/><path fill="#D18685" d="M87.25 153.688c3.75.312 3.75.312 6.43 1.82 4.241 1.906 7.617 1.83 12.195 1.68l2.375-.042c1.917-.035 3.834-.088 5.75-.146l-1 5-3 1a312 312 0 0 0-2 5c-5.066 3.377-11.025 3.165-17 3-3.704-1.131-5.494-3.359-7.875-6.375-1.333-3.111-1.498-5.272-1.125-8.625 2-2 2-2 5.25-2.312"/><path fill="#060406" d="M65 58c6.24-.5 10.01-.241 15 4 1.862 3.725 1.571 7.945 1 12-1.672 3.126-3.786 5.393-7 7-4.48.254-8.088.326-12-2-4-5.081-4-5.081-4-9l9-2c-.458-3.47-.891-6.674-2-10"/><path fill="#080607" d="M124 56c6.656-.543 10.471.2 16 4 1.72 1.72 1.293 3.904 1.375 6.25-.022 4.268-.112 5.398-2.75 8.938C136 77 136 77 134 77v2c-4.854.476-7.945.77-12-2.187-1.972-2.773-2.713-4.46-3-7.813l2.938-.937c2.903-.758 2.903-.758 4.062-2.063.27-4.038-.069-6.48-2-10"/><path fill="#D6D4C4" d="M64 123q2.159.427 4.313.875l2.425.492C73 125 73 125 76 127c2.029.42 4.076.755 6.129 1.035l3.635.514 3.799.513q3.72.514 7.44 1.036l3.339.453C103 131 103 131 105 132a161 161 0 0 1 3 7c-24.432.663-24.432.663-32-3a96 96 0 0 1-3-3l-2.437-.812c-3.515-1.63-4.695-3.866-6.563-7.188z"/><path fill="#472F1C" d="M85.605 57.332c4.322 4.782 3.955 10.293 3.961 16.461C88.913 77.495 87.887 78.687 85 81l-1-4-5 1v2l-5 1 1.313-1.11c2.972-2.89 4.551-4.821 5.085-9.027A109 109 0 0 0 80 62l-1.875-.937L74 59c-1.537-.225-3.08-.408-4.625-.562l-2.477-.254L65 58l-1 2h-9c2.6-5.2 2.6-5.2 5-7 9.303-2.496 18.102-1.894 25.605 4.332"/><path fill="#A85B5E" d="M85 153c5.28-.207 9.079-.019 14 2 4.302.443 7.289.474 11-2 4.041-.573 7.78-.506 11.563 1.063 2.242 3.023 1.879 5.278 1.437 8.937-1.34 4.018-3.719 5.719-7.25 7.813-6.577 3.093-13.636 3.032-20.75 2.187l-2-2 2.484-.297 3.266-.453 3.234-.422c3.471-.953 4.732-2.104 7.016-4.828l2.188-2.562c1.966-2.38 1.966-2.38 2.812-5.438l-3 1c-2.268.146-4.54.221-6.812.25l-3.645.078c-3.862-.358-6.178-1.467-9.543-3.328-3.237-.708-3.237-.708-6-1z"/><path fill="#A4682E" d="m116 55 1 2c2.025.257 4.054.508 6.09.656C125 58 125 58 127 60c.25 3 .25 3 0 6-2 2-2 2-5.625 2.125L118 68v7h2c2.125 1.875 2.125 1.875 4 4v2l16-2v-2l4-1c-.062 2.25-.062 2.25-1 5-5.03 4.136-9.675 4.754-16.121 4.504-3.8-.665-5.887-1.85-8.55-4.606C115.95 77.5 114.961 73.994 114 70l-.758-2.367c-1.649-5.63-1.649-5.63-.472-8.531 1.105-1.664 1.105-1.664 3.23-4.102"/><path fill="#5A843A" d="M102 76c2 3 2 3 3 6-4.75 3-4.75 3-7 3l-.187 1.688C96.656 89.98 94.535 91.642 92 94l-1.937 2.25C87.445 98.47 85.369 98.694 82 99l-1 3c-8.923 4.817-18.747 8.526-29 8 1.512-3.848 3.606-5.688 7-8 3.418-.906 3.418-.906 7.188-1.5C72.508 99.416 78.18 97.698 84 95h-3c5.143-5.571 5.143-5.571 9-6l-3 6c5.812-5.518 5.812-5.518 10-12.25 1-1.75 1-1.75 3.125-2.5L102 80z"/><path fill="#585D3F" d="M138 113c1.073 3.272.893 5.43.063 8.75l-.59 2.422L137 126l-2-3c-3.696.98-6.997 1.999-10.5 3.563-6.757 2.775-13.684 2.593-20.875 2.562l-2.71.012c-5.716-.009-11.246-.41-16.915-1.137v-1l3.656-.148 4.844-.227c.791-.03 1.583-.062 2.398-.094 8.067-.396 14.665-2.326 22.102-5.531a243 243 0 0 1 4.875-1.437c5.643-1.631 10.88-3.94 16.125-6.563"/><path fill="#ACC565" d="M36 63h1l.078 2.273c.574 10.35 2.802 18.467 10.078 26.098 4.893 4.323 10.14 5.221 16.465 5.067C67.51 95.723 69.317 93.824 72 91l-5-1v-1l12-1c-2.437 6.091-2.437 6.091-5.84 8.148C65.4 99.208 56.095 99.828 48 98l-4-4 1 13c-9.68-12.906-9.284-28.631-9-44"/><path fill="#442C1C" d="M142.273 52.695c3.175 2.4 5.324 4.52 6.727 8.305.682 5.89 1.164 11.778-2 17-1.076-3.864-1.383-7.676-1.719-11.66-.22-2.49-.22-2.49-1.281-5.34l-3-2v-4h-2v-2h-4l4 5-1 2-1.937-1.437C132.078 56.53 128.415 56.279 124 56v2l-7-1c.063-1.812.063-1.812 1-4 7.376-4.49 16.784-4.773 24.273-.305"/><path fill="#193421" d="m47 22 1 2h4l.148 1.863.227 2.45c.07.8.14 1.6.21 2.425.31 2.534.31 2.534 2.415 5.262-.212 2.626-.775 3.755-2.559 5.703l-1.879 1.547-1.87 1.578C47 46 47 46 45 46c-2.503-3.755-2.633-7.065-2.937-11.437l-.245-2.315c-.154-2.196-.223-4.083.182-6.248 2.496-2.535 2.496-2.535 5-4"/><path fill="#122919" d="m102.188 5.938 3.855.027L109 6v1H99l.465 2.102C101.396 19.563 101.134 30.399 101 41l-2 1c-1.49-2.728-2.33-5.054-2.781-8.125-.12-.784-.238-1.568-.36-2.376L95.5 29l-.77-5.113-.373-2.518a559 559 0 0 0-1.544-9.556c-.16-.943-.318-1.885-.481-2.856L92 7c3.56-1.187 6.438-1.097 10.188-1.062"/><path fill="#4C6A2A" d="M132 152c2.938 2.71 2.938 2.71 3.5 5.313-.605 3.253-2.153 4.703-4.34 7.097-1.86 2.55-1.741 5.504-2.16 8.59-1.479 3.117-3.194 6.062-5 9-.553-2.076-1-3.844-1-6l-5 9c-1-4-1-4 .375-6.5L120 176c.696-2.191.696-2.191 1-4l-6 3c1.842-4.606 5.166-6.53 9.102-9.316L126 164v-3c1.313-2.262 1.313-2.262 3-4.687l1.688-2.45z"/><path fill="#E4E5D7" d="M107 78c3.25-.312 3.25-.312 7 0a95 95 0 0 1 4 5c5.068 3.462 9.953 4.568 16 5-1 2.5-1 2.5-3 5-5.954.695-12.003.309-16.922-3.48-3.726-3.488-5.957-6.412-7.078-11.52"/><path fill="#3B5635" d="M97 54c2.035 1.667 2.917 2.582 3.436 5.201.074 2.79.133 5.571.126 8.362l-.005 3.025C100.372 78.14 99.14 83.268 94 89l-1.441 1.914C91.25 92.625 91.25 92.625 89 95h-2l1-2.312c1.174-2.679 1.174-2.679 1-5.688.95-1.71 1.903-3.42 2.93-5.086 2.191-3.92 3.319-7.527 3.703-11.996l.254-2.822.238-2.909.262-2.966Q96.703 57.61 97 54"/><path fill="#91AF5C" d="M102 71h3l.629 2.125C107.84 79.937 110.39 85.373 116 90c4.996 2.18 9.633 2.455 15 2l2-3-7-1v-1l14-1-2 4v3c-4.651 3.1-9.486 3.193-15 3-3.539-.978-6.74-2.32-10-4v-2l-1.8-.742c-4.01-2.293-6.133-6.22-8.2-10.258-.708-2.774-.895-5.118-1-8"/><path fill="#B0C673" d="m128.875 34.875 3.492.055L135 35v1l-2.52.332-3.292.48-3.27.458c-3.1.776-3.892 1.393-5.918 3.73a111 111 0 0 1-3.812 2.125c-5.62 3.4-9.129 8.697-11.188 14.875l-3 1c-.778-9.87-.778-9.87 1.938-13.812L107 43l2.125-1.555c6.476-4.572 11.695-6.734 19.75-6.57"/><path fill="#AFB1A8" d="M136 39c6.75.875 6.75.875 9 2v2h2c1.998 4.12 2.178 7.452 2 12-1.625.75-1.625.75-4 1q-1.974-1.466-3.941-2.941C136.503 50.716 131.033 50.567 126 50v-1l2.117-.184 2.758-.254c.905-.08 1.81-.162 2.742-.246 2.394-.186 2.394-.186 4.383-1.316v-4l-2 1z"/><path fill="#8FB444" d="m84 93 2 1c-5.793 3.943-10.83 6.448-17.895 7.383-6.6.895-10.517 1.657-15.105 6.617l-1 2 4 1-6 1c-.725-3.117-1.067-5.576-.562-8.75 1.845-2.658 2.64-2.791 5.687-3.562L59 99v-1l3.29-.367 4.335-.508 2.16-.238C73.087 96.374 76.915 95.52 81 94z"/><path fill="#7D6240" d="M112 63c1.465 2.796 2.622 5.57 3.625 8.563.26.764.52 1.528.79 2.316C117 76 117 76 117 79l1.813.813C121 81 121 81 122.27 82.55c2.499 2.093 4.39 1.848 7.605 1.824l3.117.023c3.356-.444 5.21-1.556 8.008-3.398h2v-4l-2-1c1.375-2.5 1.375-2.5 3-5h2c1.311 5.07 1.311 5.07 1 8-1.965 2.546-4.33 4.24-7 6l-3 2c-7.619.885-13.88.818-20-4-4.137-4.473-6.287-8.052-6.187-14.187l.019-2.668C111 64 111 64 112 63"/><path fill="#864E4A" d="M114.313 152.75c2.856.05 4.586.208 7.25 1.313 2.242 3.023 1.879 5.278 1.437 8.937-2 5.056-5.246 6.793-10 9l-3-1 1.875-1.812c2.723-2.804 4.075-4.348 4.313-8.313.136-2.77.136-2.77-1.188-3.875a210 210 0 0 0-8.062-.062l-2.3.013q-2.818.02-5.638.049v-1l2.152-.402 2.785-.536 2.778-.527c3.02-.707 4.268-1.72 7.597-1.785"/><path fill="#396042" d="m55 17 2 1c.426 2.318.74 4.657 1 7q.278 2.22.563 4.438L59 33h3v4l-7 2-2-5h-1V24h-4c1.444-3.807 3.35-5.266 7-7"/><path fill="#303F29" d="M161 59c2.49 3.734 2.483 6.909 2.688 11.25l.142 2.238c.251 4.665-.02 8.912-.83 13.512l-3-1-.625 2.125c-1.718 3.592-3.973 6.71-7.375 8.875-2.195-.336-2.195-.336-4-1 .188-2.312.188-2.312 1-5l2.348-1.355c3.052-1.893 4.148-3.543 5.902-6.645l1.516-2.625c2.293-4.413 2.355-8.208 2.297-13.062l-.014-2.127q-.02-2.594-.049-5.186"/><path fill="#2B4E33" d="m137 14 5 2a87.5 87.5 0 0 1-1 15 97 97 0 0 0 0 5 85 85 0 0 1-7-2c-.485-6.945 1.307-13.299 3-20"/><path fill="#B89E85" d="m116 55 1 2c2.025.257 4.054.508 6.09.656C125 58 125 58 127 60c.25 3 .25 3 0 6-2 2-2 2-5.125 2.125L119 68l-.812-1.937c-1.075-2.394-1.075-2.394-4.188-3.063-.875-1.812-.875-1.812-1-4 1.438-2.25 1.438-2.25 3-4"/><path fill="#2A4C27" d="M166 34h2l2 5-2.187 2.45q-1.408 1.618-2.813 3.237l-1.445 1.608c-2.201 2.562-3.5 4.193-3.868 7.6L160 56c-2-1-2-1-3.562-4.125C153.789 46.974 149.477 44.147 145 41c1.8-.637 1.8-.637 4-1 5.549 3.808 5.549 3.808 6.875 7.313L156 49h2l1-5h2l.813-2.75c1.088-2.98 2.05-4.936 4.187-7.25"/><path fill="#704825" d="M82 61c3.356 2.237 3.193 2.425 4 6l2 1c.858 2.979 1.157 5.907 1 9-1.937 2.563-1.937 2.563-4 4l-1-4-5 1v2l-5 1 1.277-1.11c4.842-4.784 5.443-8.71 5.618-15.413C81 62 81 62 82 61"/><path fill="#A4A495" d="M79 43c2.867.573 3.861.861 6 3v4h2c1.125 5.75 1.125 5.75 0 8-2.712-1.037-5.196-2.113-7.719-3.562-3.82-1.674-6.507-1.743-10.656-1.626l-3.773.083L62 53c3.404-2.27 5.165-2.365 9.188-2.625l3.292-.227L77 50z"/><path fill="#97B04E" d="m59 118-4 1v2h2l.883 2.457c2.52 6.806 5.332 13.122 8.98 19.398C68 145 68 145 68 147l-5-1-.55-1.977c-2.045-7.297-2.045-7.297-5.45-14.023-2.05-.805-2.05-.805-4-1-1.607-3.215-1.057-6.436-1-10 2.463-1.231 4.28-1.072 7-1"/><path fill="#799646" d="m126 161 2 1c-5.366 7.603-12.106 11.718-21 14l-3 .875c-7.493.312-13.304-3.39-19-7.875l3-1 2.75 1.938c5.816 3.531 12.725 2.847 19.25 2.062 6.727-2.07 11.395-5.789 16-11"/><path fill="#908C76" d="M85 128a2436 2436 0 0 1 30 2c.188 3.375.188 3.375 0 7-3 2-3 2-5.562 1.813C107 138 107 138 105 135v-3l-20-3z"/><path fill="#65783C" d="M127 120c-.7 1.898-.7 1.898-2 4-3.486 1.588-7.26 2.218-11 3l-3.02.664c-9.12 1.72-17.805 1.15-26.98.336v-1l3.656-.148 4.844-.227c.791-.03 1.583-.062 2.398-.094 6.628-.326 12.454-1.396 18.602-4.031 9.962-4.27 9.962-4.27 13.5-2.5"/><path fill="#1B3423" d="M142 17c4.875 1.75 4.875 1.75 6 4-.25 2.565-.56 5.079-.937 7.625l-.303 2.14q-.373 2.618-.76 5.235l-3 1-2-1c-1.486-6.688-.474-12.374 1-19"/><path fill="#DB9F9E" d="M83 157h8c2.326 3.634 2.163 6.77 2 11-2.187.813-2.187.813-5 1-2.812-2-2.812-2-5-5-.312-3.812-.312-3.812 0-7"/><path fill="#BCB9AF" d="M66 60c1 1 1 1 1.063 4.563L67 68c-4.28 2.14-9.49 1.093-14 0l3-1 1-6-2-1c3.978-1.053 6.992-.91 11 0"/><path fill="#B4843C" d="M84 76c.75 1.688.75 1.688 1 4-2.221 3.455-4.19 5.51-8 7-2.84.3-2.84.3-5.937.313l-3.09.05C64.59 86.95 62.718 86.023 60 84c-.812-2.187-.812-2.187-1-4l7 2v2c7.154-.318 11.507-1.74 16.875-6.75z"/><path fill="#A6AF6B" d="M63 121c2.981-.175 5.03.01 7.875 1 3.52 1.126 6.452 1.147 10.125 1l-4-2c2.313.113 4.626.241 6.938.375l3.902.21L91 122l1 2 3 2-3.14.184-4.11.254-2.066.119c-3.993.245-3.993.245-7.887 1.1-2.588.494-3.982-.417-6.297-1.594-3.344-1.69-4.575-2.063-8.5-2.063z"/><path fill="#B1C76D" d="M90 98c-.45 4.95-1.573 6.573-5 10-.803 3.145-.803 3.145-1 6l-5 1-1-2c1.215-2.383 1.215-2.383 2.938-5.125l1.714-2.758L84 103l-2.355 1.023c-2.833 1.047-3.878 1.002-6.645-.023l2.813-1.312c3.12-1.415 3.12-1.415 4.687-3.376 2.328-2.036 4.535-1.51 7.5-1.312"/><path fill="#5D8449" d="M76 33h4a749 749 0 0 1 4 6c2.585 1.268 2.585 1.268 5 2l1 2c-2.812.625-2.812.625-6 1l-3-2c-7.278-1.373-14.618-1.093-22-1 2-2 2-2 5.477-2.195q2.074.02 4.148.07l2.14.027c1.746.024 3.49.06 5.235.098l-.562-2.437L75 34z"/><path fill="#BCBAA5" d="M81 128q4.032.427 8.063.875l2.279.238c4.742.534 9.18 1.196 13.658 2.887 1.75 2.254 2.126 4.224 3 7-6.625.125-6.625.125-10-1v-5l-1.687-.367A475 475 0 0 1 81 129z"/><path fill="#1E2C16" d="M146 112h3c.39 5.564.125 8.409-2.992 13.227-1.079 1.897-1.546 3.521-2.008 5.648-1.02 4.585-2.47 9.141-5 13.125-2.133 1.258-2.133 1.258-4 2l1.137-3.008q2.029-5.384 4.037-10.776a2378 2378 0 0 1 1.6-4.283c.708-1.892 1.405-3.787 2.101-5.683l1.242-3.36c1.078-3.024 1.078-3.024.883-6.89"/><path fill="#42653E" d="M78 41c2.763.523 5.326 1.109 8 2l2.5-.187C91 43 91 43 92.813 45L94 47h-2l1.375 2.188C95.795 53.376 97 56.112 97 61c-3-1-3-1-4.14-3.074l-1.11-2.614C88.647 48.76 84.5 45.073 78 42z"/><path fill="#D8E19F" d="m77 107-2 8H63l1-5c4.42-2.514 7.944-3.37 13-3"/><path fill="#244720" d="M97 54c2.035 1.667 2.917 2.582 3.436 5.201.074 2.79.133 5.571.126 8.362v3.012c-.156 6.638-1.011 11.497-4.957 17.01C94 89 94 89 91 89l1.059-2.082 1.379-2.73 1.37-2.708c1.79-3.726 2.313-6.497 2.29-10.585l-.01-2.979-.025-3.103-.014-3.14Q97.03 57.838 97 54"/><path fill="#92977E" d="m85 82 3 1v2h-2l-.25 1.688c-1.415 4.362-3.91 6.787-7.75 9.187-3.018 1.132-4.093 1.355-7 .125l2.938-1.687c3.276-1.942 3.276-1.942 3.562-4.813.5-2.5.5-2.5 3.5-4.75L84 83z"/><path fill="#663D24" d="m60 53 3 1c1.458.02 2.918-.005 4.375-.062 3.666-.054 6.31.351 9.625 2.062l-1 2-2.117-.07-2.758-.055-2.742-.07C65.812 57.757 65.812 57.757 64 60c-2.164.195-2.164.195-4.625.125l-2.477-.055L55 60c1.36-2.86 2.645-4.86 5-7"/><path fill="#152918" d="m102.188 5.938 3.855.027L109 6v1H99l.5 2.063c.57 3.353.567 6.54.5 9.937h-2l-1-4-3 4-2-12c3.56-1.187 6.438-1.097 10.188-1.062"/><path fill="#517B4E" d="M101 7h7c-.675 7.825-2.269 15.346-4 23h-1l.07-2.922.055-3.828.07-3.797c-.184-3.257-.603-4.717-2.195-7.453-.125-2.75-.125-2.75 0-5"/><path fill="#628D3C" d="M67 101c-1.875 3.875-1.875 3.875-3 5l3 2c-5.075 1.263-9.728 2.27-15 2 1.496-3.808 3.66-5.694 7-8 2.913-1.06 4.784-1 8-1"/><path fill="#A7AE8F" d="m140 87-2 3v3c-4.26 2.84-8.002 2.403-13 2-3.625-1-3.625-1-6-2 2.809-.936 5.204-.992 8.125-.875L131 92l2-3-7-1v-1q2.655-.291 5.313-.562l2.988-.317C137 86 137 86 140 87"/><path fill="#CB7677" d="M87.25 153.688c3.75.312 3.75.312 6.438 1.75 4.925 2.323 9.926 2.31 15.312 2.562-2.139 2.139-3.133 2.427-6 3v-2h-6l-1 2-2-1.437c-3.793-1.976-6.755-2.203-11-2.563v5h-1c-.125-2.875-.125-2.875 0-6 2-2 2-2 5.25-2.312"/><path fill="#78451F" d="M135 53h4v2h2l.313 1.875c.562 2.49.562 2.49 3.687 4.125 1.624 4.444 2.23 8.283 2 13l-1-3h-2l-1 2-.008-1.687c-.298-5.887-1.794-9.12-5.617-13.586C136 56 136 56 135 53"/><path fill="#57321A" d="M72 54c8.31.959 8.31.959 11 3 1.64 2.278 2.767 4.442 4 7l-1 2-4-4-2 2v-2c-3.047-1.694-5.828-2.495-9.25-3.125l-2.703-.508L66 58v-1h10l-4-2z"/><path fill="#D3D6C0" d="M124 87c2.383.023 2.383.023 5.125.375l2.758.336L134 88c-1 2.5-1 2.5-3 5-5.44.635-9.881-.12-15-2l-1-2 3.375.125c3.669.286 3.669.286 5.625-2.125"/><path fill="#55873B" d="M102 76c2 3 2 3 3 6-4.75 3-4.75 3-7 3l-.187 1.688C96.656 89.98 94.535 91.642 92 94l-2.312 2.313L88 98l-2-1 1.355-1.469c3.7-4.103 6.785-8.093 9.407-12.965C98.334 80.577 99.54 80.368 102 80z"/><path fill="#969892" d="m142 40 3 1v2h2c1.998 4.12 2.178 7.452 2 12-1.75.75-1.75.75-4 1-2.25-1.937-2.25-1.937-4-4l2-1 .063-3.812.035-2.145c-.015-2.246-.015-2.246-1.098-5.043"/><path fill="#C5C7B1" d="m65 89 8 1c-4.75 5.875-4.75 5.875-7 7a73 73 0 0 1-4.875.188l-2.617.042C55.876 96.99 54.26 96.33 52 95l1.828-.078c5.256-.333 5.256-.333 9.734-2.922 1.535-1.725 1.535-1.725 1.438-3"/><path fill="#A2B151" d="M82 178c3.192 2.966 5.46 6.05 7.75 9.75l1.86 2.984L93 193c-10.558.185-10.558.185-15-1v-1h8l-.875-2.336L84 185.625l-1.125-3.023C82 180 82 180 82 178"/><path fill="#BB8237" d="m143 76 1 3c-5.552 5.852-5.552 5.852-10.191 6.133l-2.371-.008-2.38.008C127 85 127 85 125 84v-2l2.773-.332 3.602-.48 3.586-.458c3.334-.437 3.334-.437 5.039-3.73z"/><path fill="#87A459" d="m84 93 2 1c-6.305 4.29-12.112 7.478-20 7v-1l-7-1v-1l3.29-.367 4.335-.508 2.16-.238C73.087 96.374 76.915 95.52 81 94z"/><path fill="#704A30" d="M112 63c1.465 2.796 2.622 5.57 3.625 8.563.26.764.52 1.528.79 2.316C117 76 117 76 117 79l4 2v1c-2.187.5-2.187.5-5 0-3.918-3.875-5.32-7.999-5.375-13.437.173-4.361.173-4.361 1.375-5.563"/><path fill="#49682A" d="m126 166 1 2c-.713 1.788-.713 1.788-1.871 3.914-.41.76-.819 1.521-1.24 2.305l-1.326 2.406-1.315 2.43A965 965 0 0 1 118 185c-.586-1.844-.586-1.844-1-4 1.375-2.5 1.375-2.5 3-5 .696-2.191.696-2.191 1-4l-6 3c1.496-3.808 3.66-5.694 7-8 2.313-.75 2.313-.75 4-1"/><path fill="#613537" d="M110 153c7.9-.456 7.9-.456 11.563 1.063 2.242 3.023 1.879 5.278 1.437 8.937-1.25 2.875-1.25 2.875-3 5-2.187.813-2.187.813-4 1 .613-2.962 1.254-4.38 3-7 .167-3.125.167-3.125 0-6l-9-2z"/><path fill="#D0DB8F" d="M84 103c-1.452 3.798-2.929 7.495-5 11-2.187.875-2.187.875-4 1 .523-2.763 1.109-5.326 2-8h-5c3.86-2.573 7.332-4 12-4"/><path fill="#B1B69C" d="M79 89c-1.508 4.221-4.213 5.803-8 8-2.972.954-5.638 1.108-8.75 1.063l-2.422-.028L58 98v-1l2.047-.297C66.96 95.63 66.96 95.63 72 91l-5-1v-1c8.571-1.286 8.571-1.286 12 0"/><path fill="#4C7650" d="m55 17 2 1c.426 2.318.74 4.657 1 7q.278 2.22.563 4.438L59 33h3v4l-5 1-.148-1.941C56.396 30.788 55.64 26.03 54 21h-2v-2z"/><path fill="#85603A" d="m84 80 2 2c-5.48 4.843-9.452 7.284-17 7.313l-3.062.05C62.618 88.953 60.72 87.896 58 86l4-2 3 2c2.801.356 2.801.356 5.875.313l3.117.05C77.42 85.95 79.245 85.05 82 83z"/><path fill="#8CB05F" d="M76 37v2l-3 .148c-6.855.376-13.396.83-20 2.852l1-3c6.728-3.187 14.838-4.387 22-2"/><path fill="#96B659" d="M71 105c2.063.438 2.063.438 4 1-7.509 3.735-15.382 6.318-23.734 7.332L49 114l-2 4 1-10h2v4l1.836-.805c5.375-2.265 10.475-3.84 16.23-4.8 1.932-.21 1.932-.21 2.934-1.395"/><path fill="#2F4821" d="M132 104q4.438.133 8.875.313l2.55.068 2.442.107 2.254.08C150 105 150 105 152 108l-2.687-.062c-3.186-.088-3.186-.088-5.625.75-4.221.49-7.782-1.182-11.688-2.688z"/><path fill="#A2B57C" d="M36 63h1l.078 2.273C37.836 78.947 42.493 86.55 52 96c-4.196-1.352-6.31-3.076-9.125-6.437-2.578-3.118-2.578-3.118-5.473-5.922-1.828-2.14-1.751-3.307-1.695-6.09l.03-2.569.075-2.67.042-2.705Q35.907 66.303 36 63"/><path fill="#76A44B" d="M103 46v12h1v12h-1v-7h-2l-.043-1.977C100.607 54.61 99.617 51.5 95 47c2-1 2-1 8-1"/><path fill="#88A651" d="M124 173c1.561 4.684-.481 8.444-2 13l-.875 3.063L120 191c-2.57.621-2.57.621-5 1a3386 3386 0 0 1 3.375-7.812l.96-2.237.938-2.158.857-1.984C122 176 122 176 124 173"/><path fill="#90582C" d="m79 78 3 1c-6.299 5.139-6.299 5.139-11.625 5.063l-2.477-.028L66 84v-2l-6-1-1 3-1-5 1.98.496c3.79.632 7.505.611 11.333.567l2.244-.014Q76.278 80.029 79 80z"/><path fill="#D4DF92" d="M64 118c7.12-.809 12.621 2.067 19 5v1c-6.357.303-12.276.105-18-3z"/><path fill="#457031" d="M87 89h3c-1.456 5.34-3.279 8.244-7.937 11.25-2.456.893-4.47.894-7.063.75 2.782-3.273 6.28-4.964 10-7l-4 1z"/><path fill="#B96F6E" d="M113 160c1 3 1 3 .313 5.262-1.55 2.865-2.755 4.686-5.313 6.738-5.11.8-9.874.528-15 0v-1l2.484-.297 3.266-.453 3.234-.422c5.265-1.446 7.768-5.652 11.016-9.828"/><path fill="#653F26" d="M124 51v2h6v2l-6 1v2l-7-1c.25-1.875.25-1.875 1-4 2.147-1.385 3.439-2 6-2"/><path fill="#719153" d="m128.875 34.875 3.492.055L135 35v1l-2.52.332-3.292.48-3.27.458c-3.108.778-3.896 1.377-5.918 3.73a89 89 0 0 1-4 2.563c-2.37 1.44-4.69 2.898-7 4.437 1.517-4.55 5.169-6.5 9-9l-2-2c4.463-1.723 8.102-2.222 12.875-2.125"/><path fill="#64803B" d="m131 160 1 3-2 3-.312 3.125c-.883 4.975-3.068 8.611-5.688 12.875-1.316-4.36-.598-7.81 1-12 1.846-3.437 3.87-6.732 6-10"/><path fill="#4D6D32" d="M138 113c0 3 0 3-1.437 5-3.53 2.755-7.293 3.796-11.563 5 2.333-5.65 2.333-5.65 5.375-7.25L133 115l2.813-1.125z"/><path fill="#618E3E" d="m131 95 8 1c-1.51 3.02-2.88 3.627-6 5-3.69.357-7.317.457-11 0l-2-2 12-2z"/><path fill="#76A243" d="M115 95q3.938-.118 7.875-.187l2.262-.077c2.168-.029 2.168-.029 5.863.264l2 3c-3.031.863-5.85 1.221-9 1.313l-2.562.113c-3.204-.56-4.37-1.999-6.438-4.426"/><path fill="#848973" d="M151 87v3c-10.374 5.74-10.374 5.74-16 5 3.706-4.268 6.512-5.758 12-7 2-1 2-1 4-1"/><path fill="#BED376" d="m40 87 1.426 1.242 1.886 1.633 1.864 1.617C49.37 94.96 52.808 95.808 58 97l-1 2c-4.142.066-7.651-.056-11.121-2.484C42.795 93.515 40.763 91.323 40 87"/><path fill="#496122" d="M85 180c2.97 2.8 5.122 5.192 7.125 8.75 1.743 2.6 2.537 3.168 5.637 3.918 2.762.244 5.466.366 8.238.332v1H87v-1l5-1-1.531-2.117-1.969-2.758-1.969-2.742C85 182 85 182 85 180"/><path fill="#797D7B" d="M145 41c4.875 2.75 4.875 2.75 6 5 .096 1.664.13 3.333.125 5l.008 2.688C151 56 151 56 150 58l-5-1 2-2h1c.082-4.161-.018-7.947-1-12h-2z"/><path fill="#183118" d="m96 27 1 3h2l1-3c.936 3.155 1.106 5.966 1.063 9.25l-.028 2.703L101 41l-2 1c-1.913-3.266-2.357-5.994-2.625-9.75l-.227-2.984z"/><path fill="#A3A8A9" d="m125 59 2 1c.125 2.875.125 2.875 0 6-2 2-2 2-5.125 2.125L119 68l-2-4h7z"/><path fill="#254728" d="M100 19h1c1.177 4.625 1.114 9.079 1.063 13.813l-.014 2.388q-.02 2.9-.049 5.799h2c-.312 1.938-.312 1.938-1 4l-3 1c-2-3-2-3-1.625-5.187L99 39l1 2z"/><path fill="#162315" d="M43 32h2c2.666 4.554 3.316 7.74 3 13l-3 1c-2.28-3.42-2.22-4.682-2.125-8.687l.055-3.012z"/><path fill="#55321A" d="M141 62c2.594 2.594 2.327 3.832 2.375 7.438l.086 2.933C143 75 143 75 141.148 76.836c-2.563 1.389-4.274 1.403-7.148 1.164l1.875-.75c2.583-1.52 3.017-2.498 4.125-5.25.45-2.585.45-2.585.625-5.25l.227-2.703z"/><path fill="#8BA334" d="M76 167c7.842 6.445 7.842 6.445 10 10v2h2l1 4c-4.921-1.379-6.611-3.767-9.312-8l-2.114-3.25C76 169 76 169 76 167"/><path fill="#777463" d="M124 130c.688 2.063.688 2.063 1 4-3.228 2.152-4.284 2.2-8 2v-6c3.01-.934 3.867-1.044 7 0"/><path fill="#58351B" d="M141 56c2.898 1 3.952 1.929 5.688 4.5 1.855 4.948 3.486 10.762 1.324 15.805L147 78c-1.076-3.864-1.383-7.676-1.719-11.66-.22-2.49-.22-2.49-1.281-5.34l-3-2z"/><path fill="#757D67" d="m93 78 1 2c-2.581 5.97-6.91 10.128-12 14v-3h2l2-6h2v-2h2v-2h2z"/><path fill="#654329" d="m51 68 1 2h2l.402 2.047.535 2.703.528 2.672c.459 2.21.968 4.393 1.535 6.578-3.089-2.78-4.877-4.975-6-9a97 97 0 0 1 0-7"/><path fill="#4C2C1B" d="m81 64 2 1v12l-4 1v2l-5 1 1.277-1.18C80.117 74.878 80.973 70.823 81 64"/><path fill="#88A63A" d="m78 162 1.355 1.172c3.497 3.012 7.02 5.971 10.645 8.828l-1 3v-2l-2.75-.125C83 172 83 172 80.688 169.188c-1.362-2.573-2.08-4.416-2.688-7.188"/><path fill="#9F5F59" d="m116 161 1 3c-.926 1.824-.926 1.824-2.312 3.688l-1.364 1.886L112 171h-2v2H95v-1l2.633.027c6.615.015 6.615.015 12.496-2.547A39 39 0 0 0 114 164z"/><path fill="#4E662E" d="M127 174h2c-.783 3.656-2.251 6.596-4 9.875-1.242 2.64-2.116 5.347-3 8.125l-4-1h2l.309-2.105c.808-3.386 2.158-6.118 3.754-9.208l1.66-3.238z"/><path fill="#645332" d="M144 71h2c1.321 5.109 1.321 5.109 1 8-1.999 2.501-4.336 4.246-7 6l-2-1c1.375-1.5 1.375-1.5 3-3h2v-4l-2-1c1.375-2.5 1.375-2.5 3-5"/><path fill="#496731" d="m135 98 3 1-1 2 7 2c-3.477 1.159-5.856.962-9.5.688-1.145-.08-2.29-.158-3.469-.239C128 103 128 103 125 101l3.875-.375c3.473-.315 3.473-.315 6.125-2.625"/><path fill="#5D875E" d="M56 19h2c4.592 9.41 4.592 9.41 4 14h-3a647 647 0 0 1-1.5-4.75l-.844-2.672C56 23 56 23 56 19"/><path fill="#293A1E" d="M143 129c1.048 2.714 1.03 3.903.145 6.727l-1.333 2.898-1.292 2.914c-1.628 2.635-2.656 3.418-5.52 4.461a665 665 0 0 1 1.875-5.437l1.055-3.06C139 135 139 135 141 134a78 78 0 0 0 2-5"/><path fill="#B17532" d="m59 80 7 2v2h9v1h-7v2c-4.288-.476-6.266-1.659-9-5z"/><path fill="#5B351C" d="M126 52c7.11-.723 7.11-.723 9.645 1.336C137 55 137 55 139 58l-1 2-2.062-1.437c-3.356-1.786-6.18-2.195-9.938-2.563l4-1v-2z"/><path fill="#ADA9A0" d="m137 47 5 2 2-2-1 5-17-2v-1l2.152-.184 2.786-.254c.916-.08 1.833-.162 2.777-.246 2.247-.076 2.247-.076 3.285-1.316"/><path fill="#758D3A" d="M68 147c3.451 4.247 6.733 8.611 10 13l-1 2c-1.5-1.375-1.5-1.375-3-3v-2l-3-1v-2l-3 1z"/><path fill="#849B44" d="M62 136c2.972 2.548 4.415 5.453 6 9v2c-2.437-.375-2.437-.375-5-1-1.607-3.215-1.057-6.436-1-10"/><path fill="#4C663C" d="m147 91 2 1v3l-11 3-2-3 1.898-.621 2.477-.817 2.46-.808c2.175-.706 2.175-.706 4.165-1.754"/><path fill="#939999" d="m65 60 2 1v7l-7 1-1-3 6-2z"/><path fill="#35221B" d="M112 152c4.098-.208 7.072-.336 10.938 1.063C125 155 125 155 126 158.5c0 3.5 0 3.5-1.437 5.438L123 165l-2-1 1-1c.333-3.458.333-3.458 0-7-3.445-2.296-5.938-2.54-10-3z"/><path fill="#914D52" d="m117 154 1 7-.988-1.984c-1.989-2.417-1.989-2.417-5.805-2.407q-2.198.041-4.394.141l-2.272.055c-1.848.047-3.694.119-5.541.195v-1c6.12-1.405 11.717-2.233 18-2"/><path fill="#7CA441" d="m63 101-1.625.688c-3.632 2.007-7.49 4.54-9.375 8.312l4 1-6 1c.266-4.526 2.131-6.839 5.3-9.84 2.566-1.751 4.705-1.588 7.7-1.16"/><path fill="#DCDFCE" d="m64 89 2 2c-3.161 3.372-5.555 4.34-10.062 4.5-3.58-.128-4.637-.27-7.563-2.5L47 91l1.793.473C54.903 93.08 54.903 93.08 61 92c1.794-1.458 1.794-1.458 3-3"/><path fill="#ADBC4B" d="M69 154c2 0 2 0 3.5 1.063 2.118 2.735 2.684 5.611 3.5 8.937l-3 1-5-10z"/><path fill="#6D923E" d="M127 120c-12.131 6.532-12.131 6.532-17.273 5.578L108 125c14.844-7.078 14.844-7.078 19-5"/><path fill="#BABEBB" d="M121 58h4l-1 6h-6c.573-2.867.861-3.861 3-6"/><path fill="#264A2E" d="M51 24h1l.148 1.863.227 2.45c.07.8.14 1.6.21 2.425.31 2.534.31 2.534 2.415 5.262-.187 2.125-.187 2.125-1 4l-3 1z"/><path fill="#92823F" d="M85 168c2.556.492 4.29 1.17 6.563 2.5 4.733 2.065 9.322 2.236 14.437 2.5v1c-11.14 1.868-11.14 1.868-15.645-.234C88.393 172.28 86.64 170.833 85 169z"/><path fill="#768C5F" d="M59 40v2l-1.793.77C52.964 44.618 48.901 46.483 45 49v-3c4.421-4.421 7.625-6 14-6"/><path fill="#95BA65" d="M119 39a225 225 0 0 1-3.687 3l-2.075 1.688c-2.626 1.54-4.244 1.564-7.238 1.312 7.253-7.79 7.253-7.79 13-6"/><path fill="#A9BD53" d="M85 122h6l1 2 3 2H77v-1l10-1z"/><path fill="#6C3C20" d="M135 53h4v2h2l.375 1.875c.497 2.316.497 2.316 2.625 4.125l-2 2a496 496 0 0 1-2.937-3.312l-1.653-1.864C136 56 136 56 135 53"/><path fill="#A8A391" d="M98 131c3.313.063 3.313.063 7 1 1.59 2.281 2.165 4.299 3 7h-7l2-1v-5l-5-1z"/><path fill="#B2C462" d="m60 110 2 1-3 4 3 2c.688 2.125.688 2.125 1 4-1.937-.812-1.937-.812-4-2l-1-3h-2l1-5z"/><path fill="#6D8C4E" d="m84 93 2 1c-6.56 4.925-6.56 4.925-10.09 5.11C74 98.812 74 98.812 71 98c3.229-1.738 6.51-2.886 10-4z"/><path fill="#8BBA73" d="M32 73c3.648 3.883 4.585 6.712 5 12h-2v-2h-2l-.437-2.375c-.441-2.59-.441-2.59-1.563-4.625z"/><path fill="#9B6C46" d="M112 61c2 0 2 0 4.25 2.125C118 66 118 66 117.25 69.313L116 72c-2.313-2.313-2.496-3.479-3.125-6.625l-.508-2.477z"/><path fill="#213D29" d="M96 7h3c.982 4.053 1.082 7.839 1 12h-2c-1.138-4.266-2-7.565-2-12"/><path fill="#CCDA80" d="m62 110 2 1-1 4h10v1H59c0-3 0-3 1.5-4.687z"/><path fill="#DAD5C5" d="m54 59 1 2h2l-1 6h-5c1.875-5.75 1.875-5.75 3-8"/><path fill="#83806D" d="M107 130h8v7l-3 1-.25-2.875c-.4-3.23-.4-3.23-2.812-4.5z"/><path fill="#E6E4D4" d="m70 126 6 1-2 4h-6v-3h2z"/><path fill="#D1D2BF" d="m65 89 5 1c-3.244 3.475-5.714 5.827-10.578 6.195l-2.672-.07-2.703-.055L52 96v-1l1.828-.078c5.256-.333 5.256-.333 9.734-2.922 1.535-1.725 1.535-1.725 1.438-3"/><path fill="#C6C6AF" d="M134 89c-1 2-1 2-3 4-2.754.37-5.204.183-8 0 2.06-4.12 6.882-5.373 11-4"/><path fill="#224421" d="M166 34h2l2 5-6 5-1-2q1.481-2.51 3-5z"/><path fill="#BCCC5E" d="M57 130c3.312 1.656 3.77 4.645 5 8 .188 2.938.188 2.938 0 5h-2c-3.429-8.429-3.429-8.429-3-13"/><path fill="#6C5A39" d="m84 80 2 2c-6.364 5.624-10.48 7.289-19 7v-1l2.012-.332C75.944 86.451 75.944 86.451 82 83z"/><path fill="#8A8478" d="M151 78v2l-5.273 2.832c-2.032 1.216-2.032 1.216-3.727 4.168l-4-2 2.813-1.812c3.077-1.941 3.077-1.941 4.812-3.938C147 78 147 78 151 78"/><path fill="#D4A54C" d="m143 76 1 3c-3.323 3.938-3.323 3.938-6.75 4.25L135 83c4.625-5.875 4.625-5.875 8-7"/><path fill="#3A2A1B" d="M81 157h1l.875 3.25c.853 2.844 1.689 5.185 3.125 7.75-3.362-1.44-5.592-3.248-8-6v-2h2z"/><path fill="#646150" d="m128 124 2 1c-3.982 2.939-6.994 4.782-12 5-2.18-.992-2.18-.992-4-2l1.793-.367c3.515-.746 6.805-1.47 10.144-2.82z"/><path fill="#AAA991" d="M79 89c-.75 1.938-.75 1.938-2 4-2.125.75-2.125.75-4 1l1-3-7-1v-1c8.571-1.286 8.571-1.286 12 0"/><path fill="#99B769" d="M37 87c3.152 1.576 3.678 3.782 5 7 .516 2.992.805 5.972 1 9-2.802-3.233-3.741-6.104-4.687-10.25l-.762-3.266z"/><path fill="#34602F" d="M92 47c1.813.188 1.813.188 4 1 1.875 2.313 1.875 2.313 3 5-.812 2.313-.812 2.313-2 4l-.812-1.812c-1.068-2.23-1.068-2.23-2.813-3.75C92 50 92 50 92 47"/><path fill="#233527" d="M145 40c2.125-.437 2.125-.437 5 0 2.276 2.127 4.146 4.502 6 7l-1 2a2307636891.052 2307636891.052 0 0 1-5.176-4.395A88 88 0 0 1 145 40"/><path fill="#8EA742" d="M95 174h15c-3.29 2.194-5.093 2.694-9 3-3.375-.937-3.375-.937-6-2z"/><path fill="#475F2B" d="M56.563 117.938 59 118l-4 1v2h2l1 5-5-2a100 100 0 0 1 0-5c1-1 1-1 3.563-1.062"/><path fill="#C6D572" d="M62 116h11c-3.767 1.883-5.03 2.22-9 2l1 3-4-2z"/><path fill="#3E5F2E" d="M128 103h13v1h-9l1 3h-5z"/><path fill="#628E41" d="M97 86c0 3 0 3-2.25 5.438L92 94l-2.312 2.313L88 98l-2-1a717 717 0 0 1 3.25-3.812l1.828-2.145C92.924 89.081 94.8 87.543 97 86"/><path fill="#714422" d="m79 78 3 1c-5.557 4.785-5.557 4.785-9 5-2.75-.937-2.75-.937-5-2v-1l11-1z"/><path fill="#4D7342" d="M78 41c2.763.523 5.326 1.109 8 2 1.666.039 3.334.045 5 0l1 2c-7.118 1.473-7.118 1.473-11.5-.875L78 42z"/><path fill="#BFCF6B" d="M77 121c4.649-.324 7.224.224 11 3v1H77l4-2z"/><path fill="#C3D482" d="m84 103-2 5h-2v-2l-8 1c3.86-2.573 7.332-4 12-4"/><path fill="#965E32" d="m117 67 2 1-1 7h2v2h-2l-1 2c-2.088-3.439-2.088-3.439-1.687-6l.687-2 .563-2.25z"/><path fill="#728D52" d="M101 54c3.131 3.386 3.336 5.711 3.188 10.25l-.083 3.266L104 70h-1v-7h-2z"/><path fill="#97998B" d="M85 50h2c1.125 5.75 1.125 5.75 0 8-4.875-1.75-4.875-1.75-6-4l4-2z"/><path fill="#97BA5B" d="m104 45 2 1-1.062 2.063c-1.164 3.646-.666 6.222.062 9.937l-3 1c-.054-1.77-.093-3.541-.125-5.312l-.07-2.989C102 48 102 48 104 45"/><path fill="#7DA554" d="M64 36c8.571-.143 8.571-.143 12 1v2H65z"/><path fill="#0B1F0F" d="M96 20h2c1.607 3.215 1.057 6.436 1 10h-2c-1.158-3.473-1.069-6.36-1-10"/><path fill="#69935F" d="M79 12h1a402 402 0 0 1-.375 4.938c-.07.916-.14 1.833-.21 2.777-.138.754-.274 1.508-.415 2.285l-2 1c-1.062-1.875-1.062-1.875-2-4l1-2h2z"/><path fill="#684135" d="m120 161 2 4a91 91 0 0 1-4 4h-2c.6-3.356 1.846-5.378 4-8"/><path fill="#E4A8AB" d="M84 159c2.875-.125 2.875-.125 6 0l2 2h-4l-1 3-3-1z"/><path fill="#5C793F" d="M132 152c1 3 1 3 .223 4.824L129 162l-3-2z"/><path fill="#BECF5D" d="M87 113v3c-2.75.917-4.36 1.109-7.187 1.063L76 117c3.687-2.458 6.697-3.012 11-4"/><path fill="#B6B39D" d="M126 87h11c-2.25 4.5-2.25 4.5-6 6l2-4-7-1z"/><path fill="#DADFCD" d="M109 82h3v3h4l1 4c-3.786-.54-5.554-2.117-8-5z"/><path fill="#869D47" d="M118 171c-5.17 4.062-5.17 4.062-9.375 3.75L106 174c8.217-4.26 8.217-4.26 12-3"/><path fill="#B3C256" d="m63 146 5 1v8c-2.325-2.853-3.75-5.54-5-9"/><path fill="#77915B" d="M102 71h3c2.429 7.429 2.429 7.429 1 11l-2-6h-2z"/><path fill="#345D2B" d="M109 41v2c-6.625 4-6.625 4-10 4l1-3 3 1 1-3c3-1 3-1 5-1"/><path fill="#C67D7B" d="m107 165 2 1c-1.562 2-1.562 2-4 4-3.75.25-3.75.25-7 0l4-3v2z"/><path fill="#7D9B41" d="M52 119h1v5l5 2v3l-6-2z"/><path fill="#CFDB81" d="M64 118c5.28-.305 6.577-.317 11 3H65z"/><path fill="#6A963C" d="M67 102c-3.663 2.478-6.61 3.49-11 4 2.425-3.759 2.425-3.759 4.938-4.812 2.266-.207 3.906.12 6.062.812"/><path fill="#B1C86D" d="M47 96c1.458-.054 2.916-.093 4.375-.125l2.46-.07C56 96 56 96 58 98c-4.293 1.263-6.878.63-11-1z"/><path fill="#7F6855" d="m51 67 12 2v1h-5l-1 2v-2h-5z"/><path fill="#745238" d="m65 57-1 3h-9c1.987-3.974 6.082-3.087 10-3"/><path fill="#081108" d="M161 32h1v5l2 1a159 159 0 0 1-3 5h-1c-.143-7.429-.143-7.429 1-11"/><path fill="#406D3E" d="M121 32c2.03.253 4.05.577 6.063.938l3.347.59L133 34v1l-13 1c0-3 0-3 1-4"/><path fill="#83A973" d="m84 8 2 1v10c-3.144-4.192-3.438-5.069-3-10z"/><path fill="#96B14D" d="M48 108h2v4l2 1-3 1-2 4z"/><path fill="#526E40" d="M87 89h3c-.562 1.875-.562 1.875-2 4-3.625 1.25-3.625 1.25-7 2z"/><path fill="#7AA942" d="M104 85c-2.88 2.4-5.564 4.473-9 6 3.57-7.629 3.57-7.629 9-6"/><path fill="#BF8B3E" d="M77 84v3h-9v-2c6.75-1 6.75-1 9-1"/><path fill="#24482D" d="M110 7h5l-5 7c-1.044-3.133-.934-3.99 0-7"/><path fill="#4C632C" d="M131 163h2c-.7 3.147-1.76 6.026-3 9h-1c-.25-5.625-.25-5.625 2-9"/><path fill="#547B37" d="m135 98 3 1c-1.774 2.246-2.584 2.95-5.48 3.293l-2.708-.106-2.73-.082L125 102v-1l3.875-.375c3.473-.315 3.473-.315 6.125-2.625"/><path fill="#ADC761" d="m86 98 4 1-1 5-2-1 1-2-5 1 1-2h2z"/><path fill="#AA7630" d="M144 71h2v6c-3 0-3 0-5-1 1.375-2.5 1.375-2.5 3-5"/><path fill="#888E92" d="M126 60h1c.125 2.875.125 2.875 0 6-2 2-2 2-5.125 2.125L119 68c3.625-3 3.625-3 7-3z"/><path fill="#375035" d="M145.625 37.813C148 39 148 39 149 41c-5.538.37-5.538.37-7.875-1.5L140 38c3-1 3-1 5.625-.187"/><path fill="#BED06D" d="M88 101c-1.074 2.915-1.778 4.778-4 7l-1-6c2-1 2-1 5-1"/><path fill="#888B86" d="m147 47 2 1v7h-3z"/><path fill="#2E4332" d="M155 49h6l-1 7c-3.013-1.507-3.61-4.032-5-7"/><path fill="#6D9249" d="m131 95 8 1-1 2c-2.375.188-2.375.188-5 0z"/><path fill="#A8662C" d="m59 80 7 2v2c-1.812.688-1.812.688-4 1-1.75-1.312-1.75-1.312-3-3z"/><path fill="#4B6247" d="M92 54c2 0 2 0 3.625 1.25C97 57 97 57 97 61l-3-1c-1.187-3.062-1.187-3.062-2-6"/><path fill="#7F5A40" d="m117 54 1 2 6-1v3l-7-1z"/><path fill="#96B37A" d="m43 48 2 3-5 5c.75-5.75.75-5.75 3-8"/></svg>