<?xml version="1.0" encoding="UTF-8"?>
<svg xmlns="http://www.w3.org/2000/svg" xmlns:xlink="http://www.w3.org/1999/xlink" width="200px" height="200px" viewBox="0 0 200 200" version="1.1">
<g id="surface1">
<path style=" stroke:none;fill-rule:nonzero;fill:rgb(0%,0%,0%);fill-opacity:1;" d="M 85 3.101562 C 69.898438 5.398438 53.5 12.601562 40.199219 22.699219 C 24.300781 34.800781 11.898438 53.199219 5.800781 73.800781 C 3.601562 81.5 2.101562 102.199219 3.199219 112 C 5.800781 135.898438 19.199219 160.398438 38.101562 175.601562 C 67.898438 199.699219 107.699219 204.601562 141.800781 188.5 C 154.199219 182.601562 161.898438 177 171.601562 166.699219 C 181.300781 156.398438 188.199219 145.101562 192.601562 132.300781 C 196.699219 120.300781 198 112.398438 198 100 C 198 87.601562 196.699219 79.699219 192.601562 67.699219 C 186.601562 50.199219 174 33 158.699219 21.398438 C 150.5 15.199219 134.601562 7.699219 124 5 C 114.199219 2.5 95.199219 1.5 85 3.101562 Z M 140.699219 27.101562 C 147.199219 31.101562 153.101562 34.800781 153.800781 35.5 C 154.898438 36.5 147.398438 41.199219 114.898438 59.800781 C 92.800781 72.5 74.300781 82.699219 73.800781 82.398438 C 73.398438 82.101562 73 75.398438 73 67.398438 L 73 52.898438 L 78 49.800781 C 82.5 47 128.101562 20.300781 128.699219 20.101562 C 128.898438 20 134.300781 23.199219 140.699219 27.101562 Z M 156 100.601562 C 156 124.300781 155.699219 131 154.800781 130.898438 C 153.101562 130.898438 102.699219 101.5 102.300781 100.398438 C 102 99.300781 154.199219 69.101562 155.300781 69.699219 C 155.699219 69.898438 156 83.800781 156 100.601562 Z M 45 100.5 C 45 117.300781 44.699219 131 44.300781 131 C 43.898438 131 37.800781 127.601562 30.800781 123.398438 L 18 115.699219 L 18.199219 100.199219 L 18.5 84.601562 L 30.5 77.300781 C 37.101562 73.300781 43.101562 70 43.800781 70 C 44.699219 70 45 76.800781 45 100.5 Z M 115.398438 141.199219 C 136.699219 153.5 154.199219 164 154.199219 164.5 C 154.199219 165 148.398438 168.699219 141.199219 172.699219 L 128.199219 180 L 100.800781 164.199219 L 73.5 148.398438 L 73.199219 133.101562 C 73 118.800781 73.101562 117.800781 74.699219 118.300781 C 75.699219 118.5 94 128.898438 115.398438 141.199219 Z M 115.398438 141.199219 "/>
</g>
</svg>
