<?xml version="1.0" encoding="UTF-8"?>
<svg xmlns="http://www.w3.org/2000/svg" xmlns:xlink="http://www.w3.org/1999/xlink" width="200px" height="200px" viewBox="0 0 200 200" version="1.1">
<g id="surface1">
<path style=" stroke:none;fill-rule:nonzero;fill:rgb(0%,0%,0%);fill-opacity:1;" d="M 88 8.5 C 67.199219 11.898438 49 21.601562 34.699219 36.898438 C 27.300781 44.898438 23.800781 50.199219 19 60.199219 C 5.300781 88.800781 7.699219 123.398438 24.898438 149.699219 C 41.898438 175.398438 67.199219 190.101562 97.5 191.699219 C 123.398438 193 147.101562 184.398438 165.800781 166.601562 C 182.101562 151.101562 191.300781 132.699219 194.101562 110.101562 C 196.199219 93.699219 192.699219 73.300781 185.300781 58.5 C 171.800781 31.800781 145.699219 12.898438 116 8.5 C 104.601562 6.699219 99.300781 6.699219 88 8.5 Z M 141.199219 32.699219 C 147.199219 36.300781 152.199219 39.601562 152.398438 39.898438 C 152.699219 40.398438 80 82.699219 76.898438 83.800781 C 76.300781 84 76.101562 78.300781 76.199219 69.398438 L 76.5 54.699219 L 102 39.800781 C 116.101562 31.601562 128.199219 25.300781 129 25.601562 C 129.800781 25.898438 135.300781 29.101562 141.199219 32.699219 Z M 49 100 C 49 115.898438 48.601562 129 48.101562 129 C 47.699219 129 42.101562 125.898438 35.898438 122.101562 L 24.5 115.300781 L 24.199219 100.398438 L 24 85.5 L 35.699219 78.300781 C 42.199219 74.398438 47.800781 71.101562 48.300781 71.101562 C 48.699219 71 49 84 49 100 Z M 153 100.101562 C 153 123.800781 152.800781 129.101562 151.699219 128.800781 C 148.199219 128 102.101562 100.5 102.898438 99.699219 C 104 98.601562 151.300781 71.199219 152.300781 71.101562 C 152.699219 71 153 84.101562 153 100.101562 Z M 114.5 138.199219 C 133.699219 149.300781 150.300781 158.898438 151.300781 159.601562 C 153 160.699219 152 161.398438 142.800781 166.5 C 137.101562 169.699219 131.300781 173 129.898438 173.800781 C 127.300781 175.199219 126.601562 174.898438 101.601562 160.398438 L 76 145.601562 L 76 131.199219 C 76 118 76.101562 116.800781 77.699219 117.398438 C 78.699219 117.800781 95.199219 127.199219 114.5 138.199219 Z M 114.5 138.199219 "/>
</g>
</svg>
