<svg id="svg" version="1.1" xmlns="http://www.w3.org/2000/svg" xmlns:xlink="http://www.w3.org/1999/xlink" width="400" height="400" viewBox="0, 0, 400,400"><g id="svgg"><path id="path0" d="M181.870 0.606 C 174.894 1.237,164.382 2.768,158.206 4.054 C 152.451 5.253,141.475 8.028,141.221 8.348 C 141.116 8.481,139.227 9.168,137.023 9.876 C 130.536 11.958,122.961 14.831,119.275 16.607 C 117.385 17.517,112.927 19.653,109.368 21.354 C 105.808 23.055,102.802 24.597,102.688 24.781 C 102.574 24.965,100.662 26.148,98.440 27.410 C 93.410 30.265,89.183 32.837,88.931 33.195 C 88.826 33.345,86.422 35.062,83.588 37.010 C 80.754 38.958,77.920 41.025,77.290 41.604 C 76.660 42.182,74.342 44.096,72.137 45.858 C 64.830 51.698,50.516 66.079,44.914 73.211 C 44.037 74.326,42.404 76.357,41.283 77.724 C 40.162 79.091,37.951 82.129,36.369 84.475 C 34.787 86.821,33.192 89.084,32.825 89.504 C 32.142 90.286,27.095 98.671,25.761 101.240 C 25.352 102.028,24.874 102.672,24.700 102.672 C 24.525 102.672,24.480 102.829,24.598 103.021 C 24.717 103.213,24.657 103.428,24.465 103.498 C 24.057 103.647,19.440 112.802,18.290 115.740 C 17.858 116.844,17.074 118.488,16.548 119.392 C 15.410 121.347,12.431 129.233,9.218 138.792 C -1.857 171.750,-3.068 212.465,5.905 250.139 C 7.595 257.236,14.575 277.219,16.548 280.608 C 17.074 281.512,17.859 283.156,18.291 284.262 C 19.477 287.291,24.039 296.356,24.452 296.502 C 24.651 296.572,24.717 296.787,24.598 296.979 C 24.480 297.171,24.525 297.328,24.700 297.328 C 24.874 297.328,25.352 297.972,25.761 298.760 C 27.095 301.329,32.142 309.714,32.825 310.496 C 33.192 310.916,34.787 313.179,36.369 315.525 C 37.951 317.871,40.162 320.909,41.283 322.276 C 42.404 323.643,44.094 325.748,45.038 326.954 C 51.256 334.894,64.926 348.547,72.901 354.784 C 74.685 356.180,76.660 357.800,77.290 358.384 C 77.920 358.969,80.754 361.042,83.588 362.990 C 86.422 364.938,88.826 366.655,88.931 366.805 C 89.183 367.163,93.410 369.735,98.440 372.590 C 100.662 373.852,102.574 375.035,102.688 375.219 C 102.802 375.403,105.808 376.945,109.368 378.646 C 112.927 380.347,117.385 382.483,119.275 383.393 C 122.961 385.169,130.536 388.042,137.023 390.124 C 139.227 390.832,141.116 391.518,141.221 391.649 C 141.465 391.954,150.734 394.337,156.607 395.605 C 181.967 401.078,211.668 401.502,237.595 396.760 C 243.460 395.687,258.462 392.081,258.774 391.669 C 258.881 391.527,260.773 390.832,262.977 390.124 C 269.333 388.084,277.026 385.185,280.344 383.580 C 282.023 382.767,286.481 380.629,290.251 378.827 C 294.020 377.026,297.198 375.402,297.312 375.219 C 297.426 375.035,299.338 373.852,301.560 372.590 C 306.590 369.735,310.817 367.163,311.069 366.805 C 311.174 366.655,313.578 364.938,316.412 362.990 C 319.246 361.042,322.080 358.969,322.710 358.384 C 323.340 357.800,325.315 356.180,327.099 354.784 C 338.771 345.656,355.804 327.304,363.955 315.076 C 365.354 312.977,366.801 310.916,367.170 310.496 C 367.854 309.718,372.891 301.355,374.239 298.760 C 374.648 297.972,375.126 297.328,375.300 297.328 C 375.475 297.328,375.520 297.171,375.402 296.979 C 375.283 296.787,375.349 296.572,375.548 296.502 C 375.961 296.356,380.523 287.291,381.709 284.262 C 382.141 283.156,382.926 281.512,383.452 280.608 C 384.524 278.767,387.975 269.758,389.751 264.166 C 390.392 262.148,391.146 259.981,391.426 259.351 C 393.157 255.463,396.585 240.078,398.061 229.580 C 401.709 203.634,400.337 176.068,394.095 149.861 C 392.405 142.764,385.425 122.781,383.452 119.392 C 382.926 118.488,382.141 116.844,381.709 115.738 C 380.523 112.709,375.961 103.644,375.548 103.498 C 375.349 103.428,375.283 103.213,375.402 103.021 C 375.520 102.829,375.475 102.672,375.300 102.672 C 375.126 102.672,374.648 102.028,374.239 101.240 C 372.905 98.671,367.858 90.286,367.175 89.504 C 366.808 89.084,365.213 86.821,363.631 84.475 C 362.049 82.129,359.795 79.078,358.622 77.695 C 357.448 76.312,356.489 75.043,356.489 74.874 C 356.489 74.706,355.458 73.488,354.198 72.169 C 352.939 70.849,351.908 69.676,351.908 69.562 C 351.908 68.449,333.827 50.624,327.863 45.858 C 325.658 44.096,323.340 42.182,322.710 41.604 C 322.080 41.025,319.246 38.958,316.412 37.010 C 313.578 35.062,311.174 33.345,311.069 33.195 C 310.817 32.837,306.590 30.265,301.560 27.410 C 299.338 26.148,297.426 24.965,297.312 24.781 C 297.198 24.597,294.192 23.055,290.632 21.354 C 287.073 19.653,282.615 17.517,280.725 16.607 C 277.039 14.831,269.464 11.958,262.977 9.876 C 260.773 9.168,258.884 8.481,258.779 8.348 C 258.130 7.528,240.005 3.516,230.725 2.138 C 216.313 -0.002,195.743 -0.647,181.870 0.606 M201.527 51.760 C 201.527 52.098,203.184 55.233,205.209 58.726 C 207.234 62.219,209.830 66.708,210.977 68.702 C 212.125 70.697,213.388 72.886,213.784 73.569 C 215.157 75.934,215.944 77.302,217.353 79.771 C 218.131 81.135,218.900 82.424,219.062 82.634 C 219.223 82.844,219.873 83.960,220.505 85.115 C 221.137 86.269,223.161 89.790,225.003 92.939 C 226.845 96.088,228.872 99.609,229.508 100.763 C 230.143 101.918,231.072 103.518,231.573 104.319 C 232.074 105.120,232.818 106.365,233.227 107.086 C 233.635 107.807,234.291 108.955,234.683 109.637 C 235.076 110.320,236.679 113.111,238.246 115.840 C 239.813 118.569,242.583 123.350,244.402 126.464 C 246.222 129.579,247.714 132.241,247.718 132.380 C 247.723 132.520,248.063 133.063,248.473 133.588 C 249.464 134.854,249.429 135.815,248.378 136.260 C 247.906 136.460,246.574 137.217,245.420 137.941 C 244.265 138.666,242.032 140.019,240.458 140.948 C 235.668 143.774,230.401 146.997,229.330 147.755 C 227.873 148.788,227.340 148.655,226.459 147.042 C 226.028 146.255,223.592 142.022,221.044 137.637 C 218.497 133.251,216.412 129.585,216.412 129.490 C 216.412 129.394,216.095 128.860,215.707 128.303 C 215.319 127.746,214.484 126.345,213.850 125.191 C 213.217 124.036,211.799 121.546,210.699 119.656 C 209.600 117.767,208.310 115.534,207.833 114.695 C 207.356 113.855,205.656 110.899,204.056 108.126 C 202.455 105.352,201.145 102.905,201.145 102.687 C 201.145 101.926,200.433 102.298,199.898 103.340 C 199.601 103.917,198.191 106.365,196.765 108.779 C 194.208 113.106,193.468 114.378,192.005 116.960 C 191.597 117.681,190.853 118.926,190.352 119.727 C 189.851 120.528,188.922 122.128,188.286 123.282 C 187.651 124.437,185.967 127.357,184.544 129.771 C 183.121 132.185,181.528 134.933,181.004 135.878 C 180.480 136.823,179.497 138.540,178.819 139.695 C 173.277 149.142,166.794 160.394,166.794 160.565 C 166.794 160.661,166.279 161.489,165.649 162.405 C 165.019 163.320,164.504 164.153,164.504 164.255 C 164.504 164.357,163.706 165.786,162.731 167.430 C 161.756 169.075,160.640 170.978,160.250 171.660 C 159.183 173.530,158.518 174.679,153.346 183.588 L 148.582 191.794 180.303 191.985 L 212.023 192.176 212.124 204.936 C 212.202 214.891,212.118 217.764,211.742 218.003 C 210.746 218.635,135.497 218.385,135.253 217.748 C 134.999 217.086,134.351 216.975,134.351 217.594 C 134.351 217.824,134.028 218.468,133.632 219.025 C 133.237 219.582,132.550 220.682,132.106 221.469 C 130.725 223.916,129.931 225.277,128.047 228.435 C 127.045 230.115,125.883 232.090,125.463 232.824 C 125.044 233.559,124.425 234.617,124.087 235.175 C 122.469 237.851,120.314 241.518,119.412 243.130 C 119.119 243.655,117.439 246.489,115.678 249.427 C 113.918 252.366,112.161 255.329,111.773 256.011 C 109.980 259.169,109.517 259.954,107.498 263.277 C 106.313 265.226,105.344 266.878,105.344 266.949 C 105.344 267.020,104.227 268.919,102.863 271.169 C 101.498 273.419,100.382 275.309,100.382 275.368 C 100.382 275.428,98.750 278.186,96.756 281.499 C 94.761 284.811,93.130 287.580,93.130 287.653 C 93.130 287.726,117.329 287.786,146.906 287.786 C 195.590 287.786,200.704 287.843,200.913 288.390 C 201.214 289.174,201.206 312.138,200.904 313.263 L 200.674 314.122 124.753 314.122 C 40.525 314.122,47.284 314.352,49.582 311.565 C 50.232 310.777,50.763 310.014,50.763 309.870 C 50.763 309.726,52.246 307.060,54.059 303.945 C 57.797 297.523,58.498 296.306,59.847 293.893 C 60.376 292.948,61.183 291.574,61.641 290.840 C 62.099 290.105,62.907 288.731,63.435 287.786 C 63.963 286.842,64.745 285.468,65.173 284.733 C 70.661 275.294,72.519 272.066,72.519 271.969 C 72.519 271.906,73.635 270.013,75.000 267.763 C 76.365 265.512,77.481 263.611,77.481 263.537 C 77.481 263.463,78.963 260.859,80.773 257.751 C 84.070 252.093,84.880 250.696,86.206 248.378 C 86.597 247.696,87.431 246.270,88.060 245.209 C 88.689 244.148,89.637 242.517,90.167 241.583 C 90.696 240.649,92.953 236.740,95.183 232.896 C 97.412 229.052,99.237 225.815,99.237 225.703 C 99.237 225.591,99.580 225.017,100.000 224.427 C 100.768 223.349,102.543 220.314,104.688 216.412 C 105.322 215.258,106.159 213.857,106.547 213.300 C 106.935 212.743,107.252 212.202,107.252 212.098 C 107.252 211.995,107.912 210.819,108.719 209.486 C 109.526 208.152,110.620 206.288,111.152 205.344 C 111.683 204.399,115.251 198.216,119.081 191.603 C 122.910 184.990,126.391 178.979,126.816 178.244 C 127.241 177.510,128.021 176.135,128.549 175.191 C 129.077 174.246,130.169 172.382,130.976 171.049 C 131.783 169.715,132.443 168.578,132.443 168.521 C 132.443 168.465,133.356 166.893,134.473 165.030 C 135.589 163.166,137.028 160.697,137.670 159.542 C 138.311 158.387,141.971 152.032,145.802 145.420 C 149.633 138.807,153.089 132.839,153.483 132.156 C 153.876 131.474,154.521 130.358,154.915 129.676 C 155.309 128.993,156.275 127.319,157.061 125.954 C 157.847 124.590,158.791 122.958,159.158 122.328 C 161.542 118.240,163.943 114.094,164.685 112.786 C 165.161 111.947,168.687 105.849,172.519 99.237 C 176.352 92.624,179.922 86.441,180.453 85.496 C 180.984 84.552,181.794 83.177,182.252 82.443 C 182.710 81.708,183.520 80.334,184.052 79.389 C 184.583 78.445,188.099 72.347,191.865 65.840 C 200.000 51.779,199.511 52.646,199.769 51.813 C 200.032 50.965,201.527 50.920,201.527 51.760 M271.888 174.332 C 274.767 179.318,277.373 183.826,277.680 184.351 C 279.686 187.781,285.119 197.228,286.460 199.618 C 287.343 201.193,288.628 203.426,289.315 204.580 C 290.515 206.596,291.155 207.700,292.690 210.401 C 293.077 211.083,294.390 213.359,295.606 215.458 C 296.822 217.557,298.137 219.833,298.527 220.515 C 299.749 222.651,300.602 224.128,302.662 227.672 C 303.760 229.561,305.048 231.794,305.524 232.634 C 306.000 233.473,307.289 235.706,308.387 237.595 C 309.485 239.485,310.771 241.718,311.245 242.557 C 311.718 243.397,312.452 244.685,312.876 245.420 C 313.299 246.155,314.373 248.044,315.261 249.618 C 316.150 251.193,317.354 253.254,317.936 254.198 C 318.519 255.143,319.426 256.689,319.953 257.634 C 320.480 258.578,323.435 263.731,326.520 269.084 C 329.605 274.437,332.520 279.504,332.997 280.344 C 333.475 281.183,335.005 283.825,336.398 286.214 C 337.791 288.602,338.931 290.613,338.931 290.682 C 338.931 290.750,339.471 291.715,340.130 292.827 C 342.397 296.649,346.417 303.634,348.213 306.870 C 348.854 308.025,349.861 309.733,350.452 310.666 C 351.441 312.228,351.916 314.008,351.240 313.622 C 351.083 313.532,325.191 313.602,293.702 313.777 C 240.382 314.074,236.417 314.052,235.968 313.456 C 235.598 312.965,235.509 309.940,235.586 300.397 L 235.687 287.977 271.866 287.931 C 308.930 287.883,308.921 287.883,307.951 286.739 C 307.639 286.370,306.987 285.382,306.502 284.542 C 306.018 283.702,305.324 282.500,304.961 281.870 C 304.597 281.240,302.762 278.149,300.882 275.000 C 299.002 271.851,296.374 267.430,295.041 265.174 L 292.618 261.074 264.152 260.976 L 235.687 260.878 235.586 248.519 C 235.510 239.217,235.601 236.021,235.952 235.598 C 236.358 235.109,239.099 235.072,256.950 235.317 C 274.970 235.564,277.481 235.529,277.481 235.032 C 277.481 234.721,276.531 232.891,275.371 230.966 C 273.346 227.606,272.811 226.688,270.693 222.921 C 270.168 221.987,269.224 220.356,268.595 219.295 C 267.965 218.234,267.154 216.851,266.792 216.221 C 266.430 215.592,264.629 212.500,262.789 209.351 C 260.950 206.202,259.148 203.111,258.784 202.481 C 258.420 201.851,257.128 199.618,255.911 197.519 C 254.695 195.420,253.406 193.187,253.046 192.557 C 250.300 187.744,245.661 179.876,245.343 179.490 C 244.616 178.609,248.397 175.635,253.234 173.282 C 254.166 172.829,264.766 166.408,265.458 165.877 C 265.878 165.555,266.319 165.286,266.438 165.279 C 266.558 165.273,269.010 169.346,271.888 174.332 " stroke="none" fill="#1b1b1b" fill-rule="evenodd"></path><path id="path1" d="M200.000 52.232 C 200.000 52.409,197.574 56.746,194.609 61.869 C 191.644 66.992,188.693 72.128,188.051 73.282 C 187.409 74.437,185.971 76.906,184.854 78.770 C 183.738 80.634,182.824 82.239,182.824 82.337 C 182.824 82.435,182.507 82.972,182.119 83.529 C 181.731 84.086,180.895 85.487,180.260 86.641 C 179.626 87.796,178.509 89.771,177.779 91.031 C 177.049 92.290,173.314 98.731,169.479 105.344 C 165.643 111.956,162.076 118.139,161.552 119.084 C 161.028 120.029,160.129 121.574,159.556 122.519 C 158.196 124.760,154.555 131.020,153.339 133.206 C 152.592 134.550,145.143 147.403,140.841 154.771 C 139.798 156.558,135.896 163.362,134.823 165.267 C 134.290 166.212,132.786 168.788,131.480 170.992 C 130.174 173.197,128.676 175.773,128.152 176.718 C 127.627 177.662,124.751 182.643,121.761 187.786 C 118.771 192.929,115.804 198.082,115.168 199.237 C 114.532 200.391,113.883 201.508,113.726 201.718 C 113.455 202.079,113.027 202.823,110.763 206.870 C 110.235 207.815,109.427 209.189,108.968 209.924 C 108.260 211.058,106.783 213.610,101.235 223.282 C 100.814 224.017,98.277 228.397,95.598 233.015 C 92.919 237.634,89.789 243.044,88.641 245.038 C 87.494 247.032,86.231 249.222,85.835 249.905 C 85.439 250.587,84.795 251.703,84.404 252.385 C 84.014 253.068,83.180 254.494,82.550 255.554 C 81.921 256.615,80.975 258.247,80.447 259.180 C 79.920 260.114,76.697 265.687,73.286 271.565 C 65.299 285.328,65.536 284.917,62.028 291.031 C 60.823 293.130,59.536 295.363,59.168 295.992 C 52.056 308.162,49.285 313.129,49.456 313.404 C 49.574 313.596,81.989 313.740,125.023 313.740 L 200.382 313.740 200.382 300.954 L 200.382 288.168 146.565 288.168 C 110.242 288.168,92.748 288.041,92.748 287.779 C 92.748 287.565,93.187 286.695,93.723 285.845 C 94.259 284.996,95.007 283.754,95.385 283.086 C 95.763 282.417,97.754 279.036,99.809 275.573 C 103.427 269.475,104.617 267.441,105.504 265.840 C 105.737 265.420,107.454 262.500,109.320 259.351 C 115.347 249.183,118.796 243.347,119.471 242.176 C 119.834 241.546,120.951 239.656,121.953 237.977 C 122.955 236.298,124.070 234.408,124.431 233.779 C 124.792 233.149,126.202 230.744,127.564 228.435 C 128.926 226.126,131.041 222.519,132.264 220.420 C 134.964 215.784,134.713 216.090,135.162 216.892 C 135.512 217.517,137.817 217.557,173.683 217.557 L 211.832 217.557 211.832 205.153 C 211.832 195.486,211.727 192.747,211.355 192.744 C 211.093 192.741,196.751 192.743,179.485 192.748 C 145.765 192.757,146.705 192.810,148.442 191.011 C 148.731 190.712,151.306 186.311,159.153 172.710 C 159.517 172.080,160.673 170.105,161.723 168.321 C 162.774 166.536,164.065 164.303,164.593 163.359 C 166.286 160.331,175.272 144.861,175.567 144.466 C 175.724 144.256,176.280 143.311,176.803 142.366 C 177.327 141.422,178.102 140.048,178.527 139.313 C 181.368 134.398,191.945 116.186,194.154 112.405 C 197.146 107.284,198.717 104.516,199.517 102.958 C 199.813 102.381,200.288 101.908,200.573 101.908 C 200.857 101.908,201.333 102.381,201.630 102.958 C 202.863 105.348,227.082 147.417,227.458 147.820 C 227.777 148.162,248.855 135.597,248.855 135.064 C 248.855 134.873,248.447 134.076,247.949 133.293 C 246.777 131.453,240.206 120.139,237.481 115.267 C 236.952 114.323,236.145 112.948,235.687 112.214 C 235.229 111.479,234.422 110.105,233.893 109.160 C 232.374 106.444,231.541 104.998,229.498 101.527 C 228.448 99.742,227.157 97.510,226.629 96.565 C 226.101 95.620,223.475 91.069,220.792 86.450 C 215.053 76.568,212.654 72.426,211.121 69.752 C 210.730 69.070,209.804 67.481,209.064 66.221 C 206.880 62.502,205.870 60.735,203.345 56.213 C 201.300 52.549,200.000 51.002,200.000 52.232 M60.285 56.393 L 58.969 57.824 60.401 56.509 C 61.733 55.285,62.008 54.962,61.716 54.962 C 61.652 54.962,61.008 55.606,60.285 56.393 M339.313 56.298 C 340.025 57.032,340.694 57.634,340.799 57.634 C 340.904 57.634,340.407 57.032,339.695 56.298 C 338.983 55.563,338.314 54.962,338.209 54.962 C 338.104 54.962,338.601 55.563,339.313 56.298 M55.705 60.973 L 54.389 62.405 55.821 61.089 C 57.153 59.865,57.427 59.542,57.136 59.542 C 57.072 59.542,56.428 60.186,55.705 60.973 M343.893 60.878 C 344.605 61.613,345.274 62.214,345.379 62.214 C 345.484 62.214,344.987 61.613,344.275 60.878 C 343.563 60.143,342.894 59.542,342.789 59.542 C 342.684 59.542,343.181 60.143,343.893 60.878 " stroke="none" fill="#f4f4f4" fill-rule="evenodd"></path><path id="path2" d="M199.769 51.813 C 199.511 52.646,200.000 51.779,191.865 65.840 C 188.099 72.347,184.583 78.445,184.052 79.389 C 183.520 80.334,182.710 81.708,182.252 82.443 C 181.794 83.177,180.984 84.552,180.453 85.496 C 179.922 86.441,176.352 92.624,172.519 99.237 C 168.687 105.849,165.161 111.947,164.685 112.786 C 163.943 114.094,161.542 118.240,159.158 122.328 C 158.791 122.958,157.847 124.590,157.061 125.954 C 156.275 127.319,155.309 128.993,154.915 129.676 C 154.521 130.358,153.876 131.474,153.483 132.156 C 153.089 132.839,149.633 138.807,145.802 145.420 C 141.971 152.032,138.311 158.387,137.670 159.542 C 137.028 160.697,135.589 163.166,134.473 165.030 C 133.356 166.893,132.443 168.465,132.443 168.521 C 132.443 168.578,131.783 169.715,130.976 171.049 C 130.169 172.382,129.077 174.246,128.549 175.191 C 128.021 176.135,127.241 177.510,126.816 178.244 C 126.391 178.979,122.910 184.990,119.081 191.603 C 115.251 198.216,111.683 204.399,111.152 205.344 C 110.620 206.288,109.526 208.152,108.719 209.486 C 107.912 210.819,107.252 211.995,107.252 212.098 C 107.252 212.202,106.935 212.743,106.547 213.300 C 106.159 213.857,105.322 215.258,104.688 216.412 C 102.543 220.314,100.768 223.349,100.000 224.427 C 99.580 225.017,99.237 225.591,99.237 225.703 C 99.237 225.815,97.412 229.052,95.183 232.896 C 92.953 236.740,90.696 240.649,90.167 241.583 C 89.637 242.517,88.689 244.148,88.060 245.209 C 87.431 246.270,86.597 247.696,86.206 248.378 C 84.880 250.696,84.070 252.093,80.773 257.751 C 78.963 260.859,77.481 263.463,77.481 263.537 C 77.481 263.611,76.365 265.512,75.000 267.763 C 73.635 270.013,72.519 271.906,72.519 271.969 C 72.519 272.066,70.661 275.294,65.173 284.733 C 64.745 285.468,63.963 286.842,63.435 287.786 C 62.907 288.731,62.099 290.105,61.641 290.840 C 61.183 291.574,60.376 292.948,59.847 293.893 C 58.498 296.306,57.797 297.523,54.059 303.945 C 52.246 307.060,50.763 309.726,50.763 309.870 C 50.763 310.014,50.232 310.777,49.582 311.565 C 47.284 314.352,40.525 314.122,124.753 314.122 L 200.674 314.122 200.904 313.263 C 201.206 312.138,201.214 289.174,200.913 288.390 C 200.704 287.843,195.590 287.786,146.906 287.786 C 117.329 287.786,93.130 287.726,93.130 287.653 C 93.130 287.580,94.761 284.811,96.756 281.499 C 98.750 278.186,100.382 275.428,100.382 275.368 C 100.382 275.309,101.498 273.419,102.863 271.169 C 104.227 268.919,105.344 267.020,105.344 266.949 C 105.344 266.878,106.313 265.226,107.498 263.277 C 109.517 259.954,109.980 259.169,111.773 256.011 C 112.161 255.329,113.918 252.366,115.678 249.427 C 117.439 246.489,119.119 243.655,119.412 243.130 C 120.314 241.518,122.469 237.851,124.087 235.175 C 124.425 234.617,125.044 233.559,125.463 232.824 C 125.883 232.090,127.045 230.115,128.047 228.435 C 129.931 225.277,130.725 223.916,132.106 221.469 C 132.550 220.682,133.237 219.582,133.632 219.025 C 134.028 218.468,134.351 217.824,134.351 217.594 C 134.351 216.975,134.999 217.086,135.253 217.748 C 135.497 218.385,210.746 218.635,211.742 218.003 C 212.118 217.764,212.202 214.891,212.124 204.936 L 212.023 192.176 180.303 191.985 L 148.582 191.794 153.346 183.588 C 158.518 174.679,159.183 173.530,160.250 171.660 C 160.640 170.978,161.756 169.075,162.731 167.430 C 163.706 165.786,164.504 164.357,164.504 164.255 C 164.504 164.153,165.019 163.320,165.649 162.405 C 166.279 161.489,166.794 160.661,166.794 160.565 C 166.794 160.394,173.277 149.142,178.819 139.695 C 179.497 138.540,180.480 136.823,181.004 135.878 C 181.528 134.933,183.121 132.185,184.544 129.771 C 185.967 127.357,187.651 124.437,188.286 123.282 C 188.922 122.128,189.851 120.528,190.352 119.727 C 190.853 118.926,191.597 117.681,192.005 116.960 C 193.468 114.378,194.208 113.106,196.765 108.779 C 198.191 106.365,199.601 103.917,199.898 103.340 C 200.433 102.298,201.145 101.926,201.145 102.687 C 201.145 102.905,202.455 105.352,204.056 108.126 C 205.656 110.899,207.356 113.855,207.833 114.695 C 208.310 115.534,209.600 117.767,210.699 119.656 C 211.799 121.546,213.217 124.036,213.850 125.191 C 214.484 126.345,215.319 127.746,215.707 128.303 C 216.095 128.860,216.412 129.394,216.412 129.490 C 216.412 129.585,218.497 133.251,221.044 137.637 C 223.592 142.022,226.028 146.255,226.459 147.042 C 227.340 148.655,227.873 148.788,229.330 147.755 C 230.401 146.997,235.668 143.774,240.458 140.948 C 242.032 140.019,244.265 138.666,245.420 137.941 C 246.574 137.217,247.906 136.460,248.378 136.260 C 249.429 135.815,249.464 134.854,248.473 133.588 C 248.063 133.063,247.723 132.520,247.718 132.380 C 247.714 132.241,246.222 129.579,244.402 126.464 C 242.583 123.350,239.813 118.569,238.246 115.840 C 236.679 113.111,235.076 110.320,234.683 109.637 C 234.291 108.955,233.635 107.807,233.227 107.086 C 232.818 106.365,232.074 105.120,231.573 104.319 C 231.072 103.518,230.143 101.918,229.508 100.763 C 228.872 99.609,226.845 96.088,225.003 92.939 C 223.161 89.790,221.137 86.269,220.505 85.115 C 219.873 83.960,219.223 82.844,219.062 82.634 C 218.900 82.424,218.131 81.135,217.353 79.771 C 215.944 77.302,215.157 75.934,213.784 73.569 C 213.388 72.886,212.125 70.697,210.977 68.702 C 209.830 66.708,207.234 62.219,205.209 58.726 C 203.184 55.233,201.527 52.098,201.527 51.760 C 201.527 50.920,200.032 50.965,199.769 51.813 M203.345 56.213 C 205.870 60.735,206.880 62.502,209.064 66.221 C 209.804 67.481,210.730 69.070,211.121 69.752 C 212.654 72.426,215.053 76.568,220.792 86.450 C 223.475 91.069,226.101 95.620,226.629 96.565 C 227.157 97.510,228.448 99.742,229.498 101.527 C 231.541 104.998,232.374 106.444,233.893 109.160 C 234.422 110.105,235.229 111.479,235.687 112.214 C 236.145 112.948,236.952 114.323,237.481 115.267 C 240.206 120.139,246.777 131.453,247.949 133.293 C 248.447 134.076,248.855 134.873,248.855 135.064 C 248.855 135.597,227.777 148.162,227.458 147.820 C 227.082 147.417,202.863 105.348,201.630 102.958 C 201.333 102.381,200.857 101.908,200.573 101.908 C 200.288 101.908,199.813 102.381,199.517 102.958 C 198.717 104.516,197.146 107.284,194.154 112.405 C 191.945 116.186,181.368 134.398,178.527 139.313 C 178.102 140.048,177.327 141.422,176.803 142.366 C 176.280 143.311,175.724 144.256,175.567 144.466 C 175.272 144.861,166.286 160.331,164.593 163.359 C 164.065 164.303,162.774 166.536,161.723 168.321 C 160.673 170.105,159.517 172.080,159.153 172.710 C 151.306 186.311,148.731 190.712,148.442 191.011 C 146.705 192.810,145.765 192.757,179.485 192.748 C 196.751 192.743,211.093 192.741,211.355 192.744 C 211.727 192.747,211.832 195.486,211.832 205.153 L 211.832 217.557 173.683 217.557 C 137.817 217.557,135.512 217.517,135.162 216.892 C 134.713 216.090,134.964 215.784,132.264 220.420 C 131.041 222.519,128.926 226.126,127.564 228.435 C 126.202 230.744,124.792 233.149,124.431 233.779 C 124.070 234.408,122.955 236.298,121.953 237.977 C 120.951 239.656,119.834 241.546,119.471 242.176 C 118.796 243.347,115.347 249.183,109.320 259.351 C 107.454 262.500,105.737 265.420,105.504 265.840 C 104.617 267.441,103.427 269.475,99.809 275.573 C 97.754 279.036,95.763 282.417,95.385 283.086 C 95.007 283.754,94.259 284.996,93.723 285.845 C 93.187 286.695,92.748 287.565,92.748 287.779 C 92.748 288.041,110.242 288.168,146.565 288.168 L 200.382 288.168 200.382 300.954 L 200.382 313.740 125.023 313.740 C 81.989 313.740,49.574 313.596,49.456 313.404 C 49.285 313.129,52.056 308.162,59.168 295.992 C 59.536 295.363,60.823 293.130,62.028 291.031 C 65.536 284.917,65.299 285.328,73.286 271.565 C 76.697 265.687,79.920 260.114,80.447 259.180 C 80.975 258.247,81.921 256.615,82.550 255.554 C 83.180 254.494,84.014 253.068,84.404 252.385 C 84.795 251.703,85.439 250.587,85.835 249.905 C 86.231 249.222,87.494 247.032,88.641 245.038 C 89.789 243.044,92.919 237.634,95.598 233.015 C 98.277 228.397,100.814 224.017,101.235 223.282 C 106.783 213.610,108.260 211.058,108.968 209.924 C 109.427 209.189,110.235 207.815,110.763 206.870 C 113.027 202.823,113.455 202.079,113.726 201.718 C 113.883 201.508,114.532 200.391,115.168 199.237 C 115.804 198.082,118.771 192.929,121.761 187.786 C 124.751 182.643,127.627 177.662,128.152 176.718 C 128.676 175.773,130.174 173.197,131.480 170.992 C 132.786 168.788,134.290 166.212,134.823 165.267 C 135.896 163.362,139.798 156.558,140.841 154.771 C 145.143 147.403,152.592 134.550,153.339 133.206 C 154.555 131.020,158.196 124.760,159.556 122.519 C 160.129 121.574,161.028 120.029,161.552 119.084 C 162.076 118.139,165.643 111.956,169.479 105.344 C 173.314 98.731,177.049 92.290,177.779 91.031 C 178.509 89.771,179.626 87.796,180.260 86.641 C 180.895 85.487,181.731 84.086,182.119 83.529 C 182.507 82.972,182.824 82.435,182.824 82.337 C 182.824 82.239,183.738 80.634,184.854 78.770 C 185.971 76.906,187.409 74.437,188.051 73.282 C 188.693 72.128,191.644 66.992,194.609 61.869 C 197.574 56.746,200.000 52.409,200.000 52.232 C 200.000 51.002,201.300 52.549,203.345 56.213 M265.458 165.877 C 264.766 166.408,254.166 172.829,253.234 173.282 C 248.397 175.635,244.616 178.609,245.343 179.490 C 245.661 179.876,250.300 187.744,253.046 192.557 C 253.406 193.187,254.695 195.420,255.911 197.519 C 257.128 199.618,258.420 201.851,258.784 202.481 C 259.148 203.111,260.950 206.202,262.789 209.351 C 264.629 212.500,266.430 215.592,266.792 216.221 C 267.154 216.851,267.965 218.234,268.595 219.295 C 269.224 220.356,270.168 221.987,270.693 222.921 C 272.811 226.688,273.346 227.606,275.371 230.966 C 276.531 232.891,277.481 234.721,277.481 235.032 C 277.481 235.529,274.970 235.564,256.950 235.317 C 239.099 235.072,236.358 235.109,235.952 235.598 C 235.601 236.021,235.510 239.217,235.586 248.519 L 235.687 260.878 264.152 260.976 L 292.618 261.074 295.041 265.174 C 296.374 267.430,299.002 271.851,300.882 275.000 C 302.762 278.149,304.597 281.240,304.961 281.870 C 305.324 282.500,306.018 283.702,306.502 284.542 C 306.987 285.382,307.639 286.370,307.951 286.739 C 308.921 287.883,308.930 287.883,271.866 287.931 L 235.687 287.977 235.586 300.397 C 235.509 309.940,235.598 312.965,235.968 313.456 C 236.417 314.052,240.382 314.074,293.702 313.777 C 325.191 313.602,351.083 313.532,351.240 313.622 C 351.916 314.008,351.441 312.228,350.452 310.666 C 349.861 309.733,348.854 308.025,348.213 306.870 C 346.417 303.634,342.397 296.649,340.130 292.827 C 339.471 291.715,338.931 290.750,338.931 290.682 C 338.931 290.613,337.791 288.602,336.398 286.214 C 335.005 283.825,333.475 281.183,332.997 280.344 C 332.520 279.504,329.605 274.437,326.520 269.084 C 323.435 263.731,320.480 258.578,319.953 257.634 C 319.426 256.689,318.519 255.143,317.936 254.198 C 317.354 253.254,316.150 251.193,315.261 249.618 C 314.373 248.044,313.299 246.155,312.876 245.420 C 312.452 244.685,311.718 243.397,311.245 242.557 C 310.771 241.718,309.485 239.485,308.387 237.595 C 307.289 235.706,306.000 233.473,305.524 232.634 C 305.048 231.794,303.760 229.561,302.662 227.672 C 300.602 224.128,299.749 222.651,298.527 220.515 C 298.137 219.833,296.822 217.557,295.606 215.458 C 294.390 213.359,293.077 211.083,292.690 210.401 C 291.155 207.700,290.515 206.596,289.315 204.580 C 288.628 203.426,287.343 201.193,286.460 199.618 C 285.119 197.228,279.686 187.781,277.680 184.351 C 277.373 183.826,274.767 179.318,271.888 174.332 C 269.010 169.346,266.558 165.273,266.438 165.279 C 266.319 165.286,265.878 165.555,265.458 165.877 " stroke="none" fill="#77797a" fill-rule="evenodd"></path></g></svg>