<?xml version="1.0" encoding="UTF-8"?>
<!DOCTYPE svg PUBLIC "-//W3C//DTD SVG 1.1//EN" "http://www.w3.org/Graphics/SVG/1.1/DTD/svg11.dtd">
<svg xmlns="http://www.w3.org/2000/svg" version="1.1" width="200px" height="200px" style="shape-rendering:geometricPrecision; text-rendering:geometricPrecision; image-rendering:optimizeQuality; fill-rule:evenodd; clip-rule:evenodd" xmlns:xlink="http://www.w3.org/1999/xlink">
<g><path style="opacity:1" fill="#291810" d="M 121.5,12.5 C 124.146,14.2525 127.146,15.2525 130.5,15.5C 143.653,19.6621 154.653,26.9954 163.5,37.5C 164.419,40.0892 166.086,42.0892 168.5,43.5C 171.852,46.6953 174.685,50.362 177,54.5C 179.072,57.9712 180.572,61.6379 181.5,65.5C 182.256,69.767 183.589,73.767 185.5,77.5C 186.302,78.9516 186.802,80.6183 187,82.5C 187.5,92.828 187.666,103.161 187.5,113.5C 185.755,117.2 184.755,121.2 184.5,125.5C 183.379,127.741 182.213,130.075 181,132.5C 180.153,130.807 179.32,129.14 178.5,127.5C 186.164,101.912 183.331,77.5788 170,54.5C 168.951,52.3825 167.451,50.7158 165.5,49.5C 159.301,39.4696 150.968,31.6363 140.5,26C 131.206,20.5127 121.206,17.346 110.5,16.5C 91.9136,13.1461 74.2469,16.1461 57.5,25.5C 57.6495,24.448 57.4828,23.448 57,22.5C 56.2825,23.4506 55.4491,23.6172 54.5,23C 56.3187,22.2597 57.6521,21.0931 58.5,19.5C 61.0884,17.4082 64.0884,16.0749 67.5,15.5C 72.4305,14.7411 77.0971,13.4078 81.5,11.5C 87.0923,10.0075 92.9256,9.34079 99,9.5C 106.814,9.16772 114.314,10.1677 121.5,12.5 Z"/></g>
<g><path style="opacity:0.71" fill="#6c5e58" d="M 121.5,12.5 C 124.854,12.7475 127.854,13.7475 130.5,15.5C 127.146,15.2525 124.146,14.2525 121.5,12.5 Z"/></g>
<g><path style="opacity:0.898" fill="#5a4b43" d="M 81.5,11.5 C 77.0971,13.4078 72.4305,14.7411 67.5,15.5C 71.7938,13.1837 76.4605,11.8504 81.5,11.5 Z"/></g>
<g><path style="opacity:1" fill="#f3b014" d="M 110.5,16.5 C 109.308,17.5659 109.641,18.3992 111.5,19C 132.497,23.33 149.497,33.9967 162.5,51C 164.157,51.7252 165.157,51.2252 165.5,49.5C 167.451,50.7158 168.951,52.3825 170,54.5C 183.331,77.5788 186.164,101.912 178.5,127.5C 173.055,142.041 164.389,154.375 152.5,164.5C 152.649,163.448 152.483,162.448 152,161.5C 149.679,162.361 148.513,161.361 148.5,158.5C 146.833,158.5 145.167,158.5 143.5,158.5C 170.155,134.901 178.321,105.901 168,71.5C 151.115,34.9702 122.615,19.1369 82.5,24C 46.8579,34.1375 27.5245,57.6375 24.5,94.5C 23.6787,97.6414 23.1787,100.975 23,104.5C 21.182,100.299 21.0153,95.9658 22.5,91.5C 22.1445,90.4777 21.4778,89.811 20.5,89.5C 20.8333,86.1667 21.1667,82.8333 21.5,79.5C 22.1667,79.5 22.5,79.1667 22.5,78.5C 23.1524,77.5514 23.4857,76.3847 23.5,75C 23.3154,72.6241 22.3154,70.7908 20.5,69.5C 27.7839,50.5524 40.1173,35.8858 57.5,25.5C 74.2469,16.1461 91.9136,13.1461 110.5,16.5 Z"/></g>
<g><path style="opacity:1" fill="#2d1c14" d="M 58.5,19.5 C 57.6521,21.0931 56.3187,22.2597 54.5,23C 55.4491,23.6172 56.2825,23.4506 57,22.5C 57.4828,23.448 57.6495,24.448 57.5,25.5C 40.1173,35.8858 27.7839,50.5524 20.5,69.5C 19.4625,70.9303 18.7959,72.597 18.5,74.5C 17.5489,75.9187 17.2155,77.5853 17.5,79.5C 15.9462,83.5667 15.2796,87.9 15.5,92.5C 14.1667,97.8333 14.1667,103.167 15.5,108.5C 15.298,110.95 15.6314,113.283 16.5,115.5C 16.2155,117.415 16.5489,119.081 17.5,120.5C 18.0541,123.746 19.0541,126.746 20.5,129.5C 20.5569,130.609 20.8902,131.609 21.5,132.5C 22.6589,136.151 24.3256,139.485 26.5,142.5C 26.6596,144.153 27.3263,145.486 28.5,146.5C 29.9213,149.009 31.5879,151.343 33.5,153.5C 34.5,155.167 35.8333,156.5 37.5,157.5C 39.1667,159.833 41.1667,161.833 43.5,163.5C 44.1667,164.833 45.1667,165.833 46.5,166.5C 48.8584,168.678 51.5251,170.345 54.5,171.5C 55.2905,172.401 56.2905,173.068 57.5,173.5C 59.8485,175.341 62.5152,176.674 65.5,177.5C 66.9303,178.537 68.597,179.204 70.5,179.5C 72.2143,180.738 74.2143,181.405 76.5,181.5C 78.7146,182.268 81.0479,182.935 83.5,183.5C 89.7748,184.418 96.1082,184.751 102.5,184.5C 121.566,183.485 138.233,176.819 152.5,164.5C 164.389,154.375 173.055,142.041 178.5,127.5C 179.32,129.14 180.153,130.807 181,132.5C 182.213,130.075 183.379,127.741 184.5,125.5C 176.273,154.063 158.273,173.729 130.5,184.5C 126.085,184.861 122.085,186.194 118.5,188.5C 115.904,189.265 113.237,189.599 110.5,189.5C 100.815,189.578 91.1483,189.245 81.5,188.5C 69.2511,186.536 58.2511,181.869 48.5,174.5C 48.0269,173.094 47.0269,172.427 45.5,172.5C 30.2371,161.308 19.9038,146.641 14.5,128.5C 14.2576,124.521 13.2576,120.854 11.5,117.5C 5.63022,80.7601 16.9636,50.5934 45.5,27C 49.5615,23.9711 53.8949,21.4711 58.5,19.5 Z"/></g>
<g><path style="opacity:1" fill="#f4d668" d="M 110.5,16.5 C 121.206,17.346 131.206,20.5127 140.5,26C 150.968,31.6363 159.301,39.4696 165.5,49.5C 165.157,51.2252 164.157,51.7252 162.5,51C 149.497,33.9967 132.497,23.33 111.5,19C 109.641,18.3992 109.308,17.5659 110.5,16.5 Z"/></g>
<g><path style="opacity:0.933" fill="#6c5e56" d="M 163.5,37.5 C 165.914,38.9108 167.581,40.9108 168.5,43.5C 166.086,42.0892 164.419,40.0892 163.5,37.5 Z"/></g>
<g><path style="opacity:1" fill="#261204" d="M 143.5,158.5 C 121.398,174.374 97.3984,177.874 71.5,169C 39.274,154.733 23.6073,129.9 24.5,94.5C 27.5245,57.6375 46.8579,34.1375 82.5,24C 122.615,19.1369 151.115,34.9702 168,71.5C 178.321,105.901 170.155,134.901 143.5,158.5 Z"/></g>
<g><path style="opacity:1" fill="#f5ad0f" d="M 111.5,35.5 C 138.518,43.0179 155.684,60.3513 163,87.5C 165.181,98.9066 164.848,110.24 162,121.5C 160.056,127.165 158.222,132.832 156.5,138.5C 155.079,141.009 153.412,143.343 151.5,145.5C 150.842,144.602 150.176,143.602 149.5,142.5C 148.914,142.709 148.414,143.043 148,143.5C 147.51,142.207 147.343,140.873 147.5,139.5C 150.802,131.486 151.968,123.152 151,114.5C 146.742,104.978 142.742,95.3112 139,85.5C 137.993,72.4162 133.993,60.4162 127,49.5C 122.136,44.4468 116.636,40.4468 110.5,37.5C 110.833,36.8333 111.167,36.1667 111.5,35.5 Z"/></g>
<g><path style="opacity:1" fill="#f1ab0f" d="M 111.5,35.5 C 111.167,36.1667 110.833,36.8333 110.5,37.5C 96.4878,32.2233 83.4878,34.0567 71.5,43C 59.7511,53.3286 52.2511,66.1619 49,81.5C 47.227,91.9703 45.727,102.47 44.5,113C 45.3384,141.504 59.6717,158.837 87.5,165C 113.204,169.301 133.204,160.801 147.5,139.5C 147.343,140.873 147.51,142.207 148,143.5C 148.414,143.043 148.914,142.709 149.5,142.5C 150.176,143.602 150.842,144.602 151.5,145.5C 125.291,173.043 95.291,177.877 61.5,160C 35.749,142.812 24.5823,118.645 28,87.5C 29.9783,74.0127 35.4783,62.346 44.5,52.5C 63.5011,33.9481 85.8344,28.2814 111.5,35.5 Z"/></g>
<g><path style="opacity:1" fill="#d47904" d="M 156.5,138.5 C 158.222,132.832 160.056,127.165 162,121.5C 164.848,110.24 165.181,98.9066 163,87.5C 155.684,60.3513 138.518,43.0179 111.5,35.5C 85.8344,28.2814 63.5011,33.9481 44.5,52.5C 55.5397,38.1341 70.2064,29.6341 88.5,27C 120.659,24.9937 144.825,37.827 161,65.5C 172.248,90.7614 170.748,115.095 156.5,138.5 Z"/></g>
<g><path style="opacity:1" fill="#251204" d="M 110.5,37.5 C 116.636,40.4468 122.136,44.4468 127,49.5C 133.993,60.4162 137.993,72.4162 139,85.5C 142.742,95.3112 146.742,104.978 151,114.5C 151.968,123.152 150.802,131.486 147.5,139.5C 133.204,160.801 113.204,169.301 87.5,165C 59.6717,158.837 45.3384,141.504 44.5,113C 45.727,102.47 47.227,91.9703 49,81.5C 52.2511,66.1619 59.7511,53.3286 71.5,43C 83.4878,34.0567 96.4878,32.2233 110.5,37.5 Z"/></g>
<g><path style="opacity:1" fill="#8b4e19" d="M 78.5,44.5 C 78.8417,43.6618 79.5084,43.3284 80.5,43.5C 81.209,44.404 82.209,44.7373 83.5,44.5C 83.9807,48.3491 82.314,50.3491 78.5,50.5C 78.7583,48.1902 78.7583,46.1902 78.5,44.5 Z"/></g>
<g><path style="opacity:1" fill="#d4903c" d="M 136.5,93.5 C 135.566,94.5676 135.232,95.901 135.5,97.5C 133.856,97.2865 132.356,97.6198 131,98.5C 130.667,97.8333 130.333,97.1667 130,96.5C 129.722,97.4158 129.222,98.0825 128.5,98.5C 128.405,95.7277 127.071,93.7277 124.5,92.5C 123.387,96.5724 120.72,99.0724 116.5,100C 106.381,102.794 96.7143,101.794 87.5,97C 86.6634,95.9887 86.33,94.8221 86.5,93.5C 85.5,93.5 84.5,93.5 83.5,93.5C 84.2625,92.7321 85.2625,92.2321 86.5,92C 85.9221,90.583 84.9221,89.7496 83.5,89.5C 85.5112,88.1071 87.8446,87.4404 90.5,87.5C 93.8822,88.1399 97.2155,88.6399 100.5,89C 105.947,79.2213 103.614,71.8879 93.5,67C 88.5482,65.9764 84.5482,67.4764 81.5,71.5C 81.4226,70.2502 80.756,69.4169 79.5,69C 80.731,67.8173 80.731,66.6507 79.5,65.5C 78.914,65.7093 78.414,66.0426 78,66.5C 77.8706,63.9973 76.8706,61.9973 75,60.5C 73.5993,62.1922 71.7659,62.8588 69.5,62.5C 69.9746,65.0821 69.3079,67.0821 67.5,68.5C 68.9771,65.8246 68.6438,63.3246 66.5,61C 68.7237,56.714 71.057,52.5473 73.5,48.5C 74.5794,46.457 76.246,45.1237 78.5,44.5C 78.7583,46.1902 78.7583,48.1902 78.5,50.5C 82.314,50.3491 83.9807,48.3491 83.5,44.5C 82.209,44.7373 81.209,44.404 80.5,43.5C 103.132,35.5552 119.632,42.5552 130,64.5C 132.41,74.1226 134.577,83.7892 136.5,93.5 Z"/></g>
<g><path style="opacity:1" fill="#251305" d="M 85.5,53.5 C 87.5,53.5 89.5,53.5 91.5,53.5C 91.7135,55.1439 91.3802,56.6439 90.5,58C 85.5634,58.131 81.8967,60.2976 79.5,64.5C 78.3373,62.4503 78.5039,60.4503 80,58.5C 81.7297,56.5981 83.563,54.9314 85.5,53.5 Z"/></g>
<g><path style="opacity:1" fill="#f4bc6b" d="M 102.5,43.5 C 106.313,44.1596 109.979,45.3262 113.5,47C 115.037,48.1096 115.703,49.6096 115.5,51.5C 111.531,50.3397 107.531,49.1731 103.5,48C 101.452,46.7741 101.119,45.2741 102.5,43.5 Z"/></g>
<g><path style="opacity:1" fill="#231003" d="M 113.5,55.5 C 117.95,55.1416 121.45,56.8083 124,60.5C 124.781,61.9437 124.614,63.277 123.5,64.5C 120.896,61.364 117.562,59.5307 113.5,59C 112.316,57.8545 112.316,56.6879 113.5,55.5 Z"/></g>
<g><path style="opacity:1" fill="#a96621" d="M 73.5,48.5 C 71.057,52.5473 68.7237,56.714 66.5,61C 68.6438,63.3246 68.9771,65.8246 67.5,68.5C 66.5041,68.5858 65.6708,68.2524 65,67.5C 64.0042,70.9089 63.1708,74.2423 62.5,77.5C 62.5,75.8333 62.5,74.1667 62.5,72.5C 58.7597,71.7415 57.093,73.2415 57.5,77C 56.9324,80.2634 58.2657,81.7634 61.5,81.5C 60.6708,86.453 60.3375,91.453 60.5,96.5C 58.6434,93.9824 56.8101,93.9824 55,96.5C 52.9838,95.0448 52.1505,93.0448 52.5,90.5C 53.5097,76.6322 58.3431,64.2989 67,53.5C 68.7772,51.2101 70.9438,49.5434 73.5,48.5 Z"/></g>
<g><path style="opacity:1" fill="#d6913c" d="M 81.5,71.5 C 79.1838,77.3467 78.8505,83.3467 80.5,89.5C 81.5,89.5 82.5,89.5 83.5,89.5C 84.9221,89.7496 85.9221,90.583 86.5,92C 85.2625,92.2321 84.2625,92.7321 83.5,93.5C 79.6768,94.6092 78.0101,96.9426 78.5,100.5C 79.4776,100.023 80.3109,99.3567 81,98.5C 81.0813,110.426 85.248,120.593 93.5,129C 101.716,134.027 109.55,133.527 117,127.5C 118,125.167 119,122.833 120,120.5C 120.242,114.116 120.908,107.782 122,101.5C 123.87,99.7811 126.037,98.7811 128.5,98.5C 129.222,98.0825 129.722,97.4158 130,96.5C 130.333,97.1667 130.667,97.8333 131,98.5C 132.356,97.6198 133.856,97.2865 135.5,97.5C 135.232,95.901 135.566,94.5676 136.5,93.5C 140.165,100.172 143.332,107.172 146,114.5C 146.943,120.436 146.443,126.103 144.5,131.5C 141.899,134.604 139.066,137.604 136,140.5C 135.275,138.842 134.108,138.342 132.5,139C 130.578,140.42 129.245,142.253 128.5,144.5C 115.137,149.742 101.804,149.742 88.5,144.5C 87.8784,141.224 85.8784,139.891 82.5,140.5C 76.9086,137.593 73.2419,133.259 71.5,127.5C 70.5,124.5 68.5,122.5 65.5,121.5C 62.9169,113.908 61.2502,106.241 60.5,98.5C 60.5,97.8333 60.5,97.1667 60.5,96.5C 60.3375,91.453 60.6708,86.453 61.5,81.5C 61.8333,80.1667 62.1667,78.8333 62.5,77.5C 63.1708,74.2423 64.0042,70.9089 65,67.5C 65.6708,68.2524 66.5041,68.5858 67.5,68.5C 69.3079,67.0821 69.9746,65.0821 69.5,62.5C 71.7659,62.8588 73.5993,62.1922 75,60.5C 76.8706,61.9973 77.8706,63.9973 78,66.5C 78.414,66.0426 78.914,65.7093 79.5,65.5C 80.731,66.6507 80.731,67.8173 79.5,69C 80.756,69.4169 81.4226,70.2502 81.5,71.5 Z"/></g>
<g><path style="opacity:1" fill="#fdde6d" d="M 167.5,57.5 C 168.496,57.4142 169.329,57.7476 170,58.5C 171.333,61.1667 172.667,63.8333 174,66.5C 174.412,71.3565 173.412,71.6898 171,67.5C 169.533,64.2416 168.367,60.9083 167.5,57.5 Z"/></g>
<g><path style="opacity:0.988" fill="#64564e" d="M 181.5,65.5 C 183.806,69.0845 185.139,73.0845 185.5,77.5C 183.589,73.767 182.256,69.767 181.5,65.5 Z"/></g>
<g><path style="opacity:1" fill="#27160c" d="M 113.5,67.5 C 126.519,68.4986 131.186,75.1652 127.5,87.5C 122.558,87.3373 117.558,87.6706 112.5,88.5C 110.971,88.4712 109.804,87.8045 109,86.5C 105.941,79.0068 107.441,72.6735 113.5,67.5 Z"/></g>
<g><path style="opacity:1" fill="#ce7304" d="M 20.5,69.5 C 22.3154,70.7908 23.3154,72.6241 23.5,75C 23.4857,76.3847 23.1524,77.5514 22.5,78.5C 21.1667,77.1667 19.8333,75.8333 18.5,74.5C 18.7959,72.597 19.4625,70.9303 20.5,69.5 Z"/></g>
<g><path style="opacity:1" fill="#ede0c2" d="M 114.5,70.5 C 123.255,71.0722 126.921,75.5722 125.5,84C 121.63,85.1371 119.797,83.6371 120,79.5C 118.604,77.4732 116.938,77.1398 115,78.5C 114.257,80.4406 114.424,82.2739 115.5,84C 114.056,84.7805 112.723,84.6139 111.5,83.5C 109.645,78.4653 110.645,74.1319 114.5,70.5 Z"/></g>
<g><path style="opacity:1" fill="#814513" d="M 62.5,77.5 C 62.1667,78.8333 61.8333,80.1667 61.5,81.5C 58.2657,81.7634 56.9324,80.2634 57.5,77C 57.093,73.2415 58.7597,71.7415 62.5,72.5C 62.5,74.1667 62.5,75.8333 62.5,77.5 Z"/></g>
<g><path style="opacity:1" fill="#fdda66" d="M 147.5,72.5 C 149.847,74.0301 150.014,76.0301 148,78.5C 146.445,80.5152 144.611,80.8485 142.5,79.5C 143.931,76.9613 145.597,74.6279 147.5,72.5 Z"/></g>
<g><path style="opacity:1" fill="#26150b" d="M 83.5,89.5 C 82.5,89.5 81.5,89.5 80.5,89.5C 78.8505,83.3467 79.1838,77.3467 81.5,71.5C 84.5482,67.4764 88.5482,65.9764 93.5,67C 103.614,71.8879 105.947,79.2213 100.5,89C 97.2155,88.6399 93.8822,88.1399 90.5,87.5C 87.8446,87.4404 85.5112,88.1071 83.5,89.5 Z"/></g>
<g><path style="opacity:1" fill="#efe2c3" d="M 86.5,70.5 C 97.1271,69.4575 101.46,74.1242 99.5,84.5C 97.4503,85.6627 95.4503,85.4961 93.5,84C 95.0111,81.2179 94.1777,79.3845 91,78.5C 90.228,78.6448 89.5613,78.9781 89,79.5C 88.5065,81.1341 88.3398,82.8008 88.5,84.5C 86.5,84.8333 84.5,85.1667 82.5,85.5C 81.6734,79.8471 83.0067,74.8471 86.5,70.5 Z"/></g>
<g><path style="opacity:1" fill="#7d3a03" d="M 18.5,74.5 C 19.8333,75.8333 21.1667,77.1667 22.5,78.5C 22.5,79.1667 22.1667,79.5 21.5,79.5C 20.1667,79.5 18.8333,79.5 17.5,79.5C 17.2155,77.5853 17.5489,75.9187 18.5,74.5 Z"/></g>
<g><path style="opacity:1" fill="#fddd6b" d="M 175.5,76.5 C 176.496,76.4142 177.329,76.7476 178,77.5C 178.494,79.1341 178.66,80.8008 178.5,82.5C 177.5,82.5 176.5,82.5 175.5,82.5C 175.5,80.5 175.5,78.5 175.5,76.5 Z"/></g>
<g><path style="opacity:1" fill="#fcd964" d="M 152.5,83.5 C 153.5,83.5 154.5,83.5 155.5,83.5C 155.762,84.9778 155.429,86.3112 154.5,87.5C 152.271,88.5771 149.937,89.2437 147.5,89.5C 147.351,88.448 147.517,87.448 148,86.5C 149.652,85.6006 151.152,84.6006 152.5,83.5 Z"/></g>
<g><path style="opacity:1" fill="#c66a03" d="M 17.5,79.5 C 18.8333,79.5 20.1667,79.5 21.5,79.5C 21.1667,82.8333 20.8333,86.1667 20.5,89.5C 19.7051,93.7853 19.3718,98.1186 19.5,102.5C 18.1667,102.5 16.8333,102.5 15.5,102.5C 15.5,99.1667 15.5,95.8333 15.5,92.5C 15.2796,87.9 15.9462,83.5667 17.5,79.5 Z"/></g>
<g><path style="opacity:1" fill="#7f4412" d="M 52.5,90.5 C 52.1505,93.0448 52.9838,95.0448 55,96.5C 56.8101,93.9824 58.6434,93.9824 60.5,96.5C 60.5,97.1667 60.5,97.8333 60.5,98.5C 60.6633,100.857 60.4966,103.19 60,105.5C 57.4598,106.876 55.4598,106.21 54,103.5C 53.8295,101.285 53.1628,99.2852 52,97.5C 51.7216,98.4158 51.2216,99.0825 50.5,99.5C 50.6761,96.2727 51.3428,93.2727 52.5,90.5 Z"/></g>
<g><path style="opacity:1" fill="#241105" d="M 128.5,98.5 C 126.037,98.7811 123.87,99.7811 122,101.5C 120.908,107.782 120.242,114.116 120,120.5C 119,122.833 118,125.167 117,127.5C 109.55,133.527 101.716,134.027 93.5,129C 85.248,120.593 81.0813,110.426 81,98.5C 80.3109,99.3567 79.4776,100.023 78.5,100.5C 78.0101,96.9426 79.6768,94.6092 83.5,93.5C 84.5,93.5 85.5,93.5 86.5,93.5C 86.33,94.8221 86.6634,95.9887 87.5,97C 96.7143,101.794 106.381,102.794 116.5,100C 120.72,99.0724 123.387,96.5724 124.5,92.5C 127.071,93.7277 128.405,95.7277 128.5,98.5 Z"/></g>
<g><path style="opacity:1" fill="#814004" d="M 15.5,92.5 C 15.5,95.8333 15.5,99.1667 15.5,102.5C 16.8333,102.5 18.1667,102.5 19.5,102.5C 20.3382,102.842 20.6716,103.508 20.5,104.5C 18.9582,105.301 17.2915,105.634 15.5,105.5C 15.5,106.5 15.5,107.5 15.5,108.5C 14.1667,103.167 14.1667,97.8333 15.5,92.5 Z"/></g>
<g><path style="opacity:1" fill="#eaddbf" d="M 87.5,100.5 C 90.0236,101.927 92.6902,103.094 95.5,104C 102.957,104.379 110.291,104.545 117.5,104.5C 116.198,107.634 113.865,109.468 110.5,110C 101.819,111.604 94.3189,109.437 88,103.5C 87.5172,102.552 87.3505,101.552 87.5,100.5 Z"/></g>
<g><path style="opacity:1" fill="#d07103" d="M 20.5,104.5 C 20.7244,108.179 21.0578,111.846 21.5,115.5C 19.8333,115.5 18.1667,115.5 16.5,115.5C 15.6314,113.283 15.298,110.95 15.5,108.5C 15.5,107.5 15.5,106.5 15.5,105.5C 17.2915,105.634 18.9582,105.301 20.5,104.5 Z"/></g>
<g><path style="opacity:1" fill="#894b15" d="M 63.5,109.5 C 64.8333,109.5 66.1667,109.5 67.5,109.5C 67.5,110.5 67.5,111.5 67.5,112.5C 66.1667,112.5 64.8333,112.5 63.5,112.5C 63.5,111.5 63.5,110.5 63.5,109.5 Z"/></g>
<g><path style="opacity:1" fill="#854915" d="M 135.5,111.5 C 140.675,110.507 142.509,112.507 141,117.5C 139.276,120.73 137.276,121.064 135,118.5C 134.297,116.071 134.463,113.738 135.5,111.5 Z"/></g>
<g><path style="opacity:1" fill="#7b3902" d="M 16.5,115.5 C 18.1667,115.5 19.8333,115.5 21.5,115.5C 22.3382,115.842 22.6716,116.508 22.5,117.5C 20.2719,117.777 18.6053,118.777 17.5,120.5C 16.5489,119.081 16.2155,117.415 16.5,115.5 Z"/></g>
<g><path style="opacity:1" fill="#d53a2b" d="M 87.5,114.5 C 94.998,113.918 100.998,116.584 105.5,122.5C 106.711,121.726 106.711,120.893 105.5,120C 108.475,119.287 110.975,120.121 113,122.5C 114.033,125.217 113.2,127.051 110.5,128C 98.8213,130.165 91.1546,125.665 87.5,114.5 Z"/></g>
<g><path style="opacity:0.588" fill="#6e615a" d="M 187.5,113.5 C 187.245,117.8 186.245,121.8 184.5,125.5C 184.755,121.2 185.755,117.2 187.5,113.5 Z"/></g>
<g><path style="opacity:1" fill="#d17303" d="M 22.5,117.5 C 23.193,120.941 24.193,124.275 25.5,127.5C 23.7162,127.893 22.0495,128.559 20.5,129.5C 19.0541,126.746 18.0541,123.746 17.5,120.5C 18.6053,118.777 20.2719,117.777 22.5,117.5 Z"/></g>
<g><path style="opacity:0.678" fill="#71645c" d="M 11.5,117.5 C 13.2576,120.854 14.2576,124.521 14.5,128.5C 12.7424,125.146 11.7424,121.479 11.5,117.5 Z"/></g>
<g><path style="opacity:1" fill="#814513" d="M 65.5,121.5 C 68.5,122.5 70.5,124.5 71.5,127.5C 72.9263,133.359 70.9263,135.359 65.5,133.5C 61.6505,130.441 60.8172,126.774 63,122.5C 63.6708,121.748 64.5041,121.414 65.5,121.5 Z"/></g>
<g><path style="opacity:1" fill="#823b01" d="M 25.5,127.5 C 26.1098,128.391 26.4431,129.391 26.5,130.5C 24.7162,130.893 23.0495,131.559 21.5,132.5C 20.8902,131.609 20.5569,130.609 20.5,129.5C 22.0495,128.559 23.7162,127.893 25.5,127.5 Z"/></g>
<g><path style="opacity:1" fill="#d27303" d="M 26.5,130.5 C 28.4203,133.339 30.0869,136.339 31.5,139.5C 30.078,140.925 28.4113,141.925 26.5,142.5C 24.3256,139.485 22.6589,136.151 21.5,132.5C 23.0495,131.559 24.7162,130.893 26.5,130.5 Z"/></g>
<g><path style="opacity:1" fill="#7f3902" d="M 31.5,139.5 C 31.8333,140.167 32.1667,140.833 32.5,141.5C 31.1667,143.167 29.8333,144.833 28.5,146.5C 27.3263,145.486 26.6596,144.153 26.5,142.5C 28.4113,141.925 30.078,140.925 31.5,139.5 Z"/></g>
<g><path style="opacity:1" fill="#d17203" d="M 32.5,141.5 C 34.7451,144.32 36.7451,147.32 38.5,150.5C 37.5994,152.727 35.9328,153.727 33.5,153.5C 31.5879,151.343 29.9213,149.009 28.5,146.5C 29.8333,144.833 31.1667,143.167 32.5,141.5 Z"/></g>
<g><path style="opacity:1" fill="#aa6721" d="M 60.5,98.5 C 61.2502,106.241 62.9169,113.908 65.5,121.5C 64.5041,121.414 63.6708,121.748 63,122.5C 60.8172,126.774 61.6505,130.441 65.5,133.5C 70.9263,135.359 72.9263,133.359 71.5,127.5C 73.2419,133.259 76.9086,137.593 82.5,140.5C 81.0319,142.611 81.3652,144.444 83.5,146C 85.5348,146.599 87.2015,146.099 88.5,144.5C 101.804,149.742 115.137,149.742 128.5,144.5C 129.245,142.253 130.578,140.42 132.5,139C 134.108,138.342 135.275,138.842 136,140.5C 139.066,137.604 141.899,134.604 144.5,131.5C 139.074,146.753 128.407,156.253 112.5,160C 91.1753,164.631 73.0086,159.131 58,143.5C 49.8109,129.875 47.3109,115.208 50.5,99.5C 51.2216,99.0825 51.7216,98.4158 52,97.5C 53.1628,99.2852 53.8295,101.285 54,103.5C 55.4598,106.21 57.4598,106.876 60,105.5C 60.4966,103.19 60.6633,100.857 60.5,98.5 Z"/></g>
<g><path style="opacity:1" fill="#874813" d="M 68.5,143.5 C 73.2635,143.089 75.7635,145.089 76,149.5C 71.9078,151.039 69.0745,149.706 67.5,145.5C 67.8627,144.817 68.1961,144.15 68.5,143.5 Z"/></g>
<g><path style="opacity:1" fill="#874915" d="M 82.5,140.5 C 85.8784,139.891 87.8784,141.224 88.5,144.5C 87.2015,146.099 85.5348,146.599 83.5,146C 81.3652,144.444 81.0319,142.611 82.5,140.5 Z"/></g>
<g><path style="opacity:1" fill="#7e4413" d="M 115.5,135.5 C 117.028,135.517 117.528,136.184 117,137.5C 112.865,141.191 108.031,142.358 102.5,141C 101.09,140.632 100.09,139.799 99.5,138.5C 103.048,138.381 106.715,138.215 110.5,138C 112.491,137.626 114.158,136.793 115.5,135.5 Z"/></g>
<g><path style="opacity:1" fill="#813b02" d="M 38.5,150.5 C 39.8333,151.167 40.8333,152.167 41.5,153.5C 39.2273,153.957 37.894,155.29 37.5,157.5C 35.8333,156.5 34.5,155.167 33.5,153.5C 35.9328,153.727 37.5994,152.727 38.5,150.5 Z"/></g>
<g><path style="opacity:1" fill="#cf7003" d="M 41.5,153.5 C 43.8333,155.167 45.8333,157.167 47.5,159.5C 46.1667,160.833 44.8333,162.167 43.5,163.5C 41.1667,161.833 39.1667,159.833 37.5,157.5C 37.894,155.29 39.2273,153.957 41.5,153.5 Z"/></g>
<g><path style="opacity:1" fill="#813b02" d="M 47.5,159.5 C 48.4916,159.328 49.1583,159.662 49.5,160.5C 48.5,162.5 47.5,164.5 46.5,166.5C 45.1667,165.833 44.1667,164.833 43.5,163.5C 44.8333,162.167 46.1667,160.833 47.5,159.5 Z"/></g>
<g><path style="opacity:1" fill="#cf7103" d="M 49.5,160.5 C 52.205,162.512 54.8717,164.512 57.5,166.5C 56.3077,168.113 55.3077,169.78 54.5,171.5C 51.5251,170.345 48.8584,168.678 46.5,166.5C 47.5,164.5 48.5,162.5 49.5,160.5 Z"/></g>
<g><path style="opacity:1" fill="#823b02" d="M 57.5,166.5 C 58.4916,166.328 59.1583,166.662 59.5,167.5C 59.3964,169.703 58.7298,171.703 57.5,173.5C 56.2905,173.068 55.2905,172.401 54.5,171.5C 55.3077,169.78 56.3077,168.113 57.5,166.5 Z"/></g>
<g><path style="opacity:1" fill="#cf7103" d="M 59.5,167.5 C 62.8333,169.167 66.1667,170.833 69.5,172.5C 69.2097,175.127 67.8764,176.794 65.5,177.5C 62.5152,176.674 59.8485,175.341 57.5,173.5C 58.7298,171.703 59.3964,169.703 59.5,167.5 Z"/></g>
<g><path style="opacity:1" fill="#f0a90e" d="M 20.5,89.5 C 21.4778,89.811 22.1445,90.4777 22.5,91.5C 21.0153,95.9658 21.182,100.299 23,104.5C 23.1787,100.975 23.6787,97.6414 24.5,94.5C 23.6073,129.9 39.274,154.733 71.5,169C 97.3984,177.874 121.398,174.374 143.5,158.5C 145.167,158.5 146.833,158.5 148.5,158.5C 148.513,161.361 149.679,162.361 152,161.5C 152.483,162.448 152.649,163.448 152.5,164.5C 138.233,176.819 121.566,183.485 102.5,184.5C 101.298,182.608 99.965,180.774 98.5,179C 93.4776,178.034 88.4776,177.201 83.5,176.5C 79.8555,175.777 76.1889,174.777 72.5,173.5C 71.609,172.89 70.609,172.557 69.5,172.5C 66.1667,170.833 62.8333,169.167 59.5,167.5C 59.1583,166.662 58.4916,166.328 57.5,166.5C 54.8717,164.512 52.205,162.512 49.5,160.5C 49.1583,159.662 48.4916,159.328 47.5,159.5C 45.8333,157.167 43.8333,155.167 41.5,153.5C 40.8333,152.167 39.8333,151.167 38.5,150.5C 36.7451,147.32 34.7451,144.32 32.5,141.5C 32.1667,140.833 31.8333,140.167 31.5,139.5C 30.0869,136.339 28.4203,133.339 26.5,130.5C 26.4431,129.391 26.1098,128.391 25.5,127.5C 24.193,124.275 23.193,120.941 22.5,117.5C 22.6716,116.508 22.3382,115.842 21.5,115.5C 21.0578,111.846 20.7244,108.179 20.5,104.5C 20.6716,103.508 20.3382,102.842 19.5,102.5C 19.3718,98.1186 19.7051,93.7853 20.5,89.5 Z"/></g>
<g><path style="opacity:0.682" fill="#897e76" d="M 45.5,172.5 C 47.0269,172.427 48.0269,173.094 48.5,174.5C 46.9731,174.573 45.9731,173.906 45.5,172.5 Z"/></g>
<g><path style="opacity:1" fill="#833c02" d="M 69.5,172.5 C 70.609,172.557 71.609,172.89 72.5,173.5C 71.8333,175.5 71.1667,177.5 70.5,179.5C 68.597,179.204 66.9303,178.537 65.5,177.5C 67.8764,176.794 69.2097,175.127 69.5,172.5 Z"/></g>
<g><path style="opacity:1" fill="#cd7104" d="M 72.5,173.5 C 76.1889,174.777 79.8555,175.777 83.5,176.5C 82.5,176.5 81.5,176.5 80.5,176.5C 80.5,178.167 80.5,179.833 80.5,181.5C 79.1667,181.5 77.8333,181.5 76.5,181.5C 74.2143,181.405 72.2143,180.738 70.5,179.5C 71.1667,177.5 71.8333,175.5 72.5,173.5 Z"/></g>
<g><path style="opacity:1" fill="#803b02" d="M 83.5,176.5 C 83.5,178.833 83.5,181.167 83.5,183.5C 81.0479,182.935 78.7146,182.268 76.5,181.5C 77.8333,181.5 79.1667,181.5 80.5,181.5C 80.5,179.833 80.5,178.167 80.5,176.5C 81.5,176.5 82.5,176.5 83.5,176.5 Z"/></g>
<g><path style="opacity:1" fill="#d27203" d="M 83.5,176.5 C 88.4776,177.201 93.4776,178.034 98.5,179C 99.965,180.774 101.298,182.608 102.5,184.5C 96.1082,184.751 89.7748,184.418 83.5,183.5C 83.5,181.167 83.5,178.833 83.5,176.5 Z"/></g>
<g><path style="opacity:0.557" fill="#71645c" d="M 130.5,184.5 C 126.784,186.405 122.784,187.739 118.5,188.5C 122.085,186.194 126.085,184.861 130.5,184.5 Z"/></g>
<g><path style="opacity:0.549" fill="#6b5f57" d="M 81.5,188.5 C 91.1483,189.245 100.815,189.578 110.5,189.5C 106.849,190.165 103.015,190.499 99,190.5C 92.9256,190.659 87.0923,189.993 81.5,188.5 Z"/></g>
</svg>
