<?xml version="1.0" encoding="utf-8"?>
<!-- Generator: Adobe Illustrator 26.0.2, SVG Export Plug-In . SVG Version: 6.00 Build 0)  -->
<svg version="1.1" id="Layer_1" xmlns="http://www.w3.org/2000/svg" xmlns:xlink="http://www.w3.org/1999/xlink" x="0px" y="0px"
	 viewBox="0 0 180 180" style="enable-background:new 0 0 180 180;" xml:space="preserve">
<style type="text/css">
	.st0{fill:url(#SVGID_1_);}
</style>
<linearGradient id="SVGID_1_" gradientUnits="userSpaceOnUse" x1="15.582" y1="131.2397" x2="163.9068" y2="45.6043" gradientTransform="matrix(1 0 0 -1 0 176)">
	<stop  offset="0" style="stop-color:#BCBEFF"/>
	<stop  offset="0.151" style="stop-color:#A3A7F5"/>
	<stop  offset="0.3866" style="stop-color:#8289E8"/>
	<stop  offset="0.6124" style="stop-color:#6A73DF"/>
	<stop  offset="0.8221" style="stop-color:#5C66D9"/>
	<stop  offset="1" style="stop-color:#5761D7"/>
</linearGradient>
<path class="st0" d="M125.6,13.5c-22.5-0.4-41.9,7.1-57.7,23C55.1,49.3,47.8,64.9,45.9,83c-3.9,37.8,20,67.3,44.4,77.4
	c-16-14.7-25.4-32.7-26.5-54.6c-1.1-21.9,6-41,21-57c23.2-24.6,57.4-28.9,82.5-18.5c-5.5,0-11,0-17.2,0c3.2,4,6,7.4,8.5,11
	s4.6,7.5,6.7,11.5c-18.7-8.2-36.9-8-54.2,2.9c-12.6,7.9-20.8,19.4-24,34c-3.3,14.7-0.9,28.7,7.4,41.4c5.7,8.7,13.2,15.5,23.1,19.9
	c-21.4-26.9-23-53.5,1.4-78.6c15.2-15.7,38.5-17.6,55.1-10.9c-0.1,0.1-0.1,0.3-0.2,0.3c-4.5,0.5-4.4,0.4-3.3,4.9
	c1,3.9,1.7,7.9,2.6,11.9c0.1,0.7,0.1,1.4,0.1,2.4c-12.6-6.2-24.8-6.4-36.5,1.1c-8,5.1-13.1,12.5-15.3,21.8
	c-4.3,18.9,8.5,35.6,20,38.9c-7.5-7.9-11.2-17-10.3-27.5c0.6-7.5,3.4-14.2,8.4-19.9c9.2-10.6,25.1-14.8,37.4-9.7
	c-2.9,0-3.2,1.4-3.2,3.5c0,20.5-6.4,38.9-19.3,54.8c-12.9,15.8-29.5,26-49.4,29.7c-29.4,5.4-55.5-2.2-76.9-23.2
	c-16.4-15.9-25-36-25.1-59.1C2.9,60.9,15.7,36.7,40.5,19.3C57.3,7.6,76.3,3.1,96.8,5c9.2,0.8,17.9,3.3,26.3,6.9
	c0.7,0.3,1.5,0.7,2.2,1.1C125.4,13,125.5,13.1,125.6,13.5z"/>
</svg>
