<svg width="1315" height="1319" xmlns="http://www.w3.org/2000/svg" xmlns:xlink="http://www.w3.org/1999/xlink" xml:space="preserve" overflow="hidden"><defs><clipPath id="clip0"><rect x="-9" y="-18" width="1315" height="1319"/></clipPath><clipPath id="clip1"><rect x="0" y="2" width="1300" height="1298"/></clipPath><clipPath id="clip2"><rect x="0" y="2" width="1300" height="1298"/></clipPath><clipPath id="clip3"><rect x="0" y="2" width="1300" height="1298"/></clipPath><clipPath id="clip4"><path d="M1299 650.5C1299 1008.63 1008.23 1298.95 649.547 1298.95 290.864 1298.95 0.0942016 1008.63 0.0942016 650.5 0.0942016 292.369 290.864 2.04712 649.547 2.04712 1008.23 2.04712 1299 292.369 1299 650.5Z" fill-rule="nonzero" clip-rule="nonzero"/></clipPath><linearGradient x1="-26.3824" y1="623.1" x2="427.639" y2="623.1" gradientUnits="userSpaceOnUse" spreadMethod="pad" id="fill5"><stop offset="0" stop-color="#23F7DD" stop-opacity="0.7"/><stop offset="0.27" stop-color="#31D4C0" stop-opacity="0.63"/><stop offset="0.83" stop-color="#557B76" stop-opacity="0.45"/><stop offset="1" stop-color="#606060" stop-opacity="0.4"/></linearGradient><linearGradient x1="0" y1="634.339" x2="1115.52" y2="634.339" gradientUnits="userSpaceOnUse" spreadMethod="pad" id="fill6"><stop offset="0" stop-color="#23F7DD" stop-opacity="0.7"/><stop offset="0.27" stop-color="#31D4C0" stop-opacity="0.63"/><stop offset="0.83" stop-color="#557B76" stop-opacity="0.45"/><stop offset="1" stop-color="#606060" stop-opacity="0.4"/></linearGradient><linearGradient x1="92.5659" y1="648.453" x2="1204.53" y2="648.453" gradientUnits="userSpaceOnUse" spreadMethod="pad" id="fill7"><stop offset="0" stop-color="#23F7DD" stop-opacity="0.1"/><stop offset="0.14" stop-color="#5AF9E5" stop-opacity="0.1"/><stop offset="0.58" stop-color="#D5FDF9" stop-opacity="0.1"/><stop offset="1" stop-color="#FFFFFF" stop-opacity="0.1"/></linearGradient><linearGradient x1="-5.89438" y1="644.146" x2="1306.89" y2="641.854" gradientUnits="userSpaceOnUse" spreadMethod="reflect" id="stroke8"><stop offset="0" stop-color="#249587" stop-opacity="1"/><stop offset="0.4" stop-color="#239B8C" stop-opacity="1"/><stop offset="0.9" stop-color="#27F7DE" stop-opacity="1"/><stop offset="1" stop-color="#72DDD0" stop-opacity="1"/></linearGradient></defs><g clip-path="url(#clip0)" transform="translate(9 18)"><g clip-path="url(#clip1)"><g clip-path="url(#clip2)"><g clip-path="url(#clip3)"><path d="M1297 648.453C1297 1006.58 1006.68 1296.91 648.547 1296.91 290.416 1296.91 0.0940566 1006.58 0.0940566 648.453 0.0940566 290.322 290.416 0 648.547 0 1006.68-1.18856e-13 1297 290.322 1297 648.453Z" fill="#000000" fill-rule="nonzero" fill-opacity="1" transform="matrix(1.00154 0 0 1 0 2.04711)"/><g clip-path="url(#clip4)"><path d="M424.597 567.037C424.597 567.115 3.13641 193.935 3.13641 193.935L3.13641 439.62 318.084 624.757 0 811.285 0 1052.27C-0.203867 1052.42 423.708 676.419 424.597 675.74 463.028 646.54 464.607 600.168 424.597 567.011Z" fill="url(#fill5)" fill-rule="nonzero" transform="matrix(1.00154 0 0 1 0 2.04188)"/><path d="M4.46416 1180.97 420.619 978.477 942.491 1226.86C1046.52 1170.93 1097.22 1117.61 1115.52 1098.27L499.609 615.981 1082.06 166.23C1027.7 120.752 985.356 80.5012 877.672 41.8188L420.619 260.594 0 58.5463 3.13641 193.935 424.597 567.037C464.607 600.168 463.028 646.54 424.597 675.766L0.088865 1052.38" fill="url(#fill6)" fill-rule="nonzero" transform="matrix(1.00154 0 0 1 0 2.04188)"/></g><path d="M1204.53 648.453C1204.53 955.513 955.607 1204.43 648.547 1204.43 341.487 1204.43 92.566 955.513 92.566 648.453 92.566 341.393 341.487 92.4719 648.547 92.4719 955.607 92.4719 1204.53 341.393 1204.53 648.453Z" fill="url(#fill7)" fill-rule="nonzero" transform="matrix(1.00154 0 0 1 0 2.04711)"/><path d="M429.552 665.018 142.09 665.018C144.108 700.183 154.093 727.611 172.048 747.313 190.002 767.015 213.894 776.863 243.725 776.858 270.27 776.858 292.399 771.04 310.113 759.403 327.827 747.767 343.242 728.991 356.359 703.079L425.757 743.533C405.527 781.353 380.499 809.513 350.672 828.012 320.844 846.512 285.821 855.764 245.602 855.775 187.961 855.775 142.074 837.401 107.94 800.647 73.805 763.894 56.7392 714.851 56.7429 653.508 56.7429 594.554 74.3784 546.101 109.649 508.156 144.919 470.209 190.243 451.241 245.618 451.251 303.516 451.251 348.645 468.569 381.006 503.206 413.367 537.842 429.547 586.357 429.547 648.756ZM344.221 607.115C340.935 580.142 331.076 559.583 314.645 545.432 298.214 531.282 275.711 524.209 247.139 524.214 220.082 524.214 198.338 531.088 181.907 544.836 165.475 558.584 153.975 579.342 147.406 607.105Z" fill="#FFFFFF" fill-rule="nonzero" fill-opacity="1" transform="matrix(1.00154 0 0 1 0 2.04188)"/><path d="M641.548 862.921 453.065 464.34 542.944 464.34 621.448 653.513C623.973 659.336 627.01 668.061 630.549 679.692 634.088 691.322 637.747 705.201 641.527 721.333 644.051 709.968 647.01 698.667 650.413 687.423 653.926 675.912 658.045 664.595 662.744 653.513L740.867 464.34 830.365 464.34Z" fill="#FFFFFF" fill-rule="nonzero" fill-opacity="1" transform="matrix(1.00154 0 0 1 0 2.04188)"/><path d="M855.44 652.724C855.44 625.228 860.432 599.248 870.417 574.789 880.338 550.424 894.964 528.26 913.459 509.552 950.097 472.15 1000.29 451.128 1052.64 451.251 1079.69 451.251 1105.17 456.275 1129.06 466.322 1152.96 476.368 1174.39 491.179 1193.36 510.754 1212.32 530.059 1226.72 551.872 1236.59 576.195 1246.45 600.508 1251.47 626.503 1251.38 652.739 1251.38 680.502 1246.51 706.544 1236.78 730.867 1227.1 755.096 1212.59 777.093 1194.12 795.514 1174.39 815.341 1152.52 830.349 1128.51 840.527 1080.25 860.887 1025.82 860.887 977.567 840.527 953.547 830.349 932.183 815.608 913.474 796.309 894.515 776.743 880.108 754.788 870.244 730.444 860.38 706.1 855.446 680.193 855.44 652.724ZM1164.52 653.513C1164.52 618.615 1153.77 589.07 1132.28 564.878 1110.79 540.686 1084.5 528.59 1053.4 528.585 1022.55 528.585 996.323 540.681 974.708 564.878 953.093 589.075 942.288 618.62 942.298 653.513 942.298 688.416 953.103 717.961 974.708 742.153 996.312 766.345 1022.54 778.441 1053.4 778.441 1084.24 778.441 1110.47 766.345 1132.09 742.153 1153.71 717.961 1164.52 688.416 1164.52 653.513Z" fill="#FFFFFF" fill-rule="nonzero" fill-opacity="1" transform="matrix(1.00154 0 0 1 0 2.04188)"/></g></g></g><path d="M8.99993 643C8.99993 287.881 296.209 0 650.5 0 1004.79-1.63725e-13 1292 287.881 1292 643 1292 998.119 1004.79 1286 650.5 1286 296.209 1286 8.99993 998.119 8.99993 643Z" stroke="url(#stroke8)" stroke-width="27.5" stroke-linecap="butt" stroke-linejoin="miter" stroke-miterlimit="8" fill="none" fill-rule="evenodd"/></g></svg>