<svg width="973" height="973" viewBox="0 0 973 973" fill="none" xmlns="http://www.w3.org/2000/svg">
<rect x="0.5" y="0.5" width="972" height="972" stroke="white" stroke-opacity="0.01"/>
<g filter="url(#filter0_d_0_1)">
<mask id="path-2-inside-1_0_1" fill="white">
<path d="M304.156 808.279C279.681 851.541 294.802 907.407 341.988 923.032C390.49 939.092 441.523 947.052 493.027 946.382C574.674 945.32 654.578 922.609 724.579 880.569C794.58 838.528 852.17 778.663 891.469 707.087C930.768 635.512 950.368 554.788 948.268 473.161C946.168 391.533 922.443 311.924 879.516 242.464C836.588 173.003 775.996 116.179 703.926 77.7933C631.856 39.4076 550.891 20.8356 469.296 23.9735C417.826 25.9528 367.27 36.5259 319.658 55.0589C273.338 73.0892 261.11 129.659 287.776 171.605L458.047 439.442C475.884 467.499 476.8 503.104 460.43 532.041L304.156 808.279Z"/>
</mask>
<path d="M304.156 808.279C279.681 851.541 294.802 907.407 341.988 923.032C390.49 939.092 441.523 947.052 493.027 946.382C574.674 945.32 654.578 922.609 724.579 880.569C794.58 838.528 852.17 778.663 891.469 707.087C930.768 635.512 950.368 554.788 948.268 473.161C946.168 391.533 922.443 311.924 879.516 242.464C836.588 173.003 775.996 116.179 703.926 77.7933C631.856 39.4076 550.891 20.8356 469.296 23.9735C417.826 25.9528 367.27 36.5259 319.658 55.0589C273.338 73.0892 261.11 129.659 287.776 171.605L458.047 439.442C475.884 467.499 476.8 503.104 460.43 532.041L304.156 808.279Z" fill="#0B1226"/>
<path d="M304.156 808.279C279.681 851.541 294.802 907.407 341.988 923.032C390.49 939.092 441.523 947.052 493.027 946.382C574.674 945.32 654.578 922.609 724.579 880.569C794.58 838.528 852.17 778.663 891.469 707.087C930.768 635.512 950.368 554.788 948.268 473.161C946.168 391.533 922.443 311.924 879.516 242.464C836.588 173.003 775.996 116.179 703.926 77.7933C631.856 39.4076 550.891 20.8356 469.296 23.9735C417.826 25.9528 367.27 36.5259 319.658 55.0589C273.338 73.0892 261.11 129.659 287.776 171.605L458.047 439.442C475.884 467.499 476.8 503.104 460.43 532.041L304.156 808.279Z" stroke="#1ECFBA" stroke-width="40" mask="url(#path-2-inside-1_0_1)"/>
</g>
<rect x="487.015" y="479" width="39.8542" height="134.029" rx="7" transform="rotate(30 487.015 479)" fill="#0B1226"/>
<path d="M760.078 214.193C777.175 200.391 802.383 202.976 814.661 221.197C862.788 292.619 890.118 376.337 893.14 462.937C896.162 549.536 874.733 634.956 831.701 709.559C820.723 728.591 795.757 732.927 777.74 720.351C759.723 707.774 755.517 683.057 766.151 663.83C799.506 603.526 816.041 535.076 813.621 465.712C811.2 396.347 789.934 329.216 752.458 271.384C740.509 252.945 742.982 227.994 760.078 214.193Z" fill="#1ECFBA"/>
<path d="M669.81 272.393C687.059 262.624 709.1 268.667 717.447 286.646C743.218 342.155 757.695 402.406 759.89 463.889C762.089 525.488 751.906 586.823 730.08 644.292C723.082 662.716 701.695 670.341 683.85 661.978C665.96 653.593 658.439 632.323 665.185 613.753C682.258 566.756 690.178 516.83 688.388 466.697C686.599 416.582 675.148 367.435 654.786 321.922C646.717 303.888 652.618 282.129 669.81 272.393Z" fill="#27F7DE"/>
<path d="M577.882 333.919C593.785 327.914 611.651 335.916 616.582 352.184C638.518 424.552 642.331 501.218 627.681 575.404C624.388 592.081 607.405 601.816 590.985 597.419C574.564 593.022 564.942 576.158 568.064 559.448C579.588 497.761 576.428 434.215 558.841 373.977C554.077 357.659 561.979 339.923 577.882 333.919Z" fill="#27F7F2"/>
<path d="M529.441 511.086H188.621C191.551 550.148 204.246 581.236 226.707 604.348C249.168 627.134 277.977 638.527 313.133 638.527C340.477 638.527 363.1 632.017 381.004 618.996C398.582 605.975 418.602 581.887 441.062 546.73L533.836 598.488C519.513 622.902 504.376 643.898 488.426 661.477C472.475 678.729 455.385 693.052 437.156 704.445C418.927 715.513 399.233 723.651 378.074 728.859C356.915 734.068 333.966 736.672 309.227 736.672C238.263 736.672 181.297 713.885 138.328 668.312C95.3594 622.414 73.875 561.542 73.875 485.695C73.875 410.5 94.7083 349.628 136.375 303.078C178.367 257.18 234.031 234.23 303.367 234.23C373.354 234.23 428.693 256.529 469.383 301.125C509.747 345.396 529.93 406.757 529.93 485.207L529.441 511.086ZM416.648 421.242C401.349 362.648 364.402 333.352 305.809 333.352C292.462 333.352 279.93 335.467 268.211 339.699C256.492 343.605 245.75 349.465 235.984 357.277C226.544 364.764 218.406 373.879 211.57 384.621C204.734 395.363 199.526 407.57 195.945 421.242H416.648Z" fill="#27F7DE"/>
<path d="M529.441 511.086V531.086H549.068L549.438 511.463L529.441 511.086ZM188.621 511.086V491.086H167.065L168.677 512.582L188.621 511.086ZM226.707 604.348L212.364 618.286L212.414 618.337L212.464 618.388L226.707 604.348ZM381.004 618.996L392.767 635.171L392.838 635.119L392.908 635.067L381.004 618.996ZM441.062 546.73L450.807 529.265L434.353 520.085L424.209 535.963L441.062 546.73ZM533.836 598.488L551.086 608.609L561.428 590.98L543.58 581.023L533.836 598.488ZM488.426 661.477L503.111 675.054L503.174 674.985L503.237 674.916L488.426 661.477ZM437.156 704.445L447.536 721.541L447.646 721.474L447.756 721.405L437.156 704.445ZM138.328 668.312L123.728 681.981L123.752 682.007L123.776 682.033L138.328 668.312ZM136.375 303.078L121.619 289.578L121.545 289.658L121.473 289.739L136.375 303.078ZM469.383 301.125L484.162 287.65L484.157 287.645L469.383 301.125ZM529.93 485.207L549.926 485.584L549.93 485.396V485.207H529.93ZM416.648 421.242V441.242H442.541L436 416.189L416.648 421.242ZM268.211 339.699L274.535 358.673L274.771 358.594L275.004 358.51L268.211 339.699ZM235.984 357.277L248.412 372.947L248.445 372.921L248.478 372.895L235.984 357.277ZM195.945 421.242L176.598 416.175L170.033 441.242H195.945V421.242ZM529.441 491.086H188.621V531.086H529.441V491.086ZM168.677 512.582C171.879 555.274 185.972 591.129 212.364 618.286L241.05 590.409C222.52 571.342 211.223 545.023 208.565 509.59L168.677 512.582ZM212.464 618.388C239.073 645.383 273.205 658.527 313.133 658.527V618.527C282.748 618.527 259.263 608.885 240.951 590.308L212.464 618.388ZM313.133 658.527C343.694 658.527 370.711 651.212 392.767 635.171L369.24 602.821C355.49 612.822 337.259 618.527 313.133 618.527V658.527ZM392.908 635.067C413.502 619.812 435.112 593.192 457.916 557.498L424.209 535.963C402.091 570.582 383.662 592.138 369.099 602.925L392.908 635.067ZM431.318 564.196L524.092 615.954L543.58 581.023L450.807 529.265L431.318 564.196ZM516.585 588.368C502.83 611.814 488.483 631.651 473.615 648.037L503.237 674.916C520.269 656.146 536.196 633.991 551.086 608.609L516.585 588.368ZM473.74 647.899C458.884 663.968 443.147 677.116 426.556 687.485L447.756 721.405C467.624 708.988 486.066 693.49 503.111 675.054L473.74 647.899ZM426.777 687.35C410.323 697.339 392.523 704.706 373.294 709.439L382.855 748.28C405.944 742.596 427.531 733.687 447.536 721.541L426.777 687.35ZM373.294 709.439C353.893 714.215 332.568 716.672 309.227 716.672V756.672C335.364 756.672 359.937 753.921 382.855 748.28L373.294 709.439ZM309.227 716.672C242.966 716.672 191.551 695.607 152.88 654.592L123.776 682.033C171.043 732.164 233.56 756.672 309.227 756.672V716.672ZM152.929 654.644C114.119 613.188 93.875 557.573 93.875 485.695H53.875C53.875 565.51 76.6 631.64 123.728 681.981L152.929 654.644ZM93.875 485.695C93.875 414.368 113.534 358.583 151.277 316.417L121.473 289.739C75.8825 340.672 53.875 406.632 53.875 485.695H93.875ZM151.131 316.578C188.878 275.32 238.93 254.23 303.367 254.23V214.23C229.132 214.23 167.856 239.039 121.619 289.578L151.131 316.578ZM303.367 254.23C368.715 254.23 418.323 274.837 454.608 314.605L484.157 287.645C439.062 238.22 377.993 214.23 303.367 214.23V254.23ZM454.604 314.6C490.677 354.165 509.93 410.16 509.93 485.207H549.93C549.93 403.353 528.818 336.627 484.162 287.65L454.604 314.6ZM509.933 484.83L509.445 510.709L549.438 511.463L549.926 485.584L509.933 484.83ZM436 416.189C427.568 383.896 412.621 357.677 389.89 339.653C367.093 321.576 338.496 313.352 305.809 313.352V353.352C331.715 353.352 350.888 359.775 365.037 370.995C379.254 382.268 390.43 399.994 397.297 426.295L436 416.189ZM305.809 313.352C290.312 313.352 275.466 315.815 261.418 320.888L275.004 358.51C284.394 355.12 294.613 353.352 305.809 353.352V313.352ZM261.886 320.726C247.901 325.387 235.075 332.392 223.49 341.66L248.478 372.895C256.425 366.537 265.083 361.824 274.535 358.673L261.886 320.726ZM223.556 341.607C212.273 350.556 202.661 361.369 194.697 373.884L228.444 395.359C234.151 386.389 240.816 378.972 248.412 372.947L223.556 341.607ZM194.697 373.884C186.632 386.557 180.647 400.715 176.598 416.175L215.293 426.309C218.405 414.426 222.837 404.169 228.444 395.359L194.697 373.884ZM195.945 441.242H416.648V401.242H195.945V441.242Z" fill="#0B1226"/>
<defs>
<filter id="filter0_d_0_1" x="269.864" y="23.6326" width="682.556" height="930.788" filterUnits="userSpaceOnUse" color-interpolation-filters="sRGB">
<feFlood flood-opacity="0" result="BackgroundImageFix"/>
<feColorMatrix in="SourceAlpha" type="matrix" values="0 0 0 0 0 0 0 0 0 0 0 0 0 0 0 0 0 0 127 0" result="hardAlpha"/>
<feOffset dy="4"/>
<feGaussianBlur stdDeviation="2"/>
<feComposite in2="hardAlpha" operator="out"/>
<feColorMatrix type="matrix" values="0 0 0 0 0 0 0 0 0 0 0 0 0 0 0 0 0 0 0.25 0"/>
<feBlend mode="normal" in2="BackgroundImageFix" result="effect1_dropShadow_0_1"/>
<feBlend mode="normal" in="SourceGraphic" in2="effect1_dropShadow_0_1" result="shape"/>
</filter>
</defs>
</svg>
