<?xml version="1.0" encoding="utf-8"?>
<!-- Generator: Adobe Illustrator 25.1.0, SVG Export Plug-In . SVG Version: 6.00 Build 0)  -->
<svg version="1.1" id="Layer_1" xmlns="http://www.w3.org/2000/svg" xmlns:xlink="http://www.w3.org/1999/xlink" x="0px" y="0px"
	 viewBox="0 0 3500 3500" style="enable-background:new 0 0 3500 3500;" xml:space="preserve">
<style type="text/css">
	.st0{fill:#263B96;}
	.st1{fill:url(#SVGID_1_);}
	.st2{fill:url(#SVGID_2_);}
	.st3{fill:url(#SVGID_3_);}
	.st4{fill:url(#SVGID_4_);}
	.st5{fill:#2A67AE;}
	.st6{fill:#344C9B;}
	.st7{fill:#F5BC2A;}
	.st8{fill:#FDD920;}
	.st9{fill:#F58131;}
	.st10{fill:#FFFFFF;}
	.st11{fill:url(#SVGID_5_);}
	.st12{fill:url(#SVGID_6_);}
	.st13{fill:url(#SVGID_7_);}
	.st14{fill:url(#SVGID_8_);}
	.st15{fill:url(#SVGID_9_);}
	.st16{fill:url(#SVGID_10_);}
	.st17{fill:url(#SVGID_11_);}
	.st18{fill:none;stroke:#263B96;stroke-width:80;stroke-miterlimit:10;}
</style>
<circle class="st0" cx="1750" cy="1750" r="1609.36"/>
<path class="st10" d="M2858.14,1098.87l-168.76,97.45l-247.86-143.03l-0.19-194.73L2858.14,1098.87z M1493.38,2091.89l0.19-194.99
	l-253.3-146.06l-253.04,146.12l-0.06,292.13l253.12,146.28l168.84-97.46l858.09,495.45l0-194.91L1493.38,2091.89z M2858.14,1098.88
	l-168.76,97.45l0,0l-0.29,1098.34l-421.86,243.78l0,194.91l591.15-341.39L2858.14,1098.88z M818.31,1799.8l773.66-446.89
	l168.77,97.66l253.14-146.34l-0.03-292.2l-252.96-146.12l-253.24,146.07l-0.02,194.95l-858.12,495.41L818.31,1799.8z
	 M2017.35,2693.32l-247.8,143.13l0.02,194.88l416.52-240.81L2017.35,2693.32z M649.52,1702.35l0.07,682.65l1119.98,646.34
	l-0.02-194.88l-951.05-549.42l-0.19-487.23L649.52,1702.35z M2183.78,907.38l0.19,893.46l-168.96,97.33l0.16,292.39l253.07,146.08
	l253.02-146.01l0.12-292.35l-168.83-97.49l0.03-990.85L2183.78,907.38z M810.45,1499.02l-0.06-286.17l-168.78-97.43l0.29,481.13
	L810.45,1499.02z M2352.58,809.93l-591.22-341.26L641.62,1115.43l168.78,97.43l951.34-548.92l422.05,243.45L2352.58,809.93z"/>
<circle class="st18" cx="1750" cy="1750" r="1693.53"/>
</svg>
