<svg xmlns="http://www.w3.org/2000/svg" width="200" height="200"><path style="stroke:none;fill-rule:nonzero;fill:#000;fill-opacity:1" d="M126 1h75c0 64.02 0 128.043-.371 192.668-1.996.855-3.625 1.105-5.387 1.375-.172-2.094-.293-3.535-.34-5.418-1.351-.836-2.77-1.559-4.191-1.57-11.438-.098-22.879-.02-34.32-.106-1.735-.012-3.465-.597-5.278-1.336.227-5.703-3.976-2.808-6.105-3.972-.024-.243-.172-.715-.106-1.11.082-1.719.094-3.043.543-4.437 3.516-.102 7.043.793 6.637-4.496-.3-3.957-1.406-8.711 4.836-9.543.086-.012.086-.621.473-1.14.496-1.767.644-3.34 1.101-4.868.723.027 1.137.008 1.934-.02 1.398.047 2.41.094 3.457.57-.606 5.106 1.293 7.231 6.097 6.872-.601 4.504 1.168 6.039 5.192 5.574 2.246-.254 4.543-.063 7.246-.063 6.695-.136 7.121-1.066 6.644-9.16-.312-5.289-3.714-2.62-6.07-3.07-.012-.246-.035-.734-.023-1.125a139.131 139.131 0 0 0-.324-4.363c-2.547-.492-4.583-.887-6.625-1.742-.008-2.098-.243-3.77.023-5.36.848-5.058-1.375-6.914-6.152-6.773.066-2.93.195-5.407.093-7.871-.23-5.485-.578-10.965-1.27-16.465-1.839-.364-3.284-.707-4.726-1.508.02-10.766.02-10.766-6.008-12 .008-1.766.016-3.074.016-4.383-.004-7.058-.008-7.058-6.965-7.601-.344-2.118-.687-3.836-1.445-5.555-1.809 0-3.2 0-4.594-.238-.004-.243-.058-.723-.035-1.125-.144-1.907-.312-3.41-.402-4.23-4.395-.536-7.989-.974-11.575-1.845.168-2.754-.566-6.511 3.274-5.402 7.426 2.148 8.633-6.465 14.094-7.324-.23-4.742 3.898-4.598 7.09-6.117.453-7.547.542-14.93.476-22.317-.004-.476-1.203-.945-2.277-1.422-4.32.582-4.633-1.695-4.723-4.785-.098-3.48 2.168-8.617-4.703-8.57-.363.004-1.07-.969-1.05-1.465.116-2.832-.93-4.258-3.954-4.477-.789-.054-2-1.804-2.078-2.843-.242-3.32-1.711-3.465-4.637-3.04-8.105 1.188-8.472.72-8.492-6.804ZM1 195V1c27.02 0 54.043 0 81.531.426 1.399 5.55-1.5 7.058-6.277 6.832-.086 1.707-.152 3.125-.621 4.656-2.145.445-3.895.777-6.031 1.227-.567 1.52-.75 2.925-.907 4.148-1.648.594-3.156 1.133-4.672 2.137-.023 4.125-.035 7.789-.28 11.527-.235.074-.7.238-1.114.164-1.813-.11-3.211-.144-4.617-.57-.067-1.445-.125-2.492-.285-3.887-1.875-1.281-5.07-2.086-5.168-3.172-.489-5.336-4.172-4.433-7.5-5.008a608.362 608.362 0 0 1-.297-5.32c-2.149-.101-3.926-.183-5.79-.492-.273-.508-.535-.672-.91-1.14-.128-1.68-.222-2.934-.324-4.34-2.11-.122-3.886-.223-5.914-.602-4.379.094-8.508.465-12.922.863 0 1.95 0 3.727-.43 5.524-2.023.093-3.613.175-5.55.27 0 2.14 0 3.933-.41 5.737-1.782.067-3.153.125-4.926.336-.461 11.97-.535 23.782-.535 35.594 0 .64.613 1.285 1.347 1.996 1.77.094 3.133.114 4.54.551-.758 5.309 2.152 5.965 6.003 6.016-.48 4.28 1.008 6.02 5.059 5.574 2.633-.29 5.313-.149 8.398-.137 5.055.809 7.387-.902 7.114-5.855 5.285.757 5.828-2.243 6.039-5.977 6.449-.055 12.441-.062 18.441.356-.058 3.113-.383 5.921 3.77 5.675.629-.035 1.886.754 1.875 1.133-.172 5.852 4.066 5.207 7.43 4.637 5.253-.887 6.445 1.48 5.605 6.047-.727.41-1.156.722-2.008 1.039-1.844.027-3.266.055-5.113.066-2.016.098-3.602.207-5.028.305-.449 2.152-.78 3.727-1.085 5.187l-5.493 1.141c0 1.809 0 3.45-.218 5.16-.22.067-.653.203-1.075.196-4.57-.715-4.914 1.87-4.902 5.062-.457.324-.64.578-1.188.895-4.472-.594-6.09 1.082-5.613 5.168.266 2.246.031 4.55-.332 6.996-1.93.582-3.5.992-5.633 1.554 0 5.739 0 11.512-.437 17.278-1.996.101-3.559.21-5.55.351 0 4.203 0 7.938-.352 11.828-1.926.559-3.504.957-5.336 1.418-.118 1.493-.235 2.946-.555 4.52-.461.324-.645.578-1.188.894-5.562-.922-6.015 2.125-5.523 6.414-.688 5.047 1.039 7.348 6.402 6.575 2.61.015 4.758-.078 6.899.047 3.386.195 5.824-.364 5.886-4.653.012-.789 2.497-1.547 3.825-1.926 1.758 1.782-.61 6.23 4.02 5.961 1.398.45 2.632.567 3.894 1.137.031 3.988.031 7.52.031 11.293 1.535 0 2.762 0 4.309.074.75.106 1.183.137 1.652.625-.016 4.14-.066 7.828-.477 11.672-2.007.54-3.664.918-5.351 1.305-.098 1.613-.184 3.07-.73 4.523-15.282-.011-30.102-.05-44.923.016-1.44.004-2.882.648-4.39 1.43-.152 2.035-.238 3.64-.34 5.523H1Zm0 0"/><path style="stroke:none;fill-rule:nonzero;fill:#141314;fill-opacity:1" d="M157.035 56.883c-2.789 1.36-6.918 1.215-6.687 5.957-5.461.86-6.668 9.472-14.094 7.324-3.84-1.11-3.106 2.648-3.516 5.402-.254.434-.742.434-1.203.434-4.187.035-7.91.066-11.61.094.028-.004-.007.035-.042-.133-.317-.164-.594-.16-1.293-.098-1.82.133-3.227.211-4.86.219-.23-.066-.703-.008-1.003-.3-2.93-.462-5.598-.423-8.188-.84-3.695-.59-9.031 2.53-10.234-4.227-.051-.274-.836-.602-1.27-.594-3.07.07-5.203-.789-5.222-4.414 0-.535-1.028-1.523-1.594-1.535-4.996-.113-4.23-3.633-3.703-6.852 2.398-.117 4.386-.433 6.277-.14 4.945.761 6.926-1.254 6.723-6.114 2.066-.097 3.718-.187 5.808-.187 5.563 1.074 6.387-1.727 5.75-6.3 1.352-5.794-1.906-6.704-6.078-7.11-.02-2.047-.05-3.688-.016-5.758.133-2.191.2-3.945.688-5.703 4.379.59 5.496-1.176 5.48-5.035-.007-2.602.653-6.239 2.399-7.52 1.703-1.246 3.504-1.57 3.738-4.168.07-.785 1.535-2.117 2.285-2.066 5.078.355 4.496-3.067 4.43-6.219h5.57c.45 7.523.817 7.992 8.922 6.805 2.926-.426 4.395-.282 4.637 3.039.078 1.039 1.289 2.789 2.078 2.844 3.023.218 4.07 1.644 3.953 4.476-.02.496.688 1.469 1.05 1.465 6.872-.047 4.606 5.09 4.704 8.57.09 3.09.402 5.367 5.098 5.004.883 8.04.953 15.86 1.023 23.68m-12.14-30.406c-.297-.114-.594-.223-1.715-.524-1.407.024-2.813.043-4.297-.789-.086-1.766-.168-3.527-.254-5.316h-18.961l-.453 5.832c-2.067.183-3.945.351-5.73.511V44.72c2.28.191 4.25.355 6.011 1.406v4.586h19.254c0-2.168 0-3.969.914-5.77h5.086c0-4.574 0-8.77.156-13.78-.047-1.388-.094-2.774-.011-4.684Zm0 0"/><path style="stroke:none;fill-rule:nonzero;fill:#000;fill-opacity:1" d="M132 201c-18.02 0-36.043 0-54.516-.422-.437-2.101-.425-3.785.008-5.512 1.828-.109 3.235-.171 5.07-.168 2.434.032 4.446-.003 6.918.024 7.829.012 15.192-.043 22.997-.027 2.718.074 5 .074 7.605.074 0-2.305 0-4.114.406-5.938 1.864.387 3.317.793 4.692 1.586-.399 3.016.527 4.438 3.418 4.43 1.183-.004 2.367.613 3.492 1.363-.07 1.805-.082 3.2-.09 4.59Zm0 0"/><path style="stroke:none;fill-rule:nonzero;fill:#ec7613;fill-opacity:1" d="M1 195.5c1.805-.5 3.613-.5 5.75-.5.102-1.883.188-3.488.797-5.54a384.534 384.534 0 0 1 31.441.102c.465 4.372-1.46 5.739-5.21 5.473-2.618-.187-5.298.235-7.887-.094-4.864-.62-6.66 1.38-5.891 6.059H1v-5.5Zm0 0"/><path style="stroke:none;fill-rule:nonzero;fill:#d96a10;fill-opacity:1" d="M20.469 201c-1.239-4.68.558-6.68 5.422-6.059 2.59.329 5.27-.093 7.886.094 3.75.266 5.676-1.101 5.672-5.531 4.153-.422 7.848-.375 11.547.09-.883 5.55 2.36 5.719 6.004 5.836V201H20.469Zm0 0"/><path style="stroke:none;fill-rule:nonzero;fill:#c7610e;fill-opacity:1" d="M194.832 190.063c.117 1.445.238 2.886.41 4.98 1.762-.27 3.39-.52 5.387-.906.371 2.156.371 4.449.371 6.863-6.02 0-12.04 0-18.531-.434.156-4.511-1.594-6.066-5.64-5.613-2.25.254-4.552.047-6.829.047v-.418c0-2.078 0-3.738.465-5.453 3.59-.074 6.719-.227 9.832-.078 4.851.23 9.691.664 14.535 1.012Zm0 0"/><path style="stroke:none;fill-rule:nonzero;fill:#1b1b1b;fill-opacity:1" d="M119.535 1c.531 3.152 1.113 6.574-3.965 6.219-.75-.051-2.215 1.281-2.285 2.066-.234 2.598-2.035 2.922-3.738 4.168-1.746 1.281-2.406 4.918-2.399 7.52.016 3.859-1.101 5.625-5.57 4.609-.52-2.184-.531-3.934-.539-6.14-.004-3.45-.184-6.458.066-9.422.086-1.024 1.254-2.805 1.903-2.793C107.96 7.32 106.898 3.836 107 1h12.535Zm0 0"/><path style="stroke:none;fill-rule:nonzero;fill:#2c2a2b;fill-opacity:1" d="M106.54 1c.358 2.836 1.42 6.32-3.532 6.227-.649-.012-1.817 1.77-1.903 2.793-.25 2.964-.07 5.972-.527 9.293-2.379.453-4.285.574-6.172.726.028.027.102.05-.02-.352-.12-2.234-.12-4.062-.12-6.18-1.473-.148-3.371-.339-5.278-.905.055-2.23-2.05-5.364 1.594-5.352C95.688 7.266 95.051 4.137 95 1h11.54Zm0 0"/><path style="stroke:none;fill-rule:nonzero;fill:#1c1c1d;fill-opacity:1" d="M94.54 1c.51 3.137 1.147 6.266-3.958 6.25-3.644-.012-1.539 3.121-2.047 5.453-4.469.54-8.492.602-12.445.527.074-.14-.059-.43-.059-.43.07-1.417.137-2.835.223-4.542C81.03 8.484 83.93 6.977 83 1.426 86.691 1 90.387 1 94.54 1Zm0 0"/><path style="stroke:none;fill-rule:nonzero;fill:#ec7613;fill-opacity:1" d="M157 201c-6.02 0-12.043 0-18.531-.43-.461-2.14-.457-3.851-.215-5.574a17.47 17.47 0 0 1 1.191-.016c6.16.016 11.852.024 17.547.458.008 2.136.008 3.851.008 5.562Zm0 0"/><path style="stroke:none;fill-rule:nonzero;fill:#db6e18;fill-opacity:1" d="M77.074 195.113c-.015 1.68-.027 3.364-.058 5.465-4.04.422-8.067.422-12.555-.004-.465-2.137-.469-3.847-.016-5.562 4.153-.344 7.848-.68 11.774-.88.433.419.644.7.855.981Zm0 0"/><path style="stroke:none;fill-rule:nonzero;fill:#d96a10;fill-opacity:1" d="M170 195c2.277 0 4.578.207 6.828-.047 4.047-.453 5.797 1.102 5.172 5.613-3.691.434-7.387.434-11.54.004-.46-2.14-.46-3.855-.46-5.57Zm0 0"/><path style="stroke:none;fill-rule:nonzero;fill:#ec7613;fill-opacity:1" d="M170 195v5.57c-2.043.43-4.082.43-6.559.004-.433-2.137-.43-3.847.012-5.562 2.473-.008 4.512-.012 6.547-.012ZM63.992 195.016c0 1.71.004 3.422.004 5.558-2.039.426-4.078.426-6.559.426-.437-1.715-.437-3.43-.437-5.57 0-.43.004-.426.434-.426 2.148-.012 3.87-.024 5.832-.024.242.008.726.036.726.036Zm0 0"/><path style="stroke:none;fill-rule:nonzero;fill:#d96a10;fill-opacity:1" d="M163.02 195.02c-.008 1.707-.012 3.417-.016 5.554-1.719.426-3.434.426-5.574.426-.43-1.71-.43-3.426-.426-5.57.004-.438.02-.453.445-.446 2.13.008 3.836.004 5.547.012l.024.024ZM138.012 195.008c0 1.71-.004 3.422-.008 5.562-1.719.43-3.434.43-5.574.43-.422-1.39-.41-2.785-.008-4.758 2.125-.8 3.86-1.02 5.59-1.234Zm0 0"/><path style="stroke:none;fill-rule:nonzero;fill:#c66718;fill-opacity:1" d="M138.254 194.996c-1.973.227-3.707.445-5.77.832-1.52-.168-2.703-.785-3.886-.781-2.891.008-3.817-1.414-3.215-4.578.457-.809.629-1.09 1.207-1.426 5.742.668 6.027-2.566 5.738-6.656 1.395-.801 2.488-1.426 3.774-1.719 3.043.644 5.89.95 8.734 1.258 0 0 .148.472.16 1.133-.648 2.12-1.059 4.629-2.016 4.859-4.152 1-4.25 3.82-4.007 7.05 0 0-.48.016-.72.028Zm0 0"/><path style="stroke:none;fill-rule:nonzero;fill:#d1c56e;fill-opacity:1" d="M158.188 156.996c-.153 1.578-.301 3.152-1.157 5.031-2.484.57-4.258.828-6.031.61.133-8.364.27-16.246.621-24.188.633-.168 1.05-.277 1.816-.328 1.047.016 1.747-.023 2.614.059.168.117.57.199.57.199s.399-.078.5.094c.102.172.441.37.371.84.047 4.214.168 7.957.156 12.054-.046 1.082.036 1.817-.062 2.856.078 1.125.34 1.949.601 2.773Zm0 0"/><path style="stroke:none;fill-rule:nonzero;fill:#141314;fill-opacity:1" d="M163.984 113c1.446.344 2.891.688 4.688 1.516.433 8.445.516 16.41.156 24.406-1.906.047-3.367.066-5.074.074-.246-.008-.73-.031-.738-.496-.008-8.813-.016-17.152.226-25.5h.742Zm0 0"/><path style="stroke:none;fill-rule:nonzero;fill:#d96a12;fill-opacity:1" d="M139.445 194.98c-.715-3.242-.617-6.062 3.535-7.062.958-.23 1.368-2.738 2.04-4.613 2.117.5 6.32-2.395 6.113 3.687 2.023 1.262 3.953 1.73 5.875 2.61.004 2.066.008 3.722.015 5.375L157 195c-5.703.004-11.395-.004-17.555-.02Zm0 0"/><path style="stroke:none;fill-rule:nonzero;fill:#1b1b1a;fill-opacity:1" d="M181.988 169.969c-2.273.011-4.57-.18-6.816.074-4.024.465-5.793-1.07-5.176-5.594.004-.453.035-.492.465-.48 6.738 1.062 5.469-3.442 5.973-6.969 2.464.008 4.496.012 6.523.016 0 0 .023.488-.133 1.113-.383 4.36-.61 8.101-.836 11.84Zm0 0"/><path style="stroke:none;fill-rule:nonzero;fill:#1c1c1b;fill-opacity:1" d="M150 83.008c.344 1.715.688 3.433 1.02 6.015-.012 4.567-.012 8.266-.016 11.973-.004.004-.012.012-.45.012-2.195.015-3.949.035-6.117.02-2.062-.04-3.71-.044-5.468-.454-.172-1.8-.239-3.195-.18-4.828.195-.406.262-.574.547-.742.226-.004.672-.012 1.09-.008 5.601.629 4.469-3.105 4.57-5.996.008 0 .024-.008.422-.008 5.055.285 4.578-3.02 4.582-5.984Zm0 0"/><path style="stroke:none;fill-rule:nonzero;fill:#23221e;fill-opacity:1" d="M140.008 94.992s-.446.008-.758-.414c-.418-2.312-.52-4.203-.621-6.062-2.445-.29-4.371-.516-6.274-1.157-.117-2.043-.253-3.68-.351-5.39.039-.07.144-.196.594-.133 4.414.11 8.375.16 12.336.207 0 0 .054.48.054 1.148.012 2.38.02 4.09.032 5.801 0 0-.016.008-.442.008-5.598-.625-4.476 3.102-4.57 5.992Zm0 0"/><path style="stroke:none;fill-rule:nonzero;fill:#121414;fill-opacity:1" d="M182.418 169.98c-.203-3.75.023-7.492.422-11.609 2.508-.172 5.91-2.84 6.222 2.45.477 8.093.051 9.023-6.644 9.16Zm0 0"/><path style="stroke:none;fill-rule:nonzero;fill:#131313;fill-opacity:1" d="M151.008 100.992c0-3.703 0-7.402.012-11.57 6.968-.32 6.972-.32 6.976 6.738 0 1.309-.008 2.617-.262 4.383-.25.457-.742.46-1.168.46l-5.558-.01Zm0 0"/><path style="stroke:none;fill-rule:nonzero;fill:#121414;fill-opacity:1" d="M156.992 101.004s.492-.004.735-.004c6.28.777 6.28.777 6.261 11.543-.004.457-.5.457-1.18.46-4.757.622-6.3-1.136-5.855-5.179.25-2.246.043-4.547.04-6.82ZM169.848 138.84c4.82-.594 7.043 1.262 6.195 6.32-.266 1.59-.031 3.262-.031 5.367-.004.47-.02.48-.446.477-2.14-.004-3.855-.004-5.566-.004v-.46c-.063-4.227-.121-7.993-.152-11.755.03 0 0 .055 0 .055ZM144.957 81.64c-3.984.356-7.945.305-12.406-.21-.516-2.121-.535-3.774-.555-5.43h.734c3.836.438 7.43.875 11.825 1.41.09.82.257 2.324.402 4.23Zm0 0"/><path style="stroke:none;fill-rule:nonzero;fill:#d6ca73;fill-opacity:1" d="M144.902 181.531c-2.91.086-5.757-.219-8.668-1.187.598-1.828 1.258-2.996 2.332-4.227 2.086-.074 3.762-.09 5.532.137a5 5 0 0 0 .914.906c-.016 1.328-.028 2.653-.11 4.371Zm0 0"/><path style="stroke:none;fill-rule:nonzero;fill:#bdaf9f;fill-opacity:1" d="M157.012 189.191c-1.926-.468-3.856-.937-5.801-1.78 1.715-.06 3.445.526 5.18.538 11.441.086 22.882.008 34.32.106 1.422.011 2.84.734 4.191 1.57-4.914.09-9.754-.344-14.605-.574-3.113-.149-6.242.004-10.258.012-2.629.035-4.363.085-6.527.07-2.453-.024-4.477.02-6.5.058Zm0 0"/><path style="stroke:none;fill-rule:nonzero;fill:#bed5bf;fill-opacity:1" d="M145.445 177.094c-.707-.153-.98-.375-1.144-.934.383-.496.582-.715 1.14-1.023 3.602.289 4.875-1.125 4.63-4.301-.18-2.266-.005-4.559.202-6.945.43-.278.61-.5.727-.774 1.773-.262 3.547-.52 5.684-.898.32.215.32.824.234.836-6.242.832-5.137 5.586-4.836 9.543.406 5.289-3.121 4.394-6.637 4.496Zm0 0"/><path style="stroke:none;fill-rule:nonzero;fill:#1c1c1d;fill-opacity:1" d="M169.984 164.016c-4.808.812-6.707-1.313-6.066-6.461.004-.47.078-.551.508-.551 2.144-.004 3.86-.004 5.574.43.012 2.464.02 4.496.031 6.523l-.047.059Zm0 0"/><path style="stroke:none;fill-rule:nonzero;fill:#121414;fill-opacity:1" d="M182.969 156.625c-2.04.387-4.07.383-6.535.375-.434 0-.434 0-.434-.426-.004-2.14-.004-3.855-.008-5.566 0 0 .016-.012.024-.02 2.047.387 4.082.782 6.629 1.274.097 1.11.218 2.539.324 4.363Zm0 0"/><path style="stroke:none;fill-rule:nonzero;fill:#141314;fill-opacity:1" d="M145.418 88.992c-.41-1.71-.418-3.422-.426-5.558 1.395-.43 2.785-.43 4.594-.43.41 2.969.887 6.273-4.168 5.988Zm0 0"/><path style="stroke:none;fill-rule:nonzero;fill:#9cc8db;fill-opacity:1" d="M157.438 56.723c-.473-7.66-.543-15.48-.993-23.52.266.258 1.465.727 1.47 1.203.065 7.387-.024 14.77-.477 22.317Zm0 0"/><path style="stroke:none;fill-rule:nonzero;fill:#617882;fill-opacity:1" d="M169.27 138.89c-.083-7.964-.165-15.93-.204-24.359.34 5.02.688 10.5.918 15.985.102 2.464-.027 4.941-.093 7.87-.043.454-.012.4-.18.415-.172.015-.441.09-.441.09Zm0 0"/><path style="stroke:none;fill-rule:nonzero;fill:#1c1c1d;fill-opacity:1" d="M163.883 157.129c-1.047-.008-2.059-.055-3.43-.445-.351-.805-.351-1.266-.07-1.852 1.058-.363 1.836-.598 2.742-.539a70.61 70.61 0 0 1 .871 2.71l-.113.126Zm0 0"/><path style="stroke:none;fill-rule:nonzero;fill:#3c3b31;fill-opacity:1" d="M160.105 154.957c-.003.461-.003.922-.035 1.73-.441.368-.855.387-1.578.36-.566-.875-.828-1.7-.652-2.785 1.043.054 1.656.375 2.265.695Zm0 0"/><path style="stroke:none;fill-rule:nonzero;fill:#881d2b;fill-opacity:1" d="M95.105 51.078c.614 4.848-1.367 6.863-6.312 6.102-1.89-.293-3.879.023-6.742.035-6.633.242-12.352.515-18.07.789-5.989.012-11.981.02-18.461-.367-.48-2.457-.47-4.516-.028-6.594 4.633.617 5.778-1.336 5.59-5.328-.281-5.895-.027-11.82.422-17.73 2.39.011 4.36.015 6.324.023.059 1.047.117 2.094.031 3.898-1.48 6.489-1.027 7.02 5.164 7.059-.023.023.028-.012.157.347.53 4.926 3.136 6.364 7.441 5.735 1.758-.258 3.582-.04 5.375-.043.004-.004-.012.008-.008.441-.656 4.645 1.285 5.88 5.297 5.633 4.59-.281 9.211-.023 13.82 0Zm0 0"/><path style="stroke:none;fill-rule:nonzero;fill:#e7333d;fill-opacity:1" d="M63.043 32.191s.465-.164 1.086-.152c2.215-.008 3.805-.027 5.851.078 2.325.043 4.196-.043 6.497-.086 2.18-.015 3.925-.07 6.125-.05 4.28.05 8.105.027 11.976-.016.043-.024.106.05.211.473-.719 5.226 2.777 5.832 6.14 7.015.008 2.094-.015 3.766-.503 5.465-8.453.047-16.446.07-24.442.094 0 0 .016-.012.016-.446.61-4.468-1.066-6.066-5.148-5.636-2.575.27-5.2.03-7.801.023 0 0-.051.035-.031-.41.023-2.414.023-4.383.023-6.352Zm0 0"/><path style="stroke:none;fill-rule:nonzero;fill:#211e1b;fill-opacity:1" d="M63.992 58.434c5.707-.704 11.426-.977 17.606-1.141.39 3.246-.375 6.766 4.62 6.879.567.012 1.594 1 1.594 1.535.02 3.625 2.153 4.484 5.223 4.414.434-.008 1.219.32 1.27.594 1.203 6.758 6.539 3.637 10.234 4.226 2.59.418 5.258.38 8.164 1.067.277.523.145.965.195.957.055-.004.032-.11-.398-.059-2.453.11-4.473.168-6.957.153-6.14-.118-11.816-.157-17.684-.543-1.757-.457-3.324-.57-4.894-.688.547-4.469-.645-6.836-5.899-5.95-3.363.571-7.601 1.216-7.43-4.636.012-.379-1.245-1.168-1.874-1.133-4.153.246-3.828-2.562-3.77-5.675Zm0 0"/><path style="stroke:none;fill-rule:nonzero;fill:#e7313b;fill-opacity:1" d="M12.898 58.043c-1.367-.023-2.73-.043-4.496-.594-.406-12.781-.41-25.035-.414-37.289 1.371-.055 2.742-.113 4.782-.176.84-.004 1.011 0 1.195.473.015 12.512.02 24.55-.11 36.805-.41.402-.683.59-.957.781Zm0 0"/><path style="stroke:none;fill-rule:nonzero;fill:#131313;fill-opacity:1" d="M49.07 151.05c-1.343.77-3.828 1.528-3.84 2.317-.062 4.29-2.5 4.848-5.886 4.653-2.14-.125-4.29-.032-6.895-.477-.449-2.473-.445-4.5-.011-6.535 5.585.945 5.921-2.235 5.804-6.016.242-.008.727-.02 1.16-.012 5.618.98 5.973-2.183 5.586-5.988.012.008-.008-.012.407-.008 2.062.012 3.71.02 5.437.473.031 3.809-.016 7.168-.23 10.602-.399.226-.532.433-.813.777-.238.078-.719.215-.719.215Zm0 0"/><path style="stroke:none;fill-rule:nonzero;fill:#fdf19a;fill-opacity:1" d="M56.938 158.086c-1.231-.117-2.465-.234-3.844-1.117-.453-10.836-.758-20.903-.653-30.969 1.79 0 3.164 0 4.567.469.031 10.457.035 20.445.012 30.726-.047.496-.063.692-.083.89Zm0 0"/><path style="stroke:none;fill-rule:nonzero;fill:#e2303b;fill-opacity:1" d="M38.102 12.953c.336.043.597.207.851 1.184.02 4.48-.027 8.265-.492 12.027-2.363-.121-4.305-.223-6.29-.734-.089-2.07-.148-3.73-.187-5.825.016-2.18.02-3.921.02-5.902-.004-.234-.004-.7.43-.7 2.18-.015 3.921-.034 5.668-.05Zm0 0"/><path style="stroke:none;fill-rule:nonzero;fill:#e9323c;fill-opacity:1" d="M31.973 69.848c-2.66.05-5.34-.09-7.973.199-4.05.445-5.54-1.293-4.836-5.692.398-.8.613-1.058 1.293-1.324 4.156.008 7.852.02 11.547.262-.008.23-.008.7-.004 1.117-.004 2.09-.016 3.766-.027 5.438Zm0 0"/><path style="stroke:none;fill-rule:nonzero;fill:#262927;fill-opacity:1" d="M44.984 125.98v-17.285c2.133-.562 3.703-.972 5.641-1.547.363-.16.375-.148.375.254-.004 1.47-.012 2.535-.375 3.649-5.344 1.133-2.473 4.742-3.18 7.582 1.5-.695 2.516-1.168 3.54-1.278-.005 1.082-.016 1.805 0 2.555.03.031-.028.09-.176.168-.211.172-.348.293-.325.352.075.199.207.37.387.933.024 1.133-.023 1.89-.254 2.782-.398.343-.562.593-1.004 1.03-1.758.376-3.187.598-4.617.821l-.012-.016Zm0 0"/><path style="stroke:none;fill-rule:nonzero;fill:#272727;fill-opacity:1" d="M63.945 88.758v-5.094c2.008-.418 3.594-.746 5.492-1.14.305-1.462.637-3.036 1.086-5.188 1.426-.098 3.012-.207 5.036.094.441 1.746.445 3.078.125 4.566-1.477 1.746-2.63 3.34-4.098 4.969-1.102.668-1.883 1.3-3.078 1.98-1.797-.03-3.18-.11-4.563-.187Zm0 0"/><path style="stroke:none;fill-rule:nonzero;fill:#e9323c;fill-opacity:1" d="M32 13.004s0 .465-.457.715c-4.16.254-7.867.261-11.836.265-.445-.015-.625-.023-.805-.027V8.449c4.414-.398 8.543-.77 12.907-.437.218 2.136.203 3.562.191 4.992Zm0 0"/><path style="stroke:none;fill-rule:nonzero;fill:#262927;fill-opacity:1" d="M38.996 137.992v-11.668c1.992-.14 3.555-.25 5.55-.351.438.007.45.023.454.488-.004 4.48-.012 8.5-.02 12.52 0 0 .02.019-.417.011-2.145-.008-3.856-.012-5.567-.262v-.738Zm0 0"/><path style="stroke:none;fill-rule:nonzero;fill:#c42332;fill-opacity:1" d="M45.063 51.063a462.033 462.033 0 0 0-.004 6.617c.28 4.133-.262 7.133-5.625 6.312-.489-.031-.637-.16-.57-.605.05-4.43.038-8.414.46-12.399 2.145-.031 3.852-.066 5.606-.058l.133.133Zm0 0"/><path style="stroke:none;fill-rule:nonzero;fill:#f8f19f;fill-opacity:1" d="M56.969 158.54c-.012-.653.004-.849.476-1.302 6.614-1.36 5.52 3.301 5.88 7.137-.15 1.867-.192 3.313-.524 4.754-.797.23-1.305.465-1.809.703H57c0-3.773 0-7.305-.031-11.293Zm0 0"/><path style="stroke:none;fill-rule:nonzero;fill:#262927;fill-opacity:1" d="M50.98 106.98c0-2.285.235-4.59-.03-6.835-.477-4.086 1.14-5.762 5.616-4.782.77 2.063 1.106 3.75 1.114 5.688-.492 2.16-.657 4.078-1.235 5.98-2.093-.02-3.77-.023-5.445-.031l-.02-.02Zm0 0"/><path style="stroke:none;fill-rule:nonzero;fill:#be2633;fill-opacity:1" d="M38.879 26.188c.047-3.786.094-7.57.16-11.829 1.797-.382 3.574-.3 5.723-.199.09 1.727.175 3.313.27 5.746.027 2.563.042 4.27.015 6.028-.04.054-.121.164-.547.128a129.023 129.023 0 0 0-5.574.024c.015.043-.047.102-.047.102Zm0 0"/><path style="stroke:none;fill-rule:nonzero;fill:#1b1b1b;fill-opacity:1" d="M69.523 31.992c-1.59.02-3.18.04-5.16-.027-.375-3.75-.363-7.414.043-11.485 1.926-.414 3.461-.425 5.051.02.059 4.137.063 7.813.066 11.492Zm0 0"/><path style="stroke:none;fill-rule:nonzero;fill:#7e2535;fill-opacity:1" d="M45.086 25.879c-.012-1.703-.027-3.41-.016-5.543 3.317-.281 7-1.184 7.489 4.152.097 1.086 3.293 1.89 5.168 3.172-1.864.34-3.832.336-6.344-.035-2.461-.82-4.38-1.281-6.297-1.746Zm0 0"/><path style="stroke:none;fill-rule:nonzero;fill:#c8b2a9;fill-opacity:1" d="M50.992 189.18a673.39 673.39 0 0 0-11.543-.086c-10.765.011-21.07-.031-31.836-.063.985-.336 2.426-.98 3.867-.984 14.82-.067 29.641-.027 44.954.187.492.211.527.621.101.676-2.133.125-3.836.2-5.543.27Zm0 0"/><path style="stroke:none;fill-rule:nonzero;fill:#e72f43;fill-opacity:1" d="M19.992 63.04c-.215.257-.43.515-.87.89-4.032.492-6.942-.164-6.184-5.473.234-.605.507-.793 1.343-1.207 5.797-1.23 6.047 2.031 5.711 5.79Zm0 0"/><path style="stroke:none;fill-rule:nonzero;fill:#ebe195;fill-opacity:1" d="M63.727 88.824c1.601.012 2.984.09 4.808.551.383 3.73 1.406 7.57-3.453 8.438-.703-1.176-1.336-2.02-2.016-3.282-.03-2.117-.011-3.808.008-5.504 0 0 .434-.136.653-.203Zm0 0"/><path style="stroke:none;fill-rule:nonzero;fill:#eaebbb;fill-opacity:1" d="M52.031 126c.305 10.066.61 20.133.899 30.633-4.485 1.039-2.117-3.41-3.875-5.192.015-.39.496-.527.984-.546.57-.32.652-.618.734-.915.043-3.355.09-6.714.141-10.976.074-4.938.137-8.961.434-12.996.226-.008.683-.008.683-.008Zm0 0"/><path style="stroke:none;fill-rule:nonzero;fill:#1b1b1a;fill-opacity:1" d="M63.113 94.95c.633.843 1.266 1.687 1.899 3.054 0 .52-.106.918-.367 1.004-.34.41-.418.734-.575 1.066-.078.004-.218-.058-.394.04-.406.261-.559.476-.563.8.075.059.004.234-.418.14-1.84-.144-3.265-.199-4.687-.25-.336-1.69-.672-3.378-1.008-5.452.11-.692.293-.946 1.023-1 2.02.296 3.555.449 5.09.597Zm0 0"/><path style="stroke:none;fill-rule:nonzero;fill:#e72f43;fill-opacity:1" d="M18.473 13.973c.609-.012.789-.004 1.242.441 1.258 5.668-1.992 5.926-5.762 5.57-.172 0-.344-.004-.773-.007-.258-1.801-.258-3.594-.258-5.735 1.937-.094 3.527-.176 5.55-.27Zm0 0"/><path style="stroke:none;fill-rule:nonzero;fill:#1b1b1b;fill-opacity:1" d="M32.012 151.012c-.008 2.031-.012 4.058-.024 6.52-4.906 1.214-6.633-1.087-5.523-6.126 2.137-.414 3.832-.414 5.531-.41l.016.016Zm0 0"/><path style="stroke:none;fill-rule:nonzero;fill:#c82436;fill-opacity:1" d="M32.398 69.91c-.414-1.734-.402-3.41.032-5.5 2.406-.472 4.386-.527 6.367-.578 0 0 .148.129.226.191.762 4.985-1.57 6.696-6.625 5.887Zm0 0"/><path style="stroke:none;fill-rule:nonzero;fill:#c42331;fill-opacity:1" d="M62.629 32.117c.414 2.043.414 4.012.414 6.399-6.211.41-6.664-.121-5.176-6.22 1.551-.323 2.95-.288 4.762-.179Zm0 0"/><path style="stroke:none;fill-rule:nonzero;fill:#d97889;fill-opacity:1" d="M7.586 20.316c.406 12.098.41 24.352.41 37.063-.332-.184-.945-.828-.945-1.469 0-11.812.074-23.625.535-35.594Zm0 0"/><path style="stroke:none;fill-rule:nonzero;fill:#272727;fill-opacity:1" d="M38.645 138.152c.351-.16.351.332.351 1.008-.008 2.39-.016 4.102-.027 5.813 0 0-.485.011-1.114.02-2.05-.337-3.472-.68-4.894-1.024.113-1.453.23-2.906.348-4.399 1.832-.46 3.41-.86 5.336-1.418Zm0 0"/><path style="stroke:none;fill-rule:nonzero;fill:#e3d994;fill-opacity:1" d="M82.672 75.926c1.863.02 3.43.133 5.176 1.02.172 2.19.164 3.613-.278 5.07-2.16.015-3.89.004-5.574-.407-.27-1.812-.59-3.23-.91-4.648.43-.313.86-.625 1.586-1.035Zm0 0"/><path style="stroke:none;fill-rule:nonzero;fill:#1c1c1b;fill-opacity:1" d="M32.754 144.09c1.629.222 3.05.566 4.86.91.745 3.773.41 6.953-5.176 6.008-.426.004-.438-.008-.438-.442-.004-2.152-.004-3.875-.004-5.593.113-.305.297-.559.758-.883Zm0 0"/><path style="stroke:none;fill-rule:nonzero;fill:#262927;fill-opacity:1" d="M31.566 144.984c.43 1.707.43 3.43.43 5.578-1.7.43-3.394.43-5.512.418-.933-3.87-.48-6.917 5.082-5.996Zm0 0"/><path style="stroke:none;fill-rule:nonzero;fill:#ec7613;fill-opacity:1" d="M56.96 188.855s-.034-.41-.065-.617c.054-1.66.14-3.117.238-4.73 1.687-.387 3.344-.766 5.43-1.106.433.04.476.461.468.891-.008 1.863-.004 3.293-.015 4.727-.012 0 .007.02-.375.015-2.114.34-3.844.68-5.606.977a.933.933 0 0 1-.074-.157Zm0 0"/><path style="stroke:none;fill-rule:nonzero;fill:#1b1b1b;fill-opacity:1" d="M80.664 76.965c.742 1.414 1.063 2.832 1.36 4.656-.024.406.007.363-.422.371-2.153-.043-3.875-.097-5.594-.148-.004-1.336-.008-2.668-.02-4.403 1.41-.421 2.832-.449 4.676-.476Zm0 0"/><path style="stroke:none;fill-rule:nonzero;fill:#c42332;fill-opacity:1" d="M32.434 13.004c-.422-1.43-.407-2.856-.375-4.711 1.793-.328 3.57-.227 5.68-.105.1 1.406.195 2.66.324 4.34-1.708.44-3.45.46-5.63.476Zm0 0"/><path style="stroke:none;fill-rule:nonzero;fill:#272727;fill-opacity:1" d="M63.066 94.531c-1.488.27-3.023.117-4.836-.3-.492-3.34-.148-5.926 4.422-5.211.403 1.703.383 3.394.414 5.511Zm0 0"/><path style="stroke:none;fill-rule:nonzero;fill:#e1eac9;fill-opacity:1" d="M63.04 182.863s-.044-.422-.122-.62c-.023-3.884.027-7.571.129-11.798.043-.535.21-.703.383-.632.175.07.543.156.562.585.051 2.145.086 3.856.09 5.997-.055 2.43-.082 4.425-.34 6.476-.23.05-.703-.008-.703-.008Zm0 0"/><path style="stroke:none;fill-rule:nonzero;fill:#91a1a8;fill-opacity:1" d="M69.402 20.043c-1.535.012-3.07.023-4.988-.023 1.125-.598 2.633-1.137 4.281-1.73.157-1.224.34-2.63.887-4.165.363-.133.387-.18.438.21.078 1.954.101 3.52.035 5.352-.278.301-.465.329-.653.356Zm0 0"/><path style="stroke:none;fill-rule:nonzero;fill:#afb6b8;fill-opacity:1" d="M69.965 14.008a196.94 196.94 0 0 0 5.668-1.094c.398-.113.531.176.55.504a.571.571 0 0 1-.66.61c-2.136-.06-3.843-.071-5.554-.083 0 0-.024.047-.004.063Zm0 0"/><path style="stroke:none;fill-rule:nonzero;fill:#e1eac9;fill-opacity:1" d="M61.309 169.906c.187-.312.695-.547 1.52-.62.316.16.429.456.429.456l-.25.25c-.516.051-.95.02-1.7-.086Zm0 0"/><path style="stroke:none;fill-rule:nonzero;fill:#f4f4f4;fill-opacity:1" d="M119.7 45.238c-1.966-.164-3.934-.328-6.216-.52V26.192c1.786-.16 3.664-.328 5.73-.511.15-1.899.286-3.668.454-5.832h18.96c.087 1.789.169 3.55.114 5.75-.137.437-.48.343-.922.394-1.902.098-3.363.149-5.261.125-2.364-.07-4.29-.07-6.582-.07 0 2.355 0 4.144-.41 6.062-2 .235-3.59.34-5.489.47 0 2.304 0 4.374-.058 6.855 0 2.078.058 3.742.015 5.515-.105.106-.336.29-.336.29Zm0 0"/><path style="stroke:none;fill-rule:nonzero;fill:#c02332;fill-opacity:1" d="M75.988 45.445c7.992-.457 15.985-.48 24.492-.476.512.027.618.129.59.535-.078 2.031-.129 3.66-.18 5.285-1.656.09-3.308.18-5.374.277-5.02-.011-9.641-.27-14.23.012-4.013.246-5.954-.988-5.298-5.633Zm0 0"/><path style="stroke:none;fill-rule:nonzero;fill:#f4f5fb;fill-opacity:1" d="M138.75 44.941v5.77h-19.254c0-1.457 0-3.023.102-5.031.101-.442.332-.625.847-.84a36.804 36.804 0 0 1 6.012-.496c2.094.05 3.777-.028 5.856.054 2.078.258 3.757.364 5.683.52.418.039.586.031.754.023Zm0 0"/><path style="stroke:none;fill-rule:nonzero;fill:#e8e9f2;fill-opacity:1" d="M139.207 44.941c-.625.008-.793.016-1.086-.437a77.196 77.196 0 0 1-.047-6.918c.012-2.152-.062-3.879-.004-5.555.133.051.414.004.801-.02 2.219-.023 4.047-.027 5.879-.03v12.96h-5.543Zm0 0"/><path style="stroke:none;fill-rule:nonzero;fill:#eef0fa;fill-opacity:1" d="M94.684 32.016s-.063-.075-.118-.426c-.148-2.074-.242-3.797-.171-5.93.101-2.156.043-3.902-.012-5.652 1.91-.121 3.816-.242 6.191-.238.473 1.878.485 3.628.586 5.808.02 2.188-.047 3.942-.613 6.164-2.29.403-4.078.34-5.863.274Zm0 0"/><path style="stroke:none;fill-rule:nonzero;fill:#1b1b1a;fill-opacity:1" d="M131.535 76c.48 1.656.5 3.309.567 5.367.046.406-.059.531-.528.613a76.683 76.683 0 0 1-6.031.204c-2.125-.125-3.828-.176-5.566-.645a334.058 334.058 0 0 1-.075-5.441L131.535 76Zm0 0"/><path style="stroke:none;fill-rule:nonzero;fill:#feffff;fill-opacity:1" d="M144.828 31.57c-1.91.414-3.738.418-6.055.02-.496-2.152-.503-3.899-.511-5.649 0 0 .343.094.52.082 1.585-.027 2.991-.046 4.894.204.637.507.832.675 1.09.773.047 1.387.093 2.773.062 4.57Zm0 0"/><path style="stroke:none;fill-rule:nonzero;fill:#d0c474;fill-opacity:1" d="M119.926 76.094c-.012 1.68.004 3.351.047 5.578.03.55-.075.797-.493.68-2.43-.247-4.44-.375-6.449-.918-.031-1.805-.066-3.192-.101-4.579 0 0 .023.106.187.016.461-.226.688-.433.844-.723 1.402-.074 2.809-.152 4.848-.175.636.05 1.109.156 1.109.156s.035-.04.008-.035Zm0 0"/><path style="stroke:none;fill-rule:nonzero;fill:#c02332;fill-opacity:1" d="M100.941 44.945c-.027-1.726-.004-3.398.016-5.78.004-.9.016-1.095.023-1.286 4.188-.004 7.446.906 5.672 6.691-2.183.457-3.87.492-5.554.528l-.157-.153Zm0 0"/><path style="stroke:none;fill-rule:nonzero;fill:#b2424d;fill-opacity:1" d="M100.996 37.469c-.023.601-.035.797-.07 1.277-3.36-.476-6.856-1.082-6.137-6.309 1.68-.355 3.469-.292 5.691-.257.465 1.601.497 3.242.516 5.289Zm0 0"/><path style="stroke:none;fill-rule:nonzero;fill:#811f29;fill-opacity:1" d="M101.07 45.504c1.711-.441 3.399-.477 5.508-.508 1.133 4.156.309 6.957-5.254 5.883-.383-1.715-.332-3.344-.254-5.375Zm0 0"/><path style="stroke:none;fill-rule:nonzero;fill:#e8e9f2;fill-opacity:1" d="M144.828 26.738c-.32.164-.516-.004-.742-.418.215-.066.512.043.742.418Zm0 0"/><path style="stroke:none;fill-rule:nonzero;fill:#211e1b;fill-opacity:1" d="M119.883 75.96c.035.169-.438.063-.656-.046.062-.113.34-.117.656.047Zm0 0"/><path style="stroke:none;fill-rule:nonzero;fill:#eae091;fill-opacity:1" d="M113.73 76.082c.075.356-.152.563-.668.793-.214.098-.082-.344-.058-.57.023-.23.496-.29.726-.223Zm0 0"/><path style="stroke:none;fill-rule:nonzero;fill:#eadf8f;fill-opacity:1" d="M112.035 194.824c-7.363.055-14.726.11-22.57-.316-.496-2.14-.508-3.801-.05-5.508 8.487-.05 16.5-.055 24.53.367.004 1.832-.007 3.238-.285 4.668-.722.278-1.172.535-1.625.79Zm0 0"/><path style="stroke:none;fill-rule:nonzero;fill:#e5dd96;fill-opacity:1" d="M126.188 189.098c-.176.28-.348.562-.723.988-1.66-.262-3.113-.668-5.09-1.133-.523-.062-.754-.215-.645-.621-.44-5.246 1.489-7.3 6.375-5.59.012 2.403.047 4.38.082 6.356Zm0 0"/><path style="stroke:none;fill-rule:nonzero;fill:#d1c56e;fill-opacity:1" d="M88.941 189.047c.016 1.66.028 3.32.059 5.398-1.992.45-4.004.485-6.453.024-.402-2.223-.363-3.946.094-5.676 2.379.082 4.34.168 6.3.254Zm0 0"/><path style="stroke:none;fill-rule:nonzero;fill:#ec7613;fill-opacity:1" d="M82.223 188.8c-.04 1.723-.078 3.446-.102 5.602-1.394.493-2.8.555-4.629.664-.629-.234-.84-.515-1.27-1.363-.187-1.988-.148-3.414.321-4.883 2.18-.105 3.93-.168 5.664-.18a.393.393 0 0 0 .016.16Zm0 0"/><path style="stroke:none;fill-rule:nonzero;fill:#d7d8b2;fill-opacity:1" d="M112.477 194.895c.011-.325.46-.583 1.609-.844 5.039.734 5.133-2.149 5.2-5.188.112-.039.335-.125.335-.125l.348.23c.113 1.887.113 3.696.113 6-2.605 0-4.887 0-7.605-.073Zm0 0"/><path style="stroke:none;fill-rule:nonzero;fill:#c7610e;fill-opacity:1" d="M50.996 189.594c1.703-.485 3.406-.559 5.54-.684.425-.055.464.05.476.524.008 2.168 0 3.867-.008 5.57L57 195c-3.645.313-6.887.145-6.004-5.406Zm0 0"/><path style="stroke:none;fill-rule:nonzero;fill:#d96a10;fill-opacity:1" d="M163.941 189.195c1.735-.047 3.47-.097 5.63-.078.429 1.727.429 3.387.429 5.465-2.035.418-4.074.422-6.547.43-.433.008-.45-.008-.453-.395.313-2.066.625-3.742.941-5.422Zm0 0"/><path style="stroke:none;fill-rule:nonzero;fill:#feffff;fill-opacity:1" d="M75.95 14.078s.253-.332.16-.52c3.933-.253 7.956-.316 12.433-.484 2.352.094 4.25.285 5.723.434 0 2.117 0 3.945-.332 6.133-1.86.398-3.383.441-5.34.41-2.309-.07-4.184-.07-6.098-.07-.176 2.519-.3 4.296-.465 6.058-.039-.012.024.043-.414.012-2.113-.031-3.789-.031-5.57-.031v5.968c-1.871.086-3.742.172-6.067.13-.46-3.806-.464-7.481-.523-11.618.133-.484.32-.512 1-.762 2.082-.218 3.672-.218 5.492-.218v-5.442Zm0 0"/><path style="stroke:none;fill-rule:nonzero;fill:#2c304f;fill-opacity:1" d="M89.027 20.125a154.41 154.41 0 0 1 5.028-.082c.453.047.379.023.351-.004.031 1.719.09 3.465-.394 5.598-2.09.3-3.633.218-5.149-.266.075-2.016.121-3.629.164-5.246Zm0 0"/><path style="stroke:none;fill-rule:nonzero;fill:#c9620d;fill-opacity:1" d="M76.11 188.863c-.036 1.426-.075 2.852-.114 4.703-3.703.766-7.398 1.102-11.55 1.446-.454.004-.938-.024-1.184-.465-.246-2.465-.242-4.488-.239-6.508 0 0-.02-.02.41-.023 2.376.004 4.32.015 6.618.242 2.289.222 4.222.222 6.152.324-.004.102-.094.281-.094.281Zm0 0"/><path style="stroke:none;fill-rule:nonzero;fill:#db6d13;fill-opacity:1" d="M62.64 188.035c.38 2.024.376 4.047.38 6.504-1.715.441-3.438.453-5.586.465-.422-1.703-.414-3.402-.391-5.524 1.754-.765 3.484-1.105 5.598-1.445Zm0 0"/><path style="stroke:none;fill-rule:nonzero;fill:#c7610e;fill-opacity:1" d="M163.512 189.133c.113 1.742-.2 3.418-.52 5.476-1.707.38-3.414.383-5.543.375-.433-1.66-.437-3.316-.441-5.382 2.027-.45 4.05-.493 6.504-.47Zm0 0"/><path style="stroke:none;fill-rule:nonzero;fill:#d7bc65;fill-opacity:1" d="M126.59 189.043c-.438-1.922-.473-3.898-.07-6.356 2.128-.554 3.812-.636 5.511-.57.008.149 0 .442 0 .442.586 3.918.301 7.152-5.441 6.484Zm0 0"/><path style="stroke:none;fill-rule:nonzero;fill:#e6df97;fill-opacity:1" d="M138.156 176.176a145.555 145.555 0 0 0-2.117 3.836c-1.223.949-2.316 1.574-3.71 2.375-.298.172-.29-.121-.29-.692-.957-5.687 2.16-6.086 5.988-5.664l.13.145Zm0 0"/><path style="stroke:none;fill-rule:nonzero;fill:#1c1c1b;fill-opacity:1" d="M156.566 101.004c.43 2.273.637 4.574.387 6.82-.445 4.043 1.098 5.801 5.61 5.18.437 8.344.445 16.683.058 25.504-1.945.43-3.5.383-5.059.336 0 0-.34-.2-.609-.485-.531-.398-.8-.402-1.066-.297-.703.036-1.403.075-2.707-.054-.785-.211-.965-.258-1.266-.446-.285-.316-.484-.46-.777-.972-.016-1.797.035-3.184.508-4.57 4.359.566 5.84-1.137 5.402-5.047-.258-2.285-.293-4.657.004-6.934.61-4.727-1.098-6.871-6.223-6.348-2.113-.414-3.965-.53-5.855-1.086-.106-2.171-.176-3.91-.153-5.574.09.078.325.028.743.012 5.566.875 5.769-2.352 5.43-6.035l.01-.012c1.716 0 3.427.004 5.563.008Zm0 0"/><path style="stroke:none;fill-rule:nonzero;fill:#eae091;fill-opacity:1" d="M151.223 132.02c-.051 1.386-.102 2.773-.141 4.828.11.82.207.964.29 1.25-.02.136.034.41.034.41-.136 7.883-.273 15.765-.406 24.129-.117.754-.297.976-1.07 1.117a99.322 99.322 0 0 1-4.883-.723c-.063-.047-.184-.14-.16-.597.074-14.477.12-28.5.593-42.504 1.848.004 3.274-.008 5.036.242.464 4.125.586 7.988.707 11.848Zm0 0"/><path style="stroke:none;fill-rule:nonzero;fill:#272727;fill-opacity:1" d="M157.492 139.313c1.63-.422 3.184-.375 5.137-.336.394-.012.879.011 1.125.48.242 2.09.434 3.738.207 5.324-.688 4.781.941 7.14 6.039 6.219v6l.004-.004c-1.719.004-3.434.004-5.578.008-.676-.809-.922-1.613-1.313-3.082-1.87-1.41-3.605-2.16-5.336-2.906-.117-3.746-.238-7.489-.285-11.703Zm0 0"/><path style="stroke:none;fill-rule:nonzero;fill:#1c1c1b;fill-opacity:1" d="M157.648 151.367c1.86.395 3.594 1.145 5.336 2.262-.765.605-1.543.84-2.601 1.203-.887-.195-1.5-.516-2.363-.875-.336-.773-.418-1.508-.372-2.59Zm0 0"/><path style="stroke:none;fill-rule:nonzero;fill:#3c3b31;fill-opacity:1" d="M151.621 138.45c-.215.058-.27-.216-.09-.415.184-.2.504-.332.504-.332.18.047.36.094.797.25-.16.219-.578.328-1.21.496ZM156.05 138.18c.102-.223.372-.22.802.007.168.114-.23.192-.23.192s-.403-.082-.571-.2Zm0 0"/><path style="stroke:none;fill-rule:nonzero;fill:#1b1b1a;fill-opacity:1" d="M170 150.54c-5.098 1.382-6.727-.977-6.04-5.759.227-1.586.036-3.234.036-5.316 1.465-.477 2.926-.496 4.832-.543.442-.031.711-.106.852-.121.199 3.746.257 7.512.32 11.738Zm0 0"/><path style="stroke:none;fill-rule:nonzero;fill:#272727;fill-opacity:1" d="M170.46 163.969c-.44-2.04-.448-4.07-.46-6.535.004-.438 0-.434.426-.434H176c-.07 3.527 1.2 8.031-5.54 6.969Zm0 0"/><path style="stroke:none;fill-rule:nonzero;fill:#c0b674;fill-opacity:1" d="m132.336 87.773 6.293.743c.101 1.859.203 3.75.394 6.066.028.59-.039.758-.543.984-2.355-.203-4.273-.468-6.242-1.14-.222-2.34-.39-4.266-.398-6.317a8.88 8.88 0 0 1 .496-.336Zm0 0"/><path style="stroke:none;fill-rule:nonzero;fill:#e5dd96;fill-opacity:1" d="M132.293 94.836c1.914.262 3.832.527 6.059.969.378 1.574.445 2.968.449 4.785-.067.422-.38.555-.762.52-5.402.66-6.86-1.704-5.746-6.274Zm0 0"/><path style="stroke:none;fill-rule:nonzero;fill:#cdc378;fill-opacity:1" d="M138.906 100.996c1.82-.012 3.469-.008 5.567.461.52 2.176.593 3.887.672 5.602 0 0-.235.05-.739.004-2.176-.051-3.847-.055-5.543-.477-.16-2.098-.3-3.77-.441-5.441 0 0 .312-.133.484-.149Zm0 0"/><path style="stroke:none;fill-rule:nonzero;fill:#272727;fill-opacity:1" d="M145.563 107.043c-.497-1.7-.57-3.41-.68-5.555 1.722-.445 3.476-.465 5.672-.48.777 3.683.574 6.91-4.993 6.035ZM140.426 94.996c-.324-2.894-1.446-6.621 4.148-5.996.32 2.89 1.453 6.625-4.148 5.996Zm0 0"/><path style="stroke:none;fill-rule:nonzero;fill:#d0c474;fill-opacity:1" d="M125.96 82.258c1.716-.063 3.43-.13 5.575-.203.567 1.625.703 3.261.82 5.304-.02.414-.359.63-.859.774-2.152.246-3.805.34-5.46.043-.032-2.235-.052-4.074-.075-5.918Zm0 0"/><path style="stroke:none;fill-rule:nonzero;fill:#1b1b1a;fill-opacity:1" d="M176 156.574c-1.715.426-3.43.426-5.574.426-.426-1.715-.426-3.43-.426-5.57 1.71-.43 3.426-.43 5.566-.426.43 1.715.43 3.43.434 5.57Zm0 0"/><path style="stroke:none;fill-rule:nonzero;fill:#e6df97;fill-opacity:1" d="M145.016 175.16c-.133.285-.332.504-.809.754-1.879.113-3.555.129-5.64.203-.41.059-.497-.039-.52-.543.004-2.168.047-3.832.055-5.496.023-6.734.02-6.734 6.761-7.187 0 0 .121.093.145.593.015 4.227.012 7.953.008 11.676Zm0 0"/><path style="stroke:none;fill-rule:nonzero;fill:#d1c876;fill-opacity:1" d="M145.441 175.137c-.421-3.7-.418-7.426-.375-11.606 1.47-.238 2.899-.027 4.672.324.328 2.422.153 4.715.332 6.98.246 3.177-1.027 4.59-4.629 4.302Zm0 0"/><path style="stroke:none;fill-rule:nonzero;fill:#c42332;fill-opacity:1" d="M45.047 25.934c1.957.41 3.875.87 5.914 1.691.094 6.27-.16 12.195.121 18.09.188 3.992-.957 5.945-5.59 5.328-.43.02-.52-.07-.527-.566-.024-8.461-.031-16.422-.04-24.38 0 0 .083-.109.122-.163Zm0 0"/><path style="stroke:none;fill-rule:nonzero;fill:#c42331;fill-opacity:1" d="M63.18 39.313c2.472-.352 5.097-.114 7.672-.383 4.082-.43 5.757 1.168 5.144 5.64-1.793.438-3.617.22-5.375.477-4.305.629-6.91-.809-7.441-5.734Zm0 0"/><path style="stroke:none;fill-rule:nonzero;fill:#151619;fill-opacity:1" d="M88.836 25.77c1.543.085 3.086.168 5.012.277.476 1.746.57 3.469.675 5.562-3.816.399-7.64.422-11.937-.043-.488-2.152-.508-3.816-.531-5.484 0 0-.063-.055.406-.012 2.434-.074 4.402-.187 6.375-.3Zm0 0"/><path style="stroke:none;fill-rule:nonzero;fill:#454e6a;fill-opacity:1" d="M81.617 26.05c.461 1.7.48 3.364.516 5.442-1.73.469-3.477.524-5.656.54-.43-1.794-.43-3.544-.43-6.012 1.781 0 3.457 0 5.57.03Zm0 0"/><path style="stroke:none;fill-rule:nonzero;fill:#fdf197;fill-opacity:1" d="M88.004 81.984c.008-1.425.016-2.847.035-4.699 5.688-.383 11.363-.344 17.664.09.856 1.79 1.082 3.188.844 4.621-6.496.02-12.52.004-18.543-.012Zm0 0"/><path style="stroke:none;fill-rule:nonzero;fill:#eae091;fill-opacity:1" d="M107.016 81.96c-.23-1.397-.457-2.796-.848-4.51 1.86-.376 3.879-.434 6.332-.544.465 1.336.5 2.723.535 4.633 0 .516.004.723-.418.652-1.832-.023-3.246.024-4.894-.004-.239-.07-.707-.226-.707-.226Zm0 0"/><path style="stroke:none;fill-rule:nonzero;fill:#c42331;fill-opacity:1" d="M13.965 20.457c3.758-.117 7.008-.375 6.015-6.039 3.696-.438 7.403-.445 11.567-.465.457 1.73.453 3.473.012 5.633-5.684-.613-5.872 2.684-5.563 6.41.004.004-.004-.004-.441-.004-4.621-.648-5.922 1.227-5.649 5.281.309 4.594.39 9.258-.015 13.836-.434 4.88 1.445 6.641 6.105 5.895.004-.004-.008.008-.004.434-.91 5.53 2.102 6.035 5.992 5.96.016 2.176.02 3.918.024 5.664-3.7-.011-7.395-.023-11.551-.03-.129-3.75-.379-7.012-6.039-5.993-.434-12.031-.438-24.07-.453-36.582Zm0 0"/><path style="stroke:none;fill-rule:nonzero;fill:#1b1b1a;fill-opacity:1" d="M51.117 126.016c-.066 4.027-.129 8.05-.281 12.535-1.73.453-3.379.445-5.441.433-.407-4.023-.399-8.043-.395-12.523 1.426-.688 2.855-.91 4.82-1.277.54-.145.953-.157 1.028.093.144.414.207.575.27.739ZM39.402 144.98c-.422-1.718-.414-3.43-.406-5.574 1.711-.426 3.422-.422 5.559-.422.82 3.813.465 6.977-5.153 5.996Zm0 0"/><path style="stroke:none;fill-rule:nonzero;fill:#35321e;fill-opacity:1" d="M50.602 150.059c.09.218.007.515-.325.754-.207-.32-.074-.528.325-.754Zm0 0"/><path style="stroke:none;fill-rule:nonzero;fill:#eceff8;fill-opacity:1" d="M106.547 81.996c.469-.035.937.121 1.187.594-.359 4.441 1.395 6.004 5.489 5.52.465.328.656.585.777 1.296-.027 1.219-.05 2.031-.477 2.762-.734-.113-1.093-.074-1.394-.191-14.809-5.711-31.36 2.89-37.547 15.41-6.734 13.629-2.914 30.21 9.352 39.289 12.343 9.14 26.3 8.18 41.097-2.543.54 2.469.77 4.676.989 6.879-.004-.004-.012-.004-.446-.008-4.586-.649-5.91 1.2-5.644 5.238.304 4.567.07 9.168.07 13.758h-.469c-2.574 0-4.719.242-6.785-.047-4.91-.683-6.469 1.535-5.738 6.055-.008-.008.004.004-.465 0-10.492-.008-20.516-.012-30.54-.442.942-5.648-2.26-5.941-6.05-5.535.008-.004-.012.035.004-.398 1.137-6.297-2.887-5.75-6.527-5.68-.465-3.414.629-8.074-5.961-7.012-.426-10.027-.43-20.015-.43-30.918-.074-2.687-.148-4.464-.207-6.21.023.03-.023.085.418.113 2.469-.774 6.05-1.32 6.238-2.434.567-3.383-.18-6.988-.394-10.922.015-2.086.02-3.754.023-5.422 0 0 .07-.175.262-.191.281-.324.379-.633.473-.941 0 0 .14.062.394-.098.484-.395.617-.672.66-.996 0 0 .106-.399.18-.59 4.855-1.387 3.832-5.227 3.863-9.004.754-1.062 1.535-1.695 3.008-2.27 3.477.536 6.262 1.016 9.047 1.497.344-2.192.683-4.38 1.027-6.57 0 0-.031.042-.058.03 1.707.005 3.437.016 5.597 0 6.457-.015 12.48 0 18.977-.019Zm0 0"/><path style="stroke:none;fill-rule:nonzero;fill:#ebe195;fill-opacity:1" d="M56.813 119.781c.078 1.778.152 3.555.199 5.778-1.407.441-2.782.441-4.57.441-.41 0-.868 0-1.094.008-.293-.156-.356-.317-.422-.985-.043-.671-.082-.84-.125-1.011.047-.758.094-1.516.148-2.89.008-.786.008-.954.008-1.122 0 0 .059-.059.434-.219 2.054-.105 3.738-.05 5.422 0Zm0 0"/><path style="stroke:none;fill-rule:nonzero;fill:#5c1c27;fill-opacity:1" d="M32.21 25.84c1.946.101 3.888.203 6.25.324.419.023.481-.035.4.36-.294 8.433-.505 16.472-1.141 24.5-2.117.035-3.813.09-5.953.09-2.223-.071-4-.087-5.778-.102 0 0 .012-.012.008-.477-.004-8.492-.004-16.52-.004-24.543 0 0 .008.008.445.004 2.215-.05 3.993-.105 5.774-.156Zm0 0"/><path style="stroke:none;fill-rule:nonzero;fill:#881d2b;fill-opacity:1" d="M32.172 25.43c-1.742.46-3.52.515-5.742.562-.742-3.722-.555-7.02 5.113-5.972.48 1.68.539 3.34.629 5.41Zm0 0"/><path style="stroke:none;fill-rule:nonzero;fill:#e2303b;fill-opacity:1" d="M32.21 51.164c1.696-.05 3.392-.105 5.692-.16.61 0 .985-.02.985-.02.015 3.989.027 7.973-.024 12.403-2.047.496-4.027.55-6.437.605-.43 0-.43-.469-.422-.699 0-1.977-.004-3.719-.012-6.313.067-2.507.145-4.16.219-5.816Zm0 0"/><path style="stroke:none;fill-rule:nonzero;fill:#1c1c1b;fill-opacity:1" d="M56.832 119.813c-1.703-.083-3.387-.137-5.473-.06-.39-.593-.379-1.316-.37-2.823l-.012-5.922c.011-1.07.02-2.137.023-3.606 1.676-.394 3.352-.39 5.563-.328.535.055.695-.133.62.328-.175 4.473-.273 8.485-.374 12.496 0 0 .046-.054.023-.085Zm0 0"/><path style="stroke:none;fill-rule:nonzero;fill:#2c2a2b;fill-opacity:1" d="M50.625 111.05c.355 1.669.36 3.38.36 5.516-1.024.899-2.04 1.371-3.54 2.067.707-2.84-2.164-6.45 3.18-7.582Zm0 0"/><path style="stroke:none;fill-rule:nonzero;fill:#35321e;fill-opacity:1" d="M50.617 124.145c.227.039.266.207.23.628-.074.254-.488.266-.695.258-.097-.293.067-.543.465-.886ZM50.809 120.078c.148.09.148.258.07.668-.188.055-.32-.117-.395-.316-.023-.059.114-.18.325-.352Zm0 0"/><path style="stroke:none;fill-rule:nonzero;fill:#fbf19c;fill-opacity:1" d="M81.602 81.992c.085 2.184-.254 4.371-.598 6.563-2.785-.48-5.57-.961-8.727-1.532.778-1.687 1.93-3.28 3.407-5.027 2.043-.101 3.765-.047 5.918-.004Zm0 0"/><path style="stroke:none;fill-rule:nonzero;fill:#e7323d;fill-opacity:1" d="M39.324 50.988c-.437-.004-.812.016-.996.032.027-8.024.238-16.063.516-24.54 1.785-.44 3.508-.449 5.656-.418.434 7.993.441 15.954.418 24.368-1.742.492-3.45.527-5.594.558Zm0 0"/><path style="stroke:none;fill-rule:nonzero;fill:#e6e9ed;fill-opacity:1" d="M63.324 164.375c3.746-.492 7.77-1.04 6.211 5.227-2.144.39-3.855.378-5.562.367 0 0-.368-.086-.543-.156-.172-.07-.285-.368-.313-.524.016-1.601.059-3.047.207-4.914Zm0 0"/><path style="stroke:none;fill-rule:nonzero;fill:#e3d994;fill-opacity:1" d="M62.695 101.055c.418 1.761.414 3.43-.023 5.52-2.094.402-3.754.382-5.414.366 0 0-.16.188-.278.149.043-1.961.208-3.88.7-6.04 1.75-.195 3.175-.14 5.015.005Zm0 0"/><path style="stroke:none;fill-rule:nonzero;fill:#262927;fill-opacity:1" d="M63.676 100.113c.082.211-.016.52-.375.785-.184-.308-.031-.523.375-.785Zm0 0"/><path style="stroke:none;fill-rule:nonzero;fill:#fbf1a4;fill-opacity:1" d="M64.645 99.008c.218.238.085.515-.32.902-.098-.168-.02-.492.32-.902Zm0 0"/><path style="stroke:none;fill-rule:nonzero;fill:#db6d13;fill-opacity:1" d="M69.7 188.04c-1.946-.009-3.891-.02-6.255-.024-.418-1.43-.422-2.86-.414-4.723.008-.43.48-.371 1.133-.36 2.36.133 4.063.255 5.734.762-.085 1.711-.144 3.028-.199 4.344Zm0 0"/><path style="stroke:none;fill-rule:nonzero;fill:#e6df97;fill-opacity:1" d="M69.934 183.305a300 300 0 0 1-5.54-.422c-.394-2.063-.367-4.059.09-6.477 2.043-.398 3.66-.383 5.344-.37.067-.005.195-.028.168.413-.012 2.246 0 4.047 0 6.102-.031.418-.047.586-.062.754Zm0 0"/><path style="stroke:none;fill-rule:nonzero;fill:#fbf19c;fill-opacity:1" d="M69.762 176.04a841.674 841.674 0 0 1-5.25-.063c-.434-1.723-.469-3.434-.52-5.579 1.688-.418 3.399-.406 5.528-.367.421.035.44-.004.433.43-.07 2.144-.129 3.863-.191 5.578Zm0 0"/><path style="stroke:none;fill-rule:nonzero;fill:#1c1c1d;fill-opacity:1" d="M75.523 14.027c.426 1.68.426 3.313.426 5.493-1.82 0-3.41 0-5.402-.051-.426-1.614-.45-3.18-.527-5.133 1.66-.379 3.367-.367 5.503-.309Zm0 0"/><path style="stroke:none;fill-rule:nonzero;fill:#4c5673;fill-opacity:1" d="M120.078 39.02v-6.442c1.899-.129 3.488-.234 5.606-.383.527-.043.754.14.632.532-.257 2.308-.394 4.218-.941 6.148-2.035.059-3.664.102-5.297.145Zm0 0"/><path style="stroke:none;fill-rule:nonzero;fill:#454e6a;fill-opacity:1" d="M126.094 32.066c-.117-1.875-.117-3.664-.117-6.02 2.293 0 4.218 0 6.41.4.05 2.124-.164 3.847-.782 5.597-1.992.117-3.582.203-5.167.293 0 0-.227-.184-.344-.27Zm0 0"/><path style="stroke:none;fill-rule:nonzero;fill:#2c304f;fill-opacity:1" d="M120.02 39.434c1.69-.457 3.32-.5 5.421-.176.516 1.902.563 3.43.61 4.96-1.7.137-3.395.27-5.5.516-.473-1.558-.531-3.222-.531-5.3ZM132.008 32.016c.215-1.723.43-3.446.812-5.5 1.637-.375 3.098-.426 5-.524.45 1.7.457 3.445.563 5.617.101.426-.18.473-.738.434-2.25-.031-3.946-.031-5.637-.027Zm0 0"/><path style="stroke:none;fill-rule:nonzero;fill:#151619;fill-opacity:1" d="M131.605 32.043c2.094-.031 3.79-.031 5.907-.05.5 1.714.574 3.44.156 5.605-5.582-.317-5.883 2.98-5.746 6.644-1.688.074-3.371.153-5.465.102-.453-1.657-.5-3.184-.61-5.102a78.07 78.07 0 0 1 .47-6.515c1.706-.48 3.296-.567 5.288-.684Zm0 0"/><path style="stroke:none;fill-rule:nonzero;fill:#282c46;fill-opacity:1" d="M132.313 44.398c-.528-3.82-.227-7.117 5.269-6.375.41 1.997.414 4.008.293 6.43-1.805.309-3.484.203-5.563-.055Zm0 0"/><path style="stroke:none;fill-rule:nonzero;fill:#eadf8f;fill-opacity:1" d="M125.543 82.184c.441 1.918.46 3.757.078 6.125-2.129.543-3.851.562-5.605.37-.036-.21-.137-.624-.11-1.027.016-2 .004-3.59-.008-5.183 0 0 .106-.246.11-.38 1.707-.081 3.41-.03 5.535.095Zm0 0"/><path style="stroke:none;fill-rule:nonzero;fill:#d7dde0;fill-opacity:1" d="M119.48 82.352c.43 1.71.442 3.3.09 5.449-2.097.77-3.832.984-5.566 1.199-.125-.305-.317-.563-.785-1.305-.2-2.168-.192-3.8-.18-5.433 0 0-.004-.207-.008-.309 2.008.024 4.02.152 6.45.399Zm0 0"/><path style="stroke:none;fill-rule:nonzero;fill:#d4dce7;fill-opacity:1" d="M120.047 88.89c1.723-.019 3.445-.038 5.578-.19 2.066-.227 3.719-.321 5.71-.442.513 1.902.68 3.828.903 6.168-1.058 4.98.399 7.344 5.801 6.683.524 1.707.664 3.38.598 5.77-.817 6.789-.817 6.789 6.18 7.617.113 2.082.175 3.75.238 5.418-.047 14.02-.094 28.043-.168 42.52-6.766.91-6.762.91-6.785 7.644-.008 1.664-.051 3.328-.098 5.445-3.805.086-6.922.485-5.977 6.024-1.695.504-3.379.586-5.48.719-5.328-1.235-7.258.82-6.817 6.066-.109.406-.332.492-.886.512-2.008.047-3.461.074-4.914.097-8.016.004-16.028.008-24.516.059-2.434-.04-4.394-.125-6.773-.207-.418.008-.45-.098-.454-.55-.113-2.356-.214-4.259.16-6.184 6.571-.036 12.68-.364 18.743.043 4.86.328 6.676-1.399 5.922-6.09 0 0-.012-.012.457-.008 2.578 0 4.722-.242 6.789.047 4.906.683 6.46-1.54 5.738-6.051h.438c4.586.645 5.902-1.207 5.636-5.238-.3-4.567-.062-9.168-.062-13.754h.445c2.106-.63 5.192-1.219 5.211-1.899.14-4.691-.363-9.406-.633-14.488 5.078-12.601 3.239-23.785-5.219-33.851-1.714-2.04-3.933-3.657-5.894-5.926.059-2.29.094-4.121.129-5.953Zm0 0"/><path style="stroke:none;fill-rule:nonzero;fill:#d1c56e;fill-opacity:1" d="M113.945 189.367c1.438-.449 2.89-.476 4.79-.48.484 3.015.39 5.898-4.38 5.14-.418-1.422-.406-2.828-.41-4.66Zm0 0"/><path style="stroke:none;fill-rule:nonzero;fill:#eae091;fill-opacity:1" d="M81.867 182.082c.106 1.902.207 3.805.332 6.106-1.726.464-3.476.527-5.656.632-.434.043-.344-.136-.398-.605-.118-2.262-.184-4.059.171-5.953 2.133-.125 3.84-.153 5.551-.18Zm0 0"/><path style="stroke:none;fill-rule:nonzero;fill:#4c5673;fill-opacity:1" d="M88.863 25.371c-2 .512-3.968.625-6.363.711-.305-1.805-.18-3.582-.004-6.102 1.914 0 3.79 0 6.098.07.39 1.692.344 3.305.27 5.321Zm0 0"/><path style="stroke:none;fill-rule:nonzero;fill:#d7bc65;fill-opacity:1" d="M75.895 182.36c.066 1.796.132 3.593.257 5.757-1.879.363-3.812.363-6.101.14-.297-1.534-.239-2.85-.153-4.562.051-.558.067-.726.52-1.195 2.129-.34 3.828-.383 5.488-.355-.031.066-.011.214-.011.214Zm0 0"/><path style="stroke:none;fill-rule:nonzero;fill:#2c2b24;fill-opacity:1" d="M151.645 132.02c-.543-3.86-.665-7.723-1.004-12.208 0-2.355.222-4.09.445-5.824 4.867-.82 6.574 1.325 5.965 6.051-.297 2.277-.262 4.648-.004 6.934.437 3.91-1.043 5.613-5.402 5.047Zm0 0"/><path style="stroke:none;fill-rule:nonzero;fill:#e5dd96;fill-opacity:1" d="M144.762 114.082c-6.942-.414-6.942-.414-6.102-6.781 1.899-.293 3.57-.29 5.656-.317.48 1.711.551 3.45.594 5.88-.066.87-.11 1.042-.148 1.218Zm0 0"/><path style="stroke:none;fill-rule:nonzero;fill:#c8bc72;fill-opacity:1" d="M144.816 114.496c-.015-.59.028-.762.133-1.195 1.914-.14 3.766-.024 5.88.39.034 2.032-.188 3.766-.532 5.86-1.543.37-2.969.383-4.817.379-.488-1.684-.55-3.352-.664-5.434Zm0 0"/><path style="stroke:none;fill-rule:nonzero;fill:#2c2b24;fill-opacity:1" d="M151.914 137.563c.121.14-.2.273-.363.335-.262-.085-.36-.23-.403-.636.282-.16.48-.016.766.3Zm0 0"/><path style="stroke:none;fill-rule:nonzero;fill:#e8eaec;fill-opacity:1" d="M112.617 82.191c.41 1.704.403 3.336.395 5.383-3.883 1.02-5.637-.543-5.04-4.914 1.4-.445 2.813-.492 4.645-.469Zm0 0"/><path style="stroke:none;fill-rule:nonzero;fill:#881d2b;fill-opacity:1" d="M25.555 25.992c.437 8.024.437 16.051.437 24.551-4.656 1.207-6.535-.555-6.101-5.434.406-4.578.324-9.242.015-13.836-.273-4.054 1.028-5.93 5.649-5.28ZM31.766 51.113c.37 1.707.293 3.36.21 5.434-3.882.926-6.894.422-5.984-5.11 1.774-.41 3.551-.394 5.774-.324Zm0 0"/><path style="stroke:none;fill-rule:nonzero;fill:#030505;fill-opacity:1" d="M119.895 95.297c1.984 1.816 4.203 3.433 5.918 5.473 8.457 10.066 10.296 21.25 4.96 34.066-2.203 3.41-4.128 6.219-6.05 9.027-14.489 10.992-28.446 11.953-40.79 2.813-12.265-9.078-16.085-25.66-9.351-39.29 6.188-12.519 22.738-21.12 37.547-15.41.3.118.66.079 1.57.485 2.453 1.195 4.324 2.016 6.196 2.836m-29.7 13.328c-4.84-2.727-4.765 1.559-6.355 4.246 5.402 2.942 10.504 5.715 16.09 8.754a44862.68 44862.68 0 0 1-16.164 8.855c1.054 2.012 1.945 3.715 3.324 6.344 10.332-8.34 20.726-7.465 30.996-.367l3.156-6.008a19470.18 19470.18 0 0 1-16.133-8.867c5.727-3.125 10.805-5.898 16.137-8.812-1.082-2.032-1.98-3.711-2.719-5.098-.777-.063-.965-.133-1.105-.078-1.086.422-2.242.726-3.227 1.324-7.793 4.727-15.55 4.812-24-.293Zm0 0"/><path style="stroke:none;fill-rule:nonzero;fill:#e5e8f0;fill-opacity:1" d="M82.348 182.059c-2.192.05-3.899.078-6.032.203-.421.097-.441-.051-.39-.551.054-2.234.058-3.965.062-5.7l.02-.019c10.02.004 20.043.008 30.535.016 1.223 4.695-.594 6.422-5.453 6.094-6.063-.407-12.172-.079-18.742-.043ZM125.574 151.004c.434 4.59.196 9.191.496 13.758.266 4.031-1.05 5.883-5.636 5.238-.434-4.59-.2-9.191-.504-13.758-.266-4.039 1.058-5.887 5.644-5.238Zm0 0"/><path style="stroke:none;fill-rule:nonzero;fill:#fbf1a4;fill-opacity:1" d="M57.184 107.402c1.734-.445 3.394-.425 5.476-.41.649 3.512 1.395 7.117.828 10.5-.187 1.113-3.77 1.66-6.238 2.434-.34-4.04-.242-8.051-.066-12.524Zm0 0"/><path style="stroke:none;fill-rule:nonzero;fill:#dee2ea;fill-opacity:1" d="M125.031 144.133c1.614-3.078 3.54-5.887 5.719-8.914.55 4.484 1.055 9.199.914 13.89-.02.68-3.105 1.27-5.207 1.903-.656-2.203-.887-4.41-1.426-6.88Zm0 0"/><path style="stroke:none;fill-rule:nonzero;fill:#e5e8f0;fill-opacity:1" d="M119.531 170c1.188 4.512-.367 6.734-5.273 6.05-2.067-.288-4.211-.046-6.781-.042-1.2-4.52.359-6.738 5.27-6.055 2.066.29 4.21.047 6.784.047ZM69.828 176.035c-.004-1.71.055-3.43.117-5.57 3.797-.84 7-.547 6.059 5.101.004.426-.008.438-.438.438-2.136.004-3.84.004-5.543.004 0 0-.128.023-.195.027Zm0 0"/><path style="stroke:none;fill-rule:nonzero;fill:#e8eaec;fill-opacity:1" d="M119.918 94.844c-1.895-.367-3.766-1.188-5.816-2.301-.153-1.106-.13-1.918-.102-3.137 1.738-.62 3.473-.836 5.543-1.199.336-.152.437.262.473.473-.004 2.043-.04 3.875-.098 6.164Zm0 0"/><path style="stroke:none;fill-rule:nonzero;fill:#d4dce7;fill-opacity:1" d="M69.996 176.45c1.73-.442 3.434-.442 5.563-.438.425 1.734.421 3.465.398 5.629-1.71.476-3.41.52-5.527.609-.434-1.754-.446-3.555-.434-5.8Zm0 0"/><path style="stroke:none;fill-rule:nonzero;fill:#21ebd2;fill-opacity:1" d="M90.531 108.766c8.114 4.964 15.871 4.879 23.664.152.985-.598 2.14-.902 3.227-1.324.14-.055.328.015 1.105.078.739 1.387 1.637 3.066 2.72 5.098-5.333 2.914-10.411 5.687-16.138 8.812 5.489 3.02 10.59 5.824 16.133 8.867l-3.156 6.008c-10.27-7.098-20.664-7.973-30.996.367-1.38-2.629-2.27-4.332-3.324-6.344 5.328-2.917 10.406-5.699 16.164-8.855-5.586-3.04-10.688-5.813-16.09-8.754 1.59-2.687 1.515-6.973 6.691-4.105Zm0 0"/></svg>