<svg width="200" height="200" xmlns="http://www.w3.org/2000/svg">
 <defs>
  <linearGradient y2="0.38612" x2="0.98675" y1="0.61397" x1="0.01305" id="Degradado_sin_nombre_143">
   <stop stop-color="#ff742c" offset="0"/>
   <stop stop-color="#ffc904" offset="1"/>
  </linearGradient>
  <radialGradient gradientTransform="matrix(0.6943848729133606,0,0,0.6943848729133606,0.9913904666900635,21.22521734237671)" gradientUnits="userSpaceOnUse" r="32.28" cy="125.39" cx="145.27" id="Degradado_sin_nombre_71">
   <stop stop-opacity="0.95" stop-color="#001957" offset="0"/>
   <stop stop-color="#001957" offset="1"/>
  </radialGradient>
  <linearGradient y2="1.0737" x2="0.50004" y1="-0.42062" x1="0.50004" id="linear-gradient">
   <stop stop-color="#00d4fe" offset="0.11"/>
   <stop stop-color="#04b0d9" offset="0.23"/>
   <stop stop-color="#0978a1" offset="0.43"/>
   <stop stop-color="#0e4b75" offset="0.61"/>
   <stop stop-color="#112b55" offset="0.77"/>
   <stop stop-color="#131841" offset="0.91"/>
   <stop stop-color="#14113a" offset="1"/>
  </linearGradient>
  <linearGradient y2="1.54268" x2="0.50006" y1="0" x1="0.50006" id="linear-gradient-2">
   <stop stop-color="#00d4fe" offset="0"/>
   <stop stop-color="#04b0d9" offset="0.13"/>
   <stop stop-color="#0978a1" offset="0.35"/>
   <stop stop-color="#0e4b75" offset="0.56"/>
   <stop stop-color="#112b55" offset="0.74"/>
   <stop stop-color="#131841" offset="0.89"/>
   <stop stop-color="#14113a" offset="1"/>
  </linearGradient>
 </defs>
 <g>
  <title>Layer 1</title>
  <g stroke="null" data-name="Layer 2" id="Layer_2">
   <g stroke="null" data-name="Layer 1" id="Layer_1-2">
    <circle stroke="null" id="svg_1" transform="matrix(0.158209 -0.676121 0.676121 0.158209 -153.43 125.098)" fill="url(#Degradado_sin_nombre_143)" r="37.84" cy="349.66151" cx="119.31942" class="cls-1"/>
    <path stroke="null" id="svg_2" fill="url(#Degradado_sin_nombre_71)" opacity="0.11" d="m101.86468,107.65531a26.26858,26.26858 0 0 1 -24.59511,-17.08881a26.27552,26.27552 0 1 0 49.19023,0a26.26858,26.26858 0 0 1 -24.59511,17.08881z" class="cls-2"/>
    <path stroke="null" id="svg_3" fill="url(#linear-gradient)" d="m180.08714,107.59975c-2.55534,25.24089 -18.13039,48.80831 -40.34376,61.05032s-50.44706,12.83223 -73.15345,1.52765c-8.45066,-4.16631 -16.46387,-10.36022 -20.13716,-19.04003c-3.47192,-8.09653 -1.65958,-15.01955 2.34008,-21.09541c0.65272,-0.99297 1.33322,-2.02066 2.08315,-3.04141a36.71907,36.71907 0 0 1 3.28444,-4.16631a19.76219,19.76219 0 0 1 2.43035,-2.27758c4.94402,-3.85384 7.27715,-1.61097 10.48521,3.11084c10.26995,15.13759 30.9279,22.70639 48.44029,16.99854c20.46352,-6.66609 33.62906,-30.50433 28.3309,-51.38448c-4.53433,-17.86652 -20.91487,-30.49738 -39.12859,-31.65701a40.07295,40.07295 0 0 0 -25.15756,6.65221c-9.2006,6.36751 -13.90853,16.72773 -18.85255,26.38663a153.22297,153.22297 0 0 1 -10.79769,18.33176c-1.21517,1.74985 -2.47201,3.47192 -3.82606,5.0829a65.83463,65.83463 0 0 1 -17.96374,15.81809c-8.2354,4.86069 -15.56117,6.3814 -23.991,6.58277a3.08307,3.08307 0 0 1 -2.44423,-5.05512a127.003,127.003 0 0 0 8.57565,-12.02675c4.79126,-7.45769 8.09653,-15.76948 10.97823,-24.1021c8.76314,-25.26867 16.60274,-48.55834 40.85761,-62.8835c20.28993,-12.02675 45.8294,-14.71402 67.96639,-6.32585c28.87252,10.95045 48.64166,39.3994 50.2943,69.8204a76.4865,76.4865 0 0 1 -0.27081,11.69344z" class="cls-3"/>
    <path stroke="null" id="svg_4" fill="url(#linear-gradient-2)" d="m165.9703,99.69071a60.80728,60.80728 0 0 1 -115.1429,27.31016a36.71907,36.71907 0 0 1 3.28444,-4.16631a19.76219,19.76219 0 0 1 2.43035,-2.27758c4.94402,-3.85384 7.27715,-1.61097 10.48521,3.11084c10.26995,15.13759 30.9279,22.70639 48.44029,16.99854c20.46352,-6.66609 33.62906,-30.50433 28.3309,-51.38448c-4.53433,-17.86652 -20.91487,-30.49738 -39.12859,-31.65701a40.07295,40.07295 0 0 0 -25.10896,6.65221c-9.2006,6.36751 -13.90853,16.72773 -18.85255,26.38663a153.22297,153.22297 0 0 1 -10.79769,18.33176c-1.21517,1.74985 -2.47201,3.47192 -3.82606,5.0829a60.80034,60.80034 0 1 1 119.88555,-14.38765z" class="cls-4"/>
   </g>
  </g>
 </g>
</svg>