<?xml version="1.0" encoding="UTF-8" standalone="no"?>
<svg
   version="1.1"
   viewBox="0 0 200 200"
   width="200"
   height="200"
   id="svg476"
   sodipodi:docname="VampireWarsBetaPassSquare200px-lowQ-noBK.svg"
   inkscape:version="1.3.2 (091e20e, 2023-11-25, custom)"
   xmlns:inkscape="http://www.inkscape.org/namespaces/inkscape"
   xmlns:sodipodi="http://sodipodi.sourceforge.net/DTD/sodipodi-0.dtd"
   xmlns:xlink="http://www.w3.org/1999/xlink"
   xmlns="http://www.w3.org/2000/svg"
   xmlns:svg="http://www.w3.org/2000/svg">
  <sodipodi:namedview
     id="namedview476"
     pagecolor="#ffffff"
     bordercolor="#000000"
     borderopacity="0.25"
     inkscape:showpageshadow="2"
     inkscape:pageopacity="0.0"
     inkscape:pagecheckerboard="true"
     inkscape:deskcolor="#d1d1d1"
     inkscape:document-units="px"
     inkscape:zoom="4.316887"
     inkscape:cx="135.28267"
     inkscape:cy="126.01673"
     inkscape:window-width="1920"
     inkscape:window-height="1010"
     inkscape:window-x="1913"
     inkscape:window-y="-6"
     inkscape:window-maximized="1"
     inkscape:current-layer="g3" />
  <defs
     id="defs1">
    <path
       d="m 0,0 h 100.13 c -0.75,1.32 -1.47,2.66 -2.17,4.01 -2.6,-0.02 -5.32,-0.09 -7.9,0.18 0.33,1.75 1.14,3.17 1.9,4.76 l -1.01,1 c -1.9,0.85 -3.83,1.64 -5.78,2.37 C 83.58,12.15 81.95,12.04 80.4,11.68 79.88,9.88 79.49,8.05 78.88,6.27 77.97,7.13 77.14,8.2 76.08,8.86 75.09,8.39 74.15,7.82 73.15,7.37 c -2.38,0.89 -2.9,3.41 -4.19,5.43 -1.28,1.16 -2.55,2.37 -3.92,3.43 -0.98,-0.13 -1.95,-0.3 -2.92,-0.48 0.19,-0.96 0.57,-1.88 1.13,-2.76 1.57,-2.53 3.15,-4.69 2.7,-7.86 -2.25,0.79 -3.48,1.65 -4.79,3.66 -1.07,1.42 -2.22,2.77 -3.28,4.19 -1.7,2.2 -2.68,4.61 -3.74,7.15 -2.64,2 -5.49,3.6 -8.39,5.18 0.07,-1.5 0.5,-2.9 0.84,-4.35 -3.21,0.93 -5.73,2.82 -8.33,4.83 -0.18,-1.22 -0.36,-2.43 -0.54,-3.65 -1.25,0.66 -2.32,0.97 -2.63,2.52 -0.91,1.96 -1.78,3.91 -2.25,6.02 -0.32,1.13 -0.64,2.26 -0.95,3.39 -0.34,0.96 -0.67,1.93 -1,2.89 -4.09,2.05 -6.56,2.77 -6.99,7.92 l -0.43,1.03 c -2.86,4.33 -6.26,8.18 -7.5,13.18 -1.86,0.45 -1.74,1.25 -2.2,-1.09 0.57,-1.25 1.13,-2.51 1.6,-3.8 0.8,-2 1.51,-3.98 1.54,-6.16 -1.23,1.41 -2.24,2.97 -3.1,4.63 -0.55,0.8 -1.12,1.59 -1.69,2.37 -0.82,0.19 -1.63,0.42 -2.43,0.69 C 6.77,61.26 8.3,69.08 8.18,75.17 7.02,78.59 6.42,82.24 5.74,85.79 5.42,86.47 5.11,87.15 4.8,87.84 3.46,90.48 4.13,94.1 3.98,97 c 0.18,4.3 -0.53,9.1 0.73,13.21 0.12,0.92 0.23,1.84 0.33,2.77 0.22,5.31 -0.77,11.15 0.69,16.29 l 0.47,1.96 c 0.72,4.47 2.87,8.08 5.08,11.95 1.21,2.31 2.58,4.33 4.68,5.94 1.72,2.42 3.36,4.89 5.21,7.22 1.84,2.71 3.55,5.4 5.66,7.91 0.93,1.34 1.87,2.67 2.9,3.93 1.53,3.02 3.06,4.57 6.09,6.08 3.34,3.39 7.97,5.15 11.62,8.25 5.35,3.15 10.57,6.91 16.36,9.19 5.09,2.65 10.44,4.24 15.98,5.61 3.72,1.56 7.84,1.23 11.48,2.69 H 0 Z"
       id="p0" />
    <path
       d="m 100.13,0 h 0.68 c 1.29,1.22 2.98,1.93 4.21,3.16 0.07,1.42 -0.3,2.73 -0.74,4.06 -1.53,-1.06 -2.82,-1.79 -3.66,-3.53 -0.97,0.38 -1.92,0.83 -2.89,1.2 L 97.96,4.01 C 98.66,2.66 99.38,1.32 100.13,0 Z"
       id="p1" />
    <path
       d="M 100.81,0 H 200 v 200 h -85.53 c 2.16,-0.72 4.39,-1.16 6.54,-1.93 3.15,0.01 5.3,-0.4 8.05,-1.94 3.14,-0.6 6.17,-1.53 9.03,-2.98 2.74,-1.22 5.48,-2.41 8.1,-3.87 6.6,-3.2 12.65,-6.81 17.78,-12.13 1.41,-1.64 2.73,-3.35 4.05,-5.06 5.04,-3.73 8.7,-9.71 12.18,-14.88 7.74,-13.01 12.19,-28.04 14.12,-43 1.03,-3.7 1.03,-7.72 0,-11.42 -1.06,-8.7 -2.68,-17.84 -6.05,-25.97 l -0.49,-1.65 c 0.23,-3.4 0.38,-6.79 0.02,-10.2 -0.39,0.71 -0.75,1.42 -1.09,2.15 -0.68,-2.2 -1.23,-4.47 -1.97,-6.65 -0.57,0.1 -1.13,0.22 -1.68,0.35 -0.4,-0.89 -0.78,-1.79 -1.13,-2.7 0.08,-4.07 -1.68,-5.24 -4.59,-7.47 -0.58,-3.52 -0.2,-6.64 -2.04,-9.93 -1.14,-0.73 -2.75,-0.67 -4.05,-0.97 -1.81,-1.92 -3.92,-3.42 -5.93,-5.09 -0.51,-3.69 0.08,-6.61 -2.4,-9.74 -0.5,-2.02 -1.92,1.52 -2.09,2.03 -1.99,-0.62 -3.94,-1.33 -5.94,-1.9 -2.19,-1.93 -4.26,-3.87 -6.94,-5.13 -0.45,-2.37 2.33,-7.17 -0.92,-7.94 -1.56,0.63 -3,1.47 -4.17,2.69 -2.58,2.04 -2.61,6.03 -3.1,9.02 l -1.04,-0.46 c -1.59,-3.36 -3.34,-6.19 -2.36,-10.07 0.34,-1.31 0.63,-2.6 0.54,-3.98 -1.83,-0.03 -5.67,-1 -6.83,0.78 -1.43,1.8 -2.39,3.8 -3.47,5.81 -2.44,-2.5 -2.81,-6.99 -6.64,-7 l -0.92,-0.23 c -0.87,-0.24 -1.74,-0.35 -2.61,-0.33 -0.69,1.6 -0.15,3.41 -2.16,3.88 -2.34,-3.2 -6.4,-2.8 -9.89,-3.4 l -0.1,-1.47 c 0.44,-1.33 0.81,-2.64 0.74,-4.06 C 103.79,1.93 102.1,1.22 100.81,0 Z"
       id="p2" />
    <path
       d="m 100.62,3.69 c 0.84,1.74 2.13,2.47 3.66,3.53 l 0.1,1.47 c 3.49,0.6 7.55,0.2 9.89,3.4 0.66,0.73 1.32,1.47 1.99,2.2 -6.73,-1.02 -13.51,-1.21 -20.14,-2.73 -1.24,-0.26 -2.49,-0.46 -3.75,-0.65 l -1.42,-0.96 1.01,-1 1.03,-0.96 c 1.24,-1.04 2.56,-1.91 3.94,-2.75 l 0.8,-0.35 c 0.97,-0.37 1.92,-0.82 2.89,-1.2 z"
       id="p3" />
    <path
       d="m 90.06,4.19 c 2.58,-0.27 5.3,-0.2 7.9,-0.18 l -0.23,0.88 -0.8,0.35 C 94.63,4.7 90.89,4.58 92.99,7.99 L 91.96,8.95 C 91.2,7.36 90.39,5.94 90.06,4.19 Z"
       id="p4" />
    <path
       d="m 65.95,5.13 c 0.45,3.17 -1.13,5.33 -2.7,7.86 -0.6,-1.45 -1.31,-2.84 -2.09,-4.2 1.31,-2.01 2.54,-2.87 4.79,-3.66 z"
       id="p5" />
    <path
       d="M 96.93,5.24 C 95.55,6.08 94.23,6.95 92.99,7.99 90.89,4.58 94.63,4.7 96.93,5.24 Z"
       id="p6" />
    <path
       d="m 78.88,6.27 c 0.61,1.78 1,3.61 1.52,5.41 1.55,0.36 3.18,0.47 4.77,0.64 -1.88,0.81 -3.86,0.87 -5.85,0.47 -0.21,-1.17 -0.41,-2.34 -0.59,-3.52 -2.67,2.01 -4.72,4.32 -7.88,5.7 -0.63,-0.72 -1.26,-1.44 -1.89,-2.17 1.29,-2.02 1.81,-4.54 4.19,-5.43 1,0.45 1.94,1.02 2.93,1.49 1.06,-0.66 1.89,-1.73 2.8,-2.59 z"
       id="p7" />
    <path
       d="m 116.43,8.21 c 0.87,-0.02 1.74,0.09 2.61,0.33 -3.13,0.42 -0.93,3.48 -1.07,5.54 l -1.71,0.21 c -0.67,-0.73 -1.33,-1.47 -1.99,-2.2 2.01,-0.47 1.47,-2.28 2.16,-3.88 z"
       id="p8" />
    <path
       d="m 61.16,8.79 c 0.78,1.36 1.49,2.75 2.09,4.2 -0.56,0.88 -0.94,1.8 -1.13,2.76 0.97,0.18 1.94,0.35 2.92,0.48 -1.89,1.3 -2.88,2.27 -5.17,1.02 1.74,-3.39 0.2,-2.41 -1.99,-4.27 1.06,-1.42 2.21,-2.77 3.28,-4.19 z"
       id="p9" />
    <path
       d="m 78.73,9.27 c 0.18,1.18 0.38,2.35 0.59,3.52 1.99,0.4 3.97,0.34 5.85,-0.47 1.95,-0.73 3.88,-1.52 5.78,-2.37 l 1.42,0.96 c -2.54,2.18 -5.58,3.2 -8.39,4.9 4.89,0.97 7.5,-3.24 12.14,-4.25 6.63,1.52 13.41,1.71 20.14,2.73 -3.62,1.44 -6.62,0.17 -10.24,-0.16 1.19,1.88 3.02,1.98 4.92,2.8 1.04,0.91 2.08,1.8 3.01,2.82 -1,0.18 -2,0.34 -3.01,0.48 l -0.79,-0.28 c -0.88,-0.82 -1.75,-1.61 -2.82,-2.17 -1.7,-0.99 -3.25,-1.96 -5.31,-1.83 -7.42,0.32 -14.66,2.06 -21.08,5.89 -1.22,0.52 -2.47,0.97 -3.73,1.4 0.54,-0.75 1.07,-1.51 1.58,-2.28 -3.56,0.25 -6.79,2.96 -10.01,1.29 2.72,-2.05 7.41,-2.25 9.19,-5.17 -3.42,0.08 -6.79,2.19 -9.95,3.39 -0.51,-1.17 -0.97,-2.36 -1.38,-3.57 1.17,-1.47 2.71,-1.14 4.21,-1.93 3.16,-1.38 5.21,-3.69 7.88,-5.7 z"
       id="p10" />
    <path
       d="m 119.04,8.54 0.92,0.23 c 0.22,1.47 0.47,2.93 0.78,4.38 -1.12,1.47 -0.99,1.37 -2.77,0.93 0.14,-2.06 -2.06,-5.12 1.07,-5.54 z"
       id="p11" />
    <path
       d="m 119.96,8.77 c 3.83,0.01 4.2,4.5 6.64,7 1.08,-2.01 2.04,-4.01 3.47,-5.81 1.32,0.16 2.64,0.35 3.97,0.5 -1.13,3.62 -3.09,5.8 0.76,8.54 0.25,-3 0.69,-5.75 -0.76,-8.54 2.63,-0.57 1.63,0.77 2.32,2.7 -0.98,3.88 0.77,6.71 2.36,10.07 -2.04,-0.9 -4.03,-1.89 -6,-2.92 -0.85,-2.39 -1.54,-4.75 -2.13,-7.21 -2.53,1.55 -0.95,3.73 -0.83,6.09 -3.42,-1.3 -6.53,-3.35 -9.02,-6.04 -0.31,-1.45 -0.56,-2.91 -0.78,-4.38 z"
       id="p12" />
    <path
       d="m 136.9,9.18 c 0.09,1.38 -0.2,2.67 -0.54,3.98 -0.69,-1.93 0.31,-3.27 -2.32,-2.7 -1.33,-0.15 -2.65,-0.34 -3.97,-0.5 1.16,-1.78 5,-0.81 6.83,-0.78 z"
       id="p13" />
    <path
       d="m 92.37,10.91 c 1.26,0.19 2.51,0.39 3.75,0.65 -4.64,1.01 -7.25,5.22 -12.14,4.25 2.81,-1.7 5.85,-2.72 8.39,-4.9 z"
       id="p14" />
    <path
       d="m 134.04,10.46 c 1.45,2.79 1.01,5.54 0.76,8.54 -3.85,-2.74 -1.89,-4.92 -0.76,-8.54 z"
       id="p15" />
    <path
       d="m 147.03,11.98 c 3.25,0.77 0.47,5.57 0.92,7.94 l -0.74,-0.2 c -1.07,-2.6 -1.8,-3.72 -4.35,-5.05 1.17,-1.22 2.61,-2.06 4.17,-2.69 z"
       id="p16" />
    <path
       d="m 57.88,12.98 c 0.07,1.69 0.13,3.39 0.18,5.08 l -0.09,0.87 c -1.28,0.38 -2.56,0.78 -3.83,1.2 1.06,-2.54 2.04,-4.95 3.74,-7.15 z"
       id="p17" />
    <path
       d="m 57.88,12.98 c 2.19,1.86 3.73,0.88 1.99,4.27 l -1.11,0.71 -0.7,0.1 c -0.05,-1.69 -0.11,-3.39 -0.18,-5.08 z"
       id="p18" />
    <path
       d="m 68.96,12.8 c 0.63,0.73 1.26,1.45 1.89,2.17 -1.5,0.79 -3.04,0.46 -4.21,1.93 -0.99,0.95 -1.84,2.02 -2.65,3.12 -1.6,0.4 -3.03,0.91 -4.7,0.84 -0.2,-0.97 -0.37,-1.93 -0.53,-2.9 l 1.11,-0.71 c 2.29,1.25 3.28,0.28 5.17,-1.02 1.37,-1.06 2.64,-2.27 3.92,-3.43 z"
       id="p19" />
    <path
       d="m 120.74,13.15 c 2.49,2.69 5.6,4.74 9.02,6.04 0.98,0.4 1.97,0.77 2.96,1.12 1.97,1.03 3.96,2.02 6,2.92 l 1.04,0.46 c 0.49,-2.99 0.52,-6.98 3.1,-9.02 2.55,1.33 3.28,2.45 4.35,5.05 1.41,2.84 4.45,6.86 8.07,6.12 0.71,1.27 1.38,2.56 1.92,3.91 -0.45,1.04 -0.9,2.09 -1.33,3.14 l -0.68,0.04 c -1.61,-3.18 -4.36,-4.87 -7.01,-7.07 -0.65,-0.68 -1.45,-0.72 -2.41,-0.1 -1.28,-1.18 -1.62,-2.11 -3.62,-1.61 -1.02,3.34 3.11,4.48 4.73,6.84 -1.38,-0.36 -2.63,-0.56 -4.05,-0.38 -2.67,-1.4 -5.35,-3.14 -8.19,-4.15 -3.81,-1 -7.42,-0.99 -10.8,-3.3 2.09,0.22 4.15,0.6 6.25,0.72 0.95,0.04 1.91,0.04 2.87,0 -2,-1.73 -3.31,-2.96 -6.17,-2.69 -2.24,-0.62 -4.28,-1.67 -6.44,-2.53 -1.54,-3.95 -5.29,-2.81 -8.55,-1.97 l -0.86,0.24 c -1.9,-0.82 -3.73,-0.92 -4.92,-2.8 3.62,0.33 6.62,1.6 10.24,0.16 l 1.71,-0.21 c 1.78,0.44 1.65,0.54 2.77,-0.93 z"
       id="p20" />
    <path
       d="m 130.59,13.1 c 0.59,2.46 1.28,4.82 2.13,7.21 -0.99,-0.35 -1.98,-0.72 -2.96,-1.12 -0.12,-2.36 -1.7,-4.54 0.83,-6.09 z"
       id="p21" />
    <path
       d="m 102.02,15.95 c 2.06,-0.13 3.61,0.84 5.31,1.83 -2.75,1.36 -5.64,1.18 -8.54,1.92 -4.15,1.07 -8.43,1.19 -12.56,2.27 -1.77,-0.39 -3.5,-0.25 -5.29,-0.13 6.42,-3.83 13.66,-5.57 21.08,-5.89 z"
       id="p22" />
    <path
       d="m 120.35,18.66 c -2.84,-0.74 -5.63,-1.57 -8.55,-1.97 3.26,-0.84 7.01,-1.98 8.55,1.97 z"
       id="p23" />
    <path
       d="m 66.64,16.9 c 0.41,1.21 0.87,2.4 1.38,3.57 -2.18,0.83 -2.38,1.85 -4.03,-0.45 0.81,-1.1 1.66,-2.17 2.65,-3.12 z"
       id="p24" />
    <path
       d="m 77.97,17.08 c -1.78,2.92 -6.47,3.12 -9.19,5.17 -3.08,2.6 -5.55,1.86 -8.95,3.2 l -0.96,0.35 c 1.08,-2.58 3.54,-3.53 5.12,-5.78 1.65,2.3 1.85,1.28 4.03,0.45 3.16,-1.2 6.53,-3.31 9.95,-3.39 z"
       id="p25" />
    <path
       d="m 110.94,16.93 0.86,-0.24 c 2.92,0.4 5.71,1.23 8.55,1.97 2.16,0.86 4.2,1.91 6.44,2.53 1.08,0.93 2.17,1.83 3.3,2.69 -2.1,-0.12 -4.16,-0.5 -6.25,-0.72 -4.19,-1.79 -8.63,-1.77 -12.9,-2.93 1.01,-0.14 2.01,-0.3 3.01,-0.48 -0.93,-1.02 -1.97,-1.91 -3.01,-2.82 z"
       id="p26" />
    <path
       d="m 58.06,18.06 0.7,-0.1 c 0.16,0.97 0.33,1.93 0.53,2.9 1.67,0.07 3.1,-0.44 4.7,-0.84 -1.58,2.25 -4.04,3.2 -5.12,5.78 -2.9,2.05 -7.26,3.08 -9.04,6.18 0.63,0.53 1.33,0.97 2.12,1.3 -1.76,1.09 -3.54,2.13 -5.27,3.27 -1.87,-1.35 -1.97,-4.48 0.02,-5.85 3.68,-4.12 11.35,-4.97 11.27,-11.77 z"
       id="p27" />
    <path
       d="m 107.33,17.78 c 1.07,0.56 1.94,1.35 2.82,2.17 -3.8,0.07 -7.58,0.12 -11.36,-0.25 2.9,-0.74 5.79,-0.56 8.54,-1.92 z"
       id="p28" />
    <path
       d="m 57.97,18.93 c 0.08,6.8 -7.59,7.65 -11.27,11.77 -1.99,1.37 -1.89,4.5 -0.02,5.85 l 0.69,0.71 c -1.45,0.55 -2.91,1.09 -4.34,1.68 -4.85,1.68 -7.68,7.35 -12.08,10.08 l -0.02,-0.9 c 0.93,-1.35 1.93,-2.64 2.88,-3.96 1.72,-2.18 3.56,-4.26 5.4,-6.33 0.81,-0.83 1.64,-1.64 2.38,-2.53 -1.34,-1.45 -2.59,-2.96 -3.83,-4.49 1.98,-2.36 5.43,-2.37 7.27,-4.64 l 0.72,-0.86 c 2.9,-1.58 5.75,-3.18 8.39,-5.18 1.27,-0.42 2.55,-0.82 3.83,-1.2 z"
       id="p29" />
    <path
       d="m 98.79,19.7 c 3.78,0.37 7.56,0.32 11.36,0.25 l 0.79,0.28 c 4.27,1.16 8.71,1.14 12.9,2.93 3.38,2.31 6.99,2.3 10.8,3.3 2.84,1.01 5.52,2.75 8.19,4.15 6.63,5.13 12.93,11.01 18.17,17.56 1.61,2.05 3.2,4.12 4.95,6.05 0.99,1.27 1.95,2.56 2.92,3.84 0.76,2.19 1.71,4.14 3.03,6.05 1.87,3.21 3.52,6.54 4.77,10.04 0.46,1.57 0.95,3.13 1.46,4.69 0.24,3.13 1.04,6.13 1.99,9.11 0.33,5.53 -3.2,10.43 0.7,15.13 0.41,0.64 0.81,1.29 1.22,1.93 0.03,6.72 -0.3,13.51 0.26,20.21 -2.09,7.32 -3.18,14.36 -6.94,21.12 -2.54,4.5 -5.14,8.9 -7.38,13.57 -2.45,2.87 -5.48,5.58 -7.18,8.97 -7.06,6.75 -14.77,13.14 -23.24,18.05 -1.85,0.79 -3.65,1.67 -5.51,2.41 -2.58,-0.71 -3.22,-5.05 -3.94,-7.31 1.24,1.12 2.15,2.46 3.21,3.74 1.4,-1.31 2.06,-2.09 2.25,-4.03 1.99,-0.7 4.76,-1.27 5.23,-3.68 -0.62,-1.91 -1.55,-3.55 -1.84,-5.57 1.31,0.11 2.61,0.29 3.93,0.33 0.73,-3.04 -3.57,-6.29 -2.07,-8.92 1.77,1.95 3.96,5.91 7.07,4.97 -0.06,-3 -1.68,-6 -2.65,-8.82 -2.07,-3.1 -4.55,-5.27 -5.1,-9.14 l 0.83,0.46 c 1.74,1.03 3.24,2.27 4.66,3.71 1.61,2.39 2.73,6.15 6.12,3.65 1.11,-3.34 -1.37,-7.08 -2.65,-10.11 -0.48,-1.01 -1.09,-1.92 -1.72,-2.83 l -0.42,-0.69 c 0.24,-1.63 0.36,-3.21 0.4,-4.85 2.88,1.92 3.94,4.45 7.49,2.09 -1.62,-2.75 -2.88,-6.22 -4.96,-8.56 l -0.9,-0.85 c -0.65,-0.96 -1.27,-1.94 -1.82,-2.97 3.12,1.05 5.59,4.12 8.09,6.18 2.33,1.96 5.56,3.81 8.67,3.8 -1.47,-2.33 -3.47,-4.16 -5.73,-5.71 -1.64,-1.22 -3.09,-2.63 -4.47,-4.13 0.94,-1.34 1.97,-2.62 2.89,-3.98 -1.12,-2.55 -3.43,-4.41 -5.4,-6.34 -1.24,-1.28 -2.53,-2.51 -3.98,-3.56 -4.05,-3.5 -8.81,-7.35 -11.48,-12.03 1.35,-0.16 2.7,-0.32 4.05,-0.49 7.18,0.59 14.09,0.52 21.2,-0.69 3.13,0.01 5.22,-1.55 7.28,-3.71 2.79,-3 6.2,-5.94 5.67,-10.43 0.36,-1.77 1.82,-4.32 0.38,-5.86 -5.63,-5.63 -10.13,-12.59 -16.01,-17.89 l -0.41,1.59 c -0.91,2.2 -0.24,3.95 0.18,6.15 l 0.19,1.91 c -0.13,1.79 -0.24,3.58 -0.34,5.37 l -0.33,1.93 c -1.38,1.43 -2.67,1.65 -1.79,3.89 l -0.6,0.72 -1.72,0.35 c -2.06,-1.66 -3.96,-0.18 -4.65,1.98 -1.22,0.68 -2.43,1.37 -3.66,2.03 -1.45,-0.49 -2.8,-0.84 -4.35,-0.83 0.66,-2.5 0.9,-1.98 -1.66,-2.89 -1.12,-0.71 -2.23,-1.44 -3.33,-2.2 l 0.22,-1 c 0.58,-1.37 1.18,-2.71 1.69,-4.11 -1.91,0.24 -3.72,0.74 -5.59,1.18 -5.49,-0.27 -11.54,0.37 -16.19,-3.16 -4.62,-3.44 -9.61,-6 -14.82,-8.41 -3.91,-2.74 -7.01,-1.04 -11.21,-0.33 -1.72,-0.28 -3.29,-0.65 -5.03,-0.22 -1.56,0.29 -3.1,0.62 -4.67,0.85 -0.68,-0.67 -1.42,-1.27 -2.2,-1.8 -2.4,1.19 -4.85,2.33 -7.11,3.78 l -1.2,0.74 c -1.69,0.7 -1.53,1.7 -1.97,3.25 -0.64,1.95 -1.23,3.84 -2.46,5.52 -3.73,0.77 -7.44,0.45 -11.19,0.8 -0.09,1.37 -0.39,2.56 0.57,3.7 l 0.82,1.2 c 0.49,0.73 0.98,1.46 1.48,2.18 -0.28,0.58 -0.57,1.16 -0.86,1.74 -0.8,-1.43 -1.52,-2.84 -2.76,-3.95 -0.88,3.11 -1.73,6.14 -3.12,9.07 -0.59,3.54 -0.31,7.31 -0.01,10.87 0.62,-1.31 1.12,-2.65 1.63,-3.99 l 0.78,-0.27 c 0.21,1.42 0.44,2.84 0.68,4.26 1.09,-1.63 1.62,-3.33 1.98,-5.24 0.42,1.72 0.71,3.47 1.06,5.2 0.86,-0.9 1.54,-1.91 2.19,-2.97 0.2,1.24 0.39,2.49 0.62,3.73 0.95,-0.9 1.86,-1.84 2.82,-2.74 0.01,1.2 0.09,2.4 0.24,3.58 0.97,0.14 1.94,0.23 2.9,0.37 0.86,1.04 1.78,2.01 2.71,2.99 1.09,4.61 1.27,9.31 2.52,13.89 -0.15,0.96 -0.31,1.91 -0.48,2.85 -0.99,-0.34 -3.05,-3.09 -2.27,-0.37 0.61,1.94 -1.06,0.81 -2.21,1.13 -0.5,1.49 -0.91,3 -1.42,4.48 l -0.97,-0.03 c 0.16,-1.34 0.19,-3.02 -1.25,-3.68 -1.51,0.05 -0.81,2.89 -0.52,3.76 -0.18,1.01 -0.37,2.02 -0.58,3.03 -0.96,-0.86 -1.53,-1.83 -2.03,-3.01 -0.57,-1.43 -0.33,-3.76 -2.17,-4.07 -0.2,1.95 1.86,5.1 -1.38,4.69 0.41,1.54 1.04,3.04 1.64,4.52 0.4,1.22 0.85,2.38 0.95,3.67 -1.04,4.25 -1.17,10.2 0,14.42 0.35,1.1 0.74,2.2 1.18,3.28 l 0.52,1.37 c 2.49,-1.68 3.23,-4.12 4.41,-6.72 4.68,-2.29 8.48,-5.65 12.19,-9.24 -0.35,-1.65 -0.95,-3.25 -1.42,-4.88 1.12,-0.5 2.26,-0.95 3.43,-1.35 0.67,0.44 1.35,0.89 2.02,1.33 1.88,1.06 3.92,4.8 5.83,4.82 -0.11,-1.95 -0.55,-3.85 -0.7,-5.79 1.47,0.69 3.22,4.29 4.7,3.74 0.41,-2.97 -2.37,-6.01 -3.25,-8.8 1.37,-0.87 1.97,-0.52 3.4,-0.14 0.11,2.71 0.75,5.3 1.32,7.94 -0.54,3.69 0.39,8.14 -1.59,11.31 -1.05,1.61 0.26,4.06 0.19,5.9 0.26,7.35 -0.04,14.73 0.07,22.09 -0.12,3.16 1.25,5.57 2.3,8.45 1.14,-0.47 2.22,-1.03 3.39,-1.43 0.24,1.53 0.37,3.06 0.66,4.58 1.49,0.41 3.01,0.72 4.53,0.98 0.28,-3.53 0.39,-7.33 -0.48,-10.79 -0.09,-1.35 -0.14,-2.7 -0.14,-4.05 1.53,2.33 3.24,9.25 6.5,9.08 0.24,-1.92 0.29,-3.85 0.47,-5.79 1.53,1.46 2.85,2.97 3.76,4.9 0.92,1.32 0.89,3.01 2.88,2.91 0.68,-3.51 -1.15,-6.63 -0.33,-10.06 l 0.27,0.81 c 1.16,3.15 2.42,7.4 5.17,9.51 0.97,-1.05 1.84,-2.21 2.6,-3.42 -0.17,-1.67 -0.76,-3.34 -1.47,-4.86 -0.06,-1.61 -0.08,-3.21 0.07,-4.82 2.15,-0.09 1.94,1.61 2.84,3.07 0.87,2.17 2.01,4.24 3.18,6.25 1.76,-1.93 3.62,2.14 5.18,2.9 -5.97,2.96 -12.85,4.49 -19.39,5.57 -5.4,0.4 -10.8,-0.19 -16.2,0.45 -4.15,-1.47 -8.84,-0.66 -12.75,-2.43 -5.4,-2.44 -11.31,-4.23 -16.95,-6.08 -7.6,-4.02 -14.71,-7.85 -21.15,-13.66 -1.3,-2.04 -2.96,-3.72 -4.68,-5.41 -2.62,-2.49 -4.26,-5.65 -7.18,-7.87 -3.14,-5.42 -7.04,-10.35 -10.12,-15.78 -0.19,-3.61 -2.28,-6.97 -4.03,-10.07 -0.2,-5.61 0.86,-11.8 -0.67,-17.23 -0.16,-1.92 -0.22,-3.83 -0.31,-5.75 -0.03,-1.28 -0.1,-2.56 -0.19,-3.83 0.34,-5.34 0.36,-10.85 0.19,-16.2 0.15,-1.59 -1.69,-1.62 -2.43,-3.06 1.79,-6.71 3.51,-13.77 6.58,-19.91 3.53,-6.08 7.23,-12.05 11.06,-17.95 4.13,-3.83 8.4,-7.71 11.88,-12.15 1.43,-0.59 2.89,-1.13 4.34,-1.68 5.7,-1.66 10.84,-5.23 16.32,-7.52 3.55,-1.41 7,-2.97 10.42,-4.64 l 0.8,-0.18 c 4.52,0.57 7.52,-0.8 11.32,-2.95 4.13,-1.08 8.41,-1.2 12.56,-2.27 z M 76.76,41.66 c -1.56,0.4 -3.08,0.9 -4.51,1.63 -1.61,4.78 2.61,7.11 5.73,9.73 15.03,9.48 32.33,15.64 49.87,18.31 4.59,0.94 9.41,0.86 14.06,0.53 1.69,-0.47 4.57,-1.51 4.05,-3.77 -1.47,-4.74 -6.27,-7.43 -10.26,-9.8 -8.91,-5.75 -19.72,-9.08 -29.56,-12.54 -4.93,-1.25 -9.97,-2.63 -14.97,-3.5 -1.65,-0.2 -3.31,-0.35 -4.96,-0.54 -3.09,-1.01 -6.35,-1.05 -9.45,-0.05 z"
       id="p30" />
    <path
       d="m 147.21,19.72 0.74,0.2 c 2.68,1.26 4.75,3.2 6.94,5.13 l 0.39,0.79 c -3.62,0.74 -6.66,-3.28 -8.07,-6.12 z"
       id="p31" />
    <path
       d="m 46.59,20.96 c -0.34,1.45 -0.77,2.85 -0.84,4.35 l -0.72,0.86 c -1.81,-3.54 -2.63,-0.23 -4.9,0.84 -1.49,0.76 -3.23,1.12 -4.83,1.63 0.05,-1.36 0.21,-2.64 -0.21,-3.98 0.31,-1.55 1.38,-1.86 2.63,-2.52 0.18,1.22 0.36,2.43 0.54,3.65 2.6,-2.01 5.12,-3.9 8.33,-4.83 z"
       id="p32" />
    <path
       d="m 78.79,20.96 c -0.51,0.77 -1.04,1.53 -1.58,2.28 -0.76,0.56 -1.53,1.12 -2.3,1.68 l -0.8,0.18 c -4.69,-0.2 -9.54,2.41 -13.93,3.96 0.53,-1.7 0.85,-2.06 -0.35,-3.61 3.4,-1.34 5.87,-0.6 8.95,-3.2 3.22,1.67 6.45,-1.04 10.01,-1.29 z"
       id="p33" />
    <path
       d="m 86.23,21.97 c -3.8,2.15 -6.8,3.52 -11.32,2.95 0.77,-0.56 1.54,-1.12 2.3,-1.68 1.26,-0.43 2.51,-0.88 3.73,-1.4 1.79,-0.12 3.52,-0.26 5.29,0.13 z"
       id="p34" />
    <path
       d="m 126.79,21.19 c 2.86,-0.27 4.17,0.96 6.17,2.69 -0.96,0.04 -1.92,0.04 -2.87,0 -1.13,-0.86 -2.22,-1.76 -3.3,-2.69 z"
       id="p35" />
    <path
       d="m 45.03,26.17 c -1.84,2.27 -5.29,2.28 -7.27,4.64 -0.52,0.46 -1.05,0.92 -1.57,1.39 -1.29,-1.37 -1.38,-1.85 -3.35,-1.52 0.47,-2.11 1.34,-4.06 2.25,-6.02 0.42,1.34 0.26,2.62 0.21,3.98 1.6,-0.51 3.34,-0.87 4.83,-1.63 2.27,-1.07 3.09,-4.38 4.9,-0.84 z"
       id="p36" />
    <path
       d="m 142.15,24.15 c 2,-0.5 2.34,0.43 3.62,1.61 1.12,3.21 3.92,6.34 7.26,7.25 l 0.98,1.09 -2.18,0.18 c -1.95,-0.8 -3.63,-1.58 -4.95,-3.29 -1.62,-2.36 -5.75,-3.5 -4.73,-6.84 z"
       id="p37" />
    <path
       d="m 162.92,24.92 c 2.48,3.13 1.89,6.05 2.4,9.74 2.01,1.67 4.12,3.17 5.93,5.09 2.53,2.58 1.62,5.2 1.54,8.46 -0.37,-1.11 -0.71,-2.23 -1.02,-3.36 0.01,-0.95 0,-1.91 -0.03,-2.86 -1.24,1.07 -1.8,2.47 -2.48,3.92 -1.66,-1.74 -3.3,-3.48 -5.22,-4.94 l 0.06,-0.77 c 0.14,-2.13 0.83,-7.22 -1.6,-8.05 -0.6,-1.39 -0.84,-2.93 -1.38,-4.35 l -0.29,-0.85 c 0.17,-0.51 1.59,-4.05 2.09,-2.03 z"
       id="p38" />
    <path
       d="m 74.11,25.1 c -3.42,1.67 -6.87,3.23 -10.42,4.64 -5.48,2.29 -10.62,5.86 -16.32,7.52 l -0.69,-0.71 c 1.73,-1.14 3.51,-2.18 5.27,-3.27 2.65,-1.63 5.36,-3.01 8.23,-4.22 4.39,-1.55 9.24,-4.16 13.93,-3.96 z"
       id="p39" />
    <path
       d="m 148.18,25.86 c 2.65,2.2 5.4,3.89 7.01,7.07 l -1.18,1.17 -0.98,-1.09 c -2.05,-2.78 -4.5,-5.17 -7.26,-7.25 0.96,-0.62 1.76,-0.58 2.41,0.1 z"
       id="p40" />
    <path
       d="m 154.89,25.05 c 2,0.57 3.95,1.28 5.94,1.9 l 0.29,0.85 c -0.86,1.75 -1,3.56 -2.92,4.44 -0.31,-0.84 -0.65,-1.67 -1,-2.49 -0.54,-1.35 -1.21,-2.64 -1.92,-3.91 z"
       id="p41" />
    <path
       d="m 58.87,25.8 0.96,-0.35 c 1.2,1.55 0.88,1.91 0.35,3.61 -2.87,1.21 -5.58,2.59 -8.23,4.22 -0.79,-0.33 -1.49,-0.77 -2.12,-1.3 1.78,-3.1 6.14,-4.13 9.04,-6.18 z"
       id="p42" />
    <path
       d="m 145.77,25.76 c 2.76,2.08 5.21,4.47 7.26,7.25 -3.34,-0.91 -6.14,-4.04 -7.26,-7.25 z"
       id="p43" />
    <path
       d="m 161.12,27.8 c 0.54,1.42 0.78,2.96 1.38,4.35 2.43,0.83 1.74,5.92 1.6,8.05 -3.22,-2.08 -3.04,-3.45 -3.36,-7.06 -0.6,0.66 -1.18,1.33 -1.75,2.02 -0.27,-0.97 -0.54,-1.94 -0.79,-2.92 1.92,-0.88 2.06,-2.69 2.92,-4.44 z"
       id="p44" />
    <path
       d="m 36.19,32.2 c -1.64,1.46 -1.83,3.03 -4.3,1.87 0.31,-1.13 0.63,-2.26 0.95,-3.39 1.97,-0.33 2.06,0.15 3.35,1.52 z"
       id="p45" />
    <path
       d="m 146.88,30.99 c 1.32,1.71 3,2.49 4.95,3.29 1.36,0.98 3.49,4.84 5.25,2.84 l 0.75,-0.05 c 0.79,2.03 1.64,4.02 2.29,6.11 0.3,1.47 1.14,2.55 2.02,3.72 L 161,48.17 c -5.24,-6.55 -11.54,-12.43 -18.17,-17.56 1.42,-0.18 2.67,0.02 4.05,0.38 z"
       id="p46" />
    <path
       d="m 157.2,29.75 c 0.35,0.82 0.69,1.65 1,2.49 0.25,0.98 0.52,1.95 0.79,2.92 l -0.35,0.77 -0.81,1.14 -0.75,0.05 c -0.03,-1.71 -0.28,-2.77 -1.21,-4.23 0.43,-1.05 0.88,-2.1 1.33,-3.14 z"
       id="p47" />
    <path
       d="m 37.76,30.81 c 1.24,1.53 2.49,3.04 3.83,4.49 -0.74,0.89 -1.57,1.7 -2.38,2.53 -0.33,-0.71 -0.74,-1.37 -1.22,-1.97 -2.09,1.45 -3.69,3.3 -5.29,5.25 -0.61,-0.68 -1.22,-1.37 -1.82,-2.07 l 0.01,-2.08 c 0.33,-0.96 0.66,-1.93 1,-2.89 2.47,1.16 2.66,-0.41 4.3,-1.87 0.52,-0.47 1.05,-0.93 1.57,-1.39 z"
       id="p48" />
    <path
       d="m 155.19,32.93 0.68,-0.04 c 0.93,1.46 1.18,2.52 1.21,4.23 -1.41,-0.79 -2.29,-1.6 -3.07,-3.02 z"
       id="p49" />
    <path
       d="m 160.74,33.14 c 0.32,3.61 0.14,4.98 3.36,7.06 l -0.06,0.77 -0.15,0.98 c -0.9,-0.34 -1.81,-0.67 -2.72,-0.98 -0.95,-1.63 -1.8,-3.3 -2.53,-5.04 l 0.35,-0.77 c 0.57,-0.69 1.15,-1.36 1.75,-2.02 z"
       id="p50" />
    <path
       d="m 151.83,34.28 2.18,-0.18 c 0.78,1.42 1.66,2.23 3.07,3.02 -1.76,2 -3.89,-1.86 -5.25,-2.84 z"
       id="p51" />
    <path
       d="m 37.99,35.86 c 0.48,0.6 0.89,1.26 1.22,1.97 -1.84,2.07 -3.68,4.15 -5.4,6.33 -2.14,-0.36 -0.97,-1.48 -1.11,-3.05 1.6,-1.95 3.2,-3.8 5.29,-5.25 z"
       id="p52" />
    <path
       d="m 158.64,35.93 c 0.73,1.74 1.58,3.41 2.53,5.04 -0.35,0.74 -0.69,1.47 -1.05,2.21 -0.65,-2.09 -1.5,-4.08 -2.29,-6.11 z"
       id="p53" />
    <path
       d="m 30.89,36.96 -0.01,2.08 c -3.54,1.5 -4.86,2.51 -6.98,5.84 0.43,-5.15 2.9,-5.87 6.99,-7.92 z"
       id="p54" />
    <path
       d="m 30.88,39.04 c 0.6,0.7 1.21,1.39 1.82,2.07 0.14,1.57 -1.03,2.69 1.11,3.05 -0.95,1.32 -1.95,2.61 -2.88,3.96 -0.43,-0.62 -0.88,-1.24 -1.33,-1.85 -3.07,1.67 -4.61,5.66 -6.2,8.62 -0.74,1.05 -1.49,2.08 -2.32,3.07 C 20.64,53.63 23.4,50 23.47,45.91 l 0.43,-1.03 c 2.12,-3.33 3.44,-4.34 6.98,-5.84 z"
       id="p55" />
    <path
       d="m 43.03,38.94 c -3.48,4.44 -7.75,8.32 -11.88,12.15 l -0.2,-2.07 c 4.4,-2.73 7.23,-8.4 12.08,-10.08 z"
       id="p56" />
    <path
       d="m 171.25,39.75 c 1.3,0.3 2.91,0.24 4.05,0.97 1.84,3.29 1.46,6.41 2.04,9.93 2.91,2.23 4.67,3.4 4.59,7.47 -1.99,-2.65 -3.6,-5.23 -6.96,-6.23 l -1.47,-0.98 c -0.23,-0.9 -0.46,-1.8 -0.71,-2.7 0.08,-3.26 0.99,-5.88 -1.54,-8.46 z"
       id="p57" />
    <path
       d="m 86.21,41.71 c -3.23,0.35 -6.23,0.34 -9.45,-0.05 3.1,-1 6.36,-0.96 9.45,0.05 z"
       id="p58" />
    <path
       d="m 161.17,40.97 c 0.91,0.31 1.82,0.64 2.72,0.98 0.46,1.82 1.6,3 2.85,4.31 2.47,2.22 3.25,5.95 4.48,9 -2.97,-1.94 -4.06,-7.16 -7.44,-7.95 l -1.64,-0.41 c -0.88,-1.17 -1.72,-2.25 -2.02,-3.72 0.36,-0.74 0.7,-1.47 1.05,-2.21 z"
       id="p59" />
    <path
       d="m 164.04,40.97 c 1.92,1.46 3.56,3.2 5.22,4.94 0.46,0.46 0.93,0.91 1.43,1.34 1.47,2.89 1.82,4.92 0.53,8.01 -1.23,-3.05 -2.01,-6.78 -4.48,-9 -1.25,-1.31 -2.39,-2.49 -2.85,-4.31 z"
       id="p60" />
    <path
       d="m 76.76,41.66 c 3.22,0.39 6.22,0.4 9.45,0.05 1.65,0.19 3.31,0.34 4.96,0.54 -0.78,0.36 -1.56,0.72 -2.34,1.07 -4,-0.29 -9.62,-1.41 -12.61,1.97 -1.05,2.27 1.68,4.02 3,5.49 10.54,9.02 23.19,12.62 36.14,16.76 7.16,1.43 17.56,4.44 24.39,1.15 1,-2.88 -2.49,-6.32 -4.73,-7.72 -9.5,-6.89 -20.1,-10.55 -31.1,-14.27 0.74,-0.32 1.48,-0.64 2.22,-0.95 9.84,3.46 20.65,6.79 29.56,12.54 3.99,2.37 8.79,5.06 10.26,9.8 0.52,2.26 -2.36,3.3 -4.05,3.77 -4.65,0.33 -9.47,0.41 -14.06,-0.53 C 110.31,68.66 93.01,62.5 77.98,53.02 74.86,50.4 70.64,48.07 72.25,43.29 c 1.43,-0.73 2.95,-1.23 4.51,-1.63 z"
       id="p61" />
    <path
       d="m 91.17,42.25 c 5,0.87 10.04,2.25 14.97,3.5 -0.74,0.31 -1.48,0.63 -2.22,0.95 C 99,45 93.89,44.4 88.83,43.32 c 0.78,-0.35 1.56,-0.71 2.34,-1.07 z"
       id="p62" />
    <path
       d="m 171.74,41.99 c 0.03,0.95 0.04,1.91 0.03,2.86 -0.36,0.8 -0.73,1.6 -1.08,2.4 -0.5,-0.43 -0.97,-0.88 -1.43,-1.34 0.68,-1.45 1.24,-2.85 2.48,-3.92 z"
       id="p63" />
    <path
       d="M 88.83,43.32 C 93.89,44.4 99,45 103.92,46.7 c 11,3.72 21.6,7.38 31.1,14.27 2.24,1.4 5.73,4.84 4.73,7.72 -6.83,3.29 -17.23,0.28 -24.39,-1.15 -12.95,-4.14 -25.6,-7.74 -36.14,-16.76 -1.32,-1.47 -4.05,-3.22 -3,-5.49 2.99,-3.38 8.61,-2.26 12.61,-1.97 z"
       id="p64" />
    <path
       d="m 171.77,44.85 c 0.31,1.13 0.65,2.25 1.02,3.36 0.25,0.9 0.48,1.8 0.71,2.7 -0.17,4.93 2.14,8.45 4.32,12.62 -0.63,0.46 -1.25,0.95 -1.84,1.46 1.36,2.74 3.09,5.31 4.71,7.91 0.36,-0.72 -0.03,-3.93 1.09,-3.63 0.37,2.49 0.84,4.97 1.15,7.47 -0.62,-0.21 -1.25,-0.44 -1.86,-0.68 -1.07,-1.42 -2.2,-2.78 -3.29,-4.19 -3.21,-5.25 -3.33,-11.54 -6.56,-16.61 1.29,-3.09 0.94,-5.12 -0.53,-8.01 0.35,-0.8 0.72,-1.6 1.08,-2.4 z"
       id="p65" />
    <path
       d="m 23.47,45.91 c -0.07,4.09 -2.83,7.72 -2.39,12.05 0.83,-0.99 1.58,-2.02 2.32,-3.07 0.02,1.35 -0.04,2.69 -0.05,4.04 2.76,-3.13 5.33,-6.4 7.6,-9.91 l 0.2,2.07 c -3.83,5.9 -7.53,11.87 -11.06,17.95 -3.07,6.14 -4.79,13.2 -6.58,19.91 -0.32,1.27 -0.6,2.54 -0.88,3.82 -0.82,2.66 -0.69,5.33 -0.39,8.06 -0.21,1 -0.42,2.01 -0.64,3.01 -1.75,8.43 1.24,18.11 3.13,26.39 0.26,1.02 0.64,1.99 1.12,2.89 0.34,0.65 0.69,1.28 1.07,1.9 -0.31,4.49 1.34,6.79 4.03,10.07 3.08,5.43 6.98,10.36 10.12,15.78 -0.28,3.75 2.5,4.92 4.66,7.4 2.39,2.25 4.05,4.66 7.2,5.88 6.44,5.81 13.55,9.64 21.15,13.66 1.19,1.93 3.03,2.76 4.82,3.98 -1.71,-0.06 -3.39,-0.24 -5.1,-0.09 -5.79,-2.28 -11.01,-6.04 -16.36,-9.19 -3.65,-3.1 -8.28,-4.86 -11.62,-8.25 -1.5,-2.86 -3.22,-4.59 -6.09,-6.08 -1.03,-1.26 -1.97,-2.59 -2.9,-3.93 0.49,-1.43 1.55,-2.05 0.35,-3.46 -2.43,-3.05 -3.79,-7.62 -7.09,-9.73 0.43,1.84 2.04,3.45 1.08,5.28 -1.85,-2.33 -3.49,-4.8 -5.21,-7.22 -0.43,-3.99 -2.32,-7.87 -4.28,-11.31 -1.62,-3.85 -2.76,-7.87 -4.27,-11.76 -0.38,1.73 -0.72,3.47 -1.21,5.18 l -0.47,-1.96 c 0.44,-5.45 0.26,-10.82 0.23,-16.27 0.06,-1.27 0.13,-2.54 0.22,-3.81 1.95,-2.67 1.96,-4.74 1.77,-7.95 l 0.59,-1.28 c 0.45,1.25 0.06,4.38 1.34,4.95 0.5,-5.6 -0.56,-11.69 0.84,-17.06 2.02,-7.4 1.23,-14.39 1.08,-22.03 0.36,-0.92 0.75,-1.83 1.18,-2.73 1.52,-1.17 2.65,-1.97 2.99,-4 1.24,-5 4.64,-8.85 7.5,-13.18 z"
       id="p66" />
    <path
       d="m 29.6,46.27 c 0.45,0.61 0.9,1.23 1.33,1.85 l 0.02,0.9 c -2.27,3.51 -4.84,6.78 -7.6,9.91 0.01,-1.35 0.07,-2.69 0.05,-4.04 1.59,-2.96 3.13,-6.95 6.2,-8.62 z"
       id="p67" />
    <path
       d="m 162.14,46.9 1.64,0.41 c 1.09,2.36 3.62,4.21 2.17,6.91 -1.75,-1.93 -3.34,-4 -4.95,-6.05 z"
       id="p68" />
    <path
       d="m 163.78,47.31 c 3.38,0.79 4.47,6.01 7.44,7.95 3.23,5.07 3.35,11.36 6.56,16.61 -0.37,0.76 -0.74,1.52 -1.11,2.28 -1.25,-3.5 -2.9,-6.83 -4.77,-10.04 0.12,-3.7 0.14,-4.16 -3.03,-6.05 -0.97,-1.28 -1.93,-2.57 -2.92,-3.84 1.45,-2.7 -1.08,-4.55 -2.17,-6.91 z"
       id="p69" />
    <path
       d="m 16.91,48.04 c -0.03,2.18 -0.74,4.16 -1.54,6.16 l -1.56,-1.53 c 0.86,-1.66 1.87,-3.22 3.1,-4.63 z"
       id="p70" />
    <path
       d="m 173.5,50.91 1.47,0.98 c 3.46,4.99 6.49,10.24 9.87,15.27 0.37,1.4 0.84,2.74 1.4,4.08 0.49,1.32 1,2.63 1.54,3.93 l 0.49,1.65 c -0.16,1.75 -0.33,3.5 -0.46,5.26 -0.71,-2.52 -1.12,-5 -2.36,-7.34 -0.97,-3.91 -1.84,-7.48 -4.71,-10.49 -0.87,-1.11 -1.69,-0.7 -2.92,-0.72 -2.18,-4.17 -4.49,-7.69 -4.32,-12.62 z"
       id="p71" />
    <path
       d="m 174.97,51.89 c 3.36,1 4.97,3.58 6.96,6.23 0.35,0.91 0.73,1.81 1.13,2.7 0.95,2.09 1.8,3.98 1.78,6.34 -3.38,-5.03 -6.41,-10.28 -9.87,-15.27 z"
       id="p72" />
    <path
       d="m 13.81,52.67 1.56,1.53 c -0.47,1.29 -1.03,2.55 -1.6,3.8 -0.86,1.62 -0.63,3.28 -0.79,5.09 -0.43,0.9 -0.82,1.81 -1.18,2.73 -0.76,2 -1,4.22 -1.5,6.3 -0.99,-5.52 0.15,-10.07 1.48,-15.34 l 0.34,-1.74 c 0.57,-0.78 1.14,-1.57 1.69,-2.37 z"
       id="p73" />
    <path
       d="m 12.12,55.04 -0.34,1.74 C 7.4,60.77 9.25,66.77 9.26,72.04 8.92,73.09 8.56,74.14 8.18,75.17 8.3,69.08 6.77,61.26 9.69,55.73 c 0.8,-0.27 1.61,-0.5 2.43,-0.69 z"
       id="p74" />
    <path
       d="M 11.78,56.78 C 10.45,62.05 9.31,66.6 10.3,72.12 L 9.26,72.04 C 9.25,66.77 7.4,60.77 11.78,56.78 Z"
       id="p75" />
    <path
       d="m 13.77,58 c 0.46,2.34 0.34,1.54 2.2,1.09 -0.34,2.03 -1.47,2.83 -2.99,4 0.16,-1.81 -0.07,-3.47 0.79,-5.09 z"
       id="p76" />
    <path
       d="m 168.87,58.06 c 3.17,1.89 3.15,2.35 3.03,6.05 -1.32,-1.91 -2.27,-3.86 -3.03,-6.05 z"
       id="p77" />
    <path
       d="m 184.74,60.47 c 0.74,2.18 1.29,4.45 1.97,6.65 0.12,1.48 -0.04,2.71 -0.47,4.12 -0.56,-1.34 -1.03,-2.68 -1.4,-4.08 0.02,-2.36 -0.83,-4.25 -1.78,-6.34 0.55,-0.13 1.11,-0.25 1.68,-0.35 z"
       id="p78" />
    <path
       d="m 180.74,64.25 c 2.87,3.01 3.74,6.58 4.71,10.49 1.24,2.34 1.65,4.82 2.36,7.34 l 0.21,0.74 -0.27,0.91 c -2.55,6.51 2.65,11.67 -1.39,18.27 -0.24,-3.49 -1.07,-6.58 -2.01,-9.92 2.42,-2.72 0.84,-4.8 0.38,-7.95 -0.5,0.9 -0.96,1.83 -1.46,2.73 -0.75,-3.59 -1.36,-7.22 -2.2,-10.8 0.61,0.24 1.24,0.47 1.86,0.68 -0.31,-2.5 -0.78,-4.98 -1.15,-7.47 -1.12,-0.3 -0.73,2.91 -1.09,3.63 -1.62,-2.6 -3.35,-5.17 -4.71,-7.91 0.59,-0.51 1.21,-1 1.84,-1.46 1.23,0.02 2.05,-0.39 2.92,0.72 z"
       id="p79" />
    <path
       d="m 156.33,65.12 c 5.88,5.3 10.38,12.26 16.01,17.89 -0.89,1.82 -2.12,3.4 -3.34,4.99 -2.2,-0.33 -2.69,-1.31 -4.06,0.95 l -1.08,1.33 c -1.16,-1.37 -2.17,-2.85 -3.13,-4.37 1.75,-1.97 4.09,-2.06 2.38,-5.1 l -0.31,-0.92 c -0.42,-1.29 -0.85,-2.58 -1.39,-3.83 -1.33,-3.3 -3.52,-6.38 -5.49,-9.35 z"
       id="p80" />
    <path
       d="m 187.8,64.97 c 0.36,3.41 0.21,6.8 -0.02,10.2 -0.54,-1.3 -1.05,-2.61 -1.54,-3.93 0.43,-1.41 0.59,-2.64 0.47,-4.12 0.34,-0.73 0.7,-1.44 1.09,-2.15 z"
       id="p81" />
    <path
       d="m 11.8,65.82 c 0.15,7.64 0.94,14.63 -1.08,22.03 -1.4,5.37 -0.34,11.46 -0.84,17.06 C 8.6,104.34 8.99,101.21 8.54,99.96 6.3,90.8 13.23,81.65 10.3,72.12 c 0.5,-2.08 0.74,-4.3 1.5,-6.3 z"
       id="p82" />
    <path
       d="m 155.92,66.71 c 1.97,2.97 4.16,6.05 5.49,9.35 -2.07,1.53 -3.95,-2.04 -5.31,-3.2 -0.42,-2.2 -1.09,-3.95 -0.18,-6.15 z"
       id="p83" />
    <path
       d="m 76.06,68.12 c 0.78,0.53 1.52,1.13 2.2,1.8 l -1.62,1.21 c -2.6,0.76 -4.99,0.9 -7.69,0.77 2.26,-1.45 4.71,-2.59 7.11,-3.78 z"
       id="p84" />
    <path
       d="m 99.17,69.62 c -0.84,0.4 -1.69,0.8 -2.52,1.21 -1.94,-0.29 -3.8,-0.03 -5.73,0.19 -2.37,0 -4.76,-0.01 -7.14,-0.08 1.39,-0.56 2.8,-1.07 4.18,-1.65 4.2,-0.71 7.3,-2.41 11.21,0.33 z"
       id="p85" />
    <path
       d="m 82.93,69.07 c -0.72,1.31 -1.04,1.92 0.85,1.87 2.38,0.07 4.77,0.08 7.14,0.08 0.39,0.63 0.78,1.25 1.17,1.87 -5.38,0.25 -10.41,0.54 -15.45,-1.76 l 1.62,-1.21 c 1.57,-0.23 3.11,-0.56 4.67,-0.85 z"
       id="p86" />
    <path
       d="m 82.93,69.07 c 1.74,-0.43 3.31,-0.06 5.03,0.22 -1.38,0.58 -2.79,1.09 -4.18,1.65 -1.89,0.05 -1.57,-0.56 -0.85,-1.87 z"
       id="p87" />
    <path
       d="m 96.65,70.83 c 1.45,1.13 2.91,2.25 4.4,3.32 l -1.16,1.04 c -2.66,-1.94 -4.52,-2.32 -7.8,-2.3 -0.39,-0.62 -0.78,-1.24 -1.17,-1.87 1.93,-0.22 3.79,-0.48 5.73,-0.19 z"
       id="p88" />
    <path
       d="m 99.17,69.62 c 5.21,2.41 10.2,4.97 14.82,8.41 4.65,3.53 10.7,2.89 16.19,3.16 -1.49,0.58 -2.98,1.15 -4.46,1.76 -2.31,-0.16 -4.59,-0.54 -6.9,-0.73 -4.71,-1.91 -9.05,-4.57 -13.71,-6.55 -1.33,-0.56 -2.71,-1.03 -4.06,-1.52 -1.49,-1.07 -2.95,-2.19 -4.4,-3.32 0.83,-0.41 1.68,-0.81 2.52,-1.21 z"
       id="p89" />
    <path
       d="m 76.64,71.13 c 5.04,2.3 10.07,2.01 15.45,1.76 3.28,-0.02 5.14,0.36 7.8,2.3 0.84,0.7 1.69,1.39 2.57,2.06 L 102.97,78 C 99.94,77.37 97.01,76.95 93.89,76.98 89.88,75.6 85.37,75.63 81.21,74.7 76.77,73.66 72.29,72.95 67.75,72.64 l 1.2,-0.74 c 2.7,0.13 5.09,-0.01 7.69,-0.77 z"
       id="p90" />
    <path
       d="m 9.26,72.04 1.04,0.08 c 2.93,9.53 -4,18.68 -1.76,27.84 l -0.59,1.28 C 7.32,100.12 6.72,98.99 6.11,97.85 5.98,93.83 6.06,89.81 5.74,85.79 6.42,82.24 7.02,78.59 8.18,75.17 8.56,74.14 8.92,73.09 9.26,72.04 Z"
       id="p91" />
    <path
       d="m 177.78,71.87 c 1.09,1.41 2.22,2.77 3.29,4.19 0.84,3.58 1.45,7.21 2.2,10.8 0.5,-0.9 0.96,-1.83 1.46,-2.73 0.46,3.15 2.04,5.23 -0.38,7.95 0.94,3.34 1.77,6.43 2.01,9.92 4.04,-6.6 -1.16,-11.76 1.39,-18.27 0.25,4.4 1.29,8.66 1.56,13.06 -0.68,6.68 -0.03,13.33 -0.43,19.98 l -1.41,0.78 c -2.26,5.75 -2,12.07 -4.38,17.71 -1.52,-2.86 0.3,-6.24 0.62,-9.39 0.31,-7 2.42,-12.99 0.58,-20.01 -1.1,-4.07 1.24,-10.13 -2.03,-13.1 -0.35,-0.64 -0.71,-1.28 -1.06,-1.91 -0.06,-0.94 -0.11,-1.87 -0.17,-2.81 0.05,-3.4 -1.05,-6.39 -2.9,-9.2 -0.51,-1.56 -1,-3.12 -1.46,-4.69 0.37,-0.76 0.74,-1.52 1.11,-2.28 z"
       id="p92" />
    <path
       d="m 67.75,72.64 c 4.54,0.31 9.02,1.02 13.46,2.06 -4.25,0.7 -8.03,0.06 -12.18,-0.68 -1.86,-0.42 -2.16,1.86 -2.97,3 l -0.28,-1.13 c 0.44,-1.55 0.28,-2.55 1.97,-3.25 z"
       id="p93" />
    <path
       d="m 156.1,72.86 c 1.36,1.16 3.24,4.73 5.31,3.2 0.54,1.25 0.97,2.54 1.39,3.83 -2.52,0.01 -4.94,3.16 -7.18,2.18 l 0.33,-1.93 c 0.69,0.19 1.39,0.38 2.09,0.55 -0.22,-2.12 -1.01,-3.95 -1.75,-5.92 z"
       id="p94" />
    <path
       d="m 69.03,74.02 c 4.15,0.74 7.93,1.38 12.18,0.68 4.16,0.93 8.67,0.9 12.68,2.28 2.56,2.92 7.56,2.8 10.81,5.04 -0.46,0.64 -0.91,1.27 -1.36,1.91 3.29,1.33 6.02,3.78 9.52,4.34 1.56,0.34 2.94,1.64 4.35,2.39 2.2,0.48 4.21,0.35 6,1.94 -0.98,0.18 -1.96,0.37 -2.93,0.58 0.46,0.92 0.98,1.81 1.45,2.73 -4.06,-0.96 -7.67,-2.37 -11.94,-1.67 -3.32,-0.89 -6.37,-2.18 -9.86,-2.24 -1.96,-1.03 -3.7,-1.09 -5.88,-0.89 1.82,2.61 4.2,4.86 6.8,6.68 l 1.25,1.28 c -0.72,0.77 -1.46,1.53 -2.21,2.28 -1.13,-1.11 -2.15,-2.29 -3.11,-3.55 -0.85,-1.2 -1.02,-1.7 -2.64,-1.7 -0.47,2.08 0.62,3.23 1.71,4.8 3.94,5.87 6.13,12.49 9.63,18.54 0.34,0.74 0.5,1.56 0.49,2.45 -1.42,-0.89 -2.67,-1.95 -3.96,-3.01 -1.98,-4.87 -6.01,-8.68 -8.58,-13.3 -0.96,-1.01 -1.03,-2.73 -2.71,-1.76 -2.69,-4.38 -2.73,-7.76 -2.21,-12.7 -1.19,0.22 -2.36,0.54 -3.53,0.84 0.41,-0.59 0.83,-1.17 1.25,-1.75 l 0.88,-1.19 c 0.89,-1.31 0.86,-3.15 1.24,-4.71 1.21,0.09 2.4,0.31 3.6,0.42 -0.07,-1.97 -2.46,-2.05 -3.86,-2.86 -1.99,-0.82 -4.21,-1.08 -6.28,-1.65 3.41,-0.19 6.84,-0.14 10.23,-0.5 -1.86,-0.96 -3.68,-1.55 -5.79,-1.54 l -1.99,-0.45 c -3.71,-0.87 -9.9,-1.59 -13.27,0.14 -1.35,0.66 -1.06,1.05 0.88,1.19 l -0.05,0.8 c -0.06,0.65 -0.1,1.3 -0.12,1.95 -2.86,0.08 -0.2,4.71 -0.37,6.38 -4.33,2.48 -5.92,-1.62 -8.57,-4.17 l 0.32,-0.82 c 2.54,-2.1 3.03,-2.74 2.98,-6.18 0.81,-1.14 1.11,-3.42 2.97,-3 z"
       id="p95" />
    <path
       d="m 101.05,74.15 c 1.35,0.49 2.73,0.96 4.06,1.52 -0.89,0.5 -1.78,1.03 -2.65,1.58 -0.88,-0.67 -1.73,-1.36 -2.57,-2.06 z"
       id="p96" />
    <path
       d="m 156.29,74.77 c 0.74,1.97 1.53,3.8 1.75,5.92 -0.7,-0.17 -1.4,-0.36 -2.09,-0.55 0.1,-1.79 0.21,-3.58 0.34,-5.37 z"
       id="p97" />
    <path
       d="m 65.78,75.89 0.28,1.13 c 0.05,3.44 -0.44,4.08 -2.98,6.18 l 0.24,-1.79 c 1.23,-1.68 1.82,-3.57 2.46,-5.52 z"
       id="p98" />
    <path
       d="m 105.11,75.67 c 4.66,1.98 9,4.64 13.71,6.55 2.37,1.39 4.82,2.54 7.36,3.58 l -1.35,1.14 c -1.26,-0.33 -2.51,-0.7 -3.76,-1.09 -5.78,-3.08 -11.91,-5.68 -18.1,-7.85 l -0.51,-0.75 c 0.87,-0.55 1.76,-1.08 2.65,-1.58 z"
       id="p99" />
    <path
       d="m 84.26,77.73 c -4.42,0.39 -8.84,0.31 -13.27,0.14 3.37,-1.73 9.56,-1.01 13.27,-0.14 z"
       id="p100" />
    <path
       d="m 93.89,76.98 c 3.12,-0.03 6.05,0.39 9.08,1.02 6.19,2.17 12.32,4.77 18.1,7.85 -0.1,4.5 6.34,5.24 9.4,4.13 2.29,0.02 4.34,0.42 6.51,1.09 -0.25,0.64 -0.5,1.27 -0.72,1.92 2.58,0.21 4.75,-0.69 6.94,-1.95 1.23,-0.66 2.44,-1.35 3.66,-2.03 1.65,-0.48 3.15,-1.15 4.65,-1.98 l 1.72,-0.35 c 0.4,1.57 -1.4,2.97 -2.05,4.34 1.92,-0.04 3.38,-0.96 5.01,-1.85 -0.77,1.53 -1.54,3.01 -2.58,4.37 -2.32,0.6 -4.34,0.5 -6.11,2.36 -4.19,-0.11 -8.31,-0.87 -12.52,-0.91 -4.06,-0.01 -7.71,-2.02 -11.77,-2.39 -1.79,-1.59 -3.8,-1.46 -6,-1.94 -1.41,-0.75 -2.79,-2.05 -4.35,-2.39 -3.5,-0.56 -6.23,-3.01 -9.52,-4.34 0.45,-0.64 0.9,-1.27 1.36,-1.91 -3.25,-2.24 -8.25,-2.12 -10.81,-5.04 z"
       id="p101" />
    <path
       d="m 188.27,76.82 c 3.37,8.13 4.99,17.27 6.05,25.97 -0.43,3.88 -0.44,7.54 0,11.42 -1.93,14.96 -6.38,29.99 -14.12,43 -3.48,5.17 -7.14,11.15 -12.18,14.88 0.6,-2.63 2,-4.75 3.44,-6.98 4.01,-5.69 8.15,-11.14 11.24,-17.42 3.25,-6.07 4.39,-12.6 6.57,-19.46 3.3,-10.04 3.29,-21.2 2.21,-31.6 -0.78,-4.69 -1.5,-9.41 -3.46,-13.81 l -0.21,-0.74 c 0.13,-1.76 0.3,-3.51 0.46,-5.26 z"
       id="p102" />
    <path
       d="m 70.99,77.87 c 4.43,0.17 8.85,0.25 13.27,-0.14 l 1.99,0.45 c -4.43,1.58 -9.72,0.53 -14.38,0.88 -1.94,-0.14 -2.23,-0.53 -0.88,-1.19 z"
       id="p103" />
    <path
       d="m 86.25,78.18 c 2.11,-0.01 3.93,0.58 5.79,1.54 -3.39,0.36 -6.82,0.31 -10.23,0.5 -3.33,-0.25 -6.65,-0.24 -9.99,-0.36 l 0.05,-0.8 c 4.66,-0.35 9.95,0.7 14.38,-0.88 z"
       id="p104" />
    <path
       d="m 178.13,78.84 c 1.85,2.81 2.95,5.8 2.9,9.2 l -0.91,-0.09 c -0.95,-2.98 -1.75,-5.98 -1.99,-9.11 z"
       id="p105" />
    <path
       d="m 71.82,79.86 c 3.34,0.12 6.66,0.11 9.99,0.36 2.07,0.57 4.29,0.83 6.28,1.65 -2.68,0.07 -5.35,0.12 -8.02,0.15 C 78.68,82.01 77.29,82 75.9,82 c -1.4,-0.05 -2.8,-0.11 -4.2,-0.19 0.02,-0.65 0.06,-1.3 0.12,-1.95 z"
       id="p106" />
    <path
       d="m 135.77,80.01 c -0.51,1.4 -1.11,2.74 -1.69,4.11 -2.71,-1.56 -5.37,-1.05 -8.36,-1.17 1.48,-0.61 2.97,-1.18 4.46,-1.76 1.87,-0.44 3.68,-0.94 5.59,-1.18 z"
       id="p107" />
    <path
       d="m 162.8,79.89 0.31,0.92 c -2.82,2.22 -6.01,3.73 -9.28,5.15 -0.88,-2.24 0.41,-2.46 1.79,-3.89 2.24,0.98 4.66,-2.17 7.18,-2.18 z"
       id="p108" />
    <path
       d="m 63.32,81.41 -0.24,1.79 c -3.23,1.05 -8.31,-0.17 -10.38,2.71 -0.96,-1.14 -0.66,-2.33 -0.57,-3.7 3.75,-0.35 7.46,-0.03 11.19,-0.8 z"
       id="p109" />
    <path
       d="m 163.11,80.81 c 1.71,3.04 -0.63,3.13 -2.38,5.1 -1.57,1.02 -3.1,2.07 -4.54,3.26 -1.63,0.89 -3.09,1.81 -5.01,1.85 0.65,-1.37 2.45,-2.77 2.05,-4.34 l 0.6,-0.72 c 3.27,-1.42 6.46,-2.93 9.28,-5.15 z"
       id="p110" />
    <path
       d="m 71.7,81.81 c 1.4,0.08 2.8,0.14 4.2,0.19 -0.9,2.05 -1,3.78 -0.76,6 3.12,-1.7 0.24,-5.12 4.75,-5.16 1.03,0.05 2.07,0.1 3.11,0.15 0.01,1.98 0.01,3.97 0.02,5.95 -2.06,0.13 -4.12,0.17 -6.18,0.23 -1.85,-0.28 -3.68,-0.63 -5.51,-0.98 0.17,-1.67 -2.49,-6.3 0.37,-6.38 z"
       id="p111" />
    <path
       d="m 75.9,82 c 1.39,0 2.78,0.01 4.17,0.02 l -0.18,0.82 C 75.38,82.88 78.26,86.3 75.14,88 74.9,85.78 75,84.05 75.9,82 Z"
       id="p112" />
    <path
       d="m 80.07,82.02 c 2.67,-0.03 5.34,-0.08 8.02,-0.15 1.4,0.81 3.79,0.89 3.86,2.86 -1.2,-0.11 -2.39,-0.33 -3.6,-0.42 -0.38,1.56 -0.35,3.4 -1.24,4.71 l -0.02,-0.85 c -0.03,-1.64 -0.07,-3.33 -0.3,-4.96 -1.25,-0.13 -2.52,-0.2 -3.79,-0.22 -1.04,-0.05 -2.08,-0.1 -3.11,-0.15 z"
       id="p113" />
    <path
       d="m 118.82,82.22 c 2.31,0.19 4.59,0.57 6.9,0.73 1.56,0.96 2.96,1.14 3.38,3.17 l -1.18,0.16 -1.74,-0.48 c -2.54,-1.04 -4.99,-2.19 -7.36,-3.58 z"
       id="p114" />
    <path
       d="m 63.08,83.2 -0.32,0.82 c -3.31,3.81 -6.18,-1.41 -9.24,3.09 l -0.82,-1.2 c 2.07,-2.88 7.15,-1.66 10.38,-2.71 z"
       id="p115" />
    <path
       d="m 83,82.99 c 1.27,0.02 2.54,0.09 3.79,0.22 0.23,1.63 0.27,3.32 0.3,4.96 -1.34,0.39 -2.67,0.71 -4.07,0.77 C 83.01,86.96 83.01,84.97 83,82.99 Z"
       id="p116" />
    <path
       d="m 125.72,82.95 c 2.99,0.12 5.65,-0.39 8.36,1.17 l -0.22,1 c -1.56,0.54 -3.12,0.84 -4.76,1 -0.42,-2.03 -1.82,-2.21 -3.38,-3.17 z"
       id="p117" />
    <path
       d="m 172.34,83.01 c 1.44,1.54 -0.02,4.09 -0.38,5.86 -0.69,1.02 -1.37,2.05 -2.03,3.09 -2.5,-0.03 -4.34,1.43 -6.04,-0.98 l -0.03,-0.7 1.08,-1.33 c 0.62,0.62 1.25,1.23 1.9,1.81 0.77,-0.87 1.47,-1.81 2.16,-2.76 1.22,-1.59 2.45,-3.17 3.34,-4.99 z"
       id="p118" />
    <path
       d="m 188.02,82.82 c 1.96,4.4 2.68,9.12 3.46,13.81 1.08,10.4 1.09,21.56 -2.21,31.6 -0.85,-4.92 1.12,-9.32 0.76,-14.23 -0.33,-5.65 0.68,-11.73 -0.72,-17.21 -0.27,-4.4 -1.31,-8.66 -1.56,-13.06 z"
       id="p119" />
    <path
       d="m 62.76,84.02 c 2.65,2.55 4.24,6.65 8.57,4.17 1.83,0.35 3.66,0.7 5.51,0.98 l 1.13,0.95 c 0.75,1.38 1.57,2.27 1.28,3.94 -1.88,-0.03 -3.62,0.08 -5.38,-0.69 l 2.05,-0.66 c -2.26,-1.51 -4.24,-3.01 -7.1,-2.25 -1.61,-0.07 -3.15,0.16 -4.72,0.46 -1.33,-4.48 -6.61,-5.83 -9.1,-1.63 -0.5,-0.72 -0.99,-1.45 -1.48,-2.18 3.06,-4.5 5.93,0.72 9.24,-3.09 z"
       id="p120" />
    <path
       d="m 133.86,85.12 c 1.1,0.76 2.21,1.49 3.33,2.2 -2.92,1.2 -6.31,-0.34 -9.27,-1.04 l 1.18,-0.16 c 1.64,-0.16 3.2,-0.46 4.76,-1 z"
       id="p121" />
    <path
       d="m 5.74,85.79 c 0.32,4.02 0.24,8.04 0.37,12.06 -0.13,3.79 -0.15,7.56 0.07,11.34 -0.09,1.27 -0.16,2.54 -0.22,3.81 L 5.04,112.98 C 4.94,112.05 4.83,111.13 4.71,110.21 5.22,102.79 5.07,95.27 4.8,87.84 5.11,87.15 5.42,86.47 5.74,85.79 Z"
       id="p122" />
    <path
       d="m 121.07,85.85 c 1.25,0.39 2.5,0.76 3.76,1.09 2.07,0.78 4,1.49 5.64,3.04 -3.06,1.11 -9.5,0.37 -9.4,-4.13 z"
       id="p123" />
    <path
       d="m 126.18,85.8 1.74,0.48 c 2.96,0.7 6.35,2.24 9.27,1.04 2.56,0.91 2.32,0.39 1.66,2.89 -0.62,0.3 -1.24,0.59 -1.87,0.86 -2.17,-0.67 -4.22,-1.07 -6.51,-1.09 -1.64,-1.55 -3.57,-2.26 -5.64,-3.04 z"
       id="p124" />
    <path
       d="m 151.51,87.03 c -1.5,0.83 -3,1.5 -4.65,1.98 0.69,-2.16 2.59,-3.64 4.65,-1.98 z"
       id="p125" />
    <path
       d="m 160.73,85.91 c 0.96,1.52 1.97,3 3.13,4.37 l 0.03,0.7 -0.86,1.09 c -0.67,-0.73 -1.38,-1.44 -2.1,-2.13 -1.13,0.78 -2.08,1.73 -3.01,2.73 -0.71,0.74 -1.41,1.49 -2.1,2.26 -2.5,1.69 -4.74,3.16 -7.83,3.51 -0.19,-0.84 -0.35,-1.68 -0.49,-2.54 1.77,-1.86 3.79,-1.76 6.11,-2.36 1.04,-1.36 1.81,-2.84 2.58,-4.37 1.44,-1.19 2.97,-2.24 4.54,-3.26 z"
       id="p126" />
    <path
       d="m 51.38,87.08 c 1.24,1.11 1.96,2.52 2.76,3.95 -1.96,2.69 1.35,1.93 3.02,2.99 -1.62,1.47 -2.99,3.14 -4.45,4.76 -2.53,1.12 -2.46,1.57 -2.83,4.25 -0.51,1.34 -1.01,2.68 -1.63,3.99 -0.3,-3.56 -0.58,-7.33 0.01,-10.87 1.39,-2.93 2.24,-5.96 3.12,-9.07 z"
       id="p127" />
    <path
       d="m 64.1,90.92 c 1.13,1.91 0.3,3.64 2.64,1.5 0.3,3.45 1.56,3.78 4.13,5.55 -1.43,4.21 -1.09,9.1 -0.28,13.41 0.44,1.5 0.09,2.53 -0.45,3.94 -1.01,-2.8 -1.5,-5.7 -2.33,-8.56 -0.52,-2.45 -1.71,-4.86 -2.69,-7.16 -0.32,-1.55 -0.76,-2.56 -1.8,-3.76 -1.17,-0.92 -3.08,-7.11 -4.43,-3.86 -0.36,0.49 -0.7,0.99 -1.03,1.5 l -0.7,0.54 c -1.67,-1.06 -4.98,-0.3 -3.02,-2.99 0.29,-0.58 0.58,-1.16 0.86,-1.74 2.49,-4.2 7.77,-2.85 9.1,1.63 z"
       id="p128" />
    <path
       d="m 169,88 c -0.69,0.95 -1.39,1.89 -2.16,2.76 -0.65,-0.58 -1.28,-1.19 -1.9,-1.81 1.37,-2.26 1.86,-1.28 4.06,-0.95 z"
       id="p129" />
    <path
       d="M 4.8,87.84 C 5.07,95.27 5.22,102.79 4.71,110.21 3.45,106.1 4.16,101.3 3.98,97 4.13,94.1 3.46,90.48 4.8,87.84 Z"
       id="p130" />
    <path
       d="m 87.09,88.17 0.02,0.85 -0.88,1.19 c -2.76,-0.19 -5.5,-0.19 -8.26,-0.09 l -1.13,-0.95 c 2.06,-0.06 4.12,-0.1 6.18,-0.23 1.4,-0.06 2.73,-0.38 4.07,-0.77 z"
       id="p131" />
    <path
       d="m 180.12,87.95 0.91,0.09 c 0.06,0.94 0.11,1.87 0.17,2.81 -0.1,4.16 -1.12,8.07 -0.38,12.23 -3.9,-4.7 -0.37,-9.6 -0.7,-15.13 z"
       id="p132" />
    <path
       d="m 13.51,88.95 c 0.74,1.44 2.58,1.47 2.43,3.06 0.17,5.35 0.15,10.86 -0.19,16.2 -1.29,-3.74 -0.52,-8.17 -0.89,-12.14 -0.57,0.93 -1.09,1.9 -1.66,2.83 -0.21,-2.04 -0.37,-4.08 -0.57,-6.13 0.28,-1.28 0.56,-2.55 0.88,-3.82 z"
       id="p133" />
    <path
       d="m 171.96,88.87 c 0.53,4.49 -2.88,7.43 -5.67,10.43 -2.06,2.16 -4.15,3.72 -7.28,3.71 -7.11,1.21 -14.02,1.28 -21.2,0.69 1.64,-0.4 3.3,-0.7 4.97,-0.99 4.95,0.92 9.34,-0.78 14.24,-0.74 3.04,0.3 4.7,-2.29 7.07,-3.84 1.98,-1.57 4.09,-2.39 5.11,-4.86 l 0.73,-1.31 c 0.66,-1.04 1.34,-2.07 2.03,-3.09 z"
       id="p134" />
    <path
       d="m 68.82,90.46 c 1.61,1.13 3.2,2.21 5.05,2.91 1.76,0.77 3.5,0.66 5.38,0.69 2.53,0.21 3.81,-0.67 5.73,-2.1 1.17,-0.3 2.34,-0.62 3.53,-0.84 -0.52,4.94 -0.48,8.32 2.21,12.7 2.18,4.34 3.48,8.97 5.84,13.21 1.94,4.85 5.67,9.56 6.48,14.71 -0.72,-0.24 -1.43,-0.49 -2.14,-0.76 -1.64,-2.94 -3.86,-5.37 -5.86,-8.04 -1.56,-3.61 -4.7,-6.26 -6.31,-9.95 0.38,-1.55 1.22,-2.78 2.03,-4.13 -1.21,-3.03 -3.24,-5.87 -5.02,-8.6 -0.93,-0.99 -1.96,-3.24 -3.47,-3.2 0.55,3.36 0.56,6.85 1.37,10.15 0.42,1.74 1.16,3.33 1.98,4.91 2.03,3.93 3.66,7.76 4.96,12 0.53,1.71 1.18,3.35 1.95,4.97 0.76,1.67 1.55,3.37 2.48,4.95 -0.51,1.87 1.32,6.12 -1.99,4.04 -1.06,-0.97 -2.15,-1.92 -3.2,-2.91 l -0.78,-1.1 c 2,-4.43 -1.84,-11.14 -3.88,-15.17 -2.25,-3.85 -4.21,-7.89 -6.1,-11.93 -0.82,-3.02 -1.19,-8.11 -3.94,-9.97 -0.19,2.37 0.3,4.61 0.63,6.94 -2.86,0.04 -2.1,-4.98 -4.88,-5.97 -2.57,-1.77 -3.83,-2.1 -4.13,-5.55 -2.34,2.14 -1.51,0.41 -2.64,-1.5 1.57,-0.3 3.11,-0.53 4.72,-0.46 z"
       id="p135" />
    <path
       d="m 75.92,92.71 -2.05,0.66 c -1.85,-0.7 -3.44,-1.78 -5.05,-2.91 2.86,-0.76 4.84,0.74 7.1,2.25 z"
       id="p136" />
    <path
       d="m 77.97,90.12 c 2.76,-0.1 5.5,-0.1 8.26,0.09 -0.42,0.58 -0.84,1.16 -1.25,1.75 -1.92,1.43 -3.2,2.31 -5.73,2.1 0.29,-1.67 -0.53,-2.56 -1.28,-3.94 z"
       id="p137" />
    <path
       d="m 138.85,90.21 c 1.55,-0.01 2.9,0.34 4.35,0.83 -2.19,1.26 -4.36,2.16 -6.94,1.95 0.22,-0.65 0.47,-1.28 0.72,-1.92 0.63,-0.27 1.25,-0.56 1.87,-0.86 z"
       id="p138" />
    <path
       d="m 160.93,89.94 c 0.72,0.69 1.43,1.4 2.1,2.13 -0.67,0.89 -1.35,1.77 -2.13,2.57 -1.01,-0.63 -1.98,-1.33 -2.98,-1.97 0.93,-1 1.88,-1.95 3.01,-2.73 z"
       id="p139" />
    <path
       d="m 63.32,95.84 -1.43,1.05 c -1.05,-1.6 -2.07,-3.23 -3,-4.91 1.35,-3.25 3.26,2.94 4.43,3.86 z"
       id="p140" />
    <path
       d="m 94.05,91.11 c 2.18,-0.2 3.92,-0.14 5.88,0.89 2.31,1.62 4.87,2.52 7.35,3.82 -2.1,0.8 -4.28,1.33 -6.43,1.97 -2.6,-1.82 -4.98,-4.07 -6.8,-6.68 z"
       id="p141" />
    <path
       d="m 163.89,90.98 c 1.7,2.41 3.54,0.95 6.04,0.98 l -0.73,1.31 c -2.36,1.39 -5.67,1.44 -7.16,3.72 l -1.06,1.09 c -1.62,-0.43 -3.23,-0.89 -4.86,-1.28 l -0.3,-1.87 c 0.69,-0.77 1.39,-1.52 2.1,-2.26 1,0.64 1.97,1.34 2.98,1.97 0.78,-0.8 1.46,-1.68 2.13,-2.57 z"
       id="p142" />
    <path
       d="m 181.2,90.85 c 0.35,0.63 0.71,1.27 1.06,1.91 -0.64,4.24 0,8.12 0.66,12.27 l -0.88,-0.02 c -0.41,-0.64 -0.81,-1.29 -1.22,-1.93 -0.74,-4.16 0.28,-8.07 0.38,-12.23 z"
       id="p143" />
    <path
       d="m 58.89,91.98 c 0.93,1.68 1.95,3.31 3,4.91 -3.22,1.03 -4.19,5.59 -1.88,8.11 -0.96,0.9 -1.87,1.84 -2.82,2.74 -0.23,-1.24 -0.42,-2.49 -0.62,-3.73 -0.15,-1.57 -0.38,-3.13 -0.51,-4.71 0.59,0.45 1.18,0.9 1.77,1.34 0.6,-2.64 2.03,-4.7 0.03,-7.16 0.33,-0.51 0.67,-1.01 1.03,-1.5 z"
       id="p144" />
    <path
       d="m 99.93,92 c 3.49,0.06 6.54,1.35 9.86,2.24 3.87,1.52 7.89,3.06 11.98,3.85 l 0.23,0.9 -2.07,0.05 c -2.34,-0.42 -4.66,-0.87 -7.04,-1.03 -1.85,-0.8 -3.72,-1.49 -5.61,-2.19 -2.48,-1.3 -5.04,-2.2 -7.35,-3.82 z"
       id="p145" />
    <path
       d="m 12.63,92.77 c 0.2,2.05 0.36,4.09 0.57,6.13 0.57,-0.93 1.09,-1.9 1.66,-2.83 0.37,3.97 -0.4,8.4 0.89,12.14 0.09,1.27 0.16,2.55 0.19,3.83 -0.68,-0.31 -1.37,-0.62 -2.06,-0.92 0.38,-3.77 -0.33,-6.81 -1.64,-10.29 -0.3,-2.73 -0.43,-5.4 0.39,-8.06 z"
       id="p146" />
    <path
       d="m 120.28,93.18 c 0.97,-0.21 1.95,-0.4 2.93,-0.58 4.06,0.37 7.71,2.38 11.77,2.39 4.21,0.04 8.33,0.8 12.52,0.91 0.14,0.86 0.3,1.7 0.49,2.54 -1.74,0.45 -3.45,0.75 -5.11,1.46 l -0.8,0.31 c -0.9,-0.2 -1.8,-0.41 -2.7,-0.64 -1.88,-2.19 -4.6,-2.73 -7.37,-2.44 -3.73,0.51 -6.76,-0.9 -10.24,0.96 -4.09,-0.79 -8.11,-2.33 -11.98,-3.85 4.27,-0.7 7.88,0.71 11.94,1.67 -0.47,-0.92 -0.99,-1.81 -1.45,-2.73 z"
       id="p147" />
    <path
       d="m 169.2,93.27 c -1.02,2.47 -3.13,3.29 -5.11,4.86 -0.68,-0.38 -1.37,-0.76 -2.05,-1.14 1.49,-2.28 4.8,-2.33 7.16,-3.72 z"
       id="p148" />
    <path
       d="m 182.26,92.76 c 3.27,2.97 0.93,9.03 2.03,13.1 1.84,7.02 -0.27,13.01 -0.58,20.01 -0.32,3.15 -2.14,6.53 -0.62,9.39 -0.49,1.56 -0.93,3.08 -0.97,4.72 2.97,-3.54 3.84,-8.6 4.8,-13.01 0.57,-3.4 1.83,-6.78 1.96,-10.2 0.4,-6.65 -0.25,-13.3 0.43,-19.98 1.4,5.48 0.39,11.56 0.72,17.21 0.36,4.91 -1.61,9.31 -0.76,14.23 -2.18,6.86 -3.32,13.39 -6.57,19.46 -3.09,6.28 -7.23,11.73 -11.24,17.42 -0.44,-0.77 -0.9,-1.52 -1.39,-2.25 -1.75,2.08 -3.88,4.1 -5.11,6.55 0.69,0.06 1.38,0.12 2.07,0.18 -1.04,2.55 -4.64,4.65 -3.06,7.56 -5.13,5.32 -11.18,8.93 -17.78,12.13 -2.9,0.16 -7.35,1.24 -8.63,-2.35 8.47,-4.91 16.18,-11.3 23.24,-18.05 2.84,-1.98 7.52,-5.06 7.18,-8.97 2.24,-4.67 4.84,-9.07 7.38,-13.57 3.76,-6.76 4.85,-13.8 6.94,-21.12 1.43,-6.42 0.5,-13.6 0.62,-20.19 -0.66,-4.15 -1.3,-8.03 -0.66,-12.27 z"
       id="p149" />
    <path
       d="m 57.16,94.02 0.7,-0.54 c 2,2.46 0.57,4.52 -0.03,7.16 -0.59,-0.44 -1.18,-0.89 -1.77,-1.34 0.13,1.58 0.36,3.14 0.51,4.71 -0.65,1.06 -1.33,2.07 -2.19,2.97 -0.35,-1.73 -0.64,-3.48 -1.06,-5.2 -0.2,-1 -0.41,-2 -0.61,-3 1.46,-1.62 2.83,-3.29 4.45,-4.76 z"
       id="p150" />
    <path
       d="m 155.82,94.93 0.3,1.87 c -1.44,1.6 -3.23,2.37 -5.08,3.35 -2.72,-0.12 -5.44,-0.23 -8.16,-0.25 1.66,-0.71 3.37,-1.01 5.11,-1.46 3.09,-0.35 5.33,-1.82 7.83,-3.51 z"
       id="p151" />
    <path
       d="m 63.32,95.84 c 1.04,1.2 1.48,2.21 1.8,3.76 -1.12,2.15 -2.08,5.19 -1.03,7.53 -0.3,0.61 -0.62,1.22 -0.94,1.82 -0.96,-0.14 -1.93,-0.23 -2.9,-0.37 -0.15,-1.18 -0.23,-2.38 -0.24,-3.58 0.95,-0.71 1.87,-1.4 2.69,-2.26 -0.15,-1.96 -0.59,-3.89 -0.81,-5.85 z"
       id="p152" />
    <path
       d="m 94.14,96.1 c 1.62,0 1.79,0.5 2.64,1.7 -0.34,1.03 -0.65,2.06 -0.93,3.1 -1.09,-1.57 -2.18,-2.72 -1.71,-4.8 z"
       id="p153" />
    <path
       d="m 107.28,95.82 c 1.89,0.7 3.76,1.39 5.61,2.19 2.18,2.91 4.62,3.07 8.03,3.06 0.75,2.31 0.53,2.31 2.9,2.38 3.26,5.3 8.92,8.98 12.75,13.86 -1.14,5.1 2.71,6.42 4.3,10.67 -1.21,-0.46 -2.37,-1.05 -3.56,-1.55 -0.66,2.48 -0.21,3.18 -2.96,4.01 0.69,2.08 1.83,3.95 3.26,5.6 0.55,0.69 1.1,1.38 1.65,2.08 -0.77,2.13 -4.16,2.45 -6.05,3.44 -1.37,-1.63 -2.27,-3.38 -4.16,-4.51 0.35,1.99 1.45,3.49 2.33,5.25 -0.55,2.27 -1.13,4.01 -0.73,6.39 -2.97,-0.45 -5.79,-0.06 -8.58,-1.27 -0.42,0.48 -0.77,0.99 -1.03,1.53 1.52,3.24 3.55,6.24 4.95,9.56 -0.96,-0.08 -1.93,-0.15 -2.9,-0.21 1.1,3.87 3.22,7.73 3.89,11.72 0.33,1.86 -1.4,3 -2.74,3.87 -0.93,-1.37 -1.66,-2.85 -2.57,-4.22 -1.12,-0.02 -2.25,0.08 -3.38,0.03 -1.86,-1.24 -2.72,-4.91 -5.16,-4.62 -0.28,2.27 0.27,4.35 0.63,6.57 -1.79,-0.04 -2.75,0.15 -3.87,-1.53 -5.79,-6.68 -4.62,-17.74 -6.72,-26.33 4.32,2.39 3.63,10.31 6.97,14.05 1.34,-0.49 2.61,-1.05 3.63,-2.07 -0.29,-2.36 -1.57,-4.24 -1.31,-6.75 -0.66,-3.04 -3.75,-5.31 -3.36,-9.01 3.14,2.5 3.98,7.53 7.6,9.89 1.45,-3.83 0.43,-7.35 4.25,-9.81 1.06,0.59 2.07,1.27 3.13,1.88 1.22,-1.33 1.76,-3.51 2.39,-5.2 -0.38,-2.37 -1.95,-4.63 -2.19,-7.07 0.93,-0.52 1.87,-1.04 2.83,-1.51 1.96,0.86 3.58,3.82 5.79,3.71 -0.68,-4.25 -4.79,-8.12 -7.19,-11.62 -1.09,-1.75 -2.8,-0.72 -4.53,-0.86 -1.3,-0.87 -2.24,-2.36 -3.24,-3.55 -1.74,-2.06 -4.77,-7.44 -7.99,-6.1 l -0.22,-0.59 c -0.95,-4.07 -5.17,-6.7 -7.63,-10.11 l -1.25,-1.28 c 2.15,-0.64 4.33,-1.17 6.43,-1.97 z"
       id="p154" />
    <path
       d="m 61.89,96.89 c 0.22,1.96 0.66,3.89 0.81,5.85 -0.82,0.86 -1.74,1.55 -2.69,2.26 -2.31,-2.52 -1.34,-7.08 1.88,-8.11 z"
       id="p155" />
    <path
       d="m 75.12,97 c 2.75,1.86 3.12,6.95 3.94,9.97 -0.65,-0.63 -1.31,-1.25 -1.99,-1.85 -0.2,2.62 0.14,5.13 0.71,7.67 -2.48,0.25 -0.08,5.43 -0.96,7.25 -2.15,-3.99 -2.21,-11.19 -5.75,-14 0.91,5.71 3.1,11.01 3.08,16.94 1.97,5.9 2.38,11.98 3.87,18.03 -0.67,-0.44 -1.35,-0.89 -2.02,-1.33 -0.73,-2.47 -0.95,-4.83 -2.65,-6.89 -0.41,-3.71 -1.04,-7.37 -2,-10.99 -0.32,-1.33 -0.66,-2.66 -1.03,-3.99 -0.07,-0.83 -0.13,-1.66 -0.18,-2.49 0.54,-1.41 0.89,-2.44 0.45,-3.94 -0.81,-4.31 -1.15,-9.2 0.28,-13.41 2.78,0.99 2.02,6.01 4.88,5.97 -0.33,-2.33 -0.82,-4.57 -0.63,-6.94 z"
       id="p156" />
    <path
       d="m 82.27,97.06 c 1.51,-0.04 2.54,2.21 3.47,3.2 1.78,2.73 3.81,5.57 5.02,8.6 -0.81,1.35 -1.65,2.58 -2.03,4.13 l -0.64,-1.1 c -0.62,-3.47 -2.33,-6.57 -3.83,-9.86 -0.24,1.72 -0.43,3.45 -0.62,5.18 -0.81,-3.3 -0.82,-6.79 -1.37,-10.15 z"
       id="p157" />
    <path
       d="m 132.01,97.13 c 2.77,-0.29 5.49,0.25 7.37,2.44 -2.49,-0.61 -4.78,-0.11 -7.26,0.01 -2.82,-0.43 -5.47,-0.64 -8.32,-0.38 l -1.8,-0.21 -0.23,-0.9 c 3.48,-1.86 6.51,-0.45 10.24,-0.96 z"
       id="p158" />
    <path
       d="m 156.12,96.8 c 1.63,0.39 3.24,0.85 4.86,1.28 -2.55,1.83 -6.9,1.81 -9.94,2.07 1.85,-0.98 3.64,-1.75 5.08,-3.35 z"
       id="p159" />
    <path
       d="m 162.04,96.99 c 0.68,0.38 1.37,0.76 2.05,1.14 -2.37,1.55 -4.03,4.14 -7.07,3.84 -4.9,-0.04 -9.29,1.66 -14.24,0.74 2.59,-1.59 5.43,-1.68 8.26,-2.56 3.04,-0.26 7.39,-0.24 9.94,-2.07 z"
       id="p160" />
    <path
       d="m 6.11,97.85 c 0.61,1.14 1.21,2.27 1.84,3.39 0.19,3.21 0.18,5.28 -1.77,7.95 -0.22,-3.78 -0.2,-7.55 -0.07,-11.34 z"
       id="p161" />
    <path
       d="m 96.78,97.8 c 0.96,1.26 1.98,2.44 3.11,3.55 3.03,2.51 6.23,6.45 9.84,7.83 l 0.22,0.59 c -0.95,0.16 -1.89,0.34 -2.84,0.53 0.66,2.54 1.96,4.85 2.57,7.42 0.71,2.94 3.44,4.1 3.71,7.06 0.54,4.98 3.57,9.59 -0.57,13.96 -2.58,-0.86 -4.39,-7.73 -5.35,-10.32 -1.82,-2.65 -4.15,-4.96 -5.94,-7.66 0.14,-0.63 0.3,-1.26 0.48,-1.88 1.29,1.06 2.54,2.12 3.96,3.01 0.01,-0.89 -0.15,-1.71 -0.49,-2.45 -3.5,-6.05 -5.69,-12.67 -9.63,-18.54 0.28,-1.04 0.59,-2.07 0.93,-3.1 z"
       id="p162" />
    <path
       d="m 112.89,98.01 c 2.38,0.16 4.7,0.61 7.04,1.03 0.33,0.68 0.66,1.35 0.99,2.03 -3.41,0.01 -5.85,-0.15 -8.03,-3.06 z"
       id="p163" />
    <path
       d="m 52.71,98.78 c 0.2,1 0.41,2 0.61,3 -0.89,0.32 -1.77,0.65 -2.66,0.98 l -0.78,0.27 c 0.37,-2.68 0.3,-3.13 2.83,-4.25 z"
       id="p164" />
    <path
       d="m 102.1,99.07 c 2.46,3.41 6.68,6.04 7.63,10.11 -3.61,-1.38 -6.81,-5.32 -9.84,-7.83 0.75,-0.75 1.49,-1.51 2.21,-2.28 z"
       id="p165" />
    <path
       d="m 119.93,99.04 2.07,-0.05 1.8,0.21 c 5.38,2.41 10.66,1.68 16.36,1.99 -5.78,1.75 -13.27,0.8 -19.24,-0.12 -0.33,-0.68 -0.66,-1.35 -0.99,-2.03 z"
       id="p166" />
    <path
       d="m 123.8,99.2 c 2.85,-0.26 5.5,-0.05 8.32,0.38 2.48,-0.12 4.77,-0.62 7.26,-0.01 0.9,0.23 1.8,0.44 2.7,0.64 -0.63,0.34 -1.27,0.66 -1.92,0.98 -5.7,-0.31 -10.98,0.42 -16.36,-1.99 z"
       id="p167" />
    <path
       d="m 65.12,99.6 c -0.09,2.49 -0.17,4.98 -0.3,7.47 l -0.73,0.06 C 63.04,104.79 64,101.75 65.12,99.6 Z"
       id="p168" />
    <path
       d="m 65.12,99.6 c 0.98,2.3 2.17,4.71 2.69,7.16 -1.93,3.98 0.31,7.31 0.87,11.4 0.36,1.1 0.15,3.05 1.12,3.79 0.21,-1.38 0.38,-2.75 0.52,-4.14 0.37,1.33 0.71,2.66 1.03,3.99 -1,2.92 -0.95,6.3 -2.15,9.06 -0.19,-1.69 -0.41,-3.37 -0.82,-5.03 -1.25,-4.58 -1.43,-9.28 -2.52,-13.89 0.19,-1.87 -0.25,-3.22 -1.04,-4.87 0.13,-2.49 0.21,-4.98 0.3,-7.47 z"
       id="p169" />
    <path
       d="m 142.08,100.21 0.8,-0.31 c 2.72,0.02 5.44,0.13 8.16,0.25 -2.83,0.88 -5.67,0.97 -8.26,2.56 -1.67,0.29 -3.33,0.59 -4.97,0.99 -1.35,0.17 -2.7,0.33 -4.05,0.49 -3.94,1.09 -6.21,-0.22 -9.94,-0.74 -2.37,-0.07 -2.15,-0.07 -2.9,-2.38 5.97,0.92 13.46,1.87 19.24,0.12 0.65,-0.32 1.29,-0.64 1.92,-0.98 z"
       id="p170" />
    <path
       d="m 12.24,100.83 c 1.31,3.48 2.02,6.52 1.64,10.29 -0.92,-2.37 -1.68,-4.81 -2.28,-7.28 0.22,-1 0.43,-2.01 0.64,-3.01 z"
       id="p171" />
    <path
       d="m 53.32,101.78 c -0.36,1.91 -0.89,3.61 -1.98,5.24 -0.24,-1.42 -0.47,-2.84 -0.68,-4.26 0.89,-0.33 1.77,-0.66 2.66,-0.98 z"
       id="p172" />
    <path
       d="m 84.26,102.03 c 1.5,3.29 3.21,6.39 3.83,9.86 -1.63,-1.04 -1.86,-2.97 -2.47,0.23 -0.82,-1.58 -1.56,-3.17 -1.98,-4.91 0.19,-1.73 0.38,-3.46 0.62,-5.18 z"
       id="p173" />
    <path
       d="m 93.43,105.58 c 2.57,4.62 6.6,8.43 8.58,13.3 -1.74,-0.85 -3.59,-3.93 -5.45,-1.85 -2.36,-4.24 -3.66,-8.87 -5.84,-13.21 1.68,-0.97 1.75,0.75 2.71,1.76 z"
       id="p174" />
    <path
       d="m 123.82,103.45 c 3.73,0.52 6,1.83 9.94,0.74 2.67,4.68 7.43,8.53 11.48,12.03 -0.82,1.96 -4.36,1.79 -6.16,2.42 0.87,3.17 5.42,5.11 7.71,7.33 1.69,1.34 3.36,2.67 4.94,4.13 1.38,1.5 2.83,2.91 4.47,4.13 -0.94,0.7 -1.91,1.34 -2.94,1.91 -2.5,-2.06 -4.97,-5.13 -8.09,-6.18 0.55,1.03 1.17,2.01 1.82,2.97 -1.89,-0.51 -3.8,-1.58 -5.75,-1.71 -1.04,0.99 -0.54,1.93 -0.6,3.17 -1.81,0.18 -2.31,-0.49 -3.03,1.65 -1.43,-1.65 -2.57,-3.52 -3.26,-5.6 2.75,-0.83 2.3,-1.53 2.96,-4.01 1.19,0.5 2.35,1.09 3.56,1.55 -1.59,-4.25 -5.44,-5.57 -4.3,-10.67 -3.83,-4.88 -9.49,-8.56 -12.75,-13.86 z"
       id="p175" />
    <path
       d="m 194.32,102.79 c 1.03,3.7 1.03,7.72 0,11.42 -0.44,-3.88 -0.43,-7.54 0,-11.42 z"
       id="p176" />
    <path
       d="m 11.6,103.84 c 0.6,2.47 1.36,4.91 2.28,7.28 -0.48,6.51 1.36,12.72 0.85,19.11 -1.89,-8.28 -4.88,-17.96 -3.13,-26.39 z"
       id="p177" />
    <path
       d="m 77.07,105.12 c 0.68,0.6 1.34,1.22 1.99,1.85 1.89,4.04 3.85,8.08 6.1,11.93 -1.28,3.54 -1.51,5.21 -0.16,8.78 -0.37,0.9 -0.74,1.81 -1.13,2.71 -2.37,-5.73 -4.08,-11.73 -6.09,-17.6 -0.57,-2.54 -0.91,-5.05 -0.71,-7.67 z"
       id="p178" />
    <path
       d="m 182.04,105.01 0.88,0.02 c -0.12,6.59 0.81,13.77 -0.62,20.19 -0.56,-6.7 -0.23,-13.49 -0.26,-20.21 z"
       id="p179" />
    <path
       d="m 71.07,106.04 c 3.54,2.81 3.6,10.01 5.75,14 0.88,-1.82 -1.52,-7 0.96,-7.25 2.01,5.87 3.72,11.87 6.09,17.6 0.15,1.5 0.11,3.22 0.73,4.59 0.88,2.79 3.66,5.83 3.25,8.8 -1.48,0.55 -3.23,-3.05 -4.7,-3.74 0.15,1.94 0.59,3.84 0.7,5.79 -1.91,-0.02 -3.95,-3.76 -5.83,-4.82 -1.49,-6.05 -1.9,-12.13 -3.87,-18.03 0.02,-5.93 -2.17,-11.23 -3.08,-16.94 z"
       id="p180" />
    <path
       d="m 64.09,107.13 0.73,-0.06 c 0.79,1.65 1.23,3 1.04,4.87 -0.93,-0.98 -1.85,-1.95 -2.71,-2.99 0.32,-0.6 0.64,-1.21 0.94,-1.82 z"
       id="p181" />
    <path
       d="m 67.81,106.76 c 0.83,2.86 1.32,5.76 2.33,8.56 0.05,0.83 0.11,1.66 0.18,2.49 -0.14,1.39 -0.31,2.76 -0.52,4.14 -0.97,-0.74 -0.76,-2.69 -1.12,-3.79 -0.56,-4.09 -2.8,-7.42 -0.87,-11.4 z"
       id="p182" />
    <path
       d="m 117.94,115.87 c -0.15,1.29 -0.21,2.59 -0.3,3.89 -3.56,-3.11 -8.46,-4.35 -7.69,-9.99 3.22,-1.34 6.25,4.04 7.99,6.1 z"
       id="p183" />
    <path
       d="m 88.09,111.89 0.64,1.1 c 1.61,3.69 4.75,6.34 6.31,9.95 -2.15,-0.11 -3.95,-2 -4.46,1.18 -1.3,-4.24 -2.93,-8.07 -4.96,-12 0.61,-3.2 0.84,-1.27 2.47,-0.23 z"
       id="p184" />
    <path
       d="m 107.11,110.3 c 0.95,-0.19 1.89,-0.37 2.84,-0.53 -0.77,5.64 4.13,6.88 7.69,9.99 0.09,-1.3 0.15,-2.6 0.3,-3.89 1,1.19 1.94,2.68 3.24,3.55 1.73,0.14 3.44,-0.89 4.53,0.86 2.4,3.5 6.51,7.37 7.19,11.62 -2.21,0.11 -3.83,-2.85 -5.79,-3.71 -0.96,0.47 -1.9,0.99 -2.83,1.51 0.24,2.44 1.81,4.7 2.19,7.07 -0.63,1.69 -1.17,3.87 -2.39,5.2 -1.06,-0.61 -2.07,-1.29 -3.13,-1.88 -3.82,2.46 -2.8,5.98 -4.25,9.81 -3.62,-2.36 -4.46,-7.39 -7.6,-9.89 -0.39,3.7 2.7,5.97 3.36,9.01 -0.26,2.51 1.02,4.39 1.31,6.75 -1.02,1.02 -2.29,1.58 -3.63,2.07 -3.34,-3.74 -2.65,-11.66 -6.97,-14.05 -0.8,-1.2 -1.56,-2.43 -2.31,-3.66 1.35,-3.3 -1.24,-5.77 0.04,-9.15 0.71,0.27 1.42,0.52 2.14,0.76 -0.81,-5.15 -4.54,-9.86 -6.48,-14.71 1.86,-2.08 3.71,1 5.45,1.85 -0.18,0.62 -0.34,1.25 -0.48,1.88 1.79,2.7 4.12,5.01 5.94,7.66 0.96,2.59 2.77,9.46 5.35,10.32 4.14,-4.37 1.11,-8.98 0.57,-13.96 -0.27,-2.96 -3,-4.12 -3.71,-7.06 -0.61,-2.57 -1.91,-4.88 -2.57,-7.42 z"
       id="p185" />
    <path
       d="m 13.88,111.12 c 0.69,0.3 1.38,0.61 2.06,0.92 0.09,1.92 0.15,3.83 0.31,5.75 -0.39,5.11 -0.17,10.21 -0.4,15.33 -0.48,-0.9 -0.86,-1.87 -1.12,-2.89 0.51,-6.39 -1.33,-12.6 -0.85,-19.11 z"
       id="p186" />
    <path
       d="M 5.04,112.98 5.96,113 c 0.03,5.45 0.21,10.82 -0.23,16.27 -1.46,-5.14 -0.47,-10.98 -0.69,-16.29 z"
       id="p187" />
    <path
       d="m 145.24,116.22 c 1.45,1.05 2.74,2.28 3.98,3.56 -1.69,2.15 -2.31,3.39 -2.43,6.19 -2.29,-2.22 -6.84,-4.16 -7.71,-7.33 1.8,-0.63 5.34,-0.46 6.16,-2.42 z"
       id="p188" />
    <path
       d="m 187.47,117.55 1.41,-0.78 c -0.13,3.42 -1.39,6.8 -1.96,10.2 -0.96,4.41 -1.83,9.47 -4.8,13.01 0.04,-1.64 0.48,-3.16 0.97,-4.72 2.38,-5.64 2.12,-11.96 4.38,-17.71 z"
       id="p189" />
    <path
       d="m 16.25,117.79 c 1.53,5.43 0.47,11.62 0.67,17.23 -0.38,-0.62 -0.73,-1.25 -1.07,-1.9 0.23,-5.12 0.01,-10.22 0.4,-15.33 z"
       id="p190" />
    <path
       d="m 85.16,118.9 c 2.04,4.03 5.88,10.74 3.88,15.17 -1.54,-2.03 -2.7,-4.23 -4.04,-6.39 -1.35,-3.57 -1.12,-5.24 0.16,-8.78 z"
       id="p191" />
    <path
       d="m 149.22,119.78 c 1.97,1.93 4.28,3.79 5.4,6.34 -0.92,1.36 -1.95,2.64 -2.89,3.98 -1.58,-1.46 -3.25,-2.79 -4.94,-4.13 0.12,-2.8 0.74,-4.04 2.43,-6.19 z"
       id="p192" />
    <path
       d="m 71.35,121.8 c 0.96,3.62 1.59,7.28 2,10.99 -0.5,1.07 -1,2.13 -1.5,3.19 -1.34,3.11 -2.25,6.41 -3.33,9.6 -3.17,2.66 -5.59,5.49 -6.72,9.57 -0.84,-2.04 -1.6,-4.12 -2.51,-6.13 -0.8,3.64 0.04,8.51 -2.42,11.48 -0.44,-1.08 -0.83,-2.18 -1.18,-3.28 0.34,-3.73 0.35,-7.47 0.37,-11.21 3.38,-2.64 6.95,-3.19 9.28,-6.69 1.79,-1.93 1.73,-4.16 2.43,-6.58 0.49,-0.61 0.97,-1.24 1.43,-1.88 1.2,-2.76 1.15,-6.14 2.15,-9.06 z"
       id="p193" />
    <path
       d="m 95.04,122.94 c 2,2.67 4.22,5.1 5.86,8.04 -1.28,3.38 1.31,5.85 -0.04,9.15 -3.38,-4.05 -2.74,-10.44 -6.83,-13.33 -0.58,0.7 -1.08,1.46 -1.5,2.29 -0.77,-1.62 -1.42,-3.26 -1.95,-4.97 0.51,-3.18 2.31,-1.29 4.46,-1.18 z"
       id="p194" />
    <path
       d="m 7.41,126.05 c 1.51,3.89 2.65,7.91 4.27,11.76 -0.28,1.78 -0.28,3.57 -0.4,5.37 -2.21,-3.87 -4.36,-7.48 -5.08,-11.95 0.49,-1.71 0.83,-3.45 1.21,-5.18 z"
       id="p195" />
    <path
       d="m 68.38,125.83 c 0.41,1.66 0.63,3.34 0.82,5.03 -3.65,-0.24 -5.68,1.01 -5.4,5.08 -0.61,-0.67 -1.21,-1.34 -1.8,-2.02 0.51,-1.48 0.92,-2.99 1.42,-4.48 1.15,-0.32 2.82,0.81 2.21,-1.13 -0.78,-2.72 1.28,0.03 2.27,0.37 0.17,-0.94 0.33,-1.89 0.48,-2.85 z"
       id="p196" />
    <path
       d="m 94.03,126.8 c 4.09,2.89 3.45,9.28 6.83,13.33 0.75,1.23 1.51,2.46 2.31,3.66 2.1,8.59 0.93,19.65 6.72,26.33 1.12,1.68 2.08,1.49 3.87,1.53 -0.36,-2.22 -0.91,-4.3 -0.63,-6.57 2.44,-0.29 3.3,3.38 5.16,4.62 1.13,0.05 2.26,-0.05 3.38,-0.03 0.91,1.37 1.64,2.85 2.57,4.22 1.34,-0.87 3.07,-2.01 2.74,-3.87 -0.67,-3.99 -2.79,-7.85 -3.89,-11.72 0.97,0.06 1.94,0.13 2.9,0.21 -1.4,-3.32 -3.43,-6.32 -4.95,-9.56 0.26,-0.54 0.61,-1.05 1.03,-1.53 2.79,1.21 5.61,0.82 8.58,1.27 -0.4,-2.38 0.18,-4.12 0.73,-6.39 -0.88,-1.76 -1.98,-3.26 -2.33,-5.25 1.89,1.13 2.79,2.88 4.16,4.51 1.89,-0.99 5.28,-1.31 6.05,-3.44 1.12,1.43 2.28,2.79 3.55,4.09 0.72,0.96 1.43,1.92 2.15,2.89 l 0.42,0.69 c -2.04,1.88 -4.04,4.15 -6.41,5.58 l -0.83,-0.46 c -0.89,-1.01 -1.79,-1.99 -2.86,-2.81 -1.97,4.03 0.13,5.84 0.75,9.71 -1.18,-0.63 -2.28,-1.7 -3.53,-2.14 -1.58,1.2 -2.54,1 -4.4,0.86 0.71,3.96 2.5,7.47 3.6,11.3 -1.15,0.33 -2.32,0.55 -3.48,0.83 -0.37,1.96 -0.61,3.9 0.94,5.43 -2.08,1.66 -4.27,3.13 -6.23,4.94 -1.51,-3.53 -5.19,-6.26 -7.83,-9.02 -0.04,2.69 0.89,5.2 0.78,7.87 -2.52,0.66 -3.92,-1.62 -5.79,-2.88 l -1.07,-0.87 c -0.1,3.7 1.34,7.04 0.89,10.77 -3.77,-0.96 -4.51,-5.84 -6.29,-8.88 -1.62,-3.03 -4.55,-5.07 -6.53,-7.92 -0.42,3.77 0.45,7.21 1.14,10.87 -1.31,-0.29 -2.63,-0.46 -3.94,-0.66 -1.49,-5.99 -1.97,-12.26 -3.25,-18.32 0.03,-2.85 -1.83,-3.82 -3.31,-5.9 1.98,-3.17 1.05,-7.62 1.59,-11.31 1.1,3.22 0.26,6.66 1.07,9.84 1.37,1.49 2.86,2.92 4.36,4.27 0.39,-1.01 -0.21,-4.68 1.08,-4.72 0.2,3.22 0.19,6.32 1.37,9.39 0.72,-0.09 1.44,-0.2 2.16,-0.33 1.43,4.07 2.63,8.23 4.1,12.27 1.48,0.81 3,1.56 4.54,2.25 -1,-6.13 -3.27,-12.04 -4.67,-18.1 -1.83,-5.9 -2.51,-12.87 -5.07,-18.85 -0.73,-1.94 -1.48,-3.56 -3.25,-4.76 -0.93,-1.58 -1.72,-3.28 -2.48,-4.95 0.42,-0.83 0.92,-1.59 1.5,-2.29 z"
       id="p197" />
    <path
       d="m 85,127.68 c 1.34,2.16 2.5,4.36 4.04,6.39 l 0.78,1.1 -1.82,-0.33 c -1.43,-0.38 -2.03,-0.73 -3.4,0.14 -0.62,-1.37 -0.58,-3.09 -0.73,-4.59 0.39,-0.9 0.76,-1.81 1.13,-2.71 z"
       id="p198" />
    <path
       d="m 54.48,129.92 c 1.84,0.31 1.6,2.64 2.17,4.07 -0.66,1.7 -1.33,3.42 -1.91,5.14 -0.6,-1.48 -1.23,-2.98 -1.64,-4.52 3.24,0.41 1.18,-2.74 1.38,-4.69 z"
       id="p199" />
    <path
       d="m 59.78,130.21 c 1.44,0.66 1.41,2.34 1.25,3.68 l -1.77,0.08 c -0.29,-0.87 -0.99,-3.71 0.52,-3.76 z"
       id="p200" />
    <path
       d="m 69.2,130.86 c -0.46,0.64 -0.94,1.27 -1.43,1.88 -1.65,0.19 -2.99,5.48 -3.97,3.2 -0.28,-4.07 1.75,-5.32 5.4,-5.08 z"
       id="p201" />
    <path
       d="m 141.24,131.22 c 1.95,0.13 3.86,1.2 5.75,1.71 l 0.9,0.85 c -0.22,0.51 0.15,2.92 -0.7,2.6 -3,-0.78 -3.13,3.96 -4.38,5.83 -1.27,-1.3 -2.43,-2.66 -3.55,-4.09 -0.55,-0.7 -1.1,-1.39 -1.65,-2.08 0.72,-2.14 1.22,-1.47 3.03,-1.65 0.06,-1.24 -0.44,-2.18 0.6,-3.17 z"
       id="p202" />
    <path
       d="m 67.77,132.74 c -0.7,2.42 -0.64,4.65 -2.43,6.58 -2.33,3.5 -5.9,4.05 -9.28,6.69 -0.11,-1.07 -0.23,-2.14 -0.37,-3.21 -0.1,-1.29 -0.55,-2.45 -0.95,-3.67 0.58,-1.72 1.25,-3.44 1.91,-5.14 0.5,1.18 1.07,2.15 2.03,3.01 0.21,-1.01 0.4,-2.02 0.58,-3.03 l 1.77,-0.08 0.97,0.03 c 0.59,0.68 1.19,1.35 1.8,2.02 0.98,2.28 2.32,-3.01 3.97,-3.2 z"
       id="p203" />
    <path
       d="m 73.35,132.79 c 1.7,2.06 1.92,4.42 2.65,6.89 -1.17,0.4 -2.31,0.85 -3.43,1.35 -0.55,-1.66 -0.61,-3.31 -0.72,-5.05 0.5,-1.06 1,-2.12 1.5,-3.19 z"
       id="p204" />
    <path
       d="m 95.01,134.04 c 1.77,1.2 2.52,2.82 3.25,4.76 0.17,3.15 0.26,6.07 -0.19,9.21 -0.46,4.86 3.06,8.46 1.29,13.22 -2.53,-7.58 -4.13,-15.45 -6.34,-23.15 3.31,2.08 1.48,-2.17 1.99,-4.04 z"
       id="p205" />
    <path
       d="m 147.89,133.78 c 2.08,2.34 3.34,5.81 4.96,8.56 -3.55,2.36 -4.61,-0.17 -7.49,-2.09 -0.04,1.64 -0.16,3.22 -0.4,4.85 -0.72,-0.97 -1.43,-1.93 -2.15,-2.89 1.25,-1.87 1.38,-6.61 4.38,-5.83 0.85,0.32 0.48,-2.09 0.7,-2.6 z"
       id="p206" />
    <path
       d="m 156.2,134.23 c 2.26,1.55 4.26,3.38 5.73,5.71 -3.11,0.01 -6.34,-1.84 -8.67,-3.8 1.03,-0.57 2,-1.21 2.94,-1.91 z"
       id="p207" />
    <path
       d="m 16.92,135.02 c 1.75,3.1 3.84,6.46 4.03,10.07 -2.69,-3.28 -4.34,-5.58 -4.03,-10.07 z"
       id="p208" />
    <path
       d="m 88,134.84 1.82,0.33 c 1.05,0.99 2.14,1.94 3.2,2.91 2.21,7.7 3.81,15.57 6.34,23.15 -0.72,0.13 -1.44,0.24 -2.16,0.33 -1.18,-3.07 -1.17,-6.17 -1.37,-9.39 -1.29,0.04 -0.69,3.71 -1.08,4.72 -1.5,-1.35 -2.99,-2.78 -4.36,-4.27 -0.81,-3.18 0.03,-6.62 -1.07,-9.84 -0.57,-2.64 -1.21,-5.23 -1.32,-7.94 z"
       id="p209" />
    <path
       d="m 71.85,135.98 c 0.11,1.74 0.17,3.39 0.72,5.05 0.47,1.63 1.07,3.23 1.42,4.88 -3.71,3.59 -7.51,6.95 -12.19,9.24 1.13,-4.08 3.55,-6.91 6.72,-9.57 1.08,-3.19 1.99,-6.49 3.33,-9.6 z"
       id="p210" />
    <path
       d="m 11.68,137.81 c 1.96,3.44 3.85,7.32 4.28,11.31 -2.1,-1.61 -3.47,-3.63 -4.68,-5.94 0.12,-1.8 0.12,-3.59 0.4,-5.37 z"
       id="p211" />
    <path
       d="m 98.26,138.8 c 2.56,5.98 3.24,12.95 5.07,18.85 1.4,6.06 3.67,11.97 4.67,18.1 -1.54,-0.69 -3.06,-1.44 -4.54,-2.25 -1.47,-4.04 -2.67,-8.2 -4.1,-12.27 1.77,-4.76 -1.75,-8.36 -1.29,-13.22 0.45,-3.14 0.36,-6.06 0.19,-9.21 z"
       id="p212" />
    <path
       d="m 55.69,142.8 c 0.14,1.07 0.26,2.14 0.37,3.21 -0.02,3.74 -0.03,7.48 -0.37,11.21 -1.17,-4.22 -1.04,-10.17 0,-14.42 z"
       id="p213" />
    <path
       d="m 145.38,145.79 c 0.63,0.91 1.24,1.82 1.72,2.83 -1.17,2.14 -2.37,4.28 -3.47,6.46 -1.42,-1.44 -2.92,-2.68 -4.66,-3.71 2.37,-1.43 4.37,-3.7 6.41,-5.58 z"
       id="p214" />
    <path
       d="m 135.28,148.1 c 1.07,0.82 1.97,1.8 2.86,2.81 0.55,3.87 3.03,6.04 5.1,9.14 -0.65,2.64 -2.17,2.92 -4.42,3.85 -0.93,-1.51 -2.04,-2.84 -3.57,-3.78 -0.94,2.23 -1.58,4.6 -2.02,6.98 -0.03,1.84 1.25,3.63 1.59,5.46 -2.14,0.38 -3.65,0.92 -5.72,-0.11 l 0.06,1.64 c -1.55,-1.53 -1.31,-3.47 -0.94,-5.43 1.16,-0.28 2.33,-0.5 3.48,-0.83 -1.1,-3.83 -2.89,-7.34 -3.6,-11.3 1.86,0.14 2.82,0.34 4.4,-0.86 1.25,0.44 2.35,1.51 3.53,2.14 -0.62,-3.87 -2.72,-5.68 -0.75,-9.71 z"
       id="p215" />
    <path
       d="m 59.29,149.02 c 0.91,2.01 1.67,4.09 2.51,6.13 -1.18,2.6 -1.92,5.04 -4.41,6.72 l -0.52,-1.37 c 2.46,-2.97 1.62,-7.84 2.42,-11.48 z"
       id="p216" />
    <path
       d="m 147.1,148.62 c 1.28,3.03 3.76,6.77 2.65,10.11 -3.39,2.5 -4.51,-1.26 -6.12,-3.65 1.1,-2.18 2.3,-4.32 3.47,-6.46 z"
       id="p217" />
    <path
       d="m 20.09,151.06 c 3.3,2.11 4.66,6.68 7.09,9.73 1.2,1.41 0.14,2.03 -0.35,3.46 -2.11,-2.51 -3.82,-5.2 -5.66,-7.91 0.96,-1.83 -0.65,-3.44 -1.08,-5.28 z"
       id="p218" />
    <path
       d="m 87.73,154.09 c 1.48,2.08 3.34,3.05 3.31,5.9 1.28,6.06 1.76,12.33 3.25,18.32 1.31,0.2 2.63,0.37 3.94,0.66 l 0.02,0.85 c 0,1.35 0.05,2.7 0.14,4.05 -0.39,3.31 -1.89,1.08 -3.8,0.49 -2.06,-1.31 -4.33,-1.55 -6.6,-2.28 -0.11,-7.36 0.19,-14.74 -0.07,-22.09 0.07,-1.84 -1.24,-4.29 -0.19,-5.9 z"
       id="p219" />
    <path
       d="m 135.25,160.12 c 1.53,0.94 2.64,2.27 3.57,3.78 -1.5,2.63 2.8,5.88 2.07,8.92 -1.32,-0.04 -2.62,-0.22 -3.93,-0.33 0.29,2.02 1.22,3.66 1.84,5.57 -0.47,2.41 -3.24,2.98 -5.23,3.68 -0.19,1.94 -0.85,2.72 -2.25,4.03 -1.06,-1.28 -1.97,-2.62 -3.21,-3.74 0.72,2.26 1.36,6.6 3.94,7.31 -0.89,0.35 -1.78,0.67 -2.68,0.96 -1.56,-0.76 -3.42,-4.83 -5.18,-2.9 -1.17,-2.01 -2.31,-4.08 -3.18,-6.25 0.64,-0.71 1.28,-1.42 1.92,-2.12 0.54,2.03 1.51,3.99 3.93,3.88 -0.1,-1.96 -0.54,-3.81 -0.79,-5.76 0.74,0.84 1.44,1.72 2.19,2.55 0.81,-0.63 1.56,-1.32 2.29,-2.03 -0.1,-1.24 -0.86,-2.47 -1.39,-3.58 l -0.06,-1.64 c 2.07,1.03 3.58,0.49 5.72,0.11 -0.34,-1.83 -1.62,-3.62 -1.59,-5.46 0.44,-2.38 1.08,-4.75 2.02,-6.98 z"
       id="p220" />
    <path
       d="m 143.24,160.05 c 0.97,2.82 2.59,5.82 2.65,8.82 -3.11,0.94 -5.3,-3.02 -7.07,-4.97 2.25,-0.93 3.77,-1.21 4.42,-3.85 z"
       id="p221" />
    <path
       d="m 167.98,159.91 c 0.34,3.91 -4.34,6.99 -7.18,8.97 1.7,-3.39 4.73,-6.1 7.18,-8.97 z"
       id="p222" />
    <path
       d="m 31.07,160.87 c 2.92,2.22 4.56,5.38 7.18,7.87 1.72,1.69 3.38,3.37 4.68,5.41 -3.15,-1.22 -4.81,-3.63 -7.2,-5.88 -2.16,-2.48 -4.94,-3.65 -4.66,-7.4 z"
       id="p223" />
    <path
       d="m 170.07,162.86 c 0.49,0.73 0.95,1.48 1.39,2.25 -1.44,2.23 -2.84,4.35 -3.44,6.98 -1.32,1.71 -2.64,3.42 -4.05,5.06 -1.58,-2.91 2.02,-5.01 3.06,-7.56 -0.69,-0.06 -1.38,-0.12 -2.07,-0.18 1.23,-2.45 3.36,-4.47 5.11,-6.55 z"
       id="p224" />
    <path
       d="m 29.73,168.18 c 2.87,1.49 4.59,3.22 6.09,6.08 -3.03,-1.51 -4.56,-3.06 -6.09,-6.08 z"
       id="p225" />
    <path
       d="m 97.09,168.1 c 1.98,2.85 4.91,4.89 6.53,7.92 -0.45,1.36 -0.63,3.11 -1.59,4.2 -0.98,-1.28 -1.78,-2.67 -2.7,-3.99 -0.37,0.91 -0.74,1.82 -1.1,2.74 -0.69,-3.66 -1.56,-7.1 -1.14,-10.87 z"
       id="p226" />
    <path
       d="m 115.1,170.01 c 2.64,2.76 6.32,5.49 7.83,9.02 -0.64,0.7 -1.28,1.41 -1.92,2.12 -0.9,-1.46 -0.69,-3.16 -2.84,-3.07 -0.15,1.61 -0.13,3.21 -0.07,4.82 -2.2,-0.22 -4.08,-1.3 -6.3,-1.23 l -0.27,-0.81 c -0.44,-1.97 -0.95,-3.91 -1.44,-5.86 1.87,1.26 3.27,3.54 5.79,2.88 0.11,-2.67 -0.82,-5.18 -0.78,-7.87 z"
       id="p227" />
    <path
       d="m 109.02,174.13 1.07,0.87 c 0.49,1.95 1,3.89 1.44,5.86 -0.82,3.43 1.01,6.55 0.33,10.06 -1.99,0.1 -1.96,-1.59 -2.88,-2.91 -0.91,-1.93 -2.23,-3.44 -3.76,-4.9 -0.18,1.94 -0.23,3.87 -0.47,5.79 -3.26,0.17 -4.97,-6.75 -6.5,-9.08 l -0.02,-0.85 c 0.36,-0.92 0.73,-1.83 1.1,-2.74 0.92,1.32 1.72,2.71 2.7,3.99 0.96,-1.09 1.14,-2.84 1.59,-4.2 1.78,3.04 2.52,7.92 6.29,8.88 0.45,-3.73 -0.99,-7.07 -0.89,-10.77 z"
       id="p228" />
    <path
       d="m 129.16,174.09 c 0.53,1.11 1.29,2.34 1.39,3.58 -0.73,0.71 -1.48,1.4 -2.29,2.03 -0.75,-0.83 -1.45,-1.71 -2.19,-2.55 0.25,1.95 0.69,3.8 0.79,5.76 -2.42,0.11 -3.39,-1.85 -3.93,-3.88 1.96,-1.81 4.15,-3.28 6.23,-4.94 z"
       id="p229" />
    <path
       d="m 118.1,182.9 c 0.71,1.52 1.3,3.19 1.47,4.86 -0.76,1.21 -1.63,2.37 -2.6,3.42 -2.75,-2.11 -4.01,-6.36 -5.17,-9.51 2.22,-0.07 4.1,1.01 6.3,1.23 z"
       id="p230" />
    <path
       d="m 87.99,182.08 c 2.27,0.73 4.54,0.97 6.6,2.28 1.91,0.59 3.41,2.82 3.8,-0.49 0.87,3.46 0.76,7.26 0.48,10.79 -1.52,-0.26 -3.04,-0.57 -4.53,-0.98 -0.29,-1.52 -0.42,-3.05 -0.66,-4.58 -1.17,0.4 -2.25,0.96 -3.39,1.43 -1.05,-2.88 -2.42,-5.29 -2.3,-8.45 z"
       id="p231" />
    <path
       d="m 137.56,186.93 c 1.28,3.59 5.73,2.51 8.63,2.35 -2.62,1.46 -5.36,2.65 -8.1,3.87 -4.11,-2.08 -6.13,0.41 -9.03,2.98 -3.31,-0.26 -5.33,0 -8.05,1.94 -4.3,-0.63 -7.99,1.66 -11.83,-0.27 -4.75,-1.87 -10.44,0.18 -15.4,-1.48 5.4,-0.64 10.8,-0.05 16.2,-0.45 6.54,-1.08 13.42,-2.61 19.39,-5.57 0.9,-0.29 1.79,-0.61 2.68,-0.96 1.86,-0.74 3.66,-1.62 5.51,-2.41 z"
       id="p232" />
    <path
       d="m 64.08,187.81 c 5.64,1.85 11.55,3.64 16.95,6.08 -1.77,2.95 1.32,1.86 3.16,2.86 -1.47,0.18 -2.94,0.37 -4.41,0.56 -5.54,-1.37 -10.89,-2.96 -15.98,-5.61 1.71,-0.15 3.39,0.03 5.1,0.09 -1.79,-1.22 -3.63,-2.05 -4.82,-3.98 z"
       id="p233" />
    <path
       d="m 138.09,193.15 c -2.86,1.45 -5.89,2.38 -9.03,2.98 2.9,-2.57 4.92,-5.06 9.03,-2.98 z"
       id="p234" />
    <path
       d="m 81.03,193.89 c 3.91,1.77 8.6,0.96 12.75,2.43 4.96,1.66 10.65,-0.39 15.4,1.48 -8.14,-0.07 -17.12,1.29 -24.99,-1.05 -1.84,-1 -4.93,0.09 -3.16,-2.86 z"
       id="p235" />
    <path
       d="m 129.06,196.13 c -2.75,1.54 -4.9,1.95 -8.05,1.94 2.72,-1.94 4.74,-2.2 8.05,-1.94 z"
       id="p236" />
    <path
       d="m 79.78,197.31 c 1.47,-0.19 2.94,-0.38 4.41,-0.56 7.87,2.34 16.85,0.98 24.99,1.05 3.84,1.93 7.53,-0.36 11.83,0.27 -2.15,0.77 -4.38,1.21 -6.54,1.93 H 91.26 c -3.64,-1.46 -7.76,-1.13 -11.48,-2.69 z"
       id="p237" />
  </defs>
  <g
     id="g476"
     transform="translate(0.45713175,0.16022017)">
    <use
       fill="#e4d0bd"
       xlink:href="#p1"
       id="use240" />
    <use
       fill="#ebc286"
       xlink:href="#p3"
       id="use242" />
    <use
       fill="#f3ede7"
       xlink:href="#p4"
       id="use243" />
    <use
       fill="#efe5dc"
       xlink:href="#p5"
       id="use244" />
    <use
       fill="#e4c8ad"
       xlink:href="#p6"
       id="use245" />
    <use
       fill="#e5c6a8"
       xlink:href="#p7"
       id="use246" />
    <use
       fill="#e8d7c7"
       xlink:href="#p8"
       id="use247" />
    <use
       fill="#e5ceb9"
       xlink:href="#p9"
       id="use248" />
    <use
       fill="#e5a759"
       xlink:href="#p10"
       id="use249" />
    <use
       fill="#e4bf9a"
       xlink:href="#p11"
       id="use250" />
    <use
       fill="#e6d6c7"
       xlink:href="#p12"
       id="use251" />
    <use
       fill="#f3ede7"
       xlink:href="#p13"
       id="use252" />
    <use
       fill="#f2c660"
       xlink:href="#p14"
       id="use253" />
    <use
       fill="#e1c8b1"
       xlink:href="#p15"
       id="use254" />
    <use
       fill="#e4cfbb"
       xlink:href="#p16"
       id="use255" />
    <use
       fill="#e7d8cb"
       xlink:href="#p17"
       id="use256" />
    <use
       fill="#e7bf90"
       xlink:href="#p18"
       id="use257" />
    <use
       fill="#dba46d"
       xlink:href="#p19"
       id="use258" />
    <use
       fill="#e7be82"
       xlink:href="#p20"
       id="use259" />
    <use
       fill="#e0c0a0"
       xlink:href="#p21"
       id="use260" />
    <use
       fill="#daa067"
       xlink:href="#p22"
       id="use261" />
    <use
       fill="#f4ebb0"
       xlink:href="#p23"
       id="use262" />
    <use
       fill="#f2cb64"
       xlink:href="#p24"
       id="use263" />
    <use
       fill="#f5df7c"
       xlink:href="#p25"
       id="use264" />
    <use
       fill="#eabf6c"
       xlink:href="#p26"
       id="use265" />
    <use
       fill="#efbd60"
       xlink:href="#p27"
       id="use266" />
    <use
       fill="#e7b177"
       xlink:href="#p28"
       id="use267" />
    <use
       fill="#dba368"
       xlink:href="#p29"
       id="use268" />
    <use
       fill="#e1c4a9"
       xlink:href="#p31"
       id="use270" />
    <use
       fill="#f0e8e0"
       xlink:href="#p32"
       id="use271" />
    <use
       fill="#edc169"
       xlink:href="#p33"
       id="use272" />
    <use
       fill="#ece0d6"
       xlink:href="#p34"
       id="use273" />
    <use
       fill="#f1e499"
       xlink:href="#p35"
       id="use274" />
    <use
       fill="#e3cbb5"
       xlink:href="#p36"
       id="use275" />
    <use
       fill="#f1cc6f"
       xlink:href="#p37"
       id="use276" />
    <use
       fill="#eaddd0"
       xlink:href="#p38"
       id="use277" />
    <use
       fill="#e4c5a2"
       xlink:href="#p39"
       id="use278" />
    <use
       fill="#ddc1a7"
       xlink:href="#p40"
       id="use279" />
    <use
       fill="#f0e8e0"
       xlink:href="#p41"
       id="use280" />
    <use
       fill="#e4a358"
       xlink:href="#p42"
       id="use281" />
    <use
       fill="#d9a56f"
       xlink:href="#p43"
       id="use282" />
    <use
       fill="#e3c3a3"
       xlink:href="#p44"
       id="use283" />
    <use
       fill="#e5bc94"
       xlink:href="#p45"
       id="use284" />
    <use
       fill="#dba96c"
       xlink:href="#p46"
       id="use285" />
    <use
       fill="#f3db89"
       xlink:href="#p47"
       id="use286" />
    <use
       fill="#ecb865"
       xlink:href="#p48"
       id="use287" />
    <use
       fill="#dda767"
       xlink:href="#p49"
       id="use288" />
    <use
       fill="#ecbf6b"
       xlink:href="#p50"
       id="use289" />
    <use
       fill="#eedc9e"
       xlink:href="#p51"
       id="use290" />
    <use
       fill="#f5e58e"
       xlink:href="#p52"
       id="use291" />
    <use
       fill="#f8f0b5"
       xlink:href="#p53"
       id="use292" />
    <use
       fill="#e0c2a6"
       xlink:href="#p54"
       id="use293" />
    <use
       fill="#f1cc6b"
       xlink:href="#p55"
       id="use294" />
    <use
       fill="#e1c6ac"
       xlink:href="#p56"
       id="use295" />
    <use
       fill="#f4eee9"
       xlink:href="#p57"
       id="use296" />
    <use
       fill="#fbf8dd"
       xlink:href="#p58"
       id="use297" />
    <use
       fill="#f6e182"
       xlink:href="#p59"
       id="use298" />
    <use
       fill="#e1a85e"
       xlink:href="#p60"
       id="use299" />
    <use
       fill="#faf5b9"
       xlink:href="#p61"
       id="use300" />
    <use
       fill="#fcf9d7"
       xlink:href="#p62"
       id="use301" />
    <use
       fill="#e3be96"
       xlink:href="#p63"
       id="use302" />
    <use
       fill="#f1ce70"
       xlink:href="#p65"
       id="use304" />
    <use
       fill="#e0a969"
       xlink:href="#p66"
       id="use305" />
    <use
       fill="#eebd60"
       xlink:href="#p67"
       id="use306" />
    <use
       fill="#e7c478"
       xlink:href="#p68"
       id="use307" />
    <use
       fill="#dfa967"
       xlink:href="#p69"
       id="use308" />
    <use
       fill="#e8cbaf"
       xlink:href="#p70"
       id="use309" />
    <use
       fill="#e0a45f"
       xlink:href="#p71"
       id="use310" />
    <use
       fill="#e2c3a7"
       xlink:href="#p72"
       id="use311" />
    <use
       fill="#edcb84"
       xlink:href="#p73"
       id="use312" />
    <use
       fill="#eee4dc"
       xlink:href="#p74"
       id="use313" />
    <use
       fill="#e2ccbb"
       xlink:href="#p75"
       id="use314" />
    <use
       fill="#dcc1a6"
       xlink:href="#p76"
       id="use315" />
    <use
       fill="#e2c5a9"
       xlink:href="#p77"
       id="use316" />
    <use
       fill="#eee1d5"
       xlink:href="#p78"
       id="use317" />
    <use
       fill="#eeb95c"
       xlink:href="#p79"
       id="use318" />
    <use
       fill="#d04243"
       xlink:href="#p80"
       id="use319" />
    <use
       fill="#e4c3a2"
       xlink:href="#p81"
       id="use320" />
    <use
       fill="#efc061"
       xlink:href="#p82"
       id="use321" />
    <use
       fill="#f5d5c9"
       xlink:href="#p83"
       id="use322" />
    <use
       fill="#f9dcd1"
       xlink:href="#p84"
       id="use323" />
    <use
       fill="#c45b59"
       xlink:href="#p85"
       id="use324" />
    <use
       fill="#f1c1b7"
       xlink:href="#p86"
       id="use325" />
    <use
       fill="#e79e97"
       xlink:href="#p87"
       id="use326" />
    <use
       fill="#f6dbcf"
       xlink:href="#p88"
       id="use327" />
    <use
       fill="#b7524f"
       xlink:href="#p89"
       id="use328" />
    <use
       fill="#e99490"
       xlink:href="#p90"
       id="use329" />
    <use
       fill="#d7a26a"
       xlink:href="#p91"
       id="use330" />
    <use
       fill="#da9e61"
       xlink:href="#p92"
       id="use331" />
    <use
       fill="#df6a68"
       xlink:href="#p93"
       id="use332" />
    <use
       fill="#edb3ab"
       xlink:href="#p94"
       id="use333" />
    <use
       fill="#ca4c4c"
       xlink:href="#p95"
       id="use334" />
    <use
       fill="#ecb3ab"
       xlink:href="#p96"
       id="use335" />
    <use
       fill="#f6d5ca"
       xlink:href="#p97"
       id="use336" />
    <use
       fill="#ea9a98"
       xlink:href="#p98"
       id="use337" />
    <use
       fill="#f1c9bf"
       xlink:href="#p99"
       id="use338" />
    <use
       fill="#d57b78"
       xlink:href="#p100"
       id="use339" />
    <use
       fill="#d34547"
       xlink:href="#p101"
       id="use340" />
    <use
       fill="#e1c3a7"
       xlink:href="#p102"
       id="use341" />
    <use
       fill="#f1bfb6"
       xlink:href="#p103"
       id="use342" />
    <use
       fill="#e3817d"
       xlink:href="#p104"
       id="use343" />
    <use
       fill="#d6bba0"
       xlink:href="#p105"
       id="use344" />
    <use
       fill="#b04340"
       xlink:href="#p106"
       id="use345" />
    <use
       fill="#a8403b"
       xlink:href="#p107"
       id="use346" />
    <use
       fill="#f5dfd4"
       xlink:href="#p108"
       id="use347" />
    <use
       fill="#f8cac1"
       xlink:href="#p109"
       id="use348" />
    <use
       fill="#e06865"
       xlink:href="#p110"
       id="use349" />
    <use
       fill="#f0cbca"
       xlink:href="#p112"
       id="use351" />
    <use
       fill="#cf7b79"
       xlink:href="#p113"
       id="use352" />
    <use
       fill="#c98380"
       xlink:href="#p114"
       id="use353" />
    <use
       fill="#e78d87"
       xlink:href="#p115"
       id="use354" />
    <use
       fill="#f5e9e8"
       xlink:href="#p116"
       id="use355" />
    <use
       fill="#b6615e"
       xlink:href="#p117"
       id="use356" />
    <use
       fill="#d27676"
       xlink:href="#p118"
       id="use357" />
    <use
       fill="#ebc382"
       xlink:href="#p119"
       id="use358" />
    <use
       fill="#e06966"
       xlink:href="#p120"
       id="use359" />
    <use
       fill="#e2c0be"
       xlink:href="#p121"
       id="use360" />
    <use
       fill="#debc9e"
       xlink:href="#p122"
       id="use361" />
    <use
       fill="#e05a59"
       xlink:href="#p123"
       id="use362" />
    <use
       fill="#f7e5da"
       xlink:href="#p124"
       id="use363" />
    <use
       fill="#fae5d9"
       xlink:href="#p125"
       id="use364" />
    <use
       fill="#d75556"
       xlink:href="#p126"
       id="use365" />
    <use
       fill="#cc5252"
       xlink:href="#p127"
       id="use366" />
    <use
       fill="#ba3f3e"
       xlink:href="#p128"
       id="use367" />
    <use
       fill="#ce5e5e"
       xlink:href="#p129"
       id="use368" />
    <use
       fill="#efe5dc"
       xlink:href="#p130"
       id="use369" />
    <use
       fill="#eebebe"
       xlink:href="#p131"
       id="use370" />
    <use
       fill="#e5d0bc"
       xlink:href="#p132"
       id="use371" />
    <use
       fill="#eee5dc"
       xlink:href="#p133"
       id="use372" />
    <use
       fill="#ead1d0"
       xlink:href="#p134"
       id="use373" />
    <use
       fill="#ce3d3d"
       xlink:href="#p135"
       id="use374" />
    <use
       fill="#e98783"
       xlink:href="#p136"
       id="use375" />
    <use
       fill="#e67d7c"
       xlink:href="#p137"
       id="use376" />
    <use
       fill="#e99a94"
       xlink:href="#p138"
       id="use377" />
    <use
       fill="#d67575"
       xlink:href="#p139"
       id="use378" />
    <use
       fill="#d9b0ae"
       xlink:href="#p140"
       id="use379" />
    <use
       fill="#d49d9b"
       xlink:href="#p141"
       id="use380" />
    <use
       fill="#db8c8c"
       xlink:href="#p142"
       id="use381" />
    <use
       fill="#e3bc8f"
       xlink:href="#p143"
       id="use382" />
    <use
       fill="#bb7f7f"
       xlink:href="#p144"
       id="use383" />
    <use
       fill="#c8807e"
       xlink:href="#p145"
       id="use384" />
    <use
       fill="#e3cebb"
       xlink:href="#p146"
       id="use385" />
    <use
       fill="#c45c5b"
       xlink:href="#p147"
       id="use386" />
    <use
       fill="#e1abaa"
       xlink:href="#p148"
       id="use387" />
    <use
       fill="#d5aa7f"
       xlink:href="#p149"
       id="use388" />
    <use
       fill="#a15656"
       xlink:href="#p150"
       id="use389" />
    <use
       fill="#d07877"
       xlink:href="#p151"
       id="use390" />
    <use
       fill="#b87e7e"
       xlink:href="#p152"
       id="use391" />
    <use
       fill="#c06562"
       xlink:href="#p153"
       id="use392" />
    <use
       fill="#e7bdbd"
       xlink:href="#p154"
       id="use393" />
    <use
       fill="#8b3b3d"
       xlink:href="#p155"
       id="use394" />
    <use
       fill="#c8504f"
       xlink:href="#p156"
       id="use395" />
    <use
       fill="#cc4a49"
       xlink:href="#p157"
       id="use396" />
    <use
       fill="#c66866"
       xlink:href="#p158"
       id="use397" />
    <use
       fill="#dfa0a0"
       xlink:href="#p159"
       id="use398" />
    <use
       fill="#e3c0bf"
       xlink:href="#p160"
       id="use399" />
    <use
       fill="#e8b77b"
       xlink:href="#p161"
       id="use400" />
    <use
       fill="#dc9897"
       xlink:href="#p162"
       id="use401" />
    <use
       fill="#dbb0ae"
       xlink:href="#p163"
       id="use402" />
    <use
       fill="#ce9d9c"
       xlink:href="#p164"
       id="use403" />
    <use
       fill="#d07877"
       xlink:href="#p165"
       id="use404" />
    <use
       fill="#d39997"
       xlink:href="#p166"
       id="use405" />
    <use
       fill="#ce7f7d"
       xlink:href="#p167"
       id="use406" />
    <use
       fill="#dbaeac"
       xlink:href="#p168"
       id="use407" />
    <use
       fill="#c17674"
       xlink:href="#p169"
       id="use408" />
    <use
       fill="#dbafad"
       xlink:href="#p170"
       id="use409" />
    <use
       fill="#e3bf9c"
       xlink:href="#p171"
       id="use410" />
    <use
       fill="#8e3d3f"
       xlink:href="#p172"
       id="use411" />
    <use
       fill="#c86160"
       xlink:href="#p173"
       id="use412" />
    <use
       fill="#d18886"
       xlink:href="#p174"
       id="use413" />
    <use
       fill="#ebd1d0"
       xlink:href="#p175"
       id="use414" />
    <use
       fill="#f5eee6"
       xlink:href="#p176"
       id="use415" />
    <use
       fill="#e8b57f"
       xlink:href="#p177"
       id="use416" />
    <use
       fill="#cb605f"
       xlink:href="#p178"
       id="use417" />
    <use
       fill="#e2d0bf"
       xlink:href="#p179"
       id="use418" />
    <use
       fill="#d24949"
       xlink:href="#p180"
       id="use419" />
    <use
       fill="#e9d2d2"
       xlink:href="#p181"
       id="use420" />
    <use
       fill="#cb908e"
       xlink:href="#p182"
       id="use421" />
    <use
       fill="#de9c9c"
       xlink:href="#p183"
       id="use422" />
    <use
       fill="#c47674"
       xlink:href="#p184"
       id="use423" />
    <use
       fill="#e2acac"
       xlink:href="#p185"
       id="use424" />
    <use
       fill="#dfbe9f"
       xlink:href="#p186"
       id="use425" />
    <use
       fill="#ebd3b5"
       xlink:href="#p187"
       id="use426" />
    <use
       fill="#f1e1e0"
       xlink:href="#p188"
       id="use427" />
    <use
       fill="#f0c869"
       xlink:href="#p189"
       id="use428" />
    <use
       fill="#e6d0bb"
       xlink:href="#p190"
       id="use429" />
    <use
       fill="#cd4f4f"
       xlink:href="#p191"
       id="use430" />
    <use
       fill="#c74141"
       xlink:href="#p193"
       id="use432" />
    <use
       fill="#e4bdbc"
       xlink:href="#p194"
       id="use433" />
    <use
       fill="#e3c4a4"
       xlink:href="#p195"
       id="use434" />
    <use
       fill="#edb7b6"
       xlink:href="#p196"
       id="use435" />
    <use
       fill="#efcdcd"
       xlink:href="#p197"
       id="use436" />
    <use
       fill="#cf7776"
       xlink:href="#p198"
       id="use437" />
    <use
       fill="#eb9593"
       xlink:href="#p199"
       id="use438" />
    <use
       fill="#eeaeac"
       xlink:href="#p200"
       id="use439" />
    <use
       fill="#e47978"
       xlink:href="#p201"
       id="use440" />
    <use
       fill="#f4e0e0"
       xlink:href="#p202"
       id="use441" />
    <use
       fill="#e05d5c"
       xlink:href="#p203"
       id="use442" />
    <use
       fill="#c7706e"
       xlink:href="#p204"
       id="use443" />
    <use
       fill="#e4b0b0"
       xlink:href="#p205"
       id="use444" />
    <use
       fill="#e6cdb5"
       xlink:href="#p208"
       id="use447" />
    <use
       fill="#e8c0c0"
       xlink:href="#p209"
       id="use448" />
    <use
       fill="#c65f5e"
       xlink:href="#p210"
       id="use449" />
    <use
       fill="#e4cfbd"
       xlink:href="#p211"
       id="use450" />
    <use
       fill="#ecbfbf"
       xlink:href="#p212"
       id="use451" />
    <use
       fill="#e5a7a8"
       xlink:href="#p213"
       id="use452" />
    <use
       fill="#f5dddd"
       xlink:href="#p214"
       id="use453" />
    <use
       fill="#f5dede"
       xlink:href="#p215"
       id="use454" />
    <use
       fill="#c95757"
       xlink:href="#p216"
       id="use455" />
    <use
       fill="#ecb976"
       xlink:href="#p218"
       id="use457" />
    <use
       fill="#f1dddc"
       xlink:href="#p219"
       id="use458" />
    <use
       fill="#e2cebb"
       xlink:href="#p222"
       id="use461" />
    <use
       fill="#e5ceb9"
       xlink:href="#p223"
       id="use462" />
    <use
       fill="#d5b698"
       xlink:href="#p224"
       id="use463" />
    <use
       fill="#e6ceb8"
       xlink:href="#p225"
       id="use464" />
    <use
       fill="#f2dcdc"
       xlink:href="#p226"
       id="use465" />
    <use
       fill="#f5e1e1"
       xlink:href="#p227"
       id="use466" />
    <g
       id="g3">
      <use
         fill="#faf0f0"
         xlink:href="#p230"
         id="use469" />
      <use
         fill="#f8f0f0"
         xlink:href="#p192"
         id="use431" />
      <use
         fill="#f6ecec"
         xlink:href="#p207"
         id="use446" />
      <use
         fill="#faf0f0"
         xlink:href="#p206"
         id="use445" />
      <use
         fill="#faf0f0"
         xlink:href="#p220"
         id="use459" />
      <use
         fill="#faeeee"
         xlink:href="#p217"
         id="use456" />
      <use
         fill="#faecec"
         xlink:href="#p221"
         id="use460" />
      <use
         fill="#f9efef"
         xlink:href="#p228"
         id="use467" />
      <use
         fill="#f5e2e2"
         xlink:href="#p229"
         id="use468" />
      <use
         fill="#f9efef"
         xlink:href="#p231"
         id="use470"
         style="fill:#f9f9f9" />
    </g>
    <use
       fill="#ddc1a8"
       xlink:href="#p232"
       id="use471" />
    <use
       fill="#e2be92"
       xlink:href="#p233"
       id="use472" />
    <use
       fill="#e5d3c3"
       xlink:href="#p234"
       id="use473" />
    <use
       fill="#e2b879"
       xlink:href="#p235"
       id="use474" />
    <use
       fill="#e7d8cb"
       xlink:href="#p236"
       id="use475" />
    <use
       fill="#e4d3c5"
       xlink:href="#p237"
       id="use476" />
  </g>
</svg>
