<?xml version="1.0" encoding="UTF-8"?>
<svg version="1.1" xmlns="http://www.w3.org/2000/svg" width="200" height="200">
<path d="M0 0 C66 0 132 0 200 0 C200 66 200 132 200 200 C134 200 68 200 0 200 C0 134 0 68 0 0 Z " fill="#F0EAE0" transform="translate(0,0)"/>
<path d="M0 0 C-1.57719292 9.34694332 -6.3865011 17.33526632 -14 23 C-24.83333333 29 -24.83333333 29 -30 29 C-30 29.99 -30 30.98 -30 32 C-29.06027344 32.09087891 -29.06027344 32.09087891 -28.1015625 32.18359375 C-27.28429687 32.26738281 -26.46703125 32.35117187 -25.625 32.4375 C-24.81289062 32.51871094 -24.00078125 32.59992187 -23.1640625 32.68359375 C-21 33 -21 33 -19 34 C-19 34.66 -19 35.32 -19 36 C-18.278125 36.226875 -17.55625 36.45375 -16.8125 36.6875 C-9.50961879 40.09551123 -4.94946738 47.66391923 -1.4375 54.625 C-0.85871094 55.75164062 -0.27992188 56.87828125 0.31640625 58.0390625 C4.2559331 66.73719194 5.47094017 75.14394031 5.3125 84.625 C5.31572266 85.59695312 5.31894531 86.56890625 5.32226562 87.5703125 C5.20491518 103.4446279 -0.1740579 118.97453138 -11.25 130.5625 C-14 133 -14 133 -16 133 C-16 133.66 -16 134.32 -16 135 C-12.7 135.33 -9.4 135.66 -6 136 C-6 136.66 -6 137.32 -6 138 C-11.35797439 139.78024588 -16.01833487 140.29544996 -21.64453125 140.265625 C-22.45435959 140.26753845 -23.26418793 140.2694519 -24.09855652 140.27142334 C-25.80374463 140.27277753 -27.50894333 140.26913487 -29.21411133 140.26074219 C-31.79467516 140.25007369 -34.37453626 140.26064183 -36.95507812 140.2734375 C-45.22522701 140.27943623 -52.93940301 140.08763663 -61 138 C-60 136 -60 136 -57 135 C-54.66700175 134.96045766 -52.33291811 134.95598268 -50 135 C-50 134.34 -50 133.68 -50 133 C-50.57878906 132.75121094 -51.15757813 132.50242188 -51.75390625 132.24609375 C-59.73963684 127.8157493 -63.88699206 119.19088021 -67 111 C-67.30808594 110.19046875 -67.61617188 109.3809375 -67.93359375 108.546875 C-73.79386144 92.05961471 -72.58992889 71.26545309 -65.171875 55.55517578 C-59.77325914 44.63456151 -53.18202072 36.48493475 -41.625 31.5625 C-39 31 -39 31 -35 31 C-35.495 28.03 -35.495 28.03 -36 25 C-37.19625 24.731875 -38.3925 24.46375 -39.625 24.1875 C-43.37855376 23.25912994 -46.60088806 21.86951157 -50 20 C-50 19.34 -50 18.68 -50 18 C-50.89138672 17.61908203 -50.89138672 17.61908203 -51.80078125 17.23046875 C-55.99731942 14.88249447 -59.26162964 10.53904129 -60.60546875 5.91796875 C-60.875 4 -60.875 4 -61 1 C-53.52526849 0.35002335 -47.05449119 2.55640705 -41.1875 7.25 C-37.01082162 12.5006814 -33.51686045 17.10852739 -33 24 C-32.34 24 -31.68 24 -31 24 C-30.88914063 23.26652344 -30.77828125 22.53304687 -30.6640625 21.77734375 C-28.92092645 14.48693358 -23.20667269 8.01967582 -17 4 C-11.31025141 1.05417855 -6.40792023 -0.55721045 0 0 Z " fill="#55752F" transform="translate(132,12)"/>
<path d="M0 0 C-1.57719292 9.34694332 -6.3865011 17.33526632 -14 23 C-24.83333333 29 -24.83333333 29 -30 29 C-30 29.99 -30 30.98 -30 32 C-29.06027344 32.09087891 -29.06027344 32.09087891 -28.1015625 32.18359375 C-27.28429687 32.26738281 -26.46703125 32.35117187 -25.625 32.4375 C-24.81289062 32.51871094 -24.00078125 32.59992187 -23.1640625 32.68359375 C-21 33 -21 33 -19 34 C-19 34.66 -19 35.32 -19 36 C-18.278125 36.226875 -17.55625 36.45375 -16.8125 36.6875 C-9.50961879 40.09551123 -4.94946738 47.66391923 -1.4375 54.625 C-0.85871094 55.75164062 -0.27992188 56.87828125 0.31640625 58.0390625 C4.2835418 66.80297141 5.45237503 75.20042849 5.25 84.75 C5.24484375 85.73871094 5.2396875 86.72742188 5.234375 87.74609375 C5.17906666 92.92433721 4.88378796 97.89683724 4 103 C2.50952148 101.82714844 2.50952148 101.82714844 1 100 C0.72290039 97.60253906 0.72290039 97.60253906 0.84765625 94.765625 C0.87843262 93.7235791 0.90920898 92.6815332 0.94091797 91.60791016 C0.98104004 90.4997998 1.02116211 89.39168945 1.0625 88.25 C1.33075133 72.7025074 -0.85167657 58.11836193 -11.625 46.0625 C-12.40875 45.381875 -13.1925 44.70125 -14 44 C-15.33333333 42.66666667 -16.66666667 41.33333333 -18 40 C-18.2784375 41.11375 -18.2784375 41.11375 -18.5625 42.25 C-20.12464883 45.23845863 -21.66655116 46.70539093 -24.6484375 48.28515625 C-29.60795067 49.79278235 -34.87687602 49.27734205 -40 49 C-40 48.34 -40 47.68 -40 47 C-40.969375 46.7525 -41.93875 46.505 -42.9375 46.25 C-44.4534375 45.63125 -44.4534375 45.63125 -46 45 C-46.69140625 42.921875 -46.69140625 42.921875 -47 41 C-56.67133094 45.49026079 -60.42345381 53.906034 -64.390625 63.2890625 C-69.88348056 79.49685462 -68.46448539 98.66373709 -61.57421875 114.21875 C-60.17002583 116.91828367 -58.67293264 119.4599452 -57 122 C-56.61070313 122.60328125 -56.22140625 123.2065625 -55.8203125 123.828125 C-52.51569336 128.34063941 -47.89909782 130.58780805 -43 133 C-43 133.66 -43 134.32 -43 135 C-31.51777804 135.39899613 -24.49086779 134.56080836 -14.796875 127.98828125 C-13 127 -13 127 -10 127 C-11.04874998 129.62187494 -11.64931313 130.79371361 -14.125 132.25 C-14.74375 132.4975 -15.3625 132.745 -16 133 C-16 133.66 -16 134.32 -16 135 C-12.7 135.33 -9.4 135.66 -6 136 C-6 136.66 -6 137.32 -6 138 C-11.35797439 139.78024588 -16.01833487 140.29544996 -21.64453125 140.265625 C-22.45435959 140.26753845 -23.26418793 140.2694519 -24.09855652 140.27142334 C-25.80374463 140.27277753 -27.50894333 140.26913487 -29.21411133 140.26074219 C-31.79467516 140.25007369 -34.37453626 140.26064183 -36.95507812 140.2734375 C-45.22522701 140.27943623 -52.93940301 140.08763663 -61 138 C-60 136 -60 136 -57 135 C-54.66700175 134.96045766 -52.33291811 134.95598268 -50 135 C-50 134.34 -50 133.68 -50 133 C-50.57878906 132.75121094 -51.15757813 132.50242188 -51.75390625 132.24609375 C-59.73963684 127.8157493 -63.88699206 119.19088021 -67 111 C-67.30808594 110.19046875 -67.61617188 109.3809375 -67.93359375 108.546875 C-73.79386144 92.05961471 -72.58992889 71.26545309 -65.171875 55.55517578 C-59.77325914 44.63456151 -53.18202072 36.48493475 -41.625 31.5625 C-39 31 -39 31 -35 31 C-35.495 28.03 -35.495 28.03 -36 25 C-37.19625 24.731875 -38.3925 24.46375 -39.625 24.1875 C-43.37855376 23.25912994 -46.60088806 21.86951157 -50 20 C-50 19.34 -50 18.68 -50 18 C-50.89138672 17.61908203 -50.89138672 17.61908203 -51.80078125 17.23046875 C-55.99731942 14.88249447 -59.26162964 10.53904129 -60.60546875 5.91796875 C-60.875 4 -60.875 4 -61 1 C-53.52526849 0.35002335 -47.05449119 2.55640705 -41.1875 7.25 C-37.01082162 12.5006814 -33.51686045 17.10852739 -33 24 C-32.34 24 -31.68 24 -31 24 C-30.88914063 23.26652344 -30.77828125 22.53304687 -30.6640625 21.77734375 C-28.92092645 14.48693358 -23.20667269 8.01967582 -17 4 C-11.31025141 1.05417855 -6.40792023 -0.55721045 0 0 Z " fill="#1E2319" transform="translate(132,12)"/>
<path d="M0 0 C0.33 0.66 0.66 1.32 1 2 C0.30767954 3.83464922 -0.3880294 5.66806883 -1.09765625 7.49609375 C-7.33389053 24.80096895 -6.68534896 42.49534918 0.42578125 59.38671875 C4.5287957 68.00622972 8.40428341 73.61786997 17 78 C17 78.66 17 79.32 17 80 C23.96779403 81.32719886 30.92988911 81.08825381 38 81 C38 80.34 38 79.68 38 79 C37.46375 78.938125 36.9275 78.87625 36.375 78.8125 C32.47007398 77.47660426 28.8683015 74.73660299 27 71 C25.28489096 70.54711771 23.55158458 70.16219447 21.8125 69.8125 C15.95554348 68.3007823 13.10416385 66.14525789 10 61 C7.73033955 56.46067911 6.2955135 51.88308936 5 47 C4.34 47 3.68 47 3 47 C3.6875 44.5625 3.6875 44.5625 5 42 C7.625 41.1875 7.625 41.1875 10 41 C12 44.75 12 44.75 12 47 C17.20545852 51.5409319 21.1420136 52.82893911 28 53 C28.226875 52.236875 28.45375 51.47375 28.6875 50.6875 C30.3342405 47.31560279 31.55878802 46.45295617 35 45 C39.50347861 44.5979037 43.05470214 44.71588019 47 47 C52.0881362 51.73314995 53.10248117 56.22172344 54 63 C54.18175781 62.30132812 54.36351562 61.60265625 54.55078125 60.8828125 C54.80214844 59.97273438 55.05351562 59.06265625 55.3125 58.125 C55.55613281 57.22007813 55.79976563 56.31515625 56.05078125 55.3828125 C57 53 57 53 60 51 C60.16058997 60.95657841 56.01432972 70.38604556 49.515625 77.85546875 C47.03441482 79.9706619 46.06761149 80.42482285 43 81 C41.30712215 81.95495674 39.64142963 82.9590934 38 84 C32.71456074 87.35174197 29.18661756 88.14048728 22.9375 88.125 C21.89464844 88.12757813 20.85179687 88.13015625 19.77734375 88.1328125 C17 88 17 88 14 87 C14 86.34 14 85.68 14 85 C13.113125 84.773125 12.22625 84.54625 11.3125 84.3125 C7.43953027 82.77792709 5.75833343 81.10312511 3 78 C2.5153125 77.50628906 2.030625 77.01257813 1.53125 76.50390625 C-9.98519446 64.25299467 -11.78668283 47.17702935 -11.34765625 31.10546875 C-10.81058864 20.70098699 -7.60676683 7.60676683 0 0 Z " fill="#121F13" transform="translate(75,60)"/>
<path d="M0 0 C6.13913311 0.12789861 8.93600433 2.18213527 13.3984375 6.30859375 C15 8 15 8 16 10 C16.99 9.34 17.98 8.68 19 8 C19 10.31 19 12.62 19 15 C19.721875 14.236875 20.44375 13.47375 21.1875 12.6875 C25.39021267 8.67157456 27.96149654 6.830813 33.8125 6.8125 C35.20891272 6.86033796 36.60517921 6.91795172 38 7 C38.495 8.98 38.495 8.98 39 11 C38.00419922 11.03867188 38.00419922 11.03867188 36.98828125 11.078125 C31.51393662 11.42976174 27.8830784 11.74113982 24 16 C23.67 16.99 23.34 17.98 23 19 C28.28 19 33.56 19 39 19 C38.67 17.35 38.34 15.7 38 14 C40.67089376 16.20547068 41.89002471 17.3704564 42.49609375 20.83984375 C42.47675781 21.86207031 42.45742187 22.88429688 42.4375 23.9375 C42.43621094 24.95714844 42.43492187 25.97679688 42.43359375 27.02734375 C41.8312741 31.15676048 40.12442123 33.79228831 37.3125 36.8125 C33.920356 38.55441178 30.69231196 38.55054353 27 38 C23.41447119 36.36312815 22.20684945 35.31027417 20 32 C19.21625 32.825 18.4325 33.65 17.625 34.5 C15 37 15 37 13 37 C13 37.66 13 38.32 13 39 C9.10835652 40.29721449 6.10570774 40.13033993 2 40 C1.34 39.67 0.68 39.34 0 39 C0 38.34 0 37.68 0 37 C-0.598125 36.773125 -1.19625 36.54625 -1.8125 36.3125 C-5.12778063 34.32333162 -6.31370589 31.37258822 -8 28 C-8.41117124 23.13287996 -8.59748065 18.28584307 -6 14 C-3.875 12.6875 -3.875 12.6875 -2 12 C-2.66 13.98 -3.32 15.96 -4 18 C-3.23816406 17.98839844 -2.47632812 17.97679688 -1.69140625 17.96484375 C4.63840322 17.90952706 10.72555549 18.1634074 17 19 C16.54625 18.0925 16.0925 17.185 15.625 16.25 C14 13 14 13 13.16796875 10.8984375 C11.64058068 8.41579335 10.45881803 8.14817444 7.6875 7.375 C6.48867187 7.02115234 6.48867187 7.02115234 5.265625 6.66015625 C4.51796875 6.44230469 3.7703125 6.22445312 3 6 C1.32636023 5.35103764 -0.34461042 4.69419563 -2 4 C-1.34 2.68 -0.68 1.36 0 0 Z " fill="#111F13" transform="translate(89,65)"/>
<path d="M0 0 C-0.33 0.66 -0.66 1.32 -1 2 C-2.32 2 -3.64 2 -5 2 C-5 2.66 -5 3.32 -5 4 C-6.32 4.33 -7.64 4.66 -9 5 C-8.21869929 7.49552484 -8.21869929 7.49552484 -7 10 C-3.68002061 11.1066598 -1.05693373 11.20240272 2.4375 11.25 C3.57058594 11.27578125 4.70367187 11.3015625 5.87109375 11.328125 C9.25247115 10.97352363 10.63171903 10.39737534 13 8 C13.22609337 5.87635519 13.22609337 5.87635519 11.5 4.375 C11.005 3.92125 10.51 3.4675 10 3 C10.33 2.01 10.66 1.02 11 0 C13.475 0.495 13.475 0.495 16 1 C16 1.66 16 2.32 16 3 C16.721875 3.226875 17.44375 3.45375 18.1875 3.6875 C25.49038121 7.09551123 30.05053262 14.66391923 33.5625 21.625 C34.14128906 22.75164062 34.72007812 23.87828125 35.31640625 25.0390625 C39.2835418 33.80297141 40.45237503 42.20042849 40.25 51.75 C40.24484375 52.73871094 40.2396875 53.72742188 40.234375 54.74609375 C40.17906666 59.92433721 39.88378796 64.89683724 39 70 C37.50952148 68.82714844 37.50952148 68.82714844 36 67 C35.72290039 64.60253906 35.72290039 64.60253906 35.84765625 61.765625 C35.87843262 60.7235791 35.90920898 59.6815332 35.94091797 58.60791016 C35.98104004 57.4997998 36.02116211 56.39168945 36.0625 55.25 C36.33075133 39.7025074 34.14832343 25.11836193 23.375 13.0625 C22.59125 12.381875 21.8075 11.70125 21 11 C19.66666667 9.66666667 18.33333333 8.33333333 17 7 C16.7215625 8.11375 16.7215625 8.11375 16.4375 9.25 C14.87535117 12.23845863 13.33344884 13.70539093 10.3515625 15.28515625 C5.39204933 16.79278235 0.12312398 16.27734205 -5 16 C-5 15.34 -5 14.68 -5 14 C-5.969375 13.7525 -6.93875 13.505 -7.9375 13.25 C-8.948125 12.8375 -9.95875 12.425 -11 12 C-11.69140625 9.921875 -11.69140625 9.921875 -12 8 C-21.67133094 12.49026079 -25.42345381 20.906034 -29.390625 30.2890625 C-34.88348056 46.49685462 -33.46448539 65.66373709 -26.57421875 81.21875 C-25.17002583 83.91828367 -23.67293264 86.4599452 -22 89 C-21.61070313 89.60328125 -21.22140625 90.2065625 -20.8203125 90.828125 C-17.51569336 95.34063941 -12.89909782 97.58780805 -8 100 C-8 100.66 -8 101.32 -8 102 C3.48222196 102.39899613 10.50913221 101.56080836 20.203125 94.98828125 C22 94 22 94 25 94 C23.95125002 96.62187494 23.35068687 97.79371361 20.875 99.25 C20.25625 99.4975 19.6375 99.745 19 100 C19 100.66 19 101.32 19 102 C22.3 102.33 25.6 102.66 29 103 C29 103.66 29 104.32 29 105 C23.64202561 106.78024588 18.98166513 107.29544996 13.35546875 107.265625 C12.54564041 107.26753845 11.73581207 107.2694519 10.90144348 107.27142334 C9.19625537 107.27277753 7.49105667 107.26913487 5.78588867 107.26074219 C3.20532484 107.25007369 0.62546374 107.26064183 -1.95507812 107.2734375 C-10.22522701 107.27943623 -17.93940301 107.08763663 -26 105 C-25 103 -25 103 -22 102 C-19.66700175 101.96045766 -17.33291811 101.95598268 -15 102 C-15 101.34 -15 100.68 -15 100 C-15.57878906 99.75121094 -16.15757813 99.50242187 -16.75390625 99.24609375 C-24.73963684 94.8157493 -28.88699206 86.19088021 -32 78 C-32.30808594 77.19046875 -32.61617188 76.3809375 -32.93359375 75.546875 C-38.79386144 59.05961471 -37.58992889 38.26545309 -30.171875 22.55517578 C-25.7440543 13.59833886 -20.7645545 6.27256237 -12 1 C-7.97998622 -0.12560386 -4.16262093 -0.09911002 0 0 Z " fill="#132015" transform="translate(97,45)"/>
<path d="M0 0 C10.73736044 -0.85975306 10.73736044 -0.85975306 14.5 2.0625 C18.66084304 6.95149057 20.57770152 11.63347142 20.28125 18.01953125 C19.52493176 23.34527218 17.2880759 27.83421467 12.94140625 31.11328125 C8.77569517 33.01592997 4.42688429 32.83130804 0 32 C-4.48603124 28.91585353 -6.34889677 25.12711002 -8 20 C-8.82609772 14.26258158 -7.68782976 10.07701176 -5 5 C-3.4375 3.0625 -3.4375 3.0625 -2 2 C-1.34 2 -0.68 2 0 2 C0 1.34 0 0.68 0 0 Z " fill="#152019" transform="translate(53,161)"/>
<path d="M0 0 C0.33 0.66 0.66 1.32 1 2 C0.30767954 3.83464922 -0.3880294 5.66806883 -1.09765625 7.49609375 C-7.33389053 24.80096895 -6.68534896 42.49534918 0.42578125 59.38671875 C4.5287957 68.00622972 8.40428341 73.61786997 17 78 C17 78.66 17 79.32 17 80 C23.96779403 81.32719886 30.92988911 81.08825381 38 81 C38 80.34 38 79.68 38 79 C37.01 78.67 36.02 78.34 35 78 C37.64 78.33 40.28 78.66 43 79 C41.78995454 82.63013639 40.96377988 82.87693578 37.6875 84.625 C36.90761719 85.05039063 36.12773438 85.47578125 35.32421875 85.9140625 C31.11359871 87.88137741 27.5778105 88.13650015 22.9375 88.125 C21.89464844 88.12757813 20.85179687 88.13015625 19.77734375 88.1328125 C17 88 17 88 14 87 C14 86.34 14 85.68 14 85 C13.113125 84.773125 12.22625 84.54625 11.3125 84.3125 C7.43953027 82.77792709 5.75833343 81.10312511 3 78 C2.5153125 77.50628906 2.030625 77.01257813 1.53125 76.50390625 C-9.98519446 64.25299467 -11.78668283 47.17702935 -11.34765625 31.10546875 C-10.81058864 20.70098699 -7.60676683 7.60676683 0 0 Z " fill="#3C5821" transform="translate(75,60)"/>
<path d="M0 0 C4.27360523 2.52531218 6.27759317 5.37669747 8 10 C8.68336774 16.37809887 7.06249933 20.27455446 3.25 25.3125 C0.1390943 27.64567927 -2.138275 27.93225044 -6 28 C-9.82341571 26.66625034 -11.40585129 24.68330099 -13.3125 21.25 C-15.06924561 17.30452216 -15.69857942 14.34671642 -15 10 C-11.60098366 2.8776337 -8.40327445 -0.86930425 0 0 Z " fill="#C88520" transform="translate(118,108)"/>
<path d="M0 0 C5.61 0 11.22 0 17 0 C17 1.65 17 3.3 17 5 C16 6 16 6 13.71484375 6.09765625 C12.34005859 6.08025391 12.34005859 6.08025391 10.9375 6.0625 C10.01839844 6.05347656 9.09929687 6.04445312 8.15234375 6.03515625 C7.44207031 6.02355469 6.73179687 6.01195312 6 6 C6 7.65 6 9.3 6 11 C8.97 11 11.94 11 15 11 C15 13.31 15 15.62 15 18 C12.03 18 9.06 18 6 18 C6 19.98 6 21.96 6 24 C9.63 24 13.26 24 17 24 C17 26.31 17 28.62 17 31 C11.39 31 5.78 31 0 31 C0 20.77 0 10.54 0 0 Z " fill="#142018" transform="translate(138,162)"/>
<path d="M0 0 C2.31 0 4.62 0 7 0 C8.65 6.27 10.3 12.54 12 19 C12.33 19 12.66 19 13 19 C15.475 9.595 15.475 9.595 18 0 C20.31 0 22.62 0 25 0 C22.60471932 10.52662823 19.31780699 20.73519909 16 31 C13.69 31 11.38 31 9 31 C6.66103182 24.96644546 4.66531123 18.88641164 2.8125 12.6875 C2.53986328 11.79482422 2.26722656 10.90214844 1.98632812 9.98242188 C1.72916016 9.12583984 1.47199219 8.26925781 1.20703125 7.38671875 C0.9747583 6.61545654 0.74248535 5.84419434 0.50317383 5.04956055 C0 3 0 3 0 0 Z " fill="#101E15" transform="translate(109,162)"/>
<path d="M0 0 C7.47473151 -0.64997665 13.94550881 1.55640705 19.8125 6.25 C27.64198688 16.09278351 27.64198688 16.09278351 28 22 C27 23 27 23 23.4375 23.3125 C18.60030652 23.28625844 15.08636487 21.43443013 11 19 C11 18.34 11 17.68 11 17 C10.10861328 16.61908203 10.10861328 16.61908203 9.19921875 16.23046875 C5.00268058 13.88249447 1.73837036 9.53904129 0.39453125 4.91796875 C0.125 3 0.125 3 0 0 Z " fill="#152118" transform="translate(71,13)"/>
<path d="M0 0 C-1.04874998 2.62187494 -1.64931313 3.79371361 -4.125 5.25 C-5.053125 5.62125 -5.053125 5.62125 -6 6 C-6 6.66 -6 7.32 -6 8 C-2.7 8.33 0.6 8.66 4 9 C4 9.66 4 10.32 4 11 C-1.35797439 12.78024588 -6.01833487 13.29544996 -11.64453125 13.265625 C-12.45435959 13.26753845 -13.26418793 13.2694519 -14.09855652 13.27142334 C-15.80374463 13.27277753 -17.50894333 13.26913487 -19.21411133 13.26074219 C-21.79467516 13.25007369 -24.37453626 13.26064183 -26.95507812 13.2734375 C-35.22522701 13.27943623 -42.93940301 13.08763663 -51 11 C-50 9 -50 9 -47 8 C-45.60560336 7.93334624 -44.20830125 7.91461801 -42.8125 7.9375 C-40.9253125 7.9684375 -40.9253125 7.9684375 -39 8 C-38.67 7.01 -38.34 6.02 -38 5 C-36.35 5.33 -34.7 5.66 -33 6 C-33 6.66 -33 7.32 -33 8 C-21.51777804 8.39899613 -14.49086779 7.56080836 -4.796875 0.98828125 C-3 0 -3 0 0 0 Z " fill="#0D1911" transform="translate(122,139)"/>
<path d="M0 0 C2.31 0 4.62 0 7 0 C7 7.92 7 15.84 7 24 C10.3 24 13.6 24 17 24 C17 26.31 17 28.62 17 31 C11.39 31 5.78 31 0 31 C0 20.77 0 10.54 0 0 Z " fill="#17231B" transform="translate(77,162)"/>
<path d="M0 0 C3.72195354 1.24065118 4.44129958 1.84686291 6.375 5.125 C7.36093145 10.17789869 7.11864593 14.0095311 4.25 18.3125 C1.375 20.125 1.375 20.125 -1.75 20.125 C-4.60936501 19.13043826 -5.86283385 18.53638526 -7.625 16.125 C-8.97953812 12.06138564 -9.67048943 8.31443302 -7.75390625 4.30078125 C-5.38145631 0.96379428 -4.09948585 0.14136158 0 0 Z " fill="#EEE8DF" transform="translate(59.625,166.875)"/>
<path d="M0 0 C2.31 0 4.62 0 7 0 C7.12375 1.11375 7.2475 2.2275 7.375 3.375 C7.6465813 7.03103677 7.6465813 7.03103677 10 9 C12.60280568 8.67958603 12.60280568 8.67958603 15 8 C15.33 7.01 15.66 6.02 16 5 C15.01 4.67 14.02 4.34 13 4 C13 3.01 13 2.02 13 1 C16.3 1 19.6 1 23 1 C23.50432107 6.2953712 22.28757779 8.86704506 19 13 C14.97297943 15.68468038 11.7315637 15.68187737 7 15 C3.52939832 12.93240751 1.22274607 10.89055567 0 7 C-0.0777346 4.66796188 -0.08967728 2.33160941 0 0 Z " fill="#E3DFD7" transform="translate(84,86)"/>
<path d="M0 0 C2.31 0 4.62 0 7 0 C7 10.23 7 20.46 7 31 C4.69 31 2.38 31 0 31 C0 20.77 0 10.54 0 0 Z " fill="#19251D" transform="translate(98,162)"/>
<path d="M0 0 C2.98356441 1.81608269 4.61660986 2.93830422 5.8125 6.25 C5.874375 6.8275 5.93625 7.405 6 8 C2 6 2 6 0.125 4.8125 C-2.97741261 3.62628341 -4.86367495 3.9990452 -8 5 C-10.76360606 7.94784647 -11.23765115 10.64933065 -11.4375 14.5625 C-11.31382259 17.6544353 -11.08582397 18.85924868 -9.4375 21.5625 C-6.01693383 23.57975697 -3.90126052 23.6269883 0 23 C2.73954281 20.33449889 4.45380182 17.4789459 6 14 C6.33 14 6.66 14 7 14 C7.50338797 19.28557366 6.34676996 21.90950339 3 26 C0.39737758 28.13786842 -1.74641635 28.13030496 -5 27.9375 C-8.1915065 27.4332657 -8.91629934 27.07929536 -11.375 24.75 C-14.36844432 19.68417115 -15.70907534 15.97649216 -15 10 C-11.64007202 2.86661444 -8.37157637 -0.86602514 0 0 Z " fill="#C99A2A" transform="translate(118,108)"/>
<path d="M0 0 C1.67542976 0.28604898 3.34385343 0.61781233 5 1 C5.020625 1.721875 5.04125 2.44375 5.0625 3.1875 C6.46217363 7.3865209 9.12401216 9.04416083 13 11 C15.97179629 11.91367429 18.92805852 12.5332878 22 13 C20 15 20 15 16.875 15.375 C12.19454654 14.92205289 9.01333996 13.33503416 5 11 C6.60243812 17.45192191 8.21686609 21.21872013 14 25 C16.30790767 26.14468513 18.58597154 27.08266919 21 28 C21 28.33 21 28.66 21 29 C14.98089499 28.97270247 10.90140026 28.11966761 6.5 23.87109375 C2.37582618 18.72661651 0.60749858 12.29603612 -1 6 C-1.66 6 -2.32 6 -3 6 C-1.125 1.125 -1.125 1.125 0 0 Z " fill="#0F1D11" transform="translate(81,101)"/>
<path d="M0 0 C-2.0657246 8.2628984 -7.27506988 14.04678654 -14.09765625 18.87890625 C-16.36465955 20.21490203 -18.37103183 20.83568949 -21 21 C-19.02 18.03 -19.02 18.03 -17 15 C-18.98 15.99 -18.98 15.99 -21 17 C-21 12.69524102 -18.88566742 11.10247441 -16.078125 8.00390625 C-11.63511464 3.71957483 -6.33490806 0 0 0 Z " fill="#516F2E" transform="translate(128,15)"/>
<path d="M0 0 C9.59712506 10.30802322 12.5382502 25.14819373 12.25 38.75 C12.24484375 39.73871094 12.2396875 40.72742188 12.234375 41.74609375 C12.17906666 46.92433721 11.88378796 51.89683724 11 57 C9.50952148 55.82714844 9.50952148 55.82714844 8 54 C7.72290039 51.60253906 7.72290039 51.60253906 7.84765625 48.765625 C7.87835205 47.72341797 7.90904785 46.68121094 7.94067383 45.60742188 C7.98087646 44.49947266 8.0210791 43.39152344 8.0625 42.25 C8.29332407 29.367994 7.36302222 17.89379785 -0.14453125 6.9296875 C-1.3001084 4.32304316 -0.75767852 2.68673732 0 0 Z " fill="#18261B" transform="translate(125,58)"/>
<path d="M0 0 C-1.61469003 9.56916303 -6.55685353 16.90217667 -14 23 C-17.87964431 25.38747342 -19.41371652 26 -24 26 C-23 23 -23 23 -20.25 21.5625 C-19.1775 21.046875 -18.105 20.53125 -17 20 C-13.09072443 17.23505351 -10.73420624 14.45305538 -8.25 10.375 C-7.65703125 9.41335937 -7.0640625 8.45171875 -6.453125 7.4609375 C-5.59028852 5.99968216 -4.75891422 4.51782844 -4 3 C-9.79680964 5.15375536 -15.00826776 7.32188151 -20 11 C-20 7 -20 7 -18.796875 5.38671875 C-13.32892013 1.16688401 -6.79540425 -0.59090472 0 0 Z " fill="#17221A" transform="translate(132,12)"/>
<path d="M0 0 C0.66 0 1.32 0 2 0 C2.33 2.64 2.66 5.28 3 8 C5.31 8 7.62 8 10 8 C10.33 6.68 10.66 5.36 11 4 C10.01 3.67 9.02 3.34 8 3 C8 2.01 8 1.02 8 0 C11.63 0 15.26 0 19 0 C19.50432107 5.2953712 18.28757779 7.86704506 15 12 C12 14 12 14 8.5625 13.9375 C4.35363535 12.82990404 3.28977547 11.61079978 1 8 C-0.35439668 5.29120665 -0.06501451 2.99066732 0 0 Z " fill="#E3DFD8" transform="translate(110,87)"/>
<path d="M0 0 C0.66 0.33 1.32 0.66 2 1 C1.34 2.65 0.68 4.3 0 6 C3.96 6 7.92 6 12 6 C12 6.33 12 6.66 12 7 C5.565 7.495 5.565 7.495 -1 8 C-0.01815345 14.95678407 -0.01815345 14.95678407 3.0625 21.125 C7.12688841 23.71929048 10.30503277 23.65070598 15 23 C18.41471924 22.11539972 18.41471924 22.11539972 21 21 C20.34 22.32 19.68 23.64 19 25 C18.34 25 17.68 25 17 25 C17 25.66 17 26.32 17 27 C13.10835652 28.29721449 10.10570774 28.13033993 6 28 C5.34 27.67 4.68 27.34 4 27 C4 26.34 4 25.68 4 25 C3.401875 24.773125 2.80375 24.54625 2.1875 24.3125 C-1.12778063 22.32333162 -2.31370589 19.37258822 -4 16 C-4.42033377 11.02442114 -4.44085489 6.47490063 -2 2 C-1.34 1.34 -0.68 0.68 0 0 Z " fill="#142313" transform="translate(85,77)"/>
<path d="M0 0 C0.81984375 0.34933594 1.6396875 0.69867188 2.484375 1.05859375 C3.56203125 1.51363281 4.6396875 1.96867187 5.75 2.4375 C7.35101563 3.11619141 7.35101563 3.11619141 8.984375 3.80859375 C11.3413841 4.73979553 13.52992835 5.4784072 16 6 C15.7215625 7.36125 15.7215625 7.36125 15.4375 8.75 C15.04265379 11.68314324 15.05308428 13.2644657 16 16 C12.98716918 16.44090207 10.81839342 16.48171258 8.1484375 14.91015625 C3.81798668 11.43658187 1.69065972 8.27088031 0 3 C0 2.01 0 1.02 0 0 Z " fill="#253314" transform="translate(85,111)"/>
<path d="M0 0 C1.32 0.66 2.64 1.32 4 2 C3.01 2 2.02 2 1 2 C1.5053125 2.54269531 2.010625 3.08539062 2.53125 3.64453125 C3.1809375 4.35996094 3.830625 5.07539063 4.5 5.8125 C5.1496875 6.52019531 5.799375 7.22789063 6.46875 7.95703125 C8 10 8 10 8 13 C6.02 11.35 4.04 9.7 2 8 C4.54604597 11.52381687 4.54604597 11.52381687 8 14 C8 14.66 8 15.32 8 16 C-0.10041181 13.68559663 -4.59454962 9.99689178 -9 3 C-9 2.34 -9 1.68 -9 1 C-7.700625 1.020625 -6.40125 1.04125 -5.0625 1.0625 C-3.70834367 1.08399454 -2.35243917 1.07148199 -1 1 C-0.67 0.67 -0.34 0.34 0 0 Z " fill="#375022" transform="translate(84,16)"/>
<path d="M0 0 C1.32 0 2.64 0 4 0 C4 0.66 4 1.32 4 2 C4.66 2 5.32 2 6 2 C6.66 5.3 7.32 8.6 8 12 C6.68 12.33 5.36 12.66 4 13 C3.67 13.99 3.34 14.98 3 16 C2.01 16 1.02 16 0 16 C0 15.34 0 14.68 0 14 C-0.66 14 -1.32 14 -2 14 C-2 10.04 -2 6.08 -2 2 C-1.34 2 -0.68 2 0 2 C0 1.34 0 0.68 0 0 Z " fill="#DDB884" transform="translate(112,114)"/>
<path d="M0 0 C-0.33 0.66 -0.66 1.32 -1 2 C-2.32 2 -3.64 2 -5 2 C-5 2.66 -5 3.32 -5 4 C-6.32 4.33 -7.64 4.66 -9 5 C-8.43923199 7.49004504 -8.43923199 7.49004504 -7 10 C-3.97017694 11.37189827 -3.97017694 11.37189827 -1 12 C-1 12.66 -1 13.32 -1 14 C1.64 14 4.28 14 7 14 C7 14.33 7 14.66 7 15 C-6.30715643 15.58138062 -6.30715643 15.58138062 -11 12 C-12.375 9.3125 -12.375 9.3125 -13 7 C-14.32 7.33 -15.64 7.66 -17 8 C-17 7.01 -17 6.02 -17 5 C-11.91354335 -0.08645665 -6.89024955 -0.16405356 0 0 Z " fill="#111C14" transform="translate(97,45)"/>
<path d="M0 0 C6.27 0 12.54 0 19 0 C19.33 0.66 19.66 1.32 20 2 C18.02 2.33 16.04 2.66 14 3 C14 3.99 14 4.98 14 6 C14.66 6.33 15.32 6.66 16 7 C15.67 8.32 15.34 9.64 15 11 C12.6875 11.6875 12.6875 11.6875 10 12 C8.1875 11 8.1875 11 7 9 C6.8125 5.3125 6.8125 5.3125 7 2 C4.36 2 1.72 2 -1 2 C-0.67 1.34 -0.34 0.68 0 0 Z " fill="#0B150F" transform="translate(84,84)"/>
<path d="M0 0 C0 0.66 0 1.32 0 2 C-1.65 2.33 -3.3 2.66 -5 3 C-5 3.99 -5 4.98 -5 6 C-1.04 6.33 2.92 6.66 7 7 C7 6.34 7 5.68 7 5 C7.66 5 8.32 5 9 5 C9 4.34 9 3.68 9 3 C6.525 2.505 6.525 2.505 4 2 C4 1.34 4 0.68 4 0 C10.625 0.75 10.625 0.75 14 3 C12.63016497 6.16115776 12.0109362 6.9927092 9 9 C6.0390625 9.30078125 6.0390625 9.30078125 2.625 9.3125 C0.94277344 9.33763672 0.94277344 9.33763672 -0.7734375 9.36328125 C-4.33675648 8.96208432 -6.2437038 8.2865903 -9 6 C-9 4.68 -9 3.36 -9 2 C-5.86501708 0.14223235 -3.62528568 -0.20140476 0 0 Z " fill="#BE4224" transform="translate(97,48)"/>
<path d="M0 0 C0.74886475 0.00523682 1.49772949 0.01047363 2.26928711 0.01586914 C3.07817383 0.0190918 3.88706055 0.02231445 4.72045898 0.02563477 C5.5705957 0.03401367 6.42073242 0.04239258 7.29663086 0.05102539 C8.15063477 0.05553711 9.00463867 0.06004883 9.88452148 0.06469727 C12.00108749 0.07652166 14.11761771 0.0944577 16.23413086 0.11352539 C16.23413086 0.77352539 16.23413086 1.43352539 16.23413086 2.11352539 C12.60413086 2.11352539 8.97413086 2.11352539 5.23413086 2.11352539 C5.56413086 3.10352539 5.89413086 4.09352539 6.23413086 5.11352539 C6.89413086 5.44352539 7.55413086 5.77352539 8.23413086 6.11352539 C7.90413086 7.43352539 7.57413086 8.75352539 7.23413086 10.11352539 C4.22381342 11.04776184 3.36762818 11.1580245 0.23413086 10.11352539 C-1.12026582 7.40473204 -0.83088365 5.10419271 -0.76586914 2.11352539 C-1.42586914 1.78352539 -2.08586914 1.45352539 -2.76586914 1.11352539 C-1.76586914 0.11352539 -1.76586914 0.11352539 0 0 Z " fill="#0B1510" transform="translate(112.765869140625,84.886474609375)"/>
<path d="M0 0 C2.98356441 1.81608269 4.61660986 2.93830422 5.8125 6.25 C5.874375 6.8275 5.93625 7.405 6 8 C2 6 2 6 0.125 4.8125 C-2.97741261 3.62628341 -4.86367495 3.9990452 -8 5 C-10.6441128 8.305141 -11.7837927 11.97716048 -13 16 C-13.33 16 -13.66 16 -14 16 C-14.42014232 9.90793639 -14.06715472 6.88058567 -10 2 C-6.2626144 -0.4915904 -4.42668417 -0.45793285 0 0 Z " fill="#DBA72C" transform="translate(118,108)"/>
<path d="M0 0 C2.70192398 2.22134462 3.89754386 3.36095153 4.4609375 6.875 C4.41839844 8.421875 4.41839844 8.421875 4.375 10 C4.35566406 11.546875 4.35566406 11.546875 4.3359375 13.125 C4.01091829 15.90655972 3.42920883 17.62179651 2 20 C0.68 19.67 -0.64 19.34 -2 19 C-1.2884375 18.01 -1.2884375 18.01 -0.5625 17 C1.55078084 13.36764411 1.55078084 13.36764411 2 6 C-3.94 6 -9.88 6 -16 6 C-15.67 5.34 -15.34 4.68 -15 4 C-9.72 4.33 -4.44 4.66 1 5 C0.67 3.35 0.34 1.7 0 0 Z " fill="#1E2D1B" transform="translate(127,79)"/>
<path d="M0 0 C4.6175429 -0.32215416 7.33874929 0.07099943 11 3 C11.8125 5.1875 11.8125 5.1875 12 7 C9.06552319 7.34934248 6.85632498 7.51495218 4.265625 5.95703125 C2.625 4.625 2.625 4.625 0 2 C0 1.34 0 0.68 0 0 Z " fill="#AF731B" transform="translate(89,120)"/>
<path d="M0 0 C0.33 0.66 0.66 1.32 1 2 C0.20335938 2.45439453 0.20335938 2.45439453 -0.609375 2.91796875 C-5.01129249 5.528595 -7.8333413 7.92858168 -11 12 C-13.109375 12.640625 -13.109375 12.640625 -15 13 C-13.77512891 11.00534826 -12.54049643 9.0186434 -11.28515625 7.04296875 C-10.3603156 5.57278133 -9.47837007 4.07529239 -8.625 2.5625 C-6.09550559 0.13029384 -3.38953398 0.25581389 0 0 Z " fill="#1A281A" transform="translate(84,51)"/>
<path d="M0 0 C4.45165834 1.39909262 6.85625212 3.60135365 10 7 C10.66 7.66 11.32 8.32 12 9 C12 10.32 12 11.64 12 13 C8.57990294 11.85996765 7.71130558 10.77829802 5.4375 8.0625 C3.66869432 5.96656037 1.94005112 3.94005112 0 2 C0 1.34 0 0.68 0 0 Z " fill="#101C13" transform="translate(113,48)"/>
<path d="M0 0 C0.33 0 0.66 0 1 0 C1.36320551 3.8136579 1.08209402 5.8326545 -0.625 9.3125 C-3 12 -3 12 -6.25 12.875 C-7.1575 12.91625 -8.065 12.9575 -9 13 C-9 12.34 -9 11.68 -9 11 C-10.32 10.67 -11.64 10.34 -13 10 C-11.39125 9.9071875 -11.39125 9.9071875 -9.75 9.8125 C-5.91949493 9.33677753 -5.91949493 9.33677753 -3.6875 6.6875 C-2.30935722 4.49268002 -1.05165248 2.36621807 0 0 Z " fill="#D9A42B" transform="translate(124,122)"/>
<path d="M0 0 C0.33 1.32 0.66 2.64 1 4 C4.27773504 3.24849977 4.27773504 3.24849977 6 0 C8.42857143 6.28571429 8.42857143 6.28571429 7 10 C6.01 10 5.02 10 4 10 C3.67 10.99 3.34 11.98 3 13 C3 12.01 3 11.02 3 10 C2.34 9.67 1.68 9.34 1 9 C2.32 9 3.64 9 5 9 C5 8.01 5 7.02 5 6 C3.68 6 2.36 6 1 6 C0.67 6.66 0.34 7.32 0 8 C0 5.36 0 2.72 0 0 Z " fill="#EEE3D1" transform="translate(112,117)"/>
<path d="M0 0 C0.99 0 1.98 0 3 0 C2.62783659 2.5995892 2.30684572 3.73317764 0.29296875 5.484375 C-0.40183594 5.90203125 -1.09664062 6.3196875 -1.8125 6.75 C-2.84310547 7.39195313 -2.84310547 7.39195313 -3.89453125 8.046875 C-6 9 -6 9 -10 9 C-9 6 -9 6 -6.125 4.5 C-5.09375 4.005 -4.0625 3.51 -3 3 C-2.1646875 2.1646875 -2.1646875 2.1646875 -1.3125 1.3125 C-0.879375 0.879375 -0.44625 0.44625 0 0 Z " fill="#18231A" transform="translate(118,29)"/>
<path d="M0 0 C6.625 0.75 6.625 0.75 10 3 C8.9024777 5.99324263 8.32317108 6.84610901 5.375 8.25 C4.59125 8.4975 3.8075 8.745 3 9 C3 7.68 3 6.36 3 5 C3.66 5 4.32 5 5 5 C5 4.34 5 3.68 5 3 C3.35 2.67 1.7 2.34 0 2 C0 1.34 0 0.68 0 0 Z " fill="#AA3D22" transform="translate(101,48)"/>
<path d="M0 0 C0 0.99 0 1.98 0 3 C-0.99 3.33 -1.98 3.66 -3 4 C-3 4.66 -3 5.32 -3 6 C-6.92296433 7.30765478 -9.86002433 7.1971417 -14 7 C-14.66 6.34 -15.32 5.68 -16 5 C-13.03 5 -10.06 5 -7 5 C-9.64 4.67 -12.28 4.34 -15 4 C-14.67 3.34 -14.34 2.68 -14 2 C-13.11248047 2.03480469 -13.11248047 2.03480469 -12.20703125 2.0703125 C-7.66198041 2.17411464 -4.14059941 2.13708357 0 0 Z " fill="#212E1E" transform="translate(105,98)"/>
<path d="M0 0 C2.16735253 0.46443268 3.8899717 0.93550065 5.8125 2.0625 C8.89828337 3.38497859 11.68477932 3.12750849 15 3 C15 3.99 15 4.98 15 6 C6.04347826 6.62608696 6.04347826 6.62608696 1.875 4.125 C0 2 0 2 0 0 Z " fill="#0D1910" transform="translate(104,132)"/>
<path d="M0 0 C0.99 0.33 1.98 0.66 3 1 C3 1.66 3 2.32 3 3 C2.07767578 3.09087891 2.07767578 3.09087891 1.13671875 3.18359375 C0.32847656 3.26738281 -0.47976562 3.35117188 -1.3125 3.4375 C-2.11300781 3.51871094 -2.91351563 3.59992188 -3.73828125 3.68359375 C-6.16087179 3.95265693 -6.16087179 3.95265693 -9 5 C-9.66 4.34 -10.32 3.68 -11 3 C-7.47960938 -0.37957499 -4.75529428 -0.34583958 0 0 Z " fill="#0D160F" transform="translate(117,105)"/>
<path d="M0 0 C1.875 0.25 1.875 0.25 4 1 C4.66 2.32 5.32 3.64 6 5 C9.63 5 13.26 5 17 5 C13.23843219 7.50771188 11.54590283 7.13508962 7.23046875 6.55078125 C4.07989488 5.77279366 2.20141063 4.34343712 0 2 C0 1.34 0 0.68 0 0 Z " fill="#0B150F" transform="translate(84,97)"/>
<path d="M0 0 C2.64 0.66 5.28 1.32 8 2 C8 2.66 8 3.32 8 4 C10.64 4 13.28 4 16 4 C16 4.33 16 4.66 16 5 C14.10489301 5.08160748 12.20875496 5.13946459 10.3125 5.1875 C8.72888672 5.23970703 8.72888672 5.23970703 7.11328125 5.29296875 C3.64577232 4.96666615 1.81567552 3.99030125 -1 2 C-0.67 1.34 -0.34 0.68 0 0 Z " fill="#08140E" transform="translate(88,55)"/>
<path d="M0 0 C4.29 0.99 8.58 1.98 13 3 C11 5 11 5 7.625 5.25 C4.36476676 5.02515633 2.69367359 4.7239511 0 3 C0 2.01 0 1.02 0 0 Z " fill="#07150E" transform="translate(90,111)"/>
<path d="M0 0 C0 0.99 0 1.98 0 3 C-4.05358424 5.70238949 -6.18310104 5.22937614 -11 5 C-11.66 4.67 -12.32 4.34 -13 4 C-13 3.34 -13 2.68 -13 2 C-11.783125 2.04125 -10.56625 2.0825 -9.3125 2.125 C-5.78105873 2.13754508 -3.19996434 1.59998217 0 0 Z " fill="#0C1410" transform="translate(127,98)"/>
<path d="M0 0 C1.5778125 0.433125 1.5778125 0.433125 3.1875 0.875 C1.375 1.9375 1.375 1.9375 -0.8125 2.875 C-1.8025 2.545 -2.7925 2.215 -3.8125 1.875 C-5.77551592 5.38038557 -6.77152388 9.00851728 -7.8125 12.875 C-8.1425 12.875 -8.4725 12.875 -8.8125 12.875 C-9.22949136 8.70508642 -9.2066082 5.79498397 -6.75 2.375 C-3.8125 -0.125 -3.8125 -0.125 0 0 Z " fill="#B9B7B1" transform="translate(59.8125,167.125)"/>
<path d="M0 0 C1.32 0 2.64 0 4 0 C4 0.66 4 1.32 4 2 C4.66 2.33 5.32 2.66 6 3 C5.34 4.32 4.68 5.64 4 7 C3.01 7 2.02 7 1 7 C0.67 6.01 0.34 5.02 0 4 C-0.66 4 -1.32 4 -2 4 C-2 3.34 -2 2.68 -2 2 C-1.34 2 -0.68 2 0 2 C0 1.34 0 0.68 0 0 Z " fill="#E2C59B" transform="translate(112,114)"/>
<path d="M0 0 C0.33 0 0.66 0 1 0 C1.66 3.63 2.32 7.26 3 11 C2.01 11.33 1.02 11.66 0 12 C-2.08575198 7.58311346 -2.08575198 7.58311346 -1.6875 4.875 C-1.460625 4.25625 -1.23375 3.6375 -1 3 C-0.67 2.01 -0.34 1.02 0 0 Z " fill="#212E22" transform="translate(83,86)"/>
<path d="M0 0 C0.66 0 1.32 0 2 0 C2.33 2.64 2.66 5.28 3 8 C4.65 8.33 6.3 8.66 8 9 C6.02 9.99 6.02 9.99 4 11 C2.29159719 9.36587557 1.06546953 8.13093906 0 6 C-0.039992 4.00039988 -0.04346799 1.99952758 0 0 Z " fill="#C1C0BA" transform="translate(110,87)"/>
<path d="M0 0 C3.465 1.485 3.465 1.485 7 3 C6.01 3.495 6.01 3.495 5 4 C5 4.66 5 5.32 5 6 C1.73045798 5.43628586 0.17424117 4.50037734 -2 2 C-1.34 1.34 -0.68 0.68 0 0 Z " fill="#212B23" transform="translate(83,28)"/>
<path d="M0 0 C0.99 0 1.98 0 3 0 C4.4606285 2.64738916 5 3.89448334 5 7 C1.125 6.125 1.125 6.125 0 5 C-0.04063832 3.33382885 -0.042721 1.66611905 0 0 Z " fill="#7C9A4D" transform="translate(117,60)"/>
<path d="M0 0 C2.31 0 4.62 0 7 0 C6.75 2.375 6.75 2.375 6 5 C3.9375 6.3125 3.9375 6.3125 2 7 C2.33 5.35 2.66 3.7 3 2 C2.01 1.34 1.02 0.68 0 0 Z " fill="#1D2821" transform="translate(125,12)"/>
<path d="M0 0 C1.98 0 3.96 0 6 0 C6.33 1.32 6.66 2.64 7 4 C5.35 4 3.7 4 2 4 C1.34 2.68 0.68 1.36 0 0 Z " fill="#C37F1D" transform="translate(89,120)"/>
<path d="M0 0 C0.99 0.33 1.98 0.66 3 1 C2.34 2.65 1.68 4.3 1 6 C-1.64 6 -4.28 6 -7 6 C-7 5.67 -7 5.34 -7 5 C-5.35 5 -3.7 5 -2 5 C-1.34 3.35 -0.68 1.7 0 0 Z " fill="#1D2815" transform="translate(105,108)"/>
<path d="M0 0 C1.32 0.33 2.64 0.66 4 1 C3.25 3.9375 3.25 3.9375 2 7 C0.68 7.33 -0.64 7.66 -2 8 C-1.34 5.36 -0.68 2.72 0 0 Z " fill="#1C291F" transform="translate(65,71)"/>
<path d="M0 0 C0.99 0.33 1.98 0.66 3 1 C2.3125 2.9375 2.3125 2.9375 1 5 C-1.625 5.75 -1.625 5.75 -4 6 C-1.125 1.125 -1.125 1.125 0 0 Z " fill="#242E26" transform="translate(109,21)"/>
<path d="M0 0 C2.4294516 3.6441774 2.16179575 5.71241272 2 10 C1.01 9.34 0.02 8.68 -1 8 C-1.6875 4.375 -1.6875 4.375 -2 1 C-1.34 0.67 -0.68 0.34 0 0 Z " fill="#BB9128" transform="translate(124,115)"/>
<path d="M0 0 C1.98 1.65 3.96 3.3 6 5 C5.01 5.495 5.01 5.495 4 6 C3.67 6.66 3.34 7.32 3 8 C1.35 6.02 -0.3 4.04 -2 2 C-1.34 2 -0.68 2 0 2 C0 1.34 0 0.68 0 0 Z " fill="#1D2312" transform="translate(120,106)"/>
<path d="M0 0 C0.89332031 0.12761719 1.78664063 0.25523438 2.70703125 0.38671875 C3.60808594 0.50660156 4.50914063 0.62648438 5.4375 0.75 C6.12457031 0.85699219 6.81164062 0.96398437 7.51953125 1.07421875 C7.51953125 1.40421875 7.51953125 1.73421875 7.51953125 2.07421875 C5.86953125 2.07421875 4.21953125 2.07421875 2.51953125 2.07421875 C2.51953125 2.73421875 2.51953125 3.39421875 2.51953125 4.07421875 C-0.12046875 3.74421875 -2.76046875 3.41421875 -5.48046875 3.07421875 C-3.68981165 0.76004728 -2.99175075 0.08951695 0 0 Z " fill="#364C22" transform="translate(116.48046875,101.92578125)"/>
<path d="M0 0 C-1.125 1.5625 -1.125 1.5625 -3 3 C-6.1875 2.6875 -6.1875 2.6875 -9 2 C-6.98558063 -2.02883874 -3.72407517 -0.90585612 0 0 Z " fill="#222723" transform="translate(80,148)"/>
<path d="M0 0 C2.86724686 0.57344937 3.8614515 0.8614515 6 3 C6 3.99 6 4.98 6 6 C3.37812506 4.95125002 2.20628639 4.35068687 0.75 1.875 C0.5025 1.25625 0.255 0.6375 0 0 Z " fill="#0B170F" transform="translate(85,18)"/>
<path d="M0 0 C-1.25 1.5 -1.25 1.5 -3 3 C-4.32 3 -5.64 3 -7 3 C-6.67 2.01 -6.34 1.02 -6 0 C-3 -1 -3 -1 0 0 Z " fill="#09130D" transform="translate(115,35)"/>
<path d="M0 0 C2.475 0.495 2.475 0.495 5 1 C4.67 2.32 4.34 3.64 4 5 C3.34 5 2.68 5 2 5 C2 4.34 2 3.68 2 3 C1.34 3 0.68 3 0 3 C0 2.01 0 1.02 0 0 Z " fill="#CC8E2F" transform="translate(112,111)"/>
<path d="M0 0 C2.31 0 4.62 0 7 0 C6.67 0.66 6.34 1.32 6 2 C3.67843403 2.40729228 1.3431213 2.74438677 -1 3 C-0.67 2.01 -0.34 1.02 0 0 Z " fill="#08110D" transform="translate(122,13)"/>
<path d="M0 0 C0 0.99 0 1.98 0 3 C-2.64 3 -5.28 3 -8 3 C-7.67 2.34 -7.34 1.68 -7 1 C-4.61370553 0.38812962 -2.46459429 0 0 0 Z " fill="#070F0D" transform="translate(119,135)"/>
<path d="M0 0 C1.74627478 2.61941217 2.38722388 4.03824877 3 7 C2.01 7.33 1.02 7.66 0 8 C-0.79953138 4.71303767 -1.09658936 3.28976808 0 0 Z " fill="#1B2513" transform="translate(103,125)"/>
</svg>
