<?xml version="1.0" encoding="UTF-8"?>
<svg xmlns="http://www.w3.org/2000/svg" xmlns:xlink="http://www.w3.org/1999/xlink" width="200px" height="200px" viewBox="0 0 200 200" version="1.1">
<g id="surface1">
<path style=" stroke:none;fill-rule:nonzero;fill:rgb(0%,0%,0%);fill-opacity:1;" d="M 120.5 14 C 114.101562 16.5 106 24.199219 102.898438 30.800781 C 101.601562 33.601562 100.300781 35.898438 100 36 C 99.601562 36 98.800781 34.300781 98 32.199219 C 94.101562 21.398438 83.601562 13 73.898438 13 C 70.101562 13 69.800781 13.898438 72 18.800781 C 75.601562 26.699219 87.199219 35.898438 93.699219 36 C 95.398438 36 96.199219 36.800781 96.800781 39.199219 C 97.601562 42.5 97.601562 42.5 92.699219 43.800781 C 86.699219 45.398438 80.898438 49.199219 75.300781 55.300781 C 66.898438 64.398438 62.199219 77.199219 61.300781 93 C 60.300781 112.300781 65.699219 129.601562 76.199219 140.398438 C 79.199219 143.5 81.398438 146.199219 81.199219 146.5 C 80.898438 146.800781 79.601562 147 78.398438 147 C 77.199219 147 74.898438 147.5 73.300781 148.101562 C 70.601562 149.101562 70.601562 149.199219 72.5 150.300781 C 74.800781 151.699219 118.601562 152 123.300781 150.699219 C 127.199219 149.601562 126.601562 148.300781 121.800781 147.5 C 119.398438 147.101562 117.199219 146.601562 116.898438 146.398438 C 116.601562 146.199219 118.699219 143.601562 121.699219 140.5 C 132.601562 129.300781 137.601562 113.601562 136.699219 94.101562 C 136.101562 81.398438 134.101562 73.5 128.800781 64 C 123.101562 53.800781 114.101562 45.800781 106.300781 44.199219 C 102.800781 43.5 100.398438 41 103.199219 41 C 106.898438 41 118.800781 34 122.800781 29.5 C 127.5 24.199219 132.5 14.699219 131.5 13.101562 C 130.601562 11.5 126.101562 11.898438 120.5 14 Z M 120.601562 62.601562 C 121.898438 64.601562 122 65.398438 121.101562 66.300781 C 120.101562 67.199219 119.5 67.101562 118.398438 65.601562 C 116.800781 63.300781 116.5 60 118 60 C 118.5 60 119.699219 61.101562 120.601562 62.601562 Z M 91 89.398438 C 91 93.101562 93.101562 96 95.898438 96 C 99.5 96 101.601562 90.800781 98.398438 89.601562 C 95.601562 88.5 98 87 102.601562 87 C 106.699219 87 107 87.199219 107 89.5 C 107 92.898438 104.601562 97.5 101.800781 99.398438 C 98.898438 101.398438 92.101562 101.398438 89.199219 99.398438 C 86.300781 97.398438 84 92.800781 84 89 C 84 86.199219 84.300781 86 87.5 86 C 90.800781 86 91 86.199219 91 89.398438 Z M 112 89.800781 C 112 93.699219 114.101562 96.300781 117 95.800781 C 120.5 95.300781 121.898438 92.398438 119.601562 90.699219 C 116.699219 88.5 118.601562 87 124.199219 87 L 129.300781 87 L 128.699219 91.199219 C 128.101562 95.601562 123.601562 101 120.5 101 C 117.398438 101 113.898438 98.898438 112 95.800781 C 109.898438 92.300781 109.300781 87 111 87 C 111.601562 87 112 88.300781 112 89.800781 Z M 119.800781 109.601562 C 123.101562 111.898438 125 116.300781 125 121.5 C 125 126.5 124 129.199219 120.699219 132.699219 C 117.601562 136.101562 110.898438 135.898438 107.5 132.199219 C 102 126.300781 102.199219 116.601562 108 110.800781 C 111.300781 107.601562 116.199219 107 119.800781 109.601562 Z M 98.199219 122.699219 C 102.300781 126.398438 98.898438 127.199219 92.898438 123.800781 C 90.800781 122.699219 89.300781 121.300781 89.699219 120.699219 C 90.5 119.398438 96 120.699219 98.199219 122.699219 Z M 98.199219 122.699219 "/>
<path style=" stroke:none;fill-rule:nonzero;fill:rgb(0%,0%,0%);fill-opacity:1;" d="M 51.898438 163.300781 C 45.101562 167.800781 43.101562 177.398438 47.101562 185.699219 C 49.601562 190.898438 53.199219 193 59.601562 193 C 63.800781 193 64.699219 192.601562 68.101562 189 C 72.398438 184.5 73.800781 178.800781 72.101562 172.398438 C 70.699219 167 68.300781 164 64.398438 162.398438 C 59.601562 160.398438 55.800781 160.699219 51.898438 163.300781 Z M 63 169.699219 C 70.800781 176.699219 63.300781 191.300781 55.101562 185.199219 C 49.699219 181.199219 50.199219 171.601562 55.898438 168.5 C 59.398438 166.601562 59.5 166.601562 63 169.699219 Z M 63 169.699219 "/>
<path style=" stroke:none;fill-rule:nonzero;fill:rgb(0%,0%,0%);fill-opacity:1;" d="M 77 177.5 L 77 193 L 94.101562 193 L 93.800781 189.699219 C 93.5 186.601562 93.300781 186.5 88.800781 186.199219 L 84 185.898438 L 84 162 L 77 162 Z M 77 177.5 "/>
<path style=" stroke:none;fill-rule:nonzero;fill:rgb(0%,0%,0%);fill-opacity:1;" d="M 98 177.601562 L 98 193.101562 L 101.300781 192.800781 L 104.5 192.5 L 104.800781 177.199219 L 105.101562 162 L 98 162 Z M 98 177.601562 "/>
<path style=" stroke:none;fill-rule:nonzero;fill:rgb(0%,0%,0%);fill-opacity:1;" d="M 113 177.199219 L 117.699219 192.5 L 121.300781 192.800781 C 123.398438 193 125 192.898438 125 192.601562 C 125 192.398438 127 185.601562 129.5 177.699219 C 132 169.699219 134 162.898438 134 162.601562 C 134 162.300781 132.5 162 130.601562 162 L 127.300781 162 L 124.5 173 C 122.898438 179 121.5 183.800781 121.300781 183.601562 C 121 183.398438 119.699219 178.5 118.199219 172.800781 L 115.5 162.5 L 111.898438 162.199219 L 108.199219 161.898438 Z M 113 177.199219 "/>
<path style=" stroke:none;fill-rule:nonzero;fill:rgb(0%,0%,0%);fill-opacity:1;" d="M 138 177.5 L 138 193 L 155.101562 193 L 154.800781 189.699219 C 154.5 186.601562 154.398438 186.5 149.300781 186.199219 C 144.199219 185.898438 144 185.800781 144 182.898438 C 144 180.101562 144.199219 180 148.5 180 C 152.800781 180 153 179.898438 153 177 C 153 174.101562 152.800781 174 148.5 174 C 144.199219 174 144 173.898438 144 171.101562 C 144 168.199219 144.199219 168.101562 149.300781 167.800781 C 154.101562 167.5 154.5 167.300781 154.800781 164.699219 L 155.101562 162 L 138 162 Z M 138 177.5 "/>
</g>
</svg>
