<?xml version="1.0" standalone="no"?>
<!DOCTYPE svg PUBLIC "-//W3C//DTD SVG 20010904//EN"
 "http://www.w3.org/TR/2001/REC-SVG-20010904/DTD/svg10.dtd">
<svg version="1.0" xmlns="http://www.w3.org/2000/svg"
 width="150.000000pt" height="150.000000pt" viewBox="0 0 150.000000 150.000000"
 preserveAspectRatio="xMidYMid meet">

<g transform="translate(0.000000,150.000000) scale(0.100000,-0.100000)"
fill="#000000" stroke="none">
<path d="M680 1451 c0 -5 6 -14 14 -20 11 -9 15 -9 19 1 4 10 8 10 16 -2 9
-12 11 -11 11 8 0 18 -6 22 -30 22 -16 0 -30 -4 -30 -9z"/>
<path d="M757 1436 c4 -21 1 -24 -31 -28 -21 -2 -36 0 -36 7 0 5 -4 4 -9 -3
-6 -10 -10 -7 -15 13 -7 26 -9 27 -49 21 -99 -16 -204 -64 -305 -140 -39 -30
-72 -53 -72 -51 0 2 21 25 47 51 52 52 14 24 -54 -40 -42 -39 -61 -72 -25 -45
15 13 16 12 3 -3 -7 -10 -17 -15 -21 -13 -13 8 -108 -130 -98 -141 3 -2 22 25
43 61 21 36 40 63 42 61 2 -2 -14 -34 -36 -72 -48 -84 -87 -198 -97 -282 -3
-34 -11 -65 -15 -68 -5 -3 -9 -10 -9 -15 0 -6 4 -8 9 -4 6 3 5 -10 0 -31 -6
-20 -7 -43 -3 -52 4 -10 8 -35 10 -57 2 -48 42 -157 54 -150 5 3 12 0 16 -6 4
-8 3 -9 -4 -5 -22 13 -12 -15 24 -72 38 -60 100 -134 118 -141 6 -2 -10 19
-34 47 -42 47 -86 112 -77 112 2 0 19 -21 37 -47 18 -27 49 -66 69 -87 20 -21
30 -35 22 -31 -28 16 -5 -14 39 -50 55 -46 204 -119 285 -140 78 -20 262 -20
340 0 118 30 217 80 318 161 27 22 38 42 15 28 -7 -4 -8 -3 -4 5 4 6 11 9 15
7 9 -6 64 50 103 104 63 88 113 224 113 312 0 32 3 58 8 58 4 0 7 17 6 38 0
28 -2 32 -8 17 -5 -13 -10 1 -15 48 -3 36 -16 97 -27 134 -18 58 -35 95 -104
224 -5 11 -13 19 -17 19 -4 0 -12 10 -18 23 -21 43 54 -50 93 -114 20 -35 37
-58 37 -52 0 37 -135 212 -205 266 -39 30 -39 29 10 -23 47 -50 47 -52 10 -21
-65 52 -166 116 -223 140 -60 25 -183 51 -241 51 -35 0 -38 -2 -34 -24z m56
-6 c-3 -11 -7 -20 -9 -20 -2 0 -4 9 -4 20 0 11 4 20 9 20 5 0 7 -9 4 -20z m37
1 c0 -5 9 -7 20 -4 14 4 20 0 20 -12 0 -12 -6 -16 -20 -12 -11 3 -20 1 -20 -4
0 -5 -6 -9 -14 -9 -10 0 -16 31 -7 48 3 6 21 1 21 -7z m-190 -22 c0 -24 -23
-21 -28 4 -2 10 3 17 12 17 10 0 16 -9 16 -21z m274 5 c9 -8 16 -11 16 -5 0 6
4 11 10 11 5 0 6 -8 3 -17 -6 -16 -5 -16 10 -4 14 11 18 11 23 -2 3 -9 13 -13
25 -10 21 6 24 -4 9 -27 -8 -12 -10 -12 -10 -1 0 8 -3 11 -7 8 -3 -4 -12 1
-20 11 -8 9 -12 11 -8 5 7 -16 -5 -16 -39 -3 -14 5 -26 17 -27 27 0 16 -2 15
-9 -2 -8 -19 -9 -19 -9 3 -1 26 11 28 33 6z m-314 -9 c0 -9 -14 -17 -37 -21
-21 -3 -48 -12 -60 -20 -26 -16 -37 -18 -28 -4 3 6 1 10 -4 10 -6 0 -11 7 -11
15 0 8 5 15 11 15 5 0 8 -4 5 -9 -3 -5 1 -12 10 -15 11 -4 14 -1 10 12 -5 15
0 17 34 17 22 0 40 3 40 7 0 5 7 8 15 8 8 0 15 -7 15 -15z m160 -31 c0 -2 -7
-4 -15 -4 -8 0 -15 4 -15 10 0 5 7 7 15 4 8 -4 15 -8 15 -10z m6 -30 c23 -16
24 -18 8 -35 -19 -21 -22 -20 76 -39 100 -18 185 -65 265 -145 82 -81 127
-165 152 -279 13 -61 19 -73 30 -64 10 8 18 6 34 -7 20 -19 20 -19 0 -39 -16
-15 -23 -17 -34 -7 -15 12 -17 3 -42 -129 -12 -67 -105 -204 -178 -261 -90
-71 -233 -129 -305 -124 -21 2 -21 1 -5 -17 16 -18 16 -20 -5 -41 l-22 -21
-22 22 c-17 17 -20 24 -10 34 19 19 14 24 -30 27 -107 6 -249 80 -332 174 -53
59 -56 61 -56 34 0 -25 -3 -28 -26 -25 -21 2 -28 9 -30 30 -2 25 1 28 26 28
l29 0 -33 63 c-22 41 -38 91 -46 140 -11 65 -15 75 -27 65 -11 -9 -19 -7 -35
10 -20 19 -20 21 -3 38 14 14 21 15 36 6 16 -10 19 -8 24 26 3 20 8 50 10 66
8 47 70 167 116 221 74 89 202 165 304 179 81 11 86 14 73 36 -9 14 -9 22 1
34 17 20 26 20 57 0z m-112 -30 c6 -16 -12 -18 -33 -5 -17 11 -5 32 14 25 7
-3 16 -12 19 -20z m211 -3 c4 -23 4 -24 -19 -15 -19 7 -21 30 -3 37 15 5 17 4
22 -22z m-276 -23 c1 -5 -5 -8 -13 -8 -9 0 -12 8 -8 27 5 25 6 25 13 8 4 -11
8 -23 8 -27z m325 15 c3 -13 -2 -19 -15 -19 -21 0 -25 16 -7 34 14 14 17 11
22 -15z m-425 -29 c14 -31 14 -30 -21 -39 -21 -6 -27 -3 -33 16 -5 16 -2 26
11 36 25 18 29 17 43 -13z m561 -5 c0 -34 -29 -49 -58 -30 -10 6 -11 13 -1 34
10 22 14 24 35 15 13 -6 24 -15 24 -19z m-724 -167 c-8 -7 -24 7 -47 41 l-22
32 36 -34 c20 -19 35 -37 33 -39z m928 25 l18 -32 -29 33 -29 34 -27 -33 c-15
-18 -27 -29 -27 -24 0 16 52 64 64 59 7 -3 20 -19 30 -37z m-1012 11 c-20 -20
-13 -28 24 -28 29 0 35 -3 30 -16 -3 -9 -6 -22 -6 -30 0 -11 -8 -14 -27 -12
-18 2 -27 8 -25 17 2 8 0 21 -3 29 -4 12 -8 12 -22 1 -14 -12 -15 -12 -7 1 26
42 39 59 43 54 3 -2 -1 -10 -7 -16z m1002 -45 c9 -23 -17 -47 -43 -38 -20 6
-28 34 -14 48 13 13 51 7 57 -10z m-1054 -173 c0 -5 -4 -10 -10 -10 -5 0 -10
5 -10 10 0 6 5 10 10 10 6 0 10 -4 10 -10z m1120 0 c0 -5 -4 -10 -10 -10 -5 0
-10 5 -10 10 0 6 5 10 10 10 6 0 10 -4 10 -10z m71 -175 c1 -177 -59 -315
-195 -451 -126 -126 -263 -184 -442 -185 -341 -4 -620 255 -649 601 -3 41 -1
89 4 105 8 25 9 18 10 -45 4 -288 180 -532 445 -616 65 -20 102 -26 186 -26
92 0 116 3 192 30 199 69 349 221 411 417 18 57 22 93 22 193 0 80 2 113 8 95
4 -15 8 -68 8 -118z m-1171 -179 c0 -2 -8 -10 -17 -17 -16 -13 -17 -12 -4 4
13 16 21 21 21 13z m-30 -46 c0 -5 -2 -10 -4 -10 -3 0 -8 5 -11 10 -3 6 -1 10
4 10 6 0 11 -4 11 -10z m1060 -75 c15 -19 -3 -45 -31 -45 -23 0 -32 15 -24 40
7 24 37 26 55 5z m160 -3 c0 -12 -72 -124 -76 -119 -3 2 11 28 31 58 19 29 35
57 35 61 0 5 2 8 5 8 3 0 5 -4 5 -8z m-1296 -28 c3 -8 2 -12 -4 -9 -6 3 -10
10 -10 16 0 14 7 11 14 -7z m188 -56 c-7 -7 -12 -8 -12 -2 0 14 12 26 19 19 2
-3 -1 -11 -7 -17z m998 -77 c-5 -11 -15 -23 -21 -27 -6 -3 -3 5 6 20 20 30 30
35 15 7z m-803 -27 c2 -6 -2 -17 -9 -26 -11 -15 -15 -15 -32 -3 -14 10 -17 21
-12 40 6 25 8 26 28 13 12 -8 23 -19 25 -24z m559 4 c4 -15 1 -25 -12 -35 -25
-18 -29 -17 -42 12 -9 20 -8 26 6 34 27 16 40 13 48 -11z m-363 -178 c-7 -25
-9 -25 -16 0 -3 12 0 20 8 20 8 0 11 -8 8 -20z m58 -23 c-8 -8 -11 -3 -11 19
1 25 2 27 11 11 8 -14 8 -22 0 -30z m86 17 c2 -6 -3 -11 -12 -11 -8 0 -15 7
-15 15 0 15 22 12 27 -4z m-109 -5 c-2 -6 -8 -10 -13 -10 -5 0 -11 4 -13 10
-2 6 4 11 13 11 9 0 15 -5 13 -11z m66 -4 c-4 -8 -10 -12 -15 -9 -14 8 -10 24
6 24 9 0 12 -6 9 -15z m213 9 c-3 -3 -12 -4 -19 -1 -8 3 -5 6 6 6 11 1 17 -2
13 -5z m-452 -14 c13 -6 15 -9 5 -9 -8 0 -22 4 -30 9 -18 12 -2 12 25 0z m392
-6 c-3 -3 -12 -4 -19 -1 -8 3 -5 6 6 6 11 1 17 -2 13 -5z m-340 -10 c-3 -3
-12 -4 -19 -1 -8 3 -5 6 6 6 11 1 17 -2 13 -5z m300 0 c-3 -3 -12 -4 -19 -1
-8 3 -5 6 6 6 11 1 17 -2 13 -5z"/>
<path d="M747 1309 c7 -7 15 -10 18 -7 3 3 -2 9 -12 12 -14 6 -15 5 -6 -5z"/>
<path d="M810 1242 c0 -5 12 -19 26 -33 l26 -24 -19 32 c-17 31 -33 43 -33 25z"/>
<path d="M684 1224 c-18 -14 -18 -15 4 -4 12 6 22 13 22 15 0 8 -5 6 -26 -11z"/>
<path d="M566 1213 l-30 -15 39 -19 c21 -11 41 -19 45 -19 10 0 40 57 33 64
-11 11 -57 6 -87 -11z m61 -20 c-3 -2 -16 -1 -29 3 l-23 8 25 6 c23 6 39 -4
27 -17z"/>
<path d="M864 1218 c-3 -4 0 -8 6 -8 6 0 9 -3 6 -8 -2 -4 2 -16 9 -26 13 -17
15 -17 54 0 23 10 41 21 41 24 0 9 -70 29 -93 28 -10 -1 -20 -5 -23 -10z m55
-24 c3 -16 1 -17 -13 -5 -19 16 -21 34 -3 29 6 -3 14 -13 16 -24z"/>
<path d="M794 1190 c6 -32 5 -33 -8 -15 -17 23 -21 13 -6 -14 6 -12 17 -17 33
-14 16 3 24 0 24 -10 0 -9 -7 -12 -19 -9 -26 6 -22 -12 5 -27 33 -18 28 -70
-7 -71 -5 0 -3 6 3 14 10 12 8 19 -6 33 -10 10 -25 33 -32 51 -15 36 -27 41
-35 15 -3 -10 -19 -34 -35 -53 -23 -25 -27 -37 -19 -47 7 -9 7 -13 -1 -13 -6
0 -11 5 -11 11 0 5 -5 7 -11 3 -8 -5 -8 -1 0 14 13 24 2 35 -19 22 -10 -6 -21
-3 -33 8 -18 16 -20 15 -47 -14 -15 -18 -30 -38 -32 -45 -3 -8 -9 -11 -13 -7
-4 4 0 14 9 23 9 9 16 21 16 26 0 16 -22 10 -40 -11 -11 -13 -21 -17 -25 -10
-3 5 -2 10 3 10 5 0 10 11 10 25 0 15 -5 24 -12 22 -6 -3 -10 -10 -9 -16 2 -6
0 -10 -5 -10 -4 1 -14 1 -22 0 -13 -1 -13 -2 0 -11 19 -12 13 -12 -28 -1 -40
12 -40 4 1 -41 30 -34 57 -72 57 -82 0 -2 -13 -9 -30 -14 -25 -9 -30 -8 -35 9
-6 17 -9 18 -22 7 -14 -11 -15 -11 -4 7 10 16 9 28 -3 60 l-15 40 -1 -50 c0
-84 -4 -108 -20 -113 -8 -3 -12 -1 -7 3 4 5 0 19 -9 33 -9 13 -14 33 -11 43
10 37 -12 18 -33 -27 -25 -58 -25 -63 3 -74 21 -8 21 -9 -5 -9 -22 -1 -28 -6
-30 -23 0 -13 -2 -35 -3 -50 -1 -16 2 -28 6 -28 5 0 9 -5 9 -11 0 -5 -4 -7
-10 -4 -12 8 -13 -14 -1 -86 11 -66 60 -176 90 -203 21 -19 21 -19 36 18 16
38 31 50 20 16 -4 -13 -2 -20 6 -20 8 0 6 -6 -4 -18 -23 -25 -22 -27 13 -29
17 -1 38 -10 47 -19 16 -16 16 -16 -2 -11 -11 3 -33 9 -50 12 -29 6 -29 5 17
-37 65 -59 87 -58 151 8 43 44 53 51 68 41 17 -11 17 -13 -3 -35 l-22 -23 34
-30 c42 -36 100 -78 83 -59 -8 9 -9 17 -1 30 8 13 5 27 -17 63 -15 26 -31 47
-37 47 -5 0 -6 5 -2 11 4 7 19 -8 37 -35 18 -29 35 -45 44 -42 10 4 12 -1 7
-18 -3 -13 -1 -27 6 -31 8 -5 7 -11 -2 -23 -12 -16 -11 -16 7 -2 11 8 29 23
40 32 11 9 31 25 44 36 l24 19 -22 22 c-22 22 -22 23 -4 36 21 15 37 9 29 -12
-3 -8 -2 -12 3 -9 4 3 25 -11 47 -31 38 -35 77 -48 99 -32 5 4 28 24 50 43 32
29 36 35 20 36 -11 0 -40 -9 -64 -20 -52 -24 -52 -24 -45 -5 4 8 10 12 15 10
5 -3 22 1 38 10 17 8 38 15 49 15 19 0 24 32 7 47 -4 5 -5 1 0 -7 5 -8 5 -12
0 -8 -8 8 -16 68 -9 68 2 0 13 -18 24 -41 18 -34 23 -39 36 -28 18 15 73 120
77 146 1 10 5 23 9 28 3 6 9 33 13 61 5 42 4 52 -10 58 -9 3 -13 10 -10 16 4
6 11 7 17 4 6 -4 8 4 5 22 -4 16 -11 54 -17 84 -13 65 -68 174 -91 178 -22 4
-55 -78 -36 -91 8 -6 7 -7 -5 -4 -9 3 -19 -1 -22 -9 -4 -11 -13 -13 -28 -8
-31 9 -34 12 -20 26 7 7 12 21 12 32 0 10 3 16 6 13 7 -7 54 42 54 57 0 4 -13
6 -30 4 -16 -3 -28 -2 -25 0 6 6 -25 42 -35 42 -4 0 -6 -15 -4 -32 3 -27 1
-30 -7 -15 -11 19 -49 24 -49 5 0 -6 7 -20 17 -30 9 -10 14 -21 10 -24 -3 -3
-14 7 -23 23 -10 15 -24 32 -31 36 -25 16 -13 28 21 22 42 -8 56 16 20 35 -22
12 -27 10 -61 -23 -41 -42 -45 -43 -63 -22 -10 13 -10 19 4 33 19 22 21 42 4
42 -7 0 -27 15 -46 33 l-35 32 7 -35z m-14 -111 c0 -12 -7 -19 -20 -19 -21 0
-24 8 -14 34 8 20 34 9 34 -15z m-10 -49 c0 -5 -4 -10 -10 -10 -5 0 -10 5 -10
10 0 6 5 10 10 10 6 0 10 -4 10 -10z m-110 -4 c0 -3 -4 -8 -10 -11 -5 -3 -10
-1 -10 4 0 6 5 11 10 11 6 0 10 -2 10 -4z m215 -6 c3 -5 1 -10 -4 -10 -6 0
-11 5 -11 10 0 6 2 10 4 10 3 0 8 -4 11 -10z m303 -30 c14 0 15 -2 3 -9 -14
-9 -25 -41 -14 -41 3 0 12 8 19 18 12 15 13 15 14 1 0 -9 -7 -22 -15 -29 -8
-7 -15 -16 -15 -21 0 -5 -9 -19 -19 -31 -80 -96 -111 -140 -105 -151 4 -7 28
-37 53 -67 83 -98 81 -90 17 -90 l-56 0 -36 55 -35 56 -37 -56 -36 -55 -54 0
-54 0 27 37 c16 21 43 57 62 80 18 23 33 46 33 53 0 6 -25 42 -55 79 -30 38
-55 71 -55 75 0 3 22 6 50 6 47 0 50 -2 80 -45 17 -25 34 -45 39 -45 4 0 21
20 39 45 30 43 34 45 82 45 50 0 50 0 44 28 -7 31 -7 27 -4 67 1 18 4 23 7 13
2 -10 12 -18 21 -18z m-394 -25 c6 -18 -32 -31 -47 -16 -7 7 -6 15 2 25 14 16
37 12 45 -9z m-161 -97 c-19 -32 -21 -33 -102 -38 -64 -4 -86 -9 -95 -22 -5
-9 -8 -19 -5 -22 3 -3 38 -7 77 -10 113 -7 156 -49 132 -129 -17 -59 -47 -72
-167 -74 l-103 -1 0 39 0 39 93 0 c93 0 121 9 110 36 -4 10 -25 14 -78 14 -64
0 -77 3 -104 26 -25 21 -31 33 -31 66 0 87 35 107 183 108 l109 0 -19 -32z
m176 -2 c12 -18 21 -36 21 -40 0 -4 -35 -6 -77 -4 l-78 3 -3 38 -3 37 60 0
c57 0 60 -2 80 -34z m81 -111 c11 -13 9 -20 -10 -40 -19 -21 -33 -25 -76 -25
l-53 0 -3 -57 -3 -58 -35 0 -35 0 -3 84 c-2 46 -1 90 2 98 8 20 199 18 216 -2z
m315 6 c7 -12 -12 -24 -25 -16 -11 7 -4 25 10 25 5 0 11 -4 15 -9z m-415 -240
c0 -24 -25 -34 -40 -16 -15 18 -5 35 21 35 12 0 19 -7 19 -19z m-25 -81 c-3
-5 1 -10 9 -10 9 0 16 -7 16 -15 0 -8 -9 -15 -20 -15 -20 0 -28 28 -13 43 10
10 15 8 8 -3z m-185 -21 c0 -5 -7 -9 -15 -9 -9 0 -12 6 -9 15 6 15 24 11 24
-6z m390 1 c0 -5 -5 -10 -11 -10 -5 0 -7 5 -4 10 3 6 8 10 11 10 2 0 4 -4 4
-10z m-424 -61 c3 -6 -5 -3 -20 6 -14 10 -26 19 -26 22 0 7 39 -17 46 -28z"/>
<path d="M677 1177 c-42 -36 -45 -47 -19 -70 25 -22 39 -21 45 3 6 23 -3 26
-21 8 -13 -13 -16 0 -4 18 11 16 42 25 42 12 0 -8 4 -8 13 1 10 11 10 14 0 18
-7 3 -13 9 -13 14 0 6 5 7 11 3 7 -4 10 -1 7 6 -7 23 -22 20 -61 -13z"/>
<path d="M438 1138 c-42 -33 -49 -49 -18 -41 11 3 20 10 20 15 0 5 4 6 10 3 6
-4 7 1 3 12 -3 10 -3 15 2 11 4 -4 14 0 22 10 13 15 13 15 4 -5 -15 -29 -14
-33 4 -27 8 4 15 13 15 21 0 10 6 12 21 8 15 -5 20 -3 17 6 -9 26 -61 19 -100
-13z"/>
<path d="M976 1161 c-3 -5 1 -11 9 -15 9 -3 15 0 15 9 0 16 -16 20 -24 6z"/>
<path d="M1027 1163 c-4 -3 -7 -14 -7 -24 0 -13 14 -22 48 -32 26 -7 49 -12
52 -10 5 4 -71 72 -81 73 -3 0 -9 -3 -12 -7z m21 -38 c-3 -3 -9 2 -12 12 -6
14 -5 15 5 6 7 -7 10 -15 7 -18z"/>
<path d="M533 1133 c-47 -32 -16 -58 35 -30 22 13 22 14 5 29 -16 14 -20 14
-40 1z"/>
<path d="M337 1031 c-16 -28 -14 -41 8 -41 6 0 12 16 13 35 2 19 1 35 -1 35
-1 0 -10 -13 -20 -29z"/>
<path d="M330 966 c0 -8 5 -18 10 -21 6 -3 10 3 10 14 0 12 -4 21 -10 21 -5 0
-10 -6 -10 -14z"/>
<path d="M579 348 c-11 -7 -9 -8 6 -3 16 5 18 4 7 -7 -7 -7 -16 -13 -20 -14
-16 -2 -42 -17 -42 -24 0 -11 90 -41 102 -34 5 3 15 0 23 -6 8 -7 24 -10 34
-7 11 3 22 0 24 -7 2 -6 7 -8 11 -5 5 5 -13 25 -83 90 -25 23 -46 29 -62 17z"/>
<path d="M885 340 c-60 -52 -106 -101 -92 -96 10 3 28 6 38 6 11 0 18 3 16 8
-3 4 14 7 36 8 23 1 57 8 76 16 l35 14 -46 27 c-52 30 -49 29 -63 17z"/>
<path d="M745 191 c-7 -12 12 -24 25 -16 11 7 4 25 -10 25 -5 0 -11 -4 -15 -9z"/>
<path d="M1021 1436 c2 -2 15 -9 29 -15 24 -11 24 -11 6 3 -16 13 -49 24 -35
12z"/>
<path d="M373 1379 c-46 -29 -41 -36 5 -8 46 28 47 29 36 29 -5 0 -24 -10 -41
-21z"/>
<path d="M1115 1388 c11 -6 32 -20 48 -30 15 -11 27 -17 27 -14 0 8 -73 56
-85 56 -5 0 -1 -6 10 -12z"/>
<path d="M1460 964 c0 -10 5 -26 10 -34 8 -11 9 -7 4 15 -8 37 -14 45 -14 19z"/>
<path d="M36 925 c-3 -9 -6 -24 -5 -33 0 -9 5 -4 10 12 9 32 6 48 -5 21z"/>
<path d="M21 844 c0 -11 3 -14 6 -6 3 7 2 16 -1 19 -3 4 -6 -2 -5 -13z"/>
</g>
</svg>
