<svg width="65" height="65" viewBox="0 0 65 65" fill="none" xmlns="http://www.w3.org/2000/svg">
<g clip-path="url(#clip0_36_1547)">
<path d="M32 64.3055C49.6731 64.3055 64 49.9787 64 32.3055C64 14.6324 49.6731 0.305542 32 0.305542C14.3269 0.305542 0 14.6324 0 32.3055C0 49.9787 14.3269 64.3055 32 64.3055Z" fill="#7894C3"/>
<path d="M31.9999 58.0833C46.2366 58.0833 57.7777 46.5422 57.7777 32.3055C57.7777 18.0688 46.2366 6.52771 31.9999 6.52771C17.7633 6.52771 6.22217 18.0688 6.22217 32.3055C6.22217 46.5422 17.7633 58.0833 31.9999 58.0833Z" fill="#C3D0E4"/>
<path d="M32 55.4167C44.7639 55.4167 55.1111 45.0695 55.1111 32.3056C55.1111 19.5417 44.7639 9.19446 32 9.19446C19.2361 9.19446 8.88892 19.5417 8.88892 32.3056C8.88892 45.0695 19.2361 55.4167 32 55.4167Z" fill="#F5F8FA"/>
<path opacity="0.4" d="M31.9999 14.5277L34.7217 25.7348L44.5706 19.7348L38.5706 29.5837L49.7777 32.3055L38.5706 35.0273L44.5706 44.8762L34.7217 38.8762L31.9999 50.0833L29.2782 38.8762L19.4293 44.8762L25.4293 35.0273L14.2222 32.3055L25.4293 29.5837L19.4293 19.7348L29.2782 25.7348L31.9999 14.5277Z" fill="#7894C3"/>
<path d="M30.832 37.1908L46.4356 46.7571L36.8729 31.1517L30.832 37.1908Z" fill="#292F33"/>
<path d="M33.1681 27.4468L17.5627 17.8806L27.1272 33.4877L33.1681 27.4468Z" fill="#DD2E44"/>
<path d="M32 37.7509C34.9995 37.7509 37.4311 35.3193 37.4311 32.3198C37.4311 29.3203 34.9995 26.8887 32 26.8887C29.0004 26.8887 26.5688 29.3203 26.5688 32.3198C26.5688 35.3193 29.0004 37.7509 32 37.7509Z" fill="#7894C3"/>
<path d="M32.0001 35.2496C33.6182 35.2496 34.9299 33.9379 34.9299 32.3198C34.9299 30.7017 33.6182 29.39 32.0001 29.39C30.382 29.39 29.0703 30.7017 29.0703 32.3198C29.0703 33.9379 30.382 35.2496 32.0001 35.2496Z" fill="#F5F8FA"/>
</g>
<defs>
<clipPath id="clip0_36_1547">
<rect width="64" height="64" fill="white" transform="translate(0 0.305542)"/>
</clipPath>
</defs>
</svg>
