<!DOCTYPE svg PUBLIC "-//W3C//DTD SVG 20010904//EN" "http://www.w3.org/TR/2001/REC-SVG-20010904/DTD/svg10.dtd"[]><svg version="1.0" xmlns="http://www.w3.org/2000/svg" width="200" height="200" viewBox="0 0 200.000000 200.000000" preserveAspectRatio="xMidYMid meet"><g transform="translate(0.000000,200.000000) scale(0.100000,-0.100000)" fill="#000000" stroke="none"><path d="M1070 1875 c-55 -30 -105 -31 -145 -5 -43 29 -70 25 -98 -12 -30 -40 -92 -163 -121 -240 l-22 -57 -116 117 c-63 64 -120 126 -126 137 -7 12 -12 14 -12 6 0 -11 -3 -11 -14 -1 -12 9 -15 8 -15 -7 1 -10 -4 -45 -10 -78 -6 -33 -11 -63 -11 -67 0 -4 -43 16 -96 43 -81 42 -103 50 -142 47 -40 -3 -50 -8 -69 -36 -56 -84 -35 -307 48 -508 41 -98 115 -207 194 -287 l67 -67 -41 -19 c-44 -19 -38 -31 15 -31 32 0 30 -11 -6 -35 -16 -11 -30 -23 -30 -27 0 -4 32 -26 70 -49 39 -23 70 -43 70 -46 0 -2 -4 -2 -8 1 -4 2 -14 1 -21 -3 -12 -8 84 -40 125 -42 19 0 19 -1 0 -8 -15 -6 -4 -12 45 -25 35 -10 77 -17 92 -17 15 0 25 -4 22 -9 -3 -5 12 -10 32 -12 l38 -3 -101 -67 c-55 -36 -104 -76 -110 -88 -5 -12 -34 -34 -64 -48 -48 -24 -56 -32 -61 -62 -5 -29 -56 -182 -84 -252 -7 -17 7 -18 209 -18 l216 0 0 65 c0 36 4 65 9 65 5 0 7 -18 4 -40 -4 -27 0 -47 11 -65 19 -29 36 -33 36 -7 0 15 -2 15 -11 2 -8 -11 -9 -4 -5 30 4 42 4 44 -10 25 -15 -19 -15 -18 -8 10 4 17 11 38 16 48 8 15 6 17 -16 11 -26 -6 -26 -6 -26 54 0 68 15 92 58 92 15 -1 38 -7 52 -15 37 -21 42 -18 25 16 -9 17 -15 32 -13 33 26 19 138 73 142 69 3 -3 8 2 12 11 3 9 15 16 25 16 10 0 19 4 19 8 0 5 17 17 38 29 l38 20 -9 -55 c-7 -43 -7 -56 4 -63 20 -12 0 -40 -40 -56 l-33 -14 7 31 c9 41 -1 38 -25 -10 -11 -22 -19 -40 -16 -40 2 0 23 7 46 15 76 27 86 22 94 -38 3 -28 6 -96 6 -149 l0 -98 216 0 216 0 -6 23 c-3 12 -17 72 -32 132 -30 126 -36 141 -58 139 -9 -1 -14 2 -11 6 7 12 -32 23 -46 14 -7 -4 -9 -3 -6 3 4 6 -5 15 -18 21 -13 6 -31 28 -40 48 -10 24 -20 34 -29 31 -8 -3 -25 3 -38 14 l-23 20 30 -17 30 -16 -25 21 c-14 12 -54 39 -90 61 -55 34 -61 40 -38 40 14 0 28 3 30 8 2 4 41 17 88 30 169 45 185 50 168 51 -30 2 -20 15 25 34 23 9 57 26 76 38 l34 20 -44 45 -43 44 29 1 c17 0 38 4 48 7 14 6 9 12 -28 30 -49 24 -61 22 -17 -3 27 -16 26 -16 -28 -11 l-55 6 48 -41 c30 -26 46 -47 43 -56 -3 -8 -2 -11 3 -8 5 3 12 1 16 -5 4 -6 -15 -8 -56 -3 -46 4 -60 3 -55 -5 4 -7 15 -12 24 -13 9 0 -3 -8 -28 -18 -25 -11 -49 -17 -55 -14 -5 3 1 -5 15 -16 l25 -21 -33 13 c-35 14 -105 11 -81 -4 9 -5 -1 -10 -29 -15 -23 -3 -39 -10 -36 -15 3 -5 -7 -9 -22 -9 -27 0 -27 0 -8 22 14 16 10 15 -15 -5 -45 -37 -119 -74 -183 -91 -29 -8 -67 -19 -85 -25 -24 -7 -46 -5 -88 8 -30 10 -53 20 -49 23 3 4 -3 4 -14 2 -21 -6 -127 43 -181 84 -19 14 -31 20 -26 12 6 -10 4 -12 -11 -6 -10 5 -34 13 -53 18 -23 7 -30 12 -21 18 26 16 -28 21 -65 5 -51 -21 -58 -18 -15 5 31 17 33 19 11 20 -19 0 -21 3 -11 14 10 13 3 15 -42 18 -49 3 -51 4 -28 15 29 14 14 15 -52 4 -26 -4 -45 -4 -42 1 3 4 15 8 27 8 13 0 35 17 56 42 33 39 34 41 10 35 -13 -3 -42 -9 -64 -12 l-40 -7 45 31 c25 16 59 42 75 56 l30 26 -35 -6 -35 -6 46 25 c26 14 57 42 72 65 20 30 34 41 52 41 20 0 25 -5 26 -27 0 -16 4 -37 8 -48 6 -15 9 -5 13 34 5 47 11 60 42 88 43 40 99 45 137 13 17 -14 19 -18 6 -14 -22 8 -64 -26 -46 -37 17 -10 3 -40 -16 -33 -12 5 -15 -2 -15 -36 0 -34 3 -40 13 -31 11 8 16 5 26 -15 9 -21 17 -25 41 -22 19 3 27 1 23 -6 -3 -6 4 -1 16 11 11 12 21 35 21 51 0 50 -29 127 -58 155 -33 32 -89 45 -121 28 -40 -22 -45 1 -5 25 67 41 116 27 165 -46 16 -24 29 -46 29 -50 0 -7 11 -6 141 11 84 10 87 12 122 54 43 51 82 64 126 40 20 -10 40 -13 58 -8 16 4 30 8 33 8 3 1 15 4 27 9 23 7 67 -9 59 -22 -2 -4 4 -39 15 -77 10 -38 17 -77 14 -86 -3 -10 -1 -20 4 -24 7 -4 8 1 5 12 -5 14 -4 15 4 4 6 -8 8 -20 5 -26 -6 -16 43 -55 71 -56 20 0 20 -1 1 -8 -11 -5 -27 -6 -35 -4 -8 3 -2 -7 14 -21 36 -30 42 -28 126 51 166 153 282 416 284 640 1 79 -2 95 -20 120 -33 43 -96 39 -208 -15 -48 -23 -89 -42 -91 -42 -2 0 -6 19 -9 43 -4 23 -8 56 -10 72 -2 17 -5 34 -5 38 -1 5 -5 5 -11 2 -5 -3 -10 -2 -10 3 0 5 -24 -14 -53 -42 -87 -83 -228 -209 -231 -205 -1 2 -15 38 -31 79 -57 150 -120 261 -149 260 -6 -1 -31 -12 -56 -25z m-183 -1 c-3 -3 -12 -4 -19 -1 -8 3 -5 6 6 6 11 1 17 -2 13 -5z m303 -64 c6 -11 8 -20 6 -20 -3 0 -10 9 -16 20 -6 11 -8 20 -6 20 3 0 10 -9 16 -20z m-644 -122 c67 -65 104 -108 104 -122 -1 -73 -56 -49 -109 49 -22 39 -58 95 -80 123 -23 29 -37 52 -31 52 6 0 58 -46 116 -102z m1063 28 c0 -18 -2 -17 -11 7 -5 15 -16 27 -23 27 -16 0 -63 -56 -123 -147 -50 -75 -77 -96 -104 -82 -42 23 -13 61 147 194 l80 66 18 -22 c9 -12 17 -31 16 -43z m-1159 13 c0 -7 8 -18 18 -26 10 -9 11 -12 2 -7 -8 4 -2 -5 14 -20 16 -15 25 -31 20 -34 -11 -8 -15 -44 -5 -37 4 2 8 -2 8 -10 0 -10 -13 -7 -46 12 -67 38 -71 43 -70 72 1 25 2 25 9 -4 6 -23 8 -25 9 -8 2 32 19 73 31 73 5 0 10 -5 10 -11z m1144 -41 c13 -51 5 -63 -65 -98 -33 -17 -57 -25 -53 -18 5 7 9 22 9 34 1 36 69 128 89 121 6 -2 15 -20 20 -39z m23 -35 c-3 -10 -5 -4 -5 12 0 17 2 24 5 18 2 -7 2 -21 0 -30z m-27 -250 c0 -10 -7 -43 -15 -73 -8 -30 -12 -56 -10 -58 2 -2 9 16 15 39 15 59 28 96 29 83 2 -21 -49 -185 -69 -224 -19 -38 -37 -56 -46 -47 -2 2 11 30 31 62 19 33 35 64 35 69 -1 6 -10 -7 -22 -29 -23 -44 -47 -75 -59 -75 -17 0 -14 46 5 68 19 22 19 22 -2 22 -21 0 -26 18 -8 31 5 4 -2 10 -15 15 -24 8 -24 8 6 14 l30 7 -25 10 -25 10 23 7 c18 6 21 11 12 21 -13 15 -6 21 55 47 51 22 55 22 55 1z m-1078 -51 c10 -19 10 -25 -1 -31 -9 -6 -6 -10 11 -14 22 -6 22 -7 3 -21 -14 -11 -16 -15 -6 -16 11 0 10 -3 -3 -13 -18 -13 -18 -15 -2 -40 12 -18 15 -31 8 -43 -8 -14 -12 -12 -30 13 -23 33 -72 170 -72 202 0 19 1 19 40 3 21 -9 45 -27 52 -40z m168 -56 c0 -2 -8 -10 -17 -17 -16 -13 -17 -12 -4 4 13 16 21 21 21 13z m-34 -165 c-4 -5 -13 -8 -22 -4 -11 4 -12 8 -3 20 14 16 36 2 25 -16z m-32 -32 c-9 -15 -34 -10 -28 5 3 8 12 12 20 9 8 -3 11 -9 8 -14z" /><path d="M1203 1154 c-45 -23 -81 -100 -87 -184 -3 -36 -3 -55 0 -43 5 23 5 22 30 -5 14 -15 22 -21 18 -13 -5 11 -3 13 10 8 11 -5 25 2 42 20 15 16 24 21 24 12 1 -10 4 -9 11 4 14 25 7 72 -11 72 -10 0 -15 10 -15 28 0 30 -26 53 -48 42 -6 -4 -1 3 12 14 50 45 138 12 165 -62 8 -23 17 -49 20 -57 2 -8 5 0 5 18 1 23 10 40 32 60 l32 28 -37 -4 c-38 -4 -46 7 -21 28 25 20 17 32 -10 14 -25 -17 -47 -12 -39 9 2 7 -5 12 -18 13 -13 1 -36 4 -53 8 -19 4 -41 1 -62 -10z" /><path d="M955 968 c-79 -43 -85 -89 -20 -142 37 -31 45 -43 45 -71 0 -43 -32 -66 -98 -72 -52 -5 -112 24 -112 53 0 14 -3 14 -15 4 -14 -11 -10 -17 27 -41 50 -33 105 -38 163 -14 34 15 41 15 98 -5 58 -20 63 -20 103 -5 23 9 48 23 54 30 7 8 16 12 21 9 5 -3 9 -1 9 5 0 23 -20 19 -48 -9 -34 -33 -82 -40 -141 -19 -68 24 -69 80 -1 132 63 48 65 72 10 121 -42 38 -62 43 -95 24z m89 -29 c14 -11 26 -24 26 -29 0 -4 -33 -7 -72 -5 -52 2 -64 1 -40 -5 18 -4 42 -6 52 -3 10 3 27 0 37 -6 17 -10 17 -10 -2 -11 -12 0 -26 -5 -32 -11 -7 -7 -24 -3 -57 12 -25 13 -46 26 -46 30 0 16 54 49 80 49 15 0 39 -9 54 -21z" /><path d="M593 915 c0 -8 4 -15 8 -15 4 0 14 -6 21 -14 8 -7 25 -17 38 -21 19 -6 15 1 -18 29 -50 41 -49 41 -49 21z" /><path d="M645 910 c10 -11 20 -20 23 -20 3 0 -3 9 -13 20 -10 11 -20 20 -23 20 -3 0 3 -9 13 -20z" /><path d="M848 905 c-16 -13 -25 -26 -20 -28 4 -2 17 9 30 24 28 35 26 36 -10 4z" /><path d="M1345 894 c-22 -19 -31 -32 -20 -28 19 7 65 49 65 60 0 7 -3 5 -45 -32z" /><path d="M1210 910 c-9 -6 -10 -10 -3 -10 6 0 15 5 18 10 8 12 4 12 -15 0z" /><path d="M1320 899 c-22 -18 -22 -19 -3 -10 12 6 25 16 28 21 9 15 3 12 -25 -11z" /><path d="M1148 883 c6 -2 10 -8 7 -13 -3 -4 5 -6 17 -2 21 5 21 6 2 13 -10 4 -23 8 -29 8 -5 -1 -4 -3 3 -6z" /><path d="M708 873 c7 -3 16 -2 19 1 4 3 -2 6 -13 5 -11 0 -14 -3 -6 -6z" /><path d="M800 871 c0 -6 -25 -12 -57 -13 -36 -1 -46 -3 -25 -5 18 -2 30 -8 27 -13 -3 -5 -13 -7 -23 -4 -15 5 -15 4 -2 -6 12 -9 7 -10 -25 -6 -22 2 -32 2 -22 -1 18 -4 18 -6 1 -24 -25 -28 1 -24 41 6 18 14 50 34 70 44 23 11 33 21 26 25 -6 4 -11 2 -11 -3z" /><path d="M858 873 c7 -3 16 -2 19 1 4 3 -2 6 -13 5 -11 0 -14 -3 -6 -6z" /><path d="M1200 845 c33 -19 50 -18 26 0 -11 8 -27 15 -35 15 -10 -1 -7 -6 9 -15z" /><path d="M1258 813 c7 -3 16 -2 19 1 4 3 -2 6 -13 5 -11 0 -14 -3 -6 -6z" /><path d="M1287 789 c7 -7 15 -10 18 -7 3 3 -2 9 -12 12 -14 6 -15 5 -6 -5z" /><path d="M638 763 c6 -2 18 -2 25 0 6 3 1 5 -13 5 -14 0 -19 -2 -12 -5z" /><path d="M642 700 c0 -14 2 -19 5 -12 2 6 2 18 0 25 -3 6 -5 1 -5 -13z" /><path d="M890 230 c-13 -8 -12 -10 3 -10 9 0 17 5 17 10 0 12 -1 12 -20 0z" /><path d="M1100 230 c0 -5 5 -10 11 -10 5 0 7 5 4 10 -3 6 -8 10 -11 10 -2 0 -4 -4 -4 -10z" /><path d="M813 183 c4 -3 1 -13 -6 -21 -9 -11 -4 -11 16 2 33 22 34 26 5 26 -12 0 -18 -3 -15 -7z" /><path d="M1163 179 c11 -7 16 -17 12 -29 -3 -10 -1 -21 4 -24 12 -8 11 35 -2 52 -5 6 -15 12 -21 12 -6 0 -3 -5 7 -11z" /><path d="M1177 60 c7 -25 23 -37 23 -17 0 8 -6 20 -14 26 -12 10 -13 8 -9 -9z" /><path d="M1161 14 c0 -11 3 -14 6 -6 3 7 2 16 -1 19 -3 4 -6 -2 -5 -13z" /></g></svg>