<?xml version="1.0" encoding="UTF-8"?>
<!DOCTYPE svg PUBLIC "-//W3C//DTD SVG 1.1//EN" "http://www.w3.org/Graphics/SVG/1.1/DTD/svg11.dtd">
<svg xmlns="http://www.w3.org/2000/svg" version="1.1" width="200px" height="200px" style="shape-rendering:geometricPrecision; text-rendering:geometricPrecision; image-rendering:optimizeQuality; fill-rule:evenodd; clip-rule:evenodd" xmlns:xlink="http://www.w3.org/1999/xlink">
<g><path style="opacity:1" fill="#cfb154" d="M 101.5,7.5 C 100.652,9.09307 99.3187,10.2597 97.5,11C 96.552,11.4828 95.552,11.6495 94.5,11.5C 96.3356,9.41203 98.6689,8.0787 101.5,7.5 Z"/></g>
<g><path style="opacity:1" fill="#edd56f" d="M 108.5,5.5 C 109.097,4.86137 109.93,4.52804 111,4.5C 118.623,5.86799 125.456,8.86799 131.5,13.5C 131.232,15.099 131.566,16.4324 132.5,17.5C 133.11,18.391 133.443,19.391 133.5,20.5C 132.198,19.1931 130.865,19.1931 129.5,20.5C 127.423,21.9876 126.423,23.9876 126.5,26.5C 126.167,26.5 125.833,26.5 125.5,26.5C 124.833,25.5 124.167,24.5 123.5,23.5C 125.361,21.889 126.861,19.889 128,17.5C 128.718,18.4506 129.551,18.6172 130.5,18C 130.549,15.5027 129.216,13.5027 126.5,12C 114.03,7.17732 111.03,10.344 117.5,21.5C 115.901,21.7678 114.568,21.4345 113.5,20.5C 112.914,18.1602 111.914,15.9935 110.5,14C 112.301,13.6827 112.634,13.016 111.5,12C 112.274,9.56029 113.94,8.22695 116.5,8C 114.091,6.29315 111.425,5.45982 108.5,5.5 Z"/></g>
<g><path style="opacity:1" fill="#fadc5c" d="M 108.5,5.5 C 111.425,5.45982 114.091,6.29315 116.5,8C 113.94,8.22695 112.274,9.56029 111.5,12C 112.634,13.016 112.301,13.6827 110.5,14C 111.914,15.9935 112.914,18.1602 113.5,20.5C 112.833,20.5 112.167,20.5 111.5,20.5C 111.5,20.1667 111.5,19.8333 111.5,19.5C 110.313,17.0246 108.313,16.0246 105.5,16.5C 105.691,13.0155 106.691,9.84881 108.5,7C 106.203,6.98221 103.869,7.14888 101.5,7.5C 103.515,6.07619 105.848,5.40953 108.5,5.5 Z"/></g>
<g><path style="opacity:1" fill="#fceb9a" d="M 123.5,23.5 C 122.833,23.5 122.167,23.5 121.5,23.5C 120.609,22.8902 119.609,22.5569 118.5,22.5C 117.833,22.5 117.5,22.1667 117.5,21.5C 111.03,10.344 114.03,7.17732 126.5,12C 129.216,13.5027 130.549,15.5027 130.5,18C 129.551,18.6172 128.718,18.4506 128,17.5C 126.861,19.889 125.361,21.889 123.5,23.5 Z"/></g>
<g><path style="opacity:1" fill="#f4c734" d="M 111.5,19.5 C 105.591,18.2015 99.5909,17.5348 93.5,17.5C 93.8333,15.5 94.1667,13.5 94.5,11.5C 95.552,11.6495 96.552,11.4828 97.5,11C 99.3187,10.2597 100.652,9.09307 101.5,7.5C 103.869,7.14888 106.203,6.98221 108.5,7C 106.691,9.84881 105.691,13.0155 105.5,16.5C 108.313,16.0246 110.313,17.0246 111.5,19.5 Z"/></g>
<g><path style="opacity:1" fill="#c7aa8a" d="M 143.5,21.5 C 142.883,21.6107 142.383,21.944 142,22.5C 141.802,20.6183 141.302,18.9516 140.5,17.5C 140.582,15.7483 139.749,14.7483 138,14.5C 136.269,15.741 134.436,16.741 132.5,17.5C 131.566,16.4324 131.232,15.099 131.5,13.5C 139.318,9.94778 143.318,12.6145 143.5,21.5 Z"/></g>
<g><path style="opacity:1" fill="#fef1bd" d="M 118.5,12.5 C 121.471,12.4354 124.138,13.2687 126.5,15C 123.473,20.5529 120.14,20.5529 116.5,15C 117.056,13.9889 117.722,13.1556 118.5,12.5 Z"/></g>
<g><path style="opacity:1" fill="#dbc4a9" d="M 90.5,13.5 C 91.9538,15.2633 91.6204,16.5967 89.5,17.5C 89.1667,17.5 88.8333,17.5 88.5,17.5C 87.3646,15.7868 85.698,15.1201 83.5,15.5C 85.3817,12.782 87.7151,12.1153 90.5,13.5 Z"/></g>
<g><path style="opacity:1" fill="#412c20" d="M 140.5,17.5 C 140.5,18.5 140.5,19.5 140.5,20.5C 139.209,20.2627 138.209,20.596 137.5,21.5C 136.5,21.5 135.5,21.5 134.5,21.5C 133.833,21.5 133.5,21.1667 133.5,20.5C 133.443,19.391 133.11,18.391 132.5,17.5C 134.436,16.741 136.269,15.741 138,14.5C 139.749,14.7483 140.582,15.7483 140.5,17.5 Z"/></g>
<g><path style="opacity:1" fill="#bc9222" d="M 94.5,11.5 C 94.1667,13.5 93.8333,15.5 93.5,17.5C 99.5909,17.5348 105.591,18.2015 111.5,19.5C 111.5,19.8333 111.5,20.1667 111.5,20.5C 106.489,20.3341 101.489,20.5007 96.5,21C 95.5842,21.2784 94.9175,21.7784 94.5,22.5C 93.8333,22.5 93.1667,22.5 92.5,22.5C 91.5,22.5 90.5,22.5 89.5,22.5C 89.5,20.8333 89.5,19.1667 89.5,17.5C 91.6204,16.5967 91.9538,15.2633 90.5,13.5C 92.0618,13.2671 93.3951,12.6005 94.5,11.5 Z"/></g>
<g><path style="opacity:1" fill="#f4d648" d="M 133.5,20.5 C 133.5,21.1667 133.833,21.5 134.5,21.5C 135.692,23.1131 136.692,24.7798 137.5,26.5C 137.5,27.1667 137.833,27.5 138.5,27.5C 140.764,35.3635 143.597,43.0302 147,50.5C 148.429,53.95 148.595,57.2833 147.5,60.5C 145.958,59.8365 144.291,59.1698 142.5,58.5C 141.873,57.5832 141.539,56.5832 141.5,55.5C 142.7,52.031 142.7,48.6977 141.5,45.5C 141.167,44.8333 140.833,44.1667 140.5,43.5C 139.66,41.1475 138.326,39.1475 136.5,37.5C 133.167,33.8333 129.833,30.1667 126.5,26.5C 126.423,23.9876 127.423,21.9876 129.5,20.5C 130.865,19.1931 132.198,19.1931 133.5,20.5 Z"/></g>
<g><path style="opacity:1" fill="#7a614b" d="M 140.5,17.5 C 141.302,18.9516 141.802,20.6183 142,22.5C 142.383,21.944 142.883,21.6107 143.5,21.5C 142.55,24.1149 140.883,26.1149 138.5,27.5C 137.833,27.5 137.5,27.1667 137.5,26.5C 137.821,24.9519 138.821,24.2852 140.5,24.5C 140.5,23.5 140.5,22.5 140.5,21.5C 139.5,21.5 138.5,21.5 137.5,21.5C 138.209,20.596 139.209,20.2627 140.5,20.5C 140.5,19.5 140.5,18.5 140.5,17.5 Z"/></g>
<g><path style="opacity:0.373" fill="#3e3128" d="M 83.5,15.5 C 85.698,15.1201 87.3646,15.7868 88.5,17.5C 87.0924,21.313 85.4258,24.9797 83.5,28.5C 82.3115,25.3883 81.3115,22.2216 80.5,19C 81.6364,17.8549 82.6364,16.6883 83.5,15.5 Z"/></g>
<g><path style="opacity:1" fill="#1e130a" d="M 111.5,20.5 C 112.167,20.5 112.833,20.5 113.5,20.5C 114.568,21.4345 115.901,21.7678 117.5,21.5C 117.5,22.1667 117.833,22.5 118.5,22.5C 110.5,23.8333 102.5,23.8333 94.5,22.5C 94.9175,21.7784 95.5842,21.2784 96.5,21C 101.489,20.5007 106.489,20.3341 111.5,20.5 Z"/></g>
<g><path style="opacity:1" fill="#3b2617" d="M 92.5,22.5 C 93.1667,22.5 93.8333,22.5 94.5,22.5C 102.5,23.8333 110.5,23.8333 118.5,22.5C 119.609,22.5569 120.609,22.8902 121.5,23.5C 121.5,23.8333 121.5,24.1667 121.5,24.5C 118.167,24.5 114.833,24.5 111.5,24.5C 104.646,24.824 97.979,24.4907 91.5,23.5C 92.1667,23.5 92.5,23.1667 92.5,22.5 Z"/></g>
<g><path style="opacity:1" fill="#bb9473" d="M 134.5,21.5 C 135.5,21.5 136.5,21.5 137.5,21.5C 138.5,21.5 139.5,21.5 140.5,21.5C 140.5,22.5 140.5,23.5 140.5,24.5C 138.821,24.2852 137.821,24.9519 137.5,26.5C 136.692,24.7798 135.692,23.1131 134.5,21.5 Z"/></g>
<g><path style="opacity:1" fill="#7f5d42" d="M 91.5,23.5 C 97.979,24.4907 104.646,24.824 111.5,24.5C 111.5,24.8333 111.5,25.1667 111.5,25.5C 104.492,25.3337 97.4921,25.5004 90.5,26C 92.5466,27.0726 94.5466,28.2393 96.5,29.5C 97.4656,31.396 97.7989,33.396 97.5,35.5C 97.5569,36.609 97.8902,37.609 98.5,38.5C 97.1667,35.8333 95.8333,33.1667 94.5,30.5C 92.7226,29.3995 90.7226,28.5662 88.5,28C 89.7736,27.0228 89.7736,26.1894 88.5,25.5C 89.2905,24.5987 90.2905,23.9321 91.5,23.5 Z"/></g>
<g><path style="opacity:1" fill="#816120" d="M 88.5,17.5 C 88.8333,17.5 89.1667,17.5 89.5,17.5C 89.5,19.1667 89.5,20.8333 89.5,22.5C 90.5,22.5 91.5,22.5 92.5,22.5C 92.5,23.1667 92.1667,23.5 91.5,23.5C 90.2905,23.9321 89.2905,24.5987 88.5,25.5C 86.7745,27.2279 85.4411,29.2279 84.5,31.5C 83.6618,31.1583 83.3284,30.4916 83.5,29.5C 83.5,29.1667 83.5,28.8333 83.5,28.5C 85.4258,24.9797 87.0924,21.313 88.5,17.5 Z"/></g>
<g><path style="opacity:1" fill="#d6ad86" d="M 111.5,25.5 C 108.038,26.4816 104.371,26.815 100.5,26.5C 100.162,29.0115 100.162,31.3448 100.5,33.5C 99.6431,34.4252 98.6431,35.0919 97.5,35.5C 97.7989,33.396 97.4656,31.396 96.5,29.5C 94.5466,28.2393 92.5466,27.0726 90.5,26C 97.4921,25.5004 104.492,25.3337 111.5,25.5 Z"/></g>
<g><path style="opacity:1" fill="#e9ccb0" d="M 111.5,24.5 C 114.833,24.5 118.167,24.5 121.5,24.5C 122.66,25.265 123.66,26.265 124.5,27.5C 120.772,28.7244 117.105,29.2244 113.5,29C 113.014,31.0266 113.014,33.1933 113.5,35.5C 114.5,35.5 115.5,35.5 116.5,35.5C 116.5,36.1667 116.833,36.5 117.5,36.5C 119.265,37.4614 121.265,37.7947 123.5,37.5C 123.5,36.5 123.5,35.5 123.5,34.5C 123.5,34.1667 123.5,33.8333 123.5,33.5C 124.833,33.5 126.167,33.5 127.5,33.5C 130.131,35.1526 132.797,36.8193 135.5,38.5C 136.5,39.8333 137.5,41.1667 138.5,42.5C 138.143,44.5891 137.477,46.5891 136.5,48.5C 135.148,47.4825 134.148,46.1492 133.5,44.5C 132.059,45.304 130.559,45.9706 129,46.5C 125.256,44.8633 121.423,43.5299 117.5,42.5C 117.36,40.8762 118.027,39.7096 119.5,39C 118.234,38.6905 117.067,38.1905 116,37.5C 113.618,38.5541 111.118,39.2208 108.5,39.5C 108.366,41.2915 108.699,42.9582 109.5,44.5C 107.744,43.4479 107.077,41.7812 107.5,39.5C 106.5,39.5 105.5,39.5 104.5,39.5C 104.167,39.5 103.833,39.5 103.5,39.5C 102.081,38.5489 100.415,38.2155 98.5,38.5C 97.8902,37.609 97.5569,36.609 97.5,35.5C 98.6431,35.0919 99.6431,34.4252 100.5,33.5C 100.162,31.3448 100.162,29.0115 100.5,26.5C 104.371,26.815 108.038,26.4816 111.5,25.5C 111.5,25.1667 111.5,24.8333 111.5,24.5 Z"/></g>
<g><path style="opacity:1" fill="#816048" d="M 121.5,23.5 C 122.167,23.5 122.833,23.5 123.5,23.5C 124.167,24.5 124.833,25.5 125.5,26.5C 126.015,28.8945 126.681,31.2278 127.5,33.5C 126.167,33.5 124.833,33.5 123.5,33.5C 123.631,32.6236 123.298,31.9569 122.5,31.5C 121.28,32.7111 120.113,32.7111 119,31.5C 117.519,32.4709 116.685,33.8042 116.5,35.5C 115.5,35.5 114.5,35.5 113.5,35.5C 113.014,33.1933 113.014,31.0266 113.5,29C 117.105,29.2244 120.772,28.7244 124.5,27.5C 123.66,26.265 122.66,25.265 121.5,24.5C 121.5,24.1667 121.5,23.8333 121.5,23.5 Z"/></g>
<g><path style="opacity:1" fill="#3a2412" d="M 125.5,26.5 C 125.833,26.5 126.167,26.5 126.5,26.5C 129.833,30.1667 133.167,33.8333 136.5,37.5C 136.5,38.1667 136.167,38.5 135.5,38.5C 132.797,36.8193 130.131,35.1526 127.5,33.5C 126.681,31.2278 126.015,28.8945 125.5,26.5 Z"/></g>
<g><path style="opacity:1" fill="#271c18" d="M 88.5,25.5 C 89.7736,26.1894 89.7736,27.0228 88.5,28C 90.7226,28.5662 92.7226,29.3995 94.5,30.5C 95.3686,32.717 95.702,35.0504 95.5,37.5C 93.1944,37.9926 90.861,38.3259 88.5,38.5C 88.5,37.5 88.5,36.5 88.5,35.5C 85.6967,35.9613 83.3634,37.2947 81.5,39.5C 80.9569,39.44 80.6236,39.1067 80.5,38.5C 81.8611,36.1495 83.1944,33.8162 84.5,31.5C 85.4411,29.2279 86.7745,27.2279 88.5,25.5 Z"/></g>
<g><path style="opacity:1" fill="#2a2321" d="M 123.5,33.5 C 123.5,33.8333 123.5,34.1667 123.5,34.5C 121.858,36.0808 119.858,36.7475 117.5,36.5C 116.833,36.5 116.5,36.1667 116.5,35.5C 116.685,33.8042 117.519,32.4709 119,31.5C 120.113,32.7111 121.28,32.7111 122.5,31.5C 123.298,31.9569 123.631,32.6236 123.5,33.5 Z"/></g>
<g><path style="opacity:1" fill="#8e7362" d="M 123.5,34.5 C 123.5,35.5 123.5,36.5 123.5,37.5C 121.265,37.7947 119.265,37.4614 117.5,36.5C 119.858,36.7475 121.858,36.0808 123.5,34.5 Z"/></g>
<g><path style="opacity:1" fill="#926d36" d="M 136.5,37.5 C 138.326,39.1475 139.66,41.1475 140.5,43.5C 139.833,43.1667 139.167,42.8333 138.5,42.5C 137.5,41.1667 136.5,39.8333 135.5,38.5C 136.167,38.5 136.5,38.1667 136.5,37.5 Z"/></g>
<g><path style="opacity:1" fill="#221e20" d="M 103.5,39.5 C 103.833,39.5 104.167,39.5 104.5,39.5C 104.5,39.8333 104.5,40.1667 104.5,40.5C 105.405,41.7024 105.405,43.0357 104.5,44.5C 102.751,46.5314 100.751,46.8647 98.5,45.5C 96.615,43.9468 95.615,41.9468 95.5,39.5C 98.1667,39.5 100.833,39.5 103.5,39.5 Z"/></g>
<g><path style="opacity:0.361" fill="#857967" d="M 77.5,40.5 C 77.6716,41.4916 77.3382,42.1583 76.5,42.5C 72.4755,42.0522 68.4755,41.3855 64.5,40.5C 68.8182,39.4596 73.1515,39.4596 77.5,40.5 Z"/></g>
<g><path style="opacity:1" fill="#715c4c" d="M 94.5,30.5 C 95.8333,33.1667 97.1667,35.8333 98.5,38.5C 100.415,38.2155 102.081,38.5489 103.5,39.5C 100.833,39.5 98.1667,39.5 95.5,39.5C 95.615,41.9468 96.615,43.9468 98.5,45.5C 98.5499,47.5901 97.5499,48.9234 95.5,49.5C 94.8076,48.9747 94.3076,48.3081 94,47.5C 92.8545,48.6843 91.6879,48.6843 90.5,47.5C 90.1164,45.7074 88.9497,44.7074 87,44.5C 84.2467,45.7299 81.4134,46.7299 78.5,47.5C 77.3861,46.277 77.2195,44.9437 78,43.5C 79.3756,42.2949 80.5423,40.9616 81.5,39.5C 83.3634,37.2947 85.6967,35.9613 88.5,35.5C 88.5,36.5 88.5,37.5 88.5,38.5C 90.861,38.3259 93.1944,37.9926 95.5,37.5C 95.702,35.0504 95.3686,32.717 94.5,30.5 Z"/></g>
<g><path style="opacity:1" fill="#f5e3cc" d="M 117.5,42.5 C 116.566,43.5676 116.232,44.901 116.5,46.5C 116.5,47.1667 116.5,47.8333 116.5,48.5C 113.697,48.0387 111.363,46.7053 109.5,44.5C 108.699,42.9582 108.366,41.2915 108.5,39.5C 111.118,39.2208 113.618,38.5541 116,37.5C 117.067,38.1905 118.234,38.6905 119.5,39C 118.027,39.7096 117.36,40.8762 117.5,42.5 Z"/></g>
<g><path style="opacity:1" fill="#dbb38c" d="M 117.5,42.5 C 121.423,43.5299 125.256,44.8633 129,46.5C 130.559,45.9706 132.059,45.304 133.5,44.5C 134.148,46.1492 135.148,47.4825 136.5,48.5C 137.477,46.5891 138.143,44.5891 138.5,42.5C 139.167,42.8333 139.833,43.1667 140.5,43.5C 140.833,44.1667 141.167,44.8333 141.5,45.5C 141.702,47.9496 141.369,50.283 140.5,52.5C 139.262,53.4124 137.928,53.5791 136.5,53C 130.688,49.929 124.688,47.0957 118.5,44.5C 117.818,45.2427 117.151,45.9094 116.5,46.5C 116.232,44.901 116.566,43.5676 117.5,42.5 Z"/></g>
<g><path style="opacity:1" fill="#7e6653" d="M 104.5,40.5 C 106.365,44.0017 108.698,47.3351 111.5,50.5C 112.325,51.3857 113.325,51.719 114.5,51.5C 114.5,52.1667 114.167,52.5 113.5,52.5C 112.167,52.5 110.833,52.5 109.5,52.5C 108.915,50.078 107.415,48.4113 105,47.5C 104.517,46.552 104.351,45.552 104.5,44.5C 105.405,43.0357 105.405,41.7024 104.5,40.5 Z"/></g>
<g><path style="opacity:1" fill="#c4a389" d="M 104.5,40.5 C 104.5,40.1667 104.5,39.8333 104.5,39.5C 105.5,39.5 106.5,39.5 107.5,39.5C 107.077,41.7812 107.744,43.4479 109.5,44.5C 111.363,46.7053 113.697,48.0387 116.5,48.5C 116.167,49.1667 115.833,49.8333 115.5,50.5C 114.833,50.5 114.5,50.8333 114.5,51.5C 113.325,51.719 112.325,51.3857 111.5,50.5C 108.698,47.3351 106.365,44.0017 104.5,40.5 Z"/></g>
<g><path style="opacity:1" fill="#5a4b3b" d="M 83.5,29.5 C 83.3284,30.4916 83.6618,31.1583 84.5,31.5C 83.1944,33.8162 81.8611,36.1495 80.5,38.5C 80.6236,39.1067 80.9569,39.44 81.5,39.5C 80.5423,40.9616 79.3756,42.2949 78,43.5C 77.2195,44.9437 77.3861,46.277 78.5,47.5C 81.4134,46.7299 84.2467,45.7299 87,44.5C 88.9497,44.7074 90.1164,45.7074 90.5,47.5C 88.9557,47.7031 87.6223,48.3698 86.5,49.5C 85.8333,49.1667 85.1667,48.8333 84.5,48.5C 79.2565,48.1023 76.5899,50.4357 76.5,55.5C 76.7036,57.6854 77.3702,59.6854 78.5,61.5C 78.1496,64.4534 79.1496,66.7867 81.5,68.5C 81.1667,68.5 80.8333,68.5 80.5,68.5C 79.3569,68.0919 78.3569,67.4252 77.5,66.5C 76.7386,62.3103 75.4053,58.3103 73.5,54.5C 71.7419,55.1279 70.2419,56.1279 69,57.5C 68.342,55.892 68.842,54.7253 70.5,54C 68.0885,52.4108 65.9218,52.9108 64,55.5C 63.8374,53.6133 64.6707,52.1133 66.5,51C 68.8877,49.1395 71.5544,47.8061 74.5,47C 70.2182,47.6288 65.8849,47.9622 61.5,48C 65.7604,45.4331 70.4271,44.0998 75.5,44C 76.056,43.6174 76.3893,43.1174 76.5,42.5C 77.3382,42.1583 77.6716,41.4916 77.5,40.5C 79.7685,36.9617 81.7685,33.295 83.5,29.5 Z"/></g>
<g><path style="opacity:1" fill="#825814" d="M 141.5,45.5 C 142.7,48.6977 142.7,52.031 141.5,55.5C 140.833,56.1667 140.167,56.8333 139.5,57.5C 139.5,57.1667 139.5,56.8333 139.5,56.5C 139.833,55.1667 140.167,53.8333 140.5,52.5C 141.369,50.283 141.702,47.9496 141.5,45.5 Z"/></g>
<g><path style="opacity:1" fill="#442e20" d="M 90.5,47.5 C 91.0476,49.3936 92.0476,51.0603 93.5,52.5C 93.2907,53.086 92.9574,53.586 92.5,54C 95.6922,56.0282 98.3589,58.5282 100.5,61.5C 100.5,61.8333 100.5,62.1667 100.5,62.5C 95.7871,61.0124 91.1205,60.6791 86.5,61.5C 83.1217,59.4816 79.7883,57.4816 76.5,55.5C 76.5899,50.4357 79.2565,48.1023 84.5,48.5C 85.1667,48.8333 85.8333,49.1667 86.5,49.5C 87.6223,48.3698 88.9557,47.7031 90.5,47.5 Z"/></g>
<g><path style="opacity:1" fill="#a07859" d="M 140.5,52.5 C 140.167,53.8333 139.833,55.1667 139.5,56.5C 137.409,56.3184 135.409,56.6518 133.5,57.5C 129.538,53.2738 124.871,49.9405 119.5,47.5C 118.304,47.8457 118.304,48.3457 119.5,49C 121.833,50.6667 124.167,52.3333 126.5,54C 123.282,53.6279 120.449,52.1279 118,49.5C 117.658,51.6192 116.825,51.9526 115.5,50.5C 115.833,49.8333 116.167,49.1667 116.5,48.5C 116.5,47.8333 116.5,47.1667 116.5,46.5C 117.151,45.9094 117.818,45.2427 118.5,44.5C 124.688,47.0957 130.688,49.929 136.5,53C 137.928,53.5791 139.262,53.4124 140.5,52.5 Z"/></g>
<g><path style="opacity:1" fill="#281d18" d="M 109.5,52.5 C 110.833,52.5 112.167,52.5 113.5,52.5C 113.167,53.1667 112.833,53.8333 112.5,54.5C 112.389,55.1174 112.056,55.6174 111.5,56C 107.529,56.5932 103.863,57.0932 100.5,57.5C 97.6482,56.301 96.8149,54.6343 98,52.5C 100.099,53.3982 102.266,53.3982 104.5,52.5C 106.044,52.7896 107.377,53.4563 108.5,54.5C 109.298,54.0431 109.631,53.3764 109.5,52.5 Z"/></g>
<g><path style="opacity:1" fill="#564233" d="M 104.5,44.5 C 104.351,45.552 104.517,46.552 105,47.5C 107.415,48.4113 108.915,50.078 109.5,52.5C 109.631,53.3764 109.298,54.0431 108.5,54.5C 107.377,53.4563 106.044,52.7896 104.5,52.5C 102.266,53.3982 100.099,53.3982 98,52.5C 96.8149,54.6343 97.6482,56.301 100.5,57.5C 104.163,58.4985 107.829,59.4985 111.5,60.5C 109.891,61.7709 108.058,62.7709 106,63.5C 104.275,62.536 102.441,61.8693 100.5,61.5C 98.3589,58.5282 95.6922,56.0282 92.5,54C 92.9574,53.586 93.2907,53.086 93.5,52.5C 92.0476,51.0603 91.0476,49.3936 90.5,47.5C 91.6879,48.6843 92.8545,48.6843 94,47.5C 94.3076,48.3081 94.8076,48.9747 95.5,49.5C 97.5499,48.9234 98.5499,47.5901 98.5,45.5C 100.751,46.8647 102.751,46.5314 104.5,44.5 Z"/></g>
<g><path style="opacity:0.996" fill="#7c6758" d="M 112.5,54.5 C 113.497,54.4701 114.164,54.9701 114.5,56C 113.685,57.6434 112.685,59.1434 111.5,60.5C 107.829,59.4985 104.163,58.4985 100.5,57.5C 103.863,57.0932 107.529,56.5932 111.5,56C 112.056,55.6174 112.389,55.1174 112.5,54.5 Z"/></g>
<g><path style="opacity:1" fill="#543724" d="M 139.5,56.5 C 139.5,56.8333 139.5,57.1667 139.5,57.5C 139.5,57.8333 139.5,58.1667 139.5,58.5C 138.833,58.8333 138.167,59.1667 137.5,59.5C 137.565,59.0618 137.399,58.7284 137,58.5C 130.206,63.2464 124.539,62.2464 120,55.5C 119.51,56.7932 119.343,58.1266 119.5,59.5C 115.436,62.0565 110.936,63.7231 106,64.5C 103.991,64.2421 102.157,63.5755 100.5,62.5C 100.5,62.1667 100.5,61.8333 100.5,61.5C 102.441,61.8693 104.275,62.536 106,63.5C 108.058,62.7709 109.891,61.7709 111.5,60.5C 112.685,59.1434 113.685,57.6434 114.5,56C 114.164,54.9701 113.497,54.4701 112.5,54.5C 112.833,53.8333 113.167,53.1667 113.5,52.5C 114.167,52.5 114.5,52.1667 114.5,51.5C 114.5,50.8333 114.833,50.5 115.5,50.5C 116.825,51.9526 117.658,51.6192 118,49.5C 120.449,52.1279 123.282,53.6279 126.5,54C 124.167,52.3333 121.833,50.6667 119.5,49C 118.304,48.3457 118.304,47.8457 119.5,47.5C 124.871,49.9405 129.538,53.2738 133.5,57.5C 135.409,56.6518 137.409,56.3184 139.5,56.5 Z"/></g>
<g><path style="opacity:1" fill="#19100a" d="M 76.5,55.5 C 79.7883,57.4816 83.1217,59.4816 86.5,61.5C 90.2694,64.428 93.9361,67.5946 97.5,71C 96.8333,71.6667 96.1667,72.3333 95.5,73C 96.7736,73.9772 96.7736,74.8106 95.5,75.5C 90.0571,70.605 84.3904,65.9383 78.5,61.5C 77.3702,59.6854 76.7036,57.6854 76.5,55.5 Z"/></g>
<g><path style="opacity:1" fill="#311f15" d="M 137.5,59.5 C 133.267,63.9623 128.267,67.4623 122.5,70C 120.627,70.9529 120.294,72.1196 121.5,73.5C 120.85,75.4352 120.517,77.4352 120.5,79.5C 119.5,80.1667 118.5,80.8333 117.5,81.5C 117.248,78.7562 117.915,76.2562 119.5,74C 119.167,73.5 118.833,73 118.5,72.5C 115.532,74.1397 112.865,76.1397 110.5,78.5C 108.459,78.8541 106.626,78.8541 105,78.5C 102.982,79.2228 101.148,80.2228 99.5,81.5C 98.1798,79.5368 96.8465,77.5368 95.5,75.5C 96.7736,74.8106 96.7736,73.9772 95.5,73C 96.1667,72.3333 96.8333,71.6667 97.5,71C 93.9361,67.5946 90.2694,64.428 86.5,61.5C 91.1205,60.6791 95.7871,61.0124 100.5,62.5C 102.157,63.5755 103.991,64.2421 106,64.5C 110.936,63.7231 115.436,62.0565 119.5,59.5C 119.343,58.1266 119.51,56.7932 120,55.5C 124.539,62.2464 130.206,63.2464 137,58.5C 137.399,58.7284 137.565,59.0618 137.5,59.5 Z"/></g>
<g><path style="opacity:1" fill="#c79822" d="M 141.5,55.5 C 141.539,56.5832 141.873,57.5832 142.5,58.5C 144.291,59.1698 145.958,59.8365 147.5,60.5C 146.209,60.2627 145.209,60.596 144.5,61.5C 141.465,63.8542 138.132,65.3542 134.5,66C 136.241,64.3804 138.075,62.8804 140,61.5C 140.47,60.4232 140.303,59.4232 139.5,58.5C 139.5,58.1667 139.5,57.8333 139.5,57.5C 140.167,56.8333 140.833,56.1667 141.5,55.5 Z"/></g>
<g><path style="opacity:1" fill="#926713" d="M 139.5,58.5 C 140.303,59.4232 140.47,60.4232 140,61.5C 138.075,62.8804 136.241,64.3804 134.5,66C 138.132,65.3542 141.465,63.8542 144.5,61.5C 144.483,63.5648 144.15,65.5648 143.5,67.5C 139.956,67.1324 136.956,68.1324 134.5,70.5C 133.833,70.8333 133.167,71.1667 132.5,71.5C 131.395,72.6005 130.062,73.2671 128.5,73.5C 130.054,72.1054 129.721,71.4387 127.5,71.5C 125.675,72.6511 123.675,73.3178 121.5,73.5C 120.294,72.1196 120.627,70.9529 122.5,70C 128.267,67.4623 133.267,63.9623 137.5,59.5C 138.167,59.1667 138.833,58.8333 139.5,58.5 Z"/></g>
<g><path style="opacity:0.463" fill="#675134" d="M 147.5,60.5 C 146.051,62.6106 145.051,64.9439 144.5,67.5C 144.167,67.5 143.833,67.5 143.5,67.5C 144.15,65.5648 144.483,63.5648 144.5,61.5C 145.209,60.596 146.209,60.2627 147.5,60.5 Z"/></g>
<g><path style="opacity:1" fill="#5e390a" d="M 128.5,73.5 C 125.55,75.1153 122.884,77.1153 120.5,79.5C 120.517,77.4352 120.85,75.4352 121.5,73.5C 123.675,73.3178 125.675,72.6511 127.5,71.5C 129.721,71.4387 130.054,72.1054 128.5,73.5 Z"/></g>
<g><path style="opacity:1" fill="#634110" d="M 78.5,61.5 C 84.3904,65.9383 90.0571,70.605 95.5,75.5C 96.8465,77.5368 98.1798,79.5368 99.5,81.5C 99.8333,82.8333 100.167,84.1667 100.5,85.5C 96.8969,84.1643 96.5635,84.9977 99.5,88C 98.1807,88.195 96.8474,88.0283 95.5,87.5C 95.7852,85.712 95.4519,84.0453 94.5,82.5C 92.4648,81.9588 90.4648,81.2922 88.5,80.5C 89.6538,77.8985 90.1538,75.2318 90,72.5C 89.586,72.9574 89.086,73.2907 88.5,73.5C 87.8324,76.3056 87.1657,78.9723 86.5,81.5C 86.7852,79.712 86.4519,78.0453 85.5,76.5C 84.914,76.7093 84.414,77.0426 84,77.5C 82.2458,75.75 80.0792,75.0833 77.5,75.5C 79.7053,73.6366 81.0387,71.3033 81.5,68.5C 79.1496,66.7867 78.1496,64.4534 78.5,61.5 Z"/></g>
<g><path style="opacity:0.931" fill="#dcc564" d="M 146.5,71.5 C 148.538,75.9399 150.204,80.6066 151.5,85.5C 149.547,82.8589 148.047,79.8589 147,76.5C 146.506,74.8659 146.34,73.1992 146.5,71.5 Z"/></g>
<g><path style="opacity:1" fill="#f7d963" d="M 143.5,67.5 C 143.833,67.5 144.167,67.5 144.5,67.5C 145.6,68.6049 146.267,69.9382 146.5,71.5C 146.34,73.1992 146.506,74.8659 147,76.5C 148.047,79.8589 149.547,82.8589 151.5,85.5C 152.924,87.5145 153.59,89.8478 153.5,92.5C 153.5,93.8333 153.5,95.1667 153.5,96.5C 152.5,96.5 151.5,96.5 150.5,96.5C 149.833,95.1667 148.833,94.1667 147.5,93.5C 150.167,92.1667 150.167,90.8333 147.5,89.5C 145.784,87.5526 143.617,86.2193 141,85.5C 140.689,84.2575 141.189,83.2575 142.5,82.5C 140.604,81.5344 138.604,81.2011 136.5,81.5C 137.23,80.2876 138.23,79.2876 139.5,78.5C 135.8,77.0755 134.134,74.4089 134.5,70.5C 136.956,68.1324 139.956,67.1324 143.5,67.5 Z"/></g>
<g><path style="opacity:1" fill="#fee889" d="M 137.5,69.5 C 139.086,69.6932 140.753,70.0266 142.5,70.5C 143.52,72.4325 143.687,74.4325 143,76.5C 140.452,75.4763 137.952,74.3096 135.5,73C 136.305,71.8873 136.972,70.7206 137.5,69.5 Z"/></g>
<g><path style="opacity:1" fill="#966f16" d="M 77.5,75.5 C 80.0792,75.0833 82.2458,75.75 84,77.5C 84.414,77.0426 84.914,76.7093 85.5,76.5C 86.4519,78.0453 86.7852,79.712 86.5,81.5C 84.1401,83.8532 81.4735,85.8532 78.5,87.5C 77.0916,85.8684 75.5916,84.2018 74,82.5C 72.2417,83.4695 71.7417,84.6361 72.5,86C 70.8659,86.4935 69.1992,86.6602 67.5,86.5C 71.5436,83.4575 74.8769,79.7908 77.5,75.5 Z"/></g>
<g><path style="opacity:1" fill="#41312a" d="M 110.5,78.5 C 109.158,81.1658 107.325,83.4992 105,85.5C 104.517,86.448 104.351,87.448 104.5,88.5C 103.833,88.5 103.5,88.8333 103.5,89.5C 102.833,88.5 102.167,87.5 101.5,86.5C 101.5,85.8333 101.167,85.5 100.5,85.5C 100.167,84.1667 99.8333,82.8333 99.5,81.5C 101.148,80.2228 102.982,79.2228 105,78.5C 106.626,78.8541 108.459,78.8541 110.5,78.5 Z"/></g>
<g><path style="opacity:1" fill="#b3861a" d="M 132.5,71.5 C 133.038,74.1889 133.705,76.8556 134.5,79.5C 134.167,80.1667 133.833,80.8333 133.5,81.5C 134.614,82.7759 135.614,82.7759 136.5,81.5C 138.604,81.2011 140.604,81.5344 142.5,82.5C 141.189,83.2575 140.689,84.2575 141,85.5C 143.617,86.2193 145.784,87.5526 147.5,89.5C 147.631,90.2389 147.464,90.9056 147,91.5C 145.22,90.3606 143.386,89.3606 141.5,88.5C 137.31,85.039 132.977,84.7057 128.5,87.5C 126.483,86.4706 124.483,85.4706 122.5,84.5C 122.167,83.5 121.5,82.8333 120.5,82.5C 120.5,81.5 120.5,80.5 120.5,79.5C 122.884,77.1153 125.55,75.1153 128.5,73.5C 130.062,73.2671 131.395,72.6005 132.5,71.5 Z"/></g>
<g><path style="opacity:1" fill="#dbac31" d="M 134.5,70.5 C 134.134,74.4089 135.8,77.0755 139.5,78.5C 138.23,79.2876 137.23,80.2876 136.5,81.5C 135.614,82.7759 134.614,82.7759 133.5,81.5C 133.833,80.8333 134.167,80.1667 134.5,79.5C 133.705,76.8556 133.038,74.1889 132.5,71.5C 133.167,71.1667 133.833,70.8333 134.5,70.5 Z"/></g>
<g><path style="opacity:0.663" fill="#9c8870" d="M 80.5,68.5 C 80.8333,68.5 81.1667,68.5 81.5,68.5C 81.0387,71.3033 79.7053,73.6366 77.5,75.5C 74.8769,79.7908 71.5436,83.4575 67.5,86.5C 66.8333,86.5 66.1667,86.5 65.5,86.5C 70.9765,80.8695 75.9765,74.8695 80.5,68.5 Z"/></g>
<g><path style="opacity:1" fill="#633f0e" d="M 117.5,81.5 C 116.508,81.3284 115.842,81.6618 115.5,82.5C 113.621,83.3414 111.621,83.6747 109.5,83.5C 109.674,86.8738 110.174,90.2072 111,93.5C 113.996,97.2191 115.496,101.552 115.5,106.5C 114.883,106.611 114.383,106.944 114,107.5C 114.487,102.758 112.82,99.0918 109,96.5C 108.313,94.4325 108.48,92.4325 109.5,90.5C 108.15,89.0499 106.484,88.3832 104.5,88.5C 104.351,87.448 104.517,86.448 105,85.5C 107.325,83.4992 109.158,81.1658 110.5,78.5C 112.865,76.1397 115.532,74.1397 118.5,72.5C 118.833,73 119.167,73.5 119.5,74C 117.915,76.2562 117.248,78.7562 117.5,81.5 Z"/></g>
<g><path style="opacity:1" fill="#73553e" d="M 120.5,79.5 C 120.5,80.5 120.5,81.5 120.5,82.5C 119.167,82.5 117.833,82.5 116.5,82.5C 116.091,85.8555 116.758,88.8555 118.5,91.5C 117.5,91.5 116.5,91.5 115.5,91.5C 115.5,88.5 115.5,85.5 115.5,82.5C 115.842,81.6618 116.508,81.3284 117.5,81.5C 118.5,80.8333 119.5,80.1667 120.5,79.5 Z"/></g>
<g><path style="opacity:1" fill="#cda689" d="M 122.5,84.5 C 124.483,85.4706 126.483,86.4706 128.5,87.5C 129.609,87.5569 130.609,87.8902 131.5,88.5C 133.425,94.0977 132.092,95.431 127.5,92.5C 124.808,89.8193 121.475,88.4859 117.5,88.5C 117.966,86.7988 117.966,85.2988 117.5,84C 119.197,83.6155 120.863,83.7822 122.5,84.5 Z"/></g>
<g><path style="opacity:1" fill="#f5d769" d="M 141.5,88.5 C 141.672,89.4916 141.338,90.1583 140.5,90.5C 138.49,89.6509 136.823,90.3176 135.5,92.5C 134.833,92.5 134.5,92.1667 134.5,91.5C 133.833,90.1667 132.833,89.1667 131.5,88.5C 130.609,87.8902 129.609,87.5569 128.5,87.5C 132.977,84.7057 137.31,85.039 141.5,88.5 Z"/></g>
<g><path style="opacity:1" fill="#a67f64" d="M 120.5,82.5 C 121.5,82.8333 122.167,83.5 122.5,84.5C 120.863,83.7822 119.197,83.6155 117.5,84C 117.966,85.2988 117.966,86.7988 117.5,88.5C 121.475,88.4859 124.808,89.8193 127.5,92.5C 124.794,92.4249 122.127,92.0916 119.5,91.5C 119.167,91.5 118.833,91.5 118.5,91.5C 116.758,88.8555 116.091,85.8555 116.5,82.5C 117.833,82.5 119.167,82.5 120.5,82.5 Z"/></g>
<g><path style="opacity:1" fill="#301f16" d="M 95.5,87.5 C 93.1355,92.5896 91.1355,97.9229 89.5,103.5C 88.6909,101.708 88.1909,99.7078 88,97.5C 86.9207,99.3937 85.5874,99.727 84,98.5C 83.7679,99.7375 83.2679,100.737 82.5,101.5C 82.6602,99.8008 82.4935,98.1341 82,96.5C 80.8333,99 79,100.833 76.5,102C 76.8333,102.333 77.1667,102.667 77.5,103C 75.925,102.621 74.425,102.788 73,103.5C 72.6667,102.167 72.3333,100.833 72,99.5C 71.7679,100.737 71.2679,101.737 70.5,102.5C 70.5,101.833 70.5,101.167 70.5,100.5C 70.5,100.167 70.5,99.8333 70.5,99.5C 71.7874,97.3635 72.6207,95.0301 73,92.5C 74.0757,89.921 75.909,88.2543 78.5,87.5C 81.4735,85.8532 84.1401,83.8532 86.5,81.5C 87.1657,78.9723 87.8324,76.3056 88.5,73.5C 89.086,73.2907 89.586,72.9574 90,72.5C 90.1538,75.2318 89.6538,77.8985 88.5,80.5C 90.4648,81.2922 92.4648,81.9588 94.5,82.5C 95.4519,84.0453 95.7852,85.712 95.5,87.5 Z"/></g>
<g><path style="opacity:1" fill="#ae841c" d="M 78.5,87.5 C 75.909,88.2543 74.0757,89.921 73,92.5C 72.6207,95.0301 71.7874,97.3635 70.5,99.5C 69.1667,99.5 67.8333,99.5 66.5,99.5C 65.0265,96.6735 65.3598,94.1735 67.5,92C 65.4497,91.5838 64.1164,90.4171 63.5,88.5C 63.8333,87.5 64.5,86.8333 65.5,86.5C 66.1667,86.5 66.8333,86.5 67.5,86.5C 69.1992,86.6602 70.8659,86.4935 72.5,86C 71.7417,84.6361 72.2417,83.4695 74,82.5C 75.5916,84.2018 77.0916,85.8684 78.5,87.5 Z"/></g>
<g><path style="opacity:1" fill="#906519" d="M 63.5,88.5 C 64.1164,90.4171 65.4497,91.5838 67.5,92C 65.3598,94.1735 65.0265,96.6735 66.5,99.5C 67.8333,99.5 69.1667,99.5 70.5,99.5C 70.5,99.8333 70.5,100.167 70.5,100.5C 69.6981,101.952 69.1981,103.618 69,105.5C 67.907,103.028 66.2403,101.028 64,99.5C 63.8047,97.7928 63.8047,96.1261 64,94.5C 62.9887,95.3366 61.8221,95.67 60.5,95.5C 59.9078,92.3695 60.9078,90.0361 63.5,88.5 Z"/></g>
<g><path style="opacity:1" fill="#5c402d" d="M 131.5,88.5 C 132.833,89.1667 133.833,90.1667 134.5,91.5C 133.71,92.6085 133.21,93.9419 133,95.5C 132.439,96.0219 131.772,96.3552 131,96.5C 127.057,94.6283 123.224,92.9616 119.5,91.5C 122.127,92.0916 124.794,92.4249 127.5,92.5C 132.092,95.431 133.425,94.0977 131.5,88.5 Z"/></g>
<g><path style="opacity:1" fill="#e6ba3d" d="M 140.5,90.5 C 139.903,90.7352 139.57,91.2352 139.5,92C 141.164,94.6508 141.664,97.4841 141,100.5C 139.887,99.695 138.721,99.0283 137.5,98.5C 136.833,96.5 136.167,94.5 135.5,92.5C 136.823,90.3176 138.49,89.6509 140.5,90.5 Z"/></g>
<g><path style="opacity:1" fill="#ab7512" d="M 147.5,93.5 C 148.833,94.1667 149.833,95.1667 150.5,96.5C 149.595,97.7024 149.595,99.0357 150.5,100.5C 147.525,98.517 145.192,95.8504 143.5,92.5C 143.833,92.1667 144.167,91.8333 144.5,91.5C 145.518,92.1925 146.518,92.8592 147.5,93.5 Z"/></g>
<g><path style="opacity:1" fill="#332116" d="M 115.5,82.5 C 115.5,85.5 115.5,88.5 115.5,91.5C 116.5,91.5 117.5,91.5 118.5,91.5C 118.833,91.5 119.167,91.5 119.5,91.5C 123.224,92.9616 127.057,94.6283 131,96.5C 131.772,96.3552 132.439,96.0219 133,95.5C 133.21,93.9419 133.71,92.6085 134.5,91.5C 134.5,92.1667 134.833,92.5 135.5,92.5C 136.167,94.5 136.833,96.5 137.5,98.5C 137.5,99.1667 137.5,99.8333 137.5,100.5C 136.849,99.9094 136.182,99.2427 135.5,98.5C 135.446,99.6869 135.113,101.02 134.5,102.5C 131.809,101.956 129.143,100.623 126.5,98.5C 125.702,98.9569 125.369,99.6236 125.5,100.5C 124.566,99.4324 124.232,98.099 124.5,96.5C 121.833,96.5 119.167,96.5 116.5,96.5C 116.5,98.5 116.5,100.5 116.5,102.5C 116.768,104.099 116.434,105.432 115.5,106.5C 115.496,101.552 113.996,97.2191 111,93.5C 110.174,90.2072 109.674,86.8738 109.5,83.5C 111.621,83.6747 113.621,83.3414 115.5,82.5 Z"/></g>
<g><path style="opacity:1" fill="#9d7518" d="M 100.5,85.5 C 101.167,85.5 101.5,85.8333 101.5,86.5C 101.355,93.5561 100.688,100.556 99.5,107.5C 98.6515,109.888 97.6515,112.221 96.5,114.5C 96.6815,111.447 96.8481,108.447 97,105.5C 96.6667,105.833 96.3333,106.167 96,106.5C 95.0267,104.36 93.5267,102.693 91.5,101.5C 90.8182,102.243 90.1515,102.909 89.5,103.5C 91.1355,97.9229 93.1355,92.5896 95.5,87.5C 96.8474,88.0283 98.1807,88.195 99.5,88C 96.5635,84.9977 96.8969,84.1643 100.5,85.5 Z"/></g>
<g><path style="opacity:1" fill="#ac831a" d="M 104.5,88.5 C 106.484,88.3832 108.15,89.0499 109.5,90.5C 108.48,92.4325 108.313,94.4325 109,96.5C 112.82,99.0918 114.487,102.758 114,107.5C 114.383,106.944 114.883,106.611 115.5,106.5C 116.434,105.432 116.768,104.099 116.5,102.5C 118.027,102.427 119.027,103.094 119.5,104.5C 121.942,107.048 123.608,110.048 124.5,113.5C 122.487,112.525 121.154,110.858 120.5,108.5C 118.955,107.548 117.288,107.215 115.5,107.5C 115.5,109.5 115.5,111.5 115.5,113.5C 114.5,113.5 113.5,113.5 112.5,113.5C 113.036,110.335 112.203,107.669 110,105.5C 105.98,106.704 104.814,109.204 106.5,113C 104.646,116.573 103.479,120.406 103,124.5C 101.978,125.354 101.145,126.354 100.5,127.5C 100.97,128.463 101.637,128.463 102.5,127.5C 102.177,131.226 102.511,134.893 103.5,138.5C 104.5,138.167 105.167,137.5 105.5,136.5C 104.593,133.579 104.26,130.579 104.5,127.5C 106.103,127.312 107.437,127.812 108.5,129C 107.594,130.699 107.261,132.533 107.5,134.5C 110.205,134.38 110.872,135.38 109.5,137.5C 110.376,138.251 111.376,138.751 112.5,139C 111.098,140.342 111.431,141.176 113.5,141.5C 115.888,139.639 118.554,138.306 121.5,137.5C 121.833,137.833 122.167,138.167 122.5,138.5C 120.851,139.148 119.518,140.148 118.5,141.5C 118.624,142.107 118.957,142.44 119.5,142.5C 117.545,143.195 115.379,143.195 113,142.5C 110.941,142.993 108.941,143.66 107,144.5C 103.208,143.69 99.3745,143.356 95.5,143.5C 95.5,141.5 95.5,139.5 95.5,137.5C 96.2243,127.399 97.5576,117.399 99.5,107.5C 101.707,101.809 103.041,95.8087 103.5,89.5C 103.5,88.8333 103.833,88.5 104.5,88.5 Z"/></g>
<g><path style="opacity:1" fill="#e0b339" d="M 141.5,88.5 C 143.386,89.3606 145.22,90.3606 147,91.5C 147.464,90.9056 147.631,90.2389 147.5,89.5C 150.167,90.8333 150.167,92.1667 147.5,93.5C 146.518,92.8592 145.518,92.1925 144.5,91.5C 144.167,91.8333 143.833,92.1667 143.5,92.5C 145.192,95.8504 147.525,98.517 150.5,100.5C 150.719,101.675 150.386,102.675 149.5,103.5C 148.893,103.376 148.56,103.043 148.5,102.5C 145.441,98.772 142.774,94.772 140.5,90.5C 141.338,90.1583 141.672,89.4916 141.5,88.5 Z"/></g>
<g><path style="opacity:1" fill="#6b532b" d="M 101.5,86.5 C 102.167,87.5 102.833,88.5 103.5,89.5C 103.041,95.8087 101.707,101.809 99.5,107.5C 100.688,100.556 101.355,93.5561 101.5,86.5 Z"/></g>
<g><path style="opacity:1" fill="#764b14" d="M 70.5,100.5 C 70.5,101.167 70.5,101.833 70.5,102.5C 70.3253,104.621 70.6586,106.621 71.5,108.5C 71.5,108.833 71.5,109.167 71.5,109.5C 69.5328,109.739 67.6995,109.406 66,108.5C 64.1191,104.854 62.6191,101.187 61.5,97.5C 60.6618,97.1583 60.3284,96.4916 60.5,95.5C 61.8221,95.67 62.9887,95.3366 64,94.5C 63.8047,96.1261 63.8047,97.7928 64,99.5C 66.2403,101.028 67.907,103.028 69,105.5C 69.1981,103.618 69.6981,101.952 70.5,100.5 Z"/></g>
<g><path style="opacity:1" fill="#5d370a" d="M 125.5,100.5 C 126.702,105.257 129.702,107.924 134.5,108.5C 133.414,110.23 131.247,111.23 128,111.5C 125.859,109.121 123.026,106.787 119.5,104.5C 119.027,103.094 118.027,102.427 116.5,102.5C 116.5,100.5 116.5,98.5 116.5,96.5C 119.167,96.5 121.833,96.5 124.5,96.5C 124.232,98.099 124.566,99.4324 125.5,100.5 Z"/></g>
<g><path style="opacity:1" fill="#4d310e" d="M 89.5,103.5 C 89.5,104.167 89.5,104.833 89.5,105.5C 88.3406,104.544 87.1739,103.544 86,102.5C 83.6078,104.239 81.9412,106.572 81,109.5C 79.8904,111.037 78.3904,111.703 76.5,111.5C 75.4479,109.744 73.7812,109.077 71.5,109.5C 71.5,109.167 71.5,108.833 71.5,108.5C 72.8734,108.657 74.2068,108.49 75.5,108C 78.2879,106.281 80.6212,104.115 82.5,101.5C 83.2679,100.737 83.7679,99.7375 84,98.5C 85.5874,99.727 86.9207,99.3937 88,97.5C 88.1909,99.7078 88.6909,101.708 89.5,103.5 Z"/></g>
<g><path style="opacity:0.996" fill="#8d6531" d="M 153.5,92.5 C 154.139,93.0968 154.472,93.9302 154.5,95C 153.733,98.6342 152.566,102.134 151,105.5C 149.007,106.914 146.84,107.914 144.5,108.5C 145.18,106.61 145.347,104.61 145,102.5C 145.986,101.829 147.153,101.829 148.5,102.5C 148.56,103.043 148.893,103.376 149.5,103.5C 150.386,102.675 150.719,101.675 150.5,100.5C 149.595,99.0357 149.595,97.7024 150.5,96.5C 151.5,96.5 152.5,96.5 153.5,96.5C 153.5,95.1667 153.5,93.8333 153.5,92.5 Z"/></g>
<g><path style="opacity:1" fill="#190f09" d="M 82.5,101.5 C 80.6212,104.115 78.2879,106.281 75.5,108C 74.2068,108.49 72.8734,108.657 71.5,108.5C 70.6586,106.621 70.3253,104.621 70.5,102.5C 71.2679,101.737 71.7679,100.737 72,99.5C 72.3333,100.833 72.6667,102.167 73,103.5C 74.425,102.788 75.925,102.621 77.5,103C 77.1667,102.667 76.8333,102.333 76.5,102C 79,100.833 80.8333,99 82,96.5C 82.4935,98.1341 82.6602,99.8008 82.5,101.5 Z"/></g>
<g><path style="opacity:1" fill="#976617" d="M 140.5,90.5 C 142.774,94.772 145.441,98.772 148.5,102.5C 147.153,101.829 145.986,101.829 145,102.5C 145.347,104.61 145.18,106.61 144.5,108.5C 144.158,109.338 143.492,109.672 142.5,109.5C 141.833,109.5 141.167,109.5 140.5,109.5C 138.517,109.843 137.183,109.176 136.5,107.5C 137.219,105.236 137.552,102.903 137.5,100.5C 137.5,99.8333 137.5,99.1667 137.5,98.5C 138.721,99.0283 139.887,99.695 141,100.5C 141.664,97.4841 141.164,94.6508 139.5,92C 139.57,91.2352 139.903,90.7352 140.5,90.5 Z"/></g>
<g><path style="opacity:1" fill="#1f120a" d="M 137.5,100.5 C 137.552,102.903 137.219,105.236 136.5,107.5C 135.833,107.833 135.167,108.167 134.5,108.5C 129.702,107.924 126.702,105.257 125.5,100.5C 125.369,99.6236 125.702,98.9569 126.5,98.5C 129.143,100.623 131.809,101.956 134.5,102.5C 135.113,101.02 135.446,99.6869 135.5,98.5C 136.182,99.2427 136.849,99.9094 137.5,100.5 Z"/></g>
<g><path style="opacity:1" fill="#ac841b" d="M 96.5,114.5 C 96.0945,119.965 95.0945,125.299 93.5,130.5C 92.8826,130.611 92.3826,130.944 92,131.5C 91.1277,127.195 89.1277,123.528 86,120.5C 84.5529,116.042 84.3862,111.709 85.5,107.5C 85.4614,108.756 85.9614,109.756 87,110.5C 88.883,109.347 89.7163,107.681 89.5,105.5C 89.5,104.833 89.5,104.167 89.5,103.5C 90.1515,102.909 90.8182,102.243 91.5,101.5C 93.5267,102.693 95.0267,104.36 96,106.5C 96.3333,106.167 96.6667,105.833 97,105.5C 96.8481,108.447 96.6815,111.447 96.5,114.5 Z"/></g>
<g><path style="opacity:1" fill="#6e410a" d="M 119.5,104.5 C 123.026,106.787 125.859,109.121 128,111.5C 131.247,111.23 133.414,110.23 134.5,108.5C 135.167,108.167 135.833,107.833 136.5,107.5C 137.183,109.176 138.517,109.843 140.5,109.5C 140.167,110.833 139.833,112.167 139.5,113.5C 138.5,115.5 137.5,117.5 136.5,119.5C 135.766,120.929 134.599,121.929 133,122.5C 129.647,119.98 126.813,116.98 124.5,113.5C 123.608,110.048 121.942,107.048 119.5,104.5 Z"/></g>
<g><path style="opacity:1" fill="#b2881c" d="M 124.5,113.5 C 126.813,116.98 129.647,119.98 133,122.5C 134.599,121.929 135.766,120.929 136.5,119.5C 136.306,122.33 135.639,124.996 134.5,127.5C 130.249,128.27 127.749,126.603 127,122.5C 125.414,123.376 123.914,124.376 122.5,125.5C 115.679,126.167 109.012,126.833 102.5,127.5C 101.637,128.463 100.97,128.463 100.5,127.5C 101.145,126.354 101.978,125.354 103,124.5C 103.479,120.406 104.646,116.573 106.5,113C 104.814,109.204 105.98,106.704 110,105.5C 112.203,107.669 113.036,110.335 112.5,113.5C 113.5,113.5 114.5,113.5 115.5,113.5C 115.5,111.5 115.5,109.5 115.5,107.5C 117.288,107.215 118.955,107.548 120.5,108.5C 121.154,110.858 122.487,112.525 124.5,113.5 Z"/></g>
<g><path style="opacity:1" fill="#6f5426" d="M 99.5,107.5 C 97.5576,117.399 96.2243,127.399 95.5,137.5C 95.1667,137.5 94.8333,137.5 94.5,137.5C 94.1667,137.5 93.8333,137.5 93.5,137.5C 93.5,135.167 93.5,132.833 93.5,130.5C 95.0945,125.299 96.0945,119.965 96.5,114.5C 97.6515,112.221 98.6515,109.888 99.5,107.5 Z"/></g>
<g><path style="opacity:1" fill="#e7bc3f" d="M 140.5,109.5 C 141.167,109.5 141.833,109.5 142.5,109.5C 143.387,117.46 144.053,125.46 144.5,133.5C 143.883,133.389 143.383,133.056 143,132.5C 142.697,128.106 142.03,123.773 141,119.5C 140,123.167 139,126.833 138,130.5C 133.929,133.064 133.096,136.23 135.5,140C 134.117,141.461 134.451,142.294 136.5,142.5C 133.9,145.46 130.567,146.794 126.5,146.5C 129.735,141.689 132.235,136.355 134,130.5C 135.574,129.016 136.907,127.349 138,125.5C 138.501,121.49 139.001,117.49 139.5,113.5C 139.833,112.167 140.167,110.833 140.5,109.5 Z"/></g>
<g><path style="opacity:0.733" fill="#715e49" d="M 61.5,97.5 C 62.6191,101.187 64.1191,104.854 66,108.5C 67.6995,109.406 69.5328,109.739 71.5,109.5C 73.7812,109.077 75.4479,109.744 76.5,111.5C 74.781,118.762 73.4477,126.095 72.5,133.5C 71.8571,135.076 70.8571,136.41 69.5,137.5C 70.8854,128.77 72.8854,119.936 75.5,111C 72.1667,110.667 68.8333,110.333 65.5,110C 62.1175,106.518 60.7841,102.351 61.5,97.5 Z"/></g>
<g><path style="opacity:1" fill="#b88d20" d="M 139.5,113.5 C 139.001,117.49 138.501,121.49 138,125.5C 136.907,127.349 135.574,129.016 134,130.5C 132.235,136.355 129.735,141.689 126.5,146.5C 130.567,146.794 133.9,145.46 136.5,142.5C 138.954,140.94 141.62,139.94 144.5,139.5C 144.5,137.833 144.5,136.167 144.5,134.5C 147.148,137.122 147.148,139.789 144.5,142.5C 138.497,144.001 132.831,146.334 127.5,149.5C 126.791,148.596 125.791,148.263 124.5,148.5C 123.181,146.395 123.514,144.395 125.5,142.5C 123.599,141.769 121.599,141.769 119.5,142.5C 118.957,142.44 118.624,142.107 118.5,141.5C 119.518,140.148 120.851,139.148 122.5,138.5C 122.167,138.167 121.833,137.833 121.5,137.5C 118.554,138.306 115.888,139.639 113.5,141.5C 111.431,141.176 111.098,140.342 112.5,139C 111.376,138.751 110.376,138.251 109.5,137.5C 110.872,135.38 110.205,134.38 107.5,134.5C 107.261,132.533 107.594,130.699 108.5,129C 107.437,127.812 106.103,127.312 104.5,127.5C 104.26,130.579 104.593,133.579 105.5,136.5C 105.167,137.5 104.5,138.167 103.5,138.5C 102.511,134.893 102.177,131.226 102.5,127.5C 109.012,126.833 115.679,126.167 122.5,125.5C 123.914,124.376 125.414,123.376 127,122.5C 127.749,126.603 130.249,128.27 134.5,127.5C 135.639,124.996 136.306,122.33 136.5,119.5C 137.5,117.5 138.5,115.5 139.5,113.5 Z"/></g>
<g><path style="opacity:1" fill="#a57c16" d="M 85.5,107.5 C 84.3862,111.709 84.5529,116.042 86,120.5C 89.1277,123.528 91.1277,127.195 92,131.5C 92.3826,130.944 92.8826,130.611 93.5,130.5C 93.5,132.833 93.5,135.167 93.5,137.5C 93.5,137.833 93.5,138.167 93.5,138.5C 92.5655,139.568 92.2322,140.901 92.5,142.5C 90.1964,143.163 87.8631,143.83 85.5,144.5C 78.65,142.846 76.15,138.513 78,131.5C 78.3333,131.833 78.6667,132.167 79,132.5C 79.6107,128.728 80.6107,128.728 82,132.5C 82.1667,131.833 82.3333,131.167 82.5,130.5C 81.8016,129.137 81.8016,127.971 82.5,127C 81.8333,126.333 81.1667,125.667 80.5,125C 81.0773,122.976 81.0773,120.809 80.5,118.5C 80.8333,117.167 81.1667,115.833 81.5,114.5C 82.086,114.709 82.586,115.043 83,115.5C 83.3333,112.5 83.6667,109.5 84,106.5C 85.1068,105.288 85.6068,105.621 85.5,107.5 Z"/></g>
<g><path style="opacity:1" fill="#fcd543" d="M 144.5,133.5 C 144.5,133.833 144.5,134.167 144.5,134.5C 144.5,136.167 144.5,137.833 144.5,139.5C 141.62,139.94 138.954,140.94 136.5,142.5C 134.451,142.294 134.117,141.461 135.5,140C 133.096,136.23 133.929,133.064 138,130.5C 139,126.833 140,123.167 141,119.5C 142.03,123.773 142.697,128.106 143,132.5C 143.383,133.056 143.883,133.389 144.5,133.5 Z"/></g>
<g><path style="opacity:1" fill="#946912" d="M 89.5,105.5 C 89.7163,107.681 88.883,109.347 87,110.5C 85.9614,109.756 85.4614,108.756 85.5,107.5C 85.6068,105.621 85.1068,105.288 84,106.5C 83.6667,109.5 83.3333,112.5 83,115.5C 82.586,115.043 82.086,114.709 81.5,114.5C 81.1667,115.833 80.8333,117.167 80.5,118.5C 81.0773,120.809 81.0773,122.976 80.5,125C 81.1667,125.667 81.8333,126.333 82.5,127C 81.8016,127.971 81.8016,129.137 82.5,130.5C 82.3333,131.167 82.1667,131.833 82,132.5C 80.6107,128.728 79.6107,128.728 79,132.5C 78.6667,132.167 78.3333,131.833 78,131.5C 76.15,138.513 78.65,142.846 85.5,144.5C 87.8631,143.83 90.1964,143.163 92.5,142.5C 92.5,145.833 92.5,149.167 92.5,152.5C 88.9206,152.234 88.5873,150.901 91.5,148.5C 89.0306,147.964 86.864,146.964 85,145.5C 84.6667,145.833 84.3333,146.167 84,146.5C 78.5865,143.922 74.7532,139.922 72.5,134.5C 72.5,134.167 72.5,133.833 72.5,133.5C 73.4477,126.095 74.781,118.762 76.5,111.5C 78.3904,111.703 79.8904,111.037 81,109.5C 81.9412,106.572 83.6078,104.239 86,102.5C 87.1739,103.544 88.3406,104.544 89.5,105.5 Z"/></g>
<g><path style="opacity:0.732" fill="#6e5a43" d="M 69.5,139.5 C 70.2894,140.915 70.9561,142.415 71.5,144C 70.6805,145.8 70.0138,147.634 69.5,149.5C 69.2974,146.137 69.2974,142.804 69.5,139.5 Z"/></g>
<g><path style="opacity:1" fill="#8d6010" d="M 94.5,137.5 C 94.8333,137.5 95.1667,137.5 95.5,137.5C 95.5,139.5 95.5,141.5 95.5,143.5C 99.3745,143.356 103.208,143.69 107,144.5C 108.941,143.66 110.941,142.993 113,142.5C 115.379,143.195 117.545,143.195 119.5,142.5C 121.599,141.769 123.599,141.769 125.5,142.5C 123.514,144.395 123.181,146.395 124.5,148.5C 122.368,149.727 120.034,150.727 117.5,151.5C 116.214,151.148 115.381,150.482 115,149.5C 113.527,149.903 112.194,150.57 111,151.5C 109.244,150.452 107.41,150.452 105.5,151.5C 104.014,150.186 102.347,149.186 100.5,148.5C 98.528,149.02 98.528,150.187 100.5,152C 98.8659,152.494 97.1992,152.66 95.5,152.5C 94.5128,147.695 94.1795,142.695 94.5,137.5 Z"/></g>
<g><path style="opacity:1" fill="#f3ca46" d="M 144.5,142.5 C 145.434,143.568 145.768,144.901 145.5,146.5C 142.678,148.022 139.678,149.355 136.5,150.5C 134.421,150.971 132.421,151.637 130.5,152.5C 127.433,152.879 126.433,151.879 127.5,149.5C 132.831,146.334 138.497,144.001 144.5,142.5 Z"/></g>
<g><path style="opacity:1" fill="#b08845" d="M 145.5,146.5 C 146.833,147.5 146.833,148.5 145.5,149.5C 142.518,149.963 139.518,150.296 136.5,150.5C 139.678,149.355 142.678,148.022 145.5,146.5 Z"/></g>
<g><path style="opacity:1" fill="#764a0c" d="M 72.5,134.5 C 74.7532,139.922 78.5865,143.922 84,146.5C 84.3333,146.167 84.6667,145.833 85,145.5C 86.864,146.964 89.0306,147.964 91.5,148.5C 88.5873,150.901 88.9206,152.234 92.5,152.5C 92.5,149.167 92.5,145.833 92.5,142.5C 92.2322,140.901 92.5655,139.568 93.5,138.5C 93.5,143.5 93.5,148.5 93.5,153.5C 84.5029,154.799 77.8362,151.632 73.5,144C 73.8333,143.667 74.1667,143.333 74.5,143C 73.09,142.632 72.09,141.799 71.5,140.5C 72.3482,138.591 72.6816,136.591 72.5,134.5 Z"/></g>
<g><path style="opacity:1" fill="#68400e" d="M 72.5,133.5 C 72.5,133.833 72.5,134.167 72.5,134.5C 72.6816,136.591 72.3482,138.591 71.5,140.5C 72.09,141.799 73.09,142.632 74.5,143C 74.1667,143.333 73.8333,143.667 73.5,144C 77.8362,151.632 84.5029,154.799 93.5,153.5C 94.7496,156.006 95.4162,158.673 95.5,161.5C 94.209,161.737 93.209,161.404 92.5,160.5C 94.337,160.361 94.6704,159.694 93.5,158.5C 85.4853,156.908 78.3186,153.575 72,148.5C 71.5172,149.448 71.3505,150.448 71.5,151.5C 70.8333,150.833 70.1667,150.167 69.5,149.5C 70.0138,147.634 70.6805,145.8 71.5,144C 70.9561,142.415 70.2894,140.915 69.5,139.5C 69.5,138.833 69.5,138.167 69.5,137.5C 70.8571,136.41 71.8571,135.076 72.5,133.5 Z"/></g>
<g><path style="opacity:1" fill="#72450c" d="M 124.5,148.5 C 125.791,148.263 126.791,148.596 127.5,149.5C 124.378,150.561 121.378,151.895 118.5,153.5C 112.024,156.067 105.358,158.067 98.5,159.5C 100.743,160.474 103.076,160.808 105.5,160.5C 103.052,161.473 100.385,161.806 97.5,161.5C 97.5871,158.261 96.9205,155.261 95.5,152.5C 97.1992,152.66 98.8659,152.494 100.5,152C 98.528,150.187 98.528,149.02 100.5,148.5C 102.347,149.186 104.014,150.186 105.5,151.5C 107.41,150.452 109.244,150.452 111,151.5C 112.194,150.57 113.527,149.903 115,149.5C 115.381,150.482 116.214,151.148 117.5,151.5C 120.034,150.727 122.368,149.727 124.5,148.5 Z"/></g>
<g><path style="opacity:1" fill="#dab692" d="M 145.5,149.5 C 147.061,155.24 148.395,161.074 149.5,167C 149.43,167.765 149.097,168.265 148.5,168.5C 146.002,164.203 144.169,159.87 143,155.5C 142.075,156.047 141.242,156.713 140.5,157.5C 141.326,158.451 141.492,159.451 141,160.5C 137.952,158.904 135.452,156.737 133.5,154C 135.056,153.28 136.056,152.113 136.5,150.5C 139.518,150.296 142.518,149.963 145.5,149.5 Z"/></g>
<g><path style="opacity:1" fill="#ae841c" d="M 127.5,149.5 C 126.433,151.879 127.433,152.879 130.5,152.5C 130.5,152.833 130.5,153.167 130.5,153.5C 127.296,154.901 123.963,155.901 120.5,156.5C 118.176,156.123 117.509,155.123 118.5,153.5C 121.378,151.895 124.378,150.561 127.5,149.5 Z"/></g>
<g><path style="opacity:1" fill="#8e6110" d="M 118.5,153.5 C 117.509,155.123 118.176,156.123 120.5,156.5C 119.5,157.167 118.5,157.833 117.5,158.5C 116.209,158.263 115.209,158.596 114.5,159.5C 111.57,160.299 108.57,160.632 105.5,160.5C 103.076,160.808 100.743,160.474 98.5,159.5C 105.358,158.067 112.024,156.067 118.5,153.5 Z"/></g>
<g><path style="opacity:1" fill="#795010" d="M 92.5,160.5 C 90.1432,160.663 87.8098,160.497 85.5,160C 81.3283,158.412 77.3283,156.579 73.5,154.5C 72.8333,153.5 72.1667,152.5 71.5,151.5C 71.3505,150.448 71.5172,149.448 72,148.5C 78.3186,153.575 85.4853,156.908 93.5,158.5C 94.6704,159.694 94.337,160.361 92.5,160.5 Z"/></g>
<g><path style="opacity:1" fill="#806b59" d="M 46.5,158.5 C 49.2493,162.171 52.9159,163.337 57.5,162C 56.6634,160.989 56.33,159.822 56.5,158.5C 57.791,158.263 58.791,158.596 59.5,159.5C 58.2633,161.203 58.2633,163.037 59.5,165C 61.8098,165.497 64.1432,165.663 66.5,165.5C 66.5,163.833 66.5,162.167 66.5,160.5C 66.5,160.167 66.5,159.833 66.5,159.5C 67.4682,161.607 67.8016,163.941 67.5,166.5C 65.2075,166.244 63.0408,166.577 61,167.5C 56.7936,165.388 52.4603,164.721 48,165.5C 46.2672,163.398 44.2672,163.065 42,164.5C 39.6178,163.446 37.1178,162.779 34.5,162.5C 37.9961,159.952 41.9961,158.619 46.5,158.5 Z"/></g>
<g><path style="opacity:1" fill="#b49d82" d="M 46.5,158.5 C 49.8333,159.833 53.1667,159.833 56.5,158.5C 56.33,159.822 56.6634,160.989 57.5,162C 52.9159,163.337 49.2493,162.171 46.5,158.5 Z"/></g>
<g><path style="opacity:1" fill="#42332b" d="M 69.5,149.5 C 70.1667,150.167 70.8333,150.833 71.5,151.5C 72.1667,152.5 72.8333,153.5 73.5,154.5C 73.4877,157.142 74.821,158.475 77.5,158.5C 77.8807,159.931 78.8807,160.764 80.5,161C 79.3333,162.167 78.1667,163.333 77,164.5C 76.7508,163.376 76.2508,162.376 75.5,161.5C 72.173,164.16 69.8396,167.493 68.5,171.5C 67.8771,170.027 66.2104,169.027 63.5,168.5C 62.7065,168.931 61.8732,169.265 61,169.5C 51.957,168.161 42.957,166.495 34,164.5C 32.2691,165.741 30.4358,166.741 28.5,167.5C 29.9108,165.086 31.9108,163.419 34.5,162.5C 37.1178,162.779 39.6178,163.446 42,164.5C 44.2672,163.065 46.2672,163.398 48,165.5C 52.4603,164.721 56.7936,165.388 61,167.5C 63.0408,166.577 65.2075,166.244 67.5,166.5C 67.8016,163.941 67.4682,161.607 66.5,159.5C 67.5009,156.162 68.5009,152.829 69.5,149.5 Z"/></g>
<g><path style="opacity:1" fill="#bf956c" d="M 136.5,150.5 C 136.056,152.113 135.056,153.28 133.5,154C 135.452,156.737 137.952,158.904 141,160.5C 141.492,159.451 141.326,158.451 140.5,157.5C 141.242,156.713 142.075,156.047 143,155.5C 144.169,159.87 146.002,164.203 148.5,168.5C 148.41,172.214 147.41,175.548 145.5,178.5C 145.522,174.857 144.522,171.524 142.5,168.5C 138.647,165.481 135.313,161.981 132.5,158C 131.041,158.355 129.707,158.189 128.5,157.5C 128.733,155.938 129.4,154.605 130.5,153.5C 130.5,153.167 130.5,152.833 130.5,152.5C 132.421,151.637 134.421,150.971 136.5,150.5 Z"/></g>
<g><path style="opacity:0.996" fill="#ad9985" d="M 59.5,159.5 C 61.861,159.674 64.1944,160.007 66.5,160.5C 66.5,162.167 66.5,163.833 66.5,165.5C 64.1432,165.663 61.8098,165.497 59.5,165C 58.2633,163.037 58.2633,161.203 59.5,159.5 Z"/></g>
<g><path style="opacity:1" fill="#2a1d17" d="M 93.5,137.5 C 93.8333,137.5 94.1667,137.5 94.5,137.5C 94.1795,142.695 94.5128,147.695 95.5,152.5C 96.9205,155.261 97.5871,158.261 97.5,161.5C 100.385,161.806 103.052,161.473 105.5,160.5C 108.57,160.632 111.57,160.299 114.5,159.5C 115.239,159.369 115.906,159.536 116.5,160C 115.483,161.049 115.316,162.216 116,163.5C 117.574,164.984 118.907,166.651 120,168.5C 120.333,167.833 120.667,167.167 121,166.5C 121.471,168.246 122.138,169.913 123,171.5C 124,171.167 125,170.833 126,170.5C 126.792,172.587 127.959,174.421 129.5,176C 130.744,176.456 131.577,175.956 132,174.5C 133.685,176.017 135.185,177.684 136.5,179.5C 137.167,179.167 137.833,178.833 138.5,178.5C 139.168,180.969 139.835,183.302 140.5,185.5C 140.5,185.833 140.5,186.167 140.5,186.5C 139.32,188.856 139.654,191.189 141.5,193.5C 142.906,192.332 144.072,192.665 145,194.5C 144.737,193.049 144.904,191.716 145.5,190.5C 146.941,191.865 148.274,193.365 149.5,195C 147.753,195.352 146.086,195.852 144.5,196.5C 141.349,196.647 138.182,196.98 135,197.5C 132.319,194.569 131.819,191.235 133.5,187.5C 131.855,186.304 130.189,185.304 128.5,184.5C 126.222,181.528 123.222,179.861 119.5,179.5C 114.879,177.128 110.046,175.128 105,173.5C 101.996,174.123 99.1623,175.123 96.5,176.5C 97.8635,174.627 99.5301,172.961 101.5,171.5C 101.167,170.5 100.5,169.833 99.5,169.5C 96.3415,169.826 93.5082,170.826 91,172.5C 86.7437,171.254 83.2437,171.254 80.5,172.5C 82.1209,170.883 84.1209,169.716 86.5,169C 87.2598,167.559 87.9264,166.059 88.5,164.5C 85.4605,161.374 81.7938,159.374 77.5,158.5C 74.821,158.475 73.4877,157.142 73.5,154.5C 77.3283,156.579 81.3283,158.412 85.5,160C 87.8098,160.497 90.1432,160.663 92.5,160.5C 93.209,161.404 94.209,161.737 95.5,161.5C 95.4162,158.673 94.7496,156.006 93.5,153.5C 93.5,148.5 93.5,143.5 93.5,138.5C 93.5,138.167 93.5,137.833 93.5,137.5 Z"/></g>
<g><path style="opacity:1" fill="#4f392b" d="M 130.5,153.5 C 129.4,154.605 128.733,155.938 128.5,157.5C 125.698,158.759 125.865,160.759 129,163.5C 129.333,163.167 129.667,162.833 130,162.5C 132.842,165.542 135.676,168.542 138.5,171.5C 139.456,173.075 140.123,174.742 140.5,176.5C 139.542,176.047 138.708,175.381 138,174.5C 137.282,175.451 136.449,175.617 135.5,175C 134.406,173.22 133.406,171.386 132.5,169.5C 127.517,169.737 124.184,167.237 122.5,162C 122.944,160.238 123.444,160.405 124,162.5C 124.273,160.899 124.773,159.399 125.5,158C 122.843,157.825 120.176,157.992 117.5,158.5C 118.5,157.833 119.5,157.167 120.5,156.5C 123.963,155.901 127.296,154.901 130.5,153.5 Z"/></g>
<g><path style="opacity:1" fill="#2d201b" d="M 77.5,158.5 C 81.7938,159.374 85.4605,161.374 88.5,164.5C 87.9264,166.059 87.2598,167.559 86.5,169C 84.1209,169.716 82.1209,170.883 80.5,172.5C 80.6463,174.942 79.813,175.609 78,174.5C 76.8289,175.893 75.3289,176.727 73.5,177C 75.2102,178.651 76.5436,180.484 77.5,182.5C 75.447,181.466 73.7803,179.966 72.5,178C 71.2068,177.51 69.8734,177.343 68.5,177.5C 69.6414,175.451 69.6414,173.451 68.5,171.5C 69.8396,167.493 72.173,164.16 75.5,161.5C 76.2508,162.376 76.7508,163.376 77,164.5C 78.1667,163.333 79.3333,162.167 80.5,161C 78.8807,160.764 77.8807,159.931 77.5,158.5 Z"/></g>
<g><path style="opacity:1" fill="#1e1a17" d="M 68.5,171.5 C 69.6414,173.451 69.6414,175.451 68.5,177.5C 67.8333,177.5 67.1667,177.5 66.5,177.5C 61.518,176.947 56.518,176.613 51.5,176.5C 44.8438,176.028 38.1771,174.528 31.5,172C 30.1667,171 28.8333,170 27.5,169C 28.056,168.617 28.3893,168.117 28.5,167.5C 30.4358,166.741 32.2691,165.741 34,164.5C 42.957,166.495 51.957,168.161 61,169.5C 61.8732,169.265 62.7065,168.931 63.5,168.5C 66.2104,169.027 67.8771,170.027 68.5,171.5 Z"/></g>
<g><path style="opacity:1" fill="#1f1714" d="M 96.5,176.5 C 93.3785,178.448 90.3785,180.615 87.5,183C 89.9671,186.279 89.6338,188.946 86.5,191C 78.5194,192.558 70.5194,192.725 62.5,191.5C 60.711,190.377 60.3776,189.044 61.5,187.5C 67.4381,186.08 73.4381,184.913 79.5,184C 78.9558,183.283 78.2891,182.783 77.5,182.5C 76.5436,180.484 75.2102,178.651 73.5,177C 75.3289,176.727 76.8289,175.893 78,174.5C 79.813,175.609 80.6463,174.942 80.5,172.5C 83.2437,171.254 86.7437,171.254 91,172.5C 93.5082,170.826 96.3415,169.826 99.5,169.5C 100.5,169.833 101.167,170.5 101.5,171.5C 99.5301,172.961 97.8635,174.627 96.5,176.5 Z"/></g>
<g><path style="opacity:1" fill="#3f2d23" d="M 140.5,176.5 C 141.496,176.586 142.329,176.252 143,175.5C 143.494,177.134 143.66,178.801 143.5,180.5C 142.925,182.411 141.925,184.078 140.5,185.5C 139.835,183.302 139.168,180.969 138.5,178.5C 137.833,178.833 137.167,179.167 136.5,179.5C 135.185,177.684 133.685,176.017 132,174.5C 131.577,175.956 130.744,176.456 129.5,176C 127.959,174.421 126.792,172.587 126,170.5C 125,170.833 124,171.167 123,171.5C 122.138,169.913 121.471,168.246 121,166.5C 120.667,167.167 120.333,167.833 120,168.5C 118.907,166.651 117.574,164.984 116,163.5C 115.316,162.216 115.483,161.049 116.5,160C 115.906,159.536 115.239,159.369 114.5,159.5C 115.209,158.596 116.209,158.263 117.5,158.5C 120.176,157.992 122.843,157.825 125.5,158C 124.773,159.399 124.273,160.899 124,162.5C 123.444,160.405 122.944,160.238 122.5,162C 124.184,167.237 127.517,169.737 132.5,169.5C 133.406,171.386 134.406,173.22 135.5,175C 136.449,175.617 137.282,175.451 138,174.5C 138.708,175.381 139.542,176.047 140.5,176.5 Z"/></g>
<g><path style="opacity:1" fill="#8c6648" d="M 128.5,157.5 C 129.707,158.189 131.041,158.355 132.5,158C 135.313,161.981 138.647,165.481 142.5,168.5C 144.522,171.524 145.522,174.857 145.5,178.5C 145.167,179.5 144.5,180.167 143.5,180.5C 143.66,178.801 143.494,177.134 143,175.5C 142.329,176.252 141.496,176.586 140.5,176.5C 140.123,174.742 139.456,173.075 138.5,171.5C 135.676,168.542 132.842,165.542 130,162.5C 129.667,162.833 129.333,163.167 129,163.5C 125.865,160.759 125.698,158.759 128.5,157.5 Z"/></g>
<g><path style="opacity:0.104" fill="#494138" d="M 51.5,176.5 C 56.518,176.613 61.518,176.947 66.5,177.5C 61.4483,178.579 56.4483,178.246 51.5,176.5 Z"/></g>
<g><path style="opacity:0.125" fill="#605547" d="M 119.5,179.5 C 123.222,179.861 126.222,181.528 128.5,184.5C 125.24,183.226 122.24,181.56 119.5,179.5 Z"/></g>
<g><path style="opacity:1" fill="#59483a" d="M 140.5,186.5 C 142.958,188.713 145.958,189.879 149.5,190C 150.376,191.586 151.376,193.086 152.5,194.5C 150.389,195.949 148.056,196.949 145.5,197.5C 144.893,197.376 144.56,197.043 144.5,196.5C 146.086,195.852 147.753,195.352 149.5,195C 148.274,193.365 146.941,191.865 145.5,190.5C 144.904,191.716 144.737,193.049 145,194.5C 144.072,192.665 142.906,192.332 141.5,193.5C 139.654,191.189 139.32,188.856 140.5,186.5 Z"/></g>
</svg>
