<svg xmlns="http://www.w3.org/2000/svg" width="2048" height="2048" viewBox="0 0 2048 2048" version="1.1"><path d="M 977 50.103 C 722.029 62.522, 483.488 173.480, 309.698 360.500 C 113.150 572.011, 21.204 856.852, 56.527 1144.805 C 79.703 1333.739, 158.899 1512.903, 283.358 1657.963 C 343.383 1727.924, 416.848 1792.440, 492 1841.192 C 675.194 1960.030, 889.040 2013.719, 1106.500 1995.471 C 1361.589 1974.065, 1597.018 1853.332, 1764.642 1657.963 C 1934.592 1459.883, 2017.383 1202.910, 1995.473 941.500 C 1978.418 738.022, 1897.646 545.057, 1764.642 390.037 C 1597.011 194.659, 1361.601 73.936, 1106.500 52.529 C 1065.721 49.107, 1016.413 48.183, 977 50.103 M 974.700 151.024 C 814.293 160.932, 665.154 211.216, 535.500 299.105 C 526.700 305.070, 518.150 311.053, 516.500 312.400 C 513.546 314.812, 513.526 314.893, 515.185 317.672 C 519.409 324.745, 603.555 444.276, 604.590 444.673 C 605.232 444.919, 613.349 439.970, 622.628 433.674 C 694.885 384.652, 777.251 348.450, 860.639 329.062 C 887.412 322.837, 932.256 315.070, 941.750 315.013 L 944 315 944 1104.531 C 944 1735.267, 944.251 1894.147, 945.250 1894.480 C 953.026 1897.078, 1035.454 1898.848, 1067.500 1897.106 C 1214.395 1889.119, 1348.486 1848.479, 1473 1774.208 C 1488.156 1765.168, 1521.317 1743.412, 1529.280 1737.285 L 1535.062 1732.836 1532.808 1729.168 C 1530.330 1725.133, 1455.442 1618.233, 1448.145 1608.314 C 1445.545 1604.780, 1443.137 1602.422, 1442.527 1602.814 C 1441.940 1603.191, 1433.848 1608.625, 1424.544 1614.888 C 1361.082 1657.617, 1292.100 1689.864, 1220.059 1710.481 C 1184.804 1720.570, 1142.414 1729.102, 1110.250 1732.582 L 1104 1733.258 1104 1024.129 L 1104 315 1106.250 315.013 C 1107.487 315.021, 1116.375 316.146, 1126 317.514 C 1231.644 332.530, 1333.842 372.010, 1423.787 432.551 C 1432.325 438.298, 1439.609 443, 1439.974 443 C 1440.339 443, 1442.823 439.962, 1445.495 436.250 C 1452.001 427.210, 1507.960 347.446, 1521.330 328.156 L 1531.964 312.812 1526.232 308.592 C 1508.219 295.334, 1475.775 274.903, 1449.500 260.273 C 1362.397 211.774, 1270.530 179.312, 1173 162.569 C 1121.982 153.811, 1087.623 150.875, 1031.500 150.477 C 1007.850 150.309, 982.290 150.555, 974.700 151.024 M 908.500 461.452 C 878.170 467.789, 851.675 475.387, 824.141 485.644 C 643.426 552.967, 508.014 706.830, 464.579 894.198 C 445.068 978.363, 445.068 1069.637, 464.579 1153.802 C 512.078 1358.703, 669.604 1522.497, 872.487 1577.943 C 887.384 1582.014, 915.169 1588.242, 924.250 1589.545 L 929 1590.227 929 1508.652 L 929 1427.077 924.750 1425.964 C 848.818 1406.071, 784.969 1369.903, 731.512 1316.500 C 685.804 1270.838, 652.457 1217.084, 631.944 1156 C 606.625 1080.604, 603.396 1000.456, 622.578 923.500 C 656.524 787.308, 758.764 676.677, 892 631.966 C 901.625 628.736, 913.775 625.005, 919 623.674 L 928.500 621.255 928.756 539.627 L 929.012 458 926.756 458.055 C 925.515 458.085, 917.300 459.614, 908.500 461.452 M 1119.244 539.513 L 1119.500 621.255 1129 623.683 C 1153.816 630.025, 1183.899 641.437, 1209.376 654.174 C 1227.229 663.099, 1233.836 666.921, 1252.786 679.287 C 1261.193 684.773, 1268.193 689.090, 1268.342 688.881 C 1268.490 688.671, 1270.887 685.350, 1273.668 681.500 C 1277.480 676.222, 1323.606 610.344, 1358.113 560.894 L 1359.931 558.288 1350.721 551.894 C 1297.812 515.161, 1237.535 487.007, 1175.513 470.057 C 1160.613 465.985, 1132.830 459.758, 1123.744 458.454 L 1118.988 457.771 1119.244 539.513 M 1261 1363.173 C 1220.711 1391.462, 1174.441 1412.553, 1123.250 1425.964 L 1119 1427.077 1119 1508.652 L 1119 1590.227 1123.750 1589.545 C 1142.024 1586.923, 1180.399 1577.210, 1205.500 1568.854 C 1257.116 1551.672, 1313.551 1523.165, 1353.534 1494.077 L 1362.780 1487.350 1360.140 1483.216 C 1355.863 1476.520, 1278.673 1366.389, 1275.448 1362.384 C 1273.827 1360.370, 1272.350 1358.335, 1272.167 1357.861 C 1271.538 1356.238, 1269.488 1357.213, 1261 1363.173" stroke="none" fill="#142c34" fill-rule="evenodd"/><path d="M 976 0.609 C 972.975 0.805, 963.075 1.445, 954 2.030 C 746.038 15.441, 544.835 94.400, 380.303 227.168 C 327.317 269.925, 269.925 327.317, 227.168 380.303 C 107.766 528.271, 31.145 707.235, 8.091 892 C 1.618 943.879, 0.500 963.319, 0.500 1024 C 0.500 1076.830, 1.028 1089.957, 4.564 1125 C 25.331 1330.794, 105.041 1521.240, 236.430 1678.977 C 408.120 1885.100, 653.437 2016.093, 918 2042.918 C 958.466 2047.021, 969.546 2047.500, 1024 2047.500 C 1078.454 2047.500, 1089.534 2047.021, 1130 2042.918 C 1323.799 2023.268, 1509.628 1947.167, 1663 1824.642 C 1712.818 1784.844, 1764.791 1734.303, 1806.600 1685 C 1924.524 1545.939, 2003.644 1375.665, 2033.971 1195.673 C 2040.874 1154.703, 2046.983 1097.787, 2046.996 1074.309 C 2046.998 1070.354, 2047.450 1066.840, 2048 1066.500 C 2048.642 1066.103, 2049 1050.470, 2049 1022.882 C 2049 994.470, 2048.661 980.092, 2048 980.500 C 2047.368 980.890, 2046.999 978.426, 2046.996 973.809 C 2046.983 950.214, 2040.891 893.394, 2033.971 852.327 C 1980.443 534.643, 1778.487 259.499, 1490.500 111.905 C 1367.333 48.781, 1242.229 13.907, 1096 1.933 C 1083.272 0.891, 987.868 -0.162, 976 0.609 M 977 50.103 C 722.029 62.522, 483.488 173.480, 309.698 360.500 C 113.150 572.011, 21.204 856.852, 56.527 1144.805 C 79.703 1333.739, 158.899 1512.903, 283.358 1657.963 C 343.383 1727.924, 416.848 1792.440, 492 1841.192 C 675.194 1960.030, 889.040 2013.719, 1106.500 1995.471 C 1361.589 1974.065, 1597.018 1853.332, 1764.642 1657.963 C 1934.592 1459.883, 2017.383 1202.910, 1995.473 941.500 C 1978.418 738.022, 1897.646 545.057, 1764.642 390.037 C 1597.011 194.659, 1361.601 73.936, 1106.500 52.529 C 1065.721 49.107, 1016.413 48.183, 977 50.103 M 974.700 151.024 C 814.293 160.932, 665.154 211.216, 535.500 299.105 C 526.700 305.070, 518.150 311.053, 516.500 312.400 C 513.546 314.812, 513.526 314.893, 515.185 317.672 C 519.409 324.745, 603.555 444.276, 604.590 444.673 C 605.232 444.919, 613.349 439.970, 622.628 433.674 C 694.885 384.652, 777.251 348.450, 860.639 329.062 C 887.412 322.837, 932.256 315.070, 941.750 315.013 L 944 315 944 1104.531 C 944 1735.267, 944.251 1894.147, 945.250 1894.480 C 953.026 1897.078, 1035.454 1898.848, 1067.500 1897.106 C 1214.395 1889.119, 1348.486 1848.479, 1473 1774.208 C 1488.156 1765.168, 1521.317 1743.412, 1529.280 1737.285 L 1535.062 1732.836 1532.808 1729.168 C 1530.330 1725.133, 1455.442 1618.233, 1448.145 1608.314 C 1445.545 1604.780, 1443.137 1602.422, 1442.527 1602.814 C 1441.940 1603.191, 1433.848 1608.625, 1424.544 1614.888 C 1361.082 1657.617, 1292.100 1689.864, 1220.059 1710.481 C 1184.804 1720.570, 1142.414 1729.102, 1110.250 1732.582 L 1104 1733.258 1104 1024.129 L 1104 315 1106.250 315.013 C 1107.487 315.021, 1116.375 316.146, 1126 317.514 C 1231.644 332.530, 1333.842 372.010, 1423.787 432.551 C 1432.325 438.298, 1439.609 443, 1439.974 443 C 1440.339 443, 1442.823 439.962, 1445.495 436.250 C 1452.001 427.210, 1507.960 347.446, 1521.330 328.156 L 1531.964 312.812 1526.232 308.592 C 1508.219 295.334, 1475.775 274.903, 1449.500 260.273 C 1362.397 211.774, 1270.530 179.312, 1173 162.569 C 1121.982 153.811, 1087.623 150.875, 1031.500 150.477 C 1007.850 150.309, 982.290 150.555, 974.700 151.024 M 908.500 461.452 C 878.170 467.789, 851.675 475.387, 824.141 485.644 C 643.426 552.967, 508.014 706.830, 464.579 894.198 C 445.068 978.363, 445.068 1069.637, 464.579 1153.802 C 512.078 1358.703, 669.604 1522.497, 872.487 1577.943 C 887.384 1582.014, 915.169 1588.242, 924.250 1589.545 L 929 1590.227 929 1508.652 L 929 1427.077 924.750 1425.964 C 848.818 1406.071, 784.969 1369.903, 731.512 1316.500 C 685.804 1270.838, 652.457 1217.084, 631.944 1156 C 606.625 1080.604, 603.396 1000.456, 622.578 923.500 C 656.524 787.308, 758.764 676.677, 892 631.966 C 901.625 628.736, 913.775 625.005, 919 623.674 L 928.500 621.255 928.756 539.627 L 929.012 458 926.756 458.055 C 925.515 458.085, 917.300 459.614, 908.500 461.452 M 1119.244 539.513 L 1119.500 621.255 1129 623.683 C 1153.816 630.025, 1183.899 641.437, 1209.376 654.174 C 1227.229 663.099, 1233.836 666.921, 1252.786 679.287 C 1261.193 684.773, 1268.193 689.090, 1268.342 688.881 C 1268.490 688.671, 1270.887 685.350, 1273.668 681.500 C 1277.480 676.222, 1323.606 610.344, 1358.113 560.894 L 1359.931 558.288 1350.721 551.894 C 1297.812 515.161, 1237.535 487.007, 1175.513 470.057 C 1160.613 465.985, 1132.830 459.758, 1123.744 458.454 L 1118.988 457.771 1119.244 539.513 M 0.459 1024 C 0.459 1047.925, 0.589 1057.713, 0.749 1045.750 C 0.908 1033.787, 0.908 1014.212, 0.749 1002.250 C 0.589 990.288, 0.459 1000.075, 0.459 1024 M 1261 1363.173 C 1220.711 1391.462, 1174.441 1412.553, 1123.250 1425.964 L 1119 1427.077 1119 1508.652 L 1119 1590.227 1123.750 1589.545 C 1142.024 1586.923, 1180.399 1577.210, 1205.500 1568.854 C 1257.116 1551.672, 1313.551 1523.165, 1353.534 1494.077 L 1362.780 1487.350 1360.140 1483.216 C 1355.863 1476.520, 1278.673 1366.389, 1275.448 1362.384 C 1273.827 1360.370, 1272.350 1358.335, 1272.167 1357.861 C 1271.538 1356.238, 1269.488 1357.213, 1261 1363.173" stroke="none" fill="#fbfbfb" fill-rule="evenodd"/></svg>