<?xml version="1.0" encoding="UTF-8"?>
<!DOCTYPE svg PUBLIC "-//W3C//DTD SVG 1.1//EN" "http://www.w3.org/Graphics/SVG/1.1/DTD/svg11.dtd">
<svg xmlns="http://www.w3.org/2000/svg" version="1.1" width="200px" height="200px" style="shape-rendering:geometricPrecision; text-rendering:geometricPrecision; image-rendering:optimizeQuality; fill-rule:evenodd; clip-rule:evenodd" xmlns:xlink="http://www.w3.org/1999/xlink">
<g><path style="opacity:1" fill="#61e91e" d="M -0.5,-0.5 C 66.1667,-0.5 132.833,-0.5 199.5,-0.5C 199.5,66.1667 199.5,132.833 199.5,199.5C 187.167,199.5 174.833,199.5 162.5,199.5C 162.667,183.83 162.5,168.163 162,152.5C 161.534,147.27 160.701,142.104 159.5,137C 161.835,132.164 163.168,126.998 163.5,121.5C 163.583,118.479 162.916,115.645 161.5,113C 170.064,100.929 167.397,92.0962 153.5,86.5C 148.154,80.6413 143.32,74.308 139,67.5C 126.805,56.1563 112.638,52.4897 96.5,56.5C 87.0982,53.2357 78.0982,54.0691 69.5,59C 60.3841,64.7208 53.7175,72.5541 49.5,82.5C 39.8346,82.9958 33.0012,87.6625 29,96.5C 27.2653,107.035 31.2653,114.368 41,118.5C 40.4994,129.18 39.4994,139.846 38,150.5C 36.8877,166.815 36.3877,183.148 36.5,199.5C 24.1667,199.5 11.8333,199.5 -0.5,199.5C -0.5,132.833 -0.5,66.1667 -0.5,-0.5 Z"/></g>
<g><path style="opacity:1" fill="#11110b" d="M 162.5,199.5 C 161.167,199.5 159.833,199.5 158.5,199.5C 159.725,188.348 159.725,177.348 158.5,166.5C 158.4,155.4 157.4,144.4 155.5,133.5C 162.974,126.676 163.308,119.509 156.5,112C 153.258,111.014 150.592,111.848 148.5,114.5C 146.591,113.652 144.591,113.318 142.5,113.5C 139.167,113.5 135.833,113.5 132.5,113.5C 132.014,116.827 130.18,119.161 127,120.5C 126.5,120.167 126,119.833 125.5,119.5C 130.224,113.936 128.89,110.436 121.5,109C 115.589,108.08 110.755,109.914 107,114.5C 107.046,116.313 106.88,117.979 106.5,119.5C 103.016,117.401 102.682,114.901 105.5,112C 103.428,111.964 101.428,112.464 99.5,113.5C 93.54,113.851 87.7066,113.184 82,111.5C 81.5,111.667 81,111.833 80.5,112C 81.4506,112.718 81.6172,113.551 81,114.5C 73.3594,108.26 67.3594,109.593 63,118.5C 61.2937,127.789 65.1271,132.622 74.5,133C 74.9574,133.414 75.2907,133.914 75.5,134.5C 72.1259,135.751 68.7926,135.751 65.5,134.5C 58.5377,128.467 57.7044,121.467 63,113.5C 64.3968,111.93 65.8968,110.596 67.5,109.5C 69.8008,108.94 72.1341,108.44 74.5,108C 71.9414,106.677 71.2747,104.843 72.5,102.5C 79.1661,108.944 87.1661,111.611 96.5,110.5C 101.913,110.53 106.579,108.696 110.5,105C 101.221,106.382 92.2212,105.215 83.5,101.5C 79.1925,99.6817 74.8592,97.8483 70.5,96C 69.9781,95.4387 69.6448,94.772 69.5,94C 72.2318,90.79 75.5651,88.29 79.5,86.5C 90.0275,81.2396 100.528,81.2396 111,86.5C 108.695,82.2267 104.862,79.7267 99.5,79C 92.2636,77.6477 85.597,78.8144 79.5,82.5C 76.3483,84.2535 73.015,85.0869 69.5,85C 72.8861,81.9825 76.5527,79.4825 80.5,77.5C 90.1693,74.2332 99.5026,74.8999 108.5,79.5C 108.833,79.1667 109.167,78.8333 109.5,78.5C 101.06,69.9078 91.0601,67.2412 79.5,70.5C 76.6202,70.9402 73.9535,71.9402 71.5,73.5C 71.33,72.1779 71.6634,71.0113 72.5,70C 75.9938,68.1994 79.6605,67.0327 83.5,66.5C 92.1288,65.6152 99.9621,67.6152 107,72.5C 104.402,65.7384 99.5687,61.0717 92.5,58.5C 83.7613,56.1708 75.7613,57.6708 68.5,63C 60.3143,68.5614 54.981,76.0614 52.5,85.5C 57.6119,86.5857 59.9452,89.5857 59.5,94.5C 54.9058,86.4659 48.2392,84.2992 39.5,88C 29.9677,95.2593 28.9677,103.593 36.5,113C 42.645,117.45 48.9783,117.616 55.5,113.5C 56.9004,115.782 56.2337,117.282 53.5,118C 50.9373,119.079 48.2706,119.579 45.5,119.5C 40.5949,145.972 39.2616,172.639 41.5,199.5C 39.8333,199.5 38.1667,199.5 36.5,199.5C 36.3877,183.148 36.8877,166.815 38,150.5C 39.4994,139.846 40.4994,129.18 41,118.5C 31.2653,114.368 27.2653,107.035 29,96.5C 33.0012,87.6625 39.8346,82.9958 49.5,82.5C 53.7175,72.5541 60.3841,64.7208 69.5,59C 78.0982,54.0691 87.0982,53.2357 96.5,56.5C 112.638,52.4897 126.805,56.1563 139,67.5C 143.32,74.308 148.154,80.6413 153.5,86.5C 167.397,92.0962 170.064,100.929 161.5,113C 162.916,115.645 163.583,118.479 163.5,121.5C 163.168,126.998 161.835,132.164 159.5,137C 160.701,142.104 161.534,147.27 162,152.5C 162.5,168.163 162.667,183.83 162.5,199.5 Z"/></g>
<g><path style="opacity:1" fill="#62472e" d="M 92.5,58.5 C 99.5687,61.0717 104.402,65.7384 107,72.5C 99.9621,67.6152 92.1288,65.6152 83.5,66.5C 85.2365,62.4311 88.2365,59.7644 92.5,58.5 Z"/></g>
<g><path style="opacity:1" fill="#62472e" d="M 104.5,57.5 C 111.593,59.7287 117.926,63.562 123.5,69C 127.356,69.1773 131.023,69.6773 134.5,70.5C 129.156,70.334 123.823,70.5006 118.5,71C 116.385,71.5573 114.385,72.3906 112.5,73.5C 109.501,67.9859 105.501,63.1525 100.5,59C 101.745,58.2086 103.078,57.7086 104.5,57.5 Z"/></g>
<g><path style="opacity:1" fill="#8f6a43" d="M 104.5,57.5 C 117.051,56.9457 127.718,61.1123 136.5,70C 135.906,70.4643 135.239,70.631 134.5,70.5C 131.023,69.6773 127.356,69.1773 123.5,69C 117.926,63.562 111.593,59.7287 104.5,57.5 Z"/></g>
<g><path style="opacity:1" fill="#977a5a" d="M 79.5,70.5 C 91.0601,67.2412 101.06,69.9078 109.5,78.5C 109.167,78.8333 108.833,79.1667 108.5,79.5C 99.5026,74.8999 90.1693,74.2332 80.5,77.5C 80.2436,75.2075 80.5769,73.0408 81.5,71C 80.9056,70.5357 80.2389,70.369 79.5,70.5 Z"/></g>
<g><path style="opacity:1" fill="#977959" d="M 133.5,73.5 C 131.473,73.3379 129.473,73.5045 127.5,74C 128.823,74.8159 129.489,75.9826 129.5,77.5C 124.22,78.8901 119.386,81.2234 115,84.5C 113.282,81.9086 112.782,79.2419 113.5,76.5C 119.849,72.644 126.516,71.644 133.5,73.5 Z"/></g>
<g><path style="opacity:1" fill="#dcaf83" d="M 133.5,73.5 C 137.024,73.9289 140.024,75.4289 142.5,78C 138.254,77.6333 133.92,77.4666 129.5,77.5C 129.489,75.9826 128.823,74.8159 127.5,74C 129.473,73.5045 131.473,73.3379 133.5,73.5 Z"/></g>
<g><path style="opacity:1" fill="#947758" d="M 79.5,86.5 C 79.5,85.1667 79.5,83.8333 79.5,82.5C 85.597,78.8144 92.2636,77.6477 99.5,79C 104.862,79.7267 108.695,82.2267 111,86.5C 100.528,81.2396 90.0275,81.2396 79.5,86.5 Z"/></g>
<g><path style="opacity:1" fill="#957858" d="M 139.5,81.5 C 137.143,81.3367 134.81,81.5034 132.5,82C 132.974,83.7286 133.974,84.8953 135.5,85.5C 129.19,86.7695 122.857,88.4361 116.5,90.5C 115.417,89.635 115.251,88.635 116,87.5C 119.59,84.9536 123.423,82.7869 127.5,81C 131.689,80.1881 135.689,80.3547 139.5,81.5 Z"/></g>
<g><path style="opacity:1" fill="#dbae81" d="M 139.5,81.5 C 144.352,81.5049 148.352,83.3382 151.5,87C 146.295,86.0342 140.962,85.5342 135.5,85.5C 133.974,84.8953 132.974,83.7286 132.5,82C 134.81,81.5034 137.143,81.3367 139.5,81.5 Z"/></g>
<g><path style="opacity:1" fill="#a5a5a5" d="M 90.5,89.5 C 91.8333,89.5 93.1667,89.5 94.5,89.5C 94.5,90.5 94.5,91.5 94.5,92.5C 93.1667,92.5 91.8333,92.5 90.5,92.5C 90.5,91.5 90.5,90.5 90.5,89.5 Z"/></g>
<g><path style="opacity:1" fill="#aaaaaa" d="M 97.5,88.5 C 99.5273,88.3379 101.527,88.5045 103.5,89C 104.38,90.3561 104.714,91.8561 104.5,93.5C 101.833,93.5 99.1667,93.5 96.5,93.5C 96.366,91.7085 96.6993,90.0418 97.5,88.5 Z"/></g>
<g><path style="opacity:1" fill="#dcdcdc" d="M 137.5,89.5 C 142.054,89.3822 144.054,91.3822 143.5,95.5C 140.916,94.6072 138.249,94.2739 135.5,94.5C 135.392,92.4862 136.058,90.8195 137.5,89.5 Z"/></g>
<g><path style="opacity:1" fill="#a4dd7b" d="M 77.5,90.5 C 78.3764,90.3691 79.0431,90.7025 79.5,91.5C 77.1916,92.8734 76.5249,92.5401 77.5,90.5 Z"/></g>
<g><path style="opacity:1" fill="#75a758" d="M 104.5,87.5 C 108.186,87.1083 111.019,88.775 113,92.5C 113.781,93.9437 113.614,95.277 112.5,96.5C 110.929,95.6906 109.262,95.3573 107.5,95.5C 107.982,92.1694 106.982,89.5027 104.5,87.5 Z"/></g>
<g><path style="opacity:1" fill="#919191" d="M 130.5,90.5 C 131.5,90.5 132.5,90.5 133.5,90.5C 133.5,91.8333 133.5,93.1667 133.5,94.5C 132.167,94.5 130.833,94.5 129.5,94.5C 129.433,93.0413 129.766,91.7079 130.5,90.5 Z"/></g>
<g><path style="opacity:1" fill="#5c8046" d="M 116.5,93.5 C 119.797,93.3287 120.131,93.9954 117.5,95.5C 116.702,95.0431 116.369,94.3764 116.5,93.5 Z"/></g>
<g><path style="opacity:1" fill="#abeb7e" d="M 145.5,89.5 C 150.076,89.7474 152.743,92.0807 153.5,96.5C 147.733,97.7337 145.066,95.4004 145.5,89.5 Z"/></g>
<g><path style="opacity:1" fill="#967859" d="M 75.5,94.5 C 88.1109,94.2845 100.444,95.9511 112.5,99.5C 111.619,100.971 110.286,101.804 108.5,102C 96.4959,103.035 85.4959,100.535 75.5,94.5 Z"/></g>
<g><path style="opacity:1" fill="#daac80" d="M 79.5,70.5 C 80.2389,70.369 80.9056,70.5357 81.5,71C 80.5769,73.0408 80.2436,75.2075 80.5,77.5C 76.5527,79.4825 72.8861,81.9825 69.5,85C 73.015,85.0869 76.3483,84.2535 79.5,82.5C 79.5,83.8333 79.5,85.1667 79.5,86.5C 75.5651,88.29 72.2318,90.79 69.5,94C 69.6448,94.772 69.9781,95.4387 70.5,96C 74.8592,97.8483 79.1925,99.6817 83.5,101.5C 84.2026,103.716 85.5359,105.549 87.5,107C 90.5711,108.296 93.5711,109.462 96.5,110.5C 87.1661,111.611 79.1661,108.944 72.5,102.5C 71.2747,104.843 71.9414,106.677 74.5,108C 72.1341,108.44 69.8008,108.94 67.5,109.5C 66.5258,105.136 65.3591,100.802 64,96.5C 62.2473,87.2601 64.7473,79.5934 71.5,73.5C 73.9535,71.9402 76.6202,70.9402 79.5,70.5 Z"/></g>
<g><path style="opacity:1" fill="#987a5a" d="M 141.5,98.5 C 138.428,98.1826 135.428,98.5159 132.5,99.5C 133.246,100.736 133.579,102.07 133.5,103.5C 127.924,102.92 122.591,101.42 117.5,99C 125.612,97.2901 133.612,97.1235 141.5,98.5 Z"/></g>
<g><path style="opacity:1" fill="#d7898a" d="M 156.5,99.5 C 158.972,100.749 159.139,102.415 157,104.5C 156.506,102.866 156.34,101.199 156.5,99.5 Z"/></g>
<g><path style="opacity:1" fill="#d3a77d" d="M 141.5,98.5 C 145.68,98.1885 149.68,98.8552 153.5,100.5C 149.757,103.412 145.424,104.746 140.5,104.5C 138.079,104.44 135.746,104.107 133.5,103.5C 133.579,102.07 133.246,100.736 132.5,99.5C 135.428,98.5159 138.428,98.1826 141.5,98.5 Z"/></g>
<g><path style="opacity:1" fill="#8a6642" d="M 155.5,90.5 C 163.024,93.2557 165.524,98.5891 163,106.5C 161.475,109.087 159.308,109.92 156.5,109C 159.414,107.091 161.081,104.425 161.5,101C 159.671,97.3531 157.671,93.8531 155.5,90.5 Z"/></g>
<g><path style="opacity:1" fill="#957858" d="M 135.5,106.5 C 135.833,107.833 136.167,109.167 136.5,110.5C 129.124,108.112 121.457,106.612 113.5,106C 114.376,104.414 115.376,102.914 116.5,101.5C 122.545,104.261 128.879,105.928 135.5,106.5 Z"/></g>
<g><path style="opacity:1" fill="#957859" d="M 83.5,101.5 C 92.2212,105.215 101.221,106.382 110.5,105C 106.579,108.696 101.913,110.53 96.5,110.5C 93.5711,109.462 90.5711,108.296 87.5,107C 85.5359,105.549 84.2026,103.716 83.5,101.5 Z"/></g>
<g><path style="opacity:1" fill="#dbae82" d="M 136.5,110.5 C 136.167,109.167 135.833,107.833 135.5,106.5C 140.179,106.666 144.845,106.499 149.5,106C 150.766,105.691 151.933,105.191 153,104.5C 152.642,107.494 150.808,109.327 147.5,110C 143.848,110.499 140.182,110.665 136.5,110.5 Z"/></g>
<g><path style="opacity:1" fill="#daad81" d="M 158.5,166.5 C 158.649,167.552 158.483,168.552 158,169.5C 156.057,157.172 152.224,145.506 146.5,134.5C 146.611,133.883 146.944,133.383 147.5,133C 149.085,132.915 150.418,132.749 151.5,132.5C 149.476,130.31 147.643,127.977 146,125.5C 145.667,122.833 145.333,120.167 145,117.5C 144.015,119.175 143.181,120.842 142.5,122.5C 140.799,120.269 139.466,117.769 138.5,115C 140.058,114.79 141.391,114.29 142.5,113.5C 144.591,113.318 146.591,113.652 148.5,114.5C 150.592,111.848 153.258,111.014 156.5,112C 163.308,119.509 162.974,126.676 155.5,133.5C 157.4,144.4 158.4,155.4 158.5,166.5 Z"/></g>
<g><path style="opacity:1" fill="#dfb183" d="M 99.5,113.5 C 100.758,117.592 102.425,121.592 104.5,125.5C 104.376,126.107 104.043,126.44 103.5,126.5C 98.4924,125.531 93.4924,124.364 88.5,123C 86.4476,122.07 84.9476,120.57 84,118.5C 83.9833,122.893 83.15,127.06 81.5,131C 82.6492,132.744 83.9825,132.911 85.5,131.5C 93.2376,136.536 101.571,140.202 110.5,142.5C 116.33,161.16 120.664,180.16 123.5,199.5C 110.167,199.5 96.8333,199.5 83.5,199.5C 85.1276,175.559 78.7943,154.059 64.5,135C 64.7284,134.601 65.0618,134.435 65.5,134.5C 68.7926,135.751 72.1259,135.751 75.5,134.5C 75.2907,133.914 74.9574,133.414 74.5,133C 65.1271,132.622 61.2937,127.789 63,118.5C 67.3594,109.593 73.3594,108.26 81,114.5C 81.6172,113.551 81.4506,112.718 80.5,112C 81,111.833 81.5,111.667 82,111.5C 87.7066,113.184 93.54,113.851 99.5,113.5 Z"/></g>
<g><path style="opacity:1" fill="#967959" d="M 142.5,113.5 C 141.391,114.29 140.058,114.79 138.5,115C 139.466,117.769 140.799,120.269 142.5,122.5C 132.97,128.085 122.637,129.919 111.5,128C 108.635,127.817 105.969,127.317 103.5,126.5C 104.043,126.44 104.376,126.107 104.5,125.5C 102.425,121.592 100.758,117.592 99.5,113.5C 101.428,112.464 103.428,111.964 105.5,112C 102.682,114.901 103.016,117.401 106.5,119.5C 106.88,117.979 107.046,116.313 107,114.5C 110.755,109.914 115.589,108.08 121.5,109C 128.89,110.436 130.224,113.936 125.5,119.5C 126,119.833 126.5,120.167 127,120.5C 130.18,119.161 132.014,116.827 132.5,113.5C 135.833,113.5 139.167,113.5 142.5,113.5 Z"/></g>
<g><path style="opacity:1" fill="#0b0706" d="M 111.5,112.5 C 115.314,112.651 116.981,114.651 116.5,118.5C 111.756,118.772 110.089,116.772 111.5,112.5 Z"/></g>
<g><path style="opacity:1" fill="#0e0a09" d="M 121.5,112.5 C 127.906,113.46 128.073,115.46 122,118.5C 118.897,116.888 118.73,114.888 121.5,112.5 Z"/></g>
<g><path style="opacity:1" fill="#8f6a43" d="M 92.5,58.5 C 88.2365,59.7644 85.2365,62.4311 83.5,66.5C 79.6605,67.0327 75.9938,68.1994 72.5,70C 71.6634,71.0113 71.33,72.1779 71.5,73.5C 64.7473,79.5934 62.2473,87.2601 64,96.5C 65.3591,100.802 66.5258,105.136 67.5,109.5C 65.8968,110.596 64.3968,111.93 63,113.5C 57.7044,121.467 58.5377,128.467 65.5,134.5C 65.0618,134.435 64.7284,134.601 64.5,135C 78.7943,154.059 85.1276,175.559 83.5,199.5C 80.8333,199.5 78.1667,199.5 75.5,199.5C 74.9417,191.51 74.4417,183.51 74,175.5C 73,174.167 72,174.167 71,175.5C 71.0221,183.487 71.1888,191.487 71.5,199.5C 64.5,199.5 57.5,199.5 50.5,199.5C 49.0362,189.232 48.2028,178.898 48,168.5C 47,167.167 46,167.167 45,168.5C 44.3855,178.887 44.8855,189.22 46.5,199.5C 44.8333,199.5 43.1667,199.5 41.5,199.5C 39.2616,172.639 40.5949,145.972 45.5,119.5C 48.2706,119.579 50.9373,119.079 53.5,118C 56.2337,117.282 56.9004,115.782 55.5,113.5C 48.9783,117.616 42.645,117.45 36.5,113C 28.9677,103.593 29.9677,95.2593 39.5,88C 48.2392,84.2992 54.9058,86.4659 59.5,94.5C 59.9452,89.5857 57.6119,86.5857 52.5,85.5C 54.981,76.0614 60.3143,68.5614 68.5,63C 75.7613,57.6708 83.7613,56.1708 92.5,58.5 Z"/></g>
<g><path style="opacity:1" fill="#18100f" d="M 43.5,92.5 C 53.8782,92.031 57.7115,96.6976 55,106.5C 48.8818,113.423 43.2152,113.09 38,105.5C 37.3333,102.833 37.3333,100.167 38,97.5C 39.7297,95.5981 41.563,93.9314 43.5,92.5 Z"/></g>
<g><path style="opacity:1" fill="#f19596" d="M 43.5,95.5 C 52.7446,94.8991 55.4113,98.7324 51.5,107C 44.2618,110.307 40.4285,108.14 40,100.5C 40.9973,98.6769 42.1639,97.0103 43.5,95.5 Z"/></g>
<g><path style="opacity:1" fill="#1a100f" d="M 146.5,134.5 C 135.946,143.136 123.946,145.802 110.5,142.5C 101.571,140.202 93.2376,136.536 85.5,131.5C 83.9825,132.911 82.6492,132.744 81.5,131C 83.15,127.06 83.9833,122.893 84,118.5C 84.9476,120.57 86.4476,122.07 88.5,123C 93.4924,124.364 98.4924,125.531 103.5,126.5C 105.969,127.317 108.635,127.817 111.5,128C 122.637,129.919 132.97,128.085 142.5,122.5C 143.181,120.842 144.015,119.175 145,117.5C 145.333,120.167 145.667,122.833 146,125.5C 147.643,127.977 149.476,130.31 151.5,132.5C 150.418,132.749 149.085,132.915 147.5,133C 146.944,133.383 146.611,133.883 146.5,134.5 Z"/></g>
<g><path style="opacity:1" fill="#c35d5e" d="M 86.5,125.5 C 86.7352,124.903 87.2352,124.57 88,124.5C 102.114,129.421 116.614,131.254 131.5,130C 135.655,129.282 139.488,127.782 143,125.5C 143.5,126 144,126.5 144.5,127C 137.515,132.569 129.515,135.069 120.5,134.5C 108.378,134.346 97.0452,131.346 86.5,125.5 Z"/></g>
<g><path style="opacity:1" fill="#c15c5c" d="M 86.5,128.5 C 100.172,134.667 114.506,137.167 129.5,136C 135.297,134.903 140.631,132.736 145.5,129.5C 145.833,129.833 146.167,130.167 146.5,130.5C 137.882,139.963 127.216,143.463 114.5,141C 104.826,139.16 95.826,135.66 87.5,130.5C 86.7025,130.043 86.3691,129.376 86.5,128.5 Z"/></g>
<g><path style="opacity:1" fill="#9b7d5b" d="M 146.5,134.5 C 152.224,145.506 156.057,157.172 158,169.5C 158.483,168.552 158.649,167.552 158.5,166.5C 159.725,177.348 159.725,188.348 158.5,199.5C 146.833,199.5 135.167,199.5 123.5,199.5C 120.664,180.16 116.33,161.16 110.5,142.5C 123.946,145.802 135.946,143.136 146.5,134.5 Z"/></g>
<g><path style="opacity:1" fill="#0d0907" d="M 50.5,199.5 C 49.1667,199.5 47.8333,199.5 46.5,199.5C 44.8855,189.22 44.3855,178.887 45,168.5C 46,167.167 47,167.167 48,168.5C 48.2028,178.898 49.0362,189.232 50.5,199.5 Z"/></g>
<g><path style="opacity:1" fill="#0e0907" d="M 75.5,199.5 C 74.1667,199.5 72.8333,199.5 71.5,199.5C 71.1888,191.487 71.0221,183.487 71,175.5C 72,174.167 73,174.167 74,175.5C 74.4417,183.51 74.9417,191.51 75.5,199.5 Z"/></g>
</svg>
