<?xml version="1.0" encoding="UTF-8"?>
<!DOCTYPE svg PUBLIC "-//W3C//DTD SVG 1.1//EN" "http://www.w3.org/Graphics/SVG/1.1/DTD/svg11.dtd">
<svg xmlns="http://www.w3.org/2000/svg" version="1.1" width="200px" height="200px" style="shape-rendering:geometricPrecision; text-rendering:geometricPrecision; image-rendering:optimizeQuality; fill-rule:evenodd; clip-rule:evenodd" xmlns:xlink="http://www.w3.org/1999/xlink">
<g><path style="opacity:0.987" fill="#010101" d="M 83.5,-0.5 C 94.1667,-0.5 104.833,-0.5 115.5,-0.5C 161.171,9.83721 189.171,37.8372 199.5,83.5C 199.5,94.1667 199.5,104.833 199.5,115.5C 189.169,161.165 161.169,189.165 115.5,199.5C 104.833,199.5 94.1667,199.5 83.5,199.5C 37.8333,189.167 9.83333,161.167 -0.5,115.5C -0.5,104.833 -0.5,94.1667 -0.5,83.5C 9.83333,37.8333 37.8333,9.83333 83.5,-0.5 Z"/></g>
<g><path style="opacity:1" fill="#9e9e9e" d="M 50.5,31.5 C 51.0431,31.56 51.3764,31.8933 51.5,32.5C 50.635,33.5827 49.635,33.7494 48.5,33C 49.4158,32.7216 50.0825,32.2216 50.5,31.5 Z"/></g>
<g><path style="opacity:1" fill="#7d7d7d" d="M 146.5,33.5 C 148.337,33.6395 148.67,34.3061 147.5,35.5C 146.702,35.0431 146.369,34.3764 146.5,33.5 Z"/></g>
<g><path style="opacity:1" fill="#cfcfcf" d="M 78.5,47.5 C 83.663,47.1068 85.3297,49.2734 83.5,54C 81.5911,54.4479 80.4244,53.6145 80,51.5C 80.0354,55.2452 79.0354,55.9119 77,53.5C 76.2516,51.1599 76.7516,49.1599 78.5,47.5 Z"/></g>
<g><path style="opacity:1" fill="#d0d0d0" d="M 117.5,48.5 C 122,48.1638 123.833,50.1638 123,54.5C 121.209,56.5127 119.875,56.5127 119,54.5C 117.989,55.3366 116.822,55.67 115.5,55.5C 115.166,52.812 115.832,50.4786 117.5,48.5 Z"/></g>
<g><path style="opacity:1" fill="#575757" d="M 148.5,48.5 C 150.564,48.687 152.564,49.187 154.5,50C 152.007,51.6714 150.007,51.1714 148.5,48.5 Z"/></g>
<g><path style="opacity:1" fill="#9b9b9b" d="M 49.5,48.5 C 50.675,48.281 51.675,48.6143 52.5,49.5C 50.3424,51.9652 48.0091,52.4652 45.5,51C 47.3197,50.7996 48.653,49.9663 49.5,48.5 Z"/></g>
<g><path style="opacity:1" fill="#cfcfcf" d="M 98.5,47.5 C 103.486,47.3049 105.152,49.4716 103.5,54C 102.216,54.6838 101.049,54.5171 100,53.5C 99.3946,55.4812 98.3946,55.8146 97,54.5C 96.1668,51.829 96.6668,49.4957 98.5,47.5 Z"/></g>
<g><path style="opacity:1" fill="#d8d8d8" d="M 59.5,67.5 C 65.0241,68.0507 66.3574,70.5507 63.5,75C 61.5594,75.7429 59.7261,75.5762 58,74.5C 57.3996,71.9047 57.8996,69.5713 59.5,67.5 Z"/></g>
<g><path style="opacity:1" fill="#ebebeb" d="M 98.5,68.5 C 104.016,68.4734 105.349,70.64 102.5,75C 96.3601,75.8076 95.0268,73.6409 98.5,68.5 Z"/></g>
<g><path style="opacity:1" fill="#e4e4e4" d="M 117.5,67.5 C 122.541,67.3527 124.207,69.5194 122.5,74C 119.53,76.0909 117.197,75.4242 115.5,72C 116.414,70.5936 117.08,69.0936 117.5,67.5 Z"/></g>
<g><path style="opacity:1" fill="#e3e3e3" d="M 78.5,68.5 C 84.2617,67.7245 85.5951,69.5578 82.5,74C 80.5273,74.4955 78.5273,74.6621 76.5,74.5C 76.2525,72.1417 76.9192,70.1417 78.5,68.5 Z"/></g>
<g><path style="opacity:1" fill="#e8e8e8" d="M 137.5,68.5 C 141.882,68.5299 143.548,70.5299 142.5,74.5C 135.661,76.6643 133.994,74.6643 137.5,68.5 Z"/></g>
<g><path style="opacity:1" fill="#dddddd" d="M 98.5,87.5 C 103.486,87.3049 105.152,89.4716 103.5,94C 96.5608,95.5741 94.8941,93.4074 98.5,87.5 Z"/></g>
<g><path style="opacity:1" fill="#ececec" d="M 136.5,88.5 C 138.5,88.5 140.5,88.5 142.5,88.5C 143.092,91.6405 142.092,93.9739 139.5,95.5C 135.643,94.4137 134.643,92.0804 136.5,88.5 Z"/></g>
<g><path style="opacity:1" fill="#d5d5d5" d="M 59.5,87.5 C 65.0159,87.4734 66.3492,89.64 63.5,94C 60.3045,96.3329 58.3045,95.4995 57.5,91.5C 57.7517,89.9271 58.4183,88.5938 59.5,87.5 Z"/></g>
<g><path style="opacity:1" fill="#525252" d="M 60.5,90.5 C 62.337,90.6395 62.6704,91.3061 61.5,92.5C 60.7025,92.0431 60.3691,91.3764 60.5,90.5 Z"/></g>
<g><path style="opacity:1" fill="#cecece" d="M 58.5,107.5 C 61.6041,106.971 63.9375,107.971 65.5,110.5C 63.5822,113.106 60.9156,114.106 57.5,113.5C 57.3253,111.379 57.6586,109.379 58.5,107.5 Z"/></g>
<g><path style="opacity:1" fill="#ebebeb" d="M 135.5,107.5 C 137.655,107.372 139.655,107.872 141.5,109C 142.727,110.587 142.394,111.921 140.5,113C 135.088,114.424 133.421,112.591 135.5,107.5 Z"/></g>
<g><path style="opacity:1" fill="#d6d6d6" d="M 78.5,107.5 C 81.8852,106.79 84.2186,107.956 85.5,111C 83.8359,114.721 81.1692,115.554 77.5,113.5C 77.5172,111.435 77.8505,109.435 78.5,107.5 Z"/></g>
<g><path style="opacity:1" fill="#e6e6e6" d="M 115.5,108.5 C 117.527,108.338 119.527,108.505 121.5,109C 122.38,110.356 122.714,111.856 122.5,113.5C 120.119,114.42 117.786,114.42 115.5,113.5C 114.566,111.905 114.566,110.239 115.5,108.5 Z"/></g>
<g><path style="opacity:1" fill="#303030" d="M 80.5,110.5 C 82.337,110.639 82.6704,111.306 81.5,112.5C 80.7025,112.043 80.3691,111.376 80.5,110.5 Z"/></g>
<g><path style="opacity:1" fill="#cacaca" d="M 98.5,126.5 C 102.908,126.062 104.575,128.062 103.5,132.5C 101.167,132.5 98.8333,132.5 96.5,132.5C 96.2525,130.142 96.9192,128.142 98.5,126.5 Z"/></g>
<g><path style="opacity:1" fill="#c5c5c5" d="M 79.5,125.5 C 85.5956,125.715 86.7623,128.049 83,132.5C 82.0128,128.233 81.1795,127.9 80.5,131.5C 79.5,131.5 78.5,131.5 77.5,131.5C 77.2525,129.142 77.9192,127.142 79.5,125.5 Z"/></g>
<g><path style="opacity:1" fill="#cacaca" d="M 121.5,132.5 C 120.685,131.571 119.852,130.571 119,129.5C 118.29,130.973 117.124,131.64 115.5,131.5C 114.239,128.544 115.405,126.877 119,126.5C 120.107,126.585 121.107,126.919 122,127.5C 122.78,129.387 122.613,131.054 121.5,132.5 Z"/></g>
<g><path style="opacity:1" fill="#5b5b5b" d="M 121.5,132.5 C 119.32,133.794 117.32,133.461 115.5,131.5C 117.124,131.64 118.29,130.973 119,129.5C 119.852,130.571 120.685,131.571 121.5,132.5 Z"/></g>
<g><path style="opacity:1" fill="#c9c9c9" d="M 78.5,145.5 C 80.5,145.5 82.5,145.5 84.5,145.5C 85.3931,151.534 83.0597,153.534 77.5,151.5C 77.3253,149.379 77.6586,147.379 78.5,145.5 Z"/></g>
<g><path style="opacity:1" fill="#dadada" d="M 117.5,145.5 C 119.199,145.34 120.866,145.506 122.5,146C 123.864,149.113 122.864,151.279 119.5,152.5C 115.474,150.844 114.807,148.51 117.5,145.5 Z"/></g>
<g><path style="opacity:1" fill="#d5d5d5" d="M 104.5,149.5 C 102.883,150.038 101.216,150.371 99.5,150.5C 98.5,150.5 97.5,150.5 96.5,150.5C 97.0925,145.738 99.5925,144.404 104,146.5C 104.483,147.448 104.649,148.448 104.5,149.5 Z"/></g>
<g><path style="opacity:1" fill="#8f8f8f" d="M 35.5,147.5 C 39.31,148.754 39.31,149.754 35.5,150.5C 35.5,149.5 35.5,148.5 35.5,147.5 Z"/></g>
<g><path style="opacity:1" fill="#9e9e9e" d="M 51.5,147.5 C 55.31,148.754 55.31,149.754 51.5,150.5C 51.5,149.5 51.5,148.5 51.5,147.5 Z"/></g>
<g><path style="opacity:1" fill="#828282" d="M 104.5,149.5 C 103.594,150.965 102.261,151.965 100.5,152.5C 99.7025,152.043 99.3691,151.376 99.5,150.5C 101.216,150.371 102.883,150.038 104.5,149.5 Z"/></g>
<g><path style="opacity:1" fill="#959595" d="M 166.5,149.5 C 169.012,150.216 169.012,151.216 166.5,152.5C 165.438,151.575 165.438,150.575 166.5,149.5 Z"/></g>
<g><path style="opacity:1" fill="#e1e1e1" d="M 150.5,162.5 C 152.465,162.948 152.798,163.948 151.5,165.5C 150.614,164.675 150.281,163.675 150.5,162.5 Z"/></g>
</svg>
