<svg xmlns="http://www.w3.org/2000/svg" viewBox="0 0 800 800" width="200" height="200" xmlns:v="https://vecta.io/nano"><style><![CDATA[.B{fill:#b99486}.C{fill:#53423b}.D{fill:#dfb8a4}.E{fill:#c79b8c}.F{fill:#736a62}.G{fill:#262e41}.H{fill:#a67f68}.I{fill:#8f6c5c}.J{fill:#9c9896}.K{fill:#6a5c52}.L{fill:#826555}.M{fill:#6c5243}.N{fill:#b2a9a1}.O{fill:#ca2737}.P{fill:#c69a8b}.Q{fill:#605248}.R{fill:#6b4d3d}.S{fill:#b89385}.T{fill:#0e4085}.U{fill:#b78f76}.V{fill:#614e40}.W{fill:#2f3951}.X{fill:#191b23}.Y{fill:#2e3850}.Z{fill:#735a4a}.a{fill:#d5ac99}.b{fill:#3b4663}.c{fill:#252d41}.d{fill:#726961}.e{fill:#ac8977}.f{fill:#1c284b}.g{fill:#e7c6b3}.h{fill:#7e5d4e}.i{fill:#947767}.j{fill:#685a50}.k{fill:#604e40}.l{fill:#22345e}.m{fill:#b68e76}.n{fill:#edd0c0}.o{fill:#d4ab99}.p{fill:#937666}.q{fill:#816454}.r{fill:#807c78}.s{fill:#95897e}.t{fill:#d4ac99}.u{fill:#10131f}.v{fill:#e7bead}.w{fill:#ae8976}.x{fill:#ad8977}.y{fill:#605349}.z{fill:#cba89b}]]></style><path d="M384 0h31l36 4 35 6 28 7 27 9 24 10 19 9 18 10 19 12 17 12 14 11 13 11 3 2v2l4 2 24 24 7 8 13 16 11 15 12 18 14 24 11 22 13 32 7 19 7 26 7 38 2 12v77l-7 41-8 34-12 35-11 25-11 22-10 17-11 17-10 14-10 13-13 15-9 10-22 22-8 7-16 13-19 14-20 13-19 11-16 8-16 7-21 6-63 15-11 3H357l-3-3-21-4-33-7-30-9-28-11-29-14-23-13-21-14-15-11-11-9-6-5-29-29-7-8-11-13-13-17-16-24-11-19-8-16-9-19-10-27-8-26-6-27-5-34-2-22v-37l3-31 5-32 6-25 8-25 8-22 13-28 12-22 20-30 12-16 12-14 11-12 9-10 8-7 14-13 14-11 19-14 19-12 21-12 27-13 26-10 29-9 28-6 38-6z" class="G"/><path d="M384 0h31l36 4 35 6 28 7 27 9 24 10 19 9 18 10 19 12 17 12 14 11 13 11 3 2v2l4 2 24 24 7 8 13 16 11 15 12 18 14 24 11 22 13 32 3 8-1 6-15 25-9 17-9 9-12 9-12 12-11 14-8 19-5 16-2 16-1 21-6-2-11-8-18-11-24-13-10-6-6-7-17-32-8-16-6-8-7-2v2h-2l-1-2-3-33-1-2-1-21 9-10 6-9 6-14 3-15 1-17 3-12 1-1v-12l-6-9-7-4-1-2-2-22v-28l1-7-3-1-2-10h-2l-1-9-4-5-3-2-2-9-1-4h-2l-7-8-9-7-18-12-21-13-16-8-14-5-17-3h-32l-14 3-1 1-25 3-9 2-9 1-4 3-9 2-6 4-8 7-7 6-9 15-2 5-1 8 3 1-1 5 1 5v8l-7 27-3 12-1 17 1 17 2 15 1 21 2 8 1 57 2 26 4 20 7 17 10 16 8 11 10 14 11 12 11 13 11 7 4 2 2 9 3 6 4 4v3l-8 3-8 7-4 4v-10l2-9 2-16-30 6-23 4-17 4-19 6-19 7-12 2-12 6-10 9-6 10-7 14-6 16-1 16-7 12-11 24-7 11-1 17-2 5-7 9v12l-3 6-9 2 1 11-9 1-1 12-15 22-13 19-7 12-6 13 2-1 14-2 15-1 3-1-2-4-7-8-3-7v-7l6-7 2-1h8l11 7 11 8 12 9 12 8 2 10 6 7 3 2v2l3 1v3h-3v3h4v2h8l11-4 5-1h7l-1 3-10 4-13 7-12 11-8 11h-2l1 3 20 9 35 12 33 8 26 4 14 1 10 1 36-26 13-10 9-7 3-3-10-6-1-5 9-12 10-9 10-6 9-5 12-12 17-12 7-8 13-8 11-6 8-4 17-5 4-1-5 5-15 11-18 13-10 8-16 13-6 5h-2l-2 4-12 16-7 8-9 9-11 9-10 8-13 10-19 14-12 8-13 9-5 2-5-2-38-7-27-7-27-9-28-12-22-11-22-13-18-12-15-11-11-9-6-5-29-29-7-8-11-13-13-17-16-24-11-19-8-16-9-19-10-27-8-26-6-27-5-34-2-22v-37l3-31 5-32 6-25 8-25 8-22 13-28 12-22 20-30 12-16 12-14 11-12 9-10 8-7 14-13 14-11 19-14 19-12 21-12 27-13 26-10 29-9 28-6 38-6z" fill="#fcfdfd"/><path d="M434 18h32l17 3 19 7 18 10 25 16 11 8 8 7 4 4v2h2l3 7 1 6 5 4 2 3v9h2l3 10 2 1v35l2 24 4 1 6 5 4 7v12l-2 6-2 7-1 17-3 15-7 15-6 9-8 9 1 21 1 2 3 35h2v-2h2l2 7v7l-7 11-13 15-11 11-6 7-8 7-8 8-11 14-9 11-15 15-7 8-13 14-9 11-11 13-11 14-14 17-11 14-3 1 3-18v-10l-3-17v-6l18-13 14-3-2-5-8-10-7-8v-2h-2l-7-9-5-5-4-1-7-9-2-5-1-7-8-4-9-7-11-13-10-11-14-20-9-13-8-16-5-16-2-12-2-26-1-57-2-8-1-21-2-15-1-19 1-15 7-27 3-12v-8l-1-8 1-2-2-1v-8l7-14 7-9 13-11 6-4 9-2 4-3 14-2 19-3 10-1 1-1z" fill="#e6c5b2"/><path d="M395 411h5l-1 16-2 9v9l8-9 7-4 8-1 5 5 7 8v2h2l7 9 8 9 3 5-1 3-16 4-15 11 1 14 2 9v10l-2 14-2 4 5-5 11-13 8-10 13-16 8-10 9-11 11-12 4-4 2 3 2-3h2v3l-2 1-2 5h-3l-1 4-3 1v3l-4 1-1 5-3 6h-3l1 3h-2l-1 4-3 5h-2v2h2v2l-3 2-3 7-5 5-3 5-1 5 2 5-4 5-4 2-5 2-1 5 11 1h5l1 1-1 7-9 5-1 3 10 3 2 3v5l-5 4 1 5 9 4 11 6 5 4 3 6 1 9 2 6 7-2v-5l4 4 10-2 3 3-1 4-4 3v4l4 1 1-2 4-4v31l-1 3 2 1-9 5-14 8-8 7-5 5-11 8-9 8-5 5-8 5-9 5-10 8-6 7-5 7 1 5 10 5-6 7-28 21-28 20-30-3-24-4-29-7-35-12-20-9-1-4h2l2-5 12-13 7-6 19-9 3-1 1-2-15 3-8 3-8-1v-2h-4v-3h3l-1-3-7-6v-2l-3-1-3-6v-7l-4-2-9-6-11-8-14-10-8-5h-8l-6 5-1 2v7l4 8 8 9-1 3-3 1-15 1-16 2 1-5 9-17 8-12 14-20 8-12 1-12 1-1h9l-1-11 9-2 2-6v-12l8-10 1-4 1-17 9-15 6-14 10-18 1-16 10-25 7-12 9-10 11-7 8-3 9-1 24-9 25-7 19-3 21-4z" class="W"/><path d="M457 27h6l3 2 6 2h3l3 1 1 2 3 1v2l9 3-1-3-5-1v-2l6 1 7 4 5 2 3 3 5 1v2l5 1 3 2v2l7 1-1 4h-5l3 2 3-2 5 1 4 2v2h-7l7 1 11 4 1 2h7l-3 2-1 2-9 1-6 2-5 2 9-1h10l1 4 4 1 1 3h3l1-4 5-1-2 4 3 9-4 6-5 1-1 5-7 1 2 2 6-2 8 1h2l-2 6h-3l2 5-3 1 4 2v-2l7 1v-9l-3-1 2-4 2 2h4l2-2 2 5 1 6 1 3-2 1v3h3l-1 4-5 2v18l1 8 2 1-1 6 3 10 5 1h6l7 6 4 7v12l-2 6-2 7-1 17-3 15-7 15-6 9-8 9 1 21 1 2 2 22v10l-3 1-2 4-3 1v2l-8 7-13 11-11 8h-2v2l-16 11-1 9v10l-3 5-7 4h-3v2l-10 4-12 5-20 7-14 3h-6l-2-2v-3h2l1-4h-2l-1-6-19-1-10-2 2-2 14-3 1-2h2v-2l4-1v-2l11-8 4-6h2v-2l8 1 2-8 3-4h2l2-6 7-1 2-8 3-5 4-13 3-9 3-7 1-8v-13l-2-4-1-7-2-11v-4h-2l-1-8 2-10 5-3 1-2h4l-4-8-1-3 3-1-2-7-6-2v-2h-7l-8 2-1-2v-4l-5-1v-2l-9 1-6-1-2-3 1-4h2l-1-3-5-1-3 1-3 4-4-1 1-2-8 3-2 2v-4l4-4h11l3-2h9l9 1-3-7v-1h-20l-10 3-7 5-4 5-1 4h3l1 10 4 8 1 3-4 11-1 5-2 5 3 3 6 3 10 9v2l5 2 2 7v5l-4 4h-2v2l-5 3-7 3-4 2h-20l-12-4-1-2 3-7 6-12 1-4-1-16-2-4 3-9 1-26 2-10h5l2-6 6-7 3-8 1-1h7l7-2h8l7-1 4-2h4v-2l3-2 1-3h12l-2-4-2-1 1-4h3l1-2h2l-2-8h5l1-6-1-6 1-13h2v-5l-4-1-3-3-4-2v-9l-3-1-1-4-2-1 1-6-1-2 1-3 2-1-3-7 1-3v-8l-7-10v-4l3 1 5 7 2 1-3-7-6-7-3-5-3-4 1-2 6 3 6 2v2h2l-2-6-4-6-3-3 4 1 4 4h2l-2-4-10-9-3-3z" class="M"/><path d="M741 385h24l2 2 2 12 2 2 15 3 12 1 2 1v32l-7 41-8 34-12 35-11 25-11 22-10 17-11 17-10 14-10 13-13 15-9 10-22 22-8 7-2 1-2-1 1-6 5-5 1-4-15 12-10 6-5-1-10-9v-2l-4-2-7-8-5-5-5-3-11-11-11-14-12-13-5-5-3-5 8-6h2v-2l8-5 5-2 1-3 8-5h2v-2h2v-2l14-9 18-13 14-10 6-8 6-9 30-30 11-8 12-9 8-8 1-3h2l1-6 2-3-1-12-1-7 3 1 4 8 3 11 1 20 2 3v11l-3 17-5 12-1 2h-3l-1 5-3 2-8 1v2h-5l-4 5-1 10-2 4v7l-1 10h10v-2l4-1 1-2h3l2-4 7-12 4-10 6-16 6-19 1-7 3-5 1-11 2-7 1-22v-36l-3-14v-8h-2v-7l-2-6-1-1v-17l-1-5v-5z" fill="#ebc93b"/><path d="M416 431l5 1 5 5 6 7v2h2l7 9 8 9 3 5-1 3-16 4-15 11 1 14 2 9v10l-2 14-2 4 5-5 11-13 8-10 13-16 8-10 9-11 11-12 4-4 2 3 2-3h2v3l-2 1-2 5h-3l-1 4-3 1v3l-4 1-1 5-3 6h-3l1 3h-2l-1 4-3 5h-2v2h2v2l-3 2-3 7-5 5-3 5-1 5 2 5-4 5-4 2-5 2-1 5 11 1h5l1 1-1 7-9 5-1 3 10 3 2 3v5l-5 4 1 5 9 4 11 6 2 2v3l-4 1 1 5 8 2v7l2 6-5 1-3-8-4 2-2 3h4v5l-7 5-7 2h-8l-1-1h-5l-1 1-14 3-13 3v2l-4 2h-6v3l-3 3-2 4h-8l-4 16-7 24-5 20h-2l-1 6-4 4-2 6-1 8h-19l-9-1-2-2 1-11 3-14 1-7v-47l-1-18-2-10-3-56-2-16 3-12 7-16 9-16 9-11 11-13 4-5 3-6 4-6h2l1-5 7-14 5-5 8-7z" class="W"/><path d="M557 635h2l2 4 14 14 11 14 12 13 4 4 5 3v2l4 2 8 9 5 5 8 7 6-1 13-9 10-8 2 1-4 6-3 3-2 6 2 1-9 8-20 15-24 16-19 11-16 8-16 7-21 6-63 15-11 3H357v-3l10-6 17-12 14-10 13-10 12-9 11-9 13-12 8-9 12-16 5-5 13-11 10-8 16-12 18-13 11-8 12-8z" fill="#d43845"/><path d="M419 190l2 1-2 7-3 4h-2l-2 6-4 4-3 1-1 8-1 26-3 10 2 3 1 16-5 13-4 6-1 5 12 4h20l7-4 5-2 4-1v-2l5-5-1-10-5-3-4-5-9-7-6-3-1-4 3-5 1-5 3-11-4-7-1-2v-10h-3l1-5 5-6 8-5 8-2h20l2 2v4l1 3h-18l-5 2h-9l-4 4 1 1 3-2 6-1v2l4-1 2-3 6-1 3 2v3l-2 1 1 5 6 1h9v2h5l1 5 1 1 10-2 10 4 2 2 1 7h-4l4 6 1 5h-4l-1 3-4 2-2 10v8h2l4 18v6l2 2v13l-2 10-3 7-2 7-5 15-3 5-2 6-7 2-2 5-4 4-3 8-6 1v-2h-2v2l-4 4-4 5-6 4-3 1v2l-4 1v2l-2 1 1 2-16 3v1l27 3 2 4-1 2h2l-1 4h-2l2 4 10-1 13-3 22-8 11-5 6-1v-2l7-3 4-3 1-8v-11l3-5 12-8 3-1v-2l9-6 14-12 8-7 3-1v-2l7-6 2 1v2h2v-2h2l2 7v7l-7 11-13 15-11 11-6 7-8 7-8 8-11 14-9 11-15 15-7 8-13 14-9 11-11 13-11 14-14 17-11 14-3 1 3-18v-10l-3-17v-6l18-13 14-3-2-5-8-10-7-8v-2h-2l-7-9-5-5-4-1-7-9-2-5-1-7-2-3v-3l10-4 10-2 13-5 7-6 3-9v-3h3v-2h2l-1-5-5 3-8 1-6-3-8-1-1-4h4l1-3h-3l-1 2h-2v4h-8l-2-4-3-3-1-8 12-3 4-8v-2h-27l-7-1-5 1v-2l-4-1-5-9-1-2-6 1-4-2-1-6 4-1 7 4 13 3-1 3 7 5 6 2h19l3-2 1 1h8v-6l-8 1-3 1-21-2 1-2 12-2 4-2v-3l2-1v-5l-6-3-11-3-8-3-10-3 1-4h4v-2l2-1 3-10 2-9v-21l3-6v-22l2-1 1-10-2-1v-7h4l4-1 2-5 3-4 3-1z" class="B"/><path d="M581 356l2 3-1 3 2 7 7 4 1 4h2l3 4v2l4 1 4 8 4 5 4 8v2l7-1 4-5 5 1 2 2-18 18-2 3h-2l-2 4-12 16-12 22-5 6-13 8-16 6-7 2 1 7 4 8 1 6-5 6-10 7h-2v2l-10 7h-2v2l-4 1v2l-15 10-15 12-17 12-7 5h-3v2h-2l-1-3 2-4-1-5-10-4 1-4 8-4 1-7h-11l-6-2 1-5 4-3 4-1 5-5-2-6 3-7 5-7h2l1-4 3-5h2v-2h-2v-2h2l2-5 3-5-1-3 4 1 1-5 3-6 4-1v-3l3-2 1-3 3-1 2-5h2v-3h-2l-2 4-2-1 1-5 7-7 7-8 12-12 10-13 11-13 11-11 6-5 7-8 9-9 2-3 5-3z" class="G"/><path d="M434 18h32l17 3 19 7 18 10 25 16 11 8 8 7 4 4v2h2l3 7 1 6 5 4 2 3v9h2l3 10 2 1v35l2 24-6 1-3-2-3-11 2-5-3-1-1-12v-16l5 1 2-5h-3l-1-4h3l-3-6-1-6-7 1-1-2-1 3h3l-1 10-7-1v2h-4l-1-3h4l-2-5h3l2-6-7 1-5-1-5 2-1-3 7-1 1-5 5-2 3-5-2-6-1-4h2v-2l-4 1-1 4-3-1-2-3h-4v-5l-20 2 1-2 6-3 9-2h5v-2h-4v-3l-11-3-8-1 1-2 7 1-1-2-4-2-5 1-3 1-4-4h7l1-3-7-1v-2l-4-2-4-1-1-2-5-1-3-3-10-4-7-3v2l5 1 1 2 5 2-4 1-10-5-1-2-4-1-1-2h-3l-9-3-5-1-1 2 4 2 10 9 1 4-5-1-3-4h-2l5 5 3 4v5h-2l-1-2-9-3h-2l5 6 3 5 6 8v4l-4-2-4-6-2-1 3 7 5 7v8l-1 3 3 8h-3l1 6-2 5 3 1 1 4 2 1 1 6-1 3 6 2 2 3 3 1v5h-2l1 6-1 11 1 3-2 5h-5l2 8h-2l-1 3h-3l-1 3 4 2v3h-12l-1 4-3 1v2l-8 3-7 1h-14l-1 2h-8v-2l7-5 2-5 6-4 3-9h2l-3-8-2-1-1-8 2-4 5-1v-2l-2-1v-4h2v-11l-2-5h2l1-7-5-10 1-10-1-3-5-1h-4v-3l-4-2-2-4 2-5-3-1 2-3h-2l-1-3h-4l-1 4-1 3-4 1-1 2-2-1 1 3-4 2-4-3-4-1-4 3-5-2v-3l-13 1-3 2h-3v-2l-10 2-3 1-4-1v2l-5 3-8 11-4 9-3 5h-1v-8l1-3v-8l-1-8 1-2-2-1v-8l7-14 7-9 13-11 6-4 9-2 4-3 14-2 19-3 10-1 1-1z" class="N"/><path d="M476 594l5 5 2 12 2 6 7-2v-5l4 4 10-2 3 3-1 4-4 3v4l4 1 1-2 4-4v31l-1 3 2 1-9 5-14 8-8 7-5 5-11 8-9 8-5 5-8 5-9 5-10 8-6 7-5 7 1 5 10 5-6 7-28 21-28 20-10-1-4-2h4l-1-8v-20l5-13 3-5v-4l-4-2-2-5 4-1 9 1v-8l3-9 3-1 2-6h2l1-8 9-34 4-14 2-5h8l3-6h2v-3l10-2v-2l20-6 7-1 1-1h5l1 1h8l9-3 4-3 1-5h-4l2-4 4-2 3 9 4-2-2-5 1-7-8-1-2-6 5-1z" fill="#272e41"/><path d="M780 277l2 2 6 20 6 27 6 35v45l-14-1-15-3-3-3-2-12-1-1h-24l-6 1 2 10v17l2 2 1 7-1 5h2l3 19 1 9v38l-1 14-3 14-1 7-2 2-3 14-9 26-4 8-3 7-6 10-2 3h-3l-1 3h-4v2h-10l-1-5 2-14 2-10 2-5 3-3 5 1v-2l8-1 1-2 2-1 1-4h3l3-10 3-8 2-13v-11l-2-5-1-18-4-14-3-5-2-1 3 14v5l-3 5-1 4h-2l-1-12h-2l-6-14-3-13-7-22-3-3h2l2-30 4-17 8-19 3-6 8-10 9-10 8-8 11-8 7-7 12-23 9-14z" fill="#ebc93b"/><path d="M478 41h2v2l5 1 1 3 4 1v2h5l6 4 9 2 4-1 3 3-3 1-2-1v4l3-1 18 4-1 2-5 1-3 2h-2l1 3-7 2 3 2v2h11l9-2h10l1 4 4 1 1 3h3l1-4 5-1-2 4 3 9-4 6-5 1-1 5-7 1 2 2 6-2 8 1h2l-2 6h-3l2 5-3 1 4 2v-2l7 1v-9l-3-1 2-4 2 2h4l2-2 2 5 1 6 1 3-2 1v3h3l-1 4-5 2v18l1 8 2 1-1 6 3 10 5 1h6l7 6 4 7v12l-2 6-2 7-1 17-3 15-7 15-6 9-9 10h-10l-5-2 1-13-1-14-1-1v-14l-2-3 1-5-5-2-1-2 1-3 3 1v2h2v-4l-4-2v-7h-2v2h-3l-2-8h-2l-3-3-4-2v6l-5-2-2-3-1-7-2-4-2-1-1-8-3-3-6-3-3-5v-2l-2-2 1-2h-2l1-3 4-1-1-6-1-3 2-5 5-5h2l-1-7-2-6v-8l1-5-1-3h-2v-2h-2v-5h-2l-1-4-2-1 2-5 3 1-1-4 5-2 5-1 1-3h2v-2l-11 3h-5l-3-2v-2l-3 1-1 3-10-3-4-5-5-4-2-6 7 1v-3l-6-7-3-3-5-9v-2l3-1z" class="k"/><path d="M497 219l4 1v3h2l2 5v8h-2l4 8 5 8 1 10h-2l1 4-4 2-4-1h-7v2h-3v6l3 5 1 7 3 15 3-7v-6l-1-4 5-5h6l5-5 4 1 3 8v7l1 1h6l5-1 3 2 6 12 1 5 3 7 2 12 1 7 1 1-1 7h2v2l6-4v-3h-3l-2-11-2-4-1-5-4-11-2-4-1-13 4-13 6-1 17 1 2 20 1 2 2 22v10l-3 1-2 4-3 1v2l-8 7-13 11-11 8h-2v2l-16 11-1 9v10l-3 5-7 4h-3v2l-10 4-12 5-20 7-14 3h-6l-2-2v-3h2l1-4h-2l-1-6-19-1-10-2 2-2 14-3 1-2h2v-2l4-1v-2l11-8 4-6h2v-2l8 1 2-8 3-4h2l2-6 7-1 2-8 3-5 4-13 3-9 3-7 1-8v-13l-2-4-1-7-2-11v-4h-2l-1-8 2-10 5-3 1-2h4l-4-8-1-3 3-1-2-7-6-2v-2h-10l2-2 8-1v-3h6v-3z" fill="#6b5143"/><path d="M416 431l5 1 5 5 6 7v2h2l7 9 8 9 3 5-1 3-16 4-6 4-6 2-11 6-3 21-3 10-6 31-4 13-6 11-10 19-5 8-3 5-3 3-11 23-7 23-2 10-1 12-2 4h-2l-2-49-2-10-3-56-2-16 3-12 7-16 9-16 9-11 11-13 4-5 3-6 4-6h2l1-5 7-14 5-5 8-7z" fill="#0f50a6"/><path d="M539 646l2 1-10 8-17 12-12 9-9 7-16 13-6 5h-2l-2 4-12 16-7 8-9 9-11 9-10 8-13 10-19 14-12 8-13 9-5 2-5-2-38-7-27-7-27-9-28-12-22-11-22-13-18-12-15-11-11-9-4-3 1-5 1 2 2-1 14-2 15-1 3-1-2-4-7-8-3-7v-7l6-7 2-1h8l11 7 11 8 12 9 12 8 2 10 6 7 3 2v2l3 1v3h-3v3h4v2h8l11-4 5-1h7l-1 3-10 4-13 7-12 11-8 11h-2l1 3 20 9 35 12 33 8 26 4 14 1 10 1 36-26 13-10 9-7 3-3-10-6-1-5 9-12 10-9 10-6 9-5 12-12 17-12 7-8 13-8 11-6 8-4 17-5z" fill="#c69a8c"/><path d="M780 277l2 2 6 20 6 27 6 35v45l-14-1-15-3-3-3-2-12-1-3h-33l-25-6-1-3 5-10 8-10 9-10 8-8 11-8 7-7 12-23 9-14z" class="l"/><path d="M373 423l1 2 8-2h6l2 3-5 5h-2v2h-2v2l-7 3-18 12-2 2-1 18-5 4-5 3h-2l-1 2-10 3-5 2-12 4-2 1-2-2 2-9v-7l-8 1-3 5-6 13-10 20-1 7-5 10-3 12-2 5-2 1-4 11-5 9-4 7h-2l-2 4-2 2-5-1-3-4 1-23 3-13 3-19 2-11v-9l4-7 3-11 10-13 6-4h2l1-4 8-4h6l8-2 4-2 9-3 10-5 19-7 11-3 9-5 3-3z" class="G"/><path d="M581 356l2 3-1 3 2 7 7 4 1 4h2l3 4v2l4 1 4 8 4 5 4 8v2l7-1 4-5 5 1 2 2-18 18-2 3h-2l-2 4-12 16-12 22-5 6-13 8-16 6-7 2 1 7 4 8 1 6-5 6-10 7h-2v2l-10 7h-2v2l-4 1v2l-15 10-15 12-17 12-7 5h-3v2h-2l2-4 10-8 11-8 11-9 5-4h2v-2l6-4 10-8 6-4 4-3h2v-2h3v-2l10-6 3-3-2-4-4-10-2-10 9-4 21-9 13-5 6-9 10-16 11-16 8-10 1-3-5-1-11 4-6 4-10 4-2 2h-3v2l-8 3-13 10-5 4-7 1h-8l-1-7-1-10-2-3-3-1-2-3-4-2 3-3 3-7 14-15 12-11 7-8 9-9 2-3 5-3z" class="X"/><path d="M443 39l3 1 10 13 1 2 1-1-2-5 5 5 4 6 6 8v4l-4-2-4-6-2-1 3 7 5 7v8l-1 3 3 8h-3l1 6-2 5 3 1 1 4 2 1 1 6-1 3 6 2 2 3 3 1v5h-2l1 6-1 11 1 3-2 5h-5l2 8h-2l-1 3h-3l-1 3 4 2v3h-12l-1 4-3 1v2l-8 3-7 1h-14l-1 2h-8v-2l7-5 2-5 6-4 3-9h2l-3-8-2-1-1-8 2-4 5-1v-2l-2-1v-4h2v-11l-2-5h2l1-7-5-10 1-10-1-3-5-1h-4v-3l-4-2-2-4 2-5-3-1 2-3h-2l1-4 4-1 8 4v-2h5l-2-5-2-1 2-5h2v-3l7 1v3l6 3-3-8-4-4-4-6z" class="m"/><path d="M426 631l4 1-7 3 10 1 8-2 7-1 1-2h3l-1 5-3 1 10 6 1 4 6 3 1 3-4 6-2 1-3 5-2 3h-2l-2 5-4 3-10 4-4 4-4 7-2 3h-2l-2 6-3 3-1 9-2 7-5 3 1 5-5 2v2h-3v2l-5 2h-15l-6-4-1-3 5-20 2-13 8-32 2-10-3 1 2-7h8l3-6h2v-3l10-2v-2z" class="Y"/><path d="M457 27h6l3 2 6 2h3l3 1 1 2 3 1v2l9 3-1-3-5-1v-2l6 1 7 4 5 2 3 3 5 1v2l5 1 3 2v2l7 1-1 4h-5l3 2 3-2 5 1 4 2v2h-7l7 1 11 4 1 2h7l-3 2-1 2-9 1-6 2-5 2v2l-11-1v-2l-5-1 2-2 6-1v-3l4-3 6-1-18-4h-2v-4l3-1-3-1-5 1-9-4-3-2-5-1v-2l-4-1-3-3-3-1v-2h-2l1 3-2 1-2-1 6 11v2l4 2 4 4v2l3 1h-2l-1 3-7-2 5 8 5 5 9 4 2 1 1-4h3v2l8 1 7-2h4v2h-2l-1 5-10 1 1 4-6 2v7l4 1-2 8-1 5v6l-2 3h-2v2h2v2l-6 1-3 12h-2l3 6v10l1 3-1 8-5 5-1 6-2 3-1 4h-2v-2l-13-3-1-2-8-1-4 3-3-1 3-2 1-3h12l-2-4-2-1 1-4h3l1-2h2l-2-8h5l1-6-1-6 1-13h2v-5l-4-1-3-3-4-2v-9l-3-1-1-4-2-1 1-6-1-2 1-3 2-1-3-7 1-3v-8l-7-10v-4l3 1 5 7 2 1-3-7-6-7-3-5-3-4 1-2 6 3 6 2v2h2l-2-6-4-6-3-3 4 1 4 4h2l-2-4-10-9-3-3z" fill="#72594a"/><path d="M768 399l3 2 15 3 12 1 2 1v32l-7 41-8 34-12 35-11 25-11 22-10 17-11 17-10 14-10 13-13 15-9 10-22 22-8 7-2 1-2-1 1-6 5-5 1-4-15 12-10 6-5-1-3-4 2-1 3-5 8-1 8-6 7-1v-2l7-4h2l1-3 5-3 5-5 15-14 8-8 1-2h2l2-4 6-8 5-5 9-11 13-19 9-15 3-6 10-19 2-5 3-12 2-7 2-9 1-8 3-22 1-4v-11l1-19v-9l-2-10-3-45z" fill="#d9a81e"/><path d="M656 543h9l2 2-15 15-7 11-6 7-17 12-14 10-12 8h-2v2h-2v2l-10 6-3 3-9 6h-2v2l-11 7-11 8-9 4v-3l4-6 1-9 7-16 3-9 10-16 6-10h2l1-3 10-8 12-6 26-9 10-4 11-3z" fill="#2f3950"/><path d="M535 311l4 2 2 6 2 1 2 8v2l2 6 2 12 1 3h5l-2 4-9 8-5 3h-2v2l-16 11-8 4-6 5-5 5-9 5-11 8-13 8-3 2-14 1-2-1v-2l-18-3v-2l9-3 1-8 2-3 10-4h3v-2l6-5 3-6 7-3 3-7h2l2-6 3-5 6-16 3-10 4-9 3-3 1-2h2v-2l4-1v16l-5 10-3 7-6 15-2 12h7l2-5 3-3 2-5h2l1-5 5-12 3-7h2l3-11 3-1 2 2 5-1 3-8z" class="C"/><path d="M661 694l2 1-4 6-3 3-2 6 2 1-9 8-20 15-24 16-19 11-16 8-16 7-21 6-9 1 1-3h-2v-2l5-3 1-1-6-1v-2h-2l-1 3-8 2-5 2-2-4 2-3h2l2-4h2l1-4h3v-2l8-5 2-2 1 1 4-5 3-2h3v-2h4v-2l9-4 11-6 6-4 5-1 8-1v-2l7-3 2-3h4l-1 5-3 1 2 3h4v-2l6-1 1-4 6-2 2-2 7-3 5-1v-2l9-2 2 2 6-1 13-9z" class="O"/><path d="M462 429h29l8 1 5 2 5 1-2 4-9 9-7 8-13 14-9 11-11 13-11 14-14 17-11 14-3 1 3-18v-10l-3-17v-6l18-13 14-3-2-5-8-10-7-8v-2h-2l-7-9-3-5 1-1z" fill="#fafbfa"/><path d="M539 646l2 1-10 8-17 12-12 9-9 7-16 13-6 5h-2l-2 4-12 16-7 8-9 9-11 9-10 8-13 10-19 14-12 8-13 9-5 2-5-2-38-7-27-7-27-9-28-12-22-11-15-9 3-1 2-4 4-4h3v-2l9-6 13-5 1-1h6l5 2v2h8l11-4 5-1h7l-1 3-10 4-13 7-12 11-8 11h-2l1 3 20 9 35 12 33 8 26 4 14 1 10 1 36-26 13-10 9-7 3-3-10-6-1-5 9-12 10-9 10-6 9-5 12-12 17-12 7-8 13-8 11-6 8-4 17-5z" fill="#c6a699"/><path d="M539 77h10l1 4 4 1 1 3h3l1-4 5-1-2 4 3 9-4 6-5 1-1 5-7 1 2 2 6-2 8 1h2l-2 6h-3l2 5-3 1 4 2v-2l7 1v-9l-3-1 2-4 2 2h4l2-2 2 5 1 6 1 3-2 1v3h3l-1 4-5 2v18l1 8 2 1-1 6 3 10 5 1h6l3 3-1 4v2l-5-1-4-2v-4l-7 1-5 4-4 12-5 7h-4v8l-2 4-3-1-1-6 4-1v-9l1-3 2-1v-3l-4-1-1-4-4-1v2l-4 1v-15l-4 1-1-4-3-1 2-11-2-1v-2h-2v-3h-2l-2-8 4-1 3-3 4-8-3 3h-3v2h-3l1-5 1-6-5 1v-3l2-1-1-9 3-2v-5h-2v-2h-3l-1 4-9 1 4-10h2v2h4v-2l4-3 2 1 1-3-2-1-7 1-4-1v-2l7-2 2-1 1-3h-2v-2l-4 1v-3z" class="K"/><path d="M447 577l5 1 2 4 9 4 11 6 2 2v3l-4 1 1 5 8 2v7l2 6-5 1-3-8-4 2-2 3h4v5l-7 5-7 2h-8l-1-1h-5l-1 1-14 3-13 3v2l-4 2h-6v3l-3 3-2 4-5-1-4-5v-14l1-26 3-7h2l2-4 4-3 20-2 15-5 4-3z" fill="#a0a6ac"/><path d="M464 207l2 1v2l15 3v2l6-1v2l4 1-1-5 1-2h2v-2h14l1 3 7 1 7 5 2 10 3 1v3l-4-1-3-1-1 5 5 1 1 2 7 7 1 6h2v2h3l2 5 2-1 3-1 2 6 3 1 5-1 2 4 2 7 1 5-3 1h-6l-2 10-1 7 2 12 3 6 3 8 1 6 2 7v5h3l1 3-5 4h-2v-2h-2v-7l-1-3-2-10-2-11-3-4-1-5-2-5-3-6h-2v-2l-5 2h-6l-2-2v-7l-3-8-4 1-4 4h-6l-4 4 1 10-3 12h-1l-2-10-2-12-1-2 1-3-2-1-2-4 1-6h3v-2l8-1 5 1 1-5h2l-3-12-6-9-1-5h2l-1-8-1-5h-2v-3h-7v3l-4 1-2-1v3l-10 3-5 2-1-2v-4l-5-1v-2l-9 1-6-1-2-3 1-4h2l-1-3-5-1-3 1-3 4-4-1 1-2-8 3-2 2v-4l4-4h11l3-2h9l9 1z" class="Z"/><path d="M579 176h7v4l4 1 5 2-1-5h4l6 9v12l-2 6-2 7-1 17-3 15-7 15-6 9-9 10h-10l-5-2 1-13-1-14-1-1v-14l-2-3 1-5-5-2-1-2 1-3 3 1v2h2v-4l-4-2v-7h-3v-2h2l1-4 3 1 1 7h2l2-11 4-1 5-8 3-10z" fill="#6a4d3e"/><path d="M366 272v3l-2 3-4 2-4 4-2 4h-2l-2 9-1 6 2 11 4 11 4 4v2l4 1 1-3 9-1v2h3l3 6 1 1v5h2v6l2 3 3 1 1 6 3 1v5l7 2 7 3v2l6 1h16l2 8 1 6-2 6-13 4-5 1-7 2h-8l-1 3-4-2-12-14-10-11-14-20-9-13-8-16-5-16v-12l5-1 7-1 1-5 4-7h2v-2h5l1-3z" fill="#e6bead"/><path d="M391 483l6 1 3 5 3 8 1 4v22l-5 23-4 8-8 6-1 1-2 9-7 10-4 10 1 4v6l-15 29-6 19-5 20h-1l-1-36-1-8v-10l2-16v-7l-2-8v-7l2-7v-3h2l1-4 13-8 7-2 3-1 2-4 5-5 2-4h2l1-5 4-13 1-27-1-1v-7z" fill="#2980e9"/><path d="M728 384h37v1l-24 1-6 1 2 10v17l2 2 1 7-1 5h2l3 19 1 9v38l-1 14-3 14-1 7-2 2-3 14-9 26-4 8-3 7-6 10-2 3h-3l-1 3h-4v2h-10l-1-5 2-14 2-10 2-5 3-3 5 1v-2l8-1 1-2 2-1 1-4h3l3-10 3-8 2-13v-11l-1-16v-26l-1-3 2-4 1-23-3-12-1-12-2-14 5-2 1-11z" fill="#d9a81d"/><path d="M468 20h10l14 4 16 7 20 12 18 12 14 10 8 8v2h2l3 7 1 6 5 4 2 3v9h2l3 10 2 1v35l2 24-6 1-3-2-3-11 2-5-3-1-1-12v-16l5 1 2-5h-3l-1-4h3l-3-6-1-6-7 1-1-2-1 3h3l-1 10-7-1v2h-4l-1-3h4l-2-5h3l2-6-7 1-5-1-5 2-1-3 7-1 1-5 5-2 3-5-2-6-1-4h2v-2l-4 1-1 4-3-1-2-3h-4v-5l-20 2 1-2 6-3 9-2h5v-2h-4v-3l-11-3-8-1 1-2 7 1-1-2-4-2-5 1-3 1-4-4h7l1-3-7-1v-2l-4-2-4-1-1-2-5-1-3-3-10-4-7-3v2l5 1 1 2 5 2-4 1-10-5-1-2-4-1-1-2h-3l-9-3-5-1-1 2 4 2 10 9 1 4-5-1-3-4h-2l5 5 3 4v5h-2l-1-2-9-3h-3l-2-1-4-8 7 1-4-5-7-4-8-3v-2l4-2h10l2-3 6 2v-2l8-1z" fill="#8b837b"/><path d="M441 200h20l2 2v4l1 3h-18l-5 2h-9l-4 4 1 1 3-2 6-1v2l4-1 4-2h4v13h4v2l9 2 2 6 1 2 9-1 2 3-1 5-2 5 1 2-2 1-1 9v6 2l1 7-3 8h-2l-1 4-4-1-9-6-8-4-7-2-10-9-8-4-1-4 3-5 1-5 3-11-4-7-1-2v-10h-3l1-5 5-6 8-5z" class="a"/><path d="M366 123l9 2 2 2 12 3 7 2 4 1 2 4-2 10-2 6 1 9 1 1 2 11h7l1 4-2 4-1 5-4 2v-2l-6 4-4 2-1 3-5 3-2-2-1-4v-9h-2l-1 6-5 2h-6l-2-4-10-2-10-4v-2h-2l-1-6 1-2h2l2-5 9-3-4-2-1-4 2-12-2-4v-3h-2v-8l6-3 2-4z" class="n"/><path d="M271 718l11 2 14 3 8 8-3 9-2 3-2 12-7 2 1 7v4l4 6 5 3v2l6 1-4 2-9-1-15-4-32-11-20-9-1-4h2l2-5 12-13 7-6 19-9z" class="b"/><path d="M419 190l2 1-2 7-3 4h-2l-2 6-4 4-3 1-1 8-1 26-3 10 2 3 1 16-5 13-4 6-1 5 12 4h20l7-4 5-2 4-1v-2l5-5-1-10-5-4 5 1 8 4 3 4 3 1 1 4 4 1 8 4 6 8 2 4v10h-2v2l-3 1-3-2-5 11-7 10h-2v2l-5 5-8 3h-4l-6 2 1-3h3l1-3 3-2v-2l5-2 4-6-1-2-10 2v-2h-2v-2l3-2h-7l-2 2-1-1h-9l-3 1-21-2 1-2 12-2 4-2v-3l2-1v-5l-6-3-11-3-8-3-10-3 1-4h4v-2l2-1 3-10 2-9v-21l3-6v-22l2-1 1-10-2-1v-7h4l4-1 2-5 3-4 3-1z" fill="#947766"/><path d="M547 534l5 1 2 7 9-2 2 2-14 18-3 7-5 5-2 4h-2l-2 6-4 5-3 7-3 3-3 6-4 6-7 2-1 10-2 5-6 1-1-5 3-3h2v-6l-12 2-5-5-3-12-8-6-5-3-4-6-1-2 2-3 5-3 9-1 12-2h14l6-4 5-7 3-2 4-9 3-2h5l1-9 4-3z" class="Y"/><path d="M421 67l2 2-1 2h2l-1 3 2 1-1 7 5 4 1 3 5-1 4 2 1 8-1 5 3 5 1 4 2 2h-2l-2 7 2 4v9l-2 5 1 4-5 2-2 6 3 1-2 4 4 2 1 7h-2l-2 9-5 4h-2l-1 5-6 5h-2v2h-2l-1 3h-2l-1 3-3 1-3 4-2 5-4 1-3-1v6l2 3-1 10h-2v22l-3 6v23l-2 7-3 10-3 1v2l-4 1v6l5 1 4 2-4 3-6-2v-2h-2l-1-5-2-1 1-4 6-1v-2l3-1 2-5v-4h2l-2-10-1-3 2-7 3-18v-6l2-3v-9l1-4-1-14-1-5 3-3h2l2-1 3 3 2-7 9-5 2-1 1-3 4-1 3-15 1-9v-4h-2l1-4 3-3 1-7-2-4v-3h2l-1-3 2-3h3v-4l-4-1v-2l-3-1-3-13-4-3h-5l-1-6-6 1-1-2v-7l-2-1v-2l-7-1-2 2h-6l-10 7h-2l-1-5 4-3 1-3h3l-1-6-6 2-3 3-8 6-4-2-1-2-3 2h-12l-6 3 2-4 5-6 4-1v-2h6l5-2h6v2l6-3h13l1 3 4 1 5-3 8 4 2-2v-2l7-2 1-4 1-3z" fill="#d4ab98"/><path d="M435 187l2 2h-3l-1 3-7 4-1 8-4 2-3 5-4 1-2 4h-2v11h2l3 9 4-1 1-2v-15h2l1 10 4 8 1 3-4 11-1 5-2 5 3 3 6 3 10 9v2l5 2 2 7v5l-4 4h-2v2l-5 3-7 3-4 2h-20l-12-4-1-2 3-7 6-12 1-4-1-16-2-4 3-9 1-26 2-10h5l2-6 6-7 3-8 1-1h7z" fill="#7c5d4d"/><path d="M578 332l2 1v2h2v-2h2l2 7v7l-7 11-13 15-11 11-6 7-8 7-8 8-11 14-4 4-8 1-5-1h-16l-24 3-12 2h-8v-1l23-5 22-8 11-5 6-1v-2l7-3 4-3 1-8v-11l3-5 12-8 3-1v-2l9-6 14-12 8-7 3-1v-2z" fill="#878d96"/><path d="M763 305l1 2 2 1 1 5-2 7v12l-1 1v6l-2 3v18l2 18 1 6h-33l-25-6-1-3 5-10 8-10 9-10 8-8 11-8 7-7z" fill="#3b5b87"/><path d="M666 536h7l-1 4-5 4h-11l-19 4-16 5-19 7-16 6-10 7-5 4-6 8-6 11-7 11-4 12-5 11-1 9-4 6-4 4-3 1h-8l2-6v-12l1-9 2-9 6-15 6-9 7-12 3-5 8-11 4-6 8-7 4-5 5-3-2 5-6 10-3 9-5 12-1 4 5-3 4-7 14-10 21-12 13-5 10-3 31-3z" fill="#04060c"/><path d="M661 420h6l11 7 18 13 8 24 1 9-15 3-8 3-15 4-7 4-10 4-9 5h-8l1-3 11-8 13-6h3v-2h3v-5h-2l-1-10v-2l-8-3-6-2-1-4 6-9 14-7 1-1v-5l-5-2-3-4v-2z" fill="#303951"/><path d="M369 269l2 1-2 10-4 8-5 7-2 5-2 9v8h2l1 4h2l1-2h2l2 5 4 1 5-1 7 12 3 1v2l5-2 14 1h16l4 1 1 3-5 8-12 2 2 10 3 1 1 3h6l2 1v-4h2l1-3 4 1-2 3h-4l1 3 10 2 6 2 7-2 4-2 2 3-1 3h-2v2l-2 1-2 9-4 5-5 4-17 6-16 4 1 5-5-2-6-4 1-4 12-2 6-2 9-2 1-1h5l1-9-2-5v-5h-18l-4-2-1-2-12-3-2-4v-3l-2-1v-2l-2-1 1-3-4-1-2-3 1-6h-2l-2-6-2-3v-3h-3v-2l-7 2h-2l-1 2-4-1v-2l-3-1-4-7-3-10-1-11 4-12 2-1 3-5h2l2-4h3l2-4z" class="o"/><path d="M430 443l2 1v2h2l7 9 8 9 3 5-1 3-16 4-6 4-6 2-11 6-3 21-3 10-6 31-4 13-6 11-10 19-5 8-3 5-1-2 2-4 1-9-2-1 5-12 7-10 1-7 8-7h2l2-5 4-15 2-11v-22l-3-9-4-9-5-3 6-16 5-6 4-3 5-2 3-1 1-3 12-3 3-1z" fill="#0f4085"/><path d="M666 547l1 4-1 17-1 13-4 17-12 24-6 9-5 3h-6l-7-11-2-10v-7h2l-2-5-7-1h-3l-2-1 5-6 16-11 10-8 7-11 10-9z" fill="#f4d844"/><path d="M451 221l7 1h9v2h5l1 5 1 1 10-2 10 4 2 2 1 7h-4l4 6 1 5h-4l-1 3-4 2-2 10v8h2l4 18v6l2 2v13l-2 10-3 7-2 7-5 15-3 5-2 6-7 2-2 5-4 4-3 8-6 1v-2h-2v2l-4 4-4 5-6 4-3 1v2l-4 1v2l-2 1 1 2-16 3v1l27 3 2 4-1 2h2l-1 4h-2l2 6h-15l-8-2-2-6-4-2-6-7-4-4v-2l15-4 8-1 12-8 7-6 3-6 5-5 8-4 1-2h2l2-13 4-4 6-5 2-6h2l1-7 1-3h2v-13l3-1-1-3v-7l-2-6-6-5-3-5v-19l-1-3v-3-4l2-2v-11l1-2h4l-1-6-1-4-2-1v-2h-2v-2l-6 3h-5l-2-6 1-1-7-4-8-2z" fill="#ae8977"/><path d="M443 39l3 1 10 13 1 2 1-1-2-5 5 5 4 6 6 8v4l-4-2-4-6-2-1 3 7 5 7v8l-1 3 3 8h-3l1 6-2 5 3 1 1 4 2 1 1 6-1 3 6 2 2 3 3 1v5h-2l1 6-1 11 1 3-2 5h-5l2 8h-2l-1 3h-3l-1 3 4 2v3h-12l-1 4-3 1v2l-8 3-7 1h-14l-1 2-2-2 4-2 14-3 7-6v-2h2v-2l3-1 2-4 1-3 3-1v-5l1-3v-4h4v-2l4-1-3-4v-4l-5-2-5-3-2-6 2-1-1-3v-7l2-5-2-5v-7-3l-6-12 1-3h-3l-1-5 3-1-1-3 2-1v-7l6 2 1-5h-2l-1-5-5-1-2-5-4-4-4-6z" class="p"/><path d="M661 694l2 1-4 6-3 3-2 6 2 1-9 8-20 15-24 16-19 11-16 8-16 7-13 4h-7l3-2 13-8v-3h2v-4l9-6 11-7 4-3h3v-2l7-2 1-3 4-1v-2l7-4 7-6 10-6 6-3 3-3h3l1-3 5-1 5 1 11-7z" fill="#ac1421"/><path d="M461 63l3 1 5 7 2 1 1-4 5 5h3l2-3 2 5 3 3 1 7v4h5l3 4 3 1-2 7-1 5-2 2-2 12v9h2l-1 9-3 4v7h2l-1 3 3 6v3h-2v5h-2l-2 9-7 6-6 1-6-2-4 1-3 2-3-1 3-2 1-3h12l-2-4-2-1 1-4h3l1-2h2l-2-8h5l1-6-1-6 1-13h2v-5l-4-1-3-3-4-2v-9l-3-1-1-4-2-1 1-6-1-2 1-3 2-1-3-7 1-3v-8l-7-10z" fill="#816455"/><path d="M462 429h29l8 1 5 2 5 1-2 4-9 9-7 8-13 14-5 6-7 2-6-4-5-9-4-11-1-7-1-5-5 1-3-6-11-2-1-2z" fill="#f3f4e7"/><path d="M778 281l3 1-2 10v13l2 53v24l-3 12 1 3-1 4 3 1v1l-10-1-3-3-2-12-3-9-2-18v-18l2-3v-7h2l-1-6 1-10 1-4-2-5 1-6 10-16z" fill="#1d294b"/><path d="M754 385h11l2 2 1 4 3 60v31l-2 23-3 20-3 12-2 11-2 3-3 10-5 13-3 8h-2v2l-4-1 1-2-1-3 4-8 3-10 2-10 5-18 3-14 2-18 1-15v-18l-1-9-2-28-2-11-1-17-3-15z" fill="#f4d943"/><path d="M383 79l2 1 1 4-1 2h-3l-1 4-4 2 1 5 12-8h6l4-2 5 2v2l3 1v9l6-1 1 6 6-1 4 4 3 13 2 1v2l5 1-1 4h-3l-1 6h-2l3 9-2 7-3 2-1 3h2v2l2 1-2 5-1 12-3 9h-2l1-7 1-3-1-6v-6l-3-3v-2l-5 2-4-6v-2l4-1-1-6 1-2h2l-1-5 2-2 4 1 1 3h-2v2l-3 3v3 2l3 1 7-7-1-5-3-3-1-5-5-10-2-2h-7l-4-8v-2l-4-1-3-6-13 1h-15l-7-4-15-5-8-1 4-4 5-2h11l4-2v3l4 1 8-6h2l1-3z" fill="#deb7a3"/><path d="M375 29l5 1 4 1h6l1 4 2 1v3h2l2 6 4 4v2l5 1 5 6 3 7-1 3-5-2 1 4-1 3h-7l-2 2-10 1-5-3h-14l-2-2-8-1-2 1-3-3 2-4h10l1-4h2v3h3l1-8-2 1-1 3h-2l1-7h-2v2l-2-1-2-5h-6l-1-6h6v-2l-6-1 2-4 7-3 7-2z" fill="#8f867e"/><path d="M264 717h7l-1 3-10 4-13 7-12 11-8 11h-2l1 3 20 9 35 12 33 8 26 4 14 1 9 3v2l-7 3-5-2-38-7-27-7-27-9-28-12-22-11-15-9 3-1 2-4 4-4h3v-2l9-6 13-5 1-1h6l5 2v2h8l11-4z" fill="#fafaf9"/><path d="M566 377l3 4v3h8l6 4 5 5-2 5-7 13-6 7-7 4h-15l-6 1-6-2-12-2h-2l1-5 9-11 12-12 5-2 10-9z" fill="#0f121f"/><path d="M356 38l7 2v2l-5 1v5h6l4 4h2l-1 7h2l1-4h2l1 5-2 3h-3v-3l-2 1-1 3-10 1-1 4 3 1 3-1 7 2 1 1h14l5 3 10-1 2-2 7 1v-7l5 1v-2l3 1 1 5-2 4-4 1-1 2-2-1 1 3-4 2-4-3-4-1-4 3-5-2v-3l-13 1-3 2h-3v-2l-10 2-3 1-4-1v2l-5 3-8 11-4 9-3 5h-1v-8l1-3v-8l-1-8 1-2-2-1v-8l7-14 7-9z" class="E"/><path d="M768 399l3 2 15 3 12 1 2 1v13l-3 5-1 8 1 11-4 8-3 2-3 9-5 8h-2l-1 7-2 1-1 12v7l-1 4h-2v-13l1-19v-9l-2-10-3-45z" fill="#d9a81d"/><path d="M217 641h2v34l2 6 8 2 13 7 12 6 9 6 4 1 1 3 5 2 5 5-1 5h-13l-13 4-7 1-4-1v-2h-4v-3h3l-1-3-7-6v-2l-3-1-3-6v-7l-4-2-9-6-11-8-7-5v-2l5 1 5 3 6 1 3-2-1-8-1-7v-10l4-4h2z" fill="#262e42"/><path d="M391 254h1v8l-2 8 2 4v8l-4 10h-3v2l-6 1 2 10h2v2l6 1 2-2-7-3-1-3 17 4 3 2 9 2 7 4v5l-3 1v3l-7 4-9 1-1 1 23 1 1-1h8l1 6-1 1h-8-3l-1 1h-19l-9-4-5-5 1-1-14-4-5-3-6 1-1 3-3-3v-2h-2l-1-7 5 3 2-4 6-3v-5h2l1-3h2l1-4 5-3 9-1v-13-3l-1-4 2-6z" fill="#c8a89b"/><path d="M473 364h4l-2 4-4 6h-2l-1 4h-2l-2 6-5 5h-2v2l-13 5-2 9-2 3-8 1v2l15 1 3 2v2l16-1 16-10 17-12 6-3 4-5 7-5h4v18l-3 5-7 4h-3v2l-10 4-12 5-20 7-14 3h-6l-2-2v-3h2l1-4h-2l-1-6-19-1-10-2 2-2 14-3 1-2h2v-2l4-1v-2l11-8 4-6h2v-2l8 1 2-8 3-4h2l2-6z" fill="#736961"/><path d="M468 20h10l14 4 16 7 20 12 15 10 1 3-2 1 1 2 6 2 3 4-1 2-4-1v-3h-4l-1 2h4v2l-11-3-8-1 1-2 7 1-1-2-4-2-5 1-3 1-4-4h7l1-3-7-1v-2l-4-2-4-1-1-2-5-1-3-3-10-4-7-3v2l5 1 1 2 5 2-4 1-10-5-1-2-4-1-1-2h-3l-9-3-5-1-1 2 4 2 10 9 1 4-5-1-3-4h-2l5 5 3 4v5h-2l-1-2-9-3h-3l-2-1-4-8 7 1-4-5-7-4-8-3v-2l4-2h10l2-3 6 2v-2l8-1z" fill="#817c78"/><path d="M337 190l20 2 12 6 1 3 5 2 1 2 5 2v3l3 1 1 7-1 2h-3v6l-4 4h-2l1 4-6 4-7-1v-5l-4-4-4-2-2-5-7 2-3 3-3 2h-3l1-5 9-8 10-3 12-1-10-3-6-1h-12l-3 3-1 2h-2v6l-3 2h-3l-3-10v-9l3-6h2l2-4z" fill="#c29788"/><path d="M393 653h2l-2 16-4 12-4 18-2 14-4 15 2 4 4 2 7 1v5l-13 6h-2v2l-5 4-4 7-3 15v10l1 5-2 3-10-1-4-2h4l-1-8v-20l5-13 3-5v-4l-4-2-2-5 4-1 9 1v-8l3-9 3-1 2-6h2l1-8 9-34 4-12z" class="c"/><path d="M447 210l5 1 1 4-2 1v7l8 1 8 5v6l7-1 4-1v2h2v2l4 2v9h-4v14l-3 1v4l2 1-1 3 1 2v19l2 5 3 1 3 3 2 4 1 3v10l-2 1-1 13h-2l-1 5-8 10-3 1-1 2h-3v-7l1-2v-6l-3 2-4 8h-2v2h-6l3-8 4-4 5-7 4-10h3l4 1v-2h2l-1-10-5-8-2-4-5-2-7-3-1-4-4-1-2-4-5-1-5-4 6 1 15 10h3l1-3h2l1-7 1-4-2-6 1-4v-8l3-5v-4l2-3-1-6-9 1-3-5v-3l-9-3v-2h-4l-1-10 1-3-7 1 1-2z" class="P"/><path d="M478 41h2v2l5 1 1 3 4 1v2h5l6 4 9 2 4-1 3 3-3 1-2-1v4l3-1 18 4-1 2-5 1-3 2h-2l1 3-7 2 3 2v2h12v3l4-1v2h2l-1 4-4 2h-5v2l13-1 2 3h-2l-1 2-6 2v2h-4v-2l-11 3-1-5-6 2-2 1 2-5 3 1-1-4 5-2 5-1 1-3h2v-2l-11 3h-5l-3-2v-2l-3 1-1 3-10-3-4-5-5-4-2-6 7 1v-3l-6-7-3-3-5-9v-2l3-1z" class="Q"/><path d="M554 106l10 1h2l-2 6h-3l2 5-3 1 4 2v-2l7 1v-9l-3-1 2-4 2 2h4l2-2 2 5 1 6 1 3-2 1v3h3l-1 4-5 2v18l1 8 2 1-1 6 3 10 5 1h6l3 3-1 4v2l-5-1-4-2v-4l-7 1-5 4-3 7-1 2h-2l1-5v-2l-2-1 1-6 1-2h-2l2-5 1-3h-3l-1 3-5-1-1-6 1-4h2v-2l4-2v-3l-6-1h-3l-3-6 1-4 5-2-2-7 2-2 1-5-4 3h-2l-2 6-4 1-1-3h2l1-6 4-3v-4h-3l-1 3-1-4v-3l4-5-2-2z" class="d"/><path d="M370 345l6 2 5 8 1 4 5 7 4 5 2 4 6 3 7-1 4-2 10 1 3 5-1 4-5 5-9 3-5 2-3 3h-7l-3 2-12-14-10-11-11-16 2-5h7v-2h2z" fill="#e6c6b3"/><path d="M437 738l2 1-7 7-1 5 1 2h-2l-1 4-3 6-5 9-3 1v3l-4 4h-2v4h-2v2h-2v3l-3 2h-4v5l-5 1 1 3h-40v-3l10-6 17-12 14-10 13-10 12-9 11-9z" fill="#d43845"/><path d="M614 507l2 2-1 2 8 8v5l-2 4 5 5-1 4-7 3-16 6-3 2h-4v2l-8 4-5 5-1 4-4 2-4-2h-2l-1-3 3-9 7-8 9-13 3-5 8-7 6-6h2v-2z" class="Y"/><path d="M447 577l5 1 2 4 9 4 11 6 2 2v3l-4 1 1 5 4 2v3h-6l-5 1 1 4h-2l-2-4h-9l-3-3 1-2h-2l-1 2-1-5 3-2v-5h-2v3l-5-1-1 3-6 1-4-4-3-4-7-1v6l-6-1-14 2-5 5-1 9h3v3l6 1 1 6h-2l-1-4-5 1-4-2-1-6v-9l3-7h2l2-4 4-3 20-2 15-5 4-3z" fill="#9aa1a8"/><path d="M457 27h6l3 2 6 2h3l3 1 1 2 3 1v2l9 3-1-3-5-1v-2l6 1 7 4 5 2 3 3 5 1v2l5 1 3 2v2l7 1-1 4h-5l3 2 3-2 5 1 4 2v2h-7l7 1 11 4 1 2h7l-3 2-1 2-9 1-6 2-5 2v2l-11-1v-2l-5-1 2-2 6-1v-3l4-3 6-1-18-4h-2v-4l3-1-3-1-5 1-9-4-3-2-5-1v-2l-4-1-3-3-3-1v-2h-2l1 3-2 1-2-1 6 11 2 6h-2l-1 3-5-1-1-2-3-1-1-3-6-3-3-4 7 1 1 3h2l-2-6-4-6-3-3 4 1 4 4h2l-2-4-10-9-3-3z" class="F"/><path d="M415 263l1 2 4 1v5l-9 11 3 1-2 1 1 2h7l1 1 4-1v-7l3-1 1-3h2v-3l5 1 4 2v2l5 2 2 7v5l-4 4h-2v2l-5 3-7 3-4 2h-20l-7-4-1-4 5-7 6-18v-3z" fill="#6b5243"/><path d="M157 696h14l3 4-3 6 5 1 9 8 2 4 5 3 3 3 6 2h5v2l2 1h-2v2l-5 3-4 5-7-1-21-14-15-11-11-9-4-3 1-5 1 2 2-1z" fill="#d3ab99"/><path d="M716 380l8 1 8 2-4 1 3 9-1 11-5 2 3 22 1 10 2 9-1 20-2 5 1 5-3 1-1-9-3-4-2-9-1-9-2-8-1-8-1-5-1-8v-8l-3-10 1-7v-7z" fill="#deb542"/><path d="M423 591h7l5 6v2l8-1 1-2 5 1v-3h2l1 5-3 3 1 2h2v3l6 1h5l2 2v3h2l-1-4 7-2 4 1-1-4 5 1v7l2 6-5 1-3-8-4 2-2 3h4v5l-7 5-7 2h-4l1-6 2-3 6 1-1-6-2-1v2l-6 1-2-2-5-1v2l-10-1v-3h-13l-4-1v-2h4l-1-3-2 2-2-3-1-3h-3v2l-4 1v3l3 1 3 6h-5l-1-1-14-2v-10l5-4 17-2 3 2z" fill="#858a92"/><path d="M554 277h10l10 1 2 20 1 2 2 22v10l-3 1-2 4-2 1v-2h-3v-11l-1-7-4-2-1 4-4 1-2-8-1-13-5-1-2-5 2-5 2-10z" class="q"/><path d="M735 340l2 1-5 6 1 5 2 1v2l2 1 2 7 3 1 1-5 5 2 2 6 2 10 1 2h-2v2l2 1-3 1h-17l-13-2-13-3-1-3 5-10 8-10 10-9z" fill="#323e67"/><path d="M656 543h9l2 2-15 15-7 11-6 7-8 5v-7l3-7-2-2-6-1v-4l-2-2-9 1v-2l-10 4-8 2-9 3-10 5-8 8-6 10-8 11v-3l8-14 4-6h2l1-3 10-8 12-6 26-9 10-4 11-3z" fill="#282f41"/><path d="M388 742l4 1 3 9 4 7 2 6-13 10-17 12-6 4-1-7v-10l3-15 6-9 4-2v-2z" fill="#2e3851"/><path d="M421 346v3l-5 2-8 1 2 10 3 1 1 3h6l2 1v-4h2l1-3 4 1-2 3h-4l1 3 10 2 6 2 7-2 4-2 2 3-1 3h-2v2l-2 1-2 9-4 5-5 4-17 6-16 4 1 5-5-2-6-4 1-4 12-2 6-2 9-2 1-1h5l1-9-2-5v-5h-18l-3-5 1-4-5-2-2-5-5-1-2-5 6-2 10-1h8z" fill="#cba89a"/><path d="M504 314h2v16l-3 3v-3l-3 1-1 2-3 1-1 9-1 5-3 2-1 6h-2l-2 9-3 4h-2v2h-2l-2 4-5 6-9 9h-3l-2 5-4 8-3 1v5h5l2 1 13-2 18-10 12-8h3v-2h2l-2 4-8 4-14 10-13 8-3 2-14 1-2-1v-2l-18-3v-2l9-3 1-8 2-3 10-4h3v-2l6-5 3-6 7-3 3-7h2l2-6 3-5 6-16 3-10 4-9 3-3 1-2h2v-2z" class="R"/><path d="M799 419h1v19l-7 41-8 34-8 24-2-2 1-11 3-9-2-9-3-5 1-7v-10l2-7h2l1-7h2l2-6 3-3 3-9 3-1 2-5 1-9-1-7 2-9z" fill="#cc9839"/><path d="M328 226h1l1 27h4v-2l4-3h6l1 3 10 2 5 4 5 10-3 1 1 3-5 2-3 3-4 3-7 2-2-1-1 3-4-1v-5l-6-2-1 8h-1l-1-11z" fill="#eccfbf"/><path d="M539 646l2 1-10 8-17 12-12 9-9 7-16 13-6 5h-2l-2 4-12 16-7 8-9 9-7 6h-3v-2h-2l1-3h2l1-3 8-7 1-2 5-2 8-7 7-10h2l2-4 1-3-7 3-3-1 3-4 8-2h2l5-6 7-4 5-4h2v-2l5-2 1-3h2v-2l-8 2v2l-4 1 1-5 8-7 13-7 10-6z" fill="#e9ccbc"/><path d="M488 331h1v6l-4 9-3 9-4 9-7 2-2 5-4 4-3 8-6 1v-2h-2v2l-4 4-4 5-6 4-3 1v2l-4 1v2l-2 1 1 2-16 3v1l27 3 2 4-1 2h2l-1 4h-2l2 6h-15l-8-2-2-6-4-2-6-7-4-4v-2l15-4 8-1 12-8 7-6 3-6 5-5 8-4 1-2h2l2-13 4-4 6-3 3-1 3-10z" fill="#93867b"/><path d="M341 93l11 2 8 4 4 1 5 3h18l10-1 4 7 3 1 4 8v2l7-1 5 6 4 9v4l3 2 1 6-5 5-4 2-4-3 2-3v-3l3-1v-2h2l-2-3-5 1v-5l2-1-1-4-3-5-9-4-5-4-6-2h-5l-4 2-4-2-8-1-5-2v-2l-5 1-4 1-7-4-1 4h-2l-1-3h2v-2h-2v-5l-4-2-5-2 1-3z" fill="#e6bead"/><path d="M453 72l3 3v4h2l4 7v5h-2v5l3 1 1 6-1 5 5 7v6l-1 3 2 1v3h2l2 5 3 3v3l-2 2 1 9 2 1-1 6h-4v6l-7 2 3 9-4 1-5 1-3 3-5 1v4l-13 4h-8l-1 2-2-2 4-2 14-3 7-6v-2h2v-2l3-1 2-4 1-3 3-1v-5l1-3v-4h4v-2l4-1-3-4v-4l-5-2-5-3-2-6 2-1-1-3v-7l2-5-2-5v-7-3l-6-12 1-3h-3l-1-5 3-1-1-3 2-1z" class="H"/><path d="M471 77l2 1v2l5 5 1 4-1 12v3l-3 3-1 2 5 1 1-1 1-4 2-1 9 6-2 11-1 9-2 2v7l-2 6 2 4-1 2 1 5-1 5h-2l-1 5-2 4-2 2-2 3 1 5h-12l-4 3-3-1 3-2 1-3h12l-2-4-2-1 1-4h3l1-2h2l-2-8h5l1-6-1-6 1-13h2v-5l-4-1-3-3-4-2v-9l-3-1-1-4-2-1 1-6-1-2 1-3 2-1-3-7 2-10z" class="I"/><path d="M198 674l6 3 12 9 9 6 2 10 6 7 3 2v2l3 1v3h-3l-1 2h-6l-1 1h-6v-2l-12-2-3-2v-7l1-3v-3l-3-1-1-3-3-1-2-8 2-4-6-7z" class="e"/><path d="M339 625l3 4 1 3 1 18v47l-3 17-2 11 1 5 13 1 1 2-7 3-6 2h-5l-1-5-1-14v-15l1-4v-49l1-13 2-11z" class="c"/><path d="M568 472h7l-2 4-11 6-13 5-7 2 1 7 4 8 1 6-5 6-10 7h-2v2l-10 7h-2v2l-4 1v2l-15 10-15 12-17 12-7 5h-3v2h-2l2-4 10-8 11-8 11-9 5-4h2v-2l6-4 10-8 6-4 4-3h2v-2h3v-2l10-6 3-3-2-4-4-10-2-10 9-4 21-9z" fill="#080b12"/><path d="M500 628l4 1 2 2v5l1 3 2 1-1 7-4 2-7 4-4 5-9 4h-4v2h-5v-2h-2l-2-5-1-3v-7l1-3 9-3 2-4 5-1v-2l9-4z" class="W"/><path d="M441 200h20l2 2v4l1 3h-18l-5 2h-9l-4 4 1 1 3-2 6-1v2l2 2-2 4h-3v2l-7 3-2-3v9h3v4h3l2 16h-2l2 8-1 3-2 1 2 1v3h2l1 3-4-2-5-4-6-3-1-4 3-5 1-5 3-11-4-7-1-2v-10h-3l1-5 5-6 8-5z" fill="#b28b74"/><path d="M464 207l2 1v2l15 3v2l6-1v2l3 1v2h3l2-6h2v-2l6 2-1 6 5 1 1 1v10l1 2-2 4h-2l3 5-2 2-3-6v-2h2l-1-8-1-5h-2v-3h-7v3l-4 1-2-1v3l-10 3-5 2-1-2v-4l-5-1v-2l-9 1-6-1-2-3 1-4h2l-1-3-5-1-3 1-3 4-4-1 1-2-8 3-2 2v-4l4-4h11l3-2h9l9 1z" fill="#7c5e4f"/><path d="M382 484l1 3-5 14 8-6-1 7-7 14-4 5-1 10-5 4-4 7h-2v2h-2l-1 3-5-1v-3h-2v-7l4-10 9-17 8-13 8-11z" fill="#2980ea"/><path d="M454 308l5 1 5 5 3 5 1 5-3 3-1 3-3 2-3 5-2 5-3 4-8 3h-4l-6 2 1-3h3l1-3 3-2v-2l5-2 4-6-1-2-10 2v-2h-2v-2l3-2h-7l-2 2-2-2-4-2 4-4 15-8z" fill="#8f6d5d"/><path d="M381 34l4 1 4 8v5l3 1 4 5 3 1-5-7-2-6h-2l-2-6 4 2 3 1 2 6 4 4v2h2l1 5h3l3 5 1 2-5-2-2-2 2 10h-6l-1-3-4-1v3h-5l-1 4-5-2-5-3-7-1 5-6v-5l3-1-3-3-2-5-3-3 1-2-4-2v-3l6 3 9 1z" class="K"/><path d="M666 536h7l-1 4-5 4h-11l-19 4-16 5-19 7-16 6-10 7-5 4-6 8-2 2-4-1v-5l3-4v4l5-3 4-7 14-10 21-12 13-5 10-3 31-3z" fill="#05080e"/><path d="M516 380h4v18l-3 5-7 4h-3v2l-10 4-12 5-20 7-14 3h-6l-2-2v-3h4v3l10-2 12-5 6-4 7-3 3-1v-2l4-1 4-5 2-5 10-8 4-5z" class="r"/><path d="M535 311l4 2 2 6 2 1 2 8v2l2 6 2 12 1 3h5l-2 4-3 2-5-3-6-5-1-9-4-9-5 2-4 9-3 5h-2l-1 4-5 2-1 3h-2l-2 4-3 1 1-5 5-12 3-7h2l3-11 3-1 2 2 5-1 3-8z" fill="#614d3f"/><path d="M578 332l2 1v2h2v-2h2l2 7v7l-7 11-13 15-6 1 1-4-2-1v-2l-3-5v-2h-5l2-4 1-3 11-9 4-4h2v-2z" fill="#bdb4a7"/><path d="M386 735h6v5l-13 6h-2v2l-5 4-4 7-3 15v10l1 5-2 3h-5l-3-2-2-11v-17l5-13 9-9 10-4z" fill="#06080f"/><path d="M435 326h7l1 2-4 1v2h2v2l10-3 2 4-3 3-2 3h-2l-1 2-2-1 1 3-4 2-1 2-3 1-1 2 6-3 4-1h3l5-2 4-4-1 5 5 1v-2l2-2 5-8h3v6l-3 7-2 3-10 2-3 3-3-2 1 3-5 4-4-1v2l-9 2-2-8h-6l1-6 4-3 2-4 5-1 1-5-8-1 1-9h3z" fill="#ad8976"/><path d="M539 77h10l1 4 4 1 1 3h3l1-4 5-1-2 4 3 9-4 6-5 1-1 5-7 1 2 2 3-1v2l-7 2-2-2-1-4-5-2-2-2v-3l-2-1 3-3 2 1 1-3-2-1-7 1-4-1v-2l7-2 2-1 1-3h-2v-2l-4 1v-3z" class="F"/><path d="M337 190l20 2 7 6 4 3v2h2v2l3 1v1h-32l-3 3-1 2h-2v6l-3 2h-3l-3-10v-9l3-6h2l2-4z" fill="#ae8a76"/><path d="M497 219l4 1v3h2l2 5v8h-2l4 8v7l-2 4 2 5-3 1-3-3-3 5-5-1-2 7 1 11 2 12 3 8v15l-2 8-2-1 1-8v-13l-2-4-1-7-2-11v-4h-2l-1-8 2-10 5-3 1-2h4l-4-8-1-3 3-1-2-7-6-2v-2h-10l2-2 8-1v-3h6v-3z" class="p"/><path d="M419 190l2 1-2 7-3 4h-2l-2 6-4 4-3 1-1 8-1 26-3 10 2 3 1 16-5 13-4 6-1 5 8 3-1 2-17-5 1-4h4v-2l2-1 3-10 2-9v-21l3-6v-22l2-1 1-10-2-1v-7h4l4-1 2-5 3-4 3-1z" fill="#b58f79"/><path d="M578 92l3 3v9h2l3 10 2 1v35l2 24-6 1-3-2-3-11 2-5-3-1-1-12v-16l5 1 2-5h-3l-1-4h3l-3-6v-9l-3-1v-5l-4-2 1-2h4z" fill="#a59e98"/><path d="M717 473l3 1 4 8 3 11 1 21-2 17-2 4h-2l-1 2-5-5-2-5-2-7-1-7h-4l2-4 4-5 1-3h2l1-6 2-3-1-12z" fill="#f4d843"/><path d="M462 429h29l8 1 5 2 5 1-2 4-9 9-5 6-2-1-8 3-5-1v-10l-1-7-5-3-43-1v-1z" fill="#d6d7cf"/><path d="M543 207l5 1v3h3v-2h2l1 7 3 2v4h-2l-3-3v4l5 3 1 4v3l1 5v10l1 5-2 6-3 1-3-15-2-1-1-3h-4l1 9-1 3-4-2v-2h-2l2-6 1-2h-3l-4-5v-11l5-2h3l1 2 1-1-1-14z" fill="#725a4a"/><path d="M448 280l5 1 3 4 3 1 1 4 4 1 8 4 6 8 2 4v10h-2v2l-3 1-3-2-5 11-7 10h-2l-1 2 1-5 4-6h2l1-4 2-2-1-5-4-6-2-5-5-8-2-5-2-3z" class="S"/><path d="M171 660h8l7 4-1 3h-5l6 10v2l7 2 1 7-1 2-4 1-2-1v2h-9l-1 3v-3l-4-2-7-8-3-7v-7l6-7z" fill="#c9a79a"/><path d="M460 185h8v2l10 1 6 3-3 1-2-1 1 4 4-1 5 2 1 7v3l-2 2-8-1v2l-4 2v-2h-2l-1-5h2l-1-4-9-1h-15l-17 1 2-4 4-2 3-1v-2l6-1 6 1 2-4z" class="C"/><path d="M585 617l2 4-1 5-2 1-2 5-3 1v10l2 3v3l3 1 2 6 2 1 5 8-1 4h-5l-12-14-7-8-5-6-4-3-1-4 8-5h2v-2l8-5 8-4z" fill="#f1d443"/><path d="M363 507l1 2-6 11-6 12-4 7-2 1-4 8v6l3 3-3 12v50l1 13-2-3-2-22-2-41-2-16 3-12 7-16 6-11 2 4 4-2z" class="T"/><path d="M349 49h2v3l3 1 5 5v3l-6-1v6l-2 3-5 2-2 4 2 1-1 5-6 9h-3v5l-4 10-1-4 1-3v-8l-1-8 1-2-2-1v-8l7-14 5-7 1 4z" fill="#bfb5a8"/><path d="M397 484l3 1 3 5h7v14l-4 15-6 31-4 13-6 11-10 19-5 8-3 5-1-2 2-4 1-9-2-1 5-12 7-10 1-7 8-7h2l2-5 4-15 2-11v-22l-3-9z" fill="#0f4ea3"/><path d="M370 606l1 3 2-2 4 10 1 7-3 4-1 6-5 2-1-1-4 9-2 8-5 4-4 7h-2l-2 9h-1v-7l5-21 6-17 10-20z" fill="#3a4867"/><path d="M427 479l2 1-10 8-1 2h-2l-4 36-1 18-5 13-8 10-9 12-2 1 1-5 5-8 5-12 6-29 3-14 3-16 1-8 7-4z" class="c"/><path d="M675 426l6 3 15 11 5 15-1 4-2-9h-2l-1 3h-2v7l-1 1-7-1-9-9-5-1 1-4-3-3 1-6 4-2-3-6h2v-2z" fill="#3c3f50"/><path d="M578 541l1 2-4 7h-3l-7 8-2 3h-2l-3 9-1 2h-2l-1 5-6 11-8 16-4 14-2 6v11l-3 6h-2l-1 7h6l-3 2h-8l2-6v-12l1-9 2-9 6-15 6-9 7-12 3-5 8-11 4-6 8-7 4-5z" fill="#0f121f"/><path d="M366 272v3l-2 3-4 2-4 4-2 4h-2l-2 9-1 6 2 11 4 11 4 4v2l4 1 1-3 9-1v2h3l3 6 1 1v5h2v6l2 3 3 1 1 6 3 1v5l1 2-4-2-6-8-1-5h-2l-3-10v-5h-2l-1-2-4-1 1 9-3 5-5 1-8-7-2-7-2-12-3-6-2-10 1-6 1-4v-4h2l1-4 1-3h2v-3h3l1-3z" class="D"/><path d="M434 18h32l8 1v1l-5 1v1h-9v2l-6-1-2 3h-10l-4 1v2l11 3 9 8-1 2-6-1 9 15-4-1-4-6-6-7v-2h-3l-2 2-6-7-7-3-1-2-6-2-1-5 10-2h2v-2z" fill="#999592"/><path d="M786 348l3 3v3l2 1 5-5 1 23h2l1 3v30l-14-1-4-2 5-1v-8l1-5v-18l-2-14z" fill="#333e67"/><path d="M394 25h11l1 3h4l1-3 3 1-1 21 1 5 1 4v2h-2v3h-2l-4-7-2-2-4-1-5-6-1-6h-2v-3l-3-1-1-3h-8l-5-4 14-2z" fill="#b1a9a1"/><path d="M586 443h3l1 3-9 14-5 8-6 1v2l-6 2-1 2h-4l-1-1h-4l-6 1-2-3 4-2 2-4 4-2 9-11 6-1v-2l7-4z" class="Y"/><path d="M507 245l4 5 2 9v3h-2l1 4-4 2-4-1h-7v2h-3v6l3 5 1 7 3 15v7l-2 9-4 7-4 11-4 13-5 12-4 7h-2l-1 5-3 4h-3v-3l4-4 5-8 3-7 4-11 3-7 2-8 3-6h2l1-13v-10l-3-8-2-12-1-12 3-7 5 1 3-5 1 3 4-1-2-5h2l-1-3h2z" fill="#7d5e4e"/><path d="M391 254h1v8l-2 8 2 4v8l-4 10h-3v2l-6 1 2 10h2v2l6 1 6-2 2 1v2l5 2v2l5 1 3 3-1 2-2-1-1 4-5 1-7-2h-4v-3l-7-2v-2h-5l-2-4-5-1h-7l1-2 3-1v-5h2l1-3h2l1-4 5-3 9-1v-13-3l-1-4 2-6z" fill="#d6beb1"/><path d="M384 218l2 1-1 7-3 5-2 6-5 1-1 2-6 5-13 1-5-2-1-9-3-2-9 1v2h-2l-1-7 3-4v3l6-3h2l2-4 7-1 3 7 4 1 3 4 1 5h5l5-3v-4l5-2v-6l1-2h3z" fill="#dcb7a5"/><path d="M787 299h1l6 27 6 35v15l-1-3h-2l-1-3-1-18-4 5-5-10-3-18-1-5v-16h2l1-4z" fill="#154385"/><path d="M426 66l7 3 4 3 1 4 2 1-2 8 7 6v7l3 9 1 1v9l-1 6 1 6-2 4h-3l-1-1-1-7-2-5h2l1-7-5-10 1-10-1-3-5-1h-4v-3l-4-2-2-4 2-5-3-1 2-3h-2l1-4z" class="P"/><path d="M440 54l7 1v3l6 3-1-3 5 1 1 5h2l-1 5-4-1-2-1-1 4-6-2 1 1 2 5h-3v2h-4l1 4v3l4 4-1 4 3 1 1 8 3 8-1 4h-2v6l1 4v9l-2 3 3 8-1 4h-5l1-6-1-6 2-6-1-7 1-5v-9l-2-2-2-9 1-6-4-2v-2l-4-2 3-8-3-1-2-5v-3h5l-2-5-2-1 2-5h2z" class="B"/><path d="M457 27h6l3 2 6 2h3l3 1 1 2 3 1v2l6 2 9 4 3 4 6 2 6 4-2 2-13-5h-7v-2l-4-1-3-3-3-1v-2h-2l1 3-2 1-2-1 6 11 2 6h-2l-1 3-5-1-1-2-3-1-1-3-6-3-3-4 7 1 1 3h2l-2-6-4-6-3-3 4 1 4 4h2l-2-4-10-9-3-3z" fill="#6c5f55"/><path d="M407 411l4 1 7 8 4 4v2l8 2h23l27-4 13-1h14l8 1 3-1-2 5-7 6-5-1-5-2-8-1h-29l-39 2h-3l-4-1-7-9-2-5z" fill="#9da5ad"/><path d="M540 163l1 3 4 1v4l4-1 1 8-1 7 4-1v-2l4 1 3 4 3 1-1 4h-2v10l-1 2h-6l-1 3h-2l1 4h-3l-2-8h-2l-5-5-1-3 1-2h2l-4-8 1-2 5 2-1-4 5-3-3-1-3 1-2-9z" class="Q"/><path d="M377 345l2 2v4h2l3 6 6 8 11 2 4 2v2l6 1h16l2 8 1 6-2 6-13 4-5 1-7 2h-8l-1 3-3-1 2-4h9l1-3 9-4 7-2 3-4-1-4-1-3-10-1-8 3-4-1-6-3-2-6-4-2-2-4-4-6-2-5z" fill="#d7beb0"/><path d="M768 300l2 1v81l-2 4v5l-2-4-3-9-2-18v-18l2-3v-7h2l-1-6 1-10 1-4-2-5 1-6z" fill="#323e68"/><path d="M160 670l3 1 4 11 9 10-1 3-3 1-15 1-16 2 1-5 9-17 2-3h5z" fill="#323b51"/><path d="M442 245h5l3 3 7 1 1 2 7 2 1 9-1 4 2 1-1 7-5 5-4-2-7-3-3-6v-10h-3l-2-7-1-4z" class="D"/><path d="M735 340l2 1-5 6-3 2v8l1 5h-2l1 3-1 3 2 1 1 4v8h-11l-13-3-1-3 5-10 8-10 10-9z" fill="#25365e"/><path d="M573 209l4 1 3 2 5 2 1 5 3-3h2l3 6-1 5h-2v3h-3l-2 5-9 7-2 5-2 2h-4v-5l3-4-1-7 1-4h-2v-5l4-1v-6l-3-1 1-5z" fill="#50403b"/><path d="M445 68l7 1v2l2 1-1 4-3 3v5h3l1 6 6 12h-2l2 10 1 4-2 3v7l-1 2 2 1-3 1 3 6 9 5 2 5 1 3-4 1v2h-4l1 6-1 2-1 5-3 1-1 4-2 3-2-1 2-4-5-1v-2h7l-1-9 2-3-2-4 4-1 3 1 1-6-4-1-7-3-1-11-1-6 3-2-1-7-1-11-3-2-1-12-5-7 1-6h3l-2-5h-2z" class="e"/><path d="M416 431l5 1 3 2v3l-8 4-7 4-3 5h-2l-1 3-5 3h-2l-2 7v6l-3 5-2 5h-5l-3-2 1-5 4-7 9-19 5-5 8-7z" fill="#2b80e8"/><path d="M527 97h2v2h4l1-2 2 1 2 4 7 3 1 5 10-2-2 4-2 2v3 3l1-2 4-1v5l-3 3h-2l-1 4-3 1h-4l-1 2h-3v2h-3l1-5 1-6-5 1v-3l2-1-1-9 3-2v-5h-2v-2h-3l-1 4-9 1 2-5z" fill="#61544a"/><path d="M316 736h6l2 5-1 4-5 6-3 21-1 5 1 8-7-1-1-8-1-5v-23l4-8 3-3z" class="c"/><path d="M553 354v3l-2 3h5l5 9 1 4 3 1-11 11-7 3v-3h-2v-2h-2l-2-11-3-1 1-6 11-8z" fill="#9da4ac"/><path d="M225 693l5 2 7 5 5 2v2l7 2 12 8v3l3 1-13 4-7 1-4-1v-2h-4v-3h3l-1-3-7-6v-2l-3-1-3-6z" fill="#60554f"/><path d="M553 277l1 2-2 10-2 7 3 3 4 1 1 13 1 5v3l4-1 1-4 4 1 1 4 1 6-1 9h3l-1 4-9 1v-2h-3l-2-11-2-4-1-5-4-11-2-4-1-13 4-13z" fill="#7d5d4e"/><path d="M508 328l4 1 1 7-1 7h-2l-3 12h-2l-2 7-2 1-2 9-2 3-7-1 1-12 5-14 5-7 4-9h2z" fill="#9f7b67"/><path d="M504 388h2l-2 4-8 4-14 10-13 8-3 2-14 1-2-1v-2l-18-3v-2l9-3 1-8 2-3 10-4 2 1-3 1-1 2-5 3h-2v2l9-5 4-2 1-3 1 2-4 6-2 5-3 1v5h5l2 1 13-2 18-10 12-8h3z" class="Q"/><path d="M575 110l5 1 1 6 1 3-2 1v3h3l-1 4-5 2v18l1 8 2 1-1 6 3 10-2 2-1-5-1 1-1 5h-3-2v-2h2l-1-3 1-6 1-5h-2l-5-9-4-4v-2l4-1 2-6 2-1-2-1 1-9 4-4 3-6-2-1v2h-3v-2h2z" class="s"/><path d="M430 19h2v2l-12 3v5l1 1v8l-4 1v2l6 1 3 6h4v2l4 2 1 4-2 4-5-3-4-3 8 10v1l-7-1-3-3v-3l-4-2-4-6-2-6 1-18h-2l-1 2h-4l-1-2-3-2 17-2 1-1z" fill="#bfb6a9"/><path d="M403 51l4 2 4 5 3 7-1 3-5-2 1 4-1 3h-7l-2 2-10 1-5-3h-14l-2-2-8-1-2 1-3-3 2-4h10l1-4h2v3h3l1-8 2 1v7l-3 2 7 2 8 4 2-3h5v-3l5 1v3l3-1 3 1-3-8 1-3 5 4-2-3v-3h-3z" fill="#97877b"/><path d="M481 228l7 1 6 3 2 2 1 7h-4l4 6 1 5h-4l-1 3-4 2-2 10v8h2l4 18v6l2 2v13l-2 10-3 7-1-3 3-15v-7l-1-4-2-1-2-5v-11l-2-5-1-7-2-4 2-10v-5l4-2v-2h2l1-3 2 1 1-1-5-5-2-5v-4l-4-1v-3z" class="H"/><path d="M356 38l7 2v2l-5 1v5h6l4 4h2l-1 7h2l1-4h2l1 5-2 3h-3v-3l-2 1-1 3-10 1-1 7-1-2h-2v2l-4-1-2 4-1 4-3-4 2-5 6-1 2-9h6l-8-8v-3l-9 6 2-7z" class="J"/><path d="M233 760l6 2 21 8 28 9 26 6 26 4 14 1 9 3v2l-7 3-5-2-38-7-27-7-27-9-26-11z" fill="#f6f6f5"/><path d="M500 729l1 2-8 14-9 14-6 12-8 13-4 5-4 4-3 5-3-2 1-6 5-8 2-4h2l2-5 10-15 4-7h2l2-5 5-7h2l2-4 4-5z" class="O"/><path d="M422 189h5l-2 1-1 5-3 9-3 5-5 3-5 2-2 7v14l-1 3 3 13v3h-2v15l-3 15-2 5-2 1-1 3h-2l1 8-5-1 2-6 4-8 4-10-1-16-2-4 3-9 1-26 2-10h5l2-6 6-7 3-8z" fill="#a07c67"/><path d="M437 144h4v2l4 1v8l1 5v7l4 1-1 5-4 3v5l-5 2v2l-12 3-7 2v-2l7-5 2-5 6-4 3-9h2l-3-8-2-1-1-8z" fill="#b89282"/><path d="M370 416h5l-4 4-9 2-8 3-12 1v2l-7 1-9 1-4 3-8 1-8 4h-6-3l-1 2-6 2h-10v-3l12-2 24-9 25-7 19-3z" fill="#494b5a"/><path d="M446 732l1 3-4 6h-2l-1 7-7 10-5 9-6 9-9 13-5 9-2 2h-9l-1-3 5-1v-5l7-2v-3h2v-2h2v-4h2l2-4h2v-3l4-4v-2h2l1-4 3-6 3-5-1-4 7-8 5-6z" class="O"/><path d="M426 370l5 1v2h-2v6h2l3 8 8-8 2 1-1 9-6 5-17 6-16 4 1 5-5-2-6-4 1-4 12-2 6-2 9-2 1-1h5l1-9-2-5v-5l-8-1v-1z" class="t"/><path d="M418 609l20 2v3l10 1v-2h5l3 2h5v-2l3 1v6h-6l-1 5h-2v3l-10-1-1 1h-12l-2-8-2-2h3l7 2v5h3l1-6-5-2v-2h-9v-2h-3v2l-4-1-3-3z" fill="#878c94"/><path d="M418 488h1l2 13 2 9v10l-2 14-2 4 2 1-3 3-3 5-4 2 2-23 3-31z" fill="#3b4662"/><path d="M535 516l2 1-1 4-5 2v2l-10 7h-2v2l-4 1v2l-15 10-15 12-17 12-7 5h-3v2h-2l2-4 10-8 11-8 11-9 5-4h2v-2l6-4 10-8 6-4 4-3h2v-2h3v-2z" fill="#070910"/><path d="M533 102h3v2h2l1 5-3 2 1 9-3 1v3l5-1v6l-2 5h3v-2h3l1-3h2l-1 6-3 3h-2l-1 3h-4l2 8h2v3h2v2l3 1-2 5-4-4v-5l-7 1 1-9 5-5v-2l-5 1-1 3-6-2-1-5 3-1 2-3v-9l-2-6 5-2 1-2h2v-2h-2z" fill="#615349"/><path d="M539 646l2 1-10 8-10 7h-7l-10 7-4 1v2l-3 3-10 1v2l-4 1 1-5 8-7 13-7 10-6z" fill="#ceb7aa"/><path d="M567 150l4 4 2 6h2v9l-1 5h-2v2l3-1h2l1-7 2 2 1 4h12l3 3-1 4v2l-5-1-4-2v-4l-7 1-5 4-3 7-1 2h-2l1-5v-2l-2-1 1-6 1-2h-2l2-5 1-3h-3l-1 3-5-1-1-6 1-4h2v-2l4-2z" class="F"/><path d="M490 126h2v3h2l-1 9-3 4v7h2l-1 3 3 6v3h-2v5h-2l-2 9-7 6-6 1-1-2h4l-2-6 1-3 4-2 3-8h2v-7l-1-4 1-2-2-5 2-6v-5z" class="q"/><path d="M393 653h2l-2 16-4 12-6 26-7 27-4 1v-7l12-48 8-26z" fill="#080a12"/><path d="M401 305l30 1v2l3-1 2 1v2l2 1-2 4-10 6-8 4h-3v2h8l-1 2-17-1-6-1 1-2 12-2 4-2v-3l2-1v-5l-6-3-11-3z" fill="#bb9586"/><path d="M578 332l2 1v2h2v-2h2l2 7v7l-7 11-6 7-2-1 1-2v-7l2-2h-2v-2l-5-2-3-2 6-6 1-3z" fill="#d4d4cc"/><path d="M375 76h13v3l-5-1v2l-5 2-3 3-8 6-4-2-1-2-3 2h-12l-6 3 2-4 5-6 4-1v-2h6l5-2h6v2z" fill="#d2ab99"/><path d="M375 481l2 1-1 2 2 1-1 4-3 7-13 22-3 7-2-1 2-5 5-10-5 4-3 3-3-1v-6l10-13 12-14z" fill="#124fa1"/><path d="M425 586l4 1-3 4h-3v6l-6-1-14 2-5 5-1 9h3v3l6 1 1 6h-2l-1-4-5 1-4-2-1-6v-9l3-7h2l2-4 4-3z" fill="#9fa4a8"/><path d="M666 536h7l-1 4-5 4h-11l-19 4-16 5-7 3-3-1 16-7 10-3 2-1h-8l-7 2-15 5-17 8-2-1 12-7 11-5 16-5 31-3z" fill="#11131f"/><path d="M272 443h3l1 4h-3l-1 5-5 5-6 7-2 4h-1l-2 5-3 7-6 3h-2v-6l8-16 7-9 8-7z" fill="#2c3344"/><path d="M437 280h2v5l-6 7-4 1-1 3-5 1-2 4-3 2h-17v-5l5-4 7-3 1-2 14-1 6-5h2z" fill="#52413b"/><path d="M369 269l2 1-2 10-4 8-5 7-5 13-2 1-1-3 1 13-2-2-2-6-1-11 4-12 2-1 3-5h2l2-4h3l2-4z" class="a"/><path d="M658 659l2 2-3 5-5 5-9 7-13 8-5 3-1 5-5 2-4-2v-3l-3-1 4-4 5-3 11-6 12-8 8-5 3-1 1-3z" fill="#f4d943"/><path d="M481 303l4 3 1 5 2 2-2 5-1 13-5 9-4 4-3-1v-8l-2-11 1-3 7-2 1-15z" fill="#d3ab98"/><path d="M572 279h2l2 19 1 2 2 22v10l-3 1-1 2v-3l-3-1v-17l-3-12-1-15 2-6z" class="H"/><path d="M399 226l2 1v22l-3 9 2 6 1 4-2 14-3 7-3 11 8 3-1 2-17-5 1-4h4v-2l2-1 3-10 2-9v-21l3-6v-17z" class="E"/><path d="M587 115h1v35l2 24-6 1-3-2-3-11 1-1v-7l1-5-1-2h2l1-8h3l-1-6 1-8z" fill="#b3aaa2"/><path d="M481 185l4 2-1 2 5 1v3l3-1v2h2l2 5 3 1-1 4-1 2h-4v4h-2l1 5-1 2-4-1v-2l-6 1v-2l-6-1-3-1-2-7 1-4h3l1 4-1 5h4 2v-2h8l2-3-2-6 1-2-9-1-1-4h4l-10-3 3-2z" fill="#614d3f"/><path d="M504 241l3 3v7l-2 4 2 5-3 1-3-3-3 5-5-1-2 7 1 11 2 12 3 8v15l-2 8-2-1 1-8v-13l-2-4-1-7-2-11v-4h-2l-1-5 2-9 2-4h8l1-7-2-8h2v2h4z" class="I"/><path d="M209 682l4 2 12 8 2 10 6 7 3 2v2l3 1v3h-3l-1 2-6-4-3-6-8-5-3-4-3-9-2-1v-2l-4-1 1-3h2z" fill="#917666"/><path d="M544 54l11 7 10 9 3 3v2h2l3 7v5l-3-1-2-7h-7l-8-4-5-1-3-2h5v-2h-4v-5h-4l1-3 5 1-1 3 4 1-1-4-2-2-6-2-1-4 3 1z" fill="#8e857c"/><path d="M366 317l5 2 11 4 6 1-1 3 7 5 9 3 13 1-3 2-16 1-7-1-5 1v-2l-4-1-5-9-1-2-6 1-4-2-1-6z" fill="#bf9686"/><path d="M257 763l7 2v2h10l3 3 4 1h7l6 2 6 4v2l6 1-4 2-9-1-15-4-24-8-2-3h3v-2z" fill="#364167"/><path d="M537 366h2v5l2 1 2 7v4h2v2h2l1 2 3-2 3 1-3 3-7 2-6-1-5-1-2-1v-2h-2l-3-6v-3l5-6 4-3h2z" fill="#9a9694"/><path d="M420 333v3l7 1 4 2v2h-2v6l-6 2-2 7h-2l-1 7 5-1 2-4 5-1-1 4h-4l-1 2h-2v4h-8l-2-4-3-3-1-8 12-3 4-8v-2h-20v-1l9-1-10-1v-1l10-1h6z" class="E"/><path d="M668 684l3 1-3 3v3l-6 7-1-3-15 12-10 6-5-1-3-4 2-1 3-5 8-1 8-6 7-1v-2l7-4h2l1-3z" fill="#d8a61f"/><path d="M460 187h7l9 3-1 5-3 3-16-1-16 3h-7l2-4 4-2 3-1v-2l6-1 9-1z" fill="#252d40"/><path d="M511 311l3 1v2h2v3h2l1 2v8l-5 16-5 10-3 8h-2l-1 5-3 3v-6l3-1 2-7h2l2-10 1-2h2v-9l-1-5h-3l-1 3h-2l-1 5-3 5-1-2 5-10 3-16z" fill="#7b5c4d"/><path d="M520 79h11v3l4-1v2h2l-1 4-4 2h-5v2l13-1 2 3h-2l-1 2-6 2v2h-4v-2l-11 3-1-5-6 2-2 1 2-5 3 1-1-4 5-2 5-1 1-3h2v-2l-6-1z" fill="#605348"/><path d="M435 326h7l1 2-4 1v2h2v2l10-3 2 4-3 3-2 3h-2l-1 2-2-1 1 3-4 2-1 2-3 1-1 2 6-3 4-1h3l5-1-6 7-3 2-4-2-2 1-9-1 2-5 3-1 2-4 7-6 1-2-14 1 1-9h3z" fill="#9f7b67"/><path d="M207 678l10 2 3 4 7 4 17 10 3 2v2l5 2 11 7 7 4-4 2h-5l-1-3-11-7-7-3v-2l-7-2-6-5-7-4-10-7-5-4z" fill="#111320"/><path d="M354 213h16l10 4v2l-3 1-1 2-7 1-2 2h-9l-2-1 2-4 3-2h-6l-9 5-3 3-3 2h-3l1-5 9-8z" fill="#423e45"/><path d="M469 298l7 2 4 7v10h-2v2l-3 1-3-2-5 11-7 10h-2l-1 2 1-5 4-6h2l1-4 2-2-1-5-4-6-2-5-1-2 7 2 3 2 1-1 1-8h-2z" fill="#ad8875"/><path d="M441 200h20l2 2v4l1 3h-29l-7 2-4 4h-3l1-4 5-5 6-4z" fill="#e6c3b0"/><path d="M416 732h6v2l5 1 3 1v3l-3 3h2v2l2 1-26 20-19 14-12 8-10 7-3-2 6-3 19-14 14-10 13-10 9-7 3-3-10-6-1-5z" fill="#c8a595"/><path d="M454 313h6l8 7-2 4-5 2-11 2-5 1-2-3-8-1 1-2 7-4 3-1v-2z" fill="#614c40"/><path d="M420 265h9l9 8-2 1-5-2v3l-5 4v7l-6 2v-2l-7 1-1-4-2-1 9-11z" fill="#7b5c4d"/><path d="M419 600l2 1 1 4 3-1 1 5h-8l4 5 3 1v-2h3v2l7-1 2 1v2l6 1-2 7h-3l-1-5-8-2 2 2 1 8h5l-4 2-10 2-1-3 2-1 1 2 4-1-5-3v-2l3-1 1-2-2-1-1-2-1 2-4-1-1-3-8-1v-2l-6 1-1-2h8 4l-1-4-4-1 1-4h4v-2z" fill="#85888d"/><path d="M479 267l3 4 1 10 2 5-1 9 8 7 1 4v7l-2 13-5 13-4 10-4 3-2-1 3-4 2-5h2l1-7 1-3h2v-13l3-1-1-3v-7l-2-6-6-5-3-5v-19l-1-3z" class="m"/><path d="M593 202l2 2v4h2l1-2v3h2l1-2-1 5-1 17-3 15-6 14-2-1-4 4-1-2h2v-16h4l1-6 2-2v-2h2l1-4-1-2 3-4-1-7-2-1-2-12z" fill="#775d4e"/><path d="M569 88l2 1-1 2-3 2v2l3 1-2 3h-3v3l-4 1v3l4-2 4-3v4h2l1-4 3 1v2h5l-2 4-7 1-1-2-1 3h3l-1 10-7-1v2h-4l-1-3h4l-2-5h3l2-6-7 1-5-1-5 2-1-3 7-1 1-5 5-2 3-5-1-4h5z" fill="#827d78"/><path d="M339 625l3 4 1 3 1 18v47h-2l-1 8-2 1v-42l2-22-1-7-2-8z" class="f"/><path d="M446 212h4l-1 5-1 6h-7v3l6 1 4 4-3 1-19 1-3-1-1-3v-7l4 3 6-2v-2h3l1-4 4-4z" fill="#deb6a4"/><path d="M576 253l3 1h-2v2l3 1-1 3h-2l-1 5h-2v2l-7 4v2l4-1 2-2v4l2 1-1 3h-10l-5-2 2-13h3l1-3v-6l7 1v2z" fill="#694d3d"/><path d="M368 36l7 3h6l-4 3v4l5 1 3 3v3h-3l1 4-2 4 7 1 5 2 1-2 7 1v3l4-2 1 5h-6l-1-3-4-1v3h-5l-1 4-5-2-5-3-7-1 5-6v-5l3-1-3-3-2-5-3-3 1-2-4-2zm186 70l10 1h2l-2 6h-3l2 5-3 1 4 2v-2l5 1 1 3-2 7-1 4-6-1 1-9-4 3h-2l-2 6-4 1-1-3h2l1-6 4-3v-4h-3l-1 3-1-4v-3l4-5-2-2z" class="F"/><path d="M384 218l2 1-1 7-3 5-2 6-5 1-1 2-6 5-13 1-5-2-1-9-3-2-5 1-1-2h3l1-3 1 1h12v7l2 3h10l5-2 1-8 5-2v-6l1-2h3z" fill="#e2baa7"/><path d="M341 195h13l5 1 4 5v3h-28v2h-7l-2-4 4-1v-2l5-3z" fill="#72675f"/><path d="M495 67l5 1v2l5 1 6 4 4 3 5 1v2l4 1-9 3h-5l-3-2v-2l-3 1-1 3-10-3-3-5 3-1 1-3 3-1z" class="k"/><path d="M514 661h5l-2 4-14 10-10 8-16 13-8 6h-2l-1-3 5-5 2-3 7-4 5-4h2v-2l5-2 1-3 4-1 1-3h2v-2l13-8z" fill="#d9d0c4"/><path d="M507 245l4 5 2 9v3h-2l1 4-4 2-4-1h-7v2h-3v14l1 12-2-3-2-12-1-12 3-7 5 1 3-5 1 3 4-1-2-5h2l-1-3h2z" class="L"/><path d="M417 595l4 1v4l-5 1v2l-4 1v3l3 1 3 6h-5l-1-1-14-2v-10l5-4z" fill="#2c3449"/><path d="M401 735h9l8 5 1 3-9 1-6 4-1 2v9h-2l-5-7-2-4v-7l2-4z" fill="#080a11"/><path d="M661 694l2 1-4 6-3 3-2 6 2 1-9 8-9 7-2-1 3-6 1-3-4 1-3-4 8-4 14-10z" fill="#c82f3b"/><path d="M567 279h5l-1 3-1 4-1 1 1 15 3 12v17l2 1-1 5-2 1v-2h-3v-23l-1-5h-3l-2-9v-13l1-5z" class="I"/><path d="M360 69l8 1 2 2h14l4 2-2 1h-15l-4 1-3-1-1-2-5-1-1 3-3 4h-2v2l-5 3-8 11-4 9-3 5-1-4 4-10 1-5 3-1 7-10v-6l4-3v2h3v-2h6z" class="S"/><path d="M623 407l1 4-11 11-2 3h-2l-2 4-12 16-12 22-5 6-5 2 1-2-3-2 6-3 8-13 13-20 9-12 4-5 5-5z" class="u"/><path d="M403 462h7v2l3 1 1 6-6 7-2 4h-2v2l-6-1-1-1v-11l3-6h2z" class="l"/><path d="M448 217l2 3v5h4v2l9 2 2 6 1 2h5l-2 3-7-1-8-3v-2l-2 1v2l-5 1h-3-3l1-2-3-1v-3l9-1 2-1-9-4v-3h7l-1-4z" class="a"/><path d="M390 339l30 1 1 4-2 4-6 1h-11l-6-1v-2h-8l-2-5z" fill="#e4bdac"/><path d="M335 188h9l9 1v2h6l7 3 7 2v4l7-2 1-2h3l2 7-1 14-2-3v-3l-2-1v-3l-6-2v-2l-5-2-4-4-9-4-13-1-7-1-5 2-1 2h-2l-2 6-1-3 3-9z" fill="#d6ad9a"/><path d="M584 333l5 1 6 7 8 17 2 5-9-1-3-6v-2h-2l-3-5-4 1 1-3v-7z" fill="#3c4255"/><path d="M407 523h2l-1 14-2 10-2 7-1 7-8 10-7 9-1-3 6-10 5-12 4-20 3-5z" fill="#1c294b"/><path d="M590 221l2 2-1 7h-3l-2 5-9 7-2 5-2 2h-4v-5l3-4 1-11h6l1-4 5-1z" fill="#252d40"/><path d="M456 47l5 2 4 5 6 3v3l4 1 2 2 3 1 1-4 2 1-1-4 7 6v2l3 1h-2l-1 3-7-2v2h-3l1 3h-6l-12-14-3-5-3-4z" class="K"/><path d="M395 27l4 1 3 6 3 2v2l5 1 1 8-5 1-5-6-2-1 4 10h-2l-5-6-1-6h-2v-3l-3-1-1-3h-8l-2-3h12l1 1z" fill="#9b9693"/><path d="M340 61l1 2 5 1v3l-4 1-2 6-2 4h-2l-3 11h4l1-4 3-2-2 7h-3v5l-4 10-1-4 1-3v-8l-1-8 1-2-2-1v-8l4-9 1 3h3z" fill="#d9d8cf"/><path d="M584 244l2 2-1 13h1l3-3-1 5-9 12-4 3-3-3-3 1-3-1 1-3 5-3h2v-2h2l1-5h2l2-14z" fill="#795c4c"/><path d="M473 364h4l-2 4-4 6h-2l-1 4h-2l-2 6-5 5h-2v2l-13 5-2 3h-2l-2 4-4 2-4-1 3-1v-2l4-1v-2l11-8 4-6h2v-2l8 1 2-8 3-4h2l2-6z" fill="#987866"/><path d="M454 22l2 1-2 5-7 1 3 1 1 2 4 2 2-1 3 6 5 4v2l4 1 2 3v5h-2l-1-2-9-3h-3l-2-1-4-8 7 1-4-5-7-4-8-3v-2l4-2h10z" fill="#918881"/><path d="M768 300l2 1v81l-2 4v5l-2-4-1-3 2-7v-61l-3-9 1-6z" fill="#27365d"/><path d="M410 187l4 1 5-1-1 3-10 5-3 8-1-3h-3l-2 2h-3v5l1 1 1 15-1 5v8h-2l-1 16-2 2v-9l1-4-2-8v-7l4-9-1-9-2-3 1-4 7-6 5 1 1-3h3z" class="D"/><path d="M407 411l4 1 7 8 4 4v2l8 2 32 1v1l-39 2h-3l-4-1-7-9-2-5z" fill="#c2ab9f"/><path d="M534 306l5 2 2 6 4 5 1 2 1 13-2-1-2-5 1-1-1-7-3-1-3-7-2-1-1 7-3 8-3 2-8-2 1-5 5-7 6-1 1-6z" class="R"/><path d="M438 274l2 1v2l5 2 2 7v5l-4 4h-2v2l-5 3-7 3-4 2h-20l-3-2 20-1 5-2 10-10 3-1 1-8-3-4z" fill="#8c6a5a"/><path d="M527 97h2v2h4l1-2 2 1 2 4 7 3 1 5 10-2-2 4-2 2v3l-2 4v-2h-3v-2h2l-1-3h-4l-3 3v-3l-5 2-1-5 3-2v-5h-2v-2h-3l-1 4-9 1 2-5z" fill="#695b51"/><path d="M702 459l3 3 2 5 4 4 3 1 4 9v10l-2 10h-2l-1-12h-2l-6-14-3-13z" fill="#d5ad46"/><path d="M435 208h11l-3 3h-11l-4 4 1 1 3-2 6-1v2l2 2-2 4h-3v2l-7 3-2-3-1 10-2-3-1-2v-10h-3l1-5 1 2 5-3 4-3z" fill="#a47f6a"/><path d="M454 308l5 1 5 5v2l-4-2-10 1-4 1v2l-7 5-3 1 7 1 2 3 8-2 4 1-6 1v2l-7 3h-3v-2h-2v-2l3-2h-7l-2 2-2-2-4-2 4-4 15-8z" fill="#725a4b"/><path d="M440 54l7 1v3l6 3-1-3 5 1 1 5h2l-1 5-4-1-2-1-1 4-8-3-2-2-4-1v-2l-2-1 2-5h2z" fill="#968b81"/><path d="M738 386h2l3 10 1 3-1 5-1 9 1 5-1 4v4l-1 2h-2v-7l-2-6-1-1v-17l-1-5v-5z" fill="#dfb642"/><path d="M419 186h3l-1 4h-2l-1 3h-2l-1 3-3 1-3 4-2 5-4 1-3-1v6l2 3-1 10h-2l-2 3-1-2 1-4-1-14-1-5 3-3h2l2-1 3 3 2-7 9-5 2-1z" fill="#d3aa97"/><path d="M442 245h5l5 6 7 2-1 3h2l2 4v6l-7-1v-2l-5 1-4-9-2-5h-2l-1-3z" fill="#e6bdac"/><path d="M239 701l3 1v2l7 2 12 8v3l3 1-11 3h-8l-1-3 2-1-5-9z" fill="#51423d"/><path d="M434 18h32l8 1v1l-5 1v1h-9v2l-6-1-2 3h-16l-3-5h6v-2h-5z" class="J"/><path d="M452 210h11l8 3 1 3h2l1 3-5-1-4 2-6-1-1 4-7-1-2-3 1-4h2z" fill="#7b5d4e"/><path d="M462 39l4 1 4 4h2v-3h2l3 7 4 7 2 6h-2l-1 3-5-1-1-2-3-1-1-3-6-3-3-4 7 1 1 3h2l-2-6-4-6z" class="F"/><path d="M452 579l2 1v2l9 4 11 6 2 2v3l-4 1 1 6-4-1-2-5-1-2-6-3h-5v-3l-2-1v-3h-2z" fill="#898f96"/><path d="M443 39l3 1 10 13 1 2 1-1-2-5 5 5 4 6 6 8v4l-4-2-4-6h-5l-1-5-5-1-2-5-4-4-4-6z" fill="#817b75"/><path d="M608 594h2l-1 5-10 7-5 3h-3l-1-4-10 1v-3l10-4 9-3 8-1z" fill="#212a47"/><path d="M418 740l8 4-6 7-12 9-1-2-3-1v-8l7-5 7-1z" fill="#2e3851"/><path d="M588 607h3v2l3 1h-2v2l-10 6-3 3-7 5-2-3v-2l-8-2 1-2 12-5 10-1z" fill="#303d66"/><path d="M391 254h1v8l-2 8 2 4v8l-4 10h-3v2l-6 1 2 10h2l-1 3h-4l-5-4-1-6 2-4 5-3 9-1v-13-3l-1-4 2-6z" class="D"/><path d="M447 210l5 1 1 4-2 1v7l8 1 8 5v6l7-1 4-1v2h2v2l4 2v9h-4v14l-2 1-1-6-1-7 3-1-1-3 2-3v-3l-5-3-9 1-3-5v-3l-9-3v-2h-4l-1-10 1-3-7 1 1-2z" class="B"/><path d="M375 29l5 1 4 1h6l1 4 2 1-1 3-4-3 2 6h2l6 11 2 4-5-3v-2l-3-1v-2l-4-1v-6l-4-7-1 1 1 4h-3v-2h-4l-1-2-4-2-10 1 1-2 9-2z" fill="#89827b"/><path d="M472 317l4 2h2v-2h2l-1 3-7 2 2 16-4 9-1-4 1-2v-6l-3 2-4 8h-2v2h-6l3-8 4-4 5-7 4-10z" class="B"/><path d="M414 139l2 3v2h-2v8l-4 1 4 7 5-1v2l3 1 1 6v6l1 4-1 4h-2l-1 4-1-5 1-7-1-8v-3l-9-1-6-3-2-4 5-3 3-4v-4h2z" class="v"/><path d="M433 390l1 2 4 1-11 5-12 3-11 3 1 5-5-2-6-4 1-4 13-1 17-3 5-4z" fill="#c9a99d"/><path d="M550 573l1 2-6 12-9 17-3 7-2 4v10l-2 6-1 9-2 4-1-12 1-9 2-9 6-15 6-9 7-12z" class="X"/><path d="M331 116l2 4v7l-3 9-1 8v12l-1 4h-2l-1 5h-1l-1-5v-16l2-9 3-9 2-3z" class="v"/><path d="M720 381l8 1 4 2h-4l3 9-1 11-6 2-4-14-2-6 6-2z" fill="#cc973a"/><path d="M423 591h7l5 6v2h2l1 2 3 2-6 1-6-2 1 6h-5l-1-3-2 2-2-3 1-7h2z" fill="#737274"/><path d="M553 354v3l-2 3h5l5 9 1 4 3 1-4 3-3-3-7-2-3-5-5 1-2-2 6-7z" fill="#afa7a0"/><path d="M568 81l2 1 1 4 7 5-1 5-4 1 3 2v5l-4-2-1 3h-2l-1-3-5 5-3-1 1-4h4v-3l4-2-3-5 4-1-1-2-4 1-3-1v-2l5-1z" fill="#94887e"/><path d="M476 592l6 2 5 4 4 9 2 5-1 4-7 1-3-6-2-12-4-5z" fill="#080a11"/><path d="M415 377l2 4h2v5l-9 3-3 2-8-1-1-5 5-5 11-2z" class="n"/><path d="M488 331h1v6l-4 9-3 9-4 9-7 2-2 5h-1v-9l2-7 9-5 3-1 3-10z" fill="#ad8976"/><path d="M451 221l7 1h9v2h5l1 5 1 1 9-1 5 5-2 3-6-3-1-2-7 4h-5l-2-6 1-1-7-4-8-2z" fill="#b08b76"/><path d="M514 611l2 1 2 28 2 10-5 5h-3l1-43z" class="u"/><path d="M502 740l2 1-3 6-5 8-6 11-6 10-6 11-4 4-1-3 6-12 9-15 6-9 7-11z" fill="#ab1320"/><path d="M492 674h3v2h-2l-1 4-5 1v2l-11 8h-3v2l-4 1-1 2-2-1 3-5h-1l-2-1 9-7 6-4 2-2v3l4-1v-2z" fill="#d2ab99"/><path d="M421 332l9 2v2h9v3h-2v3l-5 2-3 5-3 3-1 4 4 1-5 3-3 3h-3l-1-4 2-3h2l1-5 3-3 4-1v-6h2v-2l-12-2z" class="B"/><path d="M519 717l2 1-2 7-3 1-1 3h-2l-2 5-5 9-3 5 1 2h-3l-2 5-1 4-2 2-5 4 1-5 3-5 7-11v-4l2-4 9-12z" class="O"/><path d="M506 334h2l1 4-2 10-2 4-7 6-1 5-1-2h-2l2-9 3-8 5-9z" class="w"/><path d="M387 734h8l4 2-3 1-1 8 1 4 4 7 1 3h2l-1-2v-7l4-5 4-2h8l-4 2-4 1-4 3h-2l1 8 2 1v3l-4 3-4-1-3-8-4-7-1-5-8 1 4-3 4-1 1-5h-5z" fill="#242d44"/><path d="M583 125l3 1-1 8 1 6-4-1-1 8v2l-1 8-3-1-1-12v-16l5 1z" fill="#9b9794"/><path d="M418 488h1l2 13 2 9v10l-2 14-2 4 2 1-7 6 3-15 1-9z" fill="#abacac"/><path d="M460 358l1 4-2 3h-2l1 5-4 2-7 14-2 1 2-12h3v-2h2l-1-5-5 3-8 1-6-3 1-2 3 1 5-1h3l7-4h3v-2z" class="E"/><path d="M390 328h13l16 1 1 5-1 1h-19l-9-4z" fill="#e1cbbd"/><path d="M442 65l3 3v2h2l2 5h-3v2h-4l1 4v3l4 4-2 4-4-3v-2l-4-2 3-8-3-1-2-5v-3h5v-2z" class="S"/><path d="M355 217h7l-6 7h11l2-2h7l1-3 3 1-3 8-6 1-2 4-1-3-5-1-4-1-4-2-2-5-4-1z" fill="#b49382"/><path d="M419 24l2 1v3l3-1v2l4 1v2l7 2 8 9v4l-4-1-6-5-4-6h-2l4 6-1 2-5-5-4-3-2-9z" class="N"/><path d="M401 221h2v26l-3 10 2 3 1 16-5 13-3 3 1-4 3-10 1-13-3-5 1-7 2-4v-22l-2 1 1-4z" fill="#b48d76"/><path d="M533 65l2 2h-2v3h2v6l-5 2v2l-11-1v-2l-5-1 2-2 6-1v-3l4-3z" fill="#6a5d53"/><path d="M448 280l5 1 3 4 3 1 1 7 2 1v3l-2 2 1 7h-3l-5-11-2-3z" class="U"/><path d="M593 225h2l1 5-2 3h-2l1 4h-2l-2 6-12 4-1 2-3-1 2-2 2-5 9-7 2-4h3v-3h2z" fill="#6a4e3f"/><path d="M437 628h13l5 1-1 3h-5l-10 4-8 1-9-1 3-3 5-1v-2z" class="G"/><path d="M231 750l1 3 5 1 5 5v2l4-1 5 2 4 2v2l-4 2-25-11-1-4h3z" fill="#3c496f"/><path d="M467 367l1 4-4 6-2 6-6 1v-2h-2v2l-4 4-4 5-6 4-3 1v2l-9 3 5-5 11-7 4-4 3-6 5-5 8-4 1-2h2z" class="w"/><path d="M560 124h2v5l-2 3 2 6-2 2h-6l-3 3v8l-1 1h-6l1-2h3v-7-4l2-1-1-3h2v-2h3l2-6z" class="K"/><path d="M204 697l4 4 1 5-1 1v7l14 4v2l2 1-7 1-4-3v-2h-6l-6-2 1-6-4-1-3-4 7-1h2l-1-5z" class="B"/><path d="M414 216h4l3 7v10l-2 3h-4l-3-9-2-1 1-7z" class="M"/><path d="M464 207l2 1v2l11 2v2l7 2 1 4-6-2-2-2-6-2-8-3h-16l-3 1-3 4-4-1 1-2-8 3-2 2v-4l4-4h11l3-2h9l9 1z" fill="#987966"/><path d="M457 27h6l3 2 6 2v2l10 5 1 2-5-1 1 5-5 1v-4l-4-1-10-9-3-3z" fill="#685b51"/><path d="M733 508l3 3v18l-2 13-4 12-2 1 1-9 2-11 1-26z" fill="#cc973a"/><path d="M572 126l3 1v6h-2l1 5h2l-1 11 1 3h-3v6l-4-5-5-6v-2l4-1 2-6 2-1-2-1 1-9z" fill="#817d79"/><path d="M561 67l7 6v2h2l3 7v5l-3-1-2-7h-7l-4-2-3-4v-2h2l-1-3z" fill="#a49f9a"/><path d="M488 275l2 4 3 14v6l2 2v13l-2 10-3 7-1-3 3-15v-7l-1-4-2-1-2-5v-9l1-5-1-5z" fill="#9f7c67"/><path d="M410 411h3v2l5 1 5 2 1 3 5 2 5 4-2 4-10-2-2-6-4-2-6-7z" class="B"/><path d="M476 604l5 1v7l2 6-5 1-3-8-4 2-2 3h4v5l-4 2-4-4 1-4h2l-2-6 7-2 4 1z" fill="#7f7b77"/><path d="M493 323h1v6l-3 7-4 13-5 12-4 7h-2l-1 5-3 4h-3v-3l4-4 5-8 3-7 4-11 3-7 2-8z" fill="#7c5f50"/><path d="M350 208h14l8 3v1l-15 1-10 3-4 3h-4l3-6h2l2-4z" fill="#e8c7b5"/><path d="M429 233l5 1 1 12 3 7v8l-1 6 3 5 2 4-4-2-3-4v-2h-2v-3l-3-1 3-1v-5l-1-1v-5h2l-2-7v-9h-3z" fill="#c3998a"/><path d="M409 212l2 1-2 3h-2v9l2 10 2 6v6l1 2-1 6h-2l-2 14h-1v-15l2-1-2-7-2-9 1-6v-10l2-7z" class="L"/><path d="M553 203l3 1 1 7h3l2 4-2 6v9l-2 4-2-3 1-5-5-2-1-2 1-3 3 1v2h2v-4l-4-2v-7h-3v-2h2z" class="M"/><path d="M410 306h21v2l3-1 2 1v2l2 1-2 4-10 6-8 4-3-1 11-7 2-5-1-3-17-2z" class="e"/><path d="M482 359l1 3-1 3h-2l-1 5-3 4-2 5-11 11-4 1-5 5-6 4h-3v-2l11-7 5-5 5-8 7-3 3-7h2l2-6z" fill="#675042"/><path d="M573 279h1l2 19 1 2 2 22v10l-3 1-1-2-1-28-2-10v-8z" fill="#bc9d8e"/><path d="M388 36l4 2 3 1 2 6 4 4v2h2l1 5h3l3 5 1 2-5-2-2-2v5l-1-2-4-1-3-6h3l-5-7-2-6h-2z" class="d"/><path d="M473 610l3 1 2 8 4-2-1-5 3 4-1 4-4 1-1 2-9 3-7 3-6 2-6-2-6-1 1-2h5l1 1h8l9-3 4-3 1-5h-4l2-4z" fill="#3c455f"/><path d="M575 147l2 1 1 8 2 1-1 6 3 10-2 2-1-5-1 1-1 5h-3-2v-2h2l-1-3 1-6 1-5h-2l-1-10 3 2-1-4z" fill="#93887d"/><path d="M371 308l6 1 1 4 5 1v1l-9 1v-2h-9l-3 8-3-1-1-4h-2l-1-7 5 3 2-4z" fill="#deb7a3"/><path d="M337 190l20 2 3 3-19 1-7 2-4 1v2l-4 1 3-7h2l2-4z" fill="#bb9485"/><path d="M495 67l5 1v2l5 1 6 4 4 3 5 1v2l4 1-9 3-4-2v-3l-4-2v-3l-3 3-4-1-2-8-3-1z" class="C"/><path d="M644 408l5 2 9 5-3 3v2h2v2l-12-4v-2l-4 1-2-1-1-5z" fill="#323b50"/><path d="M434 394h4l-1 3-8 5-11 2-12 2 4 5-4-1-2-3v-3l10-4 10-2z" class="B"/><path d="M415 263l1 2 4 1v5l-7 8-3 2h-3l1-12z" fill="#6b5142"/><path d="M405 245l2 1 2 7-3 1v15l-3 15-2 5-2 1-1 3h-2l1 8-5-1 2-6 4-8 4-10 2-13-1-10z" fill="#8f6e5e"/><path d="M497 211l6 2-1 6 5 1 1 1v10l1 2-2 4h-2l3 5-2 2-3-6v-2h2l-1-8-1-5h-2v-3l-4-1-1-3z" class="L"/><path d="M415 754l2 1-13 11-14 10-16 11-10 7-3-2 6-3 19-14 14-10 13-10z" fill="#c0a79b"/><path d="M171 660h8l1 3-5 1-1 4-7 7-3 1-1-1v-7l6-7z" fill="#d0b8ac"/><path d="M414 290h11l-1 4-9 4h-2l-1 3-3 1h-7l2-4 7-6z" fill="#1a1c26"/><path d="M427 194l3 1-1 6h-2v2l3 1-10 10 1 9-3-4v-3l-4 2-3 1v7h-1l-1-8 5-6 5-3 2-4 3-2 1-7z" fill="#705545"/><path d="M318 773h6l2 6-2 3 6 1-1 2-15 1-1-8z" fill="#394463"/><path d="M504 361h2l-1 4-4 8h-2l-2 5-6 5-5 1 1-11 3-10h1l-1 11h7l2-5 3-3z" fill="#674f41"/><path d="M450 198h15l7 3-1 4 1 6 3 1-7-1-6-5-1-5-17-1v-1z" fill="#755b4b"/><path d="M435 277l5 1 2 3-1 6-6 7-5 4h-2l-2 4-8 1 5-6 5-2 3-3 5-4 2-3 1-5-8 7v-3z" fill="#695142"/><path d="M462 701h3l-1 4-10 12-5 2-3-2-1-4h2v-2l5-2z" fill="#b39081"/><path d="M490 681l1 3-9 8-10 8-5 2-1-3 5-5 2-3 7-4 5-4z" fill="#e8e0d3"/><path d="M386 504h2v10l-3 9-2 2h-3l-2-3 1-7 6-10z" class="T"/><path d="M428 237l2 3 1 7-3 5-1 6 2 7-7-2-2-5 3-5 1-5z" fill="#a37d67"/><path d="M501 662h5v4h-4l-1 3-5 2-4 4-5 1v2l-4 1 1-5 8-7z" fill="#e0c2b2"/><path d="M370 291l1 2 7-1-4 3-1 3-4 4-1 5-3 1-5 5h-4l-1-4 2-4 3 1 6-2-1-5 2-6z" fill="#e6bdad"/><path d="M451 188l1 2 2 1-9-1-1 2-3 3-3 1-4 2-1 2 11-1-3 2-12 3-2-1v-2h2l-1-4 2-3 5-1 1-3z" fill="#55433b"/><path d="M341 206h12l6 1v1l-13 2-2 3h-2l-3 6 3 1-5 4-1-4v-2h-1v-6l2-2z" fill="#e1bdaa"/><path d="M460 187h7l9 3-1 5-3 3-12-1-4-2 7-2 8 3-3-4-8-1v2l-7-1 1-2z" class="G"/><path d="M334 104l1 4v3h-2l-2 12-2 3-4 13-1 5h-1v-12l7-25 2 1z" fill="#d7c2b5"/><path d="M711 365l2 1v3l5-3 1 6-1 5 2 3-9-1-5-2 2-6z" fill="#3f486a"/><path d="M578 332v3l-7 6v-3zm-8 9l2 4 4 2 2 4-4 10v3h-3l1-2v-7l2-2h-2v-2l-5-2-3-2z" fill="#d5c0b4"/><path d="M461 318l4 1v4l-18 6-3-1-1-3 8-5z" fill="#0d1018"/><path d="M435 187l2 2h-3l-1 3-7 4-1 8-4 2-3 5-4 1-2 4h-2l-2 6h-1v-6h2l2-4 4-3h3l1-4 2-3 4-12z" fill="#775d4e"/><path d="M413 46l2 4 4 6 3 2 1 5 3 4-5 1h-5l-4-7 1-3h2l-2-6-1-5z" fill="#aca59e"/><path d="M539 77l4 1-3 7-2 4 5 1v5l-7 1 1-2 2 1 1-3-2-1-7 1-4-1v-2l7-2 2-1 1-3h-2v-2l-4 1v-3z" fill="#6a5d53"/><path d="M356 227l5 1 3 4 1 5h5l4-1v2l-6 3h-10l-2-6 1-5-4-1z" fill="#d4ab98"/><path d="M570 188l1 3-6 9h-4v8l-2 4-3-1-1-6 4-1v-9l1-3 8-3 2 1z" fill="#725a4a"/><path d="M466 179l8 1 1 2-2 2 1 2-5-2h-9v2l-5 3h-4l-15 2-3 3-3-1 4-4 17-3 8-3 6-3z" fill="#745a4a"/><path d="M421 67l2 2-1 2h2l-1 3 2 1-1 5-1-3-3 1-1-4h-2l2 5-4 4-7-2v-4l7-2 1-4 1-3z" fill="#caa79a"/><path d="M535 63l11 4 1 2h7l-3 2-1 2-9 1-6 1-1-3 1-2h-2l1-6z" class="d"/><path d="M464 697l3 1v4l2 1-9 11-8 11-2-3 8-11 2-3h2l2-4 1-3-7 3-3-1 3-4z" fill="#e2c6b7"/><path d="M399 41l4 2 3 4h4l2-2 2 7 1 4v2h-2v3h-2l-4-7-5-4-3-5z" fill="#9b9795"/><path d="M396 432l1 4-1 10-7 1-3 3-2-2 2-2-1-2 1-3h2l2-5 2-3z" fill="#3a3e51"/><path d="M554 632h8l-5 4-11 8-9 4v-3l3-4 6-2 1-3z" fill="#2c395c"/><path d="M365 280l1 3-1 3h-2v5l-3 4-5 13-2 1-1-5 4-13 7-9z" fill="#b08972"/><path d="M420 265h9l9 8-2 1-5-2v3l-5 4-1-3v-4l-5-1z" fill="#795d4d"/><path d="M422 189h5l-2 1-1 5-3 9-3 5-5 3h-2l1-7 6-7 3-8z" fill="#9b7a67"/><path d="M335 188h9l9 1v2h6l9 4 1 3-9-3-3-2-13-1-7-1-5 2-1 2h-2l-2 6-1-3 3-9z" fill="#d2aa99"/><path d="M171 669l2 1-2 5h2v2l4 2 1 3h-3l-1 5-6-3-4-6 1-3 5-3z" class="t"/><path d="M364 45l4 1 8 4-1-4 2 1v4l3 1v2l-2 1v5l-2 1-1-5h-3l-1 3h-2l1-7h-2v2l-2-1-3-7z" fill="#837c76"/><path d="M468 20h10l8 2v3h-3v2h-11l-10-4 2-2z" class="J"/><path d="M454 382l8 1-4 5-6 1-5 6-3 1-2 3h-2l-2 4-4 2-4-1 3-1v-2l4-1v-2l11-8 4-6h2z" fill="#9c7a67"/><path d="M365 313h7l2 1v2l2-1h7l8 3-2 3h-2l-1 2-1-1-8-1-1-3-7-1-2-1-4-1z" class="a"/><path d="M661 694l2 1-5 5-3 1-3 6-5 3-8 7-4-1-2-3 8-4 14-10z" fill="#62483d"/><path d="M354 195h6l8 6v2h2v2l3 1v1h-12l-26-2v-1h28l-3-5-1-3h-5z" fill="#a98571"/><path d="M438 33l5 2 4 4 1-3 4 4v2l7 12 1 2-4-1-4-6-6-7v-2h-3l-2 2-5-7h2z" class="J"/><path d="M470 687v3l-3 5 1-1 4-1-1 2h-2l-1 3-6 1-5 2-2 5-6 3-3-1 5-2 1-4 12-12 5-2z" fill="#d7b5a4"/><path d="M515 302l3 1 2 6-1 1 1 12-2-3v-2h-2v-3h-2v-2l-5 2v-7l4-4z" class="Z"/><path d="M761 355l3 4 3 5 1 13-2 7-2-1-2-10z" class="T"/><path d="M403 631h5l1 5h5l-1 2h-6v3l-3 3h-2v-3h2l-1-5-4 1v3l-4-1 1-7z" fill="#787779"/><path d="M400 595l1 4-3 4-1 9h3v3l6 1 1 6h-2l-1-4-5 1-4-2-1-6v-9l1-2h2l2-4z" fill="#b3b5b5"/><path d="M431 413h5l3 6 4 3 2 7h-13l3-4 1-6h-2v-3l-3-1z" fill="#968b81"/><path d="M378 324h10l-1 3 7 5 7 3v2l-8-1-9-5-1 2-1-3h-2v-2h-2z" fill="#9f7c6a"/><path d="M185 668l9 2 4 3-2 6 4 2 2 5-2 1-4-6-5-3-5-4-2-4z" class="S"/><path d="M441 279l3 1 1 9-3 4h-2v2h-6l-1 3-5 2v-2l7-5 3-4h2zm-19 23l4 1-2 1h-22v-1z" fill="#7a5c4d"/><path d="M360 195l6 1 4 3v2l5 2 2 5h3v4l-11-3-16-2v-1h19l-2-1v-2h-2l-4-4z" fill="#b9927f"/><path d="M439 166l5 3-3 5-2 1-2 5 1 3-8 1-6 5-3 1v-2l7-5 2-5 6-4z" fill="#c59a8b"/><path d="M507 32l6 2 18 11 5 3-1 3-5-2-4-1-8-7-5-3-7-3z" fill="#776f68"/><path d="M417 490h1l1 6v25l-1 11-2 10-3 4 2-18 2-27z" fill="#78726b"/><path d="M416 490h1l-2 27-3 28-3 6-1-3 2-6 1-18 4-32z" fill="#363b50"/><path d="M763 305l1 2 2 1 1 5-3 10-1-2-3 3h-2v-2l-2-1 4-10z" fill="#184687"/><path d="M322 137h1l1 28h2v3h2l1 7-3 3h-3l-1-7-1-19z" fill="#e5c5b4"/><path d="M461 63l3 1 5 7 2 1 1-4 5 5v6l-5 1-1-2-4-2-6-9z" fill="#746960"/><path d="M590 447h2l-1 5-8 15-5 6-5 2 1-2-3-2 6-3 8-13z" class="u"/><path d="M425 234l3 3-3 11-2 7-2 5 3 3 3 2h-6l-4-9h3v-9z" fill="#906e5e"/><path d="M379 226l1 2-5 2 1 4-6 4-7-1v-5l-3-5 5 2 4 1 1 1 3-3z" class="P"/><path d="M220 689l5 3 2 10 6 7 3 2v2l3 1v3h-3l-1 2-2-5-3-3-2-4-2-1v-2h-2l-4-9z" fill="#7f6556"/><path d="M452 579l2 1v2l9 4 5 3-1 3-11-1-3-2v-3h-2z" fill="#7d8189"/><path d="M442 341l2 3-4 2-1 2-3 1-1 2 6-3 4-1h3l5-1-6 7-3 2-4-2-2 1-5-2-1-3 4-4 3-1z" fill="#967767"/><path d="M347 79l3 1-3 1-1 5-6 7-4 9-4 7-1-4 4-10 1-5 3-1 6-9z" fill="#a0928a"/><path d="M344 67l2 1-2 3h-2l-2 7h5l-1 5-4 4v-3l-3 5h-4l2-9 1-2h2l2-6 2-4z" fill="#c7b8ab"/><path d="M413 65l3 1-1 5-5 5-8-1-3 2-5 1-3 1-2-1v-2l10-2 2-2 7 1v-7l5 1z" fill="#b89486"/><path d="M394 219l4 4-1 5v8h-2l-1 16-2 2v-9l1-4-2-8v-7z" fill="#e4bba9"/><path d="M166 657h2v3l2 1-6 7-1 3h-3l-1 4-5-1 2-5 8-11z" fill="#2a3143"/><path d="M416 413h6l3 1h6l3 2v3h2v7l-4-2-8-5-3-3-5-2z" class="x"/><path d="M233 760l6 2 21 8 18 6-1 2-7-1-28-11-9-4z" fill="#f6f7f4"/><path d="M553 237h3l2 3 1 8 1 5-2 6-3 1-2-14 1-4z" class="Z"/><path d="M370 754l1 2-2 4-2 12v7l5 2-1 2h-2l1 5-5 3-1-7v-10l3-15z" fill="#242c42"/><path d="M452 210h11v2l6 1v3l-10 1-1 1h-5z" fill="#171a24"/><path d="M478 41h2v2l5 1 1 3 4 1v2l-4-1-5-2 1 4h3l2 5-5-2-1 3-3-6-3-5v-2l3-1z" class="y"/><path d="M479 427l21 1 6 1h7l-2 4h-3l-8-1-1-1-8-1-28-1v-1z" fill="#bdb5a8"/><path d="M629 541h5l-3 3-7 2-15 5-17 8-2-1 12-7 11-5z" fill="#121520"/><path d="M584 333l5 1 6 7 2 5-1 3-2-3-2 2-2-2v-3h-3l-3-7z" fill="#2e3343"/><path d="M454 308l5 1 3 2-1 2-5-1-9 3-9 7-8 4-3-1 4-4 15-8z" fill="#7c6659"/><path d="M442 130l3 3 2-1 1 13-5 3-5-1 3-1v-2l-2-1h3v-2l-2-1v-4h2z" fill="#b89078"/><path d="M434 18h32v1h-19l-1 4h-2l-4 3-5-1-2-4h6v-2h-5z" fill="#c7c0b5"/><path d="M204 682l5 1-2 4 3 1v2l3 1 4 10v3l-4-2v-3h-3l-1-3-2-2 1-2h-2l-2-4z" class="H"/><path d="M429 617l9 3v5l6-2 2 2-2 3h-12l-2-8-2-2z" fill="#9aa2aa"/><path d="M552 76h5l4 2 7 1-1 7-4 1-2-4h2v-2l-4 1-1 4-3-1-4-5 2-1z" fill="#817b76"/><path d="M586 565l3 1-3 3-8 4-8 8-6 10-8 11v-3l8-14 4-6h2l1-3 10-8z" fill="#242c42"/><path d="M420 493l2 4 4 16-3 21-2 4h-2l3-18v-10l-2-9z" fill="#d6d6cd"/><path d="M454 391l2 1-3 1-1 2-5 3h-2l1 6-5 5h-2v2h5v1l-12-1v-2l9-3 1-8 2-3z" fill="#6b5b50"/><path d="M508 328l4 1 1 7-1 7h-2l-3 12h-1v-7l2-10v-4l-3 1v-3h2z" fill="#a27c67"/><path d="M456 228l7 1 2 6 1 2h5l-2 3-7-1-8-3 1-3 2-1z" class="E"/><path d="M497 219l4 1v3h2l2 5v8h-2l1 5-3-3 1-4-2-1-1-9-5-1v-3z" class="I"/><path d="M440 54l7 1v3l4 2-3 1-1-1v3l-4-1-1 4-4-1v-2l-2-1 2-5h2z" fill="#9c9795"/><path d="M450 40l4 1v2l4 1v2h6l1-3v2l4 1 2 3v5h-2l-1-2-9-3h-3l-2-1z" fill="#90867d"/><path d="M368 33l5 1 4 2v2l4 1-6 1-6-3-3 1-2-1v2h2l-1 2-8-2 2-4z" fill="#88817a"/><path d="M430 317h6l-1 3-5 3h-2v2l3 2h-16v-2l10-4z" fill="#987b6b"/><path d="M470 217l1 3h3l2 4v3l4 1-7 3-1-2v-4l-5-1v-2l-8 1 1-4 9-1z" fill="#836353"/><path d="M593 202l2 2v4h2l1-2v3h2l1-2-1 5-1 17-1 7h-1v-15l-2-6-2-3-1-9z" fill="#8e786b"/><path d="M437 30l12 2 9 8-1 2-4-1-5-4-1 2-3-1-4-4-3-2z" fill="#b3aaa1"/><path d="M458 619h8l3 2-1 4-9 3h-4l1-6z" fill="#85888c"/><path d="M397 603h1v8h6l1 2h6v2l3 1-1 5-2 2-3-1v-4h-2v-2l-6-1v-3h-3z" fill="#979ca1"/><path d="M709 494h3v12l-4 5-5 1v-4l4-7z" fill="#1c1e26"/><path d="M799 419h1v19l-1 6h-2l-1 2v-9l-1-7 2-9z" fill="#cf9b38"/><path d="M538 397l3 1-8 8-7 9-2-2v-5l5-5 3-1v-2l5-2z" fill="#7f7a76"/><path d="M365 164l9 1 2 5-3 3-6-1-4-2 1-5z" class="g"/><path d="M416 68l1 3-2 4-4 1-1 2-2-1 1 3-4 2-4-3-4-1-4 3-5-2 1-3v2l5-1 7-2 2-1 7 1 3-1 2-4z" class="E"/><path d="M407 605h4l1 2 3 1 3 6h-5l-1-1-14-2 4-1v-3z" fill="#414960"/><path d="M407 523h2l-1 14-2 10-2 3-1-6v-10z" fill="#161821"/><path d="M489 346l2 4-1 6h-2l-2 9-3 4h-2v2h-2l-2 4-2 1 2-4 3-7h2v-3h2l1-7h2z" class="V"/><path d="M399 341h3 12l4 1v4l-5 1-7-1-6-1z" fill="#e7c5b2"/><path d="M511 322l3 1 1 8-1 7-2 2-1-11h-3l-1 3h-2l-1 5-3 5-1-2 7-14z" fill="#8d6b5b"/><path d="M482 272l3 1 2 10 1 6v7l1 4-6-5 1-10-2-4z" class="x"/><path d="M403 51l4 2 4 5 3 7-1 3-5-2 1 4h-2v-4h-2l-2-5 1-3 5 4-2-3v-3h-3z" fill="#8f857c"/><path d="M225 693l3 1 2 10 3 1v2l4 2 5 5-1 4-5 2v-3h3l-1-3-7-6v-2l-3-1-3-6z" fill="#6d594c"/><path d="M683 682l3 1-20 20-6 4 2-7 5-3 10-9 4-4h2z" fill="#edcc3c"/><path d="M492 674h3v2h-2l-1 4-5 1v2l-6 4-3-1 3-5-3-1 5-4v3l4-1v-2z" fill="#b19586"/><path d="M394 611h1l1 6 7 1 1 8h-4l-1 2-2-2v-4h-2v9l-2 1z" fill="#868c94"/><path d="M418 488h1l1 5v31l-1 14 2 1-7 6 3-15 1-9z" fill="#8e939b"/><path d="M385 465l1 3-4 5-1 4 3 1v2h5l-2 10h-3l1-8-5 1-4-3 5-9z" fill="#144487"/><path d="M796 343h1l3 18v15l-1-3h-2l-1-3z" fill="#496c9a"/><path d="M422 34l4 4v2l4 1-4-7 4 1 7 9 2 5-7-4-7-1v-3h-2l-2-6z" class="J"/><path d="M418 609l20 2v3l3 1v3l-4-1v-2h-9v-2h-3v2l-4-1-3-3z" fill="#a0a6ad"/><path d="M454 313h6l-1 2-4 2-2 2-6 2-5 2v2h-7l1-2 7-4 3-1v-2z" fill="#635043"/><path d="M397 305l5 2v3l4-1 5 2 2 5-3 5-4-1 1-2 2-1-4-3-3-1v-2l-4-1-3-2v-2z" fill="#bfb6a9"/><path d="M430 19h2v2l-12 3-1 5h-5l-1-3h-2l-1 2h-4l-1-2-3-2 17-2 1-1z" fill="#bfb7ad"/><path d="M149 690l4 2 6-1 3 1 1 2 9 1v1l-15 1-9 1z" fill="#3f4861"/><path d="M464 296h8l3 4-4-1-2-1v3h2v8l-3 2-2-2-5-2 4-1 1-7-2-1z" class="U"/><path d="M472 225l1 4 1 1 9-1 5 5-2 3-6-3-1-2-5 3h-4l-1-5z" fill="#aa8571"/><path d="M403 465l3 1-1 3v10h-2v2l-4-1-1-8z" class="f"/><path d="M405 269l2 3-1 9-3 10-5 6v4l3 1-2 1-3-3-1-3 1-4h2l1-4h2z" fill="#7d5f4f"/><path d="M472 409l3 1-9 6-14 1-2-1v-2l-3-1v-1h16l7-2z" class="K"/><path d="M585 244h8l-1 4h-2l1 7-2 3-1-1-4 4-1-2h2z" fill="#8b6c5d"/><path d="M351 198h7l5 3v3h-15l-2-1v-2h4z" fill="#685547"/><path d="M490 161h2v5h-2l-2 9-8 6v-5h2v-2l2-1 1-4h2l-1-6z" class="h"/><path d="M402 635l2 1v5h-2l1 6-4 1-5-5v-3l3-1 2 1v-3z" fill="#a0a2a3"/><path d="M342 50l1 4 3 1-2 6 2 3-6-2-2 3h-3l1-6z" fill="#cabdb1"/><path d="M310 750h3v14l-2 5-2-1-1-3v-9z" class="X"/><path d="M694 469h2v3l-9 3-11 3-4-1 2-3z" fill="#393d50"/><path d="M475 265h2v2l2 1-1 3 1 2v19l2 5 3 1v2l-5-1v-2l-3-1-1-4 2-16z" class="B"/><path d="M577 260l2 1-2 10 3-1-2 4-3 2-3-3-3 1-3-1 1-3 5-3h2v-2h2z" fill="#715849"/><path d="M447 210l5 1 1 4-2 1v7l8 1 8 5-3 2-10-4v-2h-4l-1-10 1-3-7 1 1-2z" fill="#b69080"/><path d="M456 49l5 5 4 6 6 8v4l-4-2-7-10-3-4 2-1-3-4z" fill="#8d847b"/><path d="M481 47l5 1 7 3v2l6 2 3 4-6-1-5-1v-2l-4-2-5-2z" class="C"/><path d="M413 392h10l-1 2-9 2-10 3h-8l-1 3-3-1 2-4h7l8-3z" fill="#ddb8a5"/><path d="M481 317l2 2-1 11-2 6-3-1v5l-2-4 1-8v-3l3-1z" class="D"/><path d="M587 226l1 3-2 4h-3l-2 4-7-1 1-5h3 2l1-3z" fill="#191b24"/><path d="M580 157h1l-1 7h3l2-4 2 3v8h-2v3l2 1-5-1-4-12z" fill="#a49f9a"/><path d="M490 320h1v6l-5 13-4 10-4 3-2-1 3-4 2-5h2l1-7 1-3h2v-5z" fill="#b28c76"/><path d="M579 245l4 1h-2v7l-2 3h-2l-1-1-4 2v-2l-2-1 3-5h3l1-3z" class="M"/><path d="M450 613l4 1 2 1h5v-2l3 1v6l-11-1-4 1-2-4z" fill="#9ea6ae"/><path d="M377 219l3 1-3 7-9 1-1-1-8-1v-1l8-1 2-2h7z" fill="#947260"/><path d="M544 54l11 7 6 5-4 1-6-3-3-3-6-2-1-4 3 1z" fill="#999087"/><path d="M419 24l2 1v3l3-1v2l4 1 1 3-2 2 4 6-1 2-5-5-4-3-2-9z" fill="#b1a8a1"/><path d="M430 630h11l1 3-11 3h-9l3-3 5-1z" fill="#090b13"/><path d="M427 479l2 1-10 8-2 2-3-1-3 15h-1l1-16 7-4z" fill="#1d2a4f"/><path d="M605 425h3v3l-13 17-3 4-1-3 7-11z" fill="#151721"/><path d="M499 419l11 2v2h3v2l-8-1h-25v-1l15-2z" class="J"/><path d="M571 312l2 2v17l2 1-1 5-2 1v-2h-3v-14z" fill="#917162"/><path d="M393 292h2l-2 8 8 3-1 2-17-5 1-4h8z" fill="#b69181"/><path d="M441 200h20l2 2v4l-2 1-1-2-4-1v-2h-13l-9 3h-3v2l-4-1 6-4z" fill="#b28c79"/><path d="M534 141l2 2 1 6h2v3h2v2l3 1-2 5-4-4v-5l-7 1 1-9z" fill="#645246"/><path d="M551 134l7 2v2l-6 4-1 3v6l-1 1h-6l1-2h3v-7-4l2-1-1-3z" class="Q"/><path d="M578 541l1 2-4 7h-3l-7 8-2 3h-2l-2 4-5 4 2-4 6-9 8-7 4-5z" fill="#10121e"/><path d="M462 311l7 7v7l-4 7-5 7h-2l-1 2 1-5 4-6h2l1-4 2-2-1-5-4-6z" fill="#a6816d"/><path d="M477 320h3l-1 4-3 3 1 5-1 3h-3l-2-11 1-3z" class="t"/><path d="M456 47l5 2 4 5 6 3 1 7h-3l-1-4-6-2-3-5-3-4z" fill="#665950"/><path d="M381 34l4 1 4 8v5l3 1v2l-4-1-3-2v-2h-3l-1-6h3z" fill="#746b64"/><path d="M599 596l3 1-8 4h-2l1 3-9 2h-4v-3l10-4z" class="G"/><path d="M384 218l2 1-1 7-7 10-4-1 1-5 5-2v-6l1-2h3z" class="o"/><path d="M337 183l1 2 9 2 6 1v1h-18l-4 1-2-1-1 6h-1v-6l3-3 5-2z" class="D"/><path d="M457 27h6l3 2 6 2-2 1-2-1 5 6h-3l-1 2-9-8-3-3z" class="d"/><path d="M502 784l10 1-1 2-22 5h-6l4-3 9-2z" fill="#cb3440"/><path d="M426 631l4 1-7 3 8 1v2l-16 2 1-4 3-3z" fill="#2b3346"/><path d="M476 604l5 1v7l2 6-5 1-3-8-4 1 1-3 6 1z" fill="#4b5266"/><path d="M723 360l3 1 3 19-5 1-1-4 1-6-1-7z" class="f"/><path d="M581 174h12l3 3-1 4v2l-5-1-4-2v-4h-5z" fill="#7b6255"/><path d="M485 327h1l-1 8-4 6-5 6-3 1-1 2h-3l1-6 3-4 1 3h2l2-3h2l2-5z" class="E"/><path d="M493 323h1v6l-3 7-4 13-3 1 1-6 3-7 2-8z" fill="#826253"/><path d="M768 300l2 1-1 27h-1l-2-16-2-5 1-6z" fill="#23355f"/><path d="M590 221l2 2-1 7h-3l-2 5-4 3-2-1 3-4h3l1-6-7 2v-4l5-1z" class="G"/><path d="M354 213h16l10 4v2l-3 1-1 2h-6l1-5-6-2-11-1z" fill="#6c5346"/><path d="M350 216l3 1-7 6-3 3-3 2h-3l1-5 5-5z" fill="#2a282e"/><path d="M326 179l4 2 2 3h2v-2h6l2 1v2l2 1-6-1h-3l-5 2h-2l-1 11h-1z" fill="#e6beae"/><path d="M490 207l3 1v2h-2l1 5-1 2-4-1v-2l-6 1v-2l-4-1 4-2 5-1z" fill="#6c5142"/><path d="M312 764h1l-1 18 3 1v2l-7-1 1-3v-3l-1-13 3 3z" fill="#1f2b4d"/><path d="M417 595l4 1v4l-5 1v2l-4-1 1-3-13 1 3-3z" fill="#3b445e"/><path d="M430 412l13 1 2 4-1 2h2l-1 4-4-2-5-5v-3h-6z" class="i"/><path d="M435 326h7l1 2-4 1v2h2v2l-9 2-1-8h3z" fill="#9e877b"/><path d="M352 209h2v5l-8 3-3 2h-4l2-4 3-3z" fill="#e8cab9"/><path d="M513 338h1v5l-5 10-3 8h-2l-1 5-3 3v-6l3-1 2-7h2l2-10 1-2h2z" fill="#816152"/><path d="M561 67l5 5h-3l-1 2 3 1v1l-10-1-1-4h2l-1-3z" fill="#a09a96"/><path d="M421 786l2 2-3 9-3 3h-5v-2h2l1-5h2l1-4z" class="O"/><path d="M448 280l4 2 2 5 1 4 2 5 2 10-3-4-3-7-2-3z" class="w"/><path d="M367 277l1 2-3 9-2 1v-3h2v-5l-7 8-4 10-1 5h-1v-9l5-9h2l2-4z" class="E"/><path d="M335 205h18v1l-12 1-3 3-1 2h-2v6l-3 2h-3l-1-5 6 1z" fill="#be9686"/><path d="M343 632h1l1 9 1 36 1 3-3 1-1-31z" class="T"/><path d="M429 619l2 1 1 8h5l-4 2-10 2-1-3 2-1 1 2 4-1-5-3v-2l3-1z" fill="#7e828a"/><path d="M421 332l9 2v2h9v3h-2v3l-4 1v-4l-1-1-13-1z" fill="#b7907c"/><path d="M432 210h12l-2 5-5 1 1-3-8 3-2 2v-4z" fill="#937565"/><path d="M462 190l6 1 3 3v2l-6-1-4-1-5 2-5-1-1-2 8-1 2 1v-2z" class="X"/><path d="M504 388h2l-2 4-8 4-14 10-5 3-2-1 8-5 4-4 11-7 3-2h3z" fill="#67594f"/><path d="M472 356h2l3 3 2-1-1 6-7 2-2 5-1-4z" fill="#9d7a67"/><path d="M377 281l9 2 2 3-3 2h-9l-1-3z" class="n"/><path d="M361 215h8l3 2-2 5-5 2-4-1 2-7z" fill="#1b1f2b"/><path d="M209 704l4 2 1 3-1 4 3 3h-6l-3-2v-7z" class="U"/><path d="M470 622h8v1l-9 3-7 3-6 2-6-2-6-1 1-2h5l1 1h8l9-3z" fill="#394156"/><path d="M613 595l2 1-6 7-12 7-4 2-1-2h2v-2l14-9z" fill="#dfc34e"/><path d="M476 594l3 2 2 9-8-1-2-6 5-1z" fill="#39435f"/><path d="M365 496l3 1-5 9-7 3 2-6 5-6z" fill="#2980ea"/><path d="M356 302l1 4-1 9 2 9h-2l-3-5-2-9v-5l3 3z" fill="#c89d8d"/><path d="M497 248h2l1 6-4 4-6-1-1 4-2 6-1-3 2-7 5-3 1-2h4z" class="i"/><path d="M472 215h5l3 3 5 2 1-2 1 4-8-1-2 4-3-3v-2l-3-1 3-1v-2z" fill="#7d6050"/><path d="M575 110l5 1 1 6 1 3h-3v4l-6 2 5-9-2-1v2h-3v-2h2z" fill="#89817b"/><path d="M473 785l1 3 1 2 7 2-1 2-9 2h-5l2-5z" fill="#cb2a3a"/><path d="M297 435l2 1-3 4-6 2h-10v-3l12-2z" fill="#51515d"/><path d="M489 341l1 2h3v-2h2l-1 7-5 1-2 6h-2l1 4h-2l-1 3 1-9z" fill="#684e3f"/><path d="M401 260h1l1 16-5 13-3 3 1-4 3-10z" fill="#ac8772"/><path d="M419 190l2 1-1 5-3 1-5 6h-2l-2 4-2 1 2-7 4-5 3-1z" fill="#c09787"/><path d="M218 704l5 2 5 4 2 5 4 3h-6v-2l-3-1-6-9z" fill="#a4806b"/><path d="M474 564l2 1-15 11h-3v2h-2l2-4 10-8z" fill="#10121e"/><path d="M395 560l1 3-6 11-8 15-1-2 5-12 5-9z" class="T"/><path d="M435 277l5 1 2 3-1 6-1 2-4-1 2-3 1-5-8 7v-3z" fill="#6a4f3f"/><path d="M440 727l4 1-4 2v2l-5 5-2 3v3l-4 1v-2h-2l1-3h2l1-3 8-7z" fill="#d6bdaf"/><path d="M449 610h14v2l-7 1h-8v2l-5-1-3-1v-2h8z" fill="#62646d"/><path d="M408 294l2 1-1 2 9-2-3 3h-2l-1 3-3 1h-7l2-4z" fill="#252c3e"/><path d="M341 206h12l6 1v1h-13l-4 1-6 9h-1v-6l2-2z" fill="#d2aa98"/><path d="M461 200h5l3 7 3 2v2l3 1-7-1-6-5z" fill="#846454"/><path d="M572 126l3 1v6h-2l1 5h2l-1 7-2-2v-3l-4 3 1-5 2-1-2-1 1-9z" class="r"/><path d="M468 377l1 2h-2l-1 6-7 6-5 5-6 4h-3v-2l11-7 5-5 5-8z" fill="#705546"/><path d="M390 339l7 1-2 5 5 2-4 1v-2h-8l-2-5z" class="D"/><path d="M423 327h8l1 6-1 1h-6l-2-2z" fill="#e3dccf"/><path d="M410 270h4v2l2 1-3 3-3 5h-3l1-9z" class="R"/><path d="M425 229l1 3h3v4h3l2 16-3-1-2-14-3-1z" fill="#b48d78"/><path d="M451 186h6l-3 4-3-1-15 2-3 3-3-1 4-4z" fill="#645346"/><path d="M431 466l4 2 2 2-3 3-4 1v2l-6-2 3-2 2-4z" fill="#0f50a7"/><path d="M409 212l2 1-2 3h-2v9l2 11h-2l1 8-2 1-2-8 1-6v-10l2-7z" class="I"/><path d="M457 204l4 1v2h3v2h-32l2-2 23-1z" fill="#cfa493"/><path d="M334 193l20 1v1l-19 2-5 2v2l-4 1 2-4h2v-2z" fill="#998375"/><path d="M473 182l11 2 1 2-17 1v-2l-4 1-4-2 9-1 3 1z" fill="#6a5142"/><path d="M411 25l3 1-1 8-4 2v-3l-5-2 1-4 5 1z" fill="#989594"/><path d="M415 627l5 1v4l3 1-6 1v2l-5-2-1-3h2v-3z" fill="#6b707d"/><path d="M430 304l8 2 3 5-2 5-6 1 3-4v-3-2h-5l-5-2z" class="H"/><path d="M402 247h1l2 16-1 6-2-1-2-10-1-2z" fill="#a27d67"/><path d="M448 217l2 3v5h4v2l2 1-4 1-5-3-3 1-3-1v-3h7l-1-4z" fill="#c7a192"/><path d="M575 164l2 3h3l2 7h-3v-5l-1 2-1 5h-3-2v-2h2l-1-3z" fill="#837e79"/><path d="M568 81l2 1 1 4 6 4-2 2-5-1-1-2-4 1-3-1v-2l5-1z" fill="#988e86"/><path d="M391 42l3 3 6 12-5-3v-2l-3-1v-2l-4-1v-5z" fill="#8a8580"/><path d="M340 682l3 1v14l-2 6h-1z" fill="#0e111e"/><path d="M514 632l2 2 2 18-4 1z" fill="#04060b"/><path d="M569 574l2 3-6 8-2 2-4-1v-5l3-4v4l5-3z" fill="#0e111e"/><path d="M586 341l1 2h3l2 4 2-2 2 3-2 3-3 1-3-3-4 1z" fill="#373e52"/><path d="M560 192l2 4v2l3 2h-4v8l-2 4-3-1-1-6 4-1v-9z" fill="#6e5b4e"/><path d="M387 54l6 2 1 5-1 2-6-1-2-1v-6z" fill="#5b4d44"/><path d="M494 44h2v2l9 2 7 5-2 2-12-5v-2l-5-1z" fill="#65574d"/><path d="M245 760l6 2 4 2v2l-4 2-10-4v-2z" fill="#414c6f"/><path d="M453 618h5l-1 7h-2v3l-5-1-1-2h2l1-3-2-2z" fill="#8b929b"/><path d="M533 477h5l3 3-7 6-2-1-1-7z" class="W"/><path d="M415 340h5l1 4-2 4-6 1h-11l1-2 10-1h5v-4l-4-1z" fill="#e0bbaa"/><path d="M388 326l35 2 2 6-5-1-1-3-16-1h-14l-2-2z" fill="#c9baae"/><path d="M461 318l4 1v4l-5 1 2-2-13 1v2l-6 1 1-2 7-4z" fill="#1f2533"/><path d="M415 216h3l3 7-1 6-4-1-2-7z" class="R"/><path d="M417 137l4 1 1 3h-2v2l-3 3v3h-4l1-5h2l-1-5z" class="D"/><path d="M568 121l2 2-2 7-1 4-6-1v-3h2l1-5z" fill="#857f7a"/><path d="M351 52l3 1 5 5v3l-6-1v6l-2 1v-3l-2-1 2-5h2z" class="N"/><path d="M399 41l4 2 6 8 1 4-4-2-4-3-3-5z" fill="#bab1a6"/><path d="M410 743h8l-4 2-4 1-4 3h-2l1 8 2 1-1 3-3-1-1-3v-7l4-5z" fill="#262e42"/><path d="M166 687h5l5 5-1 3h-7z" fill="#2f3546"/><path d="M539 646l2 1-10 8h-5v-3h2v-2z" fill="#cec0b6"/><path d="M433 615h4v2l6 1-2 7h-3l-1-5-5-1-1-3z" fill="#70737a"/><path d="M448 464l4 5-1 3-12 2v-2l7-4z" fill="#5c657a"/><path d="M427 337h5l3 4h-2l-2 6-5 5-3-1v-2l6-2v-6h2v-2l-4-1z" class="S"/><path d="M780 277l2 2 5 16-1 4-3-3-3-14-2-2z" fill="#26508b"/><path d="M449 212l1 3-4 7h-5v-4l3-4z" fill="#edeee2"/><path d="M587 115h1v29l-2 2-2-13 1-8z" fill="#c7c0b5"/><path d="M349 70l1 2h3v-2h2l-1 6-4 3h-3l-1-6z" fill="#8d8075"/><path d="M443 39l3 1 6 8-2 2v2h-2l-6-9z" fill="#918981"/><path d="M383 777l3 1-5 4-17 12-3-2 6-3z" fill="#bda498"/><path d="M459 390l1 2-4 6-2 5-4 1-1-4 1-3 6-4h2z" class="V"/><path d="M417 196h2l-2 5-3 1-2 6-4 4-3-1 5-8 5-4z" fill="#b38d77"/><path d="M443 201h11l3 3v2l-7 1 3-1-3-3-6 1h-6l1-2z" fill="#deb5a3"/><path d="M335 198l6 1 3 2v2l-4 1h-8v-3h2z" fill="#65564b"/><path d="M551 189l1 4 1 10-4-1v-6h-2l-1 2-1-4 5-2z" fill="#6b5447"/><path d="M437 149h3l4 10-4 2-2-4-2-1-1-6z" class="U"/><path d="M455 37l4 1 5 5 1 4-7-1v-2l-4-2 3-2z" class="J"/><path d="M488 331h1v6l-4 9-3 9-3 3 1-6 5-13z" fill="#9c7865"/><path d="M399 325h16v2h8l-1 2-17-1-6-1z" fill="#ab8a7a"/><path d="M436 294l2 2h-2v2l-4 1v2l-7 4h-20v-1l19-1 9-6z" fill="#836758"/><path d="M436 218l2 3h-3v2l-7 3-2-3-1 5h-1v-7l1-1h7z" fill="#c09787"/><path d="M435 208h11l-3 3h-11l-6 4-4 2-2-1 1-3v2l5-3 4-3z" fill="#b7907f"/><path d="M545 199l8 4-1 4h-2l1 4h-3l-3-8z" fill="#614f43"/><path d="M368 195l5 1v4l7-2 1-2h3l-1 4-10 3-4-4z" fill="#dcb4a0"/><path d="M451 181h5v2l3 1-8 3-13 1 4-2 5-2h4z" fill="#896959"/><path d="M548 122l2 2-3 3-4 5-4 1v-3l1-4 4-3z" fill="#6d6158"/><path d="M395 411h5l-1 16-1 5-2-3-1-5 3-9 1-2z" fill="#464f66"/><path d="M442 394h5l-5 5h-2l-2 4-4 2-4-1 3-1v-2l4-1v-2z" fill="#967766"/><path d="M567 339h2l-2 4-8 7h-2l2-6 5-4z" fill="#675043"/><path d="M546 335l3 1 1 5 2 6 1 2h2l-1 3-5-1-1-3z" class="R"/><path d="M393 241l1 2-1 2-2 16-2 5-3-6h2l1-10 3-8z" class="v"/><path d="M448 181h3v3l-13 4h-8l-1 2-2-2 4-2 14-3z" fill="#9b7966"/><path d="M533 135l6 1-3 4h-2l-2 7-2-1v-4l-3-2 2-1 2 1 1-4z" fill="#5f4f44"/><path d="M570 106l2 2h4l2-2 1 5-2 1v-2h-2v6h-3l-1-5-3-1z" class="F"/><path d="M401 70h7v3h-7l-2 2-10 1-2-3h11v-2z" fill="#ab8977"/><path d="M375 29l1 3 7 6-2 1-4-1-1-2-4-2-10 1 1-2 9-2z" fill="#a8a39e"/><path d="M420 333v3l-1 3h-15v-1l9-1-10-1v-1l10-1h6z" fill="#c89e8f"/><path d="M588 256l1 3-6 9h-3v-2l-1-2 1-4 6-1z" fill="#6c5649"/><path d="M597 223h1l-1 17-1-2h-3l-1-5h2l1-4-1-2z" fill="#7e6355"/><path d="M336 90h2v8l-6 11-1-4 4-10z" fill="#b0a8a0"/><path d="M522 82h4v2h-2l-1 5-8-1-3-3z" fill="#6f645b"/><path d="M476 21h7l3 2v2h-3v2h-11l-1-2h8l-4-3z" fill="#978c82"/><path d="M432 19h7v2l-5 1 2 3h6l-1 2h-8l-1-3-10-1v-1l10-1z" fill="#a5a3a2"/><path d="M429 602l6 1 5 2v2h-3v2h-4l-1-4-3 1z" fill="#9199a2"/><path d="M534 490l2 3 7 13v5l-4-4-4-10z" fill="#121520"/><path d="M375 484l3 1-1 4-2 5-6 1 2-5z" fill="#0e4187"/><path d="M434 394l3 1-15 6-12 3-4-1 9-3 12-3z" class="E"/><path d="M491 362h1l1 8 6-1-1 5-4 1-4-1z" fill="#876757"/><path d="M390 328h11l3 3v3l-5-1-9-4z" fill="#f4f5e8"/><path d="M450 289l2 3 3 4 2 7-7-1z" class="H"/><path d="M359 216h4v6l-1 1 7-1-2 3h-9l-2-1 2-4 3-2z" fill="#5c4e46"/><path d="M355 45h3v3h5l1 7-5-1v-3l-3-1z" class="N"/><path d="M418 519l1 2-1 11-2 10-3 4 2-18z" fill="#7c7773"/><path d="M513 343l1 3-3 12-3 3h-2l1-5 5-12z" fill="#694e3e"/><path d="M503 322l2 1-1 10-1-3-3 1-1 2-3-1 2-5 3-2 2 1z" class="V"/><path d="M430 247l2 4-1 6-2 7-2-4-1-4 3-8z" class="x"/><path d="M347 221l2 1-1 5 4 1v2h-6l-6-2 3-3h2z" fill="#b99382"/><path d="M451 221l7 1h9v2h5v1l-10 2-3-2-8-2z" fill="#9f7a66"/><path d="M382 169l4 1-1 10-2 3-2-6v-7z" class="g"/><path d="M354 759l1 3v17l1 11 2 1-8-1 4-1-1-8v-20z" fill="#272f42"/><path d="M250 708l5 2 6 4v3l3 1h-8l-3-7z" fill="#272e40"/><path d="M524 651l4 1-2 2 3 2-6 4v-4h-9l1-2z" fill="#bca193"/><path d="M403 631h5l-3 2-3 1-1 3h-2v3l-4-1 1-7z" fill="#71757f"/><path d="M588 607h3v2l3 1h-2v2l-9 5 1-5z" fill="#374260"/><path d="M473 301h2l4 7-1 7-3-4-3-9z" fill="#987563"/><path d="M399 265h2l-1 13-3 10-2 1v-7l1-3 2-7z" class="B"/><path d="M423 237l1 3-3 9-1 7h-3v-4l-1-3 4-7 1-3h2z" class="L"/><path d="M587 150h1l2 24h-5v-3h2z" fill="#cbc5ba"/><path d="M379 40h2l1 6h3l2 6h-2v-2l-3-1-1-2-4-1-1-5z" class="j"/><path d="M447 19h7v1l-5 1v2l4-1-1 4h-7l-3-2 3-3 1 1z" fill="#b2aca5"/><path d="M374 778h6l-2 4-8 5-1-4z" fill="#28375a"/><path d="M246 699l5 2 12 8 3 3-5-1-14-9z" class="f"/><path d="M514 661h5l-2 4-11 8v-3z" fill="#e3c6b6"/><path d="M774 477h1l1 13v7l-1 4h-2v-13z" fill="#dcae2b"/><path d="M400 282l1 4-3 7h-2l1 8-5-1 2-6 4-8z" fill="#9d7b67"/><path d="M439 233h11v2l2 2-5 1h-3-3l1-2-3-1z" class="z"/><path d="M533 104l1 2-1 2h2v2h-2l-1 3-7-2 2-1v-3z" class="C"/><path d="M371 74h15l3 2-14 1-3 2h-3l1-4z" class="P"/><path d="M388 36l4 2 3 1 2 6v2l-3 1-2-6h-2z" class="F"/><path d="M394 25l2 1-1 2h-2l-1 3-2-1-14-1v-1l14-2z" fill="#beb5ab"/><path d="M422 743l4 2-7 7-5 3 1-4h3l-2-3v-3h2v2h3z" fill="#31416b"/><path d="M462 701h3l-1 4-5 6-4 4-2-2 1-2h2v-2l4-4z" fill="#ada7a2"/><path d="M444 578l2 1 2 5-8 1v-2l-7 1 3-2 5-2z" fill="#84888e"/><path d="M407 413l4 5 6 10 2 3h-3l-7-9-2-5z" fill="#dbc9bc"/><path d="M401 335l15 1-3 2-16 1-4-2 4-1 4 1z" fill="#ba9485"/><path d="M360 195l6 1 4 3v2l5 2 1 3-2 1v-3l-6-1-4-4z" fill="#c19889"/><path d="M578 92l3 3-1 7-3-1-5-4 1-2h4z" fill="#9b948d"/><path d="M414 59l6 3 3 4-1 2h-6z" fill="#bcb3a7"/><path d="M463 35l4 1 6 6-1 3-4-1-5-7z" fill="#88817b"/><path d="M507 32l6 2 8 5-1 2-6-2-5-3-3-1z" fill="#797068"/><path d="M262 771l11 3 5 2-1 2-7-1-8-3z" fill="#e6e6e5"/><path d="M225 706l4 1 4 6 3 3-5 1-3-3-2-5z" fill="#937565"/><path d="M575 612h2l-1 3-6 3-1 2-7-1 1-2z" class="b"/><path d="M353 452h5l1 8-6 1z" fill="#373c50"/><path d="M452 210h11v1h-9l4 4 6-1-1 2-5 2h-5z" fill="#2f2f39"/><path d="M555 95l2 1-4 7-7 2v-4l6-1 1-4z" class="j"/><path d="M490 77l5 1v2l4 1v-2l5 2-1 4-10-3z" fill="#6b5142"/><path d="M505 75h2l2 4 2 1 1 4h-3l-2-1v-2h-5v-3h2z" fill="#615043"/><path d="M464 610l1 3 3-1v3h-2l-2 4-1-5-2-1v2l-6 1-2-3 7-1h4z" fill="#858a91"/><path d="M449 594h2l1 5-5 2v3l-4-1 1-4h2v-2h3z" fill="#7c7c7d"/><path d="M418 524h1v14l2 1-7 6 3-15z" fill="#8d949c"/><path d="M479 231l2 3 5 2 1 3-3 7-2-8-2-1v-2h-2l-1-3z" class="U"/><path d="M591 227l2 2-1 3-4 4-2 4-2-1-5 1 8-8 1-2h3z" class="C"/><path d="M450 202l3 2v2l-3 1h-9v-3z" class="g"/><path d="M233 698l6 3 4 9 1 2-4-2-3-5-4-3z" fill="#5f4c3f"/><path d="M666 688l3 2-7 8-1-3-3 2 2-4z" fill="#ca633d"/><path d="M169 661h8v1l-8 2v3h-2l1 3-4 1v-5z" fill="#dfc4b4"/><path d="M576 617l5 2-5 4-5 3-1-5 3-2 2-1z" fill="#343e5b"/><path d="M490 363h1l-1 11 6 1-3 4-4-1-1-3z" fill="#76594a"/><path d="M739 335l1 2-3 3-8 7-7 7v-3l14-14z" fill="#4c556c"/><path d="M453 326l4 1-6 1v2l-7 3h-3v-2h-2v-2l4-1v2h4v-2z" fill="#7d6153"/><path d="M493 310l2 4-2 10-3 7-1-3 2-10z" fill="#a37e67"/><path d="M472 317l4 2h2v-2h2l-1 3-7 2v8l-2-1-1-7z" fill="#be9688"/><path d="M568 280h4l-1 2-1 4-1 1v15l-2-4-1-13z" class="i"/><path d="M467 222h8l1 5 4 1-7 3-1-2v-4l-5-1z" fill="#8c6b5c"/><path d="M471 212h6v2l7 2 1 4-6-2-2-2-6-2z" fill="#8e6e5e"/><path d="M364 208l8 1 5 3v2l-20-1v-1l12-1-5-2z" fill="#cea693"/><path d="M458 696l1 2-3 6-2 3-5 2-3-1 5-2 1-4 5-5z" fill="#d6af9e"/><path d="M401 618h2l1 8h-4l-1 2-2-2 1-6h3z" fill="#78797e"/><path d="M692 600l1 4h7l-4 4-3 2h-3v-5z" fill="#dfb643"/><path d="M463 382v3l-4 4h-2v2l-10 4 1-3 4-4 6-1z" fill="#876757"/><path d="M363 284l1 2-2 6-5 7-1-4 6-10z" fill="#ba5553"/><path d="M394 283l2 4-1 5h-2l-1 4h-4v-2l2-1z" fill="#c3998a"/><path d="M440 276l5 1 3 2 2 5v5l-3-1-2-8z" fill="#a07d69"/><path d="M572 240h3l-1 8-5 1v-5z" fill="#1d202c"/><path d="M463 211l7 1 2 4h2l1 3-10-1-2-1 1-2h5l-3-2z" fill="#664f42"/><path d="M426 66l7 3v4l-5-1-5-3v-2z" class="B"/><path d="M464 697l3 1-1 3-8 3-3-1 3-4z" fill="#e1c2b1"/><path d="M480 680l2 2-3 4 1 2-4 3h-3l1-4 4-4-4 1 3-3z" fill="#c6a293"/><path d="M413 411h11l7 2v1l-7 1-2-1-9-1z" fill="#97887c"/><path d="M727 368l3 1 1 4v8l-3-1-1-5z" class="l"/><path d="M511 317l2 1v2h2l1 3v10l-2-3-1-7-5 2 2-5z" class="q"/><path d="M490 309l2 1v8l-4 9-1-2v-6l3-1-1-3z" fill="#b79079"/><path d="M367 315l9 3 1 2 4 1-1 2-9-3-5-2-3 1v-3z" class="z"/><path d="M427 194l3 1-1 6h-2v2l3 1v1h-5l-1-3 2-7z" fill="#634e40"/><path d="M329 189h11l-3 2-5 2-1 2h-2l-2 6-1-3z" fill="#cdab9b"/><path d="M438 39l5 4v4l-4-1-4-3 1-3z" fill="#bcb3a7"/><path d="M233 707l4 2 5 5-1 4-5 2v-3h3l-1-3-4-4z" fill="#6a5c53"/><path d="M437 628h12v2l-4 2-12-2z" fill="#1b2031"/><path d="M443 423h4v3l12-2v2l-8 2h-6l-2-2z" fill="#817d79"/><path d="M448 384l1 3-3 1-2 4-4 3-3-1 5-5z" fill="#bc9587"/><path d="M401 248l1 3-2 6 1 1v7l-3-2-1-5 3-9z" fill="#b38d78"/><path d="M446 212l3 1-5 1-2 4-1 3 5 1v-2h2v3h-9v-6l4-4z" fill="#d7c7bb"/><path d="M576 200h7v3l-2 4-4-2z" class="C"/><path d="M560 124h2v5l-5 4-2-4z" fill="#675a50"/><path d="M461 50l7 1 1 3h2l1-3 2 3-1 3-9-3z" fill="#7d7873"/><path d="M314 777l3 3 4 2-2 4h-5l-1-8z" fill="#374259"/><path d="M445 715l4 2 1 3-4 2-4-1-1-5z" class="P"/><path d="M677 679v3l-7 8-3-2 3-4 1-2z" fill="#cd9837"/><path d="M502 637h3l-1 4h-2v2h-2l-1 4-3 1v-5l4-2z" class="G"/><path d="M442 587h7l-2 5h-6l-2-1v-3z" fill="#696f7d"/><path d="M406 516l2 1-1 9-3 8-1-4z" fill="#1c294d"/><path d="M427 479l2 1-10 8-2 2v-4l-2-1z" fill="#2a385b"/><path d="M482 359l1 3-1 3h-2l-1 5-3 4-2 5-1-2 3-9h2l2-6z" fill="#6a5142"/><path d="M454 317l5 1-2 2-7 2-6 3h-2v-2l6-4z" class="C"/><path d="M479 221l5 1 1 3-4 2h-5l2-4z" fill="#654b3e"/><path d="M533 102h3v2h2l1 5-6 3v-2h2v-2h-2z" fill="#605247"/><path d="M571 90l7 1-1 5-6-1-1-4z" fill="#857e79"/><path d="M569 75l3 4 1 8-3-1-3-7v-3z" fill="#c6bdb2"/><path d="M562 79h6l-1 7-4 1-2-4h2z" fill="#857f7a"/><path d="M512 55l5 2-3 2-2-1v4h-5v-5z" class="K"/><path d="M339 625l3 4 1 3v10l-2-4-2-9-1-2z" fill="#1c294d"/><path d="M416 594l3 1-6 2-12 1v-3z" fill="#84878b"/><path d="M442 379l2 1v6l-1 2h-3v-4l-2-1z" fill="#d7ae9b"/><path d="M442 341l2 3-4 2-1 2-3 1-1 2 3-1v2l-3 1-3-3 4-5 3-1z" class="i"/><path d="M490 320h1v6l-5 11-3 2 2-7h2v-5z" fill="#b38d78"/><path d="M433 323h2v2h8l4 5h-4l-1-3h-7l-2 2-3-4z" fill="#6f5c4f"/><path d="M572 270l1 4 2 1-1 3h-8l3-1v-2h-3l1-2 4-1z" fill="#6b5143"/><path d="M421 251h1l-1 9 3 3 3 2h-6l-4-9h3z" fill="#8e6b5b"/><path d="M566 197l2 2-1 2h-3l-1 7-3 3v-7l1-4 4-1z" class="M"/><path d="M492 129h2l-1 9-3 4-1 5h-1v-6l1-5 1-2z" class="h"/><path d="M395 65l5 1v3l3-1 3 1 1-3v4l-8 1-4-1z" fill="#937b6c"/><path d="M376 29l4 1 3 6 1 4-3-1v-2l-3-2v-2l-3-1z" fill="#868079"/><path d="M419 24l2 1v3l3-1v2l3 1v2h-3v2l-3 1-2-9z" fill="#9da5ad"/><path d="M366 779l6 2-1 2h-2l1 5-5 3z" fill="#242e4c"/><path d="M402 635l2 1v5h-2v2h-3v-2h-3l1-2 2 1v-3z" fill="#90969e"/><path d="M395 615h3v2h3l1-2 4 1 1 6h-2l-1-4-5 1-4-2z" fill="#c0c1bc"/><path d="M627 580h4v4l-5 3h-3l2-6z" fill="#27314f"/><path d="M423 520h1v7l-1 9-4 2 3-17z" fill="#d2d4cd"/><path d="M365 280l1 3-2 3h-2l-6 10-1-3 6-9z" fill="#b08870"/><path d="M377 216h6l2 2-1 2h-3v6l-4 1 3-10z" fill="#b48d7c"/><path d="M425 207l4 1-3 5-2 2h-3l1-4z" fill="#dbb7a4"/><path d="M361 199l4 2 4 4-1 1-14-1v-1h9z" fill="#8f6e5e"/><path d="M391 68l7 1 1 2-1 2-8 1z" fill="#95887d"/><path d="M466 62l4 4 1 6-4-2-3-4v-2h2z" fill="#938478"/><path d="M356 38l7 2v2l-10 2-3-1z" fill="#aaa39e"/><path d="M407 607l8 1-2 4-7-1-1-3z" fill="#2a3349"/><path d="M413 402l2 1v2l-9 1 4 5-4-1-2-3v-3z" fill="#af978e"/><path d="M414 290h11l-1 4-6 1 2-1v-2h-7z" class="G"/><path d="M573 279h1l1 7v9h-2l-1-2v-8z" fill="#b9a192"/><path d="M579 261l1 4 2-1-1 7-5 1 2-10z" fill="#7c5e4f"/><path d="M480 248l4 1-2 10h-2l-1 2v-11z" class="m"/><path d="M508 221h1l2 8v6l-1 2h-2v-5l-1-4z" class="h"/><path d="M344 69l3 1-3 3 1 3 1 4-1-2-5 1-1-2 3-6h2z" class="N"/><path d="M454 391l2 1-3 1-1 2-8 4-2-1 2-3z" fill="#7a5e4e"/><path d="M390 332l7 1 4 2v2l-8-1-3-2z" fill="#8b6a59"/><path d="M417 199l2 2-1 4h-2v2l-5 2 3-7z" fill="#a47e67"/><path d="M370 42l1 3 4-1 1 6-7-2-1-4z" fill="#948a81"/><path d="M424 743h4l-2 4-5 6-4 2v-3l8-7z" fill="#9a8f8f"/><path d="M605 677h5v3h-2l-1 2h-4l-1-3z" fill="#f5da44"/><path d="M407 616l6 1 1 2-3 4-3-1z" fill="#777b83"/><path d="M477 611h2l4 7-5 1-2-4z" fill="#7c7671"/><path d="M471 607l7 1v2h-6l-4 4-2-5z" fill="#81807f"/><path d="M413 598l1 4h-2l-1 3-5 2-3-1v-3l7-1z" fill="#323b52"/><path d="M424 600h3v7l-2 1-1-3-2 2-1-5z" class="b"/><path d="M440 394l2 1-3 3h-2v2l-9 3 5-5z" class="e"/><path d="M451 281h2l3 4 3 1 1 4h-5l-2-3v-3l-2-1z" class="B"/><path d="M384 218l2 1-1 7-4 4 1-6-2-2 1-2h3z" fill="#dbb4a0"/><path d="M415 209l1 3h-2l-2 4h-2l-2 6h-1v-6h2l2-4z" fill="#806152"/><path d="M586 195l4 1 2 1 2 5-3 2-4-5z" fill="#7a5d4e"/><path d="M530 161h4l2 9h-3l-2-5z" class="y"/><path d="M437 144h4v2l2 2-2 4-1-3-5 1z" fill="#c59a8a"/><path d="M556 117h1v5l-3 3h-2l-1 3v-4h2v-2l-2-1 2-3z" class="j"/><path d="M334 104l1 4v3h-2v2l-4 2 1-8 2 1z" fill="#cebeb1"/><path d="M576 100l4 2 1-2 1 9-3 2v-6l-3-1z" fill="#9f9a96"/><path d="M369 35h7l1 3 4 1-6 1-6-3z" fill="#827e79"/><path d="M473 30l5 1 1 3 3 1v2l2 1-7-1-5-5z" class="F"/><path d="M358 733h8l-1 4h-6z" fill="#080a13"/><path d="M578 541l1 2-4 7h-3l-4 3 2-4 4-5z" fill="#0b0e18"/><path d="M473 364h4l-2 4-4 6-1-2 2-7z" class="I"/><path d="M505 355h1v6h-2l-1 5-3 3v-6l3-1z" fill="#896858"/><path d="M399 289h1v5l-2 4v3l3 1-2 1-3-3-1-3 1-4h2z" fill="#886858"/><path d="M432 252l4 5-2 11-1-3-3-1 3-1v-5l-1-1z" class="B"/><path d="M438 218h1v5h2v3l3 1h-4v-2l-7-1 2-1v-2h3z" fill="#dab29f"/><path d="M451 215h2v3l8-2-2 3h-2v2l-5-1-2-1z" fill="#645145"/><path d="M355 217h7l-1 2-5 2-2 3-1-3-4-1z" fill="#b7aaa0"/><path d="M447 210l5 1 1 4-2 1v4h-2l1-8-7 1 1-2z" fill="#958d87"/><path d="M328 201h4v3h3v2h-7l-2-4z" fill="#755e50"/><path d="M466 200h5l1 2-1 6-4-2z" fill="#6e5444"/><path d="M354 191l7 1 7 3 1 3-9-3-6-3z" class="o"/><path d="M435 187l2 2-10 4-3 2 1-5z" fill="#78685d"/><path d="M463 177h6l4 3h-7l-4 3-3-1 3-2z" class="L"/><path d="M571 140h2l1 6-4 1-1 3-2-2z" class="s"/><path d="M524 76h9l-3 3v1h-6l-2-1v-2z" class="F"/><path d="M450 40l4 1v2l4 1v2l2 1h-4l-1 2z" fill="#91877e"/><path d="M475 594l1 3-4 1 1 6-4-1v-6l1-2 5 1z" fill="#807f7e"/><path d="M415 417l4 2 6 4 1 5-5-2-1-5-4-2z" class="E"/><path d="M422 322l3 1-1 4h-9v-2z" fill="#8c7160"/><path d="M450 252l5 2 2 5-5-1z" class="g"/><path d="M400 242h1v7l-3 8-2-4 1-4 2-2z" fill="#bf9788"/><path d="M353 220l1 4v2h-6l1-5z" fill="#efede0"/><path d="M414 212h2l-1 4-1 3h-3v7h-1l-1-8z" class="Z"/><path d="M410 209l1 3-4 3-1 6h-2v-8l2-2h4z" fill="#a17c67"/><path d="M444 147l1 4 1 7h-3l-2-6v-4z" fill="#bb9485"/><path d="M537 123h2v6l-5 1v-5z" class="k"/><path d="M568 101v3zm-11 2h3l1 3h3v2l-8-1-1-2h2z" class="r"/><path d="M518 88l3 1 1 4-4 1-3-1-1-3z" class="C"/><path d="M543 62l5 1-1 3 4 1 1-2 2 3h-7l-1-3h-4z" class="s"/><path d="M231 694l5 2 7 5-3 1-6-3z" fill="#0c0e16"/><path d="M470 687v3l-4 2v2l-5 2 1-4 2-2 5-2z" fill="#dbb4a2"/><path d="M407 638h2v6l-6 3 1-5 3-1z" class="b"/><path d="M421 430h24v1l-22 1h-3z" fill="#d0c0b5"/><path d="M445 350l4 1-5 4-4-2-2 1-2-2 2-1h6z" class="H"/><path d="M508 328l4 1 1 7-1 7h-1l-1-11-3-3z" class="p"/><path d="M585 244h8l-1 4-3-1-1 3v-2h-2z" fill="#846555"/><path d="M592 241l3 3-1 5-3 5h-1v-6l2-1z" fill="#756052"/><path d="M403 237l2 1 1 7-2 8h-1z" fill="#9a7967"/><path d="M464 231l3 1v3h9l-1 2-9 1-3-5z" fill="#bb9587"/><path d="M336 225l1 3h3l-1 4-5 1 1-6z" fill="#c09887"/><path d="M420 218h2l1 10 2 5-1 4-3-5z" fill="#856455"/><path d="M396 223l1 4v9h-2l-1 2 1-9h-2l2-5z" class="D"/><path d="M386 207l1 4-1 2h2l-1 9-2-1v-12z" fill="#e3bba8"/><path d="M593 176l3 1-1 4v2l-5-1v-4z" fill="#7a5d4e"/><path d="M479 69l5 1 3 6-4-1-1-4-2 3-4-1 3-2z" fill="#715a4b"/><path d="M372 55h2l1 5-2 3h-3l1-7z" fill="#9b9795"/><path d="M478 50l7 1 2 5-5-2-1 3z" class="j"/><path d="M454 22l2 1-2 5-6 1v-2l-3-1 7-1z" fill="#948c85"/><path d="M233 711h3v2l3 1v3h-3l-1 2-2-5z" fill="#746b63"/><path d="M394 647l3 1-1 9-1-4-3 1z" fill="#242d42"/><path d="M775 537l1 3-6 15-1-3 3-10z" fill="#c6914a"/><path d="M413 392h10l-1 2-9 2-2-2z" class="D"/><path d="M435 344l1 3-3 3v2l2 1h-6l2-5 3-1z" class="H"/><path d="M451 338l3 1-1 5-5 1v-3l1-2h2z" class="L"/><path d="M435 277h3l1 3-8 7v-3z" fill="#694d3d"/><path d="M553 237h3l1 6-1 5-2-1v-5z" class="h"/><path d="M360 208l7 1 5 2v1h-13l4-1v-2z" class="D"/><path d="M419 203l2 1-3 5-5 3h-2v-3l5-2v-2z" fill="#8e6f5f"/><path d="M326 204l9 2-1 3h-2l-2 3v-4l-4-1z" fill="#8f7466"/><path d="M356 199l3 4h-10l-1-2z" class="C"/><path d="M410 187l4 1 5-1-1 3-7 1z" fill="#e4bba9"/><path d="M542 141l2 1-1 8-4-1v-3h2z" class="Q"/><path d="M527 101l5 1v2l-4 2h-4v-3h3z" class="F"/><path d="M400 36l2 2v3l3 1 3 3v3l-4-2-4-6z" fill="#978d85"/><path d="M639 719h4l-1 4-4 3-2-1z" fill="#ca2f3c"/><path d="M264 717h7l-1 3h-14l3-2z" fill="#bfbdb6"/><path d="M219 693l3 3 2 5v3h2v2l-4-2-3-8z" class="I"/><path d="M543 628l1 3 2 5h-2l-1 5h-2l1-11z" fill="#232c43"/><path d="M427 632l8 2-4 2h-9l3-3z" fill="#131520"/><path d="M570 623l1 3-3 2-6-1v-2z" fill="#1f2a4b"/><path d="M451 409h5l2 1 10-1-3 2-12 1v-2z" class="V"/><path d="M391 395h10l1 2-7 1-5 2z" fill="#d7bfb1"/><path d="M717 381l9 2-4 3h-4z" fill="#daa91c"/><path d="M502 343l2 1-2 5-1 3-3 1 1-7z" class="B"/><path d="M415 329l5 1-1 5h-6l4-2v-1l-4-1z" fill="#e5ccbd"/><path d="M477 320l2 1-1 2-4 2-2 3-1-4 1-3z" class="z"/><path d="M436 318l3 1-5 3-4 4-3-1 4-4z" fill="#746960"/><path d="M565 254l4 1v6l-4-1z" class="C"/><path d="M578 240l3 4-5 5-3-1 2-2 2-5z" fill="#60483c"/><path d="M343 218l2 1-5 5 3 2-3 2h-3l1-5z" fill="#503f3b"/><path d="M480 207l7 1-3 3-7 1 1-3h2z" class="V"/><path d="M538 152h3v2l3 1-2 5-4-4z" class="y"/><path d="M541 73h12v2l-6 1-8-1z" fill="#9a9592"/><path d="M375 72h9l4 2-2 1h-11l-4-2z" class="B"/><path d="M381 68l4 2 4 1 2-3v5l-2 1-5-1v-2h-3z" fill="#987e6f"/><path d="M552 65l9 2v1h-6l-1 2h-8l1-3h6z" fill="#86807a"/><path d="M403 51l4 2 3 6-1 2-2-2v-3h-3z" fill="#89837e"/><path d="M420 23h7v3l-6 2z" fill="#9a9796"/><path d="M463 19h11v1l-5 1v1h-7l-3-2z" fill="#b8b0a7"/></svg>