<?xml version="1.0" encoding="utf-8"?>
<!-- Generator: Adobe Illustrator 25.1.0, SVG Export Plug-In . SVG Version: 6.00 Build 0)  -->
<svg version="1.1" id="Layer_1" xmlns="http://www.w3.org/2000/svg" xmlns:xlink="http://www.w3.org/1999/xlink" x="0px" y="0px"
	 viewBox="0 0 200 200" style="enable-background:new 0 0 200 200;" xml:space="preserve">
<style type="text/css">
	.st0{fill:url(#SVGID_1_);}
	.st1{fill:url(#SVGID_2_);}
	.st2{fill:url(#SVGID_3_);}
	.st3{fill:url(#SVGID_4_);}
	.st4{fill:url(#SVGID_5_);}
	.st5{fill:url(#SVGID_6_);}
	.st6{fill:url(#SVGID_7_);}
	.st7{fill:url(#SVGID_8_);}
	.st8{fill:url(#SVGID_9_);}
</style>
<linearGradient id="SVGID_1_" gradientUnits="userSpaceOnUse" x1="100" y1="-9.094947e-13" x2="100" y2="200" gradientTransform="matrix(1 0 0 -1 0 200)">
	<stop  offset="0" style="stop-color:#1C1000"/>
	<stop  offset="0.1632" style="stop-color:#1B0F00"/>
	<stop  offset="1" style="stop-color:#000000"/>
</linearGradient>
<polygon class="st0" points="200,200 0,200 0,0 200,0 "/>
<g>
	<linearGradient id="SVGID_2_" gradientUnits="userSpaceOnUse" x1="54.9577" y1="61.2625" x2="54.9577" y2="142.8375">
		<stop  offset="0.5492" style="stop-color:#FF0000"/>
		<stop  offset="1" style="stop-color:#C90E0E"/>
	</linearGradient>
	<path class="st1" d="M50.4,142.8c-0.1-0.1-0.1-0.1-0.2-0.1c-0.2-0.1-0.3-0.3-0.3-0.5c0-0.3-0.1-0.5,0-0.8c0-0.4,0-0.7,0.1-1.1
		c0.1-1.1,0.1-2.2,0.1-3.3c0-0.2,0-0.5,0-0.7c-0.2-0.1-0.4-0.2-0.7-0.3c-0.1,0-0.2-0.1-0.3-0.1c-0.3-0.2-0.7-0.2-1-0.2s-0.6,0-0.8,0
		c-0.3,0-0.6-0.1-0.8-0.3c-0.2-0.1-0.4-0.2-0.6-0.3c-0.3-0.2-0.7-0.3-0.9-0.5s-0.4-0.2-0.7-0.1c0,0-0.1,0-0.1,0.1
		c-0.3-0.1-0.7-0.3-1-0.4c-0.3-0.1-0.4-0.4-0.6-0.6c-0.1-0.1-0.1-0.2,0-0.4s0.2-0.3,0.3-0.5c0.1-0.1,0.3-0.1,0.4-0.2
		c0.1-0.1,0.3-0.2,0.4-0.3c0.2-0.3,0.5-0.4,0.7-0.6c0.3-0.3,0.7-0.6,1-0.9c0.2-0.1,0.3-0.3,0.5-0.4c0.5-0.2,1-0.6,1.4-0.9
		c0.3-0.3,0.7-0.5,1-0.9c0-0.1,0.1-0.1,0.2-0.1c0.4-0.2,0.8-0.4,1.2-0.6c0.1-0.1,0.3-0.1,0.4-0.1c0-0.3,0-0.7,0-1c0-1.2,0-2.5,0-3.7
		c0-0.5,0-0.9-0.1-1.4c0-0.8-0.4-1.4-1-1.8c-0.4-0.3-0.8-0.6-1.3-0.8c-0.1-0.1-0.2-0.1-0.3-0.2c-0.5-0.3-1-0.5-1.5-0.7
		s-0.9-0.4-1.3-0.7c-0.3-0.2-0.5-0.3-0.8-0.6c-0.2-0.2-0.4-0.4-0.6-0.7c-0.3-0.5-0.7-0.9-1-1.4s-0.4-1-0.4-1.6c0-0.5,0-1.1,0-1.6
		c0-0.1,0-0.1,0-0.2c0-0.3-0.1-0.6-0.1-0.9s0-0.6,0-0.9c0-0.2,0-0.4,0.1-0.6s0.1-0.4,0.1-0.6s0-0.4,0-0.7c0-0.6,0.2-1.2,0.6-1.6
		c0.4-0.5,0.8-0.9,1.2-1.5c0.3-0.5,0.8-0.8,1.3-1c0.5-0.3,1.1-0.5,1.6-0.8c0.3-0.1,0.5-0.2,0.8-0.3c0.4-0.1,0.7-0.2,1.1-0.3
		c0.2-0.1,0.4-0.1,0.6-0.2c0.3-0.2,0.6-0.2,0.9-0.2c0.3,0,0.5,0,0.8,0c0-0.1,0-0.2,0-0.3c0-1.1-0.1-2.2-0.1-3.3c0-0.4,0-0.8-0.1-1.2
		c-0.2-0.1-0.4-0.2-0.7-0.2s-0.5,0.1-0.8,0.1c-0.2,0-0.5,0-0.7,0s-0.4,0-0.7,0.1C47.5,97,47.4,97,47.2,97c-0.3,0-0.5-0.3-0.3-0.6
		c0.2-0.3,0.3-0.7,0.5-1.1c0.3-0.6,0.4-1.3,0.6-2c0-0.1,0-0.3,0-0.4c0-0.4,0-0.8,0-1.2c0-0.8,0.1-1.5,0.1-2.3
		c0.1-0.8,0.1-1.7,0.1-2.5c0-0.2,0-0.5,0-0.8s0-0.6,0-0.9c0-0.6,0-1.3,0.1-1.9c0.1-0.4,0-0.9,0-1.3c0-0.7,0-1.3,0.1-2
		c0-0.1,0-0.1,0-0.2c0.2-0.6,0.1-1.2,0.1-1.8c0-0.6,0-1.3,0-1.9c0-0.7-0.1-1.3-0.1-2c0-0.5-0.1-1-0.1-1.5s-0.1-0.9-0.1-1.4
		c0-0.1-0.1-0.3-0.1-0.4c-0.1-0.4-0.2-0.8-0.3-1.2c-0.2-1.2-0.3-2.5-0.6-3.7c-0.1-0.5-0.3-1-0.5-1.4c-0.1-0.1-0.2-0.2-0.3-0.4
		c-0.2-0.2-0.4-0.4-0.5-0.6c-0.2-0.4-0.3-0.7-0.4-1.2c0-0.2,0-0.5,0-0.7c0.2-0.1,0.5-0.2,0.7-0.2c0.1,0,0.3,0,0.4-0.1
		c0.2-0.1,0.3-0.1,0.4,0c0.4,0.3,0.8,0.4,1.2,0.4c0.4,0.1,0.8,0.1,1.2,0.2c0.2,0,0.4,0,0.6,0c0.2,0,0.3,0,0.5,0.1
		c0.3,0.1,0.7,0.2,1,0.2c0.1,0,0.2,0,0.3,0c0.2-0.1,0.4,0,0.6,0c0.5,0.1,1,0,1.5-0.1c0.2-0.1,0.5-0.1,0.7-0.1c0.4,0,0.8,0,1.1-0.2
		c0.2-0.1,0.3,0,0.5,0c0.7,0.1,1.1,0.1,1.6,0.4c0.1,0.3-0.1,0.5-0.1,0.7s-0.2,0.2-0.3,0.3l0,0c-0.8,0.2-1.3,0.7-1.8,1.2
		c-0.1,0.1-0.3,0.3-0.5,0.4s-0.3,0.3-0.3,0.4c-0.2,0.4-0.4,0.8-0.3,1.3c0,0.2,0,0.3,0,0.5c-0.1,0.5-0.2,1-0.2,1.5
		c-0.1,0.6-0.1,1.2-0.1,1.8c0,0.7-0.1,1.4-0.2,2.1c-0.1,0.6-0.2,1.2-0.3,1.9c0,0.2,0,0.4,0,0.7c0,0.4,0,0.8,0,1.3s0,0.9-0.1,1.4
		c-0.1,0.2,0,0.5-0.1,0.8c0,0.1,0,0.2,0,0.3c-0.1,0.6-0.1,1.3,0,1.9c0.1,0.5,0.1,1,0.1,1.5c0,0.6,0,1.1,0,1.7c0,0.1,0,0.3,0.1,0.4
		c0,0.2,0.1,0.4,0.1,0.6c0,0.4,0,0.8,0.1,1.1c0,0.5,0,1,0,1.5c-0.1,0.8-0.1,1.5,0.2,2.3c0.2,0.6,0.3,1.1,0.5,1.7
		c0,0.1,0.1,0.3,0.1,0.4c0,0.3,0.2,0.6,0.5,0.7c0.1,0,0.1,0,0.2,0.1c0.3,0.3,0.7,0.3,1.1,0.4c0.4,0.1,0.7,0.1,1.1,0
		c0.1,0,0.3,0,0.4,0.1c0.3,0.1,0.7,0.2,1.1,0.1c0.3,0,0.6,0,0.8-0.1c0.6-0.1,1.2-0.2,1.7-0.5c0.5-0.2,1-0.4,1.5-0.7
		c0.6-0.3,1.1-0.8,1.6-1.3c0.7-0.8,1.1-1.6,1.5-2.5c0.1-0.2,0.2-0.4,0.2-0.6c0.1-0.3,0.4-0.6,0.7-0.8c0.1,0,0.1-0.1,0.2-0.1
		c0.2,0,0.8,0.3,0.8,0.5c0.1,0.4,0.2,0.8,0,1.2c-0.4,0.8-0.5,1.7-0.6,2.6c-0.1,0.5-0.2,1-0.3,1.5c-0.1,0.6-0.2,1.1-0.2,1.7
		c0,0.1,0,0.2,0,0.4c-0.1,0.3-0.2,0.7-0.2,1c-0.1,0.3,0,0.6,0.1,0.9c0,0.1,0.2,0.2,0.2,0.3c0.1,0.1,0.2,0.2,0.3,0.3
		c0.1,0.1,0.2,0.2,0.1,0.4c-0.2,0.1-0.4,0.1-0.6,0c-0.4,0-0.7,0-1.1,0c-0.4,0.1-0.8,0-1.2-0.1c-0.6-0.1-1.2-0.1-1.8,0
		c-0.1,0-0.1,0-0.2,0c-0.5,0.2-1,0.1-1.6,0.2c-0.2,0-0.3-0.1-0.4-0.2c-0.2-0.2-0.5-0.2-0.8-0.1c-0.2,0-0.3,0-0.5,0
		c-0.4,0-0.8,0-1.3,0.1c-0.6,0.1-1.2,0.1-1.8,0c-0.1,0-0.2,0-0.3,0c-0.3,0-0.6-0.1-0.9-0.1c-0.1,0-0.3,0-0.4-0.1
		c-0.3-0.2-0.7-0.2-1-0.1c-0.5,0.1-1.1,0.2-1.6-0.1c-0.1,0-0.1,0-0.2,0h-0.1c-0.1,0.2-0.1,0.3-0.1,0.5c0.1,1.3,0.2,2.7,0.2,4
		c0,0.1,0,0.2,0,0.2c0.2,0,0.3-0.1,0.5-0.1c0.2,0.1,0.3,0.2,0.5,0.2c0.4,0.1,0.8,0.2,1.2,0.3c0.2,0,0.3,0.1,0.5,0.1
		c0.8-0.1,1.6,0,2.4,0.2c0.5,0.1,1,0.3,1.6,0.3c0.3,0,0.6,0.1,0.9,0.1c0.5,0,1,0.2,1.5,0.3c0.3,0.1,0.5,0.2,0.8,0.2
		c0.2,0.1,0.5,0.2,0.7,0.2c0.1,0.3,0.1,0.5,0,0.7c-0.2,0.2-0.3,0.5-0.5,0.8c-0.2,0.2-0.3,0.3-0.6,0.5c-0.1,0.1-0.2,0.1-0.3,0.2
		c-0.2,0.2-0.5,0.3-0.7,0.5c-0.1,0.1-0.2,0.1-0.2,0.2c-0.3,0.4-0.7,0.9-0.9,1.4c-0.1,0.2-0.2,0.4-0.3,0.6s-0.2,0.4-0.4,0.6
		c-0.1,0.2-0.3,0.4-0.4,0.6c-0.1,0.1-0.2,0.3-0.3,0.4c-0.1,0.2-0.2,0.3-0.3,0.4c-0.2,0-0.4-0.1-0.6-0.2c0-0.4,0-0.8,0-1.3
		c0-0.6,0-1.1-0.2-1.6c-0.1-0.2-0.1-0.4-0.4-0.6c0,0,0,0-0.1-0.1c-0.3-0.6-1-0.9-1.6-1.1s-1.1-0.2-1.7-0.1c-0.2,0-0.3,0-0.5,0
		s-0.3,0-0.5,0.2c0,0.2,0,0.3,0,0.5c0.1,0.7,0.2,1.3,0.3,2c0,0.4,0,0.9,0,1.4c0,0.3-0.1,0.5-0.3,0.7c-0.3,0.4-0.9,0.4-1.1-0.1
		c-0.1-0.2-0.2-0.5-0.2-0.7c0-0.4,0-0.7,0-1.1c0.1-0.6,0.1-1.2,0.1-1.8c0-0.3,0-0.6,0-0.9c-0.7,0-1.2,0.2-1.8,0.4
		c-0.2,0.1-0.3,0.2-0.4,0.3c-0.2,0.2-0.4,0.3-0.6,0.4c-0.1,0.1-0.1,0.1-0.2,0.2c-0.3,0.3-0.5,0.7-0.8,1c-0.2,0.3-0.4,0.6-0.6,1
		c-0.2,0.4-0.2,0.8-0.2,1.2c0,0.2,0,0.4,0,0.6c0,1.1,0.3,2.1,0.7,3.1c0,0.1,0.1,0.2,0.2,0.3c0.1,0.2,0.2,0.4,0.3,0.5
		c0.2,0.2,0.3,0.4,0.5,0.6c0.3,0.3,0.7,0.5,1,0.7c0.2,0.1,0.3,0.2,0.5,0.3c0.5,0.4,1,0.6,1.6,0.8c0.1,0,0.2,0.1,0.2,0.1
		c0.2,0.2,0.5,0.3,0.9,0.3c0.4,0.1,0.8,0.2,1.2,0.3c0.2,0,0.3,0.1,0.5,0.1s0.5,0.1,0.7,0.2s0.4,0.2,0.6,0.2c0.4,0,0.8,0.1,1.1,0
		c0.3,0,0.7,0,1,0.1s0.6,0.1,0.8,0.1c0.3,0.1,0.5,0.2,0.8,0.3c0.1,0.1,0.2,0.1,0.3,0.2c0.3,0.2,0.5,0.4,0.9,0.3
		c0.1,0,0.2,0.1,0.3,0.1c0.4,0.2,0.9,0.5,1.3,0.7c0,0,0.1,0.1,0.2,0.1c0.6,0.1,1.1,0.6,1.6,0.9l0.1,0.1c0.3,0.6,0.8,1.1,1.1,1.7
		c0.3,0.5,0.5,1,0.7,1.5c0,0.1,0,0.1,0,0.2c0.1,0.6,0.2,1.2,0.3,1.8c0,0.1,0,0.2,0,0.4c0,0.5,0,1,0,1.5c0,0.6-0.1,1.2-0.3,1.8
		c-0.1,0.4-0.3,0.8-0.4,1.2c-0.2,0-0.3,0-0.4,0.1s-0.2,0.2-0.3,0.3c-0.1,0.1-0.2,0.1-0.3,0.1c-0.3,0-0.5,0.2-0.5,0.5
		c0,0.1,0,0.2,0,0.3s0,0.2-0.1,0.3c-0.2,0.1-0.2,0.4-0.3,0.6c0,0.1-0.1,0.2-0.1,0.4c0,0.1-0.1,0.2-0.2,0.3c-0.2,0.1-0.4,0.2-0.5,0.4
		c-0.4,0.3-0.8,0.6-1.1,1c-0.1,0.1-0.1,0.2-0.2,0.2c-0.2,0.3-0.5,0.4-0.9,0.4c-0.2,0-0.5,0.1-0.7,0.2c-0.1,0.1-0.2,0.1-0.2,0.1
		c-0.2,0-0.4,0.1-0.6,0.1c-0.2,0-0.4,0.1-0.6,0.2c-0.1,0.1-0.3,0.1-0.4,0.1c-0.1,0-0.2-0.1-0.3-0.1c-0.2,0-0.3-0.1-0.5,0
		c-0.1,0-0.2,0-0.3,0.1c-0.4,0.1-0.7,0-1.1-0.1s-0.7-0.1-1.1-0.1c-0.1,0-0.3,0-0.4,0.1c-0.2,0-0.4,0-0.6-0.1
		c-0.3-0.2-0.7-0.3-1.1-0.3c-0.1,0-0.2,0-0.3-0.1c-0.2,0-0.4-0.1-0.6-0.1c0,0.1,0,0.1,0,0.2c0,0.8,0,1.6,0,2.4
		c0,0.6,0.2,1.2,0.2,1.9c0,0.2,0,0.3,0.1,0.5c0.1,0.5-0.1,1-0.5,1.4l-0.1,0.1C50.7,142.8,50.6,142.8,50.4,142.8z M51,133
		c0.4,0.1,0.4,0.1,0.7,0.4c0.3,0.3,0.6,0.3,1,0.4c0.2-0.1,0.4,0,0.5,0.1c0.2,0.1,0.4,0.1,0.6,0.1c0.2,0.1,0.5,0.1,0.7,0.1
		c0.1,0,0.2,0,0.4,0s0.4,0,0.7-0.1c0.2,0,0.3,0,0.5-0.1c0.6-0.1,1.2-0.4,1.7-0.7c0.1-0.1,0.2-0.1,0.2-0.1c0.5-0.2,0.8-0.6,1.1-1
		c0.4-0.5,0.7-1,1.1-1.4c0.4-0.5,0.5-1.1,0.4-1.7c0-0.3-0.1-0.5-0.1-0.8c0-0.3,0-0.7-0.1-1c0-0.1-0.1-0.2-0.1-0.4s0-0.4-0.1-0.5
		c-0.3-0.7-0.6-1.4-1-2.2c-0.1-0.2-0.2-0.5-0.2-0.7s-0.1-0.3-0.1-0.4c-0.2-0.4-0.4-0.7-0.7-0.9c-0.3-0.2-0.6-0.4-0.8-0.5
		s-0.4-0.2-0.5-0.3c-0.2-0.1-0.3-0.1-0.5-0.2s-0.3-0.2-0.6-0.2c-0.1,0-0.2,0-0.2-0.1c-0.1-0.2-0.3-0.3-0.6-0.3
		c-0.3-0.1-0.6-0.2-0.9-0.2c-0.3-0.1-0.7-0.1-1-0.2c0,0-0.1,0-0.2,0c-0.3,0-0.7,0-1,0c-0.1,0.1-0.1,0.2-0.2,0.4
		c-0.1,0.2-0.1,0.5-0.2,0.7c-0.2,0.5-0.2,1-0.3,1.5c0,0.9-0.1,1.8-0.1,2.6c0,1.5,0,3.1,0,4.6c0,1-0.1,1.9-0.1,2.9
		C51,132.8,51,132.9,51,133z M50,133c0-0.1,0.1-0.1,0.1-0.1c0-1,0-2,0-3c0,0,0,0,0-0.1c0,0,0,0-0.1,0c-0.1,0.1-0.2,0.2-0.3,0.2
		c-0.3,0.2-0.4,0.5-0.5,0.8s-0.1,0.6-0.1,0.8c0,0.1,0,0.2,0,0.2C49.3,132.3,49.5,132.7,50,133z"/>
	<linearGradient id="SVGID_3_" gradientUnits="userSpaceOnUse" x1="167.2172" y1="57.1625" x2="167.2172" y2="100.0125">
		<stop  offset="0.5492" style="stop-color:#FF0000"/>
		<stop  offset="1" style="stop-color:#C90E0E"/>
	</linearGradient>
	<path class="st2" d="M184.8,81.8c0,0.4-0.1,0.8-0.1,1.2c0,0.3,0,0.7,0,1c0,0.2,0,0.3-0.1,0.5c-0.1,0.4-0.3,0.7-0.4,1.1
		c-0.1,0.3-0.3,0.6-0.4,1c-0.1,0.5-0.3,1.1-0.5,1.6c-0.1,0.2-0.1,0.5-0.2,0.7c-0.1,0.4-0.3,0.7-0.6,1c-0.3,0.4-0.6,0.8-0.9,1.2
		c-0.4,0.6-0.9,1.1-1.4,1.6c-0.4,0.4-0.8,0.8-1.1,1.3c-0.1,0.2-0.2,0.4-0.5,0.5c-0.1,0-0.1,0.1-0.2,0.2c-0.6,0.7-1.2,1.2-1.9,1.7
		c-0.1,0-0.1,0.1-0.2,0.1c-0.5,0.4-1,0.5-1.6,0.7c-0.2,0.1-0.4,0.1-0.6,0.2c-0.3,0.2-0.6,0.3-0.9,0.5c-0.2,0.1-0.3,0.2-0.4,0.4
		c-0.3,0.3-0.6,0.5-1,0.5c-0.7,0.1-1.3,0.2-2,0.2c-0.2,0-0.4,0.1-0.6,0.1c-0.4,0.1-0.8,0.2-1.2,0.2c-0.1,0-0.2,0-0.3,0
		c-0.5,0.1-1.1,0.2-1.6,0.3c-0.2,0-0.4,0.1-0.5,0.1c-0.4,0.2-0.8,0.2-1.2,0.2c-0.2,0-0.4,0-0.6,0c-0.4-0.1-0.8-0.1-1.3,0
		c-0.4,0.1-0.8,0.1-1.2,0c-0.3-0.1-0.6-0.1-1-0.1c-0.1,0-0.2,0-0.3,0c-0.2-0.1-0.4-0.1-0.6,0c-0.1,0-0.3,0.1-0.4,0.1
		c-0.1,0-0.2,0-0.3,0c-0.6-0.1-1.3-0.2-1.9-0.4c-0.2-0.1-0.5-0.1-0.7-0.1c-0.1,0-0.3,0-0.5,0c-0.4-0.1-0.8-0.1-1.2,0
		c-0.5,0.1-1,0.2-1.5,0.4c-0.3,0.1-0.5,0.1-0.7,0c-0.1-0.1-0.3-0.1-0.4-0.1c-0.3-0.1-0.6-0.1-0.9,0c-0.1,0-0.2,0.1-0.3,0.1
		c-0.4,0-0.8-0.1-1.1-0.1c-0.2-0.3-0.2-0.6-0.1-1c0-0.1,0.1-0.2,0.1-0.3c0.2-0.2,0.3-0.5,0.3-0.8c0-0.1,0.1-0.2,0.2-0.3
		c0.2-0.2,0.3-0.4,0.2-0.6c-0.1-0.3-0.1-0.6,0-0.8c0-0.2,0.1-0.3,0.1-0.4c0.5-0.1,1-0.1,1.3,0.2c0.1,0.1,0.2,0.2,0.2,0.3
		c0.1,0.3,0.4,0.4,0.6,0.6c0.5,0.2,0.9,0.5,1.4,0.7c0.1,0,0.1,0.1,0.1,0.1c0.2,0.2,0.4,0.3,0.6,0.3c0.3,0.1,0.6,0.1,0.8-0.2
		c0.1-0.1,0.1-0.1,0.2-0.2c0.4-0.3,0.5-0.7,0.3-1.2c0-0.1,0-0.2,0-0.3c0.1-1.3,0.1-2.6,0.3-3.8c0.1-0.7,0.1-1.4,0.1-2.1
		c0-0.2,0-0.4,0.1-0.6c0.1-0.3,0.1-0.5,0-0.8c-0.1-0.6-0.1-1.1,0-1.6c0-0.1,0-0.2,0-0.3c0-0.4,0-0.8,0-1.3c0-0.3,0-0.5-0.1-0.8
		c0-0.1,0-0.2,0-0.3c0-0.6,0-1.1,0-1.7c0.1-0.7,0.1-1.4-0.1-2.1c0-0.2,0-0.3,0-0.5c0.1-1.2-0.1-2.4-0.2-3.7c0-0.2,0-0.4,0-0.6
		c0.1-0.7,0.1-1.5-0.1-2.2c0-0.1,0-0.3,0-0.4c0-0.4-0.1-0.7-0.1-1.1c0-0.1,0-0.2,0-0.4c0-0.3,0-0.6,0-0.8c0-1,0-2-0.1-3.1
		c-0.1-0.6,0-1.1,0-1.7c0-0.1,0-0.2,0-0.3c0-0.3-0.2-0.5-0.6-0.4c-0.2,0.1-0.5,0.1-0.7,0.2c-0.5,0.1-0.9,0.4-1.3,0.8
		c-0.4,0.3-0.6,0.7-0.7,1.2c-0.1,0.3-0.3,0.6-0.6,0.7c-0.1-0.2-0.3-0.3-0.5-0.5c0-0.4,0-0.8,0.1-1.3c0.1-0.6,0.1-1.2,0.1-1.9
		c0-0.2-0.1-0.5-0.1-0.7l0.1-0.1c0.5,0,0.9-0.2,1.4-0.1c0.4,0,0.9,0,1.3,0.1c0.2,0,0.4,0,0.6-0.1c0.3-0.2,0.7-0.3,1-0.5
		c0.1,0,0.2-0.1,0.2-0.1c0.1-0.2,0.3-0.2,0.5-0.3c0.4-0.2,0.5-0.4,0.3-0.8c-0.1-0.3-0.1-0.6-0.2-0.9c0-0.2-0.1-0.4-0.2-0.6
		c-0.1-0.4-0.4-0.6-0.6-0.9c-0.2-0.2-0.4-0.3-0.7-0.4c-0.2,0-0.3-0.2-0.3-0.4c0-0.1,0-0.2,0-0.4c-0.2-0.5-0.2-0.5,0.1-1
		c0.2-0.1,0.4-0.1,0.6,0c0.1,0,0.3,0,0.5,0.1c0.2,0,0.4,0,0.6,0.1c0.1,0.1,0.3,0.1,0.5,0c0.1,0,0.3,0,0.4,0c0.3,0,0.6,0,0.8-0.1
		c0.1,0,0.3,0,0.5,0c0.6,0,1.2,0.1,1.8,0.2c0.2,0,0.5,0,0.7-0.1s0.5-0.1,0.7,0c0.1,0,0.3,0,0.5,0.1c0.4,0,0.8,0.3,1.1,0.5
		c0.1,0.1,0.2,0.2,0.3,0.2c0.1,0.1,0.2,0.1,0.3,0.2c0.1,0.1,0.2,0.3,0.3,0.5c-0.2,0.1-0.4,0.2-0.6,0.4c-0.1,0.1-0.3,0.2-0.4,0.2
		c-0.1,0-0.3,0.1-0.4,0.1c-0.3,0-0.6,0.1-0.9,0.3c-0.2,0.1-0.4,0.3-0.4,0.5c-0.1,0.5-0.3,1-0.2,1.5c0,0.2,0,0.4,0,0.6s0,0.4,0.1,0.6
		c0,0.1,0.2,0.2,0.3,0.1c0.4-0.3,0.9-0.3,1.4-0.4s0.9-0.1,1.4,0c0.3,0.1,0.6,0.1,1,0c0.1,0,0.1,0,0.2,0c0.1,0,0.1,0,0.2,0
		c0.8,0.1,1.7,0.2,2.5,0.2c0.4,0,0.9,0,1.3,0.3l0,0c0.6,0.1,1.1,0.4,1.6,0.6c0.6,0.2,1.1,0.5,1.7,0.6c0.4,0.1,0.8,0.3,1.2,0.5
		c0.3,0.1,0.7,0.2,1.1,0.3c0.2,0,0.3,0.1,0.4,0.2c0.4,0.3,0.9,0.7,1.4,0.9c0.5,0.2,0.9,0.6,1.3,1c0.6,0.5,1.1,1.1,1.7,1.6
		c0.1,0.1,0.1,0.1,0.2,0.2c0.6,0.8,1.1,1.6,1.7,2.4c0.2,0.2,0.3,0.5,0.5,0.7s0.3,0.5,0.3,0.8s0.1,0.6,0.2,0.9
		c0.1,0.4,0.2,0.8,0.4,1.1c0.3,0.7,0.6,1.3,0.7,2.1c0.1,0.4,0.1,0.8,0.1,1.2c0,0.8,0.2,1.6,0.4,2.4c0.1,0.2,0.1,0.5,0.2,0.7
		c0,0.1,0.1,0.1,0.1,0.2v0.1c0,0.1,0,0.1,0,0.2C184.8,81.8,184.8,81.8,184.8,81.8z M162.5,93.8c0,0.8,0,1.5,0.1,2.2
		c0.1,0.5,0.4,1,0.6,1.6c0.1,0.3,0.4,0.3,0.6,0.2c0.1,0,0.2-0.1,0.3-0.1c0.4,0,0.9-0.1,1.3,0c0.2,0.1,0.4,0,0.6-0.2
		c0.1-0.1,0.2-0.2,0.3-0.2c0.2,0,0.4-0.1,0.6-0.1c0.3-0.1,0.6-0.1,0.9-0.2c0.4-0.1,0.9-0.3,1.2-0.5c0.6-0.3,1.2-0.5,1.8-1
		c0.1-0.1,0.2-0.1,0.4-0.1c0.3,0.1,0.6,0,0.7-0.2c0.4-0.5,0.8-0.8,1.2-1.2c0.1-0.1,0.1-0.1,0.2-0.2c0.3-0.3,0.6-0.6,0.9-0.8
		c0.4-0.3,0.7-0.6,0.9-0.9s0.4-0.5,0.7-0.7s0.5-0.4,0.6-0.6c0.3-0.5,0.6-1,0.8-1.5c0.2-0.4,0.4-0.8,0.6-1.2c0.3-0.6,0.6-1.3,0.6-2
		c0-0.1,0-0.2,0.1-0.2c0.1-0.2,0.1-0.4,0.1-0.6c0-0.1,0-0.2,0-0.3c0.2-0.4,0.3-0.9,0.3-1.4c0-0.3,0-0.6,0-0.8c0.1-0.5,0.2-1,0.1-1.5
		c0-0.1,0-0.2,0.1-0.3c0.1-0.4,0.2-0.8,0.1-1.3c0-0.1,0-0.2,0-0.3c0-0.5,0-0.9-0.1-1.4c0-0.1,0-0.3-0.1-0.4
		c-0.1-0.6-0.2-1.2-0.6-1.7c-0.1-0.1-0.2-0.2-0.3-0.4c-0.1-0.1-0.1-0.2-0.1-0.2c0-0.5-0.3-1-0.6-1.3c-0.1-0.1-0.1-0.2-0.2-0.3
		c-0.1-0.2-0.2-0.4-0.4-0.6c-0.3-0.3-0.5-0.6-0.7-0.9s-0.5-0.6-0.7-0.9s-0.5-0.6-0.7-1c0-0.1-0.1-0.2-0.2-0.3
		c-0.2-0.2-0.4-0.5-0.6-0.7c-0.1-0.1-0.1-0.1-0.2-0.2c-0.3-0.2-0.5-0.4-0.8-0.7c-0.1-0.1-0.3-0.2-0.4-0.3c-0.2-0.1-0.4-0.2-0.5-0.4
		c-0.1-0.2-0.2-0.3-0.3-0.5s-0.3-0.3-0.5-0.5c-0.4-0.2-0.9-0.5-1.3-0.8l-0.1-0.1c-0.3-0.4-0.8-0.5-1.3-0.7c-0.1-0.1-0.3-0.1-0.4-0.1
		c-0.4-0.2-0.8-0.2-1.1-0.2c-0.5,0-1-0.1-1.5-0.2s-0.9-0.2-1.4-0.1c-0.1,0-0.3,0-0.4,0c-0.5-0.1-0.9,0.1-1.2,0.5
		c-0.1,0.1-0.1,0.2-0.2,0.3c-0.5,0.5-0.5,1-0.1,1.6c0.1,0.1,0.1,0.3,0.1,0.4s0,0.3,0,0.5c-0.1,0.7-0.2,1.4-0.1,2.1
		c0,0.5,0.1,0.9,0.1,1.4c0,1,0,1.9-0.2,2.9c-0.1,0.2-0.1,0.4-0.1,0.6c0,0.5,0,1,0.1,1.5c0,0.1,0,0.3,0,0.4c0,0.3,0,0.7,0.1,1
		c0,0.1,0,0.2,0,0.3c0,0.3,0.1,0.6,0.1,0.8c0,0.2,0.1,0.3,0,0.5c-0.1,0.3-0.1,0.6-0.1,1c0,0.3,0,0.6-0.1,0.9s-0.1,0.7-0.1,1
		c0,0.6,0,1.3-0.1,1.9c0,0.2,0,0.4,0,0.6c0.1,0.6,0.2,1.2,0.3,1.8c0,0.2,0.1,0.4,0.1,0.7c0,0.4,0.1,0.7,0.1,1.1
		c0,0.1,0.1,0.3,0.1,0.4c0,0.4,0.1,0.9,0.1,1.3c0.1,0.5,0.1,0.9,0,1.4c0,0.3,0,0.7,0,1C162.4,93,162.5,93.4,162.5,93.8z"/>
	<linearGradient id="SVGID_4_" gradientUnits="userSpaceOnUse" x1="130.6637" y1="61.2375" x2="130.6637" y2="99.3376">
		<stop  offset="0.5492" style="stop-color:#FF0000"/>
		<stop  offset="1" style="stop-color:#C90E0E"/>
	</linearGradient>
	<path class="st3" d="M124.8,62.3c0.1,0,0.2,0.1,0.3,0.1c0.2,0.1,0.3,0.1,0.5,0s0.3-0.1,0.5-0.2c0.4-0.2,0.8-0.3,1.3-0.4
		c0.1,0,0.2,0,0.3,0c0.4,0.1,0.7,0,1-0.2c0.2-0.1,0.4-0.1,0.6-0.1c0.6,0,1.2-0.1,1.7-0.2c0.4-0.1,0.8-0.1,1.1-0.1c0.1,0,0.2,0,0.3,0
		c0.3,0.1,0.6,0.1,0.8,0.2c0.1,0,0.2,0.1,0.3,0.2c0.3,0.2,0.6,0.3,0.9,0.4c0.8,0.3,1.7,0.5,2.5,0.7c0,0,0,0,0.1,0
		c0.6,0,1.1,0.2,1.5,0.5c0.2,0.1,0.4,0.2,0.6,0.3c0.2,0.1,0.5,0.3,0.7,0.4c0.5,0.4,1.1,0.7,1.8,0.8c0.3,0.1,0.5,0.2,0.7,0.3
		c0.1,0.1,0.2,0.2,0.3,0.2c0.1,0.1,0.2,0.2,0.2,0.4c0.1,0.4,0.4,0.6,0.6,0.8c0.1,0.1,0.3,0.2,0.5,0.1c0.2,0,0.4,0,0.5,0
		c0.3-0.1,0.5,0.1,0.7,0.3c0.1,0.1,0.2,0.3,0.3,0.4c0.3,0.3,0.5,0.6,0.8,0.9l0.1,0.1c0.6,0.8,1.2,1.5,1.7,2.4
		c0.2,0.3,0.4,0.5,0.6,0.8c0.1,0.2,0.2,0.3,0.3,0.5c0.4,0.9,0.9,1.7,1.3,2.6c0,0.1,0.1,0.2,0.1,0.2c0.4,0.3,0.4,0.7,0.5,1.1v0.1
		c-0.1,0.3,0,0.6,0.1,0.9c0.1,0.6,0.3,1.1,0.4,1.7c0.1,0.9,0.3,1.8,0.2,2.7c0,0.3-0.1,0.5-0.1,0.8c-0.1,0.5-0.1,1-0.1,1.5
		c0,0.6-0.1,1.1-0.3,1.6c-0.2,0.6-0.4,1.2-0.5,1.8c0,0.2-0.1,0.3-0.1,0.5c-0.3,0.6-0.6,1.2-0.8,1.9c0,0.1-0.1,0.2-0.2,0.3
		c-0.2,0.3-0.4,0.6-0.6,0.9c-0.2,0.3-0.4,0.7-0.7,1l-0.1,0.1c-0.5,0.3-0.9,0.8-1.1,1.3c-0.1,0.3-0.3,0.5-0.6,0.7
		c-0.5,0.4-1,0.9-1.6,1.2c-0.7,0.4-1.4,0.9-2.1,1.3c-0.1,0.1-0.2,0.1-0.3,0.2c-0.6,0.3-1.2,0.6-1.9,0.8c-0.5,0.2-0.9,0.4-1.3,0.7
		c-0.4,0.2-0.8,0.4-1.2,0.4s-0.9,0.1-1.2,0.3c-0.2,0.1-0.4,0.1-0.5,0.2c-0.4,0.1-0.8,0.2-1.2,0.3c-0.6,0.2-1.2,0.3-1.8,0.3
		c-0.4,0-0.9-0.1-1.3-0.1c-0.3,0-0.6-0.1-0.9,0c-0.1,0-0.3,0-0.4,0c-0.5-0.1-1-0.3-1.6-0.3c-0.4-0.1-0.7-0.1-1.1-0.1
		c-0.7,0.1-1.3,0-2-0.2c-0.3-0.1-0.5-0.2-0.8-0.3c-0.2-0.1-0.4-0.2-0.7-0.2c-0.7-0.2-1.5-0.4-2.1-0.7c-0.3-0.1-0.6-0.3-0.9-0.3
		c-0.2,0-0.3-0.1-0.5-0.2c-0.3-0.2-0.7-0.4-1.1-0.5c-0.2-0.1-0.4-0.2-0.6-0.3c-0.6-0.3-1.2-0.6-1.8-0.9c-0.4-0.2-0.7-0.5-0.9-0.8
		c-0.4-0.6-0.7-1.1-1.1-1.6s-0.8-1.1-1.2-1.6c-0.1-0.2-0.3-0.3-0.4-0.5c0-0.1-0.1-0.1-0.1-0.1c-0.3-0.6-0.8-1.2-1-1.9
		c0-0.1-0.1-0.2-0.1-0.2c-0.5-0.7-0.7-1.4-1.1-2.1c-0.2-0.4-0.2-0.9-0.3-1.4c0-0.2-0.1-0.3-0.1-0.5s-0.1-0.4-0.2-0.6
		c-0.2-0.5-0.3-1-0.4-1.6c0-0.2-0.1-0.4-0.1-0.6c-0.1-0.5-0.1-0.9-0.2-1.4c0-0.3-0.1-0.6-0.1-0.8c0-0.1-0.1-0.2-0.1-0.3
		c-0.1-0.2-0.2-0.4-0.2-0.7c0-0.9,0.1-1.9,0.4-2.8c0-0.1,0.1-0.2,0.1-0.3c0-0.6,0.2-1.1,0.4-1.6c0.2-0.5,0.5-1,0.7-1.5
		c0.1-0.2,0.2-0.3,0.3-0.4c0.2-0.2,0.4-0.5,0.5-0.8c0.1-0.2,0.2-0.4,0.3-0.5c0.2-0.3,0.4-0.5,0.5-0.8c0.2-0.5,0.6-0.9,0.8-1.3
		c0.3-0.4,0.6-0.8,0.8-1.2c0.1-0.2,0.3-0.3,0.5-0.4c0.3-0.1,0.7-0.3,0.9-0.6c0.3-0.3,0.7-0.6,1-0.9c0.2-0.2,0.5-0.4,0.7-0.7
		c0.2-0.2,0.5-0.4,0.8-0.5s0.7-0.2,1-0.3c0.4-0.2,0.9-0.3,1.4-0.4c0.4-0.1,0.8-0.2,1.2-0.3s0.8-0.3,1.2-0.5c0.2-0.1,0.3-0.1,0.5-0.2
		C124.5,62.5,124.7,62.4,124.8,62.3z M125.6,65.4c-0.2,0.1-0.5,0.2-0.7,0.3c-0.4,0.2-0.7,0.4-1,0.7c-0.1,0.1-0.2,0.1-0.3,0.2
		c-0.2,0.2-0.5,0.3-0.8,0.5s-0.7,0.5-0.9,0.9c0,0.1-0.1,0.2-0.2,0.3c-0.2,0.1-0.4,0.3-0.5,0.5c-0.5,0.7-1.1,1.2-1.5,2
		c-0.1,0.2-0.3,0.4-0.5,0.7c-0.3,0.5-0.5,1-0.7,1.5c-0.3,0.7-0.5,1.4-0.8,2.1c0,0.1,0,0.2-0.1,0.2c-0.1,0.6-0.2,1.2-0.3,1.8
		c0,0.1,0,0.1-0.1,0.2c-0.1,0.2-0.1,0.4-0.1,0.6s0,0.4,0,0.6c0,0.9-0.1,1.8,0,2.7c0,0.2,0,0.4-0.1,0.6c-0.1,0.1-0.1,0.3-0.1,0.4
		c0,0.2,0,0.5,0,0.8c0,0.7,0.2,1.4,0.5,2c0.1,0.2,0.2,0.5,0.2,0.8c0,0.2,0,0.5,0.1,0.7c0.4,1.1,0.9,2.1,1.6,2.9
		c0.2,0.2,0.3,0.4,0.4,0.6c0.2,0.3,0.3,0.6,0.4,0.9c0.1,0.1,0.2,0.3,0.3,0.4c0.2,0.1,0.4,0.3,0.5,0.6c0.2,0.2,0.3,0.5,0.5,0.7
		c0,0.1,0.1,0.1,0.1,0.2c0.1,0.4,0.3,0.8,0.3,1.2c0,0.7,0.8,1,1.3,0.6c0.1-0.1,0.2-0.1,0.2-0.1c0.2,0,0.5-0.1,0.7-0.2
		s0.4-0.1,0.6,0.2c0.2,0.2,0.5,0.5,0.8,0.6c0.3,0.2,0.7,0.4,1.1,0.3c0.1,0,0.2,0,0.3,0c0.3,0,0.5,0.1,0.8,0.2c0.2,0,0.4,0.1,0.6,0.2
		c0.2,0.1,0.4,0.3,0.6,0.3c0.4,0.1,0.8,0.1,1.1-0.1c0.1-0.1,0.2-0.1,0.4-0.2c0.2,0.1,0.4,0.2,0.6,0.3c0.2,0.1,0.4,0.2,0.7,0.1
		c0.1,0,0.2-0.1,0.3-0.1c0.3,0.2,0.6,0.3,0.9,0.4c0.4,0.2,0.8,0.2,1.2,0c0.2-0.1,0.4-0.1,0.6-0.2c0.2-0.1,0.4-0.1,0.6-0.1
		c0.4-0.1,0.8-0.3,1.1-0.6c0.1-0.1,0.2-0.2,0.2-0.3c0.1-0.1,0.1-0.2,0.1-0.3c0.9-0.7,0.8-0.6,1.4-0.8c0.2-0.1,0.4-0.2,0.6-0.3
		c0.2-0.2,0.5-0.3,0.8-0.4c0.1,0,0.2-0.1,0.3-0.2c0.3-0.3,0.6-0.6,0.9-1c0.3-0.4,0.6-0.8,0.8-1.2c0.2-0.3,0.4-0.7,0.5-1.1
		c0.2-0.5,0.5-1,0.7-1.4c0.2-0.3,0.3-0.7,0.5-1c0.1-0.2,0.2-0.4,0.3-0.6c0-0.3,0.1-0.5,0.2-0.8c0.1-0.3,0.2-0.5,0.2-0.8
		c0-0.1,0-0.2,0-0.3c0.2-0.8,0.4-1.7,0.6-2.5c0-0.1,0.1-0.2,0.1-0.3c0.4-0.4,0.5-1,0.4-1.5c0-0.2-0.1-0.4-0.2-0.6
		c-0.1-0.2-0.1-0.3-0.1-0.4c0.1-0.3,0.1-0.7,0.1-1c0.1-0.2,0.1-0.5,0-0.7c0.3-0.6,0.3-1.1-0.1-1.6c-0.1-0.1-0.1-0.3-0.1-0.4
		c0-0.3-0.1-0.5-0.4-0.7c-0.3-0.2-0.5-0.6-0.6-0.9s-0.2-0.5-0.4-0.7c-0.2-0.3-0.4-0.6-0.6-0.9c-0.2-0.3-0.3-0.6-0.4-0.9
		c-0.1-0.4-0.3-0.8-0.6-1.2c-0.3-0.5-0.6-0.9-0.9-1.4c-0.2-0.3-0.3-0.6-0.6-0.7c0,0-0.1,0-0.1-0.1c-0.1-0.2-0.4-0.3-0.6-0.5
		c-0.2-0.1-0.4-0.2-0.6-0.4c-0.2-0.2-0.4-0.3-0.7-0.5c-0.1-0.1-0.3-0.2-0.5-0.2c-0.1,0.1-0.1,0.2-0.1,0.4c0,1.1,0,2.2,0,3.3
		c0,0.3,0,0.5,0.1,0.8c0.1,0.7,0.2,1.4,0.3,2.1c0.1,0.5,0.1,1-0.1,1.6c-0.1,0.2-0.2,0.4-0.5,0.4c-0.2,0-0.5,0-0.6-0.3
		c-0.1-0.2-0.2-0.4-0.2-0.6c0-0.4,0-0.8,0-1.2c0-0.5,0.1-1,0.1-1.5c0-0.7,0-1.3,0-2s0-1.5,0-2.2c0-0.3-0.1-0.6-0.1-0.9
		c-0.1-0.3-0.3-0.7-0.7-0.8c-0.1,0-0.1,0-0.2-0.1c-0.3-0.2-0.7-0.3-1-0.5c-0.2-0.2-0.5-0.2-0.7-0.2s-0.4-0.1-0.6-0.1
		c-0.2-0.1-0.4-0.1-0.6-0.1c-0.4,0-0.9,0.1-1.4,0.1c-0.1,0-0.3,0-0.5,0c-0.5-0.1-1-0.2-1.5-0.3c-0.1,0-0.1,0-0.2,0
		c-0.4,0.1-0.8,0-1.2-0.1s-0.9,0-1.3,0.2c0,0.1-0.1,0.2-0.1,0.4c-0.1,0.3-0.1,0.7-0.3,1c0,0.1,0,0.1,0,0.2c0,0.3-0.1,0.5-0.1,0.8
		c0,1.7-0.1,3.5-0.1,5.2c0,2.2,0,4.3,0.1,6.5c0,1.2,0,2.4,0,3.6c0,0.6,0.1,1.2,0.2,1.8c0.1,0.8,0.2,1.5,0,2.2c0,0.2-0.1,0.4-0.3,0.5
		c-0.3,0.3-0.9,0.3-1.1-0.2c0-0.1-0.1-0.2-0.1-0.4c-0.1-0.5-0.2-1-0.1-1.5c0-0.1,0-0.3,0.1-0.4c0.1-1.2,0.1-2.4,0.1-3.7
		c0-2.4,0-4.7,0.1-7.1c0-1.9,0-3.8,0-5.8c0-0.6-0.1-1.3-0.1-1.9C125.8,65.9,125.7,65.7,125.6,65.4z"/>
	<linearGradient id="SVGID_5_" gradientUnits="userSpaceOnUse" x1="29.75" y1="59.8625" x2="29.75" y2="101.5843">
		<stop  offset="0.5492" style="stop-color:#FF0000"/>
		<stop  offset="1" style="stop-color:#C90E0E"/>
	</linearGradient>
	<path class="st4" d="M25.1,100.4c-0.1,0.3-0.1,0.5-0.2,0.7c-0.2,0.5-0.7,0.6-1.1,0.2c-0.1-0.1-0.2-0.3-0.3-0.5s-0.1-0.3-0.1-0.5
		c-0.1-0.1-0.3-0.1-0.5-0.1c-0.3,0-0.6,0-0.8-0.1c-0.4-0.2-0.9-0.2-1.3-0.2c-0.5,0-1,0-1.4,0c-0.7,0-1.5-0.1-2.1-0.2
		c-0.3-0.1-0.6-0.2-0.9-0.3c-0.5-0.2-1-0.4-1.4-0.7c0-0.2-0.1-0.3-0.1-0.4c0.4-0.7,0.8-1.4,1-2.1c0.1-0.3,0.3-0.7,0.4-1
		c0-0.1,0-0.1,0.1-0.2c0.4-0.5,0.6-1.1,0.9-1.6c0,0,0-0.1,0.1-0.1c0.1,0.1,0.3,0.2,0.4,0.2c0.3,0.1,0.4,0.4,0.6,0.5s0.4,0.3,0.5,0.5
		c0.1,0.2,0.6,0.4,0.9,0.2c0.1-0.1,0.3-0.2,0.4-0.2c0.1-0.1,0.1-0.2,0.2-0.2c0.3-0.1,0.4-0.4,0.4-0.7c0-2,0-4,0-5.9
		c0-0.3,0-0.6,0-0.9c0-0.5,0-0.9,0-1.4c0-0.2,0-0.5-0.1-0.8c-0.1-1-0.1-1.9-0.1-2.9c-0.1-1.4-0.1-2.9,0-4.3c0-1.1,0-2.3,0-3.4
		c0-0.3,0.1-0.6,0.1-0.9c0-0.1,0.1-0.2,0.1-0.3c0-0.6,0-1.2,0-1.8c0-0.4-0.1-0.8-0.2-1.1c-0.1-0.2,0-0.4-0.1-0.7
		c-0.1-0.6-0.2-1.2-0.2-1.9c0-0.3-0.1-0.6-0.2-0.9c-0.1-0.1-0.2-0.2-0.3-0.3C19.7,66,19.6,66,19.5,66c-0.5,0.1-0.9,0.3-1.3,0.7
		c-0.2,0.2-0.4,0.2-0.6,0.1c-0.1,0-0.1-0.1-0.2-0.2c-0.2-0.4-0.4-0.8-0.6-1.2c-0.2-0.4-0.4-0.9-0.6-1.3c-0.2-0.4-0.4-0.8-0.6-1.2
		v-0.1c-0.3-0.3-0.4-0.7-0.5-1.1c0.5-0.5,1.1-0.9,1.8-1.1c0.4-0.1,0.9-0.2,1.3-0.2c0.3,0,0.6,0,0.9-0.1c0.2,0,0.5,0,0.7-0.1
		c0.2,0,0.5,0,0.8,0c0.5,0,0.9,0,1.4-0.2c0.5-0.1,0.9,0,1.4,0c0.1,0,0.3,0,0.5,0.1c0.7,0,1.4,0,2.1,0c0.5,0,1-0.1,1.5-0.2
		c0.7-0.1,1.4-0.1,2.1,0c0.2,0,0.3,0.1,0.5,0c0.6,0,1.3,0.1,1.9,0.1c0.4,0,0.9,0.1,1.3,0.2c0.3,0,0.7,0.1,1,0.2
		c0.5,0.1,0.9,0.1,1.4,0.1c0.1,0,0.3,0,0.4,0.1c0.6,0.1,1.2,0.3,1.7,0.6c0.2,0.1,0.4,0.2,0.7,0.2c0.1,0,0.1,0,0.2,0
		c0.4,0.1,0.8,0.3,1.1,0.4s0.6,0.3,0.9,0.4c0.2,0.1,0.4,0.2,0.5,0.3c0.2,0.3,0.5,0.5,0.8,0.7c0.3,0.3,0.7,0.6,1,0.9
		c0.5,0.4,0.8,0.9,1,1.5c0,0.1,0,0.2,0.1,0.2c0.3,0.5,0.4,1,0.3,1.6c0,0.1,0,0.2,0.1,0.3c0.1,0.2,0.1,0.3,0.1,0.5
		c-0.1,0.3-0.2,0.7-0.2,1.1c0,0.1,0,0.3-0.1,0.4c-0.1,0.2-0.2,0.4-0.2,0.6c0,0.4-0.1,0.7-0.3,1c-0.2,0.4-0.5,0.8-0.8,1.2
		c-0.4,0.3-0.6,0.7-0.8,1.1c-0.3,0.5-0.8,0.8-1.2,1.1c-0.3,0.2-0.7,0.4-1,0.6c-0.9,0.7-1.7,1.3-2.5,1.7c0,0-0.1,0-0.1,0.1
		c-0.8,0.5-1.5,0.9-2.4,1.2c-0.1,0.1-0.2,0.2-0.2,0.3c0,0.1,0.1,0.3,0.2,0.4c0.4,0.4,0.8,0.8,1.2,1.1c0.2,0.2,0.4,0.4,0.7,0.5l0,0
		c0.4,0.3,0.9,0.7,1.3,1c0.7,0.6,1.3,1.2,1.9,1.9c0.2,0.2,0.4,0.3,0.5,0.5c0.1,0.1,0.3,0.3,0.4,0.4c0.6,0.8,1.1,1.6,1.7,2.3
		c0.1,0.1,0.1,0.2,0.2,0.2c0.1,0.1,0.2,0.3,0.2,0.4c0.1,0.3,0.2,0.7,0.2,1.1c0,0.3,0.1,0.5,0.1,0.8c0,0.1,0,0.2,0,0.3
		c0.1,0.6,0.2,1.1,0.4,1.7c0.1,0.3,0.1,0.7,0.1,1c0,0.4-0.1,0.8-0.1,1.2c0,0.2-0.1,0.4-0.2,0.5c-0.1,0.2-0.2,0.3-0.2,0.5
		c-0.1,0.4-0.4,0.8-0.6,1.1c-0.3,0.3-0.5,0.6-0.8,0.9c-0.4,0.5-0.9,0.9-1.4,1.3c-0.4,0.3-0.9,0.5-1.4,0.7c-0.5,0.1-1,0.3-1.5,0.5
		s-1.1,0.4-1.7,0.4c-0.6,0.1-1.1,0.2-1.7,0.3c-0.4,0.1-0.8,0.1-1.1,0c-0.2-0.1-0.3,0-0.4,0.1c-0.3,0.2-0.6,0.3-1,0.4
		s-0.8,0.1-1.2,0.2c-0.6,0.1-1.3,0.1-1.9,0.2c-0.1,0-0.2,0-0.3,0c-1-0.1-2,0-3.1-0.1C25.3,100.3,25.2,100.4,25.1,100.4z M35.5,83.6
		c0,0.2,0,0.2,0,0.4c0.1,1.1,0.2,2.2,0.4,3.3c0.1,0.3,0.1,0.6,0.1,0.8c0,0.3-0.1,0.7-0.3,0.9c-0.3,0.3-0.7,0.2-0.9-0.2
		c-0.1-0.2-0.1-0.5-0.2-0.7s0-0.5,0-0.8c0.1-1.5,0.1-3,0-4.5c0-0.2-0.1-0.3-0.2-0.5c-0.4-0.3-0.8-0.7-1.3-0.8
		c-0.3-0.1-0.6-0.2-0.8-0.3c-0.1-0.1-0.3-0.1-0.5-0.1c-0.3,0-0.6-0.1-0.9-0.2c-0.1-0.1-0.2-0.1-0.3-0.1c-0.3,0-0.6-0.1-0.9-0.2
		c-0.5-0.1-1-0.3-1.5-0.6c-0.3-0.2-0.5-0.4-0.5-0.8c0-0.1,0-0.2-0.1-0.2c-0.1-0.2,0-0.3,0.1-0.4c0.5-0.3,1-0.6,1.5-0.6
		c0.1,0,0.2,0,0.2,0c0.5-0.2,0.9-0.3,1.4-0.5c0.1,0,0.1-0.1,0.2-0.1c0.5-0.2,1-0.5,1.5-0.7c0.7-0.3,1.4-0.7,2.1-1.1
		c0.2-0.1,0.4-0.3,0.6-0.4c0.3-0.2,0.6-0.4,0.9-0.6c0.3-0.2,0.6-0.5,0.8-0.7c0.1-0.1,0.3-0.2,0.4-0.4c0.4-0.6,0.8-1.1,1.2-1.7
		c0.1-0.2,0.2-0.4,0.3-0.6s0.1-0.4,0.2-0.6c0-0.4,0-0.9,0-1.3s-0.2-0.9-0.2-1.3c-0.1-0.3-0.2-0.7-0.5-1c-0.2-0.2-0.2-0.4-0.4-0.6
		c-0.1-0.2-0.2-0.3-0.3-0.5c-0.3-0.4-0.6-0.7-1.1-0.8c-0.3-0.1-0.5-0.2-0.8-0.2c-0.1,0-0.2,0-0.3-0.1c-0.5-0.2-1-0.5-1.4-0.7
		c-0.2-0.1-0.5-0.2-0.7-0.2c-0.3,0-0.7,0-1-0.1c-0.1,0-0.2-0.1-0.3-0.1c-0.6-0.1-1.2-0.1-1.9-0.2c-0.3,0-0.7,0-1,0.1
		c-0.1,0-0.3,0-0.5,0s-0.4,0-0.6,0.1c-0.4,0.2-0.8,0.2-1.2,0.2s-0.7,0-1,0s-0.3,0.1-0.3,0.4c0,0.1,0,0.2,0,0.4c0,0.2,0,0.3,0,0.5
		c0.1,0.9,0,1.8-0.2,2.6c-0.1,0.4-0.1,0.7-0.1,1.1s0,0.9,0,1.3c0,0.9-0.1,1.8-0.3,2.6c-0.1,0.6-0.2,1.1-0.2,1.7c0,1.2,0,2.5,0,3.7
		s0,2.4,0,3.6c0,0.3,0,0.5-0.1,0.8c0,0.3,0,0.5,0,0.8s0.1,0.5,0.1,0.8c0,0.4,0.1,0.8,0.1,1.3c0,0.4,0.1,0.9,0.1,1.3
		c0,1.2,0,2.4,0,3.6c0,0.4,0.1,0.8,0.2,1.1c0.1,0.5,0.3,0.9,0.2,1.4c0,0.4,0,0.9-0.1,1.3c0,0.4,0,0.7-0.1,1.1
		c-0.1,0.2,0.1,0.4,0.3,0.3c0.2-0.1,0.5,0,0.7,0.1c0.7,0.2,1.3,0.1,2,0.1c0.2,0,0.5-0.1,0.7-0.1c1,0,2,0,2.9,0c0.2,0,0.4,0,0.6-0.2
		c0.1-0.1,0.2-0.1,0.3-0.1c0.4,0,0.7-0.1,1-0.2c0.5-0.1,0.9-0.3,1.4-0.4c0.1,0,0.3-0.1,0.4-0.1c0.2,0,0.4,0,0.5-0.1
		c0.6-0.3,1.1-0.7,1.4-1.3c0.3-0.6,0.6-1.3,0.7-2c0.1-0.4,0.2-0.8,0.3-1.2c0-0.2,0.1-0.3,0.1-0.5c0-0.4,0.1-0.8-0.1-1.2
		c-0.1-0.3-0.2-0.5-0.3-0.8c0-0.4-0.2-0.7-0.4-1c-0.3-0.3-0.5-0.7-0.8-1.1c-0.2-0.2-0.3-0.5-0.4-0.7c-0.3-0.4-0.5-0.8-0.8-1.2
		C35.6,83.5,35.5,83.5,35.5,83.6C35.9,83.9,35.8,83.7,35.5,83.6z"/>
	<linearGradient id="SVGID_6_" gradientUnits="userSpaceOnUse" x1="88.05" y1="60.2875" x2="88.05" y2="98.8125">
		<stop  offset="0.5492" style="stop-color:#FF0000"/>
		<stop  offset="1" style="stop-color:#C90E0E"/>
	</linearGradient>
	<path class="st5" d="M108.8,80.6c0,0.2,0,0.6,0,0.9c0,0.4-0.1,0.9-0.2,1.3s-0.1,0.8-0.2,1.2c-0.1,0.3-0.2,0.6-0.2,0.9
		c-0.1,0.2-0.2,0.3-0.2,0.5c-0.1,0.2-0.1,0.3-0.2,0.5c-0.2,0.4-0.2,0.8-0.2,1.2c0,0.2-0.1,0.3-0.2,0.5c-0.4,0.5-0.8,1.1-1.1,1.6
		c-0.3,0.4-0.5,0.8-0.8,1.2c-0.1,0.2-0.2,0.3-0.3,0.4c-0.4,0.4-0.7,0.9-1,1.4c-0.2,0.3-0.3,0.6-0.5,0.8c-0.1,0.2-0.3,0.3-0.4,0.4
		c-0.6,0.6-1.3,1.1-2.1,1.4c-0.1,0-0.1,0.1-0.2,0.1c-0.3,0.3-0.8,0.4-1.2,0.5c-0.4,0.2-0.8,0.3-1.2,0.6c-0.1,0.1-0.2,0.1-0.2,0.2
		c-0.1,0.2-0.3,0.3-0.6,0.3c-0.6,0.1-1.2,0.3-1.9,0.5c-0.2,0.1-0.5,0.1-0.7,0.1c-0.4,0-0.7,0.1-1,0.3c-0.4,0.2-0.8,0.2-1.2,0.3
		c-0.2,0-0.3,0.1-0.5,0.1C92.2,97.9,92,98,91.7,98c-0.4,0-0.9,0-1.3,0c-0.1,0-0.2,0-0.3,0.1c-0.6,0.2-1.3,0.3-1.9,0.4
		c-0.3,0.1-0.6,0.1-0.9,0.2c-0.2,0.1-0.4,0.1-0.6,0s-0.5-0.1-0.7-0.1c-0.3,0-0.7-0.1-1-0.1c-0.1,0-0.2-0.1-0.3-0.1
		c-0.4-0.3-0.8-0.4-1.3-0.5h-0.1c-0.5-0.2-1-0.3-1.4-0.4s-0.8-0.3-1.2-0.4c-0.5-0.2-1.1-0.4-1.6-0.7c-0.2-0.1-0.4-0.2-0.6-0.2
		c-0.1-0.1-0.2-0.1-0.3-0.2c-0.3-0.2-0.6-0.4-0.8-0.6c-0.4-0.3-0.8-0.6-1.3-0.9c-0.2-0.2-0.5-0.4-0.7-0.5c-0.6-0.3-1.1-0.7-1.6-1.1
		c0,0-0.1,0-0.1-0.1c-0.6-0.3-1.1-0.8-1.6-1.3c-0.3-0.3-0.5-0.6-0.6-0.9c-0.2-0.4-0.3-0.8-0.6-1.1c-0.1-0.2-0.2-0.4-0.4-0.5
		c-0.1-0.1-0.2-0.2-0.2-0.3c-0.6-1-1-2-1.3-3.2c-0.1-0.3-0.2-0.5-0.3-0.8c-0.2-0.6-0.5-1.2-0.7-1.8c-0.1-0.5-0.3-1.1-0.4-1.6
		c-0.1-0.4-0.2-0.9-0.2-1.3c-0.1-0.6-0.2-1.1-0.1-1.7c0-0.2,0-0.5,0-0.8c0-0.4,0.1-0.7,0.2-1.1c0.2-0.4,0.3-0.8,0.2-1.2
		c0-0.2,0-0.4,0.1-0.6c0.1-0.4,0.2-0.7,0.1-1.1c0-0.1,0-0.1,0-0.2c0.2-0.9,0.3-1.8,0.8-2.6c0.3-0.5,0.6-1.1,1-1.6
		c0.2-0.3,0.3-0.5,0.5-0.8c0-0.1,0.1-0.1,0.1-0.1c0.2-0.1,0.3-0.3,0.4-0.5c0.2-0.3,0.5-0.6,0.9-0.8c0.6-0.3,1.1-0.7,1.6-1.2
		c0.3-0.3,0.6-0.6,1-0.8c0.1,0,0.1-0.1,0.2-0.2c0.5-0.5,1.1-0.9,1.8-1.3c0.6-0.3,1.2-0.6,1.8-1.1c0.2-0.1,0.3-0.2,0.5-0.3
		c0.6-0.1,1.1-0.4,1.6-0.6c0.1-0.1,0.3-0.1,0.5-0.1s0.4-0.1,0.6-0.1c0.5-0.2,1-0.3,1.5-0.3c0.3,0,0.5-0.1,0.8,0
		c0.2,0.1,0.3,0,0.5-0.1c0.3-0.1,0.7-0.3,1-0.4c0.5-0.2,0.9-0.2,1.4,0c0.2,0,0.4,0,0.6,0.1c0.1,0,0.2,0,0.4,0.1
		c0.2,0,0.4,0.1,0.6,0.1c0.6,0,1.2,0.1,1.8,0.1c0.4,0,0.8,0.1,1.2,0.1c0.2,0,0.4,0.1,0.5,0.3c0.2,0.2,0.5,0.3,0.8,0.3
		c0.2,0,0.5,0.1,0.8,0.1c0.2,0,0.4,0,0.7,0c0.2-0.1,0.3,0,0.5,0.1c0.3,0.1,0.6,0.3,0.9,0.4c0.2,0.1,0.5,0.1,0.7,0.2
		c0.3,0,0.6,0.1,0.8,0.2c0.1,0,0.2,0.1,0.2,0.1c0.2,0,0.4,0.2,0.6,0.2c0.2,0.1,0.5,0.3,0.7,0.4c0.4,0.2,0.8,0.4,1.2,0.7
		c0.2,0.1,0.4,0.3,0.6,0.4c0.3,0.2,0.6,0.5,0.9,0.6c0.3,0.2,0.5,0.4,0.7,0.8c0.1,0.2,0.1,0.3,0.2,0.4c0.1,0.3,0.2,0.5,0.5,0.7
		c0.4,0.4,0.8,0.8,1.3,1.2l0.1,0.1c0.3,0.1,0.4,0.4,0.6,0.6c0.2,0.3,0.4,0.7,0.6,1c0.1,0.2,0.3,0.5,0.4,0.7c0.4,0.6,0.7,1.2,1,1.8
		c0.3,0.7,0.6,1.4,0.9,2.1c0.4,0.9,0.8,1.7,1.3,2.5c0.1,0.1,0.2,0.3,0.1,0.4c0,0.3,0.1,0.6,0.1,0.8
		C108.8,78.9,108.9,79.7,108.8,80.6z M99.7,72.2c-0.1-0.3-0.1-0.5-0.1-0.8c0-0.1-0.1-0.2-0.1-0.3c-0.2-0.3-0.5-0.6-0.7-0.8
		c-0.1-0.1-0.1-0.2-0.1-0.2c-0.1-0.7-0.5-1.2-0.9-1.8c-0.1-0.2-0.3-0.4-0.4-0.7c-0.2-0.5-0.5-0.9-1.1-1c-0.2,0-0.4-0.1-0.6-0.1
		c-0.1,0-0.3,0-0.4,0c-0.5,0.1-1,0-1.4-0.2c-0.2-0.1-0.4-0.2-0.6-0.3c-0.1-0.1-0.2-0.1-0.3-0.2c-0.2-0.1-0.4-0.2-0.6-0.3
		c-0.4-0.2-0.7-0.3-1.1-0.4C91.1,65,91,65,90.9,64.9c-0.5-0.3-1.1-0.4-1.7-0.5c-0.3,0-0.6-0.1-0.9-0.2c-0.1,0-0.1,0-0.2-0.1
		c-0.2-0.2-0.4-0.2-0.6-0.3c-0.2-0.1-0.4-0.2-0.6-0.3c-0.4-0.2-0.9-0.3-1.4-0.2c-0.1,0-0.3,0.1-0.4,0.1c-0.4,0.2-0.8,0.3-1.1,0.5
		c-0.4,0.1-0.7,0.3-1,0.7c-0.1,0.1-0.2,0.2-0.3,0.2c-0.3,0.1-0.6,0.2-0.8,0.4c-0.1,0.1-0.2,0.1-0.3,0.1c-0.3,0.1-0.7,0.3-1.1,0.4
		c-0.1,0-0.2,0.1-0.2,0.1c-0.6,0.3-1.1,0.8-1.6,1.2c-0.3,0.3-0.6,0.6-0.8,1c-0.1,0.3-0.3,0.6-0.5,0.8c-0.1,0.1-0.2,0.2-0.2,0.3
		c-0.1,0.3-0.2,0.5-0.4,0.8c-0.6,0.9-1,1.8-1.3,2.8c0,0.1,0,0.2-0.1,0.2c-0.2,0.5-0.4,1-0.4,1.5c0,0.1-0.1,0.2-0.1,0.3
		c-0.4,0.5-0.7,1.1-0.8,1.8c0,0.2-0.1,0.3-0.1,0.5s-0.1,0.3-0.2,0.4c-0.2,0.3-0.4,0.7-0.4,1.2c0,0.4,0,0.8,0.2,1.2v0.1
		c0.1,0.2,0.1,0.4,0,0.6c-0.2,0.3-0.2,0.7-0.3,1c-0.1,0.5-0.1,1,0.1,1.4c0.1,0.2,0.1,0.4,0.2,0.6c0.2,0.6,0.5,1.2,0.7,1.9
		c0.2,0.5,0.4,1,0.7,1.4c0,0.1,0.1,0.1,0.1,0.2c0.2,0.4,0.3,0.8,0.5,1.3c0.1,0.3,0.3,0.7,0.5,1s0.3,0.5,0.5,0.8
		c0.2,0.5,0.5,0.8,1,1.1c0.2,0.2,0.4,0.3,0.7,0.4c0.3,0.2,0.6,0.4,0.8,0.5c0.2,0.1,0.3,0.2,0.4,0.3c0.5,0.5,1.2,0.8,1.8,1.2
		c0.2,0.2,0.5,0.3,0.8,0.4c0.2,0.1,0.5,0.2,0.7,0.3c0.7,0.3,1.3,0.4,2.1,0.5c0.5,0,1.1,0.1,1.6,0.1c0.4,0.1,0.8,0.1,1.2,0.2
		c0.3,0.1,0.6,0.2,1,0.2c0.7,0.1,1.4,0,2.2-0.1c0.4,0,0.8-0.2,1.3-0.3c0.4-0.1,0.8-0.3,1.2-0.4c0.4-0.2,0.7-0.3,1.1-0.3
		c0.2,0,0.4-0.1,0.5-0.3c0.3-0.3,0.7-0.6,1.1-0.9c0.2-0.1,0.3-0.2,0.5-0.4c0.7-0.8,1.4-1.6,1.9-2.5c0.1-0.2,0.2-0.2,0.3-0.3
		c0.2-0.1,0.4-0.2,0.5-0.4c0.4-0.6,0.7-1.3,1-1.9c0.1-0.1,0.1-0.3,0.2-0.4c0.2-0.6,0.4-1.2,0.6-1.8c0.2-0.6,0.4-1.2,0.4-1.9
		c0-0.4,0.1-0.8,0.2-1.3c0.2-0.7,0.3-1.4,0.3-2.1c0-0.5-0.1-1.1-0.2-1.6c-0.2-0.5-0.2-1-0.2-1.5c0-0.3-0.1-0.5-0.1-0.8
		c-0.1-0.4-0.3-0.8-0.5-1.1c-0.3-0.5-0.4-1-0.3-1.5c0-0.3-0.1-0.7-0.3-0.9C100,72.4,99.8,72.3,99.7,72.2z"/>
	<linearGradient id="SVGID_7_" gradientUnits="userSpaceOnUse" x1="134.5" y1="100.5375" x2="134.5" y2="138.0032">
		<stop  offset="0.5492" style="stop-color:#FF0000"/>
		<stop  offset="1" style="stop-color:#C90E0E"/>
	</linearGradient>
	<path class="st6" d="M128.8,137.9c-0.6,0.1-1.2,0.1-1.8-0.1c-0.4-0.1-0.9-0.1-1.3-0.1c-0.2,0-0.3,0-0.5-0.1
		c-0.4-0.2-0.8-0.2-1.2-0.3c-0.4-0.1-0.7-0.1-1.1-0.2c-0.2-0.1-0.4-0.1-0.7-0.1c-0.6,0-1.2,0-1.8,0c-0.3,0-0.5-0.1-0.7-0.2
		c-0.3-0.1-0.5-0.2-0.9-0.4c-0.1-0.2-0.1-0.5-0.1-0.8c0.1-0.6,0.2-1.1,0.3-1.6c0.1-0.3,0.1-0.6-0.1-0.9c0-0.1-0.1-0.1-0.1-0.2
		c-0.1-0.2,0-0.3,0.1-0.4s0.3-0.1,0.4-0.1c0.3,0.1,0.5,0.2,0.6,0.6c0.1,0.3,0.3,0.5,0.5,0.7c0.2,0.1,0.4,0.4,0.6,0.5
		c0.1,0.1,0.3,0.3,0.4,0.4c0.3,0.2,0.7,0.4,1.1,0.7c0.2,0.1,0.3,0.1,0.5,0.1s0.3,0,0.5,0c0.3,0,0.5-0.1,0.5-0.4c0-0.6,0-1.2,0-1.8
		c-0.1-0.6-0.1-1.2,0-1.9c0.1-0.5,0.1-0.9,0.1-1.4c0-0.3,0-0.6,0.2-0.9c0.1-0.1,0.1-0.2,0.1-0.3c0-0.6,0-1.3,0-1.9
		c0-0.3,0-0.6-0.2-0.9c0-0.2,0-0.4,0-0.5c0.1-1,0.1-1.9,0.2-2.9c0-0.1,0-0.2,0-0.3c0-0.2,0.1-0.3,0-0.5c-0.1-0.8,0.1-1.5,0.1-2.2
		c0-0.4,0.1-0.9,0.1-1.3s0.1-0.8,0.1-1.2c0-0.3,0-0.6-0.3-0.7c0-0.2,0-0.4,0-0.6c0-0.4,0.1-0.8,0.1-1.3c0.1-0.8,0-1.5-0.2-2.3
		c-0.1-0.4-0.2-0.8-0.2-1.2c-0.1-0.6-0.2-1.2-0.3-1.8c0-0.3-0.1-0.6-0.1-0.8c0-0.2,0-0.4-0.1-0.7c-0.1-0.4-0.1-0.9,0-1.3
		c0-0.2,0.1-0.3,0.1-0.5c0.1-0.3,0-0.6-0.1-0.9c-0.1-0.2-0.1-0.4-0.1-0.6s0-0.4,0-0.6s-0.1-0.4-0.2-0.6c-0.2-0.3-0.4-0.4-0.8-0.3
		c-0.3,0.1-0.6,0.2-0.9,0.5c-0.3,0.2-0.7,0.5-1.1,0.5c-0.1,0-0.3,0.1-0.4,0.2c-0.3,0.2-0.7,0.5-1,0.7c-0.1,0.1-0.2,0.2-0.3,0.2
		c-0.2,0.2-0.3,0.2-0.5,0.1c-0.2-0.2-0.5-0.3-0.7-0.3c-0.1-0.3-0.1-0.7,0-1c0-0.4,0-0.7-0.2-1.1c-0.2-0.2-0.3-0.6-0.4-0.8v-0.1
		c0-0.3,0.3-0.8,0.5-0.9c0.3-0.1,0.5-0.2,0.8,0c0.1,0.1,0.2,0.1,0.4,0.1c0.9,0.2,1.8,0.4,2.6,0.5c0.2,0,0.3,0,0.5,0
		c0.4-0.1,0.9-0.2,1.3-0.1c0.3,0.1,0.5,0,0.8-0.1c0.3-0.2,0.6-0.3,0.9-0.5c0.2-0.1,0.4-0.1,0.6-0.1c0.3,0.1,0.6,0,0.9,0.1
		c0.1,0,0.2,0,0.3,0c0.7-0.2,1.3-0.1,2,0c0.2,0,0.3,0,0.5,0c0.3-0.1,0.6-0.1,0.9-0.2c0.1,0,0.2,0,0.4,0.1c0.5,0.2,1,0.4,1.5,0.2
		c0.2,0,0.4,0,0.6,0.1c0.1,0.1,0.3,0.1,0.4,0.1c0.2,0,0.5,0,0.7,0s0.4,0,0.6,0.1c0.2,0.1,0.5,0.1,0.7,0s0.4,0,0.6,0
		c0.5,0.1,0.9,0.2,1.4,0.4c0.1,0,0.1,0,0.2,0.1c0.5,0.1,1,0.2,1.5,0.2c0.3,0.1,0.5,0.1,0.8,0.3c0.2,0.2,0.5,0.3,0.8,0.4
		c0.1,0.1,0.3,0.1,0.4,0.1c0.2,0,0.3,0,0.4,0.1c0.2,0.2,0.5,0.2,0.8,0.3c0.2,0,0.4,0.1,0.6,0.1s0.4,0.2,0.6,0.2
		c0.3,0.1,0.5,0.2,0.6,0.4c0.1,0.2,0.4,0.4,0.5,0.5s0.3,0.3,0.4,0.4c0.1,0.1,0.2,0.2,0.3,0.2c0.2,0,0.3,0.1,0.4,0.2
		c0.3,0.4,0.7,0.7,1.1,1.1c0.1,0.1,0.2,0.2,0.3,0.4c0.2,0.2,0.4,0.3,0.5,0.5c0.1,0.1,0.2,0.2,0.3,0.3c0.1,0.2,0.3,0.4,0.5,0.5
		c0.1,0.1,0.2,0.2,0.3,0.3c0.2,0.3,0.3,0.6,0.5,0.8c0.1,0.2,0.2,0.4,0.4,0.6s0.3,0.4,0.4,0.7c0.1,0.4,0.3,0.8,0.6,1.1
		c0.2,0.2,0.3,0.5,0.4,0.7c0.2,0.4,0.3,0.8,0.6,1.2c0.1,0.1,0.1,0.3,0.1,0.4c0,0.4,0.1,0.9,0.2,1.4c0.1,0.6,0.2,1.2,0.2,1.8
		c0,0.2,0.1,0.4,0.2,0.6c0.1,0.3,0.2,0.6,0.2,0.9c0,0.7-0.1,1.3-0.1,2c0,0.3-0.1,0.6-0.2,0.8c-0.2,0.5-0.3,1.1-0.5,1.6
		c-0.1,0.2-0.1,0.3-0.2,0.5c-0.2,0.7-0.3,1.4-0.5,2.1c-0.2,1.1-0.6,2.1-1.1,3c-0.2,0.4-0.4,0.8-0.7,1.1c-0.2,0.3-0.5,0.7-0.7,1
		c-0.3,0.4-0.7,0.9-1,1.3c-0.1,0.1-0.1,0.2-0.2,0.2c-0.5,0.4-1,0.8-1.5,1.2c-0.6,0.5-1.2,0.9-1.9,1.4c-0.4,0.3-0.9,0.6-1.4,0.7
		c-0.1,0-0.3,0.1-0.4,0.2c-0.9,0.4-1.9,0.7-2.9,1c-0.4,0.1-0.9,0.2-1.3,0.5c-0.1,0.1-0.2,0.1-0.3,0.1c-0.9,0.2-1.8,0.3-2.6,0.5
		c-0.4,0.1-0.7,0.1-1.1,0.2c-0.3,0.1-0.5,0-0.8,0.1c-0.5,0-1.1,0.1-1.6,0.1c-0.4,0-0.7-0.1-1.1-0.1c-0.1,0-0.2,0-0.3-0.1
		c-0.2,0-0.3-0.1-0.5-0.3c-0.2-0.3-0.5-0.2-0.7,0C128.9,137.7,128.8,137.8,128.8,137.9z M134.7,103.1c-0.1-0.3-0.3-0.3-0.6-0.3
		c-0.6-0.1-1.2-0.2-1.9-0.3c-0.4-0.1-0.7-0.1-1,0s-0.3,0.1-0.4,0.4c-0.1,0.4-0.1,0.8-0.2,1.2c0,0.2-0.1,0.3-0.1,0.4
		c-0.1,0.2-0.1,0.5-0.1,0.7c0.1,0.5,0,0.9,0,1.4c0,0.1,0,0.3-0.1,0.4c-0.2,0.9-0.2,0.9-0.2,1.9c0,0.8-0.1,1.6-0.1,2.4
		c0,1.1,0,2.1,0,3.2v0.1c0.1,0.4,0,0.8-0.1,1.1c-0.2,0.4-0.2,0.8-0.2,1.2c0,0.6,0,1.2,0,1.8c0,0.1,0,0.3,0,0.4c-0.1,0.5-0.1,1,0,1.5
		c0.1,0.4,0.1,0.7,0.1,1.1c0,0.5,0,1,0,1.5c0,0.4-0.1,0.8-0.2,1.2c-0.1,0.3,0,0.6,0.1,0.8c0.1,0.3,0.2,0.6,0.2,1
		c-0.1,0.6,0,1.3-0.1,1.9c0,0.1,0,0.2,0,0.2c0,0.8,0,1.5,0,2.3c0,0.2,0,0.5,0,0.8c0,0.4,0.1,0.9-0.1,1.3c0,0.1-0.1,0.2-0.1,0.3
		c0,0.4,0,0.7,0,1c0,0.2,0,0.5,0.1,0.7s0.1,0.4,0.4,0.4c0.1,0,0.2,0.1,0.3,0.1c0.2,0.1,0.4,0.1,0.7,0.2c0.3,0.1,0.6,0.1,0.8,0.2
		c0.3,0.1,0.6,0.1,1,0.1c0.5-0.1,1-0.2,1.5-0.2c0.4-0.1,0.8-0.1,1.2-0.3c0.2-0.1,0.5-0.2,0.7-0.2c0.1,0,0.2-0.1,0.3-0.1
		c0.4,0.1,0.7,0,1-0.2c0.2-0.1,0.4-0.2,0.6-0.3c0.2-0.1,0.4-0.2,0.5-0.5c0-0.1,0.1-0.2,0.1-0.2c0.1-0.1,0.2-0.2,0.3-0.3
		c0.3-0.2,0.7-0.5,1-0.7c0.1-0.1,0.3-0.2,0.4-0.3c0.2-0.3,0.4-0.4,0.7-0.6c0.4-0.2,0.7-0.6,0.9-0.9c0.1-0.2,0.2-0.3,0.4-0.4
		c0.4-0.4,0.7-0.8,1-1.3c0.2-0.3,0.4-0.6,0.6-0.9c0.1-0.1,0.1-0.1,0.2-0.2c0.2-0.3,0.5-0.7,0.7-1s0.4-0.5,0.6-0.8
		c0.3-0.4,0.5-0.9,0.7-1.3c0.1-0.1,0.2-0.3,0.3-0.4c0.2-0.3,0.4-0.6,0.5-1c0.1-0.2,0.1-0.4,0.1-0.7c0-0.2,0.1-0.5,0-0.7
		c0-0.1,0-0.2,0-0.4c0-0.2,0.1-0.4,0.1-0.6c0-0.3,0-0.7,0.1-1c0.1-0.6,0.1-1.1,0-1.7c0-0.1,0-0.2,0-0.2c0-0.4-0.1-0.7-0.2-1.1
		c-0.1-0.2-0.1-0.4-0.1-0.6c-0.1-0.6-0.2-1.2-0.3-1.8c-0.1-0.4-0.1-0.8-0.3-1.2c-0.1-0.3-0.3-0.5-0.4-0.8c-0.1-0.5-0.4-0.9-0.7-1.3
		c-0.2-0.3-0.3-0.6-0.6-0.8c-0.3-0.3-0.5-0.6-0.8-0.9c-0.1-0.1-0.1-0.2-0.2-0.3c-0.1-0.1-0.2-0.2-0.3-0.4c-0.2-0.4-0.6-0.8-0.9-1.1
		c-0.3-0.2-0.6-0.5-0.9-0.8c-0.2-0.3-0.5-0.5-0.8-0.8c-0.1-0.1-0.2-0.2-0.3-0.3c-0.3-0.3-0.5-0.7-0.9-0.8c-0.1,0-0.2-0.2-0.3-0.2
		c-0.4-0.3-0.7-0.6-1-0.9c-0.1-0.1-0.2-0.1-0.3-0.2c-0.2-0.1-0.4-0.1-0.5-0.3c-0.2-0.2-0.4-0.3-0.7-0.3c-0.1,0-0.2-0.1-0.4-0.1
		c-0.6-0.2-1.1-0.4-1.8-0.3C134.8,103.1,134.8,103.1,134.7,103.1z"/>
	<linearGradient id="SVGID_8_" gradientUnits="userSpaceOnUse" x1="80.7922" y1="102.2719" x2="80.7922" y2="135.9375">
		<stop  offset="0.5492" style="stop-color:#FF0000"/>
		<stop  offset="1" style="stop-color:#C90E0E"/>
	</linearGradient>
	<path class="st7" d="M93.8,134.9c-0.2,0.2-0.4,0.4-0.6,0.6c-0.4,0-0.9,0-1.3-0.1c-0.3-0.1-0.5-0.1-0.8-0.1c-0.2,0-0.4,0-0.7,0
		c-0.4,0-0.7,0-1.1-0.2c-0.5-0.2-0.9-0.2-1.4,0.2c-0.2,0-0.4,0-0.7,0c-0.4,0-0.8,0.1-1.1,0.1c-0.1,0-0.2,0-0.3,0.1
		c-0.3,0.2-0.6,0.2-0.9,0.3c-0.5,0.1-0.8-0.1-1-0.4c-0.2-0.2-0.4-0.5-0.6-0.8c0.1-0.2,0.2-0.4,0.4-0.5c0.4-0.3,0.6-0.7,0.7-1.2
		c0.1-0.2,0.1-0.3,0.1-0.5c0-0.1,0-0.2,0.1-0.2c0.2-0.3,0.3-0.6,0.3-0.9c0-0.1,0.1-0.3,0.1-0.5c0.1-0.4,0.1-0.8-0.1-1.3
		c0.2-0.2,0.2-0.5,0.2-0.8c0-0.6,0.1-1.1,0.1-1.6c0-0.2,0-0.3,0-0.5c0-0.4,0.1-0.9,0.1-1.3c0-0.1,0-0.3-0.1-0.4
		c-0.1-0.2-0.1-0.4-0.1-0.6c0-0.6,0.1-1.2,0.1-1.8c0-0.1,0-0.2,0-0.3c0.1-0.5,0.1-1,0.1-1.5c0-0.4-0.1-0.7-0.1-1.1
		c0-0.1,0-0.1,0-0.2c-0.3-0.1-0.6-0.2-0.9-0.2c-0.4,0-0.8-0.1-1.2-0.2c-0.3-0.1-0.6-0.1-0.9-0.1c-0.6,0-1.2,0-1.8,0
		c-0.2,0-0.4,0-0.6-0.1c-0.2,0-0.3,0-0.5,0s-0.5,0-0.8,0s-0.7-0.1-1-0.1c-0.5,0-1,0-1.6-0.1c-0.4,0.7-0.5,0.8-0.3,1.4
		c-0.2,0.2-0.2,0.5-0.2,0.8s0,0.6,0,0.8c0,0.1,0,0.2,0.1,0.3c0.1,0.2,0.1,0.4,0.1,0.6s0,0.5-0.1,0.8c-0.1,0.5-0.1,0.9-0.2,1.4
		c0,0.2,0,0.5,0.1,0.7s0.1,0.4,0.1,0.6c0,0.1,0,0.1,0,0.2c0,0.3,0,0.6,0.3,0.8c0,0.6,0.1,1,0.3,1.5c0,0.1,0.1,0.2,0.1,0.4
		c0,0.3,0.1,0.5,0.3,0.7c0,0.3,0,0.6,0,1c0,0.6,0.1,1.1,0.4,1.7c0.1,0.1,0.2,0.3,0.2,0.5c0.1,0.3,0.2,0.6,0.3,0.9
		c0,0.1,0.1,0.2,0.1,0.2c0.1,0.2,0.3,0.4,0.6,0.4c0.1,0,0.1,0,0.2,0c0.1,0.2,0.2,0.3,0.3,0.5c-0.1,0.1-0.1,0.2-0.2,0.2
		c-0.3,0.1-0.4,0.3-0.6,0.5c-0.7,0.1-1.4,0.1-2.1,0.1c-0.6,0-1.2,0-1.8,0.2c-0.2,0.1-0.4,0.1-0.7,0c-0.1-0.1-0.2-0.1-0.3-0.1
		c-0.3,0-0.6,0.1-0.9,0.1s-0.6,0.1-0.9,0.1l0,0c-0.5-0.3-1-0.2-1.5-0.1c-0.6,0.1-0.5,0.2-1-0.2c-0.2-0.1-0.3-0.3-0.5-0.4
		c-0.1-0.1-0.1-0.1-0.2-0.2c-0.1-0.2-0.2-0.5,0-0.8c0.1-0.1,0.1-0.2,0.1-0.3c0.2-0.1,0.4-0.3,0.5-0.5c0.2-0.3,0.6-0.5,0.8-0.7
		c0.2-0.1,0.3-0.3,0.4-0.4c0.3-0.4,0.4-0.8,0.5-1.2c0-0.1,0.1-0.2,0.2-0.4c0.1-0.4,0.3-0.8,0.4-1.2c0.1-0.3,0-0.7-0.2-0.9
		c0.2-0.3,0.1-0.7,0.2-1c0.1-0.8,0.2-1.6,0.1-2.4c0-0.6,0-1.3-0.1-1.9c0-0.1,0-0.2,0-0.4c0-1-0.1-2-0.2-3c-0.1-0.8-0.1-1.6-0.1-2.4
		c0.1-1.2-0.1-2.3-0.2-3.4V114c0.2-0.2,0.3-0.5,0.2-0.8c-0.1-0.5-0.2-1.1-0.2-1.6c0-0.3-0.1-0.6-0.1-0.8c0-0.1,0-0.2,0-0.3
		c-0.2-0.7-0.3-1.4-0.4-2.1c-0.1-0.3-0.2-0.6-0.2-0.9c-0.1-0.2-0.1-0.5,0-0.7c0-0.2,0.1-0.4,0.1-0.6c0-0.3-0.1-0.5-0.4-0.6
		c-0.2-0.1-0.3-0.1-0.4-0.3c-0.1-0.1-0.2-0.2-0.3-0.2c-0.4-0.2-0.7-0.7-0.5-1.2c0-0.1,0-0.1,0-0.2c0-0.4,0.2-0.6,0.6-0.8
		c0,0,0.1,0,0.2,0.1c0.2,0.1,0.4,0.1,0.6-0.1c0.3-0.2,0.6-0.2,0.9-0.1c0.1,0,0.2,0,0.2,0.1c0.1,0.1,0.1,0.2,0.2,0.4
		c0.3,0.4,0.7,0.3,1,0c0.1-0.1,0.1-0.2,0.2-0.3c0.3,0,0.5,0,0.8-0.1c0.1,0.1,0.2,0.1,0.3,0.2c0.3,0.2,0.7,0.1,0.9-0.2
		c0.1-0.2,0.2-0.3,0.3-0.5c0.3,0.1,0.5,0,0.8-0.1c0.2-0.1,0.5-0.1,0.7,0.1l0.1,0.1c0.1,0.1,0.3,0.1,0.4,0.1c0.2,0,0.3,0.2,0.5,0.2
		s0.3,0.1,0.5,0.1s0.3,0,0.5-0.1c0.1,0,0.1,0,0.2,0c0.2,0,0.4,0.1,0.5,0.3c0,0.1,0,0.2,0,0.2c0,0.2,0,0.3,0.1,0.5s0,0.3-0.1,0.4
		c-0.2,0.3-0.3,0.5-0.5,0.8c-0.1,0.1-0.1,0.2-0.2,0.2c-0.3,0.2-0.3,0.5-0.3,0.8s0,0.6-0.1,0.9c-0.1,0.5-0.2,0.9-0.4,1.3
		c-0.2,0.3-0.2,0.6-0.2,1c0,0.2,0,0.4-0.1,0.6c-0.1,0.1-0.1,0.2-0.1,0.3s0,0.2,0,0.3c0,0.7-0.1,1.4-0.3,2.1
		c-0.1,0.4-0.2,0.8-0.2,1.2c0,0.5-0.1,1-0.2,1.5c0,0.2,0,0.3,0,0.5c0.2,0.1,0.4,0.1,0.6,0.1c0.7,0,1.4,0,2.2-0.1c0.1,0,0.2,0,0.3,0
		c0.2,0.1,0.4,0.1,0.6-0.1c0.1,0,0.2,0,0.2,0c0.4,0.1,0.9,0.1,1.3,0c0.1,0,0.3,0,0.4,0c0.7,0,1.4-0.1,2.1-0.3
		c0.1-0.1,0.3-0.1,0.4-0.1c0.3,0,0.6-0.1,0.9-0.2c0.1-0.1,0.2-0.1,0.4-0.1c0-0.1,0-0.1,0-0.1c0-0.8,0-1.7-0.1-2.6
		c0-0.2-0.1-0.4-0.2-0.6c-0.1-0.1-0.1-0.2-0.1-0.2c-0.1-0.7-0.2-1.4-0.2-2.2c0-0.1,0-0.2,0-0.3c0-0.6-0.1-1.1-0.3-1.7
		c-0.2-0.6-0.3-1.1-0.4-1.7c-0.1-0.3-0.2-0.6-0.4-0.9c-0.4-0.4-0.4-0.4-0.4-1c0-0.1,0-0.3,0-0.4c0-0.2,0.2-0.4,0.4-0.4
		c0.5,0,0.9-0.2,1.3-0.3c0.2,0,0.3,0,0.5,0.1s0.4,0.2,0.6,0.3c0.4,0.2,0.8,0.3,1.2,0.2c0.1,0,0.2,0,0.4,0c0.2,0.1,0.4,0.1,0.7,0
		c0.7-0.2,1.4-0.3,2.1-0.5c0.1,0.1,0.2,0.1,0.2,0.1c0.2,0.1,0.3,0.1,0.5,0s0.5-0.1,0.7,0c0.4,0.1,0.8,0.2,1.2,0.3
		c0.1,0.3,0.2,0.6,0.3,0.8c0,0,0,0.1,0,0.2c-0.3,0.2-0.7,0.5-1.1,0.7s-0.7,0.6-0.9,0.9c-0.2,0.3-0.3,0.6-0.4,0.9
		c-0.1,0.2-0.2,0.5-0.3,0.7c-0.1,0.3-0.2,0.6-0.1,1c0,0.2,0,0.4,0,0.7c0,0.2,0,0.5-0.1,0.8c-0.1,1.1-0.1,2.2-0.1,3.3
		c0,0.2,0,0.5-0.1,0.8c0,0.1,0,0.2,0,0.3c0.1,0.4,0.1,0.8,0.1,1.2c0,0.5-0.1,0.9-0.1,1.4c0,0.2,0,0.4,0,0.7
		c-0.1,0.8,0.1,1.7,0.3,2.5c0,0.1,0.1,0.3,0,0.4c-0.1,0.3-0.1,0.6-0.1,0.9c0.1,0.4,0.1,0.9,0.1,1.4c0,0.6,0,1.2,0.1,1.8
		c0,0.3,0.1,0.6,0.2,0.9c0,0.2,0.1,0.4,0.1,0.6c0,0.4,0,0.9,0,1.3c0,0.4,0,0.8,0.1,1.2c0,0.2,0.1,0.4,0.1,0.6c0,0.2,0.1,0.4,0.2,0.6
		c0.1,0.1,0.1,0.4,0.2,0.5c0.1,0.3,0.2,0.6,0.4,0.9c0.1,0.1,0.2,0.3,0.2,0.5s0,0.4,0.1,0.6c0.1,0.2,0.2,0.4,0.4,0.4
		c0.2,0.1,0.4,0.2,0.5,0.4c0,0.1,0.1,0.1,0.1,0.2C93.1,133.9,93.5,134.4,93.8,134.9z"/>
	<linearGradient id="SVGID_9_" gradientUnits="userSpaceOnUse" x1="106.0045" y1="100.3375" x2="106.0045" y2="135.8125">
		<stop  offset="0.5492" style="stop-color:#FF0000"/>
		<stop  offset="1" style="stop-color:#C90E0E"/>
	</linearGradient>
	<path class="st8" d="M114.9,130.6c0.1,0,0.2,0.1,0.3,0.1c0.2,0.1,0.4,0.1,0.6,0c0.1-0.1,0.2,0,0.3,0c0.1,0,0.1,0.1,0.2,0.1
		c0.3,0.1,0.4,0.3,0.4,0.5c0,0.3,0.2,0.6,0.3,0.9c0.2,0.3,0.1,0.6-0.1,0.8c-0.2,0.3-0.3,0.6-0.4,0.9c-0.1,0.1,0,0.2,0,0.4
		s0.1,0.3,0.2,0.5c-0.1,0.1-0.1,0.3-0.2,0.5c-0.1,0.1-0.2,0.1-0.3,0.2c-0.2,0.1-0.4,0.2-0.7,0.1c-0.2-0.1-0.5-0.1-0.7-0.1
		s-0.4,0-0.6-0.1c-0.1-0.1-0.2-0.1-0.3,0c-0.4,0.1-0.8,0-1.1-0.1c-0.3-0.1-0.6-0.2-1-0.1c-0.4,0.1-0.9,0.1-1.4,0.1
		c-0.2,0-0.3,0-0.5,0.1c-0.4,0.1-0.8,0.1-1.2-0.1c-0.3-0.2-0.7-0.2-1.1-0.1c-0.7,0.2-1.4,0.3-2.1,0.2c-0.1,0-0.2,0-0.3,0
		c-0.7,0.2-1.4,0.1-2.1,0.1c-0.1,0-0.2,0-0.2,0c-0.4-0.1-0.8-0.1-1.1-0.1c-0.4,0-0.8,0-1.2,0c-0.1,0-0.3,0-0.4,0
		c-0.3,0.1-0.7,0-1-0.1c-0.2-0.1-0.4-0.1-0.6,0c-0.4,0.1-0.8,0.1-1.2,0.4c-0.2,0.1-0.4,0.1-0.6,0c0-0.1,0-0.2-0.1-0.2
		c0-0.2-0.1-0.4-0.2-0.5c-0.2-0.3-0.2-0.6-0.1-0.9c0.2-0.5,0.2-1,0.3-1.5c0-0.3,0.2-0.5,0.2-0.8c0.3-0.4,0.3-0.8,0.2-1.2
		c-0.1-0.4-0.1-0.7,0-1.1c0.1-0.2,0.1-0.5,0.1-0.8c0-0.2,0-0.3,0-0.5c0.2-0.6,0.1-1.1,0.2-1.7c0-0.4,0-0.9,0-1.3
		c0-0.5-0.1-1-0.1-1.5c0-0.1,0-0.2-0.1-0.3c-0.2-0.3-0.2-0.5-0.1-0.8c0-0.6,0-1.3,0.1-1.9c0-0.8,0-1.5,0-2.3c0-0.1,0-0.2,0-0.3
		c0.2-0.4,0.2-0.8,0.2-1.2c0-0.7,0-1.4,0-2.1c0-0.8-0.1-1.6-0.1-2.3c0-0.2,0-0.5,0-0.8c0.1-1.1,0-2.1-0.1-3.2
		c-0.1-0.6-0.1-1.3-0.1-1.9c0-0.5-0.1-1.1-0.3-1.6c0-0.1-0.1-0.1-0.1-0.2c-0.1-0.2-0.2-0.4-0.2-0.6c0-0.4-0.2-0.7-0.5-1
		c-0.2-0.2-0.4-0.3-0.5-0.5s-0.2-0.4-0.4-0.6c-0.1-0.1-0.1-0.2-0.2-0.2c0.1-0.3,0.2-0.5,0.3-0.8c0.1-0.2,0-0.5,0-0.8
		c0.1,0,0.1,0,0.2,0c0.3,0.2,0.6,0.2,0.9,0.2c0.4,0,0.8,0,1.1,0c0.2,0,0.3,0.1,0.5,0.1c0.2,0.1,0.5,0.1,0.7,0.2s0.5-0.1,0.7-0.1
		c0.4,0.2,0.9,0.3,1.3,0.4c0.3,0.1,0.6,0.1,0.8,0.1c0.6-0.1,1.2-0.1,1.8-0.1c0.3,0,0.6,0,0.8,0c0.2,0,0.5,0,0.7,0.1s0.5,0.1,0.7,0.1
		c0.3,0,0.7-0.1,1,0.1c0.1,0,0.2,0,0.3,0c0.1,0,0.2,0,0.2,0c0.6,0.1,1.1,0.1,1.6,0h0.1c0.4,0.1,0.8,0.1,1.1,0.1c0.2,0,0.3,0,0.5,0
		c0.8,0,1.6,0,2.4,0c0.1,0,0.2,0,0.3,0c0.2,0,0.4,0.3,0.4,0.5c0,0.5-0.1,0.9-0.1,1.4c0,0.1,0,0.2-0.1,0.4c-0.1,0.3-0.1,0.6-0.2,0.9
		s-0.1,0.7-0.2,1c0,0.1-0.1,0.3-0.1,0.4c-0.1,0.3-0.2,0.7-0.3,0.9c-0.2,0.4-0.3,0.9-0.4,1.3c0,0.3-0.2,0.5-0.4,0.7
		c-0.1,0-0.1,0-0.2-0.1c-0.2-0.2-0.4-0.2-0.7-0.2c-0.2,0-0.3-0.1-0.3-0.2c-0.2-0.5-0.4-0.9-0.4-1.5c0-0.3-0.1-0.6-0.2-0.9
		c-0.1-0.4-0.5-0.7-0.9-0.8c-0.4-0.1-0.7-0.2-1.1-0.2c-0.2,0-0.3,0-0.5-0.1s-0.5-0.1-0.7-0.1c-0.4,0.1-0.9,0.1-1.3,0
		c-0.3,0-0.7-0.1-1-0.2c-0.2-0.1-1.3,0-1.5,0.1c-0.4,0.2-0.5,0.4-0.4,0.8c0,0.2,0.1,0.3,0.1,0.5c0,0.5,0.1,1.1,0.2,1.6
		c0.1,0.4,0.1,0.8,0.1,1.2c0,0,0,0,0,0.1c0,0.2-0.1,0.4-0.1,0.7c0,0.2,0.2,0.4,0.2,0.6c0,0.4,0,0.7,0,1.1c-0.1,0.9-0.2,1.7-0.2,2.6
		c0,0.3-0.1,0.7-0.1,1c0,0.2-0.1,0.5-0.1,0.8s0.2,0.4,0.3,0.6c0.2,0.1,0.3,0.1,0.5,0s0.3-0.1,0.4-0.1c0.4,0,0.8,0.1,1.1,0
		c0.2,0,0.3,0,0.5,0c0.7,0,1.5-0.1,2.2-0.4c0.1,0,0.2-0.1,0.4-0.1c0.5,0,1-0.2,1.4-0.4c0.4-0.2,0.9-0.4,1.4-0.5
		c0.2-0.1,0.4-0.1,0.7-0.1c0.2,0,0.4,0.1,0.4,0.3c0,0.4,0.1,0.8-0.1,1.2c0,0.1-0.1,0.2-0.1,0.3c-0.1,0.3-0.2,0.7-0.1,1.1
		c0,0.1,0,0.3,0.1,0.4c0.1,0.2,0,0.3,0,0.5c-0.1,0.2-0.1,0.3-0.1,0.5s-0.1,0.4-0.1,0.7c-0.1,0.3-0.2,0.6-0.4,0.7
		c-0.2,0.1-0.3,0.3-0.4,0.4c-0.1,0-0.2,0-0.3-0.1c-0.1,0-0.2-0.1-0.3-0.1c-0.3,0-0.5-0.1-0.7-0.4c-0.2-0.2-0.5-0.3-0.8-0.3
		c-0.7-0.1-1.4-0.1-2.1-0.2c-0.3,0-0.5-0.1-0.8-0.2c-0.4-0.1-0.8-0.1-1.2-0.1c-0.3,0-0.5,0.2-0.5,0.5s-0.1,0.6-0.1,0.8
		c0,0.1,0,0.2-0.1,0.2c-0.3,0.3-0.3,0.7-0.3,1.1c0,0.3,0,0.6,0,0.9c0,0.4,0,0.8,0,1.2c0.1,0.7,0.2,1.4,0.2,2.1
		c0.1,0.4,0.1,0.8-0.1,1.2c-0.1,0.1-0.1,0.3-0.1,0.4c0,0.6,0,1.2,0,1.8c0,0.1,0,0.2,0.1,0.2c0.2,0.3,0.1,0.6,0,0.9
		c0,0.1-0.1,0.1-0.1,0.2c-0.1,0.4,0.1,0.6,0.5,0.7c0.2,0,0.3,0,0.5,0c0.4,0,0.8-0.1,1.1,0.1c0.1,0,0.2,0,0.3,0
		c0.2-0.1,0.5-0.1,0.7-0.1c0.5,0,1,0,1.5-0.1c0.1,0,0.2,0,0.3,0c0.5,0.1,0.9-0.1,1.4-0.1c0.1,0,0.2-0.1,0.3-0.1
		c0.2-0.1,0.4-0.1,0.6,0c0.1,0.1,0.3,0,0.4-0.1c0.2-0.1,0.3-0.1,0.5-0.2c0.3-0.1,0.7-0.1,1-0.2c0.2,0,0.3,0,0.4,0.1
		C114.1,130.9,114.5,130.9,114.9,130.6z"/>
</g>
</svg>
