<svg xmlns="http://www.w3.org/2000/svg" width="200" height="200" viewBox="0 0 200 200"><path d="M81,175.3c-15.5-4.8-38.7-20.8-40.8-34,1.1-.4,2.2-.6,2.8.8,11.7,18.7,32.7,31.6,54.9,33,7.5.2-2.3,7.5-1.4.7C94.7,181,85.7,176,81,175.3Z" style="fill:#2d303d"/><path d="M115.6,177.1c-3.2,0-7.3,1.9-10.2.7-4.8,3.2-8.2-3.8,4.7-3.4,3.8-.6,9.1-1.2,11.8-3.8.5-2,3.5-1.1,1.8.5,1.4-.1,7.1-4,5-.6-1.2,1.4-3.3,1.6-2.1,3.5A23.7,23.7,0,0,1,115.6,177.1Z" style="fill:#322b30"/><path d="M122,170.6l.7-.2c-6.4,4.3-13.7,4.6-21.1,5.3.1,1,.1,2,.2,3s-.9-2.3-1.6-.2c1.8-6.6-16.8-.8-14.7-6.6C97.6,174.9,110.3,175.5,122,170.6Z" style="fill:#aabcbb"/><path d="M71.8,168.4C11.3,141.5,21.4,45.2,88.2,35.7c15.2-.6,5.9,1.9-3.6,3.2C19,57.9,19.6,136,71.8,168.4Z" style="fill:#f3faf2"/><path d="M99,43.5c-2.5,1.2-12,14.3-10.2,8.2,3.3-8.8-12.4.1-16,1.7-5.6.2-21.4,21.9-20.9,15.7-1.2.8-2.8.5-1.5-1C61.1,53.3,80.6,40.6,99,43.5Z" style="fill:#222d3d"/><path d="M91.7,35.7c-16.2.8-30.4,9.6-41.7,20.5,2.4-13.4,25.8-20.7,38.8-23,.1,3.1.8,2.9.9.1A7.6,7.6,0,0,0,91.7,35.7Z" style="fill:#5c7f8b"/><path d="M32.4,116.2a75.2,75.2,0,0,0,9.5,25c-1,.4-1.9,1.1-2.7,0l-.2.4C36.3,135.8,25.9,119.5,32.4,116.2Z" style="fill:#363d48"/><path d="M51,51.5c.3,1.2-3,4.1-.3,4.4C26.6,92.1,32.7,71.1,51,51.5Z" style="fill:#52686e"/><path d="M41.9,80.2c11.6-27.1,37.8-41,59.2-38.5C67.9,45.2,58.2,56,41.9,80.2Z" style="fill:#29404b"/><path d="M67.3,45.3c6.3-2.9,13.8-8,20.7-5.9-8.3,4.4-19.9,7.3-27.9,14.3-1.5.2-2.8,3.9-4.1,2.2,2.7-4.5,8.9-6,12.6-9.8,1.5-.9,4-1.1,4.7-3.1.5-.2.7.1,1,.2s-2.6,2.2-4.2,2.3S66,47.4,67.3,45.3Z" style="fill:#69bec4"/><path d="M115.2,28.9a75,75,0,0,0,13.2-16.1c-5.5,14.7-19.5,25.7-31,35C101.5,41.1,111.2,35.4,115.2,28.9Z" style="fill:#d4ece3"/><path d="M34.4,75.9c6.8-3.3-2.2,10.9-1.8,14.8C27.8,87.8,33.3,80,34.4,75.9Z" style="fill:#a25f55"/><path d="M56.2,55.9c1.9.7,2.1-2.4,3.9-2.3C57.7,54.7,43.4,73.7,45,66.4c3-4.6,7.2-10.5,11.8-12.9,0,2.3-3.6,3.8-4.5,5.3C53.1,58.3,54.8,55.6,56.2,55.9Z" style="fill:#55afb5"/><path d="M41.9,80.2c.2,1.1.3,1.9-.6,2.6s2.9,4.3-1.7,5.2c-1.8,4.1-1.4,9-2.6,13.2-4.2-2.6,2.1-11.3-.3-15.2-.9-2.4,1.2-3.3,2.7-4.1s1.1-3.5,1.6-1.5Z" style="fill:#fbf7db"/><path d="M32.4,116.2c-.5,1.4-2.6.1-2.4,1.8C26.6,102.9,31.7,96,32.4,116.2Z" style="fill:#4c5b63"/><path d="M101.8,37.4l3.4.2c-4.3,5.7-12.3,1.5-18.5,3.6,2.4-3.1,8.2-2.3,12-2.5-.7-.4-1.8-.2-2.2-1.4C98.4,37.4,100.1,37.2,101.8,37.4Z" style="fill:#3c6579"/><path d="M46.4,64c-.5,1.6-2.2,2.9-.8,4.5,2.3-2.1,3.5-5.6,6.3-6.6-2.8,1.2-10.9,19-10.1,12.6C36.9,77.1,45.4,65.9,46.4,64Z" style="fill:#5d838d"/><path d="M30.7,87.2a9.8,9.8,0,0,0,1.9,3.5C30.4,108.6,27.3,97.1,30.7,87.2Z" style="fill:#6e5a58"/><path d="M70.2,49.5c9.2-5.5,19.2-7.4,29.8-6.9C90.3,43.2,79.1,46.4,70.2,49.5Z" style="fill:#aec9cf"/><path d="M89.5,39.6c-2,1.9-5.3,2-7.9,2.8,1.6-2,4-2,6.4-2.5-.8-1.1-1.7.5-2-.9s-1.3.7-1.6-.4c5.7-1,11.5-1.8,17.4-1.2H96.7c1,1,2.4.3,3.5,1.7H94.4C93.5,38.6,90.3,38.6,89.5,39.6Z" style="fill:#528da2"/><path d="M91.7,35.7c-1.7,0-1.9-1.2-2-2.4l6.3-.5v2.7c1.4-2.4.7-2.9,4-2.6v2.7Z" style="fill:#4c707c"/><path d="M39.9,74.8l2.5-1.2a20.6,20.6,0,0,1-3,8.7,4.8,4.8,0,0,1,.7-4.5C35.8,85.5,38,78.6,39.9,74.8Z" style="fill:#948480"/><path d="M89.1,51.5c-.1,1.4-.2,2.2-.2,3.7,3.3-4.6,2.9-.9.5,1.5-.3,1.1-.8,5.1-1.4,1.6C80.9,70.6,88.5,48.4,89.1,51.5Z" style="fill:#98cbc7"/><path d="M29,98.7c2.1,2.1,2.9,3.7,2.4,7.2,0-1.9-.5-2.4-2.6-2.2v3C28.4,104,29,101.4,29,98.7Z" style="fill:#cfdfcb"/><path d="M88.9,58.7C87,54.9,103.7,43,96,50.5c-1.6.2-2.4,2.5-3.1,3.5C90.4,54.6,90.6,57.5,88.9,58.7Z" style="fill:#669895"/><path d="M104.7,33c2.6,1.7-.5,4.1-2.3,2.3S103.2,32.8,104.7,33Z" style="fill:#425e70"/><path d="M105.3,35.7c-.6-3.2,2.2-2.4,4.2-2l-3.4,2.8Z" style="fill:#365162"/><path d="M137.9,169.4c-2.4,2.5-20.8,9.1-11.4,4.5,6.7-2.6,12.7-8,18.5-11.3,2.6.1-.5,2.3-.8,3.2S139.7,167.8,137.9,169.4Z" style="fill:#faf3dd"/><path d="M123.6,175.1a.5.5,0,0,0-.2.8c-2.4.7-5.3,2.5-7.8,1.2Z" style="fill:#cddbd5"/><path d="M146.1,11.2c-7.8,23.6-33.5,34-50.4,49.8,5.4-2.5-2.3,5.5-2.1,1.7-.5,3.1-5.3,9.4-7.6,6.3,4.4-8,13-15.1,20.3-21.2-1,.3-1.7,1.4-3.1,1.5,12.2-11.5,31.6-17.2,40-33.7C143.3,13,148.6,4.9,146.1,11.2Z" style="fill:#f4fbf0"/><path d="M170,127.4c1.5,5.6-25.4,44.3-22.1,28,2.8,1.6,4.7-4.9,6.9-6.8-3.3,2.6,1.1-14.5,1.8-9.1a39,39,0,0,0-.1,5.9c1.6-.3,1.2-5.6,2.3-1.6C162.5,139,164.7,128.5,170,127.4Z" style="fill:#573331"/><path d="M166,130.5c-1.6,2.9-4.4,12.4-6.9,11.4.8-7.5-.7-15.8-2.1-22.2,4.5,5.2,4.6,14.1,2.8,20.3,5.7-11.5,7.8-24.4,10-36.6,5,1.4-1.4,10.8,1.1,13.5C167.6,119,169.3,127.2,166,130.5Z" style="fill:#f4efdc"/><path d="M169.5,103.9a9,9,0,0,1-.4,2.8c-1.4-2.7-1.1.8-2.6-1A73.5,73.5,0,0,0,163.8,87c-.8-2.5-3.3-9.4.8-4.5.4,0,.8-.6,1.3-.2C169,88.9,169.4,96.6,169.5,103.9Z" style="fill:#6a4a4a"/><path d="M169.1,78.5a79.4,79.4,0,0,1,4.9,22.7l-2.9.4C172.4,94.4,163.5,83.5,169.1,78.5Z" style="fill:#663b38"/><path d="M167.9,73.7c-2.1.9-2.3-2.6-3.5-3.8-5.3,8.5-4.7,1.2-2.1,11-2,.4-2.5-3.4-4-4.4s-6.6-2.2-7-5.5c7.3,6.9,17.1-2.5,7.8-8.7-1-1.4-5.7.6-4.4-1.9,1.1-.2,2.1.6,3.4,0C145,42.3,168.7,67.9,167.9,73.7Z" style="fill:#f9daae"/><path d="M162,73.5c3.2-5.4,10.3,22.5,7.3,25.4C168.8,89.8,164.8,81.7,162,73.5Z" style="fill:#f4efdc"/><path d="M137.6,168.1c-2.9,2.7-3.7-2.9-.6-3.5,1.3,0,1.2-2.1,2.7-2s5.4-5.9,8.3-2C143.4,163.2,140.7,162.7,137.6,168.1Z" style="fill:#d18259"/><path d="M166,130.5c1.4-4.3,1.6-8.7,5.5-11C172.1,123.3,169.9,129,166,130.5Z" style="fill:#83443e"/><path d="M170.9,109.8c.4-2.8-1.1-7.2,3.1-6.3C174.1,106.5,174,115.2,170.9,109.8Z" style="fill:#9b493d"/><path d="M167.2,81.3c-.7-3-5.1-7.1-.9-8.7C168,75.5,170.3,78.6,167.2,81.3Z" style="fill:#894840"/><path d="M148,160.6c-2-1.2-3.9-1.4-5.8.2.2-2.2,9.8-13.8,5.9-5.4a3.2,3.2,0,0,0,.6,4.6Z" style="fill:#904e42"/><path d="M137.6,168.1a10.1,10.1,0,0,1,9.6-6.7C143.8,162.9,141.1,166.2,137.6,168.1Z" style="fill:#f7c499"/><path d="M170.9,109.8c.2,1,.6-.5.7,0s1.8,2.3,1.3,4C171.7,117.1,169.9,111.5,170.9,109.8Z" style="fill:#d17759"/><path d="M171.8,120.2v-.4c-.5,1.6-1.8,1.4-2.9,1.5C168.3,118.6,172.9,116.4,171.8,120.2Z" style="fill:#e7976d"/><path d="M170.7,111.2c-.3,1.7.8,2.5,1.8,3.6l.4-1a3.7,3.7,0,0,1-.6,2.5C170,115.3,170.2,113.4,170.7,111.2Z" style="fill:#f2bc8a"/><path d="M101,56.8c10.1-9.2,21.6-17.3,32.5-25.3,1.7-.9,3.4,2.3,5.3,2.4-1.8.8-2.8-.9-4.5-1.4-1.8,1.1-2,3.4-3.7,4.8s-3.3,2.7-5.5,3.7c-3.2,2.5-5.6,5.1-9.2,6.9-8.2,4.9-13.6,12.9-21.6,17.9.8-1.2,7-4.1,6.1-1.7-7.1,2.6-11.3,9.1-6.6-3.1.7,1,0,1.8.1,2.8C97.1,62,98.4,59,101,56.8Z" style="fill:#395768"/><path d="M136.6,40.2c6.5,4.1,13.1,8.7,18,14.5-8-5.1-16.5-13.1-25.8-17.3C130.9,36.4,135,38.5,136.6,40.2Z" style="fill:#f3ebe3"/><path d="M134.5,31.3c-1.2.7-2,2.4-3.8,1.8a59.9,59.9,0,0,0,14.7-19.9C144.3,19.7,139,26.2,134.5,31.3Z" style="fill:#51767c"/><path d="M71.8,168.4c-2.4-5.6,6.1,2.3,9.2.8s24.3-4.4,10.6,0a6.1,6.1,0,0,1,4,.1c-3.9,2.3-9.9,1.3-14.3,1.2C92.9,175,74.9,171.3,71.8,168.4Z" style="fill:#bcdad7"/><path d="M133.1,170.9c-2,.8-6.7,4.9-7.6,1.6,2.9-1.1,3.3-5.1,6.6-5.5C133.2,167.4,134.3,170.5,133.1,170.9Z" style="fill:#753b36"/><path d="M132.1,167.3c-17.7,10.2,4.6-5.2,8.3-10.7C141.5,158.2,133.9,168.4,132.1,167.3Z" style="fill:#ddbc96"/><path d="M122,170.6c-3.8,2-7.7,3.7-12.3,3.2,4.8-1.5,9.5-4.9,14.4-6.2C125.5,170.9,123.8,169,122,170.6Z" style="fill:#1a1f2d"/><path d="M124.2,170c8.9-13.3,7.1-6.4,1.2.8l-3.3,1.4Z" style="fill:#768c9d"/><path d="M130.1,162.4l-5.5,7.1c-2.4-2.8,4.1-5.4,4.7-8.3-12.7,4.7-14.1,16.8-32.3,13.3,6.7-2.5,15.3-3,21.2-8.1-5.7-.4-10.1,3.2-14.8,5.7-8.1.2-16.8,1.7-24.5-2.3,8.4.5,18.4,1.2,25.6-2-5.1-4.1-13.5,2.5-19.1.1-2-.4-13.8-2.3-9.9-4.8a42.8,42.8,0,0,0,25.4,1.8C111.3,169.2,145.2,149.7,130.1,162.4Z" style="fill:#161d2c"/><path d="M86.9,172.4c3.3-.3,22.5-1.6,11.4,1.5.2,0,.5-.1.7.2C95,175,90.9,172.8,86.9,172.4Z" style="fill:#2e3640"/><path d="M76.6,168.7C65.9,164.1,44.1,151.4,46,139c6.8,9.1,14.9,18.1,24.2,24.3C72.3,164.6,86.3,170.5,76.6,168.7Z" style="fill:#2d4b5c"/><path d="M46.1,139.2c-1.2,1.6,1.5,2.8-.8,4-2.9-5-10.5-16.1-8.4-19.6,1.5,3.3,3.4,6.6,4.7,9.9-1-4-5.9-9.2-3.5-13C40.4,126.5,43.5,133.3,46.1,139.2Z" style="fill:#34596f"/><path d="M36.4,95.6c-1,7.4,1.8,16-.6,22.3C33.8,115.2,30.8,86.9,36.4,95.6Z" style="fill:#69838e"/><path d="M56.2,55.9c-1.9,1.2-3.5,3-5.5,4.2l6.2-6.4-.9-.2c3.6-3,7.1-6.1,11.3-8.2-.3,3.4,9.8-6.7,6.9-.9l-.5-1.3C68.5,48,61.2,50.5,56.2,55.9Z" style="fill:#8ce3e7"/><path d="M33.4,108.3v-1a56.5,56.5,0,0,1,2.6,10.4l-.5-5.2c3.7.1,2.6,15.2,1,7.5.1,2.6,2.4,5.1,1.9,7.5C34.7,121.8,33.7,115.2,33.4,108.3Z" style="fill:#387695"/><path d="M37.1,81.4c.9.7,1.9-3.9,3.8-4.8.1,1.2-.9,1.7-1.4,2.5,1,.9-.8,2,.2,2.9l-.2.9c-5-.3-.8,4.1-1.9,5.6C33.4,91.9,36.1,83.3,37.1,81.4Z" style="fill:#f0ba99"/><path d="M35.2,87.6c1.9,4.2.6-.5,2.4.9l-1.2,7.1a8.7,8.7,0,0,1-.2-1l-1.1,1.1c-.2-1,.2-2.2-1.1-2.1Z" style="fill:#ad7c76"/><path d="M89.1,47.7c1,3.1-2.9,8.2-6.7,8.1A42.4,42.4,0,0,0,64.6,67.1c-2.8,1,.6-2.6.4-3.6s4.8-3.7,6.4-5.3C65.9,62.3,59.2,66.8,55.7,72,55.3,59.8,77.7,49.4,89.1,47.7Z" style="fill:#192836"/><path d="M86.3,54.5c1.2-2.8,2.6-5,3.6-8a12.2,12.2,0,0,1-.8,5l-.4-.4C87,57,85,62.2,83.6,67.7c.4,3-3.5,3.4-3.6,6.3s-2.4-3-1.6-4.4,4.2-9.7,4.5-6.8c-.1-1.1.6-6.2,1.8-3.2C84.9,57.8,84.9,55.7,86.3,54.5Z" style="fill:#e7f8f8"/><path d="M70.2,49.5l1.4.2c-11.9,6.2-20.1,16.6-26.5,28C45.9,68.2,60.2,55.4,70.2,49.5Z" style="fill:#c4dbdf"/><path d="M89.1,47.7C70,50.2,56.7,66.1,47.8,80.1,54.4,63.7,71.3,49.8,89.1,47.7Z" style="fill:#68838e"/><path d="M53.4,70.2c-1.9,2.2-3,6.8-5.3,7.9-5-1.9,1.7-7.6,3.5-9.9C53.5,68.9,50.8,71.4,53.4,70.2Z" style="fill:#3b343e"/><path d="M44,77.7c3.3-.1-2.7,5.4-1.1,7.7s-2,3-2.4,4.7c-1.7-1.4-1,.7-2.1.9.1-2.9,1.3-3.2,3.1-4.6s-.6-1.6-1.3-2.2C40.8,81.8,43.1,80.1,44,77.7Z" style="fill:#f7ddac"/><path d="M99.6,46.2c3.5,1-1.4,2.4-2.2,3.9-2.8,3.3-5.1,8.7-5.3,12.5l-2.8,1.8c-.5-1.4,2.1-2.8,1.8-4.7C92.1,54,95.9,49.9,99.6,46.2Z" style="fill:#3f5d61"/><path d="M91.1,166.4c-2.7-.2-15.9-.5-8.2-2.8-5.7,0-2.7-2.1-6.9-2.6-25.6-5-40.7-34.8-39.1-59.9,3.3,12.7,4.8,36.1,23.1,51.2,3.6,2.2,8.2,4,11.6,5.9a1,1,0,0,1-.4-.5c-.4-2.1-5.6-2.1-2.9-4.5-1-1.9-3.1-1.1-4.6-2.3s-3.1-5.2.6-1.8c.5-.6,1-1,1.6-.2,6.9,7.6,17,13.4,27.1,14.6C86,153.5,103.8,169.3,91.1,166.4Z" style="fill:#273647"/><path d="M36.9,101.1c-.5,20.1,8.2,39.6,22.8,53.2-15.1-9-25.1-35.4-23.5-54.8C36.4,100,35.7,101.1,36.9,101.1Z" style="fill:#e2ece7"/><path d="M38.1,107.8c-.6-2.5.2-6.3-1.1-8.3.8-3.8.6-7.6,2.5-11.1C39.3,94.7,38.7,101.6,38.1,107.8Z" style="fill:#594842"/><path d="M89.5,39.6c-.7-2,4.9-.5,6.3-.7Z" style="fill:#84c2d4"/><path d="M95.8,50.3c-2.6,2.3-5.6,16.6-8.5,12.3-1.5,1.8.7,3.4-1.2,4.8,1.5,3.3-2.4,5.1-4.2,7.2-3.9,1.3-.3-4.9,1.6-6l-.7-.5c1.3-3.4,2.2-7.8,5.7-10.9v2.5c1.1-2.2,1.6-4.5,3.8-6l.2.5a9.2,9.2,0,0,1,3.5-4.3Z" style="fill:#f4fbf0"/><path d="M132.1,167.3c1.5,0,2.3-1.6,3.5-1.3a2.3,2.3,0,0,0,.9,3l-3.4,1.9.5-.6C132.4,169.7,133.3,168,132.1,167.3Z" style="fill:#af5745"/><path d="M84.7,71.7c3.4-3.3,5.5-1.8,8.4-7l-1.5,3.4.9-.9c.9,2.9-3.6,3.1-3.5,5.9C86.2,77.5,77.7,78.7,84.7,71.7Z" style="fill:#0c2c50"/><path d="M86.2,69V67.9L85,67.7c1.1-.3,2.8-2.9.8-2.4L87.4,61l.7,3.1c.6-2,2.2-2.9,3.3-4.3C91.2,63.7,86.8,65.6,86.2,69Z" style="fill:#bad8d1"/><path d="M116.8,40l-5.6-1.5c1.8-3.4,5.6.8,8.6-.5Z" style="fill:#a8bbb8"/><path d="M101,56.8a9.1,9.1,0,0,1-6.5,5.1C95.7,60.7,98.8,56.3,101,56.8Z" style="fill:#afcac5"/><path d="M105,47.1l-1.3,1.7c1-.3,2.7-2.1,3.7-1.6l-7.8,6.3c-.1-.6,3.8-7.7,4.4-6C104.3,47.4,104.5,46.9,105,47.1Z" style="fill:#92b8b1"/><path d="M105,47.1l-1.8,1.6C103.7,41.5,115.4,42.5,105,47.1Z" style="fill:#1c2c38"/><path d="M91.9,62c-.4-1.1.8-5,2.1-3.3,1.7-1.7,3.1-5.1,5.6-5.2h0C96.7,56,95,59.6,91.9,62Z" style="fill:#9ab3ac"/><path d="M109.1,44.8l.9-.8c-1.7-.3-3.7.8-3.9-.9,2-.5,4,.3,6,.1C111.1,43.7,110.5,45,109.1,44.8Z" style="fill:#9baaaf"/><path d="M113.1,42.6l-6.3-.8c2.8-1.3,5,.2,7.3,0Z" style="fill:#b9d4d9"/><path d="M86.2,69h.1v.8l4.7-2C91,69.6,84.7,72,86.2,69Z" style="fill:#78999d"/><path d="M106.1,43.1l.6.2c-1.8,2-3.6,6.7-6.2,7.1-.2-.9.1-1.2,2.4-3.6A17.1,17.1,0,0,1,98,51.1C96.5,48,103.8,45.6,106.1,43.1Z" style="fill:#e8f9f6"/><path d="M115.5,33.6a60.2,60.2,0,0,1,7.3,1.9c-1.9,1.7-5.3-1-8-1.2Z" style="fill:#c7dcd4"/><path d="M148.1,155.4c2.3-6.1-2,1,.9-6.4-3.6,1.3-1.5-2-.7-4.6-4.6,5.6-2.2-5.1-1.4-7.5,1.3-.2,1.2,2,1.6,2.9s3.3-5.5,3.2-6.5c-.9.9-2.7.1-1.4-1.1s1.2-2.9,1.7-4.5-1.6-7.5.6-8.8c3,4.8,9.3,23.6,3.4,27.4-.3-2.7.7-5.4-.3-7.9-1.6,1.7-.4,5.8-2.3,7.1-.6,4-1.9,8.7-5.1,11.5Z" style="fill:#2b2d3c"/><path d="M149.2,156.3c2.1-3.6,3-7.7,4.2-11.6l.2.7c.5-2.6,1.1-5.1,1.7-8.1.8,3.7-1.3,7.5-1.6,11.4,1.1.2,1.1-1.4,2.3-1C153.9,150.4,151.3,154.7,149.2,156.3Z" style="fill:#bbb4aa"/><path d="M158.1,142.3c-1.6-13.2.7-7.5,1.8.3a30.8,30.8,0,0,0-1.6,2.8Z" style="fill:#8d8e8c"/><path d="M159.4,137.4c-3.8-2.8-3.5-11.8-4.7-16.7,2.3.7,2.6,6.3,3.2,8.8a29.9,29.9,0,0,0-6-14.7C158.3,114.8,160.3,130.5,159.4,137.4Z" style="fill:#6a7782"/><path d="M160.3,130.1c1-3.5-4.5-8.5,0-10.2,1.2,0,1.3,1.1,1.6,1.5C165.3,107.2,164.3,127.7,160.3,130.1Z" style="fill:#6a3130"/><path d="M167,120.6c-.8,1.7-3.1,14.5-4.8,10.9.6-4.8.8-9.8,3-14.1,1.3-.1.4,1.9.9,2.6S167.3,119.8,167,120.6Z" style="fill:#6e4a46"/><path d="M163,126.1c.8,2.2-.8,4-.4,6.3,1.4-1.2.9-3.1,2.2-4.1-1,4.4-3.4,8.1-5.1,12.2C160.7,135.8,160,130,163,126.1Z" style="fill:#372f31"/><path d="M166.8,105.9c1,.2,1.1-1.2,2.1-1.3v1.9l.4-.7C168.5,117.4,163.1,117.7,166.8,105.9Z" style="fill:#c67a65"/><path d="M160.5,120c-.9.7-1.9,1.4-2.1,2.6-1.2-3.4-3.9-5.7-6.1-8.4C154.1,112.9,159.6,118.3,160.5,120Z" style="fill:#372029"/><path d="M166,114.2v1c.6-1.6.3-3.6,2.7-3-.4,2.9-2.1,10.4-3.5,3.6C165.3,115.2,165.1,114.5,166,114.2Z" style="fill:#f8c392"/><path d="M163,126.1c-.8,2.1-1,4.4-2.5,6.2-.7-3.3,1.6-6.1,2.5-9.2C163.8,123.9,163.1,125.1,163,126.1Z" style="fill:#bfbdb6"/><path d="M165.6,115.8c.9,1.2-.4,3.5,2,2.2C166.7,124.6,164.3,117.9,165.6,115.8Z" style="fill:#c67a65"/><path d="M166.8,105.9c-.4.1-.5-.4-.6-.6-.7,7.7-.9-2.9-1.2-5.7.1-7-3.2-13.7-4.3-20.1C166,85.8,166.3,97.2,166.8,105.9Z" style="fill:#dac3b6"/><path d="M162.4,80.9c-.4-1.1-3.3-5.6-1.3-5.1s.4-2.1,1.3-1.3c2,2.5,5,12.7.2,6.2Z" style="fill:#895850"/><path d="M154.7,60.4c0,2.1-1.9,1.2-2.6.1-5.8-8.1-15.7-12.3-22.6-18.7C131.6,37.9,153.1,55.7,154.7,60.4Z" style="fill:#f5f5e7"/><path d="M160.5,120c-.8-.6-3.1-2.9-.7-1.9-8.6-10.2-2.3-8.7,1.9.4,3.7-13.9,1.6-28.7-4.7-41.4-.3-.5-.9-1-.5-1.7s1,.6,1.5,0c8.4,14.9,7.8,31.8,4.6,47.6Z" style="fill:#f0dacc"/><path d="M156.5,75.4c2.3,11-14.7-8.7-10.2-12.8C152,64.7,149.6,73.4,156.5,75.4Z" style="fill:#ad332c"/><path d="M154.1,59.2c-1.5-1.8-9.8-7.6-3.5-7.6C152.7,54.2,159.9,58.5,154.1,59.2Z" style="fill:#964c40"/><path d="M152.2,72.3c-2.4-.3-2.9-8.3-1-5.8-.2,8.8,13.5,7.6,10.3-.9-.3-.4-.4-1.6.3-1.2,6,6.8-5.8,13.3-10.5,6.6Z" style="fill:#db7a52"/><path d="M166.3,72.6c-2.3,4.2-4.5-1.2-2-3.8C165,70.1,165.7,71.3,166.3,72.6Z" style="fill:#ca6449"/><path d="M154.1,59.2c.6-.5-.9-.6.1-1.5s1.8,1.6,2.3,0a7.3,7.3,0,0,1,2.3,3.3C157,60.9,154.7,61.5,154.1,59.2Z" style="fill:#e1654f"/><path d="M160.6,82.1c-.7-2-2.1-3.6-2.1-5.8C159.8,76.9,162.8,83.5,160.6,82.1Z" style="fill:#704237"/><path d="M162.4,74.5l-1.2,2.3-.8-.9v.2l-1.1-1.8h.5l1.8-1.5A3.3,3.3,0,0,1,162.4,74.5Z" style="fill:#cc725a"/><path d="M161.8,64.4c-1.7.4-2.8-2.6-5.1-2C150.1,61.4,160.7,60.3,161.8,64.4Z" style="fill:#da8867"/><path d="M149.3,148.9c-1.5,6.1-6,10.4-10,15.3.4-1.2,0-1.6.5-2.3C143.7,158.2,145.6,152.1,149.3,148.9Z" style="fill:#e2cab9"/><path d="M135.6,166c-5,2,3.8-4.8,3.7-7C140.6,160.7,137.4,164.7,135.6,166Z" style="fill:#f8dfb5"/><path d="M137,164.8c2-6.6,5.8-5.6.9-.2C137.7,164.8,137.4,165.6,137,164.8Z" style="fill:#663c32"/><path d="M130.1,42.8c3.5.2,24.9,18,15.5,12.5-7.3,0-13.3-10.3-21.6-11.2C118.6,42.4,128.4,39.2,130.1,42.8Z" style="fill:#3d434e"/><path d="M100.2,63.9c6.3-3.8,11.3-11.2,17.1-15,2.2.3,16.5-1,13.1,2.2-4.6,0-10.3,1.8-14.3-.2C112.1,55.3,106.4,65.1,100.2,63.9Z" style="fill:#f1f9f6"/><path d="M137.6,45.2a111.6,111.6,0,0,0-11-5.4c3.5-5.2,10.4,2.5,14.6,4.4-.1.5-.5.3-.9.3S139.2,46.1,137.6,45.2Z" style="fill:#3f383d"/><path d="M129.1,49.5a43.5,43.5,0,0,0-17,1.4c.7-2,3.4-2.5,5.1-3.6s.8-1.9,2.8-1.7S132.9,49.4,129.1,49.5Z" style="fill:#1b212d"/><path d="M120.2,45.2c1.9-5.5,26.8,10.6,24.7,14.8C137.4,54.5,130,47,120.2,45.2Z" style="fill:#363338"/><path d="M143,56.5c-6.5-5.4-13.6-11.1-22.1-12.5a2.4,2.4,0,0,1,1.8-1.4l-.9.5C129.2,45.4,141.2,50.8,143,56.5Z" style="fill:#bbbfbd"/><path d="M112.5,50.3l-.3.5c.9.3-.4,1-.7,1.3,7.8-3-8,10.1-2.8,3.5a2.5,2.5,0,0,0-1.9.1C101.5,59.3,110.8,50.3,112.5,50.3Z" style="fill:#7ba3a9"/><path d="M104.9,56.9c5.5-5.1-2,8.4-6.8,6.8A31.3,31.3,0,0,1,104.9,56.9Z" style="fill:#1b2535"/><path d="M100.2,63.9c4.8.3-3.1,3.8-4.8,4.3C91.2,67.6,98.4,63.9,100.2,63.9Z" style="fill:#c7e2dc"/><path d="M120.2,45.2c4.3-.1,8.6,2.5,12.1,4.9-.9.7-2.1-.5-3.2-.6h1.5A62.4,62.4,0,0,0,120,45.6Z" style="fill:#9ca7af"/><path d="M103.3,58c-1.6,1.8-2.8,4-5.1,5.5l2.6-.3a15.8,15.8,0,0,0-8.2,4.4C96.2,63.6,99.6,61.3,103.3,58Z" style="fill:#97b3bc"/><path d="M126.6,39.8c1.5.6,3.9.9,3.5,3l-5-2Z" style="fill:#c6dbd4"/><path d="M93.8,67.4c.5.7,1.5-.8,1,.7,2.4.3-2.3,1.8-2.4,3s-.8-.2-.8-.7C86.6,77.4,90.2,68.7,93.8,67.4Z" style="fill:#89ada9"/><path d="M112.5,50.3l-.4-.2c2-1.7,3.9-3.4,6.7-3.4Z" style="fill:#e4f1f0"/><path d="M137.6,45.2c3.4-3.7,10,3.7,13.2,7.1-1.1-1-2.4-.3-2.7,1.1A82.4,82.4,0,0,0,137.6,45.2Z" style="fill:#603e3b"/><path d="M76.6,168.7l4,.3c-4.7-3-12-4.3-14.1-8.6,3,.9,5.9.7,9,2.7.5.5-1.1.5-.9,1.4,4,2.8,9.3,2.4,13.4,4.1C84.2,169.4,80.4,170.5,76.6,168.7Z" style="fill:#1b2633"/><path d="M96,167c1.2-.4,5.1-1.3,2.7.6,2.4-1.1.9,1.5-.2,2l-5.3.3,2.7-.5H89.8l7.1-2.2Z" style="fill:#4a8098"/><path d="M140.1,159.9c-1.4-2.4,2.2-5.1,2.4-7.6-3.9-.7-4.9,5.3-8.4,5.5-1.2-.6-1.6.6-2.3,1.2s-1.7-.7-.5-1.2c4.6-2.5,8.5-6,8.4-11.3,1.8,5.3,3.7-1.3,6.8-1.8C145.3,149.7,143.9,156.6,140.1,159.9Z" style="fill:#1a1f2d"/><path d="M130.1,162.4c12.6-13.8,4.2,6.9-5.8,8.1C126.1,169.5,130.6,163.8,130.1,162.4Z" style="fill:#464f5d"/><path d="M136.6,161c-1.2-2.1.4-3.5-2.9-2.6,3.4-4.3,13.8-11.6,6.5-1a1.8,1.8,0,0,1,.1-.6Z" style="fill:#2b2d3c"/><path d="M128.3,163.4c-.9,2.2-11.1,9.1-10.1,6.2s2.6-6.4,6.6-6.5C125.8,163.1,129.4,160.9,128.3,163.4Z" style="fill:#2d3647"/><path d="M120.4,166.2c.3.7-.4,1.1-.7,1.7l.7.2a18.1,18.1,0,0,1-9.9,5.5A21.3,21.3,0,0,0,120.4,166.2Z" style="fill:#74909f"/><path d="M95.1,163.9c-6.5-5.3-.5-4.2,4.1-4.2,1.1-.3,1.6.8,2.5,1.2s-1.3,2.5-2.2,3.3c2,.2,3.5-1.3,4.9-2.3-1.5-.6-.4-2.1-.5-3.4-3.7-.2-14.4-4.5-4.4-3.6,6.3.8,13.7-.5,19.3.7.6-1.4,2.7-1.8,4.1-1.2,3.9.6,7.2-4.7,10.5-5.4-2.6,7.4-6.9,8-13.9,7.8,4.9-.8-3.1,6.1-5.5,3.2C112.7,164.6,99.1,166.8,95.1,163.9Z" style="fill:#afe3e2"/><path d="M101,165.2a65,65,0,0,0,12.5-3.5l-1-.7c1.6-3.5,5.5,2,8.5-1,5.9.6,5.6-.4,10.8-3C127.8,163,110.7,166.3,101,165.2Z" style="fill:#87b7c5"/><path d="M97,169.7c1.3-.2,1.9-1.2,3.1-1.9-1.1-.6-1.7.8-2.5.3l1.9-1.5-.9-.2C108.1,165,104.5,171.3,97,169.7Z" style="fill:#355265"/><path d="M99,174.1H97c5.5-1.7,22.6-11.4,7.9-2.1,1.9-.3,3.5-1.8,5.6-2.4C108.8,172.9,102.6,173.1,99,174.1Z" style="fill:#94cbd6"/><path d="M113.5,166.8a9.3,9.3,0,0,1,5.8-.9C115.8,168.9,107.4,174.4,113.5,166.8Z" style="fill:#1e3f5c"/><path d="M113.5,166.8l1.5.2c-2.8,1-2.7,4-5.5,3.9l.9-.8a19.7,19.7,0,0,1-6.3,2.2c2.8-.9,4.7-3.2,7-4.8h-.2c.7-.4.7-.4.8.1Z" style="fill:#376f8b"/><path d="M75.6,163.4,69.7,161l.3,1c-1.5,0-5.8-2.4-3.7-3.3,2.2,1.4,22.7,6.4,10,4.3C77.4,163.4,76.2,163.7,75.6,163.4Z" style="fill:#6e8da0"/><path d="M75.8,163.4h1l-1.6-.5a32.1,32.1,0,0,0,8.2.2C83.9,166.8,77.9,164,75.8,163.4Z" style="fill:#365974"/><path d="M128.3,163.4v-1.2c-2.2,1.5-4.7,1.2-6.8,2.4,1.8-3.3,5.7-2,8.9-4.4C129.7,161.6,129.3,162.7,128.3,163.4Z" style="fill:#1a1f2d"/><path d="M85.5,167.6c-3.5,1.3-8.3-1.7-11.8-3.4C77.7,165.5,81.3,167.2,85.5,167.6Z" style="fill:#79898f"/><path d="M95.1,163.9c6.5,1.7-1,3.7-4,2.5C93.5,166.2,96.5,167.2,95.1,163.9Z" style="fill:#1b2633"/><path d="M65.7,158.8c2.1,2.7-7.2-2.8-6-4.5C61.4,156.1,64.9,156.4,65.7,158.8Z" style="fill:#aec0bf"/><path d="M38.5,127.5,36,118.9h.4c1.5,5.5,4.2,10.6,5.6,16.1A71.2,71.2,0,0,0,38.5,127.5Z" style="fill:#6497b6"/><path d="M65.3,63.4c.1,1.5-1.2,2.3-1.1,4,.4-1.2,4.3-4.5,3.1-1.4a11.6,11.6,0,0,0-4.7,6.6c2.5-1.1.9,1.5.9,2.9.4-2,1.7-4.5,3.6-5s0,1,.3,1.5,4.1-.1,2.9,1.7c-6.3,7.6-2.4,4.4-2.4,11.7.5-.9-.4-5.5,1.4-3.2s0,2.4,1.5,2.7,1,2.1,2.4,2.8,1.1,3.1,1.9,4.7,5.4,1.2,7.7,1.8,4.9-5.7,8-2.2c.5-2.6,2-.7,3.5-1s4.5-.5,6.3.3c0,1.5-2.7.6-2,2.5A16.6,16.6,0,0,1,88.1,95c.9,3.3-14.5,3.5-14,.1-4.1-.3-2.7-5-4.3-7.2-.6,3-2.3,8.9-2.9,1.7-1.9-1-.6-3.3-1.3-5.1C59.6,76.7,56.6,70.6,65.3,63.4Z" style="fill:#1d425a"/><path d="M65.1,63.4c-14.4,14.7,9.4,18.1-2.3,30.7,3.9-5,1.8,1.1,0,3,.5.4.8.6.5,1.2.6-2.8,2.8-4.9,2.8-7.9.1-.5,0-1.3,1-1.2a7.1,7.1,0,0,1-2,8.7c1.6-.4.4,3.4-.8,3.3s-.8,2-2.1,2.4.3-3.9-1.1-2.9-2.8-5-2-6.5c3-4.1-5-7.2-2.9-12.7,1.1-2.8,2.3,4.5,4.3,5.2-2.8-7.4,1.7-2.4,2,1.5,1.2-3.6,1.6-.9,1.8,1.2,2.3-6.3-6.2-9.7-5.5-15.4.1,6.4-1.8.9-1.6-1.9S63.7,62.2,65.1,63.4Z" style="fill:#9cf7f8"/><path d="M58.9,68.4c-1.5,5.1-3.8,9.6-5.3,14.7-2.4,8.1-2.8,1.3-4.2-2C43.6,87.5,53,70.8,55,69.4c.2,1,.9,1,.6,2.7a3.8,3.8,0,0,0,.6-3c1.5-.1,1.8-.5,1.2-2.1Z" style="fill:#383c46"/><path d="M86.3,54.5l-1.8,6.8c-.7-.6.6-1.9-.7-2.4s-1.5-.9-2.6-.4c-4.6-.1-7.8,3.9-11.8,5.9C66.5,62.1,82.8,54.6,86.3,54.5Z" style="fill:#2e414d"/><path d="M79.4,56.7c-4.8,2.3-9,6.5-13.7,8.7C69.9,61.9,74.1,58.5,79.4,56.7Z" style="fill:#5d7784"/><path d="M65.1,63.4c-2.4-.4,6-4.7,7.7-6.4C70.4,59.3,67.4,61.1,65.1,63.4Z" style="fill:#607e88"/><path d="M79.6,58.7c7.4-5.5,2.6,9.6,2.9,3.6,0,3.3-4.1,4.8-3.6,8.4-1.5,2,1.4,4.8-.8,7s-4.7,3-5.1,6c-1.3-.8-.2-2.5-1.7-3.2s-3.2-3.2-2-4.6,2.1-5.7-1.8-3.2c-2.9-4.5,8.1-9.3,11-11.3-5,2.2-10.4,7.5-14.6,11.1C63.2,67.6,74.4,60.5,79.6,58.7Z" style="fill:#172433"/><path d="M79.2,75.1c.6-1.5.8-3.4,2.4-4.3a3,3,0,0,0-.6,4.1c1.3-1.1,2-2.7,3.7-3.2C83.5,73.8,81.5,78.2,79.2,75.1Z" style="fill:#80b2ba"/><path d="M43.3,81.3a31.6,31.6,0,0,1,2.6-5.2c4.4.4,1,9.8-.2,7.7S45,81.9,43.3,81.3Z" style="fill:#6c3937"/><path d="M46.1,84.6c.6-1.5,1.2-3,1.7-4.5.2,3.5-2.1,9.5-3.8,13.1C43.2,91,44.7,86.7,46.1,84.6Z" style="fill:#ecbaa6"/><path d="M46.1,84.6c-1,3-1.6,9.7-6.1,7a1.3,1.3,0,0,1,.4-1.6c0-2.1,3.9-2.4,2.7-4.7C40.6,80.9,47.4,79.3,46.1,84.6Z" style="fill:#c64230"/><path d="M40.4,90c-.9,8.7-1.8,17.7.2,26.4-4.2-2.2-2.7-21.1-.4-28.2Z" style="fill:#e3e5e1"/><path d="M42.7,82.9c1.8,3.5.7,4.7-2.2,6.7A10.6,10.6,0,0,0,42.7,82.9Z" style="fill:#f78f57"/><path d="M97.2,49.9l1.1-.4-.2.9c2.3-.9,3.8-3,5.7-4.4l-3.6,4.4,1.6-.3c-1.8,4-5.9,5.7-8.1,9.8-2.4-3.8,3.1-5.6,5.5-8.4-.5.4-.8,1.2-1.6,1.6s-1.9.8-2.9,1.1C94.4,52.7,96.6,51.3,97.2,49.9Z" style="fill:#c2e0d7"/><path d="M94.6,53.5l.2.4c.6-.7,2.2-2.4,2.9-1l2.8-3.2c-1.9,4-5.8,5-7.4,8.2C92.9,56.2,94,54.9,94.6,53.5Z" style="fill:#8eacae"/><path d="M100.8,160.4c-2.7.2-6.4-1.3-8.8,0-20.2-1.3-42.6-24.3-35.5-45.6,3.7.5.3,6.7,1,9.3,0,5.5,2.9,10.4,5.3,15.1-1-6.4,5,7,7,7.6-3.5-9.4,5.9,5.1,8.9,6.2-3.6-5.9,10.5,8.3,26.5,5.4-1.1.7-1.6,1.4-.6,2.5C103.2,161.2,102,161.4,100.8,160.4Z" style="fill:#d5f0e9"/><path d="M55.4,122.9c1.2,17.9,15.6,33.6,33.5,36.7,3.4-1.5,2.8,2.6,5,4.2C73.7,162.1,53.2,139.9,55.4,122.9Z" style="fill:#96c7c7"/><path d="M67.5,154.3c10.4,6.7-5,.6-7.9-2.5s-13.9-12.6-6.4-12.3c3.4,3.9,8.6,6.2,10.5,11.1-2.2-.9-4.5-2.8-6.5-4.3A49.2,49.2,0,0,0,67.5,154.3Z" style="fill:#161c29"/><path d="M55.4,125.7v-.8c1.2,20.5,19.1,35,38.4,38.9C76,162.2,54.2,145.1,55.4,125.7Z" style="fill:#c4e6e8"/><path d="M65.7,158.8c-1.2-1.4-4.4-1.9-3.8-4.2,5.9,2.9,11.3,6.2,17.9,7C76.8,164.2,69.1,160.3,65.7,158.8Z" style="fill:#141d2a"/><path d="M50.6,140.4c15.4,22-11.4-10.8-11-23,.5-.2.5-.6.6-1.1C42.8,124.3,45.7,133.1,50.6,140.4Z" style="fill:#c4ced0"/><path d="M56.6,134.3c1.3,5.8,7.1,10.4,8.2,15.6-2.1-1.2-3.3-3.2-5.5-4.3,0-.4-.4-.5-.6-.9s.4-1-.4-1.3-1.3.2-1.2-.8-.6-1.5-.5-2.4-2.3-2.8-2.4-4.6,1.8,1.3,2.9,1.9C56.9,136.3,55.3,135.1,56.6,134.3Z" style="fill:#2d455b"/><path d="M67.5,154.3a14.2,14.2,0,0,1-7.9-5.9C61.2,149.7,72.9,153,67.5,154.3Z" style="fill:#2d455b"/><path d="M56.2,148.9c4.4,3.4,11.8,6.9,16.9,10.4C67.2,155.9,60.4,154.5,56.2,148.9Z" style="fill:#83959f"/><path d="M63.8,150.7,60,148.6c0,.8,1.3.8,1.2,1.7-1.4-1.7-4.6-3.4-5.1-5.1C58.6,147.1,61.4,148.7,63.8,150.7Z" style="fill:#9cb0b7"/><path d="M79.2,75.1c.9,0,1.3.6,2,1.1.7-1.8,2.2-1.2.7.3.8.1,1.7-.3,1.7.7s2.5-1.1,3.2.1-.9,1-1.5,1.3c-4.1.3-5.3,7-9.3,5.9,2.3,7.2-3.8,2.4-2.9-1.7S78.1,78.7,79.2,75.1Z" style="fill:#f4fbf0"/><path d="M86.7,77.3c-1-.3-1.8,1.5-2.9.2l-.7.7c-.9-2.9,3.8-2.7,5.2-4.3s.5-2.6,1.8-3.4L89.2,73c1.1-1.2,1.5-2.9,3.2-3.8C91.7,72.5,89,75.2,86.7,77.3Z" style="fill:#c7e2dc"/><path d="M149.1,140.4l-.5,1.2c-.4-2.9-2.2-4.6-2.5-7.2,1.6-4-.1-7.9.9-11.8.7-.4,1.1,0,1.4.5,2.3,5.2,2.5-.6,1.2-3.1,2.8-11.8,5.2,16.9,0,11.7A42.4,42.4,0,0,1,149.1,140.4Z" style="fill:#7998a8"/><path d="M152.1,119.2c-8.7-22.3-23-6.2-16.9-12.9,1-1,6.5-.2,3.2-2.1-1-.6-2.9,0-3.4-1.4s13.8,2,8.9,2.4c.9.3,2.3.6,1.9,1.9,1.9,2.8,6.2,3.7,7.3,6.9-3.3-.3,4.8,6.8,1.4,9.9C153.6,122.5,153.3,119.9,152.1,119.2Z" style="fill:#364857"/><path d="M140.1,159.9c4.1-5.3,4-12.1,8.9-17-.2,2.5-1.7,4.2-1.6,6.3,5.5-4.3-5.1,10.8-7.4,12.8C140,161.3,140.1,160.6,140.1,159.9Z" style="fill:#38495c"/><path d="M146.4,134.5c4.1,12.7-13.3,21.5-1.6,2.5C145,136.2,145.1,132.6,146.4,134.5Z" style="fill:#4d778f"/><path d="M149.1,140.4c-.7-3.5.7-6.9,0-11.3,1.1,2.4.5,3,1.6,4.7l1-1.8C152.7,133.6,151.1,138.4,149.1,140.4Z" style="fill:#47596e"/><path d="M154.9,120.5l-1.2-3.3c3.4,3.8,4.7,9.7,4.4,14.8A47,47,0,0,0,154.9,120.5Z" style="fill:#9babb4"/><path d="M165.6,108.6c.6-1.6-.3-3.4.9-5.6a59.2,59.2,0,0,1-3.1,21.3C163,119.6,164.4,113.4,165.6,108.6Z" style="fill:#fae6cd"/><path d="M165.6,108.6a50.6,50.6,0,0,1-1.6,8.8c-.2-.2.1-.9-.6-.8,1.3-5.1,1.2-10.3,1.2-15.4,1.2,1.3.3,5.1.4,6.6.6-2.3-.7-6.1.4-8.4Z" style="fill:#955744"/><path d="M153.1,114c-7.4-9.4,6.3,1.7,7.8,5.3A59.8,59.8,0,0,1,153.1,114Z" style="fill:#97a8b2"/><path d="M165.4,99.4c-.2,3.2.4,6.5-.8,10.6,1.7-9.1-3.3-22.4-3-27.5A51.3,51.3,0,0,1,165.4,99.4Z" style="fill:#3d2c2a"/><path d="M154.5,61.4c10.3.1,10.8,13.9.3,11.2C150,71.8,149.3,61,154.5,61.4Z" style="fill:#f9daae"/><path d="M143.6,55.9l-.4-.7,1.9.3V54.1c1.3.6,2.1,4,3.4,1.9,1.1,1.1,6.9,7.2,2,3.9C149.2,63.3,144.7,57.2,143.6,55.9Z" style="fill:#8d584d"/><path d="M149.1,61l1.2-2,1.9,2.2v-.9c.5.5,1.1.8,1.1,1.6-2.1.1-1.6,3.5-2.4,5.1-.5-1.2.2-2.4-.4-3.4S148.9,62.1,149.1,61Z" style="fill:#da8867"/><path d="M159.9,116c-5.8-5.4-.4-13.5-2.3-20.5.6-2.8-3.9-13.3-.3-13,6,.2,6.4,14.9,6.1,20-3.7,3.5-2.9,3.4-3.8,8C160.8,110,160.5,116.4,159.9,116Z" style="fill:#4a262d"/><path d="M156.3,111.4c-3.1-.9-5.1-6.5-.7-6.6-5.2-3.8-.9-14.1-5.1-19.8s0-4.7,3.5-1.7C158.2,91.2,159.6,103.5,156.3,111.4Z" style="fill:#36272e"/><path d="M159.9,116a37.8,37.8,0,0,1,.2-5.6l-1,1.7c1-3.6.3-7.9,4.7-10.5.6,6.3-.7,12.3-2,18.3Z" style="fill:#6b292c"/><path d="M159.6,82.1c-1.7,1.4-4.9.3-3.1,3.7-.8,1.3-1.5-.8-1.5-1.5s-2.8-2.2-2.1-4.4-.9-2.2-1.3-3.2,4.6,4.2,5.7.2C158,78.6,158.8,80.4,159.6,82.1Z" style="fill:#743130"/><path d="M154.3,83.2l.3-.6c4.5,8,4.5,19.9,2.3,29.4C158,103,157.9,92.3,154.3,83.2Z" style="fill:#645256"/><path d="M153.3,109c2.6,1.7,3.7,4.5,5.2,7.2-1.3-1.7-13.5-9.5-8-7.6C145.7,106.2,152.1,106.2,153.3,109Z" style="fill:#c3ccca"/><path d="M131.3,50.2c5.5,2.1,17.8,10.8,18.8,16.4-5.8-5.6-11.7-12.2-19.2-15.5C129.8,50.9,130.7,50.4,131.3,50.2Z" style="fill:#e5d4cb"/><path d="M144.4,60.5c2.7,1.8,1.7,5.1,2.4,7.9C144.6,67.2,141.1,62,144.4,60.5Z" style="fill:#742b2e"/><path d="M143.2,64.4c4.8,4.4,7.5,10.5,10.8,16-4-2.4-5.5-8.7-8.8-12.3-1.1-2-3.4-3.2-4.4-5.2C141.7,62.4,142.8,63.1,143.2,64.4Z" style="fill:#bf7d75"/><path d="M150.3,65.7c-.6-1.8-8.3-7.1-4-6.5,1.9,2,5.1,4.1,4.6,7.1C150.3,66.6,150.7,65.8,150.3,65.7Z" style="fill:#974839"/><path d="M124.5,42.5c.9-2.9,9.6,3.5,9.4,4.1A52.5,52.5,0,0,0,124.5,42.5Z" style="fill:#395768"/><path d="M130.3,50.7c4.3.9,12,6.2,12.2,9.6-6.6-2.1-12.6-7.3-19.9-6C119.4,51.8,128.5,51.2,130.3,50.7Z" style="fill:#2a212c"/><path d="M105.9,61.4c11.5-11.3,13.7-14,1.9.9,3.1-.5,4-11.3,7.1-2-2.1,2.3-6.9,4.6-10.3,5.1C103.7,63.9,106.4,63.1,105.9,61.4Z" style="fill:#27394b"/><path d="M114.4,53.7c1.1-1,.8-4.1,2.6-3.5,1.7,3.7,10.3-1.1,11,.9-1.4.3-13.5,5.8-8.7,2.4C117.6,53.1,116,54.1,114.4,53.7Z" style="fill:#bed8d1"/><path d="M104.6,60.8c-.6-2,1.7-3.1,1.9-5.3s2-.2,3.7-.5l-2.9,2.6,2.4-.9C108.1,58.1,106.6,59.8,104.6,60.8Z" style="fill:#435d6b"/><path d="M105.9,61.4c1.5,1.1-1.2,2.6-1.3,3.8C96.1,69.8,102.5,63.2,105.9,61.4Z" style="fill:#151d2c"/><path d="M114,51.9l-3.5,1c1.1-2.2,3.1-2.3,5-3.2A3.4,3.4,0,0,1,114,51.9Z" style="fill:#a7cbca"/><path d="M150.9,65c-2.2-3.3-5.3-5.7-7.9-8.5C145.1,56.1,151.7,62.4,150.9,65Z" style="fill:#f9daae"/><path d="M101.1,65.2l-.7,1.6c1.3-.6,7-2.8,4.8-1,0,.1.7-.2.6.4-2.9,1.1-8,2.9-10.5,1.8Z" style="fill:#7b9097"/><path d="M95.5,68.5c4.8.2,21.1-9.5,11.7.3-5.1.4-10.4,0-15,2.2A5.2,5.2,0,0,1,95.5,68.5Z" style="fill:#141b28"/><path d="M92.2,71c3.2-1.7,7.4-1.6,10.8-.9-1.4,1.9-5.5,1.1-7.8,1.4s-3.2,2.2-5.1,1.9C90.8,72.7,91.2,70.9,92.2,71Z" style="fill:#8dacb1"/><path d="M132.7,157.3c-3.6.1-6,5-9.8,3.1a1.1,1.1,0,0,1,.8-1.5c6.8-2,11-7.8,15.5-13.2C141.8,150.2,136.6,155.1,132.7,157.3Z" style="fill:#6391a5"/><path d="M139.6,148.2c-.8-2.7.8-5,2-7.2s-2.3-12.9,1.3-3.9a23.5,23.5,0,0,0,1.9-4.3c-1.8.7-5.8-7-3-5.2,4.4,7.5,5.1-4.6,3.2-8.4-1.5.8-2.6-.5-4-.8,2.4,4.2,9.5,11.3-.1,4.1-.7.7-.4,1.7-.8,2.7-3.5-3.9-.1-2.7-.4-5.3-1.3-5.3.2-4.5,4-2-.5-8.3,3.8,1.8,3.7,4.6.2,9.2-3.8,16.9-7.4,25.2l-.3-.9Z" style="fill:#203b4c"/><path d="M140,147.7c.6-4.3,3.5-7.9,5.2-11.9-.4,4.5-4.2,7.6-4.8,12.3a8.1,8.1,0,0,0,3.7-2.1C143.2,147.8,140.5,151.2,140,147.7Z" style="fill:#99c8d7"/><path d="M93.8,158.3c-6.5-.7-11-3.2-16.2-7.7l2.2,3.2c-3.9-2.8-8.2-5.5-10.5-10.1l1.4,4.4c-3.5-1.5-14.7-21.4-9-20.7-.2,2.1,6.8,7.8,3.3,7.6.8,1.7,2.3,2.4,3.7,3.4.9-1.8,3.8-1,5-.1.7,2.5,3.6,3.3,4.4,5.8,3.2,2.5,10.4,10.1,12.1,3-1,4.5-4.3,3.1-7.1.8.1-2.4,3.5-3.9,3.5-6.4-1.4-4.4-9.8,7.4-7.8.3,2.9-1.7,8.2-8.7,1.3-7.6-1.7.2-4.2,4.7-5.1,1.9,1.3-3.1,5.6-4,7.6-6.8,1.1-.7,1.8.8,2.6,1.5,2.1-3.9,3.9-8.2,6.3-11.8,1.8,2.4-2.4,6.6-3.2,9.1s-3,8.6-4.5,4.3c0,2.3,4.2,8.7,4.4,3.6.3-.8.4-4.4,1.9-2.8s5.3,2.5,4.1,4.6c1.3,1.1,2.8,2.2.3,3,2.4,2,5.1,2.2,7.9,2-5.4-1.1-14.7-15.7-9.6-18.7,1.3,4.9,5.5,6,9.4,7.9-2.2,1.3-5.3-.4-7.6-1.4a19.2,19.2,0,0,0,9.8,11.3c-5.9-3.5,1.8-.7,3.9-1.6,2.2.8-3,3.9-2.5,6.1s-3.3,3.5-5.6,3c21.6,8.7-7.7,6.8-14.2,3.4C87.2,154.6,95.4,156.9,93.8,158.3Z" style="fill:#1b202f"/><path d="M139.2,145.9a60.9,60.9,0,0,1-10.8,11.9c-1.4-.6-6,1.7-6.1-1.2,2.8-1.3,6.6.8,8-3.7,3.5-4.5,7.4-8.8,8.9-14.5,1.5-1.6,1,1.5.5,2.3S140.1,144.2,139.2,145.9Z" style="fill:#91cbd1"/><path d="M122.8,154.7c-1.1-.5-2.1.2-3.2.1.5,2.3-2.2,1.2-1.9-.1-3.9-2.1-11.3-.5-13.5-3.9,7.4-.2,15.2,2.8,22.5-.7,1.9-1.3,5.7-1.8,2,.5C134.7,147.9,125.1,155.4,122.8,154.7Z" style="fill:#95e8f1"/><path d="M104.1,150.9c3.6,2.3,8.9,2.6,12.3,4.3a26.4,26.4,0,0,1-10.1.3C111.9,155.2,100.4,150.2,104.1,150.9Z" style="fill:#1b4b67"/><path d="M116.4,155.2c-3.3.1-6.3-1.7-9.5-3.1l12.5,2.2A7.8,7.8,0,0,1,116.4,155.2Z" style="fill:#36adc7"/><path d="M102.9,163.4c-1.3,1-2.6,1.9-4.5,1,.9-.9,2.5-1.2,2.3-2.3s1-.3.9-1C103.6,160.5,104.5,162.2,102.9,163.4Z" style="fill:#87bac0"/><path d="M122.3,156.6c.3,2.2-3.3,5.4-5.5,4.2h0c.1-2.1,3.5-1.1,4-3.7-.9-.7-1.7.4-2.7,0C119.6,156.6,120.8,155.8,122.3,156.6Z" style="fill:#87b7c5"/><path d="M122.8,154.7c5-1.4,7.9-5.2,11.9-8C133.6,149.6,126.5,155.1,122.8,154.7Z" style="fill:#5796a4"/><path d="M92.9,154.9a3.6,3.6,0,0,1,2.9.2h-.6l6.3,2.7c-1.9,1.9-12.6-.9-3.8-.5C96.1,156.7,93.5,156.5,92.9,154.9Z" style="fill:#5598a2"/><path d="M94.2,157.9c3.4.6,6.8-.2,10.2.4a34.3,34.3,0,0,1-10.6,0Z" style="fill:#2b6073"/><path d="M102.9,163.4l.8-1.9-4.4-1c2.6-.3,3.9.6,6.5,1Z" style="fill:#4a7e8b"/><path d="M116.8,160.8c5-.3,4.1-4.9,9.9-3C123.7,159,120,162.4,116.8,160.8Z" style="fill:#c6e9e7"/><path d="M72.7,94.3c2.7-.5,1.7,4.4,4,1.6.6.8,1.6.6,2,1.6s1.3-.6,2-.1c.8-1.3,8.5.2,6.5-2.5,1.4-1.1,2.8,0,4.3-.1v.8c4,1.1-1.6,2.5-3.3,3.1-3.6.6-6.2,4.4-9.4,6-1.2,1-1,3-2.7,3.3-2.5,1.8-.6,6.2-3.3,7.3,2,.1.2,4.7-1.2,4.3s-1.1-3.6-1.9-5-1.1-1.5-.1-2.9c-1.1-2.5-3.8-.2-5.6.3s-3.6,2.3-5.3,2.2c-.2-5.3,7.4-3.1,9.8-6.5,1.4-1.1.7-2.2-.4-2.9A15.8,15.8,0,0,0,72.7,94.3Z" style="fill:#234f64"/><path d="M73.1,82.8a7,7,0,0,0,8.1,6.5c.9-1,1.2-2.4,2.5-3.4s.4-.6.8-.1c0,2.4,6.2,1.1,8.5,1.6s6.5.8,10.2-.1c1.1-.2,2.4-1.8,3.2-.3s-3.3,1.9-3.9,4.1c-3,.3-7.9,1.4-10.5-.5-.7.6-.8,1-.3,1.9l-1.3.4c.1-5.6-12.4,10.2-17.4-4.2-1.2-1.2-1.8-2-1.4-3.2-3.1.2-1.8-2.6-3.3-3.8-4.5-2.5,1.1-5.2.8-8.6l1.2.4a9,9,0,0,0-.7,6.2c2.6.5,3.1,1.2,3.3,4.1Z" style="fill:#183345"/><path d="M88.1,98.4c1.7-.5,3.1-1.7,4.8-1.7-3.7-1.4,3.5-2.8,5-2.6,2.8,3.3.5,7.1-3.5,4.5,5.9,5.3-7.7,6.1-7.1,1.5C86.4,99.1,87.1,98.5,88.1,98.4Z" style="fill:#f9fdf2"/><path d="M79.6,58.7c-7.1,3.5-13.2,8.4-17.4,15.2-.4-2.3.9-3.5,1.9-5l-1.7.3c1.8-1.9,4.9-2.3,4.7-4.4,4.7-1.3,7.6-5.4,12.6-6.8Z" style="fill:#38596b"/><path d="M65.3,100.1l.2-2.5-1,1.8c.6-4,6.9-7.3,4.6-13.2C73.7,90.9,70.5,98,65.3,100.1Z" style="fill:#7af4f6"/><path d="M98.2,95.6c-.3-.7-.4-1.4-1.4-1.6l1.7-.3-1-.7c4-3.3,8.6-2.6,7.3,3.3C102.5,97.7,99.7,94.3,98.2,95.6Z" style="fill:#f6fded"/><path d="M63.9,72.5C67.8,67.7,78,60.4,81.1,60.4c-7.5,4-15.3,8.2-17.8,16.9C63,75.2,63.1,73.8,63.9,72.5Z" style="fill:#3d6377"/><path d="M67.9,97.9a8.6,8.6,0,0,0,3.3-5.7c.1,1,1,1.4,1.5,2.1C73.2,97.1,69.2,103,67.9,97.9Z" style="fill:#1b5e7f"/><path d="M66.5,78.5c1.8,3.3,3.4,5.3.5,9.3C69,83.7,65.5,81.1,66.5,78.5Z" style="fill:#84eff2"/><path d="M69.5,89.2c.4,2.8-1.3,4.8-2.8,7.6C67.5,94.2,67.6,90.9,69.5,89.2Z" style="fill:#1a7598"/><path d="M67.1,89.2c-.2,1-1.7,6.6-2.2,3.6h0a7.1,7.1,0,0,1,1.2-4.2Z" style="fill:#25819c"/><path d="M69.1,99.9c2.3-1,3.1-3.1,3.5-5.5,1.3,6.7-4.3,10.8-9.1,14.2,9.6-4.4,4.3,2.1-1.5,2.3-3.6.2-2.3,3.8-4,5.3-.9-1.2-2.5-2-.8-3.4,3.3-2,4.4-7.2,8-9.4-3.6,2.8-.6-4.7,2.1-3.8C67.9,100.5,68.1,100.1,69.1,99.9Z" style="fill:#7af4f6"/><path d="M62.6,106.3c-1.2,2.8-3.4,4.9-5.1,7.7-.1-1.5-.6-2.3.5-3.5,3.6-5.9-3-10.1-4-15.1-.3-1,1.1-4.1,1.8-2s2.7,5.4,3.5,8.4c-.3-2-4.2-5.3-1.7-7,1.6,1.2,1.6,8.4,4.1,4.4.9,1.4.1,2.8.7,4.3a3.9,3.9,0,0,1,1.6-2.9C64.4,102.3,63.4,104.7,62.6,106.3Z" style="fill:#d5fbfa"/><path d="M55.6,77.3,57,73.7c.2,5,3.5,9.1,3.8,14-1.8-2-3.8-3.8-3.8-7.5-1.2,4,0,6.4,1.5,9.3C55.2,92.6,54,79.6,55.6,77.3Z" style="fill:#285570"/><path d="M57.2,90.1c.7-.3,1.4-.6,1-1.5s1.2,2.5,2.2,1.6c1.3,2.8-3.4,5-.6,8-2.3.2-1.7-3.9-1.3-5.6-3.8,4,1.6,6.6,1.1,11.1C58.9,99.6,51.1,92.5,57.2,90.1Z" style="fill:#3fd2e0"/><path d="M59.4,82.8a12.3,12.3,0,0,1-2-10.8c0,7.1,8.3,10.7,5.4,18.1C61.5,87.3,61.8,84.4,59.4,82.8Z" style="fill:#d1fcfb"/><path d="M63.3,86.4c-.9-5.2-7.2-8.3-3.9-14.1-2.6,6.9,8.9,10.5,5,18.2C63.1,89.2,64.3,87.6,63.3,86.4Z" style="fill:#58dfec"/><path d="M64.9,92.8l.2.7.8-.2c-1.2,2-2,4.9-3.3,6.4l.7-2.1-1.3.8C62.5,95.9,64.2,94.6,64.9,92.8Z" style="fill:#3fbfcc"/><path d="M69.1,99.9l-2.3,1.6c1.2-2.7-.4-.9-1.7-1.2C66.5,99,68.7,96.5,69.1,99.9Z" style="fill:#2ba9c2"/><path d="M65.1,90.6c.4.7,0,1.5-.2,2.2l-.2-.7c-1.3,2.3-.9,2.2-3.4,3.2Z" style="fill:#3fbfcc"/><path d="M44.3,92.8a32.4,32.4,0,0,1,5-12.6c2.2,1.8.8,4.5,2.3,6.6-.5,2.5-4.6,11.7-5.5,3.8C45.7,91.2,45,93.8,44.3,92.8Z" style="fill:#674042"/><path d="M56.8,90.2a7.5,7.5,0,0,0-2.4,5.3c-4.9-2.3-2.7-8.5-1.2-12.4C54,86.7,54.2,87.4,56.8,90.2Z" style="fill:#374b64"/><path d="M56.8,90.2c-5-2.5-4.4-9.2-1.2-12.9.8.1.3.7.2.9-1.9,4.3.2,7.9,1.4,11.9Z" style="fill:#96e8f0"/><path d="M51.8,86.6c.3,2-.5,5.9-.3,8.7C48.7,98,49.8,87.7,51.8,86.6Z" style="fill:#def7f8"/><path d="M39,103.1a40.6,40.6,0,0,1,1.2-11.5c1.4.5,2.6-.2,3.9-.4-.6,1.5-1.1,16.4-2.2,11.6A3.7,3.7,0,0,1,39,103.1Z" style="fill:#56363c"/><path d="M42.3,104.1a61.5,61.5,0,0,1,1.6-11.3c0,.1.1.1.1.2l.3-.2c-2.3,11.8,1,23.8,3.8,34.9C44,121.7,41.6,111.4,42.3,104.1Z" style="fill:#8d9197"/><path d="M42.3,104.1c-.7,5.6,3.2,11.3,1.2,16.4,3.2.4,1.8,7-.5,4-2.4-6.8-7.9-19.4-.7-23.1Z" style="fill:#262c3b"/><path d="M58,116.2c1.4-5.3,8.1-4.7,11.7-6.7-.7,1.2-.4,1.3.5,1.9s-1.3,1-1,2.1,1.9,2.1,1.1,3.8c3,2.2,1,9.4.8,13.2-3.3,1.7-14.6-14.1-5-5.9-1.7-.6-6.2-10.1-6.4-5.7,5.1.3-2.3,3.2-1.5,5.9C56.9,130.6,56.9,118.5,58,116.2Z" style="fill:#234153"/><path d="M59.4,121.5c.4-.9,1.3-1.2,2.1-1.6s-3.5.6-2.1-2.7c3.6.1,4.9,6.3,7.7,8.4-2-.6-2.9-2.4-4.6-3.5,1.7,6.4,10.8,7,10.5,14.5,1.7,2.5-2.1,1-3.4,1.2s-.7,1.3-1.7,1.2c-.4-1.8-3.3-2.4-4.2-5.2l2.5,1.3c-2-1.3-5.8-11.8-6.1-6C59.5,139.1,56.2,124.4,59.4,121.5Z" style="fill:#262e3a"/><path d="M56.4,115.2c-1.1,4.8-2.2,14.6-3.6,2.9-.4,5.8-3.3-5-3.1-6.7-.1,10.4-3.1-22.6,1.3-7.7C52.6,107.7,57.4,110.5,56.4,115.2Z" style="fill:#273e52"/><path d="M54.1,123.3c1.2,0,.5-1.3,1.1-1.8a51.6,51.6,0,0,0,2.4,16.7C53.3,135.8,53.1,127.7,54.1,123.3Z" style="fill:#325f79"/><path d="M60.5,128.7a8.7,8.7,0,0,0,2,5.6c1.1,2.5-.3,3.9,1,6.7C61.3,136.7,58,132.8,60.5,128.7Z" style="fill:#262e3a"/><path d="M56.4,115.2c.2-1.9-1.2-3.5-1.4-5.4.7-.2,1,.5,1.5.8C59,109.8,57,114.2,56.4,115.2Z" style="fill:#266689"/><path d="M59.4,121.5a29.2,29.2,0,0,0-1.2,8.8C57.3,127.8,57.2,122.7,59.4,121.5Z" style="fill:#a1c2c9"/><path d="M60.5,128.7c-.6,1.7.1,3.6-.7,5.3-1-2.3-.3-5.1,1-7.6A8.5,8.5,0,0,1,60.5,128.7Z" style="fill:#849fa8"/><path d="M53.4,127.7c2,4.1.1,4.1-1.5.4,1.3,3,3,5.6,4.1,8.7-1.2-.9-2.6-1.2-3.4-2.4,2.1,2.9,4.1,5.1,5.6,8.4-2.9.2-3.5-2.6-6.1-3.3-2.1,2.5-6-4.4-4.5-6.2s.9-.3.5-1.4c-.9,3-2.1-.3-1.9-1.6-.3,5.2-5.3-8.1-4.7-10.1,1.2,1.6,1.1,3.7,2.9,5.2.7-2.2,1.3-3.9-1.7-4.7,1.6-1.2,1.2-2.6.9-4,1.7.1,2.2,8.3,4.4,10.8-6.9-20.7-5.9-32.7.8-2.6-1.9-2.1-4.7-20.9-1-10.7-1.2-1.8-2.1-14.1,1-7.5C48.3,114.1,53.7,120.4,53.4,127.7Z" style="fill:#242c39"/><path d="M55.2,141.6c2,1.3,3.5.8,4.7,3h-1c0,.5,1,.5.4,1.1C57.9,144.4,56,143.5,55.2,141.6Z" style="fill:#618593"/><path d="M45.5,131.9c1.3-.7-.8-1.5-.3-1.8,2.7-1.9.7,1.8,2,2.9.8-.7.3-1.6.5-2.5.8,1,.9,2.3,1.6,3.3l-1.5-.5c.5,1-.7.7-.7,1.6Z" style="fill:#262c3b"/><path d="M56.8,140.2a25.4,25.4,0,0,1-5-7C53.8,135.2,56.4,137.2,56.8,140.2Z" style="fill:#88abb8"/><path d="M86.7,77.3c3-8,17.8-2.9,8.7-3.4,3.6-.5,4.4,4,.3,1.4s-11.1,5.3-13.4,8.5c-.7,2.3-3.6,2.2-4.7.6C83.3,82.6,80.2,79.6,86.7,77.3Z" style="fill:#758d8c"/><path d="M77.6,84.4l2.1.2c-2.2,1-1.7,2.6-1.7,4.4-2.3-.1-2.8-4-1.9-5.9C75.8,84.3,76.8,84.5,77.6,84.4Z" style="fill:#a4c8ca"/><path d="M82.4,80.1c-.1,2.3-1.8,4.5-4.4,4.1C79.5,83,81.2,79,82.4,80.1Z" style="fill:#b5d1cc"/><path d="M92.5,73.1c-1.2.2-1.9,1.6-3.2,1,2-1.5,4.2-3.2,6.9-2.9A8.7,8.7,0,0,1,92.5,73.1Z" style="fill:#48626c"/><path d="M147.4,122.5c-5.5-12,4.3-3.8,3.8,3-1.2-.3-1.2.2-1.5,1.2C148.8,125.3,148.6,123.6,147.4,122.5Z" style="fill:#96b3bd"/><path d="M150,120.1c-2.2-1.8-1.7-5.7-4.6-7.5-.3-5.9,5.8,2.3,6.1,5C149.9,117.8,149.6,118.7,150,120.1Z" style="fill:#a9cbd4"/><path d="M145.8,134c.7-8.3,2.7-6.6.6.5Z" style="fill:#a2bfd1"/><path d="M147.2,110.6c-2.1,1.9-4.5-.8-6.7.3,1.6,4.6-6.2.9-1.9.6-1.1-2.3-4.7-1.5-5.8-3.3,1.8-1.5,7.1-.6,7.9-2.9C143.3,106.8,145.8,108,147.2,110.6Z" style="fill:#dcf4ed"/><path d="M133.5,107.9c-1.6.8-.9,1.6.2,2.5,3.1,4-6.3-.2-.1,6.3-3.1,1.8-3-2.4-4.7-3.7a18.6,18.6,0,0,0-11.5,6.1c-5.3,1.5,8.2-10.2,13-8.1C128.8,106.6,138.8,105.2,133.5,107.9Z" style="fill:#142637"/><path d="M135.2,106.6c-1.6-.3-5,3.6-5.1.7s-1.7-2.2,1.9-4.2S145.1,105.8,135.2,106.6Z" style="fill:#eafbf4"/><path d="M149,106.7c-.2.3.5.6-.1.8l3.2,1.7v.3c-3.1-1.7-3.7-1.3-.6.7-1,.4-.4,1-.1,1.6-2.6-.5-4.3-3.5-6.7-5.2h1.6C138.7,104.1,147,104.3,149,106.7Z" style="fill:#6a8b9c"/><path d="M149,106.7c-1.4-.7-3.2-.9-4.2-1.9,3.6.3,10.7-1.7,8.5,4.2Z" style="fill:#201f2b"/><path d="M141.8,103.7c-2.9-1.3-12.4-1.6-3.8-3.1.6,0,3.6-.7,2.8.4,1.3-.4,1.6,1.2,2.7,1.4S142.9,104,141.8,103.7Z" style="fill:#94bdc3"/><path d="M138,100.9l-4.2.9c2,.1,3.2.2,4.3.9-1.9-.7-6.9,2.2-7.3.4C123.7,104.7,136.2,98.2,138,100.9Z" style="fill:#507481"/><path d="M141.8,103.7c2.4-1.7,15.8,1.3,8.3,1.3.2.1.7-.2.8.2C147.8,105.6,144.8,104.7,141.8,103.7Z" style="fill:#90b7ba"/><path d="M161.4,67.7c.2,6.2-9.2,5.7-9.2.2S161.5,61.5,161.4,67.7Z" style="fill:#eb9c69"/><path d="M142.4,60c1.1-1.2,2.8.7,1.1,1.9a1.9,1.9,0,0,1-.3,2.5l-2-1.6a63.2,63.2,0,0,1,14.3,23.8c-1.5-.8-1-3-2.5-3.9l-.3.4c-1.7.3-1-3.2-3.3-1.8-2.7-3.1-4.2-8.1-7.3-11.2,4.4,4.2,8.8,16.6,1,3.7,6.7,13-13.3-17-2.8-6.9,1.7-1.3-2.1-3.5-1.9-5.3S141.3,61.1,142.4,60Z" style="fill:#56292c"/><path d="M150.9,105.2l-2.7-.3h4.7c-4-2-8.6-2.1-12.8-3.9,5.9-1.9,11.9,1.6,17.3,4.1A23.7,23.7,0,0,1,150.9,105.2Z" style="fill:#f3f8f4"/><path d="M153.7,103.5c-2.1-11.4-3.9-24.9-12.6-34.5C149.9,78.3,154.1,90.9,153.7,103.5Z" style="fill:#927a7f"/><path d="M118.6,54.5c6.8-2.9-1.1,1.5,11.4,5-1.3,2.6,3.7,5,2.8,7.6.4.6,1.1,1.4.6,2.3s1,3.9,0,5.8c-3.1-2.5-2.2-8.8-5.1-12.2s-9-7.7-14.7-6.5C111,54.7,117.3,54.4,118.6,54.5Z" style="fill:#27394b"/><path d="M121.6,55.1c5-4.8,14.9,2.7,20.8,4.9-1.6,1.8-14.5-2-7.1-1.5C130.9,57.2,125.9,56.6,121.6,55.1Z" style="fill:#f6f9f3"/><path d="M118.6,54.5c-4.9.2-7.5,2.6-9.4,7.3l1,.2c-1,1-2.3.7-3.9,1,5.3-4.3,6.7-11.4,14.5-10.1-.6,1.2-1.9.7-2.6,1.5Z" style="fill:#709ba5"/><path d="M109.7,64.2c-1.8.7-3.4,1.9-5.3,2,5-2.9,10.2-6.3,15.3-8.4C119.9,61.1,112.6,63.3,109.7,64.2Z" style="fill:#e5f5f3"/><path d="M117,59.2l-2.3,1.4C110.4,55.7,116.7,53.8,117,59.2Z" style="fill:#597a87"/><path d="M103,70.2l-9.5.2c2-1.8,10.3-2.6,9.9-1a27.6,27.6,0,0,1,5.7-.6,1.1,1.1,0,0,1-.9-.3c4.2-1.4,12.4-2.8,15.6.7C117.5,67.2,109.8,71.6,103,70.2Z" style="fill:#c6e1e4"/><path d="M110.5,67.6c-.9.8-2.3,1.1-.3,1a30.4,30.4,0,0,1-7.7.9c3-1.2,5.1-.8,6.9-4,.4-.3,1.2-.7.3-1.3l5.7-2.6C114.9,64,110.5,64.4,110.5,67.6Z" style="fill:#395566"/><path d="M103,70.2a99.9,99.9,0,0,0,15.4-2c3.2,2.8,3.4,6.5-.8,7.9-1.1.7-1.5.6-1.7-.5s3-1,3.5-3.2a2.6,2.6,0,0,1-3.9-.2c1.5,9.4-6,1.2-10.2.8C97.4,73,88.8,71.7,103,70.2Z" style="fill:#131d2c"/><path d="M135.1,147.1c-1.4-.9,1.3-2,1.6-3.1s.9-3.2,1.5-4.7.3-3.2,1.5-4.7-.4-5.4,1.3-7.1c.5,1.9,2,3.2,2.8,5l1.4-.5c0,2.5-1.6,4.1-2.4,6.4-.6-1.8-1.1-3.3-1.5-4.8.9,4.3,1.4,9-2.1,12.3-.1-2.5-.3-5.1.8-7.6C138.2,141.2,138,144.9,135.1,147.1Z" style="fill:#81abb7"/><path d="M141,127.5c-1.2,2.7.7,6.3-2.2,9.3s-2.1,5.7-4,8c-4.2,6.8-16.1,7.9-22.8,4.7,9.1-.6,18.9-.5,23.7-10.4C139.1,137.6,139.3,126,141,127.5Z" style="fill:#9ce9ef"/><path d="M142.6,129.1c-.7-1.2-1.6-2.4-1.6-3.9,0,1,0,1-.6,1.3a1.3,1.3,0,0,1-.1-.6c.2,1.4-1,.9-1.1-.1-2.9-11.3-14.8-5.4-18.2,2.4-2.7,3.7-6,1.9-.8-1-3.2-.4,1.1-1.8,1.7-2.9s-1.3-.4-.7-1c6.3-4.7,16.2-9.5,18.6,1.5.3-1.3.6-2.5,1-4,.3.9.4,1.4.6,2.1,1.3-1,5.8,3.2,3.5,4C141.9,125.9,144.3,128.5,142.6,129.1Z" style="fill:#7a939c"/><path d="M142.6,129.1c.8-1-.4-2.3.7-3.3,6.1,2-3-5.6-3-8.2,1.7.4,3.8,2.6,4.7.7,2.1,2.9,1.7,10.6-.8,13.2Z" style="fill:#81abb7"/><path d="M138.7,122.1c-2.8-4.1-7-11.5,1.7-8.8.8-.6-.5-2.4,1.1-2.5,2.4,2.1,0,4.4-2.1,5.3C139.1,118,140.7,121.2,138.7,122.1Z" style="fill:#4a7286"/><path d="M142.4,113c-2.9-6.5,9,2.7,6.2,5.5C147.2,115.9,142.8,116,142.4,113Z" style="fill:#d3eae6"/><path d="M142.4,113c1.5,1.6,1.7,3.4,2,5.6-1.7-.9-5.1-2-5.2-3.9C140.6,116.2,141.5,113.8,142.4,113Z" style="fill:#72a8b5"/><path d="M139.2,122c.1-2,.1-4,.2-5.9.1,2.1,1.6,4.2,0,6.5Z" style="fill:#7d9cad"/><path d="M140.5,126.5l.3-3.5,1.6,5.7C142,127.7,139.8,127.5,140.5,126.5Z" style="fill:#81abb7"/><path d="M102.1,150.1c-1.3-.3-2.5.2-3.6-1.2,2.6,0,6.8,1.5,7-2.6.6.3.3,1,.7,1.5.7-2.4,1.9-2.7,2.6-.2,1.6-4.4,5.3-5.2,8.4-7.6s5.6-5.8,8.5-5.9c-3.1-1.3.3-4.3,2.3-2.8.1.8-1.1,1.6.1,2.2s2.8-3.1,4.8-2.1c-.6,6.1-8.9,7.2-13.1,10.2.5,2.3-3.4,2.8-1.6.4-.1.4-.5.8-.7,1.5C133.9,147.3,106.3,150.1,102.1,150.1Z" style="fill:#273547"/><path d="M87.9,128.1c1.3-2.8,4-6,3.6-8.9s1.8-3.1,2.5-4.6,6.1-6.5,3.3-.7c3.7.9-3.1,11.9,6,15.3,1.1-.1,1.7.7,1,1.5,2.7,7-9.4-5.2-8.1-10.3.2,1.3.1,3.3-1.6,1.9.1,2.5-.3,2.4-2.6,1.9l-.3,1.7c-.3-.1-.3-.5-.3-.8s-.6,1.8-1.5,1.9C89.6,128.7,89.5,129.8,87.9,128.1Z" style="fill:#233146"/><path d="M75.8,137c2.1-3.1,8.3-5.8,8.3,0C80.1,140.1,76.8,145.9,75.8,137Z" style="fill:#47788a"/><path d="M87.9,128.1c.8-.3,1.1,0,1.3.7-.3-2.5,2.2-2.8,2-5.4,1,1.5.1,16-1.7,7.9-1.1,1.7-.5,6.5-2.3,6.6s-3.4-2.7-2.6-4.5C87.7,132.9,87.2,130.1,87.9,128.1Z" style="fill:#3d5869"/><path d="M72.5,133.1c-3.3-3-1-13.7,1.8-5.3s1,6.2,7.1,2.1c4.3-1.8-5.4,4.8-6.2,6.1S72.9,134.1,72.5,133.1Z" style="fill:#cce8df"/><path d="M77.8,144.2c-1.5-1-.4-2.7.5-.9s3-1,4.2-2c6.6-4.2,3.8,3.1.9,5.6S79.5,144.7,77.8,144.2Z" style="fill:#365264"/><path d="M103.4,132.1c7.6,1.8-4.9,1.6-7,.6.3,3.2,3.1,1.1,5.1,1.1s-2.1,2.7,4.5,4.8c1,4.3-12.5-4.2-12.6-9.2C96.8,131.7,99.9,132.1,103.4,132.1Z" style="fill:#b0ccce"/><path d="M96.8,135.8c3,.7,5.9,3.4,9.6,3.6-.7-2.9,10.5,3.1-4.1,1l3.4,2.1C103.5,142.5,97.7,138.1,96.8,135.8Z" style="fill:#475f6f"/><path d="M92.7,116.4c-1.5,2-7.1,17.8-8.8,11.7.1-1.6-.3-3.7,1.5-4.6s1.7-3.2,3.7-2.3C89.7,120.3,92.1,115,92.7,116.4Z" style="fill:#5d94a9"/><path d="M92.9,124.3c.4-.9.8,0,1.2,0v-3c1-.1.7,1.8,1.9,1,1.2,1.2,1.5,3.7,2.5,5.2C95.5,131.3,93.8,128.1,92.9,124.3Z" style="fill:#425366"/><path d="M92.9,154.9c1.9,1.3,4.3,1.8,6.7,2.9-6.5.8-10.4-2.1-15.7-6.1Z" style="fill:#9ee7eb"/><path d="M102.1,150.1c2.4-1.1,4.9-.9,7.4-1,0,.5-.3.5-.6.5,1.7-.1,7.4-.3,5.9,2.5C110.7,151.3,105.9,151.9,102.1,150.1Z" style="fill:#2f7591"/><path d="M96.2,129.7c-.2-1.5.5-1.9,2-2-1.2-3.3-3.2-5.8-1.7-9.5,0,6.1,2,10.7,6.9,13.9A18.1,18.1,0,0,1,96.2,129.7Z" style="fill:#677e8c"/><path d="M102.2,142.4l2,.8c-4.2.9-9.1-.5-10.5-2.9l2.1-.3C95.5,136.8,100.5,142.3,102.2,142.4Z" style="fill:#2e3647"/><path d="M72.5,133.1c2.1,2.1,5.6,6.2,4.6,8.9C74.4,140.5,70.9,136,72.5,133.1Z" style="fill:#81b2b7"/><path d="M84.2,128.1a3.5,3.5,0,0,0,1.4,1.9c1.1-3.7,3.2-6.7,5.3-9.6-2,3.6-3.9,7.5-5.6,11.2-3.8-2.8-3.2-8.8-.9-12.5C86,121.7,83.2,125.1,84.2,128.1Z" style="fill:#cbe3e4"/><path d="M108.9,140.6c1.5-2.2,7.2-6.9,9.3-4.2-5.8,2.8-9.4,4.9-12.6,10.7C105.2,144.4,107.3,142.4,108.9,140.6Z" style="fill:#c4e5e3"/><path d="M88.5,133.5c0-1.1,1.1-1.9.8-3.1.4,1.1.3,2.5,1.6,3.3,0-3.1-.3-5.8.7-8.8.1,4.2,4.6,15.6-2.3,8C88.9,132.9,89.1,133.6,88.5,133.5Z" style="fill:#5b7c8b"/><path d="M77.8,144.2c5.8,4.1,5.3,2.4,9.3-2.8-.7,2.5-2.7,4.2-4,6.5,4.7,3.9,5.9.7,8-2.6-.7,1.8-1.5,3.6-2.3,5.7A27.9,27.9,0,0,1,77.8,144.2Z" style="fill:#93b2bc"/><path d="M87.9,140.4c1.9-.6,1.4-2.5,2-4C93.7,139.6,91.7,147.2,87.9,140.4Z" style="fill:#2b3f56"/><path d="M83,128.7c-2.3,4.5-1.6-3.2-6.4-.5-6.2.7,1.1-1.9,2.9-2.5S82.8,126.2,83,128.7Z" style="fill:#4f8493"/><path d="M88.5,133.5c1.8-1.9-.5,4.2-.6,5.6-2.9-1.9-4.5-4.5-4.5-8.7,1.2,3.3,1.6,5.5,4.3,7.5Z" style="fill:#a8c3cd"/><path d="M73.4,138.4l.2-.5c.9,2.2,2.7,3,4.3,4.2l6.2-5.5c-1,2.6-4.7,3.8-5.8,6.7C76.5,142,74,140.9,73.4,138.4Z" style="fill:#ddf2f2"/><path d="M102.2,142.4c-3-1.5-6.9-2.5-8.8-5.2C97,136.3,98.8,141.3,102.2,142.4Z" style="fill:#4e6172"/><path d="M87.9,140.4c1.1,1.1,2,2.3,3.8,2.8l-.5-4.2c1.2,1.4,1.1,3.3.9,5.2-2.8-.8-4.4-2.8-5.9-5.5Z" style="fill:#88a2b3"/><path d="M95.2,137c-2.9.6-3.1-5.9-3-7.9A44.3,44.3,0,0,0,95.2,137Z" style="fill:#98bdc5"/><path d="M114.8,152.1c.2-3.4-5.5-1.6-7.9-2.5,3.7-.1,9.4-2.2,12.7-1.8,5.2.1,9.4-3.1,13.9-5.4-2.8,6.6-14,8-21.5,6.9,6.2,2.4,12,1.6,17.7-.6C127.7,151.5,119.4,152.8,114.8,152.1Z" style="fill:#36aec7"/><path d="M130.1,148.9l-.4-.2c5.9-1.4,5.4-8.4,9.1-11.9A16.4,16.4,0,0,1,127,151.6C128.1,150.3,129.7,150.3,130.1,148.9Z" style="fill:#91cbd1"/><path d="M73.6,127.3c-6.1-7.2,2.2-9.6-1.2-11.8,1.8-2.1,5.5-8.9,6.5-2.8,2.5.2,4.1,1,3.9,3.8.6.3,2.7-.5,2,.8-4.6,2-11.4.7-9.6,8C86.1,121.7,78.5,127.3,73.6,127.3Z" style="fill:#effaec"/><path d="M78,110.9l-.9-.7L73.8,114c.3-7.4,7.8-13,14.3-15.6-1.3.6-1.5,1-.9,2.3-1.9,1.1-4,2.2-5.9,3.4C84,106.3,75.8,106.9,78,110.9Z" style="fill:#407481"/><path d="M68.9,107.9l-.2-1a29,29,0,0,1-6.6,2.5C64,107,72.2,101.8,68.9,107.9Z" style="fill:#1b7090"/><path d="M113.8,76.5c4.9-1-1.6,2,.2,4.8-2.2.7-3.2,2.7-3.9,4.2s-3.4,3.2-4.2.9c-7.2,4.1-14.5.9-22.2.9,1.5-5.9,10-9.1,15.3-6.8-6.5-7.7,4-2.2,6.9-.1-1.9-2-3.2-3.7-6.2-4s-2.5-2.5-5-2.6A40.4,40.4,0,0,1,113.8,76.5Z" style="fill:#16222f"/><path d="M98.8,76.7l-2,.4c1.1,2.9,3.5,3.7-1.3,2.4,1.6.8-1.6.9-2.2.8-4.8.5-8.4,3.8-11.2,7.5-3.8-1.2,9.4-13.4,11.6-11.5C86.3,75.1,97.4,73.4,98.8,76.7Z" style="fill:#405561"/><path d="M90.9,75.5a8.6,8.6,0,0,1,5.3,2.2c-5.7-3.5-7.8,2.3-12.1,4.8-2.1,3.1-1.8,3.3-5.4,4.1-.1,2,2.1,1.5,3.1,2.6-1.2,1.3-2.9-.1-4.2.9s-.6-.7-.2-1.1-1.2-3.3,1.4-3.8h2.5C82.7,80.1,87.9,78.9,90.9,75.5Z" style="fill:#15222c"/><path d="M102.9,90.4l-.7-.4C112.3,83.2,111.5,101.8,102.9,90.4Z" style="fill:#e9f7ea"/><path d="M106.3,87.2c2.5-2,4.6-3,6.1.4,2,5.4-5.2,1.1-6.8,0Z" style="fill:#e9f7ea"/><path d="M102.9,90.4c2.1,1.7,7.7,5.9,1.8,5.7,0-1.8-.5-4.5-2.3-5.3Z" style="fill:#a5d4d8"/><path d="M81.8,89.2c-4.9-.2-4.2-4.5-.1-2.8C80.7,87.4,83.7,88.5,81.8,89.2Z" style="fill:#507e87"/><path d="M82.3,87.6c1.8-3.5,5.2-5.7,8.8-6.9C87.4,82.2,85,85,82.3,87.6Z" style="fill:#a4b6bf"/><path d="M78,110.9c-.4-.7-.6-1.6-1.7-1.8l5.5-4.3-2-.3,7.2-4.2-1.4-.3c2.5-2.1,1.7.7,2.4,2.3,2.4.7,3.3,2,2.3,4.6s-5-.9-6.8.2c1.7.8,3.2,1.1,2.6,3.5.1.4,1.3.3.7,1.2C84.2,112.3,79.6,113.1,78,110.9Z" style="fill:#f9fdf1"/><path d="M105.4,96.4c2.7-2.1,2,.3-.1,1.2s-4.5,2.3-1.7,3.6c-.9,1.5-2.7.1-3.8.1-1.9,1.6-5.5,3.3-1.8,4.5-1.2,1.6-2.9.2-4.2-.1-1.5,1.7-2.9,2.7-.1,3.4-.1,2-2.1,1.3-3.5,1-1.8,2.9-.6,2.7,1.8,2.3,0,1.2-2.9,3.3-3.9,1.6-1.8-3.8,3-7.2,5-9.9a26.1,26.1,0,0,0,5.1-3.6c-.1-.6-1.1-.5-.8-1.3,2.8-1.3.6-2.9,1.2-4.6C103.2,98.2,99.1,99.3,105.4,96.4Z" style="fill:#d8f1ef"/><path d="M95.6,102.7c-2.1,3.6-5.7-.1-8.7-.3C89.7,101.4,92.8,103.2,95.6,102.7Z" style="fill:#1a3d48"/><path d="M95.6,102.7a3.3,3.3,0,0,1-2.4,0c2.6.3,2.9-2.9.6-3.8C96.5,98.2,99.4,101.3,95.6,102.7Z" style="fill:#acd5d3"/><path d="M96.6,102.1c2.2-2.6-2.1-2.8-3.9-3.7,2.6-.7,4,1.3,6.1,1.2C99.1,101.2,97.6,101.3,96.6,102.1Z" style="fill:#568a92"/><path d="M103.2,97.8l-2.6,1.6c1.1-2.9-2.1-3.3-1.9-5.5C99,96.5,103.6,95.3,103.2,97.8Z" style="fill:#7db2ba"/><path d="M103.2,97.8c-.6-2-3.3-1.3-4.2-3,2,1.2,4.2,1.3,6.4,1.6Z" style="fill:#203e47"/><path d="M62.6,106.3c.5-1.7.6-3.6,1.7-5.2a3.7,3.7,0,0,1-.5,2.9l2.3-1.7.3.4Z" style="fill:#9cf7f8"/><path d="M51,96c.5-1.6-.7-3.1.8-4.2,2.8,5.7,10.3,11.9,6.3,19C59,103.3,52.6,101.5,51,96Z" style="fill:#99f3f6"/><path d="M53.4,99.6c3.2,2.9,6.5,7.2,4.4,11.6C56.9,107.2,52.8,103.8,53.4,99.6Z" style="fill:#29a5c9"/><path d="M57.4,97.1c-1-2.3,0-4,1.9-6-.4,2.1-.8,3.7-1.1,5.3L57.5,95C56.8,95.7,57.6,96.5,57.4,97.1Z" style="fill:#9cf7f8"/><path d="M44.3,106.7c-.4-.2-.6-.8-1.2-.6-.3-6,.1-11.8,3.4-17,.4,7.6,2.2,3.3,4.2-.5-1.4,2.3.9,6.6-.6,7.8s-.8,1.3-1.4,1.8-2.1,3-2.6-.6c-1,1.2-.1,3.1-1.2,4.1S45.3,105.4,44.3,106.7Z" style="fill:#4f4950"/><path d="M49.1,96.7c-.1-3.4,5.7,3.2,4.5,4.8C51.6,100.7,49.1,99.1,49.1,96.7Z" style="fill:#335b78"/><path d="M57.4,110.7c-1.8,1.5-5.7-4.3-6.6-6.8C47.4,92.7,57.7,107.6,57.4,110.7Z" style="fill:#51cde6"/><path d="M57.4,110.7c-2.2-3.8-3.3-8.4-6.8-10.8-1.2,1.5.8,2.7.2,4-1.1-2.1-2.3-4.9-1.7-7.2,3.2,4.7,7.9,8.3,8.7,14.5Z" style="fill:#8ff4f9"/><path d="M48.8,97.3c1.1,4.3,0,9.2.3,13.8A25.9,25.9,0,0,1,48.8,97.3Z" style="fill:#7dadb8"/><path d="M52.4,122.3c-.2-2.4.3-3.8-.1-6.6C54,118.3,54.2,128.4,52.4,122.3Z" style="fill:#b8d3dd"/><path d="M52.4,122.3l.6,2.1a1.4,1.4,0,0,0,.8-1.5c.6,1.4.7,3.6-.4,4.8A19.1,19.1,0,0,1,52.4,122.3Z" style="fill:#7f9ca7"/><path d="M52.6,119.7l-.2,2.3c-1.2-4.3-2.7-7.8-3-12.4C50.7,113.2,50.2,117.3,52.6,119.7Z" style="fill:#7f9ca7"/><path d="M54.8,134.1a23,23,0,0,1-3.9-8C52.6,129.1,54.9,130.8,54.8,134.1Z" style="fill:#90b7c3"/><path d="M48.7,98.1l-.2,7.4-1.5-.4c-.3,3.5.6,6.7.9,10l-.9-4c-1.4.6-.9,1.6-1.1,2.3-2.1-5.3-1.8-12.1.4-17.6l.5,3.9,1.1-2.6Z" style="fill:#373b44"/><path d="M44.7,101.3c-.7,8.9,2.8,17.2,4.6,25.6C46.9,119,42.9,108.8,44.7,101.3Z" style="fill:#737e88"/><path d="M101.6,73.7c-3.2.2-6.3-1.1-9.1-.6a8.3,8.3,0,0,1,7.5-.7c-.2.2.6.5-.1.6S101.3,72.8,101.6,73.7Z" style="fill:#9cb9c0"/><path d="M98.8,76.7l-1.2-.8c.2-.3.8.2.8-.4a21.9,21.9,0,0,1,4.1,2.6c-2-3.1,4.2,2,5.1,3.2C105,81.2,101.7,77.9,98.8,76.7Z" style="fill:#c7e4e8"/><path d="M145,111.6c-8.9-1.9,1.9,2.9-9.9,1.9,5.1,13-9.1-6.8,5-.4.4-1-.1-1.8-.3-2.6S147.1,111.2,145,111.6Z" style="fill:#142637"/><path d="M137.2,112.1c-2.4-.2-3.7-1.8-5.9-2.9,2.3-1.7,7.2.5,8.2,3.1C138.7,112.2,138,111.5,137.2,112.1Z" style="fill:#659eaf"/><path d="M133.5,110.5c5.9,2.2-3.1,1.4,2.5,7.5.6-.9,1.3-.2.7.5s.9,1,.6,1.7c-4.3-4-7.8-1.6-12.9,1.7-1.1-.9-3.3.8-3.2,1.9h.2c-6.6,4.2,1.9-5.7,4-6.7-3.4.3-5.3,6.2-8.3,8.1-4.2.2-4.5,4.2-7.5,5a8.8,8.8,0,0,0-4.3,2.2c-2.4-1.8,3.6-3,4.7-4.4,3.2-4.2,9.6-8.3,10.5-12.8,15-6.3,5.9.5,13.2,1.5-3.4-2.3-3.7-4.9.6-5Z" style="fill:#2f4558"/><path d="M118.4,116.6c-3,3.9-6.2,10-12.1,9.5-1,.2-4-1.7-2.1-2-1.3-.8,2.7-4.2,2.3-6.1a6.5,6.5,0,0,1,2.2-3c.9,1.9-1,3.9.2,6s.1,1.3-.5,2.1c4.6-2.3,6.5-7.1,10-10.5C123.9,112.5,120.1,114,118.4,116.6Z" style="fill:#b1d7d4"/><path d="M130.7,103.5h1.2c-1,1.5-3.4,1.4-.5,2.7-.6.6-1.7,2-.3,2.3-1.2.8-.1,1.5.5,2.6a79.7,79.7,0,0,0-9.8-1.4C122.8,106.8,127.7,103.8,130.7,103.5Z" style="fill:#b6e3e1"/><path d="M118.4,116.6c.5-1.6,2.1-2.3,3-3.8l-1.5.8c-.4-1.3-.9-.3-1.5-.8.3-3.1,6.6-4.4,8.2-2C123.8,112.7,120.6,113.9,118.4,116.6Z" style="fill:#c4f2f0"/><path d="M123.4,112.6l3-2a6.8,6.8,0,0,0-5.4-.4c.7-1.7,8.2-.6,9.7,1Z" style="fill:#416679"/><path d="M115,120.9c1.7-1.7,4.4-5.5,6.9-4C119.1,117.4,117.5,122.7,115,120.9Z" style="fill:#638da2"/><path d="M147.9,101.5a98.1,98.1,0,0,0-10.8-.8,54.9,54.9,0,0,1,12.3-3.9C149.6,98,150.1,102.1,147.9,101.5Z" style="fill:#222737"/><path d="M142,101.5c3.5.9,7.2.9,10.3,3-3.5-.5-6.9-.6-10.4-1.4l1.7-.4C142.4,102.5,141.8,102.7,142,101.5Z" style="fill:#c3e2db"/><path d="M116.2,115.4c-2.6,4.4-4.7,6.9-9.7,8.8,3.5-.6,7.6-23.2,7.7-11.2,1.8-4.4,3.7-8.9,7.9-11.5s-2.8,4.4-2.5,5.9c.9-3.6,19.3-15.4,12.8-8.5,9.6-.7,10.1-.2.3,2.4C126.2,104.2,120.4,109.6,116.2,115.4Z" style="fill:#d6f1e9"/><path d="M116.2,115.4c3.7-6,8.8-11,15.7-13C126,106,120.3,109.5,116.2,115.4Z" style="fill:#153643"/><path d="M132.7,101.3c1.7-1.7,4.1-1.2,6-2s5.3-2.5,7.5-1.5A42.1,42.1,0,0,1,132.7,101.3Z" style="fill:#a9c7c4"/><path d="M156.2,64.1c5.7-.4,5.8,7.6.7,7.2S151.9,64,156.2,64.1Z" style="fill:#f9eeb5"/><path d="M132.9,58.9l9.3,1.3c-.6,1.7-2.2,1.3-3.5,1.5.4,2.1,3.5,3.2,1.9,6.2-1.6-2.3-2.5-2.4-4.3-3a16.8,16.8,0,0,0-9.3-6.1C128.7,58.3,131.3,58,132.9,58.9Z" style="fill:#2a212c"/><path d="M150.5,102.3c-2.1-8-1.4-19.8-8.4-25.9a2.3,2.3,0,0,1-1.4-3.5C147.3,77.4,154.7,94.6,150.5,102.3Z" style="fill:#3a3644"/><path d="M147.6,79.3c4.5,7.3,5.8,15.5,5.5,24-3.8-2.7-.3-10.5-3-14.8C150.1,85.5,145.9,81.2,147.6,79.3Z" style="fill:#392c33"/><path d="M141.9,73.1c-2.4.1-5.3-3.6-7.3-5.3,1-1.3,2.9,1.5,3.4,1.9-2.2-1.9-4.4-4.3-5-7.4-.2-.2-.6-.7.2-.8C137.5,64.1,139.2,69.1,141.9,73.1Z" style="fill:#f5f5ee"/><path d="M146.9,79.5c4.1,7.4,4.8,15.3,5.2,23.4l-1.6-.6c3.3-10.3-3.3-21.2-8.7-30.2C144.2,74.6,145.3,77.3,146.9,79.5Z" style="fill:#7c6c75"/><path d="M142.1,76.3l-.3-1.4c6.7,8.2,8.2,17.6,8.6,27.4l-2.5-.8C151.9,95,145,83.3,142.1,76.3Z" style="fill:#6c7081"/><path d="M133.5,97a33.2,33.2,0,0,0-14.4,11.9c0-2,.4-2.7,4.3-7.7-5.7,2.8-6.8,8.2-9.6,13.1a9.9,9.9,0,0,1,.5-5.3c-3.3,3.7-1.9,9-5.6,12.1-1.1-2-.7-3.9.1-5.9-3.8,8.8-10.6,11.8-8.7-.6-1.8-1,.8-4.2,1.9-5.3-3.1,2.1-1.5,7.2-5.1,4.7l1.5-3.8c-2.3,2.4-3.9,4.2-5.5,6-.5-.7.2-1.1.2-1.6-2,2.6-9.2,13.7-8.6,4.1-1.7,3.6-1.1,7.2-1.7,10.1.6-7.3-6.6,1-9.2-1.5,4.1-1.9,10.2-2.7,9.7-8.4-2.8.1-5.6,1.3-8.3,1.1,3-2.1,6.8-1.8,10.1-2.9.5,1,.3,2.1,1.3,3.1,5.2-6.7,10.7-13.1,18.1-17.2-1.6-.1-4.8.1-4.9-1.9,2.9.8,5.5-.4,8.3-1.2.9-.4,4.3-1.8,1.6-1.9-11.8-1.9,8.9,1.5,15.7-19-3.5,2.3.8-4.7.6-6.4s-1.2-3.5.4-4.1c1.8,3.3,4.8,8.7,3,12.5-.8-.9-.9-2.1-1.5-3.1.8,7-1.8,12.6-7.7,16.3a28.7,28.7,0,0,0,10.8-15.3c1.6,4.7-2.5,10.2-3.1,15.1,2.1-3.1,4.3-6.3,4.6-10.1-2,2.6-.4-8.4-.7-9.8.2-6.2,6.1,12.5,5,14.6.2-.7.2-2.2,1.3-1.5,1.1-2.1,2.1,2.5,1.5,3.8,2.2,2.7-4.3,5.9-6.1,4C132.5,95.4,134.5,96.4,133.5,97Z" style="fill:#171e2d"/><path d="M133.5,97c-.3-.8-1.8-1.7-.4-2.6,1.6.9,3.3,1.4,4.6-.8,2,.2,2.3-1.3,1.1-2.5.9-1.4.1-2.8-.3-4.4-2.5,5.8.7-15-6.7-19.9,10.7,3.3,16.1,18.8,17.4,29.9-6.2,1-12.6.8-18.3,3.4,1-1.6,2.3-2.3,3.7-3.3Z" style="fill:#23222e"/><path d="M117.6,60.4l2.5-2c-7-5.3,9.2.6,8.4,5.1-1.6,1.6.4,3,.4,4.6s-1.8-2.2-3.2-2.1.4,2.2-.9,2.4C123.7,61.8,120.2,63.8,117.6,60.4Z" style="fill:#b7d9d7"/><path d="M125.6,65.4c1.8.6,1.9,2.6,3.5,3.4a3.3,3.3,0,0,1,1.4-2c.7,1.3,1.5,8.3-.4,6.5C131.7,85.4,125.8,68.9,125.6,65.4Z" style="fill:#7795a1"/><path d="M129.5,78.1c1-1.7.1-3.5.5-5.3l.3,1.5,1-4.3a24.9,24.9,0,0,1-.3,10.9l-.3-1.8c-.7,1.1-2.4,8.5-3.2,5.3-.2.7.6,2.2-.6,2.4V75.9c1.7,1.8,1.7,3.4,2.6,5.2Z" style="fill:#63666b"/><path d="M134.7,67.7c-2.9-1.5-3.9-4.9-5.9-7.5,3.3-2.2,6.4,7.8,10.1,10.3C137.3,69.4,136.4,67.9,134.7,67.7Z" style="fill:#758d99"/><path d="M134.9,80.7c-.6-1.6-3.3-10.7-.6-7.3,2.1-3.2,3.6,10.6,2.1,11.8C135.9,83.6,135.9,81.9,134.9,80.7Z" style="fill:#9cabaa"/><path d="M121.6,55.1c12.5.5,8.5,7.2-.6.4Z" style="fill:#719ba9"/><path d="M130.5,66.8c-.2,1-1.5,1.7-1.3,3.1-.7-2.1-3-5.2-.7-7.1A10.8,10.8,0,0,1,130.5,66.8Z" style="fill:#92b2bd"/><path d="M126.9,58.7c.6-.6,3.5-.6,2.4-2a31.2,31.2,0,0,1,8,2.4C133.5,58.3,130.3,59.3,126.9,58.7Z" style="fill:#aac2c3"/><path d="M118.7,56c-1,1.4,2.6,1.2-1.7,3.2l-1.7-3.3Z" style="fill:#8cb6ba"/><path d="M134.9,72.5l-.3,1.7c-1.9-1.6-2.6-3.3-1.3-5.8C133.9,69.6,135.5,71.1,134.9,72.5Z" style="fill:#6e777c"/><path d="M117.6,60.4c1,1,7.6,3.4,4.9,4.2-2-.9-3.9-2.2-6.2-1.4,0,3.4,4.2,1.7,4.7,4.2C109.8,69.5,106.1,66.5,117.6,60.4Z" style="fill:#121c2f"/><path d="M125.9,69.4c.2,1.1.7,2.2.3,3.4l-.4-.4c-3.9,14.5-3.2-2.8-8.4-4C121.5,67.8,119.7,73.3,125.9,69.4Z" style="fill:#628ca0"/><path d="M118.4,67.6l2.5-.4c-1.8-1.5-4.7-.9-5.4-4.3,3.2-1.5,5.3,1.3,7.9,1.2,2.8,3.5.2,1.7-1.9,1.2C122.2,68.4,120.9,67.6,118.4,67.6Z" style="fill:#2e4255"/><path d="M125.9,69.4c-2.4,3.5-6.1,1.1-7.5-1.4,3.1-.5,7.1,3.3,6.8-2.1C125.4,64.1,126.9,68.7,125.9,69.4Z" style="fill:#23394d"/><path d="M125,68.4c-2,2.2-4.4-1.6-4.1-3.6A3.6,3.6,0,0,1,125,68.4Z" style="fill:#55798a"/><path d="M120.8,72.4c.3.6,2.3,2.5.5,2.5-.4,2-.9,4-1.2,6.1-1.9,4.2-3.8,7.6-8.6,5.2-.7-2.2,5.7,1.3,6.2-3.5-1-.4-3.8.5-3.3-1.3s3.3.3,4.4-1.1c.4-4.1,2.7-3.9-1.4-4.6C120.3,73.4,119.6,76,120.8,72.4Z" style="fill:#17303a"/><path d="M117.4,75.7c4.5-1.2,2.3,2.3,1.6,5-1.7-1.1-2.7-3.2-3.9-4.4s1.5-1.4,1.3.2Z" style="fill:#37637b"/><path d="M116.3,75.6c-1.2-.2-1.9-2.5-1.1-3.8,1.9.6,2.7,1.8,4.6-.2C120.2,73.1,119.2,74.3,116.3,75.6Z" style="fill:#1c3d5c"/><path d="M101.6,73.7l-3-.7c.9-.1,1.4.2,1.4-.6,4.6,1.4,9.7,1.1,13.8,4.1Z" style="fill:#d1e8ea"/><path d="M108.1,73.9c-1.2,1.4-4.5-.9-6.3-1C103.4,71.9,107.3,72.5,108.1,73.9Z" style="fill:#4b6b78"/><path d="M120.6,147.4c4.7-2-1.2-3.3-3.5-3.9l1.8-3,.4.3-1.5,2.4c6.8,1,9.1,1.6,15.1-3.8-2.2,2.3-2.4,1.4-2.3-.8,2.2-2.8,4.7-5.6,5.7-9.5s1.5,3.6.1,4.7C143.8,118.8,137.7,149.1,120.6,147.4Z" style="fill:#2d6b85"/><path d="M137.6,137.2c0-2.6,1.3-4.8,1.6-7.5-1.9.7-1.4,4.3-4.1,5.8,4.5-6-.8-10.5,4.7-9,.9-.1,0-1,.7-1.3A22.7,22.7,0,0,1,137.6,137.2Z" style="fill:#284d65"/><path d="M120.6,147.4c5.3-.4,9.6-3.5,13.9-6.3.1.6.5,1.5-.6,1.8-5.1,1.5-9.3,6.1-15.6,5Z" style="fill:#6feaf3"/><path d="M139.8,126.5v.5l-2.3-.6c-.9,9.1-10.7,15.3-18.5,15.6,4.1-4.2,11.8-4,13.9-10.4-2.4-.4-3,2.6-5,2.4s-1.4-2,.7-2.7c-5.1.2-8.3,4-13.5,3.8s3.3-1.7,2.8-3.1c-11.8,5.4-4-2.7,0-4.1.5.9-2.3,2.2-.3,2s3.4-3.1,4.9-4.9C126.9,117.9,138.7,116.2,139.8,126.5Z" style="fill:#191c2a"/><path d="M117.6,129.9l-2.2.5,2.5-2.4c-.7.1-5.3,4.2-6.4,5.9l7.3-2.9c-.1,2.8-2.7,2.6-5.2,3.6a39.3,39.3,0,0,0,5.2-.4c-1.7,2.5-6.6,2.7-8.9,5.2-12.7-1.3-9.3-6,1.3-6.9,3.5-4.4-.9-3.7,4.3-6.7a1.4,1.4,0,0,1,2.2,0c1.2.3,2.2-1.2,3.5-.5l-2.3,1.5,2.1-.3c-.8,1.8-2.3,2.4-3.9,3.2Z" style="fill:#252e3c"/><path d="M121.2,125.3c-9.4,4,.5-6.1,2.6-7.8l-.5-.8c1.1-.1,2.1-.4,3.3.4-3.3,2.3-5.9,4.3-7.7,8.1a10.6,10.6,0,0,1,4.7-1.7Z" style="fill:#191c2a"/><path d="M121.4,123.5l-1.4.3a7.7,7.7,0,0,1,4.7-2.9C124.4,122.6,122.6,122.6,121.4,123.5Z" style="fill:#191c2a"/><path d="M117,135.6a16.4,16.4,0,0,1,7.6-3.4c.1,1.3,1.5,1.3,2.1,2.3-5.3.2-8.8,5-13.1,7.3-3,.1-4.7,2.6-6.7,4.8-.6-4.9,7.2-8.2,11.2-10.2Z" style="fill:#8eb6bb"/><path d="M119.6,142.6c4.5-2.2,10-5.2,14.2-6.5-3.8,3-9.7,8-14.4,6.9Z" style="fill:#5d9dac"/><path d="M113.5,141.8a22.3,22.3,0,0,1,7.7-5.2c-2.5,1.2-4.5,6.8-7.8,5.3Z" style="fill:#3b5c6e"/><path d="M107.3,146c.9-.9,3.7-5.2,3.1-2,1.9.6-1.3,3.2-1.8,4.7C108,147.8,108.6,146.4,107.3,146Z" style="fill:#36566c"/><path d="M116.4,137.2c-3.1,2-9.2,4.4-9.5,9.4C102.9,151.4,110.6,136.6,116.4,137.2Z" style="fill:#2f7591"/><path d="M111.3,144.4c-2.5,1.6-1.5-4.1,2.2-2.6C113.1,142.8,112,143.5,111.3,144.4Z" style="fill:#568295"/><path d="M84.5,121.1c2.3,3.8,3.2-1.9,5.2-2.9l.2.3c6.8-9.1,1.9-1.4-.7,3.7-.8,0-.5-.7-.9-1-1.7,2.1-4.9,3.2-4.1,6.9A15,15,0,0,1,84.5,121.1Z" style="fill:#427289"/><path d="M107.7,129.9c-1.1,1.4-6.3,2.2-3.1-.2-5,.4-8.2-7.8-6.6-11.1,1.8,1.9-.4,5.6,2.8,6.9S104.8,129.1,107.7,129.9Z" style="fill:#3e5768"/><path d="M98.6,121.8c-1.1-1.7,0-9,.2-4.6,1.1-2.1,1.1,6.2,3.2,7.1C103,127.2,98.6,122.2,98.6,121.8Z" style="fill:#80a3ab"/><path d="M99.2,116.6l-.3,1.6c-1.2-4.1,1-7.5,4.3-10.3C100.4,110.6,100.3,113.4,99.2,116.6Z" style="fill:#536e7b"/><path d="M74.4,128.3c9.8-3.6,7.4,3.4.5,6.6C74.7,132.5,74.6,130.4,74.4,128.3Z" style="fill:#7bb1b5"/><path d="M117,125.1c-4.5,2.6-6.1,8.7-12,8.7-.2-.8.6-.5.9-.8-2.3-2.4,4.2-2.8,6.1-4C108.7,127.9,116,125.1,117,125.1Z" style="fill:#3e5768"/><path d="M105.9,133c-1,1.1-2.4,1.5-3.7,2.1-1.4-2.6-6.1,2.7-6.6-3.2C99.1,132.7,102.4,133.7,105.9,133Z" style="fill:#83a7aa"/><path d="M82.9,122.8c-4.2,3.2-10.1,5.3-7.9-2.6C82,117.9,79.1,122.7,82.9,122.8Z" style="fill:#cce8df"/><path d="M85.1,117.2h-.4a7.4,7.4,0,0,1,1.2-3.9c-1.4-1-10.1.2-7.1-1.3,6.8.7,15-2.8,3.3-5.1,3.5-.8,6.5.5,9.2-.4-2.9,2.2-5.5,10.7.3,6.5.4,1.8-3.4,4.2-4.4.8C86,113.6,86.3,116.7,85.1,117.2Z" style="fill:#284650"/><path d="M82.9,122.8l-1.9.9c-.1-4.4-3.1-3.8-6-3.5C77.6,119.3,85.5,117.2,82.9,122.8Z" style="fill:#82b7bf"/><path d="M78.2,112.9c4.7-2.4,11,3.4,3.9,4.3C83.4,113.2,80.4,113.4,78.2,112.9Z" style="fill:#b6dbd3"/><path d="M116.2,85.4c-2.5,1.5-4.7.1-6.9-1.1,3-2.2,4.6-5.2,4.9.4C114.8,85.4,115.9,84.3,116.2,85.4Z" style="fill:#e4f7ef"/><path d="M118,81.2c-9.1,3-2.5-8.8-1.3-1.3C117.1,80.3,118.9,80.5,118,81.2Z" style="fill:#b8d5cd"/><path d="M113.9,81.3c1.3,1,4.9,2.2,2.3,4.1S112.6,83.2,113.9,81.3Z" style="fill:#acd3cd"/><path d="M110.5,84.7c1.7,2.4,7,1.2,3,4.9-.3.4-.7.5-1,.2a6,6,0,0,0-2.6-4.6C110,84.9,110.6,85.3,110.5,84.7Z" style="fill:#87bac0"/><path d="M118,81.2c-.4-.9-1.5-.4-2.1-1.1,1.6-1.2-1.9-2.5-.3-3.6s.4,2.2,1.9,1.8,1,1.6,1.5,2.4Z" style="fill:#69929f"/><path d="M96,79.7c-.6-.2-1.4.1-2-.9,1.6.2,3.5,1.7,4.6.9L96,77.9c1.8-.8,3.4,2.3,4.4,4.4C99.1,80.4,97.4,80.4,96,79.7Z" style="fill:#99b8c5"/><path d="M103.9,77.9l-1.9-.6,1.9,1.6c-1.4-.9-3.3-1.1-4.1-2.7C101.1,76.7,103.5,76.3,103.9,77.9Z" style="fill:#7fa2a4"/><path d="M81.7,86.4c-1-.2-2.7.6-3.3,0,5.4-1.6,7.9-7.4,12.6-9.5C87.9,80.3,83.7,82.2,81.7,86.4Z" style="fill:#a7bec8"/><path d="M110.1,96.3c-2,.9-4.2-.4-2.9-2.5,2.3.3,3-2.5,4.9-2.9,1,1.7-2.6,2.9-3.1,4.4S110.2,95.5,110.1,96.3Z" style="fill:#def5f7"/><path d="M111.7,91.4l-2.5,1.8c2.1-2.4-2-3-2.3-5C108,90,111.5,89.2,111.7,91.4Z" style="fill:#74a2a6"/><path d="M111.7,91.4c-.8-1.6-2.8-1.2-3.8-2.4,2.7,1.1,5.5,1.3,6.9-1.5-.3-1.2-1.6-.6-2.1-1.3,1.4,0,4.1.7,2,2.4s2.5,4.8-.7,5.8C112.3,94.2,112.9,90.1,111.7,91.4Z" style="fill:#36525c"/><path d="M83.1,107.2c3.9-1.8,8.5,4.9,2.1,3.9C87.1,108.6,84.8,108.3,83.1,107.2Z" style="fill:#bbe2db"/><path d="M91.3,106.5l-1,.3c.2-1.8,0-3.8-2.2-4.1C90.9,102.7,95.4,104.2,91.3,106.5Z" style="fill:#a4dada"/><path d="M87.3,113.6c1.5,2.7,3.7,1.6,4.6-1.1-3.8,2-3.4-.6-1.8-3.4.5,1,2.7,1.7,3.3,0l-2.4-.2a9.3,9.3,0,0,1,2.6-3.4c1,1.7,3.8.9,4.6,2.5-4.5,3.3-7.7,8.1-11.8,11.7C84.4,118.6,85.9,114.5,87.3,113.6Z" style="fill:#6594a2"/><path d="M101.6,105.1c-1.4.9-2.9,2.1-4.6.9l.8-.3C91.5,105.5,101.3,98.2,101.6,105.1Z" style="fill:#729aa9"/><path d="M108.1,100.1a13.9,13.9,0,0,1-5.3,1.4l.5-.3c-5-.2,4.9-7.2,4-1.8C107.5,99.7,108.2,99.5,108.1,100.1Z" style="fill:#6997a5"/><path d="M108.1,100.1c-3.4,0,1-2.2-3-2.8,1.9-.9,4.3.6,6.5.7A5.9,5.9,0,0,1,108.1,100.1Z" style="fill:#395f76"/><path d="M101.6,105.1c-.6-1.5-2-2.3-2.8-3.4l.8-.6c1.5,2,3.8,1.2,6.6,1.6Z" style="fill:#3e6377"/><path d="M97,106c2.3-.4,3.8.6,1.2,2-.3-.6-.6.2-.8,0s-5.2-.5-3.3-3.3A2.1,2.1,0,0,0,97,106Z" style="fill:#324a5a"/><path d="M107.7,129.9c-2.1,1.1-8.9-3.8-5.2-3.8s-1-1.4-.6-2.9c1.1.6,2.3-1.3,3,0l-1.4.8,2.9-.5-2.6,1c1.6,1.9,4.2,1.7,8.1-.6C113.4,125.9,109.3,128.6,107.7,129.9Z" style="fill:#69929f"/><path d="M110.1,128.3c-.5-.1-1.6.2-1.7-.3,4.2-.4,3.1-8.2,8.4-6.9A38.2,38.2,0,0,1,110.1,128.3Z" style="fill:#91c4d2"/><path d="M104.6,122.7a2.7,2.7,0,0,1-3,.7l3.1,2.5c-2.4,1.4-6.8-1.7-5.7-4.5,1,1.4,1.6,2.8,3.7,4.2-3.9-4.1-4.4-8.2-2-12.6-2.4,7.1,1.6,14.5,6,5.2C106.8,120.1,105.5,121.3,104.6,122.7Z" style="fill:#cfeef2"/><path d="M133.1,99.1A33.7,33.7,0,0,1,148.5,97C144,98.4,137.2,99.7,133.1,99.1Z" style="fill:#f3faf8"/><path d="M155.3,66.5c1.8-1.6,5.5.2,3.5,2.5S153.5,68.8,155.3,66.5Z" style="fill:#fafde7"/><path d="M133.9,64.6c-2.3-1.2-1-3.3-3.3-4.5C132.4,60.5,134.7,62.5,133.9,64.6Z" style="fill:#bccbcd"/><path d="M131,80.9c.1-2.6.3-5.1.5-7.9,1.4,8.4.7,16.3-4.8,23.1Z" style="fill:#a9aaaa"/><path d="M119.8,89a17.4,17.4,0,0,1-3.7,3C110.8,88.6,123.1,78.7,119.8,89Z" style="fill:#669aaa"/><path d="M119.3,82.1c.5-1.3,1.2-8.7,2.1-6s-.7,4.1,3.5,4.4C123.7,84.7,120,90.2,119.3,82.1Z" style="fill:#7aa6b1"/><path d="M108.5,109.2c.5-4.1,3.3-6.8,6.2-9.4v.6c1.5-1.3,2.7-3,4.7-4A97.4,97.4,0,0,1,108.5,109.2Z" style="fill:#647f87"/><path d="M125,80.9c-.8.1-1.4.7-2.3-.7-3.8,1.6-.8-4.3-2.1-6.3,2.4,1,1.8,3.8,3.4,5.4C126,77.2,126.2,79,125,80.9Z" style="fill:#456979"/><path d="M112.1,91l1-.8c-.8,2,.2,4.5,1.9,3.7-2,1.5-4.2,3.3-6.8,1.8C109.2,93.8,111.3,92.9,112.1,91Z" style="fill:#6ba2af"/><path d="M103.6,108.3c1.3-5.1,7.9-5.8,10.8-9.7-2.4,3.7-7,4.8-9.8,8.2,2,.6,3.1-2.8,4.5-2.3C107.2,105.5,103.5,114.2,103.6,108.3Z" style="fill:#435865"/><path d="M126.9,86.8c.2-1.1.4-2.3.6-3.2v1.8c1.7-2,1.6-4.8,3.1-6.3-.9,7.2-6,11.3-11,15.5A88.7,88.7,0,0,0,126.9,86.8Z" style="fill:#d2b799"/><path d="M119.3,82.1c.9,2.5-8.9,9.4-1.9,9.1C109.5,96.3,117,84.4,119.3,82.1Z" style="fill:#bde1e7"/><path d="M104.3,110.2c1-1.2,1.5-2.7,2.9-3.5-2.1,3.4-4.1,6.9-3.9,11.2-1.2-1.3-1.3-5.3-.3-8.2,1.5,0-.1,2.9,0,3.4A5.2,5.2,0,0,1,104.3,110.2Z" style="fill:#b7d4d9"/><path d="M126.1,89.8l.7-1.5c.2,2.8-5,10.7-8.1,12.3.9-1,1.8-5.5,2.9-4C123.4,94.6,124.4,92,126.1,89.8Z" style="fill:#cdd5cf"/><path d="M87.3,113.6c-.9,1.8-2,3.6-.9,6.1,6.1-6.9,3.3-3-.2,1.4-2.1-3.1-.8-6.2,1.6-9.1Z" style="fill:#c9e7ed"/><path d="M126.1,89.8c-1.4,2.8-2.6,5.7-4.9,7.9C120.3,94.2,124.3,92.1,126.1,89.8Z" style="fill:#9ba5a0"/><path d="M108.5,109.2c3.2-3.4,6.2-7.8,9.6-10.6-3.1,4.8-7.1,7.2-10,12.6Z" style="fill:#c6d9de"/><path d="M124,79.3l-.5.5-.6-2.1c2.7-.5,1.2-4.4,3.2-6.2C126.5,74.4,124.9,76.7,124,79.3Z" style="fill:#97bac5"/><path d="M128.5,93.4c1-3.9,3.9-7.2,3.8-11.5C132.8,86.3,131,89.9,128.5,93.4Z" style="fill:#f0f1ee"/><path d="M118.2,84.8l1.2-2.5c.6,2.6,2.9,4.5.4,6.7-.1-.7-.5.2-.7,0S120.3,83.4,118.2,84.8Z" style="fill:#3a6474"/><path d="M134.9,80.7l.2-1.2c.6,2.1,1.1,3.7,1.5,5.2V84c1.2,1.6.2,4.3-.2,6.2C137.1,86.8,135.7,83.8,134.9,80.7Z" style="fill:#c4d1d1"/><path d="M104.3,110.2a18.6,18.6,0,0,0-1.5,5.1c-.7-1.8.8-4.2.2-5.6C104.2,106.8,103.7,109.3,104.3,110.2Z" style="fill:#6b949b"/><path d="M83.4,120.8c-.6-2.7-4.3-.9-6.2-1.2l6.8-1.3Z" style="fill:#4b7984"/><path d="M137.3,86.4c-1.4-5.5-1-11.7-3.4-17.2C137.9,74.3,138.2,80.3,137.3,86.4Z" style="fill:#f7f0e3"/><path d="M116.8,85c-.1-1.2-.3-2.5-1.9-2.7l3.8-.2C118,83.3,117.4,84.1,116.8,85Z" style="fill:#587981"/><path d="M120.2,143.6c2.6-.5,12-7.8,10.5-2.9C128.5,143.4,123.5,145.4,120.2,143.6Z" style="fill:#224257"/><path d="M123,144.2c4.2-.6,7.8-3.3,11-6C131.5,141.3,127,145.2,123,144.2Z" style="fill:#66c0ce"/><path d="M106.5,133.6a14,14,0,0,0,6.2-5.1l1.5,1.1C111.4,132.1,110.8,134.5,106.5,133.6Z" style="fill:#2f4558"/><path d="M98.8,122.1c.9,3.2,3.8,3.1,5.8,4.7-3.1-.4-6.7-1.2-6-5Z" style="fill:#1b2f47"/><path d="M85,116.4c0-5.3-4-3.1-6.6-3.6,2.7-1.4,5.5.3,8.1-.1Z" style="fill:#77a5aa"/></svg>