<svg id="Livello_1" data-name="Livello 1" xmlns="http://www.w3.org/2000/svg" width="200" height="200" viewBox="0 0 200 200"><defs><style>.cls-1{fill:#2f692d;}.cls-2{fill:#3d8032;}.cls-3{fill:#cddecd;}.cls-4{fill:#86c383;}</style></defs><circle class="cls-1" cx="100.01595" cy="100.07022" r="76.51155"/><ellipse class="cls-2" cx="103.04966" cy="99.92978" rx="73.47784" ry="76.51155"/><ellipse class="cls-3" cx="104.65286" cy="99.92978" rx="63.46422" ry="64.89472"/><ellipse class="cls-4" cx="104.7396" cy="99.92978" rx="42.34377" ry="43.68753"/><g id="MultiverseX"><polygon class="cls-3" points="58.129 87.97 62.519 73.833 102.158 81.473 137.127 59.285 145.928 70.502 110.962 99.164 154.07 112.254 149.88 126.474 109.679 118.473 76.123 140.855 66.14 129.052 100.577 101.249 58.129 87.97"/></g><ellipse class="cls-3" cx="76.70135" cy="99.92978" rx="1.56628" ry="2.25281"/><ellipse class="cls-3" cx="111.35303" cy="126.09832" rx="1.56628" ry="2.25281"/><ellipse class="cls-3" cx="70.68563" cy="110.99719" rx="1.56628" ry="2.25281"/><ellipse class="cls-3" cx="94.21997" cy="69.79278" rx="2.25281" ry="1.56628" transform="translate(-8.90893 125.58584) rotate(-64.94247)"/><ellipse class="cls-3" cx="138.1948" cy="92.58973" rx="2.25281" ry="1.56628" transform="translate(-4.21004 178.56369) rotate(-64.94247)"/><ellipse class="cls-3" cx="102.94285" cy="75.8118" rx="1.56628" ry="2.25281" transform="matrix(0.86603, -0.5, 0.5, 0.86603, -24.11418, 61.62828)"/><ellipse class="cls-3" cx="85.15976" cy="104.5309" rx="1.56628" ry="2.25281" transform="translate(-40.85621 56.58436) rotate(-30)"/><ellipse class="cls-3" cx="104.81286" cy="132.94888" rx="1.56628" ry="2.25281" transform="translate(-52.43218 70.2182) rotate(-30)"/><ellipse class="cls-3" cx="120.4856" cy="127.45225" rx="1.56628" ry="2.25281" transform="translate(-47.58412 77.31816) rotate(-30)"/><ellipse class="cls-3" cx="130.05863" cy="97.96736" rx="1.56628" ry="2.25281" transform="translate(-31.55913 78.15445) rotate(-30)"/><ellipse class="cls-3" cx="104.81286" cy="63.67697" rx="1.56628" ry="2.25281" transform="matrix(0.86603, -0.5, 0.5, 0.86603, -17.79623, 60.93753)"/></svg>