<svg width="200" height="200" viewBox="0 0 200 200" fill="none" xmlns="http://www.w3.org/2000/svg">
<g clip-path="url(#clip0_3744_76996)">
<path fill-rule="evenodd" clip-rule="evenodd" d="M175.13 165.998C190.612 148.388 200 125.29 200 100C200 44.7716 155.228 0 100 0C44.7716 0 0 44.7716 0 100C0 155.228 44.7716 200 100 200C109.074 200 117.865 198.792 126.222 196.527C111.011 191.652 100 177.393 100 160.563C100 139.709 116.905 122.804 137.759 122.804C158.613 122.804 175.518 139.709 175.518 160.563C175.518 162.409 175.386 164.223 175.13 165.998Z" fill="#627EEA"/>
<mask id="mask0_3744_76996" style="mask-type:alpha" maskUnits="userSpaceOnUse" x="0" y="0" width="200" height="200">
<path fill-rule="evenodd" clip-rule="evenodd" d="M175.13 165.998C190.612 148.388 200 125.29 200 100C200 44.7716 155.228 0 100 0C44.7716 0 0 44.7716 0 100C0 155.228 44.7716 200 100 200C109.074 200 117.865 198.792 126.222 196.527C111.011 191.652 100 177.393 100 160.563C100 139.709 116.905 122.804 137.759 122.804C158.613 122.804 175.518 139.709 175.518 160.563C175.518 162.409 175.386 164.223 175.13 165.998Z" fill="#627EEA"/>
</mask>
<g mask="url(#mask0_3744_76996)">
<path d="M99.5 35V83.0409L139.977 101.189L99.5 35Z" fill="white" fill-opacity="0.6"/>
<path d="M99.5006 35L59 101.189L99.5006 83.0409V35Z" fill="white"/>
<path d="M99.5 132.329V164.977L140.001 108.744L99.5 132.329Z" fill="#C0CBF7"/>
<path d="M99.5006 164.976V132.329L59 108.768L99.5006 165V164.976Z" fill="white"/>
<path opacity="0.2" d="M99.5 124.75L139.977 101.165L99.5 83.041V124.75Z" fill="white"/>
<path opacity="0.6" d="M59.0234 101.189L99.524 124.774V83.0645L59.0234 101.189Z" fill="white"/>
</g>
<path d="M166.684 160.592C166.684 176.634 153.732 189.595 137.681 189.595C121.629 189.595 108.688 176.634 108.688 160.592C108.688 153.603 111.155 147.325 115.163 142.29C115.469 141.876 115.775 141.471 116.19 141.155C121.54 135.291 129.142 131.589 137.681 131.589C143.288 131.589 148.51 133.169 152.942 135.913C156.684 138.223 159.852 141.372 162.202 145.084C165.045 149.576 166.684 154.886 166.684 160.592Z" fill="#606060"/>
<path d="M166.684 160.592C166.684 176.634 153.732 189.595 137.681 189.595C121.629 189.595 108.688 176.634 108.688 160.592C108.688 153.603 111.155 147.325 115.163 142.29C115.469 141.876 115.775 141.471 116.19 141.155C121.54 135.291 129.142 131.589 137.681 131.589C143.288 131.589 148.51 133.169 152.942 135.913C156.684 138.223 159.852 141.372 162.202 145.084C165.045 149.576 166.684 154.886 166.684 160.592Z" fill="#28374F"/>
<path d="M137.691 142.774L127.188 160.02L137.691 166.14V142.774Z" fill="#FCFCFD"/>
<path d="M137.691 169.526V178.411L126.98 163.277L137.691 169.526Z" fill="#FCFCFD"/>
<path d="M127.188 160.02L137.691 155.212V166.14L127.188 160.02Z" fill="#FCFCFD"/>
<path d="M137.691 142.774L148.195 160.02L137.691 166.14V142.774Z" fill="#FCFCFD"/>
<path d="M148.392 163.277L137.691 178.411V169.526L148.392 163.277Z" fill="#FCFCFD"/>
<path d="M148.195 160.02L137.691 155.212V166.14L148.195 160.02Z" fill="#FCFCFD"/>
</g>
<defs>
<clipPath id="clip0_3744_76996">
<rect width="200" height="200" fill="white"/>
</clipPath>
</defs>
</svg>
