<svg xmlns="http://www.w3.org/2000/svg" data-name="Layer 4" class="icon" fill="url(#lgrad)" viewBox="0 0 24 24" x="0px" y="0px">
	<defs>
   		<linearGradient id="lgrad" x1="0%" y1="0%" x2="100%" y2="100%" gradientUnits="userSpaceOnUse">
          <stop offset="0%" style="stop-color:rgb(0,176,238);stop-opacity:1.00" />
          <stop offset="100%" style="stop-color:rgb(196,35,198);stop-opacity:1.00" />
    	</linearGradient>
  	</defs>
	<g>
		<path d="M12,22A10,10,0,1,1,22,12,10.011,10.011,0,0,1,12,22ZM12,4a8,8,0,1,0,8,8A8.009,8.009,0,0,0,12,4Z"></path>
		<path d="M15.439,21.31a1,1,0,0,1-.554-.168,11,11,0,0,1,0-18.284A1,1,0,0,1,16,4.522a9,9,0,0,0,0,14.956,1,1,0,0,1-.557,1.832Z"></path>
		<path d="M11.05,13.95a1,1,0,0,1-.707-1.707l7.31-7.31a1,1,0,0,1,1.414,1.414l-7.31,7.31A.993.993,0,0,1,11.05,13.95Z"></path>
		<path d="M11.89,17.11a1,1,0,0,1-.707-1.707l8.15-8.15a1,1,0,1,1,1.414,1.414l-8.15,8.15A1,1,0,0,1,11.89,17.11Z"></path>
		<path d="M13.45,19.55a1,1,0,0,1-.707-1.707l7.5-7.5a1,1,0,0,1,1.414,1.414l-7.5,7.5A1,1,0,0,1,13.45,19.55Z"></path>
	</g>
</svg>