<svg width="32" height="32" viewBox="0 0 32 32" fill="none" xmlns="http://www.w3.org/2000/svg">
<rect width="32" height="32" rx="16" fill="black"/>
<rect x="2.4375" y="2.4375" width="27.125" height="27.125" rx="13.5625" fill="#22F6DD"/>
<path d="M9.07861 19.3337L15.2666 16.0155L9.08492 12.6973C9.40415 12.0785 9.69561 11.4812 10.0283 10.9037C10.0723 10.8283 10.3476 10.8221 10.4767 10.8741C12.1995 11.5539 13.9115 12.2596 15.6361 12.9367C15.8682 13.0188 16.1214 13.0188 16.3535 12.9367C18.0924 12.2588 19.8224 11.5565 21.555 10.8526C21.763 10.7674 21.9137 10.7288 22.0312 10.9709C22.3092 11.5305 22.6007 12.0838 22.9172 12.6973L16.7338 16.0155L22.9217 19.3337C22.6025 19.9479 22.3083 20.5461 21.9729 21.1192C21.929 21.1936 21.6501 21.1927 21.5137 21.1398C20.234 20.6403 18.9614 20.121 17.6871 19.609C17.5725 19.5752 17.4612 19.5313 17.3544 19.478C16.4432 18.8996 15.5787 19.0072 14.6218 19.4646C13.3044 20.0923 11.9143 20.5721 10.5629 21.1344C10.2212 21.2761 10.0247 21.2375 9.86781 20.8779C9.63106 20.3641 9.35304 19.8717 9.07861 19.3337Z" fill="black"/>
<rect x="2.4375" y="2.4375" width="27.125" height="27.125" rx="13.5625" stroke="#22F6DD" stroke-width="0.875"/>
</svg>
