<?xml version="1.0" encoding="utf-8"?>
<!-- Generator: Adobe Illustrator 25.2.1, SVG Export Plug-In . SVG Version: 6.00 Build 0)  -->
<svg version="1.1" id="Слой_1" xmlns="http://www.w3.org/2000/svg" xmlns:xlink="http://www.w3.org/1999/xlink" x="0px" y="0px"
	 viewBox="0 0 1000 1000" style="enable-background:new 0 0 1000 1000;" xml:space="preserve">
<style type="text/css">
	.st0{fill:#FFFFFF;}
</style>
<g id="hrd">
	<circle class="st0" cx="500" cy="500" r="480.92"/>
	<path d="M500,1000c-67.49,0-132.97-13.22-194.63-39.3c-59.54-25.18-113.01-61.23-158.92-107.15
		c-45.91-45.91-81.96-99.38-107.15-158.92C13.22,632.97,0,567.49,0,500c0-67.49,13.22-132.97,39.3-194.63
		c25.18-59.54,61.23-113.01,107.15-158.92c45.91-45.91,99.38-81.96,158.92-107.15C367.03,13.22,432.51,0,500,0
		s132.97,13.22,194.63,39.3c59.54,25.18,113.01,61.23,158.92,107.15c45.91,45.91,81.96,99.38,107.15,158.92
		C986.78,367.03,1000,432.51,1000,500c0,67.49-13.22,132.97-39.3,194.63c-25.18,59.54-61.23,113.01-107.15,158.92
		s-99.38,81.96-158.92,107.15C632.97,986.78,567.49,1000,500,1000z M500,38.16c-62.36,0-122.84,12.21-179.76,36.29
		c-54.99,23.26-104.39,56.56-146.81,98.98c-42.42,42.42-75.72,91.81-98.98,146.81C50.37,377.16,38.16,437.64,38.16,500
		c0,62.36,12.21,122.84,36.29,179.76c23.26,54.99,56.56,104.39,98.98,146.81c42.42,42.42,91.81,75.72,146.81,98.98
		c56.93,24.08,117.41,36.29,179.76,36.29s122.84-12.21,179.76-36.29c54.99-23.26,104.39-56.56,146.81-98.98
		c42.42-42.42,75.72-91.81,98.98-146.81c24.08-56.93,36.29-117.41,36.29-179.76c0-62.36-12.21-122.84-36.29-179.76
		c-23.26-54.99-56.56-104.39-98.98-146.81c-42.42-42.42-91.81-75.72-146.81-98.98C622.84,50.37,562.36,38.16,500,38.16z"/>
	<g>
		<path d="M566.84,778.75c-16.3-16.06-40.96-15.66-53.66-1.44c-23.87,26.74-19.23,62.82,12.77,79.18
			c55.54,28.4,103.25-3.32,109.52-65.48c4.32-42.8-26.31-81.64-68.16-93.14c-27.39-7.52-55.05-11.57-81.95,0
			c-13.07,5.62-27.4,12.7-36.13,23.27c-31.69,38.35-40.4,82.43-29.86,131.64c7.34,34.28,31.05,51.17,59.19,63.89
			c48.9,22.11,98.03,25.44,147.92,0.39c65.79-33.02,89.08-125.7,74.4-176.01c-8.35-28.64-12.57-58.45-19.9-87.42
			c-10.41-41.13-23.14-81.7-32.72-123.01c-10.79-46.55-18.97-93.69-28.69-140.5c-8.97-43.24-7.44-85.51,7.72-127.41
			c13.18-36.43,37.56-60.34,73.8-73.31c39.01-13.96,77.27-8.7,116.3,3.92c-23.85-33.75-103.52-34.9-165.86-3.37
			c-4.71,2.38-10.48,0.3-12.52-4.57c-6.14-14.63-8.42-29.83-6.14-45.7c0.5-3.5,8.11-7.64,12.99-8.56
			c27.48-5.21,55.04-10.22,82.77-13.63c6.08-0.75,13.53,4.49,19.44,8.37c65.61,43.02,117.85,97.44,152.8,169.08
			c19.18,39.32,40.53,78.26,45.18,121.16c2.62,24.16,3.69,48.93,3.73,73.37c0.03,19.1,0.11,38.18,0,58.16
			c1.51,43.88-18.08,83.45-32.81,123.49c-17.79,48.35-45.08,91.55-78.56,129.88c-51.2,58.6-113.49,104.56-188.36,126.47
			c-50.93,14.91-62.94,19.48-125.81,24.55c-19.65,0.24-73.36,0.05-101.12-6.33c-2.57-6.32-3.15-12.91-6.73-15.79
			c-73.68-59.29-82.35-159.37-22.01-232.43c38.55-46.68,87.84-59.69,146.4-53.04c35.55,4.03,67.27,13.05,95.5,35.58
			c69.28,55.31,60.29,156.2,1.97,209.14c-49.1,44.57-122.39,35.01-165.98-0.78c-35.01-28.75-42.01-75.62-18.03-121.62
			c12.3-23.6,26.92-42.27,53.18-46.74c34.27-5.83,66.68-1.86,94.51,23.37c23.93,21.7,20.16,68.32-3.25,87.07
			c-14.75,11.82-51.97,16.64-65.08,4.11c-6.99-6.69-12.46-21.17-10.1-29.81c2.65-9.69,14.18-17.74,23.32-24.51
			C550.88,777.25,558.57,779.17,566.84,778.75z M837.85,417.88c1.83-4.82-2.65-9.67-7.6-8.22c-19.52,5.71-38.56,12.07-58.11,14.88
			c-39.65,5.71-69.33-28.81-78.58-56.08c-10.23-30.17,3.67-61.09,34.54-81.82c18.35-12.32,48.15-5.07,57.57,10.8
			c11.13,18.75-6.59,24.98-17.52,33.65c-1.58,1.26-3,2.75-4.38,4.24c-9.83,10.6-6.44,22.81,7.87,24.76
			c16.37,2.23,32.67,1.53,43.03-14.92c11.66-18.51,11.69-42.29,0.03-56.42c-19.25-23.33-67.62-38.15-93.51-28.65
			c-35.58,13.06-52.02,38.76-53.4,78.7c-3,87.23,28.28,166.87,50.84,247.61c1.18,4.22,6.75,5.13,9.2,1.5
			c19.67-29.11,38.44-58.22,59.19-85.85C807.53,474.76,826.75,447.15,837.85,417.88z M857.97,648.32
			c-2.96-6.02-11.6-6.28-14.68-0.32c-0.01,0.03-0.03,0.06-0.04,0.08c-7.19,14.23-18.77,19.27-32.59,12.31
			c-12.98-6.54-18.36-17.11-13.44-33.41c9.07-30.06,42.33-46.44,72.01-35.68c32.33,11.73,37.76,39.72,44.88,70.61
			c2.95-9.2,4.96-15.43,6.96-21.67c10.85-33.82-16.29-76.78-50.91-80.9c-5.31-0.63-10.48-2.4-15.71-3.65
			c2.6-5.61,4.2-12.04,7.98-16.69c26.69-32.86,47.84-68.99,59.93-109.45c10.85-36.34,4.1-71.09-18.29-108.26
			c1.77,14.17,3.99,22.69,3.71,31.13c-1.86,55.29-20.56,103.83-55.4,147.37c-26.87,33.58-57.76,64.86-71.85,107.39
			c-12.41,37.46-11.64,76.35,34.74,84.33c12.15,2.09,29.47-4.43,38.75-13.09C861.51,671.41,863.68,659.95,857.97,648.32z
			 M725.88,883.37c1.59,1.43,30.8-22.01,35.24-35.09c7.1-20.9,9.75-43.45,12.96-65.49c1.46-10.02,1.17-14.02,15-12.87
			c39.22,3.27,61.47,8.58,87.61-34.88c-20.03,3.62-41.83,11.28-63.28,10.4c-17.87-0.73-35.49-7.39-51.99-12.56
			c-4.15-1.3-8.13,2.41-7.16,6.65C764.85,785.77,744.82,836.64,725.88,883.37z"/>
	</g>
	<g>
		<path d="M707.33,104.94c-25.1,4.99-49.32,10.76-73.87,13.92c-5.38,0.69-13.7-6.7-17.69-12.43
			c-19.04-27.39-41.69-44.45-80.55-45.91c-6.82-0.26-11.4-0.2-19.5,1.08c8.6,4.05,10.71,5.18,14.99,6.78
			c69.96,26.13,112.2,121.79,62.86,197.09c-10.21,15.58-20.95,30.98-33.01,45.13c-29.5,34.62-69.1,43.33-112.51,42.66
			c-34.69-0.54-65.49-8.5-91.68-33.4c-25.73-24.46-40.94-53.38-45.78-88.05c-9.29-66.55,55.37-113.42,109.34-112.52
			c42.88,0.72,77.5,10.2,99.28,49.35c18.82,33.83,0.02,97.12-47.68,112.45c-35.31,11.35-59.3-1.1-82.06-23.56
			c-11.4-11.25-13.08-42.25-4.73-52.92c13.16-16.82,33.87-20.67,53.38-6.94c7.21,5.07,9.98,16.48,16.78,28.56
			c4.25-6.67,11.41-13.92,13.8-22.5c4.26-15.33-8.11-23.9-18.87-30.01c-20.46-11.63-53.52-5.92-72.72,11.64
			c-18.26,16.71-16.03,37.56-13.3,60.23c5.89,48.94,72.24,65.04,111.93,52.96c56.96-17.34,97.55-87.44,70.39-143.7
			c-14.08-29.16-40.94-49.23-70.84-53.88c-43.02-6.69-87.24-5.34-127.28,19.64c-33.95,21.18-51.96,52.55-57.69,89.72
			c-11.28,73.22-2.79,145.74,14.69,217.41c15.2,62.31,30.88,124.53,44.37,187.21c8.35,38.81,8.1,77.15-10.12,115.06
			c-15.53,32.31-67.08,53.21-102.23,47.55c-47.17-7.6-89.57-25.62-126.94-53.39c-13.43-9.98-19.82-30.85-26.59-47.87
			c-4.62-11.6-18.65-51.91-20.52-59.95c-10.8-46.62-16.35-94.1-11.78-141.79c1.06-11.06,11.97-22.57,20.91-31.21
			c27.3-26.37,56.15-51.13,83.77-77.18c10.2-9.62,18.62-21.12,27.93-31.69c12-13.62,8.23-28.81,2.48-42.89
			c-1.83-4.47-12.81-9.85-16.08-8.12c-7.47,3.94-15.27,11.04-18.23,18.68c-3.09,7.95-0.67,18.04-0.61,27.2
			c0.09,15.4-1.62,34.92-19.77,32.8c-13.06-1.53-29.7-15.81-35.39-28.57c-14.2-31.88,8.66-56.87,24.53-81.25
			c33.98-52.21,76.77-96.31,131.02-127.67c25.11-14.52,51.84-26.39,78.42-38.13c14.83-6.55,72.48-27.79,122.98-31.08
			c51.09-3.33,101.98-3.22,151.62,11.1c31.17,8.99,61.87,19.64,92.62,30.02C701.25,97.91,704.11,102.15,707.33,104.94z M234.07,364
			c-35.86,30.85-73.46,62.54-110.29,95.09c-25.03,22.12-37.23,49.97-33.39,84.07c2.76,24.48,12.26,45.2,27.87,64.61
			c33.14,41.18,73.9,69.05,127.22,71.16c13.19,0.52,35.35-12.16,38.67-23.2c5.64-18.76,1.78-41.45-2-61.76
			c-7.74-41.5-44.49-48.33-76.94-58.31c-5.59-1.72-13.98,5.64-21.07,8.8c5.48,6.4,9.82,14.87,16.72,18.71
			c10.18,5.66,22.96,6.6,33.24,12.13c15.27,8.21,14.98,27.64,0.61,36.32c-25.71,15.53-79.91,6.97-98.49-17.8
			c-17.69-23.6-26.69-51.79-4.52-87.54c13.45-21.67,49.76-36.76,75.68-30.22c19.29,4.86,38.33,10.71,56.36,15.8
			C253.73,448.62,243.76,405.69,234.07,364z M256.29,128.76c-35.13,12.85-34.58,48.84-44.94,80.19
			c-24.39,1.93-54.14-5.25-70.27,31.47c33.83-15.68,61.22-10.33,84.15,8.86C235.71,208.66,246.02,168.64,256.29,128.76z"/>
	</g>
	<g>
		<path d="M397.99,942.37c-27.55-9.21-51.97-16.86-75.91-25.81c-4.77-1.78-9.42-7.92-11.16-13.05
			c-5.74-16.93-10.11-34.32-15.32-52.63c-19.88,2.12-41.4,4.42-62.92,6.71c-1.1,0.85-2.2,1.71-3.3,2.56
			c5.03,1.43-57.18-47.84-82.38-71.53c1.07-0.97,2.14-1.93,3.21-2.9c37.36,4.73,74.62,10.68,112.12,13.65
			c16.97,1.34,34.81-1.59,51.51-5.64c12.7-3.08,15.18,0.91,16.71,11.84c5.74,41.09,16.13,80.51,44.72,112.56
			C381.89,925.57,388.87,932.67,397.99,942.37z"/>
	</g>
	<g>
		<path d="M323.59,332.64c1.2-3.94,6.06-5.53,9.5-3.16c18.33,12.58,35.29,24.62,52.92,35.64c8.05,5.03,16.61,8.38,8.62,18.98
			c-15.01,19.91-30.37,39.56-45.52,59.11c-2.96,3.82-9.01,3.28-11.23-0.99C323.77,414.92,316.36,356.42,323.59,332.64z"/>
	</g>
	<g>
		<path d="M641.97,561.12c9.42,33.62,18.87,67.34,28.32,101.06c-2.27,1.74-2.4,1.84-4.67,3.58c-8.73-5.2-17.29-10.73-26.22-15.55
			c-13.93-7.53-27.66-15.78-42.34-21.48c-12.73-4.94-11.63-12.23-5.49-19.95c12.99-16.32,26.74-32.03,41.73-49.56
			C635.91,556.16,640.88,557.25,641.97,561.12z"/>
	</g>
	<g>
		<path d="M589.58,381.26c-16.87-8.69-31.71-16.33-48.83-25.14c-3.53-1.82-4.2-6.59-1.3-9.3c13.36-12.51,24.81-23.69,37.22-33.69
			c4.21-3.39,13.59-5.11,17.58-2.66c3.69,2.26,4.28,11.08,4.54,17.09c0.56,12.78,0.39,25.63-0.22,38.41
			c-0.19,4.06-1.16,8.09-2.15,12.16C595.69,381.15,592.34,382.68,589.58,381.26z"/>
	</g>
	<g>
		<path d="M383.1,596.67c14.36,14.24,27.14,26.93,39.06,38.75c3.99,3.96,4.05,10.78,0.12,14.83
			c-11.02,11.35-20.94,21.57-30.61,31.54c-4.43,4.56-11.69,2.54-13.6-3.76c-3.61-11.9-3.88-32.07-2.06-78.15
			C376.17,595.97,380.45,594.04,383.1,596.67z"/>
	</g>
	<g>
		<path d="M84.76,323.36c-4.24,24.22,2.9,41.37,12.83,57.02c3.3,5.2,2.64,11.98-1.59,16.44c-14.83,15.62-30.76,30.7-43.01,44.18
			C52.5,424.65,66.63,355.45,84.76,323.36z"/>
	</g>
	<g>
		<path d="M727.41,521.16c-13.62-28.22-22.93-62.39-22.96-79.81c-0.01-4.94,4.74-8.49,9.49-7.12c21.72,6.28,42.98,13.21,64.76,17.42
			c16.61,3.21,12.86,9.03,5.73,17.69c-14.43,17.52-28.94,34.97-44.23,53.39C736.63,527.03,729.83,526.18,727.41,521.16z"/>
	</g>
	<g>
		<path d="M240.91,452.48c1.63,4.04-1.57,8.38-5.91,8.01c-14.49-1.23-27.32-2.15-40.02-3.95c-5.46-0.77-10.78-2.51-16.1-4.28
			c-4.14-1.38-5.94-6.25-3.68-9.99c3.86-6.4,7.65-12.87,12.84-17.9c27.82-26.94,28.22-26.64,44.19,7.49
			C235.12,438.02,237.63,444.36,240.91,452.48z"/>
	</g>
	<g>
		<circle cx="492.84" cy="497.61" r="129.9"/>
	</g>
	<path class="st0" d="M425.71,438.84v45.21h18.27v-45.21h15.69v117.12h-15.69V501.5h-18.27v54.46h-15.69V438.84H425.71z"/>
	<path class="st0" d="M510.27,438.84c0.78,0,1.58,0.23,2.4,0.7c0.82,0.47,1.54,1.07,2.17,1.82c0.62,0.74,1.13,1.6,1.52,2.58
		c0.39,0.98,0.59,1.93,0.59,2.87v32.91c0,1.33-0.26,2.6-0.76,3.81c-0.51,1.21-1.15,2.36-1.93,3.46c-0.78,1.09-1.64,2.13-2.58,3.1
		c-0.94,0.98-1.84,1.89-2.69,2.75v1.17l11.71,61.96h-15.81l-10.07-52.71l-7.61,5.51v47.2h-15.81V438.84H510.27z M487.31,488.85
		l11.01-7.61c0.39-0.31,0.78-0.66,1.17-1.05c0.39-0.39,0.7-0.74,0.94-1.05v-23.54h-13.12V488.85z"/>
	<path class="st0" d="M566.6,438.84c3.51,0,6.5,1.23,8.96,3.69c2.46,2.46,3.69,5.41,3.69,8.84v92.06c0,3.44-1.23,6.38-3.69,8.84
		s-5.45,3.69-8.96,3.69c-9.84,0-21.24,0-34.2,0c0-16.87,0-55.91,0-117.12H566.6z M559.81,539.22c0.7,0,1.33-0.25,1.87-0.76
		c0.55-0.51,0.82-1.38,0.82-2.63v-77.54c0-0.7-0.29-1.33-0.88-1.87c-0.59-0.55-1.19-0.82-1.82-0.82h-10.66v83.63H559.81z"/>
	<path class="st0" d="M500,994.61c-66.76,0-131.54-13.08-192.53-38.88c-58.9-24.91-111.79-60.57-157.21-105.99
		c-45.42-45.42-81.08-98.31-105.99-157.21C18.47,631.54,5.39,566.76,5.39,500s13.08-131.54,38.88-192.53
		c24.91-58.9,60.57-111.79,105.99-157.21c45.42-45.42,98.31-81.08,157.21-105.99C368.46,18.47,433.24,5.39,500,5.39
		c66.76,0,131.54,13.08,192.53,38.88c58.9,24.91,111.79,60.57,157.21,105.99c45.42,45.42,81.08,98.31,105.99,157.21
		c25.8,60.99,38.88,125.77,38.88,192.53s-13.08,131.54-38.88,192.53c-24.91,58.9-60.57,111.79-105.99,157.21
		c-45.42,45.42-98.31,81.08-157.21,105.99C631.54,981.53,566.76,994.61,500,994.61z M500,53.09c-60.34,0-118.87,11.81-173.95,35.11
		c-53.21,22.51-101.01,54.73-142.06,95.79c-41.05,41.05-73.28,88.85-95.79,142.06C64.91,381.13,53.09,439.66,53.09,500
		c0,60.34,11.81,118.87,35.11,173.95c22.51,53.21,54.73,101.01,95.79,142.06c41.05,41.05,88.85,73.28,142.06,95.79
		c55.08,23.3,113.61,35.11,173.95,35.11s118.87-11.81,173.95-35.11c53.21-22.51,101.01-54.74,142.06-95.79
		c41.05-41.05,73.28-88.85,95.79-142.06c23.3-55.08,35.11-113.61,35.11-173.95c0-60.34-11.81-118.87-35.11-173.95
		c-22.51-53.21-54.73-101.01-95.79-142.06s-88.85-73.28-142.06-95.79C618.87,64.91,560.34,53.09,500,53.09z"/>
</g>
</svg>
