<svg xmlns="http://www.w3.org/2000/svg" xmlns:xlink="http://www.w3.org/1999/xlink" width="500" zoomAndPan="magnify" viewBox="0 0 375 374.999991" height="500" preserveAspectRatio="xMidYMid meet" version="1.0"><defs><g/><clipPath id="42ef82ea67"><path d="M 158 224 L 225 224 L 225 234.492188 L 158 234.492188 Z M 158 224 " clip-rule="nonzero"/></clipPath><clipPath id="a02e9444d6"><path d="M 114.429688 99 L 126 99 L 126 111 L 114.429688 111 Z M 114.429688 99 " clip-rule="nonzero"/></clipPath><clipPath id="8483c3e2a1"><path d="M 201 73.992188 L 213 73.992188 L 213 85 L 201 85 Z M 201 73.992188 " clip-rule="nonzero"/></clipPath><clipPath id="5cd705ddc4"><path d="M 245 105 L 256.179688 105 L 256.179688 116 L 245 116 Z M 245 105 " clip-rule="nonzero"/></clipPath></defs><rect x="-37.5" width="450" fill="#ffffff" y="-37.499999" height="449.999989" fill-opacity="1"/><rect x="-37.5" width="450" fill="#ffffff" y="-37.499999" height="449.999989" fill-opacity="1"/><rect x="-37.5" width="450" fill="#032757" y="-37.499999" height="449.999989" fill-opacity="1"/><g clip-path="url(#42ef82ea67)"><path fill="#2085b7" d="M 224.921875 229.308594 C 224.921875 229.476562 224.871094 229.644531 224.765625 229.816406 C 224.65625 229.984375 224.5 230.152344 224.285156 230.316406 C 224.074219 230.484375 223.8125 230.648438 223.496094 230.808594 C 223.179688 230.972656 222.816406 231.132812 222.398438 231.289062 C 221.984375 231.445312 221.519531 231.597656 221.007812 231.75 C 220.496094 231.898438 219.941406 232.042969 219.335938 232.183594 C 218.734375 232.324219 218.085938 232.460938 217.398438 232.59375 C 216.710938 232.722656 215.980469 232.851562 215.214844 232.96875 C 214.445312 233.089844 213.640625 233.203125 212.804688 233.3125 C 211.964844 233.417969 211.09375 233.519531 210.191406 233.613281 C 209.285156 233.707031 208.355469 233.796875 207.398438 233.875 C 206.441406 233.957031 205.460938 234.027344 204.457031 234.09375 C 203.457031 234.15625 202.433594 234.214844 201.394531 234.265625 C 200.355469 234.3125 199.304688 234.355469 198.238281 234.386719 C 197.175781 234.421875 196.101562 234.445312 195.019531 234.460938 C 193.941406 234.476562 192.859375 234.488281 191.773438 234.488281 C 190.6875 234.488281 189.601562 234.476562 188.523438 234.460938 C 187.441406 234.445312 186.371094 234.421875 185.304688 234.386719 C 184.238281 234.355469 183.1875 234.3125 182.148438 234.265625 C 181.109375 234.214844 180.089844 234.15625 179.085938 234.09375 C 178.082031 234.027344 177.101562 233.957031 176.144531 233.875 C 175.1875 233.796875 174.257812 233.707031 173.355469 233.613281 C 172.453125 233.519531 171.582031 233.417969 170.742188 233.3125 C 169.902344 233.203125 169.097656 233.089844 168.332031 232.96875 C 167.5625 232.851562 166.835938 232.722656 166.144531 232.59375 C 165.457031 232.460938 164.8125 232.324219 164.207031 232.183594 C 163.605469 232.042969 163.046875 231.898438 162.535156 231.75 C 162.023438 231.597656 161.558594 231.445312 161.144531 231.289062 C 160.730469 231.132812 160.363281 230.972656 160.046875 230.808594 C 159.734375 230.648438 159.46875 230.484375 159.257812 230.316406 C 159.046875 230.152344 158.886719 229.984375 158.78125 229.816406 C 158.675781 229.644531 158.621094 229.476562 158.621094 229.308594 C 158.621094 229.136719 158.675781 228.96875 158.78125 228.800781 C 158.886719 228.628906 159.046875 228.460938 159.257812 228.296875 C 159.46875 228.128906 159.734375 227.964844 160.046875 227.804688 C 160.363281 227.640625 160.730469 227.480469 161.144531 227.324219 C 161.558594 227.167969 162.023438 227.015625 162.535156 226.863281 C 163.046875 226.714844 163.605469 226.570312 164.207031 226.429688 C 164.8125 226.289062 165.457031 226.152344 166.144531 226.019531 C 166.835938 225.890625 167.5625 225.765625 168.332031 225.644531 C 169.097656 225.523438 169.902344 225.410156 170.742188 225.300781 C 171.582031 225.195312 172.453125 225.09375 173.355469 225 C 174.257812 224.90625 175.1875 224.816406 176.144531 224.738281 C 177.101562 224.660156 178.082031 224.585938 179.085938 224.519531 C 180.089844 224.457031 181.109375 224.398438 182.148438 224.351562 C 183.1875 224.300781 184.238281 224.257812 185.304688 224.226562 C 186.371094 224.191406 187.441406 224.167969 188.523438 224.152344 C 189.601562 224.136719 190.6875 224.125 191.773438 224.125 C 192.859375 224.125 193.941406 224.136719 195.019531 224.152344 C 196.101562 224.167969 197.175781 224.191406 198.238281 224.226562 C 199.304688 224.257812 200.355469 224.300781 201.394531 224.351562 C 202.433594 224.398438 203.457031 224.457031 204.457031 224.519531 C 205.460938 224.585938 206.441406 224.660156 207.398438 224.738281 C 208.355469 224.816406 209.285156 224.90625 210.191406 225 C 211.09375 225.09375 211.964844 225.195312 212.804688 225.300781 C 213.640625 225.410156 214.445312 225.523438 215.214844 225.644531 C 215.980469 225.765625 216.710938 225.890625 217.398438 226.019531 C 218.085938 226.152344 218.734375 226.289062 219.335938 226.429688 C 219.941406 226.570312 220.496094 226.714844 221.007812 226.863281 C 221.519531 227.015625 221.984375 227.167969 222.398438 227.324219 C 222.816406 227.480469 223.179688 227.640625 223.496094 227.804688 C 223.8125 227.964844 224.074219 228.128906 224.285156 228.296875 C 224.5 228.460938 224.65625 228.628906 224.765625 228.800781 C 224.871094 228.96875 224.921875 229.136719 224.921875 229.308594 Z M 224.921875 229.308594 " fill-opacity="1" fill-rule="nonzero"/></g><path fill="#d5e9f2" d="M 216.921875 121.878906 C 208.308594 109.34375 187.359375 109.34375 187.359375 109.34375 C 187.359375 109.34375 166.40625 109.34375 157.792969 121.878906 C 149.886719 133.386719 149.957031 149.105469 149.957031 149.105469 L 157.59375 158.898438 L 217.117188 158.898438 L 224.753906 149.105469 C 224.753906 149.105469 224.828125 133.386719 216.921875 121.878906 Z M 216.921875 121.878906 " fill-opacity="1" fill-rule="nonzero"/><path fill="#a8d7e9" d="M 216.933594 121.878906 C 213.554688 116.96875 208.285156 113.980469 203.121094 112.160156 C 205.792969 113.824219 208.21875 115.9375 210.082031 118.648438 C 217.988281 130.152344 217.914062 145.875 217.914062 145.875 L 210.277344 155.667969 L 155.089844 155.667969 L 157.609375 158.898438 L 217.128906 158.898438 L 224.765625 149.105469 C 224.765625 149.105469 224.839844 133.386719 216.933594 121.878906 Z M 216.933594 121.878906 " fill-opacity="1" fill-rule="nonzero"/><path fill="#002b43" d="M 206.347656 124.425781 C 198.320312 118.355469 176.394531 118.355469 168.367188 124.425781 C 159.652344 131.019531 159.949219 146.757812 159.949219 146.757812 L 214.769531 146.757812 C 214.769531 146.757812 215.0625 131.023438 206.347656 124.425781 Z M 206.347656 124.425781 " fill-opacity="1" fill-rule="nonzero"/><path fill="#000f16" d="M 160.175781 146.757812 C 160.714844 141.621094 162.496094 133.03125 168.367188 128.589844 C 176.386719 122.523438 198.320312 122.523438 206.347656 128.589844 C 212.222656 133.03125 214 141.621094 214.539062 146.757812 L 214.769531 146.757812 C 214.769531 146.757812 215.0625 131.019531 206.347656 124.425781 C 198.320312 118.355469 176.394531 118.355469 168.367188 124.425781 C 159.652344 131.019531 159.949219 146.757812 159.949219 146.757812 Z M 160.175781 146.757812 " fill-opacity="1" fill-rule="nonzero"/><path fill="#d5e9f2" d="M 180.800781 106.40625 L 193.917969 106.40625 C 194.074219 106.40625 194.222656 106.4375 194.367188 106.496094 C 194.511719 106.558594 194.636719 106.640625 194.75 106.75 C 194.859375 106.863281 194.945312 106.988281 195.003906 107.132812 C 195.0625 107.277344 195.09375 107.425781 195.09375 107.582031 L 195.09375 111.699219 C 195.09375 111.851562 195.0625 112.003906 195.003906 112.148438 C 194.945312 112.289062 194.859375 112.417969 194.75 112.527344 C 194.636719 112.636719 194.511719 112.722656 194.367188 112.78125 C 194.222656 112.84375 194.074219 112.871094 193.917969 112.871094 L 180.800781 112.871094 C 180.644531 112.871094 180.492188 112.84375 180.347656 112.78125 C 180.207031 112.722656 180.078125 112.636719 179.96875 112.527344 C 179.859375 112.417969 179.773438 112.289062 179.714844 112.148438 C 179.65625 112.003906 179.625 111.851562 179.625 111.699219 L 179.625 107.582031 C 179.625 107.425781 179.65625 107.277344 179.714844 107.132812 C 179.773438 106.988281 179.859375 106.863281 179.96875 106.75 C 180.078125 106.640625 180.207031 106.558594 180.347656 106.496094 C 180.492188 106.4375 180.644531 106.40625 180.800781 106.40625 Z M 180.800781 106.40625 " fill-opacity="1" fill-rule="nonzero"/><path fill="#d5e9f2" d="M 183.863281 109.539062 L 185.628906 93.089844 L 187.976562 93.089844 L 190.851562 109.640625 Z M 183.863281 109.539062 " fill-opacity="1" fill-rule="nonzero"/><path fill="#d5e9f2" d="M 189.707031 93.089844 C 189.707031 93.464844 189.636719 93.824219 189.492188 94.171875 C 189.347656 94.519531 189.144531 94.824219 188.878906 95.089844 C 188.613281 95.355469 188.304688 95.5625 187.957031 95.707031 C 187.613281 95.847656 187.25 95.921875 186.875 95.921875 C 186.5 95.921875 186.140625 95.847656 185.792969 95.707031 C 185.445312 95.5625 185.136719 95.355469 184.875 95.089844 C 184.609375 94.824219 184.402344 94.519531 184.257812 94.171875 C 184.117188 93.824219 184.042969 93.464844 184.042969 93.089844 C 184.042969 92.714844 184.117188 92.351562 184.257812 92.003906 C 184.402344 91.65625 184.609375 91.351562 184.875 91.085938 C 185.136719 90.820312 185.445312 90.617188 185.792969 90.472656 C 186.140625 90.328125 186.5 90.257812 186.875 90.257812 C 187.25 90.257812 187.613281 90.328125 187.957031 90.472656 C 188.304688 90.617188 188.613281 90.820312 188.878906 91.085938 C 189.144531 91.351562 189.347656 91.65625 189.492188 92.003906 C 189.636719 92.351562 189.707031 92.714844 189.707031 93.089844 Z M 189.707031 93.089844 " fill-opacity="1" fill-rule="nonzero"/><path fill="#a8d7e9" d="M 188.640625 90.871094 C 188.785156 91.160156 188.878906 91.464844 188.917969 91.789062 C 188.957031 92.109375 188.941406 92.429688 188.871094 92.746094 C 188.804688 93.0625 188.683594 93.355469 188.511719 93.632812 C 188.339844 93.90625 188.128906 94.144531 187.875 94.347656 C 187.621094 94.550781 187.339844 94.707031 187.035156 94.8125 C 186.730469 94.917969 186.414062 94.96875 186.089844 94.96875 C 185.765625 94.964844 185.453125 94.910156 185.148438 94.800781 C 184.84375 94.691406 184.566406 94.53125 184.3125 94.328125 C 184.40625 94.515625 184.523438 94.691406 184.65625 94.855469 C 184.789062 95.019531 184.941406 95.164062 185.105469 95.296875 C 185.273438 95.425781 185.453125 95.535156 185.640625 95.625 C 185.832031 95.714844 186.03125 95.78125 186.238281 95.828125 C 186.445312 95.875 186.652344 95.894531 186.863281 95.894531 C 187.074219 95.894531 187.28125 95.867188 187.488281 95.820312 C 187.695312 95.773438 187.890625 95.703125 188.082031 95.609375 C 188.273438 95.519531 188.449219 95.40625 188.613281 95.273438 C 188.777344 95.144531 188.925781 94.996094 189.058594 94.828125 C 189.191406 94.664062 189.304688 94.488281 189.394531 94.296875 C 189.488281 94.105469 189.558594 93.910156 189.605469 93.703125 C 189.652344 93.5 189.675781 93.289062 189.679688 93.078125 C 189.679688 92.867188 189.65625 92.660156 189.613281 92.453125 C 189.566406 92.246094 189.5 92.046875 189.410156 91.855469 C 189.320312 91.664062 189.210938 91.488281 189.078125 91.320312 C 188.949219 91.152344 188.804688 91.003906 188.640625 90.871094 Z M 188.640625 90.871094 " fill-opacity="1" fill-rule="nonzero"/><path fill="#a8d7e9" d="M 157.597656 158.898438 L 217.117188 158.898438 L 224.753906 149.105469 L 149.960938 149.105469 Z M 157.597656 158.898438 " fill-opacity="1" fill-rule="nonzero"/><path fill="#a8d7e9" d="M 195.089844 109.773438 C 195.089844 110.183594 194.828125 110.527344 194.503906 110.527344 L 187.945312 110.527344 C 187.621094 110.527344 187.359375 110.191406 187.359375 109.773438 L 187.359375 107.15625 C 187.359375 106.742188 187.621094 106.398438 187.945312 106.398438 L 194.507812 106.398438 C 194.832031 106.398438 195.09375 106.734375 195.09375 107.15625 Z M 195.089844 109.773438 " fill-opacity="1" fill-rule="nonzero"/><path fill="#ffffff" d="M 175.640625 114.746094 C 174.6875 112.921875 170.371094 113.96875 168.960938 114.632812 C 167.808594 115.179688 165.722656 116.382812 164.394531 117.65625 C 163.328125 118.507812 162.390625 119.480469 161.578125 120.574219 C 160.898438 121.492188 159.617188 123.378906 160.445312 124.582031 C 161.351562 125.90625 162.878906 124.757812 163.636719 123.992188 C 165.609375 122.015625 167.136719 119.878906 169.808594 118.671875 C 171.125 118.078125 176.761719 116.898438 175.640625 114.746094 Z M 175.640625 114.746094 " fill-opacity="1" fill-rule="nonzero"/><path fill="#d5e9f2" d="M 227.929688 181.085938 L 216.292969 161.015625 L 158.421875 161.015625 L 146.785156 181.085938 C 146.785156 181.085938 147.285156 189.449219 150.09375 197.09375 C 154.40625 208.847656 158.515625 213.546875 158.515625 213.546875 L 172.753906 219.046875 L 187.226562 220.371094 L 187.226562 220.394531 C 187.226562 220.394531 187.324219 220.382812 187.359375 220.382812 C 187.390625 220.382812 187.488281 220.394531 187.488281 220.394531 L 187.488281 220.371094 L 201.960938 219.046875 L 216.199219 213.546875 C 216.199219 213.546875 221.363281 206.890625 224.625 197.09375 C 227.195312 189.375 227.929688 181.085938 227.929688 181.085938 Z M 227.929688 181.085938 " fill-opacity="1" fill-rule="nonzero"/><path fill="#a8d7e9" d="M 216.292969 161.015625 L 202.589844 161.015625 L 214.222656 181.085938 C 214.222656 181.085938 213.488281 189.367188 210.917969 197.09375 C 207.660156 206.890625 206.199219 210.789062 202.492188 213.546875 C 199.433594 215.828125 188.257812 219.046875 188.257812 219.046875 L 180.503906 219.761719 L 187.226562 220.378906 L 187.226562 220.402344 C 187.226562 220.402344 187.324219 220.390625 187.359375 220.390625 C 187.390625 220.390625 187.488281 220.402344 187.488281 220.402344 L 187.488281 220.378906 L 201.960938 219.058594 L 216.199219 213.546875 C 216.199219 213.546875 221.363281 206.890625 224.625 197.09375 C 227.195312 189.367188 227.929688 181.085938 227.929688 181.085938 Z M 216.292969 161.015625 " fill-opacity="1" fill-rule="nonzero"/><path fill="#a8d7e9" d="M 146.785156 181.085938 L 227.929688 181.085938 L 224.765625 187.105469 Z M 146.785156 181.085938 " fill-opacity="1" fill-rule="nonzero"/><path fill="#ffffff" d="M 163.074219 194.398438 C 162.84375 191.484375 164.832031 187.46875 161.507812 185.929688 C 159.808594 185.140625 156.917969 184.816406 155.597656 186.511719 C 155.105469 187.175781 154.847656 187.917969 154.820312 188.742188 C 154.34375 190.816406 155.460938 193.855469 155.984375 195.726562 C 156.597656 197.917969 158.730469 205.628906 162.65625 203.53125 C 165.332031 202.089844 163.246094 196.550781 163.074219 194.398438 Z M 163.074219 194.398438 " fill-opacity="1" fill-rule="nonzero"/><path fill="#ffffff" d="M 167.34375 165.203125 C 165.578125 162.683594 163.097656 163.523438 161.328125 165.351562 C 157.394531 167.746094 153.210938 177.53125 159.167969 178.488281 C 162.59375 179.039062 163.644531 174.859375 164.804688 172.601562 C 165.871094 170.535156 169.078125 167.679688 167.34375 165.203125 Z M 167.34375 165.203125 " fill-opacity="1" fill-rule="nonzero"/><path fill="#d5e9f2" d="M 217.960938 160.925781 C 217.960938 160.925781 238.699219 139.28125 243.441406 138.074219 C 248.1875 136.867188 248.472656 145.886719 243.269531 157.148438 C 238.222656 168.082031 229.578125 179.433594 229.578125 179.433594 Z M 217.960938 160.925781 " fill-opacity="1" fill-rule="nonzero"/><path fill="#a8d7e9" d="M 243.441406 138.066406 C 242.964844 138.191406 242.332031 138.515625 241.578125 139.003906 C 242.292969 142.375 241.171875 148.460938 237.96875 155.394531 C 234.503906 162.902344 227.953125 170.667969 225.886719 173.546875 L 229.582031 179.433594 C 229.582031 179.433594 238.226562 168.082031 243.273438 157.152344 C 248.46875 145.878906 248.179688 136.855469 243.441406 138.066406 Z M 243.441406 138.066406 " fill-opacity="1" fill-rule="nonzero"/><path fill="#ffffff" d="M 239.054688 142.992188 C 238.300781 142.734375 236.660156 144.175781 236.195312 144.574219 C 235.414062 145.242188 233.472656 147.289062 233.347656 148.796875 C 232.996094 149.660156 233.082031 150.402344 234.085938 150.617188 C 235.59375 150.941406 238.546875 146.96875 239.101562 145.765625 C 239.433594 145.015625 240.082031 143.347656 239.054688 142.992188 Z M 239.054688 142.992188 " fill-opacity="1" fill-rule="nonzero"/><path fill="#d5e9f2" d="M 156.128906 160.988281 C 156.128906 160.988281 135.402344 139.332031 130.664062 138.117188 C 125.921875 136.90625 125.628906 145.925781 130.828125 157.191406 C 135.867188 168.128906 144.507812 179.488281 144.507812 179.488281 Z M 156.128906 160.988281 " fill-opacity="1" fill-rule="nonzero"/><path fill="#a8d7e9" d="M 130.664062 138.117188 C 131.136719 138.238281 131.769531 138.566406 132.527344 139.054688 C 131.808594 142.425781 132.925781 148.511719 136.125 155.449219 C 139.585938 162.960938 146.128906 170.726562 148.207031 173.605469 L 144.507812 179.492188 C 144.507812 179.492188 135.871094 168.136719 130.828125 157.199219 C 125.628906 145.925781 125.921875 136.902344 130.664062 138.117188 Z M 130.664062 138.117188 " fill-opacity="1" fill-rule="nonzero"/><path fill="#ffffff" d="M 135.046875 143.046875 C 135.800781 142.789062 137.441406 144.226562 137.90625 144.628906 C 138.6875 145.296875 140.625 147.34375 140.75 148.855469 C 141.101562 149.71875 141.015625 150.457031 140.015625 150.671875 C 138.503906 150.996094 135.554688 147.019531 135 145.820312 C 134.667969 145.070312 134.015625 143.402344 135.046875 143.046875 Z M 135.046875 143.046875 " fill-opacity="1" fill-rule="nonzero"/><path fill="#d5e9f2" d="M 158.351562 215.28125 C 158.351562 215.28125 163.519531 228.765625 167.847656 229.203125 C 172.175781 229.644531 172.300781 220.402344 172.300781 220.402344 Z M 158.351562 215.28125 " fill-opacity="1" fill-rule="nonzero"/><path fill="#a8d7e9" d="M 168.820312 219.070312 C 168.769531 220.378906 168.371094 226.757812 165.328125 227.570312 C 166.21875 228.5 167.121094 229.117188 167.996094 229.203125 C 172.324219 229.648438 172.449219 220.402344 172.449219 220.402344 Z M 168.820312 219.070312 " fill-opacity="1" fill-rule="nonzero"/><path fill="#d5e9f2" d="M 203.429688 220.402344 C 203.429688 220.402344 210.035156 230.5625 218.554688 228.441406 C 222.117188 227.550781 216.5 215.28125 216.5 215.28125 Z M 203.429688 220.402344 " fill-opacity="1" fill-rule="nonzero"/><path fill="#a8d7e9" d="M 216.5 215.28125 L 212.953125 216.671875 C 214.382812 220.257812 216.636719 226.914062 214.050781 227.558594 C 213.378906 227.726562 212.691406 227.824219 212 227.84375 C 213.96875 228.671875 216.1875 229.03125 218.554688 228.441406 C 222.117188 227.550781 216.5 215.28125 216.5 215.28125 Z M 216.5 215.28125 " fill-opacity="1" fill-rule="nonzero"/><path fill="#3aedb1" d="M 189.03125 125.15625 C 189.03125 125.285156 188.984375 125.394531 188.894531 125.484375 C 188.804688 125.574219 188.695312 125.617188 188.570312 125.621094 C 188.441406 125.617188 188.332031 125.574219 188.242188 125.480469 C 188.152344 125.390625 188.105469 125.28125 188.105469 125.152344 L 188.105469 123.019531 C 188.105469 122.890625 188.152344 122.785156 188.242188 122.691406 C 188.332031 122.601562 188.441406 122.558594 188.570312 122.558594 C 188.699219 122.558594 188.808594 122.601562 188.898438 122.695312 C 188.988281 122.785156 189.035156 122.894531 189.03125 123.023438 Z M 189.03125 125.15625 " fill-opacity="1" fill-rule="nonzero"/><path fill="#3aedb1" d="M 181.273438 130.699219 C 181.402344 130.699219 181.507812 130.746094 181.601562 130.835938 C 181.691406 130.925781 181.734375 131.035156 181.734375 131.164062 C 181.734375 131.292969 181.6875 131.402344 181.597656 131.492188 C 181.507812 131.582031 181.398438 131.625 181.269531 131.625 L 179.136719 131.625 C 179.011719 131.625 178.902344 131.582031 178.8125 131.488281 C 178.71875 131.398438 178.675781 131.289062 178.675781 131.160156 C 178.675781 131.035156 178.71875 130.925781 178.8125 130.832031 C 178.902344 130.742188 179.011719 130.699219 179.140625 130.699219 Z M 181.273438 130.699219 " fill-opacity="1" fill-rule="nonzero"/><path fill="#3aedb1" d="M 182.113281 127.480469 C 182.226562 127.542969 182.300781 127.636719 182.332031 127.757812 C 182.367188 127.882812 182.351562 128 182.289062 128.113281 C 182.226562 128.222656 182.132812 128.296875 182.011719 128.332031 C 181.886719 128.363281 181.769531 128.351562 181.65625 128.289062 L 179.800781 127.246094 C 179.691406 127.183594 179.617188 127.089844 179.582031 126.964844 C 179.550781 126.839844 179.5625 126.722656 179.625 126.613281 C 179.691406 126.5 179.78125 126.429688 179.90625 126.394531 C 180.027344 126.359375 180.144531 126.375 180.257812 126.4375 Z M 182.113281 127.480469 " fill-opacity="1" fill-rule="nonzero"/><path fill="#3aedb1" d="M 185.316406 125.308594 C 185.371094 125.425781 185.375 125.542969 185.332031 125.664062 C 185.289062 125.785156 185.210938 125.871094 185.09375 125.925781 C 184.976562 125.980469 184.859375 125.984375 184.738281 125.941406 C 184.617188 125.898438 184.53125 125.816406 184.476562 125.703125 L 183.570312 123.773438 C 183.515625 123.65625 183.511719 123.539062 183.554688 123.417969 C 183.597656 123.296875 183.675781 123.210938 183.792969 123.15625 C 183.910156 123.101562 184.027344 123.09375 184.148438 123.136719 C 184.269531 123.183594 184.355469 123.261719 184.410156 123.378906 Z M 185.316406 125.308594 " fill-opacity="1" fill-rule="nonzero"/><path fill="#3aedb1" d="M 196.042969 130.84375 C 195.914062 130.84375 195.800781 130.886719 195.710938 130.980469 C 195.617188 131.070312 195.574219 131.179688 195.570312 131.3125 C 195.570312 131.441406 195.617188 131.550781 195.707031 131.644531 C 195.800781 131.738281 195.910156 131.78125 196.039062 131.78125 L 198.199219 131.78125 C 198.328125 131.78125 198.4375 131.738281 198.53125 131.644531 C 198.621094 131.554688 198.667969 131.445312 198.667969 131.316406 C 198.667969 131.183594 198.625 131.074219 198.53125 130.984375 C 198.441406 130.890625 198.332031 130.84375 198.203125 130.84375 Z M 196.042969 130.84375 " fill-opacity="1" fill-rule="nonzero"/><path fill="#3aedb1" d="M 195.003906 127.515625 C 194.894531 127.578125 194.820312 127.671875 194.785156 127.796875 C 194.753906 127.917969 194.765625 128.035156 194.828125 128.148438 C 194.886719 128.261719 194.980469 128.335938 195.105469 128.375 C 195.226562 128.410156 195.34375 128.398438 195.457031 128.335938 L 197.320312 127.296875 C 197.433594 127.238281 197.507812 127.144531 197.546875 127.023438 C 197.582031 126.898438 197.570312 126.78125 197.507812 126.667969 C 197.445312 126.554688 197.351562 126.480469 197.230469 126.445312 C 197.105469 126.414062 196.988281 126.425781 196.878906 126.488281 Z M 195.003906 127.515625 " fill-opacity="1" fill-rule="nonzero"/><path fill="#3aedb1" d="M 191.816406 125.328125 C 191.761719 125.445312 191.757812 125.5625 191.800781 125.683594 C 191.84375 125.800781 191.921875 125.890625 192.035156 125.945312 C 192.152344 126 192.269531 126.007812 192.390625 125.964844 C 192.511719 125.921875 192.601562 125.84375 192.65625 125.726562 L 193.574219 123.800781 C 193.628906 123.683594 193.632812 123.566406 193.589844 123.445312 C 193.546875 123.324219 193.46875 123.238281 193.351562 123.183594 C 193.238281 123.128906 193.117188 123.121094 192.996094 123.164062 C 192.875 123.207031 192.789062 123.285156 192.734375 123.402344 Z M 191.816406 125.328125 " fill-opacity="1" fill-rule="nonzero"/><path fill="#3aedb1" d="M 194.226562 131.195312 C 194.152344 128.691406 191.527344 127.164062 188.839844 127.175781 C 188.789062 127.175781 188.738281 127.179688 188.6875 127.191406 C 188.636719 127.179688 188.585938 127.171875 188.535156 127.171875 C 185.816406 127.148438 183.410156 128.597656 183.136719 131.042969 C 183.007812 132.179688 183.527344 133.359375 184.324219 134.253906 C 185.003906 135.011719 185.875 135.652344 186.09375 136.589844 C 185.757812 136.789062 185.585938 137.082031 185.585938 137.472656 L 185.585938 137.949219 L 191.640625 137.964844 L 191.640625 137.488281 C 191.640625 137.140625 191.5 136.863281 191.21875 136.65625 C 191.40625 135.734375 192.238281 135.109375 192.914062 134.378906 C 193.765625 133.476562 194.261719 132.359375 194.226562 131.195312 Z M 193.019531 131.785156 C 192.851562 132.847656 192.132812 133.613281 191.34375 134.386719 C 190.710938 135.007812 190.222656 135.664062 190.054688 136.449219 L 187.265625 136.449219 C 187.113281 135.703125 186.667969 135.074219 186.082031 134.472656 C 185.296875 133.664062 184.597656 132.960938 184.355469 131.890625 C 184.261719 131.414062 184.292969 130.949219 184.445312 130.488281 C 184.597656 130.027344 184.851562 129.632812 185.207031 129.308594 C 186.046875 128.492188 187.308594 128.195312 188.53125 128.207031 C 188.585938 128.210938 188.636719 128.207031 188.6875 128.195312 C 188.734375 128.207031 188.785156 128.210938 188.835938 128.210938 C 191.160156 128.1875 193.375 129.589844 193.019531 131.777344 Z M 193.019531 131.785156 " fill-opacity="1" fill-rule="nonzero"/><path fill="#3aedb1" d="M 185.582031 139.742188 L 185.585938 138.40625 L 191.640625 138.421875 L 191.636719 139.761719 Z M 185.582031 139.742188 " fill-opacity="1" fill-rule="nonzero"/><path fill="#3aedb1" d="M 185.578125 141.539062 L 185.582031 140.203125 L 191.636719 140.222656 L 191.632812 141.558594 Z M 185.578125 141.539062 " fill-opacity="1" fill-rule="nonzero"/><path fill="#3aedb1" d="M 185.574219 142 L 185.574219 142.179688 C 185.574219 142.316406 185.597656 142.449219 185.648438 142.574219 C 185.703125 142.699219 185.777344 142.8125 185.871094 142.910156 C 185.96875 143.007812 186.078125 143.082031 186.207031 143.132812 C 186.332031 143.1875 186.464844 143.214844 186.601562 143.214844 L 187.394531 143.214844 L 187.394531 143.296875 C 187.394531 143.433594 187.417969 143.566406 187.472656 143.691406 C 187.523438 143.816406 187.597656 143.929688 187.695312 144.027344 C 187.789062 144.125 187.902344 144.199219 188.027344 144.25 C 188.152344 144.304688 188.285156 144.328125 188.421875 144.328125 L 188.765625 144.328125 C 188.902344 144.332031 189.03125 144.304688 189.160156 144.253906 C 189.285156 144.199219 189.398438 144.125 189.492188 144.03125 C 189.589844 143.933594 189.664062 143.824219 189.71875 143.695312 C 189.769531 143.570312 189.796875 143.4375 189.796875 143.300781 L 189.796875 143.214844 L 190.59375 143.214844 C 190.730469 143.214844 190.859375 143.1875 190.984375 143.136719 C 191.113281 143.085938 191.222656 143.011719 191.320312 142.914062 C 191.417969 142.816406 191.492188 142.707031 191.546875 142.582031 C 191.597656 142.453125 191.625 142.324219 191.625 142.1875 L 191.625 142.007812 Z M 185.574219 142 " fill-opacity="1" fill-rule="nonzero"/><g clip-path="url(#a02e9444d6)"><path fill="#ffffff" d="M 122.558594 110.039062 L 119.398438 107.910156 L 115.851562 109.3125 L 116.898438 105.648438 L 114.46875 102.707031 L 118.277344 102.570312 L 120.320312 99.351562 L 121.632812 102.929688 L 125.320312 103.882812 L 122.324219 106.234375 Z M 122.558594 110.039062 " fill-opacity="1" fill-rule="nonzero"/></g><path fill="#ffffff" d="M 140.898438 122.460938 L 137.734375 120.335938 L 134.191406 121.738281 L 135.234375 118.070312 L 132.808594 115.132812 L 136.617188 114.992188 L 138.664062 111.777344 L 139.96875 115.355469 L 143.660156 116.304688 L 140.660156 118.660156 Z M 140.898438 122.460938 " fill-opacity="1" fill-rule="nonzero"/><path fill="#ffffff" d="M 155.84375 97.667969 L 154.742188 94.816406 L 151.773438 94.105469 L 154.144531 92.179688 L 153.902344 89.128906 L 156.46875 90.792969 L 159.289062 89.621094 L 158.5 92.574219 L 160.488281 94.894531 L 157.4375 95.058594 Z M 155.84375 97.667969 " fill-opacity="1" fill-rule="nonzero"/><g clip-path="url(#8483c3e2a1)"><path fill="#ffffff" d="M 202.648438 83.964844 L 203.683594 80.296875 L 201.246094 77.363281 L 205.054688 77.214844 L 207.089844 73.992188 L 208.40625 77.566406 L 212.101562 78.507812 L 209.109375 80.867188 L 209.359375 84.667969 L 206.1875 82.554688 Z M 202.648438 83.964844 " fill-opacity="1" fill-rule="nonzero"/></g><path fill="#ffffff" d="M 220.457031 103.800781 L 223.46875 101.46875 L 223.257812 97.660156 L 226.40625 99.804688 L 229.957031 98.425781 L 228.890625 102.085938 L 231.300781 105.039062 L 227.492188 105.15625 L 225.429688 108.359375 L 224.140625 104.773438 Z M 220.457031 103.800781 " fill-opacity="1" fill-rule="nonzero"/><g clip-path="url(#5cd705ddc4)"><path fill="#ffffff" d="M 245.230469 109.328125 L 248.996094 108.746094 L 250.652344 105.3125 L 252.371094 108.714844 L 256.144531 109.230469 L 253.441406 111.914062 L 254.117188 115.667969 L 250.730469 113.925781 L 247.375 115.726562 L 247.984375 111.964844 Z M 245.230469 109.328125 " fill-opacity="1" fill-rule="nonzero"/></g><path fill="#ffffff" d="M 243.3125 91.433594 L 245.855469 91.039062 L 246.976562 88.71875 L 248.136719 91.019531 L 250.6875 91.367188 L 248.859375 93.179688 L 249.316406 95.714844 L 247.027344 94.539062 L 244.757812 95.757812 L 245.171875 93.214844 Z M 243.3125 91.433594 " fill-opacity="1" fill-rule="nonzero"/><g fill="#ffffff" fill-opacity="1"><g transform="translate(124.842553, 265.647066)"><g><path d="M 6.84375 0 L 6.84375 -18.953125 L 0.15625 -18.953125 L 0.15625 -23.890625 L 19.578125 -23.890625 L 19.578125 -18.953125 L 12.890625 -18.953125 L 12.890625 0 Z M 6.84375 0 "/></g></g></g><g fill="#ffffff" fill-opacity="1"><g transform="translate(147.817624, 265.647066)"><g><path d="M 1.296875 0 L 1.296875 -4.5625 L 3.953125 -4.5625 L 3.890625 -19.3125 L 1.296875 -19.3125 L 1.296875 -23.890625 L 12.3125 -23.890625 L 12.3125 -19.3125 L 9.6875 -19.3125 L 9.625 -4.5625 L 12.3125 -4.5625 L 12.3125 0 Z M 1.296875 0 "/></g></g></g><g fill="#ffffff" fill-opacity="1"><g transform="translate(164.668345, 265.647066)"><g><path d="M 2.265625 0 L 2.265625 -23.890625 L 8.328125 -23.890625 L 8.328125 -14.390625 L 15.71875 -23.890625 L 22.421875 -23.890625 L 14 -13.484375 L 22.421875 0 L 15.96875 0 L 10.59375 -9.234375 L 8.328125 -6.453125 L 8.328125 0 Z M 2.265625 0 "/></g></g></g><g fill="#ffffff" fill-opacity="1"><g transform="translate(190.33294, 265.647066)"><g><path d="M 0 0 L 7 -23.890625 L 16.84375 -23.890625 L 23.84375 0 L 17.4375 0 L 16.234375 -4.765625 L 7.609375 -4.765625 L 6.421875 0 Z M 8.8125 -9.4375 L 15.03125 -9.4375 L 12.515625 -19.3125 L 11.34375 -19.3125 Z M 8.8125 -9.4375 "/></g></g></g><g fill="#ffffff" fill-opacity="1"><g transform="translate(217.42331, 265.647066)"><g><path d="M 5.0625 0 L 0 -23.890625 L 6.96875 -23.890625 L 9.53125 -4.5625 L 10.65625 -4.5625 L 13.25 -23.890625 L 19.46875 -23.890625 L 22.0625 -4.5625 L 23.203125 -4.5625 L 25.765625 -23.890625 L 32.734375 -23.890625 L 27.671875 0 L 18.046875 0 L 16.359375 -11.015625 L 14.6875 0 Z M 5.0625 0 "/></g></g></g><g fill="#ffffff" fill-opacity="1"><g transform="translate(175.950956, 283.499216)"><g><path d="M 0.390625 0 C 0.316406 0 0.253906 -0.0234375 0.203125 -0.078125 C 0.160156 -0.128906 0.140625 -0.1875 0.140625 -0.25 C 0.140625 -0.289062 0.144531 -0.328125 0.15625 -0.359375 L 2.984375 -7.984375 C 3.003906 -8.078125 3.050781 -8.15625 3.125 -8.21875 C 3.195312 -8.28125 3.296875 -8.3125 3.421875 -8.3125 L 4.9375 -8.3125 C 5.0625 -8.3125 5.160156 -8.28125 5.234375 -8.21875 C 5.304688 -8.15625 5.359375 -8.078125 5.390625 -7.984375 L 8.203125 -0.359375 C 8.222656 -0.328125 8.234375 -0.289062 8.234375 -0.25 C 8.234375 -0.1875 8.207031 -0.128906 8.15625 -0.078125 C 8.101562 -0.0234375 8.039062 0 7.96875 0 L 6.71875 0 C 6.613281 0 6.53125 -0.0234375 6.46875 -0.078125 C 6.414062 -0.140625 6.378906 -0.191406 6.359375 -0.234375 L 5.859375 -1.5625 L 2.5 -1.5625 L 2 -0.234375 C 1.976562 -0.191406 1.941406 -0.140625 1.890625 -0.078125 C 1.835938 -0.0234375 1.753906 0 1.640625 0 Z M 2.953125 -3.09375 L 5.40625 -3.09375 L 4.1875 -6.5 Z M 2.953125 -3.09375 "/></g></g></g><g fill="#ffffff" fill-opacity="1"><g transform="translate(190.838791, 283.499216)"><g><path d="M 1.15625 0 C 1.082031 0 1.015625 -0.0234375 0.953125 -0.078125 C 0.898438 -0.140625 0.875 -0.210938 0.875 -0.296875 L 0.875 -8.015625 C 0.875 -8.097656 0.898438 -8.164062 0.953125 -8.21875 C 1.015625 -8.28125 1.082031 -8.3125 1.15625 -8.3125 L 2.53125 -8.3125 C 2.601562 -8.3125 2.664062 -8.28125 2.71875 -8.21875 C 2.78125 -8.164062 2.8125 -8.097656 2.8125 -8.015625 L 2.8125 -0.296875 C 2.8125 -0.210938 2.78125 -0.140625 2.71875 -0.078125 C 2.664062 -0.0234375 2.601562 0 2.53125 0 Z M 1.15625 0 "/></g></g></g></svg>