<?xml version="1.0" encoding="UTF-8"?>
<!DOCTYPE svg PUBLIC "-//W3C//DTD SVG 1.1//EN" "http://www.w3.org/Graphics/SVG/1.1/DTD/svg11.dtd">
<svg xmlns="http://www.w3.org/2000/svg" version="1.1" width="200px" height="200px" style="shape-rendering:geometricPrecision; text-rendering:geometricPrecision; image-rendering:optimizeQuality; fill-rule:evenodd; clip-rule:evenodd" xmlns:xlink="http://www.w3.org/1999/xlink">
<g><path style="opacity:1" fill="#050605" d="M 45.5,-0.5 C 83.8333,-0.5 122.167,-0.5 160.5,-0.5C 158.953,2.87866 159.62,6.21199 162.5,9.5C 161.549,14.7698 161.215,20.1032 161.5,25.5C 168.555,25.1588 175.555,25.1588 182.5,25.5C 184.355,25.6598 185.688,24.9931 186.5,23.5C 190.106,20.2167 194.44,18.8833 199.5,19.5C 199.5,25.5 199.5,31.5 199.5,37.5C 193.158,37.3338 186.825,37.5005 180.5,38C 179.944,38.3826 179.611,38.8826 179.5,39.5C 178.833,39.5 178.167,39.5 177.5,39.5C 167.621,39.2505 157.954,39.9172 148.5,41.5C 144.958,41.8128 141.625,41.4794 138.5,40.5C 138.665,37.4816 138.498,34.4816 138,31.5C 137.722,30.5842 137.222,29.9175 136.5,29.5C 132.827,21.8992 126.66,17.8992 118,17.5C 116.167,17.6667 114.333,17.8333 112.5,18C 109.046,19.3024 105.712,20.8024 102.5,22.5C 91.5831,19.1506 81.5831,20.8172 72.5,27.5C 68.9506,28.8806 65.7839,30.8806 63,33.5C 61.9027,38.3612 59.7361,42.6945 56.5,46.5C 49.8223,46.7888 43.1556,47.2888 36.5,48C 35.5842,48.2784 34.9175,48.7784 34.5,49.5C 33.5,49.5 32.5,49.5 31.5,49.5C 28.8333,49.5 26.1667,49.5 23.5,49.5C 21.5,49.5 19.5,49.5 17.5,49.5C 17.5,37.5 17.5,25.5 17.5,13.5C 18.7899,12.9423 19.6232,11.9423 20,10.5C 23.9785,12.1965 28.1452,13.1965 32.5,13.5C 33.937,14.7255 35.6036,15.7255 37.5,16.5C 38.9158,22.3093 37.4158,22.6427 33,17.5C 31.2861,22.0827 31.1194,26.7494 32.5,31.5C 35.925,32.7048 39.2583,32.3714 42.5,30.5C 45.2694,32.062 47.936,33.8953 50.5,36C 52.9009,37.0391 55.2343,37.2058 57.5,36.5C 58.0402,35.2519 58.7069,34.0852 59.5,33C 57.2787,28.3393 55.4454,23.5059 54,18.5C 53,17.5 52,16.5 51,15.5C 48.8493,10.1937 47.0159,4.86041 45.5,-0.5 Z"/></g>
<g><path style="opacity:1" fill="#3b422f" d="M 13.5,-0.5 C 17.5,-0.5 21.5,-0.5 25.5,-0.5C 25.6287,1.2161 25.962,2.88277 26.5,4.5C 27.2341,5.70792 27.5674,7.04125 27.5,8.5C 24.9339,8.65562 22.4339,8.32229 20,7.5C 18.9889,8.05558 18.1556,8.72225 17.5,9.5C 16.3412,8.25971 15.3412,6.92637 14.5,5.5C 13.5386,3.73535 13.2053,1.73535 13.5,-0.5 Z"/></g>
<g><path style="opacity:1" fill="#050604" d="M 13.5,35.5 C 13.5,40.5 13.5,45.5 13.5,50.5C 12.8333,50.5 12.5,50.8333 12.5,51.5C 8.16667,51.5 3.83333,51.5 -0.5,51.5C -0.5,42.1667 -0.5,32.8333 -0.5,23.5C 0.391268,21.7095 1.39127,19.8761 2.5,18C 1.36293,14.2158 1.36293,10.3825 2.5,6.5C 6.16667,6.5 9.83333,6.5 13.5,6.5C 13.5,16.1667 13.5,25.8333 13.5,35.5 Z"/></g>
<g><path style="opacity:1" fill="#151b16" d="M -0.5,-0.5 C 4.16667,-0.5 8.83333,-0.5 13.5,-0.5C 13.2053,1.73535 13.5386,3.73535 14.5,5.5C 14.8274,15.6806 14.494,25.6806 13.5,35.5C 13.5,25.8333 13.5,16.1667 13.5,6.5C 9.83333,6.5 6.16667,6.5 2.5,6.5C 1.36293,10.3825 1.36293,14.2158 2.5,18C 1.39127,19.8761 0.391268,21.7095 -0.5,23.5C -0.5,15.5 -0.5,7.5 -0.5,-0.5 Z"/></g>
<g><path style="opacity:1" fill="#202a21" d="M 32.5,13.5 C 28.1452,13.1965 23.9785,12.1965 20,10.5C 19.6232,11.9423 18.7899,12.9423 17.5,13.5C 17.5,12.1667 17.5,10.8333 17.5,9.5C 18.1556,8.72225 18.9889,8.05558 20,7.5C 22.4339,8.32229 24.9339,8.65562 27.5,8.5C 27.5674,7.04125 27.2341,5.70792 26.5,4.5C 29.9664,6.09163 33.6331,6.75829 37.5,6.5C 37.67,5.17793 37.3366,4.01127 36.5,3C 38.1012,2.72662 39.6012,2.22662 41,1.5C 42.2937,2.8544 42.4604,4.18774 41.5,5.5C 44.8853,7.14595 46.052,9.81261 45,13.5C 41.125,15.0478 37.625,14.3811 34.5,11.5C 33.8182,12.2427 33.1515,12.9094 32.5,13.5 Z"/></g>
<g><path style="opacity:1" fill="#1a1f1e" d="M 187.5,-0.5 C 191.5,-0.5 195.5,-0.5 199.5,-0.5C 199.5,6.16667 199.5,12.8333 199.5,19.5C 194.44,18.8833 190.106,20.2167 186.5,23.5C 184.833,23.5 183.167,23.5 181.5,23.5C 181.906,20.4114 183.24,17.7447 185.5,15.5C 186.117,10.1139 186.784,4.78053 187.5,-0.5 Z"/></g>
<g><path style="opacity:1" fill="#2a2a28" d="M 14.5,5.5 C 15.3412,6.92637 16.3412,8.25971 17.5,9.5C 17.5,10.8333 17.5,12.1667 17.5,13.5C 17.5,25.5 17.5,37.5 17.5,49.5C 19.5,49.5 21.5,49.5 23.5,49.5C 20.3752,50.4794 17.0419,50.8128 13.5,50.5C 13.5,45.5 13.5,40.5 13.5,35.5C 14.494,25.6806 14.8274,15.6806 14.5,5.5 Z"/></g>
<g><path style="opacity:1" fill="#0f110d" d="M 160.5,-0.5 C 169.5,-0.5 178.5,-0.5 187.5,-0.5C 186.784,4.78053 186.117,10.1139 185.5,15.5C 183.24,17.7447 181.906,20.4114 181.5,23.5C 183.167,23.5 184.833,23.5 186.5,23.5C 185.688,24.9931 184.355,25.6598 182.5,25.5C 175.555,25.1588 168.555,25.1588 161.5,25.5C 161.215,20.1032 161.549,14.7698 162.5,9.5C 159.62,6.21199 158.953,2.87866 160.5,-0.5 Z"/></g>
<g><path style="opacity:1" fill="#9d8c77" d="M 129.5,23.5 C 128.616,27.3737 127.282,31.0403 125.5,34.5C 122.199,32.4232 118.532,31.4232 114.5,31.5C 111.683,30.6276 108.683,30.6276 105.5,31.5C 103.68,31.3507 102.18,30.6841 101,29.5C 99.9887,30.3366 98.8221,30.67 97.5,30.5C 103.959,22.6056 112.292,19.1056 122.5,20C 125.166,20.6663 127.5,21.833 129.5,23.5 Z"/></g>
<g><path style="opacity:1" fill="#151d17" d="M 25.5,-0.5 C 32.1667,-0.5 38.8333,-0.5 45.5,-0.5C 47.0159,4.86041 48.8493,10.1937 51,15.5C 52,16.5 53,17.5 54,18.5C 55.4454,23.5059 57.2787,28.3393 59.5,33C 58.7069,34.0852 58.0402,35.2519 57.5,36.5C 55.2343,37.2058 52.9009,37.0391 50.5,36C 47.936,33.8953 45.2694,32.062 42.5,30.5C 39.2583,32.3714 35.925,32.7048 32.5,31.5C 31.1194,26.7494 31.2861,22.0827 33,17.5C 37.4158,22.6427 38.9158,22.3093 37.5,16.5C 35.6036,15.7255 33.937,14.7255 32.5,13.5C 33.1515,12.9094 33.8182,12.2427 34.5,11.5C 37.625,14.3811 41.125,15.0478 45,13.5C 46.052,9.81261 44.8853,7.14595 41.5,5.5C 42.4604,4.18774 42.2937,2.8544 41,1.5C 39.6012,2.22662 38.1012,2.72662 36.5,3C 37.3366,4.01127 37.67,5.17793 37.5,6.5C 33.6331,6.75829 29.9664,6.09163 26.5,4.5C 25.962,2.88277 25.6287,1.2161 25.5,-0.5 Z"/></g>
<g><path style="opacity:1" fill="#e3e0e0" d="M 136.5,29.5 C 136.5,30.1667 136.167,30.5 135.5,30.5C 133.281,28.4849 131.281,26.1515 129.5,23.5C 127.5,21.833 125.166,20.6663 122.5,20C 112.292,19.1056 103.959,22.6056 97.5,30.5C 95.8333,31.5 94.5,32.8333 93.5,34.5C 91.1667,36.1667 89.1667,38.1667 87.5,40.5C 85.1162,42.8847 82.4495,44.8847 79.5,46.5C 83.9916,39.125 90.325,32.2916 98.5,26C 96.2084,24.618 93.875,24.118 91.5,24.5C 90.4096,25.727 89.0762,26.5604 87.5,27C 88.6956,27.6543 88.6956,28.1543 87.5,28.5C 82.6568,27.5465 77.6568,27.2131 72.5,27.5C 81.5831,20.8172 91.5831,19.1506 102.5,22.5C 105.712,20.8024 109.046,19.3024 112.5,18C 114.333,17.8333 116.167,17.6667 118,17.5C 126.66,17.8992 132.827,21.8992 136.5,29.5 Z"/></g>
<g><path style="opacity:1" fill="#f4f4f7" d="M 79.5,46.5 C 77.9826,46.5106 76.8159,47.1772 76,48.5C 74.187,47.3909 73.3537,48.0576 73.5,50.5C 72.1779,50.67 71.0113,50.3366 70,49.5C 69.1499,44.6286 67.3166,40.1286 64.5,36C 65.7433,34.8455 66.7433,33.5122 67.5,32C 69.9739,31.8871 71.9739,30.8871 73.5,29C 72.944,28.6174 72.6107,28.1174 72.5,27.5C 77.6568,27.2131 82.6568,27.5465 87.5,28.5C 88.6956,28.1543 88.6956,27.6543 87.5,27C 89.0762,26.5604 90.4096,25.727 91.5,24.5C 93.875,24.118 96.2084,24.618 98.5,26C 90.325,32.2916 83.9916,39.125 79.5,46.5 Z"/></g>
<g><path style="opacity:1" fill="#685f54" d="M 114.5,31.5 C 119.107,33.6077 122.107,37.1077 123.5,42C 123.272,42.3988 122.938,42.5654 122.5,42.5C 121.167,41.8333 120.167,40.8333 119.5,39.5C 117.443,35.6483 114.11,33.4816 109.5,33C 104.017,32.1499 98.6834,32.6499 93.5,34.5C 94.5,32.8333 95.8333,31.5 97.5,30.5C 98.8221,30.67 99.9887,30.3366 101,29.5C 102.18,30.6841 103.68,31.3507 105.5,31.5C 108.683,30.6276 111.683,30.6276 114.5,31.5 Z"/></g>
<g><path style="opacity:1" fill="#897566" d="M 114.5,31.5 C 118.532,31.4232 122.199,32.4232 125.5,34.5C 124.107,39.9165 124.441,45.2498 126.5,50.5C 127.5,50.5 128.5,50.5 129.5,50.5C 129.5,50.8333 129.5,51.1667 129.5,51.5C 128.833,51.5 128.5,51.8333 128.5,52.5C 128.5,52.8333 128.5,53.1667 128.5,53.5C 126.833,53.5 125.167,53.5 123.5,53.5C 123.5,53.1667 123.5,52.8333 123.5,52.5C 124.695,52.1344 125.361,51.301 125.5,50C 123.807,47.7799 122.807,45.2799 122.5,42.5C 122.938,42.5654 123.272,42.3988 123.5,42C 122.107,37.1077 119.107,33.6077 114.5,31.5 Z"/></g>
<g><path style="opacity:1" fill="#0f0807" d="M 119.5,39.5 C 118.833,39.1667 118.167,38.8333 117.5,38.5C 109.972,37.3388 102.305,37.5054 94.5,39C 92.2199,39.2326 90.2199,40.066 88.5,41.5C 87.8933,41.3764 87.56,41.0431 87.5,40.5C 89.1667,38.1667 91.1667,36.1667 93.5,34.5C 98.6834,32.6499 104.017,32.1499 109.5,33C 114.11,33.4816 117.443,35.6483 119.5,39.5 Z"/></g>
<g><path style="opacity:1" fill="#373616" d="M 199.5,37.5 C 199.5,37.8333 199.5,38.1667 199.5,38.5C 192.833,38.8333 186.167,39.1667 179.5,39.5C 179.611,38.8826 179.944,38.3826 180.5,38C 186.825,37.5005 193.158,37.3338 199.5,37.5 Z"/></g>
<g><path style="opacity:1" fill="#aaa541" d="M 199.5,38.5 C 199.5,39.1667 199.5,39.8333 199.5,40.5C 184.836,41.227 170.17,41.8936 155.5,42.5C 155.5,42.1667 155.5,41.8333 155.5,41.5C 163.02,41.2826 170.354,40.6159 177.5,39.5C 178.167,39.5 178.833,39.5 179.5,39.5C 186.167,39.1667 192.833,38.8333 199.5,38.5 Z"/></g>
<g><path style="opacity:1" fill="#484716" d="M 177.5,39.5 C 170.354,40.6159 163.02,41.2826 155.5,41.5C 153.167,41.5 150.833,41.5 148.5,41.5C 157.954,39.9172 167.621,39.2505 177.5,39.5 Z"/></g>
<g><path style="opacity:1" fill="#747120" d="M 138.5,40.5 C 141.625,41.4794 144.958,41.8128 148.5,41.5C 150.833,41.5 153.167,41.5 155.5,41.5C 155.5,41.8333 155.5,42.1667 155.5,42.5C 149.491,42.701 143.491,43.0343 137.5,43.5C 137.5,43.1667 137.5,42.8333 137.5,42.5C 137.328,41.5084 137.662,40.8417 138.5,40.5 Z"/></g>
<g><path style="opacity:1" fill="#452a1e" d="M 117.5,38.5 C 114.5,38.5 111.5,38.5 108.5,38.5C 102.871,39.4892 97.204,40.3225 91.5,41C 87.0501,43.28 82.7167,45.78 78.5,48.5C 78.8333,47.8333 79.1667,47.1667 79.5,46.5C 82.4495,44.8847 85.1162,42.8847 87.5,40.5C 87.56,41.0431 87.8933,41.3764 88.5,41.5C 90.2199,40.066 92.2199,39.2326 94.5,39C 102.305,37.5054 109.972,37.3388 117.5,38.5 Z"/></g>
<g><path style="opacity:1" fill="#cd9671" d="M 108.5,38.5 C 111.5,38.5 114.5,38.5 117.5,38.5C 118.167,38.8333 118.833,39.1667 119.5,39.5C 120.167,40.8333 121.167,41.8333 122.5,42.5C 122.807,45.2799 123.807,47.7799 125.5,50C 125.361,51.301 124.695,52.1344 123.5,52.5C 120.699,51.6226 118.032,50.4559 115.5,49C 116.833,48 118.167,47 119.5,46C 117.796,44.3642 116.296,42.5309 115,40.5C 110.913,40.2019 106.746,40.5352 102.5,41.5C 104.5,40.5 106.5,39.5 108.5,38.5 Z"/></g>
<g><path style="opacity:1" fill="#b3a6a0" d="M 129.5,23.5 C 131.281,26.1515 133.281,28.4849 135.5,30.5C 134.12,31.7065 132.953,31.3731 132,29.5C 131.51,30.7932 131.343,32.1266 131.5,33.5C 130.167,33.5 128.833,33.5 127.5,33.5C 127.62,37.0418 127.286,40.5418 126.5,44C 126.358,46.9122 127.691,48.4122 130.5,48.5C 130.167,49.1667 129.833,49.8333 129.5,50.5C 128.5,50.5 127.5,50.5 126.5,50.5C 124.441,45.2498 124.107,39.9165 125.5,34.5C 127.282,31.0403 128.616,27.3737 129.5,23.5 Z"/></g>
<g><path style="opacity:1" fill="#61351f" d="M 108.5,38.5 C 106.5,39.5 104.5,40.5 102.5,41.5C 97.1667,43.8333 91.8333,46.1667 86.5,48.5C 82.7894,49.3443 79.1228,50.3443 75.5,51.5C 75.5,51.1667 75.5,50.8333 75.5,50.5C 76.5,49.8333 77.5,49.1667 78.5,48.5C 82.7167,45.78 87.0501,43.28 91.5,41C 97.204,40.3225 102.871,39.4892 108.5,38.5 Z"/></g>
<g><path style="opacity:1" fill="#c9c1c0" d="M 135.5,30.5 C 136.167,30.5 136.5,30.1667 136.5,29.5C 137.222,29.9175 137.722,30.5842 138,31.5C 138.498,34.4816 138.665,37.4816 138.5,40.5C 137.662,40.8417 137.328,41.5084 137.5,42.5C 135.167,44.5 132.833,46.5 130.5,48.5C 127.691,48.4122 126.358,46.9122 126.5,44C 127.286,40.5418 127.62,37.0418 127.5,33.5C 128.833,33.5 130.167,33.5 131.5,33.5C 131.343,32.1266 131.51,30.7932 132,29.5C 132.953,31.3731 134.12,31.7065 135.5,30.5 Z"/></g>
<g><path style="opacity:1" fill="#ebe654" d="M 137.5,44.5 C 148.838,44.3335 160.172,44.5001 171.5,45C 172.833,45.6667 174.167,46.3333 175.5,47C 174.027,47.7096 173.36,48.8762 173.5,50.5C 168.619,49.804 168.286,51.304 172.5,55C 167.925,56.0604 164.258,58.5604 161.5,62.5C 162.415,63.3279 163.081,64.3279 163.5,65.5C 161.915,70.0101 161.081,74.6768 161,79.5C 160.667,79.8333 160.333,80.1667 160,80.5C 159.814,78.0995 159.314,75.7662 158.5,73.5C 153.51,77.7786 152.51,82.7786 155.5,88.5C 155.945,91.2179 155.279,93.8846 153.5,96.5C 156.167,98.5 156.167,100.5 153.5,102.5C 155.021,104.291 156.854,105.624 159,106.5C 159.896,109.025 159.396,111.192 157.5,113C 160.616,114.624 162.45,113.457 163,109.5C 163.5,110.667 164.333,111.5 165.5,112C 164.833,113 164.167,114 163.5,115C 170.107,119.376 173.774,125.543 174.5,133.5C 175.904,134.999 176.57,134.666 176.5,132.5C 174.838,124.961 176.005,124.628 180,131.5C 180.333,130.5 180.667,129.5 181,128.5C 182.675,129.595 183.842,131.095 184.5,133C 187.937,134.095 191.27,134.595 194.5,134.5C 195.788,136.952 197.454,138.952 199.5,140.5C 199.5,146.167 199.5,151.833 199.5,157.5C 195.281,155.856 190.947,154.356 186.5,153C 187.167,152.667 187.833,152.333 188.5,152C 186.866,151.506 185.199,151.34 183.5,151.5C 183.5,150.167 183.5,148.833 183.5,147.5C 180.212,147.073 177.212,147.74 174.5,149.5C 173.692,147.577 173.192,145.577 173,143.5C 172.667,143.833 172.333,144.167 172,144.5C 170.888,162.863 170.055,181.197 169.5,199.5C 169.167,199.5 168.833,199.5 168.5,199.5C 168.5,182.833 168.5,166.167 168.5,149.5C 170.381,143.675 169.381,138.342 165.5,133.5C 165.5,132.833 165.167,132.5 164.5,132.5C 164.5,131.5 164.5,130.5 164.5,129.5C 162.833,129.5 161.167,129.5 159.5,129.5C 151.514,130.737 143.514,130.737 135.5,129.5C 133.5,126.833 130.833,125.5 127.5,125.5C 125.315,119.065 126.815,113.399 132,108.5C 134.133,96.9673 135.133,85.3006 135,73.5C 136.11,71.9632 137.61,71.2965 139.5,71.5C 140.07,65.3181 140.07,59.3181 139.5,53.5C 139.167,53.5 138.833,53.5 138.5,53.5C 135.841,53.0826 133.508,52.0826 131.5,50.5C 133.167,48.1667 135.167,46.1667 137.5,44.5 Z"/></g>
<g><path style="opacity:1" fill="#e3ae88" d="M 123.5,52.5 C 123.5,52.8333 123.5,53.1667 123.5,53.5C 122.833,53.8333 122.167,54.1667 121.5,54.5C 114.268,52.0352 106.935,51.3685 99.5,52.5C 102.458,51.946 105.125,50.6126 107.5,48.5C 106.5,48.1667 105.5,47.8333 104.5,47.5C 98.3923,49.1888 92.3923,49.5222 86.5,48.5C 91.8333,46.1667 97.1667,43.8333 102.5,41.5C 106.746,40.5352 110.913,40.2019 115,40.5C 116.296,42.5309 117.796,44.3642 119.5,46C 118.167,47 116.833,48 115.5,49C 118.032,50.4559 120.699,51.6226 123.5,52.5 Z"/></g>
<g><path style="opacity:1" fill="#ebe55b" d="M 199.5,40.5 C 199.5,41.5 199.5,42.5 199.5,43.5C 195.445,43.1758 191.445,43.5091 187.5,44.5C 188.407,46.2559 188.407,48.0892 187.5,50C 187.493,51.8122 188.16,53.3122 189.5,54.5C 187.993,55.7388 186.826,55.4054 186,53.5C 184.894,56.1331 183.06,58.1331 180.5,59.5C 176.986,65.4714 174.486,71.4714 173,77.5C 172.667,76.1667 172.333,74.8333 172,73.5C 170.744,76.5221 170.411,79.5221 171,82.5C 169.667,84.1667 168.333,85.8333 167,87.5C 166.094,84.8792 165.594,85.0459 165.5,88C 168.133,96.9027 170.966,105.736 174,114.5C 179.78,118.972 185.947,122.806 192.5,126C 194.677,127.202 197.011,127.702 199.5,127.5C 199.5,131.833 199.5,136.167 199.5,140.5C 197.454,138.952 195.788,136.952 194.5,134.5C 191.27,134.595 187.937,134.095 184.5,133C 183.842,131.095 182.675,129.595 181,128.5C 180.667,129.5 180.333,130.5 180,131.5C 176.005,124.628 174.838,124.961 176.5,132.5C 176.57,134.666 175.904,134.999 174.5,133.5C 173.774,125.543 170.107,119.376 163.5,115C 164.167,114 164.833,113 165.5,112C 164.333,111.5 163.5,110.667 163,109.5C 162.45,113.457 160.616,114.624 157.5,113C 159.396,111.192 159.896,109.025 159,106.5C 156.854,105.624 155.021,104.291 153.5,102.5C 156.167,100.5 156.167,98.5 153.5,96.5C 155.279,93.8846 155.945,91.2179 155.5,88.5C 152.51,82.7786 153.51,77.7786 158.5,73.5C 159.314,75.7662 159.814,78.0995 160,80.5C 160.333,80.1667 160.667,79.8333 161,79.5C 161.081,74.6768 161.915,70.0101 163.5,65.5C 163.081,64.3279 162.415,63.3279 161.5,62.5C 164.258,58.5604 167.925,56.0604 172.5,55C 168.286,51.304 168.619,49.804 173.5,50.5C 173.36,48.8762 174.027,47.7096 175.5,47C 174.167,46.3333 172.833,45.6667 171.5,45C 160.172,44.5001 148.838,44.3335 137.5,44.5C 137.5,44.1667 137.5,43.8333 137.5,43.5C 143.491,43.0343 149.491,42.701 155.5,42.5C 170.17,41.8936 184.836,41.227 199.5,40.5 Z"/></g>
<g><path style="opacity:1" fill="#1d1b03" d="M 56.5,46.5 C 56.6716,47.4916 56.3382,48.1583 55.5,48.5C 48.4903,48.6675 41.4903,49.0009 34.5,49.5C 34.9175,48.7784 35.5842,48.2784 36.5,48C 43.1556,47.2888 49.8223,46.7888 56.5,46.5 Z"/></g>
<g><path style="opacity:1" fill="#9e955f" d="M 137.5,42.5 C 137.5,42.8333 137.5,43.1667 137.5,43.5C 137.5,43.8333 137.5,44.1667 137.5,44.5C 135.167,46.1667 133.167,48.1667 131.5,50.5C 130.833,50.8333 130.167,51.1667 129.5,51.5C 129.5,51.1667 129.5,50.8333 129.5,50.5C 129.833,49.8333 130.167,49.1667 130.5,48.5C 132.833,46.5 135.167,44.5 137.5,42.5 Z"/></g>
<g><path style="opacity:1" fill="#e8e8e8" d="M 72.5,27.5 C 72.6107,28.1174 72.944,28.6174 73.5,29C 71.9739,30.8871 69.9739,31.8871 67.5,32C 66.7433,33.5122 65.7433,34.8455 64.5,36C 67.3166,40.1286 69.1499,44.6286 70,49.5C 71.0113,50.3366 72.1779,50.67 73.5,50.5C 73.3537,48.0576 74.187,47.3909 76,48.5C 76.8159,47.1772 77.9826,46.5106 79.5,46.5C 79.1667,47.1667 78.8333,47.8333 78.5,48.5C 77.5,49.1667 76.5,49.8333 75.5,50.5C 67.1094,56.6027 63.1094,64.936 63.5,75.5C 62.8333,75.8333 62.1667,76.1667 61.5,76.5C 59.2036,75.267 57.8702,73.267 57.5,70.5C 55.8984,64.2871 55.2318,57.9537 55.5,51.5C 55.5,50.5 55.5,49.5 55.5,48.5C 56.3382,48.1583 56.6716,47.4916 56.5,46.5C 59.7361,42.6945 61.9027,38.3612 63,33.5C 65.7839,30.8806 68.9506,28.8806 72.5,27.5 Z"/></g>
<g><path style="opacity:1" fill="#5f5912" d="M 23.5,49.5 C 26.1667,49.5 28.8333,49.5 31.5,49.5C 29.1667,50.1667 26.8333,50.8333 24.5,51.5C 21.8333,51.5 19.1667,51.5 16.5,51.5C 15.1667,51.5 13.8333,51.5 12.5,51.5C 12.5,50.8333 12.8333,50.5 13.5,50.5C 17.0419,50.8128 20.3752,50.4794 23.5,49.5 Z"/></g>
<g><path style="opacity:1" fill="#8e8a18" d="M 55.5,48.5 C 55.5,49.5 55.5,50.5 55.5,51.5C 55.1667,51.5 54.8333,51.5 54.5,51.5C 44.6809,51.095 34.6809,51.095 24.5,51.5C 26.8333,50.8333 29.1667,50.1667 31.5,49.5C 32.5,49.5 33.5,49.5 34.5,49.5C 41.4903,49.0009 48.4903,48.6675 55.5,48.5 Z"/></g>
<g><path style="opacity:1" fill="#888215" d="M -0.5,51.5 C 3.83333,51.5 8.16667,51.5 12.5,51.5C 13.8333,51.5 15.1667,51.5 16.5,51.5C 11.0399,52.7373 5.3732,53.404 -0.5,53.5C -0.5,52.8333 -0.5,52.1667 -0.5,51.5 Z"/></g>
<g><path style="opacity:1" fill="#e3e391" d="M 131.5,50.5 C 133.508,52.0826 135.841,53.0826 138.5,53.5C 137.833,53.5 137.167,53.5 136.5,53.5C 134.219,53.0773 132.552,53.744 131.5,55.5C 130.9,54.0998 129.9,53.0998 128.5,52.5C 128.5,51.8333 128.833,51.5 129.5,51.5C 130.167,51.1667 130.833,50.8333 131.5,50.5 Z"/></g>
<g><path style="opacity:1" fill="#ebe668" d="M 199.5,43.5 C 199.5,46.8333 199.5,50.1667 199.5,53.5C 194.881,55.143 190.547,57.3096 186.5,60C 186.117,64.2156 183.951,67.049 180,68.5C 178.202,75.9419 176.702,83.4419 175.5,91C 175.882,94.3672 176.048,97.8672 176,101.5C 177.286,104.405 178.286,107.405 179,110.5C 183.554,114.877 188.054,119.377 192.5,124C 194.743,125.136 197.076,125.97 199.5,126.5C 199.5,126.833 199.5,127.167 199.5,127.5C 197.011,127.702 194.677,127.202 192.5,126C 185.947,122.806 179.78,118.972 174,114.5C 170.966,105.736 168.133,96.9027 165.5,88C 165.594,85.0459 166.094,84.8792 167,87.5C 168.333,85.8333 169.667,84.1667 171,82.5C 170.411,79.5221 170.744,76.5221 172,73.5C 172.333,74.8333 172.667,76.1667 173,77.5C 174.486,71.4714 176.986,65.4714 180.5,59.5C 183.06,58.1331 184.894,56.1331 186,53.5C 186.826,55.4054 187.993,55.7388 189.5,54.5C 188.16,53.3122 187.493,51.8122 187.5,50C 188.407,48.0892 188.407,46.2559 187.5,44.5C 191.445,43.5091 195.445,43.1758 199.5,43.5 Z"/></g>
<g><path style="opacity:1" fill="#bfba15" d="M 54.5,51.5 C 36.1424,52.1009 17.8091,53.1009 -0.5,54.5C -0.5,54.1667 -0.5,53.8333 -0.5,53.5C 5.3732,53.404 11.0399,52.7373 16.5,51.5C 19.1667,51.5 21.8333,51.5 24.5,51.5C 34.6809,51.095 44.6809,51.095 54.5,51.5 Z"/></g>
<g><path style="opacity:1" fill="#eae5cf" d="M 136.5,53.5 C 136.672,54.4916 136.338,55.1583 135.5,55.5C 134.833,55.5 134.5,55.8333 134.5,56.5C 133.209,56.7373 132.209,56.404 131.5,55.5C 132.552,53.744 134.219,53.0773 136.5,53.5 Z"/></g>
<g><path style="opacity:1" fill="#d7b6aa" d="M 121.5,54.5 C 119.739,55.3127 118.072,56.3127 116.5,57.5C 112.585,57.7533 108.919,57.0867 105.5,55.5C 102.833,55.5 100.167,55.5 97.5,55.5C 93.7487,56.2102 90.082,57.2102 86.5,58.5C 86.9371,56.9256 87.9371,55.7589 89.5,55C 92.6665,53.4434 95.9998,52.6101 99.5,52.5C 106.935,51.3685 114.268,52.0352 121.5,54.5 Z"/></g>
<g><path style="opacity:1" fill="#5f5e4c" d="M 136.5,53.5 C 137.167,53.5 137.833,53.5 138.5,53.5C 138.833,53.5 139.167,53.5 139.5,53.5C 139.784,55.4147 139.451,57.0813 138.5,58.5C 137.9,57.1001 136.9,56.1001 135.5,55.5C 136.338,55.1583 136.672,54.4916 136.5,53.5 Z"/></g>
<g><path style="opacity:1" fill="#e9e635" d="M 54.5,51.5 C 54.5,51.8333 54.5,52.1667 54.5,52.5C 51.8431,52.162 49.5098,52.8287 47.5,54.5C 48.6888,55.4287 50.0222,55.762 51.5,55.5C 51.5,56.5 51.5,57.5 51.5,58.5C 50.1779,58.67 49.0113,58.3366 48,57.5C 47.5,58.5 47,59.5 46.5,60.5C 41.5211,61.4423 36.5211,62.2756 31.5,63C 34.557,63.2565 37.557,63.7565 40.5,64.5C 41.6224,66.0436 41.289,67.377 39.5,68.5C 36.1852,69.3122 33.0186,69.6455 30,69.5C 28.9827,67.6241 28.1494,65.6241 27.5,63.5C 26.5713,64.6888 26.238,66.0222 26.5,67.5C 22.5,67.8333 22.5,68.1667 26.5,68.5C 26.4223,71.4867 27.589,72.1534 30,70.5C 31.8114,71.0779 33.6447,71.5779 35.5,72C 33.2456,73.651 30.9122,73.8177 28.5,72.5C 26.5,74.1667 24.5,75.8333 22.5,77.5C 20.5607,75.3824 18.394,75.049 16,76.5C 15.3123,77.3317 15.479,77.9984 16.5,78.5C 18.7759,79.2132 21.1093,79.7132 23.5,80C 24.3567,80.6891 25.0233,81.5224 25.5,82.5C 24.3539,83.7187 23.3539,85.0521 22.5,86.5C 19.9439,87.0512 17.6106,88.0512 15.5,89.5C 16.5575,89.9059 17.8908,89.9059 19.5,89.5C 19.5,90.5 19.5,91.5 19.5,92.5C 18.0695,92.5792 16.7362,92.2458 15.5,91.5C 14.4291,93.3255 15.0958,94.4921 17.5,95C 14.8333,95.3333 12.1667,95.6667 9.5,96C 10.3081,96.3076 10.9747,96.8076 11.5,97.5C 8.98508,98.1997 8.31841,99.5331 9.5,101.5C 7.2381,102.345 6.57144,103.678 7.5,105.5C 6.95978,106.748 6.29311,107.915 5.5,109C 6.13117,111.312 6.13117,113.812 5.5,116.5C 8.93015,117.009 12.2635,117.343 15.5,117.5C 15.838,120.157 15.1713,122.49 13.5,124.5C 14.3094,126.071 14.6427,127.738 14.5,129.5C 17.4245,129.46 20.0912,130.293 22.5,132C 22.9662,133.299 22.9662,134.799 22.5,136.5C 21.7703,138.045 20.437,138.878 18.5,139C 18.8333,139.333 19.1667,139.667 19.5,140C 18.552,140.483 17.552,140.649 16.5,140.5C 16.5,141.833 16.5,143.167 16.5,144.5C 16.1667,145.167 15.8333,145.833 15.5,146.5C 15.1667,146.5 14.8333,146.5 14.5,146.5C 9.57964,144.412 7.57964,146.078 8.5,151.5C 7.5,151.5 6.5,151.5 5.5,151.5C 4.17047,154.704 3.0038,158.038 2,161.5C 1.23029,160.402 0.396953,160.402 -0.5,161.5C -0.5,125.833 -0.5,90.1667 -0.5,54.5C 17.8091,53.1009 36.1424,52.1009 54.5,51.5 Z"/></g>
<g><path style="opacity:1" fill="#2a203f" d="M 105.5,55.5 C 108.919,57.0867 112.585,57.7533 116.5,57.5C 117.675,57.281 118.675,57.6143 119.5,58.5C 119.043,59.2975 118.376,59.6309 117.5,59.5C 116.167,59.5 114.833,59.5 113.5,59.5C 112.778,59.9175 112.278,60.5842 112,61.5C 111.583,60.244 110.75,59.5774 109.5,59.5C 109.5,58.8333 109.167,58.5 108.5,58.5C 107.1,57.8999 106.1,56.8999 105.5,55.5 Z"/></g>
<g><path style="opacity:1" fill="#796029" d="M 128.5,52.5 C 129.9,53.0998 130.9,54.0998 131.5,55.5C 132.209,56.404 133.209,56.7373 134.5,56.5C 132.424,57.4268 131.257,59.0935 131,61.5C 130.626,59.5087 129.793,57.842 128.5,56.5C 128.5,55.5 128.5,54.5 128.5,53.5C 128.5,53.1667 128.5,52.8333 128.5,52.5 Z"/></g>
<g><path style="opacity:1" fill="#371f1b" d="M 97.5,55.5 C 100.167,55.5 102.833,55.5 105.5,55.5C 106.1,56.8999 107.1,57.8999 108.5,58.5C 107.167,58.5 105.833,58.5 104.5,58.5C 103.5,58.5 102.5,58.5 101.5,58.5C 100.432,57.5655 99.099,57.2322 97.5,57.5C 97.5,56.8333 97.5,56.1667 97.5,55.5 Z"/></g>
<g><path style="opacity:1" fill="#e0db84" d="M 54.5,51.5 C 54.8333,51.5 55.1667,51.5 55.5,51.5C 55.2318,57.9537 55.8984,64.2871 57.5,70.5C 55.9328,69.3192 55.0995,67.6526 55,65.5C 54.501,61.1794 54.3343,56.8461 54.5,52.5C 54.5,52.1667 54.5,51.8333 54.5,51.5 Z"/></g>
<g><path style="opacity:1" fill="#252560" d="M 97.5,55.5 C 97.5,56.1667 97.5,56.8333 97.5,57.5C 95.9382,57.7329 94.6049,58.3995 93.5,59.5C 92.2719,60.3065 91.2719,61.3065 90.5,62.5C 90.1667,62.5 89.8333,62.5 89.5,62.5C 88.791,61.596 87.791,61.2627 86.5,61.5C 86.5,60.5 86.5,59.5 86.5,58.5C 90.082,57.2102 93.7487,56.2102 97.5,55.5 Z"/></g>
<g><path style="opacity:1" fill="#d09c76" d="M 99.5,52.5 C 95.9998,52.6101 92.6665,53.4434 89.5,55C 87.9371,55.7589 86.9371,56.9256 86.5,58.5C 83.5212,59.6535 80.5212,60.8202 77.5,62C 76.7476,62.6708 76.4142,63.5041 76.5,64.5C 73.336,63.8756 70.336,64.5423 67.5,66.5C 70.4349,61.6295 73.1015,56.6295 75.5,51.5C 79.1228,50.3443 82.7894,49.3443 86.5,48.5C 92.3923,49.5222 98.3923,49.1888 104.5,47.5C 105.5,47.8333 106.5,48.1667 107.5,48.5C 105.125,50.6126 102.458,51.946 99.5,52.5 Z"/></g>
<g><path style="opacity:1" fill="#aa7340" d="M 97.5,57.5 C 99.099,57.2322 100.432,57.5655 101.5,58.5C 99.703,59.393 98.3696,60.7263 97.5,62.5C 96.1667,62.5 94.8333,62.5 93.5,62.5C 93.5,61.5 93.5,60.5 93.5,59.5C 94.6049,58.3995 95.9382,57.7329 97.5,57.5 Z"/></g>
<g><path style="opacity:1" fill="#c17d41" d="M 122.5,57.5 C 123.5,57.5 124.5,57.5 125.5,57.5C 125.737,58.791 125.404,59.791 124.5,60.5C 123.609,61.1098 122.609,61.4431 121.5,61.5C 120.147,59.8716 120.481,58.5383 122.5,57.5 Z"/></g>
<g><path style="opacity:1" fill="#be7838" d="M 104.5,58.5 C 105.833,58.5 107.167,58.5 108.5,58.5C 108.67,59.8221 108.337,60.9887 107.5,62C 106.041,61.6446 104.707,61.8112 103.5,62.5C 102.529,61.0379 102.862,59.7046 104.5,58.5 Z"/></g>
<g><path style="opacity:1" fill="#48323a" d="M 123.5,53.5 C 125.167,53.5 126.833,53.5 128.5,53.5C 128.5,54.5 128.5,55.5 128.5,56.5C 126.534,56.5413 124.534,56.8747 122.5,57.5C 120.481,58.5383 120.147,59.8716 121.5,61.5C 121.5,62.1667 121.5,62.8333 121.5,63.5C 118.956,60.6935 117.956,61.3601 118.5,65.5C 117.833,65.5 117.5,65.1667 117.5,64.5C 117.5,62.8333 117.5,61.1667 117.5,59.5C 118.376,59.6309 119.043,59.2975 119.5,58.5C 118.675,57.6143 117.675,57.281 116.5,57.5C 118.072,56.3127 119.739,55.3127 121.5,54.5C 122.167,54.1667 122.833,53.8333 123.5,53.5 Z"/></g>
<g><path style="opacity:1" fill="#3e230c" d="M 135.5,55.5 C 136.9,56.1001 137.9,57.1001 138.5,58.5C 138.5,60.5 138.5,62.5 138.5,64.5C 136.027,59.0352 134.027,59.3685 132.5,65.5C 130.736,67.2776 128.736,68.6109 126.5,69.5C 126.062,69.5654 125.728,69.3988 125.5,69C 126.944,67.2365 127.944,65.2365 128.5,63C 127.142,62.0656 125.808,61.2323 124.5,60.5C 125.404,59.791 125.737,58.791 125.5,57.5C 124.5,57.5 123.5,57.5 122.5,57.5C 124.534,56.8747 126.534,56.5413 128.5,56.5C 129.793,57.842 130.626,59.5087 131,61.5C 131.257,59.0935 132.424,57.4268 134.5,56.5C 134.5,55.8333 134.833,55.5 135.5,55.5 Z"/></g>
<g><path style="opacity:1" fill="#eae73c" d="M 54.5,52.5 C 54.3343,56.8461 54.501,61.1794 55,65.5C 55.0995,67.6526 55.9328,69.3192 57.5,70.5C 57.8702,73.267 59.2036,75.267 61.5,76.5C 61.5,76.8333 61.5,77.1667 61.5,77.5C 61.5,78.5 61.5,79.5 61.5,80.5C 61.0842,87.0091 63.7509,91.6757 69.5,94.5C 69.5,94.8333 69.5,95.1667 69.5,95.5C 70.2583,98.3519 70.2583,101.019 69.5,103.5C 68.5318,105.607 68.1984,107.941 68.5,110.5C 64.4402,110.485 60.4402,110.985 56.5,112C 56.0338,113.299 56.0338,114.799 56.5,116.5C 52.5,116.5 48.5,116.5 44.5,116.5C 44.1156,118.929 43.449,121.263 42.5,123.5C 40.8008,123.34 39.1341,123.506 37.5,124C 38.8333,125 38.8333,126 37.5,127C 35.444,127.311 33.444,127.811 31.5,128.5C 29.7859,127.391 29.1192,128.058 29.5,130.5C 26.538,130.117 25.538,131.117 26.5,133.5C 26.1543,134.696 25.6543,134.696 25,133.5C 24.6667,134.833 24.3333,136.167 24,137.5C 23.6174,136.944 23.1174,136.611 22.5,136.5C 22.9662,134.799 22.9662,133.299 22.5,132C 20.0912,130.293 17.4245,129.46 14.5,129.5C 14.6427,127.738 14.3094,126.071 13.5,124.5C 15.1713,122.49 15.838,120.157 15.5,117.5C 12.2635,117.343 8.93015,117.009 5.5,116.5C 6.13117,113.812 6.13117,111.312 5.5,109C 6.29311,107.915 6.95978,106.748 7.5,105.5C 6.57144,103.678 7.2381,102.345 9.5,101.5C 8.31841,99.5331 8.98508,98.1997 11.5,97.5C 10.9747,96.8076 10.3081,96.3076 9.5,96C 12.1667,95.6667 14.8333,95.3333 17.5,95C 15.0958,94.4921 14.4291,93.3255 15.5,91.5C 16.7362,92.2458 18.0695,92.5792 19.5,92.5C 19.5,91.5 19.5,90.5 19.5,89.5C 17.8908,89.9059 16.5575,89.9059 15.5,89.5C 17.6106,88.0512 19.9439,87.0512 22.5,86.5C 23.3539,85.0521 24.3539,83.7187 25.5,82.5C 25.0233,81.5224 24.3567,80.6891 23.5,80C 21.1093,79.7132 18.7759,79.2132 16.5,78.5C 15.479,77.9984 15.3123,77.3317 16,76.5C 18.394,75.049 20.5607,75.3824 22.5,77.5C 24.5,75.8333 26.5,74.1667 28.5,72.5C 30.9122,73.8177 33.2456,73.651 35.5,72C 33.6447,71.5779 31.8114,71.0779 30,70.5C 27.589,72.1534 26.4223,71.4867 26.5,68.5C 22.5,68.1667 22.5,67.8333 26.5,67.5C 26.238,66.0222 26.5713,64.6888 27.5,63.5C 28.1494,65.6241 28.9827,67.6241 30,69.5C 33.0186,69.6455 36.1852,69.3122 39.5,68.5C 41.289,67.377 41.6224,66.0436 40.5,64.5C 37.557,63.7565 34.557,63.2565 31.5,63C 36.5211,62.2756 41.5211,61.4423 46.5,60.5C 47,59.5 47.5,58.5 48,57.5C 49.0113,58.3366 50.1779,58.67 51.5,58.5C 51.5,57.5 51.5,56.5 51.5,55.5C 50.0222,55.762 48.6888,55.4287 47.5,54.5C 49.5098,52.8287 51.8431,52.162 54.5,52.5 Z"/></g>
<g><path style="opacity:1" fill="#6f3116" d="M 101.5,58.5 C 102.5,58.5 103.5,58.5 104.5,58.5C 102.862,59.7046 102.529,61.0379 103.5,62.5C 101.389,63.3799 99.3888,63.3799 97.5,62.5C 98.3696,60.7263 99.703,59.393 101.5,58.5 Z"/></g>
<g><path style="opacity:1" fill="#6c4737" d="M 113.5,59.5 C 114.833,59.5 116.167,59.5 117.5,59.5C 117.5,61.1667 117.5,62.8333 117.5,64.5C 116.395,63.3995 115.062,62.7329 113.5,62.5C 113.5,61.5 113.5,60.5 113.5,59.5 Z"/></g>
<g><path style="opacity:1" fill="#1c0c0d" d="M 121.5,63.5 C 122.337,66.4844 123.671,69.3177 125.5,72C 124.906,72.4643 124.239,72.631 123.5,72.5C 122.136,70.8089 120.803,69.1423 119.5,67.5C 119.167,66.8333 118.833,66.1667 118.5,65.5C 117.956,61.3601 118.956,60.6935 121.5,63.5 Z"/></g>
<g><path style="opacity:1" fill="#50301f" d="M 86.5,58.5 C 86.5,59.5 86.5,60.5 86.5,61.5C 87.791,61.2627 88.791,61.596 89.5,62.5C 89.8333,62.5 90.1667,62.5 90.5,62.5C 90.298,64.9496 90.6314,67.283 91.5,69.5C 89.5,69.5 87.5,69.5 85.5,69.5C 84.0813,68.5489 82.4147,68.2155 80.5,68.5C 78.7356,67.674 77.4023,66.3407 76.5,64.5C 76.4142,63.5041 76.7476,62.6708 77.5,62C 80.5212,60.8202 83.5212,59.6535 86.5,58.5 Z"/></g>
<g><path style="opacity:1" fill="#947161" d="M 89.5,62.5 C 89.0296,63.6935 88.0296,64.3601 86.5,64.5C 85.5,64.3333 84.5,64.1667 83.5,64C 85.3453,62.872 87.3453,62.372 89.5,62.5 Z"/></g>
<g><path style="opacity:1" fill="#2e1c17" d="M 109.5,59.5 C 110.75,59.5774 111.583,60.244 112,61.5C 112.278,60.5842 112.778,59.9175 113.5,59.5C 113.5,60.5 113.5,61.5 113.5,62.5C 113.55,66.4296 112.217,69.7629 109.5,72.5C 108.833,72.5 108.5,72.1667 108.5,71.5C 108.5,70.8333 108.5,70.1667 108.5,69.5C 109.658,68.4274 109.658,67.2607 108.5,66C 108.759,64.7387 109.426,63.7387 110.5,63C 109.663,61.9887 109.33,60.8221 109.5,59.5 Z"/></g>
<g><path style="opacity:1" fill="#8c5f31" d="M 76.5,64.5 C 77.4023,66.3407 78.7356,67.674 80.5,68.5C 80.5,69.1667 80.1667,69.5 79.5,69.5C 78.2223,69.7822 77.2223,70.4489 76.5,71.5C 74.0664,69.1256 71.0664,67.7922 67.5,67.5C 67.5,67.1667 67.5,66.8333 67.5,66.5C 70.336,64.5423 73.336,63.8756 76.5,64.5 Z"/></g>
<g><path style="opacity:1" fill="#5c4219" d="M 124.5,60.5 C 125.808,61.2323 127.142,62.0656 128.5,63C 127.944,65.2365 126.944,67.2365 125.5,69C 125.728,69.3988 126.062,69.5654 126.5,69.5C 127.152,70.7251 128.319,71.3917 130,71.5C 131.167,71.3333 132.333,71.1667 133.5,71C 134.532,69.3732 135.866,68.2066 137.5,67.5C 136.876,69.754 135.543,71.4206 133.5,72.5C 132.609,73.1098 131.609,73.4431 130.5,73.5C 128.956,73.7031 127.622,74.3698 126.5,75.5C 125.482,74.8075 124.482,74.1408 123.5,73.5C 123.5,73.1667 123.5,72.8333 123.5,72.5C 124.239,72.631 124.906,72.4643 125.5,72C 123.671,69.3177 122.337,66.4844 121.5,63.5C 121.5,62.8333 121.5,62.1667 121.5,61.5C 122.609,61.4431 123.609,61.1098 124.5,60.5 Z"/></g>
<g><path style="opacity:1" fill="#815d1a" d="M 138.5,64.5 C 138.443,65.609 138.11,66.609 137.5,67.5C 135.866,68.2066 134.532,69.3732 133.5,71C 132.333,71.1667 131.167,71.3333 130,71.5C 128.319,71.3917 127.152,70.7251 126.5,69.5C 128.736,68.6109 130.736,67.2776 132.5,65.5C 134.027,59.3685 136.027,59.0352 138.5,64.5 Z"/></g>
<g><path style="opacity:1" fill="#352013" d="M 93.5,59.5 C 93.5,60.5 93.5,61.5 93.5,62.5C 94.8333,62.5 96.1667,62.5 97.5,62.5C 99.3888,63.3799 101.389,63.3799 103.5,62.5C 102.176,67.8367 98.8422,70.5033 93.5,70.5C 93.5,70.8333 93.5,71.1667 93.5,71.5C 93.5,72.1667 93.1667,72.5 92.5,72.5C 91.8902,71.609 91.5569,70.609 91.5,69.5C 90.6314,67.283 90.298,64.9496 90.5,62.5C 91.2719,61.3065 92.2719,60.3065 93.5,59.5 Z"/></g>
<g><path style="opacity:1" fill="#866b57" d="M 75.5,50.5 C 75.5,50.8333 75.5,51.1667 75.5,51.5C 73.1015,56.6295 70.4349,61.6295 67.5,66.5C 67.5,66.8333 67.5,67.1667 67.5,67.5C 65.9137,69.0808 64.9137,71.0808 64.5,73.5C 64.9569,74.2975 65.6236,74.6309 66.5,74.5C 65.791,75.404 64.791,75.7373 63.5,75.5C 63.1094,64.936 67.1094,56.6027 75.5,50.5 Z"/></g>
<g><path style="opacity:1" fill="#593415" d="M 67.5,67.5 C 71.0664,67.7922 74.0664,69.1256 76.5,71.5C 74.6096,71.7035 73.1096,71.0368 72,69.5C 70.5589,70.2598 69.0589,70.9264 67.5,71.5C 66.6143,72.325 66.281,73.325 66.5,74.5C 65.6236,74.6309 64.9569,74.2975 64.5,73.5C 64.9137,71.0808 65.9137,69.0808 67.5,67.5 Z"/></g>
<g><path style="opacity:1" fill="#4e340c" d="M 108.5,58.5 C 109.167,58.5 109.5,58.8333 109.5,59.5C 109.33,60.8221 109.663,61.9887 110.5,63C 109.426,63.7387 108.759,64.7387 108.5,66C 109.658,67.2607 109.658,68.4274 108.5,69.5C 103.595,70.4454 98.5947,70.7787 93.5,70.5C 98.8422,70.5033 102.176,67.8367 103.5,62.5C 104.707,61.8112 106.041,61.6446 107.5,62C 108.337,60.9887 108.67,59.8221 108.5,58.5 Z"/></g>
<g><path style="opacity:1" fill="#7c561a" d="M 108.5,69.5 C 108.5,70.1667 108.5,70.8333 108.5,71.5C 103.613,75.4418 98.6128,75.4418 93.5,71.5C 93.5,71.1667 93.5,70.8333 93.5,70.5C 98.5947,70.7787 103.595,70.4454 108.5,69.5 Z"/></g>
<g><path style="opacity:1" fill="#e8c29a" d="M 119.5,67.5 C 120.803,69.1423 122.136,70.8089 123.5,72.5C 123.5,72.8333 123.5,73.1667 123.5,73.5C 123.5,74.5 123.5,75.5 123.5,76.5C 121.533,76.7394 119.699,76.4061 118,75.5C 116.591,76.7811 115.091,77.7811 113.5,78.5C 112.833,78.5 112.167,78.5 111.5,78.5C 110.624,78.6309 109.957,78.2975 109.5,77.5C 110.518,76.1476 111.851,75.1476 113.5,74.5C 111.886,71.8429 112.552,70.0095 115.5,69C 114.483,67.9505 114.316,66.7839 115,65.5C 116.11,67.0368 117.61,67.7035 119.5,67.5 Z"/></g>
<g><path style="opacity:1" fill="#5f3218" d="M 93.5,71.5 C 98.6128,75.4418 103.613,75.4418 108.5,71.5C 108.5,72.1667 108.833,72.5 109.5,72.5C 107.212,76.6911 103.545,78.6911 98.5,78.5C 96.4861,78.5635 94.8194,77.8968 93.5,76.5C 92.7659,75.2921 92.4326,73.9587 92.5,72.5C 93.1667,72.5 93.5,72.1667 93.5,71.5 Z"/></g>
<g><path style="opacity:1" fill="#c59270" d="M 66.5,74.5 C 68.3904,74.2965 69.8904,74.9632 71,76.5C 71.382,80.2683 73.0486,83.2683 76,85.5C 75.9167,88.1194 75.75,90.786 75.5,93.5C 75.5,93.8333 75.5,94.1667 75.5,94.5C 73.5,94.5 71.5,94.5 69.5,94.5C 63.7509,91.6757 61.0842,87.0091 61.5,80.5C 63.9961,81.4044 66.3294,80.9044 68.5,79C 66.0796,78.7096 63.7463,78.2096 61.5,77.5C 61.5,77.1667 61.5,76.8333 61.5,76.5C 62.1667,76.1667 62.8333,75.8333 63.5,75.5C 64.791,75.7373 65.791,75.404 66.5,74.5 Z"/></g>
<g><path style="opacity:1" fill="#73351c" d="M 61.5,77.5 C 63.7463,78.2096 66.0796,78.7096 68.5,79C 66.3294,80.9044 63.9961,81.4044 61.5,80.5C 61.5,79.5 61.5,78.5 61.5,77.5 Z"/></g>
<g><path style="opacity:1" fill="#ebe673" d="M 199.5,53.5 C 199.5,57.5 199.5,61.5 199.5,65.5C 184.355,72.3999 178.188,84.0666 181,100.5C 182.608,108.681 187.108,114.514 194.5,118C 194.851,120.295 196.518,121.795 199.5,122.5C 199.5,123.833 199.5,125.167 199.5,126.5C 197.076,125.97 194.743,125.136 192.5,124C 188.054,119.377 183.554,114.877 179,110.5C 178.286,107.405 177.286,104.405 176,101.5C 176.048,97.8672 175.882,94.3672 175.5,91C 176.702,83.4419 178.202,75.9419 180,68.5C 183.951,67.049 186.117,64.2156 186.5,60C 190.547,57.3096 194.881,55.143 199.5,53.5 Z"/></g>
<g><path style="opacity:1" fill="#824e37" d="M 122.5,82.5 C 120.11,82.1449 117.777,81.4783 115.5,80.5C 112.398,80.4966 112.065,80.9966 114.5,82C 109.602,83.9389 108.602,82.7722 111.5,78.5C 112.167,78.5 112.833,78.5 113.5,78.5C 117.519,78.3542 121.519,78.0209 125.5,77.5C 125.741,80.0336 124.741,81.7002 122.5,82.5 Z"/></g>
<g><path style="opacity:1" fill="#e4b79d" d="M 113.5,62.5 C 115.062,62.7329 116.395,63.3995 117.5,64.5C 117.5,65.1667 117.833,65.5 118.5,65.5C 118.833,66.1667 119.167,66.8333 119.5,67.5C 117.61,67.7035 116.11,67.0368 115,65.5C 114.316,66.7839 114.483,67.9505 115.5,69C 112.552,70.0095 111.886,71.8429 113.5,74.5C 111.851,75.1476 110.518,76.1476 109.5,77.5C 109.957,78.2975 110.624,78.6309 111.5,78.5C 108.602,82.7722 109.602,83.9389 114.5,82C 112.065,80.9966 112.398,80.4966 115.5,80.5C 117.777,81.4783 120.11,82.1449 122.5,82.5C 123.067,84.0295 123.733,85.5295 124.5,87C 121.403,88.6101 118.069,89.6101 114.5,90C 113.944,90.3826 113.611,90.8826 113.5,91.5C 113.167,91.5 112.833,91.5 112.5,91.5C 110.143,91.6633 107.81,91.4966 105.5,91C 105.833,90.6667 106.167,90.3333 106.5,90C 105.584,89.6258 104.75,89.1258 104,88.5C 102.602,89.0509 101.268,89.3842 100,89.5C 97.513,86.0292 94.3464,83.6959 90.5,82.5C 89.7057,80.1272 88.7057,77.7938 87.5,75.5C 88.6283,74.7379 89.7949,74.0712 91,73.5C 91.2355,75.1193 92.0689,76.1193 93.5,76.5C 94.8194,77.8968 96.4861,78.5635 98.5,78.5C 103.545,78.6911 107.212,76.6911 109.5,72.5C 112.217,69.7629 113.55,66.4296 113.5,62.5 Z"/></g>
<g><path style="opacity:1" fill="#b5826a" d="M 123.5,73.5 C 124.482,74.1408 125.482,74.8075 126.5,75.5C 127.622,74.3698 128.956,73.7031 130.5,73.5C 132.818,81.6347 133.152,89.968 131.5,98.5C 129.965,99.3543 128.632,99.3543 127.5,98.5C 128.625,97.3478 128.625,96.3478 127.5,95.5C 127.5,94.8333 127.5,94.1667 127.5,93.5C 128.833,93.5 129.5,92.8333 129.5,91.5C 130.973,88.9831 131.64,86.1498 131.5,83C 132.079,78.8465 130.412,76.6799 126.5,76.5C 126.726,79.2492 126.393,81.9159 125.5,84.5C 127.34,86.1848 128.673,88.1848 129.5,90.5C 124.187,91.0978 118.854,91.4312 113.5,91.5C 113.611,90.8826 113.944,90.3826 114.5,90C 118.069,89.6101 121.403,88.6101 124.5,87C 123.733,85.5295 123.067,84.0295 122.5,82.5C 124.741,81.7002 125.741,80.0336 125.5,77.5C 121.519,78.0209 117.519,78.3542 113.5,78.5C 115.091,77.7811 116.591,76.7811 118,75.5C 119.699,76.4061 121.533,76.7394 123.5,76.5C 123.5,75.5 123.5,74.5 123.5,73.5 Z"/></g>
<g><path style="opacity:1" fill="#cc9f82" d="M 129.5,91.5 C 129.5,91.1667 129.5,90.8333 129.5,90.5C 128.673,88.1848 127.34,86.1848 125.5,84.5C 126.393,81.9159 126.726,79.2492 126.5,76.5C 130.412,76.6799 132.079,78.8465 131.5,83C 131.64,86.1498 130.973,88.9831 129.5,91.5 Z"/></g>
<g><path style="opacity:1" fill="#f0ebc2" d="M 199.5,74.5 C 199.5,77.5 199.5,80.5 199.5,83.5C 197.534,84.4412 195.534,85.4412 193.5,86.5C 191.858,92.8214 192.525,98.8214 195.5,104.5C 196.622,105.63 197.956,106.297 199.5,106.5C 199.5,107.833 199.5,109.167 199.5,110.5C 196.59,108.761 194.09,106.428 192,103.5C 191.333,95.8333 191.333,88.1667 192,80.5C 194.305,78.1787 196.805,76.1787 199.5,74.5 Z"/></g>
<g><path style="opacity:1" fill="#f6e8e3" d="M 68.5,83.5 C 69.4959,83.4142 70.3292,83.7476 71,84.5C 72.2895,87.1683 73.4561,89.8349 74.5,92.5C 69.2098,91.5628 67.2098,88.5628 68.5,83.5 Z"/></g>
<g><path style="opacity:1" fill="#9b8247" d="M 133.5,72.5 C 133.666,80.1739 133.5,87.8406 133,95.5C 132.802,97.3817 132.302,99.0484 131.5,100.5C 131.5,99.8333 131.5,99.1667 131.5,98.5C 133.152,89.968 132.818,81.6347 130.5,73.5C 131.609,73.4431 132.609,73.1098 133.5,72.5 Z"/></g>
<g><path style="opacity:1" fill="#7c3b32" d="M 129.5,90.5 C 129.5,90.8333 129.5,91.1667 129.5,91.5C 129.5,92.8333 128.833,93.5 127.5,93.5C 123.019,92.3516 118.352,92.1849 113.5,93C 112.584,93.2784 111.918,93.7784 111.5,94.5C 110.127,94.6567 108.793,94.49 107.5,94C 109.175,93.0147 110.842,92.1814 112.5,91.5C 112.833,91.5 113.167,91.5 113.5,91.5C 118.854,91.4312 124.187,91.0978 129.5,90.5 Z"/></g>
<g><path style="opacity:1" fill="#ca976f" d="M 80.5,68.5 C 82.4147,68.2155 84.0813,68.5489 85.5,69.5C 84.1266,69.3433 82.7932,69.51 81.5,70C 82.2638,72.0693 82.7638,74.236 83,76.5C 85.8112,78.4806 87.6445,81.1473 88.5,84.5C 89.5237,85.8532 90.857,86.5198 92.5,86.5C 92.4302,90.3718 94.2635,92.7051 98,93.5C 98.2734,95.1012 98.7734,96.6012 99.5,98C 102.633,98.3925 105.633,99.2259 108.5,100.5C 109.584,100.315 110.584,99.9817 111.5,99.5C 112.738,99.81 112.738,100.31 111.5,101C 103.112,103.89 95.7785,102.39 89.5,96.5C 87.1493,97.7135 85.316,97.0468 84,94.5C 83.1075,91.5475 83.6075,88.8808 85.5,86.5C 84.9976,83.4883 83.4976,81.155 81,79.5C 81.0539,76.8094 79.8872,74.9761 77.5,74C 80.4106,73.3023 81.0773,71.8023 79.5,69.5C 80.1667,69.5 80.5,69.1667 80.5,68.5 Z"/></g>
<g><path style="opacity:1" fill="#d9a987" d="M 85.5,69.5 C 87.5,69.5 89.5,69.5 91.5,69.5C 91.5569,70.609 91.8902,71.609 92.5,72.5C 92.4326,73.9587 92.7659,75.2921 93.5,76.5C 92.0689,76.1193 91.2355,75.1193 91,73.5C 89.7949,74.0712 88.6283,74.7379 87.5,75.5C 88.7057,77.7938 89.7057,80.1272 90.5,82.5C 94.3464,83.6959 97.513,86.0292 100,89.5C 101.268,89.3842 102.602,89.0509 104,88.5C 104.75,89.1258 105.584,89.6258 106.5,90C 106.167,90.3333 105.833,90.6667 105.5,91C 107.81,91.4966 110.143,91.6633 112.5,91.5C 110.842,92.1814 109.175,93.0147 107.5,94C 108.793,94.49 110.127,94.6567 111.5,94.5C 112.167,95.1667 112.833,95.8333 113.5,96.5C 110.752,96.4017 110.086,97.4017 111.5,99.5C 110.584,99.9817 109.584,100.315 108.5,100.5C 105.633,99.2259 102.633,98.3925 99.5,98C 98.7734,96.6012 98.2734,95.1012 98,93.5C 94.2635,92.7051 92.4302,90.3718 92.5,86.5C 90.857,86.5198 89.5237,85.8532 88.5,84.5C 87.6445,81.1473 85.8112,78.4806 83,76.5C 82.7638,74.236 82.2638,72.0693 81.5,70C 82.7932,69.51 84.1266,69.3433 85.5,69.5 Z"/></g>
<g><path style="opacity:1" fill="#4c2511" d="M 69.5,95.5 C 69.5,95.1667 69.5,94.8333 69.5,94.5C 71.5,94.5 73.5,94.5 75.5,94.5C 76.0431,94.56 76.3764,94.8933 76.5,95.5C 75.7573,96.1818 75.0906,96.8485 74.5,97.5C 73.1779,97.33 72.0113,97.6634 71,98.5C 70.7679,97.2625 70.2679,96.2625 69.5,95.5 Z"/></g>
<g><path style="opacity:1" fill="#ecb0ab" d="M 127.5,93.5 C 127.5,94.1667 127.5,94.8333 127.5,95.5C 125.393,96.4682 123.059,96.8016 120.5,96.5C 118.167,96.5 115.833,96.5 113.5,96.5C 112.833,95.8333 112.167,95.1667 111.5,94.5C 111.918,93.7784 112.584,93.2784 113.5,93C 118.352,92.1849 123.019,92.3516 127.5,93.5 Z"/></g>
<g><path style="opacity:1" fill="#eee8aa" d="M 199.5,72.5 C 199.5,73.1667 199.5,73.8333 199.5,74.5C 196.805,76.1787 194.305,78.1787 192,80.5C 191.333,88.1667 191.333,95.8333 192,103.5C 194.09,106.428 196.59,108.761 199.5,110.5C 199.5,111.167 199.5,111.833 199.5,112.5C 195.91,112.456 193.41,110.789 192,107.5C 187.687,98.4012 187.353,89.0679 191,79.5C 192.803,75.8569 195.637,73.5235 199.5,72.5 Z"/></g>
<g><path style="opacity:1" fill="#602c1b" d="M 127.5,95.5 C 128.625,96.3478 128.625,97.3478 127.5,98.5C 126.662,98.8417 126.328,99.5084 126.5,100.5C 121.879,101.007 117.546,100.174 113.5,98C 116.036,97.8138 118.369,97.3138 120.5,96.5C 123.059,96.8016 125.393,96.4682 127.5,95.5 Z"/></g>
<g><path style="opacity:1" fill="#a97550" d="M 76.5,71.5 C 77.2223,70.4489 78.2223,69.7822 79.5,69.5C 81.0773,71.8023 80.4106,73.3023 77.5,74C 79.8872,74.9761 81.0539,76.8094 81,79.5C 83.4976,81.155 84.9976,83.4883 85.5,86.5C 83.6075,88.8808 83.1075,91.5475 84,94.5C 85.316,97.0468 87.1493,97.7135 89.5,96.5C 95.7785,102.39 103.112,103.89 111.5,101C 112.738,100.31 112.738,99.81 111.5,99.5C 110.086,97.4017 110.752,96.4017 113.5,96.5C 115.833,96.5 118.167,96.5 120.5,96.5C 118.369,97.3138 116.036,97.8138 113.5,98C 117.546,100.174 121.879,101.007 126.5,100.5C 129.526,104.546 128.859,108.046 124.5,111C 118.13,111.706 111.797,111.539 105.5,110.5C 105.64,108.876 104.973,107.71 103.5,107C 98.4164,106.827 93.4164,106.161 88.5,105C 88.8333,104.667 89.1667,104.333 89.5,104C 88.5838,103.626 87.7504,103.126 87,102.5C 86.2825,103.451 85.4491,103.617 84.5,103C 81.9372,99.3726 79.7705,95.5393 78,91.5C 77.5831,92.756 76.7498,93.4226 75.5,93.5C 75.75,90.786 75.9167,88.1194 76,85.5C 73.0486,83.2683 71.382,80.2683 71,76.5C 69.8904,74.9632 68.3904,74.2965 66.5,74.5C 66.281,73.325 66.6143,72.325 67.5,71.5C 69.0589,70.9264 70.5589,70.2598 72,69.5C 73.1096,71.0368 74.6096,71.7035 76.5,71.5 Z"/></g>
<g><path style="opacity:1" fill="#734d34" d="M 126.5,100.5 C 126.328,99.5084 126.662,98.8417 127.5,98.5C 128.632,99.3543 129.965,99.3543 131.5,98.5C 131.5,99.1667 131.5,99.8333 131.5,100.5C 130.977,105.884 128.643,110.218 124.5,113.5C 118.681,112.672 112.681,112.172 106.5,112C 102.52,110.203 98.3531,109.037 94,108.5C 92.0922,108.715 90.9256,109.715 90.5,111.5C 87.3191,109.163 83.9858,106.996 80.5,105C 78.683,103.2 77.5163,101.034 77,98.5C 76.3292,97.7476 75.4959,97.4142 74.5,97.5C 75.0906,96.8485 75.7573,96.1818 76.5,95.5C 76.3764,94.8933 76.0431,94.56 75.5,94.5C 75.5,94.1667 75.5,93.8333 75.5,93.5C 76.7498,93.4226 77.5831,92.756 78,91.5C 79.7705,95.5393 81.9372,99.3726 84.5,103C 85.4491,103.617 86.2825,103.451 87,102.5C 87.7504,103.126 88.5838,103.626 89.5,104C 89.1667,104.333 88.8333,104.667 88.5,105C 93.4164,106.161 98.4164,106.827 103.5,107C 104.973,107.71 105.64,108.876 105.5,110.5C 111.797,111.539 118.13,111.706 124.5,111C 128.859,108.046 129.526,104.546 126.5,100.5 Z"/></g>
<g><path style="opacity:1" fill="#f2efdc" d="M 199.5,83.5 C 199.5,91.1667 199.5,98.8333 199.5,106.5C 197.956,106.297 196.622,105.63 195.5,104.5C 192.525,98.8214 191.858,92.8214 193.5,86.5C 195.534,85.4412 197.534,84.4412 199.5,83.5 Z"/></g>
<g><path style="opacity:1" fill="#ece687" d="M 199.5,65.5 C 199.5,67.1667 199.5,68.8333 199.5,70.5C 197.323,70.5861 195.323,71.2528 193.5,72.5C 191.366,75.8027 189.032,78.9693 186.5,82C 185.391,88.4616 185.225,94.9616 186,101.5C 187.699,107.397 191.199,111.897 196.5,115C 197.448,115.483 198.448,115.649 199.5,115.5C 199.5,117.833 199.5,120.167 199.5,122.5C 196.518,121.795 194.851,120.295 194.5,118C 187.108,114.514 182.608,108.681 181,100.5C 178.188,84.0666 184.355,72.3999 199.5,65.5 Z"/></g>
<g><path style="opacity:1" fill="#d7a182" d="M 116.5,102.5 C 119.85,102.335 123.183,102.502 126.5,103C 127.022,103.561 127.355,104.228 127.5,105C 126.201,106.326 124.868,107.66 123.5,109C 118.328,109.365 113.328,109.531 108.5,109.5C 106.783,108.332 106.116,106.665 106.5,104.5C 110.04,104.247 113.373,103.581 116.5,102.5 Z"/></g>
<g><path style="opacity:1" fill="#ede799" d="M 199.5,70.5 C 199.5,71.1667 199.5,71.8333 199.5,72.5C 195.637,73.5235 192.803,75.8569 191,79.5C 187.353,89.0679 187.687,98.4012 192,107.5C 193.41,110.789 195.91,112.456 199.5,112.5C 199.5,113.5 199.5,114.5 199.5,115.5C 198.448,115.649 197.448,115.483 196.5,115C 191.199,111.897 187.699,107.397 186,101.5C 185.225,94.9616 185.391,88.4616 186.5,82C 189.032,78.9693 191.366,75.8027 193.5,72.5C 195.323,71.2528 197.323,70.5861 199.5,70.5 Z"/></g>
<g><path style="opacity:1" fill="#e4e25c" d="M 69.5,103.5 C 69.5,106.5 69.5,109.5 69.5,112.5C 63.5782,111.032 59.5782,113.032 57.5,118.5C 56.7354,118.923 55.9021,119.257 55,119.5C 49.5009,115.909 46.0009,117.242 44.5,123.5C 41.2633,126.954 37.2633,129.12 32.5,130C 30.2101,131.777 28.5434,133.944 27.5,136.5C 26.0937,136.973 25.427,137.973 25.5,139.5C 22.2622,140.738 19.2622,142.404 16.5,144.5C 16.5,143.167 16.5,141.833 16.5,140.5C 17.552,140.649 18.552,140.483 19.5,140C 19.1667,139.667 18.8333,139.333 18.5,139C 20.437,138.878 21.7703,138.045 22.5,136.5C 23.1174,136.611 23.6174,136.944 24,137.5C 24.3333,136.167 24.6667,134.833 25,133.5C 25.6543,134.696 26.1543,134.696 26.5,133.5C 25.538,131.117 26.538,130.117 29.5,130.5C 29.1192,128.058 29.7859,127.391 31.5,128.5C 33.444,127.811 35.444,127.311 37.5,127C 38.8333,126 38.8333,125 37.5,124C 39.1341,123.506 40.8008,123.34 42.5,123.5C 43.449,121.263 44.1156,118.929 44.5,116.5C 48.5,116.5 52.5,116.5 56.5,116.5C 56.0338,114.799 56.0338,113.299 56.5,112C 60.4402,110.985 64.4402,110.485 68.5,110.5C 68.1984,107.941 68.5318,105.607 69.5,103.5 Z"/></g>
<g><path style="opacity:1" fill="#3b241f" d="M 124.5,113.5 C 123.167,114.167 121.833,114.833 120.5,115.5C 119.5,115.5 118.5,115.5 117.5,115.5C 117.5,116.5 117.5,117.5 117.5,118.5C 114.801,118.466 112.301,119.133 110,120.5C 107.057,118.777 103.89,117.777 100.5,117.5C 97.4114,115.075 94.0781,113.075 90.5,111.5C 90.9256,109.715 92.0922,108.715 94,108.5C 98.3531,109.037 102.52,110.203 106.5,112C 112.681,112.172 118.681,112.672 124.5,113.5 Z"/></g>
<g><path style="opacity:1" fill="#615c44" d="M 69.5,112.5 C 69.5,112.833 69.5,113.167 69.5,113.5C 67.1432,113.337 64.8098,113.503 62.5,114C 60.9625,115.707 59.2959,117.207 57.5,118.5C 59.5782,113.032 63.5782,111.032 69.5,112.5 Z"/></g>
<g><path style="opacity:1" fill="#8c6852" d="M 90.5,111.5 C 94.0781,113.075 97.4114,115.075 100.5,117.5C 101.167,118.167 101.833,118.833 102.5,119.5C 98.7702,119.146 95.4369,117.813 92.5,115.5C 91.2949,114.423 90.6282,113.09 90.5,111.5 Z"/></g>
<g><path style="opacity:1" fill="#e6de66" d="M 139.5,53.5 C 140.07,59.3181 140.07,65.3181 139.5,71.5C 137.61,71.2965 136.11,71.9632 135,73.5C 135.133,85.3006 134.133,96.9673 132,108.5C 126.815,113.399 125.315,119.065 127.5,125.5C 125.368,125.446 124.035,124.446 123.5,122.5C 122.206,120.672 121.206,118.672 120.5,116.5C 120.5,116.167 120.5,115.833 120.5,115.5C 121.833,114.833 123.167,114.167 124.5,113.5C 128.643,110.218 130.977,105.884 131.5,100.5C 132.302,99.0484 132.802,97.3817 133,95.5C 133.5,87.8406 133.666,80.1739 133.5,72.5C 135.543,71.4206 136.876,69.754 137.5,67.5C 138.11,66.609 138.443,65.609 138.5,64.5C 138.5,62.5 138.5,60.5 138.5,58.5C 139.451,57.0813 139.784,55.4147 139.5,53.5 Z"/></g>
<g><path style="opacity:1" fill="#cda288" d="M 102.5,135.5 C 92.9435,129.947 84.9435,122.614 78.5,113.5C 79.675,113.719 80.675,113.386 81.5,112.5C 80.1468,111.476 79.4802,110.143 79.5,108.5C 81.5,108.833 83.5,109.167 85.5,109.5C 86.7689,111.825 88.1022,114.159 89.5,116.5C 88.9788,118.524 88.8122,120.524 89,122.5C 91.1667,123.333 92.6667,124.833 93.5,127C 95.4205,128.122 97.4205,128.956 99.5,129.5C 99.615,131.947 100.615,133.947 102.5,135.5 Z"/></g>
<g><path style="opacity:1" fill="#c0cced" d="M 73.5,122.5 C 72.8333,121.833 72.1667,121.167 71.5,120.5C 71.6716,119.508 71.3382,118.842 70.5,118.5C 69.962,116.883 69.6287,115.216 69.5,113.5C 70.9311,113.119 71.7645,112.119 72,110.5C 75.9932,115.152 79.4932,120.152 82.5,125.5C 84.8557,127.69 87.3557,129.69 90,131.5C 90.374,133.867 91.5407,135.7 93.5,137C 93.3333,137.5 93.1667,138 93,138.5C 86.9225,132.583 80.4225,127.25 73.5,122.5 Z"/></g>
<g><path style="opacity:1" fill="#443f43" d="M 57.5,118.5 C 57.2089,119.649 56.3756,120.316 55,120.5C 51.0282,118.578 48.1949,119.578 46.5,123.5C 45.8333,123.5 45.1667,123.5 44.5,123.5C 46.0009,117.242 49.5009,115.909 55,119.5C 55.9021,119.257 56.7354,118.923 57.5,118.5 Z"/></g>
<g><path style="opacity:1" fill="#373876" d="M 69.5,113.5 C 69.6287,115.216 69.962,116.883 70.5,118.5C 68.955,119.23 68.1216,120.563 68,122.5C 63.8353,120.991 60.3353,121.991 57.5,125.5C 55.4311,125.176 55.0977,124.342 56.5,123C 54.324,122.837 52.4907,122.004 51,120.5C 49.871,122.141 48.371,123.141 46.5,123.5C 48.1949,119.578 51.0282,118.578 55,120.5C 56.3756,120.316 57.2089,119.649 57.5,118.5C 59.2959,117.207 60.9625,115.707 62.5,114C 64.8098,113.503 67.1432,113.337 69.5,113.5 Z"/></g>
<g><path style="opacity:1" fill="#4c3222" d="M 120.5,115.5 C 120.5,115.833 120.5,116.167 120.5,116.5C 119.662,116.842 119.328,117.508 119.5,118.5C 116.744,121.198 113.411,122.531 109.5,122.5C 107.046,121.773 104.713,120.773 102.5,119.5C 101.833,118.833 101.167,118.167 100.5,117.5C 103.89,117.777 107.057,118.777 110,120.5C 112.301,119.133 114.801,118.466 117.5,118.5C 117.5,117.5 117.5,116.5 117.5,115.5C 118.5,115.5 119.5,115.5 120.5,115.5 Z"/></g>
<g><path style="opacity:1" fill="#754e3a" d="M 119.5,118.5 C 118.572,121.454 117.739,124.454 117,127.5C 115.989,128.337 114.822,128.67 113.5,128.5C 111.684,126.882 110.351,124.882 109.5,122.5C 113.411,122.531 116.744,121.198 119.5,118.5 Z"/></g>
<g><path style="opacity:1" fill="#403238" d="M 122.5,122.5 C 123.038,127.467 122.371,132.134 120.5,136.5C 119.833,136.5 119.5,136.833 119.5,137.5C 118.957,137.44 118.624,137.107 118.5,136.5C 119.708,131.631 121.041,126.964 122.5,122.5 Z"/></g>
<g><path style="opacity:1" fill="#c3916e" d="M 69.5,95.5 C 70.2679,96.2625 70.7679,97.2625 71,98.5C 72.0113,97.6634 73.1779,97.33 74.5,97.5C 75.4959,97.4142 76.3292,97.7476 77,98.5C 77.5163,101.034 78.683,103.2 80.5,105C 83.9858,106.996 87.3191,109.163 90.5,111.5C 90.6282,113.09 91.2949,114.423 92.5,115.5C 95.4369,117.813 98.7702,119.146 102.5,119.5C 104.713,120.773 107.046,121.773 109.5,122.5C 110.351,124.882 111.684,126.882 113.5,128.5C 114.782,130.464 116.115,132.464 117.5,134.5C 116.184,135.807 115.184,137.307 114.5,139C 112.5,139.667 110.5,139.667 108.5,139C 106.922,137.906 105.255,137.072 103.5,136.5C 102.833,136.5 102.5,136.167 102.5,135.5C 100.615,133.947 99.615,131.947 99.5,129.5C 97.4205,128.956 95.4205,128.122 93.5,127C 92.6667,124.833 91.1667,123.333 89,122.5C 88.8122,120.524 88.9788,118.524 89.5,116.5C 88.1022,114.159 86.7689,111.825 85.5,109.5C 83.5,109.167 81.5,108.833 79.5,108.5C 79.4802,110.143 80.1468,111.476 81.5,112.5C 80.675,113.386 79.675,113.719 78.5,113.5C 75.5001,111.332 73.0001,108.666 71,105.5C 70.8138,108.036 70.3138,110.369 69.5,112.5C 69.5,109.5 69.5,106.5 69.5,103.5C 70.2583,101.019 70.2583,98.3519 69.5,95.5 Z"/></g>
<g><path style="opacity:1" fill="#8e92a7" d="M 122.5,122.5 C 122.833,122.5 123.167,122.5 123.5,122.5C 124.035,124.446 125.368,125.446 127.5,125.5C 127.5,125.833 127.5,126.167 127.5,126.5C 126.662,126.842 126.328,127.508 126.5,128.5C 125.778,128.082 125.278,127.416 125,126.5C 124.057,129.845 123.223,133.178 122.5,136.5C 121.833,136.5 121.167,136.5 120.5,136.5C 122.371,132.134 123.038,127.467 122.5,122.5 Z"/></g>
<g><path style="opacity:1" fill="#a28073" d="M 120.5,116.5 C 121.206,118.672 122.206,120.672 123.5,122.5C 123.167,122.5 122.833,122.5 122.5,122.5C 121.041,126.964 119.708,131.631 118.5,136.5C 118.624,137.107 118.957,137.44 119.5,137.5C 117.527,138.806 115.861,140.473 114.5,142.5C 112.833,141.167 111.167,141.167 109.5,142.5C 107.5,140.5 105.5,138.5 103.5,136.5C 105.255,137.072 106.922,137.906 108.5,139C 110.5,139.667 112.5,139.667 114.5,139C 115.184,137.307 116.184,135.807 117.5,134.5C 116.115,132.464 114.782,130.464 113.5,128.5C 114.822,128.67 115.989,128.337 117,127.5C 117.739,124.454 118.572,121.454 119.5,118.5C 119.328,117.508 119.662,116.842 120.5,116.5 Z"/></g>
<g><path style="opacity:1" fill="#e0da69" d="M 127.5,126.5 C 127.5,126.167 127.5,125.833 127.5,125.5C 130.833,125.5 133.5,126.833 135.5,129.5C 143.514,130.737 151.514,130.737 159.5,129.5C 158.4,130.558 157.066,131.392 155.5,132C 150.511,132.499 145.511,132.666 140.5,132.5C 135.753,131.426 131.42,129.426 127.5,126.5 Z"/></g>
<g><path style="opacity:1" fill="#4a444d" d="M 44.5,123.5 C 43.7975,128.033 41.1308,130.199 36.5,130C 35.244,130.417 34.5774,131.25 34.5,132.5C 32.9382,132.733 31.6049,133.4 30.5,134.5C 29.5,135.167 28.5,135.833 27.5,136.5C 28.5434,133.944 30.2101,131.777 32.5,130C 37.2633,129.12 41.2633,126.954 44.5,123.5 Z"/></g>
<g><path style="opacity:1" fill="#3e3629" d="M 159.5,129.5 C 161.167,129.5 162.833,129.5 164.5,129.5C 164.5,130.5 164.5,131.5 164.5,132.5C 163.584,132.018 162.584,131.685 161.5,131.5C 158.346,133.026 155.013,133.693 151.5,133.5C 147.629,133.815 143.962,133.482 140.5,132.5C 145.511,132.666 150.511,132.499 155.5,132C 157.066,131.392 158.4,130.558 159.5,129.5 Z"/></g>
<g><path style="opacity:1" fill="#0f123e" d="M 34.5,132.5 C 41.2446,132.71 47.2446,134.877 52.5,139C 60.6198,146.441 66.2864,155.274 69.5,165.5C 69.1667,165.5 68.8333,165.5 68.5,165.5C 68.3225,164.305 67.9891,163.138 67.5,162C 63.7608,158.59 61.2608,154.424 60,149.5C 57.2889,145.288 53.7889,141.954 49.5,139.5C 49.0472,138.542 48.3805,137.708 47.5,137C 45.1218,136.489 42.7885,135.822 40.5,135C 36.9304,134.738 33.5971,134.571 30.5,134.5C 31.6049,133.4 32.9382,132.733 34.5,132.5 Z"/></g>
<g><path style="opacity:1" fill="#a9b7e2" d="M 126.5,128.5 C 126.294,133.654 126.961,138.654 128.5,143.5C 125.572,142.802 122.572,142.636 119.5,143C 121.219,141.13 122.219,138.963 122.5,136.5C 123.223,133.178 124.057,129.845 125,126.5C 125.278,127.416 125.778,128.082 126.5,128.5 Z"/></g>
<g><path style="opacity:1" fill="#3c3a81" d="M 70.5,118.5 C 71.3382,118.842 71.6716,119.508 71.5,120.5C 71.6085,122.514 70.9418,124.18 69.5,125.5C 68.1032,126.819 67.4365,128.486 67.5,130.5C 67.6977,135.493 68.8644,140.159 71,144.5C 71.4341,151.512 71.9341,158.512 72.5,165.5C 71.5,165.5 70.5,165.5 69.5,165.5C 66.2864,155.274 60.6198,146.441 52.5,139C 47.2446,134.877 41.2446,132.71 34.5,132.5C 34.5774,131.25 35.244,130.417 36.5,130C 41.1308,130.199 43.7975,128.033 44.5,123.5C 45.1667,123.5 45.8333,123.5 46.5,123.5C 48.371,123.141 49.871,122.141 51,120.5C 52.4907,122.004 54.324,122.837 56.5,123C 55.0977,124.342 55.4311,125.176 57.5,125.5C 60.3353,121.991 63.8353,120.991 68,122.5C 68.1216,120.563 68.955,119.23 70.5,118.5 Z"/></g>
<g><path style="opacity:1" fill="#d6ddf2" d="M 78.5,113.5 C 84.9435,122.614 92.9435,129.947 102.5,135.5C 102.5,136.167 102.833,136.5 103.5,136.5C 105.5,138.5 107.5,140.5 109.5,142.5C 108.5,143.833 107.5,145.167 106.5,146.5C 101.622,149.326 96.9554,148.993 92.5,145.5C 87.8986,142.076 83.3986,138.409 79,134.5C 76.8786,130.593 75.0453,126.593 73.5,122.5C 80.4225,127.25 86.9225,132.583 93,138.5C 93.1667,138 93.3333,137.5 93.5,137C 91.5407,135.7 90.374,133.867 90,131.5C 87.3557,129.69 84.8557,127.69 82.5,125.5C 79.4932,120.152 75.9932,115.152 72,110.5C 71.7645,112.119 70.9311,113.119 69.5,113.5C 69.5,113.167 69.5,112.833 69.5,112.5C 70.3138,110.369 70.8138,108.036 71,105.5C 73.0001,108.666 75.5001,111.332 78.5,113.5 Z"/></g>
<g><path style="opacity:1" fill="#1b1e4b" d="M 126.5,128.5 C 129.862,133.051 133.529,137.551 137.5,142C 138.793,142.49 140.127,142.657 141.5,142.5C 142.906,142.973 143.573,143.973 143.5,145.5C 142.609,144.89 141.609,144.557 140.5,144.5C 136.326,143.675 132.326,143.342 128.5,143.5C 126.961,138.654 126.294,133.654 126.5,128.5 Z"/></g>
<g><path style="opacity:1" fill="#0c0c15" d="M 127.5,126.5 C 131.42,129.426 135.753,131.426 140.5,132.5C 143.962,133.482 147.629,133.815 151.5,133.5C 149.527,134.163 147.361,134.496 145,134.5C 141.577,134.507 138.41,134.007 135.5,133C 137,134.5 138.5,136 140,137.5C 140.674,136.422 141.674,135.755 143,135.5C 147.005,137.449 151.172,139.116 155.5,140.5C 150.497,143.523 145.997,142.857 142,138.5C 141.51,139.793 141.343,141.127 141.5,142.5C 140.127,142.657 138.793,142.49 137.5,142C 133.529,137.551 129.862,133.051 126.5,128.5C 126.328,127.508 126.662,126.842 127.5,126.5 Z"/></g>
<g><path style="opacity:1" fill="#605e43" d="M 27.5,136.5 C 27.573,138.027 26.9063,139.027 25.5,139.5C 25.427,137.973 26.0937,136.973 27.5,136.5 Z"/></g>
<g><path style="opacity:1" fill="#534963" d="M 25.5,139.5 C 25.2969,141.044 24.6302,142.378 23.5,143.5C 20.6754,144.255 18.0087,145.255 15.5,146.5C 15.8333,145.833 16.1667,145.167 16.5,144.5C 19.2622,142.404 22.2622,140.738 25.5,139.5 Z"/></g>
<g><path style="opacity:1" fill="#ced5ef" d="M 120.5,136.5 C 121.167,136.5 121.833,136.5 122.5,136.5C 122.219,138.963 121.219,141.13 119.5,143C 122.572,142.636 125.572,142.802 128.5,143.5C 128.795,145.735 128.461,147.735 127.5,149.5C 122.339,149.562 118.339,147.562 115.5,143.5C 115.5,142.833 115.167,142.5 114.5,142.5C 115.861,140.473 117.527,138.806 119.5,137.5C 119.5,136.833 119.833,136.5 120.5,136.5 Z"/></g>
<g><path style="opacity:1" fill="#302f53" d="M 69.5,125.5 C 71.3079,126.918 71.9746,128.918 71.5,131.5C 72.8333,131.5 74.1667,131.5 75.5,131.5C 75.8495,135.742 75.1828,139.742 73.5,143.5C 73.5172,145.565 73.8505,147.565 74.5,149.5C 74.5,150.833 74.5,152.167 74.5,153.5C 74.5,160.167 74.5,166.833 74.5,173.5C 73.1667,179.5 73.1667,185.5 74.5,191.5C 74.5751,194.206 74.9084,196.873 75.5,199.5C 75.1667,199.5 74.8333,199.5 74.5,199.5C 73.0842,195.196 72.0842,190.863 71.5,186.5C 71.5,181.5 71.5,176.5 71.5,171.5C 68.4816,171.665 65.4816,171.498 62.5,171C 60.771,169.211 60.1043,167.044 60.5,164.5C 60.8333,164.5 61.1667,164.5 61.5,164.5C 61.6364,170.375 64.303,171.875 69.5,169C 70.7736,168.023 70.7736,167.189 69.5,166.5C 69.5,166.167 69.5,165.833 69.5,165.5C 70.5,165.5 71.5,165.5 72.5,165.5C 71.9341,158.512 71.4341,151.512 71,144.5C 68.8644,140.159 67.6977,135.493 67.5,130.5C 67.4365,128.486 68.1032,126.819 69.5,125.5 Z"/></g>
<g><path style="opacity:1" fill="#040515" d="M 70.5,133.5 C 71.7079,134.234 73.0413,134.567 74.5,134.5C 74.7989,136.604 74.4656,138.604 73.5,140.5C 71.6726,138.513 70.6726,136.179 70.5,133.5 Z"/></g>
<g><path style="opacity:1" fill="#343112" d="M 165.5,133.5 C 169.381,138.342 170.381,143.675 168.5,149.5C 168.841,145.84 168.175,142.507 166.5,139.5C 165.85,137.565 165.517,135.565 165.5,133.5 Z"/></g>
<g><path style="opacity:1" fill="#282752" d="M 164.5,132.5 C 165.167,132.5 165.5,132.833 165.5,133.5C 165.517,135.565 165.85,137.565 166.5,139.5C 167.054,146.118 167.054,152.785 166.5,159.5C 164.95,157.7 163.95,155.533 163.5,153C 164.925,151.286 164.592,149.953 162.5,149C 163.448,148.517 164.448,148.351 165.5,148.5C 165.341,145.845 164.341,143.512 162.5,141.5C 161.833,146.167 161.167,150.833 160.5,155.5C 157.564,152.225 154.564,148.891 151.5,145.5C 150.675,144.614 149.675,144.281 148.5,144.5C 149.09,149.281 151.256,153.281 155,156.5C 155.483,157.448 155.649,158.448 155.5,159.5C 154.542,159.047 153.708,158.381 153,157.5C 152.517,158.448 152.351,159.448 152.5,160.5C 150.283,155.071 147.283,150.071 143.5,145.5C 143.573,143.973 142.906,142.973 141.5,142.5C 141.343,141.127 141.51,139.793 142,138.5C 145.997,142.857 150.497,143.523 155.5,140.5C 151.172,139.116 147.005,137.449 143,135.5C 141.674,135.755 140.674,136.422 140,137.5C 138.5,136 137,134.5 135.5,133C 138.41,134.007 141.577,134.507 145,134.5C 147.361,134.496 149.527,134.163 151.5,133.5C 155.013,133.693 158.346,133.026 161.5,131.5C 162.584,131.685 163.584,132.018 164.5,132.5 Z"/></g>
<g><path style="opacity:1" fill="#504b46" d="M 14.5,146.5 C 14.8333,146.5 15.1667,146.5 15.5,146.5C 13.7924,150.572 11.1257,153.905 7.5,156.5C 9.80811,153.185 12.1414,149.851 14.5,146.5 Z"/></g>
<g><path style="opacity:1" fill="#e3df4f" d="M 14.5,146.5 C 12.1414,149.851 9.80811,153.185 7.5,156.5C 6.09368,156.973 5.42702,157.973 5.5,159.5C 3.9172,161.663 2.58387,163.996 1.5,166.5C 1.15829,167.338 0.491622,167.672 -0.5,167.5C -0.5,165.5 -0.5,163.5 -0.5,161.5C 0.396953,160.402 1.23029,160.402 2,161.5C 3.0038,158.038 4.17047,154.704 5.5,151.5C 6.5,151.5 7.5,151.5 8.5,151.5C 7.57964,146.078 9.57964,144.412 14.5,146.5 Z"/></g>
<g><path style="opacity:1" fill="#2a2e6b" d="M 114.5,142.5 C 115.167,142.5 115.5,142.833 115.5,143.5C 109.812,147.957 110.479,149.457 117.5,148C 120.461,149.265 123.461,150.431 126.5,151.5C 127.298,151.043 127.631,150.376 127.5,149.5C 128.461,147.735 128.795,145.735 128.5,143.5C 132.326,143.342 136.326,143.675 140.5,144.5C 143.092,150.181 146.092,155.681 149.5,161C 149,161.5 148.5,162 148,162.5C 146.377,158.29 144.377,154.29 142,150.5C 140.007,149.086 137.84,148.086 135.5,147.5C 134.312,146.636 133.145,145.636 132,144.5C 130.938,148.273 129.771,151.606 128.5,154.5C 123.388,152.286 118.055,150.619 112.5,149.5C 112.167,150 111.833,150.5 111.5,151C 113.715,155.297 114.882,159.797 115,164.5C 112.787,157.936 109.954,151.936 106.5,146.5C 107.5,145.167 108.5,143.833 109.5,142.5C 111.167,141.167 112.833,141.167 114.5,142.5 Z"/></g>
<g><path style="opacity:1" fill="#101639" d="M 115.5,143.5 C 118.339,147.562 122.339,149.562 127.5,149.5C 127.631,150.376 127.298,151.043 126.5,151.5C 123.461,150.431 120.461,149.265 117.5,148C 110.479,149.457 109.812,147.957 115.5,143.5 Z"/></g>
<g><path style="opacity:1" fill="#2c2a61" d="M 166.5,159.5 C 165.848,160.725 164.681,161.392 163,161.5C 160.41,161.055 157.91,160.389 155.5,159.5C 155.649,158.448 155.483,157.448 155,156.5C 151.256,153.281 149.09,149.281 148.5,144.5C 149.675,144.281 150.675,144.614 151.5,145.5C 154.564,148.891 157.564,152.225 160.5,155.5C 161.167,150.833 161.833,146.167 162.5,141.5C 164.341,143.512 165.341,145.845 165.5,148.5C 164.448,148.351 163.448,148.517 162.5,149C 164.592,149.953 164.925,151.286 163.5,153C 163.95,155.533 164.95,157.7 166.5,159.5 Z"/></g>
<g><path style="opacity:1" fill="#676644" d="M 7.5,156.5 C 7.5,157.167 7.5,157.833 7.5,158.5C 6.83333,158.833 6.16667,159.167 5.5,159.5C 5.42702,157.973 6.09368,156.973 7.5,156.5 Z"/></g>
<g><path style="opacity:1" fill="#ede846" d="M 199.5,157.5 C 199.5,171.5 199.5,185.5 199.5,199.5C 189.5,199.5 179.5,199.5 169.5,199.5C 170.055,181.197 170.888,162.863 172,144.5C 172.333,144.167 172.667,143.833 173,143.5C 173.192,145.577 173.692,147.577 174.5,149.5C 177.212,147.74 180.212,147.073 183.5,147.5C 183.5,148.833 183.5,150.167 183.5,151.5C 185.199,151.34 186.866,151.506 188.5,152C 187.833,152.333 187.167,152.667 186.5,153C 190.947,154.356 195.281,155.856 199.5,157.5 Z"/></g>
<g><path style="opacity:1" fill="#33306d" d="M 49.5,139.5 C 53.7889,141.954 57.2889,145.288 60,149.5C 61.2608,154.424 63.7608,158.59 67.5,162C 67.9891,163.138 68.3225,164.305 68.5,165.5C 66.5,165.5 64.5,165.5 62.5,165.5C 62.5393,163.776 62.206,163.443 61.5,164.5C 61.1667,164.5 60.8333,164.5 60.5,164.5C 59.3852,162.693 58.7186,160.693 58.5,158.5C 58.5698,157.228 58.9032,156.062 59.5,155C 55.9793,149.75 52.646,144.583 49.5,139.5 Z"/></g>
<g><path style="opacity:1" fill="#464693" d="M 58.5,166.5 C 58.7519,170.767 59.4186,174.934 60.5,179C 59.9056,179.464 59.2389,179.631 58.5,179.5C 56.9557,179.297 55.6223,178.63 54.5,177.5C 53.8933,177.624 53.56,177.957 53.5,178.5C 52.2597,177.341 50.9264,176.341 49.5,175.5C 52.8837,168.582 51.217,162.582 44.5,157.5C 42.6274,157.482 42.2941,157.982 43.5,159C 42.3333,159.5 41.5,160.333 41,161.5C 40.6667,160.833 40.3333,160.167 40,159.5C 40.4549,163.257 40.4549,166.924 40,170.5C 38.8455,171.743 37.5122,172.743 36,173.5C 34.7153,173.402 33.5486,173.402 32.5,173.5C 31.2652,173.279 30.2652,172.612 29.5,171.5C 28.914,171.709 28.414,172.043 28,172.5C 25.9342,168.372 25.2676,164.039 26,159.5C 26.8996,158.23 28.0663,157.23 29.5,156.5C 29.2907,155.914 28.9574,155.414 28.5,155C 29.8721,153.758 30.8721,152.258 31.5,150.5C 33.482,149.784 35.1487,148.617 36.5,147C 35.1587,145.174 35.6587,144.007 38,143.5C 40.1956,144.09 42.3622,144.757 44.5,145.5C 45.086,145.291 45.586,144.957 46,144.5C 54.1809,149.523 58.3475,156.856 58.5,166.5 Z"/></g>
<g><path style="opacity:1" fill="#333676" d="M 71.5,120.5 C 72.1667,121.167 72.8333,121.833 73.5,122.5C 75.0453,126.593 76.8786,130.593 79,134.5C 83.3986,138.409 87.8986,142.076 92.5,145.5C 92.0618,145.435 91.7284,145.601 91.5,146C 92.5707,146.852 93.5707,147.685 94.5,148.5C 92.3453,148.628 90.3453,148.128 88.5,147C 85.7151,142.38 82.0484,138.547 77.5,135.5C 77.1667,136 76.8333,136.5 76.5,137C 77.8711,140.393 78.8711,143.893 79.5,147.5C 81.8092,148.975 83.9759,150.642 86,152.5C 89.4992,160.419 91.9992,168.419 93.5,176.5C 92.8783,177.627 92.045,178.627 91,179.5C 90.3333,180.833 90.3333,182.167 91,183.5C 93.2845,180.568 95.7845,177.902 98.5,175.5C 97.2225,182.315 94.8891,188.648 91.5,194.5C 89.434,181.704 86.2674,169.038 82,156.5C 81.1482,155.429 80.3149,154.429 79.5,153.5C 78.3465,150.521 77.1798,147.521 76,144.5C 75.3292,143.748 74.4959,143.414 73.5,143.5C 75.1828,139.742 75.8495,135.742 75.5,131.5C 74.1667,131.5 72.8333,131.5 71.5,131.5C 71.9746,128.918 71.3079,126.918 69.5,125.5C 70.9418,124.18 71.6085,122.514 71.5,120.5 Z"/></g>
<g><path style="opacity:1" fill="#5e574a" d="M 5.5,159.5 C 5.44519,162.614 4.11186,164.948 1.5,166.5C 2.58387,163.996 3.9172,161.663 5.5,159.5 Z"/></g>
<g><path style="opacity:1" fill="#53443f" d="M 62.5,165.5 C 64.5,165.5 66.5,165.5 68.5,165.5C 68.8333,165.5 69.1667,165.5 69.5,165.5C 69.5,165.833 69.5,166.167 69.5,166.5C 67.4086,166.318 65.4086,166.652 63.5,167.5C 62.7025,167.043 62.3691,166.376 62.5,165.5 Z"/></g>
<g><path style="opacity:1" fill="#3f3e7f" d="M 140.5,144.5 C 141.609,144.557 142.609,144.89 143.5,145.5C 147.283,150.071 150.283,155.071 152.5,160.5C 155.823,162.97 159.323,165.304 163,167.5C 163.058,178.255 163.892,188.921 165.5,199.5C 164.167,199.5 162.833,199.5 161.5,199.5C 158.85,190.695 156.683,181.695 155,172.5C 153.956,171.377 153.29,170.044 153,168.5C 151.204,170.402 151.037,172.402 152.5,174.5C 151.167,174.5 149.833,174.5 148.5,174.5C 148.66,172.801 148.494,171.134 148,169.5C 147.329,168.748 146.496,168.414 145.5,168.5C 145.5,168.167 145.5,167.833 145.5,167.5C 146.582,165.021 145.582,163.521 142.5,163C 146.556,159.93 145.89,158.43 140.5,158.5C 139.862,156.54 139.862,154.707 140.5,153C 138.862,152.758 137.362,151.925 136,150.5C 135.626,149.584 135.126,148.75 134.5,148C 134.728,147.601 135.062,147.435 135.5,147.5C 137.84,148.086 140.007,149.086 142,150.5C 144.377,154.29 146.377,158.29 148,162.5C 148.5,162 149,161.5 149.5,161C 146.092,155.681 143.092,150.181 140.5,144.5 Z"/></g>
<g><path style="opacity:1" fill="#3c3b84" d="M 30.5,134.5 C 33.5971,134.571 36.9304,134.738 40.5,135C 42.7885,135.822 45.1218,136.489 47.5,137C 48.3805,137.708 49.0472,138.542 49.5,139.5C 52.646,144.583 55.9793,149.75 59.5,155C 58.9032,156.062 58.5698,157.228 58.5,158.5C 58.7186,160.693 59.3852,162.693 60.5,164.5C 59.8333,165.167 59.1667,165.833 58.5,166.5C 58.3475,156.856 54.1809,149.523 46,144.5C 45.586,144.957 45.086,145.291 44.5,145.5C 42.3622,144.757 40.1956,144.09 38,143.5C 35.6587,144.007 35.1587,145.174 36.5,147C 35.1487,148.617 33.482,149.784 31.5,150.5C 30.8721,152.258 29.8721,153.758 28.5,155C 28.9574,155.414 29.2907,155.914 29.5,156.5C 28.0663,157.23 26.8996,158.23 26,159.5C 25.2676,164.039 25.9342,168.372 28,172.5C 28.414,172.043 28.914,171.709 29.5,171.5C 30.2652,172.612 31.2652,173.279 32.5,173.5C 31.8989,177.535 31.0656,181.535 30,185.5C 28.8525,184.542 27.8525,184.875 27,186.5C 25.4209,189.179 24.7542,191.846 25,194.5C 23.1839,193.671 21.3506,192.837 19.5,192C 19.2623,188.638 17.9289,188.638 15.5,192C 17.8202,193.488 17.9869,195.321 16,197.5C 14.3333,194.833 12.6667,194.833 11,197.5C 8.83333,196 9,194.833 11.5,194C 6.50198,193.572 6.33531,192.739 11,191.5C 11.3333,189.167 11.6667,186.833 12,184.5C 12.414,184.043 12.914,183.709 13.5,183.5C 14.731,184.651 14.731,185.817 13.5,187C 16.458,189.117 17.1247,188.451 15.5,185C 16.7221,182.966 17.7221,180.8 18.5,178.5C 20.3527,177.699 22.0194,177.365 23.5,177.5C 23.2907,176.914 22.9574,176.414 22.5,176C 15.7344,176.251 13.0678,173.251 14.5,167C 13.552,166.517 12.552,166.351 11.5,166.5C 11.0837,169.638 10.9171,172.638 11,175.5C 9.19183,175.888 7.52517,175.888 6,175.5C 5.83333,175.167 5.66667,174.833 5.5,174.5C 6.66508,173.416 7.99842,172.583 9.5,172C 8.80945,170.933 8.30945,169.766 8,168.5C 7.69238,169.308 7.19238,169.975 6.5,170.5C 5.35258,168.235 5.18591,165.902 6,163.5C 7.32039,163.201 8.82039,163.034 10.5,163C 8.56138,162.092 7.56138,160.592 7.5,158.5C 7.5,157.833 7.5,157.167 7.5,156.5C 11.1257,153.905 13.7924,150.572 15.5,146.5C 18.0087,145.255 20.6754,144.255 23.5,143.5C 24.6302,142.378 25.2969,141.044 25.5,139.5C 26.9063,139.027 27.573,138.027 27.5,136.5C 28.5,135.833 29.5,135.167 30.5,134.5 Z"/></g>
<g><path style="opacity:1" fill="#c0b6a7" d="M 62.5,165.5 C 62.3691,166.376 62.7025,167.043 63.5,167.5C 65.4086,166.652 67.4086,166.318 69.5,166.5C 70.7736,167.189 70.7736,168.023 69.5,169C 64.303,171.875 61.6364,170.375 61.5,164.5C 62.206,163.443 62.5393,163.776 62.5,165.5 Z"/></g>
<g><path style="opacity:1" fill="#0e0c2d" d="M 74.5,153.5 C 75.9844,157.054 76.6511,160.888 76.5,165C 76.3333,167.5 76.1667,170 76,172.5C 75.6174,173.056 75.1174,173.389 74.5,173.5C 74.5,166.833 74.5,160.167 74.5,153.5 Z"/></g>
<g><path style="opacity:1" fill="#323020" d="M 168.5,149.5 C 168.5,166.167 168.5,182.833 168.5,199.5C 167.833,199.5 167.167,199.5 166.5,199.5C 166.071,182.631 166.738,165.964 168.5,149.5 Z"/></g>
<g><path style="opacity:1" fill="#323071" d="M 60.5,164.5 C 60.1043,167.044 60.771,169.211 62.5,171C 65.4816,171.498 68.4816,171.665 71.5,171.5C 71.5,176.5 71.5,181.5 71.5,186.5C 71.4204,191.033 69.7538,192.033 66.5,189.5C 64.0914,186.425 61.4247,183.758 58.5,181.5C 58.5,180.833 58.5,180.167 58.5,179.5C 59.2389,179.631 59.9056,179.464 60.5,179C 59.4186,174.934 58.7519,170.767 58.5,166.5C 59.1667,165.833 59.8333,165.167 60.5,164.5 Z"/></g>
<g><path style="opacity:1" fill="#242256" d="M 74.5,149.5 C 75.793,150.842 76.6264,152.509 77,154.5C 78.1394,164.374 77.3061,174.041 74.5,183.5C 74.5,186.167 74.5,188.833 74.5,191.5C 73.1667,185.5 73.1667,179.5 74.5,173.5C 75.1174,173.389 75.6174,173.056 76,172.5C 76.1667,170 76.3333,167.5 76.5,165C 76.6511,160.888 75.9844,157.054 74.5,153.5C 74.5,152.167 74.5,150.833 74.5,149.5 Z"/></g>
<g><path style="opacity:1" fill="#3a387d" d="M 49.5,175.5 C 46.0117,173.034 42.3451,173.034 38.5,175.5C 37.8333,178.833 37.1667,182.167 36.5,185.5C 35.1667,186.5 33.8333,187.5 32.5,188.5C 31.2433,192.633 29.2433,196.299 26.5,199.5C 17.5,199.5 8.5,199.5 -0.5,199.5C -0.5,188.833 -0.5,178.167 -0.5,167.5C 0.491622,167.672 1.15829,167.338 1.5,166.5C 4.11186,164.948 5.44519,162.614 5.5,159.5C 6.16667,159.167 6.83333,158.833 7.5,158.5C 7.56138,160.592 8.56138,162.092 10.5,163C 8.82039,163.034 7.32039,163.201 6,163.5C 5.18591,165.902 5.35258,168.235 6.5,170.5C 7.19238,169.975 7.69238,169.308 8,168.5C 8.30945,169.766 8.80945,170.933 9.5,172C 7.99842,172.583 6.66508,173.416 5.5,174.5C 5.66667,174.833 5.83333,175.167 6,175.5C 7.52517,175.888 9.19183,175.888 11,175.5C 10.9171,172.638 11.0837,169.638 11.5,166.5C 12.552,166.351 13.552,166.517 14.5,167C 13.0678,173.251 15.7344,176.251 22.5,176C 22.9574,176.414 23.2907,176.914 23.5,177.5C 22.0194,177.365 20.3527,177.699 18.5,178.5C 17.7221,180.8 16.7221,182.966 15.5,185C 17.1247,188.451 16.458,189.117 13.5,187C 14.731,185.817 14.731,184.651 13.5,183.5C 12.914,183.709 12.414,184.043 12,184.5C 11.6667,186.833 11.3333,189.167 11,191.5C 6.33531,192.739 6.50198,193.572 11.5,194C 9,194.833 8.83333,196 11,197.5C 12.6667,194.833 14.3333,194.833 16,197.5C 17.9869,195.321 17.8202,193.488 15.5,192C 17.9289,188.638 19.2623,188.638 19.5,192C 21.3506,192.837 23.1839,193.671 25,194.5C 24.7542,191.846 25.4209,189.179 27,186.5C 27.8525,184.875 28.8525,184.542 30,185.5C 31.0656,181.535 31.8989,177.535 32.5,173.5C 33.5486,173.402 34.7153,173.402 36,173.5C 37.5122,172.743 38.8455,171.743 40,170.5C 40.4549,166.924 40.4549,163.257 40,159.5C 40.3333,160.167 40.6667,160.833 41,161.5C 41.5,160.333 42.3333,159.5 43.5,159C 42.2941,157.982 42.6274,157.482 44.5,157.5C 51.217,162.582 52.8837,168.582 49.5,175.5 Z"/></g>
<g><path style="opacity:1" fill="#2c2b66" d="M 161.5,199.5 C 159.5,199.5 157.5,199.5 155.5,199.5C 156.782,196.064 156.782,192.731 155.5,189.5C 155.229,184.297 154.229,179.297 152.5,174.5C 151.037,172.402 151.204,170.402 153,168.5C 153.29,170.044 153.956,171.377 155,172.5C 156.683,181.695 158.85,190.695 161.5,199.5 Z"/></g>
<g><path style="opacity:1" fill="#2c2d3f" d="M 166.5,139.5 C 168.175,142.507 168.841,145.84 168.5,149.5C 166.738,165.964 166.071,182.631 166.5,199.5C 166.167,199.5 165.833,199.5 165.5,199.5C 163.892,188.921 163.058,178.255 163,167.5C 159.323,165.304 155.823,162.97 152.5,160.5C 152.351,159.448 152.517,158.448 153,157.5C 153.708,158.381 154.542,159.047 155.5,159.5C 157.91,160.389 160.41,161.055 163,161.5C 164.681,161.392 165.848,160.725 166.5,159.5C 167.054,152.785 167.054,146.118 166.5,139.5 Z"/></g>
<g><path style="opacity:1" fill="#b8aa7a" d="M 145.5,168.5 C 145.714,172.933 147.88,175.933 152,177.5C 152.497,179.81 152.663,182.143 152.5,184.5C 151.209,184.737 150.209,184.404 149.5,183.5C 150.649,183.209 151.316,182.376 151.5,181C 151.562,178.035 150.395,177.202 148,178.5C 146.608,176.158 145.775,176.158 145.5,178.5C 142.833,175.167 142.833,171.833 145.5,168.5 Z"/></g>
<g><path style="opacity:1" fill="#d5d2d1" d="M 98.5,175.5 C 95.7845,177.902 93.2845,180.568 91,183.5C 90.3333,182.167 90.3333,180.833 91,179.5C 92.045,178.627 92.8783,177.627 93.5,176.5C 95.9801,175.088 98.3134,173.422 100.5,171.5C 100.833,171.667 101.167,171.833 101.5,172C 100.29,173.039 99.2899,174.206 98.5,175.5 Z"/></g>
<g><path style="opacity:1" fill="#3d4055" d="M 49.5,175.5 C 50.9264,176.341 52.2597,177.341 53.5,178.5C 53.3713,180.216 53.038,181.883 52.5,183.5C 51.063,182.278 49.563,182.278 48,183.5C 45.4584,182.098 42.7917,181.098 40,180.5C 39.2797,178.888 39.4464,177.388 40.5,176C 43.4816,175.502 46.4816,175.335 49.5,175.5 Z"/></g>
<g><path style="opacity:1" fill="#6a6d8a" d="M 58.5,179.5 C 58.5,180.167 58.5,180.833 58.5,181.5C 58.5,183.833 58.5,186.167 58.5,188.5C 56.2163,188.025 54.2163,187.025 52.5,185.5C 52.5,184.833 52.5,184.167 52.5,183.5C 53.038,181.883 53.3713,180.216 53.5,178.5C 53.56,177.957 53.8933,177.624 54.5,177.5C 55.6223,178.63 56.9557,179.297 58.5,179.5 Z"/></g>
<g><path style="opacity:1" fill="#474977" d="M 145.5,167.5 C 145.5,167.833 145.5,168.167 145.5,168.5C 142.833,171.833 142.833,175.167 145.5,178.5C 146.11,180.434 147.11,182.101 148.5,183.5C 148.167,184.833 147.833,186.167 147.5,187.5C 146.637,185.24 144.97,183.74 142.5,183C 142.594,178.615 142.761,174.115 143,169.5C 143.417,168.244 144.25,167.577 145.5,167.5 Z"/></g>
<g><path style="opacity:1" fill="#ecda66" d="M 149.5,183.5 C 149.167,183.5 148.833,183.5 148.5,183.5C 147.11,182.101 146.11,180.434 145.5,178.5C 145.775,176.158 146.608,176.158 148,178.5C 150.395,177.202 151.562,178.035 151.5,181C 151.316,182.376 150.649,183.209 149.5,183.5 Z"/></g>
<g><path style="opacity:1" fill="#171a55" d="M 98.5,175.5 C 99.2389,175.369 99.9056,175.536 100.5,176C 97.6603,183.685 95.327,191.519 93.5,199.5C 92.8333,199.5 92.1667,199.5 91.5,199.5C 91.5,197.833 91.5,196.167 91.5,194.5C 94.8891,188.648 97.2225,182.315 98.5,175.5 Z"/></g>
<g><path style="opacity:1" fill="#4a4a95" d="M 79.5,153.5 C 80.3149,154.429 81.1482,155.429 82,156.5C 86.2674,169.038 89.434,181.704 91.5,194.5C 91.5,196.167 91.5,197.833 91.5,199.5C 86.1667,199.5 80.8333,199.5 75.5,199.5C 74.9084,196.873 74.5751,194.206 74.5,191.5C 74.5,188.833 74.5,186.167 74.5,183.5C 75.3195,186.305 75.8195,189.305 76,192.5C 76.6667,193.833 77.6667,194.833 79,195.5C 79.5522,192.953 80.8856,190.953 83,189.5C 83.5946,188.101 83.4279,186.768 82.5,185.5C 84.1667,184.5 85.5,183.167 86.5,181.5C 85.1785,176.934 84.3452,172.267 84,167.5C 82.6667,165.5 81.3333,163.5 80,161.5C 79.5026,158.854 79.3359,156.187 79.5,153.5 Z"/></g>
<g><path style="opacity:1" fill="#a0a8a7" d="M 148.5,183.5 C 148.833,183.5 149.167,183.5 149.5,183.5C 150.209,184.404 151.209,184.737 152.5,184.5C 151.193,185.802 151.193,187.135 152.5,188.5C 150.603,189.652 148.936,189.319 147.5,187.5C 147.833,186.167 148.167,184.833 148.5,183.5 Z"/></g>
<g><path style="opacity:1" fill="#232256" d="M 49.5,175.5 C 46.4816,175.335 43.4816,175.502 40.5,176C 39.4464,177.388 39.2797,178.888 40,180.5C 42.7917,181.098 45.4584,182.098 48,183.5C 49.563,182.278 51.063,182.278 52.5,183.5C 52.5,184.167 52.5,184.833 52.5,185.5C 50.2869,184.395 48.1203,184.395 46,185.5C 46.1623,190.169 46.6623,194.835 47.5,199.5C 46.8333,199.5 46.1667,199.5 45.5,199.5C 44.8934,195.156 43.06,191.489 40,188.5C 38.1935,190.694 35.8601,192.027 33,192.5C 32.1529,194.854 31.3195,197.188 30.5,199.5C 29.1667,199.5 27.8333,199.5 26.5,199.5C 29.2433,196.299 31.2433,192.633 32.5,188.5C 33.8333,187.5 35.1667,186.5 36.5,185.5C 37.1667,182.167 37.8333,178.833 38.5,175.5C 42.3451,173.034 46.0117,173.034 49.5,175.5 Z"/></g>
<g><path style="opacity:1" fill="#181a2d" d="M 58.5,181.5 C 61.4247,183.758 64.0914,186.425 66.5,189.5C 65.0222,189.238 63.6888,189.571 62.5,190.5C 63.8569,192.186 65.1902,193.852 66.5,195.5C 65.448,195.649 64.448,195.483 63.5,195C 62.2668,193.333 60.9335,191.833 59.5,190.5C 59.1667,189.833 58.8333,189.167 58.5,188.5C 58.5,186.167 58.5,183.833 58.5,181.5 Z"/></g>
<g><path style="opacity:1" fill="#413e8b" d="M 73.5,143.5 C 74.4959,143.414 75.3292,143.748 76,144.5C 77.1798,147.521 78.3465,150.521 79.5,153.5C 79.3359,156.187 79.5026,158.854 80,161.5C 81.3333,163.5 82.6667,165.5 84,167.5C 84.3452,172.267 85.1785,176.934 86.5,181.5C 85.5,183.167 84.1667,184.5 82.5,185.5C 83.4279,186.768 83.5946,188.101 83,189.5C 80.8856,190.953 79.5522,192.953 79,195.5C 77.6667,194.833 76.6667,193.833 76,192.5C 75.8195,189.305 75.3195,186.305 74.5,183.5C 77.3061,174.041 78.1394,164.374 77,154.5C 76.6264,152.509 75.793,150.842 74.5,149.5C 73.8505,147.565 73.5172,145.565 73.5,143.5 Z"/></g>
<g><path style="opacity:1" fill="#4d507e" d="M 145.5,168.5 C 146.496,168.414 147.329,168.748 148,169.5C 148.494,171.134 148.66,172.801 148.5,174.5C 149.833,174.5 151.167,174.5 152.5,174.5C 154.229,179.297 155.229,184.297 155.5,189.5C 154.058,190.82 153.392,192.486 153.5,194.5C 149.45,194.128 147.45,191.795 147.5,187.5C 148.936,189.319 150.603,189.652 152.5,188.5C 151.193,187.135 151.193,185.802 152.5,184.5C 152.663,182.143 152.497,179.81 152,177.5C 147.88,175.933 145.714,172.933 145.5,168.5 Z"/></g>
<g><path style="opacity:1" fill="#38367a" d="M 52.5,185.5 C 54.2163,187.025 56.2163,188.025 58.5,188.5C 58.8333,189.167 59.1667,189.833 59.5,190.5C 59.3433,191.873 59.51,193.207 60,194.5C 62.3284,195.664 64.1618,197.33 65.5,199.5C 59.5,199.5 53.5,199.5 47.5,199.5C 46.6623,194.835 46.1623,190.169 46,185.5C 48.1203,184.395 50.2869,184.395 52.5,185.5 Z"/></g>
<g><path style="opacity:1" fill="#171642" d="M 45.5,199.5 C 40.5,199.5 35.5,199.5 30.5,199.5C 31.3195,197.188 32.1529,194.854 33,192.5C 35.8601,192.027 38.1935,190.694 40,188.5C 43.06,191.489 44.8934,195.156 45.5,199.5 Z"/></g>
<g><path style="opacity:1" fill="#424459" d="M 71.5,186.5 C 72.0842,190.863 73.0842,195.196 74.5,199.5C 73.1667,199.5 71.8333,199.5 70.5,199.5C 70.5123,196.858 69.179,195.525 66.5,195.5C 65.1902,193.852 63.8569,192.186 62.5,190.5C 63.6888,189.571 65.0222,189.238 66.5,189.5C 69.7538,192.033 71.4204,191.033 71.5,186.5 Z"/></g>
<g><path style="opacity:1" fill="#353b84" d="M 94.5,148.5 C 96.4664,149.441 98.4664,150.441 100.5,151.5C 102.571,149.815 104.571,148.148 106.5,146.5C 109.954,151.936 112.787,157.936 115,164.5C 114.882,159.797 113.715,155.297 111.5,151C 111.833,150.5 112.167,150 112.5,149.5C 118.055,150.619 123.388,152.286 128.5,154.5C 129.771,151.606 130.938,148.273 132,144.5C 133.145,145.636 134.312,146.636 135.5,147.5C 135.062,147.435 134.728,147.601 134.5,148C 135.126,148.75 135.626,149.584 136,150.5C 137.362,151.925 138.862,152.758 140.5,153C 139.862,154.707 139.862,156.54 140.5,158.5C 145.89,158.43 146.556,159.93 142.5,163C 145.582,163.521 146.582,165.021 145.5,167.5C 144.25,167.577 143.417,168.244 143,169.5C 142.761,174.115 142.594,178.615 142.5,183C 144.97,183.74 146.637,185.24 147.5,187.5C 147.45,191.795 149.45,194.128 153.5,194.5C 153.392,192.486 154.058,190.82 155.5,189.5C 156.782,192.731 156.782,196.064 155.5,199.5C 134.833,199.5 114.167,199.5 93.5,199.5C 95.327,191.519 97.6603,183.685 100.5,176C 99.9056,175.536 99.2389,175.369 98.5,175.5C 99.2899,174.206 100.29,173.039 101.5,172C 101.167,171.833 100.833,171.667 100.5,171.5C 98.3134,173.422 95.9801,175.088 93.5,176.5C 91.9992,168.419 89.4992,160.419 86,152.5C 83.9759,150.642 81.8092,148.975 79.5,147.5C 78.8711,143.893 77.8711,140.393 76.5,137C 76.8333,136.5 77.1667,136 77.5,135.5C 82.0484,138.547 85.7151,142.38 88.5,147C 90.3453,148.128 92.3453,148.628 94.5,148.5 Z"/></g>
<g><path style="opacity:1" fill="#0d153a" d="M 92.5,145.5 C 96.9554,148.993 101.622,149.326 106.5,146.5C 104.571,148.148 102.571,149.815 100.5,151.5C 98.4664,150.441 96.4664,149.441 94.5,148.5C 93.5707,147.685 92.5707,146.852 91.5,146C 91.7284,145.601 92.0618,145.435 92.5,145.5 Z"/></g>
<g><path style="opacity:1" fill="#292951" d="M 59.5,190.5 C 60.9335,191.833 62.2668,193.333 63.5,195C 64.448,195.483 65.448,195.649 66.5,195.5C 69.179,195.525 70.5123,196.858 70.5,199.5C 68.8333,199.5 67.1667,199.5 65.5,199.5C 64.1618,197.33 62.3284,195.664 60,194.5C 59.51,193.207 59.3433,191.873 59.5,190.5 Z"/></g>
</svg>
