<?xml version="1.0" encoding="UTF-8"?>
<svg version="1.1" xmlns="http://www.w3.org/2000/svg" width="614" height="614">
<path d="M0 0 C202.62 0 405.24 0 614 0 C614 202.62 614 405.24 614 614 C411.38 614 208.76 614 0 614 C0 411.38 0 208.76 0 0 Z " fill="#FEFEFE" transform="translate(0,0)"/>
<path d="M0 0 C3.3 0 6.6 0 10 0 C10 0.66 10 1.32 10 2 C10.763125 2.061875 11.52625 2.12375 12.3125 2.1875 C17.56521514 3.34487791 22.1721503 5.67197995 27 8 C27 8.66 27 9.32 27 10 C28.2375 10.33 29.475 10.66 30.75 11 C36.18533027 12.78884287 40.53906866 15.80506382 45.203125 19.0625 C47.95757412 21.03195662 47.95757412 21.03195662 50.859375 22.625 C51.56578125 23.07875 52.2721875 23.5325 53 24 C53 24.66 53 25.32 53 26 C53.53625 26.2475 54.0725 26.495 54.625 26.75 C59.83739727 29.49336698 63.95075673 32.73763866 68 37 C68.763125 37.721875 69.52625 38.44375 70.3125 39.1875 C72 41 72 41 72 43 C72.66 43 73.32 43 74 43 C74 43.66 74 44.32 74 45 C74.556875 45.20625 75.11375 45.4125 75.6875 45.625 C78.28494022 47.16942391 79.78531841 49.06447798 81.640625 51.41796875 C83.02587399 53.03011197 84.46694592 54.29937756 86.125 55.625 C88.57538887 57.64923428 90.33595199 59.31903375 92 62 C92 62.66 92 63.32 92 64 C92.5775 64.226875 93.155 64.45375 93.75 64.6875 C96.59591381 66.34761639 97.99841921 68.39187957 100 71 C100.825 71.825 101.65 72.65 102.5 73.5 C105 76 105 76 106.875 78.875 C107.57625 79.57625 108.2775 80.2775 109 81 C111.70628024 81 113.43104878 80.6993764 116 80 C118.04124253 79.47750688 120.08294151 78.95679497 122.125 78.4375 C123.11757812 78.16808594 124.11015625 77.89867187 125.1328125 77.62109375 C127.86012739 77.03029938 130.22149288 76.88295666 133 77 C133 76.34 133 75.68 133 75 C165.91983814 68.76518217 201.2139363 66.90901861 234 75 C234 75.66 234 76.32 234 77 C234.9075 77.0825 235.815 77.165 236.75 77.25 C241.48183761 77.87897637 245.79406976 79.65266606 250.23046875 81.35546875 C252.89867499 82.21308334 252.89867499 82.21308334 255.09765625 81.3984375 C257.48947294 79.64018211 259.30052319 77.67799584 261.25 75.4375 C262.02988281 74.55191406 262.80976563 73.66632813 263.61328125 72.75390625 C265.17555789 70.95127936 266.73554623 69.14666612 268.29296875 67.33984375 C269.00066406 66.52644531 269.70835937 65.71304688 270.4375 64.875 C271.07558594 64.12992187 271.71367187 63.38484375 272.37109375 62.6171875 C274 61 274 61 276 61 C276.24105469 60.443125 276.48210937 59.88625 276.73046875 59.3125 C278.2726121 56.50342658 280.16015053 54.37301051 282.3125 52 C283.07175781 51.154375 283.83101563 50.30875 284.61328125 49.4375 C286.94150169 47.05974295 289.39094515 45.05840006 292 43 C293.35386936 41.34997172 294.68678142 39.6825613 296 38 C297.64646685 36.31337542 299.31183067 34.64488294 301 33 C301.7425 32.195625 301.7425 32.195625 302.5 31.375 C304 30 304 30 306.2265625 28.7109375 C309.34326727 26.78823794 312.04269487 24.57061642 314.875 22.25 C319.62664763 18.48421728 324.43706642 15.49132161 329.9375 12.9375 C330.85861572 12.50775879 330.85861572 12.50775879 331.79833984 12.06933594 C335.50361555 10.43129909 338.98464166 9.49655576 343 9 C343 8.34 343 7.68 343 7 C364.20314961 -0.76062992 364.20314961 -0.76062992 371 1 C373.46596717 2.50732577 374.77525217 3.45962671 375.8972168 6.15722656 C376.07937744 6.97674805 376.26153809 7.79626953 376.44921875 8.640625 C376.76149414 9.99994141 376.76149414 9.99994141 377.08007812 11.38671875 C377.28052734 12.33160156 377.48097656 13.27648437 377.6875 14.25 C377.89955078 15.17941406 378.11160156 16.10882813 378.33007812 17.06640625 C380.71262247 27.6939069 381.23929756 37.95967148 381.25 48.8125 C381.25133942 49.61012756 381.25267883 50.40775513 381.25405884 51.22955322 C381.24711092 70.37657301 379.77029715 89.39245793 375 108 C374.34 108 373.68 108 373 108 C372.89816406 109.23621094 372.79632813 110.47242188 372.69140625 111.74609375 C372.03254553 117.67584019 370.50000118 123.31641098 368.9375 129.0625 C368.65583984 130.11888672 368.37417969 131.17527344 368.08398438 132.26367188 C367.39510271 134.84405915 366.70034171 137.42270414 366 140 C365.34 140 364.68 140 364 140 C363.88785156 141.134375 363.77570313 142.26875 363.66015625 143.4375 C363.07422566 148.12494474 361.83062151 152.49674447 360.4375 157 C360.20353516 157.77472656 359.96957031 158.54945313 359.72851562 159.34765625 C359.15809962 161.2335214 358.57987197 163.1170209 358 165 C357.34 165 356.68 165 356 165 C355.49859915 167.46319252 355.0036972 169.92711003 354.5234375 172.39453125 C354.1251181 174.37721064 353.66925414 176.34842545 353.1875 178.3125 C352.94666705 181.76443889 354.09862936 183.18597146 356 186 C356 186.99 356 187.98 356 189 C356.66 189 357.32 189 358 189 C359.1560727 191.2034806 360.29984721 193.41203156 361.4375 195.625 C361.92573242 196.55119141 361.92573242 196.55119141 362.42382812 197.49609375 C364.38259628 201.33285611 365.53221258 204.71743908 366 209 C366.66 209 367.32 209 368 209 C368.67184618 211.10251861 369.33730968 213.20707763 370 215.3125 C370.37125 216.48425781 370.7425 217.65601563 371.125 218.86328125 C372 222 372 222 372 225 C372.66 225 373.32 225 374 225 C374.82269361 229.24809065 375.63123111 233.49876402 376.4375 237.75 C376.78264648 239.53083984 376.78264648 239.53083984 377.13476562 241.34765625 C379.40333924 253.38095975 380.15560096 265.01999397 380.0625 277.25 C380.041875 281.1275 380.02125 285.005 380 289 C364.82 289 349.64 289 334 289 C334 289.66 334 290.32 334 291 C332.7934375 291.26554687 331.586875 291.53109375 330.34375 291.8046875 C328.72915391 292.16140059 327.11457129 292.51817468 325.5 292.875 C324.70851563 293.04902344 323.91703125 293.22304688 323.1015625 293.40234375 C318.04529067 294.52135473 313.01857819 295.72233445 308 297 C308 297.66 308 298.32 308 299 C307.236875 299.20625 306.47375 299.4125 305.6875 299.625 C296.98695841 302.86926974 289.55361877 307.83840398 282.21484375 313.4609375 C280 315 280 315 278 315 C277.690625 315.804375 277.690625 315.804375 277.375 316.625 C275.46749574 319.91978009 272.95180616 322.59363628 270 325 C269.34 325 268.68 325 268 325 C267.32739649 323.23141309 266.66211605 321.46003984 266 319.6875 C265.62875 318.70136719 265.2575 317.71523438 264.875 316.69921875 C264 314 264 314 264 311 C263.34 311 262.68 311 262 311 C260.82866942 308.54379149 259.66278278 306.08525083 258.5 303.625 C258.16613281 302.92632812 257.83226562 302.22765625 257.48828125 301.5078125 C255 296.2265625 255 296.2265625 255 294 C254.01 293.67 253.02 293.34 252 293 C251.14544461 291.39343587 250.2910599 289.78678075 249.4375 288.1796875 C245.7919392 282.65190781 240.49272757 277.66181838 235 274 C235 273.34 235 272.68 235 272 C234.28070313 271.72285156 233.56140625 271.44570313 232.8203125 271.16015625 C230.09255817 270.03807448 227.49927542 268.78173894 224.875 267.4375 C222.23739445 266.08662907 219.8167673 264.93892243 217 264 C217 263.34 217 262.68 217 262 C195.65547348 256.54826233 174.21666561 255.66552789 153 262 C151.33779782 262.35492646 149.67261229 262.69791223 148 263 C148 263.66 148 264.32 148 265 C146.04414675 266.00484204 144.08523763 267.00373805 142.125 268 C140.48917969 268.8353125 140.48917969 268.8353125 138.8203125 269.6875 C136 271 136 271 134 271 C133.67 271.99 133.34 272.98 133 274 C131.31448105 275.18977808 129.62580627 276.37561492 127.9140625 277.52734375 C125.25853253 279.57047599 123.31115989 282.01113976 121.26171875 284.64453125 C120.84535156 285.09183594 120.42898437 285.53914063 120 286 C119.34 286 118.68 286 118 286 C117.79375 286.66 117.5875 287.32 117.375 288 C116.18546132 290.59535712 115.12891341 292.19214037 113.375 294.375 C108.70006011 300.36910609 105.45708848 307.26130977 102 314 C101.34 314 100.68 314 100 314 C99.896875 314.70125 99.79375 315.4025 99.6875 316.125 C98.90640997 319.39137647 97.57941257 322.0471852 96 325 C95.0925 324.21625 94.185 323.4325 93.25 322.625 C91.83424933 321.41559356 90.41742874 320.2074393 89 319 C88.06929688 318.20335937 87.13859375 317.40671875 86.1796875 316.5859375 C80.36873838 311.64893556 74.50791679 307.00097608 68 303 C67.12988281 302.45085937 67.12988281 302.45085937 66.2421875 301.890625 C56.89018171 296.23592382 46.49602389 293.63100332 36 291 C36 290.34 36 289.68 36 289 C18.37387705 287.44065895 0.62612295 287.44065895 -17 289 C-17.34216922 267.68022538 -16.51184139 247.65602695 -11 227 C-10.34 227 -9.68 227 -9 227 C-8.90203125 226.40574219 -8.8040625 225.81148437 -8.703125 225.19921875 C-7.49358084 218.49459034 -5.48174328 212.33687847 -3 206 C-2.34 206 -1.68 206 -1 206 C-0.88785156 205.30519531 -0.77570313 204.61039063 -0.66015625 203.89453125 C0.08446115 200.62967036 1.24400088 197.76399795 2.5625 194.6875 C3.01753906 193.61886719 3.47257812 192.55023438 3.94140625 191.44921875 C4.29074219 190.64097656 4.64007813 189.83273437 5 189 C5.66 189 6.32 189 7 189 C7.103125 188.360625 7.20625 187.72125 7.3125 187.0625 C8.08531486 183.61996106 9.28412163 180.46282739 10.57421875 177.18359375 C11.11491812 174.41064928 10.36341247 173.40689061 9 171 C9 170.01 9 169.02 9 168 C8.34 168 7.68 168 7 168 C-1 149.88142292 -1 149.88142292 -1 141 C-1.66 141 -2.32 141 -3 141 C-3.99338107 137.23276893 -4.96699882 133.46068423 -5.9375 129.6875 C-6.35418945 128.1087207 -6.35418945 128.1087207 -6.77929688 126.49804688 C-8.52550991 119.66046573 -9.60064613 113.04705976 -10 106 C-10.66 106 -11.32 106 -12 106 C-12.48253484 101.60452976 -12.96039078 97.2085622 -13.4375 92.8125 C-13.57220703 91.58595703 -13.70691406 90.35941406 -13.84570312 89.09570312 C-15.21647341 76.4244363 -16.20378057 63.8676923 -16.24023438 51.11645508 C-16.2499764 49.06746332 -16.28116516 47.01946341 -16.3125 44.97070312 C-16.39156654 34.89650897 -15.19736942 25.59210826 -12 16 C-11.34 16 -10.68 16 -10 16 C-9.9175 15.319375 -9.835 14.63875 -9.75 13.9375 C-8.7938121 10.19243074 -7.39253906 7.05363537 -5 4 C-2.25 2.5625 -2.25 2.5625 0 2 C0 1.34 0 0.68 0 0 Z " fill="#010101" transform="translate(125,90)"/>
<path d="M0 0 C0.33 0 0.66 0 1 0 C1.14099121 0.69037354 1.28198242 1.38074707 1.42724609 2.09204102 C2.07370921 5.2494389 2.72431954 8.40596866 3.375 11.5625 C3.59671875 12.64853516 3.8184375 13.73457031 4.046875 14.85351562 C5.40726611 21.48948394 5.40726611 21.48948394 7.1640625 28.02734375 C8 31 8 31 8 35 C8.66 35 9.32 35 10 35 C10.17128418 35.60473145 10.34256836 36.20946289 10.51904297 36.83251953 C11.30294487 39.59708376 12.08895446 42.36104454 12.875 45.125 C13.14441406 46.07632813 13.41382813 47.02765625 13.69140625 48.0078125 C15.02997128 52.70911408 16.39773344 57.37987216 18 62 C18.66 62 19.32 62 20 62 C22.47529292 66.35310135 23.40440102 68.48436029 22.0859375 73.42578125 C20.81695839 76.66912171 19.47607134 79.84591921 18 83 C17.34 83 16.68 83 16 83 C15.81824219 83.64066406 15.63648438 84.28132813 15.44921875 84.94140625 C13.93729955 90.14395897 12.24999329 95.07144327 10 100 C9.34 100 8.68 100 8 100 C7.7525 101.2375 7.505 102.475 7.25 103.75 C5.95181648 109.64826858 3.98560032 115.30344763 2 121 C1.34 121 0.68 121 0 121 C-0.103125 122.010625 -0.20625 123.02125 -0.3125 124.0625 C-0.78202829 127.9572203 -1.60514021 131.7060801 -2.46875 135.53125 C-4.48022185 145.08867875 -4.79466009 154.70459896 -5.1875 164.4375 C-5.2691285 166.24809469 -5.3518046 168.05864247 -5.43554688 169.86914062 C-5.63574016 174.24564863 -5.82188289 178.62254027 -6 183 C-5.01 182.67 -4.02 182.34 -3 182 C13.30934138 179.55359879 30.80420817 180.13439386 47 183 C47 183.66 47 184.32 47 185 C48.175625 185.061875 49.35125 185.12375 50.5625 185.1875 C59.64122982 186.19785149 69.02179028 189.05293467 76 195 C77.19625 195.556875 78.3925 196.11375 79.625 196.6875 C89.65045162 201.52153577 97.89042646 210.48648796 106 218 C108.09782787 215.90217213 108.6509396 214.6200793 109.625 211.875 C109.88539063 211.15054688 110.14578125 210.42609375 110.4140625 209.6796875 C110.60742188 209.12539063 110.80078125 208.57109375 111 208 C111.66 208 112.32 208 113 208 C113.39638672 206.69289063 113.39638672 206.69289063 113.80078125 205.359375 C117.81386468 194.11751262 125.46026393 182.25849484 135 175 C135.804375 174.195625 136.60875 173.39125 137.4375 172.5625 C143.38031959 166.61968041 149.15297542 162.24209791 157 159 C157.66 159 158.32 159 159 159 C159 158.34 159 157.68 159 157 C161.54013909 156.1824493 164.08193231 155.37084814 166.625 154.5625 C167.69427734 154.21735352 167.69427734 154.21735352 168.78515625 153.86523438 C169.48769531 153.64287109 170.19023437 153.42050781 170.9140625 153.19140625 C171.5529541 152.98717041 172.1918457 152.78293457 172.85009766 152.57250977 C188.89831847 148.29893745 212.81258722 148.40629361 228 156 C228 156.66 228 157.32 228 158 C228.86496094 158.09796875 229.72992188 158.1959375 230.62109375 158.296875 C234.31871141 159.06632145 236.82303826 160.32722271 240.0625 162.25 C241.06410156 162.83265625 242.06570313 163.4153125 243.09765625 164.015625 C246.13434824 166.09185586 248.46779849 168.33856332 251 171 C251.84820312 171.81339844 252.69640625 172.62679687 253.5703125 173.46484375 C254.41335938 174.28082031 255.25640625 175.09679687 256.125 175.9375 C256.97320312 176.75089844 257.82140625 177.56429687 258.6953125 178.40234375 C261.11132628 181.12547793 262.39933583 183.75108434 264 187 C264.66515625 187.65742188 265.3303125 188.31484375 266.015625 188.9921875 C268.47855861 191.48421088 269.45871839 193.88085423 270.75 197.125 C271.17796875 198.17945313 271.6059375 199.23390625 272.046875 200.3203125 C273 203 273 203 273 205 C273.66 205 274.32 205 275 205 C275.67260351 206.76858691 276.33788395 208.53996016 277 210.3125 C277.37125 211.29863281 277.7425 212.28476562 278.125 213.30078125 C279 216 279 216 279 219 C280.25160238 217.91851833 281.50120381 216.83472078 282.75 215.75 C283.44609375 215.14671875 284.1421875 214.5434375 284.859375 213.921875 C286.99340542 212.06041161 286.99340542 212.06041161 288.77734375 210.109375 C291.86483511 207.17924261 295.29498568 204.88398477 298.8125 202.5 C299.49892578 202.02691406 300.18535156 201.55382812 300.89257812 201.06640625 C313.65091904 192.35162655 313.65091904 192.35162655 319 193 C319 192.34 319 191.68 319 191 C327.67268685 187.82820764 335.65950041 185.2136081 345 185 C345 184.34 345 183.68 345 183 C349.40355361 182.15398674 353.56937409 181.87136486 358.05078125 181.8671875 C359.03814522 181.86575241 359.03814522 181.86575241 360.04545593 181.86428833 C361.43126522 181.86361149 362.81707777 181.86543097 364.20288086 181.86962891 C366.29613583 181.87495834 368.38917372 181.86968036 370.48242188 181.86328125 C377.39315112 181.86019679 384.14970366 182.04202293 391 183 C390.43701447 164.16515884 389.39026522 145.8309415 385.5859375 127.35546875 C385.08224082 124.47096574 384.87785482 121.91482809 385 119 C384.34 119 383.68 119 383 119 C381.02 111.08 381.02 111.08 379 103 C378.34 103 377.68 103 377 103 C375.8529341 100.22967112 374.70729921 97.4587654 373.5625 94.6875 C373.07426758 93.50897461 373.07426758 93.50897461 372.57617188 92.30664062 C372.26357422 91.54931641 371.95097656 90.79199219 371.62890625 90.01171875 C371.34088135 89.31522217 371.05285645 88.61872559 370.75610352 87.90112305 C370.11476643 86.28856513 369.5487856 84.64635679 369 83 C368.34 83 367.68 83 367 83 C364.84387388 79.73017238 362.9175916 76.72469007 363.109375 72.7109375 C363.62824285 70.42320198 364.2678743 68.22820866 365 66 C365.37812705 64.64670318 365.75343658 63.29261364 366.125 61.9375 C366.41375 60.968125 366.7025 59.99875 367 59 C367.66 59 368.32 59 369 59 C369.11214844 58.03964844 369.22429687 57.07929688 369.33984375 56.08984375 C370.00064938 51.46420435 371.27271117 47.04605164 372.5625 42.5625 C372.79646484 41.73556641 373.03042969 40.90863281 373.27148438 40.05664062 C373.84363015 38.03661574 374.42125204 36.01814324 375 34 C375.66 34 376.32 34 377 34 C377.1139209 33.41299316 377.2278418 32.82598633 377.34521484 32.22119141 C378.65222782 25.57688366 380.10948218 18.97455146 381.625 12.375 C381.85445313 11.37082031 382.08390625 10.36664063 382.3203125 9.33203125 C382.87900692 6.88774315 383.43892054 4.44374151 384 2 C384.33 2 384.66 2 385 2 C385.226875 2.804375 385.45375 3.60875 385.6875 4.4375 C387.64402589 9.74807026 390.02438549 15.02438549 394.0625 19.0625 C395.94074412 20.94074412 396.72650561 22.25744119 397.859375 24.61328125 C399.24220346 27.45094381 400.64737543 30.27051543 402.10546875 33.0703125 C402.79947917 34.421875 403.49348958 35.7734375 404.1875 37.125 C404.54263672 37.80175781 404.89777344 38.47851562 405.26367188 39.17578125 C407.27756218 43.12713338 408.53279367 46.52318712 409 51 C409.66 51 410.32 51 411 51 C411.84080019 53.41429769 412.67281402 55.83103993 413.5 58.25 C413.73847656 58.93191406 413.97695313 59.61382812 414.22265625 60.31640625 C415.39421287 63.76413003 416 66.31702904 416 70 C416.66 70 417.32 70 418 70 C420.55878901 80.21389606 423.05194412 90.42643908 424.8125 100.8125 C424.9360083 101.52132324 425.0595166 102.23014648 425.18676758 102.96044922 C425.95107213 107.68982899 426.10191875 112.20981853 426 117 C426.66 117 427.32 117 428 117 C429.82208318 130.89338426 429.39925205 145.08243946 428 159 C427.34 159 426.68 159 426 159 C426.02175293 159.57613037 426.04350586 160.15226074 426.06591797 160.74584961 C426.21350775 167.85335171 425.31553631 174.56704371 424.125 181.5625 C423.95097656 182.63435547 423.77695312 183.70621094 423.59765625 184.81054688 C422.58781652 190.92568745 421.40612353 196.96380303 420 203 C419.34 203 418.68 203 418 203 C417.89816406 204.134375 417.79632812 205.26875 417.69140625 206.4375 C417.09328854 211.22244167 415.61829299 215.49968652 413.9375 220 C413.65583984 220.77472656 413.37417969 221.54945313 413.08398438 222.34765625 C412.39679702 224.23450967 411.69945987 226.11766151 411 228 C410.34 228 409.68 228 409 228 C408.81824219 228.56847656 408.63648438 229.13695312 408.44921875 229.72265625 C406.85915366 234.60701003 405.09540222 239.31029027 403 244 C402.34 244 401.68 244 401 244 C400.72414063 244.71542969 400.44828125 245.43085938 400.1640625 246.16796875 C399.01751478 248.95738855 397.73772885 251.62290358 396.375 254.3125 C395.92898438 255.19550781 395.48296875 256.07851563 395.0234375 256.98828125 C394.68570312 257.65214844 394.34796875 258.31601562 394 259 C393.34 259 392.68 259 392 259 C391.76667969 259.69480469 391.53335937 260.38960938 391.29296875 261.10546875 C389.74778118 264.56463487 387.64702299 267.36326276 385.3125 270.3125 C384.86696777 270.88355469 384.42143555 271.45460938 383.96240234 272.04296875 C380.91176966 275.92459422 377.75070761 279.68817166 374.453125 283.36328125 C373.21100686 284.76233367 372.03538853 286.2199498 370.875 287.6875 C367.03514617 292.42331972 362.50850254 296.32565071 357.91796875 300.3046875 C354.59900378 303.23835511 351.5530186 306.41933047 348.5 309.625 C346 312 346 312 343.78515625 313.296875 C339.58525237 315.86511917 335.88228393 319.02654745 332.08398438 322.1484375 C331.48779297 322.62796875 330.89160156 323.1075 330.27734375 323.6015625 C329.47671509 324.25632568 329.47671509 324.25632568 328.65991211 324.92431641 C327 326 327 326 324.85766602 326.46240234 C324.24463623 326.63980957 323.63160645 326.8172168 323 327 C322.67 327.99 322.34 328.98 322 330 C319.91381072 331.39575289 317.8847864 332.61839807 315.6875 333.8125 C315.06391602 334.15925781 314.44033203 334.50601562 313.79785156 334.86328125 C297.22915111 344 297.22915111 344 294 344 C294 344.66 294 345.32 294 346 C291.41958904 347.00816056 288.83613056 348.0067111 286.25 349 C285.52039063 349.28617188 284.79078125 349.57234375 284.0390625 349.8671875 C283.33007812 350.13789062 282.62109375 350.40859375 281.890625 350.6875 C281.24125977 350.93886719 280.59189453 351.19023438 279.92285156 351.44921875 C278 352 278 352 274 352 C274 352.66 274 353.32 274 354 C270.71263668 354.99401229 267.41947984 355.96736005 264.125 356.9375 C263.2071875 357.21529297 262.289375 357.49308594 261.34375 357.77929688 C255.22600147 359.56723042 249.36216689 360.60657979 243 361 C243 361.66 243 362.32 243 363 C239.60509621 363.48590046 236.20893036 363.96239751 232.8125 364.4375 C231.87212891 364.57220703 230.93175781 364.70691406 229.96289062 364.84570312 C216.5385957 366.71145259 203.22033386 367.23403949 189.6875 367.25 C188.85760559 367.25200409 188.02771118 367.25400818 187.17266846 367.256073 C172.05775634 367.26498059 156.70850576 366.84827619 142 363 C142 362.34 142 361.68 142 361 C140.8553125 360.88785156 139.710625 360.77570313 138.53125 360.66015625 C133.99572797 360.093216 129.82888996 358.86843862 125.5 357.4375 C124.77296875 357.20353516 124.0459375 356.96957031 123.296875 356.72851562 C121.52919739 356.15867219 119.76429031 355.58024596 118 355 C118 354.34 118 353.68 118 353 C116.14375 352.6596875 116.14375 352.6596875 114.25 352.3125 C108.19074171 350.98854723 102.65108692 348.50521958 97 346 C97 345.34 97 344.68 97 344 C96.30777344 343.89816406 95.61554688 343.79632812 94.90234375 343.69140625 C86.27069609 341.63514564 77.90210843 336.03103587 70.1875 331.6875 C69.28076538 331.18174438 69.28076538 331.18174438 68.35571289 330.66577148 C64.12001732 328.24003465 64.12001732 328.24003465 63 326 C61.79219399 325.33465773 60.55715013 324.71856697 59.3125 324.125 C53.9473642 321.253881 49.63227414 317.43963238 45.09619141 313.43823242 C42.05404972 310.75561657 39.04086497 308.23120164 35.6875 305.9375 C31.41047037 302.84853416 28.41140938 298.79958283 25.16796875 294.6796875 C22.80576078 291.75991333 20.26579436 289.17251271 17.57421875 286.5625 C15.17105971 284.17723049 13.06207441 281.68694544 11 279 C11 278.34 11 277.68 11 277 C10.34 277 9.68 277 9 277 C7.44921875 275.27734375 7.44921875 275.27734375 5.6875 272.9375 C4.75357422 271.69806641 4.75357422 271.69806641 3.80078125 270.43359375 C2.90939453 269.22896484 2.90939453 269.22896484 2 268 C1.53980469 267.39285156 1.07960937 266.78570312 0.60546875 266.16015625 C-2.20326355 262.3705968 -4.50410268 258.4129212 -6.73828125 254.26171875 C-7.96588498 252.06115355 -9.3005808 249.97774847 -10.6875 247.875 C-12.94949537 244.33262989 -14.06339717 241.08699415 -15 237 C-15.66 237 -16.32 237 -17 237 C-17.83739781 234.8765984 -18.66980283 232.7512272 -19.5 230.625 C-19.9640625 229.44164062 -20.428125 228.25828125 -20.90625 227.0390625 C-22 224 -22 224 -22 222 C-22.66 222 -23.32 222 -24 222 C-25.17692357 218.75362269 -26.33972274 215.5023602 -27.5 212.25 C-27.83386719 211.32960938 -28.16773437 210.40921875 -28.51171875 209.4609375 C-28.82753906 208.57148438 -29.14335938 207.68203125 -29.46875 206.765625 C-29.76201172 205.94868164 -30.05527344 205.13173828 -30.35742188 204.29003906 C-31 202 -31 202 -31 198 C-31.66 198 -32.32 198 -33 198 C-42.3454896 160.33340742 -42.66686465 120.80228199 -34 83 C-33.34 83 -32.68 83 -32 83 C-31.84724609 81.3603125 -31.84724609 81.3603125 -31.69140625 79.6875 C-31.01727671 74.29446369 -29.48257878 69.19806087 -27.9375 64 C-27.65583984 63.03449219 -27.37417969 62.06898438 -27.08398438 61.07421875 C-26.39475721 58.71449184 -25.69999989 56.35654915 -25 54 C-24.34 54 -23.68 54 -23 54 C-22.87415527 53.26821533 -22.74831055 52.53643066 -22.61865234 51.7824707 C-21.61999709 47.29088667 -19.58905831 43.33029017 -17.625 39.1875 C-17.18744385 38.25623291 -16.7498877 37.32496582 -16.29907227 36.36547852 C-13.34532143 30.27052828 -9.97842917 24.85995484 -5.9375 19.4375 C-1.26506322 13.15179953 0.65440013 8.0354248 0 0 Z " fill="#FBFCFC" transform="translate(114,196)"/>
<path d="M0 0 C0.33 0 0.66 0 1 0 C1.14099121 0.69037354 1.28198242 1.38074707 1.42724609 2.09204102 C2.07370921 5.2494389 2.72431954 8.40596866 3.375 11.5625 C3.59671875 12.64853516 3.8184375 13.73457031 4.046875 14.85351562 C5.40726611 21.48948394 5.40726611 21.48948394 7.1640625 28.02734375 C8 31 8 31 8 35 C8.66 35 9.32 35 10 35 C10.17128418 35.60473145 10.34256836 36.20946289 10.51904297 36.83251953 C11.30294487 39.59708376 12.08895446 42.36104454 12.875 45.125 C13.14441406 46.07632813 13.41382813 47.02765625 13.69140625 48.0078125 C15.02997128 52.70911408 16.39773344 57.37987216 18 62 C18.66 62 19.32 62 20 62 C22.47529292 66.35310135 23.40440102 68.48436029 22.0859375 73.42578125 C20.81695839 76.66912171 19.47607134 79.84591921 18 83 C17.34 83 16.68 83 16 83 C15.81824219 83.64066406 15.63648438 84.28132813 15.44921875 84.94140625 C13.93729955 90.14395897 12.24999329 95.07144327 10 100 C9.34 100 8.68 100 8 100 C7.7525 101.2375 7.505 102.475 7.25 103.75 C5.95181648 109.64826858 3.98560032 115.30344763 2 121 C1.34 121 0.68 121 0 121 C-0.103125 122.010625 -0.20625 123.02125 -0.3125 124.0625 C-0.78202829 127.9572203 -1.60514021 131.7060801 -2.46875 135.53125 C-4.48022185 145.08867875 -4.79466009 154.70459896 -5.1875 164.4375 C-5.2691285 166.24809469 -5.3518046 168.05864247 -5.43554688 169.86914062 C-5.63574016 174.24564863 -5.82188289 178.62254027 -6 183 C-5.01 182.67 -4.02 182.34 -3 182 C-0.93854893 181.931009 1.12501401 181.91532273 3.1875 181.9375 C4.27417969 181.94652344 5.36085937 181.95554687 6.48046875 181.96484375 C7.72763672 181.98224609 7.72763672 181.98224609 9 182 C9 182.33 9 182.66 9 183 C4.05 183.33 -0.9 183.66 -6 184 C-4.80894338 196.75642875 -4.80894338 196.75642875 -1.5859375 209.1171875 C-1 211 -1 211 -1 214 C-0.34 214 0.32 214 1 214 C1.35191406 214.75023437 1.70382813 215.50046875 2.06640625 216.2734375 C5.48317991 223.35677507 9.23753592 229.74556066 14 236 C14.93199219 237.23943359 14.93199219 237.23943359 15.8828125 238.50390625 C26.71504363 252.32220871 39.75588877 264.93311612 54.1875 274.9375 C55.115625 275.618125 56.04375 276.29875 57 277 C57 277.66 57 278.32 57 279 C57.66773438 279.22558594 58.33546875 279.45117188 59.0234375 279.68359375 C62.87870652 281.3886143 66.16455404 283.67330538 69.625 286.0625 C70.94832825 286.97324618 72.27377066 287.88093001 73.6015625 288.78515625 C74.18244629 289.18613525 74.76333008 289.58711426 75.36181641 290.00024414 C77.14643956 291.17340867 77.14643956 291.17340867 80 292 C80.66515625 292.67869141 80.66515625 292.67869141 81.34375 293.37109375 C84.83466649 296.80437719 89.64935535 298.67153077 93.95605469 300.91845703 C96.12316587 302.06517257 98.26878203 303.24657575 100.4140625 304.43359375 C110.58710032 310.00746619 120.77248559 314.42994165 131.74169922 318.18505859 C134.15954584 319.05757449 136.51603737 320.03814561 138.88671875 321.03125 C144.0683973 323.12875103 149.30008459 324.42617635 154.75 325.625 C156.55786327 326.0313192 158.36517327 326.44010926 160.171875 326.8515625 C161.01814453 327.04395508 161.86441406 327.23634766 162.73632812 327.43457031 C165 328 165 328 168.015625 329.0859375 C176.78468085 331.7717478 186.54089147 331.27715982 195.625 331.5625 C196.91535156 331.60568359 198.20570313 331.64886719 199.53515625 331.69335938 C202.69001933 331.79852148 205.84494895 331.90066604 209 332 C209 331.34 209 330.68 209 330 C217.68836995 328.79268308 226.20294908 327.61935837 235 328 C235 327.34 235 326.68 235 326 C237.60311992 325.32900016 240.20735398 324.66304662 242.8125 324 C243.91948242 323.71382812 243.91948242 323.71382812 245.04882812 323.421875 C248.10535341 322.64737086 250.83373478 322 254 322 C254 321.34 254 320.68 254 320 C254.69561035 319.7733667 255.3912207 319.5467334 256.10791016 319.31323242 C259.28186822 318.27613118 262.4534319 317.23188604 265.625 316.1875 C266.71941406 315.83107422 267.81382812 315.47464844 268.94140625 315.10742188 C274.16810952 313.38102595 279.16151226 311.66338775 284 309 C285.74921815 308.10264098 287.49917088 307.20671181 289.25 306.3125 C290.10078125 305.87550781 290.9515625 305.43851562 291.828125 304.98828125 C294 304 294 304 296 304 C296 303.34 296 302.68 296 302 C297.45537568 301.16151196 298.91440373 300.32936066 300.375 299.5 C301.18710937 299.0359375 301.99921875 298.571875 302.8359375 298.09375 C305 297 305 297 307 297 C307 296.34 307 295.68 307 295 C308.04800781 294.45730469 309.09601563 293.91460937 310.17578125 293.35546875 C311.55484044 292.63310441 312.93373829 291.91043199 314.3125 291.1875 C315.00279297 290.83107422 315.69308594 290.47464844 316.40429688 290.10742188 C317.07138672 289.75615234 317.73847656 289.40488281 318.42578125 289.04296875 C319.03848877 288.72352295 319.65119629 288.40407715 320.2824707 288.07495117 C322.14235668 286.91090313 323.49291108 285.58640939 325 284 C326.17124702 283.08301907 327.36026056 282.18845316 328.5625 281.3125 C341.02948986 272.04159299 353.1479449 262.08488068 363 250 C363.71671875 249.14792969 364.4334375 248.29585937 365.171875 247.41796875 C381.28119182 228.09219438 390.06982986 210.27496797 391 185 C388.03 184.67 385.06 184.34 382 184 C382 183.67 382 183.34 382 183 C384.97 183 387.94 183 391 183 C390.43701447 164.16515884 389.39026522 145.8309415 385.5859375 127.35546875 C385.08224082 124.47096574 384.87785482 121.91482809 385 119 C384.34 119 383.68 119 383 119 C381.02 111.08 381.02 111.08 379 103 C378.34 103 377.68 103 377 103 C375.8529341 100.22967112 374.70729921 97.4587654 373.5625 94.6875 C373.07426758 93.50897461 373.07426758 93.50897461 372.57617188 92.30664062 C372.26357422 91.54931641 371.95097656 90.79199219 371.62890625 90.01171875 C371.34088135 89.31522217 371.05285645 88.61872559 370.75610352 87.90112305 C370.11476643 86.28856513 369.5487856 84.64635679 369 83 C368.34 83 367.68 83 367 83 C364.84387388 79.73017238 362.9175916 76.72469007 363.109375 72.7109375 C363.62824285 70.42320198 364.2678743 68.22820866 365 66 C365.37812705 64.64670318 365.75343658 63.29261364 366.125 61.9375 C366.41375 60.968125 366.7025 59.99875 367 59 C367.66 59 368.32 59 369 59 C369.11214844 58.03964844 369.22429687 57.07929688 369.33984375 56.08984375 C370.00064938 51.46420435 371.27271117 47.04605164 372.5625 42.5625 C372.79646484 41.73556641 373.03042969 40.90863281 373.27148438 40.05664062 C373.84363015 38.03661574 374.42125204 36.01814324 375 34 C375.66 34 376.32 34 377 34 C377.1139209 33.41299316 377.2278418 32.82598633 377.34521484 32.22119141 C378.65222782 25.57688366 380.10948218 18.97455146 381.625 12.375 C381.85445313 11.37082031 382.08390625 10.36664063 382.3203125 9.33203125 C382.87900692 6.88774315 383.43892054 4.44374151 384 2 C384.33 2 384.66 2 385 2 C385.226875 2.804375 385.45375 3.60875 385.6875 4.4375 C387.64402589 9.74807026 390.02438549 15.02438549 394.0625 19.0625 C395.94074412 20.94074412 396.72650561 22.25744119 397.859375 24.61328125 C399.24220346 27.45094381 400.64737543 30.27051543 402.10546875 33.0703125 C402.79947917 34.421875 403.49348958 35.7734375 404.1875 37.125 C404.54263672 37.80175781 404.89777344 38.47851562 405.26367188 39.17578125 C407.27756218 43.12713338 408.53279367 46.52318712 409 51 C409.66 51 410.32 51 411 51 C411.84080019 53.41429769 412.67281402 55.83103993 413.5 58.25 C413.73847656 58.93191406 413.97695313 59.61382812 414.22265625 60.31640625 C415.39421287 63.76413003 416 66.31702904 416 70 C416.66 70 417.32 70 418 70 C420.55878901 80.21389606 423.05194412 90.42643908 424.8125 100.8125 C424.9360083 101.52132324 425.0595166 102.23014648 425.18676758 102.96044922 C425.95107213 107.68982899 426.10191875 112.20981853 426 117 C426.66 117 427.32 117 428 117 C429.82208318 130.89338426 429.39925205 145.08243946 428 159 C427.34 159 426.68 159 426 159 C426.02175293 159.57613037 426.04350586 160.15226074 426.06591797 160.74584961 C426.21350775 167.85335171 425.31553631 174.56704371 424.125 181.5625 C423.95097656 182.63435547 423.77695312 183.70621094 423.59765625 184.81054688 C422.58781652 190.92568745 421.40612353 196.96380303 420 203 C419.34 203 418.68 203 418 203 C417.89816406 204.134375 417.79632812 205.26875 417.69140625 206.4375 C417.09328854 211.22244167 415.61829299 215.49968652 413.9375 220 C413.65583984 220.77472656 413.37417969 221.54945313 413.08398438 222.34765625 C412.39679702 224.23450967 411.69945987 226.11766151 411 228 C410.34 228 409.68 228 409 228 C408.81824219 228.56847656 408.63648438 229.13695312 408.44921875 229.72265625 C406.85915366 234.60701003 405.09540222 239.31029027 403 244 C402.34 244 401.68 244 401 244 C400.72414063 244.71542969 400.44828125 245.43085938 400.1640625 246.16796875 C399.01751478 248.95738855 397.73772885 251.62290358 396.375 254.3125 C395.92898438 255.19550781 395.48296875 256.07851563 395.0234375 256.98828125 C394.68570312 257.65214844 394.34796875 258.31601562 394 259 C393.34 259 392.68 259 392 259 C391.76667969 259.69480469 391.53335937 260.38960938 391.29296875 261.10546875 C389.74778118 264.56463487 387.64702299 267.36326276 385.3125 270.3125 C384.86696777 270.88355469 384.42143555 271.45460938 383.96240234 272.04296875 C380.91176966 275.92459422 377.75070761 279.68817166 374.453125 283.36328125 C373.21100686 284.76233367 372.03538853 286.2199498 370.875 287.6875 C367.03514617 292.42331972 362.50850254 296.32565071 357.91796875 300.3046875 C354.59900378 303.23835511 351.5530186 306.41933047 348.5 309.625 C346 312 346 312 343.78515625 313.296875 C339.58525237 315.86511917 335.88228393 319.02654745 332.08398438 322.1484375 C331.48779297 322.62796875 330.89160156 323.1075 330.27734375 323.6015625 C329.47671509 324.25632568 329.47671509 324.25632568 328.65991211 324.92431641 C327 326 327 326 324.85766602 326.46240234 C324.24463623 326.63980957 323.63160645 326.8172168 323 327 C322.67 327.99 322.34 328.98 322 330 C319.91381072 331.39575289 317.8847864 332.61839807 315.6875 333.8125 C315.06391602 334.15925781 314.44033203 334.50601562 313.79785156 334.86328125 C297.22915111 344 297.22915111 344 294 344 C294 344.66 294 345.32 294 346 C291.41958904 347.00816056 288.83613056 348.0067111 286.25 349 C285.52039063 349.28617188 284.79078125 349.57234375 284.0390625 349.8671875 C283.33007812 350.13789062 282.62109375 350.40859375 281.890625 350.6875 C281.24125977 350.93886719 280.59189453 351.19023438 279.92285156 351.44921875 C278 352 278 352 274 352 C274 352.66 274 353.32 274 354 C270.71263668 354.99401229 267.41947984 355.96736005 264.125 356.9375 C263.2071875 357.21529297 262.289375 357.49308594 261.34375 357.77929688 C255.22600147 359.56723042 249.36216689 360.60657979 243 361 C243 361.66 243 362.32 243 363 C239.60509621 363.48590046 236.20893036 363.96239751 232.8125 364.4375 C231.87212891 364.57220703 230.93175781 364.70691406 229.96289062 364.84570312 C216.5385957 366.71145259 203.22033386 367.23403949 189.6875 367.25 C188.85760559 367.25200409 188.02771118 367.25400818 187.17266846 367.256073 C172.05775634 367.26498059 156.70850576 366.84827619 142 363 C142 362.34 142 361.68 142 361 C140.8553125 360.88785156 139.710625 360.77570313 138.53125 360.66015625 C133.99572797 360.093216 129.82888996 358.86843862 125.5 357.4375 C124.77296875 357.20353516 124.0459375 356.96957031 123.296875 356.72851562 C121.52919739 356.15867219 119.76429031 355.58024596 118 355 C118 354.34 118 353.68 118 353 C116.14375 352.6596875 116.14375 352.6596875 114.25 352.3125 C108.19074171 350.98854723 102.65108692 348.50521958 97 346 C97 345.34 97 344.68 97 344 C96.30777344 343.89816406 95.61554688 343.79632812 94.90234375 343.69140625 C86.27069609 341.63514564 77.90210843 336.03103587 70.1875 331.6875 C69.28076538 331.18174438 69.28076538 331.18174438 68.35571289 330.66577148 C64.12001732 328.24003465 64.12001732 328.24003465 63 326 C61.79219399 325.33465773 60.55715013 324.71856697 59.3125 324.125 C53.9473642 321.253881 49.63227414 317.43963238 45.09619141 313.43823242 C42.05404972 310.75561657 39.04086497 308.23120164 35.6875 305.9375 C31.41047037 302.84853416 28.41140938 298.79958283 25.16796875 294.6796875 C22.80576078 291.75991333 20.26579436 289.17251271 17.57421875 286.5625 C15.17105971 284.17723049 13.06207441 281.68694544 11 279 C11 278.34 11 277.68 11 277 C10.34 277 9.68 277 9 277 C7.44921875 275.27734375 7.44921875 275.27734375 5.6875 272.9375 C4.75357422 271.69806641 4.75357422 271.69806641 3.80078125 270.43359375 C2.90939453 269.22896484 2.90939453 269.22896484 2 268 C1.53980469 267.39285156 1.07960937 266.78570312 0.60546875 266.16015625 C-2.20326355 262.3705968 -4.50410268 258.4129212 -6.73828125 254.26171875 C-7.96588498 252.06115355 -9.3005808 249.97774847 -10.6875 247.875 C-12.94949537 244.33262989 -14.06339717 241.08699415 -15 237 C-15.66 237 -16.32 237 -17 237 C-17.83739781 234.8765984 -18.66980283 232.7512272 -19.5 230.625 C-19.9640625 229.44164062 -20.428125 228.25828125 -20.90625 227.0390625 C-22 224 -22 224 -22 222 C-22.66 222 -23.32 222 -24 222 C-25.17692357 218.75362269 -26.33972274 215.5023602 -27.5 212.25 C-27.83386719 211.32960938 -28.16773437 210.40921875 -28.51171875 209.4609375 C-28.82753906 208.57148438 -29.14335938 207.68203125 -29.46875 206.765625 C-29.76201172 205.94868164 -30.05527344 205.13173828 -30.35742188 204.29003906 C-31 202 -31 202 -31 198 C-31.66 198 -32.32 198 -33 198 C-42.3454896 160.33340742 -42.66686465 120.80228199 -34 83 C-33.34 83 -32.68 83 -32 83 C-31.84724609 81.3603125 -31.84724609 81.3603125 -31.69140625 79.6875 C-31.01727671 74.29446369 -29.48257878 69.19806087 -27.9375 64 C-27.65583984 63.03449219 -27.37417969 62.06898438 -27.08398438 61.07421875 C-26.39475721 58.71449184 -25.69999989 56.35654915 -25 54 C-24.34 54 -23.68 54 -23 54 C-22.87415527 53.26821533 -22.74831055 52.53643066 -22.61865234 51.7824707 C-21.61999709 47.29088667 -19.58905831 43.33029017 -17.625 39.1875 C-17.18744385 38.25623291 -16.7498877 37.32496582 -16.29907227 36.36547852 C-13.34532143 30.27052828 -9.97842917 24.85995484 -5.9375 19.4375 C-1.26506322 13.15179953 0.65440013 8.0354248 0 0 Z " fill="#20D5C9" transform="translate(114,196)"/>
<path d="M0 0 C0 0.66 0 1.32 0 2 C0.59683594 2.02578125 1.19367188 2.0515625 1.80859375 2.078125 C7.96913676 2.48089453 13.81991437 3.51586091 19.8125 4.9375 C20.88745728 5.19225098 20.88745728 5.19225098 21.98413086 5.45214844 C26.06326786 6.44902819 30.03267263 7.61112401 34 9 C34 9.66 34 10.32 34 11 C34.56847656 11.10957031 35.13695312 11.21914062 35.72265625 11.33203125 C40.82316758 12.37938166 45.284442 13.79271753 50 16 C50 16.66 50 17.32 50 18 C50.55816406 18.11472656 51.11632812 18.22945312 51.69140625 18.34765625 C54.3157248 19.08921496 56.51818729 20.18124671 58.9375 21.4375 C62.23938425 23.14713095 65.52856123 24.66483124 69 26 C66.21638971 29.60838371 63.25868589 32.8170975 60 36 C58.83199157 37.16532336 57.66540199 38.33207002 56.5 39.5 C54.55652423 41.44347577 52.61111241 43.38435057 50.65625 45.31640625 C47.70416135 48.29888405 44.84361717 51.3521032 42 54.4375 C41.49210938 54.98470703 40.98421875 55.53191406 40.4609375 56.09570312 C37.18881658 59.64050079 34.06009327 63.27051133 31 67 C23.96354423 65.11380178 16.96640656 63.13072305 10 61 C10 60.34 10 59.68 10 59 C-19.40623069 55.03984859 -47.0379075 54.47724431 -76.52441406 57.63623047 C-81.34527591 58.14080227 -86.17112281 58.57996155 -91 59 C-91 59.66 -91 60.32 -91 61 C-94.22468801 61.871719 -97.45527089 62.71921254 -100.6875 63.5625 C-102.05551758 63.9327832 -102.05551758 63.9327832 -103.45117188 64.31054688 C-104.33740234 64.53935547 -105.22363281 64.76816406 -106.13671875 65.00390625 C-106.94842529 65.21861572 -107.76013184 65.4333252 -108.59643555 65.65454102 C-111.35546119 66.05108965 -113.33176427 65.77685325 -116 65 C-117.625 63.29296875 -117.625 63.29296875 -119 61.1875 C-121.37085735 57.77901551 -123.71490312 55.56397805 -127 53 C-130.37916907 49.39451245 -133.52265539 45.59378545 -136.625 41.75 C-138.90898247 39.10538872 -141.27504267 37.16599172 -144 35 C-145.34736973 33.34466005 -146.68334336 31.67987227 -148 30 C-148.66 29.67 -149.32 29.34 -150 29 C-150 28.34 -150 27.68 -150 27 C-150.66 26.67 -151.32 26.34 -152 26 C-149.2100561 24.82905995 -146.41821403 23.66309073 -143.625 22.5 C-142.8309375 22.16613281 -142.036875 21.83226563 -141.21875 21.48828125 C-140.45820313 21.17246094 -139.69765625 20.85664062 -138.9140625 20.53125 C-138.2123291 20.23798828 -137.5105957 19.94472656 -136.78759766 19.64257812 C-135 19 -135 19 -133 19 C-133 18.34 -133 17.68 -133 17 C-130.08666921 15.99009308 -127.16884681 14.99384048 -124.25 14 C-123.425 13.71382812 -122.6 13.42765625 -121.75 13.1328125 C-120.95078125 12.86210938 -120.1515625 12.59140625 -119.328125 12.3125 C-118.22839355 11.93544922 -118.22839355 11.93544922 -117.10644531 11.55078125 C-115 11 -115 11 -111 11 C-111 10.34 -111 9.68 -111 9 C-107.12456031 7.99386888 -103.24679504 6.99730471 -99.36669922 6.00927734 C-98.04898016 5.67233668 -96.73190751 5.33285685 -95.41552734 4.99072266 C-93.51574757 4.49744146 -91.61335769 4.01424787 -89.7109375 3.53125 C-87.99849854 3.09135742 -87.99849854 3.09135742 -86.25146484 2.64257812 C-83.0735737 2.01454017 -80.22917383 1.88024256 -77 2 C-77 1.34 -77 0.68 -77 0 C-51.02465709 -3.70049837 -25.98441324 -3.96140264 0 0 Z " fill="#1FD5C9" transform="translate(349,106)"/>
<path d="M0 0 C0 1.32 0 2.64 0 4 C0.66 4 1.32 4 2 4 C2 5.65 2 7.3 2 9 C2.66 9 3.32 9 4 9 C5.80393451 15.97040294 6.38572075 22.43475974 6.375 29.625 C6.37367065 31.24523071 6.37367065 31.24523071 6.37231445 32.89819336 C6.17014512 47.00386583 4.10150392 60.83392687 -1 74 C-1.39245222 75.75867651 -1.73392034 77.5303206 -2 79.3125 C-3.9113487 90.68659143 -6.79721192 103.19015581 -13 113 C-13.33 113.66 -13.66 114.32 -14 115 C-15.87890625 114.734375 -15.87890625 114.734375 -18 114 C-19.08984375 112.328125 -19.08984375 112.328125 -19.9375 110.25 C-21.70312508 106.3572833 -23.83799782 103.91877124 -27 101 C-30 97.37931034 -30 97.37931034 -30 95 C-30.60714844 94.74089844 -31.21429688 94.48179687 -31.83984375 94.21484375 C-34.21584575 92.87861116 -35.07098841 91.81145635 -36.5625 89.5625 C-44.15375202 79.02653057 -54.53440687 69.83003346 -65.625 63.125 C-67.295625 62.073125 -67.295625 62.073125 -69 61 C-69 60.34 -69 59.68 -69 59 C-69.86625 58.566875 -69.86625 58.566875 -70.75 58.125 C-72.83333333 57.08333333 -74.91666667 56.04166667 -77 55 C-76.15233735 50.36403322 -73.30762457 48.00733571 -70 44.875 C-66.02011003 41.31087316 -66.02011003 41.31087316 -63 37 C-61.8553125 36.319375 -61.8553125 36.319375 -60.6875 35.625 C-57.92890733 34.10334089 -57.92890733 34.10334089 -55.8125 31.8125 C-55.214375 31.214375 -54.61625 30.61625 -54 30 C-53.34 30 -52.68 30 -52 30 C-52 29.34 -52 28.68 -52 28 C-49.3783288 25.91336374 -46.71620934 23.95955102 -44 22 C-42.83701469 21.12572546 -41.6756721 20.24926317 -40.515625 19.37109375 C-33.28866193 13.93076017 -26.12654567 9.03714246 -18 5 C-16.89011719 4.41798828 -16.89011719 4.41798828 -15.7578125 3.82421875 C-4.81691767 -1.85266064 -4.81691767 -1.85266064 0 0 Z " fill="#310103" transform="translate(479,125)"/>
<path d="M0 0 C3.47239473 0.72678029 6.51472086 2.02558204 9.6875 3.5625 C10.63302734 3.99755859 10.63302734 3.99755859 11.59765625 4.44140625 C16.18446333 6.62082353 20.32027471 9.23811315 24.50390625 12.109375 C26.52196699 13.45234208 28.56292819 14.648113 30.6875 15.8125 C33.6875 17.5625 33.6875 17.5625 34.6875 19.5625 C36.34332386 20.5803532 38.01214028 21.57713328 39.6875 22.5625 C41.48185275 23.885344 43.25294238 25.24029507 45 26.625 C45.88300781 27.31722656 46.76601562 28.00945312 47.67578125 28.72265625 C48.33964844 29.32980469 49.00351563 29.93695313 49.6875 30.5625 C49.6875 31.2225 49.6875 31.8825 49.6875 32.5625 C50.265 32.81 50.8425 33.0575 51.4375 33.3125 C53.98629381 34.72849656 55.63473215 36.50973215 57.6875 38.5625 C59.1725 39.0575 59.1725 39.0575 60.6875 39.5625 C65.46022727 43.88068182 65.46022727 43.88068182 66.6875 47.5625 C67.3475 47.5625 68.0075 47.5625 68.6875 47.5625 C71.43125671 50.51731492 71.6875 51.33721908 71.6875 55.5625 C71.0275 55.5625 70.3675 55.5625 69.6875 55.5625 C69.3575 56.5525 69.0275 57.5425 68.6875 58.5625 C66.0703125 60.60546875 66.0703125 60.60546875 62.8125 62.75 C61.74257812 63.46542969 60.67265625 64.18085938 59.5703125 64.91796875 C56.6875 66.5625 56.6875 66.5625 53.6875 66.5625 C53.59984375 67.15160156 53.5121875 67.74070312 53.421875 68.34765625 C52.49017808 71.15761452 51.21961708 72.1425626 48.9375 74 C48.21046875 74.60972656 47.4834375 75.21945313 46.734375 75.84765625 C46.05890625 76.41355469 45.3834375 76.97945313 44.6875 77.5625 C40.05833495 81.9602068 35.89725979 86.76849598 31.6875 91.5625 C31.05070312 92.28308594 30.41390625 93.00367188 29.7578125 93.74609375 C25.75390545 98.29130154 21.84045409 102.76524804 18.5625 107.875 C17.94375 108.761875 17.325 109.64875 16.6875 110.5625 C16.0275 110.5625 15.3675 110.5625 14.6875 110.5625 C14.56375 111.160625 14.44 111.75875 14.3125 112.375 C13.6875 114.5625 13.6875 114.5625 11.6875 117.5625 C11.0275 117.5625 10.3675 117.5625 9.6875 117.5625 C5.10758539 106.07206334 1.47809185 94.62108668 -1.35791016 82.57421875 C-1.58655762 81.60355469 -1.81520508 80.63289063 -2.05078125 79.6328125 C-2.34529175 78.34528076 -2.34529175 78.34528076 -2.64575195 77.03173828 C-3.34520048 74.44139688 -4.31461943 72.05068587 -5.3125 69.5625 C-5.89097663 66.83065102 -6.41208109 64.12557106 -6.875 61.375 C-7.00068359 60.67052734 -7.12636719 59.96605469 -7.25585938 59.24023438 C-10.20744174 42.16432594 -13.36136955 18.43123733 -4.4375 2.6875 C-2.3125 0.5625 -2.3125 0.5625 0 0 Z " fill="#290002" transform="translate(136.3125,124.4375)"/>
<path d="M0 0 C0.82127884 -0.01283524 1.64255768 -0.02567047 2.48872375 -0.03889465 C3.3731163 -0.04628159 4.25750885 -0.05366852 5.16870117 -0.0612793 C6.08246017 -0.06935104 6.99621918 -0.07742279 7.93766785 -0.08573914 C9.87183745 -0.09956811 11.80603134 -0.11029557 13.74023438 -0.11816406 C16.69017035 -0.13537263 19.63898413 -0.17926856 22.58862305 -0.22338867 C24.4694742 -0.23351645 26.35033486 -0.24203229 28.23120117 -0.2487793 C29.10952103 -0.26628738 29.98784088 -0.28379547 30.89277649 -0.30183411 C37.39135697 -0.27894831 40.90242149 1.43261128 45.75463867 5.8762207 C47.55563907 9.49666178 47.2925723 13.00586867 47.21166992 16.98950195 C47.21489258 17.77131836 47.21811523 18.55313477 47.22143555 19.35864258 C47.14107523 28.10330667 45.12493349 33.74671463 39.13354492 40.15356445 C35.75296246 43.21500102 31.63219222 46.17700195 26.89916992 46.17700195 C26.89916992 46.83700195 26.89916992 47.49700195 26.89916992 48.17700195 C25.90916992 48.17700195 24.91916992 48.17700195 23.89916992 48.17700195 C23.89916992 53.45700195 23.89916992 58.73700195 23.89916992 64.17700195 C25.54916992 64.50700195 27.19916992 64.83700195 28.89916992 65.17700195 C29.55916992 66.82700195 30.21916992 68.47700195 30.89916992 70.17700195 C38.15916992 70.17700195 45.41916992 70.17700195 52.89916992 70.17700195 C52.89916992 69.51700195 52.89916992 68.85700195 52.89916992 68.17700195 C58.50916992 68.17700195 64.11916992 68.17700195 69.89916992 68.17700195 C69.56916992 71.14700195 69.23916992 74.11700195 68.89916992 77.17700195 C68.23916992 77.17700195 67.57916992 77.17700195 66.89916992 77.17700195 C66.56916992 79.48700195 66.23916992 81.79700195 65.89916992 84.17700195 C65.28041992 84.21825195 64.66166992 84.25950195 64.02416992 84.30200195 C63.32291992 84.59075195 62.62166992 84.87950195 61.89916992 85.17700195 C60.59460432 88.17316141 60.59460432 88.17316141 59.89916992 91.17700195 C59.23916992 91.17700195 58.57916992 91.17700195 57.89916992 91.17700195 C56.90916992 94.14700195 55.91916992 97.11700195 54.89916992 100.17700195 C52.28627217 97.17533394 51.52986748 95.38072885 51.60620117 91.41137695 C51.61586914 90.52192383 51.62553711 89.6324707 51.63549805 88.71606445 C51.66063477 87.79567383 51.68577148 86.8752832 51.71166992 85.92700195 C51.73197266 84.52321289 51.73197266 84.52321289 51.75268555 83.09106445 C51.78797038 80.78578869 51.83726711 78.48169135 51.89916992 76.17700195 C51.0382373 76.31847656 50.17730469 76.45995117 49.2902832 76.60571289 C39.5686954 78.06735471 30.07048449 78.48841421 20.24633789 78.43774414 C17.76969104 78.42698249 15.29376434 78.43773129 12.81713867 78.45043945 C3.63839862 78.45729899 -5.06720959 77.95337794 -14.10083008 76.17700195 C-14.09297485 77.16095947 -14.09297485 77.16095947 -14.08496094 78.16479492 C-14.06421736 81.12718758 -14.05117832 84.08956498 -14.03833008 87.05200195 C-14.02995117 88.08454102 -14.02157227 89.11708008 -14.01293945 90.1809082 C-14.00810547 91.66010742 -14.00810547 91.66010742 -14.00317383 93.16918945 C-13.9953186 94.53599854 -13.9953186 94.53599854 -13.98730469 95.93041992 C-14.10083008 98.17700195 -14.10083008 98.17700195 -15.10083008 100.17700195 C-17.98652984 99.14639489 -18.94031585 98.48911294 -20.36645508 95.71606445 C-20.69129883 94.75442383 -21.01614258 93.7927832 -21.35083008 92.80200195 C-21.68598633 91.84551758 -22.02114258 90.8890332 -22.36645508 89.90356445 C-23.10083008 87.17700195 -23.10083008 87.17700195 -23.10083008 83.17700195 C-25.08083008 82.84700195 -27.06083008 82.51700195 -29.10083008 82.17700195 C-29.21040039 81.56211914 -29.3199707 80.94723633 -29.43286133 80.3137207 C-29.67069336 79.10135742 -29.67069336 79.10135742 -29.91333008 77.86450195 C-30.06415039 77.06399414 -30.2149707 76.26348633 -30.37036133 75.4387207 C-31.18296414 72.9226938 -32.20191775 71.95105429 -34.10083008 70.17700195 C-34.10083008 69.51700195 -34.10083008 68.85700195 -34.10083008 68.17700195 C-28.16083008 68.17700195 -22.22083008 68.17700195 -16.10083008 68.17700195 C-16.10083008 68.83700195 -16.10083008 69.49700195 -16.10083008 70.17700195 C-3.72583008 69.68200195 -3.72583008 69.68200195 8.89916992 69.17700195 C9.88916992 67.19700195 10.87916992 65.21700195 11.89916992 63.17700195 C13.21916992 63.17700195 14.53916992 63.17700195 15.89916992 63.17700195 C15.89916992 58.22700195 15.89916992 53.27700195 15.89916992 48.17700195 C14.90916992 48.17700195 13.91916992 48.17700195 12.89916992 48.17700195 C12.89916992 47.51700195 12.89916992 46.85700195 12.89916992 46.17700195 C12.30749023 45.99524414 11.71581055 45.81348633 11.10620117 45.6262207 C3.96596012 43.35485528 -0.99198507 40.83815454 -6.10083008 35.17700195 C-6.76749674 33.84366862 -7.43416341 32.51033529 -8.10083008 31.17700195 C-9.09083008 30.84700195 -10.08083008 30.51700195 -11.10083008 30.17700195 C-12.68432158 25.94551591 -12.40103015 21.26279759 -12.47583008 16.80200195 C-12.51321289 15.96411133 -12.5505957 15.1262207 -12.58911133 14.26293945 C-12.64980704 9.97377573 -12.49526436 7.06882673 -9.76489258 3.63793945 C-6.49751263 0.61968525 -4.28778902 0.05851379 0 0 Z " fill="#060606" transform="translate(295.100830078125,375.822998046875)"/>
<path d="M0 0 C11.88857379 0.2652623 23.01175816 6.85335871 33.25 12.3125 C34.33410156 12.88871094 35.41820312 13.46492188 36.53515625 14.05859375 C39.12080029 15.45407593 41.69503709 16.86169191 44.25 18.3125 C45.63638672 19.07626953 45.63638672 19.07626953 47.05078125 19.85546875 C47.77652344 20.33628906 48.50226563 20.81710937 49.25 21.3125 C49.25 21.9725 49.25 22.6325 49.25 23.3125 C50.095625 23.56 50.94125 23.8075 51.8125 24.0625 C58.88363117 26.63382043 62.74635184 29.46992942 67.25 35.3125 C68.3328125 36.3334375 68.3328125 36.3334375 69.4375 37.375 C71.54720765 39.63020473 72.45039879 41.3321682 73.25 44.3125 C72.96220229 45.98763025 72.63420609 47.65682051 72.25 49.3125 C49.57491177 49.90268182 49.57491177 49.90268182 38.25 46.3125 C35.39845049 45.52808277 32.54101085 44.76714055 29.68359375 44.00439453 C26.73226123 43.21614751 23.78273735 42.42221459 20.8359375 41.6171875 C20.0011084 41.39015137 19.1662793 41.16311523 18.30615234 40.92919922 C16.25 40.3125 16.25 40.3125 14.25 39.3125 C14.25 38.6525 14.25 37.9925 14.25 37.3125 C13.44949219 37.126875 13.44949219 37.126875 12.6328125 36.9375 C5.60278738 34.99147228 0.55000747 31.26548317 -4.75 26.3125 C-6.43010978 22.95228043 -5.93459558 19.19152188 -5.9375 15.5 C-5.94974609 14.69240234 -5.96199219 13.88480469 -5.97460938 13.05273438 C-5.98530374 8.70012613 -5.83266249 5.25330003 -3.75 1.3125 C-2.75 0.3125 -2.75 0.3125 0 0 Z " fill="#F8F7F8" transform="translate(190.75,296.6875)"/>
<path d="M0 0 C5.09341952 6.04766113 4.0133228 15.37278674 3.38330078 22.8125 C2.85757014 25.81284811 1.8949958 27.35722596 -0.375 29.375 C-2.61328125 30.76953125 -2.61328125 30.76953125 -5 32 C-5.73605469 32.49886719 -6.47210938 32.99773437 -7.23046875 33.51171875 C-16.86165359 39.91637601 -27.88681262 43.70548905 -39.0625 46.375 C-39.7644751 46.54273926 -40.4664502 46.71047852 -41.18969727 46.88330078 C-45.1923154 47.77448056 -48.90375485 48.16615035 -53 48 C-53 48.66 -53 49.32 -53 50 C-56.29159316 50.05790353 -59.58305603 50.09356261 -62.875 50.125 C-63.81214844 50.14175781 -64.74929688 50.15851563 -65.71484375 50.17578125 C-66.61074219 50.18222656 -67.50664062 50.18867188 -68.4296875 50.1953125 C-69.25710449 50.20578613 -70.08452148 50.21625977 -70.93701172 50.22705078 C-73 50 -73 50 -75 48 C-74.40930281 40.91163371 -70.50599243 35.89758888 -65.5546875 31.13671875 C-60.96461348 27.29762014 -55.9072374 24.21643891 -50.80810547 21.11132812 C-49.06549141 20.04025343 -47.34538874 18.94048237 -45.62890625 17.828125 C-28.67434211 7 -28.67434211 7 -22 7 C-22 6.34 -22 5.68 -22 5 C-20.10546779 4.35035977 -18.20931351 3.70544885 -16.3125 3.0625 C-14.72888672 2.52302734 -14.72888672 2.52302734 -13.11328125 1.97265625 C-8.87112295 0.64731445 -4.44603064 -0.70200484 0 0 Z " fill="#F9F9F9" transform="translate(430,296)"/>
<path d="M0 0 C0 1.32 0 2.64 0 4 C0.66 4 1.32 4 2 4 C2 5.65 2 7.3 2 9 C2.66 9 3.32 9 4 9 C5.80397754 15.97056921 6.38516065 22.43464966 6.375 29.625 C6.37483887 30.70152832 6.37467773 31.77805664 6.37451172 32.88720703 C5.99874302 60.00188547 5.99874302 60.00188547 0 69 C0.28833465 66.58289672 0.580642 64.16637164 0.875 61.75 C0.95363281 61.08742187 1.03226562 60.42484375 1.11328125 59.7421875 C1.50336213 56.561528 1.92339759 53.40995799 2.51220703 50.25878906 C3.95750796 42.52059401 4.24059653 35.11056379 4.125 27.25 C4.11597656 26.0640625 4.10695313 24.878125 4.09765625 23.65625 C4.07438497 20.77061093 4.04169684 17.88542145 4 15 C-1.02958454 16.4295299 -6.05509739 17.86944412 -11.0625 19.375 C-11.74376953 19.5709375 -12.42503906 19.766875 -13.12695312 19.96875 C-18.95589554 21.73815039 -24.04362999 24.22355299 -27.75 29.25 C-28.86375 30.61125 -28.86375 30.61125 -30 32 C-30.66 32 -31.32 32 -32 32 C-32.33 32.99 -32.66 33.98 -33 35 C-34.9375 37.1875 -34.9375 37.1875 -37 39 C-37.66 39 -38.32 39 -39 39 C-39.33 39.99 -39.66 40.98 -40 42 C-40.66 42 -41.32 42 -42 42 C-42 42.66 -42 43.32 -42 44 C-42.66 44 -43.32 44 -44 44 C-44.0825 44.515625 -44.165 45.03125 -44.25 45.5625 C-45.32140225 49.04455732 -47.13523605 51.87200885 -49 55 C-49.66 55 -50.32 55 -51 55 C-51.33 56.32 -51.66 57.64 -52 59 C-52.66 59 -53.32 59 -54 59 C-54.103125 59.9075 -54.20625 60.815 -54.3125 61.75 C-55.00414949 65.01961575 -55.82134921 66.53717737 -58 69 C-59.3303125 67.8553125 -59.3303125 67.8553125 -60.6875 66.6875 C-62.7174589 64.98059869 -64.56637624 63.66756177 -66.875 62.3125 C-67.57625 61.879375 -68.2775 61.44625 -69 61 C-69 60.34 -69 59.68 -69 59 C-69.86625 58.566875 -69.86625 58.566875 -70.75 58.125 C-72.83333333 57.08333333 -74.91666667 56.04166667 -77 55 C-76.15233735 50.36403322 -73.30762457 48.00733571 -70 44.875 C-66.02011003 41.31087316 -66.02011003 41.31087316 -63 37 C-61.8553125 36.319375 -61.8553125 36.319375 -60.6875 35.625 C-57.92890733 34.10334089 -57.92890733 34.10334089 -55.8125 31.8125 C-55.214375 31.214375 -54.61625 30.61625 -54 30 C-53.34 30 -52.68 30 -52 30 C-52 29.34 -52 28.68 -52 28 C-49.3783288 25.91336374 -46.71620934 23.95955102 -44 22 C-42.83701469 21.12572546 -41.6756721 20.24926317 -40.515625 19.37109375 C-33.28866193 13.93076017 -26.12654567 9.03714246 -18 5 C-16.89011719 4.41798828 -16.89011719 4.41798828 -15.7578125 3.82421875 C-4.81691767 -1.85266064 -4.81691767 -1.85266064 0 0 Z " fill="#160001" transform="translate(479,125)"/>
<path d="M0 0 C2.53095182 1.73648264 4.82762725 3.55906077 7.11328125 5.60546875 C8.56734375 6.90484375 8.56734375 6.90484375 10.05078125 8.23046875 C14.06153714 12.84891492 15.53093405 16.04581285 15.48828125 22.23046875 C15.49988281 23.92042969 15.49988281 23.92042969 15.51171875 25.64453125 C15.11328125 28.60546875 15.11328125 28.60546875 13.79296875 30.4296875 C9.09431023 33.71874846 3.65048633 33.83147712 -1.88671875 33.60546875 C-1.88671875 34.26546875 -1.88671875 34.92546875 -1.88671875 35.60546875 C-5.24071724 35.69336415 -8.59441515 35.74615754 -11.94921875 35.79296875 C-13.36364258 35.83067383 -13.36364258 35.83067383 -14.80664062 35.86914062 C-20.62748338 35.92998567 -24.80520044 35.5474004 -29.88671875 32.60546875 C-33.20324288 28.85671592 -34.60963616 23.73086849 -34.34375 18.7578125 C-33.23868141 13.5536006 -30.86665126 8.33979895 -26.83984375 4.8125 C-24.88671875 3.60546875 -24.88671875 3.60546875 -22.88671875 3.60546875 C-22.88671875 2.94546875 -22.88671875 2.28546875 -22.88671875 1.60546875 C-15.88779913 -2.30090499 -7.40455377 -3.57703071 0 0 Z " fill="#F8F8F8" transform="translate(226.88671875,250.39453125)"/>
<path d="M0 0 C3.08102219 1.81387945 5.94883113 3.79968543 8.5625 6.25 C8.5625 6.91 8.5625 7.57 8.5625 8.25 C9.5525 8.58 10.5425 8.91 11.5625 9.25 C14.43912477 14.47054125 15.12722641 18.32037269 14.5625 24.25 C13.15135201 27.81146874 11.70127011 30.95628338 8.5625 33.25 C-3.63790672 36.25084862 -19.67479964 35.78852863 -31.4375 31.25 C-32.18 30.98703125 -32.9225 30.7240625 -33.6875 30.453125 C-35.4375 29.25 -35.4375 29.25 -36.08203125 27.0078125 C-36.13746094 26.13898438 -36.19289063 25.27015625 -36.25 24.375 C-36.35248047 23.07949219 -36.35248047 23.07949219 -36.45703125 21.7578125 C-36.43860964 19.39247734 -36.12379966 17.50273935 -35.4375 15.25 C-34.7775 15.25 -34.1175 15.25 -33.4375 15.25 C-33.251875 14.38375 -33.06625 13.5175 -32.875 12.625 C-30.9740548 8.16191128 -28.21490164 6.14627988 -24.4375 3.25 C-23.53 2.486875 -22.6225 1.72375 -21.6875 0.9375 C-15.84257006 -3.44619745 -6.41832949 -3.1234237 0 0 Z " fill="#F7F7F7" transform="translate(405.4375,250.75)"/>
<path d="M0 0 C12.54 0 25.08 0 38 0 C37.67 1.98 37.34 3.96 37 6 C35.02 6.33 33.04 6.66 31 7 C30.67 6.01 30.34 5.02 30 4 C27.21994181 5.54447677 25.09900736 6.89199197 22.9375 9.25 C21 11 21 11 19 11.125 C17 10 17 10 15.0625 7 C13.30571613 3.78763 13.30571613 3.78763 10.25 3.125 C9.5075 3.08375 8.765 3.0425 8 3 C7.67 4.32 7.34 5.64 7 7 C2.25 6.25 2.25 6.25 0 4 C0 2.68 0 1.36 0 0 Z " fill="#131313" transform="translate(293,459)"/>
<path d="M0 0 C18.15 0 36.3 0 55 0 C55 0.66 55 1.32 55 2 C49.86824668 3.03784198 44.93678009 3.16107255 39.7265625 3.16796875 C38.40270035 3.17296135 38.40270035 3.17296135 37.05209351 3.17805481 C35.1913098 3.1831004 33.33051711 3.18546387 31.46972656 3.18530273 C28.64112258 3.18748755 25.81291003 3.2056639 22.984375 3.22460938 C21.16927216 3.22754423 19.35416747 3.22952841 17.5390625 3.23046875 C16.28399399 3.24124702 16.28399399 3.24124702 15.00357056 3.25224304 C9.67879655 3.23178761 5.11874269 2.48216642 0 1 C0 0.67 0 0.34 0 0 Z " fill="#C6C7CA" transform="translate(285,453)"/>
<path d="M0 0 C0 0.66 0 1.32 0 2 C-5.4761064 3.46604423 -10.80381389 4.516156 -16.4375 5.125 C-17.20594238 5.2084668 -17.97438477 5.29193359 -18.76611328 5.37792969 C-24.30272686 5.93125228 -29.81141584 6.21001344 -35.375 6.25 C-36.08197021 6.25918457 -36.78894043 6.26836914 -37.51733398 6.27783203 C-41.48560354 6.25368533 -43.33479381 5.83260309 -47 4 C-38.42 4 -29.84 4 -21 4 C-21 3.34 -21 2.68 -21 2 C-18.43795456 1.66280953 -15.87545682 1.33012847 -13.3125 1 C-12.59126953 0.90460937 -11.87003906 0.80921875 -11.12695312 0.7109375 C-7.39007129 0.23316265 -3.77708469 -0.11919794 0 0 Z " fill="#59DDD8" transform="translate(344,524)"/>
<path d="M0 0 C0 4.28282633 -2.06386291 5.7914751 -4.8671875 8.8671875 C-9.86061195 13.86061195 -14.9735119 18.37850275 -22 20 C-18.42185342 16.37581109 -14.75716442 12.87521009 -11 9.4375 C-10.49210937 8.96892578 -9.98421875 8.50035156 -9.4609375 8.01757812 C-6.40215222 5.21369162 -3.26964993 2.55441401 0 0 Z " fill="#51DED5" transform="translate(467,457)"/>
<path d="M0 0 C1 2 1 2 0.375 4.375 C-1.26051702 7.49735067 -3.26993021 8.81594417 -6 11 C-6.70211894 12.65204456 -7.36971413 14.31923769 -8 16 C-10.33867905 18.71588535 -11.56981718 19.85660573 -15 21 C-16.68538601 22.99665314 -16.68538601 22.99665314 -18 25 C-18.66 24.67 -19.32 24.34 -20 24 C-18.96552734 22.90945313 -18.96552734 22.90945313 -17.91015625 21.796875 C-11.40823477 14.86614047 -5.54466547 7.72146007 0 0 Z " fill="#5CE0D6" transform="translate(488,432)"/>
<path d="M0 0 C12.84168521 -0.21757058 25.32262387 -0.24307445 38 2 C38 2.66 38 3.32 38 4 C34.07905439 4.16684875 30.76918028 4.02344528 26.96875 3.03125 C21.47851649 1.7621508 16.05378938 1.5534129 10.4375 1.375 C9.42880859 1.33632813 8.42011719 1.29765625 7.38085938 1.2578125 C4.9207436 1.16453797 2.46061634 1.07874484 0 1 C0 0.67 0 0.34 0 0 Z " fill="#A5A5A4" transform="translate(123,377)"/>
<path d="M0 0 C3.98098002 4.57005105 3.34483302 9.60413535 3.1875 15.3125 C3.16719727 16.70952148 3.16719727 16.70952148 3.14648438 18.13476562 C3.11126882 20.42377646 3.06202099 22.71158458 3 25 C2.67 25 2.34 25 2 25 C1.67 17.74 1.34 10.48 1 3 C-3.62 3 -8.24 3 -13 3 C-9.03737946 0.35825297 -4.76947319 -0.75307471 0 0 Z " fill="#C1BAC2" transform="translate(430,296)"/>
<path d="M0 0 C1.13973277 3.36529203 0.84992251 5.33920646 -0.25 8.6875 C-0.52972656 9.55503906 -0.80945313 10.42257813 -1.09765625 11.31640625 C-1.39542969 12.20199219 -1.69320313 13.08757812 -2 14 C-2.28746094 14.87527344 -2.57492187 15.75054687 -2.87109375 16.65234375 C-3.57086206 18.77173773 -4.28044314 20.88725858 -5 23 C-6.24847957 18.83241354 -5.35465003 16.02139565 -4 12 C-3.66097656 10.97003906 -3.32195312 9.94007813 -2.97265625 8.87890625 C-1.99191603 5.91574453 -1.00012058 2.95666714 0 0 Z " fill="#1D0000" transform="translate(474,210)"/>
<path d="M0 0 C-1.87237371 0.96345444 -3.7480299 1.92053102 -5.625 2.875 C-6.66914063 3.40867187 -7.71328125 3.94234375 -8.7890625 4.4921875 C-11.81801625 5.91454291 -14.80643334 7.0122001 -18 8 C-18 7.01 -18 6.02 -18 5 C-15.56686628 3.96748938 -13.12943108 2.94880479 -10.6875 1.9375 C-9.65206055 1.49567383 -9.65206055 1.49567383 -8.59570312 1.04492188 C-3.33984375 -1.11328125 -3.33984375 -1.11328125 0 0 Z " fill="#BBF0E8" transform="translate(410,500)"/>
<path d="M0 0 C0.33 0 0.66 0 1 0 C1.02893932 3.62498334 1.04677792 7.24993713 1.0625 10.875 C1.07087891 11.90753906 1.07925781 12.94007813 1.08789062 14.00390625 C1.09111328 14.99003906 1.09433594 15.97617187 1.09765625 16.9921875 C1.10289307 17.90339355 1.10812988 18.81459961 1.11352539 19.75341797 C1 22 1 22 0 24 C-1.32 23.34 -2.64 22.68 -4 22 C-3.67 21.34 -3.34 20.68 -3 20 C-2.01 20.33 -1.02 20.66 0 21 C0 14.07 0 7.14 0 0 Z " fill="#2E2B2D" transform="translate(280,452)"/>
<path d="M0 0 C0.33 0.66 0.66 1.32 1 2 C-0.66666667 3.66666667 -2.33333333 5.33333333 -4 7 C-4.886875 7.928125 -5.77375 8.85625 -6.6875 9.8125 C-9 12 -9 12 -11 12 C-9.60609461 8.84280428 -7.96365028 6.7187347 -5.5 4.3125 C-4.8915625 3.71050781 -4.283125 3.10851562 -3.65625 2.48828125 C-2 1 -2 1 0 0 Z " fill="#D0CBCE" transform="translate(369,324)"/>
<path d="M0 0 C-1.38188453 3.21043882 -2.92421903 5.04936365 -5.625 7.25 C-6.57246094 8.03117187 -6.57246094 8.03117187 -7.5390625 8.828125 C-8.02117187 9.21484375 -8.50328125 9.6015625 -9 10 C-7.81442213 5.25768853 -5.66615657 0 0 0 Z " fill="#D7D8D7" transform="translate(204,254)"/>
<path d="M0 0 C-3.27301919 2.96909598 -5.38065762 3.34354794 -9.75 3.1875 C-11.22726562 3.14689453 -11.22726562 3.14689453 -12.734375 3.10546875 C-13.85585938 3.05326172 -13.85585938 3.05326172 -15 3 C-15 2.67 -15 2.34 -15 2 C-12.87707704 1.47076428 -10.75157949 0.95184623 -8.625 0.4375 C-7.44164062 0.14746094 -6.25828125 -0.14257812 -5.0390625 -0.44140625 C-2 -1 -2 -1 0 0 Z " fill="#473A3D" transform="translate(398,341)"/>
<path d="M0 0 C-3.07692746 2.6815279 -5.19734663 3.42087807 -9.25 3.6875 C-10.14203125 3.75324219 -11.0340625 3.81898438 -11.953125 3.88671875 C-12.62859375 3.92410156 -13.3040625 3.96148438 -14 4 C-11.33542691 2.63186718 -8.66602351 1.40025631 -5.875 0.3125 C-5.19179688 0.04050781 -4.50859375 -0.23148438 -3.8046875 -0.51171875 C-2 -1 -2 -1 0 0 Z " fill="#69E1D8" transform="translate(382,513)"/>
<path d="M0 0 C0.33 0.99 0.66 1.98 1 3 C0.13375 3.1546875 0.13375 3.1546875 -0.75 3.3125 C-3.32049158 4.09792798 -4.93657284 5.30504197 -7 7 C-7.66 6.67 -8.32 6.34 -9 6 C-8.07213211 4.99105628 -7.13231567 3.99309093 -6.1875 3 C-5.66542969 2.443125 -5.14335937 1.88625 -4.60546875 1.3125 C-3 0 -3 0 0 0 Z " fill="#D4D4D4" transform="translate(323,463)"/>
<path d="M0 0 C1 2 1 2 0.4765625 3.875 C0.05503906 4.926875 0.05503906 4.926875 -0.375 6 C-0.65085937 6.70125 -0.92671875 7.4025 -1.2109375 8.125 C-1.76277726 9.43630239 -2.3637546 10.72750919 -3 12 C-3.66 12 -4.32 12 -5 12 C-3.68938409 7.76570244 -2.05643741 3.92592596 0 0 Z " fill="#56DFD7" transform="translate(499,413)"/>
<path d="M0 0 C2.375 -0.1875 2.375 -0.1875 5 0 C5.66 0.99 6.32 1.98 7 3 C4.33333333 3 1.66666667 3 -1 3 C-0.67 2.01 -0.34 1.02 0 0 Z " fill="#C2C2C2" transform="translate(301,462)"/>
<path d="M0 0 C0 3 0 3 -2 6 C-4.625 6.6875 -4.625 6.6875 -7 7 C-4.66666667 4.66666667 -2.33333333 2.33333333 0 0 Z " fill="#61E3D9" transform="translate(467,457)"/>
</svg>
