<?xml version="1.0"?>
<svg width="200" height="200" xmlns="http://www.w3.org/2000/svg" xmlns:svg="http://www.w3.org/2000/svg" preserveAspectRatio="xMidYMid meet" version="1.0">
 <metadata>Created by potrace 1.10, written by Peter Selinger 2001-2011</metadata>
 <g class="layer">
  <title>Layer 1</title>
  <g fill="#000000" id="svg_1" transform="translate(0.000000,200.000000) scale(0.100000,-0.100000)">
   <path d="m1194,1955c-3,-14 -10,-25 -15,-25c-5,0 -9,-7 -9,-15c0,-28 28,-15 35,15c4,17 11,30 16,30c5,0 9,5 9,10c0,21 -30,9 -36,-15z" id="svg_2"/>
   <path d="m728,1909c-13,-14 -17,-31 -14,-61c5,-61 26,-61 26,0c0,54 11,65 52,55c21,-6 22,-5 9,10c-18,22 -52,20 -73,-4z" id="svg_3"/>
   <path d="m606,1875c-4,-14 -11,-25 -16,-25c-12,0 -13,-40 -1,-58c10,-16 53,-12 58,5c3,7 -3,9 -16,6c-18,-5 -21,-1 -21,25c0,17 5,34 12,38c8,5 9,2 5,-9c-3,-10 -3,-17 2,-17c11,0 19,31 14,48c-8,21 -31,13 -37,-13z" id="svg_4"/>
   <path d="m1890,1849c-8,-5 -28,-14 -44,-19c-16,-6 -26,-13 -24,-16c3,-3 30,6 59,20c30,14 47,25 39,25c-8,0 -22,-4 -30,-10z" id="svg_5"/>
   <path d="m497,1843c-4,-3 -7,-19 -7,-35c0,-25 3,-28 35,-28c19,0 35,5 35,10c0,6 -11,8 -25,4c-28,-7 -33,7 -10,30c8,8 15,17 15,20c0,8 -35,7 -43,-1z" id="svg_6"/>
   <path d="m390,1816c-18,-49 7,-78 54,-60c28,11 17,24 -14,18c-25,-6 -30,-3 -30,14c0,11 7,25 15,32c12,10 15,9 15,-6c0,-13 3,-15 11,-7c15,15 3,33 -22,33c-11,0 -23,-10 -29,-24z" id="svg_7"/>
   <path d="m1745,1786c-22,-13 -46,-21 -52,-19c-7,3 -13,0 -13,-6c0,-16 20,-14 55,5c17,9 41,23 55,30c14,8 18,14 10,14c-8,-1 -33,-11 -55,-24z" id="svg_8"/>
   <path d="m324,1748c14,-135 19,-158 28,-158c11,0 6,71 -7,103c-5,12 -2,17 9,17c11,0 16,9 16,26c0,34 -17,64 -36,64c-13,0 -15,-9 -10,-52z" id="svg_9"/>
   <path d="m1010,1791c-23,-13 -62,-29 -89,-37c-29,-8 -58,-38 -72,-76c-6,-16 -15,-28 -20,-28c-5,0 -9,-12 -8,-27l0,-28l16,23c9,12 26,22 40,22c38,0 116,-21 134,-36c8,-8 24,-14 34,-14c14,0 15,3 5,15c-7,8 -17,15 -23,15c-5,0 -15,7 -21,15c-8,10 -33,16 -83,17c-40,2 -73,5 -73,8c0,2 20,23 44,46c29,27 58,44 83,49c21,4 43,10 48,15c10,8 105,22 105,16c0,-2 -20,-13 -45,-25c-28,-13 -43,-26 -39,-33c5,-8 11,-6 19,5c7,10 17,17 22,17c6,0 33,7 61,16c47,16 53,15 91,-2c58,-27 96,-102 89,-176c-3,-29 -11,-54 -17,-56c-6,-2 -11,-10 -11,-17c0,-7 -7,-15 -15,-19c-8,-3 -15,-10 -15,-16c0,-6 -9,-20 -19,-31l-19,-21l-18,33c-9,19 -23,38 -30,42c-8,4 -14,14 -14,22c0,7 -8,16 -19,20c-10,3 -26,14 -36,25c-10,11 -25,20 -34,20c-11,0 -4,-11 19,-31c98,-84 126,-129 91,-149c-25,-14 -7,-22 23,-10c35,13 86,63 86,84c0,9 6,16 13,16c39,0 50,133 17,205c-14,31 -33,52 -63,70c-39,22 -54,25 -143,24c-54,0 -106,-4 -114,-8z" id="svg_10"/>
   <path d="m140,1745c0,-31 3,-36 30,-41c46,-10 56,-29 25,-50c-16,-10 -22,-21 -17,-26c10,-10 62,32 62,51c0,6 -17,19 -37,28c-46,22 -57,53 -19,53c14,0 26,5 26,10c0,6 -16,10 -35,10c-33,0 -35,-2 -35,-35z" id="svg_11"/>
   <path d="m270,1735c0,-14 -5,-25 -11,-25c-6,0 -8,9 -4,20c4,11 2,20 -4,20c-12,0 -14,-30 -3,-45c9,-13 62,-16 62,-4c0,5 -4,9 -10,9c-5,0 -10,11 -10,25c0,14 -4,25 -10,25c-5,0 -10,-11 -10,-25z" id="svg_12"/>
   <path d="m643,1733c-9,-22 -43,-52 -60,-53c-7,0 -13,-7 -13,-16c0,-13 2,-13 18,2c16,17 17,15 22,-47c9,-112 35,-123 44,-16c3,39 8,89 12,110c7,39 -10,53 -23,20z" id="svg_13"/>
   <path d="m1620,1741c0,-5 -12,-15 -27,-23c-54,-27 -93,-53 -93,-60c0,-13 17,-9 30,7c7,8 18,15 25,15c15,0 103,48 110,61c4,5 -5,9 -19,9c-14,0 -26,-4 -26,-9z" id="svg_14"/>
   <path d="m1200,1715c0,-8 -7,-15 -15,-15c-8,0 -15,-4 -15,-9c0,-5 -9,-11 -20,-14c-11,-3 -20,-10 -20,-16c0,-17 13,-13 51,12c33,22 51,57 30,57c-6,0 -11,-7 -11,-15z" id="svg_15"/>
   <path d="m1060,1640c20,-13 47,-13 55,0c4,6 -9,10 -32,10c-28,0 -34,-3 -23,-10z" id="svg_16"/>
   <path d="m10,1606c0,-9 8,-12 25,-8c14,2 25,8 25,13c0,5 -11,9 -25,9c-14,0 -25,-6 -25,-14z" id="svg_17"/>
   <path d="m860,1606c0,-7 -13,-16 -29,-19c-31,-7 -58,-49 -59,-96c-1,-13 -5,-27 -10,-30c-11,-8 -122,-188 -122,-200c0,-5 -6,-14 -14,-20c-8,-7 -17,-34 -21,-62c-4,-27 -12,-49 -19,-49c-6,0 -17,-9 -24,-20c-7,-11 -19,-20 -28,-20c-8,0 -24,-9 -36,-20c-23,-22 -20,-69 7,-96c8,-9 15,-28 15,-44c0,-21 6,-29 25,-34c23,-6 25,-11 25,-59c0,-33 7,-66 20,-90c11,-20 20,-44 20,-52c0,-8 4,-15 9,-15c4,0 18,-27 30,-60c12,-32 26,-62 31,-65c16,-10 12,-18 -22,-57c-35,-39 -81,-63 -139,-72c-24,-4 -40,-14 -49,-31c-7,-14 -17,-25 -22,-25c-4,0 -8,-7 -8,-15c0,-8 -4,-15 -8,-15c-11,0 -32,-69 -32,-101c0,-26 34,-74 88,-125c39,-37 60,-47 127,-63c28,-7 55,-18 61,-26c6,-8 20,-15 30,-15c16,0 17,2 4,10c-12,8 -11,10 8,10c12,0 22,4 22,9c0,5 -10,11 -22,13c-17,2 -23,10 -23,28c0,14 -9,42 -19,62c-15,32 -16,44 -6,91c7,35 22,66 40,87c17,19 30,37 30,42c0,4 7,8 15,8c8,0 15,5 15,11c0,6 17,28 39,48c22,21 41,50 46,70l7,33l-21,-21c-12,-12 -21,-25 -21,-30c0,-10 -24,-21 -46,-21c-8,0 -19,11 -24,25c-5,14 -21,37 -34,52c-20,22 -39,61 -80,163c-3,8 -10,22 -15,30c-22,37 -30,70 -35,143c-5,80 8,106 20,40c4,-21 10,-45 15,-53c6,-13 9,-12 15,4c4,11 0,29 -10,46c-26,46 -22,51 37,44c28,-4 53,-11 55,-15c2,-5 15,-6 28,-3c34,9 31,-18 -6,-56c-17,-17 -27,-36 -24,-42c11,-18 75,63 72,91c-3,21 -11,26 -68,38c-36,8 -80,12 -97,10c-32,-3 -33,-1 -33,31c0,19 5,53 11,76c25,95 44,156 51,156c7,0 28,-57 28,-78c0,-8 -11,-27 -25,-44c-14,-16 -25,-42 -25,-56l0,-27l27,34l26,33l14,-26c7,-14 18,-26 24,-26c14,0 25,33 11,38c-6,2 -14,20 -17,40c-7,38 -34,103 -48,113c-9,7 31,99 43,99c4,0 11,11 14,25c8,33 64,95 85,95c14,-1 14,-2 -1,-14c-10,-7 -17,-24 -17,-37c1,-18 2,-20 6,-6c10,38 41,57 91,57c78,0 143,-42 192,-124c22,-36 22,-40 7,-51c-9,-7 -17,-17 -17,-23c0,-6 -6,-15 -13,-19c-7,-4 -19,-21 -25,-38l-13,-30l-141,-2c-90,-2 -146,-7 -152,-14c-8,-9 27,-10 137,-5c165,8 155,13 138,-69c-5,-22 -9,-30 -10,-17c-1,20 -6,22 -67,22c-41,0 -63,-4 -59,-10c3,-5 31,-10 61,-10c47,0 54,-2 54,-20c0,-11 -4,-20 -10,-20c-5,0 -12,-11 -16,-25c-3,-14 -12,-25 -20,-25c-8,0 -14,-7 -14,-15c0,-8 -9,-24 -21,-36c-19,-19 -24,-20 -45,-8c-22,11 -27,10 -47,-9c-17,-17 -19,-26 -11,-39c20,-32 40,-37 67,-17c15,10 27,22 27,26c0,6 44,69 78,113c4,6 11,19 15,29c14,36 20,6 7,-33c-9,-27 -11,-69 -7,-128c5,-89 35,-235 49,-241c5,-2 8,-13 8,-25c0,-12 18,-43 40,-68c32,-38 44,-45 65,-42c18,4 25,1 25,-11c0,-9 6,-16 13,-16c24,0 126,-118 136,-158c9,-35 7,-173 -4,-218c-3,-13 -16,-25 -32,-29c-15,-3 -31,-11 -34,-17c-4,-6 -55,-12 -123,-13c-63,-1 -114,1 -112,4c2,3 -56,6 -129,6c-77,0 -131,-4 -127,-9c3,-5 0,-6 -6,-2c-6,3 -13,2 -17,-4c-10,-16 506,-13 536,3c66,34 67,36 75,144c10,145 6,158 -76,241c-39,39 -70,75 -70,80c0,5 -21,15 -46,21c-41,11 -94,51 -94,72c0,5 33,10 73,11c96,2 94,1 109,16c8,8 50,12 131,12c79,0 137,5 173,16c50,14 58,14 104,-1c28,-9 71,-28 96,-41c38,-20 59,-24 138,-24c100,0 116,7 116,51c0,32 -22,40 -90,32c-38,-4 -53,-1 -86,19c-22,14 -50,37 -64,51c-14,15 -31,27 -37,27c-7,0 -13,7 -13,15c0,8 -7,15 -15,15c-8,0 -15,4 -15,8c0,5 -17,16 -38,25c-30,13 -68,17 -165,17c-123,0 -227,14 -227,30c0,4 -11,11 -24,14c-13,3 -34,17 -47,31c-13,13 -29,25 -35,25c-7,0 -15,11 -18,25c-4,14 -11,25 -16,25c-6,0 -10,9 -10,20c0,11 -9,37 -20,57c-11,21 -20,46 -20,55c0,10 -4,18 -10,18c-14,0 -12,39 4,75l13,30l8,-27c4,-16 11,-28 16,-28c5,0 9,-6 9,-13c0,-8 11,-24 25,-37c20,-18 28,-21 37,-12c9,9 9,12 0,12c-7,0 -12,8 -12,18c0,19 -28,82 -35,82c-3,0 -2,-8 1,-17c5,-15 4,-16 -5,-3c-6,8 -11,26 -11,39c0,24 2,23 35,-13c19,-21 35,-42 35,-47c0,-5 7,-9 15,-9c10,0 15,10 15,29c0,16 -6,31 -15,35c-8,3 -15,11 -15,18c0,7 -10,18 -22,23c-28,13 -33,29 -13,48c8,9 15,20 15,26c0,15 18,14 23,-1c2,-7 3,-4 1,7c-2,11 -4,29 -4,41c0,11 -9,30 -20,42c-11,12 -20,28 -20,37c0,8 -5,15 -10,15c-6,0 -20,9 -32,20c-12,11 -28,20 -35,20c-7,0 -13,5 -13,10c0,6 -9,10 -20,10c-11,0 -20,-5 -20,-12c0,-9 -3,-9 -12,0c-7,7 -31,12 -55,12c-32,0 -43,4 -43,15c0,8 -5,15 -11,15c-8,0 -8,5 1,15c10,12 10,15 -4,15c-9,0 -16,-6 -16,-14zm-10,-86c0,-15 -7,-20 -25,-20c-23,0 -24,2 -13,20c7,11 18,20 25,20c7,0 13,-9 13,-20zm201,-10c25,-14 24,-46 -2,-53c-26,-7 -91,14 -97,31c-2,8 7,12 27,12c16,0 33,5 36,10c8,13 12,12 36,0zm72,-84c3,-7 -1,-23 -8,-36l-13,-25l-12,27c-7,15 -10,34 -7,42c7,17 33,12 40,-8zm-543,-346c-5,-10 -10,-42 -10,-70c0,-44 -3,-51 -17,-48c-10,2 -27,21 -37,42c-19,38 -19,40 -1,50c10,6 27,21 39,32c25,25 41,21 26,-6zm470,-36c0,-6 9,-23 20,-37c12,-15 21,-29 20,-32c-2,-28 2,-45 9,-41c5,4 7,-3 4,-14c-3,-11 0,-20 6,-20c6,0 11,5 11,12c0,15 15,0 15,-15c0,-7 8,-11 18,-9c9,2 17,-3 17,-11c0,-8 9,-22 20,-32c11,-10 18,-20 16,-24c-5,-7 25,-9 239,-13c165,-3 170,-4 180,-25c5,-13 15,-23 22,-23c7,0 13,-5 13,-11c0,-6 9,-8 23,-4c20,5 20,5 -3,-10l-25,-15l26,6c20,4 33,-1 52,-20c14,-14 30,-26 35,-26c15,0 22,-28 9,-33c-7,-2 0,-4 15,-4c17,0 26,4 22,11c-3,6 1,3 8,-6c12,-14 29,-17 91,-15c42,1 77,-1 77,-5c0,-5 -29,-8 -64,-8c-36,0 -68,-4 -71,-10c-10,-16 -36,-12 -51,8c-12,15 -15,15 -24,2c-6,-10 -13,-11 -17,-5c-9,12 -63,39 -78,40c-5,0 -13,4 -16,8c-3,4 -55,9 -115,11c-60,1 -95,-1 -79,-4c20,-5 23,-8 10,-9c-17,-1 -18,-3 -5,-12c11,-7 -12,-9 -79,-6c-59,3 -96,9 -101,16c-11,19 -16,18 -38,-9c-18,-23 -29,-25 -112,-30c-100,-5 -109,-2 -112,46c-1,16 -6,34 -11,41c-21,28 -28,277 -11,363c5,24 6,24 20,6c8,-11 14,-25 14,-32zm-480,-125c0,-20 -15,-26 -24,-10c-8,13 4,42 15,35c5,-3 9,-14 9,-25zm289,-18c7,-5 10,-14 7,-20c-10,-16 -56,-14 -56,2c0,26 23,35 49,18zm-126,-419c20,-35 16,-52 -14,-52c-10,0 -19,-5 -19,-11c0,-5 -4,-7 -10,-4c-5,3 -10,1 -10,-4c0,-6 -8,-11 -17,-11c-17,-1 -17,-1 0,-11c15,-9 24,-6 42,11c13,12 28,19 33,16c5,-3 12,2 14,12c5,17 38,27 38,12c0,-3 -25,-31 -55,-61c-38,-38 -61,-72 -73,-107c-10,-29 -23,-49 -28,-44c-4,4 -3,0 4,-9c6,-9 9,-18 7,-21c-3,-3 3,-29 15,-57c26,-67 26,-81 -4,-81c-33,0 -119,38 -112,49c3,5 -2,7 -12,4c-14,-3 -31,12 -65,58c-26,35 -47,71 -47,81c0,20 46,118 56,118c3,0 15,-11 28,-25c24,-26 46,-33 46,-15c0,6 -4,10 -10,10c-13,0 -50,37 -50,49c0,10 16,16 71,25c20,4 44,15 54,26c10,11 24,20 31,20c7,0 21,14 31,30c21,36 32,34 56,-8z" id="svg_18"/>
   <path d="m1335,710c28,-12 67,-12 60,0c-3,6 -23,10 -43,9c-30,0 -33,-2 -17,-9z" id="svg_19"/>
   <path d="m610,344c0,-14 4,-23 10,-19c6,4 8,10 5,15c-3,5 9,14 27,19l33,9l-37,1c-34,1 -38,-2 -38,-25z" id="svg_20"/>
   <path d="m570,299c0,-18 -32,-38 -60,-39c-40,-1 -70,-11 -70,-25c0,-10 8,-11 30,-5c19,5 28,5 25,-1c-4,-5 -1,-9 4,-9c6,0 11,6 11,14c0,10 10,14 30,14c17,-1 30,-7 30,-13c0,-7 7,-16 16,-19c12,-5 11,0 -4,22c-17,23 -18,29 -6,40c16,15 18,32 4,32c-5,0 -10,-5 -10,-11z" id="svg_21"/>
   <path d="m1836,1581c-4,-5 -24,-12 -46,-16c-22,-4 -40,-11 -40,-15c0,-5 -10,-11 -22,-13c-13,-2 -5,-2 17,0c22,2 42,8 45,13c3,6 19,11 36,12c16,1 38,8 49,15c18,12 18,13 -7,13c-15,0 -29,-4 -32,-9z" id="svg_22"/>
   <path d="m484,1505c11,-49 18,-65 27,-65c16,0 10,37 -12,61c-18,22 -20,22 -15,4z" id="svg_23"/>
   <path d="m38,1482c-27,-17 -38,-42 -18,-42c6,0 10,5 10,10c0,6 7,10 15,10c8,0 15,4 15,9c0,4 15,13 33,19l32,10l-30,0c-16,0 -42,-7 -57,-16z" id="svg_24"/>
   <path d="m642,1473c4,-39 28,-42 28,-4c0,21 -5,31 -16,31c-11,0 -14,-8 -12,-27z" id="svg_25"/>
   <path d="m1539,1484c-12,-15 -11,-16 11,-9c46,14 58,24 29,25c-15,0 -33,-7 -40,-16z" id="svg_26"/>
   <path d="m435,1480c-11,-18 6,-70 22,-70c10,0 13,6 9,16c-3,9 -6,27 -6,40c0,25 -14,32 -25,14z" id="svg_27"/>
   <path d="m1958,1475c-2,-3 -31,-9 -64,-15c-194,-31 -246,-41 -314,-59c-41,-11 -66,-20 -55,-20c31,-2 198,29 217,39c10,6 30,10 45,10c43,0 213,34 213,42c0,9 -34,11 -42,3z" id="svg_28"/>
   <path d="m295,1431c-19,-8 -19,-8 0,-19c17,-9 18,-14 7,-32c-7,-11 -10,-25 -7,-30c10,-17 40,-11 53,10c12,19 11,20 -15,14c-28,-7 -28,-7 -9,14c10,12 16,28 13,37c-7,16 -12,17 -42,6z" id="svg_29"/>
   <path d="m370,1432c0,-13 39,-46 46,-40c3,4 -3,16 -13,27c-18,22 -33,27 -33,13z" id="svg_30"/>
   <path d="m1383,1433c-28,-5 -30,-23 -3,-23c11,0 20,4 20,9c0,5 10,12 23,14c18,3 18,4 2,4c-11,0 -30,-2 -42,-4z" id="svg_31"/>
   <path d="m843,1402c-13,-2 -23,-8 -23,-13c0,-10 13,-10 50,0c30,8 8,19 -27,13z" id="svg_32"/>
   <path d="m553,1370c5,-44 17,-49 17,-7c0,21 -4,37 -10,37c-5,0 -8,-14 -7,-30z" id="svg_33"/>
   <path d="m210,1360c0,-25 4,-30 23,-29c12,0 16,3 10,6c-7,2 -13,16 -13,29c0,13 -4,24 -10,24c-5,0 -10,-13 -10,-30z" id="svg_34"/>
   <path d="m740,1371c-13,-25 -13,-31 0,-31c6,0 10,7 10,15c0,8 7,15 15,15c9,0 18,-7 21,-15c4,-8 12,-15 19,-15c7,0 16,-11 19,-25c7,-28 26,-34 26,-8c0,19 -67,82 -87,83c-7,0 -17,-9 -23,-19z" id="svg_35"/>
   <path d="m100,1357l-25,-11l28,-4c26,-3 28,-6 22,-33c-5,-21 -2,-31 9,-35c18,-7 66,20 66,37c0,7 -10,5 -25,-5c-35,-23 -38,-21 -30,24c7,44 1,48 -45,27z" id="svg_36"/>
   <path d="m1000,1351c0,-5 -9,-13 -20,-16c-11,-3 -23,-17 -26,-31c-3,-13 -12,-24 -20,-24c-8,0 -14,-9 -14,-20c0,-11 -7,-20 -15,-20c-9,0 -15,-9 -15,-22c0,-19 5,-16 41,22c22,25 47,58 55,73c8,15 19,25 24,22c6,-4 10,-2 10,4c0,5 -4,13 -10,16c-5,3 -10,2 -10,-4z" id="svg_37"/>
   <path d="m496,1308c3,-18 10,-42 15,-53c6,-17 8,-15 8,10c1,40 -9,75 -21,75c-6,0 -7,-13 -2,-32z" id="svg_38"/>
   <path d="m361,1240c-1,-53 8,-90 20,-90c9,0 2,63 -12,110c-6,20 -7,16 -8,-20z" id="svg_39"/>
   <path d="m267,1243c-11,-18 -19,-133 -10,-133c6,0 13,30 16,68c5,67 4,81 -6,65z" id="svg_40"/>
   <path d="m105,1207c-8,-20 -15,-49 -14,-64c1,-21 6,-13 20,31c21,66 17,89 -6,33z" id="svg_41"/>
   <path d="m832,1103c-5,-10 -12,-34 -15,-53c-3,-19 -9,-43 -13,-54c-5,-14 -3,-17 7,-14c8,3 15,16 15,29c1,13 8,43 17,67c14,41 6,59 -11,25z" id="svg_42"/>
   <path d="m15,1070c3,-5 15,-10 26,-10c10,0 19,-4 19,-9c0,-5 16,-12 36,-16c20,-3 53,-15 73,-26c40,-21 93,-28 57,-7c-23,13 -101,43 -166,64c-54,17 -53,16 -45,4z" id="svg_43"/>
   <path d="m1404,1045c11,-8 34,-15 50,-14l31,1l-30,13c-16,8 -39,14 -50,14c-20,0 -20,0 -1,-14z" id="svg_44"/>
   <path d="m1523,1024c9,-3 17,-10 17,-15c0,-5 14,-9 31,-9c34,0 119,-19 134,-30c6,-4 33,-11 60,-15c28,-4 58,-11 69,-17c11,-6 22,-6 28,0c6,6 -6,12 -31,16c-23,3 -41,11 -41,16c0,6 -15,10 -33,10c-19,0 -69,10 -113,21c-69,19 -169,37 -121,23z" id="svg_45"/>
   <path d="m76,970c12,-5 43,-11 70,-14l49,-6l-35,14c-19,8 -51,15 -70,15c-29,0 -31,-2 -14,-9z" id="svg_46"/>
   <path d="m340,921c0,-9 128,-46 136,-39c4,5 -113,48 -129,48c-4,0 -7,-4 -7,-9z" id="svg_47"/>
   <path d="m640,811c0,-11 5,-23 10,-26c6,-3 10,-16 10,-28c0,-20 2,-20 25,8c13,17 24,36 25,43c0,20 -21,14 -27,-8c-7,-26 -23,-26 -23,-1c0,11 -4,23 -10,26c-5,3 -10,-3 -10,-14z" id="svg_48"/>
   <path d="m820,801c0,-16 6,-36 13,-43c7,-7 14,-28 15,-47c1,-18 7,-41 12,-51c5,-9 6,-20 3,-24c-3,-3 1,-6 10,-6c10,0 17,-8 17,-20c0,-11 7,-20 15,-20c8,0 15,-9 15,-20c0,-11 7,-20 15,-20c20,0 20,1 -13,57c-38,65 -72,147 -72,173c0,12 -7,28 -15,36c-13,14 -15,12 -15,-15z" id="svg_49"/>
   <path d="m77,813c-39,-2 -67,-8 -67,-15c0,-7 14,-8 43,-3c23,4 114,11 202,15l160,7l-135,-1c-74,0 -165,-1 -203,-3z" id="svg_50"/>
   <path d="m270,573c-56,-5 -78,-23 -28,-23c49,0 98,11 98,21c0,5 -6,8 -12,7c-7,-1 -33,-3 -58,-5z" id="svg_51"/>
   <path d="m955,549c-8,-11 27,-49 45,-49c5,0 10,-9 10,-20c0,-16 7,-20 33,-20c33,0 47,-15 59,-59c3,-9 12,0 26,22c21,37 20,51 -3,21c-10,-15 -14,-14 -38,10c-15,15 -27,32 -27,39c0,8 -3,7 -9,-2c-10,-15 -31,-7 -32,12c0,19 -56,59 -64,46z" id="svg_52"/>
   <path d="m53,537c-24,-6 -43,-17 -43,-24c0,-15 16,-17 25,-4c3,6 37,13 75,17c39,3 70,11 70,15c0,12 -73,9 -127,-4z" id="svg_53"/>
   <path d="m790,383c0,-5 7,-18 15,-29c8,-10 15,-27 15,-36c0,-17 17,-34 26,-25c5,5 -25,65 -43,85c-7,7 -13,9 -13,5z" id="svg_54"/>
   <path d="m1130,316c0,-63 11,-70 17,-11c2,20 -1,43 -6,53c-8,13 -10,2 -11,-42z" id="svg_55"/>
   <path d="m80,350c-21,-7 -19,-8 18,-9c23,-1 42,4 42,9c0,12 -24,12 -60,0z" id="svg_56"/>
   <path d="m1100,240c0,-5 -7,-10 -16,-10c-8,0 -13,-4 -10,-9c3,-5 -10,-12 -29,-15c-19,-4 -35,-11 -35,-16c0,-6 -7,-10 -15,-10c-8,0 -15,-4 -15,-9c0,-17 72,8 104,36c17,15 35,31 41,35c5,5 1,8 -8,8c-9,0 -17,-4 -17,-10z" id="svg_57"/>
   <path d="m908,154c-10,-3 -18,-12 -18,-19c0,-10 13,-12 58,-8c57,6 69,9 61,18c-8,7 -83,14 -101,9z" id="svg_58"/>
   <path d="m798,113c-16,-2 -28,-9 -28,-14c0,-5 -7,-9 -15,-9c-8,0 -15,-7 -15,-16c0,-14 3,-14 15,-4c9,7 25,14 38,16c70,12 86,17 81,25c-5,9 -26,10 -76,2z" id="svg_59"/>
   <path d="m368,94c-16,-8 -28,-19 -28,-24c0,-6 -5,-10 -11,-10c-6,0 -25,-6 -42,-14c-18,-8 -41,-17 -52,-22c-19,-7 -19,-8 4,-12c13,-2 28,1 34,7c6,6 20,11 31,11c12,1 39,19 61,40c43,44 44,47 3,24z" id="svg_60"/>
  </g>
 </g>
</svg>