<svg xmlns="http://www.w3.org/2000/svg" xmlns:xlink="http://www.w3.org/1999/xlink" viewBox="0 0 198 198"><defs><style>.cls-1{isolation:isolate;}.cls-2,.cls-3,.cls-4{mix-blend-mode:screen;}.cls-2{fill:url(#linear-gradient);}.cls-3{fill:url(#linear-gradient-2);}.cls-4{fill:url(#linear-gradient-3);}</style><linearGradient id="linear-gradient" x1="99" y1="-0.14" x2="99" y2="224.21" gradientUnits="userSpaceOnUse"><stop offset="0" stop-color="#6acdee"/><stop offset="1" stop-color="#006db7"/></linearGradient><linearGradient id="linear-gradient-2" x1="99" y1="-0.14" x2="99" y2="224.21" xlink:href="#linear-gradient"/><linearGradient id="linear-gradient-3" x1="99" x2="99" y2="105.63" gradientUnits="userSpaceOnUse"><stop offset="0" stop-color="#b3e2f9"/><stop offset="1" stop-color="#7bc9f0"/></linearGradient></defs><g class="cls-1"><g id="Layer_1" data-name="Layer 1"><path class="cls-2" d="M158.46,75l-18-22.73a52.84,52.84,0,0,1,7.29,53.36,51.42,51.42,0,1,1-97.44,0,52.8,52.8,0,0,1,7.2-53.24L39.55,75a75.87,75.87,0,1,0,118.91,0Z"/><path class="cls-3" d="M139.28,90.2l-17.9-22.57a28.4,28.4,0,1,1-44.63-.16l-18,22.73a51.83,51.83,0,0,0-8.44,15.43,52.86,52.86,0,0,0,97.44,0A52.05,52.05,0,0,0,139.28,90.2Z"/><path class="cls-4" d="M151.87,85.12a52.61,52.61,0,0,1-4.15,20.51,52.05,52.05,0,0,0-8.44-15.43l-17.9-22.57c0-.06-.09-.11-.12-.16L99,39.39,76.75,67.47l-18,22.73a51.83,51.83,0,0,0-8.44,15.43,52.8,52.8,0,0,1,7.2-53.24.34.34,0,0,1,.09-.12L99,0l41.43,52.27A52.8,52.8,0,0,1,151.87,85.12Z"/></g></g></svg>
