<?xml version="1.0" encoding="UTF-8"?>
<!DOCTYPE svg PUBLIC "-//W3C//DTD SVG 1.1//EN" "http://www.w3.org/Graphics/SVG/1.1/DTD/svg11.dtd">
<svg xmlns="http://www.w3.org/2000/svg" version="1.1" width="200px" height="200px" style="shape-rendering:geometricPrecision; text-rendering:geometricPrecision; image-rendering:optimizeQuality; fill-rule:evenodd; clip-rule:evenodd" xmlns:xlink="http://www.w3.org/1999/xlink">
<g><path style="opacity:0.908" fill="#737373" d="M 81.5,-0.5 C 85.1667,-0.5 88.8333,-0.5 92.5,-0.5C 87.3839,0.806286 82.0506,1.47295 76.5,1.5C 78.1667,0.833333 79.8333,0.166667 81.5,-0.5 Z"/></g>
<g><path style="opacity:0.999" fill="#020202" d="M 92.5,-0.5 C 99.5,-0.5 106.5,-0.5 113.5,-0.5C 115.78,1.22267 118.447,1.88934 121.5,1.5C 123.838,3.03954 126.505,3.70621 129.5,3.5C 129.833,3.5 130.167,3.5 130.5,3.5C 131.287,5.10422 132.62,5.77089 134.5,5.5C 135.78,6.93127 137.447,7.59794 139.5,7.5C 143.818,8.99222 147.818,10.9922 151.5,13.5C 152.035,15.4456 153.368,16.4456 155.5,16.5C 156.492,16.3284 157.158,16.6618 157.5,17.5C 158.035,19.4456 159.368,20.4456 161.5,20.5C 162.833,21.5 164.167,22.5 165.5,23.5C 165.833,25.8333 167.167,27.1667 169.5,27.5C 170.757,30.4274 172.757,32.7607 175.5,34.5C 176.08,36.7488 177.413,38.4154 179.5,39.5C 179.738,41.4044 180.738,42.7377 182.5,43.5C 182.427,45.0269 183.094,46.0269 184.5,46.5C 185.338,46.8417 185.672,47.5084 185.5,48.5C 185.427,50.0269 186.094,51.0269 187.5,51.5C 189.341,53.8485 190.674,56.5152 191.5,59.5C 191.12,61.698 191.787,63.3646 193.5,64.5C 193.5,64.8333 193.5,65.1667 193.5,65.5C 193.259,67.8984 193.926,69.8984 195.5,71.5C 195.41,74.1522 196.076,76.4855 197.5,78.5C 197.5,78.8333 197.5,79.1667 197.5,79.5C 198.804,92.8319 198.804,106.165 197.5,119.5C 195.565,123.895 194.231,128.562 193.5,133.5C 192.069,134.78 191.402,136.447 191.5,138.5C 176.034,172.299 150.034,192.632 113.5,199.5C 104.167,199.5 94.8333,199.5 85.5,199.5C 46.8708,192.536 20.2041,170.869 5.5,134.5C 4.6124,129.928 3.27907,125.595 1.5,121.5C 1.18417,115.651 0.517503,109.984 -0.5,104.5C -0.5,96.8333 -0.5,89.1667 -0.5,81.5C 0.166667,79.8333 0.833333,78.1667 1.5,76.5C 3.60976,72.4979 4.9431,68.1646 5.5,63.5C 7.21321,62.3646 7.87988,60.698 7.5,58.5C 7.6596,56.847 8.32627,55.5137 9.5,54.5C 11.9305,52.954 13.2639,50.6207 13.5,47.5C 14.9063,47.0269 15.573,46.0269 15.5,44.5C 16.9063,44.0269 17.573,43.0269 17.5,41.5C 19.2624,40.7377 20.2624,39.4044 20.5,37.5C 22.5869,36.4154 23.9202,34.7488 24.5,32.5C 25.5,30.8333 26.8333,29.5 28.5,28.5C 32.1002,26.5698 35.1002,23.9031 37.5,20.5C 39.4044,20.2624 40.7377,19.2624 41.5,17.5C 43.0269,17.573 44.0269,16.9063 44.5,15.5C 46.0269,15.573 47.0269,14.9063 47.5,13.5C 49.0269,13.573 50.0269,12.9063 50.5,11.5C 51.5137,10.3263 52.847,9.6596 54.5,9.5C 58.1645,9.49815 61.1645,8.16482 63.5,5.5C 68.1646,4.9431 72.4979,3.60976 76.5,1.5C 82.0506,1.47295 87.3839,0.806286 92.5,-0.5 Z"/></g>
<g><path style="opacity:0.729" fill="#9f9f9f" d="M 113.5,-0.5 C 114.5,-0.5 115.5,-0.5 116.5,-0.5C 118.167,0.166667 119.833,0.833333 121.5,1.5C 118.447,1.88934 115.78,1.22267 113.5,-0.5 Z"/></g>
<g><path style="opacity:0.067" fill="#b6b6b6" d="M 121.5,1.5 C 124.428,1.56513 127.095,2.2318 129.5,3.5C 126.505,3.70621 123.838,3.03954 121.5,1.5 Z"/></g>
<g><path style="opacity:0.914" fill="#7e7e7e" d="M 76.5,1.5 C 72.4979,3.60976 68.1646,4.9431 63.5,5.5C 67.5021,3.39024 71.8354,2.0569 76.5,1.5 Z"/></g>
<g><path style="opacity:0.478" fill="#b2b2b2" d="M 130.5,3.5 C 132.153,3.6596 133.486,4.32627 134.5,5.5C 132.62,5.77089 131.287,5.10422 130.5,3.5 Z"/></g>
<g><path style="opacity:0.529" fill="#9a9a9a" d="M 134.5,5.5 C 136.553,5.40206 138.22,6.06873 139.5,7.5C 137.447,7.59794 135.78,6.93127 134.5,5.5 Z"/></g>
<g><path style="opacity:1" fill="#5d5d5d" d="M 63.5,5.5 C 61.1645,8.16482 58.1645,9.49815 54.5,9.5C 57.0884,7.40821 60.0884,6.07488 63.5,5.5 Z"/></g>
<g><path style="opacity:0.769" fill="#9d9d9d" d="M 50.5,11.5 C 50.0269,12.9063 49.0269,13.573 47.5,13.5C 47.9731,12.0937 48.9731,11.427 50.5,11.5 Z"/></g>
<g><path style="opacity:0.89" fill="#818181" d="M 47.5,13.5 C 47.0269,14.9063 46.0269,15.573 44.5,15.5C 44.9731,14.0937 45.9731,13.427 47.5,13.5 Z"/></g>
<g><path style="opacity:1" fill="#7c7c7c" d="M 151.5,13.5 C 153.23,14.0256 154.564,15.0256 155.5,16.5C 153.368,16.4456 152.035,15.4456 151.5,13.5 Z"/></g>
<g><path style="opacity:0.906" fill="#7f7f7f" d="M 44.5,15.5 C 44.0269,16.9063 43.0269,17.573 41.5,17.5C 41.9731,16.0937 42.9731,15.427 44.5,15.5 Z"/></g>
<g><path style="opacity:0.824" fill="#878787" d="M 41.5,17.5 C 40.7377,19.2624 39.4044,20.2624 37.5,20.5C 38.2623,18.7376 39.5956,17.7376 41.5,17.5 Z"/></g>
<g><path style="opacity:0.729" fill="#9c9c9c" d="M 157.5,17.5 C 159.23,18.0256 160.564,19.0256 161.5,20.5C 159.368,20.4456 158.035,19.4456 157.5,17.5 Z"/></g>
<g><path style="opacity:0.98" fill="#6c6c6c" d="M 37.5,20.5 C 35.1002,23.9031 32.1002,26.5698 28.5,28.5C 30.8998,25.0969 33.8998,22.4302 37.5,20.5 Z"/></g>
<g><path style="opacity:0.737" fill="#b0b0b0" d="M 165.5,23.5 C 167.167,24.5 168.5,25.8333 169.5,27.5C 167.167,27.1667 165.833,25.8333 165.5,23.5 Z"/></g>
<g><path style="opacity:0.867" fill="#aaaaaa" d="M 169.5,27.5 C 172.243,29.2393 174.243,31.5726 175.5,34.5C 172.757,32.7607 170.757,30.4274 169.5,27.5 Z"/></g>
<g><path style="opacity:0.741" fill="#a1a1a1" d="M 24.5,32.5 C 23.9202,34.7488 22.5869,36.4154 20.5,37.5C 21.0798,35.2512 22.4131,33.5846 24.5,32.5 Z"/></g>
<g><path style="opacity:1" fill="#848484" d="M 175.5,34.5 C 177.587,35.5846 178.92,37.2512 179.5,39.5C 177.413,38.4154 176.08,36.7488 175.5,34.5 Z"/></g>
<g><path style="opacity:0.961" fill="#8b8b8b" d="M 20.5,37.5 C 20.2624,39.4044 19.2624,40.7377 17.5,41.5C 17.7376,39.5956 18.7376,38.2623 20.5,37.5 Z"/></g>
<g><path style="opacity:0.78" fill="#949494" d="M 179.5,39.5 C 181.262,40.2623 182.262,41.5956 182.5,43.5C 180.738,42.7377 179.738,41.4044 179.5,39.5 Z"/></g>
<g><path style="opacity:0.675" fill="#959595" d="M 17.5,41.5 C 17.573,43.0269 16.9063,44.0269 15.5,44.5C 15.427,42.9731 16.0937,41.9731 17.5,41.5 Z"/></g>
<g><path style="opacity:0.482" fill="#b0b0b0" d="M 182.5,43.5 C 183.906,43.9731 184.573,44.9731 184.5,46.5C 183.094,46.0269 182.427,45.0269 182.5,43.5 Z"/></g>
<g><path style="opacity:0.596" fill="#9c9c9c" d="M 15.5,44.5 C 15.573,46.0269 14.9063,47.0269 13.5,47.5C 13.427,45.9731 14.0937,44.9731 15.5,44.5 Z"/></g>
<g><path style="opacity:0.435" fill="#aeaeae" d="M 185.5,48.5 C 186.906,48.9731 187.573,49.9731 187.5,51.5C 186.094,51.0269 185.427,50.0269 185.5,48.5 Z"/></g>
<g><path style="opacity:1" fill="#6b6b6b" d="M 13.5,47.5 C 13.2639,50.6207 11.9305,52.954 9.5,54.5C 10.0787,51.6689 11.412,49.3356 13.5,47.5 Z"/></g>
<g><path style="opacity:0.98" fill="#808080" d="M 7.5,58.5 C 7.87988,60.698 7.21321,62.3646 5.5,63.5C 5.79586,61.597 6.46253,59.9303 7.5,58.5 Z"/></g>
<g><path style="opacity:0.937" fill="#909090" d="M 191.5,59.5 C 192.537,60.9303 193.204,62.597 193.5,64.5C 191.787,63.3646 191.12,61.698 191.5,59.5 Z"/></g>
<g><path style="opacity:0.914" fill="#949494" d="M 5.5,63.5 C 4.9431,68.1646 3.60976,72.4979 1.5,76.5C 2.0569,71.8354 3.39024,67.5021 5.5,63.5 Z"/></g>
<g><path style="opacity:0.749" fill="#898989" d="M 193.5,65.5 C 195.074,67.1016 195.741,69.1016 195.5,71.5C 193.926,69.8984 193.259,67.8984 193.5,65.5 Z"/></g>
<g><path style="opacity:0.549" fill="#a5a5a5" d="M 195.5,71.5 C 196.924,73.5145 197.59,75.8478 197.5,78.5C 196.076,76.4855 195.41,74.1522 195.5,71.5 Z"/></g>
<g><path style="opacity:1" fill="#23efd6" d="M 10.5,79.5 C 15.0139,81.5604 19.6805,83.2271 24.5,84.5C 29.5881,82.9363 34.5881,81.4363 39.5,80C 41.2446,81.692 41.5779,83.5253 40.5,85.5C 36.1362,87.3437 32.1362,89.677 28.5,92.5C 32.3403,94.9209 36.3403,97.0875 40.5,99C 42.0111,101.782 41.1777,103.615 38,104.5C 33.6667,102.833 29.3333,101.167 25,99.5C 20.3112,101.778 15.4778,103.278 10.5,104C 9.23508,102.663 8.73508,101.163 9,99.5C 13.2475,97.2934 17.4141,94.96 21.5,92.5C 17.8638,89.677 13.8638,87.3437 9.5,85.5C 8.53065,83.3835 8.86399,81.3835 10.5,79.5 Z"/></g>
<g><path style="opacity:1" fill="#d2d5cf" d="M 114.5,80.5 C 119.159,80.0146 120.492,81.848 118.5,86C 113.728,86.8104 112.395,84.9771 114.5,80.5 Z"/></g>
<g><path style="opacity:1" fill="#eeeeee" d="M 53.5,81.5 C 55.7925,81.2436 57.9592,81.5769 60,82.5C 64.5418,93.6258 68.3751,104.959 71.5,116.5C 69.8333,116.5 68.1667,116.5 66.5,116.5C 66.7726,109.326 63.4393,106.326 56.5,107.5C 54.1667,107.667 51.8333,107.833 49.5,108C 48.3608,111.083 47.0275,114.083 45.5,117C 43.6815,117.783 42.3482,117.283 41.5,115.5C 45.7045,104.219 49.7045,92.8854 53.5,81.5 Z"/></g>
<g><path style="opacity:1" fill="#f0f4ea" d="M 97.5,84.5 C 98.8333,84.5 100.167,84.5 101.5,84.5C 101.5,86.5 101.5,88.5 101.5,90.5C 107.167,90.5 112.833,90.5 118.5,90.5C 118.5,99.1667 118.5,107.833 118.5,116.5C 117.167,116.5 115.833,116.5 114.5,116.5C 114.5,109.167 114.5,101.833 114.5,94.5C 110.167,94.5 105.833,94.5 101.5,94.5C 101.178,100.358 101.511,106.025 102.5,111.5C 103.713,113.676 105.38,114.009 107.5,112.5C 109.324,116.158 108.157,117.825 104,117.5C 100.059,117.391 97.8921,115.391 97.5,111.5C 97.5,105.833 97.5,100.167 97.5,94.5C 96.1667,94.5 94.8333,94.5 93.5,94.5C 92.1667,93.5 92.1667,92.5 93.5,91.5C 94.8333,91.5 96.1667,91.5 97.5,91.5C 97.5,89.1667 97.5,86.8333 97.5,84.5 Z"/></g>
<g><path style="opacity:1" fill="#eaeaea" d="M 148.5,84.5 C 150.167,84.5 151.833,84.5 153.5,84.5C 153.5,86.5 153.5,88.5 153.5,90.5C 155.833,90.5 158.167,90.5 160.5,90.5C 160.5,91.8333 160.5,93.1667 160.5,94.5C 158.167,94.5 155.833,94.5 153.5,94.5C 153.334,100.176 153.501,105.843 154,111.5C 155.523,113.62 157.356,113.953 159.5,112.5C 160.868,116.057 159.534,117.723 155.5,117.5C 151.92,117.089 149.753,115.089 149,111.5C 148.501,105.843 148.334,100.176 148.5,94.5C 147.167,94.5 145.833,94.5 144.5,94.5C 144.5,93.1667 144.5,91.8333 144.5,90.5C 145.833,90.5 147.167,90.5 148.5,90.5C 148.5,88.5 148.5,86.5 148.5,84.5 Z"/></g>
<g><path style="opacity:1" fill="#121213" d="M 55.5,87.5 C 56.4972,87.4701 57.1639,87.9701 57.5,89C 58.9748,93.7592 60.6415,98.4259 62.5,103C 58.8484,103.499 55.1817,103.665 51.5,103.5C 52.6272,98.1177 53.9606,92.7843 55.5,87.5 Z"/></g>
<g><path style="opacity:1" fill="#868a81" d="M 97.5,84.5 C 97.5,86.8333 97.5,89.1667 97.5,91.5C 96.1667,91.5 94.8333,91.5 93.5,91.5C 94.209,90.596 95.209,90.2627 96.5,90.5C 96.2053,88.2646 96.5386,86.2646 97.5,84.5 Z"/></g>
<g><path style="opacity:1" fill="#e7e7e7" d="M 77.5,90.5 C 79.9115,90.1367 81.4115,91.1367 82,93.5C 84.2103,90.7104 87.0437,89.877 90.5,91C 91.3802,92.3561 91.7135,93.8561 91.5,95.5C 89.1432,95.3367 86.8098,95.5034 84.5,96C 83.2986,96.9025 82.4652,98.0692 82,99.5C 81.5006,105.157 81.3339,110.824 81.5,116.5C 79.8333,116.5 78.1667,116.5 76.5,116.5C 76.1968,107.749 76.5301,99.0823 77.5,90.5 Z"/></g>
<g><path style="opacity:1" fill="#eaeaea" d="M 130.5,90.5 C 133.881,90.4595 137.214,90.7929 140.5,91.5C 140.5,92.8333 140.5,94.1667 140.5,95.5C 137.531,94.6713 134.531,94.5046 131.5,95C 128.936,97.276 129.27,99.276 132.5,101C 136.207,101.936 139.374,103.769 142,106.5C 142.587,113.585 139.254,117.251 132,117.5C 127.512,117.703 125.012,115.703 124.5,111.5C 127.156,112.158 129.822,112.825 132.5,113.5C 137.498,112.984 138.498,110.818 135.5,107C 131.483,105.969 128.317,103.802 126,100.5C 124.571,95.7833 126.071,92.45 130.5,90.5 Z"/></g>
<g><path style="opacity:1" fill="#ebeaea" d="M 169.5,90.5 C 173.257,90.0708 176.757,90.7375 180,92.5C 180.483,93.448 180.649,94.448 180.5,95.5C 177.201,94.6239 173.868,94.4572 170.5,95C 169.167,96.6667 169.167,98.3333 170.5,100C 174.133,101.37 177.467,103.204 180.5,105.5C 182.781,111.1 181.115,114.934 175.5,117C 171.756,117.929 168.256,117.429 165,115.5C 164.219,114.056 164.386,112.723 165.5,111.5C 168.678,113.586 172.012,113.92 175.5,112.5C 176.76,110.647 176.76,108.814 175.5,107C 171.278,105.974 167.778,103.807 165,100.5C 164.077,96.0165 165.577,92.6832 169.5,90.5 Z"/></g>
<g><path style="opacity:1" fill="#70736b" d="M 93.5,94.5 C 94.8333,94.5 96.1667,94.5 97.5,94.5C 97.5,100.167 97.5,105.833 97.5,111.5C 96.5119,106.36 96.1786,101.026 96.5,95.5C 95.209,95.7373 94.209,95.404 93.5,94.5 Z"/></g>
<g><path style="opacity:1" fill="#61645d" d="M 114.5,116.5 C 113.509,109.687 113.175,102.687 113.5,95.5C 109.833,95.5 106.167,95.5 102.5,95.5C 102.5,100.833 102.5,106.167 102.5,111.5C 101.511,106.025 101.178,100.358 101.5,94.5C 105.833,94.5 110.167,94.5 114.5,94.5C 114.5,101.833 114.5,109.167 114.5,116.5 Z"/></g>
<g><path style="opacity:0.778" fill="#757575" d="M 197.5,79.5 C 198.167,81.5 198.833,83.5 199.5,85.5C 199.5,94.8333 199.5,104.167 199.5,113.5C 198.833,115.5 198.167,117.5 197.5,119.5C 198.804,106.165 198.804,92.8319 197.5,79.5 Z"/></g>
<g><path style="opacity:0.951" fill="#767676" d="M -0.5,104.5 C 0.517503,109.984 1.18417,115.651 1.5,121.5C 0.833333,119.833 0.166667,118.167 -0.5,116.5C -0.5,112.5 -0.5,108.5 -0.5,104.5 Z"/></g>
<g><path style="opacity:0.475" fill="#909090" d="M 1.5,121.5 C 3.27907,125.595 4.6124,129.928 5.5,134.5C 3.1022,130.597 1.76887,126.264 1.5,121.5 Z"/></g>
<g><path style="opacity:0.659" fill="#818181" d="M 197.5,119.5 C 197.08,124.529 195.746,129.195 193.5,133.5C 194.231,128.562 195.565,123.895 197.5,119.5 Z"/></g>
<g><path style="opacity:0.447" fill="#878787" d="M 193.5,133.5 C 193.598,135.553 192.931,137.22 191.5,138.5C 191.402,136.447 192.069,134.78 193.5,133.5 Z"/></g>
</svg>
