<svg fill="none" width="198" height="198" version="1.1" viewBox="0 0 198 198" xmlns="http://www.w3.org/2000/svg">
 <g transform="matrix(5.5923 0 0 -9.3161 -.0033346 198.01)">
  <path d="m30.023 17.138c1.403-1.238 2.219-1.949 2.45-2.137 1.761-1.574 2.703-3.437 2.828-5.593-.02-.149-.145-.442-.375-.879-1.153-1.969-2.891-3.153-5.219-3.551 1.445.961 2.473 1.715 3.082 2.262 1.969 1.675 2.043 3.476.219 5.402-1.551 1.676-3.207 2.965-4.965 3.867-.293.188-.461.375-.504.563-.394.964-.699 1.867-.91 2.703 1.027-.692 2.16-1.571 3.394-2.637z" style="fill-rule:evenodd;fill:#dea190"/>
  <path d="m29.395 8.966c1.593-.437 2.535-.625 2.828-.562.293 0 .504.144.629.437.23.254-.45.555-2.043.91-1.067.297-3.172 1.082-6.317 2.36-2.804 1.214-4.879 2.679-6.219 4.398.457-.082.911.02 1.348.313.254.168.441.316.567.441l.316.187c.039.083.219.262.535.536l.375.312c.524.735 1.184 1.309 1.981 1.731 0 .207-.106.324-.317.343-1.215.063-2.418-.179-3.613-.722l-1.727-.723c-.168-.082-.336-.211-.504-.379 0-.039-.039-.062-.125-.062v-.125c0-.168-.019-.27-.062-.313-.211-.586-.66-.914-1.352-.976-.273-.082-.742-.164-1.414-.25-.23 0-.511.043-.847.125l-.25.125-7.164-2.891c.628-.418 2.113-.332 4.46.254 2.368.586 3.696.953 3.989 1.098l.816.378c3.164-1.824 6.211-3.457 9.145-4.902 1.281-.734 2.933-1.414 4.965-2.043zm-2.766 10.809c.211-.836.516-1.739.914-2.7.039-.191.207-.378.5-.566 1.762-.902 3.418-2.191 4.965-3.867 1.824-1.926 1.75-3.727-.219-5.402-.605-.547-1.633-1.297-3.078-2.262l-1.539-.125c-.59 0-1.488.043-2.703.125-4.024.437-7.707 1.75-11.059 3.926-1.738-.438-3.519-.563-5.344-.375-2.281.273-4.218 1.035-5.812 2.293-1.301.878-1.508 1.957-.629 3.234 1.926.523 3.645 1.289 5.152 2.293.778.484 2.024.851 3.739 1.101 1.8.25 2.89.598 3.269 1.04.481.418 1.235.91 2.262 1.476.922.481 2.441.891 4.555 1.223 1.843.25 3.519-.219 5.027-1.414z" style="fill-rule:evenodd;fill:#b4353b"/>
  <path d="m30.809 9.751c1.589-.355 2.273-.66 2.043-.91-.125-.293-.336-.441-.629-.441-.293-.063-1.235.129-2.828.566-2.032.629-3.684 1.309-4.965 2.043-2.93 1.445-5.981 3.078-9.141 4.902l-.816-.378c-.297-.145-1.625-.512-3.993-1.098-2.347-.586-3.832-.672-4.46-.254l7.164 2.891.25-.125c.336-.082.617-.125.847-.125.672.082 1.141.168 1.414.25.692.066 1.145.39 1.352.976.043.043.062.145.062.313v.129c.086 0 .125.019.125.062.168.164.336.293.504.375l1.727.723c1.195.547 2.398.785 3.613.722.211-.019.317-.136.317-.343-.797-.422-1.457-.996-1.981-1.731l-.375-.312c-.316-.274-.496-.45-.535-.536l-.316-.187c-.126-.125-.313-.273-.567-.438-.437-.296-.891-.398-1.348-.316 1.34-1.719 3.415-3.184 6.219-4.398 3.145-1.278 5.25-2.067 6.317-2.36z" style="fill-rule:evenodd;fill:#e0d0bd"/>
  <path d="m3.254 10.822c1.59-1.258 3.527-2.024 5.812-2.293 1.821-.192 3.602-.063 5.34.375 3.352-2.18 7.039-3.489 11.063-3.926-.903.039-2.106.144-3.614.312-2.222.211-4.234.45-6.035.723l-5.593.977c-1.883.394-3.645.835-5.278 1.316-2.137.547-3.664 1.73-4.586 3.551v.187c.125 1.153.879 1.824 2.262 2.012-.879-1.277-.672-2.356.629-3.234z" style="fill-rule:evenodd;fill:#dea190"/>
  <path d="m25.469 4.978c1.215-.086 2.113-.125 2.699-.125l1.543.125c2.324.398 4.062 1.582 5.215 3.551.23.437.355.73.375.879.23-1.782.086-3.645-.438-5.594-.504-1.739-1.613-2.828-3.332-3.27-1.801-.418-3.613-.594-5.433-.531-1.407.043-3.457.062-6.16.062-1.926-.125-3.887-.011-5.876.344-1.992.336-4.066.891-6.222 1.668l-6 2.387c-.504.23-.867.629-1.102 1.195-.836 1.969-.961 4.031-.375 6.188.922-1.821 2.449-3.004 4.586-3.551 1.633-.481 3.395-.922 5.278-1.316l5.593-.977c1.801-.273 3.813-.512 6.035-.723 1.508-.168 2.711-.273 3.614-.312z" style="fill-rule:evenodd;fill:#c49681"/>
 </g>
</svg>
