<!DOCTYPE svg PUBLIC "-//W3C//DTD SVG 20010904//EN" "http://www.w3.org/TR/2001/REC-SVG-20010904/DTD/svg10.dtd"[]><svg version="1.0" xmlns="http://www.w3.org/2000/svg" width="200" height="200" viewBox="0 0 200.000000 200.000000" preserveAspectRatio="xMidYMid meet"><g transform="translate(0.000000,200.000000) scale(0.100000,-0.100000)" fill="#000000" stroke="none"><path d="M983 1855 c-8 -14 -21 -19 -48 -18 l-37 1 29 -31 c29 -32 18 -29 -32 8 -16 12 -40 25 -52 29 -31 10 -85 -18 -127 -64 -43 -48 -79 -55 -112 -23 -12 13 -38 19 -88 21 -65 4 -73 2 -99 -22 -15 -14 -33 -27 -40 -27 -7 -1 4 -5 23 -8 l35 -6 -55 -20 c-42 -15 -74 -39 -137 -100 -93 -90 -98 -106 -63 -184 11 -24 20 -65 20 -92 0 -44 3 -51 26 -59 23 -9 24 -13 13 -26 -12 -15 -15 -14 -30 5 -17 21 -17 21 -42 -22 -13 -23 -37 -73 -52 -110 -25 -65 -27 -76 -23 -200 4 -161 21 -206 86 -225 45 -14 70 -36 51 -47 -6 -4 -31 7 -56 24 -25 18 -47 30 -50 27 -10 -10 18 -74 42 -96 14 -13 25 -29 25 -35 0 -19 43 -53 75 -60 58 -12 105 -28 105 -36 0 -21 -67 -23 -113 -4 -29 12 -20 -21 12 -45 35 -24 104 -50 135 -50 25 0 89 -43 79 -53 -3 -4 -17 -7 -30 -7 -59 0 20 -54 125 -86 57 -17 117 -12 149 11 23 18 43 19 43 1 0 -7 -15 -19 -32 -26 -80 -29 -76 -25 -41 -43 40 -21 72 -21 101 -1 21 14 24 14 48 -5 15 -12 33 -21 41 -21 16 0 58 -25 91 -54 l22 -19 24 22 c13 12 53 37 89 55 56 27 68 30 83 19 25 -18 75 -16 103 6 l24 18 -47 19 c-25 10 -46 25 -46 32 0 17 16 15 47 -5 42 -28 126 -23 200 11 85 39 94 52 43 60 -67 11 -120 36 -120 57 0 27 15 24 28 -6 16 -35 65 -37 111 -5 14 10 46 21 71 25 52 7 125 46 140 75 12 22 1 27 -17 9 -11 -11 -151 -14 -161 -4 -3 3 13 5 35 5 24 0 50 8 64 18 13 11 39 22 58 26 40 7 71 32 71 56 0 9 9 25 21 36 35 31 67 106 38 88 -7 -4 -10 -3 -7 2 58 121 56 115 56 234 0 63 -2 109 -5 102 -3 -6 -9 -10 -14 -6 -5 3 -9 -2 -9 -10 0 -8 -4 -17 -9 -20 -5 -3 -2 20 6 52 14 53 14 60 -3 97 l-19 40 -3 -54 c-2 -35 -10 -63 -23 -79 -10 -14 -19 -23 -20 -21 -7 34 -10 79 -9 149 1 75 0 83 -12 66 -14 -17 -15 -17 -31 8 l-17 26 28 -6 c28 -6 29 -4 24 26 -3 20 0 35 8 40 8 5 9 13 3 25 -7 12 -4 33 9 70 l20 52 -26 49 c-34 65 -63 98 -106 119 l-35 18 20 -23 c11 -13 14 -20 8 -16 -9 5 -13 0 -13 -13 0 -12 6 -20 12 -19 7 2 14 -7 16 -20 2 -12 8 -20 13 -16 13 8 36 -12 54 -49 16 -31 11 -53 -6 -27 -6 10 -7 1 -3 -28 6 -39 4 -44 -15 -49 -20 -5 -20 -7 -5 -18 25 -17 11 -49 -18 -42 -12 4 -27 2 -32 -2 -7 -6 -24 2 -44 19 l-34 28 51 13 c43 11 48 14 33 25 -14 10 -14 16 -4 38 17 37 15 51 -3 36 -18 -15 -17 -15 -32 27 -9 27 -8 33 6 39 14 5 14 7 1 12 -8 3 -39 26 -69 51 l-54 46 29 7 c16 4 -9 5 -56 3 -47 -3 -97 -7 -112 -11 -42 -10 -35 14 10 33 26 11 54 14 97 10 78 -7 107 8 33 17 -36 5 -80 2 -128 -8 -41 -9 -75 -14 -77 -12 -2 2 10 14 27 26 41 29 32 36 -25 19 -34 -10 -45 -18 -45 -34 0 -37 -28 -65 -65 -65 -25 0 -46 11 -87 46 -64 54 -69 78 -16 82 29 2 43 -3 72 -28 20 -18 36 -38 36 -46 0 -20 30 -30 41 -13 11 17 12 70 1 84 -4 6 -15 16 -25 24 -17 13 -18 12 -12 -12 4 -15 5 -27 2 -27 -16 0 -108 53 -115 66 -6 11 -20 14 -46 12 -35 -3 -39 -7 -61 -58 l-24 -55 -3 75 c-2 62 -5 72 -15 55z m-99 -81 c26 -10 18 -26 -35 -71 -40 -35 -57 -43 -89 -43 l-39 0 22 25 c12 13 35 40 50 60 28 34 55 43 91 29z m-246 -53 c37 -27 60 -51 49 -51 -20 0 -117 55 -117 66 0 22 23 17 68 -15z m69 -13 c-3 -7 -5 -2 -5 12 0 14 2 19 5 13 2 -7 2 -19 0 -25z m348 -8 c18 -20 17 -20 -12 -20 -35 0 -44 7 -36 26 7 20 27 17 48 -6z m-415 -30 c8 -5 11 -12 8 -16 -10 -9 -58 4 -58 16 0 13 30 13 50 0z m240 2 c0 -15 -62 -72 -78 -72 -11 0 -3 13 23 40 38 39 55 49 55 32z m300 -37 c26 -27 30 -35 16 -35 -20 0 -68 49 -60 61 7 12 6 13 44 -26z m-667 -40 c-15 -19 -34 -35 -40 -35 -7 0 -13 -4 -13 -10 0 -5 -7 -10 -15 -10 -12 0 -11 7 7 35 22 33 50 53 76 54 7 1 1 -14 -15 -34z m215 3 c21 -33 20 -48 -3 -48 -11 0 -35 48 -35 71 0 19 19 7 38 -23z m713 13 c13 -10 28 -18 34 -17 5 0 11 -7 13 -18 3 -11 0 -16 -7 -12 -6 4 -11 3 -11 -3 0 -10 -25 -9 -36 2 -4 3 -16 0 -28 -8 -11 -8 -30 -14 -41 -14 -13 1 -15 3 -5 5 20 6 43 42 35 54 -12 19 -45 11 -45 -10 0 -11 5 -20 12 -20 6 0 8 -3 5 -6 -4 -4 -14 -1 -24 7 -15 13 -16 12 -9 -6 5 -15 4 -17 -4 -9 -14 14 6 61 29 67 35 10 59 6 82 -12z m114 5 c10 -7 26 -11 35 -9 10 3 23 -5 33 -20 15 -24 15 -25 -5 -30 -15 -4 -36 6 -71 33 -36 29 -44 40 -30 40 10 0 28 -6 38 -14z m-261 -38 c-5 -42 -3 -45 56 -105 57 -58 63 -61 87 -50 21 9 27 8 38 -6 12 -16 14 -15 24 14 12 34 60 103 67 96 2 -2 -11 -30 -31 -62 -19 -33 -35 -64 -34 -69 0 -6 5 -1 11 11 12 24 37 38 49 26 4 -4 9 -27 10 -50 3 -33 -1 -46 -16 -58 -20 -15 -20 -15 0 -31 19 -14 20 -13 23 10 4 29 23 34 42 11 7 -8 16 -12 21 -9 16 10 31 -7 19 -21 -9 -10 -7 -20 4 -37 8 -13 22 -48 30 -78 8 -30 19 -54 25 -52 6 1 11 -11 11 -28 0 -16 -4 -30 -10 -30 -5 0 -10 5 -10 11 0 5 -4 7 -10 4 -6 -4 -11 8 -11 27 -1 24 -3 27 -6 10 -2 -12 -9 -20 -14 -17 -5 4 -9 0 -9 -7 0 -7 -20 17 -45 54 -24 36 -67 86 -95 110 -28 23 -63 63 -77 88 -34 59 -54 81 -65 74 -4 -3 -8 -2 -7 3 3 20 -2 32 -13 29 -7 -1 -9 -1 -5 2 5 2 -2 15 -14 28 -12 13 -26 21 -31 18 -5 -3 -7 0 -6 8 2 7 -3 12 -10 10 -8 -1 -11 2 -7 8 3 5 3 10 -2 10 -4 0 -19 10 -33 21 -14 11 -19 18 -12 14 6 -3 12 -1 12 6 0 14 29 49 41 49 5 0 6 -19 3 -42z m-626 7 c-3 -3 -9 2 -12 12 -6 14 -5 15 5 6 7 -7 10 -15 7 -18z m481 -5 c11 -7 5 -8 -19 -3 -19 3 -42 10 -50 14 -10 6 -3 7 19 4 19 -3 41 -10 50 -15z m231 10 c0 -5 -4 -10 -10 -10 -5 0 -10 5 -10 10 0 6 5 10 10 10 6 0 10 -4 10 -10z m-699 -27 c-12 -20 -14 -14 -5 12 4 9 9 14 11 11 3 -2 0 -13 -6 -23z m-353 -19 c2 -1 -4 -17 -14 -36 l-17 -33 -13 30 c-10 23 -13 25 -13 10 -1 -11 6 -33 15 -50 14 -28 14 -31 -7 -48 -38 -31 -54 -18 -54 40 1 50 26 100 45 88 4 -3 11 2 14 11 5 14 9 14 24 3 9 -7 18 -14 20 -15z m52 -19 c10 -12 8 -18 -11 -35 -39 -32 -48 -25 -29 24 11 30 22 33 40 11z m880 5 c0 -5 -2 -10 -4 -10 -3 0 -8 5 -11 10 -3 6 -1 10 4 10 6 0 11 -4 11 -10z m388 -19 c6 -16 8 -32 5 -35 -3 -3 0 -12 7 -21 23 -28 -3 -16 -37 17 -45 43 -43 58 9 67 3 0 11 -12 16 -28z m-623 1 c-3 -3 -11 0 -18 7 -9 10 -8 11 6 5 10 -3 15 -9 12 -12z m75 -26 c0 -3 -4 -8 -10 -11 -5 -3 -10 -1 -10 4 0 6 5 11 10 11 6 0 10 -2 10 -4z m505 -26 c27 -30 12 -34 -15 -5 -13 14 -19 25 -13 25 5 0 18 -9 28 -20z m-582 3 c-7 -2 -19 -2 -25 0 -7 3 -2 5 12 5 14 0 19 -2 13 -5z m-556 -48 c16 -33 15 -36 -2 -55 -10 -11 -21 -17 -25 -15 -11 7 -21 70 -14 89 10 25 23 19 41 -19z m785 -25 c4 0 8 -4 8 -8 0 -19 -29 -7 -34 14 -3 12 -8 30 -11 41 -3 10 2 3 11 -14 10 -18 21 -33 26 -33z m-662 25 c0 -7 -40 -87 -47 -95 -10 -11 -18 22 -15 60 4 37 7 40 33 40 16 0 29 -2 29 -5z m520 -39 c0 -2 -7 -7 -16 -10 -8 -3 -12 -2 -9 4 6 10 25 14 25 6z m-613 -63 c-3 -10 -5 -4 -5 12 0 17 2 24 5 18 2 -7 2 -21 0 -30z m91 -70 c-7 -14 -19 -28 -26 -31 -9 -3 -7 9 7 37 12 22 22 55 23 73 1 27 2 26 5 -9 2 -24 -2 -55 -9 -70z m508 69 c-5 -4 -66 26 -66 33 0 3 16 -3 35 -12 19 -9 33 -18 31 -21z m681 6 c-3 -7 -5 -2 -5 12 0 14 2 19 5 13 2 -7 2 -19 0 -25z m-1330 -65 c-3 -10 -5 -2 -5 17 0 19 2 27 5 18 2 -10 2 -26 0 -35z m1041 -25 c29 -32 25 -66 -7 -47 -27 17 -51 62 -51 95 l0 28 17 -24 c9 -14 27 -37 41 -52z m-208 47 c7 -8 31 -16 54 -17 l41 -1 -38 -4 c-24 -3 -47 2 -61 11 -13 8 -43 16 -67 19 l-44 4 51 1 c35 1 55 -3 64 -13z m-910 -34 c0 -15 -7 -36 -15 -47 -13 -18 -14 -17 -15 18 0 43 9 70 21 62 5 -3 9 -18 9 -33z m-84 -7 c-3 -9 -6 -18 -6 -20 0 -2 -7 -4 -15 -4 -18 0 -19 12 -3 28 17 17 31 15 24 -4z m951 -6 c-3 -8 -6 -5 -6 6 -1 11 2 17 5 13 3 -3 4 -12 1 -19z m493 12 c0 -5 -4 -10 -10 -10 -5 0 -10 5 -10 10 0 6 5 10 10 10 6 0 10 -4 10 -10z m-370 -55 c-7 -8 -16 -15 -21 -15 -5 0 -1 9 8 20 9 11 19 17 21 15 3 -3 -1 -11 -8 -20z m-309 -2 c13 -16 12 -17 -3 -4 -10 7 -18 15 -18 17 0 8 8 3 21 -13z m-777 1 c27 -10 18 -28 -19 -40 -44 -14 -51 -7 -23 23 24 26 21 25 42 17z m832 -21 c-3 -8 -6 -32 -6 -54 0 -61 -18 -46 -22 19 -3 53 -1 58 15 54 11 -3 16 -10 13 -19z m-201 -3 c-4 -13 0 -31 9 -45 9 -14 14 -25 11 -25 -13 0 -36 51 -30 70 3 11 9 20 11 20 3 0 2 -9 -1 -20z m851 6 c14 -11 16 -18 8 -26 -15 -15 -54 4 -54 25 0 19 21 19 46 1z m-1538 -119 c-9 -63 -48 5 -47 83 l0 35 25 -48 c14 -27 24 -58 22 -70z m271 -82 c0 -28 8 -77 16 -108 8 -32 15 -70 15 -85 0 -33 31 -102 54 -121 15 -13 14 -15 -21 -27 -21 -8 -40 -14 -43 -14 -8 0 -28 77 -34 134 -8 62 -19 76 -67 76 -46 0 -60 17 -23 26 15 4 39 21 55 38 26 29 27 35 22 93 -7 71 5 118 17 68 4 -16 8 -53 9 -80z m876 85 c-3 -5 -11 -10 -16 -10 -6 0 -7 5 -4 10 3 6 11 10 16 10 6 0 7 -4 4 -10z m180 -56 c0 -21 -5 -39 -12 -41 -9 -3 -13 9 -13 40 0 44 9 65 19 48 3 -5 6 -26 6 -47z m116 20 c9 -11 2 -9 -18 6 -18 13 -33 25 -33 27 0 8 38 -17 51 -33z m-572 0 c17 -14 31 -35 31 -47 0 -20 -2 -19 -20 8 -10 16 -30 37 -42 47 -13 10 -18 18 -11 18 6 0 25 -12 42 -26z m562 -81 c13 -16 12 -17 -3 -4 -17 13 -22 21 -14 21 2 0 10 -8 17 -17z m-121 -13 c0 -20 58 -68 101 -83 l44 -15 -62 -1 c-62 -1 -63 -1 -78 -37 -8 -20 -15 -48 -15 -62 0 -14 -5 -41 -12 -59 -10 -28 -9 -38 6 -63 21 -36 11 -39 -16 -5 -22 28 -38 32 -38 9 0 -8 5 -12 10 -9 6 4 10 -6 10 -24 0 -16 -4 -33 -10 -36 -5 -3 -10 -2 -10 4 0 6 -7 8 -15 5 -9 -4 -15 -1 -15 7 0 24 21 93 41 135 11 24 19 58 17 80 -3 44 22 164 34 164 4 0 8 -4 8 -10z m357 -87 c-9 -15 -30 -41 -48 -58 l-33 -30 30 36 c16 19 36 50 44 69 8 18 16 28 18 22 2 -6 -3 -23 -11 -39z m-686 -96 c-10 -9 -11 -8 -5 6 3 10 9 15 12 12 3 -3 0 -11 -7 -18z m-764 -59 c-3 -7 -5 -2 -5 12 0 14 2 19 5 13 2 -7 2 -19 0 -25z m1393 -7 c-11 -21 -50 -30 -50 -11 0 9 52 41 58 35 2 -2 -1 -13 -8 -24z m-260 -50 c-1 -10 -6 -7 -15 9 -19 33 -18 50 0 26 8 -11 15 -27 15 -35z m-815 -123 c35 -25 45 -38 45 -59 0 -15 -5 -31 -10 -34 -15 -9 -59 22 -69 48 -13 35 -22 77 -16 77 2 0 25 -14 50 -32z m-99 -127 c-5 -8 -83 -31 -105 -31 -15 0 -14 27 2 33 21 9 108 7 103 -2z m524 -63 c0 -13 0 -14 -29 32 l-23 35 26 -28 c14 -15 26 -33 26 -39z m166 -14 c38 -19 63 -48 52 -60 -13 -13 -158 69 -158 89 0 9 67 -10 106 -29z m54 0 c25 -13 38 -23 30 -23 -8 0 -40 13 -70 30 -63 34 -28 28 40 -7z m-527 -56 l15 -23 20 25 21 25 1 -30 c0 -37 -16 -55 -47 -55 -24 0 -43 26 -43 59 0 27 14 27 33 -1z m222 -4 c10 -15 13 -15 27 0 21 21 38 20 38 -1 0 -23 -29 -53 -51 -53 -15 0 -49 45 -49 65 0 11 23 4 35 -11z" /><path d="M1439 1363 c5 -10 16 -27 25 -38 14 -18 15 -19 16 -2 0 27 -19 57 -36 57 -11 0 -12 -4 -5 -17z" /><path d="M1520 1286 c0 -13 31 -46 43 -46 4 0 2 11 -5 24 -12 28 -38 43 -38 22z" /><path d="M1610 1231 c0 -5 5 -13 10 -16 6 -3 10 -2 10 4 0 5 -4 13 -10 16 -5 3 -10 2 -10 -4z" /></g></svg>