<?xml version="1.0" standalone="yes"?>
<svg xmlns="http://www.w3.org/2000/svg" width="200" height="200">
<path style="fill:#c8d2eb; stroke:none;" d="M0 0L3 42L4 42L4 35L9 38C3.56372 25.7053 4 15.5191 4 2L99 1L99 23L100 23L101 2C122.665 2 148.927 -2.017 170 3L169 8C178.365 2.87547 183.974 2 195 2L195 9L196 9L196 7L197 7L198 27L199 27L199 0L0 0z"/>
<path style="fill:#5ab2d3; stroke:none;" d="M46 0L46 1L52 1L46 0M199 0L199 27L198 27L197 7L196 7L192 32L196 29L188 40L195 34C195 51.701 198.103 72.7681 194 90L195 90C199.923 73.3456 196 50.3909 196 33L197 33L197 49L198 49L198 45L199 45L199 154L198 154L198 150L197 150L197 152L196 152L195 115L186 122L186 102L185 102C185 113.203 180.679 127.859 195 129L197 175L198 175L198 171L199 171L199 200L200 200L200 59L200 19L199 0M87 1L87 2L99 2L87 1z"/>
<path style="fill:#b342a6; stroke:none;" d="M4 2L5 26L9 27L7 29C8.28862 31.129 9.24051 33 6 33L8 39L11 46L12 46L17 31L20 32L24 25L25 25L32 30L29 31L31 46L32 46L34 32L34 31L34 30C31.1727 25.9407 33.6301 21.3516 35 17L36 17L37 52L38 52C38 43.5612 36.9777 29.8222 39.4583 22C40.6652 18.1945 44.2674 15.7594 45.5278 12C46.8275 8.12331 46.0831 3.19438 42 2C44.0499 7.81226 42.5974 10.1279 38 14C37.6085 -2.65309 16.6966 2 4 2z"/>
<path style="fill:#292653; stroke:none;" d="M35 2L38 14C46.0988 9.16162 44.3446 2.11066 35 2M45 2L39.1443 23L40 59L42 59C42 50.3082 37.6814 20.2245 54.7145 24.1944C58.7351 25.1315 62.3605 29.9024 66 32L63 33C62.791 36.2772 61.0102 45.3358 65 46C50.1575 61.557 44 77.3513 44 99L43 99L41 90L40 129L39 129L36 17L35 17C33.3649 20.785 30.4078 26.8115 34 30L34 31L34 32C28.8825 36.4718 33.1091 47.9129 32.8349 53.8843C31.8148 76.0963 30.2896 100.072 34 122L30 123L30 106L29 106C29 120.224 27.5501 125.73 12 127L13 95L26 102C19.1506 85.8607 15.8296 71.2155 5 57L12 58C10.8313 49.1617 12.9116 40.9251 4 36C4 52.5505 1.34065 71.6039 4.14815 87.8951C4.7781 91.5505 8.26764 92.2764 9.97299 95.213C11.5842 97.9874 10.9998 101.926 11 105C11.0005 112.97 14.5469 127.811 4 129L4 166L14 163L5.02778 172.325L4 193L5 193C6.12692 182.53 18.7923 167.523 30 167L40 156L41 156L43 158L43 159L40 162L45 157L45 156L43 155L44 152L45 151L49 150L46 155L52 157L54 154L53 156L56 153L49 153L60 150L57 156L60 154L58 158L60 157L60 158L57 159L58 162L60 160L62 163L65 161L64 166L65 166L65 164L66 164L65 168L68 167L67 173L68 173L70 168L71 168L67 181L65 179L64 182C66.4358 182 65.615 182.786 65 185L67 184L67 185L66 189L67 189L67 187L68 187L67 197L69 195L70 195C73.8208 199.348 89.3117 196.999 95 197L95 189L96 189L96 197L100 197L100 179L99 179L99 186L98 186L98 180L97 180L97 187L96 187L96 179C92.442 181.312 92.0994 183.9 92 188L91 188L91 180L90 180L86 195L85 195L87 177L86 177L81 195L80 195L83 176L78 188L77 188L79 178L78 178L74 186L73 186L77.625 166.537L85 165.981L109 165L113 164L119 161L123 152L108 156L108 155C112.749 154.612 135.618 147.63 132 141L136 136L137 136L144 142L149 147C141.351 146.999 133.801 144.844 127 149L132 160L131 160L128 156L131 163L137 165L130 150L131 150L136 161L137 161L134 153L135 153L138 160L141 156L143 160L144 160L143 157L145 158L144 152L148 155L146 154L146 158L153 160L152 157L155 159L152 153L160 154L160 153L174 166L160 157L161 161L172 169L174 170L175 170L174 166L191 179L194 186L195 186L195 177C189.608 175.394 186.325 172.556 185 167L188 168L186 162L195 165L195 129C181.687 127.27 184.318 113.94 185.09 103C185.688 94.5114 192.876 93.7497 194.682 86.9568C198.796 71.4876 195 50.0411 195 34L187 40L186 57L191 57L174 100L184 96L184 127C179.406 125.706 170.775 125.106 168.028 120.722C164.323 114.81 167.968 103.558 167.999 97C168.097 76.7012 169.971 55.406 168.836 35.0903C168.609 31.0112 169.389 25.8711 168.195 21.9992C165.712 13.9434 160.73 11.9756 164 3C149.577 -0.837952 162.113 15.6135 163.262 20C164.254 23.7887 163.201 28.1214 163.155 32C162.787 62.9747 163.442 94.0612 161 125L160 125L161 33L156 2C148.039 2 139.909 0.0195923 139 10L137 10C136.087 -3.01067 110.518 2 101 2L100 24L99 24L99 14L95 13L95 11L99 10L99 2C89.6674 2 80.3323 1.93504 71 2C67.4284 2.02486 62.8454 0.979263 62 5C57.4555 0.709656 50.8972 2 45 2z"/>
<path style="fill:#b342a6; stroke:none;" d="M60 2L61 3L60 2z"/>
<path style="fill:#5ab2d3; stroke:none;" d="M61 2L61 5L62 5L61 2z"/>
<path style="fill:#b342a6; stroke:none;" d="M65 2L66 3L65 2M134 2L137 8L141 2L134 2M156 2L161 32L162 32C166.243 19.4671 154.851 12.7528 158 2L156 2M163 2L162.6 13L169 28L170 28C170.693 23.6416 171.99 21.0044 176 19L186 46L187 46L189 33L192 33L194 28L192 29L192 28C197.535 22.1376 195 9.65747 195 2C184.566 2 177.29 1.29256 169 8L170 3L163 2z"/>
<path style="fill:#5ab2d3; stroke:none;" d="M62 6L62 9L63 9L62 6M138 7L137 10L138 7M96 10L98 14L96 10z"/>
<path style="fill:#c8d2eb; stroke:none;" d="M39 16L40 17L39 16z"/>
<path style="fill:#292653; stroke:none;" d="M4 17L4 20L5 20L4 17z"/>
<path style="fill:#5ab2d3; stroke:none;" d="M100 18L100 23L101 23L100 18M0 19L1 50L2 50L2 45L4 46L0 19M172 27L168 31L166.519 78.8302L167 105L176 100L176 99L174 100L174 99L190 59L167 80C170.383 72.0099 182.247 59.3506 191 58L191 57L186 57C186 43.7072 182.058 30.8569 176 19C172.486 20.0573 168.542 23.691 172 27z"/>
<path style="fill:#292653; stroke:none;" d="M4 21C4.00059 26.3212 3.65699 30.3825 8 34L9 27L5 26L4 21z"/>
<path style="fill:#b342a6; stroke:none;" d="M55 23L56 24L55 23z"/>
<path style="fill:#5ab2d3; stroke:none;" d="M99 23L100 24L99 23M137 44L138 44L137 32C146.787 26.5044 146.916 27.4098 157 32C153.03 23.5178 142.644 20.3519 137.692 30.0039C135.75 33.7882 136.544 39.8747 137 44M25 24L27 26L25 24M43 31C51.9941 27.7958 52.9368 26.9055 62 31C57.7831 22.064 47.2666 22.072 43 31z"/>
<path style="fill:#292653; stroke:none;" d="M7 25L8 26L7 25z"/>
<path style="fill:#5ab2d3; stroke:none;" d="M24 25L20 32L17 31C15.4816 40.7361 9.29672 47.5869 12 58L10 57L32 79L30 30L24 25z"/>
<path style="fill:#c8d2eb; stroke:none;" d="M196 25L196 29L197 29L196 25M24 26L32 31L32 30L24 26M41 31L41 32C47.0162 38.3725 44 53.6234 44 62L42 61L44 80L45 80L51.8789 62L61.4005 48L63 31C52.2714 26.1247 51.6341 28.8475 41 31M137 32L139.013 45L154 72L155 72L159 58L155 61C155 53.0292 152.178 39.0985 158 33C149.619 26.184 145.428 24.9603 137 32z"/>
<path style="fill:#292653; stroke:none;" d="M194 26L192 29C194.259 28.5379 195.212 28.145 194 26z"/>
<path style="fill:#c8d2eb; stroke:none;" d="M0 27L0 44L1 44L0 27z"/>
<path style="fill:#5ab2d3; stroke:none;" d="M27 27L28 28L27 27M99 27L100 28L99 27z"/>
<path style="fill:#c8d2eb; stroke:none;" d="M168 31L172 27L168 31M99 28L99 31L100 31L99 28M198 28L199 29L198 28z"/>
<path style="fill:#b342a6; stroke:none;" d="M100 29L76 36L78 40L70 41L72 45C85.0385 39.5154 94.0028 32.0414 109 32L109 31L104 29L100 29M107.667 29.3333L108.333 29.6667L107.667 29.3333M167 29L167 32L168 32L167 29z"/>
<path style="fill:#292653; stroke:none;" d="M193 29L194 30L193 29z"/>
<path style="fill:#c8d2eb; stroke:none;" d="M195 29L187 40C190.481 37.5554 196.595 33.7909 195 29z"/>
<path style="fill:#b342a6; stroke:none;" d="M42 30L43 31L42 30M62 30L63 31L62 30z"/>
<path style="fill:#5ab2d3; stroke:none;" d="M98 30L99 31L98 30M104 30L104 31L108 31L104 30z"/>
<path style="fill:#c8d2eb; stroke:none;" d="M108 30L108 31L136 43C129.211 33.8032 118.503 31.9511 108 30z"/>
<path style="fill:#5ab2d3; stroke:none;" d="M110 30L111 31L110 30z"/>
<path style="fill:#b342a6; stroke:none;" d="M111 30L112 31L111 30z"/>
<path style="fill:#292653; stroke:none;" d="M190 30L191 31L190 30M192 30L193 31L192 30z"/>
<path style="fill:#c8d2eb; stroke:none;" d="M198.333 30.6667L198.667 31.3333L198.333 30.6667M38 31L39 32L38 31z"/>
<path style="fill:#b342a6; stroke:none;" d="M63 31L63 33L66 33L66 31L63 31M68.3333 31.6667L68.6667 32.3333L68.3333 31.6667M118 31L119 32L118 31M134 34L137 31L134 34z"/>
<path style="fill:#c8d2eb; stroke:none;" d="M161 33L164 33L163 31L161 33z"/>
<path style="fill:#5ab2d3; stroke:none;" d="M163 31L164 32L163 31z"/>
<path style="fill:#b342a6; stroke:none;" d="M169 31L170 32L169 31z"/>
<path style="fill:#292653; stroke:none;" d="M191 31L192 32L191 31z"/>
<path style="fill:#5ab2d3; stroke:none;" d="M5 32L6 33L5 32M41 32L42 33L41 32z"/>
<path style="fill:#292653; stroke:none;" d="M92 32L93 33L92 32z"/>
<path style="fill:#b342a6; stroke:none;" d="M112 32L112 33L115 33L112 32M120 32L121 33L120 32z"/>
<path style="fill:#5ab2d3; stroke:none;" d="M158.333 32.6667L158.667 33.3333L158.333 32.6667z"/>
<path style="fill:#292653; stroke:none;" d="M190 32L191 33L190 32z"/>
<path style="fill:#5ab2d3; stroke:none;" d="M42 33C42 40.2512 44.4784 53.0887 40 59L41 66L42 66L42 61L44 62L44 33L42 33M62 33L62 38L63 38L62 33z"/>
<path style="fill:#292653; stroke:none;" d="M86 33L86 35L88 33L86 33M89.6667 33.3333L90.3333 33.6667L89.6667 33.3333z"/>
<path style="fill:#b342a6; stroke:none;" d="M117 33L118 34L117 33z"/>
<path style="fill:#5ab2d3; stroke:none;" d="M122 33L123 34L122 33M161 33L162 38L163 38L163 33L161 33z"/>
<path style="fill:#292653; stroke:none;" d="M189.333 33.6667L189.667 34.3333L189.333 33.6667z"/>
<path style="fill:#c8d2eb; stroke:none;" d="M196 33C196 49.0449 199.792 70.4825 195.682 85.9568C194.387 90.8339 188.544 91.1676 186.603 95.3789C183.532 102.044 186 114.687 186 122L195 115L196 152L197 152L197 150L198 150L198 154L199 154L199 45L198 45L198 49L197 49L196 33M198.333 33.6667L198.667 34.3333L198.333 33.6667z"/>
<path style="fill:#292653; stroke:none;" d="M8 34L10 36L8 34M84 34L78 36L78 37C79.9601 37.6534 80.554 38 78 38L78 39L84 34z"/>
<path style="fill:#b342a6; stroke:none;" d="M120 34L121 35L120 34z"/>
<path style="fill:#5ab2d3; stroke:none;" d="M155 34L155 61C159.811 55.7076 157 41.0841 157 34L155 34z"/>
<path style="fill:#b342a6; stroke:none;" d="M4 35L5 36L4 35M123 35L124 36L123 35M127 35L128 36L127 35z"/>
<path style="fill:#292653; stroke:none;" d="M188 35L186 38L188 35z"/>
<path style="fill:#b342a6; stroke:none;" d="M5 36L6 37L5 36M125 36L126 37L125 36z"/>
<path style="fill:#5ab2d3; stroke:none;" d="M188 36L189 37L188 36z"/>
<path style="fill:#b342a6; stroke:none;" d="M6 37L7 38L6 37z"/>
<path style="fill:#292653; stroke:none;" d="M10 37L11 38L10 37z"/>
<path style="fill:#b342a6; stroke:none;" d="M75 37L76 38L75 37M127 37L128 38L127 37M130 37L131 38L130 37z"/>
<path style="fill:#c8d2eb; stroke:none;" d="M161 37L161 95L162 95L162.86 52.2855L161 37z"/>
<path style="fill:#5ab2d3; stroke:none;" d="M187 37L188 38L187 37z"/>
<path style="fill:#c8d2eb; stroke:none;" d="M198.333 37.6667L198.667 38.3333L198.333 37.6667z"/>
<path style="fill:#b342a6; stroke:none;" d="M129 38L130 39L129 38z"/>
<path style="fill:#c8d2eb; stroke:none;" d="M38 39L39 105L40 105L40 62L38 39z"/>
<path style="fill:#5ab2d3; stroke:none;" d="M39 39L39 48L40 48L39 39z"/>
<path style="fill:#b342a6; stroke:none;" d="M75 39L76 40L75 39M130 39L131 40L130 39M168 39L168 44L169 44L168 39z"/>
<path style="fill:#5ab2d3; stroke:none;" d="M186 39L187 40L186 39M62 40L62 48L63 48L62 40z"/>
<path style="fill:#b342a6; stroke:none;" d="M100 41L100 42L111 41L100 41M132 40L133 41L132 40z"/>
<path style="fill:#292653; stroke:none;" d="M71 41L72 42L71 41z"/>
<path style="fill:#5ab2d3; stroke:none;" d="M110 41L111 42L110 41z"/>
<path style="fill:#c8d2eb; stroke:none;" d="M111 41L111 42C127.996 44.0824 140.923 56.5785 147 72C150.503 55.0648 124.493 41.5883 111 41z"/>
<path style="fill:#b342a6; stroke:none;" d="M116 41L117 42L116 41M133 41L134 42L133 41M135 41L136 42L135 41M69 42L70 43L69 42z"/>
<path style="fill:#292653; stroke:none;" d="M73 42L74 43L73 42z"/>
<path style="fill:#b342a6; stroke:none;" d="M97 42L98 43L97 42M91 48L91 49L121 45C111.989 39.6956 99.9187 44.5595 91 48M120 42L121 43L120 42M123 43L124 44L123 43M129 43L130 44L129 43M136 43L137 44L136 43z"/>
<path style="fill:#c8d2eb; stroke:none;" d="M198 43L199 44L198 43z"/>
<path style="fill:#b342a6; stroke:none;" d="M41 44L41 47L42 47L41 44M125 44L126 45L125 44z"/>
<path style="fill:#5ab2d3; stroke:none;" d="M129 44L130 45L129 44z"/>
<path style="fill:#b342a6; stroke:none;" d="M137 44L138 45L137 44z"/>
<path style="fill:#c8d2eb; stroke:none;" d="M2 45L2 50L1 50L1 46L0 46L0 149L1 149L1 147L2 147L0 200L151 200L151 199L148 199L148 198L151 198L150 195L157 195L157 194L150 194L150 193L151 184L154 186L153 182L161 187L153.427 178.424L149.769 168.725L134 164C134.945 166.834 138.597 174.149 134 173L133 194L129 194L129 195L134 195L134 197L60 197L60 196L66 195L66 194L61 194L66 174L65 174L63 176L64 168L62 169L63 166C49.2776 163.942 41.5622 173.566 38 186L45 181L46 194L41 194L41 195L46 196L46 197L4 197L4.34799 172.174L14 163L4 168C-0.266793 150.078 4 129.273 4 111L5 111L9 119L10 119C10 108.998 13.4875 95.0499 3 90L3.77006 57.8302L2 45z"/>
<path style="fill:#b342a6; stroke:none;" d="M65 45L68 47L65 45M71 45L72 46L71 45M121 45L121 46L128 49L121 45z"/>
<path style="fill:#5ab2d3; stroke:none;" d="M127 45L128 46L127 45M131 45L132 46L131 45z"/>
<path style="fill:#b342a6; stroke:none;" d="M138 45L139 46L138 45M64 46L63 48L65 48L64 46M70 46L71 47L70 46M132 46L133 47L132 46M139 46L140 47L139 46M69 47L70 48L69 47M140 47L141 48L140 47M62 48L63 49L62 48M68 48L69 49L68 48M141 48L142 49L141 48M67 49L68 50L67 49M88 51L91 49L88 51M128 49L128 50L132 51L128 49M133 49L134 50L133 49M142 49L143 50L142 49M61 50L61 54L62 54L63 50L61 50M66 50L64 54L66 50M134 50L135 51L134 50M86.6667 51.3333L87.3333 51.6667L86.6667 51.3333z"/>
<path style="fill:#5ab2d3; stroke:none;" d="M101 51L101 52L105 52L101 51M111 51C107.373 53.7513 102.229 53.4085 98 55.3133C87.3151 60.126 79.112 68.6264 76 80L77 80C83.6289 64.0822 96.5749 54.0481 114 54L113 51L111 51z"/>
<path style="fill:#b342a6; stroke:none;" d="M132 51L135 53L132 51z"/>
<path style="fill:#5ab2d3; stroke:none;" d="M135 51L136 52L135 51M162 51L163 52L162 51z"/>
<path style="fill:#c8d2eb; stroke:none;" d="M31 52L33 54L33 52L31 52z"/>
<path style="fill:#b342a6; stroke:none;" d="M33 52L32 55L33 52z"/>
<path style="fill:#5ab2d3; stroke:none;" d="M37.3333 52.6667L37.6667 53.3333L37.3333 52.6667z"/>
<path style="fill:#b342a6; stroke:none;" d="M85 52L86 53L85 52z"/>
<path style="fill:#5ab2d3; stroke:none;" d="M92 55L92 56L100 53L92 55z"/>
<path style="fill:#b342a6; stroke:none;" d="M106 52L106 53L111 53L106 52z"/>
<path style="fill:#5ab2d3; stroke:none;" d="M136 52L137 53L136 52z"/>
<path style="fill:#b342a6; stroke:none;" d="M144 52L145 53L144 52z"/>
<path style="fill:#5ab2d3; stroke:none;" d="M163 52L163 57L164 57L163 52z"/>
<path style="fill:#b342a6; stroke:none;" d="M57 53L58 54L57 53M82 55L85 53L82 55M101.667 53.3333L102.333 53.6667L101.667 53.3333z"/>
<path style="fill:#c8d2eb; stroke:none;" d="M114.667 53.3333L115.333 53.6667L114.667 53.3333z"/>
<path style="fill:#5ab2d3; stroke:none;" d="M116 53L117 54L116 53z"/>
<path style="fill:#b342a6; stroke:none;" d="M117 53L114 56L125 60L125 59L125 56L121 58L123 55L119 57L121 54L116 56L117 53M135 53L136 54L135 53z"/>
<path style="fill:#5ab2d3; stroke:none;" d="M137 53L138 54L137 53z"/>
<path style="fill:#b342a6; stroke:none;" d="M145 53L146 54L145 53M63 54L64 55L63 54M99 54L100 55L99 54z"/>
<path style="fill:#292653; stroke:none;" d="M79 119C82.3028 115.844 76.6618 97.8402 77.0903 92C78.7376 69.5473 95.6874 60.4724 115 57L116 55C112.931 51.9313 103.792 54.736 100 56C81.0933 62.3022 75.9799 79.1208 73 97C71.7586 104.448 79.4984 117.006 79 119z"/>
<path style="fill:#c8d2eb; stroke:none;" d="M117 54L117 55L120 55L117 54z"/>
<path style="fill:#b342a6; stroke:none;" d="M136 54L137 55L136 54M138 54L139 55L138 54z"/>
<path style="fill:#5ab2d3; stroke:none;" d="M160 54L160 57L161 57L160 54z"/>
<path style="fill:#b342a6; stroke:none;" d="M62 55L61 58L62 55M81 55L82 56L81 55M91 55L92 56L91 55M96.6667 55.3333L97.3333 55.6667L96.6667 55.3333z"/>
<path style="fill:#292653; stroke:none;" d="M116 55L116 56L119 56L116 55z"/>
<path style="fill:#c8d2eb; stroke:none;" d="M120.667 55.3333L121.333 55.6667L120.667 55.3333z"/>
<path style="fill:#b342a6; stroke:none;" d="M137 55L138 56L137 55M139 55L140 56L139 55M146 55L147 56L146 55z"/>
<path style="fill:#5ab2d3; stroke:none;" d="M3.33333 56.6667L3.66667 57.3333L3.33333 56.6667M8 56L9 57L8 56z"/>
<path style="fill:#b342a6; stroke:none;" d="M80 56L81 57L80 56M94.6667 56.3333L95.3333 56.6667L94.6667 56.3333z"/>
<path style="fill:#292653; stroke:none;" d="M119.667 56.3333L120.333 56.6667L119.667 56.3333z"/>
<path style="fill:#c8d2eb; stroke:none;" d="M122.667 56.3333L123.333 56.6667L122.667 56.3333M5 57C11.5913 66.3571 23.5591 79.1311 34 84C31.458 74.9437 14.5837 57.7225 5 57z"/>
<path style="fill:#b342a6; stroke:none;" d="M54 57L55 58L54 57M79 57L80 58L79 57M92.6667 57.3333L93.3333 57.6667L92.6667 57.3333z"/>
<path style="fill:#5ab2d3; stroke:none;" d="M82 119L85 117L83 120L83 121C93.8534 134.216 109.009 137.708 124 129L122 126L125 125L124 127C127.495 124.502 129.813 122.406 130 118L133 120L134 118L132 115L135 116C140.815 103.565 142.256 88.6914 136.215 76C133.97 71.2831 131.434 65.9481 126 65L125 60L119 57L118 57L116 59C115.533 56.2425 111.559 57.0874 109 57.3333C101.808 58.0245 95.4472 60.2481 90.0046 65.1389C75.4884 78.1835 72.8233 102.197 82 119z"/>
<path style="fill:#c8d2eb; stroke:none;" d="M117 57L116 59L118 59L117 57z"/>
<path style="fill:#292653; stroke:none;" d="M121.667 57.3333L122.333 57.6667L121.667 57.3333z"/>
<path style="fill:#c8d2eb; stroke:none;" d="M124 57L124 58L133 66L134 66L124 57z"/>
<path style="fill:#b342a6; stroke:none;" d="M138 57L139 58L138 57z"/>
<path style="fill:#5ab2d3; stroke:none;" d="M158 57L159 58L158 57z"/>
<path style="fill:#b342a6; stroke:none;" d="M163.333 57.6667L163.667 58.3333L163.333 57.6667M60 58L61 59L60 58M78 58L79 59L78 58M91 58L92 59L91 58z"/>
<path style="fill:#292653; stroke:none;" d="M119.667 58.3333L120.333 58.6667L119.667 58.3333M123.667 58.3333L124.333 58.6667L123.667 58.3333z"/>
<path style="fill:#b342a6; stroke:none;" d="M127 58L128 59L127 58M139 58L140 59L139 58M148 58L149 59L148 58z"/>
<path style="fill:#292653; stroke:none;" d="M184 58L185 59L184 58z"/>
<path style="fill:#c8d2eb; stroke:none;" d="M167 80L191 59C183.147 56.0666 168.816 73.0177 167 80z"/>
<path style="fill:#b342a6; stroke:none;" d="M6 59L7 60L6 59M59.3333 59.6667L59.6667 60.3333L59.3333 59.6667M77 59L78 60L77 59M88 61L91 59L88 61z"/>
<path style="fill:#292653; stroke:none;" d="M80 111L81 111C82.2765 96.7046 78.3894 86.0607 87.7886 73.0008C98.3153 58.3742 117.937 57.0358 129.532 71.0147C135.423 78.1174 136.377 86.2885 138 95C145.311 77.4133 122.54 56.8644 106 59.3009C80.1079 63.1151 77.3912 90.4646 80 111M125 59L132.211 70.0039L139.561 88L133 122C149.594 106.625 143.766 69.9382 125 59z"/>
<path style="fill:#5ab2d3; stroke:none;" d="M126 59L127 60L126 59z"/>
<path style="fill:#b342a6; stroke:none;" d="M140 59L141 60L140 59M142 59L143 60L142 59z"/>
<path style="fill:#5ab2d3; stroke:none;" d="M158 59L158 64L159 64L158 59M162 59L162 82L163 82L162 59M3 60L4 61L3 60z"/>
<path style="fill:#b342a6; stroke:none;" d="M7 60L8 61L7 60z"/>
<path style="fill:#5ab2d3; stroke:none;" d="M37 60L38 61L37 60z"/>
<path style="fill:#292653; stroke:none;" d="M40 60C40 67.0278 36.8302 84.6409 43 89C43 79.4212 44.0251 68.9476 40 60z"/>
<path style="fill:#5ab2d3; stroke:none;" d="M52 60L53 61L52 60z"/>
<path style="fill:#b342a6; stroke:none;" d="M56 60C51.1799 68.2599 47.7626 77.4168 47 87L48 87L48 84L49 84C48.9822 110.903 53.1977 148.975 87 155L87 154C46.8133 142.423 46.2942 96.6458 57 65L55 66L55 65L56 60M76 60L77 61L76 60z"/>
<path style="fill:#c8d2eb; stroke:none;" d="M120 60L120 61L124 63L124 62L120 60z"/>
<path style="fill:#5ab2d3; stroke:none;" d="M127 60L128 61L127 60z"/>
<path style="fill:#b342a6; stroke:none;" d="M141.333 60.6667L141.667 61.3333L141.333 60.6667M149 60L150 61L149 60M8 61L9 62L8 61M58 61L59 62L58 61M75 61L76 62L75 61M86 61L84 64L86 61z"/>
<path style="fill:#5ab2d3; stroke:none;" d="M120 61L121 62L120 61M129 61L130 62L129 61M160 61L160 84L161 84L160 61M3.33333 62.6667L3.66667 63.3333L3.33333 62.6667z"/>
<path style="fill:#b342a6; stroke:none;" d="M9 62L10 63L9 62z"/>
<path style="fill:#5ab2d3; stroke:none;" d="M51 62L52 63L51 62z"/>
<path style="fill:#b342a6; stroke:none;" d="M74 62L75 63L74 62z"/>
<path style="fill:#5ab2d3; stroke:none;" d="M122 62L123 63L122 62M130 62L131 63L130 62z"/>
<path style="fill:#b342a6; stroke:none;" d="M142.333 62.6667L142.667 63.3333L142.333 62.6667M144 62L145 63L144 62M150 62L151 63L150 62M10 63L11 64L10 63M57 63L58 64L57 63M73.3333 63.6667L73.6667 64.3333L73.3333 63.6667z"/>
<path style="fill:#c8d2eb; stroke:none;" d="M125 63L126 64L125 63z"/>
<path style="fill:#5ab2d3; stroke:none;" d="M131 63L132 64L131 63z"/>
<path style="fill:#b342a6; stroke:none;" d="M11 64L12 65L11 64z"/>
<path style="fill:#5ab2d3; stroke:none;" d="M50 64L51 65L50 64z"/>
<path style="fill:#c8d2eb; stroke:none;" d="M126 64L127 65L126 64z"/>
<path style="fill:#5ab2d3; stroke:none;" d="M132.333 64.6667L132.667 65.3333L132.333 64.6667z"/>
<path style="fill:#b342a6; stroke:none;" d="M143 64L144 65L143 64M145 64L146 65L145 64M151 64L152 65L151 64z"/>
<path style="fill:#5ab2d3; stroke:none;" d="M3 65L3 87L4 87L3 65z"/>
<path style="fill:#b342a6; stroke:none;" d="M12 65L13 66L12 65M72 65L73 66L72 65z"/>
<path style="fill:#c8d2eb; stroke:none;" d="M127 65L128 66L127 65z"/>
<path style="fill:#5ab2d3; stroke:none;" d="M134 65L143 88C143.755 79.5456 140.664 70.3791 134 65z"/>
<path style="fill:#b342a6; stroke:none;" d="M144.333 65.6667L144.667 66.3333L144.333 65.6667z"/>
<path style="fill:#5ab2d3; stroke:none;" d="M157 65L158 66L157 65z"/>
<path style="fill:#b342a6; stroke:none;" d="M13 66L14 67L13 66z"/>
<path style="fill:#5ab2d3; stroke:none;" d="M49 66L50 67L49 66z"/>
<path style="fill:#292653; stroke:none;" d="M54 66L50 80L51 80L54 66z"/>
<path style="fill:#b342a6; stroke:none;" d="M71 66L72 67L71 66z"/>
<path style="fill:#292653; stroke:none;" d="M98 70L100 74C94.9765 76.8382 92.0232 81.3474 91 87L130 88C127.368 76.9262 119.385 70.2425 108 70L108 69L113 69L112 66L98 70z"/>
<path style="fill:#c8d2eb; stroke:none;" d="M128 66L129 67L128 66z"/>
<path style="fill:#b342a6; stroke:none;" d="M135 66L136 67L135 66M146 66L147 67L146 66z"/>
<path style="fill:#5ab2d3; stroke:none;" d="M184 66L185 67L184 66z"/>
<path style="fill:#b342a6; stroke:none;" d="M14 67L16 69L14 67z"/>
<path style="fill:#5ab2d3; stroke:none;" d="M42 67L43 68L42 67z"/>
<path style="fill:#c8d2eb; stroke:none;" d="M113 67C114.246 71.2618 119.771 72.1913 122.981 75.1389C129.508 81.1301 132.36 90.3598 131 99C134.101 96.2873 132.632 91.6675 131.764 88C129.31 77.6366 123.051 70.429 113 67z"/>
<path style="fill:#b342a6; stroke:none;" d="M152 67L153 68L152 67z"/>
<path style="fill:#5ab2d3; stroke:none;" d="M156 67L156 80L157 80L156 67z"/>
<path style="fill:#b342a6; stroke:none;" d="M10 68L12 70L10 68z"/>
<path style="fill:#5ab2d3; stroke:none;" d="M14 68C16.9352 80.0755 21.9923 96.0241 29 106L34 107C30.8954 99.6732 33.539 92.4063 31.6821 85C29.9511 78.0961 19.9992 71.1082 14 68z"/>
<path style="fill:#b342a6; stroke:none;" d="M42 68L43 69L42 68M70 68L69 70L70 68M81 68L82 69L81 68M145.333 68.6667L145.667 69.3333L145.333 68.6667M147.333 68.6667L147.667 69.3333L147.333 68.6667z"/>
<path style="fill:#5ab2d3; stroke:none;" d="M43 69L43 89L41 87L40 87L40 91L43 93C44.9216 85.8857 46.5827 75.7409 43 69z"/>
<path style="fill:#b342a6; stroke:none;" d="M48 69L49 70L48 69M80 69L81 70L80 69z"/>
<path style="fill:#5ab2d3; stroke:none;" d="M108 69L108 70L113 70L108 69z"/>
<path style="fill:#b342a6; stroke:none;" d="M79 70L80 71L79 70z"/>
<path style="fill:#5ab2d3; stroke:none;" d="M114.667 70.3333L115.333 70.6667L114.667 70.3333z"/>
<path style="fill:#b342a6; stroke:none;" d="M146.333 70.6667L146.667 71.3333L146.333 70.6667M153 70L154 71L153 70M68 71L69 72L68 71M78.3333 71.6667L78.6667 72.3333L78.3333 71.6667z"/>
<path style="fill:#5ab2d3; stroke:none;" d="M117.667 71.3333L118.333 71.6667L117.667 71.3333z"/>
<path style="fill:#b342a6; stroke:none;" d="M148 71C146.163 79.5893 150.987 88.8666 149.561 98C144.91 127.781 121.905 145.241 93 144L93 145C97.3569 145.822 115.109 148.635 116 143C118.692 143.467 120.595 143.916 121 141C137.473 142.621 149.808 115.295 151.736 102C152.257 98.408 153.699 83.6166 150 83L151 77L150 77L150 79L149 79L150 74L148 75L148 74L149 72L148 71z"/>
<path style="fill:#292653; stroke:none;" d="M198 71L198 92L199 92L198 71z"/>
<path style="fill:#b342a6; stroke:none;" d="M47 72L48 73L47 72z"/>
<path style="fill:#5ab2d3; stroke:none;" d="M100 72L101 73L100 72M119 72L120 73L119 72z"/>
<path style="fill:#b342a6; stroke:none;" d="M154.333 72.6667L154.667 73.3333L154.333 72.6667M14 73L17 75L14 73M67 73L68 74L67 73M77 73L74 81L75 81L77 73z"/>
<path style="fill:#c8d2eb; stroke:none;" d="M96 119L97 118C84.9863 100.356 87.257 89.8715 99 73C82.2131 80.8946 82.9235 108.165 96 119z"/>
<path style="fill:#5ab2d3; stroke:none;" d="M99 73L100 74L99 73M121 73L122 74L121 73z"/>
<path style="fill:#c8d2eb; stroke:none;" d="M148.333 73.6667L148.667 74.3333L148.333 73.6667z"/>
<path style="fill:#5ab2d3; stroke:none;" d="M98 74L99 75L98 74M122 74L123 75L122 74z"/>
<path style="fill:#b342a6; stroke:none;" d="M46.3333 75.6667L46.6667 76.3333L46.3333 75.6667M66 75L67 76L66 75z"/>
<path style="fill:#c8d2eb; stroke:none;" d="M77 75L78 76L77 75z"/>
<path style="fill:#5ab2d3; stroke:none;" d="M123 75L124 76L123 75M124 76L125 77L124 76z"/>
<path style="fill:#c8d2eb; stroke:none;" d="M149 76L149 79L150 79L149 76z"/>
<path style="fill:#b342a6; stroke:none;" d="M155 76L155 79L156 79L155 76z"/>
<path style="fill:#5ab2d3; stroke:none;" d="M197 76L197 89L198 89L197 76z"/>
<path style="fill:#c8d2eb; stroke:none;" d="M76 77L77 78L76 77z"/>
<path style="fill:#5ab2d3; stroke:none;" d="M95 77L96 78L95 77M125 77L126 78L125 77z"/>
<path style="fill:#b342a6; stroke:none;" d="M65 78L66 79L65 78z"/>
<path style="fill:#5ab2d3; stroke:none;" d="M94 78L95 79L94 78M126 78L127 79L126 78z"/>
<path style="fill:#b342a6; stroke:none;" d="M32 79L33 80L32 79z"/>
<path style="fill:#5ab2d3; stroke:none;" d="M38 79L38 85L39 85L38 79z"/>
<path style="fill:#b342a6; stroke:none;" d="M45.3333 79.6667L45.6667 80.3333L45.3333 79.6667z"/>
<path style="fill:#c8d2eb; stroke:none;" d="M75 79L72 94L73 94L75 79z"/>
<path style="fill:#5ab2d3; stroke:none;" d="M93 79L94 80L93 79z"/>
<path style="fill:#b342a6; stroke:none;" d="M33 80L34 81L33 80M64 80L63 87L64 87L64 80z"/>
<path style="fill:#5ab2d3; stroke:none;" d="M127 80L128 81L127 80z"/>
<path style="fill:#292653; stroke:none;" d="M49 81L49 84L50 84L49 81z"/>
<path style="fill:#5ab2d3; stroke:none;" d="M75.3333 81.6667L75.6667 82.3333L75.3333 81.6667M92 81L93 82L92 81z"/>
<path style="fill:#b342a6; stroke:none;" d="M142 81L143 82L142 81z"/>
<path style="fill:#c8d2eb; stroke:none;" d="M150.333 81.6667L150.667 82.3333L150.333 81.6667z"/>
<path style="fill:#b342a6; stroke:none;" d="M73.3333 82.6667L73.6667 83.3333L73.3333 82.6667z"/>
<path style="fill:#5ab2d3; stroke:none;" d="M91.3333 82.6667L91.6667 83.3333L91.3333 82.6667M128 82L129 83L128 82M0 83L0 103L1 103C2.60771 97.5487 2.652 88.101 0 83z"/>
<path style="fill:#b342a6; stroke:none;" d="M32.6667 84.3333L33.3333 84.6667L32.6667 84.3333M44 84L45 85L44 84z"/>
<path style="fill:#5ab2d3; stroke:none;" d="M74 84L74 87L75 87L74 84M90 84L89 106L90 106L108 102L112 104L112 91L117 92L118 95L118 96C114.532 98.1694 111.68 101.169 116 104L115 102L118 103L117 101L121 102L121 101L119 100C122.268 99.4554 123.676 99.2972 123 102L126 101L125 103L129 103L124 94C128.013 92.9697 129.681 90.8569 131 87C121.307 87.9039 97.5471 91.2045 90 84M129.333 84.6667L129.667 85.3333L129.333 84.6667M37 85L37 88L38 88L37 85z"/>
<path style="fill:#b342a6; stroke:none;" d="M143 85L144 86L143 85z"/>
<path style="fill:#5ab2d3; stroke:none;" d="M162 85L162 88L163 88L162 85z"/>
<path style="fill:#b342a6; stroke:none;" d="M72 86L72 89L73 89L72 86z"/>
<path style="fill:#5ab2d3; stroke:none;" d="M157 86L157 90L158 90L157 86z"/>
<path style="fill:#c8d2eb; stroke:none;" d="M143 87L144 90L143 87z"/>
<path style="fill:#5ab2d3; stroke:none;" d="M160 87L160 108L161 108C162.818 101.848 162.512 92.9313 160 87M3.33333 88.6667L3.66667 89.3333L3.33333 88.6667z"/>
<path style="fill:#b342a6; stroke:none;" d="M62 88C62 104.261 62.3998 126.996 79 136C77.9206 132.26 77.0371 129.662 73 129L63.6157 106L62 88z"/>
<path style="fill:#5ab2d3; stroke:none;" d="M38 89L38 103L39 103L38 89z"/>
<path style="fill:#b342a6; stroke:none;" d="M43 89L44 90L43 89z"/>
<path style="fill:#5ab2d3; stroke:none;" d="M73 89L73 94L70 94L70 98C74.0998 96.5584 74.5742 92.7876 73 89z"/>
<path style="fill:#292653; stroke:none;" d="M89 89L89 104L90 104L89 89M130 89L125 96L129 103C122.875 102.116 108.563 104.41 118 96L118 95L112 91L112 104L108 102L90 104C90.8422 109.594 93.0654 114.039 98 117C95.128 121.718 99.96 123.583 104 125C112.515 116.205 126.112 120.006 129 104L132 105L130 89z"/>
<path style="fill:#5ab2d3; stroke:none;" d="M142 89L144 102L143 96L145 89L142 89z"/>
<path style="fill:#b342a6; stroke:none;" d="M71 90L71 94L72 94L71 90z"/>
<path style="fill:#5ab2d3; stroke:none;" d="M88 91L88 103L89 103L88 91z"/>
<path style="fill:#292653; stroke:none;" d="M95 91L96 94L105 92L95 91M106 91L107 97L108 97L106 91z"/>
<path style="fill:#c8d2eb; stroke:none;" d="M114 91L115 92L114 91M127 91L126 93L127 91z"/>
<path style="fill:#5ab2d3; stroke:none;" d="M7 92L8 93L7 92z"/>
<path style="fill:#b342a6; stroke:none;" d="M43 92L43 99L44 99L43 92z"/>
<path style="fill:#c8d2eb; stroke:none;" d="M115.667 92.3333L116.333 92.6667L115.667 92.3333z"/>
<path style="fill:#5ab2d3; stroke:none;" d="M189 92L190 93L189 92M9 93L10 94L9 93z"/>
<path style="fill:#c8d2eb; stroke:none;" d="M117 93L120 95L120 94L117 93M125 93L124 95L125 93z"/>
<path style="fill:#5ab2d3; stroke:none;" d="M131 93L131 97L132 97L131 93M187 93L188 94L187 93z"/>
<path style="fill:#b342a6; stroke:none;" d="M10 94L11 95L10 94M125 94L126 95L125 94z"/>
<path style="fill:#5ab2d3; stroke:none;" d="M10 95L10 119L9 119L5 111L4 111L4 129L11 128L10 95M13 95L14 96L13 95z"/>
<path style="fill:#c8d2eb; stroke:none;" d="M13 96L13 121C17.0932 121.35 22.5816 125.282 26.5664 122.782C29.384 121.014 28.9843 116.856 28.9992 114C29.0559 103.132 23.3337 98.9826 13 96z"/>
<path style="fill:#5ab2d3; stroke:none;" d="M15 96L16 97L15 96z"/>
<path style="fill:#292653; stroke:none;" d="M138 96L133 115L134 115C136.449 109.74 140.055 101.733 138 96z"/>
<path style="fill:#c8d2eb; stroke:none;" d="M143 96L143 99L144 99L143 96z"/>
<path style="fill:#5ab2d3; stroke:none;" d="M181 96L182 97L181 96z"/>
<path style="fill:#c8d2eb; stroke:none;" d="M182 96C177.851 98.4468 171.657 100.581 168.603 104.39C158.8 116.616 173.806 122.832 183 124C183.074 115.078 186.417 104.308 182 96z"/>
<path style="fill:#5ab2d3; stroke:none;" d="M183 96L183 100L184 100L183 96M17 97L18 98L17 97z"/>
<path style="fill:#292653; stroke:none;" d="M95 100L102 99C99.1351 96.866 96.9862 96.9453 95 100z"/>
<path style="fill:#5ab2d3; stroke:none;" d="M179 97L180 98L179 97z"/>
<path style="fill:#b342a6; stroke:none;" d="M19 98L20 99L19 98M71 98L71 103L72 103L71 98z"/>
<path style="fill:#c8d2eb; stroke:none;" d="M72 98L74 113L75 113L72 98z"/>
<path style="fill:#5ab2d3; stroke:none;" d="M177 98L178 99L177 98z"/>
<path style="fill:#c8d2eb; stroke:none;" d="M119 100L119 101L124 101L119 100z"/>
<path style="fill:#b342a6; stroke:none;" d="M185 99L185 102L186 102L185 99M12 100L12 103L13 103L12 100z"/>
<path style="fill:#5ab2d3; stroke:none;" d="M22 100L23 101L22 100M73 100L73 106L74 106L73 100z"/>
<path style="fill:#c8d2eb; stroke:none;" d="M143 100L144 101L143 100z"/>
<path style="fill:#5ab2d3; stroke:none;" d="M24 101L25 102L24 101z"/>
<path style="fill:#c8d2eb; stroke:none;" d="M117.667 101.333L118.333 101.667L117.667 101.333z"/>
<path style="fill:#b342a6; stroke:none;" d="M122 101L123 102L122 101z"/>
<path style="fill:#c8d2eb; stroke:none;" d="M124.667 101.333L125.333 101.667L124.667 101.333z"/>
<path style="fill:#5ab2d3; stroke:none;" d="M130.333 101.667L130.667 102.333L130.333 101.667z"/>
<path style="fill:#c8d2eb; stroke:none;" d="M115.667 102.333L116.333 102.667L115.667 102.333M126.667 102.333L127.333 102.667L126.667 102.333M142.333 102.667L142.667 103.333L142.333 102.667z"/>
<path style="fill:#b342a6; stroke:none;" d="M143.333 102.667L143.667 103.333L143.333 102.667z"/>
<path style="fill:#5ab2d3; stroke:none;" d="M12 103L12 127L16 125L21 126L21 125L19 125L19 124L25 125L25 124L13 121L12 103z"/>
<path style="fill:#b342a6; stroke:none;" d="M44.3333 103.667L44.6667 104.333L44.3333 103.667M116 103L117 104L116 103z"/>
<path style="fill:#5ab2d3; stroke:none;" d="M141 103L142 108L143 108L141 103M129.333 104.667L129.667 105.333L129.333 104.667z"/>
<path style="fill:#c8d2eb; stroke:none;" d="M30 105L30 121C34.5117 117.812 34.9092 107.775 30 105z"/>
<path style="fill:#5ab2d3; stroke:none;" d="M39 105L38 110L39 105z"/>
<path style="fill:#b342a6; stroke:none;" d="M114 105L115 106L114 105M115 107L115 108L117 107L117 108L115 111L123 111L122 106L123 106L124 111L125 111L126 111L125 105L115 107z"/>
<path style="fill:#c8d2eb; stroke:none;" d="M130 105L117 119.75L105 125C118.062 124.115 125.875 117.459 132 106L130 105z"/>
<path style="fill:#b342a6; stroke:none;" d="M72.3333 106.667L72.6667 107.333L72.3333 106.667M94 106L94 107L94 112L98 106L94 106z"/>
<path style="fill:#c8d2eb; stroke:none;" d="M99 106L100 111L99 107L102 108L101 110L101 111L102 111L103 109L107 111L107 106L106 106L106 110L104 107L99 106z"/>
<path style="fill:#b342a6; stroke:none;" d="M101 106L102 107L101 106M103 106L104 107L103 106M107 106L107 111L108 111L107 106z"/>
<path style="fill:#c8d2eb; stroke:none;" d="M108 106L108 111L109 111L109 108L110 108L111 111L112 111L112 106L111 106L108 106z"/>
<path style="fill:#b342a6; stroke:none;" d="M109 106L110 107L109 106M112 106L112 111L113 111L112 106z"/>
<path style="fill:#c8d2eb; stroke:none;" d="M113 106L113 111L117 107L116 107L115 110L114 110L116 107L113 106M118 106L118 110L119 110L118 106M122 106L124 109L122 106M124.333 106.667L124.667 107.333L124.333 106.667z"/>
<path style="fill:#5ab2d3; stroke:none;" d="M90.3333 107.667L90.6667 108.333L90.3333 107.667z"/>
<path style="fill:#c8d2eb; stroke:none;" d="M94 107L94 111L95 111L96 107L94 107z"/>
<path style="fill:#b342a6; stroke:none;" d="M99 107L99 108L102 109L99 107M102 107L103 108L102 107M110 107L111 108L110 107z"/>
<path style="fill:#292653; stroke:none;" d="M114 107L114 110L116 109L116 108L114 107z"/>
<path style="fill:#5ab2d3; stroke:none;" d="M128 107L129 108L128 107z"/>
<path style="fill:#c8d2eb; stroke:none;" d="M141 107L142 108L141 107M161 107L160 121L161 121L161 107z"/>
<path style="fill:#5ab2d3; stroke:none;" d="M74.3333 108.667L74.6667 109.333L74.3333 108.667z"/>
<path style="fill:#292653; stroke:none;" d="M99 108L99 110L101 110L101 108L99 108z"/>
<path style="fill:#b342a6; stroke:none;" d="M109 108L110 109L109 108z"/>
<path style="fill:#5ab2d3; stroke:none;" d="M140 108L141 109L140 108z"/>
<path style="fill:#b342a6; stroke:none;" d="M141.333 108.667L141.667 109.333L141.333 108.667z"/>
<path style="fill:#5ab2d3; stroke:none;" d="M33 109L33 117L34 117L33 109M71 109L72 110L71 109z"/>
<path style="fill:#b342a6; stroke:none;" d="M102 109L103 110L102 109z"/>
<path style="fill:#c8d2eb; stroke:none;" d="M124 109L125 110L124 109z"/>
<path style="fill:#5ab2d3; stroke:none;" d="M127 109L128 110L127 109z"/>
<path style="fill:#c8d2eb; stroke:none;" d="M140.333 109.667L140.667 110.333L140.333 109.667z"/>
<path style="fill:#5ab2d3; stroke:none;" d="M159 109L160 110L159 109z"/>
<path style="fill:#c8d2eb; stroke:none;" d="M38 110L39 120L40 120L40 110L38 110z"/>
<path style="fill:#b342a6; stroke:none;" d="M44 110L46 113L44 110M73 110L74 111L73 110z"/>
<path style="fill:#5ab2d3; stroke:none;" d="M91 110L92 111L91 110z"/>
<path style="fill:#b342a6; stroke:none;" d="M100 110L99 112L101 112L100 110M103 110L104 111L103 110z"/>
<path style="fill:#5ab2d3; stroke:none;" d="M154 110L153 115L154 115L154 110M42 111L45 113L42 111z"/>
<path style="fill:#b342a6; stroke:none;" d="M104.667 111.333L105.333 111.667L104.667 111.333z"/>
<path style="fill:#5ab2d3; stroke:none;" d="M126 111L127 112L126 111M139 111L138 116L139 116L139 111z"/>
<path style="fill:#b342a6; stroke:none;" d="M140 111L141 112L140 111z"/>
<path style="fill:#5ab2d3; stroke:none;" d="M72.3333 112.667L72.6667 113.333L72.3333 112.667M75 112L76 118L77 118L75 112z"/>
<path style="fill:#292653; stroke:none;" d="M81 112L83 117L84 117L81 112z"/>
<path style="fill:#5ab2d3; stroke:none;" d="M92 112L93 113L92 112M125 112L126 113L125 112M159 112L159 120L160 120L159 112z"/>
<path style="fill:#b342a6; stroke:none;" d="M74 113L75 114L74 113z"/>
<path style="fill:#5ab2d3; stroke:none;" d="M93 113L94 114L93 113z"/>
<path style="fill:#b342a6; stroke:none;" d="M40 114L40 120L39 120L39 117L38 117L39 129L40 129L40 114z"/>
<path style="fill:#5ab2d3; stroke:none;" d="M73 114L73 117L74 117L73 114z"/>
<path style="fill:#c8d2eb; stroke:none;" d="M75 114L76 115L75 114z"/>
<path style="fill:#5ab2d3; stroke:none;" d="M94 114L95 115L94 114z"/>
<path style="fill:#b342a6; stroke:none;" d="M45 115L46 116L45 115M75 115L76 116L75 115z"/>
<path style="fill:#5ab2d3; stroke:none;" d="M123 115L124 116L123 115z"/>
<path style="fill:#292653; stroke:none;" d="M132.333 115.667L132.667 116.333L132.333 115.667z"/>
<path style="fill:#5ab2d3; stroke:none;" d="M161 115L161 120L162 120L161 115M38 116L39 117L38 116M96 116L97 117L96 116z"/>
<path style="fill:#c8d2eb; stroke:none;" d="M133 116L134 117L133 116z"/>
<path style="fill:#5ab2d3; stroke:none;" d="M137.333 116.667L137.667 117.333L137.333 116.667M183 116L183 124L168 119L167 119C169.018 125.235 178.292 125.822 184 127L183 116z"/>
<path style="fill:#b342a6; stroke:none;" d="M33.3333 117.667L33.6667 118.333L33.3333 117.667M46.3333 117.667L46.6667 118.333L46.3333 117.667z"/>
<path style="fill:#5ab2d3; stroke:none;" d="M74.3333 117.667L74.6667 118.333L74.3333 117.667z"/>
<path style="fill:#b342a6; stroke:none;" d="M77 117L77 120L79 119L78 122L80 125L81 126L85 126L85 125L81 123L81 122L84 123L84 122L80 121L80 120L83 119L79 119L80 117L77 117z"/>
<path style="fill:#5ab2d3; stroke:none;" d="M78 117L79 118L78 117z"/>
<path style="fill:#c8d2eb; stroke:none;" d="M82 117L83 118L82 117z"/>
<path style="fill:#292653; stroke:none;" d="M84.3333 117.667L84.6667 118.333L84.3333 117.667z"/>
<path style="fill:#5ab2d3; stroke:none;" d="M97 117L98 118L97 117M120 117L121 118L120 117z"/>
<path style="fill:#292653; stroke:none;" d="M131 117L132 118L131 117z"/>
<path style="fill:#c8d2eb; stroke:none;" d="M77 118L78 119L77 118M83.3333 118.667L83.6667 119.333L83.3333 118.667z"/>
<path style="fill:#5ab2d3; stroke:none;" d="M98 118L101 120L101 119L98 118M119 118L120 119L119 118z"/>
<path style="fill:#292653; stroke:none;" d="M130.333 118.667L130.667 119.333L130.333 118.667z"/>
<path style="fill:#c8d2eb; stroke:none;" d="M132 118L133 119L132 118z"/>
<path style="fill:#5ab2d3; stroke:none;" d="M136 118L135 121L136 118M32 119L30 123L34 122L32 119M75.3333 119.667L75.6667 120.333L75.3333 119.667z"/>
<path style="fill:#c8d2eb; stroke:none;" d="M78.3333 119.667L78.6667 120.333L78.3333 119.667z"/>
<path style="fill:#292653; stroke:none;" d="M85 119C87.9519 126.556 95.1893 130.829 103 132L103 131L85 119z"/>
<path style="fill:#5ab2d3; stroke:none;" d="M117 119L118 120L117 119z"/>
<path style="fill:#c8d2eb; stroke:none;" d="M131 119L127 125L134 123L134 122L131 119z"/>
<path style="fill:#b342a6; stroke:none;" d="M47.3333 120.667L47.6667 121.333L47.3333 120.667z"/>
<path style="fill:#292653; stroke:none;" d="M80 120L80 121L83 121L80 120z"/>
<path style="fill:#c8d2eb; stroke:none;" d="M84 120L85 121L84 120z"/>
<path style="fill:#5ab2d3; stroke:none;" d="M115 120L116 121L115 120z"/>
<path style="fill:#292653; stroke:none;" d="M129 120L125 125L129 120z"/>
<path style="fill:#b342a6; stroke:none;" d="M161 120L162 121L161 120z"/>
<path style="fill:#5ab2d3; stroke:none;" d="M28.3333 121.667L28.6667 122.333L28.3333 121.667M76.3333 121.667L76.6667 122.333L76.3333 121.667z"/>
<path style="fill:#c8d2eb; stroke:none;" d="M79.3333 121.667L79.6667 122.333L79.3333 121.667z"/>
<path style="fill:#292653; stroke:none;" d="M83 121L84 122L83 121z"/>
<path style="fill:#5ab2d3; stroke:none;" d="M110 121L110 122L114 122L110 121M134.333 121.667L134.667 122.333L134.333 121.667M160 121L160 124L161 124L160 121M26.6667 123.333L27.3333 123.667L26.6667 123.333M77 123L78 124L77 123z"/>
<path style="fill:#c8d2eb; stroke:none;" d="M80 123L81 124L80 123z"/>
<path style="fill:#5ab2d3; stroke:none;" d="M133 123L134 124L133 123z"/>
<path style="fill:#c8d2eb; stroke:none;" d="M19 124L19 125L22 125L19 124M81 124L82 125L81 124z"/>
<path style="fill:#5ab2d3; stroke:none;" d="M132 124L133 125L132 124z"/>
<path style="fill:#b342a6; stroke:none;" d="M160 124L161 125L160 124z"/>
<path style="fill:#c8d2eb; stroke:none;" d="M16.6667 125.333L17.3333 125.667L16.6667 125.333M82 125L82 127L84 127L82 125z"/>
<path style="fill:#292653; stroke:none;" d="M122 127L125 125L122 127z"/>
<path style="fill:#c8d2eb; stroke:none;" d="M126 125L127 126L126 125z"/>
<path style="fill:#5ab2d3; stroke:none;" d="M131 125L132 126L131 125z"/>
<path style="fill:#c8d2eb; stroke:none;" d="M13 126L14 127L13 126M125 126L126 127L125 126z"/>
<path style="fill:#b342a6; stroke:none;" d="M129 126L130 127L129 126z"/>
<path style="fill:#5ab2d3; stroke:none;" d="M130 126L131 127L130 126z"/>
<path style="fill:#292653; stroke:none;" d="M4 127L5 128L4 127z"/>
<path style="fill:#c8d2eb; stroke:none;" d="M9 127L10 128L9 127z"/>
<path style="fill:#5ab2d3; stroke:none;" d="M83 127L88 131L83 127z"/>
<path style="fill:#292653; stroke:none;" d="M116 129L116 130L122 128L116 129z"/>
<path style="fill:#c8d2eb; stroke:none;" d="M123.667 127.333L124.333 127.667L123.667 127.333z"/>
<path style="fill:#5ab2d3; stroke:none;" d="M129 127L130 128L129 127z"/>
<path style="fill:#292653; stroke:none;" d="M194 127L195 128L194 127z"/>
<path style="fill:#c8d2eb; stroke:none;" d="M122 128L123 129L122 128z"/>
<path style="fill:#5ab2d3; stroke:none;" d="M128 128L129 129L128 128z"/>
<path style="fill:#292653; stroke:none;" d="M74 129L75 130L74 129z"/>
<path style="fill:#5ab2d3; stroke:none;" d="M127 129L128 130L127 129M3 130L3 167L4 167C4 156.351 7.11134 139.798 3 130z"/>
<path style="fill:#292653; stroke:none;" d="M107.667 130.333L108.333 130.667L107.667 130.333z"/>
<path style="fill:#5ab2d3; stroke:none;" d="M126 130L127 131L126 130M129 130L125 135L129 130z"/>
<path style="fill:#c8d2eb; stroke:none;" d="M123 140L123 141L137 130L123 140z"/>
<path style="fill:#5ab2d3; stroke:none;" d="M88 131L89 132L88 131M124.667 131.333L125.333 131.667L124.667 131.333M89 132L89 133L92 134L89 132z"/>
<path style="fill:#c8d2eb; stroke:none;" d="M107.667 132.333L108.333 132.667L107.667 132.333z"/>
<path style="fill:#5ab2d3; stroke:none;" d="M123 132L124 133L123 132z"/>
<path style="fill:#b342a6; stroke:none;" d="M90 133L91 134L90 133z"/>
<path style="fill:#5ab2d3; stroke:none;" d="M121.667 133.333L122.333 133.667L121.667 133.333M92 134L92 135L96 136L96 135L92 134M119.667 134.333L120.333 134.667L119.667 134.333M117.667 135.333L118.333 135.667L117.667 135.333z"/>
<path style="fill:#b342a6; stroke:none;" d="M79 136L93 144L93 143L79 136z"/>
<path style="fill:#5ab2d3; stroke:none;" d="M91 136L94 138L91 136z"/>
<path style="fill:#b342a6; stroke:none;" d="M96 136L97 137L96 136z"/>
<path style="fill:#5ab2d3; stroke:none;" d="M97 136L97 137L113 138L113 137L97 136M114.667 136.333L115.333 136.667L114.667 136.333z"/>
<path style="fill:#b342a6; stroke:none;" d="M136 136L137 137L136 136M99 137L100 138L99 137z"/>
<path style="fill:#5ab2d3; stroke:none;" d="M113 139L113 140L121 138L113 139M136 137L137 138L136 137M134 138L135 139L134 138z"/>
<path style="fill:#c8d2eb; stroke:none;" d="M136 146L137 146L141 140C134.7 137.505 134.099 140.621 136 146z"/>
<path style="fill:#5ab2d3; stroke:none;" d="M138 138L140 140L140 138L138 138z"/>
<path style="fill:#b342a6; stroke:none;" d="M56.3333 139.667L56.6667 140.333L56.3333 139.667M58 140L64 146L58 140z"/>
<path style="fill:#5ab2d3; stroke:none;" d="M102 140L102 141L112 141L102 140M132.667 140.333L133.333 140.667L132.667 140.333M137 143C138.738 148.237 144.31 147 149 147C145.603 141.852 142.713 140.152 137 143z"/>
<path style="fill:#b342a6; stroke:none;" d="M142 140L142 141L145 141L142 140z"/>
<path style="fill:#5ab2d3; stroke:none;" d="M23 141L24 142L23 141M53 141L54 142L53 141M42 145L42 146L46 148L63 146C57.7817 139.175 48.8938 141.783 42 145z"/>
<path style="fill:#c8d2eb; stroke:none;" d="M121.667 141.333L122.333 141.667L121.667 141.333z"/>
<path style="fill:#b342a6; stroke:none;" d="M145 141L146 142L145 141z"/>
<path style="fill:#5ab2d3; stroke:none;" d="M21 142L22 143L21 142z"/>
<path style="fill:#c8d2eb; stroke:none;" d="M119 142L120 143L119 142z"/>
<path style="fill:#b342a6; stroke:none;" d="M133 142C126.039 148.642 117.654 153.694 108 155L108 156L124 153L133 142z"/>
<path style="fill:#c8d2eb; stroke:none;" d="M51 143L50 145L51 143M116.667 143.333L117.333 143.667L116.667 143.333z"/>
<path style="fill:#5ab2d3; stroke:none;" d="M132 147L135 147L136 143L132 147M149 143L155 146L155 145L149 143z"/>
<path style="fill:#b342a6; stroke:none;" d="M51 144L52 145L51 144z"/>
<path style="fill:#292653; stroke:none;" d="M52 144L53 145L52 144z"/>
<path style="fill:#b342a6; stroke:none;" d="M149 144L150 145L149 144z"/>
<path style="fill:#292653; stroke:none;" d="M144 145L145 146L144 145z"/>
<path style="fill:#c8d2eb; stroke:none;" d="M47 146L48 147L47 146z"/>
<path style="fill:#5ab2d3; stroke:none;" d="M63 146L64 147L63 146M136 146L137 147L136 146z"/>
<path style="fill:#b342a6; stroke:none;" d="M151 146L152 147L151 146z"/>
<path style="fill:#5ab2d3; stroke:none;" d="M157 146L158 147L157 146M1 147L0 188L1 188C3.7786 178.6 4.80288 156.063 1 147M45 148L46 149L45 148M44 149L45 150L44 149z"/>
<path style="fill:#b342a6; stroke:none;" d="M68 149L69 150L68 149z"/>
<path style="fill:#5ab2d3; stroke:none;" d="M43 150L44 151L43 150M48 150L45 151L44 152L43 156L44 159C48.7288 159.276 56.8107 161.048 60 157L58 158L60 154L57 156L60 150L49 153L56 153L53 156L54 154L53 154L52 157L46 155L48 150M124 151L123 155L126 154L125 159L124 159L123 156L119 161L113 164L109 165C107.177 163.041 103.652 164.748 101 164.958C92.6614 165.619 83.3485 163.843 79 172C84.5754 172 77.7407 176.084 76 177L78 167L76 167L73 186L74 186L84 176L83 184L86 177L87 177L85 193L86 193L90 180L92 183L96 179L96 185L97 185L97 180L98 180L98 186L99 186L99 179L100 179L100 188L101 188L101 179L104 179L105 187L106 187L106 179L109 181C106.713 177.767 103.588 178 100 179L94 178L94 177L96 175L92 175L93 170L96 172L97 169L99 171L99 166L101 170L102 170L102 166L103 166L103 170L111 168L111 167L107 167L107 166L112 166L109 171L108 176L109 184L112 186L113 186L112 180L115 180L118 188L119 188L117 182L117 176L120 175L120 165L124 166C122.467 169.066 122.444 170.489 125 171L124 174L125 174L125 170L129 169L132 178L133 178L136 172L136 171L133 172L131 171L130 166L133 168L132 164L133 164L134 168L135 168L134 162L131 163L128 156L131 160L132 160L129 150L124 151M130 150L135 163L138 162L140 165L141 165L140 162L143 161L141 156L138 160L135 153L134 153L137 161L136 161L130 150M132 150L133 153L135 151L138 158L139 158L140 154L141 154L142 157L144 151L140 150L139 150L139 152L138 152L138 150L137 150L137 152L132 150M41 151L42 152L41 151z"/>
<path style="fill:#b342a6; stroke:none;" d="M42 151L43 152L42 151M71 151L72 152L71 151z"/>
<path style="fill:#5ab2d3; stroke:none;" d="M145 151L146 152L145 151M38 155L32 160L40 155L39 152C36.7336 152.914 36.5937 153.011 38 155z"/>
<path style="fill:#c8d2eb; stroke:none;" d="M39 154L42 152L39 154z"/>
<path style="fill:#5ab2d3; stroke:none;" d="M60 152L61 153L60 152M64 152L65 153L64 152z"/>
<path style="fill:#b342a6; stroke:none;" d="M73 152L74 153L73 152z"/>
<path style="fill:#c8d2eb; stroke:none;" d="M124 152L125 153L124 152z"/>
<path style="fill:#292653; stroke:none;" d="M137 152L138 156L139 156L140 152L139 152L137 152M141 152L143 155L141 152z"/>
<path style="fill:#5ab2d3; stroke:none;" d="M144 152L145 158L143 157L143 158L144 161L156 162L157 162L161 160L163 156L162 158L163 158C163.287 154.992 162.967 153.866 160 153L160 154L162 155L152 153L155 159L152 157L153 160L146 158L146 154L148 155L148 154L144 152M148 152L150 156L148 155L149 158L152 157L148 152z"/>
<path style="fill:#292653; stroke:none;" d="M38 153L39 154L38 153z"/>
<path style="fill:#5ab2d3; stroke:none;" d="M43 153L44 154L43 153M48 153L47 155L48 153z"/>
<path style="fill:#b342a6; stroke:none;" d="M75 153L78 155L78 154L75 153M42 154L43 155L42 154z"/>
<path style="fill:#5ab2d3; stroke:none;" d="M50 154L51 155L50 154M62 154L61 157L62 154z"/>
<path style="fill:#b342a6; stroke:none;" d="M122 154L123 155L122 154z"/>
<path style="fill:#c8d2eb; stroke:none;" d="M122 155L124 159L125 159L126 154L122 155z"/>
<path style="fill:#292653; stroke:none;" d="M128 154L129 155L128 154M154 154L155 155L154 154z"/>
<path style="fill:#b342a6; stroke:none;" d="M38 155L39 156L38 155M41 155L42 156L41 155M88 155L88 156L91 156L88 155z"/>
<path style="fill:#c8d2eb; stroke:none;" d="M198 155L198 166L199 166L198 155M36 156L37 157L36 156z"/>
<path style="fill:#b342a6; stroke:none;" d="M40 156L30 167C15.4069 166.679 5.54577 184.732 4 197L8 195L17.0185 196.986L46 197L46 196L41 195L41 194L46 194L45 181L38 186C39.8343 182.141 45.1368 170.258 48.3032 167.938C53.5243 164.113 59.3083 168.462 62 161L60 160L59 160L59 162L58 162C54.4476 156.981 44.333 158.845 40 162L43 159L40 156z"/>
<path style="fill:#5ab2d3; stroke:none;" d="M42 156L43 157L42 156z"/>
<path style="fill:#b342a6; stroke:none;" d="M93 156L93 157L108 157L93 156z"/>
<path style="fill:#292653; stroke:none;" d="M155 156L156 157L155 156z"/>
<path style="fill:#b342a6; stroke:none;" d="M161 156L162 157L161 156z"/>
<path style="fill:#c8d2eb; stroke:none;" d="M162 156L163 157L162 156M35 157L36 158L35 157z"/>
<path style="fill:#5ab2d3; stroke:none;" d="M41 157L42 158L41 157z"/>
<path style="fill:#b342a6; stroke:none;" d="M43 157L44 158L43 157z"/>
<path style="fill:#292653; stroke:none;" d="M48 157L49 158L48 157M56 157L57 158L56 157z"/>
<path style="fill:#c8d2eb; stroke:none;" d="M163 157L171 164L163 157z"/>
<path style="fill:#5ab2d3; stroke:none;" d="M165 157L166 158L165 157z"/>
<path style="fill:#c8d2eb; stroke:none;" d="M122 158L123 159L122 158z"/>
<path style="fill:#b342a6; stroke:none;" d="M163 158L164 159L163 158z"/>
<path style="fill:#5ab2d3; stroke:none;" d="M166 158L167 159L166 158z"/>
<path style="fill:#292653; stroke:none;" d="M45 159L46 160L45 159M47 159L48 160L47 159M51 159L52 160L51 159z"/>
<path style="fill:#b342a6; stroke:none;" d="M60 159L61 160L60 159M161 159L162 160L161 159z"/>
<path style="fill:#5ab2d3; stroke:none;" d="M167 159L168 160L167 159M31 160L32 161L31 160z"/>
<path style="fill:#292653; stroke:none;" d="M44 160L40 164L41 169L42 169L45 164L42 166L47 160L44 160z"/>
<path style="fill:#b342a6; stroke:none;" d="M62 160L63 161L62 160z"/>
<path style="fill:#292653; stroke:none;" d="M125 160L126 161L125 160M127 160L125 162L125 163L128 162L129 166L130 166L127 160z"/>
<path style="fill:#5ab2d3; stroke:none;" d="M132.333 160.667L132.667 161.333L132.333 160.667z"/>
<path style="fill:#b342a6; stroke:none;" d="M140 160L141 161L140 160M140 162L141 164L141 165L140 165L136 162C137.252 165.533 139.94 168.831 143 165L144 165L151.123 171.109L161 187L153 182L154 186L151 184L150 193L150 194L157 194L157 195L150 197L166 195L167 195C169.848 198.26 192.188 199.176 194.397 194.682C197.145 189.09 192.196 184.012 191 179L174 166L175 170L174 170L172 169C169.769 164.861 161.406 156.855 157 162L156 162C153.98 158.523 148.909 160.053 147 163L147 160L140 162z"/>
<path style="fill:#292653; stroke:none;" d="M147 160L148 161L147 160M150 160L151 161L150 160z"/>
<path style="fill:#5ab2d3; stroke:none;" d="M166 160L167 161L166 160M168 160L169 161L168 160M30 161L31 162L30 161z"/>
<path style="fill:#b342a6; stroke:none;" d="M44 161L45 162L44 161z"/>
<path style="fill:#5ab2d3; stroke:none;" d="M48 161L49 162L48 161M64 161L61 163L63 165L62 169L64 168L64 169L65 173L64 176L65 176L64 174L65 174L67 176L71 168L70 168L68 173L67 173L68 167L65 168L64 161z"/>
<path style="fill:#b342a6; stroke:none;" d="M135 161L136 162L135 161M138 161L139 162L138 161z"/>
<path style="fill:#292653; stroke:none;" d="M139 161L140 162L139 161z"/>
<path style="fill:#5ab2d3; stroke:none;" d="M146 161L148 163L148 161L146 161z"/>
<path style="fill:#292653; stroke:none;" d="M153 161L151 162L151 163L154 163L153 166L158 168L153 161z"/>
<path style="fill:#b342a6; stroke:none;" d="M167 161L168 162L167 161z"/>
<path style="fill:#5ab2d3; stroke:none;" d="M169 161L170 162L169 161z"/>
<path style="fill:#b342a6; stroke:none;" d="M9 163L9 164L13 163L9 163z"/>
<path style="fill:#5ab2d3; stroke:none;" d="M29 162L30 163L29 162M66 162L67 163L66 162z"/>
<path style="fill:#292653; stroke:none;" d="M137 162L138 163L137 162z"/>
<path style="fill:#5ab2d3; stroke:none;" d="M143 162L147 166L143 162z"/>
<path style="fill:#292653; stroke:none;" d="M160 162L160 166L163 165L160 162z"/>
<path style="fill:#b342a6; stroke:none;" d="M168 162L169 163L168 162z"/>
<path style="fill:#5ab2d3; stroke:none;" d="M170 162L171 163L170 162z"/>
<path style="fill:#b342a6; stroke:none;" d="M186 164L195 167C193.081 163.874 189.043 160.674 186 164z"/>
<path style="fill:#5ab2d3; stroke:none;" d="M28 163L29 164L28 163z"/>
<path style="fill:#b342a6; stroke:none;" d="M66 163L67 164L66 163z"/>
<path style="fill:#5ab2d3; stroke:none;" d="M68 163L69 164L68 163z"/>
<path style="fill:#292653; stroke:none;" d="M157 163L158 164L157 163z"/>
<path style="fill:#5ab2d3; stroke:none;" d="M171.333 163.667L171.667 164.333L171.333 163.667z"/>
<path style="fill:#c8d2eb; stroke:none;" d="M186 164L193.976 171.184L196 197L172 197L172 198L174 198L174 199L171 199L171 200L199 200L199 171L198 171L198 175L197 175L196 167L186 164z"/>
<path style="fill:#b342a6; stroke:none;" d="M6 166L9 164L6 166M13 164L14 165L13 164z"/>
<path style="fill:#5ab2d3; stroke:none;" d="M27 164L28 165L27 164z"/>
<path style="fill:#292653; stroke:none;" d="M33 164L34 165L33 164M35 165L35 166L38 166L35 165z"/>
<path style="fill:#5ab2d3; stroke:none;" d="M65 164L66 165L65 164z"/>
<path style="fill:#292653; stroke:none;" d="M126 164L126 168L127 168L128 168L126 164M132 164L134 171L135 171L132 164z"/>
<path style="fill:#5ab2d3; stroke:none;" d="M135 164L136 165L135 164z"/>
<path style="fill:#b342a6; stroke:none;" d="M161 164L162 165L161 164z"/>
<path style="fill:#292653; stroke:none;" d="M164 164L164 167L165 167L164 164z"/>
<path style="fill:#b342a6; stroke:none;" d="M172 164L172 166L174 166L172 164M12 165L13 166L12 165z"/>
<path style="fill:#5ab2d3; stroke:none;" d="M26 165L27 166L26 165z"/>
<path style="fill:#b342a6; stroke:none;" d="M29 165L30 166L29 165M62 165L63 166L62 165M65 165L66 166L65 165M68 165L69 166L68 165z"/>
<path style="fill:#5ab2d3; stroke:none;" d="M75.3333 165.667L75.6667 166.333L75.3333 165.667z"/>
<path style="fill:#b342a6; stroke:none;" d="M77 165L79 171L80 171L82 166L77 165M96 165L97 166L96 165z"/>
<path style="fill:#c8d2eb; stroke:none;" d="M114 165L114 168L115 168L114 165M120 165L125 175L124 166L120 165z"/>
<path style="fill:#5ab2d3; stroke:none;" d="M136 165L137 166L136 165M143 165L144 166L143 165M150 165L151 166L150 165z"/>
<path style="fill:#b342a6; stroke:none;" d="M154 165L155 166L154 165M186 165L188 168L185 167C185.803 172.99 189.144 175.936 195 177C194.921 170.307 192.24 167.368 186 165M4 166L4 168L6 166L4 166M4 172L12 166L4 172z"/>
<path style="fill:#5ab2d3; stroke:none;" d="M68 166L69 167L68 166z"/>
<path style="fill:#b342a6; stroke:none;" d="M71.3333 166.667L71.6667 167.333L71.3333 166.667M74.3333 166.667L74.6667 167.333L74.3333 166.667z"/>
<path style="fill:#c8d2eb; stroke:none;" d="M78 166L79 167L78 166M97 166L98 167L97 166M99 166L99 171L97 169L96 172L93 170L92 175L96 175L94 177L94 178L100 179L105 179L105 175C108.034 174.504 109.071 174.126 109 171C112.054 170.346 111.936 168.993 112 166L107 166L107 167L111 167L111 168L103 170L103 166L102 166L102 170L101 170L99 166M105 166L106 167L105 166M117 166L118 167L117 166M125 166L125 169L126 169L125 166z"/>
<path style="fill:#5ab2d3; stroke:none;" d="M126 166L127 167L126 166z"/>
<path style="fill:#292653; stroke:none;" d="M130 166L131 171L132 171L130 166M35 167L36 168L35 167M90 167L91 168L90 167M93.3333 167.667L93.6667 168.333L93.3333 167.667z"/>
<path style="fill:#b342a6; stroke:none;" d="M131 167L132 168L131 167M135 167L135 171L136 171L135 167z"/>
<path style="fill:#5ab2d3; stroke:none;" d="M74 168L70 178C73.2394 175.791 74.8462 171.883 74 168z"/>
<path style="fill:#b342a6; stroke:none;" d="M122 168L122 170L124 170L122 168M132 168L133 172L134 172L132 168z"/>
<path style="fill:#292653; stroke:none;" d="M155 168L156 169L155 168z"/>
<path style="fill:#c8d2eb; stroke:none;" d="M197 168L197 171L198 171L197 168z"/>
<path style="fill:#b342a6; stroke:none;" d="M14 169L13 173L14 173L14 169z"/>
<path style="fill:#292653; stroke:none;" d="M32 169L33 170L32 169M65 169L66 170L65 169z"/>
<path style="fill:#b342a6; stroke:none;" d="M73 169L74 170L73 169z"/>
<path style="fill:#c8d2eb; stroke:none;" d="M88 169L88 175L89 175L88 169z"/>
<path style="fill:#292653; stroke:none;" d="M127 169L130 173L127 169M35 170L36 171L35 170z"/>
<path style="fill:#c8d2eb; stroke:none;" d="M78 170L79 173L76 176L77 176L78 174L80 176L81 171L78 170z"/>
<path style="fill:#b342a6; stroke:none;" d="M120 170L121 176C127.844 176 126.837 193.767 126 192L125 192L126 197L127 197L127 194L133 194L135 175L134 175L134 178L131 177L132 183L131 183L129 175L128 175L131 188C128.237 185.234 124.101 170.435 130 176L131 176L127 170L126 170L127 173L123 175L120 170z"/>
<path style="fill:#292653; stroke:none;" d="M125 170L126 171L125 170z"/>
<path style="fill:#c8d2eb; stroke:none;" d="M177 170L177 171L180 172L177 170z"/>
<path style="fill:#292653; stroke:none;" d="M33 171L34 172L33 171M41 171L42 172L41 171M65 171L66 172L65 171z"/>
<path style="fill:#c8d2eb; stroke:none;" d="M119 171L121 179L122 179L119 171z"/>
<path style="fill:#b342a6; stroke:none;" d="M123.667 171.333L124.333 171.667L123.667 171.333z"/>
<path style="fill:#5ab2d3; stroke:none;" d="M3 172L3 175L4 175L3 172z"/>
<path style="fill:#292653; stroke:none;" d="M64 172L65 173L64 172z"/>
<path style="fill:#b342a6; stroke:none;" d="M73 172L74 173L73 172M78 172L79 173L78 172z"/>
<path style="fill:#292653; stroke:none;" d="M125.667 172.333L126.333 172.667L125.667 172.333M131.667 172.333L132.333 172.667L131.667 172.333z"/>
<path style="fill:#b342a6; stroke:none;" d="M134 172L136 174L136 172L134 172z"/>
<path style="fill:#c8d2eb; stroke:none;" d="M175 172L175 173L179 174L179 173L175 172z"/>
<path style="fill:#b342a6; stroke:none;" d="M81 173L82 174L81 173z"/>
<path style="fill:#c8d2eb; stroke:none;" d="M84 173L85 174L84 173M112 173L113 174L112 173M127 173L128 174L127 173M130 173L131 174L130 173M132 173L133 174L132 173z"/>
<path style="fill:#292653; stroke:none;" d="M64 174L65 175L64 174z"/>
<path style="fill:#b342a6; stroke:none;" d="M68 174L66 181L67 181L68 174M70 174L71 175L70 174M77.3333 174.667L77.6667 175.333L77.3333 174.667M110 174L112 176L112 174L110 174z"/>
<path style="fill:#c8d2eb; stroke:none;" d="M116.333 174.667L116.667 175.333L116.333 174.667z"/>
<path style="fill:#292653; stroke:none;" d="M126 174C126.31 179.115 126.38 184.938 131 188L128 175L129 175L131 183L132 183L130 174L126 174z"/>
<path style="fill:#5ab2d3; stroke:none;" d="M127 174L128 175L127 174z"/>
<path style="fill:#292653; stroke:none;" d="M131.333 174.667L131.667 175.333L131.333 174.667z"/>
<path style="fill:#c8d2eb; stroke:none;" d="M183 174L185 176L183 174z"/>
<path style="fill:#b342a6; stroke:none;" d="M63 175L64 176L63 175z"/>
<path style="fill:#5ab2d3; stroke:none;" d="M105.667 175.333L106.333 175.667L105.667 175.333z"/>
<path style="fill:#b342a6; stroke:none;" d="M107 175L109 179L107 175z"/>
<path style="fill:#292653; stroke:none;" d="M110 175L111 176L110 175M122 175L124 188L123 188C122.458 183.558 121.79 177.395 117 176L121 195L120 195C119.343 190.146 118.177 184.934 114 182L116 195L115 195L113 181L112 181L113 186L112 186L111 183L110 183L110 188L109 188L106 180L106 197L126 197L125 192L126 192L127 194C128.666 187.765 126.204 179.808 122 175z"/>
<path style="fill:#5ab2d3; stroke:none;" d="M125 175L126 176L125 175z"/>
<path style="fill:#292653; stroke:none;" d="M65.6667 176.333L66.3333 176.667L65.6667 176.333z"/>
<path style="fill:#b342a6; stroke:none;" d="M74 176L75 177L74 176M76 176L77 177L76 176M83.3333 176.667L83.6667 177.333L83.3333 176.667z"/>
<path style="fill:#c8d2eb; stroke:none;" d="M109 176L110 177L109 176z"/>
<path style="fill:#292653; stroke:none;" d="M111 176L111 180L112 180L111 176M115.333 176.667L115.667 177.333L115.333 176.667z"/>
<path style="fill:#5ab2d3; stroke:none;" d="M121 176L122 177L121 176z"/>
<path style="fill:#292653; stroke:none;" d="M132 176L133 177L132 176M174 176L175 177L174 176M37 177L38 178L37 177z"/>
<path style="fill:#b342a6; stroke:none;" d="M64 177L61 194L66 194L66 195L60 196L60 197L67 197L68 187L67 187L67 189L66 189L67 185L65 186L65 185C65.716 182.832 66.2938 181.969 64 182L64 177z"/>
<path style="fill:#5ab2d3; stroke:none;" d="M65.3333 177.667L65.6667 178.333L65.3333 177.667z"/>
<path style="fill:#b342a6; stroke:none;" d="M71.3333 177.667L71.6667 178.333L71.3333 177.667M75 177L75 180L76 180L75 177M79 177L77 188L78 188L79 177z"/>
<path style="fill:#5ab2d3; stroke:none;" d="M120 177L121 178L120 177M126 177L127 178L126 177M129 177L130 178L129 177z"/>
<path style="fill:#292653; stroke:none;" d="M133 177L134 178L133 177M181 177L182 178L181 177M184 177L189 182L184 177z"/>
<path style="fill:#5ab2d3; stroke:none;" d="M195 177L195 187L196 187L195 177z"/>
<path style="fill:#c8d2eb; stroke:none;" d="M15.0193 178.758C6.05521 182.059 10.4218 197.339 19.9846 194.066C30.0149 190.634 24.9022 175.118 15.0193 178.758z"/>
<path style="fill:#292653; stroke:none;" d="M30 178L31 179L30 178z"/>
<path style="fill:#b342a6; stroke:none;" d="M90 178L91 179L90 178z"/>
<path style="fill:#c8d2eb; stroke:none;" d="M92 178L92 180L94 178L92 178M109 178L109 182L110 182L109 178z"/>
<path style="fill:#b342a6; stroke:none;" d="M120 178L121 179L120 178z"/>
<path style="fill:#292653; stroke:none;" d="M173 178L174 179L173 178z"/>
<path style="fill:#5ab2d3; stroke:none;" d="M3 179L3 184L4 184L3 179z"/>
<path style="fill:#b342a6; stroke:none;" d="M70 179L69 185L70 185L70 179z"/>
<path style="fill:#292653; stroke:none;" d="M101 179L101 197L105 197L104 179L101 179z"/>
<path style="fill:#b342a6; stroke:none;" d="M106 179L107 180L106 179z"/>
<path style="fill:#292653; stroke:none;" d="M116.333 179.667L116.667 180.333L116.333 179.667z"/>
<path style="fill:#b342a6; stroke:none;" d="M121 179L122 184L123 184L123 179L121 179z"/>
<path style="fill:#292653; stroke:none;" d="M164 179L166 181L164 179M177 179L178 180L177 179M180 179L182 181L180 179z"/>
<path style="fill:#b342a6; stroke:none;" d="M16 180L14 183L15 181L12 183L12 184L13 188L12 188L13 193L16 192L14 191L14 190L19 191L17 192L17 193C21.6298 191.412 27.4504 186.211 22 182L23 188L19 180L16 180z"/>
<path style="fill:#5ab2d3; stroke:none;" d="M19 180L20 181L19 180z"/>
<path style="fill:#292653; stroke:none;" d="M32 180L33 181L32 180M37 180L36 182L37 180z"/>
<path style="fill:#b342a6; stroke:none;" d="M74.3333 180.667L74.6667 181.333L74.3333 180.667M107 180L108 181L107 180M112 180L113 181L112 180z"/>
<path style="fill:#292653; stroke:none;" d="M114 180L115 181L114 180z"/>
<path style="fill:#5ab2d3; stroke:none;" d="M122 180L123 181L122 180z"/>
<path style="fill:#292653; stroke:none;" d="M175 180L176 181L175 180z"/>
<path style="fill:#b342a6; stroke:none;" d="M191 180L192 181L191 180z"/>
<path style="fill:#292653; stroke:none;" d="M14 183L17 181L14 183M18 181L23 188C22.6994 184.048 21.8823 182.178 18 181z"/>
<path style="fill:#5ab2d3; stroke:none;" d="M21 181L22 182L21 181z"/>
<path style="fill:#c8d2eb; stroke:none;" d="M87.3333 181.667L87.6667 182.333L87.3333 181.667z"/>
<path style="fill:#b342a6; stroke:none;" d="M108 181L109 182L108 181z"/>
<path style="fill:#c8d2eb; stroke:none;" d="M113 181L114 182L113 181z"/>
<path style="fill:#b342a6; stroke:none;" d="M114 181L115 182L114 181M117 181L118 182L117 181z"/>
<path style="fill:#292653; stroke:none;" d="M178 181L179 182L178 181z"/>
<path style="fill:#5ab2d3; stroke:none;" d="M17 182L18 183L17 182M113 182L114 186L115 186L113 182z"/>
<path style="fill:#292653; stroke:none;" d="M166 182L168 184L166 182M176 182L177 183L176 182M183 182L184 183L183 182M13 183L14 184L13 183z"/>
<path style="fill:#b342a6; stroke:none;" d="M73 183L74 184L73 183z"/>
<path style="fill:#c8d2eb; stroke:none;" d="M82.3333 183.667L82.6667 184.333L82.3333 183.667z"/>
<path style="fill:#b342a6; stroke:none;" d="M91 183L91 188L92 188L91 183M104 183L104 186L105 186L104 183M114 183L115 184L114 183z"/>
<path style="fill:#c8d2eb; stroke:none;" d="M118 183L119 184L118 183z"/>
<path style="fill:#292653; stroke:none;" d="M12 184L14 190L12 184z"/>
<path style="fill:#c8d2eb; stroke:none;" d="M14 184L15 185L14 184z"/>
<path style="fill:#292653; stroke:none;" d="M16 184L17 185L16 184M33 184L34 185L33 184M36 184L37 185L36 184z"/>
<path style="fill:#5ab2d3; stroke:none;" d="M66 184L67 185L66 184z"/>
<path style="fill:#b342a6; stroke:none;" d="M109.333 184.667L109.667 185.333L109.333 184.667z"/>
<path style="fill:#5ab2d3; stroke:none;" d="M122 184L124 186L124 184L122 184M3 185L4 186L3 185z"/>
<path style="fill:#c8d2eb; stroke:none;" d="M8 185L9 186L8 185z"/>
<path style="fill:#5ab2d3; stroke:none;" d="M65 185L66 186L65 185z"/>
<path style="fill:#b342a6; stroke:none;" d="M68.3333 185.667L68.6667 186.333L68.3333 185.667z"/>
<path style="fill:#5ab2d3; stroke:none;" d="M81 185L80 195L81 195L83 185L81 185z"/>
<path style="fill:#b342a6; stroke:none;" d="M96.3333 185.667L96.6667 186.333L96.3333 185.667z"/>
<path style="fill:#292653; stroke:none;" d="M30 186L29 188L30 186z"/>
<path style="fill:#5ab2d3; stroke:none;" d="M72 186L73 187L72 186M109 186L110 187L109 186z"/>
<path style="fill:#b342a6; stroke:none;" d="M114.333 186.667L114.667 187.333L114.333 186.667M119 186L119 189L120 189L119 186M123.333 186.667L123.667 187.333L123.333 186.667z"/>
<path style="fill:#292653; stroke:none;" d="M34 187L35 188L34 187z"/>
<path style="fill:#b342a6; stroke:none;" d="M72 187L73 188L72 187M105 187L105 194L106 194L105 187M109 187L110 188L109 187z"/>
<path style="fill:#5ab2d3; stroke:none;" d="M112 187L113 188L112 187z"/>
<path style="fill:#292653; stroke:none;" d="M182 187L183 188L182 187z"/>
<path style="fill:#5ab2d3; stroke:none;" d="M71 188L72 189L71 188z"/>
<path style="fill:#b342a6; stroke:none;" d="M100 188L100 194L101 194L100 188M110 188L110 194L111 194L110 188z"/>
<path style="fill:#5ab2d3; stroke:none;" d="M114 188L115 189L114 188z"/>
<path style="fill:#b342a6; stroke:none;" d="M124.333 188.667L124.667 189.333L124.333 188.667z"/>
<path style="fill:#292653; stroke:none;" d="M180 188L183 191L183 190L180 188M184 188L185 189L184 188M28 189L29 190L28 189M32 189L32 191L34 189L32 189M36 189L32 195L36 189z"/>
<path style="fill:#b342a6; stroke:none;" d="M71 189L70 195L71 195L71 189M76.3333 189.667L76.6667 190.333L76.3333 189.667M95 189L95 194L96 194L95 189M114 189L115 195L116 195L114 189z"/>
<path style="fill:#5ab2d3; stroke:none;" d="M119 189L119 192L120 192L119 189z"/>
<path style="fill:#c8d2eb; stroke:none;" d="M7.66667 190.333L8.33333 190.667L7.66667 190.333z"/>
<path style="fill:#292653; stroke:none;" d="M9 190L10 191L9 190M14 190L14 191L19 192L19 191L14 190z"/>
<path style="fill:#b342a6; stroke:none;" d="M120 190L120 193L121 193L120 190z"/>
<path style="fill:#292653; stroke:none;" d="M165 190L166 191L165 190M185 190L185 191L187 192L183 192L184 196L191 195L191 193L185 190M27 191L28 192L27 191z"/>
<path style="fill:#b342a6; stroke:none;" d="M90 191L90 194L91 194L90 191z"/>
<path style="fill:#292653; stroke:none;" d="M30 192L28 195L30 192M160 192L161 193L160 192M163 192L166 194L163 192z"/>
<path style="fill:#c8d2eb; stroke:none;" d="M172 192L174 194L174 192L172 192z"/>
<path style="fill:#b342a6; stroke:none;" d="M187 192L186 193L189 195L187 192z"/>
<path style="fill:#292653; stroke:none;" d="M192 192L193 193L192 192M11 193L12 194L11 193M36 193L37 194L36 193z"/>
<path style="fill:#b342a6; stroke:none;" d="M75.3333 193.667L75.6667 194.333L75.3333 193.667z"/>
<path style="fill:#c8d2eb; stroke:none;" d="M85 193L86 194L85 193z"/>
<path style="fill:#5ab2d3; stroke:none;" d="M120.333 193.667L120.667 194.333L120.333 193.667z"/>
<path style="fill:#292653; stroke:none;" d="M10 194L11 195L10 194M23 194L24 195L23 194M25 194L26 195L25 194z"/>
<path style="fill:#5ab2d3; stroke:none;" d="M85 194L86 195L85 194M90 194L91 195L90 194M95 194L96 195L95 194M100 194L101 195L100 194M105 194L106 195L105 194M110 194L111 195L110 194M125 194L126 195L125 194z"/>
<path style="fill:#292653; stroke:none;" d="M127 194L127 197L128 197L127 194z"/>
<path style="fill:#5ab2d3; stroke:none;" d="M128 194L129 195L128 194z"/>
<path style="fill:#292653; stroke:none;" d="M161.667 194.333L162.333 194.667L161.667 194.333M168 194L169 195L168 194M4 195L5 196L4 195M6 195L6 197L8 195L6 195M13.6667 195.333L14.3333 195.667L13.6667 195.333z"/>
<path style="fill:#b342a6; stroke:none;" d="M69.3333 195.667L69.6667 196.333L69.3333 195.667M90 195L91 196L90 195M95.3333 195.667L95.6667 196.333L95.3333 195.667M100.333 195.667L100.667 196.333L100.333 195.667M105.333 195.667L105.667 196.333L105.333 195.667M128 195L128 197L134 197L134 195L128 195z"/>
<path style="fill:#292653; stroke:none;" d="M166 195L167 196L166 195z"/>
<path style="fill:#5ab2d3; stroke:none;" d="M195.333 195.667L195.667 196.333L195.333 195.667z"/>
<path style="fill:#292653; stroke:none;" d="M12 196L13 197L12 196z"/>
<path style="fill:#b342a6; stroke:none;" d="M74 196L75 197L74 196M79 196L80 197L79 196M84 196L85 197L84 196M111 196L112 197L111 196M116 196L117 197L116 196M121 196L122 197L121 196z"/>
<path style="fill:#5ab2d3; stroke:none;" d="M153 196L148 198L148 199L174 199L174 198L153 196M166 196L167 197L166 196z"/>
<path style="fill:#292653; stroke:none;" d="M185 196L186 197L185 196M194 196L195 197L194 196z"/>
<path style="fill:#c8d2eb; stroke:none;" d="M153 197L153 198L171 198L153 197z"/>
<path style="fill:#5ab2d3; stroke:none;" d="M26 199L26 200L56 200C47.6964 195.585 35.0584 198.612 26 199z"/>
</svg>
