<?xml version="1.0" encoding="UTF-8"?>
<!DOCTYPE svg PUBLIC "-//W3C//DTD SVG 1.1//EN" "http://www.w3.org/Graphics/SVG/1.1/DTD/svg11.dtd">
<svg xmlns="http://www.w3.org/2000/svg" version="1.1" width="200px" height="200px" style="shape-rendering:geometricPrecision; text-rendering:geometricPrecision; image-rendering:optimizeQuality; fill-rule:evenodd; clip-rule:evenodd" xmlns:xlink="http://www.w3.org/1999/xlink">
<g><path style="opacity:1" fill="#695e66" d="M 109.5,5.5 C 111.861,5.67412 114.194,6.00745 116.5,6.5C 118.492,7.83039 120.492,9.16372 122.5,10.5C 122.672,11.4916 122.338,12.1583 121.5,12.5C 119.78,11.1359 117.78,10.1359 115.5,9.5C 114.308,11.7415 113.308,14.0748 112.5,16.5C 113.243,17.1818 113.909,17.8485 114.5,18.5C 113.5,18.5 112.5,18.5 111.5,18.5C 108.713,17.5233 105.713,17.19 102.5,17.5C 105.287,16.5233 108.287,16.19 111.5,16.5C 111.665,14.1732 112.331,12.0065 113.5,10C 112.301,8.30573 110.968,6.80573 109.5,5.5 Z"/></g>
<g><path style="opacity:1" fill="#493939" d="M 109.5,5.5 C 110.968,6.80573 112.301,8.30573 113.5,10C 112.331,12.0065 111.665,14.1732 111.5,16.5C 108.287,16.19 105.287,16.5233 102.5,17.5C 99.1667,17.5 95.8333,17.5 92.5,17.5C 87.6611,18.2541 82.9944,19.5875 78.5,21.5C 74.2178,20.5774 69.8845,19.9108 65.5,19.5C 59.3074,21.2711 52.974,22.2711 46.5,22.5C 65.1986,8.90578 86.1986,3.23911 109.5,5.5 Z"/></g>
<g><path style="opacity:0.987" fill="#938389" d="M 116.5,6.5 C 125.561,7.74032 133.894,10.7403 141.5,15.5C 137.154,15.6657 132.821,15.499 128.5,15C 126.34,13.668 124.34,12.168 122.5,10.5C 120.492,9.16372 118.492,7.83039 116.5,6.5 Z"/></g>
<g><path style="opacity:0.948" fill="#3e3436" d="M 78.5,21.5 C 76.8333,23.8333 74.8333,25.8333 72.5,27.5C 71.448,27.3505 70.448,27.5172 69.5,28C 70.6039,29.1313 70.2705,29.9646 68.5,30.5C 67.1987,29.5221 66.032,29.8555 65,31.5C 62.1845,30.8695 59.5178,31.5362 57,33.5C 56.0497,32.9777 55.2164,32.311 54.5,31.5C 51.3013,32.7994 48.1347,32.7994 45,31.5C 40.7846,32.2695 36.6179,33.2695 32.5,34.5C 36.7539,30.0365 41.4206,26.0365 46.5,22.5C 52.974,22.2711 59.3074,21.2711 65.5,19.5C 69.8845,19.9108 74.2178,20.5774 78.5,21.5 Z"/></g>
<g><path style="opacity:1" fill="#7b594d" d="M 122.5,10.5 C 124.34,12.168 126.34,13.668 128.5,15C 132.821,15.499 137.154,15.6657 141.5,15.5C 143.819,15.9925 145.819,16.9925 147.5,18.5C 137.144,22.8078 128.478,20.8078 121.5,12.5C 122.338,12.1583 122.672,11.4916 122.5,10.5 Z"/></g>
<g><path style="opacity:1" fill="#d3966a" d="M 91.5,19.5 C 93.1667,19.5 94.8333,19.5 96.5,19.5C 96.6106,21.6477 95.944,21.981 94.5,20.5C 94.1667,21 93.8333,21.5 93.5,22C 96.3082,23.5867 96.9749,25.7534 95.5,28.5C 95.1667,28.5 94.8333,28.5 94.5,28.5C 94.2671,26.9382 93.6005,25.6049 92.5,24.5C 91.7703,22.955 90.437,22.1216 88.5,22C 89.5707,21.1482 90.5707,20.3149 91.5,19.5 Z"/></g>
<g><path style="opacity:1" fill="#efd6b6" d="M 92.5,17.5 C 95.8333,17.5 99.1667,17.5 102.5,17.5C 105.713,17.19 108.713,17.5233 111.5,18.5C 109.167,18.5 106.833,18.5 104.5,18.5C 104.33,19.8221 104.663,20.9887 105.5,22C 102.903,22.7792 102.903,23.2792 105.5,23.5C 101.267,26.4241 101.934,27.7574 107.5,27.5C 105.58,28.0652 103.913,29.0652 102.5,30.5C 101.5,30.5 100.5,30.5 99.5,30.5C 99.5,29.5 99.5,28.5 99.5,27.5C 99.5,24.8333 99.5,22.1667 99.5,19.5C 98.5,19.5 97.5,19.5 96.5,19.5C 94.8333,19.5 93.1667,19.5 91.5,19.5C 91.8333,18.8333 92.1667,18.1667 92.5,17.5 Z"/></g>
<g><path style="opacity:1" fill="#dab28d" d="M 111.5,18.5 C 112.5,18.5 113.5,18.5 114.5,18.5C 116.954,19.2271 119.287,20.2271 121.5,21.5C 121.5,22.1667 121.167,22.5 120.5,22.5C 117.883,21.621 115.216,21.7876 112.5,23C 113.056,23.3826 113.389,23.8826 113.5,24.5C 110.904,23.7347 108.237,23.4013 105.5,23.5C 102.903,23.2792 102.903,22.7792 105.5,22C 104.663,20.9887 104.33,19.8221 104.5,18.5C 106.833,18.5 109.167,18.5 111.5,18.5 Z"/></g>
<g><path style="opacity:1" fill="#e4c29b" d="M 91.5,19.5 C 90.5707,20.3149 89.5707,21.1482 88.5,22C 90.437,22.1216 91.7703,22.955 92.5,24.5C 87.9502,23.8843 83.9502,25.051 80.5,28C 82.8098,28.4966 85.1432,28.6633 87.5,28.5C 87.5,28.8333 87.5,29.1667 87.5,29.5C 85.5,29.5 83.5,29.5 81.5,29.5C 80.1667,29.5 78.8333,29.5 77.5,29.5C 78.7927,27.7041 80.2927,26.0375 82,24.5C 82.4828,23.552 82.6495,22.552 82.5,21.5C 85.2613,20.0795 88.2613,19.4129 91.5,19.5 Z"/></g>
<g><path style="opacity:1" fill="#a66a4c" d="M 96.5,19.5 C 97.5,19.5 98.5,19.5 99.5,19.5C 99.5,22.1667 99.5,24.8333 99.5,27.5C 98.1667,27.8333 96.8333,28.1667 95.5,28.5C 96.9749,25.7534 96.3082,23.5867 93.5,22C 93.8333,21.5 94.1667,21 94.5,20.5C 95.944,21.981 96.6106,21.6477 96.5,19.5 Z"/></g>
<g><path style="opacity:1" fill="#f4efe6" d="M 92.5,17.5 C 92.1667,18.1667 91.8333,18.8333 91.5,19.5C 88.2613,19.4129 85.2613,20.0795 82.5,21.5C 82.6495,22.552 82.4828,23.552 82,24.5C 80.2927,26.0375 78.7927,27.7041 77.5,29.5C 70.4237,30.9138 67.0904,35.2472 67.5,42.5C 66.1837,42.4737 64.6837,42.8071 63,43.5C 62.5172,42.552 62.3505,41.552 62.5,40.5C 65.8184,36.1783 69.1517,31.845 72.5,27.5C 74.8333,25.8333 76.8333,23.8333 78.5,21.5C 82.9944,19.5875 87.6611,18.2541 92.5,17.5 Z"/></g>
<g><path style="opacity:1" fill="#f4f1ea" d="M 105.5,23.5 C 108.237,23.4013 110.904,23.7347 113.5,24.5C 114.478,24.811 115.145,25.4777 115.5,26.5C 112.723,26.7681 110.057,27.1015 107.5,27.5C 101.934,27.7574 101.267,26.4241 105.5,23.5 Z"/></g>
<g><path style="opacity:1" fill="#f4eadc" d="M 92.5,24.5 C 93.6005,25.6049 94.2671,26.9382 94.5,28.5C 91.9817,29.2442 89.6484,29.2442 87.5,28.5C 85.1432,28.6633 82.8098,28.4966 80.5,28C 83.9502,25.051 87.9502,23.8843 92.5,24.5 Z"/></g>
<g><path style="opacity:1" fill="#523d37" d="M 121.5,12.5 C 128.478,20.8078 137.144,22.8078 147.5,18.5C 153.071,21.4458 158.071,25.1125 162.5,29.5C 161.5,31.1667 160.167,32.5 158.5,33.5C 160.192,29.9985 159.026,27.9985 155,27.5C 154.044,28.8941 152.711,29.5607 151,29.5C 148.914,28.5819 146.747,27.9153 144.5,27.5C 144.67,28.8221 144.337,29.9887 143.5,31C 140.776,31.2695 138.109,31.7695 135.5,32.5C 135.331,31.6034 134.998,30.6034 134.5,29.5C 133.081,30.0047 132.415,31.0047 132.5,32.5C 132.167,32.5 131.833,32.5 131.5,32.5C 128.217,28.8792 124.884,25.2125 121.5,21.5C 119.287,20.2271 116.954,19.2271 114.5,18.5C 113.909,17.8485 113.243,17.1818 112.5,16.5C 113.308,14.0748 114.308,11.7415 115.5,9.5C 117.78,10.1359 119.78,11.1359 121.5,12.5 Z"/></g>
<g><path style="opacity:1" fill="#4b4044" d="M 120.5,22.5 C 122.578,24.3904 123.911,26.7238 124.5,29.5C 118.179,27.7101 112.179,28.3767 106.5,31.5C 104.901,31.7678 103.568,31.4345 102.5,30.5C 103.913,29.0652 105.58,28.0652 107.5,27.5C 110.057,27.1015 112.723,26.7681 115.5,26.5C 115.145,25.4777 114.478,24.811 113.5,24.5C 113.389,23.8826 113.056,23.3826 112.5,23C 115.216,21.7876 117.883,21.621 120.5,22.5 Z"/></g>
<g><path style="opacity:1" fill="#686776" d="M 121.5,21.5 C 124.884,25.2125 128.217,28.8792 131.5,32.5C 131.5,32.8333 131.5,33.1667 131.5,33.5C 130.833,33.1667 130.167,32.8333 129.5,32.5C 128.078,31.075 126.411,30.075 124.5,29.5C 123.911,26.7238 122.578,24.3904 120.5,22.5C 121.167,22.5 121.5,22.1667 121.5,21.5 Z"/></g>
<g><path style="opacity:1" fill="#67493b" d="M 94.5,28.5 C 94.8333,28.5 95.1667,28.5 95.5,28.5C 96.8333,28.1667 98.1667,27.8333 99.5,27.5C 99.5,28.5 99.5,29.5 99.5,30.5C 97.4348,30.953 95.7682,31.953 94.5,33.5C 94.1667,33.5 93.8333,33.5 93.5,33.5C 91.751,31.744 89.751,30.4106 87.5,29.5C 87.5,29.1667 87.5,28.8333 87.5,28.5C 89.6484,29.2442 91.9817,29.2442 94.5,28.5 Z"/></g>
<g><path style="opacity:1" fill="#181d26" d="M 124.5,29.5 C 126.411,30.075 128.078,31.075 129.5,32.5C 129.508,38.2076 129.008,38.5409 128,33.5C 127.424,36.1242 126.09,36.7908 124,35.5C 123.333,37.8333 123.333,40.1667 124,42.5C 124.816,43.8228 125.983,44.4894 127.5,44.5C 122.957,49.5909 117.624,50.5909 111.5,47.5C 110.71,46.5987 109.71,45.9321 108.5,45.5C 108.5,44.8333 108.5,44.1667 108.5,43.5C 111.204,43.4919 114.204,43.3252 117.5,43C 118.451,42.2825 118.617,41.4491 118,40.5C 115.107,43.4237 113.94,43.0904 114.5,39.5C 111.776,37.6578 111.942,36.3245 115,35.5C 116.582,37.0288 118.415,37.5288 120.5,37C 119.027,36.2904 118.36,35.1238 118.5,33.5C 112.631,33.0248 108.964,35.6914 107.5,41.5C 105.882,38.8291 105.215,35.8291 105.5,32.5C 106.167,32.5 106.5,32.1667 106.5,31.5C 112.179,28.3767 118.179,27.7101 124.5,29.5 Z"/></g>
<g><path style="opacity:1" fill="#473836" d="M 158.5,33.5 C 158.503,40.0004 157.17,46.1671 154.5,52C 149.935,51.3196 145.269,50.4863 140.5,49.5C 139.893,49.6236 139.56,49.9569 139.5,50.5C 139.768,52.099 139.434,53.4324 138.5,54.5C 138.666,50.1539 138.499,45.8206 138,41.5C 137.667,41.1667 137.333,40.8333 137,40.5C 135.772,43.2331 133.939,43.8998 131.5,42.5C 131.5,41.5 131.5,40.5 131.5,39.5C 138.963,37.9532 139.296,35.6198 132.5,32.5C 132.415,31.0047 133.081,30.0047 134.5,29.5C 134.998,30.6034 135.331,31.6034 135.5,32.5C 138.109,31.7695 140.776,31.2695 143.5,31C 144.337,29.9887 144.67,28.8221 144.5,27.5C 146.747,27.9153 148.914,28.5819 151,29.5C 152.711,29.5607 154.044,28.8941 155,27.5C 159.026,27.9985 160.192,29.9985 158.5,33.5 Z"/></g>
<g><path style="opacity:1" fill="#ad938f" d="M 99.5,30.5 C 100.5,30.5 101.5,30.5 102.5,30.5C 103.568,31.4345 104.901,31.7678 106.5,31.5C 106.5,32.1667 106.167,32.5 105.5,32.5C 102.838,32.4062 100.172,32.7395 97.5,33.5C 96.5,33.5 95.5,33.5 94.5,33.5C 95.7682,31.953 97.4348,30.953 99.5,30.5 Z"/></g>
<g><path style="opacity:1" fill="#342f35" d="M 72.5,27.5 C 69.1517,31.845 65.8184,36.1783 62.5,40.5C 61.6805,43.3054 61.1805,46.3054 61,49.5C 60.7265,51.3289 59.8932,52.8289 58.5,54C 59.5768,54.4696 60.5768,54.3029 61.5,53.5C 61.5,54.5 61.5,55.5 61.5,56.5C 57.8643,56.8185 54.531,57.9852 51.5,60C 54.8236,59.5108 58.1569,58.6774 61.5,57.5C 62.1067,57.6236 62.44,57.9569 62.5,58.5C 60.5,59.8333 58.5,61.1667 56.5,62.5C 54.4727,62.3379 52.4727,62.5045 50.5,63C 45.751,66.0691 40.751,68.7358 35.5,71C 27.0587,71.0971 18.7254,71.9304 10.5,73.5C 11.0653,69.4632 12.3987,65.7966 14.5,62.5C 14.3505,63.552 14.5172,64.552 15,65.5C 16.7533,66.627 18.5866,67.627 20.5,68.5C 21.8498,67.0499 23.5165,66.3832 25.5,66.5C 25.5,65.5 25.5,64.5 25.5,63.5C 28.1873,63.6641 30.854,63.4974 33.5,63C 34.2738,60.5603 35.9405,59.227 38.5,59C 38.0426,58.586 37.7093,58.086 37.5,57.5C 38.6888,56.5713 40.0222,56.238 41.5,56.5C 41.5578,53.3356 42.2245,50.3356 43.5,47.5C 41.4305,47.5514 39.5971,46.8847 38,45.5C 37.1268,45.7355 36.2935,46.0688 35.5,46.5C 32.407,44.9657 29.7403,42.9657 27.5,40.5C 29.177,38.4602 30.8437,36.4602 32.5,34.5C 36.6179,33.2695 40.7846,32.2695 45,31.5C 48.1347,32.7994 51.3013,32.7994 54.5,31.5C 55.2164,32.311 56.0497,32.9777 57,33.5C 59.5178,31.5362 62.1845,30.8695 65,31.5C 66.032,29.8555 67.1987,29.5221 68.5,30.5C 70.2705,29.9646 70.6039,29.1313 69.5,28C 70.448,27.5172 71.448,27.3505 72.5,27.5 Z"/></g>
<g><path style="opacity:1" fill="#110e0d" d="M 81.5,29.5 C 83.5,29.5 85.5,29.5 87.5,29.5C 89.751,30.4106 91.751,31.744 93.5,33.5C 94.3009,40.8947 91.6342,46.5613 85.5,50.5C 82.8333,50.5 80.1667,50.5 77.5,50.5C 77.8342,47.812 77.1675,45.4786 75.5,43.5C 75.5,43.1667 75.5,42.8333 75.5,42.5C 76.1067,37.6143 78.1067,33.2809 81.5,29.5 Z"/></g>
<g><path style="opacity:1" fill="#956640" d="M 97.5,33.5 C 100.172,32.7395 102.838,32.4062 105.5,32.5C 105.215,35.8291 105.882,38.8291 107.5,41.5C 107.328,42.4916 107.662,43.1583 108.5,43.5C 108.5,44.1667 108.5,44.8333 108.5,45.5C 105.643,42.48 103.809,38.8134 103,34.5C 101.301,33.5939 99.4672,33.2606 97.5,33.5 Z"/></g>
<g><path style="opacity:1" fill="#b7b0b7" d="M 131.5,32.5 C 131.833,32.5 132.167,32.5 132.5,32.5C 139.296,35.6198 138.963,37.9532 131.5,39.5C 131.5,38.1667 131.5,36.8333 131.5,35.5C 131.5,34.8333 131.5,34.1667 131.5,33.5C 131.5,33.1667 131.5,32.8333 131.5,32.5 Z"/></g>
<g><path style="opacity:1" fill="#442b1d" d="M 77.5,29.5 C 78.8333,29.5 80.1667,29.5 81.5,29.5C 78.1067,33.2809 76.1067,37.6143 75.5,42.5C 75.5654,42.0618 75.3988,41.7284 75,41.5C 70.7784,43.8378 70.6117,46.1711 74.5,48.5C 74.9175,49.2216 75.5842,49.7216 76.5,50C 75.9056,50.4643 75.2389,50.631 74.5,50.5C 73.1851,49.5244 71.8518,48.5244 70.5,47.5C 68.2157,49.6831 66.8824,52.3497 66.5,55.5C 65.3509,55.2089 64.6842,54.3756 64.5,53C 63.7844,50.2077 63.4511,47.3743 63.5,44.5C 65.288,44.7852 66.9547,44.4519 68.5,43.5C 68.3764,42.8933 68.0431,42.56 67.5,42.5C 67.0904,35.2472 70.4237,30.9138 77.5,29.5 Z"/></g>
<g><path style="opacity:1" fill="#070709" d="M 108.5,43.5 C 107.662,43.1583 107.328,42.4916 107.5,41.5C 108.964,35.6914 112.631,33.0248 118.5,33.5C 118.36,35.1238 119.027,36.2904 120.5,37C 118.415,37.5288 116.582,37.0288 115,35.5C 111.942,36.3245 111.776,37.6578 114.5,39.5C 113.94,43.0904 115.107,43.4237 118,40.5C 118.617,41.4491 118.451,42.2825 117.5,43C 114.204,43.3252 111.204,43.4919 108.5,43.5 Z"/></g>
<g><path style="opacity:1" fill="#9d9691" d="M 82.5,37.5 C 83.2389,37.369 83.9056,37.5357 84.5,38C 83.1068,39.1711 82.2735,40.6711 82,42.5C 80.198,40.7271 80.3647,39.0605 82.5,37.5 Z"/></g>
<g><path style="opacity:1" fill="#3a405c" d="M 97.5,33.5 C 99.4672,33.2606 101.301,33.5939 103,34.5C 103.809,38.8134 105.643,42.48 108.5,45.5C 108.5,46.1667 108.5,46.8333 108.5,47.5C 107.883,47.3893 107.383,47.056 107,46.5C 106.722,47.4158 106.222,48.0825 105.5,48.5C 104.609,47.8902 103.609,47.5569 102.5,47.5C 102.5,47.1667 102.5,46.8333 102.5,46.5C 100.469,44.4776 98.1354,42.8109 95.5,41.5C 95.1072,38.4867 95.7739,35.8201 97.5,33.5 Z"/></g>
<g><path style="opacity:1" fill="#41302c" d="M 129.5,32.5 C 130.167,32.8333 130.833,33.1667 131.5,33.5C 131.5,34.1667 131.5,34.8333 131.5,35.5C 130.469,37.9608 129.802,40.6275 129.5,43.5C 128.833,43.8333 128.167,44.1667 127.5,44.5C 125.983,44.4894 124.816,43.8228 124,42.5C 123.333,40.1667 123.333,37.8333 124,35.5C 126.09,36.7908 127.424,36.1242 128,33.5C 129.008,38.5409 129.508,38.2076 129.5,32.5 Z"/></g>
<g><path style="opacity:1" fill="#b88b60" d="M 131.5,35.5 C 131.5,36.8333 131.5,38.1667 131.5,39.5C 131.5,40.5 131.5,41.5 131.5,42.5C 130.833,42.5 130.5,42.8333 130.5,43.5C 130.167,43.5 129.833,43.5 129.5,43.5C 129.802,40.6275 130.469,37.9608 131.5,35.5 Z"/></g>
<g><path style="opacity:0.973" fill="#b99577" d="M 166.5,33.5 C 170.899,37.5683 174.565,42.235 177.5,47.5C 177.489,49.0174 176.823,50.1841 175.5,51C 171.897,51.843 168.564,51.343 165.5,49.5C 164.5,48.8333 163.5,48.1667 162.5,47.5C 160.568,44.8231 160.068,41.8231 161,38.5C 162.076,35.921 163.909,34.2543 166.5,33.5 Z"/></g>
<g><path style="opacity:1" fill="#997050" d="M 78.5,42.5 C 79.6273,44.4366 81.6273,46.2699 84.5,48C 80.8183,48.1567 78.8183,46.3233 78.5,42.5 Z"/></g>
<g><path style="opacity:1" fill="#9e642c" d="M 75.5,42.5 C 75.5,42.8333 75.5,43.1667 75.5,43.5C 74.5489,44.9187 74.2155,46.5853 74.5,48.5C 70.6117,46.1711 70.7784,43.8378 75,41.5C 75.3988,41.7284 75.5654,42.0618 75.5,42.5 Z"/></g>
<g><path style="opacity:1" fill="#b08962" d="M 93.5,33.5 C 93.8333,33.5 94.1667,33.5 94.5,33.5C 95.5,33.5 96.5,33.5 97.5,33.5C 95.7739,35.8201 95.1072,38.4867 95.5,41.5C 93.8193,44.2028 92.1526,46.8695 90.5,49.5C 90.5654,49.0618 90.3988,48.7284 90,48.5C 88.8904,50.0368 87.3904,50.7035 85.5,50.5C 91.6342,46.5613 94.3009,40.8947 93.5,33.5 Z"/></g>
<g><path style="opacity:1" fill="#c1a589" d="M 62.5,40.5 C 62.3505,41.552 62.5172,42.552 63,43.5C 64.6837,42.8071 66.1837,42.4737 67.5,42.5C 68.0431,42.56 68.3764,42.8933 68.5,43.5C 66.9547,44.4519 65.288,44.7852 63.5,44.5C 63.4511,47.3743 63.7844,50.2077 64.5,53C 64.6842,54.3756 65.3509,55.2089 66.5,55.5C 66.7373,56.791 66.404,57.791 65.5,58.5C 63.8657,57.0451 62.5324,55.3784 61.5,53.5C 60.5768,54.3029 59.5768,54.4696 58.5,54C 59.8932,52.8289 60.7265,51.3289 61,49.5C 61.1805,46.3054 61.6805,43.3054 62.5,40.5 Z"/></g>
<g><path style="opacity:1" fill="#d0b79b" d="M 102.5,46.5 C 102.5,46.8333 102.5,47.1667 102.5,47.5C 100.886,49.0746 98.8863,49.7413 96.5,49.5C 95.2431,47.632 95.5764,45.9653 97.5,44.5C 98.8498,45.9501 100.516,46.6168 102.5,46.5 Z"/></g>
<g><path style="opacity:0.998" fill="#29282d" d="M 27.5,40.5 C 29.7403,42.9657 32.407,44.9657 35.5,46.5C 36.2935,46.0688 37.1268,45.7355 38,45.5C 39.5971,46.8847 41.4305,47.5514 43.5,47.5C 42.2245,50.3356 41.5578,53.3356 41.5,56.5C 40.0222,56.238 38.6888,56.5713 37.5,57.5C 37.7093,58.086 38.0426,58.586 38.5,59C 35.9405,59.227 34.2738,60.5603 33.5,63C 30.854,63.4974 28.1873,63.6641 25.5,63.5C 25.5,64.5 25.5,65.5 25.5,66.5C 23.5165,66.3832 21.8498,67.0499 20.5,68.5C 18.5866,67.627 16.7533,66.627 15,65.5C 14.5172,64.552 14.3505,63.552 14.5,62.5C 17.3251,54.1689 21.6585,46.8356 27.5,40.5 Z"/></g>
<g><path style="opacity:1" fill="#b07748" d="M 129.5,43.5 C 129.267,45.0618 128.6,46.3951 127.5,47.5C 121.954,51.2536 116.288,51.4203 110.5,48C 110.728,47.6012 111.062,47.4346 111.5,47.5C 117.624,50.5909 122.957,49.5909 127.5,44.5C 128.167,44.1667 128.833,43.8333 129.5,43.5 Z"/></g>
<g><path style="opacity:1" fill="#141213" d="M 138.5,54.5 C 138.5,54.8333 138.5,55.1667 138.5,55.5C 137.833,55.5 137.5,55.8333 137.5,56.5C 136.883,56.6107 136.383,56.944 136,57.5C 134.804,52.5088 132.97,47.8422 130.5,43.5C 130.5,42.8333 130.833,42.5 131.5,42.5C 133.939,43.8998 135.772,43.2331 137,40.5C 137.333,40.8333 137.667,41.1667 138,41.5C 138.499,45.8206 138.666,50.1539 138.5,54.5 Z"/></g>
<g><path style="opacity:1" fill="#180d0a" d="M 102.5,47.5 C 103.609,47.5569 104.609,47.8902 105.5,48.5C 106.219,50.7638 106.552,53.0971 106.5,55.5C 105.833,55.5 105.5,55.8333 105.5,56.5C 101.833,59.1667 98.1667,59.1667 94.5,56.5C 94.0183,55.5837 93.685,54.5837 93.5,53.5C 94.2858,51.9589 95.2858,50.6256 96.5,49.5C 98.8863,49.7413 100.886,49.0746 102.5,47.5 Z"/></g>
<g><path style="opacity:1" fill="#9c95a7" d="M 108.5,47.5 C 109.833,49.1667 111.167,50.8333 112.5,52.5C 110.819,54.0075 108.819,55.0075 106.5,55.5C 106.552,53.0971 106.219,50.7638 105.5,48.5C 106.222,48.0825 106.722,47.4158 107,46.5C 107.383,47.056 107.883,47.3893 108.5,47.5 Z"/></g>
<g><path style="opacity:1" fill="#835f4b" d="M 162.5,29.5 C 164.167,30.5 165.5,31.8333 166.5,33.5C 163.909,34.2543 162.076,35.921 161,38.5C 160.068,41.8231 160.568,44.8231 162.5,47.5C 162.414,48.4959 162.748,49.3292 163.5,50C 160.099,49.734 158.433,51.234 158.5,54.5C 151.58,55.31 145.247,53.9767 139.5,50.5C 139.56,49.9569 139.893,49.6236 140.5,49.5C 145.269,50.4863 149.935,51.3196 154.5,52C 157.17,46.1671 158.503,40.0004 158.5,33.5C 160.167,32.5 161.5,31.1667 162.5,29.5 Z"/></g>
<g><path style="opacity:1" fill="#4b3126" d="M 108.5,45.5 C 109.71,45.9321 110.71,46.5987 111.5,47.5C 111.062,47.4346 110.728,47.6012 110.5,48C 116.288,51.4203 121.954,51.2536 127.5,47.5C 127.5,49.1667 127.5,50.8333 127.5,52.5C 126.764,54.2294 125.43,55.2294 123.5,55.5C 121.402,56.4845 119.402,56.1511 117.5,54.5C 117.167,54.5 116.833,54.5 116.5,54.5C 116.167,54.5 115.833,54.5 115.5,54.5C 114.71,53.5987 113.71,52.9321 112.5,52.5C 111.167,50.8333 109.833,49.1667 108.5,47.5C 108.5,46.8333 108.5,46.1667 108.5,45.5 Z"/></g>
<g><path style="opacity:1" fill="#a89da5" d="M 129.5,43.5 C 129.833,43.5 130.167,43.5 130.5,43.5C 132.97,47.8422 134.804,52.5088 136,57.5C 136.383,56.944 136.883,56.6107 137.5,56.5C 137.218,57.7777 136.551,58.7777 135.5,59.5C 134.698,58.0484 134.198,56.3817 134,54.5C 132.644,55.3802 131.144,55.7135 129.5,55.5C 128.833,54.5 128.167,53.5 127.5,52.5C 127.5,50.8333 127.5,49.1667 127.5,47.5C 128.6,46.3951 129.267,45.0618 129.5,43.5 Z"/></g>
<g><path style="opacity:1" fill="#683e26" d="M 75.5,43.5 C 77.1675,45.4786 77.8342,47.812 77.5,50.5C 80.1667,50.5 82.8333,50.5 85.5,50.5C 87.3904,50.7035 88.8904,50.0368 90,48.5C 90.3988,48.7284 90.5654,49.0618 90.5,49.5C 88.832,51.34 87.332,53.34 86,55.5C 85.2825,54.5494 84.4491,54.3828 83.5,55C 84.3366,56.0113 84.67,57.1779 84.5,58.5C 83.663,60.8587 82.163,62.8587 80,64.5C 79.3828,63.5509 79.5494,62.7175 80.5,62C 78.9411,61.0201 77.2744,60.1867 75.5,59.5C 76.7111,58.2798 76.7111,57.1131 75.5,56C 76.1667,54.6667 77.1667,53.6667 78.5,53C 77.9558,52.2828 77.2891,51.7828 76.5,51.5C 75.5084,51.6716 74.8417,51.3382 74.5,50.5C 75.2389,50.631 75.9056,50.4643 76.5,50C 75.5842,49.7216 74.9175,49.2216 74.5,48.5C 74.2155,46.5853 74.5489,44.9187 75.5,43.5 Z"/></g>
<g><path style="opacity:1" fill="#a97c5c" d="M 162.5,47.5 C 163.5,48.1667 164.5,48.8333 165.5,49.5C 167.424,51.0902 167.757,52.9235 166.5,55C 162.886,56.5911 159.22,57.7578 155.5,58.5C 152.266,57.8733 149.099,57.8733 146,58.5C 143.563,57.1999 141.063,56.1999 138.5,55.5C 138.5,55.1667 138.5,54.8333 138.5,54.5C 139.434,53.4324 139.768,52.099 139.5,50.5C 145.247,53.9767 151.58,55.31 158.5,54.5C 158.433,51.234 160.099,49.734 163.5,50C 162.748,49.3292 162.414,48.4959 162.5,47.5 Z"/></g>
<g><path style="opacity:1" fill="#64361e" d="M 94.5,56.5 C 98.1667,59.1667 101.833,59.1667 105.5,56.5C 106.925,57.922 107.925,59.5887 108.5,61.5C 103.978,60.4937 99.4776,60.4937 95,61.5C 93.9889,60.9444 93.1556,60.2778 92.5,59.5C 92.3505,58.448 92.5172,57.448 93,56.5C 93.69,57.7383 94.19,57.7383 94.5,56.5 Z"/></g>
<g><path style="opacity:1" fill="#917167" d="M 112.5,52.5 C 113.71,52.9321 114.71,53.5987 115.5,54.5C 113.345,54.372 111.345,54.872 109.5,56C 110.5,56.3333 111.5,56.6667 112.5,57C 109.536,57.8403 109.203,58.8403 111.5,60C 110.473,60.5133 109.473,61.0133 108.5,61.5C 107.925,59.5887 106.925,57.922 105.5,56.5C 105.5,55.8333 105.833,55.5 106.5,55.5C 108.819,55.0075 110.819,54.0075 112.5,52.5 Z"/></g>
<g><path style="opacity:1" fill="#b7895a" d="M 177.5,47.5 C 178.89,48.8993 179.89,50.5659 180.5,52.5C 178.857,54.9731 176.69,56.9731 174,58.5C 168.051,59.6238 161.884,59.6238 155.5,58.5C 159.22,57.7578 162.886,56.5911 166.5,55C 167.757,52.9235 167.424,51.0902 165.5,49.5C 168.564,51.343 171.897,51.843 175.5,51C 176.823,50.1841 177.489,49.0174 177.5,47.5 Z"/></g>
<g><path style="opacity:1" fill="#ebe0d5" d="M 95.5,41.5 C 98.1354,42.8109 100.469,44.4776 102.5,46.5C 100.516,46.6168 98.8498,45.9501 97.5,44.5C 95.5764,45.9653 95.2431,47.632 96.5,49.5C 95.2858,50.6256 94.2858,51.9589 93.5,53.5C 93.685,54.5837 94.0183,55.5837 94.5,56.5C 94.19,57.7383 93.69,57.7383 93,56.5C 92.5172,57.448 92.3505,58.448 92.5,59.5C 91.1667,60.8333 91.1667,62.1667 92.5,63.5C 90.8008,63.3398 89.1341,63.5065 87.5,64C 89.3699,65.1348 91.3699,65.9681 93.5,66.5C 93.38,67.5862 92.7133,68.2528 91.5,68.5C 89.8034,68.1012 88.1368,67.6012 86.5,67C 85.2532,65.5421 85.2532,64.0421 86.5,62.5C 85.8201,61.1401 85.1534,59.8068 84.5,58.5C 84.67,57.1779 84.3366,56.0113 83.5,55C 84.4491,54.3828 85.2825,54.5494 86,55.5C 87.332,53.34 88.832,51.34 90.5,49.5C 92.1526,46.8695 93.8193,44.2028 95.5,41.5 Z"/></g>
<g><path style="opacity:1" fill="#786253" d="M 61.5,53.5 C 62.5324,55.3784 63.8657,57.0451 65.5,58.5C 64.5584,61.6131 62.5584,63.4464 59.5,64C 60.8333,62.3333 62.1667,60.6667 63.5,59C 63.2716,58.6012 62.9382,58.4346 62.5,58.5C 62.44,57.9569 62.1067,57.6236 61.5,57.5C 58.1569,58.6774 54.8236,59.5108 51.5,60C 54.531,57.9852 57.8643,56.8185 61.5,56.5C 61.5,55.5 61.5,54.5 61.5,53.5 Z"/></g>
<g><path style="opacity:1" fill="#9e643f" d="M 92.5,59.5 C 93.1556,60.2778 93.9889,60.9444 95,61.5C 99.4776,60.4937 103.978,60.4937 108.5,61.5C 108.5,62.1667 108.833,62.5 109.5,62.5C 108.432,63.4345 107.099,63.7678 105.5,63.5C 103.634,62.9862 101.8,62.3195 100,61.5C 98.415,62.0439 96.915,62.7106 95.5,63.5C 94.5,63.5 93.5,63.5 92.5,63.5C 91.1667,62.1667 91.1667,60.8333 92.5,59.5 Z"/></g>
<g><path style="opacity:1" fill="#c4a497" d="M 115.5,54.5 C 115.833,54.5 116.167,54.5 116.5,54.5C 115.588,55.7382 115.421,57.0715 116,58.5C 117.842,60.8636 119.675,63.1969 121.5,65.5C 121.414,66.4959 121.748,67.3292 122.5,68C 120.5,68.5 118.5,69 116.5,69.5C 112.088,68.7261 107.755,68.3927 103.5,68.5C 106.119,66.4149 109.119,64.9149 112.5,64C 113.167,63.3333 113.833,62.6667 114.5,62C 112.893,62.0187 111.226,62.1854 109.5,62.5C 108.833,62.5 108.5,62.1667 108.5,61.5C 109.473,61.0133 110.473,60.5133 111.5,60C 109.203,58.8403 109.536,57.8403 112.5,57C 111.5,56.6667 110.5,56.3333 109.5,56C 111.345,54.872 113.345,54.372 115.5,54.5 Z"/></g>
<g><path style="opacity:1" fill="#b78d75" d="M 127.5,52.5 C 128.167,53.5 128.833,54.5 129.5,55.5C 130.702,57.3925 132.035,59.2258 133.5,61C 133.715,64.0629 132.382,66.5629 129.5,68.5C 127.347,66.6614 124.68,65.6614 121.5,65.5C 119.675,63.1969 117.842,60.8636 116,58.5C 115.421,57.0715 115.588,55.7382 116.5,54.5C 116.833,54.5 117.167,54.5 117.5,54.5C 117.351,55.552 117.517,56.552 118,57.5C 120.309,58.9752 122.476,60.6419 124.5,62.5C 124.833,62.3333 125.167,62.1667 125.5,62C 124.5,61 123.5,60 122.5,59C 127.479,58.8534 127.812,57.6868 123.5,55.5C 125.43,55.2294 126.764,54.2294 127.5,52.5 Z"/></g>
<g><path style="opacity:1" fill="#8b573b" d="M 117.5,54.5 C 119.402,56.1511 121.402,56.4845 123.5,55.5C 127.812,57.6868 127.479,58.8534 122.5,59C 123.5,60 124.5,61 125.5,62C 125.167,62.1667 124.833,62.3333 124.5,62.5C 122.476,60.6419 120.309,58.9752 118,57.5C 117.517,56.552 117.351,55.552 117.5,54.5 Z"/></g>
<g><path style="opacity:1" fill="#26140e" d="M 105.5,63.5 C 105.082,64.2216 104.416,64.7216 103.5,65C 104.167,65.3333 104.833,65.6667 105.5,66C 102.5,66.6667 99.5,66.6667 96.5,66C 96.8333,65.6667 97.1667,65.3333 97.5,65C 96.5842,64.7216 95.9175,64.2216 95.5,63.5C 96.915,62.7106 98.415,62.0439 100,61.5C 101.8,62.3195 103.634,62.9862 105.5,63.5 Z"/></g>
<g><path style="opacity:1" fill="#533022" d="M 103.5,68.5 C 102.735,68.9234 101.902,69.2568 101,69.5C 98.3226,68.778 95.8226,67.778 93.5,66.5C 91.3699,65.9681 89.3699,65.1348 87.5,64C 89.1341,63.5065 90.8008,63.3398 92.5,63.5C 93.5,63.5 94.5,63.5 95.5,63.5C 95.9175,64.2216 96.5842,64.7216 97.5,65C 97.1667,65.3333 96.8333,65.6667 96.5,66C 99.5,66.6667 102.5,66.6667 105.5,66C 104.833,65.6667 104.167,65.3333 103.5,65C 104.416,64.7216 105.082,64.2216 105.5,63.5C 107.099,63.7678 108.432,63.4345 109.5,62.5C 111.226,62.1854 112.893,62.0187 114.5,62C 113.833,62.6667 113.167,63.3333 112.5,64C 109.119,64.9149 106.119,66.4149 103.5,68.5 Z"/></g>
<g><path style="opacity:1" fill="#6d514a" d="M 56.5,62.5 C 56.1667,63.1667 55.8333,63.8333 55.5,64.5C 53.0733,64.523 50.74,65.023 48.5,66C 45.0252,68.2396 41.3585,70.2396 37.5,72C 30.3777,72.1766 23.3777,73.1766 16.5,75C 15.0155,78.6647 12.3488,80.498 8.5,80.5C 8.72148,77.9327 9.38815,75.5994 10.5,73.5C 18.7254,71.9304 27.0587,71.0971 35.5,71C 40.751,68.7358 45.751,66.0691 50.5,63C 52.4727,62.5045 54.4727,62.3379 56.5,62.5 Z"/></g>
<g><path style="opacity:1" fill="#cca05d" d="M 180.5,52.5 C 181.167,52.5 181.5,52.8333 181.5,53.5C 180.429,57.6776 180.429,62.0109 181.5,66.5C 180.027,65.2599 178.36,64.2599 176.5,63.5C 175.476,64.8532 174.143,65.5198 172.5,65.5C 171.69,67.7983 170.856,70.1316 170,72.5C 166.728,74.1078 163.728,76.1078 161,78.5C 159.772,82.4292 158.272,86.2625 156.5,90C 157.056,91.0111 157.722,91.8444 158.5,92.5C 157.5,92.5 156.5,92.5 155.5,92.5C 154.504,92.5858 153.671,92.2524 153,91.5C 152.833,84.4962 153.166,77.4962 154,70.5C 154.212,67.7478 155.045,65.2478 156.5,63C 155.852,61.5603 155.519,60.0603 155.5,58.5C 161.884,59.6238 168.051,59.6238 174,58.5C 176.69,56.9731 178.857,54.9731 180.5,52.5 Z"/></g>
<g><path style="opacity:1" fill="#b18344" d="M 181.5,66.5 C 181.5,68.1667 181.5,69.8333 181.5,71.5C 183.179,71.2852 184.179,71.9519 184.5,73.5C 171.69,72.619 164.024,78.619 161.5,91.5C 160.609,92.1098 159.609,92.4431 158.5,92.5C 157.722,91.8444 157.056,91.0111 156.5,90C 158.272,86.2625 159.772,82.4292 161,78.5C 163.728,76.1078 166.728,74.1078 170,72.5C 170.856,70.1316 171.69,67.7983 172.5,65.5C 174.143,65.5198 175.476,64.8532 176.5,63.5C 178.36,64.2599 180.027,65.2599 181.5,66.5 Z"/></g>
<g><path style="opacity:1" fill="#be8861" d="M 76.5,51.5 C 77.2891,51.7828 77.9558,52.2828 78.5,53C 77.1667,53.6667 76.1667,54.6667 75.5,56C 76.7111,57.1131 76.7111,58.2798 75.5,59.5C 77.2744,60.1867 78.9411,61.0201 80.5,62C 79.5494,62.7175 79.3828,63.5509 80,64.5C 82.163,62.8587 83.663,60.8587 84.5,58.5C 85.1534,59.8068 85.8201,61.1401 86.5,62.5C 85.2532,64.0421 85.2532,65.5421 86.5,67C 88.1368,67.6012 89.8034,68.1012 91.5,68.5C 92.7133,68.2528 93.38,67.5862 93.5,66.5C 95.8226,67.778 98.3226,68.778 101,69.5C 101.902,69.2568 102.735,68.9234 103.5,68.5C 107.755,68.3927 112.088,68.7261 116.5,69.5C 118.5,69 120.5,68.5 122.5,68C 121.748,67.3292 121.414,66.4959 121.5,65.5C 124.68,65.6614 127.347,66.6614 129.5,68.5C 127.596,68.7376 126.262,69.7376 125.5,71.5C 123.004,72.5804 120.67,73.9138 118.5,75.5C 115.359,74.6787 112.025,74.1787 108.5,74C 107.529,72.5187 106.196,71.6854 104.5,71.5C 99.1572,73.3085 91.8239,74.3085 82.5,74.5C 82.2322,76.099 82.5655,77.4324 83.5,78.5C 83.5,79.5 83.5,80.5 83.5,81.5C 81.1516,76.0246 77.3182,71.6912 72,68.5C 71.7546,62.398 73.2546,56.7314 76.5,51.5 Z"/></g>
<g><path style="opacity:1" fill="#f9f5eb" d="M 74.5,50.5 C 74.8417,51.3382 75.5084,51.6716 76.5,51.5C 73.2546,56.7314 71.7546,62.398 72,68.5C 77.3182,71.6912 81.1516,76.0246 83.5,81.5C 84.1098,82.391 84.4431,83.391 84.5,84.5C 83.7776,89.1419 82.9443,93.8086 82,98.5C 80.1427,100.518 77.976,102.185 75.5,103.5C 74.2528,105.323 73.5861,107.323 73.5,109.5C 73.6495,110.552 73.4828,111.552 73,112.5C 71.2287,113.304 69.7287,114.471 68.5,116C 69.624,116.249 70.624,116.749 71.5,117.5C 69.4733,118.693 67.9733,120.36 67,122.5C 66.5477,125.149 65.7143,127.649 64.5,130C 64.8333,130.333 65.1667,130.667 65.5,131C 62.8554,132.287 61.8554,134.453 62.5,137.5C 61.391,137.557 60.391,137.89 59.5,138.5C 56.5256,140.327 54.3589,142.993 53,146.5C 52.5172,145.552 52.3505,144.552 52.5,143.5C 52.5,142.833 52.5,142.167 52.5,141.5C 53.4345,140.432 53.7678,139.099 53.5,137.5C 54.8484,135.355 55.1818,133.188 54.5,131C 57.4637,130.16 57.797,129.16 55.5,128C 59.5523,125.968 61.219,122.801 60.5,118.5C 61.9872,116.039 63.6538,113.705 65.5,111.5C 66.7472,109.677 67.4139,107.677 67.5,105.5C 68.5,105.5 69.5,105.5 70.5,105.5C 70.5,103.833 70.5,102.167 70.5,100.5C 73.3799,99.1356 75.8799,97.1356 78,94.5C 78.5958,89.1202 78.2625,83.7869 77,78.5C 76.3918,76.9336 75.5585,75.6002 74.5,74.5C 72.4459,71.6274 70.1125,68.9608 67.5,66.5C 65.9539,64.1175 65.2872,61.4509 65.5,58.5C 66.404,57.791 66.7373,56.791 66.5,55.5C 66.8824,52.3497 68.2157,49.6831 70.5,47.5C 71.8518,48.5244 73.1851,49.5244 74.5,50.5 Z"/></g>
<g><path style="opacity:1" fill="#c19878" d="M 62.5,58.5 C 62.9382,58.4346 63.2716,58.6012 63.5,59C 62.1667,60.6667 60.8333,62.3333 59.5,64C 62.5584,63.4464 64.5584,61.6131 65.5,58.5C 65.2872,61.4509 65.9539,64.1175 67.5,66.5C 66.8333,66.5 66.5,66.8333 66.5,67.5C 64.0246,68.6874 63.0246,70.6874 63.5,73.5C 53.9482,71.0593 45.2815,72.726 37.5,78.5C 33.5408,79.3265 29.5408,79.8265 25.5,80C 21.9803,81.2571 18.9803,83.2571 16.5,86C 13.176,86.9428 9.84264,87.7761 6.5,88.5C 7.10978,87.609 7.44312,86.609 7.5,85.5C 13.5735,84.6 18.5735,81.7666 22.5,77C 27.5329,76.829 32.5329,76.329 37.5,75.5C 42.2546,72.7721 47.2546,70.4388 52.5,68.5C 53.5244,67.1482 54.5244,65.8149 55.5,64.5C 55.8333,63.8333 56.1667,63.1667 56.5,62.5C 58.5,61.1667 60.5,59.8333 62.5,58.5 Z"/></g>
<g><path style="opacity:1" fill="#a97d63" d="M 55.5,64.5 C 54.5244,65.8149 53.5244,67.1482 52.5,68.5C 47.2546,70.4388 42.2546,72.7721 37.5,75.5C 32.5329,76.329 27.5329,76.829 22.5,77C 18.5735,81.7666 13.5735,84.6 7.5,85.5C 7.62867,83.7839 7.962,82.1172 8.5,80.5C 12.3488,80.498 15.0155,78.6647 16.5,75C 23.3777,73.1766 30.3777,72.1766 37.5,72C 41.3585,70.2396 45.0252,68.2396 48.5,66C 50.74,65.023 53.0733,64.523 55.5,64.5 Z"/></g>
<g><path style="opacity:1" fill="#cb9e71" d="M 181.5,53.5 C 187.155,63.4638 190.821,74.1305 192.5,85.5C 189.569,83.9092 186.902,81.9092 184.5,79.5C 183.181,77.4684 183.181,75.4684 184.5,73.5C 184.179,71.9519 183.179,71.2852 181.5,71.5C 181.5,69.8333 181.5,68.1667 181.5,66.5C 180.429,62.0109 180.429,57.6776 181.5,53.5 Z"/></g>
<g><path style="opacity:1" fill="#eacaab" d="M 67.5,66.5 C 70.1125,68.9608 72.4459,71.6274 74.5,74.5C 73.2166,77.0104 72.2166,79.6771 71.5,82.5C 67.4246,82.8889 64.2579,84.8889 62,88.5C 60.3923,87.5668 59.559,88.2335 59.5,90.5C 59.6082,91.4419 59.9415,92.2753 60.5,93C 57.1206,93.711 55.6206,95.8777 56,99.5C 54.3005,100.406 52.4672,100.739 50.5,100.5C 50.5,102.5 50.5,104.5 50.5,106.5C 52.433,106.729 54.0997,107.562 55.5,109C 54.6433,109.689 53.9767,110.522 53.5,111.5C 48.4163,112.694 43.4163,114.194 38.5,116C 39.056,116.383 39.3893,116.883 39.5,117.5C 38.0689,116.918 36.7356,116.085 35.5,115C 35.9574,114.586 36.2907,114.086 36.5,113.5C 39.014,113.483 41.6806,112.983 44.5,112C 40.5,111.667 36.5,111.333 32.5,111C 34.1341,110.506 35.8008,110.34 37.5,110.5C 37.7355,102.793 41.0688,96.9601 47.5,93C 42.6725,92.3943 42.6725,91.061 47.5,89C 46.2068,88.51 44.8734,88.3433 43.5,88.5C 43.6741,86.139 44.0074,83.8056 44.5,81.5C 46.1992,81.6602 47.8659,81.4935 49.5,81C 50.2524,80.3292 50.5858,79.4959 50.5,78.5C 51.5,78.5 52.5,78.5 53.5,78.5C 53.3601,76.8762 54.0267,75.7096 55.5,75C 59.1667,74.6667 62.8333,74.3333 66.5,74C 67.768,71.8368 67.768,69.6702 66.5,67.5C 66.5,66.8333 66.8333,66.5 67.5,66.5 Z"/></g>
<g><path style="opacity:1" fill="#734125" d="M 104.5,71.5 C 105.81,73.1477 107.143,74.8144 108.5,76.5C 107.311,77.4287 105.978,77.762 104.5,77.5C 103.32,75.9855 102.32,74.3188 101.5,72.5C 100.893,72.6236 100.56,72.9569 100.5,73.5C 99.7975,76.203 98.1308,78.203 95.5,79.5C 93.1023,77.9457 90.6023,76.6123 88,75.5C 85.8155,75.6977 84.3155,76.6977 83.5,78.5C 82.5655,77.4324 82.2322,76.099 82.5,74.5C 91.8239,74.3085 99.1572,73.3085 104.5,71.5 Z"/></g>
<g><path style="opacity:1" fill="#5e443a" d="M 104.5,71.5 C 106.196,71.6854 107.529,72.5187 108.5,74C 112.025,74.1787 115.359,74.6787 118.5,75.5C 118.443,76.609 118.11,77.609 117.5,78.5C 114.721,80.8606 112.054,83.194 109.5,85.5C 107.533,85.7394 105.699,85.4061 104,84.5C 103.666,82.1527 103.833,79.8194 104.5,77.5C 105.978,77.762 107.311,77.4287 108.5,76.5C 107.143,74.8144 105.81,73.1477 104.5,71.5 Z"/></g>
<g><path style="opacity:1" fill="#4f3b35" d="M 100.5,73.5 C 100.971,77.874 99.971,81.874 97.5,85.5C 96.3966,85.9976 95.3966,86.3309 94.5,86.5C 96.1667,87.5 97.5,88.8333 98.5,90.5C 95.2329,91.7229 95.2329,93.5562 98.5,96C 97.4019,96.7697 97.4019,97.603 98.5,98.5C 96.8333,98.5 95.1667,98.5 93.5,98.5C 93.67,97.1779 93.3366,96.0113 92.5,95C 94.9856,94.2949 94.9856,93.4616 92.5,92.5C 90.1938,89.5271 87.5272,86.8605 84.5,84.5C 84.4431,83.391 84.1098,82.391 83.5,81.5C 83.5,80.5 83.5,79.5 83.5,78.5C 84.3155,76.6977 85.8155,75.6977 88,75.5C 90.6023,76.6123 93.1023,77.9457 95.5,79.5C 98.1308,78.203 99.7975,76.203 100.5,73.5 Z"/></g>
<g><path style="opacity:1" fill="#a39aa2" d="M 125.5,71.5 C 123.661,77.3541 122.661,83.3541 122.5,89.5C 119.931,88.6044 117.931,86.9377 116.5,84.5C 117.908,83.7568 119.241,82.9234 120.5,82C 117.057,81.7787 116.724,80.7787 119.5,79C 118.906,78.5357 118.239,78.369 117.5,78.5C 118.11,77.609 118.443,76.609 118.5,75.5C 120.67,73.9138 123.004,72.5804 125.5,71.5 Z"/></g>
<g><path style="opacity:1" fill="#996e47" d="M 184.5,73.5 C 183.181,75.4684 183.181,77.4684 184.5,79.5C 186.902,81.9092 189.569,83.9092 192.5,85.5C 192.557,86.609 192.89,87.609 193.5,88.5C 190.072,88.4535 187.072,87.2868 184.5,85C 181.987,81.771 179.154,78.9376 176,76.5C 170.964,79.7064 167.131,84.0397 164.5,89.5C 164.942,90.7387 165.609,91.7387 166.5,92.5C 164.708,92.634 163.042,92.3007 161.5,91.5C 164.024,78.619 171.69,72.619 184.5,73.5 Z"/></g>
<g><path style="opacity:1" fill="#e0b892" d="M 66.5,67.5 C 67.768,69.6702 67.768,71.8368 66.5,74C 62.8333,74.3333 59.1667,74.6667 55.5,75C 54.0267,75.7096 53.3601,76.8762 53.5,78.5C 52.5,78.5 51.5,78.5 50.5,78.5C 44.2018,81.7762 37.5351,84.1095 30.5,85.5C 30.1667,86.3333 29.8333,87.1667 29.5,88C 30.5127,90.0239 31.846,91.8572 33.5,93.5C 36.4093,98.6644 36.076,103.498 32.5,108C 32.8333,108.333 33.1667,108.667 33.5,109C 26.2733,110.768 18.94,112.101 11.5,113C 10.3474,114.883 8.68072,115.716 6.5,115.5C 6.5,106.5 6.5,97.5 6.5,88.5C 9.84264,87.7761 13.176,86.9428 16.5,86C 18.9803,83.2571 21.9803,81.2571 25.5,80C 29.5408,79.8265 33.5408,79.3265 37.5,78.5C 45.2815,72.726 53.9482,71.0593 63.5,73.5C 63.0246,70.6874 64.0246,68.6874 66.5,67.5 Z"/></g>
<g><path style="opacity:1" fill="#636778" d="M 117.5,78.5 C 118.239,78.369 118.906,78.5357 119.5,79C 116.724,80.7787 117.057,81.7787 120.5,82C 119.241,82.9234 117.908,83.7568 116.5,84.5C 117.931,86.9377 119.931,88.6044 122.5,89.5C 122.5,90.1667 122.5,90.8333 122.5,91.5C 122.167,92.1667 121.833,92.8333 121.5,93.5C 119.83,93.2488 118.33,92.5822 117,91.5C 112.093,98.3918 109.926,97.7252 110.5,89.5C 110.611,88.8826 110.944,88.3826 111.5,88C 110.167,88 108.833,88 107.5,88C 108.381,87.2917 109.047,86.4584 109.5,85.5C 112.054,83.194 114.721,80.8606 117.5,78.5 Z"/></g>
<g><path style="opacity:1" fill="#69482f" d="M 193.5,88.5 C 193.5,90.1667 193.5,91.8333 193.5,93.5C 184.476,93.6416 175.476,93.3083 166.5,92.5C 165.609,91.7387 164.942,90.7387 164.5,89.5C 167.131,84.0397 170.964,79.7064 176,76.5C 179.154,78.9376 181.987,81.771 184.5,85C 187.072,87.2868 190.072,88.4535 193.5,88.5 Z"/></g>
<g><path style="opacity:1" fill="#443127" d="M 175.5,84.5 C 179.095,87.1294 183.095,88.9627 187.5,90C 182.809,91.827 177.976,91.9936 173,90.5C 172.5,90.1667 172,89.8333 171.5,89.5C 173.552,88.3892 174.886,86.7225 175.5,84.5 Z"/></g>
<g><path style="opacity:1" fill="#e9c7a2" d="M 137.5,56.5 C 138.989,58.1161 139.989,60.1161 140.5,62.5C 143.58,64.7681 146.746,66.7681 150,68.5C 149.15,75.1832 148.65,81.8499 148.5,88.5C 148.946,91.2933 150.279,93.6267 152.5,95.5C 154.966,96.1235 157.299,96.9568 159.5,98C 170.828,98.4999 182.162,98.6665 193.5,98.5C 193.5,99.5 193.5,100.5 193.5,101.5C 181.151,101.433 168.818,100.933 156.5,100C 152.973,99.049 149.64,97.7157 146.5,96C 142.267,92.363 141.6,88.1963 144.5,83.5C 142.802,78.2426 140.802,73.076 138.5,68C 138.645,67.228 138.978,66.5613 139.5,66C 138.357,63.5746 137.024,61.4079 135.5,59.5C 136.551,58.7777 137.218,57.7777 137.5,56.5 Z"/></g>
<g><path style="opacity:1" fill="#deb385" d="M 137.5,56.5 C 137.5,55.8333 137.833,55.5 138.5,55.5C 141.063,56.1999 143.563,57.1999 146,58.5C 149.099,57.8733 152.266,57.8733 155.5,58.5C 155.519,60.0603 155.852,61.5603 156.5,63C 155.045,65.2478 154.212,67.7478 154,70.5C 153.166,77.4962 152.833,84.4962 153,91.5C 153.671,92.2524 154.504,92.5858 155.5,92.5C 156.347,93.9663 157.68,94.7996 159.5,95C 170.79,96.3256 182.123,96.8256 193.5,96.5C 193.5,97.1667 193.5,97.8333 193.5,98.5C 182.162,98.6665 170.828,98.4999 159.5,98C 157.299,96.9568 154.966,96.1235 152.5,95.5C 150.279,93.6267 148.946,91.2933 148.5,88.5C 148.65,81.8499 149.15,75.1832 150,68.5C 146.746,66.7681 143.58,64.7681 140.5,62.5C 139.989,60.1161 138.989,58.1161 137.5,56.5 Z"/></g>
<g><path style="opacity:1" fill="#bf8e68" d="M 161.5,91.5 C 163.042,92.3007 164.708,92.634 166.5,92.5C 175.476,93.3083 184.476,93.6416 193.5,93.5C 193.5,94.5 193.5,95.5 193.5,96.5C 182.123,96.8256 170.79,96.3256 159.5,95C 157.68,94.7996 156.347,93.9663 155.5,92.5C 156.5,92.5 157.5,92.5 158.5,92.5C 159.609,92.4431 160.609,92.1098 161.5,91.5 Z"/></g>
<g><path style="opacity:1" fill="#231d1e" d="M 104.5,77.5 C 103.833,79.8194 103.666,82.1527 104,84.5C 105.699,85.4061 107.533,85.7394 109.5,85.5C 109.047,86.4584 108.381,87.2917 107.5,88C 108.833,88 110.167,88 111.5,88C 110.944,88.3826 110.611,88.8826 110.5,89.5C 109.883,89.6107 109.383,89.944 109,90.5C 108.033,94.6287 107.533,98.6287 107.5,102.5C 106.5,102.833 105.833,103.5 105.5,104.5C 103.738,105.262 102.738,106.596 102.5,108.5C 101.542,108.047 100.708,107.381 100,106.5C 98.8618,103.713 98.3618,101.047 98.5,98.5C 97.4019,97.603 97.4019,96.7697 98.5,96C 95.2329,93.5562 95.2329,91.7229 98.5,90.5C 97.5,88.8333 96.1667,87.5 94.5,86.5C 95.3966,86.3309 96.3966,85.9976 97.5,85.5C 99.971,81.874 100.971,77.874 100.5,73.5C 100.56,72.9569 100.893,72.6236 101.5,72.5C 102.32,74.3188 103.32,75.9855 104.5,77.5 Z"/></g>
<g><path style="opacity:1" fill="#7c6b66" d="M 127.5,96.5 C 133.19,100.857 136.857,106.524 138.5,113.5C 137.883,113.611 137.383,113.944 137,114.5C 136.3,112.968 135.134,111.968 133.5,111.5C 132.494,111.938 132.494,112.604 133.5,113.5C 132.635,114.583 131.635,114.749 130.5,114C 130.5,112 130.5,110 130.5,108C 131.167,107.667 131.833,107.333 132.5,107C 129.527,105.353 126.86,103.353 124.5,101C 128.852,100.581 129.185,99.9145 125.5,99C 126.381,98.2917 127.047,97.4584 127.5,96.5 Z"/></g>
<g><path style="opacity:1" fill="#f0d8be" d="M 132.5,73.5 C 132.75,74.9221 133.583,75.9221 135,76.5C 135.494,78.1341 135.66,79.8008 135.5,81.5C 137.942,81.3537 138.609,82.187 137.5,84C 139.781,85.4823 139.781,87.149 137.5,89C 138.584,92.7988 140.917,95.4654 144.5,97C 144.167,97.3333 143.833,97.6667 143.5,98C 151.816,101.292 160.483,102.959 169.5,103C 177.78,104.554 181.78,109.554 181.5,118C 180.877,122.147 180.544,126.314 180.5,130.5C 178.688,130.771 177.022,131.438 175.5,132.5C 169.493,136.849 163.826,141.515 158.5,146.5C 155.279,147.907 151.945,148.907 148.5,149.5C 148.083,146.921 148.75,144.754 150.5,143C 149.756,141.961 148.756,141.461 147.5,141.5C 147.737,140.209 147.404,139.209 146.5,138.5C 146.784,136.585 146.451,134.919 145.5,133.5C 145.611,132.883 145.944,132.383 146.5,132C 143.487,126.132 141.154,119.965 139.5,113.5C 141.308,113.491 142.975,113.991 144.5,115C 143.5,115.333 142.5,115.667 141.5,116C 143.808,117.588 144.475,119.588 143.5,122C 144.448,122.483 145.448,122.649 146.5,122.5C 146.64,124.124 145.973,125.29 144.5,126C 146.77,128.475 149.437,130.475 152.5,132C 151.552,132.483 150.552,132.649 149.5,132.5C 150.735,134.773 150.402,136.606 148.5,138C 149.715,140.096 150.549,139.929 151,137.5C 152.188,138.563 152.688,139.897 152.5,141.5C 154.575,141.698 156.575,141.865 158.5,142C 160.351,140.316 162.018,138.483 163.5,136.5C 168.811,134.755 173.144,131.755 176.5,127.5C 176.32,126.446 175.987,125.446 175.5,124.5C 170.432,123.717 165.765,122.051 161.5,119.5C 160.554,117.058 159.054,115.058 157,113.5C 156.632,114.91 155.799,115.91 154.5,116.5C 153.893,114.534 153.893,112.368 154.5,110C 153.708,108.04 152.375,106.54 150.5,105.5C 149.754,104.264 149.421,102.93 149.5,101.5C 145.272,99.695 140.938,98.3617 136.5,97.5C 136.665,94.4816 136.498,91.4816 136,88.5C 134.312,87.6753 134.145,86.6753 135.5,85.5C 133.611,82.7745 131.277,80.6078 128.5,79C 129.863,77.0551 130.697,74.8884 131,72.5C 131.383,73.056 131.883,73.3893 132.5,73.5 Z"/></g>
<g><path style="opacity:1" fill="#f1ddc7" d="M 132.5,73.5 C 131.883,73.3893 131.383,73.056 131,72.5C 130.697,74.8884 129.863,77.0551 128.5,79C 131.277,80.6078 133.611,82.7745 135.5,85.5C 134.145,86.6753 134.312,87.6753 136,88.5C 136.498,91.4816 136.665,94.4816 136.5,97.5C 140.938,98.3617 145.272,99.695 149.5,101.5C 149.421,102.93 149.754,104.264 150.5,105.5C 152.375,106.54 153.708,108.04 154.5,110C 153.893,112.368 153.893,114.534 154.5,116.5C 155.799,115.91 156.632,114.91 157,113.5C 159.054,115.058 160.554,117.058 161.5,119.5C 165.765,122.051 170.432,123.717 175.5,124.5C 175.987,125.446 176.32,126.446 176.5,127.5C 173.144,131.755 168.811,134.755 163.5,136.5C 162.018,138.483 160.351,140.316 158.5,142C 156.575,141.865 154.575,141.698 152.5,141.5C 152.688,139.897 152.188,138.563 151,137.5C 150.549,139.929 149.715,140.096 148.5,138C 150.402,136.606 150.735,134.773 149.5,132.5C 150.552,132.649 151.552,132.483 152.5,132C 149.437,130.475 146.77,128.475 144.5,126C 145.973,125.29 146.64,124.124 146.5,122.5C 145.448,122.649 144.448,122.483 143.5,122C 144.475,119.588 143.808,117.588 141.5,116C 142.5,115.667 143.5,115.333 144.5,115C 142.975,113.991 141.308,113.491 139.5,113.5C 139.167,113.5 138.833,113.5 138.5,113.5C 136.857,106.524 133.19,100.857 127.5,96.5C 126.167,94.5 124.5,92.8333 122.5,91.5C 122.5,90.8333 122.5,90.1667 122.5,89.5C 122.661,83.3541 123.661,77.3541 125.5,71.5C 127.558,70.0669 129.892,69.4003 132.5,69.5C 132.5,70.8333 132.5,72.1667 132.5,73.5 Z"/></g>
<g><path style="opacity:1" fill="#ecd3bc" d="M 74.5,74.5 C 75.5585,75.6002 76.3918,76.9336 77,78.5C 78.2625,83.7869 78.5958,89.1202 78,94.5C 75.8799,97.1356 73.3799,99.1356 70.5,100.5C 70.5,102.167 70.5,103.833 70.5,105.5C 69.5,105.5 68.5,105.5 67.5,105.5C 67.4139,107.677 66.7472,109.677 65.5,111.5C 63.6538,113.705 61.9872,116.039 60.5,118.5C 61.219,122.801 59.5523,125.968 55.5,128C 57.797,129.16 57.4637,130.16 54.5,131C 55.1818,133.188 54.8484,135.355 53.5,137.5C 48.311,135.743 42.9777,134.41 37.5,133.5C 36.9887,129.612 38.6553,127.279 42.5,126.5C 42.8333,125.667 43.1667,124.833 43.5,124C 43.0566,122.175 42.7233,120.342 42.5,118.5C 41.209,118.737 40.209,118.404 39.5,117.5C 39.3893,116.883 39.056,116.383 38.5,116C 43.4163,114.194 48.4163,112.694 53.5,111.5C 53.9767,110.522 54.6433,109.689 55.5,109C 54.0997,107.562 52.433,106.729 50.5,106.5C 50.5,104.5 50.5,102.5 50.5,100.5C 52.4672,100.739 54.3005,100.406 56,99.5C 55.6206,95.8777 57.1206,93.711 60.5,93C 59.9415,92.2753 59.6082,91.4419 59.5,90.5C 59.559,88.2335 60.3923,87.5668 62,88.5C 64.2579,84.8889 67.4246,82.8889 71.5,82.5C 72.2166,79.6771 73.2166,77.0104 74.5,74.5 Z"/></g>
<g><path style="opacity:1" fill="#39414f" d="M 110.5,89.5 C 109.926,97.7252 112.093,98.3918 117,91.5C 118.33,92.5822 119.83,93.2488 121.5,93.5C 122.509,94.9391 122.176,96.2724 120.5,97.5C 121.262,97.9106 122.262,98.0773 123.5,98C 121.35,99.1923 120.683,100.692 121.5,102.5C 118.547,103.787 116.214,105.787 114.5,108.5C 113.928,105.756 112.262,104.923 109.5,106C 110.883,107.461 110.549,108.294 108.5,108.5C 107.85,106.565 107.517,104.565 107.5,102.5C 107.533,98.6287 108.033,94.6287 109,90.5C 109.383,89.944 109.883,89.6107 110.5,89.5 Z"/></g>
<g><path style="opacity:0.976" fill="#edd2b6" d="M 135.5,59.5 C 137.024,61.4079 138.357,63.5746 139.5,66C 138.978,66.5613 138.645,67.228 138.5,68C 140.802,73.076 142.802,78.2426 144.5,83.5C 141.6,88.1963 142.267,92.363 146.5,96C 149.64,97.7157 152.973,99.049 156.5,100C 168.818,100.933 181.151,101.433 193.5,101.5C 194.234,111.91 192.9,121.91 189.5,131.5C 189.238,129.436 188.071,128.103 186,127.5C 184.512,129.16 182.679,130.16 180.5,130.5C 180.544,126.314 180.877,122.147 181.5,118C 181.78,109.554 177.78,104.554 169.5,103C 160.483,102.959 151.816,101.292 143.5,98C 143.833,97.6667 144.167,97.3333 144.5,97C 140.917,95.4654 138.584,92.7988 137.5,89C 139.781,87.149 139.781,85.4823 137.5,84C 138.609,82.187 137.942,81.3537 135.5,81.5C 135.66,79.8008 135.494,78.1341 135,76.5C 133.583,75.9221 132.75,74.9221 132.5,73.5C 132.5,72.1667 132.5,70.8333 132.5,69.5C 129.892,69.4003 127.558,70.0669 125.5,71.5C 126.262,69.7376 127.596,68.7376 129.5,68.5C 132.382,66.5629 133.715,64.0629 133.5,61C 132.035,59.2258 130.702,57.3925 129.5,55.5C 131.144,55.7135 132.644,55.3802 134,54.5C 134.198,56.3817 134.698,58.0484 135.5,59.5 Z"/></g>
<g><path style="opacity:1" fill="#c2a995" d="M 88.5,110.5 C 88.5,109.833 88.5,109.167 88.5,108.5C 88.2322,106.901 88.5655,105.568 89.5,104.5C 89.3114,108.348 89.3114,112.015 89.5,115.5C 90.711,113.578 92.0443,111.745 93.5,110C 92.3086,107.274 92.642,104.774 94.5,102.5C 95.7666,101.913 96.7666,101.913 97.5,102.5C 96.6102,103.711 96.6102,105.045 97.5,106.5C 96.9904,108.088 95.9904,109.255 94.5,110C 95.938,110.219 97.2713,110.719 98.5,111.5C 96.4857,113.018 94.4857,113.685 92.5,113.5C 91.8108,115.444 91.3108,117.444 91,119.5C 90.2904,118.027 89.1238,117.36 87.5,117.5C 87.448,115.097 87.7814,112.764 88.5,110.5 Z"/></g>
<g><path style="opacity:1" fill="#755c4e" d="M 92.5,92.5 C 94.9856,93.4616 94.9856,94.2949 92.5,95C 93.3366,96.0113 93.67,97.1779 93.5,98.5C 95.1667,98.5 96.8333,98.5 98.5,98.5C 98.3618,101.047 98.8618,103.713 100,106.5C 100.708,107.381 101.542,108.047 102.5,108.5C 102.5,111.5 102.5,114.5 102.5,117.5C 98.7268,113.249 96.0601,114.083 94.5,120C 97.1254,122.671 98.7921,125.504 99.5,128.5C 98.7573,129.182 98.0906,129.849 97.5,130.5C 97.4226,131.75 96.756,132.583 95.5,133C 95.5479,135.127 95.7145,137.294 96,139.5C 94.4702,140.636 93.1369,141.636 92,142.5C 91.7216,141.584 91.2216,140.918 90.5,140.5C 90.6107,139.883 90.944,139.383 91.5,139C 87.5644,139.149 87.5644,137.983 91.5,135.5C 90.5092,133.877 91.1759,132.877 93.5,132.5C 97.9086,127.726 96.9086,124.726 90.5,123.5C 89.9101,122.234 89.4101,120.901 89,119.5C 87.0395,122.137 85.0395,124.803 83,127.5C 82.6012,127.272 82.4346,126.938 82.5,126.5C 82.5,126.167 82.5,125.833 82.5,125.5C 83.3238,121.688 83.8238,117.688 84,113.5C 84.5885,111.137 86.0885,110.137 88.5,110.5C 87.7814,112.764 87.448,115.097 87.5,117.5C 89.1238,117.36 90.2904,118.027 91,119.5C 91.3108,117.444 91.8108,115.444 92.5,113.5C 94.4857,113.685 96.4857,113.018 98.5,111.5C 97.2713,110.719 95.938,110.219 94.5,110C 95.9904,109.255 96.9904,108.088 97.5,106.5C 96.6102,105.045 96.6102,103.711 97.5,102.5C 96.7666,101.913 95.7666,101.913 94.5,102.5C 91.9372,99.4953 91.2706,96.162 92.5,92.5 Z"/></g>
<g><path style="opacity:1" fill="#4b352c" d="M 88.5,108.5 C 88.5,109.167 88.5,109.833 88.5,110.5C 86.0885,110.137 84.5885,111.137 84,113.5C 83.8238,117.688 83.3238,121.688 82.5,125.5C 82.6495,124.448 82.4828,123.448 82,122.5C 81.2303,123.598 80.397,123.598 79.5,122.5C 79.1667,121.833 78.8333,121.167 78.5,120.5C 78.8881,118.315 79.8881,116.482 81.5,115C 81.1802,113.347 80.1802,112.347 78.5,112C 80.8572,110.78 80.5239,109.947 77.5,109.5C 77.9175,108.778 78.5842,108.278 79.5,108C 79.1667,107.667 78.8333,107.333 78.5,107C 80.4665,105.115 82.4665,103.948 84.5,103.5C 85.8872,105.21 87.2206,106.877 88.5,108.5 Z"/></g>
<g><path style="opacity:1" fill="#eadbc8" d="M 84.5,84.5 C 87.5272,86.8605 90.1938,89.5271 92.5,92.5C 91.2706,96.162 91.9372,99.4953 94.5,102.5C 92.642,104.774 92.3086,107.274 93.5,110C 92.0443,111.745 90.711,113.578 89.5,115.5C 89.3114,112.015 89.3114,108.348 89.5,104.5C 90.7815,101.269 90.7815,97.9359 89.5,94.5C 88.9344,92.9217 87.9344,91.5884 86.5,90.5C 84.5493,93.954 83.0493,97.6206 82,101.5C 79.7877,102.12 77.9544,103.287 76.5,105C 76.5699,105.765 76.9033,106.265 77.5,106.5C 77.5,107.167 77.1667,107.5 76.5,107.5C 75.2223,107.782 74.2223,108.449 73.5,109.5C 73.5861,107.323 74.2528,105.323 75.5,103.5C 77.976,102.185 80.1427,100.518 82,98.5C 82.9443,93.8086 83.7776,89.1419 84.5,84.5 Z"/></g>
<g><path style="opacity:1" fill="#7b6457" d="M 89.5,94.5 C 90.7815,97.9359 90.7815,101.269 89.5,104.5C 88.5655,105.568 88.2322,106.901 88.5,108.5C 87.2206,106.877 85.8872,105.21 84.5,103.5C 82.4665,103.948 80.4665,105.115 78.5,107C 78.8333,107.333 79.1667,107.667 79.5,108C 78.5842,108.278 77.9175,108.778 77.5,109.5C 76.6618,109.158 76.3284,108.492 76.5,107.5C 77.1667,107.5 77.5,107.167 77.5,106.5C 79.3253,104.34 81.6587,102.84 84.5,102C 83.7203,100.927 83.887,99.7604 85,98.5C 85.3333,98.8333 85.6667,99.1667 86,99.5C 86.2734,97.8988 86.7734,96.3988 87.5,95C 87.1667,94.6667 86.8333,94.3333 86.5,94C 87.5768,93.5304 88.5768,93.6971 89.5,94.5 Z"/></g>
<g><path style="opacity:1" fill="#b09681" d="M 89.5,94.5 C 88.5768,93.6971 87.5768,93.5304 86.5,94C 86.8333,94.3333 87.1667,94.6667 87.5,95C 86.7734,96.3988 86.2734,97.8988 86,99.5C 85.6667,99.1667 85.3333,98.8333 85,98.5C 83.887,99.7604 83.7203,100.927 84.5,102C 81.6587,102.84 79.3253,104.34 77.5,106.5C 76.9033,106.265 76.5699,105.765 76.5,105C 77.9544,103.287 79.7877,102.12 82,101.5C 83.0493,97.6206 84.5493,93.954 86.5,90.5C 87.9344,91.5884 88.9344,92.9217 89.5,94.5 Z"/></g>
<g><path style="opacity:1" fill="#ead7b4" d="M 106.5,108.5 C 107.537,110.738 107.703,113.071 107,115.5C 106.23,116.598 105.397,116.598 104.5,115.5C 103.366,113.034 103.199,110.367 104,107.5C 104.671,108.252 105.504,108.586 106.5,108.5 Z"/></g>
<g><path style="opacity:1" fill="#5e5d64" d="M 114.5,108.5 C 115.968,109.779 116.635,111.446 116.5,113.5C 116.5,114.833 116.5,116.167 116.5,117.5C 109.65,118.915 106.983,115.915 108.5,108.5C 110.549,108.294 110.883,107.461 109.5,106C 112.262,104.923 113.928,105.756 114.5,108.5 Z"/></g>
<g><path style="opacity:1" fill="#e3c09f" d="M 50.5,78.5 C 50.5858,79.4959 50.2524,80.3292 49.5,81C 47.8659,81.4935 46.1992,81.6602 44.5,81.5C 44.0074,83.8056 43.6741,86.139 43.5,88.5C 44.8734,88.3433 46.2068,88.51 47.5,89C 42.6725,91.061 42.6725,92.3943 47.5,93C 41.0688,96.9601 37.7355,102.793 37.5,110.5C 35.8008,110.34 34.1341,110.506 32.5,111C 36.5,111.333 40.5,111.667 44.5,112C 41.6806,112.983 39.014,113.483 36.5,113.5C 36.2907,114.086 35.9574,114.586 35.5,115C 36.7356,116.085 38.0689,116.918 39.5,117.5C 40.209,118.404 41.209,118.737 42.5,118.5C 42.7233,120.342 43.0566,122.175 43.5,124C 43.1667,124.833 42.8333,125.667 42.5,126.5C 38.6553,127.279 36.9887,129.612 37.5,133.5C 42.9777,134.41 48.311,135.743 53.5,137.5C 53.7678,139.099 53.4345,140.432 52.5,141.5C 52.5,140.5 52.5,139.5 52.5,138.5C 46.3745,138.311 40.3745,137.644 34.5,136.5C 33.1727,134.818 31.5061,133.485 29.5,132.5C 28.962,130.883 28.6287,129.216 28.5,127.5C 30.5,127.167 32.5,126.833 34.5,126.5C 34.4249,123.794 34.0916,121.127 33.5,118.5C 27.5,117.167 21.5,117.167 15.5,118.5C 14.1667,121.167 14.1667,123.833 15.5,126.5C 13.139,126.326 10.8056,125.993 8.5,125.5C 7.9604,122.135 7.29373,118.802 6.5,115.5C 8.68072,115.716 10.3474,114.883 11.5,113C 18.94,112.101 26.2733,110.768 33.5,109C 33.1667,108.667 32.8333,108.333 32.5,108C 36.076,103.498 36.4093,98.6644 33.5,93.5C 31.846,91.8572 30.5127,90.0239 29.5,88C 29.8333,87.1667 30.1667,86.3333 30.5,85.5C 37.5351,84.1095 44.2018,81.7762 50.5,78.5 Z"/></g>
<g><path style="opacity:1" fill="#bb976f" d="M 105.5,104.5 C 106.434,105.568 106.768,106.901 106.5,108.5C 105.504,108.586 104.671,108.252 104,107.5C 103.199,110.367 103.366,113.034 104.5,115.5C 104.167,116.5 103.5,117.167 102.5,117.5C 102.5,114.5 102.5,111.5 102.5,108.5C 102.738,106.596 103.738,105.262 105.5,104.5 Z"/></g>
<g><path style="opacity:1" fill="#bea68e" d="M 76.5,107.5 C 76.3284,108.492 76.6618,109.158 77.5,109.5C 77.2786,110.735 76.6119,111.735 75.5,112.5C 75.7093,113.086 76.0426,113.586 76.5,114C 74.8333,114.333 73.1667,114.667 71.5,115C 76.0462,115.81 76.3795,117.143 72.5,119C 73.5,119.333 74.5,119.667 75.5,120C 72.3609,120.892 70.0276,122.725 68.5,125.5C 69.376,126.251 70.376,126.751 71.5,127C 70.944,127.383 70.6107,127.883 70.5,128.5C 68.8929,131.443 66.8929,134.11 64.5,136.5C 63.8333,136.833 63.1667,137.167 62.5,137.5C 61.8554,134.453 62.8554,132.287 65.5,131C 65.1667,130.667 64.8333,130.333 64.5,130C 65.7143,127.649 66.5477,125.149 67,122.5C 67.9733,120.36 69.4733,118.693 71.5,117.5C 70.624,116.749 69.624,116.249 68.5,116C 69.7287,114.471 71.2287,113.304 73,112.5C 73.4828,111.552 73.6495,110.552 73.5,109.5C 74.2223,108.449 75.2223,107.782 76.5,107.5 Z"/></g>
<g><path style="opacity:1" fill="#534a48" d="M 122.5,91.5 C 124.5,92.8333 126.167,94.5 127.5,96.5C 127.047,97.4584 126.381,98.2917 125.5,99C 129.185,99.9145 128.852,100.581 124.5,101C 126.86,103.353 129.527,105.353 132.5,107C 131.833,107.333 131.167,107.667 130.5,108C 130.5,110 130.5,112 130.5,114C 131.635,114.749 132.635,114.583 133.5,113.5C 132.494,112.604 132.494,111.938 133.5,111.5C 135.134,111.968 136.3,112.968 137,114.5C 137.383,113.944 137.883,113.611 138.5,113.5C 138.646,115.942 137.813,116.609 136,115.5C 135.676,117.569 134.842,117.902 133.5,116.5C 132.692,116.808 132.025,117.308 131.5,118C 134.146,118.497 136.813,118.664 139.5,118.5C 139.634,120.292 139.301,121.958 138.5,123.5C 135.539,122.796 135.206,123.463 137.5,125.5C 137,125.833 136.5,126.167 136,126.5C 134.667,125.833 133.333,125.167 132,124.5C 125.002,127.05 124.836,126.55 131.5,123C 126.676,122.004 126.009,120.337 129.5,118C 128.5,117 127.5,116 126.5,115C 127.167,114.333 127.833,113.667 128.5,113C 126.744,112.86 125.078,113.36 123.5,114.5C 121.512,113.711 121.179,112.545 122.5,111C 121.833,110.667 121.167,110.333 120.5,110C 122.792,108.71 124.792,107.043 126.5,105C 125.333,104.5 124.5,103.667 124,102.5C 121.7,106.419 120.867,106.419 121.5,102.5C 120.683,100.692 121.35,99.1923 123.5,98C 122.262,98.0773 121.262,97.9106 120.5,97.5C 122.176,96.2724 122.509,94.9391 121.5,93.5C 121.833,92.8333 122.167,92.1667 122.5,91.5 Z"/></g>
<g><path style="opacity:1" fill="#745846" d="M 77.5,109.5 C 80.5239,109.947 80.8572,110.78 78.5,112C 80.1802,112.347 81.1802,113.347 81.5,115C 79.8881,116.482 78.8881,118.315 78.5,120.5C 77.7611,120.369 77.0944,120.536 76.5,121C 76.0348,123.183 74.8682,125.35 73,127.5C 72.3292,128.252 71.4959,128.586 70.5,128.5C 70.6107,127.883 70.944,127.383 71.5,127C 70.376,126.751 69.376,126.251 68.5,125.5C 70.0276,122.725 72.3609,120.892 75.5,120C 74.5,119.667 73.5,119.333 72.5,119C 76.3795,117.143 76.0462,115.81 71.5,115C 73.1667,114.667 74.8333,114.333 76.5,114C 76.0426,113.586 75.7093,113.086 75.5,112.5C 76.6119,111.735 77.2786,110.735 77.5,109.5 Z"/></g>
<g><path style="opacity:1" fill="#433329" d="M 121.5,102.5 C 120.867,106.419 121.7,106.419 124,102.5C 124.5,103.667 125.333,104.5 126.5,105C 124.792,107.043 122.792,108.71 120.5,110C 121.167,110.333 121.833,110.667 122.5,111C 121.179,112.545 121.512,113.711 123.5,114.5C 125.078,113.36 126.744,112.86 128.5,113C 127.833,113.667 127.167,114.333 126.5,115C 127.5,116 128.5,117 129.5,118C 126.009,120.337 126.676,122.004 131.5,123C 124.836,126.55 125.002,127.05 132,124.5C 133.333,125.167 134.667,125.833 136,126.5C 136.5,126.167 137,125.833 137.5,125.5C 135.206,123.463 135.539,122.796 138.5,123.5C 139.249,124.531 139.915,125.698 140.5,127C 138.699,127.317 138.366,127.984 139.5,129C 138.101,129.595 136.768,129.428 135.5,128.5C 134.707,129.355 135.04,130.189 136.5,131C 131.556,129.999 131.223,130.999 135.5,134C 134.944,134.383 134.611,134.883 134.5,135.5C 131.892,133.897 129.559,131.897 127.5,129.5C 125.677,128.253 123.677,127.586 121.5,127.5C 122.096,129.398 122.096,131.065 121.5,132.5C 121.5,131.833 121.167,131.5 120.5,131.5C 118.025,130.313 117.025,128.313 117.5,125.5C 119.013,121.163 119.68,116.83 119.5,112.5C 119.333,112.167 119.167,111.833 119,111.5C 118.292,112.381 117.458,113.047 116.5,113.5C 116.635,111.446 115.968,109.779 114.5,108.5C 116.214,105.787 118.547,103.787 121.5,102.5 Z"/></g>
<g><path style="opacity:1" fill="#5d361f" d="M 78.5,120.5 C 78.8333,121.167 79.1667,121.833 79.5,122.5C 79.6495,123.552 79.4828,124.552 79,125.5C 73.9787,129.691 69.1454,134.025 64.5,138.5C 64.5,137.833 64.5,137.167 64.5,136.5C 66.8929,134.11 68.8929,131.443 70.5,128.5C 71.4959,128.586 72.3292,128.252 73,127.5C 74.8682,125.35 76.0348,123.183 76.5,121C 77.0944,120.536 77.7611,120.369 78.5,120.5 Z"/></g>
<g><path style="opacity:1" fill="#c7966f" d="M 29.5,132.5 C 26.5617,131.372 23.5617,130.205 20.5,129C 16.8484,128.501 13.1817,128.335 9.5,128.5C 8.89022,127.609 8.55688,126.609 8.5,125.5C 10.8056,125.993 13.139,126.326 15.5,126.5C 14.1667,123.833 14.1667,121.167 15.5,118.5C 21.5,117.167 27.5,117.167 33.5,118.5C 34.0916,121.127 34.4249,123.794 34.5,126.5C 32.5,126.833 30.5,127.167 28.5,127.5C 28.6287,129.216 28.962,130.883 29.5,132.5 Z"/></g>
<g><path style="opacity:1" fill="#8d5c43" d="M 20.5,121.5 C 23.1873,121.336 25.854,121.503 28.5,122C 29.3366,123.011 29.67,124.178 29.5,125.5C 26.4816,125.665 23.4816,125.498 20.5,125C 19.3157,123.855 19.3157,122.688 20.5,121.5 Z"/></g>
<g><path style="opacity:1" fill="#9e715b" d="M 9.5,129.5 C 9.5,129.167 9.5,128.833 9.5,128.5C 13.1817,128.335 16.8484,128.501 20.5,129C 23.5617,130.205 26.5617,131.372 29.5,132.5C 31.5061,133.485 33.1727,134.818 34.5,136.5C 30.2101,136.784 26.8768,135.284 24.5,132C 19.5431,130.842 14.5431,130.008 9.5,129.5 Z"/></g>
<g><path style="opacity:1" fill="#211612" d="M 102.5,117.5 C 102.5,120.833 102.5,124.167 102.5,127.5C 101.886,131.135 101.552,134.802 101.5,138.5C 101.824,142.555 101.491,146.555 100.5,150.5C 99.0499,149.15 98.3832,147.484 98.5,145.5C 98.304,141.682 98.6373,137.682 99.5,133.5C 99.0576,132.261 98.3909,131.261 97.5,130.5C 98.0906,129.849 98.7573,129.182 99.5,128.5C 98.7921,125.504 97.1254,122.671 94.5,120C 96.0601,114.083 98.7268,113.249 102.5,117.5 Z"/></g>
<g><path style="opacity:1" fill="#dac097" d="M 63.5,118.5 C 64.7251,119.152 65.3917,120.319 65.5,122C 64.2303,126.46 62.2303,130.627 59.5,134.5C 57.6891,130.787 58.6891,128.454 62.5,127.5C 63.408,124.415 63.7413,121.415 63.5,118.5 Z"/></g>
<g><path style="opacity:1" fill="#cbb59e" d="M 90.5,123.5 C 96.9086,124.726 97.9086,127.726 93.5,132.5C 91.1759,132.877 90.5092,133.877 91.5,135.5C 87.5644,137.983 87.5644,139.149 91.5,139C 90.944,139.383 90.6107,139.883 90.5,140.5C 89.5987,141.29 88.9321,142.29 88.5,143.5C 87.8333,143.833 87.1667,144.167 86.5,144.5C 86.9075,139.463 87.5742,134.463 88.5,129.5C 90.0808,127.858 90.7475,125.858 90.5,123.5 Z"/></g>
<g><path style="opacity:1" fill="#634e42" d="M 107.5,102.5 C 107.517,104.565 107.85,106.565 108.5,108.5C 106.983,115.915 109.65,118.915 116.5,117.5C 116.5,116.167 116.5,114.833 116.5,113.5C 117.458,113.047 118.292,112.381 119,111.5C 119.167,111.833 119.333,112.167 119.5,112.5C 119.68,116.83 119.013,121.163 117.5,125.5C 114.153,125.016 110.82,124.849 107.5,125C 108.13,128.129 108.796,131.296 109.5,134.5C 110.814,133.687 111.981,132.687 113,131.5C 113.492,132.549 113.326,133.549 112.5,134.5C 113.833,135.62 114.333,136.953 114,138.5C 112.981,137.313 111.814,136.313 110.5,135.5C 109.668,137.936 110.335,140.103 112.5,142C 110.68,142.2 109.347,143.034 108.5,144.5C 108.068,145.71 107.401,146.71 106.5,147.5C 107.962,144.358 107.295,142.358 104.5,141.5C 104.5,140.5 104.5,139.5 104.5,138.5C 105.552,138.649 106.552,138.483 107.5,138C 105.654,134.617 105.321,131.117 106.5,127.5C 105.135,124.875 103.802,124.875 102.5,127.5C 102.5,124.167 102.5,120.833 102.5,117.5C 103.5,117.167 104.167,116.5 104.5,115.5C 105.397,116.598 106.23,116.598 107,115.5C 107.703,113.071 107.537,110.738 106.5,108.5C 106.768,106.901 106.434,105.568 105.5,104.5C 105.833,103.5 106.5,102.833 107.5,102.5 Z"/></g>
<g><path style="opacity:1" fill="#1b100c" d="M 79.5,122.5 C 80.397,123.598 81.2303,123.598 82,122.5C 82.4828,123.448 82.6495,124.448 82.5,125.5C 82.5,125.833 82.5,126.167 82.5,126.5C 81.2101,127.058 80.3768,128.058 80,129.5C 78.2784,135.522 76.1117,141.189 73.5,146.5C 72.5,144.833 71.1667,143.5 69.5,142.5C 68.0158,140.926 66.3492,139.593 64.5,138.5C 69.1454,134.025 73.9787,129.691 79,125.5C 79.4828,124.552 79.6495,123.552 79.5,122.5 Z"/></g>
<g><path style="opacity:1" fill="#705347" d="M 138.5,113.5 C 138.833,113.5 139.167,113.5 139.5,113.5C 141.154,119.965 143.487,126.132 146.5,132C 145.944,132.383 145.611,132.883 145.5,133.5C 145.607,135.379 145.107,135.712 144,134.5C 142.491,135.09 140.991,135.756 139.5,136.5C 141.925,137.649 141.925,138.316 139.5,138.5C 138.221,137.032 136.554,136.365 134.5,136.5C 134.5,136.167 134.5,135.833 134.5,135.5C 134.611,134.883 134.944,134.383 135.5,134C 131.223,130.999 131.556,129.999 136.5,131C 135.04,130.189 134.707,129.355 135.5,128.5C 136.768,129.428 138.101,129.595 139.5,129C 138.366,127.984 138.699,127.317 140.5,127C 139.915,125.698 139.249,124.531 138.5,123.5C 139.301,121.958 139.634,120.292 139.5,118.5C 136.813,118.664 134.146,118.497 131.5,118C 132.025,117.308 132.692,116.808 133.5,116.5C 134.842,117.902 135.676,117.569 136,115.5C 137.813,116.609 138.646,115.942 138.5,113.5 Z"/></g>
<g><path style="opacity:0.892" fill="#e6c3a2" d="M 189.5,131.5 C 187.509,139.808 184.176,147.475 179.5,154.5C 178.048,153.698 176.382,153.198 174.5,153C 173.328,151.132 173.495,149.298 175,147.5C 177.333,144.5 180,141.833 183,139.5C 184.164,136.433 183.164,134.767 180,134.5C 175.521,135.654 172.021,138.154 169.5,142C 164.541,144.021 160.208,146.854 156.5,150.5C 153.484,151.059 150.484,151.725 147.5,152.5C 147.218,148.963 147.218,145.296 147.5,141.5C 148.756,141.461 149.756,141.961 150.5,143C 148.75,144.754 148.083,146.921 148.5,149.5C 151.945,148.907 155.279,147.907 158.5,146.5C 163.826,141.515 169.493,136.849 175.5,132.5C 177.022,131.438 178.688,130.771 180.5,130.5C 182.679,130.16 184.512,129.16 186,127.5C 188.071,128.103 189.238,129.436 189.5,131.5 Z"/></g>
<g><path style="opacity:1" fill="#9c735b" d="M 34.5,136.5 C 40.3745,137.644 46.3745,138.311 52.5,138.5C 52.5,139.5 52.5,140.5 52.5,141.5C 52.5,142.167 52.5,142.833 52.5,143.5C 52.1667,143.5 51.8333,143.5 51.5,143.5C 51.5299,142.503 51.0299,141.836 50,141.5C 44.4855,140.342 39.3188,138.675 34.5,136.5 Z"/></g>
<g><path style="opacity:1" fill="#79573b" d="M 104.5,141.5 C 104.44,142.043 104.107,142.376 103.5,142.5C 102.828,141.051 102.161,139.718 101.5,138.5C 101.552,134.802 101.886,131.135 102.5,127.5C 103.802,124.875 105.135,124.875 106.5,127.5C 105.321,131.117 105.654,134.617 107.5,138C 106.552,138.483 105.552,138.649 104.5,138.5C 104.5,139.5 104.5,140.5 104.5,141.5 Z"/></g>
<g><path style="opacity:1" fill="#130d0c" d="M 134.5,135.5 C 134.5,135.833 134.5,136.167 134.5,136.5C 133.347,137.313 133.347,138.313 134.5,139.5C 130.919,140.083 128.586,142.083 127.5,145.5C 127.167,145.5 126.833,145.5 126.5,145.5C 123.565,141.816 121.898,137.483 121.5,132.5C 122.096,131.065 122.096,129.398 121.5,127.5C 123.677,127.586 125.677,128.253 127.5,129.5C 129.559,131.897 131.892,133.897 134.5,135.5 Z"/></g>
<g><path style="opacity:1" fill="#845933" d="M 64.5,136.5 C 64.5,137.167 64.5,137.833 64.5,138.5C 66.3492,139.593 68.0158,140.926 69.5,142.5C 68.8333,142.5 68.5,142.833 68.5,143.5C 66.8762,143.36 65.7096,144.027 65,145.5C 62.5843,143.08 61.751,140.413 62.5,137.5C 63.1667,137.167 63.8333,136.833 64.5,136.5 Z"/></g>
<g><path style="opacity:1" fill="#d7a87b" d="M 179.5,154.5 C 176.901,159.428 173.568,163.761 169.5,167.5C 160.63,167.466 151.963,166.133 143.5,163.5C 142.478,163.855 141.811,164.522 141.5,165.5C 140.566,164.432 140.232,163.099 140.5,161.5C 146.246,161.89 151.912,162.89 157.5,164.5C 161.605,164.117 163.771,161.784 164,157.5C 166.503,154.77 169.17,152.104 172,149.5C 172.456,145.706 174.456,143.039 178,141.5C 178.483,140.552 178.649,139.552 178.5,138.5C 177.07,138.421 175.736,138.754 174.5,139.5C 170.989,142.503 167.656,145.503 164.5,148.5C 161.779,148.963 159.112,149.629 156.5,150.5C 160.208,146.854 164.541,144.021 169.5,142C 172.021,138.154 175.521,135.654 180,134.5C 183.164,134.767 184.164,136.433 183,139.5C 180,141.833 177.333,144.5 175,147.5C 173.495,149.298 173.328,151.132 174.5,153C 176.382,153.198 178.048,153.698 179.5,154.5 Z"/></g>
<g><path style="opacity:1" fill="#514e4f" d="M 88.5,129.5 C 87.5742,134.463 86.9075,139.463 86.5,144.5C 84.5327,146.304 82.6993,148.304 81,150.5C 81,149.167 81,147.833 81,146.5C 80.2825,147.451 79.4491,147.617 78.5,147C 79.7111,145.887 79.7111,144.72 78.5,143.5C 79.5,142.167 80.5,140.833 81.5,139.5C 81.2879,136.348 81.2879,133.015 81.5,129.5C 83.8333,128.167 86.1667,128.167 88.5,129.5 Z"/></g>
<g><path style="opacity:0.983" fill="#3f353a" d="M 9.5,129.5 C 14.5431,130.008 19.5431,130.842 24.5,132C 26.8768,135.284 30.2101,136.784 34.5,136.5C 39.3188,138.675 44.4855,140.342 50,141.5C 51.0299,141.836 51.5299,142.503 51.5,143.5C 49.6756,145.137 47.5089,146.137 45,146.5C 42.5103,145.664 40.0103,144.998 37.5,144.5C 37.756,146.912 36.756,148.579 34.5,149.5C 34.8333,150.5 35.5,151.167 36.5,151.5C 37.7362,150.754 39.0695,150.421 40.5,150.5C 40.3505,151.552 40.5172,152.552 41,153.5C 41.6667,152.167 42.3333,152.167 43,153.5C 44.9733,156.617 46.8067,159.784 48.5,163C 50.4564,162.778 52.2897,161.945 54,160.5C 55.3866,162.047 56.5533,163.713 57.5,165.5C 56.2921,166.234 54.9587,166.567 53.5,166.5C 48.4325,166.622 43.4325,167.289 38.5,168.5C 37.4163,168.315 36.4163,167.982 35.5,167.5C 33.8333,167.5 32.1667,167.5 30.5,167.5C 20.4164,156.677 13.4164,144.011 9.5,129.5 Z"/></g>
<g><path style="opacity:1" fill="#514242" d="M 51.5,143.5 C 50.6089,149.494 52.2755,154.494 56.5,158.5C 57.0283,159.721 57.695,160.887 58.5,162C 58.3474,163.209 58.0141,164.375 57.5,165.5C 56.5533,163.713 55.3866,162.047 54,160.5C 52.2897,161.945 50.4564,162.778 48.5,163C 46.8067,159.784 44.9733,156.617 43,153.5C 42.3333,152.167 41.6667,152.167 41,153.5C 40.5172,152.552 40.3505,151.552 40.5,150.5C 39.0695,150.421 37.7362,150.754 36.5,151.5C 35.5,151.167 34.8333,150.5 34.5,149.5C 36.756,148.579 37.756,146.912 37.5,144.5C 40.0103,144.998 42.5103,145.664 45,146.5C 47.5089,146.137 49.6756,145.137 51.5,143.5 Z"/></g>
<g><path style="opacity:1" fill="#f6eccc" d="M 59.5,138.5 C 59.4208,139.93 59.7542,141.264 60.5,142.5C 59.5,143.167 58.5,143.833 57.5,144.5C 58.2739,145.711 59.1072,145.711 60,144.5C 60.6172,145.449 60.4506,146.282 59.5,147C 61.935,147.075 62.6016,147.908 61.5,149.5C 61.0618,149.435 60.7284,149.601 60.5,150C 61.1667,150.333 61.8333,150.667 62.5,151C 59.8474,153.134 57.8474,155.634 56.5,158.5C 52.2755,154.494 50.6089,149.494 51.5,143.5C 51.8333,143.5 52.1667,143.5 52.5,143.5C 52.3505,144.552 52.5172,145.552 53,146.5C 54.3589,142.993 56.5256,140.327 59.5,138.5 Z"/></g>
<g><path style="opacity:1" fill="#5d504b" d="M 117.5,125.5 C 117.025,128.313 118.025,130.313 120.5,131.5C 119.2,135.618 119.866,139.452 122.5,143C 121.643,143.689 120.977,144.522 120.5,145.5C 121.52,147.432 121.687,149.432 121,151.5C 120.974,148.895 119.807,147.729 117.5,148C 118.861,149.584 119.528,151.418 119.5,153.5C 119.565,153.938 119.399,154.272 119,154.5C 116.357,151.112 113.19,149.279 109.5,149C 110.5,148.667 111.5,148.333 112.5,148C 111.468,146.373 110.134,145.207 108.5,144.5C 109.347,143.034 110.68,142.2 112.5,142C 110.335,140.103 109.668,137.936 110.5,135.5C 111.814,136.313 112.981,137.313 114,138.5C 114.333,136.953 113.833,135.62 112.5,134.5C 113.326,133.549 113.492,132.549 113,131.5C 111.981,132.687 110.814,133.687 109.5,134.5C 108.796,131.296 108.13,128.129 107.5,125C 110.82,124.849 114.153,125.016 117.5,125.5 Z"/></g>
<g><path style="opacity:1" fill="#996d57" d="M 145.5,133.5 C 146.451,134.919 146.784,136.585 146.5,138.5C 147.187,143.933 146.021,144.599 143,140.5C 142.833,140.833 142.667,141.167 142.5,141.5C 143.575,144.438 143.741,147.438 143,150.5C 142.583,151.756 141.75,152.423 140.5,152.5C 141.44,148.537 141.607,144.537 141,140.5C 140.617,139.944 140.117,139.611 139.5,139.5C 139.5,139.167 139.5,138.833 139.5,138.5C 141.925,138.316 141.925,137.649 139.5,136.5C 140.991,135.756 142.491,135.09 144,134.5C 145.107,135.712 145.607,135.379 145.5,133.5 Z"/></g>
<g><path style="opacity:1" fill="#c8a16d" d="M 62.5,137.5 C 61.751,140.413 62.5843,143.08 65,145.5C 65.7096,144.027 66.8762,143.36 68.5,143.5C 68.6516,146.273 68.6516,149.106 68.5,152C 70.1341,152.494 71.8008,152.66 73.5,152.5C 73.1667,153.167 72.8333,153.833 72.5,154.5C 71.6016,155.158 70.6016,155.824 69.5,156.5C 69.7093,157.086 70.0426,157.586 70.5,158C 69.2381,160.917 67.9048,163.751 66.5,166.5C 65.962,168.117 65.6287,169.784 65.5,171.5C 64.7839,169.444 64.1172,167.277 63.5,165C 64.1667,164.333 64.8333,163.667 65.5,163C 65.7425,160.928 65.4092,158.761 64.5,156.5C 67.925,156.633 68.2583,155.967 65.5,154.5C 67.3265,152.563 67.4932,150.563 66,148.5C 65.5357,149.094 65.369,149.761 65.5,150.5C 64.1667,150.167 62.8333,149.833 61.5,149.5C 62.6016,147.908 61.935,147.075 59.5,147C 60.4506,146.282 60.6172,145.449 60,144.5C 59.1072,145.711 58.2739,145.711 57.5,144.5C 58.5,143.833 59.5,143.167 60.5,142.5C 59.7542,141.264 59.4208,139.93 59.5,138.5C 60.391,137.89 61.391,137.557 62.5,137.5 Z"/></g>
<g><path style="opacity:1" fill="#ebdbb4" d="M 68.5,143.5 C 68.5,142.833 68.8333,142.5 69.5,142.5C 71.1667,143.5 72.5,144.833 73.5,146.5C 73.5,146.833 73.5,147.167 73.5,147.5C 73.5,149.167 73.5,150.833 73.5,152.5C 71.8008,152.66 70.1341,152.494 68.5,152C 68.6516,149.106 68.6516,146.273 68.5,143.5 Z"/></g>
<g><path style="opacity:1" fill="#77594d" d="M 139.5,139.5 C 140.117,139.611 140.617,139.944 141,140.5C 141.607,144.537 141.44,148.537 140.5,152.5C 140.611,153.117 140.944,153.617 141.5,154C 138.255,156.015 136.255,158.515 135.5,161.5C 134.624,162.251 133.624,162.751 132.5,163C 133.811,165.274 133.811,167.44 132.5,169.5C 132.167,169.5 131.833,169.5 131.5,169.5C 130.833,167.181 130.666,164.847 131,162.5C 134.681,160.492 135.181,157.992 132.5,155C 133.549,154.508 134.549,154.674 135.5,155.5C 136.696,155.154 136.696,154.654 135.5,154C 137.883,153.935 138.55,153.102 137.5,151.5C 138.371,149.942 139.371,148.275 140.5,146.5C 139.289,145.28 139.289,144.113 140.5,143C 137.294,142.073 136.961,140.907 139.5,139.5 Z"/></g>
<g><path style="opacity:1" fill="#302e31" d="M 120.5,131.5 C 121.167,131.5 121.5,131.833 121.5,132.5C 121.898,137.483 123.565,141.816 126.5,145.5C 125.359,150.718 123.692,155.718 121.5,160.5C 120.399,159.402 119.066,159.235 117.5,160C 118.553,161.749 118.22,163.249 116.5,164.5C 114.111,162.631 114.111,160.797 116.5,159C 116.167,158.667 115.833,158.333 115.5,158C 117.104,156.763 118.771,155.597 120.5,154.5C 120.376,153.893 120.043,153.56 119.5,153.5C 119.528,151.418 118.861,149.584 117.5,148C 119.807,147.729 120.974,148.895 121,151.5C 121.687,149.432 121.52,147.432 120.5,145.5C 120.977,144.522 121.643,143.689 122.5,143C 119.866,139.452 119.2,135.618 120.5,131.5 Z"/></g>
<g><path style="opacity:1" fill="#41312b" d="M 134.5,136.5 C 136.554,136.365 138.221,137.032 139.5,138.5C 139.5,138.833 139.5,139.167 139.5,139.5C 136.961,140.907 137.294,142.073 140.5,143C 139.289,144.113 139.289,145.28 140.5,146.5C 139.371,148.275 138.371,149.942 137.5,151.5C 138.55,153.102 137.883,153.935 135.5,154C 136.696,154.654 136.696,155.154 135.5,155.5C 134.549,154.674 133.549,154.508 132.5,155C 135.181,157.992 134.681,160.492 131,162.5C 130.666,164.847 130.833,167.181 131.5,169.5C 131.5,169.833 131.5,170.167 131.5,170.5C 130.21,171.058 129.377,172.058 129,173.5C 127.413,172.273 126.079,172.606 125,174.5C 125.571,170.759 125.404,167.426 124.5,164.5C 125.215,162.245 126.548,160.412 128.5,159C 127.167,158 127.167,157 128.5,156C 127.833,155.667 127.167,155.333 126.5,155C 127.357,154.311 128.023,153.478 128.5,152.5C 128.381,150.074 128.047,147.74 127.5,145.5C 128.586,142.083 130.919,140.083 134.5,139.5C 133.347,138.313 133.347,137.313 134.5,136.5 Z"/></g>
<g><path style="opacity:1" fill="#4a2a1a" d="M 101.5,138.5 C 102.161,139.718 102.828,141.051 103.5,142.5C 104.107,142.376 104.44,142.043 104.5,141.5C 107.295,142.358 107.962,144.358 106.5,147.5C 106.472,149.582 107.139,151.416 108.5,153C 107.833,153.333 107.167,153.667 106.5,154C 110.658,157.915 110.325,158.749 105.5,156.5C 104.289,157.274 104.289,158.107 105.5,159C 104.692,159.308 104.025,159.808 103.5,160.5C 106.078,160.677 106.078,161.843 103.5,164C 104.167,164.333 104.833,164.667 105.5,165C 105.137,168.169 103.803,170.836 101.5,173C 103.513,173.875 103.513,175.209 101.5,177C 102.573,178.313 103.24,179.813 103.5,181.5C 101.457,184.773 101.123,188.106 102.5,191.5C 102.875,193.698 103.542,195.698 104.5,197.5C 104.5,198.167 104.5,198.833 104.5,199.5C 100.833,199.5 97.1667,199.5 93.5,199.5C 92.1177,196.606 90.1177,194.106 87.5,192C 88.1667,191.333 88.8333,191.333 89.5,192C 91.3501,194.018 93.3501,195.851 95.5,197.5C 96.087,196.767 96.087,195.767 95.5,194.5C 96.3037,192.811 97.3037,191.145 98.5,189.5C 97.2528,187.677 96.5861,185.677 96.5,183.5C 96.1044,180.518 96.7711,177.851 98.5,175.5C 97.689,174.784 97.0223,173.95 96.5,173C 97.1667,172.333 97.8333,171.667 98.5,171C 98.2682,167.442 96.9349,164.442 94.5,162C 95.9961,161.493 97.1627,161.993 98,163.5C 98.1667,163.167 98.3333,162.833 98.5,162.5C 97.2532,160.958 97.2532,159.458 98.5,158C 96.3531,155.838 96.3531,153.504 98.5,151C 97.6919,150.692 97.0253,150.192 96.5,149.5C 96.9943,147.974 97.661,146.641 98.5,145.5C 98.3832,147.484 99.0499,149.15 100.5,150.5C 101.491,146.555 101.824,142.555 101.5,138.5 Z"/></g>
<g><path style="opacity:1" fill="#c08a63" d="M 146.5,138.5 C 147.404,139.209 147.737,140.209 147.5,141.5C 147.218,145.296 147.218,148.963 147.5,152.5C 150.484,151.725 153.484,151.059 156.5,150.5C 159.112,149.629 161.779,148.963 164.5,148.5C 167.656,145.503 170.989,142.503 174.5,139.5C 175.736,138.754 177.07,138.421 178.5,138.5C 178.649,139.552 178.483,140.552 178,141.5C 174.456,143.039 172.456,145.706 172,149.5C 169.17,152.104 166.503,154.77 164,157.5C 163.771,161.784 161.605,164.117 157.5,164.5C 151.912,162.89 146.246,161.89 140.5,161.5C 140.232,163.099 140.566,164.432 141.5,165.5C 141.953,166.458 142.619,167.292 143.5,168C 143.327,169.909 142.993,171.743 142.5,173.5C 142.152,171.287 141.319,169.287 140,167.5C 137.797,171.253 135.631,174.92 133.5,178.5C 133.802,175.941 133.468,173.607 132.5,171.5C 132.5,170.833 132.5,170.167 132.5,169.5C 133.811,167.44 133.811,165.274 132.5,163C 133.624,162.751 134.624,162.251 135.5,161.5C 136.255,158.515 138.255,156.015 141.5,154C 140.944,153.617 140.611,153.117 140.5,152.5C 141.75,152.423 142.583,151.756 143,150.5C 143.741,147.438 143.575,144.438 142.5,141.5C 142.667,141.167 142.833,140.833 143,140.5C 146.021,144.599 147.187,143.933 146.5,138.5 Z"/></g>
<g><path style="opacity:1" fill="#614033" d="M 164.5,148.5 C 165.858,147.374 167.192,147.374 168.5,148.5C 165.358,154.976 160.691,159.643 154.5,162.5C 150.916,161.284 147.249,160.617 143.5,160.5C 143.585,158.071 144.585,156.071 146.5,154.5C 149.974,152.938 153.64,152.105 157.5,152C 160.069,151.102 162.402,149.935 164.5,148.5 Z"/></g>
<g><path style="opacity:1" fill="#a18d83" d="M 73.5,147.5 C 74.5707,152.062 76.4041,156.396 79,160.5C 79.4935,162.134 79.6602,163.801 79.5,165.5C 78.2719,164.694 77.2719,163.694 76.5,162.5C 76.47,159.148 75.1367,156.482 72.5,154.5C 72.8333,153.833 73.1667,153.167 73.5,152.5C 73.5,150.833 73.5,149.167 73.5,147.5 Z"/></g>
<g><path style="opacity:1" fill="#3d3332" d="M 90.5,123.5 C 90.7475,125.858 90.0808,127.858 88.5,129.5C 86.1667,128.167 83.8333,128.167 81.5,129.5C 81.2879,133.015 81.2879,136.348 81.5,139.5C 80.5,140.833 79.5,142.167 78.5,143.5C 79.7111,144.72 79.7111,145.887 78.5,147C 79.4491,147.617 80.2825,147.451 81,146.5C 81,147.833 81,149.167 81,150.5C 82.6993,148.304 84.5327,146.304 86.5,144.5C 87.1667,144.167 87.8333,143.833 88.5,143.5C 89.2389,143.369 89.9056,143.536 90.5,144C 88.3215,144.442 87.6548,145.442 88.5,147C 86.188,149.414 84.5213,152.247 83.5,155.5C 84.7161,156.096 86.0494,156.263 87.5,156C 86.5,157 85.5,158 84.5,159C 85.9733,159.71 86.6399,160.876 86.5,162.5C 85.448,162.351 84.448,162.517 83.5,163C 84.7588,163.923 86.0921,164.757 87.5,165.5C 86.153,169.11 86.8196,169.443 89.5,166.5C 89.8333,167 90.1667,167.5 90.5,168C 89.8333,169 89.1667,170 88.5,171C 89.217,173.659 90.217,176.159 91.5,178.5C 91.5613,180.721 90.8946,181.054 89.5,179.5C 88.2032,175.842 85.5365,174.176 81.5,174.5C 81.6641,171.813 81.4974,169.146 81,166.5C 80.6174,165.944 80.1174,165.611 79.5,165.5C 79.6602,163.801 79.4935,162.134 79,160.5C 76.4041,156.396 74.5707,152.062 73.5,147.5C 73.5,147.167 73.5,146.833 73.5,146.5C 76.1117,141.189 78.2784,135.522 80,129.5C 80.3768,128.058 81.2101,127.058 82.5,126.5C 82.4346,126.938 82.6012,127.272 83,127.5C 85.0395,124.803 87.0395,122.137 89,119.5C 89.4101,120.901 89.9101,122.234 90.5,123.5 Z"/></g>
<g><path style="opacity:1" fill="#513a2e" d="M 97.5,130.5 C 98.3909,131.261 99.0576,132.261 99.5,133.5C 98.6373,137.682 98.304,141.682 98.5,145.5C 97.661,146.641 96.9943,147.974 96.5,149.5C 97.0253,150.192 97.6919,150.692 98.5,151C 96.3531,153.504 96.3531,155.838 98.5,158C 97.2532,159.458 97.2532,160.958 98.5,162.5C 98.3333,162.833 98.1667,163.167 98,163.5C 97.1627,161.993 95.9961,161.493 94.5,162C 96.9349,164.442 98.2682,167.442 98.5,171C 97.8333,171.667 97.1667,172.333 96.5,173C 97.0223,173.95 97.689,174.784 98.5,175.5C 96.7711,177.851 96.1044,180.518 96.5,183.5C 95.5041,183.586 94.6708,183.252 94,182.5C 93.8333,183 93.6667,183.5 93.5,184C 94.9266,185.7 95.76,187.533 96,189.5C 92.2858,187.287 89.4525,184.287 87.5,180.5C 88.4916,180.672 89.1583,180.338 89.5,179.5C 90.8946,181.054 91.5613,180.721 91.5,178.5C 90.217,176.159 89.217,173.659 88.5,171C 89.1667,170 89.8333,169 90.5,168C 90.1667,167.5 89.8333,167 89.5,166.5C 86.8196,169.443 86.153,169.11 87.5,165.5C 86.0921,164.757 84.7588,163.923 83.5,163C 84.448,162.517 85.448,162.351 86.5,162.5C 86.6399,160.876 85.9733,159.71 84.5,159C 85.5,158 86.5,157 87.5,156C 86.0494,156.263 84.7161,156.096 83.5,155.5C 84.5213,152.247 86.188,149.414 88.5,147C 87.6548,145.442 88.3215,144.442 90.5,144C 89.9056,143.536 89.2389,143.369 88.5,143.5C 88.9321,142.29 89.5987,141.29 90.5,140.5C 91.2216,140.918 91.7216,141.584 92,142.5C 93.1369,141.636 94.4702,140.636 96,139.5C 95.7145,137.294 95.5479,135.127 95.5,133C 96.756,132.583 97.4226,131.75 97.5,130.5 Z"/></g>
<g><path style="opacity:1" fill="#50392c" d="M 108.5,144.5 C 110.134,145.207 111.468,146.373 112.5,148C 111.5,148.333 110.5,148.667 109.5,149C 113.19,149.279 116.357,151.112 119,154.5C 119.399,154.272 119.565,153.938 119.5,153.5C 120.043,153.56 120.376,153.893 120.5,154.5C 118.771,155.597 117.104,156.763 115.5,158C 115.833,158.333 116.167,158.667 116.5,159C 114.111,160.797 114.111,162.631 116.5,164.5C 114.621,164.393 114.288,164.893 115.5,166C 114.667,167.5 113.5,168.667 112,169.5C 112,171.5 112,173.5 112,175.5C 110.415,176.376 109.415,177.709 109,179.5C 108.667,178.833 108.333,178.167 108,177.5C 105.865,182.105 104.032,186.772 102.5,191.5C 101.123,188.106 101.457,184.773 103.5,181.5C 103.24,179.813 102.573,178.313 101.5,177C 103.513,175.209 103.513,173.875 101.5,173C 103.803,170.836 105.137,168.169 105.5,165C 104.833,164.667 104.167,164.333 103.5,164C 106.078,161.843 106.078,160.677 103.5,160.5C 104.025,159.808 104.692,159.308 105.5,159C 104.289,158.107 104.289,157.274 105.5,156.5C 110.325,158.749 110.658,157.915 106.5,154C 107.167,153.667 107.833,153.333 108.5,153C 107.139,151.416 106.472,149.582 106.5,147.5C 107.401,146.71 108.068,145.71 108.5,144.5 Z"/></g>
<g><path style="opacity:1" fill="#7c6c62" d="M 126.5,145.5 C 126.833,145.5 127.167,145.5 127.5,145.5C 128.047,147.74 128.381,150.074 128.5,152.5C 128.023,153.478 127.357,154.311 126.5,155C 127.167,155.333 127.833,155.667 128.5,156C 127.167,157 127.167,158 128.5,159C 126.548,160.412 125.215,162.245 124.5,164.5C 122.11,166.734 120.276,169.401 119,172.5C 119.526,170.773 119.359,169.106 118.5,167.5C 120.075,165.453 121.075,163.119 121.5,160.5C 123.692,155.718 125.359,150.718 126.5,145.5 Z"/></g>
<g><path style="opacity:1" fill="#faf5e2" d="M 65.5,154.5 C 63.803,157.016 62.4697,159.849 61.5,163C 62.6454,165.199 62.6454,167.365 61.5,169.5C 60.4679,171.04 59.1346,171.54 57.5,171C 58.8537,166.522 60.1871,161.689 61.5,156.5C 61.2907,155.914 60.9574,155.414 60.5,155C 62.0632,153.264 63.7299,151.764 65.5,150.5C 65.369,149.761 65.5357,149.094 66,148.5C 67.4932,150.563 67.3265,152.563 65.5,154.5 Z"/></g>
<g><path style="opacity:1" fill="#9e7254" d="M 76.5,162.5 C 77.2719,163.694 78.2719,164.694 79.5,165.5C 80.1174,165.611 80.6174,165.944 81,166.5C 81.4974,169.146 81.6641,171.813 81.5,174.5C 80.5041,174.586 79.6708,174.252 79,173.5C 78.0524,169.832 77.219,166.165 76.5,162.5 Z"/></g>
<g><path style="opacity:1" fill="#533526" d="M 72.5,154.5 C 75.1367,156.482 76.47,159.148 76.5,162.5C 75.7169,165.776 74.7169,169.109 73.5,172.5C 72.0493,169.377 69.716,167.377 66.5,166.5C 67.9048,163.751 69.2381,160.917 70.5,158C 70.0426,157.586 69.7093,157.086 69.5,156.5C 70.6016,155.824 71.6016,155.158 72.5,154.5 Z"/></g>
<g><path style="opacity:1" fill="#8f6b58" d="M 53.5,166.5 C 53.5,167.167 53.1667,167.5 52.5,167.5C 47.8465,168.165 43.1798,168.832 38.5,169.5C 36.9704,169.36 35.9704,168.693 35.5,167.5C 36.4163,167.982 37.4163,168.315 38.5,168.5C 43.4325,167.289 48.4325,166.622 53.5,166.5 Z"/></g>
<g><path style="opacity:1" fill="#f1dbb3" d="M 61.5,149.5 C 62.8333,149.833 64.1667,150.167 65.5,150.5C 63.7299,151.764 62.0632,153.264 60.5,155C 60.9574,155.414 61.2907,155.914 61.5,156.5C 60.1871,161.689 58.8537,166.522 57.5,171C 59.1346,171.54 60.4679,171.04 61.5,169.5C 62.6454,167.365 62.6454,165.199 61.5,163C 62.4697,159.849 63.803,157.016 65.5,154.5C 68.2583,155.967 67.925,156.633 64.5,156.5C 65.4092,158.761 65.7425,160.928 65.5,163C 64.8333,163.667 64.1667,164.333 63.5,165C 64.1172,167.277 64.7839,169.444 65.5,171.5C 66.4676,174.1 67.8009,176.434 69.5,178.5C 69.5,178.833 69.5,179.167 69.5,179.5C 69.8333,181.5 70.1667,183.5 70.5,185.5C 69.5987,184.71 68.9321,183.71 68.5,182.5C 67.938,179.227 66.2713,178.227 63.5,179.5C 63.5774,178.25 64.244,177.417 65.5,177C 64.624,175.414 63.624,173.914 62.5,172.5C 61.5,174.167 60.1667,175.5 58.5,176.5C 59.6119,177.265 60.2786,178.265 60.5,179.5C 59.7611,179.369 59.0944,179.536 58.5,180C 59.5361,181.776 59.5361,183.609 58.5,185.5C 57.8333,185.5 57.5,185.833 57.5,186.5C 56.6618,186.842 56.3284,187.508 56.5,188.5C 55.5084,188.672 54.8417,188.338 54.5,187.5C 53.0474,186.175 53.3808,185.342 55.5,185C 55.0137,182.973 55.0137,180.807 55.5,178.5C 52.4761,179.877 49.4761,181.211 46.5,182.5C 44.246,181.876 42.5794,180.543 41.5,178.5C 41.6709,176.007 40.6709,174.174 38.5,173C 39.3279,172.085 40.3279,171.419 41.5,171C 44.8772,170.548 48.2105,169.882 51.5,169C 52.056,168.617 52.3893,168.117 52.5,167.5C 53.1667,167.5 53.5,167.167 53.5,166.5C 54.9587,166.567 56.2921,166.234 57.5,165.5C 58.0141,164.375 58.3474,163.209 58.5,162C 57.695,160.887 57.0283,159.721 56.5,158.5C 57.8474,155.634 59.8474,153.134 62.5,151C 61.8333,150.667 61.1667,150.333 60.5,150C 60.7284,149.601 61.0618,149.435 61.5,149.5 Z"/></g>
<g><path style="opacity:0.988" fill="#eed6b9" d="M 169.5,167.5 C 162.644,176.684 153.977,183.684 143.5,188.5C 142.208,185.332 142.208,182.165 143.5,179C 142.692,178.692 142.025,178.192 141.5,177.5C 141.76,176.095 142.093,174.762 142.5,173.5C 142.993,171.743 143.327,169.909 143.5,168C 142.619,167.292 141.953,166.458 141.5,165.5C 141.811,164.522 142.478,163.855 143.5,163.5C 151.963,166.133 160.63,167.466 169.5,167.5 Z"/></g>
<g><path style="opacity:0.612" fill="#dfb991" d="M 30.5,167.5 C 32.1667,167.5 33.8333,167.5 35.5,167.5C 35.9704,168.693 36.9704,169.36 38.5,169.5C 43.1798,168.832 47.8465,168.165 52.5,167.5C 52.3893,168.117 52.056,168.617 51.5,169C 48.2105,169.882 44.8772,170.548 41.5,171C 40.3279,171.419 39.3279,172.085 38.5,173C 40.6709,174.174 41.6709,176.007 41.5,178.5C 36.8119,175.812 33.1453,172.145 30.5,167.5 Z"/></g>
<g><path style="opacity:1" fill="#261b17" d="M 121.5,160.5 C 121.075,163.119 120.075,165.453 118.5,167.5C 117.462,170.429 116.296,173.429 115,176.5C 111.562,180.911 108.062,185.244 104.5,189.5C 104.833,189.833 105.167,190.167 105.5,190.5C 106.719,189.737 107.719,188.737 108.5,187.5C 109.107,187.624 109.44,187.957 109.5,188.5C 106.558,190.779 104.891,193.779 104.5,197.5C 103.542,195.698 102.875,193.698 102.5,191.5C 104.032,186.772 105.865,182.105 108,177.5C 108.333,178.167 108.667,178.833 109,179.5C 109.415,177.709 110.415,176.376 112,175.5C 112,173.5 112,171.5 112,169.5C 113.5,168.667 114.667,167.5 115.5,166C 114.288,164.893 114.621,164.393 116.5,164.5C 118.22,163.249 118.553,161.749 117.5,160C 119.066,159.235 120.399,159.402 121.5,160.5 Z"/></g>
<g><path style="opacity:1" fill="#c88130" d="M 65.5,171.5 C 66.675,171.281 67.675,171.614 68.5,172.5C 69.3482,174.409 69.6816,176.409 69.5,178.5C 67.8009,176.434 66.4676,174.1 65.5,171.5 Z"/></g>
<g><path style="opacity:1" fill="#b08c5d" d="M 63.5,179.5 C 62.8485,180.091 62.1818,180.757 61.5,181.5C 60.7025,181.043 60.3691,180.376 60.5,179.5C 60.2786,178.265 59.6119,177.265 58.5,176.5C 60.1667,175.5 61.5,174.167 62.5,172.5C 63.624,173.914 64.624,175.414 65.5,177C 64.244,177.417 63.5774,178.25 63.5,179.5 Z"/></g>
<g><path style="opacity:1" fill="#bc773c" d="M 132.5,171.5 C 133.468,173.607 133.802,175.941 133.5,178.5C 133.567,179.959 133.234,181.292 132.5,182.5C 129.952,186.93 127.952,191.597 126.5,196.5C 125.041,196.433 123.708,196.766 122.5,197.5C 126.795,189.293 130.129,180.626 132.5,171.5 Z"/></g>
<g><path style="opacity:1" fill="#c69364" d="M 54.5,187.5 C 51.4887,186.331 48.822,184.664 46.5,182.5C 49.4761,181.211 52.4761,179.877 55.5,178.5C 55.0137,180.807 55.0137,182.973 55.5,185C 53.3808,185.342 53.0474,186.175 54.5,187.5 Z"/></g>
<g><path style="opacity:1" fill="#543828" d="M 142.5,173.5 C 142.093,174.762 141.76,176.095 141.5,177.5C 142.025,178.192 142.692,178.692 143.5,179C 142.208,182.165 142.208,185.332 143.5,188.5C 141.819,190.008 139.819,191.008 137.5,191.5C 137.703,189.956 138.37,188.622 139.5,187.5C 138.649,184.388 137.483,184.054 136,186.5C 135.26,184.681 134.093,183.348 132.5,182.5C 133.234,181.292 133.567,179.959 133.5,178.5C 135.631,174.92 137.797,171.253 140,167.5C 141.319,169.287 142.152,171.287 142.5,173.5 Z"/></g>
<g><path style="opacity:1" fill="#6d391c" d="M 76.5,162.5 C 77.219,166.165 78.0524,169.832 79,173.5C 79.6708,174.252 80.5041,174.586 81.5,174.5C 85.5365,174.176 88.2032,175.842 89.5,179.5C 89.1583,180.338 88.4916,180.672 87.5,180.5C 86.4265,181.251 86.2599,182.251 87,183.5C 89.8421,187.197 92.6754,190.863 95.5,194.5C 96.087,195.767 96.087,196.767 95.5,197.5C 93.3501,195.851 91.3501,194.018 89.5,192C 88.8333,191.333 88.1667,191.333 87.5,192C 90.1177,194.106 92.1177,196.606 93.5,199.5C 92.1667,199.5 90.8333,199.5 89.5,199.5C 88.2235,197.05 86.7235,194.717 85,192.5C 84.678,194.689 85.178,196.689 86.5,198.5C 82.8776,198.678 79.5443,198.011 76.5,196.5C 75.8902,195.609 75.5569,194.609 75.5,193.5C 75.573,191.973 74.9063,190.973 73.5,190.5C 73.5674,189.041 73.2341,187.708 72.5,186.5C 72.2413,183.728 71.2413,181.395 69.5,179.5C 69.5,179.167 69.5,178.833 69.5,178.5C 69.6816,176.409 69.3482,174.409 68.5,172.5C 67.675,171.614 66.675,171.281 65.5,171.5C 65.6287,169.784 65.962,168.117 66.5,166.5C 69.716,167.377 72.0493,169.377 73.5,172.5C 74.7169,169.109 75.7169,165.776 76.5,162.5 Z"/></g>
<g><path style="opacity:1" fill="#1e130e" d="M 87.5,180.5 C 89.4525,184.287 92.2858,187.287 96,189.5C 95.76,187.533 94.9266,185.7 93.5,184C 93.6667,183.5 93.8333,183 94,182.5C 94.6708,183.252 95.5041,183.586 96.5,183.5C 96.5861,185.677 97.2528,187.677 98.5,189.5C 97.3037,191.145 96.3037,192.811 95.5,194.5C 92.6754,190.863 89.8421,187.197 87,183.5C 86.2599,182.251 86.4265,181.251 87.5,180.5 Z"/></g>
<g><path style="opacity:1" fill="#dcae65" d="M 68.5,182.5 C 66.0418,182.227 64.3751,183.227 63.5,185.5C 64.7287,186.281 66.062,186.781 67.5,187C 66.5842,187.278 65.9175,187.778 65.5,188.5C 62.9318,187.233 60.5985,186.233 58.5,185.5C 59.5361,183.609 59.5361,181.776 58.5,180C 59.0944,179.536 59.7611,179.369 60.5,179.5C 60.3691,180.376 60.7025,181.043 61.5,181.5C 62.1818,180.757 62.8485,180.091 63.5,179.5C 66.2713,178.227 67.938,179.227 68.5,182.5 Z"/></g>
<g><path style="opacity:1" fill="#5a3724" d="M 124.5,164.5 C 125.404,167.426 125.571,170.759 125,174.5C 126.079,172.606 127.413,172.273 129,173.5C 129.377,172.058 130.21,171.058 131.5,170.5C 130.477,172.846 129.477,175.179 128.5,177.5C 125.585,177.746 122.585,178.079 119.5,178.5C 118.098,179.842 118.431,180.676 120.5,181C 118.622,182.543 117.122,184.376 116,186.5C 115.507,183.015 114.007,182.515 111.5,185C 110.915,186.302 110.249,187.469 109.5,188.5C 109.44,187.957 109.107,187.624 108.5,187.5C 107.719,188.737 106.719,189.737 105.5,190.5C 105.167,190.167 104.833,189.833 104.5,189.5C 108.062,185.244 111.562,180.911 115,176.5C 116.296,173.429 117.462,170.429 118.5,167.5C 119.359,169.106 119.526,170.773 119,172.5C 120.276,169.401 122.11,166.734 124.5,164.5 Z"/></g>
<g><path style="opacity:1" fill="#d49034" d="M 69.5,179.5 C 71.2413,181.395 72.2413,183.728 72.5,186.5C 71.8333,186.167 71.1667,185.833 70.5,185.5C 70.1667,183.5 69.8333,181.5 69.5,179.5 Z"/></g>
<g><path style="opacity:1" fill="#faebaa" d="M 70.5,185.5 C 71.1667,185.833 71.8333,186.167 72.5,186.5C 73.2341,187.708 73.5674,189.041 73.5,190.5C 72.2719,189.694 71.2719,188.694 70.5,187.5C 70.5,186.833 70.5,186.167 70.5,185.5 Z"/></g>
<g><path style="opacity:0.914" fill="#eeca74" d="M 57.5,186.5 C 59.5905,187.801 61.5905,189.301 63.5,191C 63.2716,191.399 62.9382,191.565 62.5,191.5C 60.1815,191.008 58.1815,190.008 56.5,188.5C 56.3284,187.508 56.6618,186.842 57.5,186.5 Z"/></g>
<g><path style="opacity:1" fill="#8a5b32" d="M 68.5,182.5 C 68.9321,183.71 69.5987,184.71 70.5,185.5C 70.5,186.167 70.5,186.833 70.5,187.5C 68.8828,188.038 67.2161,188.371 65.5,188.5C 65.9175,187.778 66.5842,187.278 67.5,187C 66.062,186.781 64.7287,186.281 63.5,185.5C 64.3751,183.227 66.0418,182.227 68.5,182.5 Z"/></g>
<g><path style="opacity:1" fill="#8a5c30" d="M 58.5,185.5 C 60.5985,186.233 62.9318,187.233 65.5,188.5C 66.2899,189.794 67.2899,190.961 68.5,192C 67.2068,192.49 65.8734,192.657 64.5,192.5C 63.5084,192.672 62.8417,192.338 62.5,191.5C 62.9382,191.565 63.2716,191.399 63.5,191C 61.5905,189.301 59.5905,187.801 57.5,186.5C 57.5,185.833 57.8333,185.5 58.5,185.5 Z"/></g>
<g><path style="opacity:1" fill="#603219" d="M 131.5,169.5 C 131.833,169.5 132.167,169.5 132.5,169.5C 132.5,170.167 132.5,170.833 132.5,171.5C 130.129,180.626 126.795,189.293 122.5,197.5C 119.311,197.858 116.311,198.525 113.5,199.5C 112.167,199.5 110.833,199.5 109.5,199.5C 110.643,196.885 111.476,194.218 112,191.5C 109.946,194.047 108.113,196.714 106.5,199.5C 105.833,199.5 105.167,199.5 104.5,199.5C 104.5,198.833 104.5,198.167 104.5,197.5C 104.891,193.779 106.558,190.779 109.5,188.5C 110.249,187.469 110.915,186.302 111.5,185C 114.007,182.515 115.507,183.015 116,186.5C 117.122,184.376 118.622,182.543 120.5,181C 118.431,180.676 118.098,179.842 119.5,178.5C 122.585,178.079 125.585,177.746 128.5,177.5C 129.477,175.179 130.477,172.846 131.5,170.5C 131.5,170.167 131.5,169.833 131.5,169.5 Z"/></g>
<g><path style="opacity:1" fill="#311f17" d="M 132.5,182.5 C 134.093,183.348 135.26,184.681 136,186.5C 137.483,184.054 138.649,184.388 139.5,187.5C 138.37,188.622 137.703,189.956 137.5,191.5C 134.017,193.406 130.35,195.072 126.5,196.5C 127.952,191.597 129.952,186.93 132.5,182.5 Z"/></g>
<g><path style="opacity:1" fill="#f2d188" d="M 73.5,190.5 C 74.9063,190.973 75.573,191.973 75.5,193.5C 74.0937,193.027 73.427,192.027 73.5,190.5 Z"/></g>
<g><path style="opacity:1" fill="#603e26" d="M 70.5,187.5 C 71.2719,188.694 72.2719,189.694 73.5,190.5C 73.427,192.027 74.0937,193.027 75.5,193.5C 75.5569,194.609 75.8902,195.609 76.5,196.5C 72.0845,196.139 68.0845,194.806 64.5,192.5C 65.8734,192.657 67.2068,192.49 68.5,192C 67.2899,190.961 66.2899,189.794 65.5,188.5C 67.2161,188.371 68.8828,188.038 70.5,187.5 Z"/></g>
<g><path style="opacity:1" fill="#31150b" d="M 89.5,199.5 C 88.5,199.5 87.5,199.5 86.5,199.5C 86.5,199.167 86.5,198.833 86.5,198.5C 85.178,196.689 84.678,194.689 85,192.5C 86.7235,194.717 88.2235,197.05 89.5,199.5 Z"/></g>
<g><path style="opacity:1" fill="#1d0e06" d="M 109.5,199.5 C 108.5,199.5 107.5,199.5 106.5,199.5C 108.113,196.714 109.946,194.047 112,191.5C 111.476,194.218 110.643,196.885 109.5,199.5 Z"/></g>
</svg>
