<svg xmlns="http://www.w3.org/2000/svg" width="200" height="200" viewBox="0 0 200 200"><path d="M16.3,81c2.9-9.6,4.7-20.4,13.2-25.8-2-4.6,3-4.5,4-8.1,1.7.9,5.8,4.2,3.6,6.6-.4,1.9,1.7,4.3-1,5-1.8,3.5.2,6.5-.6,9.9-1,5.8-5.8,11.2-6.1,17.6s-3.2,15.9-10.3,9.9C7.8,107.1,15.4,86.7,16.3,81Z" style="fill:#0d172b"/><path d="M148.4,161.1c-6.2,4.2-15.7,15.2-22.3,13.3-2.8,5.8-40.7,14.1-19.1-3,5.3-2,11.2-2.2,16.5-4.9,3.6-.7,11.6-7.9,13.4-2.2-.8-4.7,3.9-7.2,7.6-8.5s4.2-5.8,7.6-6.7c-.4-1.2.1-1.8,1.3-1.6,2.9.7-1.4-3.3,1.2-4.5,2.6-4.9,2.7-10,5.1-14.8.3-1.8.1-4.9,2.1-5.6,2.1-4.5,1.1-11.3,5.6-13.8,1,4.6-4.9,4.2.4,8.8-3.9-1-2.5,2.6-3.8,5.1-1.2,15.8-4.8,28-18,39.2C147.2,160.5,151.4,157.8,148.4,161.1Z" style="fill:#300f1c"/><path d="M91.1,178c-2.1-1.1-3.1.9-4.5,1.7.1-1.6-1.5-2.6-3.3-2.9s-5.3-1-4.4-3.9c-2.6-.8-4.7-2.4-7.4-2.8-2.5,1.4-2.2-1.7-4.6-.4s-1.6.3-2.6-.4-1.1-.2-1.4-1.1c-4.4-2.7-5.6,1.2-9.6-4.1-1.5-1.2-8-4.9-5.4-.7-.5.3-.9-.1-1.2-.3s-6.5-4.8-2.6-3c-2.1-3.6-6.1-5.7-8.5-9.5-.3-.6-.9-1.1-.1-1.7s-1.4-1.2-1.3-2.2c1.9-2.5-3-6.3-2.1-9.7s-8.2-35.3-2-22.2c.7,6.9,4.7,13.1,5.4,19.9s7.3,15.3,13.7,20.2C60.2,168.2,84.5,162.8,91.1,178Z" style="fill:#3a101d"/><path d="M173,73.2c3.4,8.4,4.9,17.4,6.4,26-2.7.1-4.5-1.5-6.4-3.2-2,.7-5.5,1-6.6-1.1-3-6.7-3.6-14-6.9-20.5,1.7-.9,1.1,1.7,2.1,2.3a2.4,2.4,0,0,0,.9-1.7c-3.2,1.1.3-4.4,2.2-2.1.5-.5,0-2.1,1.4-1.6s.7,1.6.1,2.1c1.3.9,1.3,1.6.3,2.9,2-.3,0,3.3,2.9,3,.4.1.5.5.7.9.4-3.9.5-2.9-2.1-5.3s0-6.1-2.5-8.7c-1.1-8.1,6.6-1.8,4.7,2C172.3,68.6,171.9,71.8,173,73.2Z" style="fill:#0f1326"/><path d="M35.5,69.8c.3-3.4-2.2-9.5,1.2-11.5,1-1.5-1-7.9,2.5-5.6C28.8,41.9,26.1,34.6,39,50.5c4.5-3,18.9-20.1,20.4-12.5-2.1,7.2-6.1,14.5-12.2,19.1-1.9,2.6-5,4.1-7.2,6-.7-.3-.8-1.5-1.8-1S38.9,68.4,35.5,69.8Z" style="fill:#172b41"/><path d="M173,73.2c-.5-2.6-3.8-5.2-2.5-5.4,0-5.5-7.2-6.9-3.9-1,2,3.8-1.2,2.5,1.7,8,.4,2.9-1.7.4-3.1,3.2,1.8-3.3,2.2-2.7.4-4.9,1.3-.2,1.3-1.5.1-1.7-1.5,4.5-1.4-.7-2.8,2.1-.7-1.9-1.8,1.4-1.2,1.7s1.4-.9,1.3,0c-2.2,5.9-7-7.8-7.6-11.4-.8-.8-1.1-2.5.3-3.1-2-.1-3.6-3.8-.9-3.9-6-5.5,5.1-12.8,9.2-3.5-2.4,1.7-.4,4.4,1.9,2.9C168.7,61.7,171.5,67,173,73.2Z" style="fill:#0f1d32"/><path d="M161.3,140.7c-1.8-2.7,1.1-5.1,1.6-7.8.2-4.9-1.1-17.6,5.8-15.3-6.7-1.6-1.6-4.9-1.4-8.7a1.9,1.9,0,0,1,.6-2.7c7.3-3.2,4.6,4.3,4.5,8.2.6-18.4,10.5-20,5.1.1-2.1,1.5-2.8-1.9-3.9-.4-3.1,3.8-1.6,11.1-4.9,13.6-.8.8-.8,1-.1,2.4a27.8,27.8,0,0,1-1.8,4.8C163.3,134.8,163.8,140.7,161.3,140.7Z" style="fill:#1d1022"/><path d="M153.3,52.4c-.1,2.4.4,4.2,2.7,4.6-4.2-.2-1.7,3.2.8,4.2-4.3-1,2.2,8.8-.4,8.6s-1.5-3.7-2.3-5.7c-1.3.3-1.9-.3-1.4-1.5-4.5-2.3-12.2-7.3-13.2-11.6-1.9,1.6-5,4.7-5.9,2.7,2-2.2,6.5-2.7,7.2-6.5-4.1,3.5-10.2,4.8-11.8,2.2,3.8-2.9,8.9-5.3,10.3-10.3C143.7,43,156.2,50.2,153.3,52.4Z" style="fill:#17273a"/><path d="M45.3,162.5c.7-1.1,1.5.6,2.5,1.1-4.3-5.5,7.6-.3,8.3,3.3,3.5-1.1,6.4,1.1,8,1.7s1.6,3.1,2.5.7c3.9-.2,7.8,1.2,12.4,3.3.2,5.7,7.1,2.2,8,6.6C72.7,183.9,56.1,171.3,45.3,162.5Z" style="fill:#240c1c"/><path d="M35.5,69.8c3.3-2.7.7-5.4,2.6-8,3.9,1.6,8.3-4.9,12.5-7.9-.1,3.3-3.9,5.1-5,8.1-5.5,7.6-10.4,15.5-13.4,24.5-2.2,2.2-.9,21.8-4.4,13.9-1.1,1.5,1.3,9.6-.9,7.3,0-2-1.5-2.3-3-2.7-6.3-2.5-4,7.3-3.4,11.4s-2.2-7.5-2-9.8,1.6-1.8,2.4-3.3c-1.5-1.8,1.9-3.4-.8-4.3s-7.9,4.8-7.3-.2c2.4.7,4-.3,5.1-2.5,1.5-.1,2.3.6,5.3,1C31.4,95.8,28.2,76.3,35.5,69.8Z" style="fill:#3a2437"/><path d="M121.3,29.7c6.6,3.8,26,7.6,10.6,14.1-6.1,2.2-18-8.7-17.4,3-5.4,2.7,1.9-5.1-3.1-2.3-2.1-1.1,6.9-8.9,7.6-12.4.1-1,0-1.6,1.3-1.6S120.5,29.4,121.3,29.7Z" style="fill:#233f56"/><path d="M77.1,27.8c10-2.2,21.1-6.4,11.3,7.1-7.3,2.4-13.5,7.4-20.8,9.5-4.3-.7,3.9-6.6,5.3-8.4C73.8,32.6,73.1,28.7,77.1,27.8Z" style="fill:#335a73"/><path d="M19.2,106.4c3.8-5,9.7-.2,8.9,5.5.6,10,4.6,18.4,4.9,28.3,1.1,1.7,1.7,4.1,2.5,6.7-2.6-1.1.2,1.4,1,2.6-6-1.8-6.8-11.3-11.2-14.7-1.2,1.1-2.8-6.7-3.1-8.7,1.2-1.2,5,.9,3.3-2.2-2-1.5-1.7-3.2-.2-4.9-.5-1.1-.3-1.7.7-2.8C24.1,111.6,25.9,105.5,19.2,106.4Z" style="fill:#2b0f22"/><path d="M77.1,27.8c-4.3,2.4-3.1,10-10,14.6-1.4,3.2-6.7,3.8-9.2,6.3-4.9,3.3-8.7,6.7-3.1-1.1-1.1,1,3.5-3.4,2.5-6.4C59.9,32.9,65.2,30.8,77.1,27.8Z" style="fill:#28465f"/><path d="M150.1,60.5c3.6,1.6,2.1,4.4,4,2.8,1.2,2.3.2,5.5,3,6.7,6,7.7,5.7,17.7,10.3,25.8,8.2-.3,5.1,1.1,12,3.4-.4,2.9-4.8.4-6.2-.9-6.3,4.2-9.6-.9-9.6-7,1.3,16.1-4.6-9.4-6.4-13.1C155.8,71.9,149.3,67.1,150.1,60.5Z" style="fill:#361f30"/><path d="M99.9,25.3c18-1.8,7.2,16.7,9.6,7.3-1.3,6.5-10.6,8.8-10.6.5C101.1,30.4,95.4,24.5,99.9,25.3Z" style="fill:#396079"/><path d="M19.2,106.4c5.3-1.4,6,2,6,7.4,1.2-1.9,1.1,3.4,0,4.1-2.4,3,.6,5.6,1.2,8.2C17.8,127.1,21,112.4,19.2,106.4Z" style="fill:#161024"/><path d="M72.6,42.4c7.4-5.2,19.1-6.3,19.7-17.1,6.5-2.3,1.6,6,.9,8.8C89.5,40.2,79.2,43.8,72.6,42.4Z" style="fill:#576b83"/><path d="M109,35.7a11.6,11.6,0,0,1,.7-1.1c2-3.8-2.5-8.3-.7-8.2s9.1.5,9.4,3.1C115.3,38.1,94.8,54.1,109,35.7Z" style="fill:#2f536a"/><path d="M127.9,164.7c-9.7,5.7-23.3,4.2-28.2,15.9-3.2,1.1.6-3.5.9-5.1,3.5-7.8,12.1-6.7,18.1-8.5s12.6-11.4,17.2-7.4A26.1,26.1,0,0,1,127.9,164.7Z" style="fill:#681c1e"/><path d="M99.9,25.3H97.3c4.3,3.2.8,7.5,2.8,10.9,0,2.3,5.7,1.8,3.8,3.6s-10.3,7.5-5.7,3-1.7-1-4-2.5c.5-6.8,4.9-8.4,2.1-15.1-.4-.7-.5-2.3.2-2.6C96.5,25,98.2,25.2,99.9,25.3Z" style="fill:#53728f"/><path d="M18.8,106.4c1,11.5.3,2.7-4.4,6.1-1.3-2,0-4.6-1.3-6.7-3.5-5.4,4-8,4-2.6C17.7,104.5,19.2,105,18.8,106.4Z" style="fill:#161024"/><path d="M96.8,182c-2.2,1.7-.7-5.7-3.4-6.6-2.4-5.7-4.9-3.2-7.9-5.6C111.5,171.4,97.9,167.1,96.8,182Z" style="fill:#f2ce9a"/><path d="M165.1,135.2c5.7-3.7-10.2,24.3-14.2,21.4,6.4-6.4,9.3-15.1,14.2-21.4-.4,4.1-4.6,9.4-6.6,12.6C160.4,144.5,164.7,139.6,165.1,135.2Z" style="fill:#382331"/><path d="M96.5,22.6c-.8,2.8,3.9,11.7-.8,9.9,1.5-1.2,1.5-4.6-.8-2.4,2.4,3-1.7,6-2.9,8.5-2.7,4.3-8.5,1.8-12.5,3.9,12-4.7,15.5-7.3,16.8-23.6C96.4,20.2,96.4,21.4,96.5,22.6Z" style="fill:#6f829a"/><path d="M25,135.6c-.5-3.5,2.5,1.9,3.2,3.5,2.2,7,11.9,12.8,11.9,19.1C34.4,153,28.7,143.4,25,135.6Z" style="fill:#322635"/><path d="M171.5,98.8c2.2-1.9,5.2,2.2,7.9,1.7-6.6-1.1-6,8.7-6.8,14.9-1.8-2.5,1-5.4.4-9-.2-1.4-3.9-2.4-1.9-3.7S168.6,99.8,171.5,98.8Z" style="fill:#5d2a38"/><path d="M135.3,41.8c2.9-4.6,5-8,3.1-.2-2.4,3-9.3,7.1-12.7,4.9-.4-3.4,4.9-1.9,6.9-2.9S138.5,39.6,135.3,41.8Z" style="fill:#364f61"/><path d="M85.5,169.9c4.8,0,7.6,5.5,8.3,9.5C91.4,178.8,83,170,85.5,169.9Z" style="fill:#702729"/><path d="M108.6,41.6c4.6-1.5,13.3-21.8,10.5-11.7C119.3,36.2,98.3,51.4,108.6,41.6Z" style="fill:#b7dce5"/><path d="M93.1,179.3c1.2-2.3-3.2-5.7-3.6-8.5C93.3,171.1,99.3,185.2,93.1,179.3Z" style="fill:#9d392b"/><path d="M154.3,48.3a69.8,69.8,0,0,0,10.3-12.7C165.3,38.1,157.3,50,154.3,48.3Z" style="fill:#74818d"/><path d="M33.7,44.5l-5-5.6c3.2,5.9,7.7,10.1,12,15-1.5-.7-2.5-2.8-3.7-.4,2-2.1-3.6-8.6-4.4-4.3.8-6.3-5.1-8.6-6-14.8Z" style="fill:#8595a4"/><path d="M29.2,52.1c2.1,4.1-1.4,4.8-4,6.9,1.4-1.4-.2-2.4-.3-3.6C26.7,56.2,27.3,52,29.2,52.1Z" style="fill:#423341"/><path d="M39.4,158.3c2-5.1,4,.8,4.6,2s-1.3-1.2-1.5-.4C48.3,165.1,42.3,160.4,39.4,158.3Z" style="fill:#583843"/><path d="M154.3,48.3c.5,1.3,1.6-.9,3.6-2.4l1.1-1.3c2.8.7-4.1,4,0,4-4.4-.1-4.4,3.6-8.5,6.2C155.3,50.1,153,51.4,154.3,48.3Z" style="fill:#93a2b2"/><path d="M96.8,182c-2.3-5,4.6-13.5,9.7-12.3-4.8,1-6.4,4.9-8.9,8.9C96.3,180.6,99.8,180.4,96.8,182Z" style="fill:#b65636"/><path d="M29.2,52.1c-1.5,1.2-2.4,3.8-4.4,3.7C23.3,51.9,34.6,47.6,29.2,52.1Z" style="fill:#24526d"/><path d="M132.1,45.6c4.9-1.6,7.7-4.8,6.5-10.2,2.7,5.7-2.6,10.1-8,13C130,47.2,133.1,47.1,132.1,45.6Z" style="fill:#86a6b7"/><path d="M166.4,56.9c-1.2-.4-5,.7-3.7-2.9C164.4,52.2,166.3,55.2,166.4,56.9Z" style="fill:#5f3943"/><path d="M166.4,56.4c-2-2.5-4.2-4.9-6.4-7.3C162.2,51.2,167.3,51.8,166.4,56.4Z" style="fill:#27556f"/><path d="M150.9,156.6c2.5,1.5-1.5,3-2.5,4.5l2-2.8C143.8,164.6,147.3,160.5,150.9,156.6Z" style="fill:#6f4e56"/><path d="M173.6,114.1c3-1.5,3.8,2.8,4.4-7.7C180.3,107.1,178.9,117.9,173.6,114.1Z" style="fill:#b1cfd9"/><path d="M178.9,95.2c-1.9.7-1.5-11.6-3.4-14.9A74.9,74.9,0,0,1,178.9,95.2Z" style="fill:#748ba1"/><path d="M16.3,81A72.4,72.4,0,0,0,14,95.9C12.2,92.5,16.1,85.5,16.3,81Z" style="fill:#7590a2"/><path d="M120.6,20.4c-1.2-12,2.8,3.8-.7,7.8C119.2,26,120.9,22.9,120.6,20.4Z" style="fill:#b7ced9"/><path d="M120.3,27c.3-2.7.7-5.4,1-8.1C121.3,20.9,122.7,31.3,120.3,27Z" style="fill:#839fab"/><path d="M15.7,100.5c-3.5-.8-3.1,1.6-3,4.4-1.6-2.1-.1-11.4.1-6.1-.5,3.3,3.9.2,5.5,1.5C17.8,101,17,101.1,15.7,100.5Z" style="fill:#626173"/><path d="M14.1,110.5c0,3.3,1.1-.2,3.1,1-4.3-.3-1.8,3.3-3.1,5.8C14.1,114.4,12.9,112.5,14.1,110.5Z" style="fill:#7a9dac"/><path d="M120.6,20.4c-.7,3.3.2,7.3-1.2,10.2C118.1,28,120.4,23.6,120.6,20.4Z" style="fill:#839fab"/><path d="M119.4,30.6c.3-1.2.5-2.4.9-3.6C122.2,27.2,121,32.2,119.4,30.6Z" style="fill:#375263"/><path d="M14.1,110.5c-.7,3.8-1.8-6.7,0-4Z" style="fill:#b6d7e8"/><path d="M168.3,131c-1.6-2.2,1.5-5.9,1.4-2.3C167.7,128,169.9,129.9,168.3,131Z" style="fill:#782c2d"/><path d="M22.1,79.5c-3.7-6.9,7.6-2.6-.1.5A1.3,1.3,0,0,0,22.1,79.5Z" style="fill:#5c2329"/><path d="M127.9,164.7c10.4-6.3,20.1-13.6,26.3-24.4-.1-10.1,6.5-20.3,7.5-31-.6-1.6-.2-3.8,1.4-3.7-3.6-1.8,3.8-2.6,1.1,5.9.2-2,.5-13.4,1.9-7s1.8,3.1-1.7,8.6c.7,4.9-4.4,9.5-3.3,13.2-2.3.2-1,1.5-.7,2.6-2.9-.3-1.1,5-2.9,7.2,2.5.1-2.7,3.5-2.5,6.7a4.2,4.2,0,0,0,.1,4.9c-1,.9-2.4-.9-3,.6s1,2-.8.8c-4.2,6.1-14.6,8.1-14.6,16.1C136.3,159,130.7,165,127.9,164.7Z" style="fill:#471e2a"/><path d="M167,109c-2.7-2.2-1.4-6.6.6-8.5.6,0,.9.4,1.2.5,2.1-1.8,3.1,2.5.6,2.5,1.2-.4,3.6,1.5,3.6,2.9C169.4,105.6,167.8,105,167,109Z" style="fill:#361f30"/><path d="M28.1,111.9c-.7-3-1.4-17.2.6-9C31.1,91,34.9,70,44.2,65.7,40,72.4,29.7,89,34,93.7c-2.2,3.7-1.3,8.3-4.7,11.3,6.4-.3,2.3,8.1,4.1,12.2,2.3,12.7,3,28.1,15.3,35.3,2,5.2-3.5-.9-5.5-2.1C33.4,141.7,33.4,120.7,28.1,111.9Z" style="fill:#4c212b"/><path d="M85.5,169.9c-5.9-1.5-7.6-1.9-.4-2.2,3.8,0,30.8-6.4,17.5-.6,4.9.4,9.4-3.1,13.8-2.9C107.6,169.1,95.5,169.1,85.5,169.9Z" style="fill:#430e11"/><path d="M79.8,168.1c-8.2-.7-23.1-4.8-30.7-13-.5-1.9.8-1,1.5-.2,3.5,0,3,3,5.5,4.2C64.2,159.5,72,165.4,79.8,168.1Z" style="fill:#611b1b"/><path d="M35.9,150.6a49.6,49.6,0,0,1-9.7-15.4C29.4,140.4,32.7,145.5,35.9,150.6Z" style="fill:#c7c7d3"/><path d="M167.3,76.5c1.3-1.4,1.8-1.5,3.4.3s-1.2,2.3-.5,4.1C169.4,78.5,165.8,79.9,167.3,76.5Z" style="fill:#592028"/><path d="M44,65.8c1.8-9,16.2-22.2,23.2-21.1C58.3,50.2,50.8,58.3,44,65.8Z" style="fill:#493c52"/><path d="M129.1,49.4c1.1,0,3.7.6.6,1,.9.2,2,.6.8,1.3s-21.7,9.9-17.4,6.1c-2.4-.1-17.6,7.6-11.5,8s11.2-9.5,19.4-9.1c3.6,1.2-11.5,3.9-12.3,8,7.4-.6,13-6.9,20.6-7.9,3.6.9-3.2,5.3-5.2,4.2.2-1.4,3.4-1.2,4.3-2.6-1.1.5-6,1.7-4.8,2.4s-6.3,2.9-6.9,5.1c-6.6,3.7-1.3,2.9-2.6,4.5-8.3,1.6,2.3-6.8,5.3-8.4-9.1,5-15.9,16.2-27.5,13-5.6,3.6,4.8-10.7,7-8.4-2.3-.4-6,1.2-8.2,2.2-5.7-1.4,5.9-6,7.9-6.3C106.5,54,119.1,53.7,129.1,49.4Z" style="fill:#071020"/><path d="M150.1,60.5c.5,7.5,6.4,12.6,8.2,19.4,2,4,2.6,16.8,5.8,16.1,2.3,3.1-3.3,2.5-2,4.8s-.5,1.5-1.2.3c-1.5.4-1.1-1.2-.6-1.9s-5.6-6.1-2.1-6.4c5.1,3.5-1.2-12.3-2.6-15.2-4.4-8.4-9.9-16.8-17.8-22.3-2.8-1.4.7-3,1.7-4.4C140.5,53.4,145.8,58.7,150.1,60.5Z" style="fill:#442c3d"/><path d="M158.6,93.5c-3.2-14.6-11.2-31.2-25-38.7C146.8,57.3,160.4,81.5,158.6,93.5Z" style="fill:#9a4a4e"/><path d="M125.9,53.5c4.7-2.7,9.9-3.2,14.7-5.7-1.2,3.9-6.2,5-9.7,5.9C141.6,52.7,119.3,56.9,125.9,53.5Z" style="fill:#3a576d"/><path d="M129.1,49.4c-2.1.8-4.7,2.6-4.7-1C129.1,46.1,136.2,44.2,129.1,49.4Z" style="fill:#5f7f92"/><path d="M131.9,54.1c2.3-1.5,4.6,2.9,1.3,3.9C128.2,55.8,123,54.8,131.9,54.1Z" style="fill:#050816"/><path d="M134,53.3l-4.4.8c4.1-1.2,8.1-2.4,11-5.7C139.2,51.1,136.6,52.2,134,53.3Z" style="fill:#acc9d9"/><path d="M140.6,47.8c-3.1,2-6.5,3.6-10.3,2.9a18.6,18.6,0,0,0,11.3-3.9Z" style="fill:#b2cddb"/><path d="M135,54.7c-.8-.9,6-5.1,5-4S137.1,54.4,135,54.7Z" style="fill:#a47f7b"/><path d="M15.7,100.5h4c-9.1-.6,8.3-6.5-.9,5.9,0-.9.1-1.5-.9-.8s-.2-2-1.4-2.2C17.6,102.3,16.6,101.5,15.7,100.5Z" style="fill:#5e2735"/><path d="M89.1,68.1c4.3.5-2.3,3.2-2.6,5.5-2.1,2,0-2.2.4-3-10-4.7,16.5-23,21.8-26.5,2.9.8,4.6-1.8,5.3.2-1.6,3.7-5.2,3.1-8.1,5.4C97.8,52.2,89.6,63.8,89.1,68.1Z" style="fill:#172739"/><path d="M110.5,44.4l-1.8,1.3c4.4-4.9-4.6,2.2-6.4,3.1.7-1.8,3.5-3.2,5-4.6,5.3-2.5,9.2-11.8,12.1-13.6C118.4,36.1,113.8,40.3,110.5,44.4Z" style="fill:#375263"/><path d="M114.5,46.7c-2.1-4.9,4.4-8,8.3-4.6s6,1.5,9.1,1.4c-2.7,4-20.8-4.2-14.8,1.8C119,46.5,115.2,47.3,114.5,46.7Z" style="fill:#4c4e5f"/><path d="M114.5,46.7c5.5-.6-1.7,2.9-2.5,4.5-1.7-1.6-7.2.2-10,.9S110.5,46.2,114.5,46.7Z" style="fill:#415c70"/><path d="M116.6,46.7h-1.2c6.9-2.9,15.8-1.1,21.6-6.2-2.1,6.1-15,1.9-12.8,7.7-4.3,0-8.2,2.1-12.2,2.9C112.3,48.2,123.1,47.5,116.6,46.7Z" style="fill:#a7c8d6"/><path d="M53.1,56c5.5-4.3,16.5-17.1,21.7-12.4A108,108,0,0,0,53.1,56Z" style="fill:#695969"/><path d="M160.1,101.1c.8-1.8,1.4.4,2.3,1.5-2.8-8.4,3.3,2.4,1.4-12.3,1.2,7.7,2.1,15.2.2,22.1C165.8,106.2,162.6,105.5,160.1,101.1Z" style="fill:#55333f"/><path d="M165.1,102.4c-1.4-9.8.4-.1,6.4-3.6-2.8,1,3.1,5.1-2.5,4.8C173.9,99.9,167.1,101.3,165.1,102.4Z" style="fill:#442c3d"/><path d="M109,35.7c-.6,8.4-36.1,25.9-19.4,14.8C96,45.6,104,41,109,35.7Z" style="fill:#618ca2"/><path d="M109,35.5c-2.3,2.4-6.4,8.3-9.1,7.6,3.4-3.7,7.9-6.5,10.1-11.4Z" style="fill:#c9e7ee"/><path d="M61.6,50.1c6-4,22.1-11.5,25.1-8.5C70.8,41.5,35,71.8,61.6,50.1Z" style="fill:#987a85"/><path d="M99,46.2c2.8-1.9,7.8-7.6,4.7-1.2-4.6,5.3-12.2,8.3-18.2,12C79.7,56.4,97,48.8,99,46.2Z" style="fill:#264158"/><path d="M103.7,45.2c1.7-.8,2-4.3,4.9-3.6C107,42.4,105.3,45.9,103.7,45.2Z" style="fill:#5c8496"/><path d="M149.9,146.9c-3.3,5.4-8.9,7.7-12.5,11.8-2.9,1.3-4.9-1.6-7.6,1.9-5.7,2.8-10.7,8.9-17,7.3,7.8-1.3,14.4-9.6,23.1-12,15.9-11.5,20.8-32.2,25-48.7,2,8.8-3.3,19.1-6.4,27.6C155.5,140.1,152.6,142.7,149.9,146.9Z" style="fill:#792624"/><path d="M126.4,160.8c-8.4,5.9-18.6,10.1-29,9.6,7.1-2.3,15.2-2.4,21.6-6.9-11.3.8,16.5-6,15.5-11.6,1.2-1,6.5-7.4,6.1-4.1a.8.8,0,0,1,.1-.8c-.3-7,4.8-3.3,4.3-12.2,4.3-6.6-1.7,10.5,2.6,4.5,1.2,3.5-2.7,7-5.2,9.3s-2.4,2.8-3.5,4.6c-1.3-.1-1.8.9-2.5,1.9C133.3,156.3,117.1,164.3,126.4,160.8Z" style="fill:#f8e7b2"/><path d="M98.2,180.5c-4,.1,4-10.3,8.1-10.6C101.7,172.3,100.9,177.2,98.2,180.5Z" style="fill:#7b2a2b"/><path d="M111.7,168.2l9-3.8C118.4,168.2,116,167.1,111.7,168.2Z" style="fill:#c38260"/><path d="M89.7,50.3c-8.3,6.8-13.7,7.3-2-.3,2.2-1.3,2.9-4.2,4.6-5.9.8.7,1.1,1.3,2.4.7C100.4,43.2,91.3,49.3,89.7,50.3Z" style="fill:#2a5473"/><path d="M96.7,44.3c-4.8,2.9-1.1-2.9-4.4-3.1,1.1-2.7,2.3-6.5,3.6-8.9-.3,5-3.5,9.4,3.8,8.3-1.2.7-2.8.2-4.2.4C101.8,40.6,101.7,40.7,96.7,44.3Z" style="fill:#75acc8"/><path d="M89.7,50.3c3.6-2.7,7.3-5.6,11.1-8.1C98.6,45.6,92.7,48.7,89.7,50.3Z" style="fill:#9bc4db"/><path d="M100.6,40.7a7.2,7.2,0,0,1-6.1-.1C96.5,40.7,98.6,40.5,100.6,40.7Z" style="fill:#caeef9"/><path d="M89.8,170.2c2.7-1.3,7.5-2.7,9.6-1.7C97.2,171.4,93.2,170.2,89.8,170.2Z" style="fill:#883220"/><path d="M90.6,170.2c2.6-.6,5.8,1.5,8.2-1.8C113.2,167.4,96.8,171.5,90.6,170.2Z" style="fill:#d5936b"/><path d="M165.1,135.2c1.7,2.6-6,11.6-8.3,14.8C160.1,144.9,163.3,140.4,165.1,135.2Z" style="fill:#c2d1db"/><path d="M95.7,32.3C93.2,47.5,78.5,54.4,72.3,67.6c-2.9-1.6,2-11.9,5.2-14.4s-3.4,5.4-3.4,7.4c2.2-4.3,6.2-7.1,9.4-10.2-6.5,5.4.1-1.3,2.4-3.8-8.6-1.3-34.1,19-21,4.9-4.1.6-.4-2.5,1.3-3.1C76,41.6,92.4,44,95.7,32.3Z" style="fill:#c6e4ee"/><path d="M95.7,32.3c-.9-1.4-1-2.4.3-3.8C97.7,29.9,97.6,31.1,95.7,32.3Z" style="fill:#bfa4a7"/><path d="M93.6,36.1c-1.2,2.2-1.5,5.4-5.3,4.9C91,40.3,91.8,37.7,93.6,36.1Z" style="fill:#90b3c7"/><path d="M114.5,50.3c2.6-2.1,9.9-2.3,14.2-3.4C124.2,48.5,119.3,51,114.5,50.3Z" style="fill:#daf4f6"/><path d="M127.4,47.1c-4.2,1.7-6.3-1.8-.8-2.3C125.8,46.1,125.7,46.7,127.4,47.1Z" style="fill:#5a7990"/><path d="M104.1,45.4c5.3-1.8-9,8-10.8,10.6-5.2,3-5.9,11-12.2,10.5C83.3,57,96.9,51.8,104.1,45.4Z" style="fill:#e4f5f8"/><path d="M96.7,52.8c.5-2,7.6-6.7,11-8.7A91.4,91.4,0,0,1,96.7,52.8Z" style="fill:#8faab3"/><path d="M157.7,121.9c-6,7.9-1.9-.3-1.8-3.8-4.3,1-1.3,9.3-6.5,8.2-8.2-1.6,2.5-25.9-.5-10.8,3.7-2.3,2.3-8.1,6.3-7.5a8.9,8.9,0,0,1-2.3-.1c3.4-2.1,1.1-8.6,1.1-12.4,1.9-3,1,7.6,1.3,8.9-2.1-11.3,5.2-4.3,1.1-10.3-.2-.5-.3-1,.5-.8,2.1,2.5,6.5,10.6,4.4,12.5C157.5,108.5,160.6,117.4,157.7,121.9Z" style="fill:#2e2f40"/><path d="M159.6,111.5c-1.1-6,3.3-9.4,2.4-2.2-1.2,3.5-.6-.2-.7-2.2C159,108.3,160.2,110.2,159.6,111.5Z" style="fill:#55333f"/><path d="M137.4,158.7c1.4-1.2,1-4.8,4.4-3.4C140.4,156.5,139.5,158.4,137.4,158.7Z" style="fill:#681c1e"/><path d="M149.9,146.9c1.6-2.6,3.2-5.1,4.9-7.5C153.9,142.3,151.6,144.4,149.9,146.9Z" style="fill:#cfbdc1"/><path d="M68.8,163.4c-15.3-4.9-23-9.6-31.3-23.6-2.2-1.6.9-2.8.2-4.4-.1-3.2-4.5-7.8-2.4-10.2C41.9,144.2,51.6,154.4,68.8,163.4Z" style="fill:#7b231e"/><path d="M35.5,125.3c-1.2,2.5,1.9,7,2.2,10.1-3-7.5-8.6-20.6,2-7.7-1.7-4.1.6-6.3,1.8-.9-1.6-3.3,1.6-5.7,3-8.7,1.2.7,2.4,7.3-.1,4.2-1.1,3.8,1.2-.4,2.1,1.3s3.1,7.7-1.1,8.1c-1.3-1.5,2-2.6,1-4.3.6,1.3-1.1,4-2.4,2-.7.3-.2,1.7-1.1,1.6-1.1-1.8.7,2,.1,3C38.6,134.5,38,127.6,35.5,125.3Z" style="fill:#6f282b"/><path d="M42.3,122.7c-1.3,1.7-1.2,2.5-.2,5.3-1.6-1.6-2.4-5.3-3.8-7.6-.4,2.9,3.1,6.6.7,8.7-.2-.9-3.2-4.2-1.8-4s-3.4-10.4-4.3-12c-.8-3.5,1.3-8.8-4.2-7.6,4.1-3.9,2.4-9.5,6.4-14.1,1.3.2-.6,3.1-.8,4.1.1,3.5-1.1,5.8-2.8,9,3,1.5,2.7,6.3,3.7,9.1,3.6-.5,4.1,2.7,5,5.5,1.2.3,1.5.7,1.4,1.8S42.7,121.9,42.3,122.7Z" style="fill:#3a2437"/><path d="M34.1,93.1c-8.4,2.1,14.4-40.6,27.5-43C47.9,60.5,37,76.2,34.1,93.1Z" style="fill:#904749"/><path d="M32.9,109.4c-.1,4.5,2.3,8.9,1.8,13.3C33.4,120.2,31.1,108.4,32.9,109.4Z" style="fill:#e6dee5"/><path d="M37.1,139.4l5.4,7.6Z" style="fill:#c3b0bc"/><path d="M79.8,168.1c-1.6-.9-9.7-2.6-6.5-4.7,2.6.9,5.5,2,8.3,1.7-3.3-2.5-6.7-4.9-9.4-8s-3.4-5.2-5.1-5.8.2,1.4-.8,1.6c-.7-2-3-10.4,1.6-7.2,4-3.4,4,10.1,10.5,10.6,14.2,7.4-9.9.5,10.1,9.2C102,166.5,84.8,168.7,79.8,168.1Z" style="fill:#060410"/><path d="M94.4,166.2c-4-1,0-6.3-6.6-6-1.9,3.8-10.1-10.2-6-8.1,6.3,6.8,17.7,14.2,26.8,11C107,166.5,98.3,164.8,94.4,166.2Z" style="fill:#54525e"/><path d="M106,168.7c-13.7-.3,5.2-1,10.1-4.4-13.1,4.8-11.4-.5-.1-.7C126.6,161.5,109.8,168.4,106,168.7Z" style="fill:#ac735d"/><path d="M116,163.6c-1.8.8-12.2,1.5-8.5,3-12.3,2.1-.5-.2,1.9-4.5C111.6,162.4,120.7,160.3,116,163.6Z" style="fill:#5d282d"/><path d="M81.3,165.5c-3.3,1.6-13.1-10.4-12.9-6.1.5,1.8,7.1,3.8,3.8,4.5,4.5,5.4-14.8-6.9-13.6-13.8,2.1-4.3,5.3,2.9,6.6,4.7C61.3,147.4,79.5,164.2,81.3,165.5Z" style="fill:#47161b"/><path d="M90,75.5a15.5,15.5,0,0,1,8-.4c-3.1,1.3-6.5,3-7.9,6.1,2.3-2.7,4.6-5.4,8.3-6.1,9.6-.9,13.3-11,22.8-14-18.1,11.1-3.3,7.2,7.4,14.5,1.4,2.4,4.9,3.1,6.5,5.5-1.3,1.3-4.1-1.3-5.6-1.9s-14.1-7.5-12.1-5.4c9.6,4.5,20.6,20.8,16.9,30.3-1.4-.9.2-1.8.3-3-3.3-3.4-2.6.9-4.5,2.9-2.6,5.1-3.6,9.7-6.4,14.7-.6,1.4-1.5-.4-1.9.4-7.3,7-4,.5.5-2.6-1.7,2.5-1.4.1-2.9.9.1-2.3,2.6-4.6,4.1-6.5s-1.1-1.6-1.8-2.9c2.1-3.2,2-8.4,5.1-10.7-1-2.5.1-6.3-2.1-6,.4-1,0-6.7,1.2-4,5.7,17.5,1.4-9.3-7.7-11.7,3.9,2,8.3,8.2,9,13-3.7-4.5-5.9-11.6-12.4-13.5,2.5.6,8.5,7.3,3.1,6.5-3.6.6-4.3-5.3-7.7-4.2,3.2-1.4,11.5,10.9,7,10.2.4,1.1,1,2.8,0,3.6s-.5,5.8-1.2,8.5c-2.3,6.3-1.6,4.9,3.6,4.3-1.1,1.7-4,3.5-6.2,2.4-2,2.4-2.9,6.1-6.2,7.8-9.3,5.6-18.8,11.7-19.8,19.8,0,1.8-2.1,4.2-2.7,1.3.4-4.6,4-8.1,5.9-12.1,4.2-2.9,9.8-5.9,14.6-9-11.7,4,13.3-5.8,9.4-21.2-.2-1.9-.7-1.7-.6.1s-7.6,12.8-9.6,10.7c10.1-8.1,12-27.5-5.3-27.1,7.2,5.6-2.1,1.2-4.9,4,1.2.1,3.3-.3,3.9,1-2.1,1.1-5.2-.6-6.8,2.2-3.3-.7-4.2,3.4-7.7,3.1-6.1-.4-7.2,5.3-9.6,9.3C71.2,95,78,87,76,88s-2.7,5.8-3.3,3.5-.7-1.5-1.5-.7c-7.2,2.7-2.5-5.3,1.7-6.1.4-.1,1.1-.3,1.2.3-5.1,3,3.6-1.7,6.7-.3C87.8,86.1,85.6,76.9,90,75.5Z" style="fill:#050816"/><path d="M134.8,80.8c-11.8-12-25.9-7.3-19.5-15.6,4.6,2.1-7.4,3,5.3,5.9,7.8-3.5,16.1,3.3,19.1,10.4-2.1-2.4-12.2-7.5-4.4-1.4C136.4,80.7,135.6,81.6,134.8,80.8Z" style="fill:#333947"/><path d="M112,51.1c2.2.8-2.1,2.6,2.6,3-7.2.3-13.3,8.7-21.9,10.4,2.1-4.4,7.4-6.1,11.4-8.5,2.1-1.9-3,1.2-4,1.7C101.5,54.2,108.4,52.8,112,51.1Z" style="fill:#324c5f"/><path d="M110.3,55.2c.6-2.5.4.7,5.7-1.4-11.6.1,4.1-5.8,8.5-5.4C127.5,53.2,114.6,54.1,110.3,55.2Z" style="fill:#253548"/><path d="M131.9,54.1c-7.1,1.2-2.4.7.6,4.1,0,2.2-3.4.5-2.5-1.4-3.8.4-8-.5-11.9.2,4.8-2.7,3.1-2.1,7.8-3.5C121.3,55.6,130.2,54,131.9,54.1Z" style="fill:#122942"/><path d="M116.7,70c-7.3-1,2.7-7.1,6.1-2.2C122.3,69.8,118.6,69.8,116.7,70Z" style="fill:#6b8c9c"/><path d="M118.1,57c16.3-2.9,7.2,3.6-2.9,3.1-2.9-.3,6.7-2,8.5-3-7-.9-13.4,3-17.8,8.2C107.1,60.8,113.6,58.4,118.1,57Z" style="fill:#7596a6"/><path d="M90,75.5c-2.6,4.2-9.5,2-2.1.2,3.1-7.4,4.4-10,12.4-8.9a11.2,11.2,0,0,0-5.9,1.1c5.2.4-4.8,2.2-4.8,5.9C92,72.4,91,74.2,90,75.5Z" style="fill:#314f62"/><path d="M117.4,65.7c0-3.6,9.2-6.4,12.8-3.4-2.4,1.1-3.2,1.7-2,4.1C125.1,66.8,125.6,59,117.4,65.7Z" style="fill:#486d83"/><path d="M113.9,60.2c7.2-2.1,2.1,3-1.5,4.3S111.9,60.7,113.9,60.2Z" style="fill:#bcdde5"/><path d="M91.7,68.1l3.1-.9c-4.3,2.3-5.6,7-9.3,8.7C84.8,73.2,89.2,69.5,91.7,68.1Z" style="fill:#cfe9f0"/><path d="M130,58.4c3.3.9,9.1,1.7,10.6,4.3C137.5,60.9,125.4,63.4,130,58.4Z" style="fill:#64788d"/><path d="M113.4,58.7c-5.1,2.6-11.7,10.9-4.6,1.5-11,2.4,1.1-2,4.9-2.5C112.6,58.3,111.1,58.8,113.4,58.7Z" style="fill:#193245"/><path d="M94.2,73.6c1.6-2.2,7.6-7.6,8.1-2.4C100,72.6,96.8,73.2,94.2,73.6Z" style="fill:#385771"/><path d="M102.1,71.1c0-2.3-1.8-1.5-3-1.7,1.4-1.3,3.7-.1,5.5-1-1.5-.2-2.8.5-4-.3,2.9-2.1,6.3-.5,9-1.3C107.4,68.4,104.8,70.8,102.1,71.1Z" style="fill:#688da0"/><path d="M107.1,62.6a6.2,6.2,0,0,1-6.9,3.4C103.2,63,103.2,60.3,107.1,62.6Z" style="fill:#4e6d7f"/><path d="M93.8,63.2c-3.2,4-.9,0-3.4,0C91.8,58.9,97.6,58.6,93.8,63.2Z" style="fill:#6e91a2"/><path d="M129.7,58.5c-2.6,4.7,10.5,2.2,8.7,4.1C133.5,61.5,120.3,63.3,129.7,58.5Z" style="fill:#21364b"/><path d="M103.1,71.2c4.4,1-6.7,3.9-8.9,3.1C96.5,72.7,100.3,72.3,103.1,71.2Z" style="fill:#446377"/><path d="M109.6,66.8c-2.3,1.7-4.8-.4-7.6.6C104.4,67.2,116.8,62.3,109.6,66.8Z" style="fill:#2b495e"/><path d="M91.4,73.4c-4.6,2.1-.1-3.6,2.4-4.6C94.1,70.8,92.3,71.9,91.4,73.4Z" style="fill:#84a7b6"/><path d="M90.4,63.2c4.4-.7-1,5.2-3.3,6.6C90.3,66.9,89.7,66.1,90.4,63.2Z" style="fill:#385469"/><path d="M103.1,71.2c-3.6,1.3-6.8,2.3-10.4,3.7,4.1-3.1,9.4-3.1,13.8-5.7Z" style="fill:#c0dfea"/><path d="M98.4,75.1c-.9.7-7.6,3.1-4.4,3l-1.2.5C85.6,87.1,93,74.5,98.4,75.1Z" style="fill:#3c3a46"/><path d="M113.5,63.9a26.7,26.7,0,0,1,10.6-5.4Z" style="fill:#2f4555"/><path d="M124,60.9c-5.2.2,3.3-2.2,5.2-3.2C128,59.9,125.7,60,124,60.9Z" style="fill:#050816"/><path d="M120.9,56.9c8.8-.8-2.3,2.5-5.5,2.5C116.6,58.8,124.4,57.1,120.9,56.9Z" style="fill:#2d4c61"/><path d="M103.8,61.5c-1.2,1.3-1.5,4-3.6,4.5h1.2C95.4,66.8,102.6,63.2,103.8,61.5Z" style="fill:#193245"/><path d="M100.6,68.1h4.7C104.7,69.4,94.9,70.3,100.6,68.1Z" style="fill:#abd2e0"/><path d="M97.8,68.6a4.6,4.6,0,0,1-4,3.4C95,70.4,95.8,69,97.8,68.6Z" style="fill:#050816"/><path d="M112,61.3c-1.2,1-2.3,3.6.4,3.2C106.4,65.7,108.5,64.2,112,61.3Z" style="fill:#84a4b0"/><path d="M135,54.7c9.8-1.4,31.1,36.3,23.6,38.8C159.1,80,147.9,61.7,135,54.7Z" style="fill:#83333c"/><path d="M156.9,93.3c3.3,8.9-3.1-1.2-1.6,11.8.4-3.2-2-8.7.1-11.7-1.6-1.9-3.2-4.9-2.7-7.4C154.5,86.6,160.1,92.7,156.9,93.3Z" style="fill:#4e5365"/><path d="M158.1,92.5c-4.2-12.4-10.8-26.4-22.1-35.9C141.6,56,158.5,80.3,158.1,92.5Z" style="fill:#c29f9d"/><path d="M134.6,55.2c3.1,2,3.5,6.4-.9,3.3C132.6,57.5,135.6,56.3,134.6,55.2Z" style="fill:#434e5b"/><path d="M133.2,57.9c2,1.7,10.4,3.7,8.4,6.1-2.1.3-2.3,3-4-.4C147.5,63.2,127.2,58.8,133.2,57.9Z" style="fill:#27495c"/><path d="M85.7,74.2c-.2,9.2-9.4,13.3-3.2,7.5-4.4,3.2-11.5,1.2-14.4,7-1.2,1.3-2.5,3.8-4.4,3.9,3-8.7,13.2-9.1,17.6-16.1,3.9-4.4-1.6-3.4-2.7,0-1-1.3-2.8-1.2-4.2-2.5C77.5,71.3,90.9,66.9,85.7,74.2Z" style="fill:#050816"/><path d="M111.9,51.1c-4,2.8-9.1,2.7-13.9,3.4C100.5,51.6,112.2,48.3,111.9,51.1Z" style="fill:#a7c8d6"/><path d="M98,54.5c7.2-1.7,10.5-1.9,2.1,2.7-1.7,2.5-4.6-.2-6.7,1.9C94.9,57.5,96.5,56,98,54.5Z" style="fill:#d9f1f4"/><path d="M93.4,59.1c1.8-3,4.4.4,6.7-1.9s3.3-2,5.4-2.4c-3.5,3.4-8.7,4.4-11.7,8.4C95.8,61.2,94.5,60.9,93.4,59.1Z" style="fill:#95b7c5"/><path d="M84.9,70.4c-4,1.5-7.7,1.6-4.5-3.4C81,69.7,86.3,65.4,84.9,70.4Z" style="fill:#426479"/><path d="M85.1,68.3c-1.7-.8-3.2.2-4.8.3C79.6,65.3,87.4,64.5,85.1,68.3Z" style="fill:#7ea3b3"/><path d="M90.2,58.8l5.3-4.9C93.9,55.7,92.5,57.7,90.2,58.8Z" style="fill:#4b636c"/><path d="M124.9,44.7c-3.5,1.3-6.7-.7-10-1.2C118.4,40.5,121.4,44.5,124.9,44.7Z" style="fill:#5c5365"/><path d="M114.9,43.5c2.6-.5,4.8,1.1,7.2,1.7C119,46.2,116.8,46.4,114.9,43.5Z" style="fill:#9c797d"/><path d="M116.6,46.7c7.2-1.3-.5,3.1-3.7,2.6A7.4,7.4,0,0,0,116.6,46.7Z" style="fill:#71899b"/><path d="M80.5,56.2c6.7-2.3,12.4-5.7,18.5-10C94.4,49.4,84.1,58.3,80.5,56.2Z" style="fill:#a0c7d5"/><path d="M38.8,77.6A61.6,61.6,0,0,1,66.2,48.4C54.7,55.1,44.7,68.7,38.8,77.6Z" style="fill:#ebc3bc"/><path d="M95.9,51.4c-3.2,1.8-9.8,9.5-11.3,8.3.8-.7,1.6-1.7-.1-.9C80.3,58.6,94.8,51.5,95.9,51.4Z" style="fill:#61889c"/><path d="M80.2,56.6c7.8-2.6-3,4.5-4.8,7.6C74.5,61.7,78.2,57.8,80.2,56.6Z" style="fill:#d1f3f6"/><path d="M79.3,59.4c1.3-.5,5.2-5.2,5.1-2.1C82.2,59.2,74,66.7,79.3,59.4Z" style="fill:#3e5f70"/><path d="M95.9,51.4l-6.6,3.3C96.6,49.7,110.7,40.6,95.9,51.4Z" style="fill:#a8c6d0"/><path d="M146.1,119.7c.5,3.1,2.7,8.7,6.1,5.5,2.3.2,2.7-.4,4.9-2.5-.7,2.2-4.9,12-6.4,6.9-1.5,2.2-1.8-.9-2.8-1.9s-1.6-1.5-1.7-2.9c-3,1.5.1-2.8-1.6-3.8s-.5-3.5-2.7-2.4C141.7,113,145,120,146.1,119.7Z" style="fill:#5d2223"/><path d="M155.4,126.5c5.4-3.3-19.9,37.3-15.2,23.6C148.1,144.5,150.9,134.8,155.4,126.5Z" style="fill:#b34928"/><path d="M125.4,160.4c3.6-1.8,6.8-5.2,10.7-4.4C132.6,156.9,127.6,161.2,125.4,160.4Z" style="fill:#b1593f"/><path d="M136.1,156c-5.7.9.3-.5,1.9-3.3,1.7,1.1,1.4-4,4.3-4.3C139.5,150.5,139.3,154.3,136.1,156Z" style="fill:#d6875a"/><path d="M157.7,121.9c.6-3,1.2-6,1.9-9.1C159.4,116,159.3,119.1,157.7,121.9Z" style="fill:#dfd2d2"/><path d="M123.4,160c-1.8,1.7-7.5,3.3-3.7-.6-4.3.9-12.5,2.5-15.5-.8,1-2.1,4-3.6,1.8-.3,1.8-.3,1-1.7.3-2.7a1.4,1.4,0,0,1,1.9,1.2c-.7,6.3,1.9-1.7,3-.3-.6,2.4,1,1.5,1.9.2,1.1,1.4,2-.6,3-1.3,3.4-.4,0,1.4,1.1,2.9,6.5-3.3,1.8-3.6,5.6-6.1,1.9-2.5,2.9-1.8,5.2-3.3.9,1.8,1.5.1,2.8.2a2.9,2.9,0,0,1-4.3,2C121.7,154.8,128.1,154,123.4,160Z" style="fill:#f2b781"/><path d="M104.4,158.5c3.2,1.9,8.4,3.7,9.2-1.5-1.8,5.8,3.3,1.9,6.9,2.1-.6,1.3-4.3,3.5-2.2,3.2-9-.8-16.5,0-23.1-5.2-1.3-1.1,1.4-2.7,2.4-3.2A29.1,29.1,0,0,0,104.4,158.5Z" style="fill:#87707f"/><path d="M130.8,149.4a14.1,14.1,0,0,1,8-7.4c-.3,1.4-6.3,7.1-3.6,5.5,3,.4,1.7-2.7,3.1-4.2,1.8,2,2.8-3,5.2-2.9.7-1.4,1.9-4.9-.4-2.5-1.1.8-1-.8-.2-1.2s.9-3.9,3.2-3.9c3.1-2.6.5,3.9.6.6-4,2.2,1.1,6.1-5.1,10.2-1.3,1.4.3,3-1,4.7s-.5-.7-.1-1.6a23.9,23.9,0,0,1-8.8,6C130.3,151.7,132.3,150.2,130.8,149.4Z" style="fill:#f0bc85"/><path d="M146.5,134.2c1-.4,1.1-.9.6-2-.5.6-.8,1.4-1.6.8-.9,1.7-1,4.5-1.3.8-.3-1.5-.8-4.3,1-2.1-1.9-1.8-.1-1.4,1.3-.4-.4-1.7-2.5-4.3-.6-6.2.2,8.1,2.3,1,3.1,6.3-.4,2.6-1,6.2-1.2,8.7-.1-.2-.1-.4-.3-.8C143.8,146.3,146.4,137.1,146.5,134.2Z" style="fill:#efb570"/><path d="M131.7,156c-2.7,1.1-7.1,5.8-5.9.4.9-1.6,4.6-5.1,6-3S133.2,155.2,131.7,156Z" style="fill:#b06b5e"/><path d="M126.1,156.4c-.1,1.5.4,4.3-2.7,3.6.4-1.9,2.1-3.5,1.6-5.7-3.5.4,1.2-2.7,1.3-3.8,1.9,1.6,2.8.4,4.5-1.1C131.6,152.3,125.6,152.8,126.1,156.4Z" style="fill:#f9dd97"/><path d="M130,151.1c2.7-3.6,1.8-1.3,1.2,1.9,4.7-5.3,4.5.9.5,3,.8-.8,1.2-1.3,0-2C131.2,151,127.3,156,130,151.1Z" style="fill:#db9a6e"/><path d="M147.8,140.1c.6-3.3,3.7-6.5,5.9-10.6-1.2,5.1-6.2,14.6-11.4,18.9C144.8,146.1,147.1,143.6,147.8,140.1Z" style="fill:#dc8558"/><path d="M125.4,160.4c.5,1.4-2.5,1.6-3.5,2.4C121.1,161.4,124.5,161.2,125.4,160.4Z" style="fill:#c38260"/><path d="M84.7,51.4c4.1-2.5,5-9.2,9.4-10.4-.6,2.6,1.5,4.5-1.5,4.4.7-3.5-5.9,7.3-9.2,7.9C82.5,52.5,84.3,52,84.7,51.4Z" style="fill:#42789b"/><path d="M80.2,56.6c-3.1,1.6-10.2,19.9-9.9,9.6C73.2,71.8,78,53,80.2,56.6Z" style="fill:#4d7a89"/><path d="M80.3,55.8c-1.3-.5,3.1-3.7,4.4-4.4C83.7,53.3,82,54.5,80.3,55.8Z" style="fill:#8ab6c4"/><path d="M75.2,57.5l3.7-5C74,58.3,67.6,60.9,61.7,63.8c-.2-3.6-4.3-1.1-4.2-3.8C64.3,51.8,97.1,38.6,75.2,57.5Z" style="fill:#295573"/><path d="M64.1,62.4c9.4-5.3,11.4-6.2,7.4,5.2-1.4,1.5-.8-.2-1.1-2.6.2,8.1-1.9.9-.1-2.3-5.7,10.8-.6-8.5-15.6,10.6C50.2,75.7,61.6,63,64.1,62.4Z" style="fill:#15314b"/><path d="M61.3,57c-2.2,1-5.4,7.2-6.8,2.7s13.4-11.6,9.6-7.2c-.5.2-1.2,1-.5,2.4C62.8,55.7,61.2,55.4,61.3,57Z" style="fill:#b7d0dc"/><path d="M75.2,57.5a54,54,0,0,1,9.3-7.9c-3.6,3.9-8.2,6.9-10.9,11.8Z" style="fill:#6c97a5"/><path d="M82.6,50.4c-1.3-3,.6-4,3.8-4.4C87.9,47.6,83.6,49,82.6,50.4Z" style="fill:#477f99"/><path d="M83.4,58.7c6.4-2.2-5.1,8.1-4,13-1.2.4-7.2,3.8-5.1,1.6C85.5,69.5,70.8,66.7,83.4,58.7Z" style="fill:#7ea4b4"/><path d="M132.7,99c2.2,2.2,2.7,2,.8,5.5,8.3-10.1-2.8,11.1,3.8,8.3-1-4.2,2-4.9,4.8-2.3,1.4.6,2.4-1.9,3.4.1s1.5-1.5,2.7-.8c.4,3.1-1.6,11.8-3.2,5-.1-1.7-5-3.6-6.3-4.2,3.2,4.1,1,7.6-1.4,11.7-1.2,1.9-1.2,1.7-3,1.2s-1.2,2.5.1,3.1,1.6-1.3,2.3-.2-1.6,1.9-2.7,1.5c-10.5,5.3-1.7,7.3-9.8,8.8-2.5,1.1-1.5-4-4.7-3.3-1.2,1.3.8,2.2,1.4,3.3-4,6-11.7,9-18.9,9.6-9,2.3-8.2-4.7-4.6-10.7s10.2-9.9,16.7-11.7c-.7,2.1-2.6,5-3.3,7.6,4.1-3.9,8-8.7,11.6-12.8,2.6,0,2.1-3.5,2.7-5.3,5.7-2.1-3.1,9.4-3.6,12.7,3.2-2.1,14.2-14.6,7.5-14.4.7-1.7,2.7-2.8,3.5-4.6C129.2,106.5,132.4,101.2,132.7,99Z" style="fill:#1d0e20"/><path d="M155.2,92.8c.4,3.6-2.1,10.5-4.6,15.3-1.9,2-.6-3.4-.7-4.4,2.1-8.8-1.9-17.4-6.7-24.6-5.2-5.3,1.4-1,4.7-.6C152.6,81,150.9,93.7,155.2,92.8Z" style="fill:#496a83"/><path d="M137.4,121.7c.4-2.7,3.5-4.7,2.8-7.4s-2.4-6.7.3-3c6.6,1.1,8.6,13.9,1.8,5.3C142.4,118.8,140,123.8,137.4,121.7Z" style="fill:#350812"/><path d="M149.9,108.7c6-16,7.7-2-1.6,8.6C149.1,114,149.2,111.5,149.9,108.7Z" style="fill:#3b5167"/><path d="M147.6,114.5c1.1-8.1-1.7-15.9-2.5-23.9C149,88.4,150,111.1,147.6,114.5Z" style="fill:#112032"/><path d="M149,110c.2-6.9-1.2-13.8-2-20.6C150.3,92.3,150.6,114.2,149,110Z" style="fill:#4d7991"/><path d="M154.4,125.1c-3,3.2-1.2-6.3,1.6-6.6C155.5,120.7,154.9,122.9,154.4,125.1Z" style="fill:#201422"/><path d="M156,118.5c-3,1.3-1.5,5.6-3.8,6.7C151.6,122.9,156.4,115.1,156,118.5Z" style="fill:#6b4a4d"/><path d="M58.8,149.4c1,6.3,5,10.4,9.9,13.8-5.8-3.1-10-6.2-12.3-12.4-5.7-3.5-4.7-3.1-7.2-8.1-3.7-1.8-.7-7-3-8.7a1.2,1.2,0,0,1-2.3.1c-1.6-1.8-.9-7,.8-4.2,2.1-.4,1.3-2.1,1.6-3.3.4,1.6.6,3-1.1,3.9-.1,2.3,1.7-.4,2.5.5-2.2,2.6,1.5-.4.4,3.5s5.5.7,2-.4,1.5-3,2.5-1.6.4,3.9-.6,6.2c-1.1-.5-2,1.5-2.6.3,1.2,2.8,3,4.6,4.8,6.6.8-2.6,2.2,1,3.1,2S59.2,148.2,58.8,149.4Z" style="fill:#e8ae78"/><path d="M43,130.9l1.2,3.6c-.2-2.4,1.3,6.9-.9,4.6,2.1,5.6,6.3,9.1,9.8,13.7,8.6,9.3-3.6-3-6.8-4.8-3.5-4.9-14.8-30-7.8-17.4,3,6.6,2.6,4.8-.1-.5C45.5,140.2,40.6,125.4,43,130.9Z" style="fill:#993722"/><path d="M56.9,156.6c-.8-1.2-5.5-3.4-3.2-4.3C55.8,153.9,66.3,162,56.9,156.6Z" style="fill:#be6e46"/><path d="M42.3,122.7c-1.4-3-3.2-4.6-4.4-8.7,2.4-3,.5-2.5,1.3-5.8C43.8,111.5,46.5,117.4,42.3,122.7Z" style="fill:#403240"/><path d="M44.6,118.1c-.4-3,3.7-.6,4,1.2.1-1,0-2.1,1.1-2.9-.4,2,1.1,3.8.9,5.5-1-.1-.9.2-1,1.3a13.7,13.7,0,0,0-3.4.4c-2.6.5-2.6,2.1-2-2.4C46.5,125.7,45.3,119.9,44.6,118.1Z" style="fill:#c0654f"/><path d="M46.2,123.6c3-2.3,11.8,10,4.7,5.1C54.8,136,47.3,126.7,46.2,123.6Z" style="fill:#836975"/><path d="M34.7,122.7c-.3-3.2-1.8-8.5,1.6-2.8C36.7,121.8,38.6,128.5,34.7,122.7Z" style="fill:#403240"/><path d="M48.1,127.2c1.2,1.8-1.1,11.3,3.3,8.7-1.7,4.2-4.8-1.2-3.4-3.9C45,134.7,47.9,128.8,48.1,127.2Z" style="fill:#d48154"/><path d="M38.4,130.1c5.5,7.4.8,6-.5-1.1A5.4,5.4,0,0,1,38.4,130.1Z" style="fill:#d9906c"/><path d="M39.1,124.6c-.1-1.4-2.2-4.3-.7-5C38.5,121,41.2,124.6,39.1,124.6Z" style="fill:#cfa490"/><path d="M39.3,108.3c.8,4.7-.3,6.2-4.5,5.9-.5-3.6-.8-7.1-3.7-10.1,3.6-2.9,1.9-8.3,4.4-12.3,4.4,6.7,4.2-8.8,7.1-11.8,3.1-6.5,13.9-26.7,19.2-16.2C56.3,66.9,50,84.4,44.7,78.5,39,86.4,37,122.2,38.1,97.2,38.3,100.7,36.2,106.9,39.3,108.3Z" style="fill:#282a3c"/><path d="M40.6,85.9c-.9,3.4-2.4,13.5-5.2,5.6C34.4,90.4,38.9,85.3,40.6,85.9Z" style="fill:#3c5163"/><path d="M35.9,90.1C31,98.4,37.4,78.3,39.3,78,39.1,82,35.5,85.6,35.9,90.1Z" style="fill:#b08c89"/><path d="M34.7,117.6c-1.8-2.1-1.4-3.3-1.3-6.7Z" style="fill:#282a3c"/><path d="M37.1,125.3c-.1-1.5-.3-3.1-.5-4.6C36.7,122,39.9,126.7,37.1,125.3Z" style="fill:#9098ae"/><path d="M81.3,165.5c-5.6-3.4-11.7-9.9-16.4-12.5-1.5-3.2-2-11.5,3.3-8.1-.1-2.5-1.1-5.1-.4-7.6,1.6.1.9,3.1,1.3,4.2,3.7-4,3.4-14.3,9.9-19.1a43.8,43.8,0,0,0-6.3,24.8c2.2.3-2.2-9.3,1.4-6.9.6,3.2,4,3.2,5,5.3.1,9.7,7.8,15.5,14.7,20.7-6.9,1.7-20.8-9.2-11-5.7-4.9-4.5-11.8-6.8-12.3-15.2-.6.2-1.6-1.9-1.5.2-1.6.9-5.4-2-3,1.9-.7,1.5.7,7.4.6,3.8.6-1.1,2.1-.1,1.8.4C70.5,156.8,82.4,164.2,81.3,165.5Z" style="fill:#090b1e"/><path d="M68.2,159.6c-3.2-5.7,8.6,5.3,12.3,5.4C73.7,165.9,74.8,161.2,68.2,159.6Z" style="fill:#8e5846"/><path d="M68.2,159.6c3.4-.2,5.4,3.1,8.2,4.6C72.9,164.3,70.9,161.4,68.2,159.6Z" style="fill:#d39f7e"/><path d="M94.7,156.2c15.5,11.5-3.9,5.7-7-.7C82,136.1,88.6,146.6,94.7,156.2Z" style="fill:#090b1e"/><path d="M87.7,155.7c9,10-10.8-6-8.1-5.7C79.6,144.9,86,154.5,87.7,155.7Z" style="fill:#393037"/><path d="M93.8,166.1c-2.3-1.5-6.9-3.4-6.6-6.3C92.5,159.3,92,163.1,93.8,166.1Z" style="fill:#70707a"/><path d="M100.4,162.9c-2.3-4.5,6.9-.7,9-.6C107.5,164.6,102.7,164.3,100.4,162.9Z" style="fill:#281f34"/><path d="M92.9,160.5c-1.3-2.1,9.9,4.9,14.3,3.4C104.8,165.5,95.6,163.3,92.9,160.5Z" style="fill:#202939"/><path d="M107.2,163.9A18.1,18.1,0,0,1,97,162.1C99.5,163.4,107.6,163.2,107.2,163.9Z" style="fill:#c4d5e3"/><path d="M109.4,162.3a20.5,20.5,0,0,1-8.4-1.8C103.6,159,109.7,160.4,109.4,162.3Z" style="fill:#8ba0d0"/><path d="M58.8,149.4c-.2-.8-1.8-3.2.1-2.6s-1.3-7.4.8-9.2c1.6,1.2.9,3.1,1.5,4.7,2.7-4.5,1.2,1.2,1.5,3.4,3.6-3.6.2,6.2,2.3,8.4s.2,1.2-1.6-1S62.8,148.4,58.8,149.4Z" style="fill:#5c5761"/><path d="M65,154.1c-1.5-2.1-2.3-16.8,2.7-12.2C68.8,146.6,61.3,143,65,154.1Z" style="fill:#7293a1"/><path d="M73.9,96.1c4.8-17.4,30.8,3,19.3-7.3-.3-.8.7-.7,1.1-.4-.7-2.1,1-.5,1.3.3-.6-1.4-2.3-2.4-3-3.8,2-1.6,13.3-.4,9.6-1.9-1.2.1-1.6-2.7-.4-2.2-1.1-.5-1.2-1,.2-1.5-5.8-3.1-2.4-4.8.8-.9,26,7.4-5.9,30.6-14.8,27.1,7.1-2.2,14.1-5.2,19.6-10.5C82.3,115.9,74,92.5,64.7,116.8c-.9,1.6-2.1,1.3-2-.5s-2.5-2.1-2-4c-1.4-3.7,0-2.1.8-5.4C63.1,97.3,75,106.5,73.9,96.1Z" style="fill:#011e34"/><path d="M63.7,92.6c3.4-4.1,8.7-1.6,7.2,3.8-.2,3.4-6.3,1.7-2.4-.9-28.6,32.1-29.9-3.7-12-23.8,5.5-3.2,7.4.7,4.6,5.7.9,4.7-3.7,8-6.2,11.9-1.2,1.2-.9,4.2,0,5.4-.3-.7-.6-2.6,1-2.4C57.9,103.1,56.9,93.1,63.7,92.6Z" style="fill:#010e25"/><path d="M87.7,155.7c-3.3-3.2-4.9-8-7-11.9-4.6-1.2.4-6.7,3-7.8-1.7-14.4,8.4-19.8,20.4-21.6,7.2-2.1-21,9.6-19,22.1,3-.7.6,5.9.8,8s1.2,2.9,0,4.4S89.7,154.5,87.7,155.7Z" style="fill:#03030c"/><path d="M121.9,108.1c3.5.5.9,5.7.3,3.5.6-3.9-3.7,1.7-5.2,2-7.8,8.1-22.1,5.5-28.1,16.7-5.3.4,13.4-14.2,18.2-16.3.4,1.4-2.3,2-3.3,2.9C124.1,96.5,109.5,121.6,121.9,108.1Z" style="fill:#0b1427"/><path d="M119,73.4c6.2,4,14.1,6,19.6,10-1.6,4.7,3.8,16.7-.6,23.7-1.5-8.4-8.2-18.6-9.5-25,6.9,4,8.9,13.8,9.2,21.3C140.8,81.7,134.2,83.5,119,73.4Z" style="fill:#0e1b2c"/><path d="M116,99.4c-.1-2.5-.2-4.9-.4-7.5,3.8-.6-.4-6.6,2.6-4.1-.1-4-3.7-9.9-9.1-10.5,3.2-1.7,4.6,1.6,6.1,3.3,9.5,1.1,4.5,8.6,2.7,13.9s1,1.9,3.4.2C121.7,96.8,117.8,98.9,116,99.4Z" style="fill:#182c41"/><path d="M112.9,104.1c.4,5.3-18.8,16-16,10C103.8,112.9,107.4,105.6,112.9,104.1Z" style="fill:#5c7788"/><path d="M112.9,104.1c-5.5,2.7-9.5,9.1-16.6,10.9,2.4-.5-1.5,2.8-2.9,3.1-6.5-.4,12.6-8,15-11.8s5.4-9.6,5.9-14.9C116,95.4,114.8,100.2,112.9,104.1Z" style="fill:#b1d6e0"/><path d="M107.3,101.5c-9.2,7.8-22.2,9.7-31,18.5C68.1,117.7,104.2,103.1,107.3,101.5Z" style="fill:#2f505f"/><path d="M121.3,108.7c-6.5,8.4-3.8,2.2-8.9-1.9C115,107,122.9,103.1,121.3,108.7Z" style="fill:#375168"/><path d="M121.3,108.7c.4-5.3-5.2-1.1-8.9-1.9,2.2-1.3,5.2.2,6.8-2.9s6.7-5.5,7-10C128.1,97.5,123.3,104,121.3,108.7Z" style="fill:#19293f"/><path d="M98,103c7.9-2.8,14.4-9.3,14.6-16.9C115.6,101,91.6,107.5,98,103Z" style="fill:#354d62"/><path d="M121.5,113.6c-.6,1.4-3.9,5.8-.5,2.4-.9,3.3.8.6,2-.4-.5,1.1-6.9,9.1-7.7,5.5s-3.2,1.1-4.8-.2C114.5,119.1,117.2,115,121.5,113.6Z" style="fill:#2c1f28"/><path d="M121.5,113.6c-1.7,1.6-13.8,7.7-11.2,4.5C113.3,117.8,124,105.6,121.5,113.6Z" style="fill:#512726"/><path d="M116,99.4c6.3-2.7,8.9-10.5,5.9-16.7,1.7-2.4,4.7,5.8,3.7,4.1C126.1,92.2,119.9,99.6,116,99.4Z" style="fill:#3d536a"/><path d="M76.4,92c-.4-6,16.6-8.5,20.3-.2C90.7,88.6,82.2,85.4,76.4,92Z" style="fill:#2c3443"/><path d="M119,73.4c5.5,3.6,11.6,6.1,16.7,9.9-2.9.5-5.7-2.9-8.2-4.1,3.8,1.5.9,4.6-1.3,1.5S110.1,71.5,119,73.4Z" style="fill:#13243b"/><path d="M116.4,122.5c4.4-.9-16.6,6.5-18.8,13.1-1.1-1.7,2.4-4.4,3.6-5.8C106.7,124.4,110.1,123.7,116.4,122.5Z" style="fill:#e8d2b8"/><path d="M115.8,99.6c2.2-.4,3.7-2.1,5.7-3,.1,2.9,2.2-.3,4.2-.3-.6,4.9-7.1,3.8-9.8,6.7S115.6,100.5,115.8,99.6Z" style="fill:#5c7e8f"/><path d="M132.7,99a48.8,48.8,0,0,1-4.5,13.5C124.2,111.6,131.1,102.2,132.7,99Z" style="fill:#273b4e"/><path d="M93.6,85.1c-7.1-2.1,5.3-5.2,7.6-2.8C108.3,85.7,96.2,82.2,93.6,85.1Z" style="fill:#361f27"/><path d="M102.2,103.2c4.3-3.8,5.7-4.7,8.9-5.9-4.6,5.5-9.7,8.1-16.1,10C96.8,105.7,99.9,104.3,102.2,103.2Z" style="fill:#172638"/><path d="M136.2,81.8c-6.5-4.6-3.6-7.5,2.9-.8.6.8,1.8,1.8,1.8,2.8C139.2,83.9,138.1,81.6,136.2,81.8Z" style="fill:#a27b6c"/><path d="M73.9,96.1c-.7,6.6-5.1,5.3-1.9-.4-.2-2.7,5.5-10.5,4.8-8.2S72.9,93.5,73.9,96.1Z" style="fill:#2c3443"/><path d="M123.6,82.3c-.5,1.5-1.5-.7-2.7,1-3.1-5.5-.4-4.5-7.2-8.9A17.3,17.3,0,0,1,123.6,82.3Z" style="fill:#677f92"/><path d="M125.6,96.3c-8.9,5.1-.9-2.5.3-6.8C126.1,92.3,127.1,94.2,125.6,96.3Z" style="fill:#415d70"/><path d="M101.2,82.3c-12.5-.7-4.1-6.6,2.3-.3C101.3,80.9,101.5,80.5,101.2,82.3Z" style="fill:#263e53"/><path d="M112.3,84.8c-2.5-3.5-6.6-5.2-10-6.6C106.4,75.4,110.9,81.1,112.3,84.8Z" style="fill:#d9cac2"/><path d="M114.1,124c2.9-1,6.4-4.6,8.3-5.3-2,2.1-6.1,7.9-8.2,7.5C111.1,131.4,112.1,126.8,114.1,124Z" style="fill:#4d454a"/><path d="M125.6,96.3c.3-.8.5-1.6.8-2.4a8.6,8.6,0,0,1-7.6,8.5c-2.2,1.1-6.6,5.7-4.1.6C117.6,100.8,123.9,100.9,125.6,96.3Z" style="fill:#a1c2cf"/><path d="M127.2,88.6c-2.1-5.7-5-10.8-10.8-13.7,3.2-1.4,14.3,12.6,10.8,13.7Z" style="fill:#384d65"/><path d="M68.4,98.1c3.2.1,1.6-2.9,2.6-4-1.7-2-.6-4.4,2.2-3.9C73.2,92.6,71.5,101.5,68.4,98.1Z" style="fill:#2a1c25"/><path d="M83.4,81.7c.6-3,1.4-4.6,4.5-4.3C87.2,80.4,87.2,83.2,83.4,81.7Z" style="fill:#23384b"/><path d="M113.2,97.9c-.4,1.4-2.7,6.4-1.5,3-.8,2.5-5.6,5.8-7.8,4.2C107,102.9,110.8,100.4,113.2,97.9Z" style="fill:#364d5f"/><path d="M113.2,97.9c-2.1,1.5-3.6,4.4-6.1,4.9C108.5,100.9,115,91.3,113.2,97.9Z" style="fill:#172638"/><path d="M104.6,104.5c-3.3,3.4-8.5,4.3-12.9,6C91.9,109.9,103.1,103.6,104.6,104.5Z" style="fill:#172638"/><path d="M127.6,81.6c1.6,3.2,8.5,14.5,8.9,21.6C135.3,95.9,128.6,86.4,127.6,81.6Z" style="fill:#bbcbd7"/><path d="M116.2,104.9c-1.2-.7,1.3-2.5,2.8-2.9C126.6,98.9,120.1,104,116.2,104.9Z" style="fill:#dbf0f4"/><path d="M88.9,130.3c1.9-4.8,12.1-11,3.7-3.9.8-.9,5.6-4,3.3-1.4C93.4,125.7,88.1,135.5,88.9,130.3Z" style="fill:#3d2628"/><path d="M91.2,83.9c2.4,1.4,7.5,8.2,3.1,3.6,1.1,1.5.6,1.4-1,.9a4.4,4.4,0,0,0-1.9-3c-1.3-1.1-2.9.3-4.2-.2C88.3,84.1,89.2,83,91.2,83.9Z" style="fill:#284b62"/><path d="M83.4,81.7c5.6-.6,1.3,3.3-2,3C79.8,84.2,82.9,82.5,83.4,81.7Z" style="fill:#786567"/><path d="M87.2,85.2c2.3-1.1,6.8-.1,6.1,3.2-.7.8-7.2-4-1.9-1.6C90.9,84.2,85.3,87,87.2,85.2Z" style="fill:#5e8b9f"/><path d="M80.9,84c9.7,2-6.7-1.4-10,4.4C72.4,83.5,76.6,83.9,80.9,84Z" style="fill:#352933"/><path d="M125.9,87.4c1.9,1.3,4.4,5.3,1.8,8.5A25.2,25.2,0,0,0,125.9,87.4Z" style="fill:#384d65"/><path d="M80.2,84c-5.7-.1-10.2,1.9-13.5,6.1,2.5-3.6,5.7-6.9,10.7-6.4S85.6,79,80.2,84Z" style="fill:#686877"/><path d="M112.4,106.9l2.5,1.8c-6,0-6,8.2-11.2,8.3C106.7,114.2,111.1,111.3,112.4,106.9Z" style="fill:#3f5465"/><path d="M68.4,98.1c4.8,1.2,4-7.9,7.4-10.3-3.5,3.2-2.2,10.3-7,12C66.8,99.5,66.2,96.5,68.4,98.1Z" style="fill:#a0a7b0"/><path d="M127.6,81.6c-3.5-1.8-5.8-6.4-10.3-7.6C119.9,73.5,125.5,78.9,127.6,81.6Z" style="fill:#556c81"/><path d="M125.3,91.4c-1.1,4-4.8,6-8.2,7.8A43.8,43.8,0,0,0,125.3,91.4Z" style="fill:#182c41"/><path d="M88.9,130.6c-.4,3.9-2.5,7.5-2.6,11.5C85.1,139.8,87.4,133.8,88.9,130.6Z" style="fill:#6b5355"/><path d="M93.4,118.1c2.5-2.1,5.5-2.9,8.6-3.7C99.7,116.4,96.2,116.7,93.4,118.1Z" style="fill:#324453"/><path d="M83.4,86.7l-7,3.8A8,8,0,0,1,83.4,86.7Z" style="fill:#a38c92"/><path d="M113.2,97.9c.4-2.9.5-4.7.8-8C114.5,92.5,114.9,94.9,113.2,97.9Z" style="fill:#547b8d"/><path d="M104.2,77.4c-.3.7-2-.2-1.5,1.3C99.6,75.1,102.2,76.4,104.2,77.4Z" style="fill:#495b70"/><path d="M126.4,65.5l1.6,2.1c-3.5-6,8.3,6.4,8.8,9.2-8.6-10.8-7.8-5.2-18.5-11C118.7,62.8,125.9,61.9,126.4,65.5Z" style="fill:#c2e0ea"/><path d="M134.8,73.8c-12.6-13.1,5.1-2,6.5,6.2C142.7,86.4,136,74.9,134.8,73.8Z" style="fill:#3f6076"/><path d="M122.6,67.8c8.1,2.5-1.5,5-5.9,2.2C118.6,69.2,121.4,69.5,122.6,67.8Z" style="fill:#4a697c"/><path d="M126.6,69.9c1.2-5.2,7,3.4,8.9,5.8C132.7,73.6,130.1,71,126.6,69.9Z" style="fill:#7ca1b2"/><path d="M139.7,81c3.4.5,4.5,4.6,5.4,7.5C142.7,87.7,139,81.7,139.7,81Z" style="fill:#635257"/><path d="M134.8,73.8c.9,1.9,3.7,3.3,3.9,5.9C136.5,77.1,136.7,76.4,134.8,73.8Z" style="fill:#7ca1b2"/><path d="M126.4,65.5c-3.4-4.4-5.6-.8-9,.2C119.1,62.8,126.4,60.9,126.4,65.5Z" style="fill:#8db5c3"/><path d="M84.9,76.8c.5-1.6,1.4-3.2,3.2-2.2S86.1,76,84.9,76.8Z" style="fill:#50748a"/><path d="M133.6,68.7c-.3,3-11.9-5.9-3.3-6.3.9.5,3.4.6,2.5,2.1.9,5.3,11.1,3.7,14.2,8.9C147.6,76.5,136.4,66,133.6,68.7Z" style="fill:#132337"/><path d="M140.7,62.6c1.1,3.1-7.5-2.7,1.2,5.2-2.8.6-7.7-4.8-11.7-5.4S138.4,62.2,140.7,62.6Z" style="fill:#080e1c"/><path d="M107.1,62.6c-6.2,0-.5-2.2,2.6-3.1Z" style="fill:#b5dbe1"/><path d="M141.8,67.7c-4.8-14.4,14.3,12.4,14.3,17.9s-1.7,2.5-4-.5c1.3,3.4,1.3,5.9,3.1,7.7-2.7,2.7-1.9-3.5-3-5.5C149.1,78.5,148,74,141.8,67.7Z" style="fill:#64788d"/><path d="M141.5,62.6c-3.3-1.9-5.1-2.5-5.4-6.2C138.1,58.3,140.4,60,141.5,62.6Z" style="fill:#64788d"/><path d="M63.7,92.6c-2.4,1.5-6.1,1.8-5.5,7.2-2.7-3-3.7-13.7-.2-10.9,0,4.1,2.9.6,4.6.4.1,1.3-1.4,2.7-2.2,3.8C66.9,85.1,74.5,78.3,63.7,92.6Z" style="fill:#435969"/><path d="M69.2,84.2c-1.6.1-6.1,5.5-5.7,2.8,3.8-5.4,11.3-5.2,14-11.6,2.9-.4-2.7,4.7-1.4,5.4C74.2,82.6,71.4,83.1,69.2,84.2Z" style="fill:#e3edf0"/><path d="M72,82.7a23.8,23.8,0,0,0,9.1-6.5C82.2,79.5,73.5,84.4,72,82.7Z" style="fill:#45505e"/><path d="M77.5,75.4c-.7.7-2.7,5-3,3.5,1.4-2.3-.6-2.5-2-3.7C73.4,72.8,76,74.7,77.5,75.4Z" style="fill:#602129"/><path d="M75.6,80.4l-1.8.7c5.4-3.6,3.6-8.3,10.5-7.7C79.6,73.8,79.1,78.7,75.6,80.4Z" style="fill:#233747"/><path d="M75.6,80.4c3-1.7,3.3-6.6,7.6-6.6-.5,1.6-3.1,4.2-1.5,1C79.1,75.6,78.4,81.3,75.6,80.4Z" style="fill:#92adbb"/><path d="M72,82.7c-.9,2-4.1,3.6-5.3,6.1C67.2,85.3,69.5,84.2,72,82.7Z" style="fill:#6a7e8b"/><path d="M82.5,81.6c-2.3,3.2-5.8,2.2-8.9,2.6C76.5,83.1,79.8,83.6,82.5,81.6Z" style="fill:#2a3a51"/><path d="M37.8,81.8c4.1-15.3,19.1-22.3,5-1.8C40.6,77.7,39.6,81.4,37.8,81.8Z" style="fill:#7991a3"/><path d="M49.7,68.4c-2.2-4.1-5.4,1.7-7,3.1C46.9,60.3,63.8,52.6,49.7,68.4Z" style="fill:#9bb3c2"/><path d="M83.4,58.7c-1.4,1.2-2.6,2.8-4.2,3.6C77.6,60.9,85.4,56.7,83.4,58.7Z" style="fill:#aed3df"/><path d="M69.9,69c2.6.3,5.7-6,9.4-9.6,0,2-15.9,22.4-11,13.7-.3.7-3.5,4.1-2.9,1.5A17.4,17.4,0,0,0,69.9,69Z" style="fill:#75a6b4"/><path d="M71.5,69.8c1.4-1.7,9.4-11.2,6.8-5.9S63.6,81.8,71.5,69.8Z" style="fill:#e2f4f7"/><path d="M148.2,129.1c-3.2,1.6-2.5-.8-2.3-3.9-.5,1.7-1.2-.1-1.8-.7-8.3-3.8,2.7-11.8,1.3.6,1.9-3.2.9,1.1,1.1,2.6C148.3,126.2,149.4,129,148.2,129.1Z" style="fill:#973220"/><path d="M148.2,129.1c1.4-.9,1.1,2.8,2.6-.1-.9,1.9.7,2.1,1.6,3.3C145.4,144,149.1,136.8,148.2,129.1Z" style="fill:#9d3521"/><path d="M142.3,118.3c-.5,1.7-2,5.5,1.9,5.7,1.7.8,1.6,6.5.9,4s-1.2-2.1-2.2-2.1-.9-2-2.4-3.5C137.1,123,141.8,119.5,142.3,118.3Z" style="fill:#d76f4e"/><path d="M152.4,132.3c-.6-.6-2.3-.9-1.9-2,4,1.8,2.9-3,4.9-3.8A63.6,63.6,0,0,1,152.4,132.3Z" style="fill:#792624"/><path d="M104.4,158.5c-7.4-6.2-1.2-3.4.5-5.9-1.2-.7-1.6-2.2.4-1.4,4.1,1.5,7.6,3.7,11.6-.2,2-.6,1.7-4.9,4.4-4.3.2,2.6-1.5,2.5-1.7,4.3s-3.5,1.9-4.6,3.9c-3.1.5-7.2,3.6-8.9-.9C106.8,155.7,105.7,157.3,104.4,158.5Z" style="fill:#732927"/><path d="M126.2,150c-1.5.8-4,.6-4-1.5s2.2-.5,2.5-2.2c1.8.4,1.6-1.5,2.9-2.1C132.7,144.4,128.2,148.5,126.2,150Z" style="fill:#b05743"/><path d="M122.8,149.4c2.8,1.1.3,3.3-1.1,3.7-.5,2.3-.6,4-2.8,4.4-.1-2.5,1.1-1.5-.1-3.9C120.4,152.6,121.4,150.3,122.8,149.4Z" style="fill:#b45937"/><path d="M106.2,156.4c-.8-5.9,1,1.7,4.7-.4.7-.7,1.2.5.2.6s-.1,2.6-3.5,3c.1-2.1,1.1-3.4-1.1-4.1,1.4,1.7,1.2,2.6-1,3.5C105.2,158,107.3,157.6,106.2,156.4Z" style="fill:#d2825b"/><path d="M114.9,154.7c.9-1.1,6.7-6.2,5.6-3.3S108.9,162.1,114.9,154.7Z" style="fill:#ba6242"/><path d="M126.2,150c.2.1,3.2-4.6,4.1-2.2C133.6,149.4,127,150.4,126.2,150Z" style="fill:#eba35e"/><path d="M114.9,154.7c-2.4,3.1-4.4,5.9-4,1.3C111.9,153.9,113.2,155.6,114.9,154.7Z" style="fill:#b05633"/><path d="M116.2,155.6c4.5-2.9,4.6-.1.7,3.8C115.6,156.9,118.9,155.5,116.2,155.6Z" style="fill:#eb935c"/><path d="M100.8,153.7c-1.1.9.5,1.5-.6,2.5-4-3.2-12.6-9.3-5.8-14,.2,2.4.6,11.2,4,7.7C98.8,151.5,99.9,152.4,100.8,153.7Z" style="fill:#69342b"/><path d="M92.3,145.4c-.6,4.1,2.3,5.9,5,7.9C95.5,160.8,87.5,148.5,92.3,145.4Z" style="fill:#b08473"/><path d="M100.2,156.2c.8-1.5-2-1.8.6-2.2C102.9,155.5,102.6,159.6,100.2,156.2Z" style="fill:#cc7c61"/><path d="M131.5,148.2c-2.6.4-1.5-2-1.9-3.8s-.4-1.7-1.2-2.4c0-2.4,4.5-2.6,3.8-6.1,1.4.6.6,1.8.9,2.6s4.7-7,4.7-3.5a29.8,29.8,0,0,0-3.1,4.5c1.7-1.2,4.3-2.5,5.9-.6a.9.9,0,0,1-.9,1.6c-.6-2.1-1.3-1.4-3-.8C137.5,143.4,133.5,145.5,131.5,148.2Z" style="fill:#b05743"/><path d="M136.5,140.9c-1.1-1.7,1.8-2.8,3.4-1.5-.3,1.5.2,1,.8.2-1.1-3.1-5.9.7-2.2-3a7,7,0,0,1,2.9.2c.8-.5,2.3-1.8,1.7.1-3.2,2.4,2,.2-1.2,4.2-1.1,1-2.9,5.7-3.6,2.2-.3,4.4-1.1,3.2-4.3,6.1C133.6,146.7,143.5,137.3,136.5,140.9Z" style="fill:#d0794d"/><path d="M143.1,136.9l-.2-1.2c-1.1,2.6-2.9.5-4.3,1.1.6-1.8,2.9-3.6,3.9-5.5C144.4,131.6,145.2,135.8,143.1,136.9Z" style="fill:#9f3c29"/><path d="M141.9,141.1c1.1-2.9,1.6-2.8-2.6-1.9,3.6-2,3.3-1,5.8-3.3C144.3,138.2,144.6,141.6,141.9,141.1Z" style="fill:#efb570"/><path d="M136.5,140.9c1.2-2.6,3.8-1.1,2.2,1.1S135.8,144.1,136.5,140.9Z" style="fill:#f7e1ba"/><path d="M144,126.3c1.7-2.1,1.1,3.8,3,4.5C146.2,133.7,142.7,128.3,144,126.3Z" style="fill:#973220"/><path d="M144.3,129.6c3.1,5.6-1.2-1,.1,4.1-.8-.4-1.4-.9-1-2C140.2,130.9,144.7,124.3,144.3,129.6Z" style="fill:#c66b49"/><path d="M130,151.1c-.4,2.4-2.1,3.8-3.9,5.3C125.4,153.2,128.4,152.6,130,151.1Z" style="fill:#f2b781"/><path d="M50.2,78.1A51.8,51.8,0,0,1,64.6,61.6c-3.8,4.2-8.5,7.4-11.3,12.6s-5.7,13-8.7,18.8C44.7,87.9,47.2,82.3,50.2,78.1Z" style="fill:#697a8b"/><path d="M45.9,89.9C47.6,75,77.5,47.2,63.1,78.4c.7.2.7.8.5,1.4s1.8,0,2.4.8-.8.3-1.2.6,2.9-1.2,2.4.7c3.5.3-3.2,3-3.2.6-1.7.6-6.7,11.2-6.5,4.2-.7,2.2-.7,3.5-2.7,3.8,1,6.5-2.6,2.5-.5-.8,4.9-6.8,7.7-9.9,7.6-19.4C49,72.4,42.3,98.7,45.7,114.6,41.2,108.9,44,97.2,45.9,89.9Z" style="fill:#081e33"/><path d="M62.8,77.8c2.3-2.5,6.5-16,5.1-8.3,1.3-1.6-.1-4.1,1.5-5.7s1,6.4-.8,7.2S65.3,78,62.8,77.8Z" style="fill:#4d7388"/><path d="M70.3,63C68,65.5,67.8,74.8,68,66.5c-.7,1.4-.3,5.3-1.9,5.4C66.3,69.6,70,60.9,70.3,63Z" style="fill:#a1c7d4"/><path d="M73.7,70c2.7-3.7,4.4-6.2,7.3-10-1.6,3.8-3.9,5.8-5.3,9.5,1,0,4,1,3.1,2.2C75.1,74.1,68.9,75.9,73.7,70Z" style="fill:#3b5063"/><path d="M78.8,71.7c-2.4-3.3-5-.7-1.3-6C78.3,67.1,80.3,69.6,78.8,71.7Z" style="fill:#56778c"/><path d="M137,83.5c9.1-.9,14.3,25.5,8.9,28.2-1.5-3.3-2.7.6-5.3-1.5-.9-2.3-3.1-1-3.2,1s1.3,1.8-.5,2.2c-5.5.9.2-15.1,1.1-6.2A33.9,33.9,0,0,0,137,83.5Z" style="fill:#02091d"/><path d="M137.4,121.7c11.3,2.3-9.2,22.6-3.4,7.7-.1,1.9-1.7,3.7-3.3,2.1-2.2,2.6,3,4.9-4.7,8.2-11.6-3-2.7,9.7-27.4,6.7,8.5-.9,24.1-3.2,20.6-13.4,2.9-.2,3.3,2,4,3.8,6.9-1.8,4.8-9.5,13.5-9.6-.3-2.2-4.4,1.4-3.7-2.9C134,121.9,136.4,124.8,137.4,121.7Z" style="fill:#380f1a"/><path d="M98.6,146.4c3,.3,6.9-.6,9.7-.1s8.1-.9,10.3-5.1c1.7,1.6,3.6,3.3.9,5.2s-4.1,4.5-8.3,3c-1.1,3.2-4.8.8-7.3,1.7,3.2,1.7-.9,4.3-3.1,2.6s-1.5-5.9-4.1-1.7c-1.1-2.6-4.3-8.6-1.8-9.8C95,145.1,95.8,146.9,98.6,146.4Z" style="fill:#451721"/><path d="M127.6,113c1.3-2.9,6-1.8,3,1.4-4.7,1.8-5.1,7.3-8.3,10.6C120.5,124.8,126.5,115.3,127.6,113Z" style="fill:#4d363a"/><path d="M95.1,142.9c-2.2-2-2.3,4.8-4.5,5.3-1-1.7-1.5-5.9,0-7.6,4.9,2.6,4.7-2.4,6.5-5.5C98.3,136.4,94.6,140.4,95.1,142.9Z" style="fill:#dfb99a"/><path d="M121.5,125.5c2.4-4.1,6.2-7.1,9.1-10.5C133.9,113.5,119.1,130.8,121.5,125.5Z" style="fill:#f5e7cf"/><path d="M114.5,126.7c11-10.6.5.7-4.9,6.7C111.1,130.4,112.1,128.7,114.5,126.7Z" style="fill:#eed9c9"/><path d="M137,83.5c4.3,4.8,2.5,31.7-.4,20.2C139.7,107,140.9,93.7,137,83.5Z" style="fill:#666d81"/><path d="M130.6,115c-1,1.9-3.5,3.7-5.3,4.7C125.9,117.8,129.2,113.2,130.6,115Z" style="fill:#9a6955"/><path d="M130.4,107.7c.3-1.9,1.1-1.5,2.7-.8C131.8,109,127.8,112.4,130.4,107.7Z" style="fill:#a1836f"/><path d="M135.7,101.9a10.2,10.2,0,0,1-2.1,7.4C134.2,107.3,134.7,105.3,135.7,101.9Z" style="fill:#56343f"/><path d="M130.4,107.7c-1.1,2.6-.8,2.4,1.3.9C128.3,113.1,127.1,112.1,130.4,107.7Z" style="fill:#d7cbbc"/><path d="M114.5,126.7c-1.8,1.9-5.3,7.4-2.9,2C113.2,128.8,114.7,123.4,114.5,126.7Z" style="fill:#7a7776"/><path d="M145,88.6c-.6-3.4-12.2-21.2-3.7-13.4,9.1,3.2,8.1,4.8-.3,1.1C143.5,77.9,147.7,92.7,145,88.6Z" style="fill:#112032"/><path d="M145.4,78c6.1,1.3-2.6-2.5-.3-4.7,6,3.9,6.9,13.8,9,20.6C150.5,90.4,152.5,79,145.4,78Z" style="fill:#15273e"/><path d="M145,81.4c4.8,7.4,7.3,16.2,4.9,24.6C150.5,97.4,147.8,89.3,145,81.4Z" style="fill:#689bb3"/><path d="M145,81.4c.3,1.8,1.6,3.6,1.4,5.3C144.6,83.7,139.5,73.3,145,81.4Z" style="fill:#a2cee2"/><path d="M132.6,131.8a3.9,3.9,0,0,0,1.1-3.5c2.1,2.3-3.1,4.6.6,6.8,3.1-3.1,6.5-6.4,6.2-11.2-5-3.4,2.3-2.1,2.4,2s-10.7,17.7-10.2,10.2c0,2.6-2.6,4.3-4.2,5.3s-1.4,3.1-2.9,3.1-3.4-5.1-1.3-3.4,2.4.9,2.7-.9,3.5-.7,4.6-2.8c-1-2.1-2.5-8.8.6-3.7C132.4,133,131.9,132.2,132.6,131.8Z" style="fill:#742626"/><path d="M138.8,110.6l4.1,3.3C140.4,115.9,140.3,112.2,138.8,110.6Z" style="fill:#762c2f"/><path d="M141.9,77.6a52,52,0,0,1,7,29.9C147.8,94.9,146.1,87.4,141.9,77.6Z" style="fill:#173f5a"/><path d="M145,88.6c2.5,4.9-6.3-5.7-8.8-6.8C140.3,81.8,142.4,86.1,145,88.6Z" style="fill:#c7bab7"/><path d="M147.1,89.3a41.8,41.8,0,0,1-1.5-6.1c3.5,7.3,5.7,15.4,4,23.3C149.3,100.6,149.2,94.8,147.1,89.3Z" style="fill:#caf7fb"/><path d="M60.7,158.1c-6.4-5.2-13.4-9.1-16.5-17.6-.3-1.9,1.5-.3,2.1.6-.9-2.7-.3-5-.7-7.7C50.2,148.7,54.9,146.4,60.7,158.1Z" style="fill:#f9efbc"/><path d="M55.2,144.9c-1.9-.5-.1-2-1.2-3s-.8-.7-.6-1.3c1.1,4.2-3.2,1.4-3.3-1.3,3.5-2,1.3-3.3,2.1-6-1.8-1.8,4.3.5,4,2.8S58,143.7,55.2,144.9Z" style="fill:#894542"/><path d="M51.4,135.9c-3.6,3.8-3-3.9-3.3-7.3s6.7,5.2,1.5,3.6C50.3,136.8,50.9,129.4,51.4,135.9Z" style="fill:#af4c31"/><path d="M58.2,146.8c-.7,5.5-1.6-6.5-.5-8.9-.4-1.2-2.4-5.4.3-4.5s2.8,2.3,1.1,4.3S60.7,144.3,58.2,146.8Z" style="fill:#87cbe1"/><path d="M56.8,135c-.2,1.2.2,6.3-1,5.5.4-3.6-.1-5.9-3.3-8C46.9,124.5,56.3,130.5,56.8,135Z" style="fill:#9e9eae"/><path d="M50.1,139.3c3.2,7.3,3.7-1.1,3.5,1.5,4.1,9.4-3.1,2.7-5-2.7Z" style="fill:#ce6746"/><path d="M45.7,134.8c1.2,6.2,1.1,8.7-2.9,3.4,1.7,2.5,1.4,1.3.8-.8C45.9,139.1,42.2,132,45.7,134.8Z" style="fill:#e99855"/><path d="M55.9,135.8c-.1,4.6,1.1,8.1,2.1,12.6C54.2,145.1,56.2,140.5,55.9,135.8Z" style="fill:#8c7278"/><path d="M45.9,145c2.3,2.7,6.8,3.7,7,8C51.5,149.5,47.6,148.2,45.9,145Z" style="fill:#b75b35"/><path d="M45.9,89.9a48.4,48.4,0,0,0,0,27.2c-2.6-.1-3.4-8.4-8.1-9.1-.1-11.7.3-12.4.2-.3.8-3.8-1.7-14.9,3.5-14.7,2,2,2.3-2,3.2-3.1.9.8-.2,1.8-.3,3.9Z" style="fill:#435063"/><path d="M45.9,117.1c-1.3-2.8,1.8-3.6,3.9-4.9s3.1-1.7,1.3,1.1c.6-1.3,2.6-2,1.4-3.5,3.9-2.9.6,3.5-.9,4.7-2.2,5,3.7,7.8,3.2,12.7,3.4,4.8,2.2,6.2-1.4,1.5-.3-4.7-4.1-7.3-4.1-12.2C48.7,122.1,49,118.1,45.9,117.1Z" style="fill:#661417"/><path d="M50.4,121.2c3.7,2.1,3.8,11.9-.2,3.3-.6,1.6-3-1.2-2-2s1.8,1.5.8-.1c1.1.2.3-.7,0-1.8C49.9,121.4,50.8,122.7,50.4,121.2Z" style="fill:#973830"/><path d="M53.5,129.1c1,1.3,4.9,2.3,3.6,4.3C57.2,137,53.7,130.7,53.5,129.1Z" style="fill:#684559"/><path d="M45.1,90.3c-7.6,10.9-4.1-8.1.1-13.5C47,85.4,53,70.1,45.1,90.3Z" style="fill:#483744"/><path d="M37.8,81.8c5.3-5.9,5.4-.4,2.8,4.1C34,91.3,35.2,88.2,37.8,81.8Z" style="fill:#617a8d"/><path d="M59,137.5c.9-1.4,1.4-2.8,2.8-3.8-1.7-.2-1.5-2.3-3-2.7s-1.3-.5-.7-1.4c.6-3.5,3.9-.9,6-3.1,4.7-6.7,5.3,7.1,3.8,10.8.4,2.4-2.9,1-3.8,4,1.3,6.3-3.5,5.3-1.5-.7-2,6.4-1.7-3.5-3.2-2.4S58.4,138.1,59,137.5Z" style="fill:#26364b"/><path d="M79.8,139.7c-2.5,6.7,5.1,10.1,7.6,15.6-2.1-1.3-7.8-11.2-7.8-5.3.3-5.9-4.5-5.2-6.3-10.7-.7,3.1.1,5.6.5,8.3-1.4-.3-2.8-.8-.7-.5-.1-2.4-2.2-12.1,1.1-11.4C74.9,140.9,78.4,137.5,79.8,139.7Z" style="fill:#101f31"/><path d="M108.6,106.4c-5.2,6.4-11.9,7-16.7,8s-8.6,6.5-11.8,7.8c-1.5-3.5,15-12.2,21.6-12.8C98.7,109.5,107.7,107,108.6,106.4Z" style="fill:#101f31"/><path d="M87.9,115.1c-3.7.8-11.9,13.3-12.3,6.2C78.4,119.2,85.3,110.9,87.9,115.1Z" style="fill:#8eb1bc"/><path d="M73.7,130.6c-2,2.8.2,11.2-4.3,9,.3,5.5-.7.8-.9-2s1-.6.6,1C69,135.7,69,128.3,73.7,130.6Z" style="fill:#4c6578"/><path d="M69,135.9c0,2.1.1,4.1.2,6.1-2.5-6.9-1.6-20.9,7-22.2C72.6,124.7,69.8,129.9,69,135.9Z" style="fill:#061526"/><path d="M73.7,130.6c-6.5,1.5-1.5-4.3.4-7.7C80,121.2,75.4,128,73.7,130.6Z" style="fill:#7696a4"/><path d="M79.2,122.8c3.8-1.5-7.1,8.9-.9,11.3a5.2,5.2,0,0,1,.5,2.8C70.9,137.7,75.5,126,79.2,122.8Z" style="fill:#31495c"/><path d="M74.3,131c1.4,1.3-.6,6.2,4.4,5.9C80.2,143.2,70.5,136.4,74.3,131Z" style="fill:#1c3046"/><path d="M64.2,142.6c-1.3-1.9,1.5-3.9,3.2-4.5.4,1.7,2,6.7.5,7.2C68.1,142.6,66.7,139.1,64.2,142.6Z" style="fill:#4f6779"/><path d="M90.6,148.5c.1,6-8.1-11.3-3.1-4.8C87.8,145.8,89.7,146.8,90.6,148.5Z" style="fill:#2e2129"/><path d="M59,137.5c-.9-.3,4.2,11.8-.8,9.3C59.7,144,57.7,140.6,59,137.5Z" style="fill:#638ba2"/><path d="M58.4,129.7c-.1,9.5-9.2-13.9-7-15.4,5.9-9.6,5.3-7.6,2.1,1.5,3.3,1.5,4.9-2.3,8.8.2,1.4-.1.2,1.6,1.4,1.8S57.1,126.3,58.4,129.7Z" style="fill:#231325"/><path d="M62.9,116.2c-10.5-1.1-11.7,2.7-6.2-9.3,3.6-2.5,7.1-7.3,10.4-9.2-.3,1.3,3.1,2.1.9,2.7s.2.9,1,1.3C61.3,101.5,58.9,110.4,62.9,116.2Z" style="fill:#07132a"/><path d="M66.5,114.3c0-10.4,11.1-11.5,17.2-8.6C72.9,108.6,74.4,106.4,66.5,114.3Z" style="fill:#15496a"/><path d="M87.4,106.4c2.7-1.2,6.7-1.1,1.6,0,12.5-1.3-1.5,5.1-6.4,2.8C79.4,108.7,86.1,106.3,87.4,106.4Z" style="fill:#7ca2b4"/><path d="M94.6,106.8c-9.8-.1-1.1-2.1,3.4-3.8-4.4,2.7.4-.3,2.5.8A11.9,11.9,0,0,1,94.6,106.8Z" style="fill:#46677d"/><path d="M77.2,107.5c2.7-1.2,12.9-3.9,6-1.3.7-.3,7.2-2.3,5-.5S73.5,110.8,77.2,107.5Z" style="fill:#82bbd9"/><path d="M89.5,89.5c2-3.1,5.9,2.1,8.1,3.2C94.8,91.5,91,92.3,89.5,89.5Z" style="fill:#9e6e5e"/><path d="M93.2,102.6c2.9-.5,5.7-2.4,8.4-2.9-3.2,2.7-7.1,3.9-11,5.2S91.8,103.3,93.2,102.6Z" style="fill:#3a617f"/><path d="M89.5,89.5c1.2,2.2,3.7,1.5,5.3,2.5-6.5-1-11.7-6.9-17.8-.3C77.4,88.9,85.7,85.9,89.5,89.5Z" style="fill:#8ec0d6"/><path d="M66.5,114.3c1.5-1,2.8-2.8,4.5-3.4s4.2-.5,2.1,1.6C69.4,111.3,60.3,122.5,66.5,114.3Z" style="fill:#9bcdde"/><path d="M78.8,108.5c3.7-1.2,13.8-4.2,5.2-.8C82.4,108.6,73.6,111.4,78.8,108.5Z" style="fill:#3a617f"/><path d="M93.2,102.6c-4.1,2.1-2.9,2.5-11.7,3.9C86.3,104.9,88,104,93.2,102.6Z" style="fill:#5d90b3"/><path d="M101.6,99.7l-6.8,2.4c5.1-1.9,9.9-4.2,13.8-8.2A20.5,20.5,0,0,1,101.6,99.7Z" style="fill:#99bfd3"/><path d="M93.6,85.1a12.5,12.5,0,0,1,11.6-.6C100.9,83.8,97.2,83.7,93.6,85.1Z" style="fill:#7e6b72"/><path d="M69,101.7c-2.5.1-3.8-1.6-.4-.8s5.6-6,5.1-2.7S71.8,102.7,69,101.7Z" style="fill:#cdbcbd"/><path d="M70.1,101.9c2.5,0,2.6-2.3,3.6-3.7C73.5,101.3,73.8,103.8,70.1,101.9Z" style="fill:#63616f"/><path d="M51.6,110.6c-6,8.5-8.6-.9-5.6-7.2C46.8,110.9,58.5,105.7,51.6,110.6Z" style="fill:#1b0719"/><path d="M53.8,108.6A139,139,0,0,0,69,94.4C66.6,98.7,57.6,108.1,53.8,108.6Z" style="fill:#403d4a"/><path d="M54.8,94.8c-.9-7.2,2.1-3.7,1.5,1.4-.3-2.6-.5-2.7-1.4-4l.3,3.7Z" style="fill:#7ea7bc"/><path d="M65.8,97.7a59.8,59.8,0,0,1-11.1,10.2Z" style="fill:#c6c8d2"/><path d="M91,114.8c11-5.1-.3,1.4-3.6,6.6-4.8,4.8-1,18.3-8.2,17.4-2.7-9.2,4.8-2.8,5.1-13.2-11.1,3.2,2.9-10.3,7.8-11C91.7,114.6,91.4,115.1,91,114.8Z" style="fill:#1c3046"/><path d="M85.3,152.2c-1.7-3.4-6.7-4.6-6.1-9.4C82.1,144,83.3,149,85.3,152.2Z" style="fill:#090b1e"/><path d="M93.6,114.9c.9,1.7-4.1,5.2-5.4,5.7C89.1,118.5,91.6,116.2,93.6,114.9Z" style="fill:#101f31"/><path d="M93.6,114.9c-2.1,2.2-4.1,4.4-6.2,6.5C88.1,119.4,93.6,113.7,93.6,114.9Z" style="fill:#b5ccda"/><path d="M86.9,136.9a26.2,26.2,0,0,1,9.5-13c-9.9,6.8,2.1-3.1,6.9-4.4l-1.6-.7,5.7.9c-4.6-1.1,3.5-1.6,4.6-2.3-5.8,3.2,1,.2,3.6-.2-.3,3-3.3,2.4-5.5,4.1l5.3-1.9c-4.8,4.7-13.1,4.5-18.4,9.5C93,129.6,90,138.3,86.9,136.9Z" style="fill:#0a0710"/><path d="M128.5,82.4c1.8-1.4-.1-2-2.1-3.8,3.7,2.3,8.6,3.4,10.6,7C133.2,86.7,131.5,84.6,128.5,82.4Z" style="fill:#2e4660"/><path d="M137.6,87.4c.6,2.2,1,6-.6,7.7.3-.8-7-12.3-2.1-8.6C136,86.1,137.3,86.1,137.6,87.4Z" style="fill:#c8f4f8"/><path d="M137.6,87.4c-1.2-2.1-3.4.8-4.4-1.6,2.8,5.8,4.5,13.6,4.6,2.4,1.7,5.1-1.1,10.8.1,16.2-.5-7.3-2.3-14.1-6.7-20C132.5,86.7,136.7,83.3,137.6,87.4Z" style="fill:#83a8b7"/><path d="M137.6,99.4c-.1-3.9,1.1-8,0-11.8C139,91.6,139.3,95.5,137.6,99.4Z" style="fill:#50647a"/><path d="M120,82.5c6.1-.3,3.6,13.8-1.6,14.2C118.4,91.8,121.9,87.4,120,82.5Z" style="fill:#bcdbe5"/><path d="M119.6,90.3c-.8,3.2.6,6.6-3,8.4C118.1,95.5,116.8,92.3,119.6,90.3Z" style="fill:#7f9fad"/><path d="M108.6,106.4c-1.7,1.4-10.8,5.5-9.3,1.1C104.6,107.5,115.3,98.9,108.6,106.4Z" style="fill:#9dbecb"/><path d="M111.1,103c-1.8,2.8-13.2,5.7-7.1,2.1C108.2,107,113.8,97,111.1,103Z" style="fill:#668496"/><path d="M78.8,108.5c-5.3,2.8,4.4,4.7,6.6,2.4-.3,1.9-10.3,8.7-14.9,8.2-.2-3,1.8-5.5,3.2-7.9C66.8,112.3,75.7,106.6,78.8,108.5Z" style="fill:#e3f8fc"/><path d="M99.3,107.5c-1.8,6.3-22,5.1-27.9,20.3C74.7,116.5,88.6,110.9,99.3,107.5Z" style="fill:#e0f5f8"/><path d="M86.2,111.1c-7.7,3.3-14.1-1.9-2.2-3.4-2.1.9-4,1.5-.2,1,6.5,2.8,12.3-3.8,18.4-5.5A103.4,103.4,0,0,1,86.2,111.1Z" style="fill:#bfdee6"/><path d="M71.5,115.7c-2.5,5,1.5,2.7,4.7,2.1-7.1,11.2-10.5-2.3-7.9,10.2-.4,3.9-1-6.1-3-5.3C65.4,120.2,68.7,116.4,71.5,115.7Z" style="fill:#a3c2cf"/><path d="M112.4,121.8c6.3-4.1,2.8,3.1-2.9,3.2C110.8,123.4,110.6,122.3,112.4,121.8Z" style="fill:#be9175"/><path d="M87.4,86.1c1.3-1.9,2.6-.8,3.9-.1C93.7,88.5,88.9,86.1,87.4,86.1Z" style="fill:#c7f2f5"/><path d="M112.4,121.8c-5.4,4.2-11.6,7.2-15.2,13.4-4.2-2-9.1,2-10.1,5.9C82.8,138,103.1,121.7,112.4,121.8Z" style="fill:#231822"/><path d="M72,100.3c-1.1,1.6-6,1.2-5-.3,1.4.6,2.1-.7,3.4-1.1s.9-.5,1.4.2S70.8,100.7,72,100.3Z" style="fill:#8b7878"/><path d="M137.7,73.3c7.3,11.7-.7.5-4.1-4.8C135.3,68.6,137,71.8,137.7,73.3Z" style="fill:#a3bacd"/><path d="M137.7,73.3c-6.5-7,4.1-2.2,7.4,0C148.7,81.3,141.7,75.5,137.7,73.3Z" style="fill:#060616"/><path d="M141,67.9c1.2.8,3.9,2.5,3.6,3.8-2.9-3.9-13.9-2-11.8-8.1C134.4,67,138.3,65.8,141,67.9Z" style="fill:#526a7e"/><path d="M144.4,72.7c-4-2.1-8.6-1.8-11.8-5C137.2,68.7,141.3,69.5,144.4,72.7Z" style="fill:#6c747c"/><path d="M141,67.9c-5.9-1.8-5.4-1.4-10.8-5.5A27,27,0,0,1,141,67.9Z" style="fill:#7494a6"/><path d="M144.6,71.7c-6.7-7.6,2.2.4,5.3,3.2C148.2,76.8,145.9,72.9,144.6,71.7Z" style="fill:#374559"/><path d="M63.7,87.8c7.4-6.2-.7,4.3-4,5.7C61.2,91.9,62,89.1,63.7,87.8Z" style="fill:#172534"/><path d="M63.7,87.8c-1.5,1.5-4,5.7-6.2,1.8,4.9-3.8-.6.7,2.3.9s-.7-1.8.3-2.9,1.6.3,2,.8C63.6,85.5,66.7,83.7,63.7,87.8Z" style="fill:#aecad3"/><path d="M60.7,87.4c-1.5.4,4.4-8.6,3.5-4.2.9-.6,1.4-1.1.6.3,2.9,0,3.7-3.2,6.5-2.4s-5,2.2-5.9,4.1C65.6,82.5,62,85.5,60.7,87.4Z" style="fill:#5c6774"/><path d="M72,81.6c-1.7-.3-4.3-3.1-1.3-3.3.1,2.5,4.9-1.3,1.5-1.3C75.6,73.4,76.1,81.8,72,81.6Z" style="fill:#d66747"/><path d="M77.7,79.7c1.1-2.2,2-4.5,4.8-5.6C81.3,76.5,79.6,77.8,77.7,79.7Z" style="fill:#e2f2f6"/><path d="M72,73c3.3.4-3.1,7.6-6.6,7.4C67.5,78.2,69.2,74.3,72,73Z" style="fill:#6c494e"/><path d="M70.1,77.4c1.2-2.3,5.5-2.9,5,.2C73.5,73.6,71.1,80.5,70.1,77.4Z" style="fill:#c55936"/><path d="M72,73c-2.6,3.6-12.7,13.5-5.7,3.5-2.2,3.8-3.5,1.9-.9-1s4.3-4.1,1.1,1.4l5-7.1c-.7,1.9-3.5,4.3-3,6C70.7,73.6,75.9,67.2,72,73Z" style="fill:#536e81"/><path d="M65.4,75.5c-3.8,7.9.3-4.2,4.2-5.9C69.8,71.5,66.3,73.7,65.4,75.5Z" style="fill:#caecf2"/><path d="M142.5,127.2c1-4.7,2.3,1.1,1.5,3.5C144.7,122.7,141.2,134.1,142.5,127.2Z" style="fill:#c1978d"/><path d="M132.6,131.8l-.3,3.4c-.9-1.8-.8-4.3-2.2-2.7l2.5,6c-5-.9-3.6,4.5-10.3,3.4-4.9-5.5,4.8,4.9-2.3,5.2-3.9,8.6-9.7,6.8-16.1,4,1.6-.7,5-1,5.9.2.8-1.1.6-2.9,2.1-2.1,4.5,1.2,4.1-.5,6.8-2.8,5.3-1.9-4.3-7.3,3.4-7.6.5.7,1.7-.3,2,.7,1.9,1.9,6.5-2.3,6.5-4.7s-3.2-2.6-.7-2.5C130.6,129.8,131,132.3,132.6,131.8Z" style="fill:#4f151f"/><path d="M121.3,146.7c4.6-3.4-4.7-7.1.1-7.2-.2,1,.7,3.1,1.8,1.6,1.4.6.6,3.1,2.8,3.1,2.7-4.2,3.6-1,.8.7.1,2.7-5.3,2.8-4,4.5-2.7,4.7-9.8,9.7-2.3,1.1-.4.6-7.5,5-1.9,1,.5-1,1.2-.8,1.1-3.5C120.5,151.3,120.6,148,121.3,146.7Z" style="fill:#883931"/><path d="M127.6,144.3c.8-2.3,1.8-3.7,1.3-.4,1.9-.3,1,2.2.8,3C129.8,145.6,129,143.7,127.6,144.3Z" style="fill:#f1a47a"/><path d="M86.6,142.6c3-9.7,4.4,1.3,4,5.6-2.1.5-3.6-7.6-4.2-4.5Z" style="fill:#594e51"/><path d="M142.5,127.2c.7,4.4-3.2,6.7-5.2,10.7C134.4,135.8,141.6,130.3,142.5,127.2Z" style="fill:#cacede"/><path d="M136.5,136.3c-.5,2.8,1.5-.2,1.7.6C135.6,140.7,132.3,141.2,136.5,136.3Z" style="fill:#c2a2a1"/><path d="M138.2,136.9c.2-1.3,3.1-7.2,4.3-5.9A18,18,0,0,1,138.2,136.9Z" style="fill:#825965"/><path d="M66,80.7c1.6-2.4,5.2.2,2.1,1.3C68.4,82.3,61,81.4,66,80.7Z" style="fill:#010e25"/><path d="M63.7,78c.1,2.4,1.9-1.6,3.5-3.1C67,81.8,60.3,78.3,63.7,78Z" style="fill:#244359"/><path d="M59.9,88c3.2,1-.2,4.3-1.7,1.7C58.8,89.2,59.2,88.2,59.9,88Z" style="fill:#5c6774"/><path d="M130.6,134.8c.5,2-4.3,7.2-7.3,4.5h-1C122.8,137.9,129,141.4,130.6,134.8Z" style="fill:#451721"/><path d="M125.3,119.7c1.6-1.1,2.9-3.4,4.9-3.7C128.9,117,123.5,123,125.3,119.7Z" style="fill:#caa085"/><path d="M91.8,134.8c1.8-.3,3.7-1.1,5.4.4C97.1,140.3,87.6,140.1,91.8,134.8Z" style="fill:#82574a"/><path d="M90.8,138.4c2.5.4,6.1-.8,4.3,2.8C92.6,142.2,88.5,141.3,90.8,138.4Z" style="fill:#b08369"/><path d="M90.8,138.4c-.7,5.9-.4-3-4,2.5C87.9,137.6,93.6,132.3,90.8,138.4Z" style="fill:#2e2129"/><path d="M57.2,132.5c1.5-4.9,2.8,1.4,5.5.8C60.2,136.7,58.3,135.4,57.2,132.5Z" style="fill:#4c7187"/><path d="M56.7,144.3c-.8-2.9-.4-5.8,0-8.7C59.4,138.2,57.5,141.5,56.7,144.3Z" style="fill:#dff8fa"/><path d="M53.8,108.6c-.9,1.8-.8,3.6-3.1,5.5C51.1,111.8,51.7,109.9,53.8,108.6Z" style="fill:#bc5946"/><path d="M65.4,122.5c6,2-8.4,6.6-7,7.2C57.1,127.1,62.8,123.3,65.4,122.5Z" style="fill:#0f1c2e"/><path d="M91,114.8l2.1-.8c-9.2,3.3-14,10.8-14.8,20.2C75.7,125.1,83.2,118.1,91,114.8Z" style="fill:#8bafc2"/><path d="M91.7,111.9c3.4-.7,6.7-3.1,10-2.3C99,109.1,90.6,114.8,91.7,111.9Z" style="fill:#324c59"/><path d="M91.7,111.9c-.3,1.8-4,4.4-4.7,1.7Z" style="fill:#5b7f8c"/><path d="M71.3,127.4c-.4,3.2-2,7.8-2.3,10.8C68.9,134.8,69.5,130.5,71.3,127.4Z" style="fill:#a9ccdf"/><path d="M67.3,124c-.5-5.6,2.6.6,4.9-1.9C70.3,125,70.1,126.2,67.3,124Z" style="fill:#7695a6"/><path d="M67.3,124c3.1.3.9,1.9,3.4.4C68.6,129.4,68.3,129.4,67.3,124Z" style="fill:#4f6b7d"/><path d="M78.3,134.2c-.2-9.2,8.8-12.9,4.7-1.4-4.7-.3-4.6,1.9-3.7,6A18,18,0,0,1,78.3,134.2Z" style="fill:#537386"/><path d="M80.2,122.9c-2.1,3.8-2.1,7.7-1.9,11.3C73.1,131.2,78.1,126,80.2,122.9Z" style="fill:#537386"/><path d="M62.4,124.2c-9.2,8.2,4-12.2,9.1-11.2C68.1,116.2,65.6,121,62.4,124.2Z" style="fill:#435b71"/><path d="M76,108.1a61.9,61.9,0,0,1-5.7,3C69.3,107.5,78.7,105.9,76,108.1Z" style="fill:#3a82a5"/><path d="M62.4,124.2c4.7-6.3,6.9-10.9,10.5-12.6C71.7,116.7,66.4,120.8,62.4,124.2Z" style="fill:#648c9d"/><path d="M60.7,87.4l3-4.7L63,84.4C70.4,81,61.5,91,60.7,87.4Z" style="fill:#e3edf0"/><path d="M69.3,81.4c-3.5-2.7,3.6-5.3-.2-1.9C71.1,79.7,71.3,81.2,69.3,81.4Z" style="fill:#7a2520"/><path d="M70.7,78.4c.9-.8,2.5-2.7,3.2-1S69,80.3,70.7,78.4Z" style="fill:#f5cf8e"/><path d="M90,147c-2-2.2-4-4.9-.3-6.6C89.8,142.9,89.9,144.8,90,147Z" style="fill:#aba095"/></svg>