<?xml version="1.0" encoding="UTF-8"?>
<svg xmlns="http://www.w3.org/2000/svg" xmlns:xlink="http://www.w3.org/1999/xlink" width="200px" height="200px" viewBox="0 0 200 200" version="1.1">
<g id="surface1">
<path style=" stroke:none;fill-rule:nonzero;fill:rgb(0%,0%,0%);fill-opacity:1;" d="M 127.800781 13.699219 C 126.800781 13.898438 126 14.699219 126 15.398438 C 126 17.898438 119.199219 18.898438 101.5 19.101562 C 86.300781 19.300781 82.898438 19.101562 80.101562 17.699219 C 77.398438 16.398438 76.898438 16.300781 77.398438 17.5 C 77.699219 18.300781 77.300781 19.601562 76.5 20.398438 C 75.199219 21.601562 75.398438 22 77.5 23.398438 C 79.800781 24.898438 83.398438 30 81.199219 28.601562 C 79.699219 27.699219 77 29 77 30.601562 C 77 32.800781 73 36.199219 71.300781 35.601562 C 69 34.699219 59.800781 37.601562 57 40 C 54.800781 41.898438 49.898438 42.5 50 40.699219 C 50 40.300781 50 38.800781 50 37.199219 C 50 35.398438 51.5 32.898438 54.5 29.5 C 58.800781 24.800781 60.601562 21.398438 57.5 24 C 56.199219 25.101562 56.101562 25 56.601562 23.5 C 57.101562 22.199219 57 21.898438 56.199219 22.398438 C 55.5 22.800781 55 23.800781 55 24.601562 C 55 25.398438 54.300781 26 53.398438 26 C 52.601562 26 52.101562 26.398438 52.5 26.898438 C 52.800781 27.398438 51 29.601562 48.5 31.601562 C 44.398438 35.101562 44.199219 35.5 45.601562 37.101562 C 47 38.699219 47 38.898438 45.101562 39.898438 C 44 40.5 42.300781 41.101562 41.300781 41.101562 C 40.300781 41.199219 41.101562 41.601562 43 41.898438 L 46.5 42.601562 L 41.800781 43.398438 C 36.601562 44.300781 32.800781 43.101562 37 41.898438 L 39.5 41.199219 L 37.300781 40.5 C 34.601562 39.601562 34.5 38.699219 36.699219 34.898438 C 40 29.300781 36.699219 30.601562 30.199219 37.5 C 24.300781 43.699219 17 53.300781 17 54.898438 C 17 56.300781 34 62.199219 38 62.199219 C 38.800781 62.199219 41.199219 62.601562 43.300781 63.199219 C 51.898438 65.300781 55.800781 61.898438 56.300781 51.800781 C 56.601562 47 57 45.601562 58.101562 45.898438 C 58.898438 46.101562 61.398438 46.398438 63.601562 46.601562 C 68.199219 46.898438 78.199219 51.800781 80.800781 55 C 82.398438 56.898438 82.800781 57 85.398438 55.898438 C 87.800781 54.800781 88.101562 54.199219 87.601562 51.699219 C 87.300781 50.101562 87 48.300781 87 47.800781 C 87 47.300781 86.5 47.199219 85.898438 47.601562 C 85.199219 48 84.898438 47.5 85.199219 46.398438 C 85.398438 45.300781 86.199219 44.5 87 44.5 C 88.898438 44.5 89.5 40.699219 87.898438 37.898438 C 86.699219 35.699219 86.800781 35.699219 89.800781 38.101562 C 93.398438 40.898438 93.5 41.5 91.5 45.398438 C 89.5 49.199219 89.601562 49.800781 92.300781 52.101562 C 95.398438 54.800781 107.601562 54.601562 109.300781 51.800781 C 110.199219 50.398438 111.699219 50 115.5 50 C 118.300781 50 121 49.601562 121.601562 49.101562 C 122.101562 48.5 123.699219 48.699219 125.5 49.5 C 128.300781 50.699219 128.300781 50.800781 126.199219 50.898438 C 123.398438 51 123.699219 53.398438 126.601562 53.800781 C 129.199219 54.199219 134 52.398438 134 51 C 134 50.5 132.800781 50 131.300781 49.898438 L 128.5 49.898438 L 131 48.898438 C 134.398438 47.5 134.5 47.300781 132.5 45 C 130.699219 43 130.699219 42.898438 132.800781 40.699219 C 134 39.398438 135 38 135 37.5 C 135 37 135.699219 35.800781 136.699219 34.800781 C 140.300781 30.800781 137.101562 32.5 131.5 37.699219 C 127.800781 41 126 43.398438 126.800781 43.699219 C 128.398438 44.300781 128.300781 46.699219 126.601562 47.300781 C 125.898438 47.601562 122 47.398438 118 46.898438 C 114 46.398438 109.300781 46.300781 107.601562 46.601562 C 105.898438 46.898438 103.101562 47.300781 101.300781 47.398438 C 98.300781 47.5 98.199219 47.398438 99.898438 45.898438 C 102 43.898438 106.300781 43.398438 110.300781 44.5 C 113.601562 45.398438 116.398438 43.5 115.699219 40.800781 C 115.398438 39.800781 115.601562 39 116.101562 39 C 116.601562 39 117 39.5 117 40.101562 C 117 40.898438 117.5 40.800781 118.5 40 C 119.898438 38.898438 119.898438 38.5 118.601562 37.101562 C 117.800781 36.199219 117.199219 35 117.199219 34.5 C 117.199219 33.898438 115.5 32.898438 113.300781 32.199219 C 111.199219 31.5 108.800781 30.199219 108 29.300781 C 106.601562 27.898438 107.199219 27.800781 114 28.5 C 118.101562 28.898438 121.800781 29.699219 122.199219 30.300781 C 122.699219 31.199219 123.5 31.199219 124.699219 30.5 C 127.101562 29.101562 132 29.800781 132 31.5 C 132 32.300781 131.199219 33.398438 130.300781 33.898438 C 129.300781 34.5 128.898438 35 129.300781 35 C 129.699219 35 132.398438 33.101562 135.300781 30.898438 C 140.199219 26.898438 140.5 26.800781 140.800781 28.898438 C 141.199219 31.601562 146.300781 34 151.300781 34 C 153.199219 34 157.300781 34.601562 160.601562 35.199219 C 166.199219 36.398438 166.398438 36.5 163 37 C 159.5 37.5 159.601562 37.5 164.800781 38.601562 L 170.101562 39.699219 L 165.300781 34.800781 C 159.101562 28.398438 146.300781 19.898438 137.300781 16 C 133.300781 14.398438 130 13.101562 129.800781 13.101562 C 129.601562 13.199219 128.699219 13.398438 127.800781 13.699219 Z M 127.800781 13.699219 "/>
<path style=" stroke:none;fill-rule:nonzero;fill:rgb(0%,0%,0%);fill-opacity:1;" d="M 161 55.101562 C 146.398438 58.101562 142 59.300781 142 60 C 142 60.398438 143 60.601562 144.300781 60.300781 C 146.199219 59.898438 146 60.101562 143.5 61.898438 C 140.199219 64.199219 141.300781 64.601562 145.699219 62.898438 C 148.5 61.699219 165.800781 61.5 169.300781 62.601562 C 170.398438 62.898438 171 62.601562 171 61.601562 C 171 60.5 172.398438 60 176.699219 59.800781 C 180.601562 59.601562 182.5 59.101562 182.800781 58 C 183.101562 57.199219 182.898438 56.800781 182.5 57.199219 C 182.101562 57.601562 180.398438 57.199219 178.800781 56.398438 C 177.101562 55.5 173.898438 55 171.101562 55.101562 C 168.5 55.199219 166 55.101562 165.398438 54.800781 C 164.898438 54.601562 162.898438 54.699219 161 55.101562 Z M 161 55.101562 "/>
<path style=" stroke:none;fill-rule:nonzero;fill:rgb(0%,0%,0%);fill-opacity:1;" d="M 52.800781 84.699219 L 48.101562 85.101562 L 44.5 92.199219 C 40.699219 99.5 40.699219 101.300781 44.101562 99.101562 C 46.300781 97.800781 47.601562 98.199219 46.601562 99.898438 C 46.199219 100.5 44.398438 101.199219 42.5 101.601562 C 37.101562 102.601562 37.601562 103.5 44 104.800781 C 47.300781 105.5 50.199219 106.5 50.5 107 C 51.800781 109.101562 47.898438 109.101562 42.398438 107.101562 C 37.101562 105.101562 36.601562 105 34.898438 106.601562 C 32.199219 109.101562 32.601562 110.300781 35.898438 109.5 C 38.898438 108.898438 47 111.5 47 113.199219 C 47 113.699219 47.601562 113.800781 48.300781 113.398438 C 49.101562 112.898438 49.199219 113 48.5 113.800781 C 47.699219 114.699219 46 114.601562 41.800781 113.398438 C 31.699219 110.5 29.5 114.300781 38.5 118.699219 C 41.5 120.199219 44 121.800781 44 122.300781 C 44 123.300781 40.800781 122.398438 36.699219 120.300781 C 35.199219 119.601562 33.601562 119.101562 33.101562 119.398438 C 32.101562 120.101562 27.800781 115.601562 28.601562 114.699219 C 28.898438 114.398438 28.398438 114.300781 27.300781 114.5 C 26.300781 114.699219 23.601562 115.101562 21.300781 115.300781 C 16.398438 115.898438 15.800781 114.601562 18.601562 109.101562 C 20.800781 104.699219 19 100.800781 15.101562 101.199219 C 12.699219 101.5 12.5 101.199219 12.5 97 C 12.5 93.199219 12.199219 92.5 10.398438 92.199219 C 9.300781 92 7.699219 92.601562 7 93.5 C 5.898438 94.800781 6 95.898438 7.800781 100.300781 C 9.101562 103.398438 10 107.699219 10 110.800781 C 10 115.601562 9.800781 116 7.601562 116 C 5.601562 116 5.300781 116.398438 5.699219 118.199219 C 7.5 126.199219 8.199219 128 9.5 128 C 10.601562 128 11 129.300781 11 132.699219 C 11.101562 135.398438 11.699219 138.601562 12.5 140 C 13.800781 142.300781 13.898438 141.398438 14.101562 130 C 14.300781 119.601562 14.398438 118.398438 15 123 C 15.5 126 15.800781 132.898438 15.898438 138.199219 C 16 143.5 16.398438 148.101562 16.898438 148.398438 C 17.800781 149 19 139.800781 19 132.601562 L 19 128.5 L 25 128.398438 C 30.601562 128.300781 31 128.5 31 130.601562 C 31 131.898438 31.601562 133.300781 32.300781 133.699219 C 33.101562 134.101562 34.699219 138.800781 35.898438 144 C 37.199219 149.199219 40.199219 157.601562 42.601562 162.699219 C 46.800781 171.5 47.199219 171.898438 50.800781 172.5 C 52.800781 172.800781 56.300781 173.5 58.5 174 C 60.699219 174.5 63.699219 175.101562 65.101562 175.398438 C 66.699219 175.800781 68 176.800781 68.300781 178.101562 C 68.898438 180.300781 68.800781 180.300781 59.699219 179.699219 C 49.300781 178.898438 45.898438 179.898438 51.199219 182 C 53 182.800781 54.800781 183.898438 55.199219 184.398438 C 55.699219 185.101562 56 185.101562 56 184.199219 C 56 183.300781 56.5 183.199219 57.898438 184 C 60.601562 185.398438 63.699219 185.300781 64.398438 183.699219 C 64.699219 183.101562 64.800781 183.398438 64.699219 184.5 C 64.398438 187.199219 67.199219 187.101562 68.5 184.300781 C 69.199219 182.699219 70 182.199219 71.601562 182.601562 C 73 183 74.898438 182.398438 76.800781 181 C 79.601562 178.898438 79.898438 178.898438 82.898438 180.398438 C 87.601562 182.898438 87.199219 186.800781 82 190 C 79.898438 191.300781 78.199219 192.5 78.300781 192.699219 C 79.300781 193.601562 90.699219 194.5 101.5 194.398438 C 111.101562 194.300781 116.5 193.699219 122.101562 192.199219 C 131.101562 189.800781 142 185.300781 147.800781 181.601562 C 151.800781 179.101562 152 178.800781 151.398438 175.199219 C 151.101562 173.199219 150.199219 170.800781 149.5 170 C 148.800781 169.199219 147.699219 166.699219 147 164.5 C 145.5 159.199219 140.101562 151.800781 136.398438 150.101562 C 134.800781 149.398438 132.5 147.800781 131.199219 146.601562 C 129.199219 144.898438 128.800781 144.800781 128 146 C 127.199219 147.300781 126.800781 147.199219 125.300781 145.699219 C 123.601562 144 123.601562 143.898438 125.5 144.5 C 126.800781 144.898438 126.5 144.5 124.800781 143.398438 C 121.800781 141.398438 121.300781 138.699219 123.101562 134.699219 C 124.300781 132.101562 127.800781 131 135.300781 131 C 137.601562 131 138.898438 130.601562 138.5 130 C 138.199219 129.398438 138.300781 129 138.898438 129 C 139.398438 129 140.199219 129.398438 140.5 130 C 140.800781 130.5 142.101562 130.898438 143.300781 130.898438 C 149.199219 130.699219 158.800781 134.101562 162 137.5 C 164 139.699219 164.101562 140.199219 163 142.898438 C 161.800781 145.800781 155.300781 150 151.898438 150 C 149.300781 150 146.199219 152.898438 146.699219 154.800781 C 147 156.300781 149 157 155.800781 158.199219 C 161.300781 159.199219 164.699219 159.398438 165.101562 158.800781 C 165.5 158.199219 167.898438 157.699219 170.601562 157.5 C 174.800781 157.199219 175.800781 156.699219 177.699219 153.898438 C 180.199219 150.199219 180.601562 148 178.898438 146.300781 C 178.101562 145.5 178.101562 145 179 144.5 C 179.699219 144.101562 180.398438 144.699219 180.699219 146 L 181.300781 148.199219 L 182.5 145.898438 C 183.601562 143.898438 183.101562 138.800781 181.699219 137.300781 C 180.601562 136.199219 178 138.398438 178.5 140 C 178.800781 141 178.601562 142.101562 178 142.5 C 177.5 142.800781 177 142.601562 177 142 C 177 141.398438 176.601562 141.101562 176.101562 141.5 C 174.5 142.398438 173 138.5 173 133.601562 C 173 129.5 173.199219 129.199219 175.300781 129.601562 C 176.5 129.898438 178.398438 130.199219 179.5 130.398438 C 180.601562 130.601562 183 131.398438 184.800781 132.398438 C 186.5 133.300781 188 133.699219 188 133.199219 C 188 132.699219 185.199219 130.800781 181.800781 129 C 172 123.898438 169 121.300781 169.101562 118.199219 C 169.199219 116.699219 169.398438 116.199219 169.699219 117.101562 C 169.898438 117.898438 171.699219 119.699219 173.800781 120.898438 C 184.898438 127.601562 189.398438 130 189.898438 129.5 C 190.199219 129.101562 189.800781 128.5 189 128 C 187.699219 127.199219 187.699219 127 189.101562 127 C 190.300781 127 191 125.398438 191.898438 121.300781 C 193.699219 112.101562 194.300781 112.601562 183.101562 113.398438 C 175.898438 113.800781 172.898438 113.699219 172.398438 112.800781 C 172 112.199219 171.601562 109.398438 171.601562 106.601562 C 171.5 101.800781 171.300781 101.5 168.800781 101.199219 C 165.199219 100.800781 164 104.601562 166.601562 108.398438 C 167.5 109.898438 168.101562 111.300781 167.800781 111.5 C 166.800781 112.5 152.898438 113.199219 147.5 112.5 C 142.398438 111.898438 141.699219 111.5 140.398438 108.699219 C 139.601562 106.898438 139.101562 106.398438 139.300781 107.601562 C 139.601562 109.300781 139.300781 109.5 137 109.199219 C 135.101562 108.898438 133.800781 107.800781 132.699219 105.398438 C 130.601562 101.101562 124.101562 97 118.199219 96.300781 C 114 95.800781 112.898438 96.199219 108.300781 99.300781 L 103.101562 102.800781 L 93.300781 102.300781 C 84.699219 101.800781 82 102.101562 70.5 104.898438 C 52.5 109.199219 52.800781 109.199219 53.199219 108.300781 C 54.101562 106.699219 57 100.101562 60 93.300781 C 62.601562 87.101562 62.800781 86.398438 61.300781 85.199219 C 60.398438 84.601562 59.101562 84.101562 58.601562 84.199219 C 58 84.300781 55.398438 84.5 52.800781 84.699219 Z M 124.300781 100.398438 C 124.601562 100.101562 126.101562 101.601562 127.5 103.898438 C 130.199219 107.898438 132.5 119.601562 130.898438 120.601562 C 129.699219 121.300781 115.800781 112.101562 113.199219 108.898438 C 110.898438 106.101562 106 104.800781 106 107 C 106 107.5 105.601562 108 105 108 C 102.699219 108 104.199219 103.898438 107.398438 101.5 C 110.101562 99.398438 111.800781 98.898438 115.398438 99.101562 C 117.898438 99.300781 120.300781 99 120.699219 98.601562 C 121.101562 98.199219 122 98.601562 122.601562 99.398438 C 123.199219 100.300781 124 100.699219 124.300781 100.398438 Z M 102.898438 110.699219 C 102.398438 114 103.300781 115.699219 106.300781 116.800781 C 110.601562 118.398438 110.699219 118.300781 111.300781 116 C 112.101562 112.699219 114.699219 112.5 117.5 115.601562 C 118.898438 117.101562 120 118.699219 120 119.101562 C 120 119.5 121.699219 120.199219 123.699219 120.601562 C 128 121.398438 129.398438 122.601562 129.699219 125.601562 C 129.898438 127.101562 128.898438 128.101562 126.398438 129.300781 C 121.898438 131.5 120.398438 131.398438 117.800781 129 C 115.5 126.898438 114 127.199219 114 129.898438 C 114 133.898438 109.300781 135.300781 105.199219 132.398438 C 103 130.898438 102 127.199219 104.101562 128.601562 C 104.800781 129 105.101562 128.5 104.800781 127.5 C 104.300781 124.699219 102.5 124.699219 101 127.398438 C 100.300781 128.800781 99.300781 129.699219 98.898438 129.398438 C 98.5 129.199219 97.800781 129.398438 97.5 130 C 97.101562 130.601562 95.398438 130.800781 93.199219 130.398438 L 89.5 129.699219 L 91.398438 131.898438 C 92.5 133 94.101562 134 95.199219 134 C 96.398438 134 97 134.699219 97 136.398438 C 97 137.699219 97.601562 139.300781 98.398438 139.898438 C 99.601562 140.898438 100.300781 140.699219 101.898438 139.101562 C 104.300781 136.699219 109.5 136.300781 110.398438 138.5 C 111 140.199219 113.398438 139.601562 116.398438 137.101562 C 118.199219 135.601562 118.300781 135.601562 117.699219 138 C 117 140.800781 119.699219 144.699219 123.800781 146.898438 L 126.199219 148.199219 L 124.101562 150.398438 C 121.101562 153.601562 109.898438 157.398438 106.101562 156.5 C 102.699219 155.800781 102.300781 154.800781 104.300781 152.800781 C 105.101562 152.199219 105.398438 150.5 105.199219 149.199219 C 104.898438 147.398438 104.5 147.199219 103.898438 148.199219 C 103.300781 149.101562 103 148.898438 102.898438 147.199219 C 102.800781 145 102.5 143.800781 102 142.199219 C 101.800781 141.800781 101.398438 143.300781 101.101562 145.5 C 100.5 149.199219 100.300781 149.5 97.5 149.199219 C 92.800781 148.699219 80.101562 151.800781 76.800781 154.101562 C 73.898438 156.199219 62.101562 158.300781 59.300781 157.199219 C 58.601562 157 58 157.398438 58 158.101562 C 58 159.601562 45.800781 135.101562 44.5 131.101562 C 44.101562 129.699219 44.199219 129 44.699219 129.300781 C 45.199219 129.601562 50.699219 130.199219 57 130.5 C 63.300781 130.800781 69 131.601562 69.699219 132.199219 C 70.601562 132.898438 71 132.898438 71 132.101562 C 71 131.199219 71.5 131.199219 73.101562 132 C 74.199219 132.601562 78.300781 133 82.300781 132.800781 C 89.800781 132.5 90.699219 131.800781 88.800781 127.898438 C 88.300781 126.800781 88.699219 125.699219 90 124.5 C 91.101562 123.5 92 123.199219 92 123.800781 C 92 124.398438 91.601562 125.199219 91 125.5 C 89 126.699219 90 129 92.5 129 C 94.601562 129 95 128.5 95 126.101562 C 95 124.5 95.898438 122.199219 97.101562 120.898438 L 99.101562 118.5 L 98.699219 121.199219 C 98.398438 123.300781 98.699219 123.800781 100.101562 123.699219 C 104 123.398438 103.199219 114 99.300781 114 C 97.898438 114 97.898438 113.800781 99.5 112 C 101.300781 110 103.101562 109.300781 102.898438 110.699219 Z M 50.300781 147.300781 C 52.398438 150.300781 54 153.300781 54 154.101562 C 54 154.898438 54.898438 157 56.101562 158.898438 C 57.898438 162 58.199219 162.101562 59.398438 160.5 C 60.398438 159.101562 61.5 158.898438 64.398438 159.398438 C 67.199219 159.898438 68.800781 161.199219 71.5 164.800781 C 74.898438 169.5 75.898438 171.699219 74 170.5 C 73.5 170.199219 73 170.398438 73 171.101562 C 73 172.199219 71.101562 172.101562 65.398438 170.699219 C 64.300781 170.398438 62.699219 170.5 62 171 C 60 172.199219 55 170.101562 55 168 C 55 167 55.5 166 56.101562 165.800781 C 58.199219 165.101562 55.199219 161 52.699219 161 C 51.398438 161 49.699219 160.398438 48.800781 159.699219 C 47.199219 158.398438 45.601562 153.601562 47.101562 154.601562 C 47.601562 154.898438 48 154.699219 48 154.199219 C 48 153.699219 47.101562 153 46.101562 152.699219 C 45.101562 152.5 43.398438 151.101562 42.5 149.601562 C 41.101562 147.5 41 146.699219 42 145.5 C 42.699219 144.699219 43.601562 144.199219 44 144.5 C 44.398438 144.800781 45 144.300781 45.398438 143.5 C 45.699219 142.699219 46.101562 142 46.300781 142 C 46.5 142 48.300781 144.398438 50.300781 147.300781 Z M 50.300781 147.300781 "/>
</g>
</svg>
