<svg xmlns="http://www.w3.org/2000/svg" width="256" height="256" viewBox="0 0 256 256" version="1.1"><path d="M 66.180 81.468 C 33.005 87.117, 5.457 92.143, 4.964 92.636 C 1.249 96.351, -1.296 133.716, 1.193 148 C 2.500 155.500, 2.500 155.500, 16 156.243 C 45.261 157.852, 130.700 162.033, 134 162.017 C 137.500 161.999, 137.500 161.999, 137.500 129.463 C 137.500 102.677, 137.747 96.774, 138.898 96.063 C 141.327 94.562, 161.767 93.518, 182.674 93.827 C 202.847 94.125, 202.847 94.125, 202.299 84.313 C 201.998 78.916, 201.466 74.181, 201.117 73.792 C 200.399 72.989, 151.742 70.966, 136.500 71.105 C 128.699 71.176, 113.233 73.455, 66.180 81.468" stroke="none" fill="#0094ff" fill-rule="evenodd"/><path d="M 66.180 81.468 C 33.005 87.117, 5.457 92.143, 4.964 92.636 C 1.249 96.351, -1.296 133.716, 1.193 148 C 2.500 155.500, 2.500 155.500, 16 156.243 C 45.261 157.852, 130.700 162.033, 134 162.017 C 137.500 161.999, 137.500 161.999, 137.500 129.463 C 137.500 102.677, 137.747 96.774, 138.898 96.063 C 141.327 94.562, 161.767 93.518, 182.674 93.827 C 202.847 94.125, 202.847 94.125, 202.299 84.313 C 201.998 78.916, 201.466 74.181, 201.117 73.792 C 200.399 72.989, 151.742 70.966, 136.500 71.105 C 128.699 71.176, 113.233 73.455, 66.180 81.468" stroke="none" fill="#0094ff" fill-rule="evenodd"/><path d="M 149.500 94.868 C 144.550 95.234, 139.938 95.890, 139.250 96.326 C 138.293 96.932, 138 104.584, 138 129 C 138 146.535, 138.361 161.105, 138.803 161.378 C 139.244 161.651, 150.246 162.195, 163.251 162.587 C 186.896 163.300, 186.896 163.300, 190.198 172.297 C 194.909 185.132, 195.631 185.556, 212.283 185.292 C 230.855 184.997, 231.863 184.385, 234.598 171.737 C 236.202 164.319, 238.975 144.372, 238.991 140.131 C 239 137.761, 239 137.761, 207.250 138.466 C 179.787 139.076, 175.230 138.968, 173.500 137.667 C 171.810 136.396, 171.446 134.749, 171.149 127.050 C 170.550 111.484, 167.164 113, 202.545 113 C 233.052 113, 233.052 113, 227 104 C 223.672 99.050, 220.623 94.990, 220.224 94.978 C 202.803 94.456, 156.059 94.384, 149.500 94.868 M 149.473 113.670 C 148.128 115.015, 147.873 116.859, 148.159 123.154 C 148.597 132.812, 150.615 135.396, 159.112 137.178 C 167.911 139.024, 168 138.908, 168 125.567 C 168 112.076, 167.942 112, 157.637 112 C 152.905 112, 150.690 112.453, 149.473 113.670 M 197.807 148.863 C 196.844 150.235, 196.636 153.521, 197.015 161.355 C 197.490 171.143, 197.738 172.192, 200.148 174.602 C 203.194 177.649, 208.896 178.618, 217.469 177.547 C 225.799 176.506, 226.572 175.248, 227.401 161.375 C 227.895 153.117, 227.759 149.414, 226.924 148.408 C 226.026 147.326, 222.669 147, 212.434 147 C 200.575 147, 198.970 147.204, 197.807 148.863 M 34.545 164.859 C 33.791 167.235, 34.906 170.196, 36.373 169.715 C 38.185 169.122, 38.420 163, 36.631 163 C 35.808 163, 34.869 163.837, 34.545 164.859 M 45.980 165.038 C 44.680 167.467, 45.580 171, 47.500 171 C 49.420 171, 50.320 167.467, 49.020 165.038 C 48.420 163.917, 47.736 163, 47.500 163 C 47.264 163, 46.580 163.917, 45.980 165.038 M 57.390 166.427 C 56.576 168.548, 57.333 172.288, 58.665 172.727 C 59.306 172.938, 60.124 172.185, 60.483 171.055 C 61.734 167.112, 58.807 162.733, 57.390 166.427 M 106.200 170.200 C 104.929 171.471, 104.589 176.765, 105.607 179.418 C 105.941 180.288, 107.018 181, 108 181 C 110.096 181, 111 179.076, 111 174.618 C 111 171.708, 109.554 169, 108 169 C 107.670 169, 106.860 169.540, 106.200 170.200 M 145.035 175.934 C 143.513 178.779, 143.775 184.234, 145.557 186.777 C 148.777 191.375, 152 188.369, 152 180.766 C 152 178.365, 151.460 175.860, 150.800 175.200 C 148.998 173.398, 146.202 173.754, 145.035 175.934 M 174.381 178.155 C 175.382 183.159, 176.649 184, 183.190 184 C 188.880 184, 189.107 183.904, 188.487 181.750 C 187.303 177.640, 183.326 175, 178.319 175 C 173.750 175, 173.750 175, 174.381 178.155 M 237.329 175.775 C 236.685 176.185, 235.839 177.792, 235.449 179.347 C 234.806 181.907, 234.964 182.142, 237.120 181.837 C 238.987 181.573, 239.567 180.800, 239.813 178.250 C 240.127 174.993, 239.516 174.384, 237.329 175.775" stroke="none" fill="#ffffff" fill-rule="evenodd"/><path d="M 150.250 113.643 C 149.398 114, 149 116.712, 149 122.160 C 149 129.579, 149.201 130.355, 151.797 132.950 C 154.751 135.905, 164.597 138.803, 166.208 137.192 C 166.681 136.719, 166.941 131.194, 166.784 124.916 C 166.500 113.500, 166.500 113.500, 159 113.309 C 154.875 113.204, 150.938 113.354, 150.250 113.643 M 173.250 113.639 C 172.365 114.013, 172 117.184, 172 124.512 C 172 132.781, 172.330 135.187, 173.646 136.503 C 175.117 137.975, 178.595 138.114, 206.564 137.824 C 223.763 137.646, 238.154 137.181, 238.543 136.792 C 238.932 136.402, 238.017 131.115, 236.510 125.042 C 233.771 114, 233.771 114, 206.136 113.986 C 190.936 113.979, 177.600 113.779, 176.500 113.542 C 175.400 113.305, 173.938 113.349, 173.250 113.639 M 198.131 149.342 C 197.316 150.324, 197.174 153.812, 197.653 161.112 C 198.278 170.657, 198.553 171.707, 201.089 174.243 C 203.641 176.795, 204.445 177, 211.876 177 C 220.941 177, 224.785 175.706, 225.622 172.372 C 225.937 171.115, 226.264 165.230, 226.348 159.293 C 226.500 148.500, 226.500 148.500, 212.895 148.223 C 202.213 148.005, 199.041 148.245, 198.131 149.342 M 27.197 162.226 C 27.462 166.842, 27.784 167.540, 29.775 167.823 C 31.026 168, 32.765 169.238, 33.640 170.573 C 34.796 172.337, 36.138 173, 38.556 173 C 40.385 173, 42.181 172.517, 42.545 171.927 C 42.960 171.255, 43.753 171.630, 44.661 172.927 C 46.239 175.179, 52.347 175.866, 53.547 173.925 C 53.972 173.237, 54.908 173.597, 56.144 174.925 C 58.988 177.977, 64.311 177.716, 66.722 174.407 C 68.610 171.815, 68.610 171.815, 84.683 173.407 C 93.522 174.283, 100.982 175, 101.259 175 C 101.536 175, 102.257 176.962, 102.861 179.360 C 104.162 184.530, 105.581 185.895, 110.474 186.690 C 113.315 187.150, 114.803 186.782, 117.169 185.034 C 119.925 182.996, 120.928 182.846, 127.855 183.436 C 139.692 184.444, 140.728 184.776, 141.481 187.809 C 142.790 193.087, 145.715 195, 152.474 195 C 155.843 195, 159.109 194.491, 159.731 193.869 C 160.459 193.141, 167.227 192.606, 178.681 192.369 C 188.482 192.166, 198.945 191.551, 201.934 191 C 211.282 189.279, 219.414 189.695, 221.500 192 C 224.361 195.161, 233.238 194.812, 237.356 191.376 C 241.689 187.760, 242.926 185.247, 242.951 180 C 242.981 173.839, 242.126 171.175, 239.892 170.466 C 238.667 170.077, 238 168.937, 238 167.233 C 238 162.863, 236.361 166.021, 235.053 172.910 C 233.627 180.425, 231.916 183.405, 228.201 184.845 C 225.925 185.728, 207.559 186.576, 200.327 186.133 C 196.058 185.872, 192.631 181.597, 189.585 172.735 C 186.671 164.253, 186.671 164.253, 164.085 163.584 C 144.554 163.006, 63.891 159.175, 36.197 157.511 C 26.894 156.952, 26.894 156.952, 27.197 162.226 M 34.667 162.667 C 33.571 163.762, 33.912 168.512, 35.176 169.776 C 36.762 171.362, 39 169.489, 39 166.578 C 39 163.411, 36.331 161.002, 34.667 162.667 M 45.701 163.632 C 44.719 164.614, 44.854 169.221, 45.914 170.896 C 46.418 171.690, 47.514 172.017, 48.460 171.654 C 50.667 170.807, 50.235 163.656, 47.951 163.224 C 47.099 163.063, 46.087 163.246, 45.701 163.632 M 57.207 165.193 C 55.508 166.892, 55.705 171.511, 57.542 173.035 C 59.558 174.708, 61.250 173.088, 61.250 169.486 C 61.250 165.998, 58.899 163.501, 57.207 165.193 M 105.035 170.934 C 103.428 173.937, 103.807 177.550, 106 180.139 C 108 182.500, 108 182.500, 110 180.139 C 113.338 176.200, 112.045 169, 108 169 C 106.939 169, 105.605 169.870, 105.035 170.934 M 144.420 176.155 C 141.586 181.635, 143.903 189, 148.462 189 C 152.605 189, 154.608 179.741, 151.443 175.223 C 149.217 172.044, 146.349 172.425, 144.420 176.155 M 174 177.977 C 174 183.472, 176.885 185.349, 183.898 184.419 C 187.353 183.961, 189 183.278, 189 182.305 C 189 177.911, 183.608 174, 177.550 174 C 174.078 174, 174 174.088, 174 177.977 M 236.260 176.250 C 235.719 176.938, 234.980 178.738, 234.619 180.250 C 234.073 182.534, 234.292 183, 235.910 183 C 238.582 183, 241 180.353, 241 177.429 C 241 174.752, 238.023 174.012, 236.260 176.250" stroke="none" fill="#2d2d69" fill-rule="evenodd"/><path d="M 177.813 113.683 C 178.534 113.972, 179.397 113.936, 179.729 113.604 C 180.061 113.272, 179.471 113.036, 178.417 113.079 C 177.252 113.127, 177.015 113.364, 177.813 113.683 M 167.374 125.500 C 167.376 131.550, 167.541 133.896, 167.740 130.713 C 167.939 127.531, 167.937 122.581, 167.736 119.713 C 167.535 116.846, 167.372 119.450, 167.374 125.500 M 150 132.378 C 150 132.585, 150.787 133.373, 151.750 134.128 C 153.336 135.371, 153.371 135.336, 152.128 133.750 C 150.821 132.084, 150 131.555, 150 132.378 M 234.250 137.689 C 235.213 137.941, 236.787 137.941, 237.750 137.689 C 238.713 137.438, 237.925 137.232, 236 137.232 C 234.075 137.232, 233.287 137.438, 234.250 137.689 M 36.250 157.716 C 37.763 157.945, 40.237 157.945, 41.750 157.716 C 43.263 157.487, 42.025 157.300, 39 157.300 C 35.975 157.300, 34.737 157.487, 36.250 157.716 M 57.762 158.707 C 59.006 158.946, 60.806 158.937, 61.762 158.687 C 62.718 158.437, 61.700 158.241, 59.500 158.252 C 57.300 158.263, 56.518 158.468, 57.762 158.707 M 197.195 160.500 C 197.215 162.150, 197.439 162.704, 197.693 161.731 C 197.947 160.758, 197.930 159.408, 197.656 158.731 C 197.382 158.054, 197.175 158.850, 197.195 160.500 M 77.762 159.707 C 79.006 159.946, 80.806 159.937, 81.762 159.687 C 82.718 159.437, 81.700 159.241, 79.500 159.252 C 77.300 159.263, 76.518 159.468, 77.762 159.707 M 95.762 160.707 C 97.006 160.946, 98.806 160.937, 99.762 160.687 C 100.718 160.437, 99.700 160.241, 97.500 160.252 C 95.300 160.263, 94.518 160.468, 95.762 160.707 M 114.762 161.707 C 116.006 161.946, 117.806 161.937, 118.762 161.687 C 119.718 161.437, 118.700 161.241, 116.500 161.252 C 114.300 161.263, 113.518 161.468, 114.762 161.707 M 135.750 162.732 C 138.088 162.943, 141.912 162.943, 144.250 162.732 C 146.588 162.522, 144.675 162.349, 140 162.349 C 135.325 162.349, 133.412 162.522, 135.750 162.732 M 164.750 163.706 C 165.988 163.944, 168.012 163.944, 169.250 163.706 C 170.488 163.467, 169.475 163.272, 167 163.272 C 164.525 163.272, 163.512 163.467, 164.750 163.706 M 226.195 166.500 C 226.215 168.150, 226.439 168.704, 226.693 167.731 C 226.947 166.758, 226.930 165.408, 226.656 164.731 C 226.382 164.054, 226.175 164.850, 226.195 166.500 M 29.813 168.683 C 30.534 168.972, 31.397 168.936, 31.729 168.604 C 32.061 168.272, 31.471 168.036, 30.417 168.079 C 29.252 168.127, 29.015 168.364, 29.813 168.683 M 71.750 172.662 C 72.438 172.940, 73.563 172.940, 74.250 172.662 C 74.938 172.385, 74.375 172.158, 73 172.158 C 71.625 172.158, 71.063 172.385, 71.750 172.662 M 37.269 173.693 C 38.242 173.947, 39.592 173.930, 40.269 173.656 C 40.946 173.382, 40.150 173.175, 38.500 173.195 C 36.850 173.215, 36.296 173.439, 37.269 173.693 M 53.603 173.833 C 53.320 174.292, 53.723 174.667, 54.500 174.667 C 55.277 174.667, 55.680 174.292, 55.397 173.833 C 55.114 173.375, 54.710 173, 54.500 173 C 54.290 173, 53.886 173.375, 53.603 173.833 M 82.750 173.662 C 83.438 173.940, 84.563 173.940, 85.250 173.662 C 85.938 173.385, 85.375 173.158, 84 173.158 C 82.625 173.158, 82.063 173.385, 82.750 173.662 M 93.813 174.683 C 94.534 174.972, 95.397 174.936, 95.729 174.604 C 96.061 174.272, 95.471 174.036, 94.417 174.079 C 93.252 174.127, 93.015 174.364, 93.813 174.683 M 185 176.378 C 185 176.585, 185.787 177.373, 186.750 178.128 C 188.336 179.371, 188.371 179.336, 187.128 177.750 C 185.821 176.084, 185 175.555, 185 176.378 M 124.750 183.662 C 125.438 183.940, 126.563 183.940, 127.250 183.662 C 127.938 183.385, 127.375 183.158, 126 183.158 C 124.625 183.158, 124.063 183.385, 124.750 183.662 M 134.750 184.662 C 135.438 184.940, 136.563 184.940, 137.250 184.662 C 137.938 184.385, 137.375 184.158, 136 184.158 C 134.625 184.158, 134.063 184.385, 134.750 184.662 M 179.269 184.693 C 180.242 184.947, 181.592 184.930, 182.269 184.656 C 182.946 184.382, 182.150 184.175, 180.500 184.195 C 178.850 184.215, 178.296 184.439, 179.269 184.693 M 202.750 186.662 C 203.438 186.940, 204.563 186.940, 205.250 186.662 C 205.938 186.385, 205.375 186.158, 204 186.158 C 202.625 186.158, 202.063 186.385, 202.750 186.662 M 239 190 C 238.099 190.582, 237.975 190.975, 238.691 190.985 C 239.346 190.993, 240.160 190.550, 240.500 190 C 241.267 188.758, 240.921 188.758, 239 190 M 207.768 190.725 C 209.565 190.947, 212.265 190.943, 213.768 190.715 C 215.271 190.486, 213.800 190.304, 210.500 190.310 C 207.200 190.315, 205.971 190.502, 207.768 190.725 M 143 192.378 C 143 192.585, 143.787 193.373, 144.750 194.128 C 146.336 195.371, 146.371 195.336, 145.128 193.750 C 143.821 192.084, 143 191.555, 143 192.378 M 159.872 193.750 C 158.629 195.336, 158.664 195.371, 160.250 194.128 C 161.916 192.821, 162.445 192, 161.622 192 C 161.415 192, 160.627 192.787, 159.872 193.750 M 163.813 192.683 C 164.534 192.972, 165.397 192.936, 165.729 192.604 C 166.061 192.272, 165.471 192.036, 164.417 192.079 C 163.252 192.127, 163.015 192.364, 163.813 192.683 M 181.250 192.716 C 182.762 192.945, 185.238 192.945, 186.750 192.716 C 188.262 192.487, 187.025 192.300, 184 192.300 C 180.975 192.300, 179.738 192.487, 181.250 192.716 M 149.768 195.725 C 151.565 195.947, 154.265 195.943, 155.768 195.715 C 157.271 195.486, 155.800 195.304, 152.500 195.310 C 149.200 195.315, 147.971 195.502, 149.768 195.725" stroke="none" fill="#1270c6" fill-rule="evenodd"/><path d="M 110.500 0.707 C 103.254 1.690, 89.794 5.308, 81.500 8.501 C 47.370 21.642, 21.274 48.177, 7.490 83.756 C 5.944 87.747, 4.864 91.193, 5.090 91.414 C 5.315 91.635, 33.175 87.096, 67 81.328 C 128.500 70.840, 128.500 70.840, 164.425 71.895 C 184.183 72.475, 200.665 73.298, 201.050 73.725 C 201.436 74.151, 201.995 78.864, 202.292 84.199 C 202.834 93.897, 202.834 93.897, 198.667 94.298 C 196.206 94.534, 197.162 94.679, 201 94.652 C 221.638 94.507, 220.292 94.023, 226.989 103.984 C 233.030 112.967, 233.030 112.967, 206.265 113.251 C 179.500 113.534, 179.500 113.534, 206.711 113.767 C 233.923 114, 233.923 114, 234.901 117.750 C 239.987 137.252, 239.961 136.568, 236.560 161.772 C 236.304 163.669, 236.514 164.800, 237.059 164.463 C 237.577 164.144, 238 164.979, 238 166.319 C 238 167.735, 238.940 169.380, 240.243 170.245 C 242.060 171.452, 242.582 172.944, 242.998 178.117 C 243.511 184.500, 243.511 184.500, 247.237 175 C 254.198 157.255, 255.465 150.012, 255.460 128 C 255.456 106.559, 254.140 98.640, 247.863 82.278 C 231.686 40.109, 194.150 9.146, 150.074 1.611 C 141.350 0.120, 118.647 -0.399, 110.500 0.707 M 168.750 93.723 C 170.537 93.945, 173.463 93.945, 175.250 93.723 C 177.037 93.502, 175.575 93.320, 172 93.320 C 168.425 93.320, 166.963 93.502, 168.750 93.723 M 152.762 94.707 C 154.006 94.946, 155.806 94.937, 156.762 94.687 C 157.718 94.437, 156.700 94.241, 154.500 94.252 C 152.300 94.263, 151.518 94.468, 152.762 94.707 M 137.214 129.691 C 137.096 146.846, 137.338 161.091, 137.750 161.347 C 138.162 161.603, 138.385 152.517, 138.245 141.156 C 137.764 102.258, 137.427 98.514, 137.214 129.691 M 154.250 112.728 C 156.313 112.944, 159.688 112.944, 161.750 112.728 C 163.813 112.513, 162.125 112.336, 158 112.336 C 153.875 112.336, 152.188 112.513, 154.250 112.728 M 148.336 122 C 148.336 126.125, 148.513 127.813, 148.728 125.750 C 148.944 123.688, 148.944 120.313, 148.728 118.250 C 148.513 116.188, 148.336 117.875, 148.336 122 M 171.365 124.500 C 171.368 130, 171.536 132.122, 171.738 129.216 C 171.941 126.311, 171.939 121.811, 171.734 119.216 C 171.528 116.622, 171.363 119, 171.365 124.500 M 182.750 138.744 C 187.287 138.929, 194.713 138.929, 199.250 138.744 C 203.787 138.559, 200.075 138.407, 191 138.407 C 181.925 138.407, 178.213 138.559, 182.750 138.744 M 212.500 147.957 C 226.500 148.500, 226.500 148.500, 227.087 154 C 227.674 159.500, 227.674 159.500, 227.837 154.450 C 227.928 151.638, 227.468 148.868, 226.800 148.200 C 225.963 147.363, 221.502 147.063, 212.050 147.207 C 198.500 147.414, 198.500 147.414, 212.500 147.957 M 3.532 159.250 C 5.916 170.453, 13.643 187.725, 21.714 199.889 C 24.857 204.625, 31.944 213.016, 37.464 218.536 C 55.087 236.159, 74.266 246.878, 99.500 253.207 C 107.312 255.167, 111.075 255.464, 128 255.460 C 145.162 255.457, 148.639 255.172, 157 253.087 C 182.942 246.619, 205.657 233.260, 222.748 214.419 C 230.399 205.985, 240.383 191.668, 238.961 191.170 C 238.442 190.988, 237.307 191.550, 236.438 192.420 C 234.046 194.811, 223.638 194.594, 221.289 192.104 C 219.629 190.345, 218.673 190.275, 208 191.134 C 201.675 191.644, 188.677 192.289, 179.116 192.568 C 166.135 192.946, 161.202 193.446, 159.643 194.537 C 158.446 195.376, 155.284 196, 152.232 196 C 147.902 196, 146.447 195.538, 144.435 193.526 C 143.074 192.165, 141.688 189.690, 141.355 188.026 C 140.981 186.153, 140.131 184.997, 139.125 184.992 C 138.231 184.987, 133.567 184.533, 128.760 183.982 C 120.605 183.048, 119.885 183.115, 118.010 184.990 C 116.616 186.384, 114.674 187, 111.674 187 C 106.477 187, 103.219 184.124, 102.350 178.771 C 101.780 175.256, 101.780 175.256, 87.640 174.076 C 79.863 173.428, 72.343 172.677, 70.929 172.408 C 68.897 172.022, 68.115 172.452, 67.200 174.460 C 66.221 176.610, 65.379 177, 61.721 177 C 59.345 177, 56.859 176.459, 56.199 175.799 C 55.536 175.136, 53.061 174.717, 50.675 174.864 C 47.739 175.044, 45.941 174.634, 45.071 173.586 C 44.133 172.455, 43.301 172.304, 41.961 173.021 C 38.965 174.624, 36.260 174.146, 34.311 171.668 C 33.302 170.386, 31.245 169.027, 29.738 168.649 C 27.182 168.008, 27 167.607, 27 162.629 C 27 157.296, 27 157.296, 18.750 156.654 C 14.212 156.301, 8.777 156.009, 6.671 156.006 C 2.874 156, 2.847 156.028, 3.532 159.250 M 150.768 162.725 C 152.565 162.947, 155.265 162.943, 156.768 162.715 C 158.271 162.486, 156.800 162.304, 153.500 162.310 C 150.200 162.315, 148.971 162.502, 150.768 162.725 M 45.459 164.067 C 45.096 164.653, 45.014 165.348, 45.276 165.610 C 45.538 165.872, 46.019 165.392, 46.345 164.543 C 47.021 162.781, 46.445 162.471, 45.459 164.067 M 48.564 164.293 C 48.940 165.279, 49.499 165.834, 49.807 165.526 C 50.115 165.219, 49.808 164.412, 49.124 163.733 C 48.136 162.753, 48.022 162.868, 48.564 164.293 M 174.750 163.732 C 177.088 163.943, 180.912 163.943, 183.250 163.732 C 185.588 163.522, 183.675 163.349, 179 163.349 C 174.325 163.349, 172.412 163.522, 174.750 163.732 M 197.252 166.500 C 197.263 168.700, 197.468 169.482, 197.707 168.238 C 197.946 166.994, 197.937 165.194, 197.687 164.238 C 197.437 163.282, 197.241 164.300, 197.252 166.500 M 38.079 166.583 C 38.127 167.748, 38.364 167.985, 38.683 167.188 C 38.972 166.466, 38.936 165.603, 38.604 165.271 C 38.272 164.939, 38.036 165.529, 38.079 166.583 M 56.136 169.128 C 56.061 170.576, 56.785 172.371, 57.750 173.128 C 59.273 174.322, 59.350 174.305, 58.346 173 C 57.711 172.175, 56.985 170.375, 56.732 169 C 56.272 166.500, 56.272 166.500, 56.136 169.128 M 235.079 168.583 C 235.127 169.748, 235.364 169.985, 235.683 169.188 C 235.972 168.466, 235.936 167.603, 235.604 167.271 C 235.272 166.939, 235.036 167.529, 235.079 168.583 M 226.158 171 C 226.158 172.375, 226.385 172.938, 226.662 172.250 C 226.940 171.563, 226.940 170.438, 226.662 169.750 C 226.385 169.063, 226.158 169.625, 226.158 171 M 104.195 175.500 C 104.215 177.150, 104.439 177.704, 104.693 176.731 C 104.947 175.758, 104.930 174.408, 104.656 173.731 C 104.382 173.054, 104.175 173.850, 104.195 175.500 M 111.195 175.500 C 111.215 177.150, 111.439 177.704, 111.693 176.731 C 111.947 175.758, 111.930 174.408, 111.656 173.731 C 111.382 173.054, 111.175 173.850, 111.195 175.500 M 147 173.383 C 147 173.594, 147.901 174.002, 149.001 174.290 C 150.102 174.578, 150.751 174.405, 150.442 173.907 C 149.904 173.036, 147 172.594, 147 173.383 M 175.762 174.707 C 177.006 174.946, 178.806 174.937, 179.762 174.687 C 180.718 174.437, 179.700 174.241, 177.500 174.252 C 175.300 174.263, 174.518 174.468, 175.762 174.707 M 240.195 177.500 C 240.215 179.150, 240.439 179.704, 240.693 178.731 C 240.947 177.758, 240.930 176.408, 240.656 175.731 C 240.382 175.054, 240.175 175.850, 240.195 177.500 M 207.728 177.722 C 209.503 177.943, 212.653 177.946, 214.728 177.730 C 216.802 177.513, 215.350 177.333, 211.500 177.328 C 207.650 177.324, 205.952 177.501, 207.728 177.722 M 152.232 181 C 152.232 182.925, 152.438 183.713, 152.689 182.750 C 152.941 181.787, 152.941 180.213, 152.689 179.250 C 152.438 178.287, 152.232 179.075, 152.232 181 M 143.158 181 C 143.158 182.375, 143.385 182.938, 143.662 182.250 C 143.940 181.563, 143.940 180.438, 143.662 179.750 C 143.385 179.063, 143.158 179.625, 143.158 181 M 228 184 C 227.099 184.582, 226.975 184.975, 227.691 184.985 C 228.346 184.993, 229.160 184.550, 229.500 184 C 230.267 182.758, 229.921 182.758, 228 184 M 144 185.711 C 144 186.285, 144.787 187.373, 145.750 188.128 C 147.369 189.397, 147.390 189.350, 146.033 187.500 C 145.226 186.400, 144.439 185.313, 144.283 185.083 C 144.127 184.854, 144 185.137, 144 185.711 M 217.768 185.725 C 219.565 185.947, 222.265 185.943, 223.768 185.715 C 225.271 185.486, 223.800 185.304, 220.500 185.310 C 217.200 185.315, 215.971 185.502, 217.768 185.725" stroke="none" fill="#d9edfb" fill-rule="evenodd"/></svg>