<?xml version="1.0" encoding="UTF-8"?>
<!DOCTYPE svg PUBLIC "-//W3C//DTD SVG 1.1//EN" "http://www.w3.org/Graphics/SVG/1.1/DTD/svg11.dtd">
<!-- Creator: CorelDRAW 2020 (64-Bit) -->
<svg xmlns="http://www.w3.org/2000/svg" xml:space="preserve" width="200px" height="200px" version="1.1" style="shape-rendering:geometricPrecision; text-rendering:geometricPrecision; image-rendering:optimizeQuality; fill-rule:evenodd; clip-rule:evenodd"
viewBox="0 0 7254 7254"
 xmlns:xlink="http://www.w3.org/1999/xlink"
 xmlns:xodm="http://www.corel.com/coreldraw/odm/2003">
 <defs>
  <style type="text/css">
   <![CDATA[
    .fil2 {fill:#020202}
    .fil0 {fill:#23F7DD}
    .fil9 {fill:#3C2304}
    .fil6 {fill:#694626}
    .fil3 {fill:#8C5B32}
    .fil5 {fill:#B08B56}
    .fil4 {fill:#CFB48C}
    .fil12 {fill:#DBDBDB}
    .fil10 {fill:#F70101}
    .fil8 {fill:#FFB400}
    .fil7 {fill:#FFFF01}
    .fil11 {fill:white}
    .fil1 {fill:#8C5B32;fill-rule:nonzero}
   ]]>
  </style>
 </defs>
 <g id="Layer_x0020_1">
  <metadata id="CorelCorpID_0Corel-Layer"/>
  <ellipse class="fil0" cx="3627" cy="3627" rx="3584" ry="3585"/>
  <path class="fil1" d="M3627 0c1001,0 1908,406 2564,1062 657,657 1063,1563 1063,2565 0,1001 -406,1908 -1063,2564 -656,657 -1563,1063 -2564,1063 -1002,0 -1908,-406 -2565,-1063 -656,-656 -1062,-1563 -1062,-2564 0,-1002 406,-1908 1062,-2565 657,-656 1563,-1062 2565,-1062zm2504 1122c-641,-641 -1526,-1037 -2504,-1037 -978,0 -1864,396 -2505,1037 -641,641 -1037,1527 -1037,2505 0,978 396,1863 1037,2504 641,641 1527,1038 2505,1038 978,0 1863,-397 2504,-1038 641,-641 1038,-1526 1038,-2504 0,-978 -397,-1864 -1038,-2505z"/>
  <g id="_2482741379216">
   <path class="fil2" d="M5163 6866c-3,-19 -5,-38 -6,-56 -3,-47 2,-87 13,-129 25,-96 129,-214 236,-182 19,5 70,32 72,42 5,0 4,-1 3,3 4,-2 3,-2 2,1 5,2 1,-1 6,4 1,0 1,1 2,2 2,3 1,1 2,4 3,-1 3,-2 2,1 3,-1 3,-1 2,2 3,-1 2,-1 1,2 4,-1 3,-2 2,2 3,-1 3,-2 2,1 3,-1 3,-1 2,2 3,-1 3,-1 1,2 3,-1 3,-1 2,2 3,-1 2,-1 1,2 12,5 39,42 59,70 10,-6 19,-13 29,-19 -41,-61 -97,-127 -168,-153 2,-144 3,-289 -1,-433 0,-24 -11,-203 -9,-208 1,-3 102,-92 114,-104 0,-3 -1,-3 2,-2 -1,-3 -1,-2 2,-1 -1,-4 -1,-3 2,-2 -1,-3 -2,-3 2,-2l32 -31c41,-41 70,-68 107,-116 0,0 1,0 1,-1 28,-34 62,-81 78,-123 2,-6 2,-8 7,-12 25,118 46,235 67,358 5,30 8,61 13,92 5,30 12,63 14,93 7,61 17,124 24,187 6,57 16,140 19,195l3 35c11,-9 23,-19 34,-28 -10,-127 -29,-286 -45,-395 -31,-216 -64,-401 -109,-608 -4,-20 -6,-38 -10,-58 -6,-32 -54,-190 -55,-206 6,-5 52,-35 57,-37 4,3 50,46 73,62 28,19 53,35 84,53 18,11 169,93 179,89l-79 -53c-13,-8 -26,-18 -39,-27 -33,-22 -166,-118 -186,-146 10,-11 98,-73 118,-89l172 -140c13,-9 13,-15 35,-16 50,-2 97,-8 146,-12 31,-3 63,-9 93,-12 -7,-5 -95,-6 -103,-6 -37,-1 -73,-2 -111,-4 2,-4 73,-66 83,-75 54,-52 110,-104 164,-158 26,-27 52,-54 79,-82 52,-55 102,-111 151,-170 56,-70 123,-150 166,-234 37,-74 128,-336 152,-411 5,-15 35,-115 40,-120l136 -104c15,-14 29,-24 44,-37l26 -23 -1 -12c-59,41 -174,120 -190,125 2,-12 8,-30 12,-40 38,-121 82,-286 133,-435 -4,-22 -8,-44 -13,-65 -15,42 -29,83 -40,119 -45,132 -92,298 -135,438 -3,10 -1,7 -8,14 -12,12 -1,17 -7,35 -8,24 -15,46 -22,70 -39,123 -97,282 -147,404 -44,106 -154,229 -228,318 -14,17 -30,34 -44,49 -16,17 -29,32 -44,48 -42,45 -91,94 -135,138 -15,16 -31,30 -47,45 -32,30 -62,58 -95,88 -98,90 -265,229 -378,308 -7,5 -19,15 -28,18 -2,-2 -15,-21 -30,-8 -12,10 -2,20 0,30 -53,35 -88,59 -144,92 -50,30 -99,56 -154,82 -101,47 -240,97 -356,64 -1,0 -18,-5 -19,-7 0,-1 0,-1 -1,-1 -18,-1 -55,-34 -65,-45 -11,-11 -15,-17 -22,-34 -34,-76 -36,-146 -3,-224 33,-75 83,-120 134,-170 5,-5 8,-6 14,-12 10,-10 19,-16 30,-24l64 -47c42,-28 91,-61 136,-85 63,-33 114,-62 181,-93l73 -35c15,-7 65,-31 78,-34 10,-2 9,-5 18,-9 41,-19 92,-39 134,-58 25,-11 52,-21 78,-32l97 -41c7,-3 15,-4 20,-7l19 -10c43,-19 88,-37 132,-58l109 -56c33,-18 71,-43 90,-74 10,-15 10,-26 10,-45 1,-31 8,-67 17,-95 58,-205 266,-523 378,-720 13,-23 27,-45 40,-70l39 -70c73,-130 149,-284 208,-424 -5,-18 -10,-37 -15,-55 -43,106 -91,208 -142,309 -70,140 -182,334 -261,466l-92 153c-3,-9 -8,-19 -11,-29 -3,-9 -7,-20 -9,-30 -22,-81 -21,-135 -25,-216 -6,9 -7,78 -7,88 -2,58 0,122 15,177 13,52 24,35 5,70 -47,82 -90,163 -128,256 -22,56 -45,127 -47,192 -1,23 -2,22 -13,36 -13,16 -35,29 -54,42 -38,25 -84,46 -126,66 -23,10 -43,20 -66,29 -14,6 -58,27 -69,29 -16,-19 -35,-100 -43,-131 -11,-50 -19,-102 -28,-145 -8,11 13,212 15,228 5,24 19,44 22,64 -20,5 -130,54 -152,63 -19,8 -140,62 -150,63 -10,-48 26,-188 42,-244 5,-19 19,-62 21,-76 -2,2 -1,0 -3,3 -16,24 -54,126 -62,149 -13,41 -29,86 -32,131 -2,16 1,41 -1,54 -37,18 -76,34 -114,52 -32,15 -81,42 -111,55 -6,-11 -17,-25 -23,-35 -89,-126 -199,-241 -330,-323 -43,-27 -90,-52 -138,-71 -5,-2 -12,-3 -17,-7 -3,-2 -1,0 -3,-3 39,-29 103,-80 140,-112 15,-13 30,-26 46,-38 31,-25 60,-53 90,-79 59,-51 120,-108 175,-163 28,-28 56,-57 81,-88 50,-62 101,-126 141,-198 112,-203 156,-427 45,-666 -19,-41 -39,-71 -61,-108 -22,-35 -48,-64 -73,-95 -13,-16 -26,-28 -40,-44 -8,-9 -39,-37 -43,-44 42,-14 83,-26 125,-38 33,-10 67,-18 100,-23 11,-2 29,-2 37,-6 -28,-9 -123,4 -153,9 -23,4 -47,9 -70,15 -79,20 -58,24 -86,2 -44,-35 -86,-70 -133,-101 -110,-73 -225,-135 -354,-180 -32,-11 -71,-19 -101,-32 -99,-41 -162,-88 -221,-178 -36,-53 -69,-110 -104,-164 -17,-27 -37,-52 -55,-78l-27 -40c-44,-60 -110,-116 -186,-149 7,-28 100,-145 122,-172 12,-13 24,-25 35,-38 12,-14 25,-24 37,-37 96,-98 200,-141 247,-184 19,-17 62,-48 54,-92 -6,-29 -53,-59 -80,-67 3,-9 6,-8 14,-14l47 -31c22,-13 44,-24 68,-36 43,-22 96,-44 146,-61 208,-73 441,-114 656,-167 -13,-9 -28,-18 -42,-26 -2,1 -5,1 -10,2 -28,6 -55,13 -84,20l-84 18c-27,7 -55,12 -83,18 -55,13 -185,43 -226,57 -6,2 -12,3 -19,5 -41,11 -112,36 -153,51 -26,9 -114,47 -142,63 -23,13 -43,23 -65,37l-58 43c-16,-5 -54,-36 -58,-51 118,-110 316,-272 453,-362 56,-37 103,-69 160,-101 -13,-6 -26,-13 -40,-19 -89,53 -173,112 -258,175l-134 104 -129 110c-21,18 -43,39 -65,57 -11,-14 -20,-77 -98,-37 -110,56 -284,344 -346,459 -29,52 -57,105 -83,160 -8,17 -17,38 -26,54 -86,2 -141,-1 -226,25 -69,20 -123,46 -176,80 -39,26 -74,53 -107,84 -11,11 -22,21 -32,33 -42,46 -49,54 -86,105 -28,38 -51,77 -72,121 -12,25 -12,19 -37,27 -196,66 -499,302 -645,444 -19,19 -17,16 -44,19l-164 30c-16,4 -33,8 -49,13 -22,7 -18,3 -47,-10 -218,-97 -794,-148 -1018,-100 -35,7 -69,18 -91,37 -10,8 -21,22 -21,42 0,22 11,32 19,45 -29,9 -64,16 -93,24 -197,53 -427,122 -608,211 -112,56 -260,134 -355,242 -5,26 -10,52 -15,78l9 -13c26,-39 75,-87 112,-116 51,-40 80,-58 136,-92 134,-80 330,-155 481,-205 59,-19 201,-61 266,-76 14,-3 32,-8 46,-11 10,-3 35,-11 44,-10 10,18 11,47 9,74 -7,6 -30,11 -41,15 -37,14 -44,18 -78,35 -6,3 -12,5 -19,9l-36 20c-44,26 -145,93 -181,126l-31 25c-37,28 -84,71 -122,103 -26,23 -59,57 -86,81 -37,33 -78,73 -116,108l-44 41c-35,33 -97,89 -134,114 -38,26 -80,60 -126,71 -11,2 -8,5 -22,4 5,-11 10,-45 5,-59 -13,-33 -34,-53 -66,-69 -15,-8 -23,-10 -31,-11l-4 34c13,4 26,11 40,21 41,31 27,67 4,106 -16,26 -39,55 -63,84 -2,20 -3,40 -4,60 17,-19 32,-37 47,-57 6,-7 13,-15 19,-23 9,-11 27,-41 36,-48 69,-3 117,-34 160,-64 89,-62 162,-138 242,-209 9,-8 18,-18 28,-27l58 -54c10,-9 20,-19 29,-27 39,-35 78,-74 119,-106 21,-17 39,-35 61,-52 65,-50 124,-96 198,-139 27,-16 126,-70 153,-71 0,22 -5,41 -3,66 5,77 88,59 139,42 76,-27 112,-53 204,-79 118,-32 254,-47 380,-38 25,1 108,8 125,17 -2,3 -31,41 -42,62 -99,181 -25,417 52,587 22,48 46,93 70,139 21,39 18,28 -4,69 -38,69 -70,141 -98,216 -109,291 -105,583 243,681 77,22 24,-8 105,104 30,41 60,79 105,106 113,68 181,-42 216,-133 2,-6 4,-14 8,-18 7,6 16,15 23,21 9,9 15,15 25,23 51,44 104,86 168,116 34,16 30,12 56,38 48,47 98,91 144,140 -1,4 -29,35 -34,42 -23,27 -80,117 -87,149 5,-3 11,-17 15,-23 16,-23 33,-45 52,-65 12,-12 68,-71 81,-75 10,7 18,17 27,26 19,17 37,36 55,54 7,7 20,22 28,27 -4,9 -30,35 -39,45 -32,37 -66,74 -97,113 -7,8 -12,15 -19,23 -39,-6 -255,-104 -289,-120 -139,-67 -274,-137 -411,-205l-137 -68c-47,-23 -93,-44 -141,-65l-144 -61c-1,0 -1,-1 -1,-1 0,0 0,-1 0,-2l-1 -29c-1,-32 -5,-63 -9,-95 -2,-19 -17,-103 -25,-112 -2,13 2,91 2,112 0,38 -1,77 0,115 -9,-1 -28,-8 -37,-11 -13,-4 -25,-8 -37,-11 -26,-8 -52,-14 -78,-19 -54,-10 -120,-15 -172,0 -60,17 -82,45 -115,78 -14,14 -84,88 -95,94 -60,-44 -95,-150 -112,-170 -3,55 29,139 68,177 5,6 14,12 19,19 -6,11 -86,84 -101,99 -11,11 -23,22 -34,32l-51 48c-6,5 -11,11 -17,16 -24,21 -46,42 -70,62 -5,-3 -17,-18 -22,-23 -44,-49 -138,-104 -200,-119 2,4 90,67 102,76 17,15 87,69 93,91 -9,7 -19,16 -28,24 -178,150 -343,273 -550,391l17 31c57,-32 118,-69 155,-94l58 -38c38,-25 79,-57 114,-81l82 -62c46,-38 88,-70 134,-110 9,-8 17,-14 26,-22 4,-3 8,-8 13,-11 7,-6 11,-3 17,-7 5,-4 4,-8 8,-15 2,-5 8,-8 12,-12 9,-8 18,-16 26,-24l38 -33c5,-5 9,-8 13,-12 27,-28 73,-66 100,-94 17,-17 32,-31 49,-47 31,-31 121,-117 146,-146 7,-8 15,-16 23,-24 28,-27 43,-45 86,-59 75,-24 182,0 252,21 17,6 58,17 71,26 8,5 10,2 19,5 7,2 13,5 19,7 107,41 198,85 300,134l451 226c66,33 133,62 200,92l139 56c-3,8 -10,13 -16,21 -3,5 -9,14 -16,21 -20,22 -74,98 -96,127l-122 176c0,4 1,4 -2,3 1,3 2,3 -1,2 -1,4 1,1 -2,5 -2,3 -1,2 -4,3 -2,8 -36,59 -43,73 -46,-14 -239,-127 -277,-151 -22,-13 -43,-27 -65,-40 -21,-14 -44,-28 -64,-42 -90,-62 -161,-111 -249,-176l-121 -92c-20,-15 -40,-31 -59,-46 -39,-32 -138,-112 -174,-147 -3,4 -17,43 -36,72 -90,139 -291,259 -428,337 -136,76 -310,149 -467,189 -78,21 -170,34 -224,105 -2,4 -5,7 -8,11l22 34c14,-26 27,-42 57,-62 58,-37 185,-57 257,-81 42,-13 85,-29 123,-45 14,-6 114,-50 120,-50 -8,30 16,230 26,261 2,-10 3,-120 3,-140 0,-20 2,-128 6,-138 4,-5 2,-3 9,-6 181,-85 471,-263 552,-428 9,4 22,18 30,25 11,8 21,17 31,25 82,66 165,134 249,197 62,46 123,91 187,134l8 7c-7,6 -65,43 -77,50 -25,16 -50,34 -75,51 -26,18 -50,34 -75,52 -18,13 -59,44 -76,52l317 -173c30,-16 19,-9 73,24 30,20 59,40 92,59 38,24 255,152 293,161 -2,9 -36,65 -43,76 -77,129 -174,335 -230,476 -27,71 -53,144 -76,216 -6,16 -13,31 -15,45 -1,12 -9,34 -13,46 -32,110 -56,222 -76,336l-27 200 34 14 21 -160c0,-6 0,-9 4,-13 -6,-25 48,-254 61,-304 8,-31 17,-69 27,-97l61 38c136,80 257,126 408,176 120,39 268,72 394,94 56,9 113,17 170,25 57,8 119,11 178,18 58,7 125,8 185,11 137,5 247,2 384,0 61,-1 124,-8 186,-10 59,-2 120,-11 179,-16 28,-1 58,-5 87,-8 29,-4 59,-7 88,-11 57,-7 116,-16 172,-23 24,-3 161,-28 170,-26 5,-3 11,-3 17,-4 5,-1 12,-2 18,-3 11,-3 25,-6 35,-6 0,6 -8,28 -11,36 -19,67 -16,138 -4,206l32 -15zm-2343 -1364c2,-8 130,-201 145,-216l50 39c16,13 36,27 54,38 36,23 75,46 115,66 42,21 82,39 127,57 146,59 359,106 520,119 12,0 29,2 40,4 15,1 30,1 45,2 26,3 60,4 86,4l181 -1c28,0 58,-3 86,-5 121,-6 367,-38 483,-64 25,-6 50,-10 75,-16 76,-19 143,-33 220,-54 48,-13 95,-25 142,-40 24,-7 47,-14 70,-21l70 -22c4,8 20,114 19,125 4,6 3,16 4,25 9,66 14,133 22,196 5,42 9,129 12,174 4,57 7,121 7,179 1,41 3,83 3,122 0,83 -4,164 -4,246 -16,2 -33,-1 -52,2 -16,3 -29,8 -43,14 -51,23 -89,59 -119,105 -14,21 -4,17 -33,23 -73,15 -166,28 -241,40 -67,11 -132,17 -199,26 -30,5 -67,9 -99,12 -65,4 -136,15 -205,18 -35,2 -72,4 -107,7 -61,5 -156,7 -218,7 -149,0 -283,2 -433,-12 -210,-19 -377,-39 -583,-90 -118,-30 -236,-65 -341,-109 -54,-23 -103,-44 -154,-71 -25,-13 -126,-68 -140,-84 8,-36 67,-195 80,-229 69,-180 193,-425 298,-591 5,-7 12,-21 17,-25zm2637 -255c1,-3 -3,-3 3,-3 1,0 1,-1 3,-2 5,-2 1,-1 6,-1 -1,-3 -1,-3 2,-1l55 -28c26,-12 107,-57 132,-74 6,-4 20,-13 24,-15 9,12 59,182 61,203 10,75 -38,152 -69,194 -54,73 -124,142 -192,202l-69 60 -8 -87c-4,-5 -5,-39 -5,-45 -12,-114 -27,-228 -48,-341 -6,-30 -10,-16 51,-41l54 -21zm-2148 -307c3,-1 2,-1 1,2 4,-1 3,-2 2,2 4,-1 3,-2 2,2 3,-1 3,-2 2,1 3,-1 2,-1 1,2 4,-1 3,-2 2,2 3,-1 3,-2 2,2 3,-1 3,-2 1,1 4,-1 3,-1 2,2 4,-1 3,-2 2,2 4,-1 3,-2 2,2 4,-2 3,-2 2,2 3,-2 2,-2 1,1 4,-1 3,-2 2,2 4,-1 3,-2 2,2 3,-1 3,-2 2,1 3,-1 3,-1 1,2 4,-1 3,-2 2,2 4,-1 3,-2 2,2 3,-1 3,-2 2,1 3,-1 3,-1 1,2 4,-1 3,-1 2,2 3,-1 3,-2 2,2 3,-1 3,-2 2,2 3,-1 2,-2 2,1 5,2 45,41 47,46 3,-1 2,-1 1,2 4,-1 3,-2 2,2 4,-1 3,-2 2,1 3,0 2,-1 2,2 3,-1 2,-2 1,2 4,-1 3,-2 2,2 3,-1 3,-2 2,1 3,-1 3,-1 2,2 3,-1 3,-1 1,2 4,-1 3,-2 2,1 3,0 3,-1 2,2 3,-1 4,-2 2,1 3,0 2,-1 2,3l84 63c94,66 201,106 322,120 83,-1 135,0 216,-28 162,-55 316,-200 340,-389 19,-145 30,-243 127,-360 38,-46 53,-56 88,-92 16,-16 81,-68 99,-83 12,-10 23,-18 35,-27 6,-5 30,-24 35,-27 27,13 99,79 120,99 93,94 161,202 221,322 10,19 29,57 35,76l-40 34c-15,12 -27,23 -40,36 -77,77 -152,188 -132,315 7,39 22,83 39,111 9,14 25,29 36,39 65,56 157,64 242,50 14,-3 54,-13 63,-13l11 58 -137 42c-45,14 -94,28 -140,40 -318,82 -604,137 -945,142 -220,3 -446,-24 -638,-80 -125,-37 -269,-95 -376,-167 -21,-15 -93,-65 -101,-79 10,-15 22,-30 33,-45 53,-69 121,-156 179,-220 6,-7 10,-14 17,-21l52 -58c1,-2 1,-2 3,-3 2,-2 0,-1 3,-2 6,3 20,18 27,24 1,2 3,4 4,5 5,6 2,0 4,5zm-866 -563c7,-2 99,1 117,0l83 -6c14,-3 14,-3 23,4 0,13 -8,26 -12,38 -24,62 -72,166 -160,115 -29,-16 -59,-47 -78,-71 -12,-16 -54,-73 -60,-90l66 7c6,1 16,0 21,3zm338 55c-4,1 -4,1 -2,-2 -5,-1 -3,0 -5,-4 -3,0 -3,1 -2,-2 -5,-1 -3,1 -5,-3 -3,0 -2,1 -2,-2 -3,0 -2,1 -2,-2 -3,1 -2,1 -2,-1 -3,0 -2,1 -1,-2 -4,1 -3,1 -2,-2 -3,1 -3,1 -2,-1 -4,1 -3,1 -2,-2 -4,1 -3,2 -2,-2 -3,1 -3,2 -2,-2 -3,2 -3,3 -2,-1 -3,1 -3,2 -1,-1 -4,0 -3,1 -3,-3 -6,-2 -19,-15 -23,-19 -7,-7 -16,-17 -23,-22 4,-3 0,0 4,-2 1,-1 2,-1 3,-1 1,-1 4,-1 7,-2l41 -6c19,-3 38,-6 56,-9 76,-14 137,-28 212,-48 16,-4 92,-28 99,-28l1 0c6,5 4,37 4,45 0,16 -1,30 -2,45 -1,31 -4,56 -10,85 -39,193 -182,106 -281,37 -9,-6 -18,-14 -27,-21 -5,-4 -22,-16 -24,-22zm1037 167c1,-1 1,-4 1,-5 12,-52 18,-84 38,-139 20,-55 34,-75 73,-116 53,-56 99,-85 174,-110 11,-4 24,-9 36,-12 28,-6 30,-9 30,5 0,31 -2,66 -4,96 -3,41 -3,77 -6,121 -1,7 -3,13 -4,20 -1,14 -2,33 -4,46 -11,68 -13,104 -31,171 -24,93 -72,196 -150,251 -72,51 -159,55 -243,31 -55,-15 -95,-30 -146,-56 -56,-28 -77,-42 -128,-72 -2,-28 25,-116 41,-148l11 -21c0,-1 0,-1 0,-2 1,0 1,-1 1,-1l13 -23c39,-69 104,-121 178,-156 1,0 2,-1 2,-1 0,0 4,-2 4,-2 19,-10 40,-16 60,-22 7,-2 11,-4 18,-5 12,-2 28,-7 40,-8 0,13 -7,25 -9,36 -3,15 -8,70 -5,86 3,13 3,28 6,41l4 -5zm1043 -439c3,-4 -1,0 4,-4l31 -23c15,-9 119,45 133,52 53,27 107,67 150,103l42 37c63,58 117,125 169,194 5,7 22,31 25,38l-41 23c-16,9 -28,16 -43,24 -14,8 -27,16 -41,24 -9,6 -36,25 -41,26l-11 7c1,3 1,2 -3,1 0,2 4,2 -3,2 1,3 1,2 -2,1 -1,3 3,2 -3,3 1,3 1,2 -2,1 1,3 1,2 -3,2l-47 33c-4,-5 -14,-28 -18,-37 -5,-12 -12,-24 -17,-36 -40,-86 -110,-195 -170,-266 -29,-33 -94,-102 -130,-128 -3,-2 -6,-3 -8,-6 -10,-8 -21,-16 -31,-23 3,-8 22,-19 30,-25 11,-8 20,-14 30,-23zm-1614 156c-3,1 -3,2 -2,-2 -5,-1 -3,1 -5,-4 -3,1 -3,2 -1,-1 -4,1 -4,2 -3,-2 -4,0 -2,1 -2,-2 -3,0 -3,1 -2,-2 -4,1 -3,2 -2,-1 -4,1 -3,1 -2,-2 -4,1 -3,2 -2,-2 -4,2 -4,2 -2,-1 -4,1 -3,2 -3,-2l-8 -5c-10,-10 -40,-35 -44,-44 5,-4 46,-17 55,-21 49,-18 108,-43 155,-65 35,-17 66,-32 99,-49l95 -52 -1 80c-1,48 -9,108 -21,152 -33,118 -98,142 -202,94 -9,-4 -96,-54 -102,-69zm621 -207c0,3 4,2 -4,3 -79,22 -196,-53 -238,-85l68 -45c23,-16 44,-32 66,-47 22,-16 44,-33 64,-49 5,-4 57,-48 62,-49 0,-4 -1,-4 3,-2 2,-6 9,-10 17,-17l53 -45c6,86 11,209 -31,286 -11,20 -38,50 -60,50zm-185 -5c9,6 17,8 26,13 8,4 20,9 27,14 8,6 17,6 28,11 18,7 50,10 74,10 82,0 128,-67 145,-138 5,-23 10,-56 13,-80 2,-19 1,-115 -2,-140 -1,-16 -8,-32 11,-22 37,19 96,40 148,40 20,0 23,-4 23,10 0,64 -3,118 -4,181l-3 174c-3,2 -34,6 -45,9 -6,1 -3,1 -8,3 -16,6 -37,6 -81,27 -30,15 -53,29 -79,50 -28,22 -36,32 -58,55 -17,17 -13,10 -28,31 -6,8 -12,17 -18,25 -4,4 -6,8 -10,13 -14,17 -11,12 -26,15 -6,2 -10,3 -17,4 -35,8 -53,13 -86,23 -12,4 -44,21 -52,24 -10,3 -10,5 -20,11 -5,3 -9,4 -13,8 -26,19 -36,25 -61,46 -15,13 -13,9 -21,23 -4,5 -14,17 -20,23 -15,18 -35,50 -47,72l-4 6c-14,24 -30,65 -37,91 -2,9 -16,68 -17,69 -3,3 0,3 -5,0l-37 -26c-15,-11 -28,-20 -42,-30 -26,-21 -54,-42 -81,-64l-77 -65c-90,-83 -84,-58 -62,-94 41,-66 40,-163 42,-237 7,0 12,8 16,12l43 37c64,53 190,143 281,89 2,-1 3,-1 4,-2l28 -19c26,-25 33,-52 45,-79 25,-52 31,-163 31,-217 0,-15 -2,-38 1,-51 6,1 9,4 14,7l61 38zm436 -330c-27,2 -95,-32 -118,-41 3,-6 1,-3 5,-8l38 -36c14,-14 27,-27 41,-42l79 -87c1,-3 0,-3 3,-2 0,-3 -1,-2 2,-2 -1,-3 -2,-3 1,-2 -1,-3 -2,-3 2,-2 0,-4 -1,-2 2,-3 0,-2 -1,-2 2,-1 -1,-3 -2,-3 1,-2 0,-3 -1,-3 2,-2 -1,-3 -2,-3 2,-2 1,-5 -1,-3 4,-5 -1,-2 -2,-2 1,-2 0,-3 -1,-3 2,-2 -1,-3 -2,-2 2,-1 -1,-4 -2,-3 1,-2 2,-8 18,-24 23,-31 11,2 10,5 13,16 15,66 43,203 -17,248 -24,18 -77,21 -91,11zm280 -290c1,4 1,3 -2,2 1,4 1,2 -3,2 -25,22 -138,-6 -155,-19l92 -126c1,-3 0,-3 3,-2 -1,-4 -2,-3 1,-2 0,-3 -1,-3 2,-2 1,-7 0,-6 5,-9 -1,-3 -1,-3 2,-2 1,-5 -1,-3 3,-5 1,-4 0,-1 2,-5l6 -10c6,-8 21,-34 26,-36 20,37 48,125 43,171 -1,17 -11,42 -25,43zm-2200 -1011c-37,18 -80,45 -110,72 -5,4 -9,6 -13,10 -7,5 -6,6 -16,3 -109,-26 -260,-26 -375,-12 -54,7 -137,24 -186,41l-33 12c-34,11 -64,25 -97,39 -25,10 -120,55 -137,22 -15,-30 22,-135 -6,-203 -19,-45 -83,-69 3,-99 21,-8 49,-14 73,-17 57,-7 109,-11 170,-11 31,0 61,0 92,0 28,1 59,1 87,4 54,4 110,10 165,14 54,5 106,14 160,22 49,7 105,18 150,30 17,4 125,32 136,44l-63 29zm1147 -637c0,-5 -1,-5 3,-3 -2,-4 -3,-4 1,-3 -1,-3 -2,-3 1,-2 -1,-3 -2,-3 2,-2 2,-15 80,-103 92,-116 35,-36 68,-67 111,-99 187,-141 429,-180 643,-75 48,23 89,53 123,86 33,31 45,51 68,87 7,11 15,20 22,29 127,176 175,352 416,420 108,31 202,76 292,125 95,51 154,96 233,158 6,5 8,6 14,12l-27 11c-12,4 -44,13 -51,21 -6,8 -3,20 3,25 12,9 43,-7 54,-11 14,-5 39,-16 54,-18 5,7 21,20 28,27 46,46 92,98 129,152 81,118 140,267 124,433 -23,257 -188,454 -312,585 -55,59 -173,163 -233,216 -10,9 -20,17 -30,25 -61,53 -158,130 -217,175 -101,76 -299,223 -370,304 -18,20 -34,39 -51,61 -12,15 -41,63 -44,66 0,-21 16,-125 20,-157 3,-24 21,-141 19,-154 1,7 -3,11 -3,11 -1,0 -1,1 -1,1l0 2c-5,28 -15,61 -22,90 -7,29 -14,59 -21,90 -12,58 -27,124 -35,184 -2,16 -4,31 -7,49 -7,45 -17,102 -20,146 -14,225 -235,412 -471,415 -62,0 -123,-9 -182,-28l-9 -4c0,0 -1,0 -1,-1 -27,0 -131,-60 -158,-78 -49,-31 -93,-71 -129,-107l-179 -178c-8,-8 -55,-51 -58,-60 10,-7 37,-23 20,-40 -15,-16 -37,10 -48,14l-66 -65c-11,-11 -22,-21 -33,-32 -7,-6 -30,-27 -32,-32 15,-2 23,-2 37,-5 13,-4 19,-8 29,-13 6,3 29,25 36,32 32,30 74,64 108,93 104,86 198,153 314,219 119,67 293,127 420,63 185,-94 226,-351 244,-555 0,-50 7,-101 8,-152 1,-103 3,-209 3,-313 0,-51 0,-105 3,-156 9,-7 19,-11 28,-19 50,-45 46,-126 40,-188 -3,-26 -13,-57 -14,-80 31,3 61,19 112,13 83,-10 92,-85 78,-153 -6,-30 -17,-65 -28,-92 -27,-64 -28,-45 -5,-82 15,-26 29,-51 44,-77 14,-27 28,-53 41,-80l39 -81 25 20c1,1 1,1 1,1l13 14c9,9 13,13 20,23 9,5 32,46 38,58 16,35 13,35 23,60l5 8c0,-13 -1,-21 -3,-32 -1,-7 -4,-22 -4,-29 -1,-1 -1,0 -2,-3l-3 -8c-5,-23 -18,-50 -30,-69 -16,-26 -31,-43 -51,-61 -5,-5 -11,-9 -16,-14 -5,-5 -1,-2 -8,-6 -50,-30 -74,-45 -142,-42 -17,0 -49,6 -64,12 2,1 42,4 49,5 15,3 29,6 43,10 46,15 48,21 75,32 -4,18 -63,135 -72,150 -14,24 -25,48 -39,71l-64 103 -139 191c-4,5 -8,11 -12,16l-69 82c-3,3 -4,5 -7,8l-39 43c-105,114 -254,246 -384,334 -12,8 -21,14 -32,22l-68 43c-23,14 -45,27 -69,41 -41,24 -71,37 -109,58 -12,6 -24,12 -37,18 -13,5 -26,12 -38,17l-117 48c-26,10 -54,20 -80,29 -58,20 -111,35 -171,51 -42,11 -139,32 -183,39 -47,7 -147,23 -195,26 -71,3 -132,13 -204,1 -17,-2 -32,-4 -49,-7 -14,-3 -30,-6 -45,-10 -81,-19 -164,-57 -217,-115 -87,-97 -98,-217 -74,-348 24,-135 87,-281 152,-400 7,-12 13,-26 20,-37 5,-8 4,-8 -1,-17l-47 -89c-41,-81 -71,-144 -100,-231 -85,-260 -44,-474 213,-588 90,-40 164,-55 260,-72 48,-8 262,38 291,38 -7,-7 -34,-17 -43,-22 -24,-10 -69,-25 -94,-32 -9,-2 -16,-4 -25,-6 -6,-1 -20,-2 -24,-5 3,-8 59,-57 70,-67 13,-11 23,-21 36,-32l37 -30c22,-20 51,-42 75,-61 25,-20 51,-38 78,-58 64,-47 135,-92 207,-133 14,-9 28,-16 43,-24 16,-8 31,-15 47,-22l46 -18c0,3 -16,61 -19,72 -6,25 -10,51 -15,76 -4,22 -20,146 -16,159 6,-14 11,-41 15,-58 19,-73 57,-213 84,-276 5,-13 48,-83 55,-86zm658 -390c1,-13 64,-133 78,-159l27 -50c21,-42 62,-106 88,-149l23 -35c3,-5 5,-7 8,-12 43,-66 85,-123 135,-178 17,-19 57,-60 87,-70 28,-9 32,18 37,38 11,40 38,64 71,85 15,10 35,21 51,29 50,25 79,42 43,78 -26,25 -57,47 -89,67 -65,40 -80,52 -137,98 -52,41 -131,127 -171,182 -6,9 -10,12 -17,23 -5,8 -10,14 -16,23l-46 71 -83 -25c-6,-1 -16,-4 -21,-5 -21,-2 -6,0 -21,-4 -12,-4 -34,-6 -47,-7z"/>
   <path class="fil3" d="M2325 3454c-8,-1 -6,0 -8,-5 -6,0 -3,0 -4,-1 -5,-2 -1,0 -3,-2l-8 -4c-4,-1 2,1 -4,-1 -3,-1 -3,-3 -3,-3 -4,2 -3,2 -3,-2 -12,-9 -25,-16 -38,-25l-36 -29c-69,-67 -115,-150 -132,-254 -22,-137 9,-300 97,-403 92,-107 195,-135 388,-111 125,16 268,78 363,151l3 1 3 2c3,0 3,-1 2,1 6,0 3,0 3,3 3,-1 3,-2 2,1 12,0 63,38 73,45 24,18 43,35 62,55 35,37 71,91 65,168 -8,107 -72,222 -142,298 -11,13 -9,8 -8,16 0,0 8,1 -1,-1 0,0 -1,-1 -1,-1 -5,0 -3,1 -5,3 -2,2 -6,6 -8,8 -16,16 -27,28 -46,44 -21,18 -44,36 -69,52 -111,74 -247,105 -382,74 -46,-11 -89,-30 -127,-54 -6,-4 -11,-8 -17,-12 -4,-3 -7,-5 -9,-7l-7 -7zm2112 -976c-1,17 -14,85 -19,101 -23,80 -53,132 -103,194 -9,11 -19,20 -28,30 -45,49 -113,96 -173,123 -14,6 -28,11 -42,17 -29,12 -58,21 -88,30 -67,19 -126,29 -200,38 -62,8 -160,9 -222,-3 -35,-6 -63,-12 -96,-23 -39,-13 -84,-38 -113,-65 -9,-10 -19,-18 -28,-30 -20,-24 -8,-9 -23,-23 -5,-5 -28,-26 -31,-33 -3,-5 0,1 -2,-6l-18 -32c-15,-34 -24,-88 -25,-125 -11,-243 103,-578 249,-760 60,-74 125,-130 228,-175 248,-109 456,-1 580,139 56,63 115,157 147,256 68,205 5,329 7,347zm-1084 -652c1,4 2,4 -2,2 1,4 2,3 -1,2 1,4 3,4 -1,3 1,4 2,3 -3,3 -7,3 -50,73 -55,86 -27,63 -65,203 -84,276 -4,17 -9,44 -15,58 -4,-13 12,-137 16,-159 5,-25 9,-51 15,-76 3,-11 19,-69 19,-72l-46 18c-16,7 -31,14 -47,22 -15,8 -29,15 -43,24 -72,41 -143,86 -207,133 -27,20 -53,38 -78,58 -24,19 -53,41 -75,61l-37 30c-13,11 -23,21 -36,32 -11,10 -67,59 -70,67 4,3 18,4 24,5 9,2 16,4 25,6 25,7 70,22 94,32 9,5 36,15 43,22 -29,0 -243,-46 -291,-38 -96,17 -170,32 -260,72 -257,114 -298,328 -213,588 29,87 59,150 100,231l47 89c5,9 6,9 1,17 -7,11 -13,25 -20,37 -65,119 -128,265 -152,400 -24,131 -13,251 74,348 53,58 136,96 217,115 15,4 31,7 45,10 17,3 32,5 49,7 72,12 133,2 204,-1 48,-3 148,-19 195,-26 44,-7 141,-28 183,-39 60,-16 113,-31 171,-51 26,-9 54,-19 80,-29l117 -48c12,-5 25,-12 38,-17 13,-6 25,-12 37,-18 38,-21 68,-34 109,-58 24,-14 46,-27 69,-41l68 -43c11,-8 20,-14 32,-22 130,-88 279,-220 384,-334l39 -43c3,-3 4,-5 7,-8l69 -82c4,-5 8,-11 12,-16l139 -191 64 -103c14,-23 25,-47 39,-71 9,-15 68,-132 72,-150 -27,-11 -29,-17 -75,-32 -14,-4 -28,-7 -43,-10 -7,-1 -47,-4 -49,-5 15,-6 47,-12 64,-12 3,-2 1,-1 5,-3l11 -1c6,0 11,1 16,1 10,1 15,-2 25,-3 18,-4 37,-6 56,-7 105,-3 149,64 141,163 -1,9 -2,17 -3,27 -4,25 1,14 1,26 0,7 3,22 4,29 2,11 3,19 3,32l-5 -8c-10,-25 -7,-25 -23,-60 -6,-12 -29,-53 -38,-58l-7 -5c-4,-5 4,5 -1,-2 -7,-10 -7,-7 -16,-17l-5 -5c0,0 -1,-1 -1,-1 -13,-13 6,1 -17,-16l-8 -6c2,8 12,24 18,44 18,57 19,96 19,158 1,200 -89,482 -153,668 -21,59 -43,115 -64,172 -5,15 -11,27 -16,42 -5,12 -11,29 -17,41 -11,26 -23,56 -34,84l-103 241c-1,1 -1,1 -1,2 0,0 -1,1 -1,1 0,0 -1,1 -1,1 -18,204 -59,461 -244,555 -127,64 -301,4 -420,-63 -116,-66 -210,-133 -314,-219 -34,-29 -76,-63 -108,-93 -7,-7 -30,-29 -36,-32 -10,5 -16,9 -29,13 -14,3 -22,3 -37,5 2,5 25,26 32,32 11,11 22,21 33,32l66 65c11,-4 33,-30 48,-14 17,17 -10,33 -20,40 3,9 50,52 58,60l179 178c36,36 80,76 129,107 27,18 131,78 158,78l21 7c44,14 127,4 168,-7 61,-17 97,-37 148,-69 39,-23 83,-67 114,-101l25 -30c21,-28 50,-66 65,-98 7,-12 13,-22 18,-34 7,-13 12,-25 17,-38 6,-13 11,-28 15,-39 12,-33 15,-54 23,-87 2,-10 7,-36 7,-48 3,-94 26,-181 62,-263 12,-27 61,-110 84,-133 0,-1 1,-1 1,-1l0 -2c1,-8 2,-14 7,-18l0 6c1,2 0,0 1,6 1,-5 2,-5 5,-9 4,-3 4,-4 7,-7l69 -75c10,-10 19,-18 29,-27l91 -82c11,-9 20,-17 30,-26l217 -183c46,-39 109,-93 152,-134 56,-52 123,-111 177,-165 39,-39 79,-72 115,-113 16,-20 32,-43 46,-68 137,-250 13,-556 -159,-753 -53,-61 -111,-114 -181,-161 -123,-82 -166,-65 -274,-126 -14,-7 -29,-20 -37,-18 1,0 1,4 1,-2 0,-5 2,2 -1,-2l-37 -27c-14,-10 -27,-21 -39,-32 -31,-30 -54,-52 -82,-83 -4,-4 -5,-6 -8,-10 -32,-35 -140,-178 -173,-227 -24,-35 -39,-51 -60,-86 -46,-75 -72,-102 -133,-157 -48,-44 -124,-84 -188,-102 -82,-22 -176,-19 -259,4 -114,32 -234,106 -323,185 -4,4 -7,6 -11,9 -4,3 -4,5 -9,8 -16,16 -15,9 -14,18 1,-1 7,-1 -1,-1 0,0 0,0 0,0 -1,0 -1,0 -1,0 -2,1 -4,3 -5,4 -4,4 -4,4 -8,8 -9,6 -43,44 -50,46z"/>
   <path class="fil4" d="M2326 6785l19 185 2 6c397,152 829,235 1280,235 529,0 1032,-115 1484,-321l-7 -17c-21,-63 -17,-63 -29,-124 -5,-28 -2,-70 4,-95l-3 -2c-9,-2 -146,23 -170,26 -56,7 -115,16 -172,23 -29,4 -59,7 -88,11 -29,3 -59,7 -87,8 -59,5 -120,14 -179,16 -62,2 -125,9 -186,10 -137,2 -247,5 -384,0 -60,-3 -127,-4 -185,-11 -59,-7 -121,-10 -178,-18 -57,-8 -114,-16 -170,-25 -126,-22 -274,-55 -394,-94 -151,-50 -272,-96 -408,-176l-61 -38c-10,28 -19,66 -27,97 -13,50 -67,279 -61,304z"/>
   <path class="fil4" d="M2820 5502l-30 107c-11,67 -9,60 -9,127 0,14 5,43 8,59l15 54c17,57 39,92 70,136 10,14 19,27 30,39l52 51c21,20 33,30 56,48 37,27 37,28 82,54 16,9 28,17 45,26 12,6 25,15 45,23 28,12 43,22 70,32l75 28c46,17 64,20 103,34 20,6 139,34 168,39 9,1 19,3 29,5l151 22c52,7 204,14 261,14 91,0 176,-4 259,-13 21,-3 42,-4 62,-8 20,-3 41,-5 60,-8l89 -15c20,-3 49,-11 68,-17l69 -18c25,-7 106,-31 130,-41 42,-18 77,-31 120,-53 115,-57 211,-119 297,-218 41,-47 68,-86 97,-145 16,-31 20,-43 29,-74 15,-46 25,-91 29,-142l2 -65c-1,-8 -5,-62 -4,-66 1,-11 -15,-117 -19,-125l-70 22c-23,7 -46,14 -70,21 -47,15 -94,27 -142,40 -77,21 -144,35 -220,54 -25,6 -50,10 -75,16 -116,26 -362,58 -483,64 -28,2 -58,5 -86,5l-181 1c-26,0 -60,-1 -86,-4 -15,-1 -30,-1 -45,-2 -11,-2 -28,-4 -40,-4 -161,-13 -374,-60 -520,-119 -45,-18 -85,-36 -127,-57 -40,-20 -79,-43 -115,-66 -18,-11 -38,-25 -54,-38l-50 -39c-15,15 -143,208 -145,216z"/>
   <path class="fil5" d="M5348 5517c-1,4 3,58 4,66l-2 65c-4,51 -14,96 -29,142 -9,31 -13,43 -29,74 -29,59 -56,98 -97,145 -86,99 -182,161 -297,218 -43,22 -78,35 -120,53 -24,10 -105,34 -130,41l-69 18c-19,6 -48,14 -68,17l-89 15c-19,3 -40,5 -60,8 -20,4 -41,5 -62,8 -83,9 -168,13 -259,13 -57,0 -209,-7 -261,-14l-151 -22c-10,-2 -20,-4 -29,-5 -29,-5 -148,-33 -168,-39 -39,-14 -57,-17 -103,-34l-75 -28c-27,-10 -42,-20 -70,-32 -20,-8 -33,-17 -45,-23 -17,-9 -29,-17 -45,-26 -45,-26 -45,-27 -82,-54 -23,-18 -35,-28 -56,-48l-52 -51c-11,-12 -20,-25 -30,-39 -31,-44 -53,-79 -70,-136l-15 -54c-3,-16 -8,-45 -8,-59 0,-67 -2,-60 9,-127l30 -107c-5,4 -12,18 -17,25 -105,166 -229,411 -298,591 -13,34 -72,193 -80,229 14,16 115,71 140,84 51,27 100,48 154,71 105,44 223,79 341,109 206,51 373,71 583,90 150,14 284,12 433,12 62,0 157,-2 218,-7 35,-3 72,-5 107,-7 69,-3 140,-14 205,-18 32,-3 69,-7 99,-12 67,-9 132,-15 199,-26 75,-12 168,-25 241,-40 29,-6 19,-2 33,-23 30,-46 68,-82 119,-105 14,-6 27,-11 43,-14 19,-3 36,0 52,-2 0,-82 4,-163 4,-246 0,-39 -2,-81 -3,-122 0,-58 -3,-122 -7,-179 -3,-45 -7,-132 -12,-174 -8,-63 -13,-130 -22,-196 -1,-9 0,-19 -4,-25z"/>
   <path class="fil3" d="M5079 5264c20,5 23,6 44,4 96,-7 194,-48 277,-89 105,-51 232,-129 327,-196 87,-61 156,-113 239,-178l169 -143c20,-18 36,-32 55,-51 5,-4 9,-8 14,-12 6,-5 9,-8 14,-13l131 -130c104,-103 252,-283 312,-420 10,-23 20,-52 24,-80 4,-21 33,-86 44,-114l58 -150c4,-12 9,-25 14,-37 38,-97 75,-211 110,-309 10,-28 20,-51 28,-78 2,-8 4,-13 7,-20 2,-7 4,-12 7,-19 20,-59 45,-135 68,-191 19,-49 35,-97 57,-151 13,-31 25,-60 37,-86 -8,-37 -17,-73 -27,-109 -59,140 -135,294 -208,424l-39 70c-13,25 -27,47 -40,70 -112,197 -320,515 -378,720 -9,28 -16,64 -17,95 0,19 0,30 -10,45 -19,31 -57,56 -90,74l-109 56c-44,21 -89,39 -132,58l-19 10c-5,3 -13,4 -20,7l-97 41c-26,11 -53,21 -78,32 -42,19 -93,39 -134,58 -9,4 -8,7 -18,9 -13,3 -63,27 -78,34l-73 35c-67,31 -118,60 -181,93 -45,24 -94,57 -136,85l-64 47c-11,8 -20,14 -30,24 -6,6 -9,7 -14,12 -51,50 -101,95 -134,170 -33,78 -31,148 3,224 7,17 11,23 22,34 10,11 47,44 65,45z"/>
   <path class="fil3" d="M5557 6648c-4,-8 -8,-15 -12,-22 -5,-9 -12,-19 -17,-29 -2,-3 -6,-11 -9,-14 -3,-3 -4,-2 -6,-5 -1,-1 -3,-5 -5,-7 -3,0 -2,1 -1,-2 -3,1 -3,1 -2,-2 -3,1 -3,2 -1,-2 -4,1 -3,2 -2,-2 -4,2 -3,2 -2,-1 -3,1 -3,1 -2,-2 -3,1 -3,2 -1,-2 -4,1 -3,2 -2,-2 -4,2 -3,2 -2,-1 -2,-2 -3,-3 -5,-4 -1,-1 -2,-2 -2,-3 -1,0 -1,0 -1,-1 -1,0 -1,0 -1,-1 0,0 -1,0 -1,-1 -3,1 -3,2 -2,-1 -4,1 -3,2 -3,-3 -2,-10 -53,-37 -72,-42 -107,-32 -211,86 -236,182 -11,42 -16,82 -13,129 1,18 3,37 6,56 136,-65 268,-138 394,-218z"/>
   <path class="fil3" d="M559 5481c16,-17 36,-34 65,-51 76,-41 136,-44 211,-66 13,-4 30,-7 44,-11 14,-5 28,-9 42,-13 40,-11 84,-27 123,-41 25,-9 53,-20 79,-31 28,-12 52,-21 77,-33 83,-38 211,-104 284,-158 97,-71 153,-114 226,-212 5,-6 7,-11 11,-17 6,-7 27,-48 30,-51l182 137c108,77 211,145 322,216 45,28 89,54 135,81 52,32 180,105 238,133 13,6 24,12 36,18 18,8 56,28 72,35 9,3 66,33 74,30 2,-2 1,-2 3,-4l3 -4c-2,-4 -3,-3 1,-2 -1,-4 -1,-3 2,-3l122 -176c22,-29 76,-105 96,-127 7,-7 13,-16 16,-21 6,-8 13,-13 16,-21l-139 -56c-67,-30 -134,-59 -200,-92l-451 -226c-102,-49 -193,-93 -300,-134 -6,-2 -12,-5 -19,-7 -9,-3 -11,0 -19,-5 -13,-9 -54,-20 -71,-26 -70,-21 -177,-45 -252,-21 -43,14 -58,32 -86,59 -8,8 -16,16 -23,24 -25,29 -115,115 -146,146 -17,16 -32,30 -49,47 -27,28 -73,66 -100,94 -4,4 -8,7 -13,12l-38 33c-8,8 -17,16 -26,24 -4,4 -10,7 -12,12 -4,7 -3,11 -8,15 -6,4 -10,1 -17,7 -5,3 -9,8 -13,11 -9,8 -17,14 -26,22 -46,40 -88,72 -134,110l-82 62c-35,24 -76,56 -114,81l-58 38c-37,25 -98,62 -155,94 13,23 27,45 41,68z"/>
   <path class="fil5" d="M2347 6976l-2 -6 -19 -185c-4,4 -4,7 -4,13l-21 160c15,6 31,12 46,18z"/>
   <path class="fil5" d="M3829 5236c16,13 132,31 152,34 20,2 37,3 58,5 43,4 126,0 172,-11 81,-19 141,-44 209,-98 91,-74 155,-187 190,-301 19,-59 37,-131 55,-191 26,-88 57,-198 80,-289l21 -103 60 102c7,12 12,24 18,36 30,59 42,97 63,158 16,49 30,135 30,188 1,74 -7,133 -28,191 -50,141 -153,253 -271,328l-70 41c-23,11 -49,27 -73,35l-40 16c-26,10 -54,19 -81,29l-43 11c-53,13 -76,20 -134,28 -100,15 -209,20 -310,9 -38,-4 -101,-14 -139,-24 -35,-8 -51,-12 -85,-25 -4,-1 -6,-1 -10,-3l-6 -2c-1,0 -1,0 -2,0 0,0 0,-1 -1,-1l-111 -54 -63 -45c-35,-31 -52,-47 -80,-84 -16,-20 -20,-26 -33,-50 -21,-40 -34,-76 -43,-122 -9,-45 -5,-67 -8,-103l3 -1c-2,4 -2,3 1,2 -1,4 -1,3 2,2 -1,3 -2,3 2,2 -1,3 -2,2 2,1 -2,4 -2,3 1,2 -1,4 -1,3 2,2 -1,3 -2,3 2,2 -1,3 -2,3 1,1 0,4 -1,3 2,2 -1,4 -1,3 2,2 -1,3 -2,3 2,2 -1,3 -2,3 2,2 -2,3 -2,2 1,1 -1,4 -1,3 2,2 -1,3 -2,3 2,2 -1,3 -2,3 2,1 -2,4 -2,3 1,2 -1,4 -1,3 2,2 -1,3 -2,3 2,2 -1,3 -2,3 2,1 -2,4 -2,3 1,2 -1,4 -1,3 2,2 -1,3 -2,3 2,2 -1,3 -2,3 2,2 -2,3 -2,2 2,1 4,9 42,44 47,46 -1,3 -2,3 1,2 -1,3 -1,3 2,2 -1,3 -1,2 2,1 -1,4 -2,3 2,2 -1,3 -2,3 1,2 -1,3 -1,2 2,2 -1,3 -1,2 2,1 -1,4 -2,3 2,2 -1,3 -2,3 1,2 -1,3 -1,3 2,1 -1,4 -1,3 2,2 -1,3 -1,2 2,1 -1,5 -2,4 2,3 0,-4 1,-3 -2,-3 2,-3 1,-2 -2,-1 1,-3 1,-2 -2,-2 1,-3 2,-2 -2,-1 2,-3 2,-3 -1,-2 1,-3 1,-3 -2,-2 1,-3 1,-2 -2,-1 1,-4 2,-3 -2,-2 1,-4 2,-3 -1,-2 0,-3 1,-2 -2,-2 1,-3 2,-2 -2,-1 1,-4 2,-3 -2,-2 1,-3 2,-3 -1,-2 -2,-5 -42,-44 -47,-46 0,-3 1,-2 -2,-1 1,-4 1,-3 -2,-2 1,-4 1,-3 -2,-2 1,-3 2,-3 -2,-2 2,-3 2,-3 -1,-2 1,-3 1,-2 -2,-1 1,-4 2,-3 -2,-2 1,-4 2,-3 -2,-2 2,-3 2,-3 -1,-2 1,-3 1,-2 -2,-1 1,-4 2,-3 -2,-2 1,-4 2,-3 -2,-2 1,-3 2,-3 -1,-1 1,-4 2,-4 -2,-2 1,-4 2,-3 -2,-2 1,-4 2,-3 -2,-2 1,-3 2,-3 -2,-2 2,-3 2,-2 -1,-1 1,-4 1,-3 -2,-2 1,-4 2,-3 -2,-2 1,-3 2,-3 -1,-2 1,-3 1,-2 -2,-1 1,-4 2,-3 -2,-2 1,-4 2,-3 -2,-2 1,-3 2,-3 -1,-2 -2,-5 1,1 -4,-5 -1,-1 -3,-3 -4,-5 -7,-6 -21,-21 -27,-24 -3,1 -1,0 -3,2 -2,1 -2,1 -3,3l-52 58c-7,7 -11,14 -17,21 -58,64 -126,151 -179,220 -11,15 -23,30 -33,45 8,14 80,64 101,79 107,72 251,130 376,167 192,56 418,83 638,80 341,-5 627,-60 945,-142 46,-12 95,-26 140,-40l137 -42 -11 -58c-9,0 -49,10 -63,13 -85,14 -177,6 -242,-50 -11,-10 -27,-25 -36,-39 -17,-28 -32,-72 -39,-111 -20,-127 55,-238 132,-315 13,-13 25,-24 40,-36l40 -34c-6,-19 -25,-57 -35,-76 -60,-120 -128,-228 -221,-322 -21,-20 -93,-86 -120,-99 -5,3 -29,22 -35,27 -12,9 -23,17 -35,27 -18,15 -83,67 -99,83 -35,36 -50,46 -88,92 -97,117 -108,215 -127,360 -24,189 -178,334 -340,389 -81,28 -133,27 -216,28z"/>
   <path class="fil6" d="M4459 4226c0,0 0,-1 1,-1 0,0 4,-4 3,-11 2,13 -16,130 -19,154 -4,32 -20,136 -20,157 3,-3 32,-51 44,-66 17,-22 33,-41 51,-61 71,-81 269,-228 370,-304 59,-45 156,-122 217,-175 10,-8 20,-16 30,-25 60,-53 178,-157 233,-216 124,-131 289,-328 312,-585 16,-166 -43,-315 -124,-433 -37,-54 -83,-106 -129,-152 -7,-7 -23,-20 -28,-27 -15,2 -40,13 -54,18 -11,4 -42,20 -54,11 -6,-5 -9,-17 -3,-25 7,-8 39,-17 51,-21l27 -11c-6,-6 -8,-7 -14,-12 -79,-62 -138,-107 -233,-158 -90,-49 -184,-94 -292,-125 -241,-68 -289,-244 -416,-420 -7,-9 -15,-18 -22,-29 -23,-36 -35,-56 -68,-87 -34,-33 -75,-63 -123,-86 -214,-105 -456,-66 -643,75 -43,32 -76,63 -111,99 -12,13 -90,101 -92,116 -4,-1 -3,-1 -2,2 -3,-1 -2,-1 -1,2 -4,-1 -3,-1 -1,3 -4,-2 -3,-2 -3,3 5,0 4,1 3,-3 4,1 2,1 1,-3 3,1 2,2 1,-2 4,2 3,2 2,-2 7,-2 41,-40 50,-46 4,-4 4,-4 8,-8 1,-1 3,-3 5,-4 0,0 0,0 1,0 0,0 0,0 0,0 8,0 2,0 1,1 -1,-9 -2,-2 14,-18 5,-3 5,-5 9,-8 4,-3 7,-5 11,-9 89,-79 209,-153 323,-185 83,-23 177,-26 259,-4 64,18 140,58 188,102 61,55 87,82 133,157 21,35 36,51 60,86 33,49 141,192 173,227 3,4 4,6 8,10 28,31 51,53 82,83 12,11 25,22 39,32l37 27c3,4 1,-3 1,2 0,6 0,2 -1,2 8,-2 23,11 37,18 108,61 151,44 274,126 70,47 128,100 181,161 172,197 296,503 159,753 -14,25 -30,48 -46,68 -36,41 -76,74 -115,113 -54,54 -121,113 -177,165 -43,41 -106,95 -152,134l-217 183c-10,9 -19,17 -30,26l-91 82c-10,9 -19,17 -29,27l-69 75c-3,3 -3,4 -7,7 -3,4 -4,4 -5,9 -1,-6 0,-4 -1,-6l0 -6c-5,4 -6,10 -7,18z"/>
   <path class="fil7" d="M3602 2372c-3,-26 5,-64 13,-85 27,-67 88,-117 171,-124 62,-6 112,22 144,50 79,69 90,193 15,279 -84,96 -253,86 -321,-41 -13,-26 -18,-46 -22,-79zm-101 -436c1,3 2,3 -1,2 -2,2 -3,4 -4,5l-1 2c1,4 2,3 -2,2l-3 3c1,3 2,2 -1,2 1,4 2,3 -1,2 1,4 1,3 -3,3 -14,9 -70,110 -81,133 -51,102 -88,203 -115,317 -7,30 -12,59 -18,91 -3,19 -12,81 -9,98 1,10 -1,15 0,24 0,7 1,14 2,21 7,50 46,95 90,116l15 8c57,21 95,27 156,28 33,1 59,-2 87,-5 65,-7 93,-11 157,-27 168,-44 300,-114 388,-257 42,-69 58,-140 55,-221 -3,-98 -51,-209 -107,-284 -3,-4 -6,-9 -9,-13 -8,-8 -14,-15 -22,-24 -36,-42 -75,-73 -122,-100 -1,-1 -4,-2 -5,-2 -12,-5 -21,-10 -33,-15 -89,-34 -179,-34 -269,2 -33,13 -62,28 -92,48 -23,16 -31,20 -49,39l-3 2z"/>
   <path class="fil4" d="M3829 5236c-121,-14 -228,-54 -322,-120l-84 -63c-4,1 -3,2 -2,-3 -3,1 -3,2 -2,-1 -3,1 -3,2 -2,-2 -3,2 -3,2 -2,-1 -3,1 -2,1 -1,-2 -4,1 -3,2 -2,-2 -3,1 -3,2 -2,-1 -3,0 -3,1 -2,-2 -3,1 -2,1 -1,-2 -4,1 -3,2 -2,-2 -3,1 -3,2 -2,-1 -3,1 -3,1 -2,-2 -3,1 -2,1 -1,-2 -5,-2 -43,-37 -47,-46 -4,1 -4,2 -2,-1 -4,1 -3,1 -2,-2 -4,1 -3,1 -2,-2 -3,1 -3,2 -2,-2 -3,1 -3,2 -1,-2 -4,2 -3,2 -2,-1 -4,1 -3,1 -2,-2 -3,1 -3,2 -2,-2 -3,1 -3,2 -1,-2 -4,2 -3,2 -2,-1 -4,1 -3,1 -2,-2 -3,1 -3,2 -2,-2 -3,1 -3,2 -1,-1 -4,1 -3,1 -2,-2 -4,1 -3,1 -2,-2 -3,1 -3,2 -2,-2 -3,1 -2,2 -2,-2 -3,2 -2,2 -1,-1 -4,1 -3,1 -2,-2 -3,1 -3,2 -2,-2 -3,1 -3,2 -1,-2 -4,1 -3,2 -2,-1 -4,1 -3,1 -2,-2 -3,1 -3,2 -2,-2 -3,1 -3,2 -1,-2l-3 1c3,36 -1,58 8,103 9,46 22,82 43,122 13,24 17,30 33,50 28,37 45,53 80,84l63 45 111 54c1,0 1,1 1,1 1,0 1,0 2,0l6 2c4,2 6,2 10,3 34,13 50,17 85,25 38,10 101,20 139,24 101,11 210,6 310,-9 58,-8 81,-15 134,-28l43 -11c27,-10 55,-19 81,-29l40 -16c24,-8 50,-24 73,-35l70 -41c118,-75 221,-187 271,-328 21,-58 29,-117 28,-191 0,-53 -14,-139 -30,-188 -21,-61 -33,-99 -63,-158 -6,-12 -11,-24 -18,-36l-60 -102 -21 103c-23,91 -54,201 -80,289 -18,60 -36,132 -55,191 -35,114 -99,227 -190,301 -68,54 -128,79 -209,98 -46,11 -129,15 -172,11 -21,-2 -38,-3 -58,-5 -20,-3 -136,-21 -152,-34z"/>
   <path class="fil6" d="M5079 5264c1,0 1,0 1,1 1,2 18,7 19,7 116,33 255,-17 356,-64 55,-26 104,-52 154,-82 56,-33 91,-57 144,-92 -2,-10 -12,-20 0,-30 15,-13 28,6 30,8 9,-3 21,-13 28,-18 113,-79 280,-218 378,-308 33,-30 63,-58 95,-88 16,-15 32,-29 47,-45 44,-44 93,-93 135,-138 15,-16 28,-31 44,-48 14,-15 30,-32 44,-49 74,-89 184,-212 228,-318 50,-122 108,-281 147,-404 7,-24 14,-46 22,-70 6,-18 -5,-23 7,-35 7,-7 5,-4 8,-14 43,-140 90,-306 135,-438 11,-36 25,-77 40,-119 -8,-40 -16,-80 -26,-119 -12,26 -24,55 -37,86 -22,54 -38,102 -57,151 -23,56 -48,132 -68,191 -3,7 -5,12 -7,19 -3,7 -5,12 -7,20 -8,27 -18,50 -28,78 -35,98 -72,212 -110,309 -5,12 -10,25 -14,37l-58 150c-11,28 -40,93 -44,114 -4,28 -14,57 -24,80 -60,137 -208,317 -312,420l-131 130c-5,5 -8,8 -14,13 -5,4 -9,8 -14,12 -19,19 -35,33 -55,51l-169 143c-83,65 -152,117 -239,178 -95,67 -222,145 -327,196 -83,41 -181,82 -277,89 -21,2 -24,1 -44,-4z"/>
   <path class="fil8" d="M3501 1936c-3,-1 -2,-1 -1,2 -4,2 -2,0 -4,5 -3,-1 -3,-1 -1,2 -4,0 -3,-1 -2,2 -3,0 -2,-2 -3,3 -2,-1 -2,-1 -1,2 -3,0 -2,-1 -1,2 -3,-1 -2,-1 -3,3 4,0 4,1 3,-3 3,1 2,2 1,-2 3,0 2,1 1,-2l3 -3c4,1 3,2 2,-2l1 -2c1,-1 2,-3 4,-5 3,1 2,1 1,-2l3 -2c18,-19 26,-23 49,-39 30,-20 59,-35 92,-48 90,-36 180,-36 269,-2 12,5 21,10 33,15 1,0 4,1 5,2 47,27 86,58 122,100 8,9 14,16 22,24 3,4 6,9 9,13 56,75 104,186 107,284 3,81 -13,152 -55,221 -88,143 -220,213 -388,257 -64,16 -92,20 -157,27 -28,3 -54,6 -87,5 -61,-1 -99,-7 -156,-28l-15 -8c-44,-21 -83,-66 -90,-116 -1,-7 -2,-14 -2,-21 -1,-9 1,-14 0,-24 0,1 0,2 -1,2l-1 13c-2,58 4,143 34,190 28,45 79,76 143,93 135,38 293,14 423,-15 119,-26 239,-73 334,-141 48,-35 87,-74 122,-117 131,-161 139,-362 55,-545 -45,-97 -121,-205 -211,-265 -46,-31 -97,-60 -164,-74 -69,-15 -148,-12 -213,7 -66,19 -111,44 -161,76 -24,15 -47,35 -66,53 -9,8 -52,53 -55,63z"/>
   <path class="fil9" d="M5540 5717c-4,-1 -3,-1 -2,2 -3,-1 -3,-2 -2,2 -3,-1 -3,-2 -2,1 -3,-1 -2,-1 -2,2 4,0 3,1 2,-2 4,1 3,2 2,-1 4,1 3,1 2,-2 3,1 3,1 2,-2 5,-2 5,-4 10,-7 11,54 26,105 36,164 5,32 19,83 23,112 4,29 10,47 14,68 5,34 9,67 16,104l15 84c2,11 2,19 4,30l13 86c2,11 3,21 4,31l20 166c72,-51 142,-105 210,-161l-3 -35c-3,-55 -13,-138 -19,-195 -7,-63 -17,-126 -24,-187 -2,-30 -9,-63 -14,-93 -5,-31 -8,-62 -13,-92 -21,-123 -42,-240 -67,-358 -5,4 -5,6 -7,12 -16,42 -50,89 -78,123 0,1 -1,1 -1,1 -37,48 -66,75 -107,116l-32 31z"/>
   <path class="fil10" d="M3814 4604c-3,-13 -3,-28 -6,-41 -3,-16 2,-71 5,-86 2,-11 9,-23 9,-36 -12,1 -28,6 -40,8 -7,1 -11,3 -18,5 -20,6 -41,12 -60,22 0,0 -4,2 -4,2 0,0 -1,1 -2,1 -74,35 -139,87 -178,156l-13 23c0,0 0,1 -1,1 0,1 0,1 0,2l-11 21c-16,32 -43,120 -41,148 51,30 72,44 128,72 51,26 91,41 146,56 84,24 171,20 243,-31 78,-55 126,-158 150,-251 18,-67 20,-103 31,-171 2,-13 3,-32 4,-46 1,-7 3,-13 4,-20 3,-44 3,-80 6,-121 2,-30 4,-65 4,-96 0,-14 -2,-11 -30,-5 -12,3 -25,8 -36,12 -75,25 -121,54 -174,110 -39,41 -53,61 -73,116 -20,55 -26,87 -38,139 0,1 0,4 -1,5l-4 5z"/>
   <path class="fil9" d="M3838 4152c-24,0 -56,-3 -74,-10 -11,-5 -20,-5 -28,-11 -7,-5 -19,-10 -27,-14 -9,-5 -17,-7 -26,-13l-61 -38c-5,-3 -8,-6 -14,-7 -3,13 -1,36 -1,51 0,54 -6,165 -31,217 -12,27 -19,54 -45,79l-28 19c-1,1 -2,1 -4,2 -91,54 -217,-36 -281,-89l-43 -37c-4,-4 -9,-12 -16,-12 -2,74 -1,171 -42,237 -22,36 -28,11 62,94l77 65c27,22 55,43 81,64 14,10 27,19 42,30l37 26c5,3 2,3 5,0 1,-1 15,-60 17,-69 7,-26 23,-67 37,-91l4 -6c12,-22 32,-54 47,-72 6,-6 16,-18 20,-23 8,-14 6,-10 21,-23 25,-21 35,-27 61,-46 4,-4 8,-5 13,-8 10,-6 10,-8 20,-11 8,-3 40,-20 52,-24 33,-10 51,-15 86,-23 7,-1 11,-2 17,-4 15,-3 12,2 26,-15 4,-5 6,-9 10,-13 6,-8 12,-17 18,-25 15,-21 11,-14 28,-31 22,-23 30,-33 58,-55 26,-21 49,-35 79,-50 44,-21 65,-21 81,-27 5,-2 2,-2 8,-3 11,-3 42,-7 45,-9l3 -174c1,-63 4,-117 4,-181 0,-14 -3,-10 -23,-10 -52,0 -111,-21 -148,-40 -19,-10 -12,6 -11,22 3,25 4,121 2,140 -3,24 -8,57 -13,80 -17,71 -63,138 -145,138z"/>
   <path class="fil7" d="M2130 3167c4,2 4,-3 3,5l3 11 2 4c0,0 0,0 1,1 0,0 0,0 0,1 3,10 1,-7 1,3 4,3 8,11 12,17 14,22 23,34 41,53 10,10 23,21 35,29 68,50 152,75 248,64 115,-14 212,-75 284,-156 8,-9 22,-24 28,-35l-6 4c0,3 1,3 -2,2l-4 4c0,3 1,2 -2,1 -1,1 -1,1 -1,1 0,1 -1,1 -1,1 -1,1 -2,1 -3,2 0,3 1,3 -3,2 0,0 0,0 -1,0 0,1 -1,1 -1,1 -1,1 -1,1 -3,2l-9 5 -9 5c-8,1 -99,50 -193,-9 -42,-27 -89,-80 -93,-150 -11,-13 -12,-44 -2,-62 4,-7 8,-11 12,-17 1,-17 24,-50 33,-62 14,-18 29,-31 51,-45 112,-70 265,-7 294,124 4,15 5,28 5,44 0,13 -4,36 -3,45l-2 5c0,5 2,-2 0,4 0,0 0,1 -1,2 0,0 0,0 0,1 2,9 -1,3 -2,5l-2 10c1,-9 14,-33 18,-42 49,-126 23,-204 -91,-285 -53,-37 -101,-57 -162,-80 -18,-6 -75,-21 -98,-24 -37,-6 -56,-10 -94,-11l-10 0c-5,-1 -1,0 -4,-2 -67,8 -107,27 -147,60 -34,29 -66,68 -89,117 -50,102 -66,222 -33,345z"/>
   <path class="fil6" d="M5481 6544c-1,3 -1,2 2,1 0,1 1,1 1,1 0,1 0,1 1,1 0,1 0,1 1,1 0,1 1,2 2,3 2,1 3,2 5,4 -1,3 -2,3 2,1 -1,4 -2,3 2,2 -2,4 -2,3 1,2 -1,3 -1,3 2,2 -1,3 -2,3 2,1 -1,4 -2,3 2,2 -2,4 -2,3 1,2 -1,3 -1,3 2,2 -1,3 -2,2 1,2 2,2 4,6 5,7 2,3 3,2 6,5 3,3 7,11 9,14 5,10 12,20 17,29 4,7 8,14 12,22l10 -7c-20,-28 -47,-65 -59,-70 1,-3 2,-3 -1,-2 1,-3 1,-3 -2,-2 2,-3 2,-3 -1,-2 1,-3 1,-3 -2,-2 1,-3 1,-2 -2,-1 1,-4 2,-3 -2,-2 1,-3 2,-3 -1,-2 1,-3 1,-3 -2,-2 1,-3 1,-2 -2,-1 -1,-3 0,-1 -2,-4 -1,-1 -1,-2 -2,-2 -5,-5 -1,-2 -6,-4 1,-3 2,-3 -2,-1 1,-4 2,-3 -3,-3 0,5 -1,4 3,3z"/>
   <path class="fil9" d="M856 2588c-1,1 -6,2 -7,3 -5,2 -8,3 -14,6 -130,55 -262,125 -379,203 -103,70 -210,164 -272,273 -14,25 -21,44 -34,23 -22,-36 -6,-97 9,-128 48,-95 160,-166 251,-215 106,-57 269,-119 390,-154 18,-5 44,-15 63,-17l-7 6zm-783 568c7,-55 16,-110 25,-164l9 -13c26,-39 75,-87 112,-116 51,-40 80,-58 136,-92 134,-80 330,-155 481,-205 59,-19 201,-61 266,-76 14,-3 32,-8 46,-11 10,-3 35,-11 44,-10 10,18 11,47 9,74 -7,6 -30,11 -41,15 -37,14 -44,18 -78,35 -6,3 -12,5 -19,9l-36 20c-44,26 -145,93 -181,126l-31 25c-37,28 -84,71 -122,103 -26,23 -59,57 -86,81 -37,33 -78,73 -116,108l-44 41c-35,33 -97,89 -134,114 -38,26 -80,60 -126,71 -11,2 -8,5 -22,4 5,-11 10,-45 5,-59 -13,-33 -34,-53 -66,-69 -15,-8 -23,-10 -31,-11z"/>
   <path class="fil9" d="M4809 634c2,-1 3,-3 6,-4 96,-81 221,-175 342,-246l-13 -5c-57,32 -104,64 -160,101 -137,90 -335,252 -453,362 4,15 42,46 58,51l58 -43c22,-14 42,-24 65,-37 28,-16 116,-54 142,-63 41,-15 112,-40 153,-51 7,-2 13,-3 19,-5 41,-14 171,-44 226,-57 28,-6 56,-11 83,-18l84 -18c29,-7 56,-14 84,-20 5,-1 8,-1 10,-2 -92,-58 -188,-111 -286,-160 -28,11 -59,24 -92,39 -93,42 -165,83 -251,134 -18,11 -68,44 -80,49l5 -7z"/>
   <path class="fil6" d="M595 5540c3,-4 6,-7 8,-11 54,-71 146,-84 224,-105 157,-40 331,-113 467,-189 137,-78 338,-198 428,-337 19,-29 33,-68 36,-72 36,35 135,115 174,147 19,15 39,31 59,46l121 92c88,65 159,114 249,176 20,14 43,28 64,42 22,13 43,27 65,40 38,24 231,137 277,151 7,-14 41,-65 43,-73 3,-1 2,0 4,-3 3,-4 1,-1 2,-5 3,1 2,1 1,-2 3,1 2,1 2,-3 -3,0 -3,-1 -2,3 -4,-1 -3,-2 -1,2l-3 4c-2,2 -1,2 -3,4 -8,3 -65,-27 -74,-30 -16,-7 -54,-27 -72,-35 -12,-6 -23,-12 -36,-18 -58,-28 -186,-101 -238,-133 -46,-27 -90,-53 -135,-81 -111,-71 -214,-139 -322,-216l-182 -137c-3,3 -24,44 -30,51 -4,6 -6,11 -11,17 -73,98 -129,141 -226,212 -73,54 -201,120 -284,158 -25,12 -49,21 -77,33 -26,11 -54,22 -79,31 -39,14 -83,30 -123,41 -14,4 -28,8 -42,13 -14,4 -31,7 -44,11 -75,22 -135,25 -211,66 -29,17 -49,34 -65,51 12,20 24,40 36,59z"/>
   <path class="fil6" d="M4196 4425c0,0 1,-1 1,-1 0,0 1,-1 1,-1 0,-1 0,-1 1,-2l103 -241c11,-28 23,-58 34,-84 6,-12 12,-29 17,-41 5,-15 11,-27 16,-42 21,-57 43,-113 64,-172 64,-186 154,-468 153,-668 0,-62 -1,-101 -19,-158 -6,-20 -16,-36 -18,-44l8 6c23,17 4,3 17,16 0,0 1,1 1,1l5 5c9,10 9,7 16,17 5,7 -3,-3 1,2l7 5c-7,-10 -11,-14 -20,-23l-13 -14c0,0 0,0 -1,-1l-25 -20 -39 81c-13,27 -27,53 -41,80 -15,26 -29,51 -44,77 -23,37 -22,18 5,82 11,27 22,62 28,92 14,68 5,143 -78,153 -51,6 -81,-10 -112,-13 1,23 11,54 14,80 6,62 10,143 -40,188 -9,8 -19,12 -28,19 -3,51 -3,105 -3,156 0,104 -2,210 -3,313 -1,51 -8,102 -8,152z"/>
   <path class="fil9" d="M1600 2395c-78,0 -168,14 -238,39 -30,11 -43,19 -64,27 -31,12 -10,-59 58,-95 86,-46 220,-34 316,-19 41,7 85,16 123,26 27,7 207,55 230,70 -9,0 -74,-14 -91,-17 -57,-10 -85,-13 -142,-20l-46 -5c-57,-6 -92,-6 -146,-6zm662 49c-11,-12 -119,-40 -136,-44 -45,-12 -101,-23 -150,-30 -54,-8 -106,-17 -160,-22 -55,-4 -111,-10 -165,-14 -28,-3 -59,-3 -87,-4 -31,0 -61,0 -92,0 -61,0 -113,4 -170,11 -24,3 -52,9 -73,17 -86,30 -22,54 -3,99 28,68 -9,173 6,203 17,33 112,-12 137,-22 33,-14 63,-28 97,-39l33 -12c49,-17 132,-34 186,-41 115,-14 266,-14 375,12 10,3 9,2 16,-3 4,-4 8,-6 13,-10 30,-27 73,-54 110,-72l63 -29z"/>
   <path class="fil6" d="M5540 5717c1,3 1,3 -2,2 1,3 2,3 -2,2 1,3 2,2 -2,1 1,3 2,2 -2,2 -12,12 -113,101 -114,104 -2,5 9,184 9,208 4,144 3,289 1,433 71,26 127,92 168,153 34,-22 67,-44 99,-67l-20 -166c-1,-10 -2,-20 -4,-31l-13 -86c-2,-11 -2,-19 -4,-30l-15 -84c-7,-37 -11,-70 -16,-104 -4,-21 -10,-39 -14,-68 -4,-29 -18,-80 -23,-112 -10,-59 -25,-110 -36,-164 -5,3 -5,5 -10,7z"/>
   <path class="fil8" d="M2842 3079c1,-2 4,4 2,-5 0,-1 0,-1 0,-1 1,-1 1,-2 1,-2 2,-6 0,1 0,-4l2 -5c-2,1 -3,-2 -2,5 -3,4 -2,1 -1,7 -3,1 -3,-4 -2,5 -4,4 -9,19 -12,26 -20,40 -43,55 -48,63 -3,-1 -2,-1 -2,2 -4,1 -3,0 -4,4 -4,-1 -3,-2 -2,1 -5,2 -3,0 -5,4 -4,-1 -3,-2 -3,2 -5,0 -3,-1 -5,3 -7,1 -5,1 -9,5 -7,1 -5,1 -9,5l9 -5 9 -5c2,-1 2,-1 3,-2 0,0 1,0 1,-1 1,0 1,0 1,0 4,1 3,1 3,-2 1,-1 2,-1 3,-2 0,0 1,0 1,-1 0,0 0,0 1,-1 3,1 2,2 2,-1l4 -4c3,1 2,1 2,-2l6 -4c-6,11 -20,26 -28,35 -72,81 -169,142 -284,156 -96,11 -180,-14 -248,-64 -12,-8 -25,-19 -35,-29 -18,-19 -27,-31 -41,-53 -4,-6 -8,-14 -12,-17 0,-10 2,7 -1,-3 0,-1 0,-1 0,-1 -1,-1 -1,-1 -1,-1l-2 -4 -3 -11c1,-8 1,-3 -3,-5 1,8 0,4 3,5 0,6 0,7 3,11 -1,7 -1,3 2,4 -1,8 0,4 2,5 -2,21 41,92 52,107 69,98 198,164 329,154 102,-9 174,-35 241,-82 65,-45 119,-97 164,-159 66,-92 141,-242 55,-352 -69,-89 -186,-149 -299,-184 -62,-20 -140,-35 -208,-35 -17,0 -63,0 -75,4 3,2 -1,1 4,2l10 0c38,1 57,5 94,11 23,3 80,18 98,24 61,23 109,43 162,80 114,81 140,159 91,285 -4,9 -17,33 -18,42l2 -10z"/>
   <path class="fil9" d="M50 3401c4,-71 10,-141 19,-211 13,4 26,11 40,21 41,31 27,67 4,106 -16,26 -39,55 -63,84z"/>
   <path class="fil9" d="M4057 1453c2,-13 10,-35 14,-47 39,-115 60,-187 122,-300 37,-68 99,-160 172,-191 26,-11 71,-21 98,-5 20,11 -5,21 -17,28 -136,82 -229,221 -303,360l-60 122c-4,8 -6,13 -9,20 -7,15 -6,15 -17,13zm-53 -7c13,1 35,3 47,7 15,4 0,2 21,4 5,1 15,4 21,5l83 25 46 -71c6,-9 11,-15 16,-23 7,-11 11,-14 17,-23 40,-55 119,-141 171,-182 57,-46 72,-58 137,-98 32,-20 63,-42 89,-67 36,-36 7,-53 -43,-78 -16,-8 -36,-19 -51,-29 -33,-21 -60,-45 -71,-85 -5,-20 -9,-47 -37,-38 -30,10 -70,51 -87,70 -50,55 -92,112 -135,178 -3,5 -5,7 -8,12l-23 35c-26,43 -67,107 -88,149l-27 50c-14,26 -77,146 -78,159z"/>
   <path class="fil2" d="M3262 2596c-3,-17 6,-79 9,-98 6,-32 11,-61 18,-91 27,-114 64,-215 115,-317 11,-23 67,-124 81,-133 1,-4 0,-4 3,-3 -1,-3 -2,-2 1,-2 -1,-3 -1,-3 1,-2 1,-5 0,-3 3,-3 -1,-3 -2,-2 2,-2 -2,-3 -2,-3 1,-2 2,-5 0,-3 4,-5 -1,-3 -2,-3 1,-2 3,-10 46,-55 55,-63 19,-18 42,-38 66,-53 50,-32 95,-57 161,-76 65,-19 144,-22 213,-7 67,14 118,43 164,74 90,60 166,168 211,265 84,183 76,384 -55,545 -35,43 -74,82 -122,117 -95,68 -215,115 -334,141 -130,29 -288,53 -423,15 -64,-17 -115,-48 -143,-93 -30,-47 -36,-132 -34,-190l1 -13c1,0 1,-1 1,-2zm7 232c0,1 1,1 1,1 1,6 -2,-3 8,10 11,15 29,31 47,43 162,113 475,58 641,5 119,-39 193,-76 287,-151 73,-59 141,-149 175,-238 1,-4 2,-6 3,-11l6 -9c-2,-18 61,-142 -7,-347 -32,-99 -91,-193 -147,-256 -124,-140 -332,-248 -580,-139 -103,45 -168,101 -228,175 -146,182 -260,517 -249,760 1,37 10,91 25,125l18 32z"/>
   <path class="fil2" d="M2467 2956c10,-7 17,-14 33,-17 81,-18 112,107 26,126 -43,10 -68,-30 -69,-30 4,70 51,123 93,150 94,59 185,10 193,9 4,-4 2,-4 9,-5 4,-4 2,-4 9,-5 2,-4 0,-3 5,-3 0,-4 -1,-3 3,-2 2,-4 0,-2 5,-4 -1,-3 -2,-2 2,-1 1,-4 0,-3 4,-4 0,-3 -1,-3 2,-2 5,-8 28,-23 48,-63 3,-7 8,-22 12,-26 -1,-9 -1,-4 2,-5 -1,-6 -2,-3 1,-7 -1,-7 0,-4 2,-5 -1,-9 3,-32 3,-45 0,-16 -1,-29 -5,-44 -29,-131 -182,-194 -294,-124 -22,14 -37,27 -51,45 -9,12 -32,45 -33,62z"/>
   <path class="fil2" d="M3615 2381c-4,-37 27,-67 59,-69 39,-3 68,26 70,60 3,85 -119,94 -129,9zm-13 -9c4,33 9,53 22,79 68,127 237,137 321,41 75,-86 64,-210 -15,-279 -32,-28 -82,-56 -144,-50 -83,7 -144,57 -171,124 -8,21 -16,59 -13,85z"/>
   <path class="fil9" d="M5471 5240c-3,-2 -3,-2 -2,1 -5,0 -1,-1 -6,1 -2,1 -2,2 -3,2 -6,0 -2,0 -3,3 6,0 2,0 3,-3 3,0 2,1 5,0 6,-3 2,-1 4,-3 3,1 3,2 2,-1l12 -3c1,15 16,60 18,72l6 33c1,5 2,12 2,17 5,55 -7,117 -21,165 -11,37 -21,60 -36,93 -2,6 -3,9 -6,14 -4,9 -33,69 -38,75l-3 -11c3,-9 -1,-24 -2,-34l-3 -11c0,6 1,40 5,45l8 87 69 -60c68,-60 138,-129 192,-202 31,-42 79,-119 69,-194 -2,-21 -52,-191 -61,-203 -4,2 -18,11 -24,15 -25,17 -106,62 -132,74l-55 28z"/>
   <path class="fil6" d="M2937 2766c1,3 -3,2 3,2 -1,3 -1,3 2,1 1,3 -3,3 3,3 -1,3 -1,2 2,1 2,4 -1,1 3,5 1,1 2,2 3,3 17,13 31,27 44,43 15,18 28,34 39,59 66,142 -55,330 -140,420 -108,115 -238,186 -409,185 -88,-1 -152,-35 -162,-34 -2,-3 5,-1 -4,-4l-4 -1c-3,-4 -1,-3 -7,-3 -2,-3 0,-1 -4,-3 -2,-2 -1,-1 -4,-1 -1,-2 -1,-2 -3,-3 -2,-1 -1,-1 -4,-1 1,-3 1,-2 -3,-2 0,4 -1,4 3,2 0,0 0,2 3,3 6,2 0,0 4,1l8 4c2,2 -2,0 3,2 1,1 -2,1 4,1 2,5 0,4 8,5l7 7c2,2 5,4 9,7 6,4 11,8 17,12 38,24 81,43 127,54 135,31 271,0 382,-74 25,-16 48,-34 69,-52 19,-16 30,-28 46,-44 2,-2 6,-6 8,-8 2,-2 0,-3 5,-3 0,0 1,1 1,1 9,2 1,1 1,1 -1,-8 -3,-3 8,-16 70,-76 134,-191 142,-298 6,-77 -30,-131 -65,-168 -19,-20 -38,-37 -62,-55 -10,-7 -61,-45 -73,-45 1,-3 1,-2 -2,-1 0,-3 3,-3 -3,-3 1,-2 1,-1 -2,-1l-3 -2 -3 -1c0,3 0,2 3,1z"/>
   <path class="fil2" d="M2140 3192c-2,-1 -3,3 -2,-5 -3,-1 -3,3 -2,-4 -3,-4 -3,-5 -3,-11 -3,-1 -2,3 -3,-5 -33,-123 -17,-243 33,-345 23,-49 55,-88 89,-117 40,-33 80,-52 147,-60 12,-4 58,-4 75,-4 68,0 146,15 208,35 113,35 230,95 299,184 86,110 11,260 -55,352 -45,62 -99,114 -164,159 -67,47 -139,73 -241,82 -131,10 -260,-56 -329,-154 -11,-15 -54,-86 -52,-107zm152 244c4,0 4,-1 3,2 3,0 2,0 4,1 2,1 2,1 3,3 3,0 2,-1 4,1 4,2 2,0 4,3 6,0 4,-1 7,3l4 1c9,3 2,1 4,4 10,-1 74,33 162,34 171,1 301,-70 409,-185 85,-90 206,-278 140,-420 -11,-25 -24,-41 -39,-59 -13,-16 -27,-30 -44,-43 -1,-1 -2,-2 -3,-3 -4,-4 -1,-1 -3,-5 -3,1 -3,2 -2,-1 -6,0 -2,0 -3,-3 -3,2 -3,2 -2,-1 -6,0 -2,1 -3,-2 -3,1 -3,2 -3,-1 -95,-73 -238,-135 -363,-151 -193,-24 -296,4 -388,111 -88,103 -119,266 -97,403 17,104 63,187 132,254l36 29c13,9 26,16 38,25z"/>
   <path class="fil6" d="M3691 5169c0,1 1,1 1,1l9 4c59,19 120,28 182,28 236,-3 457,-190 471,-415 3,-44 13,-101 20,-146 3,-18 5,-33 7,-49 8,-60 23,-126 35,-184 7,-31 14,-61 21,-90 7,-29 17,-62 22,-90 0,0 -1,0 -1,1 -23,23 -72,106 -84,133 -36,82 -59,169 -62,263 0,12 -5,38 -7,48 -8,33 -11,54 -23,87 -4,11 -9,26 -15,39 -5,13 -10,25 -17,38 -5,12 -11,22 -18,34 -15,32 -44,70 -65,98l-25 30c-31,34 -75,78 -114,101 -51,32 -87,52 -148,69 -41,11 -124,21 -168,7l-21 -7z"/>
   <path class="fil6" d="M3269 2828c2,7 -1,1 2,6 3,7 26,28 31,33 15,14 3,-1 23,23 9,12 19,20 28,30 29,27 74,52 113,65 33,11 61,17 96,23 62,12 160,11 222,3 74,-9 133,-19 200,-38 30,-9 59,-18 88,-30 14,-6 28,-11 42,-17 60,-27 128,-74 173,-123 9,-10 19,-19 28,-30 50,-62 80,-114 103,-194 5,-16 18,-84 19,-101l-6 9c-1,5 -2,7 -3,11 -34,89 -102,179 -175,238 -94,75 -168,112 -287,151 -166,53 -479,108 -641,-5 -18,-12 -36,-28 -47,-43 -10,-13 -7,-4 -8,-10 0,0 -1,0 -1,-1z"/>
   <path class="fil9" d="M4861 4160c5,-1 5,-1 8,-3 11,7 23,13 32,22 7,6 20,13 32,23 34,31 108,101 134,140l24 31c39,49 100,147 129,201 5,10 36,66 37,73 -1,1 -2,1 -4,2l-4 5c-6,1 -2,-1 -7,2 0,0 0,1 -1,1l-3 4c-4,-1 -3,-3 -3,1 -6,0 -1,-1 -3,2 -3,-1 -2,-2 -2,1 -6,1 -2,0 -3,3 -3,-1 -3,-2 -2,1 -4,-1 -3,-2 -3,2 4,0 4,1 3,-2 3,1 3,2 2,-1 6,-1 2,0 3,-3 3,1 3,2 2,-1 7,0 3,0 3,-2 4,1 4,2 3,-1l11 -7c5,-1 32,-20 41,-26 14,-8 27,-16 41,-24 15,-8 27,-15 43,-24l41 -23c-3,-7 -20,-31 -25,-38 -52,-69 -106,-136 -169,-194l-42 -37c-43,-36 -97,-76 -150,-103 -14,-7 -118,-61 -133,-52l-31 23c-5,4 -1,0 -4,4z"/>
   <path class="fil11" d="M3221 4295c5,-1 4,-2 3,2 4,-1 3,-2 2,1 4,-1 3,-2 2,2 3,-1 3,-2 2,2 3,-1 2,-2 2,1 3,-1 2,-1 2,2 7,-1 2,0 2,2 4,-1 4,-2 3,2 3,-1 2,-2 1,1 10,2 4,1 5,4 4,-1 3,-2 2,2l24 9c65,22 138,28 197,-11 43,-28 72,-68 90,-117 15,-40 7,-13 10,-42 0,-4 1,-11 4,-16l1 -80 -95 52c-33,17 -64,32 -99,49 -47,22 -106,47 -155,65 -9,4 -50,17 -55,21 4,9 34,34 44,44l8 5z"/>
   <path class="fil6" d="M4861 4160c-10,9 -19,15 -30,23 -8,6 -27,17 -30,25 10,7 21,15 31,23 2,3 5,4 8,6 36,26 101,95 130,128 60,71 130,180 170,266 5,12 12,24 17,36 4,9 14,32 18,37l47 -33c0,-4 -1,-3 3,-2 -1,-3 -1,-2 2,-1 1,-3 -3,-2 3,-3 0,-3 -1,-2 2,-1 2,-3 -3,-2 3,-2 0,-4 -1,-2 3,-1l3 -4c1,0 1,-1 1,-1 5,-3 1,-1 7,-2l4 -5c2,-1 3,-1 4,-2 -1,-7 -32,-63 -37,-73 -29,-54 -90,-152 -129,-201l-24 -31c-26,-39 -100,-109 -134,-140 -12,-10 -25,-17 -32,-23 -9,-9 -21,-15 -32,-22 -3,2 -3,2 -8,3z"/>
   <path class="fil11" d="M2744 4400c5,-1 4,-2 3,3 2,-1 2,-2 1,1 4,-2 4,-3 2,1 4,-1 4,-2 2,2 4,-1 3,-2 2,2 4,-1 3,-2 2,2 3,-2 3,-2 2,1 3,-1 2,-1 2,2 3,-1 2,-2 1,2 3,-1 3,-2 2,1 3,-1 3,-1 2,2 3,-1 2,-1 2,2 9,1 3,-1 5,3 3,-1 2,-1 2,2 10,1 3,-1 5,4 3,-1 2,-2 2,2 9,0 -2,-1 10,3 40,14 40,20 99,31 43,8 96,4 131,-12 45,-20 93,-69 100,-120 4,-27 -3,-58 0,-71l-1 0c-7,0 -83,24 -99,28 -75,20 -136,34 -212,48 -18,3 -37,6 -56,9l-41 6c-3,1 -6,1 -7,2 -1,0 -2,0 -3,1 -4,2 0,-1 -4,2 7,5 16,15 23,22 4,4 17,17 23,19z"/>
   <path class="fil5" d="M863 2582c-19,2 -45,12 -63,17 -121,35 -284,97 -390,154 -91,49 -203,120 -251,215 -15,31 -31,92 -9,128 13,21 20,2 34,-23 62,-109 169,-203 272,-273 117,-78 249,-148 379,-203 6,-3 9,-4 14,-6 1,-1 6,-2 7,-3l7 -6z"/>
   <path class="fil5" d="M4804 641c12,-5 62,-38 80,-49 86,-51 158,-92 251,-134 33,-15 64,-28 92,-39 -23,-12 -47,-23 -70,-35 -121,71 -246,165 -342,246 -3,1 -4,3 -6,4l-5 7z"/>
   <path class="fil11" d="M3889 3835c2,4 2,3 -3,2 -5,1 -57,45 -62,49 -20,16 -42,33 -64,49 -22,15 -43,31 -66,47l-68 45c42,32 159,107 238,85 2,-4 -3,-6 4,-3 1,0 1,-1 2,-1l22 -14c27,-29 34,-63 33,-106 -1,-41 -10,-81 -22,-120 -2,-6 -10,-29 -10,-35l-4 2z"/>
   <path class="fil6" d="M5471 5240c1,3 1,2 -2,1 -2,2 2,0 -4,3 -3,1 -2,0 -5,0 -1,3 3,3 -3,3l-54 21c-61,25 -57,11 -51,41 21,113 36,227 48,341l3 11c1,10 5,25 2,34l3 11c5,-6 34,-66 38,-75 3,-5 4,-8 6,-14 15,-33 25,-56 36,-93 14,-48 26,-110 21,-165 0,-5 -1,-12 -2,-17l-6 -33c-2,-12 -17,-57 -18,-72l-12 3z"/>
   <path class="fil5" d="M1600 2395c54,0 89,0 146,6l46 5c57,7 85,10 142,20 17,3 82,17 91,17 -23,-15 -203,-63 -230,-70 -38,-10 -82,-19 -123,-26 -96,-15 -230,-27 -316,19 -68,36 -89,107 -58,95 21,-8 34,-16 64,-27 70,-25 160,-39 238,-39z"/>
   <path class="fil5" d="M4057 1453c11,2 10,2 17,-13 3,-7 5,-12 9,-20l60 -122c74,-139 167,-278 303,-360 12,-7 37,-17 17,-28 -27,-16 -72,-6 -98,5 -73,31 -135,123 -172,191 -62,113 -83,185 -122,300 -4,12 -12,34 -14,47z"/>
   <path class="fil11" d="M4191 3530c1,3 2,3 -1,2 1,3 1,2 -2,1 1,3 1,3 -2,2 1,3 1,3 -1,2 -2,10 0,3 -4,5 1,3 1,3 -2,2 1,3 1,3 -2,2 1,3 2,2 -1,2 0,3 1,2 -2,1 1,7 1,2 -2,3 1,4 2,3 -2,2 1,4 2,3 -1,2 0,3 1,3 -2,2 1,3 1,2 -3,2l-79 87c-14,15 -27,28 -41,42l-38 36c-4,5 -2,2 -5,8 23,9 91,43 118,41 20,-5 37,16 79,-16 45,-34 36,-111 23,-159 -5,-22 -15,-55 -24,-74 -3,2 3,-2 -2,3 -4,3 1,0 -4,2z"/>
   <path class="fil12" d="M3121 4263c-3,13 4,44 0,71 -7,51 -55,100 -100,120 -35,16 -88,20 -131,12 -59,-11 -59,-17 -99,-31 -12,-4 -1,-3 -10,-3 0,-4 1,-3 -2,-2 -2,-5 5,-3 -5,-4 0,-3 1,-3 -2,-2 -2,-4 4,-2 -5,-3 0,-3 1,-3 -2,-2 1,-3 1,-3 -2,-2 1,-3 1,-2 -2,-1 1,-4 2,-3 -1,-2 0,-3 1,-3 -2,-2 1,-3 1,-3 -2,-1 1,-4 2,-3 -2,-2 1,-4 2,-3 -2,-2 2,-4 2,-3 -2,-2 2,-4 2,-3 -2,-1 1,-3 1,-2 -1,-1 1,-5 2,-4 -3,-3 0,4 -1,3 3,3 -2,3 -2,2 1,1 -1,4 -1,3 2,1 -1,4 -1,3 2,2 -1,4 -2,3 2,2 -1,3 -2,3 2,2 -1,2 -1,2 2,1 -1,3 -2,3 2,2 -1,3 -2,2 1,2 0,2 -1,2 2,1 0,3 -1,2 2,2 0,3 -1,2 2,2 2,4 0,2 5,3 -1,3 -1,2 2,2 2,4 0,3 5,4 -2,3 -2,3 2,2 2,6 19,18 24,22 9,7 18,15 27,21 99,69 242,156 281,-37 6,-29 9,-54 10,-85 1,-15 2,-29 2,-45 0,-8 2,-40 -4,-45l-1 0 1 0z"/>
   <path class="fil12" d="M3247 4316c1,-4 2,-3 -2,-2 -1,-3 5,-2 -5,-4 1,-3 2,-2 -1,-1 1,-4 1,-3 -3,-2 0,-2 5,-3 -2,-2 0,-3 1,-3 -2,-2 0,-3 1,-2 -2,-1 1,-4 1,-3 -2,-2 1,-4 2,-3 -2,-2 1,-3 2,-2 -2,-1 1,-4 2,-3 -3,-2 0,4 -1,3 3,2 -2,3 -2,3 2,1 -1,4 -2,3 2,2 -1,3 -2,3 2,2 -1,3 -2,2 2,1 -1,3 -1,2 2,2 0,3 -2,2 2,2 -1,4 -1,3 3,2 -2,3 -2,2 1,1 2,5 0,3 5,4 -1,4 -1,3 2,2 6,15 93,65 102,69 104,48 169,24 202,-94 12,-44 20,-104 21,-152 -3,5 -4,12 -4,16 -3,29 5,2 -10,42 -18,49 -47,89 -90,117 -59,39 -132,33 -197,11l-24 -9z"/>
   <path class="fil11" d="M4344 3326c1,3 2,3 -2,2 0,4 0,3 -1,5 -3,4 -1,2 -4,4 1,3 2,2 -2,2 1,3 2,2 -1,2 0,3 1,2 -3,2l-92 126c17,13 130,41 155,19 0,-4 -1,-3 3,-2 -2,-5 -2,-3 2,-2 4,-4 4,-1 8,-7 17,-25 3,-61 -9,-84 -7,-14 -42,-69 -51,-72 -1,9 -1,4 -3,5z"/>
   <path class="fil12" d="M2654 4413c-6,4 -1,1 -6,7 -10,12 -32,31 -45,39 -63,37 -121,-3 -156,-55 -3,-4 -16,-25 -20,-26l16 -1c-5,-3 -15,-2 -21,-3l-66 -7c6,17 48,74 60,90 19,24 49,55 78,71 88,51 136,-53 160,-115z"/>
   <path class="fil11" d="M2443 4377l-16 1c4,1 17,22 20,26 35,52 93,92 156,55 13,-8 35,-27 45,-39 5,-6 0,-3 6,-7 4,-12 12,-25 12,-38 -9,-7 -9,-7 -23,-4l-83 6c-18,1 -110,-2 -117,0z"/>
   <path class="fil11" d="M2467 2956c-4,6 -8,10 -12,17 -10,18 -9,49 2,62 1,0 26,40 69,30 86,-19 55,-144 -26,-126 -16,3 -23,10 -33,17z"/>
   <path class="fil11" d="M3615 2381c10,85 132,76 129,-9 -2,-34 -31,-63 -70,-60 -32,2 -63,32 -59,69z"/>
   <path class="fil6" d="M4411 2885c68,-3 92,12 142,42 7,4 3,1 8,6 5,5 11,9 16,14 20,18 35,35 51,61 12,19 25,46 30,69l3 8c1,3 1,2 2,3 0,-12 -5,-1 -1,-26 1,-10 2,-18 3,-27 8,-99 -36,-166 -141,-163 -19,1 -38,3 -56,7 -10,1 -15,4 -25,3 -5,0 -10,-1 -16,-1l-11 1c-4,2 -2,1 -5,3z"/>
   <path class="fil5" d="M5076 6652l3 2c-6,25 -9,67 -4,95 12,61 8,61 29,124l7 17 20 -9c-12,-68 -15,-139 4,-206 3,-8 11,-30 11,-36 -10,0 -24,3 -35,6 -6,1 -13,2 -18,3 -6,1 -12,1 -17,4z"/>
   <path class="fil12" d="M3868 4109c-7,-3 -2,-1 -4,3 8,-1 4,0 4,-3 22,0 49,-30 60,-50 42,-77 37,-200 31,-286l-53 45c-8,7 -15,11 -17,17 -4,-2 -3,-2 -3,2 5,1 5,2 3,-2l4 -2c0,6 8,29 10,35 12,39 21,79 22,120 1,43 -6,77 -33,106l-22 14c-1,0 -1,1 -2,1z"/>
   <path class="fil12" d="M4191 3530c-3,-1 -2,-2 -1,2 -4,-1 -3,-2 -2,1 -3,-1 -2,-1 -2,2 -3,0 -2,0 -1,2 -5,2 -3,0 -4,5 -4,-1 -3,-1 -2,2 -3,-1 -2,-1 -2,2 -3,-1 -2,-1 -1,2 -3,-1 -2,-1 -2,1 -3,1 -2,-1 -2,3 -4,-1 -3,-1 -2,2 -3,-1 -2,-1 -1,2 -3,0 -2,-1 -2,2 -3,-1 -2,-1 -3,2 4,0 4,1 3,-2 3,1 2,1 2,-2 3,1 2,2 1,-2 4,1 3,2 2,-2 3,-1 3,4 2,-3 3,1 2,2 2,-1 3,0 2,1 1,-2 3,1 3,1 2,-2 3,1 3,1 2,-2 4,-2 2,5 4,-5 2,1 2,1 1,-2 3,1 3,1 2,-2 3,1 3,2 2,-1 3,1 2,1 1,-2 5,-2 0,1 4,-2 5,-5 -1,-1 2,-3 9,19 19,52 24,74 13,48 22,125 -23,159 -42,32 -59,11 -79,16 14,10 67,7 91,-11 60,-45 32,-182 17,-248 -3,-11 -2,-14 -13,-16 -5,7 -21,23 -23,31z"/>
   <path class="fil12" d="M4347 3321c-4,2 -2,0 -3,5 -3,-1 -3,-1 -2,2 -5,3 -4,2 -5,9 -3,-1 -2,-1 -2,2 -3,-1 -2,-2 -1,2 -3,-1 -2,-1 -3,2 4,0 3,1 3,-2 3,0 2,1 1,-2 4,0 3,1 2,-2 3,-2 1,0 4,-4 1,-2 1,-1 1,-5 4,1 3,1 2,-2 2,-1 2,4 3,-5 9,3 44,58 51,72 12,23 26,59 9,84 -4,6 -4,3 -8,7 -4,-1 -4,-3 -2,2 -4,-1 -3,-2 -3,2 4,0 4,2 3,-2 3,1 3,2 2,-2 14,-1 24,-26 25,-43 5,-46 -23,-134 -43,-171 -5,2 -20,28 -26,36l-6 10c-2,4 -1,1 -2,5z"/>
  </g>
 </g>
</svg>
