<?xml version="1.0" encoding="UTF-8" standalone="no"?>
<!-- Created with Inkscape (http://www.inkscape.org/) -->

<svg
   width="100mm"
   height="100mm"
   viewBox="0 0 100 100"
   version="1.1"
   id="svg5"
   inkscape:version="1.1.2 (0a00cf5339, 2022-02-04)"
   sodipodi:docname="LPJEXWEGLD-2bccc4.svg"
   inkscape:export-filename="D:\Dev\projects\jex-graphics\LPJEXWEGLD-2bccc4.png"
   inkscape:export-xdpi="1820.4399"
   inkscape:export-ydpi="1820.4399"
   xmlns:inkscape="http://www.inkscape.org/namespaces/inkscape"
   xmlns:sodipodi="http://sodipodi.sourceforge.net/DTD/sodipodi-0.dtd"
   xmlns:xlink="http://www.w3.org/1999/xlink"
   xmlns="http://www.w3.org/2000/svg"
   xmlns:svg="http://www.w3.org/2000/svg">
  <sodipodi:namedview
     id="namedview7"
     pagecolor="#ffffff"
     bordercolor="#666666"
     borderopacity="1.0"
     inkscape:pageshadow="2"
     inkscape:pageopacity="0.0"
     inkscape:pagecheckerboard="0"
     inkscape:document-units="mm"
     showgrid="false"
     inkscape:zoom="1.5001964"
     inkscape:cx="322.95771"
     inkscape:cy="272.96426"
     inkscape:window-width="1850"
     inkscape:window-height="1136"
     inkscape:window-x="0"
     inkscape:window-y="0"
     inkscape:window-maximized="1"
     inkscape:current-layer="layer1" />
  <defs
     id="defs2">
    <style
       id="style824">.cls-1{fill:url(#Dégradé_sans_nom_13);}.cls-2,.cls-3,.cls-4,.cls-5,.cls-6,.cls-7{stroke:#fff;stroke-miterlimit:10;}.cls-2,.cls-3,.cls-4,.cls-5{stroke-width:7.20979px;}.cls-2{fill:url(#Dégradé_sans_nom_13-2);}.cls-3{fill:url(#Dégradé_sans_nom_13-3);}.cls-4{fill:url(#Dégradé_sans_nom_13-4);}.cls-5{fill:url(#Dégradé_sans_nom_13-5);}.cls-6{fill:none;}.cls-6,.cls-7{stroke-width:5.04685px;}.cls-7{fill:url(#Dégradé_sans_nom_13-6);}.cls-8{fill:url(#Dégradé_sans_nom_13-7);}</style>
    <linearGradient
       id="Dégradé_sans_nom_13"
       y1="70.701958"
       x2="141.40392"
       y2="70.701958"
       gradientUnits="userSpaceOnUse">
      <stop
         offset="0"
         stop-color="#00a19a"
         id="stop826" />
      <stop
         offset="1"
         stop-color="#29235c"
         id="stop828" />
    </linearGradient>
    <linearGradient
       id="Dégradé_sans_nom_13-2"
       x1="230.90323"
       y1="549.74615"
       x2="260.31412"
       y2="549.74615"
       gradientTransform="rotate(-15.00005,-1727.3378,1084.483)"
       xlink:href="#D%C3%A9grad%C3%A9_sans_nom_13" />
    <linearGradient
       id="Dégradé_sans_nom_13-3"
       x1="230.90323"
       y1="569.2901"
       x2="256.85846"
       y2="569.2901"
       gradientTransform="rotate(-15.00002,-1727.3417,1084.4848)"
       xlink:href="#D%C3%A9grad%C3%A9_sans_nom_13" />
    <linearGradient
       id="Dégradé_sans_nom_13-4"
       x1="295.79135"
       y1="549.82367"
       x2="321.74658"
       y2="549.82367"
       gradientTransform="rotate(-15.00002,-1727.3417,1084.4848)"
       xlink:href="#D%C3%A9grad%C3%A9_sans_nom_13" />
    <linearGradient
       id="Dégradé_sans_nom_13-5"
       x1="292.63248"
       y1="569.93652"
       x2="318.58771"
       y2="569.93652"
       gradientTransform="rotate(-15.00002,-1727.3417,1084.4848)"
       xlink:href="#D%C3%A9grad%C3%A9_sans_nom_13" />
    <linearGradient
       id="Dégradé_sans_nom_13-6"
       x1="54.986301"
       y1="19.83567"
       x2="88.994949"
       y2="19.83567"
       xlink:href="#D%C3%A9grad%C3%A9_sans_nom_13" />
    <linearGradient
       id="Dégradé_sans_nom_13-7"
       x1="249.84595"
       y1="618.40613"
       x2="299.38873"
       y2="618.40613"
       xlink:href="#D%C3%A9grad%C3%A9_sans_nom_13" />
    <clipPath
       id="clip0_411_785">
      <rect
         width="200"
         height="200"
         fill="white"
         id="rect1108" />
    </clipPath>
    <style
       id="style1077">.cls-1{fill:url(#Dégradé_sans_nom_13);}.cls-2,.cls-3,.cls-4,.cls-5,.cls-6,.cls-7{stroke:#fff;stroke-miterlimit:10;}.cls-2,.cls-3,.cls-4,.cls-5{stroke-width:7.20979px;}.cls-2{fill:url(#Dégradé_sans_nom_13-2);}.cls-3{fill:url(#Dégradé_sans_nom_13-3);}.cls-4{fill:url(#Dégradé_sans_nom_13-4);}.cls-5{fill:url(#Dégradé_sans_nom_13-5);}.cls-6{fill:none;}.cls-6,.cls-7{stroke-width:5.04685px;}.cls-7{fill:url(#Dégradé_sans_nom_13-6);}.cls-8{fill:url(#Dégradé_sans_nom_13-7);}</style>
    <linearGradient
       id="Dégradé_sans_nom_13-28"
       y1="70.70196"
       x2="141.40391"
       y2="70.70196"
       gradientUnits="userSpaceOnUse">
      <stop
         offset="0"
         stop-color="#00a19a"
         id="stop1079" />
      <stop
         offset="1"
         stop-color="#29235c"
         id="stop1081" />
    </linearGradient>
    <linearGradient
       id="Dégradé_sans_nom_13-2-2"
       x1="230.90323"
       y1="549.74614"
       x2="260.31412"
       y2="549.74614"
       gradientTransform="rotate(-15.00005,-1727.3378,1084.483)"
       xlink:href="#Dégradé_sans_nom_13-28" />
    <linearGradient
       id="Dégradé_sans_nom_13-3-2"
       x1="230.90323"
       y1="569.2901"
       x2="256.85847"
       y2="569.2901"
       gradientTransform="rotate(-15.00002,-1727.3417,1084.4848)"
       xlink:href="#Dégradé_sans_nom_13-28" />
    <linearGradient
       id="Dégradé_sans_nom_13-4-9"
       x1="295.79134"
       y1="549.82367"
       x2="321.74658"
       y2="549.82367"
       gradientTransform="rotate(-15.00002,-1727.3417,1084.4848)"
       xlink:href="#Dégradé_sans_nom_13-28" />
    <linearGradient
       id="Dégradé_sans_nom_13-5-8"
       x1="292.63248"
       y1="569.93651"
       x2="318.58772"
       y2="569.93651"
       gradientTransform="rotate(-15.00002,-1727.3417,1084.4848)"
       xlink:href="#Dégradé_sans_nom_13-28" />
    <clipPath
       id="clip0_639_988">
      <rect
         width="200"
         height="200"
         fill="white"
         id="rect1590" />
    </clipPath>
  </defs>
  <g
     inkscape:label="Calque 1"
     inkscape:groupmode="layer"
     id="layer1">
    <g
       id="g1170"
       transform="matrix(0.27949534,0,0,0.2801665,7.9804314,11.51935)">
      <g
         id="Grid"
         display="none">
	<rect
   x="-0.039000001"
   display="inline"
   width="192"
   height="192"
   id="rect1137"
   y="0" />

	<line
   display="inline"
   fill="none"
   x1="-0.039000001"
   y1="0"
   x2="-0.039000001"
   y2="-14.477"
   id="line1139" />

	<line
   display="inline"
   fill="none"
   x1="191.961"
   y1="0"
   x2="191.961"
   y2="-14.477"
   id="line1141" />

	<line
   display="inline"
   fill="none"
   x1="191.961"
   y1="0"
   x2="206.438"
   y2="0"
   id="line1143" />

	<line
   display="inline"
   fill="none"
   x1="-0.039000001"
   y1="192"
   x2="-0.039000001"
   y2="206.47701"
   id="line1145" />

	<line
   display="inline"
   fill="none"
   x1="191.961"
   y1="192"
   x2="191.961"
   y2="206.47701"
   id="line1147" />

	<line
   display="inline"
   fill="none"
   x1="191.961"
   y1="192"
   x2="206.438"
   y2="192"
   id="line1149" />

</g>
      <g
         id="Layer_2">
	<path
   fill="#00a19a"
   d="m 19.545,143.155 c -0.984,2.694 -1.667,5.488 -2.035,8.333 C -13.241,108.298 -3.157,48.356 40.033,17.604 76.988,-8.708 127.317,-5.56 160.704,25.151 c 0,0 -34.253,33.907 -45.196,43.124 -15.131,12.749 -35.866,29.414 -40.474,24.921 -4.608,-4.493 33.83,-67.853 33.83,-67.853 0,0 -44.889,71.501 -51.532,67.2 -6.643,-4.301 3.226,-63.437 3.226,-63.437 0,0 -21.082,87.667 -29.03,86.093 -3.84,-0.729 -4.301,-21.658 -4.109,-34.253 -0.539,15.861 -2.382,47.195 -7.874,62.209 z m 96.846,-29.222 c 6.489,8.947 59.98,-19.814 59.98,-19.814 0,0 -53.223,29.53 -62.055,37.095 -8.832,7.565 -12.402,16.243 -4.915,18.547 14.745,4.34 66.739,-6.912 66.739,-6.912 0,0 -92.16,23.77 -92.467,31.795 -0.423,7.412 24.96,7.681 28.8,7.681 v 0 c -1.92,0 -10.214,0 -43.776,0.384 -5.53,0 -9.869,0.308 -12.826,0.537 48.122,22.256 105.175,1.285 127.429,-46.838 15.789,-34.143 10.184,-74.36 -14.341,-102.883 0.001,-0.002 -58.252,72.69 -52.568,80.408 z M 107.827,92.505 C 122.572,86.592 192,0 192,0 192,0 87.897,100.492 107.827,92.505 Z m -24.998,29.339 c -7.027,-7.681 -32.025,6.259 -43.699,16.857 -9.216,8.332 -13.44,19.199 -11.52,27.455 1.503,-4.378 4.353,-8.168 8.141,-10.828 7.411,-5.568 16.089,-6.49 19.43,-2.074 3.341,4.416 0,12.52 -7.411,18.087 -3.006,2.315 -6.521,3.882 -10.253,4.569 7.68,1.997 18.317,-1.268 26.88,-9.101 C 76.301,156.25 89.856,129.6 82.829,121.844 Z"
   id="path1152" />

</g>
    </g>
    <g
       style="fill:none"
       id="g1607"
       transform="matrix(0.26458333,0,0,0.26458333,41.266133,36.681945)">
      <g
         clip-path="url(#clip0_639_988)"
         id="g1588">
        <path
           d="m 161.82,144.3 c 2.87,4.54 4.53,9.92 4.53,15.7 0,16.25 -13.12,29.38 -29.38,29.38 -16.26,0 -29.37,-13.13 -29.37,-29.38 0,-7.08 2.5,-13.44 6.56,-18.54 0.31,-0.42 0.62,-0.83 1.04,-1.15 5.42,-5.94 13.12,-9.69 21.77,-9.69 5.68,0 10.97,1.6 15.46,4.38 3.8,2.35 7.01,5.53 9.39,9.3 z"
           fill="#2775ca"
           id="path1578" />
        <path
           d="m 174.59,166.75 c 0.4,-2.23 0.62,-4.52 0.62,-6.86 0,-9.01 -3.15,-17.31 -8.41,-23.86 -2.83,-3.53 -6.27,-6.54 -10.16,-8.89 -5.75,-3.47 -12.48,-5.48 -19.66,-5.48 -3.68,0 -7.32,0.55 -10.79,1.59 -6.46,1.94 -12.38,5.58 -17.12,10.59 -0.83,0.83 -1.46,1.67 -1.88,2.19 -3.64,4.6 -6.14,9.74 -7.43,15.21 -0.67,2.84 -1.01,5.76 -1.01,8.75 0,17.23 11.52,31.88 27.25,36.62 -8.29,2.21 -17,3.38 -26,3.38 C 44.58,200 0,155.42 0,100 0,44.58 44.58,0 100,0 c 55.42,0 100,44.58 100,100 0,25.7 -9.59,49.08 -25.41,66.75 z"
           fill="#000000"
           id="path1580" />
        <path
           fill-rule="evenodd"
           clip-rule="evenodd"
           d="m 158.802,128.546 0.055,-0.106 -1.01,-0.54 c 0.322,0.211 0.64,0.426 0.955,0.646 z m -6.986,-3.871 c -4.566,-1.938 -9.58,-3.015 -14.836,-3.015 -3.68,0 -7.32,0.55 -10.79,1.59 -4.851,1.457 -9.398,3.873 -13.369,7.107 l -10.896,-4.416 c -1.235,-0.504 -2.6148,-0.504 -3.85,0 L 49.9852,145.529 41.1426,128.535 93.6334,100.416 41.1426,72.2971 49.9852,55.3037 98.075,74.7426 c 1.2352,0.5028 2.615,0.5028 3.85,0 l 48.09,-19.4389 8.816,16.9389 -52.492,28.1184 z"
           fill="#23f7dd"
           id="path1582" />
        <path
           d="m 166.35,160 c 0,16.25 -13.12,29.38 -29.38,29.38 -16.26,0 -29.37,-13.13 -29.37,-29.38 0,-7.08 2.5,-13.44 6.56,-18.54 0.31,-0.42 0.62,-0.83 1.04,-1.15 5.42,-5.94 13.12,-9.69 21.77,-9.69 5.68,0 10.97,1.6 15.46,4.38 3.79,2.34 7,5.53 9.38,9.29 2.88,4.55 4.54,9.93 4.54,15.71 z"
           fill="#ffffff"
           id="path1584" />
        <path
           d="m 126.696,174.6 h 5.256 l 5.004,-16.776 5.004,16.776 h 5.328 l 7.452,-25.2 h -5.472 l -4.86,17.244 -5.184,-17.244 h -4.572 l -5.148,17.244 -4.824,-17.244 h -5.472 z"
           fill="#000000"
           id="path1586" />
      </g>
    </g>
  </g>
</svg>
