<svg xmlns="http://www.w3.org/2000/svg" width="200" height="200" viewBox="0 0 200 200" version="1.1"><path d="M 87.269 0.693 C 88.242 0.947, 89.592 0.930, 90.269 0.656 C 90.946 0.382, 90.150 0.175, 88.500 0.195 C 86.850 0.215, 86.296 0.439, 87.269 0.693 M 109.269 0.693 C 110.242 0.947, 111.592 0.930, 112.269 0.656 C 112.946 0.382, 112.150 0.175, 110.500 0.195 C 108.850 0.215, 108.296 0.439, 109.269 0.693 M 80.813 1.683 C 81.534 1.972, 82.397 1.936, 82.729 1.604 C 83.061 1.272, 82.471 1.036, 81.417 1.079 C 80.252 1.127, 80.015 1.364, 80.813 1.683 M 116.813 1.683 C 117.534 1.972, 118.397 1.936, 118.729 1.604 C 119.061 1.272, 118.471 1.036, 117.417 1.079 C 116.252 1.127, 116.015 1.364, 116.813 1.683 M 121.813 2.683 C 122.534 2.972, 123.397 2.936, 123.729 2.604 C 124.061 2.272, 123.471 2.036, 122.417 2.079 C 121.252 2.127, 121.015 2.364, 121.813 2.683 M 138 8 C 138.825 8.533, 139.950 8.969, 140.500 8.969 C 141.050 8.969, 140.825 8.533, 140 8 C 139.175 7.467, 138.050 7.031, 137.500 7.031 C 136.950 7.031, 137.175 7.467, 138 8 M 54.750 10.068 C 52.688 11.157, 51 12.271, 51 12.544 C 51 12.990, 58.899 9.298, 59.917 8.377 C 61.067 7.336, 58.064 8.319, 54.750 10.068 M 148 12.430 C 148 12.705, 148.900 13.411, 150 14 C 151.100 14.589, 152 14.845, 152 14.570 C 152 14.295, 151.100 13.589, 150 13 C 148.900 12.411, 148 12.155, 148 12.430 M 75.831 14.035 C 74.913 14.570, 72.737 19.285, 70.996 24.511 C 69.255 29.737, 67.445 33.775, 66.973 33.484 C 63.970 31.628, 47.186 32.066, 44.643 34.066 C 38.176 39.153, 42.301 45, 52.354 45 C 59.051 45, 59.051 45, 57.553 47.898 C 55.620 51.635, 54.056 58.682, 53.520 66.063 C 53.286 69.282, 52.455 73.173, 51.674 74.708 C 49.403 79.172, 47 90.163, 47.005 96.064 C 47.017 109.577, 42.575 116.095, 33.850 115.367 C 24.884 114.619, 22 116.010, 22 121.084 C 22 126.031, 24.301 127.332, 35.129 128.504 C 44.139 129.480, 45.606 131.733, 42.881 140.415 C 40.759 147.175, 40.758 147.199, 42.727 149.846 C 46.731 155.230, 52.634 153.226, 54.831 145.738 C 57.762 135.746, 66.316 143.307, 65.586 155.245 C 65.044 164.115, 65.171 165.171, 66.995 166.995 C 71.967 171.967, 77.991 168.007, 78.015 159.750 C 78.034 153.493, 79.065 151.419, 81.649 152.440 C 99.932 159.662, 118.873 158.486, 126.074 149.682 C 132.091 142.326, 127.614 113.276, 119.113 104.504 C 114.436 99.678, 114.359 99.859, 122.047 97.654 C 142.993 91.644, 153.276 70.325, 141.280 57.777 C 138.576 54.947, 137.618 54.581, 117 48.474 C 110.125 46.437, 104.386 44.672, 104.247 44.550 C 104.108 44.428, 104.896 41.709, 105.997 38.508 C 109.617 27.986, 108.049 22, 101.671 22 C 98.450 22, 95 25.187, 95 28.162 C 95 30.994, 91.835 41, 90.940 41 C 90.557 41, 88.727 40.391, 86.872 39.648 C 85.017 38.904, 82.718 38.020, 81.762 37.684 C 80.170 37.123, 80.275 36.390, 83.012 28.968 C 87.695 16.267, 84.257 9.118, 75.831 14.035 M 159 19.378 C 159 19.585, 159.787 20.373, 160.750 21.128 C 162.336 22.371, 162.371 22.336, 161.128 20.750 C 159.821 19.084, 159 18.555, 159 19.378 M 35.405 23.250 C 33.500 25.500, 33.500 25.500, 35.750 23.595 C 37.864 21.805, 38.455 21, 37.655 21 C 37.465 21, 36.453 22.012, 35.405 23.250 M 170 29.500 C 173.543 33.075, 176.667 36, 176.942 36 C 177.217 36, 174.543 33.075, 171 29.500 C 167.457 25.925, 164.333 23, 164.058 23 C 163.783 23, 166.457 25.925, 170 29.500 M 28.405 29.250 C 26.500 31.500, 26.500 31.500, 28.750 29.595 C 29.988 28.547, 31 27.535, 31 27.345 C 31 26.545, 30.195 27.136, 28.405 29.250 M 21.872 36.750 C 20.629 38.336, 20.664 38.371, 22.250 37.128 C 23.212 36.373, 24 35.585, 24 35.378 C 24 34.555, 23.179 35.084, 21.872 36.750 M 178 38.378 C 178 38.585, 178.787 39.373, 179.750 40.128 C 181.336 41.371, 181.371 41.336, 180.128 39.750 C 178.821 38.084, 178 37.555, 178 38.378 M 76.626 52.172 C 73.669 56.694, 70.989 63.857, 70.520 68.490 C 70.259 71.070, 69.280 75.609, 68.344 78.578 C 66.332 84.960, 66.239 84.818, 73.149 85.943 C 107.920 91.602, 133.997 84.824, 132.821 70.433 C 132.452 65.910, 135.998 67.411, 101.500 57.175 C 90.500 53.911, 80.746 50.926, 79.824 50.542 C 78.676 50.063, 77.670 50.576, 76.626 52.172 M 11 53 C 10.411 54.100, 10.155 55, 10.430 55 C 10.705 55, 11.411 54.100, 12 53 C 12.589 51.900, 12.845 51, 12.570 51 C 12.295 51, 11.589 51.900, 11 53 M 197.079 77.583 C 197.127 78.748, 197.364 78.985, 197.683 78.188 C 197.972 77.466, 197.936 76.603, 197.604 76.271 C 197.272 75.939, 197.036 76.529, 197.079 77.583 M 1.079 81.583 C 1.127 82.748, 1.364 82.985, 1.683 82.188 C 1.972 81.466, 1.936 80.603, 1.604 80.271 C 1.272 79.939, 1.036 80.529, 1.079 81.583 M 0.195 88.500 C 0.215 90.150, 0.439 90.704, 0.693 89.731 C 0.947 88.758, 0.930 87.408, 0.656 86.731 C 0.382 86.054, 0.175 86.850, 0.195 88.500 M 199.158 88 C 199.158 89.375, 199.385 89.938, 199.662 89.250 C 199.940 88.563, 199.940 87.438, 199.662 86.750 C 199.385 86.063, 199.158 86.625, 199.158 88 M 65.188 100.486 C 64.558 101.869, 63.631 103, 63.127 103 C 62.624 103, 61.978 106.487, 61.691 110.750 C 61.405 115.013, 60.725 120.507, 60.181 122.960 C 58.960 128.466, 58.524 128.100, 75.097 135.491 C 103.046 147.956, 116.906 147.604, 115.679 134.462 C 113.863 115.022, 112.498 113.065, 97.171 107.924 C 91.302 105.955, 83.520 103.203, 79.877 101.807 C 69.222 97.726, 66.555 97.486, 65.188 100.486 M 0.195 111.500 C 0.215 113.150, 0.439 113.704, 0.693 112.731 C 0.947 111.758, 0.930 110.408, 0.656 109.731 C 0.382 109.054, 0.175 109.850, 0.195 111.500 M 199.195 112.500 C 199.215 114.150, 199.439 114.704, 199.693 113.731 C 199.947 112.758, 199.930 111.408, 199.656 110.731 C 199.382 110.054, 199.175 110.850, 199.195 112.500 M 1.079 117.583 C 1.127 118.748, 1.364 118.985, 1.683 118.188 C 1.972 117.466, 1.936 116.603, 1.604 116.271 C 1.272 115.939, 1.036 116.529, 1.079 117.583 M 198.079 118.583 C 198.127 119.748, 198.364 119.985, 198.683 119.188 C 198.972 118.466, 198.936 117.603, 198.604 117.271 C 198.272 116.939, 198.036 117.529, 198.079 118.583 M 2.079 122.583 C 2.127 123.748, 2.364 123.985, 2.683 123.188 C 2.972 122.466, 2.936 121.603, 2.604 121.271 C 2.272 120.939, 2.036 121.529, 2.079 122.583 M 197.079 123.583 C 197.127 124.748, 197.364 124.985, 197.683 124.188 C 197.972 123.466, 197.936 122.603, 197.604 122.271 C 197.272 121.939, 197.036 122.529, 197.079 123.583 M 176.872 163.750 C 175.629 165.336, 175.664 165.371, 177.250 164.128 C 178.916 162.821, 179.445 162, 178.622 162 C 178.415 162, 177.627 162.787, 176.872 163.750 M 23.500 165 C 24.495 166.100, 25.535 167, 25.810 167 C 26.085 167, 25.495 166.100, 24.500 165 C 23.505 163.900, 22.465 163, 22.190 163 C 21.915 163, 22.505 163.900, 23.500 165 M 170.437 171.250 C 167.500 174.500, 167.500 174.500, 170.750 171.563 C 173.779 168.825, 174.460 168, 173.687 168 C 173.515 168, 172.052 169.463, 170.437 171.250 M 35 176.500 C 36.292 177.875, 37.574 179, 37.849 179 C 38.124 179, 37.292 177.875, 36 176.500 C 34.708 175.125, 33.426 174, 33.151 174 C 32.876 174, 33.708 175.125, 35 176.500 M 162.872 177.750 C 161.629 179.336, 161.664 179.371, 163.250 178.128 C 164.916 176.821, 165.445 176, 164.622 176 C 164.415 176, 163.627 176.787, 162.872 177.750 M 39 179.378 C 39 179.585, 39.788 180.373, 40.750 181.128 C 42.336 182.371, 42.371 182.336, 41.128 180.750 C 39.821 179.084, 39 178.555, 39 179.378 M 148.441 187.555 C 146.577 189.049, 146.589 189.067, 148.750 188.020 C 149.988 187.420, 151 186.720, 151 186.465 C 151 185.700, 150.481 185.921, 148.441 187.555 M 76.813 197.683 C 77.534 197.972, 78.397 197.936, 78.729 197.604 C 79.061 197.272, 78.471 197.036, 77.417 197.079 C 76.252 197.127, 76.015 197.364, 76.813 197.683 M 122.813 197.683 C 123.534 197.972, 124.397 197.936, 124.729 197.604 C 125.061 197.272, 124.471 197.036, 123.417 197.079 C 122.252 197.127, 122.015 197.364, 122.813 197.683 M 80.813 198.683 C 81.534 198.972, 82.397 198.936, 82.729 198.604 C 83.061 198.272, 82.471 198.036, 81.417 198.079 C 80.252 198.127, 80.015 198.364, 80.813 198.683 M 117.813 198.683 C 118.534 198.972, 119.397 198.936, 119.729 198.604 C 120.061 198.272, 119.471 198.036, 118.417 198.079 C 117.252 198.127, 117.015 198.364, 117.813 198.683 M 86.750 199.662 C 87.438 199.940, 88.563 199.940, 89.250 199.662 C 89.938 199.385, 89.375 199.158, 88 199.158 C 86.625 199.158, 86.063 199.385, 86.750 199.662 M 111.269 199.693 C 112.242 199.947, 113.592 199.930, 114.269 199.656 C 114.946 199.382, 114.150 199.175, 112.500 199.195 C 110.850 199.215, 110.296 199.439, 111.269 199.693" stroke="none" fill="#fcf9f6" fill-rule="evenodd"/><path d="M 88 0.631 C 0.986 11.844, -30.878 122.951, 37.280 177.484 C 95.375 223.966, 183.399 192.927, 197.464 121 C 198.379 116.325, 199.548 111.118, 200.063 109.429 C 201.326 105.288, 201.277 90, 200 90 C 199.450 90, 198.993 88.763, 198.985 87.250 C 198.723 40.364, 139.337 -5.984, 88 0.631 M 75.831 14.035 C 74.913 14.570, 72.737 19.285, 70.996 24.511 C 69.255 29.737, 67.445 33.775, 66.973 33.484 C 63.970 31.628, 47.186 32.066, 44.643 34.066 C 38.176 39.153, 42.301 45, 52.354 45 C 59.051 45, 59.051 45, 57.553 47.898 C 55.620 51.635, 54.056 58.682, 53.520 66.063 C 53.286 69.282, 52.455 73.173, 51.674 74.708 C 49.403 79.172, 47 90.163, 47.005 96.064 C 47.017 109.577, 42.575 116.095, 33.850 115.367 C 24.884 114.619, 22 116.010, 22 121.084 C 22 126.031, 24.301 127.332, 35.129 128.504 C 44.139 129.480, 45.606 131.733, 42.881 140.415 C 40.759 147.175, 40.758 147.199, 42.727 149.846 C 46.731 155.230, 52.634 153.226, 54.831 145.738 C 57.762 135.746, 66.316 143.307, 65.586 155.245 C 65.044 164.115, 65.171 165.171, 66.995 166.995 C 71.967 171.967, 77.991 168.007, 78.015 159.750 C 78.034 153.493, 79.065 151.419, 81.649 152.440 C 99.932 159.662, 118.873 158.486, 126.074 149.682 C 132.091 142.326, 127.614 113.276, 119.113 104.504 C 114.436 99.678, 114.359 99.859, 122.047 97.654 C 142.993 91.644, 153.276 70.325, 141.280 57.777 C 138.576 54.947, 137.618 54.581, 117 48.474 C 110.125 46.437, 104.386 44.672, 104.247 44.550 C 104.108 44.428, 104.896 41.709, 105.997 38.508 C 109.617 27.986, 108.049 22, 101.671 22 C 98.450 22, 95 25.187, 95 28.162 C 95 30.994, 91.835 41, 90.940 41 C 90.557 41, 88.727 40.391, 86.872 39.648 C 85.017 38.904, 82.718 38.020, 81.762 37.684 C 80.170 37.123, 80.275 36.390, 83.012 28.968 C 87.695 16.267, 84.257 9.118, 75.831 14.035 M 76.626 52.172 C 73.669 56.694, 70.989 63.857, 70.520 68.490 C 70.259 71.070, 69.280 75.609, 68.344 78.578 C 66.332 84.960, 66.239 84.818, 73.149 85.943 C 107.920 91.602, 133.997 84.824, 132.821 70.433 C 132.452 65.910, 135.998 67.411, 101.500 57.175 C 90.500 53.911, 80.746 50.926, 79.824 50.542 C 78.676 50.063, 77.670 50.576, 76.626 52.172 M 0.360 100 C 0.360 105.225, 0.529 107.362, 0.735 104.750 C 0.941 102.138, 0.941 97.862, 0.735 95.250 C 0.529 92.638, 0.360 94.775, 0.360 100 M 65.188 100.486 C 64.558 101.869, 63.631 103, 63.127 103 C 62.624 103, 61.978 106.487, 61.691 110.750 C 61.405 115.013, 60.725 120.507, 60.181 122.960 C 58.960 128.466, 58.524 128.100, 75.097 135.491 C 103.046 147.956, 116.906 147.604, 115.679 134.462 C 113.863 115.022, 112.498 113.065, 97.171 107.924 C 91.302 105.955, 83.520 103.203, 79.877 101.807 C 69.222 97.726, 66.555 97.486, 65.188 100.486" stroke="none" fill="#fc9415" fill-rule="evenodd"/></svg>