<?xml version="1.0" encoding="UTF-8"?>
<!DOCTYPE svg PUBLIC "-//W3C//DTD SVG 1.1//EN" "http://www.w3.org/Graphics/SVG/1.1/DTD/svg11.dtd">
<svg xmlns="http://www.w3.org/2000/svg" version="1.1" width="200px" height="200px" style="shape-rendering:geometricPrecision; text-rendering:geometricPrecision; image-rendering:optimizeQuality; fill-rule:evenodd; clip-rule:evenodd" xmlns:xlink="http://www.w3.org/1999/xlink">
<g><path style="opacity:0.996" fill="#7b7055" d="M 83.5,-0.5 C 94.1667,-0.5 104.833,-0.5 115.5,-0.5C 119.582,0.622995 123.582,1.95633 127.5,3.5C 108.839,-0.473788 90.1724,-0.473788 71.5,3.5C 75.4181,1.95633 79.4181,0.622995 83.5,-0.5 Z"/></g>
<g><path style="opacity:1" fill="#947427" d="M 127.5,3.5 C 128.167,4.16667 128.833,4.83333 129.5,5.5C 127.488,4.98617 125.488,4.8195 123.5,5C 126.489,6.27275 129.489,7.43942 132.5,8.5C 132.5,9.16667 132.5,9.83333 132.5,10.5C 126.68,9.00062 121.013,7.33395 115.5,5.5C 118.083,4.90848 118.083,4.24182 115.5,3.5C 106.879,1.50299 98.2123,1.16965 89.5,2.5C 86.7294,2.42074 84.0627,2.92074 81.5,4C 83.0581,4.21003 84.3915,4.71003 85.5,5.5C 82.2722,6.54556 78.9389,7.21223 75.5,7.5C 74.1266,7.65668 72.7932,7.49001 71.5,7C 73.087,6.13759 74.7536,5.47093 76.5,5C 73.0869,4.52891 70.0869,5.36224 67.5,7.5C 65.5,7.83333 63.5,8.16667 61.5,8.5C 64.6582,6.44949 67.9915,4.78282 71.5,3.5C 90.1724,-0.473788 108.839,-0.473788 127.5,3.5 Z"/></g>
<g><path style="opacity:1" fill="#503908" d="M 89.5,2.5 C 89.5,3.16667 89.5,3.83333 89.5,4.5C 88.4324,5.43448 87.099,5.76781 85.5,5.5C 84.3915,4.71003 83.0581,4.21003 81.5,4C 84.0627,2.92074 86.7294,2.42074 89.5,2.5 Z"/></g>
<g><path style="opacity:1" fill="#2e210c" d="M 115.5,5.5 C 106.848,4.85388 98.1816,4.52055 89.5,4.5C 89.5,3.83333 89.5,3.16667 89.5,2.5C 98.2123,1.16965 106.879,1.50299 115.5,3.5C 118.083,4.24182 118.083,4.90848 115.5,5.5 Z"/></g>
<g><path style="opacity:1" fill="#d7c794" d="M 89.5,4.5 C 98.1816,4.52055 106.848,4.85388 115.5,5.5C 121.013,7.33395 126.68,9.00062 132.5,10.5C 133.167,11.1667 133.833,11.8333 134.5,12.5C 133.041,12.5674 131.708,12.2341 130.5,11.5C 112.886,5.81862 95.2197,5.15196 77.5,9.5C 73.1338,10.512 68.8004,11.3453 64.5,12C 68.1574,10.1776 71.8241,8.67763 75.5,7.5C 78.9389,7.21223 82.2722,6.54556 85.5,5.5C 87.099,5.76781 88.4324,5.43448 89.5,4.5 Z"/></g>
<g><path style="opacity:1" fill="#614a15" d="M 130.5,11.5 C 130.5,11.8333 130.5,12.1667 130.5,12.5C 112.985,6.95362 95.3181,6.28696 77.5,10.5C 77.5,10.1667 77.5,9.83333 77.5,9.5C 95.2197,5.15196 112.886,5.81862 130.5,11.5 Z"/></g>
<g><path style="opacity:1" fill="#9a7c32" d="M 129.5,5.5 C 133.615,6.09488 137.615,7.09488 141.5,8.5C 141.167,9.16667 140.833,9.83333 140.5,10.5C 136.845,8.62338 133.178,6.95672 129.5,5.5 Z"/></g>
<g><path style="opacity:0.306" fill="#585141" d="M 127.5,3.5 C 132.669,3.99901 137.336,5.66567 141.5,8.5C 137.615,7.09488 133.615,6.09488 129.5,5.5C 128.833,4.83333 128.167,4.16667 127.5,3.5 Z"/></g>
<g><path style="opacity:1" fill="#cfa745" d="M 75.5,7.5 C 71.8241,8.67763 68.1574,10.1776 64.5,12C 68.8004,11.3453 73.1338,10.512 77.5,9.5C 77.5,9.83333 77.5,10.1667 77.5,10.5C 71.7143,11.5363 66.381,13.5363 61.5,16.5C 56.9317,18.4027 52.5984,20.736 48.5,23.5C 50.3713,21.3724 52.038,19.0391 53.5,16.5C 57.8634,12.9876 62.5301,9.98757 67.5,7.5C 70.0869,5.36224 73.0869,4.52891 76.5,5C 74.7536,5.47093 73.087,6.13759 71.5,7C 72.7932,7.49001 74.1266,7.65668 75.5,7.5 Z"/></g>
<g><path style="opacity:1" fill="#877346" d="M 71.5,3.5 C 67.9915,4.78282 64.6582,6.44949 61.5,8.5C 57.3338,11.0841 53.0004,13.4174 48.5,15.5C 47.8333,15.5 47.1667,15.5 46.5,15.5C 46.8333,14.8333 47.1667,14.1667 47.5,13.5C 54.7701,8.5351 62.7701,5.20177 71.5,3.5 Z"/></g>
<g><path style="opacity:1" fill="#f3dfa0" d="M 67.5,7.5 C 62.5301,9.98757 57.8634,12.9876 53.5,16.5C 53.44,15.9569 53.1067,15.6236 52.5,15.5C 50.9246,16.4565 49.258,17.1231 47.5,17.5C 47.8333,16.8333 48.1667,16.1667 48.5,15.5C 53.0004,13.4174 57.3338,11.0841 61.5,8.5C 63.5,8.16667 65.5,7.83333 67.5,7.5 Z"/></g>
<g><path style="opacity:1" fill="#e10a12" d="M 121.5,13.5 C 88.4053,56.0237 55.0719,98.357 21.5,140.5C 16.9315,131.859 13.9315,122.692 12.5,113C 12.5419,111.033 13.0419,109.199 14,107.5C 39.761,76.2465 64.9276,44.5798 89.5,12.5C 90.2891,12.2172 90.9558,11.7172 91.5,11C 101.804,9.89761 111.804,10.7309 121.5,13.5 Z"/></g>
<g><path style="opacity:1" fill="#1e1105" d="M 130.5,12.5 C 137.34,15.7502 143.673,19.7502 149.5,24.5C 148.041,24.4326 146.708,24.7659 145.5,25.5C 144.969,23.3763 143.635,21.8763 141.5,21C 135.069,17.8018 128.402,15.3018 121.5,13.5C 111.804,10.7309 101.804,9.89761 91.5,11C 90.9558,11.7172 90.2891,12.2172 89.5,12.5C 80.6837,11.0631 72.3503,12.7298 64.5,17.5C 63.5832,16.8728 62.5832,16.5394 61.5,16.5C 66.381,13.5363 71.7143,11.5363 77.5,10.5C 95.3181,6.28696 112.985,6.95362 130.5,12.5 Z"/></g>
<g><path style="opacity:1" fill="#dfbb5f" d="M 132.5,8.5 C 137.638,10.5685 142.305,13.4019 146.5,17C 145.906,17.4643 145.239,17.631 144.5,17.5C 141.093,15.8195 137.759,14.1528 134.5,12.5C 133.833,11.8333 133.167,11.1667 132.5,10.5C 132.5,9.83333 132.5,9.16667 132.5,8.5 Z"/></g>
<g><path style="opacity:1" fill="#f6c11f" d="M 121.5,13.5 C 128.402,15.3018 135.069,17.8018 141.5,21C 143.635,21.8763 144.969,23.3763 145.5,25.5C 140.783,30.8821 136.45,36.5487 132.5,42.5C 131.833,42.5 131.5,42.8333 131.5,43.5C 103.149,79.1897 75.1487,115.19 47.5,151.5C 44.7474,155.32 41.7474,158.986 38.5,162.5C 31.8567,155.859 26.19,148.525 21.5,140.5C 55.0719,98.357 88.4053,56.0237 121.5,13.5 Z"/></g>
<g><path style="opacity:1" fill="#fdf5db" d="M 53.5,16.5 C 46.4563,22.5193 39.1229,28.1859 31.5,33.5C 27.8362,37.3322 24.3362,41.3322 21,45.5C 20.5357,44.9056 20.369,44.2389 20.5,43.5C 25.5841,38.752 29.9174,33.4187 33.5,27.5C 37.4918,23.1754 42.1585,19.842 47.5,17.5C 49.258,17.1231 50.9246,16.4565 52.5,15.5C 53.1067,15.6236 53.44,15.9569 53.5,16.5 Z"/></g>
<g><path style="opacity:1" fill="#030201" d="M 89.5,12.5 C 64.9276,44.5798 39.761,76.2465 14,107.5C 13.0419,109.199 12.5419,111.033 12.5,113C 13.9315,122.692 16.9315,131.859 21.5,140.5C 26.19,148.525 31.8567,155.859 38.5,162.5C 41.7474,158.986 44.7474,155.32 47.5,151.5C 58.1719,151.667 68.8385,151.5 79.5,151C 97.2116,127.077 115.045,103.244 133,79.5C 133.495,81.4727 133.662,83.4727 133.5,85.5C 132.508,93.3159 132.174,101.316 132.5,109.5C 129.287,109.19 126.287,109.523 123.5,110.5C 118.916,117.332 114.583,124.332 110.5,131.5C 109.957,131.56 109.624,131.893 109.5,132.5C 116.803,133.497 124.137,133.831 131.5,133.5C 131.178,139.358 131.511,145.025 132.5,150.5C 141.318,151.493 150.318,151.827 159.5,151.5C 159.5,115.167 159.5,78.8333 159.5,42.5C 150.5,42.5 141.5,42.5 132.5,42.5C 136.45,36.5487 140.783,30.8821 145.5,25.5C 146.708,24.7659 148.041,24.4326 149.5,24.5C 161.415,32.3345 171.082,42.3345 178.5,54.5C 181.048,58.9301 183.048,63.5968 184.5,68.5C 185.327,71.1317 186.16,73.7983 187,76.5C 187.232,75.2625 187.732,74.2625 188.5,73.5C 191.112,84.3218 192.112,95.3218 191.5,106.5C 190.969,116.073 188.635,125.073 184.5,133.5C 178.548,145.752 170.882,156.752 161.5,166.5C 138.168,185.337 111.502,192.67 81.5,188.5C 57.5425,182.692 38.5425,169.692 24.5,149.5C 12.5608,131.328 7.56081,111.328 9.5,89.5C 11.6659,70.1784 18.9992,53.1784 31.5,38.5C 33.9095,37.2993 35.9095,35.6326 37.5,33.5C 41.4383,30.3813 45.105,27.048 48.5,23.5C 52.5984,20.736 56.9317,18.4027 61.5,16.5C 62.5832,16.5394 63.5832,16.8728 64.5,17.5C 72.3503,12.7298 80.6837,11.0631 89.5,12.5 Z"/></g>
<g><path style="opacity:1" fill="#645943" d="M 130.5,11.5 C 131.708,12.2341 133.041,12.5674 134.5,12.5C 137.759,14.1528 141.093,15.8195 144.5,17.5C 159.118,26.1178 170.785,37.7845 179.5,52.5C 179.137,53.1835 178.804,53.8501 178.5,54.5C 171.082,42.3345 161.415,32.3345 149.5,24.5C 143.673,19.7502 137.34,15.7502 130.5,12.5C 130.5,12.1667 130.5,11.8333 130.5,11.5 Z"/></g>
<g><path style="opacity:1" fill="#f2e6ba" d="M 53.5,16.5 C 52.038,19.0391 50.3713,21.3724 48.5,23.5C 45.105,27.048 41.4383,30.3813 37.5,33.5C 37.6309,32.6236 37.2975,31.9569 36.5,31.5C 35.1502,32.9501 33.4835,33.6168 31.5,33.5C 39.1229,28.1859 46.4563,22.5193 53.5,16.5 Z"/></g>
<g><path style="opacity:0.733" fill="#5b533e" d="M 171.5,29.5 C 173.914,30.9108 175.581,32.9108 176.5,35.5C 174.086,34.0892 172.419,32.0892 171.5,29.5 Z"/></g>
<g><path style="opacity:1" fill="#f3e2af" d="M 129.5,5.5 C 133.178,6.95672 136.845,8.62338 140.5,10.5C 165.624,22.2873 182.624,41.2873 191.5,67.5C 190.659,68.9264 189.659,70.2597 188.5,71.5C 187.768,70.1917 186.934,68.8584 186,67.5C 185.617,68.056 185.117,68.3893 184.5,68.5C 183.048,63.5968 181.048,58.9301 178.5,54.5C 178.804,53.8501 179.137,53.1835 179.5,52.5C 170.785,37.7845 159.118,26.1178 144.5,17.5C 145.239,17.631 145.906,17.4643 146.5,17C 142.305,13.4019 137.638,10.5685 132.5,8.5C 129.489,7.43942 126.489,6.27275 123.5,5C 125.488,4.8195 127.488,4.98617 129.5,5.5 Z"/></g>
<g><path style="opacity:1" fill="#f2d88d" d="M 33.5,27.5 C 29.9174,33.4187 25.5841,38.752 20.5,43.5C 24.0826,37.5813 28.4159,32.248 33.5,27.5 Z"/></g>
<g><path style="opacity:1" fill="#fdfcfc" d="M 131.5,43.5 C 140.5,43.5 149.5,43.5 158.5,43.5C 158.5,79.1667 158.5,114.833 158.5,150.5C 149.833,150.5 141.167,150.5 132.5,150.5C 132.5,144.5 132.5,138.5 132.5,132.5C 124.981,132.825 117.648,132.492 110.5,131.5C 114.583,124.332 118.916,117.332 123.5,110.5C 126.833,110.5 130.167,110.5 133.5,110.5C 133.5,102.167 133.5,93.8333 133.5,85.5C 133.662,83.4727 133.495,81.4727 133,79.5C 115.045,103.244 97.2116,127.077 79.5,151C 68.8385,151.5 58.1719,151.667 47.5,151.5C 75.1487,115.19 103.149,79.1897 131.5,43.5 Z"/></g>
<g><path style="opacity:1" fill="#b9b9b8" d="M 131.5,43.5 C 131.5,42.8333 131.833,42.5 132.5,42.5C 141.5,42.5 150.5,42.5 159.5,42.5C 159.5,78.8333 159.5,115.167 159.5,151.5C 150.318,151.827 141.318,151.493 132.5,150.5C 141.167,150.5 149.833,150.5 158.5,150.5C 158.5,114.833 158.5,79.1667 158.5,43.5C 149.5,43.5 140.5,43.5 131.5,43.5 Z"/></g>
<g><path style="opacity:1" fill="#92783b" d="M 141.5,8.5 C 153.165,13.1716 163.165,20.1716 171.5,29.5C 172.419,32.0892 174.086,34.0892 176.5,35.5C 185.959,45.7468 192.292,57.7468 195.5,71.5C 194.768,70.1917 193.934,68.8584 193,67.5C 193.135,69.4247 193.302,71.4247 193.5,73.5C 192.262,71.7857 191.595,69.7857 191.5,67.5C 182.624,41.2873 165.624,22.2873 140.5,10.5C 140.833,9.83333 141.167,9.16667 141.5,8.5 Z"/></g>
<g><path style="opacity:1" fill="#f8d77b" d="M 37.5,33.5 C 35.9095,35.6326 33.9095,37.2993 31.5,38.5C 30.9232,37.2267 30.2565,37.2267 29.5,38.5C 22.6154,46.9478 17.1154,56.2811 13,66.5C 11.9887,67.3366 10.8221,67.67 9.5,67.5C 10.4878,58.1959 14.1545,50.1959 20.5,43.5C 20.369,44.2389 20.5357,44.9056 21,45.5C 24.3362,41.3322 27.8362,37.3322 31.5,33.5C 33.4835,33.6168 35.1502,32.9501 36.5,31.5C 37.2975,31.9569 37.6309,32.6236 37.5,33.5 Z"/></g>
<g><path style="opacity:0.949" fill="#766e5a" d="M 47.5,13.5 C 47.1667,14.1667 46.8333,14.8333 46.5,15.5C 22.9298,30.6186 8.26308,51.9519 2.5,79.5C -0.309162,93.9247 0.0241712,108.258 3.5,122.5C 5.21855,130.045 7.55188,137.378 10.5,144.5C 10.5,144.833 10.5,145.167 10.5,145.5C 8.77424,143.058 7.27424,140.391 6,137.5C 3.46036,130.139 1.2937,122.806 -0.5,115.5C -0.5,104.833 -0.5,94.1667 -0.5,83.5C 5.59259,53.2972 21.5926,29.9639 47.5,13.5 Z"/></g>
<g><path style="opacity:1" fill="#64573b" d="M 188.5,71.5 C 188.5,72.1667 188.5,72.8333 188.5,73.5C 187.732,74.2625 187.232,75.2625 187,76.5C 186.16,73.7983 185.327,71.1317 184.5,68.5C 185.117,68.3893 185.617,68.056 186,67.5C 186.934,68.8584 187.768,70.1917 188.5,71.5 Z"/></g>
<g><path style="opacity:1" fill="#aa8731" d="M 46.5,15.5 C 47.1667,15.5 47.8333,15.5 48.5,15.5C 48.1667,16.1667 47.8333,16.8333 47.5,17.5C 42.1585,19.842 37.4918,23.1754 33.5,27.5C 28.4159,32.248 24.0826,37.5813 20.5,43.5C 14.1545,50.1959 10.4878,58.1959 9.5,67.5C 8.20695,68.842 7.37362,70.5087 7,72.5C 4.00913,83.9786 2.84246,95.6452 3.5,107.5C 2.08081,97.9259 2.41415,88.2592 4.5,78.5C 4.33333,77.8333 4.16667,77.1667 4,76.5C 3.76791,77.7375 3.26791,78.7375 2.5,79.5C 8.26308,51.9519 22.9298,30.6186 46.5,15.5 Z"/></g>
<g><path style="opacity:1" fill="#d2af55" d="M 31.5,38.5 C 18.9992,53.1784 11.6659,70.1784 9.5,89.5C 8.88258,89.6107 8.38258,89.944 8,90.5C 7.50085,95.1548 7.33418,99.8215 7.5,104.5C 5.99361,92.678 7.32694,81.0113 11.5,69.5C 10.7573,68.8182 10.0906,68.1515 9.5,67.5C 10.8221,67.67 11.9887,67.3366 13,66.5C 17.1154,56.2811 22.6154,46.9478 29.5,38.5C 30.2565,37.2267 30.9232,37.2267 31.5,38.5 Z"/></g>
<g><path style="opacity:1" fill="#867c60" d="M 188.5,71.5 C 193.123,83.8526 194.456,96.5193 192.5,109.5C 192.737,108.209 192.404,107.209 191.5,106.5C 192.112,95.3218 191.112,84.3218 188.5,73.5C 188.5,72.8333 188.5,72.1667 188.5,71.5 Z"/></g>
<g><path style="opacity:1" fill="#8d670f" d="M 3.5,107.5 C 4.33825,107.842 4.67158,108.508 4.5,109.5C 3.85287,110.274 3.51954,111.274 3.5,112.5C 4.16885,116.513 4.83551,120.513 5.5,124.5C 4.83333,123.833 4.16667,123.167 3.5,122.5C 0.0241712,108.258 -0.309162,93.9247 2.5,79.5C 3.26791,78.7375 3.76791,77.7375 4,76.5C 4.16667,77.1667 4.33333,77.8333 4.5,78.5C 2.41415,88.2592 2.08081,97.9259 3.5,107.5 Z"/></g>
<g><path style="opacity:1" fill="#3c2c0b" d="M 9.5,67.5 C 10.0906,68.1515 10.7573,68.8182 11.5,69.5C 7.32694,81.0113 5.99361,92.678 7.5,104.5C 8.26236,121 13.2624,136 22.5,149.5C 26.8721,156.897 32.2054,163.563 38.5,169.5C 38.5,170.167 38.5,170.833 38.5,171.5C 26.388,162.297 17.388,150.63 11.5,136.5C 7.76228,127.883 5.42895,118.883 4.5,109.5C 4.67158,108.508 4.33825,107.842 3.5,107.5C 2.84246,95.6452 4.00913,83.9786 7,72.5C 7.37362,70.5087 8.20695,68.842 9.5,67.5 Z"/></g>
<g><path style="opacity:1" fill="#807e7a" d="M 133.5,85.5 C 133.5,93.8333 133.5,102.167 133.5,110.5C 130.167,110.5 126.833,110.5 123.5,110.5C 126.287,109.523 129.287,109.19 132.5,109.5C 132.174,101.316 132.508,93.3159 133.5,85.5 Z"/></g>
<g><path style="opacity:0.396" fill="#544a31" d="M 199.5,108.5 C 199.5,110.833 199.5,113.167 199.5,115.5C 198.833,116.833 198.167,118.167 197.5,119.5C 197.646,115.613 198.313,111.946 199.5,108.5 Z"/></g>
<g><path style="opacity:1" fill="#d3c495" d="M 9.5,89.5 C 7.56081,111.328 12.5608,131.328 24.5,149.5C 23.8333,149.5 23.1667,149.5 22.5,149.5C 13.2624,136 8.26236,121 7.5,104.5C 7.33418,99.8215 7.50085,95.1548 8,90.5C 8.38258,89.944 8.88258,89.6107 9.5,89.5 Z"/></g>
<g><path style="opacity:1" fill="#ccb571" d="M 4.5,109.5 C 5.42895,118.883 7.76228,127.883 11.5,136.5C 11.1667,136.5 10.8333,136.5 10.5,136.5C 8.53075,132.619 6.86408,128.619 5.5,124.5C 4.83551,120.513 4.16885,116.513 3.5,112.5C 3.51954,111.274 3.85287,110.274 4.5,109.5 Z"/></g>
<g><path style="opacity:0.004" fill="#373025" d="M 197.5,121.5 C 197.741,123.898 197.074,125.898 195.5,127.5C 195.595,125.214 196.262,123.214 197.5,121.5 Z"/></g>
<g><path style="opacity:1" fill="#cdb575" d="M 191.5,106.5 C 192.404,107.209 192.737,108.209 192.5,109.5C 191.864,119.046 189.531,128.046 185.5,136.5C 185.5,135.833 185.167,135.5 184.5,135.5C 184.5,134.833 184.5,134.167 184.5,133.5C 188.635,125.073 190.969,116.073 191.5,106.5 Z"/></g>
<g><path style="opacity:1" fill="#9b7724" d="M 195.5,71.5 C 197.044,75.4181 198.377,79.4181 199.5,83.5C 199.5,91.8333 199.5,100.167 199.5,108.5C 198.313,111.946 197.646,115.613 197.5,119.5C 197.5,120.167 197.5,120.833 197.5,121.5C 196.262,123.214 195.595,125.214 195.5,127.5C 195.5,127.833 195.5,128.167 195.5,128.5C 194.442,129.6 193.608,130.934 193,132.5C 192.617,131.944 192.117,131.611 191.5,131.5C 197.325,112.357 197.992,93.0238 193.5,73.5C 193.302,71.4247 193.135,69.4247 193,67.5C 193.934,68.8584 194.768,70.1917 195.5,71.5 Z"/></g>
<g><path style="opacity:1" fill="#2d2d2b" d="M 110.5,131.5 C 117.648,132.492 124.981,132.825 132.5,132.5C 132.5,138.5 132.5,144.5 132.5,150.5C 131.511,145.025 131.178,139.358 131.5,133.5C 124.137,133.831 116.803,133.497 109.5,132.5C 109.624,131.893 109.957,131.56 110.5,131.5 Z"/></g>
<g><path style="opacity:1" fill="#775c20" d="M 195.5,128.5 C 191.777,141.949 185.443,153.949 176.5,164.5C 175.609,163.89 174.609,163.557 173.5,163.5C 181.064,153.706 187.064,143.039 191.5,131.5C 192.117,131.611 192.617,131.944 193,132.5C 193.608,130.934 194.442,129.6 195.5,128.5 Z"/></g>
<g><path style="opacity:1" fill="#43320d" d="M 184.5,133.5 C 184.5,134.167 184.5,134.833 184.5,135.5C 179.436,147.879 171.769,158.212 161.5,166.5C 170.882,156.752 178.548,145.752 184.5,133.5 Z"/></g>
<g><path style="opacity:1" fill="#705415" d="M 3.5,122.5 C 4.16667,123.167 4.83333,123.833 5.5,124.5C 6.86408,128.619 8.53075,132.619 10.5,136.5C 16.1249,152.111 25.7916,164.444 39.5,173.5C 39.5569,174.609 39.8902,175.609 40.5,176.5C 34.942,173.284 29.942,169.284 25.5,164.5C 19.7306,158.399 14.7306,151.732 10.5,144.5C 7.55188,137.378 5.21855,130.045 3.5,122.5 Z"/></g>
<g><path style="opacity:1" fill="#3c2c09" d="M 191.5,67.5 C 191.595,69.7857 192.262,71.7857 193.5,73.5C 197.992,93.0238 197.325,112.357 191.5,131.5C 187.064,143.039 181.064,153.706 173.5,163.5C 171.952,163.179 171.285,162.179 171.5,160.5C 177.391,153.261 182.058,145.261 185.5,136.5C 189.531,128.046 191.864,119.046 192.5,109.5C 194.456,96.5193 193.123,83.8526 188.5,71.5C 189.659,70.2597 190.659,68.9264 191.5,67.5 Z"/></g>
<g><path style="opacity:1" fill="#dbd1ae" d="M 10.5,136.5 C 10.8333,136.5 11.1667,136.5 11.5,136.5C 17.388,150.63 26.388,162.297 38.5,171.5C 38.8333,172.167 39.1667,172.833 39.5,173.5C 25.7916,164.444 16.1249,152.111 10.5,136.5 Z"/></g>
<g><path style="opacity:1" fill="#64480e" d="M 38.5,169.5 C 48.5662,177.203 59.5662,183.37 71.5,188C 70.9056,188.464 70.2389,188.631 69.5,188.5C 58.632,185.066 48.632,180.066 39.5,173.5C 39.1667,172.833 38.8333,172.167 38.5,171.5C 38.5,170.833 38.5,170.167 38.5,169.5 Z"/></g>
<g><path style="opacity:1" fill="#bf9634" d="M 22.5,149.5 C 23.1667,149.5 23.8333,149.5 24.5,149.5C 38.5425,169.692 57.5425,182.692 81.5,188.5C 82.9516,189.302 84.6183,189.802 86.5,190C 92.8246,190.5 99.1579,190.666 105.5,190.5C 102.359,191.321 99.0252,191.821 95.5,192C 96.7932,192.49 98.1266,192.657 99.5,192.5C 99.5,192.833 99.5,193.167 99.5,193.5C 89.1903,192.844 79.1903,191.177 69.5,188.5C 70.2389,188.631 70.9056,188.464 71.5,188C 59.5662,183.37 48.5662,177.203 38.5,169.5C 32.2054,163.563 26.8721,156.897 22.5,149.5 Z"/></g>
<g><path style="opacity:1" fill="#62490e" d="M 161.5,166.5 C 146.011,181.57 127.344,189.57 105.5,190.5C 99.1579,190.666 92.8246,190.5 86.5,190C 84.6183,189.802 82.9516,189.302 81.5,188.5C 111.502,192.67 138.168,185.337 161.5,166.5 Z"/></g>
<g><path style="opacity:1" fill="#594418" d="M 171.5,160.5 C 171.285,162.179 171.952,163.179 173.5,163.5C 174.609,163.557 175.609,163.89 176.5,164.5C 169.471,173.163 161.138,180.163 151.5,185.5C 150.833,185.5 150.167,185.5 149.5,185.5C 149.5,185.167 149.5,184.833 149.5,184.5C 156.158,179.399 162.491,174.732 168.5,170.5C 168.167,170.167 167.833,169.833 167.5,169.5C 157.686,177.494 146.852,183.827 135,188.5C 134.5,188.333 134,188.167 133.5,188C 135.727,187.059 137.727,185.892 139.5,184.5C 152.176,179.154 162.843,171.154 171.5,160.5 Z"/></g>
<g><path style="opacity:1" fill="#dab049" d="M 184.5,135.5 C 185.167,135.5 185.5,135.833 185.5,136.5C 182.058,145.261 177.391,153.261 171.5,160.5C 162.843,171.154 152.176,179.154 139.5,184.5C 126.694,189.701 113.36,192.367 99.5,192.5C 98.1266,192.657 96.7932,192.49 95.5,192C 99.0252,191.821 102.359,191.321 105.5,190.5C 127.344,189.57 146.011,181.57 161.5,166.5C 171.769,158.212 179.436,147.879 184.5,135.5 Z"/></g>
<g><path style="opacity:0.518" fill="#5b574b" d="M 10.5,144.5 C 14.7306,151.732 19.7306,158.399 25.5,164.5C 27.2199,167.731 29.5532,170.564 32.5,173C 68.7501,202.25 107.75,206.417 149.5,185.5C 150.167,185.5 150.833,185.5 151.5,185.5C 140.298,192.343 128.298,197.01 115.5,199.5C 104.833,199.5 94.1667,199.5 83.5,199.5C 54.1118,193.619 30.9451,178.286 14,153.5C 12.5462,150.929 11.3795,148.262 10.5,145.5C 10.5,145.167 10.5,144.833 10.5,144.5 Z"/></g>
<g><path style="opacity:1" fill="#926e19" d="M 149.5,184.5 C 139.966,189.234 129.966,192.567 119.5,194.5C 120.263,193.732 121.263,193.232 122.5,193C 114.834,192.777 107.168,192.944 99.5,193.5C 99.5,193.167 99.5,192.833 99.5,192.5C 113.36,192.367 126.694,189.701 139.5,184.5C 137.727,185.892 135.727,187.059 133.5,188C 134,188.167 134.5,188.333 135,188.5C 146.852,183.827 157.686,177.494 167.5,169.5C 167.833,169.833 168.167,170.167 168.5,170.5C 162.491,174.732 156.158,179.399 149.5,184.5 Z"/></g>
<g><path style="opacity:1" fill="#e4b445" d="M 39.5,173.5 C 48.632,180.066 58.632,185.066 69.5,188.5C 79.1903,191.177 89.1903,192.844 99.5,193.5C 107.168,192.944 114.834,192.777 122.5,193C 121.263,193.232 120.263,193.732 119.5,194.5C 105.835,195.808 92.1684,195.808 78.5,194.5C 72.7592,191.976 66.7592,189.976 60.5,188.5C 58.2114,186.613 55.5447,185.279 52.5,184.5C 47.8033,182.822 43.8033,180.156 40.5,176.5C 39.8902,175.609 39.5569,174.609 39.5,173.5 Z"/></g>
<g><path style="opacity:1" fill="#3e2d0a" d="M 25.5,164.5 C 29.942,169.284 34.942,173.284 40.5,176.5C 43.8033,180.156 47.8033,182.822 52.5,184.5C 54.6123,186.771 57.279,188.104 60.5,188.5C 65.9481,191.872 71.9481,193.872 78.5,194.5C 79.6085,195.29 80.9419,195.79 82.5,196C 93.5,196.667 104.5,196.667 115.5,196C 117.058,195.79 118.391,195.29 119.5,194.5C 129.966,192.567 139.966,189.234 149.5,184.5C 149.5,184.833 149.5,185.167 149.5,185.5C 107.75,206.417 68.7501,202.25 32.5,173C 29.5532,170.564 27.2199,167.731 25.5,164.5 Z"/></g>
<g><path style="opacity:1" fill="#8f6910" d="M 78.5,194.5 C 92.1684,195.808 105.835,195.808 119.5,194.5C 118.391,195.29 117.058,195.79 115.5,196C 104.5,196.667 93.5,196.667 82.5,196C 80.9419,195.79 79.6085,195.29 78.5,194.5 Z"/></g>
<g><path style="opacity:1" fill="#87620e" d="M 60.5,188.5 C 66.7592,189.976 72.7592,191.976 78.5,194.5C 71.9481,193.872 65.9481,191.872 60.5,188.5 Z"/></g>
<g><path style="opacity:1" fill="#89640e" d="M 52.5,184.5 C 55.5447,185.279 58.2114,186.613 60.5,188.5C 57.279,188.104 54.6123,186.771 52.5,184.5 Z"/></g>
</svg>
