<svg id="Layer_1" data-name="Layer 1" xmlns="http://www.w3.org/2000/svg" viewBox="0 0 198.15 198.15"><defs><style>.cls-1{fill:#cd3e96;}</style></defs><path class="cls-1" d="M170.14,97.05a122.19,122.19,0,0,0-20.4-15.87A113.39,113.39,0,0,0,127.59,70.3a82.63,82.63,0,0,0-26.31-5l2,9,4.44,19.35,14.13,7.72-14.13,7.73-7.72,14.13-7.73-14.13L78.2,101.33l14.12-7.72,4.45-19.35.85-3.71h0l1.2-5.26a82.63,82.63,0,0,0-26.31,5A113.39,113.39,0,0,0,50.36,81.18,121.67,121.67,0,0,0,30,97.05l-3.07,3.12L30,103.28a121.67,121.67,0,0,0,20.4,15.87A114,114,0,0,0,72.51,130a82.25,82.25,0,0,0,27.54,5,82.25,82.25,0,0,0,27.54-5,114,114,0,0,0,22.15-10.89,122.19,122.19,0,0,0,20.4-15.87l3.07-3.11ZM55.28,111.74a124.7,124.7,0,0,1-15.61-11.57A123.59,123.59,0,0,1,55.28,88.59,100.81,100.81,0,0,1,81.81,76.71a29.72,29.72,0,0,0,0,46.91A100.66,100.66,0,0,1,55.28,111.74Zm89.54,0a100.66,100.66,0,0,1-26.53,11.88,29.72,29.72,0,0,0,0-46.91,100.66,100.66,0,0,1,26.53,11.88,123.59,123.59,0,0,1,15.61,11.58A125.47,125.47,0,0,1,144.82,111.74Z" transform="translate(-0.97 -1.1)"/><path class="cls-1" d="M100.05,178.46a78.27,78.27,0,1,1,55.36-22.93A77.82,77.82,0,0,1,100.05,178.46Zm0-147.69a69.4,69.4,0,1,0,69.4,69.4A69.48,69.48,0,0,0,100.05,30.77Z" transform="translate(-0.97 -1.1)"/><path class="cls-1" d="M100.05,156.54c-20.5,0-39.81-5.72-54.39-16.1-15-10.67-23.2-25-23.2-40.27s8.24-29.6,23.2-40.26C60.24,49.52,79.55,43.8,100.05,43.8s39.81,5.72,54.39,16.11c15,10.66,23.2,25,23.2,40.26s-8.24,29.6-23.2,40.27C139.86,150.82,120.55,156.54,100.05,156.54Zm0-105.24C61.4,51.3,30,73.22,30,100.17S61.4,149,100.05,149s70.09-21.92,70.09-48.87S138.7,51.3,100.05,51.3Z" transform="translate(-0.97 -1.1)"/><path class="cls-1" d="M100.05,199.24a99.07,99.07,0,1,1,99.07-99.07A99.19,99.19,0,0,1,100.05,199.24Zm0-188.48a89.41,89.41,0,1,0,89.41,89.41A89.52,89.52,0,0,0,100.05,10.76Z" transform="translate(-0.97 -1.1)"/></svg>