<?xml version="1.0" encoding="UTF-8"?>
<svg xmlns="http://www.w3.org/2000/svg" xmlns:xlink="http://www.w3.org/1999/xlink" width="200px" height="200px" viewBox="0 0 200 200" version="1.1">
<g id="surface1">
<path style=" stroke:none;fill-rule:evenodd;fill:rgb(22.352941%,33.333333%,6.666667%);fill-opacity:1;" d="M 10.4375 199.464844 C 10.234375 199.183594 10 198.753906 9.921875 198.507812 C 9.71875 197.90625 9.734375 196.539062 9.941406 195.695312 L 10.113281 195.007812 L 9.714844 194.335938 C 8.453125 192.207031 8.226562 190.027344 8.902344 186.644531 L 9.113281 185.628906 L 8.8125 185.019531 C 8.234375 183.820312 8.15625 183.210938 8.183594 180.152344 C 8.203125 178.3125 8.160156 176.84375 8.058594 175.710938 C 7.601562 170.601562 8.097656 165.402344 9.972656 155.578125 C 10.867188 150.882812 11.261719 147.882812 11.339844 145.128906 C 11.394531 143.203125 11.414062 143.097656 11.726562 142.257812 C 12.433594 140.339844 12.972656 137.539062 13.109375 135.125 C 13.277344 132.011719 14.4375 126.652344 15.859375 122.382812 C 16.484375 120.507812 17.660156 117.59375 18.59375 115.621094 C 18.984375 114.792969 19.296875 114.046875 19.296875 113.960938 C 19.296875 113.769531 18.941406 113.300781 18.796875 113.300781 C 18.554688 113.300781 18.332031 113.566406 18.15625 114.074219 C 18.054688 114.371094 17.648438 115.179688 17.253906 115.875 C 14.382812 120.902344 12.402344 126.917969 11.375 133.75 C 11.261719 134.507812 11.097656 135.578125 11.015625 136.125 C 10.929688 136.675781 10.726562 137.445312 10.5625 137.839844 C 9.984375 139.203125 8.566406 140.601562 6.964844 141.363281 C 5.574219 142.023438 5.296875 142.265625 4.625 143.355469 C 3.851562 144.625 1.359375 147.863281 1.261719 147.730469 C 1.136719 147.566406 0.789062 145.992188 0.625 144.851562 C 0.484375 143.878906 0.398438 142.324219 0.398438 140.859375 L 0.398438 140.570312 C 0.398438 139.8125 0.425781 139.09375 0.472656 138.496094 C 0.933594 132.761719 2.398438 126.941406 5.429688 118.867188 C 7.457031 113.457031 9.292969 110.5625 11.5 109.300781 C 12.132812 108.941406 12.140625 108.933594 12.191406 108.359375 C 12.21875 108.039062 12.3125 107.71875 12.390625 107.628906 C 12.5 107.523438 12.558594 107.101562 12.609375 106.046875 C 12.644531 105.257812 12.714844 104.578125 12.761719 104.546875 C 12.878906 104.453125 13.054688 103.472656 13.054688 102.890625 C 13.058594 102.628906 13.09375 102.417969 13.136719 102.417969 C 13.179688 102.417969 13.269531 102.039062 13.332031 101.574219 C 13.496094 100.375 14.175781 97.328125 14.808594 94.917969 C 16.5625 88.265625 19.234375 81.015625 23.804688 70.46875 C 25.980469 65.441406 26.082031 65.144531 25.847656 64.378906 C 25.660156 63.757812 25.253906 63.609375 24 63.707031 C 22.726562 63.8125 22.402344 63.6875 22.097656 62.992188 C 21.78125 62.265625 21.867188 60.382812 22.347656 57.425781 C 23.203125 52.140625 24.050781 44.984375 24.054688 42.980469 C 24.066406 37.035156 25.234375 32.519531 27.574219 29.394531 C 28.851562 27.683594 30.214844 26.617188 32.027344 25.921875 C 32.898438 25.585938 32.984375 25.578125 35.9375 25.527344 C 38.0625 25.496094 40.402344 25.558594 43.816406 25.75 C 51.925781 26.214844 54.925781 25.972656 56.992188 24.695312 C 57.371094 24.460938 58.285156 23.722656 59.019531 23.0625 C 59.757812 22.402344 60.691406 21.613281 61.101562 21.316406 C 69.128906 15.484375 88.953125 8.339844 99.484375 7.496094 C 103.140625 7.199219 103.597656 6.914062 106.511719 3.175781 C 108.667969 0.414062 109.023438 0.109375 110.1875 0.0117188 C 111.636719 -0.101562 112.742188 0.597656 114.644531 2.871094 C 117.03125 5.703125 118.566406 6.890625 120.808594 7.628906 C 121.40625 7.828125 122.109375 7.902344 124.046875 7.996094 C 127.199219 8.136719 128.761719 8.371094 131.578125 9.125 C 134.519531 9.910156 138.113281 11.3125 141.976562 13.179688 C 145.050781 14.667969 145.726562 14.933594 148.550781 15.746094 C 153 17.039062 156.148438 18.515625 160.835938 21.5 C 169.328125 26.902344 178.792969 35.238281 186.898438 44.460938 C 188.933594 46.777344 192.949219 51.835938 194.339844 53.835938 C 197.855469 58.910156 199.390625 62.214844 199.546875 65.070312 C 199.554688 65.210938 199.5625 65.351562 199.5625 65.492188 L 199.5625 65.644531 C 199.546875 67.257812 199.0625 68.527344 197.992188 69.824219 C 194.878906 73.628906 194.292969 74.234375 193.414062 74.601562 C 193.15625 74.714844 192.941406 74.824219 192.941406 74.851562 C 192.941406 74.882812 193.191406 75.308594 193.492188 75.800781 C 195.507812 79.089844 195.796875 81.898438 194.394531 84.558594 C 192.96875 87.273438 189.5 89.539062 185.542969 90.339844 C 184.628906 90.527344 183.003906 90.679688 179.519531 90.917969 C 178.484375 90.988281 177.082031 91.125 176.398438 91.222656 C 174.660156 91.480469 171.671875 91.761719 169.117188 91.914062 C 166.503906 92.070312 156.527344 92.285156 151.289062 92.300781 C 145.839844 92.308594 143.523438 92.441406 142.746094 92.785156 C 141.945312 93.144531 141.238281 93.933594 140.933594 94.820312 C 140.730469 95.402344 140.695312 95.769531 140.628906 97.902344 C 140.511719 101.746094 140.175781 104.308594 139.445312 106.996094 C 138.730469 109.601562 137.925781 111.351562 136.808594 112.691406 C 135.3125 114.484375 133.902344 114.636719 131.691406 113.230469 C 130.652344 112.570312 130.023438 112 129.257812 111.011719 C 127.804688 109.148438 126.957031 107.101562 126.375 104.042969 C 126.101562 102.597656 125.648438 101.316406 125.113281 100.464844 C 124.6875 99.796875 124.109375 99.359375 123.808594 99.472656 C 123.710938 99.519531 123.003906 100.40625 122.238281 101.449219 C 120.730469 103.519531 117.835938 107.144531 116.171875 109.054688 C 109.5625 116.652344 103.058594 121.824219 96.539062 124.660156 C 93.007812 126.203125 91.648438 126.339844 90.738281 125.273438 C 90.195312 124.636719 90.074219 124.117188 90.082031 122.492188 C 90.105469 118.234375 91.976562 113.292969 95.742188 107.585938 C 98.097656 103.996094 101.816406 99.503906 105.820312 95.402344 C 106.707031 94.480469 107.445312 93.636719 107.449219 93.523438 C 107.453125 93.375 107.285156 93.230469 106.925781 93.0625 C 105.851562 92.550781 104.996094 92.414062 102.109375 92.289062 C 99.152344 92.15625 98.308594 92.085938 91.015625 91.289062 C 82.964844 90.414062 79.074219 90.097656 74.046875 89.914062 C 62.808594 89.496094 53.9375 91.042969 46.636719 94.695312 C 38.632812 98.691406 32.609375 105.957031 31.417969 113.050781 C 31.15625 114.613281 31.179688 116.914062 31.46875 118.34375 C 32.160156 121.734375 33.855469 125.101562 37.3125 129.996094 C 37.949219 130.890625 41.132812 134.972656 44.394531 139.0625 C 53.65625 150.699219 54.652344 152.160156 54.988281 154.636719 C 55.082031 155.320312 55.070312 155.464844 54.921875 155.753906 C 54.621094 156.339844 54.40625 156.351562 52.957031 155.890625 C 51.066406 155.285156 50.320312 155.152344 48.867188 155.152344 C 46.597656 155.160156 45.617188 155.503906 42.378906 157.417969 C 39.238281 159.277344 38.078125 159.902344 36.429688 160.582031 C 34.152344 161.535156 32.257812 161.945312 30.039062 161.949219 C 28.15625 161.960938 26.210938 162.40625 25.050781 163.097656 C 24.023438 163.722656 23.398438 164.609375 22.871094 166.203125 C 21.808594 169.410156 20.070312 173.449219 17.621094 178.398438 C 16.867188 179.914062 16.140625 181.445312 15.992188 181.804688 C 15.273438 183.605469 14.507812 186.4375 13.257812 191.972656 C 12.722656 194.347656 12.144531 196.773438 11.976562 197.351562 C 11.648438 198.492188 11.078125 199.878906 10.914062 199.945312 L 10.890625 199.945312 C 10.8125 199.925781 10.621094 199.726562 10.4375 199.464844 Z M 10.4375 199.464844 "/>
<path style=" stroke:none;fill-rule:evenodd;fill:rgb(27.45098%,54.117647%,10.196078%);fill-opacity:1;" d="M 15.339844 164.4375 C 15.332031 159.253906 15.417969 156.351562 15.691406 152.445312 C 15.917969 149.148438 16.300781 145.605469 16.519531 144.695312 C 16.800781 143.566406 17.019531 142.046875 17.019531 141.265625 C 17.019531 140.542969 16.808594 139.507812 16.585938 139.125 C 16.457031 138.90625 16.421875 138.898438 16.292969 139.0625 C 16.058594 139.367188 14.929688 144.851562 14.203125 149.257812 C 12.875 157.234375 12.316406 165.179688 12.660156 171.082031 C 12.777344 173.09375 13.121094 176.332031 13.269531 176.8125 C 13.363281 177.140625 13.375 177.148438 13.515625 176.898438 C 13.601562 176.765625 13.886719 176.089844 14.148438 175.402344 C 15.167969 172.753906 15.347656 171.128906 15.339844 164.4375 Z M 15.339844 164.4375 "/>
<path style=" stroke:none;fill-rule:evenodd;fill:rgb(27.45098%,54.117647%,10.196078%);fill-opacity:1;" d="M 19.621094 164.34375 C 19.871094 163.71875 19.871094 163.664062 19.734375 163.097656 C 19.277344 161.210938 18.996094 157.863281 18.96875 153.890625 C 18.953125 151.214844 18.960938 151.074219 19.269531 149.257812 C 19.835938 145.925781 19.886719 143.726562 19.433594 142.515625 C 19.109375 141.660156 18.933594 141.808594 18.566406 143.21875 C 18.0625 145.175781 17.632812 148.109375 17.414062 151.136719 C 17.265625 153.144531 17.191406 160.390625 17.285156 163.097656 C 17.367188 165.332031 17.386719 165.460938 17.609375 165.761719 C 17.996094 166.285156 18.449219 166.203125 18.953125 165.542969 C 19.179688 165.238281 19.480469 164.703125 19.621094 164.34375 Z M 19.621094 164.34375 "/>
<path style=" stroke:none;fill-rule:evenodd;fill:rgb(27.45098%,54.117647%,10.196078%);fill-opacity:1;" d="M 24.640625 157.941406 C 24.878906 157.4375 25.082031 156.117188 25.074219 155.082031 C 25.070312 154.4375 24.992188 154.003906 24.699219 153.074219 C 24.171875 151.394531 23.957031 149.949219 23.957031 148.097656 C 23.957031 146.914062 23.917969 146.46875 23.789062 146.164062 C 23.457031 145.34375 22.457031 143.5625 22.363281 143.632812 C 22.222656 143.746094 21.980469 144.890625 21.824219 146.195312 C 21.636719 147.738281 21.640625 149.960938 21.828125 152.070312 C 22.128906 155.351562 22.4375 156.480469 23.363281 157.671875 C 23.984375 158.476562 24.347656 158.550781 24.640625 157.941406 Z M 24.640625 157.941406 "/>
<path style=" stroke:none;fill-rule:evenodd;fill:rgb(27.45098%,54.117647%,10.196078%);fill-opacity:1;" d="M 30.691406 155.582031 C 30.691406 154.988281 29.390625 150.992188 26.855469 143.789062 C 25.488281 139.902344 25.238281 139.351562 25.082031 139.867188 C 24.996094 140.144531 25.230469 145.210938 25.398438 146.742188 C 25.785156 150.253906 26.585938 153.375 27.667969 155.519531 C 28.582031 157.355469 29.378906 157.882812 30.101562 157.113281 C 30.460938 156.730469 30.691406 156.136719 30.691406 155.582031 Z M 30.691406 155.582031 "/>
<path style=" stroke:none;fill-rule:evenodd;fill:rgb(27.45098%,54.117647%,10.196078%);fill-opacity:1;" d="M 37.628906 154.367188 C 38.378906 153.472656 38.671875 152.878906 38.582031 152.433594 C 38.550781 152.269531 37.929688 151.207031 37.207031 150.074219 C 34.351562 145.582031 31.460938 140.722656 28.839844 136.027344 C 28.105469 134.710938 27.464844 133.605469 27.410156 133.582031 C 27.257812 133.511719 27.304688 134.03125 27.667969 136.246094 C 28.324219 140.304688 29.15625 143.671875 30.289062 146.820312 C 31.941406 151.421875 34.542969 155.355469 35.976562 155.4375 C 36.082031 155.445312 36.347656 155.386719 36.570312 155.296875 C 36.828125 155.199219 37.210938 154.863281 37.628906 154.367188 Z M 37.628906 154.367188 "/>
<path style=" stroke:none;fill-rule:evenodd;fill:rgb(27.45098%,54.117647%,10.196078%);fill-opacity:1;" d="M 45.546875 148.902344 C 45.546875 148.722656 45.140625 148.113281 44.300781 147.066406 C 40.183594 141.914062 35.222656 135.265625 31.253906 129.578125 C 30.410156 128.375 30.148438 128.074219 30.042969 128.183594 C 29.886719 128.351562 30.265625 129.433594 32.289062 134.5625 C 35.042969 141.546875 37.3125 145.984375 39.789062 149.230469 C 41.007812 150.820312 41.617188 151.242188 42.597656 151.148438 C 42.914062 151.117188 43.402344 150.953125 43.71875 150.769531 C 44.5 150.324219 45.546875 149.25 45.546875 148.902344 Z M 45.546875 148.902344 "/>
<path style=" stroke:none;fill-rule:evenodd;fill:rgb(27.45098%,54.117647%,10.196078%);fill-opacity:1;" d="M 23.777344 130.621094 C 23.808594 130.101562 23.90625 130.003906 25.03125 129.371094 C 25.203125 129.28125 25.339844 128.917969 25.628906 127.839844 C 26.035156 126.316406 26.425781 125.40625 26.839844 125.023438 C 27.191406 124.695312 27.863281 124.617188 28.386719 124.84375 L 28.808594 125.03125 L 28.5625 124.660156 C 27.621094 123.25 26.867188 122.308594 26.679688 122.308594 C 26.414062 122.308594 23.640625 125.863281 22.886719 127.179688 C 22.863281 127.222656 22.722656 127.070312 22.574219 126.855469 L 22.296875 126.46875 L 22.484375 125.253906 C 23.335938 119.660156 24.617188 114.894531 26.359375 110.859375 C 26.679688 110.105469 27.695312 108.015625 28.613281 106.214844 C 30.671875 102.179688 31.15625 100.988281 30.9375 100.546875 C 30.902344 100.472656 30.324219 101.066406 29.617188 101.898438 C 27.503906 104.402344 24.027344 108.285156 22.980469 109.304688 L 22.652344 109.628906 L 22.980469 110.296875 C 23.28125 110.90625 23.308594 111.046875 23.308594 111.972656 C 23.308594 112.988281 23.308594 112.996094 22.507812 115.113281 C 21.015625 119.039062 20.304688 121.382812 19.746094 124.121094 C 19.394531 125.835938 19.148438 128.390625 19.257812 129.167969 C 19.441406 130.449219 20.292969 131.867188 21.105469 132.234375 C 21.339844 132.332031 21.890625 132.417969 22.332031 132.425781 C 23.121094 132.4375 23.152344 132.425781 23.398438 132.054688 C 23.675781 131.636719 23.738281 131.40625 23.777344 130.621094 Z M 23.777344 130.621094 "/>
<path style=" stroke:none;fill-rule:evenodd;fill:rgb(50.588235%,83.137255%,10.196078%);fill-opacity:1;" d="M 26.53125 100.050781 C 27.585938 99.003906 28.839844 97.328125 29.171875 96.519531 C 29.421875 95.925781 29.445312 95.746094 29.425781 94.757812 C 29.402344 93.421875 29.558594 92.835938 30.121094 92.226562 C 30.636719 91.675781 31.070312 91.5 31.769531 91.5625 C 32.835938 91.660156 34.308594 92.839844 34.671875 93.886719 C 35.011719 94.847656 34.691406 96.015625 33.722656 97.367188 L 33.1875 98.117188 L 33.523438 98.394531 C 33.707031 98.546875 33.882812 98.671875 33.917969 98.671875 C 33.945312 98.671875 34.441406 98.113281 35.011719 97.429688 C 41.367188 89.824219 50.820312 85.359375 62.539062 84.414062 C 64.640625 84.246094 69.820312 84.253906 77.800781 84.429688 C 82.828125 84.542969 85.132812 84.542969 87.75 84.429688 C 91.433594 84.273438 91.699219 84.210938 91.171875 83.691406 C 90.765625 83.285156 89.046875 82.394531 86.804688 81.414062 C 84.308594 80.328125 83.175781 79.644531 82.121094 78.589844 C 80.917969 77.394531 80.019531 75.605469 80.019531 74.402344 C 80.019531 73.117188 80.960938 72.257812 82.992188 71.699219 C 84.179688 71.367188 88.167969 71.367188 89.824219 71.699219 C 93.503906 72.421875 97.433594 73.882812 104.722656 77.242188 C 112.613281 80.875 115.355469 81.800781 119.285156 82.171875 C 120.921875 82.324219 122.972656 82.21875 125.625 81.839844 C 128.996094 81.351562 132.230469 80.152344 135.226562 78.257812 L 136.398438 77.519531 L 135.972656 78.289062 C 134.421875 81.082031 130.714844 83.695312 125.535156 85.667969 C 123.46875 86.453125 123.414062 86.648438 125.144531 87.046875 C 132.863281 88.816406 139.84375 88.664062 146.398438 86.589844 C 151.425781 84.992188 155.988281 82.398438 160.566406 78.511719 C 161.363281 77.835938 162.082031 77.285156 162.171875 77.285156 C 162.679688 77.285156 162.796875 78.964844 162.386719 80.339844 C 162.253906 80.789062 162.03125 81.402344 161.890625 81.695312 C 161.246094 83.097656 161.070312 84.550781 161.46875 85.296875 C 161.910156 86.132812 161.980469 86.152344 166.101562 86.242188 C 174.710938 86.425781 182.804688 85.519531 188.605469 83.714844 C 189.742188 83.367188 189.992188 83.1875 190.332031 82.457031 C 190.804688 81.4375 190.753906 80.109375 190.203125 79.007812 C 189.75 78.09375 187.789062 76.175781 185.964844 74.851562 C 183.886719 73.339844 182.476562 72.675781 178.777344 71.46875 C 168.636719 68.144531 165.195312 65.628906 164.753906 61.199219 C 164.648438 60.144531 164.992188 57.894531 165.257812 57.894531 C 165.335938 57.894531 165.570312 58.175781 165.769531 58.519531 C 165.976562 58.863281 166.21875 59.148438 166.316406 59.148438 C 166.539062 59.148438 166.535156 59.089844 166.289062 57.988281 C 166.160156 57.433594 166.0625 56.542969 166.03125 55.703125 C 165.984375 54.441406 166 54.285156 166.214844 53.773438 C 166.503906 53.066406 166.878906 52.789062 167.855469 52.574219 C 169.421875 52.222656 171.507812 52.398438 174.585938 53.15625 C 176.707031 53.671875 176.964844 53.703125 177.140625 53.519531 C 177.476562 53.167969 177.320312 52.800781 176.570312 52.160156 C 172.738281 48.910156 168.515625 46.773438 164.265625 45.941406 C 162.769531 45.648438 159.429688 45.648438 157.925781 45.9375 C 156.023438 46.308594 153.566406 47.140625 152.15625 47.90625 C 151.925781 48.03125 151.734375 48.101562 151.734375 48.074219 C 151.734375 47.898438 152.683594 46.105469 153.519531 44.699219 C 155.613281 41.179688 156.226562 40.484375 158.375 39.160156 C 159.8125 38.269531 160.796875 37.371094 161.464844 36.324219 C 162.261719 35.074219 162.269531 34.386719 161.515625 33.40625 C 160.398438 31.949219 158.546875 31.519531 156.632812 32.265625 C 154.484375 33.101562 152.199219 35.160156 148.21875 39.855469 L 146.730469 41.601562 L 146.386719 41.265625 C 145.710938 40.59375 145.394531 40.449219 144.601562 40.449219 C 143.777344 40.449219 143.519531 40.574219 142.640625 41.40625 C 141.941406 42.066406 140.917969 43.714844 140.4375 44.949219 C 139.304688 47.890625 139.316406 51.644531 140.488281 56.082031 C 141.03125 58.128906 141.808594 60.332031 142.734375 62.445312 C 143.96875 65.265625 144.019531 65.402344 143.988281 66.023438 C 143.964844 66.476562 143.910156 66.613281 143.710938 66.742188 C 143.40625 66.933594 141.828125 66.953125 141.144531 66.765625 C 138.980469 66.179688 135.21875 60.703125 134.652344 57.316406 C 134.574219 56.84375 134.460938 55.300781 134.402344 53.890625 C 134.296875 51.242188 134.207031 50.273438 133.933594 48.898438 C 133.707031 47.734375 133.808594 40.890625 134.148438 34.007812 C 134.417969 28.644531 134.4375 25.6875 134.214844 24.96875 C 134.066406 24.503906 133.6875 24.503906 133.4375 24.96875 C 132.480469 26.714844 131.25 30.527344 130.730469 33.351562 C 130.160156 36.402344 129.980469 40.941406 130.28125 44.261719 C 130.761719 49.492188 131.957031 54.574219 134.140625 60.675781 C 134.277344 61.074219 134.359375 61.398438 134.324219 61.398438 C 134.144531 61.398438 131.890625 59.148438 130.210938 57.300781 C 127.996094 54.863281 127.027344 53.875 126.132812 53.144531 C 125.449219 52.585938 125.433594 52.578125 124.597656 52.585938 C 123.835938 52.59375 123.585938 52.664062 122.113281 53.296875 C 121.214844 53.683594 120.167969 54.070312 119.792969 54.152344 C 118.292969 54.480469 115.996094 54.035156 113.300781 52.894531 C 110.734375 51.808594 108.15625 50.375 101.167969 46.144531 C 90.773438 39.84375 87.492188 38.277344 83.25 37.574219 C 81.75 37.324219 78.632812 37.324219 77.257812 37.574219 C 73.742188 38.203125 70.855469 39.761719 68.808594 42.128906 C 67.875 43.203125 67.296875 44.226562 66.671875 45.886719 C 64.816406 50.84375 64.363281 51.769531 63.328125 52.738281 C 62.59375 53.417969 61.761719 53.742188 60.269531 53.894531 C 49.28125 55.0625 40.339844 60.082031 34.171875 68.566406 C 33.035156 70.128906 29.410156 75.710938 28.121094 77.878906 C 25.53125 82.234375 23.972656 85.859375 23.445312 88.769531 C 23.332031 89.363281 23.203125 89.945312 23.152344 90.070312 C 23.101562 90.1875 23.066406 90.371094 23.066406 90.476562 C 23.066406 90.574219 23.023438 90.664062 22.980469 90.664062 C 22.933594 90.664062 22.820312 91.523438 22.726562 92.574219 C 22.632812 93.628906 22.519531 94.816406 22.46875 95.234375 C 22.421875 95.648438 22.382812 97.011719 22.378906 98.265625 C 22.367188 100.210938 22.390625 100.546875 22.515625 100.546875 C 22.601562 100.546875 22.667969 100.617188 22.667969 100.710938 C 22.667969 100.984375 23.015625 101.082031 24.152344 101.164062 C 25.351562 101.242188 25.316406 101.253906 26.53125 100.050781 Z M 26.53125 100.050781 "/>
<path style=" stroke:none;fill-rule:evenodd;fill:rgb(27.45098%,54.117647%,10.196078%);fill-opacity:1;" d="M 112.359375 77.15625 C 107.410156 76.464844 102.855469 74.59375 98.292969 71.367188 C 96.894531 70.375 94.734375 68.609375 94.863281 68.558594 C 95.261719 68.390625 107.929688 70.382812 115.035156 71.734375 C 119.734375 72.621094 127.730469 74.320312 127.835938 74.453125 C 127.949219 74.601562 124.285156 75.933594 122.460938 76.410156 C 120.074219 77.035156 118.90625 77.179688 115.976562 77.222656 C 114.421875 77.242188 112.792969 77.210938 112.359375 77.15625 Z M 112.359375 77.15625 "/>
<path style=" stroke:none;fill-rule:evenodd;fill:rgb(27.45098%,54.117647%,10.196078%);fill-opacity:1;" d="M 29.246094 56.777344 C 30.457031 56.25 32.023438 54.824219 33.628906 52.789062 C 35.523438 50.402344 36.886719 48.171875 39.3125 43.515625 C 40.230469 41.761719 41.140625 40.027344 41.339844 39.660156 C 41.714844 38.972656 42.085938 38.574219 43.535156 37.316406 C 44.480469 36.496094 46.5 34.058594 47.613281 32.378906 L 48.324219 31.320312 L 47.902344 31.046875 C 46.015625 29.839844 43.101562 29.421875 38.464844 29.703125 C 35 29.910156 33.945312 30.1875 32.140625 31.351562 C 29.773438 32.882812 28.984375 34.234375 28.554688 37.488281 C 28.28125 39.5625 27.78125 44.296875 27.570312 46.765625 C 27.488281 47.757812 27.320312 49.453125 27.199219 50.515625 C 26.945312 52.835938 26.902344 55.5 27.113281 56.128906 C 27.40625 57 28.1875 57.234375 29.246094 56.777344 Z M 29.246094 56.777344 "/>
<path style=" stroke:none;fill-rule:evenodd;fill:rgb(70.588235%,78.039216%,86.27451%);fill-opacity:1;" d="M 178.382812 46.359375 C 179.183594 45.847656 179.476562 44.886719 179.082031 44.066406 C 178.890625 43.667969 178.285156 43.039062 178.273438 43.21875 C 178.269531 43.277344 178.226562 43.199219 178.175781 43.042969 C 178.132812 42.886719 177.964844 42.6875 177.816406 42.609375 C 177.664062 42.523438 177.351562 42.257812 177.125 42.015625 C 176.425781 41.265625 175.773438 40.707031 175.324219 40.484375 C 175.085938 40.371094 174.84375 40.191406 174.78125 40.09375 C 174.71875 39.992188 174.484375 39.875 174.269531 39.824219 C 174.050781 39.773438 173.671875 39.6875 173.425781 39.628906 C 173.179688 39.574219 172.6875 39.519531 172.320312 39.515625 L 171.65625 39.507812 L 171.390625 40.226562 C 171.117188 40.960938 170.976562 42.117188 171.085938 42.683594 C 171.175781 43.140625 171.597656 43.710938 172.242188 44.265625 C 172.8125 44.757812 173.023438 44.871094 174.449219 45.496094 C 174.871094 45.6875 175.191406 45.871094 175.15625 45.910156 C 175.121094 45.957031 175.441406 46.136719 175.867188 46.308594 C 176.894531 46.726562 177.777344 46.742188 178.382812 46.359375 Z M 178.382812 46.359375 "/>
<path style=" stroke:none;fill-rule:evenodd;fill:rgb(16.470588%,37.647059%,60%);fill-opacity:1;" d="M 174.558594 44.042969 C 174.332031 44.023438 173.777344 43.761719 173.324219 43.46875 C 172.429688 42.890625 172.277344 42.621094 172.398438 41.8125 C 172.535156 40.871094 173.992188 40.390625 174.632812 41.070312 C 174.796875 41.242188 175.023438 41.386719 175.140625 41.386719 C 175.25 41.386719 175.492188 41.507812 175.671875 41.667969 C 175.984375 41.933594 176 41.984375 176 42.71875 C 176 43.648438 175.941406 43.882812 175.699219 43.882812 C 175.601562 43.882812 175.488281 43.941406 175.457031 44.011719 C 175.425781 44.078125 175.300781 44.128906 175.183594 44.113281 C 175.0625 44.105469 174.78125 44.070312 174.558594 44.042969 Z M 174.558594 44.042969 "/>
<path style=" stroke:none;fill-rule:evenodd;fill:rgb(27.45098%,54.117647%,10.196078%);fill-opacity:1;" d="M 120.617188 44.296875 C 121.007812 41.390625 121.070312 40.355469 121.070312 37.074219 C 121.070312 33.671875 120.9375 31.726562 120.515625 29.0625 C 119.074219 19.867188 115.476562 12.230469 110.597656 8.015625 L 109.6875 7.234375 L 109.464844 7.792969 C 108.375 10.511719 107.21875 15.066406 106.746094 18.566406 C 106.453125 20.714844 106.429688 25.25 106.695312 27.179688 C 107.542969 33.273438 109.699219 38.304688 113.585938 43.261719 L 114.8125 44.824219 L 114.914062 44.449219 C 115.09375 43.78125 115.050781 38.039062 114.851562 36.070312 C 114.609375 33.648438 114.25 30.996094 113.792969 28.195312 C 113.578125 26.898438 113.417969 25.8125 113.433594 25.792969 C 113.453125 25.765625 114.996094 30.28125 116.871094 35.820312 C 118.742188 41.355469 120.304688 45.886719 120.34375 45.886719 C 120.375 45.886719 120.5 45.171875 120.617188 44.296875 Z M 120.617188 44.296875 "/>
</g>
</svg>
