<?xml version="1.0" encoding="UTF-8"?>
<svg version="1.1" xmlns="http://www.w3.org/2000/svg" width="200" height="200">
<path d="M0 0 C66 0 132 0 200 0 C200 66 200 132 200 200 C134 200 68 200 0 200 C0 134 0 68 0 0 Z " fill="#00B3B7" transform="translate(0,0)"/>
<path d="M0 0 C21.96679389 -2.22207453 21.96679389 -2.22207453 28.37695312 1.30957031 C33.19151611 5.42291316 36.47310553 10.66264494 39.09375 16.390625 C39.96656705 18.36189653 39.96656705 18.36189653 43 19 C44.62531648 20.79935728 46.18078244 22.66272568 47.6875 24.5625 C48.89986328 26.08037109 48.89986328 26.08037109 50.13671875 27.62890625 C50.75160156 28.41136719 51.36648437 29.19382812 52 30 C59.38921165 22.00660642 59.38921165 22.00660642 66.625 13.875 C67.18832031 13.26398437 67.75164062 12.65296875 68.33203125 12.0234375 C70.11619931 9.98252919 70.11619931 9.98252919 71.51171875 7.2890625 C73.80332364 3.73980894 75.26625859 2.08453276 79 0 C87.57592579 -1.27587498 96.38452579 -0.60929803 105 0 C105 0.66 105 1.32 105 2 C104.34 2 103.68 2 103 2 C102.74347656 2.57621094 102.48695313 3.15242188 102.22265625 3.74609375 C100.8809222 6.21951403 99.34740523 7.99825899 97.4375 10.0625 C94.38740374 13.42035372 91.47054582 16.84207544 88.625 20.375 C85.49048678 24.24450252 82.25009112 27.96353752 78.875 31.625 C74.63951543 36.22447152 70.73659152 40.98900807 67 46 C68.60085691 49.82227071 71.06228222 52.42864315 73.875 55.4375 C83 65.22985075 83 65.22985075 83 68 C84.485 68.495 84.485 68.495 86 69 C87.83984375 71.01171875 87.83984375 71.01171875 89.9375 73.6875 C94.18495704 79.02656049 98.5878927 84.19896054 103.10131836 89.31518555 C105.31686214 91.86271658 106.92103247 93.7630974 108 97 C84.92321887 98.6320213 84.92321887 98.6320213 78.515625 95.0546875 C76.30209617 92.48793598 74.65291559 89.95315253 73 87 C71.86705301 85.65828525 70.70113427 84.34353233 69.5 83.0625 C65.95488185 79.00622528 62.58035702 74.81593267 59.2109375 70.61328125 C56.93580953 67.92412823 54.52274982 65.45636166 52 63 C46.53478792 68.95617676 41.2901575 75.03539633 36.20703125 81.3203125 C33.47162271 84.6415342 30.61926755 87.84298737 27.7265625 91.02734375 C25.95312077 92.92678863 25.95312077 92.92678863 24.77954102 95.09887695 C23 97 23 97 20.1809082 97.45410156 C19.06546631 97.4331543 17.95002441 97.41220703 16.80078125 97.390625 C15.59228516 97.37773437 14.38378906 97.36484375 13.13867188 97.3515625 C11.87603516 97.31804687 10.61339844 97.28453125 9.3125 97.25 C8.03826172 97.23195313 6.76402344 97.21390625 5.45117188 97.1953125 C2.30003159 97.14810441 -0.8496114 97.08226384 -4 97 C-2.38182825 93.59170063 -0.52234036 91.20469242 2.0625 88.4375 C5.29198338 84.91957792 8.38460518 81.34817625 11.375 77.625 C14.61952267 73.61174025 17.98741664 69.77579862 21.5 66 C27.38158293 59.67335772 33.20092418 53.19861373 38 46 C37.35933594 45.31035156 36.71867187 44.62070313 36.05859375 43.91015625 C31.34491418 38.78903493 26.81210013 33.67394516 22.66796875 28.0703125 C20.97020714 25.88744159 20.97020714 25.88744159 18.6796875 23.6796875 C15.58832287 20.58832287 12.76598123 17.33013639 9.9375 14 C9.42123047 13.39671875 8.90496094 12.7934375 8.37304688 12.171875 C6.90754557 10.45434481 5.45198032 8.72896555 4 7 C3.21753906 6.071875 2.43507813 5.14375 1.62890625 4.1875 C0 2 0 2 0 0 Z " fill="#FBFDFD" transform="translate(48,48)"/>
</svg>
