<svg xmlns="http://www.w3.org/2000/svg" width="200" height="200" viewBox="0 0 200 200" version="1.1"><path d="M 88 29.500 C 86.996 30.710, 83.882 31, 71.878 31 C 63.695 31, 57 31.399, 57 31.887 C 57 32.375, 53.864 32.951, 50.032 33.168 C 42.639 33.586, 39.475 35.144, 35.670 40.241 C 33.303 43.410, 32.153 53.733, 32.063 72.628 C 32.013 83.020, 31.688 86.014, 30.500 87 C 28.331 88.800, 28.657 94.294, 31.119 97.424 L 33.238 100.118 31.119 102.373 C 28.883 104.754, 28.153 111.358, 30 112.500 C 30.594 112.867, 31 119.177, 31 128.059 C 31 137.353, 31.378 143, 32 143 C 32.550 143, 33 145.039, 33 147.532 C 33 158.844, 40.622 166.973, 51.250 166.994 C 52.763 166.997, 54 167.450, 54 168 C 54 168.625, 59.959 169, 69.878 169 C 82.040 169, 86.019 169.318, 86.883 170.359 C 88.554 172.373, 95.773 171.562, 98.435 169.061 L 100.641 166.989 102.788 169.274 C 104.499 171.096, 105.753 171.481, 108.973 171.174 C 111.195 170.962, 113.261 170.386, 113.565 169.894 C 113.869 169.402, 120.616 169, 128.559 169 C 137.520 169, 143 168.621, 143 168 C 143 167.438, 145.784 167, 149.352 167 C 154.303 167, 156.448 166.499, 159.078 164.726 C 164.640 160.978, 167 156.564, 167 149.911 C 167 146.725, 167.450 143.840, 168 143.500 C 168.594 143.133, 169 136.843, 169 128 C 169 119.157, 169.406 112.867, 170 112.500 C 171.877 111.340, 171.113 104.749, 168.819 102.308 L 166.639 99.987 169.319 97.189 C 172.266 94.113, 172.935 89.021, 170.642 87.118 C 169.630 86.278, 169.137 81.335, 168.709 67.745 C 168.394 57.710, 167.638 47.826, 167.029 45.781 C 164.666 37.837, 158.066 33, 149.591 33 C 147.131 33, 144.840 32.550, 144.500 32 C 144.133 31.406, 137.864 31, 129.063 31 C 117.111 31, 114.004 30.710, 113 29.500 C 111.046 27.145, 105.966 27.658, 102.989 30.511 L 100.368 33.021 98.010 30.511 C 95.309 27.636, 89.992 27.099, 88 29.500 M 90.500 30.733 C 92.150 30.972, 94.225 31.818, 95.112 32.614 C 95.999 33.410, 98.098 34.454, 99.777 34.936 C 102.341 35.671, 103.181 35.436, 105.038 33.460 C 106.253 32.166, 108.654 30.931, 110.373 30.714 C 112.649 30.427, 112.216 30.277, 108.785 30.160 C 104.995 30.031, 103.860 30.392, 103 32 C 102.411 33.100, 101.340 34, 100.620 34 C 99.899 34, 98.495 33.100, 97.500 32 C 96.193 30.555, 94.553 30.042, 91.595 30.150 C 88.194 30.274, 88.008 30.373, 90.500 30.733 M 67.211 32.919 C 59.387 33.467, 57.072 34.451, 57.015 37.250 C 56.983 38.855, 63.326 37.931, 64.914 36.099 C 66.304 34.496, 68.454 34.110, 78.629 33.636 L 90.696 33.074 93.535 36.037 C 95.097 37.667, 96.700 39, 97.099 39 C 98.591 39, 97.254 35.624, 95.058 33.846 C 92.625 31.875, 85.494 31.638, 67.211 32.919 M 105.068 34.904 C 102.027 39.175, 102.547 39.815, 106.250 36.357 C 109.453 33.365, 109.669 33.318, 121.325 33.095 C 132.867 32.875, 133.206 32.931, 135.527 35.435 C 137.019 37.045, 138.977 38, 140.786 38 C 144.839 38, 145.240 37.149, 142.485 34.394 C 140.153 32.062, 139.661 32, 123.614 32 L 107.136 32 105.068 34.904 M 44.604 35.038 C 38.333 36.915, 33.840 43.973, 34.124 51.500 C 34.204 53.618, 34.515 52.984, 35.180 49.346 C 36.596 41.597, 40.945 37.072, 48.540 35.445 C 53.157 34.455, 53.711 34.168, 51 34.170 C 49.075 34.171, 46.197 34.562, 44.604 35.038 M 150.541 34.836 C 155.387 35.727, 160.980 39.038, 162.884 42.144 C 163.645 43.385, 164.601 46.673, 165.009 49.450 L 165.750 54.500 165.875 49.898 C 166.096 41.761, 159.779 35.031, 151.364 34.437 C 146.660 34.105, 146.633 34.118, 150.541 34.836 M 70.776 35.733 C 73.128 35.945, 76.728 35.942, 78.776 35.727 C 80.824 35.512, 78.900 35.339, 74.500 35.343 C 70.100 35.346, 68.424 35.522, 70.776 35.733 M 83.447 35.953 C 82.922 36.478, 78.895 37.062, 74.497 37.252 C 68.905 37.494, 70.523 37.658, 79.872 37.799 C 91.660 37.976, 93.097 37.822, 92 36.500 C 90.616 34.832, 84.931 34.469, 83.447 35.953 M 108.103 36.376 C 106.871 37.861, 107.883 38, 119.878 38 C 127.959 38, 133 37.616, 133 37 C 133 36.450, 130.637 35.997, 127.750 35.993 C 124.862 35.989, 119.564 35.708, 115.975 35.369 C 110.656 34.867, 109.201 35.053, 108.103 36.376 M 99.500 37 C 99.101 37.646, 99.224 38.624, 99.774 39.174 C 100.441 39.841, 101.016 39.783, 101.500 39 C 101.899 38.354, 101.776 37.376, 101.226 36.826 C 100.559 36.159, 99.984 36.217, 99.500 37 M 147.135 37.547 C 145.285 38.346, 142.247 39, 140.385 39 L 137 39 137 46.809 C 137 52.444, 137.440 55.158, 138.582 56.559 C 140.141 58.472, 140.153 58.472, 139.440 56.500 C 136.701 48.924, 138.864 42.832, 145.306 39.983 C 148.749 38.460, 150.387 38.251, 153 39 C 160.687 41.205, 164.233 48.424, 161.103 55.499 C 157.838 62.880, 149.048 64.972, 142.601 59.901 C 141.171 58.776, 140 58.328, 140 58.907 C 140 61.237, 147.845 64, 154.460 64 C 160.803 64, 161 63.923, 161 61.450 C 161 60.048, 161.724 57.500, 162.610 55.788 C 165.588 50.028, 162.930 41.542, 157.241 38.647 C 152.542 36.257, 150.610 36.047, 147.135 37.547 M 40.941 40.942 C 37.611 44.442, 37.005 45.737, 37.035 49.292 C 37.055 51.606, 37.714 54.625, 38.500 56 C 39.286 57.375, 39.945 59.677, 39.965 61.116 L 40 63.733 47.250 63.277 C 58.843 62.549, 62.642 58.743, 63.636 46.862 L 64.275 39.223 59.387 38.585 C 43.885 36.560, 45.279 36.382, 40.941 40.942 M 44.449 39.551 C 33.547 44.932, 37.733 62, 49.954 62 C 62.391 62, 66.740 44.901, 55.643 39.635 C 51.395 37.619, 48.409 37.597, 44.449 39.551 M 45.259 40.531 C 43.238 41.382, 41.372 43.250, 40.304 45.489 C 38.760 48.727, 38.734 49.494, 40.045 53.244 C 41.024 56.044, 42.579 58.033, 44.797 59.322 C 46.611 60.377, 48.314 61.019, 48.582 60.751 C 48.851 60.483, 48.942 55.516, 48.785 49.715 L 48.500 39.166 45.259 40.531 M 51 39.722 C 51 40.184, 52.358 41.074, 54.017 41.701 C 57.501 43.015, 60.220 48.357, 59.307 52.092 C 58.541 55.223, 56.102 58, 53.111 59.143 C 51.798 59.645, 50.968 60.302, 51.268 60.602 C 52.370 61.704, 58.011 57.880, 59.483 55.033 C 61.374 51.376, 61.402 48.678, 59.585 45.165 C 58.384 42.842, 56.774 41.624, 51.750 39.238 C 51.337 39.042, 51 39.260, 51 39.722 M 65.079 40.583 C 65.127 41.748, 65.364 41.985, 65.683 41.188 C 65.972 40.466, 65.936 39.603, 65.604 39.271 C 65.272 38.939, 65.036 39.529, 65.079 40.583 M 67 47.352 C 67 54.384, 66.640 56.238, 64.726 59.078 C 60.616 65.178, 56.735 67, 47.852 67 L 40 67 40 81.441 C 40 89.384, 40.396 96.127, 40.881 96.426 C 42.669 97.531, 42.642 101.724, 40.832 103.959 C 39.270 105.888, 39 108.101, 39 118.985 L 39 131.749 47.327 132.186 C 61.595 132.935, 66.981 138.477, 67.317 152.756 L 67.500 160.500 81.605 160.777 C 93.270 161.005, 95.930 160.789, 96.978 159.527 C 98.598 157.575, 102.390 157.560, 104 159.500 C 104.996 160.700, 107.993 161, 118.997 161 L 132.749 161 133.187 152.664 C 133.667 143.505, 135.453 139.236, 140.322 135.605 C 142.583 133.918, 144.916 133.431, 152.072 133.151 L 161 132.801 161 118.523 C 161 107.051, 160.705 104, 159.500 103 C 158.675 102.315, 158 100.740, 158 99.500 C 158 98.260, 158.675 96.685, 159.500 96 C 160.697 95.007, 161 92.049, 161 81.378 C 161 66.555, 161.493 67.485, 153.879 67.934 C 140.732 68.707, 133 60.785, 133 46.540 L 133 39 119.122 39 C 108.007 39, 104.997 39.299, 104 40.500 C 103.315 41.325, 101.740 42, 100.500 42 C 99.260 42, 97.685 41.325, 97 40.500 C 95.999 39.294, 92.938 39, 81.378 39 L 67 39 67 47.352 M 150.913 40.964 C 163.056 42.928, 163.056 58.072, 150.913 60.036 L 146.500 60.750 150.694 60.875 C 156.405 61.045, 159.923 57.993, 160.701 52.193 C 161.684 44.862, 157.153 39.846, 149.800 40.125 C 146.877 40.236, 147.005 40.332, 150.913 40.964 M 51 50 C 51 58.702, 51.626 59.465, 55.545 55.545 C 58.986 52.104, 58.904 46.856, 55.365 44.073 C 53.916 42.933, 52.341 42, 51.865 42 C 51.389 42, 51 45.600, 51 50 M 141.605 44.250 C 138.921 48.438, 139.193 53.951, 142.259 57.515 L 144.518 60.141 146.886 57.621 C 149.816 54.502, 150.198 48.477, 147.705 44.673 C 145.566 41.409, 143.516 41.266, 141.605 44.250 M 149.584 45.163 C 151.068 48.032, 151.149 51.569, 149.857 57 C 149.598 58.088, 150.187 58.410, 152 58.171 C 155.365 57.728, 157.816 55.169, 158.593 51.287 C 159.132 48.591, 158.749 47.596, 156.194 45.040 C 154.365 43.211, 152.117 42, 150.551 42 C 147.952 42, 147.951 42.004, 149.584 45.163 M 65.136 48.782 C 64.792 57.087, 59.810 62.758, 51.241 64.599 C 46.023 65.720, 45.844 65.840, 49.282 65.916 C 59.278 66.138, 67.476 57.145, 65.723 47.881 C 65.370 46.016, 65.243 46.212, 65.136 48.782 M 134.625 52 C 134.838 54.475, 135.838 57.625, 136.848 59 C 139.505 62.618, 144.888 66.007, 147.898 65.956 C 150.128 65.918, 149.947 65.715, 146.637 64.535 C 139.985 62.164, 136.475 57.752, 134.675 49.500 C 134.435 48.400, 134.413 49.525, 134.625 52 M 34.571 58.571 C 33.264 59.879, 32.229 67, 33.347 67 C 33.538 67, 34.663 66.160, 35.847 65.133 C 37.195 63.963, 38 62.095, 38 60.133 C 38 56.669, 36.951 56.192, 34.571 58.571 M 162.607 58.582 C 161.461 61.569, 162.004 63.528, 164.500 65.403 C 166.914 67.216, 167 67.677, 167 78.842 L 167 90.405 163.804 93.702 C 161.653 95.921, 161.106 97, 162.130 97 C 162.967 97, 164.630 95.958, 165.826 94.686 C 167.869 92.511, 168 91.418, 168 76.553 C 168 61.605, 167.882 60.632, 165.847 58.867 C 163.248 56.613, 163.359 56.623, 162.607 58.582 M 108 65 C 105.074 67.926, 105.552 69.770, 108.515 66.986 C 110.609 65.019, 111.486 64.784, 113.765 65.580 C 115.662 66.244, 116.594 67.344, 116.807 69.172 C 117.204 72.579, 113.868 75, 108.777 75 C 105.547 75, 104.990 74.674, 104.932 72.750 C 104.865 70.501, 104.864 70.501, 103.839 72.616 C 102.959 74.433, 101.941 74.732, 96.657 74.725 C 87.121 74.714, 84.487 75.666, 81.479 80.211 L 78.830 84.214 76.275 80.357 C 72.337 74.411, 68.807 70.885, 65.282 69.377 C 56.468 65.606, 47 70.480, 47 78.788 C 47 83.181, 48.409 85.643, 51.980 87.490 C 55.901 89.517, 58.854 89.386, 62.750 87.011 C 65.178 85.531, 66 84.317, 66 82.215 C 66 79.214, 64.429 77, 62.300 77 C 61.450 77, 61.667 77.667, 62.926 78.926 C 67.226 83.226, 61.440 88.789, 54.625 86.907 C 43.981 83.968, 47.441 70.017, 58.816 70.004 C 62.661 69.999, 65.450 71.267, 69.120 74.685 C 71.422 76.829, 71.678 77.694, 71.226 81.813 C 70.943 84.391, 70.214 86.831, 69.605 87.235 C 68.987 87.646, 69.623 87.976, 71.049 87.985 C 73.376 87.999, 73.563 87.695, 73.190 84.500 C 72.965 82.575, 73.011 81, 73.292 81 C 73.573 81, 74.784 82.664, 75.984 84.698 L 78.166 88.396 80.280 84.698 C 81.442 82.664, 82.755 81, 83.197 81 C 84.515 81, 84.105 86.793, 82.750 87.313 C 82.063 87.576, 85.899 87.787, 91.276 87.780 C 98.472 87.772, 100.803 87.468, 100.108 86.630 C 99.589 86.004, 99.014 83.919, 98.832 81.996 C 98.532 78.834, 98.177 78.469, 95.123 78.177 C 93.265 78, 91.270 78.330, 90.690 78.910 C 89.118 80.482, 90.708 81.487, 92.463 80.031 C 93.294 79.341, 94.655 79.037, 95.487 79.357 C 98.225 80.407, 97.067 81.874, 93.250 82.190 C 90.207 82.441, 89.438 82.935, 89.173 84.808 C 88.618 88.722, 86.517 86.600, 86.201 81.807 C 85.912 77.425, 86.010 77.248, 89.076 76.635 C 92.997 75.851, 97.801 75.840, 100.666 76.608 C 102.486 77.097, 102.771 77.773, 102.449 80.845 C 101.926 85.829, 103.613 89.597, 106.995 90.998 C 110.737 92.548, 113.872 90.890, 114.661 86.946 C 115.142 84.541, 115.755 84, 118.003 84 C 119.516 84, 121.315 83.325, 122 82.500 C 123.493 80.701, 122.930 80.619, 119.577 82.147 C 117.634 83.032, 116.710 83.004, 115.530 82.025 C 112.834 79.787, 113.868 79, 119.500 79 L 125 79 125 82.917 C 125 85.114, 124.451 87.055, 123.750 87.338 C 123.063 87.615, 124.300 87.842, 126.500 87.842 C 128.700 87.842, 129.938 87.615, 129.250 87.338 C 128.563 87.060, 128 85.772, 128 84.476 C 128 81.718, 129.441 80.595, 133.250 80.385 C 135.725 80.249, 136 80.564, 136 83.534 C 136 85.348, 135.438 87.060, 134.750 87.338 C 134.063 87.615, 135.300 87.871, 137.500 87.906 C 139.700 87.941, 140.965 87.629, 140.311 87.213 C 139.656 86.797, 139.016 83.858, 138.888 80.681 C 138.759 77.503, 138.252 74.656, 137.760 74.352 C 136.209 73.393, 135.661 74.886, 136.980 76.476 C 138.078 77.799, 137.667 78.024, 133.872 78.183 C 126.359 78.497, 123.651 78.002, 121.756 75.968 C 120.747 74.886, 119.501 74, 118.986 74 C 118.471 74, 118.314 72.680, 118.637 71.066 C 119.095 68.774, 118.663 67.572, 116.657 65.566 C 113.575 62.485, 110.703 62.297, 108 65 M 158 66 C 158 66.550, 158.675 67, 159.500 67 C 160.325 67, 161 66.550, 161 66 C 161 65.450, 160.325 65, 159.500 65 C 158.675 65, 158 65.450, 158 66 M 35.336 74 C 35.336 78.125, 35.513 79.813, 35.728 77.750 C 35.944 75.688, 35.944 72.313, 35.728 70.250 C 35.513 68.188, 35.336 69.875, 35.336 74 M 37 74.441 C 37 78.534, 36.550 82.160, 36 82.500 C 34.437 83.466, 34.813 90.600, 36.500 92 C 37.820 93.096, 38 91.673, 38 80.122 C 38 72.905, 37.775 67, 37.500 67 C 37.225 67, 37 70.348, 37 74.441 M 162.196 80.405 C 162.001 93.252, 162.009 93.302, 164 91.500 C 166.366 89.358, 166.685 83.813, 164.544 82.036 C 163.614 81.265, 162.962 78.419, 162.740 74.164 C 162.547 70.481, 162.304 73.272, 162.196 80.405 M 164 74.441 C 164 77.984, 164.450 81.160, 165 81.500 C 165.631 81.890, 166 79.510, 166 75.059 C 166 71.020, 165.572 68, 165 68 C 164.437 68, 164 70.814, 164 74.441 M 115.347 76.537 C 113.642 77.829, 113.750 77.939, 116.750 77.968 C 120.057 78.001, 121.143 76.653, 118.597 75.676 C 117.826 75.380, 116.363 75.767, 115.347 76.537 M 33.199 84.576 C 33.019 91.862, 33.226 92.864, 35.314 94.826 C 38.671 97.979, 39.851 97.498, 36.736 94.246 C 34.456 91.866, 34.050 90.475, 33.747 83.996 L 33.397 76.500 33.199 84.576 M 105.030 80.750 C 105.055 83.783, 105.256 84.165, 106.080 82.750 C 106.641 81.787, 107.925 81, 108.933 81 C 109.942 81, 111.002 80.100, 111.290 79 C 111.737 77.289, 111.320 77, 108.406 77 C 105.131 77, 105.001 77.145, 105.030 80.750 M 142.459 79.067 C 141.376 80.819, 142.661 81.228, 144.886 79.839 C 146.655 78.734, 147.227 78.799, 148.698 80.270 C 150.339 81.910, 150.242 82, 146.837 82 C 142.546 82, 140.114 84.228, 141.968 86.461 C 142.791 87.453, 145 87.891, 148.840 87.826 C 151.953 87.773, 153.938 87.528, 153.250 87.282 C 152.563 87.035, 152 85.386, 152 83.617 C 152 81.847, 151.460 79.860, 150.800 79.200 C 149.313 77.713, 143.354 77.618, 142.459 79.067 M 107.357 83.513 C 107.037 84.345, 107.332 85.695, 108.011 86.513 C 109.479 88.282, 107.928 88.528, 106.200 86.800 C 105.533 86.133, 105 86.044, 105 86.600 C 105 88.321, 107.304 90, 109.665 90 C 112.628 90, 114.454 86.716, 113 84 C 111.741 81.648, 108.190 81.341, 107.357 83.513 M 92.250 83.662 C 90.511 84.364, 90.690 85.667, 92.627 86.410 C 94.282 87.046, 97 85.472, 97 83.878 C 97 82.944, 94.329 82.823, 92.250 83.662 M 144.446 84.087 C 144.077 84.685, 144.200 85.600, 144.720 86.120 C 145.975 87.375, 149 86.155, 149 84.393 C 149 82.752, 145.420 82.511, 144.446 84.087 M 31.160 91.436 C 31.045 94.257, 31.617 96.028, 33.181 97.692 L 35.361 100.013 32.681 102.811 C 30.731 104.847, 30.041 106.548, 30.150 109.055 C 30.273 111.885, 30.372 112.031, 30.704 109.873 C 30.927 108.428, 32.210 106.212, 33.555 104.949 C 36.515 102.168, 36.738 97.978, 34.056 95.550 C 32.986 94.582, 31.933 92.375, 31.716 90.645 C 31.361 87.822, 31.304 87.902, 31.160 91.436 M 169 90.267 C 169 91.578, 167.875 93.708, 166.500 95 C 163.292 98.014, 163.271 101.966, 166.445 104.949 C 167.790 106.212, 169.073 108.428, 169.296 109.873 C 169.555 111.556, 169.754 110.962, 169.850 108.219 C 169.951 105.331, 169.537 103.760, 168.577 103.391 C 165.976 102.393, 165.944 99.856, 168.494 96.825 C 171.048 93.789, 171.804 89.615, 170 88.500 C 169.440 88.154, 169 88.932, 169 90.267 M 97 90.800 C 97 91.240, 97.540 92.140, 98.200 92.800 C 99.133 93.733, 98.511 94, 95.400 94 C 93.200 94, 90.860 94.540, 90.200 95.200 C 89.267 96.133, 89 96.133, 89 95.200 C 89 94.540, 88.045 94, 86.878 94 C 85.333 94, 85.017 94.341, 85.717 95.250 C 87.097 97.044, 86.590 102.013, 84.920 103.071 C 83.949 103.685, 84.766 103.949, 87.500 103.906 C 89.700 103.871, 90.938 103.615, 90.250 103.338 C 89.563 103.060, 89 101.801, 89 100.539 C 89 97.912, 91.386 95.503, 93 96.500 C 93.598 96.870, 94.743 96.628, 95.544 95.964 C 96.697 95.006, 97.027 95.040, 97.128 96.128 C 97.198 96.882, 97.362 98.524, 97.492 99.776 C 97.623 101.028, 97.003 102.477, 96.115 102.996 C 94.990 103.653, 96.608 103.948, 101.450 103.970 C 106.856 103.993, 108.133 103.733, 107.200 102.800 C 105.242 100.842, 105.717 96.307, 107.942 95.725 C 109.010 95.446, 110.135 95.469, 110.442 95.775 C 111.529 96.862, 110.981 102.841, 109.750 103.338 C 109.063 103.615, 110.300 103.842, 112.500 103.842 C 114.700 103.842, 115.938 103.615, 115.250 103.338 C 114.563 103.060, 114 101.265, 114 99.347 C 114 96.304, 114.286 95.901, 116.250 96.180 C 118.209 96.459, 118.539 97.177, 118.802 101.729 C 119.148 107.740, 121.307 110, 126.699 110 C 129.109 110, 130.401 109.318, 131.674 107.375 C 133.271 104.938, 133.277 104.549, 131.765 101.914 L 130.137 99.077 133.319 99.549 C 135.068 99.808, 135.938 99.753, 135.250 99.426 C 134.563 99.100, 134 97.716, 134 96.351 C 134 92.027, 132.252 90, 128.524 90 C 126.651 90, 124.821 90.480, 124.459 91.067 C 123.418 92.751, 124.796 93.414, 126.463 92.031 C 127.294 91.341, 128.655 91.037, 129.487 91.357 C 132.225 92.407, 131.067 93.874, 127.250 94.190 C 123.928 94.465, 123.495 94.810, 123.454 97.212 C 123.429 98.704, 123.092 100.242, 122.704 100.629 C 121.503 101.830, 121.928 104.695, 123.499 105.999 C 124.791 107.071, 124.916 106.830, 124.403 104.266 C 123.714 100.820, 125.874 99.327, 129.072 101.039 C 132.837 103.054, 130.882 109, 126.455 109 C 123.031 109, 121.151 105.997, 120.811 99.988 L 120.500 94.500 111 94.369 C 105.775 94.297, 102.063 94.447, 102.750 94.703 C 103.458 94.966, 104 96.864, 104 99.083 C 104 102.333, 103.660 103, 102 103 C 100.269 103, 99.984 102.294, 99.882 97.750 C 99.816 94.862, 99.836 91.938, 99.925 91.250 C 100.015 90.563, 99.393 90, 98.544 90 C 97.695 90, 97 90.360, 97 90.800 M 70.837 92.878 C 72.825 94.138, 71.866 98.414, 69.500 98.840 C 68.400 99.038, 66.487 100.133, 65.250 101.274 C 57.669 108.264, 71.119 118.414, 79.365 111.927 C 83.421 108.737, 82.568 102, 78.109 102 C 76.934 102, 76.995 102.276, 78.395 103.299 C 81.168 105.327, 80.162 110.169, 76.617 111.861 C 74.323 112.956, 72.947 113.001, 69.883 112.083 C 63.951 110.306, 62.257 105.701, 66.189 102.039 C 69.604 98.857, 74.015 99.585, 70.800 102.800 C 69.867 103.733, 70.367 103.982, 73.050 103.921 C 74.948 103.878, 75.938 103.615, 75.250 103.338 C 72.702 102.309, 73.958 100, 77.066 100 C 81.064 100, 84 98.376, 84 96.165 C 84 93.081, 81.798 91.999, 75.550 92.015 C 71.850 92.025, 70.020 92.360, 70.837 92.878 M 74.667 93.667 C 73.557 94.776, 73.919 97.806, 75.212 98.237 C 77.660 99.053, 81 97.757, 81 95.990 C 81 93.590, 76.423 91.910, 74.667 93.667 M 126.446 96.087 C 126.077 96.685, 126.200 97.600, 126.720 98.120 C 127.975 99.375, 131 98.155, 131 96.393 C 131 94.752, 127.420 94.511, 126.446 96.087 M 160.639 98.694 C 159.513 99.820, 159.954 101, 161.500 101 C 162.325 101, 163 100.577, 163 100.059 C 163 98.798, 161.438 97.895, 160.639 98.694 M 37.192 100.075 C 37.389 100.666, 37.977 101.150, 38.500 101.150 C 39.023 101.150, 39.611 100.666, 39.808 100.075 C 40.005 99.484, 39.417 99, 38.500 99 C 37.583 99, 36.995 99.484, 37.192 100.075 M 34.562 105.936 L 31.749 108.872 32.174 123.842 C 32.602 138.916, 33.358 142, 36.622 142 C 38.703 142, 38.315 136.715, 36.056 134.290 C 34.397 132.510, 34.086 130.562, 33.934 121.025 L 33.756 109.847 37.074 106.424 C 39.258 104.170, 39.876 103, 38.883 103 C 38.053 103, 36.108 104.321, 34.562 105.936 M 163.757 106.250 C 166.671 109.256, 166.933 110.100, 167.252 117.500 L 167.598 125.500 167.799 116.885 C 167.971 109.497, 167.705 107.894, 165.927 105.635 C 164.788 104.186, 163.124 103, 162.231 103 C 161.046 103, 161.458 103.878, 163.757 106.250 M 36.200 108.200 C 34.773 109.627, 34.597 116.197, 35.949 117.550 C 36.471 118.073, 37.058 121.650, 37.253 125.500 C 37.474 129.848, 37.682 127.669, 37.804 119.750 C 37.912 112.737, 37.865 107, 37.700 107 C 37.535 107, 36.860 107.540, 36.200 108.200 M 162 120.059 C 162 128.510, 162.353 132.900, 163 132.500 C 163.550 132.160, 164 128.560, 164 124.500 C 164 120.440, 164.450 116.840, 165 116.500 C 167.143 115.175, 165.392 107, 162.965 107 C 162.394 107, 162 112.337, 162 120.059 M 84.079 118.750 C 81.836 121.912, 80 124.992, 80 125.594 C 80 126.880, 97.526 148.148, 99.499 149.256 C 101.152 150.185, 101.980 149.373, 112.046 136.944 C 116.421 131.541, 120 126.428, 120 125.580 C 120 124.732, 118.411 121.555, 116.469 118.519 L 112.939 113 100.548 113 L 88.158 113 84.079 118.750 M 92 116.878 C 92 118.713, 94.598 120.002, 95.824 118.776 C 97.665 116.935, 97.219 116, 94.500 116 C 93.125 116, 92 116.395, 92 116.878 M 104.232 118 C 104.919 119.100, 105.807 120, 106.205 120 C 106.604 120, 107.411 119.100, 108 118 C 108.961 116.204, 108.760 116, 106.027 116 C 103.233 116, 103.086 116.164, 104.232 118 M 86.223 120.580 L 83.982 124 87.991 124 C 92.502 124, 92.715 123.604, 90.226 119.830 L 88.465 117.160 86.223 120.580 M 97.659 121 L 95.887 124 100.512 124 L 105.136 124 103 121 C 101.825 119.350, 100.541 118, 100.148 118 C 99.754 118, 98.634 119.350, 97.659 121 M 109.659 121 L 107.887 124 111.943 124 C 116.527 124, 116.617 123.871, 114.385 120.465 C 112.315 117.305, 111.808 117.362, 109.659 121 M 165.343 125.500 C 165.346 129.900, 165.522 131.576, 165.733 129.224 C 165.945 126.872, 165.942 123.272, 165.727 121.224 C 165.512 119.176, 165.339 121.100, 165.343 125.500 M 35.328 125.500 C 35.333 129.350, 35.513 130.802, 35.730 128.728 C 35.946 126.653, 35.943 123.503, 35.722 121.728 C 35.501 119.952, 35.324 121.650, 35.328 125.500 M 85.852 128.685 C 87.277 131.294, 96.003 141.322, 95.985 140.332 C 95.977 139.874, 95.131 136.800, 94.104 133.500 C 92.301 127.704, 92.112 127.489, 88.549 127.185 C 85.248 126.904, 84.965 127.062, 85.852 128.685 M 95 127.343 C 95 127.739, 98.727 138.760, 99.619 141 C 99.997 141.951, 101.072 140.306, 102.556 136.500 C 106.061 127.515, 105.923 127, 100 127 C 97.250 127, 95 127.155, 95 127.343 M 108.479 128.250 C 108.228 128.938, 107.128 132.200, 106.035 135.500 L 104.048 141.500 108.133 137 C 110.380 134.525, 113.099 131.262, 114.177 129.750 L 116.136 127 112.537 127 C 110.557 127, 108.731 127.563, 108.479 128.250 M 40 134 C 40 134.550, 40.423 135, 40.941 135 C 41.459 135, 42.160 134.550, 42.500 134 C 42.840 133.450, 42.416 133, 41.559 133 C 40.702 133, 40 133.450, 40 134 M 51.278 134.409 C 60.170 137.011, 63.910 140.918, 65.164 148.914 L 65.883 153.500 65.601 148.378 C 65.126 139.770, 60.026 134.636, 50.855 133.534 L 46.500 133.010 51.278 134.409 M 144.021 135.116 C 138.581 137.286, 135.678 141.628, 134.569 149.250 C 134.115 152.367, 134.242 154, 134.939 154 C 135.522 154, 136.002 152.088, 136.004 149.750 C 136.011 141.893, 141.030 136.498, 149.687 135.044 L 154.500 134.235 150.500 134.181 C 148.300 134.151, 145.384 134.572, 144.021 135.116 M 158.813 134.683 C 159.534 134.972, 160.397 134.936, 160.729 134.604 C 161.061 134.272, 160.471 134.036, 159.417 134.079 C 158.252 134.127, 158.015 134.364, 158.813 134.683 M 165 134.917 C 165 135.512, 164.325 136, 163.500 136 C 162.507 136, 162 136.993, 162 138.941 C 162 142.684, 163.676 143.742, 165.827 141.356 C 167.771 139.200, 168.017 134.839, 166.228 134.243 C 165.553 134.018, 165 134.321, 165 134.917 M 39.680 137.883 C 39.951 138.919, 39.458 141.147, 38.586 142.834 C 36.755 146.375, 36.515 152.225, 38.081 155.151 C 38.676 156.262, 38.907 157.426, 38.596 157.737 C 38.285 158.048, 37.366 156.772, 36.554 154.901 C 35.348 152.121, 35.071 151.910, 35.039 153.747 C 34.945 159.129, 44.724 166.141, 52 165.909 C 53.497 165.862, 52.494 165.340, 49.500 164.609 C 44.379 163.359, 39 160.442, 39 158.915 C 39 158.445, 40.688 159.207, 42.750 160.608 C 45.679 162.598, 47.266 163.028, 50 162.569 C 51.925 162.246, 55.862 161.705, 58.750 161.367 L 64 160.752 63.998 154.126 C 63.997 146.204, 61.956 141.513, 57.102 138.270 C 54.349 136.431, 52.327 136, 46.446 136 C 39.830 136, 39.231 136.167, 39.680 137.883 M 147.209 136.984 C 140.230 138.638, 137 143.978, 137 153.862 C 137 160.638, 137.065 160.817, 139.427 160.558 C 140.761 160.411, 142.449 160.669, 143.177 161.130 C 144.046 161.682, 143.371 161.975, 141.208 161.985 C 139.316 161.993, 137.003 162.850, 135.770 164 C 133.860 165.779, 132.241 166, 121.116 166 C 108.906 166, 108.543 165.936, 105.805 163.313 C 103.788 161.381, 103 161.056, 103 162.158 C 103 166.554, 109.197 167.657, 131.257 167.187 C 139.099 167.020, 140.228 166.752, 142.074 164.630 C 143.823 162.619, 144.801 162.336, 148.550 162.759 C 152.931 163.252, 159 161.580, 159 159.879 C 159 158.709, 158.825 158.742, 155.098 160.601 C 153.055 161.620, 150.716 161.982, 148.660 161.596 C 138.150 159.624, 134.724 147.962, 142.617 141.031 C 149.542 134.951, 159.048 137.960, 162.346 147.276 C 163.194 149.671, 163.874 150.634, 163.915 149.500 C 163.955 148.400, 163.315 146.211, 162.494 144.636 C 161.672 143.060, 161 140.473, 161 138.886 C 161 136.058, 160.894 136.002, 155.750 136.102 C 152.863 136.159, 149.019 136.556, 147.209 136.984 M 43.912 139.280 C 33.126 146.549, 37.875 161, 51.050 161 C 54.436 161, 55.826 160.374, 58.600 157.600 C 61.534 154.666, 62 153.534, 62 149.340 C 62 145.492, 61.459 143.896, 59.402 141.678 C 54.622 136.523, 49.240 135.690, 43.912 139.280 M 47.388 138.688 C 44.193 139.316, 40.105 144.143, 39.472 148.036 L 38.908 151.500 40.417 147.500 C 42.414 142.203, 45.287 140.016, 50.361 139.930 C 53.590 139.875, 54.060 139.670, 52.500 139 C 51.400 138.527, 50.275 138.170, 50 138.206 C 49.725 138.243, 48.549 138.459, 47.388 138.688 M 145.500 140.161 C 141.849 142.168, 140.045 145.352, 140.022 149.827 C 140.004 153.293, 140.582 154.735, 142.923 157.077 C 144.531 158.685, 146.893 159.982, 148.173 159.961 C 150.240 159.926, 150.151 159.770, 147.378 158.563 C 138.873 154.861, 138.842 144.270, 147.327 140.553 C 149.072 139.789, 149.825 139.140, 149 139.112 C 148.175 139.084, 146.600 139.556, 145.500 140.161 M 151 149.500 C 151 159.463, 151.106 160, 153.077 160 C 154.219 160, 156.469 158.685, 158.077 157.077 C 162.834 152.320, 161.796 144.083, 156.010 140.665 C 151.221 137.836, 151 138.225, 151 149.500 M 53.037 142.680 C 50.130 146.375, 50.336 152.143, 53.500 155.694 L 56 158.500 58.500 155.694 C 61.353 152.492, 61.726 148.306, 59.537 144.072 C 57.461 140.058, 55.440 139.625, 53.037 142.680 M 46.500 142.155 C 39.526 145.969, 40.794 155.655, 48.521 157.595 C 52.010 158.470, 52.282 157.918, 50.479 153.605 C 49.274 150.721, 49.160 149.086, 49.961 146.202 C 50.526 144.166, 50.991 142.162, 50.994 141.750 C 51.002 140.681, 48.838 140.876, 46.500 142.155 M 145.114 143.750 C 143.955 144.713, 142.727 146.944, 142.386 148.710 C 141.867 151.396, 142.262 152.416, 144.806 154.960 C 146.478 156.632, 148.331 158, 148.923 158 C 149.603 158, 150 155.048, 150 150 C 150 141.348, 149.215 140.345, 145.114 143.750 M 34.015 148.750 C 34.027 150.893, 34.245 151.169, 35 150 C 36.264 148.043, 36.264 146, 35 146 C 34.450 146, 34.007 147.238, 34.015 148.750 M 164.858 150.364 C 163.804 158.402, 158.705 163.555, 150.436 164.939 L 145.500 165.765 149.500 165.860 C 151.700 165.913, 155.432 165.079, 157.793 164.008 C 161.172 162.474, 162.516 161.088, 164.102 157.503 C 165.285 154.827, 165.989 151.409, 165.807 149.223 C 165.504 145.594, 165.480 145.622, 164.858 150.364 M 40.027 153.076 C 39.979 155.913, 44.620 159.203, 49.438 159.746 C 52.132 160.050, 54 159.854, 54 159.269 C 54 158.723, 52.871 158.493, 51.492 158.757 C 48.002 159.424, 43.736 157.438, 41.738 154.216 C 40.666 152.488, 40.044 152.073, 40.027 153.076 M 160.727 155.775 L 158.955 159.500 160.977 157.139 C 162.090 155.841, 163 154.153, 163 153.389 C 163 151.334, 162.681 151.668, 160.727 155.775 M 65.158 159 C 65.158 160.375, 65.385 160.938, 65.662 160.250 C 65.940 159.563, 65.940 158.438, 65.662 157.750 C 65.385 157.063, 65.158 157.625, 65.158 159 M 134 159 C 134 159.550, 134.450 160, 135 160 C 135.550 160, 136 159.550, 136 159 C 136 158.450, 135.550 158, 135 158 C 134.450 158, 134 158.450, 134 159 M 99.500 161 C 99.101 161.646, 99.224 162.624, 99.774 163.174 C 100.441 163.841, 101.016 163.783, 101.500 163 C 101.899 162.354, 101.776 161.376, 101.226 160.826 C 100.559 160.159, 99.984 160.217, 99.500 161 M 93.970 163.485 C 91.607 165.848, 90.709 166.025, 79.475 166.354 C 67.561 166.702, 64 165.990, 64 163.259 C 64 162.451, 62.525 162, 59.878 162 C 56.098 162, 55.869 162.145, 57.128 163.746 C 60.472 168.001, 60.468 168, 76.754 168 C 92.293 168, 92.703 167.945, 94.933 165.571 C 98.033 162.271, 97.133 160.322, 93.970 163.485 M 67.327 162.660 C 67.690 163.023, 71.096 163.219, 74.895 163.096 C 78.942 162.965, 82.075 163.313, 82.461 163.936 C 83.472 165.573, 91.557 165.239, 93 163.500 C 94.096 162.179, 92.599 162, 80.456 162 C 72.872 162, 66.964 162.297, 67.327 162.660 M 108 163.500 C 109.384 165.168, 115.069 165.531, 116.553 164.047 C 117.078 163.522, 121.105 162.938, 125.503 162.748 C 131.095 162.506, 129.477 162.342, 120.128 162.201 C 108.340 162.024, 106.903 162.178, 108 163.500 M 95.893 166.614 C 94.716 167.867, 92.346 169.069, 90.627 169.286 C 87.843 169.637, 87.932 169.697, 91.436 169.840 C 94.225 169.953, 96.028 169.383, 97.627 167.881 L 99.882 165.762 102.576 167.881 C 104.324 169.256, 106.539 169.947, 108.885 169.850 C 112.268 169.710, 112.308 169.673, 109.500 169.270 C 107.850 169.033, 105.482 167.892, 104.237 166.733 C 101.198 163.905, 98.475 163.866, 95.893 166.614 M 121.776 164.733 C 124.128 164.945, 127.728 164.942, 129.776 164.727 C 131.824 164.512, 129.900 164.339, 125.500 164.343 C 121.100 164.346, 119.424 164.522, 121.776 164.733" stroke="none" fill="#ba973f" fill-rule="evenodd"/><path d="M -0 100.005 L -0 200.010 100.250 199.755 L 200.500 199.500 200.755 99.750 L 201.010 0 100.505 0 L 0 0 -0 100.005 M 0.481 100.500 C 0.481 155.500, 0.602 178.147, 0.750 150.826 C 0.898 123.506, 0.898 78.506, 0.750 50.826 C 0.602 23.147, 0.481 45.500, 0.481 100.500 M 88 29.500 C 86.996 30.710, 83.882 31, 71.878 31 C 63.695 31, 57 31.399, 57 31.887 C 57 32.375, 53.864 32.951, 50.032 33.168 C 42.639 33.586, 39.475 35.144, 35.670 40.241 C 33.303 43.410, 32.153 53.733, 32.063 72.628 C 32.013 83.020, 31.688 86.014, 30.500 87 C 28.331 88.800, 28.657 94.294, 31.119 97.424 L 33.238 100.118 31.119 102.373 C 28.883 104.754, 28.153 111.358, 30 112.500 C 30.594 112.867, 31 119.177, 31 128.059 C 31 137.353, 31.378 143, 32 143 C 32.550 143, 33 145.039, 33 147.532 C 33 158.844, 40.622 166.973, 51.250 166.994 C 52.763 166.997, 54 167.450, 54 168 C 54 168.625, 59.959 169, 69.878 169 C 82.040 169, 86.019 169.318, 86.883 170.359 C 88.554 172.373, 95.773 171.562, 98.435 169.061 L 100.641 166.989 102.788 169.274 C 104.499 171.096, 105.753 171.481, 108.973 171.174 C 111.195 170.962, 113.261 170.386, 113.565 169.894 C 113.869 169.402, 120.616 169, 128.559 169 C 137.520 169, 143 168.621, 143 168 C 143 167.438, 145.784 167, 149.352 167 C 154.303 167, 156.448 166.499, 159.078 164.726 C 164.640 160.978, 167 156.564, 167 149.911 C 167 146.725, 167.450 143.840, 168 143.500 C 168.594 143.133, 169 136.843, 169 128 C 169 119.157, 169.406 112.867, 170 112.500 C 171.877 111.340, 171.113 104.749, 168.819 102.308 L 166.639 99.987 169.319 97.189 C 172.266 94.113, 172.935 89.021, 170.642 87.118 C 169.630 86.278, 169.137 81.335, 168.709 67.745 C 168.394 57.710, 167.638 47.826, 167.029 45.781 C 164.666 37.837, 158.066 33, 149.591 33 C 147.131 33, 144.840 32.550, 144.500 32 C 144.133 31.406, 137.864 31, 129.063 31 C 117.111 31, 114.004 30.710, 113 29.500 C 111.046 27.145, 105.966 27.658, 102.989 30.511 L 100.368 33.021 98.010 30.511 C 95.309 27.636, 89.992 27.099, 88 29.500 M 90.500 30.733 C 92.150 30.972, 94.225 31.818, 95.112 32.614 C 95.999 33.410, 98.098 34.454, 99.777 34.936 C 102.341 35.671, 103.181 35.436, 105.038 33.460 C 106.253 32.166, 108.654 30.931, 110.373 30.714 C 112.649 30.427, 112.216 30.277, 108.785 30.160 C 104.995 30.031, 103.860 30.392, 103 32 C 102.411 33.100, 101.340 34, 100.620 34 C 99.899 34, 98.495 33.100, 97.500 32 C 96.193 30.555, 94.553 30.042, 91.595 30.150 C 88.194 30.274, 88.008 30.373, 90.500 30.733 M 67.211 32.919 C 59.387 33.467, 57.072 34.451, 57.015 37.250 C 56.983 38.855, 63.326 37.931, 64.914 36.099 C 66.304 34.496, 68.454 34.110, 78.629 33.636 L 90.696 33.074 93.535 36.037 C 95.097 37.667, 96.700 39, 97.099 39 C 98.591 39, 97.254 35.624, 95.058 33.846 C 92.625 31.875, 85.494 31.638, 67.211 32.919 M 105.068 34.904 C 102.027 39.175, 102.547 39.815, 106.250 36.357 C 109.453 33.365, 109.669 33.318, 121.325 33.095 C 132.867 32.875, 133.206 32.931, 135.527 35.435 C 137.019 37.045, 138.977 38, 140.786 38 C 144.839 38, 145.240 37.149, 142.485 34.394 C 140.153 32.062, 139.661 32, 123.614 32 L 107.136 32 105.068 34.904 M 44.604 35.038 C 38.333 36.915, 33.840 43.973, 34.124 51.500 C 34.204 53.618, 34.515 52.984, 35.180 49.346 C 36.596 41.597, 40.945 37.072, 48.540 35.445 C 53.157 34.455, 53.711 34.168, 51 34.170 C 49.075 34.171, 46.197 34.562, 44.604 35.038 M 150.541 34.836 C 155.387 35.727, 160.980 39.038, 162.884 42.144 C 163.645 43.385, 164.601 46.673, 165.009 49.450 L 165.750 54.500 165.875 49.898 C 166.096 41.761, 159.779 35.031, 151.364 34.437 C 146.660 34.105, 146.633 34.118, 150.541 34.836 M 70.776 35.733 C 73.128 35.945, 76.728 35.942, 78.776 35.727 C 80.824 35.512, 78.900 35.339, 74.500 35.343 C 70.100 35.346, 68.424 35.522, 70.776 35.733 M 83.447 35.953 C 82.922 36.478, 78.895 37.062, 74.497 37.252 C 68.905 37.494, 70.523 37.658, 79.872 37.799 C 91.660 37.976, 93.097 37.822, 92 36.500 C 90.616 34.832, 84.931 34.469, 83.447 35.953 M 108.103 36.376 C 106.871 37.861, 107.883 38, 119.878 38 C 127.959 38, 133 37.616, 133 37 C 133 36.450, 130.637 35.997, 127.750 35.993 C 124.862 35.989, 119.564 35.708, 115.975 35.369 C 110.656 34.867, 109.201 35.053, 108.103 36.376 M 99.500 37 C 99.101 37.646, 99.224 38.624, 99.774 39.174 C 100.441 39.841, 101.016 39.783, 101.500 39 C 101.899 38.354, 101.776 37.376, 101.226 36.826 C 100.559 36.159, 99.984 36.217, 99.500 37 M 147.135 37.547 C 145.285 38.346, 142.247 39, 140.385 39 L 137 39 137 46.809 C 137 52.444, 137.440 55.158, 138.582 56.559 C 140.141 58.472, 140.153 58.472, 139.440 56.500 C 136.701 48.924, 138.864 42.832, 145.306 39.983 C 148.749 38.460, 150.387 38.251, 153 39 C 160.687 41.205, 164.233 48.424, 161.103 55.499 C 157.838 62.880, 149.048 64.972, 142.601 59.901 C 141.171 58.776, 140 58.328, 140 58.907 C 140 61.237, 147.845 64, 154.460 64 C 160.803 64, 161 63.923, 161 61.450 C 161 60.048, 161.724 57.500, 162.610 55.788 C 165.588 50.028, 162.930 41.542, 157.241 38.647 C 152.542 36.257, 150.610 36.047, 147.135 37.547 M 40.941 40.942 C 37.611 44.442, 37.005 45.737, 37.035 49.292 C 37.055 51.606, 37.714 54.625, 38.500 56 C 39.286 57.375, 39.945 59.677, 39.965 61.116 L 40 63.733 47.250 63.277 C 58.843 62.549, 62.642 58.743, 63.636 46.862 L 64.275 39.223 59.387 38.585 C 43.885 36.560, 45.279 36.382, 40.941 40.942 M 44.449 39.551 C 33.547 44.932, 37.733 62, 49.954 62 C 62.391 62, 66.740 44.901, 55.643 39.635 C 51.395 37.619, 48.409 37.597, 44.449 39.551 M 45.259 40.531 C 43.238 41.382, 41.372 43.250, 40.304 45.489 C 38.760 48.727, 38.734 49.494, 40.045 53.244 C 41.024 56.044, 42.579 58.033, 44.797 59.322 C 46.611 60.377, 48.314 61.019, 48.582 60.751 C 48.851 60.483, 48.942 55.516, 48.785 49.715 L 48.500 39.166 45.259 40.531 M 51 39.722 C 51 40.184, 52.358 41.074, 54.017 41.701 C 57.501 43.015, 60.220 48.357, 59.307 52.092 C 58.541 55.223, 56.102 58, 53.111 59.143 C 51.798 59.645, 50.968 60.302, 51.268 60.602 C 52.370 61.704, 58.011 57.880, 59.483 55.033 C 61.374 51.376, 61.402 48.678, 59.585 45.165 C 58.384 42.842, 56.774 41.624, 51.750 39.238 C 51.337 39.042, 51 39.260, 51 39.722 M 65.079 40.583 C 65.127 41.748, 65.364 41.985, 65.683 41.188 C 65.972 40.466, 65.936 39.603, 65.604 39.271 C 65.272 38.939, 65.036 39.529, 65.079 40.583 M 67 47.352 C 67 54.384, 66.640 56.238, 64.726 59.078 C 60.616 65.178, 56.735 67, 47.852 67 L 40 67 40 81.441 C 40 89.384, 40.396 96.127, 40.881 96.426 C 42.669 97.531, 42.642 101.724, 40.832 103.959 C 39.270 105.888, 39 108.101, 39 118.985 L 39 131.749 47.327 132.186 C 61.595 132.935, 66.981 138.477, 67.317 152.756 L 67.500 160.500 81.605 160.777 C 93.270 161.005, 95.930 160.789, 96.978 159.527 C 98.598 157.575, 102.390 157.560, 104 159.500 C 104.996 160.700, 107.993 161, 118.997 161 L 132.749 161 133.187 152.664 C 133.667 143.505, 135.453 139.236, 140.322 135.605 C 142.583 133.918, 144.916 133.431, 152.072 133.151 L 161 132.801 161 118.523 C 161 107.051, 160.705 104, 159.500 103 C 158.675 102.315, 158 100.740, 158 99.500 C 158 98.260, 158.675 96.685, 159.500 96 C 160.697 95.007, 161 92.049, 161 81.378 C 161 66.555, 161.493 67.485, 153.879 67.934 C 140.732 68.707, 133 60.785, 133 46.540 L 133 39 119.122 39 C 108.007 39, 104.997 39.299, 104 40.500 C 103.315 41.325, 101.740 42, 100.500 42 C 99.260 42, 97.685 41.325, 97 40.500 C 95.999 39.294, 92.938 39, 81.378 39 L 67 39 67 47.352 M 150.913 40.964 C 163.056 42.928, 163.056 58.072, 150.913 60.036 L 146.500 60.750 150.694 60.875 C 156.405 61.045, 159.923 57.993, 160.701 52.193 C 161.684 44.862, 157.153 39.846, 149.800 40.125 C 146.877 40.236, 147.005 40.332, 150.913 40.964 M 51 50 C 51 58.702, 51.626 59.465, 55.545 55.545 C 58.986 52.104, 58.904 46.856, 55.365 44.073 C 53.916 42.933, 52.341 42, 51.865 42 C 51.389 42, 51 45.600, 51 50 M 141.605 44.250 C 138.921 48.438, 139.193 53.951, 142.259 57.515 L 144.518 60.141 146.886 57.621 C 149.816 54.502, 150.198 48.477, 147.705 44.673 C 145.566 41.409, 143.516 41.266, 141.605 44.250 M 149.584 45.163 C 151.068 48.032, 151.149 51.569, 149.857 57 C 149.598 58.088, 150.187 58.410, 152 58.171 C 155.365 57.728, 157.816 55.169, 158.593 51.287 C 159.132 48.591, 158.749 47.596, 156.194 45.040 C 154.365 43.211, 152.117 42, 150.551 42 C 147.952 42, 147.951 42.004, 149.584 45.163 M 65.136 48.782 C 64.792 57.087, 59.810 62.758, 51.241 64.599 C 46.023 65.720, 45.844 65.840, 49.282 65.916 C 59.278 66.138, 67.476 57.145, 65.723 47.881 C 65.370 46.016, 65.243 46.212, 65.136 48.782 M 134.625 52 C 134.838 54.475, 135.838 57.625, 136.848 59 C 139.505 62.618, 144.888 66.007, 147.898 65.956 C 150.128 65.918, 149.947 65.715, 146.637 64.535 C 139.985 62.164, 136.475 57.752, 134.675 49.500 C 134.435 48.400, 134.413 49.525, 134.625 52 M 34.571 58.571 C 33.264 59.879, 32.229 67, 33.347 67 C 33.538 67, 34.663 66.160, 35.847 65.133 C 37.195 63.963, 38 62.095, 38 60.133 C 38 56.669, 36.951 56.192, 34.571 58.571 M 162.607 58.582 C 161.461 61.569, 162.004 63.528, 164.500 65.403 C 166.914 67.216, 167 67.677, 167 78.842 L 167 90.405 163.804 93.702 C 161.653 95.921, 161.106 97, 162.130 97 C 162.967 97, 164.630 95.958, 165.826 94.686 C 167.869 92.511, 168 91.418, 168 76.553 C 168 61.605, 167.882 60.632, 165.847 58.867 C 163.248 56.613, 163.359 56.623, 162.607 58.582 M 108 65 C 105.074 67.926, 105.552 69.770, 108.515 66.986 C 110.609 65.019, 111.486 64.784, 113.765 65.580 C 115.662 66.244, 116.594 67.344, 116.807 69.172 C 117.204 72.579, 113.868 75, 108.777 75 C 105.547 75, 104.990 74.674, 104.932 72.750 C 104.865 70.501, 104.864 70.501, 103.839 72.616 C 102.959 74.433, 101.941 74.732, 96.657 74.725 C 87.121 74.714, 84.487 75.666, 81.479 80.211 L 78.830 84.214 76.275 80.357 C 72.337 74.411, 68.807 70.885, 65.282 69.377 C 56.468 65.606, 47 70.480, 47 78.788 C 47 83.181, 48.409 85.643, 51.980 87.490 C 55.901 89.517, 58.854 89.386, 62.750 87.011 C 65.178 85.531, 66 84.317, 66 82.215 C 66 79.214, 64.429 77, 62.300 77 C 61.450 77, 61.667 77.667, 62.926 78.926 C 67.226 83.226, 61.440 88.789, 54.625 86.907 C 43.981 83.968, 47.441 70.017, 58.816 70.004 C 62.661 69.999, 65.450 71.267, 69.120 74.685 C 71.422 76.829, 71.678 77.694, 71.226 81.813 C 70.943 84.391, 70.214 86.831, 69.605 87.235 C 68.987 87.646, 69.623 87.976, 71.049 87.985 C 73.376 87.999, 73.563 87.695, 73.190 84.500 C 72.965 82.575, 73.011 81, 73.292 81 C 73.573 81, 74.784 82.664, 75.984 84.698 L 78.166 88.396 80.280 84.698 C 81.442 82.664, 82.755 81, 83.197 81 C 84.515 81, 84.105 86.793, 82.750 87.313 C 82.063 87.576, 85.899 87.787, 91.276 87.780 C 98.472 87.772, 100.803 87.468, 100.108 86.630 C 99.589 86.004, 99.014 83.919, 98.832 81.996 C 98.532 78.834, 98.177 78.469, 95.123 78.177 C 93.265 78, 91.270 78.330, 90.690 78.910 C 89.118 80.482, 90.708 81.487, 92.463 80.031 C 93.294 79.341, 94.655 79.037, 95.487 79.357 C 98.225 80.407, 97.067 81.874, 93.250 82.190 C 90.207 82.441, 89.438 82.935, 89.173 84.808 C 88.618 88.722, 86.517 86.600, 86.201 81.807 C 85.912 77.425, 86.010 77.248, 89.076 76.635 C 92.997 75.851, 97.801 75.840, 100.666 76.608 C 102.486 77.097, 102.771 77.773, 102.449 80.845 C 101.926 85.829, 103.613 89.597, 106.995 90.998 C 110.737 92.548, 113.872 90.890, 114.661 86.946 C 115.142 84.541, 115.755 84, 118.003 84 C 119.516 84, 121.315 83.325, 122 82.500 C 123.493 80.701, 122.930 80.619, 119.577 82.147 C 117.634 83.032, 116.710 83.004, 115.530 82.025 C 112.834 79.787, 113.868 79, 119.500 79 L 125 79 125 82.917 C 125 85.114, 124.451 87.055, 123.750 87.338 C 123.063 87.615, 124.300 87.842, 126.500 87.842 C 128.700 87.842, 129.938 87.615, 129.250 87.338 C 128.563 87.060, 128 85.772, 128 84.476 C 128 81.718, 129.441 80.595, 133.250 80.385 C 135.725 80.249, 136 80.564, 136 83.534 C 136 85.348, 135.438 87.060, 134.750 87.338 C 134.063 87.615, 135.300 87.871, 137.500 87.906 C 139.700 87.941, 140.965 87.629, 140.311 87.213 C 139.656 86.797, 139.016 83.858, 138.888 80.681 C 138.759 77.503, 138.252 74.656, 137.760 74.352 C 136.209 73.393, 135.661 74.886, 136.980 76.476 C 138.078 77.799, 137.667 78.024, 133.872 78.183 C 126.359 78.497, 123.651 78.002, 121.756 75.968 C 120.747 74.886, 119.501 74, 118.986 74 C 118.471 74, 118.314 72.680, 118.637 71.066 C 119.095 68.774, 118.663 67.572, 116.657 65.566 C 113.575 62.485, 110.703 62.297, 108 65 M 158 66 C 158 66.550, 158.675 67, 159.500 67 C 160.325 67, 161 66.550, 161 66 C 161 65.450, 160.325 65, 159.500 65 C 158.675 65, 158 65.450, 158 66 M 35.336 74 C 35.336 78.125, 35.513 79.813, 35.728 77.750 C 35.944 75.688, 35.944 72.313, 35.728 70.250 C 35.513 68.188, 35.336 69.875, 35.336 74 M 37 74.441 C 37 78.534, 36.550 82.160, 36 82.500 C 34.437 83.466, 34.813 90.600, 36.500 92 C 37.820 93.096, 38 91.673, 38 80.122 C 38 72.905, 37.775 67, 37.500 67 C 37.225 67, 37 70.348, 37 74.441 M 162.196 80.405 C 162.001 93.252, 162.009 93.302, 164 91.500 C 166.366 89.358, 166.685 83.813, 164.544 82.036 C 163.614 81.265, 162.962 78.419, 162.740 74.164 C 162.547 70.481, 162.304 73.272, 162.196 80.405 M 164 74.441 C 164 77.984, 164.450 81.160, 165 81.500 C 165.631 81.890, 166 79.510, 166 75.059 C 166 71.020, 165.572 68, 165 68 C 164.437 68, 164 70.814, 164 74.441 M 115.347 76.537 C 113.642 77.829, 113.750 77.939, 116.750 77.968 C 120.057 78.001, 121.143 76.653, 118.597 75.676 C 117.826 75.380, 116.363 75.767, 115.347 76.537 M 33.199 84.576 C 33.019 91.862, 33.226 92.864, 35.314 94.826 C 38.671 97.979, 39.851 97.498, 36.736 94.246 C 34.456 91.866, 34.050 90.475, 33.747 83.996 L 33.397 76.500 33.199 84.576 M 105.030 80.750 C 105.055 83.783, 105.256 84.165, 106.080 82.750 C 106.641 81.787, 107.925 81, 108.933 81 C 109.942 81, 111.002 80.100, 111.290 79 C 111.737 77.289, 111.320 77, 108.406 77 C 105.131 77, 105.001 77.145, 105.030 80.750 M 142.459 79.067 C 141.376 80.819, 142.661 81.228, 144.886 79.839 C 146.655 78.734, 147.227 78.799, 148.698 80.270 C 150.339 81.910, 150.242 82, 146.837 82 C 142.546 82, 140.114 84.228, 141.968 86.461 C 142.791 87.453, 145 87.891, 148.840 87.826 C 151.953 87.773, 153.938 87.528, 153.250 87.282 C 152.563 87.035, 152 85.386, 152 83.617 C 152 81.847, 151.460 79.860, 150.800 79.200 C 149.313 77.713, 143.354 77.618, 142.459 79.067 M 107.357 83.513 C 107.037 84.345, 107.332 85.695, 108.011 86.513 C 109.479 88.282, 107.928 88.528, 106.200 86.800 C 105.533 86.133, 105 86.044, 105 86.600 C 105 88.321, 107.304 90, 109.665 90 C 112.628 90, 114.454 86.716, 113 84 C 111.741 81.648, 108.190 81.341, 107.357 83.513 M 92.250 83.662 C 90.511 84.364, 90.690 85.667, 92.627 86.410 C 94.282 87.046, 97 85.472, 97 83.878 C 97 82.944, 94.329 82.823, 92.250 83.662 M 144.446 84.087 C 144.077 84.685, 144.200 85.600, 144.720 86.120 C 145.975 87.375, 149 86.155, 149 84.393 C 149 82.752, 145.420 82.511, 144.446 84.087 M 31.160 91.436 C 31.045 94.257, 31.617 96.028, 33.181 97.692 L 35.361 100.013 32.681 102.811 C 30.731 104.847, 30.041 106.548, 30.150 109.055 C 30.273 111.885, 30.372 112.031, 30.704 109.873 C 30.927 108.428, 32.210 106.212, 33.555 104.949 C 36.515 102.168, 36.738 97.978, 34.056 95.550 C 32.986 94.582, 31.933 92.375, 31.716 90.645 C 31.361 87.822, 31.304 87.902, 31.160 91.436 M 169 90.267 C 169 91.578, 167.875 93.708, 166.500 95 C 163.292 98.014, 163.271 101.966, 166.445 104.949 C 167.790 106.212, 169.073 108.428, 169.296 109.873 C 169.555 111.556, 169.754 110.962, 169.850 108.219 C 169.951 105.331, 169.537 103.760, 168.577 103.391 C 165.976 102.393, 165.944 99.856, 168.494 96.825 C 171.048 93.789, 171.804 89.615, 170 88.500 C 169.440 88.154, 169 88.932, 169 90.267 M 97 90.800 C 97 91.240, 97.540 92.140, 98.200 92.800 C 99.133 93.733, 98.511 94, 95.400 94 C 93.200 94, 90.860 94.540, 90.200 95.200 C 89.267 96.133, 89 96.133, 89 95.200 C 89 94.540, 88.045 94, 86.878 94 C 85.333 94, 85.017 94.341, 85.717 95.250 C 87.097 97.044, 86.590 102.013, 84.920 103.071 C 83.949 103.685, 84.766 103.949, 87.500 103.906 C 89.700 103.871, 90.938 103.615, 90.250 103.338 C 89.563 103.060, 89 101.801, 89 100.539 C 89 97.912, 91.386 95.503, 93 96.500 C 93.598 96.870, 94.743 96.628, 95.544 95.964 C 96.697 95.006, 97.027 95.040, 97.128 96.128 C 97.198 96.882, 97.362 98.524, 97.492 99.776 C 97.623 101.028, 97.003 102.477, 96.115 102.996 C 94.990 103.653, 96.608 103.948, 101.450 103.970 C 106.856 103.993, 108.133 103.733, 107.200 102.800 C 105.242 100.842, 105.717 96.307, 107.942 95.725 C 109.010 95.446, 110.135 95.469, 110.442 95.775 C 111.529 96.862, 110.981 102.841, 109.750 103.338 C 109.063 103.615, 110.300 103.842, 112.500 103.842 C 114.700 103.842, 115.938 103.615, 115.250 103.338 C 114.563 103.060, 114 101.265, 114 99.347 C 114 96.304, 114.286 95.901, 116.250 96.180 C 118.209 96.459, 118.539 97.177, 118.802 101.729 C 119.148 107.740, 121.307 110, 126.699 110 C 129.109 110, 130.401 109.318, 131.674 107.375 C 133.271 104.938, 133.277 104.549, 131.765 101.914 L 130.137 99.077 133.319 99.549 C 135.068 99.808, 135.938 99.753, 135.250 99.426 C 134.563 99.100, 134 97.716, 134 96.351 C 134 92.027, 132.252 90, 128.524 90 C 126.651 90, 124.821 90.480, 124.459 91.067 C 123.418 92.751, 124.796 93.414, 126.463 92.031 C 127.294 91.341, 128.655 91.037, 129.487 91.357 C 132.225 92.407, 131.067 93.874, 127.250 94.190 C 123.928 94.465, 123.495 94.810, 123.454 97.212 C 123.429 98.704, 123.092 100.242, 122.704 100.629 C 121.503 101.830, 121.928 104.695, 123.499 105.999 C 124.791 107.071, 124.916 106.830, 124.403 104.266 C 123.714 100.820, 125.874 99.327, 129.072 101.039 C 132.837 103.054, 130.882 109, 126.455 109 C 123.031 109, 121.151 105.997, 120.811 99.988 L 120.500 94.500 111 94.369 C 105.775 94.297, 102.063 94.447, 102.750 94.703 C 103.458 94.966, 104 96.864, 104 99.083 C 104 102.333, 103.660 103, 102 103 C 100.269 103, 99.984 102.294, 99.882 97.750 C 99.816 94.862, 99.836 91.938, 99.925 91.250 C 100.015 90.563, 99.393 90, 98.544 90 C 97.695 90, 97 90.360, 97 90.800 M 70.837 92.878 C 72.825 94.138, 71.866 98.414, 69.500 98.840 C 68.400 99.038, 66.487 100.133, 65.250 101.274 C 57.669 108.264, 71.119 118.414, 79.365 111.927 C 83.421 108.737, 82.568 102, 78.109 102 C 76.934 102, 76.995 102.276, 78.395 103.299 C 81.168 105.327, 80.162 110.169, 76.617 111.861 C 74.323 112.956, 72.947 113.001, 69.883 112.083 C 63.951 110.306, 62.257 105.701, 66.189 102.039 C 69.604 98.857, 74.015 99.585, 70.800 102.800 C 69.867 103.733, 70.367 103.982, 73.050 103.921 C 74.948 103.878, 75.938 103.615, 75.250 103.338 C 72.702 102.309, 73.958 100, 77.066 100 C 81.064 100, 84 98.376, 84 96.165 C 84 93.081, 81.798 91.999, 75.550 92.015 C 71.850 92.025, 70.020 92.360, 70.837 92.878 M 74.667 93.667 C 73.557 94.776, 73.919 97.806, 75.212 98.237 C 77.660 99.053, 81 97.757, 81 95.990 C 81 93.590, 76.423 91.910, 74.667 93.667 M 126.446 96.087 C 126.077 96.685, 126.200 97.600, 126.720 98.120 C 127.975 99.375, 131 98.155, 131 96.393 C 131 94.752, 127.420 94.511, 126.446 96.087 M 160.639 98.694 C 159.513 99.820, 159.954 101, 161.500 101 C 162.325 101, 163 100.577, 163 100.059 C 163 98.798, 161.438 97.895, 160.639 98.694 M 37.192 100.075 C 37.389 100.666, 37.977 101.150, 38.500 101.150 C 39.023 101.150, 39.611 100.666, 39.808 100.075 C 40.005 99.484, 39.417 99, 38.500 99 C 37.583 99, 36.995 99.484, 37.192 100.075 M 34.562 105.936 L 31.749 108.872 32.174 123.842 C 32.602 138.916, 33.358 142, 36.622 142 C 38.703 142, 38.315 136.715, 36.056 134.290 C 34.397 132.510, 34.086 130.562, 33.934 121.025 L 33.756 109.847 37.074 106.424 C 39.258 104.170, 39.876 103, 38.883 103 C 38.053 103, 36.108 104.321, 34.562 105.936 M 163.757 106.250 C 166.671 109.256, 166.933 110.100, 167.252 117.500 L 167.598 125.500 167.799 116.885 C 167.971 109.497, 167.705 107.894, 165.927 105.635 C 164.788 104.186, 163.124 103, 162.231 103 C 161.046 103, 161.458 103.878, 163.757 106.250 M 36.200 108.200 C 34.773 109.627, 34.597 116.197, 35.949 117.550 C 36.471 118.073, 37.058 121.650, 37.253 125.500 C 37.474 129.848, 37.682 127.669, 37.804 119.750 C 37.912 112.737, 37.865 107, 37.700 107 C 37.535 107, 36.860 107.540, 36.200 108.200 M 162 120.059 C 162 128.510, 162.353 132.900, 163 132.500 C 163.550 132.160, 164 128.560, 164 124.500 C 164 120.440, 164.450 116.840, 165 116.500 C 167.143 115.175, 165.392 107, 162.965 107 C 162.394 107, 162 112.337, 162 120.059 M 84.079 118.750 C 81.836 121.912, 80 124.992, 80 125.594 C 80 126.880, 97.526 148.148, 99.499 149.256 C 101.152 150.185, 101.980 149.373, 112.046 136.944 C 116.421 131.541, 120 126.428, 120 125.580 C 120 124.732, 118.411 121.555, 116.469 118.519 L 112.939 113 100.548 113 L 88.158 113 84.079 118.750 M 92 116.878 C 92 118.713, 94.598 120.002, 95.824 118.776 C 97.665 116.935, 97.219 116, 94.500 116 C 93.125 116, 92 116.395, 92 116.878 M 104.232 118 C 104.919 119.100, 105.807 120, 106.205 120 C 106.604 120, 107.411 119.100, 108 118 C 108.961 116.204, 108.760 116, 106.027 116 C 103.233 116, 103.086 116.164, 104.232 118 M 86.223 120.580 L 83.982 124 87.991 124 C 92.502 124, 92.715 123.604, 90.226 119.830 L 88.465 117.160 86.223 120.580 M 97.659 121 L 95.887 124 100.512 124 L 105.136 124 103 121 C 101.825 119.350, 100.541 118, 100.148 118 C 99.754 118, 98.634 119.350, 97.659 121 M 109.659 121 L 107.887 124 111.943 124 C 116.527 124, 116.617 123.871, 114.385 120.465 C 112.315 117.305, 111.808 117.362, 109.659 121 M 165.343 125.500 C 165.346 129.900, 165.522 131.576, 165.733 129.224 C 165.945 126.872, 165.942 123.272, 165.727 121.224 C 165.512 119.176, 165.339 121.100, 165.343 125.500 M 35.328 125.500 C 35.333 129.350, 35.513 130.802, 35.730 128.728 C 35.946 126.653, 35.943 123.503, 35.722 121.728 C 35.501 119.952, 35.324 121.650, 35.328 125.500 M 85.852 128.685 C 87.277 131.294, 96.003 141.322, 95.985 140.332 C 95.977 139.874, 95.131 136.800, 94.104 133.500 C 92.301 127.704, 92.112 127.489, 88.549 127.185 C 85.248 126.904, 84.965 127.062, 85.852 128.685 M 95 127.343 C 95 127.739, 98.727 138.760, 99.619 141 C 99.997 141.951, 101.072 140.306, 102.556 136.500 C 106.061 127.515, 105.923 127, 100 127 C 97.250 127, 95 127.155, 95 127.343 M 108.479 128.250 C 108.228 128.938, 107.128 132.200, 106.035 135.500 L 104.048 141.500 108.133 137 C 110.380 134.525, 113.099 131.262, 114.177 129.750 L 116.136 127 112.537 127 C 110.557 127, 108.731 127.563, 108.479 128.250 M 40 134 C 40 134.550, 40.423 135, 40.941 135 C 41.459 135, 42.160 134.550, 42.500 134 C 42.840 133.450, 42.416 133, 41.559 133 C 40.702 133, 40 133.450, 40 134 M 51.278 134.409 C 60.170 137.011, 63.910 140.918, 65.164 148.914 L 65.883 153.500 65.601 148.378 C 65.126 139.770, 60.026 134.636, 50.855 133.534 L 46.500 133.010 51.278 134.409 M 144.021 135.116 C 138.581 137.286, 135.678 141.628, 134.569 149.250 C 134.115 152.367, 134.242 154, 134.939 154 C 135.522 154, 136.002 152.088, 136.004 149.750 C 136.011 141.893, 141.030 136.498, 149.687 135.044 L 154.500 134.235 150.500 134.181 C 148.300 134.151, 145.384 134.572, 144.021 135.116 M 158.813 134.683 C 159.534 134.972, 160.397 134.936, 160.729 134.604 C 161.061 134.272, 160.471 134.036, 159.417 134.079 C 158.252 134.127, 158.015 134.364, 158.813 134.683 M 165 134.917 C 165 135.512, 164.325 136, 163.500 136 C 162.507 136, 162 136.993, 162 138.941 C 162 142.684, 163.676 143.742, 165.827 141.356 C 167.771 139.200, 168.017 134.839, 166.228 134.243 C 165.553 134.018, 165 134.321, 165 134.917 M 39.680 137.883 C 39.951 138.919, 39.458 141.147, 38.586 142.834 C 36.755 146.375, 36.515 152.225, 38.081 155.151 C 38.676 156.262, 38.907 157.426, 38.596 157.737 C 38.285 158.048, 37.366 156.772, 36.554 154.901 C 35.348 152.121, 35.071 151.910, 35.039 153.747 C 34.945 159.129, 44.724 166.141, 52 165.909 C 53.497 165.862, 52.494 165.340, 49.500 164.609 C 44.379 163.359, 39 160.442, 39 158.915 C 39 158.445, 40.688 159.207, 42.750 160.608 C 45.679 162.598, 47.266 163.028, 50 162.569 C 51.925 162.246, 55.862 161.705, 58.750 161.367 L 64 160.752 63.998 154.126 C 63.997 146.204, 61.956 141.513, 57.102 138.270 C 54.349 136.431, 52.327 136, 46.446 136 C 39.830 136, 39.231 136.167, 39.680 137.883 M 147.209 136.984 C 140.230 138.638, 137 143.978, 137 153.862 C 137 160.638, 137.065 160.817, 139.427 160.558 C 140.761 160.411, 142.449 160.669, 143.177 161.130 C 144.046 161.682, 143.371 161.975, 141.208 161.985 C 139.316 161.993, 137.003 162.850, 135.770 164 C 133.860 165.779, 132.241 166, 121.116 166 C 108.906 166, 108.543 165.936, 105.805 163.313 C 103.788 161.381, 103 161.056, 103 162.158 C 103 166.554, 109.197 167.657, 131.257 167.187 C 139.099 167.020, 140.228 166.752, 142.074 164.630 C 143.823 162.619, 144.801 162.336, 148.550 162.759 C 152.931 163.252, 159 161.580, 159 159.879 C 159 158.709, 158.825 158.742, 155.098 160.601 C 153.055 161.620, 150.716 161.982, 148.660 161.596 C 138.150 159.624, 134.724 147.962, 142.617 141.031 C 149.542 134.951, 159.048 137.960, 162.346 147.276 C 163.194 149.671, 163.874 150.634, 163.915 149.500 C 163.955 148.400, 163.315 146.211, 162.494 144.636 C 161.672 143.060, 161 140.473, 161 138.886 C 161 136.058, 160.894 136.002, 155.750 136.102 C 152.863 136.159, 149.019 136.556, 147.209 136.984 M 43.912 139.280 C 33.126 146.549, 37.875 161, 51.050 161 C 54.436 161, 55.826 160.374, 58.600 157.600 C 61.534 154.666, 62 153.534, 62 149.340 C 62 145.492, 61.459 143.896, 59.402 141.678 C 54.622 136.523, 49.240 135.690, 43.912 139.280 M 47.388 138.688 C 44.193 139.316, 40.105 144.143, 39.472 148.036 L 38.908 151.500 40.417 147.500 C 42.414 142.203, 45.287 140.016, 50.361 139.930 C 53.590 139.875, 54.060 139.670, 52.500 139 C 51.400 138.527, 50.275 138.170, 50 138.206 C 49.725 138.243, 48.549 138.459, 47.388 138.688 M 145.500 140.161 C 141.849 142.168, 140.045 145.352, 140.022 149.827 C 140.004 153.293, 140.582 154.735, 142.923 157.077 C 144.531 158.685, 146.893 159.982, 148.173 159.961 C 150.240 159.926, 150.151 159.770, 147.378 158.563 C 138.873 154.861, 138.842 144.270, 147.327 140.553 C 149.072 139.789, 149.825 139.140, 149 139.112 C 148.175 139.084, 146.600 139.556, 145.500 140.161 M 151 149.500 C 151 159.463, 151.106 160, 153.077 160 C 154.219 160, 156.469 158.685, 158.077 157.077 C 162.834 152.320, 161.796 144.083, 156.010 140.665 C 151.221 137.836, 151 138.225, 151 149.500 M 53.037 142.680 C 50.130 146.375, 50.336 152.143, 53.500 155.694 L 56 158.500 58.500 155.694 C 61.353 152.492, 61.726 148.306, 59.537 144.072 C 57.461 140.058, 55.440 139.625, 53.037 142.680 M 46.500 142.155 C 39.526 145.969, 40.794 155.655, 48.521 157.595 C 52.010 158.470, 52.282 157.918, 50.479 153.605 C 49.274 150.721, 49.160 149.086, 49.961 146.202 C 50.526 144.166, 50.991 142.162, 50.994 141.750 C 51.002 140.681, 48.838 140.876, 46.500 142.155 M 145.114 143.750 C 143.955 144.713, 142.727 146.944, 142.386 148.710 C 141.867 151.396, 142.262 152.416, 144.806 154.960 C 146.478 156.632, 148.331 158, 148.923 158 C 149.603 158, 150 155.048, 150 150 C 150 141.348, 149.215 140.345, 145.114 143.750 M 34.015 148.750 C 34.027 150.893, 34.245 151.169, 35 150 C 36.264 148.043, 36.264 146, 35 146 C 34.450 146, 34.007 147.238, 34.015 148.750 M 164.858 150.364 C 163.804 158.402, 158.705 163.555, 150.436 164.939 L 145.500 165.765 149.500 165.860 C 151.700 165.913, 155.432 165.079, 157.793 164.008 C 161.172 162.474, 162.516 161.088, 164.102 157.503 C 165.285 154.827, 165.989 151.409, 165.807 149.223 C 165.504 145.594, 165.480 145.622, 164.858 150.364 M 40.027 153.076 C 39.979 155.913, 44.620 159.203, 49.438 159.746 C 52.132 160.050, 54 159.854, 54 159.269 C 54 158.723, 52.871 158.493, 51.492 158.757 C 48.002 159.424, 43.736 157.438, 41.738 154.216 C 40.666 152.488, 40.044 152.073, 40.027 153.076 M 160.727 155.775 L 158.955 159.500 160.977 157.139 C 162.090 155.841, 163 154.153, 163 153.389 C 163 151.334, 162.681 151.668, 160.727 155.775 M 65.158 159 C 65.158 160.375, 65.385 160.938, 65.662 160.250 C 65.940 159.563, 65.940 158.438, 65.662 157.750 C 65.385 157.063, 65.158 157.625, 65.158 159 M 134 159 C 134 159.550, 134.450 160, 135 160 C 135.550 160, 136 159.550, 136 159 C 136 158.450, 135.550 158, 135 158 C 134.450 158, 134 158.450, 134 159 M 99.500 161 C 99.101 161.646, 99.224 162.624, 99.774 163.174 C 100.441 163.841, 101.016 163.783, 101.500 163 C 101.899 162.354, 101.776 161.376, 101.226 160.826 C 100.559 160.159, 99.984 160.217, 99.500 161 M 93.970 163.485 C 91.607 165.848, 90.709 166.025, 79.475 166.354 C 67.561 166.702, 64 165.990, 64 163.259 C 64 162.451, 62.525 162, 59.878 162 C 56.098 162, 55.869 162.145, 57.128 163.746 C 60.472 168.001, 60.468 168, 76.754 168 C 92.293 168, 92.703 167.945, 94.933 165.571 C 98.033 162.271, 97.133 160.322, 93.970 163.485 M 67.327 162.660 C 67.690 163.023, 71.096 163.219, 74.895 163.096 C 78.942 162.965, 82.075 163.313, 82.461 163.936 C 83.472 165.573, 91.557 165.239, 93 163.500 C 94.096 162.179, 92.599 162, 80.456 162 C 72.872 162, 66.964 162.297, 67.327 162.660 M 108 163.500 C 109.384 165.168, 115.069 165.531, 116.553 164.047 C 117.078 163.522, 121.105 162.938, 125.503 162.748 C 131.095 162.506, 129.477 162.342, 120.128 162.201 C 108.340 162.024, 106.903 162.178, 108 163.500 M 95.893 166.614 C 94.716 167.867, 92.346 169.069, 90.627 169.286 C 87.843 169.637, 87.932 169.697, 91.436 169.840 C 94.225 169.953, 96.028 169.383, 97.627 167.881 L 99.882 165.762 102.576 167.881 C 104.324 169.256, 106.539 169.947, 108.885 169.850 C 112.268 169.710, 112.308 169.673, 109.500 169.270 C 107.850 169.033, 105.482 167.892, 104.237 166.733 C 101.198 163.905, 98.475 163.866, 95.893 166.614 M 121.776 164.733 C 124.128 164.945, 127.728 164.942, 129.776 164.727 C 131.824 164.512, 129.900 164.339, 125.500 164.343 C 121.100 164.346, 119.424 164.522, 121.776 164.733" stroke="none" fill="#090706" fill-rule="evenodd"/></svg>