<?xml version="1.0" encoding="UTF-8"?>
<svg id="Livello_2"
  xmlns="http://www.w3.org/2000/svg" viewBox="0 0 200 200">
  <defs>
    <style>
      .cls-1 {
        fill: #27e1ff;
      }

      .cls-2 {
        fill: #1a1a1d;
      }
    </style>
  </defs>
  <g id="Livello_1-2" data-name="Livello_1">
    <g>
      <rect class="cls-2" x="0" y="0" width="200" height="200"/>
      <path class="cls-1" d="M164,109.46c0,13.8-21.49,21.28-45.13,23.32-.07,0-.14.01-.21.02-2.38.2-4.77.35-7.17.44v30.77h-12.47v-30.76c-2.42-.09-4.81-.22-7.17-.41-.07,0-.14-.01-.21-.02-13.51-1.08-25.98-3.76-36.04-7.82-15.16-6.11-23.51-14.94-23.51-24.86s8.35-18.75,23.51-24.85c10.06-4.05,22.53-6.73,36.04-7.81v12.51c-11.86,1.02-22.7,3.37-31.38,6.87-9.68,3.9-15.7,8.99-15.7,13.29,0,1.68.91,3.47,2.6,5.27,2.64,2.82,7.19,5.64,13.09,8.02,8.68,3.5,19.52,5.85,31.38,6.87.07,0,.14.01.21.02,2.35.2,4.75.35,7.17.44V35.98h12.47v84.78c2.44-.1,4.83-.26,7.17-.48.07,0,.14-.01.21-.02,7.68-.72,14.75-2.06,20.61-3.92,5.22-1.66,8.31-3.4,10.06-4.73,1.43-1.09,1.43-3.23,0-4.32-1.75-1.33-4.84-3.06-10.06-4.73-5.86-1.87-12.92-3.2-20.61-3.92v-12.51c21.23,1.83,40.71,8.05,44.47,19.29.43,1.28.65,2.62.65,4.03Z"/>
    </g>
  </g>
</svg>