<?xml version="1.0" encoding="UTF-8" standalone="no"?>
<!DOCTYPE svg PUBLIC "-//W3C//DTD SVG 20010904//EN" "http://www.w3.org/TR/2001/REC-SVG-20010904/DTD/svg10.dtd">
<svg version="1.0" xmlns="http://www.w3.org/2000/svg" width="500.000000pt" height="500.000000pt" viewBox="0 0 500.000000 500.000000" preserveAspectRatio="xMidYMid meet">

<g transform="translate(0.000000,500.000000) scale(0.100000,-0.100000)" fill="#000000" stroke="none">
<path d="M2058 4420 c-296 -50 -505 -337 -485 -665 3 -49 15 -124 27 -165 91 -327 114 -464 130 -778 11 -205 2 -562 -20 -767 -5 -49 -10 -100 -10 -111 0 -16 -22 -34 -91 -74 -265 -153 -476 -357 -577 -556 -95 -188 -80 -389 43 -574 86 -129 306 -311 462 -382 292 -132 561 -66 762 187 l60 75 51 -64 c127 -160 290 -280 458 -336 89 -31 108 -33 222 -34 100 0 141 5 205 22 287 81 616 347 716 579 85 199 58 397 -84 608 -82 121 -334 345 -455 403 -35 17 -56 12 -76 -21 -16 -26 1 -45 94 -108 311 -211 484 -463 467 -684 -12 -166 -118 -328 -311 -477 -174 -135 -315 -199 -480 -220 -80 -10 -105 -9 -182 6 -199 38 -394 176 -530 371 l-35 51 44 94 c110 238 188 565 145 608 -7 7 -25 12 -40 12 -34 0 -42 -17 -52 -105 -3 -33 -20 -112 -37 -175 -118 -446 -361 -739 -625 -757 -177 -12 -397 92 -585 277 -170 167 -229 330 -184 505 47 178 225 381 488 553 54 35 101 62 104 58 3 -3 -4 -73 -17 -156 -21 -144 -21 -152 -5 -171 23 -24 47 -24 69 -1 34 38 92 552 105 931 17 498 -17 848 -115 1177 -43 147 -53 257 -31 361 46 212 197 368 392 404 168 31 354 -49 523 -225 168 -175 295 -411 412 -767 272 -824 311 -1470 110 -1845 -27 -51 -29 -60 -16 -78 23 -36 66 -28 96 19 55 83 97 207 126 372 23 132 23 458 0 638 -59 458 -248 1093 -414 1395 -237 429 -545 642 -854 590z"/>
<path d="M2332 3994 c-52 -36 -65 -109 -32 -181 44 -97 150 -110 195 -23 57 111 -69 270 -163 204z"/>
<path d="M1990 3882 c-56 -57 -52 -152 10 -214 48 -48 88 -51 130 -10 56 57 52 152 -10 214 -48 48 -88 51 -130 10z"/>
<path d="M2537 3642 c-10 -10 -17 -25 -17 -34 0 -24 34 -48 69 -48 l33 0 -7 -47 c-11 -78 -51 -189 -85 -243 -85 -133 -233 -135 -428 -4 l-84 56 21 22 c23 25 27 56 9 74 -25 25 -64 12 -148 -50 -95 -72 -110 -90 -94 -115 22 -36 41 -39 87 -14 l43 23 68 -51 c76 -57 144 -94 225 -122 72 -25 191 -25 246 0 l40 18 45 -40 c66 -58 121 -80 187 -75 42 4 60 11 84 34 120 114 82 273 -95 400 -29 21 -29 23 -20 75 8 50 11 54 39 57 58 7 83 53 47 85 -15 14 -41 17 -134 17 -99 0 -117 -3 -131 -18z m183 -332 c77 -61 98 -126 60 -187 -30 -50 -67 -45 -148 16 -30 23 -40 49 -26 64 4 3 26 -8 50 -25 38 -27 47 -30 69 -20 40 19 34 63 -15 105 -24 20 -40 43 -40 55 0 29 5 28 50 -8z"/>
</g>
</svg>