<?xml version="1.0" encoding="UTF-8" standalone="no"?>
<!DOCTYPE svg PUBLIC "-//W3C//DTD SVG 1.1//EN" "http://www.w3.org/Graphics/SVG/1.1/DTD/svg11.dtd">
<svg xmlns="http://www.w3.org/2000/svg" version="1.1" viewBox="0 0 200 200">
<g stroke-width="2.00" fill="none" stroke-linecap="butt">
<path stroke="#348b6d" vector-effect="non-scaling-stroke" d="
  M 93.05 46.94
  Q 92.47 47.17 92.49 47.68
  A 0.33 0.32 -14.0 0 0 92.96 47.96
  Q 95.00 46.95 97.02 47.73
  A 0.46 0.46 0.0 0 0 97.61 47.11
  Q 97.31 46.45 96.50 45.84
  A 0.43 0.43 0.0 0 1 96.55 45.11
  L 97.33 44.70
  A 0.40 0.39 -40.2 0 0 97.39 44.04
  C 97.01 43.75 94.39 44.76 92.96 44.03
  C 92.73 43.92 92.36 43.99 92.19 44.17
  A 0.45 0.45 0.0 0 0 92.31 44.89
  Q 93.31 45.42 93.41 46.36
  A 0.58 0.56 -13.8 0 1 93.05 46.94"
/>
<path stroke="#22201c" vector-effect="non-scaling-stroke" d="
  M 113.25 49.29
  L 113.25 50.06
  A 0.69 0.68 -82.2 0 0 113.75 50.72
  Q 122.46 53.17 129.96 58.20
  A 0.46 0.45 29.0 0 0 130.63 58.01
  L 132.70 53.59
  A 0.54 0.52 -60.2 0 0 132.53 52.94
  Q 124.57 47.11 114.85 45.33"
/>
<path stroke="#348b6d" vector-effect="non-scaling-stroke" d="
  M 114.85 45.33
  Q 112.29 46.21 110.22 44.94
  Q 109.54 44.52 109.73 45.29
  Q 109.85 45.78 110.36 46.01
  A 0.53 0.53 0.0 0 1 110.58 46.79
  Q 110.27 47.24 109.68 47.34
  A 0.51 0.51 0.0 0 0 109.26 47.95
  L 109.35 48.39
  A 0.46 0.46 0.0 0 0 110.03 48.69
  Q 111.77 47.72 113.25 49.29"
/>
<path stroke="#2a8166" vector-effect="non-scaling-stroke" d="
  M 114.85 45.33
  Q 114.45 47.19 113.23 47.46
  Q 112.70 47.58 113.18 47.84
  L 113.91 48.22
  A 0.55 0.55 0.0 0 1 114.11 49.00
  Q 113.86 49.40 113.25 49.29"
/>
<path stroke="#348b6d" vector-effect="non-scaling-stroke" d="
  M 77.20 50.97
  Q 76.49 51.33 76.54 52.09
  Q 76.59 52.91 77.20 52.36
  Q 78.82 50.89 81.06 50.75
  Q 82.79 50.63 81.12 50.15
  Q 80.43 49.95 79.74 49.96
  Q 78.95 49.96 79.35 49.29
  L 80.27 47.75
  Q 81.93 44.98 79.51 47.28
  Q 77.82 48.89 75.48 49.02
  Q 72.96 49.17 75.39 49.84
  Q 76.27 50.08 77.19 50.04
  Q 79.17 49.95 77.20 50.97"
/>
<path stroke="#348b6d" vector-effect="non-scaling-stroke" d="
  M 51.67 68.32
  Q 51.41 70.92 49.46 72.68
  Q 48.88 73.20 49.66 73.23
  Q 50.62 73.27 51.35 72.49
  Q 52.01 71.79 52.00 72.76
  L 52.00 73.91
  A 0.56 0.55 3.5 0 0 52.49 74.46
  Q 52.79 74.50 53.00 74.21"
/>
<path stroke="#22201c" vector-effect="non-scaling-stroke" d="
  M 53.00 74.21
  Q 54.07 74.73 54.52 74.02
  Q 61.48 62.95 72.65 56.19
  A 0.43 0.43 0.0 0 0 72.74 55.53
  L 69.08 51.66
  A 0.62 0.61 51.9 0 0 68.31 51.56
  Q 64.10 54.22 60.51 57.66
  C 59.84 58.30 58.89 58.68 58.02 59.53
  Q 53.74 63.67 51.67 68.32"
/>
<path stroke="#2a8166" vector-effect="non-scaling-stroke" d="
  M 53.00 74.21
  Q 53.17 72.17 54.84 71.07
  A 0.34 0.34 0.0 0 0 55.00 70.78
  L 55.01 70.50
  A 0.20 0.20 0.0 0 0 54.78 70.30
  L 53.29 70.53
  Q 52.59 70.64 52.85 69.97
  Q 53.33 68.74 51.67 68.32"
/>
<path stroke="#83746b" vector-effect="non-scaling-stroke" d="
  M 77.46 59.75
  L 76.00 60.54"
/>
<path stroke="#70645a" vector-effect="non-scaling-stroke" d="
  M 76.00 60.54
  Q 68.89 64.60 63.75 70.96"
/>
<path stroke="#83746b" vector-effect="non-scaling-stroke" d="
  M 63.75 70.96
  L 60.00 75.59"
/>
<path stroke="#35312a" vector-effect="non-scaling-stroke" d="
  M 60.00 75.59
  L 52.44 79.01
  A 1.24 1.22 89.6 0 0 51.79 79.68
  Q 47.18 90.55 46.56 102.35"
/>
<path stroke="#348b6d" vector-effect="non-scaling-stroke" d="
  M 46.56 102.35
  Q 44.56 102.05 43.89 103.28
  Q 43.61 103.78 43.39 103.26
  Q 43.04 102.45 42.23 101.97
  Q 40.52 100.96 41.58 102.63
  Q 43.01 104.88 41.90 107.25
  Q 41.24 108.68 42.58 107.86
  Q 43.34 107.40 43.60 106.60
  A 0.41 0.40 -65.5 0 1 44.20 106.37
  L 46.00 107.46"
/>
<path stroke="#35312a" vector-effect="non-scaling-stroke" d="
  M 46.00 107.46
  C 47.27 107.53 47.84 107.97 48.08 109.26
  Q 49.05 114.31 49.53 119.38"
/>
<path stroke="#348b6d" vector-effect="non-scaling-stroke" d="
  M 49.53 119.38
  Q 47.88 119.14 47.73 120.72
  A 0.29 0.28 -71.8 0 1 47.30 120.94
  L 46.00 120.12
  A 0.45 0.45 0.0 0 0 45.38 120.26
  L 45.21 120.54
  A 0.32 0.32 0.0 0 0 45.27 120.95
  Q 46.93 122.45 47.17 124.59
  C 47.19 124.80 47.32 124.98 47.53 125.02
  A 0.40 0.40 0.0 0 0 48.00 124.62
  L 47.99 123.27
  Q 47.98 122.53 48.52 123.03
  Q 49.65 124.08 50.81 123.11"
/>
<path stroke="#35312a" vector-effect="non-scaling-stroke" d="
  M 50.81 123.11
  Q 51.14 122.29 51.96 122.69
  A 1.30 1.28 4.0 0 1 52.64 123.46
  Q 54.17 128.18 57.29 132.04
  A 1.67 1.67 0.0 0 1 57.66 133.00
  L 57.79 135.00"
/>
<path stroke="#348b6d" vector-effect="non-scaling-stroke" d="
  M 57.79 135.00
  Q 57.68 134.13 56.94 134.05
  A 0.41 0.41 0.0 0 0 56.51 134.61
  L 57.02 135.96
  Q 57.29 136.70 56.54 136.47
  L 54.91 135.98
  Q 53.88 135.67 54.58 136.48
  L 57.75 140.14
  Q 58.43 140.93 58.25 139.91
  L 57.98 138.32
  Q 57.85 137.56 58.52 137.94
  Q 59.75 138.65 60.54 137.75"
/>
<path stroke="#35312a" vector-effect="non-scaling-stroke" d="
  M 60.54 137.75
  L 61.75 138.11
  A 1.64 1.61 -11.3 0 1 62.56 138.64
  C 64.86 141.43 67.98 143.11 70.46 145.75"
/>
<path stroke="#348b6d" vector-effect="non-scaling-stroke" d="
  M 70.46 145.75
  Q 70.14 145.71 69.92 145.83
  A 0.50 0.48 65.5 0 0 69.70 146.45
  L 70.28 147.88
  Q 70.53 148.51 69.89 148.32
  C 69.37 148.18 67.72 148.08 67.99 148.99
  A 0.82 0.81 81.9 0 0 68.77 149.58
  Q 70.94 149.61 71.85 151.56
  Q 72.26 152.45 72.61 151.54
  Q 72.99 150.56 72.21 149.86
  Q 71.61 149.31 72.42 149.20
  Q 73.68 149.01 74.31 148.38"
/>
<path stroke="#35312a" vector-effect="non-scaling-stroke" d="
  M 74.31 148.38
  Q 76.20 147.97 76.99 148.29
  Q 90.45 153.73 105.00 153.04"
/>
<path stroke="#22201c" vector-effect="non-scaling-stroke" d="
  M 105.00 153.04
  L 104.00 154.21"
/>
<path stroke="#254c3e" vector-effect="non-scaling-stroke" d="
  M 104.00 154.21
  L 103.66 154.26
  A 0.47 0.47 0.0 0 0 103.26 154.66
  L 103.21 155.00"
/>
<path stroke="#22201c" vector-effect="non-scaling-stroke" d="
  M 103.21 155.00
  C 100.73 158.35 95.78 156.58 95.10 159.49
  A 0.49 0.49 0.0 0 0 95.56 160.09
  L 105.03 160.31
  A 1.35 1.33 -63.3 0 0 105.89 160.02
  Q 106.39 159.64 107.02 159.55
  C 120.99 157.72 129.85 152.08 140.90 143.99
  A 0.91 0.89 69.7 0 0 141.27 143.17
  L 141.11 141.64"
/>
<path stroke="#254c3e" vector-effect="non-scaling-stroke" d="
  M 141.11 141.64
  Q 141.38 139.87 139.35 140.99
  Q 138.42 141.51 138.82 140.52
  L 139.28 139.36
  A 0.85 0.84 -55.0 0 0 139.13 138.48
  Q 138.91 138.22 138.50 138.29"
/>
<path stroke="#22201c" vector-effect="non-scaling-stroke" d="
  M 138.50 138.29
  L 137.49 138.10
  A 0.96 0.95 28.9 0 0 136.64 138.34
  Q 123.67 150.69 105.75 152.96"
/>
<path stroke="#35312a" vector-effect="non-scaling-stroke" d="
  M 105.75 152.96
  L 105.83 152.42
  A 1.06 1.06 0.0 0 1 106.37 151.65
  Q 110.59 149.35 113.50 145.54"
/>
<path stroke="#6b6660" vector-effect="non-scaling-stroke" d="
  M 113.50 145.54
  Q 125.44 141.84 134.00 132.79"
/>
<path stroke="#898572" vector-effect="non-scaling-stroke" d="
  M 134.00 132.79
  C 153.26 112.56 150.39 82.00 129.25 64.46"
/>
<path stroke="#70645a" vector-effect="non-scaling-stroke" d="
  M 129.25 64.46
  L 124.38 61.10"
/>
<path stroke="#5c554f" vector-effect="non-scaling-stroke" d="
  M 124.38 61.10
  Q 120.15 58.46 115.36 56.84"
/>
<path stroke="#70645a" vector-effect="non-scaling-stroke" d="
  M 115.36 56.84
  L 109.54 55.25"
/>
<path stroke="#83746b" vector-effect="non-scaling-stroke" d="
  M 109.54 55.25
  L 107.75 54.79"
/>
<path stroke="#898572" vector-effect="non-scaling-stroke" d="
  M 107.75 54.79
  Q 91.66 52.11 77.46 59.75"
/>
<path stroke="#dfd0ba" vector-effect="non-scaling-stroke" d="
  M 107.75 54.79
  L 107.75 55.28
  A 1.00 0.99 -18.9 0 1 107.36 56.07
  C 105.04 57.79 102.76 60.11 100.26 61.23
  Q 91.12 65.29 81.43 62.03
  C 80.21 61.62 79.39 60.60 77.89 60.46
  A 0.44 0.44 0.0 0 1 77.49 60.07
  L 77.46 59.75"
/>
<path stroke="#c7afa2" vector-effect="non-scaling-stroke" d="
  M 109.54 55.25
  Q 109.88 56.83 108.67 57.88
  Q 96.43 68.50 80.50 64.24
  Q 77.38 63.41 76.00 60.54"
/>
<path stroke="#a09086" vector-effect="non-scaling-stroke" d="
  M 115.36 56.84
  Q 105.23 69.55 89.17 72.86"
/>
<path stroke="#70645a" vector-effect="non-scaling-stroke" d="
  M 89.17 72.86
  L 86.03 70.13
  A 1.31 1.30 64.7 0 0 85.15 69.81
  L 72.50 69.97
  Q 71.71 69.98 72.27 70.55
  L 95.75 94.21"
/>
<path stroke="#dacfc8" vector-effect="non-scaling-stroke" d="
  M 95.75 94.21
  L 94.96 95.50"
/>
<path stroke="#796c62" vector-effect="non-scaling-stroke" d="
  M 94.96 95.50
  L 69.66 70.66
  Q 69.28 70.29 69.27 70.81
  L 68.95 81.05"
/>
<path stroke="#c7afa2" vector-effect="non-scaling-stroke" d="
  M 68.95 81.05
  Q 66.07 77.14 65.26 72.40
  A 1.13 1.11 12.5 0 0 64.78 71.66
  L 63.75 70.96"
/>
<path stroke="#a09086" vector-effect="non-scaling-stroke" d="
  M 124.38 61.10
  Q 121.37 65.21 120.79 70.25"
/>
<path stroke="#5c554f" vector-effect="non-scaling-stroke" d="
  M 120.79 70.25
  L 120.71 74.25"
/>
<path stroke="#9b928d" vector-effect="non-scaling-stroke" d="
  M 120.71 74.25
  Q 120.06 73.53 119.41 73.81
  A 0.98 0.96 -7.2 0 0 118.85 74.52
  C 116.24 89.28 99.64 77.80 97.71 81.50"
/>
<path stroke="#5c554f" vector-effect="non-scaling-stroke" d="
  M 97.71 81.50
  L 89.17 72.86"
/>
<path stroke="#6b6660" vector-effect="non-scaling-stroke" d="
  M 97.71 81.50
  L 120.00 103.61
  Q 121.08 104.68 121.06 103.15
  L 120.71 74.25"
/>
<path stroke="#6b6660" vector-effect="non-scaling-stroke" d="
  M 131.71 129.50
  L 124.79 123.00"
/>
<path stroke="#969491" vector-effect="non-scaling-stroke" d="
  M 124.79 123.00
  Q 110.74 108.13 95.75 94.21"
/>
<path stroke="#e9d0c4" vector-effect="non-scaling-stroke" d="
  M 68.71 98.25
  C 63.22 96.12 61.69 83.46 60.31 78.40
  A 1.01 0.99 -88.5 0 0 59.67 77.71
  L 59.04 77.50"
/>
<path stroke="#8b7c73" vector-effect="non-scaling-stroke" d="
  M 59.04 77.50
  L 60.00 75.59"
/>
<path stroke="#9e9c99" vector-effect="non-scaling-stroke" d="
  M 94.96 95.50
  Q 108.94 110.18 123.75 124.04"
/>
<path stroke="#746d68" vector-effect="non-scaling-stroke" d="
  M 123.75 124.04
  L 128.80 129.27
  A 0.32 0.32 0.0 0 1 128.56 129.81
  L 114.29 129.50"
/>
<path stroke="#9e9c99" vector-effect="non-scaling-stroke" d="
  M 114.29 129.50
  C 104.23 119.36 93.72 109.49 83.98 99.06
  Q 81.91 96.84 79.45 95.03
  A 0.27 0.27 0.0 0 0 79.02 95.25
  L 78.64 129.05
  A 0.45 0.44 -89.3 0 1 78.20 129.49
  L 68.94 129.56
  A 0.53 0.53 0.0 0 1 68.41 129.03
  L 68.46 113.75"
/>
<path stroke="#9e9990" vector-effect="non-scaling-stroke" d="
  M 68.46 113.75
  L 68.54 106.56"
/>
<path stroke="#9b8d83" vector-effect="non-scaling-stroke" d="
  M 68.54 106.56
  L 68.71 98.25"
/>
<path stroke="#8b7c73" vector-effect="non-scaling-stroke" d="
  M 68.71 98.25
  L 68.95 81.05"
/>
<path stroke="#d5d1cf" vector-effect="non-scaling-stroke" d="
  M 124.79 123.00
  Q 124.74 123.89 123.75 124.04"
/>
<path stroke="#cdc0a9" vector-effect="non-scaling-stroke" d="
  M 129.25 64.46
  Q 127.51 67.09 127.00 70.21"
/>
<path stroke="#70645a" vector-effect="non-scaling-stroke" d="
  M 127.00 70.21
  L 120.79 70.25"
/>
<path stroke="#c8c1b0" vector-effect="non-scaling-stroke" d="
  M 134.00 132.79
  Q 132.09 131.72 131.71 129.50"
/>
<path stroke="#898572" vector-effect="non-scaling-stroke" d="
  M 131.71 129.50
  L 130.70 71.01
  A 0.59 0.59 0.0 0 0 130.15 70.43
  L 127.00 70.21"
/>
<path stroke="#fcede1" vector-effect="non-scaling-stroke" d="
  M 68.54 106.56
  Q 64.57 107.13 62.88 104.05
  A 0.17 0.16 -35.8 0 1 62.92 103.85
  Q 63.07 103.73 63.18 103.79
  Q 63.27 103.83 63.24 103.75
  Q 58.95 93.94 58.22 86.30
  Q 57.95 83.57 56.25 83.46"
/>
<path stroke="#9b8d83" vector-effect="non-scaling-stroke" d="
  M 59.04 77.50
  Q 57.15 80.25 56.25 83.46"
/>
<path stroke="#9e9990" vector-effect="non-scaling-stroke" d="
  M 56.25 83.46
  Q 54.43 86.73 54.00 90.46"
/>
<path stroke="#9e9c99" vector-effect="non-scaling-stroke" d="
  M 54.00 90.46
  C 46.38 122.52 74.39 151.08 106.25 146.96"
/>
<path stroke="#746d68" vector-effect="non-scaling-stroke" d="
  M 106.25 146.96
  L 113.50 145.54"
/>
<path stroke="#2b2724" vector-effect="non-scaling-stroke" d="
  M 105.75 152.96
  L 105.00 153.04"
/>
<path stroke="#3d9275" vector-effect="non-scaling-stroke" d="
  M 74.31 148.38
  Q 71.72 147.67 70.46 145.75"
/>
<path stroke="#3d9275" vector-effect="non-scaling-stroke" d="
  M 60.54 137.75
  Q 58.81 136.68 57.79 135.00"
/>
<path stroke="#3d9275" vector-effect="non-scaling-stroke" d="
  M 50.81 123.11
  Q 48.35 121.67 49.53 119.38"
/>
<path stroke="#3d9275" vector-effect="non-scaling-stroke" d="
  M 46.00 107.46
  Q 44.88 104.79 46.56 102.35"
/>
<path stroke="#fffcf7" vector-effect="non-scaling-stroke" d="
  M 68.46 113.75
  L 68.21 113.20
  A 0.66 0.65 -18.6 0 0 67.45 112.83
  Q 65.37 113.33 63.81 114.84
  A 1.70 1.66 -70.8 0 1 62.89 115.30
  C 59.47 115.82 57.82 109.34 57.46 106.80
  C 56.69 101.20 56.42 95.86 54.00 90.46"
/>
<path stroke="#d5d1cf" vector-effect="non-scaling-stroke" d="
  M 114.29 129.50
  Q 115.59 129.95 117.00 129.74
  A 0.75 0.75 0.0 0 1 117.76 130.86
  L 114.18 136.97
  A 1.00 0.99 -78.0 0 1 113.45 137.45
  C 112.63 137.54 110.94 140.63 109.63 141.38
  A 1.76 1.71 88.0 0 0 108.94 142.14
  Q 108.19 143.76 106.53 144.16
  Q 106.08 144.27 105.74 144.58
  L 105.01 145.25
  A 0.45 0.45 0.0 0 0 105.14 145.99
  Q 105.92 146.32 106.25 146.96"
/>
<path stroke="#1b4337" vector-effect="non-scaling-stroke" d="
  M 138.50 138.29
  Q 137.68 140.57 135.54 141.35
  A 0.73 0.72 -86.7 0 0 135.13 141.72
  L 135.02 141.95
  A 0.27 0.26 -78.5 0 0 135.27 142.33
  L 137.14 142.24
  Q 137.82 142.21 137.49 142.80
  Q 137.06 143.59 136.97 144.54
  Q 136.79 146.28 137.61 144.73
  Q 138.78 142.52 141.11 141.64"
/>
<path stroke="#1b4337" vector-effect="non-scaling-stroke" d="
  M 103.21 155.00
  L 104.76 156.31
  Q 105.21 156.69 104.64 156.82
  Q 103.70 157.03 103.28 157.79
  Q 102.90 158.49 103.69 158.40
  L 108.42 157.87
  Q 109.32 157.77 108.60 157.22
  Q 108.15 156.89 107.61 156.70
  A 0.44 0.44 0.0 0 1 107.40 156.02
  L 108.67 154.34
  A 0.23 0.23 0.0 0 0 108.41 153.98
  Q 105.29 155.07 104.00 154.21"
/>
<path stroke="#348b6d" vector-effect="non-scaling-stroke" d="
  M 140.16 63.23
  L 138.60 63.03
  Q 137.81 62.93 138.35 63.52
  L 141.33 66.77
  Q 141.99 67.50 142.01 66.52
  L 142.03 65.32
  Q 142.05 64.51 142.72 64.97
  Q 143.25 65.34 143.94 65.27
  Q 145.00 65.16 144.12 64.57
  C 143.36 64.05 140.90 60.99 140.69 61.02
  A 0.57 0.56 -11.8 0 0 140.24 61.70
  L 140.50 62.85
  A 0.31 0.31 0.0 0 1 140.16 63.23"
/>
<path stroke="#348b6d" vector-effect="non-scaling-stroke" d="
  M 150.06 77.20
  Q 149.32 76.79 148.44 76.74
  Q 147.27 76.67 148.17 77.43
  Q 149.65 78.68 149.70 80.64
  Q 149.73 81.61 150.44 80.95
  Q 150.96 80.46 151.02 79.52
  Q 151.07 78.81 151.60 79.29
  L 152.58 80.19
  Q 153.83 81.33 153.27 79.73
  Q 152.95 78.82 152.26 78.13
  A 0.93 0.89 -66.1 0 1 152.00 77.42
  Q 152.10 76.26 151.45 75.30
  Q 150.59 74.00 150.54 75.56
  L 150.50 76.95
  A 0.30 0.30 0.0 0 1 150.06 77.20"
/>
<path stroke="#348b6d" vector-effect="non-scaling-stroke" d="
  M 45.52 86.01
  L 45.13 84.76
  Q 44.77 83.63 44.25 84.70
  Q 43.77 85.71 44.11 86.78
  A 0.99 0.98 -37.6 0 1 44.00 87.61
  Q 43.43 88.49 43.01 89.42
  Q 42.04 91.61 43.73 89.91
  L 45.07 88.55
  Q 45.65 87.97 45.75 88.78
  Q 45.85 89.55 46.31 90.21
  Q 47.02 91.23 46.92 89.99
  Q 46.75 87.88 47.85 86.14
  Q 48.89 84.51 47.19 85.43
  Q 46.65 85.72 46.34 86.14
  Q 45.79 86.88 45.52 86.01"
/>
<path stroke="#348b6d" vector-effect="non-scaling-stroke" d="
  M 155.62 96.03
  L 156.42 97.25
  A 0.56 0.55 56.5 0 0 157.20 97.41
  C 157.77 97.03 156.52 94.32 156.97 93.00
  A 0.53 0.53 0.0 0 0 156.74 92.38
  L 156.50 92.25
  A 0.22 0.21 -60.3 0 0 156.19 92.34
  L 155.72 93.35
  A 0.53 0.52 -54.9 0 1 154.88 93.50
  L 154.08 92.71
  A 0.56 0.55 -48.0 0 0 153.26 92.76
  C 153.01 93.05 154.36 95.43 153.59 96.94
  A 0.58 0.57 -55.6 0 0 153.72 97.65
  C 154.31 98.18 154.99 96.61 155.05 96.15
  Q 155.17 95.32 155.62 96.03"
/>
<path stroke="#348b6d" vector-effect="non-scaling-stroke" d="
  M 154.81 113.67
  L 155.28 115.03
  A 0.36 0.36 0.0 0 0 155.81 115.22
  L 156.09 115.06
  A 0.36 0.36 0.0 0 0 156.24 114.63
  C 155.39 112.38 156.97 111.81 156.80 110.54
  A 0.36 0.36 0.0 0 0 156.30 110.25
  L 155.19 110.72
  A 0.66 0.66 0.0 0 1 154.34 110.41
  L 153.88 109.52
  Q 153.30 108.40 153.14 109.65
  L 152.57 114.08
  Q 152.49 114.68 153.04 114.43
  Q 153.63 114.16 154.04 113.57
  Q 154.53 112.86 154.81 113.67"
/>
<path stroke="#348b6d" vector-effect="non-scaling-stroke" d="
  M 149.24 126.22
  Q 149.37 125.39 149.07 124.62
  Q 148.21 122.41 148.22 124.78
  Q 148.22 127.23 146.27 128.52
  Q 143.95 130.04 146.59 129.21
  Q 147.44 128.94 148.13 128.40
  Q 148.69 127.96 148.71 128.68
  L 148.77 130.37
  A 0.40 0.39 83.9 0 0 149.24 130.75
  C 149.66 130.67 149.75 130.32 149.81 129.88
  C 149.95 128.73 151.93 126.68 151.75 126.28
  A 0.59 0.59 0.0 0 0 150.90 126.04
  L 149.91 126.66
  Q 149.09 127.18 149.24 126.22"
/>
<path stroke="#254c3e" vector-effect="non-scaling-stroke" d="
  M 89.34 155.02
  L 90.85 154.58
  A 0.25 0.24 66.3 0 0 90.99 154.22
  L 90.84 153.97
  A 0.50 0.49 67.8 0 0 90.29 153.73
  C 88.99 154.07 86.23 152.89 86.06 152.98
  A 0.47 0.47 0.0 0 0 85.94 153.72
  L 86.73 154.55
  Q 87.21 155.06 86.53 155.23
  Q 85.54 155.46 85.00 156.19
  A 0.49 0.49 0.0 0 0 85.52 156.96
  Q 87.78 156.34 89.55 157.67
  A 0.49 0.48 48.7 0 0 90.09 157.71
  L 90.36 157.55
  A 0.39 0.39 0.0 0 0 90.43 156.91
  L 89.17 155.80
  Q 88.54 155.25 89.34 155.02"
/>
<path stroke="#1b4337" vector-effect="non-scaling-stroke" d="
  M 129.49 54.04
  L 130.53 53.99
  A 0.52 0.52 0.0 0 0 131.02 53.47
  C 131.03 52.61 128.01 51.66 127.24 50.93
  A 0.70 0.65 -20.6 0 0 126.80 50.75
  L 126.40 50.74
  Q 125.70 50.72 126.16 51.24
  L 127.01 52.21
  Q 127.83 53.14 126.59 53.01
  Q 125.95 52.95 125.31 53.06
  Q 123.49 53.36 125.29 53.76
  Q 127.35 54.22 128.41 56.01
  A 0.54 0.53 69.7 0 0 128.96 56.27
  L 129.34 56.21
  Q 130.43 56.03 129.64 55.25
  L 129.19 54.81
  Q 128.45 54.09 129.49 54.04"
/>
<path stroke="#1b4337" vector-effect="non-scaling-stroke" d="
  M 64.67 57.41
  Q 65.13 56.70 64.73 56.07
  Q 64.25 55.31 63.89 56.12
  Q 62.99 58.11 60.86 58.39
  A 0.47 0.47 0.0 0 0 60.50 59.07
  L 60.67 59.43
  A 0.51 0.50 -34.7 0 0 61.47 59.57
  Q 62.00 59.09 62.60 59.28
  A 0.42 0.41 -67.2 0 1 62.83 59.86
  Q 62.42 60.69 62.53 61.57
  Q 62.61 62.17 63.05 61.76
  L 66.51 58.48
  Q 67.04 57.99 66.31 57.99
  L 64.99 58.01
  Q 64.27 58.02 64.67 57.41"
/>
<path stroke="#1b4337" vector-effect="non-scaling-stroke" d="
  M 124.49 150.43
  L 125.02 149.36
  A 0.44 0.44 0.0 0 0 124.91 148.83
  C 124.66 148.62 124.35 148.75 124.14 149.00
  C 123.15 150.15 120.25 150.35 120.09 150.85
  A 0.61 0.60 13.0 0 0 120.59 151.64
  L 121.80 151.80
  A 0.45 0.44 18.1 0 1 122.13 152.45
  L 121.52 153.60
  A 0.44 0.44 0.0 0 0 121.88 154.25
  C 123.17 154.34 123.73 152.60 125.98 152.70
  A 0.68 0.68 0.0 0 0 126.51 151.55
  Q 125.88 150.90 124.79 150.91
  A 0.34 0.33 -77.1 0 1 124.49 150.43"
/>
</g>
<path fill="#2c2922" d="
  M 124.70 161.21
  Q 124.04 161.90 123.13 161.59
  A 0.96 0.95 -55.0 0 0 122.20 161.76
  L 121.34 162.50
  A 1.13 1.10 -58.6 0 1 120.37 162.75
  Q 119.14 162.48 118.42 163.47
  A 0.79 0.78 -58.6 0 1 117.45 163.71
  Q 116.16 163.08 115.29 164.29
  A 0.71 0.71 0.0 0 1 114.47 164.53
  Q 113.11 164.02 111.95 164.89
  A 1.16 1.14 34.2 0 1 110.98 165.07
  Q 109.60 164.68 108.70 165.56
  A 0.75 0.73 32.7 0 1 107.93 165.72
  L 106.99 165.35
  A 0.85 0.83 -54.9 0 0 106.12 165.51
  Q 105.00 166.50 103.94 165.61
  A 0.73 0.72 41.8 0 0 102.94 165.66
  Q 102.02 166.65 100.89 165.96
  A 1.50 1.46 -33.7 0 0 99.82 165.76
  L 98.27 166.04
  A 1.23 1.22 60.3 0 1 97.26 165.76
  Q 96.62 165.21 95.89 165.84
  A 0.90 0.89 37.7 0 1 94.90 165.96
  L 93.78 165.38
  A 0.88 0.86 40.6 0 0 92.87 165.44
  Q 91.94 166.08 91.00 165.38
  A 1.56 1.55 -26.8 0 0 90.08 165.08
  C 85.58 165.13 79.15 162.65 75.98 161.49
  Q 75.49 161.31 75.13 160.94
  Q 74.49 160.29 73.50 160.51
  A 0.92 0.92 0.0 0 1 72.57 160.18
  L 71.83 159.25
  A 0.82 0.80 -24.4 0 0 71.05 158.97
  Q 69.61 159.27 69.00 158.01
  A 0.75 0.75 0.0 0 0 68.24 157.59
  Q 67.18 157.72 66.65 156.93
  Q 66.38 156.52 65.96 156.28
  L 61.57 153.74
  A 1.73 1.68 -89.2 0 1 60.91 153.04
  Q 60.40 152.04 59.23 151.91
  A 0.83 0.82 85.2 0 1 58.53 151.31
  Q 58.19 150.13 56.91 149.95
  A 0.88 0.87 85.7 0 1 56.20 149.33
  C 55.78 147.99 54.78 147.93 54.03 147.19
  Q 45.23 138.52 40.33 127.20
  Q 40.13 126.73 39.75 126.38
  Q 39.08 125.75 39.45 125.06
  A 0.76 0.76 0.0 0 0 39.23 124.08
  Q 38.03 123.21 38.26 121.67
  A 0.95 0.95 0.0 0 0 37.87 120.75
  Q 36.93 120.08 37.33 118.81
  A 0.87 0.86 -58.0 0 0 37.14 117.98
  C 36.27 116.99 36.63 116.21 36.42 115.33
  Q 34.88 108.95 34.96 102.39
  Q 34.96 101.90 34.77 101.44
  Q 34.43 100.62 35.00 99.87
  A 0.70 0.70 0.0 0 0 35.05 99.10
  C 34.43 98.01 35.02 97.33 35.09 96.45
  C 37.21 69.56 55.82 47.55 81.41 40.06
  C 113.05 30.81 147.64 47.26 159.87 78.23
  Q 166.87 95.94 162.96 116.22
  Q 162.70 117.61 162.23 118.13
  A 0.84 0.82 58.4 0 0 162.05 118.92
  Q 162.48 120.29 161.20 121.21
  A 0.63 0.61 -32.1 0 0 161.01 122.00
  Q 161.53 122.97 160.66 123.72
  A 1.55 1.50 -15.4 0 0 160.15 124.59
  Q 159.74 126.65 158.81 128.56
  Q 154.48 137.38 148.03 144.77
  Q 147.71 145.13 147.29 145.36
  L 146.62 145.71
  A 0.73 0.72 79.3 0 0 146.24 146.28
  Q 146.14 147.40 145.12 147.76
  Q 144.60 147.94 144.21 148.32
  L 141.04 151.52
  A 1.42 1.42 0.0 0 1 140.19 151.94
  Q 139.13 152.06 138.83 153.08
  A 1.10 1.08 -89.3 0 1 138.07 153.84
  L 137.09 154.12
  A 1.35 1.32 6.3 0 0 136.27 154.76
  Q 135.83 155.58 134.99 155.79
  Q 134.68 155.87 134.41 156.01
  L 125.47 160.64
  Q 125.04 160.86 124.70 161.21
  Z
  M 93.05 46.94
  Q 92.47 47.17 92.49 47.68
  A 0.33 0.32 -14.0 0 0 92.96 47.96
  Q 95.00 46.95 97.02 47.73
  A 0.46 0.46 0.0 0 0 97.61 47.11
  Q 97.31 46.45 96.50 45.84
  A 0.43 0.43 0.0 0 1 96.55 45.11
  L 97.33 44.70
  A 0.40 0.39 -40.2 0 0 97.39 44.04
  C 97.01 43.75 94.39 44.76 92.96 44.03
  C 92.73 43.92 92.36 43.99 92.19 44.17
  A 0.45 0.45 0.0 0 0 92.31 44.89
  Q 93.31 45.42 93.41 46.36
  A 0.58 0.56 -13.8 0 1 93.05 46.94
  Z
  M 113.25 49.29
  L 113.25 50.06
  A 0.69 0.68 -82.2 0 0 113.75 50.72
  Q 122.46 53.17 129.96 58.20
  A 0.46 0.45 29.0 0 0 130.63 58.01
  L 132.70 53.59
  A 0.54 0.52 -60.2 0 0 132.53 52.94
  Q 124.57 47.11 114.85 45.33
  Q 112.29 46.21 110.22 44.94
  Q 109.54 44.52 109.73 45.29
  Q 109.85 45.78 110.36 46.01
  A 0.53 0.53 0.0 0 1 110.58 46.79
  Q 110.27 47.24 109.68 47.34
  A 0.51 0.51 0.0 0 0 109.26 47.95
  L 109.35 48.39
  A 0.46 0.46 0.0 0 0 110.03 48.69
  Q 111.77 47.72 113.25 49.29
  Z
  M 77.20 50.97
  Q 76.49 51.33 76.54 52.09
  Q 76.59 52.91 77.20 52.36
  Q 78.82 50.89 81.06 50.75
  Q 82.79 50.63 81.12 50.15
  Q 80.43 49.95 79.74 49.96
  Q 78.95 49.96 79.35 49.29
  L 80.27 47.75
  Q 81.93 44.98 79.51 47.28
  Q 77.82 48.89 75.48 49.02
  Q 72.96 49.17 75.39 49.84
  Q 76.27 50.08 77.19 50.04
  Q 79.17 49.95 77.20 50.97
  Z
  M 51.67 68.32
  Q 51.41 70.92 49.46 72.68
  Q 48.88 73.20 49.66 73.23
  Q 50.62 73.27 51.35 72.49
  Q 52.01 71.79 52.00 72.76
  L 52.00 73.91
  A 0.56 0.55 3.5 0 0 52.49 74.46
  Q 52.79 74.50 53.00 74.21
  Q 54.07 74.73 54.52 74.02
  Q 61.48 62.95 72.65 56.19
  A 0.43 0.43 0.0 0 0 72.74 55.53
  L 69.08 51.66
  A 0.62 0.61 51.9 0 0 68.31 51.56
  Q 64.10 54.22 60.51 57.66
  C 59.84 58.30 58.89 58.68 58.02 59.53
  Q 53.74 63.67 51.67 68.32
  Z
  M 77.46 59.75
  L 76.00 60.54
  Q 68.89 64.60 63.75 70.96
  L 60.00 75.59
  L 52.44 79.01
  A 1.24 1.22 89.6 0 0 51.79 79.68
  Q 47.18 90.55 46.56 102.35
  Q 44.56 102.05 43.89 103.28
  Q 43.61 103.78 43.39 103.26
  Q 43.04 102.45 42.23 101.97
  Q 40.52 100.96 41.58 102.63
  Q 43.01 104.88 41.90 107.25
  Q 41.24 108.68 42.58 107.86
  Q 43.34 107.40 43.60 106.60
  A 0.41 0.40 -65.5 0 1 44.20 106.37
  L 46.00 107.46
  C 47.27 107.53 47.84 107.97 48.08 109.26
  Q 49.05 114.31 49.53 119.38
  Q 47.88 119.14 47.73 120.72
  A 0.29 0.28 -71.8 0 1 47.30 120.94
  L 46.00 120.12
  A 0.45 0.45 0.0 0 0 45.38 120.26
  L 45.21 120.54
  A 0.32 0.32 0.0 0 0 45.27 120.95
  Q 46.93 122.45 47.17 124.59
  C 47.19 124.80 47.32 124.98 47.53 125.02
  A 0.40 0.40 0.0 0 0 48.00 124.62
  L 47.99 123.27
  Q 47.98 122.53 48.52 123.03
  Q 49.65 124.08 50.81 123.11
  Q 51.14 122.29 51.96 122.69
  A 1.30 1.28 4.0 0 1 52.64 123.46
  Q 54.17 128.18 57.29 132.04
  A 1.67 1.67 0.0 0 1 57.66 133.00
  L 57.79 135.00
  Q 57.68 134.13 56.94 134.05
  A 0.41 0.41 0.0 0 0 56.51 134.61
  L 57.02 135.96
  Q 57.29 136.70 56.54 136.47
  L 54.91 135.98
  Q 53.88 135.67 54.58 136.48
  L 57.75 140.14
  Q 58.43 140.93 58.25 139.91
  L 57.98 138.32
  Q 57.85 137.56 58.52 137.94
  Q 59.75 138.65 60.54 137.75
  L 61.75 138.11
  A 1.64 1.61 -11.3 0 1 62.56 138.64
  C 64.86 141.43 67.98 143.11 70.46 145.75
  Q 70.14 145.71 69.92 145.83
  A 0.50 0.48 65.5 0 0 69.70 146.45
  L 70.28 147.88
  Q 70.53 148.51 69.89 148.32
  C 69.37 148.18 67.72 148.08 67.99 148.99
  A 0.82 0.81 81.9 0 0 68.77 149.58
  Q 70.94 149.61 71.85 151.56
  Q 72.26 152.45 72.61 151.54
  Q 72.99 150.56 72.21 149.86
  Q 71.61 149.31 72.42 149.20
  Q 73.68 149.01 74.31 148.38
  Q 76.20 147.97 76.99 148.29
  Q 90.45 153.73 105.00 153.04
  L 104.00 154.21
  L 103.66 154.26
  A 0.47 0.47 0.0 0 0 103.26 154.66
  L 103.21 155.00
  C 100.73 158.35 95.78 156.58 95.10 159.49
  A 0.49 0.49 0.0 0 0 95.56 160.09
  L 105.03 160.31
  A 1.35 1.33 -63.3 0 0 105.89 160.02
  Q 106.39 159.64 107.02 159.55
  C 120.99 157.72 129.85 152.08 140.90 143.99
  A 0.91 0.89 69.7 0 0 141.27 143.17
  L 141.11 141.64
  Q 141.38 139.87 139.35 140.99
  Q 138.42 141.51 138.82 140.52
  L 139.28 139.36
  A 0.85 0.84 -55.0 0 0 139.13 138.48
  Q 138.91 138.22 138.50 138.29
  L 137.49 138.10
  A 0.96 0.95 28.9 0 0 136.64 138.34
  Q 123.67 150.69 105.75 152.96
  L 105.83 152.42
  A 1.06 1.06 0.0 0 1 106.37 151.65
  Q 110.59 149.35 113.50 145.54
  Q 125.44 141.84 134.00 132.79
  C 153.26 112.56 150.39 82.00 129.25 64.46
  L 124.38 61.10
  Q 120.15 58.46 115.36 56.84
  L 109.54 55.25
  L 107.75 54.79
  Q 91.66 52.11 77.46 59.75
  Z
  M 140.16 63.23
  L 138.60 63.03
  Q 137.81 62.93 138.35 63.52
  L 141.33 66.77
  Q 141.99 67.50 142.01 66.52
  L 142.03 65.32
  Q 142.05 64.51 142.72 64.97
  Q 143.25 65.34 143.94 65.27
  Q 145.00 65.16 144.12 64.57
  C 143.36 64.05 140.90 60.99 140.69 61.02
  A 0.57 0.56 -11.8 0 0 140.24 61.70
  L 140.50 62.85
  A 0.31 0.31 0.0 0 1 140.16 63.23
  Z
  M 150.06 77.20
  Q 149.32 76.79 148.44 76.74
  Q 147.27 76.67 148.17 77.43
  Q 149.65 78.68 149.70 80.64
  Q 149.73 81.61 150.44 80.95
  Q 150.96 80.46 151.02 79.52
  Q 151.07 78.81 151.60 79.29
  L 152.58 80.19
  Q 153.83 81.33 153.27 79.73
  Q 152.95 78.82 152.26 78.13
  A 0.93 0.89 -66.1 0 1 152.00 77.42
  Q 152.10 76.26 151.45 75.30
  Q 150.59 74.00 150.54 75.56
  L 150.50 76.95
  A 0.30 0.30 0.0 0 1 150.06 77.20
  Z
  M 45.52 86.01
  L 45.13 84.76
  Q 44.77 83.63 44.25 84.70
  Q 43.77 85.71 44.11 86.78
  A 0.99 0.98 -37.6 0 1 44.00 87.61
  Q 43.43 88.49 43.01 89.42
  Q 42.04 91.61 43.73 89.91
  L 45.07 88.55
  Q 45.65 87.97 45.75 88.78
  Q 45.85 89.55 46.31 90.21
  Q 47.02 91.23 46.92 89.99
  Q 46.75 87.88 47.85 86.14
  Q 48.89 84.51 47.19 85.43
  Q 46.65 85.72 46.34 86.14
  Q 45.79 86.88 45.52 86.01
  Z
  M 155.62 96.03
  L 156.42 97.25
  A 0.56 0.55 56.5 0 0 157.20 97.41
  C 157.77 97.03 156.52 94.32 156.97 93.00
  A 0.53 0.53 0.0 0 0 156.74 92.38
  L 156.50 92.25
  A 0.22 0.21 -60.3 0 0 156.19 92.34
  L 155.72 93.35
  A 0.53 0.52 -54.9 0 1 154.88 93.50
  L 154.08 92.71
  A 0.56 0.55 -48.0 0 0 153.26 92.76
  C 153.01 93.05 154.36 95.43 153.59 96.94
  A 0.58 0.57 -55.6 0 0 153.72 97.65
  C 154.31 98.18 154.99 96.61 155.05 96.15
  Q 155.17 95.32 155.62 96.03
  Z
  M 154.81 113.67
  L 155.28 115.03
  A 0.36 0.36 0.0 0 0 155.81 115.22
  L 156.09 115.06
  A 0.36 0.36 0.0 0 0 156.24 114.63
  C 155.39 112.38 156.97 111.81 156.80 110.54
  A 0.36 0.36 0.0 0 0 156.30 110.25
  L 155.19 110.72
  A 0.66 0.66 0.0 0 1 154.34 110.41
  L 153.88 109.52
  Q 153.30 108.40 153.14 109.65
  L 152.57 114.08
  Q 152.49 114.68 153.04 114.43
  Q 153.63 114.16 154.04 113.57
  Q 154.53 112.86 154.81 113.67
  Z
  M 149.24 126.22
  Q 149.37 125.39 149.07 124.62
  Q 148.21 122.41 148.22 124.78
  Q 148.22 127.23 146.27 128.52
  Q 143.95 130.04 146.59 129.21
  Q 147.44 128.94 148.13 128.40
  Q 148.69 127.96 148.71 128.68
  L 148.77 130.37
  A 0.40 0.39 83.9 0 0 149.24 130.75
  C 149.66 130.67 149.75 130.32 149.81 129.88
  C 149.95 128.73 151.93 126.68 151.75 126.28
  A 0.59 0.59 0.0 0 0 150.90 126.04
  L 149.91 126.66
  Q 149.09 127.18 149.24 126.22
  Z
  M 89.34 155.02
  L 90.85 154.58
  A 0.25 0.24 66.3 0 0 90.99 154.22
  L 90.84 153.97
  A 0.50 0.49 67.8 0 0 90.29 153.73
  C 88.99 154.07 86.23 152.89 86.06 152.98
  A 0.47 0.47 0.0 0 0 85.94 153.72
  L 86.73 154.55
  Q 87.21 155.06 86.53 155.23
  Q 85.54 155.46 85.00 156.19
  A 0.49 0.49 0.0 0 0 85.52 156.96
  Q 87.78 156.34 89.55 157.67
  A 0.49 0.48 48.7 0 0 90.09 157.71
  L 90.36 157.55
  A 0.39 0.39 0.0 0 0 90.43 156.91
  L 89.17 155.80
  Q 88.54 155.25 89.34 155.02
  Z"
/>
<path fill="#3cecb7" d="
  M 93.41 46.36
  Q 93.31 45.42 92.31 44.89
  A 0.45 0.45 0.0 0 1 92.19 44.17
  C 92.36 43.99 92.73 43.92 92.96 44.03
  C 94.39 44.76 97.01 43.75 97.39 44.04
  A 0.40 0.39 -40.2 0 1 97.33 44.70
  L 96.55 45.11
  A 0.43 0.43 0.0 0 0 96.50 45.84
  Q 97.31 46.45 97.61 47.11
  A 0.46 0.46 0.0 0 1 97.02 47.73
  Q 95.00 46.95 92.96 47.96
  A 0.33 0.32 -14.0 0 1 92.49 47.68
  Q 92.47 47.17 93.05 46.94
  A 0.58 0.56 -13.8 0 0 93.41 46.36
  Z"
/>
<path fill="#3cecb7" d="
  M 114.85 45.33
  Q 114.45 47.19 113.23 47.46
  Q 112.70 47.58 113.18 47.84
  L 113.91 48.22
  A 0.55 0.55 0.0 0 1 114.11 49.00
  Q 113.86 49.40 113.25 49.29
  Q 111.77 47.72 110.03 48.69
  A 0.46 0.46 0.0 0 1 109.35 48.39
  L 109.26 47.95
  A 0.51 0.51 0.0 0 1 109.68 47.34
  Q 110.27 47.24 110.58 46.79
  A 0.53 0.53 0.0 0 0 110.36 46.01
  Q 109.85 45.78 109.73 45.29
  Q 109.54 44.52 110.22 44.94
  Q 112.29 46.21 114.85 45.33
  Z"
/>
<path fill="#181615" d="
  M 113.25 49.29
  Q 113.86 49.40 114.11 49.00
  A 0.55 0.55 0.0 0 0 113.91 48.22
  L 113.18 47.84
  Q 112.70 47.58 113.23 47.46
  Q 114.45 47.19 114.85 45.33
  Q 124.57 47.11 132.53 52.94
  A 0.54 0.52 -60.2 0 1 132.70 53.59
  L 130.63 58.01
  A 0.46 0.45 29.0 0 1 129.96 58.20
  Q 122.46 53.17 113.75 50.72
  A 0.69 0.68 -82.2 0 1 113.25 50.06
  L 113.25 49.29
  Z
  M 129.49 54.04
  L 130.53 53.99
  A 0.52 0.52 0.0 0 0 131.02 53.47
  C 131.03 52.61 128.01 51.66 127.24 50.93
  A 0.70 0.65 -20.6 0 0 126.80 50.75
  L 126.40 50.74
  Q 125.70 50.72 126.16 51.24
  L 127.01 52.21
  Q 127.83 53.14 126.59 53.01
  Q 125.95 52.95 125.31 53.06
  Q 123.49 53.36 125.29 53.76
  Q 127.35 54.22 128.41 56.01
  A 0.54 0.53 69.7 0 0 128.96 56.27
  L 129.34 56.21
  Q 130.43 56.03 129.64 55.25
  L 129.19 54.81
  Q 128.45 54.09 129.49 54.04
  Z"
/>
<path fill="#3cecb7" d="
  M 77.19 50.04
  Q 76.27 50.08 75.39 49.84
  Q 72.96 49.17 75.48 49.02
  Q 77.82 48.89 79.51 47.28
  Q 81.93 44.98 80.27 47.75
  L 79.35 49.29
  Q 78.95 49.96 79.74 49.96
  Q 80.43 49.95 81.12 50.15
  Q 82.79 50.63 81.06 50.75
  Q 78.82 50.89 77.20 52.36
  Q 76.59 52.91 76.54 52.09
  Q 76.49 51.33 77.20 50.97
  Q 79.17 49.95 77.19 50.04
  Z"
/>
<path fill="#1d6f59" d="
  M 129.19 54.81
  L 129.64 55.25
  Q 130.43 56.03 129.34 56.21
  L 128.96 56.27
  A 0.54 0.53 69.7 0 1 128.41 56.01
  Q 127.35 54.22 125.29 53.76
  Q 123.49 53.36 125.31 53.06
  Q 125.95 52.95 126.59 53.01
  Q 127.83 53.14 127.01 52.21
  L 126.16 51.24
  Q 125.70 50.72 126.40 50.74
  L 126.80 50.75
  A 0.70 0.65 -20.6 0 1 127.24 50.93
  C 128.01 51.66 131.03 52.61 131.02 53.47
  A 0.52 0.52 0.0 0 1 130.53 53.99
  L 129.49 54.04
  Q 128.45 54.09 129.19 54.81
  Z"
/>
<path fill="#181615" d="
  M 53.00 74.21
  Q 53.17 72.17 54.84 71.07
  A 0.34 0.34 0.0 0 0 55.00 70.78
  L 55.01 70.50
  A 0.20 0.20 0.0 0 0 54.78 70.30
  L 53.29 70.53
  Q 52.59 70.64 52.85 69.97
  Q 53.33 68.74 51.67 68.32
  Q 53.74 63.67 58.02 59.53
  C 58.89 58.68 59.84 58.30 60.51 57.66
  Q 64.10 54.22 68.31 51.56
  A 0.62 0.61 51.9 0 1 69.08 51.66
  L 72.74 55.53
  A 0.43 0.43 0.0 0 1 72.65 56.19
  Q 61.48 62.95 54.52 74.02
  Q 54.07 74.73 53.00 74.21
  Z
  M 64.67 57.41
  Q 65.13 56.70 64.73 56.07
  Q 64.25 55.31 63.89 56.12
  Q 62.99 58.11 60.86 58.39
  A 0.47 0.47 0.0 0 0 60.50 59.07
  L 60.67 59.43
  A 0.51 0.50 -34.7 0 0 61.47 59.57
  Q 62.00 59.09 62.60 59.28
  A 0.42 0.41 -67.2 0 1 62.83 59.86
  Q 62.42 60.69 62.53 61.57
  Q 62.61 62.17 63.05 61.76
  L 66.51 58.48
  Q 67.04 57.99 66.31 57.99
  L 64.99 58.01
  Q 64.27 58.02 64.67 57.41
  Z"
/>
<path fill="#e5e0c1" d="
  M 107.75 54.79
  L 107.75 55.28
  A 1.00 0.99 -18.9 0 1 107.36 56.07
  C 105.04 57.79 102.76 60.11 100.26 61.23
  Q 91.12 65.29 81.43 62.03
  C 80.21 61.62 79.39 60.60 77.89 60.46
  A 0.44 0.44 0.0 0 1 77.49 60.07
  L 77.46 59.75
  Q 91.66 52.11 107.75 54.79
  Z"
/>
<path fill="#d9bfb3" d="
  M 107.75 54.79
  L 109.54 55.25
  Q 109.88 56.83 108.67 57.88
  Q 96.43 68.50 80.50 64.24
  Q 77.38 63.41 76.00 60.54
  L 77.46 59.75
  L 77.49 60.07
  A 0.44 0.44 0.0 0 0 77.89 60.46
  C 79.39 60.60 80.21 61.62 81.43 62.03
  Q 91.12 65.29 100.26 61.23
  C 102.76 60.11 105.04 57.79 107.36 56.07
  A 1.00 0.99 -18.9 0 0 107.75 55.28
  L 107.75 54.79
  Z"
/>
<path fill="#b49f91" d="
  M 109.54 55.25
  L 115.36 56.84
  Q 105.23 69.55 89.17 72.86
  L 86.03 70.13
  A 1.31 1.30 64.7 0 0 85.15 69.81
  L 72.50 69.97
  Q 71.71 69.98 72.27 70.55
  L 95.75 94.21
  L 94.96 95.50
  L 69.66 70.66
  Q 69.28 70.29 69.27 70.81
  L 68.95 81.05
  Q 66.07 77.14 65.26 72.40
  A 1.13 1.11 12.5 0 0 64.78 71.66
  L 63.75 70.96
  Q 68.89 64.60 76.00 60.54
  Q 77.38 63.41 80.50 64.24
  Q 96.43 68.50 108.67 57.88
  Q 109.88 56.83 109.54 55.25
  Z"
/>
<path fill="#1d6f59" d="
  M 64.99 58.01
  L 66.31 57.99
  Q 67.04 57.99 66.51 58.48
  L 63.05 61.76
  Q 62.61 62.17 62.53 61.57
  Q 62.42 60.69 62.83 59.86
  A 0.42 0.41 -67.2 0 0 62.60 59.28
  Q 62.00 59.09 61.47 59.57
  A 0.51 0.50 -34.7 0 1 60.67 59.43
  L 60.50 59.07
  A 0.47 0.47 0.0 0 1 60.86 58.39
  Q 62.99 58.11 63.89 56.12
  Q 64.25 55.31 64.73 56.07
  Q 65.13 56.70 64.67 57.41
  Q 64.27 58.02 64.99 58.01
  Z"
/>
<path fill="#8b817b" d="
  M 115.36 56.84
  Q 120.15 58.46 124.38 61.10
  Q 121.37 65.21 120.79 70.25
  L 120.71 74.25
  Q 120.06 73.53 119.41 73.81
  A 0.98 0.96 -7.2 0 0 118.85 74.52
  C 116.24 89.28 99.64 77.80 97.71 81.50
  L 89.17 72.86
  Q 105.23 69.55 115.36 56.84
  Z"
/>
<path fill="#3cecb7" d="
  M 140.50 62.85
  L 140.24 61.70
  A 0.57 0.56 -11.8 0 1 140.69 61.02
  C 140.90 60.99 143.36 64.05 144.12 64.57
  Q 145.00 65.16 143.94 65.27
  Q 143.25 65.34 142.72 64.97
  Q 142.05 64.51 142.03 65.32
  L 142.01 66.52
  Q 141.99 67.50 141.33 66.77
  L 138.35 63.52
  Q 137.81 62.93 138.60 63.03
  L 140.16 63.23
  A 0.31 0.31 0.0 0 0 140.50 62.85
  Z"
/>
<path fill="#b49f91" d="
  M 124.38 61.10
  L 129.25 64.46
  Q 127.51 67.09 127.00 70.21
  L 120.79 70.25
  Q 121.37 65.21 124.38 61.10
  Z"
/>
<path fill="#e5e0c1" d="
  M 129.25 64.46
  C 150.39 82.00 153.26 112.56 134.00 132.79
  Q 132.09 131.72 131.71 129.50
  L 130.70 71.01
  A 0.59 0.59 0.0 0 0 130.15 70.43
  L 127.00 70.21
  Q 127.51 67.09 129.25 64.46
  Z"
/>
<path fill="#3cecb7" d="
  M 51.67 68.32
  Q 53.33 68.74 52.85 69.97
  Q 52.59 70.64 53.29 70.53
  L 54.78 70.30
  A 0.20 0.20 0.0 0 1 55.01 70.50
  L 55.00 70.78
  A 0.34 0.34 0.0 0 1 54.84 71.07
  Q 53.17 72.17 53.00 74.21
  Q 52.79 74.50 52.49 74.46
  A 0.56 0.55 3.5 0 1 52.00 73.91
  L 52.00 72.76
  Q 52.01 71.79 51.35 72.49
  Q 50.62 73.27 49.66 73.23
  Q 48.88 73.20 49.46 72.68
  Q 51.41 70.92 51.67 68.32
  Z"
/>
<path fill="#2c2922" d="
  M 89.17 72.86
  L 97.71 81.50
  L 120.00 103.61
  Q 121.08 104.68 121.06 103.15
  L 120.71 74.25
  L 120.79 70.25
  L 127.00 70.21
  L 130.15 70.43
  A 0.59 0.59 0.0 0 1 130.70 71.01
  L 131.71 129.50
  L 124.79 123.00
  Q 110.74 108.13 95.75 94.21
  L 72.27 70.55
  Q 71.71 69.98 72.50 69.97
  L 85.15 69.81
  A 1.31 1.30 64.7 0 1 86.03 70.13
  L 89.17 72.86
  Z"
/>
<path fill="#3d3832" d="
  M 94.96 95.50
  Q 108.94 110.18 123.75 124.04
  L 128.80 129.27
  A 0.32 0.32 0.0 0 1 128.56 129.81
  L 114.29 129.50
  C 104.23 119.36 93.72 109.49 83.98 99.06
  Q 81.91 96.84 79.45 95.03
  A 0.27 0.27 0.0 0 0 79.02 95.25
  L 78.64 129.05
  A 0.45 0.44 -89.3 0 1 78.20 129.49
  L 68.94 129.56
  A 0.53 0.53 0.0 0 1 68.41 129.03
  L 68.46 113.75
  L 68.54 106.56
  L 68.71 98.25
  L 68.95 81.05
  L 69.27 70.81
  Q 69.28 70.29 69.66 70.66
  L 94.96 95.50
  Z"
/>
<path fill="#d9bfb3" d="
  M 63.75 70.96
  L 64.78 71.66
  A 1.13 1.11 12.5 0 1 65.26 72.40
  Q 66.07 77.14 68.95 81.05
  L 68.71 98.25
  C 63.22 96.12 61.69 83.46 60.31 78.40
  A 1.01 0.99 -88.5 0 0 59.67 77.71
  L 59.04 77.50
  L 60.00 75.59
  L 63.75 70.96
  Z"
/>
<path fill="#aaa29e" d="
  M 120.71 74.25
  L 121.06 103.15
  Q 121.08 104.68 120.00 103.61
  L 97.71 81.50
  C 99.64 77.80 116.24 89.28 118.85 74.52
  A 0.98 0.96 -7.2 0 1 119.41 73.81
  Q 120.06 73.53 120.71 74.25
  Z"
/>
<path fill="#3d3832" d="
  M 60.00 75.59
  L 59.04 77.50
  Q 57.15 80.25 56.25 83.46
  Q 54.43 86.73 54.00 90.46
  C 46.38 122.52 74.39 151.08 106.25 146.96
  L 113.50 145.54
  Q 110.59 149.35 106.37 151.65
  A 1.06 1.06 0.0 0 0 105.83 152.42
  L 105.75 152.96
  L 105.00 153.04
  Q 90.45 153.73 76.99 148.29
  Q 76.20 147.97 74.31 148.38
  Q 71.72 147.67 70.46 145.75
  C 67.98 143.11 64.86 141.43 62.56 138.64
  A 1.64 1.61 -11.3 0 0 61.75 138.11
  L 60.54 137.75
  Q 58.81 136.68 57.79 135.00
  L 57.66 133.00
  A 1.67 1.67 0.0 0 0 57.29 132.04
  Q 54.17 128.18 52.64 123.46
  A 1.30 1.28 4.0 0 0 51.96 122.69
  Q 51.14 122.29 50.81 123.11
  Q 48.35 121.67 49.53 119.38
  Q 49.05 114.31 48.08 109.26
  C 47.84 107.97 47.27 107.53 46.00 107.46
  Q 44.88 104.79 46.56 102.35
  Q 47.18 90.55 51.79 79.68
  A 1.24 1.22 89.6 0 1 52.44 79.01
  L 60.00 75.59
  Z"
/>
<path fill="#3cecb7" d="
  M 150.50 76.95
  L 150.54 75.56
  Q 150.59 74.00 151.45 75.30
  Q 152.10 76.26 152.00 77.42
  A 0.93 0.89 -66.1 0 0 152.26 78.13
  Q 152.95 78.82 153.27 79.73
  Q 153.83 81.33 152.58 80.19
  L 151.60 79.29
  Q 151.07 78.81 151.02 79.52
  Q 150.96 80.46 150.44 80.95
  Q 149.73 81.61 149.70 80.64
  Q 149.65 78.68 148.17 77.43
  Q 147.27 76.67 148.44 76.74
  Q 149.32 76.79 150.06 77.20
  A 0.30 0.30 0.0 0 0 150.50 76.95
  Z"
/>
<path fill="#f9e1d4" d="
  M 59.04 77.50
  L 59.67 77.71
  A 1.01 0.99 -88.5 0 1 60.31 78.40
  C 61.69 83.46 63.22 96.12 68.71 98.25
  L 68.54 106.56
  Q 64.57 107.13 62.88 104.05
  A 0.17 0.16 -35.8 0 1 62.92 103.85
  Q 63.07 103.73 63.18 103.79
  Q 63.27 103.83 63.24 103.75
  Q 58.95 93.94 58.22 86.30
  Q 57.95 83.57 56.25 83.46
  Q 57.15 80.25 59.04 77.50
  Z"
/>
<path fill="#fff9ee" d="
  M 68.54 106.56
  L 68.46 113.75
  L 68.21 113.20
  A 0.66 0.65 -18.6 0 0 67.45 112.83
  Q 65.37 113.33 63.81 114.84
  A 1.70 1.66 -70.8 0 1 62.89 115.30
  C 59.47 115.82 57.82 109.34 57.46 106.80
  C 56.69 101.20 56.42 95.86 54.00 90.46
  Q 54.43 86.73 56.25 83.46
  Q 57.95 83.57 58.22 86.30
  Q 58.95 93.94 63.24 103.75
  Q 63.27 103.83 63.18 103.79
  Q 63.07 103.73 62.92 103.85
  A 0.17 0.16 -35.8 0 0 62.88 104.05
  Q 64.57 107.13 68.54 106.56
  Z"
/>
<path fill="#3cecb7" d="
  M 46.34 86.14
  Q 46.65 85.72 47.19 85.43
  Q 48.89 84.51 47.85 86.14
  Q 46.75 87.88 46.92 89.99
  Q 47.02 91.23 46.31 90.21
  Q 45.85 89.55 45.75 88.78
  Q 45.65 87.97 45.07 88.55
  L 43.73 89.91
  Q 42.04 91.61 43.01 89.42
  Q 43.43 88.49 44.00 87.61
  A 0.99 0.98 -37.6 0 0 44.11 86.78
  Q 43.77 85.71 44.25 84.70
  Q 44.77 83.63 45.13 84.76
  L 45.52 86.01
  Q 45.79 86.88 46.34 86.14
  Z"
/>
<path fill="#ffffff" d="
  M 54.00 90.46
  C 56.42 95.86 56.69 101.20 57.46 106.80
  C 57.82 109.34 59.47 115.82 62.89 115.30
  A 1.70 1.66 -70.8 0 0 63.81 114.84
  Q 65.37 113.33 67.45 112.83
  A 0.66 0.65 -18.6 0 1 68.21 113.20
  L 68.46 113.75
  L 68.41 129.03
  A 0.53 0.53 0.0 0 0 68.94 129.56
  L 78.20 129.49
  A 0.45 0.44 -89.3 0 0 78.64 129.05
  L 79.02 95.25
  A 0.27 0.27 0.0 0 1 79.45 95.03
  Q 81.91 96.84 83.98 99.06
  C 93.72 109.49 104.23 119.36 114.29 129.50
  Q 115.59 129.95 117.00 129.74
  A 0.75 0.75 0.0 0 1 117.76 130.86
  L 114.18 136.97
  A 1.00 0.99 -78.0 0 1 113.45 137.45
  C 112.63 137.54 110.94 140.63 109.63 141.38
  A 1.76 1.71 88.0 0 0 108.94 142.14
  Q 108.19 143.76 106.53 144.16
  Q 106.08 144.27 105.74 144.58
  L 105.01 145.25
  A 0.45 0.45 0.0 0 0 105.14 145.99
  Q 105.92 146.32 106.25 146.96
  C 74.39 151.08 46.38 122.52 54.00 90.46
  Z"
/>
<path fill="#3cecb7" d="
  M 155.05 96.15
  C 154.99 96.61 154.31 98.18 153.72 97.65
  A 0.58 0.57 -55.6 0 1 153.59 96.94
  C 154.36 95.43 153.01 93.05 153.26 92.76
  A 0.56 0.55 -48.0 0 1 154.08 92.71
  L 154.88 93.50
  A 0.53 0.52 -54.9 0 0 155.72 93.35
  L 156.19 92.34
  A 0.22 0.21 -60.3 0 1 156.50 92.25
  L 156.74 92.38
  A 0.53 0.53 0.0 0 1 156.97 93.00
  C 156.52 94.32 157.77 97.03 157.20 97.41
  A 0.56 0.55 56.5 0 1 156.42 97.25
  L 155.62 96.03
  Q 155.17 95.32 155.05 96.15
  Z"
/>
<path fill="#ffffff" d="
  M 95.75 94.21
  Q 110.74 108.13 124.79 123.00
  Q 124.74 123.89 123.75 124.04
  Q 108.94 110.18 94.96 95.50
  L 95.75 94.21
  Z"
/>
<path fill="#3cecb7" d="
  M 46.56 102.35
  Q 44.88 104.79 46.00 107.46
  L 44.20 106.37
  A 0.41 0.40 -65.5 0 0 43.60 106.60
  Q 43.34 107.40 42.58 107.86
  Q 41.24 108.68 41.90 107.25
  Q 43.01 104.88 41.58 102.63
  Q 40.52 100.96 42.23 101.97
  Q 43.04 102.45 43.39 103.26
  Q 43.61 103.78 43.89 103.28
  Q 44.56 102.05 46.56 102.35
  Z"
/>
<path fill="#3cecb7" d="
  M 154.04 113.57
  Q 153.63 114.16 153.04 114.43
  Q 152.49 114.68 152.57 114.08
  L 153.14 109.65
  Q 153.30 108.40 153.88 109.52
  L 154.34 110.41
  A 0.66 0.66 0.0 0 0 155.19 110.72
  L 156.30 110.25
  A 0.36 0.36 0.0 0 1 156.80 110.54
  C 156.97 111.81 155.39 112.38 156.24 114.63
  A 0.36 0.36 0.0 0 1 156.09 115.06
  L 155.81 115.22
  A 0.36 0.36 0.0 0 1 155.28 115.03
  L 154.81 113.67
  Q 154.53 112.86 154.04 113.57
  Z"
/>
<path fill="#3cecb7" d="
  M 49.53 119.38
  Q 48.35 121.67 50.81 123.11
  Q 49.65 124.08 48.52 123.03
  Q 47.98 122.53 47.99 123.27
  L 48.00 124.62
  A 0.40 0.40 0.0 0 1 47.53 125.02
  C 47.32 124.98 47.19 124.80 47.17 124.59
  Q 46.93 122.45 45.27 120.95
  A 0.32 0.32 0.0 0 1 45.21 120.54
  L 45.38 120.26
  A 0.45 0.45 0.0 0 1 46.00 120.12
  L 47.30 120.94
  A 0.29 0.28 -71.8 0 0 47.73 120.72
  Q 47.88 119.14 49.53 119.38
  Z"
/>
<path fill="#aaa29e" d="
  M 124.79 123.00
  L 131.71 129.50
  Q 132.09 131.72 134.00 132.79
  Q 125.44 141.84 113.50 145.54
  L 106.25 146.96
  Q 105.92 146.32 105.14 145.99
  A 0.45 0.45 0.0 0 1 105.01 145.25
  L 105.74 144.58
  Q 106.08 144.27 106.53 144.16
  Q 108.19 143.76 108.94 142.14
  A 1.76 1.71 88.0 0 1 109.63 141.38
  C 110.94 140.63 112.63 137.54 113.45 137.45
  A 1.00 0.99 -78.0 0 0 114.18 136.97
  L 117.76 130.86
  A 0.75 0.75 0.0 0 0 117.00 129.74
  Q 115.59 129.95 114.29 129.50
  L 128.56 129.81
  A 0.32 0.32 0.0 0 0 128.80 129.27
  L 123.75 124.04
  Q 124.74 123.89 124.79 123.00
  Z"
/>
<path fill="#3cecb7" d="
  M 149.91 126.66
  L 150.90 126.04
  A 0.59 0.59 0.0 0 1 151.75 126.28
  C 151.93 126.68 149.95 128.73 149.81 129.88
  C 149.75 130.32 149.66 130.67 149.24 130.75
  A 0.40 0.39 83.9 0 1 148.77 130.37
  L 148.71 128.68
  Q 148.69 127.96 148.13 128.40
  Q 147.44 128.94 146.59 129.21
  Q 143.95 130.04 146.27 128.52
  Q 148.22 127.23 148.22 124.78
  Q 148.21 122.41 149.07 124.62
  Q 149.37 125.39 149.24 126.22
  Q 149.09 127.18 149.91 126.66
  Z"
/>
<path fill="#3cecb7" d="
  M 57.79 135.00
  Q 58.81 136.68 60.54 137.75
  Q 59.75 138.65 58.52 137.94
  Q 57.85 137.56 57.98 138.32
  L 58.25 139.91
  Q 58.43 140.93 57.75 140.14
  L 54.58 136.48
  Q 53.88 135.67 54.91 135.98
  L 56.54 136.47
  Q 57.29 136.70 57.02 135.96
  L 56.51 134.61
  A 0.41 0.41 0.0 0 1 56.94 134.05
  Q 57.68 134.13 57.79 135.00
  Z"
/>
<path fill="#181615" d="
  M 138.50 138.29
  Q 137.68 140.57 135.54 141.35
  A 0.73 0.72 -86.7 0 0 135.13 141.72
  L 135.02 141.95
  A 0.27 0.26 -78.5 0 0 135.27 142.33
  L 137.14 142.24
  Q 137.82 142.21 137.49 142.80
  Q 137.06 143.59 136.97 144.54
  Q 136.79 146.28 137.61 144.73
  Q 138.78 142.52 141.11 141.64
  L 141.27 143.17
  A 0.91 0.89 69.7 0 1 140.90 143.99
  C 129.85 152.08 120.99 157.72 107.02 159.55
  Q 106.39 159.64 105.89 160.02
  A 1.35 1.33 -63.3 0 1 105.03 160.31
  L 95.56 160.09
  A 0.49 0.49 0.0 0 1 95.10 159.49
  C 95.78 156.58 100.73 158.35 103.21 155.00
  L 104.76 156.31
  Q 105.21 156.69 104.64 156.82
  Q 103.70 157.03 103.28 157.79
  Q 102.90 158.49 103.69 158.40
  L 108.42 157.87
  Q 109.32 157.77 108.60 157.22
  Q 108.15 156.89 107.61 156.70
  A 0.44 0.44 0.0 0 1 107.40 156.02
  L 108.67 154.34
  A 0.23 0.23 0.0 0 0 108.41 153.98
  Q 105.29 155.07 104.00 154.21
  L 105.00 153.04
  L 105.75 152.96
  Q 123.67 150.69 136.64 138.34
  A 0.96 0.95 28.9 0 1 137.49 138.10
  L 138.50 138.29
  Z
  M 124.49 150.43
  L 125.02 149.36
  A 0.44 0.44 0.0 0 0 124.91 148.83
  C 124.66 148.62 124.35 148.75 124.14 149.00
  C 123.15 150.15 120.25 150.35 120.09 150.85
  A 0.61 0.60 13.0 0 0 120.59 151.64
  L 121.80 151.80
  A 0.45 0.44 18.1 0 1 122.13 152.45
  L 121.52 153.60
  A 0.44 0.44 0.0 0 0 121.88 154.25
  C 123.17 154.34 123.73 152.60 125.98 152.70
  A 0.68 0.68 0.0 0 0 126.51 151.55
  Q 125.88 150.90 124.79 150.91
  A 0.34 0.33 -77.1 0 1 124.49 150.43
  Z"
/>
<path fill="#1d6f59" d="
  M 138.50 138.29
  Q 138.91 138.22 139.13 138.48
  A 0.85 0.84 -55.0 0 1 139.28 139.36
  L 138.82 140.52
  Q 138.42 141.51 139.35 140.99
  Q 141.38 139.87 141.11 141.64
  Q 138.78 142.52 137.61 144.73
  Q 136.79 146.28 136.97 144.54
  Q 137.06 143.59 137.49 142.80
  Q 137.82 142.21 137.14 142.24
  L 135.27 142.33
  A 0.27 0.26 -78.5 0 1 135.02 141.95
  L 135.13 141.72
  A 0.73 0.72 -86.7 0 1 135.54 141.35
  Q 137.68 140.57 138.50 138.29
  Z"
/>
<path fill="#3cecb7" d="
  M 70.46 145.75
  Q 71.72 147.67 74.31 148.38
  Q 73.68 149.01 72.42 149.20
  Q 71.61 149.31 72.21 149.86
  Q 72.99 150.56 72.61 151.54
  Q 72.26 152.45 71.85 151.56
  Q 70.94 149.61 68.77 149.58
  A 0.82 0.81 81.9 0 1 67.99 148.99
  C 67.72 148.08 69.37 148.18 69.89 148.32
  Q 70.53 148.51 70.28 147.88
  L 69.70 146.45
  A 0.50 0.48 65.5 0 1 69.92 145.83
  Q 70.14 145.71 70.46 145.75
  Z"
/>
<path fill="#1d6f59" d="
  M 124.79 150.91
  Q 125.88 150.90 126.51 151.55
  A 0.68 0.68 0.0 0 1 125.98 152.70
  C 123.73 152.60 123.17 154.34 121.88 154.25
  A 0.44 0.44 0.0 0 1 121.52 153.60
  L 122.13 152.45
  A 0.45 0.44 18.1 0 0 121.80 151.80
  L 120.59 151.64
  A 0.61 0.60 13.0 0 1 120.09 150.85
  C 120.25 150.35 123.15 150.15 124.14 149.00
  C 124.35 148.75 124.66 148.62 124.91 148.83
  A 0.44 0.44 0.0 0 1 125.02 149.36
  L 124.49 150.43
  A 0.34 0.33 -77.1 0 0 124.79 150.91
  Z"
/>
<path fill="#1d6f59" d="
  M 89.17 155.80
  L 90.43 156.91
  A 0.39 0.39 0.0 0 1 90.36 157.55
  L 90.09 157.71
  A 0.49 0.48 48.7 0 1 89.55 157.67
  Q 87.78 156.34 85.52 156.96
  A 0.49 0.49 0.0 0 1 85.00 156.19
  Q 85.54 155.46 86.53 155.23
  Q 87.21 155.06 86.73 154.55
  L 85.94 153.72
  A 0.47 0.47 0.0 0 1 86.06 152.98
  C 86.23 152.89 88.99 154.07 90.29 153.73
  A 0.50 0.49 67.8 0 1 90.84 153.97
  L 90.99 154.22
  A 0.25 0.24 66.3 0 1 90.85 154.58
  L 89.34 155.02
  Q 88.54 155.25 89.17 155.80
  Z"
/>
<path fill="#1d6f59" d="
  M 103.21 155.00
  L 103.26 154.66
  A 0.47 0.47 0.0 0 1 103.66 154.26
  L 104.00 154.21
  Q 105.29 155.07 108.41 153.98
  A 0.23 0.23 0.0 0 1 108.67 154.34
  L 107.40 156.02
  A 0.44 0.44 0.0 0 0 107.61 156.70
  Q 108.15 156.89 108.60 157.22
  Q 109.32 157.77 108.42 157.87
  L 103.69 158.40
  Q 102.90 158.49 103.28 157.79
  Q 103.70 157.03 104.64 156.82
  Q 105.21 156.69 104.76 156.31
  L 103.21 155.00
  Z"
/>
</svg>
