<?xml version="1.0" encoding="UTF-8"?>
<!DOCTYPE svg PUBLIC "-//W3C//DTD SVG 1.1//EN" "http://www.w3.org/Graphics/SVG/1.1/DTD/svg11.dtd">
<svg xmlns="http://www.w3.org/2000/svg" version="1.1" width="200px" height="200px" style="shape-rendering:geometricPrecision; text-rendering:geometricPrecision; image-rendering:optimizeQuality; fill-rule:evenodd; clip-rule:evenodd" xmlns:xlink="http://www.w3.org/1999/xlink">
<g><path style="opacity:0.915" fill="#25221e" d="M 84.5,-0.5 C 85.5,-0.5 86.5,-0.5 87.5,-0.5C 87.8333,0.833333 88.1667,0.833333 88.5,-0.5C 94.5,-0.5 100.5,-0.5 106.5,-0.5C 106.833,0.833333 107.167,0.833333 107.5,-0.5C 108.5,-0.5 109.5,-0.5 110.5,-0.5C 139.557,4.03484 163.057,18.0348 181,41.5C 181.41,42.9007 181.91,44.234 182.5,45.5C 179.4,42.8327 176.4,39.9993 173.5,37C 174.833,36.3333 174.833,35.6667 173.5,35C 169.205,32.0539 164.872,29.0539 160.5,26C 158.188,23.6019 156.022,21.1019 154,18.5C 152.612,19.5536 151.112,19.7203 149.5,19C 146.64,16.6397 143.64,14.473 140.5,12.5C 139.143,14.1856 137.81,15.8523 136.5,17.5C 135.906,19.8553 134.906,22.022 133.5,24C 134.022,24.9503 134.689,25.7836 135.5,26.5C 133.955,27.4519 132.288,27.7852 130.5,27.5C 129.833,27.5 129.167,27.5 128.5,27.5C 125.785,25.9281 122.785,24.9281 119.5,24.5C 114.401,22.899 109.067,21.899 103.5,21.5C 102.5,21.5 101.5,21.5 100.5,21.5C 99.1667,21.5 97.8333,21.5 96.5,21.5C 96.1193,20.0689 95.1193,19.2355 93.5,19C 95.9368,17.6253 98.6035,17.1253 101.5,17.5C 108.258,17.8484 114.925,18.8484 121.5,20.5C 124.78,19.2207 127.113,16.8874 128.5,13.5C 120.706,10.2086 112.706,8.87525 104.5,9.5C 93.5043,8.08307 82.5043,8.9164 71.5,12C 69.5743,12.4224 68.5743,13.5891 68.5,15.5C 63.7132,14.9699 59.3798,16.1366 55.5,19C 51.8333,21.3333 48.1667,23.6667 44.5,26C 42.5359,27.451 41.2026,29.2843 40.5,31.5C 37.0406,32.436 34.2072,34.436 32,37.5C 21.4612,49.2442 14.6279,62.9108 11.5,78.5C 11.6667,79.1667 11.8333,79.8333 12,80.5C 12.2784,79.5842 12.7784,78.9175 13.5,78.5C 14.7927,79.6448 15.9593,79.3115 17,77.5C 17.2492,78.624 17.7492,79.624 18.5,80.5C 19.1698,78.7086 19.8365,77.0419 20.5,75.5C 20.4088,77.6977 21.0755,78.0311 22.5,76.5C 21.503,80.4879 20.503,84.4879 19.5,88.5C 13.2143,91.9583 10.0476,97.2916 10,104.5C 9.66667,102.5 9.33333,100.5 9,98.5C 8.66667,102.167 8.33333,105.833 8,109.5C 7.63171,105.15 7.13171,100.817 6.5,96.5C 7.48292,91.8575 7.64959,87.1908 7,82.5C 4.26883,84.4178 1.76883,86.4178 -0.5,88.5C -0.5,87.5 -0.5,86.5 -0.5,85.5C 4.5376,54.4255 20.8709,29.9255 48.5,12C 60.3439,6.18816 72.3439,2.02149 84.5,-0.5 Z"/></g>
<g><path style="opacity:1" fill="#0f0f0d" d="M 101.5,17.5 C 102.892,14.9933 103.892,12.3267 104.5,9.5C 112.706,8.87525 120.706,10.2086 128.5,13.5C 127.113,16.8874 124.78,19.2207 121.5,20.5C 114.925,18.8484 108.258,17.8484 101.5,17.5 Z"/></g>
<g><path style="opacity:1" fill="#0e6453" d="M 117.5,11.5 C 119.605,12.8679 121.939,13.8679 124.5,14.5C 123.624,15.2508 122.624,15.7508 121.5,16C 123.007,16.8373 123.507,18.0039 123,19.5C 120.948,18.2766 118.781,17.2766 116.5,16.5C 117.376,15.7492 118.376,15.2492 119.5,15C 117.061,14.4666 116.395,13.3 117.5,11.5 Z"/></g>
<g><path style="opacity:1" fill="#353228" d="M 104.5,9.5 C 103.892,12.3267 102.892,14.9933 101.5,17.5C 98.6035,17.1253 95.9368,17.6253 93.5,19C 95.1193,19.2355 96.1193,20.0689 96.5,21.5C 93.2869,21.19 90.2869,21.5233 87.5,22.5C 75.6238,24.1129 64.9571,28.4462 55.5,35.5C 54.8333,35.8333 54.1667,36.1667 53.5,36.5C 52.1667,37.1667 51.1667,38.1667 50.5,39.5C 50.1667,39.5 49.8333,39.5 49.5,39.5C 49.2965,37.6096 49.9632,36.1096 51.5,35C 49.82,35.7712 48.1533,35.6045 46.5,34.5C 47.4831,33.1497 48.8164,32.1497 50.5,31.5C 49.675,30.6143 48.675,30.281 47.5,30.5C 47.719,29.325 47.3857,28.325 46.5,27.5C 45.1136,29.7416 43.1136,31.0749 40.5,31.5C 41.2026,29.2843 42.5359,27.451 44.5,26C 48.1667,23.6667 51.8333,21.3333 55.5,19C 59.3798,16.1366 63.7132,14.9699 68.5,15.5C 68.5743,13.5891 69.5743,12.4224 71.5,12C 82.5043,8.9164 93.5043,8.08307 104.5,9.5 Z"/></g>
<g><path style="opacity:1" fill="#38cca8" d="M 68.5,15.5 C 70.9003,14.0728 71.567,14.5728 70.5,17C 71.5,17.8333 72.5,18.6667 73.5,19.5C 70.9703,20.1319 68.637,21.1319 66.5,22.5C 65.4063,21.132 65.7397,19.9653 67.5,19C 66.376,18.7508 65.376,18.2508 64.5,17.5C 65.9492,16.8281 67.2825,16.1614 68.5,15.5 Z"/></g>
<g><path style="opacity:1" fill="#31d2a8" d="M 90.5,11.5 C 92.6282,10.3709 94.9615,10.2042 97.5,11C 95.0122,12.6852 95.3455,14.0186 98.5,15C 95.8333,15.6667 93.1667,15.6667 90.5,15C 91.3279,14.0853 92.3279,13.4186 93.5,13C 92.4734,12.4867 91.4734,11.9867 90.5,11.5 Z"/></g>
<g><path style="opacity:1" fill="#383d34" d="M 136.5,17.5 C 148.215,22.1187 158.381,29.1187 167,38.5C 167.791,39.745 168.291,41.0783 168.5,42.5C 170.017,42.5106 171.184,43.1772 172,44.5C 175.643,49.4545 178.476,54.7878 180.5,60.5C 179.069,60.8807 178.236,61.8807 178,63.5C 175.553,62.0036 174.719,62.3369 175.5,64.5C 174.5,64.5 173.5,64.5 172.5,64.5C 172.617,62.5165 171.95,60.8498 170.5,59.5C 170.167,60.1667 169.833,60.8333 169.5,61.5C 170.937,63.5771 171.604,65.9105 171.5,68.5C 171.167,68.5 170.833,68.5 170.5,68.5C 170.34,66.847 169.674,65.5137 168.5,64.5C 163.642,54.1229 156.642,45.2896 147.5,38C 144.108,35.3063 140.441,33.1396 136.5,31.5C 134.819,29.9925 132.819,28.9925 130.5,28.5C 130.5,28.1667 130.5,27.8333 130.5,27.5C 132.288,27.7852 133.955,27.4519 135.5,26.5C 134.689,25.7836 134.022,24.9503 133.5,24C 134.906,22.022 135.906,19.8553 136.5,17.5 Z"/></g>
<g><path style="opacity:1" fill="#36dbda" d="M 142.5,21.5 C 144.522,23.4557 146.855,24.9557 149.5,26C 148.167,26.3333 146.833,26.6667 145.5,27C 146.517,28.0495 146.684,29.2161 146,30.5C 144.577,28.4961 142.744,26.9961 140.5,26C 141.624,25.7508 142.624,25.2508 143.5,24.5C 142.873,23.5832 142.539,22.5832 142.5,21.5 Z"/></g>
<g><path style="opacity:1" fill="#0e0f0e" d="M 40.5,31.5 C 41.7175,32.1614 43.0508,32.8281 44.5,33.5C 43.5337,35.8672 44.2004,36.5339 46.5,35.5C 44.9606,38.6108 42.4606,41.6108 39,44.5C 31.126,53.9141 25.626,64.5807 22.5,76.5C 21.0755,78.0311 20.4088,77.6977 20.5,75.5C 21.1885,72.3806 20.3552,72.0473 18,74.5C 17.1667,73.5 16.3333,72.5 15.5,71.5C 14.7251,73.8432 14.0584,76.1766 13.5,78.5C 12.7784,78.9175 12.2784,79.5842 12,80.5C 11.8333,79.8333 11.6667,79.1667 11.5,78.5C 14.6279,62.9108 21.4612,49.2442 32,37.5C 34.2072,34.436 37.0406,32.436 40.5,31.5 Z"/></g>
<g><path style="opacity:1" fill="#2bb18f" d="M 46.5,34.5 C 46.5,34.8333 46.5,35.1667 46.5,35.5C 44.2004,36.5339 43.5337,35.8672 44.5,33.5C 43.0508,32.8281 41.7175,32.1614 40.5,31.5C 43.1136,31.0749 45.1136,29.7416 46.5,27.5C 47.3857,28.325 47.719,29.325 47.5,30.5C 48.675,30.281 49.675,30.6143 50.5,31.5C 48.8164,32.1497 47.4831,33.1497 46.5,34.5 Z"/></g>
<g><path style="opacity:1" fill="#fbf4cb" d="M 87.5,22.5 C 89.8333,22.5 92.1667,22.5 94.5,22.5C 89.3915,25.7732 84.7249,29.6065 80.5,34C 72.1409,36.5211 63.8076,37.0211 55.5,35.5C 64.9571,28.4462 75.6238,24.1129 87.5,22.5 Z"/></g>
<g><path style="opacity:1" fill="#fcfcfb" d="M 136.5,31.5 C 140.441,33.1396 144.108,35.3063 147.5,38C 156.642,45.2896 163.642,54.1229 168.5,64.5C 161.31,65.4729 154.31,64.4729 147.5,61.5C 145.756,58.7523 143.423,56.7523 140.5,55.5C 140.5,51.8333 140.5,48.1667 140.5,44.5C 139.167,44.5 137.833,44.5 136.5,44.5C 135.689,39.9937 135.689,35.6604 136.5,31.5 Z"/></g>
<g><path style="opacity:1" fill="#fbfae4" d="M 130.5,28.5 C 132.819,28.9925 134.819,29.9925 136.5,31.5C 135.689,35.6604 135.689,39.9937 136.5,44.5C 134.833,44.5 133.167,44.5 131.5,44.5C 130.5,44.5 129.5,44.5 128.5,44.5C 127.398,40.2529 127.232,35.9196 128,31.5C 128.236,29.8807 129.069,28.8807 130.5,28.5 Z"/></g>
<g><path style="opacity:1" fill="#f8deb7" d="M 94.5,22.5 C 95.9778,22.238 97.3112,22.5713 98.5,23.5C 97.3128,24.5195 96.3128,25.6861 95.5,27C 88.346,32.577 80.346,36.577 71.5,39C 65.5092,39.4995 59.5092,39.6662 53.5,39.5C 53.5,38.5 53.5,37.5 53.5,36.5C 54.1667,36.1667 54.8333,35.8333 55.5,35.5C 63.8076,37.0211 72.1409,36.5211 80.5,34C 84.7249,29.6065 89.3915,25.7732 94.5,22.5 Z"/></g>
<g><path style="opacity:1" fill="#dfc5a2" d="M 87.5,22.5 C 90.2869,21.5233 93.2869,21.19 96.5,21.5C 97.8333,21.5 99.1667,21.5 100.5,21.5C 100.918,22.2216 101.584,22.7216 102.5,23C 95.9163,30.9209 87.9163,36.9209 78.5,41C 70.8333,41.6667 63.1667,41.6667 55.5,41C 53.6183,40.8019 51.9516,40.3019 50.5,39.5C 51.1667,38.1667 52.1667,37.1667 53.5,36.5C 53.5,37.5 53.5,38.5 53.5,39.5C 59.5092,39.6662 65.5092,39.4995 71.5,39C 80.346,36.577 88.346,32.577 95.5,27C 96.3128,25.6861 97.3128,24.5195 98.5,23.5C 97.3112,22.5713 95.9778,22.238 94.5,22.5C 92.1667,22.5 89.8333,22.5 87.5,22.5 Z"/></g>
<g><path style="opacity:1" fill="#aea991" d="M 119.5,24.5 C 122.785,24.9281 125.785,25.9281 128.5,27.5C 126.738,27.6427 125.071,27.3094 123.5,26.5C 120.982,28.185 118.982,30.3516 117.5,33C 113.47,45.9527 110.47,59.1193 108.5,72.5C 106.147,70.1401 104.147,67.4735 102.5,64.5C 104.402,50.6246 108.236,37.2912 114,24.5C 115.626,24.8541 117.459,24.8541 119.5,24.5 Z"/></g>
<g><path style="opacity:1" fill="#928774" d="M 103.5,21.5 C 109.067,21.899 114.401,22.899 119.5,24.5C 117.459,24.8541 115.626,24.8541 114,24.5C 108.236,37.2912 104.402,50.6246 102.5,64.5C 96.6977,57.8565 91.031,51.0232 85.5,44C 80.3165,43.8261 75.3165,43.3261 70.5,42.5C 80.9549,45.0575 88.9549,41.8909 94.5,33C 99.5617,31.1098 103.562,27.7765 106.5,23C 105.263,22.7679 104.263,22.2679 103.5,21.5 Z"/></g>
<g><path style="opacity:1" fill="#c2ad90" d="M 100.5,21.5 C 101.5,21.5 102.5,21.5 103.5,21.5C 104.263,22.2679 105.263,22.7679 106.5,23C 103.562,27.7765 99.5617,31.1098 94.5,33C 88.9549,41.8909 80.9549,45.0575 70.5,42.5C 67.4816,42.3354 64.4816,42.502 61.5,43C 62.056,43.3826 62.3893,43.8826 62.5,44.5C 62.38,45.5862 61.7133,46.2528 60.5,46.5C 59.1508,46.1543 57.8175,45.821 56.5,45.5C 56.1667,44.8333 55.8333,44.1667 55.5,43.5C 55.44,42.9569 55.1067,42.6236 54.5,42.5C 52.4775,44.1733 50.1441,44.8399 47.5,44.5C 47.5,43.5 47.5,42.5 47.5,41.5C 48.5,41.1667 49.1667,40.5 49.5,39.5C 49.8333,39.5 50.1667,39.5 50.5,39.5C 51.9516,40.3019 53.6183,40.8019 55.5,41C 63.1667,41.6667 70.8333,41.6667 78.5,41C 87.9163,36.9209 95.9163,30.9209 102.5,23C 101.584,22.7216 100.918,22.2216 100.5,21.5 Z"/></g>
<g><path style="opacity:1" fill="#3adad6" d="M 168.5,42.5 C 169.281,44.6631 168.447,44.9964 166,43.5C 165.667,44.8333 165.333,46.1667 165,47.5C 163.862,45.2083 162.362,43.2083 160.5,41.5C 160.938,40.4937 161.604,40.4937 162.5,41.5C 163.251,40.624 163.751,39.624 164,38.5C 164.876,40.6355 166.376,41.9688 168.5,42.5 Z"/></g>
<g><path style="opacity:1" fill="#cbc7ab" d="M 128.5,27.5 C 129.167,27.5 129.833,27.5 130.5,27.5C 130.5,27.8333 130.5,28.1667 130.5,28.5C 129.069,28.8807 128.236,29.8807 128,31.5C 127.232,35.9196 127.398,40.2529 128.5,44.5C 126.167,44.5 123.833,44.5 121.5,44.5C 121.829,59.3428 121.496,74.0095 120.5,88.5C 116.115,83.4495 112.115,78.1162 108.5,72.5C 110.47,59.1193 113.47,45.9527 117.5,33C 118.982,30.3516 120.982,28.185 123.5,26.5C 125.071,27.3094 126.738,27.6427 128.5,27.5 Z"/></g>
<g><path style="opacity:0.973" fill="#25241e" d="M 182.5,45.5 C 183.885,46.5736 185.051,47.9069 186,49.5C 193.059,62.5885 197.559,75.9218 199.5,89.5C 199.5,96.8333 199.5,104.167 199.5,111.5C 198.167,112.167 198.167,112.833 199.5,113.5C 199.5,114.167 199.5,114.833 199.5,115.5C 195.484,136.555 186.15,154.889 171.5,170.5C 171.103,169.475 170.437,169.308 169.5,170C 163.304,176.269 155.971,180.769 147.5,183.5C 146.5,183 145.5,182.5 144.5,182C 147.029,179.971 149.696,178.138 152.5,176.5C 151.643,175.575 150.643,174.908 149.5,174.5C 146.265,172.966 143.099,171.299 140,169.5C 112.483,183.342 85.3166,182.676 58.5,167.5C 57.8933,167.624 57.56,167.957 57.5,168.5C 56.0755,166.969 55.4088,167.302 55.5,169.5C 54.596,168.791 54.2627,167.791 54.5,166.5C 50.1539,166.334 45.8206,166.501 41.5,167C 45.5482,170.716 49.8815,174.05 54.5,177C 53.8333,177.333 53.1667,177.667 52.5,178C 53.5,178.833 54.5,179.667 55.5,180.5C 54.3595,181.425 54.3595,182.259 55.5,183C 52.3814,182.326 49.3814,182.493 46.5,183.5C 35.9038,176.904 26.9038,168.571 19.5,158.5C 19.8966,157.475 20.5632,157.308 21.5,158C 25.3595,161.96 29.5262,164.793 34,166.5C 34.4643,165.906 34.631,165.239 34.5,164.5C 43.2794,165.481 51.9461,165.481 60.5,164.5C 61.391,165.11 62.391,165.443 63.5,165.5C 65.1815,167.008 67.1815,168.008 69.5,168.5C 72.7966,170.601 76.4632,171.935 80.5,172.5C 86.4719,174.923 92.8053,175.923 99.5,175.5C 109.633,175.771 119.3,174.104 128.5,170.5C 131.574,169.698 134.574,168.698 137.5,167.5C 138.873,167.657 140.207,167.49 141.5,167C 147.719,163.729 153.719,160.229 159.5,156.5C 158.945,158.729 157.611,160.395 155.5,161.5C 156.325,162.386 157.325,162.719 158.5,162.5C 158.343,163.873 158.51,165.207 159,166.5C 160.309,164.024 162.142,162.024 164.5,160.5C 163.284,159.904 161.951,159.737 160.5,160C 161.337,158.989 161.67,157.822 161.5,156.5C 161.389,155.883 161.056,155.383 160.5,155C 164.86,151.028 168.86,146.861 172.5,142.5C 174.449,141.275 175.782,141.942 176.5,144.5C 177.187,142.445 178.354,140.779 180,139.5C 180.239,137.275 179.405,136.942 177.5,138.5C 176.614,137.675 176.281,136.675 176.5,135.5C 178.041,130.636 178.708,125.636 178.5,120.5C 179.5,120.5 180.5,120.5 181.5,120.5C 182.79,119.942 183.623,118.942 184,117.5C 184.667,118.833 185.333,120.167 186,121.5C 186.045,118.666 186.879,116.166 188.5,114C 186.806,112.272 185.639,112.772 185,115.5C 184.487,114.473 183.987,113.473 183.5,112.5C 183.217,111.711 182.717,111.044 182,110.5C 181.792,104.449 181.292,98.449 180.5,92.5C 180.994,90.9745 181.661,89.6412 182.5,88.5C 182.854,90.4804 183.187,92.4804 183.5,94.5C 184.333,93.5 185.167,92.5 186,91.5C 186.419,92.6721 187.085,93.6721 188,94.5C 188.073,91.8424 187.74,89.1757 187,86.5C 185.568,88.9312 184.068,88.9312 182.5,86.5C 181.35,87.8502 180.683,87.6836 180.5,86C 181.311,80.8384 181.311,75.8384 180.5,71C 180.978,69.6974 181.645,68.5307 182.5,67.5C 181.067,65.4418 180.4,63.1085 180.5,60.5C 178.476,54.7878 175.643,49.4545 172,44.5C 171.184,43.1772 170.017,42.5106 168.5,42.5C 168.291,41.0783 167.791,39.745 167,38.5C 158.381,29.1187 148.215,22.1187 136.5,17.5C 137.81,15.8523 139.143,14.1856 140.5,12.5C 143.64,14.473 146.64,16.6397 149.5,19C 151.112,19.7203 152.612,19.5536 154,18.5C 156.022,21.1019 158.188,23.6019 160.5,26C 164.872,29.0539 169.205,32.0539 173.5,35C 174.833,35.6667 174.833,36.3333 173.5,37C 176.4,39.9993 179.4,42.8327 182.5,45.5 Z"/></g>
<g><path style="opacity:1" fill="#114b41" d="M 26.5,46.5 C 28.045,47.2297 28.8784,48.563 29,50.5C 30.0495,49.4829 31.2161,49.3162 32.5,50C 30.578,51.4196 29.2446,53.2529 28.5,55.5C 27.7492,54.624 27.2492,53.624 27,52.5C 22.8739,53.8963 22.5406,53.2296 26,50.5C 26.49,49.2068 26.6567,47.8734 26.5,46.5 Z"/></g>
<g><path style="opacity:1" fill="#292622" d="M 55.5,43.5 C 55.8333,44.1667 56.1667,44.8333 56.5,45.5C 67.1982,59.8571 77.8648,74.1904 88.5,88.5C 92.1467,94.14 96.1467,99.4734 100.5,104.5C 111.5,119.833 122.5,135.167 133.5,150.5C 126.018,151.492 118.352,151.825 110.5,151.5C 108.823,149.46 107.156,147.46 105.5,145.5C 102.882,140.587 99.5484,136.254 95.5,132.5C 93.6563,128.808 91.3229,125.475 88.5,122.5C 85.4884,118.462 82.4884,114.462 79.5,110.5C 77.5,107.833 75.5,105.167 73.5,102.5C 71.4231,98.8523 68.7564,95.6856 65.5,93C 65.8333,92.6667 66.1667,92.3333 66.5,92C 62.6667,87.4987 58.8333,83.6654 55,80.5C 54.5002,69.8385 54.3335,59.1719 54.5,48.5C 54.2155,46.5853 54.5489,44.9187 55.5,43.5 Z"/></g>
<g><path style="opacity:1" fill="#35342c" d="M 128.5,44.5 C 129.5,44.5 130.5,44.5 131.5,44.5C 133.948,45.4731 136.615,45.8064 139.5,45.5C 139.175,52.6866 139.509,59.6866 140.5,66.5C 140.5,72.5 140.5,78.5 140.5,84.5C 139.676,80.6877 139.176,76.6877 139,72.5C 137.333,71.5 136,70.1667 135,68.5C 133.081,64.3174 131.414,59.984 130,55.5C 127.295,53.293 125.129,50.6263 123.5,47.5C 122.833,61.5 122.167,75.5 121.5,89.5C 120.893,89.3764 120.56,89.0431 120.5,88.5C 121.496,74.0095 121.829,59.3428 121.5,44.5C 123.833,44.5 126.167,44.5 128.5,44.5 Z"/></g>
<g><path style="opacity:1" fill="#929287" d="M 131.5,44.5 C 133.167,44.5 134.833,44.5 136.5,44.5C 137.833,44.5 139.167,44.5 140.5,44.5C 140.5,48.1667 140.5,51.8333 140.5,55.5C 140.5,58.5 140.5,61.5 140.5,64.5C 140.5,65.1667 140.5,65.8333 140.5,66.5C 139.509,59.6866 139.175,52.6866 139.5,45.5C 136.615,45.8064 133.948,45.4731 131.5,44.5 Z"/></g>
<g><path style="opacity:1" fill="#282520" d="M 70.5,42.5 C 75.3165,43.3261 80.3165,43.8261 85.5,44C 91.031,51.0232 96.6977,57.8565 102.5,64.5C 104.147,67.4735 106.147,70.1401 108.5,72.5C 112.115,78.1162 116.115,83.4495 120.5,88.5C 120.56,89.0431 120.893,89.3764 121.5,89.5C 122.167,75.5 122.833,61.5 123.5,47.5C 125.129,50.6263 127.295,53.293 130,55.5C 131.414,59.984 133.081,64.3174 135,68.5C 136,70.1667 137.333,71.5 139,72.5C 139.176,76.6877 139.676,80.6877 140.5,84.5C 145.167,84.5 149.833,84.5 154.5,84.5C 154.5,90.5 154.5,96.5 154.5,102.5C 149.833,102.5 145.167,102.5 140.5,102.5C 140.383,118.846 140.717,135.179 141.5,151.5C 128.178,133.538 114.845,115.538 101.5,97.5C 98.0776,92.3224 94.411,87.3224 90.5,82.5C 81.5209,69.5284 72.1876,56.8618 62.5,44.5C 62.3893,43.8826 62.056,43.3826 61.5,43C 64.4816,42.502 67.4816,42.3354 70.5,42.5 Z"/></g>
<g><path style="opacity:1" fill="#7b726a" d="M 62.5,44.5 C 72.1876,56.8618 81.5209,69.5284 90.5,82.5C 88.9261,84.1016 88.2594,86.1016 88.5,88.5C 77.8648,74.1904 67.1982,59.8571 56.5,45.5C 57.8175,45.821 59.1508,46.1543 60.5,46.5C 61.7133,46.2528 62.38,45.5862 62.5,44.5 Z"/></g>
<g><path style="opacity:1" fill="#2bb291" d="M 180.5,60.5 C 180.4,63.1085 181.067,65.4418 182.5,67.5C 180.201,66.0677 178.535,66.7344 177.5,69.5C 176.83,67.7086 176.163,66.0419 175.5,64.5C 174.719,62.3369 175.553,62.0036 178,63.5C 178.236,61.8807 179.069,60.8807 180.5,60.5 Z"/></g>
<g><path style="opacity:1" fill="#8c817c" d="M 47.5,41.5 C 47.5,42.5 47.5,43.5 47.5,44.5C 50.1441,44.8399 52.4775,44.1733 54.5,42.5C 55.1067,42.6236 55.44,42.9569 55.5,43.5C 54.5489,44.9187 54.2155,46.5853 54.5,48.5C 53.5093,54.979 53.176,61.6457 53.5,68.5C 52.2058,69.2899 51.0391,70.2899 50,71.5C 49.3086,69.1088 48.3086,69.1088 47,71.5C 46.6667,70.5 46.3333,69.5 46,68.5C 45.6667,68.8333 45.3333,69.1667 45,69.5C 43.8456,67.0426 42.5123,67.0426 41,69.5C 40.7787,66.0569 39.7787,65.7236 38,68.5C 37.4387,67.9781 36.772,67.6448 36,67.5C 32.6788,69.9882 29.5121,72.6549 26.5,75.5C 30.4699,62.2135 37.4699,50.8802 47.5,41.5 Z"/></g>
<g><path style="opacity:1" fill="#2b2a23" d="M 175.5,64.5 C 176.163,66.0419 176.83,67.7086 177.5,69.5C 178.535,66.7344 180.201,66.0677 182.5,67.5C 181.645,68.5307 180.978,69.6974 180.5,71C 181.311,75.8384 181.311,80.8384 180.5,86C 180.683,87.6836 181.35,87.8502 182.5,86.5C 182.5,87.1667 182.5,87.8333 182.5,88.5C 181.661,89.6412 180.994,90.9745 180.5,92.5C 181.292,98.449 181.792,104.449 182,110.5C 182.717,111.044 183.217,111.711 183.5,112.5C 182.926,114.788 181.926,116.955 180.5,119C 181.056,119.383 181.389,119.883 181.5,120.5C 180.5,120.5 179.5,120.5 178.5,120.5C 178.708,125.636 178.041,130.636 176.5,135.5C 175.099,137.583 173.432,139.583 171.5,141.5C 171.624,142.107 171.957,142.44 172.5,142.5C 168.86,146.861 164.86,151.028 160.5,155C 161.056,155.383 161.389,155.883 161.5,156.5C 160.833,156.5 160.167,156.5 159.5,156.5C 153.719,160.229 147.719,163.729 141.5,167C 140.207,167.49 138.873,167.657 137.5,167.5C 137.5,167.167 137.5,166.833 137.5,166.5C 141.457,164.527 145.124,162.194 148.5,159.5C 176.578,134.475 184.244,104.142 171.5,68.5C 171.604,65.9105 170.937,63.5771 169.5,61.5C 169.833,60.8333 170.167,60.1667 170.5,59.5C 171.95,60.8498 172.617,62.5165 172.5,64.5C 173.5,64.5 174.5,64.5 175.5,64.5 Z"/></g>
<g><path style="opacity:1" fill="#f9f9dd" d="M 140.5,55.5 C 143.423,56.7523 145.756,58.7523 147.5,61.5C 154.31,64.4729 161.31,65.4729 168.5,64.5C 169.674,65.5137 170.34,66.847 170.5,68.5C 168.932,69.8695 167.099,70.8695 165,71.5C 156.305,71.7778 148.138,69.4445 140.5,64.5C 140.5,61.5 140.5,58.5 140.5,55.5 Z"/></g>
<g><path style="opacity:1" fill="#1b615c" d="M 20.5,75.5 C 19.8365,77.0419 19.1698,78.7086 18.5,80.5C 17.7492,79.624 17.2492,78.624 17,77.5C 15.9593,79.3115 14.7927,79.6448 13.5,78.5C 14.0584,76.1766 14.7251,73.8432 15.5,71.5C 16.3333,72.5 17.1667,73.5 18,74.5C 20.3552,72.0473 21.1885,72.3806 20.5,75.5 Z"/></g>
<g><path style="opacity:1" fill="#a49c9c" d="M 53.5,68.5 C 53.5,73.5 53.5,78.5 53.5,83.5C 48.3814,82.8969 43.7147,83.5636 39.5,85.5C 38.7321,84.7375 38.2321,83.7375 38,82.5C 37.3109,83.3567 36.4776,84.0233 35.5,84.5C 34.3044,84.1543 34.3044,83.6543 35.5,83C 34.2161,82.3162 33.0495,82.4829 32,83.5C 31.6924,82.6919 31.1924,82.0253 30.5,81.5C 28.7567,83.0383 26.7567,84.0383 24.5,84.5C 24.6997,81.3704 25.3664,78.3704 26.5,75.5C 29.5121,72.6549 32.6788,69.9882 36,67.5C 36.772,67.6448 37.4387,67.9781 38,68.5C 39.7787,65.7236 40.7787,66.0569 41,69.5C 42.5123,67.0426 43.8456,67.0426 45,69.5C 45.3333,69.1667 45.6667,68.8333 46,68.5C 46.3333,69.5 46.6667,70.5 47,71.5C 48.3086,69.1088 49.3086,69.1088 50,71.5C 51.0391,70.2899 52.2058,69.2899 53.5,68.5 Z"/></g>
<g><path style="opacity:1" fill="#ded8b8" d="M 140.5,64.5 C 148.138,69.4445 156.305,71.7778 165,71.5C 167.099,70.8695 168.932,69.8695 170.5,68.5C 170.833,68.5 171.167,68.5 171.5,68.5C 184.244,104.142 176.578,134.475 148.5,159.5C 146.456,158.969 144.789,157.802 143.5,156C 143.833,155.667 144.167,155.333 144.5,155C 143.364,153.855 142.364,152.688 141.5,151.5C 140.717,135.179 140.383,118.846 140.5,102.5C 145.167,102.5 149.833,102.5 154.5,102.5C 154.5,96.5 154.5,90.5 154.5,84.5C 149.833,84.5 145.167,84.5 140.5,84.5C 140.5,78.5 140.5,72.5 140.5,66.5C 140.5,65.8333 140.5,65.1667 140.5,64.5 Z"/></g>
<g><path style="opacity:1" fill="#393633" d="M 54.5,48.5 C 54.3335,59.1719 54.5002,69.8385 55,80.5C 58.8333,83.6654 62.6667,87.4987 66.5,92C 66.1667,92.3333 65.8333,92.6667 65.5,93C 68.7564,95.6856 71.4231,98.8523 73.5,102.5C 71.5223,113.451 70.8556,124.784 71.5,136.5C 71.5,140.167 71.5,143.833 71.5,147.5C 71.5,148.833 71.5,150.167 71.5,151.5C 67.8333,151.5 64.1667,151.5 60.5,151.5C 58.6774,150.507 57.3441,149.007 56.5,147C 60.2134,132.779 60.3801,118.612 57,104.5C 56.5348,103.069 55.7014,101.903 54.5,101C 49.3664,98.4332 44.3664,95.9332 39.5,93.5C 39.5,90.8333 39.5,88.1667 39.5,85.5C 43.7147,83.5636 48.3814,82.8969 53.5,83.5C 53.5,78.5 53.5,73.5 53.5,68.5C 53.176,61.6457 53.5093,54.979 54.5,48.5 Z"/></g>
<g><path style="opacity:1" fill="#239c7f" d="M 182.5,86.5 C 184.068,88.9312 185.568,88.9312 187,86.5C 187.74,89.1757 188.073,91.8424 188,94.5C 187.085,93.6721 186.419,92.6721 186,91.5C 185.167,92.5 184.333,93.5 183.5,94.5C 183.187,92.4804 182.854,90.4804 182.5,88.5C 182.5,87.8333 182.5,87.1667 182.5,86.5 Z"/></g>
<g><path style="opacity:1" fill="#fcfbfc" d="M 39.5,101.5 C 41.8333,101.5 44.1667,101.5 46.5,101.5C 48.2646,102.461 50.2646,102.795 52.5,102.5C 52.5,117.167 52.5,131.833 52.5,146.5C 52.5,148.167 52.5,149.833 52.5,151.5C 57.3489,152.166 62.3489,152.833 67.5,153.5C 64.9944,158.419 60.9944,160.752 55.5,160.5C 51.8781,158.213 48.5448,155.547 45.5,152.5C 40.7523,147.094 36.4189,141.427 32.5,135.5C 25.7156,122.357 22.7156,108.357 23.5,93.5C 23.5,92.8333 23.5,92.1667 23.5,91.5C 24.2696,89.7014 25.603,88.3681 27.5,87.5C 29.0478,89.9224 30.7145,89.9224 32.5,87.5C 33.1924,88.0253 33.6924,88.6919 34,89.5C 35.1545,88.2567 36.4878,87.2567 38,86.5C 38.1739,91.6835 38.6739,96.6835 39.5,101.5 Z"/></g>
<g><path style="opacity:1" fill="#979184" d="M 90.5,82.5 C 94.411,87.3224 98.0776,92.3224 101.5,97.5C 99.2576,99.4519 98.9243,101.785 100.5,104.5C 96.1467,99.4734 92.1467,94.14 88.5,88.5C 88.2594,86.1016 88.9261,84.1016 90.5,82.5 Z"/></g>
<g><path style="opacity:1" fill="#cfc9ca" d="M 39.5,85.5 C 39.5,88.1667 39.5,90.8333 39.5,93.5C 39.5,96.1667 39.5,98.8333 39.5,101.5C 38.6739,96.6835 38.1739,91.6835 38,86.5C 36.4878,87.2567 35.1545,88.2567 34,89.5C 33.6924,88.6919 33.1924,88.0253 32.5,87.5C 30.7145,89.9224 29.0478,89.9224 27.5,87.5C 25.603,88.3681 24.2696,89.7014 23.5,91.5C 23.448,89.0971 23.7814,86.7638 24.5,84.5C 26.7567,84.0383 28.7567,83.0383 30.5,81.5C 31.1924,82.0253 31.6924,82.6919 32,83.5C 33.0495,82.4829 34.2161,82.3162 35.5,83C 34.3044,83.6543 34.3044,84.1543 35.5,84.5C 36.4776,84.0233 37.3109,83.3567 38,82.5C 38.2321,83.7375 38.7321,84.7375 39.5,85.5 Z"/></g>
<g><path style="opacity:1" fill="#cccbcb" d="M 46.5,101.5 C 48.8333,101.5 51.1667,101.5 53.5,101.5C 53.8294,116.676 53.4961,131.676 52.5,146.5C 52.5,131.833 52.5,117.167 52.5,102.5C 50.2646,102.795 48.2646,102.461 46.5,101.5 Z"/></g>
<g><path style="opacity:0.896" fill="#2e2c2a" d="M 46.5,35.5 C 46.5,35.1667 46.5,34.8333 46.5,34.5C 48.1533,35.6045 49.82,35.7712 51.5,35C 49.9632,36.1096 49.2965,37.6096 49.5,39.5C 49.1667,40.5 48.5,41.1667 47.5,41.5C 37.4699,50.8802 30.4699,62.2135 26.5,75.5C 25.3664,78.3704 24.6997,81.3704 24.5,84.5C 23.0013,87.0473 21.5013,89.714 20,92.5C 19.6667,95.5 19.3333,98.5 19,101.5C 18.7508,100.376 18.2508,99.376 17.5,98.5C 16.8933,98.6236 16.56,98.9569 16.5,99.5C 15.2379,102.071 13.9045,102.071 12.5,99.5C 12.1667,100 11.8333,100.5 11.5,101C 12.7201,103.17 12.7201,105.337 11.5,107.5C 12.3984,108.158 13.3984,108.824 14.5,109.5C 13.9062,112.83 13.2396,116.164 12.5,119.5C 11.3591,116.938 10.5257,114.272 10,111.5C 10,114.833 10,118.167 10,121.5C 9.33333,118.833 8.66667,116.167 8,113.5C 4.52227,129.878 9.8556,142.544 24,151.5C 26.9547,156.287 30.4547,160.62 34.5,164.5C 34.631,165.239 34.4643,165.906 34,166.5C 29.5262,164.793 25.3595,161.96 21.5,158C 20.5632,157.308 19.8966,157.475 19.5,158.5C 15.4253,153.614 11.9253,148.28 9,142.5C 5.78289,135.471 3.28289,128.471 1.5,121.5C 0.868562,119.522 0.868562,117.355 1.5,115C 0.934056,114.005 0.267389,113.172 -0.5,112.5C -0.5,111.833 -0.5,111.167 -0.5,110.5C 0.833333,109.833 0.833333,109.167 -0.5,108.5C -0.5,102.5 -0.5,96.5 -0.5,90.5C 0.833333,90.1667 0.833333,89.8333 -0.5,89.5C -0.5,89.1667 -0.5,88.8333 -0.5,88.5C 1.76883,86.4178 4.26883,84.4178 7,82.5C 7.64959,87.1908 7.48292,91.8575 6.5,96.5C 7.13171,100.817 7.63171,105.15 8,109.5C 8.33333,105.833 8.66667,102.167 9,98.5C 9.33333,100.5 9.66667,102.5 10,104.5C 10.0476,97.2916 13.2143,91.9583 19.5,88.5C 20.503,84.4879 21.503,80.4879 22.5,76.5C 25.626,64.5807 31.126,53.9141 39,44.5C 42.4606,41.6108 44.9606,38.6108 46.5,35.5 Z"/></g>
<g><path style="opacity:1" fill="#36c4c7" d="M 16.5,99.5 C 17.2663,101.684 17.9329,104.018 18.5,106.5C 16.6745,107.571 15.5079,106.904 15,104.5C 14.5776,106.426 13.4109,107.426 11.5,107.5C 12.7201,105.337 12.7201,103.17 11.5,101C 11.8333,100.5 12.1667,100 12.5,99.5C 13.9045,102.071 15.2379,102.071 16.5,99.5 Z"/></g>
<g><path style="opacity:1" fill="#676664" d="M 23.5,93.5 C 22.7156,108.357 25.7156,122.357 32.5,135.5C 30.9699,134.789 29.6366,133.789 28.5,132.5C 25.9878,127.653 23.6545,122.653 21.5,117.5C 20.5991,121.047 19.2658,124.38 17.5,127.5C 16.6618,127.842 16.3284,128.508 16.5,129.5C 16.5,130.5 16.5,131.5 16.5,132.5C 15.3659,130.034 15.1993,127.367 16,124.5C 17.5406,120.988 19.3739,117.655 21.5,114.5C 22.4933,109.88 22.8266,105.214 22.5,100.5C 22.1984,97.9407 22.5318,95.6074 23.5,93.5 Z"/></g>
<g><path style="opacity:1" fill="#383836" d="M 24.5,84.5 C 23.7814,86.7638 23.448,89.0971 23.5,91.5C 23.5,92.1667 23.5,92.8333 23.5,93.5C 22.5318,95.6074 22.1984,97.9407 22.5,100.5C 20.78,102.658 19.9467,105.325 20,108.5C 18.0879,110.657 16.4213,112.991 15,115.5C 13.874,120.898 13.374,126.232 13.5,131.5C 15.8035,137.44 18.6368,143.107 22,148.5C 22.3333,147.833 22.6667,147.167 23,146.5C 25.0808,150.084 27.9141,152.751 31.5,154.5C 33.8116,155.478 35.4782,157.145 36.5,159.5C 37.731,158.349 37.731,157.183 36.5,156C 37.549,155.508 38.549,155.674 39.5,156.5C 40.2975,156.043 40.6309,155.376 40.5,154.5C 41.5981,153.603 41.5981,152.77 40.5,152C 42.1966,151.616 43.8632,151.782 45.5,152.5C 48.5448,155.547 51.8781,158.213 55.5,160.5C 56.8993,161.89 58.5659,162.89 60.5,163.5C 60.5,163.833 60.5,164.167 60.5,164.5C 51.9461,165.481 43.2794,165.481 34.5,164.5C 30.4547,160.62 26.9547,156.287 24,151.5C 9.8556,142.544 4.52227,129.878 8,113.5C 8.66667,116.167 9.33333,118.833 10,121.5C 10,118.167 10,114.833 10,111.5C 10.5257,114.272 11.3591,116.938 12.5,119.5C 13.2396,116.164 13.9062,112.83 14.5,109.5C 13.3984,108.824 12.3984,108.158 11.5,107.5C 13.4109,107.426 14.5776,106.426 15,104.5C 15.5079,106.904 16.6745,107.571 18.5,106.5C 17.9329,104.018 17.2663,101.684 16.5,99.5C 16.56,98.9569 16.8933,98.6236 17.5,98.5C 18.2508,99.376 18.7508,100.376 19,101.5C 19.3333,98.5 19.6667,95.5 20,92.5C 21.5013,89.714 23.0013,87.0473 24.5,84.5 Z"/></g>
<g><path style="opacity:1" fill="#27a989" d="M 183.5,112.5 C 183.987,113.473 184.487,114.473 185,115.5C 185.639,112.772 186.806,112.272 188.5,114C 186.879,116.166 186.045,118.666 186,121.5C 185.333,120.167 184.667,118.833 184,117.5C 183.623,118.942 182.79,119.942 181.5,120.5C 181.389,119.883 181.056,119.383 180.5,119C 181.926,116.955 182.926,114.788 183.5,112.5 Z"/></g>
<g><path style="opacity:1" fill="#4a4745" d="M 39.5,93.5 C 44.3664,95.9332 49.3664,98.4332 54.5,101C 55.7014,101.903 56.5348,103.069 57,104.5C 60.3801,118.612 60.2134,132.779 56.5,147C 57.3441,149.007 58.6774,150.507 60.5,151.5C 57.8333,151.5 55.1667,151.5 52.5,151.5C 52.5,149.833 52.5,148.167 52.5,146.5C 53.4961,131.676 53.8294,116.676 53.5,101.5C 51.1667,101.5 48.8333,101.5 46.5,101.5C 44.1667,101.5 41.8333,101.5 39.5,101.5C 39.5,98.8333 39.5,96.1667 39.5,93.5 Z"/></g>
<g><path style="opacity:1" fill="#f7f4f5" d="M 71.5,147.5 C 71.5,143.833 71.5,140.167 71.5,136.5C 72.3297,127.676 72.8297,118.676 73,109.5C 74.6196,111.241 76.1196,113.075 77.5,115C 77.5,117.667 77.5,120.333 77.5,123C 79.8155,125.476 79.4822,127.809 76.5,130C 76.5,132.333 76.5,134.667 76.5,137C 74.0266,138.402 74.0266,139.902 76.5,141.5C 74.8149,143.571 73.1482,145.571 71.5,147.5 Z"/></g>
<g><path style="opacity:1" fill="#6ce7f1" d="M 16.5,129.5 C 16.3284,128.508 16.6618,127.842 17.5,127.5C 18.4584,127.953 19.2917,128.619 20,129.5C 20.2896,127.956 20.9563,126.623 22,125.5C 22.1308,128.371 23.2975,130.705 25.5,132.5C 24.132,133.594 22.9653,133.26 22,131.5C 21.7811,132.938 21.2811,134.271 20.5,135.5C 20.0248,132.845 18.6915,130.845 16.5,129.5 Z"/></g>
<g><path style="opacity:1" fill="#7f8484" d="M 28.5,132.5 C 29.1495,134.435 29.4828,136.435 29.5,138.5C 25.1059,138.969 21.1059,137.969 17.5,135.5C 16.8728,134.583 16.5394,133.583 16.5,132.5C 16.5,131.5 16.5,130.5 16.5,129.5C 18.6915,130.845 20.0248,132.845 20.5,135.5C 21.2811,134.271 21.7811,132.938 22,131.5C 22.9653,133.26 24.132,133.594 25.5,132.5C 23.2975,130.705 22.1308,128.371 22,125.5C 20.9563,126.623 20.2896,127.956 20,129.5C 19.2917,128.619 18.4584,127.953 17.5,127.5C 19.2658,124.38 20.5991,121.047 21.5,117.5C 23.6545,122.653 25.9878,127.653 28.5,132.5 Z"/></g>
<g><path style="opacity:1" fill="#2ac8a7" d="M 176.5,135.5 C 176.281,136.675 176.614,137.675 177.5,138.5C 179.405,136.942 180.239,137.275 180,139.5C 178.354,140.779 177.187,142.445 176.5,144.5C 175.782,141.942 174.449,141.275 172.5,142.5C 171.957,142.44 171.624,142.107 171.5,141.5C 173.432,139.583 175.099,137.583 176.5,135.5 Z"/></g>
<g><path style="opacity:1" fill="#c4bda2" d="M 101.5,97.5 C 114.845,115.538 128.178,133.538 141.5,151.5C 142.364,152.688 143.364,153.855 144.5,155C 144.167,155.333 143.833,155.667 143.5,156C 144.789,157.802 146.456,158.969 148.5,159.5C 145.124,162.194 141.457,164.527 137.5,166.5C 133.769,164.934 130.436,162.767 127.5,160C 127.833,159.667 128.167,159.333 128.5,159C 126.026,158.887 124.026,157.887 122.5,156C 122.833,155.667 123.167,155.333 123.5,155C 121.5,154.333 119.5,153.667 117.5,153C 123.196,152.83 128.862,152.33 134.5,151.5C 134.376,150.893 134.043,150.56 133.5,150.5C 122.5,135.167 111.5,119.833 100.5,104.5C 98.9243,101.785 99.2576,99.4519 101.5,97.5 Z"/></g>
<g><path style="opacity:1" fill="#4f504f" d="M 22.5,100.5 C 22.8266,105.214 22.4933,109.88 21.5,114.5C 19.3739,117.655 17.5406,120.988 16,124.5C 15.1993,127.367 15.3659,130.034 16.5,132.5C 16.5394,133.583 16.8728,134.583 17.5,135.5C 21.1059,137.969 25.1059,138.969 29.5,138.5C 29.4828,136.435 29.1495,134.435 28.5,132.5C 29.6366,133.789 30.9699,134.789 32.5,135.5C 36.4189,141.427 40.7523,147.094 45.5,152.5C 43.8632,151.782 42.1966,151.616 40.5,152C 41.5981,152.77 41.5981,153.603 40.5,154.5C 38.1884,153.522 36.5218,151.855 35.5,149.5C 34.269,150.651 34.269,151.817 35.5,153C 34.451,153.492 33.451,153.326 32.5,152.5C 31.7025,152.957 31.3691,153.624 31.5,154.5C 27.9141,152.751 25.0808,150.084 23,146.5C 22.6667,147.167 22.3333,147.833 22,148.5C 18.6368,143.107 15.8035,137.44 13.5,131.5C 13.374,126.232 13.874,120.898 15,115.5C 16.4213,112.991 18.0879,110.657 20,108.5C 19.9467,105.325 20.78,102.658 22.5,100.5 Z"/></g>
<g><path style="opacity:1" fill="#c7c3c4" d="M 79.5,110.5 C 82.4884,114.462 85.4884,118.462 88.5,122.5C 88.0472,123.458 87.3805,124.292 86.5,125C 87.2065,126.91 88.2065,128.91 89.5,131C 89.5,132.333 89.5,133.667 89.5,135C 87.6063,136.079 87.273,137.413 88.5,139C 85.4296,140.962 83.9296,143.462 84,146.5C 79.6004,150.967 75.9338,155.967 73,161.5C 72.3333,162.833 71.6667,162.833 71,161.5C 70.0853,162.328 69.4186,163.328 69,164.5C 68.6667,164.167 68.3333,163.833 68,163.5C 66.5295,164.267 65.0295,164.933 63.5,165.5C 62.391,165.443 61.391,165.11 60.5,164.5C 60.5,164.167 60.5,163.833 60.5,163.5C 62.1992,163.66 63.8659,163.494 65.5,163C 70.5897,157.756 75.5897,151.756 80.5,145C 79.9491,143.602 79.6158,142.268 79.5,141C 82.7637,138.943 83.4304,136.61 81.5,134C 83.9772,132.295 85.3106,130.295 85.5,128C 83.8211,125.028 83.4878,122.361 84.5,120C 82.316,117.984 80.316,115.817 78.5,113.5C 79.1272,112.583 79.4606,111.583 79.5,110.5 Z"/></g>
<g><path style="opacity:1" fill="#8f8a88" d="M 95.5,132.5 C 99.5484,136.254 102.882,140.587 105.5,145.5C 105.657,146.873 105.49,148.207 105,149.5C 104.667,149.167 104.333,148.833 104,148.5C 98.2882,154.249 93.2882,160.582 89,167.5C 86.5215,167.589 84.6882,169.089 83.5,172C 82.552,172.483 81.552,172.649 80.5,172.5C 76.4632,171.935 72.7966,170.601 69.5,168.5C 71.6791,166.836 73.5125,167.17 75,169.5C 75.4419,167.321 76.4419,166.655 78,167.5C 81.6667,162.5 85.3333,157.5 89,152.5C 89.6172,151.551 89.4506,150.718 88.5,150C 90.3513,148.316 92.018,146.483 93.5,144.5C 93.2907,143.914 92.9574,143.414 92.5,143C 93.6872,141.981 94.6872,140.814 95.5,139.5C 94.5729,137.378 94.5729,135.045 95.5,132.5 Z"/></g>
<g><path style="opacity:1" fill="#a7a3a3" d="M 88.5,122.5 C 91.3229,125.475 93.6563,128.808 95.5,132.5C 94.5729,135.045 94.5729,137.378 95.5,139.5C 94.6872,140.814 93.6872,141.981 92.5,143C 92.9574,143.414 93.2907,143.914 93.5,144.5C 92.018,146.483 90.3513,148.316 88.5,150C 89.4506,150.718 89.6172,151.551 89,152.5C 85.3333,157.5 81.6667,162.5 78,167.5C 76.4419,166.655 75.4419,167.321 75,169.5C 73.5125,167.17 71.6791,166.836 69.5,168.5C 67.1815,168.008 65.1815,167.008 63.5,165.5C 65.0295,164.933 66.5295,164.267 68,163.5C 68.3333,163.833 68.6667,164.167 69,164.5C 69.4186,163.328 70.0853,162.328 71,161.5C 71.6667,162.833 72.3333,162.833 73,161.5C 75.9338,155.967 79.6004,150.967 84,146.5C 83.9296,143.462 85.4296,140.962 88.5,139C 87.273,137.413 87.6063,136.079 89.5,135C 89.5,133.667 89.5,132.333 89.5,131C 88.2065,128.91 87.2065,126.91 86.5,125C 87.3805,124.292 88.0472,123.458 88.5,122.5 Z"/></g>
<g><path style="opacity:1" fill="#3ed8e2" d="M 40.5,154.5 C 40.6309,155.376 40.2975,156.043 39.5,156.5C 38.549,155.674 37.549,155.508 36.5,156C 37.731,157.183 37.731,158.349 36.5,159.5C 35.4782,157.145 33.8116,155.478 31.5,154.5C 31.3691,153.624 31.7025,152.957 32.5,152.5C 33.451,153.326 34.451,153.492 35.5,153C 34.269,151.817 34.269,150.651 35.5,149.5C 36.5218,151.855 38.1884,153.522 40.5,154.5 Z"/></g>
<g><path style="opacity:1" fill="#e1ddde" d="M 73.5,102.5 C 75.5,105.167 77.5,107.833 79.5,110.5C 79.4606,111.583 79.1272,112.583 78.5,113.5C 80.316,115.817 82.316,117.984 84.5,120C 83.4878,122.361 83.8211,125.028 85.5,128C 85.3106,130.295 83.9772,132.295 81.5,134C 83.4304,136.61 82.7637,138.943 79.5,141C 79.6158,142.268 79.9491,143.602 80.5,145C 75.5897,151.756 70.5897,157.756 65.5,163C 63.8659,163.494 62.1992,163.66 60.5,163.5C 58.5659,162.89 56.8993,161.89 55.5,160.5C 60.9944,160.752 64.9944,158.419 67.5,153.5C 62.3489,152.833 57.3489,152.166 52.5,151.5C 55.1667,151.5 57.8333,151.5 60.5,151.5C 64.1667,151.5 67.8333,151.5 71.5,151.5C 71.5,150.167 71.5,148.833 71.5,147.5C 73.1482,145.571 74.8149,143.571 76.5,141.5C 74.0266,139.902 74.0266,138.402 76.5,137C 76.5,134.667 76.5,132.333 76.5,130C 79.4822,127.809 79.8155,125.476 77.5,123C 77.5,120.333 77.5,117.667 77.5,115C 76.1196,113.075 74.6196,111.241 73,109.5C 72.8297,118.676 72.3297,127.676 71.5,136.5C 70.8556,124.784 71.5223,113.451 73.5,102.5 Z"/></g>
<g><path style="opacity:1" fill="#8f8979" d="M 133.5,150.5 C 134.043,150.56 134.376,150.893 134.5,151.5C 128.862,152.33 123.196,152.83 117.5,153C 119.5,153.667 121.5,154.333 123.5,155C 123.167,155.333 122.833,155.667 122.5,156C 124.026,157.887 126.026,158.887 128.5,159C 128.167,159.333 127.833,159.667 127.5,160C 130.436,162.767 133.769,164.934 137.5,166.5C 137.5,166.833 137.5,167.167 137.5,167.5C 134.574,168.698 131.574,169.698 128.5,170.5C 127.078,170.291 125.745,169.791 124.5,169C 120.942,164.419 116.275,160.252 110.5,156.5C 110.152,154.907 110.152,153.24 110.5,151.5C 118.352,151.825 126.018,151.492 133.5,150.5 Z"/></g>
<g><path style="opacity:1" fill="#25b195" d="M 159.5,156.5 C 160.167,156.5 160.833,156.5 161.5,156.5C 161.67,157.822 161.337,158.989 160.5,160C 161.951,159.737 163.284,159.904 164.5,160.5C 162.142,162.024 160.309,164.024 159,166.5C 158.51,165.207 158.343,163.873 158.5,162.5C 157.325,162.719 156.325,162.386 155.5,161.5C 157.611,160.395 158.945,158.729 159.5,156.5 Z"/></g>
<g><path style="opacity:1" fill="#76706a" d="M 105.5,145.5 C 107.156,147.46 108.823,149.46 110.5,151.5C 110.152,153.24 110.152,154.907 110.5,156.5C 116.275,160.252 120.942,164.419 124.5,169C 125.745,169.791 127.078,170.291 128.5,170.5C 119.3,174.104 109.633,175.771 99.5,175.5C 92.8053,175.923 86.4719,174.923 80.5,172.5C 81.552,172.649 82.552,172.483 83.5,172C 84.6882,169.089 86.5215,167.589 89,167.5C 93.2882,160.582 98.2882,154.249 104,148.5C 104.333,148.833 104.667,149.167 105,149.5C 105.49,148.207 105.657,146.873 105.5,145.5 Z"/></g>
<g><path style="opacity:1" fill="#1c7c77" d="M 57.5,168.5 C 58.6354,170.213 60.302,170.88 62.5,170.5C 62.5,171.5 62.5,172.5 62.5,173.5C 59.7524,173.402 59.0857,174.402 60.5,176.5C 57.9641,175.651 55.4641,174.651 53,173.5C 53.4993,172.106 54.3326,170.772 55.5,169.5C 55.4088,167.302 56.0755,166.969 57.5,168.5 Z"/></g>
<g><path style="opacity:0.941" fill="#201d19" d="M 55.5,169.5 C 54.3326,170.772 53.4993,172.106 53,173.5C 55.4641,174.651 57.9641,175.651 60.5,176.5C 59.9094,177.151 59.2427,177.818 58.5,178.5C 80.4161,190.168 103.416,192.668 127.5,186C 133.328,184.057 138.995,181.724 144.5,179C 146.692,177.933 148.358,176.433 149.5,174.5C 150.643,174.908 151.643,175.575 152.5,176.5C 149.696,178.138 147.029,179.971 144.5,182C 145.5,182.5 146.5,183 147.5,183.5C 155.971,180.769 163.304,176.269 169.5,170C 170.437,169.308 171.103,169.475 171.5,170.5C 170.265,172.957 168.265,174.29 165.5,174.5C 165.5,175.5 165.5,176.5 165.5,177.5C 160.597,179.321 156.264,182.154 152.5,186C 146.927,188.814 141.26,191.481 135.5,194C 128.855,196.158 122.189,197.991 115.5,199.5C 114.833,199.5 114.167,199.5 113.5,199.5C 112.833,198.167 112.167,198.167 111.5,199.5C 105.167,199.5 98.8333,199.5 92.5,199.5C 92.1667,198.167 91.8333,198.167 91.5,199.5C 90.5,199.5 89.5,199.5 88.5,199.5C 73.1524,197.185 59.1524,191.852 46.5,183.5C 49.3814,182.493 52.3814,182.326 55.5,183C 54.3595,182.259 54.3595,181.425 55.5,180.5C 54.5,179.667 53.5,178.833 52.5,178C 53.1667,177.667 53.8333,177.333 54.5,177C 49.8815,174.05 45.5482,170.716 41.5,167C 45.8206,166.501 50.1539,166.334 54.5,166.5C 54.2627,167.791 54.596,168.791 55.5,169.5 Z"/></g>
<g><path style="opacity:1" fill="#0b0c0b" d="M 149.5,174.5 C 148.358,176.433 146.692,177.933 144.5,179C 138.995,181.724 133.328,184.057 127.5,186C 103.416,192.668 80.4161,190.168 58.5,178.5C 59.2427,177.818 59.9094,177.151 60.5,176.5C 59.0857,174.402 59.7524,173.402 62.5,173.5C 62.5,172.5 62.5,171.5 62.5,170.5C 60.302,170.88 58.6354,170.213 57.5,168.5C 57.56,167.957 57.8933,167.624 58.5,167.5C 85.3166,182.676 112.483,183.342 140,169.5C 143.099,171.299 146.265,172.966 149.5,174.5 Z"/></g>
<g><path style="opacity:1" fill="#0b5849" d="M 138.5,172.5 C 140.49,172.993 140.49,174.16 138.5,176C 139.938,176.219 141.271,176.719 142.5,177.5C 139.97,178.132 137.637,179.132 135.5,180.5C 135.167,180.333 134.833,180.167 134.5,180C 137.286,177.979 136.953,176.479 133.5,175.5C 135.544,174.935 137.21,173.935 138.5,172.5 Z"/></g>
<g><path style="opacity:1" fill="#0f453f" d="M 80.5,178.5 C 82.6365,179.787 84.9699,180.621 87.5,181C 86.6721,181.915 85.6721,182.581 84.5,183C 86.9042,183.508 87.5709,184.675 86.5,186.5C 84.3334,185.208 82.0001,184.375 79.5,184C 80.3279,183.085 81.3279,182.419 82.5,182C 81.1772,181.184 80.5106,180.017 80.5,178.5 Z"/></g>
<g><path style="opacity:1" fill="#0b3a31" d="M 107.5,180.5 C 109.468,181.819 111.468,181.819 113.5,180.5C 114.594,181.868 114.26,183.035 112.5,184C 113.624,184.249 114.624,184.749 115.5,185.5C 113.187,186.273 110.854,186.94 108.5,187.5C 107.429,185.675 108.096,184.508 110.5,184C 107.553,183.925 106.553,182.758 107.5,180.5 Z"/></g>
</svg>
