<?xml version="1.0" standalone="no"?>
<!DOCTYPE svg PUBLIC "-//W3C//DTD SVG 20010904//EN"
 "http://www.w3.org/TR/2001/REC-SVG-20010904/DTD/svg10.dtd">
<svg version="1.0" xmlns="http://www.w3.org/2000/svg"
 width="200.000000pt" height="200.000000pt" viewBox="0 0 200.000000 200.000000"
 preserveAspectRatio="xMidYMid meet">

<g transform="translate(0.000000,200.000000) scale(0.100000,-0.100000)"
fill="#000000" stroke="none">
<path d="M837 1984 c-212 -38 -391 -136 -543 -296 -118 -125 -200 -272 -245
-438 -20 -74 -23 -108 -23 -255 0 -155 3 -178 28 -260 162 -537 673 -834 1204
-700 353 90 633 382 718 750 29 125 25 340 -9 466 -134 505 -626 824 -1130
733z m378 -143 c80 -20 273 -110 296 -137 10 -12 -3 -14 -90 -14 l-101 0 0
-296 c0 -180 -4 -293 -9 -289 -5 3 -112 136 -236 295 l-227 290 -150 0 c-116
0 -148 -3 -142 -12 4 -7 228 -314 498 -682 l490 -669 -35 -29 c-51 -43 -203
-115 -294 -139 -112 -30 -298 -30 -410 0 -85 22 -244 94 -285 129 l-25 21 93
1 92 0 0 317 c0 277 2 315 14 303 8 -8 118 -150 244 -315 l229 -300 153 -3
c123 -2 151 0 143 10 -80 104 -993 1348 -993 1352 0 11 133 93 192 119 174 77
369 94 553 48z m497 -344 c55 -80 104 -187 129 -282 17 -63 22 -108 22 -215 0
-107 -5 -152 -22 -215 -41 -152 -124 -296 -230 -400 l-51 -49 0 664 0 664 56
-54 c31 -30 74 -81 96 -113z m-1262 -497 c0 -750 11 -692 -104 -548 -76 95
-137 214 -168 325 -32 115 -32 336 0 446 27 95 69 189 113 254 42 62 138 173
150 173 5 0 9 -264 9 -650z"/>
</g>
</svg>
