<svg xmlns="http://www.w3.org/2000/svg" width="200" height="200"><path d="M0 0h200v200H0V0z" fill="#99A4AC"/><path d="M0 0h36c2.483 4.966 4.727 9.56 6.688 14.688l1.261 3.261A49.335 49.335 0 0 1 46 26h-2l-1-2c-3.312-.2-6.624-.383-9.938-.563l-2.806-.17A88.835 88.835 0 0 0 13 24l-1-3-8-1c.185 4.342.185 4.342 2 8 3.084-.223 6.143-.586 9.215-.941.919-.02 1.838-.04 2.785-.059l2 2c-.063 1.875-.063 1.875-1 4-2.563 2.25-2.563 2.25-5 4l-1-3-9-1c.185 4.342.185 4.342 2 8 4.165.16 7.947-.018 12-1v3l5 1-.324 2.082-.363 2.73-.387 2.708c-.19 2.495-.19 2.495 1.367 3.94L25 57a116.791 116.791 0 0 1 3 5.813l1.5 3.082a403.356 403.356 0 0 1 3.023 6.406c1.26 2.894 1.26 2.894 4.102 4.074C39 78 39 78 39.402 79.887l.16 2.175L40 86c1.816 1.2 1.816 1.2 4 2a250 250 0 0 1 4 6c3.089 2.06 3.71 2.239 7.188 2.125L59 96c1.802-3.83 2.196-6.781 2-11l-4-2v-7l-9 1-1-4c-4.204-4.622-9.78-8.848-16-10v-2h6v2l5 1v-3c-3.767-2.968-7.298-3.539-12-4l-.55-1.898-.762-2.477-.739-2.46C27.086 47.667 27.086 47.667 24 46c-.258-1.918-.258-1.918-.125-4.188.146-4.096-.188-7.775-.875-11.812 4.335.31 8.668.646 13 1 1.17.09 1.17.09 2.363.184 5.239.514 11.303 1.22 14.992 5.324C55.852 40.528 56.618 44.326 57 49l-1.723-.402C47.441 46.805 40.042 45.836 32 46v5c.568.182 1.137.364 1.723.55l2.34.763 2.285.738L41 54l3.43 1.184c4.297 1.874 6.76 4.96 9.633 8.566l1.486 1.805a460.627 460.627 0 0 1 2.944 3.611c2.066 2.514 4.23 4.94 6.403 7.362C66 78 66 78 66 80l3 1 1 10 7 2-.488 3.781c-2.7 24.508.17 50.062 4.488 74.219h1l.212-2.089C85.49 137.358 85.49 137.358 93 127c1.374-4.024.842-6.209-1-10 3.742-2.495 5.562-2.376 10-2 3.438 1.5 3.438 1.5 6 3v2h-3l-1 3h-2l.805 2.605 1.07 3.582 1.055 3.481c2.748 10.404 3.371 20.776 3.276 31.478-.018 2.088-.02 4.176-.02 6.264-.042 9.924-.602 19.654-1.186 29.59H0V0z" fill="#19212E"/><path d="M104 19v3l2.563-1.625c4.327-1.73 6.159-.99 10.437.625a356.16 356.16 0 0 0 5.375 1.75c3.317 1.58 5.192 3.505 7.625 6.25l2.25 2.5c2.247 4.493 2.37 8.406 2.574 13.379.159 2.817.597 5.369 1.176 8.121v3l1 1c.897 7.731-.727 14.625-5.063 21.063L130 80h-2l-.875 2.813C126 86 126 86 124 89c-.242 2.516-.242 2.516-.125 5.188l.055 2.73L124 99h2c1.474 25.513-3.726 50.172-9.563 74.875l-.812 3.45c-1.939 7.82-4.58 15.22-7.625 22.675h-1l.02-1.784c.067-6.215.112-12.43.145-18.644.015-2.31.035-4.618.061-6.927.415-22.77.415-22.77-5.226-44.645-.356-2.99-.469-4.353 1.313-6.813C105 120 105 120 108 120c-2.987-3.272-5.063-3.95-9.563-4.188-3.502-.192-3.502-.192-5.437 2.188l1.063 1.688c1.24 3.059 1.006 4.177-.063 7.312a143.597 143.597 0 0 1-2.375 3.625c-5.436 8.377-6.227 18.531-7.25 28.25-.24 2.185-.483 4.37-.727 6.555-.1.95-.202 1.902-.307 2.882-.33 2.597-.794 5.128-1.341 7.688h-1c-3.86-20.786-6.118-41.346-6.25-62.5l-.028-3.092c.026-6.101.74-11.5 2.278-17.408l-2.875.125C71 93 71 93 69 91c-.238-2.207-.238-2.207-.313-4.813-.31-3.683-.424-4.862-2.812-7.812L63 76a138.337 138.337 0 0 1-3.25-3.625l-1.777-2.043c-3.086-3.648-6.072-7.377-9.055-11.11C47.194 56.938 47.194 56.938 45 56v-2l-2.25-.875A81.918 81.918 0 0 1 36 50v-2c8.284-.602 14.16 1.798 20.813 6.688C59.599 56.709 60.806 57.37 64 58v-3l1.5-1.313c1.81-1.695 1.81-1.695 1.75-4.75-.062-2.869-.062-2.869-1.25-4.937a87.563 87.563 0 0 1-.188-5.375l-.042-2.898c.236-2.795.69-4.401 2.23-6.727a103.73 103.73 0 0 1 5-2l2.258-1.922C83.298 18.985 94.264 18.358 104 19z" fill="#BF9881"/><path d="M125 96c2.801 1.285 4.83 2.692 7.105 4.746 6.706 5.111 15.252 6.91 23.208 9.317 3.27 1.002 6.536 2.014 9.8 3.035l2.367.738c5.296 1.687 10.337 3.675 15.337 6.12 2.167 1.084 2.167 1.084 4.467 1.847 3.36 1.282 5.209 2.201 6.877 5.477C202.317 150.685 200 175.454 200 200h-92c.745-3.724 1.534-6.622 2.883-10.094C121.605 160.94 126.525 126.794 125 96z" fill="#1E2736"/><path d="M104 19v3l2.563-1.625c4.327-1.73 6.159-.99 10.437.625a356.16 356.16 0 0 0 5.375 1.75c3.317 1.58 5.192 3.505 7.625 6.25l2.25 2.5c2.247 4.493 2.37 8.406 2.574 13.379.159 2.817.597 5.369 1.176 8.121v3l1 1c.526 5.702-.165 10.61-2 16h-1l-1-8h-2c-1.945 2.918-2.453 4.625-3 8h-2l-1 3h-3l-1-3c-2.422-1.035-2.422-1.035-5.313-1.688-.965-.25-1.93-.502-2.925-.761-2.946-.681-2.946-.681-6.762-.551l3 3c-1.94 1.94-5.473 1.4-8.063 1.563l-3.91.253L94 75l2 5-12-1a125.024 125.024 0 0 1 4-6h2v-2l-1.828 1.059-2.422 1.379-2.39 1.37c-2.18 1.1-3.948 1.855-6.36 2.192-2.25-1.313-2.25-1.313-4-4-.336-3.36-.231-6.635 0-10h-2v-2l-5 2 1 5 2-2 .77 3.324c.347 1.455.694 2.91 1.043 4.364l.501 2.185C72.337 80.099 73.64 83.299 76 87c.188 2.813.188 2.813 0 5-3.875-.875-3.875-.875-5-2-.132-1.393-.23-2.79-.313-4.188-.81-7.563-5.658-12.02-10.605-17.425-2.067-2.37-3.875-4.833-5.707-7.387-2.352-3.11-2.963-3.873-6.813-5.063L45 56v-2l-2.25-.875A81.918 81.918 0 0 1 36 50v-2c8.284-.602 14.16 1.798 20.813 6.688C59.599 56.709 60.806 57.37 64 58v-3l1.5-1.313c1.81-1.695 1.81-1.695 1.75-4.75-.062-2.869-.062-2.869-1.25-4.937a87.563 87.563 0 0 1-.188-5.375l-.042-2.898c.236-2.795.69-4.401 2.23-6.727a103.73 103.73 0 0 1 5-2l2.258-1.922C83.298 18.985 94.264 18.358 104 19z" fill="#E1B6A1"/><path d="M188 127c1.245 2.49.777 3.41 0 6h2l2-6h2c2.525 7.514 4.324 14.815 5.125 22.688l.254 2.468c.909 9.672.84 19.327.746 29.031-.01 1.841-.02 3.681-.027 5.522-.02 4.43-.06 8.86-.098 13.291h-36l1-2c.069-1.373.085-2.75.063-4.125L165 190l-4 3c1.019-2.194 1.976-3.972 3.563-5.813 1.946-2.962 2.102-5.702 2.437-9.187h2l3-12 4-1 .375-3.875c1.442-12.487 5.018-23.359 11.625-34.125z" fill="#181F2B"/><path d="M102 115c3.438 1.5 3.438 1.5 6 3v2h-3l-1 3h-2l.805 2.605 1.07 3.582 1.055 3.481c2.936 11.116 3.367 22.167 3.257 33.582l-.019 4.386c-.06 9.82-.408 19.573-1.168 29.364H88a1085.051 1085.051 0 0 1-3-9.438c-.43-1.317-.43-1.317-.867-2.662-5.077-16.38-1.95-39.308 4.867-54.9 1.221-2.12 2.561-4.015 4-6 1.374-4.024.842-6.209-1-10 3.742-2.495 5.562-2.376 10-2z" fill="#0E79CB"/><path d="M13 62c1.703 1.145 1.703 1.145 3.25 2.813l1.793 1.925c3.01 3.48 5.929 7.026 8.809 10.614 1.81 2.23 3.67 4.383 5.585 6.523C34.688 86.468 35.748 88.792 37 92a135.16 135.16 0 0 0 3 4c2.245 2.891 3.896 5.466 5 9-3.782 2.238-7.882 2.964-12.125 3.875-5.872 1.312-11.376 2.841-16.895 5.293C14 115 14 115 11.88 115.297c-2.125.563-2.125.563-3.145 2.988l-.984 2.778-1.016 2.785L6 126c-4.875-1.875-4.875-1.875-6-3a81.501 81.501 0 0 1-.24-4.852l-.078-3.137c-.085-4.763-.15-9.527-.197-14.291-.031-2.51-.08-5.019-.143-7.527-.092-3.619-.13-7.234-.158-10.853l-.116-3.379c.015-5.894.568-9.334 4.67-13.732C6.85 62.329 8.743 61.503 13 62z" fill="#AF0925"/><path d="M0 0h36c2.483 4.966 4.727 9.56 6.688 14.688l1.261 3.261A49.335 49.335 0 0 1 46 26h-2l-1-2c-3.312-.2-6.624-.383-9.938-.563l-2.806-.17A88.835 88.835 0 0 0 13 24l-1-3-8-1c.185 4.342.185 4.342 2 8 3.084-.223 6.143-.586 9.215-.941.919-.02 1.838-.04 2.785-.059l2 2c-.063 1.875-.063 1.875-1 4-2.563 2.25-2.563 2.25-5 4l-1-3-9-1c.185 4.342.185 4.342 2 8 4.165.16 7.947-.018 12-1v3l5 1c-.468 5.817-1.27 9.954-5.75 13.938C14.013 60.444 10.676 62.2 7 64l-7 6V0z" fill="#111E58"/><path d="M23 30c4.335.31 8.668.646 13 1l2.363.184c5.239.514 11.303 1.22 14.992 5.324C55.852 40.528 56.618 44.326 57 49l-1.723-.402C47.441 46.805 40.042 45.836 32 46v5c.568.182 1.137.364 1.723.55l2.34.763 2.285.738L41 54l3.465 1.238c3.919 1.953 6.338 4.29 9.035 7.637l1.375 1.566c2.177 2.635 3.17 3.968 2.906 7.442L57 74l3 1v4h3v5h2l1 9-2.438.875c-2.695.858-2.695.858-3.562 3.125h8v3c-7.67 2.585-14.889 4.634-23 5-.47-.76-.941-1.519-1.426-2.3l-1.886-3.013-1.864-2.988c-1.64-2.63-1.64-2.63-3.43-4.242C35 91 35 91 34.126 88.695c-1.45-3.472-3.674-6.022-6.125-8.82l-1.46-1.696C21.794 72.695 16.92 67.327 12 62a243.553 243.553 0 0 1 2.75-3.438l1.547-1.933C18.245 54.765 19.303 54.122 22 54c3.108 2.137 4.396 5.492 6 8.813l1.5 3.082a403.356 403.356 0 0 1 3.023 6.406c1.26 2.894 1.26 2.894 4.102 4.074C39 78 39 78 39.402 79.887l.16 2.175L40 86c1.816 1.2 1.816 1.2 4 2a250 250 0 0 1 4 6c3.089 2.06 3.71 2.239 7.188 2.125L59 96c1.802-3.83 2.196-6.781 2-11l-4-2v-7l-9 1-1-4c-4.204-4.622-9.78-8.848-16-10v-2h6v2l5 1v-3c-3.767-2.968-7.298-3.539-12-4l-.55-1.898-.762-2.477-.739-2.46C27.086 47.667 27.086 47.667 24 46c-.258-1.918-.258-1.918-.125-4.188.146-4.096-.188-7.775-.875-11.812z" fill="#695F52"/><path d="M104 19v3l2.563-1.625c4.327-1.73 6.159-.99 10.437.625a356.16 356.16 0 0 0 5.375 1.75c3.317 1.58 5.192 3.505 7.625 6.25l2.25 2.5c2.247 4.493 2.37 8.406 2.574 13.379.093 3.09.093 3.09.781 5.926L136 53c-1.375 1.563-1.375 1.563-3 3-.714 2.103-.714 2.103-1 4h-3l-1-2-4 2v4l-3 1v-2c-3.008-1.003-5.538-1.303-8.688-1.563l-3.011-.253L107 61l-1 2v-2h-3l-1-5h24c2.156-7.498 2.525-14.512 0-22-2.391-2.778-4.568-4.671-8-6h-3a334.82 334.82 0 0 1-5.5-.438c-.96-.08-1.918-.162-2.906-.246C104 27 104 27 101 26v-2l-1.793-.184C95.09 23.38 91.045 22.913 87 22v2l-2.438.813L82 26l-1 3h5c-1.28 2.559-2.443 2.861-5 4.063-2.7 1.182-2.7 1.182-5 2.937a199.878 199.878 0 0 0-.563 7.563l-.13 2.154C75.2 47.477 75.1 49.239 75 51l2 1v2l3 1v2l14-1v5l-18 1 2 3c.08 2.332.088 4.668 0 7 3.492.1 6.594-.222 10-1-2.374 2.624-4.814 4.446-8 6-2.504-.147-3.627-.714-5.605-2.23-1.892-2.401-1.7-3.942-1.582-6.957l.082-2.731L73 63h-2v-2l-5 2 1 5 2-2 .77 3.324c.347 1.455.694 2.91 1.043 4.364l.501 2.185C72.337 80.099 73.64 83.299 76 87c.188 2.813.188 2.813 0 5-3.875-.875-3.875-.875-5-2-.132-1.393-.23-2.79-.313-4.188-.81-7.563-5.658-12.02-10.605-17.425-2.067-2.37-3.875-4.833-5.707-7.387-2.352-3.11-2.963-3.873-6.813-5.063L45 56v-2l-2.25-.875A81.918 81.918 0 0 1 36 50v-2c8.284-.602 14.16 1.798 20.813 6.688C59.599 56.709 60.806 57.37 64 58v-3l1.5-1.313c1.81-1.695 1.81-1.695 1.75-4.75-.062-2.869-.062-2.869-1.25-4.937a87.563 87.563 0 0 1-.188-5.375l-.042-2.898c.236-2.795.69-4.401 2.23-6.727a103.73 103.73 0 0 1 5-2l2.258-1.922C83.298 18.985 94.264 18.358 104 19z" fill="#CC9E84"/><path d="M36 0c1.813.125 1.813.125 4 1 2.718 4.24 3.884 8.873 5.234 13.672.723 2.506.723 2.506 2.516 5.14C49 22 49 22 48.688 24.813L48 27c-1.875.625-1.875.625-4 1l-2-2c-2.433-.462-2.433-.462-5.125-.625l-2.758-.227L32 25v3l2.438.438C37 29 37 29 38 30l3.5.5C45 31 45 31 46 32l3.258.113c4.283 1.015 4.283 1.015 6.36 4.055.776 1.326 1.529 2.666 2.257 4.02l1.18 2.001C61.28 46.105 62.56 49.448 63 54c-3 1-3 1-6.188-.438L54 52v-2a700866136.96 700866136.96 0 0 0-10.254-2.246C40.164 47.033 36.62 46.48 33 46c.27 2.437.27 2.437 1 5l3 2c-4.875-.875-4.875-.875-6-2-.125-2.5-.125-2.5 0-5 1-1 1-1 4.813-1.188 7.111.08 14.906.637 21.187 4.188a395.228 395.228 0 0 0-3-8l-1.25-3.375C50.418 34.127 47.918 33.817 44 33c-3.636-.624-7.282-1.135-10.938-1.625l-2.939-.406c-2.374-.328-4.748-.65-7.123-.969l1.004 3.2c1.032 3.939 1.055 6.89.773 10.882L25 46l3 2c1.676 3.353 2 5.161 2 9l3.188-.188c4.079.201 5.49 1.002 8.812 3.188 2.693.707 2.693.707 5 1l-1.938.313L43 62l-1 3-5-2v-2h-6v2l2.125.25c3.603.94 5.877 2.548 8.875 4.75l1.715 1.234C45.375 70.5 45.375 70.5 48 73v4l9-1 .25 3.375c.329 3.683.329 3.683 2.813 5.063L62 85c.325 4.654-.202 7.234-3 11-2.903 1.451-4.773 1.372-8 1-4.148-2.847-6.59-5.638-9-10l-1.625-1.438C39 84 39 84 38.625 81L38 78l-2.313-1.375c-3.327-2.012-4.01-3.775-5.582-7.227-1.3-2.822-2.749-5.54-4.23-8.273l-1.508-2.805C23.078 55.911 23.078 55.911 21 54c.023-2.383.023-2.383.375-5.125l.336-2.758L22 44l-4-1v-3l-2.063 1C12.442 42.19 9.671 42.277 6 42c-2-2-2-2-2.125-5.625L4 33a195.61 195.61 0 0 1 4.375-.188l2.46-.105L13 33l2 3c2.146-1.729 2.146-1.729 4-4-.321-2.119-.321-2.119-1-4-.843.095-1.686.19-2.555.29-1.095.11-2.191.22-3.32.335l-3.305.352L6 29c-2-2-2-2-2.125-5.625L4 20l3.875-.188 2.18-.105L12 20l2 3 2.535-.254C25.537 21.96 34.011 22.182 43 23l1 3h2c-2.772-7.42-5.678-14.702-9.082-21.855C36 2 36 2 36 0z" fill="#3E4652"/><path d="M123 93h1v6h2c1.474 25.513-3.726 50.172-9.563 74.875l-.812 3.45c-1.939 7.82-4.58 15.22-7.625 22.675h-1l.02-1.784c.067-6.215.112-12.43.145-18.644.015-2.31.035-4.618.061-6.927.415-22.77.415-22.77-5.226-44.645-.356-2.99-.469-4.353 1.313-6.813C105 120 105 120 108 120c-2.052-2.248-3.007-3.002-6-4v-2c2.117-1.727 2.117-1.727 4.875-3.625l2.742-1.914C112 107 112 107 114 107v-2l2.813-2.188c3.558-2.81 4.694-5.58 6.187-9.812zM76 96h2c.896 1.38 1.79 2.76 2.672 4.148C84.747 105.83 90.034 110.42 96 114l-3 4 1.063 1.688c1.24 3.059 1.006 4.177-.063 7.312a143.597 143.597 0 0 1-2.375 3.625c-5.436 8.377-6.227 18.531-7.25 28.25-.24 2.185-.483 4.37-.727 6.555-.1.95-.202 1.902-.307 2.882-.33 2.597-.794 5.128-1.341 7.688h-1c-10.265-55.276-10.265-55.276-5-80z" fill="#DBE3EB"/><path d="M86 55h12c-1 3-1 3-2 4l2 3v2h2v-2h2l-1-7h8v1l-6 1v4l3.14-.105c1.37-.029 2.74-.056 4.11-.083l2.066-.076c4.29-.062 6.505.38 9.684 3.264h2v-4c2.5-1.75 2.5-1.75 5-3v3h3v-4l5 1c.236 5.778-.132 10.513-2 16h-1l-1-8h-2c-1.945 2.918-2.453 4.625-3 8h-2l-1 3h-3l-1-3c-2.422-1.035-2.422-1.035-5.313-1.688-.965-.25-1.93-.502-2.925-.761-2.946-.681-2.946-.681-6.762-.551l3 3c-1.94 1.94-5.473 1.4-8.063 1.563l-3.91.253L94 75l2 5-12-1a125.024 125.024 0 0 1 4-6h2v-2l-2.117.473-2.758.59-2.742.597C80 73 80 73 78 72c-.387-2.325-.718-4.66-1-7l-1-3 17-2-7-1v-1h8v-2l-9 1 1-2z" fill="#DCAA95"/><path d="M47 56c3.765.224 4.943.943 7.676 3.652.892 1.085 1.77 2.18 2.636 3.285l1.377 1.67C62 68.705 62 68.705 62 71l3 1c4.709 5.28 6.207 9.036 6.46 15.977.347 2.225.347 2.225 2.58 3.296L76 92c-.182-.545-.364-1.09-.55-1.652l-.763-2.285-.828-2.481a1352.4 1352.4 0 0 1-1.656-5.008c-1.922-7.171-1.922-7.171-5.89-13.136L65 66c.313-2.188.313-2.188 1-4l5-1v2h2l1 12c3.088 1.004 5.138 1.428 8.11-.047a119.348 119.348 0 0 0 4.156-2.824C88 71 88 71 90 71c0 2 0 2-2.5 4.625L85 78l10 1-2-5 15-1-3-3 5-1v2l2.313.813C114.904 72.957 116.3 73.763 118 76v3l-5-1-1-3-2-1v2h-5v4h10l-1 3-5 1v-2H91v2l-4.813-1.438-2.707-.808A215.647 215.647 0 0 1 78 80l.84 1.645 1.097 2.168 1.09 2.144C82 88 82 88 83 91l2 .938L87 93c.362 1.326.697 2.66 1 4 2.725.908 4.622 1.184 7.45 1.316l2.568.127 2.67.12 2.705.13c2.202.106 4.404.208 6.607.307l-1 2h-2l-1 3-2.688-.188c-3.657.208-5.36 1.104-8.312 3.188v-2l-2.625-.688c-4.04-1.57-6.247-3.333-9.375-6.312v-2h-7l1-3-2.875.125C71 93 71 93 69 91c-.238-2.207-.238-2.207-.313-4.813-.31-3.683-.424-4.862-2.812-7.812L63 76C47 58.806 47 58.806 47 56z" fill="#BC8D75"/><path d="M10 0h26c2.483 4.966 4.727 9.56 6.688 14.688l1.261 3.261A49.335 49.335 0 0 1 46 26h-2l-1-2c-3.312-.2-6.624-.383-9.938-.563l-2.806-.17A88.835 88.835 0 0 0 13 24l1-3c-.243-2.404-.565-4.8-.938-7.188-.291-1.908-.291-1.908-.59-3.855L12 7 7 6l1-2h2V0z" fill="#080C1C"/><path d="M22 49h5v3l3 1v4l3.188-.188c4.079.201 5.49 1.002 8.812 3.188 2.693.707 2.693.707 5 1l-1.938.313L43 62l-1 3-5-2v-2h-6v2l2.125.25c3.603.94 5.877 2.548 8.875 4.75l1.715 1.234C45.375 70.5 45.375 70.5 48 73v4l9-1 .25 3.375c.329 3.683.329 3.683 2.813 5.063L62 85c.325 4.654-.202 7.234-3 11-2.903 1.451-4.773 1.372-8 1-4.148-2.847-6.59-5.638-9-10l-1.625-1.438C39 84 39 84 38.625 81L38 78l-2.313-1.375c-3.327-2.012-4.01-3.775-5.582-7.227-1.3-2.822-2.749-5.54-4.23-8.273l-1.508-2.805C23.078 55.911 23.078 55.911 21 54c.375-2.625.375-2.625 1-5z" fill="#888C8B"/><path d="M10 66c5.092 1.454 7.675 4.474 11.063 8.313l1.564 1.724c4.294 4.764 7.988 8.957 10.31 15.002 1.862 3.436 4.746 6.029 7.516 8.75L42 102l-1 5-12 2c-4-8.75-4-8.75-4-11h-2v-2h-2v-2h-2v-2h-2l-.813-1.875C15.044 87.7 15.044 87.7 12 86v-3h-2v-3H8l-1-2a78.037 78.037 0 0 0-5-2c.125-2.25.125-2.25 1-5 3-2.25 3-2.25 6-4l1-1z" fill="#CFCFD2"/><path d="M103 130c10.992 16.489 5.612 51.146 4 70H97l1-4h2l.375-2.188c.615-2.77 1.51-5.209 2.625-7.812h2l1-11-2 2c-2.625.125-2.625.125-5 0l-.375 1.813C98 181 98 181 96 184l-3-1 .473-3.96c1.11-9.97 1.76-19.52.808-29.528-.162-1.832-.23-3.673-.281-5.512 2.565-2.565 4.477-2.54 8-3l1-11z" fill="#0263B4"/><path d="M23 30c4.335.31 8.668.646 13 1l2.363.184c5.239.514 11.303 1.22 14.992 5.324C55.852 40.528 56.618 44.326 57 49l-1.723-.402C47.441 46.805 40.042 45.836 32 46v5c.568.182 1.137.364 1.723.55 2.434.793 4.855 1.62 7.277 2.45l3.625 1.188C49.062 57.57 52.304 60.73 55 65v4h-2l-.75-1.813c-2.8-4.9-7.19-5.976-12.324-7.539C38 59 38 59 37 58a235.648 235.648 0 0 0-7-1l-.55-1.898-.762-2.477-.739-2.46C27.086 47.667 27.086 47.667 24 46c-.258-1.918-.258-1.918-.125-4.188.146-4.096-.188-7.775-.875-11.812z" fill="#231915"/><path d="M104 19v3l2.563-1.625c4.327-1.73 6.159-.99 10.437.625a356.16 356.16 0 0 0 5.375 1.75c3.317 1.58 5.192 3.505 7.625 6.25l2.25 2.5c2.247 4.493 2.37 8.406 2.574 13.379.093 3.09.093 3.09.781 5.926L136 53c-1.375 1.563-1.375 1.563-3 3-.714 2.103-.714 2.103-1 4h-3l-1-2-4 2v4l-3 1v-2c-3.008-1.003-5.538-1.303-8.688-1.563l-3.011-.253L107 61l-1 2v-2h-3l-1-5h24c2.156-7.498 2.525-14.512 0-22-2.391-2.778-4.568-4.671-8-6h-3a334.82 334.82 0 0 1-5.5-.438c-.96-.08-1.918-.162-2.906-.246C104 27 104 27 101 26v-2l-1.793-.184C95.09 23.38 91.045 22.913 87 22v2c-8.429 3.286-8.429 3.286-13 4 1-3 1-3 3.375-4.5C86.338 19.791 94.308 18.543 104 19z" fill="#BAB4B2"/><path d="m121 78 3 1c-.958 4.983-2.825 8.911-6.563 12.375C115 93 115 93 113 93v2c-4.975 3.316-9.733 3.18-15.625 3.25l-3.977.078C90 98 90 98 88.262 96.73L87 95l-1.754-1.902-1.808-2.035-1.817-2.028C79.17 85.957 78 83.973 78 80c1.606.283 3.21.577 4.813.875l2.707.492C88 82 88 82 91 84v-2h18v2c4.109-1.128 8.076-2.335 12-4v-2z" fill="#DCAF9A"/><path d="m82 172 1 2h2v3l3.313-1.063C92 175 92 175 95 176l-1 7h2l1.25-2.875c1.768-3.157 2.392-4.076 5.75-5.125h3c.027 1.458.046 2.917.063 4.375l.035 2.46C106 184 106 184 105 186h-2l-.375 2.063c-2.03 9.54-2.03 9.54-5.625 11.937-2.262.195-2.262.195-4.688.125l-2.449-.055L88 200c-1.019-3.16-2.011-6.33-3-9.5l-.867-2.688C82.437 182.322 81.678 177.744 82 172z" fill="#0672C7"/><path d="M43 9c3.326 3.78 5.316 7.63 7.188 12.25C53.914 30.131 58.388 38.551 63 47l-.07-1.828-.055-2.422-.07-2.39c.212-2.567.908-4.152 2.195-6.36 2 2 2 2 2.16 4.129l-.097 2.434A87.936 87.936 0 0 0 67 45l1 1c.263 4.032.294 5.559-2 9h-2v3c-3.487-.317-5.59-1.295-8.313-3.375C49.627 50.085 43.445 48.665 36 48c1.285 2.57 2.5 2.904 5.063 4.125l2.222 1.07L45 54c-2.467.883-3.639 1.131-6.14.223l-2.11-1.16-2.14-1.153L33 51v-5c15.17.61 15.17.61 21 4l1 2c2.314.73 4.648 1.401 7 2-.287-5.456-2.653-9.065-5.527-13.535C55.022 38.037 53.978 35.649 53 33l-3.438.063C46 33 46 33 45 32l-3.438-.438C38 31 38 31 36 29c-2.069-.643-2.069-.643-4-1v-3c1.583-.054 3.166-.093 4.75-.125l2.672-.07c2.707.205 4.204.967 6.578 2.195l2-1c-.566-4.383-2.27-7.973-4.16-11.914C43 12 43 12 43 9z" fill="#707882"/><path d="M19 54c2.653.27 3.75.726 5.563 2.715 3.17 4.903 5.49 9.667 7.496 15.148.853 2.326.853 2.326 3.129 4.137 2.635 2.908 2.432 5.74 2.636 9.563.164 2.266.555 4.257 1.176 6.437-3.801-3.697-7.27-7.572-10.688-11.625C23.005 74.125 17.56 68.027 12 62a5816.789 5816.789 0 0 1 4.59-5.371A49.663 49.663 0 0 1 19 54z" fill="#A90522"/><path d="M13 62c1.703 1.145 1.703 1.145 3.25 2.813l1.793 1.925c3.01 3.48 5.929 7.026 8.809 10.614 1.81 2.23 3.67 4.383 5.585 6.523C34.688 86.468 35.748 88.792 37 92a135.16 135.16 0 0 0 3 4c2.245 2.891 3.896 5.466 5 9l-3 1-.719-2.156c-1.492-3.313-3.406-5.6-5.781-8.344-2.998-3.465-4.814-6.284-6.5-10.5-1.948-2.487-1.948-2.487-4.25-4.875-2.79-2.997-5.493-6-8.063-9.188C13.834 67.775 13.834 67.775 10 67c-1.562 1.312-1.562 1.312-3 3-2.188 1.188-2.188 1.188-4 2v4l5 2v2h2v3h2l1 3 2.063 2.063L17 90v2h2v2h2v2h2v2h2a417.885 417.885 0 0 1 2 3.813l1.125 2.144C29 106 29 106 29 109l-3-1-.848-2.188c-1.488-3.631-3.896-6.044-6.59-8.812-5.183-5.367-5.183-5.367-7.12-8.602-1.678-2.791-3.654-4.596-6.067-6.773-2.805-2.787-4.33-4.525-5.938-8.188.765-4.669 2.976-6.688 6.29-9.933C8.457 61.698 9.787 61.474 13 62z" fill="#9A8394"/><path d="M47 56c3.765.224 4.943.943 7.676 3.652.892 1.085 1.77 2.18 2.636 3.285l1.377 1.67C62 68.705 62 68.705 62 71l3 1c4.709 5.28 6.207 9.036 6.46 15.977.347 2.225.347 2.225 2.58 3.296L76 92v-6l2.688 1.813c3.172 2.168 3.172 2.168 6.124 3.687 2.583 1.77 2.6 2.556 3.188 5.5 2.725.908 4.622 1.184 7.45 1.316l2.568.127 2.67.12 2.705.13c2.202.106 4.404.208 6.607.307l-1 2h-2l-1 3-2.688-.188c-3.657.208-5.36 1.104-8.312 3.188v-2l-2.625-.688c-4.04-1.57-6.247-3.333-9.375-6.312v-2h-7l1-3-2.875.125C71 93 71 93 69 91c-.238-2.207-.238-2.207-.313-4.813-.31-3.683-.424-4.862-2.812-7.812L63 76C47 58.806 47 58.806 47 56z" fill="#A3806C"/><path d="M123 93h1c2.52 11.973-.139 20.149-5 31-4.584 0-5.504-.77-9.063-3.438-2.732-2.034-4.694-3.48-7.937-4.562v-2c2.117-1.727 2.117-1.727 4.875-3.625l2.742-1.914C112 107 112 107 114 107v-2l2.813-2.188c3.558-2.81 4.694-5.58 6.187-9.812z" fill="#E4E9EC"/><path d="M10 0h16v21l2 1-15 2 1-3c-.243-2.404-.565-4.8-.938-7.188-.291-1.908-.291-1.908-.59-3.855L12 7 7 6l1-2h2V0z" fill="#261929"/><path d="M36 0c1.813.125 1.813.125 4 1 2.718 4.24 3.884 8.873 5.234 13.672.723 2.506.723 2.506 2.516 5.14C49 22 49 22 48.688 24.813L48 27c-1.875.625-1.875.625-4 1l-2-2c-2.433-.462-2.433-.462-5.125-.625l-2.758-.227L32 25v3l4 1c-14.749.173-14.749.173-19.5-.563-3.566-.602-3.566-.602-7.375.125L6 29c-2-2-2-2-2.125-5.625L4 20l3.875-.188 2.18-.105L12 20l2 3 2.535-.254C25.537 21.96 34.011 22.182 43 23l1 3h2c-2.772-7.42-5.678-14.702-9.082-21.855C36 2 36 2 36 0z" fill="#54525C"/><path d="M36 48c10.344-.752 17.199 3.911 25.617 9.512 2.386 1.62 2.386 1.62 5.383 2.488l-.563 2.875c-.724 3.024-.724 3.024.563 5.125l2-2 .77 3.324c.347 1.455.694 2.91 1.043 4.364l.501 2.185C72.337 80.099 73.64 83.299 76 87c.188 2.813.188 2.813 0 5-3.875-.875-3.875-.875-5-2-.132-1.393-.23-2.79-.313-4.188-.81-7.563-5.658-12.02-10.605-17.425-2.067-2.37-3.875-4.833-5.707-7.387-2.352-3.11-2.963-3.873-6.813-5.063L45 56v-2l-2.25-.875A81.918 81.918 0 0 1 36 50v-2z" fill="#C3C8C9"/><path d="M26 30c2.876.18 5.701.433 8.563.75l2.384.227c12.725 1.384 12.725 1.384 16.432 5.586C55.525 40.032 56.491 42.947 56 47c-1.334-.435-2.667-.873-4-1.313l-2.516-.82C47 44 47 44 45.078 43.133 38.857 40.34 32.717 40.723 26 41c-.194-1.645-.38-3.291-.563-4.938l-.316-2.777L25 31l1-1z" fill="#090D1F"/><path d="m188 127 1 2c-.614 1.798-1.32 3.564-2.063 5.313-4.23 10.57-7.216 21.638-9.937 32.687l4-2-.875 1.688c-1.2 2.3-1.2 2.3-1.875 4.875-1.71 3.333-3.866 4.04-7.25 5.437v3l2-2c.125 7.625.125 7.625-1 11l.438 1.75c.774 3.1.623 6.07.562 9.25h-9l1-2c.069-1.373.085-2.75.063-4.125L165 190l-4 3c1.019-2.194 1.976-3.972 3.563-5.813 1.946-2.962 2.102-5.702 2.437-9.187h2l3-12 4-1 .375-3.875c1.442-12.487 5.018-23.359 11.625-34.125z" fill="#101520"/><path d="M0 95c8.652 6.288 8.652 6.288 12 10.063l1.75 1.91c1.542 2.5 1.49 4.141 1.25 7.027l-2.355.68c-3.355 1.674-3.752 2.962-4.957 6.445l-.989 2.758L6 126c-4.875-1.875-4.875-1.875-6-3a133.128 133.128 0 0 1-.098-6.223l.01-3.818.025-4.022A3768.67 3768.67 0 0 1 0 95z" fill="#CDCCD0"/><path d="M77 97c5 5 5 5 7.027 7.098 3.758 3.865 7.346 7.126 11.973 9.902-2.025 2.151-4.004 3.75-6.54 5.262l-2.007 1.2c-.686.405-1.371.81-2.078 1.225l-2.102 1.26C78.14 126 78.14 126 77 126V97z" fill="#EFF3F5"/><path d="M79 95c4.264.305 6.11 3.11 9 6 2.599 1.786 5.277 3.412 8 5l1.625-1.5c2.979-1.881 4.912-1.5 8.375-1.5 1.542-1.375 1.542-1.375 3-3 3.188-1.188 3.188-1.188 6-2-5.645 5.802-5.645 5.802-9 8h-2c.348 1.975.348 1.975 1 4l2 1c-2.513 2.366-4.375 3.844-7.75 4.688C91.422 114.031 83.924 106.091 79 100c-.781-2.176-.781-2.176-1-4l1-1zm38 0 1 2-2-1 1-1z" fill="#B28F7A"/><path d="m36 77 3 1 .25 3.875c.226 2.193.226 2.193.75 4.125 1.816 1.2 1.816 1.2 4 2a250 250 0 0 1 4 6c3.644 2.43 5.712 2.162 10 2v3h9c-1 2-1 2-3.152 2.816C57.562 103.5 51.497 104.591 45 105c-.47-.76-.941-1.519-1.426-2.3l-1.886-3.013-1.864-2.988C38.337 94.5 36.96 92.767 35 91l1-2 2 1-1-2c-.228-1.87-.41-3.747-.563-5.625l-.253-3.04L36 77z" fill="#7E6343"/><path d="M102 115c3.438 1.5 3.438 1.5 6 3v2h-3l-1 3h-2v15h-3l-2-10-1.375 3.188-.844 1.937c-.857 1.988-.857 1.988-1.656 4.563-1.457 2.994-3.441 4.405-6.125 6.312.158-6.194 1.359-10.116 4.848-15.223C93.33 126.49 93.926 124.73 94 122c-.85-2.753-.85-2.753-2-5 3.742-2.495 5.562-2.376 10-2z" fill="#0C60AA"/><path d="m121 78 3 1c-.958 4.983-2.825 8.911-6.563 12.375C115 93 115 93 113 93v2c-6.685 4.457-14.377 2.814-22 2l-1-3h-2v-2c3.287-.8 4.71-1.097 8 0 5.04.406 9.418.365 14-2v-3h-2l1-3a102.603 102.603 0 0 1 7-2 151.794 151.794 0 0 0 5-2v-2z" fill="#E0B3A1"/><path d="M42 74h4l2 3c3.568.736 3.568.736 7 1l.75 2.875c.936 3.212.936 3.212 3.375 4.5L61 86c-.25 2.375-.25 2.375-1 5-2.063 1.313-2.063 1.313-4 2v2c-3.407.39-4.764.154-7.688-1.75C46.15 91.146 44.97 89.822 44 87v-4h2l-4-9z" fill="#A0A7A8"/><path d="M101 125c2.421 3.632 2.21 5.383 2.125 9.688l-.055 3.574L103 141l-8 3 .254 3.945.308 5.18.17 2.594c.266 4.603.273 8.74-.732 13.281l-1-2-3-1-1-3h2v-3l-2-2h2l-.563-1.688C91 154 91 154 91.564 151.5c.513-2.936-.005-4.026-1.563-6.5l-3 1c.96-2.142 1.738-3.76 3.48-5.36 1.815-1.958 2.296-3.523 3.02-6.077.98-3.445 2.223-5.787 4.5-8.563l.148 2.117.227 2.758c.07.905.14 1.81.21 2.742.21 2.562.21 2.562 2.415 4.383v-13z" fill="#056BBE"/><path d="M87 22c5.22-.18 9.073.03 14 2v2l2.555.184 3.32.253 3.305.247C113 27 113 27 115 28l1-2 3 2c-10.29 3.087-21.63 5.733-32 2a176.112 176.112 0 0 0-6-1v-2l-2-1c3.088-1.765 4.233-2 8-2v-2z" fill="#C5B8B4"/><path d="M122.375 27.688c2.937 1.468 4.608 2.718 6.625 5.312 1.366 5.553 1.113 11.197 1.063 16.875l-.014 2.953c-.012 2.39-.028 4.781-.049 7.172l-2-2-4 2v4l-3 1v-2c-3.008-1.003-5.538-1.303-8.688-1.563l-3.011-.253L107 61l-1 2v-2h-3l-1-5h24c2.156-7.498 2.525-14.512 0-22-2.406-2.811-4.6-4.543-8-6 2-1 2-1 4.375-.313z" fill="#D0AC9A"/><path d="M79 28c-4.75 3.875-4.75 3.875-7 5l.254 3.105.308 4.083.17 2.04C73.28 49.699 71.792 53.764 68 60h-5l-1-2h2v-3l1.5-1.313c1.81-1.695 1.81-1.695 1.75-4.75-.062-2.869-.062-2.869-1.25-4.937a87.563 87.563 0 0 1-.188-5.375l-.042-2.898c.236-2.798.706-4.39 2.23-6.727 3.926-2.29 6.653-2.011 11-1z" fill="#B39786"/><path d="M22 49h5v3l3 1v4l3.188-.188c4.079.201 5.49 1.002 8.812 3.188 2.693.707 2.693.707 5 1l-1.938.313L43 62l-1 3-5-2v-2h-6v2l4 1h-3l2 11c-2.707-2.707-3.533-3.833-4.875-7.188-1.67-3.958-3.668-7.435-6.074-10.988C21.92 54.861 21.346 53.237 21 51l1-2z" fill="#6D5E55"/><path d="M65 34c2 2 2 2 2.16 4.129l-.097 2.434A87.936 87.936 0 0 0 67 45l1 1c.263 4.032.294 5.559-2 9h-2v3c-3.487-.317-5.59-1.295-8.313-3.375C49.627 50.085 43.445 48.665 36 48c1.285 2.57 2.5 2.904 5.063 4.125l2.222 1.07L45 54c-2.467.883-3.639 1.131-6.14.223l-2.11-1.16-2.14-1.153L33 51v-5c15.17.61 15.17.61 21 4l1 2c4.41 1.494 4.41 1.494 9 2-.095-1.109-.19-2.217-.29-3.36l-.335-4.39-.195-2.21c-.284-3.9-.45-6.746 1.82-10.04z" fill="#999089"/><path d="M0 0h10v4L8 5l5 2c.042 2.333.04 4.667 0 7-1 1-1 1-4.25 1.125C5 15 5 15 0 14V0z" fill="#0E254E"/><path d="m132 56 5 1c.236 5.778-.132 10.513-2 16h-1l-1-8h-2c-1.945 2.918-2.453 4.625-3 8h-2v-4l-2.313.563C121 70 121 70 118 69v-5h6v-4c2.5-1.75 2.5-1.75 5-3v3h3v-4z" fill="#D4A58E"/><path d="M57 70c4.289 1.589 6.323 4.431 9 8v2l3 1 1 10 7 2-1 2-4-1-1 4c-3.742 0-7.29-.513-11-1l1-3 4-1v-9h-2v-5h-3l-.375-1.938L59 75l-2-1v-4z" fill="#4E3C25"/><path d="M94 63c-.188 2.313-.188 2.313-1 5-2.25 1.688-2.25 1.688-5 3l-2.5 1.25c-2.902.87-4.619.573-7.5-.25l-.438-3.313C77.118 65.07 77.118 65.07 76 62c6.643-1.265 11.618-1.431 18 1z" fill="#EBBFB0"/><path d="M100 180h5v6h-2l-.375 2.063c-2.03 9.54-2.03 9.54-5.625 11.937-2.332.08-4.668.088-7 0v-9c4-2 4-2 8-2 1.106-2.39 1.106-2.39 2-5l-1-2 1-2z" fill="#1079CB"/><path d="M141 165c2.094.433 4.091 1.03 6.125 1.688L149 167l2-2c2.125.375 2.125.375 4 1v2l2.313-1.563L160 165l3 1c.688 2.063.688 2.063 1 4-8.56 2.792-17.046 3.144-26 3 1.875-6.875 1.875-6.875 3-8z" fill="#D9E1E7"/><path d="M10 0h9v21h-5L12 7 7 6l1-2h2V0z" fill="#020411"/><path d="M172 178c1.38 3.834.565 7.042 0 11a70.134 70.134 0 0 0 1 4c.039 2.333.045 4.667 0 7h-9l1-2c.069-1.373.085-2.75.063-4.125L165 190l-4 3c1.007-2.169 2.001-4.002 3.5-5.875 1.817-2.574 2.612-5.119 3.5-8.125l2 1 2-2z" fill="#04060B"/><path d="m76 96 2 1v28l14-8 2 3-2.047.805-2.703 1.07-2.672 1.055L84 124l-2.11.7c-2.169 1.183-2.169 1.183-2.528 3.914l-.19 3.269-.234 3.535-.188 3.707-.234 3.73A834.46 834.46 0 0 0 78 152h-1c-1.247-12.895-2.195-25.725-2.188-38.688l-.001-3.161c.034-4.822.18-9.413 1.189-14.151z" fill="#B3BFC9"/><path d="m30 47 .738 1.902c1.577 2.621 2.547 2.866 5.45 3.66l2.44.743L41 54c6.295 2.062 10.467 5.405 14 11v4h-2l-.75-1.813c-2.8-4.9-7.19-5.976-12.324-7.539C38 59 38 59 37 58a235.648 235.648 0 0 0-7-1c-2.082-4.41-2.082-4.41-1.688-7.25C29 48 29 48 30 47z" fill="#3B2E1C"/><path d="M4 33a195.61 195.61 0 0 1 4.375-.188l2.46-.105L13 33l2 3 1-1c2.438-.188 2.438-.188 5 0 2 2 2 2 2 6l-1.934-.035-2.503-.028-2.497-.035C14.008 40.767 14.008 40.767 13 42c-3.438.188-3.438.188-7 0-2-2-2-2-2.125-5.625L4 33z" fill="#43597E"/><path d="m62 59 5 1-.563 2.875c-.724 3.024-.724 3.024.563 5.125l2-2 .77 3.324c.347 1.455.694 2.91 1.043 4.364l.501 2.185C72.337 80.099 73.64 83.299 76 87c.188 2.813.188 2.813 0 5-3.875-.875-3.875-.875-5-2-.132-1.393-.23-2.79-.313-4.188-.572-5.644-2.881-9.056-6.937-13C61.031 68.444 61.684 64.016 62 59z" fill="#D4AF9E"/><path d="M55 38c2.629 2.358 4.146 4.801 5.75 7.938l1.36 2.59c.974 2.705.896 3.829-.11 6.472-3.438-.813-3.438-.813-7-2l-1-3c-3.015-1.007-3.015-1.007-6.625-1.625l-3.664-.727A287.855 287.855 0 0 0 33 46c.27 2.437.27 2.437 1 5l3 2c-4.875-.875-4.875-.875-6-2-.125-2.5-.125-2.5 0-5 1-1 1-1 4.813-1.188 7.111.08 14.906.637 21.187 4.188l-.438-1.898L56 44.625l-.563-2.46C55 40 55 40 55 38z" fill="#4A433B"/><path d="M110 70c4.195.6 8.01 1.575 12 3v3l4-1-1 4-4-1v2c-5.142 4.09-5.142 4.09-8.375 3.75L111 83l3-1 1-2h-10v-4h5v-2l3 1v3l5 1c-.106-2.452-.106-2.452-1-5-2.41-1.247-2.41-1.247-5-2l-2-2z" fill="#D6A48F"/><path d="M108 154h1l.076 2.064c.116 3.083.239 6.166.362 9.249l.119 3.248.127 3.115.11 2.872c.12 2.588.12 2.588 1.206 5.452l3-2c-.408 8.024-2.91 14.624-6 22h-1c-.2-15.348.412-30.665 1-46z" fill="#BFCBD6"/><path d="M14 52h1c.434 2.074.434 2.074 0 5-2.042 2.57-4.469 4.66-6.938 6.813l-1.998 1.81C1.187 70 1.187 70 0 70V55l7.422.781c2.811.275 2.811.275 6.578.219v-4z" fill="#031857"/><path d="M113 62c2.875-.125 2.875-.125 6 0l2 2h-3l1 3-1 2h8v6l-4 1-1-3c-2.56-1.03-2.56-1.03-5.563-1.688l-3.066-.761L110 70l-.375-1.938L109 66l-2-1 6-2v-1z" fill="#E5B8A3"/><path d="M79 95c4.283.476 6.156 2.948 9 6 3.179 3.258 6.394 6.218 10 9h-3l-1 4c-1.92-1.725-3.837-3.454-5.75-5.188l-1.633-1.462C83.431 104.455 80.4 101.605 78 98l1-3z" fill="#BF9E88"/><path d="m91 85 3 1c3.588-.009 7.164-.13 10.75-.258C108 86 108 86 109.938 87.508L111 89c-2.474 2.71-4.336 3.838-8.086 4.203-8.308.17-8.308.17-11.914-3.203-.313-2.688-.313-2.688 0-5z" fill="#D8A895"/><path d="M47 56c3.765.224 4.943.943 7.676 3.652.892 1.085 1.77 2.18 2.636 3.285l1.377 1.67C62 68.705 62 68.705 62 71l3 1c4.062 4.554 6.343 7.821 6 14-2-2-2-2-3-5a148.077 148.077 0 0 0-3.492-3.504C58.165 71.203 52.465 64.051 47 57v-1z" fill="#919088"/><path d="M95 136h1c.125 6.75.125 6.75-1 9 .149 3.734.401 7.446.684 11.172.3 4.465.284 8.414-.684 12.828l-1-2-3-1-1-3h2v-3l-2-2h2l-.563-1.688c-.511-2.705-.014-4.645.563-7.312l-1-1a99.984 99.984 0 0 1 0-5h2l2-7z" fill="#0673C7"/><path d="M13 12h1v9l2 1-12-2v4l-3 1c-1.176-3.674-1.074-7.17-1-11h12l1-2z" fill="#071D4F"/><path d="M36 0c1.813.125 1.813.125 4 1 2.718 4.24 3.884 8.873 5.234 13.672.723 2.506.723 2.506 2.516 5.14C49 22 49 22 48.688 24.813L48 27c-1.813.688-1.813.688-4 1a101.46 101.46 0 0 1-3-3c-2.606-.722-2.606-.722-5-1v-1h7l1 3h2c-2.772-7.42-5.678-14.702-9.082-21.855C36 2 36 2 36 0z" fill="#4C5460"/><path d="m57 96 1 3h9c-1 2-1 2-3.152 2.816C57.562 103.5 51.497 104.591 45 105l-2-5 1.75.625c2.77.462 3.896-.196 6.25-1.625v-2l6-1z" fill="#936E49"/><path d="m93 25 2.75 1.5c3.259 1.78 3.259 1.78 7.25 1.5l1-2c1.459.141 2.917.288 4.375.438.812.08 1.624.162 2.46.246C113 27 113 27 115 28l1-2 3 2c-4.334 1.3-8.503 2.406-13 3l-2.762.387C96.517 32.17 92.118 31.942 86 29v-1l2.938-.938C91.84 26.305 91.84 26.305 93 25z" fill="#D7BBB2"/><path d="M91 82h18c-1 4-1 4-2 5-2.1.152-4.207.222-6.313.25l-3.488.078C93.783 86.978 92.466 86.313 90 84l1-2z" fill="#CC9394"/><path d="M31 61h6v2l2.188.313c3.09.755 5.23 1.842 7.812 3.687v2h4l2 6c-1.688.813-1.688.813-4 1-2.5-2.188-2.5-2.188-5-5-3.779-4.015-7.468-6.976-13-8v-2z" fill="#605340"/><path d="m0 123 6 3 1-2v4H5l-.402 2.082-.535 2.73-.528 2.708C3 138 3 138 2 141a188.955 188.955 0 0 0-.563 6.188l-.253 3.292L1 153H0v-30z" fill="#941C30"/><path d="M84 152h1a212.167 212.167 0 0 1-3 24h-1c-.505-2.895-1.004-5.79-1.5-8.688l-.434-2.474C78.388 160.85 77.801 157.063 78 153l3 3 2-3 1-1z" fill="#B5C7DA"/><path d="M79 28c-4.75 3.875-4.75 3.875-7 5-.915 2.805-.915 2.805-1.625 6.063-.39 1.657-.39 1.657-.79 3.347-.192.855-.386 1.71-.585 2.59h-3a497.982 497.982 0 0 1-.125-5.75l-.07-3.234c.192-2.975.553-4.564 2.195-7.016 3.926-2.29 6.653-2.011 11-1z" fill="#ADA49D"/><path d="m0 21 2 3h2c.832 5.72 1.12 11.222 1 17l-5 1V21z" fill="#142B5C"/><path d="M82 172c1.063 1.813 1.063 1.813 2 4l-1 3h3a1074439539.15 1074439539.15 0 0 1 3.027 9.766c2.216 7.367 2.216 7.367.973 11.234h-2c-1.019-3.16-2.011-6.33-3-9.5l-.867-2.688C82.437 182.322 81.678 177.744 82 172z" fill="#0165B9"/><path d="M10 85c2.375.688 2.375.688 5 2 1.313 2.625 1.313 2.625 2 5h2v2h2v2h2v2h2a417.885 417.885 0 0 1 2 3.813l1.125 2.144C29 106 29 106 29 109l-3-1-.848-2.191c-1.485-3.62-3.893-6-6.59-8.746C14.846 93.278 12.172 89.939 10 85z" fill="#C6969B"/><path d="M50 79h4l2 8h3l-1 4c-3.823-.26-5.58-.612-8.438-3.25C48 85 48 85 48.188 82.25 49 80 49 80 50 79z" fill="#B8BFC1"/><path d="M94 126h2c-.987 6.117-2.12 12.207-6.688 16.563L87 144c.18-7.07 1.87-12.87 7-18z" fill="#0C5DA3"/><path d="M36 48c6.557-.477 11.306.642 17 4 1.762 1.637 1.762 1.637 3 3a84.76 84.76 0 0 1-7-2v3h-4v-2l-2.25-.875A81.918 81.918 0 0 1 36 50v-2z" fill="#B3B8B9"/><path d="M69 84c2 2 2 2 2.938 4.563L73 91l3 1v-6l2.188 2.313c2.651 2.731 2.651 2.731 5.624 4.374L86 94v2H76l1-3-2.875.125C71 93 71 93 69 91c-.125-3.625-.125-3.625 0-7z" fill="#9D7861"/><path d="M118 22c6.821 1.471 10.06 4.09 14 10v4a69.17 69.17 0 0 0 1 4l-3 2-.402-1.863-.536-2.45-.527-2.425c-.534-2.407-.534-2.407-1.535-5.262a220.523 220.523 0 0 0-7-2l-1-2 2-1-3-3z" fill="#AEADAD"/><path d="M33 46c14.781.595 14.781.595 21 4v2l-3.375-.875C45.784 49.91 40.9 48.944 36 48c1.285 2.57 2.5 2.904 5.063 4.125l2.222 1.07L45 54c-2.467.883-3.639 1.131-6.14.223l-2.11-1.16-2.14-1.153L33 51v-5z" fill="#8A8B89"/><path d="M122 135h1c-.47 9.594-1.942 18.642-4 28l-3-1c1.179-9.336 3.226-18.019 6-27z" fill="#C8D2DD"/><path d="M102 56c6.986-.506 11.202-.033 17 4v1h-12l-1 2v-2h-3l-1-5z" fill="#9B7C70"/><path d="m121 78 3 1c-1.025 5.329-2.79 9.098-7.188 12.375L114 93c.06-1.605.15-3.21.25-4.813l.14-2.707c.61-2.48.61-2.48 2.532-4.304C119 80 119 80 121 80v-2z" fill="#DCB298"/><path d="M41 55c3.55-.089 5.522.577 8.18 2.93C55 64.247 55 64.247 55 69h-2l-.75-1.813C49.159 61.779 43.628 60.697 38 59l1.875-.375c2.316-.497 2.316-.497 4.125-2.625l-3-1z" fill="#4F412E"/><path d="M125 99h1c.413 26.177.413 26.177-2 36h-1a490.71 490.71 0 0 1-.563-4.375l-.316-2.46C122 126 122 126 123 124c.02-1.77-.009-3.542-.063-5.313-.073-6.711.872-13.096 2.063-19.687z" fill="#A3B0BC"/><path d="m36 77 3 1 .25 3.875c.212 2.189.212 2.189.75 4.125 1.934 1.3 1.934 1.3 4 2 .75 2.125.75 2.125 1 4l-5-4 1.063 2.75C42 94 42 94 41 98l-6-7 1-2 2 1-1-2c-.228-1.87-.41-3.747-.563-5.625l-.253-3.04L36 77z" fill="#895C59"/><path d="M43 62c2.944-.245 4.658-.176 7.313 1.188C52 65 52 65 52.25 67.688L52 70l4 1-1 3-4-1v-4h-4l-1-2-3-1v-4z" fill="#6D6153"/><path d="M35 42c1.791-.054 3.583-.093 5.375-.125l3.023-.07C46 42 46 42 48 44a69.688 69.688 0 0 0 4.625 1.625c.817.26 1.635.52 2.477.79L57 47v2l-3.625-.875C46.978 46.692 40.493 45.868 34 45l1-3z" fill="#3F2E1B"/><path d="M20 0h6v3h-2v11l-4 1V0z" fill="#3B2C39"/><path d="M104 19v1l-2.371.184-3.067.253-3.058.247c-2.44.048-2.44.048-3.504 1.316-1.666.04-3.334.043-5 0v2c-8.429 3.286-8.429 3.286-13 4 1-3 1-3 3.375-4.5C86.338 19.791 94.308 18.543 104 19z" fill="#B0AEAB"/><path d="M18 0h1v21h-5L12 6h2l3 9 1-15z" fill="#090C22"/><path d="M79 166h1c.793 3.312 1.584 6.625 2.375 9.938l.672 2.806A974.811 974.811 0 0 1 87 196h-2l-.867-2.613a440.506 440.506 0 0 0-2.203-6.43C79.516 179.76 78.453 173.581 79 166z" fill="#0B1F36"/><path d="M31 86c5.8 5.45 11.292 11.422 14 19l-3 1c-.235-.71-.47-1.42-.71-2.152-1.992-4.398-5.225-7.626-8.392-11.227C31 90 31 90 31 86z" fill="#BDAAAB"/><path d="M22 49h5c1.802 3.83 2.196 6.781 2 11-3.06-.328-4.058-1.057-6.313-3.25C21 54 21 54 21.25 51.187L22 49z" fill="#A69AA4"/><path d="m78 56 2.375.563c4.664.562 8.985.033 13.625-.563v5l-14 1v-3h-2v-3z" fill="#A48174"/><path d="M18 33c3.28.437 4.961 1.408 7 4 .188 2.191.188 2.191 0 4.563-.25 2.326-.25 2.326 0 4.437l3 2-1 4v-3h-5v-5l-4-1v-2h5c-1.168-3.814-1.168-3.814-4.125-6.313L17 34l1-1z" fill="#40465E"/><path d="M0 95c5.63 3.861 11.368 8.11 15 14 .188 2.746.188 2.746 0 5l-2 1-.648-2.082c-1.754-3.786-4.216-6.512-6.977-9.606C0 97.26 0 97.26 0 95z" fill="#BE8087"/><path d="M8.563 47.938 12 48c.043 2 .04 4 0 6-1 1-1 1-3.938 1.188C5 55 5 55 3 53c.658-4.346.99-4.982 5.563-5.063z" fill="#95A5B7"/><path d="m160 165 3 1c.688 2.063.688 2.063 1 4-4.537 1.452-8.18 2.235-13 2 1.152-2.468 2.048-4.048 4-6v2l2.313-1.563L160 165z" fill="#D2DBE2"/><path d="m86 142 2 3 3-1v4l2 1c-1.25 2-1.25 2-3 4h-4l-1 4c-.027-1.75-.046-3.5-.063-5.25l-.035-2.953c.086-2.455.39-4.459 1.098-6.797z" fill="#1D7AC2"/><path d="M6 34c2.007.287 4.009.619 6 1 .043 2 .04 4 0 6-1 1-1 1-3.438 1.188C6 42 6 42 4 40c.556-4.556.556-4.556 2-6z" fill="#A1B1BF"/><path d="M78 27h3v2h5c-1.339 2.677-2.72 2.951-5.438 4.125l-2.433 1.07C75.56 35.166 73.77 35 71 35c1.333-3.999 3.53-4.785 7-7v-1z" fill="#C6A28C"/><path d="m12 22-1 7c-2.375.125-2.375.125-5 0l-2-2c.25-2.563.25-2.563 1-5 2.667-1.333 4.167-.671 7 0z" fill="#788BA2"/><path d="M20 71c5.934 4.698 10.425 9.986 15 16l-1 2c-5.086-4.152-10.332-8.493-14-14v-4z" fill="#BD787F"/><path d="m132 56 5 1c.236 5.778-.132 10.513-2 16h-1l-1-11-3-1 2-1v-4z" fill="#CBA899"/><path d="M82 61c4.468-.213 7.823.409 12 2-.188 2.313-.188 2.313-1 5-3.168 2.464-6.054 3.436-10 4v-2l7-3v-3h-9l1-3z" fill="#E2B7A5"/><path d="m95 91.813 2.688.519C100 93 100 93 102 95c-3.823 1.423-6.913 2.24-11 2l-1-3h-2v-2c2.68-1.34 4.089-.776 7-.188z" fill="#E6B9A8"/><path d="m131 64 3 1v8l-4 2v-2h-2c-.262-3.146-.248-4.618 1.5-7.313L131 64z" fill="#BD8770"/><path d="m5 41 6 1v2l-2 1 4 2v8l-2-1 1-6c-4.646.485-4.646.485-9 2 .588-3.024 1.227-6.018 2-9z" fill="#304A77"/><path d="m110 87 1 3c-5.01 3.006-8.327 3.293-14 3l1-2h2v-2c6.625-3.125 6.625-3.125 10-2z" fill="#D6A593"/><path d="m76 78 2 3 1.324 1.973 1.364 2.09 1.386 2.097L83 89l-1 2c-4.162-2.554-7.23-4.95-10-9v-2l4-2z" fill="#B68C72"/><path d="M106 69h4v2l2.313.813C114.904 72.957 116.3 73.763 118 76v3l-5-1-1-3-2-1-1 2-.313-1.875c-.562-2.49-.562-2.49-3.687-4.125l1-1z" fill="#C48972"/><path d="M93 74h16v2h-4v2h-8v-2l-4-1v-1z" fill="#B17C6A"/><path d="M47 56c3.811.213 4.944.943 7.676 3.723.891 1.103 1.77 2.216 2.636 3.34A403.127 403.127 0 0 1 62 69l-1 1.999c-10.743-9.226-10.743-9.226-14-15z" fill="#9A9E9A"/><path d="M84 45h1l.813 3.438L87 52l3 1v2c-2.652 1.075-5.284 2.095-8 3l-2-2v-4l3-1 1-6z" fill="#DDBCAA"/><path d="m57 76 .25 3.375c.329 3.683.329 3.683 2.813 5.063L62 85c.366 3.938.302 5.565-2 8.875L58 96l2-10-2.5-1.188L55 83c-.313-2.688-.313-2.688 0-5h-7v-1c3.153-.7 5.727-1 9-1z" fill="#88877E"/><path d="M66 62h4c2.68 4.019 2.156 6.242 2 11-4.004-1.335-4.707-3.56-7-7 .375-2.188.375-2.188 1-4z" fill="#AC7F67"/><path d="M133 47c1.007 5.035.974 8.24-1 13h-2c-.982-4.053-1.082-7.839-1-12 2-1 2-1 4-1z" fill="#C7B9B2"/><path d="M120 27c3.927 1.309 6.44 2.708 9 6 1.261 4.625 1.082 9.24 1 14-1.182-2.127-1.983-3.91-2.438-6.313-.75-3.587-1.799-6.465-3.562-9.687-3.052-1.52-3.052-1.52-6-2l2-2z" fill="#BEA092"/><path d="M4 8c2-.043 4-.04 6 0 1 1 1 1 1.125 3.5C11 14 11 14 10 15c-1.666.04-3.334.043-5 0L4 8z" fill="#89A"/><path d="M79 95c4.255.473 6.225 2.925 9 6l1 2-4-1v2c-3.335-1.38-5.186-2.85-7-6l1-3z" fill="#B7927B"/><path d="M69 79h3c4.592 8.262 4.592 8.262 4 13-3.875-.875-3.875-.875-5-2a88.246 88.246 0 0 1-.5-4.438c-.291-3.407-.291-3.407-1.5-6.562z" fill="#B5B7B3"/><path d="M55 38c2.629 2.358 4.146 4.801 5.75 7.938l1.36 2.59c.974 2.705.896 3.829-.11 6.472a128.606 128.606 0 0 1-7-2l-1-2 5 1c-.782-4.847-2.398-9.377-4-14z" fill="#585C62"/><path d="m4 20 3.875-.188 2.18-.105L12 20l2 3c2.584.25 2.584.25 5 0l-1 4-7 1 1-6-8 1v-3z" fill="#536481"/><path d="M113 22v2l2.813-.688L119 23c1.7 1.48 1.7 1.48 3 3-9.41 2.48-9.41 2.48-14 1 0-2 0-2 1.375-3.625C111 22 111 22 113 22z" fill="#C1BABA"/><path d="M3 7h10v7h-3V9L4 8l1 6H0V8l2 3 1-4z" fill="#3D516E"/><path d="M180 165c0 3.617-1.021 5.032-3 8-2 2-2 2-6 3l2-9 2.375.125c2.786.162 2.786.162 4.625-2.125z" fill="#0A0E18"/><path d="M59 59h3c1.203 2.405 1.1 3.95 1.063 6.625l-.028 2.477L63 70c-2.5-1.625-2.5-1.625-5-4-.375-3.188-.375-3.188 0-6l1-1z" fill="#CED2D1"/><path d="M21 17c1.938.313 1.938.313 4 1l1 3 2 1-15 2v-2l7-1 1-4z" fill="#363142"/><path d="M84 171h8l1 3c-3.061 2.624-3.732 3-8 3l-1-6z" fill="#117DCF"/><path d="M105 141c2 2 2 2 2.125 4.625L107 148l-8-1-1-4h7v-2z" fill="#04539A"/><path d="m23 30 3 1v10l3 1-1 6-4-2 .035-1.723C24.092 39.393 23.82 34.815 23 30z" fill="#291F23"/><path d="M95 115c2 1.625 2 1.625 4 4 .25 3.25.25 3.25 0 6-1.813-.063-1.813-.063-4-1-1.75-3.563-1.75-3.563-3-7l3-2z" fill="#0966AF"/><path d="m107 183 3 4h2c-.72 4.609-2.313 8.672-4 13h-1v-17z" fill="#A0AFC0"/><path d="M109.938 119.688c2.368 1.506 4.151 3.265 6.062 5.312l-1.863-.254-2.45-.308-2.425-.317c-2.43-.269-2.43-.269-5.262.879l-2 3c-.366-4.512-.366-4.512 1.313-6.75 2.3-1.704 3.84-2.55 6.624-1.563z" fill="#9DAEC1"/><path d="M39 87c4.086 1.362 4.99 3.266 7 7-.25 2.875-.25 2.875-1 5l-3-1c-.95-2.504-.95-2.504-1.688-5.563l-.761-3.066L39 87z" fill="#644C3C"/><path d="M91 82c2.125-.054 4.25-.093 6.375-.125l3.586-.07C104 82 104 82 106 84c-2.61 1.305-4.59 1.133-7.5 1.125l-2.969.008C93 85 93 85 91 84v-2z" fill="#D1CEC5"/><path d="M79 28c-4.08 3.697-7.864 5.259-13 7 1.333-5.574 1.333-5.574 4.25-7.438 3.211-.656 5.577-.3 8.75.438z" fill="#A49B93"/><path d="M32 25h10v5l-10-2v-3z" fill="#81868D"/><path d="M98 127h2c2.68 4.019 2.156 6.242 2 11h-3c-1.203-2.405-1.1-3.95-1.063-6.625l.028-2.477L98 127z" fill="#004E9F"/><path d="m77 97 5 5-2 1c-1.054 3.162-1.313 5.87-1.563 9.188l-.253 3.292L78 118h-1V97z" fill="#DDE4E7"/><path d="m110 100-3 1-1 3c-1.48-.114-2.96-.241-4.438-.375-.823-.07-1.647-.14-2.496-.21L97 103l-1-2c2.394-1.197 4.34-1.354 7-1.625.887-.095 1.774-.19 2.688-.29C108 99 108 99 110 100z" fill="#95786D"/><path d="M32 64c3.344.557 6.033 1.352 9 3-2.667 1.333-4.167.671-7 0l1 2.188c1.006 2.829 1.17 4.841 1 7.812l-2-1c-1.268-4.296-2-7.51-2-12z" fill="#8E7B7A"/><path d="M1 41h4c-.588 3.024-1.227 6.018-2 9H1l-1 2a757.916 757.916 0 0 1-.063-4.938l-.035-2.777C0 42 0 42 1 41z" fill="#031A54"/><path d="M58 100v3c-2.75.917-4.36 1.109-7.188 1.063L47 104c3.23-4.768 5.458-5.348 11-4z" fill="#916840"/><path d="M88 75c2.875.25 2.875.25 6 1l2 4-12-1 1-2h3v-2z" fill="#D9B09E"/><path d="M43 67c5.461.88 5.461.88 8 2 1.5 3.125 1.5 3.125 2 6l-4 1-6-9z" fill="#51402A"/><path d="m25 59 4 1 1 4h2l2 11c-2.718-2.718-3.65-4.048-5.063-7.438C27.712 64.654 26.44 61.81 25 59z" fill="#A1464E"/><path d="M16 35c2.375-.125 2.375-.125 5 0 2 2 2 2 2 6-2.375.125-2.375.125-5 0l-2-2v-4z" fill="#808FA3"/><path d="M83 158h1c-.142 2.063-.289 4.125-.438 6.188-.08 1.148-.162 2.297-.246 3.48A66.066 66.066 0 0 1 82 176h-1c-.983-4.056-1.236-7.83-1-12l2-2c.643-2.069.643-2.069 1-4z" fill="#A0B7D1"/><path d="M110 66h7l2 4c-3.378.845-5.675 1.108-9 0v-4z" fill="#EFBDA8"/><path d="M118 64h7l1 5c-3.287.8-4.71 1.097-8 0v-5z" fill="#E2AC92"/><path d="M86 55h12l-1 3h-2l-1 3-1-1a235.648 235.648 0 0 0-7-1v-1h8v-2l-9 1 1-2z" fill="#C7A08F"/><path d="M117 21v3h-4v-2l-3.313 1.063C106 24 106 24 103 23c1-2 1-2 3.625-3.25 4.085-.908 6.486-.15 10.375 1.25z" fill="#AFAFAF"/><path d="M14 12v9l2 1-8-2v-3h2v-2c2.654-3 2.654-3 4-3z" fill="#061A4A"/><path d="M20 165h2v2h2l1 6-1-2-2 1c-.656 2.527-.656 2.527-1 5h-1c-1.286-8.571-1.286-8.571 0-12z" fill="#0B0E17"/><path d="M156 131h2a95.536 95.536 0 0 1-7 17c-1.346-4.037-.192-5.722 1.375-9.625l1.398-3.54C155 132 155 132 156 131z" fill="#121926"/><path d="m113 93 1 3c-4.65 3.608-8.701 3.36-14.313 3.188l-2.533-.042A565.36 565.36 0 0 1 91 99v-1l2.781-.148c6.648-.405 12.833-.936 19.219-2.852v-2z" fill="#CB9B87"/><path d="m37 53 4 1v2h3l-1 3-13-2 1-2 6 1v-3z" fill="#483A27"/><path d="m19 28 17 2v1l-13-1v5c-2-1.25-2-1.25-4-3v-4z" fill="#353242"/><path d="M154 165c-.613 2.962-1.254 4.38-3 7-2.625.188-2.625.188-5 0 1.86-4.15 3.17-7 8-7z" fill="#E0E7EC"/><path d="M62.563 92.938 65 93l-1.938.875c-2.214.953-2.214.953-3.062 3.125h8v3l-10-1c1.073-5.977 1.073-5.977 4.563-6.063z" fill="#685038"/><path d="M47 87c2.313.188 2.313.188 5 1 1.813 2.563 1.813 2.563 3 5-2.169-.506-4-1-6-2l-1 2-2-2c.375-2.125.375-2.125 1-4z" fill="#939D9F"/><path d="m52 66 1 3h2l1-2c2 3 2 3 1.625 5.188L57 74l2 1c-3.823 1.423-6.913 2.24-11 2l1-2c1.938-.563 1.938-.563 4-1l2-1v-2l-3-1v-4z" fill="#635949"/><path d="m120 55 3 2v3l-2 1v2l-3-1-1-2-3-2 6-3z" fill="#C19F90"/><path d="M90 71c0 2 0 2-1.563 4-2.99 2.454-5.7 3.138-9.437 4 1.056-3.284 2.617-4.572 5.5-6.25C88 71 88 71 90 71z" fill="#BA826D"/><path d="M43 62h4l1 4h3v3h-4l-1-2-3-1v-4z" fill="#76695C"/><path d="M0 117c5.875 4.75 5.875 4.75 7 7l-1 2c-4.875-1.875-4.875-1.875-6-3-.04-2-.043-4 0-6z" fill="#C19DA4"/><path d="M125 82c.625 1.813.625 1.813 1 4-2 3-2 3-5.125 3.688L118 90l2-2 .938-2.563L122 83l3-1z" fill="#C29477"/><path d="M41 55c2.875.313 2.875.313 6 1l2 3c-3.25 1.188-3.25 1.188-7 2-2.438-1.375-2.438-1.375-4-3h5l1-2-3-1z" fill="#5C4E39"/><path d="m75 51 2 1v2l3 1-2 4 2 1-3 1c-1.563-1.063-1.563-1.063-3-3 .313-3.688.313-3.688 1-7z" fill="#D5AC98"/><path d="M42 42c3.662.627 6.882 1.645 10.313 3.063l2.675 1.097L57 47v2a302166777.612 302166777.612 0 0 0-6.738-1.465C48 47 48 47 45 46v-3l-3-1z" fill="#2C211C"/><path d="m189 124 4 1c-1.09 3.775-1.908 6.47-5 9-1.274-2.547-.802-3.428-.063-6.125l.59-2.195L189 124z" fill="#2A3342"/><path d="M57 70c3.83 1.453 5.12 3.429 7 7h-2v2h-2l-.375-1.938L59 75l-2-1v-4z" fill="#4E4130"/><path d="M65 34c1.424 2.848 1.17 5.328 1.188 8.5l.042 3.531C66 49 66 49 64 51a519.13 519.13 0 0 1-.625-6.25l-.352-3.516C63 38.061 63.303 36.617 65 34z" fill="#868787"/><path d="M43 9c4.084 4.648 6.845 9.154 7.188 15.438L50 27l-2-1-.375-2c-.752-3.608-2.197-6.603-3.785-9.914C43 12 43 12 43 9z" fill="#67717C"/><path d="m122 114 2 1v9l-2-1-2 2c.875-7.625.875-7.625 2-11z" fill="#CAD5DE"/><path d="M94 81h21l-1 2c-2.563.625-2.563.625-5 1v-2H94v-1z" fill="#925E5B"/><path d="M42 74h4l2 3c3.568.736 3.568.736 7 1v5l-1-4H44l-2-5z" fill="#9B9F9E"/><path d="m45 21 3 2v4c-1.813.688-1.813.688-4 1a101.46 101.46 0 0 1-3-3c-2.606-.722-2.606-.722-5-1v-1h7l1 3h2l-1-5z" fill="#363E4D"/><path d="M121 80h3l-.875 1.688c-1.192 2.293-1.192 2.293-1.875 4.812-1.693 3.386-4.038 4.615-7.25 6.5.813-2.438.813-2.438 2-5l3-1c1.23-3.512 1.23-3.512 2-7z" fill="#D6A991"/><path d="M34 76c3 2 3 2 3.477 4.242l.148 2.633c.199 3.172.506 6.062 1.375 9.125-2-1.438-2-1.438-4-4-.25-2.34-.19-4.532-.043-6.879.165-2.312.165-2.312-.957-5.121z" fill="#982F36"/><path d="M50 79h4l-1 4v-3l-2 1c.557 3.344 1.352 6.033 3 9h-2c-2.188-2.188-2.188-2.188-4-5 .293-4.293.293-4.293 2-6z" fill="#ADB5B7"/><path d="M62 77h3v5h3v4l-5-2-1-7z" fill="#403120"/><path d="M1 50h2l.688 1.938c1.165 2.334 1.165 2.334 3.937 2.812L10 55v2c-3.856.22-6.492-.396-10-2l1-5z" fill="#354C78"/><path d="M13 29h4a108.817 108.817 0 0 1-1 7l-2 1-.375-2.438L13 32l-2-1 2-2z" fill="#021952"/><path d="m95 23 6 1v2h2v2c-1.75.75-1.75.75-4 1-2.25-1.813-2.25-1.813-4-4v-2z" fill="#CDBDBA"/><path d="M20 0h6v3h-2v2l-4 1V0z" fill="#352634"/><path d="M96 111h7l-1 4h-6l-1-2 1-2z" fill="#A07D68"/><path d="M40 47c5.654-.346 9.03.566 14 3v2c-4.754-1.148-9.379-2.383-14-4v-1z" fill="#7B7C79"/><path d="m72 94-1 4c-2.84 0-5.237-.403-8-1 1-2 1-2 2.813-2.625C68 94 68 94 72 94z" fill="#39281D"/><path d="M88 70c1.875.25 1.875.25 4 1 1.25 2.063 1.25 2.063 2 4-2.49 1.245-3.41.777-6 0v2l-2-1 2-3h2v-2l-2-1z" fill="#C89580"/><path d="m34 67 7 1 1 5c-3.366-1.443-5.51-3.333-8-6z" fill="#9CA1A2"/><path d="M107 61h11l-2 3c-1.945.293-1.945.293-4.125.188L108 64l-1-3z" fill="#D3ADA1"/><path d="M22 23h5v5h-5v-5z" fill="#85868C"/><path d="M22 22c2.23.142 4.459.289 6.688.438 1.24.08 2.482.162 3.761.246 2.933.26 5.685.664 8.551 1.316v1c-13.375 0-13.375 0-19-2v-1z" fill="#4E535D"/><path d="m48 93 8 2v-2h2l-1 4c-5.625.25-5.625.25-9-2v-2z" fill="#939087"/><path d="m27 79 8 8-1 2a197.99 197.99 0 0 1-3.5-2.75c-.65-.51-1.3-1.02-1.969-1.547C27 83 27 83 27 79z" fill="#BA6970"/><path d="M94 76h3v2l4 1v2l-8 1-1-2 3-1-1-3z" fill="#CA9D90"/><path d="M106 69h4v2l3 1v2h-3l-1 2-.313-1.875c-.562-2.49-.562-2.49-3.687-4.125l1-1z" fill="#BA8370"/><path d="M102 56h9v2c-2.906 1.257-4.796 2-8 2l-1-4z" fill="#C1927C"/><path d="m27 24 3 1c2.638-.394 2.638-.394 5-1l-3 1v3l4 1-9-1v-4z" fill="#656C73"/><path d="M6 23h5v5l-5-1v-4z" fill="#A8B6C2"/><path d="M10 85c3.653 1.25 4.78 1.671 7 5-.375 2.188-.375 2.188-1 4-2.969-2.545-4.362-5.49-6-9z" fill="#C49197"/><path d="m6 77 2 1v2h2v3h2v2c-2.867-.573-3.861-.861-6-3-.125-2.625-.125-2.625 0-5z" fill="#C7A5AB"/><path d="m128 32 3 1c1.188 3.563 1.188 3.563 2 7l-3 2-2-10z" fill="#B3A5A0"/><path d="m91 117 3 3a518.545 518.545 0 0 1-4.875 2.063l-2.742 1.16C84 124 84 124 82 123l9-6z" fill="#9AA7B4"/><path d="M62 85h2l1 8h-5l2-8z" fill="#756B60"/><path d="M98 58h4v4h-2v2h-2c-1.125-3.75-1.125-3.75 0-6z" fill="#E8BEAC"/><path d="M6 34c2.063.438 2.063.438 4 1H7v5l4 2c-2.375.125-2.375.125-5 0l-2-2c.556-4.556.556-4.556 2-6z" fill="#7A8EA6"/><path d="m2 1 3 1v3L0 7V2l2-1z" fill="#010F41"/><path d="M0 0h10L9 3 0 2V0z" fill="#3F4F69"/><path d="M96 115c2.875-.125 2.875-.125 6 0l2 2h-2v2l-6-2v-2z" fill="#0A5299"/><path d="M69 84c2 2 2 2 2.938 4.5.92 2.802.92 2.802 4.062 4.5-2.375.125-2.375.125-5 0-2-2-2-2-2.125-5.625L69 84z" fill="#716959"/><path d="m93 86 13 1v1c-.94.09-.94.09-1.898.184l-2.477.254c-.812.08-1.624.162-2.46.246-2.208.207-2.208.207-4.165 1.316l-3-1 1-3z" fill="#DFB1A5"/><path d="M84 80h8l1 2h-2v2a101.168 101.168 0 0 1-6-2l-1-2z" fill="#8B6B5F"/><path d="m115 73 6 1-1 6-3-1v-5l-2-1z" fill="#D3997F"/><path d="M31 61h6v2h4v2l-10-2v-2z" fill="#564736"/><path d="m132 48 2 1c-.75 6.625-.75 6.625-3 10-.125-7.625-.125-7.625 1-11z" fill="#C4C1BE"/><path d="M13 27c2.375-.125 2.375-.125 5 0l2 2c-.188 2-.188 2-1 4l-3 2 1-7-4-1z" fill="#29345A"/><path d="m0 21 2 3h2l1 4-5 1v-8z" fill="#384E72"/><path d="m160 165 3 1c.688 2.063.688 2.063 1 4l-4 1v-4l-2-1 2-1z" fill="#BFCAD2"/><path d="M95 115c3.938 3.323 3.938 3.323 4.25 6.75L99 124h-2v-5l-4-2 2-2z" fill="#1476C8"/><path d="M80 85h3l1 4h2l1 4c-3.356-1.389-5.073-2.917-7-6v-2z" fill="#D1A38B"/><path d="M1 71h1l1 5 3 1-1 4c-3.611-3.876-3.611-3.876-5-6 .188-2.375.188-2.375 1-4z" fill="#B77D87"/><path d="m110 74 3 1v3l2 1-10-1v-2h5v-2z" fill="#CB9984"/><path d="m33 40 9 1v1h-7l-1 3h-1v-5z" fill="#2C2119"/><path d="m115 26 4 2c-6.4 2.215-6.4 2.215-9.438 1.125L108 28v-1l7 1v-2z" fill="#CAB0A9"/><path d="M5 15h5v2H8v3l-4-1 1-4z" fill="#243B63"/><path d="m49 91 9 1-2 1v2h-5l-2-4z" fill="#9CA2A4"/><path d="M104 82h5l-1 4h-6l2-4z" fill="#BB9091"/><path d="M27 52c2 2 2 2 2.125 5.125L29 60c-1.938-.313-1.938-.313-4-1l-1-3h3v-4z" fill="#A5868A"/><path d="M46 28h5v4l-5-1v-3z" fill="#969CA0"/><path d="M147 131v3h-7v-2c3-1 3-1 7-1z" fill="#B7A19F"/><path d="m76 62 4 1-1 9h-1l-.438-3.313C77.118 65.07 77.118 65.07 76 62z" fill="#E1B59F"/><path d="m66 62 3 1-1 6c-1.563-1.25-1.563-1.25-3-3 .313-2.188.313-2.188 1-4z" fill="#A87361"/><path d="M13 34c3 2 3 2 3.688 4.125L17 40l-6 2 2-8z" fill="#2F4670"/><path d="M78 27h3v2h5l-1 2h-6l-1-4z" fill="#C8AA97"/><path d="m80 165 1 3h2l-1 8h-1l-1-11z" fill="#8599B4"/><path d="M78 153c3.375 4.5 3.375 4.5 3 9l-2 1-1-10z" fill="#B1BCCA"/><path d="m89 133 1 3 2 1-1.938.813C87.67 138.887 87.67 138.887 87 142c.875-6.75.875-6.75 2-9z" fill="#3A74A8"/><path d="M94 126h2c-.547 3.375-1.055 5.082-3 8h-2l.938-1.75c.988-2.093 1.579-3.995 2.062-6.25z" fill="#01346D"/><path d="M101.625 99.875 105 100c-1.688 1.563-1.688 1.563-4 3-2.75-.313-2.75-.313-5-1 2-2 2-2 5.625-2.125z" fill="#856961"/><path d="m79 95 4 2h-2l1 4-3-1c-.75-2-.75-2-1-4l1-1z" fill="#AF8D76"/><path d="m67 73 4 1v5h-2c-2-3-2-3-2-6z" fill="#DAB3A1"/><path d="M78 24c-5.75 5-5.75 5-8 5v-3c4.281-3.24 4.281-3.24 8-2z" fill="#9A9E9E"/><path d="m36 0 4 1v7c-2.154-2.622-3.4-4.644-4-8z" fill="#484F58"/></svg>