<svg xmlns="http://www.w3.org/2000/svg" width="200" zoomAndPan="magnify" viewBox="0 0 150 150" height="200" preserveAspectRatio="xMidYMid meet" xmlns:v="https://vecta.io/nano"><path fill="#fff" d="M81.453.105L153.445.07c.305 0 .391.043.391.375v153.027c0 .309-.07.363-.371.363L.438 153.832c-.285 0-.371-.035-.371-.355l.008-86.324c.094-.047.125.02.168.125l.02 3.027v2.105 2.566c.023.285.012.531.012.785v68.941l-.008.898-.008 1.797c0 .559.051.594.594.613 1.219.043 2.422-.07 3.625-.266 1.332-.211 2.668-.434 4.02-.449 1.074-.012 2.145.117 3.211.285l9.219 1.23 4.156.246c.563-.008 1.117.094 1.684.082l5.73-.164 4.387-.152 5.695-.145c3.676-.141 7.328-.523 10.957-1.129 1.961-.328 3.93-.645 5.914-.793 1.719-.129 3.441-.137 5.172-.043l3.699.25 3.809.328 3.324.273 3.551.27 3.809.32 5.184.566 4.887.504c3.258.293 6.523.246 9.785.191 1.922-.035 3.852.02 5.773-.07 1.254-.059 2.5-.02 3.75-.066 1.941-.066 3.828-.359 5.609-1.191 1.02-.473 2.141-.598 3.242-.773 1.754-.27 3.523-.496 5.301-.414 1.836.09 3.672.133 5.508.141.441 0 .871-.074 1.309-.09a23.62 23.62 0 0 1 5.004.391c1.492.277 2.699-.332 3.668-1.426 1.457-1.637 1.82-3.598 1.629-5.707-.109-1.215-.371-2.398-.707-3.566a7.92 7.92 0 0 0-.777-1.824c-.422-.738-1.039-1.281-1.797-1.656-1.375-.684-2.855-.961-4.367-1.156-1.703-.211-3.367.027-5.016.434a8.42 8.42 0 0 1-.625.125c-.75.117-1.184-.078-1.566-.738-.504-.867-.742-1.828-.937-2.797-.41-2.012-.641-4.051-.934-6.086-.371-2.613-.883-5.203-1.5-7.77-.652-2.727-1.25-5.461-1.711-8.23-.434-2.598-1.301-5.055-2.387-7.445-.395-.863-.715-1.762-1.02-2.664-.488-1.441-1.113-2.816-1.93-4.098-.75-1.191-1.383-2.437-1.859-3.758-.371-1.027-.859-2-1.414-2.941-.305-.52-.27-.633.262-.883.625-.297 1.281-.508 1.895-.824 2.223-1.145 4.535-2.113 6.664-3.441 1.176-.734 2.434-1.344 3.551-2.172 1.914-1.418 3.617-3.047 4.82-5.129.203-.348.434-.684.684-.988.758-.918 1.211-1.98 1.508-3.117.082-.312.152-.633.285-.961.176-.176.316-.07.461 0 1.07.523 2.066 1.172 3.066 1.809 1.348.863 2.691 1.734 3.961 2.715.492.375.945.777 1.332 1.258.379.465.805.594 1.211.414.648-.281.816-.953.414-1.602-.395-.633-.945-1.109-1.523-1.543-1.812-1.379-3.723-2.617-5.66-3.809-.691-.426-1.406-.812-2.117-1.215-.137-.078-.297-.141-.34-.352.246-.773.594-1.48.832-2.227.316-1 .535-2.02.73-3.047.027-.148.023-.301.145-.449.18-.09.344-.078.504-.082 1.938-.031 3.871.09 5.805.211l3.629.238c.246.016.461.094.68.195.855.398 1.734-.176 1.719-1.113-.012-.527-.441-.949-1.066-1.008-.375-.039-.746-.066-1.121-.09l-5.836-.363c-1.023-.043-2.047-.137-3.07-.094-.203.008-.402.016-.633-.035-.191-.09-.164-.234-.141-.367.18-1.176.289-2.359.383-3.543.059-.727-.008-1.453-.102-2.168-.207-1.457-.449-2.91-.547-4.387-.082-1.152-.434-2.238-.93-3.262-1.324-2.727-2.66-5.437-4.199-8.047-.687-1.16-1.457-2.277-2.172-3.418-.758-1.211-1.406-2.484-2.043-3.758-.703-1.414-1.52-2.762-2.352-4.098a2.19 2.19 0 0 1-.262-2.004c.484-1.594.703-3.246.848-4.906.055-.66.039-1.32.063-1.984.086-2.352-.621-4.484-1.766-6.5a23.47 23.47 0 0 0-4.348-5.566 7.29 7.29 0 0 0-1.418-1.043c-1.32-.738-2.66-.465-3.609.73-.578.73-1.004 1.547-1.371 2.402-.566 1.32-1.059 2.676-1.629 3.992-.176.406-.297.473-.648.27-1.426-.832-3.027-1.25-4.535-1.895-2.73-1.168-5.582-2.055-8.25-3.395-1.109-.559-2.289-.945-3.52-1.152-.578-.102-1.141-.273-1.73-.336-.379-.039-.672-.316-.969-.547a2.86 2.86 0 0 0-1.043-.496c-.375-.094-.746-.086-1.09.117-.254.148-.457.094-.68-.078-1.121-.863-2.246-1.723-3.531-2.336a2.29 2.29 0 0 0-.676-.223c-.676-.09-1.133.168-1.383.801-.086.215-.191.313-.422.203-.715-.332-1.41-.703-2.094-1.094-.043-.027-.07-.066-.09-.145zm0 0"/><path fill="#eff2ef" d="M.18 67.273c-.043-.047-.055-.09-.086-.145l-.02-46.371c.023-.066.043-.098.09-.137.156-.008.262.066.379.109.539.191 1.074-.012 1.297-.492s.039-1.043-.43-1.328l-.16-.078c-.168-.141-.191-.262.039-.266.238-.008.473.043.703.09.813.164 1.605.398 2.398.629.266.078.531.141.813.137.77-.012 1.258-.648 1.078-1.402-.086-.367-.301-.656-.508-.953-.082-.117-.23-.254-.121-.398.105-.137.281-.047.422-.012l2.48.742.727.184c1.035.199 1.805-.637 1.516-1.648-.137-.488-.414-.91-.68-1.328l-1.309-1.969c-.09-.137-.191-.266-.219-.461.004-.047.012-.066.039-.105.184-.086.313-.008.449.059l5.441 2.703c1.059.516 2.105 1.063 3.27 1.297.52.105 1.047.156 1.535-.129.676-.402.926-1.066.73-1.961-.145-.652-.418-1.258-.75-1.832l-.727-1.316c-.047-.086-.098-.176-.09-.309.012-.039.035-.07.063-.098.336-.023.563.168.813.305l5.496 2.844c.664.285 1.352.516 2.074.637 1.5.25 2.387-.922 2.102-2.133-.195-.836-.586-1.594-.93-2.367l-.062-.137c-.043-.102-.133-.215-.035-.312.109-.113.234-.016.344.035.547.273 1.066.598 1.598.91l5.395 3.188c.934.5 1.859 1.039 2.918 1.25 1.043.207 1.844-.484 1.801-1.547-.02-.48-.176-.934-.355-1.375l-.578-1.504c-.055-.125-.105-.258-.125-.395-.027-.223.082-.281.27-.191.246.121.465.289.688.449l4.055 2.844 2.074 1.207c.715.348 1.102.285 1.621-.293.211-.23.391-.164.586-.004.699.57 1.395 1.152 1.941 1.871.672.891 1.551 1.477 2.586 1.852.398.145.773.348 1.133.582.344.227.34.359-.023.547a8.82 8.82 0 0 0-2.281 1.625c-.5.496-.941 1.039-1.234 1.688-.145.328-.27.352-.582.141-.359-.25-.715-.504-1.02-.828l-.82-.82c-.305-.301-.641-.379-1.062-.262-2.582.707-4.582 2.164-5.766 4.594-.699 1.453-.84 3.02-.719 4.621.117 1.516.395 3 .91 4.43.672 1.871 1.668 3.543 2.965 5.051.793.914 1.703 1.688 2.68 2.387.203.145.352.301.234.563-.336.758-.254 1.539-.133 2.324.172 1.109.207 2.238.293 3.355.102 1.363.402 2.703.887 3.98.285.75.285.738-.453.996s-1.496.297-2.258.348l-3.172.273-3.398.27-3.402.199-2.578.156-4.035.324-4.937.668c-1.914.359-3.766.938-5.578 1.629l-3.848 1.277c-2.453.762-4.754 1.844-6.828 3.379L1.125 66.52c-.305.258-.543.59-.945.754zm0 0"/><path fill="#0f0f0f" d="M18.504 10.531c.473.93 1.047 1.797 1.41 2.77.086.223.164.449.215.68.359 1.531-.641 2.57-2.191 2.285-1.004-.187-1.922-.621-2.832-1.051l-6.238-3.07c-.055-.027-.113-.047-.199-.066-.043 0-.055-.004-.066.016.48.871 1.09 1.637 1.598 2.465.262.434.555.859.699 1.359.305 1.043-.465 1.938-1.539 1.773-.758-.117-1.465-.406-2.199-.613l-1.598-.465.465.645c.168.25.316.504.367.813.145.883-.441 1.551-1.328 1.461-.738-.07-1.414-.402-2.137-.547l-1.664-.363c-.191-.039-.098.066-.02.145.332.449.363.914.113 1.328-.117.203-.285.352-.496.449a1.05 1.05 0 0 1-.664.066c-.129-.102-.082-.219-.082-.324l-.004-3.758c0-.367.07-.441.445-.398.496.055.984.156 1.547.262a2.42 2.42 0 0 1-.477-.613c-.277-.488-.309-.973.023-1.449.348-.492.828-.723 1.422-.652 1.172.145 2.305.469 3.438.789l.906.238c.023-.18-.098-.273-.168-.383l-1.324-2.176a4.35 4.35 0 0 1-.336-.957c-.219-.93.461-1.832 1.422-1.898.535-.039 1.047.063 1.547.234.793.277 1.563.609 2.313.984l5.07 2.535c.504.25 1.023.477 1.551.672-.051-.336-.227-.578-.363-.828-.516-.988-1.16-1.902-1.562-2.949a3.22 3.22 0 0 1-.207-.945c-.055-.996.746-1.668 1.754-1.57.402.039.781.164 1.152.324 1.391.609 2.691 1.387 4.02 2.109l3.875 1.883c.117.043.223.125.379.078-.035-.277-.172-.512-.285-.754l-.859-1.793c-.242-.516-.312-1.055-.254-1.609.086-.785.973-1.391 1.801-1.27.719.109 1.363.414 1.992.746l6.309 3.703 1.738.969c.105.055.203.145.367.121-.117-.402-.285-.773-.43-1.156-.219-.586-.398-1.184-.492-1.809-.16-1.051.488-1.973 1.531-2.125.512-.07.992.109 1.441.332.902.445 1.707 1.043 2.52 1.625l2.168 1.547c.156.109.293.188.453 0 .508-.574 1.156-.547 1.805-.359.887.266 1.621.824 2.348 1.379l2.574 2.184c.109.113.234.211.379.055.133-.145.375-.254.195-.523l-.426-.66c-.555-.988-.266-1.844.785-2.273.223-.094.242-.18.094-.348-.727-.805-.398-2.277 1.07-2.539.813-.148 1.637-.219 2.461-.102.262.035.328-.031.223-.277-.332-.762.176-1.762 1.125-1.992a5.47 5.47 0 0 1 1.672-.121c.34.027.676.008 1.012.016.195.008.262-.051.242-.262-.078-.727.352-1.355 1.051-1.566.781-.238 1.578-.238 2.379-.164l1.609.121c.191.016.246-.047.262-.25.066-.992.559-1.449 1.555-1.398.934.043 1.809.379 2.707.598.227.051.445.145.719.145-.254-.695-.488-1.359.242-1.91l2.992-.02c1.113.191 2.121.641 3.176.91.414.109.41.113.375-.316-.016-.184-.043-.371.07-.566l4.188-.027c.793.5 1.633.852 2.469 1.301.082-.41.227-.758.586-.965.277-.168.586-.219.902-.184.277.027.535.125.785.246 1.258.605 2.367 1.434 3.457 2.293.246.191.414.262.738.094.703-.367 1.359-.078 1.977.289.129.078.246.172.359.273.563.504 1.301.477 1.973.602 1.609.309 3.137.809 4.598 1.543 2.129 1.066 4.402 1.77 6.594 2.68l4.047 1.578c.57.223 1.133.473 1.645.809.262.172.344.09.441-.16l1.617-3.988c.367-.879.793-1.727 1.391-2.473 1.074-1.344 2.391-1.598 3.879-.742.504.289.961.633 1.379 1.031 2.016 1.914 3.629 4.121 4.867 6.605 1.125 2.258 1.395 4.648 1.195 7.117-.156 1.91-.41 3.805-.973 5.645-.121.406-.094.809.137 1.188l1.965 3.367 3.113 5.629c2.254 3.32 4.016 6.906 5.797 10.48.664 1.348 1.051 2.773 1.105 4.285.039 1.027.23 2.035.391 3.047.203 1.309.219 2.613.094 3.926-.074.883-.195 1.758-.355 2.629-.09.141-.219.145-.344.148-.613.016-1.223.102-1.867.094-.219-.086-.176-.25-.148-.391.285-1.223.363-2.469.469-3.715.055-.652-.031-1.301-.105-1.945-.133-1.129-.434-2.246-.445-3.379-.016-2.098-.934-3.867-1.863-5.641l-1.754-3.398c-.863-1.645-1.852-3.207-2.863-4.758-1.066-1.641-1.969-3.367-2.848-5.109-.602-1.195-1.297-2.34-1.984-3.477-1.406 1.016-3.039 1.355-4.699 1.602-1.609.242-2.988-.379-4.297-1.227-.918-.602-1.582-1.449-2.203-2.332-1.391-1.969-2.348-4.121-2.762-6.508-.035-.211-.07-.422-.129-.625-.152-.496-.09-.973.113-1.43.395-.879.625-1.816.969-2.715.117-.305.039-.48-.238-.648-.91-.566-1.91-.922-2.906-1.293-2.055-.766-4.055-1.652-6.113-2.398-1.469-.539-2.898-1.176-4.27-1.926-.359-.195-.742-.297-1.164-.383-.066-.016-.062-.09-.121-.062-.047.023-.008.063.004.012s.078.016.051.02c.566.742.965 1.551 1.391 2.344 1.199 2.223 2.336 4.48 3.246 6.844 1.297 3.367 2.371 6.801 3.023 10.359.352 1.93 1.051 3.75 1.809 5.551.848 2.008 1.664 4.023 2.43 6.063.855 2.266 1.297 4.621 1.57 7.012.348 3.016.988 5.969 1.652 8.922.398 1.809.813 3.613 1.035 5.453.066.547.145 1.086.035 1.641-.211 1.082-1.062 1.664-2.121 1.371-1.16-.324-2.086-1.012-2.844-1.93-.957-1.145-1.746-2.41-2.523-3.68-.617-1.008-1.34-1.93-2.164-2.773-1.687-1.715-3.508-3.285-5.23-4.949-2.574-2.492-5.484-4.551-8.277-6.766-1.586-1.262-3.156-2.539-4.797-3.73-3.047-2.215-5.965-4.598-9.066-6.738-2.172-1.504-4.324-3.027-6.43-4.617l-7.109-5.406c-1.23-.945-2.605-1.633-4.07-2.129-.324-.125-.637-.098-.937.07a20.01 20.01 0 0 0-3.207 2.078c-.562.445-.961 1.008-1.246 1.664-.117.266-.078.453.156.652.789.68 1.516 1.426 2.07 2.316 1.316 2.102 2.977 3.953 4.434 5.953 1.582 2.164 2.926 4.457 3.887 6.961.535 1.395.688 2.82.102 4.246-.484 1.188-1.445 1.656-2.664 1.266-1.48-.48-2.996-.648-4.531-.785-1.996-.176-3.973-.48-5.91-1.023-.555-.156-.613-.113-.52.48.219 1.406.285 2.832.391 4.25.078 1.063.324 2.102.707 3.102.633 1.652 1.004 3.379 1.391 5.098.492 2.172.969 4.348 1.809 6.422.57 1.398 1.387 2.637 2.441 3.707 1.59 1.613 3.285 3.109 4.934 4.664 1.473 1.395 3.172 2.465 4.871 3.547.695.445 1.355.945 2.051 1.391.555.363 1.133.688 1.73.98 1.258.613 2.48 1.297 3.703 1.98.844.473 1.781.723 2.68 1.07.117.043.238.074.367.168.078.102.066.188.008.262-.422.52-.812 1.07-1.258 1.574-.035.035-.086.051-.16.078-.184.039-.316-.027-.461-.066-1.48-.441-2.801-1.207-4.125-1.965-.934-.539-1.93-.945-2.859-1.488-.293-.172-.59-.332-.871-.52l-3.945-2.605c-1.289-.805-2.434-1.785-3.559-2.809l-4.27-3.992c-2.172-2.031-3.527-4.539-4.336-7.375-.543-1.918-.965-3.859-1.414-5.797-.125-.52-.164-.555-.648-.383-.937.328-1.91.375-2.883.453l-3.168.273-3.285.262-3.516.199-2.805.176a83.23 83.23 0 0 0-2.949.23c-1.516.145-3.031.297-4.539.543-1.844.305-3.645.77-5.391 1.438-1.496.574-3.016 1.078-4.551 1.539-2.941.891-5.547 2.379-7.906 4.336l-5.082 4.207c-.594.52-1.215 1.012-1.672 1.668-.113.16-.258.309-.508.285l-.039-3.051c2.285-2.086 4.664-4.016 7.086-5.891 2.242-1.742 4.754-2.988 7.473-3.793 2.168-.645 4.258-1.504 6.414-2.168 2.148-.664 4.355-1 6.586-1.246 3.879-.43 7.777-.594 11.672-.848 2.535-.164 5.059-.43 7.586-.656.453-.043.871-.227 1.301-.352.277-.078.094-.246.059-.348-.406-1.145-.793-2.293-.918-3.508-.105-.98-.16-1.969-.25-2.953a22.01 22.01 0 0 0-.195-1.598c-.113-.711-.094-1.398.215-2.059.078-.172.051-.254-.105-.359-3.457-2.41-5.566-5.707-6.414-9.816-.367-1.789-.508-3.594-.078-5.398.633-2.617 2.309-4.367 4.68-5.52.414-.199.852-.348 1.281-.516.871-.344 1.473.02 1.984.66.457.578 1.059.973 1.66 1.383.844-1.816 2.273-2.973 4.035-3.824-.375-.285-.758-.559-1.199-.699-1.273-.402-2.266-1.18-3.082-2.223-.52-.66-1.187-1.176-1.828-1.719-.137-.109-.195-.113-.301.055-.391.621-.93.766-1.617.426-1.629-.805-3.113-1.848-4.586-2.898l-2.328-1.648c-.066-.043-.121-.129-.273-.09l.609 1.559c.207.52.418 1.039.523 1.594.23 1.246-.613 2.137-1.859 1.945-.914-.141-1.715-.59-2.52-1.012-2.309-1.223-4.492-2.66-6.754-3.957l-1.031-.574.762 1.656c.195.438.352.883.418 1.359.191 1.313-.742 2.273-2.078 2.113-.977-.121-1.875-.492-2.766-.895-1.855-.84-3.609-1.875-5.402-2.836-.105-.055-.215-.105-.328-.152-.051-.023-.062-.016-.074.031zm0 0"/><path fill="#fff" d="M70.609.074c-.578.672-.437 1.367.012 2.09-.336.012-.609-.117-.891-.184l-2.547-.605c-.973-.148-1.598.289-1.684 1.137-.023.184.172.422-.043.527-.145.074-.363-.02-.555-.031-1.055-.078-2.117-.215-3.18-.086-.469.063-.902.195-1.227.57-.277.328-.414.699-.285 1.113.102.305-.012.313-.262.301-.789-.043-1.578-.098-2.363 0-1.129.133-1.969 1.023-1.266 2.348h-.555c-.766-.02-1.527-.051-2.285.086-1.48.273-1.91 1.469-.945 2.613.039.047.074.098.117.16l-.344.094c-.937.266-1.324 1.129-.883 2 .156.309.363.598.563.883.109.16.148.281-.051.387s-.281.445-.48.406c-.184-.039-.316-.301-.48-.453-1.176-1.109-2.418-2.137-3.805-2.977-.34-.211-.711-.375-1.102-.449-.602-.113-1.16-.031-1.535.52-.164.242-.277.059-.387-.02l-3.023-2.145c-.594-.422-1.195-.828-1.852-1.141-.391-.18-.797-.312-1.23-.281-.992.074-1.629.898-1.523 1.941.102.961.496 1.828.828 2.715l.242.617c-.723-.328-1.34-.668-1.945-1.027l-6.23-3.672c-.68-.395-1.379-.762-2.148-.953-1.391-.34-2.34.621-1.988 2.004.207.844.656 1.586 1.016 2.367l.488 1.059c-.207.059-.348-.043-.492-.098-1.801-.664-3.449-1.633-5.129-2.543l-2.754-1.426a5 5 0 0 0-1.102-.367c-1.25-.25-2.129.676-1.793 1.91.254.941.797 1.742 1.266 2.578l.984 1.867c-.656-.191-1.211-.465-1.766-.734l-5.328-2.648c-.922-.449-1.852-.875-2.859-1.102-.348-.074-.695-.102-1.043-.012-.879.234-1.297 1.055-1.016 2.016.215.742.641 1.379 1.047 2.02l.906 1.379c-.133.09-.234.012-.332-.016-1.422-.387-2.828-.84-4.293-1.023-.359-.047-.699.012-1 .227-.586.414-.727 1.145-.352 1.758.16.266.391.477.633.762l-1.832-.32c-.309-.062-.395.012-.387.34l.016 3.977c.012.047.023.063.012.094l-.078.086L.07.457C.07.16.105.066.441.066l70.164.008zm0 0"/><path fill="#f7f7f7" d="M77.215.074c.023.273-.016.551.078.816s.055.359-.254.258L73.668.094zm0 0"/><path fill="#5f5f5f" d="M.156 70.375c.176-.062.316-.168.406-.297.605-.859 1.43-1.496 2.223-2.164l5.539-4.531c1.957-1.531 4.109-2.703 6.484-3.445l6.563-2.227c1.695-.566 3.449-.895 5.223-1.117l6.559-.605 3.695-.223 5.676-.418 3.727-.316c.777-.059 1.539-.16 2.273-.422.473-.168.527-.129.637.348l1.426 5.895c.859 3.09 2.418 5.727 4.844 7.855l2.727 2.574c1.938 1.906 4.133 3.445 6.391 4.941 1.953 1.297 3.992 2.422 6.051 3.527 1.277.684 2.531 1.41 3.926 1.844l.387.105c.047.246-.141.387-.266.547l-4.531 5.688c-.789.984-1.551 1.992-2.184 3.09-.238.414-.449.84-.543 1.313-.141.715.191 1.262.859 1.441.594.164 1.363-.219 1.582-.785.074-.187.125-.391.055-.586-.125-.359-.008-.656.188-.949.727-1.109 1.563-2.137 2.391-3.172.082-.098.168-.191.34-.18.188.078.258.223.352.359 1.594 2.371 2.414 4.996 2.641 7.836.207 2.609.254 5.223.199 7.832l-.145 4.195-.488 6.543-.344 4.445-.266 5.5c-.07 1.941-.012 3.883.469 5.781.684 2.703 2.508 4.207 5.164 4.793 1.262.281 2.555.309 3.832.449l4.238.57 6.777 1.098c1.434.242 2.844.566 4.199 1.117 1.844.75 3.293 2.012 4.605 3.465l.949 1.066c.434.418.992.473 1.391.145.406-.336.461-.918.109-1.422-.309-.441-.684-.836-1.039-1.238-2.035-2.281-4.477-3.883-7.48-4.617-2.191-.539-4.43-.793-6.652-1.156l-1.809-.336-4.492-.641-3.77-.387c-.559-.078-1.102-.23-1.621-.453-1.363-.594-2.172-1.645-2.496-3.082-.172-.77-.246-1.551-.293-2.34l-.059-2.66.195-4.379.258-3.812.332-3.848.191-2.504.207-3.781.012-.184.07-6.078c-.094-2.27-.145-4.547-.59-6.789a16.73 16.73 0 0 0-2.367-5.805l-.875-1.344c-.117-.176-.016-.289.066-.395l2.578-3.285c.063-.082.141-.133.238-.152.41.078.734.301 1.09.453l7.402 3.469c.055.156-.008.27-.051.383l-1.926 4.805-1.625 4.633c-.09.355-.148.707-.047 1.074.145.543.582.863 1.141.813.484-.047.805-.414.836-.98.02-.418.141-.812.27-1.203l1.621-4.32 1.488-3.723c.082-.215.117-.473.387-.598.816.148 1.57.434 2.352.602 1.508.316 3.023.543 4.566.625l2.922.137c1.805.066 3.59-.176 5.379-.402 2.727-.344 5.375-1.031 7.996-1.84l1.195-.324c.418-.105.547-.047.773.328.629 1.027 1.18 2.094 1.605 3.219.547 1.445 1.223 2.82 2.063 4.121.902 1.41 1.469 2.98 2.016 4.551.379 1.102.855 2.168 1.32 3.23.691 1.586 1.23 3.23 1.531 4.938.605 3.465 1.359 6.898 2.16 10.32.699 2.965 1.141 5.969 1.547 8.984.262 1.883.52 3.77 1.133 5.582.219.66.504 1.285.934 1.828.793 1.004 1.816 1.457 3.098 1.273.656-.09 1.301-.262 1.949-.391 2.402-.477 4.73-.207 6.984.734.652.273 1.059.82 1.324 1.469.469 1.145.719 2.34.871 3.563.125.984.145 1.973-.145 2.938-.25.828-.68 1.555-1.379 2.094a1.73 1.73 0 0 1-1.34.363c-.402-.043-.477-.16-.449-.566.113-1.523-.027-3.004-.762-4.371-.512-.957-1.125-1.836-1.93-2.57-1.09-1-2.434-1.379-3.855-1.469-1.648-.102-3.301-.023-4.914.406-.504.137-.992.27-1.27.781-.207.387-.195.809.066 1.125.227.27.676.371 1.055.246 1.031-.344 2.082-.551 3.168-.531.785.016 1.578-.051 2.359.066 1.051.16 1.91.613 2.578 1.457.676.859 1.219 1.773 1.422 2.859.109.586.051 1.176.055 1.762 0 .246-.141.359-.379.367-.051 0-.102.004-.152 0-2.148-.035-4.301.156-6.449.066-.836-.027-1.676-.016-2.508-.117-.434-.055-.437-.094-.262-.5.254-.578.16-.969-.355-1.336-.238-.176-.41-.398-.559-.648-.418-.711-.859-1.41-1.43-2.016-1.168-1.242-2.648-1.902-4.281-2.262-1.703-.371-3.43-.551-5.172-.535-.441.004-.875-.055-1.309-.102a1.14 1.14 0 0 1-.805-.434c-.301-.383-.574-.785-.789-1.23-.336-.699-.785-1.336-1.184-2-.191-.32-.391-.641-.543-.984-.16-.359-.113-.441.27-.492.195-.027.398-.051.594-.09.992-.199 1.535-.992 1.359-1.988a3.72 3.72 0 0 0-.211-.801c-1.324-3.121-2.637-6.25-4.391-9.16a16.96 16.96 0 0 0-4.121-4.629c-.598-.469-1.277-.781-2.043-.879a4.26 4.26 0 0 1-.691-.172.98.98 0 0 0-1.309 1.18c.238 1.086.477 2.172.586 3.285.129 1.363.211 2.73.133 4.113-.121 2.188-.523 4.316-1.113 6.418a8.83 8.83 0 0 0-.238 1.059c-.141 1.012.457 1.789 1.461 1.965.691.125 1.371.004 2.055-.031.973-.051 1.941-.168 2.918-.207.672-.023 1.344-.078 2.02-.066.273.008.449.105.527.379.266.895.688 1.719 1.172 2.504l1.621 2.621c.695 1.078 1.648 1.641 2.945 1.723 1.008.066 2.023.031 3.031.133 1.359.133 2.711.281 4.008.754 1.172.43 2.066 1.195 2.734 2.238.41.641.754 1.332 1.32 1.863.07.066.156.156.102.262-.059.117-.191.109-.297.117-1.578.098-3.137.309-4.687.586-1.141.207-2.246.52-3.301.988-1.008.453-2.078.605-3.172.688-1.289.098-2.578 0-3.863.086-1.312.082-2.621.031-3.934.055l-7.316.082c-2.004-.008-3.996-.113-5.988-.293-2.043-.18-4.082-.426-6.113-.676-.5-.059-.5-.066-.359-.539.129-.445.031-.922-.359-1.133-.781-.418-1.324-1.102-1.973-1.664-1.148-.992-2.414-1.777-3.82-2.34-1.41-.57-2.855-1.004-4.367-1.203-.613-.078-1.223-.082-1.844.148-.594.211-.863.688-.719 1.23.133.504.602.766 1.227.66.383-.133.742-.094 1.105-.031 1.926.316 3.766.898 5.469 1.883 1.012.586 1.875 1.367 2.688 2.203.094.098.242.199.18.34-.07.164-.262.137-.402.121-.957-.102-1.918-.168-2.875-.25l-2.465-.191-3.473-.27-3.137-.258-3.098-.27c-.336-.027-.426-.199-.496-.52-.203-.879-.453-1.742-.668-2.617-.422-1.711-1.215-3.25-2.266-4.656-1.051-1.398-2.453-2.336-4.02-3.062-1.238-.57-2.516-1.051-3.773-1.574-.176-.07-.352-.125-.547-.133-.582-.035-.793.098-.984.645a.92.92 0 0 0 .379 1.148c.227.16.48.262.738.367 1.262.516 2.527 1.02 3.762 1.602 1.973.93 3.238 2.492 4.129 4.426.563 1.219.777 2.531 1.137 3.805.078.293-.023.414-.371.379-.523-.051-1.043-.066-1.57-.062-.824 0-1.652.004-2.477-.004-.414-.004-.441-.039-.441-.445-.004-.344-.109-.648-.352-.887-.191-.187-.27-.406-.332-.656a35.74 35.74 0 0 0-.898-3.172c-.746-2.27-2.305-3.652-4.547-4.359-1.602-.504-3.25-.805-4.906-1.059a70.66 70.66 0 0 0-2.367-.324c-.582-.113-1.059.141-1.219.633-.16.5.098 1.012.648 1.238.973.262 1.945.34 2.906.5 1.605.266 3.203.543 4.742 1.102 1.465.531 2.375 1.543 2.844 3.012.43 1.336.797 2.684 1.066 4.063.113.559.082.602-.469.676l-2.27.309c-.441.063-.457.008-.555-.418-.516-2.238-1.277-4.348-3.187-5.836-.77-.602-1.648-.98-2.586-1.238-1.027-.281-2.078-.414-3.141-.504-1.078-.094-2.145-.051-3.215.086-.449.059-.879.188-1.332.34-.867.324-1.074 1.184-.434 1.738.344.297.727.266 1.141.078 1.086-.258 2.16-.32 3.234-.254.996.063 1.992.16 2.969.398 1.809.434 3.078 1.48 3.813 3.195.332.785.523 1.621.844 2.406.109.27-.02.402-.281.445l-1.895.293c-1.633.234-3.273.391-4.918.508-1.172.082-2.348.152-3.52.172l-4.277.094-4.531.141-4.609.164c-2.355.105-4.695-.043-7.039-.223-3.57-.281-7.098-.891-10.641-1.387-1.848-.262-3.691-.187-5.523.125-1.234.215-2.473.375-3.723.473-.512.039-1.027.051-1.504-.289a5.7 5.7 0 0 1-.035-.664V75.363c0-.098-.004-.199.004-.336.566-.473 1.184-.828 1.793-1.195 1.516-.91 3.082-1.711 4.77-2.266 2.227-.734 4.5-.895 6.816-.594 2.648.348 5.16 1.191 7.645 2.121 2.895 1.082 5.625 2.496 8.273 4.074 2.832 1.688 5.723 3.289 8.605 4.898 2.59 1.445 5.148 2.949 7.398 4.906 1.84 1.598 3.344 3.469 4.508 5.609 1.34 2.461 2.328 5.066 3.246 7.703.746 2.129 1.363 4.289 1.719 6.52.207 1.324.328 2.652.418 3.988.188 2.734.855 5.32 2.223 7.719.824 1.449 1.457 2.988 1.949 4.586.66 2.156 1.531 4.227 2.629 6.207.797 1.441 1.629 2.871 2.254 4.402.234.57.727.816 1.227.648.559-.191.844-.715.656-1.324-.262-.867-.699-1.656-1.125-2.453-1-1.871-2.109-3.695-2.867-5.687-.32-.844-.629-1.691-.887-2.555-.574-1.941-1.473-3.746-2.41-5.527-.883-1.664-1.352-3.434-1.52-5.301-.242-2.727-.457-5.457-1.176-8.113-.609-2.25-1.379-4.441-2.203-6.621-.773-2.039-1.66-4.023-2.77-5.902-.801-1.348-1.73-2.598-2.809-3.742-2.305-2.457-5.062-4.305-7.957-5.961l-11.34-6.477c-2.73-1.613-5.609-2.922-8.605-3.969-2.141-.75-4.309-1.395-6.555-1.734-2.625-.402-5.203-.219-7.742.586-2.035.641-3.906 1.609-5.703 2.727-.125.082-.242.188-.43.168C.16 71.77.156 71.09.156 70.375zm0 0"/><path fill="#0e0e0e" d="M46.742 133.629c1.16.086 2.281.266 3.398.453 1.652.281 3.285.609 4.848 1.242 1.781.723 2.973 1.973 3.641 3.754.449 1.195.789 2.418 1.063 3.668a.76.76 0 0 0 .246.441c.309.27.457.641.395 1.043-.043.285.059.305.289.305l3.305-.008c.309.004.621.039.934.063.141.008.242 0 .18-.203-.402-1.273-.594-2.602-1.145-3.836-.973-2.156-2.461-3.766-4.676-4.668l-3.695-1.562c-.945-.406-.91-1.285-.34-1.934.293-.328.73-.25 1.09-.117l3.676 1.5c.949.418 1.867.902 2.699 1.527 1.234.926 2.105 2.148 2.848 3.484.785 1.406 1.184 2.934 1.531 4.48.105.449.379.852.32 1.34-.02.164.141.141.25.152l3.168.285 5.332.441 3.137.234 3.391.289c.168.016.34.004.578.004-.91-.93-1.789-1.793-2.859-2.426-1.824-1.074-3.809-1.676-5.891-1.98-.234-.035-.445.047-.699.066-.535.012-.941-.156-1.137-.648-.184-.453.008-.949.488-1.355.777-.375 1.566-.301 2.336-.164 2.395.434 4.664 1.203 6.695 2.59.766.523 1.453 1.141 2.102 1.801.254.262.543.48.863.652.617.332.805.914.492 1.551-.09.188-.039.211.129.227l5.5.605c3.863.449 7.734.426 11.609.344 1.914-.035 3.828.008 5.738-.074 1.625-.062 3.254.016 4.875-.129 1.102-.094 2.164-.336 3.176-.797 1.348-.613 2.789-.855 4.234-1.074 1.23-.191 2.465-.34 3.793-.402-.875-.715-1.25-1.711-1.871-2.531-.832-1.113-1.973-1.695-3.281-2.012-1.121-.273-2.258-.398-3.406-.484-1.07-.086-2.148-.004-3.211-.176-1.02-.16-1.801-.668-2.352-1.512-1-1.527-2.004-3.051-2.746-4.727-.047-.102-.086-.207-.121-.312-.18-.613-.176-.621-.805-.609-1.562.023-3.117.141-4.672.27-.656.055-1.312.133-1.98.039-1.105-.148-1.805-1.047-1.594-2.156.238-1.262.664-2.48.895-3.75.211-1.18.363-2.363.438-3.562.16-2.516-.133-4.98-.707-7.426-.102-.43-.023-.805.285-1.102.363-.34.805-.445 1.277-.191.16.086.332.094.504.117 1.188.148 2.121.785 2.965 1.57a19.87 19.87 0 0 1 4.391 5.887c1.164 2.352 2.277 4.727 3.27 7.156a4.79 4.79 0 0 1 .289 1.008c.18 1.016-.43 1.855-1.457 2.051-.156.035-.316.059-.48.074-.461.055-.465.055-.242.492.449.879 1.027 1.684 1.504 2.547.262.48.504.973.844 1.414a1.23 1.23 0 0 0 .984.527c1.316.102 2.648.055 3.961.215 1.793.223 3.559.52 5.156 1.441 1.191.691 2.043 1.707 2.746 2.867.266.434.508.867.961 1.172.344.23.445.641.313 1.074-.062.191-.172.355-.301.559.238.027.441.07.645.078 1.801.074 3.602.164 5.398.074 1.141-.059 2.277-.059 3.414-.047.195 0 .289-.039.305-.262.195-2.148-.602-3.887-2.191-5.285-.609-.535-1.387-.711-2.16-.754-1.359-.078-2.723-.102-4.066.211-.375.086-.77.156-1.105.328-.43.223-.75-.023-1.02-.211-.152-.113-.258-.258-.316-.437s-.059-.359-.004-.539c.145-.484.426-.875.941-1.039a13.01 13.01 0 0 1 2.938-.559c1.223-.078 2.449-.09 3.664.133 1.727.32 2.977 1.301 3.988 2.695a8.04 8.04 0 0 1 1.578 5.457c-.004.027-.004.051-.004.078-.043.602-.023.617.582.625.664.008 1.121-.371 1.52-.832.977-1.137 1.148-2.5 1.039-3.914-.105-1.375-.387-2.719-.883-4.008-.297-.762-.781-1.32-1.566-1.613-2.367-.883-4.773-1.094-7.242-.484-.715.176-1.434.375-2.176.305-1.363-.129-2.258-.918-2.867-2.082-.633-1.215-.918-2.531-1.164-3.859-.379-2.062-.605-4.148-.918-6.215-.375-2.48-.883-4.937-1.477-7.375-.687-2.824-1.234-5.676-1.754-8.539-.328-1.797-.891-3.531-1.648-5.199-.656-1.445-1.211-2.934-1.73-4.43-.434-1.246-1.039-2.41-1.754-3.516-.805-1.246-1.375-2.602-1.906-3.977-.41-1.066-.969-2.059-1.535-3.047-.145-.25-.316-.258-.562-.195-1.719.438-3.395 1.023-5.121 1.434-1.66.391-3.348.648-5.047.871-1.637.215-3.277.332-4.93.273-2.762-.094-5.512-.262-8.184-1.039l-1.215-.367c-.039-.027-.059-.051-.051-.074.176-.723.391-1.434.859-2.062.727.125 1.395.383 2.094.527 1.348.281 2.707.477 4.086.543l3.406.141c1.441.02 2.867-.164 4.293-.332 2.859-.344 5.602-1.156 8.363-1.918 2.16-.594 4.238-1.367 6.223-2.383s4.047-1.855 5.914-3.09c.973-.637 2.039-1.125 2.984-1.809 1.711-1.238 3.25-2.656 4.324-4.52.156-.27.309-.543.52-.777.938-1.039 1.387-2.301 1.688-3.633.051-.238.055-.504.293-.699.094-.039.188-.035.277.012.563.27 1.102.582 1.652.871.055.031.09.086.102.176-.242.781-.387 1.555-.68 2.285-.199.504-.426.992-.758 1.414-.75.941-1.297 2.027-2.039 2.965-1.48 1.871-3.227 3.449-5.316 4.621-1.602.895-3.109 1.961-4.777 2.73-2.039.941-3.984 2.082-6.094 2.867-.266.098-.312.188-.16.438.773 1.262 1.359 2.613 1.879 3.988.293.777.648 1.52 1.098 2.211 1.109 1.719 1.98 3.555 2.605 5.504.48 1.469 1.168 2.863 1.75 4.297.871 2.145 1.297 4.398 1.691 6.664.469 2.672 1.113 5.301 1.723 7.941.695 2.984 1.156 6.008 1.57 9.043.23 1.707.449 3.418.957 5.078.148.477.324.938.594 1.367.32.523.766.723 1.359.621.891-.152 1.754-.414 2.648-.527 2.512-.305 4.934.039 7.266 1.012 1.176.496 1.992 1.383 2.449 2.563.84 2.18 1.328 4.43 1.078 6.781a6.31 6.31 0 0 1-1.664 3.738c-1.18 1.297-2.621 1.723-4.316 1.324-1.523-.359-3.078-.371-4.629-.281-2.027.117-4.051.035-6.078-.047-2.777-.113-5.516.23-8.215.871-.668.16-1.281.484-1.922.734-1.496.578-3.066.715-4.641.734l-14.602.164c-2.953-.016-5.891-.293-8.824-.641-3.129-.367-6.262-.707-9.406-.945l-10.656-.867c-2.918-.238-5.836-.461-8.77-.25-1.895.141-3.773.41-5.648.723-4.137.691-8.297 1.137-12.492 1.238l-13.469.402c-2.957.078-5.898-.125-8.836-.449-3.121-.344-6.207-.898-9.32-1.273-1.547-.184-3.07-.008-4.598.23-1.543.238-3.086.5-4.66.41-.641-.035-.641-.035-.641-.672l.012-1.687c.863.328 1.75.16 2.629.066 1.934-.199 3.836-.664 5.789-.672 1.098-.004 2.188.137 3.273.301l5.48.793c1.789.254 3.59.426 5.391.586.445.043.898.066 1.348.078 1.273.035 2.547.09 3.82.066l6.664-.219 4.984-.145 5.949-.238c2.316-.145 4.621-.426 6.91-.805.121-.016.281-.004.188-.207-.359-.785-.531-1.637-.859-2.434-.781-1.895-2.223-2.922-4.191-3.289-1.332-.25-2.676-.359-4.023-.289-.57.027-1.145.086-1.73.23-.461.129-.82.027-1.086-.336a1 1 0 0 1-.035-1.246c.086-.129.172-.246.316-.359.867-.418 1.781-.5 2.691-.527 1.988-.059 3.961.102 5.863.785 2.02.723 3.359 2.145 4.203 4.074.352.801.609 1.637.855 2.477.051.156.078.316.063.477-.023.219.059.293.277.258l2.668-.363c.188-.023.227-.113.195-.273-.352-1.715-.734-3.414-1.406-5.039-.535-1.285-1.598-1.934-2.848-2.352-1.43-.477-2.898-.734-4.379-.969l-2.59-.387c-.094-.016-.18-.082-.293-.137-.25-.176-.449-.359-.531-.637-.223-.734.125-1.238.992-1.398zM.16 72.488l3.508-1.984c1.973-.914 4.02-1.555 6.199-1.75 2.066-.187 4.09.027 6.098.492 3.395.793 6.641 2 9.789 3.492 2.094.988 4.07 2.188 6.066 3.352 2.176 1.281 4.383 2.508 6.586 3.738 2.457 1.371 4.895 2.766 7.141 4.477 2.922 2.23 5.219 4.973 6.832 8.281 1.789 3.672 3.172 7.496 4.176 11.453.438 1.719.66 3.477.816 5.246.152 1.711.238 3.434.734 5.102.285.965.703 1.867 1.172 2.75 1 1.867 1.84 3.801 2.449 5.832.691 2.316 1.793 4.445 2.965 6.543.547.98 1.09 1.969 1.527 3.008.117.273.227.551.223.863-.004.566-.316.957-.883 1.102-.43.113-.988-.129-1.18-.586-1.008-2.457-2.508-4.668-3.59-7.086-.578-1.289-1.023-2.629-1.445-3.98-.578-1.871-1.484-3.594-2.383-5.324-.879-1.711-1.359-3.531-1.566-5.437-.25-2.309-.359-4.625-.863-6.902s-1.254-4.473-2.047-6.656c-.621-1.687-1.301-3.352-2.109-4.965-1.02-2.035-2.289-3.906-3.91-5.508-1.746-1.723-3.746-3.113-5.84-4.371-2.918-1.746-5.934-3.324-8.867-5.031l-4.867-2.816c-2.242-1.227-4.574-2.242-6.988-3.09-1.898-.672-3.816-1.25-5.805-1.582a15.41 15.41 0 0 0-8.902 1.098c-1.586.695-3.074 1.563-4.527 2.496a3.94 3.94 0 0 1-.48.25c-.031-.824-.031-1.645-.027-2.504zm0 0"/><path fill="#eef1ee" d="M134.715 68.469c-.477-.371-1.027-.566-1.527-.848l-.422-.211c-.445-.016-.762-.289-1.125-.445-.641-.277-1.254-.609-1.875-.926-.246-.129-.465-.293-.656-.496-.414-.437-.465-.957-.137-1.469.262-.414.902-.613 1.395-.402l1.996.941 1.098.543 1.961 1.055c.559.465 1.215.723 1.805 1.082l4.211 2.691c1.094.762 2.219 1.48 3.156 2.434.309.32.605.656.703 1.125.109.523-.047.93-.508 1.203-.406.242-.848.199-1.227-.148-.203-.184-.355-.418-.551-.613-.957-.949-2.098-1.676-3.207-2.43l-4.398-2.754c-.211-.125-.441-.219-.691-.332zm.555-10.117l2.285-.098 1.422.004 3.848.156 3.348.227 2.195.148c.727.035 1.203.582 1.18 1.305-.023.684-.539 1.152-1.254 1.168-.297.012-.574-.008-.805-.219-.066-.062-.148-.082-.238-.082l-2.684-.156-4.062-.238-3.367-.059c-.187.133-.379.117-.562.113-.551-.012-1.09.074-1.668.121a3.51 3.51 0 0 1-.781.012c-.559-.051-.953-.426-1.035-.965-.082-.566.191-1.117.715-1.297.461-.16.941-.246 1.465-.141zm0 0"/><path fill="#101010" d="M134.805 60.672c.75-.141 1.488-.148 2.262-.168-.238 1.988-.777 3.891-1.621 5.703-.684-.219-1.285-.621-1.957-.937-.109-.152-.062-.285-.008-.414.559-1.246.934-2.551 1.184-3.895a.49.49 0 0 1 .141-.289zm0 0"/><path fill="#5f5f5f" d="M.176 20.652c-.027-.023-.027-.039-.02-.07 1.023.063 1.5-.668 1.121-1.773a1.03 1.03 0 0 1 .676 1.309c-.078.27-.242.477-.488.617s-.504.176-.777.109c-.164-.039-.324-.121-.512-.195zm134.613 39.988c-.215 1.477-.598 2.906-1.219 4.27-.039.09-.062.188-.098.313l-2.762-1.305c-.328-.156-.652-.301-1.039-.187-.809.23-1.078 1.113-.512 1.738.117.125.254.242.406.328 1.016.582 2.082 1.07 3.16 1.586-.133.078-.133.207-.16.328l-.488 1.77c-.176.617-.457 1.184-.871 1.688-.578.707-.988 1.527-1.531 2.262-1.34 1.836-3 3.309-4.98 4.418l-4.449 2.559c-2.441 1.137-4.77 2.555-7.359 3.336-3.285.996-6.555 2.043-9.977 2.504-1.98.266-3.965.477-5.969.383-2.355-.109-4.715-.203-7.008-.82-.48-.129-.973-.223-1.43-.48-.113-.172-.047-.316.008-.453.625-1.633 1.191-3.281 1.875-4.914.305-.32.203-.641.055-.953-.164-.352-.473-.516-.836-.523-.34-.004-.66.102-.875.438-.535.813-.816 1.707-1.141 2.582l-1.008 2.695c-.039.109-.082.211-.203.297-.195.07-.344-.004-.488-.078-2.211-1.125-4.465-2.156-6.742-3.145-.215-.098-.445-.168-.672-.297.016-.437.371-.586.637-.809.094-.082.227-.109.34-.16.469-.215.703-.66.598-1.125-.117-.504-.5-.805-1.035-.785-.594.02-1.074.301-1.492.703-.293.285-.602.563-.848.895-.07.09-.148.176-.297.188-1.34-.437-2.66-.863-3.852-1.594-1.176-.727-2.434-1.289-3.645-1.934-1.418-.75-2.656-1.781-4.031-2.602-1.84-1.094-3.473-2.441-5-3.926-1.023-.992-2.059-1.973-3.121-2.918-2.207-1.961-3.445-4.457-4.184-7.262-.602-2.27-1.035-4.578-1.645-6.844-.203-.734-.441-1.461-.711-2.176-.469-1.25-.652-2.559-.711-3.883-.051-1.141-.184-2.266-.34-3.387a1.3 1.3 0 0 1-.02-.301c.02-.273.105-.375.43-.273 1.426.48 2.914.664 4.391.91 1.516.25 3.059.223 4.57.52.578.113 1.133.301 1.695.469 1.227.363 2.109-.047 2.594-1.227.574-1.402.414-2.801-.113-4.164-1.152-2.961-2.793-5.645-4.77-8.117-1.383-1.727-2.687-3.508-3.949-5.328-.477-.699-1.055-1.301-1.727-1.809-.195-.141-.246-.301-.16-.551.383-1.07 1.164-1.789 2.063-2.402.824-.562 1.656-1.121 2.555-1.562.301-.152.566-.184.891-.078 2.145.691 3.961 1.93 5.688 3.336 1.418 1.148 2.914 2.195 4.352 3.316 3.926 3.059 8.137 5.723 12.066 8.773 2.684 2.078 5.48 4.02 8.117 6.164 2.145 1.746 4.383 3.359 6.531 5.098 1.176.945 2.281 1.988 3.391 3.008l3.352 3.117c1.801 1.648 3.34 3.504 4.563 5.625.637 1.105 1.379 2.152 2.313 3.035.691.656 1.488 1.121 2.43 1.336.762.172 1.5-.402 1.695-1.035.199-.645.133-1.285.043-1.93-.395-2.91-1.129-5.75-1.742-8.617-.398-1.902-.738-3.82-.937-5.754-.336-3.246-1.223-6.336-2.465-9.344-.973-2.352-2.047-4.668-2.816-7.102-.453-1.43-.676-2.914-1-4.375-.473-2.141-1.141-4.219-1.863-6.281-.895-2.562-1.992-5.043-3.266-7.445-.652-1.223-1.293-2.453-2.023-3.664.785-.012 1.441.379 2.086.738 1.285.715 2.668 1.195 4.023 1.73l7.766 3.094c.332.133.625.359.949.527.195.102.23.23.156.43-.363.945-.598 1.934-1.016 2.855-.223.469-.273.953-.152 1.457.313 1.289.531 2.602 1.059 3.82.773 1.777 1.746 3.441 3.113 4.824 1.18 1.195 2.637 1.902 4.32 2.016 1.031.07 2.027-.238 3.016-.52.898-.258 1.797-.535 2.5-1.219.816 1.293 1.59 2.605 2.258 3.977 1.074 2.207 2.348 4.297 3.691 6.344 1.137 1.742 2.07 3.598 3.008 5.445.648 1.27 1.344 2.516 1.879 3.836.328.82.508 1.668.539 2.551.047 1.125.254 2.23.422 3.34.184 1.203.188 2.41.074 3.617-.086.918-.223 1.828-.41 2.762-.367.07-.742.113-1.109.16-.668.09-1.062.563-1.008 1.207.051.594.496.961 1.164.949.141 0 .273-.008.445-.008zm0 0"/><path fill="#eff2ef" d="M97.586 14.496c1.578 3.633 2.922 7.32 3.629 11.191.59 3.25 1.84 6.262 3.098 9.277.848 2.039 1.703 4.082 2.242 6.23.398 1.594.574 3.223.777 4.844.336 2.648.902 5.246 1.48 7.844.402 1.789.805 3.582 1.066 5.398.016.098.016.195.027.332-.375-.227-.637-.527-.891-.828-.801-.949-1.453-2.004-2.098-3.059-.883-1.465-1.93-2.801-3.168-3.977-2.805-2.676-5.547-5.437-8.609-7.816l-11.777-9.105c-4.113-3.129-8.387-6.027-12.523-9.113l-7.773-5.895c-1.488-1.141-3.129-2.023-4.957-2.484-1.715-.434-3.316-1.121-4.914-1.914.496-.32.941-.695 1.137-1.297.188-.598.074-1.156-.152-1.727.387-.043.746-.004 1.105-.07.574-.105 1.016-.379 1.207-.941.184-.543-.035-1.004-.406-1.402-.141-.152-.301-.289-.508-.488.203 0 .34-.004.48.004.723.016 1.449.016 2.168-.105 1.023-.168 1.711-1.141 1.156-2.141-.016-.027-.008-.066-.02-.145l2.172.129 1.238.031c1.109.012 1.988-.93 1.363-2.094l2.852.266c.496.047 1 .09 1.492-.039.48-.121.859-.395.941-.902.047-.32.203-.246.379-.199.738.191 1.473.379 2.234.465.211.027.422.027.637-.008 1.043-.172 1.52-1.012 1.129-1.996l-.113-.254c.18-.062.324.043.465.086 1.191.367 2.367.797 3.613.973.387.055.77.043 1.141-.094.734-.273 1.012-.844 1.039-1.629l2.078 1.078c.836.418 1.66.863 2.582 1.082.727.176 1.375.086 1.805-.613.129-.215.227-.066.32 0l1.926 1.434c.34.254.676.523 1.035.742a1.28 1.28 0 0 0 .84.215c.305-.023.57-.141.793-.352.184-.16.246-.039.363.047 1.734 1.316 2.922 3.055 3.883 4.98.672 1.336 1.383 2.652 2.016 4.039zm0 0"/><path fill="#5d2639" d="M53.055 28.406c1.023 1.617 2.266 3.039 3.418 4.523 1.254 1.613 2.336 3.332 3.25 5.156.449.902.918 1.801 1.121 2.805.09.445.09.887.031 1.332-.027.242-.156.305-.395.223-1.281-.445-2.609-.617-3.957-.719-2.012-.156-4.012-.43-5.965-.957-1.219-.328-2.254-1.004-3.207-1.797-2.078-1.742-3.492-3.934-4.234-6.531-.508-1.773-.754-3.586-.41-5.43.328-1.773 1.418-2.984 2.898-3.906l.195-.113c.824-.48.813-.469 1.582.082l2.637 1.914c1.195.961 2.211 2.082 3.035 3.414zm70.602-15.203c.297.863.418 1.719.453 2.598.09 2.203-.18 4.375-.699 6.512-.152.656-.391 1.289-.656 1.91-.172.402-.445.723-.855.898-1.016.438-2.07.773-3.168.832-1.418.078-2.578-.609-3.457-1.66-1.16-1.379-2.102-2.914-2.637-4.664-.234-.762-.398-1.543-.566-2.32-.039-.187-.016-.312.129-.422a.8.8 0 0 0 .34-.828c-.105-.871.285-1.641.582-2.41l2.672-6.629c.234-.566.531-1.105.906-1.594.355-.461.625-.508 1.121-.199 1.035.641 1.82 1.547 2.582 2.469 1.063 1.285 2 2.656 2.715 4.164.199.43.355.875.539 1.344zm0 0"/><path fill="#edf0ed" d="M76.348 79.902l.984-1.051c.395-.395.848-.703 1.406-.816.672-.133 1.191.145 1.371.734s-.086 1.105-.734 1.352c-.395.152-.625.488-.926.777-.039.297-.258.441-.414.625-.301.375-.559.781-.941 1.117l-2.461 3.094-.465.57c-.047.359-.324.543-.508.781-.273.355-.543.715-.891 1.039-.398.348-.672.766-.98 1.152l-1.785 2.453a.58.58 0 0 0-.074.555c.168.488.008.922-.387 1.234-.469.367-.984.551-1.566.254-.48-.242-.746-.621-.719-1.168.035-.617.328-1.145.629-1.668.824-1.437 1.883-2.703 2.91-3.992l4.137-5.219 1.414-1.82zm0 0"/><path fill="#eff2ef" d="M18.512 10.539c-.039-.039-.082-.094.031-.059 0 .027-.008.035-.031.059zm0 0"/><path fill="#5f5f5f" d="M96.012 6.688c-.012-.012-.02-.027-.027-.043.008 0 .02.004.035.016.008.012 0 .02-.008.027zm0 0"/><path fill="#eff2ef" d="M8.617 12.105c-.016-.016-.027-.039-.039-.062.016 0 .035 0 .055.02.008.02-.008.031-.016.043zm0 0"/><path fill="#0e0e0e" d="M72.773 88.141c.371-.645.91-1.18 1.371-1.797.125-.023.168.055.215.129 1.137 1.684 2.172 3.418 2.762 5.383.449 1.492.684 3.012.816 4.559.199 2.383.238 4.77.191 7.156l-.223 6.141-.52 6.531-.305 4.367-.191 6.031c.027 1.004.082 2.016.277 3.016.402 2.035 1.652 3.293 3.691 3.676 1.121.207 2.258.258 3.387.367l3.742.492 5.867.953c2.188.301 4.363.68 6.422 1.539 2.113.887 3.82 2.297 5.332 3.984l.941 1.117c.418.559.371 1.215-.074 1.586-.492.41-1.113.355-1.605-.172l-1.113-1.266c-1.957-2.227-4.414-3.547-7.312-4.098l-4.617-.75-3.277-.555-5.148-.664c-1.352-.121-2.715-.18-4.016-.633-2.434-.852-3.891-2.555-4.383-5.066-.371-1.91-.434-3.84-.324-5.781l.078-2.359.449-6.5.328-4.215.316-6.586.027-4.836c-.059-2.086-.129-4.168-.582-6.219-.441-2.02-1.324-3.836-2.523-5.531zm0 0"/><path fill="#0f0f0f" d="M105.465 111.246c-.328.445-.648.859-1.016 1.23-.426.426-1.027.477-1.465.145-.117-.082-.211-.184-.285-.301s-.125-.246-.148-.383-.02-.277.012-.414.086-.262.164-.375c.27-.418.621-.781.918-1.184 1.012-1.383 1.816-2.895 2.676-4.375 1.512-2.602 2.559-5.383 3.156-8.328.285-1.395.496-2.801.598-4.219l.063-1.273c.02-.73.449-1.215 1.09-1.227.629-.008 1.148.516 1.137 1.23l-.148 2.426c-.168 1.625-.441 3.234-.848 4.82-.43 1.684-.98 3.328-1.699 4.914-1.168 2.563-2.629 4.953-4.203 7.316zm0 0"/><path fill="#edf0ed" d="M86.32 84.48c.297-.48.422-1 .613-1.492l1.285-3.34a2.53 2.53 0 0 1 .426-.73c.484-.406.863-.469 1.277-.23.441.254.664.711.574 1.246l-1.527 3.988-.477 1.352c-.34.703-.551 1.43-.848 2.156l-1.496 3.703-2 5.363a2.63 2.63 0 0 0-.125.777c-.012.551-.367.977-.871 1.066-.531.102-1.02-.172-1.242-.684-.184-.422-.148-.852-.035-1.285.461-1.758 1.148-3.43 1.82-5.109l1.875-4.68c-.051-.215.051-.367.113-.527zm0 0"/><path fill="#0e0e0e" d="M88.438 140.832h-1.312c-.715-.004-1.336-.617-1.297-1.332.016-.285.223-.531.504-.645.367-.148.746-.27 1.156-.273 2-.012 3.988.094 5.941.598 2.199.574 3.637 1.906 4.184 4.145l.215.797c.102.375.148.742.559.988.375.227.449.871.27 1.262a1.28 1.28 0 0 1-.504.516c-.215.121-.449.176-.699.164-.277-.023-.535-.117-.766-.277s-.406-.363-.531-.617c-.309-.594-.414-1.254-.59-1.891-.195-.711-.387-1.426-.918-1.984-.617-.645-1.437-.879-2.273-1.062-1.281-.281-2.586-.379-3.937-.387zm-2.125-56.367c-.133.707-.461 1.359-.73 2.066-.473-.066-.871-.305-1.273-.52-2.336-1.242-4.805-2.195-7.211-3.352.371-.609.852-1.148 1.328-1.723.613.105 1.117.449 1.676.672 2.039.816 3.996 1.824 5.973 2.789.066.031.141.047.242.066zm0 0"/><path fill="#424242" d="M40.977 137.617a1.04 1.04 0 0 1-.141.289c-.223.352-.402.684-.16 1.129.238.422.574.547 1.043.547-.34.266-.906.164-1.262-.215s-.395-.941-.07-1.332c.152-.18.305-.371.586-.414zm32.129 2.027c-.004.059-.02.113-.055.164-.73.871-.473 1.605.652 1.836-.117.051-.242.074-.371.074a.93.93 0 0 1-.371-.078c-.121-.051-.223-.125-.312-.219s-.156-.203-.203-.324c-.238-.594.016-1.187.66-1.453zm-26.355-6.039c-.078.07-.176.125-.277.168-.816.355-.949 1.016-.332 1.676.043.043.07.102.109.18-.387-.047-.73-.453-.754-.871-.031-.504.238-.984.656-1.102.184-.055.371-.16.598-.051zm0 0"/><path fill="#fdfdfd" d="M107.625 125.098l2.109 4.605c.211.461.117.586-.43.551-1.875-.125-3.75-.051-5.621.078l-2.355.18c-.449.035-.453.031-.336-.383.492-1.734.879-3.488 1.074-5.277.27-2.516.211-5.016-.262-7.504-.012-.043.008-.094.016-.148.246-.012.34.188.488.309 1.969 1.617 3.402 3.641 4.512 5.914zm0 0"/><path fill="#0e0e0e" d="M93.543 72.746c-3.234 1.324-6.5 2.441-9.934 3.016-.973.16-1.949.273-2.934.281-3.039.012-5.742-.941-8.137-2.793-1.668-1.285-2.965-2.867-3.746-4.832-1.074-2.707-.637-5.191 1.246-7.41 1.328-1.559 2.852-2.906 4.406-4.23.961-.816 1.957-1.598 3.074-2.195 1.395-.75 2.875-1.086 4.473-.93 1.957.191 3.797.852 5.656 1.41 1.191.355 2.395.703 3.516 1.25 1.492.727 3.133 1.082 4.605 1.863 2.035 1.074 3.637 2.598 4.723 4.625 1.199 2.234.852 4.387-.914 6.215-1.348 1.391-2.961 2.367-4.699 3.16-.43.199-.871.375-1.336.57zm26.035-26.363c1.332-1.277 2.793-2.312 4.547-2.859.844-.262 1.699-.391 2.582-.156.297.078.617.051.922.102 1.203.195 2.352.578 3.453 1.066 1.441.645 2.109 1.863 2.402 3.359.266 1.336-.051 2.602-.336 3.875-.512 2.316-1.926 4.039-3.602 5.613-1.785 1.68-3.812 2.992-6.027 4.008-1.191.547-2.391 1.082-3.715 1.242-.988.121-1.797-.195-2.312-1.043a12.53 12.53 0 0 1-1.652-4.387c-.398-2.273.145-4.41.973-6.5.633-1.625 1.559-3.062 2.77-4.32zm6.621 26.891c-2.262 2.363-4.762 4.348-7.875 5.43-1.484.516-3.02.742-4.59.816-1.309.07-2.621.059-3.934-.027-1.441-.102-2.852-.348-4.078-1.195s-1.816-2.07-2.117-3.461c-.609-2.785.453-4.965 2.504-6.758 1.883-1.66 4.078-2.738 6.52-3.305.934-.215 1.875-.383 2.844-.148.391.094.793-.066 1.191-.102 2.371-.223 4.719-.145 6.977.707 1.168.434 1.996 1.273 2.609 2.32.563.945.988 1.941.996 3.066.004 1.012-.406 1.863-1.047 2.656zm-44.602-25c-2.512-.062-4.793.633-6.969 1.754-.234.117-.465.258-.707.348-.531.199-1.016.086-1.426-.293-.379-.355-.445-.797-.246-1.27.516-1.242 1.18-2.398 2.07-3.418 1.164-1.328 2.551-2.352 4.129-3.172.922-.48 1.793-.457 2.715-.281 1.574.309 2.977 1.063 4.371 1.824 1.121.613 2.238 1.23 3.113 2.191.465.512.766 1.102.656 1.805-.172 1.094-1.137 1.711-2.277 1.531-1.078-.168-2.105-.516-3.172-.738-.734-.156-1.477-.238-2.258-.281zm30.145-14.523c.273-1.152.66-2.211 1.539-3.02.902-.828 1.973-1.117 3.176-1.016 1.539.125 2.895.719 4.102 1.664.438.348.781.762.957 1.313.238.738-.609 1.605-1.223 1.598-.238 0-.484-.109-.609-.316-.168-.266-.336-.211-.523-.074-.273.203-.547.402-.793.629a19.19 19.19 0 0 0-4.102 5.266c-.148.289-.254.598-.41.883-.273.496-.848.809-1.293.73-.551-.098-.898-.461-1.008-1.105-.238-1.437-.168-2.887-.094-4.332.031-.738.156-1.461.281-2.219zm0 0"/><path fill="#9a9b9a" d="M90.508 79.957c-.059-.805-.34-1.18-.965-1.316-.336-.07-.559.156-.855.254.234-.484.867-.645 1.41-.363.523.273.707.875.41 1.426zm0 0"/><path fill="#0e0d0e" d="M49.184 29.047c.621-.059 1.027.258 1.48.578.691.496 1.379.988 1.945 1.629.887.996 1.605 2.098 2.039 3.375.707 2.063-.461 3.375-2.207 3.527-2.031.18-3.652-.543-4.84-2.164-1.293-1.773-1.086-4.469.176-6.145.332-.445.754-.805 1.406-.801zm70.035-8.711c-.207.785-.582 1.441-1.211 1.918-1.273.957-2.961.379-3.52-1.199-.309-.863-.34-1.754-.219-2.648.152-1.117.402-2.207.848-3.246.141-.324.324-.613.543-.887.289-.363 1.031-.434 1.406-.168 1.191.84 1.922 1.965 2.191 3.395.176.938.211 1.871-.039 2.836zm0 0"/><path fill="#fefefe" d="M85.355 72.602l.883.281c-.441.18-.883.258-1.309.352-1.875.422-3.766.762-5.687.48-3.766-.551-6.613-2.453-8.285-5.922-.859-1.793-.695-3.562.609-5.121 1.883-2.246 4.082-4.152 6.484-5.824 1.59-1.105 3.344-1.195 5.168-.746.637.156 1.273.309 1.945.543a8.84 8.84 0 0 0-1.992 1.398c-1.801 1.691-2.77 3.762-2.844 6.238-.035 1.137-.02 2.273.195 3.398a5.32 5.32 0 0 0 2.258 3.492c.801.559 1.641 1.051 2.574 1.43zm0 0"/><path fill="#fcfcfc" d="M90.945 71.129c.906-.711 1.727-1.504 2.469-2.387 1.156-1.383 1.547-3.02 1.605-4.766.027-.883.066-1.773-.105-2.652-.086-.43-.277-.82-.469-1.277.566.203 1.02.492 1.453.816 1.195.898 2.191 1.969 2.801 3.355.469 1.07.301 2.043-.445 2.934-.855 1.023-1.93 1.77-3.086 2.398-1.406.766-2.898 1.332-4.387 1.898-.074.027-.145.047-.238-.008zm3.469-11.109zm0 0"/><path fill="#fdfdfd" d="M121.273 47.852c.797-.793 1.703-1.391 2.664-1.906.43-.227.902-.359 1.367-.355 1.156.012 2.328-.023 3.441.363.473.168.922.387 1.375.594.52.23.852.625 1.023 1.172.328 1.004.148 1.984-.023 2.996-.383 2.266-1.777 3.859-3.398 5.32l-.719.621c.078-.707.09-1.32.023-1.937-.117-1.074-.383-2.109-.898-3.07-.699-1.293-1.777-2.121-3.168-2.516-.73-.207-1.422-.516-2.152-.75.113-.211.297-.348.465-.531zm0 0"/><path fill="#eaedea" d="M119.789 59.957l.629.238c-.961.398-1.121.324-1.488-.668zm0 0"/><path fill="#5e2639" d="M115.016 77.18c-1.102.156-2.176.148-3.246.145-1.164 0-2.32-.023-3.457-.289-1.73-.406-2.367-1.395-2.613-3.133-.262-1.84.672-3.145 1.957-4.246 1.582-1.355 3.414-2.246 5.441-2.715.449-.102.898-.203 1.363-.199.063 0 .137-.016.188.008.879.438 1.734-.035 2.602-.055l2.73.012c.754.07 1.508.176 2.246.363 1.18.301 1.898 1.086 2.402 2.133.16.34.305.684.363 1.059a1.74 1.74 0 0 1-.496 1.59c-1.527 1.621-3.246 2.996-5.215 4.047-1.32.703-2.742 1.105-4.266 1.281zm0 0"/><path fill="#eaedea" d="M79.973 46.094c-1.395.129-2.715.441-4.105.945a8.41 8.41 0 0 1 1.352-1.387c.66-.555 1.371-1.035 2.172-1.375.52-.223 1.043-.27 1.574-.109 1.883.57 3.578 1.52 5.211 2.59.02.016.027.043.07.102-2.062-.598-4.117-.984-6.273-.766zm36.75-13.082c-1.145 1.039-2.113 2.191-3.031 3.406.082-1.289.113-2.582.824-3.73.254-.41.633-.648 1.125-.723.676-.105 1.305.035 1.98.277zm0 0"/><path fill="#5f5f5f" d="M51.758 36.082c-.836-.133-1.555-.422-2.137-1.027-.871-.902-.797-2.453-.465-3.391a.29.29 0 0 1 .313-.215c.262.012.508.078.672.281.762.926 1.664 1.758 2.16 2.887.141.309.398.559.434.934.027.266-.086.395-.285.445-.211.055-.43.141-.687.086zm64.68-16.27c-.191-.754.074-1.437.168-2.133.008-.062.027-.121.043-.18.035-.137-.066-.355.141-.375.238-.027.195.227.23.359.191.754.266 1.516.094 2.289v.039c-.078.25-.078.652-.363.66-.309.008-.234-.398-.309-.66zm0 0"/></svg>