<?xml version="1.0" encoding="UTF-8"?>
<!DOCTYPE svg PUBLIC "-//W3C//DTD SVG 1.1//EN" "http://www.w3.org/Graphics/SVG/1.1/DTD/svg11.dtd">
<svg xmlns="http://www.w3.org/2000/svg" version="1.1" width="200px" height="200px" style="shape-rendering:geometricPrecision; text-rendering:geometricPrecision; image-rendering:optimizeQuality; fill-rule:evenodd; clip-rule:evenodd" xmlns:xlink="http://www.w3.org/1999/xlink">
<g><path style="opacity:1" fill="#010101" d="M -0.5,-0.5 C 66.1667,-0.5 132.833,-0.5 199.5,-0.5C 199.5,66.1667 199.5,132.833 199.5,199.5C 132.833,199.5 66.1667,199.5 -0.5,199.5C -0.5,132.833 -0.5,66.1667 -0.5,-0.5 Z"/></g>
<g><path style="opacity:1" fill="#b2abb0" d="M 130.5,19.5 C 115.118,14.5657 99.4518,13.3991 83.5,16C 78.5132,17.2745 73.5132,18.4412 68.5,19.5C 78.1777,14.8379 88.511,12.8379 99.5,13.5C 110.473,12.8329 120.806,14.8329 130.5,19.5 Z"/></g>
<g><path style="opacity:1" fill="#dde3e7" d="M 121.5,19.5 C 127.757,21.3 133.757,23.6333 139.5,26.5C 139.369,27.2389 139.536,27.9056 140,28.5C 141.302,29.0848 142.469,29.7515 143.5,30.5C 141.089,31.2684 138.756,31.6018 136.5,31.5C 137.598,30.603 137.598,29.7697 136.5,29C 131.965,27.2602 127.298,26.0935 122.5,25.5C 122.082,24.7784 121.416,24.2784 120.5,24C 116.514,23.5012 112.514,23.3345 108.5,23.5C 109.378,26.9208 111.044,29.9208 113.5,32.5C 112.455,34.2049 111.122,35.7049 109.5,37C 108.365,37.7494 107.365,37.5827 106.5,36.5C 105.872,34.7419 104.872,33.2419 103.5,32C 106.5,30.475 107.167,28.3084 105.5,25.5C 104.653,24.0337 103.32,23.2004 101.5,23C 97.5138,22.5012 93.5138,22.3345 89.5,22.5C 87.6536,22.7778 86.3202,22.1112 85.5,20.5C 87.6489,19.0047 89.9822,18.0047 92.5,17.5C 96.5018,18.1247 100.335,19.1247 104,20.5C 105.93,20.0915 107.764,19.4248 109.5,18.5C 110.833,19.1667 112.167,19.8333 113.5,20.5C 116.115,19.7308 118.781,19.3975 121.5,19.5 Z"/></g>
<g><path style="opacity:1" fill="#143027" d="M 130.5,19.5 C 134.849,22.3411 139.516,24.6745 144.5,26.5C 146.55,28.5475 148.883,30.2141 151.5,31.5C 152.262,33.2624 153.596,34.2624 155.5,34.5C 156.5,36.1667 157.833,37.5 159.5,38.5C 160.833,40.5 162.5,42.1667 164.5,43.5C 165.08,45.7488 166.413,47.4154 168.5,48.5C 169.34,50.8525 170.674,52.8525 172.5,54.5C 173.167,56.5 173.833,58.5 174.5,60.5C 166.143,45.81 154.476,34.4767 139.5,26.5C 133.757,23.6333 127.757,21.3 121.5,19.5C 118.325,18.5713 114.991,17.738 111.5,17C 102.833,16.3333 94.1667,16.3333 85.5,17C 80.4505,17.6963 75.7838,19.1963 71.5,21.5C 70.1667,21.5 68.8333,21.5 67.5,21.5C 67.8333,20.8333 68.1667,20.1667 68.5,19.5C 73.5132,18.4412 78.5132,17.2745 83.5,16C 99.4518,13.3991 115.118,14.5657 130.5,19.5 Z"/></g>
<g><path style="opacity:1" fill="#cbefed" d="M 121.5,19.5 C 118.781,19.3975 116.115,19.7308 113.5,20.5C 112.167,19.8333 110.833,19.1667 109.5,18.5C 107.764,19.4248 105.93,20.0915 104,20.5C 100.335,19.1247 96.5018,18.1247 92.5,17.5C 89.9822,18.0047 87.6489,19.0047 85.5,20.5C 86.3202,22.1112 87.6536,22.7778 89.5,22.5C 88.4324,23.4345 87.099,23.7678 85.5,23.5C 80.6257,23.6424 75.959,22.9757 71.5,21.5C 75.7838,19.1963 80.4505,17.6963 85.5,17C 94.1667,16.3333 102.833,16.3333 111.5,17C 114.991,17.738 118.325,18.5713 121.5,19.5 Z"/></g>
<g><path style="opacity:1" fill="#bfb1b9" d="M 130.5,19.5 C 135.753,20.793 140.419,23.1263 144.5,26.5C 139.516,24.6745 134.849,22.3411 130.5,19.5 Z"/></g>
<g><path style="opacity:1" fill="#a2b8b6" d="M 68.5,19.5 C 68.1667,20.1667 67.8333,20.8333 67.5,21.5C 61.7403,22.878 56.7403,25.5446 52.5,29.5C 50.8333,30.1667 49.1667,30.8333 47.5,31.5C 53.3947,25.7148 60.3947,21.7148 68.5,19.5 Z"/></g>
<g><path style="opacity:1" fill="#d8d3de" d="M 71.5,21.5 C 75.959,22.9757 80.6257,23.6424 85.5,23.5C 79.2933,24.9875 72.9599,26.4875 66.5,28C 64.4222,29.0768 62.4222,30.2434 60.5,31.5C 59.8333,31.5 59.1667,31.5 58.5,31.5C 58.33,30.1779 58.6634,29.0113 59.5,28C 63.7835,26.0307 67.7835,23.864 71.5,21.5 Z"/></g>
<g><path style="opacity:1" fill="#0b271f" d="M 67.5,21.5 C 62.6981,24.4028 57.6981,27.0695 52.5,29.5C 56.7403,25.5446 61.7403,22.878 67.5,21.5 Z"/></g>
<g><path style="opacity:1" fill="#1a2f2e" d="M 122.5,25.5 C 127.298,26.0935 131.965,27.2602 136.5,29C 137.598,29.7697 137.598,30.603 136.5,31.5C 136.167,31.5 135.833,31.5 135.5,31.5C 133.472,29.6577 130.972,28.3244 128,27.5C 127.5,27.6667 127,27.8333 126.5,28C 127.337,29.0113 127.67,30.1779 127.5,31.5C 125.54,32.1383 123.707,32.1383 122,31.5C 121.217,29.5665 121.717,28.0665 123.5,27C 122.944,26.6174 122.611,26.1174 122.5,25.5 Z"/></g>
<g><path style="opacity:1" fill="#4bdec5" d="M 122.5,25.5 C 122.611,26.1174 122.944,26.6174 123.5,27C 121.717,28.0665 121.217,29.5665 122,31.5C 123.707,32.1383 125.54,32.1383 127.5,31.5C 127.67,30.1779 127.337,29.0113 126.5,28C 127,27.8333 127.5,27.6667 128,27.5C 130.972,28.3244 133.472,29.6577 135.5,31.5C 132.447,31.1107 129.78,31.7773 127.5,33.5C 126.325,33.281 125.325,33.6143 124.5,34.5C 125.167,37.1667 125.833,39.8333 126.5,42.5C 126.043,43.2975 125.376,43.6309 124.5,43.5C 122.173,43.7529 120.173,43.0863 118.5,41.5C 119.376,40.7492 120.376,40.2492 121.5,40C 120.206,34.6873 117.873,34.1873 114.5,38.5C 115.025,39.1924 115.692,39.6924 116.5,40C 114.098,40.8141 111.765,40.6474 109.5,39.5C 112.615,37.885 115.282,35.7183 117.5,33C 116.211,29.7366 114.211,27.07 111.5,25C 115.188,24.5499 118.854,24.7166 122.5,25.5 Z"/></g>
<g><path style="opacity:1" fill="#a7b9b3" d="M 144.5,26.5 C 147.674,27.0102 150.008,28.6769 151.5,31.5C 148.883,30.2141 146.55,28.5475 144.5,26.5 Z"/></g>
<g><path style="opacity:1" fill="#a5c7c3" d="M 151.5,31.5 C 153.404,31.7376 154.738,32.7376 155.5,34.5C 153.596,34.2624 152.262,33.2624 151.5,31.5 Z"/></g>
<g><path style="opacity:1" fill="#203b38" d="M 135.5,31.5 C 133.039,32.531 130.373,33.1977 127.5,33.5C 129.78,31.7773 132.447,31.1107 135.5,31.5 Z"/></g>
<g><path style="opacity:1" fill="#a5b5b8" d="M 47.5,31.5 C 46.0401,33.4628 44.3734,35.2962 42.5,37C 41.5632,37.6917 40.8966,37.525 40.5,36.5C 42.5732,34.4202 44.9066,32.7536 47.5,31.5 Z"/></g>
<g><path style="opacity:1" fill="#9fb3b4" d="M 155.5,34.5 C 157.833,34.8333 159.167,36.1667 159.5,38.5C 157.833,37.5 156.5,36.1667 155.5,34.5 Z"/></g>
<g><path style="opacity:1" fill="#9f9ba9" d="M 58.5,31.5 C 59.1667,31.5 59.8333,31.5 60.5,31.5C 59.3995,32.6049 58.7329,33.9382 58.5,35.5C 57.3068,37.5097 57.3068,39.6763 58.5,42C 57.5765,43.8114 56.7431,43.6447 56,41.5C 55.6174,42.056 55.1174,42.3893 54.5,42.5C 52.4116,40.9805 50.0783,39.9805 47.5,39.5C 47.5,38.1667 47.5,36.8333 47.5,35.5C 49.5914,35.6816 51.5914,35.3482 53.5,34.5C 54.3857,33.675 54.719,32.675 54.5,31.5C 55.8333,31.5 57.1667,31.5 58.5,31.5 Z"/></g>
<g><path style="opacity:1" fill="#a5aeab" d="M 159.5,38.5 C 162.167,39.1667 163.833,40.8333 164.5,43.5C 162.5,42.1667 160.833,40.5 159.5,38.5 Z"/></g>
<g><path style="opacity:1" fill="#84b5b0" d="M 67.5,21.5 C 68.8333,21.5 70.1667,21.5 71.5,21.5C 67.7835,23.864 63.7835,26.0307 59.5,28C 58.6634,29.0113 58.33,30.1779 58.5,31.5C 57.1667,31.5 55.8333,31.5 54.5,31.5C 54.719,32.675 54.3857,33.675 53.5,34.5C 51.5914,35.3482 49.5914,35.6816 47.5,35.5C 47.5,36.8333 47.5,38.1667 47.5,39.5C 46.5526,41.4554 45.2193,41.7887 43.5,40.5C 42.2742,42.2779 40.6075,43.2779 38.5,43.5C 38.9867,42.5266 39.4867,41.5266 40,40.5C 44.3602,36.9681 48.5268,33.3014 52.5,29.5C 57.6981,27.0695 62.6981,24.4028 67.5,21.5 Z"/></g>
<g><path style="opacity:1" fill="#a2a8ae" d="M 143.5,30.5 C 143.5,32.1667 143.5,33.8333 143.5,35.5C 146.337,35.6845 148.337,37.0178 149.5,39.5C 147.559,39.1307 145.725,38.464 144,37.5C 143.51,38.7932 143.343,40.1266 143.5,41.5C 140.289,41.012 137.456,41.6787 135,43.5C 134.667,42.8333 134.333,42.1667 134,41.5C 132.536,44.8865 130.536,44.8865 128,41.5C 127.058,38.7288 126.892,36.0621 127.5,33.5C 130.373,33.1977 133.039,32.531 135.5,31.5C 135.833,31.5 136.167,31.5 136.5,31.5C 138.756,31.6018 141.089,31.2684 143.5,30.5 Z"/></g>
<g><path style="opacity:1" fill="#1d3431" d="M 52.5,29.5 C 48.5268,33.3014 44.3602,36.9681 40,40.5C 39.4867,41.5266 38.9867,42.5266 38.5,43.5C 35.1395,46.1938 32.1395,49.1938 29.5,52.5C 30.1667,50.8333 30.8333,49.1667 31.5,47.5C 33.914,46.0892 35.5806,44.0892 36.5,41.5C 37.9307,39.8113 38.7641,37.8113 39,35.5C 39.3826,36.056 39.8826,36.3893 40.5,36.5C 40.8966,37.525 41.5632,37.6917 42.5,37C 44.3734,35.2962 46.0401,33.4628 47.5,31.5C 49.1667,30.8333 50.8333,30.1667 52.5,29.5 Z"/></g>
<g><path style="opacity:1" fill="#182a2b" d="M 89.5,22.5 C 93.5138,22.3345 97.5138,22.5012 101.5,23C 103.32,23.2004 104.653,24.0337 105.5,25.5C 107.167,28.3084 106.5,30.475 103.5,32C 104.872,33.2419 105.872,34.7419 106.5,36.5C 107.365,37.5827 108.365,37.7494 109.5,37C 111.122,35.7049 112.455,34.2049 113.5,32.5C 111.044,29.9208 109.378,26.9208 108.5,23.5C 112.514,23.3345 116.514,23.5012 120.5,24C 121.416,24.2784 122.082,24.7784 122.5,25.5C 118.854,24.7166 115.188,24.5499 111.5,25C 114.211,27.07 116.211,29.7366 117.5,33C 115.282,35.7183 112.615,37.885 109.5,39.5C 111.765,40.6474 114.098,40.8141 116.5,40C 115.692,39.6924 115.025,39.1924 114.5,38.5C 117.873,34.1873 120.206,34.6873 121.5,40C 120.376,40.2492 119.376,40.7492 118.5,41.5C 120.173,43.0863 122.173,43.7529 124.5,43.5C 125.263,44.2679 126.263,44.7679 127.5,45C 125.527,45.4955 123.527,45.6621 121.5,45.5C 118.073,44.8588 114.74,43.6921 111.5,42C 102.317,41.8034 93.3168,41.6367 84.5,41.5C 83.4937,40.6043 83.4937,39.9377 84.5,39.5C 85.0431,39.44 85.3764,39.1067 85.5,38.5C 84.812,35.2173 83.812,32.0506 82.5,29C 81.6683,28.3123 81.0016,28.479 80.5,29.5C 81.6405,30.4255 81.6405,31.2588 80.5,32C 77.0764,32.7466 73.7431,32.58 70.5,31.5C 73.3273,30.6317 76.3273,30.6317 79.5,31.5C 79.5,29.8333 79.5,28.1667 79.5,26.5C 75.9227,28.5673 71.9227,29.734 67.5,30C 62.3106,32.9132 61.1439,37.0799 64,42.5C 66.9836,45.1001 70.4836,46.1001 74.5,45.5C 74.5,45.8333 74.5,46.1667 74.5,46.5C 65.1912,48.2035 59.8578,44.5368 58.5,35.5C 58.7329,33.9382 59.3995,32.6049 60.5,31.5C 62.4222,30.2434 64.4222,29.0768 66.5,28C 72.9599,26.4875 79.2933,24.9875 85.5,23.5C 87.099,23.7678 88.4324,23.4345 89.5,22.5 Z"/></g>
<g><path style="opacity:1" fill="#45e6d1" d="M 70.5,31.5 C 68.2776,31.5587 67.2776,32.7253 67.5,35C 67.3866,36.6991 68.0532,37.8658 69.5,38.5C 70.595,41.7348 72.9283,43.5682 76.5,44C 75.9558,44.7172 75.2891,45.2172 74.5,45.5C 70.4836,46.1001 66.9836,45.1001 64,42.5C 61.1439,37.0799 62.3106,32.9132 67.5,30C 71.9227,29.734 75.9227,28.5673 79.5,26.5C 79.5,28.1667 79.5,29.8333 79.5,31.5C 76.3273,30.6317 73.3273,30.6317 70.5,31.5 Z"/></g>
<g><path style="opacity:1" fill="#2f4841" d="M 84.5,39.5 C 83.4937,39.9377 83.4937,40.6043 84.5,41.5C 83.1851,42.4756 81.8518,43.4756 80.5,44.5C 80.8346,43.336 80.8346,42.0026 80.5,40.5C 78.8087,42.2562 76.8087,42.7562 74.5,42C 75.4158,41.7216 76.0825,41.2216 76.5,40.5C 78.9561,37.2061 81.6228,36.8728 84.5,39.5 Z"/></g>
<g><path style="opacity:1" fill="#b1b2b5" d="M 84.5,39.5 C 81.6228,36.8728 78.9561,37.2061 76.5,40.5C 73.812,40.8342 71.4786,40.1675 69.5,38.5C 67.9365,35.8684 68.2699,33.5351 70.5,31.5C 73.7431,32.58 77.0764,32.7466 80.5,32C 81.6405,31.2588 81.6405,30.4255 80.5,29.5C 81.0016,28.479 81.6683,28.3123 82.5,29C 83.812,32.0506 84.812,35.2173 85.5,38.5C 85.3764,39.1067 85.0431,39.44 84.5,39.5 Z"/></g>
<g><path style="opacity:1" fill="#0e4943" d="M 70.5,31.5 C 68.2699,33.5351 67.9365,35.8684 69.5,38.5C 68.0532,37.8658 67.3866,36.6991 67.5,35C 67.2776,32.7253 68.2776,31.5587 70.5,31.5 Z"/></g>
<g><path style="opacity:1" fill="#47e1cb" d="M 105.5,25.5 C 105.657,26.8734 105.49,28.2068 105,29.5C 99.7837,30.645 99.4504,32.3117 104,34.5C 104.707,36.0806 105.54,37.5806 106.5,39C 104.833,39.6667 103.167,39.6667 101.5,39C 100.006,34.9402 97.3388,33.4402 93.5,34.5C 94.8155,35.8066 95.8155,37.3066 96.5,39C 93.6222,40.745 90.6222,41.245 87.5,40.5C 88.311,39.7836 88.9777,38.9503 89.5,38C 88.0444,34.6005 87.0444,31.1005 86.5,27.5C 85.0222,27.762 83.6888,27.4287 82.5,26.5C 90.0638,23.0419 97.7305,22.7085 105.5,25.5 Z"/></g>
<g><path style="opacity:1" fill="#1e2423" d="M 92.5,25.5 C 94.5273,25.3379 96.5273,25.5045 98.5,26C 99.8333,27.6667 99.8333,29.3333 98.5,31C 96.5273,31.4955 94.5273,31.6621 92.5,31.5C 92.5,29.5 92.5,27.5 92.5,25.5 Z"/></g>
<g><path style="opacity:1" fill="#c7dce1" d="M 93.5,27.5 C 95.4646,27.9483 95.7979,28.9483 94.5,30.5C 93.6143,29.675 93.281,28.675 93.5,27.5 Z"/></g>
<g><path style="opacity:1" fill="#7fa8a2" d="M 139.5,26.5 C 154.476,34.4767 166.143,45.81 174.5,60.5C 174.5,61.5 174.5,62.5 174.5,63.5C 171.863,60.0113 169.363,56.3447 167,52.5C 165.571,52.5302 164.071,52.1969 162.5,51.5C 160.94,49.8706 161.273,48.704 163.5,48C 161.942,47.79 160.609,47.29 159.5,46.5C 159.67,45.1779 159.337,44.0113 158.5,43C 156.294,43.2855 154.127,43.4521 152,43.5C 151.338,42.0161 150.504,40.6828 149.5,39.5C 148.337,37.0178 146.337,35.6845 143.5,35.5C 143.5,33.8333 143.5,32.1667 143.5,30.5C 142.469,29.7515 141.302,29.0848 140,28.5C 139.536,27.9056 139.369,27.2389 139.5,26.5 Z"/></g>
<g><path style="opacity:1" fill="#a9b9bb" d="M 36.5,41.5 C 35.5806,44.0892 33.914,46.0892 31.5,47.5C 32.4194,44.9108 34.086,42.9108 36.5,41.5 Z"/></g>
<g><path style="opacity:1" fill="#6a9192" d="M 47.5,39.5 C 50.0783,39.9805 52.4116,40.9805 54.5,42.5C 52.0985,46.2684 49.4319,46.2684 46.5,42.5C 44.8333,43.5 43.5,44.8333 42.5,46.5C 40.2338,47.3142 37.9005,47.8142 35.5,48C 34.944,48.3826 34.6107,48.8826 34.5,49.5C 30.734,54.0305 27.734,59.0305 25.5,64.5C 24.4161,67.0041 23.0828,69.3374 21.5,71.5C 21.3433,70.1266 21.51,68.7932 22,67.5C 24.511,62.478 27.011,57.478 29.5,52.5C 32.1395,49.1938 35.1395,46.1938 38.5,43.5C 40.6075,43.2779 42.2742,42.2779 43.5,40.5C 45.2193,41.7887 46.5526,41.4554 47.5,39.5 Z"/></g>
<g><path style="opacity:1" fill="#6c7480" d="M 58.5,35.5 C 59.8578,44.5368 65.1912,48.2035 74.5,46.5C 71.6308,49.2875 68.2974,51.6208 64.5,53.5C 63.2267,54.2565 63.2267,54.9232 64.5,55.5C 64.5,55.8333 64.5,56.1667 64.5,56.5C 63.5416,56.9528 62.7083,57.6195 62,58.5C 62.5589,56.3618 62.3922,54.3618 61.5,52.5C 61.5,51.5 61.5,50.5 61.5,49.5C 57.7839,48.3433 54.1172,48.3433 50.5,49.5C 49.7784,49.0825 49.2784,48.4158 49,47.5C 44.5564,48.054 40.5564,50.054 37,53.5C 36.3918,51.9336 35.5585,50.6002 34.5,49.5C 34.6107,48.8826 34.944,48.3826 35.5,48C 37.9005,47.8142 40.2338,47.3142 42.5,46.5C 43.5,44.8333 44.8333,43.5 46.5,42.5C 49.4319,46.2684 52.0985,46.2684 54.5,42.5C 55.1174,42.3893 55.6174,42.056 56,41.5C 56.7431,43.6447 57.5765,43.8114 58.5,42C 57.3068,39.6763 57.3068,37.5097 58.5,35.5 Z"/></g>
<g><path style="opacity:1" fill="#79868b" d="M 127.5,33.5 C 126.892,36.0621 127.058,38.7288 128,41.5C 130.536,44.8865 132.536,44.8865 134,41.5C 134.333,42.1667 134.667,42.8333 135,43.5C 137.456,41.6787 140.289,41.012 143.5,41.5C 143.343,40.1266 143.51,38.7932 144,37.5C 145.725,38.464 147.559,39.1307 149.5,39.5C 150.504,40.6828 151.338,42.0161 152,43.5C 154.127,43.4521 156.294,43.2855 158.5,43C 159.337,44.0113 159.67,45.1779 159.5,46.5C 153.144,46.7801 146.81,47.4467 140.5,48.5C 137.516,50.8197 135.849,53.8197 135.5,57.5C 135.167,56.8333 134.833,56.1667 134.5,55.5C 134.938,55.5654 135.272,55.3988 135.5,55C 134.5,54 133.5,53 132.5,52C 128.678,49.9133 125.011,47.7466 121.5,45.5C 123.527,45.6621 125.527,45.4955 127.5,45C 126.263,44.7679 125.263,44.2679 124.5,43.5C 125.376,43.6309 126.043,43.2975 126.5,42.5C 125.833,39.8333 125.167,37.1667 124.5,34.5C 125.325,33.6143 126.325,33.281 127.5,33.5 Z"/></g>
<g><path style="opacity:1" fill="#a3b4af" d="M 164.5,43.5 C 166.587,44.5846 167.92,46.2512 168.5,48.5C 166.413,47.4154 165.08,45.7488 164.5,43.5 Z"/></g>
<g><path style="opacity:1" fill="#64c2b6" d="M 69.5,38.5 C 71.4786,40.1675 73.812,40.8342 76.5,40.5C 76.0825,41.2216 75.4158,41.7216 74.5,42C 76.8087,42.7562 78.8087,42.2562 80.5,40.5C 80.8346,42.0026 80.8346,43.336 80.5,44.5C 81.8518,43.4756 83.1851,42.4756 84.5,41.5C 93.3168,41.6367 102.317,41.8034 111.5,42C 114.74,43.6921 118.073,44.8588 121.5,45.5C 125.011,47.7466 128.678,49.9133 132.5,52C 133.5,53 134.5,54 135.5,55C 135.272,55.3988 134.938,55.5654 134.5,55.5C 111.148,39.631 87.8144,39.631 64.5,55.5C 63.2267,54.9232 63.2267,54.2565 64.5,53.5C 68.2974,51.6208 71.6308,49.2875 74.5,46.5C 74.5,46.1667 74.5,45.8333 74.5,45.5C 75.2891,45.2172 75.9558,44.7172 76.5,44C 72.9283,43.5682 70.595,41.7348 69.5,38.5 Z"/></g>
<g><path style="opacity:1" fill="#12534d" d="M 134.5,55.5 C 134.833,56.1667 135.167,56.8333 135.5,57.5C 135.167,58.1667 134.833,58.8333 134.5,59.5C 133.167,59.5 131.833,59.5 130.5,59.5C 133.527,58.3737 133.86,56.8737 131.5,55C 126.301,51.3998 120.635,48.8998 114.5,47.5C 102.396,44.5382 90.3958,45.0382 78.5,49C 75.7613,50.0259 73.428,51.5259 71.5,53.5C 69.3911,54.3909 67.3911,55.5576 65.5,57C 67.4484,57.9832 69.2817,59.1498 71,60.5C 71.6917,61.4368 71.525,62.1034 70.5,62.5C 68.8243,60.1663 66.491,59.1663 63.5,59.5C 64.1098,58.609 64.4431,57.609 64.5,56.5C 64.5,56.1667 64.5,55.8333 64.5,55.5C 87.8144,39.631 111.148,39.631 134.5,55.5 Z"/></g>
<g><path style="opacity:1" fill="#a8bebc" d="M 168.5,48.5 C 170.822,49.8021 172.155,51.8021 172.5,54.5C 170.674,52.8525 169.34,50.8525 168.5,48.5 Z"/></g>
<g><path style="opacity:1" fill="#adbab6" d="M 31.5,47.5 C 30.8333,49.1667 30.1667,50.8333 29.5,52.5C 28.1667,53.8333 26.8333,55.1667 25.5,56.5C 26.7232,52.9505 28.7232,49.9505 31.5,47.5 Z"/></g>
<g><path style="opacity:1" fill="#5e6b72" d="M 159.5,46.5 C 160.609,47.29 161.942,47.79 163.5,48C 161.273,48.704 160.94,49.8706 162.5,51.5C 161.789,53.1035 160.789,55.1035 159.5,57.5C 156.856,57.8399 154.523,57.1733 152.5,55.5C 151.818,56.2427 151.151,56.9094 150.5,57.5C 150.664,50.8818 147.331,47.8818 140.5,48.5C 146.81,47.4467 153.144,46.7801 159.5,46.5 Z"/></g>
<g><path style="opacity:1" fill="#090e0f" d="M 61.5,52.5 C 61.4894,54.0174 60.8228,55.1841 59.5,56C 60.4506,56.7175 60.6172,57.5509 60,58.5C 58.8549,59.6364 57.6883,60.6364 56.5,61.5C 56.1667,61.5 55.8333,61.5 55.5,61.5C 53.1417,61.7475 51.1417,61.0808 49.5,59.5C 47.9629,55.9367 48.2963,52.6034 50.5,49.5C 54.1172,48.3433 57.7839,48.3433 61.5,49.5C 61.5,50.5 61.5,51.5 61.5,52.5 Z"/></g>
<g><path style="opacity:1" fill="#ddc9cc" d="M 53.5,53.5 C 54.8333,53.5 56.1667,53.5 57.5,53.5C 57.5,54.5 57.5,55.5 57.5,56.5C 56.1667,56.5 54.8333,56.5 53.5,56.5C 53.5,55.5 53.5,54.5 53.5,53.5 Z"/></g>
<g><path style="opacity:1" fill="#27f8de" d="M 114.5,47.5 C 115.459,49.6536 115.459,51.6536 114.5,53.5C 118.977,52.2434 123.311,52.7434 127.5,55C 123.202,55.1003 120.702,57.267 120,61.5C 119.5,60.3333 118.667,59.5 117.5,59C 107.298,57.9866 97.1309,57.1533 87,56.5C 85.2615,58.2408 83.2615,59.5741 81,60.5C 77.0909,58.9832 73.9243,56.6498 71.5,53.5C 73.428,51.5259 75.7613,50.0259 78.5,49C 90.3958,45.0382 102.396,44.5382 114.5,47.5 Z"/></g>
<g><path style="opacity:1" fill="#3c5462" d="M 50.5,49.5 C 48.2963,52.6034 47.9629,55.9367 49.5,59.5C 49.6068,61.3786 49.1068,61.7119 48,60.5C 45.2083,61.0981 42.5416,62.0981 40,63.5C 37.0572,62.248 34.0572,61.248 31,60.5C 29.7949,61.0712 28.6283,61.7379 27.5,62.5C 28.9294,64.3313 29.4294,66.3313 29,68.5C 28.2597,66.6813 27.0931,65.3479 25.5,64.5C 27.734,59.0305 30.734,54.0305 34.5,49.5C 35.5585,50.6002 36.3918,51.9336 37,53.5C 40.5564,50.054 44.5564,48.054 49,47.5C 49.2784,48.4158 49.7784,49.0825 50.5,49.5 Z"/></g>
<g><path style="opacity:1" fill="#112c2d" d="M 61.5,52.5 C 62.3922,54.3618 62.5589,56.3618 62,58.5C 62.7083,57.6195 63.5416,56.9528 64.5,56.5C 64.4431,57.609 64.1098,58.609 63.5,59.5C 58.5128,62.6342 58.1795,66.3008 62.5,70.5C 59.8318,69.5433 58.3318,67.5433 58,64.5C 54.549,69.0917 51.3824,73.7583 48.5,78.5C 50.4435,72.6172 53.4435,67.2839 57.5,62.5C 57.3764,61.8933 57.0431,61.56 56.5,61.5C 57.6883,60.6364 58.8549,59.6364 60,58.5C 60.6172,57.5509 60.4506,56.7175 59.5,56C 60.8228,55.1841 61.4894,54.0174 61.5,52.5 Z"/></g>
<g><path style="opacity:1" fill="#0c1212" d="M 140.5,48.5 C 147.331,47.8818 150.664,50.8818 150.5,57.5C 148.919,60.0678 146.586,61.4011 143.5,61.5C 142.167,61.5 141.5,62.1667 141.5,63.5C 140.609,62.8902 139.609,62.5569 138.5,62.5C 137.738,60.7376 136.404,59.7376 134.5,59.5C 134.833,58.8333 135.167,58.1667 135.5,57.5C 135.849,53.8197 137.516,50.8197 140.5,48.5 Z"/></g>
<g><path style="opacity:1" fill="#eee6e9" d="M 141.5,53.5 C 142.5,53.5 143.5,53.5 144.5,53.5C 144.5,54.5 144.5,55.5 144.5,56.5C 143.5,56.5 142.5,56.5 141.5,56.5C 141.5,55.5 141.5,54.5 141.5,53.5 Z"/></g>
<g><path style="opacity:1" fill="#adc1c4" d="M 25.5,56.5 C 24.3411,60.1513 22.6744,63.4846 20.5,66.5C 21.1266,62.5799 22.7933,59.2466 25.5,56.5 Z"/></g>
<g><path style="opacity:1" fill="#40e7d2" d="M 114.5,47.5 C 120.635,48.8998 126.301,51.3998 131.5,55C 133.86,56.8737 133.527,58.3737 130.5,59.5C 128.5,59.5 127.5,60.5 127.5,62.5C 126.698,63.9516 126.198,65.6183 126,67.5C 123.397,64.7225 120.23,63.0558 116.5,62.5C 111.039,59.3043 105.039,57.9709 98.5,58.5C 88.7376,57.9663 80.2376,60.9663 73,67.5C 72.8784,65.563 72.045,64.2297 70.5,63.5C 70.5,63.1667 70.5,62.8333 70.5,62.5C 71.525,62.1034 71.6917,61.4368 71,60.5C 69.2817,59.1498 67.4484,57.9832 65.5,57C 67.3911,55.5576 69.3911,54.3909 71.5,53.5C 73.9243,56.6498 77.0909,58.9832 81,60.5C 83.2615,59.5741 85.2615,58.2408 87,56.5C 97.1309,57.1533 107.298,57.9866 117.5,59C 118.667,59.5 119.5,60.3333 120,61.5C 120.702,57.267 123.202,55.1003 127.5,55C 123.311,52.7434 118.977,52.2434 114.5,53.5C 115.459,51.6536 115.459,49.6536 114.5,47.5 Z"/></g>
<g><path style="opacity:1" fill="#0b211c" d="M 130.5,59.5 C 129.833,60.8333 128.833,61.8333 127.5,62.5C 127.5,60.5 128.5,59.5 130.5,59.5 Z"/></g>
<g><path style="opacity:1" fill="#eeebee" d="M 130.5,59.5 C 131.833,59.5 133.167,59.5 134.5,59.5C 136.404,59.7376 137.738,60.7376 138.5,62.5C 139.762,67.4219 137.929,70.0886 133,70.5C 128.972,69.4676 127.138,66.8009 127.5,62.5C 128.833,61.8333 129.833,60.8333 130.5,59.5 Z"/></g>
<g><path style="opacity:1" fill="#314c52" d="M 162.5,51.5 C 164.071,52.1969 165.571,52.5302 167,52.5C 169.363,56.3447 171.863,60.0113 174.5,63.5C 174.629,65.2161 174.962,66.8828 175.5,68.5C 174.417,68.5394 173.417,68.8728 172.5,69.5C 171.24,67.6471 171.24,65.8138 172.5,64C 169.294,63.7037 166.128,63.2037 163,62.5C 162.127,62.7355 161.293,63.0688 160.5,63.5C 159.516,66.4281 159.183,69.4281 159.5,72.5C 159.19,73.7383 158.69,73.7383 158,72.5C 156.851,69.6074 156.351,66.6074 156.5,63.5C 154.167,63.5 151.833,63.5 149.5,63.5C 149.46,66.4245 150.293,69.0912 152,71.5C 153.011,72.3366 154.178,72.67 155.5,72.5C 155.833,74.5 156.167,76.5 156.5,78.5C 155.21,77.9423 154.377,76.9423 154,75.5C 153.221,77.9063 154.054,79.573 156.5,80.5C 156.137,81.1835 155.804,81.8501 155.5,82.5C 154.272,81.6935 153.272,80.6935 152.5,79.5C 151.062,72.624 148.062,66.624 143.5,61.5C 146.586,61.4011 148.919,60.0678 150.5,57.5C 151.151,56.9094 151.818,56.2427 152.5,55.5C 154.523,57.1733 156.856,57.8399 159.5,57.5C 160.789,55.1035 161.789,53.1035 162.5,51.5 Z"/></g>
<g><path style="opacity:1" fill="#52a8a0" d="M 143.5,61.5 C 148.062,66.624 151.062,72.624 152.5,79.5C 151.167,77.5 149.833,75.5 148.5,73.5C 147.11,72.1007 146.11,70.4341 145.5,68.5C 144.92,66.2512 143.587,64.5846 141.5,63.5C 141.5,62.1667 142.167,61.5 143.5,61.5 Z"/></g>
<g><path style="opacity:1" fill="#0e2524" d="M 29.5,52.5 C 27.011,57.478 24.511,62.478 22,67.5C 21.51,68.7932 21.3433,70.1266 21.5,71.5C 19.405,75.8463 17.905,80.513 17,85.5C 14.0873,107.377 18.254,127.71 29.5,146.5C 28.1154,145.426 26.9487,144.093 26,142.5C 23.4541,137.408 20.9541,132.408 18.5,127.5C 16.3753,118.461 15.042,109.294 14.5,100C 14.9749,90.3654 16.3083,80.8654 18.5,71.5C 19.9313,70.2196 20.5979,68.5529 20.5,66.5C 22.6744,63.4846 24.3411,60.1513 25.5,56.5C 26.8333,55.1667 28.1667,53.8333 29.5,52.5 Z"/></g>
<g><path style="opacity:1" fill="#46807c" d="M 89.5,70.5 C 85.4861,67.957 85.8194,65.7903 90.5,64C 86.9848,64.9165 83.3182,65.4165 79.5,65.5C 81.6845,63.4152 84.3511,62.4152 87.5,62.5C 90.214,62.25 92.8806,62.0833 95.5,62C 92.8723,63.6255 90.539,65.6255 88.5,68C 89.2524,68.6708 89.5858,69.5041 89.5,70.5 Z"/></g>
<g><path style="opacity:1" fill="#abb5b8" d="M 172.5,54.5 C 179.086,63.7373 183.253,74.0707 185,85.5C 186.892,101.26 185.226,116.593 180,131.5C 179.059,133.727 177.892,135.727 176.5,137.5C 184,119.835 186.166,101.502 183,82.5C 181.962,77.8811 180.462,73.5477 178.5,69.5C 177.958,66.0878 176.625,63.0878 174.5,60.5C 173.833,58.5 173.167,56.5 172.5,54.5 Z"/></g>
<g><path style="opacity:1" fill="#0c1c16" d="M 174.5,60.5 C 176.625,63.0878 177.958,66.0878 178.5,69.5C 177.167,67.5 175.833,65.5 174.5,63.5C 174.5,62.5 174.5,61.5 174.5,60.5 Z"/></g>
<g><path style="opacity:1" fill="#eae7ec" d="M 63.5,59.5 C 66.491,59.1663 68.8243,60.1663 70.5,62.5C 70.5,62.8333 70.5,63.1667 70.5,63.5C 70.3489,68.6489 67.6822,70.9822 62.5,70.5C 58.1795,66.3008 58.5128,62.6342 63.5,59.5 Z"/></g>
<g><path style="opacity:1" fill="#130a0b" d="M 63.5,63.5 C 64.5,63.5 65.5,63.5 66.5,63.5C 65.7542,67.31 64.7542,67.31 63.5,63.5 Z"/></g>
<g><path style="opacity:1" fill="#a0cfcc" d="M 116.5,62.5 C 116.5,62.8333 116.5,63.1667 116.5,63.5C 115.503,63.4701 114.836,63.9701 114.5,65C 115.871,67.3187 116.538,69.8187 116.5,72.5C 115.167,74.1667 113.833,75.8333 112.5,77.5C 108.316,75.7947 104.316,73.7947 100.5,71.5C 99.2798,72.7111 98.1131,72.7111 97,71.5C 96.6121,72.428 95.9454,73.0946 95,73.5C 93.2691,72.259 91.4358,71.259 89.5,70.5C 89.5858,69.5041 89.2524,68.6708 88.5,68C 90.539,65.6255 92.8723,63.6255 95.5,62C 92.8806,62.0833 90.214,62.25 87.5,62.5C 90.2071,60.9757 93.2071,59.9757 96.5,59.5C 103.197,60.2607 109.864,61.2607 116.5,62.5 Z"/></g>
<g><path style="opacity:1" fill="#acc2c0" d="M 20.5,66.5 C 20.5979,68.5529 19.9313,70.2196 18.5,71.5C 18.4021,69.4471 19.0687,67.7804 20.5,66.5 Z"/></g>
<g><path style="opacity:1" fill="#21423f" d="M 116.5,62.5 C 109.864,61.2607 103.197,60.2607 96.5,59.5C 93.2071,59.9757 90.2071,60.9757 87.5,62.5C 84.3511,62.4152 81.6845,63.4152 79.5,65.5C 76.8136,66.9881 77.1469,67.6547 80.5,67.5C 80.2558,71.7895 78.5891,72.4561 75.5,69.5C 73.6385,70.5283 72.3052,72.0283 71.5,74C 72.448,74.4828 73.448,74.6495 74.5,74.5C 74.335,77.8499 74.5017,81.1832 75,84.5C 75.3826,83.944 75.8826,83.6107 76.5,83.5C 76.2761,85.7867 75.6094,87.9534 74.5,90C 76.1053,91.922 75.772,93.0886 73.5,93.5C 73.8288,87.7945 73.4954,82.1278 72.5,76.5C 62.5027,81.2384 58.6694,89.2384 61,100.5C 61.8466,102.193 62.6799,103.86 63.5,105.5C 62.2502,105.423 61.4169,104.756 61,103.5C 60.5045,105.473 60.3379,107.473 60.5,109.5C 56.1681,95.6264 58.8348,83.1264 68.5,72C 66.2922,71.8091 64.2922,71.3091 62.5,70.5C 67.6822,70.9822 70.3489,68.6489 70.5,63.5C 72.045,64.2297 72.8784,65.563 73,67.5C 80.2376,60.9663 88.7376,57.9663 98.5,58.5C 105.039,57.9709 111.039,59.3043 116.5,62.5 Z"/></g>
<g><path style="opacity:1" fill="#113132" d="M 116.5,62.5 C 120.23,63.0558 123.397,64.7225 126,67.5C 126.198,65.6183 126.698,63.9516 127.5,62.5C 127.138,66.8009 128.972,69.4676 133,70.5C 137.929,70.0886 139.762,67.4219 138.5,62.5C 139.609,62.5569 140.609,62.8902 141.5,63.5C 143.587,64.5846 144.92,66.2512 145.5,68.5C 143.871,67.3747 142.371,66.0414 141,64.5C 140.024,70.4698 136.524,72.9698 130.5,72C 144.666,89.5246 144.999,107.358 131.5,125.5C 132.949,126.172 134.282,126.839 135.5,127.5C 129.833,127.167 127.167,129.833 127.5,135.5C 126.978,133.781 125.978,132.448 124.5,131.5C 124.5,131.167 124.5,130.833 124.5,130.5C 129.205,126.279 133.038,121.279 136,115.5C 136.74,114.251 136.573,113.251 135.5,112.5C 135.5,112.167 135.5,111.833 135.5,111.5C 136.75,111.423 137.583,110.756 138,109.5C 139.471,103.569 139.804,97.5692 139,91.5C 138.03,91.3757 137.197,91.3757 136.5,91.5C 136.837,87.6924 136.337,84.0257 135,80.5C 131.636,75.9715 127.803,71.9715 123.5,68.5C 121.66,66.0855 119.327,64.4188 116.5,63.5C 116.5,63.1667 116.5,62.8333 116.5,62.5 Z"/></g>
<g><path style="opacity:1" fill="#212b20" d="M 131.5,63.5 C 132.833,63.5 134.167,63.5 135.5,63.5C 135.5,64.5 135.5,65.5 135.5,66.5C 134.167,66.5 132.833,66.5 131.5,66.5C 131.5,65.5 131.5,64.5 131.5,63.5 Z"/></g>
<g><path style="opacity:1" fill="#48b29c" d="M 116.5,63.5 C 119.327,64.4188 121.66,66.0855 123.5,68.5C 120.379,69.2876 118.712,71.2876 118.5,74.5C 117.833,73.8333 117.167,73.1667 116.5,72.5C 116.538,69.8187 115.871,67.3187 114.5,65C 114.836,63.9701 115.503,63.4701 116.5,63.5 Z"/></g>
<g><path style="opacity:1" fill="#40e5d0" d="M 89.5,70.5 C 90.1408,71.4822 90.8075,72.4822 91.5,73.5C 87.8736,74.122 84.207,74.2886 80.5,74C 78.8724,77.0516 77.539,80.2182 76.5,83.5C 75.8826,83.6107 75.3826,83.944 75,84.5C 74.5017,81.1832 74.335,77.8499 74.5,74.5C 73.448,74.6495 72.448,74.4828 71.5,74C 72.3052,72.0283 73.6385,70.5283 75.5,69.5C 78.5891,72.4561 80.2558,71.7895 80.5,67.5C 77.1469,67.6547 76.8136,66.9881 79.5,65.5C 83.3182,65.4165 86.9848,64.9165 90.5,64C 85.8194,65.7903 85.4861,67.957 89.5,70.5 Z"/></g>
<g><path style="opacity:1" fill="#173443" d="M 49.5,59.5 C 51.1417,61.0808 53.1417,61.7475 55.5,61.5C 53.6033,64.947 51.4367,68.2804 49,71.5C 47.434,76.0565 45.6007,80.3898 43.5,84.5C 42.9947,81.1589 42.8281,77.8255 43,74.5C 49.2214,70.4453 48.888,69.7787 42,72.5C 41.7935,75.6229 41.1268,78.6229 40,81.5C 40.2145,78.0795 40.3812,74.7462 40.5,71.5C 37.2549,72.7445 34.9215,75.0779 33.5,78.5C 31.9547,79.4519 30.288,79.7852 28.5,79.5C 28.5,77.5 28.5,75.5 28.5,73.5C 27.1667,73.5 25.8333,73.5 24.5,73.5C 24.5,75.5 24.5,77.5 24.5,79.5C 25.5,79.5 26.5,79.5 27.5,79.5C 27.0338,81.2012 27.0338,82.7012 27.5,84C 26.552,84.4828 25.552,84.6495 24.5,84.5C 21.1296,93.083 19.4629,102.083 19.5,111.5C 19.1667,111.5 18.8333,111.5 18.5,111.5C 16.7669,97.9622 17.7669,84.6289 21.5,71.5C 23.0828,69.3374 24.4161,67.0041 25.5,64.5C 27.0931,65.3479 28.2597,66.6813 29,68.5C 29.4294,66.3313 28.9294,64.3313 27.5,62.5C 28.6283,61.7379 29.7949,61.0712 31,60.5C 34.0572,61.248 37.0572,62.248 40,63.5C 42.5416,62.0981 45.2083,61.0981 48,60.5C 49.1068,61.7119 49.6068,61.3786 49.5,59.5 Z"/></g>
<g><path style="opacity:1" fill="#7ca9af" d="M 118.5,76.5 C 120.923,76.4236 122.756,77.4236 124,79.5C 126.533,77.0902 128.367,77.7569 129.5,81.5C 128.378,85.3154 127.712,85.3154 127.5,81.5C 121.675,81.4039 121.509,83.0705 127,86.5C 127.74,87.7494 127.573,88.7494 126.5,89.5C 120.579,87.2319 117.912,82.8985 118.5,76.5 Z"/></g>
<g><path style="opacity:1" fill="#99d2cd" d="M 123.5,68.5 C 127.803,71.9715 131.636,75.9715 135,80.5C 136.337,84.0257 136.837,87.6924 136.5,91.5C 135.041,91.4326 133.708,91.7659 132.5,92.5C 129.68,92.913 127.68,91.913 126.5,89.5C 127.573,88.7494 127.74,87.7494 127,86.5C 121.509,83.0705 121.675,81.4039 127.5,81.5C 127.712,85.3154 128.378,85.3154 129.5,81.5C 128.367,77.7569 126.533,77.0902 124,79.5C 122.756,77.4236 120.923,76.4236 118.5,76.5C 118.5,75.8333 118.5,75.1667 118.5,74.5C 118.712,71.2876 120.379,69.2876 123.5,68.5 Z"/></g>
<g><path style="opacity:1" fill="#5dbdb9" d="M 55.5,61.5 C 55.8333,61.5 56.1667,61.5 56.5,61.5C 57.0431,61.56 57.3764,61.8933 57.5,62.5C 53.4435,67.2839 50.4435,72.6172 48.5,78.5C 46.8916,81.2102 45.7249,84.2102 45,87.5C 43.6929,98.4122 44.6929,109.079 48,119.5C 50.1932,123.886 52.3599,128.22 54.5,132.5C 51.8095,129.961 49.6428,126.961 48,123.5C 45.5229,117.565 43.6896,111.565 42.5,105.5C 42.3769,98.4707 42.7103,91.4707 43.5,84.5C 45.6007,80.3898 47.434,76.0565 49,71.5C 51.4367,68.2804 53.6033,64.947 55.5,61.5 Z"/></g>
<g><path style="opacity:1" fill="#549997" d="M 89.5,70.5 C 91.4358,71.259 93.2691,72.259 95,73.5C 95.9454,73.0946 96.6121,72.428 97,71.5C 98.1131,72.7111 99.2798,72.7111 100.5,71.5C 104.316,73.7947 108.316,75.7947 112.5,77.5C 112.5,77.8333 112.5,78.1667 112.5,78.5C 106.698,78.6239 101.032,78.1239 95.5,77C 96.1667,78 96.8333,79 97.5,80C 93.8487,81.7263 90.182,83.5596 86.5,85.5C 85.2888,86.2739 85.2888,87.1072 86.5,88C 82.3971,88.7488 80.7304,91.2488 81.5,95.5C 79.8762,95.3601 78.7096,96.0267 78,97.5C 77.7216,96.5842 77.2216,95.9175 76.5,95.5C 75.5,95.5 74.5,95.5 73.5,95.5C 74.0545,99.0122 73.3878,102.012 71.5,104.5C 71.2511,100.542 71.9177,96.8756 73.5,93.5C 75.772,93.0886 76.1053,91.922 74.5,90C 75.6094,87.9534 76.2761,85.7867 76.5,83.5C 77.539,80.2182 78.8724,77.0516 80.5,74C 84.207,74.2886 87.8736,74.122 91.5,73.5C 90.8075,72.4822 90.1408,71.4822 89.5,70.5 Z"/></g>
<g><path style="opacity:1" fill="#0d273c" d="M 43.5,84.5 C 42.7103,91.4707 42.3769,98.4707 42.5,105.5C 42.6697,110.859 43.1697,116.192 44,121.5C 44.3603,123.421 45.1936,125.088 46.5,126.5C 45.7261,127.711 44.8928,127.711 44,126.5C 43.0201,128.059 42.1867,129.726 41.5,131.5C 40.3682,125.841 38.3682,120.507 35.5,115.5C 34.1769,119.401 33.1769,123.401 32.5,127.5C 31.8506,125.376 31.0173,123.376 30,121.5C 28.3005,122.406 26.4672,122.739 24.5,122.5C 24.6192,118.653 23.9525,114.986 22.5,111.5C 21.5,111.5 20.5,111.5 19.5,111.5C 19.4629,102.083 21.1296,93.083 24.5,84.5C 25.552,84.6495 26.552,84.4828 27.5,84C 27.0338,82.7012 27.0338,81.2012 27.5,79.5C 26.5,79.5 25.5,79.5 24.5,79.5C 24.5,77.5 24.5,75.5 24.5,73.5C 25.8333,73.5 27.1667,73.5 28.5,73.5C 28.5,75.5 28.5,77.5 28.5,79.5C 30.288,79.7852 31.9547,79.4519 33.5,78.5C 34.9215,75.0779 37.2549,72.7445 40.5,71.5C 40.3812,74.7462 40.2145,78.0795 40,81.5C 41.1268,78.6229 41.7935,75.6229 42,72.5C 48.888,69.7787 49.2214,70.4453 43,74.5C 42.8281,77.8255 42.9947,81.1589 43.5,84.5 Z"/></g>
<g><path style="opacity:1" fill="#2ff3db" d="M 145.5,68.5 C 146.11,70.4341 147.11,72.1007 148.5,73.5C 154.312,88.5922 154.978,103.926 150.5,119.5C 147.604,124.274 144.437,128.941 141,133.5C 141.185,129.489 139.352,127.489 135.5,127.5C 134.282,126.839 132.949,126.172 131.5,125.5C 144.999,107.358 144.666,89.5246 130.5,72C 136.524,72.9698 140.024,70.4698 141,64.5C 142.371,66.0414 143.871,67.3747 145.5,68.5 Z"/></g>
<g><path style="opacity:1" fill="#3ac1a5" d="M 135.5,111.5 C 134.662,111.158 134.328,110.492 134.5,109.5C 136.78,105.74 136.78,102.073 134.5,98.5C 133.37,96.6854 132.704,94.6854 132.5,92.5C 133.708,91.7659 135.041,91.4326 136.5,91.5C 137.197,91.3757 138.03,91.3757 139,91.5C 139.804,97.5692 139.471,103.569 138,109.5C 137.583,110.756 136.75,111.423 135.5,111.5 Z"/></g>
<g><path style="opacity:1" fill="#035953" d="M 148.5,73.5 C 149.833,75.5 151.167,77.5 152.5,79.5C 155.766,90.0262 156.266,100.693 154,111.5C 153.125,114.401 151.958,117.068 150.5,119.5C 154.978,103.926 154.312,88.5922 148.5,73.5 Z"/></g>
<g><path style="opacity:1" fill="#4b9e93" d="M 174.5,63.5 C 175.833,65.5 177.167,67.5 178.5,69.5C 183.902,85.9303 184.735,102.597 181,119.5C 180.434,121.723 179.6,123.723 178.5,125.5C 181.272,112.991 182.105,100.325 181,87.5C 180.233,80.8178 178.4,74.4844 175.5,68.5C 174.962,66.8828 174.629,65.2161 174.5,63.5 Z"/></g>
<g><path style="opacity:1" fill="#afd6d6" d="M 73.5,93.5 C 71.9177,96.8756 71.2511,100.542 71.5,104.5C 68.7628,104.401 66.0961,104.735 63.5,105.5C 62.6799,103.86 61.8466,102.193 61,100.5C 58.6694,89.2384 62.5027,81.2384 72.5,76.5C 73.4954,82.1278 73.8288,87.7945 73.5,93.5 Z"/></g>
<g><path style="opacity:1" fill="#0d293b" d="M 159.5,72.5 C 161.939,71.9475 164.273,71.9475 166.5,72.5C 167.833,73.1667 167.833,73.8333 166.5,74.5C 165.325,73.1451 164.325,73.3117 163.5,75C 165.957,76.1544 165.957,77.4877 163.5,79C 168.04,80.3589 171.04,78.8589 172.5,74.5C 173.325,73.6143 174.325,73.281 175.5,73.5C 175.334,77.5138 175.501,81.5138 176,85.5C 176.192,83.4233 176.692,81.4233 177.5,79.5C 177.833,80.8333 178.167,82.1667 178.5,83.5C 176.765,91.725 176.098,100.058 176.5,108.5C 172.777,109.188 169.111,110.188 165.5,111.5C 163.267,110.385 161.101,110.385 159,111.5C 158.314,104.98 158.48,98.4795 159.5,92C 158.174,87.5088 157.174,83.0088 156.5,78.5C 156.167,76.5 155.833,74.5 155.5,72.5C 154.178,72.67 153.011,72.3366 152,71.5C 150.293,69.0912 149.46,66.4245 149.5,63.5C 151.833,63.5 154.167,63.5 156.5,63.5C 156.351,66.6074 156.851,69.6074 158,72.5C 158.69,73.7383 159.19,73.7383 159.5,72.5 Z"/></g>
<g><path style="opacity:1" fill="#48857c" d="M 63.5,105.5 C 66.0961,104.735 68.7628,104.401 71.5,104.5C 70.4107,106.117 68.744,106.95 66.5,107C 67.2524,107.671 67.5858,108.504 67.5,109.5C 65.9878,107.683 63.9878,106.683 61.5,106.5C 61.5,107.5 61.5,108.5 61.5,109.5C 61.1667,109.5 60.8333,109.5 60.5,109.5C 60.3379,107.473 60.5045,105.473 61,103.5C 61.4169,104.756 62.2502,105.423 63.5,105.5 Z"/></g>
<g><path style="opacity:1" fill="#3ae2ca" d="M 76.5,95.5 C 76.4598,98.4245 77.2932,101.091 79,103.5C 82.7436,102.374 86.577,102.207 90.5,103C 88.3056,105.695 86.3056,108.528 84.5,111.5C 86.3056,114.472 88.3056,117.305 90.5,120C 87.567,120.296 84.7336,119.796 82,118.5C 79.9164,120.225 77.7497,120.892 75.5,120.5C 74.6751,118.64 73.6751,116.974 72.5,115.5C 70.4842,113.751 68.8175,111.751 67.5,109.5C 67.5858,108.504 67.2524,107.671 66.5,107C 68.744,106.95 70.4107,106.117 71.5,104.5C 73.3878,102.012 74.0545,99.0122 73.5,95.5C 74.5,95.5 75.5,95.5 76.5,95.5 Z"/></g>
<g><path style="opacity:1" fill="#98bfc3" d="M 131.5,96.5 C 132.5,97.1667 133.5,97.8333 134.5,98.5C 136.78,102.073 136.78,105.74 134.5,109.5C 133.581,112.327 131.914,114.66 129.5,116.5C 129.062,116.565 128.728,116.399 128.5,116C 131.907,111.895 132.24,107.562 129.5,103C 130.418,100.914 131.085,98.7468 131.5,96.5 Z"/></g>
<g><path style="opacity:1" fill="#114e46" d="M 48.5,78.5 C 42.4326,98.0959 45.4326,116.096 57.5,132.5C 58.5836,131.335 59.4169,130.002 60,128.5C 60.6708,127.748 61.5041,127.414 62.5,127.5C 57.4732,134.828 59.4732,138.495 68.5,138.5C 67.9423,139.79 66.9423,140.623 65.5,141C 67.2395,142.517 68.9062,144.017 70.5,145.5C 67.3189,144.651 64.6523,142.985 62.5,140.5C 62.5,139.833 62.1667,139.5 61.5,139.5C 59.9991,138.248 58.3325,137.248 56.5,136.5C 55.3995,135.395 54.7329,134.062 54.5,132.5C 52.3599,128.22 50.1932,123.886 48,119.5C 44.6929,109.079 43.6929,98.4122 45,87.5C 45.7249,84.2102 46.8916,81.2102 48.5,78.5 Z"/></g>
<g><path style="opacity:1" fill="#243938" d="M 74.5,108.5 C 76.1667,108.5 77.8333,108.5 79.5,108.5C 79.9899,110.948 79.1566,112.615 77,113.5C 75.124,112.381 74.2907,110.714 74.5,108.5 Z"/></g>
<g><path style="opacity:1" fill="#207472" d="M 116.5,72.5 C 117.167,73.1667 117.833,73.8333 118.5,74.5C 118.5,75.1667 118.5,75.8333 118.5,76.5C 117.912,82.8985 120.579,87.2319 126.5,89.5C 127.68,91.913 129.68,92.913 132.5,92.5C 132.704,94.6854 133.37,96.6854 134.5,98.5C 133.5,97.8333 132.5,97.1667 131.5,96.5C 129.478,92.7919 127.144,92.7919 124.5,96.5C 129.455,97.9148 129.622,99.5814 125,101.5C 124.887,106.067 123.887,110.4 122,114.5C 120.989,115.337 119.822,115.67 118.5,115.5C 118.833,117.5 119.167,119.5 119.5,121.5C 121.216,121.371 122.883,121.038 124.5,120.5C 123.378,121.947 121.878,122.947 120,123.5C 118.48,120.618 117.147,117.618 116,114.5C 113.793,118.624 112.293,122.957 111.5,127.5C 108.482,127.335 105.482,127.502 102.5,128C 104.305,128.972 105.972,130.139 107.5,131.5C 106.019,132.48 104.685,133.647 103.5,135C 104.793,135.49 106.127,135.657 107.5,135.5C 106.4,136.558 105.066,137.392 103.5,138C 103.728,138.399 104.062,138.565 104.5,138.5C 103.903,139.139 103.07,139.472 102,139.5C 100.45,139.127 99.2832,138.46 98.5,137.5C 99.6935,136.728 100.694,135.728 101.5,134.5C 102.812,133.855 103.812,132.855 104.5,131.5C 97.6411,125.292 89.6411,121.792 80.5,121C 79.1196,122.925 77.6196,124.759 76,126.5C 75.7216,125.584 75.2216,124.918 74.5,124.5C 73.5392,121.574 72.8726,118.574 72.5,115.5C 73.6751,116.974 74.6751,118.64 75.5,120.5C 77.7497,120.892 79.9164,120.225 82,118.5C 84.7336,119.796 87.567,120.296 90.5,120C 88.3056,117.305 86.3056,114.472 84.5,111.5C 86.3056,108.528 88.3056,105.695 90.5,103C 86.577,102.207 82.7436,102.374 79,103.5C 77.2932,101.091 76.4598,98.4245 76.5,95.5C 77.2216,95.9175 77.7216,96.5842 78,97.5C 78.7096,96.0267 79.8762,95.3601 81.5,95.5C 80.7304,91.2488 82.3971,88.7488 86.5,88C 85.2888,87.1072 85.2888,86.2739 86.5,85.5C 90.182,83.5596 93.8487,81.7263 97.5,80C 96.8333,79 96.1667,78 95.5,77C 101.032,78.1239 106.698,78.6239 112.5,78.5C 112.5,78.1667 112.5,77.8333 112.5,77.5C 113.833,75.8333 115.167,74.1667 116.5,72.5 Z"/></g>
<g><path style="opacity:1" fill="#3de1cc" d="M 112.5,78.5 C 113.794,77.7101 114.961,76.7101 116,75.5C 117.182,79.0496 118.182,82.7163 119,86.5C 121.589,88.2112 124.089,90.0445 126.5,92C 124.02,92.96 121.52,93.7934 119,94.5C 117.527,98.4174 116.361,102.417 115.5,106.5C 113.579,103.404 112.246,100.07 111.5,96.5C 107.209,96.3749 103.043,97.0416 99,98.5C 98.5,98.1667 98,97.8333 97.5,97.5C 99.8333,94.1667 102.167,90.8333 104.5,87.5C 102.694,84.528 100.694,81.6947 98.5,79C 101.959,79.5884 105.459,80.4217 109,81.5C 110.908,81.2849 112.074,80.2849 112.5,78.5 Z"/></g>
<g><path style="opacity:1" fill="#1f3238" d="M 110.5,87.5 C 114.138,86.7366 115.638,88.0699 115,91.5C 110.415,93.4126 108.915,92.0793 110.5,87.5 Z"/></g>
<g><path style="opacity:1" fill="#33f2d9" d="M 62.5,70.5 C 64.2922,71.3091 66.2922,71.8091 68.5,72C 58.8348,83.1264 56.1681,95.6264 60.5,109.5C 61.7707,116.208 64.7707,122.041 69.5,127C 68.9056,127.464 68.2389,127.631 67.5,127.5C 65.8333,126.167 64.1667,126.167 62.5,127.5C 61.5041,127.414 60.6708,127.748 60,128.5C 59.4169,130.002 58.5836,131.335 57.5,132.5C 45.4326,116.096 42.4326,98.0959 48.5,78.5C 51.3824,73.7583 54.549,69.0917 58,64.5C 58.3318,67.5433 59.8318,69.5433 62.5,70.5 Z"/></g>
<g><path style="opacity:1" fill="#63a8a7" d="M 131.5,96.5 C 131.085,98.7468 130.418,100.914 129.5,103C 132.24,107.562 131.907,111.895 128.5,116C 128.728,116.399 129.062,116.565 129.5,116.5C 127.833,117.833 126.167,119.167 124.5,120.5C 122.883,121.038 121.216,121.371 119.5,121.5C 119.167,119.5 118.833,117.5 118.5,115.5C 119.822,115.67 120.989,115.337 122,114.5C 123.887,110.4 124.887,106.067 125,101.5C 129.622,99.5814 129.455,97.9148 124.5,96.5C 127.144,92.7919 129.478,92.7919 131.5,96.5 Z"/></g>
<g><path style="opacity:1" fill="#0f3446" d="M 175.5,68.5 C 178.4,74.4844 180.233,80.8178 181,87.5C 182.105,100.325 181.272,112.991 178.5,125.5C 176.715,127.845 175.049,130.178 173.5,132.5C 168.797,133.698 165.131,132.198 162.5,128C 161.062,127.781 159.729,127.281 158.5,126.5C 159.52,124.568 159.687,122.568 159,120.5C 158.088,123.239 156.588,125.572 154.5,127.5C 153.344,126.424 153.511,125.424 155,124.5C 155.667,122.833 155.667,121.167 155,119.5C 154.013,123.767 153.179,124.1 152.5,120.5C 156.553,108.14 157.553,95.4731 155.5,82.5C 155.804,81.8501 156.137,81.1835 156.5,80.5C 154.054,79.573 153.221,77.9063 154,75.5C 154.377,76.9423 155.21,77.9423 156.5,78.5C 157.174,83.0088 158.174,87.5088 159.5,92C 158.48,98.4795 158.314,104.98 159,111.5C 161.101,110.385 163.267,110.385 165.5,111.5C 169.111,110.188 172.777,109.188 176.5,108.5C 176.098,100.058 176.765,91.725 178.5,83.5C 178.167,82.1667 177.833,80.8333 177.5,79.5C 176.692,81.4233 176.192,83.4233 176,85.5C 175.501,81.5138 175.334,77.5138 175.5,73.5C 174.325,73.281 173.325,73.6143 172.5,74.5C 171.04,78.8589 168.04,80.3589 163.5,79C 165.957,77.4877 165.957,76.1544 163.5,75C 164.325,73.3117 165.325,73.1451 166.5,74.5C 167.833,73.8333 167.833,73.1667 166.5,72.5C 164.273,71.9475 161.939,71.9475 159.5,72.5C 159.183,69.4281 159.516,66.4281 160.5,63.5C 161.293,63.0688 162.127,62.7355 163,62.5C 166.128,63.2037 169.294,63.7037 172.5,64C 171.24,65.8138 171.24,67.6471 172.5,69.5C 173.417,68.8728 174.417,68.5394 175.5,68.5 Z"/></g>
<g><path style="opacity:1" fill="#abb4b4" d="M 18.5,71.5 C 16.3083,80.8654 14.9749,90.3654 14.5,100C 15.042,109.294 16.3753,118.461 18.5,127.5C 14.6966,118.69 13.03,109.357 13.5,99.5C 13.03,89.6433 14.6966,80.3099 18.5,71.5 Z"/></g>
<g><path style="opacity:1" fill="#a1d4cf" d="M 135.5,112.5 C 136.573,113.251 136.74,114.251 136,115.5C 133.038,121.279 129.205,126.279 124.5,130.5C 122.856,130.19 121.856,129.19 121.5,127.5C 126.139,122.526 130.805,117.526 135.5,112.5 Z"/></g>
<g><path style="opacity:1" fill="#afdadb" d="M 67.5,109.5 C 68.8175,111.751 70.4842,113.751 72.5,115.5C 72.8726,118.574 73.5392,121.574 74.5,124.5C 74.5,125.833 74.5,127.167 74.5,128.5C 72.2843,127.797 70.451,126.464 69,124.5C 65.4345,120.036 62.9345,115.036 61.5,109.5C 61.5,108.5 61.5,107.5 61.5,106.5C 63.9878,106.683 65.9878,107.683 67.5,109.5 Z"/></g>
<g><path style="opacity:1" fill="#356866" d="M 134.5,109.5 C 134.328,110.492 134.662,111.158 135.5,111.5C 135.5,111.833 135.5,112.167 135.5,112.5C 130.805,117.526 126.139,122.526 121.5,127.5C 121.586,126.504 121.252,125.671 120.5,125C 122.329,124.727 123.829,123.893 125,122.5C 125.692,121.563 125.525,120.897 124.5,120.5C 126.167,119.167 127.833,117.833 129.5,116.5C 131.914,114.66 133.581,112.327 134.5,109.5 Z"/></g>
<g><path style="opacity:1" fill="#103130" d="M 60.5,109.5 C 60.8333,109.5 61.1667,109.5 61.5,109.5C 62.9345,115.036 65.4345,120.036 69,124.5C 70.451,126.464 72.2843,127.797 74.5,128.5C 75.1293,130.997 76.796,132.33 79.5,132.5C 80.7489,134.136 82.4156,135.303 84.5,136C 88.3051,137.38 92.1384,138.547 96,139.5C 96.9947,138.934 97.828,138.267 98.5,137.5C 99.2832,138.46 100.45,139.127 102,139.5C 103.07,139.472 103.903,139.139 104.5,138.5C 108.737,138.031 112.737,136.864 116.5,135C 114.866,134.506 113.199,134.34 111.5,134.5C 114.57,133.742 118.903,132.742 124.5,131.5C 114.435,140.119 102.768,142.952 89.5,140C 83.0008,138.231 77.3341,135.064 72.5,130.5C 72.3459,131.909 72.1792,133.576 72,135.5C 71.5776,137.426 70.4109,138.426 68.5,138.5C 71.344,134.559 71.0107,130.893 67.5,127.5C 68.2389,127.631 68.9056,127.464 69.5,127C 64.7707,122.041 61.7707,116.208 60.5,109.5 Z"/></g>
<g><path style="opacity:1" fill="#79bbba" d="M 101.5,134.5 C 97.8559,133.685 94.1893,132.852 90.5,132C 87.3605,128.337 83.5272,127.17 79,128.5C 78.4209,129.928 78.5876,131.262 79.5,132.5C 76.796,132.33 75.1293,130.997 74.5,128.5C 74.5,127.167 74.5,125.833 74.5,124.5C 75.2216,124.918 75.7216,125.584 76,126.5C 77.6196,124.759 79.1196,122.925 80.5,121C 89.6411,121.792 97.6411,125.292 104.5,131.5C 103.812,132.855 102.812,133.855 101.5,134.5 Z"/></g>
<g><path style="opacity:1" fill="#0f211f" d="M 178.5,69.5 C 180.462,73.5477 181.962,77.8811 183,82.5C 186.166,101.502 184,119.835 176.5,137.5C 174.5,140.167 172.5,142.833 170.5,145.5C 173.084,140.269 175.584,134.935 178,129.5C 178.49,128.207 178.657,126.873 178.5,125.5C 179.6,123.723 180.434,121.723 181,119.5C 184.735,102.597 183.902,85.9303 178.5,69.5 Z"/></g>
<g><path style="opacity:1" fill="#3fdcc2" d="M 124.5,120.5 C 125.525,120.897 125.692,121.563 125,122.5C 123.829,123.893 122.329,124.727 120.5,125C 121.252,125.671 121.586,126.504 121.5,127.5C 121.856,129.19 122.856,130.19 124.5,130.5C 124.5,130.833 124.5,131.167 124.5,131.5C 118.903,132.742 114.57,133.742 111.5,134.5C 110.432,135.434 109.099,135.768 107.5,135.5C 106.127,135.657 104.793,135.49 103.5,135C 104.685,133.647 106.019,132.48 107.5,131.5C 105.972,130.139 104.305,128.972 102.5,128C 105.482,127.502 108.482,127.335 111.5,127.5C 112.293,122.957 113.793,118.624 116,114.5C 117.147,117.618 118.48,120.618 120,123.5C 121.878,122.947 123.378,121.947 124.5,120.5 Z"/></g>
<g><path style="opacity:1" fill="#3e7676" d="M 111.5,127.5 C 113.916,124.692 115.916,125.025 117.5,128.5C 114.736,131.455 112.736,131.121 111.5,127.5 Z"/></g>
<g><path style="opacity:1" fill="#13564c" d="M 150.5,119.5 C 148.772,125.293 145.772,130.293 141.5,134.5C 140.5,134.5 139.5,134.5 138.5,134.5C 138.834,131.509 137.834,129.176 135.5,127.5C 139.352,127.489 141.185,129.489 141,133.5C 144.437,128.941 147.604,124.274 150.5,119.5 Z"/></g>
<g><path style="opacity:1" fill="#5ec2bf" d="M 152.5,79.5 C 153.272,80.6935 154.272,81.6935 155.5,82.5C 157.553,95.4731 156.553,108.14 152.5,120.5C 150.195,126.437 146.861,131.77 142.5,136.5C 140.302,136.591 139.969,135.925 141.5,134.5C 145.772,130.293 148.772,125.293 150.5,119.5C 151.958,117.068 153.125,114.401 154,111.5C 156.266,100.693 155.766,90.0262 152.5,79.5 Z"/></g>
<g><path style="opacity:1" fill="#124757" d="M 173.5,132.5 C 172.317,138.701 169.65,144.201 165.5,149C 164.551,149.617 163.718,149.451 163,148.5C 162.805,149.819 162.972,151.153 163.5,152.5C 162.167,153.5 160.833,154.5 159.5,155.5C 159.274,152.751 159.607,150.084 160.5,147.5C 158.955,146.548 157.288,146.215 155.5,146.5C 155.5,145.5 155.5,144.5 155.5,143.5C 153.833,143.5 152.167,143.5 150.5,143.5C 149.741,139.079 147.075,136.745 142.5,136.5C 146.861,131.77 150.195,126.437 152.5,120.5C 153.179,124.1 154.013,123.767 155,119.5C 155.667,121.167 155.667,122.833 155,124.5C 153.511,125.424 153.344,126.424 154.5,127.5C 156.588,125.572 158.088,123.239 159,120.5C 159.687,122.568 159.52,124.568 158.5,126.5C 159.729,127.281 161.062,127.781 162.5,128C 165.131,132.198 168.797,133.698 173.5,132.5 Z"/></g>
<g><path style="opacity:1" fill="#5c9999" d="M 21.5,71.5 C 17.7669,84.6289 16.7669,97.9622 18.5,111.5C 19.8702,121.947 23.2035,131.614 28.5,140.5C 30.3974,143.685 32.564,146.685 35,149.5C 36.6665,148.66 36.8331,149.16 35.5,151C 36.9733,151.71 37.6399,152.876 37.5,154.5C 34.4728,152.14 31.8062,149.473 29.5,146.5C 18.254,127.71 14.0873,107.377 17,85.5C 17.905,80.513 19.405,75.8463 21.5,71.5 Z"/></g>
<g><path style="opacity:1" fill="#9eded7" d="M 101.5,134.5 C 100.694,135.728 99.6935,136.728 98.5,137.5C 97.828,138.267 96.9947,138.934 96,139.5C 92.1384,138.547 88.3051,137.38 84.5,136C 82.4156,135.303 80.7489,134.136 79.5,132.5C 78.5876,131.262 78.4209,129.928 79,128.5C 83.5272,127.17 87.3605,128.337 90.5,132C 94.1893,132.852 97.8559,133.685 101.5,134.5 Z"/></g>
<g><path style="opacity:1" fill="#eeeeef" d="M 135.5,127.5 C 137.834,129.176 138.834,131.509 138.5,134.5C 138.167,136.833 136.833,138.167 134.5,138.5C 131.547,138.85 129.213,137.85 127.5,135.5C 127.167,129.833 129.833,127.167 135.5,127.5 Z"/></g>
<g><path style="opacity:1" fill="#43292b" d="M 132.5,131.5 C 133.5,131.5 134.5,131.5 135.5,131.5C 135.426,135.541 134.093,136.208 131.5,133.5C 131.863,132.817 132.196,132.15 132.5,131.5 Z"/></g>
<g><path style="opacity:1" fill="#dde0df" d="M 67.5,127.5 C 71.0107,130.893 71.344,134.559 68.5,138.5C 59.4732,138.495 57.4732,134.828 62.5,127.5C 64.1667,126.167 65.8333,126.167 67.5,127.5 Z"/></g>
<g><path style="opacity:1" fill="#0c1b0c" d="M 63.5,131.5 C 64.5,131.5 65.5,131.5 66.5,131.5C 66.5,132.5 66.5,133.5 66.5,134.5C 65.5,134.5 64.5,134.5 63.5,134.5C 63.5,133.5 63.5,132.5 63.5,131.5 Z"/></g>
<g><path style="opacity:1" fill="#1a4453" d="M 42.5,105.5 C 43.6896,111.565 45.5229,117.565 48,123.5C 49.6428,126.961 51.8095,129.961 54.5,132.5C 54.7329,134.062 55.3995,135.395 56.5,136.5C 54.139,136.674 51.8056,137.007 49.5,137.5C 49.1667,140.167 48.8333,142.833 48.5,145.5C 47.5207,144.235 46.5207,142.901 45.5,141.5C 44.1667,144.167 42.8333,144.167 41.5,141.5C 40.1387,143.028 38.972,144.695 38,146.5C 37,145.167 36,145.167 35,146.5C 33.6322,143.814 32.2989,141.147 31,138.5C 30.5831,139.756 29.7498,140.423 28.5,140.5C 23.2035,131.614 19.8702,121.947 18.5,111.5C 18.8333,111.5 19.1667,111.5 19.5,111.5C 20.5,111.5 21.5,111.5 22.5,111.5C 23.9525,114.986 24.6192,118.653 24.5,122.5C 26.4672,122.739 28.3005,122.406 30,121.5C 31.0173,123.376 31.8506,125.376 32.5,127.5C 33.1769,123.401 34.1769,119.401 35.5,115.5C 38.3682,120.507 40.3682,125.841 41.5,131.5C 42.1867,129.726 43.0201,128.059 44,126.5C 44.8928,127.711 45.7261,127.711 46.5,126.5C 45.1936,125.088 44.3603,123.421 44,121.5C 43.1697,116.192 42.6697,110.859 42.5,105.5 Z"/></g>
<g><path style="opacity:1" fill="#070d0d" d="M 56.5,136.5 C 58.3325,137.248 59.9991,138.248 61.5,139.5C 62.8362,147.665 59.5029,150.831 51.5,149C 50.2899,147.961 49.2899,146.794 48.5,145.5C 48.8333,142.833 49.1667,140.167 49.5,137.5C 51.8056,137.007 54.139,136.674 56.5,136.5 Z"/></g>
<g><path style="opacity:1" fill="#125145" d="M 127.5,135.5 C 129.213,137.85 131.547,138.85 134.5,138.5C 134.5,139.5 134.5,140.5 134.5,141.5C 130.626,146.275 125.626,149.275 119.5,150.5C 124.274,147.604 128.941,144.437 133.5,141C 130.359,140.285 128.359,138.452 127.5,135.5 Z"/></g>
<g><path style="opacity:1" fill="#0a0f11" d="M 138.5,134.5 C 139.5,134.5 140.5,134.5 141.5,134.5C 139.969,135.925 140.302,136.591 142.5,136.5C 147.075,136.745 149.741,139.079 150.5,143.5C 148.779,149.027 145.112,150.86 139.5,149C 137.393,147.736 136.393,145.903 136.5,143.5C 136.869,141.007 136.203,140.34 134.5,141.5C 134.5,140.5 134.5,139.5 134.5,138.5C 136.833,138.167 138.167,136.833 138.5,134.5 Z"/></g>
<g><path style="opacity:1" fill="#a0b8b2" d="M 18.5,127.5 C 20.9541,132.408 23.4541,137.408 26,142.5C 26.9487,144.093 28.1154,145.426 29.5,146.5C 30.1667,148.167 30.8333,149.833 31.5,151.5C 25.1029,144.712 20.7695,136.712 18.5,127.5 Z"/></g>
<g><path style="opacity:1" fill="#cbc2c8" d="M 141.5,141.5 C 142.833,141.5 144.167,141.5 145.5,141.5C 145.5,142.5 145.5,143.5 145.5,144.5C 144.167,144.5 142.833,144.5 141.5,144.5C 141.5,143.5 141.5,142.5 141.5,141.5 Z"/></g>
<g><path style="opacity:1" fill="#35f0d9" d="M 124.5,131.5 C 125.978,132.448 126.978,133.781 127.5,135.5C 128.359,138.452 130.359,140.285 133.5,141C 128.941,144.437 124.274,147.604 119.5,150.5C 114.167,151.5 108.833,152.5 103.5,153.5C 100.833,152.167 98.1667,152.167 95.5,153.5C 88.6131,152.647 81.9464,150.981 75.5,148.5C 74.1007,147.11 72.4341,146.11 70.5,145.5C 68.9062,144.017 67.2395,142.517 65.5,141C 66.9423,140.623 67.9423,139.79 68.5,138.5C 70.4109,138.426 71.5776,137.426 72,135.5C 72.1792,133.576 72.3459,131.909 72.5,130.5C 77.3341,135.064 83.0008,138.231 89.5,140C 102.768,142.952 114.435,140.119 124.5,131.5 Z"/></g>
<g><path style="opacity:1" fill="#aee3dc" d="M 111.5,134.5 C 113.199,134.34 114.866,134.506 116.5,135C 112.737,136.864 108.737,138.031 104.5,138.5C 104.062,138.565 103.728,138.399 103.5,138C 105.066,137.392 106.4,136.558 107.5,135.5C 109.099,135.768 110.432,135.434 111.5,134.5 Z"/></g>
<g><path style="opacity:1" fill="#5c9491" d="M 178.5,125.5 C 178.657,126.873 178.49,128.207 178,129.5C 175.584,134.935 173.084,140.269 170.5,145.5C 168.395,148.027 166.061,150.36 163.5,152.5C 162.972,151.153 162.805,149.819 163,148.5C 163.718,149.451 164.551,149.617 165.5,149C 169.65,144.201 172.317,138.701 173.5,132.5C 175.049,130.178 176.715,127.845 178.5,125.5 Z"/></g>
<g><path style="opacity:1" fill="#a6bcbb" d="M 176.5,137.5 C 175.648,140.223 174.481,142.89 173,145.5C 170.958,148.94 168.458,151.94 165.5,154.5C 167.42,151.661 169.087,148.661 170.5,145.5C 172.5,142.833 174.5,140.167 176.5,137.5 Z"/></g>
<g><path style="opacity:1" fill="#62d2cb" d="M 136.5,143.5 C 133.477,145.533 130.477,147.533 127.5,149.5C 122.7,151.17 118.033,153.003 113.5,155C 111.866,155.494 110.199,155.66 108.5,155.5C 111.528,153.725 115.195,152.058 119.5,150.5C 125.626,149.275 130.626,146.275 134.5,141.5C 136.203,140.34 136.869,141.007 136.5,143.5 Z"/></g>
<g><path style="opacity:1" fill="#0e2223" d="M 29.5,146.5 C 31.8062,149.473 34.4728,152.14 37.5,154.5C 37.369,155.239 37.5357,155.906 38,156.5C 43.8883,162.902 50.7216,167.902 58.5,171.5C 59.1667,172.5 59.8333,173.5 60.5,174.5C 56.0074,172.421 51.674,170.088 47.5,167.5C 43.5259,163.862 39.5259,160.195 35.5,156.5C 34.9202,154.251 33.5869,152.585 31.5,151.5C 30.8333,149.833 30.1667,148.167 29.5,146.5 Z"/></g>
<g><path style="opacity:1" fill="#a2c1c3" d="M 31.5,151.5 C 33.5869,152.585 34.9202,154.251 35.5,156.5C 33.4131,155.415 32.0798,153.749 31.5,151.5 Z"/></g>
<g><path style="opacity:1" fill="#054a44" d="M 119.5,150.5 C 115.195,152.058 111.528,153.725 108.5,155.5C 108.5,156.167 108.167,156.5 107.5,156.5C 105.847,156.34 104.514,155.674 103.5,154.5C 103.5,154.167 103.5,153.833 103.5,153.5C 108.833,152.5 114.167,151.5 119.5,150.5 Z"/></g>
<g><path style="opacity:1" fill="#346d7c" d="M 136.5,143.5 C 136.393,145.903 137.393,147.736 139.5,149C 145.112,150.86 148.779,149.027 150.5,143.5C 152.167,143.5 153.833,143.5 155.5,143.5C 155.5,144.5 155.5,145.5 155.5,146.5C 157.288,146.215 158.955,146.548 160.5,147.5C 159.607,150.084 159.274,152.751 159.5,155.5C 159.389,156.117 159.056,156.617 158.5,157C 156.687,156.954 155.021,157.12 153.5,157.5C 152.155,156.653 151.155,155.487 150.5,154C 145.505,154.082 140.505,154.082 135.5,154C 133.74,151.517 131.573,151.017 129,152.5C 128.487,151.473 127.987,150.473 127.5,149.5C 130.477,147.533 133.477,145.533 136.5,143.5 Z"/></g>
<g><path style="opacity:1" fill="#59b9b4" d="M 62.5,140.5 C 64.6523,142.985 67.3189,144.651 70.5,145.5C 72.4341,146.11 74.1007,147.11 75.5,148.5C 79.5911,151.535 84.2578,153.369 89.5,154C 90.7383,154.69 90.7383,155.19 89.5,155.5C 80.686,153.928 72.686,150.428 65.5,145C 63.8588,143.871 62.8588,142.371 62.5,140.5 Z"/></g>
<g><path style="opacity:1" fill="#42707d" d="M 48.5,145.5 C 49.2899,146.794 50.2899,147.961 51.5,149C 59.5029,150.831 62.8362,147.665 61.5,139.5C 62.1667,139.5 62.5,139.833 62.5,140.5C 62.8588,142.371 63.8588,143.871 65.5,145C 72.686,150.428 80.686,153.928 89.5,155.5C 88.4549,156.878 87.1216,157.878 85.5,158.5C 81.8452,156.142 78.1785,156.309 74.5,159C 69.4456,159.781 64.4456,159.614 59.5,158.5C 58.5713,159.689 58.238,161.022 58.5,162.5C 56.1432,162.663 53.8098,162.497 51.5,162C 49.0427,160.438 46.376,159.438 43.5,159C 41.9781,156.695 39.9781,155.195 37.5,154.5C 37.6399,152.876 36.9733,151.71 35.5,151C 36.8331,149.16 36.6665,148.66 35,149.5C 32.564,146.685 30.3974,143.685 28.5,140.5C 29.7498,140.423 30.5831,139.756 31,138.5C 32.2989,141.147 33.6322,143.814 35,146.5C 36,145.167 37,145.167 38,146.5C 38.972,144.695 40.1387,143.028 41.5,141.5C 42.8333,144.167 44.1667,144.167 45.5,141.5C 46.5207,142.901 47.5207,144.235 48.5,145.5 Z"/></g>
<g><path style="opacity:1" fill="#c9c2b9" d="M 53.5,141.5 C 56.1662,141.066 57.3329,142.066 57,144.5C 54.3422,145.694 53.1756,144.694 53.5,141.5 Z"/></g>
<g><path style="opacity:1" fill="#98a8a1" d="M 165.5,154.5 C 163.167,158.833 159.833,162.167 155.5,164.5C 158.5,160.833 161.833,157.5 165.5,154.5 Z"/></g>
<g><path style="opacity:1" fill="#99abb1" d="M 35.5,156.5 C 39.5259,160.195 43.5259,163.862 47.5,167.5C 42.2227,165.223 38.2227,161.556 35.5,156.5 Z"/></g>
<g><path style="opacity:1" fill="#142e35" d="M 75.5,148.5 C 81.9464,150.981 88.6131,152.647 95.5,153.5C 93.4259,156.82 90.5926,159.487 87,161.5C 86.7216,160.584 86.2216,159.918 85.5,159.5C 85.5,159.167 85.5,158.833 85.5,158.5C 87.1216,157.878 88.4549,156.878 89.5,155.5C 90.7383,155.19 90.7383,154.69 89.5,154C 84.2578,153.369 79.5911,151.535 75.5,148.5 Z"/></g>
<g><path style="opacity:1" fill="#67949b" d="M 37.5,154.5 C 39.9781,155.195 41.9781,156.695 43.5,159C 46.376,159.438 49.0427,160.438 51.5,162C 53.8098,162.497 56.1432,162.663 58.5,162.5C 58.238,161.022 58.5713,159.689 59.5,158.5C 64.4456,159.614 69.4456,159.781 74.5,159C 78.1785,156.309 81.8452,156.142 85.5,158.5C 85.5,158.833 85.5,159.167 85.5,159.5C 83.5,159.167 81.5,158.833 79.5,158.5C 79.2053,160.735 79.5386,162.735 80.5,164.5C 76.0314,165.744 72.0314,168.077 68.5,171.5C 67.7836,170.689 66.9503,170.022 66,169.5C 63.6813,170.871 61.1813,171.538 58.5,171.5C 50.7216,167.902 43.8883,162.902 38,156.5C 37.5357,155.906 37.369,155.239 37.5,154.5 Z"/></g>
<g><path style="opacity:1" fill="#8d91a2" d="M 103.5,153.5 C 103.5,153.833 103.5,154.167 103.5,154.5C 100.692,154.693 98.0248,155.36 95.5,156.5C 95.5,157.5 95.5,158.5 95.5,159.5C 93.3805,160.451 91.7138,161.951 90.5,164C 94.5,165 94.5,166 90.5,167C 95.0981,168.192 95.4314,169.859 91.5,172C 93.1796,172.034 94.6796,172.201 96,172.5C 96.3076,171.692 96.8076,171.025 97.5,170.5C 99.0009,171.752 100.668,172.752 102.5,173.5C 103.429,174.689 103.762,176.022 103.5,177.5C 101.628,178.511 99.6284,179.345 97.5,180C 96.1667,181 96.1667,182 97.5,183C 93.9292,183.448 90.5959,182.948 87.5,181.5C 87.4142,180.504 87.7476,179.671 88.5,179C 87.5842,178.722 86.9175,178.222 86.5,177.5C 87.8333,177.5 89.1667,177.5 90.5,177.5C 90.6633,175.143 90.4966,172.81 90,170.5C 88.4452,168.854 86.7785,168.521 85,169.5C 84.5045,171.473 84.3379,173.473 84.5,175.5C 83.4153,171.317 82.4153,166.984 81.5,162.5C 80.7025,162.957 80.3691,163.624 80.5,164.5C 79.5386,162.735 79.2053,160.735 79.5,158.5C 81.5,158.833 83.5,159.167 85.5,159.5C 86.2216,159.918 86.7216,160.584 87,161.5C 90.5926,159.487 93.4259,156.82 95.5,153.5C 98.1667,152.167 100.833,152.167 103.5,153.5 Z"/></g>
<g><path style="opacity:1" fill="#5e94a3" d="M 127.5,149.5 C 127.987,150.473 128.487,151.473 129,152.5C 131.573,151.017 133.74,151.517 135.5,154C 140.505,154.082 145.505,154.082 150.5,154C 151.155,155.487 152.155,156.653 153.5,157.5C 155.021,157.12 156.687,156.954 158.5,157C 159.056,156.617 159.389,156.117 159.5,155.5C 160.833,154.5 162.167,153.5 163.5,152.5C 159.521,158.479 154.521,163.479 148.5,167.5C 140.218,166.211 131.552,164.211 122.5,161.5C 120.224,162.213 117.891,162.713 115.5,163C 114.748,163.671 114.414,164.504 114.5,165.5C 113.833,165.5 113.167,165.5 112.5,165.5C 113.778,163.456 113.612,161.456 112,159.5C 110.348,158.601 108.848,157.601 107.5,156.5C 108.167,156.5 108.5,156.167 108.5,155.5C 110.199,155.66 111.866,155.494 113.5,155C 118.033,153.003 122.7,151.17 127.5,149.5 Z"/></g>
<g><path style="opacity:1" fill="#e8ebf2" d="M 103.5,154.5 C 104.514,155.674 105.847,156.34 107.5,156.5C 108.848,157.601 110.348,158.601 112,159.5C 113.612,161.456 113.778,163.456 112.5,165.5C 112.5,166.167 112.5,166.833 112.5,167.5C 111.691,169.292 111.191,171.292 111,173.5C 109.667,174.167 108.333,174.833 107,175.5C 106.173,174.338 105.34,173.171 104.5,172C 104.989,170.862 105.322,169.695 105.5,168.5C 106.695,168.134 107.361,167.301 107.5,166C 105.797,160.698 102.464,159.198 97.5,161.5C 96.596,162.209 96.2627,163.209 96.5,164.5C 95.7597,162.745 95.4263,161.078 95.5,159.5C 95.5,158.5 95.5,157.5 95.5,156.5C 98.0248,155.36 100.692,154.693 103.5,154.5 Z"/></g>
<g><path style="opacity:1" fill="#161b26" d="M 97.5,161.5 C 99.3638,162.978 100.697,164.978 101.5,167.5C 102.417,168.127 103.417,168.461 104.5,168.5C 103.948,170.703 102.615,171.536 100.5,171C 97.3072,169.974 95.9738,167.808 96.5,164.5C 96.2627,163.209 96.596,162.209 97.5,161.5 Z"/></g>
<g><path style="opacity:1" fill="#414551" d="M 97.5,161.5 C 102.464,159.198 105.797,160.698 107.5,166C 107.361,167.301 106.695,168.134 105.5,168.5C 105.167,168.5 104.833,168.5 104.5,168.5C 103.417,168.461 102.417,168.127 101.5,167.5C 100.697,164.978 99.3638,162.978 97.5,161.5 Z"/></g>
<g><path style="opacity:1" fill="#122222" d="M 170.5,145.5 C 169.087,148.661 167.42,151.661 165.5,154.5C 161.833,157.5 158.5,160.833 155.5,164.5C 148.828,168.841 142.162,173.174 135.5,177.5C 115.56,185.225 95.2271,186.392 74.5,181C 69.4334,179.488 64.7667,177.321 60.5,174.5C 66.8511,176.507 73.1844,178.674 79.5,181C 82.146,181.497 84.8127,181.664 87.5,181.5C 90.5959,182.948 93.9292,183.448 97.5,183C 96.1667,182 96.1667,181 97.5,180C 99.6284,179.345 101.628,178.511 103.5,177.5C 105.759,178.344 106.759,180.011 106.5,182.5C 108.415,182.784 110.081,182.451 111.5,181.5C 117.212,181.224 122.545,179.89 127.5,177.5C 135.162,175.502 142.162,172.168 148.5,167.5C 154.521,163.479 159.521,158.479 163.5,152.5C 166.061,150.36 168.395,148.027 170.5,145.5 Z"/></g>
<g><path style="opacity:1" fill="#1d2731" d="M 112.5,165.5 C 113.167,165.5 113.833,165.5 114.5,165.5C 114.552,167.903 114.219,170.236 113.5,172.5C 113.5,172.833 113.5,173.167 113.5,173.5C 112.539,171.735 112.205,169.735 112.5,167.5C 112.5,166.833 112.5,166.167 112.5,165.5 Z"/></g>
<g><path style="opacity:1" fill="#94c1cc" d="M 148.5,167.5 C 142.162,172.168 135.162,175.502 127.5,177.5C 128.26,176.107 128.926,174.607 129.5,173C 128.05,170.338 126.217,170.505 124,173.5C 123.517,172.552 123.351,171.552 123.5,170.5C 121.508,170.328 119.842,170.995 118.5,172.5C 117.459,170.009 116.626,170.009 116,172.5C 115.23,171.402 114.397,171.402 113.5,172.5C 114.219,170.236 114.552,167.903 114.5,165.5C 114.414,164.504 114.748,163.671 115.5,163C 117.891,162.713 120.224,162.213 122.5,161.5C 131.552,164.211 140.218,166.211 148.5,167.5 Z"/></g>
<g><path style="opacity:1" fill="#9eb5b7" d="M 155.5,164.5 C 149.889,170.442 143.222,174.775 135.5,177.5C 142.162,173.174 148.828,168.841 155.5,164.5 Z"/></g>
<g><path style="opacity:1" fill="#96b9c2" d="M 84.5,175.5 C 84.8333,176.5 85.5,177.167 86.5,177.5C 86.9175,178.222 87.5842,178.722 88.5,179C 87.7476,179.671 87.4142,180.504 87.5,181.5C 84.8127,181.664 82.146,181.497 79.5,181C 73.1844,178.674 66.8511,176.507 60.5,174.5C 59.8333,173.5 59.1667,172.5 58.5,171.5C 61.1813,171.538 63.6813,170.871 66,169.5C 66.9503,170.022 67.7836,170.689 68.5,171.5C 72.0314,168.077 76.0314,165.744 80.5,164.5C 80.3691,163.624 80.7025,162.957 81.5,162.5C 82.4153,166.984 83.4153,171.317 84.5,175.5 Z"/></g>
<g><path style="opacity:1" fill="#2b2c3d" d="M 86.5,177.5 C 85.5,177.167 84.8333,176.5 84.5,175.5C 84.3379,173.473 84.5045,171.473 85,169.5C 86.7785,168.521 88.4452,168.854 90,170.5C 90.4966,172.81 90.6633,175.143 90.5,177.5C 89.1667,177.5 87.8333,177.5 86.5,177.5 Z"/></g>
<g><path style="opacity:1" fill="#a9b5c2" d="M 95.5,159.5 C 95.4263,161.078 95.7597,162.745 96.5,164.5C 95.9738,167.808 97.3072,169.974 100.5,171C 102.615,171.536 103.948,170.703 104.5,168.5C 104.833,168.5 105.167,168.5 105.5,168.5C 105.322,169.695 104.989,170.862 104.5,172C 105.34,173.171 106.173,174.338 107,175.5C 108.333,174.833 109.667,174.167 111,173.5C 111.191,171.292 111.691,169.292 112.5,167.5C 112.205,169.735 112.539,171.735 113.5,173.5C 112.332,175.813 110.998,178.146 109.5,180.5C 109.957,181.298 110.624,181.631 111.5,181.5C 110.081,182.451 108.415,182.784 106.5,182.5C 106.759,180.011 105.759,178.344 103.5,177.5C 103.762,176.022 103.429,174.689 102.5,173.5C 100.668,172.752 99.0009,171.752 97.5,170.5C 96.8076,171.025 96.3076,171.692 96,172.5C 94.6796,172.201 93.1796,172.034 91.5,172C 95.4314,169.859 95.0981,168.192 90.5,167C 94.5,166 94.5,165 90.5,164C 91.7138,161.951 93.3805,160.451 95.5,159.5 Z"/></g>
<g><path style="opacity:1" fill="#bbdde0" d="M 127.5,177.5 C 122.545,179.89 117.212,181.224 111.5,181.5C 110.624,181.631 109.957,181.298 109.5,180.5C 110.998,178.146 112.332,175.813 113.5,173.5C 113.5,173.167 113.5,172.833 113.5,172.5C 114.397,171.402 115.23,171.402 116,172.5C 116.626,170.009 117.459,170.009 118.5,172.5C 119.842,170.995 121.508,170.328 123.5,170.5C 123.351,171.552 123.517,172.552 124,173.5C 126.217,170.505 128.05,170.338 129.5,173C 128.926,174.607 128.26,176.107 127.5,177.5 Z"/></g>
<g><path style="opacity:1" fill="#a3b1b1" d="M 47.5,167.5 C 51.674,170.088 56.0074,172.421 60.5,174.5C 64.7667,177.321 69.4334,179.488 74.5,181C 95.2271,186.392 115.56,185.225 135.5,177.5C 106.147,190.568 77.8133,188.401 50.5,171C 49.2899,169.961 48.2899,168.794 47.5,167.5 Z"/></g>
</svg>
