<?xml version="1.0" encoding="UTF-8"?>
<!DOCTYPE svg PUBLIC "-//W3C//DTD SVG 1.1//EN" "http://www.w3.org/Graphics/SVG/1.1/DTD/svg11.dtd">
<svg xmlns="http://www.w3.org/2000/svg" version="1.1" width="200px" height="200px" style="shape-rendering:geometricPrecision; text-rendering:geometricPrecision; image-rendering:optimizeQuality; fill-rule:evenodd; clip-rule:evenodd" xmlns:xlink="http://www.w3.org/1999/xlink">
<g><path style="opacity:1" fill="#010101" d="M -0.5,-0.5 C 66.1667,-0.5 132.833,-0.5 199.5,-0.5C 199.5,66.1667 199.5,132.833 199.5,199.5C 132.833,199.5 66.1667,199.5 -0.5,199.5C -0.5,132.833 -0.5,66.1667 -0.5,-0.5 Z"/></g>
<g><path style="opacity:1" fill="#c8c8c8" d="M 191.5,73.5 C 191.5,74.1667 191.167,74.5 190.5,74.5C 179.257,38.4245 155.257,15.9245 118.5,7C 79.3598,0.763864 47.3598,12.9305 22.5,43.5C 38.393,21.2037 60.0597,8.03706 87.5,4C 135.178,1.245 169.011,21.4117 189,64.5C 190.145,67.4318 190.978,70.4318 191.5,73.5 Z"/></g>
<g><path style="opacity:1" fill="#afadad" d="M 191.5,73.5 C 195.794,87.4772 196.628,101.811 194,116.5C 193.594,119.742 192.761,122.742 191.5,125.5C 191.5,124.833 191.167,124.5 190.5,124.5C 194.5,107.833 194.5,91.1667 190.5,74.5C 191.167,74.5 191.5,74.1667 191.5,73.5 Z"/></g>
<g><path style="opacity:1" fill="#c7c6c6" d="M 22.5,43.5 C 1.19772,78.0999 0.0310577,113.433 19,149.5C 24.9194,158.255 31.7527,166.255 39.5,173.5C 15.5681,154.289 3.56813,129.122 3.5,98C 3.79949,77.5961 10.1328,59.4295 22.5,43.5 Z"/></g>
<g><path style="opacity:1" fill="#0d1211" d="M 190.5,74.5 C 194.5,91.1667 194.5,107.833 190.5,124.5C 175.846,168.818 145.179,191.818 98.5,193.5C 86.3522,193.971 74.6855,191.804 63.5,187C 54.9596,183.236 46.9596,178.736 39.5,173.5C 31.7527,166.255 24.9194,158.255 19,149.5C 0.0310577,113.433 1.19772,78.0999 22.5,43.5C 47.3598,12.9305 79.3598,0.763864 118.5,7C 155.257,15.9245 179.257,38.4245 190.5,74.5 Z"/></g>
<g><path style="opacity:1" fill="#24d1c6" d="M 159.5,29.5 C 178.076,44.6309 188.909,64.2976 192,88.5C 194.301,136.828 173.134,169.995 128.5,188C 90.2989,198.743 57.4655,189.91 30,161.5C 3.73914,128.407 -0.260864,92.74 18,54.5C 43.3064,14.72 79.1397,-0.113319 125.5,10C 138.595,13.7055 149.928,20.2055 159.5,29.5 Z"/></g>
<g><path style="opacity:1" fill="#247d9f" d="M 126.5,171.5 C 126.833,171.5 127.167,171.5 127.5,171.5C 127.328,172.492 127.662,173.158 128.5,173.5C 128.572,177.536 130.239,178.37 133.5,176C 134.071,174.795 134.738,173.628 135.5,172.5C 136.803,173.718 137.803,173.385 138.5,171.5C 139.386,172.325 139.719,173.325 139.5,174.5C 140.552,174.351 141.552,174.517 142.5,175C 140.447,176.678 140.113,178.511 141.5,180.5C 136.229,183.63 130.563,185.964 124.5,187.5C 123.458,186.209 122.292,186.209 121,187.5C 119.758,186.128 118.258,185.128 116.5,184.5C 113.696,185.818 111.029,187.318 108.5,189C 106.098,189.814 103.765,189.647 101.5,188.5C 102.167,187.833 102.833,187.167 103.5,186.5C 102.674,185.549 102.508,184.549 103,183.5C 105.658,184.694 106.824,183.694 106.5,180.5C 103.73,179.656 99.063,178.989 92.5,178.5C 94.924,178.808 97.2573,178.474 99.5,177.5C 96.8333,176.5 96.8333,175.5 99.5,174.5C 101.488,175.289 101.821,176.455 100.5,178C 102,178.167 103.5,178.333 105,178.5C 106.986,178.431 108.486,177.765 109.5,176.5C 110.167,176.5 110.833,176.5 111.5,176.5C 111.369,177.239 111.536,177.906 112,178.5C 116.541,177.405 121.041,176.072 125.5,174.5C 126.386,173.675 126.719,172.675 126.5,171.5 Z"/></g>
<g><path style="opacity:1" fill="#0a4c60" d="M 70.5,164.5 C 69.1591,167.852 70.1591,170.519 73.5,172.5C 77.0727,176.002 81.4061,177.336 86.5,176.5C 86.5,176.833 86.5,177.167 86.5,177.5C 87.0768,180.55 85.9101,182.55 83,183.5C 80.5493,180.013 77.716,179.68 74.5,182.5C 73.1667,183.5 73.1667,184.5 74.5,185.5C 76.5065,185.132 78.5065,185.632 80.5,187C 79.2068,187.49 77.8734,187.657 76.5,187.5C 70.5575,186.575 64.8909,184.742 59.5,182C 55.9311,180.058 52.5978,177.892 49.5,175.5C 46.8724,173.214 47.3724,171.547 51,170.5C 52.5808,172.847 53.9141,172.847 55,170.5C 58.7202,175.136 62.5535,175.136 66.5,170.5C 66.0131,167.195 66.6798,163.862 68.5,160.5C 69.3624,161.766 70.0291,163.099 70.5,164.5 Z"/></g>
<g><path style="opacity:1" fill="#095875" d="M 148.5,176.5 C 146.337,178.083 144.004,179.416 141.5,180.5C 140.113,178.511 140.447,176.678 142.5,175C 141.552,174.517 140.552,174.351 139.5,174.5C 139.719,173.325 139.386,172.325 138.5,171.5C 137.803,173.385 136.803,173.718 135.5,172.5C 134.738,173.628 134.071,174.795 133.5,176C 130.239,178.37 128.572,177.536 128.5,173.5C 130.473,172.513 132.473,171.513 134.5,170.5C 134.788,168.715 134.788,167.048 134.5,165.5C 138.978,168.564 142.312,167.564 144.5,162.5C 146.198,160.133 148.531,158.466 151.5,157.5C 152.428,159.335 153.594,159.668 155,158.5C 156.617,159.536 156.784,160.703 155.5,162C 156.833,163.667 158.167,165.333 159.5,167C 158.167,167.333 156.833,167.667 155.5,168C 156.888,168.889 156.722,169.389 155,169.5C 152.403,168.571 150.403,166.904 149,164.5C 148.234,166.933 146.734,168.766 144.5,170C 146.772,170.941 148.772,172.274 150.5,174C 149.328,174.419 148.328,175.085 147.5,176C 147.728,176.399 148.062,176.565 148.5,176.5 Z"/></g>
<g><path style="opacity:1" fill="#265c77" d="M 108.5,166.5 C 109.156,167.622 109.489,168.955 109.5,170.5C 109.415,172.333 108.748,173.666 107.5,174.5C 105.748,174.582 104.748,173.749 104.5,172C 106.438,170.569 107.771,168.735 108.5,166.5 Z"/></g>
<g><path style="opacity:1" fill="#212324" d="M 96.5,166.5 C 94.396,166.201 92.396,166.534 90.5,167.5C 92.2702,170.193 92.9368,173.193 92.5,176.5C 91.209,176.263 90.209,176.596 89.5,177.5C 88.5,177.5 87.5,177.5 86.5,177.5C 86.5,177.167 86.5,176.833 86.5,176.5C 90.095,173.576 90.4283,170.243 87.5,166.5C 87.7911,165.351 88.6244,164.684 90,164.5C 92.3995,164.802 94.5662,165.468 96.5,166.5 Z"/></g>
<g><path style="opacity:1" fill="#eef0f0" d="M 96.5,166.5 C 97.5,166.5 98.5,166.5 99.5,166.5C 99.5198,168.143 98.8532,169.476 97.5,170.5C 98.3914,171.59 99.3914,171.59 100.5,170.5C 101.429,169.311 101.762,167.978 101.5,166.5C 102.833,166.5 104.167,166.5 105.5,166.5C 106.167,166.5 106.833,166.5 107.5,166.5C 107.833,166.5 108.167,166.5 108.5,166.5C 107.771,168.735 106.438,170.569 104.5,172C 104.748,173.749 105.748,174.582 107.5,174.5C 107.833,175.5 108.5,176.167 109.5,176.5C 108.486,177.765 106.986,178.431 105,178.5C 103.5,178.333 102,178.167 100.5,178C 101.821,176.455 101.488,175.289 99.5,174.5C 96.8333,175.5 96.8333,176.5 99.5,177.5C 97.2573,178.474 94.924,178.808 92.5,178.5C 91.209,178.737 90.209,178.404 89.5,177.5C 90.209,176.596 91.209,176.263 92.5,176.5C 92.9368,173.193 92.2702,170.193 90.5,167.5C 92.396,166.534 94.396,166.201 96.5,166.5 Z"/></g>
<g><path style="opacity:1" fill="#060606" d="M 73.5,161.5 C 75.1992,161.34 76.8659,161.506 78.5,162C 77.5842,162.278 76.9175,162.778 76.5,163.5C 74.9826,163.511 73.8159,164.177 73,165.5C 72.4436,167.885 72.6103,170.218 73.5,172.5C 70.1591,170.519 69.1591,167.852 70.5,164.5C 72.5,164.5 73.5,163.5 73.5,161.5 Z"/></g>
<g><path style="opacity:1" fill="#e6e9e9" d="M 142.5,151.5 C 141.629,155.432 142.295,159.099 144.5,162.5C 142.312,167.564 138.978,168.564 134.5,165.5C 134.788,167.048 134.788,168.715 134.5,170.5C 132.473,171.513 130.473,172.513 128.5,173.5C 127.662,173.158 127.328,172.492 127.5,171.5C 128.388,168.946 128.721,166.279 128.5,163.5C 127.5,163.5 126.5,163.5 125.5,163.5C 125.5,164.5 125.5,165.5 125.5,166.5C 123.213,167.355 120.88,167.522 118.5,167C 117.346,167.914 117.513,168.747 119,169.5C 120.292,168.209 121.458,168.209 122.5,169.5C 121.517,170.85 120.184,171.85 118.5,172.5C 120.63,173.777 122.296,173.277 123.5,171C 124.749,170.26 125.749,170.427 126.5,171.5C 126.719,172.675 126.386,173.675 125.5,174.5C 121.041,176.072 116.541,177.405 112,178.5C 111.536,177.906 111.369,177.239 111.5,176.5C 112.761,172.724 112.427,169.057 110.5,165.5C 114.262,165.309 117.929,164.642 121.5,163.5C 122.167,163.5 122.5,163.167 122.5,162.5C 126.052,161.724 129.386,160.391 132.5,158.5C 134.383,160.136 136.383,160.469 138.5,159.5C 137.675,158.614 136.675,158.281 135.5,158.5C 136.45,155.885 138.117,153.885 140.5,152.5C 141.167,152.167 141.833,151.833 142.5,151.5 Z"/></g>
<g><path style="opacity:1" fill="#16516c" d="M 125.5,166.5 C 126.494,168.854 125.494,169.854 122.5,169.5C 121.458,168.209 120.292,168.209 119,169.5C 117.513,168.747 117.346,167.914 118.5,167C 120.88,167.522 123.213,167.355 125.5,166.5 Z"/></g>
<g><path style="opacity:1" fill="#141617" d="M 127.5,171.5 C 127.167,171.5 126.833,171.5 126.5,171.5C 125.749,170.427 124.749,170.26 123.5,171C 122.296,173.277 120.63,173.777 118.5,172.5C 120.184,171.85 121.517,170.85 122.5,169.5C 125.494,169.854 126.494,168.854 125.5,166.5C 125.5,165.5 125.5,164.5 125.5,163.5C 126.5,163.5 127.5,163.5 128.5,163.5C 128.721,166.279 128.388,168.946 127.5,171.5 Z"/></g>
<g><path style="opacity:1" fill="#f1f1f1" d="M 76.5,163.5 C 80.4643,163.489 84.131,164.489 87.5,166.5C 90.4283,170.243 90.095,173.576 86.5,176.5C 81.4061,177.336 77.0727,176.002 73.5,172.5C 72.6103,170.218 72.4436,167.885 73,165.5C 73.8159,164.177 74.9826,163.511 76.5,163.5 Z"/></g>
<g><path style="opacity:1" fill="#131a1f" d="M 79.5,166.5 C 80.8221,166.33 81.9887,166.663 83,167.5C 83.4955,169.473 83.6621,171.473 83.5,173.5C 78.5904,173.424 77.2571,171.09 79.5,166.5 Z"/></g>
<g><path style="opacity:1" fill="#064961" d="M 126.5,158.5 C 124.227,158.957 122.894,160.29 122.5,162.5C 122.5,163.167 122.167,163.5 121.5,163.5C 121.38,162.414 120.713,161.747 119.5,161.5C 114.973,162.437 110.973,164.104 107.5,166.5C 106.833,166.5 106.167,166.5 105.5,166.5C 102.256,164.888 98.589,163.888 94.5,163.5C 94.0153,160.888 94.8487,160.888 97,163.5C 99.0343,155.78 103.201,154.447 109.5,159.5C 111.306,155.829 114.139,153.162 118,151.5C 118.617,152.449 118.451,153.282 117.5,154C 120.26,153.704 122.093,155.204 123,158.5C 123.249,157.376 123.749,156.376 124.5,155.5C 124.088,156.782 124.754,157.782 126.5,158.5 Z"/></g>
<g><path style="opacity:1" fill="#070b0d" d="M 121.5,163.5 C 117.929,164.642 114.262,165.309 110.5,165.5C 112.427,169.057 112.761,172.724 111.5,176.5C 110.833,176.5 110.167,176.5 109.5,176.5C 108.5,176.167 107.833,175.5 107.5,174.5C 108.748,173.666 109.415,172.333 109.5,170.5C 109.489,168.955 109.156,167.622 108.5,166.5C 108.167,166.5 107.833,166.5 107.5,166.5C 110.973,164.104 114.973,162.437 119.5,161.5C 120.713,161.747 121.38,162.414 121.5,163.5 Z"/></g>
<g><path style="opacity:1" fill="#0b3d50" d="M 83.5,146.5 C 95.2722,150.548 106.939,150.214 118.5,145.5C 121.464,147.962 124.297,150.629 127,153.5C 126.769,151.231 125.602,149.397 123.5,148C 125.061,147.682 126.228,146.849 127,145.5C 127.414,145.957 127.914,146.291 128.5,146.5C 129.623,144.711 130.956,144.378 132.5,145.5C 131.975,146.192 131.308,146.692 130.5,147C 132.286,147.785 133.786,148.951 135,150.5C 135.833,149.5 136.667,148.5 137.5,147.5C 138.386,148.325 138.719,149.325 138.5,150.5C 136.491,152.169 134.491,153.836 132.5,155.5C 133.548,156.548 134.548,157.548 135.5,158.5C 136.675,158.281 137.675,158.614 138.5,159.5C 136.383,160.469 134.383,160.136 132.5,158.5C 130.611,157.258 128.611,157.258 126.5,158.5C 124.754,157.782 124.088,156.782 124.5,155.5C 123.749,156.376 123.249,157.376 123,158.5C 122.093,155.204 120.26,153.704 117.5,154C 118.451,153.282 118.617,152.449 118,151.5C 114.139,153.162 111.306,155.829 109.5,159.5C 103.201,154.447 99.0343,155.78 97,163.5C 94.8487,160.888 94.0153,160.888 94.5,163.5C 98.589,163.888 102.256,164.888 105.5,166.5C 104.167,166.5 102.833,166.5 101.5,166.5C 101.762,167.978 101.429,169.311 100.5,170.5C 99.3914,171.59 98.3914,171.59 97.5,170.5C 98.8532,169.476 99.5198,168.143 99.5,166.5C 98.5,166.5 97.5,166.5 96.5,166.5C 94.5662,165.468 92.3995,164.802 90,164.5C 88.6244,164.684 87.7911,165.351 87.5,166.5C 84.131,164.489 80.4643,163.489 76.5,163.5C 76.9175,162.778 77.5842,162.278 78.5,162C 76.8659,161.506 75.1992,161.34 73.5,161.5C 72.1667,160.5 70.8333,159.5 69.5,158.5C 69.6715,157.121 69.8382,155.454 70,153.5C 71.0177,154.706 71.5177,154.373 71.5,152.5C 70.8086,150.109 69.8086,150.109 68.5,152.5C 67.3147,151.147 65.9814,149.98 64.5,149C 66.2694,147.981 67.9361,147.814 69.5,148.5C 70.5896,147.609 70.5896,146.609 69.5,145.5C 73.9256,144.847 78.2589,145.513 82.5,147.5C 83.1067,147.376 83.44,147.043 83.5,146.5 Z"/></g>
<g><path style="opacity:1" fill="#063d50" d="M 58.5,165.5 C 61.4749,166.655 64.1416,168.322 66.5,170.5C 62.5535,175.136 58.7202,175.136 55,170.5C 53.9141,172.847 52.5808,172.847 51,170.5C 47.3724,171.547 46.8724,173.214 49.5,175.5C 39.8826,170.216 32.2159,162.883 26.5,153.5C 25.5588,151.534 24.5588,149.534 23.5,147.5C 24.7305,143.285 25.8971,142.952 27,146.5C 27.7504,145.874 28.5838,145.374 29.5,145C 27.1633,143.202 26.4967,141.035 27.5,138.5C 28.2164,139.311 29.0497,139.978 30,140.5C 31.1618,139.813 32.3284,139.647 33.5,140C 33.1667,140.333 32.8333,140.667 32.5,141C 33.646,141.645 34.646,142.478 35.5,143.5C 38.2755,139.378 38.9422,139.711 37.5,144.5C 37.8242,146.569 38.6575,146.902 40,145.5C 40.0277,150.459 41.5277,151.293 44.5,148C 43.552,147.517 42.552,147.351 41.5,147.5C 41.4239,144.233 42.7573,142.899 45.5,143.5C 44.9747,144.192 44.3081,144.692 43.5,145C 45.6036,145.791 46.937,147.291 47.5,149.5C 47.9976,148.397 48.3309,147.397 48.5,146.5C 49.6309,148.074 49.7975,149.741 49,151.5C 48.586,151.043 48.086,150.709 47.5,150.5C 45.556,151.189 43.556,151.689 41.5,152C 42.8491,152.772 43.6824,153.939 44,155.5C 44.4828,154.552 44.6495,153.552 44.5,152.5C 46.604,152.799 48.604,152.466 50.5,151.5C 51.7468,149.958 51.7468,148.458 50.5,147C 51.6667,145.833 52.8333,144.667 54,143.5C 54.5074,144.996 54.0074,146.163 52.5,147C 55.028,148.316 55.028,149.483 52.5,150.5C 55.1341,152.923 56.4674,155.59 56.5,158.5C 57.086,158.291 57.586,157.957 58,157.5C 58.49,158.793 58.6567,160.127 58.5,161.5C 54.8346,162.293 54.8346,163.626 58.5,165.5 Z"/></g>
<g><path style="opacity:1" fill="#0a0d10" d="M 132.5,158.5 C 129.386,160.391 126.052,161.724 122.5,162.5C 122.894,160.29 124.227,158.957 126.5,158.5C 128.611,157.258 130.611,157.258 132.5,158.5 Z"/></g>
<g><path style="opacity:1" fill="#ebeced" d="M 69.5,158.5 C 70.8333,159.5 72.1667,160.5 73.5,161.5C 73.5,163.5 72.5,164.5 70.5,164.5C 70.0291,163.099 69.3624,161.766 68.5,160.5C 66.6798,163.862 66.0131,167.195 66.5,170.5C 64.1416,168.322 61.4749,166.655 58.5,165.5C 58.8212,163.952 59.8212,163.285 61.5,163.5C 61.8511,161.131 62.0178,158.797 62,156.5C 59.9154,157.647 58.4154,156.98 57.5,154.5C 57.9186,153.328 58.5853,152.328 59.5,151.5C 62.5127,154.336 65.846,156.669 69.5,158.5 Z"/></g>
<g><path style="opacity:1" fill="#06445a" d="M 166.5,161.5 C 161.279,167.443 155.279,172.443 148.5,176.5C 148.062,176.565 147.728,176.399 147.5,176C 148.328,175.085 149.328,174.419 150.5,174C 148.772,172.274 146.772,170.941 144.5,170C 146.734,168.766 148.234,166.933 149,164.5C 150.403,166.904 152.403,168.571 155,169.5C 156.722,169.389 156.888,168.889 155.5,168C 156.833,167.667 158.167,167.333 159.5,167C 158.167,165.333 156.833,163.667 155.5,162C 156.784,160.703 156.617,159.536 155,158.5C 153.594,159.668 152.428,159.335 151.5,157.5C 148.531,158.466 146.198,160.133 144.5,162.5C 142.295,159.099 141.629,155.432 142.5,151.5C 142.586,150.504 142.252,149.671 141.5,149C 143.041,147.421 144.208,145.587 145,143.5C 145.333,143.833 145.667,144.167 146,144.5C 146,143.167 146,141.833 146,140.5C 147.864,142.34 149.698,143.84 151.5,145C 151.043,144.586 150.709,144.086 150.5,143.5C 152.806,140.405 154.639,137.071 156,133.5C 155.689,134.935 155.855,136.268 156.5,137.5C 155.975,138.192 155.308,138.692 154.5,139C 156.684,139.442 158.684,138.942 160.5,137.5C 157.879,135.128 158.212,134.462 161.5,135.5C 162.287,134.758 162.953,133.925 163.5,133C 162.483,131.951 162.316,130.784 163,129.5C 163.772,130.849 164.939,131.682 166.5,132C 164.015,133.223 163.848,134.723 166,136.5C 166.925,135.953 167.758,135.287 168.5,134.5C 167.494,133.604 167.494,132.938 168.5,132.5C 169.167,133.833 169.833,135.167 170.5,136.5C 171.624,134.631 172.457,132.631 173,130.5C 173.333,130.833 173.667,131.167 174,131.5C 174.127,134.068 174.46,136.734 175,139.5C 173.644,140.38 172.144,140.714 170.5,140.5C 170.343,141.873 170.51,143.207 171,144.5C 171.308,143.692 171.808,143.025 172.5,142.5C 173.229,144.734 174.229,146.067 175.5,146.5C 174.709,151.84 172.876,152.507 170,148.5C 168.229,149.304 166.729,150.471 165.5,152C 167.167,153 168.833,154 170.5,155C 169.552,155.483 168.552,155.649 167.5,155.5C 167.822,157.722 167.155,159.556 165.5,161C 165.728,161.399 166.062,161.565 166.5,161.5 Z"/></g>
<g><path style="opacity:1" fill="#0c1116" d="M 138.5,150.5 C 139.5,150.833 140.167,151.5 140.5,152.5C 138.117,153.885 136.45,155.885 135.5,158.5C 134.548,157.548 133.548,156.548 132.5,155.5C 134.491,153.836 136.491,152.169 138.5,150.5 Z"/></g>
<g><path style="opacity:1" fill="#27ded5" d="M 131.5,137.5 C 127.669,140.919 123.335,143.586 118.5,145.5C 106.939,150.214 95.2722,150.548 83.5,146.5C 77.6747,144.334 72.3413,141.334 67.5,137.5C 66.6971,136.577 66.5304,135.577 67,134.5C 81.1604,146.933 97.3271,150.433 115.5,145C 121.251,142.711 126.418,139.545 131,135.5C 131.464,136.094 131.631,136.761 131.5,137.5 Z"/></g>
<g><path style="opacity:1" fill="#053549" d="M 189.5,115.5 C 186.184,133.11 178.517,148.444 166.5,161.5C 166.062,161.565 165.728,161.399 165.5,161C 167.155,159.556 167.822,157.722 167.5,155.5C 168.552,155.649 169.552,155.483 170.5,155C 168.833,154 167.167,153 165.5,152C 166.729,150.471 168.229,149.304 170,148.5C 172.876,152.507 174.709,151.84 175.5,146.5C 174.229,146.067 173.229,144.734 172.5,142.5C 171.808,143.025 171.308,143.692 171,144.5C 170.51,143.207 170.343,141.873 170.5,140.5C 172.144,140.714 173.644,140.38 175,139.5C 174.46,136.734 174.127,134.068 174,131.5C 173.667,131.167 173.333,130.833 173,130.5C 172.457,132.631 171.624,134.631 170.5,136.5C 169.833,135.167 169.167,133.833 168.5,132.5C 167.494,132.938 167.494,133.604 168.5,134.5C 167.758,135.287 166.925,135.953 166,136.5C 163.848,134.723 164.015,133.223 166.5,132C 164.939,131.682 163.772,130.849 163,129.5C 162.316,130.784 162.483,131.951 163.5,133C 162.953,133.925 162.287,134.758 161.5,135.5C 158.212,134.462 157.879,135.128 160.5,137.5C 158.684,138.942 156.684,139.442 154.5,139C 155.308,138.692 155.975,138.192 156.5,137.5C 155.855,136.268 155.689,134.935 156,133.5C 154.639,137.071 152.806,140.405 150.5,143.5C 150.709,144.086 151.043,144.586 151.5,145C 149.698,143.84 147.864,142.34 146,140.5C 146,141.833 146,143.167 146,144.5C 145.667,144.167 145.333,143.833 145,143.5C 144.208,145.587 143.041,147.421 141.5,149C 142.252,149.671 142.586,150.504 142.5,151.5C 141.833,151.833 141.167,152.167 140.5,152.5C 140.167,151.5 139.5,150.833 138.5,150.5C 138.719,149.325 138.386,148.325 137.5,147.5C 136.667,148.5 135.833,149.5 135,150.5C 133.786,148.951 132.286,147.785 130.5,147C 131.308,146.692 131.975,146.192 132.5,145.5C 130.956,144.378 129.623,144.711 128.5,146.5C 127.914,146.291 127.414,145.957 127,145.5C 126.228,146.849 125.061,147.682 123.5,148C 125.602,149.397 126.769,151.231 127,153.5C 124.297,150.629 121.464,147.962 118.5,145.5C 123.335,143.586 127.669,140.919 131.5,137.5C 132.33,142.824 135.33,144.658 140.5,143C 142.594,141.745 143.594,139.912 143.5,137.5C 142.605,134.607 141.271,131.941 139.5,129.5C 141.339,128.418 143.339,127.585 145.5,127C 144.061,124.695 144.561,122.862 147,121.5C 147.595,122.899 147.428,124.232 146.5,125.5C 148.946,126.983 148.612,128.149 145.5,129C 148.135,131.163 149.135,133.663 148.5,136.5C 149.5,136 150.5,135.5 151.5,135C 149.078,133.112 149.078,131.112 151.5,129C 149.415,127.474 149.415,125.64 151.5,123.5C 153.49,127.03 154.323,126.697 154,122.5C 156.129,123.863 156.629,123.529 155.5,121.5C 156.922,120.453 158.422,120.453 160,121.5C 163.785,121.358 166.618,119.691 168.5,116.5C 170.576,118.288 172.743,119.954 175,121.5C 175.75,120.874 176.584,120.374 177.5,120C 176.09,119.632 175.09,118.799 174.5,117.5C 175.716,116.904 177.049,116.737 178.5,117C 176.026,114.572 176.526,114.072 180,115.5C 180.827,114.338 181.66,113.171 182.5,112C 180.836,110.233 179.669,110.733 179,113.5C 178.667,113.167 178.333,112.833 178,112.5C 174.736,113.276 172.903,114.943 172.5,117.5C 170.988,116.009 169.988,114.176 169.5,112C 172.191,112.792 174.858,112.459 177.5,111C 175.986,109.561 175.653,108.061 176.5,106.5C 178.276,110.139 180.61,110.472 183.5,107.5C 184.528,109.361 186.028,110.695 188,111.5C 188.21,113.058 188.71,114.391 189.5,115.5 Z"/></g>
<g><path style="opacity:1" fill="#062d3f" d="M 59.5,131.5 C 53.3963,134.767 53.0629,138.601 58.5,143C 63.0399,143.729 66.0399,141.895 67.5,137.5C 72.3413,141.334 77.6747,144.334 83.5,146.5C 83.44,147.043 83.1067,147.376 82.5,147.5C 78.2589,145.513 73.9256,144.847 69.5,145.5C 70.5896,146.609 70.5896,147.609 69.5,148.5C 67.9361,147.814 66.2694,147.981 64.5,149C 65.9814,149.98 67.3147,151.147 68.5,152.5C 69.8086,150.109 70.8086,150.109 71.5,152.5C 71.5177,154.373 71.0177,154.706 70,153.5C 69.8382,155.454 69.6715,157.121 69.5,158.5C 65.846,156.669 62.5127,154.336 59.5,151.5C 58.5853,152.328 57.9186,153.328 57.5,154.5C 58.4154,156.98 59.9154,157.647 62,156.5C 62.0178,158.797 61.8511,161.131 61.5,163.5C 59.8212,163.285 58.8212,163.952 58.5,165.5C 54.8346,163.626 54.8346,162.293 58.5,161.5C 58.6567,160.127 58.49,158.793 58,157.5C 57.586,157.957 57.086,158.291 56.5,158.5C 56.4674,155.59 55.1341,152.923 52.5,150.5C 55.028,149.483 55.028,148.316 52.5,147C 54.0074,146.163 54.5074,144.996 54,143.5C 52.8333,144.667 51.6667,145.833 50.5,147C 51.7468,148.458 51.7468,149.958 50.5,151.5C 48.604,152.466 46.604,152.799 44.5,152.5C 44.6495,153.552 44.4828,154.552 44,155.5C 43.6824,153.939 42.8491,152.772 41.5,152C 43.556,151.689 45.556,151.189 47.5,150.5C 48.086,150.709 48.586,151.043 49,151.5C 49.7975,149.741 49.6309,148.074 48.5,146.5C 48.3309,147.397 47.9976,148.397 47.5,149.5C 46.937,147.291 45.6036,145.791 43.5,145C 44.3081,144.692 44.9747,144.192 45.5,143.5C 42.7573,142.899 41.4239,144.233 41.5,147.5C 42.552,147.351 43.552,147.517 44.5,148C 41.5277,151.293 40.0277,150.459 40,145.5C 38.6575,146.902 37.8242,146.569 37.5,144.5C 38.9422,139.711 38.2755,139.378 35.5,143.5C 34.646,142.478 33.646,141.645 32.5,141C 32.8333,140.667 33.1667,140.333 33.5,140C 32.3284,139.647 31.1618,139.813 30,140.5C 29.0497,139.978 28.2164,139.311 27.5,138.5C 26.4967,141.035 27.1633,143.202 29.5,145C 28.5838,145.374 27.7504,145.874 27,146.5C 25.8971,142.952 24.7305,143.285 23.5,147.5C 24.5588,149.534 25.5588,151.534 26.5,153.5C 21.5086,147.532 17.5086,140.866 14.5,133.5C 19.4864,129.741 19.1531,127.075 13.5,125.5C 14.3505,122.388 15.5172,122.054 17,124.5C 17.7504,123.874 18.5838,123.374 19.5,123C 18,121.833 16.5,120.667 15,119.5C 15.3187,117.257 15.152,115.09 14.5,113C 15.4491,112.383 16.2825,112.549 17,113.5C 17.2492,112.376 17.7492,111.376 18.5,110.5C 21.1924,113.692 23.6924,117.025 26,120.5C 26.8487,115.985 28.682,115.485 31.5,119C 28.8333,119.667 28.8333,120.333 31.5,121C 30.376,121.249 29.376,121.749 28.5,122.5C 32.9083,123.525 36.075,121.858 38,117.5C 39.0736,118.618 40.2402,119.618 41.5,120.5C 39.2819,122.776 36.6152,124.276 33.5,125C 36.6634,128.664 35.9968,131.331 31.5,133C 33.8833,133.065 34.55,133.898 33.5,135.5C 34.8333,136.833 36.1667,136.833 37.5,135.5C 35.0776,133.952 35.0776,132.286 37.5,130.5C 38.1924,131.025 38.6924,131.692 39,132.5C 40.742,129.649 43.0753,128.982 46,130.5C 46.3333,129.5 46.6667,128.5 47,127.5C 47.5831,129.002 48.4164,130.335 49.5,131.5C 50.5174,128.972 51.6841,128.972 53,131.5C 53.9486,127.622 55.1153,127.622 56.5,131.5C 57.5159,127.535 58.5159,127.535 59.5,131.5 Z"/></g>
<g><path style="opacity:1" fill="#032437" d="M 49.5,104.5 C 51.1678,114.491 55.1678,123.491 61.5,131.5C 60.8333,131.5 60.1667,131.5 59.5,131.5C 58.5159,127.535 57.5159,127.535 56.5,131.5C 55.1153,127.622 53.9486,127.622 53,131.5C 51.6841,128.972 50.5174,128.972 49.5,131.5C 48.4164,130.335 47.5831,129.002 47,127.5C 46.6667,128.5 46.3333,129.5 46,130.5C 43.0753,128.982 40.742,129.649 39,132.5C 38.6924,131.692 38.1924,131.025 37.5,130.5C 35.0776,132.286 35.0776,133.952 37.5,135.5C 36.1667,136.833 34.8333,136.833 33.5,135.5C 34.55,133.898 33.8833,133.065 31.5,133C 35.9968,131.331 36.6634,128.664 33.5,125C 36.6152,124.276 39.2819,122.776 41.5,120.5C 40.2402,119.618 39.0736,118.618 38,117.5C 36.075,121.858 32.9083,123.525 28.5,122.5C 29.376,121.749 30.376,121.249 31.5,121C 28.8333,120.333 28.8333,119.667 31.5,119C 28.682,115.485 26.8487,115.985 26,120.5C 23.6924,117.025 21.1924,113.692 18.5,110.5C 17.7492,111.376 17.2492,112.376 17,113.5C 16.2825,112.549 15.4491,112.383 14.5,113C 15.152,115.09 15.3187,117.257 15,119.5C 16.5,120.667 18,121.833 19.5,123C 18.5838,123.374 17.7504,123.874 17,124.5C 15.5172,122.054 14.3505,122.388 13.5,125.5C 19.1531,127.075 19.4864,129.741 14.5,133.5C 6.3602,110.456 6.52686,87.4559 15,64.5C 15.941,62.2726 17.1077,60.2726 18.5,58.5C 19.9907,56.8732 21.4907,55.2065 23,53.5C 27.8329,55.3353 29.1662,54.002 27,49.5C 26.3457,50.6956 25.8457,50.6956 25.5,49.5C 27.6879,48.7593 29.6879,48.426 31.5,48.5C 30.8545,46.5679 29.5212,45.4012 27.5,45C 29.8173,43.2873 31.8173,43.7873 33.5,46.5C 33.6694,44.8827 34.0028,43.216 34.5,41.5C 35.2136,44.0272 35.8803,46.5272 36.5,49C 35.062,49.2189 33.7287,49.7189 32.5,50.5C 33.0253,51.1924 33.6919,51.6924 34.5,52C 34.1667,52.3333 33.8333,52.6667 33.5,53C 34.8333,53.3333 36.1667,53.6667 37.5,54C 36.3463,54.9138 36.513,55.7471 38,56.5C 38.3076,55.6919 38.8076,55.0253 39.5,54.5C 40.3309,57.3371 41.9976,59.5038 44.5,61C 42.7749,60.5913 41.1082,60.7579 39.5,61.5C 40.2634,62.7193 41.2634,63.7193 42.5,64.5C 41.2713,65.2811 39.938,65.7811 38.5,66C 40.5547,66.6872 42.2214,67.8539 43.5,69.5C 42.9747,70.1924 42.3081,70.6924 41.5,71C 42.7472,72.4936 42.7472,73.9936 41.5,75.5C 40.8076,74.9747 40.3076,74.3081 40,73.5C 39.1072,74.7112 38.2739,74.7112 37.5,73.5C 38.4709,72.0379 38.1376,70.7046 36.5,69.5C 34.5787,68.359 32.5787,68.1923 30.5,69C 34.2929,69.1202 35.7929,70.9535 35,74.5C 34.1072,73.2888 33.2739,73.2888 32.5,74.5C 33.624,75.914 34.624,77.414 35.5,79C 35.7724,81.6056 35.7724,84.2723 35.5,87C 36.7272,89.2696 38.3939,91.103 40.5,92.5C 40.1667,92.8333 39.8333,93.1667 39.5,93.5C 38.7836,92.689 37.9503,92.0223 37,91.5C 35.0177,92.7214 33.5177,94.3881 32.5,96.5C 31.7189,95.2713 31.2189,93.938 31,92.5C 30,93.8333 29,93.8333 28,92.5C 27.7508,93.624 27.2508,94.624 26.5,95.5C 24.1255,93.6217 22.2922,91.2884 21,88.5C 19.7325,89.9097 19.7325,91.5764 21,93.5C 22.0674,94.1905 23.2341,94.6905 24.5,95C 23.5494,95.7175 23.3828,96.5509 24,97.5C 25.962,97.9694 27.7953,97.3027 29.5,95.5C 30.3636,97.1965 31.6969,98.3632 33.5,99C 33.5,101.333 33.5,103.667 33.5,106C 31.0953,107.615 31.0953,108.281 33.5,108C 35.1752,106.291 36.8419,104.624 38.5,103C 37.2161,102.316 36.0495,102.483 35,103.5C 34.51,102.207 34.3433,100.873 34.5,99.5C 37.2048,99.6198 37.8715,98.6198 36.5,96.5C 36.8076,95.6919 37.3076,95.0253 38,94.5C 38.2163,96.3839 38.883,98.0506 40,99.5C 40.6036,97.3143 41.7703,97.1476 43.5,99C 39.3416,102.915 39.675,103.749 44.5,101.5C 45.6224,103.044 45.289,104.377 43.5,105.5C 44.8333,105.833 46.1667,106.167 47.5,106.5C 45.1441,107.654 44.9774,108.987 47,110.5C 48.122,108.593 48.9553,106.593 49.5,104.5 Z"/></g>
<g><path style="opacity:1" fill="#042335" d="M 189.5,86.5 C 190.707,96.0146 190.707,105.681 189.5,115.5C 188.71,114.391 188.21,113.058 188,111.5C 186.028,110.695 184.528,109.361 183.5,107.5C 180.61,110.472 178.276,110.139 176.5,106.5C 175.653,108.061 175.986,109.561 177.5,111C 174.858,112.459 172.191,112.792 169.5,112C 169.988,114.176 170.988,116.009 172.5,117.5C 172.903,114.943 174.736,113.276 178,112.5C 178.333,112.833 178.667,113.167 179,113.5C 179.669,110.733 180.836,110.233 182.5,112C 181.66,113.171 180.827,114.338 180,115.5C 176.526,114.072 176.026,114.572 178.5,117C 177.049,116.737 175.716,116.904 174.5,117.5C 175.09,118.799 176.09,119.632 177.5,120C 176.584,120.374 175.75,120.874 175,121.5C 172.743,119.954 170.576,118.288 168.5,116.5C 166.618,119.691 163.785,121.358 160,121.5C 158.422,120.453 156.922,120.453 155.5,121.5C 156.629,123.529 156.129,123.863 154,122.5C 154.323,126.697 153.49,127.03 151.5,123.5C 149.415,125.64 149.415,127.474 151.5,129C 149.078,131.112 149.078,133.112 151.5,135C 150.5,135.5 149.5,136 148.5,136.5C 149.135,133.663 148.135,131.163 145.5,129C 148.612,128.149 148.946,126.983 146.5,125.5C 147.428,124.232 147.595,122.899 147,121.5C 144.561,122.862 144.061,124.695 145.5,127C 143.339,127.585 141.339,128.418 139.5,129.5C 148.245,117.111 151.245,103.444 148.5,88.5C 149.735,86.983 149.735,85.3163 148.5,83.5C 151.183,80.6509 153.683,77.6509 156,74.5C 156.95,75.0223 157.784,75.689 158.5,76.5C 159.685,75.147 161.019,73.9803 162.5,73C 161.146,71.7063 159.812,71.5396 158.5,72.5C 157.361,70.0303 157.694,67.697 159.5,65.5C 160.59,66.3914 160.59,67.3914 159.5,68.5C 160.522,69.354 161.355,70.354 162,71.5C 165.207,68.8498 165.707,69.0165 163.5,72C 163.833,72.3333 164.167,72.6667 164.5,73C 161.632,75.5665 159.632,78.2331 158.5,81C 160.891,81.6914 160.891,82.6914 158.5,84C 158.833,84.3333 159.167,84.6667 159.5,85C 158.451,85.4922 157.451,85.3256 156.5,84.5C 155.088,85.8064 153.421,86.6397 151.5,87C 151.833,87.3333 152.167,87.6667 152.5,88C 154.926,87.9521 157.259,88.1188 159.5,88.5C 160.151,85.199 161.817,82.5323 164.5,80.5C 165.478,80.9767 166.311,81.6433 167,82.5C 168,81.1667 169,81.1667 170,82.5C 170.219,81.062 170.719,79.7287 171.5,78.5C 172.192,79.0253 172.692,79.6919 173,80.5C 173.707,78.9194 174.54,77.4194 175.5,76C 174.692,75.6924 174.025,75.1924 173.5,74.5C 176.08,73.4512 178.746,72.7845 181.5,72.5C 181.67,73.8221 181.337,74.9887 180.5,76C 183.214,77.5733 184.047,79.74 183,82.5C 187.426,81.5876 189.426,83.5876 189,88.5C 189.464,87.9056 189.631,87.2389 189.5,86.5 Z"/></g>
<g><path style="opacity:1" fill="#25d7cb" d="M 139.5,68.5 C 143.584,74.6684 146.584,81.3351 148.5,88.5C 151.245,103.444 148.245,117.111 139.5,129.5C 138.399,130.8 137.066,131.3 135.5,131C 148.139,115.531 150.973,98.3639 144,79.5C 142.418,75.106 139.918,71.4393 136.5,68.5C 135.537,67.6365 135.537,66.9698 136.5,66.5C 137.518,67.1925 138.518,67.8592 139.5,68.5 Z"/></g>
<g><path style="opacity:1" fill="#27e1d5" d="M 61.5,131.5 C 55.1678,123.491 51.1678,114.491 49.5,104.5C 48.5398,90.7204 52.2065,78.387 60.5,67.5C 61.4232,66.6971 62.4232,66.5304 63.5,67C 50.8833,82.0721 48.05,98.9054 55,117.5C 57.0477,123.103 60.2143,127.936 64.5,132C 63.4232,132.47 62.4232,132.303 61.5,131.5 Z"/></g>
<g><path style="opacity:1" fill="#041b2a" d="M 58.5,51.5 C 62.4137,51.8887 66.0804,51.2221 69.5,49.5C 70.1894,50.7736 71.0228,50.7736 72,49.5C 72.1981,51.3817 72.6981,53.0484 73.5,54.5C 71.8132,56.1662 69.8132,57.4995 67.5,58.5C 62.0887,52.6057 57.7553,53.2724 54.5,60.5C 55.4273,63.7601 57.4273,66.0934 60.5,67.5C 52.2065,78.387 48.5398,90.7204 49.5,104.5C 48.9553,106.593 48.122,108.593 47,110.5C 44.9774,108.987 45.1441,107.654 47.5,106.5C 46.1667,106.167 44.8333,105.833 43.5,105.5C 45.289,104.377 45.6224,103.044 44.5,101.5C 39.675,103.749 39.3416,102.915 43.5,99C 41.7703,97.1476 40.6036,97.3143 40,99.5C 38.883,98.0506 38.2163,96.3839 38,94.5C 37.3076,95.0253 36.8076,95.6919 36.5,96.5C 37.8715,98.6198 37.2048,99.6198 34.5,99.5C 34.3433,100.873 34.51,102.207 35,103.5C 36.0495,102.483 37.2161,102.316 38.5,103C 36.8419,104.624 35.1752,106.291 33.5,108C 31.0953,108.281 31.0953,107.615 33.5,106C 33.5,103.667 33.5,101.333 33.5,99C 31.6969,98.3632 30.3636,97.1965 29.5,95.5C 27.7953,97.3027 25.962,97.9694 24,97.5C 23.3828,96.5509 23.5494,95.7175 24.5,95C 23.2341,94.6905 22.0674,94.1905 21,93.5C 19.7325,91.5764 19.7325,89.9097 21,88.5C 22.2922,91.2884 24.1255,93.6217 26.5,95.5C 27.2508,94.624 27.7508,93.624 28,92.5C 29,93.8333 30,93.8333 31,92.5C 31.2189,93.938 31.7189,95.2713 32.5,96.5C 33.5177,94.3881 35.0177,92.7214 37,91.5C 37.9503,92.0223 38.7836,92.689 39.5,93.5C 39.8333,93.1667 40.1667,92.8333 40.5,92.5C 38.3939,91.103 36.7272,89.2696 35.5,87C 35.7724,84.2723 35.7724,81.6056 35.5,79C 34.624,77.414 33.624,75.914 32.5,74.5C 33.2739,73.2888 34.1072,73.2888 35,74.5C 35.7929,70.9535 34.2929,69.1202 30.5,69C 32.5787,68.1923 34.5787,68.359 36.5,69.5C 38.1376,70.7046 38.4709,72.0379 37.5,73.5C 38.2739,74.7112 39.1072,74.7112 40,73.5C 40.3076,74.3081 40.8076,74.9747 41.5,75.5C 42.7472,73.9936 42.7472,72.4936 41.5,71C 42.3081,70.6924 42.9747,70.1924 43.5,69.5C 42.2214,67.8539 40.5547,66.6872 38.5,66C 39.938,65.7811 41.2713,65.2811 42.5,64.5C 41.2634,63.7193 40.2634,62.7193 39.5,61.5C 41.1082,60.7579 42.7749,60.5913 44.5,61C 41.9976,59.5038 40.3309,57.3371 39.5,54.5C 38.8076,55.0253 38.3076,55.6919 38,56.5C 36.513,55.7471 36.3463,54.9138 37.5,54C 36.1667,53.6667 34.8333,53.3333 33.5,53C 33.8333,52.6667 34.1667,52.3333 34.5,52C 33.6919,51.6924 33.0253,51.1924 32.5,50.5C 33.7287,49.7189 35.062,49.2189 36.5,49C 35.8803,46.5272 35.2136,44.0272 34.5,41.5C 34.0028,43.216 33.6694,44.8827 33.5,46.5C 31.8173,43.7873 29.8173,43.2873 27.5,45C 29.5212,45.4012 30.8545,46.5679 31.5,48.5C 29.6879,48.426 27.6879,48.7593 25.5,49.5C 25.8457,50.6956 26.3457,50.6956 27,49.5C 29.1662,54.002 27.8329,55.3353 23,53.5C 21.4907,55.2065 19.9907,56.8732 18.5,58.5C 25.981,42.0174 37.6477,29.3508 53.5,20.5C 54.9972,21.3058 56.6639,21.9724 58.5,22.5C 58.8333,21.1667 59.1667,19.8333 59.5,18.5C 62.1737,17.3095 64.8404,16.4762 67.5,16C 65.4315,17.6459 64.0982,19.8125 63.5,22.5C 56.6871,25.0993 51.1871,30.0993 47,37.5C 45.629,49.7929 51.129,54.9596 63.5,53C 61.6183,52.8019 59.9516,52.3019 58.5,51.5 Z"/></g>
<g><path style="opacity:1" fill="#27dcd5" d="M 123.5,55.5 C 125.612,56.4396 127.612,57.6063 129.5,59C 131.007,59.8373 131.507,61.0039 131,62.5C 109.401,46.2604 88.0673,46.5937 67,63.5C 66.8374,61.6133 67.6707,60.1133 69.5,59C 73.3674,56.5667 77.3674,54.4 81.5,52.5C 83.7014,51.4336 86.0347,50.767 88.5,50.5C 100.806,48.0133 112.472,49.68 123.5,55.5 Z"/></g>
<g><path style="opacity:1" fill="#0e1413" d="M 123.5,55.5 C 123.56,54.9569 123.893,54.6236 124.5,54.5C 126.833,55.8333 129.167,57.1667 131.5,58.5C 137.743,52.3832 142.076,53.5499 144.5,62C 142.21,63.7772 140.543,65.9438 139.5,68.5C 138.518,67.8592 137.518,67.1925 136.5,66.5C 135.537,66.9698 135.537,67.6365 136.5,68.5C 139.918,71.4393 142.418,75.106 144,79.5C 150.973,98.3639 148.139,115.531 135.5,131C 137.066,131.3 138.399,130.8 139.5,129.5C 141.271,131.941 142.605,134.607 143.5,137.5C 143.594,139.912 142.594,141.745 140.5,143C 135.33,144.658 132.33,142.824 131.5,137.5C 131.631,136.761 131.464,136.094 131,135.5C 126.418,139.545 121.251,142.711 115.5,145C 97.3271,150.433 81.1604,146.933 67,134.5C 66.5304,135.577 66.6971,136.577 67.5,137.5C 66.0399,141.895 63.0399,143.729 58.5,143C 53.0629,138.601 53.3963,134.767 59.5,131.5C 60.1667,131.5 60.8333,131.5 61.5,131.5C 62.4232,132.303 63.4232,132.47 64.5,132C 60.2143,127.936 57.0477,123.103 55,117.5C 48.05,98.9054 50.8833,82.0721 63.5,67C 62.4232,66.5304 61.4232,66.6971 60.5,67.5C 57.4273,66.0934 55.4273,63.7601 54.5,60.5C 57.7553,53.2724 62.0887,52.6057 67.5,58.5C 69.8132,57.4995 71.8132,56.1662 73.5,54.5C 75.9279,53.7878 78.2612,52.7878 80.5,51.5C 81.1067,51.6236 81.44,51.9569 81.5,52.5C 77.3674,54.4 73.3674,56.5667 69.5,59C 67.6707,60.1133 66.8374,61.6133 67,63.5C 88.0673,46.5937 109.401,46.2604 131,62.5C 131.507,61.0039 131.007,59.8373 129.5,59C 127.612,57.6063 125.612,56.4396 123.5,55.5 Z"/></g>
<g><path style="opacity:1" fill="#bbbcbc" d="M 136.5,135.5 C 139.861,136.203 140.194,137.537 137.5,139.5C 135.358,138.563 135.024,137.23 136.5,135.5 Z"/></g>
<g><path style="opacity:1" fill="#fefefd" d="M 59.5,136.5 C 60.675,136.281 61.675,136.614 62.5,137.5C 60.9483,138.798 59.9483,138.465 59.5,136.5 Z"/></g>
<g><path style="opacity:1" fill="#28f3df" d="M 82.5,130.5 C 83.2905,131.401 84.2905,132.068 85.5,132.5C 98.4845,137.273 110.651,135.607 122,127.5C 122.537,132.037 125.037,134.537 129.5,135C 109.484,150.275 89.4838,150.275 69.5,135C 74.5638,133.834 76.2305,131.001 74.5,126.5C 74.369,125.761 74.5357,125.094 75,124.5C 77.0865,127.094 79.5865,129.094 82.5,130.5 Z"/></g>
<g><path style="opacity:1" fill="#ededec" d="M 126.5,124.5 C 133.486,124.331 135.153,127.164 131.5,133C 124.409,133.396 122.742,130.562 126.5,124.5 Z"/></g>
<g><path style="opacity:1" fill="#1f1f1f" d="M 127.5,127.5 C 128.5,127.5 129.5,127.5 130.5,127.5C 130.5,128.5 130.5,129.5 130.5,130.5C 129.5,130.5 128.5,130.5 127.5,130.5C 127.5,129.5 127.5,128.5 127.5,127.5 Z"/></g>
<g><path style="opacity:1" fill="#eae8e8" d="M 74.5,126.5 C 74.0761,132.803 71.2428,134.469 66,131.5C 65.4727,124.421 68.306,122.754 74.5,126.5 Z"/></g>
<g><path style="opacity:1" fill="#1d1d1e" d="M 68.5,127.5 C 71.9571,127.667 72.2904,128.667 69.5,130.5C 68.6143,129.675 68.281,128.675 68.5,127.5 Z"/></g>
<g><path style="opacity:1" fill="#4a626d" d="M 79.5,116.5 C 80.209,115.596 81.209,115.263 82.5,115.5C 83.3478,116.625 84.3478,116.625 85.5,115.5C 87.8927,116.21 90.3927,116.877 93,117.5C 96.5653,115.947 99.8986,116.28 103,118.5C 107.741,118.098 112.241,118.098 116.5,118.5C 120.333,119.563 120.333,120.396 116.5,121C 114.314,122.412 112.648,124.245 111.5,126.5C 107.545,124.347 103.212,122.847 98.5,122C 92.4854,121.256 86.4854,120.423 80.5,119.5C 79.0977,118.158 79.4311,117.324 81.5,117C 80.9056,116.536 80.2389,116.369 79.5,116.5 Z"/></g>
<g><path style="opacity:1" fill="#778790" d="M 116.5,118.5 C 112.241,118.098 107.741,118.098 103,118.5C 99.8986,116.28 96.5653,115.947 93,117.5C 90.3927,116.877 87.8927,116.21 85.5,115.5C 90.295,114.235 94.9617,112.568 99.5,110.5C 105.072,113.454 110.739,116.12 116.5,118.5 Z"/></g>
<g><path style="opacity:1" fill="#374d59" d="M 130.5,84.5 C 130.5,84.8333 130.5,85.1667 130.5,85.5C 130.056,87.1132 129.056,88.2798 127.5,89C 127.957,89.414 128.291,89.914 128.5,90.5C 126.367,93.1484 125.034,95.8151 124.5,98.5C 125.695,99.9675 125.695,101.467 124.5,103C 124.905,103.945 125.572,104.612 126.5,105C 125.833,105.667 125.167,106.333 124.5,107C 125.738,106.923 126.738,107.089 127.5,107.5C 126.754,108.736 126.421,110.07 126.5,111.5C 127.675,111.281 128.675,111.614 129.5,112.5C 128.309,112.405 126.975,112.738 125.5,113.5C 124.55,110.885 122.883,108.885 120.5,107.5C 119.573,103.219 119.24,99.0526 119.5,95C 121.362,93.6343 123.028,92.1343 124.5,90.5C 126.949,88.3064 126.949,85.973 124.5,83.5C 126.782,82.0996 128.282,82.7663 129,85.5C 129.383,84.944 129.883,84.6107 130.5,84.5 Z"/></g>
<g><path style="opacity:1" fill="#60727b" d="M 78.5,90.5 C 79.5755,92.1573 80.2421,93.9907 80.5,96C 79.3079,99.4705 78.3079,102.971 77.5,106.5C 75.7505,108.895 74.0839,108.895 72.5,106.5C 74.4511,103.478 76.1177,100.311 77.5,97C 77.1893,94.6775 76.856,92.3442 76.5,90C 77.4368,89.3083 78.1034,89.475 78.5,90.5 Z"/></g>
<g><path style="opacity:1" fill="#8e989f" d="M 78.5,90.5 C 80.5,91.1667 82.5,91.8333 84.5,92.5C 86.3356,94.588 88.6689,95.9213 91.5,96.5C 93.2554,97.0722 94.9221,97.9055 96.5,99C 95.9056,99.4643 95.2389,99.631 94.5,99.5C 88.7527,101.638 83.086,103.971 77.5,106.5C 78.3079,102.971 79.3079,99.4705 80.5,96C 80.2421,93.9907 79.5755,92.1573 78.5,90.5 Z"/></g>
<g><path style="opacity:1" fill="#8d99a1" d="M 120.5,92.5 C 118.071,93.7577 116.071,95.591 114.5,98C 115.22,100.491 115.887,102.991 116.5,105.5C 112.559,103.86 108.892,101.694 105.5,99C 110.299,96.2646 115.299,94.0979 120.5,92.5 Z"/></g>
<g><path style="opacity:1" fill="#5e6f78" d="M 124.5,90.5 C 123.028,92.1343 121.362,93.6343 119.5,95C 119.24,99.0526 119.573,103.219 120.5,107.5C 118.847,107.34 117.514,106.674 116.5,105.5C 115.887,102.991 115.22,100.491 114.5,98C 116.071,95.591 118.071,93.7577 120.5,92.5C 121.514,91.3263 122.847,90.6596 124.5,90.5 Z"/></g>
<g><path style="opacity:1" fill="#193240" d="M 130.5,85.5 C 132.933,89.1924 133.933,93.3591 133.5,98C 133.904,104.853 132.237,111.02 128.5,116.5C 128.19,115.262 127.69,115.262 127,116.5C 126.487,115.473 125.987,114.473 125.5,113.5C 126.975,112.738 128.309,112.405 129.5,112.5C 128.675,111.614 127.675,111.281 126.5,111.5C 126.421,110.07 126.754,108.736 127.5,107.5C 126.738,107.089 125.738,106.923 124.5,107C 125.167,106.333 125.833,105.667 126.5,105C 125.572,104.612 124.905,103.945 124.5,103C 125.695,101.467 125.695,99.9675 124.5,98.5C 125.034,95.8151 126.367,93.1484 128.5,90.5C 128.291,89.914 127.957,89.414 127.5,89C 129.056,88.2798 130.056,87.1132 130.5,85.5 Z"/></g>
<g><path style="opacity:1" fill="#38403e" d="M 84.5,92.5 C 87.3311,93.0787 89.6644,94.412 91.5,96.5C 88.6689,95.9213 86.3356,94.588 84.5,92.5 Z"/></g>
<g><path style="opacity:1" fill="#26f5e1" d="M 104.5,87.5 C 106.027,87.573 107.027,86.9063 107.5,85.5C 111.68,85.2179 115.347,83.8846 118.5,81.5C 122.705,81.8913 124.538,84.2247 124,88.5C 116.63,91.7683 109.463,95.4349 102.5,99.5C 109.457,103.291 116.291,107.291 123,111.5C 123.458,114.096 122.625,116.263 120.5,118C 113.379,115.784 106.379,112.95 99.5,109.5C 93.5895,111.135 87.9229,113.135 82.5,115.5C 81.209,115.263 80.209,115.596 79.5,116.5C 76.6107,115.951 74.944,114.118 74.5,111C 74.8333,110.5 75.1667,110 75.5,109.5C 82.0842,106.377 88.4176,103.044 94.5,99.5C 95.2389,99.631 95.9056,99.4643 96.5,99C 94.9221,97.9055 93.2554,97.0722 91.5,96.5C 89.6644,94.412 87.3311,93.0787 84.5,92.5C 81.3492,90.417 78.3492,88.0837 75.5,85.5C 76.1459,83.0228 77.6459,81.3561 80,80.5C 85.8914,82.8623 91.7247,85.3623 97.5,88C 99.8848,88.5564 102.218,88.3897 104.5,87.5 Z"/></g>
<g><path style="opacity:1" fill="#2ef5e0" d="M 66.5,85.5 C 65.4625,86.9303 64.7959,88.597 64.5,90.5C 62.4481,102.292 65.1147,112.959 72.5,122.5C 67.9343,121.721 64.7677,123.721 63,128.5C 49.0972,108.795 49.0972,89.1283 63,69.5C 64.7677,74.2787 67.9343,76.2787 72.5,75.5C 69.9741,78.5575 67.9741,81.8908 66.5,85.5 Z"/></g>
<g><path style="opacity:1" fill="#748188" d="M 107.5,85.5 C 107.027,86.9063 106.027,87.573 104.5,87.5C 97.9521,86.9268 91.6187,84.7601 85.5,81C 88.6571,80.7602 91.8238,80.9269 95,81.5C 96.9806,81.6292 98.6472,82.2958 100,83.5C 104.238,83.1285 108.238,82.1285 112,80.5C 112.75,81.1258 113.584,81.6258 114.5,82C 111.931,82.8984 109.598,84.065 107.5,85.5 Z"/></g>
<g><path style="opacity:1" fill="#233742" d="M 81.5,70.5 C 86.9266,70.744 92.5932,71.4106 98.5,72.5C 99.9945,72.2908 101.161,71.6241 102,70.5C 104.28,71.833 106.614,73.1663 109,74.5C 112.541,73.5738 116.041,72.5738 119.5,71.5C 124.264,74.9284 127.93,79.2617 130.5,84.5C 129.883,84.6107 129.383,84.944 129,85.5C 128.282,82.7663 126.782,82.0996 124.5,83.5C 126.949,85.973 126.949,88.3064 124.5,90.5C 122.847,90.6596 121.514,91.3263 120.5,92.5C 115.299,94.0979 110.299,96.2646 105.5,99C 108.892,101.694 112.559,103.86 116.5,105.5C 117.514,106.674 118.847,107.34 120.5,107.5C 122.883,108.885 124.55,110.885 125.5,113.5C 125.987,114.473 126.487,115.473 127,116.5C 127.69,115.262 128.19,115.262 128.5,116.5C 127.381,119.888 125.381,122.721 122.5,125C 111.333,133.417 99.1662,135.25 86,130.5C 85.5357,131.094 85.369,131.761 85.5,132.5C 84.2905,132.068 83.2905,131.401 82.5,130.5C 83.2389,130.631 83.9056,130.464 84.5,130C 83.5842,129.722 82.9175,129.222 82.5,128.5C 83.7124,127.77 84.7124,126.77 85.5,125.5C 86.3333,126.5 87.1667,127.5 88,128.5C 89.3333,126.5 91,124.833 93,123.5C 94.0859,125.847 95.4192,125.847 97,123.5C 99.1929,123.851 101.026,124.851 102.5,126.5C 104.329,125.718 105.829,126.384 107,128.5C 108.622,127.901 110.122,127.234 111.5,126.5C 112.648,124.245 114.314,122.412 116.5,121C 120.333,120.396 120.333,119.563 116.5,118.5C 110.739,116.12 105.072,113.454 99.5,110.5C 94.9617,112.568 90.295,114.235 85.5,115.5C 84.3478,116.625 83.3478,116.625 82.5,115.5C 87.9229,113.135 93.5895,111.135 99.5,109.5C 106.379,112.95 113.379,115.784 120.5,118C 122.625,116.263 123.458,114.096 123,111.5C 116.291,107.291 109.457,103.291 102.5,99.5C 109.463,95.4349 116.63,91.7683 124,88.5C 124.538,84.2247 122.705,81.8913 118.5,81.5C 120.1,80.3556 121.767,79.1889 123.5,78C 122,75.8333 120.833,76 120,78.5C 119.047,76.5448 117.713,74.8782 116,73.5C 115.395,75.4812 114.395,75.8146 113,74.5C 111,75.1667 109,75.8333 107,76.5C 106.692,75.6919 106.192,75.0253 105.5,74.5C 102.298,75.1272 99.1312,75.7939 96,76.5C 94.4773,74.3799 92.6439,74.0465 90.5,75.5C 86.4705,74.4955 82.4705,73.4955 78.5,72.5C 79.2905,71.5987 80.2905,70.9321 81.5,70.5 Z"/></g>
<g><path style="opacity:1" fill="#384b56" d="M 78.5,72.5 C 82.4705,73.4955 86.4705,74.4955 90.5,75.5C 92.6439,74.0465 94.4773,74.3799 96,76.5C 99.1312,75.7939 102.298,75.1272 105.5,74.5C 106.192,75.0253 106.692,75.6919 107,76.5C 109,75.8333 111,75.1667 113,74.5C 114.395,75.8146 115.395,75.4812 116,73.5C 117.713,74.8782 119.047,76.5448 120,78.5C 120.833,76 122,75.8333 123.5,78C 121.767,79.1889 120.1,80.3556 118.5,81.5C 115.347,83.8846 111.68,85.2179 107.5,85.5C 109.598,84.065 111.931,82.8984 114.5,82C 113.584,81.6258 112.75,81.1258 112,80.5C 108.238,82.1285 104.238,83.1285 100,83.5C 98.6472,82.2958 96.9806,81.6292 95,81.5C 91.8238,80.9269 88.6571,80.7602 85.5,81C 91.6187,84.7601 97.9521,86.9268 104.5,87.5C 102.218,88.3897 99.8848,88.5564 97.5,88C 91.7247,85.3623 85.8914,82.8623 80,80.5C 77.6459,81.3561 76.1459,83.0228 75.5,85.5C 78.3492,88.0837 81.3492,90.417 84.5,92.5C 82.5,91.8333 80.5,91.1667 78.5,90.5C 78.1034,89.475 77.4368,89.3083 76.5,90C 76.856,92.3442 77.1893,94.6775 77.5,97C 76.1177,100.311 74.4511,103.478 72.5,106.5C 74.0839,108.895 75.7505,108.895 77.5,106.5C 83.086,103.971 88.7527,101.638 94.5,99.5C 88.4176,103.044 82.0842,106.377 75.5,109.5C 75.1667,110 74.8333,110.5 74.5,111C 74.944,114.118 76.6107,115.951 79.5,116.5C 80.2389,116.369 80.9056,116.536 81.5,117C 79.4311,117.324 79.0977,118.158 80.5,119.5C 86.4854,120.423 92.4854,121.256 98.5,122C 103.212,122.847 107.545,124.347 111.5,126.5C 110.122,127.234 108.622,127.901 107,128.5C 105.829,126.384 104.329,125.718 102.5,126.5C 101.026,124.851 99.1929,123.851 97,123.5C 95.4192,125.847 94.0859,125.847 93,123.5C 91,124.833 89.3333,126.5 88,128.5C 87.1667,127.5 86.3333,126.5 85.5,125.5C 84.7124,126.77 83.7124,127.77 82.5,128.5C 76.1114,124.61 71.2781,119.276 68,112.5C 66.1547,105.142 64.988,97.8089 64.5,90.5C 64.7959,88.597 65.4625,86.9303 66.5,85.5C 66.369,86.2389 66.5357,86.9056 67,87.5C 69.1649,81.1748 72.9983,76.1748 78.5,72.5 Z"/></g>
<g><path style="opacity:1" fill="#29f4de" d="M 136.5,68.5 C 150.222,89.1749 149.722,109.508 135,129.5C 134.537,125.037 132.037,122.537 127.5,122C 137.95,106.731 137.95,91.5643 127.5,76.5C 131.885,75.1015 134.885,72.4349 136.5,68.5 Z"/></g>
<g><path style="opacity:1" fill="#0f2231" d="M 119.5,71.5 C 116.041,72.5738 112.541,73.5738 109,74.5C 106.614,73.1663 104.28,71.833 102,70.5C 101.161,71.6241 99.9945,72.2908 98.5,72.5C 92.5932,71.4106 86.9266,70.744 81.5,70.5C 81.5,69.8333 81.5,69.1667 81.5,68.5C 81.5,67.8333 81.8333,67.5 82.5,67.5C 82.369,68.2389 82.5357,68.9056 83,69.5C 90.3888,65.7363 98.2221,64.5696 106.5,66C 111.373,66.7838 115.706,68.6171 119.5,71.5 Z"/></g>
<g><path style="opacity:1" fill="#ecebeb" d="M 126.5,64.5 C 133.486,64.331 135.153,67.1643 131.5,73C 124.416,73.475 122.749,70.6417 126.5,64.5 Z"/></g>
<g><path style="opacity:1" fill="#1f1f1f" d="M 127.5,67.5 C 128.5,67.5 129.5,67.5 130.5,67.5C 130.5,68.5 130.5,69.5 130.5,70.5C 129.5,70.5 128.5,70.5 127.5,70.5C 127.5,69.5 127.5,68.5 127.5,67.5 Z"/></g>
<g><path style="opacity:1" fill="#eae8e8" d="M 74.5,71.5 C 68.0124,75.4295 65.1791,73.7628 66,66.5C 71.2428,63.5308 74.0761,65.1974 74.5,71.5 Z"/></g>
<g><path style="opacity:1" fill="#1d1d1d" d="M 68.5,67.5 C 72.31,68.7542 72.31,69.7542 68.5,70.5C 68.5,69.5 68.5,68.5 68.5,67.5 Z"/></g>
<g><path style="opacity:1" fill="#d0d0d0" d="M 135.5,59.5 C 136.978,59.238 138.311,59.5713 139.5,60.5C 137.537,63.1939 136.203,62.8606 135.5,59.5 Z"/></g>
<g><path style="opacity:1" fill="#f4f4f4" d="M 59.5,59.5 C 62.5476,59.494 63.0476,60.494 61,62.5C 59.9614,61.7562 59.4614,60.7562 59.5,59.5 Z"/></g>
<g><path style="opacity:1" fill="#051927" d="M 98.5,39.5 C 98.8333,39.5 99.1667,39.5 99.5,39.5C 111.405,41.5323 122.238,46.199 132,53.5C 133.209,53.3474 134.375,53.0141 135.5,52.5C 135.833,52.5 136.167,52.5 136.5,52.5C 142.044,51.5689 145.044,48.5689 145.5,43.5C 146.333,44.5 147.167,45.5 148,46.5C 148.974,44.1224 149.641,44.4557 150,47.5C 150.51,45.4547 151.343,43.6213 152.5,42C 150.833,42.3333 149.167,42.6667 147.5,43C 150.457,38.1783 152.791,38.345 154.5,43.5C 156.924,43.1924 159.257,43.5258 161.5,44.5C 160.311,45.4287 158.978,45.762 157.5,45.5C 157.38,48.2048 158.38,48.8715 160.5,47.5C 160.833,48 161.167,48.5 161.5,49C 160.813,50.1618 160.647,51.3284 161,52.5C 162.946,49.0306 165.779,46.864 169.5,46C 168.483,44.9505 168.316,43.7839 169,42.5C 169.759,44.0629 170.926,45.0629 172.5,45.5C 182.24,57.363 187.906,71.0297 189.5,86.5C 189.631,87.2389 189.464,87.9056 189,88.5C 189.426,83.5876 187.426,81.5876 183,82.5C 184.047,79.74 183.214,77.5733 180.5,76C 181.337,74.9887 181.67,73.8221 181.5,72.5C 178.746,72.7845 176.08,73.4512 173.5,74.5C 174.025,75.1924 174.692,75.6924 175.5,76C 174.54,77.4194 173.707,78.9194 173,80.5C 172.692,79.6919 172.192,79.0253 171.5,78.5C 170.719,79.7287 170.219,81.062 170,82.5C 169,81.1667 168,81.1667 167,82.5C 166.311,81.6433 165.478,80.9767 164.5,80.5C 161.817,82.5323 160.151,85.199 159.5,88.5C 157.259,88.1188 154.926,87.9521 152.5,88C 152.167,87.6667 151.833,87.3333 151.5,87C 153.421,86.6397 155.088,85.8064 156.5,84.5C 157.451,85.3256 158.451,85.4922 159.5,85C 159.167,84.6667 158.833,84.3333 158.5,84C 160.891,82.6914 160.891,81.6914 158.5,81C 159.632,78.2331 161.632,75.5665 164.5,73C 164.167,72.6667 163.833,72.3333 163.5,72C 165.707,69.0165 165.207,68.8498 162,71.5C 161.355,70.354 160.522,69.354 159.5,68.5C 160.59,67.3914 160.59,66.3914 159.5,65.5C 157.694,67.697 157.361,70.0303 158.5,72.5C 159.812,71.5396 161.146,71.7063 162.5,73C 161.019,73.9803 159.685,75.147 158.5,76.5C 157.784,75.689 156.95,75.0223 156,74.5C 153.683,77.6509 151.183,80.6509 148.5,83.5C 149.735,85.3163 149.735,86.983 148.5,88.5C 146.584,81.3351 143.584,74.6684 139.5,68.5C 140.543,65.9438 142.21,63.7772 144.5,62C 142.076,53.5499 137.743,52.3832 131.5,58.5C 129.167,57.1667 126.833,55.8333 124.5,54.5C 123.893,54.6236 123.56,54.9569 123.5,55.5C 112.472,49.68 100.806,48.0133 88.5,50.5C 87.4324,49.5655 86.099,49.2322 84.5,49.5C 84.162,46.8431 84.8287,44.5098 86.5,42.5C 87.086,42.7093 87.586,43.0426 88,43.5C 91.2372,41.3836 94.7372,40.0503 98.5,39.5 Z"/></g>
<g><path style="opacity:1" fill="#28f4df" d="M 126.5,64.5 C 125.504,64.4142 124.671,64.7476 124,65.5C 122.655,67.6177 122.155,69.6177 122.5,71.5C 109.949,62.5078 96.6152,61.1745 82.5,67.5C 81.8333,67.5 81.5,67.8333 81.5,68.5C 78.9248,69.5678 76.7581,71.2345 75,73.5C 74.5357,72.9056 74.369,72.2389 74.5,71.5C 76.2305,66.9994 74.5638,64.166 69.5,63C 82.2709,52.8932 96.6043,49.8932 112.5,54C 118.896,55.6969 124.562,58.6969 129.5,63C 128.263,63.2321 127.263,63.7321 126.5,64.5 Z"/></g>
<g><path style="opacity:1" fill="#091520" d="M 159.5,29.5 C 164.614,34.2727 168.948,39.606 172.5,45.5C 170.926,45.0629 169.759,44.0629 169,42.5C 168.316,43.7839 168.483,44.9505 169.5,46C 165.779,46.864 162.946,49.0306 161,52.5C 160.647,51.3284 160.813,50.1618 161.5,49C 161.167,48.5 160.833,48 160.5,47.5C 158.38,48.8715 157.38,48.2048 157.5,45.5C 158.978,45.762 160.311,45.4287 161.5,44.5C 159.257,43.5258 156.924,43.1924 154.5,43.5C 152.791,38.345 150.457,38.1783 147.5,43C 149.167,42.6667 150.833,42.3333 152.5,42C 151.343,43.6213 150.51,45.4547 150,47.5C 149.641,44.4557 148.974,44.1224 148,46.5C 147.167,45.5 146.333,44.5 145.5,43.5C 145.044,48.5689 142.044,51.5689 136.5,52.5C 136.511,50.9826 137.177,49.8159 138.5,49C 137.801,45.2002 137.135,41.3669 136.5,37.5C 140.623,35.1872 144.623,35.1872 148.5,37.5C 149.382,36.2402 150.382,35.0736 151.5,34C 147.676,30.9209 143.676,28.0876 139.5,25.5C 137.341,26.7849 136.674,28.4515 137.5,30.5C 136.311,31.4287 134.978,31.762 133.5,31.5C 134.231,29.2506 135.231,27.084 136.5,25C 131.171,21.0523 125.171,18.5523 118.5,17.5C 118.737,18.791 118.404,19.791 117.5,20.5C 117.052,18.5354 116.052,18.2021 114.5,19.5C 113.754,20.7362 113.421,22.0695 113.5,23.5C 114.822,23.33 115.989,23.6634 117,24.5C 118.442,27.0496 119.608,29.7163 120.5,32.5C 119.24,33.3816 118.074,34.3816 117,35.5C 115.51,34.2721 114.01,34.2721 112.5,35.5C 110.899,33.1446 109.232,30.6446 107.5,28C 114.526,22.7642 113.859,18.4309 105.5,15C 96.6901,13.9707 88.0234,14.6373 79.5,17C 78.6139,18.9015 78.9472,20.7349 80.5,22.5C 81.1667,22.1667 81.8333,21.8333 82.5,21.5C 86.0375,26.4277 86.7042,31.5944 84.5,37C 84.7355,37.8732 85.0688,38.7065 85.5,39.5C 89.7026,39.7262 94.0359,39.7262 98.5,39.5C 94.7372,40.0503 91.2372,41.3836 88,43.5C 87.586,43.0426 87.086,42.7093 86.5,42.5C 84.8287,44.5098 84.162,46.8431 84.5,49.5C 86.099,49.2322 87.4324,49.5655 88.5,50.5C 86.0347,50.767 83.7014,51.4336 81.5,52.5C 81.44,51.9569 81.1067,51.6236 80.5,51.5C 78.2612,52.7878 75.9279,53.7878 73.5,54.5C 72.6981,53.0484 72.1981,51.3817 72,49.5C 71.0228,50.7736 70.1894,50.7736 69.5,49.5C 76.0624,46.9439 80.0624,42.2772 81.5,35.5C 77.8814,35.0439 75.5481,36.5439 74.5,40C 65.6368,45.119 61.1368,42.619 61,32.5C 63.8141,28.5278 67.4808,27.5278 72,29.5C 74.2353,28.6321 76.402,27.6321 78.5,26.5C 77.2147,23.9795 76.5481,21.3128 76.5,18.5C 67.4434,21.0632 59.6101,25.7298 53,32.5C 49.5055,38.5211 49.6722,44.3545 53.5,50C 55.0249,51.0086 56.6916,51.5086 58.5,51.5C 59.9516,52.3019 61.6183,52.8019 63.5,53C 51.129,54.9596 45.629,49.7929 47,37.5C 51.1871,30.0993 56.6871,25.0993 63.5,22.5C 64.0982,19.8125 65.4315,17.6459 67.5,16C 64.8404,16.4762 62.1737,17.3095 59.5,18.5C 59.1667,19.8333 58.8333,21.1667 58.5,22.5C 56.6639,21.9724 54.9972,21.3058 53.5,20.5C 72.054,9.68297 92.054,5.84963 113.5,9C 130.642,12.0901 145.976,18.9234 159.5,29.5 Z"/></g>
<g><path style="opacity:1" fill="#161718" d="M 117.5,20.5 C 120.94,23.3101 123.273,26.9768 124.5,31.5C 121.496,34.0039 118.163,36.0039 114.5,37.5C 113.754,38.7362 113.421,40.0695 113.5,41.5C 116.686,41.8954 119.686,42.8954 122.5,44.5C 123.688,42.0115 125.021,39.6782 126.5,37.5C 129.486,39.8125 129.152,41.4791 125.5,42.5C 124.674,43.451 124.508,44.451 125,45.5C 128.654,47.6631 132.154,49.9964 135.5,52.5C 134.375,53.0141 133.209,53.3474 132,53.5C 122.238,46.199 111.405,41.5323 99.5,39.5C 99.5,37.8333 99.5,36.1667 99.5,34.5C 98.1667,34.5 96.8333,34.5 95.5,34.5C 95.5,33.1667 95.5,31.8333 95.5,30.5C 99.713,31.3785 102.38,34.0451 103.5,38.5C 106.438,39.4891 109.438,40.1558 112.5,40.5C 112.5,38.8333 112.5,37.1667 112.5,35.5C 114.01,34.2721 115.51,34.2721 117,35.5C 118.074,34.3816 119.24,33.3816 120.5,32.5C 119.608,29.7163 118.442,27.0496 117,24.5C 115.989,23.6634 114.822,23.33 113.5,23.5C 113.421,22.0695 113.754,20.7362 114.5,19.5C 116.052,18.2021 117.052,18.5354 117.5,20.5 Z"/></g>
<g><path style="opacity:1" fill="#f3f3f3" d="M 69.5,49.5 C 66.0804,51.2221 62.4137,51.8887 58.5,51.5C 56.6916,51.5086 55.0249,51.0086 53.5,50C 49.6722,44.3545 49.5055,38.5211 53,32.5C 59.6101,25.7298 67.4434,21.0632 76.5,18.5C 76.5481,21.3128 77.2147,23.9795 78.5,26.5C 76.402,27.6321 74.2353,28.6321 72,29.5C 67.4808,27.5278 63.8141,28.5278 61,32.5C 61.1368,42.619 65.6368,45.119 74.5,40C 75.5481,36.5439 77.8814,35.0439 81.5,35.5C 80.0624,42.2772 76.0624,46.9439 69.5,49.5 Z"/></g>
<g><path style="opacity:1" fill="#f4f4f4" d="M 136.5,52.5 C 136.167,52.5 135.833,52.5 135.5,52.5C 132.154,49.9964 128.654,47.6631 125,45.5C 124.508,44.451 124.674,43.451 125.5,42.5C 129.152,41.4791 129.486,39.8125 126.5,37.5C 125.021,39.6782 123.688,42.0115 122.5,44.5C 119.686,42.8954 116.686,41.8954 113.5,41.5C 113.421,40.0695 113.754,38.7362 114.5,37.5C 118.163,36.0039 121.496,34.0039 124.5,31.5C 123.273,26.9768 120.94,23.3101 117.5,20.5C 118.404,19.791 118.737,18.791 118.5,17.5C 125.171,18.5523 131.171,21.0523 136.5,25C 135.231,27.084 134.231,29.2506 133.5,31.5C 134.978,31.762 136.311,31.4287 137.5,30.5C 136.674,28.4515 137.341,26.7849 139.5,25.5C 143.676,28.0876 147.676,30.9209 151.5,34C 150.382,35.0736 149.382,36.2402 148.5,37.5C 144.623,35.1872 140.623,35.1872 136.5,37.5C 137.135,41.3669 137.801,45.2002 138.5,49C 137.177,49.8159 136.511,50.9826 136.5,52.5 Z"/></g>
<g><path style="opacity:1" fill="#f2f2f2" d="M 112.5,35.5 C 112.5,37.1667 112.5,38.8333 112.5,40.5C 109.438,40.1558 106.438,39.4891 103.5,38.5C 102.38,34.0451 99.713,31.3785 95.5,30.5C 95.5,31.8333 95.5,33.1667 95.5,34.5C 96.8333,34.5 98.1667,34.5 99.5,34.5C 99.5,36.1667 99.5,37.8333 99.5,39.5C 99.1667,39.5 98.8333,39.5 98.5,39.5C 94.0359,39.7262 89.7026,39.7262 85.5,39.5C 85.0688,38.7065 84.7355,37.8732 84.5,37C 86.7042,31.5944 86.0375,26.4277 82.5,21.5C 81.8333,21.8333 81.1667,22.1667 80.5,22.5C 78.9472,20.7349 78.6139,18.9015 79.5,17C 88.0234,14.6373 96.6901,13.9707 105.5,15C 113.859,18.4309 114.526,22.7642 107.5,28C 109.232,30.6446 110.899,33.1446 112.5,35.5 Z"/></g>
<g><path style="opacity:1" fill="#090b0d" d="M 95.5,19.5 C 99.938,18.4251 101.938,20.0917 101.5,24.5C 99.5,24.5 97.5,24.5 95.5,24.5C 95.5,22.8333 95.5,21.1667 95.5,19.5 Z"/></g>
<g><path style="opacity:1" fill="#c8c8c7" d="M 190.5,124.5 C 191.167,124.5 191.5,124.833 191.5,125.5C 178.852,165.31 151.852,188.477 110.5,195C 85.5038,197.553 62.8371,191.553 42.5,177C 41.2899,175.961 40.2899,174.794 39.5,173.5C 46.9596,178.736 54.9596,183.236 63.5,187C 74.6855,191.804 86.3522,193.971 98.5,193.5C 145.179,191.818 175.846,168.818 190.5,124.5 Z"/></g>
<g><path style="opacity:1" fill="#12667f" d="M 86.5,177.5 C 87.5,177.5 88.5,177.5 89.5,177.5C 90.209,178.404 91.209,178.737 92.5,178.5C 99.063,178.989 103.73,179.656 106.5,180.5C 106.824,183.694 105.658,184.694 103,183.5C 102.508,184.549 102.674,185.549 103.5,186.5C 102.833,187.167 102.167,187.833 101.5,188.5C 103.765,189.647 106.098,189.814 108.5,189C 111.029,187.318 113.696,185.818 116.5,184.5C 118.258,185.128 119.758,186.128 121,187.5C 122.292,186.209 123.458,186.209 124.5,187.5C 108.366,191.431 92.3661,191.431 76.5,187.5C 77.8734,187.657 79.2068,187.49 80.5,187C 78.5065,185.632 76.5065,185.132 74.5,185.5C 73.1667,184.5 73.1667,183.5 74.5,182.5C 77.716,179.68 80.5493,180.013 83,183.5C 85.9101,182.55 87.0768,180.55 86.5,177.5 Z"/></g>
</svg>
