<?xml version="1.0" encoding="utf-8"?>
<!-- Generator: Adobe Illustrator 27.2.0, SVG Export Plug-In . SVG Version: 6.00 Build 0)  -->
<svg version="1.1" xmlns="http://www.w3.org/2000/svg" xmlns:xlink="http://www.w3.org/1999/xlink" x="0px" y="0px"
	 viewBox="0 0 200 200" style="enable-background:new 0 0 200 200;" xml:space="preserve">
<style type="text/css">
	.st0{display:none;}
	.st1{display:inline;fill:#FCFCFC;}
	.st2{display:inline;}
	.st3{fill:#0D3857;}
	.st4{fill:#FCFCFC;}
</style>
<g id="logo_x5F_fondRond" class="st0">
	<circle class="st1" cx="-319.8" cy="98.6" r="100.5"/>
	<g class="st2">
		<path class="st3" d="M-352.3,135.7c-7.4,0-14-1.6-19.9-4.8c-5.8-3.2-10.4-7.6-13.7-13.2c-3.3-5.5-5-11.9-5-19
			c0-7,1.6-13.3,4.9-18.9c3.3-5.6,7.7-9.9,13.4-13.2c5.7-3.2,12-4.8,19-4.8c6.6,0,12.6,1.5,17.9,4.5c5.3,3,9.4,7.2,12.3,12.6
			c2.9,5.4,4.4,11.5,4.4,18.3c0,1.3,0,2.6-0.1,3.9c-0.1,1.3-0.3,2.8-0.7,4.3l-59.6,0.1V91.3l50.7-0.1l-7.9,6
			c-0.1-4.2-0.8-7.7-2.2-10.5c-1.4-2.8-3.3-5-5.7-6.4c-2.4-1.5-5.5-2.2-9.1-2.2c-3.8,0-7.1,0.8-10,2.5c-2.8,1.7-5,4-6.5,7.1
			c-1.5,3.1-2.3,6.7-2.3,10.9c0,4.3,0.8,8,2.4,11.2c1.6,3.2,3.9,5.6,7,7.2c3,1.7,6.5,2.5,10.5,2.5c3.6,0,6.9-0.6,9.8-1.8
			c2.9-1.2,5.5-3,7.6-5.6l11.4,11.4c-3.6,4.1-7.9,7.2-12.7,9.2C-341.3,134.7-346.6,135.7-352.3,135.7z"/>
		<path class="st3" d="M-303.2,132.7c-4.9-2-9.1-5.1-12.7-9.2l11.4-11.4c2.2,2.5,4.7,4.4,7.6,5.6c2.9,1.2,6.2,1.8,9.8,1.8
			c4,0,7.5-0.8,10.5-2.5c3-1.7,5.3-4.1,7-7.2c1.6-3.2,2.4-6.9,2.4-11.2c0-4.2-0.8-7.8-2.3-10.9c-1.5-3.1-3.7-5.4-6.5-7.1
			c-2.8-1.7-6.2-2.5-10-2.5c-3.6,0-6.6,0.7-9.1,2.2c-2.4,1.5-4.3,3.6-5.7,6.4c-1.4,2.8-2.1,6.3-2.2,10.5l-7.9-6l50.7,0.1v14.3
			l-59.6-0.1c-0.4-1.6-0.6-3-0.7-4.3c-0.1-1.3-0.1-2.6-0.1-3.9c0-6.8,1.5-12.9,4.4-18.3c2.9-5.4,7-9.5,12.3-12.6
			c5.3-3,11.2-4.5,17.9-4.5c7,0,13.4,1.6,19,4.8c5.7,3.2,10.1,7.6,13.4,13.2c3.3,5.6,4.9,11.8,4.9,18.9c0,7.1-1.7,13.4-5,19
			c-3.3,5.6-7.9,9.9-13.7,13.2c-5.8,3.2-12.4,4.8-19.9,4.8C-293,135.7-298.3,134.7-303.2,132.7z"/>
		<path class="st3" d="M-329.5,51v11l9.5,5.5l9.5-5.5V51l-9.5-5.5L-329.5,51z"/>
		<path class="st3" d="M-333.1,135.7h26.5c2,0,3.6,1.6,3.6,3.5c0,2-1.6,3.5-3.6,3.5h-26.5c-2,0-3.6-1.6-3.6-3.5
			C-336.6,137.3-335,135.7-333.1,135.7z"/>
		<path class="st3" d="M-325.9,145.2h12.2c2,0,3.6,1.6,3.6,3.5c0,2-1.6,3.5-3.6,3.5h-12.2c-2,0-3.6-1.6-3.6-3.5
			C-329.5,146.8-327.9,145.2-325.9,145.2z"/>
	</g>
</g>
<g id="logo_x5F_fondBleu">
	<rect x="-0.6" y="-1.5" class="st3" width="201" height="201"/>
	<g>
		<path class="st4" d="M67.3,135.7c-7.4,0-14-1.6-19.9-4.8c-5.8-3.2-10.4-7.6-13.7-13.2c-3.3-5.5-5-11.9-5-19c0-7,1.6-13.3,4.9-18.9
			c3.3-5.6,7.7-9.9,13.4-13.2c5.7-3.2,12-4.8,19-4.8c6.6,0,12.6,1.5,17.9,4.5c5.3,3,9.4,7.2,12.3,12.6c2.9,5.4,4.4,11.5,4.4,18.3
			c0,1.3,0,2.6-0.1,3.9c-0.1,1.3-0.3,2.8-0.7,4.3l-59.6,0.1V91.3l50.7-0.1l-7.9,6c-0.1-4.2-0.8-7.7-2.2-10.5s-3.3-5-5.7-6.4
			C72.6,78.7,69.6,78,66,78c-3.8,0-7.1,0.8-10,2.5c-2.8,1.7-5,4-6.5,7.1c-1.5,3.1-2.3,6.7-2.3,10.9c0,4.3,0.8,8,2.4,11.2
			c1.6,3.2,3.9,5.6,7,7.2c3,1.7,6.5,2.5,10.5,2.5c3.6,0,6.9-0.6,9.8-1.8c2.9-1.2,5.5-3,7.6-5.6L96,123.4c-3.6,4.1-7.9,7.2-12.7,9.2
			C78.4,134.7,73,135.7,67.3,135.7z"/>
		<path class="st4" d="M116.4,132.7c-4.9-2-9.1-5.1-12.7-9.2l11.4-11.4c2.2,2.5,4.7,4.4,7.6,5.6c2.9,1.2,6.2,1.8,9.8,1.8
			c4,0,7.5-0.8,10.5-2.5c3-1.7,5.3-4.1,7-7.2c1.6-3.2,2.4-6.9,2.4-11.2c0-4.2-0.8-7.8-2.3-10.9c-1.5-3.1-3.7-5.4-6.5-7.1
			c-2.8-1.7-6.2-2.5-10-2.5c-3.6,0-6.6,0.7-9.1,2.2c-2.4,1.5-4.3,3.6-5.7,6.4c-1.4,2.8-2.1,6.3-2.2,10.5l-7.9-6l50.7,0.1v14.3
			l-59.6-0.1c-0.4-1.6-0.6-3-0.7-4.3c-0.1-1.3-0.1-2.6-0.1-3.9c0-6.8,1.5-12.9,4.4-18.3c2.9-5.4,7-9.5,12.3-12.6
			c5.3-3,11.2-4.5,17.9-4.5c7,0,13.4,1.6,19,4.8c5.7,3.2,10.1,7.6,13.4,13.2c3.3,5.6,4.9,11.8,4.9,18.9c0,7.1-1.7,13.4-5,19
			c-3.3,5.6-7.9,9.9-13.7,13.2c-5.8,3.2-12.4,4.8-19.9,4.8C126.7,135.7,121.3,134.7,116.4,132.7z"/>
		<path class="st4" d="M90.2,51v11l9.5,5.5l9.5-5.5V51l-9.5-5.5L90.2,51z"/>
		<path class="st4" d="M86.6,135.7h26.5c2,0,3.6,1.6,3.6,3.5c0,2-1.6,3.5-3.6,3.5H86.6c-2,0-3.6-1.6-3.6-3.5
			C83,137.3,84.6,135.7,86.6,135.7z"/>
		<path class="st4" d="M93.7,145.2h12.2c2,0,3.6,1.6,3.6,3.5c0,2-1.6,3.5-3.6,3.5H93.7c-2,0-3.6-1.6-3.6-3.5
			C90.2,146.8,91.7,145.2,93.7,145.2z"/>
	</g>
</g>
<g id="logo_x5F_fondBlanc" class="st0">
	<rect x="-211.2" y="-1.5" class="st1" width="201" height="201"/>
	<g class="st2">
		<path class="st3" d="M-143.3,135.7c-7.4,0-14-1.6-19.9-4.8c-5.8-3.2-10.4-7.6-13.7-13.2c-3.3-5.5-5-11.9-5-19
			c0-7,1.6-13.3,4.9-18.9c3.3-5.6,7.7-9.9,13.4-13.2c5.7-3.2,12-4.8,19-4.8c6.6,0,12.6,1.5,17.9,4.5c5.3,3,9.4,7.2,12.3,12.6
			c2.9,5.4,4.4,11.5,4.4,18.3c0,1.3,0,2.6-0.1,3.9c-0.1,1.3-0.3,2.8-0.7,4.3l-59.6,0.1V91.3l50.7-0.1l-7.9,6
			c-0.1-4.2-0.8-7.7-2.2-10.5c-1.4-2.8-3.3-5-5.7-6.4c-2.4-1.5-5.5-2.2-9.1-2.2c-3.8,0-7.1,0.8-10,2.5c-2.8,1.7-5,4-6.5,7.1
			c-1.5,3.1-2.3,6.7-2.3,10.9c0,4.3,0.8,8,2.4,11.2c1.6,3.2,3.9,5.6,7,7.2c3,1.7,6.5,2.5,10.5,2.5c3.6,0,6.9-0.6,9.8-1.8
			c2.9-1.2,5.5-3,7.6-5.6l11.4,11.4c-3.6,4.1-7.9,7.2-12.7,9.2C-132.2,134.7-137.5,135.7-143.3,135.7z"/>
		<path class="st3" d="M-94.1,132.7c-4.9-2-9.1-5.1-12.7-9.2l11.4-11.4c2.2,2.5,4.7,4.4,7.6,5.6c2.9,1.2,6.2,1.8,9.8,1.8
			c4,0,7.5-0.8,10.5-2.5c3-1.7,5.3-4.1,7-7.2c1.6-3.2,2.4-6.9,2.4-11.2c0-4.2-0.8-7.8-2.3-10.9c-1.5-3.1-3.7-5.4-6.5-7.1
			c-2.8-1.7-6.2-2.5-10-2.5c-3.6,0-6.6,0.7-9.1,2.2c-2.4,1.5-4.3,3.6-5.7,6.4c-1.4,2.8-2.1,6.3-2.2,10.5l-7.9-6l50.7,0.1v14.3
			l-59.6-0.1c-0.4-1.6-0.6-3-0.7-4.3c-0.1-1.3-0.1-2.6-0.1-3.9c0-6.8,1.5-12.9,4.4-18.3c2.9-5.4,7-9.5,12.3-12.6
			c5.3-3,11.2-4.5,17.9-4.5c7,0,13.4,1.6,19,4.8c5.7,3.2,10.1,7.6,13.4,13.2c3.3,5.6,4.9,11.8,4.9,18.9c0,7.1-1.7,13.4-5,19
			c-3.3,5.6-7.9,9.9-13.7,13.2c-5.8,3.2-12.4,4.8-19.9,4.8C-83.9,135.7-89.2,134.7-94.1,132.7z"/>
		<path class="st3" d="M-120.4,51v11l9.5,5.5l9.5-5.5V51l-9.5-5.5L-120.4,51z"/>
		<path class="st3" d="M-124,135.7h26.5c2,0,3.6,1.6,3.6,3.5c0,2-1.6,3.5-3.6,3.5H-124c-2,0-3.6-1.6-3.6-3.5
			C-127.6,137.3-126,135.7-124,135.7z"/>
		<path class="st3" d="M-116.9,145.2h12.2c2,0,3.6,1.6,3.6,3.5c0,2-1.6,3.5-3.6,3.5h-12.2c-2,0-3.6-1.6-3.6-3.5
			C-120.4,146.8-118.8,145.2-116.9,145.2z"/>
	</g>
</g>
</svg>
