<?xml version="1.0" encoding="utf-8"?>
<!-- Generator: Adobe Illustrator 27.7.0, SVG Export Plug-In . SVG Version: 6.00 Build 0)  -->
<svg version="1.1" id="Calque_1" xmlns="http://www.w3.org/2000/svg" xmlns:xlink="http://www.w3.org/1999/xlink" x="0px" y="0px"
	 viewBox="0 0 156 156" style="enable-background:new 0 0 156 156;" xml:space="preserve">
<style type="text/css">
	.st0{fill:#F2BF5D;}
	.st1{fill:#0D3857;}
</style>
<path class="st0" d="M42.6,119.5c-8.1,0-15.3-1.7-21.6-5.2S9.7,106,6.1,100c-3.6-6-5.4-12.9-5.4-20.6c0-7.6,1.8-14.5,5.3-20.5
	c3.6-6,8.4-10.8,14.6-14.3c6.2-3.5,13.1-5.2,20.7-5.2c7.2,0,13.7,1.6,19.4,4.9c5.7,3.3,10.2,7.8,13.4,13.7
	c3.2,5.8,4.8,12.4,4.8,19.9c0,1.4-0.1,2.8-0.2,4.2c-0.1,1.4-0.4,3-0.8,4.7l-64.8,0.2V71.2l55.1-0.2l-8.6,6.5
	c-0.1-4.6-0.9-8.4-2.4-11.4c-1.5-3.1-3.6-5.4-6.2-7c-2.7-1.6-5.9-2.4-9.9-2.4c-4.1,0-7.8,0.9-10.8,2.7c-3.1,1.8-5.4,4.4-7.1,7.7
	c-1.6,3.3-2.5,7.3-2.5,11.8c0,4.7,0.9,8.7,2.6,12.1c1.8,3.4,4.3,6.1,7.6,7.9c3.3,1.8,7.1,2.7,11.5,2.7c3.9,0,7.5-0.6,10.7-1.9
	c3.2-1.3,5.9-3.3,8.3-6l12.4,12.4c-3.9,4.4-8.5,7.8-13.9,10C54.7,118.4,48.9,119.5,42.6,119.5z"/>
<path class="st0" d="M96,116.2c-5.3-2.2-9.9-5.6-13.9-10l12.4-12.4c2.3,2.8,5.1,4.8,8.3,6c3.2,1.3,6.7,1.9,10.7,1.9
	c4.4,0,8.2-0.9,11.5-2.7c3.3-1.8,5.8-4.4,7.6-7.9c1.8-3.4,2.6-7.5,2.6-12.2c0-4.6-0.8-8.5-2.5-11.8c-1.6-3.3-4-5.9-7.1-7.7
	c-3.1-1.8-6.7-2.7-10.8-2.7c-3.9,0-7.2,0.8-9.9,2.4c-2.7,1.6-4.7,3.9-6.2,7c-1.5,3.1-2.3,6.9-2.4,11.4l-8.6-6.5l55.1,0.2v15.6
	L78,86.7c-0.4-1.7-0.7-3.3-0.8-4.7s-0.2-2.8-0.2-4.2c0-7.4,1.6-14,4.8-19.9c3.2-5.8,7.6-10.4,13.4-13.7c5.7-3.3,12.2-4.9,19.4-4.9
	c7.6,0,14.5,1.7,20.7,5.2c6.2,3.5,11,8.3,14.6,14.3c3.6,6,5.3,12.9,5.3,20.5c0,7.7-1.8,14.6-5.4,20.6c-3.6,6-8.6,10.8-14.9,14.3
	s-13.5,5.2-21.6,5.2C107.1,119.5,101.4,118.4,96,116.2z"/>
<path class="st1" d="M67.5,27.4v11.9l10.3,6l10.4-6V27.4l-10.4-6L67.5,27.4z"/>
<path class="st1" d="M63.6,119.5h28.8c2.1,0,3.9,1.7,3.9,3.9c0,2.1-1.7,3.9-3.9,3.9H63.6c-2.1,0-3.9-1.7-3.9-3.9
	C59.7,121.3,61.4,119.5,63.6,119.5z"/>
<path class="st1" d="M71.3,129.8h13.2c2.1,0,3.9,1.7,3.9,3.9c0,2.1-1.7,3.9-3.9,3.9H71.3c-2.1,0-3.9-1.7-3.9-3.9
	C67.5,131.6,69.2,129.8,71.3,129.8z"/>
</svg>
