<svg width="229" height="230" viewBox="0 0 229 230" fill="none" xmlns="http://www.w3.org/2000/svg">
<ellipse cx="114.45" cy="114.795" rx="114.45" ry="114.5" fill="#173234"/>
<path d="M153.377 106.631V143.515C143.061 153.856 137.902 159.027 127.585 169.368H101.794C91.477 159.027 86.3187 153.856 76.002 143.515V106.631H99.2145V148.685H130.165V106.631H153.377Z" fill="#C3F458"/>
<path d="M114.689 103.27C126.796 103.27 136.612 93.4311 136.612 81.2945C136.612 69.158 126.796 59.3193 114.689 59.3193C102.581 59.3193 92.7656 69.158 92.7656 81.2945C92.7656 93.4311 102.581 103.27 114.689 103.27Z" fill="#C3F458"/>
<rect x="138.73" y="151.092" width="51.9309" height="51.9538" rx="25.9655" fill="#F9BE06"/>
<path d="M164.697 162.781C161.117 162.781 158.205 165.695 158.205 169.275V173.172H156.907C155.475 173.172 154.311 174.337 154.311 175.77V186.16C154.311 187.593 155.475 188.758 156.907 188.758H172.486C173.918 188.758 175.083 187.593 175.083 186.16V175.77C175.083 174.337 173.918 173.172 172.486 173.172H171.188V169.275C171.188 165.695 168.276 162.781 164.697 162.781ZM160.802 173.172V169.275C160.802 167.127 162.549 165.379 164.697 165.379C166.844 165.379 168.592 167.127 168.592 169.275V173.172H160.802Z" fill="#173234"/>
</svg>
