<?xml version="1.0" standalone="no"?>
<!DOCTYPE svg PUBLIC "-//W3C//DTD SVG 20010904//EN"
 "http://www.w3.org/TR/2001/REC-SVG-20010904/DTD/svg10.dtd">
<svg version="1.0" xmlns="http://www.w3.org/2000/svg"
 width="150.000000pt" height="150.000000pt" viewBox="0 0 150.000000 150.000000"
 preserveAspectRatio="xMidYMid meet">

<g transform="translate(0.000000,150.000000) scale(0.100000,-0.100000)"
fill="#000000" stroke="none">
<path d="M556 1274 c-9 -24 -7 -31 4 -14 8 12 10 11 10 -7 0 -13 8 -24 20 -28
11 -3 20 -11 20 -16 0 -5 5 -8 12 -6 6 1 14 -6 16 -16 5 -23 -20 -18 -30 6
-11 26 -26 20 -20 -9 4 -24 7 -26 45 -20 54 9 123 86 76 86 -5 0 -9 -6 -9 -13
0 -7 -10 -18 -21 -26 -20 -12 -21 -11 -16 9 7 28 -20 55 -65 64 -28 5 -37 3
-42 -10z"/>
<path d="M549 1214 c4 -16 6 -35 3 -43 -3 -9 0 -11 8 -6 12 8 6 53 -11 69 -5
6 -5 -2 0 -20z"/>
<path d="M720 1190 c11 -21 35 -27 44 -11 3 4 -6 13 -20 20 -34 15 -36 14 -24
-9z"/>
<path d="M635 1120 c-3 -5 -1 -10 6 -10 7 0 2 -11 -11 -25 -13 -14 -18 -25
-12 -25 7 0 12 3 12 8 0 4 12 15 27 23 26 16 26 17 5 28 -14 7 -23 8 -27 1z"/>
<path d="M516 1111 c-3 -5 0 -11 7 -14 8 -3 14 1 14 9 0 16 -13 19 -21 5z"/>
<path d="M490 1028 c0 -16 5 -28 10 -28 13 0 13 20 0 40 -8 12 -10 9 -10 -12z"/>
<path d="M549 1033 c0 -11 -3 -13 -6 -5 -10 24 -18 11 -21 -34 -2 -41 -1 -45
18 -39 15 5 19 3 14 -10 -4 -9 -13 -14 -20 -11 -16 6 -19 -10 -4 -19 8 -5 7
-11 -1 -21 -9 -11 -7 -14 15 -14 14 0 26 -4 26 -9 0 -5 -10 -7 -21 -4 -19 5
-20 3 -13 -18 4 -13 8 -34 7 -46 -1 -18 5 -23 24 -23 24 0 24 -2 22 -68 -3
-61 1 -76 31 -138 19 -38 36 -71 37 -73 1 -2 18 9 37 25 19 16 60 47 91 69 68
48 88 82 79 130 -9 52 -24 53 -24 1 0 -28 -4 -46 -12 -46 -6 0 -9 -3 -5 -6 6
-7 -3 -17 -37 -44 -16 -12 -18 -12 -11 -1 7 12 -2 13 -56 8 -35 -4 -74 -9 -86
-13 -20 -6 -22 -2 -25 71 -2 60 0 80 12 89 8 6 24 21 34 34 18 20 18 22 2 22
-10 0 -20 -9 -23 -20 -7 -25 -30 -26 -37 -2 -4 10 -5 56 -4 103 2 83 -5 115
-23 104 -5 -3 -6 1 -3 9 3 9 1 16 -5 16 -6 0 -11 -8 -12 -17z m25 -59 c3 -8 2
-12 -4 -9 -6 3 -10 10 -10 16 0 14 7 11 14 -7z"/>
<path d="M633 980 c11 -40 16 -45 42 -47 17 -1 22 1 12 4 -18 4 -18 6 -1 24
16 17 16 19 1 19 -10 0 -17 5 -17 11 0 6 -6 9 -12 6 -7 -2 -18 3 -25 12 -10
12 -10 6 0 -29z"/>
<path d="M654 888 c-4 -15 1 -27 22 -44 32 -26 62 -39 71 -30 9 9 -40 46 -54
41 -19 -6 -16 6 6 29 20 21 20 21 -9 23 -22 2 -31 -3 -36 -19z m36 2 c0 -5 -5
-10 -11 -10 -5 0 -7 5 -4 10 3 6 8 10 11 10 2 0 4 -4 4 -10z"/>
<path d="M716 791 c-4 -7 -5 -15 -2 -18 9 -9 19 4 14 18 -4 11 -6 11 -12 0z"/>
<path d="M420 726 c0 -14 5 -26 10 -26 6 0 10 9 10 19 0 11 -4 23 -10 26 -6 4
-10 -5 -10 -19z"/>
<path d="M532 730 c0 -14 2 -19 5 -12 2 6 2 18 0 25 -3 6 -5 1 -5 -13z"/>
<path d="M328 731 c-1 -6 -18 -11 -36 -13 -36 -3 -47 -12 -37 -29 5 -7 13 -5
25 6 12 11 26 14 39 10 14 -4 21 -2 21 7 0 10 3 9 10 -2 5 -8 10 -10 10 -4 0
16 -27 37 -32 25z"/>
<path d="M650 715 c-7 -8 -9 -15 -6 -15 4 0 14 7 22 15 9 8 11 15 6 15 -5 0
-15 -7 -22 -15z"/>
<path d="M460 700 c0 -5 5 -10 10 -10 6 0 10 5 10 10 0 6 -4 10 -10 10 -5 0
-10 -4 -10 -10z"/>
<path d="M365 690 c-3 -5 -1 -18 4 -27 9 -16 10 -14 11 10 0 28 -5 34 -15 17z"/>
<path d="M490 666 c0 -9 5 -16 10 -16 6 0 10 4 10 9 0 6 -4 13 -10 16 -5 3
-10 -1 -10 -9z"/>
<path d="M411 654 c0 -11 3 -14 6 -6 3 7 2 16 -1 19 -3 4 -6 -2 -5 -13z"/>
<path d="M300 645 c0 -25 -53 -87 -62 -72 -4 6 -10 8 -14 4 -4 -4 -1 -14 7
-23 14 -13 19 -11 44 26 15 22 31 40 36 40 4 0 10 -13 14 -30 5 -23 0 -37 -21
-66 -17 -22 -28 -49 -28 -69 0 -26 -3 -31 -18 -27 -17 4 -24 -8 -12 -21 14
-13 46 15 41 35 -7 26 22 88 41 88 10 0 13 -11 11 -44 -3 -34 -1 -42 10 -38
11 4 12 22 7 86 -6 68 -11 85 -31 104 -20 18 -25 20 -25 7z"/>
<path d="M1090 626 c0 -9 5 -16 10 -16 6 0 10 4 10 9 0 6 -4 13 -10 16 -5 3
-10 -1 -10 -9z"/>
<path d="M1160 611 c0 -5 7 -11 14 -14 10 -4 13 -1 9 9 -6 15 -23 19 -23 5z"/>
<path d="M1218 523 c7 -3 16 -2 19 1 4 3 -2 6 -13 5 -11 0 -14 -3 -6 -6z"/>
<path d="M710 480 c-8 -5 -22 -7 -32 -4 -21 6 -33 -13 -19 -30 7 -9 7 -16 -1
-24 -16 -16 -2 -42 24 -42 25 0 114 38 107 45 -3 2 -24 -1 -48 -6 -45 -10 -70
-1 -57 20 11 17 26 13 20 -4 -4 -8 -1 -15 6 -15 6 0 10 8 8 18 -2 11 3 26 11
35 15 19 5 22 -19 7z"/>
<path d="M1258 478 c5 -7 8 -31 6 -54 -4 -30 0 -46 16 -64 25 -29 25 -34 -1
-20 -11 7 -23 10 -25 7 -3 -2 -9 -33 -15 -68 -7 -35 -17 -71 -25 -79 -20 -23
-43 -84 -46 -119 -1 -17 -8 -31 -15 -31 -7 0 -10 -7 -7 -15 4 -8 1 -15 -5 -15
-6 0 -11 -4 -11 -10 0 -6 65 -10 175 -10 l175 0 0 33 c0 42 -24 158 -39 186
-7 12 -16 19 -21 16 -6 -3 -7 0 -4 8 3 8 -5 21 -18 29 -36 24 -85 73 -65 65 9
-3 17 -2 17 3 0 6 -12 10 -27 10 -27 1 -27 1 -9 15 18 13 18 16 4 32 -9 10
-23 35 -31 56 -9 20 -21 37 -28 37 -8 0 -8 -4 -1 -12z"/>
<path d="M915 459 c-4 -6 -5 -12 -2 -15 2 -3 7 2 10 11 7 17 1 20 -8 4z"/>
<path d="M196 438 c-11 -36 -13 -58 -5 -58 5 0 9 -12 9 -26 0 -27 28 -94 39
-94 3 0 15 7 26 16 12 9 30 12 45 9 31 -7 66 25 56 50 -5 13 -10 14 -27 5 -16
-9 -24 -8 -37 3 -9 8 -25 17 -34 20 -10 4 -18 11 -18 18 0 19 -50 72 -54 57z"/>
<path d="M300 413 c0 -7 7 -16 16 -20 11 -4 12 -8 4 -13 -8 -5 -4 -9 9 -13 17
-4 21 -1 21 16 0 12 -4 27 -8 33 -10 16 -42 13 -42 -3z"/>
<path d="M893 405 c-3 -9 -3 -18 -1 -21 3 -3 8 4 11 16 6 23 -1 27 -10 5z"/>
<path d="M730 359 c0 -16 -3 -19 -12 -11 -15 12 -70 4 -62 -9 3 -5 16 -9 30
-9 13 0 24 -5 24 -10 0 -6 12 -3 26 7 27 17 27 17 15 -5 -17 -31 -2 -27 44 13
27 24 35 35 23 35 -9 0 -20 -4 -23 -10 -9 -15 -31 -12 -49 6 -15 14 -16 13
-16 -7z"/>
<path d="M830 311 c-7 -11 -18 -19 -24 -18 -5 1 -12 -7 -14 -18 -4 -19 -4 -19
15 -2 11 9 25 17 31 17 7 0 12 2 12 4 0 2 3 11 6 20 9 22 -9 20 -26 -3z"/>
<path d="M494 293 l-31 -4 -6 -115 c-3 -63 -10 -120 -15 -127 -5 -7 -12 -20
-15 -30 -11 -30 36 -21 55 11 16 28 47 161 45 197 0 11 2 32 6 48 4 15 4 26 0
25 -5 0 -22 -3 -39 -5z"/>
<path d="M565 138 c-2 -7 -6 -31 -10 -53 -3 -22 -9 -50 -12 -62 l-5 -23 196 0
c163 0 196 2 196 14 0 8 -9 17 -19 21 -20 6 -48 65 -31 65 5 0 -1 11 -14 25
-31 33 -36 32 -36 -10 0 -19 -5 -35 -11 -35 -6 0 -9 -6 -6 -12 5 -16 -47 -39
-68 -32 -8 4 -12 10 -9 15 3 5 -8 6 -24 3 -21 -4 -40 1 -71 20 -22 15 -41 31
-41 36 0 5 -7 7 -16 3 -13 -5 -15 -2 -9 15 3 12 4 22 0 22 -3 0 -7 -6 -10 -12z"/>
<path d="M768 63 c6 -2 18 -2 25 0 6 3 1 5 -13 5 -14 0 -19 -2 -12 -5z"/>
</g>
</svg>
