<svg fill="none" height="200" viewBox="0 0 200 200" width="200" xmlns="http://www.w3.org/2000/svg" xmlns:xlink="http://www.w3.org/1999/xlink"><radialGradient id="a" cx="0" cy="0" gradientTransform="matrix(0 100 -100 0 100 101)" gradientUnits="userSpaceOnUse" r="1"><stop offset="0" stop-color="#4fd1c5"/><stop offset="1" stop-color="#667eea"/></radialGradient><radialGradient id="b" cx="0" cy="0" gradientTransform="matrix(0 75.7576 -74.9405 0 99.9405 100.758)" gradientUnits="userSpaceOnUse" r="1"><stop offset="0" stop-color="#05ffe8"/><stop offset="1" stop-color="#667eea"/></radialGradient><clipPath id="c"><path d="m0 0h200v200h-200z"/></clipPath><clipPath id="d"><path d="m60 55h79.9365v92.9293h-79.9365z"/></clipPath><clipPath id="e"><path d="m82.9819 68.1313h1v1.0101h-1z"/></clipPath><g clip-path="url(#c)"><circle cx="100" cy="101" fill="url(#a)" r="100"/><g fill="#fff" fill-opacity=".32"><path d="m29.6113 169.29.2951-.386c.042.032 4.3102 3.237 15.9123.33 10.732-2.69 30.0916-11.303 61.3723-37.068 2.692-2.217 5.462-4.554 8.235-6.944l.624.633c-2.775 2.393-5.549 4.732-8.244 6.952-31.4342 25.891-51.2052 34.256-61.993 36.933-11.7753 2.921-16.0265-.311-16.2017-.45z"/><path d="m11.643 142.33c-.0682-.115-1.6254-2.899 2.2903-9.732 3.5802-6.247 12.657-17.244 35.5705-34.1596 15.6409-11.5468 34.3958-23.2424 52.8112-32.9327l.452.5337c-18.402 9.6833-37.1438 21.3702-52.7726 32.908-43.69786 32.2596-38.1564 43.1156-38.0922 43.2246z"/><path d="m2.64688 104.298c-.0101-.066-.95843-6.7183 2.29595-16.6789 2.99762-9.1771 10.27867-23.1376 27.94107-37.5304 14.487-11.8057 35.5309-21.1212 57.7351-25.5568 7.7074-1.5394 15.422-2.4626 22.928-2.744 11.83-.4437 22.958.6964 33.077 3.3878l-.102.3977c-10.081-2.6816-21.425-3.4987-33.215-3.0567-7.486.2807-15.1788 1.2014-22.8656 2.7367-22.1424 4.4236-42.8674 13.3899-57.3056 25.1561-17.5723 14.3197-24.81707 28.1932-27.80096 37.3107-3.23137 9.8747-2.29878 16.4508-2.28909 16.5158z"/><path d="m66.6289 193.583.1772-.37c.0856.043 8.7502 4.25 22.7957 2.795 12.9692-1.342 33.3092-7.923 56.5602-31.648 23.932-24.423 33.03-51.164 36.447-69.2971 3.969-21.0543 2.201-41.3628-4.615-53.0005l.347-.2103c6.864 11.7206 8.651 32.1393 4.665 53.288-3.428 18.1889-12.241 45.2729-36.246 69.7689-23.347 23.825-44.106 30.168-57.1469 31.511-14.1508 1.457-22.8978-2.794-22.9842-2.837z"/><path d="m150.886 136.972c-2.123-1.763-3.955-3.39-5.36-4.677l.577-.682c6.828 6.255 23.862 20.632 34.577 19.069 2.698-.393 4.808-1.814 6.27-4.224l.41.258c-1.542 2.539-3.766 4.036-6.612 4.451-8.687 1.267-21.592-7.327-29.862-14.195z"/><path d="m111.329 92.4699c-10.807-15.173-19.5146-30.3197-25.8821-45.0194-9.5354-22.0165-8.6363-33.7396-6.4171-39.4302 1.6831-4.31635 4.2754-5.4733 4.3852-5.52054l.1878.45111c-.0255.01068-2.5362 1.14544-4.139 5.2839-2.1712 5.60683-2.7752 16.87183 6.6792 38.69973 6.3529 14.6684 15.044 29.7847 25.831 44.9294z"/><path d="m98.68 172.14c-4.0957-3.402-7.9634-6.94-11.4774-10.287-6.925-6.595-18.437-18.969-29.2607-34.813-8.8282-12.921-20.2462-32.95-25.7246-53.473-5.1765-19.3916-4.2726-30.8813-2.6028-37.1052 1.8216-6.7905 4.849-8.936 4.977-9.0243l.2265.3402c-.0303.0213-3.0533 2.1783-4.8293 8.8484-1.6431 6.1726-2.5232 17.5736 2.6181 36.8336 10.523 39.4183 43.177 76.9553 54.872 88.0943 16.0792 15.315 39.6012 34.686 58.1432 26.147l.166.374c-14.682 6.762-32.366-3.692-47.108-15.935z"/><path d="m54.0621 182.521c-1.807-1.5-3.4098-2.937-4.7295-4.218l-.2403-.233c-7.3097-7.095-22.5198-21.857-35.6076-50.629-13.124951-28.8514-8.35783-48.8317-8.30817-49.0301l.2935.0756c-.04965.1976-4.786498 20.0809 8.28917 48.8255 13.064 28.718 28.2458 43.454 35.5419 50.534l.2406.234c7.0792 6.872 22.3612 18.273 33.2346 19.612l-.0368.306c-8.9137-1.098-20.7515-8.894-28.6774-15.477z"/><path d="m82.4858 198.014.0521-.11c.9043.44 9.7934 2.732 17.9291-.901 5.863-2.618 9.952-7.643 12.151-14.936 5.783-19.174-1.504-47.27-19.4918-75.157-7.6844-11.9129-18.4984-23.8262-29.6729-32.6968-8.7842-6.97-21.8502-15.3024-34.2129-15.4178-10.8439-.1019-16.7414 5.2876-19.7794 9.8266-3.29273 4.9195-4.02952 9.9252-4.03679 9.9754l-.24062-.0941c.00687-.0502.87042-5.0078 4.1785-9.9503 1.94351-2.9039 4.37991-5.2096 7.24111-6.8525 3.5758-2.0539 7.8277-3.0724 12.6384-3.0276 5.0611.0477 10.7119 1.5087 16.7964 4.3431 5.6238 2.6204 11.508 6.3554 17.4887 11.1015 11.1847 8.8722 22.0084 20.802 29.6997 32.7255 8.0976 12.553 14.2806 25.691 17.8806 37.992 4.204 14.366 4.751 26.905 1.626 37.268-2.21 7.328-6.321 12.379-12.217 15.012-8.1766 3.651-17.1198 1.342-18.0302.899z"/><path d="m46.7622 111.079c-9.1596-7.607-17.3321-10.019-21.5473-9.774-7.3986.432-15.1504 2.992-16.55334 18.718-.74325 8.335 2.27654 17.738 4.94074 24.158 2.8878 6.96 5.9916 12.013 6.0227 12.063 5.0198 6.662 10.0171 12.078 14.8496 16.091 10.8084 8.976 19.0459 9.475 24.0528 8.312 6.1458-1.427 10.0994-5.789 11.6182-9.09 3.2431-7.053 3.5281-25.475-9.5152-44.885-4.1127-6.12-8.7789-11.367-13.8682-15.593zm-12.2396 61.673c-4.8394-4.02-9.9085-9.355-14.9372-16.03-.2002-.026-3.3081-5.228-6.1995-12.196-2.6698-6.434-5.76432-15.761-5.01865-24.12.65241-7.316 2.88535-12.73 6.46675-15.743 3.2536-2.738 7.2529-3.297 10.374-3.479 4.237-.248 12.4439 2.171 21.6301 9.8 5.0982 4.234 9.772 9.489 13.8912 15.619 13.0712 19.452 12.7793 37.928 9.5245 45.005-1.5297 3.327-5.512 7.721-11.6998 9.158-3.323.772-6.8616.661-10.5835-.47-4.3444-1.32-8.8087-3.692-13.4479-7.544z"/><path d="m145.667 188.209-.105-.353c17.871-8.23 10.806-36.647 7.384-50.42-.129-.519-.253-1.017-.369-1.491-1.565-6.357-9.266-24.244-21.487-44.1064-10.388-16.8846-27.073-40.0773-47.5585-54.6862-9.2153-6.5711-17.6046-11.0719-24.9358-13.3772-5.7328-1.8023-10.9771-2.3451-15.2525-1.4601-6.1644 1.2761-8.4737 4.9261-8.4963 4.9634l-.2693-.1947c.023-.0378 2.3792-3.7806 8.5928-5.069 4.2948-.8907 9.7022-.1656 15.4552 1.6421 7.3441 2.3086 15.7467 6.8156 24.9741 13.3957 20.5033 14.6179 37.1973 37.8271 47.5923 54.7215 12.228 19.8729 19.934 37.7759 21.501 44.1409.117.475.24.972.369 1.492 3.43 13.804 10.567 42.53-7.395 50.802z"/><path d="m186.69 147.12c5.046-10.558.935-25.181-3.023-35.218-1.871-4.743-19.326-47.3836-55.727-83.6425-17.815-17.7457-28.6242-23.42317-34.8169-25.27855-6.6989-2.00699-9.2214.20049-9.2468.22309l-.3924-.35045c.025-.0226 2.5818-2.2724 9.3324-.25761 3.9524 1.17913 8.5547 3.56739 13.6797 7.0978 6.403 4.41042 13.646 10.62742 21.528 18.47822 14.678 14.6204 27.95 31.8702 39.449 51.2692 9.761 16.4667 14.948 28.9738 16.305 32.4158 3.967 10.058 8.4 24.975 3.333 35.576z"/><path d="m29.6929 169.225c-6.7227-8.028 3.8515-28.99 29.0113-57.511 26.2898-29.8003 61.2268-54.8008 76.0268-63.8567 14.781-9.0448 28.679-14.1992 36.269-13.4515 2.681.2642 4.681 1.2017 5.942 2.7859 1.692 2.1258 1.429 4.7005 1.426 4.7264l-.263.088c.003-.0251.404-2.6537-1.257-4.7392-1.24-1.5558-3.212-2.479-5.86-2.7399-3.821-.3763-9.35.7613-15.99 3.2897-6.276 2.3894-13.263 5.8977-20.205 10.145-14.795 9.053-49.7194 34.0444-75.9996 63.8343-12.9444 14.673-21.9934 27.226-26.8966 37.31-4.5402 9.339-5.0154 15.95-1.8571 19.721z"/><path d="m53.614 186.552c-4.56-3.787-8.4506-8.884-11.5904-14.822-4.4938-8.496-7.2023-18.856-7.8329-29.961-.69-12.149 1.0157-24.966 5.0695-38.095 11.6723-37.804 37.0271-61.0386 51.1016-71.5238 2.5632-1.9097 5.0865-3.6496 7.4995-5.1718 6.4167-4.0476 18.4807-9.302 31.3597-10.7888l-.026.2218c-12.859 1.4848-24.864 6.6299-31.2707 10.6705-2.4106 1.5206-4.9311 3.2589-7.4914 5.1664-14.0628 10.4766-39.3962 33.6911-51.0585 71.4627-7.7748 25.18-6.7707 49.951 2.7542 67.962 5.8443 11.05 14.5824 18.746 24.6055 21.666l-.0888.356c-4.6662-1.36-9.0821-3.864-13.0313-7.143z"/><path d="m20.7033 136.495c-10.80924-8.976-17.00351-20.878-18.18035-35.891l.24264-.248c1.24668 15.9 7.99891 28.566 20.05921 37.663 23.4569 17.679 60.4332 17.581 87.2152 11.593 21.565-4.821 42.099-15.218 57.817-29.278 15.744-14.081 24.428-29.8553 24.455-44.4162.021-11.8418-3.752-20.4515-6.921-25.5883-3.433-5.5641-6.913-8.3599-6.948-8.3908l.074-.0957c.032.0243 3.531 2.8377 6.975 8.4216 3.178 5.1507 6.961 13.7822 6.939 25.6536-.013 7.3768-2.243 15.0777-6.629 22.8883-4.22 7.5165-10.231 14.7905-17.866 21.6195-7.624 6.819-16.442 12.814-26.209 17.82-10.121 5.187-20.774 9.052-31.661 11.485-15.3246 3.426-31.8178 4.448-46.4421 2.878-7.965-.855-15.395-2.455-22.0839-4.757-7.1656-2.465-13.4862-5.74-18.7863-9.735-.7012-.528-1.3851-1.069-2.0504-1.622z"/><path d="m43.9599 154.866c-3.9234-3.258-7.6542-6.824-11.1205-10.654-14.7346-16.28-22.95711-35.427-23.15291-53.9141-.0969-9.106 1.01611-17.9499 3.30811-26.2852 1.8333-6.6684 4.4211-13.0283 7.6916-18.9031 5.5689-10.0041 11.2646-15.1992 11.3219-15.2506l.0796.0916c-.0569.051-5.7409 5.2359-11.3001 15.224-5.1305 9.2177-11.20003 24.5284-10.98161 45.1221.42711 40.2193 37.55081 75.9233 71.95621 84.0373 34.4288 8.12 61.0498 3.453 86.3168-15.13 25.531-18.777 36.398-52.626 27.685-86.2336l.116-.0312c4.338 16.7301 3.997 33.6798-.985 49.0158-4.936 15.195-14.184 28.109-26.745 37.348-12.821 9.428-25.798 15.2-39.671 17.645-13.929 2.454-29.2184 1.638-46.7435-2.496-12.986-3.062-26.2131-9.983-37.7756-19.586z"/><path d="m163.758 176.248-.079-.093c21.523-18.638 33.661-50.016 31.679-81.8884-1.015-16.3225-5.603-29.5123-9.274-37.703-3.977-8.8751-7.763-13.9552-7.8-14.0054l.095-.0743c.038.0505 3.83 5.1389 7.813 14.0255 3.675 8.2005 8.27 21.4063 9.286 37.749.97 15.6046-1.401 31.3926-6.858 45.6596-5.536 14.476-14.134 27.039-24.862 36.33z"/><path d="m3.58594 82.3422c8.47246-46.625 48.85166-80.83167 96.01336-81.3366 6.0707-.065322 12.2097.44084 18.2437 1.5037l-.051.30321c-6.017-1.05917-12.136-1.56369-18.1894-1.49877-47.0172.50329-87.2729 34.60436-95.71872 81.08436z"/><path d="m81.7339 197.826.0771-.403c12.6142 2.488 25.611 2.187 38.126-.268l-.178.721c-12.567 2.466-25.36 2.449-38.0251-.05z"/><path d="m184.417 152.487c6.45-10.371 10.886-21.783 13.185-33.92 2.263-11.951 2.344-24.0164.239-35.8611-1.39-7.827-3.735-15.4893-6.968-22.7745l.092-.0419c3.237 7.2926 5.584 14.9631 6.976 22.7979 2.106 11.8579 2.026 23.9356-.24 35.8986-2.302 12.15-6.742 23.574-13.198 33.956z"/><path d="m13.0737 143.698c-.4683-.389-.8979-.826-1.3266-1.306l.2543-.242c2.5608 2.864 4.7082 4.678 19.3927 2.684 14.6401-1.989 50.8263-16.455 83.7589-36.362 39.78-24.0456 57.386-42.8583 64.339-51.9319 3.223-4.2054 4.322-7.7999 3.393-10.4761-1.074-3.0921-4.711-3.7125-4.746-3.7207l.152-.2736c.036.0082 3.674.9026 4.77 4.0579.944 2.7182-.224 6.247-3.474 10.4877-6.959 9.0806-24.576 27.9056-64.373 51.9617-32.9452 19.914-69.152 34.388-83.8046 36.377-11.8508 1.61-15.7071.926-18.3357-1.256z"/><path d="m85.6795 2.15857.1384.46919c-.0504.01561-5.0913 1.69762-9.487 13.00414-4.0662 10.4593-8.3881 31.5066-5.885 72.3801.2156 3.5177.4808 7.1697.7881 10.8538l-.8688.1508c-.3077-3.6886-.5729-7.3439-.7885-10.8653-2.516-41.0748 2.2435-62.3193 6.3525-72.8169 4.4854-11.45849 9.5371-13.11133 9.7503-13.17583z"/><path d="m117.682 2.88184c.131.01027 3.264.33278 6.466 7.54026 2.927 6.5888 6.473 20.4898 6.74 49.2959.181 19.6635-1.322 41.996-4.235 62.884l-.69.065c2.911-20.873 4.414-43.189 4.233-62.8369-.508-54.93553-12.413-56.6315-12.537-56.64136z"/><path d="m153.352 17.4634c.059.03 5.935 3.099 12.026 11.5702 5.611 7.8049 12.571 21.9339 13.861 44.9229 1.057 18.8566-3.68 41.7075-12.996 62.6925-3.234 7.284-6.966 14.217-11.091 20.606-6.5 10.067-13.863 18.635-21.883 25.467l-.259-.316c7.989-6.805 15.219-15.739 21.698-25.773 4.114-6.371 7.835-13.285 11.06-20.55 9.291-20.926 14.122-43.3102 13.067-62.1031-1.283-22.8723-8.194-36.9212-13.766-44.6796-6.034-8.4027-11.84-11.4405-11.899-11.47z"/><path d="m44.7719 18.7788.1934.3611c-.084.0465-8.4741 4.7942-15.4496 17.2852-6.4417 11.5337-12.9606 32.2157-7.4361 65.2479 5.6872 34.002 21.8291 57.045 34.3687 70.389 14.5601 15.493 31.8482 25.796 45.1177 26.889l-.033.41c-13.3636-1.101-30.7506-11.452-45.3762-27.015-12.5787-13.385-29.1603-36.39-34.864-70.495-5.5479-33.1699 1.4041-54.0619 7.8866-65.6552 7.034-12.5805 15.5081-17.3697 15.5925-17.417z"/><path d="m41.2728 121.464c2.6423-.738 5.0073-1.315 6.8523-1.735l.2116.875c-8.9662 2.036-30.3513 7.831-35.3101 17.622-1.2492 2.466-1.3335 5.039-.252 7.649l-.4432.19c-1.1402-2.749-1.0501-5.462.2672-8.063 4.0203-7.938 18.3818-13.66 28.6742-16.538z"/><path d="m99.8359 114.45c18.4141-.168 35.5901 1.388 51.0521 4.627 23.156 4.852 32.023 12.392 35.294 17.53 2.482 3.898 1.905 6.719 1.88 6.836l-.47-.105c.005-.027.552-2.767-1.833-6.495-3.232-5.05-11.903-12.08-34.861-16.89-15.429-3.232-32.571-4.786-50.9506-4.617z"/><path d="m43.3678 57.7868c5.097-1.4252 10.1721-2.5822 14.8888-3.5567 9.2952-1.9207 25.8764-4.2962 44.8364-4.0904 15.464.1676 38.12 2.3065 57.73 9.6574 18.529 6.9453 27.206 14.3537 31.223 19.3459 4.381 5.4462 4.345 9.2005 4.341 9.3579l-.403-.0095c0-.0378.025-3.7945-4.287-9.1331-3.991-4.9404-12.611-12.2777-31.014-19.1763-37.664-14.1179-86.649-8.7929-102.3461-5.5493-21.5836 4.459-50.72816 12.74-54.63657 33.0658l-.39564-.0793c3.09451-16.0953 21.71451-24.7022 40.06311-29.8324z"/><path d="m60.9122 14.7681c2.2491-.629 4.3286-1.1253 6.1191-1.4774l.3262-.0645c9.9174-1.9503 30.554-6.0086 61.1795-.1873 30.711 5.8365 43.949 21.3694 44.079 21.5259l-.231.1993c-.13-.1558-13.307-15.6073-43.903-21.4228-30.5693-5.80982-51.1679-1.7593-61.0667.1877l-.3266.0641c-9.6061 1.8879-27.5923 7.9544-34.9666 16.196l-.2237-.2079c6.0453-6.7559 19.1493-12.055 29.0138-14.8131z"/><path d="m32.0328 29.3615.0581.1072c-.8765.4946-7.8641 6.5378-9.6699 15.3907-1.3016 6.3796.3532 12.6824 4.9189 18.7334 12.0026 15.908 38.7248 26.1483 71.4818 27.3928 13.9933.5316 29.8003-1.5325 43.3803-5.659 10.673-3.2449 24.918-9.2515 32.175-19.4372 6.366-8.9342 5.468-16.9482 3.594-22.0986-2.031-5.5818-5.613-9.0941-5.648-9.129l.214-.145c.037.0345 3.506 3.624 5.547 9.2321 1.199 3.295 1.633 6.6516 1.291 9.9766-.428 4.1557-2.077 8.2724-4.901 12.2358-2.971 4.1693-7.416 8.0091-13.212 11.4121-5.358 3.1455-11.759 5.8607-19.025 8.0703-13.588 4.1335-29.414 6.1955-43.4197 5.6635-14.7463-.56-28.8498-3.0464-40.7866-7.1902-13.9413-4.839-24.2991-11.6521-30.7861-20.2498-4.5874-6.0802-6.25-12.4167-4.9411-18.8328 1.8147-8.8965 8.8467-14.9742 9.7293-15.4729z"/><path d="m122.354 50.1186c11.401-3.1873 18.068-8.567 20.315-12.2054 3.942-6.3854 6.385-14.2979-5.396-24.5757-6.243-5.44614-15.523-8.3915-22.209-9.90341-7.247-1.63887-13.092-1.99302-13.15-1.99631-8.2448.30156-15.4774 1.30732-21.4916 2.98891-13.4523 3.76131-18.6256 10.30401-20.597 15.13021-2.4187 5.9236-1.2172 11.7305.5467 14.9035 3.7683 6.7773 18.3555 17.6903 41.4579 18.1221 7.285.1364 14.19-.6927 20.524-2.4639zm-42.2933-45.89322c6.0235-1.68406 13.2335-2.79581 21.4933-3.0982.137-.149956 6.103.28677 13.36 1.92769 6.7 1.5148 15.961 4.35375 22.224 9.81723 5.479 4.7806 8.521 9.7703 8.858 14.4864.307 4.2851-1.563 7.9261-3.226 10.6196-2.258 3.6569-8.95 9.0616-20.384 12.2584-6.345 1.7741-13.262 2.6048-20.558 2.468-23.1525-.4331-37.7793-11.3834-41.5601-18.1841-1.7772-3.1968-2.9883-9.046-.5527-15.0103 1.3081-3.203 3.4474-6.0735 6.5104-8.5045 3.5745-2.83815 8.0611-5.1656 13.8351-6.78022z"/><path d="m3.26741 87.4413.34357.1179c-3.766709 19.5898 23.08392 30.1998 36.09622 35.3438.4909.194.9612.381 1.4081.558 5.9981 2.387 24.7852 6.368 47.773 7.744 19.5417 1.17 47.7847.774 71.3557-7.748 10.603-3.834 19.069-8.183 25.164-12.927 4.766-3.709 8.24-7.744 10.009-11.8023 2.551-5.8521.966-9.8826.95-9.9232l.312-.1101c.017.041 1.648 4.1639-.921 10.0637-1.776 4.0779-5.49 8.1429-10.272 11.8649-6.106 4.753-14.584 9.11-25.202 12.949-23.589 8.532-51.849 8.925-71.403 7.755-23.0007-1.377-41.8039-5.362-47.8093-7.752-.4469-.178-.9172-.364-1.4081-.558-13.0426-5.156-40.182274-15.885-36.39619-35.5757z"/><path d="m12.3959 145.276c5.5302 10.303 19.6236 15.369 29.9556 17.903 4.8818 1.197 49.1444 11.435 99.2765 2.261 24.536-4.49 35.347-10.164 40.422-14.224 5.49-4.392 5.184-7.764 5.18-7.797l.508-.123c.004.034.324 3.458-5.202 7.889-3.235 2.594-7.815 5.027-13.612 7.231-7.243 2.754-16.419 5.158-27.274 7.144-20.215 3.699-41.7204 4.709-63.9197 3.003-18.8432-1.449-31.8648-4.396-35.4074-5.265-10.3538-2.54-24.8684-7.509-30.4215-17.855z"/><path d="m85.6841 2.26413c10.3251-.92235 20.9829 19.99547 29.2399 57.39037 8.628 39.0736 8.4 82.5365 7.075 100.0595-1.324 17.5-5.251 32.013-10.248 37.874-1.766 2.071-3.675 3.186-5.675 3.313-2.684.172-4.593-1.539-4.612-1.556l.083-.269c.018.017 1.891 1.873 4.523 1.704 1.965-.127 3.847-1.227 5.591-3.272 2.515-2.951 4.809-8.196 6.633-15.167 1.724-6.59 2.963-14.418 3.585-22.637 1.326-17.516 1.553-60.9631-7.072-100.0228-4.248-19.2391-9.056-34.0189-14.289-43.9286-4.8475-9.17787-9.8661-13.40384-14.7164-12.96998z"/><path d="m57.9442 12.0602c5.675-1.5871 12.0118-1.8599 18.5864-1.0226 9.4087 1.1976 19.2748 4.9556 28.5324 10.8685 10.129 6.4688 19.404 15.3115 27.568 26.2827 23.509 31.5896 27.42 66.0822 27.66 83.8312.043 3.233-.025 6.334-.205 9.217-.478 7.668-3.261 20.717-9.535 32.26l-.162-.15c6.263-11.525 9.101-24.463 9.578-32.118.179-2.88.248-5.978.204-9.207-.239-17.734-4.147-52.1976-27.635-83.7601-15.658-21.0407-36.077-34.5645-56.0203-37.1035-12.236-1.55796-23.4626 1.2288-31.6105 7.8488l-.2333-.2802c3.7933-3.0814 8.3578-5.2925 13.2723-6.6668z"/><path d="m117.103 13.7777c13.453-3.7617 26.574-2.0004 39.278 5.7239l.058.3451c-13.455-8.1807-27.512-9.92191-41.786-5.1927-27.7516 9.2075-49.1027 39.9294-59.83 65.6106-8.6376 20.6784-12.2113 43.7324-10.0627 64.9164 2.1518 21.218 9.7507 37.562 21.3955 46.023 9.4705 6.881 18.5518 8.741 24.5022 9.09 6.4454.378 10.701-.888 10.746-.899l.034.117c-.038.012-4.3193 1.284-10.7869.904-5.9661-.35-15.0708-2.215-24.5651-9.113-5.8996-4.286-10.7737-10.599-14.4867-18.763-3.5733-7.856-5.9145-17.057-6.9581-27.346-1.042-10.275-.7327-21.062.9193-32.063 1.7126-11.401 4.7913-22.4744 9.1523-32.914 6.1382-14.6948 14.8783-28.9651 24.6112-40.1833 5.3012-6.1097 10.8887-11.3443 16.6082-15.5575 6.1268-4.5136 12.4128-7.8575 18.6838-9.938.83-.2753 1.659-.5288 2.487-.7605z"/><path d="m88.9133 22.4182c4.883-1.3656 9.9009-2.3932 14.9767-3.0481 21.577-2.7838 41.675 1.4939 56.593 12.0453 7.348 5.1976 13.785 11.2461 19.131 17.9774 4.278 5.3854 7.871 11.2173 10.68 17.334 4.784 10.4166 5.643 18.1512 5.651 18.2285l-.119.0127c-.008-.0768-.866-7.7954-5.642-18.1947-4.409-9.5966-13.152-23.5038-29.77-35.2581-32.454-22.95484-82.5614-12.8603-108.9994 10.97-26.4549 23.8464-38.147 48.6283-37.9092 80.3538.2394 32.055 21.0475 60.685 53.01 72.936l-.042.114c-15.9114-6.099-29.2871-16.204-38.6808-29.224-9.3074-12.9-14.2893-28.054-14.4071-43.825-.1208-16.098 2.778-30.2044 8.8612-43.1271 6.1071-12.9733 15.6219-25.1804 29.0888-37.3185 9.9787-8.9951 23.1872-15.9528 37.5778-19.9762z"/><path d="m2.36133 109.375.1195-.011c2.45219 28.651 20.54447 56.903 47.21667 73.732 13.659 8.618 26.8804 12.457 35.5669 14.16 9.4119 1.846 15.6746 1.65 15.7366 1.648l.004.122c-.062.002-6.3348.198-15.7596-1.649-8.6969-1.704-21.9349-5.549-35.6109-14.177-13.0579-8.239-24.3274-19.356-32.5895-32.15-8.38403-12.981-13.46121-27.393-14.68367-41.675z"/><path d="m170.389 30.967c32.427 34.0482 36.418 87.36 9.489 126.765-3.466 5.073-7.429 9.87-11.778 14.259l-.213-.219c4.336-4.376 8.287-9.158 11.742-14.216 26.847-39.284 22.869-92.432-9.457-126.3745z"/><path d="m32.6189 28.8466.2782.2974c-9.3029 9.0189-16.5941 19.9721-21.8812 31.7745l-.4744-.5666c5.3089-11.85 12.7365-22.4503 22.0774-31.5053z"/><path d="m9.41552 140.28c4.56688 11.359 11.13498 21.652 19.52228 30.593 8.2581 8.803 17.8731 15.863 28.5781 20.982 7.0735 3.383 14.5686 5.88 22.276 7.421l-.0198.1c-7.7155-1.542-15.2182-4.041-22.299-7.428-10.7163-5.125-20.3414-12.192-28.6084-21.004-8.3957-8.95-14.9711-19.254-19.54243-30.625z"/><path d="m115.757 3.27645c.583-.1631 1.182-.26582 1.814-.34347l.047.35128c-3.778.46343-6.475 1.19351-13.388 14.52714-6.8934 13.2934-16.2803 51.6878-19.4253 90.5356-3.7994 46.927 1.0622 72.43 4.298 83.456 1.4999 5.11 3.7417 8.105 6.4236 8.885 3.0982.902 5.7027-1.755 5.7297-1.78l.131.285c-.028.025-2.8517 2.524-6.0141 1.604-2.7243-.792-4.8725-3.806-6.3848-8.959-3.2387-11.034-8.1039-36.554-4.3033-83.501 3.147-38.8633 12.5404-77.2783 19.4392-90.5827 5.579-10.76133 8.361-13.56289 11.633-14.47785z"/><path d="m114.514 154.31c-.11.858.483 1.644 1.326 1.757.842.113 1.615-.491 1.726-1.349.111-.857-.483-1.644-1.325-1.756-.843-.113-1.616.49-1.727 1.348z"/><path d="m71.29 85.4516c-.1263.9807-1.0105 1.6713-1.9741 1.5423-.9641-.1286-1.6428-1.0283-1.516-2.009.1268-.9811 1.0105-1.6718 1.9746-1.5428.9637.129 1.6423 1.0284 1.5155 2.0095z"/><path d="m16.1927 109.877c-.0783.609-.6273 1.038-1.2257.957-.5983-.08-1.0193-.638-.941-1.247.0787-.609.6274-1.038 1.2261-.958.5983.08 1.0194.639.9406 1.248z"/><path d="m147.966 25.6926c-.1.7741-.798 1.3193-1.559 1.2178-.761-.1019-1.296-.8118-1.196-1.5863.099-.7744.798-1.3196 1.558-1.2177.761.1019 1.297.8118 1.197 1.5862z"/><path d="m87.0962 2.79855c-.0929.71857-.7405 1.22474-1.447 1.13024-.7061-.09449-1.2031-.7539-1.1102-1.47247.0924-.71857.7404-1.22432 1.4465-1.13024.7061.0945 1.2035.7539 1.1107 1.47247z"/><path d="m179.123 42.2875c-.092.719-.74 1.2247-1.447 1.1302-.706-.0945-1.203-.7535-1.11-1.472.093-.7186.74-1.2248 1.447-1.1303.706.0945 1.203.7535 1.11 1.4721z"/><path d="m67.9975 194.093c-.0929.718-.7404 1.224-1.4465 1.13-.7061-.095-1.2035-.754-1.1107-1.473.0929-.718.7405-1.224 1.4466-1.13.7065.095 1.2035.754 1.1106 1.473z"/><path d="m157.926 17.462c-.093.719-.741 1.2248-1.447 1.1303-.706-.0941-1.203-.7535-1.11-1.4721.092-.7185.74-1.2247 1.446-1.1302.707.0945 1.204.7535 1.111 1.472z"/><path d="m70.9608 169.896c-.0489.379-.3904.646-.7627.596-.3726-.05-.6346-.397-.5858-.777.0489-.378.3904-.645.7631-.595.3722.049.6346.397.5854.776z"/><path d="m9.88406 73.4605c-.04885.3792-.3904.6459-.76262.5962-.37264-.0497-.63465-.3973-.5858-.7765.04885-.3788.3904-.6455.76303-.5958.37223.0497.63424.3973.58539.7761z"/><path d="m131.114 191.239c-.049.378-.391.645-.763.595-.373-.049-.635-.397-.586-.776s.391-.646.763-.596.634.397.586.777z"/><path d="m80.1087 199.434c-.046.356-.3674.608-.7182.561-.3504-.047-.5975-.374-.5515-.731s.3678-.609.7182-.561c.3509.047.5975.374.5515.731z"/><path d="m67.5555 152.819c-.046.357-.3678.608-.7182.561-.3508-.047-.5975-.374-.5515-.731s.3678-.608.7182-.561c.3509.047.5975.374.5515.731z"/><path d="m41.7691 149.137c-.0545.423-.4365.721-.8523.666-.4162-.056-.7089-.444-.6544-.867.0545-.424.4364-.722.8522-.666.4163.055.709.444.6545.867z"/><path d="m54.0015 159.855c-.0698.541-.5571.921-1.088.85-.5313-.071-.9051-.566-.8353-1.107.0699-.54.5567-.921 1.088-.85.5309.071.9052.567.8353 1.107z"/><path d="m26.8719 165.308c-.0638.495-.5099.843-.996.778-.4865-.065-.8288-.519-.7646-1.013.0637-.495.5098-.844.9959-.779.4865.066.8289.519.7647 1.014z"/><path d="m127.94 109.541c-.082.638-.656 1.087-1.283 1.003s-1.068-.669-.985-1.306c.082-.638.656-1.087 1.283-1.003.626.084 1.068.668.985 1.306z"/><path d="m190.24 138.217c-.082.638-.657 1.087-1.284 1.003-.626-.084-1.068-.669-.985-1.306.082-.638.657-1.087 1.284-1.003.626.084 1.067.669.985 1.306z"/><path d="m111.201 171.109c-.083.638-.657 1.087-1.284 1.003-.626-.084-1.068-.669-.985-1.306.082-.638.657-1.087 1.283-1.003.627.084 1.068.669.986 1.306z"/><path d="m121.52 197.5c-.086.674-.694 1.149-1.357 1.061-.663-.089-1.13-.708-1.043-1.382.087-.675.695-1.15 1.358-1.061.663.088 1.13.707 1.042 1.382z"/><path d="m182.188 41.0743c-.049.3813-.393.65-.767.5998-.375-.0501-.639-.4001-.59-.7814.049-.3812.393-.6499.768-.5998s.639.4001.589.7814z"/><path d="m12.9568 143.832c-.0489.378-.3892.644-.7602.594-.3714-.05-.6326-.396-.5838-.774.0489-.377.3892-.643.7602-.594.371.05.6322.396.5838.774z"/><path d="m29.2007 126.793c-.0804.621-.6399 1.058-1.2499.976-.6101-.082-1.0392-.651-.9593-1.271.0804-.621.6399-1.058 1.2495-.977.6101.082 1.0396.651.9597 1.272z"/><path d="m113.861 93.0167c-.144 1.1204-1.154 1.9093-2.255 1.7618-1.101-.1471-1.876-1.1747-1.731-2.2951.144-1.1203 1.154-1.9092 2.255-1.7617 1.101.1471 1.876 1.1746 1.731 2.295z"/><path d="m103.841 65.7099c-.111.8578-.884 1.4618-1.727 1.3492-.843-.113-1.436-.8997-1.325-1.7572.11-.8578.883-1.4618 1.726-1.3492.843.113 1.437.8994 1.326 1.7572z"/><path d="m84.6856 70.2904c-.0392.3033-.3124.5165-.6106.4766-.2977-.0398-.5074-.3176-.4682-.6203.0392-.3032.3119-.5165.6097-.4766.2977.0398.5082.3176.4691.6203z"/><path d="m5.42104 127.078c-.04885.378-.39.645-.76223.595s-.63424-.397-.58499-.776c.04885-.378.39-.645.76223-.595.37182.05.63384.397.58499.776z"/><path d="m110.055 113.666c-.054.418-.431.712-.842.657-.41-.055-.7-.438-.645-.856.053-.418.43-.712.841-.657.41.054.7.438.646.856z"/><path d="m154.096 17.5628c-.054.4178-.431.7124-.841.6573-.411-.055-.701-.4383-.646-.8562.053-.4178.43-.7124.841-.6573.41.055.7.4383.646.8562z"/><path d="m28.5763 37.7893c-.3107-.0382-.5321-.325-.4945-.6409.0372-.316.3196-.5415.6303-.5033.3107.0378.5321.325.4949.6409-.0375.316-.3195.5415-.6307.5033z"/><path d="m163.24 78.2074c-.469-.0575-.803-.491-.746-.968.056-.4774.482-.8176.951-.76.468.0575.803.4909.747.9679-.057.4774-.483.8176-.952.7601z"/><path d="m152.945 128.673c-.469-.057-.803-.491-.747-.968.057-.477.483-.817.951-.76.469.058.804.491.747.968-.056.477-.482.818-.951.76z"/><path d="m180.501 97.6804c-.469-.0575-.803-.491-.747-.968s.482-.8172.951-.7596c.469.0571.803.4905.747.9679-.057.477-.483.8172-.951.7597z"/><path d="m187.258 147.579c-.469-.057-.803-.49-.747-.967.056-.478.482-.818.951-.76.469.057.803.491.747.968s-.482.817-.951.759z"/><path d="m150.792 102.379c-.469-.058-.803-.491-.747-.968.057-.477.483-.817.951-.76.469.058.803.491.747.968s-.482.817-.951.76z"/><path d="m109.841 66.1204c-.469-.0575-.803-.491-.747-.968.057-.477.482-.8171.951-.76.469.0575.803.4909.747.9679-.057.4774-.483.8176-.951.7601z"/><path d="m79.023 154.316c-.4687-.058-.8029-.491-.7468-.969.0565-.477.4824-.817.9511-.759.4692.057.8034.491.7469.968s-.4824.817-.9512.76z"/><path d="m84.6174 76.5218c-.4692-.0575-.8034-.491-.7469-.968s.4824-.8171.9512-.7596c.4691.0571.8033.4905.7468.9679-.0565.477-.4824.8172-.9511.7597z"/><path d="m29.7176 101.935c-.4688-.058-.803-.491-.7465-.968s.482-.817.9511-.76c.4688.057.8026.491.7465.968-.0565.477-.4824.818-.9511.76z"/><path d="m170.181 31.6265c-.31-.0383-.532-.325-.494-.641.037-.3159.319-.5415.63-.5033.311.0378.533.325.495.641-.038.3159-.32.5415-.631.5033z"/><path d="m45.1525 78.6181c-.4691-.0575-.8034-.4909-.7469-.9679.0566-.4774.4825-.8176.9512-.7601.4691.0575.803.491.7469.968-.0565.4774-.4825.8175-.9512.76z"/><path d="m56.8601 189.855c-.4692-.057-.8035-.491-.7469-.968.0565-.477.4824-.817.9511-.76.4688.058.8035.491.7469.968-.0565.477-.4824.818-.9511.76z"/><path d="m102.717 20.9892c-.469-.0575-.803-.4909-.746-.9679.056-.4774.482-.8176.951-.7601.468.0575.803.491.746.968-.056.4774-.482.8176-.951.76z"/><path d="m46.0589 46.6145c-.4688-.0575-.803-.491-.7465-.968.0565-.4774.4824-.8176.9512-.76.4687.0575.803.4909.7464.9679-.0561.477-.482.8172-.9511.7601z"/><path d="m43.2911 132.197c-.6718-.082-1.1511-.703-1.0703-1.387.0811-.684.6916-1.172 1.3634-1.089.6717.082 1.151.703 1.0702 1.387-.0811.684-.6912 1.171-1.3633 1.089z"/><path d="m132.675 183.776c-.644-.067-1.113-.653-1.047-1.309.066-.655.641-1.132 1.286-1.065.644.067 1.113.652 1.047 1.308s-.642 1.133-1.286 1.066z"/><path d="m87.445 199.4c-.6443-.067-1.113-.653-1.0472-1.309.0658-.655.6415-1.132 1.2858-1.065.644.067 1.1131.653 1.0473 1.308-.0658.656-.6415 1.133-1.2859 1.066z"/><path d="m123.74 6.22295c-.879-.09162-1.519-.89113-1.429-1.78596.09-.89482.875-1.54601 1.755-1.45439.879.0912 1.519.89071 1.429 1.78554-.09.89482-.875 1.54642-1.755 1.45481z"/><path d="m184.665 65.7416c-.645-.0669-1.113-.6528-1.048-1.3085.066-.6557.642-1.1327 1.286-1.0657.645.0669 1.113.6528 1.048 1.3085-.067.6557-.642 1.1327-1.286 1.0657z"/><path d="m25.4096 36.6219c-.9032-.1105-1.5471-.9454-1.4381-1.8644.1086-.9195.929-1.5748 1.8321-1.4639.9031.1105 1.5474.9454 1.4384 1.8644-.1086.9191-.9289 1.5748-1.8324 1.4639z"/><path d="m195.227 80.8599c-.601-.0736-1.029-.6294-.957-1.2412.072-.6117.619-1.048 1.22-.9745s1.03.6294.957 1.2416c-.072.6117-.618 1.048-1.22.9741z"/><path d="m196.934 86.5259c-.315-.0382-.54-.3295-.502-.6504.038-.3205.324-.5489.64-.5103.315.0386.54.3295.502.6504-.038.3205-.325.5489-.64.5103z"/><path d="m69.4693 16.4248c-.3156-.0386-.5402-.3295-.5022-.6503.038-.3205.3244-.5493.6396-.5107.3151.0386.5402.3299.5022.6508-.038.3204-.3245.5488-.6396.5102z"/><path d="m136.361 141.23c-.316-.038-.54-.33-.502-.65.038-.321.324-.549.639-.511.315.039.54.33.502.651-.037.32-.324.549-.639.51z"/><path d="m146.318 119.419c-.316-.038-.54-.329-.502-.65s.324-.549.639-.511c.315.039.541.33.503.651s-.325.549-.64.51z"/><path d="m143.964 10.3754c-.315-.0387-.54-.3295-.502-.65042.038-.32046.325-.54889.64-.51027s.54.3295.502.65037c-.038.32042-.324.54892-.64.51032z"/><path d="m152.778 88.6416c-.315-.0386-.539-.3299-.501-.6504.038-.3204.324-.5493.639-.5106.315.0386.54.3299.502.6503-.038.3209-.324.5493-.64.5107z"/><path d="m144.436 57.965c-.316-.0386-.541-.3294-.503-.6503.038-.3205.325-.5489.64-.5103s.54.3295.502.6504c-.038.3204-.324.5489-.639.5102z"/><path d="m.506082 99.0468c-.315151-.0386-.5402017-.3299-.5018179-.6504.0375757-.3209.3240399-.5493.6395949-.5107.315151.0386.539801.3299.501821.6504s-.324043.5493-.639598.5107z"/><path d="m75.3068 178.243c-1.0222-.126-1.7513-1.071-1.6282-2.111.1231-1.041 1.0517-1.783 2.0739-1.657 1.0222.125 1.7514 1.07 1.6282 2.111-.1231 1.04-1.0517 1.782-2.0739 1.657z"/><path d="m171.618 141.025c-.572-.07-.98-.6-.911-1.182.068-.583.588-.998 1.161-.928.572.07.981.6.912 1.182-.069.583-.589.998-1.162.928z"/><path d="m71.4446 195.945c-.5725-.07-.9806-.6-.9116-1.182.069-.583.589-.998 1.1615-.928s.9806.6.9116 1.182c-.069.583-.589.998-1.1615.928z"/><path d="m100.869 200.01c-.6-.074-1.028-.628-.9558-1.24.0723-.611.6178-1.046 1.2178-.972.601.073 1.029.628.956 1.239-.072.611-.617 1.047-1.218.973z"/><path d="m167.756 172.878c-.6-.074-1.028-.629-.956-1.24.073-.61.618-1.046 1.218-.972.601.073 1.029.628.956 1.239-.072.611-.617 1.047-1.218.973z"/><path d="m44.8341 20.2464c-.6003-.0736-1.0283-.6286-.956-1.2395.0722-.611.6177-1.0465 1.218-.9729.6003.0735 1.0287.6282.956 1.2395-.0723.6109-.6173 1.0464-1.218.9729z"/><path d="m58.7032 131.922c-.6003-.073-1.0283-.628-.956-1.239s.6177-1.047 1.218-.973c.6004.074 1.0283.628.9561 1.24-.0723.611-.6173 1.046-1.2181.972z"/><path d="m52.5249 92.7609c-.6003-.0736-1.0287-.6286-.9564-1.2395.0727-.611.6177-1.0469 1.2184-.9729.6004.0735 1.0283.6281.956 1.2395-.0722.6109-.6177 1.0464-1.218.9729z"/><path d="m70.2886 117.138c-.6003-.074-1.0287-.629-.9564-1.24.0726-.611.6177-1.046 1.2184-.973.6003.074 1.0283.629.956 1.24s-.6177 1.047-1.218.973z"/><path d="m10.9385 61.3891c-.6007-.0735-1.02869-.6286-.95642-1.2395.07222-.6113.61772-1.0468 1.21802-.9733.6003.0736 1.0287.6286.9564 1.2395-.0723.611-.6177 1.0469-1.218.9733z"/><path d="m188.221 63.4709c-.386-.0473-.662-.4047-.615-.7983.046-.3936.397-.6742.784-.6266.387.0473.662.4047.616.7983-.047.3936-.398.6742-.785.6266z"/><path d="m86.4836 160.568c-.3868-.048-.6621-.405-.6157-.798.0464-.394.3977-.675.7844-.627.3868.047.6625.404.6161.798-.0468.394-.3981.674-.7848.627z"/><path d="m189.61 70.4379c-.438-.0535-.751-.4586-.698-.9043.053-.4458.451-.7634.889-.7095.437.0534.749.4585.697.9038-.052.4458-.45.7638-.888.71z"/><path d="m52.1157 67.1504c-.694-.0851-1.1889-.7264-1.1049-1.4326.0835-.7063.7137-1.21 1.4077-1.1249.694.085 1.189.7263 1.1054 1.4326-.0836.7066-.7142 1.2099-1.4082 1.1249z"/><path d="m33.6812 146.023c-.694-.085-1.189-.726-1.105-1.433.0835-.706.7138-1.209 1.4077-1.124.694.085 1.189.726 1.1054 1.433-.0835.706-.7141 1.21-1.4081 1.124z"/><path d="m47.5757 121.602c-.694-.085-1.189-.726-1.105-1.433.0836-.706.7138-1.21 1.4078-1.124.694.085 1.189.726 1.1054 1.432-.0836.707-.7142 1.21-1.4082 1.125z"/><path d="m117.68 3.76076c-.515-.06327-.882-.53862-.82-1.06204.062-.52383.53-.89688 1.044-.83402.514.06327.881.53862.819 1.06204-.062.52383-.529.89688-1.043.83402z"/><path d="m88.5321 12.7012c-.5144-.0628-.8814-.5386-.8192-1.062.0618-.5234.5289-.8969 1.0436-.8336.5144.0628.8814.5382.8192 1.062-.0618.5234-.5293.8969-1.0436.8336z"/><path d="m146.007 133.75c-.987-.121-1.691-1.033-1.572-2.038s1.015-1.721 2.002-1.6c.988.121 1.692 1.034 1.573 2.038-.119 1.005-1.016 1.721-2.003 1.6z"/><path d="m99.5806 117.067c-1.2685-.156-2.1733-1.328-2.0203-2.619.1526-1.292 1.3049-2.212 2.5737-2.057 1.269.156 2.173 1.329 2.021 2.62-.153 1.291-1.306 2.211-2.5744 2.056z"/><path d="m37.6823 58.4955c-.9815-.1204-1.6811-1.0275-1.5628-2.0259.1183-.9987 1.0093-1.7107 1.9907-1.5904.9815.12 1.6811 1.0272 1.5628 2.0259-.1183.9984-1.0097 1.7104-1.9907 1.5904z"/><path d="m12.3526 148.673c-.9177-.113-1.5721-.961-1.4615-1.895s.9439-1.599 1.8615-1.487c.9177.113 1.5721.961 1.4615 1.895s-.9439 1.599-1.8615 1.487z"/><path d="m94.5782 178.342c-.297-.036-.5083-.31-.4727-.612.0359-.302.3054-.518.602-.481.297.036.5087.311.4727.612-.0355.302-.305.517-.602.481z"/><path d="m122.906 35.5727c-.297-.0361-.508-.3106-.472-.6121.035-.302.305-.5173.602-.4807.297.0361.508.3106.472.6121-.035.302-.305.5173-.602.4807z"/><path d="m104.472 3.73115c-.297-.03657-.508-.3106-.472-.61258.035-.30197.305-.51684.602-.48069.297.03657.508.3106.472.61257-.036.30157-.305.51685-.602.4807z"/><path d="m138.72 130.344c-.297-.036-.509-.31-.473-.612s.305-.517.602-.481.508.311.473.612c-.036.302-.306.518-.602.481z"/><path d="m108.24 8.38739c-.297-.03656-.508-.3106-.472-.61257.035-.30157.305-.51685.602-.4807.297.03657.508.31061.472.61258-.035.30197-.305.51685-.602.48069z"/><path d="m184.438 153.088c-.297-.036-.508-.31-.473-.612.036-.302.306-.517.603-.481.296.037.508.311.473.613-.036.301-.306.517-.603.48z"/><path d="m101.307 132.327c-.297-.036-.508-.31-.472-.612.035-.302.305-.517.602-.481s.508.311.472.612c-.035.302-.305.518-.602.481z"/><path d="m192.952 52.8283c-.297-.0361-.509-.3106-.473-.6121.036-.302.306-.5173.602-.4807.297.0361.509.3106.473.6122-.036.3019-.306.5172-.602.4806z"/><path d="m14.9122 118.977c-.2966-.036-.5083-.31-.4728-.612.036-.302.3055-.517.6025-.481.2965.037.5082.311.4727.613-.036.301-.3055.517-.6024.48z"/><path d="m182.993 118.222c-.297-.037-.508-.311-.472-.613.035-.302.305-.517.602-.481.296.037.508.311.473.613-.036.302-.306.517-.603.481z"/><path d="m175.859 80.7634c-.296-.0366-.508-.3106-.472-.6126.036-.3016.305-.5169.602-.4807.297.0366.508.3106.473.6126-.036.3015-.306.5168-.603.4807z"/><path d="m86.0303 97.2695c-.2969-.0362-.5082-.3106-.4727-.6122.0356-.3019.3055-.5172.602-.4806.297.0361.5087.3101.4728.6121-.0356.302-.3051.5169-.6021.4807z"/><path d="m174.931 95.1512c-.857-.1052-1.468-.8973-1.365-1.7695.103-.8723.882-1.4939 1.739-1.3891.857.1052 1.468.8973 1.365 1.7695s-.882 1.4938-1.739 1.3891z"/><path d="m3.44417 83.7542c-.8571-.1051-1.46793-.8972-1.36498-1.7695.10335-.8718.88172-1.4938 1.73882-1.3886.8571.1047 1.46793.8968 1.36498 1.7691-.10335.8722-.88173 1.4942-1.73882 1.389z"/><path d="m70.8338 100.439c-.8571-.105-1.4679-.8976-1.365-1.7694.1034-.8722.8818-1.4943 1.7388-1.3891.8571.1052 1.468.8973 1.365 1.7691-.1033.8722-.8817 1.4944-1.7388 1.3894z"/><path d="m115.863 127.024c-.857-.105-1.468-.897-1.365-1.77.103-.871.882-1.493 1.739-1.389.857.106 1.468.898 1.365 1.77-.104.872-.882 1.494-1.739 1.389z"/><path d="m196.492 90.2736c-.857-.1051-1.468-.8972-1.365-1.7695.103-.8718.882-1.4938 1.739-1.3886.857.1047 1.468.8969 1.364 1.7691-.103.8722-.881 1.4938-1.738 1.389z"/><path d="m134.621 157.41c-.857-.105-1.468-.898-1.365-1.77.104-.872.882-1.494 1.739-1.388.857.104 1.468.896 1.365 1.769-.103.872-.881 1.493-1.739 1.389z"/><path d="m190.407 79.539c-.858-.1052-1.468-.8973-1.365-1.7695s.881-1.4939 1.738-1.3891c.858.1052 1.468.8973 1.365 1.7695-.103.8723-.881 1.4939-1.738 1.3891z"/><path d="m2.59738 100.7c-.59549-.074-1.0202-.624-.94834-1.2297.07186-.606.61244-1.0382 1.20793-.965.59548.0731 1.0202.6232.94833 1.2292-.07186.6065-.61244 1.0375-1.20792.9655z"/><path d="m126.062 124.592c-.857-.105-1.468-.897-1.365-1.769s.882-1.494 1.738-1.389c.857.105 1.469.897 1.365 1.769-.103.872-.881 1.494-1.738 1.389z"/><path d="m128.625 54.2798c-.43-.0526-.737-.4503-.685-.8879.052-.4375.442-.7497.872-.6972.43.053.737.4503.685.8883-.052.4375-.442.7498-.872.6968z"/><path d="m95.3851 44.1458c-.4299-.053-.7368-.4503-.6851-.8882.0521-.4376.4425-.7498.8729-.6968.4299.0526.7364.4503.6847.8878-.0517.4376-.4425.7498-.8725.6972z"/><path d="m66.5868 13.7432c-.4304-.0526-.7368-.4503-.6851-.8879.0517-.4379.4425-.7498.8724-.6972.4304.0526.7368.4503.6851.8879-.0516.4379-.4424.7498-.8724.6972z"/><path d="m34.4974 28.23c-.4299-.0526-.7368-.4503-.6851-.8879.0521-.4375.4425-.7497.8729-.6972.4299.053.7368.4503.6847.8883-.0517.4375-.4425.7498-.8725.6968z"/><path d="m2.48083 104.48c-.42996-.052-.73679-.45-.68511-.887.05208-.438.44247-.75.87284-.698.42996.053.73679.451.68471.888-.05168.438-.44248.75-.87244.697z"/><path d="m129.115 17.0776c-.361-.0444-.619-.3784-.575-.7461.043-.3677.372-.6303.733-.5859s.619.3784.576.7461c-.044.3681-.372.6302-.734.5859z"/><path d="m199.262 117.382c-.362-.044-.619-.378-.576-.746.044-.368.372-.63.734-.586.361.044.618.378.575.747-.043.367-.372.629-.733.585z"/><path d="m131.859 95.8012c-.362-.0443-.619-.3784-.576-.7461.044-.3681.372-.6302.733-.5858.362.0443.62.3784.576.7461s-.372.6302-.733.5858z"/><path d="m45.3893 104.117c-.2925-.036-.501-.306-.4654-.603.0351-.297.3006-.509.5931-.474.2925.036.501.306.4659.603-.0356.298-.301.51-.5936.474z"/><path d="m34.4681 106.201c-.4412-.053-.7557-.461-.7024-.91.0528-.449.4537-.769.895-.715.4409.054.7558.461.7025.91-.0533.45-.4538.77-.8951.715z"/><path d="m9.23376 141.066c.40574.05.77434-.244.82314-.657.0489-.413-.24057-.788-.64631-.838-.40574-.049-.77433.245-.82318.658s.24061.788.64635.837z"/><path d="m195.64 118.223c.406.049.774-.245.823-.658s-.24-.788-.646-.838-.774.245-.823.658.24.788.646.838z"/><path d="m40.4102 26.8093c-.2634-.0325-.4513-.2757-.4194-.5436.0316-.2678.2707-.4589.5342-.4264.2634.0324.4513.2757.4198.5435-.0319.2679-.2711.4589-.5346.4265z"/><path d="m131.795 6.95766c-.263-.03246-.451-.27568-.419-.54355.031-.26788.271-.45851.534-.42646.264.03245.451.27567.419.54355-.031.26787-.27.45891-.534.42646z"/><path d="m86.0347 44.1491c-.2631-.0325-.4509-.2757-.4194-.5436.0319-.2679.2711-.4585.5345-.4264.2635.0324.4513.2756.4194.5435-.0315.2679-.2707.4589-.5345.4265z"/><path d="m90.0718 9.36435c-.2631-.03246-.4509-.27568-.4194-.54355.0319-.26787.2711-.45892.5345-.42646.2635.03205.4513.27527.4194.54314-.0315.26787-.2707.45891-.5345.42687z"/><path d="m2.73282 89.4454c-.26344-.032-.45131-.2752-.4198-.5431.03192-.2679.27111-.4589.53455-.4269.26343.0325.45131.2757.41939.5436-.03151.2679-.27071.4589-.53414.4264z"/><path d="m132.53 6.48838c-.264-.03246-.451-.27568-.42-.54356.032-.26787.271-.45891.535-.42646.263.03205.451.27527.419.54314-.032.26788-.271.45892-.534.42688z"/><path d="m150.274 174.317c-.263-.033-.451-.276-.419-.544.031-.268.271-.459.534-.426.264.032.451.275.42.543-.032.268-.272.459-.535.427z"/><path d="m163.7 176.733c-.264-.032-.451-.275-.42-.543.032-.268.271-.459.535-.427.263.032.451.276.419.544-.031.267-.271.459-.534.426z"/><path d="m140.548 143.691c-.264-.032-.451-.276-.419-.543.031-.268.271-.459.534-.427.264.032.451.275.42.543-.032.268-.272.459-.535.427z"/><path d="m177.214 34.8951c-.264-.0325-.452-.2757-.42-.5435.032-.2679.271-.459.535-.4265.263.032.451.2753.419.5431-.032.2679-.271.4589-.534.4269z"/><path d="m199.088 108.769c-.264-.032-.452-.276-.42-.543.032-.268.271-.459.535-.427.263.032.451.275.419.543s-.271.459-.534.427z"/><path d="m195.823 73.424c-.263-.0321-.451-.2753-.419-.5431.031-.2679.271-.459.534-.4265.263.032.451.2753.419.5431-.031.2679-.27.4589-.534.4265z"/><path d="m74.938 34.8947c-.2634-.032-.4509-.2753-.4194-.5431.0319-.2679.2711-.459.5345-.4265.2635.032.4514.2753.4194.5431-.0315.2679-.2711.459-.5345.4265z"/><path d="m38.19 187.656c-.2634-.032-.4513-.276-.4194-.544.0315-.268.2707-.458.5342-.426.2634.032.4513.275.4198.543-.032.268-.2711.459-.5346.427z"/><path d="m190.908 60.3743c-.263-.0321-.451-.2757-.419-.5436.031-.2678.271-.4585.534-.4264.263.0324.451.2757.419.5435-.031.2679-.27.459-.534.4265z"/><path d="m58.3853 103.506c-.2635-.032-.451-.275-.4194-.543.0319-.268.2711-.459.5345-.426.2634.032.4513.275.4194.543-.0315.268-.2711.459-.5345.426z"/><path d="m23.5409 37.845c-.2634-.0321-.4513-.2757-.4198-.5436.0319-.2674.2711-.4585.5346-.4264.2634.0324.4513.2756.4194.5435-.0315.2679-.2707.4589-.5342.4265z"/><path d="m87.1842 186.498c-.2635-.033-.4514-.276-.4194-.544.0315-.268.2707-.459.5341-.426.2634.032.4513.275.4194.543-.0315.268-.2707.459-.5341.427z"/><path d="m2.4239 109.85c-.26343-.033-.45131-.276-.41939-.544.03152-.268.27111-.459.53455-.426.26343.032.4509.275.41939.543-.03192.268-.27111.459-.53455.427z"/><path d="m62.0966 25.2456c-.2634-.032-.4513-.2752-.4198-.5431.0319-.2679.2711-.4589.5345-.4269.2635.0325.4513.2757.4194.5436-.0315.2678-.2707.4589-.5341.4264z"/><path d="m132.877 28.1747c-.263-.0325-.451-.2757-.419-.5436.031-.2679.271-.4589.534-.4265.264.0321.451.2753.419.5432-.031.2679-.271.4589-.534.4269z"/><path d="m136.242 99.5933c-.264-.0325-.452-.2757-.42-.5436.032-.2678.271-.4585.534-.4264.264.0324.452.2756.42.5435s-.271.4589-.534.4265z"/><path d="m71.4389 2.57508c-.2635-.03205-.4513-.27527-.4198-.54314.0319-.26787.2711-.45891.5345-.42687.2635.03246.4513.27568.4194.54355-.0315.26787-.2707.45892-.5341.42646z"/></g><ellipse cx="99.9405" cy="100.758" fill="url(#b)" rx="74.9405" ry="75.7576"/><g clip-path="url(#d)"><path d="m138.891 98.6224-35.686-42.1085c-.402-.4745-.9-.8553-1.46-1.1162-.56-.261-1.168-.3961-1.784-.3961-.6158 0-1.2243.1351-1.7841.3961-.5598.2609-1.0577.6417-1.4597 1.1162l-35.686 42.1085c-.6738.7876-1.0449 1.7966-1.0449 2.8406s.3711 2.053 1.0449 2.84l35.686 42.109c.402.475.8999.855 1.4597 1.116s1.1683.396 1.7841.396c.616 0 1.224-.135 1.784-.396s1.058-.641 1.46-1.116l35.686-42.109c.674-.787 1.045-1.796 1.045-2.84s-.371-2.053-1.045-2.8406zm-16.782 4.7196-19.966 23.259c-.272.315-.606.567-.981.739-.375.173-.782.262-1.1939.262-.4116 0-.8185-.089-1.1936-.262-.3751-.172-.7096-.424-.9814-.739l-19.9663-23.252c-.4494-.521-.6972-1.191-.6972-1.884s.2478-1.363.6972-1.8842l19.9663-23.2523c.2718-.3145.6063-.5665.9814-.7391s.782-.2618 1.1936-.2618c.4119 0 .8189.0892 1.1939.2618s.709.4246.981.7391l19.966 23.2523c.45.5212.698 1.1912.698 1.8842s-.248 1.363-.698 1.884z" fill="#fff" fill-opacity=".98" opacity=".4"/><path d="m122.109 99.5809c.45.5211.698 1.1911.698 1.8841s-.248 1.363-.698 1.884l-19.966 23.252c-.272.315-.606.567-.981.739-.375.173-.782.262-1.194.262-.4117 0-.8186-.089-1.1937-.262-.375-.172-.7096-.424-.9814-.739l-19.9663-23.252c-.4494-.521-.6972-1.191-.6972-1.884s.2478-1.363.6972-1.8841l19.9663-23.2523c.2718-.3145.6064-.5665.9814-.7391.3751-.1726.782-.2619 1.1937-.2619.412 0 .819.0893 1.194.2619s.709.4246.981.7391z" fill="#fff" fill-opacity=".95"/><g clip-path="url(#e)" fill="#010101"><path d="m83.1904 68.8979.0012-.0016c.0002.0001.0178.0132.0657.0013.0443-.011.1243-.0463.2534-.1519.0111-.009.0225-.0186.034-.0284l.0026.0026c-.0115.0098-.0229.0194-.0341.0285-.1297.1061-.2114.1403-.2559.1513-.0486.012-.0661-.0013-.0669-.0018z"/><path d="m83.1162 68.7873c-.0002-.0004-.0067-.0118.0095-.0398.0148-.0256.0522-.0707.1468-.14.0646-.0473.142-.0953.2181-.135l.0018.0022c-.0759.0397-.1533.0876-.2178.1349-.1804.1322-.1576.1766-.1573.1771z"/><path d="m83.0792 68.6316c-.0001-.0003-.004-.0276.0095-.0684.0123-.0376.0424-.0948.1153-.1538.0598-.0483.1467-.0865.2383-.1047.0319-.0063.0637-.0101.0947-.0112.0488-.0018.0948.0028.1366.0139l-.0005.0016c-.0416-.011-.0884-.0144-.1371-.0125-.0309.0011-.0627.0049-.0944.0112-.0914.0181-.177.0548-.2366.1031-.0725.0586-.1024.1155-.1147.1528-.0134.0405-.0095.0674-.0095.0677z"/><path d="m83.3433 68.9973.0007-.0015c.0003.0002.0361.0174.0941.0115.0535-.0055.1375-.0325.2335-.1297.0988-.1001.1364-.2096.1505-.284.0163-.0862.009-.1694-.0191-.2171l.0014-.0009c.0284.048.0358.1317.0193.2184-.0142.0745-.0505.1855-.1496.2859-.0964.0976-.1821.1236-.236.1291-.0584.0059-.0945-.0115-.0948-.0117z"/><path d="m83.6911 68.7651c-.0088-.0071-.0164-.0137-.0222-.0189l.0024-.0028c.0282.0254.0985.0837.1428.0774.0111-.0016.0198-.0074.0259-.0172l.0016.0011c-.0063.0103-.0155.0163-.0272.018-.0359.0052-.0892-.0297-.1233-.0576z"/><path d="m83.528 68.583c-.0446-.0622-.0805-.1242-.1068-.1845-.0394-.0902-.0357-.1382-.0265-.1615.0069-.0177.0176-.0225.0181-.0226l.0008.0018c-.0001 0-.0105.0047-.0171.0217-.009.0229-.0115.0691.0276.1585.0262.0601.0621.1221.1066.1841z"/><path d="m83.4756 68.9095c-.0169-.014-.0329-.0285-.0474-.0422-.0286-.027-.0761-.0777-.1208-.1426-.0364-.053-.0836-.1351-.1062-.2191-.0214-.0795-.0176-.1266-.0107-.1521.0075-.0278.02-.0366.0205-.037l.0009.0014c-.0001.0001-.0126.0089-.0199.0363-.0068.0253-.0104.072.0108.1509.0434.1615.1783.3153.2265.361.0664.0627.1635.1421.2401.1071l.0007.0016c-.0607.0277-.1337-.0152-.1945-.0653z"/><path d="m83.2914 68.9521c-.0075-.0061-.0141-.012-.0195-.0173l-.001-.0009c-.0302-.0291-.093-.0896-.147-.2075-.0542-.1182-.0345-.2001-.0343-.2009l.0012.0003c-.0002.0008-.0198.0823.0342.2001.054.1177.1166.178.1467.2071l.001.0009c.0293.0282.0924.0749.1372.0804l-.0001.0012c-.0368-.0045-.0857-.0364-.1184-.0634z"/><path d="m83.409 69.0156.0002-.0005c.0037.0018.0404.0112.074-.0037.0242-.0107.0411-.0313.0502-.0612.0238-.0786-.0062-.1937-.0805-.308-.0317-.0488-.0764-.0976-.1225-.1339-.0363-.0286-.0902-.0627-.1412-.0632-.0448-.0004-.0692.0217-.0817.0403-.0136.0201-.0166.0406-.0167.0408l-.001-.0004c.0001-.0002.0036-.0205.0173-.0407.008-.0119.0181-.0214.0299-.0281.0147-.0084.0323-.0126.0522-.0124.0209.0002.0442.0062.0693.0178.0232.0107.0475.026.0722.0455.0462.0363.0909.0852.1226.1341.0334.0514.059.1052.0738.1556.0174.0589.0196.1103.0067.1528-.0091.03-.0261.0507-.0504.0615-.0338.0149-.0707.0055-.0744.0037z"/><path d="m83.2615 68.6593c-.0378-.0312-.0715-.0411-.0889-.0401-.0306.0018-.0626.0123-.0684.0767-.003.0342.0094.0727.0204.099.0119.0285.0248.0492.0249.0494.0207.0273.0413.0495.0613.066.0446.0368.0786.0388.0993.034.0254-.0058.0417-.0237.0479-.0372.0134-.0289.0146-.1044-.0392-.1839-.017-.0251-.0363-.0466-.0573-.0639zm-.0505.2527c-.02-.0165-.0409-.0384-.0617-.0657-.0008-.0001-.0136-.0214-.0256-.05-.011-.0263-.0238-.0646-.0207-.0988.0027-.03.0119-.0522.0267-.0645.0134-.0112.0299-.0135.0428-.0143.0175-.001.0514.0089.0893.0402.0211.0173.0404.0389.0574.064.0539.0797.0527.1554.0393.1844-.0063.0136-.0228.0316-.0483.0375-.0137.0032-.0283.0027-.0437-.0019-.0179-.0054-.0364-.0151-.0555-.0309z"/><path d="m83.6695 68.9754-.0004-.0014c.0738-.0338.0446-.1502.0305-.2066-.0005-.0022-.001-.0042-.0015-.0062-.0065-.026-.0383-.0993-.0887-.1807-.0429-.0692-.1118-.1642-.1964-.2241-.038-.0269-.0726-.0453-.1029-.0548-.0237-.0074-.0453-.0096-.063-.006-.0254.0053-.035.0202-.0351.0204l-.0011-.0008c.0001-.0002.0099-.0155.0355-.0208.0177-.0036.0401-.0007.0638.0067.0303.0095.065.028.1031.0549.0847.0599.1536.155.1965.2243.0505.0814.0823.1547.0888.1808.0004.002.0009.004.0015.0061.0141.0566.0436.1743-.0306.2082z"/><path d="m83.8391 68.8069c.0209-.0432.0039-.1031-.0124-.1443-.0078-.0194-.0798-.1941-.2301-.3427-.0735-.0727-.1182-.096-.1437-.1036-.0277-.0082-.0381.0008-.0382.0009l-.0016-.0014c.0001-.0001.0106-.0093.0385-.0011.0163.0049.0353.0147.0565.0291.0264.0181.0563.0436.0889.0757.0606.0599.1153.1306.1628.2101.0403.0675.0617.1187.0673.1328.0164.0413.0347.1024.0138.1458z"/><path d="m83.1908 68.8976c-.0278-.0329.0159-.1188.1198-.2357.1085-.1221.2527-.2245.3138-.2616.061-.0371.1184-.0582.1497-.0552.0111.0011.0194.005.0246.0115.007.0087.0059.0192.0059.0193l-.0011.0004c0-.0001.0016-.0109-.0052-.0194-.0051-.0064-.0133-.0102-.0242-.0113-.0158-.0015-.0386.0032-.066.0135-.0259.0098-.0548.0242-.0834.0416-.0611.0371-.2053.1395-.3138.2616-.0534.0601-.0908.1115-.111.1528-.0188.0383-.0207.0654-.0077.0809z"/><path d="m83.2898 68.9686c-.0188-.0155-.0349-.0364-.0479-.0607-.0185-.0349-.0297-.0773-.0323-.1228-.0028-.0498.0042-.1023.0209-.1561.0482-.1549.1529-.2501.211-.2931.0106-.0078.021-.0149.031-.0212.0264-.0166.0762-.0381.1294-.0442l-.0001.0009c-.0531.0061-.1026.0272-.1291.0437-.0099.0063-.0203.0134-.0309.0212-.0581.0429-.1627.1381-.2108.2928-.0321.1032-.028.2047.0114.2785.0241.0453.0602.0768.1015.0888l-.0003.0015c-.0193-.0056-.0375-.0159-.0538-.0293z"/><path d="m83.1537 68.7635c-.0447-.0368-.0702-.0856-.0751-.1471l.001-.001c.0052.0651.033.117.0828.1543.0969.0724.2495.072.3601.0475.089-.0197.1738-.0624.2387-.12.065-.0577.1008-.1223.1009-.182.0001-.0485-.0155-.0838-.0286-.1048-.0141-.0228-.0285-.0343-.0286-.0344l.0003-.0004c.0001.0001.0145.0116.0288.0345.0131.0211.0287.0565.0286.1051 0 .0303-.0093.0618-.0274.0938-.0174.0308-.0422.0606-.0737.0886s-.0679.0525-.1082.073c-.0418.0213-.0858.0371-.1307.0471-.0633.014-.1314.0182-.1917.0118-.0329-.0035-.0636-.0101-.0912-.0195-.0296-.0101-.0557-.0235-.0776-.0399-.0029-.0022-.0057-.0044-.0084-.0066z"/><path d="m83.2499 68.8388c-.0162-.0134-.0316-.028-.0459-.0437-.0608-.0667-.0948-.1452-.0956-.2209-.0004-.0373.0042-.0736.0137-.1077.0075-.0273.0182-.0534.0317-.0775.023-.041.0465-.0623.0468-.0625l.0003.0004c-.0002.0002-.0237.0215-.0466.0624-.0212.0378-.0463.1005-.0454.1849.0018.1648.155.3111.2971.3443.1421.0333.252.0142.3563-.062.1054-.0769.1503-.2156.1143-.3533l.0005-.0001c.0179.0685.0165.138-.0041.2008-.0204.0623-.0585.1152-.1104.1531-.0529.0386-.1065.0622-.1638.0723-.0575.01-.1206.0067-.1929-.0103-.0536-.0125-.1083-.0409-.156-.0802z"/><path d="m83.7445 68.9264-.0004-.0004c.0889-.0763.139-.2049.1308-.3355-.0042-.0669-.0231-.1209-.0383-.1545-.0164-.0364-.032-.0572-.0322-.0574l.0004-.0003c.0002.0002.0158.0211.0323.0575.0152.0336.0341.0877.0383.1546.004.064-.0058.1287-.0283.1871-.0229.0594-.0583.1108-.1026.1489z"/><path d="m83.083 68.5416c.035-.1911.2017-.3313.3964-.3333.025-.0003.0504.0018.0753.0061l-.0002.0013c-.0249-.0044-.0501-.0064-.0751-.0062-.1941.0021-.3603.1418-.3952.3323z"/><path d="m83.4058 69.0147.0003-.0016c.0521.01.1057.0088.1574-.0011l-.0008.0029c-.0518.01-.1047.0099-.1569-.0002z"/><path d="m83.8296 68.829c.0266-.0425.0449-.0892.0544-.139.0094-.0489.0097-.0984.001-.1469-.0057-.0321-.0154-.0635-.0288-.0933l.0004-.0002c.0134.0299.0231.0613.0288.0934.0087.0486.0084.0981-.001.1471-.0095.0498-.0278.0966-.0545.1391z"/><path d="m83.1222 68.793c-.002-.0016-.0037-.0034-.0055-.0053l.001-.001c.0106.0117.0195.0191.0801.011.0604-.0082.2098-.0674.3458-.149.1642-.0986.2369-.1756.2656-.2128.0133-.0173.0178-.032.014-.0429-.0044-.0127-.0194-.0153-.0196-.0153l.0006-.0011c.0002 0 .0152.0037.0197.0166.0039.0112-.0009.0256-.0143.043-.0287.0372-.1015.1143-.2658.2129-.136.0816-.2854.1409-.3459.1491-.049.0066-.0649.0038-.0757-.0052z"/><path d="m83.4219 68.2129.0006.0019c-.0002.0001-.021.007-.0392.0533-.0168.0429-.0346.1291-.0243.2966.0009.0144.002.0294.0033.0445l-.0036.0006c-.0013-.0151-.0024-.0301-.0033-.0445-.0104-.1684.0093-.2554.0263-.2984.0185-.047.0393-.0537.0402-.054z"/><path d="m83.5543 68.2159c.0005.0001.0135.0014.0267.0309.0121.027.0267.084.0278.202.0008.0806-.0054.1721-.0175.2577l-.0028.0003c.012-.0855.0182-.177.0175-.2575-.0021-.2251-.0513-.2321-.0518-.2321z"/><path d="m83.7017 68.2758c.0002.0001.0245.0127.0496.0474.0232.0319.0519.0898.0572.184.0044.0773-.0152.1709-.0536.2569-.0134.0299-.0288.0583-.0458.0845-.0269.0412-.0572.0763-.0904.1043l-.001-.0013c.033-.0279.0628-.0645.0895-.1056.017-.0261.0324-.0544.0457-.0842.0384-.0857.0583-.1775.054-.2545-.0053-.0937-.0339-.1512-.0569-.183-.0249-.0345-.0489-.0469-.0491-.047z"/><path d="m83.2532 68.2811.0008.0015c-.0003.0002-.035.0197-.0638.0708-.0266.0473-.0535.132-.0307.2674.0235.1393.0902.2337.1419.2884.0601.0635.1315.1057.1863.1102l-.0002.0017c-.0551-.0045-.1269-.0469-.1873-.1107-.0519-.0549-.1204-.1491-.1439-.2889-.0229-.1359.0058-.2215.0325-.269.0291-.0516.0641-.0712.0644-.0714z"/><path d="m83.239 68.7018c.0109-.003.0206-.0054.0283-.0071l.0008.0036c-.037.0083-.1253.0321-.1457.0722-.0052.0101-.0056.0206-.0011.0313l-.0018.0008c-.0047-.0112-.0044-.0224.0011-.033.0166-.0325.0759-.056.1184-.0678z"/><path d="m83.4805 68.6731c.076-.0006.1469.0057.2107.019.0956.0199.1322.0508.1457.0718.0103.016.0079.0276.0078.028l-.002-.0004c.0001-.0001.0023-.0113-.0075-.0266-.0134-.0207-.0492-.0495-.1439-.0692-.0637-.0133-.1345-.0196-.2104-.0189z"/><path d="m83.2474 68.4409c.0211-.0058.042-.0105.0615-.0145.0384-.0079.1068-.0176.1851-.0168.0638.0007.1574.0094.2383.0396.0765.0284.1123.0588.1289.0792.0181.0224.0179.0377.0179.0384l-.0016-.0001c0-.0001.0001-.0155-.0177-.0374-.0165-.0202-.0521-.0503-.1281-.0786-.1555-.0578-.3577-.036-.4225-.0227-.0891.0183-.2094.0522-.2255.1355l-.0017-.0003c.0128-.066.0897-.1012.1654-.1223z"/><path d="m83.32 68.2647c.0093-.0026.0178-.0046.0252-.0061l.0014-.0002c.0409-.008.1261-.0247.2525-.0008.1268.0239.1815.0876.182.0882l-.0009.0008c-.0006-.0006-.055-.0639-.1813-.0878-.1262-.0238-.2112-.0072-.2521.0008l-.0013.0003c-.0397.0077-.1139.0326-.1444.0663l-.0009-.0008c.025-.0277.079-.0494.1198-.0607z"/><path d="m83.2006 68.3245.0003.0004c-.0036.002-.0325.0268-.0399.0631-.0054.0261.0014.0519.0203.0767.0495.0652.1598.1072.2951.1123.0577.0022.123-.0063.1791-.0232.044-.0133.1028-.0379.1328-.0797.0263-.0366.0226-.0694.0148-.0905-.0084-.0229-.0232-.0373-.0233-.0374l.0009-.0006c.0001.0001.0145.0148.0229.0378.0049.0135.0067.0273.0053.0409-.0018.017-.0086.0339-.0202.0501-.0123.0171-.0306.0329-.0546.0468-.0221.0129-.0485.024-.0785.0331-.0561.0169-.1214.0254-.1793.0232-.0608-.0023-.1191-.0125-.1683-.0295-.0576-.0198-.1003-.0477-.1271-.083-.019-.0249-.0258-.0508-.0204-.0771.0075-.0365.0365-.0614.0401-.0634z"/><path d="m83.5733 68.4095c.0471-.0131.0746-.0351.0839-.05.0163-.0262.0263-.0586-.0223-.1007-.0258-.0224-.0641-.0344-.0917-.0406-.0299-.0067-.054-.0082-.0543-.0082-.034.0012-.0639.0054-.0887.0123-.0555.0154-.0769.0422-.085.0619-.01.0243-.005.0481.0022.0611.0156.0278.0758.0725.1712.0743.0301.0005.0586-.0029.0847-.0101zm-.1746-.1881c.0249-.0069.0547-.0114.0888-.0127.0005-.0006.0252.0012.0551.0079.0277.0062.0659.0179.0918.0403.0226.0195.0351.04.0365.0593.0013.0176-.0064.0325-.0133.0435-.0093.015-.0369.0372-.0841.0503-.0262.0072-.0548.0106-.0849.0101-.0956-.0018-.156-.0467-.1716-.0745-.0073-.0131-.0123-.0371-.0023-.0615.0054-.0132.0143-.0249.0269-.0349.0148-.0116.0333-.0212.0571-.0278z"/><path d="m83.082 68.5625.0015.0005c-.0156.0803.0953.1237.149.1448.002.0008.0039.0016.0058.0023.0248.0098.1023.0261.1972.0317.0807.0048.1973.0032.2946-.0317.0438-.0157.0787-.0336.1039-.053.0196-.0152.034-.0317.0413-.0484.0105-.0239.004-.0404.0039-.0406l.0013-.0005c.0001.0002.0068.0171-.0038.0413-.0073.0167-.0227.0333-.0424.0486-.0252.0195-.0602.0373-.104.0531-.0974.0349-.2141.0365-.2948.0317-.095-.0056-.1726-.0219-.1974-.0317-.0018-.0008-.0038-.0015-.0058-.0023-.0538-.0212-.1659-.0651-.1503-.1458z"/><path d="m83.1197 68.7995c.0228.0422.081.063.1237.0734.0201.0049.2029.0468.4098.0092.1013-.0184.1459-.0416.1669-.0583.0227-.018.0214-.0318.0214-.0319l.0021-.0005c0 .0001.0013.0142-.0215.0323-.0134.0106-.0323.0206-.0562.0296-.0299.0113-.0678.0212-.1126.0293-.0834.0152-.1722.0193-.2639.0123-.0778-.0059-.1315-.018-.1461-.0216-.0428-.0104-.1027-.0307-.1256-.0731z"/><path d="m83.4219 68.2134c.0426-.0038.0866.0819.1207.2351.0356.1602.0347.3382.0292.41s-.0217.1312-.0423.1552c-.0073.0085-.0152.0131-.0234.0136-.0111.0007-.019-.0063-.0191-.0064l.0004-.0011c0 .0001.0078.0077.0186.007.0081-.0005.0159-.005.0231-.0134.0104-.0121.0199-.0336.0274-.0621.0071-.027.0122-.0591.0148-.0928.0055-.0718.0064-.2498-.0292-.4098-.0175-.0789-.0374-.1394-.059-.1801-.02-.0376-.0407-.0549-.0607-.0531z"/><path d="m83.3077 68.2535c.0234-.0065.0496-.0076.0768-.0042.0388.0049.0795.0203.1177.0446.0419.0265.0801.0627.1139.1077.097.1294.1131.2707.1141.3435.0002.0132-.0001.0259-.0008.0377-.002.0315-.0135.0849-.0394.1322l-.0006-.0006c.0258-.0472.0375-.1002.0395-.1316.0007-.0118.001-.0245.0008-.0377-.0009-.0727-.0171-.2139-.114-.3432-.0647-.0863-.149-.1417-.2313-.1521-.0505-.0064-.0969.0051-.1305.0322l-.001-.0012c.0157-.0126.0345-.0216.0548-.0273z"/><path d="m83.5516 68.2606c.0556-.0154.1097-.0082.1622.0235l.0002.0014c-.0555-.0335-.1136-.0407-.1725-.0213-.1145.0377-.2027.1636-.247.2689-.0356.0847-.0504.1792-.0415.266.0089.0869.0402.1539.0883.1885.0391.0282.0766.0359.1012.0373.0266.0015.0441-.0036.0443-.0037l.0002.0005c-.0002 0-.0179.0052-.0446.0037-.0246-.0014-.0622-.0091-.1014-.0374-.0243-.0175-.0445-.0434-.0598-.0768-.0147-.0322-.0244-.0699-.0287-.1121-.0043-.0421-.003-.0863.0038-.1314.0071-.0467.0198-.0921.0378-.1348.0253-.0603.0614-.1187.1016-.1647.0219-.025.0449-.0465.0685-.0637.0253-.0185.0513-.0322.0772-.0408.0034-.0011.0068-.0021.0102-.0031z"/><path d="m83.4354 68.296c.0201-.0056.0408-.0098.0618-.0125.0891-.0114.172.0062.2336.0494.0303.0213.0569.0461.079.0737.0176.022.0325.0459.0441.071.0197.0427.0233.0744.0233.0747h-.0005c0-.0003-.0036-.0319-.0233-.0745-.0182-.0393-.0543-.0963-.1229-.1445-.134-.094-.3408-.0527-.45.045s-.1574.1992-.1565.3292c.001.1314.0869.2487.2189.2989l-.0002.0005c-.0657-.025-.1209-.0664-.1597-.1198-.0384-.0528-.059-.1149-.0594-.1796-.0005-.0659.0114-.1237.0365-.1767.0252-.0531.0645-.1032.1201-.1529.0412-.0369.0957-.0654.1552-.0819z"/><path d="m83.0781 68.6524.0005-.0001c.0101.1174.0848.2332.1949.3022.0564.0353.111.051.1469.058.0388.0076.0647.0068.0649.0067l.0001.0005c-.0003.0001-.0262.0009-.0651-.0067-.0359-.007-.0906-.0227-.147-.0581-.0539-.0338-.1004-.0793-.1346-.1317-.0346-.0532-.0555-.1123-.0606-.1708z"/><path d="m83.7716 68.3311c.1338.1395.1503.3579.0391.5194-.0143.0208-.0306.0404-.0486.0584l-.0009-.0009c.0179-.0179.0342-.0375.0485-.0582.1108-.161.0944-.3788-.039-.5179z"/><path d="m83.203 68.3224.0011.0012c-.0384.037-.0685.0818-.0903.1302l-.002-.0023c.0219-.0486.0526-.092.0912-.1291z"/><path d="m83.1073 68.7789c.0189.0466.046.0888.0806.1254.0341.0361.0738.065.118.086.0292.0138.0601.0241.092.0304l-.0001.0004c-.0319-.0063-.0629-.0166-.0921-.0305-.0442-.021-.084-.0499-.1181-.086-.0346-.0367-.0618-.0789-.0807-.1255z"/><path d="m83.5461 68.2175c.0024-.0007.0049-.0011.0075-.0014l.0002.0014c-.0156.0019-.0267.0049-.0553.0595-.0284.0545-.0672.2118-.0802.371-.0157.1923.0044.2968.0178.342.0062.0209.0154.0332.0265.0364.0128.0037.0235-.0072.0237-.0073l.0005.0012c-.0001.0001-.0118.0103-.0248.0065-.0113-.0032-.0202-.0156-.0264-.0367-.0134-.0452-.0335-.1498-.0178-.3421.013-.1593.0518-.3167.0803-.3712.023-.0441.0345-.0556.048-.0593z"/><path d="m83.5411 68.8365c-.0005.0034.002.0066.0054.0071.0035.0004.0067-.002.0072-.0055.0004-.0035-.002-.0067-.0055-.0071-.0035-.0005-.0067.002-.0071.0055z"/><path d="m83.3626 68.5542c-.0005.004-.0042.0068-.0081.0063-.004-.0005-.0068-.0042-.0063-.0082.0005-.0039.0042-.0067.0082-.0062.0039.0005.0067.0042.0062.0081z"/><path d="m83.1354 68.6544c-.0003.0025-.0025.0042-.005.0039s-.0042-.0026-.0039-.0051.0026-.0042.0051-.0039c.0024.0004.0042.0026.0038.0051z"/><path d="m83.6794 68.3093c-.0004.0032-.0033.0054-.0064.005-.0032-.0004-.0054-.0033-.005-.0065.0004-.0031.0033-.0053.0065-.0049.0031.0004.0053.0033.0049.0064z"/><path d="m83.4281 68.2155c-.0004.0029-.0031.005-.006.0046s-.005-.0031-.0046-.006.0031-.005.006-.0046.005.0031.0046.006z"/><path d="m83.808 68.3774c-.0004.0029-.0031.0049-.006.0045-.0029-.0003-.005-.003-.0046-.0059s.0031-.005.006-.0046.0049.003.0046.006z"/><path d="m83.349 68.9994c-.0004.0029-.0031.005-.006.0046s-.005-.003-.0046-.006c.0004-.0029.0031-.0049.006-.0045.0029.0003.005.003.0046.0059z"/><path d="m83.7206 68.2757c-.0004.0029-.0031.0049-.006.0046-.0029-.0004-.005-.0031-.0046-.006s.0031-.005.006-.0046.0049.0031.0046.006z"/><path d="m83.3611 68.9003c-.0002.0015-.0017.0026-.0032.0024s-.0026-.0016-.0024-.0032c.0002-.0015.0016-.0026.0031-.0024.0016.0002.0027.0016.0025.0032z"/><path d="m83.1091 68.5051c-.0002.0016-.0016.0026-.0031.0024-.0016-.0002-.0027-.0016-.0025-.0031s.0017-.0026.0032-.0024.0026.0016.0024.0031z"/><path d="m83.6096 68.9878c-.0002.0015-.0016.0026-.0032.0024-.0015-.0002-.0026-.0016-.0024-.0031.0002-.0016.0016-.0027.0032-.0025.0015.0002.0026.0017.0024.0032z"/><path d="m83.3993 69.0213c-.0002.0014-.0015.0025-.003.0023-.0014-.0002-.0024-.0015-.0022-.003.0002-.0014.0015-.0025.0029-.0023.0015.0002.0025.0016.0023.003z"/><path d="m83.3471 68.8304c-.0002.0014-.0016.0024-.003.0023-.0015-.0002-.0025-.0016-.0023-.003.0002-.0015.0015-.0025.003-.0023.0014.0002.0025.0015.0023.003z"/><path d="m83.2406 68.8152c-.0002.0017-.0018.0029-.0035.0027s-.0029-.0018-.0027-.0035.0018-.003.0035-.0027c.0017.0002.0029.0018.0027.0035z"/><path d="m83.2912 68.8591c-.0003.0022-.0023.0038-.0045.0035s-.0038-.0023-.0035-.0045.0023-.0037.0045-.0035c.0022.0003.0038.0023.0035.0045z"/><path d="m83.1792 68.8815c-.0003.002-.0021.0034-.0041.0031-.002-.0002-.0035-.0021-.0032-.0041s.0021-.0034.0041-.0031c.002.0002.0034.0021.0032.0041z"/><path d="m83.5963 68.6529c-.0003.0026-.0027.0044-.0053.0041s-.0044-.0027-.004-.0053c.0003-.0026.0027-.0044.0053-.0041.0025.0004.0044.0027.004.0053z"/><path d="m83.8536 68.7705c-.0003.0026-.0027.0044-.0053.004-.0025-.0003-.0044-.0027-.004-.0053.0003-.0025.0027-.0044.0053-.004.0026.0003.0044.0027.004.0053z"/><path d="m83.5275 68.9052c-.0004.0026-.0027.0045-.0053.0041-.0026-.0003-.0044-.0027-.0041-.0053s.0027-.0044.0053-.0041c.0026.0004.0044.0028.0041.0053z"/><path d="m83.57 69.0133c-.0003.0028-.0029.0047-.0056.0043-.0027-.0003-.0047-.0028-.0043-.0056.0004-.0027.0029-.0046.0056-.0043.0027.0004.0047.0029.0043.0056z"/><path d="m83.8206 68.3725c-.0002.0015-.0017.0026-.0032.0024s-.0026-.0016-.0024-.0032c.0002-.0015.0016-.0026.0031-.0024.0016.0002.0027.0016.0025.0032z"/><path d="m83.1218 68.7934c-.0002.0016-.0016.0027-.0032.0025-.0015-.0002-.0026-.0017-.0024-.0032s.0016-.0026.0032-.0024c.0015.0002.0026.0016.0024.0031z"/><path d="m83.1888 68.7237c-.0003.0025-.0026.0043-.0051.004-.0025-.0004-.0043-.0027-.004-.0052.0004-.0025.0027-.0043.0052-.004.0025.0004.0043.0027.0039.0052z"/><path d="m83.5385 68.5852c-.0006.0045-.0048.0077-.0093.0071-.0046-.0006-.0078-.0047-.0072-.0093.0006-.0045.0048-.0077.0094-.0071.0045.0006.0077.0047.0071.0093z"/><path d="m83.497 68.4734c-.0004.0034-.0036.0059-.0071.0054-.0035-.0004-.0059-.0036-.0055-.0071.0005-.0035.0037-.0059.0072-.0055.0034.0005.0059.0037.0054.0072z"/><path d="m83.418 68.4922c-.0001.0012-.0012.0021-.0025.0019-.0012-.0002-.0021-.0013-.0019-.0025.0002-.0013.0013-.0021.0025-.002.0012.0002.0021.0013.0019.0026z"/><path d="m83.0905 68.7249c-.0002.0015-.0016.0026-.0031.0024s-.0026-.0016-.0024-.0032c.0002-.0015.0016-.0026.0031-.0024.0016.0002.0026.0016.0024.0032z"/><path d="m83.5228 68.6699c-.0003.0017-.0018.0029-.0035.0026-.0017-.0002-.0029-.0017-.0027-.0034.0003-.0017.0018-.0029.0035-.0027s.0029.0018.0027.0035z"/><path d="m83.7044 68.2761c-.0002.0017-.0018.0029-.0035.0026-.0017-.0002-.0029-.0017-.0026-.0034.0002-.0017.0017-.0029.0034-.0027s.0029.0018.0027.0035z"/><path d="m83.1861 68.3589c-.0012-.0001-.0022-.0013-.002-.0026s.0013-.0022.0026-.002c.0013.0001.0022.0013.002.0026-.0001.0012-.0013.0022-.0026.002z"/><path d="m83.7424 68.5245c-.002-.0002-.0033-.002-.0031-.0039.0002-.002.002-.0034.0039-.0031.0019.0002.0033.002.0031.0039s-.002.0033-.0039.0031z"/><path d="m83.6999 68.7314c-.002-.0002-.0033-.002-.0031-.0039.0002-.002.002-.0033.0039-.0031.002.0002.0033.002.0031.0039-.0002.002-.002.0033-.0039.0031z"/><path d="m83.8137 68.6043c-.002-.0002-.0034-.002-.0031-.0039.0002-.0019.002-.0033.0039-.0031s.0033.002.0031.0039c-.0003.002-.002.0034-.0039.0031z"/><path d="m83.8415 68.8088c-.0019-.0002-.0033-.002-.0031-.0039.0002-.002.002-.0033.0039-.0031.002.0002.0033.002.0031.0039s-.002.0033-.0039.0031z"/><path d="m83.6911 68.6236c-.0019-.0002-.0033-.002-.0031-.0039.0002-.002.002-.0033.0039-.0031.002.0002.0034.002.0031.0039-.0002.002-.002.0033-.0039.0031z"/><path d="m83.5217 68.4751c-.002-.0003-.0034-.002-.0031-.004.0002-.0019.002-.0033.0039-.0031.0019.0003.0033.002.0031.004-.0002.0019-.002.0033-.0039.0031z"/><path d="m83.3947 68.8364c-.0019-.0003-.0033-.002-.0031-.0039.0003-.002.002-.0034.004-.0031.0019.0002.0033.002.003.0039-.0002.0019-.002.0033-.0039.0031z"/><path d="m83.4177 68.5177c-.002-.0003-.0034-.002-.0031-.004.0002-.0019.002-.0033.0039-.0031.0019.0003.0033.002.0031.004-.0002.0019-.002.0033-.0039.0031z"/><path d="m83.1911 68.6218c-.0019-.0003-.0033-.002-.0031-.0039.0002-.002.002-.0034.0039-.0031.002.0002.0034.002.0031.0039-.0002.0019-.002.0033-.0039.0031z"/><path d="m83.7711 68.3338c-.0013-.0002-.0022-.0014-.002-.0026.0001-.0013.0013-.0022.0026-.0021.0012.0002.0022.0013.002.0026s-.0013.0022-.0026.0021z"/><path d="m83.2546 68.5262c-.002-.0002-.0033-.002-.0031-.0039.0002-.002.002-.0033.0039-.0031.002.0002.0033.002.0031.0039-.0002.002-.002.0033-.0039.0031z"/><path d="m83.3029 68.982c-.0019-.0002-.0033-.002-.0031-.0039.0003-.002.002-.0033.004-.0031.0019.0002.0033.002.003.0039-.0002.002-.002.0033-.0039.0031z"/><path d="m83.4924 68.2901c-.002-.0002-.0033-.002-.0031-.0039s.002-.0033.0039-.0031.0033.002.0031.0039c-.0002.002-.002.0034-.0039.0031z"/><path d="m83.2585 68.3951c-.002-.0002-.0033-.002-.0031-.0039.0002-.002.002-.0033.0039-.0031.002.0002.0033.002.0031.0039s-.002.0033-.0039.0031z"/><path d="m83.2471 68.7458c-.0027-.0003-.0047-.0029-.0044-.0056.0003-.0028.0029-.0048.0056-.0044.0028.0003.0048.0028.0045.0056-.0004.0028-.0029.0047-.0057.0044z"/><path d="m83.6162 68.957c-.0027-.0002-.0046-.0026-.0044-.0053.0003-.0026.0027-.0046.0054-.0043.0026.0003.0045.0027.0043.0053-.0003.0027-.0027.0046-.0053.0043z"/><path d="m83.4292 69.0211c-.0027-.0002-.0046-.0026-.0044-.0053.0003-.0026.0027-.0046.0053-.0043.0027.0003.0046.0026.0044.0053-.0003.0027-.0027.0046-.0053.0043z"/><path d="m83.5792 68.2295c-.0037-.0004-.0063-.0036-.0059-.0073.0003-.0036.0036-.0062.0072-.0059.0037.0004.0063.0037.0059.0073-.0003.0036-.0036.0063-.0072.0059z"/><path d="m83.8305 68.4734c-.0026-.0003-.0046-.0026-.0043-.0053s.0026-.0046.0053-.0043c.0027.0002.0046.0026.0043.0053-.0002.0026-.0026.0046-.0053.0043z"/><path d="m83.1735 68.3541c-.0038-.0004-.0064-.0038-.006-.0075.0005-.0038.0039-.0064.0076-.006.0037.0005.0064.0039.0059.0076-.0004.0037-.0038.0064-.0075.0059z"/><path d="m83.8741 68.5354c-.0025-.0003-.0042-.0026-.0039-.005.0002-.0025.0025-.0043.005-.004s.0042.0026.0039.005c-.0003.0025-.0025.0043-.005.004z"/><path d="m83.8815 68.5587c-.0013-.0002-.0022-.0014-.0021-.0027.0002-.0013.0014-.0022.0027-.002.0013.0001.0022.0013.002.0026-.0001.0013-.0013.0022-.0026.0021z"/><path d="m83.3551 68.2715c-.0013-.0002-.0022-.0014-.0021-.0027.0002-.0013.0014-.0022.0027-.0021.0013.0002.0022.0014.0021.0027-.0002.0013-.0014.0022-.0027.0021z"/><path d="m83.6315 68.7828c-.0013-.0002-.0022-.0013-.0021-.0026.0002-.0013.0014-.0023.0027-.0021s.0022.0013.002.0026c-.0001.0013-.0013.0023-.0026.0021z"/><path d="m83.6725 68.6934c-.0013-.0001-.0022-.0013-.0021-.0026.0002-.0013.0014-.0022.0027-.0021.0013.0002.0022.0014.002.0027-.0001.0013-.0013.0022-.0026.002z"/><path d="m83.6627 68.2467c-.0013-.0002-.0022-.0014-.002-.0027.0001-.0013.0013-.0022.0026-.002.0013.0001.0022.0013.0021.0026-.0002.0013-.0014.0022-.0027.0021z"/><path d="m83.6989 68.5673c-.0013-.0001-.0023-.0013-.0021-.0026s.0013-.0022.0026-.0021c.0013.0002.0023.0014.0021.0027s-.0013.0022-.0026.002z"/><path d="m83.6647 68.4416c-.0013-.0001-.0022-.0013-.0021-.0026.0002-.0013.0014-.0022.0027-.0021.0013.0002.0022.0013.002.0026-.0001.0013-.0013.0023-.0026.0021z"/><path d="m83.0704 68.61c-.0013-.0002-.0022-.0014-.002-.0027.0001-.0013.0013-.0022.0026-.0021.0013.0002.0022.0014.0021.0027-.0002.0013-.0014.0022-.0027.0021z"/><path d="m83.3793 68.9344c-.0042-.0005-.0072-.0043-.0067-.0086.0005-.0042.0044-.0072.0086-.0067s.0072.0044.0067.0086-.0043.0072-.0086.0067z"/><path d="m83.7767 68.7819c-.0023-.0003-.004-.0024-.0037-.0048s.0024-.004.0048-.0038c.0023.0003.004.0025.0037.0048-.0002.0024-.0024.0041-.0048.0038z"/><path d="m83.3632 69.007c-.0024-.0003-.0041-.0024-.0038-.0048s.0024-.004.0048-.0038c.0024.0003.004.0025.0038.0048-.0003.0024-.0025.0041-.0048.0038z"/><path d="m83.4849 69.0237c-.0024-.0003-.0042-.0026-.0039-.0051s.0025-.0042.005-.0039.0043.0025.004.005-.0026.0043-.0051.004z"/><path d="m83.7608 68.9125c-.0025-.0003-.0042-.0026-.0039-.0051s.0025-.0042.005-.0039.0042.0025.0039.005-.0025.0042-.005.004z"/><path d="m83.2535 68.2871c-.0025-.0003-.0043-.0026-.004-.005.0003-.0025.0026-.0043.0051-.004s.0042.0026.0039.005c-.0003.0025-.0025.0043-.005.004z"/><path d="m83.3106 68.7446c-.0025-.0003-.0042-.0025-.0039-.005s.0025-.0043.005-.004.0042.0026.0039.0051c-.0002.0024-.0025.0042-.005.0039z"/><path d="m83.2852 68.5842c-.0024-.0003-.0042-.0025-.0039-.005s.0025-.0043.005-.004.0043.0026.004.0051c-.0003.0024-.0026.0042-.0051.0039z"/><path d="m83.3585 68.6841c-.0025-.0003-.0043-.0026-.004-.0051.0003-.0024.0026-.0042.0051-.0039.0024.0003.0042.0025.0039.005s-.0025.0043-.005.004z"/><path d="m83.1134 68.4557c-.0025-.0003-.0043-.0026-.004-.0051.0003-.0024.0026-.0042.005-.0039.0025.0003.0043.0025.004.005s-.0026.0043-.005.004z"/><path d="m83.8453 68.4642c-.0016-.0002-.0027-.0017-.0025-.0033s.0016-.0027.0032-.0025.0028.0016.0026.0032-.0017.0028-.0033.0026z"/><path d="m83.4254 68.862c-.0016-.0002-.0027-.0016-.0025-.0032s.0016-.0028.0032-.0026.0027.0017.0026.0033c-.0002.0016-.0017.0027-.0033.0025z"/><path d="m83.851 68.4928c-.0018-.0002-.0031-.0019-.0028-.0037.0002-.0018.0018-.0031.0036-.0029s.0031.0019.0029.0037-.0018.0031-.0037.0029z"/><path d="m83.2834 68.4792c-.0029-.0004-.0049-.003-.0046-.0058.0004-.0029.003-.005.0059-.0046.0028.0003.0049.0029.0045.0058-.0003.0029-.0029.0049-.0058.0046z"/><path d="m83.2072 68.8024c-.0028-.0003-.0049-.0029-.0045-.0058.0003-.0029.0029-.0049.0058-.0046.0029.0004.0049.003.0046.0058-.0004.0029-.003.005-.0059.0046z"/><path d="m83.2649 68.7023c-.0029-.0003-.005-.0029-.0046-.0058.0003-.0029.0029-.0049.0058-.0046.0029.0004.0049.003.0046.0058-.0004.0029-.003.005-.0058.0046z"/><path d="m83.5542 68.2195c-.0021-.0002-.0036-.0022-.0034-.0043.0003-.0021.0022-.0036.0043-.0034.0021.0003.0037.0022.0034.0043-.0003.0022-.0022.0037-.0043.0034z"/><path d="m83.4341 68.2561c-.0021-.0002-.0037-.0022-.0034-.0043.0002-.0021.0022-.0036.0043-.0034.0021.0003.0036.0022.0034.0043-.0003.0022-.0022.0037-.0043.0034z"/><path d="m83.6711 68.7521c-.0041-.0005-.007-.0042-.0065-.0083.0005-.004.0042-.0069.0083-.0064.004.0005.007.0042.0065.0082-.0005.0041-.0042.007-.0083.0065z"/><path d="m83.4796 68.6837c-.0052-.0006-.009-.0054-.0083-.0106.0006-.0053.0053-.009.0106-.0084.0052.0007.009.0054.0083.0107-.0006.0052-.0054.0089-.0106.0083z"/><path d="m83.2238 68.4437c-.0041-.0005-.0069-.0042-.0065-.0082.0005-.0041.0042-.007.0083-.0065.004.0005.0069.0042.0064.0082-.0005.0041-.0042.007-.0082.0065z"/><path d="m83.1194 68.8132c-.0038-.0004-.0065-.0039-.0061-.0077.0005-.0038.0039-.0065.0077-.006.0038.0004.0065.0039.006.0077-.0004.0038-.0038.0065-.0076.006z"/><path d="m83.459 68.9349c-.0012-.0002-.0021-.0013-.002-.0025.0002-.0012.0013-.0021.0025-.002.0013.0002.0021.0013.002.0025-.0002.0012-.0013.0021-.0025.002z"/><path d="m83.5757 68.3499c-.0012-.0001-.0021-.0013-.002-.0025.0002-.0012.0013-.0021.0025-.0019.0013.0001.0021.0012.002.0025-.0002.0012-.0013.0021-.0025.0019z"/><path d="m83.4995 68.2193c-.0012-.0002-.0021-.0013-.0019-.0025.0001-.0012.0012-.0021.0025-.0019.0012.0001.0021.0012.0019.0024-.0001.0013-.0013.0021-.0025.002z"/><path d="m83.6411 68.7382c-.0012-.0001-.0021-.0012-.0019-.0025.0001-.0012.0012-.0021.0025-.0019.0012.0001.0021.0012.0019.0025-.0001.0012-.0013.0021-.0025.0019z"/><path d="m83.5152 68.2385c-.0013-.0002-.0021-.0013-.002-.0025s.0013-.0021.0025-.002c.0012.0002.0021.0013.0019.0025-.0001.0012-.0012.0021-.0024.002z"/><path d="m83.8296 68.8314c-.0012-.0002-.0021-.0013-.0019-.0025.0001-.0013.0012-.0021.0024-.002.0013.0002.0021.0013.002.0025-.0002.0012-.0013.0021-.0025.002z"/><path d="m83.4863 68.7464c-.0012-.0002-.0021-.0013-.0019-.0025.0001-.0012.0012-.0021.0025-.0019.0012.0001.0021.0012.0019.0024-.0001.0013-.0012.0021-.0025.002z"/><path d="m83.8648 68.4206c-.0013-.0002-.0021-.0013-.002-.0025.0002-.0012.0013-.0021.0025-.0019.0012.0001.0021.0012.0019.0024-.0001.0013-.0012.0021-.0024.002z"/><path d="m83.1299 68.6916c-.0012-.0002-.0021-.0013-.002-.0025.0002-.0012.0013-.0021.0025-.002.0013.0002.0021.0013.002.0025-.0002.0013-.0013.0021-.0025.002z"/><path d="m83.8237 68.6885c-.0012-.0001-.0021-.0012-.0019-.0025.0001-.0012.0013-.002.0025-.0019s.0021.0013.0019.0025c-.0001.0012-.0012.0021-.0025.0019z"/><path d="m83.7944 68.5351c-.0012-.0002-.0021-.0013-.0019-.0025.0001-.0012.0013-.0021.0025-.0019.0012.0001.0021.0012.0019.0024-.0001.0013-.0012.0021-.0025.002z"/><path d="m83.4234 68.6027c-.0013-.0001-.0021-.0012-.002-.0025.0001-.0012.0013-.0021.0025-.0019.0012.0001.0021.0012.0019.0025-.0001.0012-.0012.0021-.0024.0019z"/><path d="m83.7904 68.5939c-.0036-.0004-.0061-.0036-.0057-.0072.0004-.0035.0037-.006.0072-.0056s.0061.0036.0056.0072c-.0004.0035-.0036.006-.0071.0056z"/><path d="m83.0823 68.5472c-.0035-.0005-.006-.0037-.0056-.0072.0004-.0036.0036-.0061.0072-.0057.0035.0005.006.0037.0056.0072-.0004.0036-.0036.0061-.0072.0057z"/><path d="m83.3607 68.6156c-.0036-.0004-.0061-.0036-.0057-.0071.0005-.0036.0037-.0061.0072-.0057.0035.0005.0061.0037.0056.0072-.0004.0035-.0036.0061-.0071.0056z"/><path d="m83.5467 68.7245c-.0035-.0004-.0061-.0036-.0056-.0071.0004-.0036.0036-.0061.0071-.0057.0036.0004.0061.0037.0057.0072-.0005.0035-.0037.0061-.0072.0056z"/><path d="m83.8797 68.5739c-.0035-.0004-.0061-.0036-.0056-.0072.0004-.0035.0036-.006.0071-.0056.0036.0004.0061.0036.0057.0072-.0004.0035-.0037.006-.0072.0056z"/><path d="m83.6243 68.849c-.0035-.0004-.006-.0036-.0056-.0071.0004-.0036.0036-.0061.0072-.0057.0035.0005.006.0037.0056.0072s-.0036.0061-.0072.0056z"/><path d="m83.8543 68.5299c-.0035-.0004-.006-.0036-.0056-.0071.0004-.0036.0036-.0061.0072-.0057.0035.0005.006.0037.0056.0072-.0004.0036-.0036.0061-.0072.0056z"/><path d="m83.0791 68.6167c-.0024-.0003-.0042-.0025-.0039-.005.0003-.0024.0026-.0042.005-.0039.0025.0003.0042.0025.0039.005s-.0025.0042-.005.0039z"/><path d="m83.5887 68.7145c-.0035-.0004-.0061-.0036-.0056-.0072.0004-.0035.0036-.006.0071-.0056.0036.0004.0061.0036.0057.0072-.0005.0035-.0037.006-.0072.0056z"/><path d="m83.5995 68.4265c-.0017-.0002-.003-.0018-.0028-.0036s.0018-.003.0036-.0028.003.0018.0028.0036c-.0002.0017-.0018.003-.0036.0028z"/><path d="m83.4623 68.385c-.0018-.0002-.003-.0018-.0028-.0036s.0018-.0031.0036-.0028c.0018.0002.003.0018.0028.0036-.0002.0017-.0018.003-.0036.0028z"/><path d="m83.3432 68.2604c-.0018-.0003-.0031-.0019-.0028-.0036.0002-.0018.0018-.0031.0036-.0029.0017.0002.003.0019.0028.0036-.0002.0018-.0018.0031-.0036.0029z"/><path d="m83.2109 68.3198c-.0018-.0002-.0031-.0018-.0029-.0036s.0019-.003.0036-.0028c.0018.0002.0031.0018.0029.0036-.0003.0018-.0019.003-.0036.0028z"/><path d="m83.0785 68.6322c-.0017-.0002-.003-.0018-.0028-.0036s.0018-.0031.0036-.0028c.0018.0002.0031.0018.0028.0036-.0002.0017-.0018.003-.0036.0028z"/><path d="m83.6015 68.2741c-.0015-.0002-.0025-.0015-.0024-.003.0002-.0015.0016-.0026.0031-.0024s.0025.0015.0023.003c-.0001.0015-.0015.0026-.003.0024z"/><path d="m83.8911 68.6851c-.0015-.0002-.0026-.0015-.0024-.003s.0015-.0026.003-.0024.0026.0015.0024.003-.0015.0026-.003.0024z"/><path d="m83.6127 68.5966c-.0014-.0002-.0025-.0015-.0023-.003s.0015-.0026.003-.0024.0026.0015.0024.003-.0016.0026-.0031.0024z"/><path d="m83.2558 68.6307c-.0012-.0001-.002-.0012-.0019-.0024.0002-.0012.0013-.0021.0025-.0019.0012.0001.002.0012.0019.0024-.0002.0012-.0013.0021-.0025.0019z"/><path d="m83.2104 68.6393c-.0018-.0002-.0031-.0019-.0029-.0037.0003-.0018.0019-.0031.0037-.0029.0019.0002.0032.0019.0029.0037-.0002.0018-.0018.0031-.0037.0029z"/><path d="m83.1067 68.7821c.0017.0002.0032-.001.0034-.0027s-.001-.0032-.0027-.0034-.0032.001-.0034.0027.001.0032.0027.0034z"/><path d="m83.8762 68.6886c.0017.0002.0032-.001.0034-.0027s-.001-.0032-.0026-.0034c-.0017-.0002-.0032.001-.0034.0027s.001.0032.0026.0034z"/><path d="m83.2351 68.314c-.001-.0001-.0018-.0011-.0017-.0022s.0011-.0019.0022-.0017c.0011.0001.0019.0011.0017.0022-.0001.0011-.0011.0018-.0022.0017z"/><path d="m83.6126 68.2325c-.0011-.0002-.0019-.0012-.0017-.0022.0001-.0011.0011-.0019.0022-.0018.001.0002.0018.0011.0017.0022s-.0011.0019-.0022.0018z"/><path d="m83.4236 68.3851c-.0011-.0002-.0018-.0012-.0017-.0023.0001-.001.0011-.0018.0022-.0017s.0019.0011.0017.0022c-.0001.0011-.0011.0019-.0022.0018z"/><path d="m83.4402 68.2425c-.0011-.0002-.0018-.0011-.0017-.0022s.0011-.0019.0022-.0018c.0011.0002.0019.0012.0017.0022-.0001.0011-.0011.0019-.0022.0018z"/><path d="m83.0799 68.5706c-.0011-.0001-.0019-.0011-.0018-.0022.0002-.0011.0012-.0019.0022-.0017.0011.0001.0019.0011.0018.0022-.0002.0011-.0011.0018-.0022.0017z"/><path d="m83.6155 68.2305c-.0011-.0001-.0018-.0011-.0017-.0022s.0011-.0019.0022-.0017c.0011.0001.0018.0011.0017.0022s-.0011.0018-.0022.0017z"/><path d="m83.6888 68.9184c-.0011-.0002-.0019-.0011-.0018-.0022.0002-.0011.0011-.0019.0022-.0018.0011.0002.0019.0012.0018.0022-.0002.0011-.0012.0019-.0022.0018z"/><path d="m83.7439 68.9283c-.0011-.0002-.0018-.0012-.0017-.0022.0001-.0011.0011-.0019.0022-.0018.0011.0002.0019.0011.0017.0022-.0001.0011-.0011.0019-.0022.0018z"/><path d="m83.6487 68.7929c-.0011-.0001-.0018-.0011-.0017-.0022s.0011-.0019.0022-.0017c.0011.0001.0019.0011.0017.0022-.0001.001-.0011.0018-.0022.0017z"/><path d="m83.8001 68.3471c-.0011-.0001-.0019-.0011-.0017-.0022.0001-.0011.0011-.0019.0022-.0017.001.0001.0018.0011.0017.0022-.0001.001-.0011.0018-.0022.0017z"/><path d="m83.8904 68.6498c-.0011-.0001-.0018-.0011-.0017-.0022s.0011-.0018.0022-.0017.0019.0011.0017.0022c-.0001.0011-.0011.0019-.0022.0017z"/><path d="m83.8767 68.5049c-.001-.0001-.0018-.0011-.0017-.0022s.0011-.0018.0022-.0017.0019.0011.0017.0022c-.0001.0011-.0011.0019-.0022.0017z"/><path d="m83.3777 68.3471c-.0011-.0001-.0018-.0011-.0017-.0022s.0011-.0019.0022-.0017c.0011.0001.0019.0011.0017.0022-.0001.001-.0011.0018-.0022.0017z"/><path d="m83.2259 68.9731c-.0011-.0002-.0019-.0012-.0018-.0022.0002-.0011.0012-.0019.0022-.0018.0011.0002.0019.0011.0018.0022-.0002.0011-.0011.0019-.0022.0018z"/><path d="m83.8562 68.4515c-.001-.0002-.0018-.0012-.0017-.0022.0001-.0011.0011-.0019.0022-.0018.0011.0002.0019.0011.0017.0022-.0001.0011-.0011.0019-.0022.0018z"/><path d="m83.3094 68.6282c-.0011-.0001-.0019-.0011-.0018-.0022.0002-.0011.0011-.0018.0022-.0017s.0019.0011.0018.0022c-.0002.0011-.0012.0018-.0022.0017z"/><path d="m83.1653 68.3592c-.0011-.0002-.0018-.0011-.0017-.0022s.0011-.0019.0022-.0018c.0011.0002.0019.0012.0017.0022-.0001.0011-.0011.0019-.0022.0018z"/><path d="m83.4285 68.9683c-.0011-.0001-.0019-.0011-.0017-.0022.0001-.0011.0011-.0019.0022-.0017.0011.0001.0018.0011.0017.0022s-.0011.0018-.0022.0017z"/><path d="m83.0784 68.6542c-.0011-.0001-.0019-.0011-.0017-.0022.0001-.0011.0011-.0018.0022-.0017s.0018.0011.0017.0022-.0011.0018-.0022.0017z"/><path d="m83.3245 68.3075c-.0011-.0001-.0019-.0011-.0017-.0022.0001-.0011.0011-.0018.0022-.0017s.0018.0011.0017.0022-.0011.0019-.0022.0017z"/><path d="m83.617 68.3196c-.0011-.0001-.0019-.0011-.0018-.0022.0002-.0011.0012-.0018.0023-.0017.001.0001.0018.0011.0017.0022s-.0011.0019-.0022.0017z"/><path d="m83.6307 68.6122c-.0011-.0001-.0019-.0011-.0018-.0022.0002-.0011.0011-.0018.0022-.0017s.0019.0011.0018.0022c-.0002.0011-.0012.0019-.0022.0017z"/><path d="m83.3631 68.2146c-.0011-.0001-.0019-.0011-.0018-.0022.0002-.001.0012-.0018.0022-.0017.0011.0001.0019.0011.0018.0022-.0002.0011-.0011.0019-.0022.0017z"/></g></g></g></svg>