<svg xmlns="http://www.w3.org/2000/svg" width="200" height="200" viewBox="0 0 200 200"><path d="M33.3,96.6V96l-1.1-1.5c.1-.7.7-.3,1-.5a1.6,1.6,0,0,1,.8.5c1.3,1.1,1.9,1.1,3.4.3a3.7,3.7,0,0,1,1.4-.4,22,22,0,0,0,4.4-1.2c1.2-.4,2.4-.1,3.6-.4a.5.5,0,0,1,.4.5c0,.2-.2.4,0,.8s1.4.6,1.4,1.6-.8.2-1.1.2-.1-.5-.5-.7-1,1.9-1.3,2.8-.6.2-1,.4-.8,1-1.5,1.3.6,0,.8.3.1.6.4.9.9-.5,1.2.1-.4.8-.3,1.2,1.9.8,3.2-.2a1.7,1.7,0,0,1,1.2.5,1.7,1.7,0,0,0,1,.3c.9,0,1.3.5,1.5,1.5s-2.4.5-3.5-.1a1.9,1.9,0,0,0-1.3.9c3.9.6,7.6.3,11.4.3s4.6-.2,7,0l1.2-.2a1.8,1.8,0,0,1,1.4.4c0,.6-.6.5-.8.8a.9.9,0,0,0,.3.6c.5-.7,1.4-.3,2-.8l1.3.5c.3.6,0,1.4.2,1.9s.7.2,1.1.4.7.8,1.1,1.2a2.3,2.3,0,0,1-.9,1.5c-.5.1-.7-.4-1-.5s-1.1.5-1.7.6-.2.5-.5.7-.7.1-1,.3l-1.2-.5c0,.1.1.3,0,.5a2.5,2.5,0,0,1-1.2.1,3.9,3.9,0,0,1-3,.2c-.4.1-.8.5-1.3.6a10.3,10.3,0,0,0,1.7.1c.5.2.5.6.7.8s.7,0,1-.2a2.1,2.1,0,0,1,2.5.2c0,.5-.3.7-.7.9h-1a10.8,10.8,0,0,1-7.7,1.1l-1.3,1.1.2-1.4c-1.7-.1-1.1-1.8-1.8-2.7a.7.7,0,0,1-.6.3,2.7,2.7,0,0,0-1.3-.7c-.4-.6-.5-1.1.1-1.6s-1.5-1.1-2.5-.7c-2.5-1.5-5.3-2.5-6.5-5.3-.5,0-.5.5-.8.6l-1.6-1c-1.3.7-2.1,2.4-4,1.8s-1.9.4-2,1.3c-4.7.9-8.2,4.2-12.2,6.2a.8.8,0,0,1-.2-1.2,3.5,3.5,0,0,1,.8-1.3c-.6,0-.8.5-1.2.7a2,2,0,0,0-2-.1H20.3a7,7,0,0,0-3.2.2,6.7,6.7,0,0,0-2.5-.2c-.6,0-1.3-.1-1.4-1a2.8,2.8,0,0,1,1.5-.6,5,5,0,0,0,2.1-.9c.5-.4,1.1-.2,1.8-.2s.8-.4,1.4-.3a42.2,42.2,0,0,0,6.9-2.1c.1-.9.9-1.1,1.3-1.7s0-1.4.9-1.4.5.4.7.7,1-1.4,1.9-1,.9-.9.8-1.5c1.5-.5,1.5-.5,1.3-2L33.5,99a11.5,11.5,0,0,0-2.8.7,2.4,2.4,0,0,1-1-1.3,6.8,6.8,0,0,1,2.7-1.3A2,2,0,0,0,33.3,96.6Z" style="fill:#776456"/><path d="M47.2,93.2a23.3,23.3,0,0,0-3.8.4c-2.6.6-5.1,1.4-7.6,2.1s-1.7-1.8-3.2-1.4l-.3.2c-1.8-1.6-2.4-4-4.6-5.3,0-.1-.2,0-.4.1l-.3-1h-.9a1.3,1.3,0,0,0-.6-1.3l-.6.4-.4-1.3-1.1-.4c.9-.6,1.5.2,2.2.3l-.2-1.2,1.4.8-2.5-4.3c.5-.3,1.3-.2,1.6-.9s-1.2-.8-.7-1.7,1.5.3,2.7.9l-1.5-1.7h1.2l.5-1.1c-1.4-1.4-2.2-3.2-3.8-4.3,2.2,1.7,5,2.1,7.7,3.3,1.1-.1,1.9,1.3,3.1,1.6l.2-1.7c.8.1.6.7.9,1.1s2.5,1.2,3.7,1.8,0,.6-.1.9.5.3.6.6-.4.4-.5.8,1.1.6,1.4,1.2-.3.8,0,1.3.8-.2,1.3-.1a3.2,3.2,0,0,0,2.1.8c.6,1.4,2.3,2,2,3.7s1-.1,1.3.4.1.3.1.4.6-.2,1,0A6.4,6.4,0,0,1,51.4,92C50.3,93.3,48.7,92.9,47.2,93.2Z" style="fill:#9a8c81"/><path d="M75.7,169.1l-1.4,1.2c2.1-4.2,2.6-8.1,3.8-11.8.6-.3.8.1.9.6s.1,1,.7,1.2.4-.2.6-.3a2,2,0,0,1,2.7-.6l1.5.5a.9.9,0,0,1,.9.5c.6,1,1.7,1.3,2.6,1.9l.5.2a12.3,12.3,0,0,0,3.3-.3c-2.8-1.3-6.1-1.4-8.8-3.4.7-2.1,1.1-4.3,1.8-6.4.3-.4.6-.3,1-.3a4.2,4.2,0,0,0,2.9-.9l.8-.6c1.3-1,2.6-1,4.3.4.3-.7.7-1,1.5-.6a1.7,1.7,0,0,1,.1,1.4c-.6,2.7-1.5,5.3-2.1,8a2.2,2.2,0,0,1-.1.9c-.3-.9,1-1.3.9-2.3s1.2-.3,1.1-1.2-.7-.9-.5-1.6.7,0,1.2-.2,0-.6.3-.9.8,0,1.1,0a.5.5,0,0,0,.1-.6c-.4-.2-1,0-1.3-.5a.5.5,0,0,1,.1-.6,4.1,4.1,0,0,1,1.6-.3c.4-.1.5-.8,1.3-.5s1.1,1.8-.2,2.6c.6,2.1-.5,3.9-.5,5.7s1.8.8,2.2,1.7a.6.6,0,0,1,0,.6,1.1,1.1,0,0,0-1,.5c-.9-.2-1-1-1.5-1.4s-.5,1.1-1.1,1.1-.9.5-1.4.3-.2-.6-.5-.8-.7.6-.7,1.1a.8.8,0,0,1-.8.1c.3,1.5-.1,2.6-1.7,3a2.8,2.8,0,0,1,0,2.5c-.5-.2-.8-.8-1.5-.5s-.2,1-.2,1.5,0,1.1-.4,1.5-1.3-.2-1.6-1-.2-.9-.9-.9.1,1.6-.7,2.3a22.5,22.5,0,0,1-5.6-1.2l-1.4-1a4.3,4.3,0,0,0-1-.9c-1.4-.8-1.7-1.6-1.2-3.2a16.3,16.3,0,0,0-1,2.5C76.2,168.5,76.1,168.9,75.7,169.1Z" style="fill:#584638"/><path d="M148.1,154.7l22.3,13.7c5.4,3.4,9.9,8,14.5,12.2.1.2.2.3.2.5s.1.1,0,.2-.7.1-1.1,0l-7.1-2.3a109.5,109.5,0,0,1-10.6-4.6,2.6,2.6,0,0,1-1.1-.7l-.5-.6a14.5,14.5,0,0,1-3.6-2.5,8.8,8.8,0,0,0-2.8-1.7,37.9,37.9,0,0,1-3.4-2c-1.1-.6-2.2-1.1-3.3-1.8a1.9,1.9,0,0,0-1-.3,14.8,14.8,0,0,1-3.3-1.7.6.6,0,0,1-.3-.7c.1-.3.3-.4.4-.4a4,4,0,0,0-.4-2.2c.1-.4.7-.4.8-1s-1.2-.9-.9-1.8a3.1,3.1,0,0,0,.4-2.3C147.7,154.4,147.9,154.7,148.1,154.7Z" style="fill:#7e8986"/><path d="M81,170.7l5.6,1c.5-.7.2-1.6.2-2.6l1.4.3c.4.8.2,2.1,1.6,2s-.4-2.4.4-3.4a1.7,1.7,0,0,1,1.8.9,2.7,2.7,0,0,1,.5,1.4c.1-.2.1-.5.5-.7s1.1,1.4,2.1,1.8-.6-2.1-.8-3.1-.3-1,.4-1.1,1.5.9,2.2,1.5.2.4,0,.5l-1,1c2.6,2.3.1,2.8-1.4,3.7l.7,2.4-2.1,1.4,1.4,2.8c-.5.9-1.4.8-2.1,1.1s1.3,3.2,0,4.8H90.9c.6,2.2-.1,4.5,1,6.7l-1.2.2c-.5,0-.5-.4-.7-.6l-.6-1.4a7.9,7.9,0,0,0-9.5-4.3l-.9.3c-.3,0-.6.1-.6-.4s1.4-.7,1.5-1.7l-.7-.6c.1-.5.6-.5.9-.6,1.9-.6,3.9-.2,5.8.1s2,.5,3,.1-.3-1.4-.5-2a2.7,2.7,0,0,0-1.7-.6l-3.7-.2a3.4,3.4,0,0,1-2.8-1.3l-1-.3c.1-.7.7-.6,1.1-.7a17.3,17.3,0,0,1,5.1.3,7.8,7.8,0,0,0,3.4.1,9.7,9.7,0,0,0,0-1.7,6.9,6.9,0,0,0-5.4-2.5H81.7a2.7,2.7,0,0,1-2.3-1.8c0-.4.4-.5.6-.8s-.2-.5-.2-.7Z" style="fill:#281d15"/><path d="M58,47.6l.6-2.3a47.5,47.5,0,0,0,1.7-4.9A60.3,60.3,0,0,1,68.6,25a40.4,40.4,0,0,1,7-7.3,59.8,59.8,0,0,1,5.7-3.6c.3-.3.1-.7.3-1s.7.3,1.2.3.9-1,1.7-.6.1.4.1.7a1.2,1.2,0,0,1-.5.5c-1,.3-2,.5-2.5,1.5s-1.1.2-1.6.6.3.3.4.4a4.2,4.2,0,0,1,1.7-1c.5,0,.7.4,1.1.6a4.6,4.6,0,0,1,2.6.1c.3.2.3.6.5.8a3.1,3.1,0,0,0,1.9-.4c.8-.5.9-.6,1.5.2a3.3,3.3,0,0,1-.6,1c-.5.3-1,.1-1.5.1s-1.8.5-2.6,1a.7.7,0,0,0-.4.4c-1.5.4-2.7-.3-3.9,0,1.4-.2,2.7.6,4,.1a1,1,0,0,1-.2,1.4c-2-.6-4.2,0-6.4-.5a4.7,4.7,0,0,1-1.4.4c-.5.2-.5.9-1,.9s-.3-.4-.5-.6-.6.7-1,1,1.3-.3,1.8-.1.4.6.6.8a.4.4,0,0,1-.3.6c-1.4.3-2.6,1.3-3.9,1.6a1.3,1.3,0,0,0-.4,1.7c-.3.6-.7.3-1.1.4S70,28.8,69,29.3s-1,1.2-1.2,2.1.6-.2.8.2a1.1,1.1,0,0,1,0,.8,3.2,3.2,0,0,1-1.8,1.8,2.8,2.8,0,0,0,.1.9c.3.3,1,.2,1,.8s-.9.5-1.4,1-1.2,1.7-1.6,2.7a2,2,0,0,0,.2.7c.3.4.7.2,1,.6s-.5.6-.7.8-.2.7-.5.9.8-.1,1,.3-.5.4-.8.7.5,1.3-.4,1.6-.5,1.1-1,1.1.8-.7,1.4-.2-.3.6-.6.8h0c.2-.2.4-.2.5-.1s-1,.4-.6,1.2,1.2.1,1.1.8a4.9,4.9,0,0,1-.2,2.1c.1.3.5.3.6.8s-2.5.2-3.6.9.6.6.1,1l-1.5.3c-.6-.1-1.1.1-1.6-.2a.8.8,0,0,1-.1-.7c.9-.3.9-1.3,1.3-2.1a5.4,5.4,0,0,0,1.8,0c-.2-.1-.6.2-.9-.2s.6-.6.4-1a28.3,28.3,0,0,1-2.5,2.4c-.4.3-.6.2-1.3-.2a8.6,8.6,0,0,1,.5-2.7A10.9,10.9,0,0,0,58,47.6Z" style="fill:#76736f"/><path d="M47.2,93.2l4.2-1.1-2.3-3.3-1.3.4v-.8l.4-.2-1.4-1c.1-.7.6-.9,1.1-1.2l1,.4c-.7-.4-1.6-.5-2.1-1.3s-.5-.5.1-.7c3.8,2.7,7.5,5.7,11.8,7.6a2.5,2.5,0,0,1,1.9.7c.2.8-.5.7-.8.9s.2.5.1.9-.9,1.4-2.4.9a1.3,1.3,0,0,0-1.3.3,4.9,4.9,0,0,0-1,1.9c-.9.1-1.7.9-2.8.7a12.1,12.1,0,0,0-.3,1.4c.5.5.9,0,1.3.1s.7.3,1.1.3.7-.4,1.3-.4a2.6,2.6,0,0,0,1.6.3,7.9,7.9,0,0,1,2.6.8c.3.1.4.3.2.6s.3-.3.6-.1.1,1.2.8,1.4a2.8,2.8,0,0,1-.4,1.8c-.7.4-1.9.1-2.4,1.1a76.2,76.2,0,0,1-11.7-.2c0-1.1,1.1-1,1.4-1.8,1.1,1.1,2.3.4,3.6.7l-.6-1.1H50.3L48.5,102c.2.9-.6.8-1.1,1.1l-.5-.3-.2.5-1.7-.8a1.4,1.4,0,0,1,.6-1.3c-.7-1-.8.6-1.5.1v-1.2H42.2c1.6-.5,1.9-2.3,3.4-2.1l1.3-3.2,1,.3-.4.5h1c-.3-.7-.7-1.1-1.4-1.1S46.7,93.5,47.2,93.2Z" style="fill:#514237"/><path d="M145.9,32.9A66,66,0,0,1,150.5,61a66,66,0,0,1-2.9,18.3,10.4,10.4,0,0,0-.4,1,2.2,2.2,0,0,1,.2-2.9c-.7-1,.4-1.6.7-2.6s.1-1.9.4-2.8a2.3,2.3,0,0,0,.2-1.4c-.1-1,.3-2.1.1-3.2s.3-.6.3-1a7,7,0,0,0,.1-3.2c-.1.3-.1.3,0,.9a4.4,4.4,0,0,0-.6,3.3,19.4,19.4,0,0,0-1.5,5.6,4.2,4.2,0,0,1-.6,1.9l-.4.2a.5.5,0,0,1-.2-.4c-.1-1.1.5-2.1.5-3.2a19.7,19.7,0,0,0-1.8-7.6,7.7,7.7,0,0,1-1-2.5,6,6,0,0,0-2-3.1,1.9,1.9,0,0,1-.9-1.2c.1-.7.6-.7,1.1-.8a8.5,8.5,0,0,1,1.9,1.4c.1-.2,0-.5.3-.6s1.3,1.3,2,2c.3-1.2-.5-2.2-.6-3.1s-.7-.5-.9-.8l-.2-.3a3.8,3.8,0,0,0-.8-2.3c-.1-.5.2-.9.1-1.2s-.6-.5-.8-.8-.1-.6-.3-.9a1.7,1.7,0,0,0-1.3-.5c-.5,0-1,0-.9-.7s.5-.4.6-.7a1.1,1.1,0,0,0-.2-1.1.8.8,0,0,1,.1-1.2c.4,0,.6.4.8.7l1.7,2.8a39.5,39.5,0,0,1,2.4,4.6,52.7,52.7,0,0,0-2.3-9.1,3.5,3.5,0,0,1-1-2,2.3,2.3,0,0,0-.8-1.2,2.9,2.9,0,0,0-.9-2.1c-.8-1.2-1.2-2.6-2.1-3.8a5.1,5.1,0,0,0-2-2.1,11.4,11.4,0,0,0-3-3.2c-.4-.2-.8-.4-.4-.9s.5-.1.5-.4,1.1.7,1.8.7c1.3,2.4,3.7,4,5.1,6.3-.4-1.8-1.9-3.2-2.2-5,1,.3,1.3,1.3,1.9,2a35.2,35.2,0,0,1,3.5,7,31.6,31.6,0,0,1,1.3,5.3c.4,2.6,1,5.2,1.5,7.8a86.2,86.2,0,0,1,1.3,10.2c-.2,1.3-.2,2.6-.3,3.9s.1.8-.3,1.1h-.1s0,.1.2.2a70,70,0,0,0,.6-7.8,1.5,1.5,0,0,0,.1-.7,4.6,4.6,0,0,0,.3-2.6c-.1-3,.1-6-.3-9a1.1,1.1,0,0,0-.3-.9c-.9-1-.5-2.3-.7-3.4a5.6,5.6,0,0,0-.3-4.2c-.3-.5-.2-1.2-.5-1.8s-.9-3.3-2.3-4.5a34.6,34.6,0,0,0-2.2-3.1,18.2,18.2,0,0,0-2.7-3.5c-.3-.2-.2-.5-.1-.8s.1-.1.2-.2.5.2.8.4l1.7,1.9,1.3,1.8a12.5,12.5,0,0,1-.8-1.2c.6-.6,1-.2,1.3.2l1.7,3.1C145.4,32.3,145.5,32.7,145.9,32.9Z" style="fill:#c6b5a6"/><path d="M139.4,150.2c2.2-3.2,5.3-5.8,7.1-9.3-.2-1-1.1-1.9-.5-3.1a5.7,5.7,0,0,1,3.6,1.1c.3.4.2.7-.2,2s-.5.3-.8.4-1.3-.2-1.7.6-.4,1.2-1.3,1.4c.4,2.4-1.3,4.7.1,7.1a1.3,1.3,0,0,0,.1.6,5.8,5.8,0,0,1,.6,4.3c0,.4.6.3.6.6s-.3,1-.1,1.5a1,1,0,0,1-.7,1.1,11,11,0,0,1-4,1.7c-.4.1-.7-.1-1-.1a5.3,5.3,0,0,0-2.5,0c-2.1.4-3.5,2.1-5.4,3a1,1,0,0,1-.3-1.3,24.9,24.9,0,0,0,2.1-5.1c1.3-1.5,2.1-3.3,3.3-4.6-.4.9-1.6,1.5-2.4,2.3s-1.3.5-1.4-.2-.9-2.7-.2-4.1a.5.5,0,0,1,.8-.3,5.4,5.4,0,0,1,.4,2.2c.8,0,1.2-.5,1.7-.8A4.5,4.5,0,0,1,139.4,150.2Z" style="fill:#3b3631"/><path d="M145.9,32.9c-1.1-1.4-2.2-2.9-3.2-4.4l-.3.2,1.3,1.9h-.2l-2-2.4a10,10,0,0,0-1.6-2.4,21.3,21.3,0,0,0-3.6-4.9c-.4-1.5-1.7-2.2-2.9-3.2s-.2.2-.3.4a2.7,2.7,0,0,1,1,1.1,1,1,0,0,1-.4.8l-3.5-1.8c-1-.7-2.2-1.1-3.2-1.8a45.9,45.9,0,0,0-4.9-2.6c-.3-.2-.5-.6-1-.5a1.4,1.4,0,0,1-1.1-.3,10.9,10.9,0,0,0-1.7-1.3.9.9,0,0,1,.4-1,4.1,4.1,0,0,1,2.3.9c-.3-.3-.2-.5,0-.9s.7-.3,1.1-.4a9.9,9.9,0,0,1,2.4.9,7.1,7.1,0,0,1,2.5,1.1,4.5,4.5,0,0,0,1.7.8c-.1-.3-.4-.3-.5-.4a1.2,1.2,0,0,1-.8-.2c-.3-.6-.8-.8-1.6-1s-1.4-1-2.3-1.4a5.2,5.2,0,0,0-1.3-.6c-1.8-.5-3.5-1.2-5.6-2s-2.7-.6-4.3-.8a7.6,7.6,0,0,0-3,0h-.4c-1.1-.6-1.9.1-2.7.6a4.8,4.8,0,0,1-2.7-.2l-6.2.9-2.4.6c-2.4.8-4.8,1.3-7.2,1.9a36.2,36.2,0,0,0-5.5,2c-.8.4-.9.4-1.2.1,6.3-4.1,13.4-6,20.7-7,15.7-2.1,28,3.8,37.6,16.2A44,44,0,0,1,145.9,32.9Z" style="fill:#87817a"/><path d="M68.2,139.3l-.2-.2c.4-.4.4-.4,1.1-.3l4.6.7a4.8,4.8,0,0,0,1.7,0c.1-.5-.2-.8-.5-1.1a9.4,9.4,0,0,0-3.7-2.5c-.5-.2-1.1-.3-1.3-1.1s.9-.2,1.4,0l2.3,1c1.3.6,2,.3,2.6-1a5.2,5.2,0,0,0,.6-1.5,6.2,6.2,0,0,0-2.5-1.7c-1.1-.3-1.9.6-2.9.6s-1-.8-1-1.5a2.3,2.3,0,0,1,1.7-1.6l.3-1.8c.2-.4-.2-.5-.3-1s3.2-2,4.5-3.4l3.9-4.3c.4-.3.5-.9,1.2-.8s.3.8.2,1.3a15.9,15.9,0,0,0-.2,3.8c.1,1.6.1,3.2.1,4.9a1.9,1.9,0,0,0,.3,1.6,2.3,2.3,0,0,1,.4,1.4,6.6,6.6,0,0,0,.1,1.4,1,1,0,0,1-.5,1c-.6.1-.6-.5-1-.7s-.4.8-.6,1.1-.8.5-1.1.9a6.1,6.1,0,0,1-1.6,4c.4,2.1.4,2.1,0,2.8s.5,1.2.1,1.9-.4.3-.8.6c1.3.6,1,2,1.6,3a1.8,1.8,0,0,1-.4,1c-.2.4-.5.6-.9.2s-.1-.7-.2-1-.9-.3-1.2-.8a1.9,1.9,0,0,0,0-1.8.9.9,0,0,0-.8-.4c-.4-.1-.7-.3-.7-.7s1-.6,1.1-1.3a2,2,0,0,0-1.4-1.1,16.4,16.4,0,0,0-3.8-1A5.5,5.5,0,0,1,68.2,139.3Z" style="fill:#151310"/><path d="M80.4,119a23,23,0,0,1-8,7.2v1.1c0-.7-.3-.3-.5-.2l-3.2,2.4c-.5.4-1.1,1-1.8.4a2.2,2.2,0,0,1-.9-2.3,10.5,10.5,0,0,1,2.5-5.2,26.9,26.9,0,0,0,2.9-4.3c.2.2.1.5.3.7s3.8-2.8,3.4-4.3l-1.7-.7a.5.5,0,0,0-.8.1l-1-.2h-.2c-.3,0-.5-.1-.5-.4a2.3,2.3,0,0,1,1.7-.7c.8-.1,1.2-.6,1.8-1s.3-1.4.5-2.2.9-.6,1.5-.3a27.1,27.1,0,0,1,2.4,3.5,1.5,1.5,0,0,1-.2,1.7c-1.7,1.7-3.3,3.5-4.7,5a8.9,8.9,0,0,0,1.5-1.7,37,37,0,0,1,2.8-2.8,3.4,3.4,0,0,0,.9-1.4c.2-.6.5-1.1,1.3-.8a1.6,1.6,0,0,1,1,1.8c-.1.3-.2.6-.5.7a1.3,1.3,0,0,0,.6-1.3,5.7,5.7,0,0,0-1.2-3.5c-.3-.4-.8-.7-.7-1.4a.8.8,0,0,1,.9.4,7.3,7.3,0,0,1,2.1,4.5,2.8,2.8,0,0,1-1,2.7,45.6,45.6,0,0,0-4.8,5,21.5,21.5,0,0,1-4,3.2c2.8-1.4,4.9-4.4,7.4-6.9C80.9,118.3,80.6,118.6,80.4,119Z" style="fill:#3a3029"/><path d="M33.3,96.6c-.8,1.3-2.4.8-3.3,1.9l.6.9c.5-.2,1.3,0,1.4-1.2l.3.9,1.4-.6.6,3.3c-.1.6-.7,1-1.5,1.1v.5l-1.1,1.2c-1.4-.8-1.3,1-2,1.2s-.4-.6-.2-1.1h-1c.6,1.5-.7,1.7-1.2,2.4l.5.5c-1.8.5-3.4,1.2-5,1.5s-1.8,1.1-2.9.6-.2-.4,0-.6a8.1,8.1,0,0,0,1.9-1.8c.2-.2.4-.2.8-.1s.1.5.5.7,1.2-1.4,1.7-2.1,1-.1,1.7,0-.5-.6-.5-.9a2.4,2.4,0,0,1,1.8-1.4c-.9-.1-1.2.4-1.6.6l-4.8,1.1a18.3,18.3,0,0,0-3.5,1.4,1.7,1.7,0,0,1-1.4.1,37.2,37.2,0,0,1-6.2,2c-1.3-.2-2.2.6-3.1,1.2A119.2,119.2,0,0,1,33.3,96.6Z" style="fill:#877262"/><path d="M124.4,11.5l-2.2-.9c-.5.1-.7.3-.3,1.3l-.7-.9c-.5.5.1.6.4.9l-.7.3c-.3-1-1.4-.7-2.1-1.3s-.6.8,0,.9,1.3,1.8,2.6,1.3l.9.6-.6.7-.3.2a1.4,1.4,0,0,1-1.1-.1,34.3,34.3,0,0,0-4.4-1.9,27.5,27.5,0,0,0-6.3-1.5,31.1,31.1,0,0,0-4.3-.3l-7.6-.7a13.1,13.1,0,0,0-5.5,1l-4.3,1.4-2.5.8c-.3.1-.6.3-.9.1v-.5a1.3,1.3,0,0,1,1-.6,57.8,57.8,0,0,1,7-2.4c-3.3.9-6.5,1.6-9.7,2.8s-4,2.4-6,3.7c-.5.3-.9.9-1.6.5A26.2,26.2,0,0,1,81,12.7a51.6,51.6,0,0,1,6.6-2.3c5.1-1.3,10.1-3,15.5-3.5l.4-.2c.8.8,1.8.4,2.7.5a2.7,2.7,0,0,1,1.2-.3,40.1,40.1,0,0,1,16,3.5C123.9,10.6,124.6,10.7,124.4,11.5Z" style="fill:#9c968e"/><path d="M100.4,162.6V162c0-.1-.1-.2,0-.2a51.1,51.1,0,0,1,2.3-7.6l.3-.3c.6.2.8.8,1,1.3a57.6,57.6,0,0,1,2.7,7.3,67.2,67.2,0,0,0,4.5,11.2c0,.1.1.3.1.4a2.2,2.2,0,0,1-2.2,1.6c-1,.1-1.5-.7-2-1.5s-3.7-1.4-1.3-3.7c-.5-.6-1.2-1-1-1.8s-1.4-1.3-1.3-2.7l-1.3,3.5-.4-2.1-1.2-.2-.4,1.3H99.1c-.3-.2-.7,0-1.2-.3a44.7,44.7,0,0,1,1.9-4.6,23,23,0,0,1,3.7-.2,16.2,16.2,0,0,0-3.2.2C100,163.1,100.1,162.8,100.4,162.6Z" style="fill:#1c1610"/><path d="M73.3,91.9c-3.8-2.5-6.3-6.2-8.6-10a4.4,4.4,0,0,0-1-2.3,17.4,17.4,0,0,1-.1-3.2,1.1,1.1,0,0,1,.5-.9c.5.1.5.4.5.7.3,2.1,1.5,3.8,1.9,5.8s2.2,2,3,1.9,1,.3,1.5.6l1.2.8c.7.2,1.1-.5,1.8-.6l2.6.5,1.1-.2c-6.8-2-10.1-6.4-10.3-13.2a18,18,0,0,1,.6-7.3c.2-.8.4-1.8,1.4-2.1s.1.7,0,1a33.8,33.8,0,0,0-.8,3.4,14.9,14.9,0,0,0,1.7,9.5,9.7,9.7,0,0,0,1.5,2.4,2.5,2.5,0,0,0,.6,1.4,12.5,12.5,0,0,0,3,2.1,22.4,22.4,0,0,0,5,2.2c.5.1.7.6,1,.7s.6-.4.9-.5a1.3,1.3,0,0,1,.6,1.4c-.4.6-1.1.5-1.7.6a4.3,4.3,0,0,0-1.8.6c-1.6-.7-3.2-.4-4.9-.3s-.3-.5-.7-.6a2.4,2.4,0,0,1,.7,1.2c1.2-.1,2,1,3.2.6a1.3,1.3,0,0,1,.1,1.2c-.7.4-1.6-.2-2.1.4a2.1,2.1,0,0,1,1.4-.2c-.3,1.6-1.6,1.5-2.7,1.1s-.6-.5-1-.1a1.4,1.4,0,0,0,.8,1c.4.3.7.5.6,1a.8.8,0,0,1-.8.4A3.6,3.6,0,0,1,73.3,91.9Z" style="fill:#524237"/><path d="M109.3,181.8l-2.2-.7c.5-1.2,1.9-2,1.2-3.5a.4.4,0,0,1,.4-.4c1.4-.1,2.8-.8,4.2-1s.4.8.4,1.3-1.1.1-.9.9-.1,1,.1,1.5a1.2,1.2,0,0,0,.8.2c2-.3,4.1.1,6.1-.2a7.6,7.6,0,0,1,1.5.1.6.6,0,0,1,.5.6.8.8,0,0,1-.7.8h-1.4a10.7,10.7,0,0,0-5.2,1,1.6,1.6,0,0,0-1,1.1,1.8,1.8,0,0,0,1.7,1.2c1.7.2,3.3-.1,5,0s1,0,1.3.3a.6.6,0,0,1-.3.8c-1,.3-2.1,0-3.2.2a5,5,0,0,0-1.2.2c.7-.1,1.2,0,1.3.8s-.1,1-.7,1.2a11.7,11.7,0,0,0-2.7,1.5,14.3,14.3,0,0,0-2,1.4c-.9.7-.8,1.8-1.1,2.8s-.1.6-.3.8-.4.6-.9.3a23,23,0,0,0,.3-2.6v-5.7h-1.2l-.9-1.2a2.1,2.1,0,0,0,1.1-3C109.3,182.2,109.2,182,109.3,181.8Z" style="fill:#28221d"/><path d="M84.9,152.4l-1.5,6.4c2.7,1.7,6.1,2,9.1,3.2-.5.8-1.4.9-4.5.8-2.5-3.1-5.6-3.8-8.2-2-1.4-.1-.4-2.1-1.7-2.3.2-1.1.5-2.2.7-3.2l.9-3.4-.6-.3c0-.5.4-.4.7-.5a2.2,2.2,0,0,0,1.9-2.5,4.5,4.5,0,0,0-.4-2.3c-.9-.9-.5-2.1-.6-3.1a1.4,1.4,0,0,1,1-1.6l1.1-.5c.8,0,1.6-.6,2.4,0a1.4,1.4,0,0,1-.4,1.5c-.7.1-1.3-.3-1.9.1a2.4,2.4,0,0,0,.8,1.9c.7-.1.1-1.4,1.1-1.2s-.2-.6.3-1,2.6.3,4,.4a2.1,2.1,0,0,1,1,.4c-.2.8-.2.8-1.1,1.2h-.4l-.4-.2a2.4,2.4,0,0,1-2,.3c-.8.8-2.1.9-2.8,2s-.6,3.2.5,4.7S84.8,151.8,84.9,152.4Z" style="fill:#332b24"/><path d="M147,162.4c.9,1.1,2.3,1.5,3.5,2.2a66.1,66.1,0,0,1,6.8,3.9c2.5,1.5,4.9,3.1,7.5,4.5a1,1,0,0,1,.5.4,90.5,90.5,0,0,0,16.4,6.9l3.2.9v-.6l1.6,1.3c-5.3,1.3-31.2-10.3-44.2-19.7a1,1,0,0,1-.2-1.2c1.1-.5,1.9.5,2.8.7s.2-.4.5-.5S146.4,162,147,162.4Z" style="fill:#956441"/><path d="M78.4,186.9a16.1,16.1,0,0,1,5.8-.3c3.7.8,5.2,3.6,6.5,6.7l-3.1,1-1.1-.5v1h-.9c-.2-.2-.1-.5-.2-.6s-2.8-.9-3.1-2.5l-.7-1.1c-.1.5-.4.5-.8.4s-.7-.5-.8-1c-.1,1.1-.2,1.2-1.4,1.5s-.9-.2-1.1-.7a1.1,1.1,0,0,0-1.1.8,18.9,18.9,0,0,1-1.7,3.5,1.2,1.2,0,0,1-.8.1c-.3-.3-.2-.7-.4-.9A14.1,14.1,0,0,1,78.4,186.9Z" style="fill:#76685d"/><path d="M13.2,111.7c1.1,1.5,2.9,0,4.1,1.1l.5-.7.7.4c1.6-.4,3.2.4,4.5-.5l.5.7c.1-1.2,1.2-.6,1.7-1.2-.2,1.1-1.6,1.8-1.1,3.1-4.9,4.1-10.8,4.9-16.7,5.6a.8.8,0,0,1-.7-.8c.2-.4.7-.6.8-.8a27.7,27.7,0,0,0,5.4-2.9c.3-.1.6.1,1-.1s1.8-.5,2.3-1.5a9.9,9.9,0,0,0-2,1.1,4,4,0,0,0-2.3-.8c-.4,0-.6.3-.9.3a.9.9,0,0,1-.8-.5,8.7,8.7,0,0,0,.9-1.1h0c.6-.1.7-.6,1-.9S12.7,111.4,13.2,111.7Z" style="fill:#8f715d"/><path d="M64.1,75.6a2.2,2.2,0,0,0,.1,2.2l-.6.4a.7.7,0,0,1,.2,1.1c.6.8,1.3,1.5.9,2.6l-1.4-2c1.7,2.9-.1,4.9,0,7.1-.1.1,0,.3-.2.4s-.2-.9-.4-1.4-.3.3-.5.2-.3-.7-.3-1.1,0,.4-.2.6-.5.1-.8,0-.5-2.6-.8-3.9c-.8-3.3-1.3-6.6-1.8-9.9a1.6,1.6,0,0,0-.2-1.3c0-.5.4-1.1,0-1.5a1.8,1.8,0,0,1,.8-.9c.8-.2,1,.4,1.5.9a1.2,1.2,0,0,1,.9.8,5.3,5.3,0,0,0,1.3-.1,2.7,2.7,0,0,1,.5,1.5,11.4,11.4,0,0,0,.9,2.6A2,2,0,0,1,64.1,75.6Z" style="fill:#766960"/><path d="M132.4,117.8c1,4.3,1.9,8.6,2.8,12.8.1.3.2.7.4.8,2.6.5,1.8,2.7,1.9,4.2.2,3,0,6.1-.1,9.2a2.1,2.1,0,0,1-.4,1.1c-.3-.5-.1-1.2-.6-1.6s0-.2,0-.3.5-.3.6-.7a7.7,7.7,0,0,0-.2-1.5c-.1-.4-.4-.4-.7-.6s-1.1,0-1.7.2-.8.1-.7-.5,1.7-.4,2.5-.9l.5-.3a9.4,9.4,0,0,0,.3-4.1c-.9-.1-1.7.4-2.4-.1s1.7-.7,1.9-2-2.4.9-3.6,1.1l-1.2.2a4,4,0,0,0-1.6-.8c-.3-.6-.1-.9.5-.9a3.1,3.1,0,0,0-.3-1.7.9.9,0,0,1-.1-1,1.6,1.6,0,0,1,1.6-.9c.4-.9.4-.9-.1-2s-.6-.1-.8-.4-.5-2.7-.2-4.1-.3-.4-.4-.6,0-.2-.1-.2-.1.1-.2.1h-.3a1.6,1.6,0,0,1-.4-1.2c.1-.2.1-.4.2-.5a5.6,5.6,0,0,1,.5-.8c.2-.3.6-.2.9-.5s.5-1.4,1-1.8S132.2,117.7,132.4,117.8Z" style="fill:#b2a79b"/><path d="M68.2,139.3c2.8.5,5.8.4,8,2.6a2.2,2.2,0,0,1-1.8,1.4l.9.5a1.6,1.6,0,0,1,.8,1,1.2,1.2,0,0,1-.9,1.6c-3.1.5-6.1,1-9.1,1.7a5.9,5.9,0,0,1,.9-4.3A5.2,5.2,0,0,1,68.2,139.3Z" style="fill:#444240"/><path d="M146.4,74.8c.6-2.4.8-5,1.9-7.4-.4-1.1.2-2.2.5-3.7.1.2,0,0-.2-.2a1.3,1.3,0,0,0-.1-1.8c1.1.9,1.1,1.4.9,2s-.7,2.5.2,3.9l-.5-.3c-.1,1.9.3,3.9-.6,5.7h-.2a4.3,4.3,0,0,1-.2,1.1l.5,1.1c-1.2.7-1.3,1.8-.7,3.1l-.8-.3v2.4c-2,6.8-6.4,11.7-12.2,15.7-.3-.2-.5-.3-.6-.6s.6-.8,1.1-1.1-.2-.4-.1-.6.7-.4,1.2-.3-.4-.6-.4-1.1.7-1,1.2-1.4a7.6,7.6,0,0,1,2.2-1.1c1-.6,1-.7,1.1-1.6s-1-.1-.9-.9,1.5-.5,2.2-.4.3-.5.5-.6-1.8,1.1-3,.5a.3.3,0,0,1-.1-.2c.1-.4.5-.5.8-.7l1.4-.8c1.8-1.1,2.5-2.8,3.3-4.7S145.7,76.6,146.4,74.8Z" style="fill:#837467"/><path d="M13.2,111.7c-.9.2-1,1-1.6,1.6l-.5-.2c1.1-1.3.5-2.8.6-4.1s-1,.5-1.4-.2l4-1.6c.9.9,1.6-1.5,2.8-.5l1.6-.5c.6-1.4,2.5-.3,3.2-1.7l.2.5c.6-.7,1.2-.6,2-.4l1.1-.7.7.2,1.4-1c.5.2.9.3.6.9s-1.1.6-1.8,1l.6.6-.7.8c-.2-.4-.4-.8-1-.5l-.7,1.7-1.7,1v-1.2l-2.6,2.4c-.2.5-.5-.1-.8,0s-.7.8-1.3.3v.8l-.5-.8C16.2,111.2,14.7,111.4,13.2,111.7Z" style="fill:#9a8474"/><path d="M59,68.3l-.7.8.5.5c-.2.5-1,1,.2,1.4l-.7.9A22.7,22.7,0,0,0,54,64.6v-.5H53c3.7-4.9,3.9-10.8,5-16.4l.8.2c-.3.5-.4,1,.1,1.4s-.2,1.9-.9,3c2.1-.2,2.6-2.2,4.1-2.7-.3.4,0,.5.3.6l-1,.6,2.1.4c-.7.3-1.4-.2-1.7.5l-1.1-.5-.6,2c-.4,0-.9-.2-.7.7A4.9,4.9,0,0,0,58,58.5a6.2,6.2,0,0,0,.2,2.7c.2,1.5.4,3,.5,4.5a11.6,11.6,0,0,0,.4,1.8C59.1,67.8,59.2,68.1,59,68.3Z" style="fill:#8f7e70"/><path d="M70.4,130.7l1.7.9c1.7-1.4,3.5,0,5.2,1.7L76,136c-2.2,1.4-3.8-1.2-6.2-1.1,2.5,1.3,5.3,2,6.3,5.1l-8.1-.9A22.5,22.5,0,0,1,70.4,130.7Z" style="fill:#444240"/><path d="M112,178.3c0-.7,0-.7,1-.8v-1.1c.6-.6,1.3-.5,1.9-.7l-1,.3a18.4,18.4,0,0,1-4,.6,6.9,6.9,0,0,0-2.4.5l-1-.6.7-2.3c1.3,1.5,2.7,1.8,4.1,0,.6-.1,1.1.6,1.8,0s.1-1.1.1-1.6-.4-1.9.5-2.6h1c.5-.6-.2-1.6.7-2.1s1,.4,1.2.9a2.2,2.2,0,0,0,1.5,1.6c.8.3.8,1.1,1,1.7s.6.1.9.1,1.3-.6,2.1-.1l.2.5c.1.4-.4.4-.4.7s.1.8,0,1.2a3.1,3.1,0,0,1-2.6,1.4l-2.9.3a5.2,5.2,0,0,0-3,1.8c-.2.2-.2.5-.6.6S112.4,178.1,112,178.3Z" style="fill:#2e231a"/><path d="M73.3,91.9c.4.2.8.2.7.8l.7-.2a1.7,1.7,0,0,1,1,.3c1.1.5,2.1,1.3,3.2,1.8s1.5.5,1.4,1.6-.6.1-.9,0a4.9,4.9,0,0,0-2.4-.1,3.3,3.3,0,0,0-2.4-.5,22.6,22.6,0,0,1-5.8-.2,26.4,26.4,0,0,1-7.3-2,1.6,1.6,0,0,1-.9-.5L58.7,92l.8-.6,12.9.8Z" style="fill:#807168"/><path d="M122.1,172.1a4.4,4.4,0,0,0-2.5.6c-.4.3-.7.1-.7-.4s-.1-2,.7-2.8a1.1,1.1,0,0,1-1-.9c0-.4.5-.3.5-.6s-.5-.4-.8-.7a1.3,1.3,0,0,1,1-1.5c0-.4-.5-.5-.4-.8s2.7-.4,4.6.7a2.3,2.3,0,0,1,3.2.2,4.1,4.1,0,0,1,.7,1.1c.1.5.3.9-.1,1.4l.3,1.7Z" style="fill:#9b734d"/><path d="M43.9,106.3v-.9l7.1,5.5c1.1-1.2,1.7.6,2.6.1l.4.8-.6.4c.1.6,0,1.3,1,.9s.5.8,1,.6a5.4,5.4,0,0,1-.5,1.1c-.4-.5-.6-1.2-1.3-.8l-.7,4.4h-.2v-1.1l-.9-.6c-.2-.2-.2-.5-.4-.8s-.6-1.1-1.4-1l-.8-.7h-.6l.3-1.3h-.9c-.7,1-.8,2.4-1.9,3.2l-.3-2.8c-1.5-1.1.1-2.6-.6-3.9s.8-1,.5-1.3Z" style="fill:#937f6f"/><path d="M79.8,171.9c.8.1.7.6.5,1.1l-1,.5c2.9,2.7,7.7.4,9.8,4.5a2.5,2.5,0,0,0,.4,1.7c-3.6.9-6.9-1.3-10.3.1l-.3-.3C80.1,177.1,78.8,174.3,79.8,171.9Z" style="fill:#464444"/><path d="M74.1,156.3c.8.8,1.8,1.8.6,2.7s-3.3.7-4.7-.3a5.3,5.3,0,0,1-2.1-5.9,2.8,2.8,0,0,1,2.5-.6c.6-.6.8-1.5,1.8-1.5a2.9,2.9,0,0,1,2,.7,3.4,3.4,0,0,1-.3,2,4.9,4.9,0,0,0-.2,2.4A.7.7,0,0,0,74.1,156.3Z" style="fill:#875e4b"/><path d="M74.1,156.3c-1.4-.4-.7-1.6-.6-2.4a10.5,10.5,0,0,1,.6-2.4,3.5,3.5,0,0,0-2.6-.4l-.8,1.5-1.7-.3-.5.8-.6-.3c0-1.3-1.5-.3-1.8-1.2a1.4,1.4,0,0,1,1.1-.3c1-.1,2.1-.1,3.1-.3a7.2,7.2,0,0,0,.9-3.3c-.2-.2-.5,0-.8-.1s.4.3.4.7-1,.5-1.5.6l-1.8.3a.6.6,0,0,1-.8-.5l-.6-.6c2.6-1.4,5.7-1.2,8.5-2h1.1c.5-1-.2-1.6-.4-2.2s1.1,1,1.4,1.7l-.5.6,1.5.6-.2,1.2c-.7.4-1-.2-1.5-.5H74a11.2,11.2,0,0,0,1.8,1,4.2,4.2,0,0,1,1.8,1.1c.5.3.9.8.3,1.4s0,3.6-1.5,4.7A5.6,5.6,0,0,1,74.1,156.3Z" style="fill:#342c2a"/><path d="M132.4,117.8l-1,.2v1.6a2,2,0,0,0-1.6,1c-.4-.1-.3-.5-.7-.7s-1.3-1.1-1.6-2.1a18,18,0,0,1,.2-2.2c-.7,0-1.3.6-2.2.2a11.7,11.7,0,0,1,2.8-1.6,2.6,2.6,0,0,0-1.9.9,15.7,15.7,0,0,1-1.9,1.5c-.4-.3-1.1,0-1.3-.7s.3-.8.7-1.1l1.6-1.6a5.1,5.1,0,0,0,1.5-2.3c-.1-.2-.5-.3-.3-.7s.7-.2,1.1-.2,1-.3,1.3-.7a.4.4,0,0,1,.6.3c.2.9-.3,1.4-.9,2s.7-.1,1-.2,1.1-.6,1.7.5l.3.2c-.1.8.6,1.5-.1,2.1Z" style="fill:#8d7461"/><path d="M73.4,194.4l.8,1,2.4-4.8h.9c.5.9,1.3.4,1.9.4l.3-.8-.6-.4.9-.5.2,1.3,1.1.4-.5-1.8,1.6,2.4a1.6,1.6,0,0,0,.5,1.4,1.3,1.3,0,0,0,.6,1.8c.1.6-.3.6-.5.7-3.2.8-6.4-.3-9.6-.1Z" style="fill:#322a22"/><path d="M137.6,90.9l-.5.9.3.7-1.1-.2,1,1.5-2.2-.4,1,.9-1.6,1,.5.7-5.2,5.7c-.3.4-.2,1-.6,1.2s-.5.3-.8.3-.7,0-.9-.4-.3-1.5.4-2.1.1-.4.2-.6a17,17,0,0,0,2.2-1.5c-.6-.1-1.1.6-1.7.2s-.1-1.1.7-1.2a2.7,2.7,0,0,0,2.2-1,3.2,3.2,0,0,1-1.8-1.2c.2-.4.7-.7.7-1.1a7.1,7.1,0,0,1,2.8-.6c-.2-1-1.4-1.5-1.1-2.7s1.6,1.1,2.3,1.6.2,0,.1.1h0a2.8,2.8,0,0,1-.2-2A12.2,12.2,0,0,1,137.6,90.9Z" style="fill:#735b47"/><path d="M80.2,180.1c2.6,1.7,5.8.6,8.7,1.7-.3,1,.9,1.8.4,2.9-3.4.2-6.7-1.6-10.1-.1C78.5,182.9,80.2,181.7,80.2,180.1Z" style="fill:#49494a"/><path d="M11.1,113.1a.9.9,0,0,1-.9,1l.8.5.4-.6,2.3.4.5.8c.3-.5.4-1.1,1.1-.7l-.5-.7,1,.4v-.5a.9.9,0,0,1,1,.8l-3.7,1.7c-1,.4-1.8,1.3-3.2,1.3a2.3,2.3,0,0,1-2.1,1.2c-.1.4-.5.6-1.1.6l.7.9-4.2,2.1C5.2,118.7,8.2,115.9,11.1,113.1Z" style="fill:#a48e7c"/><path d="M110.3,192.4v2.5c.8-2.1,1.2-4.5,3.9-5.4.9.1.9,1,1.3,1.5s.6-.3.9-.1,1.2.7.6,1.6a5.3,5.3,0,0,0,1.3-.1,11.7,11.7,0,0,1,5.1,1.9c.1.1.2.3,0,.4h-1.2c-2.8.3-5.6,1.4-8.6,1.2-.1-.6-.1-.6.7-1.6a3.7,3.7,0,0,0-1-3.4,4.8,4.8,0,0,0-1.8,5l-2.2-.4C110.4,194.5,109.6,193.3,110.3,192.4Z" style="fill:#43372f"/><path d="M112,178.3h.9c.3-1.5,2-1.4,2.7-2.4l4.2-.3,2-1c-.4-.9-.5-1.7.5-2s.4,1.4.1,2.2a8.7,8.7,0,0,1-1.6,2.3,1,1,0,0,1-1.4.2c-.3-.1-.7-.4-1.1,0a3.7,3.7,0,0,1-.1,1.8c-.3.4-.8.3-1.2.7,1.2-.3,2.4-.1,3.6-.3h1c.4.1.7.3.5.8l-.6.2h-.2c-2.5-.6-5.1-.1-7.6-.1H112C111.8,179.7,112.6,179,112,178.3Z" style="fill:#4f4943"/><path d="M128.4,103.1l.6-.4a1.1,1.1,0,0,1,.6.7,1.3,1.3,0,0,0-.3,1.6c.4.2.4.8.4,1.4s2,1.2,1.8,2.6l-.5.6a1,1,0,0,1-1.4,0c-.8-.5-.9,1.6-1.8.6a1.1,1.1,0,0,1-.7-1.2c-.2.2-.1.5-.4.8a5.3,5.3,0,0,0-1.7.8c-.4.3-.7.6-1.2.4a.4.4,0,0,1-.2-.5c.5-.8.4-1.8,1-2.4s-.1-.7,0-1.1a2.6,2.6,0,0,0,1.5-.9c.4-.1.6.1.9.1s.1-.8.4-1-1.4.1-2.1.2a1,1,0,0,1-.3-1c.2-.4.6-.5,1-.7A3.9,3.9,0,0,1,128.4,103.1Z" style="fill:#826a54"/><path d="M75.8,17.8C67.4,25,62.5,34.4,59.1,44.7l-.5.6c2.3-9.2,6.2-17.7,12.8-24.7A13.7,13.7,0,0,0,73.2,19a8.8,8.8,0,0,1,1.5-1.2A.9.9,0,0,1,75.8,17.8Z" style="fill:#434340"/><path d="M117.4,185.8l3.5-.2c.2,0,.4-.2.6,0l.2,2a8.4,8.4,0,0,1,6.2,8l-2.3-.6c-.4-.4-.3-1.1-.3-1.6a2.8,2.8,0,0,0-1.3-2.5,9.7,9.7,0,0,0-2.6-1.5,1.2,1.2,0,0,0-1.3.1,7.1,7.1,0,0,1-.9.7c-.4-.1-.7-.5-1.2-.7s-.8.2-1.2-.4,2-.4,2.8-1a6.9,6.9,0,0,0-1.3-1.1C117.8,186.8,117.2,186.6,117.4,185.8Z" style="fill:#846f5e"/><path d="M77.9,150.9c.1-1.6-1.3-1.7-2.2-2.2l-2.9-1.6h3.5a1.4,1.4,0,0,0,1.2.8c1,.2.6-.9,1.1-1.2a1.7,1.7,0,0,1,2.8-.6c1.7,1.9.5,4.6-2.3,5.5Z" style="fill:#674b45"/><path d="M139.4,150.2c-1.4.6-2.4,2.2-4.5,2.2.8-1.1,0-1.7.3-2.8l-.6.6c-1.2,1.2-1.7,1.1-3.2.1a9.6,9.6,0,0,0-2.5-1.2,2.2,2.2,0,0,1,.2-1.6,7.3,7.3,0,0,1,3.6.2l2.1.9c.6.3.6.2,1.1-.4s-1.8-.5-2.3-1.4,1.9-.4,2.8-.6h.2c-1,1.5,1.3,2,.8,3.2Z" style="fill:#5b564f"/><path d="M100.4,162.6v.8c1.5-.1,2.9-.6,4.7.1l-5,.3-1.7,4.4.8.3a2.2,2.2,0,0,0-2.2.7l-2.2-1.8a4.2,4.2,0,0,0,1.2-2.7,4.1,4.1,0,0,1,1-2.1l.9-1.4c1.1.1.9,1.4,1.8,1.7l.3-.8Z" style="fill:#4e3d30"/><path d="M46.9,84.4c.3,1.6,2.3,1.5,3,2.9L48,86.1l-1.1,1c.6,0,1,.2,1.1.7s.9-.2.9.5-.7.2-1.1.1H46.6c-.3-1.3-.4-2.8-2.2-3.2l.3-.6c-.7-.3-1.7,0-2.1-1s-1.3.7-2,.1l.6-1.4L39,80.8l1.2-.4-1-.7.7-1c.7,1.9,2.7,2.4,4.1,3.6Z" style="fill:#70655b"/><path d="M147,162.4h-.6c0-.7-.4-1-1.2-1.1l.4.6c-1.3.4-2.1-1.1-3.4-.9a4.5,4.5,0,0,1,.1,1.1l-3.6-2.1c1.1-.8,2.2-.4,3.3-.1s3.8-.7,4.8-2.7c0-.2.1-.2.3-.2l1.1,1.6-.2.8-.9.3.7.9-.2.9.6.8Z" style="fill:#7a5e4a"/><path d="M75.8,17.8c-1.6.1-2.4,1.4-3.6,2.2a2.4,2.4,0,0,1-.8.6l3.9-3.7c2.4-1.4,4.6-3,7.1-4.2s6.8-2.3,10.3-3.1c.3-.1.7-.3.8.2l-8.9,3.1-2,.9-1-.7.4.9Z" style="fill:#696661"/><path d="M119.9,189.3c1.6-1,2.6.3,3.7.9s2.2,1.2,2,2.9a12.1,12.1,0,0,0,0,1.9l-3.4-.2,1.2-.2c.4-.5-.1-.7-.4-.9a4,4,0,0,0-2.5-1c0-1-.9-1.6-1-2.5s.4-.3.6-.4S119.9,189.5,119.9,189.3Z" style="fill:#b8a798"/><path d="M121.3,180.5h.2l.9,3.5a.9.9,0,0,1-.5,1.2,5.1,5.1,0,0,0-3.4-.6,2.3,2.3,0,0,1-2.8-1.5c.2-1.6,1.5-1.6,2.7-1.8l.7-.2C119.8,180.8,120.8,181.7,121.3,180.5Z" style="fill:#907a6a"/><path d="M122.1,180.3c-1.4-1.3-2.9-.1-4.3-.3s-1.3.3-1.8-.4l2-.6c0-.5.4-1.1-.3-1.5s.7-1,2.4-.1c.8-.9,1.6-1.7,2.3-2.6a7.8,7.8,0,0,0,.3,4C123,179.4,123,180.1,122.1,180.3Z" style="fill:#867060"/><path d="M119.1,181.1c-1,.8-2.8.1-3.2,2.1l1.7,1.5c.9-.7,1.9-.1,3-.5s1.1.2,1.3,1l-.4.4h-.6l.2-.5h-7.2l-1.4-1.5C114.1,181,116.8,181.4,119.1,181.1Z" style="fill:#544b43"/><path d="M127.3,168.4v-1.5c-.2-.5.2-.9.5-1.2a10.9,10.9,0,0,1,1.7-1.3,7.9,7.9,0,0,0,2.6-1.9.9.9,0,0,1,.5-1c.3-.1.7-.2.8.3v1.3l-1,.6c.6,1.2-2.3,6.1-4,6.3Z" style="fill:#3e2b1f"/><path d="M66.7,148.7c1.4.8,2.6-.3,3.9-.3s-.9-.3-1.3-.8l2.5-.5-1.1,4.3-4.6.2Z" style="fill:#5c5753"/><path d="M111.5,196c-1.2-2.5.4-4,2-5.7.3,1.3,1.7,2.1,1,3.6h.5l-1.4,2Z" style="fill:#28221d"/><path d="M72.6,113.9c.6-1.1,1.1-.1,1.6.1h1.1c1,1.6-1.4,4.7-4,5.2v-1.2l2.1-3.8Z" style="fill:#624c3c"/><path d="M131.5,109l-.2-.9-2-1.6c.1-.4.4-.9-.3-1.4l-1-.2h1l-.3-1,.7-.4a1.6,1.6,0,0,1-.4-.7l.8-1c.3,1.6,2,2.6,1.8,4.4A28.1,28.1,0,0,0,131.5,109Z" style="fill:#a08670"/><path d="M25.2,78.7c.1.7.2,1.3,1.1,1.2s-.9,1.6-2,1.4L21,79.2l-.8.3c.2-1.4,1.5-.9,2.1-1.4Z" style="fill:#dbd2c5"/><path d="M50.2,114.9c1-.9.8,1.3,2,.5-.5,1.1.6,1.2.7,1.9l-2.3,2.2-1.4-.7-.9.4c.5-1.5,1.8-1.9,2.9-2.6Z" style="fill:#bda697"/><path d="M60.9,85.7l.8-.2V84h.3v2.3l.6-1.1c.8.5-.2,1.4.6,1.8v1c-.9.1-1.1.8-1.2,1.5C60.8,88.5,61.4,86.9,60.9,85.7Z" style="fill:#b1a499"/><path d="M147.1,157.1l-.3.2c-.7-.5.3-.9-.1-1.4h-.8c.3-1.7.9-3.3-.4-4.8s-.1-.5.2-.6a7.6,7.6,0,0,1,1.6,3.7l.8.6h-.6C148.1,155.7,147.5,156.4,147.1,157.1Z" style="fill:#6f635a"/><path d="M83,195.6l.4-.6-.9-.3c.4-.5-.6-1,.3-1.4s-.9-1-.4-1.6L83,193a2.1,2.1,0,0,1,1.7,1l.6-1.1c.1,1,.2,1.5.2,2Z" style="fill:#604a3c"/><path d="M148.6,141.3l.7-.4.3-1.7a8.8,8.8,0,0,0-3.6-1.4c1.1-.8,2.2-1.2,3.4-.2s.8,2.3.2,3.5A.7.7,0,0,1,148.6,141.3Z" style="fill:#d5cabe"/><path d="M75.7,169.1l2-5.2-.3,3c.2,1.6,2,1.5,2.2,2.8L77,168.3C76.6,168.4,76.9,169.9,75.7,169.1Z" style="fill:#221a15"/><path d="M107.5,177.1c1.6-1.5,3.6-.4,5.4-1.1a5.8,5.8,0,0,1,2.3-.3l-2.2.7-4.7,1.2Z" style="fill:#1c1610"/><path d="M129.6,109.6H131a23.3,23.3,0,0,0,.7,2.5l-1.1-1-1.8,1.1-.9-.7,1.1-.4Z" style="fill:#b2a79b"/><path d="M136.4,144.2l.7.5v1.2l-.4.4h-.1a5.7,5.7,0,0,1-3.5-1.2A5,5,0,0,1,136.4,144.2Z" style="fill:#776554"/><path d="M71.4,113.7h.2c-.9.9-2.7.6-3,2.4-.8-1.1-1.8.4-2.5-.5s1.4.1,1.6-.9a2.7,2.7,0,0,1,2.8-1.1C70.8,113.6,71,114,71.4,113.7Z" style="fill:#bbaa9d"/><path d="M109.3,181.8a2.6,2.6,0,0,1-.3,3.5h-.8C108,184.1,108.7,183,109.3,181.8Z" style="fill:#544a41"/><path d="M60.6,92.9l8.2,2.3c.2.2.5,0,.7.3s-.3.7-.5,1.2a4.4,4.4,0,0,1,.1,2c.8,1.2,2.6,1,3.5,2.2a84.6,84.6,0,0,1-9.7-2.2,3.7,3.7,0,0,0,2.7,2.8c.1.5.6.8,1.1,1s1.1.9,1.8,1.2a3,3,0,0,0,2.6.1h3c1.3.1,2.6-.2,3.9-.2a3,3,0,0,1,1.5.7,36.2,36.2,0,0,1,9.2,6.4l3.1,2.7c.5.9,1.5,1.5,1.8,2.4s-.6.1-.7.5.1,0,.2-.1a1.8,1.8,0,0,1,2.2.9,5.7,5.7,0,0,0,3.4,2.5l.9.5a6.3,6.3,0,0,1,3.7,1.2c0,.9-.5.6-1,.4a1.9,1.9,0,0,1-.9,1.1c.3.5.9.5,1.3,1s.8,1.4,1.4,2.1-.6.2-.9.2a1.4,1.4,0,0,0-1.4.1c-.6-.3-.9-.9-1.4-1.2h-.1c.1,0,.1.1.1.2a1,1,0,0,1-.5.6c-.5,0-.5-.4-.7-.7a3.9,3.9,0,0,0-1.8-1.8,2.1,2.1,0,0,1-1-.6c-.7-.9-1.7-1.4-2.3-2.1a18.4,18.4,0,0,1,1.4,1.4,2.3,2.3,0,0,1,.7,2.4,4.2,4.2,0,0,0,.6,3c.8,1.3.6,1.7-.9,2l-4.8,1a1.4,1.4,0,0,1-.9.1c-2.4-.4-4.9-.3-7.4-.9a1.9,1.9,0,0,1-1.4-1.7v-5.3a4.7,4.7,0,0,0,.1-1.7,2.1,2.1,0,0,1,.7-1.8c.6,1.9.4,4,.5,5.6.2-2.5-.3-5.3-.2-8.2a8.1,8.1,0,0,1,.6-3.1c.3-1,.8-1.1,1.7-.6a8.9,8.9,0,0,1,2.2,1.6L78.7,107c.2.7.9,1,.8,1.8s-1-.7-1.6-.8-.6.6-1.1.7l-.4-.2a1.8,1.8,0,0,0-1.8-1.2c-.5-.6,0-.9.2-1.2s-1.2.9-2.2.2a5.3,5.3,0,0,0-1.5-.7c-.8.5-1.7.1-2.7.1H58.8a.9.9,0,0,1,.9-1.1c1.2.1,1.8-.4,1.7-1.7s-.5-.8-.7-1.4l-2,1,1.3-1.1c-1.2-1.4-3-.5-4.4-1.4l-1.4.7-.7-.7-.9.5-.8-.3c-.5-.7.8-1.3-.5-2.4,1.8.8,2.7-.4,4-.3l-.5-.8c.4-.3,1.1-.4,1.1-1.1s1.6-.9,2.3.1l.8-.2.8-1.1-.7-.6C59.3,92.8,60.4,93.6,60.6,92.9Z" style="fill:#3a3029"/><path d="M68.4,105.7l.6-.5c1.2.8,2.5-.5,3.6.8v.3a.8.8,0,0,0,1.1-.7H75l.3,1.1h-.7c.9.3,1.9.7,2.1,1.9a.7.7,0,0,1-.4.8c-1.5.2-1.9,1.1-1.5,2.4a6.7,6.7,0,0,1-3.3,1.5l-.4.3h.3c-1.3.2-2.7,0-3.7,1s-2-1.1-2.6.4c-.4-.1-.7-.4-1.2.1v-1.1l-3.1-.2,2.5-1.1,1,.3c.4-.5,1-.1,1.5,0l.2-1.4.4,1h1l-.6-.8c1,.3,1.9.8,2.8.5l.2-.7,2.4-.8.5.9.9-1.4-1.2-.8.5-.5-1.2.4c-.7-.8-.4-1.7-.4-2.6s-1,.2-1.1-.7l-.6,1.1c-.2-.3-.2-.6-.7-.4s-.6.3-.6.9L67,106.3Z" style="fill:#624c3c"/><path d="M113.8,170.1c-.9,1.4.1,2.9-.3,4.5l-1.5.3-.7-.7c-3-4.9-4.2-10.4-6.2-15.6-.5-1.5-1.2-3-1.9-4.9-1,3.1-1.8,5.7-2.7,8.3l-2.4-1.3c-.3-2.1,1.4-4.1.3-6.3l.7-.3c.7-.7-.8-1.2-.1-2s-.7.4-.8.7l-2.1.2c.5.3,1,.9,1.3.2s.6,1.2.1,1.8l-1.3-.5v1.3H94.9a1.6,1.6,0,0,0,1,1.4l-.7,1.1h-1l.3.8c-.8.6-1.5,1.2-.3,2.4l-1.4-.5,2.4-10.5c.1-.8,1-1.1,1.4-1.9s.3-1.5.3-2.3.5-1.2,1.1-1.6a21.9,21.9,0,0,1,3.4-1c1.4-.2,2.9-.3,4.2-.6a.8.8,0,0,1,.5,1.1c-.1,1-.7,2-.6,3.1s1.5-.4,2.2-.4h1.7c.3.1.7.2.7.6s-1.3.4-1.8.9.9.6,1,1.3-.8,0-1.2,0a3.3,3.3,0,0,1-1.3.4c.5.6,1.1.8,1.6,1.3a3.1,3.1,0,0,1,.4,1.9c.1.5.5.7.7,1s-.4.5-.8.8a1,1,0,0,0,.8-.7c-.3-1.1-1-2.2-.1-3.3s.8.9.9,1.5c.8,2.7,1.8,5.4,2.6,8.1a3.8,3.8,0,0,0,.8,1.7,6.3,6.3,0,0,0,2.6-.7,5.2,5.2,0,0,1,2.5-.7,1.3,1.3,0,0,1-1,1.4,2.4,2.4,0,0,0-2.2,1.5c-.2.5-.8.5-1.2.8h.2c.7-.2.7.3.6.7s-.6.8-.9,1.2a1.9,1.9,0,0,1,.7,1.6c-.1.8-.1.8-.8,1.3S114.1,170,113.8,170.1Z" style="fill:#4e3d30"/><path d="M105.8,144.3l.2-.9c-3.1.8-6.2.6-8.8,2.3-.1,2-.1,3.8-2,4.9s-.9,0-1.3.2l.5.7c-2.3-2.2-4.2-1.2-6.3.4s-2.1.3-3.2.5l-1.1-1c.2-.2.5-.1.8,0,1.8.3,3.2-.2,3.8-1.6a3.5,3.5,0,0,0-.8-4.3l-.3-.3c-.1-.1-.2-.2-.2-.6a38.3,38.3,0,0,1,5.8-.7c.3.4.2.7-.1.9l-1,.6a2.6,2.6,0,0,0-.6,3,2.5,2.5,0,0,0,2.6,1.5,2.8,2.8,0,0,0,2.5-2,2.6,2.6,0,0,0-1-2.8l-.8-.4c-.3-.1-.7,0-1-.4a.7.7,0,0,1,.3-.8c4.2.3,8.2-.8,12.3-1.3.2-1.8-.3-2.3-1.9-2.1s-5.3.6-7.9,1.1H93a2,2,0,0,1,0-2.1c.3-.2.7-.1,1.1-.2h.8c-.6-.4-1.8.5-2.4-.9,1.9-.5,3.7,0,5.7-.4.1,0,0-.4.1-.6s.9-.4,1.4-.4a5.7,5.7,0,0,0,2.6-.4c.6-1-.1-1.8-.2-2.7a3,3,0,0,0-2.6-.2h-.3a.9.9,0,0,1-.1-1.5,6.9,6.9,0,0,1,5.2,1.4,3.6,3.6,0,0,1,1.3,2.5,3.7,3.7,0,0,0,.5,1.8c.6,0,.7-.3,1-.6a4.6,4.6,0,0,1,1.6-1.5c.5-.3,1-.4,1.1.4a1.3,1.3,0,0,1-.6.7,4.2,4.2,0,0,0-1.6,4.6,4.4,4.4,0,0,0,3.9,3.2,3.1,3.1,0,0,1,2.4,1.3,37.3,37.3,0,0,0,2.6,3c.3.3.7.7.5,1.2a2.9,2.9,0,0,1-1.6.4,1.9,1.9,0,0,1-.9-1.1,6.7,6.7,0,0,0-2.7-2.6,17.6,17.6,0,0,0-5-1.8A1,1,0,0,1,105.8,144.3Z" style="fill:#161310"/><path d="M96.9,162.6c-1,1.5-.2,3.7-2.2,4.8-.3.3-.3.3.4,2.8.2.6.3,1.2.5,1.8-1.6-.1-1.4-1.9-2.8-2.4l.2,1.9a3.4,3.4,0,0,1-1-2.6c.1-.5.1-1-.4-1.2l.5-1-.8-.3,1.8-.9v-.4h.4c0-.7.3-1.4-.4-2l1.3.4-.4-.8c.6-.2.9-1.1,1.8-.7l-.3.9Z" style="fill:#76573e"/><path d="M165.3,173.4l-14.8-8.8c2.2.5,3.9,2,5.9,2.9s5.7,4,8.8,5.6Z" style="fill:#b4a087"/><path d="M84.5,13.4,89,11.8c2.6-.5,5.2-2,8.3-2,.2-.4.6-.4.9.4l.3-.3,4.5.4c3.2.4,6.4.3,9.5,1.1a35.2,35.2,0,0,1,7.7,2.7l1.3.4c.2.3-.1.4-.2.6,2.2-.2,3.2,2.1,5,2.3s.1.8.3.9.8.2,1.1.3.4.5.7.8,1,.3,1.4.9a2.2,2.2,0,0,0-.5,1.3,10.7,10.7,0,0,1,1.9,1.3c.3.3.7.5.7,1.2s.6.6,1,.8l1.3.7a1.1,1.1,0,0,1,.5,1.1c0,.4-.4.6-.8.6s-1.1.4-1.5-.2,0-.4-.2-.4a8,8,0,0,1-3.6-1.4c-.1-.1-.3-.1-.5.2a39.2,39.2,0,0,1,5.1,3.7l3,2.8c.2.3,1,.4.5,1,1.8,1.1,2.6,2.9,3.5,4.7s2.3,4.4,3.4,6.6c0,.3-.2.6-.7.5-1.4-2-3.2-3.9-3.9-6.3s-2.7-3.1-4.2-4.9a9.9,9.9,0,0,1-2.3-2,41.2,41.2,0,0,0-4-3.3c-.2-.1-.4.1-.6-.1a16.3,16.3,0,0,0-9.1-4.4c-.3.3-.9.2-1.4-.2a2.8,2.8,0,0,0-2-.6,6.9,6.9,0,0,1-3.2-.4,8,8,0,0,0-1.5-.3c-.3,0-.3.3-.4.5a.5.5,0,0,1-.7,0c-.7-.7-1.6-.6-2.4-.9a.5.5,0,0,1-.5-.3.3.3,0,0,1-.1-.2,1.8,1.8,0,0,0-.4-.9,4.1,4.1,0,0,0-2.2,0c-.6,0-1-.6-1.6-.6s-.6.3-1.1.2-1.2-1.3-2.3-1.3-.6,1.1-1.2,1.4a25.7,25.7,0,0,1-4-.7c-.3-.2-.3-.6-.8-.8a5.4,5.4,0,0,0-3.7,1.6c.9.2,1.6-.9,2.6-.2s-1.2.8-1.7,1.4,1.1.2,1.1.9-1.5.3-1.1,1.5c.1-.4.2-.7.6-.8s.2,1.5,1,2,1.3.2,1.2,1.5a.8.8,0,0,0,.4.4l.5.2c.1.2-.2.4.1.6s-.5.2-.8.2,1.7-.2,2.4.4-.6,1.1-1.9.5-.3.3-.6.2-2.6,0-3.9-.2.3.4.1.7a1.9,1.9,0,0,1-2.4-.9,7.7,7.7,0,0,0,1.3-1.2c.6,0,.8.8,1.3.2s-.2.3-.5.2a.8.8,0,0,0-1-.5c-.4-.3-.5-.6-.4-.9s.6-.3.9-.6-.7.3-.8.2a.7.7,0,0,1-.2-.9c-.2.1-.2.3-.4.3s-.6-.2-1-.3-.4.4-.9.5a2,2,0,0,1-1.1,0c-.5-.7-.3-1.2.4-1.6s-1.5.7-2.4,0,.3-.8.8-.9-.8-.3-1.1-.4-1,.3-1.5,0,.1-1-.6-1,0,.1,0,.1.3.6.5,1a15.1,15.1,0,0,1-3.7-.2c-.6.2-.4-.4-.5-.7l-2.5.5,1.9-2.2c.5.4.1.8.1,1.1s.3-.7.6-.9,1.8.2,2-.4h6.5c0,.2.1-.1.1-.3l-4.9-.3c1.7-1.2,3.2,0,4.7-.4v-.6l2.7-.2c0-1.7,2.4.5,2.1-1.9,0,.1-.3-.2-.8.1l.3.5-2.9.4v-1c-.9.1-1.8-.8-2.8.3l-.8-1.2c-.6.8-1.8.5-1.7,1.5l-1.3-.9c.6-.9,2.2.1,2.4-1.4Z" style="fill:#696661"/><path d="M76.5,22.7c.6-.2,1.2-.4,1.7.2s1.2-.1,1.8-.1-.8-.5-1.3-.8,1.1-.2,1.6-.4v1.1l1.8-.3.4.8.7-1.3v1.8l-1.7-.4c1.7,1.4,3-.1,4.1.7l-1.5.5v.9h1.3l.5-1,1.1.9c.5-.2.5-1.2,1.4-.9s-1.1.6-.7,1.4l1.3-.7c0,1-.4,1.3-1.2,1.3v.7c.5.1,1.3-.5,1.2.6s.4-1.1,1-.4l-.3.7-1.5-.3v.7H87c.6.9,1.4.7,2.4.9l-.8-.9,2.7-.2a1.8,1.8,0,0,1,1.9.6c.5-1.6,1.8,1.2,2.3-.6l-3.4-.3,1.8-.3-.8-.3h.7c-.3-.4-1.3.4-1-.7s.2-.8.5-1,.6,0,.6.6a3.9,3.9,0,0,1,1.3.6c.4.1.7-.2,1-.1s.4.6.7.7,1.1-.3,1.6.1-.3.7-.2,1.1,1.7.2,1.7,1.3c.6-.7,2.2.2,3.8,2.2,0,.4-.4.7-.4,1.1s.9.6.5,1.3a3.2,3.2,0,0,1-2.3-.7c-.5-.3-.8-.5-1.3-.4a18,18,0,0,0-8.9-1.2h-.5a3.3,3.3,0,0,0-3.8,1.9,6.6,6.6,0,0,1-2.3,1.7,6.9,6.9,0,0,0-5.1,4l-1.3,1.8c-.4.5-.8.8-1.5.4s.1.1.1.1.2.3.2.4a7.3,7.3,0,0,1-1.4,1.6,16.2,16.2,0,0,0-2.3,5c-.5,1.7-1.3,2.8-3,3.1a2.1,2.1,0,0,0-1,.6,4.3,4.3,0,0,1-3.4,1,2.8,2.8,0,0,0-1.7.5A1.9,1.9,0,0,1,63,56.2c-.5-.8,0-1.3.2-2s-.8-.1-.9-.6-.4-.1-.6-.3,1.5-.8,1.8-1.4h2.2v-.2l-.9-.2c0-.6,1-1.2.1-2s.7-.9-.3-1.3l.3.7c-.9-.1-.8-.8-1-1.3l1.6-.6-1.8.3,1.6-1.1-1.5.2c.1.4-.1.5-.6.5l1.1-1.9c.1-.1,1,.2.9-.8l-1.1-.3,1.7-.9H64l1-.5c-.5-.9.5-1,.9-1.5H65c-.3-.2.1-1-1-.8,1.6-1.4,1.6-3.6,4.1-4.1l-1.6-.7V33.6l1,.3c.2-.8,1.4-1.3.8-2.5l-1.1.8c.8-2.4,2.7-3.7,3.7-5.8.3,0,.5.8.9.4-.8-2.5,1.6-2.2,2.6-3A15.1,15.1,0,0,1,76.5,22.7Z" style="fill:#595754"/><path d="M62.3,53.6l1.3.5c-.2.6-.5,1.2-.9,2.2l1.4-1.2V53.9c2.8.3,5.2-1.1,7.6-2.4s1.6-3.3,2.4-5a12.7,12.7,0,0,1,3-3.9c.5.4.6.7.1,1.4s-1.2,2.6-2,3.8.3,0,.5,0l1-.2a53.5,53.5,0,0,1,19.4,2.5,33.8,33.8,0,0,0,13.1,1,20.7,20.7,0,0,0,4.9-.7l4.1-.8a32,32,0,0,1,7.5-.9l1,.2c.2.8-.4.6-.7.6-2,.2-4,.4-6,.8s-5.2,1.4-7.8,1.8a36.9,36.9,0,0,1-9.4.5c-3.9-.1-7.6-1.4-11.3-2.5a36.3,36.3,0,0,0-11.8-1.3A4.3,4.3,0,0,0,76,50.7a1.4,1.4,0,0,1-1.1.7c-4.3,1.7-6.3,5.3-7.3,9.5a9.9,9.9,0,0,0-.4,3.4,44.7,44.7,0,0,0-.1,5.2A26.5,26.5,0,0,0,69,79.1a10.9,10.9,0,0,0,3.9,4.6c.4.3.9.5,1.1,1.1l-1.9,1.1c-.5-1.1-1.5-1.2-2.2-1.8-1.8,1-2.2-1.3-3.5-1.4-.8-2.4-1.5-4.8-2.3-7.1,0-.5-.7-.9-.1-1.4-1.2-1.2-1-2.9-1.4-4.3a11.9,11.9,0,0,1-.8-4.5c-.2-1.9-.5-3.8-.8-5.7s-.1-2.4-.2-3.6a4.7,4.7,0,0,0-.2-1.7c-.2-.3-.3-.6.2-.7Z" style="fill:#171511"/><path d="M60.8,53.7c.5,3.9.9,7.8,1.3,11.7-.1.2-.1.5-.6.6s-.7-3-1.4-4.3c-.2.5.5,1.6-.6,2s-1.6-3-1.7-5.2-.3-3.6,1.6-4.7Z" style="fill:#342f2a"/><path d="M146.4,74.8c.6,4-2.7,9.6-6.9,11.7-.4.7-1.2.5-1.8.6a7.3,7.3,0,0,1-3.3,0c-.1-.5.4-.6.7-.8a10.3,10.3,0,0,0,2.8-2.7,8.3,8.3,0,0,0,1.2-2.7c.7-1.5.7-3.1,1.3-4.6a2.5,2.5,0,0,0,.4-1.4c0-1.7.5-3.3.6-4.9a34.7,34.7,0,0,0-1-7.2,10.5,10.5,0,0,0-2.9-5,2.3,2.3,0,0,1-.7-1c0-.6.3-.4.6-.2s.5.4.9.4-.3-1.1-.3-1.7.2-.5.4-.4,1.9.9,2.3,2,1.5,1.2,1.9,2c2.5,5,5.3,10,3.4,15.9-.7-.2-.4-.8-.3-1.2a9.3,9.3,0,0,0-.5-5.2,1.8,1.8,0,0,0-.6-1c-.3,2.7.4,5.3,0,8s-1.4,5.1-2.1,7.8a36.6,36.6,0,0,0,2.4-5.9c.2-.9.4-1.9,1.3-2.3Z" style="fill:#453e39"/><path d="M140.7,56.9l-2.4-1.8v.3a.4.4,0,0,1-.5-.2,8,8,0,0,0-1.5-1.7,4,4,0,0,0-.7-1.8c-.4-.7-1.1-1.2-1.6-1.9a3,3,0,0,0-.8-.8l-2.3-1.9a1,1,0,0,1-.7-1.1c-.3-.2-.6,0-1-.3a1.3,1.3,0,0,1,.2-1.8c.5-.5.9-.3,1.3.1s1.7.4,2.6.5c-1.2-.4-1.7-1.7-3-2.3a6.2,6.2,0,0,0,.5-2.7.8.8,0,0,1,1-.2,6.2,6.2,0,0,0,1.7,1.1c.7.1,1.3-.4,2-.1s-.9-.9-1.3-1.4-.2-.7-.4-1.1-1.2-1.1-1.8-1.6-2.5-2.2-4.3-2.4a3.3,3.3,0,0,1-1-.6c-.1-.4.3-.4.4-.6s-.6-.1-.8-.5.1-.3.3-.5,1.2.1,1.6.5a5.3,5.3,0,0,0,2.3,1.3,23.2,23.2,0,0,1,5,4.4c1.3,1.6,2.6,3.1,3.8,4.8l1.1,1.8c.1.3.2.6-.1.8a2.7,2.7,0,0,1-2.6-1.5c-.6-1.1-1.8-.9-2.2-1.4s.9,1,1.7,1.1.1.7.2,1.1a19,19,0,0,1,2.9,2.8,5,5,0,0,0,.2,1.2c.3,1,1,.1,1.4.4a4.2,4.2,0,0,1,2.1,3.8,2.5,2.5,0,0,1,.6,2.3c-.8-.2-1.1-1-1.5-1.5a40,40,0,0,0-4-3.2l-.7-.7c.7.9.6,2.4,1.4,3.8l1.9,1.6c.7,0,1.2-.4,1.8-.1a8.9,8.9,0,0,1,1.8,2.4,3.1,3.1,0,0,0-.7-1.4c-.2-.3-.5-.6,0-.9l1.1.6c.3,1.3,1,2.7.7,4.3-1-.8-1.1-2.2-2.4-2.7l.3,1.2C143,58,142.4,56,140.7,56.9Z" style="fill:#907e73"/><path d="M132.5,27.1a2.3,2.3,0,0,0,2.2-.5c-.5-.5-.6-1.3-1.5-.6a1.8,1.8,0,0,0,.1-.5l-1.9-1.3.5-.4-3.6-2.7,1,.2-.5-.6,1-.4-1.8-.7-.2-.9a1.1,1.1,0,0,1-1.6-.3v-.7c-2.1-.5-3.4-2.8-5.9-2.8l1.1-.4v-.2c.7.1,1.2.7,2,.4s2.9,1.4,4.3,2.6a9.8,9.8,0,0,1,3.7,2.1,72.2,72.2,0,0,1,6.8,5.6,2.6,2.6,0,0,1,.7,1.1c-.1,1.1,1.6,1.1,1.3,2.2a2.6,2.6,0,0,1,1.5,2,6.5,6.5,0,0,0-1.3,2.3.4.4,0,0,1-.5.2L138,30.3l3.4,5.9-.5.3L135,29.7h-.5a1,1,0,0,0-.8-.9c-.7-.3-1.4-.5-1.5-1.4S132.2,27,132.5,27.1Z" style="fill:#7e7168"/><path d="M110.3,22.7l-.4-.8,5.6,1c1.3-1.2,1.9,1.3,3.2.7v-.8c.3.4.4.7.6.9,2-.3,8,2.7,8.8,4.5l.4-.4V28l3.4,2.6c1.2,1,1.9,2.5,3.6,2.9v.6L139,38c.8,1.2.6,2.6,2,3.2s1.7,2,1.9,3.6l.7-.5a41.4,41.4,0,0,1,2.5,10.5l-3-5.7a11.9,11.9,0,0,0-1.5-3.5,1.8,1.8,0,0,1-.4-1,4.6,4.6,0,0,0-1.5-2.7,1.3,1.3,0,0,1-.5-.9c-.1-.9-.1-.9-1-1.3a8.8,8.8,0,0,0-2.4-3.4c-.6-.3-.8-1.1-1.5-1.3s-.2-.4-.1-.6l-.7-.2c.3-.9-.7-.8-.8-1.3a2.7,2.7,0,0,1-2.1-1.7,13.6,13.6,0,0,0-3.5-2.4,17.2,17.2,0,0,1-3.7-2.5c-.1-.1-.4.2-.6.1l-1-.7c-.9-.6-2-.5-2.9-.8a10.5,10.5,0,0,1-1.9-.5c-.7-.8-1.7-.7-2.5-.8l-3.2-.7C111,22.9,110.6,23,110.3,22.7Z" style="fill:#a5968a"/><path d="M148.2,59.9v.4c-.5.7,0,1.4-.2,2.1s.2.7-.4.8a157.4,157.4,0,0,0-4.1-23.6c0-.5.1-1,.1-1.6a1.4,1.4,0,0,1,1.5-.7c.3,0,.7.2.7.5a1.9,1.9,0,0,0,.5,1.1c.1,1.7.9,3.2.9,4.9s-.1,2.5.8,3.5a48.7,48.7,0,0,1,.2,5.4c0,2.2.2,4.3.2,6.4A1.9,1.9,0,0,1,148.2,59.9Z" style="fill:#4c4641"/><path d="M145.1,37.5l-1.3.4a1.5,1.5,0,0,1-.3,1.7c-1.1-2.2-2.3-4.5-3.4-6.8l1.1-2.3.7-.2,2.2,2.9c.6.9.8,2.1,1.6,3.2s-.2.4,0,.6S145.2,37.3,145.1,37.5Z" style="fill:#675c54"/><path d="M146.2,75c-1.6,2.9-1.8,6.4-4.3,9a34,34,0,0,0,2.4-17.3c2.3,2.5,1.8,5.3,1.7,8.1Z" style="fill:#807263"/><path d="M135.8,36.3l1.1.3v.6c.1.2,1.1-.1.2.6a1.8,1.8,0,0,1,1.3,1.7h.8c0,2.2,2.2,3.1,2.3,5.3.2-.1,0,0-.1,0s.9,2.1,2.1,2.7l-.7.3c0,.8.3.4.7.2a10.4,10.4,0,0,1-.4,1l-2.4-3.6c-.3,0-.5-.1-.5-.3-.9-2.6-2.9-4.4-4.5-6.6a5.6,5.6,0,0,1-.5-.8.4.4,0,0,1,0-.5c.2-.1.3.1.4.1s-.4-.6-.4-1S135.6,36.1,135.8,36.3Z" style="fill:#7b6a5f"/><path d="M139.1,26.1l-4.6-4.2c-.6-.2-.7-1-1.4-.8a16.2,16.2,0,0,0-4.6-3.3l-4.1-2.2H124c-.5-1.1-2-.3-2.4-1.4l.7-.6,7.5,3.9,3.9,2.4c.2-.4.4-.2.6,0l4.5,5c.2.2.6.4.4.9Z" style="fill:#c0b4aa"/><path d="M139.2,25.9,133.7,20c.5-.5-.3-.8-.2-1.3l-1.1-.2.9-1.2c2.5,1.5,3.6,4.2,5.5,6.1l1.9,2.1-.9.3,1.3.5-.5.2c.6.5,1.2.8.9,1.8Z" style="fill:#71655e"/><path d="M140.2,45.2l.5.3c-.5,1,1.1,1.5.4,2.6l-.7.4c-.6-.2-.8-.5-.4-1s-2.6-2-3.4-4.1c-.1,0-1,.2-.9-1l-.9.4c-.3-.5-.1-.9.4-1.5l1.3,1C137.8,42.6,138.3,45,140.2,45.2Z" style="fill:#715e54"/><path d="M145.1,37.5c.8-1.5-.8-2.3-.9-3.5s-.1-.6-.1-.8c1.9,1.6,2.1,3.9,3.2,6.5.4.4.2,1.6.5,2.5l-.4.8.6.9h-.8c-.5-1.8-1-3.5-1.6-5.8C145.5,38.1,145.9,37.6,145.1,37.5Z" style="fill:#96887b"/><path d="M132.5,27.1c-.3,1,1,1,1.2,1.7v.4h-1.3v-.5l-4.1-2.9c-.3-.2-.6-.2-.5-.6s.9-.2,1.3-.2,2.6,1.1,3.9,1.8Z" style="fill:#978980"/><path d="M148.2,59.9,148,47.3c.9,1.3.5,2.8.6,4.2s.1,5.1,0,7.7A1.3,1.3,0,0,1,148.2,59.9Z" style="fill:#938478"/><path d="M147.6,63.2a20.9,20.9,0,0,0,.1-2.5c0-.5.1-.7.5-.4a35.5,35.5,0,0,1-.8,8.9l-.5-2h.2l.2,1.1C147.4,66.3,147.5,64.8,147.6,63.2Z" style="fill:#897d72"/><path d="M136.4,144.2l-3.4.9,3.5,1.2-2.7.5c.7.7,2.1.3,2.6,1.5l-.9,1a10.4,10.4,0,0,0-6.3-1.6v1.1l2.7,1.3.3.6a2.7,2.7,0,0,0,2.5-.5l-.3.8c.2,1.2.4,2.4.6,3.9,1.8-1.4,3.1-2.5,4.5-3.8l-4.2,5.6c-.9.2-1.3-.8-2.1-1s-.5.2-.8.2-1.4-.5-1.7-1.7a1.9,1.9,0,0,0-.9-2c-.4-.2-.5-.6-.8-.9s-.8-.7-1.5-.5.7,1.1,1.3,1.4,0,.4-.2.6-.3,1.1.2,1.6.9-.3,1.4,0-.8.7-1.1,1.2.1.8-.4,1h-.3c-.8-1.3-2.3-1.7-3.2-2.9a3,3,0,0,1-.8-1.6,27.4,27.4,0,0,0-.9-3.9c-.1-.4-.2-.9-.6-1.1s.3,1.8.3,2.8-1.1,1-1.6,1.6-1.4-1.3-2-2-2.5-3-3.8-4.4a2,2,0,0,1-.8-1.3,2.7,2.7,0,0,1,1.3-1.3l2.6-1.3a8.5,8.5,0,0,0-1.7-.8c-.5-.2-.9-.5-.5-1.2s2.9.6,4.4,1.1-.3-1.1-.6-1.7a2.1,2.1,0,0,0,.1-1.9c.6-.4.5-1,1-1.4s.6-.2,1-.5-.5-1.4,0-2a1.1,1.1,0,0,1,.8.9c.6,1.7,1.4,3.2,2,4.9a1.1,1.1,0,0,1,0,1.2c-.4.3-.7-.3-1.1-.2s-.6.3-.8.6a4.3,4.3,0,0,1-2.9,1.8,2.6,2.6,0,0,0-1.8,1.2c.1.8.2,1.5.7,1.8s-.6-1-.7-1.7a2.6,2.6,0,0,1,2.7-1.4,2.3,2.3,0,0,0,2,.6,1.3,1.3,0,0,1,1.2.3c.5.7.7,1.7,1.5,2.2a5.4,5.4,0,0,1,1.5,1.5,4.7,4.7,0,0,1,.6.9,24,24,0,0,0-3.7-4.7.7.7,0,0,1-.1-.6.5.5,0,0,1,.6-.4c.6,0,.9.5,1.3.9l2.4,3.1.9-.5a3,3,0,0,0,.4-.8,1.7,1.7,0,0,0-.6-1.1c-.9-.7-1.5-1.9-2.7-2.4a1.3,1.3,0,0,1-.7-1.7,2.5,2.5,0,0,1,.2-.7,14,14,0,0,1,.9-1.7c.3-.6.9-.5,1.5-.7a1.9,1.9,0,0,1-1.2-1.4c-.3-.6-.4-1.2.4-1.4s.6.6.9.9a4.4,4.4,0,0,0,1.5-.3h1l.5.7,1.2-.2c.4.4,1.2.3,1.4,1.1s-1.2.6-1.8.8a17,17,0,0,1-2.2.4c1.5-.6,2.7.4,2.3,3.1.9.7,2,.1,2.9.2s.7-.2.9.3l-2.7.8c-.2.3-.6.3-.9.6s.6,1.5,1.5,1.9a1.9,1.9,0,0,0,1.3.2c.3,0,.8-.1.8.5Z" style="fill:#261e17"/><path d="M124.4,11.5c-.1-.8-.9-.7-1.4-.9-5.3-2.5-11-3.3-16.8-3.4l1-.9h2.5c1.9-.5,4.6.9,7.5,1a1,1,0,0,0,1.1.7,41.2,41.2,0,0,1,9.1,4c0,1,1.2.3,1.8.9l-.3.7Z" style="fill:#625b55"/><path d="M109.7,135.9c-.7-.6-1.3-.2-3,2.1h-1c-.4-1.6-.2-3.4-1.9-4.9l-3.5-1.3c-.3.5-.7.3-1.1.1s0,.9.1,1.3.3,1.2-.5,1.5a.8.8,0,0,1-.6-1.1.5.5,0,0,1-.7.5c-.5,0-.6-.4-.6-.7a4.4,4.4,0,0,1-1.3,1.8c-.8-.4-.9-1.2-1.2-1.7s-.2.3-.6.4-.3-.6-.7-.3a.5.5,0,0,1-.7-.1c-.7.3-.8,1.3-1.7,1.2a.4.4,0,0,1-.4-.4c.1.9.8.3,1.3.3a2.8,2.8,0,0,1,1.8,1.2,10.4,10.4,0,0,1,4.3,0,5.8,5.8,0,0,1,1.7-.6c.4.1.5.5.9.6a2.7,2.7,0,0,0,1.2-.3c-.2-.5-.6-.8-.7-1.3s-.8.6-1.3.1a1.1,1.1,0,0,1,0-1.1l.6-.5,2.5.6-.2,1a1.5,1.5,0,0,1,.3,2c-.5.8-1.5.6-2.3.7H94.2a3.2,3.2,0,0,1-2.7-.8,4.8,4.8,0,0,0,.5,1.2c.1.9,1,1.5.8,2.5a5.7,5.7,0,0,1-.1,1.2c-2.5.6-5.1-.6-7.6-.1H82.8a.7.7,0,0,1,.1-1.2,2.9,2.9,0,0,1,1.5-.9c.6-.1.9-.5,1.2-1.1a3.8,3.8,0,0,1-.3-1.6,6.8,6.8,0,0,1-2.4-2.1,2.3,2.3,0,0,0-.4-2.5,1.1,1.1,0,0,1-.1-.8c-.3-1-.7-2-1-3,1.2,2.3,3.5,1.6,5.4,2s6.6-.3,9.9-1l.5-.3a7,7,0,0,1-1.3-4.5l.4-.7-3.4-3.8c1.3,1,2.9,1.5,3.6,3s.2,1.9.4,2.8c.6,3.5,2.8,5.4,6,6.4h.6c.7-.3,1.1,0,1.4.6l.8,1.3a.6.6,0,0,0,.5.2,1.5,1.5,0,0,1,1.9-.3c.6.3,1,.8,1.5,1s.7-.2,1-.3l1.2.5c.3.1.6.2.4.7A5.4,5.4,0,0,1,109.7,135.9Z" style="fill:#251c14"/><path d="M82.4,131c.4,1.1,1.6,1.9.7,3.4l2.6,2.1v.9l.5.4c-.4,1.8-2.4,1.4-3.4,2.6s.1.5.1.8-2.1.7-1.9,2.4l.3.5-.3.9.5,1.1c-1-.3-2-.5-2.8.6l-.8-.5c.8-1.4-.7-1.8-1.3-2.7l1.2-.2c.5-.8-.3-1.4-.4-2.2l.8-.6c-.2-.7-.5-1.4-.7-2,1.5-1.8,1.8-2.5,1.6-4.5l1.3-.3a1.4,1.4,0,0,1,1.1-1.8l.4,1.2C82.9,132.5,81.7,131.6,82.4,131Z" style="fill:#090705"/><path d="M76.3,109.4l.4-.8,1.2-1.3,2,2-2.1-2.8.4-.4,9.8,9-.2.2-4-2.8c-2.2,4.6-.1,9.3-1.4,13.8v-7.2c-1.1,1.3-.5,2.6-1,3.6v-4.6l-1,.9v-1.2c-2.8,3.1-5.2,6.2-9,7.7,3.8-2,6.2-5.4,9.1-8.3a5,5,0,0,0-.8-8c2.7,4.9,2.7,5.2.5,6.8.6-3.2.6-3.2-.2-3.1l-7.2,7.7-.2-.2,6.3-6.8C78,112,77.2,110.7,76.3,109.4Z" style="fill:#1f1a15"/><path d="M75.1,130.9v-1.5l3.1,2.4-.9.6Z" style="fill:#444240"/><path d="M75.5,92.9l-.8-.4-2.1-1.6.9-1.2c.5.4,1.1.2,1.2.8a2,2,0,0,0,2.2-.8c-.7-.5-1.5,1-2.4-.2l1.6-.4c.4.4,1,.1,1.7.1s-.3-.6,0-1l-1,.4c-.9-.3-1.7-1.3-3.3-.4,1-1.3.3-1.6-.4-2h1l.4.8a2.8,2.8,0,0,0,.3-.6c1.5.6,3.2-.3,4.6.7.8-1.1,2.3-.5,3.4-1s1.1.3,1.9.3,1.4-.5,2.3-.5a32.7,32.7,0,0,0,6.2-.7c1.9-.3,3.8-.9,5.8-.6a3.4,3.4,0,0,1,1.2-.4l3.6-.3a2.7,2.7,0,0,1,1.3.2l.2-.4h.2a30.7,30.7,0,0,1,7.4.5c.4.4.1.8-.3.9a6.5,6.5,0,0,0-1.7.8,2.8,2.8,0,0,1-2,.1c-.4,0-.6.3-1,.5s-2.7.6-4.1-.8-.7.3-1.1.2h1c.4.5.9,1,.4,1.5-3.6,1.1-6.7-.5-10.1-.8-.1,0-.1.1-.2.3v.2c.4.2.9.4.9,1a4.1,4.1,0,0,1,2.9,0c-1.1.9-2.3.5-3.4.7a11.1,11.1,0,0,1-2.8.5c.9,0,2.2-.4,3.6-.6a3,3,0,0,0,2.3.2,7.7,7.7,0,0,1,3.7.4c.3.5.9.8.7,1.3h.4c-.1-.5-.8-.6-.8-1.2s1-.2,1.4-.2a1.1,1.1,0,0,0,1.2-.7,13.5,13.5,0,0,0,3.5-.6c.4,0,.6.3,1,.3a5.9,5.9,0,0,1,2.3-.1,1.5,1.5,0,0,1,1.6-.4c1.2.3,2.6,0,3.8.8s1,0,1.5-.1,1.5.2,2.3.6-.5,1.1-1,1.5.2.9-.5,1-.5-.1-1-.1-2.6.6-4.1,1.4c.2-1-.7-1.3-.8-2s.4.7-.1,1.2-1-.5-1.6-.2-.1.1-.1.1.3.1.4.2a.7.7,0,0,0,.4.6,6.5,6.5,0,0,0,2.1.4c.5-.1.7,0,1.1.8a15.7,15.7,0,0,1,2.7.5c.5,1,1.7.6,2.7,1a5.1,5.1,0,0,0,3,0,2.6,2.6,0,0,0,2.5,1.1,14.8,14.8,0,0,1,2.1.1.8.8,0,0,1,.8.4,1,1,0,0,1-.4,1l-1.9.3c0,.7-.4.9-.8.9s-3-.7-4.3.2-1.5,0-2.3-.1a2.8,2.8,0,0,1-1.4.6c-.3.2-.5.6-.7.6a28.1,28.1,0,0,1-6.4.5c-.9-.1-1.9.2-2.9.1s-.6-.1-.7-.5-.6.4-1,.4a12.4,12.4,0,0,1-2.7-.3c-1.8-.4-3.6-.4-5.4-.7A7.6,7.6,0,0,1,95,99c-.9.3-1.8-.2-2.6-.3s-.5-.5-.6-.6-2,.8-2.7-.3.1-.6,0-1a1.9,1.9,0,0,0-1.9.4c-.5-.1-.5-.5-.5-.8s-.6-1.3-1.6-1.5a27.3,27.3,0,0,1-4.8-1c-.6-.3-1.3,0-2-.2Z" style="fill:#392a21"/><path d="M137.8,55.2l.4.2a7.1,7.1,0,0,1,.7.9l-.4,1.3-1.7-1.1c-.9.2-1.4-.5-2.1-.9a8.2,8.2,0,0,0-2.6-1,58.1,58.1,0,0,0-5.8-.9h-.6c-1.6-.8-3.2-.3-4.8,0l-11.1,2c-4.4.8-8.7.2-13-.8l-9.1-1.7c-.5,0-1-.2-1.4.1a8.2,8.2,0,0,1-3.8.6,5,5,0,0,0-1.3.3c.2.4.6.3.8.6s-.8.4-1.3.4a12,12,0,0,0-6.8,2.2,12.2,12.2,0,0,0-3.6,4.2c-.2.3-.3.8-.9.8a12.7,12.7,0,0,0-1.7,8.5V72c-.7-.1-.6-.6-.6-1a25.3,25.3,0,0,1,1.1-10.2,14.1,14.1,0,0,1,9.2-8.3A46.6,46.6,0,0,1,83.6,51a15.9,15.9,0,0,1,2,.7,1.7,1.7,0,0,0,1.9-.3c.3-.5.8-.4,1.3-.3A42.3,42.3,0,0,1,95,52.2a61.9,61.9,0,0,0,9.6,1.5,11.9,11.9,0,0,0,4.6-.1c4-.5,7.8-1.5,11.8-1.9a3.3,3.3,0,0,1,1.7.1,3.3,3.3,0,0,0,1.7,0c1.9-.7,3.9-.3,5.8-.2S135.5,53.5,137.8,55.2Z" style="fill:#4f3120"/><path d="M69.4,62.4c2.7-5.1,6.8-7.7,12.6-7.5.6-.4,1.3,0,1.9.1l1.6.5c5.7,2.3,8.9,6.7,10.2,12.6a2.8,2.8,0,0,1,.1.9c-.1.3-.1.6-.6.6l-.2-.2a20.1,20.1,0,0,0-1.6-4.9c-.2-.3-.3-.7-.6-.9a14.5,14.5,0,0,0-7.4-6.4,10.9,10.9,0,0,0-11.7,2.2,10.6,10.6,0,0,0-2.6,3.4C68.8,67.2,69,74.1,73,78.2a11.4,11.4,0,0,0,8,3.7,14.3,14.3,0,0,0,10.9-3.4,1.5,1.5,0,0,1,.7-.3.5.5,0,0,1,.5.3,4.5,4.5,0,0,1-2.2,2.1c-5.2,3.1-10.7,3.6-16.2.9a5.3,5.3,0,0,1-2.9-2.6C67.6,73.9,67.2,68.4,69.4,62.4Z" style="fill:#080604"/><path d="M71.8,78.9c6.9,5.5,14.9,5.4,21.2-.4A16.5,16.5,0,0,1,94.5,76c.1-.2.3-.4.6-.1a1.9,1.9,0,0,1-.1,1.3,9.3,9.3,0,0,1-5.1,5.2,1.8,1.8,0,0,0-1,.6,16.3,16.3,0,0,0,3.1.1l6.8-.5c1.3-.2,1.7.2,2,1.2s-.3.4-.5.6-1-.1-1,.7l-1-.5L88.1,86.2c-1.3-.2-2.6-.5-3.7.8v-.4L82.8,86a12.7,12.7,0,0,1-.4-1.4l-.3.8H81c-.2-1-1.2-.9-2-1.2a20.3,20.3,0,0,1-6.8-4C71.5,79.6,71.5,79.4,71.8,78.9Z" style="fill:#52433b"/><path d="M83.6,51.2c-3.7,1.1-7.5,1.5-10.7,3.9s-5.3,7.3-5.6,12c-.1,1.7-.3,3.4.4,4.9.2,7,4,11.2,11,13.1-2.5.4-2.5.4-3.6-.1s-.7,0-1.1-.2c-5.6-3.1-6.7-8.5-7.1-14.2-.1-2.1,0-4.1,0-6.2a16,16,0,0,1,1.5-5.7,13.9,13.9,0,0,1,5.7-5.8,21.6,21.6,0,0,1,7.4-2.5C82.3,50.4,83.2,50.2,83.6,51.2Z" style="fill:#392a21"/><path d="M119.9,189.3l.8.3-.3.9-.6-.4c-.2.9,1.3,1.3.7,2.4,1.7-.1,2.7.8,3.8,2h-.9c-1.8-.8-3.5-2.1-5.9-1.7-.1-.1-.5-.4-1.5,0l1-.8c-.3-.6-.7-.3-1.4-.5l1.2-.4c-1-.3-1.1.2-1.5.7a3.2,3.2,0,0,0-1.1-2.4,7.1,7.1,0,0,1,3.2-1.7,1.1,1.1,0,0,0-.2-1.4l-2.1.3a3.2,3.2,0,0,1,2.3-.9,1.6,1.6,0,0,0,1.5,1.1l1.3,1.5-3.1.6v.2h1.1l1,.8Z" style="fill:#645950"/><path d="M85.1,141.2c2.4-1.2,4.9.6,7.4-.3v-1.7l-.7-.5v-1.2c0-.4.3-.3.6-.3a32.4,32.4,0,0,1,4.4.2,4,4,0,0,0,1.5-.3h.2v1.3H92.8v.3l3.2.4v.2H93.1v1.6c4.4.3,8.7-1.4,13-1l.7,2.6c-4.4.5-8.7,1.6-13.1,1.7l1.1.3h-.2a1.3,1.3,0,0,1,1,.9c-.8.3-1.4-.4-2.1-.2s-1.2.6-1.9.5.7-.7,1-1.1l.5-.5-5,.4c-.3,0-1-.2-.6.5s0,.5-.4.7l-.9.2c-1.9.3-2.4.8-2.5,2.6s-.1.5-.6,1-.4-1.5-.2-2.3a2.9,2.9,0,0,0,.3-1,4.5,4.5,0,0,1,2.7-1.7l-.2-1.2.7.9c.6,0,1.3.1,1.8-.6l.8.6,1-.9c-1.2-.6-2.4-.2-3.5,0l-1.8-.9.7,1.9-1-.9v1.4H83.3l-1-2.5a2.9,2.9,0,0,1,2.4-.1Z" style="fill:#3d3837"/><path d="M83.2,146.3c.3,1-.9,2,.3,3.4-1-4,2.2-3.6,4-4.6,2.1,1.4,2.1,3.3,1,5.1s-2.8,2.1-4.7,1.2S82,148.2,83.2,146.3Z" style="fill:#574e4a"/><path d="M57.8,58.5c.8.9-.1,2.3,1.1,3l.2,2.2c1.4-.8.1-2.2,1.2-2.9S60,62.6,61,63l.6,2.8.5-.4c.2,1.5.3,3,.5,4.5l-1.7.5v-.8l-1.5-.3.8-.6-.9.2c-.4,0,.4-.9-.4-.6-.5-3.1-1-6.3-1.4-9.4A.8.8,0,0,1,57.8,58.5Z" style="fill:#50463f"/><path d="M130.2,133.9v.9l-1-.6-.6.7-.7-1.5c-.7.2-.6.6-.3,1.1s.1.3-.1.5-.7-.3-.8-.7a9.1,9.1,0,0,1-.1-1.7,1.7,1.7,0,0,0-.5-1.5c-.3-.2-.1-.5,0-.7s-.6-.2-.6-.7.5-1.8.4-2.8a1.4,1.4,0,0,1,.2-1.4c.4-.1.4.3.6.3s.3-.3.5-.4a1.9,1.9,0,0,1,1.4.9c.1.4-.2,1,.3,1.3a1.6,1.6,0,0,1,.5.9,1.4,1.4,0,0,1,.9,1.9c-.1.6.1,1,.6,1.1v1.9c-.3.3-.6.4-.8-.2Z" style="fill:#43413b"/><path d="M132.5,135.9l1.7-.5a1.6,1.6,0,0,0-1.7-.5l.4-.6,3.5-1.4.7,1.2-2.8,1.5,2.9-.4a8,8,0,0,1-.4,4.8,2.3,2.3,0,0,1-1.9-1.6,4.6,4.6,0,0,0-1.9-2C132.8,136.3,132.4,136.3,132.5,135.9Z" style="fill:#7f6d5d"/><path d="M130.3,130.4l-.5-1.7-.6.2-.5-1.3c-.3-1,.8-1.4,1-2s-.4-.6-.4-.9.3-.5.3-.9-.3-1.2.3-1.7h.4l1.1,1-.9.6.6.6c-1.1.9-.1,1.8-.1,2.8,1.7-.6.7,1.3,1.5,1.3s-.1,1.3-.8,1.6l-.5-.3Z" style="fill:#8b887e"/><path d="M132.5,135.9h0c2.5,1.1,2.5,3.4,4.3,4.1l-.4.2c-1.5-.1-3,.5-4.5-.3,1-.6.3-1.6.4-2.4s-1.6-.8-3.1-.8Z" style="fill:#5a4a3c"/><path d="M136.4,144.2c-.9-.4-2,.2-2.7-.6l-1.5-2.3,1.5-.3c.7.5,1.5-.5,2.1.6v-.8l1.3.4.3,2.5Z" style="fill:#6f5b4b"/><path d="M129.9,122.1v2.2l-1.1.6,1.3-.3v.8l-1.4,2.2-.7-.5.5-.6-1.1-1.1a3.2,3.2,0,0,0-.2-1.4c.1-.5.6-.4.8-.8s-.8-.1-.9-.7.6-.7.9-1.1.9-.6,1.5-.4Z" style="fill:#3d3b35"/><path d="M129.5,121l-.7.5h-.9c-.3-.2-.6,0-.9-.1s-1-.9-.2-2.3-.5-.9.1-1.3a.8.8,0,0,1,.7-.1c.2.4.7.6.3,1.2s.9.7,1.6.4.1.8.2,1.2Z" style="fill:#3c3832"/><path d="M130.3,122.1h0Z" style="fill:#221d15"/><path d="M75.5,92.9l3.8.6h-.1l7.1,1.4c.6.5.8,1.3.6,2.7a5.2,5.2,0,0,1,.7-1.1h1.9c-.3.3,0,.4.2.5l-.8.7,1.3.3.5-.6a1.1,1.1,0,0,0,1.4-.1v1.2c1-.3,1.9.9,2.6.4l11.5,1.6.5-1.6.2,1.6c1-.5,2.1.5,3-.3l3.8.3.7-.6c.5.6,1.3-.7,1.8.3l1.1-1.2c.3.2.9.4,1-.6,2.3,1.2,4.1-.8,6.4-.1,0-.1,0,.1.1.4l1.2-.4-.9-.5,2.9-.5.3-.8-4.9-.3-.3-.8c-.4-.1-.9-.3-1.2.3s-3.5-.1-4.9-1.6l-.4.3-.4-.6a2,2,0,0,1-2-.3c-.1-.2-.1-.4-.2-.5s-.5,0-.7.3-2.4.1-2.6-1.7l-.6.2v-.5c.8-.2,1.5-.6,2.4.4l-.3-1.7h.9l-.5.4,1,.7V92l4-1.3c.5-.3.9.7,1.4-.2l-.9-.5,1.2-.4.6-.8c-.7-.5-1.7.6-2.2-.6a1.8,1.8,0,0,1-2.6-.5l-.7.5-.6-.7-.4.6c-.9-.9-1.7-.6-2.8-.2a3.7,3.7,0,0,0-2.2.4l-.7-.5c-1.2.2-2.4.8-3.8.5l.3.4a3.6,3.6,0,0,1-2.7.2l.7,1.2c.1-.4.2-.7,0,.1h.1l1.4.2h-2.4l1.7.2v.2h-1.2l-.7-1.3c-2-1.2-4.2.2-6.3-.8l-4.5.8v-.3l7-1.2v-.2l-2.8.3c0-1-.6-.9-1.5-.8l.8-1-.3-.4a1.1,1.1,0,0,1,1.2.4c3.3.2,6.2,1.8,9.9.4,0-.1-.7-.4-.7-.8h-1.9v-.2l3.4-.3-1.5.6h4.4l.3-.5c1.1.2,2.3.5,3.3-.7s1,.3,1.3-.4.4-.2.6-.1.3.4.2.7c2.3.7,4.5,2.2,7.2,1.9a4.1,4.1,0,0,1,1.6-.3,3.8,3.8,0,0,0,2.4.8.9.9,0,0,1,.9.5c.3.3.4.7.8.8l1.8.3c.3.1.8.1.8.6a6.4,6.4,0,0,1,4.3.2c.4,0,.6-.3.9-.3s2.8.7,4.2.3.8-.1.8.4l-1,.5-.9.3c-.4.1-.9-.1-1,.9l-.5-.9h-1.7l.3,1.6,1.5.6h-1.7l-3-2.6,2.5,3.9c-1.4-.6-2.5-.1-3.6.1l.4.6-1.3.3,2.8,1.3c-1.1.6-2,1.7-3.5,1.2l-.3,1,2.6-.8-.8,1.4c-1-.5-1.2,1-2.1.8l-.2-.3a.6.6,0,0,0-.9-.2,75.5,75.5,0,0,1-9.5,1.7h-2.7a25.3,25.3,0,0,1-5.5.2,117.9,117.9,0,0,1-13.2-1.3c-2.9-.4-5.7-1-8.5-1.6l-3.5-1L83,97.2l-1.1-.3c-.6-.3-1.3-.3-1.6-.9Z" style="fill:#4a3a2f"/><path d="M139.5,90.1c-1.7-.2-3.4.4-5.1-.5l-.4.6c-1.6-1-3.3-.5-4.9-.8l-2.5-.5a1.3,1.3,0,0,1,.2-1.2,3.7,3.7,0,0,1,2.1.2,3.4,3.4,0,0,0,2.4.4c.4,0,.5.5.8.7s.7-.8,1.1-.6,2.9-.2,4.3,0a1.4,1.4,0,0,0,.5-.8c.1-1,1-.6,1.5-.8a8.6,8.6,0,0,0,4.1-1.5c-.7.9-1.3,1.1-1,1.7l-1.4.2c-.3.8-.8.5-1.4.1.2,1.2,1.4.2,1.6.9S140.7,90,139.5,90.1Z" style="fill:#6e5b4c"/><path d="M139.5,86.8v.4c-.4,0-1-.6-1.2.4a20.2,20.2,0,0,1-4.9.1,8,8,0,0,1-2.7-.2,1.2,1.2,0,0,1-.9-.3c-.2-.2-.6-.2-.8-.5s.4-.8.9-.9l3.6-.6a9.5,9.5,0,0,0,4.1-1.4.7.7,0,0,1,.6-.2c-.7,1.6-2.1,2.5-4,3.6l5.4-.7Z" style="fill:#a47b5e"/><path d="M126.6,161c-.8,1.7.1,3.3,0,4.9a2.5,2.5,0,0,0-3.4.4,9,9,0,0,1-.5-.9h-1.8v-.4h-2l.9.6-.3,1-.6-.4-.5,1.2h.9l.6,1.2-1.2-.3.4.9c.4-.1.9-.3,1.1.3l-.8.4c0,.3.1.8-.5,1l.6.4-.6,1c-.1-1.2-.7-1.9-1.9-1.9s-.3-2.1-1.8-2.4v2.7l-1.4-.6a2.3,2.3,0,0,0,.8-2.8c-2.4-.9,1.5-1.5.2-2.4l-.5.8c-.5-.6.1-1,.1-1.5s1-.8,1.5-1.4,1.1-1.1,1.9-.6l1.1-1c.2-.6.7-.7,1.1-.9a6.9,6.9,0,0,0,1.9-1c-.2-1.1-1.1-2-.9-3.1s.9.1,1.2.5a32.4,32.4,0,0,0,3.6,3.8A1,1,0,0,0,126.6,161Z" style="fill:#735741"/><path d="M80.3,96l1.7.6a3.4,3.4,0,0,1-1.3,3.8c-.8.6-.9.9-.3,1.6s1.7-1.5,3-1.1-.2-.5-.1-.8.3-.5.4-.7S82.6,98,83,97l1.2.4c1.2.6,2.5,1,3.3,2.2a2.3,2.3,0,0,1,2.4.8c1.9,0,3.6.8,5.5.9s1.2.5,1,1.4-.9.2-1.4.3.3.4.3.6-.5.5-.8.4-1.7-.2-2.7-.6a31,31,0,0,0,2.7,3.4,7.6,7.6,0,0,1,1.3,2.9c0,.5.1.9-.5,1.1s.6.3.7.7-.6.8-1.2.5l-1.1-.5h-.3c-.1-.3-.4-.4-.6-.5-1.9-2.2-4.1-4-5.9-6.2.3.5,1,.8.9,1.6s-.9.4-1.4.2-2-1.6-3.1-2.2a8.9,8.9,0,0,0-3.9-1.2c-.2.4.1.6.4.7,2.6.6,4.3,2.5,6.3,4a68,68,0,0,1,5.7,5c.3.3.8.6.6,1.1s-.6-.2-.8-.4c-3.6-3-7.1-6.2-11.3-8.6-2.4-1.4-4.6-.6-6.9-.6-.4-.1-.7,0-1-.3s-.8,1-1.1-.3c-.6.9-1.5.5-2.2.8h0l-4.3-2.9c-1.1-.1-1.6-1.6-2.5-2.8l.9-.4,9.2,2.5c-1.3-.7-2.7-1-3.8-2.1l.4-1.4-.6-.9,1.1-.7-.7-.6h8.3C78.2,95.1,79.2,96.2,80.3,96Z" style="fill:#1b1510"/><path d="M74.3,151.8c1-.4.8-1.4,1.2-2.3h.9a4.9,4.9,0,0,1-.2,5.9,1,1,0,0,1-1.3.4,1.1,1.1,0,0,1-.6-1.3C74.3,153.5,75,152.7,74.3,151.8Z" style="fill:#754f40"/><path d="M123.8,111l2.7-1.6c-.1-.4.5-.5.9-.8l.4.6h-.6l.6,1.1-1.3.2,1.4.5c-.4.1-.7.2-.1,0l-4.6,4.9c-.2,1.2-1.2,1.6-2.1,2a3.4,3.4,0,0,0-1.9.7c-2.1,1.1-4.2,2.2-6.5,2.3-.5-.1-.6-.5-.9-.5s-.6.3-.9.1,1-.6,1.2.3-3.2.8-4,.1.3-.4.5-.4-1.5-.2-2.2-.5-.3-.7-.7-.9-1.3.1-1.8-.7c-.2.9-.6.9-2.3.2.1-2-1.2-3.5-2.1-5.1s-1.2-2.5-1.9-3.7-.1-1,.7-1.2a8,8,0,0,1,2.2,2.6c.5.7.8.9,1.5.7s-1.3-1.1-.9-2,.9-.5.7-1a1.7,1.7,0,0,1,1.1-.3h0c-.8,0-1.4-.2-1.6-1a.5.5,0,0,1,.2-.4,7.1,7.1,0,0,1,3.5,1,8.5,8.5,0,0,0,4.1,1.5c1.3,0,2.5.7,3.8,1.1a3.2,3.2,0,0,0,1.4.2c.7-.2,1.1.3,1.4,1s-.5,1.8-1.8,2-.6.7-1.1,1.1.7-.8,1.3-.9,1.3-.1,2,.4a31.4,31.4,0,0,0,6.7-3.1A1.8,1.8,0,0,1,123.8,111Z" style="fill:#46372c"/><path d="M121.1,117.6l2.1-1.8c.1.8,1.2-.6,1,.6,1.6-.9,2.6-3,5.2-2.2-.8.6-1.1.6-1.5.2s-1.5.7-2.3,1.4l3.3-.8-1,.9-.3,1.9-.6.2c-1.3,0-2.4.5-3.7.6,1.4,2.6.8,5.3.8,7.9a22.1,22.1,0,0,1-.4,3.5,1.7,1.7,0,0,1-.7,1.3,13.8,13.8,0,0,1-3.6-.3c-.5-.2-.5-.6-.8-.8s-1.6.5-2.3-.2a3.2,3.2,0,0,1-.3-.9,5.4,5.4,0,0,0-2-3.6,1.1,1.1,0,0,1,.5-1.3,20.5,20.5,0,0,0,2.3-2c-.4-1.2.6-1.7,1.3-2.2a9.1,9.1,0,0,0,2.1-1.8Z" style="fill:#705845"/><path d="M96.3,102.7l-.3-1-6.3-1.2-.8-.6c-2.2,0-3.2-1.8-4.7-2.5l3.3,1a18.5,18.5,0,0,0,4,1.2,65.9,65.9,0,0,0,17.7,2H114c.4,0,.8,0,1-.3A55.2,55.2,0,0,0,128.3,99v1c-.3.4-.7.4-1.1.5s-.3.6-.5.7-.6.2-.8.3-.4.4-.6.6l-.8.5c1.1.5,2.2-.1,3.2.3l.8.2-2.4.8-3.6.6c-.8.1-1.2.7-1.9,1.1s-3.2,1-4.9,1.5c-.4,2-2.2,1.1-3.3,1.7s.1,1-.7,1.2a14.3,14.3,0,0,1-4.1-.9.8.8,0,0,1-.5-1,1.3,1.3,0,0,1,1-.6c1.9-.4,3.4-1.5,5.2-2.2a10.3,10.3,0,0,1,2.5-.7l3.7-.8a43.3,43.3,0,0,1-7.2.1c-5-.1-9.9-.6-14.9-.9A1.3,1.3,0,0,1,96.3,102.7Z" style="fill:#1b150f"/><path d="M127.6,102.9a6.1,6.1,0,0,1-4-.2l3.8-2.5.8-.2v.2c.2.4.4.9-.4.8Z" style="fill:#4d3e32"/><path d="M107.5,108.9l4.4.9c1.4-.1,2.8-.5,4.1-.2s5.2-1.2,6.5-4c.2-.2.5,0,1-.2s.6-1.2,1.5-.9l.4.8c.6-.8,1.5-.3,2.2-.7l-.3,2.1c-.3-.3-.6-.3-.8,0v-1c-.3,1.2-.9,1.3-1.6,1.5l.3.7c-.4.8-1.3,1.4-.7,2.5s-.8.2-.6.6a27.7,27.7,0,0,1-8.3,4l.2-.6-1.6.4v-1.1l-.6,1.5-1.6.2,1.7-1.8h.8l1-1.8-1.1-1-.3.6c-2-.5-3.7-1.7-6.1-1.5l-3-1.6A3.2,3.2,0,0,1,107.5,108.9Z" style="fill:#65503e"/><path d="M125,104.5c-1,0-1.1,1.7-2.4,1.2l-.3,1.2a21.6,21.6,0,0,1-6.3,3c-1.1-.7-2.7.5-4.1-.1l.3-.9h-.8c1.1-1,2.4-.7,3.6-1l.2-1,7.3-2.8,3.1-.6c.3-.1.6-.2.4.3Z" style="fill:#3a2d24"/><path d="M128.1,169.3c-.3-1.5.7-1.8,1.5-2.4l-.7-1.1a2.2,2.2,0,0,1,2.5-.7A9.5,9.5,0,0,1,128.1,169.3Z" style="fill:#81624a"/><path d="M121.1,117.6l-4.3,3.9.4.6c-.7,1.4-2.6,1.7-3,3.3-.6.1-1.1-.4-1.6-.6a20,20,0,0,0-5.9-1.2,4.8,4.8,0,0,1-1.6-.8,9,9,0,0,1-1.9-1.5c-1.2-.3-2.3-1.2-3.7-.8s-2.2-.3-2.7-1.6l-.8-.2a3.5,3.5,0,0,0-2.6-2.4c-.1-.1-.1,0-.2.1l.2.2c-.6.2-.7-.3-.8-.7h.9l-1.9-2.5.8.4c.8.2,1.3,1,2.3,1.4s-.6-.7-.1-.9l1.3-.2a30.4,30.4,0,0,0,3.3,2.8,1.4,1.4,0,0,0,1.2-.5c-1.8.1-2.4-1.8-3.9-2a1.2,1.2,0,0,1-.5-.5,2.3,2.3,0,0,0-2.1-1c.4-.7-.6-1-.3-1.7s1.4,1.1,2.4.3l-1.7-.9,1.3-.3c-.1-3.2-3-4.8-4.4-7.4.9.1,1.6.7,2.4.3s.9.9,1.6.4.6,0,.8.1a31,31,0,0,0,4.7,2.6c.3.2.7.3.7.8s.8.9,1.3,1.2l.6-.3.4.7-1-.2-.8.4.3.3-.9.4c-.5,1.2,1.1,1.2,1.2,2.3l-1.2.5-3.1-3.9c-.8.7-.3,1.2-.1,1.4,1.5,2.7,2.7,5.2,4,7.6l-.4.7c.5.6.8,0,1.2-.1s-.2,1,.6.5.3-.7.9-.7l-.3.4,2,.2.4,1.2H108l2.1.8h-1.8v.2h3.6v-.3h-1.1l-.5-.6c.6.7,1.7-.5,2.2.6a18.1,18.1,0,0,0,7.2-2.8A5.9,5.9,0,0,1,121.1,117.6Z" style="fill:#2a241e"/><path d="M116.2,129l.4,1.1,2.5-.4v1l3.7.5c.1.5-.3.7-.5.9s-.4,1.1-.9,1.3-2,.4-3.1.4-.6.7-1,1a3,3,0,0,1-.7,1c-.4.2-.9,0-1.4-.1a3.1,3.1,0,0,0-2.3,0,.6.6,0,0,1-.8-.3l-1.6-.9c-.4-.2-.3-.6-.4-1s-.6-.1-.7-.3.1-.4-.1-.6-2.8.5-4-.8c.6-.8,1.3-.7,2-.8s.7-.1.8-.4-.3-1.3-1.1-1.3h-.7c-.5-.1,0-.6-.4-.8a9.6,9.6,0,0,1-1.7-1.3c-.2.3,0,.8-.4,1s-.9-1-.7-2.4.5.6.8,0,.3-.4.8-.5.2.3.3.4a1.2,1.2,0,0,0,1.4,1c.4,0,.9-.2,1,.5s.4-.2.6-.2a5.2,5.2,0,0,1,3.4,1c.3.3.7,0,1,.2s.8,1.4,1.5,1.7,0,.6-.1.9a1.6,1.6,0,0,0-.2,1c1-.6,2-1.1,2.2-2.4A.5.5,0,0,1,116.2,129Z" style="fill:#382c23"/><path d="M103.2,125.9l.4,2.2h.4v-1.5l2.5,1.8a12.2,12.2,0,0,0-.9,2.7c-.2,1.1.3,1.6,1.4,1.7s1.8-.2,2.6.3h.9c.1.4.1.9.2,1.4l-.5.7c-1.3-.2-1.8-1.8-3.5-1.4-.2.1.4,1-.6.7s-.8-2.4-2.4-2.5a8.3,8.3,0,0,1-6.1-6.5c-.2-.8-.6-1.6,0-2.4s1.7,1.7,2.4,2.8a2.4,2.4,0,0,1,.6.8,9.9,9.9,0,0,0,2.8,3.3,8.5,8.5,0,0,1-2.8-3.7,1.2,1.2,0,0,1-.3-1l-.4-.8c1,.1,1.4,1,2.1,1.4l.4-.4Z" style="fill:#161310"/><path d="M108.1,127.3l-1.2.7.4-.9h-1.8l-.9-1.5-.6.3a2.1,2.1,0,0,1-1.5-2.1l-1.4-.7v-.8c.9.4.7-.4.9-.9s.8.9,1.1-.1l2,1.2c.1.7.8.7,1.2,1.1s.5.4.4.8a.4.4,0,0,1-.6.2c.3.1.6-.1.9-.2a3.7,3.7,0,0,0,1.4.7c.2.4,0,.9.2,1.3S108.3,127,108.1,127.3Z" style="fill:#5a4c41"/><path d="M97.5,123.1c-.2,4.5,2.4,7,6.1,8.9l-.4.3c-3.7.1-7.9-6-6.7-9.6Z" style="fill:#816352"/><path d="M100.2,125.3a15.9,15.9,0,0,0,3.7,5.2,7.6,7.6,0,0,1-4-4.6Z" style="fill:#624f44"/><path d="M121.1,156.1l1.2,3.4-3.4,1.7-5.5,1.9c-1.4-4-2.7-8-4.1-11.9,0-.1,0-.2.1-.2s.3,0,.5.1a.9.9,0,0,1,1.1-.7,2,2,0,0,0,1.6.7c.1-.7,1-.3,1.3-.8a3.6,3.6,0,0,1,2.8.6,23.8,23.8,0,0,1,4.2,4.2C121.1,155.4,121.3,155.7,121.1,156.1Z" style="fill:#9b6b42"/><path d="M121.1,156.1c-2-2.4-3.4-5.6-7.3-5.6a2.7,2.7,0,0,1-2-.9,7.7,7.7,0,0,1-1.7-1.9c-1.7-1.2-3.3.1-5.1.1.3-1.2.5-2.3.8-3.5,3.9.8,7.7,1.7,9.5,5.8l1.7-.3a1.3,1.3,0,0,1,1,.7,60.3,60.3,0,0,1,4.9,6.4,12.9,12.9,0,0,0,2.7,3,9.4,9.4,0,0,1,1,1h0c-.5.5-.7.1-.9-.2Z" style="fill:#31251b"/><path d="M110.1,147.7c1.4.7,2.1,2.4,3.7,2.8l.6.5-1.4-.2c-.2.2.2.8-.5.8s-.6-.7-1.1-.1l-.2-1-1.2.3.6,1-1.3-.6c-.6,1.4,1.2,3-.3,4.4l-1.2-1c.7.2,1.2.5,1.5-.1l-1.1-1.1c1-.6-.2-1.1,0-1.7l-1.1-.8h-.6l.2-1.1c.3,0,1,.4,1-.5l1.6.6-1.7-1.6h.7l-.2-.7C108.9,148.2,109.5,147.7,110.1,147.7Z" style="fill:#6d5038"/><path d="M126.6,160.9a15.3,15.3,0,0,1-4.2-4.2c-1.7-2.4-3.6-4.6-5.4-6.9l-4.3-5c-2.6-.1-4.7-1-5.4-3.7s.5-4,2.4-5.2l2.5-.5a7.7,7.7,0,0,1,4.5.3l.4-1.2,1.1-.3c-.1-.3-.8-.3-.2-.9h3.4c.7.7.5,1.4.1,2.2s-.1,1-.7,1.2.7,1.2-.3,1.8c.8.6.8,1.4,1.1,2.2l-4.9-1.5-.2.5,3.2,1.5a17.8,17.8,0,0,0-4.7,2.6,7.6,7.6,0,0,0,2,2.8,65.1,65.1,0,0,1,5.1,6.4c-.2-.6-.8-.9-.6-1.6a1.7,1.7,0,0,1,1.4-1.7,4.2,4.2,0,0,1-.2-3.5c1.7,2.3,1.3,5.1,2.5,7.4A17,17,0,0,0,126.6,160.9Z" style="fill:#5f5249"/><path d="M92.6,144.7l-1.2,1.2c1.5-1,2.7-1.3,4-.4-.4-.7-.4-.7-1.8-.9h1.2a2.7,2.7,0,0,1,1.9,3.2,3.1,3.1,0,0,1-3.2,2.6,2.7,2.7,0,0,1-2.8-2.5A2.5,2.5,0,0,1,92.6,144.7Z" style="fill:#6f5656"/><path d="M99.5,133.3v1.1c.9.2.8-.5,1-1.1L102,136c-.5.4-1.2-.6-1.3.5s-1.1-.5-1.2-1.1l-1.7.9-1.6-.4c-.4.1-.8.5-1.3-.2-.2,1.1-1.2-.3-1.3.6s-.9-.5-.9-1-.9.1-1-.3H89.6c.7-.4.5-1.3,1.6-1.2l-1.1.4.5.5,1.6-1.8.5.9c.7,0,.3-.7.7-1l.3,1.1c.7,0,.6-.6.7-1s.7,1.5,1,2.3.9-.4.5-1l.8-.3V133l1-.4c-.2.5-.8.8-.2,1.4s.7-.1.7-.8,0,1.2.7,1.4.5-.8.5-1.3Z" style="fill:#3d3b35"/><path d="M110.3,22.7h1c.4,0,.5.3.7.7s1.7.9,2.6,1.2,2.1,1.7,3.4,2.1a7.6,7.6,0,0,1,2.4,1.7c0,.8.9,1.3,1,2.1a5,5,0,0,0-.3,1.9c-1.5-1.1-3-2.2-4.7-2.4s-.1-.6-.4-.8a21.1,21.1,0,0,1-2.2,1.4c.8,1,2.3,1,3,2s-.4.6-.2,1,1.7.3,2.5.8.8-.3,1.2,0-.4.7-.7.9.5,0,.7.2.3.4.5.7.6-.2.8.1-.1.8.1,1.1.6.2.8.6a6.9,6.9,0,0,0,.4,1,1.7,1.7,0,0,1-.6.6c-.5,0-.5-.4-.8-.6s-.9-.1-1.4-.4-1.3.2-1.8.8a9.8,9.8,0,0,1-3.8-.6,16.9,16.9,0,0,1-4.8-2.5c-.4-.4-1-.7-1.3-1.3s-.7-.7-.9-1.2.8-.3,1.1-.5-1.6.2-2.3-.5.5-.2.6-.4a1.8,1.8,0,0,0-.9-.8.7.7,0,0,1-.6-.7c.3-.3.6-.1,1-.2s-.8.1-1.2-.1.4-.7.6-1-.5-.4-.7-.8-.7-1-.4-1.8-.6.2-1,0a6.7,6.7,0,0,0-.6-1.2,4,4,0,0,0-.9-2.1,1.1,1.1,0,0,1,1.5-.8h1.4c.3,0,.5.4.9.4h1c-.1-.7-.3-1.3.1-1.9Z" style="fill:#443e3b"/><path d="M103.2,25.7l.9.7-.3.4c.5.6,1.1-.2,1.7.1-1.6.4.2,1.2-.5,1.8l1.6.8c-.3.5-1.2.2-1.2,1l1.8.3c-.6,1-1.1-.4-1.7.1l2.1,1.6-1.4.3,3.2.3-1.5.7.6,1.1c-.5.4-.8-.1-1.2-.4a6.7,6.7,0,0,0-1.9-1.4c1,.8,2.2,1.4,1.7,2.8l1.8,1.6c.1.5,0,.7-.3.9h-.3a.5.5,0,0,1-.4-.2,8.8,8.8,0,0,0-1.5-1.2,3.2,3.2,0,0,1-1.2-1.1c-.3-.5-1-.6-1.6-.7a4.5,4.5,0,0,1-3.1-1.9l.7-.2c.5,1,1.7.9,2.6,1.5s-.6-.8-.9-1.1l.6-1.2a5.4,5.4,0,0,0-3.4-2.4l.5.7-1.5-.5.9-.3-2.2-.6a1.7,1.7,0,0,1,.5-1.5l-.9.3-1-.2-.2-.8-1,.5-.5-.8a.9.9,0,0,1-1.2-.4l.5-.4c-1-.3-.8.6-1.2.8s.3-1.2-.4-1.4-.8-1.2-1.7-.8l.2-1.2h-.2l-.4,1.4L89.6,23l1.6-.7c-.3-.6-1.3,0-1.5-.9l2.1-1-.2-.4-2.8,1,.2-1.3a10.3,10.3,0,0,1,4.7-1.3v.8l4,.8c.4.2.8-.1,1.2,0a.8.8,0,0,1-.2,1.3c-.8.2-1.6-.4-2.5-.4.9,1.1,2.7.8,3.4,2.1.5-.5.6.2.8.5s.8,0,1.2.3S102.9,24.8,103.2,25.7Z" style="fill:#837871"/><path d="M103.2,25.7l-.7-.2c.3-.8-.5-.4-.5-.8l-.8-1c-.7.4-1.3.5-1.1-.7l-.7.3c-.9-1.6-3.1-1-3.8-2.6.9-.7,2.4.9,3.3-.2s-1,.4-1.2-.5l1.2-.9-.9-.6h2.1l1.4.7v1c1-1.2,1.8-.2,2.6.1s1.5.1,2.2-.2.9.7.5,1.3-.5.2-.5.6v.2l-.3.3h-.2a1,1,0,0,0-.4.5h-.1c-.9.8-2-.7-2.8.4S103.6,24.7,103.2,25.7Z" style="fill:#5a514c"/><path d="M110.5,13.5c.1,1.3,1.4.4,1.8,1.2l-.8.2c-.7-1.2-1.9,0-2.9-.7l1.3-.2-.9-.7c-.6.8-1,.1-1.6,0l.7-.2v-.2h-3.3l-.5-.3-.9.4c-.3-.5-.6-.4-.9-.2s-3.4.5-5.3-.7c-.1,0-.4,1.1-1.2.3l1.3-.5h-2l.3-1c.8.4,1.5,1,2.3.1l.3.7c.3-.8.6-.9,1.1-.3s9.3.2,9.9.9a1.7,1.7,0,0,1,1.9.4C111,13.1,110.5,13.1,110.5,13.5Z" style="fill:#918b84"/><path d="M110.5,13.5l-.2-.6.8-.2,5.8,2.5a34.9,34.9,0,0,1,5.8,2.9l-11.1-4.6C111.5,13.3,111,13.3,110.5,13.5Z" style="fill:#bdb5ad"/><path d="M107.1,21.7l.3,2.3-.8-.5h-.4c-.6.5-.8-.1-1-.4h0c.1-.1.3-.3.5-.2h.1c-.4-.1-.3-.3,0-.5h0l.4-.2h0c0-.1.1-.1.1-.2h.2v-.3c.1-.1.1-.1.2,0Z" style="fill:#5a514c"/><path d="M106.7,21.6v.2h-.1v.2h-.3l-.4-.9h.9Z" style="fill:#443e3b"/><path d="M78.2,41.6c1.6-2.6,3-5.5,6.5-5.9.2.6-.3.9-.7,1.1A3.3,3.3,0,0,0,82.7,40a2.7,2.7,0,0,0,0,.9,7.2,7.2,0,0,0,2.1,1.2,71.6,71.6,0,0,0,15.6,4.6,36.2,36.2,0,0,0,10.4-.1,76.7,76.7,0,0,0,11.7-2.8l.4-.2c.3-.2.1-.6.3-.8s.7,0,1,.2a3.1,3.1,0,0,0,2.5,1.3.5.5,0,0,1,.1.8,29.7,29.7,0,0,1-6.9,2.9l-1.9.5a50.1,50.1,0,0,1-9.4,1.7,37.3,37.3,0,0,1-4.7.1,32.5,32.5,0,0,1-8.2-1.2,71.7,71.7,0,0,1-10.1-3.7l-2.9-1.6-1.1-.9a3.6,3.6,0,0,0-1.7-.7A1.8,1.8,0,0,1,78.2,41.6Z" style="fill:#171511"/><path d="M100.5,33.3c1.4,1.4,3.4,1.6,5.6,2.5h-.7l2.7,2.2a26.8,26.8,0,0,1-4-.2,45.5,45.5,0,0,1-13.9-3.7,2,2,0,0,1-1-.7c.4-1,1.4-1.2,2.2-1.5A16.8,16.8,0,0,1,100.5,33.3Z" style="fill:#181816"/><path d="M91.4,32l-2.1,1.4a47.4,47.4,0,0,0,13.6,4.1c1.7.3,3.5-.2,5.2.6l.2.2c.4.6-.1.9-.6,1a4.1,4.1,0,0,1-1.9-.1c-3.3-.5-6.6-1.1-9.9-.2a9.9,9.9,0,0,1-3.7-1.1,19.8,19.8,0,0,1-3.8-2c-.6-.4-1.4-.8-1.5-1.8S89.4,31.6,91.4,32Z" style="fill:#050404"/><path d="M86.9,34.1c1.3,1.8,3.4,2.5,5.3,3.6,0,1.2-.7,1.6-2.5,1.5a3.5,3.5,0,0,1-1.7.6c-1.1,0-1.5.8-1.9,1.5a1.3,1.3,0,0,1-1.5.9L82,41.1l.5-.8c-.1-.3-.2-.5,0-.2-.4-2.5,1.3-3.2,2.2-4.4Z" style="fill:#262625"/><path d="M78.2,41.6c1.2.5,2.7,0,3.6,1.2a.7.7,0,0,1-.9.3,1.7,1.7,0,0,0-1.9.5,8.7,8.7,0,0,0-2.7,3.3,3.2,3.2,0,0,1-.8,1.2l-1.1.3,2.8-4.8c.1-.2-.1-.7-.1-1l-.2-.5A1.4,1.4,0,0,0,78.2,41.6Z" style="fill:#251c16"/><path d="M83.6,51.2c-3-1.4-5.5.3-8,1.3-5.3,2.1-7.8,6.5-8.7,11.9.3-5.9,2.7-10.1,8-13.6s11.8-2.3,17.5-.6a43.1,43.1,0,0,0,25.4.3c2.9-.9,6-1,9-1.4.2-.3.4-.3.7-.3a23.7,23.7,0,0,1,6.5.9l1.7,1.9a.6.6,0,0,1-.9-.1c-1.4-1.1-3.1-1.1-4.8-1.3a30.5,30.5,0,0,0-12,1.4A75.8,75.8,0,0,1,106.3,54a3.3,3.3,0,0,1-1.7,0c-5.7,0-11.1-2.2-16.7-2.7C86.4,53.3,85,51.4,83.6,51.2Z" style="fill:#251c16"/><path d="M82.8,43.5a59.6,59.6,0,0,0,12.8,5.3,11.4,11.4,0,0,0,4.4,1.1,16,16,0,0,1,2.3.3,42.6,42.6,0,0,0,6.2-.1c.7-.1,1.4.2,2.1.1s1.7.1,2.6,0a1,1,0,0,1,1,.4,35,35,0,0,1-19-.4,53.7,53.7,0,0,0-18.7-2.3c.1-.7.8-.5,1.2-.6s-.5-.2-.6-.7A23.1,23.1,0,0,1,81,43.5C81.6,43.4,82.2,43.6,82.8,43.5Z" style="fill:#514e4d"/><path d="M134,49.7l-7.2-.6a42.6,42.6,0,0,0-8.7.7,1.9,1.9,0,0,1-.5-1c0-.3.4-.3.5-.5a54.1,54.1,0,0,0,8.7-3.4.7.7,0,0,1,.6.1,44,44,0,0,1,4.5,3,3.4,3.4,0,0,0,1.4.9Z" style="fill:#605953"/><path d="M118.1,48.3l-.3.5.3,1-3.9.8c-4.2,0-8.3.1-12.5-.2-2-.2-4.3-.1-6.1-1.6C103.1,50.8,110.6,50,118.1,48.3Z" style="fill:#766d66"/><path d="M82.8,43.5c-.5.7-1.1.4-1.6.1l-4,3.1,1.7.6-2.4.6-1,.2c1.3-2.7,2.3-5.8,6.3-5.3Z" style="fill:#323333"/><path d="M138.1,83.6c-2.6,2.4-6.1,1.7-9.7,3l1.4.2c.1,0,.1,0,.1.1h-.2a.6.6,0,0,1-.8.2,44.6,44.6,0,0,1-5.1-.7c-2.9-.6-5.9-.9-8.8-1.6a3.4,3.4,0,0,1-1.4-.5H113a40.9,40.9,0,0,0-7.8-.5,3.2,3.2,0,0,1-.4-4.2c1-.1,1.5.6,2.1,1.1s-.1-.8-.2-1.1-1.8-2.3-2.6-3.4-.9-.9-.5-1.6,1.1-.4,1.7-.3a9.3,9.3,0,0,1,2,1c1.7-.6,2.2-.4,3.4,1a15.8,15.8,0,0,0,3.7,3.6,8,8,0,0,0,2,.7,12.5,12.5,0,0,0,2.6.7c.7.3,1.6.1,1.9,1s-1.2.2-1.7.8.9.6,1.4.8a19,19,0,0,0,11.8.4,21.9,21.9,0,0,0,3.4-1,7,7,0,0,0,2.5-1.7c.3-.3.5-.6,1.1-.5Z" style="fill:#b48a6b"/><path d="M95.6,68.9c-1.1-6.2-4.4-10.6-10.1-13.1,0-.5.3-.6.7-.7h1.5a1,1,0,0,0,1-.2,2.6,2.6,0,0,1,2.4-.6c2.4.3,4.7.9,7.1,1.4a39.2,39.2,0,0,0,16-.4,26,26,0,0,1,6.2-1.1,48.8,48.8,0,0,1,10.1.3,14,14,0,0,1,4.5,1l1.8,1c5.7,5.5,5.2,12.4,4.1,19.3,0,.2-.2.4-.4.6a2.5,2.5,0,0,1-.3-1.7,5,5,0,0,0-.1-1.7c-.1-1.2.2-2.4.1-3.6a14.8,14.8,0,0,0-3.4-9.6,6.6,6.6,0,0,0-2.3-2.1,12.1,12.1,0,0,0-11.2-1.2,2.2,2.2,0,0,1-1.6.3c-.3-.6-.7-.5-1.2-.4s-1.1.2-1.6-.3a2,2,0,0,0-1.5-.1,58.7,58.7,0,0,1-10.2,1.7,29.2,29.2,0,0,1-7.8-.4c-2.2-.3-4.3-.8-6.4-1.2a4.3,4.3,0,0,0-1.6,0c-.3.5,0,.8.2,1.2s2.1,3.1,2.9,4.8a16.8,16.8,0,0,1,1.9,5.3,3.8,3.8,0,0,1-.1,1.5.4.4,0,0,1-.5.1Z" style="fill:#6a432d"/><path d="M140.4,72.9c0,1.1.1,2.3.1,3.5s-.7,3.1-1.1,4.7c-6,4.7-18.5,5.9-20.8,1.8.6-.8,1.6-.1,2.3-.6a.9.9,0,0,1,1-.1,15.5,15.5,0,0,0,10.2-.2,11.7,11.7,0,0,0,7.5-7.5C139.8,73.9,139.8,73.3,140.4,72.9Z" style="fill:#caa284"/><path d="M124.2,43.2l-.8-.4c-.3-.1-.8,0-1-.4s-1-1.7-2-1.7-.8.4-1.3.1a2.9,2.9,0,0,0-.9-1.1c-.2-.1-.1-.3.1-.4l.5-1.3.3.9c.3-.8.9-.5,1.4-.6l.5.6.4-.5.8,1,.5-.4c-.8-.1-.2-.8-.4-1l-1-.4c.2-.4-.5-.9.2-1.3l-.9.4-.2-1-2-.4c.8-.4,1.5,0,1.8-.8s-1,.7-1.6.1l.2-.2-2.7-.5c.2-.4,0-.9.8-1.1l-3.6-2c.4-1.1,2-.7,2.1-2l1.6.3-.5.6a8.2,8.2,0,0,1,4.5,2.5l-.2-1,.3-.5c.1-1-1.3-1.2-.8-2.3a5.6,5.6,0,0,1,3,1.2,3.8,3.8,0,0,0,2,1c.4.1.7.2.5.7s.8-.1.8.5-.2.2-.2.3l1.5.5-1.1.5,1,.4a1.1,1.1,0,0,1,0,.8c-1.2.9-3.4,1-4.1.2a1.1,1.1,0,0,0-.3.8c.1.4.5.4.6.7a1.2,1.2,0,0,0,0,1.3c.2.3.7.4,1.2.7l.6,1.1c0,.6-.4.6-1,.5s.2.7.4.9,1,.6,1.4,1,.7.4.2.8a.5.5,0,0,1-.5,0c0,.4-.3.6-.6.8s.4.3.2.6S124.8,43.4,124.2,43.2Z" style="fill:#5b524d"/><path d="M126.7,42.2a4.3,4.3,0,0,0-1-.9l-1.4-.9.8-.5-1-.3,1.6-.2c-.1-.5-1-.6-.6-1.1l-1.7-.8c.3-.5-.4-1.2.4-1.5l-.9-.4c.4-2.5,1.9-.3,2.9-.8s1.7-.2,2-1.3c2.8.3,4,3.1,6.4,4.2a1.1,1.1,0,0,0-.2.4c.1.1.9.2.2.7L136,40l-.6.8-.7-.5c-1.6,1.4-2.5-.9-3.8-.9a2.6,2.6,0,0,1-.8,2.9l1.1-.2c.5.2.3.5.3.7l1.6,1.4.5-.4c.2.7-.5.9-.8,1.3s-.8-.8-1.3-.4-1.2-1.2-2.2-.7-.7-.4-.9-.8a6.1,6.1,0,0,1-1.3-.3C126.7,42.8,126.5,42.6,126.7,42.2Z" style="fill:#7b6d66"/><path d="M135.8,36.3h-.7l1.1.6-.4.4h.4c-.1.8-.8-.5-1,.3l-4.9-4.2c-.7,0-1-.6-1.5-.9-2.1-1.6-4.7-2.7-7-4.1a18.5,18.5,0,0,0-3.3-2.1c-.8-.1-1.3-.9-2.2-1.2s.1-.9.7-1,1.7.7,2.7.2l.2.4a3.9,3.9,0,0,1,3,1.3l.8-.3c.4,1.4,2.1,1.1,2.7,2.3s1.2-.1,1.4.6l3.7,2.5-.7.3c.4.3,1.2.1,1.1,1h.7l1.6,1.4h-.6l1.2.3-.8.5h1.4v.9C135.4,35.9,136.3,35.5,135.8,36.3Z" style="fill:#5e524b"/><path d="M104.6,54c5.8-.6,11.4-2.3,17-3.6a26.3,26.3,0,0,1,11.5-.1,15.8,15.8,0,0,1,2.6,1.3,1.4,1.4,0,0,1,.6,1.7,3.6,3.6,0,0,1,1.5,1.9l-5.1-2.6c-2.2-1.3-4.6-.9-6.8-.8a89.5,89.5,0,0,0-14.6,1.7A15.2,15.2,0,0,1,104.6,54Z" style="fill:#382c22"/><path d="M144.5,55c.2,1,1.3,1.8,1.1,3.1L143.2,55l-1.6.3-2.8-2.1.4-.7-.4-.2c-.3-.9,0-2.1-1.2-2.8l.2-.6c2.3,2,4.9,3.5,6.7,6.1Z" style="fill:#5d4d41"/><path d="M126.7,42.2c.4,1.2,1.8.1,2.3,1l-.4.4.7.4.4.5h-.6l.2,1.3c.6-.2,1.1.1,1.8.8l-1.4-.6,3.6,3c-1.9-.2-2.8-2-4.4-2.6a9.6,9.6,0,0,1-2.1-1.4c0-1.1-.7,0-.9-.4l-1.5-.7-.2-.6,1.6.5v-.2l-.9-.4c.3-.3,1.4-.1.8-1.2Z" style="fill:#454749"/><path d="M118.5,26.3l11.8,7.3c-1.2,0-1.8-1-2.7-1.5a3.8,3.8,0,0,0-1-.3l-.4-.4-.9.2.4-.4-5.4-2.8-2.4-1.5C117.9,26.4,118.3,26.4,118.5,26.3Z" style="fill:#a79a92"/><path d="M118.5,26.3l-.6.6c-.7.6-.6-.2-.8-.6l-.7.3c-.7-1.8-2.8-1.6-3.8-3l-1.2.3a.7.7,0,0,0-.1-1.2c1.8.7,4.1,0,5.7,1.6l-.4.9h.7l.2.7Z" style="fill:#696661"/><path d="M122.2,132l.7-.8c1.1-1.6.7-3.5.9-5.3s0-4.2,0-6.2l-.9-.4v-1.2c1.4.6,2.6-.9,4-.1s.3,1.9-.7,2.5.4.6.2.3,1.3,0,1.4.8-.4.6-.7.9.6,0,.9-.1l.3,1-1.1.5c.7.5.5,1,.1,1.5s-.2,1.1-.9,1.1l-.2-.8h-.2l.3,3.5-1.2,1.1,1.3-.6c.3.6.2.9-.8,1.2h1.1c.1,1.4.2,2.7.3,4.3l.5-.7c.1,1,1.1,1.2,2.5,2-2.6-.4-3.1,1-3.7,2.2s-.8-.5-1-.9-.9-2.3-1.3-3.5-.6-1.5-1.5-1.8S122.2,132.3,122.2,132Z" style="fill:#100d0a"/><path d="M126.2,139.3v.8a1.9,1.9,0,0,0,1.6,1l3,3.5c-.8.2-.9.6-.9,1.1H129v.8l-4.1-4.6c-.6-.3-.2-.8-.1-1.2a7.5,7.5,0,0,0,.6-1.3C125.8,139.1,126,139.1,126.2,139.3Z" style="fill:#c3aa94"/><path d="M126.2,139.3c-1-.2-.4,1.2-1.2,1.2a.6.6,0,0,1,.2-.7l-2.4-7h-.3l.6,2.3-1.6.3a16.2,16.2,0,0,0-.1-2.2c.4-.4,0-1.2.8-1.3,2.6.9,2.4,3.6,3.5,5.5a7.5,7.5,0,0,0,.7,1.2Z" style="fill:#857466"/><path d="M125.2,139.8c-.1.2-.1.5-.2.7v1.3l-.4.3v.7h0c-1.4.3-2.6-.3-3.9-.5s-1.7.3-1.8,1.1.4,1.6,1.6,1.9c-1.8.1-1.7-1.1-2-2s4.6-1.2,5-3.9A1.4,1.4,0,0,1,125.2,139.8Z" style="fill:#66574c"/><path d="M132.4,155.7c-1.1,1-2.2,2.1-3.9.8a3.4,3.4,0,0,0,.1-1.1l1.9-1.1-1.9.6-1-1.6.8-.7a6,6,0,0,1,2.5,1.3C131,154.9,131.2,155.7,132.4,155.7Z" style="fill:#6b4632"/><path d="M121.5,151.4l1.2,2.3c-2.2-3.6-6.1-5.9-7.7-9.9Z" style="fill:#9a7f69"/><path d="M130.9,153.9l-2.5-1.3.7-.3c-1.7.1-1.8-.9-2.3-1.7s1.7-.5,1.9,0S131.3,152.1,130.9,153.9Z" style="fill:#c39374"/><path d="M124.6,142.8c1.9.8,2.5,2.7,3.6,4.1s.9.8.4,1.8c-.6-2.7-3.9-3.1-4-5.9Z" style="fill:#a1866f"/><path d="M98.3,137.1l-.2.4H91.8l-1-1.3h.8C94.1,137.5,96.3,136.4,98.3,137.1Z" style="fill:#161310"/><path d="M82.6,136l1.3-.2c.9.9.2,1.9,0,2.8s-1,.9-1.8.8Z" style="fill:#251c14"/><path d="M95.7,68.9h.4c.5.2.5.6.6,1s.5,2.3.7,3.4a3.5,3.5,0,0,0,.5,1.3l2.4.2c1-.1,1.3.4,1.1,1.3a.4.4,0,0,1-.1.3c-.9,1.8.6,3,2.3,2.5a3.3,3.3,0,0,1,3.2,1.2c.3.3.7.7.1,1.2a3.5,3.5,0,0,0-1.9-1.5c-1.2,1.4-.1,2.7.2,4s.7.2.4.8c-1.8-1.1-3.6-.1-5.3-.2l.6-1.2c-4.4-.8-8.6.8-13.6-.1,4.2-1.5,7-3.4,7.7-7.3-.3-.3-.1-.6,0-.9a14.9,14.9,0,0,0,.5-3.6A6.5,6.5,0,0,1,95.7,68.9Z" style="fill:#664d42"/><path d="M135,55.5c-8.5-2-17-.9-25.4.9-5.4,1.1-10.7-.2-16-1.3-1.4-.3-2.8-.4-4.2-.6l-.7,1c-1,.3-2.2-.6-3.2.3L82,54.9c-.4-.4-1.4.3-1.7-.8l1.1-.3c5.8-1.6,11.4-.2,17.1,1.2s12.9.3,19.2-1.2,11.1-.4,16.5,1.2Z" style="fill:#6a4028"/><path d="M95.1,69.3c0,.1,0,.1.1.2a6.9,6.9,0,0,1,.2,3.5,8.1,8.1,0,0,1-2.1,4.7,1.3,1.3,0,0,1-.7.6c-7.5,6.3-17.8,5.1-21.8-2.7a14.2,14.2,0,0,1,.1-13,15.4,15.4,0,0,1,4.8-4.7,11.9,11.9,0,0,1,13.7,1.5c.4.4.8.8.5,1.4s-1.5-.3-2.1-.7a7.5,7.5,0,0,0-7-2.6c-5.1.5-10,4.9-10.6,10s.8,8.3,4.5,11.1a10.5,10.5,0,0,0,5.7,1.6c1.1,0,2.2.3,3.3-.3s2,.1,3-.2A10.3,10.3,0,0,0,94,72.6l.3-1c.1-.6.1-1.1.2-1.7S94.5,69.1,95.1,69.3Z" style="fill:#644d40"/><path d="M87.9,60l2,.9c1,.1,1.5.9,2.2,1.5s.5.8.9,1a11.7,11.7,0,0,1,2.1,5.9c-.7.7-.2,1.7-.5,2.5s-.4-.4-.8-.6a4.4,4.4,0,0,0-2.2.3,5,5,0,0,1-3.6,0c-.1-.8.6-.7.9-1a1.7,1.7,0,0,0,.1-.7c.1-1.6.4-1.9,1.7-1.7h.5a5.2,5.2,0,0,0,2.4-.5,7.8,7.8,0,0,0-3.8-4,30.7,30.7,0,0,0-5-2c-1.9-.7-3.3,0-4.5,1.4A2.4,2.4,0,0,1,79,64c-.3,0-.5-.4-.6-.4s-.8,1.8-2,1a1.2,1.2,0,0,1,.5-1.3,8.1,8.1,0,0,1,3.6-3,10.1,10.1,0,0,1,5.9-.9A1.7,1.7,0,0,1,87.9,60Z" style="fill:#171310"/><path d="M93,63.4l-3.1-2.5c-1.2-3.1-4-3.7-6.6-4.1-5-.9-8.8,1.4-11.8,5.2-.1.2-.4.4-.6.6,3.6-8.1,15.1-8.7,20.9-1Z" style="fill:#61493a"/><path d="M92.6,78.3a11.2,11.2,0,0,0,2.6-8.8l.4-.6h.1a16.1,16.1,0,0,1-.7,6.9l-2,2.7Z" style="fill:#171310"/><path d="M115,101.2c-1.1,1.1-2.6.6-3.9.7a68.3,68.3,0,0,1-14.3-.8c-3.1-.6-6.5-.8-9.3-2.7a124.4,124.4,0,0,0,25.8,2.9Z" style="fill:#090805"/><path d="M113.6,84.4,124,86.2a.8.8,0,0,0,.8.4c.6-.1,1.1.4,1.4.5,2.2-.3,3.9.5,5.6.8,0,.6-.3.5-.5.6s-2.9-1.1-4.6-.5l.4.6-.5.3c-.8-1.6-2.7-1.3-4.1-2s-.9-.5-1.1.4l-1.5-.5-1.1.3-5.5-2.2Z" style="fill:#392a21"/><path d="M83,97l1.2,2.5-.7.5c-.2.5.7,1.1-.1,1.8l-.3-1-2.6,1.7c-1-.5-1.3-1.6-.3-2.1s1.6-2.3,1.8-3.8Z" style="fill:#392a21"/><path d="M131.3,88.5l.4-.4-7-1.3c-.4-.1-.7-.1-.7-.6l5.7.8a29.9,29.9,0,0,0,7.3.4l1.2.2c.7.5-.8.6,0,1.1h-5.8l.4.6h-1Z" style="fill:#4a3a2f"/><path d="M101.4,107.2l-6.2-3.5-1.3-1h2.4c8.2.3,16.4,1.5,24.6,1.1l-5.1,1.1c-.7-.5-1.5.8-2.6.5l-.4.7a4.8,4.8,0,0,0-3.1,1.5,4.3,4.3,0,0,0-2.6.6l.4.7-2.5-.6Z" style="fill:#090805"/><path d="M94.6,114.5c-.3.5.3.4.5.6l-.5.8-2.2-2c-4-4-8-8-13.5-10.3v-.8c3.5-.4,5.6,2.5,8.9,3.2L86,104.7l.6-.6c2.1,2.2,4.3,4.4,6.4,6.7.1.4-.1.6-.4.8s-1.3-.7-2-.8.1.3.2.4a29.8,29.8,0,0,1,3.3,2.9c.1.2.3.2.4.3Z" style="fill:#3a3029"/><path d="M93.6,111.3c0,.7.6.6,1,.7l-.7.8h1.2a16.9,16.9,0,0,0,5.8,3.9c-.5.9-1.3.4-1.8.8l-3.4-2.9a1.1,1.1,0,0,1-1.1,0h0c-.7-.9-2.2-1.1-2.4-2.6.7.2.5-1.1,1.4-.8Z" style="fill:#3a3029"/><path d="M93.6,111.1l-1.2.9c0,1.4,1.9,1.2,2.2,2.5h-.5l-4.4-3.9h2l-.2.6,1,.3.5-.6Z" style="fill:#2a241e"/><path d="M116.2,129v.6c-.5,0-.5-.4-.5-.6a4,4,0,0,0-2.2-3.1,13.4,13.4,0,0,0-5.1-1.7c-.7-.2-1.5,0-1.8-.9,2.7.2,5.3.5,7.6,2.1A4.5,4.5,0,0,1,116.2,129Z" style="fill:#e7ddd1"/><path d="M106.6,123.3c1.6.5,3.3.8,5,1.4s4.3,2,4.6,4.9-1.8,2.1-3.1,3.2l.6-2.2.2.2c.8-1.1.9-1.1.7-2.3a3.6,3.6,0,0,1-.8-1.2c-.1-.5-.5-.7-.9-1a17.7,17.7,0,0,0-3.9-1.4c1.3.9,2.1,2.1,3.3,2.8s.6.4.2.8l-1,.3c-.6-1.6-2.2-1.1-3.4-1.5a.7.7,0,0,1,.4-.9c-.5-.3-.3-.7,0-1.2h-.9l-.5-.6h-1.5v-.3h1.1c.1-1-1.8-.6-1.4-1.9Z" style="fill:#705845"/><path d="M112.5,128.5l-3.3-3.1c-.3-.3-.6-.5-.7-.8,2.1.7,4.7.5,6,3.4l.4.2a2.6,2.6,0,0,1-1,2.9l-.2-.5.2-.4C113.1,129.9,112.9,129.1,112.5,128.5Z" style="fill:#18120c"/><path d="M109.5,133.1h-3.7c-1.1-1.8-.5-3.2.6-4.7h.3l-.3.9c.3.6-.5.9-.3,1.5s1.6-.6,2.4-.2l-.3.6-3,.6c1.8.9,3.2.4,4.7.5S110,132.9,109.5,133.1Z" style="fill:#6b584d"/><path d="M108.5,130.5l-2.8.8c-.4-1,.6-1.4.7-2.1S108.6,128.9,108.5,130.5Z" style="fill:#0f0b08"/><path d="M118.3,39.3c0,.8.7.4,1,.8l-.2.5c.7.5.2-.5.6-.3a3.5,3.5,0,0,1,2.9,1.8h-.1a4.3,4.3,0,0,1-3-.5,25.5,25.5,0,0,1-5.6-1.4,1.7,1.7,0,0,1-1.2,0,8.9,8.9,0,0,1-3.5-1.1c-.3-.2-.8-.4-.7-.9l.3-.6-2-1.6c1.3-1.9-2-2-1.7-3.8l3.4,2.6,1,.6C109.5,36.6,115.4,39.2,118.3,39.3Z" style="fill:#a39286"/><path d="M108.5,38.3a7.5,7.5,0,0,0,4.3,1.8c-.2.7-.7.8-1.3.6a6.6,6.6,0,0,0-2.8,0,21.2,21.2,0,0,1-9.7-.6l-2.4-.6c-.4-.1-.8-.1-.8-.7,3.4-1.2,6.8-.3,10.2.1.8.1,1.9.9,2.3-.6Z" style="fill:#181816"/><path d="M105.8,22.3v.6l-.7.2C105.2,22.7,105.3,22.4,105.8,22.3Z" style="fill:#443e3b"/><path d="M106.2,22.2v.2h-.3Z" style="fill:#443e3b"/><path d="M106.5,22.2c.3.1.5.3,0,.6v-.6Z" style="fill:#443e3b"/><path d="M106.2,23.5Z" style="fill:#443e3b"/><path d="M106.4,23h0C106.6,23.1,106.5,23,106.4,23Z" style="fill:#443e3b"/><path d="M106.5,23.5c.1,0,.2-.1,0,.1s.1-.1.1-.1Z" style="fill:#443e3b"/><path d="M106.6,21.8h0v-.2Z" style="fill:#443e3b"/><path d="M106.6,21.8V22l-.3-.2h.3Z" style="fill:#5a514c"/><path d="M106.3,21.8h0Z" style="fill:#5a514c"/><path d="M95.8,38.8l3.1,1a13,13,0,0,0,4.6,1.8,18,18,0,0,1,2.8.9c.3-.1.3-.5.9-.5s.3.4.4.7l.9-.6c.2-.6,0-1.2.4-1.7a4.4,4.4,0,0,1,3.2.2l.7-.5c.3-.2.9.6,1-.4l.8.7,5,1.1c.5.9,1.9.2,2.9.7l.9.6.2.8c-13.2,5.4-26.2,4.7-39-1.4l.9-.4c.9-2,1.2-2.2,3.5-2.4l.6-.8.9.4a1.7,1.7,0,0,0,1.7-1.3Z" style="fill:#454749"/><path d="M103.6,79.1c-1.7.7-2,.3-2.5-4l-3.7-.2c-.4-2.1-.8-4-1.3-6,.2-5.1-3.5-8.6-5.9-13.7,10,2.5,19.3,3.2,28.5.1l.7,1,2.8-.5-.5.9a1.4,1.4,0,0,1-.7.8c-4.5,2.6-6.9,6.6-7.9,11.6a10.6,10.6,0,0,0,1.1,7.4,11.3,11.3,0,0,0,3.6,3.9c.4.3,1.1.4,1.1,1.1s-1.7-.4-2.5-.6c-2.8-.9-4.2-3-4.9-5.7a14.2,14.2,0,0,1,.5-7.9,26.4,26.4,0,0,0,1.2-4c.2-1.3-.3-1.9-1.7-1.7a5.1,5.1,0,0,0-2.1.6c-1.6.8-1.9,2.3-1.9,3.8a16.9,16.9,0,0,1-.7,3.8,4.9,4.9,0,0,1-1.7,2.5,5.2,5.2,0,0,0-1.7,2.2c-.1.3-.4.5-.7.8s-.9,1.5,0,2.4a2.6,2.6,0,0,1,.9.9A.3.3,0,0,1,103.6,79.1Z" style="fill:#764b34"/><path d="M103.6,79.1l-.9-1c-1.6-1.4-1.2-2.5.4-3.5s1.6-2.1,2.4-3.1,1.4-5.1,2-7.7,4.1-3.4,5.5-2.3.5,2.1.2,3.1c-1.5,4.6-3,9.1,0,13.6a9.2,9.2,0,0,0,3.2,2.7c-2.9-.5-4.4-2.7-6.1-4.7a2.7,2.7,0,0,0-2.4-1l-.4.7c-1.2-.8-2.3-2-4-1,1.4,2.3,4,3.6,3.8,6.7l-.4-.3C107,80,105.5,79.1,103.6,79.1Z" style="fill:#9c6b4e"/><path d="M118.9,81.5c-11.1-6-5.6-20.5,2-24.3l.8-.5c4.1-1.6,8.2-2.1,12.2.2l.8.6.4,1c.1.3.1.6-.3.7a1.8,1.8,0,0,1-1-.4c-3.9-2.6-8-2.6-12.1-.5a16,16,0,0,0-4.5,3.5c1.7-1.7,4.5-2.4,7.7-2.2,1.1.2,2.2.2,3,1.2s-.5.9-1.1.9a15.7,15.7,0,0,0-4.8.9,13.1,13.1,0,0,0-7.3,6c0,.5.4.6.7.6s2.3.4,3.5.3a.7.7,0,0,1,.9.8c0,.3-.1.5-.5.7s-3.2.1-4.8-.3-.1.6-.1.8.6,1.6.3,2.4-.6-.2-.7-.5a6.4,6.4,0,0,1-.5-2.4,9.7,9.7,0,0,0,5.9,9.7,15.6,15.6,0,0,0,11.6.9l.9-.2c.4.1.8.2.6.8-3.9,1.5-7.7,1.2-11.6.1Z" style="fill:#15110e"/><path d="M134.8,59.1c0-.5-.1-1.1-.1-1.6,4.1,2.6,5.4,6.7,5.8,11.2.1,1.4-.1,2.8-.1,4.2-1.1,4.4-3.6,7.7-7.9,9.3l-.6-.5c.2-.8,1-.7,1.5-1.2a12.5,12.5,0,0,0,5.4-7.5,16.4,16.4,0,0,0-1-9.3,7.9,7.9,0,0,0-2.3-3.4C135.2,59.9,134.8,59.7,134.8,59.1Z" style="fill:#302f2f"/><path d="M89.3,69.9v1l-1.2.2v.2h3.2c.7-.9,1.9-.1,2.8-.6l.4,1.1c-1.8,5.7-4.9,8.1-10.9,8.3-.6.4-1.2.1-1.8-.1a11.1,11.1,0,0,1-7-10.7l.2-.5.2-.3a1.2,1.2,0,0,1,1,0,14.6,14.6,0,0,0,5.1.1,7.4,7.4,0,0,1,2.6.2,7.5,7.5,0,0,0,3-.1c1-.7,1.8-.4,2.1.7S89.1,69.8,89.3,69.9Z" style="fill:#3c2a1e"/><path d="M78.3,77.3c1.6,1.4,3.2,2.7,5.4,2.8-2,1.5-8.8-.3-10.9-2.8s-4.1-8.5-1.9-13.1a11.6,11.6,0,0,1,11.7-7A5.7,5.7,0,0,1,87.9,60a11.4,11.4,0,0,0-7.5.6,12.8,12.8,0,0,0-3.9,1.3,9,9,0,0,0-3.6,2.5,7.8,7.8,0,0,0,3.9,12.8A2.6,2.6,0,0,0,78.3,77.3Z" style="fill:#8d6f5e"/><path d="M76.5,64.6c1.3.2,1-1.4,2-1.7l.3.8c7-5.6,11.1-.3,16.1,4.2l-3.7.6c-.2-.3,0-.7-.1-1s-.2-.2-.4-.3a41.3,41.3,0,0,1-4.9-.7,1,1,0,0,0-.9.2,2.7,2.7,0,0,1-1.9.6c-2.5,0-5.1.2-7.2-1.5C75.7,65.2,75.8,64.7,76.5,64.6Z" style="fill:#24323a"/><path d="M76.5,64.6l-.6,1.2a4.8,4.8,0,0,1-.6,2.6c-.1.3,0,.6-.1.9a10.8,10.8,0,0,0,3.1,8c-1,.9-2,.1-2.9-.2-3.4-1.5-5-4.4-4.8-8.5s2.9-6.1,6.1-7.1c1.2-.4,2.3-1.4,3.7-.9A8,8,0,0,0,76.5,64.6Z" style="fill:#b79b84"/><path d="M75.2,69.3a8.4,8.4,0,0,1,.7-3.5,13.9,13.9,0,0,0,8.3,1.1l.7-.8,6.8,1-.5,1.4h-.4a.7.7,0,0,0-.7-.5h-3c-.1.4.2.5.2.7l-.7.9-.3-.6h-11C75.4,68.9,75.3,69.1,75.2,69.3Z" style="fill:#484949"/><path d="M87.3,68.7,86,67.8h4.7v.7l-1.3-.2-.2,1.6-.6.2a1.3,1.3,0,0,0-.5-1.6Z" style="fill:#24323a"/><path d="M108.9,40.4v2c-.7-.1-1.1.5-1.6,1.3V42.1c-.8.2-.8.6-.3,1.8l-1.1-1.3c-1.9-.2-3.5-1.4-5.5-1.2.1-1.2-1.2-.8-1.5-1.6A28,28,0,0,0,108.9,40.4Z" style="fill:#666e73"/><path d="M119.5,70.3c-.4-1.3-1.1-.3-1.6-.2s-2.5,0-3.7-1l.2-.6c1.1-.5,2.1,0,3.2,0s2.9.4,4.4.1.2,1.7-.3,2.5c1.5-.1,2.8.5,4.3.5s1.3-.9,2.2-1a2.9,2.9,0,0,0,1.6-.9c.4-.3.7-.8,1.2-.9s.7.7,1.2.8-.3-2.1.2-3a.6.6,0,0,1,.7.2c1.4,3.8.4,7.1-1.9,10.2a11.4,11.4,0,0,1-3.9,2.9,7.3,7.3,0,0,1-4.6.6c-.6-.3.1-.6-.1-1-1.8-.3-3.3-1.9-5.7-1.8a5.9,5.9,0,0,1-2.3-3.7c-.1-.9-.3-1.7-.4-2.5a.5.5,0,0,1,0-.5,1.2,1.2,0,0,1,.7,1,3.9,3.9,0,0,0,1.9,2.3,25.4,25.4,0,0,0,4.6,1.7,2.1,2.1,0,0,0,1.7-.1c-1.3-1.5-2.9-2.5-3.8-4.2S119.9,70.8,119.5,70.3Z" style="fill:#4e392a"/><path d="M122.1,68.7c-2.6.7-5.1-.2-7.7-.2,2.7-4.7,6.9-6.7,12.1-7.1.5,0,1.2.4,1.3-.6s1.1.3,1.4.8-.5,1.3-1.1,1.7.1.8,0,1.2-.5.4-.6.7,1,1.3.1,2l-.5-.2c-1-.8-1.8-.7-2.5.5s-.4,1.2-1,1.7A3.8,3.8,0,0,1,122.1,68.7Z" style="fill:#2e383e"/><path d="M129.1,61.7l-1.3-.9-3-.9c-.7-.3-1.5,0-2.3-.2s.4-.9.9-1.1a11.2,11.2,0,0,1,10.1.5,12.4,12.4,0,0,1,4.5,4.3,15.4,15.4,0,0,1,1,9.9.9.9,0,0,1-.3-.6c-.1-1,0-2.1-.2-3.1a8.7,8.7,0,0,0-8.7-7.4C129.5,62.2,129.3,62,129.1,61.7Z" style="fill:#9d806d"/><path d="M119.5,70.3l.6.7-.9.8,4.2,4c-.1.7-.8,1-2.2.5s-6.1-1.3-6.8-5h-.1c-.1,0-.1.1-.1.2s-.1-.9-.3-1.7c1.7,1.4,3.4.4,4.9.9S119.6,70.8,119.5,70.3Z" style="fill:#35271c"/><path d="M138,63.4c-2.5-2.7-5.1-5.1-9.1-5.4a11.6,11.6,0,0,0-6.6,1.5l2.5.4a9.9,9.9,0,0,0-9,3.8c1.8-6.5,11.9-8.8,19-4.6C136,60.4,137.4,61.6,138,63.4Z" style="fill:#715543"/><path d="M122.5,80.3a10.3,10.3,0,0,0,4.9-.7,7.9,7.9,0,0,0,5,.9c.4-.1.8-.2,1.1.2l-1.6,1a16.3,16.3,0,0,1-12.8-.8c-.4-.7-1.3-1.1-1-2.4C119.6,79.4,121.1,79.5,122.5,80.3Z" style="fill:#a38771"/><path d="M122.5,80.3a10.7,10.7,0,0,1-4.5-1.6,22.4,22.4,0,0,1,1.1,2.2c-4.2-1.9-7-7.2-5.6-11.4.4,1.6.2,3.2,1.1,4.5a10.7,10.7,0,0,0,2.3,3.4c2.6,0,4.4,1.7,7.1,2.3Z" style="fill:#645043"/><path d="M133.5,80.7a10,10,0,0,1-5.4-.4c-.3-.1-.8-.2-.7-.7l3.5-2.6h.6a5.2,5.2,0,0,0,6.5-3.3c.2-.3.2-.7.5-1a.4.4,0,0,1,.5-.1v.7A11.8,11.8,0,0,1,133.5,80.7Z" style="fill:#d0b69b"/><path d="M139,72.6c-1.1,1.9-1.9,3.8-4,4.7a4.3,4.3,0,0,1-4.1-.3,11.2,11.2,0,0,0,2-10.3,3.8,3.8,0,0,1-.9-1.3,6.9,6.9,0,0,0-1.6-2.2c-.3-.4-.8-.6-.7-1.2,2.2-.9,7.1,2,8.4,5.1A11.6,11.6,0,0,1,139,72.6Z" style="fill:#eedfcc"/><path d="M129.7,62a11.6,11.6,0,0,1,3.2,4.7c-.8.2-.3.7-.3,1.1s.1.8.1,1.2a5,5,0,0,1-.2,1.2c-.9-.1-.9-.8-1.3-1.2s-1.6,1.9-3,1.9a.9.9,0,0,1-.3-.6,8.7,8.7,0,0,0-.3-3.2c.5-.9-.5-1.4-.7-2.2l1.1-.4-.4-1c.1-.7.8-.6,1.1-.9l.4-.9Z" style="fill:#525555"/><path d="M127.6,67.1c1.3,1.1.4,2.5.6,3.8l-1.6.3-.3.8c-1.7-.1-3.4-.9-5.9-.4l1.5-1.2a14.9,14.9,0,0,1,.2-1.7l1.4.2C124.6,67.7,124.7,64.3,127.6,67.1Z" style="fill:#35271c"/></svg>