<svg version="1.1" id="Layer_1" xmlns="http://www.w3.org/2000/svg" xmlns:xlink="http://www.w3.org/1999/xlink" x="0px" y="0px"
	 width="100%" viewBox="0 0 200 200" enable-background="new 0 0 200 200" xml:space="preserve">
<path fill="#FBFBFD" opacity="1.000000" stroke="none" 
	d="
M0.999999,129.000000 
	C1.000000,110.645775 1.000000,92.291542 1.336227,73.767532 
	C2.100196,73.116272 2.802670,72.691597 2.915648,72.145050 
	C6.036015,57.049934 13.784963,44.229668 23.749525,32.975334 
	C36.750984,18.291023 52.544971,7.482963 72.039360,2.892544 
	C72.483490,2.787963 72.685211,1.653873 73.000000,1.000000 
	C91.354225,1.000000 109.708458,1.000000 128.232483,1.336233 
	C128.883743,2.100239 129.308411,2.802773 129.854950,2.915748 
	C144.950073,6.036025 157.770218,13.784966 169.024612,23.749512 
	C183.709015,36.750950 194.516815,52.544975 199.107559,72.039154 
	C199.212158,72.483353 200.346161,72.685143 201.000000,73.000000 
	C201.000000,91.354225 201.000000,109.708458 200.663773,128.232483 
	C199.963272,128.738861 199.352310,129.024261 199.270294,129.419418 
	C196.216385,144.134430 188.299210,156.353836 179.333557,167.988358 
	C178.353256,169.260468 176.278244,169.689026 173.801758,170.984467 
	C175.611099,150.168854 168.094009,135.639847 150.474518,126.998260 
	C151.442429,126.819481 152.542755,126.788315 152.616653,126.496880 
	C153.532013,122.886993 154.885269,119.257889 155.001724,115.597969 
	C155.540222,98.671883 155.726959,81.734566 156.007034,64.800728 
	C156.010925,64.565536 155.591385,64.323341 155.322083,64.033394 
	C148.560883,64.033394 141.754837,64.033394 134.996246,63.565155 
	C135.043701,56.365292 135.043701,49.633663 135.043701,42.446262 
	C129.186966,42.446262 124.057983,42.412796 118.929604,42.453819 
	C110.459854,42.521568 101.322784,40.682457 93.708786,43.282955 
	C86.099174,45.881954 79.961380,52.876232 73.288963,58.085396 
	C71.036064,59.844234 69.121422,62.036331 66.702454,63.917206 
	C60.106667,68.504662 53.821907,73.155655 47.656578,77.959915 
	C46.738552,78.675278 45.826485,80.125061 45.852261,81.212791 
	C46.120106,92.516678 45.250366,104.058273 47.255371,115.067856 
	C51.914116,140.649307 75.926605,159.998352 100.173340,159.258453 
	C100.871857,159.518295 101.374229,159.613327 101.934784,160.161652 
	C102.355507,176.997253 113.604828,190.605774 129.000000,195.603027 
	C129.000000,197.362946 129.000000,199.181473 129.000000,201.000000 
	C110.645775,201.000000 92.291542,201.000000 73.767487,200.663757 
	C73.116234,199.899704 72.691605,199.197098 72.145088,199.084152 
	C57.049973,195.963943 44.229717,188.215332 32.975391,178.250580 
	C18.291178,165.248962 7.483328,149.455032 2.892369,129.960968 
	C2.787750,129.516739 1.653806,129.314911 0.999999,129.000000 
z"/>
<path fill="#000000" opacity="1.000000" stroke="none" 
	d="
M129.468658,201.000000 
	C129.000000,199.181473 129.000000,197.362946 129.000000,195.603027 
	C113.604828,190.605774 102.355507,176.997253 102.013977,159.781128 
	C102.271484,157.537964 102.314392,156.061005 102.778976,154.731369 
	C104.512154,149.770950 106.383644,144.858856 108.242859,139.893417 
	C108.282486,139.858200 108.346581,139.773743 108.654472,139.618332 
	C109.974686,138.371811 110.987007,137.280701 112.319855,136.040207 
	C119.183960,130.285019 126.420029,126.089348 135.547516,124.933594 
	C140.699463,125.682419 145.414734,126.353683 150.129990,127.024948 
	C168.094009,135.639847 175.611099,150.168854 173.801758,170.984467 
	C176.278244,169.689026 178.353256,169.260468 179.333557,167.988358 
	C188.299210,156.353836 196.216385,144.134430 199.270294,129.419418 
	C199.352310,129.024261 199.963272,128.738861 200.663773,128.701141 
	C201.000000,152.926865 201.000000,176.853714 201.000000,201.000000 
	C177.312897,201.000000 153.625107,201.000000 129.468658,201.000000 
M150.577820,190.259369 
	C153.553833,188.539246 156.840256,187.194122 159.451050,185.032822 
	C169.677353,176.567184 170.315994,164.999146 168.491760,153.196411 
	C166.850204,142.575592 159.731506,135.618958 150.164581,131.805939 
	C145.748306,130.045807 140.449966,130.281509 135.530731,130.044586 
	C124.378487,129.507507 113.449226,135.966461 109.592697,148.508408 
	C107.974632,153.770584 107.218781,159.469177 107.115540,164.988892 
	C106.922180,175.326431 112.759712,182.694931 121.014648,187.912445 
	C129.992004,193.586548 139.943939,192.936417 150.577820,190.259369 
z"/>
<path fill="#000000" opacity="1.000000" stroke="none" 
	d="
M72.531342,1.000000 
	C72.685211,1.653873 72.483490,2.787963 72.039360,2.892544 
	C52.544971,7.482963 36.750984,18.291023 23.749525,32.975334 
	C13.784963,44.229668 6.036015,57.049934 2.915648,72.145050 
	C2.802670,72.691597 2.100196,73.116272 1.336227,73.298874 
	C1.000000,49.073135 1.000000,25.146271 1.000000,1.000000 
	C24.687109,1.000000 48.374897,1.000000 72.531342,1.000000 
z"/>
<path fill="#000000" opacity="1.000000" stroke="none" 
	d="
M201.000000,72.531342 
	C200.346161,72.685143 199.212158,72.483353 199.107559,72.039154 
	C194.516815,52.544975 183.709015,36.750950 169.024612,23.749512 
	C157.770218,13.784966 144.950073,6.036025 129.854950,2.915748 
	C129.308411,2.802773 128.883743,2.100239 128.701141,1.336233 
	C152.926865,1.000000 176.853714,1.000000 201.000000,1.000000 
	C201.000000,24.687109 201.000000,48.374897 201.000000,72.531342 
z"/>
<path fill="#000000" opacity="1.000000" stroke="none" 
	d="
M0.999999,129.468658 
	C1.653806,129.314911 2.787750,129.516739 2.892369,129.960968 
	C7.483328,149.455032 18.291178,165.248962 32.975391,178.250580 
	C44.229717,188.215332 57.049973,195.963943 72.145088,199.084152 
	C72.691605,199.197098 73.116234,199.899704 73.298828,200.663757 
	C49.073139,201.000000 25.146275,201.000000 1.000000,201.000000 
	C1.000000,177.312897 1.000000,153.625107 0.999999,129.468658 
z"/>
<path fill="#6A34D4" opacity="1.000000" stroke="none" 
	d="
M108.346581,139.773743 
	C108.346581,139.773743 108.282486,139.858200 107.912186,140.042725 
	C102.209000,145.388809 100.329826,151.935181 99.977188,159.093628 
	C75.926605,159.998352 51.914116,140.649307 47.255371,115.067856 
	C45.250366,104.058273 46.120106,92.516678 45.852261,81.212791 
	C45.826485,80.125061 46.738552,78.675278 47.656578,77.959915 
	C53.821907,73.155655 60.106667,68.504662 66.681366,63.895657 
	C67.010010,63.987324 66.955719,63.961079 66.955139,64.432411 
	C66.954559,88.090553 66.954559,111.277374 66.954559,135.041885 
	C81.137955,135.041885 94.568420,135.041885 108.000351,135.513474 
	C108.116730,137.247955 108.231659,138.510849 108.346581,139.773743 
z"/>
<path fill="#6B35D5" opacity="1.000000" stroke="none" 
	d="
M150.474518,126.998260 
	C145.414734,126.353683 140.699463,125.682419 135.564194,124.476044 
	C135.109009,103.949471 135.073822,83.958015 135.013306,63.979401 
	C134.987976,63.992237 134.948807,64.033394 134.948807,64.033394 
	C141.754837,64.033394 148.560883,64.033394 155.322083,64.033394 
	C155.591385,64.323341 156.010925,64.565536 156.007034,64.800728 
	C155.726959,81.734566 155.540222,98.671883 155.001724,115.597969 
	C154.885269,119.257889 153.532013,122.886993 152.616653,126.496880 
	C152.542755,126.788315 151.442429,126.819481 150.474518,126.998260 
z"/>
<path fill="#6D38D5" opacity="1.000000" stroke="none" 
	d="
M67.031097,64.008873 
	C69.121422,62.036331 71.036064,59.844234 73.288963,58.085396 
	C79.961380,52.876232 86.099174,45.881954 93.708786,43.282955 
	C101.322784,40.682457 110.459854,42.521568 118.929604,42.453819 
	C124.057983,42.412796 129.186966,42.446262 135.043701,42.446262 
	C135.043701,49.633663 135.043701,56.365292 134.996246,63.565155 
	C134.948807,64.033394 134.987976,63.992237 134.543488,63.939919 
	C111.717903,63.912090 89.336815,63.936584 66.955719,63.961082 
	C66.955719,63.961079 67.010010,63.987324 67.031097,64.008873 
z"/>
<path fill="#6D38D5" opacity="1.000000" stroke="none" 
	d="
M100.173340,159.258453 
	C100.329826,151.935181 102.209000,145.388809 107.872566,140.077942 
	C106.383644,144.858856 104.512154,149.770950 102.778976,154.731369 
	C102.314392,156.061005 102.271484,157.537964 101.955795,159.327820 
	C101.374229,159.613327 100.871857,159.518295 100.173340,159.258453 
z"/>
<path fill="#FBFBFD" opacity="1.000000" stroke="none" 
	d="
M66.955139,64.432411 
	C89.336815,63.936584 111.717903,63.912090 134.568817,63.927078 
	C135.073822,83.958015 135.109009,103.949471 135.127502,124.398476 
	C126.420029,126.089348 119.183960,130.285019 112.032326,135.814072 
	C110.282478,135.505524 109.140686,135.273712 107.998894,135.041885 
	C94.568420,135.041885 81.137955,135.041885 66.954559,135.041885 
	C66.954559,111.277374 66.954559,88.090553 66.955139,64.432411 
z"/>
<path fill="#2B3A51" opacity="1.000000" stroke="none" 
	d="
M150.225281,190.455551 
	C139.943939,192.936417 129.992004,193.586548 121.014648,187.912445 
	C112.759712,182.694931 106.922180,175.326431 107.115540,164.988892 
	C107.218781,159.469177 107.974632,153.770584 109.592697,148.508408 
	C113.449226,135.966461 124.378487,129.507507 135.530731,130.044586 
	C140.449966,130.281509 145.748306,130.045807 150.164581,131.805939 
	C159.731506,135.618958 166.850204,142.575592 168.491760,153.196411 
	C170.315994,164.999146 169.677353,176.567184 159.451050,185.032822 
	C156.840256,187.194122 153.553833,188.539246 150.225281,190.455551 
M137.632553,143.972107 
	C134.227997,149.383026 130.823441,154.793930 127.451149,160.153580 
	C138.173248,167.544922 139.283249,167.521698 148.385971,159.892502 
	C145.071732,154.624191 141.722275,149.299896 137.632553,143.972107 
M146.097855,167.344986 
	C145.754822,166.930618 145.411804,166.516235 145.068771,166.101868 
	C140.033005,170.452042 135.090103,169.233124 130.154633,165.892151 
	C130.006195,165.791672 129.574280,166.109955 128.943817,166.368713 
	C131.883957,170.502823 134.769684,174.560425 137.999619,179.102020 
	C140.902481,174.990463 143.356827,171.514175 146.097855,167.344986 
z"/>
<path fill="#6D38D5" opacity="1.000000" stroke="none" 
	d="
M108.000351,135.513474 
	C109.140686,135.273712 110.282478,135.505524 111.711792,135.963470 
	C110.987007,137.280701 109.974686,138.371811 108.654472,139.618332 
	C108.231659,138.510849 108.116730,137.247955 108.000351,135.513474 
z"/>
<path fill="#F5F5F7" opacity="1.000000" stroke="none" 
	d="
M138.002686,143.973846 
	C141.722275,149.299896 145.071732,154.624191 148.385971,159.892502 
	C139.283249,167.521698 138.173248,167.544922 127.451149,160.153580 
	C130.823441,154.793930 134.227997,149.383026 138.002686,143.973846 
z"/>
<path fill="#ECEDF0" opacity="1.000000" stroke="none" 
	d="
M145.954529,167.691437 
	C143.356827,171.514175 140.902481,174.990463 137.999619,179.102020 
	C134.769684,174.560425 131.883957,170.502823 128.943817,166.368713 
	C129.574280,166.109955 130.006195,165.791672 130.154633,165.892151 
	C135.090103,169.233124 140.033005,170.452042 145.068771,166.101868 
	C145.411804,166.516235 145.754822,166.930618 145.954529,167.691437 
z"/>
</svg>