<?xml version="1.0" standalone="no"?>
<!DOCTYPE svg PUBLIC "-//W3C//DTD SVG 20010904//EN"
 "http://www.w3.org/TR/2001/REC-SVG-20010904/DTD/svg10.dtd">
<svg version="1.0" xmlns="http://www.w3.org/2000/svg"
 width="1667.000000pt" height="1667.000000pt" viewBox="0 0 1667.000000 1667.000000"
 preserveAspectRatio="xMidYMid meet">

<g transform="translate(0.000000,1667.000000) scale(0.100000,-0.100000)"
fill="#000000" stroke="none">
<path d="M9631 11024 c-171 -46 -310 -190 -351 -363 -18 -75 -8 -211 20 -284
12 -32 43 -86 68 -120 191 -250 583 -250 774 0 63 84 90 158 96 264 8 151 -30
257 -129 363 -122 131 -309 186 -478 140z"/>
<path d="M7850 10319 c-47 -5 -131 -21 -187 -35 -288 -71 -475 -209 -578 -426
-99 -208 -116 -504 -46 -781 39 -152 90 -286 172 -447 37 -74 67 -135 66 -137
-1 -1 -46 11 -100 27 -54 16 -155 40 -225 54 -245 49 -340 58 -677 62 l-320 4
145 -39 c758 -205 1391 -595 1752 -1079 168 -225 206 -320 215 -537 6 -150 -6
-214 -62 -334 -52 -108 -171 -226 -286 -281 -143 -68 -218 -83 -414 -83 -146
-1 -187 3 -296 26 -69 15 -166 40 -215 57 -300 104 -663 348 -1019 683 -71 68
-177 165 -235 217 -247 220 -409 392 -458 485 -27 51 -27 42 2 -85 129 -562
502 -1074 1031 -1415 404 -261 903 -405 1402 -405 338 0 565 57 758 191 72 49
205 180 205 201 0 5 37 -28 83 -75 183 -186 387 -301 627 -353 125 -27 379
-25 518 5 129 27 303 82 296 93 -3 4 -21 8 -41 8 -19 0 -81 9 -136 21 -296 60
-538 186 -715 373 -133 141 -203 277 -262 511 -22 85 -56 199 -76 252 -130
351 -372 702 -650 940 -112 97 -124 110 -196 231 -89 145 -191 348 -237 470
-57 151 -83 273 -88 427 -7 209 20 306 115 407 57 62 115 96 201 120 419 118
1254 -169 2474 -849 92 -51 170 -93 173 -93 12 0 -115 231 -185 335 -196 292
-427 518 -746 730 -306 203 -686 380 -978 454 -277 71 -556 95 -807 70z"/>
</g>
</svg>
