<!DOCTYPE svg PUBLIC "-//W3C//DTD SVG 20010904//EN" "http://www.w3.org/TR/2001/REC-SVG-20010904/DTD/svg10.dtd"[]><svg version="1.0" xmlns="http://www.w3.org/2000/svg" width="200" height="200" viewBox="0 0 200.000000 200.000000" preserveAspectRatio="xMidYMid meet"><g transform="translate(0.000000,200.000000) scale(0.100000,-0.100000)" fill="#000000" stroke="none"><path d="M0 1000 l0 -1000 50 0 50 0 0 75 c0 59 -3 75 -14 75 -8 0 -18 -4 -21 -10 -17 -27 -58 -3 -48 28 6 14 39 16 48 2 15 -24 35 -9 35 25 0 37 -9 42 -39 23 -23 -14 -53 5 -44 28 6 16 39 19 48 4 3 -5 13 -10 21 -10 10 0 14 12 14 40 0 33 -3 40 -20 40 -11 0 -20 -4 -20 -10 0 -14 -37 -12 -42 2 -12 33 24 52 49 27 18 -18 33 -1 33 37 0 36 -9 41 -39 22 -19 -12 -51 -5 -51 11 0 5 11 8 25 7 13 -2 22 1 19 6 -3 5 -12 7 -20 4 -8 -3 -14 -1 -14 4 0 13 37 13 45 0 3 -5 13 -10 21 -10 10 0 14 12 14 40 0 44 -12 50 -42 23 -17 -15 -20 -16 -35 0 -15 14 -15 20 -3 42 12 22 12 30 1 47 -11 17 -10 23 3 36 15 15 17 15 32 0 13 -13 14 -19 2 -37 -15 -25 -2 -54 27 -59 15 -3 17 2 13 35 -3 21 -8 46 -12 55 -12 26 23 37 40 13 11 -15 14 -82 14 -317 0 -291 0 -298 20 -298 20 0 20 7 20 292 l0 291 27 36 26 36 -31 -29 -32 -30 -1 -280 c-1 -177 -4 -266 -10 -241 -4 22 -8 147 -8 277 l-1 238 37 42 37 43 -42 -40 c-23 -21 -42 -34 -42 -28 0 5 24 32 52 59 42 39 53 45 56 32 6 -29 20 -21 49 29 31 54 32 99 4 153 -11 19 -5 16 25 -13 22 -21 51 -46 67 -55 15 -9 27 -24 27 -33 0 -9 9 -28 20 -42 11 -14 20 -31 20 -39 0 -8 7 -23 15 -34 8 -10 15 -27 15 -37 0 -29 45 -67 80 -67 38 0 98 37 137 85 25 30 34 35 57 29 14 -3 26 -8 26 -10 0 -3 -10 -23 -21 -46 -12 -23 -31 -69 -44 -101 -19 -53 -26 -61 -60 -73 -47 -16 -57 -30 -51 -71 6 -39 -9 -53 -18 -18 -4 14 -11 25 -18 25 -6 0 -17 8 -24 18 -10 14 -29 17 -118 17 -58 0 -106 3 -106 8 0 4 26 7 58 7 65 0 102 15 61 24 -13 3 -37 7 -54 9 -21 3 -17 4 15 6 58 2 72 10 55 34 -11 15 -14 15 -25 2 -6 -8 -28 -17 -49 -21 -20 -4 -48 -18 -63 -32 -25 -23 -28 -33 -28 -91 0 -55 3 -68 20 -79 17 -10 20 -23 20 -93 0 -44 4 -88 9 -98 13 -23 -1 -43 -30 -45 l-24 -1 -5 220 c-5 206 -4 222 14 247 15 21 28 28 51 28 36 0 46 6 38 26 -4 10 -10 11 -25 3 -11 -6 -28 -9 -38 -6 -11 3 -27 -4 -39 -17 -18 -20 -20 -37 -22 -266 l-3 -245 118 -3 c78 -2 123 1 132 9 20 17 47 3 41 -21 -5 -20 1 -20 719 -20 l724 0 0 53 c0 50 -3 55 -49 101 l-50 49 -91 -2 c-51 -1 -101 -8 -112 -14 -16 -9 -22 -9 -25 1 -3 7 -24 12 -55 12 -60 0 -58 10 4 16 58 7 78 7 186 1 l94 -5 49 -48 49 -48 0 449 0 449 -45 -44 c-52 -51 -62 -43 -10 10 l34 35 5 245 c3 135 9 332 12 438 4 139 3 192 -5 192 -7 0 -15 -8 -19 -17 -5 -14 -8 -12 -12 12 -8 38 -2 55 19 54 10 0 11 -2 4 -6 -7 -2 -13 -12 -13 -21 1 -34 30 20 30 55 l0 33 -415 0 -415 0 0 -75 0 -75 48 -30 c26 -16 54 -30 62 -29 8 0 28 20 44 45 36 57 114 110 185 125 175 37 351 -105 351 -283 0 -31 6 -44 30 -65 l30 -25 0 -268 0 -268 -52 -46 c-29 -25 -59 -46 -68 -46 -9 1 -3 9 15 23 16 12 43 34 60 49 l30 26 2 259 3 260 -25 23 c-30 29 -46 19 -19 -12 17 -20 17 -21 1 -8 -16 12 -20 12 -28 -1 -12 -19 -11 -32 2 -24 5 4 19 -1 30 -11 18 -16 19 -32 19 -250 l0 -233 -26 -20 c-41 -32 -53 -25 -16 10 l32 30 0 223 c0 219 -4 246 -34 246 -6 0 -5 -5 2 -12 9 -9 11 -61 10 -183 -1 -126 -3 -149 -7 -91 -5 69 -8 77 -20 63 -9 -12 -29 -17 -62 -17 -26 0 -51 -4 -54 -10 -4 -6 15 -10 49 -10 31 0 56 -4 56 -10 0 -6 -32 -10 -76 -10 -79 0 -84 -8 -27 -39 19 -10 24 -8 35 9 19 30 30 25 66 -31 30 -46 33 -56 27 -97 -4 -25 -13 -56 -21 -69 -8 -13 -21 -35 -30 -50 l-17 -26 -18 24 -18 24 7 -35 c4 -19 7 -46 6 -59 -1 -22 0 -23 11 -8 7 9 17 17 23 17 17 0 83 -113 76 -130 -4 -8 -6 -28 -5 -45 0 -20 -11 -46 -35 -78 l-36 -49 -31 42 c-28 39 -31 41 -44 24 -7 -10 -13 -23 -13 -30 0 -7 -9 -16 -21 -19 -18 -6 -24 -27 -6 -26 4 0 25 -6 48 -14 23 -8 51 -15 63 -15 32 0 113 -89 121 -133 12 -62 -3 -107 -49 -153 -46 -46 -91 -61 -152 -50 -42 8 -112 68 -121 105 -8 33 -30 68 -48 75 -8 3 -32 -12 -54 -32 -33 -30 -39 -40 -29 -50 16 -16 -1 -16 -52 -1 -36 11 -38 14 -33 44 4 28 1 36 -21 50 -23 15 -26 24 -26 72 0 42 -7 70 -29 113 l-29 58 24 11 c26 12 32 9 74 -33 30 -29 138 -86 164 -86 26 0 65 41 72 76 3 19 10 37 15 40 5 3 9 14 9 25 0 11 7 31 16 44 9 14 13 32 10 41 -4 10 7 35 29 64 43 59 52 97 32 137 -17 32 -100 113 -117 113 -6 0 -10 38 -10 98 0 111 -16 185 -62 281 -70 148 -203 265 -333 295 -16 3 7 -11 52 -33 365 -175 442 -673 150 -962 -125 -123 -293 -169 -441 -119 -75 25 -192 99 -188 119 1 7 -2 10 -7 7 -5 -4 -25 13 -44 36 -95 118 -137 225 -145 365 -9 185 46 332 171 456 37 38 58 63 45 56 -13 -7 -43 -32 -68 -56 -27 -25 -55 -43 -70 -44 l-25 -1 25 -8 c25 -8 25 -8 -5 -10 -18 -1 -23 -4 -12 -7 23 -6 22 -15 -6 -45 -13 -14 -21 -30 -19 -36 2 -8 -12 -13 -40 -14 l-43 -1 38 -4 c51 -6 37 -23 -18 -23 l-45 0 22 45 c20 40 26 45 57 46 l36 1 -30 8 c-29 7 -29 8 -5 10 18 2 20 4 7 7 -9 2 -15 9 -11 14 3 5 10 7 15 3 5 -3 8 -2 7 3 -4 16 27 53 45 53 10 0 15 5 12 10 -3 6 1 10 10 10 9 0 13 4 10 10 -13 20 208 109 241 96 7 -3 30 1 51 9 l38 15 -60 -6 c-33 -3 -85 -12 -116 -20 -31 -8 -60 -14 -63 -14 -3 0 -6 52 -6 115 l0 115 -375 0 -375 0 0 -1000z m630 963 c0 -5 -105 -7 -234 -5 l-234 3 -31 -38 c-38 -47 -97 -81 -113 -65 -6 6 -8 18 -5 26 7 18 38 21 53 6 7 -7 25 5 54 35 l44 45 233 0 c128 0 233 -3 233 -7z m57 -29 c9 -23 -13 -40 -32 -24 -12 10 -13 16 -4 26 15 18 28 18 36 -2z m-39 -39 c-2 -3 -106 -5 -230 -6 l-226 0 -23 -25 c-12 -13 -27 -24 -33 -24 -6 0 5 13 24 30 l35 29 229 1 c126 0 227 -2 224 -5z m1258 -40 c4 -8 2 -21 -4 -28 -5 -6 -10 -44 -11 -84 -1 -64 2 -75 27 -104 l27 -33 4 -281 3 -281 -58 -57 c-32 -31 -60 -54 -63 -51 -3 3 18 28 47 55 l52 49 0 283 0 284 -25 23 c-23 22 -25 31 -25 111 0 51 -4 91 -10 94 -8 5 -7 11 1 21 15 18 28 18 35 -1z m-1451 -29 c49 -38 79 -105 72 -163 -4 -39 -3 -44 13 -40 15 4 12 -5 -14 -47 -73 -114 -110 -263 -98 -397 4 -55 4 -56 -32 -78 -20 -12 -49 -39 -65 -58 l-29 -36 -99 2 c-134 3 -133 2 -133 154 0 158 -1 157 136 157 91 0 105 -2 116 -19 11 -18 12 -18 25 6 7 14 11 29 8 33 -3 5 -1 11 5 15 23 14 7 23 -52 29 -35 4 -66 13 -70 19 -6 9 -8 9 -8 0 0 -20 -20 -15 -20 5 0 14 -2 15 -10 2 -5 -8 -23 -16 -39 -18 -25 -2 -31 0 -31 17 0 28 21 37 37 16 10 -15 13 -16 13 -4 0 13 19 16 115 17 l115 0 1 -26 c1 -18 3 -21 6 -9 2 9 8 15 13 12 9 -5 25 73 17 81 -3 3 -31 7 -63 10 -89 8 -101 12 -139 46 -46 40 -65 77 -65 127 0 67 27 120 79 153 40 26 53 29 103 26 42 -3 65 -11 93 -32z m1525 9 c9 -11 10 -18 1 -29 -8 -10 -12 -121 -11 -398 l0 -383 -55 -55 c-30 -30 -55 -50 -55 -44 0 5 23 31 50 57 l50 47 0 303 c0 251 -3 307 -15 323 -8 10 -15 23 -15 28 0 6 7 1 15 -10 13 -17 14 -14 15 44 0 34 -5 71 -12 81 -12 19 -5 51 10 51 5 0 15 -7 22 -15z m-1915 -25 c3 -5 17 -10 30 -10 13 0 27 5 30 10 11 17 35 11 35 -10 0 -17 -5 -18 -49 -13 -31 3 -51 1 -55 -6 -4 -6 -13 -11 -21 -11 -15 0 -28 27 -19 41 7 12 41 11 49 -1z m1884 -92 c1 -5 -3 -8 -9 -8 -5 0 -10 12 -9 28 0 24 1 25 9 7 5 -11 9 -23 9 -27z m-1884 12 c8 -13 48 -13 62 1 13 13 33 4 33 -16 0 -11 -10 -13 -44 -9 -27 4 -46 2 -50 -5 -9 -13 -43 -15 -50 -2 -4 5 -3 16 0 25 7 18 39 22 49 6z m-9 -81 c4 -7 24 -9 54 -6 52 6 62 3 53 -19 -7 -18 -94 -7 -109 14 -14 19 -37 6 -29 -17 5 -12 4 -13 -6 -4 -10 10 -9 15 1 28 15 18 26 19 36 4z m-3 -24 c4 -8 2 -17 -3 -20 -6 -4 -10 -4 -10 -1 0 2 -3 11 -6 20 -3 9 -2 16 4 16 5 0 12 -7 15 -15z m3 -56 c4 -7 24 -9 55 -6 34 4 49 2 52 -8 3 -7 3 -16 0 -19 -10 -10 -98 7 -106 21 -4 7 -13 13 -18 13 -6 0 -3 -7 6 -16 12 -12 13 -20 6 -27 -8 -8 -16 -6 -28 5 -13 14 -14 20 -3 32 15 19 26 20 36 5z m485 -120 c-57 -11 -68 -22 -13 -13 28 4 42 3 42 -5 0 -6 -18 -11 -45 -11 -26 0 -45 -5 -45 -11 0 -7 15 -10 40 -7 22 2 40 0 40 -4 0 -5 -21 -8 -46 -8 -45 0 -46 1 -39 27 9 36 21 43 70 42 l40 -1 -44 -9z m2 -76 c-7 -2 -21 -2 -30 0 -10 3 -4 5 12 5 17 0 24 -2 18 -5z m-50 -30 c-22 -3 -33 -10 -33 -20 0 -9 -3 -14 -6 -10 -16 16 7 37 38 35 l33 -1 -32 -4z m40 -20 c-7 -2 -21 -2 -30 0 -10 3 -4 5 12 5 17 0 24 -2 18 -5z m-40 -30 c-7 -2 -21 -2 -30 0 -10 3 -4 5 12 5 17 0 24 -2 18 -5z m-40 -67 c0 -25 4 -46 8 -46 4 0 4 -10 1 -22 -6 -23 -6 -23 -13 2 -9 31 -11 125 -3 117 3 -3 6 -26 7 -51z m84 28 c-3 -3 -12 -4 -19 -1 -8 3 -5 6 6 6 11 1 17 -2 13 -5z m-13 -140 c9 -25 7 -34 -9 -34 -8 0 -40 -24 -71 -53 l-57 -54 61 -61 c66 -66 70 -73 48 -91 -16 -13 -73 25 -124 84 -28 31 -33 44 -30 72 4 31 3 33 -9 17 -27 -38 -6 -81 74 -154 47 -43 52 -49 23 -34 -58 32 -130 109 -130 140 0 85 199 233 224 168z m1111 -47 c39 -38 45 -49 45 -84 0 -29 -9 -52 -30 -81 -34 -47 -36 -48 -61 -26 -17 16 -17 19 11 67 l29 51 -30 33 c-28 32 -40 83 -19 83 5 0 30 -19 55 -43z m-53 -73 c17 -16 17 -18 -4 -56 -12 -21 -27 -37 -34 -34 -7 3 -20 -2 -31 -9 -31 -24 -31 -17 1 49 17 36 35 65 40 65 5 1 18 -6 28 -15z m-1301 -34 l-7 -35 -5 32 c-3 19 -1 34 5 36 15 6 15 6 7 -33z m220 -15 c28 -60 20 -76 -22 -41 -48 41 -54 54 -34 76 10 11 21 20 24 19 3 0 18 -24 32 -54z m17 38 c-5 -15 45 -92 61 -96 13 -4 13 -5 -2 -6 -11 -1 -29 17 -47 46 -32 50 -36 63 -20 63 6 0 9 -3 8 -7z m-280 -63 l41 -60 -43 -25 c-23 -14 -46 -25 -50 -25 -3 0 -24 11 -46 25 l-40 25 42 60 c23 33 45 60 48 60 3 0 25 -27 48 -60z m1346 -59 c16 -17 30 -42 32 -57 2 -26 1 -26 -44 17 -26 24 -35 31 -21 14 15 -16 32 -40 38 -52 13 -26 14 -63 2 -63 -9 0 -27 -41 -22 -48 1 -1 -7 -15 -19 -29 -22 -28 -60 -39 -60 -16 0 7 -9 13 -21 13 -11 0 -17 -4 -14 -10 3 -5 0 -7 -8 -4 -9 3 -13 13 -10 25 5 19 -11 27 -22 9 -3 -5 -12 -7 -21 -3 -11 4 -13 14 -8 36 4 20 3 27 -5 23 -7 -5 -11 1 -11 14 0 12 21 46 47 76 36 41 53 54 75 54 15 0 27 3 27 8 -5 33 30 29 65 -7z m-1027 -9 c3 -13 12 -17 36 -14 46 5 98 -33 116 -84 17 -48 8 -94 -19 -101 -11 -3 -20 -9 -20 -13 0 -5 -14 -16 -31 -24 -26 -13 -35 -14 -47 -3 -13 10 -15 9 -10 -10 5 -19 2 -23 -17 -23 -13 0 -31 7 -39 16 -23 22 -20 27 7 9 13 -8 27 -12 30 -8 4 3 -7 14 -23 25 -45 27 -90 108 -60 108 5 0 16 -15 23 -32 13 -30 57 -80 57 -64 0 3 -11 24 -25 46 -31 49 -31 53 2 98 l28 37 -43 -38 c-45 -39 -74 -45 -80 -14 -2 12 3 17 18 17 12 0 18 -4 15 -10 -3 -5 -1 -10 5 -10 7 0 10 6 7 13 -2 6 4 23 14 36 11 13 19 32 19 42 0 24 30 25 37 1z m-408 -38 l40 -26 38 26 c21 14 41 26 45 26 10 0 -74 -129 -84 -130 -7 0 -31 33 -67 93 -27 44 -23 45 28 11z m675 -146 c-6 -22 -6 -22 13 -5 26 23 43 22 43 -3 0 -27 -106 -254 -121 -259 -9 -3 -10 11 -6 50 l6 54 -18 -54 c-23 -69 -36 -51 -15 20 18 61 90 219 99 219 4 0 3 -10 -1 -22z m446 -30 c38 -62 44 -99 26 -162 -11 -36 -22 -56 -32 -56 -12 0 -14 9 -9 48 4 26 2 58 -4 72 -9 24 -10 24 -10 -9 -1 -43 -21 -111 -34 -111 -5 0 -6 8 -2 18 30 78 29 97 -3 156 -38 67 -34 72 9 14 18 -24 29 -34 24 -23 -15 39 -17 55 -11 70 9 24 25 18 46 -17z m-90 -35 c44 -69 39 -137 -11 -147 -43 -8 -72 -42 -65 -74 8 -34 8 -38 -1 -87 l-9 -40 -109 4 c-61 2 -111 4 -113 6 -6 5 -4 62 3 92 6 29 3 36 -24 62 l-32 30 31 78 c18 43 34 84 37 91 4 8 35 12 102 13 78 1 135 8 159 18 1 0 16 -20 32 -46z m-718 -236 c-9 -11 -24 -12 -63 -6 -63 10 -75 19 -25 19 21 0 44 7 53 16 14 14 17 14 31 0 12 -12 13 -18 4 -29z m294 6 c50 -5 54 -8 48 -27 -10 -33 -17 -36 -59 -23 -52 16 -80 37 -88 65 -5 23 -5 23 20 7 13 -9 49 -19 79 -22z m382 -2 c10 -29 10 -32 -3 -21 -8 7 -15 24 -15 38 0 31 3 27 18 -17z m205 15 c-4 -20 -17 -29 -63 -44 l-59 -19 -5 21 c-11 41 -7 46 37 46 23 0 49 5 57 10 26 17 37 11 33 -14z m-168 -14 c-3 -3 -11 0 -18 7 -9 10 -8 11 6 5 10 -3 15 -9 12 -12z m-538 -14 c-3 -8 -6 -5 -6 6 -1 11 2 17 5 13 3 -3 4 -12 1 -19z m215 -16 c-5 -16 -8 -42 -5 -58 4 -28 4 -28 -12 -9 -16 21 -13 68 8 93 15 19 20 6 9 -26z m523 2 c12 -5 5 -12 -27 -26 -24 -10 -57 -33 -75 -50 -34 -33 -61 -31 -43 3 6 11 8 25 4 32 -4 6 -3 9 1 4 5 -4 20 0 33 9 22 14 62 30 84 33 3 1 14 -2 23 -5z m-179 -27 c4 -4 -2 -16 -13 -27 -15 -14 -23 -16 -26 -7 -3 7 -6 -2 -6 -20 -1 -24 -5 -31 -16 -27 -20 8 -27 37 -16 65 6 18 16 24 39 24 17 0 34 -3 38 -8z m-752 -13 c4 -9 2 -22 -4 -29 -16 -19 -17 -159 -2 -177 16 -20 5 -50 -17 -46 -14 3 -16 17 -13 106 3 70 0 107 -8 117 -7 8 -10 22 -6 30 7 20 42 19 50 -1z m317 -4 c38 -20 69 -63 55 -77 -3 -4 -13 3 -22 15 -19 28 -65 52 -129 67 l-50 13 53 1 c35 1 66 -6 93 -19z m756 -14 c53 -61 0 -106 -125 -106 -58 0 -74 3 -79 16 -10 27 10 67 46 91 42 28 28 30 -16 3 -18 -11 -33 -15 -33 -10 0 21 56 38 119 36 56 -2 67 -6 88 -30z m-808 -26 c51 -23 55 -24 45 -7 -4 7 -3 9 2 4 5 -5 8 -9 6 -10 -2 -1 4 -18 12 -39 19 -44 10 -55 -57 -64 -46 -7 -153 5 -129 13 10 4 9 9 -4 24 -23 25 -38 24 -24 -1 12 -23 7 -25 -21 -10 -11 6 -19 7 -19 1 0 -5 7 -11 15 -15 8 -3 15 -15 15 -26 0 -18 -3 -19 -21 -9 -18 9 -20 17 -15 52 15 97 94 132 195 87z m26 10 c3 -6 -1 -7 -9 -4 -18 7 -21 14 -7 14 6 0 13 -4 16 -10z m-358 -183 c-2 -28 -3 -5 -3 53 0 58 1 81 3 53 2 -29 2 -77 0 -106z m763 126 c13 -17 17 -29 10 -31 -14 -5 -50 27 -50 45 0 21 17 15 40 -14z m-280 2 c0 -8 -8 -23 -17 -33 -10 -10 -23 -27 -29 -38 -28 -51 -164 -74 -203 -35 -19 19 -18 19 71 23 l90 3 42 47 c47 54 46 53 46 33z m671 -56 c-12 -10 -43 -22 -69 -28 -50 -10 -132 -4 -132 10 0 5 -15 16 -32 24 l-33 14 30 -7 c59 -14 168 -7 210 14 33 16 41 17 44 4 2 -7 -6 -22 -18 -31z m399 -46 l65 -68 -65 62 c-49 46 -74 63 -100 66 l-35 4 35 1 c32 2 43 -6 100 -65z m-72 7 c17 -16 32 -37 32 -46 0 -13 -3 -14 -13 -5 -8 6 -17 7 -22 3 -4 -4 -6 3 -3 15 11 43 -16 52 -167 56 l-140 3 140 2 140 1 33 -29z m-221 -21 c16 -16 5 -39 -18 -39 -12 0 -19 7 -19 18 0 31 17 41 37 21z m128 1 c3 -5 0 -10 -7 -11 -10 0 -10 -2 0 -6 17 -7 15 -23 -3 -23 -9 0 -18 7 -22 16 -6 16 -7 16 -18 0 -12 -15 -13 -15 -18 3 -4 16 1 21 22 24 14 2 29 5 33 6 4 0 10 -3 13 -9z m52 -6 c8 -21 -13 -42 -28 -27 -13 13 -5 43 11 43 6 0 13 -7 17 -16z m-137 -15 c0 -11 -4 -17 -10 -14 -5 3 -10 13 -10 21 0 8 5 14 10 14 6 0 10 -9 10 -21z m157 -11 c-3 -7 -5 -2 -5 12 0 14 2 19 5 13 2 -7 2 -19 0 -25z m-15 -35 c-51 -2 -132 -2 -180 0 -48 1 -6 3 93 3 99 0 138 -2 87 -3z" /><path d="M25 1880 c-4 -6 1 -7 11 -3 13 5 15 3 9 -7 -5 -9 -4 -11 4 -6 6 4 9 12 6 17 -8 12 -22 12 -30 -1z" /><path d="M660 1930 c0 -5 5 -10 11 -10 5 0 7 5 4 10 -3 6 -8 10 -11 10 -2 0 -4 -4 -4 -10z" /><path d="M307 1816 c-48 -18 -62 -29 -81 -70 -57 -121 68 -249 184 -189 155 80 61 318 -103 259z m117 -27 c56 -44 72 -118 36 -176 -24 -40 -50 -54 -93 -51 -29 3 -33 6 -30 28 1 14 0 17 -3 8 -7 -24 -24 -23 -24 2 0 13 -7 20 -20 20 -21 0 -28 16 -9 22 5 2 15 23 20 48 9 38 8 46 -7 57 -13 9 -20 10 -25 2 -4 -8 -9 -7 -14 2 -5 8 2 21 19 36 36 31 112 32 150 2z" /><path d="M346 1724 c-9 -23 -8 -24 14 -24 11 0 20 6 20 14 0 20 -27 28 -34 10z" /><path d="M421 1702 c-6 -11 -6 -23 -2 -28 5 -5 11 -18 14 -29 2 -11 4 1 3 27 0 27 -2 48 -3 48 -1 0 -7 -8 -12 -18z" /><path d="M336 1664 c-9 -23 -8 -24 18 -24 33 0 42 16 17 29 -26 14 -28 14 -35 -5z" /><path d="M399 1613 c-17 -3 -29 -12 -32 -26 -6 -20 -5 -20 7 -4 7 9 20 17 29 17 9 0 19 5 22 10 3 6 5 9 3 9 -2 -1 -15 -4 -29 -6z" /><path d="M430 1525 c-14 -8 -20 -14 -14 -15 5 0 19 7 30 15 24 18 16 19 -16 0z" /><path d="M94 1287 c-2 -7 -3 -67 -2 -133 l3 -119 92 -3 92 -3 6 33 c3 18 7 62 8 98 1 36 6 68 11 71 4 4 5 21 1 38 l-7 31 -99 0 c-73 0 -101 -4 -105 -13z m96 -22 c0 -8 5 -15 10 -15 6 0 10 7 10 15 0 8 7 15 15 15 8 0 15 -7 15 -17 0 -9 11 -31 25 -49 l25 -32 -46 -26 -46 -26 -37 22 c-31 18 -38 27 -37 52 2 47 66 106 66 61z m55 -170 c-20 -25 -40 -45 -44 -45 -5 0 -28 21 -52 47 -47 51 -40 67 15 35 l34 -20 38 23 c22 13 41 19 42 14 2 -5 -13 -30 -33 -54z" /><path d="M172 1193 c4 -22 34 -29 54 -12 18 15 2 29 -34 29 -17 0 -23 -5 -20 -17z" /><path d="M1955 1829 c-4 -5 -4 -13 -1 -16 3 -4 6 0 6 8 0 11 2 11 10 -1 6 -9 10 -10 10 -3 0 17 -17 25 -25 12z" /><path d="M25 1801 c-7 -12 12 -24 25 -16 11 7 4 25 -10 25 -5 0 -11 -4 -15 -9z" /><path d="M24 1719 c-5 -8 -3 -9 6 -4 7 4 16 2 22 -6 8 -12 9 -12 6 0 -6 20 -24 25 -34 10z" /><path d="M770 1895 c0 -58 4 -105 9 -105 13 0 21 53 21 136 0 59 -3 74 -15 74 -12 0 -15 -18 -15 -105z" /><path d="M812 1918 c2 -54 7 -83 16 -86 9 -3 12 18 12 82 0 71 -3 86 -15 86 -13 0 -15 -14 -13 -82z" /><path d="M854 1939 c3 -34 6 -75 6 -91 0 -17 4 -27 10 -23 6 3 10 44 10 91 0 71 -2 84 -16 84 -15 0 -16 -9 -10 -61z" /><path d="M900 1924 c0 -47 4 -73 10 -69 6 3 10 37 10 76 0 39 -4 69 -10 69 -6 0 -10 -32 -10 -76z" /><path d="M930 1943 c0 -32 3 -69 7 -81 10 -41 23 -3 23 71 0 53 -3 67 -15 67 -12 0 -15 -13 -15 -57z" /><path d="M970 1936 c0 -70 14 -95 24 -45 11 58 7 109 -9 109 -12 0 -15 -14 -15 -64z" /><path d="M1010 1935 c0 -36 4 -65 9 -65 14 0 21 27 21 81 0 37 -4 49 -15 49 -12 0 -15 -14 -15 -65z" /><path d="M1050 1941 c0 -68 14 -89 24 -33 10 63 7 92 -9 92 -12 0 -15 -13 -15 -59z" /><path d="M1090 1930 c0 -40 4 -70 10 -70 6 0 10 11 10 24 0 13 3 44 6 70 6 38 4 46 -10 46 -13 0 -16 -12 -16 -70z" /><path d="M1130 1930 c0 -40 4 -70 10 -70 6 0 10 15 10 33 0 17 3 49 6 70 5 30 4 37 -10 37 -13 0 -16 -12 -16 -70z" /><path d="M1483 1932 c-28 -10 -67 -31 -87 -46 -37 -28 -93 -112 -82 -123 3 -4 6 -2 6 3 0 5 9 24 20 41 17 29 23 32 44 23 20 -7 24 -6 20 5 -3 7 -13 11 -22 8 -9 -3 -1 11 20 30 57 56 208 91 208 50 0 -11 3 -14 8 -8 8 12 17 12 50 1 12 -4 20 -11 17 -16 -3 -4 2 -13 10 -20 22 -18 18 -32 -5 -20 -11 6 -20 17 -20 25 0 7 -4 17 -10 20 -5 3 -7 0 -4 -9 8 -20 -33 -25 -69 -8 -33 17 -38 14 -30 -16 4 -17 9 -20 18 -12 14 12 48 3 40 -11 -3 -4 4 -13 15 -19 24 -13 27 -32 3 -23 -11 4 -14 3 -9 -5 4 -7 1 -12 -8 -12 -8 0 -16 11 -18 25 -2 14 -7 26 -13 26 -5 0 -11 -12 -13 -26 -5 -36 -32 -32 -32 5 0 17 -4 30 -10 30 -5 0 -10 -13 -10 -30 0 -28 -3 -30 -35 -30 -19 0 -35 -4 -35 -10 0 -5 9 -10 20 -10 19 0 20 -7 20 -95 0 -83 2 -96 19 -105 11 -5 22 -22 24 -37 l4 -28 2 28 c2 39 34 33 42 -8 6 -27 8 -24 13 16 1 12 76 43 84 35 2 -3 -9 -11 -25 -20 -17 -9 -22 -15 -12 -16 9 0 24 9 34 20 10 11 14 20 10 20 -5 0 -4 5 3 12 20 20 13 55 -15 78 -25 20 -26 21 -9 38 17 16 18 16 11 -5 -4 -15 -2 -23 6 -23 7 0 9 10 6 30 -4 17 -3 30 2 30 4 0 8 8 8 18 -1 49 4 85 9 79 9 -9 8 -138 0 -165 -4 -12 -2 -23 5 -28 9 -5 10 -2 6 9 -7 18 8 24 18 7 4 -6 11 -8 16 -4 5 3 6 10 3 16 -5 8 -1 9 10 5 13 -5 18 0 23 23 3 17 10 30 15 30 6 0 8 -8 6 -18 -4 -12 1 -18 14 -18 17 0 19 5 15 33 -26 156 -203 259 -354 205z m244 -43 c6 -6 9 -17 7 -24 -3 -6 3 -18 12 -26 16 -13 17 -12 10 6 -7 20 -7 20 12 0 10 -11 16 -22 12 -25 -4 -3 -10 -12 -13 -20 -4 -11 -7 -10 -12 8 -4 12 -14 22 -21 22 -8 0 -14 10 -14 21 0 12 -8 28 -17 35 -15 11 -16 13 -2 14 8 0 20 -5 26 -11z m77 -94 c3 -8 1 -15 -4 -15 -6 0 -10 7 -10 15 0 8 2 15 4 15 2 0 6 -7 10 -15z m-134 -20 c19 -22 8 -25 -12 -3 -10 10 -14 18 -9 18 5 0 14 -7 21 -15z m130 -25 c0 -4 -6 -10 -12 -13 -8 -3 -13 4 -13 18 0 18 3 21 13 13 6 -6 12 -14 12 -18z m-186 4 c21 -21 20 -30 -1 -13 -15 13 -15 12 -5 -7 15 -28 -5 -47 -45 -42 -29 3 -42 31 -29 64 7 19 61 18 80 -2z m113 -66 c-3 -8 -6 -5 -6 6 -1 11 2 17 5 13 3 -3 4 -12 1 -19z m-93 -34 c30 -30 -14 -74 -73 -74 -30 0 -31 1 -31 45 l0 45 44 0 c27 0 51 -6 60 -16z" /><path d="M1618 1633 c-22 -5 -24 -20 -3 -20 8 0 16 6 19 14 3 7 4 12 3 12 -1 -1 -10 -3 -19 -6z" /><path d="M1550 1920 c-13 -8 -12 -10 3 -10 9 0 17 5 17 10 0 12 -1 12 -20 0z" /><path d="M1515 1909 c-4 -6 -5 -12 -2 -15 2 -3 7 2 10 11 7 17 1 20 -8 4z" /><path d="M1469 1898 c-7 -25 -5 -36 6 -31 8 2 11 11 8 19 -5 12 -12 18 -14 12z" /><path d="M1416 1871 c-3 -5 1 -11 9 -14 9 -4 12 -1 8 9 -6 16 -10 17 -17 5z" /><path d="M1349 1792 c-13 -15 -12 -16 3 -4 13 10 17 10 21 0 4 -9 6 -9 6 -1 2 20 -16 24 -30 5z" /><path d="M1435 1709 c-11 -16 -1 -19 13 -3 7 8 8 14 3 14 -5 0 -13 -5 -16 -11z" /><path d="M887 1684 c-38 -20 -139 -144 -172 -211 -38 -78 -45 -104 -55 -210 -9 -91 -9 -93 25 -178 49 -121 57 -134 117 -193 50 -51 156 -112 193 -112 9 0 13 -5 10 -10 -4 -6 22 -10 72 -10 49 0 73 4 64 9 -10 6 -2 9 24 8 22 -1 40 4 43 11 2 7 8 9 14 6 6 -4 20 4 30 17 11 13 17 18 13 11 -6 -11 -3 -12 14 -3 11 7 21 14 21 17 0 3 -6 2 -12 -2 -8 -4 -10 -3 -5 2 5 5 12 9 15 9 53 3 182 204 182 283 0 9 9 23 20 30 24 14 27 64 6 81 -8 7 -17 35 -21 64 -10 68 -38 143 -77 202 -17 26 -33 59 -34 72 -7 64 -92 126 -140 104 -19 -8 -36 -9 -67 0 -65 18 -247 20 -280 3z m73 -10 c0 -2 -15 -4 -32 -3 -27 0 -29 2 -13 8 18 8 45 4 45 -5z m113 9 c-7 -2 -21 -2 -30 0 -10 3 -4 5 12 5 17 0 24 -2 18 -5z m89 -23 c22 -6 39 -19 43 -30 6 -19 12 -22 68 -34 69 -16 153 -133 181 -256 15 -64 15 -65 -15 -50 -15 8 -19 22 -19 61 0 99 -56 169 -134 169 -55 0 -89 -26 -112 -85 -19 -51 -16 -119 9 -178 l16 -37 84 6 c81 6 85 6 92 -15 3 -12 24 -31 46 -44 35 -20 39 -25 33 -52 -12 -63 -68 -161 -126 -219 -58 -57 -95 -72 -47 -18 28 31 52 72 46 78 -2 2 -18 -14 -36 -36 -84 -105 -249 -117 -356 -27 -45 38 -84 55 -134 59 -32 3 -37 9 -67 68 -50 102 -51 110 -13 110 24 0 42 11 78 46 l46 46 93 -4 93 -5 14 27 c26 51 36 118 24 163 -55 207 -319 166 -319 -50 0 -58 -1 -60 -40 -86 l-40 -26 0 24 c0 79 56 223 106 276 24 26 89 49 176 63 37 7 57 33 43 56 -8 13 118 13 167 0z m132 1 c3 -4 -6 -6 -19 -3 -14 2 -25 6 -25 8 0 8 39 4 44 -5z m-314 -166 c15 -8 39 -31 51 -52 29 -47 32 -132 6 -180 -17 -32 -19 -33 -85 -32 -54 1 -60 3 -32 8 51 10 78 28 95 61 18 35 19 80 3 115 -11 25 -32 36 -22 12 7 -19 -22 -40 -45 -34 -11 3 -22 0 -24 -6 -2 -7 -4 6 -5 27 -1 30 3 39 18 43 29 8 14 23 -22 23 -70 0 -125 -66 -115 -139 4 -36 3 -41 -14 -41 -16 0 -19 8 -19 51 0 59 28 117 68 142 34 21 104 22 142 2z m359 -9 c52 -27 92 -175 49 -184 -15 -3 -16 0 -7 27 8 22 7 40 -2 68 -12 36 -12 37 -22 15 -8 -17 -17 -22 -34 -19 -12 2 -24 -1 -26 -7 -2 -6 -4 4 -5 23 0 25 4 34 19 38 29 8 12 23 -26 23 -52 0 -95 -48 -95 -106 0 -25 7 -55 15 -68 21 -31 67 -50 105 -42 17 3 30 1 30 -4 0 -6 -19 -10 -42 -10 -24 0 -53 -3 -66 -6 -18 -5 -25 0 -37 30 -19 45 -19 126 -1 170 26 61 85 83 145 52z m-452 -195 c32 -17 48 -14 83 15 36 31 50 25 26 -11 -18 -27 -53 -45 -86 -45 -28 0 -90 58 -90 84 1 20 2 20 23 -5 12 -15 32 -32 44 -38z m399 -1 c17 0 39 11 56 27 21 20 28 23 28 11 0 -22 -57 -68 -84 -68 -31 0 -76 37 -76 62 0 20 2 19 25 -6 15 -16 35 -26 51 -26z m-444 -18 c7 -11 20 -22 28 -26 9 -3 6 -4 -7 -2 -17 3 -28 -4 -43 -29 -37 -59 -107 -86 -145 -55 -21 18 -19 34 12 71 47 55 129 77 155 41z m603 4 c37 -16 68 -56 63 -82 -5 -29 -32 -39 -67 -24 -38 15 -95 85 -87 105 7 19 47 19 91 1z" /><path d="M820 1160 c-22 -22 -25 -46 -10 -70 7 -12 10 -8 11 15 0 26 2 24 13 -15 23 -85 99 -175 172 -206 48 -20 151 -17 200 5 22 10 57 38 77 61 36 43 77 132 77 170 0 27 18 25 23 -2 4 -20 4 -20 6 4 1 30 -22 58 -47 58 -15 0 -15 -2 -2 -10 12 -7 7 -12 -20 -24 -63 -26 -187 -38 -275 -27 -105 13 -193 40 -174 52 11 7 9 9 -8 9 -13 0 -32 -9 -43 -20z m500 -67 c0 -60 -207 -95 -342 -57 -54 15 -79 39 -65 61 9 14 407 10 407 -4z m-182 -165 c17 0 32 -4 32 -9 0 -14 -113 -7 -117 8 -3 7 5 10 24 6 15 -3 43 -5 61 -5z" /><path d="M684 1180 c1 -9 12 -16 26 -17 21 -1 21 -1 3 3 -12 3 -24 11 -26 17 -2 7 -3 5 -3 -3z" /><path d="M1831 1664 c0 -11 3 -14 6 -6 3 7 2 16 -1 19 -3 4 -6 -2 -5 -13z" /><path d="M1710 1615 c0 -8 2 -15 4 -15 2 0 6 7 10 15 3 8 1 15 -4 15 -6 0 -10 -7 -10 -15z" /><path d="M1743 1581 c-26 -22 -29 -31 -9 -31 7 0 21 10 29 23 13 18 16 19 16 5 1 -9 -7 -24 -16 -34 -13 -13 -14 -16 -3 -12 8 2 19 14 25 26 5 12 13 22 17 22 12 0 10 -10 -13 -49 -12 -21 -14 -28 -4 -16 9 11 23 32 30 46 13 25 13 27 -8 33 -33 9 -40 7 -64 -13z" /><path d="M1791 1495 c-18 -25 -41 -50 -52 -55 -11 -6 -17 -15 -14 -21 4 -5 3 -9 -2 -8 -4 1 -21 -1 -38 -6 -26 -7 -27 -9 -10 -16 45 -17 90 -10 118 19 15 16 27 37 26 48 -4 41 4 59 10 24 5 -28 2 -42 -17 -67 -18 -25 -21 -33 -10 -33 32 0 49 35 46 96 -2 31 -8 59 -14 61 -6 2 -25 -17 -43 -42z" /><path d="M1832 1378 c-7 -7 -34 -14 -60 -15 -26 -1 -52 -2 -59 -2 -7 -1 -10 -8 -7 -16 5 -11 22 -15 64 -15 60 0 85 14 78 45 -2 13 -5 14 -16 3z" /><path d="M1740 1132 c6 -13 14 -21 18 -18 3 4 -2 14 -12 24 -18 16 -18 16 -6 -6z" /><path d="M1796 1137 c-10 -8 -16 -22 -14 -33 3 -16 7 -14 21 14 19 36 19 38 -7 19z" /><path d="M1812 1100 c-8 -13 -8 -20 -2 -20 6 0 13 7 17 15 9 24 -1 27 -15 5z" /><path d="M1792 1051 c-8 -5 -12 -17 -10 -27 2 -15 5 -13 15 9 14 30 14 30 -5 18z" /><path d="M1801 864 c0 -11 3 -14 6 -6 3 7 2 16 -1 19 -3 4 -6 -2 -5 -13z" /><path d="M1800 783 l1 -38 24 30 c18 21 21 31 12 37 -26 17 -37 8 -37 -29z" /><path d="M810 786 c0 -3 9 -10 20 -16 11 -6 20 -8 20 -6 0 3 -9 10 -20 16 -11 6 -20 8 -20 6z" /><path d="M1800 695 c0 -8 2 -15 4 -15 2 0 6 7 10 15 3 8 1 15 -4 15 -6 0 -10 -7 -10 -15z" /><path d="M1098 693 c7 -3 16 -2 19 1 4 3 -2 6 -13 5 -11 0 -14 -3 -6 -6z" /><path d="M241 633 l-51 -57 0 -288 0 -288 22 0 c17 0 19 3 10 12 -9 9 -12 85 -12 281 l0 268 51 55 c29 30 46 54 40 54 -7 0 -9 5 -6 10 16 25 -8 5 -54 -47z" /><path d="M268 596 l-48 -42 0 -265 c0 -193 3 -268 12 -277 8 -8 58 -12 157 -12 183 0 180 18 -4 22 l-130 3 -3 248 c-2 241 -2 248 20 277 16 23 30 30 54 30 18 0 36 5 40 11 4 8 0 9 -15 4 -17 -5 -21 -2 -21 14 0 33 -13 31 -62 -13z" /><path d="M110 550 c0 -22 5 -40 10 -40 6 0 10 18 10 40 0 22 -4 40 -10 40 -5 0 -10 -18 -10 -40z" /><path d="M1733 543 c9 -2 23 -2 30 0 6 3 -1 5 -18 5 -16 0 -22 -2 -12 -5z" /><path d="M397 529 c-9 -6 -26 -9 -36 -7 -24 4 -61 -29 -61 -55 0 -19 2 -19 28 5 15 15 42 30 61 35 19 5 36 14 39 21 5 15 -7 15 -31 1z" /><path d="M1655 507 c-86 -86 -31 -227 89 -227 99 0 165 104 121 190 -16 30 -61 70 -79 70 -6 -1 1 -7 16 -16 23 -12 58 -59 58 -79 0 -14 -29 -3 -44 18 -14 18 -15 18 -7 2 6 -13 6 -27 0 -37 -6 -11 -6 -19 1 -23 22 -13 10 -47 -20 -58 -16 -6 -30 -17 -30 -24 0 -22 -18 -14 -23 10 -4 22 -4 22 -15 -3 l-11 -25 -7 23 c-3 12 -13 22 -20 22 -18 0 -18 18 1 36 8 9 15 25 14 37 0 22 0 21 -10 -1 -5 -13 -18 -35 -29 -49 l-20 -25 -10 27 c-5 14 -10 33 -10 41 0 33 31 85 62 104 18 11 27 20 20 20 -8 0 -29 -15 -47 -33z" /><path d="M27 514 c-4 -4 -7 -12 -7 -18 0 -6 5 -4 10 4 9 13 11 13 21 0 9 -12 10 -12 7 -1 -5 17 -21 25 -31 15z" /><path d="M110 460 c0 -22 5 -40 10 -40 6 0 10 18 10 40 0 22 -4 40 -10 40 -5 0 -10 -18 -10 -40z" /><path d="M1740 445 c0 -8 7 -15 15 -15 8 0 15 7 15 15 0 8 -7 15 -15 15 -8 0 -15 -7 -15 -15z" /><path d="M110 205 c0 -130 4 -205 10 -205 6 0 10 75 10 205 0 130 -4 205 -10 205 -6 0 -10 -75 -10 -205z" /><path d="M1730 390 c0 -16 5 -21 23 -18 12 2 22 10 22 18 0 8 -10 16 -22 18 -18 3 -23 -2 -23 -18z" /><path d="M25 331 c-7 -12 12 -24 25 -16 11 7 4 25 -10 25 -5 0 -11 -4 -15 -9z" /><path d="M300 207 c0 -80 6 -110 21 -101 16 10 11 150 -6 164 -13 11 -15 3 -15 -63z" /><path d="M25 240 c-4 -6 1 -7 11 -3 13 5 15 3 9 -7 -5 -9 -4 -11 4 -6 6 4 9 12 6 17 -8 12 -22 12 -30 -1z" /><path d="M25 161 c-3 -5 -1 -12 5 -16 12 -7 30 2 30 16 0 12 -27 12 -35 0z" /></g></svg>