<?xml version="1.0" standalone="no"?>
<!DOCTYPE svg PUBLIC "-//W3C//DTD SVG 20010904//EN"
 "http://www.w3.org/TR/2001/REC-SVG-20010904/DTD/svg10.dtd">
<svg version="1.0" xmlns="http://www.w3.org/2000/svg"
 width="200.000000pt" height="200.000000pt" viewBox="0 0 200.000000 200.000000"
 preserveAspectRatio="xMidYMid meet">
<g transform="translate(0.000000,200.000000) scale(0.100000,-0.100000)"
fill="#000000" stroke="none">
<path d="M866 1940 c-376 -60 -664 -295 -782 -642 -51 -152 -57 -362 -14 -523
99 -374 431 -649 837 -695 387 -43 785 176 958 525 73 148 90 224 90 405 0
181 -13 242 -81 389 -152 326 -469 532 -839 546 -60 2 -137 0 -169 -5z m329
-29 c353 -73 620 -317 715 -653 30 -106 37 -278 15 -393 -36 -191 -118 -342
-264 -485 -106 -103 -216 -171 -350 -216 -342 -115 -701 -38 -962 205 -126
116 -198 230 -255 401 -26 80 -28 95 -28 255 0 165 1 173 32 265 96 287 311
500 598 594 152 49 341 60 499 27z"/>
<path d="M800 1890 c-195 -42 -340 -127 -491 -287 -287 -304 -304 -774 -41
-1104 137 -173 301 -277 522 -332 122 -30 312 -29 434 1 179 45 329 133 457
270 243 258 304 633 154 949 -121 257 -377 455 -654 507 -110 21 -274 19 -381
-4z m186 -11 c4 -6 -12 -10 -43 -10 -63 1 -107 -4 -122 -13 -7 -5 -15 -5 -19
-1 -11 11 22 24 45 18 13 -3 23 -1 23 3 0 13 108 15 116 3z m121 -2 c-17 -5
-37 -6 -48 -1 -14 7 -7 9 28 10 43 1 45 0 20 -9z m90 -13 c0 -16 -13 -18 -22
-4 -4 6 -16 8 -28 5 -16 -5 -18 -4 -8 3 20 14 58 11 58 -4z m43 -4 c12 -8 11
-10 -7 -10 -13 0 -23 5 -23 10 0 13 11 13 30 0z m-470 -4 c0 -11 -19 -15 -25
-6 -3 5 1 10 9 10 9 0 16 -2 16 -4z m347 -7 c186 -25 351 -107 489 -244 143
-142 221 -294 245 -485 28 -225 -53 -470 -209 -632 -38 -40 -48 -45 -61 -35
-14 11 -14 10 -2 -6 9 -12 11 -21 5 -25 -5 -4 -35 -26 -65 -48 -222 -167 -516
-213 -792 -124 -86 28 -204 86 -194 96 2 2 46 -15 98 -39 147 -69 210 -82 379
-81 126 1 156 5 233 28 85 25 195 75 170 76 -7 0 -36 -11 -65 -25 -29 -13 -72
-29 -95 -35 -24 -5 -61 -14 -83 -20 -91 -23 -381 -15 -365 10 2 3 -1 7 -8 8
-60 5 -97 16 -88 25 7 7 27 5 63 -6 267 -82 577 -5 797 198 34 30 59 55 56 55
-3 0 11 21 30 46 145 190 184 480 96 709 -31 81 -109 205 -155 245 -47 42 -44
27 6 -29 61 -71 107 -149 141 -244 38 -106 49 -291 23 -401 -29 -124 -132
-313 -170 -313 -11 0 -15 6 -11 16 5 12 3 13 -5 5 -6 -6 -12 -18 -13 -25 -2
-8 -7 -21 -11 -29 -5 -8 3 -4 17 9 15 14 27 20 27 14 0 -17 -81 -83 -93 -76
-6 3 -7 1 -3 -5 10 -16 -114 -95 -209 -133 -180 -72 -366 -77 -545 -16 -54 19
-124 49 -155 68 -71 43 -139 100 -128 108 16 12 12 29 -11 50 -29 28 -43 12
-16 -17 22 -23 25 -32 12 -32 -17 0 -72 79 -66 94 3 9 11 13 18 9 6 -4 5 1 -3
10 -7 9 -18 14 -24 10 -6 -4 -8 0 -4 11 4 9 3 15 -2 12 -5 -3 -18 9 -30 27
-11 17 -21 28 -21 24 0 -5 14 -29 31 -53 17 -25 29 -48 26 -50 -8 -8 -66 82
-98 152 -49 107 -62 182 -56 324 4 108 9 136 35 209 38 102 105 211 166 270
25 24 43 48 40 53 -3 5 -15 1 -25 -8 -23 -21 -52 -28 -46 -11 3 7 10 11 16 9
7 -1 10 2 7 7 -3 5 1 14 9 21 8 7 15 9 15 4 0 -5 9 2 20 16 l20 25 -4 -27 c-6
-36 2 -35 55 5 275 209 677 205 948 -8 56 -44 85 -59 62 -31 -8 10 -9 16 -1
21 5 3 10 2 10 -4 0 -6 7 -8 15 -5 13 5 19 -5 17 -27 -1 -4 11 -17 25 -30 14
-13 23 -18 19 -11 -4 6 -4 12 1 12 9 0 47 -62 45 -73 -1 -4 3 -6 9 -5 7 2 29
-26 50 -62 21 -36 39 -60 39 -55 0 21 -96 165 -145 217 -37 39 -58 54 -77 54
-16 0 -24 -4 -21 -10 3 -6 -2 -3 -12 6 -21 20 -13 37 9 19 9 -7 17 -8 20 -2 8
12 -113 93 -189 126 -123 55 -199 70 -355 69 -146 0 -178 -5 -310 -51 -49 -18
-82 -40 -40 -28 14 4 36 13 50 20 28 14 107 33 160 39 19 2 63 7 97 11 61 7
246 -12 239 -24 -2 -3 12 -6 31 -7 19 0 39 -7 44 -15 5 -8 9 -10 9 -6 0 5 6 5
13 0 6 -4 17 -8 22 -9 6 0 16 -2 23 -2 7 -1 10 -6 7 -12 -3 -5 0 -7 8 -4 8 3
23 -3 33 -13 10 -10 22 -18 28 -18 6 0 30 -11 53 -25 33 -18 40 -26 32 -37
-13 -15 -33 -7 -23 9 4 7 2 8 -4 4 -6 -4 -36 9 -66 28 -110 70 -256 109 -411
108 -149 -1 -282 -36 -398 -106 -30 -19 -59 -31 -63 -27 -4 3 -4 0 0 -6 8 -15
-10 -18 -19 -4 -6 10 11 24 34 28 7 1 19 7 25 14 8 9 8 10 -1 5 -7 -4 -13 -2
-13 3 0 6 8 11 18 12 9 0 12 3 5 6 -16 6 -105 -55 -98 -68 3 -5 0 -6 -8 -3
-14 5 -167 -148 -167 -166 0 -5 6 -12 13 -16 6 -4 9 -4 5 1 -11 11 11 47 24
39 6 -4 8 -3 5 2 -3 6 -2 16 3 24 7 11 12 12 20 4 9 -9 0 -28 -34 -73 -168
-230 -192 -517 -64 -776 16 -33 47 -83 68 -111 21 -29 36 -55 32 -59 -4 -5 -1
-4 7 0 11 6 13 4 8 -8 -4 -10 -2 -14 6 -11 7 2 24 -8 37 -23 41 -47 34 -74 -8
-30 -12 13 -19 27 -15 32 5 4 2 5 -5 1 -7 -4 -21 -2 -30 5 -9 7 -3 -2 13 -20
17 -18 54 -51 83 -73 65 -51 61 -64 -5 -15 -60 43 -148 136 -192 200 -44 65
-95 177 -117 257 -24 90 -24 270 0 370 56 232 233 450 451 555 173 84 322 109
502 84z m-397 -9 c0 -5 -8 -10 -17 -10 -15 0 -16 2 -3 10 19 12 20 12 20 0z
m649 -29 c14 -9 29 -16 35 -16 18 -2 51 -18 58 -29 4 -6 13 -11 20 -11 7 -1
12 -7 10 -14 -1 -7 2 -10 8 -6 25 15 177 -128 248 -233 24 -34 40 -62 36 -62
-4 0 -1 -8 7 -17 21 -26 50 -93 44 -103 -3 -4 2 -13 10 -20 7 -6 12 -17 9 -25
-3 -7 1 -27 10 -43 8 -16 13 -32 10 -35 -3 -3 -3 -11 2 -18 10 -17 16 -138 13
-259 -1 -30 -4 -44 -7 -30 -4 23 -5 24 -12 5 -4 -11 -3 -30 1 -43 6 -17 6 -21
-2 -16 -8 5 -10 -1 -7 -19 3 -16 1 -24 -5 -20 -6 4 -8 -2 -5 -15 4 -12 2 -22
-3 -22 -4 0 -6 -6 -3 -13 2 -7 -4 -22 -16 -32 -21 -19 -28 -41 -9 -29 7 4 7
-2 -1 -17 -27 -50 -52 -79 -63 -72 -8 4 -8 1 1 -9 10 -13 10 -17 -3 -22 -9 -3
-13 -11 -9 -17 4 -7 3 -9 -3 -6 -6 4 -14 -4 -17 -18 -4 -14 -11 -23 -16 -20
-6 3 -10 -1 -10 -9 0 -8 -8 -20 -17 -25 -10 -6 -14 -11 -10 -11 5 0 -5 -12
-22 -26 -17 -14 -35 -23 -41 -19 -6 4 -7 -1 -3 -11 4 -11 2 -15 -4 -11 -10 7
-37 -16 -29 -24 2 -2 -3 -11 -12 -19 -14 -13 -15 -12 -9 5 6 16 3 14 -15 -6
-49 -55 -177 -125 -246 -134 -13 -2 -29 -8 -35 -14 -7 -5 -24 -7 -37 -4 -15 4
-21 2 -17 -4 20 -32 -284 -38 -403 -8 -83 21 -179 55 -186 66 -3 5 -14 9 -25
9 -11 0 -17 4 -14 10 3 6 -1 7 -9 4 -9 -4 -18 0 -22 9 -3 9 -23 23 -45 31 -22
9 -37 21 -34 26 3 6 -1 7 -10 4 -11 -5 -14 -2 -9 10 4 9 3 16 -2 14 -17 -4
-54 13 -49 23 4 5 2 9 -3 9 -18 0 -95 78 -88 89 5 7 2 10 -6 9 -7 -2 -12 3
-10 10 1 6 -2 12 -7 12 -5 0 -13 9 -16 20 -4 12 -11 17 -18 14 -7 -4 -9 -3 -4
1 4 5 0 16 -8 25 -9 10 -15 21 -13 26 2 5 -1 9 -5 9 -14 0 -45 68 -39 84 4 10
1 12 -9 6 -8 -4 -11 -5 -7 0 4 4 3 14 -3 22 -6 7 -8 13 -5 13 4 0 1 10 -5 22
-6 12 -14 38 -16 57 -2 20 -8 50 -13 66 -17 54 -22 148 -8 156 9 6 9 11 0 22
-7 7 -10 16 -7 19 3 2 8 36 11 74 3 38 11 72 16 75 6 4 7 12 4 18 -4 6 -2 11
5 11 6 0 9 8 6 20 -3 11 -1 18 3 15 5 -3 11 -1 15 5 3 5 1 10 -5 10 -7 0 -7 7
2 23 7 12 12 25 13 29 0 4 7 15 15 25 8 10 15 24 16 31 2 28 4 33 13 27 5 -3
12 -1 16 5 3 5 1 10 -6 10 -7 0 -4 7 7 16 10 8 13 12 5 8 -9 -5 -12 -3 -7 5 4
6 11 9 16 6 4 -3 10 5 14 18 9 36 128 158 210 215 42 29 76 50 76 46 0 -3 7
-1 15 6 8 6 19 9 25 5 5 -3 10 -1 10 6 0 7 3 9 7 6 3 -4 12 1 19 11 10 14 15
15 26 4 7 -7 9 -12 3 -11 -28 7 -210 -119 -285 -197 -36 -38 -69 -67 -75 -65
-5 1 -7 0 -3 -4 3 -3 -15 -41 -41 -83 -27 -42 -51 -87 -55 -99 -4 -13 -11 -23
-15 -23 -3 0 -7 -8 -8 -17 -3 -34 -16 -78 -25 -84 -17 -11 -24 -269 -9 -339 5
-25 7 -48 5 -52 -3 -4 2 -18 11 -31 9 -14 13 -32 9 -42 -5 -13 -4 -16 4 -11 7
4 12 1 12 -7 0 -7 14 -39 31 -70 17 -31 27 -61 24 -67 -4 -6 -2 -9 3 -8 5 2
30 -25 56 -59 131 -174 333 -299 545 -338 89 -16 282 -24 274 -11 -3 4 13 7
35 4 22 -2 38 0 36 3 -2 4 15 10 38 14 24 4 48 11 54 16 6 5 23 10 38 11 14 1
26 6 26 11 0 5 7 6 16 3 8 -3 12 -2 9 4 -3 6 1 10 10 10 10 0 13 -5 9 -12 -4
-8 -3 -10 2 -5 5 5 9 13 9 17 0 9 110 79 124 80 3 1 26 21 51 45 25 25 51 43
58 40 7 -3 10 0 7 5 -4 6 9 28 27 48 19 21 49 59 66 85 37 53 104 177 97 177
-3 0 1 15 8 33 8 18 17 58 21 90 4 31 10 59 14 61 7 4 -3 221 -11 276 -3 14
-14 47 -26 73 -12 27 -19 53 -16 57 3 5 2 10 -2 12 -5 1 -30 41 -58 88 -56 95
-218 267 -272 289 -18 7 -33 20 -33 28 0 8 -4 12 -9 9 -5 -3 -14 1 -21 9 -7 8
-16 12 -21 9 -5 -3 -24 6 -41 19 -18 14 -40 22 -48 20 -13 -4 -13 -3 0 6 14
10 17 9 59 -18z m-684 1 c-3 -3 -11 0 -18 7 -9 10 -8 11 6 5 10 -3 15 -9 12
-12z m-176 -156 c10 -12 8 -17 -9 -26 -20 -10 -21 -10 -11 8 6 11 7 22 4 26
-3 3 -4 6 -1 6 3 0 11 -6 17 -14z m1111 -98 c0 -6 -6 -5 -15 2 -8 7 -15 14
-15 16 0 2 7 1 15 -2 8 -4 15 -11 15 -16z m-1210 -10 c0 -4 -4 -8 -9 -8 -6 0
-12 4 -15 8 -3 5 1 9 9 9 8 0 15 -4 15 -9z m112 -1143 c13 -7 61 -33 107 -58
46 -24 79 -47 73 -51 -11 -7 -99 29 -124 52 -10 8 -18 12 -18 8 0 -4 -9 -2
-20 4 -11 6 -17 16 -14 22 4 6 3 8 -4 4 -6 -3 -17 3 -25 14 -7 11 -17 17 -20
14 -3 -4 -5 4 -4 15 1 20 3 21 14 5 6 -9 22 -22 35 -29z"/>
<path d="M820 1731 c-97 -26 -168 -57 -237 -104 -67 -44 -96 -79 -45 -53 16 8
34 22 41 30 8 9 22 16 33 16 10 0 16 4 13 10 -3 6 1 7 9 4 9 -3 16 -2 16 4 0
6 21 18 48 28 26 9 51 21 56 25 5 4 15 5 22 2 8 -3 14 -1 14 5 0 37 359 38
429 2 16 -8 51 -22 61 -24 20 -4 70 -30 71 -37 1 -5 2 -14 3 -21 1 -15 26 -23
26 -8 0 6 -4 9 -8 6 -5 -3 -9 1 -9 8 0 9 12 6 36 -10 41 -27 82 -58 64 -49 -7
3 -13 2 -13 -3 0 -14 25 -21 40 -12 18 11 7 24 -68 74 -84 55 -196 101 -282
115 -97 16 -245 12 -320 -8z"/>
<path d="M608 1603 c7 -3 16 -2 19 1 4 3 -2 6 -13 5 -11 0 -14 -3 -6 -6z"/>
<path d="M427 1489 c-171 -188 -215 -470 -114 -718 66 -158 240 -319 417 -385
40 -14 114 -34 166 -43 175 -31 375 8 524 102 67 42 191 174 236 251 55 94 76
171 81 309 5 113 2 141 -16 210 -26 96 -83 203 -143 266 -24 25 -42 43 -41 41
2 -3 -1 -10 -7 -16 -5 -7 -5 -17 2 -26 8 -12 9 -12 4 3 -5 15 -3 16 14 7 11
-6 20 -17 20 -24 0 -8 7 -19 15 -26 8 -7 15 -22 15 -34 0 -15 3 -17 9 -8 6 10
10 7 15 -13 4 -15 15 -35 24 -46 26 -27 62 -142 73 -230 18 -145 -31 -354 -96
-411 -11 -9 -16 -17 -11 -18 5 0 -6 -14 -25 -31 -19 -18 -27 -28 -19 -24 13 8
13 6 1 -8 -13 -16 -36 -14 -26 3 3 5 0 12 -7 16 -7 4 -10 4 -6 -1 4 -4 2 -15
-5 -23 -8 -11 -8 -14 0 -9 17 10 28 -12 13 -26 -10 -9 -11 -9 -6 1 4 6 5 12 1
12 -3 0 -10 -11 -15 -25 -5 -14 -16 -25 -25 -25 -8 0 -14 -3 -12 -7 1 -5 -1
-8 -5 -8 -3 0 -16 -13 -28 -28 -13 -16 -28 -26 -37 -23 -8 3 -11 1 -8 -4 8
-13 -175 -102 -198 -96 -10 2 -14 0 -11 -6 5 -7 -8 -8 -40 -4 -29 5 -46 3 -46
-3 0 -13 -212 -4 -248 11 -15 6 -33 10 -39 9 -7 -1 -13 3 -13 9 0 5 -3 9 -7 8
-20 -4 -85 16 -90 28 -3 8 -16 14 -28 14 -13 0 -25 5 -27 11 -2 5 -10 11 -18
13 -64 11 -176 111 -165 147 4 11 2 19 -5 19 -6 0 -9 -4 -6 -9 3 -5 -1 -14 -9
-21 -13 -11 -14 -10 -9 4 4 11 1 16 -10 16 -10 0 -23 15 -31 33 -8 17 -14 28
-15 22 -1 -35 -84 153 -100 230 -15 64 -14 219 1 282 15 63 79 204 90 197 5
-3 6 3 2 12 -5 13 -3 15 7 9 8 -5 11 -4 7 2 -4 6 5 21 18 33 14 13 25 29 25
36 0 7 23 25 50 40 28 15 48 29 46 31 -2 3 -17 -4 -33 -14 -25 -16 -27 -16
-14 0 8 10 9 17 3 17 -6 0 -35 -27 -65 -61z"/>
<path d="M260 1415 c-7 -9 -11 -17 -9 -20 3 -2 10 5 17 15 14 24 10 26 -8 5z"/>
<path d="M240 1370 c-8 -5 -12 -12 -9 -15 4 -3 12 1 19 10 14 17 11 19 -10 5z"/>
<path d="M1770 1335 c0 -5 5 -17 10 -25 5 -8 10 -10 10 -5 0 6 -5 17 -10 25
-5 8 -10 11 -10 5z"/>
<path d="M1792 1280 c0 -8 6 -31 13 -50 7 -19 13 -28 13 -20 0 8 -6 31 -13 50
-7 19 -13 28 -13 20z"/>
<path d="M454 1268 c-3 -4 -10 -6 -17 -4 -7 1 -9 1 -4 -1 11 -7 8 -31 -5 -36
-10 -4 -10 -7 0 -15 10 -7 12 -33 7 -113 -3 -57 -6 -110 -5 -116 2 -40 5 -53
13 -53 4 0 5 -4 2 -10 -4 -6 1 -7 11 -3 13 5 16 3 11 -10 -3 -9 -2 -19 4 -22
5 -4 8 -1 7 5 -2 9 30 12 117 13 88 0 123 4 133 14 9 9 18 10 26 5 19 -16 82
-23 110 -12 15 5 25 6 22 2 -2 -4 13 -7 35 -7 21 0 39 3 39 8 0 4 4 6 9 2 12
-7 61 15 61 28 0 6 3 7 7 4 9 -10 54 54 46 66 -3 6 -1 7 5 3 7 -4 12 -24 12
-45 0 -30 6 -42 25 -55 28 -18 39 -21 30 -6 -8 13 8 13 22 -1 7 -7 12 -6 16 5
5 13 -1 16 -33 16 l-40 0 0 160 0 160 38 0 37 0 0 -153 c1 -167 9 -199 47
-190 23 5 23 5 3 -10 -19 -16 -19 -16 5 -10 14 3 30 10 36 14 6 5 13 7 16 4 3
-3 13 5 24 17 10 12 13 18 7 14 -19 -11 -16 2 5 25 15 15 29 19 68 16 36 -2
48 -6 46 -16 -3 -12 0 -12 12 -1 11 8 16 9 16 1 0 -33 15 -58 43 -71 20 -10
20 -10 5 3 -24 19 -13 26 26 17 29 -6 36 -4 46 15 10 19 10 29 -2 53 -11 22
-12 35 -5 48 9 17 9 18 -6 5 -15 -12 -17 -12 -11 4 5 13 4 16 -5 10 -10 -6
-11 -3 -2 13 16 30 14 39 -4 16 -11 -14 -14 -15 -9 -3 3 10 0 20 -5 24 -6 3
-8 11 -5 17 4 6 2 8 -4 4 -6 -3 -14 4 -18 16 -13 44 -48 113 -64 126 -8 8 -10
11 -3 8 6 -4 14 -3 17 2 2 4 -23 8 -57 7 -52 0 -65 -4 -81 -23 -10 -13 -16
-26 -12 -29 3 -4 6 0 6 7 0 7 3 10 6 7 4 -4 2 -12 -4 -19 -18 -22 -63 -108
-57 -108 4 0 0 -7 -9 -15 -8 -9 -13 -22 -10 -30 4 -8 1 -15 -6 -15 -6 0 -9 -4
-5 -9 3 -5 1 -12 -5 -16 -10 -6 -20 26 -18 65 0 14 0 55 -1 92 -1 81 -14 99
-68 92 -48 -6 -53 -11 -55 -62 -1 -24 -5 -41 -10 -40 -5 2 -9 7 -8 12 3 14
-53 66 -64 59 -6 -4 -5 1 3 10 8 10 11 20 7 24 -3 3 -6 2 -6 -3 0 -6 -11 -10
-25 -10 -14 0 -25 4 -25 9 0 12 -191 5 -213 -8 -12 -7 -20 -7 -25 0 -8 12
-271 15 -278 3z m266 -49 l0 -30 -98 3 -97 3 3 -32 4 -33 79 0 79 0 0 -30 0
-30 -80 0 -80 0 0 -35 0 -35 95 0 95 0 0 -35 0 -35 -130 0 -129 0 -3 160 -3
160 133 0 132 0 0 -31z m292 6 c35 -25 68 -91 68 -135 0 -19 -9 -53 -21 -76
-30 -64 -79 -84 -202 -84 l-97 0 0 161 0 161 113 -4 c93 -2 117 -6 139 -23z
m504 -127 c38 -83 71 -155 72 -160 2 -4 -14 -8 -37 -8 -36 0 -41 3 -52 35
l-13 35 -79 0 -78 0 -15 -35 c-12 -31 -19 -35 -49 -35 -19 0 -35 3 -35 8 0 4
30 76 67 159 l68 153 41 0 40 0 70 -152z m-779 3 c0 -64 -3 -81 -16 -86 -9 -4
-21 1 -29 12 -11 15 -11 18 2 21 9 2 17 9 17 15 1 7 3 22 4 35 1 12 -2 25 -7
28 -4 3 -6 10 -2 15 3 5 2 9 -3 8 -29 -5 -33 4 -8 16 17 7 33 14 36 14 3 1 6
-35 6 -78z m-67 -61 c0 -5 -7 -6 -17 -3 -11 4 -14 3 -9 -5 5 -9 -5 -12 -34
-12 -26 0 -39 4 -35 10 4 6 14 8 23 6 10 -3 24 -1 32 4 19 13 40 13 40 0z
m620 -124 c0 -3 -4 -8 -10 -11 -5 -3 -10 -1 -10 4 0 6 5 11 10 11 6 0 10 -2
10 -4z"/>
<path d="M548 1103 c6 -2 18 -2 25 0 6 3 1 5 -13 5 -14 0 -19 -2 -12 -5z"/>
<path d="M613 1103 c9 -2 23 -2 30 0 6 3 -1 5 -18 5 -16 0 -22 -2 -12 -5z"/>
<path d="M472 1023 l-2 -73 92 0 c113 0 113 8 0 11 l-82 2 0 28 c0 16 8 33 18
39 15 10 15 11 0 6 -13 -4 -18 3 -21 27 -2 18 -5 -1 -5 -40z"/>
<path d="M504 982 c4 -8 37 -12 87 -12 51 0 78 -4 74 -10 -3 -5 -1 -10 4 -10
6 0 11 4 11 9 0 5 8 12 18 14 9 3 -24 5 -75 6 -50 0 -99 4 -109 8 -12 4 -15 3
-10 -5z"/>
<path d="M830 1095 l0 -95 64 0 c58 0 67 3 85 26 21 26 28 84 15 119 -10 25
-59 45 -114 45 l-50 0 0 -95z m94 62 c3 4 14 -1 24 -10 10 -10 21 -15 23 -13
2 2 4 -15 5 -39 0 -24 -3 -42 -8 -39 -4 3 -8 -2 -8 -10 0 -9 -8 -16 -17 -17
-10 0 -33 -2 -51 -5 l-33 -4 2 68 c1 37 3 70 6 74 2 4 14 3 27 -2 13 -5 27 -6
30 -3z"/>
<path d="M878 1143 c7 -3 16 -2 19 1 4 3 -2 6 -13 5 -11 0 -14 -3 -6 -6z"/>
<path d="M783 1010 c0 -36 2 -50 4 -32 2 17 2 47 0 65 -2 17 -4 3 -4 -33z"/>
<path d="M983 1013 c-31 -33 -34 -34 -100 -31 -57 3 -68 6 -67 20 1 10 -2 15
-6 13 -5 -3 -8 -14 -7 -25 1 -10 4 -17 8 -14 4 2 10 0 13 -5 4 -5 -2 -12 -11
-14 -11 -3 -7 -5 10 -6 18 -1 26 3 22 10 -4 6 2 5 14 -3 16 -10 23 -10 33 0
14 14 32 16 23 2 -3 -5 1 -10 10 -10 9 0 13 5 10 10 -3 6 -1 10 6 10 7 0 21 8
32 17 17 16 19 17 16 1 -2 -9 0 -16 6 -15 5 1 10 8 12 16 1 8 8 18 15 22 9 6
10 9 1 9 -7 0 -10 7 -7 15 8 21 4 18 -33 -22z"/>
<path d="M1383 1131 c-13 -32 -23 -61 -23 -65 0 -3 23 -6 50 -6 28 0 50 1 50
3 0 2 -8 21 -18 43 -10 21 -23 49 -28 61 -8 20 -11 16 -31 -36z m24 -36 c-15
-16 -19 -13 -11 9 3 9 10 13 15 10 5 -3 3 -11 -4 -19z"/>
<path d="M1346 1163 c-6 -14 -5 -15 5 -6 7 7 10 15 7 18 -3 3 -9 -2 -12 -12z"/>
<path d="M1287 1034 c-37 -76 -30 -78 10 -3 17 32 28 59 24 59 -4 0 -19 -25
-34 -56z"/>
<path d="M1321 1036 c-11 -12 -21 -26 -21 -30 0 -5 9 3 21 18 17 21 24 24 35
15 8 -7 16 -10 19 -8 2 3 -4 10 -14 16 -15 10 -23 8 -40 -11z"/>
<path d="M1410 1039 c0 -5 5 -7 10 -4 6 3 10 8 10 11 0 2 -4 4 -10 4 -5 0 -10
-5 -10 -11z"/>
<path d="M1296 1203 c-6 -14 -5 -15 5 -6 7 7 10 15 7 18 -3 3 -9 -2 -12 -12z"/>
<path d="M1818 1155 c2 -14 6 -25 8 -25 2 0 4 11 4 25 0 14 -4 25 -9 25 -4 0
-6 -11 -3 -25z"/>
<path d="M1833 1035 c0 -44 2 -61 4 -37 2 23 2 59 0 80 -2 20 -4 1 -4 -43z"/>
<path d="M161 1064 c0 -11 3 -14 6 -6 3 7 2 16 -1 19 -3 4 -6 -2 -5 -13z"/>
<path d="M160 990 c0 -29 3 -50 7 -46 7 7 5 87 -3 95 -2 2 -4 -20 -4 -49z"/>
<path d="M1143 985 c0 -22 2 -30 4 -17 2 12 2 30 0 40 -3 9 -5 -1 -4 -23z"/>
<path d="M1812 874 c-7 -37 -11 -68 -9 -71 6 -5 30 113 26 126 -3 7 -10 -18
-17 -55z"/>
<path d="M171 906 c-1 -23 30 -138 35 -133 2 2 -5 37 -15 78 -11 41 -20 65
-20 55z"/>
<path d="M216 740 c12 -48 91 -186 101 -176 3 2 -5 18 -17 34 -13 18 -19 35
-15 43 5 7 4 10 -2 6 -6 -4 -14 4 -17 18 -4 14 -11 25 -17 25 -6 0 -7 5 -4 10
3 6 1 10 -6 10 -6 0 -9 8 -6 20 3 11 1 18 -3 15 -5 -3 -11 1 -14 7 -3 7 -3 2
0 -12z"/>
<path d="M1766 715 c-10 -25 -22 -43 -27 -40 -5 4 -6 -1 -3 -10 4 -10 2 -15
-7 -13 -7 2 -14 -4 -15 -12 -4 -47 -4 -46 -15 -30 -9 13 -10 12 -5 -2 3 -11
-2 -22 -15 -28 -11 -6 -17 -15 -14 -21 4 -5 -1 -9 -10 -9 -9 0 -14 -4 -11 -9
3 -4 -3 -16 -14 -26 -27 -24 -26 -40 1 -17 50 41 172 242 156 258 -2 2 -12
-16 -21 -41z"/>
<path d="M1636 623 c-6 -14 -5 -15 5 -6 7 7 10 15 7 18 -3 3 -9 -2 -12 -12z"/>
<path d="M1609 583 c-13 -16 -12 -17 4 -4 16 13 21 21 13 21 -2 0 -10 -8 -17
-17z"/>
<path d="M531 551 c-9 -6 -10 -11 -2 -15 6 -4 11 -2 11 4 0 6 5 8 12 4 7 -4 8
-3 4 4 -8 14 -7 14 -25 3z"/>
<path d="M484 493 c6 -39 151 -127 287 -174 51 -18 92 -23 204 -25 88 -2 131
0 115 5 -14 5 -47 9 -75 10 -158 3 -346 62 -451 142 -81 61 -83 62 -80 42z"/>
<path d="M1450 440 c-8 -5 -12 -12 -9 -15 4 -3 12 1 19 10 14 17 11 19 -10 5z"/>
<path d="M1549 445 c-1 -3 -2 -9 -3 -15 -2 -15 -102 -80 -123 -80 -15 0 -15
-2 -4 -9 18 -11 133 67 137 93 2 14 -4 24 -7 11z"/>
<path d="M1340 375 c-36 -19 -61 -34 -57 -35 10 0 127 59 127 65 0 7 2 8 -70
-30z"/>
<path d="M1195 324 c-27 -8 -56 -12 -63 -9 -7 3 -10 0 -7 -5 9 -14 31 -12 95
10 64 21 48 24 -25 4z"/>
<path d="M190 671 c0 -6 4 -13 10 -16 6 -3 7 1 4 9 -7 18 -14 21 -14 7z"/>
<path d="M1428 283 c7 -3 16 -2 19 1 4 3 -2 6 -13 5 -11 0 -14 -3 -6 -6z"/>
<path d="M1650 1756 c0 -2 8 -10 18 -17 15 -13 16 -12 3 4 -13 16 -21 21 -21
13z"/>
<path d="M249 1663 c-13 -16 -12 -17 4 -4 9 7 17 15 17 17 0 8 -8 3 -21 -13z"/>
<path d="M433 202 c10 -10 14 -22 10 -27 -5 -4 -2 -5 5 -1 11 6 10 12 -4 27
-9 10 -19 19 -22 19 -3 0 2 -8 11 -18z"/>
<path d="M1576 208 c3 -5 10 -6 15 -3 13 9 11 12 -6 12 -8 0 -12 -4 -9 -9z"/>
<path d="M1562 194 c10 -10 20 -16 22 -13 3 3 -5 11 -17 18 -21 13 -21 12 -5
-5z"/>
</g>
</svg>
