<?xml version="1.0" encoding="UTF-8"?>
<svg width="561px" height="561px" viewBox="0 0 561 561" version="1.1" xmlns="http://www.w3.org/2000/svg" xmlns:xlink="http://www.w3.org/1999/xlink">
    <title>Logo Round</title>
    <defs>
        <path d="M193.233868,14.9831177 C227.898082,-4.98952754 270.606543,-4.9895089 305.270757,14.9831177 L442.185436,93.8696409 C476.849649,113.842342 498.20388,150.753265 498.20388,190.698108 L498.20388,348.470894 C498.20388,388.416296 476.849649,425.327965 442.185436,445.300666 L305.270757,524.187059 C270.606543,544.15976 227.898082,544.15976 193.233868,524.187059 L56.319936,445.300666 C21.6557227,425.327965 0.301562787,388.416296 0.301562787,348.470894 L0.301562787,190.698108 C0.301562787,150.753079 21.6557227,113.842156 56.319936,93.8696409 L193.233868,14.9831177 Z" id="path-1"></path>
    </defs>
    <g id="Logo-Round" stroke="none" stroke-width="1" fill="none" fill-rule="evenodd">
        <g id="rescua-earth-logo" transform="translate(31.000000, 10.000000)">
            <g id="New" transform="translate(0.722278, 0.613047)">
                <g id="Logo-Background" transform="translate(0.170579, 0.280685)">
                    <mask id="mask-2" fill="white">
                        <use xlink:href="#path-1"></use>
                    </mask>
                    <g id="Path"></g>
                    <path d="M193.233868,14.9794839 C227.898082,-4.99316131 270.606543,-4.99316131 305.270757,14.9794839 L442.185436,93.8659139 C476.849649,113.838615 498.20388,150.749538 498.20388,190.694382 L498.20388,348.467167 C498.20388,388.412569 476.849649,425.324238 442.185436,445.296939 L305.270757,524.183332 C270.606543,544.156033 227.898082,544.156033 193.233868,524.183332 L56.319936,445.296939 C21.6557227,425.324238 0.301562787,388.412569 0.301562787,348.467167 L0.301562787,190.694382 C0.301562787,150.749538 21.6557227,113.838615 56.319936,93.8659139 L193.233868,14.9794839 Z" id="Path" fill="#4EBCED" fill-rule="nonzero" mask="url(#mask-2)"></path>
                    <ellipse id="Oval" fill="#7BD246" fill-rule="nonzero" mask="url(#mask-2)" cx="192.765181" cy="389.694639" rx="273.784544" ry="273.226104"></ellipse>
                </g>
            </g>
        </g>
        <g id="EPC-Logo" transform="translate(138.000000, 111.109126)" fill="#FFFFFF">
            <path d="M211.186299,0 L211.186299,46.4912281 L93.2038428,46.4912281 L92.5409137,46.4962625 C85.4868537,46.6036629 78.9826839,48.4294701 73.0284042,51.9736842 C66.8880534,55.628655 61.9903925,60.5263158 58.3354218,66.6666667 C54.680451,72.8070175 52.8529656,79.8245614 52.8529656,87.7192982 C52.8529656,94.7368421 54.7535504,101.315789 58.55472,107.45614 C62.3558896,113.596491 67.3266499,118.494152 73.4670007,122.149123 C79.6073516,125.804094 86.4786966,127.631579 94.0810358,127.631579 L94.0810358,127.631579 L195.835422,127.631579 L195.835422,174.122807 L96.7126148,174.122807 L96.0036199,174.127292 C87.5225926,174.234939 80.0103862,176.280228 73.4670007,180.263158 C66.7418545,184.356725 61.5517961,189.692982 57.8968253,196.27193 C54.2418545,202.850877 52.4143692,210.087719 52.4143692,217.982456 C52.4143692,225.584795 54.2418545,232.675439 57.8968253,239.254386 C61.5517961,245.833333 66.6687551,251.096491 73.2477025,255.04386 C79.8266499,258.991228 87.3558896,260.964912 95.8354218,260.964912 L95.8354218,260.964912 L176.851445,260.964849 C187.296314,259.116237 198.72668,253.784549 211.142544,244.969786 L212.532383,243.971498 C212.830718,243.754746 213.127795,243.544783 213.423616,243.341612 L213.678356,243.148883 L214.449039,242.578967 C238.795448,224.890265 272.55174,229.8471 289.845826,253.650368 C307.139913,277.453636 301.422875,311.089523 277.076466,328.778225 C266.599038,336.390522 254.378906,339.80888 242.478079,339.336087 C229.878188,338.835522 217.636216,333.973242 208.19931,325.10859 C207.604652,324.71035 207.008515,324.284816 206.411373,323.831086 L205.764076,323.328514 C191.946683,312.371667 179.388167,307.198996 168.088529,307.810501 L164.814069,307.27148 L164.821387,307.017 L89.2564744,307.017544 L88.365512,307.013832 C71.7644526,306.875237 56.8567617,302.856007 43.6424393,294.95614 C30.1921469,286.915205 19.5927317,276.096491 11.8441937,262.5 C4.0956557,248.903509 0.221386696,233.918129 0.221386696,217.54386 C0.221386696,204.678363 3.21846272,192.47076 9.21261477,180.921053 C15.2067668,169.371345 23.6131996,159.649123 34.431913,151.754386 C23.6131996,143.859649 15.2798662,134.283626 9.43191301,123.026316 C3.5839598,111.769006 0.659983187,100 0.659983187,87.7192982 C0.659983187,71.3450292 4.53425219,56.5789474 12.2827902,43.4210526 C20.0313282,30.2631579 30.4845446,19.7368421 43.6424393,11.8421053 C56.8003341,3.94736842 71.4202171,0 87.5020885,0 L87.5020885,0 L211.186299,0 Z M217.527183,275.994571 L217.37022,276.439236 L217.139748,277.217818 C214.443421,286.845206 217.089745,297.337668 224.176627,304.920034 C231.455047,312.707329 242.311534,316.242024 252.656553,314.192634 C263.001573,312.143244 271.263472,304.82112 274.33098,294.984737 C278.72948,280.376173 269.160286,262.68382 254.431189,258.07454 C238.888816,253.546668 222.81627,261.388746 217.527183,275.994571 Z" id="Combined-Shape"></path>
        </g>
    </g>
</svg>