<?xml version="1.0" encoding="UTF-8"?>
<svg version="1.1" xmlns="http://www.w3.org/2000/svg" width="200" height="200">
<path d="M0 0 C2.86218884 1.47066314 4.82952626 3.58762022 7.07392883 5.87467957 C7.96596008 6.770578 8.85799133 7.66647644 9.77705383 8.58952332 C11.82392883 10.93717957 11.82392883 10.93717957 11.82392883 12.93717957 C12.48392883 12.93717957 13.14392883 12.93717957 13.82392883 12.93717957 C13.82392883 13.59717957 13.82392883 14.25717957 13.82392883 14.93717957 C14.81392883 15.26717957 15.80392883 15.59717957 16.82392883 15.93717957 C16.82392883 16.59717957 16.82392883 17.25717957 16.82392883 17.93717957 C18.30892883 18.43217957 18.30892883 18.43217957 19.82392883 18.93717957 C21.13838196 20.28385925 21.13838196 20.28385925 22.60517883 22.10905457 C26.08147704 26.21108645 29.81884654 29.95661794 33.66767883 33.70280457 C34.28522034 34.30757629 34.90276184 34.91234802 35.53901672 35.53544617 C38.12575728 38.06856606 40.71418794 40.59950264 43.32099915 43.11198425 C45.23960126 44.96432975 47.14217903 46.83191523 49.04267883 48.70280457 C49.63834656 49.26952881 50.23401428 49.83625305 50.84773254 50.42015076 C52.47822571 52.03971863 52.47822571 52.03971863 54.82392883 54.93717957 C54.3986173 59.18758339 51.94715116 61.19483801 48.82392883 63.93717957 C48.16392883 63.93717957 47.50392883 63.93717957 46.82392883 63.93717957 C46.74916321 64.71061707 46.67439758 65.48405457 46.59736633 66.28092957 C45.65016452 73.78425377 44.05873405 78.47160567 38.82392883 83.93717957 C38.3199054 84.53788269 37.81588196 85.13858582 37.29658508 85.75749207 C33.76906429 89.46613251 31.000947 90.35171237 25.88642883 90.49967957 C18.13219596 90.06459169 12.13984602 88.11495121 6.36689758 82.80436707 C2.63245095 78.28521393 1.03420086 73.00485448 0.44892883 67.24967957 C0.82392883 63.93717957 0.82392883 63.93717957 1.88642883 60.49967957 C3.23140374 55.38877491 2.51477504 51.27542825 1.01142883 46.18717957 C0.94955383 45.44467957 0.88767883 44.70217957 0.82392883 43.93717957 C2.76142883 41.81217957 2.76142883 41.81217957 4.82392883 39.93717957 C4.82392883 38.94717957 4.82392883 37.95717957 4.82392883 36.93717957 C-0.26104758 35.69592856 -0.26104758 35.69592856 -5.17607117 36.93717957 C-5.82820408 38.96181212 -5.82820408 38.96181212 -6.17607117 40.93717957 C-5.18607117 41.59717957 -4.19607117 42.25717957 -3.17607117 42.93717957 C-3.94052513 50.45431019 -3.94052513 50.45431019 -5.42607117 53.49967957 C-6.40390067 56.67762545 -5.33035231 58.10026293 -3.92607117 60.98405457 C-2.04906793 65.87208383 -2.78706899 70.6837281 -4.30107117 75.56217957 C-7.84282503 81.93733651 -11.58587802 86.60446298 -18.55888367 89.25749207 C-23.90259778 90.6452626 -28.75171987 91.13748947 -34.17607117 89.93717957 C-40.92319865 85.79953715 -45.2182322 80.45472573 -47.86357117 72.99967957 C-48.32203859 69.97379459 -48.23479574 66.99085727 -48.17607117 63.93717957 C-49.01138367 63.84436707 -49.01138367 63.84436707 -49.86357117 63.74967957 C-53.23409129 62.56544277 -54.94481797 60.6784335 -57.17607117 57.93717957 C-57.06062372 53.74303216 -53.96620273 51.29083063 -51.16899109 48.51017761 C-50.64857742 47.9812944 -50.12816376 47.45241119 -49.59197998 46.90750122 C-47.87126805 45.16340859 -46.13959328 43.43072239 -44.40653992 41.69889832 C-43.20656172 40.49182107 -42.00688415 39.28444489 -40.80749512 38.07678223 C-38.29319296 35.54903412 -35.77302924 33.0273042 -33.24906921 30.50920105 C-30.01041162 27.27645062 -26.79040385 24.02579771 -23.57496166 20.76997662 C-21.10349292 18.27270671 -18.62069477 15.78694823 -16.13446999 13.3043766 C-14.94196363 12.11017302 -13.75345471 10.91196412 -12.56900597 9.7097683 C-10.91473336 8.03344832 -9.24546379 6.37366561 -7.57133484 4.71720886 C-7.08234711 4.21495789 -6.59335938 3.71270691 -6.08955383 3.19523621 C-2.73334653 -0.07890827 -2.73334653 -0.07890827 0 0 Z M-4.27680969 7.79740906 C-5.14284821 8.66788879 -6.00888672 9.53836853 -6.90116882 10.43522644 C-7.37938583 10.9131514 -7.85760284 11.39107635 -8.35031128 11.88348389 C-9.93503641 13.46960605 -11.51255421 15.06270262 -13.09013367 16.65592957 C-14.1854315 17.7549562 -15.28117076 18.85354305 -16.37733459 19.95170593 C-19.26530381 22.84732206 -22.14721771 25.74889352 -25.02793884 28.65171814 C-27.96693287 31.61114785 -30.9115762 34.56494437 -33.85575867 37.51921082 C-39.63476091 43.31968161 -45.40738241 49.12645179 -51.17607117 54.93717957 C-50.86927429 55.55077332 -50.56247742 56.16436707 -50.24638367 56.79655457 C-48.71122742 59.86686707 -48.71122742 59.86686707 -47.17607117 62.93717957 C-46.82544617 61.76155457 -46.47482117 60.58592957 -46.11357117 59.37467957 C-43.77746619 53.17796918 -39.43246649 48.94037723 -33.55107117 45.99967957 C-29.63785852 43.60827183 -28.53498585 41.45110556 -26.36357117 37.55827332 C-25.97169617 37.02331238 -25.57982117 36.48835144 -25.17607117 35.93717957 C-22.55107117 35.74967957 -22.55107117 35.74967957 -20.17607117 35.93717957 C-18.47635092 33.63237669 -18.47635092 33.63237669 -17.17607117 30.93717957 C-16.17607117 29.93717957 -15.17607117 28.93717957 -14.17607117 27.93717957 C-13.66044617 27.07092957 -13.14482117 26.20467957 -12.61357117 25.31217957 C-11.17607117 22.93717957 -11.17607117 22.93717957 -9.17607117 21.93717957 C-6.53489427 21.76013364 -3.9441052 21.65976409 -1.30107117 21.62467957 C-0.58048523 21.59567566 0.14010071 21.56667175 0.88252258 21.53678894 C4.42466207 21.49438764 6.4141184 21.62949649 9.28486633 23.78483582 C11.01201118 26.20020843 11.49834667 28.00694012 11.82392883 30.93717957 C12.81392883 30.93717957 13.80392883 30.93717957 14.82392883 30.93717957 C15.44267883 31.74155457 16.06142883 32.54592957 16.69892883 33.37467957 C18.53505149 36.1818989 18.53505149 36.1818989 21.26142883 36.24967957 C23.82392883 36.93717957 23.82392883 36.93717957 24.90205383 38.55436707 C25.26814758 39.23757019 25.63424133 39.92077332 26.01142883 40.62467957 C28.09688188 44.35201311 30.0724805 45.91973402 33.82392883 47.93717957 C38.98815318 50.74215261 41.1946261 53.7990838 43.82392883 58.93717957 C44.48392883 59.92717957 45.14392883 60.91717957 45.82392883 61.93717957 C46.11267883 61.31842957 46.40142883 60.69967957 46.69892883 60.06217957 C47.82392883 57.93717957 47.82392883 57.93717957 49.82392883 55.93717957 C43.34514649 49.41213444 36.86103459 42.89244703 30.36998177 36.37960815 C27.35636191 33.35553411 24.3446375 30.32962076 21.33711243 27.29948425 C18.43668918 24.37739082 15.53146151 21.46015594 12.62278366 18.54627991 C11.51181532 17.43160531 10.40261389 16.31516691 9.29518509 15.19697571 C7.74831847 13.63567158 6.19538791 12.08065744 4.64082336 10.52702332 C3.31511826 9.19465637 3.31511826 9.19465637 1.96263123 7.83537292 C-0.91100563 5.28489259 -1.3996969 5.24969072 -4.27680969 7.79740906 Z M-10.17607117 26.93717957 C-10.40216453 29.06082438 -10.40216453 29.06082438 -8.67607117 30.56217957 C-8.18107117 31.01592957 -7.68607117 31.46967957 -7.17607117 31.93717957 C-6.18607117 31.60717957 -5.19607117 31.27717957 -4.17607117 30.93717957 C-4.17607117 28.95717957 -4.17607117 26.97717957 -4.17607117 24.93717957 C-7.36097123 24.65982947 -7.36097123 24.65982947 -10.17607117 26.93717957 Z M1.82392883 24.93717957 C1.16392883 25.59717957 0.50392883 26.25717957 -0.17607117 26.93717957 C0.48392883 26.93717957 1.14392883 26.93717957 1.82392883 26.93717957 C1.49392883 28.25717957 1.16392883 29.57717957 0.82392883 30.93717957 C3.22112315 31.61676559 3.22112315 31.61676559 5.82392883 31.93717957 C6.48392883 31.27717957 7.14392883 30.61717957 7.82392883 29.93717957 C7.50541113 27.8289716 7.50541113 27.8289716 6.82392883 25.93717957 C4.42673451 25.25759354 4.42673451 25.25759354 1.82392883 24.93717957 Z M-15.17607117 33.93717957 C-15.17607117 35.25717957 -15.17607117 36.57717957 -15.17607117 37.93717957 C-13.85607117 38.26717957 -12.53607117 38.59717957 -11.17607117 38.93717957 C-12.48502837 35.81520479 -12.48502837 35.81520479 -15.17607117 33.93717957 Z M9.82392883 35.93717957 C10.15392883 36.92717957 10.48392883 37.91717957 10.82392883 38.93717957 C11.81392883 38.27717957 12.80392883 37.61717957 13.82392883 36.93717957 C12.50392883 36.60717957 11.18392883 36.27717957 9.82392883 35.93717957 Z M-17.17607117 43.93717957 C-17.50607117 45.25717957 -17.83607117 46.57717957 -18.17607117 47.93717957 C-17.51607117 47.60717957 -16.85607117 47.27717957 -16.17607117 46.93717957 C-16.50607117 45.94717957 -16.83607117 44.95717957 -17.17607117 43.93717957 Z M13.82392883 43.93717957 C14.48392883 45.25717957 15.14392883 46.57717957 15.82392883 47.93717957 C15.49392883 46.61717957 15.16392883 45.29717957 14.82392883 43.93717957 C14.49392883 43.93717957 14.16392883 43.93717957 13.82392883 43.93717957 Z M-36.68778992 56.37077332 C-40.81880988 61.11730342 -41.59588601 64.74491058 -41.17607117 70.93717957 C-39.10452357 76.21962593 -36.63174078 79.73789906 -31.48857117 82.24967957 C-25.70966337 83.44907552 -21.04831464 82.90797248 -15.80107117 80.18717957 C-12.22157624 77.11904106 -10.3879751 75.16721624 -9.92997742 70.34733582 C-9.81766063 65.42521776 -9.84164471 61.37938913 -12.17607117 56.93717957 C-19.24703523 51.29368712 -29.76048494 49.8014686 -36.68778992 56.37077332 Z M12.24580383 56.40592957 C8.38984399 60.92671008 7.46846545 63.84140622 7.54267883 69.62077332 C8.10477661 74.25027303 10.91398344 76.94694487 13.94892883 80.24967957 C18.57339744 82.96404158 23.61711984 83.62348528 28.88642883 82.49577332 C33.05079842 80.92515979 35.4332132 78.61520362 37.82392883 74.93717957 C39.36189591 70.32327833 39.74622287 65.55368765 38.10517883 60.89811707 C36.03130473 56.96779115 33.91993646 54.61281905 29.82392883 52.93717957 C23.29137413 51.43790472 17.39491576 51.61368678 12.24580383 56.40592957 Z " fill="#F2B61C" transform="translate(101.17607116699219,33.06282043457031)"/>
<path d="M0 0 C1 1 1 1 1.0625 3.5625 C1.041875 4.366875 1.02125 5.17125 1 6 C-0.32 6.33 -1.64 6.66 -3 7 C-3.66 6.01 -4.32 5.02 -5 4 C-6.32 4.33 -7.64 4.66 -9 5 C-10.05404945 8.98196457 -9.84098656 11.98195309 -9 16 C-5.16774573 16.08912219 -1.73437848 15.87867729 2 15 C1.6596875 13.453125 1.6596875 13.453125 1.3125 11.875 C0.95105058 7.39302717 1.42819239 5.65030757 4 2 C7.41234859 -0.40415469 9.38189691 -1 13.5625 -1 C17.86635918 0.25203176 19.48577015 1.26674962 22 5 C22.89882141 9.80159857 22.70255412 13.65109608 20.4375 18 C17.27400696 20.59568659 15.063143 21.44906536 11 22 C7.41851288 21.10462822 4.63175142 19.63175142 2 17 C1.525625 17.66 1.05125 18.32 0.5625 19 C-2.69551869 21.54284385 -4.76072021 21.64260974 -8.80859375 21.44921875 C-12.44553066 20.7036791 -13.92700585 18.9799291 -16 16 C-17.376325 12.04306561 -17.1048145 10.30920277 -15.75 6.3125 C-11.76291536 -1.23448164 -7.89809593 -1.27388644 0 0 Z M10 3 C7.53773546 5.46226454 7.30624772 6.5547132 7 10 C7.86429586 13.73552029 7.86429586 13.73552029 9 17 C11.39719432 17.67958603 11.39719432 17.67958603 14 18 C16.21559352 16.19802328 16.21559352 16.19802328 16.265625 13.72265625 C16.26046875 12.84480469 16.2553125 11.96695313 16.25 11.0625 C16.25773437 9.74958984 16.25773437 9.74958984 16.265625 8.41015625 C16.15833837 5.73894366 16.15833837 5.73894366 14 3 C12.68 3 11.36 3 10 3 Z " fill="#F1B217" transform="translate(133,163)"/>
<path d="M0 0 C0.969375 -0.185625 1.93875 -0.37125 2.9375 -0.5625 C6.36222315 -1.05174616 7.05641592 -0.47179204 10 1 C11.34187818 0.3507041 12.67479497 -0.31731862 14 -1 C16.66947196 -0.80467278 18.39698744 -0.39339391 20.640625 1.0703125 C22.74564868 4.05847829 22.31529313 7.17810409 22.1875 10.6875 C22.16719727 11.7403418 22.16719727 11.7403418 22.14648438 12.81445312 C22.11120182 14.54329829 22.05739583 16.27174765 22 18 C22.66 18 23.32 18 24 18 C24 18.99 24 19.98 24 21 C20.7 21 17.4 21 14 21 C14.33 20.01 14.66 19.02 15 18 C15.06937062 15.77181559 15.08457084 13.54165476 15.0625 11.3125 C15.05347656 10.13300781 15.04445312 8.95351562 15.03515625 7.73828125 C15.02355469 6.83464844 15.01195312 5.93101562 15 5 C14.01 5 13.02 5 12 5 C11.67 9.29 11.34 13.58 11 18 C11.66 18 12.32 18 13 18 C13 18.99 13 19.98 13 21 C9.7 21 6.4 21 3 21 C3 20.01 3 19.02 3 18 C3.66 18 4.32 18 5 18 C4.67 13.71 4.34 9.42 4 5 C3.01 5 2.02 5 1 5 C0.67 9.29 0.34 13.58 0 18 C0.66 18 1.32 18 2 18 C2 18.99 2 19.98 2 21 C-1.3 21 -4.6 21 -8 21 C-8 20.01 -8 19.02 -8 18 C-7.34 18 -6.68 18 -6 18 C-6 13.38 -6 8.76 -6 4 C-6.66 4 -7.32 4 -8 4 C-8 3.01 -8 2.02 -8 1 C-3.375 -1.125 -3.375 -1.125 0 0 Z " fill="#F0B218" transform="translate(163,163)"/>
<path d="M0 0 C3.52016887 3.07078561 5.15052305 5.34083918 5.9375 9.9375 C6.2727137 15.10373466 5.05249968 19.25932745 2.375 23.6875 C-1.44194357 27.40399769 -5.6461657 29.80384714 -11 30.25 C-11.66 30.1675 -12.32 30.085 -13 30 C-13 29.01 -13 28.02 -13 27 C-11.88625 26.5875 -10.7725 26.175 -9.625 25.75 C-7.00679305 24.64453484 -6.16506911 24.25119213 -4.5625 21.8125 C-4.376875 21.214375 -4.19125 20.61625 -4 20 C-5.2375 19.938125 -6.475 19.87625 -7.75 19.8125 C-10.96580439 19.39056822 -11.89855843 19.08368929 -14.5 16.9375 C-16.40340713 13.20999438 -16.93412564 10.05315532 -16 6 C-12.29767087 -0.55679663 -7.12406954 -2.22193202 0 0 Z M-8 3 C-10.46324069 6.69486103 -10.38991688 8.63293092 -10 13 C-9.03882095 15.12870693 -9.03882095 15.12870693 -7 16 C-3.85078091 15.76716851 -3.85078091 15.76716851 -1 15 C0.6442351 10.06729471 -0.81384408 7.45975807 -3 3 C-5.41619823 2.74969023 -5.41619823 2.74969023 -8 3 Z " fill="#F1B217" transform="translate(105,155)"/>
<path d="M0 0 C0 0.99 0 1.98 0 3 C-1.0725 3.37125 -2.145 3.7425 -3.25 4.125 C-7.40304256 5.86877243 -8.8458783 8.12258093 -11 12 C-10.39671875 11.95359375 -9.7934375 11.9071875 -9.171875 11.859375 C-2.69314079 11.566787 -2.69314079 11.566787 0.5 13.5625 C2.53026534 16.86168118 3 19.12070251 3 23 C1.31019774 26.44459692 -0.04803083 28.40823538 -3.3125 30.4375 C-6.89300387 31.18690779 -9.4582683 30.90153171 -13 30 C-16.30431147 27.39133305 -17.72743583 25.26541037 -18.23828125 21.01953125 C-18.4360075 15.13977692 -17.4418178 10.83117544 -14 6 C-9.78439884 1.564263 -6.11750076 -0.16533786 0 0 Z M-12 17 C-11.84898631 22.59613999 -11.84898631 22.59613999 -9 27 C-6.39719432 26.67958603 -6.39719432 26.67958603 -4 26 C-2.9910966 21.76353233 -2.9910966 21.76353233 -3.9375 17.625 C-4.288125 17.08875 -4.63875 16.5525 -5 16 C-8.80621045 15.56152641 -8.80621045 15.56152641 -12 17 Z " fill="#F1B217" transform="translate(87,154)"/>
<path d="M0 0 C0.66 0.66 1.32 1.32 2 2 C1.625 4.125 1.625 4.125 1 6 C-0.32 6 -1.64 6 -3 6 C-3 5.34 -3 4.68 -3 4 C-4.65 4.66 -6.3 5.32 -8 6 C-8.33 8.97 -8.66 11.94 -9 15 C-7.35 15 -5.7 15 -4 15 C-4 15.99 -4 16.98 -4 18 C-5.65 18 -7.3 18 -9 18 C-9 22.95 -9 27.9 -9 33 C-8.01 33 -7.02 33 -6 33 C-6 33.99 -6 34.98 -6 36 C-9.63 36 -13.26 36 -17 36 C-17 35.01 -17 34.02 -17 33 C-16.34 33 -15.68 33 -15 33 C-15 28.05 -15 23.1 -15 18 C-15.99 18 -16.98 18 -18 18 C-18 17.01 -18 16.02 -18 15 C-17.01 15 -16.02 15 -15 15 C-14.938125 13.80375 -14.87625 12.6075 -14.8125 11.375 C-14.23148196 6.5645124 -12.38695459 4.38695459 -9 1 C-5.98675805 -0.50662097 -3.31713623 -0.17770373 0 0 Z " fill="#EFB118" transform="translate(39,148)"/>
<path d="M0 0 C1.9375 1.125 1.9375 1.125 3 3 C3.1875 6.6875 3.1875 6.6875 3 10 C-1.29 10 -5.58 10 -10 10 C-9.01 11.98 -8.02 13.96 -7 16 C-3.53058454 15.54177532 -0.32604951 15.10868317 3 14 C2.6875 16.375 2.6875 16.375 2 19 C-2.02951778 21.68634518 -5.26712146 21.78881309 -10 21 C-12.99540063 19.00306625 -14.49113042 17.54887179 -15.625 14.09765625 C-16.28921686 10.49289599 -16.06903367 8.2152226 -14.9375 4.6875 C-10.89620789 -0.91816325 -6.51503486 -1.7209526 0 0 Z M-8 3 C-8.33 3.99 -8.66 4.98 -9 6 C-6.69 6 -4.38 6 -2 6 C-2.33 5.01 -2.66 4.02 -3 3 C-4.65 3 -6.3 3 -8 3 Z " fill="#F0B116" transform="translate(50,163)"/>
<path d="M0 0 C4.45978075 -0.37471526 4.45978075 -0.37471526 6.8527832 1.28515625 C7.41312256 1.87167969 7.97346191 2.45820312 8.55078125 3.0625 C9.16630859 3.69414063 9.78183594 4.32578125 10.41601562 4.9765625 C11.04185547 5.64429688 11.66769531 6.31203125 12.3125 7 C12.95767578 7.66773438 13.60285156 8.33546875 14.26757812 9.0234375 C15.85688927 10.67161203 17.43337902 12.33029098 19 14 C21.8145641 12.72788489 23.75885143 11.45629683 25.83984375 9.1796875 C26.34580078 8.64472656 26.85175781 8.10976562 27.37304688 7.55859375 C28.41811618 6.4339374 29.45718373 5.30367475 30.49023438 4.16796875 C34.38690598 0.07819652 34.38690598 0.07819652 37.87890625 -0.3671875 C38.57886719 -0.24601562 39.27882812 -0.12484375 40 0 C40 3 40 3 38.63671875 4.4375 C37.67185547 5.2109375 37.67185547 5.2109375 36.6875 6 C32.9264185 9.13986157 29.44437101 12.460123 26 15.9375 C25.50717529 16.43443359 25.01435059 16.93136719 24.5065918 17.44335938 C23.33568453 18.62688819 22.1675374 19.81314672 21 21 C17.66765426 19.54758264 15.45774394 17.7149914 12.890625 15.15625 C12.13652344 14.40472656 11.38242188 13.65320313 10.60546875 12.87890625 C9.82816406 12.09386719 9.05085938 11.30882812 8.25 10.5 C7.45722656 9.71496094 6.66445312 8.92992187 5.84765625 8.12109375 C5.09871094 7.36957031 4.34976563 6.61804688 3.578125 5.84375 C2.89137695 5.15474609 2.20462891 4.46574219 1.49707031 3.75585938 C0 2 0 2 0 0 Z " fill="#F3B518" transform="translate(80,124)"/>
<path d="M0 0 C0 1.32 0 2.64 0 4 C1.65 4 3.3 4 5 4 C4.67 5.32 4.34 6.64 4 8 C2.68 8 1.36 8 0 8 C0 12.29 0 16.58 0 21 C1.65 20.67 3.3 20.34 5 20 C5 21.32 5 22.64 5 24 C1.95699684 25.52150158 -0.654085 25.23899393 -4 25 C-6.45391569 21.31912647 -6.22802759 18.55644412 -6.125 14.3125 C-6.11597656 13.61060547 -6.10695312 12.90871094 -6.09765625 12.18554688 C-6.07413704 10.45688475 -6.03826713 8.72839855 -6 7 C-6.99 7 -7.98 7 -9 7 C-9 6.34 -9 5.68 -9 5 C-3.64285714 0 -3.64285714 0 0 0 Z " fill="#F0B117" transform="translate(63,159)"/>
<path d="M0 0 C3.56917061 1.5414201 6.08217769 3.69475459 8.9375 6.3125 C10.24654297 7.51132812 10.24654297 7.51132812 11.58203125 8.734375 C14.11347266 11.10632333 16.58785101 13.50744604 19 16 C18.67 16.99 18.34 17.98 18 19 C10.64122398 15.86292542 4.75318526 8.28647083 0 2 C0 1.34 0 0.68 0 0 Z " fill="#F1B317" transform="translate(53,31)"/>
<path d="M0 0 C-1.64562575 4.04103364 -4.49232891 6.93301573 -7.4375 10.0625 C-7.92798828 10.59166016 -8.41847656 11.12082031 -8.92382812 11.66601562 C-11.23856233 14.15568251 -13.57146245 16.62085643 -16 19 C-16.99 18.67 -17.98 18.34 -19 18 C-16.61744788 12.41114105 -6.56174385 0 0 0 Z " fill="#F4B81B" transform="translate(147,31)"/>
<path d="M0 0 C0.66 0 1.32 0 2 0 C2.88277755 4.51815281 3.10589503 8.77512694 3.0625 13.375 C3.05347656 14.62023438 3.04445313 15.86546875 3.03515625 17.1484375 C3.02355469 18.08945312 3.01195313 19.03046875 3 20 C1.68 20 0.36 20 -1 20 C-0.67 13.4 -0.34 6.8 0 0 Z " fill="#F2B416" transform="translate(99,9)"/>
<path d="M0 0 C5.13829895 4.38266675 8.23886797 9.87047667 11 16 C11 16.99 11 17.98 11 19 C9.12011719 18.70458984 9.12011719 18.70458984 7 18 C5.5499217 15.53015119 4.37978361 13.23368491 3.25 10.625 C2.93417969 9.93921875 2.61835937 9.2534375 2.29296875 8.546875 C0.94513616 5.54780161 0 3.32171498 0 0 Z " fill="#F1B215" transform="translate(74,18)"/>
<path d="M0 0 C6.61242722 1.82221376 12.80520671 4.05223604 19 7 C19 7.99 19 8.98 19 10 C14.01400883 9.46199791 10.48164295 7.88255471 6.125 5.4375 C4.97257812 4.79683594 3.82015625 4.15617187 2.6328125 3.49609375 C1.76398437 3.00238281 0.89515625 2.50867187 0 2 C0 1.34 0 0.68 0 0 Z " fill="#F1B317" transform="translate(42,52)"/>
<path d="M0 0 C-1.20930355 3.62791065 -2.56510005 4.0946994 -5.86914062 5.75195312 C-6.83110352 6.21504883 -6.83110352 6.21504883 -7.8125 6.6875 C-8.44220703 7.00783203 -9.07191406 7.32816406 -9.72070312 7.65820312 C-13.13416964 9.3380728 -15.12193963 10 -19 10 C-19 9.01 -19 8.02 -19 7 C-16.2100561 5.82905995 -13.41821403 4.66309073 -10.625 3.5 C-9.43390625 2.99919922 -9.43390625 2.99919922 -8.21875 2.48828125 C-7.45820313 2.17246094 -6.69765625 1.85664062 -5.9140625 1.53125 C-5.2123291 1.23798828 -4.5105957 0.94472656 -3.78759766 0.64257812 C-2 0 -2 0 0 0 Z " fill="#F0B216" transform="translate(158,52)"/>
<path d="M0 0 C0.66 0 1.32 0 2 0 C1.38188466 4.55315948 -0.46765893 8.28459767 -2.5625 12.3125 C-3.0565332 13.28026367 -3.0565332 13.28026367 -3.56054688 14.26757812 C-4.36824255 15.84785228 -5.18337613 17.42432105 -6 19 C-6.66 19 -7.32 19 -8 19 C-7.46199791 14.01400883 -5.88255471 10.48164295 -3.4375 6.125 C-2.79683594 4.97257812 -2.15617187 3.82015625 -1.49609375 2.6328125 C-0.75552734 1.32957031 -0.75552734 1.32957031 0 0 Z " fill="#EFB117" transform="translate(124,18)"/>
<path d="M0 0 C5.61 0 11.22 0 17 0 C16.67 0.99 16.34 1.98 16 3 C10.72 2.67 5.44 2.34 0 2 C0 1.34 0 0.68 0 0 Z " fill="#F0B116" transform="translate(34,76)"/>
<path d="M0 0 C-1.44424635 3.23861303 -3.25772247 5.61969163 -5.625 8.25 C-6.25664062 8.95640625 -6.88828125 9.6628125 -7.5390625 10.390625 C-8.02117187 10.92171875 -8.50328125 11.4528125 -9 12 C-9.66 10.68 -10.32 9.36 -11 8 C-9.54712339 6.66072279 -8.08752741 5.32873153 -6.625 4 C-5.81289062 3.2575 -5.00078125 2.515 -4.1640625 1.75 C-2 0 -2 0 0 0 Z " fill="#EEAF14" transform="translate(147,31)"/>
<path d="M0 0 C2.125 0.375 2.125 0.375 4 1 C5.125 4.75 5.125 4.75 4 7 C2.35 6.67 0.7 6.34 -1 6 C-1.625 4.125 -1.625 4.125 -2 2 C-1.34 1.34 -0.68 0.68 0 0 Z " fill="#F0B218" transform="translate(111,177)"/>
<path d="M0 0 C5.28 0 10.56 0 16 0 C16 0.66 16 1.32 16 2 C8.08 2.495 8.08 2.495 0 3 C0 2.01 0 1.02 0 0 Z " fill="#F0B116" transform="translate(150,76)"/>
<path d="M0 0 C-1.5885342 4.28904235 -4.43127368 6.32345526 -8 9 C-8.66 9 -9.32 9 -10 9 C-8.13405729 4.41995879 -5.20913241 0 0 0 Z " fill="#ECAC12" transform="translate(59,119)"/>
<path d="M0 0 C3.59905908 0.55550695 4.99909799 1.74887248 7.25 4.5625 C8.03117188 5.52349609 8.03117188 5.52349609 8.828125 6.50390625 C9.21484375 6.99761719 9.6015625 7.49132812 10 8 C6.45595664 8 5.89732095 7.39010515 3.3125 5.125 C2.68988281 4.59132813 2.06726563 4.05765625 1.42578125 3.5078125 C0 2 0 2 0 0 Z " fill="#F3B415" transform="translate(141,119)"/>
<path d="M0 0 C0.66 0 1.32 0 2 0 C1.46968862 4.5076467 -0.25221116 7.41954788 -3 11 C-3.66 11 -4.32 11 -5 11 C-3.78065514 6.96678237 -2.44045073 3.45730521 0 0 Z " fill="#EFB318" transform="translate(74,131)"/>
<path d="M0 0 C3 1 3 1 4.16796875 2.77734375 C4.50441406 3.49019531 4.84085938 4.20304688 5.1875 4.9375 C5.70376953 6.00291016 5.70376953 6.00291016 6.23046875 7.08984375 C7 9 7 9 7 11 C3.66428571 9.88809524 3.41582921 9.53679327 1.8125 6.625 C1.46832031 6.01914063 1.12414062 5.41328125 0.76953125 4.7890625 C0 3 0 3 0 0 Z " fill="#F1B014" transform="translate(124,131)"/>
<path d="M0 0 C-2.54782974 2.97246802 -5.45340883 4.41535288 -9 6 C-9.66 6 -10.32 6 -11 6 C-9.89210592 2.67631776 -9.51563783 2.38436907 -6.625 0.75 C-6.01914062 0.39421875 -5.41328125 0.0384375 -4.7890625 -0.328125 C-3 -1 -3 -1 0 0 Z " fill="#EDAE13" transform="translate(49,103)"/>
<path d="M0 0 C3.99881788 0.61520275 6.80358226 2.60268669 10 5 C10 5.66 10 6.32 10 7 C6.12697862 5.85569823 2.99736561 4.76679902 0 2 C0 1.34 0 0.68 0 0 Z " fill="#EDAD12" transform="translate(152,102)"/>
</svg>
