<svg width="200" height="200" viewBox="0 0 200 200" fill="none" xmlns="http://www.w3.org/2000/svg">
<path d="M10.4766 100C10.4766 149.446 50.5602 189.529 100.006 189.529C149.452 189.529 189.535 149.446 189.535 100C189.535 50.5542 149.452 10.4706 100.006 10.4706C50.5602 10.4706 10.4766 50.5542 10.4766 100Z" fill="url(#paint0_linear_5184_335)"/>
<mask id="mask0_5184_335" style="mask-type:luminance" maskUnits="userSpaceOnUse" x="0" y="0" width="200" height="200">
<path d="M0 -2.98023e-06H200V200H0V-2.98023e-06Z" fill="white"/>
</mask>
<g mask="url(#mask0_5184_335)">
</g>
<path d="M99.9492 41.5V84.7368L136.379 101.07L99.9492 41.5Z" fill="white" fill-opacity="0.6"/>
<path d="M99.9505 41.5L63.5 101.07L99.9505 84.7368V41.5Z" fill="white"/>
<path d="M99.9492 129.096V158.479L136.4 107.869L99.9492 129.096Z" fill="#B9E1D3"/>
<path d="M99.9505 158.479V129.096L63.5 107.892L99.9505 158.5V158.479Z" fill="white"/>
<path opacity="0.2" d="M99.9492 122.275L136.379 101.049L99.9492 84.7373V122.275Z" fill="white"/>
<path opacity="0.6" d="M63.5195 101.07L99.9701 122.296V84.7578L63.5195 101.07Z" fill="white"/>
<defs>
<linearGradient id="paint0_linear_5184_335" x1="10.4766" y1="100" x2="189.535" y2="100" gradientUnits="userSpaceOnUse">
<stop stop-color="#79E49B"/>
<stop offset="0.9368" stop-color="#309287"/>
<stop offset="1" stop-color="#309287"/>
</linearGradient>
</defs>
</svg>
