<svg width="55" height="55" viewBox="0 0 55 55" fill="none" xmlns="http://www.w3.org/2000/svg">
<path d="M27.5 55C42.7397 55 55 42.7397 55 27.5C55 12.2603 42.7397 0 27.5 0C12.2603 0 0 12.2603 0 27.5C0 42.7397 12.2603 55 27.5 55Z" fill="#FFC01D"/>
<mask id="mask0_4023_57268" style="mask-type:alpha" maskUnits="userSpaceOnUse" x="0" y="0" width="55" height="55">
<path d="M27.5 55C42.7397 55 55 42.7397 55 27.5C55 12.2603 42.7397 0 27.5 0C12.2603 0 0 12.2603 0 27.5C0 42.7397 12.2603 55 27.5 55Z" fill="#5D5FEF"/>
</mask>
<g mask="url(#mask0_4023_57268)">
<path d="M78.2924 -21.4747C78.7015 -18.5468 78.0483 -15.5888 77.0657 -11.9825C72.4063 5.11695 55.8779 10.0829 39.54 13.5398C25.8401 16.231 13.5247 25.1824 7.04876 38.7133C6.2906 40.2974 5.63097 41.9017 5.06988 43.526C0.953674 55.347 1.98916 67.93 7.18113 78.6083C8.29028 80.9239 9.59367 83.1161 11.0913 85.1849C12.7008 87.4155 14.6003 89.3792 16.7266 91.208C16.7266 91.208 16.7486 91.2186 16.7926 91.2396C18.3861 92.5431 20.1193 93.7242 21.9923 94.7829C21.3451 89.5246 21.6107 84.0541 22.8607 78.7304C23.5733 75.7724 24.5701 72.8423 25.851 69.94C25.9984 69.6319 26.1458 69.3239 26.2932 69.0159C29.5786 62.1515 34.3561 56.4068 39.9426 52.0227C43.043 49.6127 46.4131 47.6562 49.9869 46.1217C49.9869 46.1217 54.9788 43.3189 57.6082 42.0625C66.9891 37.5476 73.6841 31.017 78.2924 24.9479C84.4052 16.9218 86.8476 6.73351 85.2689 -3.18901C84.4181 -8.86926 82.4279 -16.4174 78.2924 -21.4747Z" fill="#5D5FEF"/>
<path fill-rule="evenodd" clip-rule="evenodd" d="M47.7913 53.9088C47.7913 53.9088 47.7913 53.9087 47.7913 53.9087L47.8101 53.8693C47.0709 53.3218 46.2678 52.8404 45.4006 52.4254C44.0603 51.784 42.6652 51.3585 41.2735 51.1284C39.5452 52.9174 37.637 54.475 35.5678 55.7617C38.347 59.3688 40.0444 63.7179 40.4734 68.1865C46.467 64.9021 48.4344 61.5323 48.8394 58.8906C48.4345 61.5323 46.4672 64.9022 40.4734 68.1867C40.8544 72.1481 40.2808 76.2823 38.5691 80.1623C38.4696 80.4378 38.357 80.7068 38.2312 80.9695C37.4577 82.5857 36.4871 84.1076 35.3966 85.475C35.3715 85.5276 35.3332 85.5738 35.2817 85.6138C35.1674 85.7852 35.0463 85.9371 34.9182 86.0698C34.8291 86.1884 34.7267 86.301 34.6113 86.4074L34.3815 86.6849C34.0352 87.0036 33.682 87.3029 33.322 87.5827C33.2455 87.6752 33.162 87.7484 33.0717 87.8021C32.7117 88.0819 32.3317 88.336 31.9317 88.5644C31.8151 88.6056 31.7116 88.6531 31.6214 88.7067C29.0841 90.0602 26.0416 90.4449 23.1742 89.654L22.5451 89.4499C22.1258 89.3138 21.7059 89.1451 21.2855 88.9438L20.9701 88.7929C20.825 88.6913 20.6868 88.6088 20.5554 88.5459L20.4766 88.5082C17.8511 87.0094 16.3878 84.9041 15.6307 82.9431C15.0381 81.4483 14.7369 79.8507 14.787 78.2275C14.8197 77.8555 14.8163 77.6601 14.8163 77.6601C14.0699 80.8394 13.9112 84.1065 14.2978 87.2466C14.9033 87.601 15.5345 87.9355 16.1915 88.25L16.7828 88.533C20.9594 90.4349 25.3884 91.1012 29.6633 90.7734C30.1255 90.7273 30.5845 90.672 31.0401 90.6077C31.5207 90.5398 31.9977 90.4615 32.4711 90.373C40.3407 88.8103 47.4264 83.7232 51.1429 75.9577C52.4258 73.2774 53.1995 70.5471 53.5226 67.7464C53.6154 67.0802 53.6686 66.3953 53.6826 65.6914C53.7404 61.1165 51.5922 56.6971 47.8101 53.8695L47.7913 53.9088Z" fill="#5D5FEF"/>
</g>
<path d="M34.9711 31.8919C34.9711 27.8752 32.5795 26.498 27.7965 25.9242C24.38 25.4651 23.6967 24.547 23.6967 22.9401C23.6967 21.3332 24.8356 20.3006 27.1132 20.3006C29.1631 20.3006 30.302 20.9892 30.8713 22.7107C30.9853 23.055 31.3269 23.2844 31.6686 23.2844H33.4905C33.9461 23.2844 34.2878 22.9401 34.2878 22.4812V22.3664C33.8321 19.8414 31.7823 17.8905 29.1631 17.661V14.9066C29.1631 14.4474 28.8214 14.1031 28.2521 13.9883H26.5439C26.0882 13.9883 25.7466 14.3326 25.6326 14.9066V17.5462C22.2162 18.0053 20.0526 20.3006 20.0526 23.1698C20.0526 26.9571 22.3301 28.4489 27.1132 29.023C30.302 29.5967 31.3269 30.2853 31.3269 32.1217C31.3269 33.958 29.7324 35.2204 27.5688 35.2204C24.6077 35.2204 23.5827 33.9578 23.2411 32.2362C23.1274 31.7774 22.7858 31.5476 22.4441 31.5476H20.5079C20.0526 31.5476 19.7109 31.8919 19.7109 32.3511V32.466C20.1663 35.335 21.9885 37.4008 25.7466 37.9748V40.7292C25.7466 41.1881 26.0882 41.5324 26.6576 41.6472H28.3658C28.8214 41.6472 29.1631 41.3029 29.277 40.7292V37.9748C32.6935 37.4008 34.9711 34.9907 34.9711 31.8919Z" fill="white"/>
<path d="M21.6159 43.8974C12.6167 40.6816 8.00163 30.6892 11.3477 21.8451C13.0783 17.0212 16.8856 13.3459 21.6159 11.623C22.0775 11.3934 22.3081 11.0489 22.3081 10.4744V8.86651C22.3081 8.40699 22.0775 8.06243 21.6159 7.94775C21.5004 7.94775 21.2698 7.94775 21.1543 8.06243C10.1938 11.5081 4.19427 23.1087 7.6555 34.0199C9.73224 40.4517 14.6934 45.3906 21.1543 47.458C21.6159 47.6876 22.0775 47.458 22.1927 46.9985C22.3081 46.8838 22.3081 46.7689 22.3081 46.5393V44.9311C22.3081 44.5865 21.962 44.1273 21.6159 43.8974ZM33.8456 8.06243C33.3841 7.83281 32.9225 8.06243 32.8073 8.52194C32.6918 8.63689 32.6918 8.75156 32.6918 8.98146V10.5893C32.6918 11.0489 33.0379 11.5081 33.3841 11.738C42.3832 14.9538 46.9983 24.9462 43.6523 33.7903C41.9217 38.6142 38.1143 42.2895 33.3841 44.0123C32.9225 44.242 32.6918 44.5865 32.6918 45.161V46.7689C32.6918 47.2284 32.9225 47.573 33.3841 47.6876C33.4995 47.6876 33.7302 47.6876 33.8456 47.573C44.8061 44.1273 50.8057 32.5267 47.3444 21.6155C45.2677 15.0687 40.191 10.1298 33.8456 8.06243Z" fill="white"/>
</svg>
