<?xml version="1.0" encoding="utf-8"?>
<!-- Generator: Adobe Illustrator 25.1.0, SVG Export Plug-In . SVG Version: 6.00 Build 0)  -->
<svg version="1.1" id="Layer_1" xmlns="http://www.w3.org/2000/svg" xmlns:xlink="http://www.w3.org/1999/xlink" x="0px" y="0px"
	 viewBox="0 0 200 200" style="enable-background:new 0 0 200 200;" xml:space="preserve">
<style type="text/css">
	.st0{fill:#630460;}
	.st1{fill:#9B2F1E;}
	.st2{fill:#FF0000;}
</style>
<g>
	<path class="st0" d="M98.187,199.976c-25.227-0.794-47.09-8.634-64.051-22.963c-4.77-4.032-9.247-8.703-13.135-13.698
		C9.072,147.992,1.826,128.729,0.288,108.242C0.05,105.11,0,103.703,0,99.99c0-3.714,0.05-5.12,0.288-8.252
		C1.826,71.256,9.084,51.95,21,36.664c5.608-7.202,12.291-13.567,19.637-18.712c7.484-5.239,15.661-9.322,24.695-12.335
		c7.309-2.438,15.455-4.158,23.664-4.995c7.627-0.781,13.004-0.819,20.381-0.156c22.294,2.001,41.651,9.784,56.949,22.901
		c18.581,15.924,30.366,39.156,33.11,65.245C199.85,92.581,200,95.519,200,99.99c0,3.714-0.05,5.12-0.288,8.252
		c-1.357,18.03-7.133,35.167-16.693,49.502c-5.114,7.659-11.26,14.461-18.256,20.181C149.24,190.629,129.828,198,107.502,199.67
		C103.807,199.951,100.606,200.051,98.187,199.976L98.187,199.976z M102.501,190.079c10.81-0.456,20.313-2.157,29.478-5.277
		c23.732-8.071,41.882-25.376,51.36-48.958c6.821-16.993,8.59-36.373,4.995-54.735c-4.439-22.644-16.611-42.088-34.192-54.604
		c-12.879-9.172-28.04-14.586-45.358-16.192c-5.596-0.525-9.853-0.575-15.255-0.194c-22.938,1.638-42.613,10.059-57.418,24.57
		C19.375,51.1,9.847,74.788,9.847,99.99c0,20.469,6.271,40.037,17.806,55.579c12.048,16.23,29.259,27.246,49.934,31.941
		c6.508,1.482,12.942,2.301,20.381,2.588C99.112,190.148,101.169,190.135,102.501,190.079L102.501,190.079z"/>
</g>
<g>
	<path class="st1" d="M98.781,178.601c-0.1-0.012-0.494-0.056-0.875-0.094c-2.088-0.206-4.645-0.857-6.677-1.688
		c-6.852-2.82-11.485-8.315-12.698-15.061c-0.256-1.457-0.319-2.176-0.313-3.876c0-2.201,0.163-3.551,0.581-4.895
		c0.331-1.057,0.406-1.632,0.406-2.982c0-1.025-0.019-1.319-0.138-1.857c-0.369-1.701-1.075-3.032-2.176-4.12
		c-1.094-1.069-2.92-2.007-4.514-2.313c-0.325-0.063-0.894-0.106-1.419-0.113c-0.875-0.006-0.875-0.006-1.844-0.738
		c-3.088-2.319-6.421-5.47-9.115-8.615l-0.563-0.656l0.544-0.331c0.713-0.444,2.313-1.232,3.151-1.563
		c6.246-2.451,13.554-1.557,19.637,2.407c5.245,3.42,8.765,8.559,9.747,14.242c0.194,1.113,0.25,1.832,0.25,3.157
		c0.006,1.738-0.138,2.976-0.519,4.501c-0.869,3.495-0.669,6.333,0.581,8.19c1.138,1.694,3.082,2.707,5.952,3.101
		c0.994,0.138,3.951,0.156,5.158,0.038c3.982-0.4,7.246-1.069,14.254-2.92c3.476-0.919,3.195-0.857,3.157-0.694
		c-0.638,2.67-1.132,4.126-2.019,5.889c-3.076,6.121-8.509,9.865-15.767,10.878C102.882,178.582,99.275,178.67,98.781,178.601
		L98.781,178.601z M97.455,172.361c0.388-0.163,0.713-0.694,0.638-1.044c-0.05-0.219-0.338-0.469-0.638-0.55
		c-0.188-0.056-0.269-0.038-0.525,0.094c-0.331,0.163-0.469,0.331-0.525,0.625c-0.056,0.256,0.194,0.7,0.469,0.844
		C97.13,172.474,97.193,172.474,97.455,172.361z M103.101,172.205c0.444-0.206,0.575-0.738,0.306-1.263
		c-0.144-0.269-0.5-0.356-0.932-0.225c-0.3,0.094-0.35,0.138-0.438,0.356c-0.219,0.55-0.038,1.05,0.419,1.182
		C102.751,172.336,102.82,172.336,103.101,172.205L103.101,172.205z M105.12,171.943c0.313-0.113,0.406-0.394,0.231-0.738
		c-0.088-0.169-0.331-0.319-0.513-0.319c-0.056,0-0.181,0.081-0.281,0.181c-0.356,0.356-0.181,0.907,0.294,0.938
		C104.889,172.011,105.008,171.98,105.12,171.943L105.12,171.943z M100.375,171.242c0.644-0.338,0.663-1.232,0.044-1.776
		c-0.275-0.238-0.594-0.313-0.925-0.213c-0.694,0.206-0.925,0.907-0.531,1.607C99.25,171.38,99.825,171.536,100.375,171.242
		L100.375,171.242z M94.161,170.611c0.206-0.175,0.238-0.494,0.063-0.75c-0.138-0.213-0.231-0.25-0.513-0.194
		c-0.188,0.031-0.244,0.081-0.344,0.313c-0.113,0.256-0.119,0.294-0.025,0.463C93.517,170.792,93.873,170.861,94.161,170.611
		L94.161,170.611z M105.971,170.223c0.438-0.288,0.594-1.088,0.294-1.513c-0.213-0.288-0.481-0.413-0.919-0.413
		c-0.7-0.006-1.157,0.381-1.157,0.982C104.189,170.173,105.22,170.717,105.971,170.223z M95.905,169.879
		c0.638-0.175,0.957-0.894,0.688-1.538c-0.125-0.3-0.256-0.444-0.544-0.588c-0.475-0.244-1.013-0.094-1.263,0.344
		c-0.206,0.35-0.25,0.613-0.163,0.969c0.088,0.381,0.338,0.675,0.656,0.788C95.586,169.961,95.599,169.961,95.905,169.879
		L95.905,169.879z M109.159,169.567c0.719-0.631,0.45-1.494-0.463-1.494c-0.406,0-0.756,0.388-0.756,0.825
		c0,0.25,0.238,0.663,0.444,0.775C108.646,169.817,108.915,169.779,109.159,169.567z M102.47,168.942
		c0.138-0.038,0.35-0.175,0.481-0.306c0.213-0.206,0.238-0.269,0.238-0.544c0-0.356-0.238-0.888-0.481-1.082
		c-0.2-0.156-0.669-0.163-1.113-0.006c-0.288,0.1-0.325,0.138-0.45,0.45c-0.294,0.713-0.106,1.244,0.525,1.469
		C101.963,169.023,102.151,169.029,102.47,168.942L102.47,168.942z M92.967,168.685c0.219-0.169,0.4-0.575,0.406-0.875
		c0-0.175-0.05-0.288-0.181-0.438c-0.163-0.181-0.219-0.206-0.494-0.2c-0.169,0.006-0.438,0.069-0.594,0.138
		c-0.238,0.106-0.3,0.169-0.363,0.375c-0.1,0.344-0.038,0.538,0.288,0.863c0.231,0.231,0.319,0.275,0.519,0.275
		C92.704,168.823,92.854,168.773,92.967,168.685L92.967,168.685z M98.812,168.31c0.813-0.413,0.832-1.507,0.038-1.869
		c-0.5-0.225-1.269-0.088-1.507,0.281c-0.256,0.394-0.169,1.007,0.2,1.369C97.912,168.466,98.356,168.541,98.812,168.31z
		 M105.502,167.56c0.206-0.106,0.319-0.219,0.425-0.425c0.413-0.819-0.15-1.757-1.007-1.663c-0.631,0.069-0.95,0.438-0.95,1.107
		c0,0.494,0.175,0.8,0.563,0.994C104.858,167.735,105.158,167.729,105.502,167.56L105.502,167.56z M95.536,167.029
		c0.25-0.163,0.538-0.631,0.575-0.925c0.038-0.369-0.125-0.694-0.481-0.919c-0.256-0.163-0.331-0.181-0.706-0.163
		c-0.469,0.025-0.669,0.131-0.913,0.494c-0.119,0.175-0.144,0.275-0.125,0.538c0.038,0.438,0.275,0.775,0.7,0.988
		C94.936,167.222,95.249,167.216,95.536,167.029L95.536,167.029z M108.797,167.066c0.213-0.075,0.563-0.4,0.681-0.631
		c0.331-0.638-0.25-1.375-1.094-1.388c-0.394-0.006-0.694,0.131-0.907,0.419c-0.294,0.394-0.088,1.25,0.369,1.544
		C108.059,167.147,108.515,167.172,108.797,167.066L108.797,167.066z M112.098,166.385c0.344-0.325,0.344-0.95-0.006-1.294
		c-0.175-0.181-0.244-0.206-0.519-0.206s-0.35,0.031-0.544,0.206c-0.194,0.175-0.231,0.256-0.263,0.531
		c-0.056,0.638,0.25,0.975,0.85,0.932C111.847,166.535,111.985,166.491,112.098,166.385z M114.104,165.666
		c0.294-0.206,0.431-0.763,0.231-0.982c-0.206-0.231-0.769-0.106-0.894,0.206c-0.094,0.225-0.044,0.431,0.163,0.675
		C113.786,165.778,113.911,165.803,114.104,165.666L114.104,165.666z M93.442,165.459c0.438-0.494,0.05-1.388-0.6-1.388
		c-0.525,0-0.907,0.65-0.719,1.213c0.1,0.313,0.319,0.419,0.775,0.394C93.223,165.659,93.292,165.634,93.442,165.459z
		 M91.254,165.072c0.031,0,0.113-0.056,0.181-0.125c0.306-0.306,0.038-0.9-0.394-0.9c-0.419,0-0.675,0.419-0.475,0.781
		c0.075,0.144,0.419,0.319,0.544,0.275C91.16,165.084,91.222,165.072,91.254,165.072z M91.229,163.252
		c0.425-0.156,0.725-0.644,0.613-0.994c-0.075-0.244-0.469-0.619-0.688-0.663c-0.331-0.063-0.819,0.281-0.938,0.669
		c-0.069,0.206,0.019,0.538,0.2,0.75C90.666,163.309,90.897,163.377,91.229,163.252z M91.01,160.339
		c0.056-0.063,0.144-0.206,0.2-0.313c0.088-0.181,0.094-0.231,0.012-0.419c-0.1-0.244-0.119-0.256-0.419-0.313
		c-0.575-0.1-0.907,0.713-0.438,1.069C90.516,160.483,90.897,160.464,91.01,160.339L91.01,160.339z M70.241,139.533
		c0.35-0.181,0.319-0.775-0.05-0.988c-0.175-0.106-0.231-0.113-0.406-0.044c-0.275,0.113-0.356,0.231-0.356,0.531
		C69.428,139.52,69.809,139.752,70.241,139.533z M68.872,138.332c0.219-0.131,0.494-0.65,0.494-0.932
		c0-0.269-0.256-0.569-0.531-0.625c-0.113-0.019-0.363-0.006-0.55,0.038c-0.338,0.069-0.344,0.075-0.481,0.4
		c-0.131,0.338-0.131,0.338,0.025,0.65C68.103,138.407,68.465,138.57,68.872,138.332z M71.091,137.351
		c0.256-0.256,0.269-0.444,0.044-0.675c-0.238-0.25-0.581-0.244-0.838,0.006c-0.225,0.225-0.231,0.438-0.019,0.688
		C70.51,137.645,70.803,137.638,71.091,137.351L71.091,137.351z M67.652,136.432c0.275-0.169,0.488-0.588,0.425-0.85
		c-0.113-0.45-0.469-0.706-0.994-0.706c-0.825,0-1.194,0.825-0.638,1.432C66.765,136.651,67.227,136.701,67.652,136.432
		L67.652,136.432z M71.485,135.582c0.538-0.394,0.45-1.35-0.138-1.507c-0.394-0.106-0.819,0.081-1.088,0.488
		c-0.381,0.55,0.081,1.232,0.788,1.163C71.197,135.713,71.391,135.65,71.485,135.582z M73.46,135.588
		c0.494-0.538-0.219-1.207-0.775-0.738c-0.256,0.213-0.263,0.469-0.013,0.719C72.917,135.813,73.248,135.819,73.46,135.588z
		 M65.783,134.588c0.475-0.388,0.65-1.025,0.394-1.444c-0.15-0.256-0.425-0.394-0.85-0.438c-0.281-0.031-0.388-0.006-0.675,0.131
		c-0.194,0.094-0.4,0.244-0.469,0.338c-0.344,0.488-0.144,1.138,0.463,1.525C64.939,134.888,65.477,134.831,65.783,134.588
		L65.783,134.588z M77.518,134.694c0.413-0.275,0.55-0.875,0.288-1.3c-0.225-0.369-0.888-0.369-1.232,0.006
		c-0.269,0.294-0.319,0.575-0.144,0.907C76.661,134.769,77.143,134.938,77.518,134.694z M83.914,134.55
		c0.119-0.094,0.219-0.481,0.175-0.663c-0.088-0.356-0.381-0.481-0.738-0.319c-0.206,0.094-0.344,0.494-0.244,0.713
		C83.257,134.6,83.676,134.744,83.914,134.55L83.914,134.55z M68.809,134.169c0.356-0.238,0.575-0.619,0.606-1.032
		c0.025-0.344,0.013-0.381-0.169-0.594c-0.219-0.244-0.425-0.331-0.944-0.388c-0.463-0.05-0.731,0.088-0.919,0.469
		c-0.238,0.463-0.156,0.938,0.225,1.35c0.119,0.125,0.275,0.25,0.344,0.275C68.209,134.356,68.59,134.319,68.809,134.169z
		 M74.911,134.15c0.513-0.319,0.494-1.094-0.038-1.444c-0.25-0.169-0.419-0.181-0.75-0.044c-0.2,0.075-0.269,0.156-0.375,0.4
		c-0.169,0.4-0.163,0.544,0.031,0.838C74.048,134.294,74.517,134.394,74.911,134.15L74.911,134.15z M79.75,134.131
		c0.206-0.206,0.231-0.419,0.088-0.694c-0.075-0.144-0.144-0.188-0.3-0.2c-0.556-0.025-0.694,0.05-0.769,0.438
		C78.662,134.206,79.35,134.525,79.75,134.131L79.75,134.131z M81.676,133.787c0.431-0.225,0.719-0.788,0.594-1.15
		c-0.125-0.356-0.625-0.525-1.119-0.388c-0.25,0.069-0.3,0.113-0.406,0.363c-0.163,0.356-0.156,0.6,0.006,0.863
		C80.975,133.844,81.332,133.962,81.676,133.787L81.676,133.787z M71.985,133.568c0.481-0.25,0.807-0.8,0.725-1.232
		c-0.044-0.25-0.344-0.613-0.613-0.756c-0.619-0.319-1.557,0.163-1.613,0.825c-0.025,0.369,0.006,0.513,0.194,0.794
		C70.991,133.675,71.497,133.812,71.985,133.568L71.985,133.568z M63.445,132.637c0.569-0.325,0.706-1.125,0.288-1.607
		c-0.681-0.769-1.994-0.344-1.994,0.65c0,0.475,0.313,0.938,0.725,1.069C62.72,132.831,63.214,132.774,63.445,132.637
		L63.445,132.637z M79.55,132.581c0.238-0.181,0.313-0.613,0.156-0.932c-0.375-0.763-1.288-0.656-1.525,0.169
		c-0.106,0.369,0.138,0.781,0.531,0.888C78.943,132.768,79.381,132.699,79.55,132.581z M76.499,131.837
		c0.406-0.206,0.675-0.775,0.563-1.182c-0.244-0.875-1.469-1.175-2.063-0.5c-0.381,0.438-0.338,0.975,0.119,1.419
		C75.536,131.98,76.03,132.074,76.499,131.837z M66.602,131.774c0.231-0.169,0.45-0.625,0.45-0.932c-0.006-0.35-0.2-0.756-0.444-0.9
		c-0.738-0.45-1.744,0.05-1.744,0.869c0,0.406,0.294,0.875,0.656,1.038C65.783,131.974,66.383,131.93,66.602,131.774L66.602,131.774
		z M69.816,131.155c0.288-0.213,0.425-0.531,0.425-0.988c0-0.35-0.025-0.438-0.163-0.606c-0.238-0.275-0.469-0.375-0.875-0.375
		c-0.656,0-1.088,0.394-1.088,0.994c0,0.388,0.169,0.744,0.463,0.957c0.231,0.169,0.294,0.181,0.663,0.163
		C69.522,131.287,69.697,131.237,69.816,131.155z M73.148,131.068c0.594-0.275,0.875-0.894,0.631-1.375
		c-0.125-0.231-0.556-0.619-0.756-0.669c-0.7-0.175-1.407,0.388-1.407,1.119C71.616,130.943,72.398,131.418,73.148,131.068z"/>
	<path class="st1" d="M97.968,162.902c-1.232-0.163-2.438-0.825-3.095-1.701c-1.15-1.538-1.388-3.62-0.719-6.321
		c0.081-0.325,0.194-0.9,0.256-1.282c0.063-0.375,0.131-0.713,0.156-0.744c0.025-0.031,0.431-0.025,0.944,0.019
		c3.407,0.275,7.827,0.175,11.304-0.244c8.428-1.032,16.068-3.801,22.607-8.196c1.007-0.675,1.007-0.675,1.469-0.55
		c0.625,0.169,1.332,0.531,1.657,0.838c0.144,0.138,0.431,0.363,0.631,0.5c0.2,0.138,1,0.744,1.782,1.35
		c2.682,2.094,3.476,2.67,3.989,2.882c0.313,0.125,0.313,0.125-0.175,0.506c-5.064,4.001-11.391,7.408-17.768,9.578
		c-5.133,1.744-10.222,2.77-15.786,3.188C103.476,162.859,98.537,162.977,97.968,162.902L97.968,162.902z M105.752,158.67
		c3.907-0.375,8.128-1.2,12.098-2.376c7.133-2.107,12.423-4.883,14.373-7.54c0.163-0.219,0.269-0.413,0.231-0.425
		s-1.482,0.594-3.214,1.35c-3.432,1.507-4.726,2.051-6.858,2.901c-6.99,2.782-12.61,4.176-18.381,4.558
		c-1.119,0.075-5.202,0.038-6.096-0.056c-0.438-0.044-0.438-0.044-1.107,0.281c-0.375,0.181-0.675,0.356-0.675,0.381
		c0,0.075,0.238,0.175,0.863,0.394c0.825,0.281,2.026,0.5,3.357,0.619C101.257,158.839,104.551,158.782,105.752,158.67z"/>
	<path class="st1" d="M75.455,158.257c-6.258-2.538-12.279-6.358-17.906-11.353c-1.219-1.082-3.732-3.57-4.908-4.845
		c-1.851-2.026-3.601-4.176-4.501-5.527c-0.319-0.481-1.038-1.488-1.594-2.238c-1.732-2.344-2.376-3.414-2.757-4.601
		c-0.369-1.157-0.381-2.076-0.031-3.076c0.163-0.463,0.681-1.357,0.825-1.413c0.05-0.019,0.088-0.063,0.088-0.094
		c0-0.113,0.656-0.813,1.032-1.094c0.519-0.4,1.025-0.619,2.72-1.194c0.807-0.275,1.719-0.588,2.019-0.7
		c0.3-0.113,0.556-0.194,0.569-0.181c0.013,0.013,0.238,0.475,0.5,1.025c3.282,6.815,8.709,13.442,15.292,18.693
		c0.431,0.338,0.807,0.656,0.832,0.7c0.075,0.119,1.525,1.157,2.701,1.932c1.844,1.207,3.951,2.426,5.739,3.314
		c0.832,0.419,0.863,0.438,0.925,0.675c0.325,1.213,0.244,2.513-0.344,5.37c-0.188,0.9-0.388,1.957-0.438,2.344
		c-0.106,0.763-0.131,1.969-0.044,2.344c0.031,0.125,0.05,0.231,0.044,0.231C76.218,158.57,75.867,158.432,75.455,158.257
		L75.455,158.257z M74.43,152.474c0-0.019-0.15-0.35-0.338-0.738c-0.331-0.713-0.331-0.713-1.238-1.188
		c-9.503-4.97-18.55-13.779-23.67-23.051c-0.419-0.763-0.419-0.763-1.194-1.1c-0.425-0.188-0.788-0.325-0.807-0.313
		c-0.075,0.081,0.413,1.657,0.813,2.601c0.781,1.851,1.926,3.689,3.589,5.77c0.988,1.238,2.157,2.557,4.426,5.008
		c1.019,1.1,1.851,2.019,1.851,2.051c0,0.031,0.106,0.144,0.231,0.256c0.131,0.113,1.275,1.125,2.545,2.257
		c2.707,2.407,3.895,3.407,5.227,4.408c2.751,2.069,4.964,3.226,7.409,3.857C74.023,152.487,74.43,152.549,74.43,152.474
		L74.43,152.474z"/>
	<path class="st1" d="M48.64,150.317c-0.769-0.056-1.694-0.169-1.963-0.231c-0.144-0.038-0.15-0.044-0.106-0.606
		c0.131-1.763,0.688-4.551,1.313-6.596c0.263-0.838,0.719-2.144,0.781-2.213c0.025-0.025,0.213,0.163,0.419,0.406
		c1.138,1.388,3.776,4.258,4.514,4.908c0.263,0.238,1.119,1.019,1.901,1.751l1.413,1.325l-0.85,0.281
		c-1.463,0.475-2.788,0.769-4.139,0.907C51.003,150.342,49.472,150.374,48.64,150.317L48.64,150.317z"/>
	<path class="st1" d="M108.565,150.286c0-0.056,1.082-2.001,1.582-2.845c0.75-1.257,1.532-2.438,1.613-2.438
		c0.044,0,0.388,0.1,0.769,0.225c1.782,0.575,4.276,1.182,6.327,1.525c1.575,0.269,1.482,0.238,1.15,0.381
		c-0.6,0.269-2.782,1.063-3.907,1.425c-2.132,0.681-4.17,1.182-6.421,1.569C108.446,150.342,108.565,150.324,108.565,150.286
		L108.565,150.286z"/>
	<path class="st1" d="M148.14,150.273c-1.25-0.131-3.051-0.519-4.251-0.913c-0.907-0.3-2.501-0.944-2.501-1.013
		c0-0.012,0.188-0.369,0.419-0.794c1.588-2.945,3.107-7.04,3.957-10.709c0.113-0.481,0.213-0.888,0.225-0.9
		c0.013-0.013,0.238,0.094,0.513,0.231c1.069,0.55,2.063,0.844,3.12,0.925c0.569,0.044,0.569,0.044,0.619,0.769
		c0.056,0.938-0.012,3.651-0.125,4.851c-0.231,2.432-0.625,4.676-1.213,6.908C148.715,150.355,148.734,150.342,148.14,150.273
		L148.14,150.273z"/>
	<path class="st1" d="M150.228,150.18c0.169-0.625,0.644-2.92,0.819-3.945c0.431-2.57,0.613-4.689,0.619-7.302
		c0.006-1.919,0.006-1.919,0.35-2.001c0.188-0.05,0.381-0.081,0.431-0.075c0.044,0,0.381-0.1,0.744-0.238
		c0.469-0.175,0.675-0.225,0.731-0.181c0.044,0.038,0.388,0.538,0.769,1.113c2.119,3.226,3.501,6.414,4.289,9.922
		c0.119,0.519,0.194,0.957,0.169,0.975c-0.081,0.088-1.532,0.625-2.326,0.869c-1.882,0.563-4.558,1-6.208,1
		C150.203,150.317,150.191,150.311,150.228,150.18z"/>
	<path class="st1" d="M44.358,149.623c-2.938-0.644-5.983-2.082-8.265-3.895c-0.338-0.269-0.613-0.513-0.613-0.55
		c0-0.144,1.913-2.176,3.376-3.576c0.95-0.913,2.201-2.013,3.32-2.932c1.019-0.831,3.082-2.357,3.151-2.338
		c0.031,0.012,0.556,0.694,1.163,1.519c0.913,1.232,1.094,1.513,1.044,1.607c-0.156,0.3-0.763,2.076-1.044,3.051
		c-0.563,1.938-1.007,4.214-1.244,6.314l-0.106,0.975L44.358,149.623L44.358,149.623z"/>
	<path class="st1" d="M107.302,149.454c-0.056-0.206,0.063-2.194,0.169-2.92c0.475-3.176,1.613-6.002,3.47-8.596
		c3.714-5.195,9.891-8.709,16.53-9.409c1.175-0.125,3.339-0.125,4.514,0c3.626,0.381,6.971,1.682,9.816,3.814
		c0.757,0.575,1.382,1.132,1.182,1.063c-2.288-0.769-4.22-1.219-6.471-1.507c-1.238-0.156-4.401-0.188-5.752-0.056
		c-3.526,0.331-6.621,1.225-9.722,2.807c-3.514,1.788-6.465,4.239-8.947,7.421c-1.25,1.6-2.995,4.251-3.907,5.939
		C107.309,149.63,107.334,149.586,107.302,149.454z"/>
	<path class="st1" d="M160.556,147.804c-0.013-0.044-0.113-0.475-0.219-0.957c-0.45-2.038-1.257-4.289-2.263-6.296
		c-0.65-1.294-1.857-3.27-2.701-4.42c-0.294-0.394-0.294-0.394,0.1-0.694c0.213-0.163,0.644-0.563,0.95-0.888l0.556-0.594
		l1.038,0.669c2.338,1.507,4.67,3.207,6.752,4.933c1.294,1.069,2.757,2.394,2.738,2.476c-0.038,0.175-1.082,1.357-1.938,2.194
		c-1.457,1.425-2.838,2.463-4.564,3.426C160.694,147.829,160.575,147.867,160.556,147.804L160.556,147.804z"/>
	<path class="st1" d="M139.575,147.466c-1.232-0.681-3.526-2.369-4.458-3.282l-0.744-0.719l0.469-0.719
		c1.719-2.638,2.913-5.427,3.539-8.246c0.169-0.75,0.181-0.781,0.325-0.763c0.688,0.094,3.351,0.8,4.914,1.3
		c1,0.325,1.082,0.356,1.05,0.481c-0.85,3.607-1.732,6.264-3.007,9.096c-0.569,1.263-1.519,3.076-1.613,3.076
		C140.013,147.691,139.8,147.591,139.575,147.466z"/>
	<path class="st1" d="M121.35,145.71c-2.751-0.344-5.314-0.882-7.765-1.625l-0.95-0.288l0.388-0.506
		c0.788-1.038,1.657-2.032,2.595-2.97c0.963-0.969,0.963-0.969,1.1-0.788c1.119,1.55,3.02,3.332,5.02,4.714
		c0.756,0.525,0.756,0.525,0.519,0.813c-0.131,0.156-0.281,0.381-0.338,0.494C121.813,145.76,121.788,145.766,121.35,145.71
		L121.35,145.71z"/>
	<path class="st1" d="M33.742,143.59c-1.313-1.419-2.751-3.501-3.664-5.32c-0.206-0.419-0.213-0.456-0.113-0.513
		c0.056-0.031,2.188-0.85,4.733-1.826c2.545-0.969,5.302-2.032,6.133-2.363l1.5-0.6l0.325,0.469c0.394,0.569,1.007,1.282,1.388,1.6
		c0.281,0.238,0.281,0.238-1.063,1.25c-2.907,2.182-5.746,4.733-8.015,7.208l-0.65,0.713L33.742,143.59L33.742,143.59z"/>
	<path class="st1" d="M122.632,143.253c-1.644-1.138-3.232-2.563-4.214-3.795c-0.832-1.038-0.819-0.919-0.144-1.45
		c0.706-0.563,2.132-1.513,2.888-1.926l0.556-0.313l0.325,0.975c0.606,1.826,1.388,3.382,2.901,5.739
		c0.106,0.163,0.181,0.094-0.819,0.8c-0.369,0.256-0.688,0.469-0.719,0.469C123.376,143.747,123.026,143.521,122.632,143.253
		L122.632,143.253z"/>
	<path class="st1" d="M132.854,142.44c-0.594-0.288-1.263-0.494-2.126-0.656c-0.444-0.088-0.813-0.156-0.825-0.156
		s-0.019-1.882-0.019-4.183c0-4.182,0-4.182,0.238-4.22c0.125-0.019,0.95-0.056,1.826-0.075c1.707-0.044,2.801,0.013,4.345,0.231
		c0.481,0.063,0.875,0.119,0.882,0.119c0.025,0-0.25,1.163-0.425,1.782c-0.625,2.238-1.588,4.358-3.007,6.646
		c-0.238,0.381-0.456,0.7-0.475,0.694C133.248,142.621,133.06,142.534,132.854,142.44L132.854,142.44z"/>
	<path class="st1" d="M126.083,141.602c-0.819-1.182-1.669-2.745-2.169-3.97c-0.344-0.85-0.719-2.019-0.738-2.301
		c-0.012-0.219-0.012-0.219,0.55-0.469c1.163-0.519,3.138-1.1,4.364-1.288l0.356-0.056v4.039v4.045l-0.563,0.075
		c-0.306,0.038-0.769,0.144-1.025,0.225C126.39,142.052,126.39,142.052,126.083,141.602z"/>
	<path class="st1" d="M167.671,140.208c-2.507-2.219-5.339-4.383-8.284-6.327c-0.813-0.538-1.532-1.007-1.588-1.038
		c-0.1-0.063-0.094-0.094,0.081-0.375c0.363-0.594,0.719-1.625,0.806-2.326c0.019-0.181,0.069-0.331,0.106-0.331
		c0.263,0,1.738,0.15,2.57,0.256c3.276,0.419,6.908,1.407,9.822,2.67c0.65,0.281,0.625,0.181,0.338,1.294
		c-0.381,1.469-0.9,2.832-1.663,4.364c-0.438,0.875-1.238,2.194-1.425,2.351C168.378,140.796,168.178,140.652,167.671,140.208z"/>
	<path class="st1" d="M29.234,136.388c-0.131-0.244-0.631-1.826-0.813-2.576c-0.369-1.538-0.538-2.813-0.606-4.676l-0.044-1.132
		l0.675,0.219c1.676,0.531,3.814,0.969,5.789,1.194c1.35,0.15,4.639,0.15,5.989,0c0.525-0.063,0.969-0.1,0.975-0.094
		c0.006,0.012,0.056,0.3,0.113,0.644c0.056,0.344,0.175,0.875,0.263,1.182c0.088,0.306,0.15,0.569,0.131,0.581
		c-0.038,0.038-12.304,4.77-12.36,4.77C29.315,136.501,29.265,136.451,29.234,136.388L29.234,136.388z"/>
	<path class="st1" d="M149.953,135.094c-1.676-0.275-3.451-1.282-5.721-3.251c-0.781-0.675-0.781-0.675-0.631-0.869
		c1.832-2.413,3.695-5.458,4.995-8.165c2.901-6.039,4.514-12.341,4.927-19.287c0.081-1.382,0.038-5.77-0.069-6.783
		c-0.056-0.594-0.056-0.594,0.425-1.063c0.713-0.694,1.5-1.069,4.245-2.007c2.476-0.85,3.526-1.294,4.483-1.913
		c0.231-0.15,0.431-0.269,0.444-0.256c0.044,0.063,0.319,3.282,0.413,4.864c0.094,1.625,0.094,6.046,0,7.565
		c-0.444,7.246-1.726,13.323-4.039,19.162c-0.869,2.194-1.182,2.82-3.595,7.127c-2.326,4.151-2.326,4.151-2.838,4.401
		C152.041,135.094,150.96,135.263,149.953,135.094L149.953,135.094z M148.972,132.424c2.132-1.45,4.526-5.377,6.533-10.741
		c2.976-7.934,4.589-17.724,3.795-23.007c-0.194-1.307-0.669-2.97-0.8-2.813c-0.012,0.019-0.213,0.35-0.45,0.744l-0.425,0.713
		l0.081,2.632c0.088,2.776,0.05,4.351-0.156,6.352c-0.481,4.626-1.719,9.322-3.895,14.754c-0.944,2.351-1.888,4.489-3.945,8.921
		c-0.656,1.419-1.194,2.607-1.194,2.645C148.515,132.724,148.559,132.706,148.972,132.424L148.972,132.424z"/>
	<path class="st1" d="M170.991,131.124c-2.426-0.994-5.452-1.838-8.015-2.251c-1.063-0.163-2.895-0.375-3.307-0.375
		c-0.175,0-0.331-0.013-0.35-0.031c-0.019-0.019,0.313-0.775,0.738-1.676c0.875-1.869,0.606-1.6,2.62-2.62
		c2.457-1.244,4.808-2.144,7.158-2.745c0.394-0.1,0.763-0.181,0.819-0.181c0.188,0,0.832,2.132,1.144,3.782
		c0.288,1.507,0.375,2.407,0.375,3.939c0.006,1.782-0.056,2.538-0.2,2.526C171.91,131.487,171.472,131.324,170.991,131.124
		L170.991,131.124z"/>
	<path class="st1" d="M35.761,128.148c-2.301-0.15-4.745-0.606-6.89-1.288c-0.719-0.225-0.832-0.275-0.832-0.388
		c0-0.075,0.138-0.85,0.306-1.732c0.431-2.263,0.963-3.82,1.963-5.764l0.444-0.857l0.719,0.706c2.67,2.607,5.545,4.651,9.197,6.527
		c0.531,0.275,1.007,0.513,1.05,0.525c0.056,0.019,0.013,0.275-0.175,1.019c-0.138,0.55-0.263,1.007-0.281,1.025
		C41.125,128.061,36.993,128.229,35.761,128.148L35.761,128.148z"/>
	<path class="st1" d="M41.257,124.066c-3.232-1.663-5.752-3.395-8.203-5.645c-1-0.919-1.544-1.513-1.494-1.632
		c0.044-0.119,0.832-1.15,1.225-1.607c0.932-1.088,2.213-2.288,3.426-3.207c0.638-0.481,0.638-0.481,0.807-0.188
		c1.244,2.182,2.169,3.539,3.52,5.145c1.194,1.419,2.795,2.982,4.245,4.145c0.381,0.306,0.7,0.581,0.7,0.606
		c0,0.019-0.113,0.1-0.244,0.175c-0.819,0.463-1.938,1.519-2.501,2.357l-0.3,0.456L41.257,124.066L41.257,124.066z"/>
	<path class="st1" d="M162.032,122.046c0.819-2.251,1.669-5.295,2.263-8.102c0.15-0.738,0.294-1.35,0.313-1.369
		c0.056-0.056,2.132,2.063,2.682,2.738c0.663,0.819,1.363,1.813,1.888,2.682c0.425,0.713,0.994,1.813,0.95,1.851
		c-0.013,0.012-0.431,0.138-0.925,0.275c-2.176,0.594-4.97,1.669-6.996,2.688c-0.275,0.138-0.506,0.25-0.519,0.25
		S161.832,122.603,162.032,122.046L162.032,122.046z"/>
	<path class="st1" d="M46.189,120.358c-1.482-1.119-3.726-3.257-4.827-4.583c-1.107-1.338-2.151-2.826-3.007-4.308
		c-0.4-0.681-0.4-0.681-0.244-0.806c0.194-0.163,1.688-0.882,3.182-1.544c0.969-0.425,3.007-1.125,3.276-1.125
		c0.044,0,0.256,0.325,0.475,0.725c1.207,2.188,2.851,4.358,4.852,6.402l1.075,1.094l-1.032,1.125
		c-1.063,1.163-3.201,3.345-3.282,3.345C46.633,120.683,46.427,120.54,46.189,120.358z"/>
	<path class="st1" d="M49.997,119.358c4.189-4.37,6.114-7.121,7.415-10.616c1.113-2.976,1.569-5.777,1.494-9.184
		c-0.094-4.42-1.138-8.559-3.264-12.923c-0.882-1.813-1.394-2.701-2.813-4.864c-0.106-0.156-0.031-0.125,0.563,0.244
		c1.719,1.063,3.501,2.501,4.764,3.845c2.851,3.045,4.645,7.021,5.183,11.503c0.138,1.113,0.156,3.682,0.031,4.751
		c-0.25,2.232-0.769,4.339-1.575,6.377c-0.3,0.763-1.269,2.676-1.744,3.426c-1.569,2.494-3.645,4.626-6.064,6.221
		c-1.282,0.844-3.307,1.807-4.708,2.238C48.915,120.483,48.915,120.483,49.997,119.358z"/>
	<path class="st1" d="M147.227,118.783c-3.676-1.963-6.477-4.858-8.34-8.634c-1.107-2.238-1.726-4.295-2.069-6.846
		c-0.163-1.182-0.219-3.489-0.125-4.658c0.575-6.921,3.882-12.779,9.197-16.28c1.669-1.1,2.951-1.688,5.564-2.545
		c3.414-1.125,5.383-2.426,6.471-4.264c0.144-0.25,0.356-0.719,0.463-1.044c1.182-3.564-1.069-8.284-7.146-15.005
		c-1.175-1.3-4.72-5.045-4.808-5.083c-0.025-0.013-0.406-0.375-0.844-0.806s-1.113-1.05-1.494-1.382
		c-0.388-0.331-0.694-0.606-0.688-0.613c0.063-0.069,1.563-0.631,2.138-0.8c4.595-1.394,9.841-0.85,14.567,1.507
		c2.219,1.107,4.045,2.413,5.752,4.114c1.463,1.457,2.438,2.751,3.595,4.77c1.369,2.388,2.151,4.714,2.538,7.546
		c0.163,1.138,0.163,4.158,0.006,5.283c-0.619,4.439-2.301,8.29-4.989,11.41c-0.625,0.731-1.944,2.013-2.62,2.551
		c-0.631,0.506-1.782,1.294-2.438,1.669c-0.256,0.144-0.656,0.394-0.888,0.544c-0.725,0.475-1.582,0.832-3.707,1.532
		c-2.851,0.938-3.526,1.275-4.877,2.432c-2.288,1.957-3.195,5.395-2.251,8.528c0.169,0.563,0.538,1.357,0.875,1.882
		c0.231,0.356,0.231,0.356,0.1,1.55c-0.35,3.145-0.963,6.108-1.857,9.053c-0.494,1.619-1.325,3.87-1.438,3.907
		C147.884,119.108,147.577,118.964,147.227,118.783L147.227,118.783z M147.177,117.314c0.319-0.194,0.538-0.531,0.575-0.882
		c0.038-0.406-0.075-0.656-0.381-0.882c-0.463-0.331-0.957-0.319-1.363,0.05c-0.288,0.263-0.394,0.588-0.338,1.019
		C145.758,117.264,146.615,117.657,147.177,117.314L147.177,117.314z M144.683,115.363c0.356-0.175,0.538-0.438,0.569-0.832
		c0.056-0.669-0.331-1.107-1.019-1.15c-0.325-0.025-0.438,0-0.656,0.119c-0.588,0.331-0.713,1.094-0.269,1.625
		C143.632,115.507,144.189,115.601,144.683,115.363z M147.309,114.363c0.644-0.244,1.032-1.188,0.706-1.713
		c-0.269-0.431-0.982-0.563-1.5-0.281c-0.381,0.213-0.563,0.5-0.563,0.888C145.952,114.038,146.652,114.613,147.309,114.363
		L147.309,114.363z M142.788,113.131c0.475-0.281,0.588-0.857,0.269-1.4c-0.219-0.375-0.5-0.55-0.882-0.55
		c-0.338,0-0.556,0.1-0.813,0.369c-0.15,0.156-0.188,0.263-0.213,0.55c-0.05,0.731,0.463,1.263,1.144,1.175
		C142.47,113.256,142.688,113.187,142.788,113.131z M145.458,112.35c0.656-0.444,0.669-1.344,0.019-1.794
		c-0.306-0.206-0.844-0.244-1.175-0.088c-0.713,0.344-0.606,1.519,0.181,1.951C144.708,112.543,145.227,112.506,145.458,112.35z
		 M149.484,111.649c0.088-0.081,0.156-0.194,0.156-0.25c0-0.15-0.288-0.406-0.463-0.406c-0.081,0-0.2,0.044-0.25,0.1
		c-0.119,0.113-0.131,0.531-0.025,0.638C149.028,111.856,149.322,111.818,149.484,111.649L149.484,111.649z M147.927,111.312
		c0.669-0.306,0.775-1.157,0.194-1.507c-0.381-0.231-0.85-0.094-1.107,0.325c-0.244,0.406-0.094,0.982,0.319,1.188
		C147.596,111.456,147.609,111.456,147.927,111.312L147.927,111.312z M141.113,110.649c0.381-0.188,0.594-0.463,0.638-0.819
		c0.038-0.363-0.019-0.544-0.244-0.8c-0.356-0.413-1.038-0.525-1.425-0.238c-0.313,0.225-0.444,0.5-0.444,0.9
		C139.637,110.58,140.338,111.037,141.113,110.649z M143.745,109.999c0.3-0.138,0.456-0.388,0.456-0.725
		c0-0.331-0.163-0.563-0.5-0.719c-0.269-0.125-0.319-0.131-0.538-0.056c-0.369,0.138-0.65,0.431-0.65,0.694s0.206,0.588,0.494,0.781
		C143.264,110.149,143.401,110.149,143.745,109.999z M145.871,109.861c0.181-0.156-0.012-0.656-0.275-0.719
		c-0.55-0.138-0.882,0.538-0.375,0.763C145.433,109.999,145.727,109.98,145.871,109.861z M149.766,109.211
		c0.675-0.35,0.356-1.469-0.425-1.494c-0.538-0.013-0.825,0.3-0.825,0.907c0,0.269,0.031,0.344,0.181,0.5
		c0.163,0.156,0.231,0.181,0.538,0.181C149.428,109.305,149.666,109.261,149.766,109.211z M139.881,107.717
		c0.832-0.431,0.807-1.607-0.038-1.763c-0.519-0.1-1.082,0.313-1.082,0.794c0,0.281,0.169,0.65,0.388,0.844
		C139.4,107.823,139.606,107.854,139.881,107.717L139.881,107.717z M150.241,106.892c0.125-0.188,0.063-0.563-0.119-0.675
		c-0.138-0.088-0.406,0.056-0.538,0.288c-0.088,0.15-0.088,0.175,0.025,0.3C149.859,107.079,150.097,107.117,150.241,106.892z
		 M139.018,105.435c0.263-0.263,0.256-0.619-0.012-0.844c-0.25-0.213-0.444-0.206-0.694,0.019c-0.169,0.15-0.206,0.225-0.206,0.431
		C138.106,105.579,138.643,105.81,139.018,105.435L139.018,105.435z M167.171,60.128c0.231-0.238,0.231-0.656,0-0.869
		c-0.194-0.181-0.331-0.194-0.588-0.063c-0.375,0.194-0.4,0.644-0.056,0.932C166.771,60.334,166.958,60.334,167.171,60.128
		L167.171,60.128z M152.892,59.559c0.363-0.25,0.419-0.556,0.15-0.8c-0.338-0.313-1.032-0.1-1.075,0.331
		C151.922,59.527,152.51,59.821,152.892,59.559z M165.527,58.696c0.538-0.281,0.575-1.169,0.056-1.438
		c-0.575-0.294-1.313,0.088-1.313,0.681C164.27,58.583,164.952,58.99,165.527,58.696z M155.155,58.227
		c0.225-0.175,0.319-0.45,0.288-0.819c-0.1-1.038-1.55-0.925-1.55,0.119c0,0.306,0.125,0.588,0.325,0.725
		C154.423,58.396,154.961,58.383,155.155,58.227z M152.079,57.689c0.281-0.256,0.363-0.525,0.25-0.863
		c-0.219-0.669-1.113-0.725-1.5-0.088c-0.156,0.263-0.156,0.431,0,0.738c0.15,0.3,0.381,0.431,0.731,0.438
		C151.779,57.914,151.872,57.877,152.079,57.689z M159.462,57.458c0.288-0.194,0.35-0.4,0.256-0.838
		c-0.088-0.431-0.225-0.581-0.556-0.625c-0.481-0.063-0.938,0.294-0.994,0.781C158.093,57.414,158.9,57.839,159.462,57.458
		L159.462,57.458z M161.769,57.358c0.344-0.338,0.325-0.731-0.031-0.9c-0.313-0.15-0.45-0.131-0.663,0.075
		c-0.3,0.306-0.231,0.75,0.15,0.913C161.507,57.571,161.569,57.564,161.769,57.358L161.769,57.358z M163.314,56.845
		c0.581-0.219,0.757-0.938,0.325-1.363c-0.338-0.344-0.894-0.313-1.213,0.063c-0.125,0.15-0.156,0.256-0.156,0.519
		c0,0.381,0.15,0.625,0.463,0.763C162.97,56.927,163.088,56.933,163.314,56.845z M156.974,56.295c0.813-0.5,0.319-1.957-0.669-1.957
		c-0.356,0-0.763,0.219-0.963,0.513c-0.125,0.181-0.144,0.281-0.125,0.594c0.025,0.425,0.188,0.713,0.513,0.919
		C155.993,56.527,156.655,56.495,156.974,56.295L156.974,56.295z M153.842,55.714c0.588-0.331,0.706-1.082,0.256-1.619
		c-0.225-0.263-0.475-0.375-0.844-0.381c-0.7,0-1.019,0.338-1.019,1.088c0,0.463,0.1,0.656,0.469,0.913
		C152.985,55.901,153.498,55.901,153.842,55.714z M150.603,55.639c0.244-0.1,0.638-0.588,0.694-0.857
		c0.069-0.306-0.025-0.606-0.256-0.869c-0.419-0.463-1.038-0.556-1.513-0.225c-0.319,0.219-0.45,0.463-0.45,0.838
		c0,0.406,0.288,0.85,0.681,1.057C150.078,55.745,150.309,55.764,150.603,55.639L150.603,55.639z M161.357,55.551
		c0.106-0.063,0.256-0.213,0.338-0.331c0.125-0.181,0.144-0.275,0.125-0.625c-0.025-0.506-0.231-0.819-0.663-1.007
		c-0.488-0.219-0.932-0.081-1.244,0.388c-0.2,0.288-0.2,0.869,0,1.219C160.188,55.689,160.844,55.851,161.357,55.551L161.357,55.551
		z M158.331,54.038c0.331-0.169,0.519-0.45,0.544-0.838c0.031-0.375-0.094-0.613-0.456-0.888c-0.206-0.163-0.288-0.181-0.688-0.181
		c-0.506,0-0.694,0.094-0.944,0.469c-0.175,0.25-0.181,0.556-0.025,0.863C157.074,54.076,157.762,54.326,158.331,54.038
		L158.331,54.038z M148.184,53.219c0.544-0.263,0.763-1.013,0.431-1.5c-0.413-0.606-1.525-0.644-1.869-0.063
		c-0.15,0.256-0.144,0.907,0.012,1.194C147.002,53.313,147.646,53.482,148.184,53.219z M154.567,53.125
		c0.463-0.194,0.763-0.594,0.763-1.025c0-1.063-1.544-1.382-2.038-0.425c-0.156,0.3-0.125,0.706,0.081,1.032
		C153.667,53.182,154.086,53.332,154.567,53.125z M151.385,52.825c0.475-0.25,0.731-0.832,0.569-1.313
		c-0.144-0.45-0.75-0.781-1.269-0.7c-0.55,0.088-0.788,0.35-0.838,0.907c-0.031,0.431,0.15,0.838,0.475,1.05
		C150.572,52.938,151.11,52.963,151.385,52.825L151.385,52.825z"/>
	<path class="st1" d="M50.728,113.95c-1.3-1.325-2.357-2.613-3.282-3.989c-0.6-0.894-1.569-2.52-1.519-2.551
		c0.713-0.425,1.269-0.875,1.951-1.563l0.8-0.806l3.482,1.988c1.913,1.088,3.495,1.994,3.514,2.007
		c0.081,0.069-1.213,2.451-1.926,3.551c-0.338,0.525-1.307,1.857-1.744,2.394C51.885,115.125,51.885,115.125,50.728,113.95z"/>
	<path class="st1" d="M36.893,108.692c-0.05-0.338-0.213-2.194-0.288-3.357c-0.181-2.713-0.181-7.177,0-9.878
		c0.763-11.316,3.995-20.969,9.472-28.277c0.882-1.182,1.1-1.4,1.563-1.575c2.382-0.882,5.064,0.156,8.428,3.263l0.425,0.394
		l-0.606,0.813c-4.814,6.433-7.959,14.779-9.053,24.038c-0.344,2.907-0.475,5.12-0.475,8.221c-0.006,2.188-0.006,2.188-0.394,2.482
		c-1.044,0.781-1.857,1.15-4.42,2.019c-2.488,0.844-3.276,1.182-4.264,1.851C36.93,108.93,36.93,108.93,36.893,108.692z
		 M41.844,104.447c0.188-0.463,0.25-0.688,0.363-1.363c0.088-0.525,0.106-1.2,0.119-4.22c0.006-3.207,0.025-3.72,0.138-4.751
		c0.569-4.97,1.726-9.29,4.014-15.042c0.788-1.988,1.582-3.839,3.351-7.809c0.781-1.751,1.432-3.226,1.45-3.263
		c0.069-0.175-0.163-0.063-0.675,0.319c-2.282,1.713-4.758,6.133-6.808,12.135c-2.682,7.884-3.945,16.499-3.12,21.35
		c0.063,0.394,0.194,0.975,0.281,1.282c0.163,0.575,0.631,1.657,0.713,1.657C41.694,104.741,41.776,104.61,41.844,104.447z"/>
	<path class="st1" d="M52.823,105.735c-1.851-1.063-3.364-1.969-3.357-2.013c0.006-0.038,0.106-0.325,0.231-0.638
		c0.119-0.306,0.256-0.769,0.306-1.019c0.056-0.256,0.106-0.469,0.119-0.481c0.081-0.081,1.851-0.169,2.707-0.138
		c1.438,0.056,2.651,0.25,4.239,0.681c0.488,0.125,0.488,0.125,0.45,0.419c-0.125,0.9-0.306,1.932-0.444,2.507
		c-0.181,0.756-0.756,2.545-0.832,2.588C56.218,107.661,54.68,106.804,52.823,105.735L52.823,105.735z"/>
	<path class="st1" d="M56.705,100.577c-1.575-0.413-2.319-0.494-4.551-0.494c-1.982,0-1.982,0-1.988-0.313
		c0-0.169-0.038-0.575-0.075-0.888c-0.081-0.581-0.081-0.581,0.381-0.775c1.857-0.769,4.051-1.457,5.958-1.863l0.857-0.175
		l0.069,0.475c0.288,1.901,0.4,4.289,0.206,4.251C57.537,100.79,57.155,100.69,56.705,100.577L56.705,100.577z"/>
	<path class="st1" d="M49.297,96.426c-0.25-0.5-0.25-0.5,0.213-1.425c0.544-1.063,1-1.807,1.626-2.638
		c0.538-0.719,1.525-1.751,2.163-2.269c0.619-0.5,1.763-1.244,1.819-1.188c0.088,0.088,0.619,1.469,0.963,2.488
		c0.294,0.869,0.907,3.063,0.907,3.257c0,0.038-0.438,0.156-0.969,0.269c-1.732,0.356-3.701,0.95-5.552,1.669
		c-0.481,0.188-0.882,0.338-0.894,0.338S49.434,96.701,49.297,96.426z"/>
	<path class="st1" d="M49.009,92.8c0.019-0.119,0.106-0.65,0.194-1.182c0.463-2.801,1.15-5.514,2.044-8.09l0.388-1.107l0.244,0.388
		c0.556,0.882,1.413,2.401,1.988,3.551c0.619,1.213,0.619,1.213,0.413,1.338c-2.007,1.2-3.439,2.563-4.77,4.551
		c-0.263,0.388-0.494,0.719-0.506,0.738C48.984,93.006,48.99,92.919,49.009,92.8L49.009,92.8z"/>
	<path class="st1" d="M34.655,86.998c-3.97-3.651-6.277-8.009-6.84-12.891c-0.138-1.219-0.094-3.601,0.088-4.783
		c0.938-6.052,4.401-11.585,9.565-15.273c3.026-2.163,6.371-3.489,10.047-3.989c1.119-0.15,3.62-0.156,4.72-0.006
		c3.457,0.469,6.496,1.632,9.453,3.614c1.213,0.813,1.788,1.282,2.645,2.144c0.456,0.463,1.069,1,1.407,1.244
		c0.681,0.481,1.869,1.088,2.595,1.332c2.013,0.663,4.201,0.569,5.877-0.256c1.388-0.681,2.876-2.419,4.076-4.751
		c0.625-1.219,0.944-1.957,1.894-4.376c1.007-2.57,1.563-3.826,2.107-4.758c0.1-0.169,0.344-0.713,0.544-1.213
		c1.394-3.451,2.907-6.214,4.639-8.44c0.763-0.982,2.319-2.557,3.282-3.326c0.713-0.563,0.844-0.706,1.225-1.263
		c1.263-1.876,3.414-3.376,6.833-4.776c0.5-0.2,1.119-0.506,1.375-0.669c4.289-2.77,7.54-3.951,9.641-3.501
		c1.044,0.219,1.863,0.863,2.351,1.844c0.144,0.294,0.263,0.575,0.256,0.625c0,0.05-0.294,0.281-0.65,0.513
		c-1.626,1.063-4.501,3.42-6.89,5.639l-0.356,0.331l0.394,0.456c0.869,1.007,1.438,2.213,1.544,3.282
		c0.044,0.419,0.044,0.419-1.157-0.556c-0.663-0.538-1.25-0.975-1.307-0.975c-0.063-0.006-0.375-0.038-0.706-0.081
		c-0.594-0.081-0.594-0.081-1.25,0.763c-3.501,4.526-5.514,6.858-7.471,8.659c-1.832,1.688-3.851,3.145-5.489,3.957
		c-0.744,0.369-0.631,0.425,0.338,0.181c3.545-0.907,6.49-3.107,9.909-7.383c0.631-0.788,1.463-1.894,3.37-4.483
		c0.631-0.857,0.631-0.857,0.932-0.863c0.294,0,0.319,0.013,0.938,0.581c1.475,1.344,2.007,1.613,2.407,1.207
		c0.163-0.156,0.169-0.194,0.163-0.744c-0.006-0.394-0.063-0.769-0.169-1.188c-0.163-0.613-0.6-1.619-0.863-1.994
		c-0.081-0.106-0.119-0.206-0.081-0.219c0.031-0.013,0.431-0.269,0.894-0.575c0.7-0.469,0.863-0.55,0.963-0.5
		c0.256,0.138,1.594,1.55,1.857,1.951c0.275,0.431,0.275,0.431,0.038,0.907c-1.457,2.957-3.789,6.283-7.602,10.828
		c-5.364,6.396-5.746,6.877-7.04,8.921c-1.788,2.807-2.201,3.526-2.501,4.314c-0.388,1.044-1.425,3.088-2.051,4.07
		c-3.264,5.095-8.34,8.884-14.123,10.547c-1.15,0.325-2.251,0.556-3.545,0.731c-1.175,0.156-3.739,0.188-4.845,0.063
		c-4.214-0.5-7.859-2.069-11.066-4.77c-2.063-1.744-2.451-2.044-3.276-2.557c-1.025-0.638-2.069-1.075-3.051-1.288
		c-0.775-0.163-1.963-0.138-2.732,0.063c-3.939,1.019-7.265,6.064-10.072,15.261c-0.606,2.001-0.982,3.364-1.776,6.514l-0.663,2.638
		L34.655,86.998L34.655,86.998z M34.836,85.704c0.175-0.119,0.331-0.444,0.331-0.7c-0.006-0.319-0.213-0.675-0.469-0.794
		c-0.569-0.269-1.157,0.15-1.157,0.825C33.542,85.679,34.286,86.06,34.836,85.704z M32.898,83.297c0.3-0.181,0.413-0.45,0.381-0.888
		c-0.019-0.263-0.063-0.406-0.156-0.494c-0.163-0.163-0.538-0.213-0.888-0.106c-0.25,0.075-0.288,0.113-0.431,0.45
		c-0.163,0.369-0.163,0.369-0.013,0.65C32.054,83.391,32.491,83.547,32.898,83.297L32.898,83.297z M35.53,82.859
		c0.375-0.225,0.506-0.838,0.263-1.232c-0.163-0.269-0.506-0.363-0.975-0.269c-0.375,0.081-0.525,0.238-0.65,0.681
		c-0.05,0.181-0.031,0.244,0.131,0.481c0.1,0.15,0.244,0.313,0.319,0.369C34.817,83.028,35.28,83.009,35.53,82.859L35.53,82.859z
		 M33.673,81.422c0.281-0.156,0.406-0.781,0.2-1.013c-0.225-0.25-0.75-0.081-0.882,0.288c-0.075,0.206-0.069,0.25,0.05,0.444
		C33.242,81.465,33.429,81.547,33.673,81.422z M31.322,81.015c0.225-0.219,0.206-0.494-0.038-0.725
		c-0.363-0.344-0.882-0.138-0.882,0.344C30.403,81.128,30.972,81.365,31.322,81.015z M36.386,80.534
		c0.169-0.075,0.344-0.338,0.344-0.519c0-0.213-0.181-0.45-0.375-0.488c-0.35-0.075-0.538,0.006-0.644,0.281
		c-0.119,0.294-0.069,0.475,0.181,0.669C36.086,80.628,36.161,80.64,36.386,80.534L36.386,80.534z M65.646,63.904
		c0.181-0.081,0.344-0.344,0.344-0.544c0-0.144-0.275-0.488-0.431-0.538c-0.3-0.094-0.738,0.338-0.656,0.656
		c0.044,0.188,0.2,0.369,0.369,0.444C65.439,63.991,65.458,63.991,65.646,63.904z M67.765,62.678c0.344-0.2,0.444-0.413,0.444-0.919
		c0-0.4-0.019-0.481-0.156-0.625c-0.238-0.256-0.456-0.344-0.857-0.344c-1.225,0-1.657,1.313-0.613,1.863
		C67.002,62.872,67.415,62.878,67.765,62.678z M69.916,62.585c0.15-0.144,0.181-0.438,0.069-0.688
		c-0.131-0.294-0.75-0.275-0.9,0.025c-0.194,0.369-0.088,0.706,0.25,0.8C69.572,62.785,69.734,62.747,69.916,62.585z M64.239,62.528
		c0.544-0.275,0.706-0.813,0.419-1.369c-0.331-0.631-1.05-0.838-1.607-0.469c-0.569,0.375-0.588,1.157-0.031,1.707
		c0.244,0.25,0.288,0.269,0.606,0.269C63.851,62.666,64.051,62.622,64.239,62.528L64.239,62.528z M72.71,61.822
		c0.219-0.213,0.206-0.488-0.025-0.725c-0.413-0.406-0.944-0.088-0.888,0.538C71.822,61.978,72.435,62.103,72.71,61.822z
		 M58.762,61.347c0.488-0.381,0.5-1.225,0.025-1.469c-0.206-0.106-0.4-0.113-0.775-0.013c-0.238,0.069-0.313,0.119-0.381,0.281
		c-0.044,0.113-0.081,0.294-0.081,0.406c0,0.275,0.231,0.725,0.425,0.832C58.224,61.516,58.568,61.503,58.762,61.347z
		 M70.309,61.153c0.481-0.163,0.781-0.556,0.85-1.107c0.038-0.313,0.031-0.313-0.306-0.65c-0.406-0.406-0.6-0.469-1.075-0.331
		c-0.594,0.175-0.85,0.606-0.769,1.3c0.044,0.369,0.2,0.575,0.575,0.744C69.878,61.247,70.022,61.253,70.309,61.153L70.309,61.153z
		 M61.407,60.546c0.15-0.075,0.344-0.231,0.456-0.394c0.175-0.238,0.194-0.306,0.175-0.588c-0.031-0.394-0.213-0.656-0.588-0.875
		c-0.413-0.244-0.863-0.238-1.182,0c-0.594,0.456-0.625,1.069-0.075,1.588c0.213,0.206,0.588,0.381,0.825,0.381
		C61.088,60.659,61.263,60.609,61.407,60.546L61.407,60.546z M66.971,60.44c0.25-0.125,0.619-0.575,0.675-0.844
		c0.063-0.275-0.188-0.731-0.513-0.957c-0.338-0.238-0.932-0.3-1.232-0.138c-0.6,0.325-0.663,1.169-0.119,1.669
		C66.177,60.54,66.571,60.628,66.971,60.44L66.971,60.44z M72.673,60.19c0.219-0.181,0.25-0.419,0.1-0.706
		c-0.1-0.206-0.206-0.256-0.506-0.256c-0.175,0-0.238,0.038-0.338,0.206c-0.181,0.294-0.163,0.625,0.038,0.788
		C72.191,60.396,72.441,60.384,72.673,60.19z M74.198,59.79c0.238-0.188,0.325-0.506,0.206-0.738
		c-0.206-0.406-0.807-0.356-0.963,0.075c-0.1,0.275-0.094,0.35,0.05,0.588c0.1,0.163,0.163,0.2,0.338,0.2
		C73.942,59.915,74.111,59.859,74.198,59.79L74.198,59.79z M56.611,59.69c0.525-0.444,0.5-1.138-0.063-1.363
		c-0.656-0.263-1.132,0.069-1.144,0.794c-0.006,0.281,0.019,0.331,0.225,0.519C55.93,59.921,56.311,59.94,56.611,59.69z
		 M64.245,59.084c0.269-0.175,0.431-0.5,0.431-0.844c0-0.65-0.594-1.132-1.319-1.063c-0.5,0.05-0.813,0.431-0.819,0.982
		c0,0.644,0.456,1.057,1.175,1.063C63.945,59.227,64.089,59.19,64.245,59.084L64.245,59.084z M59.519,58.383
		c0.288-0.163,0.469-0.463,0.469-0.763c0-0.25-0.338-0.925-0.525-1.05c-0.2-0.131-0.619-0.131-1.057-0.006
		c-0.319,0.094-0.35,0.119-0.475,0.406c-0.381,0.888,0.019,1.569,0.925,1.569C59.168,58.54,59.312,58.508,59.519,58.383
		L59.519,58.383z M54.236,57.758c0.513-0.269,0.719-1.007,0.356-1.319c-0.263-0.225-0.619-0.313-0.863-0.213
		c-0.531,0.225-0.756,0.625-0.581,1.057C53.348,57.789,53.798,57.983,54.236,57.758L54.236,57.758z M62.051,56.964
		c0.375-0.194,0.563-0.519,0.563-1.007c0-0.413-0.1-0.644-0.369-0.875c-0.563-0.475-1.563-0.119-1.751,0.619
		C60.256,56.627,61.2,57.389,62.051,56.964L62.051,56.964z M56.855,56.608c0.681-0.35,0.863-0.982,0.444-1.575
		c-0.431-0.6-1.5-0.563-1.888,0.063c-0.281,0.45-0.081,1.188,0.4,1.5C56.08,56.764,56.536,56.77,56.855,56.608z M52.673,55.695
		c0.1-0.05,0.281-0.219,0.394-0.375c0.388-0.506,0.363-0.969-0.081-1.369c-0.794-0.713-2.063-0.244-1.982,0.731
		C51.072,55.464,52.016,56.033,52.673,55.695z M59.456,55.17c0.138-0.063,0.338-0.213,0.45-0.325c0.5-0.531,0.431-1.113-0.181-1.532
		c-0.219-0.156-0.319-0.181-0.675-0.181c-0.363,0-0.45,0.025-0.644,0.175c-0.3,0.225-0.419,0.469-0.419,0.825
		c0,0.431,0.263,0.863,0.656,1.082C58.831,55.32,59.175,55.301,59.456,55.17L59.456,55.17z M44.051,54.92
		c0.338-0.344,0.181-0.882-0.256-0.882c-0.556,0-0.838,0.544-0.469,0.907C43.539,55.164,43.814,55.151,44.051,54.92z M39.194,54.788
		c0.094-0.031,0.206-0.156,0.263-0.275c0.1-0.2,0.1-0.225-0.019-0.456c-0.256-0.488-0.725-0.494-0.925,0
		c-0.125,0.306-0.044,0.563,0.213,0.7C38.918,54.864,38.987,54.87,39.194,54.788L39.194,54.788z M48.734,54.495
		c0.419-0.375,0.35-1.182-0.125-1.425c-0.6-0.313-1.25,0.188-1.169,0.9c0.025,0.225,0.081,0.325,0.256,0.488
		c0.188,0.175,0.269,0.206,0.538,0.206C48.484,54.663,48.584,54.632,48.734,54.495L48.734,54.495z M42.276,54.232
		c0.625-0.288,0.613-1.157-0.019-1.419c-0.256-0.106-0.469-0.113-0.788-0.013c-0.438,0.131-0.625,0.731-0.363,1.163
		C41.338,54.338,41.807,54.445,42.276,54.232L42.276,54.232z M56.887,53.932c0.363-0.256,0.538-0.544,0.538-0.882
		c0-0.25-0.031-0.313-0.3-0.575c-0.463-0.469-0.988-0.55-1.45-0.231c-0.356,0.238-0.469,0.444-0.469,0.85
		c0,0.431,0.206,0.794,0.538,0.969C56.055,54.22,56.561,54.157,56.887,53.932L56.887,53.932z M45.514,53.594
		c0.338-0.088,0.694-0.45,0.756-0.769c0.081-0.463-0.131-0.95-0.519-1.182c-0.256-0.15-0.857-0.163-1.125-0.025
		c-0.594,0.313-0.688,1.188-0.175,1.701C44.77,53.632,45.064,53.707,45.514,53.594z M53.636,52.913
		c0.269-0.1,0.65-0.494,0.763-0.788c0.119-0.313,0.094-0.694-0.063-0.932c-0.256-0.388-0.819-0.619-1.25-0.506
		c-0.25,0.063-0.581,0.394-0.7,0.694C52.066,52.225,52.867,53.207,53.636,52.913z M50.066,52.7c0.4-0.163,0.725-0.725,0.644-1.119
		c-0.1-0.488-0.631-0.857-1.238-0.857c-0.294,0-0.388,0.031-0.556,0.169c-0.338,0.281-0.463,0.769-0.3,1.188
		C48.822,52.625,49.528,52.925,50.066,52.7z M96.643,33.126c1.007-0.213,1.919-1.032,2.194-1.963c0.35-1.188-0.3-2.52-1.494-3.082
		c-1.063-0.494-2.288-0.331-3.051,0.413c-0.356,0.344-0.769,1.044-0.863,1.463c-0.063,0.256-0.063,0.431-0.006,0.806
		c0.044,0.263,0.088,0.488,0.1,0.5c0.006,0.013,0.181-0.038,0.381-0.106c0.781-0.269,3.195-0.813,3.051-0.688
		c-0.025,0.025-0.638,0.475-1.35,1c-1.3,0.957-1.3,0.957-1.125,1.138c0.306,0.319,0.988,0.588,1.55,0.606
		C96.136,33.213,96.411,33.176,96.643,33.126z M104.795,26.743c0.45-0.8,0.588-1.763,0.338-2.313
		c-0.206-0.456-0.731-0.775-1.275-0.775c-0.2,0-0.231,0.025-0.294,0.225c-0.094,0.275-0.044,0.756,0.094,1.032
		c0.056,0.106,0.213,0.319,0.35,0.463c0.244,0.263,0.25,0.288,0.338,1.007c0.05,0.406,0.094,0.75,0.094,0.763s0.031,0.013,0.075,0
		C104.551,27.13,104.683,26.949,104.795,26.743L104.795,26.743z M110.941,23.054c0-0.019-0.169-0.219-0.375-0.45
		c-0.331-0.356-0.375-0.431-0.344-0.6c0.019-0.106,0.013-0.231-0.019-0.275c-0.031-0.044-0.306-0.119-0.613-0.169
		c-0.763-0.125-0.731-0.131-0.681,0.113c0.144,0.663,0.663,1.113,1.519,1.319C110.841,23.091,110.941,23.104,110.941,23.054
		L110.941,23.054z"/>
	<path class="st1" d="M148.265,76.995c-1.663-3.276-3.257-5.846-4.864-7.871c-0.269-0.338-0.581-0.75-0.7-0.925
		c-0.119-0.169-0.288-0.394-0.381-0.5c-0.088-0.1-0.431-0.494-0.75-0.875c-2.232-2.601-5.214-5.527-7.777-7.627
		c-3.257-2.67-7.127-5.152-10.334-6.627c-0.944-0.431-0.944-0.431-0.988-0.706c-0.069-0.45,0.031-1.982,0.263-4.001
		c0.3-2.657,0.363-3.751,0.275-4.776c-0.038-0.456-0.1-1.007-0.15-1.219c-0.044-0.219-0.056-0.394-0.031-0.394
		s0.494,0.181,1.038,0.4c10.353,4.158,19.919,11.478,27.121,20.763c2.332,3.007,3.839,5.208,4.62,6.777
		c1.732,3.451,1.019,5.677-2.407,7.502c-0.938,0.5-2.338,1.057-3.651,1.457l-0.5,0.156L148.265,76.995L148.265,76.995z
		 M152.766,74.294c0-0.038-0.131-0.419-0.288-0.85c-1.432-3.951-3.889-7.846-7.409-11.741c-0.994-1.1-3.395-3.482-4.433-4.389
		c-3.807-3.339-7.959-6.302-12.285-8.765c-1-0.569-1-0.569-1.938-0.606l-0.938-0.038l0.719,0.713
		c1.282,1.263,2.695,2.319,6.021,4.501c4.533,2.963,6.296,4.345,8.115,6.371c0.263,0.294,0.5,0.525,0.513,0.513
		c0.031-0.038,1.776,1.782,2.701,2.82c2.738,3.076,5.358,6.771,7.552,10.666c0.156,0.275,0.2,0.306,0.869,0.575
		C152.741,74.376,152.766,74.388,152.766,74.294z"/>
	<path class="st1" d="M126.702,71.725c-0.356-0.031-0.663-0.069-0.675-0.081s0.025-0.369,0.081-0.794
		c0.188-1.4,0.119-3.739-0.15-5.183c-0.05-0.281-0.05-0.281,1.813-0.281c1.869,0.006,1.869,0.006,2.151,0.406
		c0.494,0.706,1.132,1.826,1.582,2.757c0.406,0.844,1.007,2.438,1.007,2.682C132.51,71.562,128.615,71.9,126.702,71.725z"/>
	<path class="st1" d="M123.839,71.168c-1.182-0.356-2.151-0.731-3.151-1.232c-0.907-0.45-2.163-1.238-2.651-1.663
		c-0.25-0.225-0.25-0.225,0.194-0.681c0.857-0.875,1.932-2.332,2.551-3.439c0.131-0.231,0.256-0.438,0.275-0.45
		c0.025-0.013,0.313,0.138,0.644,0.331c0.681,0.406,1.382,0.7,2.132,0.894c0.288,0.075,0.544,0.15,0.569,0.175
		c0.069,0.063,0.275,1.363,0.356,2.251c0.113,1.269,0.063,3.051-0.113,3.851C124.601,71.4,124.601,71.4,123.839,71.168
		L123.839,71.168z"/>
	<path class="st1" d="M133.979,70.968c-0.681-1.944-1.544-3.757-2.551-5.352c-0.263-0.419-0.25-0.506,0.05-0.513
		c0.238,0,2.876-0.563,3.795-0.806l0.919-0.244l1.113,1.138c1.113,1.132,1.969,2.088,2.776,3.113l0.425,0.538l-0.857,0.381
		c-1.782,0.788-3.364,1.3-5.47,1.782C134.067,71.031,133.998,71.018,133.979,70.968z"/>
	<path class="st1" d="M116.18,66.523c-0.744-0.85-1.269-1.638-1.788-2.67c-0.269-0.531-0.594-1.288-0.725-1.682
		c-0.275-0.806-0.275-0.819,0.25-0.819c1.113,0,2.657-0.538,3.832-1.325c0.25-0.169,0.469-0.294,0.488-0.275
		c0.019,0.019,0.156,0.313,0.306,0.656c0.325,0.756,0.669,1.363,1.1,1.926c0.319,0.413,0.319,0.413,0.144,0.731
		c-0.306,0.55-1.094,1.738-1.519,2.288c-0.419,0.538-1.494,1.688-1.582,1.688C116.655,67.042,116.43,66.805,116.18,66.523
		L116.18,66.523z"/>
	<path class="st1" d="M125.796,63.941c-1.238-0.169-2.476-0.569-3.382-1.107c-0.669-0.394-0.888-0.563-1.325-1.057
		c-1.007-1.138-1.519-2.257-1.813-3.957c-0.144-0.857-0.144-3.145,0.006-4.439c0.256-2.244,0.419-3.432,0.469-3.464
		c0.219-0.144,0.406-4.426,0.263-6.083c-0.644-7.402-4.401-13.304-10.341-16.249c-0.406-0.2-0.731-0.388-0.719-0.413
		c0.006-0.025,0.163-0.188,0.344-0.35c0.325-0.3,0.325-0.3,0.938,0.056c1.826,1.069,3.47,2.344,5.02,3.901
		c1.994,1.994,3.226,3.714,4.439,6.202c0.907,1.863,1.457,3.614,1.757,5.558c0.119,0.75,0.144,1.157,0.144,2.432
		c0,1.732-0.113,2.682-0.481,4.076c-0.181,0.7-0.2,0.85-0.2,1.676c0.013,2.351,0.963,4.401,2.826,6.064
		c1.482,1.319,3.22,1.994,5.258,2.038c0.957,0.019,0.957,0.019,1.913,0.731c1.05,0.788,2.169,1.707,3.307,2.726
		c0.613,0.544,0.719,0.663,0.619,0.7c-0.206,0.075-2.832,0.606-3.682,0.738C129.165,64.041,127.127,64.123,125.796,63.941
		L125.796,63.941z M126.808,63.191c0.075-0.05,0.181-0.175,0.231-0.275c0.088-0.169,0.088-0.206-0.012-0.419
		c-0.113-0.238-0.113-0.238-0.519-0.238c-0.4,0-0.4,0-0.488,0.231c-0.1,0.269-0.063,0.5,0.113,0.675
		C126.283,63.316,126.615,63.329,126.808,63.191z M132.304,62.978c0.45-0.269,0.525-0.925,0.15-1.263
		c-0.494-0.438-1.382-0.038-1.382,0.625C131.072,62.96,131.754,63.316,132.304,62.978L132.304,62.978z M128.934,62.541
		c0.113-0.069,0.231-0.2,0.263-0.288c0.094-0.244,0.075-0.669-0.038-0.831c-0.2-0.281-0.719-0.394-1.138-0.25
		c-0.231,0.081-0.388,0.375-0.388,0.744c0,0.225,0.038,0.3,0.244,0.506c0.213,0.219,0.275,0.244,0.544,0.244
		C128.615,62.666,128.803,62.622,128.934,62.541L128.934,62.541z M129.941,60.978c0.463-0.131,0.781-0.638,0.644-1.007
		c-0.1-0.25-0.431-0.55-0.663-0.594c-0.469-0.088-1.038,0.363-1.038,0.819c0,0.281,0.2,0.613,0.444,0.731
		C129.572,61.059,129.647,61.065,129.941,60.978z"/>
	<path class="st1" d="M113.042,59.903c-0.106-0.525-0.413-3.632-0.413-4.208c0-0.044,0.2-0.038,0.613,0.019
		c0.675,0.094,3.364,0.138,4.026,0.056c0.413-0.044,0.413-0.044,0.456,0.563c0.019,0.338,0.063,0.875,0.1,1.2
		c0.069,0.681,0.094,0.631-0.569,1.132c-1.138,0.844-2.613,1.375-3.82,1.375C113.104,60.04,113.067,60.028,113.042,59.903
		L113.042,59.903z"/>
	<path class="st1" d="M69.009,56.508c-0.744-0.2-1.45-0.688-2.726-1.876c-1.751-1.632-2.663-2.301-4.508-3.32
		c-1.157-0.638-1.219-0.419,0.494-1.707c2.907-2.182,5.564-3.826,8.847-5.47c2.813-1.407,5.202-2.382,8.315-3.401
		c1.013-0.331,3.332-1.019,3.357-0.994c0.006,0.006-0.319,0.675-0.719,1.482c-1.282,2.576-2.757,5.908-4.114,9.29l-0.681,1.701
		l-0.969,0.481c-1.938,0.963-4.026,2.157-5.802,3.32c-0.494,0.325-0.957,0.588-1.032,0.581
		C69.397,56.595,69.184,56.552,69.009,56.508L69.009,56.508z M67.427,52.619c1.257-0.363,2.438-0.932,4.408-2.132
		c2.851-1.732,3.776-2.226,4.945-2.632c0.681-0.238,0.681-0.238,0.913-0.7c0.125-0.256,0.231-0.481,0.238-0.5
		c0-0.019-0.188-0.081-0.419-0.144c-0.238-0.063-0.55-0.163-0.706-0.225c-0.281-0.113-0.281-0.113-0.844,0.188
		c-0.306,0.169-1.488,0.713-2.626,1.219c-1.132,0.5-2.413,1.1-2.845,1.319c-1.926,1.007-3.301,2.182-3.995,3.407
		c-0.106,0.194-0.194,0.369-0.194,0.394C66.302,52.888,66.815,52.8,67.427,52.619L67.427,52.619z"/>
	<path class="st1" d="M113.661,54.313c-0.444-0.05-0.85-0.1-0.888-0.119c-0.088-0.031-0.075-0.331,0.081-1.525
		c0.169-1.275,0.769-3.364,0.963-3.339c0.05,0.006,0.588,0.181,1.188,0.388c1.063,0.369,2.432,0.694,2.901,0.694
		c0.144,0,0.244,0.031,0.263,0.094c0.019,0.05-0.025,0.45-0.094,0.888c-0.075,0.438-0.188,1.257-0.25,1.819
		c-0.063,0.556-0.125,1.025-0.138,1.044c-0.019,0.013-0.281,0.056-0.588,0.094C116.33,54.438,114.648,54.42,113.661,54.313
		L113.661,54.313z"/>
	<path class="st1" d="M117.974,49.056c-0.913-0.131-2.588-0.606-3.414-0.975c-0.35-0.156-0.35-0.156-0.138-0.932
		c0.219-0.806,0.519-2.194,0.519-2.419c0-0.119,0.031-0.131,0.431-0.131c0.788,0,1.575,0.2,2.476,0.625
		c0.819,0.388,0.744,0.144,0.65,2.144C118.412,49.299,118.468,49.124,117.974,49.056L117.974,49.056z"/>
	<path class="st1" d="M111.722,48.593c-0.863-0.2-3.382-0.606-4.783-0.769c-1.776-0.213-3.589-0.35-5.202-0.4l-1.319-0.044
		l0.338-0.413c0.188-0.225,0.638-0.731,1.007-1.125c1.388-1.488,3.113-3.601,5.12-6.277c1.013-1.35,1.219-1.6,1.332-1.569
		c0.075,0.013,1.232,0.188,2.57,0.388c1.344,0.194,2.457,0.381,2.476,0.413c0.069,0.106,0.3,1.55,0.375,2.332
		c0.088,0.925,0.038,2.813-0.1,3.72c-0.188,1.207-0.5,2.432-0.919,3.551C112.479,48.774,112.491,48.768,111.722,48.593
		L111.722,48.593z M111.085,43.773c0.663-0.388,0.663-0.388,0.481-0.606c-0.094-0.125-0.288-0.331-0.425-0.463
		c-0.225-0.219-0.288-0.244-0.863-0.338c-0.369-0.063-1.019-0.106-1.619-0.106c-0.875-0.006-1.032,0.006-1.263,0.119
		c-0.263,0.125-0.263,0.125,0.138,0.781c0.406,0.656,0.406,0.656,1.482,0.819c0.594,0.094,1.157,0.169,1.244,0.175
		C110.359,44.16,110.691,44.004,111.085,43.773L111.085,43.773z"/>
	<path class="st1" d="M118.056,43.779c-0.613-0.269-1.488-0.488-2.276-0.569l-0.694-0.075l-0.038-1.319
		c-0.025-0.719-0.069-1.45-0.1-1.625c-0.031-0.169-0.05-0.319-0.044-0.325s0.275,0.013,0.6,0.05
		c2.063,0.231,2.951,1.194,3.045,3.295c0.025,0.431,0.012,0.763-0.019,0.756S118.287,43.879,118.056,43.779z"/>
	<path class="st1" d="M117.349,38.959c-0.45-0.175-1.482-0.413-2.113-0.475c-0.306-0.038-0.563-0.075-0.581-0.094
		c-0.019-0.013-0.125-0.394-0.244-0.838c-0.119-0.45-0.313-1.082-0.425-1.413c-0.219-0.594-0.219-0.594,0.213-0.638
		c0.544-0.056,1.144,0.006,1.738,0.181c0.463,0.131,0.463,0.131,0.832,0.944c0.494,1.082,0.706,1.625,0.825,2.069
		c0.05,0.2,0.088,0.369,0.081,0.375C117.668,39.077,117.524,39.027,117.349,38.959z"/>
	<path class="st1" d="M112.954,33.795c-0.144-0.263-0.513-0.819-0.819-1.232c-0.556-0.75-0.556-0.75-0.425-0.938
		c0.188-0.275,0.494-0.594,0.575-0.594c0.194,0,2.182,1.926,2.713,2.626l0.306,0.406l-0.825,0.038
		c-0.45,0.025-0.919,0.075-1.038,0.113s-0.219,0.069-0.219,0.069S113.104,34.063,112.954,33.795L112.954,33.795z"/>
	<path class="st1" d="M110.097,30.331c-0.569-0.488-1.394-1.032-2.182-1.432c-0.35-0.181-0.644-0.331-0.656-0.344
		c-0.019-0.019,0.05-0.106,0.144-0.206c0.175-0.181,0.175-0.181,0.463-0.056c0.163,0.069,0.95,0.444,1.751,0.838l1.45,0.713
		l-0.219,0.438c-0.119,0.244-0.244,0.438-0.269,0.431C110.553,30.712,110.341,30.537,110.097,30.331z"/>
	<path class="st1" d="M112.741,27.487c-0.863-0.863-0.863-0.863-1.607-1.075c-0.413-0.119-0.781-0.231-0.819-0.256
		c-0.038-0.025,0.331-0.338,0.888-0.738c0.957-0.694,0.957-0.694,1.169-0.494c0.675,0.638,1.307,2.226,1.244,3.132
		C113.598,28.343,113.598,28.343,112.741,27.487z"/>
</g>
<g>
	<path class="st2" d="M98.687,130.88c-12.366-5.339-19.206-10.259-22.495-16.167c-1.432-2.57-2.232-5.414-2.588-9.19
		c-0.131-1.432-0.1-6.802,0.063-10.159c0.075-1.532,0.169-3.557,0.206-4.501c0.094-2.063,0.094-8.478,0.012-9.984
		c-0.038-0.619-0.044-1.2-0.012-1.363c0.769-4.107,11.072-9.128,21.938-10.684c2.126-0.306,3.007-0.375,4.72-0.375
		c3.714,0.006,8.19,0.806,12.61,2.251c7.021,2.294,11.804,5.533,12.867,8.709c0.131,0.388,0.131,0.431,0.05,1.657
		c-0.1,1.644-0.1,7.759,0,9.853c0.044,0.875,0.15,2.845,0.231,4.376c0.088,1.532,0.188,3.757,0.225,4.945
		c0.188,5.57-0.35,9.365-1.813,12.723c-2.882,6.602-10.003,12.066-23.282,17.849c-0.781,0.338-1.425,0.619-1.438,0.619
		C99.975,131.437,99.394,131.186,98.687,130.88z M103.345,123.534c1.826-0.913,3.907-1.982,4.626-2.388
		c8.721-4.851,11.635-8.184,12.379-14.154c0.213-1.719,0.244-3.807,0.131-8.409c-0.069-2.945-0.1-6.439-0.1-11.003v-6.69
		l-0.531-0.438c-3.607-2.951-8.828-5.014-14.473-5.714c-1.957-0.244-2.682-0.288-5.033-0.281c-2.482,0-3.557,0.075-5.658,0.375
		c-5.827,0.838-11.028,2.863-14.661,5.72l-0.406,0.319l0.012,14.298c0.019,14.292,0.019,14.292,0.219,14.886
		c0.513,1.494,1.45,2.876,3.082,4.501c2.782,2.782,7.227,5.739,13.098,8.703c1.619,0.819,3.895,1.919,3.97,1.926
		C100.019,125.185,101.525,124.441,103.345,123.534L103.345,123.534z"/>
	<path class="st2" d="M95.742,108.117c-3.12-0.244-4.87-1.169-5.308-2.801c-0.075-0.288-0.15-3.47-0.15-6.389
		c0-2.219,0.15-3.195,0.681-4.283c0.563-1.169,1.613-1.838,2.863-1.844c0.363,0,0.363,0,0.313-0.45
		c-0.025-0.25-0.05-1.075-0.044-1.832c0-1.163,0.025-1.469,0.138-1.982c0.344-1.557,0.888-2.645,1.794-3.607
		c1.513-1.594,3.626-2.138,5.677-1.463c1.4,0.463,2.601,1.563,3.326,3.051c0.725,1.482,1.013,3.232,0.85,5.208
		c-0.044,0.494-0.094,0.938-0.106,0.975c-0.025,0.056,0.094,0.094,0.406,0.119c0.882,0.075,1.838,0.544,2.445,1.213
		c0.375,0.413,0.594,0.769,0.8,1.325c0.15,0.394,0.156,0.488,0.175,1.976c0.013,0.863,0.044,2.238,0.075,3.063
		c0.106,2.982-0.1,4.683-0.713,5.852c-0.456,0.863-1.1,1.388-1.994,1.625c-0.45,0.113-0.594,0.125-1.438,0.081
		c-1.207-0.063-2.313-0.044-4.22,0.075C99.375,108.142,96.605,108.186,95.742,108.117L95.742,108.117z M105.814,100.396v-3.845H100
		h-5.814v3.845v3.845H100h5.814V100.396z M101.938,90.718c0-2.369-0.025-2.526-0.431-2.995c-0.9-1.019-2.782-0.775-3.339,0.438
		c-0.131,0.281-0.138,0.4-0.156,2.469L97.987,92.8h1.976h1.976L101.938,90.718L101.938,90.718z"/>
	<path class="st2" d="M99.519,102.24c-0.538-0.113-0.95-0.45-1.213-0.975c-0.125-0.256-0.15-0.4-0.15-0.869
		c0-0.469,0.025-0.613,0.15-0.869c0.338-0.681,0.863-0.994,1.663-1c0.838,0,1.369,0.325,1.688,1.038
		c0.15,0.331,0.169,0.438,0.144,0.913c-0.019,0.6-0.15,0.944-0.5,1.307C100.932,102.165,100.138,102.372,99.519,102.24z"/>
</g>
</svg>
