<?xml version="1.0" encoding="UTF-8"?>
<svg version="1.1" xmlns="http://www.w3.org/2000/svg" width="200" height="200">
<path d="M0 0 C3.34265222 1.00626522 3.34265222 1.00626522 7.2578125 0.83984375 C7.9178125 0.83984375 8.5778125 0.83984375 9.2578125 0.83984375 C9.2578125 1.82984375 9.2578125 2.81984375 9.2578125 3.83984375 C11.145 4.36578125 11.145 4.36578125 13.0703125 4.90234375 C37.03446201 13.85280923 53.90521689 35.27750751 64.2578125 57.83984375 C73.69770844 82.90597519 73.66989932 110.51816935 62.5859375 135.08984375 C50.10617587 160.93029136 30.31893661 179.04097517 3.2578125 188.83984375 C-22.69317506 197.19359022 -50.64183272 194.12476486 -74.7421875 181.83984375 C-96.96409192 169.76904488 -113.66510562 149.78262217 -121.7421875 125.83984375 C-129.59362956 99.15555079 -127.59902246 73.0138888 -115.1171875 48.08984375 C-101.46753689 23.2778122 -79.58674588 6.98369854 -52.7421875 -1.16015625 C-34.68281333 -4.77203108 -17.80006215 -5.05234087 0 0 Z " fill="#CAC4C0" transform="translate(126.7421875,5.16015625)"/>
<path d="M0 0 C0.66 0.33 1.32 0.66 2 1 C2 2.65 2 4.3 2 6 C3.65 5.67 5.3 5.34 7 5 C6.01 5.99 5.02 6.98 4 8 C5.65 8 7.3 8 9 8 C9 8.66 9 9.32 9 10 C9.99 10 10.98 10 12 10 C11.67 11.32 11.34 12.64 11 14 C11.66 14 12.32 14 13 14 C13.495 15.485 13.495 15.485 14 17 C16.97804941 18.06358907 19.98022063 19.06141993 23 20 C23.99 20.66 24.98 21.32 26 22 C26 22.66 26 23.32 26 24 C26.928125 24.28875 27.85625 24.5775 28.8125 24.875 C32 26 32 26 35 28 C34.34 29.32 33.68 30.64 33 32 C32.67 32.99 32.34 33.98 32 35 C32.825 34.525625 33.65 34.05125 34.5 33.5625 C38.39202367 31.82498943 41.7740791 31.36430353 46 31 C43.69 30.01 41.38 29.02 39 28 C39 27.34 39 26.68 39 26 C45.75 25.875 45.75 25.875 48 27 C48 27.66 48 28.32 48 29 C48.99 29 49.98 29 51 29 C54.86197694 36.56303818 54.63834336 42.32503734 52.6875 50.5 C52.130625 51.985 51.57375 53.47 51 55 C49.515 55.495 49.515 55.495 48 56 C47.29373761 57.98636298 46.63106429 59.98848259 46 62 C45.01 63.32 44.02 64.64 43 66 C42.525625 67.464375 42.05125 68.92875 41.5625 70.4375 C39.98622566 75.04022109 38.49651654 78.75174173 34 81 C34.50606416 86.16185445 35.22133679 88.36889465 38 93 C40.84393721 100.68916356 41.28164432 106.92619603 41 115 C42.98 115.495 42.98 115.495 45 116 C46.6875 119 46.6875 119 48 122 C48.33 122.33 48.66 122.66 49 123 C49.36180905 134.09547739 49.36180905 134.09547739 47 140 C46.49992206 143.54213985 46.49992206 143.54213985 47 147 C48.98 148.98 48.98 148.98 51 151 C51 157 51 157 49.375 159.875 C47 162 47 162 41 162 C40.67 162.99 40.34 163.98 40 165 C39.773125 163.948125 39.54625 162.89625 39.3125 161.8125 C37.75328593 157.28335437 37.03015681 155.63510253 33 153 C29.31126289 152.46699441 25.70918942 152.24881463 21.984375 152.140625 C19 152 19 152 18 151 C17.67 151.66 17.34 152.32 17 153 C16.01 153 15.02 153 14 153 C14 153.66 14 154.32 14 155 C12.02 154.67 10.04 154.34 8 154 C5.75992289 157.28544643 3.78260827 160.43478346 2 164 C-0.31 163.34 -2.62 162.68 -5 162 C-5.020625 162.9075 -5.04125 163.815 -5.0625 164.75 C-6 168 -6 168 -8.75 170.375 C-16.33845569 173.27646835 -24.11822171 172.45783268 -32 171 C-32 169.02 -32 167.04 -32 165 C-31.34 164.67 -30.68 164.34 -30 164 C-29.01 166.475 -29.01 166.475 -28 169 C-26.02 168.01 -26.02 168.01 -24 167 C-23.67 167.99 -23.34 168.98 -23 170 C-22.01 168.02 -22.01 168.02 -21 166 C-19.35 166.99 -17.7 167.98 -16 169 C-15.67 167.35 -15.34 165.7 -15 164 C-14.34 164 -13.68 164 -13 164 C-12.67 164.99 -12.34 165.98 -12 167 C-10.68 166.67 -9.36 166.34 -8 166 C-7.49880534 161.70978388 -7.49880534 161.70978388 -8 157 C-9.94348501 155.26776336 -11.94720004 153.60118397 -14 152 C-15.25 147.75 -15.25 147.75 -16 144 C-16.66 143.67 -17.32 143.34 -18 143 C-17.505 141.02 -17.505 141.02 -17 139 C-15.9275 139.804375 -14.855 140.60875 -13.75 141.4375 C-8.46302926 145.05026334 -4.29567885 145.46291756 2 145 C7.33132448 142.88315058 10.88092709 140.86575375 14 136 C16.32753132 129.01740604 15.66427192 122.66067979 13 116 C8.46119031 109.94825375 4.38259705 108.35738956 -3 107.25 C-4.32 107.1675 -5.64 107.085 -7 107 C-6.67 105.35 -6.34 103.7 -6 102 C-7.02480469 101.48050781 -8.04960938 100.96101563 -9.10546875 100.42578125 C-10.45253906 99.72839844 -11.79960938 99.03101562 -13.1875 98.3125 C-14.52167969 97.62800781 -15.85585937 96.94351563 -17.23046875 96.23828125 C-20.78970462 94.12486969 -23.32130225 92.13641697 -26 89 C-26 88.34 -26 87.68 -26 87 C-22 86 -22 86 -19 86 C-18.278125 86.66 -17.55625 87.32 -16.8125 88 C-12.98955296 90.71854011 -10.61551732 90.41959248 -6 90 C-2.14061025 89.08947925 -2.14061025 89.08947925 1 88 C1.33 86.35 1.66 84.7 2 83 C1.01 82.01 1.01 82.01 0 81 C0.33 80.67 0.66 80.34 1 80 C2.98 80 4.96 80 7 80 C8.98 79.505 8.98 79.505 11 79 C10.67 77.35 10.34 75.7 10 74 C10.33 73.34 10.66 72.68 11 72 C9.35 72 7.7 72 6 72 C4.68 71.67 3.36 71.34 2 71 C0.2984375 72.2684375 0.2984375 72.2684375 -1.4375 73.5625 C-2.613125 74.366875 -3.78875 75.17125 -5 76 C-10 74 -10 74 -14 71 C-14 70.34 -14 69.68 -14 69 C-7.565 68.505 -7.565 68.505 -1 68 C-1.061875 66.700625 -1.12375 65.40125 -1.1875 64.0625 C-0.93509344 57.24752297 0.09894045 51.90105955 5 47 C5.99 47 6.98 47 8 47 C8.33 47.66 8.66 48.32 9 49 C13.455 48.505 13.455 48.505 18 48 C17.44914054 41.90912404 17.44914054 41.90912404 16 36 C16.66 34.68 17.32 33.36 18 32 C19.32 31.67 20.64 31.34 22 31 C21.67 29.35 21.34 27.7 21 26 C19.68 26 18.36 26 17 26 C16.7525 26.94875 16.505 27.8975 16.25 28.875 C15 32 15 32 11 34 C10.82299645 29.39790775 10.89185433 27.21629134 13 23 C11.35 23.33 9.7 23.66 8 24 C5.37413298 27.93880053 5.4049863 31.34265758 5 36 C4.34 36 3.68 36 3 36 C3.33 36.66 3.66 37.32 4 38 C4.66 38 5.32 38 6 38 C5.67 39.32 5.34 40.64 5 42 C4.34 42 3.68 42 3 42 C3 41.34 3 40.68 3 40 C0.33563616 41.05536365 0.33563616 41.05536365 -1 46 C-1.99 46.495 -1.99 46.495 -3 47 C-3.99 49.475 -3.99 49.475 -5 52 C-7 49 -7 49 -7 44 C-7.66 44 -8.32 44 -9 44 C-13 35.625 -13 35.625 -13 30 C-12.01 29.67 -11.02 29.34 -10 29 C-9.0318352 32.8726592 -8.92377142 36.03611362 -9 40 C-8.34 40 -7.68 40 -7 40 C-7 36.04 -7 32.08 -7 28 C-5.35 28 -3.7 28 -2 28 C-1.67 31.63 -1.34 35.26 -1 39 C0.65 34.38 2.3 29.76 4 25 C3.34 25 2.68 25 2 25 C2 23.68 2 22.36 2 21 C0.68 22.32 -0.64 23.64 -2 25 C-2.66 25 -3.32 25 -4 25 C-4 23.35 -4 21.7 -4 20 C-6.31 20.66 -8.62 21.32 -11 22 C-11 22.99 -11 23.98 -11 25 C-11.66 25 -12.32 25 -13 25 C-13 23.35 -13 21.7 -13 20 C-13.66 19.67 -14.32 19.34 -15 19 C-15 17.68 -15 16.36 -15 15 C-15.66 14.01 -16.32 13.02 -17 12 C-16.67 10.35 -16.34 8.7 -16 7 C-14.68 6.34 -13.36 5.68 -12 5 C-12 5.66 -12 6.32 -12 7 C-12.66 7 -13.32 7 -14 7 C-14 7.99 -14 8.98 -14 10 C-13.01 10 -12.02 10 -11 10 C-10.67 8.35 -10.34 6.7 -10 5 C-7.525 5.495 -7.525 5.495 -5 6 C-5.99 6.495 -5.99 6.495 -7 7 C-7.66 6.67 -8.32 6.34 -9 6 C-8.67 6.99 -8.34 7.98 -8 9 C-5.03 9.495 -5.03 9.495 -2 10 C-1.34 6.7 -0.68 3.4 0 0 Z " fill="#683F29" transform="translate(98,10)"/>
<path d="M0 0 C1.32 0.66 2.64 1.32 4 2 C5 7 5 7 4 9 C3.01 9 2.02 9 1 9 C0.67 9.66 0.34 10.32 0 11 C-1.98 11 -3.96 11 -6 11 C-5.34 11.66 -4.68 12.32 -4 13 C-5 18 -5 18 -7 20 C-11.67260211 21.11252431 -16.21681377 21.37961796 -21 21 C-23.8125 19 -23.8125 19 -26 17 C-26.99 17 -27.98 17 -29 17 C-30.32 17 -31.64 17 -33 17 C-32.67 18.32 -32.34 19.64 -32 21 C-30.68 21.66 -29.36 22.32 -28 23 C-24.36547536 25.12783371 -20.73884952 27.26831281 -17.1171875 29.41796875 C-16.08851562 29.94003906 -15.05984375 30.46210937 -14 31 C-13.34 30.67 -12.68 30.34 -12 30 C-12.33 31.98 -12.66 33.96 -13 36 C-10.4940625 36.3403125 -10.4940625 36.3403125 -7.9375 36.6875 C-2.53224812 37.69490556 0.91304828 39.16326981 5 43 C9.60436069 49.72945024 9.66513608 55.10150901 9 63 C6.89936289 67.97928797 4.5072042 71.03184113 0 74 C-6.19184727 76.47673891 -10.41616911 76.90434081 -16.75 74.6875 C-20 73 -20 73 -24 70 C-24.495 71.485 -24.495 71.485 -25 73 C-24.01 73.33 -23.02 73.66 -22 74 C-21 76 -21 76 -21 82 C-19.68 82.66 -18.36 83.32 -17 84 C-14 87 -14 87 -13.8125 91.6875 C-13.9053125 93.8221875 -13.9053125 93.8221875 -14 96 C-16.475 96.99 -16.475 96.99 -19 98 C-19.33 96.68 -19.66 95.36 -20 94 C-20.66 95.32 -21.32 96.64 -22 98 C-26 98 -26 98 -28 97 C-28.66 98.32 -29.32 99.64 -30 101 C-30.33 99.68 -30.66 98.36 -31 97 C-32.32 97.99 -33.64 98.98 -35 100 C-35.99 98.35 -36.98 96.7 -38 95 C-38.33 96.98 -38.66 98.96 -39 101 C-37.02 101 -35.04 101 -33 101 C-33 101.33 -33 101.66 -33 102 C-38.53620678 102.32565922 -39.97599013 102.01440592 -45 99 C-44.67 97.35 -44.34 95.7 -44 94 C-43.34 95.32 -42.68 96.64 -42 98 C-41.34 98 -40.68 98 -40 98 C-39.67 96.35 -39.34 94.7 -39 93 C-37.515 92.01 -37.515 92.01 -36 91 C-35.34 92.32 -34.68 93.64 -34 95 C-29.73173127 90.73173127 -29.43731081 89.68504055 -29 84 C-30.98 84.495 -30.98 84.495 -33 85 C-32.505 83.515 -32.505 83.515 -32 82 C-39.71981316 82.01155885 -39.71981316 82.01155885 -46.1875 85.6875 C-48.48001142 89.24793693 -48.48001142 89.24793693 -48 95 C-52.10801767 93.81323934 -53.89448334 93.10551666 -57 90 C-57 88.68 -57 87.36 -57 86 C-54.03 85.505 -54.03 85.505 -51 85 C-51 85.99 -51 86.98 -51 88 C-50.01 87.505 -50.01 87.505 -49 87 C-48.67 86.01 -48.34 85.02 -48 84 C-47.34 84 -46.68 84 -46 84 C-46 82.35 -46 80.7 -46 79 C-46.66 79 -47.32 79 -48 79 C-48 78.34 -48 77.68 -48 77 C-49.65 77 -51.3 77 -53 77 C-57.82989251 57.30668828 -57.82989251 57.30668828 -54.75 48.375 C-53 46 -53 46 -49 45 C-48.76216797 42.68355469 -48.76216797 42.68355469 -48.51953125 40.3203125 C-48.28484747 38.25509522 -48.04911424 36.189997 -47.8125 34.125 C-47.71130859 33.11179688 -47.61011719 32.09859375 -47.50585938 31.0546875 C-46.63814808 23.73777064 -44.72225366 18.37935231 -41 12 C-40.34 11.67 -39.68 11.34 -39 11 C-39.33 12.65 -39.66 14.3 -40 16 C-34.75927154 14.28449727 -34.75927154 14.28449727 -31 10 C-29.68 9.67 -28.36 9.34 -27 9 C-27 9.66 -27 10.32 -27 11 C-26.01 10.67 -25.02 10.34 -24 10 C-23.67 9.34 -23.34 8.68 -23 8 C-19.9375 7.375 -19.9375 7.375 -17 7 C-17.495 5.02 -17.495 5.02 -18 3 C-16.7315625 3.6496875 -16.7315625 3.6496875 -15.4375 4.3125 C-14.303125 4.539375 -13.16875 4.76625 -12 5 C-4.5 0 -4.5 0 0 0 Z " fill="#A47250" transform="translate(105,80)"/>
<path d="M0 0 C6.40320853 4.26880568 8.29391103 12.83442634 10 20 C10.22443645 24.03985613 10.1413386 27.94829357 10 32 C11.98 32.495 11.98 32.495 14 33 C15.6875 36 15.6875 36 17 39 C17.33 39.33 17.66 39.66 18 40 C18.36180905 51.09547739 18.36180905 51.09547739 16 57 C15.49992206 60.54213985 15.49992206 60.54213985 16 64 C17.32 65.32 18.64 66.64 20 68 C20 74 20 74 18.375 76.875 C16 79 16 79 10 79 C9.505 80.485 9.505 80.485 9 82 C8.773125 80.948125 8.54625 79.89625 8.3125 78.8125 C6.75328593 74.28335437 6.03015681 72.63510253 2 70 C-1.68873711 69.46699441 -5.29081058 69.24881463 -9.015625 69.140625 C-12 69 -12 69 -13 68 C-13.33 68.66 -13.66 69.32 -14 70 C-14.99 70 -15.98 70 -17 70 C-17 70.66 -17 71.32 -17 72 C-19.97 71.505 -19.97 71.505 -23 71 C-25.24007711 74.28544643 -27.21739173 77.43478346 -29 81 C-31.31 80.34 -33.62 79.68 -36 79 C-36.020625 79.9075 -36.04125 80.815 -36.0625 81.75 C-37 85 -37 85 -39.75 87.375 C-47.33845569 90.27646835 -55.11822171 89.45783268 -63 88 C-63 86.02 -63 84.04 -63 82 C-62.01 81.505 -62.01 81.505 -61 81 C-60.34 82.65 -59.68 84.3 -59 86 C-57.02 85.01 -57.02 85.01 -55 84 C-54.67 84.99 -54.34 85.98 -54 87 C-53.34 85.68 -52.68 84.36 -52 83 C-50.35 83.99 -48.7 84.98 -47 86 C-46.67 84.35 -46.34 82.7 -46 81 C-45.34 81 -44.68 81 -44 81 C-43.67 81.99 -43.34 82.98 -43 84 C-41.02 83.505 -41.02 83.505 -39 83 C-38.49880534 78.70978388 -38.49880534 78.70978388 -39 74 C-40.94348501 72.26776336 -42.94720004 70.60118397 -45 69 C-46.25 64.75 -46.25 64.75 -47 61 C-47.66 60.67 -48.32 60.34 -49 60 C-48.67 58.68 -48.34 57.36 -48 56 C-46.9275 56.804375 -45.855 57.60875 -44.75 58.4375 C-39.46302926 62.05026334 -35.29567885 62.46291756 -29 62 C-23.66867552 59.88315058 -20.11907291 57.86575375 -17 53 C-14.67246868 46.01740604 -15.33572808 39.66067979 -18 33 C-22.53880969 26.94825375 -26.61740295 25.35738956 -34 24.25 C-35.32 24.1675 -36.64 24.085 -38 24 C-37.01 21.36 -36.02 18.72 -35 16 C-36.65 15.34 -38.3 14.68 -40 14 C-40.66 13.67 -41.32 13.34 -42 13 C-42 12.34 -42 11.68 -42 11 C-37.05 10.67 -32.1 10.34 -27 10 C-26.67 9.01 -26.34 8.02 -26 7 C-20.51645497 3.91550592 -16.18475949 3.91410056 -10 4 C-6.00822321 3.09863105 -3.40288148 2.26858766 0 0 Z " fill="#653D2A" transform="translate(129,93)"/>
<path d="M0 0 C3.34265222 1.00626522 3.34265222 1.00626522 7.2578125 0.83984375 C7.9178125 0.83984375 8.5778125 0.83984375 9.2578125 0.83984375 C9.2578125 1.82984375 9.2578125 2.81984375 9.2578125 3.83984375 C11.145 4.36578125 11.145 4.36578125 13.0703125 4.90234375 C37.03446201 13.85280923 53.90521689 35.27750751 64.2578125 57.83984375 C73.69770844 82.90597519 73.66989932 110.51816935 62.5859375 135.08984375 C50.10617587 160.93029136 30.31893661 179.04097517 3.2578125 188.83984375 C-22.69317506 197.19359022 -50.64183272 194.12476486 -74.7421875 181.83984375 C-96.96409192 169.76904488 -113.66510562 149.78262217 -121.7421875 125.83984375 C-129.59362956 99.15555079 -127.59902246 73.0138888 -115.1171875 48.08984375 C-101.46753689 23.2778122 -79.58674588 6.98369854 -52.7421875 -1.16015625 C-34.68281333 -4.77203108 -17.80006215 -5.05234087 0 0 Z M-84.7421875 18.83984375 C-86.3303125 19.99484375 -87.9184375 21.14984375 -89.5546875 22.33984375 C-106.64136296 36.62124414 -118.42023637 57.88741092 -121.7421875 79.83984375 C-122.87361948 94.85778673 -123.42798277 110.66728622 -117.7421875 124.83984375 C-116.97841797 126.82951172 -116.97841797 126.82951172 -116.19921875 128.859375 C-106.04020115 153.66411591 -88.31857648 171.31840155 -63.83984375 182.25 C-58.16750626 184.45080206 -52.72801218 185.74566074 -46.7421875 186.83984375 C-45.87722656 187.02160156 -45.01226562 187.20335937 -44.12109375 187.390625 C-18.08559503 190.85199188 6.98660132 185.89862314 28.30859375 170.16796875 C47.14965841 155.29475744 60.87557065 135.33622939 64.84375 111.2890625 C65.39353683 105.3814474 65.48160096 99.52020553 65.5078125 93.58984375 C65.5284375 92.43871094 65.5490625 91.28757812 65.5703125 90.1015625 C65.60611406 82.16256582 64.45836934 75.4713315 62.2578125 67.83984375 C61.4534375 64.99359375 61.4534375 64.99359375 60.6328125 62.08984375 C55.95769693 48.61139735 48.26882154 37.83545123 38.2578125 27.83984375 C37.1853125 26.64359375 36.1128125 25.44734375 35.0078125 24.21484375 C24.95372237 15.16616264 13.92124761 9.35596037 1.2578125 4.83984375 C-0.3921875 4.17984375 -2.0421875 3.51984375 -3.7421875 2.83984375 C-32.38648497 -3.48072893 -60.97033707 1.51745842 -84.7421875 18.83984375 Z " fill="#9A9591" transform="translate(126.7421875,5.16015625)"/>
<path d="M0 0 C1 4 1 4 1 9 C1.66 9 2.32 9 3 9 C3 8.01 3 7.02 3 6 C6 4 6 4 10 4 C10 5.65 10 7.3 10 9 C10.66 9 11.32 9 12 9 C12.66 7.68 13.32 6.36 14 5 C14.66 5 15.32 5 16 5 C16 6.32 16 7.64 16 9 C16.66 9 17.32 9 18 9 C17.51915448 14.77014628 15.75626448 18.93202982 13 24 C12.67 24 12.34 24 12 24 C12 20.04 12 16.08 12 12 C10.35 12 8.7 12 7 12 C7 15.96 7 19.92 7 24 C6.34 24 5.68 24 5 24 C4.505 18.555 4.505 18.555 4 13 C3.34 13.33 2.68 13.66 2 14 C2.49360009 18.27786748 3.04783565 21.09567131 5 25 C5 25.99 5 26.98 5 28 C5.66 28 6.32 28 7 28 C7.66 29.98 8.32 31.96 9 34 C9.66 32.68 10.32 31.36 11 30 C11.66 29.67 12.32 29.34 13 29 C13.66 27.35 14.32 25.7 15 24 C15.66 24 16.32 24 17 24 C17 24.66 17 25.32 17 26 C17.66 26 18.32 26 19 26 C19.33 24.68 19.66 23.36 20 22 C19.01 22.33 18.02 22.66 17 23 C17 22.01 17 21.02 17 20 C17.66 20 18.32 20 19 20 C18.9175 18.618125 18.835 17.23625 18.75 15.8125 C19.01001703 10.8071721 19.50028797 9.39034603 23 6 C24.32 6.33 25.64 6.66 27 7 C26.34 10.63 25.68 14.26 25 18 C29.24574012 15.4837263 29.24574012 15.4837263 29.75 11.8125 C29.8325 10.884375 29.915 9.95625 30 9 C31.65 9.33 33.3 9.66 35 10 C35.99 12.97 35.99 12.97 37 16 C35.35 16.33 33.7 16.66 32 17 C30.65911643 21.15062297 30.65911643 21.15062297 32 26 C32 27.98 32 29.96 32 32 C28.7 32.66 25.4 33.32 22 34 C22 33.01 22 32.02 22 31 C21.01 31 20.02 31 19 31 C18.67 31.99 18.34 32.98 18 34 C17.01 34.495 17.01 34.495 16 35 C14.29490297 40.61679022 13.54687104 46.16670896 13 52 C8.67406395 53.44197868 4.52830614 53.05880917 0 53 C-0.495 53.99 -0.495 53.99 -1 55 C-3.32156597 55.40729228 -5.6568787 55.74438677 -8 56 C-8.33 57.65 -8.66 59.3 -9 61 C-12 62 -12 62 -15.4375 61.125 C-20.37209883 58.18155508 -21.22159115 55.40362688 -23 50 C-23.165 48.205625 -23.33 46.41125 -23.5 44.5625 C-23.665 43.056875 -23.83 41.55125 -24 40 C-25.32 39.34 -26.64 38.68 -28 38 C-28 37.34 -28 36.68 -28 36 C-28.66 36 -29.32 36 -30 36 C-34.125 25.625 -34.125 25.625 -33 20 C-32.34 19.01 -31.68 18.02 -31 17 C-25 17 -25 17 -23 18 C-23.66 16.35 -24.32 14.7 -25 13 C-28.05272465 12.10169161 -28.05272465 12.10169161 -31 12 C-31 11.34 -31 10.68 -31 10 C-25.72 10 -20.44 10 -15 10 C-15 9.34 -15 8.68 -15 8 C-13.35 7.67 -11.7 7.34 -10 7 C-10 6.34 -10 5.68 -10 5 C-6.7 3.35 -3.4 1.7 0 0 Z " fill="#CEAD8F" transform="translate(84,26)"/>
<path d="M0 0 C0 1.32 0 2.64 0 4 C0.804375 4.0825 1.60875 4.165 2.4375 4.25 C6.95760904 5.2016019 10.83075174 7.04171673 15 9 C15.33 8.34 15.66 7.68 16 7 C16.268125 8.711875 16.53625 10.42375 16.8125 12.1875 C17.68581364 18.10430219 17.68581364 18.10430219 21 23 C20.67 24.32 20.34 25.64 20 27 C20.99 27.33 21.98 27.66 23 28 C24 30 24 30 24 36 C25.32 36.66 26.64 37.32 28 38 C31 41 31 41 31.1875 45.6875 C31.0946875 47.8221875 31.0946875 47.8221875 31 50 C29.35 50.66 27.7 51.32 26 52 C25.505 50.02 25.505 50.02 25 48 C24.34 49.32 23.68 50.64 23 52 C19 52 19 52 17 51 C16.34 52.32 15.68 53.64 15 55 C14.67 53.68 14.34 52.36 14 51 C12.68 51.99 11.36 52.98 10 54 C8.515 51.525 8.515 51.525 7 49 C6.67 50.98 6.34 52.96 6 55 C7.98 55 9.96 55 12 55 C12 55.33 12 55.66 12 56 C6.46379322 56.32565922 5.02400987 56.01440592 0 53 C0.33 51.35 0.66 49.7 1 48 C1.66 49.32 2.32 50.64 3 52 C3.66 52 4.32 52 5 52 C5.33 50.35 5.66 48.7 6 47 C6.99 46.34 7.98 45.68 9 45 C9.66 46.32 10.32 47.64 11 49 C15.26826873 44.73173127 15.56268919 43.68504055 16 38 C14.02 38.495 14.02 38.495 12 39 C12.33 38.01 12.66 37.02 13 36 C5.28018684 36.01155885 5.28018684 36.01155885 -1.1875 39.6875 C-3.48001142 43.24793693 -3.48001142 43.24793693 -3 49 C-7.10801767 47.81323934 -8.89448334 47.10551666 -12 44 C-12 42.68 -12 41.36 -12 40 C-9.03 39.505 -9.03 39.505 -6 39 C-6 39.99 -6 40.98 -6 42 C-5.01 41.505 -5.01 41.505 -4 41 C-3.67 40.01 -3.34 39.02 -3 38 C-2.34 38 -1.68 38 -1 38 C-1 36.35 -1 34.7 -1 33 C-1.66 33 -2.32 33 -3 33 C-3 32.34 -3 31.68 -3 31 C-4.65 31 -6.3 31 -8 31 C-10.08834013 22.48504172 -11.3557061 14.77408371 -11 6 C-10.34 6 -9.68 6 -9 6 C-8.67 8.31 -8.34 10.62 -8 13 C-7.01 12.34 -6.02 11.68 -5 11 C-4.63005897 7.67053069 -4.29567333 4.3368847 -4 1 C-2 0 -2 0 0 0 Z " fill="#AB7E5C" transform="translate(60,126)"/>
<path d="M0 0 C1 4 1 4 1 9 C1.66 9.33 2.32 9.66 3 10 C2.01 10 1.02 10 0 10 C0 8.35 0 6.7 0 5 C-0.99 5.33 -1.98 5.66 -3 6 C-3.144375 7.60875 -3.28875 9.2175 -3.4375 10.875 C-4 16 -4 16 -5 18 C-5.99 17.67 -6.98 17.34 -8 17 C-8 11 -8 11 -7 9 C-11.83148998 10.93259599 -14.09548961 11.90964322 -16.16796875 16.69921875 C-16.67263672 18.17841797 -16.67263672 18.17841797 -17.1875 19.6875 C-17.785625 21.440625 -18.38375 23.19375 -19 25 C-18.34 25 -17.68 25 -17 25 C-17 24.01 -17 23.02 -17 22 C-15.02 21.01 -13.04 20.02 -11 19 C-10 22 -10 22 -10 27 C-10.99 28.32 -11.98 29.64 -13 31 C-13.33 32.65 -13.66 34.3 -14 36 C-12.68 35.34 -11.36 34.68 -10 34 C-6.4375 33.5625 -6.4375 33.5625 -3 34 C-0.06991308 38.8834782 0.47419533 40.74595537 0.8125 46.1875 C0.90144531 47.41855469 0.99039063 48.64960937 1.08203125 49.91796875 C1 53 1 53 -1 55 C-3.32275177 55.40047444 -5.65739357 55.7397104 -8 56 C-8.33 57.65 -8.66 59.3 -9 61 C-12 62 -12 62 -15.4375 61.125 C-20.37209883 58.18155508 -21.22159115 55.40362688 -23 50 C-23.165 48.205625 -23.33 46.41125 -23.5 44.5625 C-23.665 43.056875 -23.83 41.55125 -24 40 C-25.32 39.34 -26.64 38.68 -28 38 C-28 37.34 -28 36.68 -28 36 C-28.66 36 -29.32 36 -30 36 C-34.125 25.625 -34.125 25.625 -33 20 C-32.34 19.01 -31.68 18.02 -31 17 C-25 17 -25 17 -23 18 C-23.66 16.35 -24.32 14.7 -25 13 C-28.05272465 12.10169161 -28.05272465 12.10169161 -31 12 C-31 11.34 -31 10.68 -31 10 C-25.72 10 -20.44 10 -15 10 C-15 9.34 -15 8.68 -15 8 C-13.35 7.67 -11.7 7.34 -10 7 C-10 6.34 -10 5.68 -10 5 C-6.7 3.35 -3.4 1.7 0 0 Z " fill="#C6A283" transform="translate(84,26)"/>
<path d="M0 0 C0.66 0.33 1.32 0.66 2 1 C2 2.65 2 4.3 2 6 C3.65 5.67 5.3 5.34 7 5 C6.01 5.99 5.02 6.98 4 8 C5.65 8 7.3 8 9 8 C9 8.66 9 9.32 9 10 C9.99 10 10.98 10 12 10 C11.67 11.32 11.34 12.64 11 14 C11.66 14 12.32 14 13 14 C13.33 14.99 13.66 15.98 14 17 C16.97804941 18.06358907 19.98022063 19.06141993 23 20 C23.99 20.66 24.98 21.32 26 22 C26 22.66 26 23.32 26 24 C26.928125 24.28875 27.85625 24.5775 28.8125 24.875 C32 26 32 26 35 28 C34.34 29.32 33.68 30.64 33 32 C32.67 32.99 32.34 33.98 32 35 C33.65 34.34 35.3 33.68 37 33 C36 38 36 38 32.75 40.375 C29 42 29 42 24 41 C24.33 40.01 24.66 39.02 25 38 C24.01 38.66 23.02 39.32 22 40 C21.63469768 43.12557959 21.63469768 43.12557959 21.8125 46.625 C21.83957031 47.81351563 21.86664063 49.00203125 21.89453125 50.2265625 C21.94673828 51.59941406 21.94673828 51.59941406 22 53 C20.63488281 52.52433594 20.63488281 52.52433594 19.2421875 52.0390625 C15.82684853 50.94450808 12.55485707 50.42658285 9 50 C9 49.67 9 49.34 9 49 C13.455 48.505 13.455 48.505 18 48 C17.44914054 41.90912404 17.44914054 41.90912404 16 36 C16.66 34.68 17.32 33.36 18 32 C19.32 31.67 20.64 31.34 22 31 C21.67 29.35 21.34 27.7 21 26 C19.68 26 18.36 26 17 26 C16.7525 26.94875 16.505 27.8975 16.25 28.875 C15 32 15 32 11 34 C10.82299645 29.39790775 10.89185433 27.21629134 13 23 C11.35 23.33 9.7 23.66 8 24 C5.37413298 27.93880053 5.4049863 31.34265758 5 36 C4.34 36 3.68 36 3 36 C3.33 36.66 3.66 37.32 4 38 C4.66 38 5.32 38 6 38 C5.67 39.32 5.34 40.64 5 42 C4.34 42 3.68 42 3 42 C3 41.34 3 40.68 3 40 C0.33563616 41.05536365 0.33563616 41.05536365 -1 46 C-1.99 46.495 -1.99 46.495 -3 47 C-3.99 49.475 -3.99 49.475 -5 52 C-7 49 -7 49 -7 44 C-7.66 44 -8.32 44 -9 44 C-13 35.625 -13 35.625 -13 30 C-12.01 29.67 -11.02 29.34 -10 29 C-9.0318352 32.8726592 -8.92377142 36.03611362 -9 40 C-8.34 40 -7.68 40 -7 40 C-7 36.04 -7 32.08 -7 28 C-5.35 28 -3.7 28 -2 28 C-1.67 31.63 -1.34 35.26 -1 39 C0.65 34.38 2.3 29.76 4 25 C3.34 25 2.68 25 2 25 C2 23.68 2 22.36 2 21 C0.68 22.32 -0.64 23.64 -2 25 C-2.66 25 -3.32 25 -4 25 C-4 23.35 -4 21.7 -4 20 C-6.31 20.66 -8.62 21.32 -11 22 C-11 22.99 -11 23.98 -11 25 C-11.66 25 -12.32 25 -13 25 C-13 23.35 -13 21.7 -13 20 C-13.66 19.67 -14.32 19.34 -15 19 C-15 17.68 -15 16.36 -15 15 C-15.66 14.01 -16.32 13.02 -17 12 C-16.67 10.35 -16.34 8.7 -16 7 C-14.68 6.34 -13.36 5.68 -12 5 C-12 5.66 -12 6.32 -12 7 C-12.66 7 -13.32 7 -14 7 C-14 7.99 -14 8.98 -14 10 C-13.01 10 -12.02 10 -11 10 C-10.67 8.35 -10.34 6.7 -10 5 C-8.35 5.33 -6.7 5.66 -5 6 C-5.99 6.495 -5.99 6.495 -7 7 C-7.66 6.67 -8.32 6.34 -9 6 C-8.67 6.99 -8.34 7.98 -8 9 C-5.03 9.495 -5.03 9.495 -2 10 C-1.34 6.7 -0.68 3.4 0 0 Z " fill="#986644" transform="translate(98,10)"/>
<path d="M0 0 C5.38499721 3.09821758 9.11248378 5.98354204 11 12 C11.49115763 17.89389162 11.36932668 22.05832086 8 27 C3.80094573 30.85627433 1.57366558 32.88078291 -4.125 33.3125 C-9.5637009 32.96386533 -12.46823199 31.99557547 -17 29 C-21.70703048 23.3274248 -22.50159519 16.20473092 -22 9 C-21.01 7.35 -20.02 5.7 -19 4 C-18.01 4 -17.02 4 -16 4 C-16 3.34 -16 2.68 -16 2 C-10.67624895 -0.66187553 -5.79971089 -0.84656471 0 0 Z " fill="#F5CC75" transform="translate(101,120)"/>
<path d="M0 0 C1.32 0.66 2.64 1.32 4 2 C5 7 5 7 4 9 C3.01 9 2.02 9 1 9 C0.67 9.66 0.34 10.32 0 11 C-1.98 11 -3.96 11 -6 11 C-5.34 11.66 -4.68 12.32 -4 13 C-5 18 -5 18 -7 20 C-11.67260211 21.11252431 -16.21681377 21.37961796 -21 21 C-23.8125 19 -23.8125 19 -26 17 C-26.99 17 -27.98 17 -29 17 C-30.32 17 -31.64 17 -33 17 C-32.67 18.32 -32.34 19.64 -32 21 C-30.68 21.66 -29.36 22.32 -28 23 C-25.57750643 24.36470791 -23.16135396 25.74070421 -20.75 27.125 C-19.48671875 27.84945312 -18.2234375 28.57390625 -16.921875 29.3203125 C-15.95765625 29.87460938 -14.9934375 30.42890625 -14 31 C-14.33 32.65 -14.66 34.3 -15 36 C-24.72619019 31.41148367 -33.502613 26.60907878 -42 20 C-39.06554333 24.89076111 -37.535296 26.04219826 -33 29 C-32.67 29.99 -32.34 30.98 -32 32 C-33.65 32 -35.3 32 -37 32 C-37.66 33.32 -38.32 34.64 -39 36 C-40.32 36.66 -41.64 37.32 -43 38 C-43 36.02 -43 34.04 -43 32 C-43.66 32 -44.32 32 -45 32 C-44.58997722 17.21867882 -44.58997722 17.21867882 -40 11 C-39.67 11.66 -39.34 12.32 -39 13 C-39.33 13.99 -39.66 14.98 -40 16 C-34.75927154 14.28449727 -34.75927154 14.28449727 -31 10 C-29.68 9.67 -28.36 9.34 -27 9 C-27 9.66 -27 10.32 -27 11 C-26.01 10.67 -25.02 10.34 -24 10 C-23.67 9.34 -23.34 8.68 -23 8 C-19.9375 7.375 -19.9375 7.375 -17 7 C-17.33 5.68 -17.66 4.36 -18 3 C-17.154375 3.433125 -16.30875 3.86625 -15.4375 4.3125 C-14.303125 4.539375 -13.16875 4.76625 -12 5 C-4.5 0 -4.5 0 0 0 Z " fill="#62321F" transform="translate(105,80)"/>
<path d="M0 0 C0.66 0.33 1.32 0.66 2 1 C4.06226743 1.05191722 6.12484683 1.09176968 8.1875 1.125 C13.41329774 1.49537769 14.84313501 1.8846581 19.25 5.125 C22.06958446 9.09805084 23.09293984 11.16712809 23 16 C19.73696419 20.89455372 14.50671553 21.8432821 9 23 C0.62268283 23.40109027 -6.66195938 22.28052369 -14 18 C-16 14 -16 14 -14.8125 9.9375 C-13 6 -13 6 -10 3 C-6 4 -6 4 -4 5 C-4 4.34 -4 3.68 -4 3 C-3.01 3 -2.02 3 -1 3 C-0.67 2.01 -0.34 1.02 0 0 Z " fill="#76472D" transform="translate(116,160)"/>
<path d="M0 0 C3.60921334 3.60921334 2.93610732 9.12498865 3 14 C2.06174812 19.16038536 -0.1510643 21.52657023 -4 25 C-7.55157911 28.55157911 -8.49345518 31.48181993 -10.1875 36.1875 C-10.71730469 37.64542969 -11.24710938 39.10335937 -11.79296875 40.60546875 C-12.19128906 41.72566406 -12.58960938 42.84585938 -13 44 C-15.64 43.34 -18.28 42.68 -21 42 C-21.020625 42.9075 -21.04125 43.815 -21.0625 44.75 C-22 48 -22 48 -24.75 50.375 C-32.33845569 53.27646835 -40.11822171 52.45783268 -48 51 C-48 49.02 -48 47.04 -48 45 C-47.01 44.505 -47.01 44.505 -46 44 C-45.34 45.65 -44.68 47.3 -44 49 C-42.68 48.34 -41.36 47.68 -40 47 C-39.67 47.99 -39.34 48.98 -39 50 C-38.34 48.68 -37.68 47.36 -37 46 C-35.35 46.99 -33.7 47.98 -32 49 C-31.67 47.35 -31.34 45.7 -31 44 C-30.34 44 -29.68 44 -29 44 C-28.67 44.99 -28.34 45.98 -28 47 C-26.02 46.505 -26.02 46.505 -24 46 C-23.49880534 41.70978388 -23.49880534 41.70978388 -24 37 C-25.94348501 35.26776336 -27.94720004 33.60118397 -30 32 C-31.25 27.75 -31.25 27.75 -32 24 C-32.66 23.67 -33.32 23.34 -34 23 C-33.67 21.68 -33.34 20.36 -33 19 C-31.9275 19.804375 -30.855 20.60875 -29.75 21.4375 C-24.46302926 25.05026334 -20.29567885 25.46291756 -14 25 C-8.66867552 22.88315058 -5.11907291 20.86575375 -2 16 C-0.89485234 12.68455701 -0.67892369 9.79589889 -0.4375 6.3125 C-0.35371094 5.13300781 -0.26992187 3.95351562 -0.18359375 2.73828125 C-0.09271484 1.38283203 -0.09271484 1.38283203 0 0 Z " fill="#31140B" transform="translate(114,130)"/>
<path d="M0 0 C0.66 0.33 1.32 0.66 2 1 C2 2.65 2 4.3 2 6 C3.65 5.67 5.3 5.34 7 5 C6.01 5.99 5.02 6.98 4 8 C4.99 8.66 5.98 9.32 7 10 C6.34 11.32 5.68 12.64 5 14 C3.02 14 1.04 14 -1 14 C-0.67 15.65 -0.34 17.3 0 19 C-0.33 19.33 -0.66 19.66 -1 20 C0.32 20 1.64 20 3 20 C3 20.99 3 21.98 3 23 C4.32 23.33 5.64 23.66 7 24 C6.34 27.96 5.68 31.92 5 36 C4.34 36 3.68 36 3 36 C3.33 36.66 3.66 37.32 4 38 C4.66 38 5.32 38 6 38 C5.67 39.32 5.34 40.64 5 42 C4.34 42 3.68 42 3 42 C3 41.34 3 40.68 3 40 C0.33563616 41.05536365 0.33563616 41.05536365 -1 46 C-1.99 46.495 -1.99 46.495 -3 47 C-3.99 49.475 -3.99 49.475 -5 52 C-7 49 -7 49 -7 44 C-7.66 44 -8.32 44 -9 44 C-13 35.625 -13 35.625 -13 30 C-12.01 29.67 -11.02 29.34 -10 29 C-9.0318352 32.8726592 -8.92377142 36.03611362 -9 40 C-8.34 40 -7.68 40 -7 40 C-7 36.04 -7 32.08 -7 28 C-5.35 28 -3.7 28 -2 28 C-1.67 31.63 -1.34 35.26 -1 39 C0.65 34.38 2.3 29.76 4 25 C3.34 25 2.68 25 2 25 C2 23.68 2 22.36 2 21 C0.68 22.32 -0.64 23.64 -2 25 C-2.66 25 -3.32 25 -4 25 C-4 23.35 -4 21.7 -4 20 C-6.31 20.66 -8.62 21.32 -11 22 C-11 22.99 -11 23.98 -11 25 C-11.66 25 -12.32 25 -13 25 C-13 23.35 -13 21.7 -13 20 C-13.66 19.67 -14.32 19.34 -15 19 C-15 17.68 -15 16.36 -15 15 C-15.66 14.01 -16.32 13.02 -17 12 C-16.67 10.35 -16.34 8.7 -16 7 C-14.68 6.34 -13.36 5.68 -12 5 C-12 5.66 -12 6.32 -12 7 C-12.66 7 -13.32 7 -14 7 C-14 7.99 -14 8.98 -14 10 C-13.01 10 -12.02 10 -11 10 C-10.67 8.35 -10.34 6.7 -10 5 C-8.35 5.33 -6.7 5.66 -5 6 C-5.99 6.495 -5.99 6.495 -7 7 C-7.66 6.67 -8.32 6.34 -9 6 C-8.67 6.99 -8.34 7.98 -8 9 C-5.03 9.495 -5.03 9.495 -2 10 C-1.34 6.7 -0.68 3.4 0 0 Z " fill="#A47A5B" transform="translate(98,10)"/>
<path d="M0 0 C0.495 1.98 0.495 1.98 1 4 C-6.31976668 11.17038369 -15.23418225 16.74472742 -25 20 C-25 20.66 -25 21.32 -25 22 C-23.68 22.33 -22.36 22.66 -21 23 C-27.330165 24.266033 -31.67358531 23.18185769 -38 22 C-37.01 19.36 -36.02 16.72 -35 14 C-37.475 13.01 -37.475 13.01 -40 12 C-40.66 11.67 -41.32 11.34 -42 11 C-42 10.34 -42 9.68 -42 9 C-37.05 8.67 -32.1 8.34 -27 8 C-26.67 7.01 -26.34 6.02 -26 5 C-20.51645497 1.91550592 -16.18475949 1.91410056 -10 2 C-2.25 0 -2.25 0 0 0 Z " fill="#1D1820" transform="translate(129,95)"/>
<path d="M0 0 C0.99 0.33 1.98 0.66 3 1 C2.67 2.65 2.34 4.3 2 6 C2.99 6.33 3.98 6.66 5 7 C6 9 6 9 6 15 C7.32 15.66 8.64 16.32 10 17 C13 20 13 20 13.1875 24.6875 C13.0946875 26.8221875 13.0946875 26.8221875 13 29 C11.35 29.66 9.7 30.32 8 31 C7.67 29.68 7.34 28.36 7 27 C6.34 28.32 5.68 29.64 5 31 C1 31 1 31 -1 30 C-1.66 31.32 -2.32 32.64 -3 34 C-3.33 32.68 -3.66 31.36 -4 30 C-5.32 30.99 -6.64 31.98 -8 33 C-8.99 31.35 -9.98 29.7 -11 28 C-11.33 29.98 -11.66 31.96 -12 34 C-10.02 34 -8.04 34 -6 34 C-6 34.33 -6 34.66 -6 35 C-11.53620678 35.32565922 -12.97599013 35.01440592 -18 32 C-17.67 30.35 -17.34 28.7 -17 27 C-16.34 28.32 -15.68 29.64 -15 31 C-14.34 31 -13.68 31 -13 31 C-12.67 29.35 -12.34 27.7 -12 26 C-11.01 25.34 -10.02 24.68 -9 24 C-8.34 25.32 -7.68 26.64 -7 28 C-2.73173127 23.73173127 -2.43731081 22.68504055 -2 17 C-3.32 17.33 -4.64 17.66 -6 18 C-5.67 17.01 -5.34 16.02 -5 15 C-7.64 14.67 -10.28 14.34 -13 14 C-13 13.34 -13 12.68 -13 12 C-11.35 11.67 -9.7 11.34 -8 11 C-8 10.34 -8 9.68 -8 9 C-8.66 8.67 -9.32 8.34 -10 8 C-8.35 8 -6.7 8 -5 8 C-0.74275212 4.42874646 -0.74275212 4.42874646 0 0 Z " fill="#945E38" transform="translate(78,147)"/>
<path d="M0 0 C1.32 0.33 2.64 0.66 4 1 C3.34 4.63 2.68 8.26 2 12 C6.24574012 9.4837263 6.24574012 9.4837263 6.75 5.8125 C6.8325 4.884375 6.915 3.95625 7 3 C9.475 3.495 9.475 3.495 12 4 C12.66 5.98 13.32 7.96 14 10 C12.35 10.33 10.7 10.66 9 11 C7.65911643 15.15062297 7.65911643 15.15062297 9 20 C9 21.98 9 23.96 9 26 C5.7 26.66 2.4 27.32 -1 28 C-1 27.01 -1 26.02 -1 25 C-1.99 25 -2.98 25 -4 25 C-4.33 25.99 -4.66 26.98 -5 28 C-5.66 28.33 -6.32 28.66 -7 29 C-8.70509703 34.61679022 -9.45312896 40.16670896 -10 46 C-10.66 45.67 -11.32 45.34 -12 45 C-12.2380658 37.02479559 -10.54165127 32.08330254 -7 25 C-6.34 25 -5.68 25 -5 25 C-5.33 23.35 -5.66 21.7 -6 20 C-5.34 20 -4.68 20 -4 20 C-3.67 18.68 -3.34 17.36 -3 16 C-3.99 16.33 -4.98 16.66 -6 17 C-6 16.01 -6 15.02 -6 14 C-5.34 14 -4.68 14 -4 14 C-4.12375 11.9271875 -4.12375 11.9271875 -4.25 9.8125 C-3.98998297 4.8071721 -3.49971203 3.39034603 0 0 Z " fill="#C1A185" transform="translate(107,32)"/>
<path d="M0 0 C0.99 0 1.98 0 3 0 C3 0.99 3 1.98 3 3 C4.258125 2.938125 5.51625 2.87625 6.8125 2.8125 C11 3 11 3 14 6 C12 11 12 11 11 12 C8.00028144 12.04109204 4.99970248 12.04224933 2 12 C2.33 13.65 2.66 15.3 3 17 C0.09619004 24.2595249 -5.26513732 25.63256866 -12 29 C-14.37273859 27.38992739 -16.7060466 25.72046505 -19 24 C-19 23.34 -19 22.68 -19 22 C-12.565 21.505 -12.565 21.505 -6 21 C-6.061875 19.700625 -6.12375 18.40125 -6.1875 17.0625 C-5.93509344 10.24752297 -4.90105955 4.90105955 0 0 Z " fill="#37130B" transform="translate(103,57)"/>
<path d="M0 0 C0.99 0 1.98 0 3 0 C3.02687041 3.79171347 3.04677587 7.58323823 3.0625 11.375 C3.07087891 12.45523438 3.07925781 13.53546875 3.08789062 14.6484375 C3.11328125 22.7734375 3.11328125 22.7734375 2 25 C1.01 25.33 0.02 25.66 -1 26 C-1.33 26.66 -1.66 27.32 -2 28 C-7 30 -7 30 -11 31 C-11 26 -11 26 -8 22 C-7.74936268 18.33285151 -7.74936268 18.33285151 -8 15 C-8.99 15.66 -9.98 16.32 -11 17 C-11.99 17 -12.98 17 -14 17 C-14 17.99 -14 18.98 -14 20 C-14.66 20 -15.32 20 -16 20 C-15.16200972 12.96088164 -13.02588343 9.02588343 -8 4 C-6.68 4 -5.36 4 -4 4 C-4 6.64 -4 9.28 -4 12 C-3.34 12.33 -2.68 12.66 -2 13 C-1.855625 11.040625 -1.71125 9.08125 -1.5625 7.0625 C-1.125 1.125 -1.125 1.125 0 0 Z " fill="#DDC4AA" transform="translate(81,31)"/>
<path d="M0 0 C0.495 0.99 0.495 0.99 1 2 C2.32 2.33 3.64 2.66 5 3 C4.67 3.33 4.34 3.66 4 4 C5.7325 5.423125 5.7325 5.423125 7.5 6.875 C8.655 7.90625 9.81 8.9375 11 10 C11 10.66 11 11.32 11 12 C6.87384964 10.96846241 5.1540179 9.71595986 2 7 C2.99 8.32 3.98 9.64 5 11 C4.67 11.99 4.34 12.98 4 14 C1.525 12.02 1.525 12.02 -1 10 C-0.505 11.98 -0.505 11.98 0 14 C-1.65 14 -3.3 14 -5 14 C-5.268125 15.134375 -5.53625 16.26875 -5.8125 17.4375 C-6.204375 18.613125 -6.59625 19.78875 -7 21 C-11.90068963 22.63356321 -16.85738476 22.05529694 -22 22 C-22 22.66 -22 23.32 -22 24 C-20.35 24.66 -18.7 25.32 -17 26 C-16.34 26.33 -15.68 26.66 -15 27 C-15.33 27.66 -15.66 28.32 -16 29 C-20.12521709 29 -22.37452171 27.29880598 -25.9375 25.25 C-27.16339844 24.55390625 -28.38929687 23.8578125 -29.65234375 23.140625 C-33 21 -33 21 -37 17 C-37 16.34 -37 15.68 -37 15 C-33 14 -33 14 -30 14 C-28.9171875 14.99 -28.9171875 14.99 -27.8125 16 C-23.98955296 18.71854011 -21.61551732 18.41959248 -17 18 C-13.14061025 17.08947925 -13.14061025 17.08947925 -10 16 C-9.67 14.35 -9.34 12.7 -9 11 C-9.66 10.34 -10.32 9.68 -11 9 C-10.67 8.67 -10.34 8.34 -10 8 C-8.02 8 -6.04 8 -4 8 C-2.68 7.67 -1.36 7.34 0 7 C-0.495 4.525 -0.495 4.525 -1 2 C-0.67 1.34 -0.34 0.68 0 0 Z " fill="#765844" transform="translate(109,82)"/>
<path d="M0 0 C5.23006251 1.6641108 10.16226355 3.39506499 15 6 C13.9171875 6.8353125 13.9171875 6.8353125 12.8125 7.6875 C7.31128088 12.04225024 7.31128088 12.04225024 4 18 C4 19.98 4 21.96 4 24 C2.35 23.01 0.7 22.02 -1 21 C-1.99 20.67 -2.98 20.34 -4 20 C-4 19.34 -4 18.68 -4 18 C-7.91063224 16.52952664 -7.91063224 16.52952664 -12 16 C-12 15.34 -12 14.68 -12 14 C-9.36 14 -6.72 14 -4 14 C-4 13.01 -4 12.02 -4 11 C-5.98 10.34 -7.96 9.68 -10 9 C-8 6 -8 6 -3 3 C-2.01 2.01 -1.02 1.02 0 0 Z " fill="#DBC2A6" transform="translate(73,113)"/>
<path d="M0 0 C6.75 -0.125 6.75 -0.125 9 1 C9 1.66 9 2.32 9 3 C9.99 3 10.98 3 12 3 C15.86197694 10.56303818 15.63834336 16.32503734 13.6875 24.5 C13.130625 25.985 12.57375 27.47 12 29 C11.01 29.33 10.02 29.66 9 30 C8.30741771 31.99117408 7.64252365 33.9921136 7 36 C6.01 36.99 5.02 37.98 4 39 C4 38.01 4 37.02 4 36 C2.35 35.67 0.7 35.34 -1 35 C-1.33 33.35 -1.66 31.7 -2 30 C-1.071875 29.773125 -0.14375 29.54625 0.8125 29.3125 C4.60303529 28.12262819 4.60303529 28.12262819 7 23 C7.40258986 20.34290692 7.7411365 17.67492279 8 15 C8.33 14.01 8.66 13.02 9 12 C8.67 10.68 8.34 9.36 8 8 C5.03 7.67 2.06 7.34 -1 7 C-1 6.67 -1 6.34 -1 6 C1.64 5.67 4.28 5.34 7 5 C4.69 4.01 2.38 3.02 0 2 C0 1.34 0 0.68 0 0 Z " fill="#805A42" transform="translate(137,36)"/>
<path d="M0 0 C0.66 0 1.32 0 2 0 C2 0.66 2 1.32 2 2 C3.98 2 5.96 2 8 2 C10 4 10 4 10 8 C8.72125 7.938125 7.4425 7.87625 6.125 7.8125 C4.76375 7.874375 3.4025 7.93625 2 8 C-0.35726507 10.87002722 -0.35726507 10.87002722 0.25 14.375 C0.95271008 18.3060781 0.95271008 18.3060781 3 23 C3 23.99 3 24.98 3 26 C3.66 26 4.32 26 5 26 C5.33 26.66 5.66 27.32 6 28 C7.32 28.66 8.64 29.32 10 30 C10 33.3 10 36.6 10 40 C9.67 40 9.34 40 9 40 C8.67 37.03 8.34 34.06 8 31 C7.01 30.67 6.02 30.34 5 30 C4.67 30.99 4.34 31.98 4 33 C2.68 32.67 1.36 32.34 0 32 C-4.19756057 24.99122914 -7.36728673 17.20372036 -6 9 C-2.45454545 2.45454545 -2.45454545 2.45454545 0 0 Z " fill="#D3B9A0" transform="translate(51,36)"/>
<path d="M0 0 C0.33 0.66 0.66 1.32 1 2 C0.01 3.485 0.01 3.485 -1 5 C-1.13669213 8.03935186 -1.13669213 8.03935186 -0.8125 11.375 C-0.73644531 12.49648437 -0.66039063 13.61796875 -0.58203125 14.7734375 C-0.10862023 18.48782148 -0.10862023 18.48782148 3 23 C3 23.66 3 24.32 3 25 C9.22902586 27.49161034 13.25000358 28.44999976 20 28 C24.98205724 25.41671106 28.17802671 22.46591987 30 17 C30.36522656 10.79114846 29.8360668 6.55396415 27 1 C27.99 1 28.98 1 30 1 C33.73322048 6.59983073 33.78485281 12.50316286 33 19 C30.89936289 23.97928797 28.5072042 27.03184113 24 30 C17.85316667 32.45873333 13.64137589 32.85061258 7.3125 30.8125 C1.36014632 27.55555176 -2.36540416 23.24496791 -5 17 C-5.32095095 12.64423709 -5.23594752 8.358475 -5 4 C-4.01 3.67 -3.02 3.34 -2 3 C-1.34 2.01 -0.68 1.02 0 0 Z " fill="#D0A45A" transform="translate(81,124)"/>
<path d="M0 0 C0.66 0.33 1.32 0.66 2 1 C2 2.65 2 4.3 2 6 C3.65 5.67 5.3 5.34 7 5 C6.01 5.99 5.02 6.98 4 8 C4.99 8.66 5.98 9.32 7 10 C6.34 11.32 5.68 12.64 5 14 C3.02 14 1.04 14 -1 14 C-0.67 15.65 -0.34 17.3 0 19 C-4.29 19 -8.58 19 -13 19 C-17.125 12.625 -17.125 12.625 -16 7 C-14.68 6.34 -13.36 5.68 -12 5 C-12 5.66 -12 6.32 -12 7 C-12.66 7 -13.32 7 -14 7 C-14 7.99 -14 8.98 -14 10 C-13.01 10 -12.02 10 -11 10 C-10.67 8.35 -10.34 6.7 -10 5 C-8.35 5.33 -6.7 5.66 -5 6 C-5.99 6.495 -5.99 6.495 -7 7 C-7.66 6.67 -8.32 6.34 -9 6 C-8.67 6.99 -8.34 7.98 -8 9 C-5.03 9.495 -5.03 9.495 -2 10 C-1.34 6.7 -0.68 3.4 0 0 Z " fill="#A84812" transform="translate(98,10)"/>
<path d="M0 0 C-0.99 1.485 -0.99 1.485 -2 3 C-4.475 2.505 -4.475 2.505 -7 2 C-7 3.65 -7 5.3 -7 7 C-8.98 7.99 -8.98 7.99 -11 9 C-11 9.99 -11 10.98 -11 12 C-12.98 12.66 -14.96 13.32 -17 14 C-16.34 16.31 -15.68 18.62 -15 21 C-18.63 20.67 -22.26 20.34 -26 20 C-25.01 17.36 -24.02 14.72 -23 12 C-25.475 11.01 -25.475 11.01 -28 10 C-28.66 9.67 -29.32 9.34 -30 9 C-30 8.34 -30 7.68 -30 7 C-25.05 6.67 -20.1 6.34 -15 6 C-14.67 5.01 -14.34 4.02 -14 3 C-9.17447284 0.39421533 -5.45206904 -0.33380015 0 0 Z " fill="#4A2113" transform="translate(117,97)"/>
<path d="M0 0 C0.78375 0.53625 1.5675 1.0725 2.375 1.625 C10.35358297 6.85234746 18.60725897 11.48083175 27 16 C28.32 14.35 29.64 12.7 31 11 C30.67 12.98 30.34 14.96 30 17 C32.5059375 17.3403125 32.5059375 17.3403125 35.0625 17.6875 C40.40242278 18.64647838 43.88393156 20.3412725 48 24 C48 24.66 48 25.32 48 26 C44 25 44 25 39 22 C33.59013283 21.40285303 28.28776823 21.67805794 23 23 C23 23.66 23 24.32 23 25 C22.01 24.67 21.02 24.34 20 24 C21.32 23.01 22.64 22.02 24 21 C20.8459821 18.28404014 19.12615036 17.03153759 15 16 C15 15.34 15 14.68 15 14 C12.525 13.01 12.525 13.01 10 12 C8.68 10.68 7.36 9.36 6 8 C5.113125 7.34 4.22625 6.68 3.3125 6 C1 4 1 4 0 0 Z " fill="#A47F3D" transform="translate(62,99)"/>
<path d="M0 0 C0.886875 0.309375 1.77375 0.61875 2.6875 0.9375 C8.92905088 3.02500076 8.92905088 3.02500076 15 1 C17.475 1.495 17.475 1.495 20 2 C20 2.66 20 3.32 20 4 C17.37091326 5.72533817 14.70395114 7.39452901 12 9 C14.64 10.32 17.28 11.64 20 13 C19.67 14.32 19.34 15.64 19 17 C17.96875 16.67 16.9375 16.34 15.875 16 C10.01448178 14.4876082 5.5558155 14.88349886 0 17 C-0.33 15.68 -0.66 14.36 -1 13 C1.64 11.68 4.28 10.36 7 9 C4.36 7.35 1.72 5.7 -1 4 C-0.67 2.68 -0.34 1.36 0 0 Z " fill="#ECA93B" transform="translate(86,128)"/>
<path d="M0 0 C-1 5 -1 5 -3 7 C-7.68054374 8.11441518 -12.21273906 8.44880571 -17 8 C-20.5 5.5 -20.5 5.5 -23 3 C-22.67 2.01 -22.34 1.02 -22 0 C-15.19502857 -2.3943418 -6.24940427 -4.16626951 0 0 Z " fill="#BFA996" transform="translate(101,93)"/>
<path d="M0 0 C2.16175781 -0.03867188 2.16175781 -0.03867188 4.3671875 -0.078125 C8.125 0.25 8.125 0.25 11.125 3.25 C10.795 4.9 10.465 6.55 10.125 8.25 C7.65 7.755 7.65 7.755 5.125 7.25 C5.125 8.24 5.125 9.23 5.125 10.25 C4.465 10.25 3.805 10.25 3.125 10.25 C3.125 9.59 3.125 8.93 3.125 8.25 C1.805 8.25 0.485 8.25 -0.875 8.25 C-1.205 9.24 -1.535 10.23 -1.875 11.25 C-3.195 11.58 -4.515 11.91 -5.875 12.25 C-6.535 12.91 -7.195 13.57 -7.875 14.25 C-8.06893875 12.10473901 -8.25498676 9.95876323 -8.4375 7.8125 C-8.59412109 6.02005859 -8.59412109 6.02005859 -8.75390625 4.19140625 C-8.79386719 3.22074219 -8.83382812 2.25007812 -8.875 1.25 C-6.83071401 -0.79428599 -2.673161 0.02858996 0 0 Z " fill="#B78D69" transform="translate(125.875,164.75)"/>
<path d="M0 0 C1 4 1 4 1 9 C1.66 9.33 2.32 9.66 3 10 C2.01 10 1.02 10 0 10 C0 8.35 0 6.7 0 5 C-0.99 5.33 -1.98 5.66 -3 6 C-3.144375 7.60875 -3.28875 9.2175 -3.4375 10.875 C-4 16 -4 16 -5 18 C-5.99 17.67 -6.98 17.34 -8 17 C-8 11 -8 11 -7 9 C-12.02188441 10.62796511 -12.02188441 10.62796511 -15 14 C-15.66 14 -16.32 14 -17 14 C-17 14.66 -17 15.32 -17 16 C-22.75 15.25 -22.75 15.25 -25 13 C-26.98821313 12.60235737 -28.98944339 12.26224651 -31 12 C-31 11.34 -31 10.68 -31 10 C-25.72 10 -20.44 10 -15 10 C-15 9.34 -15 8.68 -15 8 C-13.35 7.67 -11.7 7.34 -10 7 C-10 6.34 -10 5.68 -10 5 C-6.7 3.35 -3.4 1.7 0 0 Z " fill="#A78168" transform="translate(84,26)"/>
<path d="M0 0 C0.33 0.66 0.66 1.32 1 2 C1.99 2 2.98 2 4 2 C3.67 3.32 3.34 4.64 3 6 C3.66 6 4.32 6 5 6 C5.33 6.99 5.66 7.98 6 9 C7.32 9.33 8.64 9.66 10 10 C10.33 10.99 10.66 11.98 11 13 C6 14 6 14 0 14 C-0.99 14.99 -1.98 15.98 -3 17 C-3 16.34 -3 15.68 -3 15 C-3.66 15 -4.32 15 -5 15 C-5 14.01 -5 13.02 -5 12 C-6.65 12.33 -8.3 12.66 -10 13 C-10.33 12.34 -10.66 11.68 -11 11 C-10.34 10.67 -9.68 10.34 -9 10 C-9.33 9.34 -9.66 8.68 -10 8 C-9.67 7.34 -9.34 6.68 -9 6 C-8.05125 5.896875 -7.1025 5.79375 -6.125 5.6875 C-5.09375 5.460625 -4.0625 5.23375 -3 5 C-2.01 3.35 -1.02 1.7 0 0 Z " fill="#933D16" transform="translate(106,18)"/>
<path d="M0 0 C0.66 0 1.32 0 2 0 C2.99 2.31 3.98 4.62 5 7 C6.65 7 8.3 7 10 7 C12.25 16.375 12.25 16.375 10 22 C9.01 22.99 8.02 23.98 7 25 C7 26.98 7 28.96 7 31 C2.89198233 29.81323934 1.10551666 29.10551666 -2 26 C-2 24.68 -2 23.36 -2 22 C-0.02 21.67 1.96 21.34 4 21 C4 21.99 4 22.98 4 24 C4.66 23.67 5.32 23.34 6 23 C6.33 22.01 6.66 21.02 7 20 C7.66 20 8.32 20 9 20 C9 18.35 9 16.7 9 15 C8.34 15 7.68 15 7 15 C7 14.34 7 13.68 7 13 C5.35 13 3.7 13 2 13 C0 4.5 0 4.5 0 0 Z " fill="#96613D" transform="translate(50,144)"/>
<path d="M0 0 C0.99 0 1.98 0 3 0 C4.32 1.32 5.64 2.64 7 4 C11.1920276 4.48468776 11.1920276 4.48468776 15.75 4.25 C18.06257813 4.19585937 18.06257813 4.19585937 20.421875 4.140625 C21.60265625 4.09421875 22.7834375 4.0478125 24 4 C24 4.66 24 5.32 24 6 C19.09931037 7.63356321 14.14261524 7.05529694 9 7 C9 7.66 9 8.32 9 9 C10.65 9.66 12.3 10.32 14 11 C14.66 11.33 15.32 11.66 16 12 C15.67 12.66 15.34 13.32 15 14 C10.87478291 14 8.62547829 12.29880598 5.0625 10.25 C3.83660156 9.55390625 2.61070313 8.8578125 1.34765625 8.140625 C-2 6 -2 6 -6 2 C-6 1.34 -6 0.68 -6 0 C-3 -1 -3 -1 0 0 Z " fill="#8D572A" transform="translate(78,97)"/>
<path d="M0 0 C0.66 0.33 1.32 0.66 2 1 C2.73358043 3.64904045 3.40371521 6.31671843 4 9 C-1.92828551 14.90353275 -6.64127234 18.97772718 -15 21 C-15 21.66 -15 22.32 -15 23 C-18.20277474 24.60138737 -21.47856243 24.05679738 -25 24 C-25 23.34 -25 22.68 -25 22 C-23.411875 21.154375 -21.82375 20.30875 -20.1875 19.4375 C-9.41913136 13.65027985 -9.41913136 13.65027985 0 6 C-0.33 4.35 -0.66 2.7 -1 1 C-0.67 0.67 -0.34 0.34 0 0 Z " fill="#472315" transform="translate(129,93)"/>
<path d="M0 0 C5 1 5 1 6 2 C6 8.61551575 5.31736699 9.46676466 1 14 C-4.32168808 12.77191814 -5.96498481 12.03501519 -10 8 C-10.33 6.68 -10.66 5.36 -11 4 C-8.834375 3.8453125 -8.834375 3.8453125 -6.625 3.6875 C-5.09875 3.460625 -3.5725 3.23375 -2 3 C-1.34 2.01 -0.68 1.02 0 0 Z " fill="#A9876B" transform="translate(116,65)"/>
<path d="M0 0 C0.1875 4.3125 0.1875 4.3125 0 9 C-0.99 9.99 -1.98 10.98 -3 12 C-3.66 11.67 -4.32 11.34 -5 11 C-5 10.01 -5 9.02 -5 8 C-5.66 8 -6.32 8 -7 8 C-7 9.65 -7 11.3 -7 13 C-7.99 13 -8.98 13 -10 13 C-10 12.34 -10 11.68 -10 11 C-11.32 10.67 -12.64 10.34 -14 10 C-14 7.36 -14 4.72 -14 2 C-9.01870224 0.62584889 -5.24227417 0 0 0 Z " fill="#DCBB97" transform="translate(116,166)"/>
<path d="M0 0 C5 1 5 1 8 3 C8 3.66 8 4.32 8 5 C9.32 5.66 10.64 6.32 12 7 C12 8.32 12 9.64 12 11 C11.01 11.99 10.02 12.98 9 14 C8.01 13.67 7.02 13.34 6 13 C4.8125 9.4375 4.8125 9.4375 4 6 C2.68 6 1.36 6 0 6 C0 5.34 0 4.68 0 4 C-0.99 4.495 -0.99 4.495 -2 5 C-1.938125 6.093125 -1.87625 7.18625 -1.8125 8.3125 C-2 12 -2 12 -5 15 C-5.66 15 -6.32 15 -7 15 C-7.17700355 10.39790775 -7.10814567 8.21629134 -5 4 C-6.98 4.33 -8.96 4.66 -11 5 C-10.67 4.01 -10.34 3.02 -10 2 C-6.7 2 -3.4 2 0 2 C0 1.34 0 0.68 0 0 Z " fill="#8F6348" transform="translate(116,29)"/>
<path d="M0 0 C0 0.99 0 1.98 0 3 C0.66 3 1.32 3 2 3 C2.19157797 7.88523811 1.87404046 10.31489886 0 15 C-1.65 15.33 -3.3 15.66 -5 16 C-9.125 6.625 -9.125 6.625 -8 1 C-5 -1 -5 -1 0 0 Z " fill="#8E5B3D" transform="translate(59,45)"/>
<path d="M0 0 C1.65 0 3.3 0 5 0 C5.33 0.99 5.66 1.98 6 3 C6.99 3 7.98 3 9 3 C8 6 7 9 6 12 C5.62875 13.134375 5.2575 14.26875 4.875 15.4375 C4 18 4 18 3 20 C2.01 20 1.02 20 0 20 C-0.185625 18.1746875 -0.185625 18.1746875 -0.375 16.3125 C-0.85900568 11.78606706 -0.85900568 11.78606706 -3 7 C-2 2 -2 2 0 0 Z " fill="#3E180D" transform="translate(136,44)"/>
<path d="M0 0 C1.32 0.33 2.64 0.66 4 1 C3.67 2.32 3.34 3.64 3 5 C2.690625 6.670625 2.38125 8.34125 2.0625 10.0625 C1 15 1 15 -1 18 C2.465 15.525 2.465 15.525 6 13 C6 14.65 6 16.3 6 18 C5.34 18 4.68 18 4 18 C3.67 19.65 3.34 21.3 3 23 C1 23 -1 23 -3 23 C-3 20.69 -3 18.38 -3 16 C-3.99 16.33 -4.98 16.66 -6 17 C-6 16.01 -6 15.02 -6 14 C-5.34 14 -4.68 14 -4 14 C-4.0825 12.618125 -4.165 11.23625 -4.25 9.8125 C-3.98998297 4.8071721 -3.49971203 3.39034603 0 0 Z " fill="#CBAC8F" transform="translate(107,32)"/>
<path d="M0 0 C8.21378248 3.28551299 15.5292409 8.29618871 23 13 C22.67 14.65 22.34 16.3 22 18 C19.47538963 16.77860987 16.95547255 15.54751645 14.4375 14.3125 C13.03371094 13.62800781 11.62992188 12.94351563 10.18359375 12.23828125 C6.18279591 10.09779837 2.62505892 7.71998508 -1 5 C-0.67 3.35 -0.34 1.7 0 0 Z " fill="#645B60" transform="translate(68,98)"/>
<path d="M0 0 C0.66 0.33 1.32 0.66 2 1 C5.34234746 1.23748258 8.68350537 1.38271372 12.03125 1.5234375 C13.50078125 1.75933594 13.50078125 1.75933594 15 2 C15.99 3.485 15.99 3.485 17 5 C12.05 5.33 7.1 5.66 2 6 C1.71704177 12.55535135 1.71704177 12.55535135 3 17 C3.99 16.34 4.98 15.68 6 15 C6.66 15.33 7.32 15.66 8 16 C7.67 16.99 7.34 17.98 7 19 C7 18.34 7 17.68 7 17 C6.34 17.33 5.68 17.66 5 18 C4.67 18.99 4.34 19.98 4 21 C3.01 20.67 2.02 20.34 1 20 C-1.19798193 14.50504518 -0.8557456 11.73349555 0 6 C-4.29 6.66 -8.58 7.32 -13 8 C-12.34 6.68 -11.68 5.36 -11 4 C-9.35 3.67 -7.7 3.34 -6 3 C-5.34 3.66 -4.68 4.32 -4 5 C-4 4.34 -4 3.68 -4 3 C-3.01 3 -2.02 3 -1 3 C-0.67 2.01 -0.34 1.02 0 0 Z " fill="#9D6843" transform="translate(116,160)"/>
<path d="M0 0 C0 1.65 0 3.3 0 5 C0.66 5 1.32 5 2 5 C2.66 3.68 3.32 2.36 4 1 C4.66 1 5.32 1 6 1 C6 2.32 6 3.64 6 5 C6.66 5 7.32 5 8 5 C7.51915448 10.77014628 5.75626448 14.93202982 3 20 C2.67 20 2.34 20 2 20 C2 16.04 2 12.08 2 8 C0.35 8 -1.3 8 -3 8 C-3.33 8.99 -3.66 9.98 -4 11 C-6 6 -6 6 -7 2 C-4 0 -4 0 0 0 Z " fill="#B8967B" transform="translate(94,30)"/>
<path d="M0 0 C0.99 0.33 1.98 0.66 3 1 C2.67 2.65 2.34 4.3 2 6 C2.99 6.33 3.98 6.66 5 7 C4.67 9.31 4.34 11.62 4 14 C1.72979256 14.19493195 -0.54120289 14.38070418 -2.8125 14.5625 C-4.07707031 14.66691406 -5.34164062 14.77132812 -6.64453125 14.87890625 C-10 15 -10 15 -13 14 C-13 13.34 -13 12.68 -13 12 C-11.35 11.67 -9.7 11.34 -8 11 C-8 10.34 -8 9.68 -8 9 C-8.66 8.67 -9.32 8.34 -10 8 C-8.35 8 -6.7 8 -5 8 C-0.74275212 4.42874646 -0.74275212 4.42874646 0 0 Z " fill="#956240" transform="translate(78,147)"/>
<path d="M0 0 C-3 4 -3 4 -8 5 C-6.66436384 9.94463635 -6.66436384 9.94463635 -4 11 C-2.95191959 12.97522846 -1.9479589 14.97481509 -1 17 C3.23269496 16.03753145 3.23269496 16.03753145 8 14 C8 13.01 8 12.02 8 11 C10.475 11.495 10.475 11.495 13 12 C13 12.66 13 13.32 13 14 C4.5 19 4.5 19 0 19 C0.391875 20.423125 0.78375 21.84625 1.1875 23.3125 C1.455625 24.859375 1.72375 26.40625 2 28 C1.01 28.99 0.02 29.98 -1 31 C-1.12375 28.40125 -1.12375 28.40125 -1.25 25.75 C-1.43855801 19.74849431 -1.43855801 19.74849431 -6 16 C-7.68056969 13.00776617 -9.34774083 10.00795901 -11 7 C-11.99 6.01 -12.98 5.02 -14 4 C-5.625 0 -5.625 0 0 0 Z " fill="#82593D" transform="translate(119,115)"/>
<path d="M0 0 C0.66 0.66 1.32 1.32 2 2 C4.475 2.495 4.475 2.495 7 3 C7 3.33 7 3.66 7 4 C5.35 4 3.7 4 2 4 C1.979375 4.9075 1.95875 5.815 1.9375 6.75 C1 10 1 10 -1.75 12.375 C-9.33845569 15.27646835 -17.11822171 14.45783268 -25 13 C-25 11.02 -25 9.04 -25 7 C-24.34 6.67 -23.68 6.34 -23 6 C-22.34 7.65 -21.68 9.3 -21 11 C-19.68 10.34 -18.36 9.68 -17 9 C-16.67 9.99 -16.34 10.98 -16 12 C-15.34 10.68 -14.68 9.36 -14 8 C-12.35 8.99 -10.7 9.98 -9 11 C-8.67 9.35 -8.34 7.7 -8 6 C-7.34 6 -6.68 6 -6 6 C-5.67 6.99 -5.34 7.98 -5 9 C-3.68 8.67 -2.36 8.34 -1 8 C-0.67 5.36 -0.34 2.72 0 0 Z " fill="#68351D" transform="translate(91,168)"/>
<path d="M0 0 C10.44 0.72 10.44 0.72 13 2 C14.32 2 15.64 2 17 2 C17 2.99 17 3.98 17 5 C18.32 5.33 19.64 5.66 21 6 C20.34 9.96 19.68 13.92 19 18 C18.34 18 17.68 18 17 18 C17.33 18.66 17.66 19.32 18 20 C18.66 20 19.32 20 20 20 C19.67 21.32 19.34 22.64 19 24 C18.34 24 17.68 24 17 24 C17 23.34 17 22.68 17 22 C15.35 23.32 13.7 24.64 12 26 C12.87281972 21.63590139 14.04444374 17.85242359 15.5625 13.6875 C16.01753906 12.43324219 16.47257812 11.17898437 16.94140625 9.88671875 C17.29074219 8.93410156 17.64007813 7.98148438 18 7 C17.34 7 16.68 7 16 7 C16 5.68 16 4.36 16 3 C14.68 4.32 13.36 5.64 12 7 C11.34 7 10.68 7 10 7 C10 5.35 10 3.7 10 2 C7.69 2.66 5.38 3.32 3 4 C3 4.99 3 5.98 3 7 C2.34 7 1.68 7 1 7 C1 5.35 1 3.7 1 2 C0.34 1.67 -0.32 1.34 -1 1 C-0.67 0.67 -0.34 0.34 0 0 Z " fill="#8D6246" transform="translate(84,28)"/>
<path d="M0 0 C1.32 1.65 2.64 3.3 4 5 C5.8253125 6.299375 5.8253125 6.299375 7.6875 7.625 C11 10 11 10 12 13 C10.35 13 8.7 13 7 13 C6.34 14.32 5.68 15.64 5 17 C3.02 17.99 3.02 17.99 1 19 C1 17.02 1 15.04 1 13 C0.34 13 -0.32 13 -1 13 C-0.67 8.71 -0.34 4.42 0 0 Z " fill="#A57653" transform="translate(61,99)"/>
<path d="M0 0 C0.33 0.66 0.66 1.32 1 2 C3.32156597 2.40729228 5.6568787 2.74438677 8 3 C8 3.33 8 3.66 8 4 C6.02 4.33 4.04 4.66 2 5 C1.67 6.32 1.34 7.64 1 9 C-1.97 8.505 -1.97 8.505 -5 8 C-4.67 8.99 -4.34 9.98 -4 11 C-6.475 10.01 -6.475 10.01 -9 9 C-9.66 10.32 -10.32 11.64 -11 13 C-12.65 11.68 -14.3 10.36 -16 9 C-14.68 6.69 -13.36 4.38 -12 2 C-11.67 2.66 -11.34 3.32 -11 4 C-11.33 4.99 -11.66 5.98 -12 7 C-6.75927154 5.28449727 -6.75927154 5.28449727 -3 1 C-2.01 0.67 -1.02 0.34 0 0 Z " fill="#B3967B" transform="translate(77,89)"/>
<path d="M0 0 C0.99 0 1.98 0 3 0 C2.35899292 4.3680998 1.36085647 8.46906635 0.0625 12.6875 C-0.27652344 13.80511719 -0.61554688 14.92273438 -0.96484375 16.07421875 C-2 19 -2 19 -4 22 C-5.65 22 -7.3 22 -9 22 C-8.01 21.67 -7.02 21.34 -6 21 C-6.061875 19.700625 -6.12375 18.40125 -6.1875 17.0625 C-5.93509344 10.24752297 -4.90105955 4.90105955 0 0 Z " fill="#7B5035" transform="translate(103,57)"/>
<path d="M0 0 C3.9375 -0.375 3.9375 -0.375 8 0 C8.99 0.99 9.98 1.98 11 3 C9 8 9 8 8 9 C4.66692066 9.04114913 1.33306631 9.04219071 -2 9 C-2 3 -2 3 0 0 Z " fill="#240D09" transform="translate(106,60)"/>
<path d="M0 0 C3.63 0 7.26 0 11 0 C11.33 0.66 11.66 1.32 12 2 C12.66 2 13.32 2 14 2 C14.3125 5.1875 14.3125 5.1875 14 9 C11.5 11.9375 11.5 11.9375 9 14 C8.34 13.67 7.68 13.34 7 13 C5.79931294 8.49742351 5.83580588 7.32838824 8 3 C5.03 3 2.06 3 -1 3 C-0.67 2.01 -0.34 1.02 0 0 Z " fill="#C2956D" transform="translate(62,162)"/>
<path d="M0 0 C3 2 3 2 4 6 C4.03947027 8.99974034 4.04411288 12.00032434 4 15 C3.34 15 2.68 15 2 15 C1.67 11.37 1.34 7.74 1 4 C0.01 4.495 0.01 4.495 -1 5 C-0.54177532 8.46941546 -0.10868317 11.67395049 1 15 C0.34 15 -0.32 15 -1 15 C-1.144375 16.4025 -1.28875 17.805 -1.4375 19.25 C-2 24 -2 24 -3 28 C-3.66 26.35 -4.32 24.7 -5 23 C-5.66 23 -6.32 23 -7 23 C-7 22.34 -7 21.68 -7 21 C-6.01 21 -5.02 21 -4 21 C-4.020625 19.55625 -4.04125 18.1125 -4.0625 16.625 C-4.00387414 11.34867264 -3.59874656 6.23903236 -3 1 C-2.01 0.67 -1.02 0.34 0 0 Z " fill="#C39F80" transform="translate(87,35)"/>
<path d="M0 0 C1.65 0 3.3 0 5 0 C5.99 0.99 6.98 1.98 8 3 C7.6875 7.1875 7.6875 7.1875 7 11 C6.34 10.67 5.68 10.34 5 10 C4.67 10.66 4.34 11.32 4 12 C3.34 12 2.68 12 2 12 C1.67 11.01 1.34 10.02 1 9 C0.01 9.495 0.01 9.495 -1 10 C-3 7 -3 7 -3 2 C-2.01 2 -1.02 2 0 2 C0 1.34 0 0.68 0 0 Z " fill="#78472A" transform="translate(139,158)"/>
<path d="M0 0 C3.375 0.375 3.375 0.375 5.375 2.375 C5.375 4.355 5.375 6.335 5.375 8.375 C2.41835481 9.8533226 -0.36729737 9.43532783 -3.625 9.375 C-3.955 8.055 -4.285 6.735 -4.625 5.375 C-5.615 5.045 -6.605 4.715 -7.625 4.375 C-3.625 0.375 -3.625 0.375 0 0 Z " fill="#3F1E14" transform="translate(77.625,59.625)"/>
<path d="M0 0 C1.5675 0.0825 3.135 0.165 4.75 0.25 C4.0625 3.0625 4.0625 3.0625 2.75 6.25 C0.275 7.735 0.275 7.735 -2.25 9.25 C-2.58 8.26 -2.91 7.27 -3.25 6.25 C-4.735 8.725 -4.735 8.725 -6.25 11.25 C-6.91 11.25 -7.57 11.25 -8.25 11.25 C-9 8 -9 8 -9.25 4.25 C-5.25 0.25 -5.25 0.25 0 0 Z " fill="#E5C29B" transform="translate(65.25,164.75)"/>
<path d="M0 0 C1.65 0.33 3.3 0.66 5 1 C5.66 2.98 6.32 4.96 7 7 C5.35 7.33 3.7 7.66 2 8 C0.99999571 12.00001715 1.19311595 14.05523353 2 18 C1.01 17.67 0.02 17.34 -1 17 C-1.33 15.02 -1.66 13.04 -2 11 C-3.32 12.32 -4.64 13.64 -6 15 C-6.66 15 -7.32 15 -8 15 C-7.34 11.37 -6.68 7.74 -6 4 C-5.67 4 -5.34 4 -5 4 C-5 5.65 -5 7.3 -5 9 C-0.75425988 6.4837263 -0.75425988 6.4837263 -0.25 2.8125 C-0.1675 1.884375 -0.085 0.95625 0 0 Z " fill="#A8815F" transform="translate(114,35)"/>
<path d="M0 0 C3 4 3 4 3 6 C1.02 6.33 -0.96 6.66 -3 7 C-3.33 7.99 -3.66 8.98 -4 10 C-4.99 10 -5.98 10 -7 10 C-7 9.01 -7 8.02 -7 7 C-7.66 7 -8.32 7 -9 7 C-9 5.02 -9 3.04 -9 1 C-5 -1 -5 -1 0 0 Z " fill="#EACFB2" transform="translate(85,81)"/>
<path d="M0 0 C0.66 0.33 1.32 0.66 2 1 C2 2.65 2 4.3 2 6 C3.65 5.67 5.3 5.34 7 5 C6.01 5.99 5.02 6.98 4 8 C3.34 8 2.68 8 2 8 C2 8.66 2 9.32 2 10 C2.99 10 3.98 10 5 10 C4.67 10.99 4.34 11.98 4 13 C-0.29 13 -4.58 13 -9 13 C-10 11 -10 11 -10 5 C-7.525 5.495 -7.525 5.495 -5 6 C-5.99 6.495 -5.99 6.495 -7 7 C-7.66 6.67 -8.32 6.34 -9 6 C-8.67 6.99 -8.34 7.98 -8 9 C-5.03 9.495 -5.03 9.495 -2 10 C-1.34 6.7 -0.68 3.4 0 0 Z " fill="#993811" transform="translate(98,10)"/>
<path d="M0 0 C3.375 -0.125 3.375 -0.125 7 0 C7.66 0.66 8.32 1.32 9 2 C7.35 2.33 5.7 2.66 4 3 C2.68 4.32 1.36 5.64 0 7 C-1.98 7.99 -1.98 7.99 -4 9 C-2.35 9.99 -0.7 10.98 1 12 C1 12.99 1 13.98 1 15 C-1.64 15 -4.28 15 -7 15 C-7 15.66 -7 16.32 -7 17 C-6.01 16.67 -5.02 16.34 -4 16 C-1.3125 17.9375 -1.3125 17.9375 1 20 C-3.455 19.01 -3.455 19.01 -8 18 C-8 16.68 -8 15.36 -8 14 C-6.02 13.67 -4.04 13.34 -2 13 C-3.32 12.34 -4.64 11.68 -6 11 C-6 9.35 -6 7.7 -6 6 C-3.5625 3.8125 -3.5625 3.8125 -1 2 C-0.67 1.34 -0.34 0.68 0 0 Z " fill="#C9A584" transform="translate(68,112)"/>
<path d="M0 0 C1.32 0.66 2.64 1.32 4 2 C3.67 3.98 3.34 5.96 3 8 C-6.625 8.125 -6.625 8.125 -10 7 C-7.43116955 0.57792388 -6.8873512 0 0 0 Z " fill="#CBAA8D" transform="translate(105,80)"/>
<path d="M0 0 C0.66 0 1.32 0 2 0 C1.67 1.65 1.34 3.3 1 5 C2.65 4.34 4.3 3.68 6 3 C5 8 5 8 1.75 10.375 C-2 12 -2 12 -7 11 C-7 9.68 -7 8.36 -7 7 C-6.34 7 -5.68 7 -5 7 C-4.67 6.01 -4.34 5.02 -4 4 C-2.68 2.68 -1.36 1.36 0 0 Z " fill="#875535" transform="translate(129,40)"/>
<path d="M0 0 C0.33 1.65 0.66 3.3 1 5 C-8.5 7 -8.5 7 -13 7 C-13 5.35 -13 3.7 -13 2 C-8.075028 0.0300112 -5.19070281 -0.17595603 0 0 Z " fill="#DFCEBB" transform="translate(97,92)"/>
<path d="M0 0 C1.38121182 4.14363547 0.02904675 5.73489421 -1.8125 9.625 C-2.35519531 10.79289062 -2.89789063 11.96078125 -3.45703125 13.1640625 C-5 16 -5 16 -7 17 C-6.67 14.03 -6.34 11.06 -6 8 C-6.66 8 -7.32 8 -8 8 C-8.33 7.01 -8.66 6.02 -9 5 C-10.98 5 -12.96 5 -15 5 C-14.67 4.34 -14.34 3.68 -14 3 C-8 3 -8 3 -6 4 C-6 3.01 -6 2.02 -6 1 C-3.03 1.495 -3.03 1.495 0 2 C0 1.34 0 0.68 0 0 Z " fill="#C49E7F" transform="translate(67,40)"/>
<path d="M0 0 C0.99 0.33 1.98 0.66 3 1 C4 4 4 4 3 7 C2.95970939 10.6664453 2.95686573 14.33358706 3 18 C2.154375 17.690625 1.30875 17.38125 0.4375 17.0625 C-3.0497854 15.98461179 -6.38177535 15.43418696 -10 15 C-10 14.67 -10 14.34 -10 14 C-5.545 13.505 -5.545 13.505 -1 13 C-1.20625 11.411875 -1.4125 9.82375 -1.625 8.1875 C-2 3 -2 3 0 0 Z " fill="#815539" transform="translate(117,45)"/>
<path d="M0 0 C7.44827586 2.89655172 7.44827586 2.89655172 10 8 C6 7 6 7 1 4 C-4.40986717 3.40285303 -9.71223177 3.67805794 -15 5 C-15 5.66 -15 6.32 -15 7 C-15.99 6.67 -16.98 6.34 -18 6 C-14 3 -14 3 -12 3 C-12 2.34 -12 1.68 -12 1 C-8.15940131 -0.92029935 -4.18443539 -0.24328113 0 0 Z " fill="#C79B57" transform="translate(100,117)"/>
<path d="M0 0 C0 0.33 0 0.66 0 1 C-1.98 1 -3.96 1 -6 1 C-6 1.66 -6 2.32 -6 3 C-5.05125 3.103125 -4.1025 3.20625 -3.125 3.3125 C0 4 0 4 2 7 C0.63875 7.12375 -0.7225 7.2475 -2.125 7.375 C-6.09238469 7.88363906 -9.29846648 8.57633326 -13 10 C-12 6 -12 6 -11 3 C-11.66 2.34 -12.32 1.68 -13 1 C-8.60563789 0.14256349 -4.47427924 -0.08948558 0 0 Z " fill="#CEB498" transform="translate(143,35)"/>
<path d="M0 0 C2.475 0.99 2.475 0.99 5 2 C5.8125 5.125 5.8125 5.125 6 8 C5.01 8 4.02 8 3 8 C3 10.31 3 12.62 3 15 C1.68 14.34 0.36 13.68 -1 13 C-1.09765625 3.72265625 -1.09765625 3.72265625 -1 1 C-0.67 0.67 -0.34 0.34 0 0 Z " fill="#BC8F66" transform="translate(79,164)"/>
<path d="M0 0 C9.28571429 5.57142857 9.28571429 5.57142857 11 9 C7.45116706 9.63697002 3.96940933 10.09748831 0.375 10.4375 C-4.08171582 10.76627164 -4.08171582 10.76627164 -8 13 C-7.34 11.35 -6.68 9.7 -6 8 C-4.35 8 -2.7 8 -1 8 C-1.66 6.35 -2.32 4.7 -3 3 C0 4 0 4 3 7 C2.34 5.68 1.68 4.36 1 3 C0.67 2.01 0.34 1.02 0 0 Z " fill="#5E4130" transform="translate(110,88)"/>
<path d="M0 0 C0.66 0 1.32 0 2 0 C2.50249143 2.29112166 3.00192117 4.58291501 3.5 6.875 C3.7784375 8.15117188 4.056875 9.42734375 4.34375 10.7421875 C5 14 5 14 5 16 C3.35 16.33 1.7 16.66 0 17 C-1.77861367 11.03641298 -2.89437753 5.78875506 0 0 Z " fill="#D9BD9F" transform="translate(86,50)"/>
<path d="M0 0 C0.33 0.66 0.66 1.32 1 2 C0.01 3.485 0.01 3.485 -1 5 C-1.09867211 8.04032762 -1.09867211 8.04032762 -0.75 11.375 C-0.66234375 12.49648437 -0.5746875 13.61796875 -0.484375 14.7734375 C-0.06871241 18.38268893 -0.06871241 18.38268893 2 23 C0.68 22.67 -0.64 22.34 -2 22 C-5.02401943 16.95996761 -5.35511254 15.71871373 -5.1875 10.1875 C-5.16042969 9.02605469 -5.13335937 7.86460937 -5.10546875 6.66796875 C-5.07066406 5.78753906 -5.03585938 4.90710938 -5 4 C-4.01 3.67 -3.02 3.34 -2 3 C-1.34 2.01 -0.68 1.02 0 0 Z " fill="#CAA15B" transform="translate(81,124)"/>
<path d="M0 0 C0.33 0 0.66 0 1 0 C1.33 1.98 1.66 3.96 2 6 C2.99 6.33 3.98 6.66 5 7 C5 7.66 5 8.32 5 9 C5.99 9 6.98 9 8 9 C8 7.35 8 5.7 8 4 C8.66 4 9.32 4 10 4 C10.99 5.485 10.99 5.485 12 7 C13.32 6.67 14.64 6.34 16 6 C16.33 7.32 16.66 8.64 17 10 C17.66 10.66 18.32 11.32 19 12 C11.92112356 12.44945247 7.22353828 11.44688274 1 8 C-1 4 -1 4 0 0 Z " fill="#845639" transform="translate(101,170)"/>
<path d="M0 0 C0.80695313 0.81855469 1.61390625 1.63710937 2.4453125 2.48046875 C6.92444471 5.65523828 9.45018199 5.52114685 14.875 5.3125 C16.39867188 5.26738281 17.92234375 5.22226563 19.4921875 5.17578125 C21.22855469 5.08876953 21.22855469 5.08876953 23 5 C23 5.66 23 6.32 23 7 C15.51462192 9.49512603 8.20721907 10.10360954 1.125 6.5625 C0.09375 5.716875 -0.9375 4.87125 -2 4 C-1.34 2.68 -0.68 1.36 0 0 Z " fill="#5D3525" transform="translate(79,96)"/>
<path d="M0 0 C0.66 0 1.32 0 2 0 C1.79375 1.27875 1.5875 2.5575 1.375 3.875 C1.189375 5.916875 1.189375 5.916875 1 8 C1.66 8.66 2.32 9.32 3 10 C3.66 9.67 4.32 9.34 5 9 C5 10.32 5 11.64 5 13 C5.66 13 6.32 13 7 13 C7.33 12.01 7.66 11.02 8 10 C8.33 10.33 8.66 10.66 9 11 C9.66 10.34 10.32 9.68 11 9 C11 10.32 11 11.64 11 13 C10.34 13.66 9.68 14.32 9 15 C7.02 15 5.04 15 3 15 C2.67 15.99 2.34 16.98 2 18 C1.731875 16.906875 1.46375 15.81375 1.1875 14.6875 C0.2398039 10.78348726 0.2398039 10.78348726 -3 8 C-1.125 1.125 -1.125 1.125 0 0 Z " fill="#4E2919" transform="translate(136,157)"/>
<path d="M0 0 C0.33 0 0.66 0 1 0 C2.25 6.625 2.25 6.625 0 10 C-3.625 11.1875 -3.625 11.1875 -7 12 C-7.33 11.67 -7.66 11.34 -8 11 C-8 9.35 -8 7.7 -8 6 C-7.34 6 -6.68 6 -6 6 C-6 5.01 -6 4.02 -6 3 C-4.35 3 -2.7 3 -1 3 C-0.67 2.01 -0.34 1.02 0 0 Z " fill="#7B5942" transform="translate(137,169)"/>
<path d="M0 0 C3.66567554 -0.08524827 7.33423835 -0.08146137 11 0 C11.66 0.66 12.32 1.32 13 2 C12.67 3.32 12.34 4.64 12 6 C11.01 6 10.02 6 9 6 C8.67 5.34 8.34 4.68 8 4 C7.01 4.99 6.02 5.98 5 7 C4.01 6.67 3.02 6.34 2 6 C0.8125 2.9375 0.8125 2.9375 0 0 Z " fill="#C5A281" transform="translate(123,165)"/>
<path d="M0 0 C0.33 0 0.66 0 1 0 C0.94016989 2.4590176 0.85144158 4.91734729 0.75 7.375 C0.70359375 8.74398437 0.6571875 10.11296875 0.609375 11.5234375 C0.40828125 12.67070312 0.2071875 13.81796875 0 15 C-1.98 15.99 -1.98 15.99 -4 17 C-6.25 9.625 -6.25 9.625 -4 4 C-2.68 3.67 -1.36 3.34 0 3 C0 2.01 0 1.02 0 0 Z " fill="#C2A489" transform="translate(56,122)"/>
<path d="M0 0 C1.65 0 3.3 0 5 0 C4.34 1.65 3.68 3.3 3 5 C1.02 5 -0.96 5 -3 5 C-2.67 6.65 -2.34 8.3 -2 10 C-4.97 10 -7.94 10 -11 10 C-10.34 9.01 -9.68 8.02 -9 7 C-10.32 6.67 -11.64 6.34 -13 6 C-13.66 5.34 -14.32 4.68 -15 4 C-14.01 4 -13.02 4 -12 4 C-11.67 3.34 -11.34 2.68 -11 2 C-11 2.66 -11 3.32 -11 4 C-8.8535247 3.88655624 -6.70779408 3.75893655 -4.5625 3.625 C-3.36753906 3.55539063 -2.17257813 3.48578125 -0.94140625 3.4140625 C0.02925781 3.27742188 0.99992187 3.14078125 2 3 C2.33 2.34 2.66 1.68 3 1 C2.01 0.67 1.02 0.34 0 0 Z " fill="#C68740" transform="translate(100,19)"/>
<path d="M0 0 C0 1.65 0 3.3 0 5 C0.66 5 1.32 5 2 5 C2 5.66 2 6.32 2 7 C2.66 7 3.32 7 4 7 C3.67 8.32 3.34 9.64 3 11 C2.67 10.01 2.34 9.02 2 8 C0.35 8 -1.3 8 -3 8 C-3.33 8.99 -3.66 9.98 -4 11 C-6 6 -6 6 -7 2 C-4 0 -4 0 0 0 Z " fill="#A67F65" transform="translate(94,30)"/>
<path d="M0 0 C1.32 0.66 2.64 1.32 4 2 C4 8 4 8 2 13 C1.01 12.67 0.02 12.34 -1 12 C-1 10.02 -1 8.04 -1 6 C-1.66 6 -2.32 6 -3 6 C-2.67 4.35 -2.34 2.7 -2 1 C-1.34 0.67 -0.68 0.34 0 0 Z " fill="#662D16" transform="translate(56,46)"/>
<path d="M0 0 C0.33 0.99 0.66 1.98 1 3 C-4 4 -4 4 -10 4 C-10.99 4.99 -11.98 5.98 -13 7 C-13 6.34 -13 5.68 -13 5 C-13.66 5 -14.32 5 -15 5 C-15 4.01 -15 3.02 -15 2 C-16.65 2.33 -18.3 2.66 -20 3 C-20.33 2.34 -20.66 1.68 -21 1 C-18.62517902 0.83080156 -16.25013378 0.66474916 -13.875 0.5 C-11.89113281 0.36078125 -11.89113281 0.36078125 -9.8671875 0.21875 C-6.5825675 0.03295331 -3.28987066 0 0 0 Z " fill="#64331D" transform="translate(116,28)"/>
<path d="M0 0 C6.75 -0.125 6.75 -0.125 9 1 C9 1.66 9 2.32 9 3 C9.99 3 10.98 3 12 3 C14 7 14 7 14 10 C13.34 10 12.68 10 12 10 C11.34 8.35 10.68 6.7 10 5 C10 6.32 10 7.64 10 9 C6.37 8.34 2.74 7.68 -1 7 C-1 6.67 -1 6.34 -1 6 C1.64 5.67 4.28 5.34 7 5 C4.69 4.01 2.38 3.02 0 2 C0 1.34 0 0.68 0 0 Z " fill="#967158" transform="translate(137,36)"/>
<path d="M0 0 C1.85625 0.1546875 1.85625 0.1546875 3.75 0.3125 C4.08 1.9625 4.41 3.6125 4.75 5.3125 C2.955625 5.1578125 2.955625 5.1578125 1.125 5 C-4.02709552 5.36800682 -5.66779883 6.73029883 -9.25 10.3125 C-7.94369457 3.78097286 -7.03127988 0.51700587 0 0 Z " fill="#DDC7B0" transform="translate(56.25,38.6875)"/>
<path d="M0 0 C0.66 0.99 1.32 1.98 2 3 C-0.31 4.32 -2.62 5.64 -5 7 C-4.67 7.66 -4.34 8.32 -4 9 C-7.20277474 10.60138737 -10.47856243 10.05679738 -14 10 C-14 9.34 -14 8.68 -14 8 C-13.24074219 7.59007813 -12.48148437 7.18015625 -11.69921875 6.7578125 C-10.70535156 6.21898438 -9.71148437 5.68015625 -8.6875 5.125 C-7.20830078 4.32449219 -7.20830078 4.32449219 -5.69921875 3.5078125 C-2.90413542 1.99277874 -2.90413542 1.99277874 0 0 Z " fill="#67351B" transform="translate(118,107)"/>
<path d="M0 0 C0.66 0.66 1.32 1.32 2 2 C3.65 2.33 5.3 2.66 7 3 C7 3.33 7 3.66 7 4 C5.35 4 3.7 4 2 4 C1.938125 4.928125 1.87625 5.85625 1.8125 6.8125 C1 10 1 10 -4 13 C-5.65 13 -7.3 13 -9 13 C-9 8 -9 8 -8 6 C-7.34 6 -6.68 6 -6 6 C-5.67 6.99 -5.34 7.98 -5 9 C-3.68 8.67 -2.36 8.34 -1 8 C-0.67 5.36 -0.34 2.72 0 0 Z " fill="#5B2D17" transform="translate(91,168)"/>
<path d="M0 0 C0.33 0 0.66 0 1 0 C1 1.98 1 3.96 1 6 C2.32 6.33 3.64 6.66 5 7 C4.01 7.33 3.02 7.66 2 8 C2.33 10.97 2.66 13.94 3 17 C2.34 17 1.68 17 1 17 C1.33 17.66 1.66 18.32 2 19 C1.01 19 0.02 19 -1 19 C-1.02683891 16.02088138 -1.04632128 13.04169558 -1.0625 10.0625 C-1.07410156 8.40347656 -1.08570313 6.74445313 -1.09765625 5.03515625 C-1 1 -1 1 0 0 Z " fill="#A06D4B" transform="translate(58,126)"/>
<path d="M0 0 C1.65 0 3.3 0 5 0 C4.71957645 2.98024598 4.42537176 5.95919842 4.125 8.9375 C3.96257812 10.59652344 3.80015625 12.25554688 3.6328125 13.96484375 C3.42398438 15.29644531 3.21515625 16.62804687 3 18 C2.34 18.33 1.68 18.66 1 19 C0.67 12.73 0.34 6.46 0 0 Z " fill="#82553A" transform="translate(91,38)"/>
<path d="M0 0 C1.32 0.33 2.64 0.66 4 1 C3.02186139 4.91255446 1.62754086 8.32034241 0 12 C-0.99 12 -1.98 12 -3 12 C-3.375 4.5 -3.375 4.5 0 0 Z " fill="#D1B59B" transform="translate(107,32)"/>
<path d="M0 0 C0.99 0.33 1.98 0.66 3 1 C2 4 2 4 -2.3125 6.75 C-7 9 -7 9 -11 8 C-10.34 7.01 -9.68 6.02 -9 5 C-8.34 5 -7.68 5 -7 5 C-6.67 3.68 -6.34 2.36 -6 1 C-4.35 1 -2.7 1 -1 1 C-0.67 0.67 -0.34 0.34 0 0 Z " fill="#391912" transform="translate(116,98)"/>
<path d="M0 0 C1.98 0.66 3.96 1.32 6 2 C6 2.66 6 3.32 6 4 C5.34 4 4.68 4 4 4 C3.34 5.65 2.68 7.3 2 9 C-1.83567829 9.95891957 -4.82281141 10.10177189 -8.75 10.0625 C-9.92046875 10.05347656 -11.0909375 10.04445313 -12.296875 10.03515625 C-13.18890625 10.02355469 -14.0809375 10.01195313 -15 10 C-15 9.67 -15 9.34 -15 9 C-14.08476563 8.87882812 -13.16953125 8.75765625 -12.2265625 8.6328125 C-11.03804688 8.46523437 -9.84953125 8.29765625 -8.625 8.125 C-6.84996094 7.88136719 -6.84996094 7.88136719 -5.0390625 7.6328125 C-1.90433341 7.2697415 -1.90433341 7.2697415 0 5 C0 3.35 0 1.7 0 0 Z " fill="#967A66" transform="translate(100,92)"/>
<path d="M0 0 C0.66 0 1.32 0 2 0 C1.34 4.95 0.68 9.9 0 15 C-0.33 14.34 -0.66 13.68 -1 13 C-2.98 13 -4.96 13 -7 13 C-7.33 11.68 -7.66 10.36 -8 9 C-6.02 9 -4.04 9 -2 9 C-2.33 7.35 -2.66 5.7 -3 4 C-2.34 4 -1.68 4 -1 4 C-0.67 2.68 -0.34 1.36 0 0 Z " fill="#D4A271" transform="translate(97,7)"/>
<path d="M0 0 C3 4 3 4 4 7 C3.34 7.66 2.68 8.32 2 9 C1.01 7.35 0.02 5.7 -1 4 C-1.33 5.98 -1.66 7.96 -2 10 C-0.02 10 1.96 10 4 10 C4 10.33 4 10.66 4 11 C-1.53620678 11.32565922 -2.97599013 11.01440592 -8 8 C-7.67 6.35 -7.34 4.7 -7 3 C-6.34 4.32 -5.68 5.64 -5 7 C-4.34 7 -3.68 7 -3 7 C-2.67 5.35 -2.34 3.7 -2 2 C-1.34 1.34 -0.68 0.68 0 0 Z " fill="#9F6C48" transform="translate(68,171)"/>
<path d="M0 0 C0.78375 0.53625 1.5675 1.0725 2.375 1.625 C5.27789965 3.52689977 8.19697019 5.3067131 11.1875 7.0625 C16 10 16 10 19 13 C10.98113802 11.85444829 6.87322988 9.32261458 1 4 C0.67 2.68 0.34 1.36 0 0 Z " fill="#CAA744" transform="translate(62,99)"/>
<path d="M0 0 C1.65 0 3.3 0 5 0 C4.67 0.66 4.34 1.32 4 2 C3.01 1.67 2.02 1.34 1 1 C0.67 1.99 0.34 2.98 0 4 C-0.99 4.495 -0.99 4.495 -2 5 C-3.70509703 10.61679022 -4.45312896 16.16670896 -5 22 C-5.66 21.67 -6.32 21.34 -7 21 C-7.21366247 13.84230724 -6.21842768 9.43685536 -3 3 C-2.01 2.01 -1.02 1.02 0 0 Z " fill="#BB9471" transform="translate(102,56)"/>
<path d="M0 0 C1.32 0.33 2.64 0.66 4 1 C4 2.65 4 4.3 4 6 C3.01 6.99 2.02 7.98 1 9 C-3 8 -3 8 -7 5 C-6.030625 4.54625 -5.06125 4.0925 -4.0625 3.625 C-0.92920418 2.34213779 -0.92920418 2.34213779 0 0 Z " fill="#B29377" transform="translate(116,65)"/>
<path d="M0 0 C5 1 5 1 8 4 C7.67 5.65 7.34 7.3 7 9 C5.68 9.33 4.36 9.66 3 10 C3.33 8.68 3.66 7.36 4 6 C3.01 6 2.02 6 1 6 C0.67 4.02 0.34 2.04 0 0 Z " fill="#CAA57C" transform="translate(106,14)"/>
<path d="M0 0 C3.59639174 3.59639174 2.9683246 9.13465862 3 14 C2.0625 17.75 2.0625 17.75 1 20 C0.34 19.34 -0.32 18.68 -1 18 C-1.66 18.33 -2.32 18.66 -3 19 C-2.68289062 18.15179688 -2.36578125 17.30359375 -2.0390625 16.4296875 C-0.97128768 12.90522775 -0.59958921 9.79329043 -0.375 6.125 C-0.30023438 4.97257813 -0.22546875 3.82015625 -0.1484375 2.6328125 C-0.09945312 1.76398438 -0.05046875 0.89515625 0 0 Z " fill="#562912" transform="translate(114,130)"/>
<path d="M0 0 C2.31 0 4.62 0 7 0 C7 0.66 7 1.32 7 2 C7.66 2 8.32 2 9 2 C9 3.65 9 5.3 9 7 C8.34 7 7.68 7 7 7 C6.67 8.32 6.34 9.64 6 11 C5.34 11 4.68 11 4 11 C3.34 9.68 2.68 8.36 2 7 C3.375 3.75 3.375 3.75 5 1 C3.35 1 1.7 1 0 1 C0 0.67 0 0.34 0 0 Z " fill="#C79E78" transform="translate(50,157)"/>
<path d="M0 0 C0.99 0.33 1.98 0.66 3 1 C4.09698106 3.96591176 5.10308811 6.96758363 6 10 C3.03 9.67 0.06 9.34 -3 9 C-2.01 6.03 -1.02 3.06 0 0 Z " fill="#7B4625" transform="translate(96,108)"/>
<path d="M0 0 C2.475 0.99 2.475 0.99 5 2 C5 2.66 5 3.32 5 4 C6.32 4.99 7.64 5.98 9 7 C8.67 7.99 8.34 8.98 8 10 C3 8 3 8 -1 5 C-0.67 3.35 -0.34 1.7 0 0 Z " fill="#766D6D" transform="translate(68,98)"/>
<path d="M0 0 C0.99 0.66 1.98 1.32 3 2 C3.1875 6.625 3.1875 6.625 3 11 C1.35 11.66 -0.3 12.32 -2 13 C-2.33 11.68 -2.66 10.36 -3 9 C-3.66 10.32 -4.32 11.64 -5 13 C-5.33 11.35 -5.66 9.7 -6 8 C-3.69 7.34 -1.38 6.68 1 6 C0.67 4.02 0.34 2.04 0 0 Z " fill="#885331" transform="translate(88,165)"/>
<path d="M0 0 C3 3 3 3 3.0625 6.5 C2 10 2 10 -1.0625 11.9375 C-2.031875 12.288125 -3.00125 12.63875 -4 13 C-3.07563878 8.3781939 -1.70612169 4.37657304 0 0 Z " fill="#542A19" transform="translate(103,68)"/>
<path d="M0 0 C0.33 0.66 0.66 1.32 1 2 C3.475 2.99 3.475 2.99 6 4 C6 5.32 6 6.64 6 8 C2.1875 8.6875 2.1875 8.6875 -2 9 C-2.99 8.01 -3.98 7.02 -5 6 C-4.01 5.67 -3.02 5.34 -2 5 C-1.34 3.35 -0.68 1.7 0 0 Z " fill="#815238" transform="translate(106,73)"/>
<path d="M0 0 C3 2 3 2 4 6 C4.03947027 8.99974034 4.04411288 12.00032434 4 15 C3.34 15 2.68 15 2 15 C1.67 11.37 1.34 7.74 1 4 C-0.32 4.99 -1.64 5.98 -3 7 C-3 5.02 -3 3.04 -3 1 C-2.01 0.67 -1.02 0.34 0 0 Z " fill="#B8967B" transform="translate(87,35)"/>
<path d="M0 0 C0.99 0 1.98 0 3 0 C3 4.29 3 8.58 3 13 C2.01 13.33 1.02 13.66 0 14 C-0.19393875 11.85473901 -0.37998676 9.70876323 -0.5625 7.5625 C-0.71912109 5.77005859 -0.71912109 5.77005859 -0.87890625 3.94140625 C-0.91886719 2.97074219 -0.95882812 2.00007813 -1 1 C-0.67 0.67 -0.34 0.34 0 0 Z " fill="#EBD8C3" transform="translate(81,31)"/>
<path d="M0 0 C0.33 0 0.66 0 1 0 C1.33 4.62 1.66 9.24 2 14 C-0.31 14 -2.62 14 -5 14 C-3.77263971 9.84585747 -2.672336 7.56311466 0 4 C-0.66 3.67 -1.32 3.34 -2 3 C-1.34 3 -0.68 3 0 3 C0 2.01 0 1.02 0 0 Z " fill="#9C7359" transform="translate(83,65)"/>
<path d="M0 0 C5.5625 0.25 5.5625 0.25 8.5625 2.25 C8.2325 3.9 7.9025 5.55 7.5625 7.25 C3.1075 7.745 3.1075 7.745 -1.4375 8.25 C-0.1175 7.92 1.2025 7.59 2.5625 7.25 C2.8925 6.59 3.2225 5.93 3.5625 5.25 C4.2225 5.58 4.8825 5.91 5.5625 6.25 C5.2325 4.6 4.9025 2.95 4.5625 1.25 C-1.3775 1.745 -1.3775 1.745 -7.4375 2.25 C-5.4375 0.25 -5.4375 0.25 0 0 Z " fill="#C4A992" transform="translate(92.4375,90.75)"/>
<path d="M0 0 C2 3 2 3 2 8 C-3 7 -3 7 -5 5 C-5 3.68 -5 2.36 -5 1 C-3.35 0.67 -1.7 0.34 0 0 Z " fill="#8E6449" transform="translate(53,165)"/>
<path d="M0 0 C2.475 0.99 2.475 0.99 5 2 C4.67 2.99 4.34 3.98 4 5 C3.34 5 2.68 5 2 5 C2 5.66 2 6.32 2 7 C3.32 7.33 4.64 7.66 6 8 C4.35 8.33 2.7 8.66 1 9 C-2 3.25 -2 3.25 -2 1 C-1.34 0.67 -0.68 0.34 0 0 Z " fill="#352126" transform="translate(102,110)"/>
<path d="M0 0 C0.66 0.33 1.32 0.66 2 1 C1.01 2.485 1.01 2.485 0 4 C4.29 4.33 8.58 4.66 13 5 C13.33 4.01 13.66 3.02 14 2 C14.33 2.66 14.66 3.32 15 4 C14.67 4.66 14.34 5.32 14 6 C13.01 6 12.02 6 11 6 C10.67 6.66 10.34 7.32 10 8 C0.25 6.125 0.25 6.125 -2 5 C-1 1 -1 1 0 0 Z " fill="#A37A5E" transform="translate(95,83)"/>
<path d="M0 0 C2 2 2 2 2 8 C1.01 8.99 0.02 9.98 -1 11 C-0.67 9.02 -0.34 7.04 0 5 C-1.32 4.67 -2.64 4.34 -4 4 C-4.33 5.32 -4.66 6.64 -5 8 C-6.98 8.99 -6.98 8.99 -9 10 C-8.67 8.35 -8.34 6.7 -8 5 C-7.01 5.33 -6.02 5.66 -5 6 C-5 5.01 -5 4.02 -5 3 C-3.35 2.01 -1.7 1.02 0 0 Z " fill="#CCAB8F" transform="translate(72,45)"/>
<path d="M0 0 C0.66 0 1.32 0 2 0 C2 0.66 2 1.32 2 2 C3.32 2 4.64 2 6 2 C6.33 3.65 6.66 5.3 7 7 C7.66 7.33 8.32 7.66 9 8 C8.34 9.32 7.68 10.64 7 12 C6.34 12 5.68 12 5 12 C5 11.34 5 10.68 5 10 C4.34 10 3.68 10 3 10 C2.67 11.65 2.34 13.3 2 15 C1.34 14.34 0.68 13.68 0 13 C0.66 11.68 1.32 10.36 2 9 C3.32 8.67 4.64 8.34 6 8 C5.67 6.35 5.34 4.7 5 3 C3.02 3 1.04 3 -1 3 C-0.67 2.01 -0.34 1.02 0 0 Z " fill="#A57856" transform="translate(114,33)"/>
<path d="M0 0 C0.33 0 0.66 0 1 0 C0.88539277 3.18789059 0.75789466 6.37531939 0.625 9.5625 C0.52058594 12.22505859 0.52058594 12.22505859 0.4140625 14.94140625 C0.05821352 19.2888065 -0.61260587 22.88857592 -2 27 C-2.33 27 -2.66 27 -3 27 C-3.09312697 21.46825816 -2.7721414 16.17297623 -2.0625 10.6875 C-1.88847656 9.30949219 -1.71445312 7.93148437 -1.53515625 6.51171875 C-1 3 -1 3 0 0 Z " fill="#AD8E79" transform="translate(60,99)"/>
<path d="M0 0 C0 1.32 0 2.64 0 4 C-0.99 4.99 -1.98 5.98 -3 7 C-3.99 6.67 -4.98 6.34 -6 6 C-7.1875 2.9375 -7.1875 2.9375 -8 0 C-5.13822943 -1.43088528 -3.06624227 -0.59991697 0 0 Z " fill="#844F2E" transform="translate(128,36)"/>
<path d="M0 0 C5.4375 0.1875 5.4375 0.1875 11 1 C11.66 2.32 12.32 3.64 13 5 C12.67 5.66 12.34 6.32 12 7 C11.34 7 10.68 7 10 7 C10 5.35 10 3.7 10 2 C7.69 2.66 5.38 3.32 3 4 C3 4.99 3 5.98 3 7 C2.34 7 1.68 7 1 7 C1 5.35 1 3.7 1 2 C0.34 1.67 -0.32 1.34 -1 1 C-0.67 0.67 -0.34 0.34 0 0 Z " fill="#845032" transform="translate(84,28)"/>
<path d="M0 0 C5.875 3.625 5.875 3.625 7 7 C7.03954234 9.33299825 7.04401732 11.66708189 7 14 C6.01 13.67 5.02 13.34 4 13 C3.29433704 10.34338649 2.62723795 7.67621526 2 5 C1.34 4.67 0.68 4.34 0 4 C0 2.68 0 1.36 0 0 Z " fill="#602D16" transform="translate(80,149)"/>
<path d="M0 0 C0.99 0 1.98 0 3 0 C3 0.66 3 1.32 3 2 C4.65 2 6.3 2 8 2 C8 1.34 8 0.68 8 0 C8.99 0 9.98 0 11 0 C11 0.66 11 1.32 11 2 C11.66 2.33 12.32 2.66 13 3 C10.23547967 4.38226016 7.9538637 4.09525387 4.875 4.0625 C1.966875 4.0315625 1.966875 4.0315625 -1 4 C-1.33 3.34 -1.66 2.68 -2 2 C-1.34 2 -0.68 2 0 2 C0 1.34 0 0.68 0 0 Z " fill="#813814" transform="translate(99,25)"/>
<path d="M0 0 C0.33 0.99 0.66 1.98 1 3 C-0.8125 6.1875 -0.8125 6.1875 -3 9 C-3.66 9 -4.32 9 -5 9 C-5 10.32 -5 11.64 -5 13 C-6.98 13.99 -6.98 13.99 -9 15 C-7.4643143 8.85725721 -4.05012233 4.70689892 0 0 Z " fill="#6B361B" transform="translate(113,150)"/>
<path d="M0 0 C0.33 0.66 0.66 1.32 1 2 C0.67 2.99 0.34 3.98 0 5 C0.99 4.67 1.98 4.34 3 4 C2.67 6.31 2.34 8.62 2 11 C0.02 10.01 -1.96 9.02 -4 8 C-1.125 1.125 -1.125 1.125 0 0 Z " fill="#9A8C85" transform="translate(65,91)"/>
<path d="M0 0 C0.66 0 1.32 0 2 0 C2.309375 1.7325 2.61875 3.465 2.9375 5.25 C3.54111455 8.51661992 4.19431592 11.77726368 5 15 C4.34 15 3.68 15 3 15 C-1 6.625 -1 6.625 -1 1 C-0.67 0.67 -0.34 0.34 0 0 Z " fill="#92694F" transform="translate(86,39)"/>
<path d="M0 0 C0.66 0.99 1.32 1.98 2 3 C3.32 2.34 4.64 1.68 6 1 C5.01 3.31 4.02 5.62 3 8 C2.34 8 1.68 8 1 8 C0.34 7.34 -0.32 6.68 -1 6 C-1.99 7.485 -1.99 7.485 -3 9 C-3.66 8.67 -4.32 8.34 -5 8 C-5 7.34 -5 6.68 -5 6 C-4.34 6 -3.68 6 -3 6 C-2.67 4.68 -2.34 3.36 -2 2 C-1.34 1.34 -0.68 0.68 0 0 Z " fill="#C69A74" transform="translate(62,170)"/>
<path d="M0 0 C0.66 0 1.32 0 2 0 C3.34672935 4.04018806 3.06133756 7.76770846 3 12 C2.67 12 2.34 12 2 12 C2 10.35 2 8.7 2 7 C1.34 7 0.68 7 0 7 C0 6.34 0 5.68 0 5 C-1.65 5 -3.3 5 -5 5 C-4.67 3.68 -4.34 2.36 -4 1 C-3.67 1.66 -3.34 2.32 -3 3 C-2.01 2.01 -1.02 1.02 0 0 Z " fill="#B38866" transform="translate(57,152)"/>
<path d="M0 0 C0.33 0 0.66 0 1 0 C1.125 9.625 1.125 9.625 0 13 C-0.66 13 -1.32 13 -2 13 C-2 14.65 -2 16.3 -2 18 C-2.33 18 -2.66 18 -3 18 C-3.31917087 11.29741177 -2.38707128 6.2660621 0 0 Z " fill="#966948" transform="translate(100,60)"/>
<path d="M0 0 C0.99 0 1.98 0 3 0 C3.33 0.66 3.66 1.32 4 2 C6.99053308 2.40966207 9.99225898 2.7458247 13 3 C11 7 11 7 9 8 C9 7.34 9 6.68 9 6 C6.36 5.34 3.72 4.68 1 4 C0.67 2.68 0.34 1.36 0 0 Z " fill="#D3BDA6" transform="translate(70,66)"/>
<path d="M0 0 C1.65 0 3.3 0 5 0 C5.66 0.66 6.32 1.32 7 2 C6.67 3.32 6.34 4.64 6 6 C4.35 6 2.7 6 1 6 C0.67 5.67 0.34 5.34 0 5 C0 3.35 0 1.7 0 0 Z " fill="#936647" transform="translate(140,159)"/>
<path d="M0 0 C0.99 0 1.98 0 3 0 C3.66 1.98 4.32 3.96 5 6 C4.34 6.66 3.68 7.32 3 8 C1.02 8 -0.96 8 -3 8 C-2.01 7.67 -1.02 7.34 0 7 C-0.185625 6.030625 -0.37125 5.06125 -0.5625 4.0625 C-0.706875 3.051875 -0.85125 2.04125 -1 1 C-0.67 0.67 -0.34 0.34 0 0 Z " fill="#A06F48" transform="translate(85,165)"/>
<path d="M0 0 C0.33 0 0.66 0 1 0 C1.33 2.31 1.66 4.62 2 7 C2.66 7 3.32 7 4 7 C3.34 8.98 2.68 10.96 2 13 C1.01 12.67 0.02 12.34 -1 12 C-1.66 10.35 -2.32 8.7 -3 7 C-2.34 7 -1.68 7 -1 7 C-0.67 4.69 -0.34 2.38 0 0 Z " fill="#CEB095" transform="translate(80,37)"/>
<path d="M0 0 C1.65 0 3.3 0 5 0 C4.67 2.31 4.34 4.62 4 7 C3.34 7 2.68 7 2 7 C2 6.34 2 5.68 2 5 C0.68 5 -0.64 5 -2 5 C-1.34 3.35 -0.68 1.7 0 0 Z " fill="#E4C7A5" transform="translate(110,166)"/>
<path d="M0 0 C1.32 0 2.64 0 4 0 C3.74438677 2.3431213 3.40729228 4.67843403 3 7 C2.01 7.495 2.01 7.495 1 8 C1 7.34 1 6.68 1 6 C0.01 6 -0.98 6 -2 6 C-1 1 -1 1 0 0 Z " fill="#F0D6B5" transform="translate(49,159)"/>
<path d="M0 0 C2.475 0.495 2.475 0.495 5 1 C5.66 2.98 6.32 4.96 7 7 C4.69 6.67 2.38 6.34 0 6 C0 4.02 0 2.04 0 0 Z " fill="#C4A081" transform="translate(114,35)"/>
<path d="M0 0 C0.99 0 1.98 0 3 0 C3 5 3 5 0 10 C-0.66 9.67 -1.32 9.34 -2 9 C-1.125 2.25 -1.125 2.25 0 0 Z " fill="#E5C5A0" transform="translate(71,166)"/>
<path d="M0 0 C2.475 0.495 2.475 0.495 5 1 C4.1875 4.4375 4.1875 4.4375 3 8 C2.01 8.33 1.02 8.66 0 9 C0 6.03 0 3.06 0 0 Z " fill="#DEBD9A" transform="translate(78,166)"/>
<path d="M0 0 C1.32 0.33 2.64 0.66 4 1 C4 3.64 4 6.28 4 9 C3.34 8.34 2.68 7.68 2 7 C1.01 6.67 0.02 6.34 -1 6 C-1.33 5.01 -1.66 4.02 -2 3 C-1.34 2.01 -0.68 1.02 0 0 Z " fill="#EBD6BD" transform="translate(56,66)"/>
<path d="M0 0 C0.33 0 0.66 0 1 0 C1.1875 4.3125 1.1875 4.3125 1 9 C0.01 9.99 -0.98 10.98 -2 12 C-2.66 11.67 -3.32 11.34 -4 11 C-4 10.01 -4 9.02 -4 8 C-4.66 7.67 -5.32 7.34 -6 7 C-5.01 6.67 -4.02 6.34 -3 6 C-2.34 6.33 -1.68 6.66 -1 7 C-0.67 4.69 -0.34 2.38 0 0 Z " fill="#C69A72" transform="translate(115,166)"/>
<path d="M0 0 C0.99 0 1.98 0 3 0 C6.3727537 5.34019336 6.25169693 9.79147584 6 16 C3.43977142 12.15965713 2.98345577 8.48701696 2 4 C1.34 2.68 0.68 1.36 0 0 Z " fill="#D8A552" transform="translate(108,125)"/>
<path d="M0 0 C1.32 0.66 2.64 1.32 4 2 C3.67 3.32 3.34 4.64 3 6 C-2 8 -2 8 -6 7 C-5.67 6.34 -5.34 5.68 -5 5 C-1.9375 4.375 -1.9375 4.375 1 4 C0.67 2.68 0.34 1.36 0 0 Z " fill="#B07E5B" transform="translate(87,83)"/>
<path d="M0 0 C0 0.66 0 1.32 0 2 C-4.66240996 3.55413665 -9.12870063 3.16797584 -14 3 C-14.66 2.34 -15.32 1.68 -16 1 C-4.5 0 -4.5 0 0 0 Z " fill="#6E4C3A" transform="translate(102,101)"/>
<path d="M0 0 C2.31 0 4.62 0 7 0 C6.67 0.99 6.34 1.98 6 3 C5.34 3 4.68 3 4 3 C4 3.66 4 4.32 4 5 C2.35 4.67 0.7 4.34 -1 4 C-0.67 2.68 -0.34 1.36 0 0 Z " fill="#946445" transform="translate(63,37)"/>
<path d="M0 0 C2.475 0.495 2.475 0.495 5 1 C5 2.65 5 4.3 5 6 C4.34 6 3.68 6 3 6 C2.67 6.66 2.34 7.32 2 8 C0 5 0 5 0 0 Z " fill="#E0C1A0" transform="translate(118,167)"/>
<path d="M0 0 C1.98 0.99 3.96 1.98 6 3 C5.67 4.65 5.34 6.3 5 8 C2.525 7.01 2.525 7.01 0 6 C0 4.02 0 2.04 0 0 Z " fill="#524F58" transform="translate(85,108)"/>
<path d="M0 0 C0.99 0.33 1.98 0.66 3 1 C2.67 3.31 2.34 5.62 2 8 C-1.63 7.67 -5.26 7.34 -9 7 C-9 6.67 -9 6.34 -9 6 C-4.545 5.505 -4.545 5.505 0 5 C0 3.35 0 1.7 0 0 Z " fill="#957158" transform="translate(116,53)"/>
<path d="M0 0 C2 4 2 4 2 7 C3.65 6.67 5.3 6.34 7 6 C7 7.65 7 9.3 7 11 C6.01 11 5.02 11 4 11 C4 10.34 4 9.68 4 9 C2.68 8.67 1.36 8.34 0 8 C0 5.36 0 2.72 0 0 Z " fill="#BF956F" transform="translate(102,168)"/>
<path d="M0 0 C0.99 0.495 0.99 0.495 2 1 C2.71470474 4.6576066 3.38062623 8.32504898 4 12 C4.33 12.66 4.66 13.32 5 14 C3.68 13.67 2.36 13.34 1 13 C-0.11542234 8.53831063 -0.06739072 4.58256911 0 0 Z " fill="#DDB26C" transform="translate(78,133)"/>
<path d="M0 0 C6.875 3.625 6.875 3.625 8 7 C3.76368515 5.94092129 0.73065811 4.22404618 -3 2 C-2.01 1.34 -1.02 0.68 0 0 Z " fill="#C28C42" transform="translate(102,118)"/>
<path d="M0 0 C0.66 0.33 1.32 0.66 2 1 C0.29549451 7.01062464 -1.15876531 10.94383039 -6 15 C-5.52112644 9.7323908 -5.03685532 9.03685532 -1 5 C-0.67 3.35 -0.34 1.7 0 0 Z " fill="#8B7766" transform="translate(139,75)"/>
<path d="M0 0 C0.33 0 0.66 0 1 0 C1.19157797 4.88523811 0.87404046 7.31489886 -1 12 C-2.65 12.33 -4.3 12.66 -6 13 C-6.33 11.68 -6.66 10.36 -7 9 C-4.525 9.99 -4.525 9.99 -2 11 C-1.26712183 7.33560916 -0.60012364 3.68647378 0 0 Z " fill="#976648" transform="translate(60,48)"/>
<path d="M0 0 C0.33 0.99 0.66 1.98 1 3 C1.66 3 2.32 3 3 3 C4.13357275 6.32514673 5.1469752 9.5879008 6 13 C5.01 13.495 5.01 13.495 4 14 C3.34 13.67 2.68 13.34 2 13 C0.83949793 8.55140872 0 4.60512721 0 0 Z " fill="#BC9573" transform="translate(88,51)"/>
<path d="M0 0 C0 0.33 0 0.66 0 1 C-1.98 1 -3.96 1 -6 1 C-6 1.66 -6 2.32 -6 3 C-5.01 3.33 -4.02 3.66 -3 4 C-5.31 4.33 -7.62 4.66 -10 5 C-10.99 3.68 -11.98 2.36 -13 1 C-8.60563789 0.14256349 -4.47427924 -0.08948558 0 0 Z " fill="#BA997B" transform="translate(143,35)"/>
<path d="M0 0 C4.29 0 8.58 0 13 0 C12.01 0.66 11.02 1.32 10 2 C9.01 3.485 9.01 3.485 8 5 C7.34 4.34 6.68 3.68 6 3 C4.01178687 2.60235737 2.01055661 2.26224651 0 2 C0 1.34 0 0.68 0 0 Z " fill="#AC8A71" transform="translate(53,36)"/>
<path d="M0 0 C0.66 1.32 1.32 2.64 2 4 C0.515 6.475 0.515 6.475 -1 9 C-1.33 7.68 -1.66 6.36 -2 5 C-2.66 5 -3.32 5 -4 5 C-4 4.01 -4 3.02 -4 2 C-2.68 1.34 -1.36 0.68 0 0 Z " fill="#894D28" transform="translate(76,172)"/>
<path d="M0 0 C1.65 0 3.3 0 5 0 C5.33 1.65 5.66 3.3 6 5 C4.68 5.33 3.36 5.66 2 6 C0 3 0 3 0 0 Z " fill="#DFBF9E" transform="translate(124,166)"/>
<path d="M0 0 C2.31 0.33 4.62 0.66 7 1 C6.01 1.33 5.02 1.66 4 2 C4.33 5.3 4.66 8.6 5 12 C4.01 11.34 3.02 10.68 2 10 C1.5851246 7.34479744 1.25084562 4.67568658 1 2 C0.67 1.34 0.34 0.68 0 0 Z " fill="#481D0D" transform="translate(85,154)"/>
<path d="M0 0 C0.66 0 1.32 0 2 0 C2 0.66 2 1.32 2 2 C1.34 2 0.68 2 0 2 C0 2.99 0 3.98 0 5 C0.99 5 1.98 5 3 5 C3.33 4.01 3.66 3.02 4 2 C4 3.32 4 4.64 4 6 C2.68 6.33 1.36 6.66 0 7 C-0.66 7.66 -1.32 8.32 -2 9 C-2.6875 6.1875 -2.6875 6.1875 -3 3 C-2.01 2.01 -1.02 1.02 0 0 Z " fill="#C18541" transform="translate(84,15)"/>
<path d="M0 0 C0.66 0.99 1.32 1.98 2 3 C2.66 2.34 3.32 1.68 4 1 C4.38133299 2.9914056 4.71325582 4.99279077 5 7 C4.67 7.33 4.34 7.66 4 8 C2.02 8 0.04 8 -2 8 C-1.34 7.67 -0.68 7.34 0 7 C0 4.69 0 2.38 0 0 Z " fill="#572A18" transform="translate(125,174)"/>
<path d="M0 0 C1.32 0.33 2.64 0.66 4 1 C5.65 1.33 7.3 1.66 9 2 C9 2.33 9 2.66 9 3 C5.04 3.66 1.08 4.32 -3 5 C-1 1 -1 1 0 0 Z " fill="#BA8F6B" transform="translate(106,163)"/>
<path d="M0 0 C0.66 0.33 1.32 0.66 2 1 C1.67 2.65 1.34 4.3 1 6 C1.90898545 9.35929406 2.89949507 12.6984852 4 16 C-0.97183099 11.02816901 -0.97183099 11.02816901 -1.125 5.4375 C-1 1 -1 1 0 0 Z " fill="#B79376" transform="translate(50,45)"/>
<path d="M0 0 C0.33 0 0.66 0 1 0 C1.06058594 0.96421875 1.12117188 1.9284375 1.18359375 2.921875 C1.26738281 4.18515625 1.35117188 5.4484375 1.4375 6.75 C1.55931641 8.62945312 1.55931641 8.62945312 1.68359375 10.546875 C1.92253426 14.12364137 1.92253426 14.12364137 3 18 C2.34 18.66 1.68 19.32 1 20 C-0.36658975 12.92588833 -1.37804859 7.16585265 0 0 Z " fill="#9E7456" transform="translate(91,42)"/>
<path d="M0 0 C1.32 0 2.64 0 4 0 C3.06404161 3.02059297 2.06100356 6.02102846 1 9 C0.01 9.495 0.01 9.495 -1 10 C-1.04224933 7.00029752 -1.04109204 3.99971856 -1 1 C-0.67 0.67 -0.34 0.34 0 0 Z " fill="#B28D70" transform="translate(97,40)"/>
<path d="M0 0 C0 6 0 6 -1 8 C-1.99 7.67 -2.98 7.34 -4 7 C-4 5.02 -4 3.04 -4 1 C-2 0 -2 0 0 0 Z " fill="#9A7158" transform="translate(80,36)"/>
<path d="M0 0 C2.475 0.495 2.475 0.495 5 1 C4.01 1.495 4.01 1.495 3 2 C2.34 1.67 1.68 1.34 1 1 C1.33 1.99 1.66 2.98 2 4 C3.32 4.33 4.64 4.66 6 5 C6 5.99 6 6.98 6 8 C4.35 8 2.7 8 1 8 C0 6 0 6 0 0 Z " fill="#923A13" transform="translate(88,15)"/>
<path d="M0 0 C-4.79278312 3.59458734 -8.01716477 5 -14 5 C-9.54817681 0.54817681 -6.24794146 0 0 0 Z " fill="#6F503C" transform="translate(119,115)"/>
<path d="M0 0 C0.99 0 1.98 0 3 0 C3 0.66 3 1.32 3 2 C2.01 2 1.02 2 0 2 C0.309375 2.928125 0.61875 3.85625 0.9375 4.8125 C1.625 6.875 2.3125 8.9375 3 11 C2.01 11.99 1.02 12.98 0 14 C-0.19393875 11.85473901 -0.37998676 9.70876323 -0.5625 7.5625 C-0.71912109 5.77005859 -0.71912109 5.77005859 -0.87890625 3.94140625 C-0.91886719 2.97074219 -0.95882812 2.00007812 -1 1 C-0.67 0.67 -0.34 0.34 0 0 Z " fill="#C9A07B" transform="translate(118,165)"/>
<path d="M0 0 C0.99 0.33 1.98 0.66 3 1 C2.67 1.99 2.34 2.98 2 4 C0.88625 3.979375 -0.2275 3.95875 -1.375 3.9375 C-4.83215921 3.73619282 -4.83215921 3.73619282 -7 5 C-6.67 3.68 -6.34 2.36 -6 1 C-4.35 1 -2.7 1 -1 1 C-0.67 0.67 -0.34 0.34 0 0 Z " fill="#2B120D" transform="translate(116,98)"/>
<path d="M0 0 C1.65 0 3.3 0 5 0 C4.67 0.66 4.34 1.32 4 2 C3.01 1.67 2.02 1.34 1 1 C0.67 1.99 0.34 2.98 0 4 C-0.99 4.495 -0.99 4.495 -2 5 C-2.65772428 8.02934491 -2.65772428 8.02934491 -3 11 C-3.66 9.68 -4.32 8.36 -5 7 C-3 3 -3 3 0 0 Z " fill="#AC8361" transform="translate(102,56)"/>
<path d="M0 0 C1.32 0.33 2.64 0.66 4 1 C3.01 1 2.02 1 1 1 C1 2.98 1 4.96 1 7 C1.66 7.33 2.32 7.66 3 8 C1.68 8.33 0.36 8.66 -1 9 C-1.33 8.67 -1.66 8.34 -2 8 C-2 6.35 -2 4.7 -2 3 C-1.34 3 -0.68 3 0 3 C0 2.01 0 1.02 0 0 Z " fill="#845A3F" transform="translate(131,172)"/>
<path d="M0 0 C2 4 2 4 3 8 C2.34 8 1.68 8 1 8 C1.33 8.66 1.66 9.32 2 10 C1.01 10 0.02 10 -1 10 C-1.04224933 7.00029752 -1.04109204 3.99971856 -1 1 C-0.67 0.67 -0.34 0.34 0 0 Z " fill="#986141" transform="translate(58,135)"/>
<path d="M0 0 C-1 3 -1 3 -3 4 C-3.33 4.99 -3.66 5.98 -4 7 C-4.99 6.67 -5.98 6.34 -7 6 C-5.81753455 1.27013822 -4.95936146 0 0 0 Z " fill="#72554A" transform="translate(80,62)"/>
<path d="M0 0 C1.299375 0.020625 2.59875 0.04125 3.9375 0.0625 C2.6175 0.3925 1.2975 0.7225 -0.0625 1.0625 C-0.3925 2.3825 -0.7225 3.7025 -1.0625 5.0625 C-2.0525 5.0625 -3.0425 5.0625 -4.0625 5.0625 C-4.3925 3.7425 -4.7225 2.4225 -5.0625 1.0625 C-4.0625 0.0625 -4.0625 0.0625 0 0 Z " fill="#46342E" transform="translate(110.0625,59.9375)"/>
<path d="M0 0 C0.66 0 1.32 0 2 0 C4 4 4 4 4 9 C3.01 8.67 2.02 8.34 1 8 C0.67 5.36 0.34 2.72 0 0 Z " fill="#7F4F34" transform="translate(50,144)"/>
<path d="M0 0 C1.32 0.33 2.64 0.66 4 1 C3.030625 1.2475 2.06125 1.495 1.0625 1.75 C0.051875 2.1625 -0.95875 2.575 -2 3 C-2.33 4.32 -2.66 5.64 -3 7 C-3.66 5.68 -4.32 4.36 -5 3 C-3.35 2.01 -1.7 1.02 0 0 Z " fill="#886953" transform="translate(113,117)"/>
<path d="M0 0 C0 0.99 0 1.98 0 3 C-2.64 3 -5.28 3 -8 3 C-8 2.34 -8 1.68 -8 1 C-5 -1 -5 -1 0 0 Z " fill="#EFD9BE" transform="translate(85,81)"/>
<path d="M0 0 C2.31 0.33 4.62 0.66 7 1 C6.67 1.66 6.34 2.32 6 3 C3.67843403 3.40729228 1.3431213 3.74438677 -1 4 C-1 4.66 -1 5.32 -1 6 C-1.66 5.67 -2.32 5.34 -3 5 C-2.01 3.35 -1.02 1.7 0 0 Z " fill="#B68C6D" transform="translate(77,78)"/>
<path d="M0 0 C1 4 1 4 -1 8 C-1.66 8 -2.32 8 -3 8 C-3.33 8.99 -3.66 9.98 -4 11 C-4.33 10.34 -4.66 9.68 -5 9 C-5.66 8.67 -6.32 8.34 -7 8 C-5.35 7.01 -3.7 6.02 -2 5 C-1.34 3.35 -0.68 1.7 0 0 Z " fill="#856755" transform="translate(149,58)"/>
<path d="M0 0 C2 3 2 3 4 8 C2.68 8.33 1.36 8.66 0 9 C-1 4 -1 4 0 0 Z " fill="#B39175" transform="translate(84,42)"/>
<path d="M0 0 C0.33 0.99 0.66 1.98 1 3 C0.34 4.32 -0.32 5.64 -1 7 C-1.99 7 -2.98 7 -4 7 C-4.33 5.02 -4.66 3.04 -5 1 C-2.525 1.495 -2.525 1.495 0 2 C0 1.34 0 0.68 0 0 Z " fill="#BB8F6C" transform="translate(67,40)"/>
<path d="M0 0 C1.65 0 3.3 0 5 0 C4.67 1.65 4.34 3.3 4 5 C3.01 5.495 3.01 5.495 2 6 C2 5.34 2 4.68 2 4 C1.34 4 0.68 4 0 4 C0 2.68 0 1.36 0 0 Z " fill="#764730" transform="translate(91,38)"/>
<path d="M0 0 C0.66 0.66 1.32 1.32 2 2 C3.65 2.33 5.3 2.66 7 3 C7 3.33 7 3.66 7 4 C5.35 4 3.7 4 2 4 C1.67 5.98 1.34 7.96 1 10 C0.34 9.34 -0.32 8.68 -1 8 C-0.75669249 5.32361743 -0.42792432 2.65313079 0 0 Z " fill="#5C3A2A" transform="translate(91,168)"/>
<path d="M0 0 C0.66 0 1.32 0 2 0 C2 1.65 2 3.3 2 5 C0.68 5.99 -0.64 6.98 -2 8 C-1.125 1.125 -1.125 1.125 0 0 Z " fill="#F4E1C3" transform="translate(65,166)"/>
<path d="M0 0 C1.32 0 2.64 0 4 0 C4.33 0.99 4.66 1.98 5 3 C4.01 3 3.02 3 2 3 C2.33 3.99 2.66 4.98 3 6 C0.525 5.01 0.525 5.01 -2 4 C-1.34 2.68 -0.68 1.36 0 0 Z " fill="#97785D" transform="translate(70,94)"/>
<path d="M0 0 C1 2 1 2 0 6 C-3.3 6 -6.6 6 -10 6 C-10 5.67 -10 5.34 -10 5 C-6.535 4.505 -6.535 4.505 -3 4 C-3.33 3.34 -3.66 2.68 -4 2 C-2.68 1.34 -1.36 0.68 0 0 Z " fill="#B9977D" transform="translate(108,82)"/>
<path d="M0 0 C2.97 0 5.94 0 9 0 C9.33 0.99 9.66 1.98 10 3 C8.68 3.33 7.36 3.66 6 4 C5.34 3.34 4.68 2.68 4 2 C2.68 2 1.36 2 0 2 C0 1.34 0 0.68 0 0 Z " fill="#6F3B27" transform="translate(84,79)"/>
<path d="M0 0 C0.33 0 0.66 0 1 0 C1 1.98 1 3.96 1 6 C0.01 6.495 0.01 6.495 -1 7 C-0.67 4.69 -0.34 2.38 0 0 Z M-3 7 C-2.34 7.33 -1.68 7.66 -1 8 C-2.32 9.32 -3.64 10.64 -5 12 C-5.99 11.34 -6.98 10.68 -8 10 C-6.35 9.01 -4.7 8.02 -3 7 Z " fill="#8C6145" transform="translate(121,67)"/>
<path d="M0 0 C0.33 0 0.66 0 1 0 C1 6 1 6 -1.5 8.875 C-2.7375 9.926875 -2.7375 9.926875 -4 11 C-4.99 10.67 -5.98 10.34 -7 10 C-6 8 -6 8 -1 5 C-0.67 3.35 -0.34 1.7 0 0 Z " fill="#A0785C" transform="translate(120,66)"/>
<path d="M0 0 C0 1.32 0 2.64 0 4 C-2.95664519 5.4783226 -5.74229737 5.06032783 -9 5 C-8.01 4.34 -7.02 3.68 -6 3 C-2 0 -2 0 0 0 Z " fill="#D6C5AF" transform="translate(118,66)"/>
<path d="M0 0 C-0.66 1.32 -1.32 2.64 -2 4 C-4.97 4 -7.94 4 -11 4 C-9.68 3.34 -8.36 2.68 -7 2 C-4 0 -4 0 0 0 Z " fill="#532D21" transform="translate(116,65)"/>
<path d="M0 0 C2.97 0 5.94 0 9 0 C9 0.99 9 1.98 9 3 C7.68 3 6.36 3 5 3 C5 2.34 5 1.68 5 1 C4.01 1 3.02 1 2 1 C2 1.66 2 2.32 2 3 C1.01 2.67 0.02 2.34 -1 2 C-0.67 1.34 -0.34 0.68 0 0 Z " fill="#7C3214" transform="translate(97,24)"/>
<path d="M0 0 C0.66 0 1.32 0 2 0 C1.34 3.3 0.68 6.6 0 10 C-0.33 9.01 -0.66 8.02 -1 7 C-1.66 7 -2.32 7 -3 7 C-3 6.01 -3 5.02 -3 4 C-2.34 4 -1.68 4 -1 4 C-0.67 2.68 -0.34 1.36 0 0 Z " fill="#D0B478" transform="translate(97,7)"/>
<path d="M0 0 C0.99 0 1.98 0 3 0 C2.67 1.32 2.34 2.64 2 4 C0.02 4.99 0.02 4.99 -2 6 C-1 1 -1 1 0 0 Z " fill="#F6E3C7" transform="translate(60,165)"/>
<path d="M0 0 C-5 3 -5 3 -10 5 C-9.67 3.68 -9.34 2.36 -9 1 C-2.25 -1.125 -2.25 -1.125 0 0 Z " fill="#3C2720" transform="translate(128,96)"/>
<path d="M0 0 C4 2 4 2 6 6 C2 5 2 5 -1 1 C-0.67 0.67 -0.34 0.34 0 0 Z " fill="#7D5F4A" transform="translate(114,88)"/>
<path d="M0 0 C0.33 0 0.66 0 1 0 C1 1.98 1 3.96 1 6 C1.99 6.33 2.98 6.66 4 7 C2.68 8.32 1.36 9.64 0 11 C-0.66 11 -1.32 11 -2 11 C-1.34 7.37 -0.68 3.74 0 0 Z " fill="#B18C6C" transform="translate(108,39)"/>
<path d="M0 0 C0.66 0.33 1.32 0.66 2 1 C1.67 2.65 1.34 4.3 1 6 C0.01 6.33 -0.98 6.66 -2 7 C-2 2 -2 2 0 0 Z " fill="#72442A" transform="translate(111,37)"/>
<path d="M0 0 C0.66 0.33 1.32 0.66 2 1 C2 2.65 2 4.3 2 6 C1.67 5.34 1.34 4.68 1 4 C-0.32 4.99 -1.64 5.98 -3 7 C-3 5.02 -3 3.04 -3 1 C-2.01 0.67 -1.02 0.34 0 0 Z " fill="#CDAF97" transform="translate(87,35)"/>
<path d="M0 0 C0.33 0.66 0.66 1.32 1 2 C3.31 2 5.62 2 8 2 C7.01 2.33 6.02 2.66 5 3 C5 3.66 5 4.32 5 5 C1 5 1 5 -3 2 C-2.01 2 -1.02 2 0 2 C0 1.34 0 0.68 0 0 Z " fill="#CF9144" transform="translate(88,21)"/>
<path d="M0 0 C2 3 2 3 2 8 C1.01 8 0.02 8 -1 8 C-1.04241723 5.66705225 -1.04092937 3.33297433 -1 1 C-0.67 0.67 -0.34 0.34 0 0 Z " fill="#65331A" transform="translate(53,165)"/>
<path d="M0 0 C0.99 0.33 1.98 0.66 3 1 C2.01 2.32 1.02 3.64 0 5 C0 6.98 0 8.96 0 11 C-0.99 10.67 -1.98 10.34 -3 10 C-2.05066101 6.64566891 -1.10251165 3.30753495 0 0 Z " fill="#AE8765" transform="translate(57,164)"/>
<path d="M0 0 C2.5 1.625 2.5 1.625 5 4 C5 5.98 5 7.96 5 10 C4.01 9.67 3.02 9.34 2 9 C2 7.35 2 5.7 2 4 C1.34 2.68 0.68 1.36 0 0 Z " fill="#645145" transform="translate(144,157)"/>
<path d="M0 0 C0.66 0.33 1.32 0.66 2 1 C1.67 1.99 1.34 2.98 1 4 C-3.23641013 4.84728203 -6.72412002 5.08384078 -11 5 C-11 4.67 -11 4.34 -11 4 C-9.1128125 3.566875 -9.1128125 3.566875 -7.1875 3.125 C-3.02094677 2.24494816 -3.02094677 2.24494816 0 0 Z " fill="#C39443" transform="translate(106,149)"/>
<path d="M0 0 C5 2 5 2 9 5 C7.02 5.33 5.04 5.66 3 6 C2.01 4.02 1.02 2.04 0 0 Z " fill="#BEA78A" transform="translate(79,115)"/>
<path d="M0 0 C3.25 0.25 3.25 0.25 6 1 C6 1.33 6 1.66 6 2 C4.02 2.33 2.04 2.66 0 3 C-0.33 4.32 -0.66 5.64 -1 7 C-1.99 6.01 -2.98 5.02 -4 4 C-2.68 2.68 -1.36 1.36 0 0 Z " fill="#95765E" transform="translate(79,91)"/>
<path d="M0 0 C0.66 0 1.32 0 2 0 C2.66 1.65 3.32 3.3 4 5 C2.35 6.98 0.7 8.96 -1 11 C-1 8 -1 8 0 7 C0.04092937 4.66702567 0.04241723 2.33294775 0 0 Z " fill="#7A4D35" transform="translate(121,66)"/>
<path d="M0 0 C0.66 0 1.32 0 2 0 C1.67 1.65 1.34 3.3 1 5 C0.01 5.495 0.01 5.495 -1 6 C-1.66 6.99 -2.32 7.98 -3 9 C-2.25 2.25 -2.25 2.25 0 0 Z " fill="#63331C" transform="translate(144,52)"/>
<path d="M0 0 C1.65 0.33 3.3 0.66 5 1 C4.01 1.33 3.02 1.66 2 2 C1.67 3.65 1.34 5.3 1 7 C0.01 7 -0.98 7 -2 7 C-2 6.01 -2 5.02 -2 4 C-1.34 4 -0.68 4 0 4 C0 2.68 0 1.36 0 0 Z " fill="#DDCAAE" transform="translate(86,13)"/>
<path d="M0 0 C0.33 0.99 0.66 1.98 1 3 C-1.3125 5.5 -1.3125 5.5 -4 8 C-4.99 8 -5.98 8 -7 8 C-4.69 5.36 -2.38 2.72 0 0 Z " fill="#592912" transform="translate(113,150)"/>
<path d="M0 0 C0.33 1.32 0.66 2.64 1 4 C3.99615946 5.3045656 3.99615946 5.3045656 7 6 C7 6.33 7 6.66 7 7 C4.36 7 1.72 7 -1 7 C-0.67 4.69 -0.34 2.38 0 0 Z " fill="#B88B67" transform="translate(61,119)"/>
<path d="M0 0 C2.66666667 0.66666667 5.33333333 1.33333333 8 2 C8 2.66 8 3.32 8 4 C7.01 4.33 6.02 4.66 5 5 C3.35 4.01 1.7 3.02 0 2 C0 1.34 0 0.68 0 0 Z " fill="#522517" transform="translate(85,80)"/>
<path d="M0 0 C2.475 0.495 2.475 0.495 5 1 C4.34 2.98 3.68 4.96 3 7 C2.67 5.68 2.34 4.36 2 3 C1.34 3 0.68 3 0 3 C0 2.01 0 1.02 0 0 Z " fill="#AE8B71" transform="translate(68,49)"/>
<path d="M0 0 C0.33 0 0.66 0 1 0 C1.33 3.96 1.66 7.92 2 12 C0.68 12 -0.64 12 -2 12 C-2 11.01 -2 10.02 -2 9 C-1.34 9 -0.68 9 0 9 C0 6.03 0 3.06 0 0 Z " fill="#B39073" transform="translate(103,37)"/>
<path d="M0 0 C1.98 0 3.96 0 6 0 C6 0.66 6 1.32 6 2 C3.36 2.66 0.72 3.32 -2 4 C-1.34 2.68 -0.68 1.36 0 0 Z " fill="#EFE0CE" transform="translate(52,39)"/>
<path d="M0 0 C0.99 0 1.98 0 3 0 C3 1.98 3 3.96 3 6 C2.01 6 1.02 6 0 6 C0 4.02 0 2.04 0 0 Z " fill="#512615" transform="translate(132,173)"/>
<path d="M0 0 C1.98 0.495 1.98 0.495 4 1 C4 1.99 4 2.98 4 4 C2.68 4.33 1.36 4.66 0 5 C-0.33 3.68 -0.66 2.36 -1 1 C-0.67 0.67 -0.34 0.34 0 0 Z " fill="#9F7351" transform="translate(142,159)"/>
<path d="M0 0 C0.66 0 1.32 0 2 0 C2.33 2.31 2.66 4.62 3 7 C2.01 7 1.02 7 0 7 C0 4.69 0 2.38 0 0 Z " fill="#AF9078" transform="translate(49,132)"/>
<path d="M0 0 C5 1 5 1 7 2 C6.67 2.66 6.34 3.32 6 4 C5.01 4 4.02 4 3 4 C2.01 3.01 1.02 2.02 0 1 C0 0.67 0 0.34 0 0 Z " fill="#774C2D" transform="translate(87,107)"/>
<path d="M0 0 C1.98 0 3.96 0 6 0 C6.33 0.99 6.66 1.98 7 3 C4.36 2.67 1.72 2.34 -1 2 C-0.67 1.34 -0.34 0.68 0 0 Z " fill="#64412F" transform="translate(99,90)"/>
<path d="M0 0 C2.31 0 4.62 0 7 0 C5.68 0.33 4.36 0.66 3 1 C2.67 1.99 2.34 2.98 2 4 C1.01 4 0.02 4 -1 4 C-0.67 2.68 -0.34 1.36 0 0 Z " fill="#DCBFA3" transform="translate(79,87)"/>
<path d="M0 0 C0.99 0.495 0.99 0.495 2 1 C1.67 1.99 1.34 2.98 1 4 C0.67 2.68 0.34 1.36 0 0 Z M0 4 C0.33 5.32 0.66 6.64 1 8 C-0.65 8.66 -2.3 9.32 -4 10 C-4 8 -4 8 0 4 Z " fill="#6C3E27" transform="translate(104,70)"/>
<path d="M0 0 C0.33 0.66 0.66 1.32 1 2 C2.65 2.33 4.3 2.66 6 3 C6 3.99 6 4.98 6 6 C2 5 2 5 -1 2 C-0.67 1.34 -0.34 0.68 0 0 Z " fill="#714D37" transform="translate(135,69)"/>
<path d="M0 0 C0.99 0 1.98 0 3 0 C5.1875 2.5 5.1875 2.5 7 5 C4.03 4.505 4.03 4.505 1 4 C0.67 2.68 0.34 1.36 0 0 Z " fill="#F4E6D1" transform="translate(70,66)"/>
<path d="M0 0 C0.66 0 1.32 0 2 0 C0.375 5.75 0.375 5.75 -3 8 C-1.125 1.125 -1.125 1.125 0 0 Z M-5 8 C-3 9 -3 9 -3 9 Z " fill="#73462C" transform="translate(143,57)"/>
<path d="M0 0 C0.99 0 1.98 0 3 0 C3 1.32 3 2.64 3 4 C1.35 4.33 -0.3 4.66 -2 5 C-1.34 3.35 -0.68 1.7 0 0 Z " fill="#EFE2D1" transform="translate(72,37)"/>
<path d="M0 0 C0.99 0 1.98 0 3 0 C3.66 1.32 4.32 2.64 5 4 C3.02 4 1.04 4 -1 4 C-1.33 3.34 -1.66 2.68 -2 2 C-1.34 2 -0.68 2 0 2 C0 1.34 0 0.68 0 0 Z " fill="#A95817" transform="translate(99,25)"/>
<path d="M0 0 C0.66 0.33 1.32 0.66 2 1 C1.67 2.65 1.34 4.3 1 6 C-0.32 6.33 -1.64 6.66 -3 7 C-2.67 6.01 -2.34 5.02 -2 4 C-1.34 4 -0.68 4 0 4 C0 2.68 0 1.36 0 0 Z " fill="#B37740" transform="translate(112,17)"/>
<path d="M0 0 C0.66 1.32 1.32 2.64 2 4 C2.66 4.33 3.32 4.66 4 5 C3.34 5.66 2.68 6.32 2 7 C1.01 6.34 0.02 5.68 -1 5 C-0.67 3.35 -0.34 1.7 0 0 Z " fill="#7D4F36" transform="translate(61,174)"/>
<path d="M0 0 C2 3 2 3 2 8 C1.34 8 0.68 8 0 8 C-0.38063221 5.6739143 -0.71269945 3.33944736 -1 1 C-0.67 0.67 -0.34 0.34 0 0 Z " fill="#E8CEAC" transform="translate(57,168)"/>
<path d="M0 0 C0.66 0 1.32 0 2 0 C2.66 1.98 3.32 3.96 4 6 C3.34 6.66 2.68 7.32 2 8 C0 4 0 4 0 0 Z " fill="#AB7E59" transform="translate(86,165)"/>
<path d="M0 0 C0.66 0 1.32 0 2 0 C1.74438677 2.3431213 1.40729228 4.67843403 1 7 C0.01 7.495 0.01 7.495 -1 8 C-1 2 -1 2 0 0 Z " fill="#E2C19D" transform="translate(56,160)"/>
<path d="M0 0 C0.66 0 1.32 0 2 0 C2.33 1.65 2.66 3.3 3 5 C0.03 4.505 0.03 4.505 -3 4 C-2.01 2.68 -1.02 1.36 0 0 Z " fill="#AA7A57" transform="translate(57,152)"/>
<path d="M0 0 C1.98 0.495 1.98 0.495 4 1 C4 2.65 4 4.3 4 6 C2.35 5.01 0.7 4.02 -1 3 C-0.67 2.01 -0.34 1.02 0 0 Z " fill="#AF9179" transform="translate(79,93)"/>
<path d="M0 0 C0.33 0.66 0.66 1.32 1 2 C2.65 1.34 4.3 0.68 6 0 C5.67 1.32 5.34 2.64 5 4 C3.68 4.33 2.36 4.66 1 5 C0.67 3.35 0.34 1.7 0 0 Z " fill="#9B7457" transform="translate(129,43)"/>
<path d="M0 0 C0.99 0.99 1.98 1.98 3 3 C0 5 0 5 -4 5 C-3.67 4.01 -3.34 3.02 -3 2 C-2.34 2 -1.68 2 -1 2 C-0.67 1.34 -0.34 0.68 0 0 Z " fill="#B66521" transform="translate(89,24)"/>
<path d="M0 0 C0.66 0.33 1.32 0.66 2 1 C2 2.98 2 4.96 2 7 C1.01 7 0.02 7 -1 7 C-0.67 4.69 -0.34 2.38 0 0 Z " fill="#C37833" transform="translate(98,10)"/>
</svg>
