<?xml version="1.0" encoding="utf-8"?>
<!-- Generator: Adobe Illustrator 25.1.0, SVG Export Plug-In . SVG Version: 6.00 Build 0)  -->
<svg version="1.1" id="Layer_1" xmlns="http://www.w3.org/2000/svg" xmlns:xlink="http://www.w3.org/1999/xlink" x="0px" y="0px"
	 viewBox="0 0 200 200" style="enable-background:new 0 0 200 200;" xml:space="preserve">
<style type="text/css">
	.st0{fill:#663200;}
	.st1{fill:#333333;}
	.st2{fill:#666666;}
	.st3{fill:#CC9902;}
	.st4{fill:#999999;}
	.st5{fill:#FFCC00;}
	.st6{fill:#23F7DE;}
	.st7{fill:#FFFE01;}
	.st8{fill:#FFFFFF;}
</style>
<g id="Layer_x0020_1">
	<g id="_2620073934528">
		<path d="M66.13,186.82v-2.12H61.9h-4.23v-2.12v-2.11h-2.12h-2.12v-10.59V159.3h-8.46H36.5v-2.12v-2.11h-2.12h-2.11v-6.35v-6.35
			h2.11h2.12v-2.12v-2.12h-2.12h-2.11v-10.58v-10.58h2.11h2.12v-2.12v-2.12h-2.12h-2.11v-8.46V95.8h2.11h2.12v-2.12v-2.11h-2.12
			h-2.11V83.1v-8.47h2.11h2.12V70.4v-4.23h2.12h2.11v-4.24V57.7h2.12h2.12v-2.12v-2.11h2.11h2.12v-2.12v-2.12h4.23h4.24v-2.11V45
			h4.23h4.23v-2.12v-2.11h4.24h4.23v2.11V45h2.12c1.73,0,2.11-0.06,2.11-0.32c0-0.17,0.15-0.31,0.32-0.31
			c0.25,0,0.32,0.38,0.32,2.11v2.12h4.23h4.23v2.12v2.11H100h12.07v-2.11V48.6h4.23h4.23v-2.12c0-1.73,0.07-2.11,0.32-2.11
			c0.17,0,0.32,0.14,0.32,0.31c0,0.26,0.38,0.32,2.11,0.32h2.12v-2.12v-2.11h4.23h4.24v2.11V45h4.23h4.23v2.12v2.11h4.24h4.23v2.12
			v2.12h2.12h2.11v2.11v2.12h2.12h2.12v4.23v4.24h2.11h2.12v4.23v4.23h2.12h2.11v8.47v8.47h-2.11h-2.12v2.11v2.12h2.12h2.11v8.47
			v8.46h-2.11h-2.12v2.12v2.12h2.12h2.11v10.58v10.58h-2.11h-2.12v2.12v2.12h2.12h2.11v6.35v6.35h-2.11h-2.12v2.11v2.12h-8.47h-8.46
			v10.58v10.59h-2.12h-2.12v2.11v2.12h-4.23h-4.23v2.12v2.11H100H66.13V186.82L66.13,186.82z M103.6,127.55V71.04H100h-3.6v2.11
			v2.12h-2.75H90.9v-2.12v-2.11h-4.24h-4.23v-2.12V66.8H78.2h-4.24v-2.11c0-2.12,0-2.12-1.48-2.12c-1.48,0-1.48,0-1.48,2.12v2.11
			h-2.12h-2.11v2.12v2.12H58.3h-8.47v2.11v2.12h-6.35h-6.35v3.6c0,3.6,0,3.6,1.49,3.6c1.48,0,1.48,0,1.48-2.12v-2.12h6.35h6.35
			v-2.11V74h2.75h2.75v2.12c0,2.11,0,2.11,1.48,2.11s1.48,0,1.48-2.11V74h2.76h2.75v2.75v2.75h-2.12h-2.12v4.24v4.23h-2.11H58.3
			v9.95v9.95h2.12h2.11v2.75v2.75h-2.11H58.3v33.23v33.23h4.24h4.23v2.12v2.12h18.41h18.42V127.55L103.6,127.55z M133.23,182.58
			c0-1.48,0-1.48-2.12-1.48H129v-2.75v-2.75h2.11h2.12v-16.93v-16.94h2.75h2.75v19.05v19.05h1.49h1.48v-26.88v-26.88h-2.12h-2.12
			v-2.75v-2.75h2.12h2.12v-3.6v-3.6h-2.12h-2.12v-2.75v-2.75h2.12h2.12v-5.72v-5.71h-2.12h-2.12v-2.76v-2.75h2.12
			c2.12,0,2.12,0,2.12-1.48c0-1.48,0-1.48-2.12-1.48h-2.12v-4.23V79.5h-2.11h-2.12v-2.75V74h2.75h2.76v2.12c0,2.11,0,2.11,1.48,2.11
			c1.48,0,1.48,0,1.48-2.11V74h2.75h2.75v2.12v2.11h6.35h6.35v2.12c0,2.12,0,2.12,1.48,2.12c1.49,0,1.49,0,1.49-3.6v-3.6h-6.35
			h-6.35v-2.12v-2.11h-8.47h-8.47v-2.12V66.8h-2.11H129v-2.11c0-2.12,0-2.12-1.48-2.12s-1.48,0-1.48,2.12v2.11h-4.24h-4.23v2.12
			v2.12h-4.23h-4.24v56.51v56.52h12.07h12.06V182.58L133.23,182.58z M52.8,150.83v-3.59h-7.83h-7.84v3.59v3.6h7.84h7.83V150.83z
			 M162.86,150.83v-3.59h-7.83h-7.83v3.59v3.6h7.83h7.83V150.83z M52.8,126.92V112.1h2.11c2.12,0,2.12,0,2.12-1.48
			c0-1.48,0-1.48-2.12-1.48H52.8V97.92V86.7h2.11h2.12v-3.6c0-3.6,0-3.6-1.48-3.6s-1.48,0-1.48,2.12v2.12h-6.35h-6.35v1.48v1.48
			h4.23h4.23v2.75v2.75H45.6h-4.23v1.48v1.49h4.23h4.23v2.75v2.75H45.6h-4.23v2.12v2.11h-2.12h-2.12v3.6c0,3.6,0,3.6,1.49,3.6
			c1.48,0,1.48,0,1.48-2.12v-2.11h4.87h4.86v2.75v2.75H45.6h-4.23v2.12v2.11h-2.12h-2.12v9.95v9.95h2.12h2.12v2.12v2.11h5.71h5.72
			V126.92z M158.63,139.62v-2.12h2.12h2.11v-9.95v-9.95h-2.11h-2.12v-2.11v-2.12h-4.23h-4.24v-2.75v-2.75h4.87h4.87v2.11
			c0,2.12,0,2.12,1.48,2.12c1.48,0,1.48,0,1.48-3.6v-3.6h-2.11h-2.12v-2.11v-2.12h-4.23h-4.24v-2.75v-2.75h4.24h4.23v-1.49V92.2
			h-4.23h-4.24v-2.75V86.7h4.24h4.23v-1.48v-1.48h-6.35h-6.35v-2.12c0-2.12,0-2.12-1.48-2.12s-1.48,0-1.48,3.6v3.6h2.11h2.12v11.22
			v11.22h-2.12c-2.11,0-2.11,0-2.11,1.48c0,1.48,0,1.48,2.11,1.48h2.12v14.82v14.81h5.72h5.71V139.62z M40.1,97.92
			c0-1.48,0-1.48-1.48-1.48c-1.49,0-1.49,0-1.49,1.48c0,1.48,0,1.48,1.49,1.48C40.1,99.4,40.1,99.4,40.1,97.92z M162.86,97.92
			c0-1.48,0-1.48-1.48-1.48c-1.48,0-1.48,0-1.48,1.48c0,1.48,0,1.48,1.48,1.48C162.86,99.4,162.86,99.4,162.86,97.92z M40.1,89.45
			c0-1.48,0-1.48-1.48-1.48c-1.49,0-1.49,0-1.49,1.48c0,1.48,0,1.48,1.49,1.48C40.1,90.93,40.1,90.93,40.1,89.45z M162.86,89.45
			c0-1.48,0-1.48-1.48-1.48c-1.48,0-1.48,0-1.48,1.48c0,1.48,0,1.48,1.48,1.48C162.86,90.93,162.86,90.93,162.86,89.45z
			 M48.56,67.65v-2.12h8.47h8.47v-2.11V61.3h2.11c2.12,0,2.12,0,2.12-1.48s0-1.48-2.12-1.48H65.5V54.1v-4.23h-3.6
			c-3.6,0-3.6,0-3.6,1.48s0,1.48,2.12,1.48h2.11v2.75v2.76h-2.11H58.3v2.11v2.12h-4.87h-4.87v-2.12c0-2.11,0-2.11-1.48-2.11H45.6
			v4.23v4.23h-2.12c-2.11,0-2.11,0-2.11,1.48c0,1.49,0,1.49,3.6,1.49h3.59V67.65L48.56,67.65z M158.63,68.28
			c0-1.48,0-1.48-2.12-1.48h-2.11v-4.23v-4.23h-1.48c-1.49,0-1.49,0-1.49,2.11v2.12h-4.86h-4.87v-2.12v-2.11h-2.12h-2.12v-2.76
			v-2.75h2.12c2.12,0,2.12,0,2.12-1.48s0-1.48-3.6-1.48h-3.6v4.23v4.24h-2.12c-2.11,0-2.11,0-2.11,1.48s0,1.48,2.11,1.48h2.12v2.12
			v2.11h8.47h8.46v2.12v2.12h3.6C158.63,69.77,158.63,69.77,158.63,68.28L158.63,68.28z M86.66,59.82V54.1h-4.23H78.2v-2.11v-2.12
			h-2.12h-2.12v-2.12c0-2.11,0-2.11-1.79-2.11c-1.46,0-1.8-0.07-1.8-0.32c0-0.26-0.38-0.32-2.12-0.32h-2.12v2.12v2.11h2.12
			c1.74,0,2.12-0.06,2.12-0.31c0-0.17,0.14-0.32,0.31-0.32c0.28,0,0.32,0.61,0.32,4.23v4.24h2.12h2.11v2.11v2.12h4.24h4.23v2.12
			c0,2.11,0,2.11,1.48,2.11h1.48V59.82L86.66,59.82z M116.3,64.05c0-1.48,0-1.48-2.12-1.48h-2.12v-2.12v-2.11h-9.94h-9.95v3.59v3.6
			h12.06h12.07V64.05L116.3,64.05z M124.76,59.18v-2.11h2.12H129v-4.24V48.6h2.11c2.12,0,2.12,0,2.12-1.48s0-1.48-3.6-1.48h-3.6
			v2.11v2.12h-2.11h-2.12v2.12v2.11h-4.23h-4.24v1.48c0,1.49,0,1.49,2.12,1.49h2.12v2.11v2.12h3.6h3.59V59.18L124.76,59.18z
			 M57.03,55.58c0-1.48,0-1.48-3.6-1.48c-3.6,0-3.6,0-3.6,1.48c0,1.49,0,1.49,3.6,1.49C57.03,57.07,57.03,57.07,57.03,55.58z
			 M150.16,55.58c0-1.48,0-1.48-3.59-1.48c-3.6,0-3.6,0-3.6,1.48c0,1.49,0,1.49,3.6,1.49C150.16,57.07,150.16,57.07,150.16,55.58z"
			/>
		<polygon points="69.73,178.35 69.73,175.6 71.85,175.6 73.96,175.6 73.96,158.67 73.96,141.73 76.72,141.73 79.47,141.73 
			79.47,161.42 79.47,181.1 74.6,181.1 69.73,181.1 		"/>
		<polygon points="112.06,119.08 112.06,116.33 114.18,116.33 116.3,116.33 116.3,99.4 116.3,82.47 119.05,82.47 121.8,82.47 
			121.8,100.03 121.8,117.6 119.68,117.6 117.57,117.6 117.57,119.72 117.57,121.84 114.82,121.84 112.06,121.84 		"/>
		<path d="M78.83,32.62c0-0.28-1.08-0.32-8.46-0.32H61.9v-2.12v-2.11h-2.12h-2.11v-2.12v-2.12h-2.12h-2.12V19.6v-4.23h2.12h2.12
			v-2.12v-2.12h14.81H87.3v2.12v2.12h2.12h2.11v-2.12v-2.12H100h8.47v2.12v2.12h2.11h2.12v-2.12v-2.12h14.82h14.81v2.12v2.12h2.12
			h2.12v4.23v4.23h-2.12h-2.12v2.12v2.12h-2.11h-2.12v2.11v2.12h-8.47c-7.38,0-8.46,0.04-8.46,0.32c0,0.25-0.41,0.32-2.44,0.32
			h-2.43v-2.12V28.7h-2.12h-2.12v-2.11v-2.12h-2.11c-1.74,0-2.12-0.06-2.12-0.32c0-0.17,0.15-0.32,0.32-0.32
			c0.27,0,0.32-0.61,0.32-4.23v-4.23H100h-8.47v2.11c0,1.74,0.07,2.12,0.32,2.12s0.32,0.4,0.32,2.43v2.44h-2.12h-2.11v2.12v2.11
			h-2.12H83.7v2.12v2.12h-2.43C79.24,32.94,78.83,32.87,78.83,32.62L78.83,32.62z M82.43,25.32V23.2h2.12c2.11,0,2.11,0,2.11-1.8
			c0-1.46,0.07-1.8,0.32-1.8c0.26,0,0.32-0.38,0.32-2.12v-2.11h-2.12c-1.73,0-2.11,0.06-2.11,0.31c0,0.28-1.53,0.32-12.39,0.32H58.3
			v3.6v3.6h2.12h2.11v2.12v2.11h9.95h9.95V25.32z M137.46,25.32V23.2h2.12h2.12v-3.6V16h-14.18h-14.19v3.6v3.6h2.12h2.12v2.12v2.11
			h9.95h9.94V25.32L137.46,25.32z"/>
	</g>
	<g id="_2620073931744">
		<path class="st0" d="M95.13,51.67v-1.8h-3.91c-3.35,0-3.92-0.04-3.92-0.32c0-0.17-0.15-0.32-0.32-0.32c-0.25,0-0.32-0.4-0.32-2.43
			v-2.43h4.24h4.23v-1.49V41.4H90.9h-4.24v-4.87v-4.86h2.12h2.12v-2.12v-2.12h2.11h2.12v-2.11c0-1.74,0.06-2.12,0.32-2.12
			c0.17,0,0.32,0.15,0.32,0.32c0,0.25,0.4,0.31,2.43,0.31c2.43,0,2.43,0,2.43,1.8v1.8h4.24h4.23v2.75v2.76h-4.23h-4.24v1.48v1.48
			h4.24h4.23v2.12v2.11h2.12h2.11v2.75v2.76h-2.11h-2.12v2.11v2.12h-4.23h-4.24v1.8v1.8h-2.75h-2.75V51.67L95.13,51.67z
			 M107.83,42.88c0-1.48,0-1.48-3.6-1.48s-3.6,0-3.6,1.48c0,1.49,0,1.49,3.6,1.49S107.83,44.37,107.83,42.88z M95.13,34.42
			c0-1.48,0-1.48-1.48-1.48c-1.48,0-1.48,0-1.48,1.48s0,1.48,1.48,1.48C95.13,35.9,95.13,35.9,95.13,34.42z"/>
	</g>
	<g id="_2620073970576">
		<path class="st1" d="M90.9,182.9v-1.8h-6.35c-5.51,0-6.35-0.04-6.35-0.32c0-0.16,0.15-0.31,0.32-0.31c0.27,0,0.31-2.27,0.31-19.05
			v-19.05h-2.11c-1.74,0-2.12,0.06-2.12,0.31c0,0.17-0.15,0.32-0.32,0.32c-0.25,0-0.32-0.38-0.32-2.11c0-2.12,0-2.12-1.48-2.12H71
			v18.73c0,16.51-0.04,18.73-0.32,18.73c-0.25,0-0.31,0.38-0.31,2.12c0,1.74,0.06,2.12,0.31,2.12c0.17,0,0.32,0.15,0.32,0.31
			c0,0.26-0.4,0.32-2.43,0.32s-2.44-0.06-2.44-0.32c0-0.25-0.4-0.31-2.43-0.31h-2.44V146.6c0-29.97,0.05-33.87,0.32-33.87
			c0.17,0,0.32-0.14,0.32-0.31c0-0.26,0.34-0.32,1.8-0.32c1.8,0,1.8,0,1.8-1.48c0-1.48,0-1.48-1.8-1.48c-1.46,0-1.8-0.07-1.8-0.32
			c0-0.17-0.15-0.32-0.32-0.32c-0.27,0-0.32-1.31-0.32-10.58s0.05-10.59,0.32-10.59c0.17,0,0.32-0.14,0.32-0.31
			c0-0.26,0.34-0.32,1.8-0.32h1.8v-3.92c0-3.34,0.04-3.91,0.32-3.91c0.17,0,0.31-0.15,0.31-0.32c0-0.25,0.34-0.32,1.8-0.32h1.8v-3.6
			c0-3.59,0-3.59-1.48-3.59c-1.48,0-1.48,0-1.48,2.11c0,1.74-0.07,2.12-0.32,2.12c-0.17,0-0.32-0.15-0.32-0.32
			c0-0.25-0.38-0.32-2.11-0.32H61.9v2.12c0,1.74,0.06,2.12,0.32,2.12c0.17,0,0.32,0.14,0.32,0.31c0,0.17-0.15,0.32-0.32,0.32
			c-0.17,0-0.32-0.15-0.32-0.32c0-0.25-0.38-0.31-2.12-0.31h-2.11v4.23c0,3.62,0.04,4.23,0.31,4.23c0.17,0,0.32,0.15,0.32,0.32
			c0,0.17-0.15,0.32-0.32,0.32c-0.17,0-0.31-0.15-0.31-0.32c0-0.25-0.38-0.32-2.12-0.32h-2.12v10.59v10.58h2.12
			c1.74,0,2.12-0.06,2.12-0.32c0-0.17,0.14-0.31,0.31-0.31c0.17,0,0.32,0.14,0.32,0.31c0,0.17-0.15,0.32-0.32,0.32
			c-0.25,0-0.31,0.38-0.31,2.12c0,1.73,0.06,2.11,0.31,2.11c0.17,0,0.32,0.15,0.32,0.32s-0.15,0.32-0.32,0.32
			c-0.17,0-0.31-0.15-0.31-0.32c0-0.25-0.38-0.32-2.12-0.32h-2.12v14.82v14.82H51c-2.43,0-2.43,0-2.43-1.8s0-1.8-2.12-1.8h-2.12
			v-6.35v-6.35h-2.11H40.1v-2.75v-2.75h2.12h2.11v-3.92v-3.92h2.44h2.43v-2.11v-2.12h-2.43h-2.44v-2.43v-2.44h2.12
			c2.12,0,2.12,0,2.12-1.8c0-1.46,0.06-1.8,0.31-1.8c0.26,0,0.32-0.38,0.32-2.11c0-1.74-0.06-2.12-0.32-2.12
			c-0.25,0-0.31-0.38-0.31-2.12c0-1.73,0.06-2.11,0.31-2.11c0.26,0,0.32-0.38,0.32-2.12s-0.06-2.12-0.32-2.12
			c-0.25,0-0.31-0.38-0.31-2.11V83.1H51h2.43v-2.12c0-1.73-0.06-2.11-0.31-2.11c-0.17,0-0.32-0.15-0.32-0.32
			c0-0.17,0.15-0.32,0.32-0.32c0.17,0,0.31,0.15,0.31,0.32c0,0.25,0.38,0.32,2.12,0.32h2.12v-2.12c0-1.74-0.07-2.12-0.32-2.12
			s-0.32-0.38-0.32-2.11V70.4h4.55h4.55v-2.12v-2.11h-6.66H52.8v-2.12v-2.12h2.43c2.03,0,2.44-0.06,2.44-0.31
			c0-0.26,0.34-0.32,1.8-0.32c1.8,0,1.8,0,1.8-1.8c0-1.46,0.06-1.8,0.31-1.8c0.26,0,0.32-0.38,0.32-2.12c0-1.73-0.06-2.11-0.32-2.11
			c-0.17,0-0.31-0.15-0.31-0.32c0-0.25,0.4-0.32,2.43-0.32h2.43v2.44v2.43h2.12c1.74,0,2.12-0.06,2.12-0.32
			c0-0.17,0.14-0.31,0.31-0.31c0.17,0,0.32,0.14,0.32,0.31c0,0.17-0.15,0.32-0.32,0.32c-0.25,0-0.31,0.38-0.31,2.12v2.11h2.11
			c1.74,0,2.12-0.06,2.12-0.31c0-0.17,0.15-0.32,0.32-0.32s0.31,0.15,0.31,0.32c0,0.17-0.14,0.31-0.31,0.31
			c-0.26,0-0.32,0.38-0.32,2.12v2.12h4.23h4.24v-2.12c0-1.74-0.07-2.12-0.32-2.12s-0.32-0.33-0.32-1.8v-1.79h-3.91
			c-3.35,0-3.92-0.05-3.92-0.32c0-0.17-0.15-0.32-0.32-0.32c-0.25,0-0.32-0.34-0.32-1.8c0-1.8,0-1.8-1.79-1.8h-1.8v-2.75V48.6h2.11
			c1.74,0,2.12,0.06,2.12,0.32c0,0.25,0.38,0.31,2.12,0.31c1.73,0,2.11-0.06,2.11-0.31c0-0.17,0.15-0.32,0.32-0.32
			c0.17,0,0.32,0.15,0.32,0.32c0,0.17-0.15,0.31-0.32,0.31c-0.25,0-0.32,0.38-0.32,2.12v2.12h2.44c2.43,0,2.43,0,2.43,1.8
			c0,1.8,0,1.8,1.8,1.8h1.8v4.55v4.55h-2.12h-2.11v2.11v2.12h4.23h4.23v2.12v2.11h2.12c1.74,0,2.12-0.06,2.12-0.31
			c0-0.17,0.14-0.32,0.31-0.32c0.28,0,0.32,6.28,0.32,55.35v55.35h-2.75H90.9V182.9L90.9,182.9z M86.66,127.55
			c0-1.48,0-1.48-1.48-1.48c-1.48,0-1.48,0-1.48,1.48c0,1.48,0,1.48,1.48,1.48C86.66,129.03,86.66,129.03,86.66,127.55z
			 M82.43,123.32c0-1.48,0-1.48-3.6-1.48c-3.6,0-3.6,0-3.6,1.48c0,1.48,0,1.48,3.6,1.48C82.43,124.8,82.43,124.8,82.43,123.32z
			 M90.9,114.85c0-1.48,0-1.48-3.6-1.48s-3.6,0-3.6,1.48c0,1.48,0,1.48,3.6,1.48S90.9,116.33,90.9,114.85z M82.43,110.62
			c0-1.48,0-1.48-1.48-1.48c-1.48,0-1.48,0-1.48,1.48c0,1.48,0,1.48,1.48,1.48C82.43,112.1,82.43,112.1,82.43,110.62z M78.2,106.38
			c0-1.48,0-1.48-1.48-1.48c-1.49,0-1.49,0-1.49,1.48c0,1.49,0,1.49,1.49,1.49C78.2,107.87,78.2,107.87,78.2,106.38z M73.96,97.92
			c0-1.48,0-1.48-3.59-1.48c-3.6,0-3.6,0-3.6,1.48c0,1.48,0,1.48,3.6,1.48C73.96,99.4,73.96,99.4,73.96,97.92z M90.9,97.92
			c0-1.48,0-1.48-3.6-1.48s-3.6,0-3.6,1.48c0,1.48,0,1.48,3.6,1.48S90.9,99.4,90.9,97.92z M82.43,93.68c0-1.48,0-1.48-3.6-1.48
			c-3.6,0-3.6,0-3.6,1.48c0,1.49,0,1.49,3.6,1.49C82.43,95.17,82.43,95.17,82.43,93.68z M73.96,89.45c0-1.48,0-1.48-3.59-1.48
			c-3.6,0-3.6,0-3.6,1.48c0,1.48,0,1.48,3.6,1.48C73.96,90.93,73.96,90.93,73.96,89.45z M90.9,89.45c0-1.48,0-1.48-3.6-1.48
			s-3.6,0-3.6,1.48c0,1.48,0,1.48,3.6,1.48S90.9,90.93,90.9,89.45z M70.37,64.05v-2.12h-2.12h-2.12v2.12v2.12h2.12h2.12V64.05z"/>
		<path class="st1" d="M108.47,127.55V70.4h4.23h4.23v-2.12v-2.11h-8.78h-8.79v-4.24V57.7h6.67h6.67v-2.12
			c0-1.73-0.06-2.11-0.32-2.11c-0.17,0-0.32-0.15-0.32-0.32c0-0.17,0.15-0.32,0.32-0.32s0.32,0.15,0.32,0.32
			c0,0.27,0.61,0.32,4.23,0.32h4.24v-2.12c0-1.74-0.07-2.12-0.32-2.12c-0.17,0-0.32-0.14-0.32-0.31c0-0.17,0.15-0.32,0.32-0.32
			s0.32,0.15,0.32,0.32c0,0.25,0.38,0.31,2.11,0.31h2.12v-2.11V45h2.43h2.44v2.12c0,1.73-0.07,2.11-0.32,2.11
			c-0.27,0-0.32,0.62-0.32,4.24v4.23h2.12h2.12v-2.43v-2.44h2.43c2.03,0,2.43,0.07,2.43,0.32c0,0.17-0.14,0.32-0.31,0.32
			c-0.26,0-0.32,0.38-0.32,2.11v2.12h2.12c1.73,0,2.11-0.06,2.11-0.32c0-0.17,0.15-0.31,0.32-0.31s0.32,0.14,0.32,0.31
			c0,0.17-0.15,0.32-0.32,0.32c-0.25,0-0.32,0.38-0.32,2.12v2.11h4.24c3.62,0,4.23-0.04,4.23-0.31c0-0.17,0.15-0.32,0.32-0.32
			c0.25,0,0.31,0.38,0.31,2.12c0,2.11,0,2.11,1.8,2.11c1.46,0,1.8,0.07,1.8,0.32c0,0.17,0.15,0.32,0.32,0.32
			c0.25,0,0.32,0.38,0.32,2.11v2.12h-2.44h-2.43v2.12v2.11h4.55h4.55v2.44c0,2.03-0.06,2.43-0.32,2.43c-0.17,0-0.31-0.15-0.31-0.32
			c0-0.27-0.85-0.31-6.35-0.31h-6.35v2.11v2.12h6.35c5.5,0,6.35-0.04,6.35-0.32c0-0.17,0.14-0.31,0.31-0.31
			c0.17,0,0.32,0.14,0.32,0.31s-0.15,0.32-0.32,0.32c-0.25,0-0.31,0.38-0.31,2.12c0,1.73,0.06,2.11,0.31,2.11
			c0.17,0,0.32,0.15,0.32,0.32c0,0.17-0.15,0.32-0.32,0.32c-0.17,0-0.31-0.15-0.31-0.32c0-0.27-0.62-0.32-4.24-0.32h-4.23v2.12v2.12
			h2.43h2.44v2.11v2.12h-2.44h-2.43v2.12v2.11h4.23c3.62,0,4.24-0.04,4.24-0.31c0-0.17,0.14-0.32,0.31-0.32
			c0.17,0,0.32,0.15,0.32,0.32c0,0.17-0.15,0.31-0.32,0.31c-0.25,0-0.31,0.38-0.31,2.12c0,1.74,0.06,2.12,0.31,2.12
			c0.26,0,0.32,0.4,0.32,2.43s-0.06,2.44-0.32,2.44c-0.17,0-0.31-0.15-0.31-0.32c0-0.26-0.41-0.32-2.44-0.32
			c-2.43,0-2.43,0-2.43-1.8s0-1.8-1.48-1.8c-1.49,0-1.49,0-1.49,1.8c0,1.46-0.06,1.8-0.31,1.8c-0.26,0-0.32,0.38-0.32,2.12v2.11
			h2.43c2.44,0,2.44,0,2.44,1.8c0,1.8,0,1.8,1.8,1.8c1.46,0,1.8,0.07,1.8,0.32c0,0.17,0.14,0.32,0.31,0.32
			c0.28,0,0.32,1.31,0.32,10.58s-0.04,10.58-0.32,10.58c-0.25,0-0.31,0.38-0.31,2.12v2.12h-6.35h-6.35v-14.82v-14.82h-2.12
			c-1.74,0-2.12,0.07-2.12,0.32c0,0.17-0.14,0.32-0.31,0.32c-0.17,0-0.32-0.15-0.32-0.32s0.15-0.32,0.32-0.32
			c0.25,0,0.31-0.38,0.31-2.11c0-1.74-0.06-2.12-0.31-2.12c-0.17,0-0.32-0.15-0.32-0.32c0-0.17,0.15-0.31,0.32-0.31
			c0.17,0,0.31,0.14,0.31,0.31c0,0.26,0.38,0.32,2.12,0.32h2.12V97.92V87.33h-2.12c-1.74,0-2.12,0.07-2.12,0.32
			c0,0.17-0.14,0.32-0.31,0.32c-0.17,0-0.32-0.15-0.32-0.32c0-0.17,0.15-0.32,0.32-0.32c0.27,0,0.31-0.61,0.31-4.23v-4.23h-2.11
			c-1.74,0-2.12,0.06-2.12,0.31c0,0.17-0.15,0.32-0.32,0.32s-0.32-0.15-0.32-0.32c0-0.17,0.15-0.31,0.32-0.31
			c0.26,0,0.32-0.38,0.32-2.12v-2.12h-2.12c-1.73,0-2.11,0.07-2.11,0.32c0,0.17-0.15,0.32-0.32,0.32c-0.25,0-0.32-0.38-0.32-2.12
			c0-2.11,0-2.11-1.48-2.11s-1.48,0-1.48,3.59v3.6h1.8c1.46,0,1.8,0.07,1.8,0.32c0,0.17,0.14,0.32,0.31,0.32
			c0.28,0,0.32,0.57,0.32,3.91v3.92h1.8c1.46,0,1.8,0.06,1.8,0.32c0,0.17,0.15,0.31,0.32,0.31c0.25,0,0.32,0.38,0.32,2.12
			s-0.07,2.12-0.32,2.12c-0.26,0-0.32,0.38-0.32,2.11c0,1.74,0.06,2.12,0.32,2.12c0.27,0,0.32,0.85,0.32,6.35s-0.05,6.35-0.32,6.35
			c-0.17,0-0.32,0.15-0.32,0.32c0,0.25-0.34,0.32-1.8,0.32c-1.8,0-1.8,0-1.8,1.48c0,1.48,0,1.48,1.8,1.48c1.46,0,1.8,0.06,1.8,0.32
			c0,0.17,0.15,0.31,0.32,0.31c0.27,0,0.32,0.62,0.32,4.24c0,3.62-0.05,4.23-0.32,4.23c-0.26,0-0.32,0.38-0.32,2.12
			c0,1.73,0.06,2.11,0.32,2.11c0.27,0,0.32,1.13,0.32,8.79c0,7.66-0.05,8.78-0.32,8.78c-0.17,0-0.32-0.15-0.32-0.32
			c0-0.25-0.38-0.31-2.12-0.31c-1.73,0-2.11,0.06-2.11,0.31c0,0.17-0.15,0.32-0.32,0.32c-0.25,0-0.32-0.38-0.32-2.11
			c0-2.12,0-2.12-1.48-2.12h-1.48v18.73c0,16.51-0.04,18.73-0.32,18.73c-0.25,0-0.32,0.38-0.32,2.12v2.12h2.12h2.12v2.11v2.12h-12.7
			h-12.7V127.55L108.47,127.55z M129,131.78c0-1.48,0-1.48-3.6-1.48c-3.6,0-3.6,0-3.6,1.48c0,1.49,0,1.49,3.6,1.49
			C129,133.27,129,133.27,129,131.78z M120.53,127.55c0-1.48,0-1.48-3.6-1.48c-3.6,0-3.6,0-3.6,1.48c0,1.48,0,1.48,3.6,1.48
			C120.53,129.03,120.53,129.03,120.53,127.55z M116.93,119.08c0-1.73-0.06-2.11-0.31-2.11c-0.17,0-0.32-0.15-0.32-0.32
			c0-0.17,0.15-0.32,0.32-0.32s0.31,0.15,0.31,0.32c0,0.25,0.38,0.32,2.12,0.32h2.12v-16.94V83.1h-2.12c-1.74,0-2.12,0.06-2.12,0.32
			c0,0.17-0.14,0.32-0.31,0.32c-0.26,0-0.32-0.39-0.32-2.12c0-2.12,0-2.12-1.48-2.12h-1.49v18.73c0,16.51-0.04,18.74-0.31,18.74
			c-0.26,0-0.32,0.38-0.32,2.11v2.12h2.12h2.11V119.08L116.93,119.08z M146.57,76.75v-2.12h-2.12h-2.12v2.12v2.12h2.12h2.12V76.75z
			 M141.7,72.2v-1.8h4.55h4.55v-2.12v-2.11h-4.55h-4.55v-1.8v-1.8h-3.92c-3.34,0-3.91-0.04-3.91-0.32c0-0.25-0.38-0.32-2.12-0.32
			h-2.12v-2.11V57.7h-2.11h-2.12v2.12v2.11h-4.23h-4.24v-2.11V57.7h-2.11h-2.12v2.12v2.11h2.12h2.11v2.12v2.12h4.24h4.23v-2.12
			v-2.12h2.12h2.11v2.12v2.12h2.12c1.74,0,2.12-0.07,2.12-0.32c0-0.17,0.14-0.32,0.31-0.32s0.32,0.15,0.32,0.32
			s-0.15,0.32-0.32,0.32c-0.25,0-0.31,0.38-0.31,2.11v2.12h2.43c2.43,0,2.43,0,2.43,1.8c0,1.8,0,1.8,1.49,1.8
			C141.7,74,141.7,74,141.7,72.2L141.7,72.2z"/>
		<path class="st1" d="M44.33,152.63v-2.43h2.12c2.11,0,2.11,0,2.11-1.8s0-1.8,2.44-1.8h2.43v4.23v4.24h-4.55h-4.55V152.63z"/>
		<polygon class="st1" points="146.57,150.83 146.57,146.6 151.12,146.6 155.67,146.6 155.67,150.83 155.67,155.07 151.12,155.07 
			146.57,155.07 		"/>
		<path class="st1" d="M48.56,74.95c0-0.17,0.15-0.32,0.32-0.32c0.26,0,0.32-0.38,0.32-2.11c0-1.74-0.06-2.12-0.32-2.12
			c-0.17,0-0.32-0.15-0.32-0.32c0-0.17,0.15-0.31,0.32-0.31c0.17,0,0.32,0.14,0.32,0.31c0,0.26,0.4,0.32,2.43,0.32h2.44v2.12
			c0,1.73-0.07,2.11-0.32,2.11c-0.17,0-0.32,0.15-0.32,0.32c0,0.26-0.4,0.32-2.43,0.32C48.97,75.27,48.56,75.21,48.56,74.95z"/>
		<path class="st1" d="M83.07,28.38c0-0.27-1.32-0.31-10.59-0.31H61.9v-2.12c0-1.74-0.06-2.12-0.32-2.12c-0.25,0-0.32-0.4-0.32-2.43
			v-2.43h4.24h4.23v-1.8v-1.8h6.67h6.67v2.11v2.12h2.11h2.12v2.12c0,1.73,0.06,2.11,0.32,2.11c0.17,0,0.31,0.15,0.31,0.32
			s-0.14,0.32-0.31,0.32c-0.17,0-0.32-0.15-0.32-0.32c0-0.25-0.38-0.32-2.12-0.32h-2.11v2.12c0,1.74,0.06,2.12,0.31,2.12
			c0.17,0,0.32,0.15,0.32,0.31c0,0.17-0.15,0.32-0.32,0.32S83.07,28.55,83.07,28.38L83.07,28.38z"/>
		<path class="st1" d="M116.3,28.38c0-0.16,0.15-0.31,0.32-0.31c0.25,0,0.31-0.38,0.31-2.12s-0.06-2.12-0.31-2.12
			c-0.26,0-0.32-0.4-0.32-2.43v-2.43h4.23h4.23v-1.8v-1.8h8.79h8.78v4.23v4.23h-2.11h-2.12v2.12v2.12h-10.58
			c-9.27,0-10.59,0.04-10.59,0.31c0,0.17-0.14,0.32-0.31,0.32S116.3,28.55,116.3,28.38z"/>
	</g>
	<g id="_2620073970672">
		<polygon class="st2" points="66.13,182.58 66.13,180.47 78.83,180.47 91.53,180.47 91.53,182.58 91.53,184.7 78.83,184.7 
			66.13,184.7 		"/>
		<path class="st2" d="M95.77,182.27c0-2.44,0-2.44,1.8-2.44c1.79,0,1.79,0,1.79-1.48c0-1.48,0-1.48-1.79-1.48h-1.8v-2.75v-2.75h1.8
			c1.79,0,1.79,0,1.79-1.49c0-1.48,0-1.48-1.79-1.48h-1.8v-2.75v-2.75h1.8c1.79,0,1.79,0,1.79-1.48s0-1.48-1.79-1.48h-1.8v-2.76
			v-2.75h1.8c1.79,0,1.79,0,1.79-1.48s0-1.48-1.79-1.48h-1.8v-2.75v-2.75h1.8c1.79,0,1.79,0,1.79-1.49c0-1.48,0-1.48-1.79-1.48h-1.8
			v-2.75v-2.75h1.8c1.79,0,1.79,0,1.79-1.48c0-1.48,0-1.48-1.79-1.48h-1.8v-2.76v-2.75h1.8c1.79,0,1.79,0,1.79-1.48
			c0-1.48,0-1.48-1.79-1.48h-1.8v-2.75v-2.75h1.8c1.79,0,1.79,0,1.79-1.49c0-1.48,0-1.48-1.79-1.48h-1.8v-2.75v-2.75h1.8
			c1.79,0,1.79,0,1.79-1.48c0-1.48,0-1.48-1.79-1.48h-1.8v-2.76v-2.75h1.8c1.79,0,1.79,0,1.79-1.48c0-1.48,0-1.48-1.79-1.48h-1.8
			v-2.75v-2.76h1.8c1.79,0,1.79,0,1.79-1.48c0-1.48,0-1.48-1.79-1.48h-1.8v-2.75V86.7h1.8c1.79,0,1.79,0,1.79-1.48
			c0-1.49,0-1.49-1.79-1.49h-1.8v-2.75v-2.75h1.8c1.79,0,1.79,0,1.79-1.48c0-1.48,0-1.48-1.79-1.48c-1.8,0-1.8,0-1.8-2.44V70.4h2.43
			c2.43,0,2.43,0,2.43,1.8c0,1.8,0,1.8,1.8,1.8h1.8v2.75v2.75h-1.8c-1.8,0-1.8,0-1.8,1.48c0,1.48,0,1.48,1.8,1.48h1.8v2.76v2.75
			h-1.8c-1.8,0-1.8,0-1.8,1.48c0,1.48,0,1.48,1.8,1.48h1.8v2.75v2.76h-1.8c-1.8,0-1.8,0-1.8,1.48c0,1.48,0,1.48,1.8,1.48h1.8v2.75
			v2.75h-1.8c-1.8,0-1.8,0-1.8,1.48c0,1.49,0,1.49,1.8,1.49h1.8v2.75v2.75h-1.8c-1.8,0-1.8,0-1.8,1.48c0,1.48,0,1.48,1.8,1.48h1.8
			v2.75v2.76h-1.8c-1.8,0-1.8,0-1.8,1.48c0,1.48,0,1.48,1.8,1.48h1.8v2.75v2.75h-1.8c-1.8,0-1.8,0-1.8,1.48c0,1.49,0,1.49,1.8,1.49
			h1.8v2.75v2.75h-1.8c-1.8,0-1.8,0-1.8,1.48c0,1.48,0,1.48,1.8,1.48h1.8v2.75v2.76h-1.8c-1.8,0-1.8,0-1.8,1.48
			c0,1.48,0,1.48,1.8,1.48h1.8v2.75v2.75h-1.8c-1.8,0-1.8,0-1.8,1.48c0,1.49,0,1.49,1.8,1.49h1.8v2.75v2.75h-1.8
			c-1.8,0-1.8,0-1.8,1.48s0,1.48,1.8,1.48h1.8v2.75v2.76h-1.8c-1.8,0-1.8,0-1.8,1.48s0,1.48,1.8,1.48h1.8v2.75v2.75h-1.8
			c-1.8,0-1.8,0-1.8,1.8s0,1.8-2.43,1.8h-2.43V182.27L95.77,182.27z"/>
		<polygon class="st2" points="138.1,152.95 138.1,125.43 140.22,125.43 142.33,125.43 142.33,152.95 142.33,180.47 140.22,180.47 
			138.1,180.47 		"/>
		<polygon class="st2" points="70.37,165.65 70.37,162.9 72.48,162.9 74.6,162.9 74.6,165.65 74.6,168.4 72.48,168.4 70.37,168.4 		
			"/>
		<polygon class="st2" points="129.63,165.65 129.63,162.9 131.75,162.9 133.87,162.9 133.87,165.65 133.87,168.4 131.75,168.4 
			129.63,168.4 		"/>
		<polygon class="st2" points="70.37,157.18 70.37,154.43 72.48,154.43 74.6,154.43 74.6,157.18 74.6,159.94 72.48,159.94 
			70.37,159.94 		"/>
		<polygon class="st2" points="129.63,157.18 129.63,154.43 131.75,154.43 133.87,154.43 133.87,157.18 133.87,159.94 
			131.75,159.94 129.63,159.94 		"/>
		<path class="st2" d="M40.1,152.63v-2.43h2.75c2.31,0,2.75,0.04,2.75,0.32c0,0.17-0.15,0.31-0.32,0.31c-0.25,0-0.31,0.38-0.31,2.12
			v2.12h-2.44H40.1V152.63z"/>
		<polygon class="st2" points="155.03,150.83 155.03,146.6 157.47,146.6 159.9,146.6 159.9,150.83 159.9,155.07 157.47,155.07 
			155.03,155.07 		"/>
		<polygon class="st2" points="70.37,148.72 70.37,145.97 72.48,145.97 74.6,145.97 74.6,148.72 74.6,151.47 72.48,151.47 
			70.37,151.47 		"/>
		<polygon class="st2" points="129.63,148.72 129.63,145.97 131.75,145.97 133.87,145.97 133.87,148.72 133.87,151.47 
			131.75,151.47 129.63,151.47 		"/>
		<polygon class="st2" points="70.37,140.57 70.37,138.13 72.48,138.13 74.6,138.13 74.6,140.57 74.6,143 72.48,143 70.37,143 		"/>
		<polygon class="st2" points="129.63,140.57 129.63,138.13 131.75,138.13 133.87,138.13 133.87,140.57 133.87,143 131.75,143 
			129.63,143 		"/>
		<path class="st2" d="M40.73,140.25c0-1.74-0.06-2.12-0.31-2.12c-0.28,0-0.32-0.89-0.32-6.66c0-5.78,0.04-6.67,0.32-6.67
			c0.17,0,0.31,0.15,0.31,0.32c0,0.25,0.38,0.31,2.12,0.31h2.12v6.35v6.35h2.11h2.12v2.12v2.12h-4.23h-4.24V140.25L40.73,140.25z"/>
		<polygon class="st2" points="121.17,131.78 121.17,129.67 116.93,129.67 112.7,129.67 112.7,127.55 112.7,125.43 116.93,125.43 
			121.17,125.43 121.17,127.55 121.17,129.67 125.4,129.67 129.63,129.67 129.63,131.78 129.63,133.9 125.4,133.9 121.17,133.9 		
			"/>
		<polygon class="st2" points="159.27,127.55 159.27,124.8 161.38,124.8 163.5,124.8 163.5,127.55 163.5,130.3 161.38,130.3 
			159.27,130.3 		"/>
		<polygon class="st2" points="83.07,127.55 83.07,125.43 78.83,125.43 74.6,125.43 74.6,123.32 74.6,121.2 78.83,121.2 
			83.07,121.2 83.07,123.32 83.07,125.43 85.18,125.43 87.3,125.43 87.3,127.55 87.3,129.67 85.18,129.67 83.07,129.67 		"/>
		<path class="st2" d="M40.1,119.4c0-2.03,0.06-2.43,0.32-2.43c0.25,0,0.31-0.38,0.31-2.12s-0.06-2.12-0.31-2.12
			c-0.17,0-0.32-0.14-0.32-0.31s0.15-0.32,0.32-0.32c0.17,0,0.31,0.15,0.31,0.32c0,0.25,0.38,0.31,2.12,0.31h2.12v4.24v4.23h-2.12
			c-1.74,0-2.12,0.06-2.12,0.32c0,0.17-0.14,0.32-0.31,0.32C40.16,121.84,40.1,121.43,40.1,119.4L40.1,119.4z"/>
		<polygon class="st2" points="138.1,116.97 138.1,112.73 135.98,112.73 133.87,112.73 133.87,110.62 133.87,108.5 135.98,108.5 
			138.1,108.5 138.1,102.15 138.1,95.8 140.22,95.8 142.33,95.8 142.33,102.15 142.33,108.5 140.22,108.5 138.1,108.5 138.1,110.62 
			138.1,112.73 140.22,112.73 142.33,112.73 142.33,116.97 142.33,121.2 140.22,121.2 138.1,121.2 		"/>
		<path class="st2" d="M159.27,117.28c0-0.25-0.38-0.31-2.12-0.31h-2.12v-2.12v-2.12h2.12h2.12v-2.43v-2.43h2.11h2.12v2.43v2.43
			h-2.12h-2.11v2.12c0,1.74,0.06,2.12,0.31,2.12c0.17,0,0.32,0.15,0.32,0.31c0,0.17-0.15,0.32-0.32,0.32
			C159.41,117.6,159.27,117.45,159.27,117.28z"/>
		<polygon class="st2" points="83.07,114.85 83.07,112.73 80.95,112.73 78.83,112.73 78.83,110.62 78.83,108.5 76.72,108.5 
			74.6,108.5 74.6,106.38 74.6,104.27 76.72,104.27 78.83,104.27 78.83,106.38 78.83,108.5 80.95,108.5 83.07,108.5 83.07,110.62 
			83.07,112.73 87.3,112.73 91.53,112.73 91.53,114.85 91.53,116.97 87.3,116.97 83.07,116.97 		"/>
		<polygon class="st2" points="112.7,106.38 112.7,103.63 114.82,103.63 116.93,103.63 116.93,106.38 116.93,109.14 114.82,109.14 
			112.7,109.14 		"/>
		<polygon class="st2" points="150.8,106.38 150.8,104.27 152.92,104.27 155.03,104.27 155.03,106.38 155.03,108.5 152.92,108.5 
			150.8,108.5 		"/>
		<path class="st2" d="M40.1,104.58c0-0.16,0.15-0.31,0.32-0.31c0.25,0,0.31-0.38,0.31-2.12c0-1.74-0.06-2.12-0.31-2.12
			c-0.17,0-0.32-0.14-0.32-0.31c0-0.17,0.15-0.32,0.32-0.32c0.17,0,0.31,0.15,0.31,0.32c0,0.27,0.62,0.31,4.24,0.31h4.23v2.12v2.12
			h-2.12c-1.73,0-2.11,0.06-2.11,0.31c0,0.26-0.41,0.32-2.44,0.32S40.1,104.84,40.1,104.58L40.1,104.58z"/>
		<polygon class="st2" points="112.7,97.92 112.7,95.17 114.82,95.17 116.93,95.17 116.93,97.92 116.93,100.67 114.82,100.67 
			112.7,100.67 		"/>
		<path class="st2" d="M159.27,97.92c0-1.74-0.07-2.12-0.32-2.12c-0.17,0-0.32-0.15-0.32-0.32s0.15-0.31,0.32-0.31
			s0.32,0.14,0.32,0.31c0,0.26,0.38,0.32,2.11,0.32h2.12v2.12v2.11h-2.12h-2.11V97.92z"/>
		<polygon class="st2" points="44.33,93.68 44.33,91.57 46.77,91.57 49.2,91.57 49.2,93.68 49.2,95.8 46.77,95.8 44.33,95.8 		"/>
		<polygon class="st2" points="112.7,89.45 112.7,86.7 114.82,86.7 116.93,86.7 116.93,89.45 116.93,92.2 114.82,92.2 112.7,92.2 		
			"/>
		<path class="st2" d="M158.63,91.88c0-0.16,0.15-0.31,0.32-0.31c0.25,0,0.32-0.38,0.32-2.12v-2.12h2.11h2.12v2.12v2.12h-2.12
			c-1.73,0-2.11,0.06-2.11,0.31c0,0.17-0.15,0.32-0.32,0.32S158.63,92.05,158.63,91.88z"/>
		<polygon class="st2" points="138.1,89.45 138.1,87.33 135.98,87.33 133.87,87.33 133.87,83.1 133.87,78.87 131.75,78.87 
			129.63,78.87 129.63,76.43 129.63,74 131.75,74 133.87,74 133.87,76.43 133.87,78.87 135.98,78.87 138.1,78.87 138.1,83.1 
			138.1,87.33 140.22,87.33 142.33,87.33 142.33,89.45 142.33,91.57 140.22,91.57 138.1,91.57 		"/>
		<polygon class="st2" points="44.33,85.22 44.33,83.1 46.77,83.1 49.2,83.1 49.2,85.22 49.2,87.33 46.77,87.33 44.33,87.33 		"/>
		<polygon class="st2" points="112.7,81.3 112.7,78.87 114.82,78.87 116.93,78.87 116.93,81.3 116.93,83.74 114.82,83.74 
			112.7,83.74 		"/>
		<polygon class="st2" points="159.27,78.87 159.27,74.63 161.38,74.63 163.5,74.63 163.5,78.87 163.5,83.1 161.38,83.1 
			159.27,83.1 		"/>
		<path class="st2" d="M44.33,76.75v-2.12h4.55c3.9,0,4.55-0.04,4.55-0.31c0-0.17,0.15-0.32,0.32-0.32c0.17,0,0.32,0.15,0.32,0.32
			s-0.15,0.31-0.32,0.31c-0.25,0-0.32,0.38-0.32,2.12v2.12h-4.55h-4.55V76.75z"/>
		<path class="st2" d="M44.33,68.28c0-1.73,0.07-2.11,0.32-2.11c0.17,0,0.32-0.15,0.32-0.32c0-0.25,0.34-0.32,1.8-0.32
			c1.79,0,1.79,0,1.79-2.11c0-1.74,0.07-2.12,0.32-2.12c0.17,0,0.32,0.15,0.32,0.32c0,0.25,0.38,0.31,2.12,0.31h2.11v2.12v2.12
			h-2.11H49.2v2.11v2.12h-2.43h-2.44V68.28L44.33,68.28z"/>
		<path class="st2" d="M155.03,68.28v-2.11h-2.11h-2.12v-4.24V57.7h-4.23h-4.24v-2.12c0-1.73-0.06-2.11-0.31-2.11
			c-0.17,0-0.32-0.15-0.32-0.32c0-0.17,0.15-0.32,0.32-0.32c0.17,0,0.31,0.15,0.31,0.32c0,0.27,0.62,0.32,4.24,0.32h4.23v2.11v2.12
			h2.12h2.11v4.23v4.24h2.12h2.12v2.11v2.12h-2.12h-2.12V68.28z"/>
		<path class="st2" d="M57.67,59.82c0-1.74-0.07-2.12-0.32-2.12c-0.17,0-0.32-0.15-0.32-0.32c0-0.17,0.15-0.31,0.32-0.31
			s0.32,0.14,0.32,0.31c0,0.26,0.38,0.32,2.11,0.32h2.12v2.12v2.11h-2.12h-2.11V59.82z"/>
	</g>
	<g id="_2620073970288">
		<path class="st3" d="M86.66,53.78c0-0.16,0.15-0.31,0.32-0.31c0.26,0,0.32-0.38,0.32-2.12v-2.12h-4.23h-4.24V46.8v-2.43h4.55
			c3.9,0,4.55,0.04,4.55,0.31c0,0.17-0.14,0.32-0.31,0.32c-0.26,0-0.32,0.38-0.32,2.12v2.11h4.23h4.24v2.12v2.12h-4.24
			c-3.62,0-4.23,0.04-4.23,0.31c0,0.17-0.15,0.32-0.32,0.32C86.81,54.1,86.66,53.95,86.66,53.78L86.66,53.78z"/>
		<path class="st3" d="M100,51.35v-2.12h4.23c3.62,0,4.24-0.04,4.24-0.31c0-0.26,0.34-0.32,1.8-0.32c1.79,0,1.79,0,1.79-1.8
			c0-1.46,0.07-1.8,0.32-1.8c0.17,0,0.32-0.15,0.32-0.32c0-0.27,0.61-0.31,4.23-0.31h4.24v2.43v2.43h-4.24h-4.23v2.12v2.12h-6.35
			H100V51.35L100,51.35z"/>
	</g>
	<g id="_2620045534176">
		<polygon class="st4" points="100,182.58 100,180.47 97.88,180.47 95.77,180.47 95.77,178.35 95.77,176.23 97.88,176.23 
			100,176.23 100,174.12 100,172 97.88,172 95.77,172 95.77,169.88 95.77,167.77 97.88,167.77 100,167.77 100,165.65 100,163.53 
			97.88,163.53 95.77,163.53 95.77,161.42 95.77,159.3 97.88,159.3 100,159.3 100,157.18 100,155.07 97.88,155.07 95.77,155.07 
			95.77,152.95 95.77,150.83 97.88,150.83 100,150.83 100,148.72 100,146.6 97.88,146.6 95.77,146.6 95.77,144.48 95.77,142.37 
			97.88,142.37 100,142.37 100,140.25 100,138.13 97.88,138.13 95.77,138.13 95.77,136.02 95.77,133.9 97.88,133.9 100,133.9 
			100,131.78 100,129.67 97.88,129.67 95.77,129.67 95.77,127.55 95.77,125.43 97.88,125.43 100,125.43 100,123.32 100,121.2 
			97.88,121.2 95.77,121.2 95.77,119.08 95.77,116.97 97.88,116.97 100,116.97 100,114.85 100,112.73 97.88,112.73 95.77,112.73 
			95.77,110.62 95.77,108.5 97.88,108.5 100,108.5 100,106.38 100,104.27 97.88,104.27 95.77,104.27 95.77,102.15 95.77,100.03 
			97.88,100.03 100,100.03 100,97.92 100,95.8 97.88,95.8 95.77,95.8 95.77,93.68 95.77,91.57 97.88,91.57 100,91.57 100,89.45 
			100,87.34 97.88,87.34 95.77,87.34 95.77,85.22 95.77,83.1 97.88,83.1 100,83.1 100,80.99 100,78.87 97.88,78.87 95.77,78.87 
			95.77,76.75 95.77,74.64 97.88,74.64 100,74.64 100,72.52 100,70.4 102.12,70.4 104.23,70.4 104.23,72.52 104.23,74.64 
			102.12,74.64 100,74.64 100,76.75 100,78.87 102.12,78.87 104.23,78.87 104.23,80.99 104.23,83.1 102.12,83.1 100,83.1 100,85.22 
			100,87.34 102.12,87.34 104.23,87.34 104.23,89.45 104.23,91.57 102.12,91.57 100,91.57 100,93.68 100,95.8 102.12,95.8 
			104.23,95.8 104.23,97.92 104.23,100.03 102.12,100.03 100,100.03 100,102.15 100,104.27 102.12,104.27 104.23,104.27 
			104.23,106.38 104.23,108.5 102.12,108.5 100,108.5 100,110.62 100,112.73 102.12,112.73 104.23,112.73 104.23,114.85 
			104.23,116.97 102.12,116.97 100,116.97 100,119.08 100,121.2 102.12,121.2 104.23,121.2 104.23,123.32 104.23,125.43 
			102.12,125.43 100,125.43 100,127.55 100,129.67 102.12,129.67 104.23,129.67 104.23,131.78 104.23,133.9 102.12,133.9 100,133.9 
			100,136.02 100,138.13 102.12,138.13 104.23,138.13 104.23,140.25 104.23,142.37 102.12,142.37 100,142.37 100,144.48 100,146.6 
			102.12,146.6 104.23,146.6 104.23,148.72 104.23,150.83 102.12,150.83 100,150.83 100,152.95 100,155.07 102.12,155.07 
			104.23,155.07 104.23,157.18 104.23,159.3 102.12,159.3 100,159.3 100,161.42 100,163.53 102.12,163.53 104.23,163.53 
			104.23,165.65 104.23,167.77 102.12,167.77 100,167.77 100,169.88 100,172 102.12,172 104.23,172 104.23,174.12 104.23,176.23 
			102.12,176.23 100,176.23 100,178.35 100,180.47 102.12,180.47 104.23,180.47 104.23,182.58 104.23,184.7 102.12,184.7 100,184.7 
					"/>
		<path class="st4" d="M57.67,146.6v-33.87h2.11h2.12v-2.11v-2.12h-2.12h-2.11V97.92V87.33h2.11h2.12V83.1v-4.23h2.12h2.11v-4.24
			V70.4h2.12h2.12v4.23v4.24h-2.12h-2.12v4.23c0,3.62,0.05,4.23,0.32,4.23c0.17,0,0.32,0.15,0.32,0.32c0,0.17-0.15,0.32-0.32,0.32
			s-0.32-0.15-0.32-0.32c0-0.25-0.38-0.32-2.11-0.32H61.9v10.59v10.58h2.12h2.11v2.12v2.11h-2.11H61.9v33.87v33.87h-2.12h-2.11
			V146.6z"/>
		<polygon class="st4" points="70.37,172 70.37,167.77 72.48,167.77 74.6,167.77 74.6,172 74.6,176.23 72.48,176.23 70.37,176.23 		
			"/>
		<polygon class="st4" points="129.63,172 129.63,167.77 131.75,167.77 133.87,167.77 133.87,172 133.87,176.23 131.75,176.23 
			129.63,176.23 		"/>
		<polygon class="st4" points="70.37,161.42 70.37,159.3 72.48,159.3 74.6,159.3 74.6,161.42 74.6,163.53 72.48,163.53 
			70.37,163.53 		"/>
		<polygon class="st4" points="129.63,161.42 129.63,159.3 131.75,159.3 133.87,159.3 133.87,161.42 133.87,163.53 131.75,163.53 
			129.63,163.53 		"/>
		<polygon class="st4" points="36.5,150.83 36.5,146.6 42.85,146.6 49.2,146.6 49.2,148.72 49.2,150.83 44.97,150.83 40.73,150.83 
			40.73,152.95 40.73,155.07 38.62,155.07 36.5,155.07 		"/>
		<polygon class="st4" points="70.37,152.95 70.37,150.83 72.48,150.83 74.6,150.83 74.6,152.95 74.6,155.07 72.48,155.07 
			70.37,155.07 		"/>
		<polygon class="st4" points="129.63,152.95 129.63,150.83 131.75,150.83 133.87,150.83 133.87,152.95 133.87,155.07 
			131.75,155.07 129.63,155.07 		"/>
		<polygon class="st4" points="159.27,150.83 159.27,146.6 161.38,146.6 163.5,146.6 163.5,150.83 163.5,155.07 161.38,155.07 
			159.27,155.07 		"/>
		<polygon class="st4" points="70.37,144.48 70.37,142.37 72.48,142.37 74.6,142.37 74.6,144.48 74.6,146.6 72.48,146.6 
			70.37,146.6 		"/>
		<polygon class="st4" points="129.63,144.48 129.63,142.37 131.75,142.37 133.87,142.37 133.87,144.48 133.87,146.6 131.75,146.6 
			129.63,146.6 		"/>
		<polygon class="st4" points="36.5,127.55 36.5,116.97 38.62,116.97 40.73,116.97 40.73,127.55 40.73,138.13 38.62,138.13 
			36.5,138.13 		"/>
		<polygon class="st4" points="159.27,133.9 159.27,129.67 161.38,129.67 163.5,129.67 163.5,133.9 163.5,138.13 161.38,138.13 
			159.27,138.13 		"/>
		<polygon class="st4" points="159.27,121.2 159.27,116.97 161.38,116.97 163.5,116.97 163.5,121.2 163.5,125.43 161.38,125.43 
			159.27,125.43 		"/>
		<polygon class="st4" points="112.7,112.73 112.7,108.5 114.82,108.5 116.93,108.5 116.93,112.73 116.93,116.97 114.82,116.97 
			112.7,116.97 		"/>
		<polygon class="st4" points="36.5,108.5 36.5,104.27 40.73,104.27 44.97,104.27 44.97,106.38 44.97,108.5 42.85,108.5 
			40.73,108.5 40.73,110.62 40.73,112.73 38.62,112.73 36.5,112.73 		"/>
		<polygon class="st4" points="159.27,106.38 159.27,104.27 161.38,104.27 163.5,104.27 163.5,106.38 163.5,108.5 161.38,108.5 
			159.27,108.5 		"/>
		<polygon class="st4" points="112.7,102.15 112.7,100.03 114.82,100.03 116.93,100.03 116.93,102.15 116.93,104.27 114.82,104.27 
			112.7,104.27 		"/>
		<polygon class="st4" points="36.5,97.92 36.5,95.8 38.62,95.8 40.73,95.8 40.73,93.68 40.73,91.57 38.62,91.57 36.5,91.57 
			36.5,89.45 36.5,87.33 38.62,87.33 40.73,87.33 40.73,85.22 40.73,83.1 38.62,83.1 36.5,83.1 36.5,78.87 36.5,74.63 40.73,74.63 
			44.97,74.63 44.97,76.75 44.97,78.87 42.85,78.87 40.73,78.87 40.73,80.98 40.73,83.1 42.85,83.1 44.97,83.1 44.97,85.22 
			44.97,87.33 42.85,87.33 40.73,87.33 40.73,89.45 40.73,91.57 42.85,91.57 44.97,91.57 44.97,93.68 44.97,95.8 42.85,95.8 
			40.73,95.8 40.73,97.92 40.73,100.03 38.62,100.03 36.5,100.03 		"/>
		<polygon class="st4" points="112.7,93.68 112.7,91.57 114.82,91.57 116.93,91.57 116.93,93.68 116.93,95.8 114.82,95.8 
			112.7,95.8 		"/>
		<polygon class="st4" points="155.03,93.68 155.03,91.57 157.15,91.57 159.27,91.57 159.27,93.68 159.27,95.8 157.15,95.8 
			155.03,95.8 		"/>
		<polygon class="st4" points="112.7,85.22 112.7,83.1 114.82,83.1 116.93,83.1 116.93,85.22 116.93,87.33 114.82,87.33 
			112.7,87.33 		"/>
		<polygon class="st4" points="53.43,72.52 53.43,70.4 55.55,70.4 57.67,70.4 57.67,72.52 57.67,74.63 55.55,74.63 53.43,74.63 		
			"/>
		<polygon class="st4" points="129.63,72.52 129.63,70.4 131.75,70.4 133.87,70.4 133.87,72.52 133.87,74.63 131.75,74.63 
			129.63,74.63 		"/>
		<polygon class="st4" points="138.1,72.52 138.1,70.4 140.22,70.4 142.33,70.4 142.33,72.52 142.33,74.63 140.22,74.63 
			138.1,74.63 		"/>
		<polygon class="st4" points="40.73,68.28 40.73,66.17 42.85,66.17 44.97,66.17 44.97,61.93 44.97,57.7 47.08,57.7 49.2,57.7 
			49.2,55.58 49.2,53.47 53.43,53.47 57.67,53.47 57.67,51.35 57.67,49.23 61.9,49.23 66.13,49.23 66.13,51.35 66.13,53.47 
			61.9,53.47 57.67,53.47 57.67,55.58 57.67,57.7 53.43,57.7 49.2,57.7 49.2,61.93 49.2,66.17 47.08,66.17 44.97,66.17 44.97,68.28 
			44.97,70.4 42.85,70.4 40.73,70.4 		"/>
		<polygon class="st4" points="91.53,61.93 91.53,57.7 95.77,57.7 100,57.7 100,61.93 100,66.17 95.77,66.17 91.53,66.17 		"/>
		<polygon class="st4" points="133.87,64.05 133.87,61.93 138.1,61.93 142.33,61.93 142.33,64.05 142.33,66.17 138.1,66.17 
			133.87,66.17 		"/>
		<polygon class="st4" points="74.6,59.82 74.6,57.7 72.48,57.7 70.37,57.7 70.37,55.58 70.37,53.47 72.48,53.47 74.6,53.47 
			74.6,55.58 74.6,57.7 78.83,57.7 83.07,57.7 83.07,55.58 83.07,53.47 85.18,53.47 87.3,53.47 87.3,55.58 87.3,57.7 85.18,57.7 
			83.07,57.7 83.07,59.82 83.07,61.93 78.83,61.93 74.6,61.93 		"/>
		<polygon class="st4" points="133.87,51.35 133.87,49.23 131.75,49.23 129.63,49.23 129.63,47.12 129.63,45 131.75,45 133.87,45 
			133.87,47.12 133.87,49.23 138.1,49.23 142.33,49.23 142.33,51.35 142.33,53.47 138.1,53.47 133.87,53.47 		"/>
		<polygon class="st4" points="70.37,47.12 70.37,45 72.48,45 74.6,45 74.6,47.12 74.6,49.23 72.48,49.23 70.37,49.23 		"/>
		<path class="st4" d="M112.06,24.15c0-0.17,0.15-0.32,0.32-0.32c0.28,0,0.32-0.61,0.32-4.23v-4.23h6.35h6.35v2.11v2.12h-4.23h-4.24
			v2.12v2.11h-2.11c-1.74,0-2.12,0.07-2.12,0.32c0,0.17-0.15,0.32-0.32,0.32S112.06,24.32,112.06,24.15L112.06,24.15z"/>
		<polygon class="st4" points="57.67,19.6 57.67,15.37 64.02,15.37 70.37,15.37 70.37,17.48 70.37,19.6 66.13,19.6 61.9,19.6 
			61.9,21.72 61.9,23.83 59.78,23.83 57.67,23.83 		"/>
	</g>
	<g id="_2620045565280">
		<path class="st5" d="M108.47,47.12V45h-4.24H100v-2.12v-2.11h4.23h4.24v-2.12v-2.12h-4.24H100v-2.11V32.3h4.23h4.24v-2.12v-2.11
			h-4.24H100v-2.12v-2.12h6.35h6.35v2.12v2.12h2.12h2.11v2.11v2.12h2.12h2.12v6.35V45h-4.24h-4.23v2.12v2.11h-2.12h-2.11V47.12
			L108.47,47.12z M112.7,42.88v-2.11h-2.12h-2.11v2.11V45h2.11h2.12V42.88z"/>
		<path class="st5" d="M82.43,38.65c0-5.5,0.04-6.35,0.32-6.35c0.17,0,0.32-0.15,0.32-0.32c0-0.25,0.34-0.31,1.8-0.31
			c1.79,0,1.79,0,1.79-1.8c0-1.46,0.07-1.8,0.32-1.8c0.17,0,0.32-0.15,0.32-0.32c0-0.25,0.34-0.32,1.8-0.32c1.8,0,1.8,0,1.8-1.8
			c0-1.46,0.06-1.8,0.32-1.8c0.17,0,0.31-0.14,0.31-0.31c0-0.26,0.38-0.32,2.12-0.32h2.12v2.43v2.44h-2.12h-2.12v2.11v2.12h2.12
			h2.12v2.12v2.11h-2.12h-2.12v-2.11V32.3h-2.11H87.3v4.23v4.24h4.23h4.24v2.11V45H89.1h-6.67V38.65L82.43,38.65z"/>
	</g>
	<g id="_2620045564944">
		<polygon class="st6" points="66.13,97.92 66.13,95.8 70.37,95.8 74.6,95.8 74.6,93.68 74.6,91.57 70.37,91.57 66.13,91.57 
			66.13,89.45 66.13,87.33 70.37,87.33 74.6,87.33 74.6,89.45 74.6,91.57 78.83,91.57 83.07,91.57 83.07,89.45 83.07,87.33 
			87.3,87.33 91.53,87.33 91.53,89.45 91.53,91.57 87.3,91.57 83.07,91.57 83.07,93.68 83.07,95.8 87.3,95.8 91.53,95.8 
			91.53,97.92 91.53,100.03 87.3,100.03 83.07,100.03 83.07,97.92 83.07,95.8 78.83,95.8 74.6,95.8 74.6,97.92 74.6,100.03 
			70.37,100.03 66.13,100.03 		"/>
	</g>
	<g id="_2620045563648">
		<polygon class="st7" points="78.83,42.57 78.83,40.13 80.95,40.13 83.07,40.13 83.07,42.57 83.07,45 80.95,45 78.83,45 		"/>
	</g>
	<g id="_2620045564224">
		<polygon class="st8" points="78.83,36.53 78.83,32.3 80.95,32.3 83.07,32.3 83.07,30.18 83.07,28.07 85.18,28.07 87.3,28.07 
			87.3,25.95 87.3,23.83 89.42,23.83 91.53,23.83 91.53,21.72 91.53,19.6 93.65,19.6 95.77,19.6 95.77,21.72 95.77,23.83 
			93.65,23.83 91.53,23.83 91.53,25.95 91.53,28.07 89.42,28.07 87.3,28.07 87.3,30.18 87.3,32.3 85.18,32.3 83.07,32.3 
			83.07,36.53 83.07,40.77 80.95,40.77 78.83,40.77 		"/>
	</g>
</g>
</svg>
