<?xml version="1.0" encoding="UTF-8"?>
<!-- Generator: visioncortex VTracer 0.6.3 -->
<svg version="1.1" xmlns="http://www.w3.org/2000/svg" width="200" height="200">
<path d="M0 0 C21.19 15.75 34.47 36.9 39 63 C39.91 78.22 40.25 93.53 35 108 C34.63 109.06 34.25 110.11 33.87 111.2 C29.24 123.18 22.48 133.41 14 143 C13.45 143.64 12.9 144.27 12.33 144.93 C-1.32 159.63 -22.96 169.96 -42.89 171.18 C-73.81 171.81 -97.32 165.43 -120.5 143.88 C-140.29 123.25 -146.55 98.2 -146.28 70.3 C-146.07 61.97 -144.84 54.84 -142 47 C-141.63 45.94 -141.25 44.89 -140.87 43.8 C-136.24 31.82 -129.48 21.59 -121 12 C-120.17 11.05 -120.17 11.05 -119.33 10.07 C-89.21 -22.35 -35.15 -24.89 0 0 Z " fill="#231018" transform="translate(153,22)"/>
<path d="M0 0 C21.19 15.75 34.47 36.9 39 63 C39.91 78.22 40.25 93.53 35 108 C34.63 109.06 34.25 110.11 33.87 111.2 C28.12 126.05 18.91 139.41 7 150 C5.87 151.06 5.87 151.06 4.72 152.13 C-4.19 159.62 -13.75 160.06 -24.95 159.97 C-27.88 159.64 -27.88 159.64 -29 161 C-31.59 161.16 -34.16 161.26 -36.75 161.32 C-37.92 161.35 -37.92 161.35 -39.1 161.38 C-41.59 161.44 -44.08 161.5 -46.56 161.56 C-48.24 161.61 -49.93 161.65 -51.61 161.69 C-55.74 161.8 -59.87 161.9 -64 162 C-62.02 159.03 -62.02 159.03 -60 156 C-59.67 156.66 -59.34 157.32 -59 158 C-58.34 157.67 -57.68 157.34 -57 157 C-54.83 156.96 -52.66 156.99 -50.49 157.04 C-48.52 157.07 -48.52 157.07 -46.5 157.11 C-44.41 157.14 -42.32 157.19 -40.24 157.25 C-29.4 157.72 -29.4 157.72 -20 153 C-17.28 149.54 -15.46 146.14 -14 142 C-13.01 142.99 -12.02 143.98 -11 145 C-11.33 145.62 -11.66 146.24 -12 146.88 C-13.14 148.91 -13.14 148.91 -13 151 C-13.99 151.33 -14.98 151.66 -16 152 C-16.33 152.66 -16.66 153.32 -17 154 C-14.03 154 -11.06 154 -8 154 C-8 153.34 -8 152.68 -8 152 C-6.35 151.67 -4.7 151.34 -3 151 C-3 149.68 -3 148.36 -3 147 C-2.42 146.77 -1.84 146.55 -1.25 146.31 C1.58 144.66 3.03 142.6 5 140 C5.98 138.98 6.97 137.97 8 137 C7.67 136.34 7.34 135.68 7 135 C8.65 134.67 10.3 134.34 12 134 C11.01 133.34 10.02 132.68 9 132 C10 129 10 129 11 128 C10.34 127.67 9.68 127.34 9 127 C10.15 124.53 11.05 122.95 13 121 C14.01 117.87 14.38 115.21 13.38 112 C13 110 13 110 15 107 C15 106.01 15 105.02 15 104 C16.5 102.31 16.5 102.31 18 101 C17.5 100.42 17.01 99.84 16.5 99.25 C15 97 15 97 15 93 C15.33 92.01 15.66 91.02 16 90 C16 89.01 16 88.02 16 87 C15.34 87 14.68 87 14 87 C14.33 85.68 14.66 84.36 15 83 C14.2 82.79 13.39 82.59 12.56 82.38 C11.72 81.92 10.87 81.47 10 81 C9.31 78.06 9.31 78.06 9 75 C8.34 74.01 7.68 73.02 7 72 C5.06 68.74 4.64 66.02 4.38 62.25 C4.26 60.77 4.26 60.77 4.15 59.27 C4.07 58.14 4.07 58.14 4 57 C3.34 57 2.68 57 2 57 C2 58.98 2 60.96 2 63 C1.67 63 1.34 63 1 63 C0.88 62.24 0.75 61.47 0.62 60.69 C0.12 57.8 0.12 57.8 -2 55 C-4.06 54.28 -4.06 54.28 -6 54 C-6 53.34 -6 52.68 -6 52 C-6.66 52 -7.32 52 -8 52 C-10 49 -10 49 -10 45 C-11.32 45.33 -12.64 45.66 -14 46 C-16.61 42.08 -16.14 38.55 -16 34 C-15.92 30.91 -15.92 30.91 -16.56 27.56 C-16.95 24.39 -16.84 22.94 -16 20 C-16.33 19.01 -16.66 18.02 -17 17 C-16.69 15.66 -16.36 14.33 -16 13 C-16.09 10.23 -16.23 7.51 -16.44 4.75 C-16.49 4 -16.54 3.26 -16.6 2.49 C-16.72 0.66 -16.86 -1.17 -17 -3 C-17.99 -3.33 -18.98 -3.66 -20 -4 C-20 -2.02 -20 -0.04 -20 2 C-21.98 2.66 -23.96 3.32 -26 4 C-26 3.34 -26 2.68 -26 2 C-26.99 2 -27.98 2 -29 2 C-29.66 3.65 -30.32 5.3 -31 7 C-31.5 5.52 -31.5 5.52 -32 4 C-32.45 4.66 -32.91 5.32 -33.38 6 C-33.91 6.66 -34.45 7.32 -35 8 C-36.67 8 -38.33 8 -40 8 C-40.27 9.28 -40.54 10.56 -40.81 11.88 C-41.57 15.5 -41.7 15.8 -45 18 C-45 17.01 -45 16.02 -45 15 C-45.66 15 -46.32 15 -47 15 C-47.33 15.99 -47.66 16.98 -48 18 C-48.66 17.67 -49.32 17.34 -50 17 C-50 13 -50 13 -49 10 C-50.65 9.67 -52.3 9.34 -54 9 C-54 8.34 -54 7.68 -54 7 C-55.18 6.88 -55.18 6.88 -56.38 6.75 C-59 6 -59 6 -60.31 4.25 C-61.08 1.72 -61.15 -0.37 -61 -3 C-62.32 -3.33 -63.64 -3.66 -65 -4 C-65 -3.34 -65 -2.68 -65 -2 C-64.01 -1.5 -64.01 -1.5 -63 -1 C-63.5 1.48 -63.5 1.48 -64 4 C-64.66 4 -65.32 4 -66 4 C-66 4.66 -66 5.32 -66 6 C-65.34 6 -64.68 6 -64 6 C-65.75 11.75 -65.75 11.75 -68 14 C-68 13.34 -68 12.68 -68 12 C-68.66 12 -69.32 12 -70 12 C-70.03 12.81 -70.05 13.62 -70.08 14.45 C-70.62 24.62 -70.62 24.62 -75 29 C-75.27 29.83 -75.53 30.67 -75.8 31.53 C-77 34 -77 34 -79.36 35.04 C-80.76 35.33 -80.76 35.33 -82.19 35.62 C-86.77 36.68 -90.75 38.01 -95 40 C-94.89 38.56 -94.76 37.12 -94.62 35.69 C-94.56 34.89 -94.49 34.09 -94.41 33.26 C-94 31 -94 31 -92 28 C-91.34 28 -90.68 28 -90 28 C-89.34 26.35 -88.68 24.7 -88 23 C-87.34 23 -86.68 23 -86 23 C-86.33 21.35 -86.66 19.7 -87 18 C-91.19 21.41 -93.75 24.31 -94.56 29.78 C-94.65 31.16 -94.74 32.55 -94.81 33.94 C-95.08 38.22 -95.43 41.28 -98.19 44.75 C-99.95 46.23 -101.75 47.67 -103.59 49.05 C-108.86 53.3 -110.41 59.65 -112 66 C-114.93 65.37 -117.36 64.41 -120 63 C-120 63.66 -120 64.32 -120 65 C-118.04 66.64 -118.04 66.64 -116 68 C-116.99 68.5 -116.99 68.5 -118 69 C-118 70.32 -118 71.64 -118 73 C-124.44 73.5 -124.44 73.5 -131 74 C-131 74.66 -131 75.32 -131 76 C-129.35 76 -127.7 76 -126 76 C-126.99 76.99 -126.99 76.99 -128 78 C-127.4 78.14 -126.8 78.29 -126.19 78.44 C-124.44 78.89 -122.71 79.43 -121 80 C-123.31 81.65 -125.62 83.3 -128 85 C-127.22 84.48 -126.43 83.97 -125.62 83.44 C-124.76 82.96 -123.89 82.49 -123 82 C-122.34 82.33 -121.68 82.66 -121 83 C-122.21 84.08 -122.21 84.08 -123.44 85.19 C-126.08 88.09 -126.81 89.17 -127 93 C-126.62 95.73 -126.62 95.73 -126 98 C-127.65 97.67 -129.3 97.34 -131 97 C-130.67 98.98 -130.34 100.96 -130 103 C-129.34 103 -128.68 103 -128 103 C-128 102.01 -128 101.02 -128 100 C-126.06 100.37 -126.06 100.37 -124 101 C-123.5 101.99 -123.5 101.99 -123 103 C-123.99 103 -124.98 103 -126 103 C-126 103.66 -126 104.32 -126 105 C-125.01 105 -124.02 105 -123 105 C-122.8 108.72 -122.85 109.77 -125 113 C-124.34 113.33 -123.68 113.66 -123 114 C-123.66 114 -124.32 114 -125 114 C-124.48 114.35 -123.97 114.7 -123.44 115.06 C-122 117 -122 117 -122.31 120.69 C-122.54 121.78 -122.77 122.87 -123 124 C-122.34 124.33 -121.68 124.66 -121 125 C-122.98 125.33 -124.96 125.66 -127 126 C-127 126.66 -127 127.32 -127 128 C-125.52 128.99 -125.52 128.99 -124 130 C-124 130.66 -124 131.32 -124 132 C-122.68 132.66 -121.36 133.32 -120 134 C-120 133.34 -120 132.68 -120 132 C-119.34 132.33 -118.68 132.66 -118 133 C-117.34 133 -116.68 133 -116 133 C-116.55 134.99 -117.11 136.97 -117.66 138.96 C-118.2 141.19 -118.2 141.19 -117 144 C-116.01 144 -115.02 144 -114 144 C-114 144.66 -114 145.32 -114 146 C-114.99 146.33 -115.98 146.66 -117 147 C-132.73 132.64 -144.89 110.59 -146.18 89.02 C-146.72 60 -146.72 60 -142 47 C-141.63 45.94 -141.25 44.89 -140.87 43.8 C-136.24 31.82 -129.48 21.59 -121 12 C-120.17 11.05 -120.17 11.05 -119.33 10.07 C-89.21 -22.35 -35.15 -24.89 0 0 Z " fill="#0E0507" transform="translate(153,22)"/>
<path d="M0 0 C0.66 0 1.32 0 2 0 C1.4 3.68 0.75 7.35 0 11 C2.16 8.97 2.16 8.97 4 6 C7 10.75 7 10.75 7 13 C6.34 13 5.68 13 5 13 C4.34 14.65 3.68 16.3 3 18 C2 16 2 16 2 13 C-0.38 15.9 -0.38 15.9 0.25 19.62 C0.5 20.74 0.75 21.85 1 23 C1.66 23.33 2.32 23.66 3 24 C2.93 24.69 2.86 25.37 2.78 26.08 C2.64 27.43 2.64 27.43 2.5 28.81 C2.36 30.15 2.36 30.15 2.22 31.52 C1.79 36.36 2.64 40.58 3.56 45.31 C4 48 4 48 4 52 C4.99 52.33 5.98 52.66 7 53 C8.22 55.07 8.22 55.07 9.5 57.69 C12.53 62.97 15.71 64.96 21.11 67.57 C24.11 69.05 26.8 70.73 29.56 72.62 C30.37 73.17 31.17 73.72 32 74.29 C34.1 76.09 34.8 77.56 36 80 C37.48 80.5 37.48 80.5 39 81 C39.72 82.98 40.38 84.99 41 87 C42.57 90.4 44.31 93.72 46.09 97.01 C47.42 99.91 47.64 102.85 48 106 C46.35 105.67 44.7 105.34 43 105 C43 105.66 43 106.32 43 107 C43.66 107 44.32 107 45 107 C45 107.66 45 108.32 45 109 C45.99 108.67 46.98 108.34 48 108 C48 111.27 47.7 113.85 47 117 C46.34 117 45.68 117 45 117 C44.67 115.68 44.34 114.36 44 113 C43.34 113 42.68 113 42 113 C41.67 113.66 41.34 114.32 41 115 C39.68 113.02 38.36 111.04 37 109 C35.68 110.65 34.36 112.3 33 114 C33.66 114.33 34.32 114.66 35 115 C34.5 116.49 34.5 116.49 34 118 C31 119 31 119 28 118 C28 119.65 28 121.3 28 123 C26.02 122.5 26.02 122.5 24 122 C23.01 123.98 23.01 123.98 22 126 C21.67 125.34 21.34 124.68 21 124 C19.52 123.5 19.52 123.5 18 123 C18 124.32 18 125.64 18 127 C13.12 126.12 13.12 126.12 12 125 C12 126.32 12 127.64 12 129 C11.34 129.33 10.68 129.66 10 130 C9.67 130.99 9.34 131.98 9 133 C7.56 135.19 7.56 135.19 6 137 C5.34 137 4.68 137 4 137 C4 136.34 4 135.68 4 135 C3.34 135 2.68 135 2 135 C0.88 126.88 0.32 119.6 4.56 112.31 C12.16 105.11 18.57 102.59 28.94 102.64 C33.37 103.16 36.79 104.88 40 108 C40 108.66 40 109.32 40 110 C40.66 109.67 41.32 109.34 42 109 C40.71 108.02 39.42 107.04 38.12 106.06 C37.05 105.24 37.05 105.24 35.95 104.41 C32.1 101.62 28.79 101.85 24.19 101.88 C23.48 101.87 22.76 101.87 22.03 101.86 C18.23 101.87 14.7 102.09 11 103 C13 98.23 13 98.23 15 96 C18.04 94.87 20.78 94.66 24 95 C26.56 96.44 26.56 96.44 28 98 C28.66 97.67 29.32 97.34 30 97 C30.66 97.33 31.32 97.66 32 98 C32 97.34 32 96.68 32 96 C35.96 95.01 35.96 95.01 40 94 C38.69 90.88 38.69 90.88 36 89 C37.48 90.98 37.48 90.98 39 93 C34.05 93.99 34.05 93.99 29 95 C28.67 94.34 28.34 93.68 28 93 C28.66 92.67 29.32 92.34 30 92 C29.34 91.67 28.68 91.34 28 91 C28 90.34 28 89.68 28 89 C31.88 89.88 31.88 89.88 33 91 C33.33 88.69 33.66 86.38 34 84 C33.01 84 32.02 84 31 84 C31 84.66 31 85.32 31 86 C27.56 88.29 26.01 88.18 22 88 C22 87.34 22 86.68 22 86 C21.34 86 20.68 86 20 86 C20.33 87.98 20.66 89.96 21 92 C20.24 91.98 19.47 91.96 18.69 91.94 C15.9 91.87 15.9 91.87 13 93 C12.98 93.83 12.96 94.65 12.94 95.5 C11.26 101.76 7.08 105.79 1.56 109 C-2.56 110.16 -5.74 110.22 -10 110 C-10 111.32 -10 112.64 -10 114 C-9.34 114 -8.68 114 -8 114 C-7.67 113.34 -7.34 112.68 -7 112 C-7 113.32 -7 114.64 -7 116 C-5.02 115.5 -5.02 115.5 -3 115 C-2.34 116.32 -1.68 117.64 -1 119 C-1.99 119.66 -2.98 120.32 -4 121 C-4 121.33 -4 121.66 -4 122 C-3.34 122 -2.68 122 -2 122 C-2 125.63 -2 129.26 -2 133 C-2.66 133 -3.32 133 -4 133 C-4.66 133.99 -5.32 134.98 -6 136 C-8.12 137.19 -8.12 137.19 -10 138 C-10.99 137.01 -10.99 137.01 -12 136 C-12.78 136.21 -13.57 136.41 -14.38 136.62 C-17 137 -17 137 -19.12 135.44 C-23.61 129.6 -24.52 125.06 -24.37 117.78 C-23.9 114.22 -22.55 112.47 -20 110 C-20 109.01 -20 108.02 -20 107 C-23.71 105.15 -27.96 105.53 -32 106 C-33.98 106.84 -33.98 106.84 -35.69 108 C-39.56 110.34 -41.55 110.58 -46 110 C-48.87 108.69 -48.87 108.69 -51 107 C-51.33 106.01 -51.66 105.02 -52 104 C-51.34 104 -50.68 104 -50 104 C-50 104.66 -50 105.32 -50 106 C-45.75 107.36 -41.21 108.01 -37.05 106.11 C-36.39 105.74 -35.74 105.38 -35.06 105 C-28.04 101.2 -20.41 103.04 -13 105 C-12.21 105.36 -11.41 105.72 -10.59 106.09 C-7.38 107.22 -5.05 107 -1.69 106.62 C-0.62 106.51 0.45 106.4 1.55 106.29 C2.36 106.19 3.17 106.1 4 106 C3.34 105.01 2.68 104.02 2 103 C1.01 103.5 1.01 103.5 0 104 C0.5 102.02 0.5 102.02 1 100 C0.34 100 -0.32 100 -1 100 C-1 101.32 -1 102.64 -1 104 C-2.65 103.67 -4.3 103.34 -6 103 C-5.67 102.34 -5.34 101.68 -5 101 C-4.34 101 -3.68 101 -3 101 C-2.67 100.34 -2.34 99.68 -2 99 C-3.65 98.67 -5.3 98.34 -7 98 C-7 99.65 -7 101.3 -7 103 C-7.99 103.5 -7.99 103.5 -9 104 C-9.56 102.06 -9.56 102.06 -10 100 C-9.67 99.67 -9.34 99.34 -9 99 C-9.99 99 -10.98 99 -12 99 C-12.33 98.34 -12.66 97.68 -13 97 C-14.65 97 -16.3 97 -18 97 C-17.67 98.32 -17.34 99.64 -17 101 C-17.99 100.34 -18.98 99.68 -20 99 C-20.99 99.5 -20.99 99.5 -22 100 C-22 99.34 -22 98.68 -22 98 C-28.13 99.72 -33.96 101.71 -39.77 104.33 C-42.29 105.09 -43.56 104.87 -46 104 C-46 103.34 -46 102.68 -46 102 C-42.53 101.5 -42.53 101.5 -39 101 C-39.81 100.96 -40.62 100.93 -41.45 100.89 C-42.52 100.82 -43.59 100.76 -44.69 100.69 C-45.74 100.63 -46.8 100.57 -47.89 100.51 C-51.23 99.96 -53.24 98.91 -56 97 C-55.67 95.68 -55.34 94.36 -55 93 C-54.55 93.66 -54.09 94.32 -53.62 95 C-49.7 97.99 -45.78 97.51 -41 97 C-40.01 96.5 -40.01 96.5 -39 96 C-42.3 96 -45.6 96 -49 96 C-49 95.01 -49 94.02 -49 93 C-49.99 92.34 -50.98 91.68 -52 91 C-52 89.68 -52 88.36 -52 87 C-48.99 84.36 -47.4 83.99 -43.38 84.12 C-38.67 85.34 -38.67 85.34 -37 88 C-37 89.32 -37 90.64 -37 92 C-33.53 91.5 -33.53 91.5 -30 91 C-30 87.7 -30 84.4 -30 81 C-33.18 80.21 -35.56 80.04 -38.88 80.25 C-42.84 80.24 -45.6 79.44 -48.71 76.94 C-52.08 71.88 -50.53 64.86 -49.48 59.21 C-47.46 51.56 -44.33 45.57 -37.81 41 C-34.69 38.49 -34.06 37.3 -33.29 33.29 C-33.09 31.17 -32.94 29.05 -32.8 26.93 C-32.31 21.18 -30.75 18.23 -26.66 14.29 C-25 13 -25 13 -23 12 C-22.63 17.55 -22.63 17.55 -24.44 19.75 C-24.95 20.16 -25.47 20.58 -26 21 C-26.33 21.66 -26.66 22.32 -27 23 C-27.66 23 -28.32 23 -29 23 C-30.42 26.82 -31.24 29.91 -31 34 C-29.87 33.36 -28.73 32.72 -27.56 32.06 C-23.1 29.8 -18.95 29.23 -14 29 C-13.73 28.09 -13.46 27.19 -13.19 26.25 C-12 23 -12 23 -10.5 21.19 C-8.59 18.4 -8.28 16.08 -7.81 12.75 C-7.57 11.13 -7.57 11.13 -7.33 9.48 C-7.22 8.66 -7.11 7.84 -7 7 C-6.01 7 -5.02 7 -4 7 C-2.68 4.69 -1.36 2.38 0 0 Z " fill="#4F3236" transform="translate(90,27)"/>
<path d="M0 0 C0.66 0.33 1.32 0.66 2 1 C2.41 3.43 2.41 3.43 2.62 6.44 C2.7 7.43 2.77 8.41 2.85 9.43 C3.24 16.17 3.24 16.17 2.44 18.93 C1.92 21.38 2.28 22.8 3 25.19 C3.5 27.07 3.5 27.07 4 29 C3.5 29.49 3.5 29.49 3 30 C2.96 32.33 2.96 34.67 3 37 C3.99 37 4.98 37 6 37 C6 38.32 6 39.64 6 41 C6.66 41 7.32 41 8 41 C10 44 10 44 10 48 C11.32 48.33 12.64 48.66 14 49 C14 49.66 14 50.32 14 51 C14.66 51 15.32 51 16 51 C16.5 50.01 16.5 50.01 17 49 C17.66 50.32 18.32 51.64 19 53 C19.99 53 20.98 53 22 53 C22.11 53.61 22.22 54.23 22.33 54.86 C22.49 55.67 22.65 56.48 22.81 57.31 C22.96 58.11 23.11 58.91 23.27 59.74 C24.08 62.26 25.11 63.21 27 65 C27.12 67.44 27.12 67.44 27 70 C27.48 73.29 28.4 74.9 31 77 C32.49 77.5 32.49 77.5 34 78 C34 80 34 82 34 84 C34.66 84 35.32 84 36 84 C35.67 84.93 35.34 85.86 35 86.81 C33.85 89.92 33.85 89.92 34 93 C35.44 95.17 35.44 95.17 37 97 C36.5 97.6 36.01 98.2 35.5 98.81 C33.72 100.97 33.72 100.97 34 104 C33.34 104.99 32.68 105.98 32 107 C32.33 107.99 32.66 108.98 33 110 C33 113.81 32.63 115.65 31 119 C30.01 119.5 30.01 119.5 29 120 C29.33 120.66 29.66 121.32 30 122 C29.67 122.33 29.34 122.66 29 123 C29.66 123.33 30.32 123.66 31 124 C30.5 125.49 30.5 125.49 30 127 C30 127.33 30 127.66 30 128 C30 128.66 30 129.32 30 130 C29.01 130.66 28.02 131.32 27 132 C25.98 132.98 24.98 133.98 24 135 C24.33 135.66 24.66 136.32 25 137 C17.57 141.43 17.57 141.43 14 142 C14 141.01 14 140.02 14 139 C14.66 139 15.32 139 16 139 C16 138.01 16 137.02 16 136 C16.66 135.34 17.32 134.68 18 134 C17.34 134 16.68 134 16 134 C16 133.34 16 132.68 16 132 C17.65 131.67 19.3 131.34 21 131 C21 130.01 21 129.02 21 128 C20.01 128 19.02 128 18 128 C18 127.01 18 126.02 18 125 C16.68 124.67 15.36 124.34 14 124 C14.5 122.51 14.5 122.51 15 121 C15.99 120.67 16.98 120.34 18 120 C18.5 119.32 18.99 118.64 19.5 117.94 C20 117.3 20.49 116.66 21 116 C21.99 116 22.98 116 24 116 C24 115.34 24 114.68 24 114 C21.03 114.99 21.03 114.99 18 116 C18 112.06 19.58 111.01 22 108 C22.96 105.92 22.96 105.92 23 104 C21.07 101.78 21.07 101.78 18 101 C15.44 97.44 15.42 93.23 15 89 C14.34 89.99 13.68 90.98 13 92 C11.83 90.38 10.66 88.75 9.5 87.12 C8.85 86.22 8.2 85.32 7.53 84.38 C6 82 6 82 6 80 C5.08 79.63 5.08 79.63 4.14 79.25 C1.61 77.77 0.94 76.62 -0.31 74 C-0.66 73.3 -1.01 72.6 -1.36 71.88 C-1.57 71.26 -1.78 70.64 -2 70 C-1.67 69.34 -1.34 68.68 -1 68 C3 72.75 3 72.75 3 75 C6.01 75.93 6.87 76.04 10 75 C10.99 75.99 10.99 75.99 12 77 C8.93 72.48 5.52 70.4 0.62 68.25 C-0.02 67.95 -0.67 67.64 -1.34 67.33 C-5.21 65.58 -8.78 64.5 -13 64 C-12.34 64.99 -11.68 65.98 -11 67 C-11.66 67 -12.32 67 -13 67 C-13 67.66 -13 68.32 -13 69 C-11.35 69.33 -9.7 69.66 -8 70 C-7.67 70.99 -7.34 71.98 -7 73 C-4.98 73.73 -4.98 73.73 -3 74 C-2.71 75.13 -2.42 76.27 -2.12 77.44 C-1.75 78.61 -1.38 79.79 -1 81 C-0.01 81.5 -0.01 81.5 1 82 C0.01 82.5 0.01 82.5 -1 83 C0.32 84.32 1.64 85.64 3 87 C2.67 87.66 2.34 88.32 2 89 C-2.88 84.38 -2.88 84.38 -4 81 C-6 79.79 -6 79.79 -8 79 C-8 78.01 -8 77.02 -8 76 C-8.8 75.6 -8.8 75.6 -9.62 75.19 C-10.41 74.8 -11.19 74.4 -12 74 C-13.05 73.53 -14.1 73.05 -15.19 72.56 C-18 71 -18 71 -19 68 C-19.52 67.5 -20.03 67.01 -20.56 66.5 C-22 65 -22 65 -22 62 C-22.66 62 -23.32 62 -24 62 C-24.5 60.52 -24.5 60.52 -25 59 C-25.99 58.34 -26.98 57.68 -28 57 C-30.43 52.13 -31.92 47.33 -33 42 C-32.67 41.34 -32.34 40.68 -32 40 C-32.66 40 -33.32 40 -34 40 C-34.25 33.38 -34.25 33.38 -32 30 C-31.34 30.33 -30.68 30.66 -30 31 C-30 30.01 -30 29.02 -30 28 C-29.34 28 -28.68 28 -28 28 C-28.33 26.02 -28.66 24.04 -29 22 C-28.01 22 -27.02 22 -26 22 C-25.71 21.38 -25.42 20.76 -25.12 20.12 C-24 18 -24 18 -22 16 C-21.33 14.03 -21.33 14.03 -20.88 11.88 C-20.59 10.6 -20.3 9.32 -20 8 C-19.34 8 -18.68 8 -18 8 C-17.67 7.01 -17.34 6.02 -17 5 C-15.02 4.67 -13.04 4.34 -11 4 C-10.67 5.98 -10.34 7.96 -10 10 C-9.34 10 -8.68 10 -8 10 C-7.67 8.68 -7.34 7.36 -7 6 C-6.01 6.33 -5.02 6.66 -4 7 C-4 7.66 -4 8.32 -4 9 C-2.68 8.34 -1.36 7.68 0 7 C-0.99 6.67 -1.98 6.34 -3 6 C-3 5.34 -3 4.68 -3 4 C-2.01 3.34 -1.02 2.68 0 2 C0 1.34 0 0.68 0 0 Z " fill="#57282A" transform="translate(135,26)"/>
<path d="M0 0 C6 0 6 0 8.38 1.06 C12.22 2.44 15 1.73 19 1 C19.33 0.67 19.66 0.34 20 0 C21.67 -0.04 23.33 -0.04 25 0 C25 0.66 25 1.32 25 2 C28.01 2.93 28.87 3.04 32 2 C32 3.32 32 4.64 32 6 C32.66 6 33.32 6 34 6 C34 4.35 34 2.7 34 1 C35.71 2.28 37.37 3.62 39 5 C39 5.66 39 6.32 39 7 C38.34 7.66 37.68 8.32 37 9 C36.67 9.66 36.34 10.32 36 11 C35.34 10.67 34.68 10.34 34 10 C34.5 11.48 34.5 11.48 35 13 C34.01 13 33.02 13 32 13 C32.5 14.98 32.5 14.98 33 17 C33.66 17 34.32 17 35 17 C35 18.98 35 20.96 35 23 C36.32 23.33 37.64 23.66 39 24 C35.57 27.84 33.07 29.91 28 31 C25.31 31.14 22.7 31.09 20 31 C20 32.32 20 33.64 20 35 C20.66 35 21.32 35 22 35 C22.5 34.01 22.5 34.01 23 33 C23 34.32 23 35.64 23 37 C24.98 36.5 24.98 36.5 27 36 C27.66 37.32 28.32 38.64 29 40 C28.01 40.66 27.02 41.32 26 42 C26 42.33 26 42.66 26 43 C26.66 43 27.32 43 28 43 C28 46.63 28 50.26 28 54 C27.34 54 26.68 54 26 54 C25.34 54.99 24.68 55.98 24 57 C21.88 58.19 21.88 58.19 20 59 C19.34 58.34 18.68 57.68 18 57 C17.22 57.21 16.43 57.41 15.62 57.62 C13 58 13 58 10.88 56.44 C6.39 50.6 5.48 46.06 5.63 38.78 C6.1 35.22 7.45 33.47 10 31 C10 30.01 10 29.02 10 28 C6.29 26.15 2.04 26.53 -2 27 C-3.98 27.84 -3.98 27.84 -5.69 29 C-9.56 31.34 -11.55 31.58 -16 31 C-18.88 29.69 -18.88 29.69 -21 28 C-21.33 27.01 -21.66 26.02 -22 25 C-21.34 25 -20.68 25 -20 25 C-20 25.66 -20 26.32 -20 27 C-15.75 28.36 -11.21 29.01 -7.05 27.11 C-6.39 26.74 -5.74 26.38 -5.06 26 C1.96 22.2 9.59 24.04 17 26 C17.79 26.36 18.59 26.72 19.41 27.09 C22.62 28.22 24.95 28 28.31 27.62 C29.38 27.51 30.45 27.4 31.55 27.29 C32.76 27.15 32.76 27.15 34 27 C33.34 26.01 32.68 25.02 32 24 C31.01 24.5 31.01 24.5 30 25 C30.33 23.68 30.66 22.36 31 21 C30.34 21 29.68 21 29 21 C29 22.32 29 23.64 29 25 C27.35 24.67 25.7 24.34 24 24 C24.33 23.34 24.66 22.68 25 22 C25.66 22 26.32 22 27 22 C27.33 21.34 27.66 20.68 28 20 C26.35 19.67 24.7 19.34 23 19 C23 20.65 23 22.3 23 24 C22.01 24.5 22.01 24.5 21 25 C20.44 23.06 20.44 23.06 20 21 C20.5 20.5 20.5 20.5 21 20 C20.01 20 19.02 20 18 20 C17.5 19.01 17.5 19.01 17 18 C15.35 18 13.7 18 12 18 C12.5 19.98 12.5 19.98 13 22 C12.01 21.34 11.02 20.68 10 20 C9.01 20.5 9.01 20.5 8 21 C8 20.34 8 19.68 8 19 C1.87 20.72 -3.96 22.71 -9.77 25.33 C-12.29 26.09 -13.56 25.87 -16 25 C-16 24.34 -16 23.68 -16 23 C-12.53 22.5 -12.53 22.5 -9 22 C-9.81 21.96 -10.62 21.93 -11.45 21.89 C-13.05 21.79 -13.05 21.79 -14.69 21.69 C-15.74 21.63 -16.8 21.57 -17.89 21.51 C-21.23 20.96 -23.24 19.91 -26 18 C-25.67 16.68 -25.34 15.36 -25 14 C-24.55 14.66 -24.09 15.32 -23.62 16 C-19.7 18.99 -15.78 18.51 -11 18 C-10.34 17.67 -9.68 17.34 -9 17 C-12.3 17 -15.6 17 -19 17 C-19 16.01 -19 15.02 -19 14 C-19.99 13.34 -20.98 12.68 -22 12 C-22 10.68 -22 9.36 -22 8 C-18.99 5.36 -17.4 4.99 -13.38 5.12 C-8.67 6.34 -8.67 6.34 -7 9 C-7 10.32 -7 11.64 -7 13 C-3.53 12.5 -3.53 12.5 0 12 C0 8.04 0 4.08 0 0 Z " fill="#602B24" transform="translate(60,106)"/>
<path d="M0 0 C0.66 0.33 1.32 0.66 2 1 C2.41 3.43 2.41 3.43 2.62 6.44 C2.7 7.43 2.77 8.41 2.85 9.43 C3.24 16.17 3.24 16.17 2.44 18.93 C1.92 21.38 2.28 22.8 3 25.19 C3.5 27.07 3.5 27.07 4 29 C3.5 29.49 3.5 29.49 3 30 C2.96 32.33 2.96 34.67 3 37 C3.99 37 4.98 37 6 37 C6 38.32 6 39.64 6 41 C6.66 41 7.32 41 8 41 C10 44 10 44 10 48 C11.32 48.33 12.64 48.66 14 49 C14 49.66 14 50.32 14 51 C14.66 51 15.32 51 16 51 C16.5 50.01 16.5 50.01 17 49 C17.66 50.32 18.32 51.64 19 53 C19.99 53 20.98 53 22 53 C22.11 53.61 22.22 54.23 22.33 54.86 C22.49 55.67 22.65 56.48 22.81 57.31 C22.96 58.11 23.11 58.91 23.27 59.74 C24.08 62.26 25.11 63.21 27 65 C27.12 67.44 27.12 67.44 27 70 C27.48 73.29 28.4 74.9 31 77 C32.49 77.5 32.49 77.5 34 78 C34 80 34 82 34 84 C34.66 84 35.32 84 36 84 C35.67 84.93 35.34 85.86 35 86.81 C33.85 89.92 33.85 89.92 34 93 C35.44 95.17 35.44 95.17 37 97 C36.5 97.6 36.01 98.2 35.5 98.81 C33.72 100.97 33.72 100.97 34 104 C33.34 104.99 32.68 105.98 32 107 C32.33 107.99 32.66 108.98 33 110 C32.81 112.06 32.81 112.06 32 114 C29.94 115.25 29.94 115.25 28 116 C27.04 110.44 27.05 107.37 29 102 C28.64 100.07 28.64 100.07 28 98 C27.9 95.33 27.96 92.68 28 90 C27.75 90.64 27.5 91.28 27.25 91.94 C26 94 26 94 23.88 94.75 C23.26 94.83 22.64 94.92 22 95 C22.31 93.12 22.31 93.12 23 91 C23.99 90.34 24.98 89.68 26 89 C26.74 85.43 26.74 85.43 27 82 C26.01 81.67 25.02 81.34 24 81 C24.33 80.67 24.66 80.34 25 80 C24.77 74.02 23.17 72.07 19 68 C18.69 65.19 18.69 65.19 19 63 C18.34 63 17.68 63 17 63 C16.67 61.35 16.34 59.7 16 58 C15.01 58 14.02 58 13 58 C12.34 57.01 11.68 56.02 11 55 C10.01 54.67 9.02 54.34 8 54 C7.34 53.01 6.68 52.02 6 51 C5.34 51.99 4.68 52.98 4 54 C1.53 52.85 -0.05 51.95 -2 50 C-3.49 49.5 -3.49 49.5 -5 49 C-4.67 48.34 -4.34 47.68 -4 47 C-2.68 47 -1.36 47 0 47 C-0.5 45.02 -0.5 45.02 -1 43 C-1.66 43 -2.32 43 -3 43 C-4.82 36.85 -5.24 31.4 -5 25 C-6.98 25.99 -6.98 25.99 -9 27 C-9.66 25.02 -10.32 23.04 -11 21 C-11.66 21.66 -12.32 22.32 -13 23 C-13.33 21.02 -13.66 19.04 -14 17 C-14.66 17.66 -15.32 18.32 -16 19 C-16.33 18.34 -16.66 17.68 -17 17 C-18.32 17 -19.64 17 -21 17 C-21 19.31 -21 21.62 -21 24 C-21.99 24 -22.98 24 -24 24 C-23.67 26.64 -23.34 29.28 -23 32 C-23.99 32 -24.98 32 -26 32 C-25.65 32.91 -25.3 33.81 -24.94 34.75 C-23.98 38.08 -24.16 38.86 -25 42 C-24.14 44.22 -24.14 44.22 -23 46 C-23.99 46.99 -24.98 47.98 -26 49 C-25.63 49.53 -25.25 50.06 -24.87 50.61 C-24.4 51.32 -23.92 52.02 -23.44 52.75 C-22.96 53.45 -22.49 54.14 -22 54.86 C-21 57 -21 57 -21.35 59.27 C-21.67 60.12 -21.67 60.12 -22 61 C-21.01 61.33 -20.02 61.66 -19 62 C-19.99 62.5 -19.99 62.5 -21 63 C-21.99 62.67 -22.98 62.34 -24 62 C-24.5 60.52 -24.5 60.52 -25 59 C-25.99 58.34 -26.98 57.68 -28 57 C-30.43 52.13 -31.92 47.33 -33 42 C-32.67 41.34 -32.34 40.68 -32 40 C-32.66 40 -33.32 40 -34 40 C-34.25 33.38 -34.25 33.38 -32 30 C-31.34 30.33 -30.68 30.66 -30 31 C-30 30.01 -30 29.02 -30 28 C-29.34 28 -28.68 28 -28 28 C-28.33 26.02 -28.66 24.04 -29 22 C-28.01 22 -27.02 22 -26 22 C-25.71 21.38 -25.42 20.76 -25.12 20.12 C-24 18 -24 18 -22 16 C-21.33 14.03 -21.33 14.03 -20.88 11.88 C-20.59 10.6 -20.3 9.32 -20 8 C-19.34 8 -18.68 8 -18 8 C-17.67 7.01 -17.34 6.02 -17 5 C-15.02 4.67 -13.04 4.34 -11 4 C-10.67 5.98 -10.34 7.96 -10 10 C-9.34 10 -8.68 10 -8 10 C-7.67 8.68 -7.34 7.36 -7 6 C-6.01 6.33 -5.02 6.66 -4 7 C-4 7.66 -4 8.32 -4 9 C-2.68 8.34 -1.36 7.68 0 7 C-0.99 6.67 -1.98 6.34 -3 6 C-3 5.34 -3 4.68 -3 4 C-2.01 3.34 -1.02 2.68 0 2 C0 1.34 0 0.68 0 0 Z " fill="#90A5AC" transform="translate(135,26)"/>
<path d="M0 0 C0.66 0 1.32 0 2 0 C1.4 3.68 0.75 7.35 0 11 C2.16 8.97 2.16 8.97 4 6 C7 10.75 7 10.75 7 13 C6.34 13 5.68 13 5 13 C4.34 14.65 3.68 16.3 3 18 C2 16 2 16 2 13 C-0.38 15.9 -0.38 15.9 0.25 19.62 C0.5 20.74 0.75 21.85 1 23 C1.66 23.33 2.32 23.66 3 24 C2.93 24.69 2.86 25.37 2.78 26.08 C2.64 27.43 2.64 27.43 2.5 28.81 C2.36 30.15 2.36 30.15 2.22 31.52 C1.79 36.36 2.64 40.58 3.56 45.31 C4 48 4 48 4 52 C4.99 52.33 5.98 52.66 7 53 C8.32 55.11 8.32 55.11 9.69 57.75 C12.31 62.37 14.76 64.67 19.46 67.06 C20.22 67.53 20.22 67.53 21 68 C21 68.66 21 69.32 21 70 C19.35 70.33 17.7 70.66 16 71 C15.9 70.36 15.79 69.72 15.69 69.06 C15.46 68.38 15.23 67.7 15 67 C13.52 66.5 13.52 66.5 12 66 C11.34 65.01 10.68 64.02 10 63 C9.34 63 8.68 63 8 63 C8.5 64.48 8.5 64.48 9 66 C8.67 66.66 8.34 67.32 8 68 C7.34 68 6.68 68 6 68 C6 68.66 6 69.32 6 70 C5.01 69.67 4.02 69.34 3 69 C3.37 68.26 3.74 67.52 4.12 66.75 C5.3 64.12 5.3 64.12 4.19 62.19 C3.8 61.47 3.4 60.74 3 60 C2.77 58.17 2.54 56.34 2.35 54.5 C1.62 49.27 0.24 44.14 -1 39 C-1.99 39.66 -2.98 40.32 -4 41 C-3 39 -2 37 -1 35 C-0.88 33.21 -0.82 31.42 -0.81 29.62 C-0.8 28.67 -0.78 27.71 -0.77 26.73 C-1 23.97 -1.59 22.35 -3 20 C-5.76 23.96 -6.53 27.22 -7 32 C-7.99 31.01 -8.98 30.02 -10 29 C-10.99 29.99 -11.98 30.98 -13 32 C-13.99 31.67 -14.98 31.34 -16 31 C-16.66 32.65 -17.32 34.3 -18 36 C-18.99 36 -19.98 36 -21 36 C-21 35.67 -21 35.34 -21 35 C-21.12 36.28 -21.25 37.56 -21.38 38.88 C-21.75 42.75 -21.75 42.75 -24 45 C-24.99 45 -25.98 45 -27 45 C-27 45.66 -27 46.32 -27 47 C-25.91 46.98 -24.81 46.96 -23.69 46.94 C-20 47 -20 47 -17 48 C-17.33 48.99 -17.66 49.98 -18 51 C-18.66 50.67 -19.32 50.34 -20 50 C-23.49 49.7 -25.38 49.61 -28.38 51.5 C-28.91 52 -29.45 52.49 -30 53 C-30.66 52.01 -31.32 51.02 -32 50 C-34.21 50.88 -34.21 50.88 -35.38 53.31 C-36.99 55.98 -38.73 57.88 -41 60 C-40.34 60 -39.68 60 -39 60 C-38.67 60.99 -38.34 61.98 -38 63 C-38.99 63.99 -39.98 64.98 -41 66 C-41.33 65.01 -41.66 64.02 -42 63 C-42.66 63 -43.32 63 -44 63 C-44.12 64.3 -44.25 65.6 -44.38 66.94 C-44.59 69.15 -44.59 69.15 -45 71 C-45.99 71.5 -45.99 71.5 -47 72 C-47 72.99 -47 73.98 -47 75 C-43.1 77.6 -39.53 77.15 -35 77 C-34.5 76.01 -34.5 76.01 -34 75 C-35.65 75 -37.3 75 -39 75 C-39 74.01 -39 73.02 -39 72 C-39.66 71.67 -40.32 71.34 -41 71 C-40.34 69.68 -39.68 68.36 -39 67 C-38.01 67.33 -37.02 67.66 -36 68 C-36 68.66 -36 69.32 -36 70 C-34.02 70 -32.04 70 -30 70 C-30.33 70.66 -30.66 71.32 -31 72 C-29.02 72.99 -27.04 73.98 -25 75 C-30.69 78.79 -36.11 81.33 -43 80 C-46.18 78.97 -48.13 77.81 -50 75 C-51.92 64.76 -49.11 54.45 -43.53 45.83 C-41.82 43.79 -39.99 42.53 -37.81 41 C-34.69 38.49 -34.06 37.3 -33.29 33.29 C-33.09 31.17 -32.94 29.05 -32.8 26.93 C-32.31 21.18 -30.75 18.23 -26.66 14.29 C-25 13 -25 13 -23 12 C-22.63 17.55 -22.63 17.55 -24.44 19.75 C-24.95 20.16 -25.47 20.58 -26 21 C-26.33 21.66 -26.66 22.32 -27 23 C-27.66 23 -28.32 23 -29 23 C-30.42 26.82 -31.24 29.91 -31 34 C-29.87 33.36 -28.73 32.72 -27.56 32.06 C-23.1 29.8 -18.95 29.23 -14 29 C-13.73 28.09 -13.46 27.19 -13.19 26.25 C-12 23 -12 23 -10.5 21.19 C-8.59 18.4 -8.28 16.08 -7.81 12.75 C-7.57 11.13 -7.57 11.13 -7.33 9.48 C-7.22 8.66 -7.11 7.84 -7 7 C-6.01 7 -5.02 7 -4 7 C-2.68 4.69 -1.36 2.38 0 0 Z " fill="#A27755" transform="translate(90,27)"/>
<path d="M0 0 C0.66 0.99 1.32 1.98 2 3 C2.66 2.34 3.32 1.68 4 1 C5 2 5 2 5.06 4.38 C5.04 5.24 5.02 6.11 5 7 C5 7.99 5 8.98 5 10 C5.66 10 6.32 10 7 10 C6.67 11.32 6.34 12.64 6 14 C6.66 14 7.32 14 8 14 C8.33 14.66 8.66 15.32 9 16 C9.66 16.33 10.32 16.66 11 17 C10.66 18.14 10.66 18.14 10.31 19.31 C10.16 20.64 10.16 20.64 10 22 C10.5 22.47 10.99 22.95 11.5 23.44 C12 23.95 12.49 24.47 13 25 C12.62 27.94 12.62 27.94 12 31 C12.19 31.74 12.37 32.48 12.56 33.25 C12.71 33.83 12.85 34.41 13 35 C12.34 35.66 11.68 36.32 11 37 C12.07 36.81 13.15 36.63 14.25 36.44 C17.46 36.06 19.05 36.02 22 37 C22.66 37 23.32 37 24 37 C23.67 36.01 23.34 35.02 23 34 C23.66 34 24.32 34 25 34 C25 35.65 25 37.3 25 39 C25.62 39.08 26.24 39.16 26.88 39.25 C29 40 29 40 30.25 42.06 C30.5 42.7 30.75 43.34 31 44 C31.5 43.01 31.5 43.01 32 42 C33.94 42.31 33.94 42.31 36 43 C36.33 43.99 36.66 44.98 37 46 C36.01 46.99 35.02 47.98 34 49 C34.33 49.99 34.66 50.98 35 52 C33.68 51.67 32.36 51.34 31 51 C31.5 53.47 31.5 53.47 32 56 C32.99 55.67 33.98 55.34 35 55 C35.5 57.47 35.5 57.47 36 60 C36.66 60 37.32 60 38 60 C38 60.66 38 61.32 38 62 C37.34 62 36.68 62 36 62 C36 62.66 36 63.32 36 64 C35.34 64 34.68 64 34 64 C33.67 65.98 33.34 67.96 33 70 C33.66 70 34.32 70 35 70 C35 69.34 35 68.68 35 68 C35.99 68 36.98 68 38 68 C38 68.66 38 69.32 38 70 C37.34 70 36.68 70 36 70 C35.91 71.18 35.91 71.18 35.81 72.38 C35 75 35 75 32.69 76.44 C30 77 30 77 27.75 76.5 C25.22 74.33 25.4 72.23 25 69 C24.34 68.01 23.68 67.02 23 66 C21.06 62.74 20.64 60.02 20.38 56.25 C20.3 55.27 20.23 54.28 20.15 53.27 C20.1 52.52 20.05 51.77 20 51 C19.34 51 18.68 51 18 51 C18 52.98 18 54.96 18 57 C17.67 57 17.34 57 17 57 C16.88 56.24 16.75 55.47 16.62 54.69 C16.12 51.8 16.12 51.8 14 49 C11.94 48.28 11.94 48.28 10 48 C10 47.34 10 46.68 10 46 C9.34 46 8.68 46 8 46 C6 43 6 43 6 39 C4.02 39.5 4.02 39.5 2 40 C-0.61 36.08 -0.14 32.55 0 28 C0.08 24.91 0.08 24.91 -0.56 21.56 C-0.95 18.39 -0.84 16.94 0 14 C-0.33 13.01 -0.66 12.02 -1 11 C-0.67 9.67 -0.33 8.33 0 7 C0.04 4.67 0.04 2.33 0 0 Z " fill="#1B131C" transform="translate(137,28)"/>
<path d="M0 0 C1.94 0.5 1.94 0.5 4 2 C4.82 4.65 5.16 7.23 5 10 C4.34 10.99 3.68 11.98 3 13 C2.01 13 1.02 13 0 13 C0 13.66 0 14.32 0 15 C1.32 15.33 2.64 15.66 4 16 C3.34 16.66 2.68 17.32 2 18 C1.01 18 0.02 18 -1 18 C-1 17.34 -1 16.68 -1 16 C-1.99 16 -2.98 16 -4 16 C-4.5 17.48 -4.5 17.48 -5 19 C-5.66 19 -6.32 19 -7 19 C-7.66 17.35 -8.32 15.7 -9 14 C-11.47 14.34 -11.47 14.34 -14 15 C-14.33 15.66 -14.66 16.32 -15 17 C-15.66 17 -16.32 17 -17 17 C-17.12 18.28 -17.25 19.56 -17.38 20.88 C-17.75 24.75 -17.75 24.75 -20 27 C-20.22 28.24 -20.22 28.24 -20.44 29.5 C-21 32 -21 32 -24 34 C-24.33 33.34 -24.66 32.68 -25 32 C-25 33.65 -25 35.3 -25 37 C-25.66 37 -26.32 37 -27 37 C-26.67 38.65 -26.34 40.3 -26 42 C-27.48 41.51 -27.48 41.51 -29 41 C-29.66 43.64 -30.32 46.28 -31 49 C-30.34 49 -29.68 49 -29 49 C-28 56.63 -28 56.63 -28 60 C-29.65 59.67 -31.3 59.34 -33 59 C-33 58.34 -33 57.68 -33 57 C-32.01 56.5 -32.01 56.5 -31 56 C-31.99 55.67 -32.98 55.34 -34 55 C-34.33 55.99 -34.66 56.98 -35 58 C-35.66 58 -36.32 58 -37 58 C-37.33 59.32 -37.66 60.64 -38 62 C-39.75 56.76 -40.19 52.53 -40 47 C-40.66 46.67 -41.32 46.34 -42 46 C-41.67 45.34 -41.34 44.68 -41 44 C-39.69 37.38 -39.69 37.38 -41.5 31.12 C-42 30.42 -42.49 29.72 -43 29 C-42.84 26.28 -42.25 25.28 -40.44 23.25 C-39.96 22.84 -39.49 22.42 -39 22 C-39 23.65 -39 25.3 -39 27 C-38.34 25.68 -37.68 24.36 -37 23 C-36.34 23 -35.68 23 -35 23 C-35.99 21.02 -36.98 19.04 -38 17 C-39.48 19.48 -39.48 19.48 -41 22 C-41.66 21.67 -42.32 21.34 -43 21 C-42.33 17.19 -41.27 13.65 -40 10 C-41.65 10.33 -43.3 10.66 -45 11 C-45 10.34 -45 9.68 -45 9 C-44.34 9 -43.68 9 -43 9 C-42.92 5.96 -43.02 3.93 -44 1 C-42.09 1.22 -42.09 1.22 -40 2 C-38.98 4.29 -38.49 6.54 -37.91 8.97 C-37.61 9.64 -37.31 10.31 -37 11 C-34.98 11.85 -34.98 11.85 -33 12 C-33 12.66 -33 13.32 -33 14 C-31.02 14 -29.04 14 -27 14 C-27.19 14.62 -27.37 15.24 -27.56 15.88 C-28.24 18.04 -28.24 18.04 -27 20 C-27.66 20 -28.32 20 -29 20 C-28.34 20.66 -27.68 21.32 -27 22 C-26.67 21.34 -26.34 20.68 -26 20 C-25.07 19.88 -25.07 19.88 -24.12 19.75 C-23.42 19.5 -22.72 19.25 -22 19 C-21.55 18.03 -21.09 17.06 -20.62 16.06 C-19 13 -19 13 -16 11.81 C-14.52 11.41 -14.52 11.41 -13 11 C-11.16 9.5 -11.16 9.5 -10 8 C-10 8.99 -10 9.98 -10 11 C-9.66 10.04 -9.66 10.04 -9.31 9.06 C-8 7 -8 7 -5.38 6.25 C-4.59 6.17 -3.81 6.09 -3 6 C-3 6.66 -3 7.32 -3 8 C-1.68 7.67 -0.36 7.34 1 7 C0.5 3.54 0.5 3.54 0 0 Z " fill="#18182C" transform="translate(132,17)"/>
<path d="M0 0 C0.66 -0.33 1.32 -0.66 2 -1 C2.33 0.65 2.66 2.3 3 4 C3.66 3.67 4.32 3.34 5 3 C5.66 4.98 6.32 6.96 7 9 C8.32 8.34 9.64 7.68 11 7 C10.99 7.79 10.98 8.57 10.96 9.38 C10.92 15.04 10.99 20.43 12 26 C12.66 26 13.32 26 14 26 C14.33 25.34 14.66 24.68 15 24 C15 25.98 15 27.96 15 30 C13.02 30.99 13.02 30.99 11 32 C11.62 32.12 12.24 32.25 12.88 32.38 C15 33 15 33 17 35 C17.66 35.33 18.32 35.66 19 36 C19.66 35.01 20.32 34.02 21 33 C21.25 33.64 21.5 34.28 21.75 34.94 C22.8 37.2 22.8 37.2 25.06 37.56 C25.7 37.71 26.34 37.85 27 38 C27.33 38.99 27.66 39.98 28 41 C28.99 41 29.98 41 31 41 C31.5 43.47 31.5 43.47 32 46 C32.66 46 33.32 46 34 46 C34.66 48.97 35.32 51.94 36 55 C34.68 54.01 33.36 53.02 32 52 C31.01 52.5 31.01 52.5 30 53 C29.5 50.03 29.5 50.03 29 47 C28.34 47.99 27.68 48.98 27 50 C26 49 26 49 25.94 45.44 C25.96 44.3 25.98 43.17 26 42 C24.02 42.5 24.02 42.5 22 43 C21.34 41.35 20.68 39.7 20 38 C19.34 38 18.68 38 18 38 C18.16 38.76 18.33 39.53 18.5 40.31 C19 43 19 43 19 46 C16.36 43.36 13.72 40.72 11 38 C11 38.66 11 39.32 11 40 C8.36 39.34 5.72 38.68 3 38 C4.32 37.34 5.64 36.68 7 36 C6.34 34.02 5.68 32.04 5 30 C1.22 29.7 1.22 29.7 -1 31 C-1.66 30.67 -2.32 30.34 -3 30 C-3 29.01 -3 28.02 -3 27 C-2.34 26.67 -1.68 26.34 -1 26 C-4.3 25.67 -7.6 25.34 -11 25 C-11 21.67 -11 18.33 -11 15 C-10.34 14.67 -9.68 14.34 -9 14 C-9 11.69 -9 9.38 -9 7 C-8.01 7 -7.02 7 -6 7 C-6 4.69 -6 2.38 -6 0 C-3.48 -1.26 -2.65 -0.66 0 0 Z " fill="#676C84" transform="translate(120,43)"/>
<path d="M0 0 C5.11 0 6.72 0.1 11 2 C11.66 2 12.32 2 13 2 C12.67 4.31 12.34 6.62 12 9 C13.57 8.93 13.57 8.93 15.18 8.86 C16.55 8.82 17.93 8.79 19.31 8.75 C20 8.72 20.69 8.68 21.4 8.65 C23.43 8.61 23.43 8.61 27 9 C28.98 11.02 28.98 11.02 30 13 C29.01 13.33 28.02 13.66 27 14 C26.34 13.67 25.68 13.34 25 13 C25 14.65 25 16.3 25 18 C22.09 19.26 20.2 20 17 20 C17 19.34 17 18.68 17 18 C15.35 18 13.7 18 12 18 C12.5 19.98 12.5 19.98 13 22 C12.01 21.34 11.02 20.68 10 20 C9.01 20.5 9.01 20.5 8 21 C8 20.34 8 19.68 8 19 C1.87 20.72 -3.96 22.71 -9.77 25.33 C-12.29 26.09 -13.56 25.87 -16 25 C-16 24.34 -16 23.68 -16 23 C-12.53 22.5 -12.53 22.5 -9 22 C-9.81 21.96 -10.62 21.93 -11.45 21.89 C-13.05 21.79 -13.05 21.79 -14.69 21.69 C-15.74 21.63 -16.8 21.57 -17.89 21.51 C-21.23 20.96 -23.24 19.91 -26 18 C-25.67 16.68 -25.34 15.36 -25 14 C-24.55 14.66 -24.09 15.32 -23.62 16 C-19.7 18.99 -15.78 18.51 -11 18 C-10.34 17.67 -9.68 17.34 -9 17 C-12.3 17 -15.6 17 -19 17 C-19 16.01 -19 15.02 -19 14 C-19.99 13.34 -20.98 12.68 -22 12 C-22 10.68 -22 9.36 -22 8 C-18.99 5.36 -17.4 4.99 -13.38 5.12 C-8.67 6.34 -8.67 6.34 -7 9 C-7 10.32 -7 11.64 -7 13 C-3.53 12.5 -3.53 12.5 0 12 C0 8.04 0 4.08 0 0 Z " fill="#764536" transform="translate(60,106)"/>
<path d="M0 0 C2.92 1.31 4.76 2.76 7 5 C7.66 5 8.32 5 9 5 C9.5 6.98 9.5 6.98 10 9 C10.66 9 11.32 9 12 9 C12 8.34 12 7.68 12 7 C12.66 7 13.32 7 14 7 C14.97 10.77 14.81 13.23 14 17 C13.96 19.33 13.95 21.67 14 24 C13.34 24 12.68 24 12 24 C11.01 20.7 10.02 17.4 9 14 C8.34 14 7.68 14 7 14 C7 14.66 7 15.32 7 16 C5.68 15.34 4.36 14.68 3 14 C3.99 13.67 4.98 13.34 6 13 C6 12.01 6 11.02 6 10 C4.35 11.65 2.7 13.3 1 15 C4.8 17.2 4.8 17.2 9 18 C9 20.64 9 23.28 9 26 C8.34 26 7.68 26 7 26 C7 24.35 7 22.7 7 21 C6.34 21 5.68 21 5 21 C5 22.98 5 24.96 5 27 C4.01 27.5 4.01 27.5 3 28 C3 26.02 3 24.04 3 22 C2.22 22.19 1.43 22.37 0.62 22.56 C-2 23 -2 23 -4 22 C-4.33 22.66 -4.66 23.32 -5 24 C-4.67 24.33 -4.34 24.66 -4 25 C-4 25.99 -4 26.98 -4 28 C-4.99 27.67 -5.98 27.34 -7 27 C-7 28.32 -7 29.64 -7 31 C-7.66 31 -8.32 31 -9 31 C-10.62 29 -10.62 29 -12 27 C-13.15 28.93 -13.15 28.93 -13 31 C-13.66 31 -14.32 31 -15 31 C-14.67 31.99 -14.34 32.98 -14 34 C-16.81 34.19 -16.81 34.19 -20 34 C-21.02 33.02 -22.02 32.02 -23 31 C-25.02 31.34 -25.02 31.34 -27 32 C-27.99 31.67 -28.98 31.34 -30 31 C-29.71 30.44 -29.42 29.89 -29.12 29.31 C-27.96 26.91 -26.98 24.48 -26 22 C-25.67 21.34 -25.34 20.68 -25 20 C-24.67 19.01 -24.34 18.02 -24 17 C-23.67 16.01 -23.34 15.02 -23 14 C-22.01 15.32 -21.02 16.64 -20 18 C-17.83 17.17 -17.83 17.17 -17 15 C-15.35 15.33 -13.7 15.66 -12 16 C-11.67 15.34 -11.34 14.68 -11 14 C-10.01 13.67 -9.02 13.34 -8 13 C-7.67 12.01 -7.34 11.02 -7 10 C-5.55 9.81 -5.55 9.81 -4.06 9.62 C-3.05 9.42 -2.04 9.21 -1 9 C-0.67 8.34 -0.34 7.68 0 7 C-0.99 7.33 -1.98 7.66 -3 8 C-2.69 7.24 -2.38 6.47 -2.06 5.69 C-1.32 3.81 -0.64 1.91 0 0 Z " fill="#3E1D22" transform="translate(125,135)"/>
<path d="M0 0 C1.48 0.11 2.96 0.24 4.44 0.38 C5.26 0.44 6.08 0.51 6.93 0.59 C7.96 0.79 7.96 0.79 9 1 C9.33 1.66 9.66 2.32 10 3 C9.01 3 8.02 3 7 3 C7 3.99 7 4.98 7 6 C8.68 5.44 10.35 4.87 12 4.25 C14 4 14 4 15.69 5 C17.55 7.84 17.57 10.67 18 14 C18.66 14.33 19.32 14.66 20 15 C20.33 14.34 20.66 13.68 21 13 C29.56 20.68 29.56 20.68 30 27 C31.44 28.86 31.44 28.86 33 30 C29.36 28.88 25.94 27.54 22.5 25.94 C19.01 24.35 15.85 23.39 12 23 C12.66 23.99 13.32 24.98 14 26 C13.34 26 12.68 26 12 26 C12 26.66 12 27.32 12 28 C13.65 28.33 15.3 28.66 17 29 C17.33 29.99 17.66 30.98 18 32 C20.02 32.73 20.02 32.73 22 33 C22.29 34.13 22.58 35.27 22.88 36.44 C23.25 37.61 23.62 38.79 24 40 C24.66 40.33 25.32 40.66 26 41 C25.01 41.5 25.01 41.5 24 42 C25.32 43.32 26.64 44.64 28 46 C27.67 46.66 27.34 47.32 27 48 C22.12 43.38 22.12 43.38 21 40 C19 38.79 19 38.79 17 38 C17 37.01 17 36.02 17 35 C16.46 34.73 15.93 34.46 15.38 34.19 C14.59 33.8 13.81 33.4 13 33 C11.95 32.53 10.9 32.05 9.81 31.56 C7 30 7 30 6 27 C4.5 25.33 4.5 25.33 3 24 C3.33 23.01 3.66 22.02 4 21 C3.35 19.66 2.68 18.32 2 17 C2.33 16.34 2.66 15.68 3 15 C2.34 14.34 1.68 13.68 1 13 C-2 7.46 -2 7.46 -2 5 C-1.01 4.67 -0.02 4.34 1 4 C0.67 2.68 0.34 1.36 0 0 Z " fill="#59455D" transform="translate(110,67)"/>
<path d="M0 0 C1.32 0.66 2.64 1.32 4 2 C3.01 2.33 2.02 2.66 1 3 C1 3.66 1 4.32 1 5 C2.39 5.06 2.39 5.06 3.81 5.12 C7 6 7 6 8.69 8.94 C9.34 10.45 9.34 10.45 10 12 C10.99 12.66 11.98 13.32 13 14 C13 14.99 13 15.98 13 17 C13.66 17 14.32 17 15 17 C15 17.99 15 18.98 15 20 C15.66 20.33 16.32 20.66 17 21 C17.72 21.74 18.44 22.48 19.19 23.25 C21.39 25.4 23.29 26.94 25.81 28.62 C26.86 29.41 27.92 30.19 29 31 C29 31.99 29 32.98 29 34 C29.78 34.23 30.57 34.45 31.38 34.69 C34 36 34 36 34.81 38.31 C36.43 41.96 38.77 42.89 42.22 44.69 C44.45 46.33 44.59 47.32 45 50 C46.27 54.07 46.27 54.07 48.02 57.95 C51.82 65.89 49.42 74.98 47 83 C46.34 83.66 45.68 84.32 45 85 C44.95 82.58 44.91 80.17 44.88 77.75 C44.86 77.07 44.84 76.39 44.82 75.68 C44.79 71.83 45.19 69.36 47 66 C45.72 63.25 45.72 63.25 44 61 C44 61.66 44 62.32 44 63 C44 66 44 69 44 72 C43.34 72 42.68 72 42 72 C42 69.36 42 66.72 42 64 C41.26 64.25 40.51 64.5 39.75 64.75 C38.84 64.83 37.94 64.92 37 65 C34.69 63.06 34.69 63.06 33 61 C36 60 36 60 38.19 60.94 C38.79 61.29 39.38 61.64 40 62 C39.04 56.2 37.99 52.48 34 48 C33.29 46.35 32.61 44.69 32 43 C31.67 42.67 31.34 42.34 31 42 C30.96 40.33 30.96 38.67 31 37 C30.4 36.9 29.8 36.79 29.19 36.69 C26.69 35.9 25.62 35.03 24 33 C24 32.34 24 31.68 24 31 C22.59 29.84 22.59 29.84 20.69 28.75 C19.96 28.31 19.24 27.86 18.49 27.41 C16.77 26.43 15.01 25.52 13.23 24.66 C6.25 21.22 2.72 17.81 -1 11 C-1.66 10.01 -2.32 9.02 -3 8 C-3 6.68 -3 5.36 -3 4 C-2.34 4 -1.68 4 -1 4 C-0.67 2.68 -0.34 1.36 0 0 Z " fill="#17142F" transform="translate(98,71)"/>
<path d="M0 0 C1.42 -0.05 2.83 -0.09 4.25 -0.12 C5.04 -0.15 5.83 -0.17 6.64 -0.2 C9.21 0.02 10.79 0.71 13 2 C11.13 6.75 11.13 6.75 10 9 C10.66 9 11.32 9 12 9 C11.67 9.99 11.34 10.98 11 12 C8 13 8 13 5 12 C5 13.65 5 15.3 5 17 C3.68 16.67 2.36 16.34 1 16 C0.34 17.32 -0.32 18.64 -1 20 C-1.33 19.34 -1.66 18.68 -2 18 C-2.99 17.67 -3.98 17.34 -5 17 C-5 18.32 -5 19.64 -5 21 C-9.88 20.12 -9.88 20.12 -11 19 C-11 20.32 -11 21.64 -11 23 C-11.66 23.33 -12.32 23.66 -13 24 C-13.33 24.99 -13.66 25.98 -14 27 C-15.44 29.19 -15.44 29.19 -17 31 C-17.66 31 -18.32 31 -19 31 C-19 30.34 -19 29.68 -19 29 C-19.66 29 -20.32 29 -21 29 C-23.18 13.24 -23.18 13.24 -18.75 7.33 C-17.38 5.94 -17.38 5.94 -15 4 C-14.4 4.64 -14.4 4.64 -13.79 5.3 C-11.77 7.22 -9.65 8.67 -7.31 10.19 C-6.1 10.98 -6.1 10.98 -4.86 11.79 C-4.25 12.19 -3.63 12.59 -3 13 C-3.52 11.91 -4.03 10.81 -4.56 9.69 C-6 6 -6 6 -5 3 C-4.67 3.66 -4.34 4.32 -4 5 C-2.68 4.34 -1.36 3.68 0 3 C0 2.01 0 1.02 0 0 Z " fill="#2C283F" transform="translate(113,133)"/>
<path d="M0 0 C2 1 2 1 2.61 2.72 C3.06 5.34 3.17 7.84 3.19 10.5 C3.2 11.44 3.22 12.38 3.23 13.34 C2.99 16.06 2.38 17.68 1 20 C1.66 19.67 2.32 19.34 3 19 C3.11 20.77 3.19 22.54 3.25 24.31 C3.3 25.3 3.34 26.28 3.39 27.3 C3 30 3 30 1.21 31.86 C-2.13 33.58 -4.45 32.92 -8 32 C-8.66 31.01 -9.32 30.02 -10 29 C-10.66 29 -11.32 29 -12 29 C-12 29.66 -12 30.32 -12 31 C-11.34 31 -10.68 31 -10 31 C-10.99 33.47 -10.99 33.47 -12 36 C-13.46 33.35 -14 32.11 -14 29 C-17.3 28.67 -20.6 28.34 -24 28 C-24 27.34 -24 26.68 -24 26 C-23.04 25.75 -23.04 25.75 -22.06 25.5 C-19.83 24.23 -19.83 24.23 -19.62 22.16 C-19.5 20.73 -19.42 19.3 -19.37 17.88 C-19.25 17.26 -19.13 16.64 -19 16 C-18.01 15.34 -17.02 14.68 -16 14 C-16 14.99 -16 15.98 -16 17 C-15.61 16.17 -15.22 15.35 -14.81 14.5 C-13.92 13.26 -13.92 13.26 -13 12 C-10.31 11.69 -10.31 11.69 -8 12 C-7.67 10.35 -7.34 8.7 -7 7 C-6.67 7 -6.34 7 -6 7 C-5.67 8.65 -5.34 10.3 -5 12 C-4.73 10.76 -4.46 9.52 -4.19 8.25 C-3.36 4.9 -2.37 2.59 0 0 Z " fill="#532D2A" transform="translate(87,46)"/>
<path d="M0 0 C1 2 1 2 0.44 4.16 C0.15 4.98 -0.14 5.79 -0.44 6.62 C-0.72 7.44 -1.01 8.26 -1.31 9.1 C-1.65 10.04 -1.65 10.04 -2 11 C-0.68 10.01 0.64 9.02 2 8 C2 8.66 2 9.32 2 10 C3.32 9.67 4.64 9.34 6 9 C6.12 8.36 6.25 7.72 6.38 7.06 C6.58 6.38 6.79 5.7 7 5 C7.66 4.67 8.32 4.34 9 4 C8.99 4.84 8.98 5.69 8.96 6.55 C8.96 7.65 8.95 8.75 8.94 9.88 C8.93 10.97 8.91 12.06 8.9 13.18 C8.8 15.95 8.8 15.95 10 18 C9.67 18.91 9.34 19.81 9 20.75 C7.9 24.33 8.14 26.4 9 30 C10.32 29.67 11.64 29.34 13 29 C11.25 33.88 11.25 33.88 9 35 C9.33 35.66 9.66 36.32 10 37 C9.5 37.5 9.5 37.5 9 38 C9.66 38.33 10.32 38.66 11 39 C10.67 39.99 10.34 40.98 10 42 C10 42.33 10 42.66 10 43 C10 43.66 10 44.32 10 45 C9.01 45.66 8.02 46.32 7 47 C5.98 47.98 4.98 48.98 4 50 C4.33 50.66 4.66 51.32 5 52 C-2.43 56.43 -2.43 56.43 -6 57 C-6 56.01 -6 55.02 -6 54 C-5.34 54 -4.68 54 -4 54 C-4 53.01 -4 52.02 -4 51 C-3.34 50.34 -2.68 49.68 -2 49 C-2.66 49 -3.32 49 -4 49 C-4 48.34 -4 47.68 -4 47 C-1.53 46.5 -1.53 46.5 1 46 C1 45.01 1 44.02 1 43 C0.01 43 -0.98 43 -2 43 C-2 42.01 -2 41.02 -2 40 C-3.32 39.67 -4.64 39.34 -6 39 C-5.67 38.01 -5.34 37.02 -5 36 C-3.51 35.5 -3.51 35.5 -2 35 C-1.5 34.32 -1.01 33.64 -0.5 32.94 C-0 32.3 0.49 31.66 1 31 C1.99 31 2.98 31 4 31 C4 30.34 4 29.68 4 29 C2.02 29.66 0.04 30.32 -2 31 C-2 27.06 -0.42 26.01 2 23 C2.96 20.92 2.96 20.92 3 19 C1.07 16.78 1.07 16.78 -2 16 C-3.23 12.3 -3.45 8.85 -3 5 C-1.5 2 -1.5 2 0 0 Z " fill="#6E3220" transform="translate(155,111)"/>
<path d="M0 0 C0.33 0 0.66 0 1 0 C1.51 2.21 2.01 4.42 2.5 6.62 C2.78 7.85 3.06 9.08 3.34 10.35 C3.94 13.67 4.12 16.64 4 20 C2.68 20.33 1.36 20.66 0 21 C-0.22 22.14 -0.22 22.14 -0.44 23.31 C-1 26 -1 26 -2 29 C-2.66 29 -3.32 29 -4 29 C-4 28.34 -4 27.68 -4 27 C-9.08 26.89 -9.08 26.89 -14 28 C-16.35 27.4 -18.69 26.74 -21 26 C-20.34 24.35 -19.68 22.7 -19 21 C-18.34 21 -17.68 21 -17 21 C-17 20.01 -17 19.02 -17 18 C-23.44 18.5 -23.44 18.5 -30 19 C-29.34 18.67 -28.68 18.34 -28 18 C-28 17.34 -28 16.68 -28 16 C-26.89 16.02 -25.77 16.04 -24.62 16.06 C-21.17 16.26 -21.17 16.26 -19 15 C-18.27 12.69 -17.6 10.35 -17 8 C-16.34 8.66 -15.68 9.32 -15 10 C-14.34 9.01 -13.68 8.02 -13 7 C-13.66 7 -14.32 7 -15 7 C-15 6.34 -15 5.68 -15 5 C-14.01 4.67 -13.02 4.34 -12 4 C-12 4.66 -12 5.32 -12 6 C-10.55 6.39 -9.09 6.76 -7.62 7.12 C-6.81 7.33 -6 7.54 -5.16 7.76 C-4.45 7.84 -3.74 7.92 -3 8 C-0.43 5.43 -0.46 3.52 0 0 Z " fill="#685054" transform="translate(90,70)"/>
<path d="M0 0 C0.66 0 1.32 0 2 0 C1.67 1.98 1.34 3.96 1 6 C1.66 6 2.32 6 3 6 C3 7.32 3 8.64 3 10 C2.34 10 1.68 10 1 10 C1 14.95 1 19.9 1 25 C-4.45 27.48 -4.45 27.48 -10 30 C-9.25 21.38 -9.25 21.38 -7 18 C-6.34 18 -5.68 18 -5 18 C-4.34 16.35 -3.68 14.7 -3 13 C-2.34 13 -1.68 13 -1 13 C-1.33 11.35 -1.66 9.7 -2 8 C-6.19 11.41 -8.75 14.31 -9.56 19.78 C-9.65 21.16 -9.74 22.55 -9.81 23.94 C-10.07 28.38 -10.53 31.39 -13.33 35.04 C-15.8 37.21 -18.26 39.18 -21 41 C-21.99 40.34 -22.98 39.68 -24 39 C-23.69 38.26 -23.38 37.52 -23.06 36.75 C-21.34 32.29 -20.89 28.81 -21 24 C-20.01 24.33 -19.02 24.66 -18 25 C-18.06 24.28 -18.12 23.56 -18.19 22.81 C-17.96 19.47 -16.87 17.73 -15 15 C-15.99 14.01 -16.98 13.02 -18 12 C-16.68 12 -15.36 12 -14 12 C-14 11.34 -14 10.68 -14 10 C-12.25 7.88 -12.25 7.88 -10 6 C-8.68 6 -7.36 6 -6 6 C-6 5.01 -6 4.02 -6 3 C-5.2 2.69 -4.39 2.38 -3.56 2.06 C-1.11 1.24 -1.11 1.24 0 0 Z " fill="#141427" transform="translate(68,32)"/>
<path d="M0 0 C-0.33 3.63 -0.66 7.26 -1 11 C-0.34 11 0.32 11 1 11 C1 10.34 1 9.68 1 9 C3.31 8.34 5.62 7.68 8 7 C7.67 8.65 7.34 10.3 7 12 C5.68 12 4.36 12 3 12 C3 13.32 3 14.64 3 16 C4.65 15.34 6.3 14.68 8 14 C6.35 15.65 4.7 17.3 3 19 C1 16 1 16 0 13 C-0.66 13.66 -1.32 14.32 -2 15 C-2.33 13.02 -2.66 11.04 -3 9 C-3.66 9.66 -4.32 10.32 -5 11 C-5.33 10.34 -5.66 9.68 -6 9 C-7.32 9 -8.64 9 -10 9 C-10 11.31 -10 13.62 -10 16 C-10.99 16 -11.98 16 -13 16 C-12.67 18.64 -12.34 21.28 -12 24 C-12.99 24 -13.98 24 -15 24 C-14.65 24.91 -14.3 25.81 -13.94 26.75 C-12.98 30.08 -13.16 30.86 -14 34 C-13.14 36.22 -13.14 36.22 -12 38 C-12.99 38.99 -13.98 39.98 -15 41 C-14.63 41.53 -14.25 42.06 -13.87 42.61 C-13.4 43.32 -12.92 44.02 -12.44 44.75 C-11.96 45.45 -11.49 46.14 -11 46.86 C-10 49 -10 49 -10.35 51.27 C-10.67 52.12 -10.67 52.12 -11 53 C-10.01 53.33 -9.02 53.66 -8 54 C-8.99 54.5 -8.99 54.5 -10 55 C-10.99 54.67 -11.98 54.34 -13 54 C-13.5 52.52 -13.5 52.52 -14 51 C-14.99 50.34 -15.98 49.68 -17 49 C-19.43 44.13 -20.92 39.33 -22 34 C-21.67 33.34 -21.34 32.68 -21 32 C-21.66 32 -22.32 32 -23 32 C-23.25 25.38 -23.25 25.38 -21 22 C-20.34 22.33 -19.68 22.66 -19 23 C-19 22.01 -19 21.02 -19 20 C-18.34 20 -17.68 20 -17 20 C-17.33 18.02 -17.66 16.04 -18 14 C-17.01 14 -16.02 14 -15 14 C-14.63 13.07 -14.63 13.07 -14.25 12.12 C-12.77 9.61 -11.56 9.24 -9 8 C-8.67 7.01 -8.34 6.02 -8 5 C-3.58 0 -3.58 0 0 0 Z " fill="#CFBD99" transform="translate(124,34)"/>
<path d="M0 0 C0.43 0.66 0.87 1.32 1.31 2 C2.15 2.99 2.15 2.99 3 4 C3.99 4 4.98 4 6 4 C6.16 4.92 6.16 4.92 6.33 5.86 C6.49 6.67 6.65 7.48 6.81 8.31 C7.04 9.51 7.04 9.51 7.27 10.74 C8.08 13.26 9.11 14.21 11 16 C11.12 18.44 11.12 18.44 11 21 C11.48 24.29 12.4 25.9 15 28 C15.99 28.33 16.98 28.66 18 29 C18 31 18 33 18 35 C18.66 35 19.32 35 20 35 C19.67 35.93 19.34 36.86 19 37.81 C17.85 40.92 17.85 40.92 18 44 C19.44 46.17 19.44 46.17 21 48 C20.5 48.6 20.01 49.2 19.5 49.81 C17.72 51.97 17.72 51.97 18 55 C17.34 55.99 16.68 56.98 16 58 C16.33 58.99 16.66 59.98 17 61 C16.81 63.06 16.81 63.06 16 65 C13.94 66.25 13.94 66.25 12 67 C11.04 61.44 11.05 58.37 13 53 C12.64 51.07 12.64 51.07 12 49 C11.9 46.33 11.96 43.68 12 41 C11.63 41.96 11.63 41.96 11.25 42.94 C10 45 10 45 7.88 45.75 C7.26 45.83 6.64 45.91 6 46 C6.31 44.12 6.31 44.12 7 42 C7.99 41.34 8.98 40.68 10 40 C10.74 36.43 10.74 36.43 11 33 C10.01 32.67 9.02 32.34 8 32 C8.33 31.67 8.66 31.34 9 31 C8.77 25.02 7.17 23.07 3 19 C2.69 16.19 2.69 16.19 3 14 C2.34 13.67 1.68 13.34 1 13 C1.66 13 2.32 13 3 13 C2.4 10.98 1.73 8.98 1 7 C0.34 6.67 -0.32 6.34 -1 6 C-0.67 4.02 -0.34 2.04 0 0 Z " fill="#A1582F" transform="translate(151,75)"/>
<path d="M0 0 C0.66 -0.33 1.32 -0.66 2 -1 C2.33 0.65 2.66 2.3 3 4 C3.66 3.67 4.32 3.34 5 3 C5.66 4.98 6.32 6.96 7 9 C8.32 8.34 9.64 7.68 11 7 C11 12.28 11 17.56 11 23 C10.34 22.67 9.68 22.34 9 22 C8.34 22.66 7.68 23.32 7 24 C6.01 24.66 5.02 25.32 4 26 C3.41 25.45 2.82 24.89 2.21 24.32 C1.42 23.6 0.63 22.87 -0.19 22.12 C-0.96 21.41 -1.74 20.69 -2.54 19.95 C-4.98 18.02 -7.08 16.99 -10 16 C-10.33 16.66 -10.66 17.32 -11 18 C-11 17.01 -11 16.02 -11 15 C-10.34 14.67 -9.68 14.34 -9 14 C-9 11.69 -9 9.38 -9 7 C-8.01 7 -7.02 7 -6 7 C-6 4.69 -6 2.38 -6 0 C-3.48 -1.26 -2.65 -0.66 0 0 Z " fill="#627A96" transform="translate(120,43)"/>
<path d="M0 0 C1.34 0.65 2.67 1.32 4 2 C4.99 2 5.98 2 7 2 C7.5 2.99 7.5 2.99 8 4 C7.34 4 6.68 4 6 4 C6.66 4.99 7.32 5.98 8 7 C8.33 5.35 8.66 3.7 9 2 C11.47 2.5 11.47 2.5 14 3 C13 6 13 6 12 7 C12.99 7.33 13.98 7.66 15 8 C15 6.68 15 5.36 15 4 C15.66 4 16.32 4 17 4 C17 4.99 17 5.98 17 7 C17.66 6.01 18.32 5.02 19 4 C19.5 6.97 19.5 6.97 20 10 C13.11 12.63 8.69 12.42 2 9.73 C-3.6 7.68 -11.41 6.42 -17.04 8.89 C-18.38 9.63 -19.72 10.36 -21.05 11.1 C-24.11 12.51 -26.7 12.38 -30 12 C-32.44 11 -32.44 11 -34 10 C-34 9.34 -34 8.68 -34 8 C-35.65 7.67 -37.3 7.34 -39 7 C-39.33 6.01 -39.66 5.02 -40 4 C-35.75 2.9 -32.04 3.07 -27.69 3.44 C-26.43 3.54 -25.18 3.64 -23.89 3.75 C-22.93 3.83 -21.98 3.91 -21 4 C-23.16 6.16 -24.05 6.55 -27 7 C-27.99 6.67 -28.98 6.34 -30 6 C-29.67 6.66 -29.34 7.32 -29 8 C-23.72 7.14 -19.07 5.09 -14.16 3.06 C-11.14 2.05 -9.13 1.79 -6 2 C-5.01 2 -4.02 2 -3 2 C-2.5 2.5 -2.5 2.5 -2 3 C-2 2.34 -2 1.68 -2 1 C-1.34 0.67 -0.68 0.34 0 0 Z " fill="#421711" transform="translate(74,123)"/>
<path d="M0 0 C1.94 0.5 1.94 0.5 4 2 C4.82 4.65 5.16 7.23 5 10 C4.34 10.99 3.68 11.98 3 13 C2.01 13 1.02 13 0 13 C0 13.66 0 14.32 0 15 C1.32 15.33 2.64 15.66 4 16 C3.34 16.66 2.68 17.32 2 18 C1.01 18 0.02 18 -1 18 C-1 17.34 -1 16.68 -1 16 C-1.99 16 -2.98 16 -4 16 C-4.33 16.99 -4.66 17.98 -5 19 C-5.66 19 -6.32 19 -7 19 C-7.66 17.35 -8.32 15.7 -9 14 C-11.47 14.34 -11.47 14.34 -14 15 C-14.33 15.66 -14.66 16.32 -15 17 C-15.66 17 -16.32 17 -17 17 C-17.12 18.28 -17.25 19.56 -17.38 20.88 C-17.75 24.75 -17.75 24.75 -20 27 C-20.22 28.24 -20.22 28.24 -20.44 29.5 C-21 32 -21 32 -24 34 C-24.33 33.34 -24.66 32.68 -25 32 C-25 33.65 -25 35.3 -25 37 C-25.66 37 -26.32 37 -27 37 C-26.67 38.65 -26.34 40.3 -26 42 C-27.65 40.68 -29.3 39.36 -31 38 C-30.01 38 -29.02 38 -28 38 C-28.34 37.17 -28.34 37.17 -28.69 36.32 C-28.98 35.6 -29.27 34.87 -29.56 34.12 C-29.85 33.41 -30.14 32.69 -30.44 31.95 C-31 30 -31 30 -30 28 C-29.34 28 -28.68 28 -28 28 C-28 26.68 -28 25.36 -28 24 C-27.34 24 -26.68 24 -26 24 C-26 22.68 -26 21.36 -26 20 C-25.4 19.96 -24.8 19.92 -24.19 19.88 C-21.66 19.15 -21.66 19.15 -20.62 16.06 C-19 13 -19 13 -16 11.81 C-14.52 11.41 -14.52 11.41 -13 11 C-11.16 9.5 -11.16 9.5 -10 8 C-10 8.99 -10 9.98 -10 11 C-9.66 10.04 -9.66 10.04 -9.31 9.06 C-8 7 -8 7 -5.38 6.25 C-4.2 6.13 -4.2 6.13 -3 6 C-3 6.66 -3 7.32 -3 8 C-1.68 7.67 -0.36 7.34 1 7 C0.67 4.69 0.34 2.38 0 0 Z " fill="#553830" transform="translate(132,17)"/>
<path d="M0 0 C1.07 0.07 1.07 0.07 2.16 0.13 C8.52 0.6 14.52 1.91 20.62 3.75 C19.63 4.41 18.65 5.07 17.62 5.75 C18.94 5.75 20.27 5.75 21.62 5.75 C21.95 4.76 22.28 3.77 22.62 2.75 C27.66 1.74 30.86 1.78 35.62 3.75 C33.64 4.74 33.64 4.74 31.62 5.75 C32.94 6.41 34.27 7.07 35.62 7.75 C34.53 8.14 33.44 8.53 32.31 8.94 C28.71 10.45 27.28 12.15 25.62 15.75 C24.97 15.42 24.31 15.09 23.62 14.75 C25.28 12.44 26.92 10.13 28.62 7.75 C26.31 8.08 24 8.41 21.62 8.75 C21.54 9.35 21.46 9.95 21.38 10.56 C20.42 13.35 19.05 14.18 16.62 15.75 C17.75 12.78 18.85 10.42 20.62 7.75 C19.88 8.2 19.14 8.66 18.38 9.12 C16.16 10.44 13.95 11.63 11.62 12.75 C10.7 10.17 10.44 9.16 11.6 6.61 C11.94 6 12.28 5.38 12.62 4.75 C11.98 4.95 11.34 5.16 10.68 5.37 C5.65 6.94 0.86 8 -4.38 8.75 C-5.37 9.41 -6.36 10.07 -7.38 10.75 C-8.03 10.42 -8.7 10.09 -9.38 9.75 C-8.72 7.77 -8.05 5.79 -7.38 3.75 C-7.7 4.08 -8.03 4.41 -8.38 4.75 C-10.37 6.09 -12.37 7.43 -14.38 8.75 C-14.69 6.44 -14.69 6.44 -14.38 3.75 C-12 2 -12 2 -9.38 0.75 C-6.34 -0.77 -3.3 -0.21 0 0 Z " fill="#49261E" transform="translate(65.375,166.25)"/>
<path d="M0 0 C1.94 1.31 1.94 1.31 3 3 C3 4.32 3 5.64 3 7 C3.62 6.86 4.24 6.71 4.88 6.56 C8.51 5.91 12.12 5.59 15.79 5.28 C18.04 5.12 18.04 5.12 20 4 C26.53 3.77 26.53 3.77 29 5 C28.67 6.32 28.34 7.64 28 9 C27.01 9 26.02 9 25 9 C22.66 9.66 20.33 10.32 18 11 C17.34 11 16.68 11 16 11 C15.01 11.5 15.01 11.5 14 12 C14 11.34 14 10.68 14 10 C9.35 10.21 5.44 10.44 1.5 13.06 C-2.52 15.62 -6.35 15.76 -11 15 C-14.06 13.5 -14.06 13.5 -16 12 C-15.67 10.68 -15.34 9.36 -15 8 C-14.55 8.66 -14.09 9.32 -13.62 10 C-9.7 12.99 -5.78 12.51 -1 12 C-0.34 11.67 0.32 11.34 1 11 C-2.3 11 -5.6 11 -9 11 C-9 10.01 -9 9.02 -9 8 C-9.99 7.34 -10.98 6.68 -12 6 C-12 4.68 -12 3.36 -12 2 C-8.02 -1.5 -4.98 -1.29 0 0 Z " fill="#C59160" transform="translate(50,112)"/>
<path d="M0 0 C0.51 0.29 1.02 0.58 1.55 0.88 C7.13 4.03 12.81 6.9 18.59 9.67 C21 11 21 11 22 13 C21.2 12.71 20.39 12.42 19.56 12.12 C15.42 10.82 11.25 9.89 7 9 C7.99 10.48 7.99 10.48 9 12 C8.34 12 7.68 12 7 12 C7 12.66 7 13.32 7 14 C8.65 14.33 10.3 14.66 12 15 C12.33 15.99 12.66 16.98 13 18 C15.02 18.73 15.02 18.73 17 19 C17.29 20.13 17.58 21.27 17.88 22.44 C18.25 23.61 18.62 24.79 19 26 C19.66 26.33 20.32 26.66 21 27 C20.34 27.33 19.68 27.66 19 28 C20.32 29.32 21.64 30.64 23 32 C22.67 32.66 22.34 33.32 22 34 C17.12 29.38 17.12 29.38 16 26 C14 24.79 14 24.79 12 24 C12 23.01 12 22.02 12 21 C11.46 20.73 10.93 20.46 10.38 20.19 C9.59 19.8 8.81 19.4 8 19 C6.95 18.53 5.9 18.05 4.81 17.56 C2 16 2 16 1 13 C-0.5 11.33 -0.5 11.33 -2 10 C-1.67 9.01 -1.34 8.02 -1 7 C-1.87 4.83 -1.87 4.83 -3 3 C-2.01 2.01 -1.02 1.02 0 0 Z " fill="#663130" transform="translate(115,81)"/>
<path d="M0 0 C3.46 1.25 6.37 2.38 9 5 C9.91 10.09 10.39 16.29 7.98 21 C5.87 23.15 3.84 24.05 1 25 C1.33 23.68 1.66 22.36 2 21 C1.01 21.99 0.02 22.98 -1 24 C-1.66 23.67 -2.32 23.34 -3 23 C-2.67 22.34 -2.34 21.68 -2 21 C-3.32 21.99 -4.64 22.98 -6 24 C-6.66 23.67 -7.32 23.34 -8 23 C-6.35 21.35 -4.7 19.7 -3 18 C-4.98 17.67 -6.96 17.34 -9 17 C-8.34 16.34 -7.68 15.68 -7 15 C-7.99 14.67 -8.98 14.34 -10 14 C-10 13.34 -10 12.68 -10 12 C-7.36 11.34 -4.72 10.68 -2 10 C-2 9.67 -2 9.34 -2 9 C-0.35 9 1.3 9 3 9 C3 8.34 3 7.68 3 7 C2.34 6.67 1.68 6.34 1 6 C1.66 5.67 2.32 5.34 3 5 C2.51 4.55 2.01 4.09 1.5 3.62 C0 2 0 2 0 0 Z " fill="#332019" transform="translate(32,84)"/>
<path d="M0 0 C3.36 1.57 5.38 3.38 8 6 C8.31 8.57 8.51 11.05 8.62 13.62 C8.66 14.33 8.7 15.04 8.74 15.77 C8.84 17.51 8.92 19.25 9 21 C6.01 20 5.05 19.25 3 17 C3.52 17.78 4.03 18.57 4.56 19.38 C5.27 20.67 5.27 20.67 6 22 C5.67 22.66 5.34 23.32 5 24 C4.57 23.34 4.13 22.68 3.69 22 C2.85 21.01 2.85 21.01 2 20 C1.01 20 0.02 20 -1 20 C-1.99 20 -2.98 20 -4 20 C-6.1 15.81 -5.56 10.55 -5 6 C-3.61 3.35 -2.26 2.03 0 0 Z " fill="#DF843F" transform="translate(71,136)"/>
<path d="M0 0 C0.33 0 0.66 0 1 0 C1.37 5.55 1.37 5.55 -0.44 7.75 C-1.21 8.37 -1.21 8.37 -2 9 C-2.33 9.66 -2.66 10.32 -3 11 C-3.66 11 -4.32 11 -5 11 C-6.42 14.82 -7.24 17.91 -7 22 C-5.87 21.36 -4.73 20.72 -3.56 20.06 C0.9 17.8 5.05 17.23 10 17 C10.23 16.11 10.45 15.23 10.69 14.31 C12.17 10.57 14.02 8.66 17 6 C16.69 8.38 16.69 8.38 16 11 C15.01 11.66 14.02 12.32 13 13 C12.67 13.85 12.34 14.69 12 15.56 C11.67 16.37 11.34 17.17 11 18 C10.01 18.33 9.02 18.66 8 19 C6.78 21.5 6.78 21.5 6 24 C5.01 24 4.02 24 3 24 C3 23.67 3 23.34 3 23 C1.68 23 0.36 23 -1 23 C-1 23.66 -1 24.32 -1 25 C-1.99 25 -2.98 25 -4 25 C-4 25.66 -4 26.32 -4 27 C-11.29 31.57 -11.29 31.57 -16 31 C-12.25 26.12 -12.25 26.12 -10 25 C-9.79 23.21 -9.59 21.42 -9.47 19.63 C-8.95 12.3 -8.12 7.54 -2.56 2.29 C-2.04 1.86 -1.53 1.44 -1 1 C-0.67 0.67 -0.34 0.34 0 0 Z " fill="#AD9B90" transform="translate(66,39)"/>
<path d="M0 0 C3.5 2.33 4.68 4.03 6 8 C5.67 8.58 5.34 9.16 5 9.75 C3.55 13.01 4.34 15.57 5 19 C4.34 19.33 3.68 19.66 3 20 C2.67 20.99 2.34 21.98 2 23 C0.56 25.19 0.56 25.19 -1 27 C-1.66 27 -2.32 27 -3 27 C-3 26.34 -3 25.68 -3 25 C-3.66 25 -4.32 25 -5 25 C-6.15 16.65 -6.86 9.12 -1.88 1.94 C-0.95 0.98 -0.95 0.98 0 0 Z " fill="#8C4938" transform="translate(97,137)"/>
<path d="M0 0 C0.66 0.99 1.32 1.98 2 3 C1.01 3.66 0.02 4.32 -1 5 C0.15 7.47 1.05 9.05 3 11 C3 11.66 3 12.32 3 13 C2.01 13 1.02 13 0 13 C1.32 13.33 2.64 13.66 4 14 C4 14.99 4 15.98 4 17 C3.34 17 2.68 17 2 17 C2.66 18.98 3.32 20.96 4 23 C3.01 23 2.02 23 1 23 C1 24.65 1 26.3 1 28 C0.01 28.33 -0.98 28.66 -2 29 C-2.15 30.18 -2.15 30.18 -2.31 31.38 C-3 34 -3 34 -6 36 C-6.8 32.71 -7.1 31.29 -6 28 C-6.99 28.33 -7.98 28.66 -9 29 C-9 27.35 -9 25.7 -9 24 C-8.01 24 -7.02 24 -6 24 C-6.99 22.35 -7.98 20.7 -9 19 C-7.68 19.33 -6.36 19.66 -5 20 C-4.67 19.34 -4.34 18.68 -4 18 C-3.34 18 -2.68 18 -2 18 C-2 17.34 -2 16.68 -2 16 C-2.99 15.67 -3.98 15.34 -5 15 C-6.19 12.44 -6.19 12.44 -7 10 C-5.68 10.66 -4.36 11.32 -3 12 C-3 10.02 -3 8.04 -3 6 C-3.66 6 -4.32 6 -5 6 C-4.34 4.68 -3.68 3.36 -3 2 C-2.01 2 -1.02 2 0 2 C0 1.34 0 0.68 0 0 Z " fill="#3C201B" transform="translate(101,95)"/>
<path d="M0 0 C2.73 1.88 3.22 2.42 4.31 5.69 C3.8 5.4 3.28 5.11 2.75 4.81 C-2.52 2.38 -7.96 1.39 -13.69 0.69 C-13.69 1.68 -13.69 2.67 -13.69 3.69 C-15.69 5.38 -15.69 5.38 -17.69 6.69 C-17.47 7.55 -17.47 7.55 -17.25 8.44 C-16.73 10.52 -16.21 12.6 -15.69 14.69 C-17 13.88 -18.31 13.06 -19.62 12.25 C-20.36 11.8 -21.09 11.35 -21.84 10.88 C-23.69 9.69 -23.69 9.69 -24.69 8.69 C-25.68 10.17 -25.68 10.17 -26.69 11.69 C-27.97 9.57 -28.7 8.19 -28.62 5.69 C-26.87 1.94 -23.75 0.21 -20.12 -1.56 C-13.2 -3.07 -6.28 -3.75 0 0 Z " fill="#6D6168" transform="translate(126.6875,132.3125)"/>
<path d="M0 0 C0 3 0 3 -1.5 5.25 C-3.37 8.68 -3.23 11.15 -3 15 C-3.99 15 -4.98 15 -6 15 C-6.33 18.63 -6.66 22.26 -7 26 C-6.34 26 -5.68 26 -5 26 C-5.33 27.98 -5.66 29.96 -6 32 C-2.1 34.6 1.47 34.15 6 34 C6.33 33.34 6.66 32.68 7 32 C5.35 32 3.7 32 2 32 C2 31.01 2 30.02 2 29 C1.34 28.67 0.68 28.34 0 28 C0.66 26.68 1.32 25.36 2 24 C2.99 24.33 3.98 24.66 5 25 C5 25.66 5 26.32 5 27 C6.98 27 8.96 27 11 27 C10.67 27.66 10.34 28.32 10 29 C11.98 29.99 13.96 30.98 16 32 C10.31 35.79 4.89 38.33 -2 37 C-5.18 35.97 -7.13 34.81 -9 32 C-10.99 21.38 -7.93 11.3 -2.09 2.5 C-1 1 -1 1 0 0 Z " fill="#D5B17D" transform="translate(49,70)"/>
<path d="M0 0 C0.66 0 1.32 0 2 0 C2.47 0.66 2.95 1.32 3.44 2 C4.21 2.99 4.21 2.99 5 4 C5.99 4 6.98 4 8 4 C8.33 6.31 8.66 8.62 9 11 C9.99 10.01 10.98 9.02 12 8 C12.33 9.98 12.66 11.96 13 14 C13.99 14 14.98 14 16 14 C16.33 14.66 16.66 15.32 17 16 C17.99 16 18.98 16 20 16 C19.5 19.73 19.13 21.81 17 25 C15.35 25 13.7 25 12 25 C9.69 20.38 7.38 15.76 5 11 C5.66 12.32 6.32 13.64 7 15 C4 15 4 15 1 13 C0.96 10.67 0.96 8.33 1 6 C0.01 3.77 0.01 3.77 -1 2 C-0.67 1.34 -0.34 0.68 0 0 Z " fill="#2C2651" transform="translate(138,81)"/>
<path d="M0 0 C2 1 2 1 2.6 2.73 C3.5 7.87 4.24 13.47 1.88 18.27 C0.5 20.19 0.5 20.19 -2 23 C-1.34 23 -0.68 23 0 23 C0 24.98 0 26.96 0 29 C-1.65 27.68 -3.3 26.36 -5 25 C-4.67 26.32 -4.34 27.64 -4 29 C-5.32 29 -6.64 29 -8 29 C-8.66 27.02 -9.32 25.04 -10 23 C-10.99 23 -11.98 23 -13 23 C-13 21 -13 21 -11.69 19.56 C-11.13 19.05 -10.57 18.53 -10 18 C-9.44 17.44 -8.89 16.89 -8.31 16.31 C-7.66 15.66 -7.66 15.66 -7 15 C-6.01 15.33 -5.02 15.66 -4 16 C-3.67 14.02 -3.34 12.04 -3 10 C-1.68 10 -0.36 10 1 10 C1.33 9.01 1.66 8.02 2 7 C1.01 7 0.02 7 -1 7 C-1.33 7.66 -1.66 8.32 -2 9 C-2.69 6.75 -2.69 6.75 -3 4 C-1.56 1.69 -1.56 1.69 0 0 Z " fill="#2C0C0D" transform="translate(87,46)"/>
<path d="M0 0 C0.66 0 1.32 0 2 0 C1.4 3.68 0.75 7.35 0 11 C2.16 8.97 2.16 8.97 4 6 C7 10.75 7 10.75 7 13 C6.34 13 5.68 13 5 13 C4.34 14.65 3.68 16.3 3 18 C2 16 2 16 2 13 C1.34 13.66 0.68 14.32 0 15 C-0.67 15.21 -1.33 15.43 -2.02 15.65 C-4.38 16.96 -4.38 16.96 -5.05 20.48 C-5.3 21.86 -5.53 23.24 -5.75 24.62 C-5.88 25.33 -6 26.04 -6.13 26.77 C-6.43 28.51 -6.72 30.25 -7 32 C-7.99 31.01 -8.98 30.02 -10 29 C-10.99 29.99 -11.98 30.98 -13 32 C-13 28.72 -12.4 26.94 -11 24 C-10.46 23.57 -9.93 23.13 -9.38 22.69 C-7.4 20.27 -7.84 18.07 -7.96 15.07 C-8.01 12.31 -7.54 9.71 -7 7 C-6.01 7 -5.02 7 -4 7 C-2.68 4.69 -1.36 2.38 0 0 Z " fill="#886753" transform="translate(90,27)"/>
<path d="M0 0 C1.23 5.42 1.23 5.42 0.06 8.38 C-0.29 8.91 -0.64 9.45 -1 10 C-0.01 11.48 -0.01 11.48 1 13 C-0.32 13 -1.64 13 -3 13 C-3 12.34 -3 11.68 -3 11 C-3.99 11 -4.98 11 -6 11 C-6 12.32 -6 13.64 -6 15 C-6 15.99 -6 16.98 -6 18 C-4.35 18 -2.7 18 -1 18 C-1.33 18.99 -1.66 19.98 -2 21 C-7.39 21.27 -10.52 21.36 -15 18 C-14.67 16.68 -14.34 15.36 -14 14 C-13.34 14 -12.68 14 -12 14 C-12.02 13.05 -12.04 12.1 -12.06 11.12 C-12 8 -12 8 -11 6 C-10.34 6 -9.68 6 -9 6 C-8.67 6.66 -8.34 7.32 -8 8 C-7.34 8 -6.68 8 -6 8 C-6 6.35 -6 4.7 -6 3 C-6.66 3 -7.32 3 -8 3 C-6.18 -0.63 -3.7 -0.1 0 0 Z " fill="#7B4128" transform="translate(57,84)"/>
<path d="M0 0 C0.99 0 1.98 0 3 0 C3 2.31 3 4.62 3 7 C2.01 7.5 2.01 7.5 1 8 C0.67 7.34 0.34 6.68 0 6 C-0.99 5.67 -1.98 5.34 -3 5 C-3 5.66 -3 6.32 -3 7 C-2.01 7.33 -1.02 7.66 0 8 C-0.33 8.66 -0.66 9.32 -1 10 C1.31 9.34 3.62 8.68 6 8 C5.67 7.01 5.34 6.02 5 5 C6.32 5.66 7.64 6.32 9 7 C9 7.99 9 8.98 9 10 C6.36 10.66 3.72 11.32 1 12 C1 12.66 1 13.32 1 14 C-0.69 14.69 -0.69 14.69 -3 15 C-3.78 14.5 -4.57 14.01 -5.38 13.5 C-8.7 11.6 -10.37 12.07 -14 13 C-14 12.34 -14 11.68 -14 11 C-14.99 10.67 -15.98 10.34 -17 10 C-15.75 8.44 -15.75 8.44 -14 7 C-11.81 7.31 -11.81 7.31 -10 8 C-10.66 7.01 -11.32 6.02 -12 5 C-11.62 2.81 -11.62 2.81 -11 1 C-10.34 1.33 -9.68 1.66 -9 2 C-9 2.66 -9 3.32 -9 4 C-6.03 3.34 -3.06 2.68 0 2 C0 1.34 0 0.68 0 0 Z " fill="#382839" transform="translate(121,111)"/>
<path d="M0 0 C0.33 0 0.66 0 1 0 C1.33 1.98 1.66 3.96 2 6 C3.32 5.67 4.64 5.34 6 5 C4.25 9.88 4.25 9.88 2 11 C2.33 11.66 2.66 12.32 3 13 C2.67 13.33 2.34 13.66 2 14 C2.66 14.33 3.32 14.66 4 15 C3.67 15.99 3.34 16.98 3 18 C3 18.33 3 18.66 3 19 C3 19.66 3 20.32 3 21 C2.01 21.66 1.02 22.32 0 23 C-1.02 23.98 -2.02 24.98 -3 26 C-2.67 26.66 -2.34 27.32 -2 28 C-9.43 32.43 -9.43 32.43 -13 33 C-13 32.01 -13 31.02 -13 30 C-12.34 30 -11.68 30 -11 30 C-11 29.01 -11 28.02 -11 27 C-10.34 26.34 -9.68 25.68 -9 25 C-9.66 25 -10.32 25 -11 25 C-11 24.34 -11 23.68 -11 23 C-9.35 22.67 -7.7 22.34 -6 22 C-6 21.01 -6 20.02 -6 19 C-5.34 19 -4.68 19 -4 19 C-1.49 10.66 -1.49 10.66 -1 2 C-0.67 1.34 -0.34 0.68 0 0 Z " fill="#A14E21" transform="translate(162,135)"/>
<path d="M0 0 C0.99 0 1.98 0 3 0 C3.2 6.05 3.2 6.05 3 8 C2.34 8.66 1.68 9.32 1 10 C0.01 10 -0.98 10 -2 10 C-2 10.66 -2 11.32 -2 12 C-0.91 11.98 0.19 11.96 1.31 11.94 C5 12 5 12 8 13 C7.67 13.99 7.34 14.98 7 16 C6.34 15.67 5.68 15.34 5 15 C1.51 14.7 -0.38 14.61 -3.38 16.5 C-3.91 17 -4.45 17.49 -5 18 C-5.66 16.02 -6.32 14.04 -7 12 C-8.32 12 -9.64 12 -11 12 C-11 12.99 -11 13.98 -11 15 C-11.66 15 -12.32 15 -13 15 C-13 13.68 -13 12.36 -13 11 C-13.33 11.66 -13.66 12.32 -14 13 C-14.66 12.67 -15.32 12.34 -16 12 C-15.67 10.68 -15.34 9.36 -15 8 C-13.89 7.71 -12.77 7.42 -11.62 7.12 C-8 6.31 -8 6.31 -6 4 C-5.01 4 -4.02 4 -3 4 C-3 3.34 -3 2.68 -3 2 C-2.01 2 -1.02 2 0 2 C0 1.34 0 0.68 0 0 Z " fill="#90725E" transform="translate(65,62)"/>
<path d="M0 0 C0.33 1.32 0.66 2.64 1 4 C1.66 4 2.32 4 3 4 C3 4.66 3 5.32 3 6 C4.32 5.67 5.64 5.34 7 5 C7.99 7.31 8.98 9.62 10 12 C11.32 11.67 12.64 11.34 14 11 C14.33 12.98 14.66 14.96 15 17 C15.99 17.33 16.98 17.66 18 18 C18.33 19.98 18.66 21.96 19 24 C18.34 24 17.68 24 17 24 C16.67 22.68 16.34 21.36 16 20 C15.01 20 14.02 20 13 20 C12.34 19.01 11.68 18.02 11 17 C10.01 16.67 9.02 16.34 8 16 C7.34 15.01 6.68 14.02 6 13 C5.01 14.48 5.01 14.48 4 16 C1.53 14.85 -0.05 13.95 -2 12 C-2.99 11.67 -3.98 11.34 -5 11 C-4.67 10.34 -4.34 9.68 -4 9 C-2.68 9 -1.36 9 0 9 C-0.33 7.68 -0.66 6.36 -1 5 C-1.66 5 -2.32 5 -3 5 C-3.33 3.68 -3.66 2.36 -4 1 C-2.68 0.67 -1.36 0.34 0 0 Z " fill="#BC9884" transform="translate(135,64)"/>
<path d="M0 0 C0.99 0 1.98 0 3 0 C5 3 5 3 5 6 C5.99 6 6.98 6 8 6 C8.99 8.31 9.98 10.62 11 13 C10.01 13.99 9.02 14.98 8 16 C8.56 16.8 8.56 16.8 9.13 17.61 C9.6 18.32 10.08 19.02 10.56 19.75 C11.04 20.45 11.51 21.14 12 21.86 C13 24 13 24 12.65 26.27 C12.33 27.12 12.33 27.12 12 28 C12.99 28.33 13.98 28.66 15 29 C14.34 29.33 13.68 29.66 13 30 C12.01 29.67 11.02 29.34 10 29 C9.67 28.01 9.34 27.02 9 26 C8.01 25.34 7.02 24.68 6 24 C3.57 19.13 2.08 14.33 1 9 C1.33 8.34 1.66 7.68 2 7 C1.34 7 0.68 7 0 7 C0 4.69 0 2.38 0 0 Z " fill="#B58669" transform="translate(101,59)"/>
<path d="M0 0 C2 2 2 2 2.12 4.62 C2.08 5.41 2.04 6.19 2 7 C1.01 7 0.02 7 -1 7 C-1.5 6.01 -1.5 6.01 -2 5 C-3.65 5 -5.3 5 -7 5 C-6.67 6.32 -6.34 7.64 -6 9 C-6.99 8.34 -7.98 7.68 -9 7 C-9.99 7.5 -9.99 7.5 -11 8 C-11 7.34 -11 6.68 -11 6 C-17.13 7.72 -22.96 9.71 -28.77 12.33 C-31.29 13.09 -32.56 12.87 -35 12 C-35 11.34 -35 10.68 -35 10 C-31.53 9.5 -31.53 9.5 -28 9 C-28.99 8.34 -29.98 7.68 -31 7 C-25.43 3.2 -21.67 2.51 -15 3 C-11.76 3 -8.99 2 -5.94 0.94 C-3 0 -3 0 0 0 Z " fill="#684132" transform="translate(79,119)"/>
<path d="M0 0 C0.62 0.47 1.24 0.95 1.88 1.44 C3.91 3.02 3.91 3.02 6 4 C6.66 3.01 7.32 2.02 8 1 C8.25 1.64 8.5 2.28 8.75 2.94 C9.8 5.2 9.8 5.2 12.06 5.56 C13.02 5.78 13.02 5.78 14 6 C14.33 6.99 14.66 7.98 15 9 C15.99 9 16.98 9 18 9 C18.33 10.65 18.66 12.3 19 14 C19.66 14 20.32 14 21 14 C21.66 16.97 22.32 19.94 23 23 C21.68 22.01 20.36 21.02 19 20 C18.34 20.33 17.68 20.66 17 21 C16.67 19.02 16.34 17.04 16 15 C15.01 16.48 15.01 16.48 14 18 C13 17 13 17 12.94 13.44 C12.96 12.3 12.98 11.17 13 10 C11.68 10.33 10.36 10.66 9 11 C8.34 9.35 7.68 7.7 7 6 C6.34 6 5.68 6 5 6 C4.67 6.99 4.34 7.98 4 9 C2.35 7.68 0.7 6.36 -1 5 C-0.67 3.35 -0.34 1.7 0 0 Z " fill="#674861" transform="translate(133,75)"/>
<path d="M0 0 C2.29 -0.05 4.58 -0.09 6.88 -0.12 C8.79 -0.16 8.79 -0.16 10.74 -0.2 C14 0 14 0 16 2 C16.23 3.88 16.23 3.88 16.19 6 C16.18 6.7 16.17 7.4 16.17 8.12 C16 10 16 10 15 12 C12.68 12.41 10.34 12.74 8 13 C7.6 11.82 7.6 11.82 7.19 10.62 C6.15 7.72 6.15 7.72 3 6 C1.01 5.61 -0.99 5.27 -3 5 C-2.34 4.01 -1.68 3.02 -1 2 C-0.67 1.34 -0.34 0.68 0 0 Z " fill="#0F102D" transform="translate(45,106)"/>
<path d="M0 0 C0.66 0 1.32 0 2 0 C4 3 4 3 4 7 C4.66 7 5.32 7 6 7 C6 7.99 6 8.98 6 10 C6.66 10 7.32 10 8 10 C8.33 11.98 8.66 13.96 9 16 C9.66 16 10.32 16 11 16 C10.67 13.69 10.34 11.38 10 9 C10.66 9 11.32 9 12 9 C12 9.66 12 10.32 12 11 C12.66 11 13.32 11 14 11 C13.67 12.98 13.34 14.96 13 17 C13.66 17 14.32 17 15 17 C15 16.34 15 15.68 15 15 C15.99 15 16.98 15 18 15 C18 15.66 18 16.32 18 17 C17.34 17 16.68 17 16 17 C15.94 17.78 15.88 18.57 15.81 19.38 C15 22 15 22 12.69 23.44 C10 24 10 24 7.75 23.5 C5.22 21.33 5.4 19.23 5 16 C4.34 15.01 3.68 14.02 3 13 C1.3 10.04 0.67 7.64 0.38 4.25 C0.3 3.45 0.23 2.65 0.15 1.83 C0.1 1.22 0.05 0.62 0 0 Z " fill="#261612" transform="translate(157,81)"/>
<path d="M0 0 C0.66 0 1.32 0 2 0 C1.67 1.98 1.34 3.96 1 6 C1.66 6 2.32 6 3 6 C3 7.32 3 8.64 3 10 C2.34 10 1.68 10 1 10 C1 14.95 1 19.9 1 25 C-2.63 26.65 -6.26 28.3 -10 30 C-9.25 21.38 -9.25 21.38 -7 18 C-6.34 18 -5.68 18 -5 18 C-4.34 16.35 -3.68 14.7 -3 13 C-2.34 13 -1.68 13 -1 13 C-1.21 11.97 -1.41 10.94 -1.62 9.88 C-2.01 5.88 -1.52 3.66 0 0 Z " fill="#72342D" transform="translate(68,32)"/>
<path d="M0 0 C1.42 -0.05 2.83 -0.09 4.25 -0.12 C5.04 -0.15 5.83 -0.17 6.64 -0.2 C9.21 0.02 10.79 0.71 13 2 C11.12 6.75 11.12 6.75 10 9 C10.66 9 11.32 9 12 9 C11.67 9.99 11.34 10.98 11 12 C8 13 8 13 5 12 C5 12.66 5 13.32 5 14 C3.35 13.67 1.7 13.34 0 13 C0 12.01 0 11.02 0 10 C0.66 10.33 1.32 10.66 2 11 C1.67 10.34 1.34 9.68 1 9 C1.66 9 2.32 9 3 9 C3 8.34 3 7.68 3 7 C2.01 7 1.02 7 0 7 C0 4.69 0 2.38 0 0 Z " fill="#3F3A53" transform="translate(113,133)"/>
<path d="M0 0 C0.33 0 0.66 0 1 0 C1.39 10.97 1.39 10.97 -1 16 C-1.99 16.66 -2.98 17.32 -4 18 C-4.33 17.34 -4.66 16.68 -5 16 C-5 17.65 -5 19.3 -5 21 C-5.66 21 -6.32 21 -7 21 C-6.67 22.65 -6.34 24.3 -6 26 C-7.65 24.68 -9.3 23.36 -11 22 C-10.01 22 -9.02 22 -8 22 C-8.23 21.45 -8.46 20.89 -8.69 20.32 C-8.98 19.6 -9.27 18.87 -9.56 18.12 C-9.85 17.41 -10.14 16.69 -10.44 15.95 C-11 14 -11 14 -10 12 C-9.34 12 -8.68 12 -8 12 C-8 10.68 -8 9.36 -8 8 C-7.34 8 -6.68 8 -6 8 C-6 6.68 -6 5.36 -6 4 C-5.38 3.9 -4.76 3.79 -4.12 3.69 C-1.63 3.12 -1.63 3.12 0 0 Z " fill="#855C4C" transform="translate(112,33)"/>
<path d="M0 0 C4.23 0.08 7.11 1.07 10.75 3.31 C9.76 3.81 9.76 3.81 8.75 4.31 C8.75 4.97 8.75 5.63 8.75 6.31 C10.4 6.31 12.05 6.31 13.75 6.31 C11.78 8.29 10.21 9.08 7.75 10.31 C7.09 10.97 6.43 11.63 5.75 12.31 C5.23 11.98 4.72 11.65 4.19 11.31 C1.63 10.08 1.63 10.08 -1.88 10.31 C-2.99 10.31 -4.1 10.31 -5.25 10.31 C-5.91 9.65 -6.57 8.99 -7.25 8.31 C-5.27 7.32 -3.29 6.33 -1.25 5.31 C-2.9 4.32 -4.55 3.33 -6.25 2.31 C-3.87 -0.07 -3.26 0.02 0 0 Z " fill="#8D341F" transform="translate(64.25,96.6875)"/>
<path d="M0 0 C0.43 0.66 0.87 1.32 1.31 2 C2.15 2.99 2.15 2.99 3 4 C3.99 4 4.98 4 6 4 C6.16 4.92 6.16 4.92 6.33 5.86 C6.49 6.67 6.65 7.48 6.81 8.31 C7.04 9.51 7.04 9.51 7.27 10.74 C8.08 13.26 9.11 14.21 11 16 C11.12 18.44 11.12 18.44 11 21 C11.51 23.99 11.79 24.79 14 27 C13.62 29.12 13.62 29.12 13 31 C12.67 30.34 12.34 29.68 12 29 C11.34 29 10.68 29 10 29 C9.59 28.09 9.18 27.19 8.75 26.25 C7.21 22.98 7.21 22.98 4.81 20.94 C3 19 3 19 2.75 16.25 C2.83 15.51 2.91 14.77 3 14 C2.34 13.67 1.68 13.34 1 13 C1.66 13 2.32 13 3 13 C2.4 10.98 1.73 8.98 1 7 C0.34 6.67 -0.32 6.34 -1 6 C-0.67 4.02 -0.34 2.04 0 0 Z " fill="#C07751" transform="translate(151,75)"/>
<path d="M0 0 C0.66 0.33 1.32 0.66 2 1 C-1.76 4.96 -3.72 6.86 -9.29 7.2 C-21.08 7.35 -21.08 7.35 -25.31 5.5 C-30.01 3.59 -34 3.22 -39 4 C-40.95 4.86 -40.95 4.86 -42.69 6 C-46.56 8.34 -48.55 8.58 -53 8 C-55.88 6.69 -55.88 6.69 -58 5 C-58.33 4.01 -58.66 3.02 -59 2 C-58.34 2 -57.68 2 -57 2 C-57 2.66 -57 3.32 -57 4 C-52.75 5.36 -48.21 6.01 -44.05 4.11 C-43.39 3.74 -42.74 3.38 -42.06 3 C-35.02 -0.81 -27.43 1.07 -20 3 C-19.17 3.39 -18.35 3.78 -17.5 4.19 C-13.32 5.54 -9.23 4.99 -5 4 C-1.93 2.14 -1.93 2.14 0 0 Z " fill="#BF6326" transform="translate(97,129)"/>
<path d="M0 0 C5.61 0.66 11.22 1.32 17 2 C17 2.33 17 2.66 17 3 C14.36 3 11.72 3 9 3 C9 4.32 9 5.64 9 7 C9.66 7 10.32 7 11 7 C11.33 6.34 11.66 5.68 12 5 C12 6.32 12 7.64 12 9 C13.32 8.67 14.64 8.34 16 8 C16.66 9.32 17.32 10.64 18 12 C17.01 12.66 16.02 13.32 15 14 C15 14.33 15 14.66 15 15 C15.66 15 16.32 15 17 15 C17 18.63 17 22.26 17 26 C16.34 26 15.68 26 15 26 C15 23.69 15 21.38 15 19 C14.34 19 13.68 19 13 19 C12.34 18.34 11.68 17.68 11 17 C11 16.01 11 15.02 11 14 C11.66 14 12.32 14 13 14 C13 13.34 13 12.68 13 12 C12.34 12 11.68 12 11 12 C11 11.01 11 10.02 11 9 C10.01 9.33 9.02 9.66 8 10 C7.67 9.34 7.34 8.68 7 8 C6.01 8.5 6.01 8.5 5 9 C4.73 8.22 4.46 7.43 4.19 6.62 C3.15 3.72 3.15 3.72 0 2 C0 1.34 0 0.68 0 0 Z " fill="#64221A" transform="translate(71,134)"/>
<path d="M0 0 C1.94 1.25 1.94 1.25 3 3 C3.04 4.67 3.05 6.33 3 8 C1.06 8.05 -0.87 8.09 -2.81 8.12 C-3.89 8.15 -4.97 8.17 -6.08 8.2 C-9 8 -9 8 -12 6 C-12 4.68 -12 3.36 -12 2 C-8.02 -1.5 -4.98 -1.29 0 0 Z " fill="#A44E22" transform="translate(50,112)"/>
<path d="M0 0 C0.79 0.08 1.59 0.16 2.41 0.24 C4.5 0.69 4.5 0.69 6.5 2.69 C5.18 3.02 3.86 3.35 2.5 3.69 C3.82 4.35 5.14 5.01 6.5 5.69 C4.86 6.28 4.86 6.28 3.19 6.88 C-0.41 8.39 -1.85 10.09 -3.5 13.69 C-4.16 13.36 -4.82 13.03 -5.5 12.69 C-3.85 10.38 -2.2 8.07 -0.5 5.69 C-2.81 6.02 -5.12 6.35 -7.5 6.69 C-7.58 7.29 -7.67 7.88 -7.75 8.5 C-8.7 11.28 -10.07 12.12 -12.5 13.69 C-11.38 10.72 -10.28 8.35 -8.5 5.69 C-9.68 6.4 -9.68 6.4 -10.88 7.12 C-12.39 8.03 -13.92 8.9 -15.5 9.69 C-14.35 7.22 -13.45 5.64 -11.5 3.69 C-10.18 3.69 -8.86 3.69 -7.5 3.69 C-7.17 2.7 -6.84 1.71 -6.5 0.69 C-4.03 -0.55 -2.73 -0.3 0 0 Z " fill="#845A39" transform="translate(94.5,168.3125)"/>
<path d="M0 0 C0.66 -0.33 1.32 -0.66 2 -1 C2.66 -0.67 3.32 -0.34 4 0 C4 -0.66 4 -1.32 4 -2 C4.66 -2 5.32 -2 6 -2 C6.12 -0.89 6.12 -0.89 6.25 0.25 C7.14 3.51 8.49 4.81 11 7 C6.25 5.12 6.25 5.12 4 4 C1.38 3.9 -1.2 3.86 -3.81 3.88 C-4.88 3.87 -4.88 3.87 -5.97 3.86 C-9.77 3.87 -13.3 4.09 -17 5 C-14.16 -1.51 -14.16 -1.51 -11.13 -2.79 C-6.44 -3.55 -3.93 -2.78 0 0 Z " fill="#724A45" transform="translate(118,125)"/>
<path d="M0 0 C3.06 0.25 3.06 0.25 6.06 2.25 C5.75 5.62 5.75 5.62 5.06 9.25 C1.97 11.31 1.35 11.49 -2.12 11.38 C-4.01 11.31 -4.01 11.31 -5.94 11.25 C-5.82 9.79 -5.7 8.33 -5.56 6.88 C-5.49 6.06 -5.42 5.25 -5.35 4.41 C-4.67 0.87 -3.52 0.3 0 0 Z " fill="#212026" transform="translate(66.9375,75.75)"/>
<path d="M0 0 C0.33 0 0.66 0 1 0 C1.33 1.65 1.66 3.3 2 5 C2.66 4.67 3.32 4.34 4 4 C4.66 5.98 5.32 7.96 6 10 C7.32 9.34 8.64 8.68 10 8 C10 10.97 10 13.94 10 17 C8.35 17.33 6.7 17.66 5 18 C5 18.66 5 19.32 5 20 C4.34 20 3.68 20 3 20 C0.06 13.69 -1.72 6.82 0 0 Z " fill="#376FA5" transform="translate(121,42)"/>
<path d="M0 0 C0.33 0.66 0.66 1.32 1 2 C1.66 2 2.32 2 3 2 C3.33 1.34 3.66 0.68 4 0 C4 1.98 4 3.96 4 6 C2.02 6.99 2.02 6.99 0 8 C0.66 8.66 1.32 9.32 2 10 C2.14 10.63 2.29 11.27 2.43 11.92 C3.13 14.46 4.16 15.47 6.06 17.25 C6.61 17.77 7.16 18.29 7.72 18.83 C8.35 19.41 8.35 19.41 9 20 C8.67 20.66 8.34 21.32 8 22 C5.36 19.36 2.72 16.72 0 14 C0 14.66 0 15.32 0 16 C-2.64 15.34 -5.28 14.68 -8 14 C-6.68 13.34 -5.36 12.68 -4 12 C-5.3 7.92 -5.3 7.92 -7 4 C-6.01 4 -5.02 4 -4 4 C-4.33 3.01 -4.66 2.02 -5 1 C-4.34 1 -3.68 1 -3 1 C-2.67 1.66 -2.34 2.32 -2 3 C-1.34 2.01 -0.68 1.02 0 0 Z " fill="#806772" transform="translate(131,67)"/>
<path d="M0 0 C1.32 0 2.64 0 4 0 C5.7 1.9 5.7 1.9 7.25 4.38 C7.77 5.19 8.29 6 8.83 6.84 C10 9 10 9 10 11 C9.34 11 8.68 11 8 11 C8 11.66 8 12.32 8 13 C6.68 12.34 5.36 11.68 4 11 C4.99 10.67 5.98 10.34 7 10 C7 9.01 7 8.02 7 7 C3.57 10.18 3.57 10.18 1 14 C0.01 14.5 0.01 14.5 -1 15 C-1 14.34 -1 13.68 -1 13 C-1.66 13 -2.32 13 -3 13 C-3.33 13.66 -3.66 14.32 -4 15 C-4.99 14.67 -5.98 14.34 -7 14 C-6.01 13.34 -5.02 12.68 -4 12 C-4 11.01 -4 10.02 -4 9 C-2.68 8.67 -1.36 8.34 0 8 C0.33 6.68 0.66 5.36 1 4 C0.01 4.33 -0.98 4.66 -2 5 C-1.34 3.35 -0.68 1.7 0 0 Z " fill="#5B3434" transform="translate(124,138)"/>
<path d="M0 0 C0.33 0 0.66 0 1 0 C1 4.62 1 9.24 1 14 C0.01 14 -0.98 14 -2 14 C-1.34 15.98 -0.68 17.96 0 20 C-1.65 20.33 -3.3 20.66 -5 21 C-8.22 15.73 -8.22 15.73 -9 14 C-8.67 13.34 -8.34 12.68 -8 12 C-7.34 12.33 -6.68 12.66 -6 13 C-6 12.01 -6 11.02 -6 10 C-5.34 10 -4.68 10 -4 10 C-4.33 8.02 -4.66 6.04 -5 4 C-4.01 4 -3.02 4 -2 4 C-1.34 2.68 -0.68 1.36 0 0 Z " fill="#E1B48A" transform="translate(111,44)"/>
<path d="M0 0 C0.33 0 0.66 0 1 0 C1.12 5.75 1.12 5.75 0 8 C0.66 8 1.32 8 2 8 C2 8.66 2 9.32 2 10 C2.66 10.33 3.32 10.66 4 11 C4 11.66 4 12.32 4 13 C3.01 13.5 3.01 13.5 2 14 C1.67 14.99 1.34 15.98 1 17 C-0.44 19.19 -0.44 19.19 -2 21 C-2.66 21 -3.32 21 -4 21 C-4 20.34 -4 19.68 -4 19 C-4.66 19 -5.32 19 -6 19 C-6.33 15.37 -6.66 11.74 -7 8 C-6.34 7.67 -5.68 7.34 -5 7 C-4.34 9.31 -3.68 11.62 -3 14 C-2.01 9.38 -1.02 4.76 0 0 Z " fill="#6B3230" transform="translate(98,143)"/>
<path d="M0 0 C1.94 0.5 1.94 0.5 4 2 C4.82 4.65 5.16 7.23 5 10 C4.01 11.48 4.01 11.48 3 13 C2.01 13 1.02 13 0 13 C0 13.66 0 14.32 0 15 C1.32 15.33 2.64 15.66 4 16 C3.34 16.66 2.68 17.32 2 18 C1.01 18 0.02 18 -1 18 C-1 17.34 -1 16.68 -1 16 C-2.32 15.67 -3.64 15.34 -5 15 C-5.33 13.68 -5.66 12.36 -6 11 C-4.02 10.01 -2.04 9.02 0 8 C0 5.36 0 2.72 0 0 Z " fill="#4C302C" transform="translate(132,17)"/>
<path d="M0 0 C2.13 2.13 2.53 3.1 3 6 C2.67 6.33 2.34 6.66 2 7 C1.96 9.33 1.96 11.67 2 14 C2.99 14 3.98 14 5 14 C5 15.32 5 16.64 5 18 C5.66 18 6.32 18 7 18 C9 21 9 21 9 25 C9.66 25.33 10.32 25.66 11 26 C10.34 26.66 9.68 27.32 9 28 C8.01 27.67 7.02 27.34 6 27 C5.67 25.02 5.34 23.04 5 21 C4.01 21 3.02 21 2 21 C2 20.34 2 19.68 2 19 C1.34 19 0.68 19 0 19 C-0.33 17.02 -0.66 15.04 -1 13 C-1.99 13.33 -2.98 13.66 -4 14 C-3.69 13.42 -3.38 12.84 -3.06 12.25 C-1.6 9.15 -1 6.75 -1 3.31 C-1 1 -1 1 0 0 Z " fill="#895E50" transform="translate(136,49)"/>
<path d="M0 0 C6.36 0.48 6.36 0.48 9.06 2.69 C10 5 10 5 9.19 8.25 C8.8 9.16 8.4 10.06 8 11 C5.04 10.39 3.62 9.75 1 8 C0.34 7.67 -0.32 7.34 -1 7 C-0.67 6.34 -0.34 5.68 0 5 C-1.32 5.33 -2.64 5.66 -4 6 C-4.33 5.01 -4.66 4.02 -5 3 C-3.35 2.67 -1.7 2.34 0 2 C0 1.34 0 0.68 0 0 Z " fill="#8D7977" transform="translate(82,84)"/>
<path d="M0 0 C0 3.64 -0.78 6.89 -1.56 10.43 C-2.08 13 -2.08 13 -1.94 15.64 C-2.03 19.05 -3.77 20.56 -6 23 C-4.68 22.01 -3.36 21.02 -2 20 C-2.33 21.65 -2.66 23.3 -3 25 C-4.32 25 -5.64 25 -7 25 C-7.97 21.88 -7.99 19.48 -7.56 16.25 C-7.46 15.45 -7.36 14.65 -7.25 13.83 C-7.17 13.22 -7.09 12.62 -7 12 C-6.34 12 -5.68 12 -5 12 C-4.97 11.3 -4.95 10.6 -4.92 9.88 C-4.87 8.97 -4.81 8.06 -4.75 7.12 C-4.7 6.22 -4.66 5.32 -4.61 4.38 C-4 2 -4 2 -1.95 0.68 C-1.31 0.46 -0.66 0.23 0 0 Z " fill="#997564" transform="translate(138,40)"/>
<path d="M0 0 C2.62 0.94 2.62 0.94 5 2 C5 2.66 5 3.32 5 4 C5.63 3.98 6.25 3.95 6.9 3.93 C7.72 3.91 8.53 3.89 9.38 3.88 C10.19 3.85 11 3.83 11.84 3.8 C14 4 14 4 16 6 C15.67 6.99 15.34 7.98 15 9 C14.34 9 13.68 9 13 9 C13 8.34 13 7.68 13 7 C7.92 6.89 7.92 6.89 3 8 C0.65 7.4 -1.69 6.74 -4 6 C-2.25 1.12 -2.25 1.12 0 0 Z " fill="#75453D" transform="translate(73,90)"/>
<path d="M0 0 C1.32 0.33 2.64 0.66 4 1 C4.23 2.05 4.45 3.1 4.69 4.19 C5.79 8.18 8.01 10.16 11 13 C11 15 11 17 11 19 C11.99 19.33 12.98 19.66 14 20 C13.34 20.33 12.68 20.66 12 21 C11.01 20.67 10.02 20.34 9 20 C8.67 19.01 8.34 18.02 8 17 C7.01 16.34 6.02 15.68 5 15 C2.56 10.12 1.21 5.31 0 0 Z " fill="#D39662" transform="translate(102,68)"/>
<path d="M0 0 C-0.66 1.32 -1.32 2.64 -2 4 C0.17 6.5 1.73 7.44 5 8 C5 8.66 5 9.32 5 10 C3.02 10.33 1.04 10.66 -1 11 C-1.43 12.64 -1.43 12.64 -1.88 14.31 C-3 18 -3 18 -5 21 C-6.32 20.67 -7.64 20.34 -9 20 C-7.85 17.53 -6.95 15.95 -5 14 C-3.99 10.85 -3.59 8.2 -4.69 5 C-4.79 4.34 -4.89 3.68 -5 3 C-3.38 0.85 -2.75 0 0 0 Z " fill="#402515" transform="translate(171,129)"/>
<path d="M0 0 C0.21 0.64 0.41 1.28 0.62 1.94 C1.9 4.35 1.9 4.35 5.12 4.75 C6.07 4.83 7.02 4.91 8 5 C9 8 9 8 9 10 C9.66 10 10.32 10 11 10 C11 10.66 11 11.32 11 12 C11.99 11.67 12.98 11.34 14 11 C14 14.27 13.7 16.85 13 20 C12.34 20 11.68 20 11 20 C10.67 18.68 10.34 17.36 10 16 C9.34 16 8.68 16 8 16 C7.67 16.66 7.34 17.32 7 18 C6.34 16.68 5.68 15.36 5 14 C5.99 13.34 6.98 12.68 8 12 C7.24 11.05 6.47 10.1 5.69 9.12 C5.26 8.59 4.83 8.06 4.39 7.51 C2.88 5.75 2.88 5.75 0 4 C0 2.68 0 1.36 0 0 Z " fill="#58394E" transform="translate(124,124)"/>
<path d="M0 0 C0.33 1.98 0.66 3.96 1 6 C1.66 6 2.32 6 3 6 C3.33 4.68 3.66 3.36 4 2 C4.66 2.66 5.32 3.32 6 4 C5.62 6.62 5.62 6.62 5 9 C4.01 9 3.02 9 2 9 C2 8.34 2 7.68 2 7 C1.34 7 0.68 7 0 7 C-0.66 6.34 -1.32 5.68 -2 5 C-5.17 6.83 -5.17 6.83 -7 10 C-7.99 10.66 -8.98 11.32 -10 12 C-10.12 6.25 -10.12 6.25 -9 4 C-8.34 4 -7.68 4 -7 4 C-6.67 3.01 -6.34 2.02 -6 1 C-3 0 -3 0 0 0 Z " fill="#936F60" transform="translate(124,30)"/>
<path d="M0 0 C0 0.33 0 0.66 0 1 C-0.76 1.09 -1.52 1.17 -2.3 1.26 C-8.52 1.91 -8.52 1.91 -13.19 5.62 C-13.46 6.41 -13.72 7.19 -14 8 C-14.33 7.34 -14.66 6.68 -15 6 C-13.56 3.38 -13.56 3.38 -12 1 C-14.88 2.44 -16.77 4.71 -19 7 C-19.62 5.19 -19.62 5.19 -20 3 C-15.28 -4.08 -7.14 -2.79 0 0 Z " fill="#99653E" transform="translate(71,168)"/>
<path d="M0 0 C2.81 -0.25 2.81 -0.25 6 0 C7.94 1.75 7.94 1.75 9 4 C9 6.06 9 6.06 8 8 C5.62 9.81 5.62 9.81 3 11 C2.01 10.67 1.02 10.34 0 10 C0 6.7 0 3.4 0 0 Z " fill="#E79145" transform="translate(60,106)"/>
<path d="M0 0 C1.98 0.5 1.98 0.5 4 1 C4 1.66 4 2.32 4 3 C5.98 3 7.96 3 10 3 C9.67 3.66 9.34 4.32 9 5 C10.98 5.99 12.96 6.98 15 8 C15 8.33 15 8.66 15 9 C10.55 9.5 10.55 9.5 6 10 C6 9.34 6 8.68 6 8 C4.35 8 2.7 8 1 8 C1 7.01 1 6.02 1 5 C0.34 4.67 -0.32 4.34 -1 4 C-0.67 2.68 -0.34 1.36 0 0 Z " fill="#D67D3D" transform="translate(50,94)"/>
<path d="M0 0 C2 0 4 0 6 0 C4.89 3.34 3.53 4.64 1 7 C1.66 7 2.32 7 3 7 C3.33 7.99 3.66 8.98 4 10 C3.01 10.99 2.02 11.98 1 13 C0.67 12.01 0.34 11.02 0 10 C-0.66 10 -1.32 10 -2 10 C-2.33 12.64 -2.66 15.28 -3 18 C-3.33 17.34 -3.66 16.68 -4 16 C-4.66 16 -5.32 16 -6 16 C-5.67 12.7 -5.34 9.4 -5 6 C-4.01 6.33 -3.02 6.66 -2 7 C-2.66 7 -3.32 7 -4 7 C-3.67 7.66 -3.34 8.32 -3 9 C-2.01 8.67 -1.02 8.34 0 8 C0 5.36 0 2.72 0 0 Z " fill="#A6673B" transform="translate(48,80)"/>
<path d="M0 0 C0.37 5.55 0.37 5.55 -1.44 7.75 C-2.21 8.37 -2.21 8.37 -3 9 C-3.33 9.66 -3.66 10.32 -4 11 C-4.66 11 -5.32 11 -6 11 C-7.58 15.33 -8.45 19.43 -9 24 C-9.33 24 -9.66 24 -10 24 C-10.36 16.58 -10.6 10.22 -5.5 4.24 C-1.4 0 -1.4 0 0 0 Z " fill="#BB8662" transform="translate(67,39)"/>
<path d="M0 0 C1.98 0.5 1.98 0.5 4 1 C4.56 3.08 5.1 5.16 5.62 7.25 C5.93 8.41 6.23 9.57 6.54 10.77 C7.02 14.16 6.93 15.26 5 18 C3.38 19.75 3.38 19.75 2 21 C0.88 17.7 1.1 15.95 2.44 12.75 C2.72 12.04 3.01 11.34 3.31 10.61 C3.65 9.81 3.65 9.81 4 9 C2.35 9.33 0.7 9.66 -1 10 C-1 9.34 -1 8.68 -1 8 C-0.34 8 0.32 8 1 8 C1.08 4.96 0.98 2.93 0 0 Z " fill="#31242C" transform="translate(88,18)"/>
<path d="M0 0 C1.65 0 3.3 0 5 0 C5 0.66 5 1.32 5 2 C8.01 2.93 8.87 3.04 12 2 C11.67 3.32 11.34 4.64 11 6 C6.25 4.12 6.25 4.12 4 3 C4 3.66 4 4.32 4 5 C4.8 5.29 5.61 5.58 6.44 5.88 C9 7 9 7 10 9 C5.71 8.34 1.42 7.68 -3 7 C-2.67 5.68 -2.34 4.36 -2 3 C-1.34 3 -0.68 3 0 3 C0 2.01 0 1.02 0 0 Z " fill="#A0633F" transform="translate(80,106)"/>
<path d="M0 0 C0.33 0.66 0.66 1.32 1 2 C1.66 2.33 2.32 2.66 3 3 C3 4.67 3 6.33 3 8 C4.32 7.67 5.64 7.34 7 7 C7 7.66 7 8.32 7 9 C3.56 11.29 2.01 11.18 -2 11 C-2 10.34 -2 9.68 -2 9 C-2.99 9 -3.98 9 -5 9 C-5.66 9.66 -6.32 10.32 -7 11 C-7.33 10.01 -7.66 9.02 -8 8 C-4.77 5.85 -3.72 5.8 0 6 C-0.99 5.34 -1.98 4.68 -3 4 C-2.67 3.01 -2.34 2.02 -2 1 C-1.34 0.67 -0.68 0.34 0 0 Z " fill="#7A5E57" transform="translate(114,104)"/>
<path d="M0 0 C6.65 3.2 6.65 3.2 8.44 7.25 C8.62 8.16 8.81 9.06 9 10 C8.34 10 7.68 10 7 10 C7 11.32 7 12.64 7 14 C5.35 13.67 3.7 13.34 2 13 C1.88 12.36 1.75 11.72 1.62 11.06 C1.42 10.38 1.21 9.7 1 9 C0.34 8.67 -0.32 8.34 -1 8 C-0.34 8 0.32 8 1 8 C1.08 4.96 0.98 2.93 0 0 Z " fill="#4C3943" transform="translate(101,140)"/>
<path d="M0 0 C0.33 0 0.66 0 1 0 C1.99 4.62 2.98 9.24 4 14 C0 15 0 15 -2.75 13.69 C-3.49 13.13 -4.23 12.57 -5 12 C-5 11.34 -5 10.68 -5 10 C-6.32 9.34 -7.64 8.68 -9 8 C-8.05 8.04 -7.1 8.08 -6.12 8.12 C-2.9 8.35 -2.9 8.35 -1 6 C-0.6 4.01 -0.26 2.01 0 0 Z " fill="#60484D" transform="translate(90,70)"/>
<path d="M0 0 C3.93 -0.18 6.7 -0.25 10 2 C10.83 4.16 10.83 4.16 11.25 6.62 C11.4 7.44 11.55 8.26 11.7 9.1 C11.85 10.04 11.85 10.04 12 11 C10.68 10.34 9.36 9.68 8 9 C8 8.34 8 7.68 8 7 C7.01 7.33 6.02 7.66 5 8 C5 7.34 5 6.68 5 6 C4.01 6 3.02 6 2 6 C1.34 4.02 0.68 2.04 0 0 Z " fill="#60507E" transform="translate(124,122)"/>
<path d="M0 0 C0.66 0 1.32 0 2 0 C4 3 4 3 4 7 C4.66 7 5.32 7 6 7 C6 7.99 6 8.98 6 10 C6.66 10 7.32 10 8 10 C7.98 10.89 7.96 11.77 7.94 12.69 C7.99 15.62 8.33 18.15 9 21 C8.01 21.33 7.02 21.66 6 22 C5.88 21.07 5.75 20.14 5.62 19.19 C5.18 15.86 5.18 15.86 3 13 C1.3 10.04 0.67 7.64 0.38 4.25 C0.3 3.45 0.23 2.65 0.15 1.83 C0.1 1.22 0.05 0.62 0 0 Z " fill="#653928" transform="translate(157,81)"/>
<path d="M0 0 C2.31 0.33 4.62 0.66 7 1 C7 2.32 7 3.64 7 5 C7.93 7.2 7.93 7.2 9 9 C7.68 8.34 6.36 7.68 5 7 C5.99 8.32 6.98 9.64 8 11 C4.7 11.66 1.4 12.32 -2 13 C-2.33 12.34 -2.66 11.68 -3 11 C-2.34 10.67 -1.68 10.34 -1 10 C-1.66 9.67 -2.32 9.34 -3 9 C-3 8.34 -3 7.68 -3 7 C0.88 7.88 0.88 7.88 2 9 C2.33 6.69 2.66 4.38 3 2 C2.01 2 1.02 2 0 2 C0 1.34 0 0.68 0 0 Z " fill="#715F7A" transform="translate(121,109)"/>
<path d="M0 0 C0.66 0 1.32 0 2 0 C1.67 1.98 1.34 3.96 1 6 C1.66 6 2.32 6 3 6 C3 7.32 3 8.64 3 10 C2.34 10 1.68 10 1 10 C1 14.95 1 19.9 1 25 C0.34 25 -0.32 25 -1 25 C-1.33 23.02 -1.66 21.04 -2 19 C-2.66 19 -3.32 19 -4 19 C-4.33 18.01 -4.66 17.02 -5 16 C-4.34 15.01 -3.68 14.02 -3 13 C-2.34 13 -1.68 13 -1 13 C-1.31 11.45 -1.31 11.45 -1.62 9.88 C-2.01 5.88 -1.52 3.66 0 0 Z " fill="#77524B" transform="translate(68,32)"/>
<path d="M0 0 C3.45 1.25 6.36 2.41 9 5 C9.17 7.7 9.17 7.7 8.75 10.69 C8.62 11.68 8.49 12.68 8.36 13.7 C8.24 14.46 8.12 15.22 8 16 C7.67 14.68 7.34 13.36 7 12 C2.55 11.01 2.55 11.01 -2 10 C-2 9.67 -2 9.34 -2 9 C-0.35 9 1.3 9 3 9 C3 8.34 3 7.68 3 7 C2.34 6.67 1.68 6.34 1 6 C1.66 5.67 2.32 5.34 3 5 C2.26 4.32 2.26 4.32 1.5 3.62 C0 2 0 2 0 0 Z " fill="#533729" transform="translate(32,84)"/>
<path d="M0 0 C0 0.99 0 1.98 0 3 C0.45 2.5 0.91 2.01 1.38 1.5 C3 0 3 0 5 0 C5 0.66 5 1.32 5 2 C4.24 2.7 3.47 3.4 2.69 4.12 C-0.61 7.65 -1.53 10.44 -3 15 C-4.64 11.72 -3.52 8.57 -3 5 C-4.32 5.33 -5.64 5.66 -7 6 C-7.33 5.34 -7.66 4.68 -8 4 C-11.03 3.34 -11.03 3.34 -14 3 C-14 2.67 -14 2.34 -14 2 C-12.23 1.66 -10.46 1.33 -8.69 1 C-7.7 0.81 -6.72 0.63 -5.7 0.44 C-3 0 -3 0 0 0 Z " fill="#1D0406" transform="translate(94,135)"/>
<path d="M0 0 C0.66 0 1.32 0 2 0 C2 0.99 2 1.98 2 3 C2.66 3 3.32 3 4 3 C4 3.66 4 4.32 4 5 C3.67 5.33 3.34 5.66 3 6 C3.33 6 3.66 6 4 6 C4.25 9.31 4.25 9.31 4 13 C2 14.94 2 14.94 0 16 C-0.99 15.01 -1.98 14.02 -3 13 C-2.34 13 -1.68 13 -1 13 C-1.01 12.15 -1.02 11.29 -1.04 10.41 C-1.04 9.31 -1.05 8.2 -1.06 7.06 C-1.07 5.96 -1.09 4.86 -1.1 3.72 C-1 1 -1 1 0 0 Z " fill="#A24A2E" transform="translate(80,143)"/>
<path d="M0 0 C1.71 1.28 3.37 2.62 5 4 C5 4.66 5 5.32 5 6 C4.34 6.66 3.68 7.32 3 8 C2.67 8.66 2.34 9.32 2 10 C1.34 9.67 0.68 9.34 0 9 C0 9.99 0 10.98 0 12 C-1.67 10.67 -3.33 9.33 -5 8 C-5.93 7.3 -6.86 6.6 -7.81 5.88 C-8.9 4.95 -8.9 4.95 -10 4 C-10 3.34 -10 2.68 -10 2 C-6.65 2.95 -3.31 3.9 0 5 C0 3.35 0 1.7 0 0 Z " fill="#684634" transform="translate(94,107)"/>
<path d="M0 0 C-0.99 0.66 -1.98 1.32 -3 2 C-2.67 2.66 -2.34 3.32 -2 4 C-9.43 8.43 -9.43 8.43 -13 9 C-13 8.01 -13 7.02 -13 6 C-12.34 6 -11.68 6 -11 6 C-11 5.01 -11 4.02 -11 3 C-9.14 0.74 -7.65 -0.73 -4.94 -1.88 C-3 -2 -3 -2 0 0 Z " fill="#813A19" transform="translate(162,159)"/>
<path d="M0 0 C4.75 0.75 4.75 0.75 7 3 C6.67 3.33 6.34 3.66 6 4 C9.3 4 12.6 4 16 4 C13 7 13 7 10.66 7.4 C9.8 7.39 8.95 7.38 8.06 7.38 C6.78 7.39 6.78 7.39 5.47 7.4 C2.58 6.93 1.18 5.91 -1 4 C-0.67 2.68 -0.34 1.36 0 0 Z " fill="#5D331F" transform="translate(36,118)"/>
<path d="M0 0 C0.43 0.66 0.87 1.32 1.31 2 C2.15 2.99 2.15 2.99 3 4 C3.99 4 4.98 4 6 4 C6.8 7.29 7.1 8.71 6 12 C5.34 12 4.68 12 4 12 C4.33 12.74 4.66 13.48 5 14.25 C6 17 6 17 6 21 C5.01 20.34 4.02 19.68 3 19 C2.81 16.38 2.81 16.38 3 14 C2.34 13.67 1.68 13.34 1 13 C1.66 13 2.32 13 3 13 C2.4 10.98 1.73 8.98 1 7 C0.34 6.67 -0.32 6.34 -1 6 C-0.67 4.02 -0.34 2.04 0 0 Z " fill="#935F50" transform="translate(151,75)"/>
<path d="M0 0 C4.43 1.39 6.87 3.61 10 7 C11.98 5.68 13.96 4.36 16 3 C16.62 4.81 16.62 4.81 17 7 C16.01 8.48 16.01 8.48 15 10 C14.67 9.01 14.34 8.02 14 7 C14 7.99 14 8.98 14 10 C13.67 10.66 13.34 11.32 13 12 C12.54 11.65 12.08 11.3 11.61 10.94 C11 10.49 10.38 10.03 9.75 9.56 C9.15 9.11 8.54 8.66 7.92 8.19 C6.06 6.89 6.06 6.89 3.84 6.53 C3.24 6.36 2.63 6.18 2 6 C0.75 2.94 0.75 2.94 0 0 Z " fill="#3E5278" transform="translate(114,61)"/>
<path d="M0 0 C0.99 0.33 1.98 0.66 3 1 C2.67 1.99 2.34 2.98 2 4 C2.66 4 3.32 4 4 4 C5 11.62 5 11.62 5 15 C3.35 14.67 1.7 14.34 0 14 C0 13.34 0 12.68 0 12 C0.66 11.67 1.32 11.34 2 11 C0.35 10.67 -1.3 10.34 -3 10 C-2.62 7.56 -2.62 7.56 -2 5 C-1.34 4.67 -0.68 4.34 0 4 C0 2.68 0 1.36 0 0 Z " fill="#373037" transform="translate(99,62)"/>
<path d="M0 0 C2.5 2.17 3.44 3.73 4 7 C3.34 7 2.68 7 2 7 C1.34 8.65 0.68 10.3 0 12 C-1 10 -1 10 -1 7 C-1.66 7.66 -2.32 8.32 -3 9 C-5 9.69 -5 9.69 -7 10 C-7.66 9.67 -8.32 9.34 -9 9 C-9 8.01 -9 7.02 -9 6 C-5.53 5.51 -5.53 5.51 -2 5 C-1.34 3.35 -0.68 1.7 0 0 Z " fill="#695D6B" transform="translate(93,33)"/>
<path d="M0 0 C2.87 0.57 3.86 0.86 6 3 C5.67 3.33 5.34 3.66 5 4 C5.66 4.66 6.32 5.32 7 6 C6.67 6.33 6.34 6.66 6 7 C7.98 6.67 9.96 6.34 12 6 C11.67 6.99 11.34 7.98 11 9 C8 10 8 10 5 9 C5 9.66 5 10.32 5 11 C3.35 10.67 1.7 10.34 0 10 C0 9.01 0 8.02 0 7 C0.66 7.33 1.32 7.66 2 8 C1.67 7.34 1.34 6.68 1 6 C1.66 6 2.32 6 3 6 C3 5.34 3 4.68 3 4 C2.01 4 1.02 4 0 4 C0 2.68 0 1.36 0 0 Z " fill="#6B585B" transform="translate(113,136)"/>
<path d="M0 0 C0.33 0.66 0.66 1.32 1 2 C-1.76 4.76 -4.21 4.58 -8 5 C-8.66 7.64 -9.32 10.28 -10 13 C-13 9.64 -13 9.64 -13 7 C-10.3 1.59 -5.64 -0.15 0 0 Z " fill="#AB745B" transform="translate(111,131)"/>
<path d="M0 0 C0 3 0 3 -1.5 5.25 C-3.37 8.68 -3.23 11.15 -3 15 C-3.99 15 -4.98 15 -6 15 C-6.33 18.63 -6.66 22.26 -7 26 C-7.66 25.67 -8.32 25.34 -9 25 C-8.6 15.61 -6.58 7.05 0 0 Z " fill="#C6976E" transform="translate(49,70)"/>
<path d="M0 0 C4.45 0.99 4.45 0.99 9 2 C7 6 7 6 5 6.75 C0.66 7.11 -3.65 7.08 -8 7 C-5.24 4.24 -2.79 4.42 1 4 C-1.97 3.5 -1.97 3.5 -5 3 C-5 2.34 -5 1.68 -5 1 C-3.35 1 -1.7 1 0 1 C0 0.67 0 0.34 0 0 Z " fill="#301712" transform="translate(28,87)"/>
<path d="M0 0 C1.89 2.39 3.02 4.07 4 7 C6.18 10.12 8.62 13.04 11 16 C10.67 16.66 10.34 17.32 10 18 C9.57 17.34 9.13 16.68 8.69 16 C7.85 15.01 7.85 15.01 7 14 C6.01 14 5.02 14 4 14 C3.01 14 2.02 14 1 14 C-0.38 11.24 -0.1 8.95 -0.06 5.88 C-0.05 4.78 -0.04 3.68 -0.04 2.55 C-0.02 1.71 -0.01 0.87 0 0 Z " fill="#C76838" transform="translate(66,142)"/>
<path d="M0 0 C2 2 2 2 2 5 C1.26 4.79 0.52 4.59 -0.25 4.38 C-3.32 3.96 -4.43 4.38 -7 6 C-7.33 5.01 -7.66 4.02 -8 3 C-8.99 3.33 -9.98 3.66 -11 4 C-8.39 -1.77 -6.01 -1.18 0 0 Z " fill="#D09563" transform="translate(50,112)"/>
<path d="M0 0 C0.9 0.02 1.8 0.04 2.73 0.05 C3.42 0.08 4.1 0.1 4.81 0.12 C4.81 1.11 4.81 2.11 4.81 3.12 C4.15 3.12 3.49 3.12 2.81 3.12 C2.81 3.78 2.81 4.44 2.81 5.12 C3.47 5.78 4.13 6.44 4.81 7.12 C3.49 7.12 2.17 7.12 0.81 7.12 C0.81 6.47 0.81 5.81 0.81 5.12 C0.07 5 -0.67 4.88 -1.44 4.75 C-3.99 4.17 -5.91 3.39 -8.19 2.12 C-4.87 -0.08 -3.84 -0.1 0 0 Z " fill="#3F1A1E" transform="translate(68.1875,87.875)"/>
<path d="M0 0 C1.88 3.17 2.1 5.36 2 9 C2.33 9.66 2.66 10.32 3 11 C1.58 11.43 1.58 11.43 0.12 11.88 C-3.05 12.77 -3.05 12.77 -5 15 C-5 12.69 -5 10.38 -5 8 C-4.01 8 -3.02 8 -2 8 C-2 5.69 -2 3.38 -2 1 C-1.34 0.67 -0.68 0.34 0 0 Z " fill="#738A9D" transform="translate(116,42)"/>
<path d="M0 0 C2.25 2.05 3 3.01 4 6 C4.99 6.66 5.98 7.32 7 8 C7 8.99 7 9.98 7 11 C7.66 11 8.32 11 9 11 C9 11.99 9 12.98 9 14 C9.66 14.33 10.32 14.66 11 15 C11.33 15.66 11.66 16.32 12 17 C10.35 17.66 8.7 18.32 7 19 C5.68 17.68 4.36 16.36 3 15 C4.32 15 5.64 15 7 15 C5.79 11.48 5.79 11.48 3.56 8.56 C1.36 6.36 0.3 3.8 -1 1 C-0.67 0.67 -0.34 0.34 0 0 Z " fill="#352930" transform="translate(104,77)"/>
<path d="M0 0 C0.76 0.31 1.53 0.62 2.31 0.94 C4.19 1.68 6.09 2.36 8 3 C8.1 3.93 8.21 4.86 8.31 5.81 C9.01 9.03 9.48 10.03 12 12 C7.02 10.73 4.25 9 1 5 C0.19 2.19 0.19 2.19 0 0 Z " fill="#5E5374" transform="translate(131,85)"/>
<path d="M0 0 C4.98 0.04 8.75 2.11 12.44 5.38 C12.77 6.37 13.1 7.35 13.44 8.38 C12.92 8.09 12.41 7.8 11.88 7.5 C7.9 5.67 4.03 4.34 -0.38 4.44 C-1.46 4.41 -1.46 4.41 -2.56 4.38 C-3.22 3.38 -3.88 2.4 -4.56 1.38 C-3.56 0.38 -3.56 0.38 0 0 Z " fill="#7D8499" transform="translate(117.5625,129.625)"/>
<path d="M0 0 C1.32 0 2.64 0 4 0 C4 0.99 4 1.98 4 3 C4.66 3 5.32 3 6 3 C6.12 3.54 6.25 4.07 6.38 4.62 C7.12 7.46 8.05 10.22 9 13 C8.34 13 7.68 13 7 13 C7 12.34 7 11.68 7 11 C5.35 10.67 3.7 10.34 2 10 C1.67 8.35 1.34 6.7 1 5 C1.66 5 2.32 5 3 5 C2.34 4.67 1.68 4.34 1 4 C0.38 1.94 0.38 1.94 0 0 Z " fill="#96543D" transform="translate(112,83)"/>
<path d="M0 0 C0.66 0 1.32 0 2 0 C2 0.66 2 1.32 2 2 C5.71 3.19 9.13 3.27 13 3 C13.95 2.5 14.9 2.01 15.88 1.5 C20.01 -0.49 23.49 -0.27 28 0 C28 0.33 28 0.66 28 1 C27.34 1.11 26.67 1.22 25.99 1.33 C20.41 2.29 20.41 2.29 15.31 4.62 C12.05 6.57 9.73 6.4 6 6 C3.12 4.69 3.12 4.69 1 3 C0.67 2.01 0.34 1.02 0 0 Z " fill="#90582A" transform="translate(38,131)"/>
<path d="M0 0 C1.15 0.95 2.29 1.91 3.44 2.88 C4.39 3.68 4.39 3.68 5.37 4.49 C7 6 7 6 8 8 C3.25 6.12 3.25 6.12 1 5 C1.33 6.65 1.66 8.3 2 10 C-1.65 8.75 -2.78 8.33 -5 5 C-4.17 4.55 -3.35 4.09 -2.5 3.62 C-1.26 2.82 -1.26 2.82 0 2 C0 1.34 0 0.68 0 0 Z " fill="#3D3056" transform="translate(130,80)"/>
<path d="M0 0 C0.62 0.47 1.24 0.95 1.88 1.44 C3.91 3.02 3.91 3.02 6 4 C6.66 3.01 7.32 2.02 8 1 C9 2 9 2 9.06 5.06 C9.04 6.03 9.02 7 9 8 C8.34 8 7.68 8 7 8 C7 7.34 7 6.68 7 6 C6.34 6 5.68 6 5 6 C4.67 6.99 4.34 7.98 4 9 C2.35 7.68 0.7 6.36 -1 5 C-0.67 3.35 -0.34 1.7 0 0 Z " fill="#394D80" transform="translate(133,75)"/>
<path d="M0 0 C0.12 1.67 0.12 1.67 0.25 3.38 C0.58 7.06 0.58 7.06 3.06 8.44 C3.7 8.62 4.34 8.81 5 9 C5 9.66 5 10.32 5 11 C4.34 11 3.68 11 3 11 C2.67 11.66 2.34 12.32 2 13 C1.55 12.24 1.09 11.47 0.62 10.69 C-0.54 8.76 -1.75 6.87 -3 5 C-5.58 4.75 -5.58 4.75 -8 5 C-6.68 4.67 -5.36 4.34 -4 4 C-4 3.01 -4 2.02 -4 1 C-2 0 -2 0 0 0 Z " fill="#291714" transform="translate(151,28)"/>
<path d="M0 0 C0.66 0.33 1.32 0.66 2 1 C2.33 1 2.66 1 3 1 C3.99 1.33 4.98 1.66 6 2 C1.25 5 1.25 5 -1 5 C-0.65 5.76 -0.3 6.53 0.06 7.31 C1 10 1 10 0 13 C-0.66 13 -1.32 13 -2 13 C-2.23 10.98 -2.46 8.96 -2.68 6.95 C-2.91 4.93 -2.91 4.93 -4 3 C-3 1 -3 1 0 0 Z " fill="#6F5142" transform="translate(127,23)"/>
<path d="M0 0 C0 3 0 3 -2 6 C-1.67 6.99 -1.34 7.98 -1 9 C-1.19 11.06 -1.19 11.06 -2 13 C-4.06 14.25 -4.06 14.25 -6 15 C-7.32 9.98 -7.32 9.98 -7 7 C-5.02 4.22 -2.66 2.12 0 0 Z " fill="#BB672F" transform="translate(169,127)"/>
<path d="M0 0 C-1.98 0.99 -1.98 0.99 -4 2 C-2.68 2.66 -1.36 3.32 0 4 C-1.64 4.59 -1.64 4.59 -3.31 5.19 C-6.91 6.7 -8.35 8.4 -10 12 C-10.66 11.67 -11.32 11.34 -12 11 C-10.35 8.69 -8.7 6.38 -7 4 C-8.98 4 -10.96 4 -13 4 C-9.47 -0.27 -5.25 -0.15 0 0 Z " fill="#A67244" transform="translate(101,170)"/>
<path d="M0 0 C0.33 0.99 0.66 1.98 1 3 C-0.58 3.7 -2.16 4.39 -3.75 5.06 C-4.63 5.45 -5.51 5.83 -6.42 6.22 C-9.15 7.05 -10.37 6.98 -13 6 C-13 5.34 -13 4.68 -13 4 C-9.53 3.5 -9.53 3.5 -6 3 C-6.99 2.34 -7.98 1.68 -9 1 C-5.65 -1.11 -3.78 -1.05 0 0 Z " fill="#91603B" transform="translate(57,125)"/>
<path d="M0 0 C2.47 0.99 2.47 0.99 5 2 C4.67 2.99 4.34 3.98 4 5 C5.32 5.33 6.64 5.66 8 6 C7.67 6.66 7.34 7.32 7 8 C6.34 7.67 5.68 7.34 5 7 C4.67 7.99 4.34 8.98 4 10 C3.01 10 2.02 10 1 10 C1 9.01 1 8.02 1 7 C0.34 6.67 -0.32 6.34 -1 6 C-0.83 5.38 -0.67 4.76 -0.5 4.12 C0.08 2.04 0.08 2.04 0 0 Z " fill="#38456E" transform="translate(116,102)"/>
<path d="M0 0 C0.33 0.66 0.66 1.32 1 2 C1.99 2 2.98 2 4 2 C3.67 2.99 3.34 3.98 3 5 C3 4.34 3 3.68 3 3 C2.34 3 1.68 3 1 3 C1.16 3.56 1.33 4.11 1.5 4.69 C2.04 7.19 2.07 9.45 2 12 C0.35 12.33 -1.3 12.66 -3 13 C-3.33 11.35 -3.66 9.7 -4 8 C-3.01 8 -2.02 8 -1 8 C-1.33 5.69 -1.66 3.38 -2 1 C-1.34 0.67 -0.68 0.34 0 0 Z " fill="#764730" transform="translate(47,77)"/>
<path d="M0 0 C0.66 0.99 1.32 1.98 2 3 C2.66 2.34 3.32 1.68 4 1 C5 2 5 2 5.19 4.19 C4.97 7.48 4.37 9.99 3 13 C0.88 13.88 0.88 13.88 -1 14 C-0.84 12.99 -0.67 11.98 -0.5 10.94 C-0.03 7.24 0.08 3.72 0 0 Z " fill="#52352F" transform="translate(137,28)"/>
<path d="M0 0 C0.66 0.33 1.32 0.66 2 1 C1.34 4.3 0.68 7.6 0 11 C-0.66 11 -1.32 11 -2 11 C-2 10.34 -2 9.68 -2 9 C-3.98 9.33 -5.96 9.66 -8 10 C-7 7 -7 7 -4 5 C-3.32 3.67 -2.65 2.34 -2 1 C-1.34 0.67 -0.68 0.34 0 0 Z " fill="#47241E" transform="translate(58,76)"/>
<path d="M0 0 C0.66 0 1.32 0 2 0 C2 1.32 2 2.64 2 4 C1.01 4 0.02 4 -1 4 C-0.34 5.65 0.32 7.3 1 9 C0.34 9 -0.32 9 -1 9 C-1.33 9.66 -1.66 10.32 -2 11 C-3.32 10.34 -4.64 9.68 -6 9 C-6.19 6.62 -6.19 6.62 -6 4 C-5.01 3.34 -4.02 2.68 -3 2 C-3 2.99 -3 3.98 -3 5 C-2.55 4.17 -2.09 3.35 -1.62 2.5 C-1.09 1.67 -0.55 0.85 0 0 Z " fill="#674E4A" transform="translate(74,58)"/>
<path d="M0 0 C1.94 0.38 1.94 0.38 4 1 C4.99 1 5.98 1 7 1 C7 1.99 7 2.98 7 4 C5.68 3.67 4.36 3.34 3 3 C3 4.65 3 6.3 3 8 C1.68 8.33 0.36 8.66 -1 9 C-1.62 5.62 -1.62 5.62 -2 2 C-1.34 1.34 -0.68 0.68 0 0 Z " fill="#875E4A" transform="translate(82,116)"/>
<path d="M0 0 C2.13 2.13 2.53 3.1 3 6 C2.67 6.33 2.34 6.66 2 7 C1.69 11.65 1.69 11.65 3 16 C2.34 16 1.68 16 1 16 C0.67 16.66 0.34 17.32 0 18 C-0.33 16.35 -0.66 14.7 -1 13 C-1.99 13.33 -2.98 13.66 -4 14 C-3.69 13.42 -3.38 12.84 -3.06 12.25 C-1.6 9.15 -1 6.75 -1 3.31 C-1 1 -1 1 0 0 Z " fill="#5B4444" transform="translate(136,49)"/>
<path d="M0 0 C2 2 2 2 2 5 C1.01 5.49 1.01 5.49 0 6 C0.33 7.32 0.66 8.64 1 10 C0.01 10.33 -0.98 10.66 -2 11 C-2.66 10.01 -3.32 9.02 -4 8 C-4.66 7.34 -5.32 6.68 -6 6 C-5.62 3.88 -5.62 3.88 -5 2 C-4.67 2.66 -4.34 3.32 -4 4 C-2.68 2.68 -1.36 1.36 0 0 Z " fill="#3B3135" transform="translate(102,50)"/>
<path d="M0 0 C0.66 0.33 1.32 0.66 2 1 C2.41 3.5 2.41 3.5 2.62 6.56 C2.7 7.57 2.77 8.59 2.85 9.63 C2.9 10.41 2.95 11.19 3 12 C2.01 11.67 1.02 11.34 0 11 C0 11.66 0 12.32 0 13 C-0.99 13.33 -1.98 13.66 -3 14 C-2.67 12.68 -2.34 11.36 -2 10 C-2.66 9.67 -3.32 9.34 -4 9 C-2.68 8.34 -1.36 7.68 0 7 C-0.99 6.67 -1.98 6.34 -3 6 C-3 5.34 -3 4.68 -3 4 C-2.01 3.34 -1.02 2.68 0 2 C0 1.34 0 0.68 0 0 Z " fill="#9C705A" transform="translate(135,26)"/>
<path d="M0 0 C0.33 0.66 0.66 1.32 1 2 C3.97 1.34 6.94 0.68 10 0 C10.66 0.99 11.32 1.98 12 3 C10.9 3.2 10.9 3.2 9.77 3.4 C8.79 3.58 7.82 3.76 6.81 3.94 C5.85 4.11 4.89 4.29 3.89 4.46 C1.26 4.95 -1.37 5.47 -4 6 C-2.68 4.02 -1.36 2.04 0 0 Z " fill="#A4704A" transform="translate(105,124)"/>
<path d="M0 0 C1.98 0 3.96 0 6 0 C5.67 2.31 5.34 4.62 5 7 C0.57 9.09 0.57 9.09 -2.31 8.62 C-2.87 8.42 -3.43 8.21 -4 8 C-2.35 7.01 -0.7 6.02 1 5 C0.67 3.35 0.34 1.7 0 0 Z " fill="#BA4822" transform="translate(67,108)"/>
<path d="M0 0 C-0.33 0.66 -0.66 1.32 -1 2 C-2.32 1.67 -3.64 1.34 -5 1 C-5 1.99 -5 2.98 -5 4 C-4.34 4 -3.68 4 -3 4 C-3 5.65 -3 7.3 -3 9 C-3.66 9 -4.32 9 -5 9 C-5 7.68 -5 6.36 -5 5 C-6.32 4.67 -7.64 4.34 -9 4 C-9 3.01 -9 2.02 -9 1 C-8.34 1 -7.68 1 -7 1 C-7 0.34 -7 -0.32 -7 -1 C-3.51 -2.2 -3.32 -2.21 0 0 Z " fill="#4B3028" transform="translate(97,103)"/>
<path d="M0 0 C3.41 1.46 5.4 3.4 8 6 C9.61 7.05 9.61 7.05 11.25 8.12 C12.16 8.74 13.06 9.36 14 10 C14 10.66 14 11.32 14 12 C12.35 12.33 10.7 12.66 9 13 C8.9 12.36 8.79 11.72 8.69 11.06 C8.46 10.38 8.23 9.7 8 9 C7.01 8.67 6.02 8.34 5 8 C3.61 6.41 3.61 6.41 2.31 4.5 C1.88 3.87 1.44 3.24 0.99 2.59 C0 1 0 1 0 0 Z " fill="#C99A70" transform="translate(97,85)"/>
<path d="M0 0 C1.48 0.11 2.96 0.24 4.44 0.38 C5.26 0.44 6.08 0.51 6.93 0.59 C7.96 0.79 7.96 0.79 9 1 C9.33 1.66 9.66 2.32 10 3 C9.01 3 8.02 3 7 3 C7 3.66 7 4.32 7 5 C6.01 5.5 6.01 5.5 5 6 C5.99 7.48 5.99 7.48 7 9 C5.02 8.34 3.04 7.68 1 7 C1.66 6.67 2.32 6.34 3 6 C3 5.01 3 4.02 3 3 C2.01 2.67 1.02 2.34 0 2 C0 1.34 0 0.68 0 0 Z " fill="#404469" transform="translate(110,67)"/>
<path d="M0 0 C0.9 0.74 0.9 0.74 1.81 1.5 C3.97 3.28 3.97 3.28 7 3 C7 3.66 7 4.32 7 5 C5.86 4.97 5.86 4.97 4.69 4.94 C1.9 4.87 1.9 4.87 -1 6 C-1.12 6.93 -1.25 7.86 -1.38 8.81 C-2 12 -2 12 -4 15 C-4.66 14.67 -5.32 14.34 -6 14 C-5.62 12.06 -5.62 12.06 -5 10 C-4.34 9.67 -3.68 9.34 -3 9 C-2.34 6.47 -2.34 6.47 -2 4 C-1.01 4 -0.02 4 1 4 C0.67 2.68 0.34 1.36 0 0 Z " fill="#804527" transform="translate(104,114)"/>
<path d="M0 0 C-0.33 0.99 -0.66 1.98 -1 3 C-1.33 2.67 -1.66 2.34 -2 2 C-2.33 2.99 -2.66 3.98 -3 5 C-2.34 5.33 -1.68 5.66 -1 6 C-3.31 6.33 -5.62 6.66 -8 7 C-7.67 4.69 -7.34 2.38 -7 0 C-2.25 -1.12 -2.25 -1.12 0 0 Z " fill="#7A291D" transform="translate(80,108)"/>
<path d="M0 0 C2 2 2 2 2 6 C2.99 6.33 3.98 6.66 5 7 C5.33 8.98 5.66 10.96 6 13 C5.34 13 4.68 13 4 13 C3.67 11.68 3.34 10.36 3 9 C2.01 9 1.02 9 0 9 C-1.12 7.31 -1.12 7.31 -2 5 C-1.12 2.25 -1.12 2.25 0 0 Z " fill="#CD8D67" transform="translate(148,75)"/>
<path d="M0 0 C1.32 2.63 0.75 3.8 0.06 6.62 C-0.13 7.44 -0.33 8.26 -0.53 9.1 C-0.76 10.04 -0.76 10.04 -1 11 C-1.99 10.01 -2.98 9.02 -4 8 C-4.99 8.99 -5.98 9.98 -7 11 C-7 7.67 -6.54 5.94 -5 3 C-2.38 1.19 -2.38 1.19 0 0 Z " fill="#B9723C" transform="translate(84,48)"/>
<path d="M0 0 C0.99 0.33 1.98 0.66 3 1 C2.34 3.31 1.68 5.62 1 8 C2.32 7.67 3.64 7.34 5 7 C5 7.99 5 8.98 5 10 C4.01 10 3.02 10 2 10 C2 10.66 2 11.32 2 12 C1.01 11.67 0.02 11.34 -1 11 C-2.23 4.6 -2.23 4.6 -1.06 1.56 C-0.71 1.05 -0.36 0.53 0 0 Z " fill="#3D2F33" transform="translate(138,42)"/>
<path d="M0 0 C-0.33 1.32 -0.66 2.64 -1 4 C-2.32 4 -3.64 4 -5 4 C-5 5.32 -5 6.64 -5 8 C-3.35 7.34 -1.7 6.68 0 6 C-1.65 7.65 -3.3 9.3 -5 11 C-7 8 -7 8 -6.88 4.44 C-6 1 -6 1 -4.06 -0.5 C-2 -1 -2 -1 0 0 Z " fill="#CEDAD6" transform="translate(132,42)"/>
<path d="M0 0 C0.25 0.62 0.5 1.24 0.75 1.88 C2.22 4.37 3.41 4.83 6 6 C5.19 7.34 4.38 8.67 3.56 10 C3.11 10.74 2.66 11.48 2.19 12.25 C1.8 12.83 1.41 13.41 1 14 C0.67 14 0.34 14 0 14 C-0.66 10.7 -1.32 7.4 -2 4 C-1.34 4 -0.68 4 0 4 C0 2.68 0 1.36 0 0 Z " fill="#301423" transform="translate(152,102)"/>
<path d="M0 0 C-1.12 2.97 -2.22 5.33 -4 8 C-6.97 7.5 -6.97 7.5 -10 7 C-9.34 5.68 -8.68 4.36 -8 3 C-7.34 3 -6.68 3 -6 3 C-5.53 2.5 -5.05 2.01 -4.56 1.5 C-3 0 -3 0 0 0 Z " fill="#10070A" transform="translate(86,174)"/>
</svg>
