<?xml version="1.0" encoding="UTF-8"?>
<svg version="1.1" xmlns="http://www.w3.org/2000/svg" width="200" height="200">
<path d="M0,0 L200,0 L200,200 L0,200 Z " fill="#F5F5F5" transform="translate(0,0)"/>
<path d="M0,0 L30,0 L30,1 L32,1 L32,2 L35,2 L35,3 L36,3 L36,4 L40,4 L40,5 L44,5 L44,6 L48,6 L48,7 L50,7 L50,8 L52,8 L52,9 L55,9 L55,10 L56,10 L56,11 L58,11 L58,12 L60,12 L60,13 L61,13 L61,14 L62,14 L62,15 L63,15 L63,16 L64,16 L64,17 L65,17 L65,18 L66,18 L66,19 L67,19 L67,20 L68,20 L68,21 L69,21 L69,22 L70,22 L70,23 L71,23 L71,24 L72,24 L72,25 L73,25 L73,27 L74,27 L74,28 L75,28 L75,29 L76,29 L76,30 L77,30 L77,34 L78,34 L78,35 L79,35 L79,36 L80,36 L80,37 L81,37 L81,38 L82,38 L82,39 L83,39 L83,40 L84,40 L84,41 L85,41 L85,43 L86,43 L86,44 L87,44 L87,46 L88,46 L88,48 L89,48 L89,53 L90,53 L90,57 L91,57 L91,60 L92,60 L92,73 L91,73 L91,75 L90,75 L90,77 L89,77 L89,81 L88,81 L88,84 L87,84 L87,91 L88,91 L88,92 L87,92 L87,93 L88,93 L88,95 L89,95 L89,96 L90,96 L90,101 L91,101 L91,113 L90,113 L90,116 L89,116 L89,117 L88,117 L88,122 L87,122 L87,123 L86,123 L86,124 L85,124 L85,128 L84,128 L84,129 L83,129 L83,130 L82,130 L82,132 L81,132 L81,134 L80,134 L80,136 L79,136 L79,137 L78,137 L78,138 L77,138 L77,139 L76,139 L76,145 L75,145 L75,150 L74,150 L74,151 L72,151 L72,150 L73,150 L73,149 L74,149 L74,141 L75,141 L75,136 L77,136 L77,135 L78,135 L78,133 L79,133 L79,131 L80,131 L80,130 L81,130 L81,128 L82,128 L82,125 L83,125 L83,124 L84,124 L84,122 L85,122 L85,121 L86,121 L86,116 L83,116 L83,117 L82,117 L82,120 L80,120 L80,119 L81,119 L81,115 L83,115 L83,114 L86,114 L86,115 L87,115 L87,113 L88,113 L88,110 L87,110 L87,109 L88,109 L88,102 L86,102 L86,101 L88,101 L88,97 L87,97 L87,95 L86,95 L86,94 L85,94 L85,82 L86,82 L86,77 L85,77 L85,68 L84,68 L84,64 L82,64 L82,63 L81,63 L81,62 L79,62 L79,61 L78,61 L78,60 L77,60 L77,59 L75,59 L75,58 L74,58 L74,57 L71,57 L71,56 L69,56 L69,55 L65,55 L65,54 L57,54 L57,53 L55,53 L55,52 L34,52 L34,53 L36,53 L36,54 L39,54 L39,55 L62,55 L62,56 L63,56 L63,57 L64,57 L64,58 L62,58 L62,57 L40,57 L40,56 L38,56 L38,55 L35,55 L35,54 L33,54 L33,53 L22,53 L22,54 L19,54 L19,55 L13,55 L13,56 L10,56 L10,57 L7,57 L7,58 L3,58 L3,59 L-2,59 L-2,60 L-3,60 L-3,61 L-4,61 L-4,62 L-5,62 L-5,63 L-6,63 L-6,64 L-7,64 L-7,65 L-9,65 L-9,66 L-10,66 L-10,67 L-12,67 L-12,68 L-13,68 L-13,69 L-15,69 L-15,70 L-16,70 L-16,71 L-18,71 L-18,72 L-19,72 L-19,73 L-20,73 L-20,74 L-21,74 L-21,75 L-22,75 L-22,76 L-23,76 L-23,77 L-24,77 L-24,78 L-25,78 L-25,79 L-26,79 L-26,81 L-27,81 L-27,82 L-28,82 L-28,84 L-29,84 L-29,86 L-30,86 L-30,89 L-31,89 L-31,91 L-32,91 L-32,92 L-33,92 L-33,94 L-34,94 L-34,96 L-35,96 L-35,100 L-36,100 L-36,111 L-37,111 L-37,114 L-36,114 L-36,115 L-35,115 L-35,119 L-34,119 L-34,148 L-35,148 L-35,149 L-36,149 L-36,154 L-37,154 L-37,159 L-38,159 L-38,161 L-39,161 L-39,162 L-40,162 L-40,164 L-41,164 L-41,166 L-42,166 L-42,167 L-43,167 L-43,170 L-44,170 L-44,172 L-39,172 L-39,173 L-31,173 L-31,174 L-30,174 L-30,175 L-29,175 L-29,176 L-27,176 L-27,175 L-26,175 L-26,173 L-25,173 L-25,171 L-24,171 L-24,169 L-23,169 L-23,168 L-22,168 L-22,167 L-21,167 L-21,166 L-18,166 L-18,165 L-14,165 L-14,166 L-15,166 L-15,167 L-18,167 L-18,168 L-20,168 L-20,169 L-21,169 L-21,170 L-22,170 L-22,171 L-23,171 L-23,173 L-24,173 L-24,175 L-25,175 L-25,178 L-24,178 L-24,179 L-23,179 L-23,180 L-21,180 L-21,181 L-19,181 L-19,182 L-18,182 L-18,183 L-16,183 L-16,184 L-15,184 L-15,185 L-12,185 L-12,186 L-10,186 L-10,187 L-8,187 L-8,188 L-1,188 L-1,189 L3,189 L3,190 L7,190 L7,189 L6,189 L6,188 L1,188 L1,187 L7,187 L7,188 L8,188 L8,189 L9,189 L9,190 L13,190 L13,191 L21,191 L21,190 L22,190 L22,189 L23,189 L23,188 L30,188 L30,189 L25,189 L25,190 L23,190 L23,191 L31,191 L31,190 L32,190 L32,189 L35,189 L35,188 L38,188 L38,187 L40,187 L40,186 L42,186 L42,185 L45,185 L45,184 L46,184 L46,183 L48,183 L48,182 L50,182 L50,181 L53,181 L53,180 L55,180 L55,178 L48,178 L48,177 L47,177 L47,176 L46,176 L46,174 L45,174 L45,168 L30,168 L30,167 L29,167 L29,166 L25,166 L25,165 L24,165 L24,164 L22,164 L22,163 L20,163 L20,162 L19,162 L19,161 L17,161 L17,159 L15,159 L15,158 L14,158 L14,157 L13,157 L13,156 L12,156 L12,155 L11,155 L11,154 L10,154 L10,153 L9,153 L9,152 L8,152 L8,151 L7,151 L7,150 L6,150 L6,149 L4,149 L4,148 L2,148 L2,147 L1,147 L1,146 L0,146 L0,145 L-1,145 L-1,144 L-2,144 L-2,143 L-3,143 L-3,142 L-4,142 L-4,141 L-5,141 L-5,140 L-6,140 L-6,139 L-7,139 L-7,138 L-8,138 L-8,137 L-9,137 L-9,136 L-10,136 L-10,135 L-11,135 L-11,134 L-12,134 L-12,133 L-13,133 L-13,130 L-14,130 L-14,129 L-15,129 L-15,128 L-16,128 L-16,127 L-17,127 L-17,120 L-18,120 L-18,118 L-19,118 L-19,117 L-20,117 L-20,106 L-19,106 L-19,102 L-18,102 L-18,116 L-17,116 L-17,117 L-16,117 L-16,120 L-15,120 L-15,126 L-14,126 L-14,127 L-13,127 L-13,128 L-12,128 L-12,130 L-11,130 L-11,132 L-10,132 L-10,134 L-9,134 L-9,135 L-8,135 L-8,136 L-7,136 L-7,137 L-5,137 L-5,139 L-3,139 L-3,141 L-1,141 L-1,142 L0,142 L0,144 L2,144 L2,145 L3,145 L3,146 L4,146 L4,147 L6,147 L6,148 L8,148 L8,150 L9,150 L9,151 L10,151 L10,152 L12,152 L12,153 L13,153 L13,154 L14,154 L14,155 L15,155 L15,156 L16,156 L16,157 L17,157 L17,158 L18,158 L18,159 L19,159 L19,160 L21,160 L21,161 L23,161 L23,163 L28,163 L28,165 L31,165 L31,166 L45,166 L45,165 L46,165 L46,166 L53,166 L53,165 L56,165 L56,164 L57,164 L57,163 L59,163 L59,162 L60,162 L60,161 L62,161 L62,159 L63,159 L63,160 L64,160 L64,158 L66,158 L66,156 L67,156 L67,155 L68,155 L68,152 L70,152 L70,153 L71,153 L71,154 L70,154 L70,155 L69,155 L69,156 L68,156 L68,158 L67,158 L67,160 L68,160 L68,161 L69,161 L69,162 L70,162 L70,163 L71,163 L71,164 L72,164 L72,166 L73,166 L73,167 L76,167 L76,168 L77,168 L77,169 L78,169 L78,170 L79,170 L79,171 L80,171 L80,172 L82,172 L82,173 L83,173 L83,174 L84,174 L84,175 L86,175 L86,176 L87,176 L87,177 L88,177 L88,181 L95,181 L95,182 L103,182 L103,183 L106,183 L106,184 L108,184 L108,185 L110,185 L110,186 L112,186 L112,187 L114,187 L114,188 L117,188 L117,199 L-83,199 L-83,169 L-82,169 L-82,168 L-81,168 L-81,167 L-80,167 L-80,166 L-79,166 L-79,165 L-78,165 L-78,164 L-76,164 L-76,163 L-75,163 L-75,162 L-74,162 L-74,161 L-73,161 L-73,159 L-72,159 L-72,158 L-71,158 L-71,157 L-70,157 L-70,156 L-69,156 L-69,155 L-68,155 L-68,154 L-65,154 L-65,153 L-63,153 L-63,152 L-61,152 L-61,151 L-58,151 L-58,150 L-55,150 L-55,149 L-53,149 L-53,148 L-50,148 L-50,147 L-42,147 L-42,146 L-37,146 L-37,145 L-36,145 L-36,130 L-37,130 L-37,129 L-36,129 L-36,124 L-38,124 L-38,123 L-36,123 L-36,119 L-37,119 L-37,117 L-38,117 L-38,115 L-40,115 L-40,113 L-42,113 L-42,112 L-43,112 L-43,111 L-44,111 L-44,110 L-45,110 L-45,109 L-46,109 L-46,107 L-47,107 L-47,106 L-48,106 L-48,103 L-49,103 L-49,102 L-50,102 L-50,99 L-51,99 L-51,96 L-52,96 L-52,94 L-53,94 L-53,92 L-54,92 L-54,58 L-53,58 L-53,56 L-52,56 L-52,53 L-51,53 L-51,47 L-50,47 L-50,43 L-49,43 L-49,38 L-48,38 L-48,36 L-47,36 L-47,33 L-46,33 L-46,32 L-45,32 L-45,28 L-44,28 L-44,26 L-43,26 L-43,24 L-42,24 L-42,23 L-41,23 L-41,22 L-40,22 L-40,21 L-39,21 L-39,20 L-38,20 L-38,19 L-37,19 L-37,18 L-36,18 L-36,17 L-34,17 L-34,16 L-33,16 L-33,15 L-32,15 L-32,14 L-31,14 L-31,13 L-30,13 L-30,12 L-29,12 L-29,11 L-28,11 L-28,10 L-26,10 L-26,9 L-24,9 L-24,8 L-23,8 L-23,7 L-21,7 L-21,6 L-19,6 L-19,5 L-17,5 L-17,4 L-13,4 L-13,3 L-11,3 L-11,2 L-6,2 L-6,1 L0,1 Z " fill="#070707" transform="translate(83,1)"/>
<path d="M0,0 L200,0 L200,189 L197,189 L197,188 L195,188 L195,187 L193,187 L193,186 L191,186 L191,185 L189,185 L189,184 L186,184 L186,183 L178,183 L178,182 L171,182 L171,178 L170,178 L170,177 L169,177 L169,176 L167,176 L167,175 L166,175 L166,174 L165,174 L165,173 L163,173 L163,172 L162,172 L162,171 L161,171 L161,170 L160,170 L160,169 L159,169 L159,168 L156,168 L156,167 L155,167 L155,165 L154,165 L154,164 L153,164 L153,163 L152,163 L152,162 L151,162 L151,161 L150,161 L150,159 L151,159 L151,157 L152,157 L152,156 L153,156 L153,155 L154,155 L154,154 L153,154 L153,153 L151,153 L151,152 L150,152 L150,151 L148,151 L148,150 L147,150 L147,149 L146,149 L146,147 L148,147 L148,148 L149,148 L149,149 L150,149 L150,150 L152,150 L152,151 L153,151 L153,152 L154,152 L154,153 L156,153 L156,154 L158,154 L158,153 L157,153 L157,151 L158,151 L158,146 L159,146 L159,140 L160,140 L160,139 L161,139 L161,138 L162,138 L162,137 L163,137 L163,135 L164,135 L164,133 L165,133 L165,131 L166,131 L166,130 L167,130 L167,129 L168,129 L168,125 L169,125 L169,124 L170,124 L170,123 L171,123 L171,118 L172,118 L172,117 L173,117 L173,114 L174,114 L174,102 L173,102 L173,97 L172,97 L172,96 L171,96 L171,94 L170,94 L170,93 L171,93 L171,92 L170,92 L170,85 L171,85 L171,82 L172,82 L172,78 L173,78 L173,76 L174,76 L174,74 L175,74 L175,61 L174,61 L174,58 L173,58 L173,54 L172,54 L172,49 L171,49 L171,47 L170,47 L170,45 L169,45 L169,44 L168,44 L168,42 L167,42 L167,41 L166,41 L166,40 L165,40 L165,39 L164,39 L164,38 L163,38 L163,37 L162,37 L162,36 L161,36 L161,35 L160,35 L160,31 L159,31 L159,30 L158,30 L158,29 L157,29 L157,28 L156,28 L156,26 L155,26 L155,25 L154,25 L154,24 L153,24 L153,23 L152,23 L152,22 L151,22 L151,21 L150,21 L150,20 L149,20 L149,19 L148,19 L148,18 L147,18 L147,17 L146,17 L146,16 L145,16 L145,15 L144,15 L144,14 L143,14 L143,13 L141,13 L141,12 L139,12 L139,11 L138,11 L138,10 L135,10 L135,9 L133,9 L133,8 L131,8 L131,7 L127,7 L127,6 L123,6 L123,5 L119,5 L119,4 L118,4 L118,3 L115,3 L115,2 L113,2 L113,1 L83,1 L83,2 L77,2 L77,3 L72,3 L72,4 L70,4 L70,5 L66,5 L66,6 L64,6 L64,7 L62,7 L62,8 L60,8 L60,9 L59,9 L59,10 L57,10 L57,11 L55,11 L55,12 L54,12 L54,13 L53,13 L53,14 L52,14 L52,15 L51,15 L51,16 L50,16 L50,17 L49,17 L49,18 L47,18 L47,19 L46,19 L46,20 L45,20 L45,21 L44,21 L44,22 L43,22 L43,23 L42,23 L42,24 L41,24 L41,25 L40,25 L40,27 L39,27 L39,29 L38,29 L38,33 L37,33 L37,34 L36,34 L36,37 L35,37 L35,39 L34,39 L34,44 L33,44 L33,48 L32,48 L32,54 L31,54 L31,57 L30,57 L30,59 L29,59 L29,93 L30,93 L30,95 L31,95 L31,97 L32,97 L32,100 L33,100 L33,103 L34,103 L34,104 L35,104 L35,107 L36,107 L36,108 L37,108 L37,110 L38,110 L38,111 L39,111 L39,112 L40,112 L40,113 L41,113 L41,114 L43,114 L43,116 L45,116 L45,118 L46,118 L46,120 L47,120 L47,124 L45,124 L45,125 L47,125 L47,130 L46,130 L46,131 L47,131 L47,146 L46,146 L46,147 L41,147 L41,148 L33,148 L33,149 L30,149 L30,150 L28,150 L28,151 L25,151 L25,152 L22,152 L22,153 L20,153 L20,154 L18,154 L18,155 L15,155 L15,156 L14,156 L14,157 L13,157 L13,158 L12,158 L12,159 L11,159 L11,160 L10,160 L10,162 L9,162 L9,163 L8,163 L8,164 L7,164 L7,165 L5,165 L5,166 L4,166 L4,167 L3,167 L3,168 L2,168 L2,169 L1,169 L1,170 L0,170 Z " fill="#FCFCFC" transform="translate(0,0)"/>
<path d="M0,0 L79,0 L79,1 L83,1 L83,2 L77,2 L77,3 L72,3 L72,4 L70,4 L70,5 L66,5 L66,6 L64,6 L64,7 L62,7 L62,8 L60,8 L60,9 L59,9 L59,10 L57,10 L57,11 L55,11 L55,12 L54,12 L54,13 L53,13 L53,14 L52,14 L52,15 L51,15 L51,16 L50,16 L50,17 L49,17 L49,18 L47,18 L47,19 L46,19 L46,20 L45,20 L45,21 L44,21 L44,22 L43,22 L43,23 L42,23 L42,24 L41,24 L41,25 L40,25 L40,27 L39,27 L39,29 L38,29 L38,33 L37,33 L37,34 L36,34 L36,37 L35,37 L35,39 L34,39 L34,44 L33,44 L33,48 L32,48 L32,54 L31,54 L31,57 L30,57 L30,59 L29,59 L29,93 L30,93 L30,95 L31,95 L31,97 L32,97 L32,100 L33,100 L33,103 L34,103 L34,104 L35,104 L35,107 L36,107 L36,108 L37,108 L37,110 L38,110 L38,111 L39,111 L39,112 L40,112 L40,113 L41,113 L41,114 L43,114 L43,116 L45,116 L45,118 L46,118 L46,120 L47,120 L47,124 L45,124 L45,125 L47,125 L47,130 L46,130 L46,131 L47,131 L47,146 L46,146 L46,147 L41,147 L41,148 L33,148 L33,149 L30,149 L30,150 L28,150 L28,151 L25,151 L25,152 L22,152 L22,153 L20,153 L20,154 L18,154 L18,155 L15,155 L15,156 L14,156 L14,157 L13,157 L13,158 L12,158 L12,159 L11,159 L11,160 L10,160 L10,162 L9,162 L9,163 L8,163 L8,164 L7,164 L7,165 L5,165 L5,166 L4,166 L4,167 L3,167 L3,168 L2,168 L2,169 L1,169 L1,170 L0,170 Z " fill="#FDFDFD" transform="translate(0,0)"/>
<path d="M0,0 L2,0 L2,6 L3,6 L3,9 L4,9 L4,10 L5,10 L5,11 L6,11 L6,12 L7,12 L7,13 L8,13 L8,14 L9,14 L9,15 L10,15 L10,16 L11,16 L11,21 L10,21 L10,23 L9,23 L9,25 L8,25 L8,28 L11,28 L11,33 L12,33 L12,36 L13,36 L13,41 L14,41 L14,43 L20,43 L20,44 L22,44 L22,51 L21,51 L21,52 L20,52 L20,53 L22,53 L22,54 L23,54 L23,55 L21,55 L21,54 L19,54 L19,53 L18,53 L18,52 L17,52 L17,51 L15,51 L15,50 L14,50 L14,49 L13,49 L13,48 L11,48 L11,50 L12,50 L12,51 L13,51 L13,52 L15,52 L15,53 L16,53 L16,57 L15,57 L15,58 L14,58 L14,60 L12,60 L12,62 L11,62 L11,61 L10,61 L10,63 L8,63 L8,64 L7,64 L7,65 L5,65 L5,66 L4,66 L4,67 L1,67 L1,68 L-6,68 L-6,67 L-7,67 L-7,68 L-21,68 L-21,67 L-24,67 L-24,65 L-29,65 L-29,63 L-31,63 L-31,62 L-33,62 L-33,61 L-34,61 L-34,60 L-35,60 L-35,59 L-36,59 L-36,58 L-37,58 L-37,57 L-38,57 L-38,56 L-39,56 L-39,55 L-40,55 L-40,54 L-42,54 L-42,53 L-43,53 L-43,52 L-44,52 L-44,50 L-46,50 L-46,49 L-48,49 L-48,48 L-49,48 L-49,47 L-50,47 L-50,46 L-52,46 L-52,44 L-53,44 L-53,43 L-55,43 L-55,41 L-57,41 L-57,39 L-59,39 L-59,38 L-60,38 L-60,37 L-61,37 L-61,36 L-62,36 L-62,34 L-63,34 L-63,32 L-64,32 L-64,30 L-65,30 L-65,29 L-66,29 L-66,28 L-67,28 L-67,23 L-65,23 L-65,22 L-64,22 L-64,24 L-62,24 L-62,21 L-63,21 L-63,19 L-61,19 L-61,18 L-62,18 L-62,17 L-63,17 L-63,15 L-61,15 L-61,13 L-60,13 L-60,12 L-61,12 L-61,10 L-62,10 L-62,8 L-60,8 L-60,9 L-59,9 L-59,7 L-57,7 L-57,9 L-58,9 L-58,11 L-59,11 L-59,12 L-58,12 L-58,13 L-57,13 L-57,11 L-55,11 L-55,13 L-53,13 L-53,14 L-51,14 L-51,15 L-52,15 L-52,16 L-54,16 L-54,15 L-55,15 L-55,17 L-53,17 L-53,18 L-51,18 L-51,17 L-49,17 L-49,19 L-48,19 L-48,18 L-46,18 L-46,19 L-47,19 L-47,20 L-49,20 L-49,21 L-50,21 L-50,22 L-52,22 L-52,24 L-51,24 L-51,25 L-50,25 L-50,24 L-46,24 L-46,25 L-47,25 L-47,26 L-50,26 L-50,27 L-48,27 L-48,28 L-47,28 L-47,30 L-46,30 L-46,29 L-45,29 L-45,31 L-46,31 L-46,32 L-47,32 L-47,34 L-45,34 L-45,32 L-44,32 L-44,30 L-43,30 L-43,29 L-44,29 L-44,28 L-46,28 L-46,26 L-44,26 L-44,27 L-42,27 L-42,25 L-40,25 L-40,27 L-38,27 L-38,29 L-39,29 L-39,30 L-37,30 L-37,31 L-41,31 L-41,30 L-42,30 L-42,31 L-43,31 L-43,33 L-42,33 L-42,34 L-40,34 L-40,36 L-42,36 L-42,37 L-43,37 L-43,38 L-44,38 L-44,37 L-46,37 L-46,36 L-47,36 L-47,38 L-45,38 L-45,39 L-44,39 L-44,41 L-46,41 L-46,43 L-45,43 L-45,42 L-41,42 L-41,44 L-42,44 L-42,45 L-41,45 L-41,46 L-39,46 L-39,47 L-38,47 L-38,45 L-39,45 L-39,43 L-37,43 L-37,44 L-36,44 L-36,43 L-35,43 L-35,42 L-37,42 L-37,40 L-36,40 L-36,37 L-35,37 L-35,36 L-34,36 L-34,34 L-33,34 L-33,32 L-32,32 L-32,31 L-31,31 L-31,30 L-30,30 L-30,29 L-29,29 L-29,26 L-27,26 L-27,28 L-28,28 L-28,30 L-29,30 L-29,31 L-30,31 L-30,32 L-29,32 L-29,33 L-30,33 L-30,35 L-31,35 L-31,36 L-30,36 L-30,38 L-31,38 L-31,39 L-29,39 L-29,36 L-27,36 L-27,35 L-24,35 L-24,34 L-23,34 L-23,38 L-25,38 L-25,39 L-26,39 L-26,40 L-24,40 L-24,41 L-21,41 L-21,42 L-17,42 L-17,43 L-16,43 L-16,44 L4,44 L4,43 L5,43 L5,42 L2,42 L2,40 L4,40 L4,39 L3,39 L3,38 L2,38 L2,39 L0,39 L0,36 L2,36 L2,37 L3,37 L3,35 L1,35 L1,32 L0,32 L0,31 L2,31 L2,29 L0,29 L0,27 L3,27 L3,28 L6,28 L6,24 L7,24 L7,22 L8,22 L8,21 L9,21 L9,17 L8,17 L8,16 L7,16 L7,15 L6,15 L6,13 L5,13 L5,12 L4,12 L4,11 L3,11 L3,10 L2,10 L2,8 L1,8 L1,6 L0,6 Z M-35,40 L-35,42 L-34,42 L-34,41 L-32,41 L-32,40 Z " fill="#E5E5E4" transform="translate(135,99)"/>
<path d="M0,0 L1,0 L1,130 L-2,130 L-2,129 L-4,129 L-4,128 L-6,128 L-6,127 L-8,127 L-8,126 L-10,126 L-10,125 L-13,125 L-13,124 L-21,124 L-21,123 L-28,123 L-28,119 L-29,119 L-29,118 L-30,118 L-30,117 L-32,117 L-32,116 L-33,116 L-33,115 L-34,115 L-34,114 L-36,114 L-36,113 L-37,113 L-37,112 L-38,112 L-38,111 L-39,111 L-39,110 L-40,110 L-40,109 L-43,109 L-43,108 L-44,108 L-44,106 L-45,106 L-45,105 L-46,105 L-46,104 L-47,104 L-47,103 L-48,103 L-48,102 L-49,102 L-49,100 L-48,100 L-48,98 L-47,98 L-47,97 L-44,97 L-44,98 L-43,98 L-43,99 L-41,99 L-41,100 L-40,100 L-40,101 L-38,101 L-38,102 L-35,102 L-35,101 L-34,101 L-34,100 L-31,100 L-31,99 L-29,99 L-29,98 L-27,98 L-27,97 L-25,97 L-25,96 L-23,96 L-23,95 L-21,95 L-21,94 L-20,94 L-20,93 L-19,93 L-19,92 L-18,92 L-18,91 L-17,91 L-17,76 L-18,76 L-18,69 L-17,69 L-17,68 L-16,68 L-16,67 L-15,67 L-15,65 L-14,65 L-14,63 L-13,63 L-13,62 L-12,62 L-12,61 L-11,61 L-11,55 L-10,55 L-10,53 L-9,53 L-9,52 L-8,52 L-8,50 L-7,50 L-7,48 L-6,48 L-6,36 L-7,36 L-7,34 L-8,34 L-8,26 L-7,26 L-7,25 L-6,25 L-6,22 L-5,22 L-5,21 L-4,21 L-4,20 L-3,20 L-3,17 L-2,17 L-2,11 L-3,11 L-3,8 L-4,8 L-4,3 L-2,3 L-2,2 L-1,2 L-1,1 L0,1 Z " fill="#FCFCFC" transform="translate(199,59)"/>
<path d="M0,0 L12,0 L12,2 L11,2 L11,8 L10,8 L10,11 L6,11 L6,12 L22,12 L22,11 L21,11 L21,5 L22,5 L22,3 L23,3 L23,1 L31,1 L31,2 L39,2 L39,3 L45,3 L45,10 L46,10 L46,4 L50,4 L50,5 L51,5 L51,6 L53,6 L53,8 L54,8 L54,7 L56,7 L56,8 L58,8 L58,9 L59,9 L59,15 L60,15 L60,12 L64,12 L64,9 L65,9 L65,14 L66,14 L66,18 L67,18 L67,21 L68,21 L68,34 L67,34 L67,36 L66,36 L66,38 L65,38 L65,42 L64,42 L64,45 L63,45 L63,52 L64,52 L64,53 L63,53 L63,54 L64,54 L64,56 L65,56 L65,57 L66,57 L66,62 L67,62 L67,74 L66,74 L66,77 L65,77 L65,78 L64,78 L64,83 L63,83 L63,84 L62,84 L62,85 L61,85 L61,89 L60,89 L60,90 L59,90 L59,91 L58,91 L58,93 L57,93 L57,95 L56,95 L56,97 L55,97 L55,98 L54,98 L54,99 L53,99 L53,100 L52,100 L52,106 L51,106 L51,111 L50,111 L50,112 L48,112 L48,111 L49,111 L49,110 L50,110 L50,102 L51,102 L51,97 L53,97 L53,96 L54,96 L54,94 L55,94 L55,92 L56,92 L56,91 L57,91 L57,89 L58,89 L58,86 L59,86 L59,85 L60,85 L60,83 L61,83 L61,82 L62,82 L62,77 L59,77 L59,78 L58,78 L58,81 L56,81 L56,80 L57,80 L57,76 L59,76 L59,75 L62,75 L62,76 L63,76 L63,74 L64,74 L64,71 L63,71 L63,70 L64,70 L64,63 L62,63 L62,62 L64,62 L64,58 L63,58 L63,56 L62,56 L62,55 L61,55 L61,43 L62,43 L62,38 L61,38 L61,29 L60,29 L60,25 L58,25 L58,24 L57,24 L57,23 L55,23 L55,22 L54,22 L54,21 L53,21 L53,20 L51,20 L51,19 L50,19 L50,18 L47,18 L47,17 L45,17 L45,16 L41,16 L41,15 L33,15 L33,14 L31,14 L31,13 L10,13 L10,14 L12,14 L12,15 L15,15 L15,16 L38,16 L38,17 L39,17 L39,18 L40,18 L40,19 L38,19 L38,18 L16,18 L16,17 L14,17 L14,16 L11,16 L11,15 L9,15 L9,14 L-2,14 L-2,15 L-5,15 L-5,16 L-11,16 L-11,17 L-14,17 L-14,18 L-17,18 L-17,19 L-21,19 L-21,20 L-26,20 L-26,21 L-27,21 L-27,22 L-28,22 L-28,23 L-29,23 L-29,24 L-30,24 L-30,25 L-31,25 L-31,26 L-33,26 L-33,27 L-34,27 L-34,28 L-36,28 L-36,29 L-37,29 L-37,30 L-39,30 L-39,31 L-40,31 L-40,32 L-42,32 L-42,33 L-43,33 L-43,34 L-44,34 L-44,35 L-45,35 L-45,36 L-46,36 L-46,37 L-47,37 L-47,38 L-48,38 L-48,39 L-49,39 L-49,40 L-50,40 L-50,42 L-51,42 L-51,43 L-52,43 L-52,45 L-53,45 L-53,44 L-54,44 L-54,45 L-56,45 L-56,44 L-57,44 L-57,43 L-58,43 L-58,42 L-59,42 L-59,41 L-60,41 L-60,40 L-61,40 L-61,39 L-62,39 L-62,38 L-63,38 L-63,36 L-62,36 L-62,34 L-60,34 L-60,32 L-58,32 L-58,30 L-56,30 L-56,28 L-55,28 L-55,27 L-54,27 L-54,26 L-53,26 L-53,25 L-51,25 L-51,23 L-49,23 L-49,22 L-47,22 L-47,21 L-46,21 L-46,20 L-44,20 L-44,21 L-43,21 L-43,22 L-41,22 L-41,21 L-42,21 L-42,20 L-43,20 L-43,18 L-42,18 L-42,17 L-41,17 L-41,16 L-40,16 L-40,15 L-37,15 L-37,16 L-36,16 L-36,17 L-35,17 L-35,15 L-36,15 L-36,14 L-37,14 L-37,13 L-36,13 L-36,12 L-33,12 L-33,10 L-31,10 L-31,9 L-28,9 L-28,8 L-26,8 L-26,7 L-24,7 L-24,9 L-23,9 L-23,11 L-22,11 L-22,12 L-21,12 L-21,13 L-20,13 L-20,11 L-21,11 L-21,9 L-22,9 L-22,7 L-23,7 L-23,6 L-22,6 L-22,5 L-20,5 L-20,4 L-14,4 L-14,5 L-13,5 L-13,6 L-12,6 L-12,4 L-13,4 L-13,2 L-9,2 L-9,1 L-2,1 L-2,3 L-1,3 L-1,5 L0,5 L0,8 L1,8 L1,3 L0,3 Z " fill="#272626" transform="translate(107,40)"/>
<path d="M0,0 L2,0 L2,6 L3,6 L3,9 L4,9 L4,10 L5,10 L5,11 L6,11 L6,12 L7,12 L7,13 L8,13 L8,14 L9,14 L9,15 L10,15 L10,16 L11,16 L11,21 L10,21 L10,23 L9,23 L9,25 L8,25 L8,28 L11,28 L11,33 L12,33 L12,36 L13,36 L13,41 L14,41 L14,43 L20,43 L20,44 L22,44 L22,51 L21,51 L21,52 L20,52 L20,53 L22,53 L22,54 L23,54 L23,55 L21,55 L21,54 L19,54 L19,53 L18,53 L18,52 L17,52 L17,51 L15,51 L15,50 L14,50 L14,49 L13,49 L13,48 L11,48 L11,50 L12,50 L12,51 L13,51 L13,52 L15,52 L15,53 L16,53 L16,57 L15,57 L15,58 L14,58 L14,60 L12,60 L12,62 L11,62 L11,61 L10,61 L10,63 L8,63 L8,64 L7,64 L7,65 L5,65 L5,66 L4,66 L4,67 L1,67 L1,68 L-6,68 L-6,67 L-7,67 L-7,68 L-21,68 L-21,67 L-24,67 L-24,65 L-29,65 L-29,63 L-31,63 L-31,62 L-33,62 L-33,61 L-34,61 L-34,60 L-35,60 L-35,59 L-36,59 L-36,58 L-37,58 L-37,57 L-38,57 L-38,56 L-39,56 L-39,55 L-40,55 L-40,54 L-42,54 L-42,53 L-37,53 L-37,54 L-36,54 L-36,52 L-37,52 L-37,51 L-34,51 L-34,50 L-33,50 L-33,52 L-31,52 L-31,50 L-30,50 L-30,49 L-29,49 L-29,48 L-27,48 L-27,49 L-28,49 L-28,50 L-29,50 L-29,52 L-27,52 L-27,53 L-28,53 L-28,55 L-26,55 L-26,53 L-24,53 L-24,54 L-23,54 L-23,53 L-22,53 L-22,52 L-21,52 L-21,54 L-19,54 L-19,55 L-18,55 L-18,51 L-16,51 L-16,52 L-17,52 L-17,53 L-16,53 L-16,54 L-15,54 L-15,53 L-14,53 L-14,56 L-13,56 L-13,54 L-12,54 L-12,56 L-10,56 L-10,58 L-14,58 L-14,59 L-15,59 L-15,61 L-14,61 L-14,60 L-13,60 L-13,61 L-12,61 L-12,62 L-11,62 L-11,60 L-10,60 L-10,62 L-8,62 L-8,64 L-6,64 L-6,63 L-7,63 L-7,58 L-8,58 L-8,61 L-9,61 L-9,54 L-7,54 L-7,55 L-8,55 L-8,56 L-6,56 L-6,54 L-2,54 L-2,56 L-4,56 L-4,55 L-5,55 L-5,57 L-2,57 L-2,59 L-1,59 L-1,56 L0,56 L0,55 L2,55 L2,56 L5,56 L5,59 L6,59 L6,58 L7,58 L7,56 L8,56 L8,57 L9,57 L9,59 L8,59 L8,61 L9,61 L9,60 L11,60 L11,59 L10,59 L10,57 L11,57 L11,56 L9,56 L9,55 L7,55 L7,54 L10,54 L10,55 L11,55 L11,54 L12,54 L12,52 L11,52 L11,51 L10,51 L10,50 L8,50 L8,49 L7,49 L7,48 L5,48 L5,47 L3,47 L3,46 L1,46 L1,45 L-19,45 L-19,44 L-22,44 L-22,43 L-28,43 L-28,42 L-27,42 L-27,41 L-21,41 L-21,42 L-17,42 L-17,43 L-16,43 L-16,44 L4,44 L4,43 L5,43 L5,42 L2,42 L2,40 L4,40 L4,39 L3,39 L3,38 L2,38 L2,39 L0,39 L0,36 L2,36 L2,37 L3,37 L3,35 L1,35 L1,32 L0,32 L0,31 L2,31 L2,29 L0,29 L0,27 L3,27 L3,28 L6,28 L6,24 L7,24 L7,22 L8,22 L8,21 L9,21 L9,17 L8,17 L8,16 L7,16 L7,15 L6,15 L6,13 L5,13 L5,12 L4,12 L4,11 L3,11 L3,10 L2,10 L2,8 L1,8 L1,6 L0,6 Z " fill="#D0D0D0" transform="translate(135,99)"/>
<path d="M0,0 L3,0 L3,1 L4,1 L4,3 L3,3 L3,4 L2,4 L2,5 L1,5 L1,6 L0,6 L0,11 L1,11 L1,14 L2,14 L2,20 L1,20 L1,23 L0,23 L0,24 L-1,24 L-1,25 L-2,25 L-2,28 L-3,28 L-3,29 L-4,29 L-4,37 L-3,37 L-3,39 L-2,39 L-2,51 L-3,51 L-3,53 L-4,53 L-4,55 L-5,55 L-5,56 L-6,56 L-6,58 L-7,58 L-7,64 L-8,64 L-8,65 L-9,65 L-9,66 L-10,66 L-10,68 L-11,68 L-11,70 L-12,70 L-12,71 L-13,71 L-13,72 L-14,72 L-14,79 L-13,79 L-13,94 L-14,94 L-14,95 L-15,95 L-15,96 L-16,96 L-16,97 L-17,97 L-17,98 L-19,98 L-19,99 L-21,99 L-21,100 L-23,100 L-23,101 L-25,101 L-25,102 L-27,102 L-27,103 L-30,103 L-30,104 L-31,104 L-31,105 L-34,105 L-34,104 L-36,104 L-36,103 L-37,103 L-37,102 L-39,102 L-39,101 L-40,101 L-40,100 L-42,100 L-42,99 L-39,99 L-39,100 L-38,100 L-38,101 L-36,101 L-36,102 L-35,102 L-35,103 L-33,103 L-33,101 L-34,101 L-34,100 L-35,100 L-35,99 L-33,99 L-33,100 L-32,100 L-32,101 L-31,101 L-31,99 L-30,99 L-30,98 L-28,98 L-28,97 L-26,97 L-26,96 L-24,96 L-24,95 L-23,95 L-23,94 L-21,94 L-21,93 L-20,93 L-20,91 L-19,91 L-19,64 L-18,64 L-18,62 L-17,62 L-17,61 L-16,61 L-16,59 L-15,59 L-15,58 L-13,58 L-13,57 L-12,57 L-12,56 L-11,56 L-11,55 L-10,55 L-10,54 L-9,54 L-9,52 L-10,52 L-10,49 L-11,49 L-11,40 L-10,40 L-10,37 L-11,37 L-11,28 L-10,28 L-10,24 L-9,24 L-9,22 L-8,22 L-8,13 L-9,13 L-9,11 L-6,11 L-6,13 L-5,13 L-5,8 L-4,8 L-4,4 L-3,4 L-3,2 L-2,2 L-2,1 L0,1 Z " fill="#C6C6C6" transform="translate(195,56)"/>
<path d="M0,0 L1,0 L1,1 L8,1 L8,2 L16,2 L16,3 L19,3 L19,4 L21,4 L21,5 L23,5 L23,6 L25,6 L25,7 L27,7 L27,8 L30,8 L30,19 L-31,19 L-31,18 L-29,18 L-29,17 L-28,17 L-28,16 L-27,16 L-27,15 L-25,15 L-25,14 L-23,14 L-23,13 L-20,13 L-20,12 L-18,12 L-18,11 L-15,11 L-15,10 L-11,10 L-11,9 L-8,9 L-8,8 L-4,8 L-4,7 L-1,7 L-1,1 L0,1 Z " fill="#0C0C0C" transform="translate(170,181)"/>
<path d="M0,0 L2,0 L2,2 L1,2 L1,4 L0,4 L0,5 L1,5 L1,6 L2,6 L2,4 L4,4 L4,6 L6,6 L6,7 L8,7 L8,8 L7,8 L7,9 L5,9 L5,8 L4,8 L4,10 L6,10 L6,11 L8,11 L8,10 L10,10 L10,12 L11,12 L11,11 L13,11 L13,12 L12,12 L12,13 L10,13 L10,14 L9,14 L9,15 L7,15 L7,17 L8,17 L8,18 L9,18 L9,17 L13,17 L13,18 L12,18 L12,19 L9,19 L9,20 L11,20 L11,21 L12,21 L12,23 L13,23 L13,22 L14,22 L14,24 L13,24 L13,25 L12,25 L12,27 L14,27 L14,25 L15,25 L15,23 L16,23 L16,22 L15,22 L15,21 L13,21 L13,19 L15,19 L15,20 L17,20 L17,18 L19,18 L19,20 L21,20 L21,22 L20,22 L20,23 L22,23 L22,24 L18,24 L18,23 L17,23 L17,24 L16,24 L16,26 L17,26 L17,27 L19,27 L19,29 L17,29 L17,30 L16,30 L16,31 L15,31 L15,30 L13,30 L13,29 L12,29 L12,31 L14,31 L14,32 L15,32 L15,34 L13,34 L13,36 L11,36 L11,37 L10,37 L10,39 L11,39 L11,38 L12,38 L12,40 L13,40 L13,41 L14,41 L14,42 L15,42 L15,41 L16,41 L16,42 L18,42 L18,43 L21,43 L21,44 L19,44 L19,45 L17,45 L17,46 L16,46 L16,45 L15,45 L15,43 L13,43 L13,42 L11,42 L11,41 L10,41 L10,40 L9,40 L9,39 L7,39 L7,37 L6,37 L6,36 L4,36 L4,34 L2,34 L2,32 L0,32 L0,31 L-1,31 L-1,30 L-2,30 L-2,29 L-3,29 L-3,27 L-4,27 L-4,25 L-5,25 L-5,23 L-6,23 L-6,22 L-7,22 L-7,21 L-8,21 L-8,16 L-6,16 L-6,15 L-5,15 L-5,17 L-3,17 L-3,14 L-4,14 L-4,12 L-2,12 L-2,11 L-3,11 L-3,10 L-4,10 L-4,8 L-2,8 L-2,6 L-1,6 L-1,5 L-2,5 L-2,3 L-3,3 L-3,1 L-1,1 L-1,2 L0,2 Z " fill="#BBBBBB" transform="translate(76,106)"/>
<path d="M0,0 L3,0 L3,1 L4,1 L4,2 L5,2 L5,3 L6,3 L6,4 L7,4 L7,5 L8,5 L8,6 L9,6 L9,7 L11,7 L11,9 L12,9 L12,11 L11,11 L11,13 L10,13 L10,14 L9,14 L9,16 L8,16 L8,18 L7,18 L7,22 L6,22 L6,33 L5,33 L5,36 L6,36 L6,37 L7,37 L7,41 L8,41 L8,70 L7,70 L7,71 L6,71 L6,76 L5,76 L5,81 L4,81 L4,75 L5,75 L5,71 L3,71 L3,70 L5,70 L5,69 L0,69 L0,68 L5,68 L5,67 L6,67 L6,52 L5,52 L5,51 L6,51 L6,46 L4,46 L4,45 L6,45 L6,41 L5,41 L5,39 L4,39 L4,37 L2,37 L2,35 L0,35 L0,34 L2,34 L2,33 L0,33 L0,32 L-1,32 L-1,31 L-2,31 L-2,29 L-3,29 L-3,27 L-4,27 L-4,26 L-5,26 L-5,23 L-6,23 L-6,22 L-7,22 L-7,19 L-8,19 L-8,11 L-7,11 L-7,10 L-6,10 L-6,9 L-5,9 L-5,7 L-4,7 L-4,5 L-2,5 L-2,2 L-1,2 L-1,1 L0,1 Z " fill="#1B1B1B" transform="translate(41,79)"/>
<path d="M0,0 L1,0 L1,1 L2,1 L2,0 L4,0 L4,1 L6,1 L6,2 L7,2 L7,8 L8,8 L8,5 L12,5 L12,2 L13,2 L13,7 L14,7 L14,11 L15,11 L15,14 L16,14 L16,27 L15,27 L15,29 L14,29 L14,31 L13,31 L13,35 L12,35 L12,38 L11,38 L11,45 L12,45 L12,46 L11,46 L11,47 L12,47 L12,49 L13,49 L13,50 L14,50 L14,55 L15,55 L15,67 L14,67 L14,70 L13,70 L13,71 L12,71 L12,76 L11,76 L11,77 L10,77 L10,78 L9,78 L9,82 L8,82 L8,83 L7,83 L7,84 L6,84 L6,86 L5,86 L5,88 L4,88 L4,90 L3,90 L3,91 L2,91 L2,92 L1,92 L1,93 L0,93 L0,99 L-1,99 L-1,104 L-2,104 L-2,105 L-4,105 L-4,104 L-3,104 L-3,103 L-2,103 L-2,95 L-1,95 L-1,90 L1,90 L1,89 L2,89 L2,87 L3,87 L3,85 L4,85 L4,84 L5,84 L5,82 L6,82 L6,79 L7,79 L7,78 L8,78 L8,76 L9,76 L9,75 L10,75 L10,70 L7,70 L7,71 L6,71 L6,74 L4,74 L4,73 L5,73 L5,69 L7,69 L7,68 L10,68 L10,69 L11,69 L11,67 L12,67 L12,64 L11,64 L11,63 L12,63 L12,56 L10,56 L10,55 L12,55 L12,51 L11,51 L11,49 L10,49 L10,48 L9,48 L9,36 L10,36 L10,31 L9,31 L9,22 L8,22 L8,18 L6,18 L6,17 L5,17 L5,16 L3,16 L3,15 L2,15 L2,14 L1,14 L1,13 L-1,13 L-1,12 L-2,12 L-2,11 L-5,11 L-5,9 L-2,9 L-2,6 L-1,6 L-1,3 L0,3 Z " fill="#1D1D1D" transform="translate(159,47)"/>
<path d="M0,0 L2,0 L2,6 L3,6 L3,9 L4,9 L4,10 L5,10 L5,11 L6,11 L6,12 L7,12 L7,13 L8,13 L8,14 L9,14 L9,15 L10,15 L10,16 L11,16 L11,21 L10,21 L10,23 L9,23 L9,25 L8,25 L8,28 L11,28 L11,33 L12,33 L12,36 L13,36 L13,41 L14,41 L14,43 L20,43 L20,44 L22,44 L22,51 L21,51 L21,52 L20,52 L20,53 L22,53 L22,54 L23,54 L23,55 L21,55 L21,54 L19,54 L19,53 L18,53 L18,52 L17,52 L17,51 L15,51 L15,50 L14,50 L14,49 L13,49 L13,48 L11,48 L11,50 L12,50 L12,51 L13,51 L13,52 L15,52 L15,53 L16,53 L16,57 L15,57 L15,58 L14,58 L14,60 L12,60 L12,58 L11,58 L11,56 L9,56 L9,55 L7,55 L7,54 L10,54 L10,55 L11,55 L11,54 L12,54 L12,52 L11,52 L11,51 L10,51 L10,50 L8,50 L8,49 L7,49 L7,48 L5,48 L5,47 L3,47 L3,46 L1,46 L1,45 L-19,45 L-19,44 L-22,44 L-22,43 L-28,43 L-28,42 L-27,42 L-27,41 L-21,41 L-21,42 L-17,42 L-17,43 L-16,43 L-16,44 L4,44 L4,43 L5,43 L5,42 L2,42 L2,40 L4,40 L4,39 L3,39 L3,38 L2,38 L2,39 L0,39 L0,36 L2,36 L2,37 L3,37 L3,35 L1,35 L1,32 L0,32 L0,31 L2,31 L2,29 L0,29 L0,27 L3,27 L3,28 L6,28 L6,24 L7,24 L7,22 L8,22 L8,21 L9,21 L9,17 L8,17 L8,16 L7,16 L7,15 L6,15 L6,13 L5,13 L5,12 L4,12 L4,11 L3,11 L3,10 L2,10 L2,8 L1,8 L1,6 L0,6 Z " fill="#DCDCDB" transform="translate(135,99)"/>
<path d="M0,0 L6,0 L6,1 L7,1 L7,2 L8,2 L8,3 L12,3 L12,4 L20,4 L20,3 L21,3 L21,2 L22,2 L22,1 L29,1 L29,2 L24,2 L24,3 L22,3 L22,4 L23,4 L23,5 L22,5 L22,6 L28,6 L28,5 L31,5 L31,6 L30,6 L30,7 L29,7 L29,8 L28,8 L28,9 L27,9 L27,10 L26,10 L26,12 L-7,12 L-7,9 L-8,9 L-8,7 L-9,7 L-9,5 L-10,5 L-10,3 L-11,3 L-11,1 L-10,1 L-10,2 L-7,2 L-7,1 L-2,1 L-2,2 L2,2 L2,3 L6,3 L6,2 L5,2 L5,1 L0,1 Z " fill="#434343" transform="translate(84,188)"/>
<path d="M0,0 L18,0 L18,1 L19,1 L19,2 L20,2 L20,3 L21,3 L21,7 L20,7 L20,8 L22,8 L22,12 L21,12 L21,13 L19,13 L19,16 L18,16 L18,17 L17,17 L17,18 L15,18 L15,19 L9,19 L9,18 L12,18 L12,17 L16,17 L16,16 L17,16 L17,15 L14,15 L14,16 L0,16 L0,15 L-3,15 L-3,13 L-1,13 L-1,14 L3,14 L3,12 L14,12 L14,11 L16,11 L16,10 L12,10 L12,11 L5,11 L5,10 L-1,10 L-1,8 L0,8 L0,6 L-1,6 L-1,5 L-2,5 L-2,4 L0,4 L0,5 L1,5 L1,6 L2,6 L2,7 L5,7 L5,1 L0,1 Z " fill="#6A656A" transform="translate(91,84)"/>
<path d="M0,0 L3,0 L3,1 L4,1 L4,3 L3,3 L3,4 L2,4 L2,5 L1,5 L1,6 L0,6 L0,11 L1,11 L1,14 L2,14 L2,20 L1,20 L1,23 L0,23 L0,24 L-1,24 L-1,25 L-2,25 L-2,28 L-3,28 L-3,29 L-4,29 L-4,34 L-5,34 L-5,32 L-6,32 L-6,31 L-7,31 L-7,27 L-8,27 L-8,28 L-9,28 L-9,41 L-8,41 L-8,43 L-7,43 L-7,48 L-8,48 L-8,53 L-9,53 L-9,52 L-10,52 L-10,49 L-11,49 L-11,40 L-10,40 L-10,37 L-11,37 L-11,28 L-10,28 L-10,24 L-9,24 L-9,22 L-8,22 L-8,13 L-9,13 L-9,11 L-6,11 L-6,13 L-5,13 L-5,8 L-4,8 L-4,4 L-3,4 L-3,2 L-2,2 L-2,1 L0,1 Z " fill="#CBCBCB" transform="translate(195,56)"/>
<path d="M0,0 L16,0 L16,10 L15,10 L15,11 L13,11 L13,13 L10,13 L10,14 L18,14 L18,15 L17,15 L17,16 L10,16 L10,17 L9,17 L9,18 L7,18 L7,17 L4,17 L4,15 L6,15 L6,14 L3,14 L3,13 L1,13 L1,12 L-1,12 L-1,9 L-2,9 L-2,8 L-3,8 L-3,6 L-2,6 L-2,2 L-1,2 L-1,1 L0,1 Z " fill="#545354" transform="translate(142,87)"/>
<path d="M0,0 L2,0 L2,1 L3,1 L3,0 L6,0 L6,1 L7,1 L7,2 L8,2 L8,3 L9,3 L9,4 L10,4 L10,5 L11,5 L11,6 L12,6 L12,7 L13,7 L13,8 L14,8 L14,9 L15,9 L15,10 L16,10 L16,11 L15,11 L15,12 L13,12 L13,13 L12,13 L12,12 L10,12 L10,13 L11,13 L11,14 L12,14 L12,15 L13,15 L13,16 L15,16 L15,17 L14,17 L14,19 L13,19 L13,20 L15,20 L15,18 L17,18 L17,19 L18,19 L18,21 L16,21 L16,23 L15,23 L15,22 L11,22 L11,24 L9,24 L9,22 L8,22 L8,21 L6,21 L6,19 L2,19 L2,18 L1,18 L1,17 L3,17 L3,18 L4,18 L4,17 L5,17 L5,16 L4,16 L4,15 L5,15 L5,14 L3,14 L3,13 L2,13 L2,11 L0,11 Z M1,13 L2,13 L2,14 L1,14 Z " fill="#FDFDFD" transform="translate(70,139)"/>
<path d="M0,0 L7,0 L7,1 L13,1 L13,8 L14,8 L14,2 L18,2 L18,3 L19,3 L19,4 L21,4 L21,5 L20,5 L20,8 L19,8 L19,11 L18,11 L18,14 L15,14 L15,15 L13,15 L13,14 L9,14 L9,13 L1,13 L1,11 L2,11 L2,10 L-1,10 L-1,6 L0,6 Z " fill="#1E1D1D" transform="translate(139,42)"/>
<path d="M0,0 L2,0 L2,1 L1,1 L1,2 L3,2 L3,3 L5,3 L5,5 L6,5 L6,2 L8,2 L8,3 L9,3 L9,2 L11,2 L11,4 L10,4 L10,7 L14,7 L14,6 L13,6 L13,5 L15,5 L15,8 L17,8 L17,7 L18,7 L18,8 L19,8 L19,9 L17,9 L17,11 L20,11 L20,12 L19,12 L19,13 L-1,13 L-1,12 L-2,12 L-2,11 L-4,11 L-4,10 L-5,10 L-5,9 L-4,9 L-4,8 L-3,8 L-3,9 L-2,9 L-2,7 L-1,7 L-1,6 L-2,6 L-2,5 L-1,5 L-1,4 L-4,4 L-4,6 L-5,6 L-5,7 L-7,7 L-7,5 L-6,5 L-6,3 L-7,3 L-7,1 L-4,1 L-4,3 L-3,3 L-3,1 L-2,1 L-2,2 L0,2 Z " fill="#EBEBEB" transform="translate(120,130)"/>
<path d="M0,0 L2,0 L2,2 L4,2 L4,4 L3,4 L3,5 L5,5 L5,6 L1,6 L1,5 L0,5 L0,6 L-1,6 L-1,8 L0,8 L0,9 L2,9 L2,11 L0,11 L0,12 L-1,12 L-1,13 L-2,13 L-2,12 L-4,12 L-4,11 L-5,11 L-5,13 L-3,13 L-3,14 L-2,14 L-2,16 L-4,16 L-4,18 L-6,18 L-6,19 L-7,19 L-7,21 L-6,21 L-6,20 L-5,20 L-5,22 L-4,22 L-4,23 L-3,23 L-3,24 L-2,24 L-2,23 L-1,23 L-1,24 L1,24 L1,25 L4,25 L4,26 L2,26 L2,27 L0,27 L0,28 L-1,28 L-1,27 L-2,27 L-2,25 L-4,25 L-4,24 L-6,24 L-6,23 L-7,23 L-7,22 L-8,22 L-8,21 L-10,21 L-10,19 L-11,19 L-11,18 L-13,18 L-13,16 L-15,16 L-15,14 L-17,14 L-17,12 L-16,12 L-16,11 L-15,11 L-15,10 L-14,10 L-14,8 L-11,8 L-11,9 L-12,9 L-12,10 L-10,10 L-10,12 L-9,12 L-9,8 L-8,8 L-8,7 L-7,7 L-7,9 L-3,9 L-3,7 L-2,7 L-2,5 L-1,5 L-1,4 L-2,4 L-2,3 L-4,3 L-4,1 L-2,1 L-2,2 L0,2 Z " fill="#BABABA" transform="translate(93,124)"/>
<path d="M0,0 L1,0 L1,14 L2,14 L2,15 L3,15 L3,18 L4,18 L4,24 L5,24 L5,25 L6,25 L6,26 L7,26 L7,28 L8,28 L8,30 L9,30 L9,32 L10,32 L10,33 L11,33 L11,34 L12,34 L12,35 L14,35 L14,37 L16,37 L16,39 L18,39 L18,40 L19,40 L19,42 L21,42 L21,43 L22,43 L22,44 L23,44 L23,45 L25,45 L25,46 L27,46 L27,48 L28,48 L28,49 L29,49 L29,50 L31,50 L31,51 L32,51 L32,52 L33,52 L33,53 L34,53 L34,54 L35,54 L35,55 L36,55 L36,56 L37,56 L37,57 L38,57 L38,58 L40,58 L40,59 L42,59 L42,61 L47,61 L47,63 L50,63 L50,64 L58,64 L58,65 L56,65 L56,66 L49,66 L49,65 L48,65 L48,64 L44,64 L44,63 L43,63 L43,62 L41,62 L41,61 L39,61 L39,60 L38,60 L38,59 L36,59 L36,57 L34,57 L34,56 L33,56 L33,55 L32,55 L32,54 L31,54 L31,53 L30,53 L30,52 L29,52 L29,51 L28,51 L28,50 L27,50 L27,49 L26,49 L26,48 L25,48 L25,47 L23,47 L23,46 L21,46 L21,45 L20,45 L20,44 L19,44 L19,43 L18,43 L18,42 L17,42 L17,41 L16,41 L16,40 L15,40 L15,39 L14,39 L14,38 L13,38 L13,37 L12,37 L12,36 L11,36 L11,35 L10,35 L10,34 L9,34 L9,33 L8,33 L8,32 L7,32 L7,31 L6,31 L6,28 L5,28 L5,27 L4,27 L4,26 L3,26 L3,25 L2,25 L2,18 L1,18 L1,16 L0,16 L0,15 L-1,15 L-1,4 L0,4 Z " fill="#1B1B1A" transform="translate(64,103)"/>
<path d="M0,0 L2,0 L2,6 L3,6 L3,9 L4,9 L4,10 L5,10 L5,11 L6,11 L6,12 L7,12 L7,13 L8,13 L8,14 L9,14 L9,15 L10,15 L10,16 L11,16 L11,21 L10,21 L10,23 L9,23 L9,25 L8,25 L8,28 L11,28 L11,29 L10,29 L10,36 L11,36 L11,38 L12,38 L12,42 L11,42 L11,41 L10,41 L10,40 L4,40 L4,39 L3,39 L3,38 L2,38 L2,39 L0,39 L0,36 L2,36 L2,37 L3,37 L3,35 L1,35 L1,32 L0,32 L0,31 L2,31 L2,29 L0,29 L0,27 L3,27 L3,28 L6,28 L6,24 L7,24 L7,22 L8,22 L8,21 L9,21 L9,17 L8,17 L8,16 L7,16 L7,15 L6,15 L6,13 L5,13 L5,12 L4,12 L4,11 L3,11 L3,10 L2,10 L2,8 L1,8 L1,6 L0,6 Z " fill="#E7E7E7" transform="translate(135,99)"/>
<path d="M0,0 L2,0 L2,1 L3,1 L3,2 L7,2 L7,3 L8,3 L8,4 L23,4 L23,10 L22,10 L22,6 L21,6 L21,9 L19,9 L19,10 L17,10 L17,11 L16,11 L16,13 L14,13 L14,12 L13,12 L13,13 L12,13 L12,14 L14,14 L14,15 L13,15 L13,16 L12,16 L12,15 L10,15 L10,14 L9,14 L9,13 L8,13 L8,12 L7,12 L7,11 L6,11 L6,8 L5,8 L5,7 L3,7 L3,8 L1,8 L1,6 L3,6 L3,5 L4,5 L4,4 L2,4 L2,3 L1,3 L1,2 L0,2 Z " fill="#D8D8D8" transform="translate(105,165)"/>
<path d="M0,0 L1,0 L1,4 L2,4 L2,5 L3,5 L3,7 L4,7 L4,10 L5,10 L5,12 L6,12 L6,24 L5,24 L5,26 L4,26 L4,28 L3,28 L3,29 L2,29 L2,31 L1,31 L1,32 L0,32 L0,33 L-1,33 L-1,32 L-4,32 L-4,29 L-3,29 L-3,28 L-2,28 L-2,27 L-1,27 L-1,26 L0,26 L0,21 L1,21 L1,16 L0,16 L0,14 L-1,14 L-1,1 L0,1 Z " fill="#B9B9B9" transform="translate(187,83)"/>
<path d="M0,0 L2,0 L2,1 L1,1 L1,2 L0,2 L0,4 L2,4 L2,5 L1,5 L1,7 L3,7 L3,5 L5,5 L5,6 L6,6 L6,5 L7,5 L7,4 L8,4 L8,7 L9,7 L9,9 L10,9 L10,11 L12,11 L12,13 L11,13 L11,12 L9,12 L9,10 L6,10 L6,12 L5,12 L5,10 L4,10 L4,11 L1,11 L1,12 L2,12 L2,13 L1,13 L1,14 L0,14 L0,12 L-1,12 L-1,13 L-5,13 L-5,12 L-6,12 L-6,11 L-7,11 L-7,10 L-8,10 L-8,9 L-9,9 L-9,8 L-10,8 L-10,7 L-11,7 L-11,6 L-13,6 L-13,5 L-8,5 L-8,6 L-7,6 L-7,4 L-8,4 L-8,3 L-5,3 L-5,2 L-4,2 L-4,4 L-2,4 L-2,2 L-1,2 L-1,1 L0,1 Z " fill="#D5D5D5" transform="translate(106,147)"/>
<path d="M0,0 L2,0 L2,2 L1,2 L1,4 L0,4 L0,5 L1,5 L1,6 L2,6 L2,4 L4,4 L4,6 L6,6 L6,7 L8,7 L8,8 L7,8 L7,9 L5,9 L5,8 L4,8 L4,10 L6,10 L6,11 L8,11 L8,10 L10,10 L10,12 L11,12 L11,11 L13,11 L13,12 L12,12 L12,13 L10,13 L10,14 L9,14 L9,15 L7,15 L7,17 L8,17 L8,18 L9,18 L9,17 L13,17 L13,18 L12,18 L12,19 L9,19 L9,20 L11,20 L11,21 L10,21 L10,22 L6,22 L6,20 L5,20 L5,19 L6,19 L6,17 L5,17 L5,15 L4,15 L4,14 L3,14 L3,13 L0,13 L0,14 L-2,14 L-2,15 L-3,15 L-3,14 L-4,14 L-4,12 L-2,12 L-2,11 L-3,11 L-3,10 L-4,10 L-4,8 L-2,8 L-2,6 L-1,6 L-1,5 L-2,5 L-2,3 L-3,3 L-3,1 L-1,1 L-1,2 L0,2 Z " fill="#DEDEDE" transform="translate(76,106)"/>
<path d="M0,0 L2,0 L2,1 L3,1 L3,13 L2,13 L2,16 L1,16 L1,17 L0,17 L0,22 L-1,22 L-1,23 L-2,23 L-2,24 L-3,24 L-3,28 L-4,28 L-4,29 L-5,29 L-5,30 L-6,30 L-6,32 L-7,32 L-7,34 L-8,34 L-8,36 L-9,36 L-9,37 L-10,37 L-10,38 L-11,38 L-11,39 L-12,39 L-12,45 L-13,45 L-13,50 L-14,50 L-14,51 L-16,51 L-16,50 L-15,50 L-15,49 L-14,49 L-14,41 L-13,41 L-13,36 L-11,36 L-11,35 L-10,35 L-10,33 L-9,33 L-9,31 L-8,31 L-8,30 L-7,30 L-7,28 L-6,28 L-6,25 L-5,25 L-5,24 L-4,24 L-4,22 L-3,22 L-3,21 L-2,21 L-2,16 L-5,16 L-5,17 L-6,17 L-6,20 L-8,20 L-8,19 L-7,19 L-7,15 L-5,15 L-5,14 L-2,14 L-2,15 L-1,15 L-1,13 L0,13 L0,10 L-1,10 L-1,9 L0,9 L0,2 L-2,2 L-2,1 L0,1 Z " fill="#202020" transform="translate(171,101)"/>
<path d="M0,0 L2,0 L2,2 L3,2 L3,3 L4,3 L4,4 L5,4 L5,5 L6,5 L6,7 L7,7 L7,8 L8,8 L8,9 L9,9 L9,10 L11,10 L11,11 L12,11 L12,22 L11,22 L11,24 L12,24 L12,25 L10,25 L10,23 L8,23 L8,22 L10,22 L10,21 L8,21 L8,20 L7,20 L7,19 L6,19 L6,17 L5,17 L5,15 L4,15 L4,14 L3,14 L3,11 L2,11 L2,10 L1,10 L1,7 L0,7 Z " fill="#565656" transform="translate(33,91)"/>
<path d="M0,0 L5,0 L5,3 L6,3 L6,5 L5,5 L5,8 L4,8 L4,9 L3,9 L3,14 L2,14 L2,12 L1,12 L1,11 L0,11 L0,7 L-1,7 L-1,8 L-2,8 L-2,21 L-1,21 L-1,23 L0,23 L0,28 L-1,28 L-1,33 L-2,33 L-2,32 L-3,32 L-3,29 L-4,29 L-4,20 L-3,20 L-3,17 L-4,17 L-4,8 L-3,8 L-3,4 L-2,4 L-2,2 L-1,2 L-1,1 L0,1 Z " fill="#BFBFBF" transform="translate(188,76)"/>
<path d="M0,0 L18,0 L18,1 L19,1 L19,2 L20,2 L20,4 L18,4 L18,3 L16,3 L16,7 L18,7 L18,8 L5,8 L5,9 L6,9 L6,10 L-1,10 L-1,8 L0,8 L0,6 L-1,6 L-1,5 L-2,5 L-2,4 L0,4 L0,5 L1,5 L1,6 L2,6 L2,7 L5,7 L5,1 L0,1 Z " fill="#111012" transform="translate(91,84)"/>
<path d="M0,0 L1,0 L1,2 L2,2 L2,3 L1,3 L1,5 L0,5 L0,7 L1,7 L1,6 L4,6 L4,8 L3,8 L3,7 L2,7 L2,10 L1,10 L1,11 L-1,11 L-1,12 L2,12 L2,11 L5,11 L5,10 L7,10 L7,11 L6,11 L6,12 L5,12 L5,13 L4,13 L4,12 L3,12 L3,13 L2,13 L2,14 L1,14 L1,15 L3,15 L3,16 L2,16 L2,17 L1,17 L1,18 L3,18 L3,17 L5,17 L5,19 L2,19 L2,20 L1,20 L1,21 L0,21 L0,22 L-1,22 L-1,23 L1,23 L1,22 L3,22 L3,23 L2,23 L2,24 L3,24 L3,26 L2,26 L2,27 L1,27 L1,28 L-1,28 L-1,25 L-2,25 L-2,24 L-3,24 L-3,10 L-4,10 L-4,14 L-5,14 L-5,7 L-3,7 L-3,8 L-2,8 L-2,6 L-1,6 L-1,1 L0,1 Z " fill="#C4C4C4" transform="translate(68,93)"/>
<path d="M0,0 L7,0 L7,1 L2,1 L2,2 L0,2 L0,3 L1,3 L1,4 L0,4 L0,5 L6,5 L6,4 L9,4 L9,5 L8,5 L8,6 L7,6 L7,7 L6,7 L6,8 L5,8 L5,9 L4,9 L4,11 L-18,11 L-18,10 L-19,10 L-19,9 L-20,9 L-20,8 L0,8 L0,6 L-14,6 L-14,5 L-5,5 L-5,4 L-1,4 L-1,3 L-2,3 L-2,2 L-1,2 L-1,1 L0,1 Z M-18,9 L-18,10 L-17,10 L-17,9 Z " fill="#575757" transform="translate(106,189)"/>
<path d="M0,0 L6,0 L6,1 L10,1 L10,2 L11,2 L11,3 L31,3 L31,2 L35,2 L35,3 L36,3 L36,4 L37,4 L37,5 L38,5 L38,6 L40,6 L40,7 L38,7 L38,9 L39,9 L39,10 L40,10 L40,11 L42,11 L42,12 L43,12 L43,16 L42,16 L42,17 L41,17 L41,19 L39,19 L39,17 L38,17 L38,15 L36,15 L36,14 L34,14 L34,13 L37,13 L37,14 L38,14 L38,13 L39,13 L39,11 L38,11 L38,10 L37,10 L37,9 L35,9 L35,8 L34,8 L34,7 L32,7 L32,6 L30,6 L30,5 L28,5 L28,4 L8,4 L8,3 L5,3 L5,2 L-1,2 L-1,1 L0,1 Z " fill="#B3B2B2" transform="translate(108,140)"/>
<path d="M0,0 L13,0 L13,1 L11,1 L11,2 L13,2 L13,3 L12,3 L12,4 L11,4 L11,5 L9,5 L9,4 L8,4 L8,5 L4,5 L4,6 L0,6 L0,7 L-4,7 L-4,8 L-6,8 L-6,9 L-9,9 L-9,8 L-10,8 L-10,7 L-9,7 L-9,6 L-13,6 L-13,5 L-11,5 L-11,4 L-8,4 L-8,3 L-5,3 L-5,2 L-3,2 L-3,1 L0,1 Z " fill="#141414" transform="translate(33,148)"/>
<path d="M0,0 L16,0 L16,8 L10,8 L10,7 L7,7 L7,6 L-1,6 L-1,1 L0,1 Z " fill="#191919" transform="translate(142,87)"/>
<path d="M0,0 L1,0 L1,1 L2,1 L2,2 L3,2 L3,3 L4,3 L4,4 L5,4 L5,5 L6,5 L6,6 L7,6 L7,7 L9,7 L9,9 L11,9 L11,10 L9,10 L9,11 L5,11 L5,12 L4,12 L4,13 L3,13 L3,15 L1,15 L1,13 L0,13 L0,17 L-2,17 L-2,20 L-4,20 L-4,18 L-5,18 L-5,16 L-4,16 L-4,14 L-2,14 L-2,15 L-1,15 L-1,13 L-2,13 L-2,11 L0,11 L0,10 L-1,10 L-1,6 L-2,6 L-2,4 L0,4 Z " fill="#D8D8D8" transform="translate(91,153)"/>
<path d="M0,0 L7,0 L7,2 L8,2 L8,4 L9,4 L9,10 L0,10 L0,9 L-1,9 L-1,7 L-2,7 L-2,4 L-3,4 L-3,3 L-4,3 L-4,1 L0,1 Z " fill="#555555" transform="translate(98,41)"/>
<path d="M0,0 L12,0 L12,2 L11,2 L11,8 L10,8 L10,11 L6,11 L6,10 L2,10 L2,6 L1,6 L1,3 L0,3 Z " fill="#575757" transform="translate(107,40)"/>
<path d="M0,0 L3,0 L3,1 L8,1 L8,7 L5,7 L5,6 L4,6 L4,5 L3,5 L3,4 L1,4 L1,5 L2,5 L2,6 L3,6 L3,8 L2,8 L2,10 L8,10 L8,11 L15,11 L15,10 L19,10 L19,11 L17,11 L17,12 L6,12 L6,14 L2,14 L2,13 L3,13 L3,12 L-1,12 L-1,11 L-2,11 L-2,8 L-1,8 L-1,7 L0,7 L0,6 L-2,6 L-2,5 L-1,5 L-1,1 L0,1 Z " fill="#DBC8DA" transform="translate(88,84)"/>
<path d="M0,0 L2,0 L2,1 L3,1 L3,2 L4,2 L4,3 L5,3 L5,4 L6,4 L6,5 L7,5 L7,6 L8,6 L8,7 L9,7 L9,8 L11,8 L11,10 L10,10 L10,12 L9,12 L9,16 L8,16 L8,15 L7,15 L7,14 L6,14 L6,13 L5,13 L5,12 L4,12 L4,11 L3,11 L3,10 L2,10 L2,9 L1,9 L1,7 L0,7 L0,6 L-1,6 L-1,5 L-2,5 L-2,3 L-1,3 L-1,1 L0,1 Z " fill="#575757" transform="translate(37,85)"/>
<path d="M0,0 L2,0 L2,2 L1,2 L1,6 L0,6 L0,7 L2,7 L2,4 L3,4 L3,3 L6,3 L6,8 L5,8 L5,9 L4,9 L4,11 L3,11 L3,12 L2,12 L2,15 L1,15 L1,17 L0,17 L0,15 L-1,15 L-1,13 L-2,13 L-2,14 L-4,14 L-4,12 L-1,12 L-1,11 L0,11 L0,10 L-1,10 L-1,8 L-2,8 L-2,9 L-4,9 L-4,7 L-5,7 L-5,5 L-3,5 L-3,7 L-2,7 L-2,5 L-1,5 L-1,4 L-2,4 L-2,3 L-3,3 L-3,1 L-1,1 L-1,2 L0,2 Z " fill="#DDDDDD" transform="translate(163,114)"/>
<path d="M0,0 L3,0 L3,1 L4,1 L4,2 L5,2 L5,3 L6,3 L6,4 L7,4 L7,5 L8,5 L8,6 L9,6 L9,7 L10,7 L10,11 L9,11 L9,13 L7,13 L7,12 L5,12 L5,11 L4,11 L4,10 L3,10 L3,9 L2,9 L2,7 L1,7 L1,6 L0,6 L0,5 L-1,5 L-1,4 L-2,4 L-2,2 L-1,2 L-1,1 L0,1 Z " fill="#555555" transform="translate(41,79)"/>
<path d="M0,0 L3,0 L3,1 L9,1 L9,0 L13,0 L13,1 L10,1 L10,2 L2,2 L2,3 L-1,3 L-1,4 L-7,4 L-7,5 L-10,5 L-10,6 L-13,6 L-13,7 L-17,7 L-17,8 L-21,8 L-21,7 L-19,7 L-19,5 L-16,5 L-16,4 L-14,4 L-14,3 L-12,3 L-12,2 L-10,2 L-10,1 L0,1 Z " fill="#565656" transform="translate(103,52)"/>
<path d="M0,0 L4,0 L4,1 L6,1 L6,2 L5,2 L5,3 L3,3 L3,5 L5,5 L5,4 L7,4 L7,5 L8,5 L8,7 L7,7 L7,8 L4,8 L4,9 L3,9 L3,12 L4,12 L4,15 L2,15 L2,13 L1,13 L1,12 L0,12 L0,11 L-1,11 L-1,9 L-2,9 L-2,10 L-3,10 L-3,9 L-4,9 L-4,7 L-2,7 L-2,5 L-1,5 L-1,4 L0,4 L0,3 L1,3 L1,2 L0,2 Z " fill="#E2E2E2" transform="translate(103,168)"/>
<path d="M0,0 L3,0 L3,2 L2,2 L2,3 L4,3 L4,4 L5,4 L5,7 L6,7 L6,6 L8,6 L8,8 L5,8 L5,9 L7,9 L7,10 L8,10 L8,9 L10,9 L10,7 L12,7 L12,8 L13,8 L13,10 L11,10 L11,12 L10,12 L10,11 L6,11 L6,13 L4,13 L4,11 L3,11 L3,10 L1,10 L1,8 L-3,8 L-3,7 L-4,7 L-4,6 L-2,6 L-2,7 L-1,7 L-1,6 L0,6 L0,5 L-1,5 L-1,4 L0,4 L0,3 L-2,3 L-2,1 L0,1 Z " fill="#D8D8D8" transform="translate(75,150)"/>
<path d="M0,0 L7,0 L7,7 L6,7 L6,10 L-2,10 L-2,4 L-1,4 L-1,2 L0,2 Z " fill="#585858" transform="translate(130,41)"/>
<path d="M0,0 L2,0 L2,6 L3,6 L3,9 L4,9 L4,10 L5,10 L5,11 L6,11 L6,12 L7,12 L7,13 L8,13 L8,14 L9,14 L9,15 L10,15 L10,16 L11,16 L11,21 L10,21 L10,23 L9,23 L9,25 L8,25 L8,29 L7,29 L7,30 L6,30 L6,31 L4,31 L4,30 L2,30 L2,29 L0,29 L0,27 L3,27 L3,28 L6,28 L6,24 L7,24 L7,22 L8,22 L8,21 L9,21 L9,17 L8,17 L8,16 L7,16 L7,15 L6,15 L6,13 L5,13 L5,12 L4,12 L4,11 L3,11 L3,10 L2,10 L2,8 L1,8 L1,6 L0,6 Z " fill="#1E1E1E" transform="translate(135,99)"/>
<path d="M0,0 L7,0 L7,4 L6,4 L6,6 L5,6 L5,11 L-3,11 L-3,10 L-2,10 L-2,8 L-1,8 L-1,2 L0,2 Z " fill="#575757" transform="translate(121,40)"/>
<path d="M0,0 L1,0 L1,2 L2,2 L2,5 L3,5 L3,3 L5,3 L5,4 L6,4 L6,5 L5,5 L5,7 L4,7 L4,9 L3,9 L3,10 L1,10 L1,15 L0,15 L0,13 L-1,13 L-1,14 L-2,14 L-2,11 L-4,11 L-4,9 L-3,9 L-3,5 L-5,5 L-5,3 L-3,3 L-3,1 L-2,1 L-2,2 L-1,2 L-1,4 L0,4 Z " fill="#CCCCCC" transform="translate(157,127)"/>
<path d="M0,0 L6,0 L6,1 L7,1 L7,4 L8,4 L8,6 L9,6 L9,8 L4,8 L4,9 L0,9 L0,7 L-1,7 L-1,5 L-2,5 L-2,3 L-3,3 L-3,2 L-2,2 L-2,1 L0,1 Z " fill="#555555" transform="translate(87,44)"/>
<path d="M0,0 L2,0 L2,1 L3,1 L3,2 L4,2 L4,3 L5,3 L5,4 L6,4 L6,6 L7,6 L7,7 L8,7 L8,8 L7,8 L7,9 L6,9 L6,10 L7,10 L7,11 L6,11 L6,12 L5,12 L5,11 L3,11 L3,10 L2,10 L2,9 L1,9 L1,8 L-1,8 L-1,7 L-2,7 L-2,6 L-3,6 L-3,5 L-4,5 L-4,3 L-3,3 L-3,2 L-1,2 L-1,1 L0,1 Z " fill="#525252" transform="translate(61,60)"/>
<path d="M0,0 L2,0 L2,1 L1,1 L1,2 L3,2 L3,3 L5,3 L5,5 L6,5 L6,2 L8,2 L8,3 L9,3 L9,2 L11,2 L11,4 L10,4 L10,5 L9,5 L9,6 L8,6 L8,7 L9,7 L9,8 L7,8 L7,6 L6,6 L6,8 L4,8 L4,6 L2,6 L2,7 L0,7 L0,6 L-2,6 L-2,5 L-1,5 L-1,4 L-4,4 L-4,6 L-5,6 L-5,7 L-7,7 L-7,5 L-6,5 L-6,3 L-7,3 L-7,1 L-4,1 L-4,3 L-3,3 L-3,1 L-2,1 L-2,2 L0,2 Z " fill="#DADADA" transform="translate(120,130)"/>
<path d="M0,0 L1,0 L1,6 L3,6 L3,3 L4,3 L4,0 L5,0 L5,5 L4,5 L4,7 L3,7 L3,11 L2,11 L2,14 L1,14 L1,21 L2,21 L2,22 L1,22 L1,23 L2,23 L2,25 L3,25 L3,26 L4,26 L4,30 L2,30 L2,27 L1,27 L1,25 L0,25 L0,24 L-1,24 L-1,12 L0,12 Z " fill="#232323" transform="translate(169,71)"/>
<path d="M0,0 L4,0 L4,2 L3,2 L3,3 L4,3 L4,4 L6,4 L6,5 L7,5 L7,6 L9,6 L9,7 L10,7 L10,6 L12,6 L12,7 L11,7 L11,9 L8,9 L8,10 L9,10 L9,12 L8,12 L8,11 L3,11 L3,10 L5,10 L5,9 L7,9 L7,8 L4,8 L4,7 L2,7 L2,6 L1,6 L1,7 L0,7 L0,6 L-1,6 L-1,5 L-2,5 L-2,3 L-3,3 L-3,4 L-4,4 L-4,2 L-3,2 L-3,1 L0,1 Z " fill="#D8D8D8" transform="translate(90,141)"/>
<path d="M0,0 L1,0 L1,2 L-1,2 L-1,1 L0,1 Z M-2,2 L-1,2 L-1,3 L-2,3 Z M-3,3 L-2,3 L-2,6 L-3,6 L-3,7 L-5,7 L-5,8 L-7,8 L-7,9 L-9,9 L-9,10 L-11,10 L-11,11 L-14,11 L-14,12 L-15,12 L-15,13 L-18,13 L-18,12 L-20,12 L-20,11 L-21,11 L-21,10 L-23,10 L-23,9 L-24,9 L-24,8 L-26,8 L-26,7 L-23,7 L-23,8 L-22,8 L-22,9 L-20,9 L-20,10 L-19,10 L-19,11 L-17,11 L-17,9 L-18,9 L-18,8 L-19,8 L-19,7 L-17,7 L-17,8 L-16,8 L-16,9 L-14,9 L-14,8 L-13,8 L-13,7 L-8,7 L-8,6 L-7,6 L-7,5 L-4,5 L-4,4 L-3,4 Z " fill="#ADADAD" transform="translate(179,148)"/>
<path d="M0,0 L1,0 L1,1 L2,1 L2,2 L3,2 L3,4 L4,4 L4,6 L3,6 L3,7 L4,7 L4,9 L8,9 L8,8 L9,8 L9,11 L6,11 L6,10 L5,10 L5,11 L4,11 L4,12 L-1,12 L-1,11 L-2,11 L-2,7 L-3,7 L-3,8 L-6,8 L-6,6 L-1,6 L-1,7 L0,7 L0,8 L2,8 L2,6 L1,6 L1,5 L0,5 L0,4 L-4,4 L-4,3 L-3,3 L-3,2 L0,2 Z " fill="#E9E9E9" transform="translate(78,119)"/>
<path d="M0,0 L1,0 L1,6 L0,6 L0,7 L2,7 L2,2 L3,2 L3,9 L4,9 L4,13 L3,13 L3,10 L2,10 L2,13 L1,13 L1,16 L-1,16 L-1,10 L-2,10 L-2,17 L-3,17 L-3,8 L-4,8 L-4,6 L-3,6 L-3,4 L-2,4 L-2,3 L-1,3 L-1,2 L0,2 Z " fill="#212121" transform="translate(171,61)"/>
<path d="M0,0 L3,0 L3,1 L4,1 L4,3 L5,3 L5,4 L6,4 L6,6 L7,6 L7,8 L8,8 L8,9 L7,9 L7,10 L5,10 L5,11 L3,11 L3,10 L2,10 L2,9 L1,9 L1,8 L0,8 L0,7 L-1,7 L-1,6 L-2,6 L-2,5 L-3,5 L-3,3 L-2,3 L-2,2 L-1,2 L-1,1 L0,1 Z " fill="#545454" transform="translate(67,55)"/>
<path d="M0,0 L2,0 L2,1 L4,1 L4,2 L5,2 L5,6 L4,6 L4,11 L3,11 L3,13 L0,13 L0,12 L-1,12 L-1,11 L-2,11 L-2,10 L-3,10 L-3,8 L-2,8 L-2,6 L-1,6 L-1,3 L0,3 Z " fill="#575757" transform="translate(161,47)"/>
<path d="M0,0 L2,0 L2,1 L3,1 L3,13 L2,13 L2,16 L1,16 L1,17 L0,17 L0,16 L-1,16 L-1,17 L-2,17 L-2,16 L-5,16 L-5,17 L-6,17 L-6,20 L-8,20 L-8,19 L-7,19 L-7,15 L-5,15 L-5,14 L-2,14 L-2,15 L-1,15 L-1,13 L0,13 L0,10 L-1,10 L-1,9 L0,9 L0,2 L-2,2 L-2,1 L0,1 Z " fill="#5A5A5A" transform="translate(171,101)"/>
<path d="M0,0 L21,0 L21,1 L23,1 L23,2 L29,2 L29,4 L28,4 L28,3 L5,3 L5,2 L2,2 L2,1 L0,1 Z " fill="#EAEAEA" transform="translate(117,53)"/>
<path d="M0,0 L1,0 L1,1 L2,1 L2,2 L3,2 L3,3 L4,3 L4,4 L5,4 L5,5 L6,5 L6,6 L7,6 L7,7 L8,7 L8,8 L9,8 L9,10 L7,10 L7,11 L6,11 L6,10 L5,10 L5,9 L4,9 L4,10 L2,10 L2,8 L3,8 L3,7 L1,7 L1,6 L0,6 L0,7 L-1,7 L-1,8 L1,8 L1,10 L-1,10 L-1,9 L-2,9 L-2,10 L-4,10 L-4,8 L-2,8 L-2,2 L0,2 Z " fill="#D4D4D4" transform="translate(75,139)"/>
<path d="M0,0 L2,0 L2,2 L4,2 L4,4 L3,4 L3,5 L5,5 L5,6 L1,6 L1,5 L0,5 L0,6 L-1,6 L-1,8 L0,8 L0,9 L2,9 L2,11 L0,11 L0,12 L-1,12 L-1,13 L-2,13 L-2,12 L-4,12 L-4,11 L-5,11 L-5,10 L-6,10 L-6,11 L-8,11 L-8,12 L-9,12 L-9,8 L-8,8 L-8,7 L-7,7 L-7,9 L-3,9 L-3,7 L-2,7 L-2,5 L-1,5 L-1,4 L-2,4 L-2,3 L-4,3 L-4,1 L-2,1 L-2,2 L0,2 Z " fill="#DEDEDE" transform="translate(93,124)"/>
<path d="M0,0 L6,0 L6,9 L5,9 L5,11 L2,11 L2,10 L-1,10 L-1,6 L0,6 Z " fill="#565656" transform="translate(139,42)"/>
<path d="M0,0 L4,0 L4,1 L5,1 L5,2 L7,2 L7,3 L6,3 L6,6 L5,6 L5,9 L4,9 L4,12 L2,12 L2,11 L-1,11 L-1,8 L0,8 Z " fill="#535353" transform="translate(153,44)"/>
<path d="M0,0 L1,0 L1,2 L2,2 L2,3 L3,3 L3,4 L10,4 L10,6 L8,6 L8,7 L5,7 L5,8 L3,8 L3,9 L1,9 L1,10 L0,10 L0,9 L-2,9 L-2,6 L-3,6 L-3,4 L-2,4 L-2,3 L-1,3 L-1,1 L0,1 Z " fill="#E0E0E0" transform="translate(128,175)"/>
<path d="M0,0 L2,0 L2,1 L3,1 L3,3 L4,3 L4,4 L5,4 L5,6 L6,6 L6,9 L4,9 L4,11 L2,11 L2,10 L1,10 L1,9 L0,9 L0,7 L-1,7 L-1,6 L-2,6 L-2,4 L-3,4 L-3,3 L-4,3 L-4,2 L-3,2 L-3,1 L0,1 Z " fill="#545454" transform="translate(74,51)"/>
<path d="M0,0 L2,0 L2,1 L5,1 L5,4 L6,4 L6,3 L7,3 L7,1 L8,1 L8,2 L9,2 L9,4 L8,4 L8,6 L9,6 L9,5 L11,5 L11,4 L10,4 L10,2 L11,2 L11,3 L12,3 L12,7 L11,7 L11,6 L10,6 L10,7 L7,7 L7,6 L5,6 L5,7 L4,7 L4,6 L2,6 L2,7 L3,7 L3,8 L4,8 L4,9 L2,9 L2,8 L1,8 L1,4 L-1,4 L-1,1 L0,1 Z " fill="#B4B4B4" transform="translate(135,154)"/>
<path d="M0,0 L1,0 L1,1 L2,1 L2,4 L3,4 L3,5 L4,5 L4,6 L5,6 L5,7 L6,7 L6,8 L7,8 L7,9 L5,9 L5,10 L4,10 L4,9 L2,9 L2,15 L1,15 L1,21 L0,21 L0,23 L-2,23 L-2,22 L-1,22 L-1,19 L0,19 L0,7 L-1,7 L-1,5 L0,5 L0,6 L1,6 L1,3 L-1,3 L-1,1 L0,1 Z " fill="#8E8E8E" transform="translate(68,130)"/>
<path d="M0,0 L6,0 L6,1 L10,1 L10,2 L11,2 L11,3 L31,3 L31,2 L35,2 L35,3 L36,3 L36,4 L34,4 L34,3 L32,3 L32,4 L31,4 L31,5 L28,5 L28,4 L8,4 L8,3 L5,3 L5,2 L-1,2 L-1,1 L0,1 Z " fill="#0E0908" transform="translate(108,140)"/>
<path d="M0,0 L2,0 L2,2 L4,2 L4,23 L3,23 L3,14 L1,14 L1,9 L0,9 Z " fill="#AFAFAF" transform="translate(177,124)"/>
<path d="M0,0 L4,0 L4,1 L5,1 L5,2 L6,2 L6,3 L8,3 L8,4 L9,4 L9,5 L10,5 L10,7 L9,7 L9,8 L8,8 L8,9 L5,9 L5,8 L4,8 L4,7 L3,7 L3,6 L2,6 L2,5 L1,5 L1,4 L0,4 L0,3 L-1,3 L-1,1 L0,1 Z " fill="#555555" transform="translate(53,66)"/>
<path d="M0,0 L6,0 L6,2 L8,2 L8,3 L9,3 L9,5 L10,5 L10,6 L12,6 L12,8 L11,8 L11,7 L9,7 L9,8 L10,8 L10,9 L8,9 L8,8 L7,8 L7,6 L5,6 L5,7 L3,7 L3,5 L0,5 L0,3 L3,3 L3,2 L0,2 Z " fill="#E5E5E5" transform="translate(70,158)"/>
<path d="M0,0 L1,0 L1,5 L0,5 L0,6 L-1,6 L-1,7 L-2,7 L-2,9 L-3,9 L-3,11 L-4,11 L-4,12 L-5,12 L-5,9 L-6,9 L-6,10 L-7,10 L-7,7 L-8,7 L-8,5 L-7,5 L-7,4 L-6,4 L-6,3 L-5,3 L-5,2 L-4,2 L-4,1 L-2,1 L-2,4 L-1,4 L-1,2 L0,2 Z " fill="#CACACA" transform="translate(187,115)"/>
<path d="M0,0 L1,0 L1,5 L2,5 L2,13 L3,13 L3,15 L4,15 L4,20 L3,20 L3,25 L2,25 L2,24 L1,24 L1,21 L0,21 L0,12 L1,12 L1,9 L0,9 Z " fill="#E2E2E2" transform="translate(184,84)"/>
<path d="M0,0 L2,0 L2,1 L4,1 L4,0 L5,0 L5,4 L4,4 L4,6 L2,6 L2,7 L-4,7 L-4,8 L-11,8 L-11,7 L-10,7 L-10,6 L-11,6 L-11,5 L2,5 L2,4 L0,4 Z " fill="#7B6D7B" transform="translate(107,87)"/>
<path d="M0,0 L2,0 L2,1 L3,1 L3,3 L4,3 L4,4 L5,4 L5,5 L7,5 L7,3 L10,3 L10,4 L9,4 L9,5 L8,5 L8,6 L7,6 L7,7 L6,7 L6,8 L5,8 L5,9 L3,9 L3,10 L2,10 L2,11 L0,11 L0,12 L-1,12 L-1,13 L-4,13 L-4,12 L-3,12 L-3,11 L-2,11 L-2,10 L-3,10 L-3,9 L-4,9 L-4,7 L-5,7 L-5,6 L-6,6 L-6,5 L-4,5 L-4,6 L-3,6 L-3,7 L-2,7 L-2,8 L-1,8 L-1,9 L1,9 L1,8 L3,8 L3,7 L4,7 L4,6 L3,6 L3,4 L2,4 L2,2 L1,2 L1,1 L0,1 Z " fill="#1B1B1B" transform="translate(71,57)"/>
<path d="M0,0 L1,0 L1,1 L2,1 L2,5 L3,5 L3,8 L4,8 L4,17 L3,17 L3,10 L2,10 L2,15 L0,15 L0,14 L1,14 L1,8 L0,8 L0,10 L-1,10 L-1,11 L-2,11 L-2,12 L-3,12 L-3,14 L-4,14 L-4,12 L-5,12 L-5,11 L-3,11 L-3,10 L-2,10 L-2,8 L-1,8 L-1,2 L0,2 Z " fill="#111111" transform="translate(171,53)"/>
<path d="M0,0 L4,0 L4,2 L6,2 L6,1 L8,1 L8,3 L5,3 L5,4 L4,4 L4,5 L3,5 L3,6 L2,6 L2,7 L4,7 L4,6 L6,6 L6,7 L5,7 L5,8 L6,8 L6,10 L5,10 L5,11 L4,11 L4,12 L2,12 L2,9 L1,9 L1,8 L0,8 Z " fill="#D9D9D9" transform="translate(65,109)"/>
<path d="M0,0 L2,0 L2,2 L3,2 L3,4 L4,4 L4,5 L5,5 L5,8 L4,8 L4,9 L2,9 L2,10 L0,10 L0,8 L-1,8 L-1,7 L-2,7 L-2,5 L-3,5 L-3,4 L-4,4 L-4,2 L-2,2 L-2,1 L0,1 Z " fill="#555555" transform="translate(81,47)"/>
<path d="M0,0 L6,0 L6,1 L7,1 L7,2 L8,2 L8,3 L12,3 L12,4 L21,4 L21,5 L17,5 L17,6 L11,6 L11,5 L6,5 L6,4 L-1,4 L-1,3 L-6,3 L-6,2 L2,2 L2,3 L6,3 L6,2 L5,2 L5,1 L0,1 Z " fill="#1C1C1C" transform="translate(84,188)"/>
<path d="M0,0 L1,0 L1,1 L0,1 Z M-4,1 L0,1 L0,3 L-4,3 L-4,4 L-8,4 L-8,5 L-11,5 L-11,6 L-15,6 L-15,7 L-17,7 L-17,8 L-19,8 L-19,9 L-21,9 L-21,10 L-22,10 L-22,11 L-24,11 L-24,12 L-27,12 L-27,11 L-25,11 L-25,10 L-24,10 L-24,9 L-23,9 L-23,8 L-21,8 L-21,7 L-19,7 L-19,6 L-16,6 L-16,5 L-14,5 L-14,4 L-11,4 L-11,3 L-7,3 L-7,2 L-4,2 Z " fill="#030303" transform="translate(166,188)"/>
<path d="M0,0 L2,0 L2,1 L4,1 L4,2 L5,2 L5,3 L6,3 L6,4 L7,4 L7,6 L8,6 L8,9 L7,9 L7,10 L5,10 L5,9 L4,9 L4,8 L3,8 L3,7 L2,7 L2,6 L1,6 L1,5 L0,5 L0,4 L-2,4 L-2,2 L0,2 Z " fill="#525252" transform="translate(49,70)"/>
<path d="M0,0 L1,0 L1,9 L0,9 L0,11 L-2,11 L-2,12 L-4,12 L-4,13 L-6,13 L-6,14 L-8,14 L-8,15 L-11,15 L-11,16 L-13,16 L-13,17 L-16,17 L-16,18 L-18,18 L-18,17 L-17,17 L-17,16 L-16,16 L-16,15 L-14,15 L-14,14 L-11,14 L-11,13 L-8,13 L-8,12 L-6,12 L-6,11 L-4,11 L-4,10 L-2,10 L-2,9 L-1,9 L-1,6 L0,6 L0,5 L-1,5 L-1,3 L0,3 Z " fill="#020202" transform="translate(155,172)"/>
<path d="M0,0 L1,0 L1,1 L3,1 L3,2 L1,2 L1,4 L0,4 L0,5 L-2,5 L-2,6 L-1,6 L-1,7 L0,7 L0,9 L-2,9 L-2,8 L-3,8 L-3,10 L-2,10 L-2,11 L-4,11 L-4,10 L-5,10 L-5,8 L-6,8 L-6,11 L-8,11 L-8,10 L-11,10 L-11,8 L-9,8 L-9,9 L-7,9 L-7,8 L-8,8 L-8,6 L-6,6 L-6,7 L-5,7 L-5,5 L-3,5 L-3,4 L-4,4 L-4,3 L-2,3 L-2,4 L-1,4 L-1,1 L0,1 Z " fill="#B7B7B7" transform="translate(102,163)"/>
<path d="M0,0 L1,0 L1,2 L2,2 L2,1 L3,1 L3,3 L2,3 L2,4 L1,4 L1,6 L-1,6 L-1,4 L-2,4 L-2,5 L-3,5 L-3,9 L-4,9 L-4,7 L-6,7 L-6,6 L-5,6 L-5,5 L-8,5 L-8,7 L-9,7 L-9,8 L-10,8 L-10,9 L-11,9 L-11,10 L-12,10 L-12,9 L-13,9 L-13,8 L-14,8 L-14,7 L-12,7 L-12,6 L-11,6 L-11,7 L-10,7 L-10,5 L-11,5 L-11,3 L-10,3 L-10,4 L-5,4 L-5,3 L-4,3 L-4,2 L-3,2 L-3,3 L0,3 Z " fill="#ADADAD" transform="translate(87,127)"/>
<path d="M0,0 L1,0 L1,4 L3,4 L3,5 L5,5 L5,7 L11,7 L11,8 L12,8 L12,9 L7,9 L7,10 L11,10 L11,11 L6,11 L6,10 L4,10 L4,9 L2,9 L2,10 L1,10 L1,7 L0,7 L0,6 L-1,6 L-1,4 L0,4 Z " fill="#9A8F99" transform="translate(140,89)"/>
<path d="M0,0 L3,0 L3,1 L4,1 L4,2 L5,2 L5,3 L6,3 L6,4 L7,4 L7,5 L8,5 L8,6 L9,6 L9,8 L8,8 L8,10 L6,10 L6,9 L5,9 L5,8 L4,8 L4,7 L3,7 L3,6 L2,6 L2,5 L1,5 L1,4 L0,4 L0,3 L-1,3 L-1,1 L0,1 Z " fill="#565656" transform="translate(45,75)"/>
<path d="M0,0 L5,0 L5,4 L4,4 L4,9 L3,9 L3,11 L1,11 L1,10 L-1,10 L-1,7 L0,7 Z " fill="#565656" transform="translate(147,43)"/>
<path d="M0,0 L1,0 L1,2 L4,2 L4,3 L5,3 L5,4 L4,4 L4,6 L3,6 L3,3 L1,3 L1,4 L0,4 L0,5 L-1,5 L-1,6 L-2,6 L-2,7 L-3,7 L-3,9 L-2,9 L-2,12 L-1,12 L-1,11 L0,11 L0,15 L-1,15 L-1,13 L-3,13 L-3,11 L-5,11 L-5,5 L-4,5 L-4,4 L-3,4 L-3,2 L-2,2 L-2,1 L0,1 Z " fill="#C1C1C1" transform="translate(182,113)"/>
<path d="M0,0 L4,0 L4,1 L2,1 L2,2 L0,2 L0,3 L-1,3 L-1,4 L-2,4 L-2,5 L-3,5 L-3,6 L-4,6 L-4,7 L-5,7 L-5,8 L-6,8 L-6,9 L-8,9 L-8,14 L-9,14 L-9,16 L-10,16 L-10,18 L-11,18 L-11,20 L-12,20 L-12,21 L-13,21 L-13,19 L-12,19 L-12,17 L-11,17 L-11,15 L-10,15 L-10,12 L-9,12 L-9,8 L-8,8 L-8,7 L-7,7 L-7,6 L-6,6 L-6,5 L-5,5 L-5,4 L-4,4 L-4,3 L-3,3 L-3,2 L-2,2 L-2,1 L0,1 Z " fill="#111111" transform="translate(64,26)"/>
<path d="M0,0 L2,0 L2,2 L1,2 L1,4 L0,4 L0,5 L1,5 L1,6 L2,6 L2,4 L4,4 L4,6 L6,6 L6,7 L8,7 L8,8 L7,8 L7,9 L5,9 L5,8 L4,8 L4,10 L2,10 L2,9 L0,9 L0,8 L-1,8 L-1,5 L-2,5 L-2,3 L-3,3 L-3,1 L-1,1 L-1,2 L0,2 Z " fill="#CCCCCC" transform="translate(76,106)"/>
<path d="M0,0 L2,0 L2,1 L4,1 L4,8 L3,8 L3,9 L2,9 L2,10 L4,10 L4,11 L5,11 L5,12 L3,12 L3,11 L1,11 L1,10 L0,10 L0,9 L-1,9 L-1,8 L-3,8 L-3,7 L-4,7 L-4,6 L-5,6 L-5,5 L-2,5 L-2,4 L0,4 L0,5 L1,5 L1,6 L2,6 L2,7 L3,7 L3,2 L2,2 L2,3 L0,3 L0,2 L1,2 L1,1 L0,1 Z " fill="#8A8A8A" transform="translate(153,142)"/>
<path d="M0,0 L1,0 L1,6 L2,6 L2,10 L1,10 L1,12 L-2,12 L-2,13 L-3,13 L-3,5 L-4,5 L-4,3 L-1,3 L-1,5 L0,5 Z " fill="#DFDFDF" transform="translate(190,64)"/>
<path d="M0,0 L2,0 L2,1 L1,1 L1,2 L0,2 L0,3 L-1,3 L-1,4 L-3,4 L-3,5 L-4,5 L-4,6 L-5,6 L-5,7 L-6,7 L-6,8 L-7,8 L-7,9 L-8,9 L-8,10 L-9,10 L-9,11 L-11,11 L-11,10 L-10,10 L-10,9 L-9,9 L-9,8 L-8,8 L-8,6 L-7,6 L-7,5 L-6,5 L-6,4 L-5,4 L-5,3 L-4,3 L-4,2 L-3,2 L-3,1 L0,1 Z M-13,11 L-11,11 L-11,12 L-12,12 L-12,13 L-13,13 L-13,14 L-14,14 L-14,15 L-15,15 L-15,16 L-16,16 L-16,17 L-18,17 L-18,16 L-17,16 L-17,15 L-16,15 L-16,14 L-15,14 L-15,13 L-14,13 L-14,12 L-13,12 Z " fill="#252524" transform="translate(18,154)"/>
<path d="M0,0 L1,0 L1,2 L2,2 L2,0 L5,0 L5,2 L3,2 L3,3 L4,3 L4,5 L3,5 L3,6 L1,6 L1,5 L0,5 L0,6 L-1,6 L-1,4 L-2,4 L-2,5 L-3,5 L-3,6 L-2,6 L-2,7 L-4,7 L-4,5 L-6,5 L-6,4 L-8,4 L-8,3 L-5,3 L-5,2 L-4,2 L-4,4 L-3,4 L-3,3 L-2,3 L-2,2 L-3,2 L-3,1 L0,1 Z " fill="#ACACAC" transform="translate(110,157)"/>
<path d="M0,0 L1,0 L1,4 L-1,4 L-1,5 L-2,5 L-2,6 L0,6 L0,7 L-3,7 L-3,8 L-4,8 L-4,9 L2,9 L2,10 L-5,10 L-5,7 L-7,7 L-7,5 L-5,5 L-5,2 L-3,2 L-3,1 L0,1 Z " fill="#D1D1D1" transform="translate(111,133)"/>
<path d="M0,0 L1,0 L1,7 L4,7 L4,11 L1,11 L1,12 L3,12 L3,15 L1,15 L1,14 L2,14 L2,13 L-6,13 L-6,12 L-3,12 L-3,10 L-1,10 L-1,9 L0,9 Z " fill="#D6CCD5" transform="translate(158,88)"/>
<path d="M0,0 L3,0 L3,1 L8,1 L8,7 L5,7 L5,6 L4,6 L4,5 L3,5 L3,4 L1,4 L1,5 L0,5 L0,4 L-1,4 L-1,1 L0,1 Z " fill="#474646" transform="translate(88,84)"/>
<path d="M0,0 L1,0 L1,4 L0,4 L0,6 L-1,6 L-1,12 L-2,12 L-2,14 L-5,14 L-5,13 L-6,13 L-6,12 L-5,12 L-5,10 L-4,10 L-4,3 L0,3 Z " fill="#4B4B4B" transform="translate(171,49)"/>
<path d="M0,0 L6,0 L6,1 L9,1 L9,2 L15,2 L15,4 L14,4 L14,5 L12,5 L12,7 L11,7 L11,6 L9,6 L9,4 L8,4 L8,3 L2,3 L2,1 L0,1 Z " fill="#6B606A" transform="translate(143,93)"/>
<path d="M0,0 L2,0 L2,1 L3,1 L3,2 L7,2 L7,5 L5,5 L5,6 L7,6 L7,10 L8,10 L8,11 L9,11 L9,12 L10,12 L10,13 L11,13 L11,14 L9,14 L9,13 L8,13 L8,12 L7,12 L7,11 L6,11 L6,8 L5,8 L5,7 L3,7 L3,8 L1,8 L1,6 L3,6 L3,5 L4,5 L4,4 L2,4 L2,3 L1,3 L1,2 L0,2 Z " fill="#9F9E9E" transform="translate(105,165)"/>
<path d="M0,0 L2,0 L2,1 L1,1 L1,2 L3,2 L3,0 L7,0 L7,2 L5,2 L5,1 L4,1 L4,3 L7,3 L7,6 L6,6 L6,7 L5,7 L5,8 L4,8 L4,7 L3,7 L3,9 L2,9 L2,4 L1,4 L1,7 L0,7 Z " fill="#B9B9B9" transform="translate(126,153)"/>
<path d="M0,0 L2,0 L2,1 L3,1 L3,2 L4,2 L4,3 L6,3 L6,4 L7,4 L7,5 L8,5 L8,6 L10,6 L10,7 L14,7 L14,9 L15,9 L15,10 L16,10 L16,12 L14,12 L14,11 L13,11 L13,10 L11,10 L11,9 L10,9 L10,8 L8,8 L8,7 L7,7 L7,6 L5,6 L5,5 L4,5 L4,4 L2,4 L2,3 L1,3 L1,2 L0,2 Z " fill="#E6E6E6" transform="translate(146,147)"/>
<path d="M0,0 L1,0 L1,2 L3,2 L3,1 L4,1 L4,3 L2,3 L2,4 L3,4 L3,5 L2,5 L2,6 L-1,6 L-1,5 L-2,5 L-2,8 L-3,8 L-3,7 L-4,7 L-4,6 L-5,6 L-5,5 L-6,5 L-6,4 L-8,4 L-8,3 L-3,3 L-3,4 L-2,4 L-2,2 L-3,2 L-3,1 L0,1 Z " fill="#AFAFAF" transform="translate(101,149)"/>
<path d="M0,0 L1,0 L1,6 L2,6 L2,9 L3,9 L3,10 L4,10 L4,13 L5,13 L5,14 L6,14 L6,16 L7,16 L7,18 L8,18 L8,19 L9,19 L9,20 L11,20 L11,21 L8,21 L8,20 L7,20 L7,19 L6,19 L6,18 L5,18 L5,16 L4,16 L4,15 L3,15 L3,12 L2,12 L2,11 L1,11 L1,8 L0,8 L0,5 L-1,5 L-1,4 L0,4 Z " fill="#1B1B1B" transform="translate(32,92)"/>
<path d="M0,0 L1,0 L1,1 L3,1 L3,2 L4,2 L4,3 L3,3 L3,4 L2,4 L2,5 L3,5 L3,7 L2,7 L2,6 L1,6 L1,7 L-1,7 L-1,6 L-3,6 L-3,5 L-4,5 L-4,4 L-5,4 L-5,3 L-6,3 L-6,2 L-4,2 L-4,3 L-3,3 L-3,2 L-1,2 L-1,1 L0,1 Z " fill="#C1C1C1" transform="translate(86,149)"/>
<path d="M0,0 L1,0 L1,2 L-1,2 L-1,3 L-2,3 L-2,5 L-1,5 L-1,4 L0,4 L0,6 L1,6 L1,7 L2,7 L2,8 L3,8 L3,7 L4,7 L4,8 L6,8 L6,9 L9,9 L9,10 L7,10 L7,11 L5,11 L5,12 L4,12 L4,11 L3,11 L3,9 L1,9 L1,8 L-1,8 L-1,7 L-2,7 L-2,6 L-3,6 L-3,5 L-5,5 L-5,4 L-3,4 L-3,2 L-2,2 L-2,1 L0,1 Z " fill="#A7A7A7" transform="translate(88,140)"/>
<path d="M0,0 L2,0 L2,1 L1,1 L1,2 L0,2 L0,3 L-3,3 L-3,7 L-2,7 L-2,8 L-1,8 L-1,9 L3,9 L3,11 L-2,11 L-2,10 L-3,10 L-3,9 L-4,9 L-4,7 L-5,7 L-5,1 L0,1 Z " fill="#2A2A2A" transform="translate(116,117)"/>
<path d="M0,0 L1,0 L1,4 L2,4 L2,7 L3,7 L3,12 L4,12 L4,16 L3,16 L3,15 L2,15 L2,14 L0,14 L0,13 L-1,13 L-1,12 L-8,12 L-8,11 L0,11 L0,12 L1,12 L1,13 L2,13 L2,9 L1,9 L1,7 L0,7 Z " fill="#3C3C3C" transform="translate(145,128)"/>
<path d="M0,0 L1,0 L1,6 L2,6 L2,8 L1,8 L1,7 L0,7 L0,8 L-2,8 L-2,7 L-3,7 L-3,5 L-4,5 L-4,3 L-5,3 L-5,2 L-6,2 L-6,1 L0,1 Z " fill="#D1D1D1" transform="translate(75,126)"/>
<path d="M0,0 L2,0 L2,3 L3,3 L3,5 L5,5 L5,6 L4,6 L4,8 L1,8 L1,7 L-2,7 L-2,5 L-5,5 L-5,4 L-6,4 L-6,3 L-5,3 L-5,2 L-4,2 L-4,4 L-3,4 L-3,3 L-2,3 L-2,4 L0,4 L0,3 L1,3 L1,1 L0,1 Z " fill="#D8D8D8" transform="translate(113,159)"/>
<path d="M0,0 L2,0 L2,1 L5,1 L5,2 L6,2 L6,3 L8,3 L8,4 L6,4 L6,6 L7,6 L7,7 L8,7 L8,8 L6,8 L6,7 L5,7 L5,6 L3,6 L3,5 L2,5 L2,4 L0,4 L0,3 L-2,3 L-2,2 L-1,2 L-1,1 L0,1 Z " fill="#9C6D53" transform="translate(140,143)"/>
<path d="M0,0 L1,0 L1,1 L2,1 L2,2 L3,2 L3,3 L4,3 L4,5 L5,5 L5,6 L6,6 L6,7 L7,7 L7,6 L11,6 L11,7 L10,7 L10,8 L7,8 L7,9 L9,9 L9,10 L8,10 L8,11 L4,11 L4,9 L3,9 L3,8 L4,8 L4,6 L3,6 L3,4 L2,4 L2,3 L1,3 L1,2 L0,2 Z " fill="#787878" transform="translate(78,117)"/>
<path d="M0,0 L1,0 L1,1 L2,1 L2,2 L4,2 L4,4 L6,4 L6,5 L4,5 L4,6 L0,6 L0,7 L-2,7 L-2,5 L-1,5 L-1,3 L-3,3 L-3,1 L0,1 Z " fill="#CACACA" transform="translate(96,158)"/>
<path d="M0,0 L2,0 L2,1 L3,1 L3,2 L2,2 L2,4 L1,4 L1,6 L0,6 L0,7 L-2,7 L-2,12 L-3,12 L-3,10 L-4,10 L-4,11 L-5,11 L-5,7 L-4,7 L-4,6 L-1,6 L-1,3 L-2,3 L-2,2 L0,2 Z " fill="#CDCDCD" transform="translate(160,130)"/>
<path d="M0,0 L1,0 L1,4 L2,4 L2,5 L3,5 L3,10 L2,10 L2,11 L1,11 L1,13 L0,13 L0,7 L-1,7 L-1,1 L0,1 Z " fill="#A2A1A1" transform="translate(187,83)"/>
<path d="M0,0 L1,0 L1,1 L2,1 L2,2 L3,2 L3,0 L4,0 L4,2 L6,2 L6,4 L8,4 L8,3 L11,3 L11,5 L10,5 L10,7 L8,7 L8,5 L5,5 L5,4 L2,4 L2,3 L1,3 L1,4 L0,4 L0,2 L-1,2 L-1,1 L0,1 Z " fill="#B3B3B3" transform="translate(121,159)"/>
<path d="M0,0 L2,0 L2,2 L3,2 L3,0 L4,0 L4,2 L5,2 L5,3 L4,3 L4,4 L3,4 L3,7 L2,7 L2,9 L1,9 L1,7 L0,7 L0,5 L-1,5 L-1,6 L-3,6 L-3,4 L0,4 L0,3 L1,3 L1,2 L0,2 Z " fill="#B5B5B4" transform="translate(162,122)"/>
<path d="M0,0 L2,0 L2,1 L3,1 L3,2 L4,2 L4,3 L3,3 L3,7 L5,7 L5,6 L7,6 L7,7 L6,7 L6,8 L8,8 L8,9 L7,9 L7,10 L6,10 L6,9 L2,9 L2,3 L1,3 L1,7 L0,7 Z " fill="#9E9E9E" transform="translate(63,100)"/>
<path d="M0,0 L1,0 L1,9 L0,9 L0,11 L-2,11 L-2,10 L-3,10 L-3,9 L-4,9 L-4,8 L-5,8 L-5,5 L-2,5 L-2,7 L-1,7 L-1,6 L0,6 Z " fill="#969696" transform="translate(167,85)"/>
<path d="M0,0 L10,0 L10,1 L5,1 L5,2 L1,2 L1,3 L-1,3 L-1,4 L-5,4 L-5,5 L-8,5 L-8,4 L-6,4 L-6,3 L-4,3 L-4,2 L-2,2 L-2,1 L0,1 Z " fill="#D6D6D5" transform="translate(93,53)"/>
<path d="M0,0 L3,0 L3,2 L6,2 L6,3 L14,3 L14,4 L12,4 L12,5 L5,5 L5,4 L4,4 L4,3 L0,3 Z " fill="#313131" transform="translate(108,164)"/>
<path d="M0,0 L2,0 L2,2 L3,2 L3,3 L2,3 L2,5 L3,5 L3,7 L2,7 L2,9 L1,9 L1,8 L0,8 L0,9 L-2,9 L-2,6 L0,6 L0,7 L1,7 L1,5 L-1,5 L-1,2 L-2,2 L-2,1 L0,1 Z " fill="#D3D3D3" transform="translate(137,129)"/>
<path d="M0,0 L1,0 L1,2 L2,2 L2,3 L1,3 L1,7 L0,7 L0,8 L-1,8 L-1,9 L-3,9 L-3,8 L-5,8 L-5,7 L-7,7 L-7,5 L-4,5 L-4,6 L-1,6 L-1,2 L0,2 Z " fill="#3C3B3B" transform="translate(142,121)"/>
<path d="M0,0 L2,0 L2,3 L1,3 L1,7 L0,7 L0,8 L-1,8 L-1,7 L-4,7 L-4,4 L-3,4 L-3,3 L-2,3 L-2,2 L-1,2 L-1,1 L0,1 Z " fill="#9A9999" transform="translate(187,108)"/>
<path d="M0,0 L1,0 L1,1 L2,1 L2,11 L1,11 L1,12 L0,12 L0,14 L-1,14 L-1,11 L0,11 L0,8 L-2,8 L-2,6 L0,6 Z " fill="#AEAEAD" transform="translate(189,100)"/>
<path d="M0,0 L1,0 L1,2 L2,2 L2,3 L3,3 L3,5 L4,5 L4,6 L5,6 L5,8 L7,8 L7,7 L10,7 L10,8 L8,8 L8,10 L6,10 L6,11 L4,11 L4,8 L3,8 L3,6 L2,6 L2,5 L1,5 L1,3 L0,3 L0,2 L-2,2 L-2,1 L0,1 Z " fill="#0F0F0F" transform="translate(76,49)"/>
<path d="M0,0 L3,0 L3,1 L4,1 L4,2 L6,2 L6,3 L7,3 L7,4 L9,4 L9,2 L8,2 L8,1 L7,1 L7,0 L9,0 L9,1 L10,1 L10,2 L11,2 L11,3 L12,3 L12,5 L11,5 L11,6 L8,6 L8,5 L6,5 L6,4 L5,4 L5,3 L3,3 L3,2 L2,2 L2,1 L0,1 Z " fill="#5E5D5D" transform="translate(153,155)"/>
<path d="M0,0 L3,0 L3,1 L4,1 L4,3 L3,3 L3,4 L2,4 L2,5 L1,5 L1,6 L0,6 L0,4 L-2,4 L-2,5 L-3,5 L-3,6 L-4,6 L-4,4 L-3,4 L-3,2 L-2,2 L-2,1 L0,1 Z " fill="#DFDFDF" transform="translate(195,56)"/>
<path d="M0,0 L2,0 L2,2 L-1,2 L-1,3 L-2,3 L-2,4 L-3,4 L-3,5 L-4,5 L-4,7 L-7,7 L-7,5 L-8,5 L-8,3 L-5,3 L-5,2 L-2,2 L-2,1 L0,1 Z " fill="#1B1B1B" transform="translate(123,187)"/>
<path d="M0,0 L1,0 L1,5 L0,5 L0,10 L-1,10 L-1,15 L-2,15 L-2,9 L-1,9 L-1,5 L-3,5 L-3,4 L-1,4 L-1,3 L-6,3 L-6,2 L-1,2 L-1,1 L0,1 Z " fill="#3D3D3D" transform="translate(47,145)"/>
<path d="M0,0 L1,0 L1,1 L2,1 L2,3 L3,3 L3,5 L5,5 L5,7 L4,7 L4,6 L2,6 L2,4 L-1,4 L-1,6 L-2,6 L-2,4 L-3,4 L-3,5 L-5,5 L-5,4 L-4,4 L-4,2 L-3,2 L-3,3 L-2,3 L-2,1 L0,1 Z " fill="#EFEFEF" transform="translate(113,153)"/>
<path d="M0,0 L6,0 L6,1 L10,1 L10,2 L11,2 L11,4 L8,4 L8,3 L5,3 L5,2 L-1,2 L-1,1 L0,1 Z " fill="#2D2D2D" transform="translate(108,140)"/>
<path d="M0,0 L3,0 L3,2 L4,2 L4,0 L5,0 L5,1 L7,1 L7,5 L5,5 L5,4 L6,4 L6,3 L3,3 L3,5 L2,5 L2,6 L0,6 L0,4 L1,4 L1,2 L0,2 Z " fill="#C5C5C5" transform="translate(113,131)"/>
<path d="M0,0 L1,0 L1,1 L3,1 L3,2 L4,2 L4,3 L7,3 L7,4 L9,4 L9,5 L11,5 L11,6 L13,6 L13,7 L10,7 L10,6 L9,6 L9,8 L8,8 L8,6 L7,6 L7,7 L6,7 L6,4 L2,4 L2,2 L0,2 Z " fill="#1A1A1A" transform="translate(64,183)"/>
<path d="M0,0 L3,0 L3,1 L2,1 L2,2 L4,2 L4,4 L5,4 L5,5 L4,5 L4,6 L1,6 L1,4 L-1,4 L-1,5 L-3,5 L-3,4 L-2,4 L-2,3 L-1,3 L-1,2 L0,2 Z " fill="#E7E7E7" transform="translate(79,132)"/>
<path d="M0,0 L2,0 L2,1 L1,1 L1,2 L3,2 L3,1 L5,1 L5,2 L4,2 L4,3 L5,3 L5,5 L4,5 L4,6 L3,6 L3,7 L1,7 L1,4 L0,4 L0,3 L-1,3 L-1,1 L0,1 Z " fill="#C0C0C0" transform="translate(66,114)"/>
<path d="M0,0 L2,0 L2,1 L1,1 L1,4 L0,4 L0,5 L-1,5 L-1,6 L-3,6 L-3,7 L-9,7 L-9,6 L-6,6 L-6,5 L-2,5 L-2,4 L-1,4 L-1,3 L-4,3 L-4,2 L-2,2 L-2,1 L0,1 Z " fill="#373737" transform="translate(109,96)"/>
<path d="M0,0 L5,0 L5,1 L6,1 L6,4 L0,4 L0,3 L-1,3 L-1,1 L0,1 Z " fill="#BAB6B6" transform="translate(143,88)"/>
<path d="M0,0 L1,0 L1,1 L2,1 L2,2 L3,2 L3,3 L4,3 L4,4 L5,4 L5,5 L6,5 L6,6 L7,6 L7,7 L9,7 L9,10 L8,10 L8,11 L7,11 L7,10 L6,10 L6,8 L5,8 L5,6 L4,6 L4,5 L3,5 L3,4 L2,4 L2,3 L0,3 Z " fill="#191919" transform="translate(51,68)"/>
<path d="M0,0 L2,0 L2,1 L6,1 L6,2 L5,2 L5,4 L6,4 L6,5 L4,5 L4,4 L3,4 L3,2 L2,2 L2,5 L0,5 L0,4 L-3,4 L-3,2 L-1,2 L-1,3 L1,3 L1,2 L0,2 Z " fill="#D3D3D3" transform="translate(94,169)"/>
<path d="M0,0 L3,0 L3,2 L2,2 L2,3 L4,3 L4,4 L5,4 L5,5 L2,5 L2,6 L0,6 L0,5 L-1,5 L-1,4 L0,4 L0,3 L-2,3 L-2,1 L0,1 Z " fill="#CDCDCD" transform="translate(75,150)"/>
<path d="M0,0 L1,0 L1,2 L3,2 L3,10 L1,10 L1,8 L0,8 Z " fill="#959595" transform="translate(177,125)"/>
<path d="M0,0 L1,0 L1,6 L2,6 L2,7 L3,7 L3,9 L4,9 L4,10 L5,10 L5,14 L3,14 L3,11 L2,11 L2,9 L1,9 L1,8 L0,8 Z " fill="#161616" transform="translate(168,87)"/>
<path d="M0,0 L1,0 L1,4 L2,4 L2,7 L3,7 L3,9 L-1,9 L-1,1 L0,1 Z " fill="#DEDEDE" transform="translate(194,63)"/>
<path d="M0,0 L2,0 L2,1 L3,1 L3,0 L5,0 L5,1 L4,1 L4,2 L3,2 L3,4 L4,4 L4,3 L5,3 L5,5 L4,5 L4,8 L2,8 L2,6 L3,6 L3,5 L1,5 L1,3 L0,3 Z " fill="#B9B9B9" transform="translate(115,159)"/>
<path d="M0,0 L2,0 L2,1 L3,1 L3,2 L2,2 L2,3 L4,3 L4,2 L5,2 L5,7 L4,7 L4,6 L3,6 L3,5 L2,5 L2,4 L0,4 L0,5 L-2,5 L-2,3 L-1,3 L-1,2 L1,2 L1,1 L0,1 Z " fill="#E6E6E7" transform="translate(151,142)"/>
<path d="M0,0 L2,0 L2,1 L3,1 L3,0 L5,0 L5,2 L3,2 L3,7 L1,7 L1,6 L0,6 Z " fill="#EEEEEE" transform="translate(70,139)"/>
<path d="M0,0 L2,0 L2,1 L3,1 L3,0 L5,0 L5,1 L8,1 L8,2 L6,2 L6,3 L5,3 L5,4 L3,4 L3,5 L2,5 L2,4 L1,4 L1,5 L0,5 L0,3 L2,3 L2,2 L1,2 L1,1 L0,1 Z " fill="#E5E5E5" transform="translate(137,160)"/>
<path d="M0,0 L1,0 L1,2 L2,2 L2,7 L1,7 L1,12 L0,12 L0,11 L-1,11 L-1,6 L0,6 Z " fill="#D6D6D6" transform="translate(186,97)"/>
<path d="M0,0 L2,0 L2,1 L4,1 L4,2 L6,2 L6,4 L0,4 L0,5 L-2,5 L-2,3 L0,3 Z " fill="#504F50" transform="translate(79,84)"/>
<path d="M0,0 L2,0 L2,1 L3,1 L3,2 L4,2 L4,3 L5,3 L5,4 L7,4 L7,6 L6,6 L6,7 L5,7 L5,8 L2,8 L2,7 L3,7 L3,6 L4,6 L4,5 L3,5 L3,4 L2,4 L2,2 L1,2 L1,1 L0,1 Z " fill="#131313" transform="translate(65,62)"/>
<path d="M0,0 L1,0 L1,2 L2,2 L2,1 L3,1 L3,0 L4,0 L4,2 L3,2 L3,3 L1,3 L1,4 L0,4 L0,6 L-2,6 L-2,5 L-3,5 L-3,4 L-1,4 L-1,3 L-4,3 L-4,2 L-2,2 L-2,1 L0,1 Z " fill="#ECECEC" transform="translate(85,138)"/>
<path d="M0,0 L1,0 L1,2 L2,2 L2,5 L1,5 L1,6 L2,6 L2,9 L0,9 L0,5 L-2,5 L-2,3 L-3,3 L-3,1 L-2,1 L-2,2 L-1,2 L-1,4 L0,4 Z " fill="#ACACAC" transform="translate(157,127)"/>
<path d="M0,0 L1,0 L1,1 L3,1 L3,5 L2,5 L2,2 L1,2 L1,5 L0,5 L0,8 L-2,8 L-2,3 L-1,3 L-1,2 L0,2 Z " fill="#575757" transform="translate(172,69)"/>
<path d="M0,0 L1,0 L1,1 L4,1 L4,0 L9,0 L9,1 L5,1 L5,2 L4,2 L4,5 L3,5 L3,6 L2,6 L2,4 L1,4 L1,2 L0,2 Z " fill="#494949" transform="translate(73,189)"/>
<path d="M0,0 L4,0 L4,1 L3,1 L3,2 L0,2 L0,3 L-2,3 L-2,4 L-3,4 L-3,5 L-6,5 L-6,4 L-5,4 L-5,3 L-4,3 L-4,2 L-3,2 L-3,1 L0,1 Z " fill="#2F2F2F" transform="translate(65,166)"/>
<path d="M0,0 L1,0 L1,2 L0,2 L0,3 L-2,3 L-2,5 L-3,5 L-3,4 L-4,4 L-4,6 L-5,6 L-5,5 L-6,5 L-6,4 L-7,4 L-7,1 L-6,1 L-6,3 L-4,3 L-4,1 L-2,1 L-2,2 L-1,2 L-1,1 L0,1 Z " fill="#B6B6B5" transform="translate(113,151)"/>
<path d="M0,0 L2,0 L2,2 L4,2 L4,3 L6,3 L6,4 L5,4 L5,5 L3,5 L3,4 L2,4 L2,6 L0,6 Z " fill="#C5C5C5" transform="translate(78,110)"/>
<path d="M0,0 L2,0 L2,1 L4,1 L4,0 L5,0 L5,4 L4,4 L4,5 L2,5 L2,4 L0,4 Z " fill="#737272" transform="translate(107,87)"/>
<path d="M0,0 L2,0 L2,1 L8,1 L8,2 L9,2 L9,3 L0,3 Z " fill="#7B7B7B" transform="translate(131,146)"/>
<path d="M0,0 L1,0 L1,1 L3,1 L3,0 L5,0 L5,2 L6,2 L6,1 L8,1 L8,2 L7,2 L7,3 L5,3 L5,4 L4,4 L4,5 L3,5 L3,3 L1,3 L1,2 L0,2 Z " fill="#BFBFBF" transform="translate(81,116)"/>
<path d="M0,0 L1,0 L1,1 L2,1 L2,4 L4,4 L4,5 L6,5 L6,6 L5,6 L5,7 L6,7 L6,8 L4,8 L4,7 L3,7 L3,6 L1,6 L1,4 L0,4 Z " fill="#EDEEED" transform="translate(139,95)"/>
<path d="M0,0 L1,0 L1,6 L0,6 L0,9 L-2,9 L-2,3 L-1,3 L-1,2 L0,2 Z " fill="#4D4D4D" transform="translate(171,61)"/>
<path d="M0,0 L1,0 L1,3 L0,3 L0,4 L1,4 L1,8 L-2,8 L-2,7 L-3,7 L-3,6 L-2,6 L-2,4 L-1,4 L-1,1 L0,1 Z " fill="#585858" transform="translate(168,55)"/>
<path d="M0,0 L2,0 L2,2 L0,2 L0,3 L-2,3 L-2,4 L-4,4 L-4,5 L-5,5 L-5,4 L-6,4 L-6,3 L-5,3 L-5,1 L0,1 Z " fill="#1E1E1E" transform="translate(91,52)"/>
<path d="M0,0 L3,0 L3,1 L8,1 L8,2 L5,2 L5,3 L-3,3 L-3,2 L1,2 L1,1 L0,1 Z " fill="#505050" transform="translate(87,192)"/>
<path d="M0,0 L2,0 L2,1 L1,1 L1,2 L0,2 L0,3 L-1,3 L-1,4 L-3,4 L-3,5 L-4,5 L-4,6 L-5,6 L-5,3 L-4,3 L-4,2 L-3,2 L-3,1 L0,1 Z M-6,6 L-5,6 L-5,7 L-6,7 Z " fill="#1F1F1F" transform="translate(18,154)"/>
<path d="M0,0 L1,0 L1,2 L4,2 L4,3 L5,3 L5,4 L4,4 L4,6 L3,6 L3,3 L1,3 L1,4 L0,4 L0,5 L-1,5 L-1,6 L-2,6 L-2,7 L-3,7 L-3,5 L-2,5 L-2,4 L-1,4 L-1,2 L0,2 Z " fill="#B0B0B0" transform="translate(182,113)"/>
<path d="M0,0 L1,0 L1,1 L3,1 L3,2 L4,2 L4,4 L2,4 L2,6 L1,6 L1,5 L0,5 L0,7 L-1,7 L-1,4 L0,4 L0,3 L1,3 L1,2 L-1,2 L-1,1 L0,1 Z " fill="#DFD9DF" transform="translate(87,88)"/>
<path d="M0,0 L1,0 L1,5 L0,5 L0,8 L-1,8 L-1,12 L-2,12 L-2,4 L-1,4 L-1,3 L0,3 Z " fill="#E0E0E0" transform="translate(193,81)"/>
<path d="M0,0 L6,0 L6,4 L3,4 L3,3 L2,3 L2,2 L1,2 L1,1 L0,1 Z " fill="#E0D8DA" transform="translate(89,86)"/>
<path d="M0,0 L2,0 L2,1 L3,1 L3,3 L1,3 L1,5 L0,5 L0,4 L-4,4 L-4,2 L-3,2 L-3,3 L-2,3 L-2,2 L0,2 Z " fill="#BFBFBF" transform="translate(85,157)"/>
<path d="M0,0 L2,0 L2,2 L-1,2 L-1,1 L0,1 Z M-3,2 L-1,2 L-1,3 L0,3 L0,7 L-2,7 L-2,5 L-3,5 Z " fill="#DEDEDE" transform="translate(81,156)"/>
<path d="M0,0 L2,0 L2,1 L3,1 L3,2 L2,2 L2,3 L1,3 L1,4 L0,4 L0,6 L-1,6 L-1,8 L0,8 L0,9 L-2,9 L-2,4 L-1,4 L-1,3 L0,3 Z " fill="#2B2A2A" transform="translate(151,153)"/>
<path d="M0,0 L1,0 L1,1 L2,1 L2,2 L1,2 L1,3 L-1,3 L-1,4 L-2,4 L-2,3 L-4,3 L-4,4 L-3,4 L-3,5 L-6,5 L-6,4 L-5,4 L-5,2 L-4,2 L-4,1 L-3,1 L-3,2 L-2,2 L-2,1 L0,1 Z " fill="#F1F1F1" transform="translate(84,148)"/>
<path d="M0,0 L1,0 L1,1 L2,1 L2,3 L1,3 L1,5 L0,5 L0,6 L-1,6 L-1,7 L-2,7 L-2,6 L-3,6 L-3,7 L-4,7 L-4,5 L-2,5 L-2,4 L-1,4 L-1,2 L0,2 Z " fill="#303030" transform="translate(162,132)"/>
<path d="M0,0 L2,0 L2,1 L4,1 L4,3 L2,3 L2,4 L1,4 L1,5 L0,5 L0,4 L-2,4 L-2,2 L0,2 Z " fill="#C1C1C1" transform="translate(91,132)"/>
<path d="M0,0 L2,0 L2,3 L1,3 L1,4 L0,4 L0,5 L-1,5 L-1,8 L-2,8 L-2,2 L-1,2 L-1,1 L0,1 Z " fill="#C3C3C3" transform="translate(193,60)"/>
</svg>
