<?xml version="1.0" encoding="utf-8" ?>
<svg baseProfile="tiny" height="200" version="1.2" width="200" xmlns="http://www.w3.org/2000/svg" xmlns:ev="http://www.w3.org/2001/xml-events" xmlns:xlink="http://www.w3.org/1999/xlink"><defs /><ellipse cx="100" cy="100" fill="yellow" rx="60" ry="100" stroke="black" stroke-width="2" /><circle cx="100" cy="50" fill="black" r="20" /><ellipse cx="100" cy="100" fill="black" rx="60" ry="10" /><ellipse cx="100" cy="80" fill="black" rx="60" ry="10" /><ellipse cx="80" cy="130" fill="lightblue" fill-opacity="0.5" rx="40" ry="80" /><ellipse cx="120" cy="130" fill="lightblue" fill-opacity="0.5" rx="40" ry="80" /><polygon fill="black" points="90,170 80,180 70,170" /><polygon fill="black" points="110,170 120,180 130,170" /><polygon fill="gray" fill-opacity="0.3" points="60,60 80,50 100,60 100,80 80,90 60,80" /><polygon fill="gray" fill-opacity="0.3" points="140,140 160,130 180,140 180,160 160,170 140,160" /></svg>