<svg xmlns="http://www.w3.org/2000/svg" xmlns:xlink="http://www.w3.org/1999/xlink" width="200" height="200" preserveAspectRatio="none">
  <defs>
    <path id="t" fill="#772F27" d="m1722 1784-1-2h-3l-3 1 2 2 3 1q2 0 2-2m12-2-1 2q0 3 7 1 3 0 2-2l-5-1h-3m-951-1h-14l-2 1 1 2h1l7 1h5l2-2v-2z"/>
    <path id="M" fill="#ED1C24" d="M1418 1514q95-25 175-35 97-12 163-2 65 9 97 41l6 6-3-5-77-134-75-130-37 22q-98 60-201 119l-253 144-224 127 17-8q63-33 109-51 47-18 87-25l16-3 9-3 17-6q79-32 174-57m34-358-7 10v2l89 24 123 33 35 10-2-3-46-79q-43-77-45-78-3-4-19-5-17-1-27 1-25 7-49 27-24 21-52 58m-55-368q4-21 4-41v-11l-3 11-8 27-9 24-3 9-1 4 1 3 4 5 6 7 1-3 4-15 4-20z"/>
    <path id="c" fill="#200501" d="M1400 1604h-3l-3 1 6 4 6 2v-4l-2-1h-2l-1-1-1-1m57 28q0-2-3-4t-7-2l-3 1q1 2 6 4l7 3v-2m-39-16v-2l-1-3h-2l-4 1 3 3 4 1m5 3 4 1v-2l-1-3h-2l-4 1 3 3m12 0h-2l-4 1 3 3 4 1v-2l-1-3m81 43-3 1 2 2 5 3 8 4 1-1v-1l-1-3h-5l-1-2v-1l-2-1-4-1m-8-5-4 1 3 2 3 2 1-2-1-3h-2m-34-14 6 3 1-2q0-2-3-4t-7-2l-3 1 6 4m20 7q-6 0 1 4l4 2 1-2-1-3-5-1m385 16-1 4-2 7-1 2-1 1v3l-1 3-2 1v3l1 3 6-11 5-14v-2l-2-1-2 1m6-17-2 1v3l1 3q2 1 2-2l1-4-2-1m-1250 54 2 3 1-3v-3l-2-1-3 1 2 3m-8-23v-3l-2-1h-3l2 5 3 6 1 1 1-3v-3l-1-1-1-1m-5-12-2 1 1 4 2 2 1-3v-3l-2-1m-9-28 2 8q0 3 2 3l1-2-1-6v-4l-2-1q-2 0-2 2m301 66-2 2 3-1 5-4 3-2-4 2-5 3m23-14 3-2 10-7-3 2-10 7m-3 2 2-2-3 2-10 7 3-2 8-5m182-89-1 2v2l7-3 7-2 1-2-5-1-5 2-1 1h-2l-1 1z"/>
    <path id="d" fill="#200501" d="m1162 1390-2-1q-4 0-6 3-3 2-3 6v4l11-12m-107 113 10-11-2-1-6 2-2 6v4m-77 81 11-12-2-1q-4 0-6 3-3 2-3 6v4m22-31-2 6v4l10-11-2-1-6 2m27-21-2-1-6 2-2 6v4l10-11m9-9 10-11-2-1-6 2-2 6v4m58-61 10-11-2-1-6 2-2 6v4m-19 20 10-11-2-1-6 2-2 6v4m57-64v4l10-11-2-1-6 2-2 6m-9 13-2-1-6 2-2 6v4l10-11m77-81-2-1-6 2-2 6v4l10-11m-29 27v4l10-11-2-1-6 2-2 6m52-312-2-1-6 2-2 6v4l10-11m15-16-2-1q-6 0-6 6v4l8-9m12-13-2-1q-6 0-6 6v4l8-9m-611 498v-3l2-1 2-1v-5l2-1h2v-2q0-3 2-3t1-3v-3l2-1 2-1v-5l2-1 2-1v-5l2-1h2v-2q0-3 2-3t1-3v-3l2-1 2-1v-5l2-1 2-1v-5l2-1h2v-2q0-3 2-3t1-3v-3l2-1 2-1v-5l2-1 2-1v-2l-1-4-29 50-31 55-6 14h5v-4l1-1 1-1v-2l1-4q2 0 4-5l2-7v-2l2-1 2-1v-2m761-391-11 10h3q4 0 6-2l2-6v-2m-43 451 5 1q2 0 2-2 0-3-7-3h-2l-1-1-1-1h-5l-1-1-5-2-8-1h-1l-1 1q0 2 11 5l14 4m32 11 4 1v-2l-1-2-2-1-4 1 3 3m-8-3 4 1v-2l-1-2-2-1-4 1 3 3m502-14v2l2 1 2-1-1-4q0-2-2-2l-1 4m-713 2q1-2-3-2h-3l-1 1-1 1h-5l-1 1-1 1h-2l-4 1-8 2-8 3q-2 1-2 3l2 1 11-3 19-6 7-3m5-1 4-1q3 0 2-2l-3-1h-3l-1 2 1 2m38-11-14 2-10 2-2 2 1 2 11-2 13-2 4-2q0-2-3-2m-63-20v-2l-1-1-6 4-6 4 1 1h5l1-1v-1h3v-2h2l1-2m14-11-1-1-6 4-6 4 1 1h5l1-1v-1h3v-2h2l1-2v-2m129-83-1-1-6 4-6 4 1 1h5l1-1v-1h3v-2h2l1-2v-2m-21 12-6 4 1 1h5l1-1v-1h3v-2h2l1-2-1-3-6 4m-7 8v-2l-1-1-50 32-49 32 1 1h5l1-1v-1h3v-2h3v-2h3v-1q0-2 3-2h1l1-1v-1h3v-2h3v-2h3v-1q0-2 3-2h1l1-1v-1h3v-2h3v-2h3v-1q0-2 3-2h1l1-1v-1h3v-2h3v-2h3v-1q0-2 3-2h1l1-1v-1h3v-2h3v-2h3v-1q0-2 3-2h1l1-1v-1h3v-2h3v-2h3v-1q0-2 3-2h1l1-1v-1h3v-2h3v-2h2l1-2m-135 87h3v-2h2l1-2v-2l-1-1-6 4-6 4 1 1h5l1-1v-1m-21 10 1 1h5l1-1v-1h3v-2h2l1-2v-2l-1-1-6 4-6 4m8-267 1 2h3l3-1q1-2-2-2l-4-1-1 2m-14-6-1 2q0 2 2 2 7 2 9 0 2-1-4-3l-6-1m-63-63h-3l-6 2q-2 2-2 5v3l3-2 5-5 3-3m-39 37 1 2 4 2 8 1h1l1 1 6 2h3l2 1 5 2 8 1h1l1 1 5 2 8 1h1l1 1 5 2 8 1h1l1 1 2 1 4 1 5 1 5 2 7 1 3-1q0-2-44-13l-48-13-2-1v-2h-1q-2 0-2 3m9-14q-3 2-3 5v3l3-2 6-5 3-4h-3q-3 0-6 3m52-44h-3q-3 0-6 3t-3 5v3l3-2 6-5 3-4m20-22q-3 0-6 3t-3 5v3l3-2 6-5 3-4h-3m78 125q7 2 9 0 2-1-4-3l-6-1-1 2q0 2 2 2m-17-6q0 2 2 2 7 2 9 0 2-1-4-3l-6-1-1 2m-4-2q2-1-4-3l-6-1-1 2q0 2 2 2 7 2 9 0m70 17-6-1-3-1-1 2 1 2 4 1h3l1 1 1 1 1-2 2-1-3-2m-25-4q0 2 2 2 7 2 9 0 2-1-4-3l-6-1-1 2m-4-2q1-2-2-2l-4-1-1 2 1 2h3l3-1m-455 55v-3l2-1 2-1v-2l-1-4-19 32-19 34h3l2-1v-5l2-1 2-1v-5l2-1h2v-2q0-3 2-3t1-3v-3l2-1 2-1v-5l2-1 2-1v-5l2-1h2v-2q0-3 2-3t1-3v-3l2-1 2-1v-2m56-100 2-1 2-1v-2l-1-4-27 45-26 47h3l2-1v-5l2-1 2-1v-5l2-1h2v-2q0-3 2-3t1-3v-3l2-1 2-1v-5l2-1 2-1v-5l2-1h2v-2q0-3 2-3t1-3v-3l2-1 2-1v-5l2-1 2-1v-5l2-1h2v-2q0-3 2-3t1-3v-3l2-1 2-1v-5m56-97 2-1 2-1v-2l-1-4-27 45-26 47h3l2-1v-5l2-1 2-1v-5l2-1h2v-2q0-3 2-3t1-3v-3l2-1 2-1v-5l2-1 2-1v-5l2-1h2v-2q0-3 2-3t1-3v-3l2-1 2-1v-5l2-1 2-1v-5l2-1h2v-2q0-3 2-3t1-3v-3l2-1 2-1v-5m45-75-1-4-19 32-19 34h3l2-1v-5l2-1 2-1v-5l2-1h2v-2q0-3 2-3t1-3v-3l2-1 2-1v-5l2-1 2-1v-5l2-1h2v-2q0-3 2-3t1-3v-3l2-1 2-1v-5l2-1 2-1v-2m50-87 2-1v-5l2-1 2-1v-2l-1-4-27 45-26 47h3l2-1v-5l2-1 2-1v-5l2-1h2v-2q0-3 2-3t1-3v-3l2-1 2-1v-5l2-1 2-1v-5l2-1h2v-2q0-3 2-3t1-3v-3l2-1 2-1v-5l2-1 2-1v-5l2-1h2v-2q0-3 2-3t1-3v-3l2-1m223 109 11-11h-4l-5 2-9 8-8 9-2 4v3l3-2 13-13m31-30 9-11q2-1 0-2l-4 2-8 7-8 8-1 4v4l12-12m71-75 2-4-1-1-4 1-1 4v4l4-4m-156 154v3l3-2 6-6 4-4h-3q-3 0-7 3-3 3-3 6M983 939l1-3 2-3v-3l2-1 2-1v-5l2-1 2-1v-2l-1-4-27 45-26 47h2l3-1v-5l2-1 2-1v-5l2-1h2v-2l1-3 2-3v-3l2-1 2-1v-5l2-1 2-1v-5l2-1h2v-2l1-3 2-3v-3l2-1 2-1v-5l2-1 2-1v-5l2-1h2v-2m63-110v-3l2-1 2-1v-2l-1-4-27 45-26 47h3l2-1v-5l2-1 2-1v-5l2-1 2-1v-1q0-3 2-3t1-3v-3l2-1 2-1v-5l2-1 2-1v-5l2-1 2-1v-1q0-3 2-3t1-3v-3l2-1 2-1v-5l2-1 2-1v-5l2-1 2-1v-1q0-3 2-3t1-3v-3l2-1 2-1v-2m-427 754-1-2-3 4-1 7 2 1 1-1 1-3 1-6m2-14-2 2-1 4 1 1h1l2-1v-2l-1-4m569-917 1-2v-2h-2l-12 6 1 1h2l4-1 4-2h2m11-8-2 2 4 1h2l1-2v-1l-1-1-4 1m-43 20 4 1q4 0 3-1 0-2 3-2h2v-4l-1-1-6 3-5 4m74-26-2 2 4 1h2l1-2v-1l-1-1-4 1m-10 5 6-1 1-2-1-2h-3l-11 3-3 2 2 1 9-1m50-3 1 2h3l3-1q1-2-2-2l-4-1-1 2m-185 115 2-1 2-1v-2l-1-4-19 32-19 34h3l2-1v-5l2-1 2-1v-5l2-1 2-1v-1q0-3 2-3t1-3v-3l2-1 2-1v-5l2-1 2-1v-5l2-1 2-1v-1q0-3 2-3t1-3v-3l2-1 2-1v-5m25-40v-3l-1-1-9 15-9 15 1 1h2l2-1v-5l2-1 2-1v-5l2-1 2-1v-1q0-3 2-3t1-2 2-3l1-3m19-23 2-4 1-1 1-1q3 0 4-2t2-4l1-3h3l3-1 1-2h2l1-1 1-2h1l2-1v-5l-5 3-19 17-17 19-3 5h5l1-2v-1l2-1 1-1v-1l1-1 1-1 2-1v-5l2-1 4-2m746 873 1 6 2 3 1 1 2-1v-2l-2-7-3-3-1 3m-4-11 1 4v2l3 1q2 0 1-2l-5-11q-3-7-5-8-1-2-1 2l2 7q2 5 4 5m-18-35v5l2 1 2 1v3q0 3 2 3t1 3l1 2h4l-7-14-8-12-1 4v2l2 1 2 1m-59-105-1 4v2l2 1 2 1v5l2 1 2 1v3q0 3 2 3t1 3v1l2 1 2 1v5l2 1 2 1v5l2 1 2 1v3q0 3 2 3t1 3v1l2 1 2 1v5l2 1 2 1v5l2 1 2 1v3q0 3 2 3t1 3v1l2 1 2 1v5l2 1 2 1v5l3 1h2l-26-47-27-45m-53-89v5l2 1 2 1v3q0 3 2 3t1 3v1l2 1 2 1v5l2 1 2 1v5l2 1 2 1v3q0 3 2 3t1 3v1l2 1 2 1v5l2 1 2 1v5l2 1 2 1v3q0 3 2 3t1 3v1l2 1 2 1v5l2 1 2 1v5l3 1h2l-26-47-27-45-1 4v2l2 1 2 1m-41-71v5l2 1 2 1v3q0 3 2 3t1 3v1l2 1 2 1v5l2 1 2 1v5l2 1 2 1v3q0 3 2 3t1 3v1l2 1 2 1v5l2 1 2 1v5l3 1h2l-19-34-19-32-1 4v2l2 1 2 1m-402 327 1-2-1-2h-2l-4 1q-1 2 2 2l4 1m29 1h-2l-4 1q-1 2 2 2l4 1 1-2-1-2m-25-122v-1h2l1-2v-2l-1-1-6 4-6 4 1 1h5l1-1v-1h3v-1m17-12v-2l-1-1-6 4-6 4 1 1h5l1-1v-1h3v-2h2l1-2m14-11-1-1-6 4-6 4 1 1h5l1-1v-1h3v-2h2l1-2v-2m114-70 1-2v-2l-1-1-5 3-4 3 1 1h5l1-1v-1h2m-30 18h2l1-2v-2l-1-1-43 27q-43 27-42 28l1 1h5l1-1v-1h3v-2h3v-2h3v-1q0-2 3-2h1l1-1v-1h3v-2h3v-2h3v-1q0-2 3-2h1l1-1v-1h3v-2h3v-2h3v-1q0-2 3-2h1l1-1v-1h3v-2h3v-2h3v-1q0-2 3-2h1l1-1v-1h3v-2h3v-2h3v-1q0-2 3-2h1l1-1v-1h3v-2h3v-2m17-11-1-3-6 4-6 4 1 1h5l1-1v-1h3v-2h2l1-2m-86-183q-1 2 1 2l4 1 1-2q0-2-2-2l-4 1m36 11 4 2 6 1 1-2-2-2-7-1q-2 0-2 2m-4-3-2-2-6-1h-2l-1-1-6-2h-4l-1 1q0 2 9 4l11 3q2 0 2-2m23 9 6 1 1-2-2-2-7-1q-2 0-2 2l4 2m41 11 6 1 1-2-2-2-7-1q-2 0-2 2l4 2m-17-8q-2 0-2 2l4 2 6 1 1-2-2-2-7-1m-7-3h-2l-4 1q-1 2 2 2l4 1 1-2-1-2m129 90-1-1-6 4-6 4 1 1h5l1-1v-1h3v-2h2l1-2v-2m13-10-5 3-4 3 1 1h5l1-1v-1h2l1-2v-2l-1-1m-104 72 1-1v-1h2l1-2v-2l-1-1-5 3-4 3 1 1h5m17-16-5 3-4 3 1 1h5l1-1v-1h2l1-2v-2l-1-1m15-8-1-1-5 3-4 3 1 1h5l1-1v-1h2l1-2v-2m8-3h2l1-1v-1h2l1-2v-2l-1-1-5 3-4 3 1 1h3m16-14-6 4 1 1h5l1-1v-1h3v-2h2l1-2v-2l-1-1-6 4m20-13-6 4-6 4 1 1h5l1-1v-1h3v-2h2l1-2v-2l-1-1m-49-76 6 1 1-2-2-2-7-1q-2 0-2 2l4 2m-21-10-7-1q-2 0-2 2l4 2 6 1 1-2-2-2m8 6 4 1 1-2-1-2h-2l-4 1q-1 2 2 2m40 8-1 1q0 2 9 4l11 3q2 0 2-2l-2-2-6-1h-2l-1-1-6-2h-4m-7-3-7-1q-2 0-2 2l4 2 6 1 1-2-2-2m86 40-1-1-5 3-4 3 1 1h5l1-1v-1h2l1-2v-2m14-9-1-5-6-1h-4l-1 1q0 2 5 3l5 1-4 3-4 3 1 1h5l1-1v-1h2l1-1v-3m-28 18-1-1-5 3-4 3 1 1h5l1-1v-1h2l1-2v-2m-40-37 4 2 6 1 1-2-2-2-7-1q-2 0-2 2m25 7 1-2-2-2-7-1q-2 0-2 2l4 2 6 1m10-1h-4l-1 1q0 2 9 4l11 3q2 0 2-2l-2-2-6-1h-2l-1-1-6-2m-74-177h3l1-2v-2h-3l-2 2-2 1 3 1m30-11 4 1h2l1-2v-1l-1-1-4 1-2 2m-6 3h2l1-2q0-2-2-2l-10 3-8 4 3 1 6-1 4-2 1-1h3m-50 19 1 1h5l1-2 1-2h5l1-2v-3l-8 4-6 4m96-23-8-2q-2 0-2 2l1 1 4 2 15 4 4 1q6 0 1-3t-15-5m-160 73-4 4h3l4-1 1-4-1-1-3 2m44-32h1l1-1 1-2h1l2-1v-1l1-3h5l1-1v-1h3v-2h2l1-1v-2q0-2-2-1l-13 8-25 20-17 15h4l3-1 1-3 1-2 3-1h2l1-2 1-3h4l1-2 1-3h4l1-2 1-2h2l2-1 1-2h2l1-1 1-2h1m-142-139 2-3h-5l-1 2v1l-1 1q-2 0-2 3v1l-2 1q-2 0-2 2v1l-1 1-2 1v3l-2 1-2 1-1 2q0 3-2 3t-2 2v2l-2 1-2 1-1 3v2l-3 1-2 1v4l-3 1-2 1-1 3-1 2-2 1-2 1-1 3-1 3-2 1-3 1-1 3v4l24-27 28-35m33-52 1 3 2-3 2-3-2-1-3 1v3m0 5-1-1h-1q-3 0-3 2v1h-2v3h-2v3h-2v3h-2v3h-1l-1 1v5l-2 1-3 1v5l-2 1-3 1v3l1 3 12-17 12-18m18-30-2-1-3 1v5l-2 1-2 1v5l-2 1-2 1v5l1 1 6-10 6-10m17-36v-2h-1l-3 1v3l-1 3-2 4q0 9 7-9m9-36v3l-1 1-3 9-3 10q0 5 2 2l5-12 4-13q0-3-2-3l-2 1v2m254 336-1 4v2l2 1 2 1v5l2 1 2 1v3q0 3 2 3t1 3v1l2 1 2 1v5l2 1 2 1v5l2 1 2 1v3q0 3 2 3t1 3v1l2 1 2 1v5l2 1 2 1v5l2 1 2 1v3q0 3 2 3t1 3v1l2 1 2 1v5l2 1 2 1v5l3 1h2l-26-47-27-45m-23-34v2l2 1 2 1v3q0 3 2 3t1 3v1l2 1 2 1v5l2 1 2 1v5l3 1 2-1-20-35-17-29-7-8-5-3-1 3 1 2h3l1 1 2 3 2 1 2 1v5l2 1 2 1v5l2 1 2 1v3q0 3 2 3t1 3v1l2 1 2 1v5l2 1 2 1v3m-222-340q2 1 2-2l1-4-2-1-2 1v3l1 3m-3 12 1 3q2 1 2-2l1-4-2-1-2 1v3m3-32v3l1 3q2 1 2-2l1-4-2-1-2 1m-25-59v2l2 1 2 1v2q0 2 2 2l1 1v2l2 1 1 1v2l1 1h1v3h2v3h2l1 1v1l1 4 2 1 1 1v1l1 3 1 2h2q2 0 2-2t-6-10l-12-17-8-11-1 4m-26-24 1 2 3 1h1l1 2v1l1 1 4 1h4l-5-4-9-7-4-3v5l2 1h1m-28-17 3-1-11-6-14-5h-2l-1 2 1 2 4 1 7 2h2v1l1 1h3q3 0 3 2l1 1h3m7 0-1 1v2l1 2h5l1 2v1l2 1h1v1l1 1h5l1-1-8-5-8-5z"/>
    <path id="e" fill="#370A05" d="m806 1764-4 4-2 2-1 1 4-3 3-4m-20 12q0 3 1 2l3-3 2-3h-3l-3 1v3m127-66 1-1h2l3-3-1 1-2 1-3 2m-94 40-1 1 4-3 3-4-4 4-2 2m-8-1 2-3h-3l-3 1v3q0 3 1 2l3-3m18-23v-1h-4l-1 3v1l-2 1-2 1v3l-2 1-2 1v6l5-6 8-10m29-36v-1h-4l-1 3v1l-2 1-2 1v3l-2 1-2 1v3l-2 1-2 1v3l-2 1-2 1v6l9-10 12-16z"/>
    <path id="f" fill="#370A05" d="M872 1694h1l3-3 3-3-4 2-3 4m22-22 3-4-4 4-2 2-1 1 4-3m20-21 3-4-5 4-3 4 5-4m-10-18v-1h-4l-1 3v1l-2 1-2 1v3l-2 1-2 1v6l5-6 8-10m40-16-2 4-1 1 6-6 3-4-2 2-4 3m324-105q2-1 2-4l-1-4-8-4-7-5-1-3v-2l-1-1-81 52-83 53h2l3-1 5 2 7 4-3 2-7 5-103 58-72 41v1l1-1 18-10 36-19 22-12 5-3 1-1h1l2-1 4-2 9-5 3-1 1-1 3-1 4-3 1-2h5l1-2 1-2h2q6 0 6-3l1-1h1l4-1 1-2 1-1h1l4-1 1-2 1-1h1l4-1 1-2 1-1h1l4-1 3-2 1-1h1l2-1 1-1 1-2h1l5-1q2-1 2-3l1-1h1l4-1 1-2 1-1h1l4-1 1-2 1-1h1l21-11 47-26 81-46 13-8m-287 68 16-17q4-5 3-6l-8-11-7-8-4-2q-3 0-6 3l-17 21-20 25-1 2-1 2q0 2-2 2l-2 1v3l-2 1-2 1v3l-2 1-2 1v3l-2 1-2 1v3l-2 1-2 1v3l-2 1-2 1v3l-2 1-2 1v6l15-17 16-21 3-3 7 9 6 8v3l26-27z"/>
    <path id="g" fill="#370A05" d="m1076 1603-2 1 2-1 4-2 2-2-2 1-4 3m208-131v-2l-1-1-3 2-3 2 1 1h5l1-2m-21 10 1 1h5l1-2v-2l-1-1-3 2-3 2m34-17 1-2v-2l-1-1-3 2-3 2 1 1h5m8-10 1 1h5l1-2v-2l-1-1-3 2-3 2m17-11-3 2 1 1h5l1-2v-2l-1-1-3 2z"/>
    <path id="h" fill="#49170D" d="m1204 1335-2-1h-3l-1 2 1 2h2l3 1v6l7-6-3-1h-2l-1-1-1-2m-407 427-2 1-1 2v2h-2l-2 1v7l3-4 5-6 2-3h-3m-12 18q2-1 1-2h-2q-3 0-3 2v1h-1l-1 1v1q0 2 2 2h1l1-1v-1l1 1h1v-4m26-35q0 3 1 2l3-3 2-3h-3l-3 1v3m30-18 4-4-5 4-3 4 4-4m-13-3v3l5-6 8-10v-1h-2l-2 1-1 2v2h-2l-2 1v4h-2l-2 1v3m32-17 4-4 1-1-5 5-5 5 5-5m24-25-1 1-4 4-5 5 5-5 5-5m19-20-5 5-5 5 5-5 4-4 1-1m21-22-6 5-4 5 5-5 5-5m11-11 6-7-2 2-5 5-6 6 2-2 5-4m24-26-5 5-6 6 2-2 5-4 6-7-2 2m8-9 2-2 5-5 7-7-8 7-6 7m37 64 2 1 4-2 2-1 1-1 2-1 2-1 2-1 1-1 4-1 1-2 3-1h3l1-2 1-1 3-1h2l1-2-1-3-17 10-17 10m-32 19 2-1v-1l-21 11q-20 11-21 13l3-1 18-10 19-11m104-60 1 1h5l1-2v-2l-1-1-3 2-3 2m-14 8 1 1h5l1-2v-2l-1-1-3 2-3 2m-7 7v-2l-1-1-3 2-3 2 1 1h5l1-2m45-27h5l1-2-1-3-10 6-10 6 1 1h5l1-2 1-2h5l1-2 1-2m25-13h3l1-2-1-3-10 6-10 6 1 1h5l1-2 1-2h5l1-2 1-2h2m39-22h3l1-2 1-2h2q6 0 6-3l1-2h5l1-2 1-2h5l1-2 1-2h5l1-2 1-2h5l1-2-1-3-25 14-25 15 1 1h5l1-2 1-2h2m-25 13h5l1-2 1-2h5l1-2-1-3-10 6-10 6 1 1h5l1-2 1-2m7-180v3l4-3 3-4h-3l-4 1v3m-90-105 1 2h2l4-1-1-2-3-1h-3v2m58 17 7 1 2-1v-2h-1l-5-1-4-1-1 2q0 2 2 2m-17-8v2l1 2h2l4-1v-2l-4-1h-3m-56-15v2l1 2h2l4-1-1-2-3-1h-3m-20-6-3-1h-3v2l1 2h2l4-1-1-1m-21-8v5l2 1 7 1 2-1-1-2h-2l-4-2v-3h-1l-3 1m160 44h-3v2l1 2h2l4-1-1-1-3-2m-26-3 4-1q0-2-2-2l-4-1-1 2 1 2h2m11 3 4-1-1-1-3-2h-3v2l1 2h2m30 8 4-1-1-1-3-2h-3v2l1 2h2m-204 214-2 1v4h-2l-2 1v4h-2l-2 1v4h-2l-2 1v4h-2l-2 1v1l-1 2-1 1-2 1-1 2q0 3-2 3l-2 1v4h-2l-2 1v5h-3l-2 1v4h-2l-2 1v4h-2l-2 1v4h-2l-2 1v4h-2l-2 1v4h-2l-2 1v4h-2l-2 1v4h-2l-2 1v4h-2l-2 1v5h-3l-2 1v4h-2l-2 1v4h-2l-2 1v4h-2l-2 1v4h-2l-2 1v4h-2l-2 1v4h-2l-2 1v4h-2l-2 1v4h-2l-2 1v5h-3l-2 1v4h-2l-2 1v6l2-1 46-57 59-74 12-14 5-6 8 10 8 11q1 1-1 3l-7 7-4 5 2-1 47-50 32-34 8-10-4-4-9-10-9-12-4-2q-3 0-8 6l-29 36-24 31-10 13q0 2-2 2l-2 1v4h-2m-36-230h3l1-4-1-4-6-8q-7-9-10-9t-10 6l-5 5-1 4q0 2 2 3l11 3 16 4m930 225v2l2 1h3l-2-4-2-3-1 4m-291-61-2 1v6l126 9 130 9h3l1-3-1-4-9-4q-14-7-27-11l-32-7-31-4h-41l-46 1q-17 0-43 4l-28 3m-193-69h2l1-1v-1h3v-2h3v-2h1q2 0 2-3l-1-1-9 5-61 39-74 47-3 3 3 2 8 5 8 5 3 2-30 17-21 13-9 5 1 1h5l1-2 1-2h5l1-2 1-2h2q6 0 6-3l1-1h1l4-1 1-2 1-1h1l4-1 1-2 1-1h1q5 0 5-3l1-1 2-1q6 0 6-3l1-1h1l4-1 1-2 1-1h1l13-7q13-6 29-16l40-22v-4q0-3-2-4l-10-6-10-6q-2-2 0-2h2v-1l2-1 2-1 3-2 2-1 1-1h1v-2h3v-2h3v-1l1-1h1l2-1 1-1v-1h3v-2h3v-2h3v-2h3v-1q0-2 2-2h2l1-1v-1h3v-2h3v-2h3v-1q0-2 2-2m26-18v-3l-7 4-6 5 1 1h5l1-1v-1h3v-2h1q2 0 2-3m42-27v-3l-5 3-4 3-1 1 1 1h5l1-1v-1h1q2 0 2-3m-27 15 1 1h5l1-1v-1h3v-2h1q2 0 2-3v-3l-7 4-4 3-2 2m-1 3v-3l-7 4-6 5 1 1h5l1-1v-1h3v-2h1q2 0 2-3m-58-187 4 1 1-2-1-2h-3l-3 1q-1 2 2 2m19 1h-3l-3 1q0 2 3 3l4 1v-2l-1-3m16 7-1-3h-3l-3 1q0 2 3 3l4 1v-2m34 9q0 2 3 3l4 1v-2l-1-3h-3l-3 1m-9-5h-3l-3 1q0 2 3 3l4 1v-2l-1-3m120 94 1 1h5l1-3v-3l-4 2-3 3m21-14-4 2-3 3 1 1h5l1-3v-3m-105 73 1-1v-1h1q2 0 2-3v-3l-5 3-4 3-1 1 1 1h5m19-13q2 0 2-3v-3l-7 4-4 3-2 2 1 1h5l1-1v-1h3v-2h1m16-12v-3l-7 4-4 3-2 2 1 1h5l1-1v-1h3v-2h1q2 0 2-3m7-7 1 1h5l1-3v-3l-4 2-3 3m14-9 1 1h5l1-3v-3l-4 2-3 3z"/>
    <path id="i" fill="#572011" d="M935 1311h-4l1 2q1 2 17 6l76 21 91 24-14 17-35 43-23 29-1 2-1 1-1 2h-1q-2 1-2 3v2l-2 1q-3 1-3 3l-1 1-1 1-1 1-1 2-1 1-1 1-1 1-1 2-1 1-1 1-1 1-1 2-1 1-1 1q-2 1-2 3v2l-2 1-2 1v3l-2 1-2 1v3l-2 1-2 1v3l-2 1-3 3-1 1-1 1-1 1-1 2-1 1-1 1q-2 1-2 3v2l-2 1-2 1v3l-2 1-2 1v3l-2 1-2 1v3l-2 1-2 1v3l-2 1-2 1v3l-2 1-2 1v3l-2 1-2 1v3l-2 1-2 1v3l-2 1-3 3-1 1-1 1q-2 1-2 3v2l-2 1-2 1v3l-2 1-2 1v3l-2 1-2 1v6l21-25 83-103 5-6 23 30-6 6-1 1 6-6 45-46 45-48 10-11v-1l-1-1q-3 0-5 2-3 2-3 4v1h-2l-2 1q-1 1-6-5-6-6-25-32l-31-39 2-1 3 1 20 6 22 5h2l1 1 20 6 22 5h2l1 1 2 1 4 1q4 0 6 2v2l-2 2v7l6-6q5-6 4-7l-2-1-3-1-18-4-21-6-57-16-8-1-16-5-21-5-34-10-20-5-5-1-2-1 24-24 21-19 1-3-1-1-3 1-3 2-3 2-13-16-9-13q-4-4-7-4l-7 4-12 11q-72 68-72 70v1h-2l-2 1-3 3q-3 2-3 4l-1 4v4l3 1 6 1h1l1 1 2 1 4 1h4l1-1-2-2-8-2-11-3 7-6 6-6 7 9q6 7 6 9m-150 466v4l3-4 5-6 2-3h-5l-1 3v1l-2 1-2 1v3m26-29v-1h-4l-1 3v1l-2 1-2 1v3l-2 1-2 1v6l5-6 8-10m12-18-2 1-2 1v3l-2 1-2 1v6l9-10 12-16v-1h-4l-1 3v1l-2 1-2 1v3l-2 1-2 1v3m34-39v-1h-4l-1 3v1l-2 1-2 1v3l-2 1-2 1v3l-2 1-2 1v6l7-8 10-13m37-46v-1h-4l-1 3v1l-2 1-2 1v3l-2 1-2 1v3l-2 1-2 1v3l-2 1-2 1v3l-2 1-2 1v3l-2 1-2 1v6l12-14 17-22m17-26-1 2v2h-2l-2 1v4h-2l-2 1v6l5-6 8-10v-1h-2l-2 1m957-71 1 2 3 1h1l1-1-3-6-4-6-1 3q0 4 2 7m-275-68 21-3 3-1q0-2-4-2l-21 3q-36 4-77 12l-22 4v7l82 5 90 6 24 1 27 3 70 6 65 4h6l1-2q0-5-8-13l-11-8q-6-4-9-4l-2-1-1-1-4-4-7-2h-1l-1-1-1-1h-3l-1-1-2-1-3-1q-6 0-5 1l10 5 14 7q7 3 4 3l-127-10-125-9 18-2z"/>
    <path id="j" fill="#572011" d="m1061 1225 12-11-3-1q-3 0-6 3-3 2-3 6v3m37-35-3-1q-3 0-6 3-3 2-3 6v3l12-11m82 180 11-10-3-1-6 2q-3 2-2 6v3m-64-198 14-13-3-1q-4 0-7 4-4 3-4 7v3m671 312 6 1 1-2-2-2-7-1q-2 0-2 2l4 2m-144-13-1 2q0 3 7 1 3 0 2-2l-5-1h-3m16-1-1 2 1 2h3l6-1q2 0 2-2l-1-1h-10m-30 4 1 2 5-1q3 0 2-2l-4-1h-3l-1 2m112-2q-2 0-2 2l3 1 17 3 16 3 6 1 1-2-2-2-9-2-18-3-12-1m-5-1h-7l-1 1 1 2h1l4 1h2l1-2-1-2m-23 2h1l5 1h3l1-2-1-2h-9l-1 1 1 2m-95 2 1 2 5-1q3 0 2-2l-4-1h-3l-1 2m-182-104 1 1h5l1-2v-2l-1-1-4 2-2 2z"/>
    <path id="k" fill="#4A2722" d="m640 1712 6 7v-7l-3-1-3 1m846-68-6-2-4 1 2 2 5 2 7 4 1-2-1-2-4-3m281 134q0 2 2 2l7-2q8-3 7-4-2-2-11 1l-4 1-1 2m-5 2-2-1-15 2-7 2-2 1 1 2 8-1 13-2q4-1 4-3m-52-4-3-1-3-2-4 1 3 2 6 4 10 6 1-2-1-3h-2v-1l-1-1h-1l-3-1-2-2m-11-7-2-1-3-1-3-2-4 1 2 1 3 3 6 3 1-2v-2m-26-15-4 1 8 5 8 5 1-2v-2l-2-1-3-1-2-2-3-1q0-2-3-2m-18-11-4 1 8 5 8 5 1-2v-2l-2-1-3-1-2-2-3-1q0-2-3-2m-17-11-3-1-2-2-3-1-2-2q-1-2-3-1t-2-2-3-1-2-2-3-1-2-2-3-1-2-2-3-1-2-2-3-1-2-2-3-1-2-2-3-1-2-2-3-1q0-2-3-2h-3l-1-2-1-1-1-1-3-1-2-2h-2l-1-1-1-2-4-1h-1l-1-1q0-2-3-2h-3l-1-2-1-1-1-1h-2l-1-1q0-3-6-3h-2l-1-2-1-2h-5l-1-2q0-3-5-3h-1l-1-1q0-3-6-3h-2l-1-2-2-3-6-1h-2l-1-2-1-1-1-2-6-1-3 1 3 2 8 5 46 25 57 34 40 24 1-1v-3l-2-1-3-1-2-2-3-1-2-2m164 32v1l1 1 6-3 5-4-3-1q-3 0-4 2l-2 1-2 1-1 2m-16 8v2l3-1 4-3-3-1h-3l-1 3m33-21v4h1l11-8 6-6q1-1-1-1l-5 1-1 3-1 2h-4l-1 2-1 2h-1l-3 1m55-70-1 1v3l-1 3q-2 0-3 4l-2 6v2l-2 1-2 1v2l-1 2h-2v3h-2v3h-1l-1 1v2l-1 1-2 1v2l-1 1q-2 0-2 3v2l-2 1-4 1-1 5v4l4-5q10-10 18-23l13-27 2-5h-2l-2 1-1 2v1l-1 1m11-40-2 7-2 9-2 12v1l1 1q2 0 4-7t4-17l1-10q0-2-2-2l-1 1-1 5m-1272-4 1 4q2 16 7 32 5 15 13 29l3 5 2 2 1-1v-2l-1-4-2-1v-1l-1-5q-1-2-3-2l-1-1v-1l-1-5-2-3-1-1v-3l-1-1-1-4-1-3-1-1h-1v-2l-2-11-4-15v-5l-2-1-2 1m144 143-9-2-16-3-3 1q0 3 20 7l8 1q2 0 2-2l-2-2m11 1h-4l-1 1 1 2h1l5 1h2l1-2-1-2h-4m-72-21-1-1q0-2-3-2h-3l-1 1 6 4 7 4 1-1v-1q0-4-5-4h-1m12 6q-4 0-2 2l7 4 8 3v-4l-2-1h-2l-1-1-3-2-5-1m-35-21-1-3-1-2-3-1h-4l4 4 11 9 7 5v-3l-1-3h-2v-1l-1-1h-3l-1-2-1-1-2-1h-2m-20-17 4 4q1 1 1-1l-1-5-2-1h-3v-5l-3-1q-3 0-2 1l6 8m283-31 5-3 5-3-5 3-5 3m-4 3 3-3-1 1-2 1-3 2h1l2-1m67-37 8-4 7-4q2-2-1-2l-8 4-7 5 1 1m-12 4-6 4 1 1 6-3 5-3q2-2 0-2l-6 3m-12 9 4-3h-3l-15 9-13 8 16-8 11-6m86-45-3-1-7 2-4 3-1 2v1h2l9-4 4-3z"/>
    <path id="l" fill="#4A2722" d="M1116 1312q0-1 0 0h-1l-1-1-2-1-8-1-1-1h-2l-8-3-7-1q-2 1 0 3l15 4 16 4h2l1 1 1 1h1l6 1 3-1-2-2-7-2h-3l-2-1h-1m102-242-2-1q-4 0-6 3-3 2-3 6v4l11-12m10-17q-2 2-2 5v4l9-10-2-1q-3 0-5 2m19-14-2-1q-6 0-6 6v4l8-9m148 109-13 12h3q4 0 7-3t3-7v-2m17-14v-2l-9 8h3q7 0 6-6m-54 457-1-2h-5l-1-1-1-1h-2q-5 0-4 2l5 2 7 2q2 0 2-2m22 8-1-3-6-2-9-2-3 1 3 2 6 3 10 3v-2m62 28 7 3v-2q0-2-3-4t-7-2l-3 1q1 2 6 4m-20-13-3-1-3-1-1-2h-3l-2-1-1-1-3-1h-1l-1-1-1-1h-3l-1-1-1-1-3-1-4-1-5-2-5 1 2 2 17 7 24 10 10 4v-2q0-2-2-3t-5-2l-3-1-2-1m464 6v9l1 2q2 0 2-2l1-9-1-8q0-3-2-3l-1 2v9m-1270 11v-4l-2-1q-3 0-1 7 0 3 2 2l1-4m0-28-1-1q-2 0-2 2l-1 5v2l2 1 2-1v-8m511-3q-2 1-2 3v2l5-2q4-1 5-3l-3-1-5 1m-8 7 5-3-3-1h-3l-1 1-4 1-3 1-1 1-1 1h-1q-3 0-3 2t-3 1h-3l-1 1-1 1h-1q-3 0-3 2t-3 1-4 2l-3 1q-6 0-6 3l-3 1-6 1-2 4v1h2l14-6 26-11 12-5m33-14 1 2 12-3q12-3 12-5l-3-1-12 3-8 2-2 2m138-17-4 1q-1 2 2 2 6 2 6-1l-1-2h-3m-16 2h1l5 1h2l1-2-1-2h-8l-1 1 1 2m-34-3h-4l-1 2 1 2h2l5-1q2 0 2-2l-1-1h-4m-16 3 1 2 5-1q3 0 2-2l-4-1h-3l-1 2m-20 1-11 2-2 2 1 2h2l26-5 3-1q0-2-3-2l-16 2m-17 4-7 1q-3 1-2 2l1 2 6-1 4-2q1-1-2-2m-149-336 3-3 3-3-2-1h-3l-2 1-1 1 2 2v3m18-21v3l3-2 3-2 2-3 2-3h-3l-5 2-2 5m26-28q-3 3-3 6v3l3-2 3-2 3-4 3-3-3-1-6 3m109 162 2-3 2-3h-3l-5 2-2 5v3l3-2 3-2m-25 21v3l3-2 3-2 2-3 2-3h-3l-5 2-2 5m21-47 5 2 8 1h1l1 1v1h2l1 1v3l3-2 3-3-2-2-8-2-3-1h-4l-11-4-5-1-4-1-11-3-4-1-11-3-3-1h-2l-6-2-1 1-1 1 2 2 7 1h1l1 1 5 2 8 1h1l1 1 5 2 8 1h1l1 1 6 2h3l2 1m-10-223q1-1-1-1l-4 1-6 6-6 6-1 3v3l3-2 10-9 5-7m73-79v4l4-4 2-4-1-1-4 1-1 4m-143 145v3l3-2 7-7 4-4-2-1q-3 0-8 4-4 4-4 7m-478 379v-2q0-6-2-2t-7 16l-4 17-3 15 1 1h1l2-1v-2l2-11 2-12v-1l1-1 1-2 1-4 1-3 1-2 1-2v-2l1-1 1-1m476-829v-1l2-1 1-3v-3l-1-1-237 410-237 410 3 1 2-1v-5l2-1 2-1v-3l1-1 2-1 1-4v-1l2-1 1-3v-3l2-1 2-1v-5l2-1 2-1v-3l1-1 2-1 1-4v-1l2-1 1-3v-3l2-1 2-1v-3l1-1 2-1 1-4v-1l1-1 2-1 1-4v-1l2-1 1-3v-3l2-1 2-1v-3l1-1 2-1 1-4v-1l1-1 2-1 1-4v-1l2-1 1-3v-3l2-1 2-1v-3l1-1 2-1 1-4v-1l2-1 1-3v-3l2-1 2-1v-5l2-1 2-1v-3l1-1 2-1 1-4v-1l2-1 1-3v-3l2-1 2-1v-3l1-1 2-1 1-4v-1l1-1 2-1 1-4v-1l2-1 1-3v-3l2-1 2-1v-3l1-1 2-1 1-4v-1l2-1 1-3v-3l2-1 2-1v-5l2-1 2-1v-3l1-1 2-1 1-4v-1l2-1 1-3v-3l2-1 2-1v-5l2-1 2-1v-3l1-1 2-1 1-4v-1l2-1 1-3v-3l2-1 2-1v-3l1-1 2-1 1-4v-1l1-1 2-1 1-4v-1l2-1 1-3v-3l2-1 2-1v-3l1-1 2-1 1-4v-1l2-1 1-3v-3l2-1 2-1v-5l2-1 2-1v-3l1-1 2-1 1-4v-1l2-1 1-3v-3l2-1 2-1v-3l1-1 2-1 1-4v-1l1-1 2-1 1-4v-1l2-1 1-3v-3l2-1 2-1v-3l1-1 2-1 1-4v-1l1-1 2-1 1-4v-1l2-1 1-3v-3l2-1 2-1v-3l1-1 2-1 1-4v-1l2-1 1-3v-3l2-1 2-1v-5l2-1 2-1v-3l1-1 2-1 1-4v-1l2-1 1-3v-3l2-1 2-1v-3l1-1 2-1 1-4v-1l1-1 2-1 1-4v-1l2-1 1-3v-3l2-1 2-1v-3l1-1 2-1 1-4v-1l2-1 1-3v-3l2-1 2-1v-5l2-1 2-1v-3l1-1 2-1 1-4v-1l2-1 1-3v-3l2-1 2-1v-5l2-1 2-1v-3l1-1 2-1 1-4v-1l2-1 1-3v-3l2-1 2-1v-3l1-1 2-1 1-4v-1l1-1 2-1 1-4v-1l2-1 1-3v-3l2-1 2-1v-3l1-1 2-1 1-4v-1l2-1 1-3v-3l2-1 2-1v-5l2-1 2-1v-3l1-1 2-1 1-4v-1l2-1 1-3v-3l2-1 2-1v-5l2-1 2-1v-3l1-1 2-1 1-4v-1l2-1 1-3v-3l2-1 2-1v-3l1-1 2-1 1-4v-1l1-1 2-1 1-4v-1l2-1 1-3v-3l2-1 2-1v-3l1-1 2-1 1-4v-1l2-1 1-3v-3l2-1 2-1v-5l2-1 2-1v-3l1-1 2-1 1-4v-1l2-1 1-3v-3l2-1 2-1v-3l1-1 2-1 1-4v-1l1-1 2-1 1-4v-1l2-1 1-3v-3l2-1 2-1v-3l1-1 2-1 1-4v-1l1-1 2-1 1-4v-1l2-1 1-3v-3l2-1 2-1v-3l1-1 2-1 1-4v-1l2-1 1-3v-3l2-1 2-1v-5l2-1 2-1v-3l1-1 2-1 1-4v-1l2-1 1-3v-3l2-1 2-1v-3l1-1 2-1 1-4v-1l1-1 2-1 1-4v-1l2-1 1-3v-3l2-1 2-1v-3l1-1 2-1 1-4m767 827q0 3 2 4l1 3 4 12 3 11 2 11 1 8 2 2 2-1v-4q-2-14-8-32t-8-18l-1 4m-539 29-12-2-20-4q-5-1-6 1 0 2 3 2l21 4 12 3h2l2-2-2-2m33-167-4 2-1 2h6l1-2v-2h-2m-17 11-2 2h6l1-2v-2h-2l-3 2m-9 7h-2l-3 2-2 2h6l1-2v-2m55-32 1-2-1-3-4 3-3 2h7m-13 5h-2l-4 2-1 2h6l1-2v-2m27-19-4 3-3 2h7l1-2-1-3m11-4h3l1-1v-1h1l2-1v-1q0-5-7 1l-4 3h4m17-14-3 2-4 3h7l1-1v-1h3v-2h1l2-1v-3h-3l-1 1v1h-1l-2 1m21-12h-2l-6 3-5 4 1 1h5l1-1v-1h3v-2h1q2 0 2-2v-2m-95-165-5-2-5-1-2 1q-2 1-1 2l5 1 7 2q2 0 2-2l-1-1m196 100-1-1-5 3-6 5v1h5l1-1v-1h3v-2h1q2 0 2-2v-2m-87 56h-2l-6 3-5 4 1 1h5l1-1v-1h3v-2h1q2 0 2-2v-2m7-3h3l1-1v-1h1l2-1v-1q0-5-7 1l-4 3h4m42-27h3l1-1v-1h1q2 0 2-2v-2l-1-1-5 3-4 4h3m-23 16q2 0 2-2v-2l-1-1-5 3-4 4h6l1-1v-1h1m16-13-1-1-5 3-4 4h6l1-1v-1h1q2 0 2-2v-2m21-15-6 4 1 1h5l1-1v-1h3v-2h1q2 0 2-2t-1-3l-6 4m-74-87-2-2-7-1h-1l-1-1-5-2-8-1h-1l-1-1-5-2-8-1h-1l-1-1-6-2h-3l-2-1-5-2-8-1h-1l-1-1-5-2-8-1h-1l-1-1-6-2h-4l-1 1 1 2 5 1 35 10 20 5 18 5 12 3q2 0 2-2m45 11-5-2-8-1h-1l-1-1-5-2-8-1h-1l-1-1-2-1-4-1h-4l-1 1 5 3 19 5 26 7h2v-2l-2-2-7-1h-1l-1-1m92 39h1q2 0 2-2t-1-3l-6 4-6 4 1 1h5l1-1v-1h3v-2m-24 12 1 1h5l1-1v-1h3v-2h1q2 0 2-2v-2l-1-1-6 4-6 4m-1 4v-2l-1-1-5 3-6 5v1h5l1-1v-1h3v-2h1q2 0 2-2m-2-34h2v-2l-2-2-7-1h-1l-1-1-5-2-8-1h-1l-1-1-5-2-8-1h-1l-1-1-6-2h-4l-1 1 5 3 19 5 26 7m7-1-1 1 3 2 10 3 13 4q3 1 1 2h-1l-1 1 1 1h5l1-3v-3l-3-1h-2l-1-1-5-2-8-1h-1l-1-1-6-2h-4m-44-192-12 2-5 3 3 1 11-2 6-1 1-2-1-2-3 1m-66 28 1 1h5l1-1v-1h3v-1q0-2 2-2h2l1-2 1-2h2l9-3 7-4 1-1h1l5-1 2-2 1-2-1-1-3 1q-8 2-24 11t-16 10m80-30q-9 0-9 3l2 1h15l2-1q0-3-10-3m16 6 8 1 3-1q0-2-7-3l-8-2-1 2 1 2 4 1m-125 49h2l1-2 1-1 1-1 3-1 1-1 1-1 2-1v-5l-3 2-15 12-16 13-4 4h4l4-1 1-3 1-2 3-1 3-1 1-2 1-2 2-1h2l1-2 1-3h2m14-14v1h5l1-1 1-2h2l1-1v-1h1q2 0 2-3v-3l-6 4-7 6m-144-134h-4l-1 3v1l-2 1q-2 0-2 2v1l-2 1-1 3v2l-3 1-2 1v3l-2 1-2 1v4l-3 1-2 1v4l-3 1-2 1v5l-3 1-3 1v2l-1 3-2 1-3 1-1 3-1 3-2 1-3 1-1 4v4l2-3 24-27 25-32v-1m21-27 5-7h-3q-3 0-3 2v1h-1l-1 1v5l-3 1-2 1v5l-3 1h-1l-1 2v1l-2 1-1 1v2l-2 1-1 4v3l7-8 12-17m15-28q-2 0-2 2v1h-1l-1 1v3l1 3 3-4 3-5-1-1h-2m21-30-1-1h-1l-4 2-1 6v2l-2 1-2 1v5l-2 1-2 1v2q0 2-2 2t-1 4v2l1 1 9-14 8-15m18-39 2-6h-3l-2 1-1 3-1 4-1 1v3q0 3-2 3t-1 4l-1 3q-2 0-3 3l-1 5 1 3 5-10 8-17m237 274v5l2 1 2 1v3l1 3 2 1v1l1 4 2 1 1 1v3l2 1 2 1v3l1 3 2 1v1l1 4 2 1 1 1v1l1 4 2 1 1 1v3l2 1 2 1v3l1 3 2 1v1l1 4 2 1 1 1v3l2 1 2 1v5l2 1 2 1v3l1 3 2 1v1l1 4 2 1 1 1v3l2 1 2 1v5l2 1 2 1v3l1 3 2 1v1l1 4 2 1 1 1v3l2 1 2 1v3l1 3 2 1v1l1 4 2 1 1 1v1l1 4 2 1 1 1v3l2 1 2 1v3l1 3 2 1v1l1 4 2 1 1 1v3l2 1 2 1v5l2 1 2 1v3l1 3 2 1v1l1 4 2 1 1 1v3l2 1 2 1v3l1 3 2 1v1l1 4 2 1 1 1v1l1 4 2 1 1 1v3l2 1 2 1v3l1 3 2 1v1l1 4 2 1 1 1v1l1 4 2 1 1 1v3l2 1 2 1v3l1 3 2 1v1l1 4 2 1 1 1v3l2 1 2 1v5l2 1 2 1v3l1 3 2 1v1l1 4 2 1 1 1v3l2 1 2 1v3l1 3 2 1v1l1 4 2 1 1 1v1l1 4 2 1 1 1v3l2 1 2 1v3l1 3 2 1v1l1 4 2 1 1 1v3l2 1 2 1v5l2 1 2 1v3l1 3 2 1v1l1 4 2 1 1 1v3l2 1 2 1v5l2 1 2 1v3l1 3 2 1v1l1 4 2 1 1 1v3l2 1 2 1v3l1 3 2 1v1l1 4 2 1 1 1v1l1 2 1 2 1 2 1 2q0 2 2 2l2 1v3l1 3 2 1v1l1 3 1 2h3v-3l-135-234-133-231-6-3-12-6-5-2v5h4l1 1 4 2 5 2h1l1 2v1h1l2 1 2 4 1 1 2 1 1 1v1l1 4 2 1 1 1v3l2 1 2 1v3l1 3 2 1v1l1 4 2 1 1 1v3l2 1 2 1m-223-325 2-12q0-2-2-2l-2 1v5l-4 17-1 8-1 5v1l-1 1-1 1v3l1 3q2 0 4-9l5-22m2-56-5-10q-19-34-50-56-30-22-68-28l-14-2q-3 0-3 2l1 2h6l12 2 6 2 41 87 30 62 12 26q0 2 3 2t4-2l5-11 5-14 6-17 6-15 2-3q4 1 3-17l-2-10z"/>
    <path id="m" fill="#4A2722" d="m1151 669-4 3-7 5-1 2h7l1-2 1-1 1-1 2-1v-5m83-28h6l1-2-1-2-6 1q-13 1-27 5-14 3-26 8l-17 9-11 8v1h5l1-1v-1h3v-1q0-2 3-2t2-1l1-1 1-1 8-3q5-2 5-4l4-1h2l1-1 1-1h1l7-2 5-2 1-1h1l12-2 17-3m-119 71 1-1v-6l-4 4-3 5 1 1h3l1-1v-1l1-1m11-13v-4l-1-2-3 3-2 3h6m4-12-2 3h3l4-2q2-1 2-4v-2q-1-1-2 1-2 0-3 2l-2 2m267 83 1 4q2 1 2-2l1-5-2-1-2 1v3z"/>
    <path id="n" fill="#672015" d="M793 1767q0 3 1 2l3-3 2-3h-3l-3 1v3m25-27 2-3h-5l-1 3v1l-2 1-2 1v7l3-4 5-6m24-34h-2l-1 3v1l-2 1-2 1v7l3-4 5-6 2-3h-3m22-23 2-3h-5l-1 3v1l-2 1-2 1v7l3-4 5-6m32-40 5-6 2-3h-5l-1 3v1l-2 1-2 1v7l3-4m43-54v-1h-4l-1 3v1l-2 1-2 1v3l-2 1-2 1v3l-2 1-2 1v3l-2 1-2 1v3l-2 1-2 1v6l10-12 15-19m105 49h3l1-2v-3l-8 4-6 4 1 1h5l1-2 1-2h3m-39 19v1h1l4-1 2-2 1-1h1l2-1 2-1 2-1 1-1 4-1q2-1 1-2v-2l-11 6-10 6m-25 15 18-9 3-2 2-2q-1-1-30 15l-30 18 6-2 31-18m90-49 1-2h5l1-2 1-2h5l1-2v-3l-11 6-10 6 1 1h5l1-2m-16 6 1 1h5l1-2v-2l-1-1-3 2-3 2m39-22 1 1h5l1-2 1-2h5l1-2-1-3-7 4-6 4m30-14 1-2h5l1-2-1-3-10 6-10 6 1 1h5l1-2 1-2h5l1-2m146-84h5l1-2-1-3-25 14-25 15 1 1h5l1-2 1-2h5l1-2 1-2h5l1-2 1-2h2q6 0 6-3l1-2h5l1-2 1-2h5l1-2 1-2m-61 33 1 1h5l1-2 1-2h5l1-2-1-3-7 4-6 4m-2 4-1-3-14 8-13 8 1 1h5l1-2 1-2h5l1-2 1-2h5l1-2 1-2h5l1-2m-41 23h3l1-2-1-3-7 4-6 4 1 1h5l1-2 1-2h2m-26 12 1 1h5l1-2 1-2h5l1-2-1-3-7 4-6 4m-123-89v-1h-4l-1 3v1l-2 1-2 1v3l-2 1-2 1v6l5-6 8-10m-46 51v3l-2 1-2 1v3l-2 1-2 1v3l-2 1-2 1v6l12-14 17-22v-1h-4l-1 3v1l-2 1-2 1v3l-2 1-2 1v3l-2 1-2 1m902 14v2l1 1 1 1v4h4q1-1-1-4l-3-8q-2-1-2 4m-56-63v-2l-1-2-2-1h-1l-1-1-1-1h-3l-3 1 6 4 6 2m-14-10-5-1-4 1q0 2 5 3l4 1 1-1-1-3m-45 38 23 7 18 8 10 4 26 2 31 2h5l-5-9-9-17-4-6-4-2-2-1-1-2v-1l-2-1h-1l-1-1q0-2-3-2h-2l-1-2-1-2h-3l-1-1v-2h-2l-4-1-3 1 2 1 5 3 18 14q10 8 7 8l-58-4-61-4-4-1-1 2 1 2 5 1q6 0 22 4m-79-12 1 2h2l4-1q0-2-2-2l-4-1-1 2m97-31 2 2 4 1 7 2q2 0 2-2l-1-1-4-2q-10-2-10 0m-326 24-18 4v6l3 1 39 3 48 2q15 1 35-2 37-4 76-6h16l4-2-1-1h-2l-78-6-76-5 11-3 32-6 31-5 17-3 3-1q0-2-4-2l-20 3q-55 8-116 23m-30-118h3v-1l1-1h1q3-1 3-3l1-2h4l1-1v-1h3v-2h1l2-1v-2l-1-2-59 38-60 38 14 9 14 8-35 20-25 15-10 6 1 1h2l4-1 1-2h1l4-1 1-2 1-1h1q5 0 5-3l1-2h2q6 0 6-3l1-1h3l1-2 1-2h2l4-1 1-2h1l4-1 1-2 1-1h1l5-1q2-1 2-3l1-1h1l4-1 1-2 1-1h4l1-1q1-2 3-2l45-26 37-22 5-3 1-3-1-3-4-2-20-12q-3-2-2-3l3-2h1v-2h3v-2z"/>
    <path id="o" fill="#672015" d="m1200 1089 12-13-2-1q-4 0-7 3t-3 7v4m24-32q-2 2-2 5v4l9-10-2-1q-3 0-5 2m12-6 8-9-2-1q-6 0-6 6v4m-176 383-2 1v3l-2 1-2 1v3l-2 1-2 1v3l-2 1-2 1v4l-3 1-1 1-1 2v1l-2 1-2 1v6l16-18 18-24v-1h-4l-1 3v1l-2 1-2 1v3l-2 1m53-65-2 1-1 2q0 3-2 3l-2 1v2q0 2-2 2l-3 1-1 4q0 2-2 2l-2 1v4h-2l-2 1v5h-2l-2 1-1 2v2h-2l-2 1v4h-2l-2 1v4h-2l-2 1v6l15-17 23-29 8-9v-3l-3-1-1 2v1h-1l-1 1v3l-2 1m-10-12-1 2q0 2 2 2 7 2 9 0 2-1-4-3l-6-1m-46-10q0 2 2 2 7 2 9 0 2-1-4-3l-6-1-1 2m17 6q7 2 9 0 2-1-4-3l-6-1-1 2q0 2 2 2m14 0-1 2q0 2 2 2 7 2 9 0 2-1-4-3l-6-1m-44-8q7 2 9 0 2-1-4-3l-6-1-1 2q0 2 2 2m-41-11q7 2 9 0 2-1-4-3l-6-1-1 2q0 2 2 2m-21-7q0 2 2 2 7 2 9 0 2-1-4-3l-6-1-1 2m36 7q-2 0-2 2l2 2 7 1h1l1 1 1 1h1q10 2 9 0 0-2-10-4l-10-3m-26-112v3l3-2 5-5 3-3h-3l-6 2q-2 2-2 5m-8 11 3-3h-3l-6 2q-2 2-2 5v3l3-2 5-5m184 149 43-45-63-17q-62-17-63-16l10 14 25 32 35 46 13-14m-253-73 1 2h2l4-1q0-2-2-2l-4-1-1 2m8-17v-2h-3l-3 1-1 3v3l3-2 4-3m35 30q7 2 9 0 2-1-4-3l-6-1-1 2q0 2 2 2m13 2 1 2h2l4-1q0-2-2-2l-4-1-1 2m-30-8q0 2 2 2 7 2 9 0 2-1-4-3l-6-1-1 2m-8-1 4-1q0-2-2-2l-4-1-1 2 1 2h2m1-38v3l3-2 5-5 3-3h-3l-6 2q-2 2-2 5m23-25q-2 2-2 5v3l3-2 5-5 3-3h-3l-6 2m300-228q0 3 1 2l3-3 2-3h-3l-3 1v3m25-32v3q0 3 1 2l3-3 2-3h-3l-3 1m-157 164-1 4v3l3-2 4-4 2-2h-3l-5 1m-34 23-9-11-9-12q-4-4-7-4l-9 6-15 14-28 27-6 6-1 3v3l2-1 1-1 1 1 14 18 14 17 8-7 33-32 27-25 2-4-1-1-3 1-5 3-3 3-2 1-4-5m551 292-1 2 1 2 4-1q2 0 2-2l-4-1h-2m-14 3 1 2 4-1q2 0 2-2l-4-1h-2l-1 2m-28 1-1 2 1 2 4-1q2 0 2-2l-4-1h-2m-9 3 1 2 4-1q2 0 2-2l-4-1h-2l-1 2m-143-111h3v-2h1q2 0 2-3v-3l-7 4-6 5 1 1h5l1-1v-1m-90-172 6 1 1-2-2-2-7-1q-2 0-2 2l4 2m22 3-2-2-7-1q-2 0-2 2l4 2 6 1 1-2m24 9q2 0 2-2l-2-2-6-1h-2l-1-1-6-2h-4l-1 1q0 2 9 4l11 3m23 3q-2 0-2 2l4 2 6 1 1-2-2-2-7-1m-6-1-2-2-7-1q-2 0-2 2l4 2 6 1 1-2m131 89h5l1-3v-3l-3 2-4 3 1 1m-84 55v-3l-5 3-5 4 1 1h5l1-1v-1h2l1-3m14-9v-3l-5 3-5 4 1 1h5l1-1v-1h2l1-3m14-9v-3l-3 2-4 3 1 1h5l1-3m17-11v-3l-5 3-5 4 1 1h5l1-1v-1h2l1-3m4-5 1 1h5l1-1v-1h2l1-3v-3l-5 3-5 4m18-10h5l1-1v-1h2l1-3v-3l-5 3-5 4 1 1m-49-80 5 1 1-1-1-3-5-1h-4l-1 1q0 2 5 3m-26-7 2-1-1-3-5-1h-3l-2-1-6-2h-4l-1 1q0 2 11 5l9 2m17 3-1-3-5-1h-4l-1 1q0 2 5 3l5 1 1-1m55 12-5-1h-4l-1 1q0 2 5 3l5 1 1-1-1-3m-30-4 1-2-1-2h-2l-4 1q-1 2 2 2l4 1m6-1-1 1q0 2 5 3l5 1 1-1-1-3-5-1h-4m77 48 1-3v-3l-3 2-4 3 1 1h5m12-13-4 3 1 1h5l1-3v-3l-3 2m-13-16h-2l-4 1q-1 2 2 2l4 1 1-2-1-2m11 7 4 1 1-2-1-2h-2l-4 1q-1 2 2 2m-23 28v-3l-3 2-4 3 1 1h5l1-3m-30-42 5 1 1-1-1-3-5-1h-4l-1 1q0 2 5 3m12 3 4 1 1-2-1-2h-2l-4 1q-1 2 2 2m11 3 4 1 1-2-1-2h-2l-4 1q-1 2 2 2m-136-133v1h5l1-3v-3l-3 2-3 3m-62 58h3l4-1 7-6 6-7 1-4q0-2-2-1l-9 9-10 10m-64-206q0 3 1 2l3-3 2-3h-3l-3 1v3z"/>
    <path id="p" fill="#5F2C25" d="m1344 1587-2-2-7-1q-2 0-2 2l4 2 6 1 1-2m19 8q2 0 2-2 0-3-7-3h-2l-1-1-1-1h-2q-5 0-4 2l7 3 8 2m27 10 4 1v-2l-1-2-2-1-4 1 3 3m-11-4 4 1v-2l-1-2-2-1-4 1 3 3m197 98 3 2 1-2-1-2-2-1-4 1 3 2m-87-49 3 2 1-2-1-2-2-1-4 1 3 2m52 29 1-2-1-2-2-1-4 1 3 2 3 2m14 4-2-1-4 1 3 2 3 2 1-2-1-2m204 97 1 2 6-1 4-2q1-1-2-2l-7 1q-3 1-2 2m-72-14 3 2 1-2-1-3h-2l-4 1 3 2m14 5-4 1 3 2 3 2 1-2-1-3h-2m-35-18 3 2 3 2 1-2-1-3h-2l-4 1m-15-9 3 2 1-2-1-3h-2l-4 1 3 2m-30-18 5 3 1-1v-3l-2-1-3-1-2-2-3-1-2-2q-1-2-3-1t-2-2-3-1-2-2-3-1q0-2-3-2t-4 1l15 10 11 6m195 29v3l3-2 3-3q1-1-2-1h-3l-1 3m-32 20 4-3-3-1h-3l-1 3v2l3-1m65-50q0 3 1 2l3-3 2-3h-3l-3 1v3m27-48q0 5 2 2 3-3 4-9v-2l-2-1-3 3-1 7m9-43v3l1 4q2 1 2-2l1-5-2-1-2 1m-1245 71-3 1 3 5 3 5 1-4v-3l-1-1h-1v-2l-1-1h-2m-18-33 2 2 1-3v-3l-2-1-2 1 1 4m-6-23 1 4q0 3 2 2l1-3v-3l-2-1-2 1m-2-19q0 3 2 2l1-3v-3l-2-1-2 1 1 4m146 150h-3l-3 1q-1 2 2 2l4 1 1-2-1-2m-39-5 4 1v-2l-1-3h-3l-3 1 3 3m-32-22h-3l-4 1 5 3 5 3 1-2v-2l-1-1h-2v-1l-1-1m371-120 4-3-3-1h-3l-1 3v2l3-1m40-20v2l3-1 4-3-3-1h-3l-1 3m23-9v2l3-1 4-3-3-1h-3l-1 3m-8 3v2l3-1 4-3-3-1h-3l-1 3m22-8v2l6-2q8-3 7-4-2-2-9 0l-3 2-1 2m42-11q2 0 2-2l-3-1h-3l-1 2 1 2 4-1m44-10 1 2 5-1q3 0 2-2l-4-1h-3l-1 2m-29 5-3-1h-3l-1 2 1 2 4-1q2 0 2-2m-542-76 1 1h2l2-1v-5l-1-1-2 3-2 3m16-24-1-1-2 3-2 3 1 1h2l2-1v-5m14-27-2 3-2 3 1 1h2l2-1v-5l-1-1m16-22v-3l-1-1-2 3-2 3 1 1h2l2-1v-2m15-24v-5l-1-1-2 3-2 3 1 1h2l2-1m9-18 2-1v-5l-1-1-2 3-2 3 1 1h2m17-32-1-1-2 3-2 3 1 1h2l2-1v-5m15-26-1-1-2 3-2 3 1 1h2l2-1v-5m14-27-2 3-2 3 1 1h2l2-1v-5l-1-1m7-13 1 1h2l2-1v-5l-1-1-2 3-2 3m16-25h2l2-1v-5l-1-1-2 3-2 3 1 1m19-32-1-1-2 3-2 3 1 1h2l2-1v-5m21-40 1 1h2l2-1v-5l-1-1-2 3-2 3m30-52 1 1h2l2-1v-5l-1-1-2 3-2 3m-15 26 1 1h2l2-1v-5l-1-1-2 3-2 3m26-45 1 1h2l2-1v-5l-1-1-2 3-2 3m17-29-2 3 1 1h2l2-1v-5l-1-1-2 3m13-23 1 1h2l2-1v-5l-1-1-2 3-2 3m17-29-2 3 1 1h2l2-1v-5l-1-1-2 3m14-16v-5l-1-1-2 3-2 3 1 1h2l2-1m12-29-2 3 1 1h2l2-1v-5l-1-1-2 3m13-23 1 1h2l2-1v-5l-1-1-2 3-2 3m292 56q0 3 1 2l3-3 2-3h-3l-3 1v3m28-32v3h-3l-3 1v7l4-5 6-7 2-3h-3l-3 1v3m-305-50 1 1h2l2-1v-5l-1-1-2 3-2 3m11-19 1 1h2l2-1v-5l-1-1-2 3-2 3m17-29-2 3 1 1h2l2-1v-5l-1-1-2 3m13-23 1 1h2l2-1v-5l-1-1-2 3-2 3m26-45 1 1h2l2-1v-5l-1-1-2 3-2 3m15-26 1 1h2l2-1v-5l-1-1-2 3-2 3m237 179 2-3h-3l-3 1v3q0 3 1 2l3-3m-673 588 1 1h1l2-1v-2l-1-4-2 2-1 4m18-43 1 1h2l2-1v-5l-1-1-2 3-2 3m1245 40-1 3 2 10 3 15 1 5 1 1 2-1-1-11q-4-22-7-22m-8-18 1 4v2l2 1 2-1-1-4-3-6-3-5-1 3q0 6 3 6m-14-29 3 3-2-4-2-3-1 1 2 3m-14-27-2-3-1 4v2l3 1 2-1-2-3m-18-25v2l3 1 2-1-2-3-2-3-1 4m-15-26v2l3 1 2-1-2-3-2-3-1 4m-11-19v2l3 1 2-1-2-3-2-3-1 4m-14-30-1 4v2l3 1 2-1-2-3-2-3m-16-22v2l3 1 2-1-2-3-2-3-1 4m-41-71v2l3 1 2-1-2-3-2-3-1 4m15 26v2l3 1 2-1-2-3-2-3-1 4m-56-97v2l2 1 2 1v5l2 1 2 1v5l3 1h2l-6-11-6-10-1 1v3m-14-30-1 4v2l3 1 2-1-2-3-2-3m40 75v2l3 1 2-1-2-3-2-3-1 4m-10-23-1 4v2l3 1 2-1-2-3-2-3m-253 104-2 2h6l1-2-1-3-4 3m-85-164 4 1 1-2-1-2h-2l-4 1q-1 2 2 2m13 2q-1 2 2 2l4 1 1-2-1-2h-2l-4 1m28 9 4 1 1-2-1-2h-2l-4 1q-1 2 2 2m34 5h-2l-4 1q-1 2 2 2l4 1 1-2-1-2m7 6 3 1q2 0 2-2l-1-2h-2l-4 1q-1 1 2 2m-28-9q-1 2 2 2l4 1 1-2-1-2h-2l-4 1m121 93-2 2h6l1-2-1-3-4 3m19-9-1-3-4 3-2 2h6l1-2m-95 58-2 2h6l1-2-1-3-4 3m18-12-4 3-2 2h6l1-2-1-3m21-10-1-3-5 3-6 5v1h5l1-1v-1h3v-2h2l1-2m13-12-5 3-4 4h6l1-1v-1h2l1-2v-2l-1-1m15-8-1-1-5 3-4 4h6l1-1v-1h2l1-2v-2m0-68 5 1q2 0 2-2l-2-2-7-1-2 1 4 3m-41-11 5 1q2 0 2-2l-2-2-7-1-2 1 4 3m-19-7 4 3 5 1q2 0 2-2l-2-2-7-1-2 1m-15-4 4 3 5 1q2 0 2-2l-2-2-7-1-2 1m58 14-2 1 4 3 5 1q2 0 2-2l-2-2-7-1m-13-2q-1 2 2 2l4 1 1-2-1-2h-2l-4 1m89 40-1-1-5 3-4 4h6l1-1v-1h2l1-2v-2m-7-17 4 2 6 1 1-2-2-2-7-1q-2 0-2 2m22 4-1-2h-2l-4 1q0 2 3 3h3l-4 3-4 2-1 2q-1 1 2 1h3l1-1v-1h1l2-2 1-6m-33 28 1-1v-1h2l1-2v-2l-1-1-5 3-4 4h6m-30-44 4 3 5 1q2 0 2-2l-2-2-7-1-2 1m17 6 4 1 1-2-1-2h-2l-4 1q-1 2 2 2m18 1-7-1q-2 0-2 2l4 2 6 1 1-2-2-2m-51-190-2 2 2 1 6-1h4l1-2-1-2h-3l-7 2m-7 4v-1l-1-1-4 1-2 2 4 1h2l1-2m-48 20 4 1q4 0 3-1 0-2 3-2h2v-4l-1-1-6 3-5 4m-1 4v-2l-1-1-5 3-4 4h6l1-1v-1h2l1-2m100-27-1 2 1 2h3l3-1q1-2-2-2l-4-1m-7 0q1-2-2-2l-4-1-1 2 1 2h3l3-1m-156 77v-3l-3 2-3 3v1h5l1-3m10-7 1-3v-3l-3 2-3 3v1h5m21-18 1-2 1-1 2-1h2v-6l-3 2-6 5-3 3h6m15-14v-3l-3 2-3 3v1h5l1-3m-159-121q0 3 1 2l3-3 2-3h-3l-3 1v3m34-41h-3l-3 1v5l-2 1-2 1-1 1v1l-1 1-2 1v2l-1 1-2 1v2l-1 1-2 1v2l-1 1q-2 0-2 4t1 3l6-8 12-17 4-5m12-22h-2l-1 2v1h-1l-1 1v2h-1l-1 1v2h-1l-1 1v2h-1l-1 1v3q0 3 1 2l6-8 6-8q0-2-2-2m14-27v5l-2 1-2 1v2l-1 2-2 3-1 2q-2 0-2 4v2l1 1 7-11 7-12-1-1h-1l-3 1m17-23v-2l-1-1q-2 0-3 2l-3 6-3 6-1 4v2l1 1 5-7 5-11m9-33v3l1 3 3-4 1-2-2-1-3 1m2 7h-2l-2 1-1 2v1l-1 1-1 1v3l-1 3-2 4q0 5 2 2t6-13l2-5m-1-39-1-3-2 3-3 7-5 9-42-85-42-88-2-2-4-1q-19-3-40-3-20 1-39 7l-16 5-9 5 3 1 5-1 3-2 12-3 19-5q10-2 11-1l16 33 38 79 44 92q9 20 9 23v4h3l4-1 3-4 20-34q9-17 9-21 0-3 2-3l1-1v-3l2-2 1-5m13-1q0-2-2-2l-2 2-1 5-1 6-1 4v1l-1 1-1 1v3l1 3q2 0 5-12l3-12m263 384v2l3 1 2-1-2-3-2-3-1 4m-8-20-2-3-1 4v2l3 1 2-1-2-3m-30-48 2-1-2-3-2-3-1 4v2l3 1m15 22-2-3-1 4v2l3 1 2-1-2-3z"/>
    <path id="q" fill="#5F2C25" d="M1160 668h1v-2h3v-1l1-2h1q5 0 5-4v-1l-1-1-10 6-11 7-1 2h6l1-1v-1h3v-2h1m-90 115 1 1h1l3-1v-5l-1-1-2 3-2 3m13-22-2 3 1 1h1l3-1v-5l-1-1-2 3m13-23 1 1h1l3-1v-5l-1-1-2 3-2 3m16-21v-3l-1-1-2 3-2 3 1 1h1l3-1v-2m13-19 3-1v-6l-4 4-7 9-3 4h5l1-2v-1l1-1q2 0 2-3v-2l2-1m258 95-1 3h2l3-1v-3l-1-3-3 4m6-16-3 10 1 1 3-1 2-7q5-14 2-14l-2 3-3 8m11-24q0-5-1-4-2 1-3 6l-2 7 1 1h1l2-1v-5l1-1 1-1v-2m2-15v-6l-2 5-1 7v1h2l1-1v-6z"/>
    <path id="r" fill="#7B2119" d="m789 1770-1 2v1l-2 1-2 1v3l-2 1-2 1v4l1 1 2-2 4-4 6-9v-1h-4m25-25v-1h-4l-1 3v1l-2 1-2 1v3l-2 1-2 1v3l-2 1-2 1v6l7-8 10-13m29-39q0 3 1 2l3-3 2-3h-3l-3 1v3m-19 27h-3l-3 1v3q0 3 1 2l3-3 2-3m61-76v-1h-4l-1 3v1l-2 1-2 1v3l-2 1-2 1v3l-2 1-2 1v3l-2 1-2 1v6l9-10 12-16m24-34v1l-2 1-2 1v3l-2 1-2 1v6l5-6 8-10v-1h-4l-1 3m109 28-3 2 2 1 3-1 2-2-1-2-3 2m15-5 1-2v-1l-1-1-3 2-3 2 1 1h2l3-1m-49 26 19-11q4-2 3-3l-26 14-28 16 6-2 26-14m69-38h3l1-2 1-2h5l1-2-1-3-14 8-13 8 1 1h5l1-2 1-2h5l1-2 1-2h2m49-26 1-2 1-2h5l1-2-1-3-22 12-21 13 1 1h5l1-2 1-2h5l1-2 1-2h5l1-2 1-2h2q6 0 6-3l1-2h5m63-37 1-2h5l1-2 1-2h2q6 0 6-3l1-2h5l1-2 1-2h5l1-2 1-2h2q6 0 6-3l1-1h1q5 0 5-3l1-2h2q6 0 6-3l1-1h1q5 0 5-3l1-2h5l1-2 1-2h5l1-2 1-2h5l1-2-1-3-45 25-44 26 1 1h5l1-2m-23 13 1-2h5l1-2 1-2h5l1-2-1-3-22 12-21 13 1 1h5l1-2 1-2h5l1-2 1-2h5l1-2 1-2h2q6 0 6-3m-138-75v-1h-4l-1 3v1l-2 1-2 1v3l-2 1-2 1v3l-2 1-2 1v6l7-8 10-13m-37 46v-1h-4l-1 3v1l-2 1-2 1v3l-2 1-2 1v3l-2 1-2 1v3l-2 1-2 1v3l-2 1-2 1v3l-2 1-2 1v6l12-14 17-22m916 28-1 2 1 6v3l2 1 2-1-1-6q-1-5-3-5m-91-53-5-2v5h4l1 1 1 1h2l4 1 2 2 5 3 14 8 13 10 4 4 18 1 19 1q2 0 3 5l1 4 1 1 1 1v5l2 1h1l1-2-3-11-7-17-4-9h-6l-29-2-20-2-10-3-13-6m67-3 4 4-3-5-5-6h-1l1 1 4 6m-14-19-1-2h-3q-3 0-2 1l6 6 5 3 1-1q1-5-4-5h-1l-1-2m-67 17-10-3q-2 0-2 2l1 2h5l1 1 1 1 2 1 7 1 3-1-8-4m-21-4q0-2-4-3l-17-3-19-3q-3 0-3 2l2 2 8 1 18 3 12 2 3-1m-185-4 1-2-1-2-5 1-1 1-1 1 4 1h3m-19-1-1-1-4 1-2 2 3 1h3l1-2v-1m4-1-2 2 3 1h3l1-2v-1l-1-1-4 1m23 1h3l1-2-1-2-5 1-1 1-1 1 4 1m12-1h4l1-2q0-2-2-2l-5 1-2 2 4 1m-295-19h3l1-2-1-3-25 14-25 15 1 1h5l1-2 1-2h5l1-2 1-2h5l1-2 1-2h2q6 0 6-3l1-2h5l1-2 1-2h5l1-2 1-2h2m79 28v6l28 2 39 2 32-4 40-7 11-1 3-2-8-2-34-2-47-4h-5l11-3q12-3 12-5t-3-1l-20 5-40 10-19 6z"/>
    <path id="s" fill="#7B2119" d="m1182 1107-3-1q-3 0-5 2t-2 5v3l10-9m-150 360v4h-2l-2 1v4h-2l-2 1v4h-2l-2 1v4h-2l-2 1v6l10-12 15-19v-1h-2l-2 1-1 2v2h-2l-2 1m48-58-2 1v4h-2l-2 1v4h-2l-2 1v5h-3l-2 1v4h-2l-2 1v4h-2l-2 1v4h-2l-2 1v4h-2l-2 1v4h-2l-2 1v6l2-1 19-24 21-27v-1h-2l-2 1-1 2v2h-2m14-12 5-6 2-3h-3l-2 1-1 2v2h-2l-2 1v7l3-4m-30-48q0 2 2 2 7 2 9 0 2-1-4-3l-6-1-1 2m16 2-1 1v1l2 2 7 1h1l1 1 5 2 8 1h1l1 1 2 1 5 1 4 1v1q-3 1-3 3 0 3-2 3t-2 2l-1 2-1 1-2 1-1 3v4l10-11 8-11-21-5-21-6m-44-8q7 2 9 0 2-1-4-3l-6-1-1 2q0 2 2 2m14 0-1 2q0 2 2 2 7 2 9 0 2-1-4-3l-6-1m-61-14 1 2 4 1 8 1h1l1 1 5 2 8 1h1l1 1 1 1h1l7 1 2-1q0-2-19-7l-21-5-1 1v1m-11-3 1 2h2l4-1q0-2-2-2l-4-1-1 2m3-94v3l3-2 3-3q1-1-2-1l-3 1-1 2m24-22-6 2q-2 2-2 5v3l3-2 5-5 3-3h-3m13-13v3l3-2 6-5 3-4h-3q-3 0-6 3t-3 5m-48 124-6-1-1 2q0 2 2 2 7 2 9 0 2-1-4-3m-22-3q0 2 2 2 7 2 9 0 2-1-4-3l-6-1-1 2m-14-2h1l7 1 2-1q0-2-12-5l-20-5-2-1v-2l1-1h-2l-2 1v2l1 3 2 1 6 1h1l1 1 5 2 8 1h1l1 1 1 1m5-44v3l3-2 5-5 3-3h-3l-6 2q-2 2-2 5m22-24-1 4v3l3-2 4-4 2-2h-3l-5 1m-32 37h-3l-6 2q-2 2-2 5v3l3-2 5-5 3-3m275-202-1-1-4 1-4 3-3 4-1 4v4l7-8 6-7m14-17v3l4-3 3-4h-3l-3 1-1 3m28-30v3l3-2 3-4-1-1h-2l-3 1v3m11-9 3-3v-2h-2l-3 1v6l2-2m-130 63-30 29-29 28q-7 7-7 9v3l3-2 3-1h1l14 18 13 17 13-12 36-35 23-23-14-18-13-16q-2-3-4-3t-9 6m-86 85v3l3-2 6-5 3-4h-3q-3 0-6 3t-3 5m249-186 2-3h-3l-2 1-1 2v3h-2l-3 1v7l4-4 5-7m513 500 4 1v-2l-1-2-2-1-4 1 3 3m26 11 3 2 1-2-1-2-2-1-4 1 3 2m-31-16-1-2h-2l-4 1q-1 2 2 2l4 1 1-2m-93 28 1 2h3l4-1q1-1-2-2l-5-1-1 2m-83-1 1 1h11l1-2-1-2h-3q-9 0-9 3m71 0 1 2h4l4-1q1-1-2-2-7-2-7 1m-16-3h-3l-1 2 1 2h10l1-1q0-2-2-2l-6-1m-22-38-1 2 1 2h2l5-1q2 0 2-2l-1-1h-8m-16 1-1 2q0 3 7 1 3 0 2-2l-4-1h-4m-9 1h-3l-1 2 1 2 5-1q3 0 2-2l-4-1m145 9h2l2-2-2-2-18-3-15-2q-3 0-3 2l3 1 31 6m-37-10h-3l-4 1q-1 2 2 2 6 2 6-1l-1-2m-20 2h1l5 1h2l1-2-1-2h-8l-1 1 1 2m-15-220-2-3-2-3-1 4v2l3 1 2-1m-101 259 1 1h8l1-2-1-2h-2l-5 1q-2 0-2 2m-128-15-1 2 1 2 4-1q3 0 2-2l-3-1h-3m-14 5 1 2 6-1 4-2q1-1-2-2l-7 1q-3 1-2 2m26-7h-3l-1 2 1 2 4-1q3 0 2-2l-3-1m30-5 1 2 8-1 10-2 4-2q0-2-3-2l-11 2-7 1-2 2m-11 4 3-2-2-1-9 1-5 2-1 1 1 2h3l10-3m111-19 1 2 5-1q3 0 2-2l-4-1h-3l-1 2m-10 1 1 2 5-1q3 0 2-2l-4-1h-3l-1 2m-15 0-1 2 1 2 4-1q3 0 2-2l-3-1h-3m8-1-1 2 1 2 4-1q3 0 2-2l-3-1h-3m-31 5-21 3-3 1-1 1v2l43-6 3-2q0-2-2-2l-19 3m-118-261 4 1 1-2-1-2h-3l-3 1q-1 2 2 2m-31-11-1-1-5-2-8-1h-1l-1-1-6-2h-4l-1 1 5 3 17 5 24 6q2 0 2-2l-1-2h-5l-1-1-5-2-8-1h-1m99 115v-1h1l2-1v-2l-1-2-40 26-61 39-10 7-4 3 5 3 11 7 16 9-3 2-53 31-61 35-8 5-4 2 3 1 4-1h2v-2l1-1h1l4-1 1-2 1-1h1q5 0 5-3l1-2h5l1-2 1-2h5l1-2 1-2h5l1-2 1-2h5l1-2 1-2h5l1-2 1-2h5l1-2 1-2h2l4-1 1-1 1-1 4-1 1-2 1-1h1l4-1 1-2 1-1h1l4-1 1-2 1-1h1l4-1 1-2 1-1h4l1-1 2-2 3-1 2-1 1-1 1-1h2l1-1 1-1 1-2h4l1-1 3-2 2-1 8-5 85-49 8-5 1-4-2-4-14-8-17-10 1-1 3-2h1v-2h3v-2h3v-1m19-17-8 5-7 5 1 1h5l1-1v-1h3v-2h3v-2h2l1-2-1-3m-46-76 4 1 1-2-1-2h-2l-4 1q-1 2 2 2m-17-5 4 2 6 1 1-2-2-2-7-1q-2 0-2 2m-15-4 4 2 6 1 1-2-2-2-7-1q-2 0-2 2m58 13q-2 0-2 2l4 2 6 1 1-2-2-2-7-1m-17-2 4 2 6 1 1-2-2-2-7-1q-2 0-2 2m96 36-6 4-6 4 1 1h5l1-1v-1h3v-2h2l1-2-1-3m-10-14q-1 2 2 2l4 1 1-2-1-2h-2l-4 1m22 8v-4l-3-1-4 1q0 2 3 3h3l-3 2-2 1-1 1 4 1 3-1v-3m-38 23 1 1h5l1-1v-1h3v-2h2l1-2v-2l-1-1-6 4-6 4m-1 2-1-1-15 9-14 10 1 1h5l1-1v-1h3v-2h3v-2h3v-1q0-2 3-2h1l1-1v-1h3v-2h3v-2h2l1-2v-2m-24-44q-1 2 2 2l4 1 1-2-1-2h-2l-4 1m-5 0 1-2-2-2-7-1q-2 0-2 2l4 2 6 1m20 6 6 1 1-2-2-2-7-1q-2 0-2 2l4 2m13 0q-2 0-2 2l4 2 6 1 1-2-2-2-7-1m-155-119v-2h-2l-3 3-2 2h6l1-3m21-21v1h5l1-3v-3l-3 2-3 3m15-9v-3l-3 2-3 3v1h5l1-3m-81 75v-5l-3 2-11 11-9 9 18 5 17 5q3 0 3-2l-2-2-7-1h-1l-1-1-5-2-8-1h-1l-1-1-1-1h-1q-2 0-1-1l4-5 4-4 2-3 1-1 1-1 2-1z"/>
    <path id="b" fill="#200501" d="m1552 1682-1-2h-5l-1-2-1-2h-5l-1-2-1-2h-3l-3 1 7 4 17 10 32 20 10 5 1-1v-3l-2-1-3-1-2-2-3-1-2-2q-1-2-3-1 0-2-3-2h-3l-1-2-1-2h-1l-3-1-3-2h-3l-1-2-1-2h-1l-3-1-3-2h-3l-1-2m84 49-3-1-3-2-4 1 4 3 9 5 9 6 4 2 1-1v-3l-2-1-3-1-2-2-3-1-2-2q-1-2-3-1t-2-2m221-12 3-4h-5l-1 2v1l-2 1-1 3v2l-3 1-2 1v7l4-5 7-9m5-15v5l1 1 4-6 4-7-3-1-2 1v5l-2 1-2 1m-1213 14-1-1v-2l-2-1-1-1v-2l-1-1h-1v-1q0-2-3-2h-1l-1 1 4 7 9 12 4 3q1 1 1-1l-1-5-2-1-2-1v-1q0-3-2-3m178 24-2 2 8-8 5-6-3 3q-6 5-8 9m56-15h1l7-4 5-3 1-2h-1l-3 2-6 3-4 4m224-131-3-2-3-2 1-2 2-1h1v-2h1l2-1v-2l-1-2-78 50-78 50 3-1 22-14 22-14 3 2 2 1v1l-16 10-46 26-34 19 1-1h-3l-5 4-1 1v1l1 1 26-15 36-20 41-22 35-17 9-5 4-3 5-3 5-2 5-1 4-3q1-1-1-1-1 0 0 0l1-1 1-1 1 1 1 1 6-2 21-9 13-6q2-2-2-2h-3l-1 1-1 1h-2q-2 0-2 2t-3 1h-3l-1 1-1 1h-2q-2 0-2 2t-3 1h-3l12-7 12-7v-4l-1-3m-26 24-1 1h-3l2-2h2v1m-175 92h1l-1 1-4 2 1-1 3-2z"/>
    <path id="u" fill="#772F27" d="m1408 1138-1-2-8 8h3q7 0 6-6m-49 453-1-2h-5l-1-1-6-2h-4l-1 1q0 2 7 4l9 2q2 0 2-2m20 8 3 3 4 1v-2l-1-3h-2l-4 1m53 22 4 3 5 2v-2q1-4-6-4l-3 1m-11-7q0-2-3-2t-4-1l-1-2h-3q-4 0-2 2l10 5 10 4v-2l-1-3h-2l-4-1m94 50 3 2 1-2-1-3h-2l-4 1 3 2m-6-8-5-1q-6 0 1 4l4 2 1-2-1-3m-36-19-6-3-10-4q-4-1-4 1l3 2 7 4 7 4 3 1 1-1v-1l-1-3m19 15 4 2 1-2-1-3-5-1q-6 0 1 4m60 31-1-2-1-2h-5l-1-2-1-2h-5l-1-2q0-3-6-3h-2l-1-2-1-2h-2l-4 1 7 4 15 9 38 22 15 9 1-1v-3l-2-1-3-1-2-2-3-1-2-2q-1-2-3-1 0-2-3-2h-3l-1-2-1-1-1-1-3-1-3-2h-3l-1-2-1-1-1-1-3-1-3-2h-3m215 93-1 2 1 2 4-1q3 0 2-2l-3-1h-3m-17 4-6 2-1 1 1 2h3l11-3 3-2-2-1-9 1m-41-4q0-2-3-2t-4 1l2 1 3 3 6 3 1-2v-2l-2-1-3-1m-8-6-2-1-3-1-3-2-4 1 2 1 3 3 6 3 1-2v-2m-26-15-4 1 8 5 8 5 1-2v-2l-2-1-3-1-2-2-3-1q0-2-3-2m-18-11-4 1 8 5 8 5 1-1v-3l-2-1-3-1-2-2-3-1q0-2-3-2m-20-12q0-2-2-2t-3-1q0-2-3-2t-4 1l4 3 9 5 9 6 4 2 1-1v-3l-2-1-3-1-2-2-3-1-2-2q-1-2-3-1m151 39v1h3l6-3q1-2-3-2l-5 1-1 3m33-21-1 2-1 2h-5l-1 1v1h-3v2l-2 1q-2 0-3 2l-1 1h-1q-5 0-5 4l1 2q2 0 15-9l21-16 5-4h-7l-1 3-1 3h-5l-1 2-1 2h-1l-2 1m42-46h-2v3h-2v3h-2v3h-1l-1 1v2l-1 1q-2 0-2 4v2h2l8-12 7-11-1-1h-1l-2 1-1 2-1 2m16-26h-2l-2 1-1 2v1l-1 1-1 1v5l1 1 1-1 3-6 2-5m7-37-1 2-2 7-3 13v3l1 1 2-2 2-7 3-14q0-3-2-3m-1-36v2l2 1 2-1-1-4q0-2-2-2l-1 4m4 28-2-1-2 1v3l1 3q2 1 2-2l1-4m-1255 68 2 3 2 3 1-3v-3l-2-1-3 1m0-6-1-5-3-1-2 1 2 4 3 4 1-3m-15-30q0 3 2 2l1-3v-3l-2-1-2 1 1 4m8 15h-2v3l2 3 1 1 1-3v-3l-2-1m-11-27 1 4q0 3 2 2l1-3v-3l-2-1-2 1m2-9-1-7q0-2-2-2t-2 2l2 9v2l2 1 1-1v-4m-4-24-2 1v2l1 6 1 1 1 1 1-1v-9l-2-1m1-14q-2 0-2 2t-1 6v2l2 1 2-1v-9l-1-1m105 167 2 2 12 4 16 3 9 2q2 0 2-2l-1-1-2-1-11-2-12-2h-1l-1-1-4-2-6-1-3 1m-2-3-3-1-3 1 3 3 4 1v-2l-1-2m-28-10 12 6 7 4 1-2q0-2-3-4t-7-2h-2l-1-2-1-2h-3q-4 0-3 2m-14-16h-6l6 5 6 5v-5l-3-1h-1l-1-2-1-2m-28-22 5 5v-6l-2-1h-2v-2l-1-2-2-1h-2v1l4 6m306-35h1l2-1 3-3-1 1-2 1-3 2m69-39v2l9-4 8-5q0-3-8 1t-9 6m-21 11-5 3-5 3 1 1 5-3 5-3q1-1-1-1m-24 14q-2 1 0 1l4-2 3-2 1-1-3 1-5 3m-6 4 1-1-5 3-3 1v1l5-2 2-2m99-52v2l3-1 4-3-3-1-3 1-1 2m-13 6v2l3-1 4-3-3-1-3 1-1 2m42-17q2-2-2-2h-3l-1 2-3 1q-3 0-4 2t-3 1l-3 1-1 2v1h1l11-4 8-4m20-11-1 2v2l3-1 4-3-3-1-3 1m25-8 1 2 5-1q4-1 4-3l-3-1q-7 0-7 3m-10 6q4-1 5-3l-3-1-5 1q-2 1-2 3v2l5-2m41-14-1-1h-4l-6 2-1 1h-5l-1 2 1 2 9-2q8-2 8-4m119-11h-3l-4 1q-1 2 2 2 6 2 6-1l-1-2m-16 2 4 1h2l1-2-1-2h-7l-1 1 1 2h1m-47-1q0 3 7 1 3 0 2-2l-4-1h-4l-1 2m-29 2-11 2-2 2 1 2h2l16-3 16-3q3 0 3-2l-4-1-21 3m-17 4-7 1q-3 1-2 2l1 2 6-1 4-2q1-1-2-2m-475-173v-3l2-1 2-1v-5l2-1 2-1v-2l-1-4-27 45-26 47h3l2-1v-5l2-1 2-1v-5l2-1 2-1v-1q0-3 2-3t1-3v-3l2-1 2-1v-5l2-1 2-1v-5l2-1 2-1v-1q0-3 2-3t1-3v-3l2-1 2-1v-5l2-1 2-1v-5l2-1 2-1v-1q0-3 2-3t1-3m15-26v-3l2-1 2-1v-5l2-1 2-1v-1q0-3 2-3t1-3v-3l2-1 2-1v-5l2-1 2-1v-5l2-1 2-1v-1q0-3 2-3t1-3v-3l2-1 2-1v-5l2-1 2-1v-5l2-1 2-1v-1q0-3 2-3t1-3v-3l2-1 2-1v-5l2-1 2-1v-2l-1-4-27 45-26 47h3l2-1v-2m105-180v-2l-1-4-27 45-26 47h3l2-1v-5l2-1 2-1v-5l2-1 2-1v-1q0-3 2-3t1-3v-3l2-1 2-1v-5l2-1 2-1v-5l2-1 2-1v-1q0-3 2-3t1-3v-3l2-1 2-1v-5l2-1 2-1v-5l2-1 2-1v-1q0-3 2-3t1-3v-3l2-1 2-1v-5l2-1 2-1m37-66v-3l2-1 2-1v-2l-1-4-19 32-19 34h3l2-1v-5l2-1 2-1v-5l2-1 2-1v-1q0-3 2-3t1-3v-3l2-1 2-1v-5l2-1 2-1v-5l2-1 2-1v-1q0-3 2-3t1-3v-3l2-1 2-1v-2m56-100 2-1 2-1v-2l-1-4-27 45-26 47h3l2-1v-5l2-1 2-1v-5l2-1 2-1v-1q0-3 2-3t1-3v-3l2-1 2-1v-5l2-1 2-1v-5l2-1 2-1v-1q0-3 2-3t1-3v-3l2-1 2-1v-5l2-1 2-1v-5l2-1 2-1v-1q0-3 2-3t1-3v-3l2-1 2-1v-5m323-3v4l4-4 2-4-1-1-4 1-1 4m9-10v3l2-2 3-4q1-1-2-1l-3 1v3m25-25 1-2h-3l-3 1v6h-3l-3 1v5l-3 1-3 1-1 3v4l8-8 10-12m-299-60 2-1v-2l-1-4-27 45-26 47h3l2-1v-5l2-1 2-1v-5l2-1h2v-2q0-3 2-3t1-3v-3l2-1 2-1v-5l2-1 2-1v-5l2-1h2v-2q0-3 2-3t1-3v-3l2-1 2-1v-5l2-1 2-1v-5l2-1h2v-2q0-3 2-3t1-3v-3l2-1 2-1v-5l2-1m-359 631q0-5-2-4l-3 8-3 15-2 12 1 1h1l2-1v-2l2-12 2-12v-1l1-1 1-1v-2m3-7v-3l-1-3-3 4v3h2l2-1m4-13-1-3-3 4v3h2l2-1v-3m10-18v-3l2-1 2-1v-5l2-1 2-1v-5l2-1h2v-2q0-3 2-3t1-3v-3l2-1 2-1v-5l2-1 2-1v-2l-1-4-16 26-15 27 1 1h1q4 0 4-5v-1l2-1 1-3m426-741 2-1h2v-2q0-3 2-3t1-3v-3l2-1 2-1v-5l2-1 2-1v-2l-1-4-47 81-47 82h3l2-1v-5l2-1 2-1v-5l2-1 2-1v-1q0-3 2-3t1-3v-3l2-1 2-1v-5l2-1 2-1v-5l2-1 2-1v-1q0-3 2-3t1-3v-3l2-1 2-1v-5l2-1 2-1v-5l2-1 2-1v-1q0-3 2-3t1-3v-3l2-1 2-1v-5l2-1 2-1v-1q0-3 2-3t1-3v-3l2-1 2-1v-5l2-1 2-1v-5l2-1 2-1v-1q0-3 2-3t1-3v-3l2-1 2-1v-5l2-1 2-1v-5m813 782v2l2 1 2-1-1-4-2-2-1 4m-74-138v2l2 1 2 1v5l2 1 2 1v3q0 3 2 3t1 3v1l2 1 2 1v5l2 1 2 1v5l2 1 2 1v3q0 3 2 3t1 3v1l2 1 2 1v5l2 1 2 1v5l2 1 2 1v3q0 3 2 3t1 3v1l2 1 2 1v5l2 1h1l1 1 2 4 2 2h1l-26-47-27-45-1 4m-93-164v5l2 1 2 1v3q0 3 2 3t1 3v1l2 1 2 1v5l2 1 2 1v5l2 1 2 1v3q0 3 2 3t1 3v1l2 1 2 1v5l2 1 2 1v5l2 1 2 1v3q0 3 2 3t1 3v1l2 1 2 1v5l2 1 2 1v3q0 3 2 3t1 3v1l2 1 2 1v5l2 1 2 1v5l2 1 2 1v3q0 3 2 3t1 3v1l2 1 2 1v5l2 1 2 1v5l2 1 2 1v3q0 3 2 3t1 3v1l2 1 2 1v5l2 1 2 1v5l3 1h2l-47-82-47-81-1 4v2l2 1 2 1m-10-20-1 4v2l3 1 2-1-2-3-2-3m-368 331-12-2-20-4-5 1q0 2 4 3l18 3 15 3 2-1v-1l-2-2m248-330q-1 2 2 2l4 1 1-2-1-2h-2l-4 1m21 7 1-2-1-2h-2l-4 1q-1 2 2 2l4 1m-34-9 4 1 1-2-1-2h-2l-4 1q-1 2 2 2m-41-191h-2l-18 6-10 5 1 1h5l1-1 1-1h3l1-1 4-1 3-1 1-1 1-1h1l7-1 2-2-1-2m-45 18-3 2 1 1h5l1-2v-2l-1-1-3 2m-13 8 1 1h5l1-2v-2l-1-1-3 2-3 2m121-14 1 2h2l4-1-3-2-3-2-1 3m-51-12v-1l-1-1-4 1-2 2 3 1h3l1-2m38 3-17-4-3-1-1 2 1 2 5 1 9 1h1l1 1 1 1h3l1 1 1 1h5l1-1-8-4m-160 69 1-3q0-3-1-2l-4 3-2 2h6m25-27 1 1h5l1-3v-3l-3 2-4 3m-4 9 1-3v-2h-1l-11 8-6 5-2 3h4l3-1 1-2 1-2 2-1h2l1-2 1-2 2-1h2m16-18 1 1h5l1-3v-3l-3 2-4 3m-159-115 8-10v-1h-2l-2 1-1 2v2h-2l-2 1v4h-2l-2 1v6l5-6m10-19v3q0 3 1 2l3-3 2-3h-3l-3 1m22-23 4-5h-3l-3 1v5l-3 1-2 1v6l2-1 5-8m24-36-1-1h-2l-2 1v2q0 2-2 2t-1 4l1 3 4-5 3-6m5-17v5l-2 1-2 1v5l1 1 4-6 4-7-3-1-2 1m23-38v-2h-2l-2 1v3q0 3-2 3t-1 4q0 9 7-9m4-9v-2l-2-1-2 1v3l1 3 3-4m4-11 2-7q0-2-2-2l-2 1-1 4-2 8q0 4 1 3l4-7m265 339-1 1v5l2 1 2 1v5l2 1 2 1v3l1 3 2 3v1l2 1 2 1v5l2 1 2 1v5l2 1 2 1v3l1 3 2 3v1l2 1 2 1v5l2 1 2 1v5l2 1 2 1v5l2 1 2 1v5l2 1h2l1-1-23-40-23-39m-33-50q2 0 2 3v1l2 1 2 1v5l2 1 2 1v5l2 1 2 1v3l1 3 2 3v1l2 1 2 1v5l2 1 2 1v5l2 1h3l-24-43-25-42-1 1v5l2 1 2 1v3l1 3 2 3v1l2 1 2 1v5l2 1 2 1v5l2 1 2 1v3l1 3m-221-335 1-8-2-1-2 5-3 17v3l1 1 2-3 3-14m-11 7-1-5-2 3-6 14q-5 14-16 33-10 20-19 33l-1 2-1-2-16-34-38-81-54-114-5 1q-25 3-46 12l-15 7-9 6 1 1h5l1-2 1-2h2l4-1 4-1 5-3 5 11 58 120 57 119 2 5-1 1q-2 1-2 5v3h3q3 0 5-2 2-1 2-3l1-1 17-20q15-18 15-20v-1h2v-3h2v-3h2v-3h2v-3h2v-3h1l1-1 1-1 2-4 1-1v-4l1-1q2 0 2-3v-3l2-1 6-8 4-12 1-3 2-1 1-4v-1l1-2 2-1v-4l1-1 1-1 1-3 1-4 1-2 1-3z"/>
    <path id="v" fill="#772F27" d="M1148 676h1l1-1 1-2h1l2-1v-5l-4 3-9 7-4 4h4l3-1 1-2 1-1 2-1m-23 21 3-1v-6l-4 4-12 16-16 26-13 23 1 1h2l2-1v-5l2-1 2-1v-5l2-1h2v-2q0-3 2-3t1-3v-3l2-1 2-1v-5l2-1h2v-2q0-3 2-3t1-2 2-3h1v-2l1-1h1v-2l1-1 1-1v-2l2-1 1-1v-2l2-1 1-3v-2l3-1m262 81-2 5h3l2-2 1-5q0-4-1-3-2 1-3 5m13-31v-4l-1-1-5 13-4 14 2 1q3 0 3-7v-2l1-1 1-1v-5l1-1 2-6m-2 16-2 1v4l1 4q2 1 2-2 2-7-1-7z"/>
    <path id="w" fill="#912921" d="m1059 1628 2 4 4-2 4-3q1-1-2-1h-1v-3l-8 4-6 4 1 1h5l1-2v-2m396 0q-3-2-7-2t-3 1q1 2 6 4l7 3v-2q0-2-3-4m-32-10 3 1v-2l-1-3h-3l-3-1-4-2-3-1q0-2-3-2h-1l-1-1-1-1h-3l-1-1-1-1h-3l-1-1-1-1h-3l-1-1-2-1-3-1q-7 0-4 2l19 8 21 9m8 0-3 1 4 3 4 2 1-2q1-4-6-4m130 72 3 2 1-2-1-2-3-1-3 1 3 2m15 5-3-1-3 1 3 2 3 2 1-2-1-2m-50-25 3 2 1-2-1-2-3-1-3 1 3 2m-12-7 3 2 3 2 1-2-1-2-3-1-3 1m-6-6-3 1 3 2 3 2 1-2-1-2-3-1m-26-13q0-2-3-4t-7-2l-3 1 6 4 6 3 1-2m13 9 3 2 1-2-1-2-3-1-3 1 3 2m47 26 3 2 1-2-1-2-3-1-3 1 3 2m203 102h-2l-1 2 1 2 4-1q2 0 2-2l-4-1m-43-6 3 2 1-2-1-2-3-1-3 1 3 2m16 6-3-1-3 1 3 2 3 2 1-2-1-2m-29-14 3 2 1-2-1-2-3-1-3 1 3 2m-21-13 2 1 3 3 6 3 1-2-1-2-2-1-2-1-4-2-3 1m-9-9-2-1-4-2-3 1 2 1 3 3 6 3 1-2-1-2-2-1m-21-13-2-1-2-1-3-2-2-1-3-2-2-1-3-2-2-1-3-2-2-1-3-2q-7-5-2-1t-3-2-2-1-3-2-2-1-3-2-2-1q0-2-4-2t-3 1l25 16 18 11 8 4 1-2-1-2m227-31 1 3 3-4 2-4-2-1-3 1-1 5m9-11 2-4-2-1q-4 0-4 6l1 3 3-4m-82 79v1h3l5-3 3-2-3-1-6 1q-2 1-2 4m-4 4q5-3-2-3h-2l-1 1-2 1-7 2-5 2-1 1h-1l-7 1q-3 1-2 2 0 2 2 2l11-3 17-6m30-21-1 2v3l3-2 3-3q1-1-2-1l-3 1m35-28v-2h-2l-3 1v5l-3 1q-3 0-7 5-5 4-5 7v3l3-2 8-8 9-10m22-45 1 3 3-4v-2l-2-1-2 1v3m6-16-2 1v3l1 3q2 1 2-2l1-4-2-1m4-22-1 4-1 6 1 2q2 0 2-3l2-8q0-2-2-2l-1 1m0-35v3l2 1 2-1-1-5q0-3-2-2l-1 4m-1252 93 3 6 3 4 1 1 1-3-1-4q-2 0-2-2v-2l-2-1h-2l-1 1m-15-43-1 1 3 12 6 14 3 6 1-3-1-4q-2 0-2-5l-1-3-1-2-1-1v-3l-2-5-1-1v-5l-2-1h-1m-1-20-2-2-2 1 1 7 2 9q0 3 2 3l1-2-1-10-2-6m-4-19 1 1h1l2-1v-2l-1-4-2 2-1 4m180 151q0 3 1 2l3-3 2-3h-3l-3 1v3m-31 13-4-1-7-1q-2 0-2 2l4 2 5 1h4l1-2-1-1m-21-1 4 1 1-2-1-2h-3l-3 1q-1 2 2 2m-8-2 4 1 1-2-1-2h-3l-3 1q-1 2 2 2m-19-10-3 1 6 4 6 2v-4l-2-1h-2l-1-1-1-1h-3m-24-10 3 3 6 3 1-2v-2l-2-1-3-1-3-2-4 1 2 1m-11-11-4 1 5 4 6 4v-5l-2-1h-1l-1-1q0-2-3-2m-28-24v-3l-1-4-2-1v-1l-1-2h-4v1l4 6 4 4m5 4q-2 1-1 2l7 7 7 7q2 1 2-1 1-6-6-6h-2l-1-3q0-6-6-6m158 15q0 3 1 2l3-3 2-3h-3l-3 1v3m30-35h-2l-2 1-1 2v2h-2l-2 1v4h-2l-2 1v4h-2l-2 1v4h-2l-2 1v6l9-10 12-16v-1m20-26h-2l-2 1v4h-2l-2 1v4h-2l-2 1v4h-2l-2 1v6l12-14 17-22v-1h-2l-2 1-1 2v2h-2l-2 1v4h-2l-2 1v4m42-50v-1h-2l-2 1-1 2v2h-2l-2 1v4h-2l-2 1v4h-2l-2 1v4h-2l-2 1v6l9-10 12-16m83 37h1l4-2 4-3-4 1-4 3-1 1m-13 7 5-2 1-1 1-1-4 2-3 2m33-18h1l10-5 10-6 1-1h1l12-4q10-4 9-6l-1-1h-2q-3 0-22 11l-13 8-6 3v1m65-31 3-1 4-3-3-1-3 1-1 2v2m47-20 3-2-3-1h-3l-1 1-1 1h-3l-1 1-1 1h-3l-1 1-1 1h-3l-1 1-1 1h-2q-2 0-2 2t-4 1h-2l-1-2-1-2-3 2-3 2 3 1h3l1 1-1 1h-3l-2 1-1 2v1h2l36-15m-170-36-1 2v2h-2l-2 1v4h-2l-2 1v4h-2l-2 1v4h-2l-2 1v4h-2l-2 1v4h-2l-2 1v4h-2l-2 1v4h-2l-2 1v4h-2l-2 1v6l18-21 23-30v-1h-2l-2 1z"/>
    <path id="x" fill="#912921" d="M1323 1538v7l22 1 25 2 7-1 11-2 93-17q53-9 62-9h2l1-2v-1l-1-1-29 4-44 7-28 4-65-4 8-3 21-6 11-3 3-2-1-1h-4l-6 2-1 1h-2l-24 6-43 13-18 5m20 51q2 0 2-2l-1-1-4-2q-10-2-10 0l2 2 4 1 7 2m8 2 4 1 1-2-1-2h-3l-3 1q-1 2 2 2m30 10v-2l-1-3-7-2q-14-5-14-2l3 2 8 3 11 4m-767-6 1 1h1l2-1v-2l-1-4-2 2-1 4m491 6 1 1h5l1-2v-2l-1-1-3 2-3 2m19 2v2l5-2q4-1 5-3l-3-1-5 1q-2 1-2 3m11-16v-3l-8 4-6 4 1 1h5l1-2 1-2h5l1-2m26 6 7-3q1-2-4-2h-2l-1 1-1 1h-2q-7 0-7 3l1 2 8-2m19-5 4-2q1-1-2-2l-7 1q-3 1-2 2l1 2 6-1m52-11 1 2 4-1q2 0 2-2l-3-1h-3l-1 2m-2-46 1 1h5l1-2 1-2h5l1-2 1-2h5l1-2v-3l-11 6-10 6m44-22v-3l-11 6-10 6 1 1h5l1-2 1-2h5l1-2 1-2h5l1-2m-73 72 1 2h3l7-2 2-2-2-1-6 1-4 1-1 1m-8 2-3-1h-3l-1 2 1 2 4-1q3 0 2-2m5-33-1-1-3 2-3 2 1 1h5l1-2v-2m-31 21 1-2v-2l-1-1-3 2-3 2 1 1h5m-22 8 1 1h5l1-2 1-2h5l1-2-1-3-7 4-6 4m-178-27v3l7-8 10-13v-1h-4l-1 3v1l-2 1-2 1v3l-2 1-2 1v3l-2 1-2 1v3m-342 9-4 7-2 8q0 2 2 2l2-1v-5l1-1 1-2 1-3v-4l-1-1m10-23-5 8-5 12v2h1l3-1v-2l1-4 2-1 2-3 2-7-1-4m13-17v-3l2-1 2-1v-5l-1-1-6 10-6 11h2l3-1v-5l2-1 2-1v-2m1173 24v2l1 2h2v1l1 1h2l1 2 1 1h1l1 1 1 1 2 2 2 1q3 0 3 2l2 3 3 4 9 10q2 4 4 4l14 2 11 1 2 8 2 6 1 2h1l1-1-4-20q-4-17-6-18l-19-2-16-1-6-3-9-7-7-5-1 1m-4-1 3-1-4-3-4-2-1 2 1 3 5 1m41-23-1-1v2l3 3 4 5-2-4-4-5m-10-15v5l2 1q2 0 2 2v2l1 2 3 1h1l-4-8-4-6-1 1m-119 11 10 1 3-1-2-2-10-2-7-1-1 2 1 2 6 1m-23-7-1 2 1 2h2l4-1q0-2-2-2l-4-1m40 8 1 2h2l4-1q0-2-2-2l-4-1-1 2m13 1-3-1-1 2 1 2 4 1 7 1h2l1 1 8 3 10 3h1l1 1 1 1h3l2 2 5 1 3-1q-1-2-18-8-18-7-27-8m-66-8 1 2h2l4-1q0-2-2-2l-4-1-1 2m-122 5h3l1-2v-1l-1-1-4 1-2 2 3 1m-16-2-5 1-1 1-1 1 4 1h3l1-2-1-2m4 0-1 1-1 1 4 1h3l1-2-1-2-5 1m23 1h3l1-2v-1l-1-1-4 1-2 2 3 1m16-5-4 1-2 2 3 1h3l1-2v-1l-1-1m16 0-1-1-4 1-2 2 3 1h3l1-2v-1m-285 73-3-2-7-1q-3 0-2 2l4 2 7 1 1-2m-31-5-1-2h-3l-3 1q-1 2 2 2l4 1 1-2m3 2 4 1 1-2-1-2h-3l-3 1q-1 2 2 2m20-38-3-1-3 1v6h6l1-3-1-3z"/>
    <path id="y" fill="#912921" d="m1405 1139-10 9h3q3 0 5-2t2-5l-1-2m-376 339v-1h-4l-1 3v1l-2 1-2 1v3l-2 1-2 1v3l-2 1-2 1v3l-2 1-2 1v3l-2 1-2 1v6l10-12 15-19m29-36v-1h-2l-2 1-1 2v2h-2l-2 1v4h-2l-2 1v4h-2l-2 1v6l7-8 10-13m25-32h-2l-2 1-1 2v2h-2l-2 1v4h-2l-2 1v6l5-6 8-10v-1m30-42v4h-2l-2 1v5h-3l-1 1-1 2v2h-2l-2 1v5h-3l-1 1-1 2v2h-2l-2 1v4h-2l-2 1v5l2-1 17-21 13-16 3-5-5-1-3-1-1 2q0 2 2 2l3 2-2 1-3 1m-15-10q0 2 2 2 7 2 9 0 2-1-4-3l-6-1-1 2m-71-19q0 2 2 2 7 2 9 0 2-1-4-3l-6-1-1 2m16 2-1 1v1l2 2 7 1h1l1 1 5 2 8 1h1l1 1 5 2 8 1h1l1 1 1 1h1l7 1 2-1q0-2-25-8l-26-7m-44-8q7 2 9 0 2-1-4-3l-6-1-1 2q0 2 2 2m14 0-1 2q0 2 2 2 7 2 9 0 2-1-4-3l-6-1m-26-7-1 2 1 2h3l3-1q1-2-2-2l-4-1m-4-95v3l3-2 5-5 3-3h-3l-6 2q-2 2-2 5m22-24q-2 2-2 5v3l3-2 5-5 3-3h-3l-6 2m-342 290v-5l2-1 2-1v-5l-1-1-6 10-6 11h2l3-1v-5l2-1 2-1m15-28v-3l-1-1-4 6-4 8h2l3-1v-5l2-1 2-1v-2m10-24-4 8h2l3-1v-5l2-1 2-1v-5l-1-1-4 6m19-32-6 10-6 11h2l3-1v-5l2-1 2-1v-5l2-1 2-1v-5l-1-1m14-19 2-1v-5l-1-1-6 10-6 11h2l3-1v-5l2-1 2-1v-5l2-1m28-46v-5l-1-1-4 6-4 8h2l3-1v-5l2-1 2-1m11-24 2-1 2-1v-5l-1-1-6 10-6 11h2l3-1v-5l2-1 2-1v-5m15-26 2-1 2-1v-5l-1-1-6 10-6 11h2l3-1v-5l2-1 2-1v-5m-50 84h2l3-1v-5l2-1 2-1v-5l-1-1-4 6-4 8m65-110-1-1-4 6-4 8h2l3-1v-5l2-1 2-1v-5m15-23v-3l-1-1-4 6-4 8h2l3-1v-5l2-1 2-1v-2m117 61q2-1-4-3l-6-1-1 2q0 2 2 2 7 2 9 0m15 4q2-1-4-3l-6-1-1 2q0 2 2 2 7 2 9 0m35 8-1 2q0 2 2 2 7 2 9 0 2-1-4-3l-6-1m-21-3 1 1 1 1 3 1 8 1 3-1q0-2-12-5l-12-3q-2 0-2 2l2 2 7 1h1m-131-99-1-1-6 10-6 11h3l2-1v-5l2-1 2-1v-5l2-1 2-1v-5m15-26-1-1-6 10-6 11h3l2-1v-5l2-1 2-1v-5l2-1 2-1v-5m110 73v3l3-2 3-3q1-1-2-1l-3 1-1 2m20-22-1 4v3l3-2 4-4 2-2h-3l-5 1m-35 40q1-1-2-1l-3 1-1 2v3l3-2 3-3m-82-116h3l2-1v-5l2-1 2-1v-5l2-1 2-1v-5l-1-1-6 10-6 11m-2 6-1-1-4 6-4 8h3l2-1v-5l2-1 2-1v-5m22-38 2-1 2-1v-5l2-1 2-1v-5l-1-1-6 10-6 11h3l2-1v-5m18-34-4 6-4 8h2l3-1v-5l2-1 2-1v-5l-1-1m12-15v-3l2-1 2-1v-5l-1-1-4 6-4 8h2l3-1v-2m15-26v-3l2-1 2-1v-5l-1-1-6 10-6 11h2l3-1v-5l2-1 2-1v-2m19-36-1-1-6 10-6 11h2l3-1v-5l2-1 2-1v-5l2-1 2-1v-5m7-12 2-1 2-1v-5l-1-1-4 6-4 8h2l3-1v-5m15-26 2-1 2-1v-5l-1-1-4 6-4 8h2l3-1v-5m18-34-6 10-6 11h2l3-1v-5l2-1 2-1v-5l2-1 2-1v-5l-1-1m286 74 2-4-1-1-4 1-1 4v4l4-4m-175 111h-3q-3 0-6 3t-3 5v3l3-2 6-5 3-4m34-39q-7 7-7 9v3l3-2 13-12 10-11 11 14 15 19 3 4 15-15 60-62 10-12q2-2 0-2l-6 2q-2 2-2 6v3h-3l-2 1-3 1-1 1-1 1-4-5-7-9-8-11-2-5v-3l-3-1h-3l-6 6-48 46-34 34m-69 69v3l3-2 6-5 3-4h-3q-3 0-6 3t-3 5m-15 18 3-3h-3l-6 2q-2 2-2 5v3l3-2 5-5m-49-248v-3l2-1 2-1v-5l-1-1-6 10-6 11h3l2-1v-5l2-1 2-1v-2m15-24v-5l-1-1-4 6-4 8h3l2-1v-5l2-1 2-1m26-50 2-1 2-1v-5l-1-1-6 10-6 11h3l2-1v-5l2-1 2-1v-5m-15 26 2-1 2-1v-5l-1-1-6 10-6 11h3l2-1v-5l2-1 2-1v-5m30-52-1-1-4 6-4 8h3l2-1v-5l2-1 2-1v-5m15-23v-3l-1-1-4 6-4 8h3l2-1v-5l2-1 2-1v-2m15-26v-3l-1-1-6 10-6 11h3l2-1v-5l2-1 2-1v-5l2-1 2-1v-2m15-26v-3l-1-1-6 10-6 11h3l2-1v-5l2-1 2-1v-5l2-1 2-1v-2m11-22-1-1-4 6-4 8h3l2-1v-5l2-1 2-1v-5m11-19-1-1-2 3-2 3 1 1h2l2-1v-5m9-13 3-1v-3l-1-2-3 3-2 3h3m15-18v-4l-4 4-6 7-2 3h6v-3l1-2 2-1 2-1 1-3m685 801v-4l-2-1h-2l-1-1-1-1h-3l-3 1 6 4 6 2m21 12 5 3v-3l-1-3h-2v-1l-1-1h-2l-4 1 5 4m-3-26-1 1v5l2 1 2 1v5l3 1h2l-4-8-4-6m-15-26-1 1v5l2 1 2 1v5l2 1 2 1v5l3 1h2l-6-11-6-10m-15-26-1 1v5l2 1 2 1v5l2 1 2 1v5l3 1h2l-6-11-6-10m-11-19-1 1v5l2 1 2 1v5l3 1h2l-4-8-4-6m-139 64 1 2 4-1q3 0 2-2l-3-1h-3l-1 2m99 4 4 1 1-2-1-2h-2l-4 1q-1 2 2 2m26 2-1 1q0 2 7 4l9 2q2 0 2-2l-1-2h-5l-1-1-6-2h-4m-43-4 4 1 1-2-1-2h-2l-4 1q-1 2 2 2m42-92-1 1v5l2 1 2 1v5l2 1 2 1v5l3 1h2l-6-11-6-10m-16-25v5l2 1 2 1v5l2 1 2 1v5l3 1h2l-6-11-6-10-1 1m-9-13 2 1v5l3 1h2l-4-8-4-6-1 1v5l2 1m-10-19h2l-4-8-4-6-1 1v5l2 1 2 1v5l3 1m-62-111-1 1v5l2 1 2 1v5l3 1h2l-4-8-4-6m-15-26-1 1v5l2 1 2 1v5l2 1 2 1v5l3 1h2l-6-11-6-10m56 97-1 1v5l2 1 2 1v5l2 1 2 1v5l3 1h2l-6-11-6-10m-19-29h2l-6-11-6-10-1 1v5l2 1 2 1v5l2 1 2 1v5l3 1m4 3-1 1v5l2 1 2 1v5l2 1 2 1v5l3 1h2l-6-11-6-10m-216 235-12 2-8 2-2 2 1 2 12-2 11-3h1v-1q0-2-3-2m41-7 1 2h3l7-2 2-2-2-1-6 1-4 1-1 1m-22 7 13-3v-1l-3-2-13 2-9 2-2 2q0 2 2 2l12-2m107-21-1 2 1 2 4-1q3 0 2-2l-3-1h-3m-19 4 1 2 4-1q3 0 2-2l-3-1h-3l-1 2m-8 1 1 2 4-1q3 0 2-2l-3-1h-3l-1 2m-134 25 1 2 6-1 4-2q1-1-2-2l-7 1q-3 1-2 2m-25 6 1 2 6-1 4-2q1-1-2-2l-7 1q-3 1-2 2m-123-19h2l1-2v-3l-15 8-13 8 1 1h5l1-2 1-2h5l1-2 1-2h5l1-2 1-2h3m96-55v-3l-46 26-45 26 1 1h5l1-2 1-2h5l1-2 1-2h5l1-2 1-2h5l1-2 1-2h5l1-2 1-2h5l1-2 1-2h5l1-2 1-2h5l1-2 1-2h5l1-2 1-2h5l1-2 1-2h5l1-2 1-2h5l1-2 1-2h5l1-2m52-32-1-1-16 9-16 10 1 1h5l1-2 1-2h3l3-1 3-2h1l1-2 1-2h5l1-2 1-2h5l1-2v-2m-71-206-4-1-5-1-9-5-8-5-4 3-2 3-1 1 6 2 15 4 22 6h2v-2l-2-2-7-1h-1l-1-1-1-1m20 10 6 1 1-2-2-2-7-1q-2 0-2 2l4 2m22 3-2-2-7-1q-2 0-2 2l4 2 6 1 1-2m101 103-28 18 19 11 19 11-16 10-39 23-22 13 4 1h2l1-2 1-2h3l3-1 3-2h1l1-2 1-2h5l1-2 1-2h3l3-1 3-2 2-1 1-2h1l4-1 1-2 1-1h2l2-1 3-2h1l1-2 1-2h5l1-1 1-1h2l1-1 1-1 1-2h2l2-1 1-2h4l1-1 3-2 25-15 25-14v-4q0-3-2-4l-15-9-15-9-2-4v-2l-1-1-29 19m5-76-7-1q-2 0-2 2l4 2 6 1 1-2-2-2m-24-3 4 2 6 1 1-2-2-2-7-1q-2 0-2 2m-4-3-2-2-6-1h-2l-1-1-6-2h-3l-2-1-5-2-8-1h-1l-1-1-5-2-8-1h-1l-1-1-5-2-8-1h-1l-1-1-1-1h-2l-4 1q0 2 16 6l36 10 19 5h3v-2m94 36-6 4 1 1h5l1-1v-1h3v-2h2l1-2-1-3-6 4m-14-16h-4l-1 1q0 2 9 4l11 3q2 0 2-2l-2-2-6-1h-2l-1-1-6-2m-10 36q0-2 3-2h1l1-2 1-2h4l1-1v-1h2l1-2v-2l-1-1-15 9-14 10 1 1h5l1-1v-1h3v-2h3v-2h3v-1m-30-47h-2l-4 1q-1 2 2 2l4 1 1-2-1-2m9 7 6 1 1-2-2-2-7-1q-2 0-2 2l4 2m15 4 6 1 1-2-2-2-7-1q-2 0-2 2l4 2m42-153 2 1v5l2 1 2 1v5l3 1h2l-6-11-6-10-1 1v5l2 1m-81-38-2 2 4 1h2l1-2v-1l-1-1-4 1m-35 13 3 1 5-1 1-1v-4l-5 2-3 2-1 1m-19 10 1 1h5l1-2 1-2h2l5-1 1-3v-1l-1-1-8 4-7 5m122-5 2 1 2 1v5l3 1h2l-3-7-4-6h-2v5m-184 53-4 4h3l4-1 1-4-1-1-3 2m26-18 1-2h3l1-2 1-2h2l2-1v-5l-3 2-15 13-13 11h4l3-1 1-3 1-2 3-1h2l1-2 1-3h4l1-2m13-14v1h5l1-2 1-3h5l1-1v-1h3v-2h3v-2h2l1-2v-2l-1-1-11 7-10 8m-80 75v-2q-1-1-2 1l-3 1-1 3q-2 1-1 2h4l2-1 1-2v-2m-36-246h-3q-3 0-3 2v1h-1l-1 1v5l-2 1-3 1v5l-2 1h-2l-1 2v1l-1 1-2 1v2l-1 1-2 1v2l-1 1q-2 0-2 3v1l-2 1q-2 0-2 2v1l-1 1q-2 0-2 3v1l-2 1-2 1v3l-2 1-2 1v3l-2 1-2 1v4l-2 1-3 1v4l-2 1-3 1v4l-3 1-2 1-1 3-1 2-2 1-2 1-1 3-1 3-2 1-3 1-1 4v4l4-4 33-41q20-24 33-43l5-7m10-18h-1q-3 0-3 2v1h-1l-1 1v3l1 3 3-4 3-5-1-1m10-20-2 1v5l-2 1-2 1v5l1 1 7-11 6-11-1-1h-1l-3 1-1 5v2l-2 1m-23 0v-2l2-1 1-1v-2l2-1 1-1v-2l2-1 1-3v-3l3-1 2-1v-2h2v-3h2v-3h1l1-1v-5l-1-1-8 11-15 20-15 19-5 6-3-7-62-130-60-123-4 1-8 4q-9 4-17 10l-15 12-5 4h4l3-1 1-2 1-1 2-1h1l2-2 5 9 16 33 19 38 8 12q8 8 14 18t9 21l4 14 2 11 22 47 28 58q1 2-1 4l-9 10-9 10-2 5 1 3h2l4-1 7-7 31-32 7-8 1-2 3-3q4-3 4-6 0-2 2-2l3-1 1-4q0-2 2-2l2-1v-1l1-2 1-1q3 0 3-3l1-1 1-1 1-1m43-70v-3l-1-3-3 4v3h2l2-1m-12 21 2-1v-5l-1-1-6 10-6 11h5v-4l1-1q3 0 3-6v-2l2-1m14 4 1 3 3-4 1-3h-2l-3 1v3m14-32-2-1-2 1v3l1 3q2 1 2-2l1-4m-14-1 2-1v-3l-1-3-3 4v3h2m4-18v3h2l2-1v-3l-1-3-3 4m10 6 1 3q2 1 2-2l1-4-2-1-2 1v3m250 354v2l3 1h2l-4-8-4-6-1 1v5l2 1 2 1v3m8 8-1 1v5l2 1 2 1v5l2 1 2 1v5l3 1h2l-6-11-6-10m-22-39-4-6-1 1v5l2 1 2 1v5l3 1h2l-4-8m-231-343-1 1-1 4-1 6q0 2 2 2l1-3 2-8q0-2-2-2m-11 4-2 5h2q2 0 3-2l1-5-1-3q-2 1-3 5m4-14-1 6 2 1 2-2 1-6-1-2-3 3m9-16q0-5-1-4-2 1-3 6l-2 7 1 1h1l2-1v-5l1-1 1-1v-2m2-14v-5l-1 4-2 5v2h2l1-1v-5z"/>
    <path id="z" fill="#A52422" d="m648 1722 6 7v-7l-3-1-3 1m924-28-1-3h-2l-4 1 3 2 3 2 1-2m10 9 6 3 1-2v-2l-2-1-3-1-3-2-4 1 2 1 3 3m-60-39-3-1-3 1 3 2 3 2 1-2-1-3m10 7-1-2h-5l-1 1 2 1 4 3 7 4 1-1v-1l-1-3h-5l-1-2m-25-11 3 2 3 2 1-2-1-3h-3l-3 1m-25-13 5 3 1-2-2-4-6-1-3 1 5 3m15 5q-6 0 1 4l4 2 1-2-1-3-5-1m56 31-1-2h-5l-1 1 2 1 4 3 7 4 1-1v-1l-1-3h-5l-1-2m177 102q0 3 7 1 3 0 2-2l-5-1h-3l-1 2m30-4-2-1-9 1-7 2-1 1 1 2h3l12-3 3-2m-49-3q0-2-4-2t-3 1l2 1 3 3 6 3 1-2-1-2-2-1-2-1m-27-18h-3l-3 1 3 2 3 2 1-2-1-3m7 9 2 1 3 3 6 3 1-2-1-2-2-1-2-1-4-2-3 1m-29-18 3 3 6 3 1-2-1-2-2-1-2-1-4-2-3 1 2 1m-18-14q0-2-4-2t-3 1l2 1 3 3 6 3 1-2-1-2-2-1-2-1m228-47-4 2-1 6v2l1 1 2-3 3-5v-3h-1m-69 74v1l1 1 6-3 5-4-4-1q-4 0-3 2l-3 1-2 1v2m18-14v5l3-2 6-5 3-3h-6l-1 2-1 2h-2l-2 1m41-43 1 3 2-3 2-3-3-1-2 1v3m15-26h-2l-2 1v3l1 3 3-4v-3m9-28-2-1-2 1v3l1 3q2 1 2-2l1-4m1-8 1-4-2-1-2 1v3l1 3q2 1 2-2m-1245 62h-2l-2 1 3 5 3 5 1-4v-3l-1-1h-1v-2l-1-1m-8-6 2 3 1-3v-3l-3-1-2 1 2 3m-12-26 2 2 1-3v-3l-2-1-2 1 1 4m-7-27 1 6 2 5q2 1 2-2l-1-7-2-3-2 1m2-14-2-1-2 1 1 5q0 3 2 2l1-4v-3m179 130q0 3 1 2l3-3 2-3h-3l-3 1v3m-12 17h-4l-1 2 1 1 1 1 1-1 2-1v-2m-22 0h-3l-3 1q-1 2 2 2l4 1 1-2-1-2m-16-2-3 1q-1 2 2 2l4 1 1-2-1-2h-3m-9-2-3 1q-1 2 2 2l4 1 1-2-1-2h-3m-26-5 4 1v-2l-1-3h-3l-3 1 3 3m-23-18-1-1h-3l-4 1 5 3 5 3 1-2v-2l-1-1h-2v-1m-13-10h-7l4 3 4 3v-3l-1-3m142-6q0 3 1 2l3-3 2-3h-3l-3 1v3m25-34v7l3-4 5-6 2-3h-5l-1 3v1l-2 1-2 1m40-47h-2l-1 3v1l-2 1-2 1v7l3-4 5-6 2-3h-3m97 17 24-13 12-6q2-2 0-2l-23 13-24 13 11-5m77-40-1-1h-2q-1-1-5 1l-14 8-12 7-5 3v1h1l4-1 2-2 1-1h1l2-1 2-1 2-1 1-1 4-1 1-2 3-1h3l1-2 1-2 1 1 5-1q5-2 4-3z"/>
    <path id="A" fill="#A52422" d="m1345 1534-3-1-6 1q-4 1-4 3l-1 2h-4l-6 1-7 1-26 9-15 6-1 1h-1l-5 1-3 2-1 3v3h3l6-1 4-2 5-2 8-1h31l26-5 60-13 50-10 9-1 2-2-1-2-3 1-29 5-38 7-24 5-46-3 10-3 7-3 3-2m-1 55 4 1 1-2-1-2h-3l-3 1q-1 2 2 2m100 39 6 2v-2l-2-4-6-1-3 1 5 4m-20-10v-2l-1-2-3-1-3-1-1-2h-3q-4 0-3 1 1 2 7 4l7 3m9 2-1-2-2-1-4 1 3 3 4 1v-2m454 9-2 1v4l1 4q2 1 2-2 2-7-1-7m-1-25-1 4v2l2 1 2-1-1-4q0-2-2-2m-1274 19 1 2 1 1 2-1v-11l-2-2-2 4v7m313-17v-1h-2l-2 1-1 2v2h-2l-2 1v4h-2l-2 1v4h-2l-2 1v4h-2l-2 1v6l9-10 12-16m196-11-1-3-33 19-33 19 1 1h5l1-2v-1l1-1 2 1v1l1 1 2-1 4-3-1-1h-2v-1l3-1 4 1h4l3-3-1-1h-6l5-1q4-1 4 1h2l5-2q6-2 7-4l-3-1h-3l-1-1q0-2 4-2h2l1-2 1-1 2-1q6 0 6-3l1-2h5l1-2 1-2h5l1-2m-36 19h5l1 1-1 1h-5l-1-1 1-1m83-26 1 2 4-1q2 0 2-2l-3-1h-3l-1 2m113-10h1l4 1h2l1-2-1-2h-3l-5 1 1 2m-36-2q0 2 2 2h24q2 0 2-2l-2-2h-24l-2 2m-15-1-1 2 1 2 5-1q3 0 2-2l-4-1h-3m-10 3 1 2 4-1q2 0 2-2l-3-1h-3l-1 2m9-44v-3l-8 4-6 4 1 1h5l1-2 1-2h5l1-2m-24 46 1 2h3l8-2q2 0 2-2l-1-1h-4l-7 1q-2 0-2 2m-13 1-3 2 1 2 6-1 5-2q1-2-2-2l-7 1m-8 2h-3l-1 2 1 2 4-1q2 0 2-2l-3-1m23-38h5l1-2v-3l-8 4-6 4 1 1h5l1-2 1-2m-37 23 1-1q5 0 5-3l1-2h5l1-2 1-2h5l1-2v-3l-15 8-13 8 1 1h2l4-1 1-1m-24 10 1 1h5l1-2 1-2h5l1-2v-3l-8 4-6 4m-3 6 1-2v-3l-11 6-10 6 1 1h5l1-2 1-2h5l1-2 1-2h5m-124-95v-1h-2l-2 1-1 2v2h-2l-2 1v4h-2l-2 1v4h-2l-2 1v4h-2l-2 1v4h-2l-2 1v4h-2l-2 1v4h-2l-2 1v4h-2l-2 1v6l16-19 21-27m-53 66v-1h-2l-2 1-1 2v2h-2l-2 1v4h-2l-2 1v6l5-6 8-10m-345 22q0-3-2-2l-2 4-2 13-2 12 1 1h1l2-1v-2l2-13 2-12m8-23-1-3-3 4-1 3h3l2-1v-3m10-22-1-1-2 3-2 3 1 1h2l2-1v-5m1211 37-5-6-1 3 1 4q1 2 3 2l2 1v2q0 2 2 2l1 1v1l1 2 7 13 4 5 4 1 12 1h7l-1-4-1-9-2-6-6-1-13-1h-5l-3-2-7-9m-59-40-5-2v3l1 2h3l1 1 1 1h2l4 1q0 2 6 4 5 3 8 3h2l1 2v1l2 1h1v2h3v2h3v1l1 1h1l1 1 1 1 3 1 2 1 1 2 1 2h7l-5-4q-8-7-21-15l-25-12m-459 53h-2l-4 1q-1 2 2 2l4 1 1-2-1-2m-34-4-1-2h-2l-4 1q-1 2 2 2l4 1 1-2m12 0-9-1q-2 0-2 2l1 1 2 1 8 1 7 1 1-2-1-1-7-2z"/>
    <path id="B" fill="#A52422" d="M1314 954h-2l-1 2v1l-2 1-1 3v1l-2 1q-2 0-2 2v1l-2 1-1 3v1l-2 1-2 1v3l-2 1-2 1v2q0 3-3 1t-10-11l-9-11 10-9 7-8q2-2 2-5v-3l-8 7-4 4 4-4-27-55-21-45-5-15q-2-14-9-30t-16-27l-6-6v3l1 4q1 2 3 2h1v2l3 5 4 6 5 11 6 14 4 19 1 23v19l-2 14-3 13v8l2 8 5 12 21 43-29 28-24 24q-5 6-5 8v2l13-11 27 35 14-15 37-42 32-40 3-4h-3m-41-3-7 7-8 8 1-1 7-7 7-7m-21 570-1-3-7 4-6 4 1 1h5l1-2 1-2h5l1-2m30-17-1-3-10 6-10 6 1 1h5l1-2 1-2h5l1-2 1-2h5l1-2m-209-88-1 3v1l-2 1-2 1v3l-2 1-2 1v3l-2 1-2 1v3l-2 1-2 1v4l-3 1-2 1v3l-2 1-2 1v3l-2 1-2 1v3l-2 1-2 1v3l-2 1-2 1v3l-2 1-2 1v3l-2 1-2 1v6l2-1 23-29 25-32v-1h-4m21-20v-1h-4l-1 3v1l-2 1-2 1v3l-2 1-2 1v6l5-6 8-10m-35-48q0 2 2 2 7 2 9 0 2-1-4-3l-6-1-1 2m17 6q7 2 9 0 2-1-4-3l-6-1-1 2q0 2 2 2m14 0-1 1v1l2 2 7 1h1l1 1 5 2 7 1 3 1 1 3-1 1h-2l-2 1v3l-2 1-2 1v4l-3 1-2 1v3l-2 1-2 1v6l11-12 12-15-2-2-13-4-16-4m-50-14-6-1-1 2q0 2 2 2 7 2 9 0 2-1-4-3m13 4-4-1-1 2 1 2h2l4-1q0-2-2-2m-60-12h2l4-1q0-2-2-2l-4-1-1 2 1 2m17 0-6-1-1 2q0 2 2 2 7 2 9 0 2-1-4-3m-33-6q0 2 2 2 7 2 9 0 2-1-4-3l-6-1-1 2m48 10-6-1-1 2q0 2 2 2 7 2 9 0 2-1-4-3m-38-110v3l3-2 5-4 2-3h-3q-3 0-5 2-2 1-2 4m28-23 3-3h-3l-6 2q-2 2-2 5v3l3-2 5-5m-346 280v-3l-1-1-6 10-6 11h3l2-1v-5l2-1 2-1v-5l2-1 2-1v-2m15-29-1-1-6 10-6 11h3l2-1v-5l2-1 2-1v-5l2-1 2-1v-5m11-19-1-1-4 6-4 8h3l2-1v-5l2-1 2-1v-5m15-26-1-1-4 6-4 8h3l2-1v-5l2-1 2-1v-5m30-49v-3l-1-1-6 10-6 11h3l2-1v-5l2-1 2-1v-5l2-1 2-1v-2m11-22-1-1-4 6-4 8h3l2-1v-5l2-1 2-1v-5m11-16v-3l2-1 2-1v-5l-1-1-4 6-4 8h3l2-1v-2m-37 64v-3l-1-1-6 10-6 11h3l2-1v-5l2-1 2-1v-5l2-1 2-1v-2m56-100-1-1-6 10-6 11h3l2-1v-5l2-1 2-1v-5l2-1 2-1v-5m15-26-1-1-6 10-6 11h3l2-1v-5l2-1 2-1v-5l2-1 2-1v-5m7-12 2-1 2-1v-5l-1-1-4 6-4 8h3l2-1v-5m108 54 3-3h-6l-2 1-1 4 1 4 4 1 3-1q0-2-2-2l-2-1 3-3m12 7-6-1-1 2q0 2 2 2 7 2 9 0 2-1-4-3m38 15 8 1 3-1-2-2-4-1-8-2-1 2 1 2 3 1m-18-5h1q10 2 9 0 0-2-10-4l-10-3q-2 0-2 2l2 2 7 1h1l1 1 1 1m-122-104-1-1-6 10-6 11h3l2-1v-5l2-1 2-1v-5l2-1 2-1v-5m9-13 2-1v-5l2-1 2-1v-5l-1-1-6 10-6 11h3l2-1v-5l2-1m124 58h-3q-3 0-5 2-2 1-2 4v3l3-2 5-4 2-3m13-18q-2 1-2 4v3l3-2 5-4 2-3h-3q-3 0-5 2m-42 39q-2 2-2 5v3l3-2 5-5 3-3h-3l-6 2m-65-131 2-1v-5l-1-1-4 6-4 8h3l2-1v-5l2-1m-13 25v-5l-1-1-4 6-4 8h3l2-1v-5l2-1 2-1m17-37h3l2-1v-5l2-1 2-1v-5l2-1 2-1v-5l-1-1-6 10-6 11m18-26 2-1v-5l2-1 2-1v-5l2-1 2-1v-5l-1-1-6 10-6 11h3m21-39-1-1-4 6-4 8h3l2-1v-5l2-1 2-1v-5m15-23v-3l-1-1-4 6-4 8h3l2-1v-5l2-1 2-1v-2m13-23 2-1v-5l-1-1-6 10-6 11h3l2-1v-5l2-1 2-1v-5l2-1m13-25 2-1 2-1v-5l-1-1-6 10-6 11h3l2-1v-5l2-1 2-1v-5m15-26-1-1-4 6-4 8h3l2-1v-5l2-1 2-1v-5m204 77q-3 1-9 7l-7 8-2 4v3l3-2 12-12 10-10h-3l-4 2m-111 110v3l3-2 3-3q1-1-2-1l-3 1-1 2m34-28 4-5h-3l-4 1-4 3-4 7v3l3-2 8-7m-55 52 3-3q1-1-2-1l-3 1-1 2v3l3-2m-59-231 2-1v-5l-1-1-6 10-6 11h3l2-1v-5l2-1 2-1v-5l2-1m17-29v-3l-1-1-6 10-6 11h3l2-1v-5l2-1 2-1v-5l2-1 2-1v-2m-345 592h3l2-1v-5l2-1 2-1v-5l-1-1-4 6-4 8m1213 5 3 3-2-4-3-4-1 1 3 4m-30-28-1-2-2-1q-3-2-7-2l-3 1 3 2 7 4 9 5 1-1v-1l-1-2-2-1h-3l-1-2m16 6-1 2h-3l-3 1 6 4 4 4 4 1h2l-6-11-6-10-1 1v5l2 1q2 0 2 2m-10-22-4-6-1 1v5l2 1 2 1v5l3 1h2l-4-8m-47 3 4 1 1-2-1-2h-2l-4 1q-1 2 2 2m14 1-2-1-4 1q0 2 3 3l4 1v-2l-1-2m20-26-6-10-1 1v5l2 1 2 1v5l2 1 2 1v5l3 1h2l-6-11m-21-36-1 1v5l2 1 2 1v5l2 1 2 1v5l3 1h2l-6-11-6-10m-12-13 2 1 2 1v5l3 1h2l-4-8-4-6-1 1v5m-86 103 1 2h3l4-1q1-1-2-2l-5-1-1 2m50 9 4-1q0-2-5-3l-21-4-16-2-2 1v1l1 2h6l19 3 14 3m13 2 1 2h3l3-1q1-2-2-2l-4-1-1 2m-136-12 2 1h13l1-2-1-2h-5l-8 1q-2 0-2 2m60 0 1 2h4l4-1q1-1-2-2-7-2-7 1m-20-3h-5l-1 2 1 2h13l2-1q0-2-2-2l-8-1m-31-37-1 2 1 2 4-1q3 0 2-2l-3-1h-3m-13 3 1 2 4-1q3 0 2-2l-3-1h-3l-1 2m132 2 4 2 7 1 6 1 1-2-1-2-6-1-9-1q-2 0-2 2m-14-3q-1 2 2 2l4 1 1-2-1-2h-2l-4 1m-20 0 4 1 1-2-1-2h-2l-4 1q-1 2 2 2m55-90-4-6-1 1v5l2 1 2 1v5l3 1h2l-4-8m-19-32-1 1v5l2 1 2 1v5l2 1 2 1v5l3 1h2l-6-11-6-10m-26-45-1 1v5l2 1 2 1v5l3 1h2l-4-8-4-6m17 29-6-10-1 1v5l2 1 2 1v5l2 1 2 1v5l3 1h2l-6-11m-54-90v5l3 1h2l-4-8-4-6-1 1v5l2 1 2 1m-9-13v2l3 1 2-1-2-3-2-3-1 4m-10-23-1 1v5l2 1 2 1v5l3 1h2l-4-8-4-6m41 71-1 1v5l2 1 2 1v5l3 1h2l-4-8-4-6m-15-26-1 1v5l2 1 2 1v5l2 1 2 1v5l3 1h2l-6-11-6-10m-131 262h3l1-2-1-2-5 1-1 1-1 1 4 1m-21-1-1 1-1 1 4 1h3l1-2-1-2-5 1m8 0-1 1 4 1h3l1-2-1-2-5 1-1 1m33-2 5 1h3l1-2q0-2-2-2l-5 1-2 2m-8 2h3l1-2q0-2-2-2l-5 1-2 2 5 1m32-5-2-1-5 1-2 2 1 1h8l1-2-1-1m-145 18 3 1 23-3 36-6 12-1 3-2v-1l-1-1-36 5-38 6-1 1-1 1m-8-27 1 2 4-1q3 0 2-2l-3-1h-3l-1 2m28-8-1 2 1 2 4-1q3 0 2-2l-3-1h-3m-10 6q3 0 2-2l-3-1h-3l-1 2 1 2 4-1m39-10 1 2 4-1q3 0 2-2l-3-1h-3l-1 2m86-15-1 2 1 2 4-1q3 0 2-2l-3-1h-3m-32 6 1 2h3l8-2q2 0 2-2l-1-1h-4l-7 1q-2 0-2 2m-19 3-3-1h-3l-1 2 1 2 4-1q3 0 2-2m-150 31-2 2 1 2 6-1 4-2q1-1-2-2l-7 1m28-4q1-2-2-2l-7 1q-3 1-2 2l1 2 6-1 4-2m7-5-2 2 1 2 10-2q8-2 8-4l-3-1-9 2-5 1m-131-16h2l1-2v-3l-15 8-13 8 1 1h5l1-2 1-2h5l1-2 1-2h5l1-2 1-2h3m42 42v2h3l23-7q22-6 22-8l-3-1h-3l-1 1-1 1h-5l-1 1-1 1h-5l-1 1-1 1h-5l-1 1-1 1h-4l-3 1-2 1-1 1h-2q-7 0-7 3m155-463 3 1h3l1-2v-2h-3l-2 2-2 1m16-5-1-1-4 1-2 2 4 1h2l1-2v-1m-45 18-5 4 4 1q4 0 3-1 0-2 3-2h2v-4l-1-1-6 3m129 5-1 1v5l2 1 2 1v5l2 1 2 1v5l3 1h2l-6-11-6-10m-65-24 1-2-1-2-4 1q-14 2-14 4l2 1 9-1 7-1m26-2-7-1-4-1-1 2 1 2h3l8 1 2-1-2-2m5 1q-2 0-2 2l1 2h4l1 1 1 1h3l1 1 1 1h2l3 1 1 2 4 1 1 1 1 1 1 1h1l2 1v2l1 2h2l2-1-2-4-8-6q-5-4-13-6l-8-3m-117 40h1l1-1 1-1 1-1 2-1v-5l-3 2q-14 10-35 29-21 18-44 41l-24 24 9 5 7 4 19 6 158 42 40 11 17 5-3 3-10 7-43 28 5 4 14 8 20 12-8 5-214 125-32 18-13 8 4 1h2l1-2 1-2h5l1-2 1-2h5l1-2 1-2h5l1-2 1-2h5l1-2 1-2h5l1-2 1-2h5l1-2 1-2h5l1-2 1-2h5l1-2 1-2h5l1-2 1-2h5l1-2 1-2h3l3-1 1-1 1-1 4-1 1-2 1-1h1l4-1 1-2 1-1h3l1-2 1-2h5l1-2 1-2h3l3-1 1-1 1-1 4-1 1-2 1-1h1l4-1 1-2 1-1h2l2-1 1-1 1-1 4-1 1-2 1-1h1l4-1 1-2 1-1h2l2-1 1-1 1-1 4-1 1-2 1-1h3l1-2 1-2h3l3-1 1-1 1-1 4-1 1-2 1-1h2l2-1 1-2h4l1-1 4-2 1-1 1-2 1-1h2l2-1 1-2h4l1-1 4-2 1-1 1-2 1-1h2l2-1 1-2h4l1-1 4-2 1-1 1-2 1-1h2l2-1 1-2h4l1-1 4-2 1-1 1-1v-1h3l1-1 4-2 1-1 1-1v-1h3l1-1 4-3 33-19 52-32 4-3 1-3-1-2-8-5q-8-6-56-33l-64-37-50-14-35-10-15-4 6-9 5-7 1-4q0-3-2-4l-15-9-14-9q-3-2-1-2l2-1 1-2 1-2 2-1h2l1-2 1-2h3l1-2 1-2h3l1-2 1-2h2l2-1 1-2h1m-124-166h-3l-3 1v5l-2 1h-2l-1 2v1l-1 1-2 1v7l3-4 7-9 4-6m331 248-1 1v5l2 1 2 1v5l2 1 2 1v5l3 1h2l-6-11-6-10m-15-26-1 1v5l2 1 2 1v5l2 1 2 1v5l3 1h2l-6-11-6-10m-15-26-1 1v5l2 1 2 1v5l2 1 2 1v5l3 1h2l-6-11-6-10m-11-19-1 1v5l2 1 2 1v5l3 1h2l-4-8-4-6z"/>
    <path id="C" fill="#A52422" d="m997 912 2-1 2-1v-5l-1-1-4 6-4 8h3l2-1v-5m34-59-1-1-6 10-6 11h3l2-1v-5l2-1 2-1v-5l2-1 2-1v-5m-19 36v-3l2-1 2-1v-5l-1-1-4 6-4 8h3l2-1v-2m34-62-1-1-6 10-6 11h3l2-1v-5l2-1 2-1v-5l2-1 2-1v-5m7-9v-3l2-1 2-1v-5l-1-1-4 6-4 8h3l2-1v-2m15-26v-3l2-1 2-1v-5l-1-1-4 6-4 8h3l2-1v-2m18-37-6 10-6 11h3l2-1v-5l2-1 2-1v-5l2-1 2-1v-5l-1-1m16-25-1-1-6 10-6 11h3l2-1v-5l2-1 2-1v-5l2-1 2-1v-5m12-14v-3h1l1-1v-5l3-1h1l1-2 2 2 5 10 7 14 8 2 20 10q10 5 18 12 10 7 12 7h2v-1l-7-14-15-32-22-45-9 8-9 8-8 8-13 18-8 12 1 1h4v-2q0-3 2-3h1v-3h2m224 209 5-8-2-1h-2l-1 2v1h-2v3h-2v3h-1l-1 1v3q0 3 1 2l5-6m5-13 1 3 3-4 3-5-1-1h-2q-2 0-2 2v1h-1l-1 1v3m8-13 1 3 2-3 2-3-3-1-2 1v3m-1-40 1 1h1l3-1v-5l-1-1-2 3-2 3m-19 32 1-1 2-1v-2l1-1 2-1v-2l1-1 2-1v-2l1-1h2v-2l1-1 1-1v-3q0-3-2-1l-7 10q-15 20-33 39l-10 11-1 2h3q2 0 5-3 3-2 3-5v-2l2-1q3 0 4-2l2-4 1-2 2-1 2-1 1-3 1-2 2-1h1l1-2v-2l2-1 2-1 1-2q0-3 2-3t2-2v-1m34-52-1-3-3 4-2 4q0 2 3 1 2 0 2-2l1-4m14 10q1-1-1-1l-3 1v3l-1 3q-3 0-3 6 0 4 1 3 2-1 4-6l3-9m2-12 1 3 3-4 1-2-2-1-3 1v3m14-35q0-2-2-2l-2 1-1 4-1 8v1l-1 1-1 1v3l1 3q2 0 4-10l3-10m-7-12q0-7-1-4l-7 13-6 16-2 4h2l3-1 1-5q0-3 2-3t1-2v-2l1-1 1-1v-3l1-1 1-1v-3l1-1 1-2 1-3m7 1-2 1v3l1 3q2 1 2-2l1-4-2-1m2-19-1 1-1 8v4l1 1q2 0 2-2l2-8v-4l-2-1-1 1m4-28-1-1-5 13-4 14 1 1h1l2-1 1-3 1-5v3q0 5 2 4t2-7v-1l-2-1-1-3 1-3 2-6v-4z"/>
    <path id="D" fill="#BD2424" d="m658 1730-3 1 12 11v-3q0-3-3-6t-6-3m781-105 4 2 1-2q1-4-6-4l-3 1 4 3m-17-8v-2l-1-3h-3l-3-1-3-2h-1l-1-1-1-1h-3l-1-1-1-1h-3l-1-1-1-1h-3l-1-1-1-1h-3q-5 0-2 2l16 7 17 7m9 4v-2l-1-3h-3l-3 1 3 3 4 1m93 43h-3l-3 1 3 2 3 2 1-2-1-3m-12-2 3 2 1-2-1-3h-2l-4 1 3 2m-8-8-3-1-3 1 3 2 3 2 1-2-1-3m-17-4 4 2 1-2-1-3-5-1q-6 0 1 4m242 135 1 2 4-1q2 0 2-2l-3-1h-3l-1 2m36-6 1 2 4-1q2 0 2-2l-3-1h-3l-1 2m-45 3h-2l-4 1 3 2 3 2 1-2-1-3m-9-5-3-1-3-2-4 1 2 1 3 3 6 3 1-2v-2l-2-1m-16-9q0-2-2-2t-3-1q0-2-3-2t-4 1l8 5 8 5 1-1v-3l-2-1-3-1m-25-12 2 1 3 3 6 3 1-2v-2l-2-1-3-1-3-2-4 1m-11-10q0-2-2-2t-3-1q0-2-3-2t-4 1l8 5 8 5 1-2v-2l-2-1-3-1m-20-13-3-1-2-2-3-1-2-2q-1-2-3-1t-2-2-3-1-2-2-3-1-2-2-3-1-2-2-3-1-2-2-3-1-2-2-3-1-2-2-3-1-2-2-3-1q0-2-3-2h-3l-1-2-1-2h-1l-3-1-3-2h-3l-1-2-1-2h-1l-3-1-3-2h-3l-1-2-1-2h-5l-1-2-1-2h-5l-1-2-1-2h-5l-1-2-1-2h-5l-1 1 6 4 16 9 59 35 37 22 1-1v-3l-2-1-3-1-2-2m162 32 1 2 3-2 3-2-3-1h-3l-1 3m-16 10 7-3 2-2-4-1q-4 0-4 2l-2 1h-2l-2 1v4l5-2m37-24v3l3-2 6-5 4-3h-7l-1 2-1 2h-1l-3 1v2m0 4-4-1h-3l-1 1v1h-2l-1 1v2l1 2 5-3 4-3m41-49-2 1v2h-1l-1 1v2h-1l-1 1v2h-1l-1 1v2l-2 1-1 1v3l-2 1-2 1-1 4v4l4-5 11-14 7-12-1-1h-2l-2 1v2q0 2-2 2m15-22-2-1-2 1v3l1 3 3-4v-2m7-28-2 2-1 7v1l-1 1-2 4-1 6q0 4 2 2l3-8 4-11v-3l-2-1m2-10-2 1v3l1 3q2 1 2-2l1-4-2-1m-1257 33-3-1h-1v2l10 21 5 8 1-1v-5l-2-1-2-1v-5l-2-2-1-3-1-4-3-2-1-3v-3m-9-23-2 1 1 6 2 4q1 1 2-2l-1-7q-1-3-2-2m-5-14 1 4q0 3 2 2l1-3v-3l-2-1-2 1m142 140-1-2h-3l-3 1q-1 2 2 2l4 1 1-2m7-1h-3l-3 1q-1 2 2 2l4 1 1-2-1-2m-34-7-7-2-2-1-1-1h-3l-3-1-4-2q-5 0-2 2t16 7l9 3q2 0 2-2l-1-2-4-1m-34-11 7 4 1-1v-1q0-4-5-4h-1l-1-1q0-2-4-2h-2l-1 1 6 4m-20-18-1-2h-6l8 7 8 6v-5l-2-1h-1l-1-1q0-2-3-2h-1l-1-2m-24-24q0-3-2-3l-1-1v-1l-1-2h-4v1l6 8 6 7v-6l-2-1h-2v-2m260-101v2h-2l-2 1v4h-2l-2 1v4h-2l-2 1v4h-2l-2 1v4h-2l-2 1v4h-2l-2 1v4h-2l-2 1v5h-3l-2 1v4h-2l-2 1v4h-2l-2 1v4h-2l-2 1v4h-2l-2 1v4h-2l-2 1v4h-2l-2 1v4h-2l-2 1v5h-3l-2 1v4h-2l-2 1v4h-2l-2 1v4h-2l-2 1v4h-2l-2 1v4h-2l-2 1v1l-1 2-1 1-2 1-1 2q0 3-2 3l-2 1v4h-2l-2 1v4h-2l-2 1v4h-2l-2 1v4h-2l-2 1v5h-3l-2 1v4h-2l-2 1v4h-2l-2 1v4h-2l-2 1v6l2-1 64-80 67-84v-1h-2l-2 1-1 2m66 54 5-2 24-12 8-5 3-2-1-1-19 11-20 11m81-40 5-5 1-2q2 0 2 2h1l4-1 4-3-3-1-1-1h2l4 1h4l3-3-1-1h-5l-1-1-3 1-8 4-14 7-21 13-12 7v1h1l4-1 2-2 1-1h1l2-1 2-1 2-1 1-1 4-1 1-2 3-1h3l1-2 1-1 2-1 8-2m64-31-1 2v2l3-1 4-3-3-1-3 1m-2 3-3-1h-3l-1 1-1 1h-3l-1 1-1 1h-3l-1 1-1 1h-3l-1 1-1 1h-2l-2-1 3-2h3l1-2-1-3-10 6-10 6 1 1h2q4 0 4 2h1l23-9 10-5m-28 8 1 1-1 1h-5l-1-1 1-1h5m-121-69-2 1v3l-2 1-2 1v4l-3 1-1 1-1 2v1l-2 1-2 1v3l-2 1-2 1v3l-2 1-2 1v3l-2 1-2 1v3l-2 1-2 1v3l-2 1-2 1v3l-2 1-2 1v3l-2 1-2 1v3l-2 1-2 1v6l2-1 63-79 87-108 26-33v-1h-4l-1 2v2l-2 1-2 1-1 2q0 3-2 3l-2 1v4h-2l-2 1v4h-2l-2 1v3l-2 1-2 1-1 2q0 3-2 3l-2 1v4h-2l-2 1v4h-2l-2 1v4h-2l-2 1v4h-2l-2 1v5h-2l-2 1-1 2v2h-2l-2 1v4h-2l-2 1v4h-2l-2 1v4h-2l-2 1v4h-2l-2 1v4h-2l-2 1v4h-2l-2 1v4h-2l-2 1v5h-2l-2 1-1 2v2h-2l-2 1v4h-2l-2 1v4h-2l-2 1v4h-2l-2 1v4h-2l-2 1v4h-2l-2 1v4h-2l-2 1v4h-2l-2 1v4h-2l-2 1v4h-2l-2 1v4h-2m858 11 3 1 2 1 1 1q0 3 4 7t7 4l3 1v3q0 3 2 3l1 1v2l1 1h1v3h1l1 1 1 2 6 11 6 17 2 7h4l9 1h5v-4l-1-12v-8h-4l-10-1-6-1-3-3q-4-10-15-23t-20-20l-5-3v5l2 1 1 1 1 1z"/>
    <path id="E" fill="#BD2424" d="M1361 1594q2 0 2-2 0-3-7-3h-2l-1-1-1-1h-2q-5 0-4 2l7 3 8 2m21 7 4 1 1-1-1-3-5-1-4 1 5 3m-267-1 1-2 1-2h5l1-2-1-3-10 6-10 6 1 1h5l1-2 1-2h5m26-1 9-4 4-2-4-1-11 3-8 3q-2 1-2 3l2 1 10-3m24-8 6-2q1-2-4-2h-2l-1 1-1 1h-5l-1 2 1 2 7-2m102-16q-1 2 2 2l4 1 1-2-1-2h-3l-3 1m-55 2-1 2 1 2 4-1q2 0 2-2l-4-1h-2m-12 2-1 2 1 2 4-1q2 0 2-2l-4-1h-2m-9 4-4-1h-2l-1 2 1 2 4-1q2 0 2-2m17-37 1-2h5l1-2-1-3-18 10-18 11 1 1h5l1-2 1-2h5l1-2 1-2h2q6 0 6-3l1-2h5l1-2m-69 36 1 1h5l1-2v-2l-1-1-3 2-3 2m-517-14-2 2-1 4 1 1h1l2-1v-2l-1-4m8-15q0-6-2-3l-6 12v4h1q2 0 3-2l1-5 1-3 2-3m1186-7 1 1h5l1-1-5-4-6-3-1 1v2l1 2 1 1h2l1 1m-487 37-3-2-7-1q-3 0-2 2l4 2 7 1 1-2m-30-5-1-2h-3l-3 1q-1 2 2 2l4 1 1-2m9 3 4 1 1-2-1-2h-3l-3 1q-1 2 2 2m-1-34q2-2-2-2l-9 2-7 4-4 1-4 1-4 1-5 2-6 2-5 2-21 8-17 7-4 3 1 2h3l9-1 8-2 3-1 1 1 2 1 5-1 53-13 70-15 95-19 74-11h6l1-2v-1l-1-1-20 3q-80 10-188 34l-25 5h-14l-14-2 2-1 7-3 10-4z"/>
    <path id="F" fill="#BD2424" d="m1231 1533 1-2h5l1-2v-3l-11 6-10 6 1 1h5l1-2 1-2h5l1-2m-593 1 2-1 2-1v-5l2-1 2-1v-1q0-3 2-3t1-3v-3l2-1 2-1v-5l2-1 2-1v-2l-1-4-12 19-11 21h3l2-1v-5m1162 0-4-3h-3v2l1 2h3l3-1m-17-5 1 2h3l3-1-4-3h-3v2m44-60-1 1v5l2 1 2 1v5l2 1 2 1v3q0 3 2 3t1 3v1l2 1 2 1v5l2 1q2 0 2 3 0 2-2 2l-2 1 3 2 4 3v-2l1-2v2q0 3 5 8t5 7l2 1-1-1-2-4-17-29-14-24m-57 57 5 1 3-1q0-2-18-6-17-5-37-7l-12-2-1 2 2 2 8 1 12 2 13 2 19 4h3l1 1 1 1h1m-71-14 1 2h3l5-1q1-2-2-2-7-2-7 1m-33 0 3-1q0-2-3-2l-12-1-12 1q-3 0-3 2l3 1h24m22-3h-2l-1 2 1 2h8l1-1-2-2-5-1m-128 7 4 1h3l1-2-1-2-5 1-1 1-1 1m10-1 4 1h4l1-2q0-2-2-2l-5 1-2 2m-19 2 4 1h3l1-2-1-2-5 1-1 1-1 1m62-7q-2 0-2 2l1 1h9l1-2-1-2h-2l-6 1m-30 3-1 1 4 1h3l1-2-1-2-5 1-1 1m14-2-2 2 4 1h4l1-2q0-2-2-2l-5 1m-164-3 1 2 6-1 4-2q1-1-2-2l-7 1q-3 1-2 2m-8 3-1-1h-1l-10 2-7 2-1 1h-5l-1 2 1 2 13-3q12-3 12-5m-109 31q0 2 2 2l9-3 6-2 2-2-3-1-9 2-6 2-1 2m51-16 1 2 4-1 10-3q13-3 13-5l-4-1h-2l-1 1-1 1h-5l-1 1-1 1h-5l-1 1-1 1h-5l-1 2m-10 3 1 2 4-1q2 0 2-2l-4-1h-2l-1 2m-6 3-3-1q-7 0-7 3l1 2 5-1 4-3m104-435-22 17-11 10 5 3 12 7 18 11-1 3-6 9-8 11 52 14 51 14 64 37 65 38q1 1-64 39l-143 85-99 57-105 60-16 9-7 4 1 1h5l1-2 1-2h5l1-2 1-2h2q6 0 6-3l1-2h5l1-2 1-2h5l1-2 1-2h2q6 0 6-3l1-2h5l1-2 1-2h5l1-2 1-2h5l1-2 1-2h2q6 0 6-3l1-1h1q5 0 5-3l1-2h5l1-2 1-2h5l1-2 1-2h5l1-2 1-2h5l1-2 1-2h5l1-2 1-2h2q6 0 6-3l1-1h3l1-2 1-2h5l1-2 1-2h5l1-2 1-2h5l1-2 1-2h5l1-2 1-2h5l1-2 1-2h5l1-2 1-2h2l4-1 1-2h1l4-1 1-2 1-1h1l4-1 1-2 1-1h3l1-2 1-2h5l1-2 1-2h2l4-1 1-2h1l4-1 1-2 1-1h3l1-2 1-2h2l4-1 1-2h1l4-1 1-2 1-1h1l3-1 2-2h2l1-2 1-2h5l1-2 1-2h2l4-1 2-2h2l1-2 1-2h2l4-1 2-2 3-1 1-2h1l4-1 1-2 1-1h1l3-1 2-2 3-1 1-2h1l4-1 1-2 1-1h1l3-1 1-2h4l1-1 4-2 1-1 1-2 1-1h1l3-1 2-2 3-1 1-2h4l1-1 4-2 1-1 1-1 1-1h1l2-1 1-1 1-2h1l3-1 1-2h4l1-1 4-2 1-1 1-1v-1h3l1-1 4-2 1-1 1-1 1-1h1l2-1 1-1 1-2h3l1-1v-1h3l1-1 4-2 1-1 1-1v-1h3l1-1 4-2 1-1 1-1v-1h3l1-1 4-2 1-1 1-1v-1h3l1-1 4-2 1-1 1-1v-1h1l6-3 12-7q17-11 18-9l1 1h1l2 1v5l2 1h2l1-1-9-15-19-33-7-12-3-5-1 4v2l2 1 2 1v5l2 1 2 1v3l1 3 2 1v2l-1 1-82-22-114-30-35-10-3-1v-1l1-1 1-1v-2h1l4-5 4-6v-1h1l8-9 19-22 20-19 7-6 1-3-1-4-9-5-6-4-2-2h1v-2l3-1q7 0 6-4l-2-1-7 3q-8 3-21 11l-23 16z"/>
    <path id="G" fill="#BD2424" d="m1228 878 2-15v-2l-2-1-2 1v3l-2 17-4 21-14 42-4 9-1 6 3 7 6 14 8 18-3 3-3 6v3l3-2 21-20 15-16q3-4 2-5l-30-62 2-9 3-19m-117 485 1 2h5l1 1h2l1-2-3-2-6-1-1 2m-5 16q0 3 1 2l3-3 2-3h-3l-3 1v3m-9-22-1 2 1 2h2l4-1q0-2-2-2l-4-1m-31-6q0 2 2 2 7 2 9 0 2-1-4-3l-6-1-1 2m17 6q7 2 9 0 2-1-4-3l-6-1-1 2q0 2 2 2m-72-23-1 1v1l2 2 7 1h1l1 1 5 2 8 1h1l1 1 5 2 8 1h1l1 1 1 1h1l7 1 2-1q0-2-25-8l-26-7m-19-114-1 3v3l3-2 3-3q1-1-2-1h-3m23-16 3-3q1-1-2-1h-3l-1 3v3l3-2m-304 207 2-1v-2l-1-4-27 45-26 47h3l2-1v-5l2-1 2-1v-5l2-1 2-1v-1q0-3 2-3t1-3v-3l2-1 2-1v-5l2-1 2-1v-5l2-1 2-1v-1q0-3 2-3t1-3v-3l2-1 2-1v-5l2-1 2-1v-5l2-1 2-1v-1q0-3 2-3t1-3v-3l2-1 2-1v-5l2-1m91-160 2-1 2-1v-5l2-1 2-1v-2l-1-4-47 81-47 82h3l2-1v-5l2-1 2-1v-5l2-1 2-1v-1q0-3 2-3t1-3v-3l2-1 2-1v-5l2-1 2-1v-5l2-1 2-1v-1q0-3 2-3t1-3v-3l2-1 2-1v-5l2-1 2-1v-5l2-1 2-1v-1q0-3 2-3t1-3v-3l2-1 2-1v-5l2-1 2-1v-1q0-3 2-3t1-3v-3l2-1 2-1v-5l2-1 2-1v-5l2-1 2-1v-1q0-3 2-3t1-3v-3l2-1 2-1v-5l2-1 2-1v-5l2-1 2-1v-1q0-3 2-3t1-3v-3m117 44h-3l-6 2q-2 2-2 5v3l3-2 5-5 3-3m-8 16q7 2 9 0 2-1-4-3l-6-1-1 2q0 2 2 2m20 1-6-1-1 2q0 2 2 2 7 2 9 0 2-1-4-3m30 10q0-2-2-2l-4-1-1 2 1 2h2l4-1m5 0-1 1v1l1 2 4 1 8 1h1l1 1 5 2 8 1h1l1 1 1 1h1l7 1 2-1q0-2-19-7l-21-5m-26-7-1 2 1 2h3l3-1q1-2-2-2l-4-1m18-60q-3 0-6 3t-3 5v3l3-2 6-5 3-4h-3m12-12v3l3-2 5-5 3-3h-3l-6 2q-2 2-2 5m-41 39v3l3-2 5-5 3-3h-3l-6 2q-2 2-2 5m-89-93q0-3 2-3t1-3v-3l2-1 2-1v-5l2-1 2-1v-5l2-1 2-1v-1q0-3 2-3t1-3v-3l2-1 2-1v-5l2-1 2-1v-2l-1-4-27 45-26 47h3l2-1v-5l2-1 2-1v-5l2-1 2-1v-1q0-3 2-3t1-3v-3l2-1 2-1v-5l2-1 2-1v-5l2-1 2-1v-1m82-141v-2l-1-4-27 45-26 47h3l2-1v-5l2-1 2-1v-5l2-1 2-1v-1q0-3 2-3t1-3v-3l2-1 2-1v-5l2-1 2-1v-5l2-1 2-1v-1q0-3 2-3t1-3v-3l2-1 2-1v-5l2-1 2-1v-5l2-1 2-1v-1q0-3 2-3t1-3v-3l2-1 2-1v-5l2-1 2-1m41-71v-2l-1-4-19 32-19 34h3l2-1v-5l2-1 2-1v-5l2-1 2-1v-1q0-3 2-3t1-3v-3l2-1 2-1v-5l2-1 2-1v-5l2-1 2-1v-1q0-3 2-3t1-3v-3l2-1 2-1v-5l2-1 2-1m222 61h-3l-4 1-6 6-6 6-1 3v3l3-2 10-9 7-8m-131 125v3l3-2 6-6 4-4h-3q-3 0-7 3-3 3-3 6m42-36 5-6h-3q-3 0-8 5-5 4-5 7v3l3-2 8-7m-63 60 5-5 3-3h-3l-6 2q-2 2-2 5v3l3-2m-22-295v-3l2-1 2-1v-5l2-1 2-1v-2l-1-4-27 45-26 47h3l2-1v-5l2-1 2-1v-5l2-1 2-1v-1q0-3 2-3t1-3v-3l2-1 2-1v-5l2-1 2-1v-5l2-1 2-1v-1q0-3 2-3t1-3v-3l2-1 2-1v-5l2-1 2-1v-5l2-1 2-1v-1q0-3 2-3t1-3m215-58 1 6 1 1 2-1v-5q-2-13-7-29-4-15-7-15-2 0 0 6 1 6 3 8l4 13 3 16m-159-42 2-1 2-1v-5l2-1 2-1v-2l-1-4-27 45-26 47h3l2-1v-5l2-1 2-1v-5l2-1 2-1v-1q0-3 2-3t1-3v-3l2-1 2-1v-5l2-1 2-1v-5l2-1 2-1v-1q0-3 2-3t1-3v-3l2-1 2-1v-5l2-1 2-1v-5l2-1 2-1v-1q0-3 2-3t1-3v-3m769 714 4 2v-3l-1-3h-2l-4 1 3 3m-7-10h-2l-4 1 3 2 3 2 1-2-1-3m-29-11-1-1-1-1h-2l-4 1q0 2 4 3l14 5 10 4v-2l-1-3h-2l-4-1-1-2h-3l-1-1-2-1-3-1h-3m-141-13-1-1h-8l-1 2 1 2h2l5-1q2 0 2-2m-32 1h-3l-1 2 1 2 5-1q3 0 2-2l-4-1m12-1h-3l-1 2 1 2 5-1q3 0 2-2l-4-1m136 9 4 1 1-2-1-2h-3l-3 1q-1 2 2 2m-29-5 10 2 8 1 1-2-2-1-7-2-10-1q-2 0-2 2l2 1m-15-3-1-2h-3l-5 1 1 2h1l4 1h2l1-2m10-1h-3l-4 1q-1 2 2 2 6 2 6-1l-1-2m29-95v2l2 1 2 1v5l2 1 2 1v3q0 3 2 3t1 3v2h2l2 1v5l2 1 2 1v5l2 1 2 1v3q0 3 2 3t1 3v2h2l2 1v5l2 1 2 1v5l2 1 2 1v3q0 3 2 3t1 3v2h2l2 1v5l2 1 2 1v5l3 1h2l-26-47-27-45-1 4m-55-101-1 4v2l2 1 2 1v5l2 1 2 1v3q0 3 2 3t1 3v2h2l2 1v5l2 1 2 1v5l2 1 2 1v3q0 3 2 3t1 3v2h2l2 1v5l2 1 2 1v5l2 1 2 1v3q0 3 2 3t1 3v2h2l2 1v5l2 1 2 1v5l3 1h2l-26-47-27-45m-248 225 1 2 6-1 4-2q1-1-2-2l-7 1q-3 1-2 2m25-4q1-2-2-2l-7 1-3 2 1 2 6-1 5-2m121-21 1 2 5-1q3 0 2-2l-4-1h-3l-1 2m-9 1 1 2 4-1q3 0 2-2l-3-1h-3l-1 2m-4 2 3-1q0-2-3-2l-37 5-63 11-5 2-1 1v2h1l18-3q37-8 69-12l18-3m-146 25 1 2 6-1 4-2q1-1-2-2l-7 1q-3 1-2 2m72-440q0-2-2-2l-8 3-7 3 1 1h4l3-1 2-1 1-1h5l1-2m57 6 1 1 5 1 3-1-4-3-4-2-1 2v2m16 8v3q0 3 2 3t1 3v2h2l2 1v5l2 1 2 1v5l3 1h1l1-1-7-13q-7-13-8-12l-1 1m-26-12 1 1h3l3-1q-1-2-6-3l-6-2q-2 0-2 2l1 2h5l1 1m-210-224 2-1q2 0 6-8l4-11q1-4-1-4l-3 4-5 10q-14 27-33 52-19 26-51 59l-16 17 12 15 10 13h3q28-35 47-62 18-28 31-53l5-11q1-2-1-2t-3 2l-5 9-3 8-2 5v2l-2 1q-3 0-3 5v1l-2 1-1 3v1l-1 1-2 2h-2l-5-6-6-8 2-1 1-1v-2l2-1 1-1v-2l1-1h1v-2l1-1 1-1 3-4 1-2 2-3 1-2 1-1v-1q0-3 2-3h1v-1l2-3 1-1v-4l2-1 1-3v-3m21-3h-2l-2 1-1 2v1l-1 1-1 1v5l1 1 1-1 3-6 2-5m237 277v5l2 1 2 1v3q0 3 2 3t1 3v2h2l2 1v5l2 1 2 1v5l2 1 2 1v3q0 3 2 3t1 3v2h2l2 1v5l2 1 2 1v5l2 1 2 1v3q0 3 2 3t1 3v2h2l2 1v5l2 1 2 1v5l3 1h2l-26-47-27-45-1 4v2l2 1 2 1z"/>
    <path id="H" fill="#BD2424" d="m1123 696-3 4q-5 5-11 15l-17 29-15 26 1 1h2l2-1v-5l2-1 2-1v-5l2-1h2v-2q0-3 2-3t1-3v-3l2-1 2-1v-5l2-1 2-1v-5l2-1h2v-4l1-1h2v-1q1-1 9 1l18 4 20 8 15 8 5 3 3 2 2 1 1 1 1 1 3 1q3 0 2 2l1 3 4 1 3 1v2l1 4 3 1q2 0 2 3v2l2 1 1 2 1 1h1l2 1v4l1 1 1 1v2l1 2h4l1-1-7-11-10-14q-9-9-24-19-15-9-29-15l-8-2-15-31m269 117q0-2-2-2l-2 1v5l-1 1-3 7-2 9q0 5 2 2l4-11 4-12m-10-9 1-1 1-1v-3q0-5-2-2t-7 16v2h1l3-1v-2l1-4 2-2v-2m10-5 1 3q2 1 2-2l1-4-2-1-2 1v3m-4-20-2 5h2q2 0 3-2l1-5q0-4-1-3-2 1-3 5m8 6-2 1v3l1 3q2 1 2-2l1-4-2-1m3-31q0-4-1-3-2 1-3 6l-2 7 2 1 4 1 1-2 1-4-2-1h-1v-1l1-1v-3m2-13v-5l-2 4-1 5v2h1l2-1v-5z"/>
    <path id="I" fill="#DA2024" d="m1849 1569-2-2v7l2 1 1 1 1 1v2h2v3h2v2l1 1 2 5 2 3 1 1 2 1v2l4 14 3 9 3 9 1 9h4l9 1 1-5 1-10v-5l-15-1-2-8q-3-10-11-23-7-14-12-18m-441 40-1-2-2-1h-1l-1-1-1-1h-3l-1-1-1-1h-3q-4 0-2 2l8 4 8 3v-2m25 12 3 3 4 1v-2l-1-3h-2l-4 1m-11-5 3 3 4 1v-2l-1-3h-2l-4 1m81 38q-6 0 1 4l4 2 1-2-1-3-5-1m-30-15-1-3-5-3-9-3-4 1 3 2 6 3 9 5 1-1v-1m17 8q-6 0 1 4l4 2 1-2-1-3-5-1m57 31h-3l-1-2-1-2h-5l-1-2-1-2h-5l-1-2q0-3-6-3h-2l-1-2v-1l-2-1-4-1-3 1 5 3 12 7 35 20 17 10 1-1v-3l-2-1-3-1-3-2h-3l-1-2-1-2h-1l-3-1-3-2h-3l-1-2-1-2h-5l-1-2-1-2h-2m231 94-1 3v2l3-1 4-3-3-1h-3m-21 8 1 2 6-1 4-2q1-1-2-2l-7 1q-3 1-2 2m-3 1-1-1h-4l-7 1q-2 0-2 2l1 2h3l8-2 2-2m-36 0q0-2-3-2t-4 1l4 3q8 5 8 1l-1-2h-1l-3-1m-20-9 2 1 3 3 6 3 1-2v-2l-2-1-3-1-3-2-4 1m-3-6-3-1-2-2-3-1q0-2-3-2t-4 1l8 5 8 5 1-1v-3l-2-1m-33-16 8 5 8 5 1-1v-3l-2-1-3-1-2-2-3-1q0-2-3-2t-4 1m-10-6 8 5 1-2v-2l-2-1-3-1-2-2-3-1q0-2-3-2t-4 1l8 5m-14-13-2-1-3-1-2-2-3-1-2-2q-1-2-3-1t-2-2-3-1-2-2-3-1-2-2-3-1-2-2-3-1-2-2-3-1-2-2-3-1q0-2-3-2t-4 1l25 16 18 10 8 5 1-2v-2m226-29 1 3 2-3 2-3-2-1-3 1v3m-36 43v3l3-2 4-3 1-2h-4l-3 1-1 3m-32 23-3-1h-3l-1 3v2l3-1 4-3m2-5-1 3v1l1 1 8-4 7-5-1-1h-5l-1 2-1 2h-2l-5 1m19-11q-2 0-2 3v3l4-3 5-4q1-1-2-1h-3l-1 1v1h-1m39-33 3-4h-5l-1 2v1l-1 1q-2 0-2 3v2l-2 1-3 1v7l4-5 7-9m22-40v-2h-1l-3 1v3l-1 3-2 4q0 9 7-9m8-28-2-1-2 1v3l1 3q2 1 2-2l1-4m-1252 49 3 6 6 8 2 4 1-4v-3l-1-1h-1v-2l-1-1h-1v-3h-2l-1-2v-2l-2-1h-2l-1 1m0-6v-3l-3-1-2 1 2 3 2 3 1-3m-7-16v-1l-1-2-2-1h-2l2 5 3 6 1 1 1-3v-3l-1-1-1-1m-7-11q0 3 2 2l1-3v-3l-2-1-2 1 1 4m-7-62 1 1h1l2-1v-2l-1-4-2 2-1 4m128 175 4 1 1-2-1-2h-3l-3 1q-1 2 2 2m-8-2 4 1 1-2-1-2h-3l-3 1q-1 2 2 2m-35-15 6 4 7 3v-2q0-2-3-4t-7-2l-3 1m-11-10v-1l-1-1h-3q-3 0-2 1l5 5 6 3 1-2q0-2-2-3h-1v-2h-3m-12-8-1-2-1-2h-6l6 5 6 5v-5l-3-1h-1m-24-20 5 5v-6l-2-1-2-1v-1l-1-3h-4v1l4 6m335-57 15-7 17-9 1-2-16 8-17 10m70-35 4-1 5-3v-4h4l1 1h4l3-3-1-1h-2l-1-1h2l4 1h4l3-3-1-1h-5l-1-1q-1-1-29 15l-29 17 2 1 9-5 7-3 3-3 1-1h5l1-2q0-2 3-2l4-1m40-25h5l1-2v-3l-11 6-10 6 1 1h5l1-2 1-2h5l1-2 1-2m30-6v2l3-1 4-3-3-1h-3l-1 3m-8 3v2l3-1 4-3-3-1h-3l-1 3m-3 3 2-2-1-1h-5l-1 1-1 1h-3l-1 1-1 1h-2l-1 1-1 2v2l5-2 10-4m-143-67-1 2-1 1-1 1-1 1-1 2-1 1-1 1q-2 1-2 3v2l-2 1-2 1v3l-2 1-2 1v3l-2 1-2 1v3l-2 1-2 1v3l-2 1-2 1v3l-2 1-2 1v3l-2 1-2 1v3l-2 1-2 1v3l-2 1-2 1v3l-2 1q-3 1-3 3l-1 1-1 1-1 1-1 2-1 1-1 1q-2 1-2 3v2l-2 1-2 1v3l-2 1-2 1v3l-2 1-2 1v3l-2 1-2 1v3l-2 1-2 1v3l-2 1-2 1v3l-2 1-2 1v3l-2 1-2 1v4l-3 1-1 1-1 2v1l-2 1-2 1v3l-2 1-2 1v3l-2 1-2 1v3l-2 1-2 1v3l-2 1-2 1v3l-2 1-2 1v3l-2 1-2 1v4l-3 1-1 1-1 2v1l-2 1-2 1v3l-2 1-2 1v3l-2 1-2 1v3l-2 1-2 1v3l-2 1-2 1v4l-3 1-1 1-1 2v1l-2 1-2 1v3l-2 1-2 1v3l-2 1-2 1v3l-2 1-2 1v3l-2 1-2 1-1 2q0 3-2 3l-2 1v3l-2 1-2 1v3l-2 1-2 1v3l-2 1-2 1v6l2-1 41-51 165-205q97-122 117-145l13-16 1-2-31-9-31-8-1 1v1l2 2 7 1h1l1 1 5 2 8 1h1l1 1 5 2 8 1h1l1 1 5 2 8 1h2v2l-1 2-1 2-1 1-2 1-1 2-1 1-1 1-1 1-1 2-1 1-1 1q-2 1-2 3v2l-2 1-2 1-1 2q0 3-2 3l-2 1v3l-2 1-2 1v3l-2 1-3 3-1 1-1 1q-2 1-2 3v2l-2 1-2 1v3l-2 1-2 1v3l-2 1-2 1v3l-2 1-2 1v3l-2 1-3 3-1 1-1 1q-2 1-2 3v2l-2 1-2 1v3l-2 1-2 1v3l-2 1-2 1v3l-2 1-2 1v3l-2 1-2 1v3l-2 1-2 1v3l-2 1-3 3-1 1-1 1-1 1-1 2-1 1-1 1q-2 1-2 3v2l-2 1-2 1v3l-2 1-2 1v3l-2 1-2 1v3l-2 1-2 1v3l-2 1-2 1v3l-2 1-2 1v3l-2 1-2 1v3l-2 1-2 1v3l-2 1-2 1v3l-2 1-3 3-1 1-1 1-1 1z"/>
    <path id="J" fill="#DA2024" d="M1499 1524v-1l-1-1-27 4-42 8q-54 10-134 29l-51 10h-5l31-12 21-9q4-2-1-2l-6 1-4 2-5 2-4 1-2 1-4 1-3 1-1 1-4 1-3 1-1 1-1 1h-3l-1 1-1 1h-3l-1 1-1 1h-3l-1 1-1 1h-3l-1 1-1 1h-3l-3 2-1 1h-2q-2 0-2 3v1h9l9-1 17-2 34-8 116-26q53-11 84-15l7-1 2-2m-154 62-4-2q-10-2-10 0l2 2 4 1 7 2q2 0 2-2l-1-1m26 11 4 1 1-1-1-3-4-1-5 1q0 2 5 3m15 6 4 1v-2l-1-3h-2l-4 1 3 3m-231-9q3 0 2-2l-3-1h-3l-1 2 1 2 4-1m10-3q3 0 2-2l-3-1h-3l-1 2 1 2 4-1m13-3 4-2q1-1-2-2l-7 1q-3 1-2 2l1 2 6-1m-558-6-1-2-2 3-3 11v3l2 1 2-1 1-6 1-9m4-20-2 3-2 6 2 1q2 0 2-2l1-5-1-3m6-8 1-3q0-10-7 8v2h2l2-1v-2q0-4 2-4m1190-10-1 1v2q0 2 2 2h1v1l1 1h2l1 2 1 1h1l1 1 1 1 2 2h3q3 0 2-1l-8-7-9-6m-506 38 4 1 1-2-1-2h-2l-4 1q-1 2 2 2m179-197 2-1 1-1v-1h2l1-1v-1l1-2h3l3-1 1-2h1l4-1 1-2 1-1h2l2-1 1-2h1l4-1 1-2 1-1h2l2-1 3-2 2-1 1-2h1l4-1 1-2 1-1h2l2-1 1-2h1l4-1 1-2 1-1h2l2-1 3-2 2-1 1-2h4l1-1 4-2 1-1 1-2 1-1h2l2-1 1-2h4l1-1 4-2 1-1 1-1 1-1h2l1-1 1-1 1-2h2l2-1 3-2 2-1 1-2h4l1-1 4-2 1-1 1-1v-1h3l1-1 4-2 1-1 1-1v-1h3l1-1 4-2 1-1 1-1v-1h3l1-1 4-2 1-1 1-1v-1h3l1-1 4-2 1-1 1-1v-1h3l1-1 4-2 1-1 1-1v-1h3l1-1 4-2 1-1 1-1 1-1h2l1-1 1-1 1-1h2l1-1 4-3 7-3 4-3v4l2 1 2 1v3q0 3 2 3t1 3v1l2 1 2 1v5l2 1 2 1v5l2 1 2 1v3q0 3 2 3t1 3v1l2 1 2 1v5l2 1 2 1v5l2 1 2 1v3q0 3 2 3t1 3v1l2 1 2 1v5l2 1 2 1v5l3 1 2-1-25-43-25-43-12 6-30 18q-96 58-195 115l-261 149-91 51-11 7 1 1h5l1-2 1-2h5l1-2 1-2h5l1-2 1-2h2q6 0 6-3l1-1h1q5 0 5-3l1-2h2q6 0 6-3l1-1h1l4-1 1-2 1-1h1q5 0 5-3l1-2h2q6 0 6-3l1-1h1q5 0 5-3l1-2h2q6 0 6-3l1-1h1q5 0 5-3l1-2h5l1-2 1-2h2q6 0 6-3l1-1h1q5 0 5-3l1-2h2q6 0 6-3l1-1h1l4-1 1-2 1-1h1q5 0 5-3l1-2h2q6 0 6-3l1-1h1q5 0 5-3l1-2h5l1-2 1-2h2q6 0 6-3l1-1h1q5 0 5-3l1-2h5l1-2 1-2h2q6 0 6-3l1-1h1l4-1 1-2 1-1h1q5 0 5-3l1-2h5l1-2 1-2h2q6 0 6-3l1-1h1l4-1 1-2 1-1h1l4-1 1-2 1-1h1l4-1 1-2 1-1h1l4-1 1-2 1-1h1q5 0 5-3l1-2h2l4-1 1-2h1l4-1 1-2 1-1h1l4-1 1-2 1-1h1l4-1 1-2 1-1h1l4-1 1-2 1-1h1l4-1 1-2 1-1h1l4-1 1-2 1-1h1l4-1 1-2 1-1h1l4-1 1-2 1-1h1l4-1 1-2 1-1h4l1-1 4-2 1-1 1-2 1-1h1l4-1 1-2 1-1h1l4-1 1-2 1-1h4l1-1 4-2 1-1 1-2 1-1h1l4-1 1-2 1-1h4l1-1 4-2 1-1 1-1 1-1 2-1z"/>
    <path id="K" fill="#DA2024" d="m1227 883 2-13q0-2-2-2l-2 1v2l-2 15-5 21q-10 33-30 73-8 17-8 21l1 5 4 9 5 10-6 6-4 5-1 3v3l3-2 22-21 19-20-19-40 4-10q13-34 19-66m-188 459q2-1-4-3l-6-1-1 2q0 2 2 2 7 2 9 0m11 1-6-1-1 2q0 2 2 2 7 2 9 0 2-1-4-3m-46-12q-2 0-2 2l2 2 7 1h1l1 1 1 1h1q10 2 9 0 0-2-10-4l-10-3m-17-2q0 2 2 2 7 2 9 0 2-1-4-3l-6-1-1 2m-15-4q0 2 2 2 7 2 9 0 2-1-4-3l-6-1-1 2m12-92 3-4h-3q-3 0-6 3t-3 5v3l3-2 6-5m24-24h-3q-3 0-8 5-5 4-5 7v3l3-2 8-7 5-6m5-8v3l3-2 8-7 5-6h-3q-3 0-8 5-5 4-5 7m-245 111-1-4-19 32-19 34h2l3-1v-5l2-1 2-1v-5l2-1 2-1v-1l1-3 2-3v-3l2-1 2-1v-5l2-1 2-1v-5l2-1 2-1v-1l1-3 2-3v-3l2-1 2-1v-5l2-1 2-1v-2m-41 73v-2l-1-4-27 45-26 47h2l3-1v-5l2-1 2-1v-5l2-1 2-1v-1l1-3 2-3v-3l2-1 2-1v-5l2-1 2-1v-5l2-1 2-1v-1l1-3 2-3v-3l2-1 2-1v-5l2-1 2-1v-5l2-1 2-1v-1l1-3 2-3v-3l2-1 2-1v-5l2-1 2-1m178-79v3h3l4-1q1-1-2-2l-2-1 1-1 1-2h-2l-3 1v3m12 2-1 2q0 2 2 2 7 2 9 0 2-1-4-3l-6-1m4-16 3-3h-3l-6 2q-2 2-2 5v3l3-2 5-5m17 21-6-1-1 2q0 2 2 2 7 2 9 0 2-1-4-3m10 3q-2 0-2 2l2 2 7 1h1l1 1 1 1h1q10 2 9 0 0-2-10-4l-10-3m-124-99v-2l-1-4-27 45-26 47h3l2-1v-5l2-1 2-1v-5l2-1 2-1v-1q0-3 2-3t1-3v-3l2-1 2-1v-5l2-1 2-1v-5l2-1 2-1v-1q0-3 2-3t1-3v-3l2-1 2-1v-5l2-1 2-1v-5l2-1 2-1v-1q0-3 2-3t1-3v-3l2-1 2-1v-5l2-1 2-1m110 59v3l3-2 5-5 3-3h-3l-6 2q-2 2-2 5m23-25q-2 2-2 5v3l3-2 5-5 3-3h-3l-6 2m-88-113q0-3 2-3t1-3v-3l2-1 2-1v-5l2-1 2-1v-2l-1-4-27 45-26 47h3l2-1v-5l2-1 2-1v-5l2-1 2-1v-1q0-3 2-3t1-3v-3l2-1 2-1v-5l2-1 2-1v-5l2-1 2-1v-1q0-3 2-3t1-3v-3l2-1 2-1v-5l2-1 2-1v-5l2-1 2-1v-1m192 17v3l3-2 6-6 4-4h-3q-3 0-7 3-3 3-3 6m46-47-6 5-5 6-1 3v3l3-2 9-9 7-7h-3l-4 1m-72 72v3l3-2 6-5 3-4h-3q-3 0-6 3t-3 5m-62-221v-5l2-1 2-1v-2l-1-4-47 81-47 82h3l2-1v-5l2-1 2-1v-5l2-1h2v-2q0-3 2-3t1-3v-3l2-1 2-1v-5l2-1 2-1v-5l2-1h2v-2q0-3 2-3t1-3v-3l2-1 2-1v-5l2-1 2-1v-5l2-1h2v-2q0-3 2-3t1-3v-3l2-1 2-1v-5l2-1h2v-2q0-3 2-3t1-3v-3l2-1 2-1v-5l2-1 2-1v-5l2-1h2v-2q0-3 2-3t1-3v-3l2-1 2-1v-5l2-1 2-1v-5l2-1h2v-2q0-3 2-3t1-3v-3l2-1 2-1m37-69 2-1 2-1v-5l2-1 2-1v-5l2-1h2v-2q0-3 2-3t1-3v-3l2-1 2-1v-5l2-1 2-1v-2l-1-4-27 45-26 47h3l2-1v-5l2-1 2-1v-5l2-1 2-1v-1q0-3 2-3t1-3v-3l2-1 2-1v-5l2-1 2-1v-5l2-1 2-1v-1q0-3 2-3t1-3v-3m216-29v4l1 1q2 0 2-2l1-5v-2l-2-1-2 1v4m4-20-1-5q0-2-2-2l-1 1v8l2 1 2-1v-2m-589 693v-5l2-1 2-1v-1q0-3 2-3t1-3v-3l2-1 2-1v-5l2-1 2-1v-5l2-1 2-1v-1q0-3 2-3t1-3v-3l2-1 2-1v-5l2-1 2-1v-2l-1-4-19 32-19 34h3l2-1v-5l2-1 2-1m530-792-7-4-1 1v1l1 3 3 1 2 1 1 1v1h3v2h3v2h3v1l2 1 1 1 1 1 1 2h3l2 1 1 1 2 5 5 2 2 1v5l2 1 1 1 1 1v2h2l1 1v2l2 1 1 3q0 3 2 2l1 1v1l1 5 3 2 1 3 1 4 2 7 4 15 2 7 1 2 2-1v-4q-4-23-16-44-12-22-30-34l-12-8m-82 14-1-4-27 45-26 47h3l2-1v-5l2-1 2-1v-5l2-1h2v-2q0-3 2-3t1-3v-3l2-1 2-1v-5l2-1 2-1v-5l2-1h2v-2q0-3 2-3t1-3v-3l2-1 2-1v-5l2-1 2-1v-5l2-1h2v-2q0-3 2-3t1-3v-3l2-1 2-1v-5l2-1 2-1v-2m17-28 1-1v-1l1-2 3 1 18 4 17 6 11 4q5 1 5-1t-14-7q-14-6-29-9l-11-2q-2 0-3 2l-7 13-7 12h3l2-1v-5l2-1 2-1v-5l2-1h2v-2q0-3 2-3m711 765 1-1-1-3-4-1h-1l-1-1-1-1h-3l-3 1q1 2 7 4l6 2m1-34 2 1v3q0 3 2 3t1 3v1l2 1 2 1v5l2 1 2 1v5l2 1 2 1v3q0 3 2 3t1 3v1l2 1 2 1v4l-2 1h-2l-1-2v-1l-1-1-3-1q-1-2-4-2l-4 1 2 1 4 3q12 7 22 17l6 6-3-5-21-37-15-26-7-11-1 4v2l2 1 2 1v5l2 1m28 45v2h-3v-2h3m-136 7-1 2 1 2h3l3-1q1-2-2-2l-4-1m34 7v-2l-9-1-9-2-1 2 1 2 5 1 10 1 3-1m18 2-14-3-1 1v1l2 2 10 2 13 3h1l1 1 2 1 3 1 6 2 4 2 4 1h1l1 1 2 2 5 2 10 4q4 1 4-1l-13-7-23-9-19-6m-77-9 1 2h2l4-1q0-2-2-2l-4-1-1 2m-50-38 1 2 4-1q2 0 2-2l-4-1h-2l-1 2m145 4-13-2h-1l-1 1q0 2 6 3l14 4 10 2q2 0 2-2l-1-2h-5l-1-1-10-3m-34-3 4 2 5 1h4l1-2-1-1-4-1-8-1-1 2m-37-1q3 0 3-2t-3-2h-33l-3 2 3 2h33m31-2-3 1q-1 2 2 2l4 1 1-2-1-2h-3m18-123-1 4v2l2 1 2 1v5l2 1 2 1v3l1 3 2 3v2h2l2 1v5l2 1 2 1v5l2 1 2 1v3l1 3 2 3v2h2l2 1v5l2 1 2 1v5l2 1 2 1v3l1 3 2 3v2h2l2 1v5l2 1 2 1v5l2 1h3l-26-47-27-45m-188 166-1-1-4 1-2 2 4 1h2l1-2v-1m-18 2-1-1-4 1-2 2 4 1h2l1-2v-1m4-1-2 2 4 1h2l1-2v-1l-1-1-4 1m49-5-4 1-2 2 4 1h2l1-2v-1l-1-1m-20 4 4 1h2l1-2v-1l-1-1-4 1-2 2m-4 0v-1l-1-1-4 1-2 2 4 1h2l1-2m-118-13 1 2 6-1 4-2q1-1-2-2l-7 1q-3 1-2 2m25-7-3 2 1 2 6-1 5-2q1-2-2-2l-7 1m-7 5q3 0 2-2l-3-1h-3l-1 2 1 2 4-1m40 22 4 1h2l1-2v-1l-1-1-4 1-2 2m-21-26h3l10-3q3 0 3-2l-2-1-9 1-5 2-1 1 1 2m26-9-1 2 1 2 4-1q3 0 2-2l-3-1h-3m14-2h-3l-1 2 1 2 4-1q3 0 2-2l-3-1m73-9 1 2 4-1q3 0 2-2l-3-1h-3l-1 2m-9 1 1 2 4-1q3 0 2-2l-3-1h-3l-1 2m-40 4h-3l-1 2 1 2 4-1q3 0 2-2l-3-1m11-2q-2 0-2 2l1 2h3l8-2q2 0 2-2l-1-1h-4l-7 1m-133 28 1 2 10-2q8-2 8-4l-3-1-9 2-5 1-2 2m-15 6q10-2 10-4l-3-1-11 2-7 2-2 2q0 2 2 2l11-3m-80 20h-2l-8 2-5 2-1 1h-2l-18 5-13 5q-3 1-3 3l2 1 11-4 44-13 42-13q16-4 16-6l-3-1h-3l-1 1-2 1h-3l-6 2-1 1h-5l-1 1-1 1h-5l-1 1-1 1h-5l-1 1-1 1h-4l-3 1-2 1-1 1h-2l-6 1-4 2-1 1m198-454q14-5 29-5l14 1 9 3 3 1 2-1q0-3-12-9-21-10-43-10-23 1-48 13l-9 4 11 7 12 7-1 2-6 5-9 9-2 2h3l4-1 2-2 3-3 9-6q15-11 29-17m116 102-1 1v5l2 1 2 1v5l2 1 2 1v3q0 3 2 3t1 3v2h2l2 1v5l2 1 2 1v5l2 1 2 1v3q0 3 2 3h1v2h-2l-45-12-183-50-5-2v-1l1-1 1-1v-2l2-1 1-1v-2l2-1h1v-2l1-1 1-1 1-1 1-2 1-1 1-1 1-1 1-2 1-1 1-1q2-1 2-3 0-3 2-3l3-1 1-3v-1l1-1 5-4 3-3 1-4v-3l-3 3-14 15-18 23-9 12 3 1 55 15 120 32 71 19q1 0 0 0l-1-4-15-27-15-24m-40-64 2 1v5l2 1 2 1v3q0 3 2 3t1 3v2h2l2 1v5l2 1 2 1v5l2 1 2 1v3q0 3 2 3t1 3v2h2l2 1v5l2 1 2 1v5l3 1h2l-26-47-27-45-1 4v2l2 1 2 1v5l2 1 2 1v3q0 3 2 3t1 3v2h2l2 1v5l2 1m-223-325-2-1-2 1v3l1 3q2 1 2-2l1-4m-8-2 1-6q0-9-7 11-9 23-20 43t-24 39l-8 11 8 11 6 7 3 3 9-14 13-25 10-22 8-20 1-6-4-6q-7-9-3-9l1-2v-2l1-1 1-1 1-3 1-4 2-4m8-11-2 1v3l1 3q2 1 2-2l1-4-2-1m-6-8-2 7 1 1h1q2 0 3-4l1-6-1-3-3 5m10-25-1-1q-2 0-4 8l-2 9 1 1h1l2-1v-5l1-1 2-6v-4z"/>
    <path id="L" fill="#ED1C24" d="M94 36q-3-7-11-9l-3-1-2-1-1 2-5 7-31 54-26 45-11 19-1 6-1 2v5l1 2q1 8 7 14 6 5 14 7h4l6-8 21-26 23-28 2-3-17-4-11-3-5-1 10-10 15-14 12-12 7-7-2-4 1-2 6-15q1-9-2-15m101 128-2-6-3-4-8-5-13-3h-17l-21 3-27 5-7 2h2l8 1 8 1 20 9q11 5 31 18l5 3h2l5-1 5-2 9-7 5-11v-2h-2v-1z"/>
    <g id="a">
      <path fill="#200501" d="m29 187-1 1h1v-1m4-3h-1l-1 1 1-1h1m5-9 1 1v1l-1 1h-1 1l9-10 8-8 1-2-1 1v1l-1-1-1-2h-1l-1 1-7 9-5 6-1 2h-1v1h-1v2h-1v1h-1v1h-1v1l-1 1v1h-1v1h-1v1h-1v2h-1v1l1-2 1-1 1-1 5-7 2-1v-1m-5 8 1-1-1 1m-3 4v-1h1-1v1m-6 0h-3 1l1 1h1v-1m2 1v-1h-1v1h1m-6-2h-2l1 1h2v-1h-1m-5-2h-1v-1h-2l2 1 1 1v-1m-4-2v-1h-1l1 1 1 1v-1h-1m176 0v1l1-1 1-1h-1v1h-1m-13 6h1l-1-1v1m5-1h-3v1l2-1h1m-9 0-1-1v1l1 1v-1m-3-2v1h1v-1h-1m-3-2v1h1l1 1v-1h-1l-1-1m-1-1h-2l1 1h2-1v-1m19 3-1 1h-1v1l1-1h2l1-1 2-2h1-2v1h-1v1h-2z"/>
      <path fill="#396" d="M29 187z"/>
      <path d="m39 176-1-1v1l-2 1-5 7-1 1-1 1v1l3-3 1-1 1-1-1 1 4-5h1v-1l1-1z"/>
    </g>
  </defs>
  <use xlink:href="#a"/>
  <use xlink:href="#b" transform="translate(-91 -85) scale(.1527)"/>
  <use xlink:href="#c" transform="translate(-91 -85) scale(.1527)"/>
  <use xlink:href="#d" transform="translate(-91 -85) scale(.1527)"/>
  <use xlink:href="#e" transform="translate(-91 -85) scale(.1527)"/>
  <use xlink:href="#f" transform="translate(-91 -85) scale(.1527)"/>
  <use xlink:href="#g" transform="translate(-91 -85) scale(.1527)"/>
  <use xlink:href="#h" transform="translate(-91 -85) scale(.1527)"/>
  <use xlink:href="#i" transform="translate(-91 -85) scale(.1527)"/>
  <use xlink:href="#j" transform="translate(-91 -85) scale(.1527)"/>
  <use xlink:href="#k" transform="translate(-91 -85) scale(.1527)"/>
  <use xlink:href="#l" transform="translate(-91 -85) scale(.1527)"/>
  <use xlink:href="#m" transform="translate(-91 -85) scale(.1527)"/>
  <use xlink:href="#n" transform="translate(-91 -85) scale(.1527)"/>
  <use xlink:href="#o" transform="translate(-91 -85) scale(.1527)"/>
  <use xlink:href="#p" transform="translate(-91 -85) scale(.1527)"/>
  <use xlink:href="#q" transform="translate(-91 -85) scale(.1527)"/>
  <use xlink:href="#r" transform="translate(-91 -85) scale(.1527)"/>
  <use xlink:href="#s" transform="translate(-91 -85) scale(.1527)"/>
  <use xlink:href="#t" transform="translate(-91 -85) scale(.1527)"/>
  <use xlink:href="#u" transform="translate(-91 -85) scale(.1527)"/>
  <use xlink:href="#v" transform="translate(-91 -85) scale(.1527)"/>
  <use xlink:href="#w" transform="translate(-91 -85) scale(.1527)"/>
  <use xlink:href="#x" transform="translate(-91 -85) scale(.1527)"/>
  <use xlink:href="#y" transform="translate(-91 -85) scale(.1527)"/>
  <use xlink:href="#z" transform="translate(-91 -85) scale(.1527)"/>
  <use xlink:href="#A" transform="translate(-91 -85) scale(.1527)"/>
  <use xlink:href="#B" transform="translate(-91 -85) scale(.1527)"/>
  <use xlink:href="#C" transform="translate(-91 -85) scale(.1527)"/>
  <use xlink:href="#D" transform="translate(-91 -85) scale(.1527)"/>
  <use xlink:href="#E" transform="translate(-91 -85) scale(.1527)"/>
  <use xlink:href="#F" transform="translate(-91 -85) scale(.1527)"/>
  <use xlink:href="#G" transform="translate(-91 -85) scale(.1527)"/>
  <use xlink:href="#H" transform="translate(-91 -85) scale(.1527)"/>
  <use xlink:href="#I" transform="translate(-91 -85) scale(.1527)"/>
  <use xlink:href="#J" transform="translate(-91 -85) scale(.1527)"/>
  <use xlink:href="#K" transform="translate(-91 -85) scale(.1527)"/>
  <use xlink:href="#L"/>
  <use xlink:href="#M" transform="translate(-91 -85) scale(.1527)"/>
</svg>
