<?xml version="1.0" standalone="no"?>
<!DOCTYPE svg PUBLIC "-//W3C//DTD SVG 20010904//EN"
 "http://www.w3.org/TR/2001/REC-SVG-20010904/DTD/svg10.dtd">
<svg version="1.0" xmlns="http://www.w3.org/2000/svg"
 width="200.000000pt" height="200.000000pt" viewBox="0 0 200.000000 200.000000"
 preserveAspectRatio="xMidYMid meet">

<g transform="translate(0.000000,200.000000) scale(0.100000,-0.100000)"
fill="#000000" stroke="none">
<path d="M1011 1579 c-14 -5 -48 -30 -77 -54 -61 -53 -74 -57 -44 -14 12 16
20 33 16 36 -10 10 -98 -18 -181 -57 -102 -49 -210 -133 -281 -218 -65 -79
-68 -93 -17 -85 41 7 40 5 -9 -59 -42 -54 -86 -155 -105 -241 -9 -42 -14 -79
-11 -82 3 -3 22 4 43 16 l38 23 -7 -48 c-12 -79 -23 -246 -18 -272 2 -13 8
-26 12 -29 4 -2 24 48 45 113 45 141 100 259 155 330 22 29 40 55 40 58 0 3
-22 3 -50 -1 -27 -4 -50 -3 -50 2 0 24 123 148 206 209 l29 21 -54 20 -54 20
81 32 c45 17 89 31 99 31 10 0 52 -31 94 -69 l75 -69 54 14 c30 8 84 14 121
14 l67 0 6 -35 c8 -43 16 -44 39 -5 10 17 25 30 34 30 12 0 15 -8 10 -40 -3
-22 -2 -40 1 -40 3 0 23 16 43 36 42 41 59 38 59 -12 0 -44 18 -44 48 0 17 25
28 32 43 29 17 -5 19 -11 13 -49 -4 -26 -2 -44 3 -44 5 0 24 20 42 45 20 29
40 45 53 45 19 0 20 -4 15 -50 -4 -29 -2 -50 3 -50 5 0 21 23 35 50 24 48 25
54 14 115 -16 95 -24 101 -169 130 -69 14 -135 25 -146 25 -13 0 -32 14 -48
34 -18 24 -62 52 -147 95 -129 65 -131 65 -168 50z m49 -164 c0 -32 20 -95 30
-95 5 0 12 27 16 60 4 33 9 60 12 60 3 0 40 -22 83 -50 61 -39 87 -50 121 -51
41 -1 41 -1 13 -9 -51 -15 -219 -43 -247 -42 -22 0 -173 91 -165 98 1 1 29 18
62 38 61 37 74 35 75 -9z m560 -121 c0 -14 -3 -14 -15 -4 -8 7 -15 14 -15 16
0 2 7 4 15 4 8 0 15 -7 15 -16z"/>
<path d="M894 1208 c-11 -13 -38 -47 -59 -77 l-38 -53 12 -62 c7 -33 16 -67
21 -75 4 -7 50 -28 103 -45 125 -42 193 -84 294 -180 l82 -78 71 21 c63 19 72
25 90 61 34 66 28 76 -26 45 -56 -33 -75 -24 -56 28 20 55 16 61 -24 36 l-36
-22 -20 21 c-19 18 -20 24 -8 52 16 39 7 48 -29 27 -26 -15 -30 -15 -41 -2
-10 12 -10 21 -1 42 15 33 10 37 -24 21 -25 -11 -29 -10 -58 25 -24 27 -44 39
-81 47 -73 16 -82 24 -111 102 -15 40 -31 76 -34 81 -4 4 -16 -3 -27 -15z"/>
</g>
</svg>
