<svg width="200" height="200" viewBox="0 0 200 200" fill="none" xmlns="http://www.w3.org/2000/svg">
<g clip-path="url(#clip0_7085_73034)">
<path fill-rule="evenodd" clip-rule="evenodd" d="M175.13 165.998C190.612 148.388 200 125.29 200 100C200 44.7716 155.228 0 100 0C44.7716 0 0 44.7716 0 100C0 155.228 44.7716 200 100 200C109.074 200 117.865 198.792 126.222 196.527C111.011 191.652 100 177.393 100 160.563C100 139.709 116.905 122.804 137.759 122.804C158.613 122.804 175.518 139.709 175.518 160.563C175.518 162.409 175.386 164.223 175.13 165.998Z" fill="#F5AC37"/>
<mask id="mask0_7085_73034" style="mask-type:alpha" maskUnits="userSpaceOnUse" x="0" y="0" width="200" height="200">
<path fill-rule="evenodd" clip-rule="evenodd" d="M175.13 165.998C190.612 148.388 200 125.29 200 100C200 44.7716 155.228 0 100 0C44.7716 0 0 44.7716 0 100C0 155.228 44.7716 200 100 200C109.074 200 117.865 198.792 126.222 196.527C111.011 191.652 100 177.393 100 160.563C100 139.709 116.905 122.804 137.759 122.804C158.613 122.804 175.518 139.709 175.518 160.563C175.518 162.409 175.386 164.223 175.13 165.998Z" fill="#627EEA"/>
</mask>
<g mask="url(#mask0_7085_73034)">
<path d="M103.684 107.061H141.682C142.492 107.061 142.875 107.061 142.933 105.999C143.244 102.133 143.244 98.2451 142.933 94.375C142.933 93.6235 142.56 93.313 141.745 93.313H66.1218C65.1858 93.313 64.9338 93.6235 64.9338 94.501V105.625C64.9338 107.061 64.9338 107.061 66.4323 107.061H103.684ZM138.69 80.3124C138.798 80.0289 138.798 79.7184 138.69 79.4394C138.055 78.0579 137.304 76.7394 136.43 75.5018C135.116 73.3868 133.568 71.4383 131.804 69.6878C130.972 68.6303 130.009 67.6808 128.929 66.8753C123.52 62.2717 117.089 59.0137 110.177 57.3757C106.69 56.5927 103.126 56.2192 99.5526 56.2507H65.9913C65.0553 56.2507 64.9293 56.6242 64.9293 57.4387V79.6239C64.9293 80.5599 64.9293 80.8119 66.1173 80.8119H138.24C138.24 80.8119 138.865 80.6859 138.991 80.3124H138.685H138.69ZM138.69 120.061C137.628 119.944 136.557 119.944 135.494 120.061H66.1848C65.2488 120.061 64.9338 120.061 64.9338 121.312V143.003C64.9338 144.002 64.9338 144.254 66.1848 144.254H98.1846C99.7146 144.371 101.245 144.263 102.743 143.943C107.387 143.61 111.955 142.602 116.311 140.941C117.895 140.392 119.425 139.677 120.869 138.817H121.306C128.807 134.916 134.9 128.787 138.744 121.263C138.744 121.263 139.18 120.318 138.69 120.07V120.061ZM52.3742 155.499V155.126V140.563V135.627V120.939C52.3742 120.124 52.3742 120.003 51.3751 120.003H37.812C37.0605 120.003 36.75 120.003 36.75 119.004V107.128H51.2491C52.0592 107.128 52.3742 107.128 52.3742 106.066V94.3165C52.3742 93.565 52.3742 93.3805 51.3751 93.3805H37.812C37.0605 93.3805 36.75 93.3805 36.75 92.3815V81.3834C36.75 80.6949 36.75 80.5104 37.749 80.5104H51.1861C52.1222 80.5104 52.3742 80.5104 52.3742 79.3224V45.635C52.3742 44.636 52.3742 44.384 53.6252 44.384H100.498C103.9 44.519 107.279 44.8925 110.623 45.509C117.512 46.7826 124.132 49.2441 130.184 52.7586C134.198 55.1211 137.893 57.9742 141.183 61.2592C143.658 63.8287 145.89 66.6098 147.87 69.5708C149.836 72.5723 151.47 75.7809 152.752 79.1334C152.91 80.0064 153.747 80.5959 154.62 80.4474H165.807C167.242 80.4474 167.242 80.4474 167.305 81.8244V92.0755C167.305 93.0745 166.932 93.3265 165.928 93.3265H157.302C156.429 93.3265 156.177 93.3265 156.24 94.4515C156.582 98.2586 156.582 102.079 156.24 105.886C156.24 106.948 156.24 107.074 157.432 107.074H167.301C167.737 107.637 167.301 108.199 167.301 108.766C167.364 109.491 167.364 110.224 167.301 110.949V118.513C167.301 119.575 166.99 119.89 166.05 119.89H154.237C153.414 119.733 152.613 120.259 152.424 121.078C149.611 128.391 145.111 134.947 139.297 140.203C137.173 142.116 134.941 143.916 132.61 145.577C130.108 147.017 127.673 148.515 125.108 149.703C120.388 151.827 115.438 153.393 110.357 154.388C105.533 155.252 100.642 155.643 95.7321 155.576H52.3562V155.513L52.3742 155.499Z" fill="#FEFEFD"/>
</g>
<path d="M166.684 160.592C166.684 176.634 153.732 189.595 137.681 189.595C121.629 189.595 108.688 176.634 108.688 160.592C108.688 153.603 111.155 147.325 115.163 142.29C115.469 141.876 115.775 141.471 116.19 141.155C121.54 135.291 129.142 131.589 137.681 131.589C143.288 131.589 148.51 133.169 152.942 135.913C156.684 138.223 159.852 141.372 162.202 145.084C165.045 149.576 166.684 154.886 166.684 160.592Z" fill="#606060"/>
<path d="M166.684 160.592C166.684 176.634 153.732 189.595 137.681 189.595C121.629 189.595 108.688 176.634 108.688 160.592C108.688 153.603 111.155 147.325 115.163 142.29C115.469 141.876 115.775 141.471 116.19 141.155C121.54 135.291 129.142 131.589 137.681 131.589C143.288 131.589 148.51 133.169 152.942 135.913C156.684 138.223 159.852 141.372 162.202 145.084C165.045 149.576 166.684 154.886 166.684 160.592Z" fill="#28374F"/>
<path d="M137.691 142.774L127.188 160.02L137.691 166.14V142.774Z" fill="#FCFCFD"/>
<path d="M137.691 169.526V178.411L126.98 163.277L137.691 169.526Z" fill="#FCFCFD"/>
<path d="M127.188 160.02L137.691 155.212V166.14L127.188 160.02Z" fill="#FCFCFD"/>
<path d="M137.691 142.774L148.195 160.02L137.691 166.14V142.774Z" fill="#FCFCFD"/>
<path d="M148.392 163.277L137.691 178.411V169.526L148.392 163.277Z" fill="#FCFCFD"/>
<path d="M148.195 160.02L137.691 155.212V166.14L148.195 160.02Z" fill="#FCFCFD"/>
</g>
<defs>
<clipPath id="clip0_7085_73034">
<rect width="200" height="200" fill="white"/>
</clipPath>
</defs>
</svg>
