<svg width="200" height="200" viewBox="0 0 200 200" fill="none" xmlns="http://www.w3.org/2000/svg">
<path d="M46.3568 182.272C52.2412 182.272 57.0114 177.501 57.0114 171.616C57.0114 165.731 52.2412 160.96 46.3568 160.96C40.4724 160.96 35.7021 165.731 35.7021 171.616C35.7021 177.501 40.4724 182.272 46.3568 182.272Z" fill="#3CB9A7"/>
<path d="M46.3395 184.297C44.1435 184.297 41.9758 183.721 40.0243 182.595C37.093 180.9 34.996 178.166 34.1192 174.897C33.2445 171.628 33.6929 168.211 35.3859 165.278C37.0788 162.344 39.8122 160.249 43.0829 159.372C46.3537 158.501 49.7678 158.946 52.6992 160.639C58.7517 164.134 60.8326 171.901 57.3396 177.954C55.6467 180.888 52.9133 182.983 49.6426 183.862C48.5496 184.151 47.4426 184.297 46.3395 184.297ZM46.3759 162.98C43.39 162.98 40.4809 164.528 38.8849 167.296C36.5031 171.42 37.9213 176.714 42.0445 179.094C44.0425 180.25 46.3698 180.559 48.5961 179.957C50.8244 179.36 52.687 177.93 53.8406 175.934C56.2204 171.81 54.8022 166.518 50.6789 164.136C49.3234 163.354 47.8385 162.98 46.3759 162.98Z" fill="#3CB9A7"/>
<path d="M153.658 39.0367C159.542 39.0367 164.312 34.2658 164.312 28.3806C164.312 22.4955 159.542 17.7246 153.658 17.7246C147.773 17.7246 143.003 22.4955 143.003 28.3806C143.003 34.2658 147.773 39.0367 153.658 39.0367Z" fill="#3CB9A7"/>
<path d="M65.4914 61.4107C68.5055 63.1503 72.2106 62.9786 75.1399 61.0995C75.7238 60.7257 76.3197 60.3621 76.9278 60.0125C77.5359 59.661 78.148 59.3276 78.7642 59.0083C81.8551 57.4081 83.8571 54.2865 83.8571 50.8052C83.8571 45.7479 87.9562 41.6504 93.0108 41.6504H107.013C112.069 41.6504 116.166 45.7499 116.166 50.8052V50.8092C116.166 54.24 118.088 57.3697 121.138 58.9396C122.464 59.6205 123.758 60.3681 125.017 61.1783C127.896 63.0311 131.565 63.122 134.528 61.4107L134.53 61.4087C138.908 58.881 144.508 60.3802 147.035 64.7606L154.035 76.8876C156.563 81.266 155.064 86.8667 150.684 89.3943L150.682 89.3964C147.718 91.1077 145.963 94.3324 146.128 97.7511C146.201 99.2482 146.201 100.741 146.128 102.23C145.961 105.657 147.712 108.886 150.682 110.601L150.686 110.603C155.064 113.131 156.565 118.732 154.037 123.11L147.037 135.237C144.51 139.615 138.91 141.117 134.532 138.589C131.518 136.849 127.813 137.021 124.884 138.9C124.3 139.274 123.704 139.638 123.096 139.987C122.488 140.339 121.876 140.672 121.259 140.991C118.169 142.59 116.166 145.713 116.166 149.194C116.166 154.252 112.067 158.349 107.013 158.349H93.0108C87.9542 158.349 83.8571 154.25 83.8571 149.194V149.19C83.8571 145.76 81.9359 142.63 78.8854 141.06C77.5601 140.379 76.2652 139.632 75.0066 138.821C72.1278 136.969 68.459 136.878 65.4954 138.589L65.4934 138.591C61.1156 141.119 55.5155 139.619 52.9882 135.239L45.9882 123.112C43.4609 118.734 44.9599 113.133 49.3397 110.605L49.3417 110.603C52.3054 108.892 54.061 105.667 53.8953 102.249C53.8226 100.751 53.8226 99.2563 53.8953 97.7692C54.063 94.3425 52.3114 91.1138 49.3417 89.3984L49.3377 89.3964C44.9599 86.8687 43.4589 81.268 45.9861 76.8896L52.9862 64.7627C55.5155 60.3823 61.1135 58.881 65.4914 61.4107ZM77.5601 112.965C84.7198 125.367 100.576 129.616 112.977 122.455C125.377 115.295 129.625 99.4381 122.466 87.0364C115.306 74.6347 99.4492 70.3857 87.0491 77.5462C74.649 84.7048 70.4005 100.564 77.5601 112.965Z" fill="white"/>
<path d="M107.006 160.368H93.0039C86.8423 160.368 81.8301 155.355 81.8301 149.192C81.8301 146.511 80.3453 144.085 77.9553 142.856C76.5836 142.151 75.22 141.365 73.9048 140.518C71.6502 139.068 68.8139 138.997 66.4967 140.337C61.1572 143.418 54.3087 141.583 51.2299 136.245L44.2298 124.118C42.7389 121.532 42.3409 118.524 43.1126 115.638C43.8844 112.755 45.7329 110.345 48.3188 108.852C50.638 107.512 51.9976 105.017 51.8683 102.344C51.7935 100.784 51.7935 99.2098 51.8683 97.6662C51.9996 94.9809 50.64 92.4816 48.3228 91.1441C48.3087 91.136 48.2925 91.1259 48.2783 91.1158C45.7147 89.6226 43.8824 87.2243 43.1126 84.3552C42.3389 81.472 42.7369 78.4615 44.2278 75.8753L51.2279 63.7484C52.7208 61.1642 55.1309 59.3155 58.0138 58.5416C60.8986 57.7678 63.9067 58.1638 66.4926 59.6589C68.8098 60.9945 71.7028 60.8935 74.0422 59.3983C74.6543 59.0063 75.2765 58.6265 75.9109 58.2608C76.5432 57.8951 77.1836 57.5455 77.8281 57.2121C80.2968 55.9352 81.8301 53.4783 81.8301 50.8032C81.8301 44.6428 86.8423 39.6279 93.0039 39.6279H107.006C113.168 39.6279 118.18 44.6407 118.18 50.8032C118.18 53.4864 119.665 55.913 122.055 57.1414C123.445 57.8567 124.808 58.6426 126.105 59.4811C128.354 60.9298 131.196 61.0005 133.513 59.661C133.536 59.6488 133.556 59.6367 133.576 59.6246C136.146 58.1598 139.136 57.7759 141.994 58.5416C144.877 59.3155 147.287 61.1642 148.78 63.7484L155.78 75.8753C157.273 78.4615 157.669 81.472 156.897 84.3552C156.124 87.2385 154.277 89.6489 151.691 91.142C149.37 92.4816 148.01 94.9749 148.142 97.652C148.216 99.1856 148.216 100.757 148.142 102.325C148.01 105.013 149.368 107.512 151.687 108.852C157.027 111.937 158.861 118.784 155.782 124.12L148.782 136.249C145.703 141.583 138.857 143.416 133.517 140.341C131.204 139.003 128.309 139.102 125.966 140.601C125.358 140.991 124.736 141.371 124.103 141.737C123.465 142.105 122.824 142.452 122.184 142.785C119.711 144.062 118.178 146.517 118.178 149.194C118.18 155.353 113.168 160.368 107.006 160.368ZM70.0543 135.336C72.1533 135.336 74.2482 135.934 76.0927 137.12C77.2947 137.896 78.5432 138.615 79.8018 139.26C83.5453 141.185 85.8706 144.988 85.8706 149.186C85.8706 153.122 89.0706 156.327 93.006 156.327H107.008C110.941 156.327 114.144 153.126 114.144 149.19C114.144 144.998 116.513 141.167 120.329 139.195C120.915 138.892 121.503 138.571 122.087 138.235C122.659 137.904 123.23 137.556 123.788 137.199C127.408 134.881 131.909 134.748 135.538 136.839C138.94 138.803 143.317 137.635 145.283 134.229L152.283 122.1C153.235 120.449 153.489 118.526 152.996 116.685C152.501 114.842 151.322 113.305 149.671 112.351C146.031 110.248 143.901 106.332 144.105 102.127C144.174 100.691 144.174 99.2502 144.105 97.846C143.901 93.6515 146.035 89.7418 149.667 87.6446C151.322 86.6889 152.503 85.1513 152.996 83.3086C153.489 81.468 153.235 79.5445 152.283 77.8938L145.283 65.7669C144.332 64.1161 142.792 62.9362 140.95 62.4432C139.105 61.9481 137.184 62.2027 135.536 63.1564C135.513 63.1685 135.493 63.1806 135.473 63.1907C131.847 65.2537 127.426 65.1344 123.919 62.8735C122.729 62.1078 121.483 61.3865 120.21 60.7318C116.467 58.8083 114.141 55.0058 114.141 50.8052C114.141 46.8653 110.941 43.6648 107.006 43.6648H93.0039C89.0706 43.6648 85.8685 46.8673 85.8685 50.8012C85.8685 54.9937 83.4988 58.8245 79.6826 60.7985C79.0947 61.1036 78.5109 61.4208 77.9311 61.7562C77.3493 62.0916 76.7796 62.4391 76.222 62.7947C72.6058 65.1122 68.1027 65.2496 64.4724 63.1544C62.8219 62.2027 60.9007 61.9481 59.0582 62.4411C57.2178 62.9341 55.6784 64.1141 54.7249 65.7648L47.7248 77.8917C46.7733 79.5425 46.5187 81.466 47.0117 83.3066C47.5046 85.1473 48.6864 86.6869 50.3369 87.6385C50.3511 87.6466 50.3673 87.6567 50.3814 87.6668C53.9915 89.7721 56.1047 93.6717 55.9006 97.8601C55.8299 99.2745 55.8299 100.717 55.9006 102.146C56.1047 106.338 53.9713 110.248 50.339 112.347C46.9309 114.315 45.7571 118.687 47.7268 122.096L54.7269 134.223C56.6926 137.631 61.0643 138.801 64.4744 136.835C66.2118 135.835 68.1351 135.336 70.0543 135.336ZM100.05 127.957C97.6222 127.957 95.1797 127.638 92.7716 126.993C85.5615 125.062 79.5352 120.437 75.8018 113.971C72.0705 107.506 71.0785 99.9756 73.0099 92.7645C74.9412 85.5534 79.5655 79.5263 86.0302 75.7925C92.4928 72.0586 100.026 71.0686 107.236 73.0002C114.447 74.9317 120.471 79.5566 124.204 86.0221C127.936 92.4877 128.927 100.018 126.994 107.231C125.063 114.442 120.439 120.467 113.974 124.201C109.673 126.688 104.893 127.957 100.05 127.957ZM99.9676 76.0773C95.8242 76.0773 91.7373 77.1623 88.0524 79.2919C82.521 82.4843 78.5675 87.6405 76.9129 93.8091C75.2604 99.9776 76.1089 106.421 79.3028 111.951C82.4948 117.481 87.6504 121.437 93.8181 123.09C99.9858 124.743 106.428 123.896 111.958 120.702C117.487 117.509 121.443 112.353 123.095 106.184C124.748 100.016 123.899 93.5706 120.707 88.0406C117.515 82.5085 112.36 78.5545 106.192 76.8997C104.133 76.3521 102.042 76.0773 99.9676 76.0773Z" fill="#3CB9A7"/>
<path d="M25.3719 150.238C24.7092 150.238 24.0587 149.912 23.6729 149.312C5.10911 120.518 4.21011 84.2124 21.3254 54.5639C33.4588 33.5448 53.0528 18.5084 76.4954 12.2268C99.938 5.9451 124.425 9.16978 145.441 21.3048C146.407 21.8624 146.738 23.0969 146.181 24.0648C145.623 25.0305 144.385 25.3599 143.421 24.8043C123.34 13.2087 99.944 10.1275 77.5399 16.1283C55.1397 22.1312 36.4184 36.4988 24.8224 56.5844C8.46671 84.9155 9.32732 119.609 27.0648 147.122C27.6688 148.06 27.3981 149.31 26.4628 149.914C26.1254 150.133 25.7456 150.238 25.3719 150.238Z" fill="#3CB9A7"/>
<path d="M99.8572 190.911C84.1116 190.911 68.5762 186.783 54.5761 178.699C53.6104 178.142 53.2791 176.907 53.8367 175.939C54.3942 174.971 55.6246 174.64 56.5963 175.2C76.6793 186.799 100.077 189.876 122.476 183.876C144.876 177.873 163.597 163.503 175.193 143.418C189.983 117.798 190.761 86.7572 177.274 60.3859C176.767 59.3918 177.159 58.1755 178.153 57.6683C179.143 57.1592 180.361 57.5512 180.87 58.5452C194.983 86.143 194.167 118.626 178.69 145.436C166.557 166.457 146.963 181.496 123.52 187.777C115.694 189.872 107.748 190.911 99.8572 190.911Z" fill="#3CB9A7"/>
<path d="M153.633 41.0588C151.437 41.0588 149.269 40.483 147.315 39.3556C144.382 37.6624 142.287 34.9287 141.408 31.6596C140.534 28.3884 140.982 24.9718 142.675 22.0401C146.17 15.9867 153.938 13.9097 159.99 17.401C162.924 19.0942 165.019 21.8279 165.895 25.0991C166.77 28.3682 166.322 31.7848 164.629 34.7165C162.934 37.6483 160.202 39.7455 156.934 40.6224C155.841 40.9154 154.734 41.0588 153.633 41.0588ZM153.669 19.7448C150.681 19.7448 147.772 21.2945 146.176 24.0605C145.022 26.0588 144.717 28.3864 145.313 30.613C145.909 32.8415 147.34 34.7044 149.336 35.8561C153.461 38.2362 158.748 36.8178 161.132 32.6961C162.285 30.6978 162.59 28.3702 161.996 26.1437C161.398 23.9151 159.97 22.0522 157.974 20.9005C156.614 20.1166 155.132 19.7448 153.669 19.7448Z" fill="#3CB9A7"/>
<path d="M153.633 41.0588C151.437 41.0588 149.269 40.483 147.315 39.3556C144.382 37.6624 142.287 34.9287 141.408 31.6596C140.534 28.3884 140.982 24.9718 142.675 22.0401C146.17 15.9867 153.938 13.9097 159.99 17.401C162.924 19.0942 165.019 21.8279 165.895 25.0991C166.77 28.3682 166.322 31.7848 164.629 34.7165C162.934 37.6483 160.202 39.7455 156.934 40.6224C155.841 40.9154 154.734 41.0588 153.633 41.0588ZM153.669 19.7448C150.681 19.7448 147.772 21.2945 146.176 24.0605C145.022 26.0588 144.717 28.3864 145.313 30.613C145.909 32.8415 147.34 34.7044 149.336 35.8561C153.461 38.2362 158.748 36.8178 161.132 32.6961C162.285 30.6978 162.59 28.3702 161.996 26.1437C161.398 23.9151 159.97 22.0522 157.974 20.9005C156.614 20.1166 155.132 19.7448 153.669 19.7448Z" fill="#3CB9A7"/>
</svg>
