<svg width="200" height="200" viewBox="0 0 200 200" fill="none" xmlns="http://www.w3.org/2000/svg">
<rect width="200" height="200" rx="100" fill="#006FFF"/>
<path d="M97.3922 79.997H50.3783C50.0588 78.7596 50.0588 77.4613 50.3783 76.2238C55.2284 66.6626 63.0731 58.9504 72.7156 54.2639C75.4344 53.6194 78.2227 53.3152 81.0166 53.3583H150.141C150.141 54.6412 150.141 55.8486 149.689 57.056C149.689 66.489 140.105 80.1479 130.294 79.6952C128.762 79.8084 127.223 79.8084 125.691 79.6952C120.71 79.6952 118.598 79.6952 113.617 79.6952H103.58C103.5 79.6488 103.409 79.6244 103.316 79.6244C103.223 79.6244 103.132 79.6488 103.052 79.6952H103.807C107.429 78.7141 111.353 82.5628 113.617 86.7887C115.163 90.008 115.889 93.5596 115.73 97.1273C115.73 108.824 114.749 121.2 114.824 132.897C114.824 136.142 114.824 139.387 114.824 142.632C114.872 144.133 115.074 145.625 115.428 147.084C116.032 149.65 117.541 149.197 120.031 150.254C122.522 151.31 124.484 148.216 126.068 148.744C126.241 149.447 126.219 150.182 126.007 150.873C125.794 151.564 125.398 152.185 124.861 152.669C122.208 155.3 118.89 157.161 115.261 158.052C111.632 158.943 107.829 158.829 104.259 157.725C101.694 156.819 102.901 154.932 100.939 153.046C99.4426 151.563 98.2733 149.782 97.5065 147.82C96.7396 145.857 96.3922 143.756 96.4866 141.651C96.4866 121.125 97.2413 101.731 97.2413 81.2799L97.3922 79.997Z" fill="#0149A7"/>
<path d="M107.362 155.614C104.792 155.618 102.24 155.184 99.816 154.331C96.9975 153.472 94.4152 151.974 92.2696 149.954C90.5822 148.3 89.2605 146.31 88.3896 144.114C87.5187 141.917 87.1181 139.562 87.2135 137.201C87.1632 116.926 87.1381 96.5261 87.1381 75.9999H51.8211V74.5661C51.4281 73.0313 51.4281 71.4222 51.8211 69.8874C52.3993 66.6335 53.9024 63.6151 56.1506 61.1928C58.3989 58.7706 61.2972 57.0471 64.499 56.2284C67.4469 55.5841 70.463 55.3053 73.4791 55.3983H144.717L144.34 58.6433C144.288 59.5078 144.161 60.3662 143.962 61.209C143.32 65.0632 141.428 68.5991 138.578 71.2719C135.728 73.9447 132.078 75.6061 128.19 75.9999C125.7 75.9999 123.21 75.9999 120.644 75.9999H101.476C103.863 77.7752 105.78 80.1067 107.06 82.7917C108.769 86.0294 109.699 89.621 109.777 93.2811V128.825C109.777 132.069 109.777 135.314 109.777 138.484C109.842 139.854 110.018 141.217 110.305 142.559C110.505 143.498 110.924 144.377 111.527 145.124C112.13 145.872 112.901 146.466 113.777 146.86C114.732 147.28 115.716 147.633 116.72 147.917L121.55 149.577L119.512 151.464L118.757 152.067C115.375 154.312 111.421 155.543 107.362 155.614Z" fill="black"/>
<path d="M142.595 57.2106C142.595 58.4935 142.595 59.701 142.142 60.8329C141.507 64.2504 139.781 67.37 137.223 69.7237C134.666 72.0775 131.414 73.5387 127.955 73.8881C125.442 74.0434 122.922 74.0434 120.409 73.8881H95.5057L94.6756 74.4918L95.4303 74.8692C99.6881 76.4668 103.226 79.5487 105.391 83.5475C106.843 86.5842 107.566 89.9173 107.504 93.2823C107.504 104.979 107.504 116.752 107.504 128.448C107.504 131.693 107.504 134.938 107.504 138.183C107.552 139.684 107.754 141.176 108.108 142.636C108.339 143.87 108.874 145.026 109.664 146.002C110.455 146.977 111.476 147.739 112.636 148.22C114.07 148.824 115.655 149.276 117.164 149.805H118.145L117.541 150.257C114.445 152.29 110.831 153.39 107.127 153.427C104.867 153.412 102.624 153.03 100.486 152.295C97.9344 151.475 95.5912 150.111 93.6192 148.295C92.1227 146.812 90.9535 145.032 90.1866 143.069C89.4198 141.107 89.0724 139.005 89.1668 136.9C89.1668 116.374 89.1668 95.7978 89.1668 75.171V74.2654H53.3215C53.0177 73.0261 53.0177 71.7316 53.3215 70.4923C53.8533 67.4818 55.2608 64.6949 57.3681 62.4802C59.4754 60.2655 62.189 58.7213 65.1693 58.0407C67.9 57.4834 70.684 57.2303 73.4703 57.2861H142.595M146.897 53.5129H73.4703C70.4515 53.4544 67.4365 53.7584 64.4902 54.4185C60.8821 55.264 57.5981 57.1412 55.0387 59.8212C52.4793 62.5012 50.7552 65.8681 50.0766 69.5112C49.6291 71.3203 50 73 50.0766 75.0201V77.9632H85.5445C85.5445 97.7347 85.5445 117.456 85.5445 137.127C85.4348 139.779 85.8817 142.426 86.8565 144.895C87.8313 147.364 89.3123 149.602 91.2043 151.465C93.5656 153.688 96.4054 155.341 99.5053 156.295C101.933 157.145 104.48 157.604 107.052 157.653C111.442 157.606 115.731 156.325 119.428 153.955C119.685 153.823 119.915 153.643 120.107 153.427L125.842 148.899L119.126 146.635L117.315 145.805L114.523 144.749C113.909 144.505 113.371 144.106 112.96 143.589C112.55 143.073 112.282 142.458 112.183 141.805C111.865 140.572 111.688 139.306 111.655 138.032C111.655 134.863 111.655 131.693 111.655 128.448V113.733C111.655 106.866 111.655 99.9986 111.655 93.1314C111.675 89.2928 110.824 85.4998 109.165 82.0382C108.463 80.5486 107.576 79.154 106.523 77.8877H120.56C123.276 77.8877 125.842 77.8877 128.106 77.8877C132.346 77.4182 136.325 75.605 139.461 72.7131C142.598 69.8212 144.727 66.0022 145.538 61.8139C145.538 60.9084 145.538 60.0028 145.916 59.0218V57.8898L146.897 53.362V53.5129Z" fill="white"/>
</svg>
