
<?xml version="1.0" encoding="UTF-8"?>
<!DOCTYPE svg  PUBLIC '-//W3C//DTD SVG 1.1//EN'  'http://www.w3.org/Graphics/SVG/1.1/DTD/svg11.dtd'>
<svg clip-rule="evenodd" fill-rule="evenodd" image-rendering="optimizeQuality" shape-rendering="geometricPrecision" text-rendering="geometricPrecision" version="1.1" viewBox="0 0 200 200" xmlns="http://www.w3.org/2000/svg">
<path d="m-0.5-0.5h200v176h-8c1.667 7-1 9.667-8 8v8c10.627 0.657 10.627 1.324 0 2-5.074-0.426-10.074-1.259-15-2.5-2.493-6.68-0.159-9.18 7-7.5v-8h-6c0.392-3.222-0.108-6.222-1.5-9-6.504 0.506-11.504 3.506-15 9-0.667-1.333-1.333-1.333-2 0 0.152 2.019 0.652 4.019 1.5 6-1.699-0.027-3.033-0.694-4-2 1.22-1.784 1.22-3.45 0-5v-1c4.26-5.436 8.76-10.769 13.5-16 1.049 1.607 2.549 2.273 4.5 2-0.253 2.327 0.414 4.327 2 6 2.921 0.907 5.921 1.24 9 1v-3c0.817-5.513-1.517-8.18-7-8-0.111-0.617-0.444-1.117-1-1.5 3.123-1.721 6.456-2.888 10-3.5 0.322 2.222-0.345 4.056-2 5.5 2.09 0.268 3.424-0.732 4-3-0.951-3.057-1.284-6.223-1-9.5 0.333-0.667 0.667-1.333 1-2 1.225-0.652 1.892-1.819 2-3.5 0.018-2.442-0.649-4.608-2-6.5-0.423-0.765-0.757-1.598-1-2.5 1.23-3.773 2.23-7.606 3-11.5 1.231 1.151 1.231 2.317 0 3.5 1.601 0.273 3.101 0.773 4.5 1.5 0.499 4.321 0.666 8.654 0.5 13-3.672 0.545-3.338 0.878 1 1v-16h-4c0.535-2.738-0.465-4.572-3-5.5 2.264-0.236 4.431-0.736 6.5-1.5 1.234-4.674 2.4-9.341 3.5-14 0.647-4.0727-1.019-6.0727-5-6-0.514-6.3217-0.847-12.655-1-19-1.052 0.1495-2.052-0.0172-3-0.5 2.31-0.4966 4.643-0.6633 7-0.5-0.529-3.5876-0.529-7.0876 0-10.5-0.333-0.8333-0.667-1.6667-1-2.5-0.952 1.5453-1.285 3.212-1 5-1.792 0.134-3.458-0.1993-5-1v-1c-0.304-0.6499-0.637-1.3165-1-2 1.667-0.6667 3.333-1.3333 5-2-2.607-0.8184-5.274-1.3184-8-1.5 0.837-1.0113 1.17-2.1779 1-3.5-2.449 0.5574-4.782 0.5574-7 0 2.048-2.6416 4.714-4.4749 8-5.5 1.323-0.8159 1.989-1.9826 2-3.5 1.958-5.3534-0.042-8.0201-6-8-0.111-0.6174-0.444-1.1174-1-1.5-2.982-0.498-5.982-0.6646-9-0.5-0.067-1.4587 0.266-2.7921 1-4v-4h-5-3c0.157 1.3734-0.01 2.7068-0.5 4-0.71-1.4733-1.876-2.1399-3.5-2 0.149 1.052-0.017 2.052-0.5 3-1.113-1.2111-2.28-1.2111-3.5 0-1.03-2.0173-2.03-4.0173-3-6 0.942-3.4758-0.058-3.8092-3-1-1.126-3.626-3.459-6.126-7-7.5-4.109-0.6648-8.109-1.4982-12-2.5v-3c-9.367-1.3753-18.7-3.042-28-5-13.282 1.8308-26.616 3.3308-40 4.5-2.2521 2.8871-5.2521 4.2205-9 4-3.9402 1.8865-7.4402 4.3865-10.5 7.5-3.1247-1.2874-6.2913-1.2874-9.5 0-3.9402 4.7882-8.9402 7.6216-15 8.5 1.4931 1.3681 2.9931 1.5348 4.5 0.5 0.8333 1.5 2 2.6667 3.5 3.5-2.2078 0.1909-4.2078 0.6909-6 1.5v2c-1.4418 1.3195-2.1085 2.9862-2 5-5.1836 1.8507-7.5169 5.5173-7 11-1.3734-0.1567-2.7068 0.01-4 0.5-1.345 2.8995-3.0117 5.3995-5 7.5v-64z" fill="#028196"/>
<path d="m163.5 27.5c-0.16 1.6992 6e-3 3.3659 0.5 5 1.356-0.8802 2.856-1.2135 4.5-1-0.734 1.2079-1.067 2.5413-1 4 3.018-0.1646 6.018 2e-3 9 0.5 0.556 0.3826 0.889 0.8826 1 1.5-1.947 0.9734-3.947 1.9734-6 3 0.746 1.2362 1.079 2.5695 1 4-2.369 0.3511-4.703 0.5178-7 0.5 0.333-0.3333 0.667-0.6667 1-1-2.582-1.3332-5.249-2.4998-8-3.5 1.578-0.7978 3.244-1.2978 5-1.5-1.333-0.3333-2.667-0.6667-4-1 1.187-1.0195 2.187-2.1861 3-3.5-0.5-0.3333-1-0.6667-1.5-1-4.793 1.2325-9.46 2.5659-14 4-1.477-4.1961-2.311-8.5295-2.5-13-2.091-0.1816-4.091 0.1518-6 1-0.765-1.1119-1.765-1.7786-3-2-2.323 1.0821-4.657 0.9154-7-0.5 0.333-0.3333 0.667-0.6667 1-1-2.917-2.4312-6.25-3.5979-10-3.5v-3c-3.497 1.2048-6.497 0.7048-9-1.5-12.425-2.2233-24.258-0.7233-35.5 4.5-1.7106 0.0607-3.044-0.6059-4-2-1.3373 3.7379-3.6706 4.4045-7 2-1.1882 1.0634-1.6882 2.3967-1.5 4-2.5248 1.14-5.1915 1.8067-8 2v4c-7.5299-0.728-13.863 1.6054-19 7 0.4767 0.9776 1.1433 1.8109 2 2.5-6.6843 0.5464-13.351 0.3797-20-0.5 1.7922-0.8091 3.7922-1.3091 6-1.5-1.5-0.8333-2.6667-2-3.5-3.5-1.5069 1.0348-3.0069 0.8681-4.5-0.5 6.0598-0.8784 11.06-3.7118 15-8.5 3.2087-1.2874 6.3753-1.2874 9.5 0 3.0598-3.1135 6.5598-5.6135 10.5-7.5 3.7479 0.2205 6.7479-1.1129 9-4 13.384-1.1692 26.718-2.6692 40-4.5 9.3 1.958 18.633 3.6247 28 5v3c3.891 1.0018 7.891 1.8352 12 2.5 3.541 1.374 5.874 3.874 7 7.5 2.942-2.8092 3.942-2.4758 3 1 0.97 1.9827 1.97 3.9827 3 6 1.22-1.2111 2.387-1.2111 3.5 0 0.483-0.948 0.649-1.948 0.5-3 1.624-0.1399 2.79 0.5267 3.5 2 0.49-1.2932 0.657-2.6266 0.5-4h3z" fill="#068696"/>
<path d="m135.5 23.5c0.538 1.6172 0.871 3.2839 1 5-3.74-0.2592-7.406 0.0741-11 1-1.484-1.5737-3.151-2.907-5-4-0.798 0.4569-1.131 1.1236-1 2h-2c-2.903-4.9499-7.236-6.9499-13-6v-4c-2.9-0.0922-4.5667 1.2411-5 4-4.5029 0.6532-8.5029 2.4866-12 5.5-8.7145 0.7751-17.381 0.6085-26-0.5-2.4601-0.6363-4.7935 0.0303-7 2v-4c2.8085-0.1933 5.4752-0.86 8-2-0.1882-1.6033 0.3118-2.9366 1.5-4 3.3294 2.4045 5.6627 1.7379 7-2 0.956 1.3941 2.2894 2.0607 4 2 11.242-5.2233 23.075-6.7233 35.5-4.5 2.503 2.2048 5.503 2.7048 9 1.5v3c3.75-0.0979 7.083 1.0688 10 3.5-0.333 0.3333-0.667 0.6667-1 1 2.343 1.4154 4.677 1.5821 7 0.5z" fill="#078d97"/>
<path d="m30.5 25.5c3.85 0.2007 4.85 2.0341 3 5.5-4.7783 0.0734-5.7783-1.7599-3-5.5z" fill="#aba270"/>
<path d="m104.5 21.5c-5.339 1.9834-7.6724 5.9834-7 12v4c-2.9771 0.1845-5.6438 0.1845-8 0v-3c-1.3055-5.8618 1.0279-8.3618 7-7.5 1.0266-1.8665 2.0266-3.6998 3-5.5 0.4333-2.7589 2.1-4.0922 5-4v4z" fill="#6d9a82"/>
<path d="m104.5 21.5c5.764-0.9499 10.097 1.0501 13 6 0.79 1.2942 1.79 2.4609 3 3.5-7.933-0.0848-15.6 0.7485-23 2.5-0.6724-6.0166 1.661-10.017 7-12z" fill="#0da3a0"/>
<path d="m163.5 27.5h5v4c-1.644-0.2135-3.144 0.1198-4.5 1-0.494-1.6341-0.66-3.3008-0.5-5z" fill="#aea979"/>
<path d="m91.5 28.5c4.7411-0.3386 6.0744 1.6614 4 6-1.5421 1.2468-3.0421 1.2468-4.5 0-0.6776-2.0976-0.5109-4.0976 0.5-6z" fill="#bb894b"/>
<path d="m136.5 28.5c-0.073 1.5269 0.594 2.5269 2 3 0.734 1.2079 1.067 2.5413 1 4 3.308-0.5262 5.474 0.8072 6.5 4 0.494 1.6341 0.66 3.3008 0.5 5-0.052 2.4029 0.281 4.7362 1 7-0.667-0.3333-1.333-0.6667-2-1v-3c-5.065-0.281-10.065 0.0524-15 1 0.094-1.4715-0.906-2.6382-3-3.5 0.793-1.0852 1.46-2.2519 2-3.5-1.923-0.8078-3.923-1.3078-6-1.5-0.691-1.0674-1.191-2.2341-1.5-3.5-1.44 1.5456-3.273 2.379-5.5 2.5 1.912 3.2356 2.912 6.7356 3 10.5-0.667-1-1.333-2-2-3-0.756-4.4616-3.089-6.4616-7-6-0.667 0.3333-1.333 0.6667-2 1 1.433-2.0582 2.1-4.3915 2-7-1.644-0.2135-3.144 0.1198-4.5 1-2.078-1.8847-4.245-2.5514-6.5-2 8.225-1.3146 16.392-1.3146 24.5 0l1.5-1.5c-2.729-0.5661-4.729-2.0661-6-4.5-0.131-0.8764 0.202-1.5431 1-2 1.849 1.093 3.516 2.4263 5 4 3.594-0.9259 7.26-1.2592 11-1z" fill="#1ca8a0"/>
<path d="m99.5 21.5c-0.9734 1.8002-1.9734 3.6335-3 5.5-5.9721-0.8618-8.3055 1.6382-7 7.5-1.3195 1.4418-2.9862 2.1085-5 2v-3c-6.6998-0.33-13.366 0.0033-20 1 0.468 1.6338 1.468 2.8005 3 3.5-0.6667 0.3333-1.3333 0.6667-2 1 1.2112 0.8928 1.2112 1.7261 0 2.5-3.3084 0.1234-6.6417 0.1234-10 0-1.5564 1.0471-3.2231 1.7137-5 2 0.2845 1.9147-0.0489 3.5813-1 5 0.3493-5.5203-2.3174-7.8536-8-7 4.5897-0.4596 8.923-1.9596 13-4.5 0.8366-1.0113 1.17-2.1779 1-3.5 1.6992-0.1602 3.3659 0.0065 5 0.5-1.2836 1.2975-1.1169 2.4642 0.5 3.5 0.3742-0.9162 0.8742-1.7496 1.5-2.5-1.2111-1.1131-1.2111-2.2798 0-3.5-0.3457-1.1956-0.8457-1.1956-1.5 0-0.7796-1.8869-0.6129-3.5536 0.5-5 8.6188 1.1085 17.286 1.2751 26 0.5 3.4971-3.0134 7.4971-4.8468 12-5.5z" fill="#20a8a0"/>
<path d="m17.5 39.5c4.0093-0.8143 6.6759 0.6857 8 4.5-2.3362 4.0327-5.3362 4.5327-9 1.5-0.6667 0-1-0.3333-1-1-0.1085-2.0138 0.5582-3.6805 2-5z" fill="#b79854"/>
<path d="m117.5 46.5c-1.526-0.6047-2.526-1.7714-3-3.5-1.293-0.49-2.627-0.6567-4-0.5v-2c3.911-0.4616 6.244 1.5384 7 6z" fill="#f2d8d7"/>
<path d="m117.5 27.5h2c1.271 2.4339 3.271 3.9339 6 4.5l-1.5 1.5c-8.108-1.3146-16.275-1.3146-24.5 0 2.255-0.5514 4.422 0.1153 6.5 2 1.356-0.8802 2.856-1.2135 4.5-1 0.1 2.6085-0.567 4.9418-2 7-1.339 2.3733-2.672 4.7067-4 7h-17-6c-0.9959 0.0858-1.8292-0.2476-2.5-1-0.7975-1.7588-0.6309-3.4255 0.5-5 3.0812-2.2072 6.4145-3.8739 10-5 2.3562 0.1845 5.0229 0.1845 8 0v-4c7.4-1.7515 15.067-2.5848 23-2.5-1.21-1.0391-2.21-2.2058-3-3.5z" fill="#2cc6b3"/>
<path d="m89.5 34.5v3c-3.5855 1.1261-6.9188 2.7928-10 5-1.1309 1.5745-1.2975 3.2412-0.5 5 0.6708 0.7524 1.5041 1.0858 2.5 1-1.2054 1.1857-2.5387 1.1857-4 0v-2c-0.0106-1.5174-0.6772-2.6841-2-3.5-2.2116-0.7891-4.2116-0.6225-6 0.5-1.4985 5.3314-4.8318 6.6648-10 4-4.242-0.722-7.5753 0.6113-10 4 1.2287 0.7811 2.562 1.2811 4 1.5-1.146 0.6449-2.146 1.4783-3 2.5-5.765-3.6837-9.0983-2.3503-10 4-2.071-0.0023-4.2377 0.3311-6.5 1-0.4828-0.948-0.6495-1.948-0.5-3-3.8232 0.3331-5.3232-1.3336-4.5-5 3.3393 0.2088 6.8393-0.1246 10.5-1 3.9749 0.6422 7.3082-0.3578 10-3 0.9511-1.4187 1.2845-3.0853 1-5 1.7769-0.2863 3.4436-0.9529 5-2 3.3583 0.1234 6.6916 0.1234 10 0 1.2112-0.7739 1.2112-1.6072 0-2.5 0.6667-0.3333 1.3333-0.6667 2-1-1.532-0.6995-2.532-1.8662-3-3.5 6.6335-0.9967 13.3-1.33 20-1v3c2.0138 0.1085 3.6805-0.5582 5-2z" fill="#2eb9a8"/>
<path d="m77.5 46.5c-0.9584-0.4528-1.7917-1.1195-2.5-2-0.4643 0.5944-0.631 1.2611-0.5 2 0.0654 0.4382-0.1012 0.7716-0.5 1-2.1777-2.9685-3.3444-2.6351-3.5 1h-1v-5c1.7884-1.1225 3.7884-1.2891 6-0.5 1.3228 0.8159 1.9894 1.9826 2 3.5z" fill="#a7b4b3"/>
<path d="m41.5 41.5c5.6826-0.8536 8.3493 1.4797 8 7-2.6918 2.6422-6.0251 3.6422-10 3-1.7185-2.4262-2.2185-5.0929-1.5-8 0.8159-1.3228 1.9826-1.9894 3.5-2z" fill="#bb9a52"/>
<path d="m145.5 50.5c-0.812 2.2757-2.146 4.2757-4 6-2.439 0.9073-4.772 1.9073-7 3h-2c-0.762-1.7624-2.096-2.7624-4-3-0.473-1.4063-1.473-2.073-3-2-0.473-1.4063-1.473-2.073-3-2 0-0.6667-0.333-1-1-1-0.667-0.6667-1.333-1.3333-2-2-0.088-3.7644-1.088-7.2644-3-10.5 2.227-0.121 4.06-0.9544 5.5-2.5 0.309 1.2659 0.809 2.4326 1.5 3.5 2.077 0.1922 4.077 0.6922 6 1.5-0.54 1.2481-1.207 2.4148-2 3.5 2.094 0.8618 3.094 2.0285 3 3.5 4.935-0.9476 9.935-1.281 15-1v3z" fill="#1bd0b8"/>
<path d="m109.5 43.5c-0.635 2.9929-0.801 5.9929-0.5 9 1.356 0.8802 2.856 1.2135 4.5 1 1.263 3.2574 3.263 5.924 6 8-1.208 2.5442-3.208 3.8775-6 4-0.295-3.7279-0.961-7.3946-2-11-1.236 0.7458-2.57 1.0792-4 1v-8c0.489-1.4952 1.155-2.8285 2-4z" fill="#e15d6c"/>
<path d="m110.5 42.5c1.373-0.1567 2.707 0.01 4 0.5 0.474 1.7286 1.474 2.8953 3 3.5 0.667 1 1.333 2 2 3 0.662 3.9659 0.995 7.9659 1 12h-1c-2.737-2.076-4.737-4.7426-6-8-1.644 0.2135-3.144-0.1198-4.5-1-0.301-3.0071-0.135-6.0071 0.5-9 0-0.6667 0.333-1 1-1z" fill="#f78788"/>
<path d="m110.5 40.5v2c-0.667 0-1 0.3333-1 1-0.845 1.1715-1.511 2.5048-2 4-1.333 3.3333-1.333 6.6667 0 10-0.801 1.5418-1.134 3.2085-1 5 0.333 2 0.667 4 1 6 0.31 1.6436 1.31 2.6436 3 3 1.202 1.8925 2.535 3.7258 4 5.5 1.249 0.7401 2.249 0.5735 3-0.5 0.904 0.709 1.237 1.709 1 3-0.214 1.6439 0.12 3.1439 1 4.5-0.805 1.1127-1.472 2.2794-2 3.5h-1c-1.885-2.7587-4.551-4.4254-8-5 0.221-1.2348 0.888-2.2348 2-3-0.124-0.6067-0.457-0.94-1-1-3.543-4.044-7.543-7.544-12-10.5-4.7328-0.9621-8.5661 0.5379-11.5 4.5-1.7414-3.9794-4.5747-4.9794-8.5-3 1.5635-2.6316 1.2301-4.9649-1-7 0.8242-3.2644 1.1576-6.5977 1-10 1.7459 1.7516 3.7459 3.0849 6 4 0.6667 0 1 0.3333 1 1 1.1322 2.299 2.9655 3.6323 5.5 4 4.5326 0.1196 8.0326-1.5471 10.5-5 0.667-1 1.333-2 2-3 0.904-0.709 1.237-1.709 1-3 0.838-0.3417 1.172-1.0084 1-2 1.328-2.2933 2.661-4.6267 4-7 0.667-0.3333 1.333-0.6667 2-1z" fill="#4c2e54"/>
<path d="m69.5 43.5v5c0.3928 3.0133-0.2739 5.6799-2 8-2.911 2.4207-6.2443 4.0874-10 5-0.9028-2.619-2.5695-3.2856-5-2-1.6809 3.2778-0.6809 5.2778 3 6-1.425 1.422-2.425 3.0887-3 5-2.8248 0.9779-4.1581 2.9779-4 6h-3v5c-2.2289 6.478-3.5623 13.145-4 20-1.6993-0.027-3.0326-0.694-4-2v-3c-2.6873 0.1641-5.354-0.0026-8-0.5-1.3333-1.6667-1.3333-3.3333 0-5-1.0358-1.6169-2.2025-1.7836-3.5-0.5-0.3768-1.4423-1.2101-2.4423-2.5-3v-1c0.79-1.1085 1.29-2.4419 1.5-4 0.9138 1.1537 1.7471 0.987 2.5-0.5l-1-1c3.602-0.6851 5.7687-2.8518 6.5-6.5 1 1.3333 2 1.3333 3 0 0.3333 1.3333 0.6667 2.6667 1 4 2.4007-4.3342 4.5674-9.1675 6.5-14.5-0.5944-0.4643-1.2611-0.631-2-0.5-0.3333-1.3333-0.6667-2.6667-1-4 0.9017-6.3503 4.235-7.6837 10-4 0.854-1.0217 1.854-1.8551 3-2.5-1.438-0.2189-2.7713-0.7189-4-1.5 2.4247-3.3887 5.758-4.722 10-4 5.1682 2.6648 8.5015 1.3314 10-4z" fill="#33d8c0"/>
<path d="m61.5 26.5c-1.1129 1.4464-1.2796 3.1131-0.5 5 0.6543-1.1956 1.1543-1.1956 1.5 0-1.2111 1.2202-1.2111 2.3869 0 3.5-0.6258 0.7504-1.1258 1.5838-1.5 2.5-1.6169-1.0358-1.7836-2.2025-0.5-3.5-1.6341-0.4935-3.3008-0.6602-5-0.5 0.17 1.3221-0.1634 2.4887-1 3.5-4.077 2.5404-8.4103 4.0404-13 4.5-1.5174 0.0106-2.6841 0.6772-3.5 2-0.7185 2.9071-0.2185 5.5738 1.5 8-3.6607 0.8754-7.1607 1.2088-10.5 1-0.8232 3.6664 0.6768 5.3331 4.5 5-0.1495 1.052 0.0172 2.052 0.5 3 2.2623-0.6689 4.429-1.0023 6.5-1 0.3333 1.3333 0.6667 2.6667 1 4-3.7427-2.9283-7.0761-2.595-10 1-0.7679 0.7625-1.2679 1.7625-1.5 3-0.7771-1.7148-2.1105-2.7148-4-3-2.6789 1.3945-5.5123 2.0612-8.5 2-0.3333-4-0.6667-4-1 0-4 0.3333-4 0.6667 0 1v5h-5c-0.2035 1.8904 0.4632 3.3904 2 4.5-0.7583 1.3639-0.2583 2.5305 1.5 3.5 6.4319-2.8034 9.2652-0.8034 8.5 6v1c-0.3634 2.2773-1.3634 2.9439-3 2-0.9776 0.4767-1.8109 1.1433-2.5 2-0.7096-1.4733-1.8762-2.1399-3.5-2 0.1399 1.6238-0.5267 2.7904-2 3.5 1.0733 1.2504 1.0733 2.5838 0 4 1.4587 2.6422 1.792 5.309 1 8 0.944 1.477 2.2774 2.477 4 3-0.2284 0.399-0.5618 0.565-1 0.5-1.1879 1.184-2.3545 1.184-3.5 0-0.3333-1.667-0.6667-3.333-1-5-1.1313 1.104-1.9646 0.771-2.5-1 0.6667-0.333 1.3333-0.667 2-1-0.6272-0.917-0.9606-1.9168-1-3 2.4003-6.2184 0.7336-7.885-5-5-0.03944-1.0832-0.37277-2.0832-1-3 0.82496-0.8857 1.825-1.219 3-1-0.52914-3.8506 0.13753-7.3506 2-10.5-1.3228-0.8159-1.9894-1.9826-2-3.5h3v-4c2.1662-2.6905 2.4995-5.6905 1-9 0.5412-2.0352 1.2078-4.0352 2-6 3.2577-0.9173 6.591-1.2507 10-1 0.7793-2.5747 0.6127-4.908-0.5-7-3.4614 1.6838-5.628 0.6838-6.5-3 3.6638 3.0327 6.6638 2.5327 9-1.5-1.3241-3.8143-3.9907-5.3143-8-4.5v-2c6.6491 0.8797 13.316 1.0464 20 0.5-0.8567-0.6891-1.5233-1.5224-2-2.5 5.1367-5.3946 11.47-7.728 19-7 2.2065-1.9697 4.5399-2.6363 7-2z" fill="#2e9997"/>
<path d="m181.5 131.5c1.351 1.892 2.018 4.058 2 6.5-0.108 1.681-0.775 2.848-2 3.5-0.333 0.667-0.667 1.333-1 2-4.204 0.127-6.537-1.873-7-6 0.09-1.728 0.423-3.394 1-5 2.243-0.974 4.576-1.308 7-1z" fill="#ab8f57"/>
<path d="m181.5 141.5c-2.361-0.174-4.694-0.507-7-1v-6c6.476-1.316 8.809 1.017 7 7z" fill="#c89045"/>
<path d="m-0.5 117.5c1.5174 0.011 2.684 0.677 3.5 2 0.28961 1.544 0.95627 2.877 2 4 0.62404 1.964 0.12404 3.631-1.5 5 5.194 1.33 5.194 2.83 0 4.5 0.69055 1.067 1.1906 2.234 1.5 3.5 0.66667 20 1.3333 20 2 0 2.0408 0.923 4.2075 1.256 6.5 1-0.1658 4.679 8e-4 9.345 0.5 14 2.7514 4 3.7514 8.334 3 13 0.6708-0.752 1.5041-1.086 2.5-1 1.4516 0.802 3.1183 1.302 5 1.5 0.7106 1.255 1.544 2.421 2.5 3.5 1.1131-1.211 2.2798-1.211 3.5 0 0.6497 1.684 1.6497 3.017 3 4 0.701 2.408 1.701 4.742 3 7 2.5063 1.392 5.0063 2.725 7.5 4 1.3239-2 2.9905-3.667 5-5 1.365 3.672 3.365 4.006 6 1 1.0681 4.735 3.9014 7.902 8.5 9.5 6 0.333 12 0.667 18 1 0.3333 0.333 0.6667 0.667 1 1-3.8325 1.369-3.4992 2.203 1 2.5 7.9175-2.493 15.918-3.327 24-2.5 1.146-0.645 2.146-1.478 3-2.5 5.62 0.762 11.286 0.762 17 0v-5c7.14 1.498 11.473-1.169 13-8 0.65 1.684 1.65 3.017 3 4h5c0.967 1.306 2.301 1.973 4 2-0.848-1.981-1.348-3.981-1.5-6 0.667-1.333 1.333-1.333 2 0 3.496-5.494 8.496-8.494 15-9 1.392 2.778 1.892 5.778 1.5 9h6v8c-7.159-1.68-9.493 0.82-7 7.5 4.926 1.241 9.926 2.074 15 2.5 10.627-0.676 10.627-1.343 0-2v-8c7 1.667 9.667-1 8-8h8v24h-200v-82z" fill="#008197"/>
<path d="m170.5 155.5c5.483-0.18 7.817 2.487 7 8h-1c0.443-4.029-1.391-6.029-5.5-6-1.723 2.167-1.89 4.5-0.5 7-4-3-4-6 0-9z" fill="#9f9160"/>
<path d="m176.5 163.5c-0.634 1.447-1.801 2.113-3.5 2-1.07-0.028-1.903-0.361-2.5-1-1.39-2.5-1.223-4.833 0.5-7 4.109-0.029 5.943 1.971 5.5 6z" fill="#c2914d"/>
<path d="m135.5 23.5c1.235 0.2214 2.235 0.8881 3 2 1.909-0.8482 3.909-1.1816 6-1 0.189 4.4705 1.023 8.8039 2.5 13 4.54-1.4341 9.207-2.7675 14-4 0.5 0.3333 1 0.6667 1.5 1-0.813 1.3139-1.813 2.4805-3 3.5 1.333 0.3333 2.667 0.6667 4 1-1.756 0.2022-3.422 0.7022-5 1.5 2.751 1.0002 5.418 2.1668 8 3.5-0.333 0.3333-0.667 0.6667-1 1 2.297 0.0178 4.631-0.1489 7-0.5 0.079-1.4305-0.254-2.7638-1-4 2.053-1.0266 4.053-2.0266 6-3 5.958-0.0201 7.958 2.6466 6 8-0.011 1.5174-0.677 2.6841-2 3.5-3.286 1.0251-5.952 2.8584-8 5.5 2.218 0.5574 4.551 0.5574 7 0 0.17 1.3221-0.163 2.4887-1 3.5 2.726 0.1816 5.393 0.6816 8 1.5-1.667 0.6667-3.333 1.3333-5 2 0.363 0.6835 0.696 1.3501 1 2h-4c-0.744 3.4496 0.59 5.1162 4 5v-4c1.542 0.8007 3.208 1.134 5 1-0.285-1.788 0.048-3.4547 1-5 0.333 0.8333 0.667 1.6667 1 2.5-0.529 3.4124-0.529 6.9124 0 10.5-2.357-0.1633-4.69 0.0034-7 0.5 0.948 0.4828 1.948 0.6495 3 0.5 0.153 6.345 0.486 12.678 1 19 3.981-0.0727 5.647 1.9273 5 6-1.1 4.659-2.266 9.326-3.5 14-2.069 0.764-4.236 1.264-6.5 1.5 2.535 0.928 3.535 2.762 3 5.5h4v16c-4.338-0.122-4.672-0.455-1-1 0.166-4.346-1e-3 -8.679-0.5-13-1.399-0.727-2.899-1.227-4.5-1.5 1.231-1.183 1.231-2.349 0-3.5-0.77 3.894-1.77 7.727-3 11.5 0.243 0.902 0.577 1.735 1 2.5-2.424-0.308-4.757 0.026-7 1-0.577 1.606-0.91 3.272-1 5 0.463 4.127 2.796 6.127 7 6-0.284 3.277 0.049 6.443 1 9.5-0.576 2.268-1.91 3.268-4 3 1.655-1.444 2.322-3.278 2-5.5-3.544 0.612-6.877 1.779-10 3.5 0.556 0.383 0.889 0.883 1 1.5-4 3-4 6 0 9 0.597 0.639 1.43 0.972 2.5 1 1.699 0.113 2.866-0.553 3.5-2h1v3c-3.079 0.24-6.079-0.093-9-1-1.586-1.673-2.253-3.673-2-6-1.951 0.273-3.451-0.393-4.5-2-4.74 5.231-9.24 10.564-13.5 16h-4v5c3 0.333 4.333-1 4-4 1.22 1.55 1.22 3.216 0 5h-5c-0.115-2.839-1.448-4.839-4-6-2.609 0.73-5.276 1.23-8 1.5 3.793 0.739 4.626 2.572 2.5 5.5-2.737-1.11-5.571-1.277-8.5-0.5-4.493 3.484-9.493 4.317-15 2.5-4.927 2.866-9.594 2.532-14-1-0.9287 1.189-1.262 2.522-1 4-4.9438-0.322-9.7771-0.322-14.5 0l-1.5-1.5c-3.3333-0.333-6.6667-0.667-10-1-6.8693-4.827-14.536-7.994-23-9.5-0.9776 0.477-1.8109 1.143-2.5 2-0.4643-0.594-0.631-1.261-0.5-2 0.6299-7.719-2.3701-9.719-9-6-0.9519 1.545-1.2852 3.212-1 5-1.3503-0.983-2.3503-2.316-3-4-1.2202-1.211-2.3869-1.211-3.5 0-0.956-1.079-1.7894-2.245-2.5-3.5-1.8817-0.198-3.5484-0.698-5-1.5-0.9959-0.086-1.8292 0.248-2.5 1 0.7514-4.666-0.2486-9-3-13-0.4992-4.655-0.6658-9.321-0.5-14-2.2925 0.256-4.4592-0.077-6.5-1-0.66667 20-1.3333 20-2 0-0.30945-1.266-0.80945-2.433-1.5-3.5 5.194-1.67 5.194-3.17 0-4.5 1.624-1.369 2.124-3.036 1.5-5-1.0437-1.123-1.7104-2.456-2-4-0.81595-1.323-1.9826-1.989-3.5-2v-54c1.9883-2.1005 3.655-4.6005 5-7.5 1.2932-0.49 2.6266-0.6567 4-0.5-0.51691-5.4827 1.8164-9.1493 7-11 0 0.6667 0.3333 1 1 1 0.872 3.6838 3.0386 4.6838 6.5 3 1.1127 2.092 1.2793 4.4253 0.5 7-3.409-0.2507-6.7423 0.0827-10 1-0.7922 1.9648-1.4588 3.9648-2 6 1.4995 3.3095 1.1662 6.3095-1 9-1.3845-1.3009-2.8845-1.3009-4.5 0-0.84421 1.9628-0.34421 3.2961 1.5 4 0.01056 1.5174 0.67723 2.6841 2 3.5-1.8625 3.1494-2.5291 6.6494-2 10.5-1.175-0.219-2.175 0.1143-3 1 0.62723 0.9168 0.96056 1.9168 1 3 0.6439 2.644 2.3106 4.3106 5 5 0.0394 1.0832 0.3728 2.083 1 3-0.6667 0.333-1.3333 0.667-2 1 0.5354 1.771 1.3687 2.104 2.5 1 0.3333 1.667 0.6667 3.333 1 5 1.1455 1.184 2.3121 1.184 3.5 0-0.3769 1.758-1.0435 3.425-2 5 2.2427 0.974 4.576 1.308 7 1-0.2394 1.967 0.0939 3.801 1 5.5-0.948 0.483-1.948 0.649-3 0.5 0.6667 2 1.3333 4 2 6 2.0529-0.098 3.7196 0.569 5 2-0.904 0.709-1.2373 1.709-1 3-4.5274-0.495-5.8607 1.172-4 5v2c1.6701 2.113 3.6701 2.78 6 2 1.6667 2.333 3.6667 4.333 6 6-1.3221-0.17-2.4887 0.163-3.5 1-0.4955 1.973-0.6621 3.973-0.5 6h5c0.1567 1.373-0.01 2.707-0.5 4-1.5994-1.536-3.4328-2.036-5.5-1.5 1.1341 1.016 0.8008 1.683-1 2 1.6374 2.31 3.804 3.81 6.5 4.5-0.6171-1.595-0.2837-2.928 1-4 0.3333 0.667 0.6667 1.333 1 2v-6c1.2985 2.506 2.2985 5.173 3 8 2.5843-2.968 4.5843-2.635 6 1 0.7096-1.473 1.8762-2.14 3.5-2 0.1702 3.176 1.8369 5.176 5 6-0.2093 0.586-0.5426 1.086-1 1.5 6.0476 2.276 12.214 4.109 18.5 5.5 0.8732-0.235 1.7065-0.569 2.5-1 0.3333 0.667 0.6667 1.333 1 2 1.3946-1.315 2.3946-0.981 3 1-3 0.667-6 1.333-9 2 9.3096 0.998 18.643 1.332 28 1 1.422 1.425 3.0887 2.425 5 3 2.065-0.017 4.065-0.35 6-1 1.604-0.787 2.271-2.12 2-4 3.419-4.873 7.753-5.873 13-3 4.684-2.218 9.684-3.384 15-3.5-0.84-1.666-0.34-1.833 1.5-0.5 1.851-2.281 3.518-2.281 5 0 0.465-1.431 1.299-2.597 2.5-3.5-0.951-0.718-1.117-1.551-0.5-2.5 1.518-0.663 2.685-1.663 3.5-3 4.147-1.1 4.813-3.1 2-6-0.039-1.256 0.461-2.256 1.5-3 1.245-0.039 2.578 0.295 4 1 1.169 0.509 2.002 1.342 2.5 2.5 3 0.667 6 0.667 9 0-2.646-0.497-5.313-0.664-8-0.5v-3c2.468 1.25 4.801 1.083 7-0.5l-1.5-1.5c-1.699 0.906-3.533 1.239-5.5 1-1.166-7.832 2.168-11.499 10-11 0.665-2.675 0.665-5.509 0-8.5-0.064-2.718-1.064-4.885-3-6.5v-3c2.942-1.18 5.942-2.18 9-3 1.019-2.104 2.019-4.104 3-6 5.239 0.881 7.906-1.285 8-6.5-1.395-5.592-4.395-6.759-9-3.5-0.667 0.333-1.333 0.667-2 1v-1c-0.659-2.908-1.493-3.242-2.5-1-1.703-1.847-1.536-3.6806 0.5-5.5 1.612-0.7203 3.112-0.5536 4.5 0.5 0.667-2 0.667-4 0-6-1.494 3.8041-2.328 3.4707-2.5-1 4.298-1.0371 4.631-2.5371 1-4.5 2.429-0.4512 2.596-1.2845 0.5-2.5-1.018 1.2059-1.518 0.8726-1.5-1 0.069-4.6874 0.069-9.3541 0-14 2.491-1.0407 2.491-1.8741 0-2.5 0.237-2.2884 0.237-4.7884 0-7.5-1.788-0.2852-3.455 0.0481-5 1 0.525 0.6924 1.192 1.1924 2 1.5-1.525 1.0086-3.192 1.5086-5 1.5-1.439-2.088-2.106-4.4214-2-7-1.478 0.262-2.811-0.0713-4-1 0.774-1.2112 1.607-1.2112 2.5 0 0.483-0.948 0.649-1.948 0.5-3-3.198 0.5356-5.865-0.131-8-2 0.827-7.0027-2.173-9.5027-9-7.5-0.566 0.9947-1.233 1.828-2 2.5 0.16-1.6992-6e-3 -3.3659-0.5-5-1.026-3.1928-3.192-4.5262-6.5-4 0.067-1.4587-0.266-2.7921-1-4-1.406-0.4731-2.073-1.4731-2-3-0.129-1.7161-0.462-3.3828-1-5z" fill="#238f97"/>
<path d="m65.5 154.5c2.1076 4.851 0.7742 8.517-4 11-2.5821 0.475-4.5821-0.192-6-2 7.1699 1.161 10.503-1.839 10-9z" fill="#779572"/>
<path d="m151.5 155.5c2.813 2.9 2.147 4.9-2 6-0.841-1.879-1.175-3.879-1-6h3z" fill="#a96"/>
<path d="m19.5 163.5c-0.3841-2.165 0.2826-3.832 2-5 1.7174 1.168 2.3841 2.835 2 5h-4z" fill="#9d9777"/>
<path d="m136.5 150.5c0 0.667 0.333 1 1 1v1c1.109 0.79 2.442 1.29 4 1.5l-1 1c1.667 0.333 3.333 0.667 5 1-1.266 0.309-2.433 0.809-3.5 1.5-3.689-1.939-6.023-0.939-7 3l-1-1c-3.745 0.797-7.579 1.297-11.5 1.5-0.857 0.689-1.523 1.522-2 2.5 1.353 1.024 2.02 2.357 2 4-4.082-0.379-7.749 0.621-11 3 1.006 0.896 1.006 1.562 0 2-0.917-0.627-1.917-0.961-3-1-2.3-1.702-4.967-2.368-8-2-0.7216-0.418-1.2216-1.084-1.5-2-1.6973 4.761-3.5306 4.927-5.5 0.5-2.6667-0.333-5.3333-0.667-8-1-1.0981-0.77-1.0981-1.603 0-2.5 0.5843-1.757 1.751-3.09 3.5-4 4.0633 0.315 7.8966 1.315 11.5 3 3.299-1.512 6.465-0.845 9.5 2 0.708-2.768 2.208-3.601 4.5-2.5-1.231-1.183-1.231-2.349 0-3.5 5.19-2.425 10.523-4.592 16-6.5 1.438-1.569 2.938-3.069 4.5-4.5 0.278 0.916 0.778 1.582 1.5 2z" fill="#16c0ac"/>
<path d="m65.5 154.5c0.5032 7.161-2.8301 10.161-10 9-0.6667-1-1.3333-2-2-3 3.5134-1.84 6.3468-3.84 8.5-6 0.6172 0.949 0.4506 1.782-0.5 2.5 0.5253 0.692 1.1919 1.192 2 1.5 0.6719-1.449 1.3386-2.782 2-4z" fill="#be893f"/>
<path d="m64.5 153.5h1v1c-0.6614 1.218-1.3281 2.551-2 4-0.8081-0.308-1.4747-0.808-2-1.5 0.9506-0.718 1.1172-1.551 0.5-2.5-2.1532 2.16-4.9866 4.16-8.5 6-2.5001-7.339 0.1666-10.173 8-8.5 0.7438 1.039 1.7438 1.539 3 1.5z" fill="#dcb959"/>
<path d="m51.5 153.5c-0.1641 2.687 0.0026 5.354 0.5 8 0.8159 1.323 1.9826 1.989 3.5 2 1.4179 1.808 3.4179 2.475 6 2 2.7652 0.104 5.7652 0.271 9 0.5-1.0243 1.367-0.5243 2.2 1.5 2.5 2.102-0.538 2.9354-1.538 2.5-3 2.0411 1.207 3.3745 2.874 4 5 1.6667 1.333 3.3333 1.333 5 0 1.4363-0.178 2.9363-0.511 4.5-1 2.9308 1.708 5.4308 3.375 7.5 5 0.8007 1.542 1.134 3.208 1 5-9.3571 0.332-18.69-2e-3 -28-1 3-0.667 6-1.333 9-2-0.6054-1.981-1.6054-2.315-3-1-0.3333-0.667-0.6667-1.333-1-2-0.7935 0.431-1.6268 0.765-2.5 1-6.2858-1.391-12.452-3.224-18.5-5.5 0.4574-0.414 0.7907-0.914 1-1.5-3.1631-0.824-4.8298-2.824-5-6-1.6238-0.14-2.7904 0.527-3.5 2-1.4157-3.635-3.4157-3.968-6-1-0.7015-2.827-1.7015-5.494-3-8v6c-0.3333-0.667-0.6667-1.333-1-2-1.2837 1.072-1.6171 2.405-1 4-2.696-0.69-4.8626-2.19-6.5-4.5 1.8008-0.317 2.1341-0.984 1-2 2.0672-0.536 3.9006-0.036 5.5 1.5 0.49-1.293 0.6567-2.627 0.5-4 1.3333-2.333 1.3333-4.667 0-7v-3c4.0242-1.807 5.3576-0.641 4 3.5 3.7757 3.208 8.109 5.374 13 6.5z" fill="#1a9e9c"/>
<path d="m33.5 146.5h1c1.3333 2.333 1.3333 4.667 0 7h-5c-0.1621-2.027 0.0045-4.027 0.5-6 1.0113-0.837 2.1779-1.17 3.5-1z" fill="#949368"/>
<path d="m52.5 149.5c3.4556 0.195 7.1222 0.195 11 0-0.0674 1.459 0.2659 2.792 1 4-1.2562 0.039-2.2562-0.461-3-1.5-7.8334-1.673-10.5 1.161-8 8.5 0.6667 1 1.3333 2 2 3-1.5174-0.011-2.6841-0.677-3.5-2-0.4974-2.646-0.6641-5.313-0.5-8-0.0674-1.459 0.2659-2.792 1-4z" fill="#8caf85"/>
<path d="m42.5 112.5c0.6667 1 1.3333 2 2 3 1.3708 13.685 7.7041 24.351 19 32 3.2897 4.276 7.623 6.942 13 8 2.881 2.18 6.2144 3.18 10 3 7.3333 2.667 14.667 2.667 22 0 5.552-0.298 10.552-1.964 15-5 3.349-0.669 6.016-2.336 8-5 2.609-0.943 4.609-2.61 6-5 3.315-2.625 5.649-5.958 7-10 0.838-0.342 1.172-1.008 1-2 3.249-4.752 4.916-10.085 5-16h1 6c2.532 1.199 3.865 3.199 4 6-1.347 3.007-2.68 6.007-4 9-3.149-0.289-6.149 0.211-9 1.5-1.314 2.605-1.314 5.105 0 7.5 0.333 0.667 0.667 1.333 1 2 0.734 1.208 1.067 2.541 1 4h-3c-0.417 2.579 0.25 4.746 2 6.5-2.06 2.771-4.227 2.604-6.5-0.5-1.008-5.041-1.508-4.708-1.5 1h-4v-1h3v-4h-4v3c-0.722-0.418-1.222-1.084-1.5-2-1.562 1.431-3.062 2.931-4.5 4.5-5.477 1.908-10.81 4.075-16 6.5-1.231 1.151-1.231 2.317 0 3.5-2.292-1.101-3.792-0.268-4.5 2.5-3.035-2.845-6.201-3.512-9.5-2-3.6034-1.685-7.4367-2.685-11.5-3-1.749 0.91-2.9157 2.243-3.5 4-0.7216-0.418-1.2216-1.084-1.5-2-0.3173 1.801-0.984 2.134-2 1-1.3333 0.667-2.6667 1.333-4 2-3.0877-1.794-6.2544-3.461-9.5-5-0.4385-2.795-1.4385-5.128-3-7h-1c-0.7341-1.208-1.0674-2.541-1-4-3.8778 0.195-7.5444 0.195-11 0-2.1468-3-4.1468-6.166-6-9.5 0.9239-1.15 0.9239-2.15 0-3 0.8081-0.308 1.4747-0.808 2-1.5-0.3457-1.196-0.8457-1.196-1.5 0-4.0582-4.668-6.8915-10.001-8.5-16-1.2908 3.917-1.9575 7.751-2 11.5 3.0443 0.359 3.3776 1.026 1 2 0.9506 0.718 1.1172 1.551 0.5 2.5-0.8333-1.5-2-2.667-3.5-3.5 0.9637-4.066 1.297-8.233 1-12.5-1.052 0.149-2.052-0.017-3-0.5 3.8402-1.418 7.1735-3.585 10-6.5z" fill="#35d2bc"/>
<path d="m86.5 158.5c6.0138 1.116 12.014 1.116 18 0h4c-7.333 2.667-14.667 2.667-22 0z" fill="#24382d"/>
<path d="m76.5 155.5c3.5477 0.63 6.8811 1.63 10 3-3.7856 0.18-7.119-0.82-10-3z" fill="#2a3429"/>
<path d="m76.5 151.5c9.7946 2.658 19.795 3.658 30 3 1.965 0.448 2.298 1.448 1 3-1.867-2.729-2.867-2.396-3 1-5.9862 1.116-11.986 1.116-18 0-3.1189-1.37-6.4523-2.37-10-3-1.1857-1.461-1.1857-2.795 0-4z" fill="#8d4625"/>
<path d="m66.5 144.5c3.2997 1.608 6.6331 3.275 10 5 0.3333-0.667 0.6667-1.333 1-2 1.823 1.247 3.823 1.914 6 2 6.0843 1.677 12.418 2.344 19 2-3.8123 0.824-7.8123 1.324-12 1.5 7.8138 0.968 15.48 0.301 23-2-0.916-0.278-1.582-0.778-2-1.5h3c0.709 0.904 1.709 1.237 3 1-3.427 2.067-7.094 3.4-11 4-10.205 0.658-20.205-0.342-30-3-3.6832-1.841-7.0165-4.174-10-7z" fill="#dcb57b"/>
<path d="m107.5 149.5h4c0.418 0.722 1.084 1.222 2 1.5-7.52 2.301-15.186 2.968-23 2 4.1877-0.176 8.1877-0.676 12-1.5 2.053 0.098 3.72-0.569 5-2z" fill="#986f2f"/>
<path d="m137.5 151.5c-0.667 0-1-0.333-1-1v-3h4v4h-3z" fill="#bdac66"/>
<path d="m131.5 148.5c-1.984 2.664-4.651 4.331-8 5 2.343-2.172 5.01-3.839 8-5z" fill="#333e33"/>
<path d="m89.5 145.5c2.9206-0.354 5.2539 0.646 7 3 0.7826-1.788 2.1159-2.788 4-3h2c0.086 0.996-0.248 1.829-1 2.5 1.845 1.128 3.845 1.628 6 1.5-1.28 1.431-2.947 2.098-5 2-6.5824 0.344-12.916-0.323-19-2 3.1492 0.289 6.1492-0.211 9-1.5-1.4423-0.377-2.4423-1.21-3-2.5z" fill="#d17638"/>
<path d="m130.5 143.5c-3.571 3.621-7.904 5.954-13 7 4.166-2.584 8.5-4.917 13-7z" fill="#e4bc78"/>
<path d="m120.5 119.5c-0.524 2.688-2.191 4.188-5 4.5-3.182 4.181-7.016 7.681-11.5 10.5-2.023 2.269-2.856 4.936-2.5 8 1.699 0.16 3.366-6e-3 5-0.5 1.614-2.127 3.614-3.627 6-4.5-1.31 1.648-2.643 3.314-4 5-2.962 0.509-5.629 1.509-8 3-1.8841 0.212-3.2174 1.212-4 3-1.7461-2.354-4.0794-3.354-7-3-0.4528-0.958-1.1195-1.792-2-2.5-4.0481-0.165-6.7148-1.998-8-5.5 1.3149 0.976 2.6482 1.976 4 3 1.2946-0.598 2.6279-1.098 4-1.5-1.219-2.278-2.5523-4.445-4-6.5 0.6667-0.333 1.3333-0.667 2-1-0.1716 0.992 0.1618 1.658 1 2 0.2329 1.562 0.8995 2.895 2 4 2.0336 3.462 4.2003 6.129 6.5 8 0.8624-1.587 1.5291-3.254 2-5 0.3333 1.333 0.6667 2.667 1 4 1.1362-2.243 1.9695-4.576 2.5-7 1.24-1.473 2.24-3.14 3-5 2.071-1.685 4.071-3.352 6-5 2.613-3.335 5.613-5.668 9-7 0.667-0.333 1.333-0.667 2-1z" fill="#58222e"/>
<path d="m60.5 141.5 6 3c2.9835 2.826 6.3168 5.159 10 7-1.1857 1.205-1.1857 2.539 0 4-5.377-1.058-9.7103-3.724-13-8-0.9577-1.462-2.1244-2.795-3.5-4-0.6917-0.937-0.525-1.603 0.5-2z" fill="#623527"/>
<path d="m148.5 139.5c2.93 0.799 5.93 1.132 9 1-1.333 1-2.667 2-4 3-1.333-0.667-2.667-1.333-4-2-0.333-0.667-0.667-1.333-1-2z" fill="#948c58"/>
<path d="m131.5 125.5c0.817 1.808 0.15 3.308-2 4.5l1 1c-7.603 8.087-16.937 12.92-28 14.5h-2c2.371-1.491 5.038-2.491 8-3 1.357-1.686 2.69-3.352 4-5 3.64-2.631 7.307-5.297 11-8-5.804 6.826-5.137 7.993 2 3.5 1.864-2.688 3.864-5.188 6-7.5z" fill="#b65d35"/>
<path d="m66.5 140.5c5.4675 3.49 11.134 6.49 17 9-2.177-0.086-4.177-0.753-6-2-0.3333 0.667-0.6667 1.333-1 2-3.3669-1.725-6.7003-3.392-10-5v-4z" fill="#b17a3b"/>
<path d="m88.5 137.5c3.7186 1.091 7.7186 1.091 12 0-0.5305 2.424-1.3638 4.757-2.5 7-0.3333-1.333-0.6667-2.667-1-4-0.4709 1.746-1.1376 3.413-2 5-2.2997-1.871-4.4664-4.538-6.5-8z" fill="#c78b89"/>
<path d="m73.5 127.5c0.6667 0.333 1.3333 0.667 2 1-0.1107 0.617-0.444 1.117-1 1.5 1.3049 2.787 2.9715 5.287 5 7.5 1.2852 3.502 3.9519 5.335 8 5.5 0.8805 0.708 1.5472 1.542 2 2.5-5.6422-1.318-10.976-3.485-16-6.5-1.3228-0.816-1.9894-1.983-2-3.5h2c0.3966 1.025 1.0632 1.192 2 0.5-1.9038-2.765-2.5705-5.598-2-8.5z" fill="#b76737"/>
<path d="m26.5 128.5c0.4528 0.958 1.1195 1.792 2 2.5-0.5464 2.874-0.8797 6.041-1 9.5-2.3299 0.78-4.3299 0.113-6-2h5c0.2093-2.214-0.624-3.881-2.5-5-1.7491 0.248-2.5824 1.248-2.5 3-1.8607-3.828-0.5274-5.495 4-5-0.2373-1.291 0.096-2.291 1-3z" fill="#678d7c"/>
<path d="m157.5 130.5c1.207 3.352 1.207 6.686 0 10-3.07 0.132-6.07-0.201-9-1-1.314-2.395-1.314-4.895 0-7.5 2.851-1.289 5.851-1.789 9-1.5z" fill="#c9a150"/>
<path d="m140.5 91.5c0.667 0 1 0.3333 1 1 0.631 4.3038 1.131 8.637 1.5 13 1.022-0.854 1.855-1.854 2.5-3-1.153-1.187-1.153-2.187 0-3 1.145 3.811 1.312 7.811 0.5 12-0.959 7.795-3.792 14.795-8.5 21 1.355 1.175 1.188 2.175-0.5 3l-1-1c-2.043 1.708-3.71 3.708-5 6-0.718-0.951-1.551-1.117-2.5-0.5-4.544 3.383-9.211 6.55-14 9.5h-3-4c-2.155 0.128-4.155-0.372-6-1.5 0.752-0.671 1.086-1.504 1-2.5 11.063-1.58 20.397-6.413 28-14.5l-1-1c2.15-1.192 2.817-2.692 2-4.5 2.252-0.416 3.752-1.749 4.5-4 2.617-4.683 4.117-9.683 4.5-15v-15z" fill="#e9903a"/>
<path d="m21.5 138.5v-2c-0.0824-1.752 0.7509-2.752 2.5-3 1.876 1.119 2.7093 2.786 2.5 5h-5z" fill="#b1844c"/>
<path d="m93.5 127.5c-0.6495 1.935-0.9828 3.935-1 6h8v-4c3.064-0.428 6.064-1.094 9-2-1.929 1.648-3.929 3.315-6 5-0.76 1.86-1.76 3.527-3 5-4.2814 1.091-8.2814 1.091-12 0-1.1005-1.105-1.7671-2.438-2-4v-5c2.4496 0.202 4.783-0.131 7-1z" fill="#ebba8e"/>
<path d="m54.5 114.5c3.3318 8.519 8.4985 15.852 15.5 22 0.3826-0.556 0.8826-0.889 1.5-1 0.0106 1.517 0.6772 2.684 2 3.5 5.0245 3.015 10.358 5.182 16 6.5 0.5577 1.29 1.5577 2.123 3 2.5-2.8508 1.289-5.8508 1.789-9 1.5-5.8658-2.51-11.532-5.51-17-9-4.9787-2.979-8.9787-6.979-12-12-0.3769-1.758-1.0435-3.425-2-5 0.9415 0.011 1.6081-0.489 2-1.5-0.4536-2.036-1.2869-3.87-2.5-5.5 0.6171 1.595 0.2837 2.928-1 4-0.7048-2.976-1.8714-5.642-3.5-8v-1-1c1.2079-0.734 2.5413-1.067 4-1-0.5838 2.785 0.4162 4.452 3 5z" fill="#eb923b"/>
<path d="m144.5 133.5c-1.351 4.042-3.685 7.375-7 10 1.869-3.768 4.203-7.102 7-10z" fill="#344437"/>
<path d="m123.5 110.5c1.322-0.17 2.489 0.163 3.5 1 0.561 2.779 1.394 5.446 2.5 8-2.358 3.046-4.358 6.379-6 10-3.693 2.703-7.36 5.369-11 8-2.386 0.873-4.386 2.373-6 4.5-1.634 0.494-3.301 0.66-5 0.5-0.356-3.064 0.477-5.731 2.5-8 4.484-2.819 8.318-6.319 11.5-10.5 2.809-0.312 4.476-1.812 5-4.5 0.057-1.109 0.39-2.109 1-3 0.204-2.185 0.87-4.185 2-6z" fill="#57254d"/>
<path d="m75.5 127.5c1.9352 0.65 3.9352 0.983 6 1 0.6667 1.333 1.3333 2.667 2 4 1.4477 2.055 2.781 4.222 4 6.5-1.3721 0.402-2.7054 0.902-4 1.5-1.3518-1.024-2.6851-2.024-4-3-2.0285-2.213-3.6951-4.713-5-7.5 0.556-0.383 0.8893-0.883 1-1.5v-1z" fill="#4b183f"/>
<path d="m147.5 124.5c-0.955 2.246-1.622 4.579-2 7 0.172 0.992-0.162 1.658-1 2-2.797 2.898-5.131 6.232-7 10-1.391 2.39-3.391 4.057-6 5-2.99 1.161-5.657 2.828-8 5-4.448 3.036-9.448 4.702-15 5h-4c0.133-3.396 1.133-3.729 3-1 1.298-1.552 0.965-2.552-1-3 3.906-0.6 7.573-1.933 11-4 5.096-1.046 9.429-3.379 13-7 1.431 0.381 2.264 1.381 2.5 3 1.682-1.365 1.849-2.865 0.5-4.5 5.291-5.444 9.957-11.277 14-17.5z" fill="#7d412a"/>
<path d="m49.5 125.5c1.1697 1.779 2.8364 2.779 5 3 3.0213 5.021 7.0213 9.021 12 12v4l-6-3c-4.473-4.802-8.1397-10.135-11-16z" fill="#d3ad67"/>
<path d="m44.5 115.5c0.7028 2.129 1.7028 4.129 3 6 0.1596 1.653 0.8263 2.986 2 4 2.8603 5.865 6.527 11.198 11 16-1.025 0.397-1.1917 1.063-0.5 2 1.3756 1.205 2.5423 2.538 3.5 4-11.296-7.649-17.629-18.315-19-32z" fill="#46382c"/>
<path d="m101.5 114.5h1c-0.282 1.278-0.949 2.278-2 3v1c-2.7154 2.714-5.0488 5.714-7 9-2.217 0.869-4.5504 1.202-7 1v5c-0.8382-0.342-1.1716-1.008-1-2-0.5915-5.066 1.7418-7.566 7-7.5 2.2845-2.553 4.1178-5.387 5.5-8.5 1.0113-0.837 2.178-1.17 3.5-1z" fill="#d69579"/>
<path d="m68.5 68.5c1.3333 1 1.3333 2 0 3-4.9251 3.9276-8.2584 8.9276-10 15-2.5886 5.9444-3.5886 12.278-3 19 1.6636 11.996 6.9969 21.996 16 30-0.6174 0.111-1.1174 0.444-1.5 1-7.0015-6.148-12.168-13.481-15.5-22-1.6018-6.217-2.2685-12.551-2-19 2.0444-11.023 7.3777-20.023 16-27z" fill="#a86926"/>
<path d="m178.5 103.5c-0.719 2.264-1.052 4.597-1 7-3.673-1.818-7.673-2.484-12-2 0.411 2.776-0.422 3.443-2.5 2-1.301 0.598-2.135 1.598-2.5 3 1.353 1.024 2.02 2.357 2 4h5v5 3c-6.06 3.574-8.894 8.907-8.5 16-1.444 1.655-3.278 2.322-5.5 2 1.333-1 2.667-2 4-3 1.207-3.314 1.207-6.648 0-10 1.32-2.993 2.653-5.993 4-9-0.135-2.801-1.468-4.801-4-6v-1c2.937-2.826 3.603-6.16 2-10 0.767 0.672 1.434 1.505 2 2.5 4.989 0.499 9.989 0.666 15 0.5v-3c0.667-0.333 1.333-0.667 2-1z" fill="#4cae9d"/>
<path d="m98.5 107.5c-0.2409 2.534 0.7591 4.2 3 5v2c-1.322-0.17-2.4887 0.163-3.5 1-1.3822 3.113-3.2155 5.947-5.5 8.5-5.2582-0.066-7.5915 2.434-7 7.5-0.6667 0.333-1.3333 0.667-2 1-0.6667-1.333-1.3333-2.667-2-4 5.1452-4.458 10.312-9.124 15.5-14 0.7252-1.657 0.2252-2.657-1.5-3 0.2376-1.904 1.2376-3.238 3-4z" fill="#b06d71"/>
<path d="m81.5 128.5c-2.0648-0.017-4.0648-0.35-6-1-2.2868-4.162-2.4534-8.496-0.5-13 1.4213-1.905 2.588-3.905 3.5-6 2.9507-1.194 5.9507-2.194 9-3-0.8102 8.077-2.8102 15.744-6 23z" fill="#ec6f76"/>
<path d="m129.5 119.5c-0.772 4.098-2.772 7.431-6 10 1.642-3.621 3.642-6.954 6-10z" fill="#ab543f"/>
<path d="m136.5 111.5c-0.558 5.106-2.225 9.773-5 14-2.136 2.312-4.136 4.812-6 7.5-7.137 4.493-7.804 3.326-2-3.5 3.228-2.569 5.228-5.902 6-10 0.789-0.283 1.456-0.783 2-1.5-2.063-1.572-2.729-3.405-2-5.5-0.693-1.018-1.359-2.018-2-3 2.493-1.274 5.159-1.94 8-2-0.268 1.599 0.066 2.932 1 4z" fill="#ed8d3e"/>
<path d="m78.5 108.5c-0.912 2.095-2.0787 4.095-3.5 6-1.9534 4.504-1.7868 8.838 0.5 13v1c-0.6667-0.333-1.3333-0.667-2-1-0.7346-5.033-1.0679-10.033-1-15 2.2541-0.915 4.2541-2.248 6-4z" fill="#7d271d"/>
<path d="m149.5 114.5c0.667 0 1 0.333 1 1-0.084 5.915-1.751 11.248-5 16 0.378-2.421 1.045-4.754 2-7v-2c0.871-2.612 1.537-5.279 2-8z" fill="#282a22"/>
<path d="m138.5 105.5c0.667 0.333 1.333 0.667 2 1-0.383 5.317-1.883 10.317-4.5 15-0.748 2.251-2.248 3.584-4.5 4 2.775-4.227 4.442-8.894 5-14 1.238-1.714 1.905-3.714 2-6z" fill="#ab5723"/>
<path d="m113.5 119.5c-1.738 2.421-3.071 5.088-4 8-2.936 0.906-5.936 1.572-9 2v4h-8c0.0172-2.065 0.3505-4.065 1-6 1.9512-3.286 4.2846-6.286 7-9 1.192 1.066 0.859 1.899-1 2.5 0.93 0.991 2.096 1.491 3.5 1.5 3.7-1.355 7.034-3.355 10-6 0.483 0.948 0.649 1.948 0.5 3z" fill="#fce093"/>
<path d="m47.5 112.5c1.6286 2.358 2.7952 5.024 3.5 8 1.2837-1.072 1.6171-2.405 1-4 1.2131 1.63 2.0464 3.464 2.5 5.5-0.3919 1.011-1.0585 1.511-2 1.5 0.9565 1.575 1.6231 3.242 2 5-2.1636-0.221-3.8303-1.221-5-3-1.1737-1.014-1.8404-2.347-2-4v-9z" fill="#c2883c"/>
<path d="m9.5 118.5c3.4103-0.116 4.7436 1.55 4 5-4.435 0.578-5.7683-1.089-4-5z" fill="#898f6d"/>
<path d="m123.5 99.5c-0.654 5.313-2.654 9.979-6 14-0.656 1.953-0.989 3.953-1 6h-3c0.149-1.052-0.017-2.052-0.5-3-2.966 2.645-6.3 4.645-10 6-1.404-9e-3 -2.57-0.509-3.5-1.5 1.859-0.601 2.192-1.434 1-2.5v-1c3.631 0.34 6.964-0.494 10-2.5 2.483-2.406 5.15-4.573 8-6.5 0.999-2.661 1.999-5.328 3-8 0.457-0.7975 1.124-1.1309 2-1z" fill="#fac066"/>
<path d="m71.5 112.5h1c-0.0679 4.967 0.2654 9.967 1 15-0.5705 2.902 0.0962 5.735 2 8.5-0.9368 0.692-1.6034 0.525-2-0.5-3.0231-3.852-6.1897-7.518-9.5-11-2.385-3.074-3.885-6.574-4.5-10.5 0.3333-0.833 0.6667-1.667 1-2.5 1.7559 0.907 3.5892 0.907 5.5 0 1.8951 0.115 3.5618 0.782 5 2 0.3988-0.228 0.5654-0.562 0.5-1z" fill="#f89237"/>
<path d="m121.5 116.5c-0.61 0.891-0.943 1.891-1 3-0.667 0.333-1.333 0.667-2 1v-4h3z" fill="#9a6346"/>
<path d="m89.5 106.5v4c-2.2664 1.693-2.5997 3.86-1 6.5 2.1736-0.937 4.5069-1.771 7-2.5v-3c1.7252 0.343 2.2252 1.343 1.5 3-5.1881 4.876-10.355 9.542-15.5 14 3.1898-7.256 5.1898-14.923 6-23-3.0493 0.806-6.0493 1.806-9 3 0.6667-1 1.3333-2 2-3 1.7883-0.471 3.6216-0.804 5.5-1 1.6811 0.108 2.8478 0.775 3.5 2z" fill="#6f2d47"/>
<path d="m177.5 110.5c0.667 1 1.333 2 2 3-0.981 1.896-1.981 3.896-3 6-3.058 0.82-6.058 1.82-9 3v-5h-5c0.02-1.643-0.647-2.976-2-4 0.365-1.402 1.199-2.402 2.5-3 2.078 1.443 2.911 0.776 2.5-2 4.327-0.484 8.327 0.182 12 2z" fill="#12a39d"/>
<path d="m150.5 92.5v5c0.286 5.759-0.048 11.425-1 17-0.463 2.721-1.129 5.388-2 8-1.15 1.35-1.817 1.184-2-0.5 3.084-9.719 4.751-19.553 5-29.5z" fill="#ecc27b"/>
<path d="m117.5 99.5c0.597 0.2352 0.93 0.735 1 1.5-2.183 5.522-5.849 9.855-11 13-1.634 0.494-3.301 0.66-5 0.5h-1v-2c1.083-0.039 2.083-0.373 3-1 0.692 0.525 1.192 1.192 1.5 2 2.735-3.074 5.735-5.741 9-8 1.122-1.907 1.955-3.907 2.5-6z" fill="#6e2a26"/>
<path d="m130.5 60.5c5.138 4.9588 9.805 10.292 14 16 1.456 5.4148 3.122 10.081 5 14 0.838 0.3417 1.172 1.0084 1 2-0.249 9.947-1.916 19.781-5 29.5 0.183 1.684 0.85 1.85 2 0.5v2c-4.043 6.223-8.709 12.056-14 17.5 1.349 1.635 1.182 3.135-0.5 4.5-0.236-1.619-1.069-2.619-2.5-3-4.5 2.083-8.834 4.416-13 7-1.291 0.237-2.291-0.096-3-1 4.789-2.95 9.456-6.117 14-9.5 0.949-0.617 1.782-0.451 2.5 0.5 1.29-2.292 2.957-4.292 5-6l1 1c1.688-0.825 1.855-1.825 0.5-3 4.708-6.205 7.541-13.205 8.5-21 0.812-4.189 0.645-8.189-0.5-12 1.264-11.543-2.07-21.543-10-30-1.193-1.5541-2.36-3.2208-3.5-5-2.352-1.5303-4.519-3.1969-6.5-5 1.857-1.2652 3.524-0.9318 5 1z" fill="#b9843e"/>
<path d="m123.5 99.5c0.196 3.529 0.196 7.196 0 11-1.13 1.815-1.796 3.815-2 6h-3v4c-3.387 1.332-6.387 3.665-9 7 0.929-2.912 2.262-5.579 4-8h3c0.011-2.047 0.344-4.047 1-6 3.346-4.021 5.346-8.687 6-14z" fill="#e5ae6c"/>
<path d="m39.5 103.5c0.6667 0.333 1.3333 0.667 2 1v6c-2.8022 3.862-6.4689 4.862-11 3-0.8857-0.825-1.219-1.825-1-3 0.6174 0.111 1.1174 0.444 1.5 1 0.9734-1.892 1.6401-3.892 2-6 0.7429 1.941 0.5762 3.774-0.5 5.5 0.8317 0.688 1.4984 0.521 2-0.5 1.1405-0.925 1.1405-1.759 0-2.5 1.8755-2.068 3.2089-1.734 4 1-0.3198 1.653-1.3198 2.653-3 3 3.088 0.588 4.7547-0.745 5-4-0.2728-1.533-0.6062-3.033-1-4.5z" fill="#bc9c4f"/>
<path d="m179.5 113.5c-0.667-1-1.333-2-2-3-0.052-2.403 0.281-4.736 1-7 4.605-3.259 7.605-2.092 9 3.5-0.094 5.215-2.761 7.381-8 6.5z" fill="#c19850"/>
<path d="m44.5 93.5c-0.166 5.3437 6e-4 10.677 0.5 16 0.3333-1.333 0.6667-2.667 1-4 0.1909 2.208 0.6909 4.208 1.5 6v1 9c-1.2972-1.871-2.2972-3.871-3-6-1.2017-7.482-1.2017-14.816 0-22z" fill="#d9b274"/>
<path d="m158.5 104.5h1c1.603 3.84 0.937 7.174-2 10h-5c0.452-3.376 1.118-6.709 2-10 1.2-0.792 2.533-0.792 4 0z" fill="#d7a557"/>
<path d="m123.5 99.5c-0.876-0.1309-1.543 0.2025-2 1-1.001 2.672-2.001 5.339-3 8-2.85 1.927-5.517 4.094-8 6.5-3.036 2.006-6.369 2.84-10 2.5 1.051-0.722 1.718-1.722 2-3 1.699 0.16 3.366-6e-3 5-0.5 5.151-3.145 8.817-7.478 11-13-0.07-0.765-0.403-1.2648-1-1.5 0.333-0.6667 0.667-1.3333 1-2h1c1.294-0.7899 2.461-1.7899 3.5-3 0.494 1.6341 0.66 3.3008 0.5 5z" fill="#cc6b39"/>
<path d="m115.5 88.5c0-0.6667 0.333-1 1-1h1c0.979 3.1248 1.313 6.4581 1 10-0.333 0.6667-0.667 1.3333-1 2-0.545 2.093-1.378 4.093-2.5 6-3.265 2.259-6.265 4.926-9 8-0.308-0.808-0.808-1.475-1.5-2-0.917 0.627-1.917 0.961-3 1-2.2409-0.8-3.2409-2.466-3-5 0.9432-2.9 2.61-5.233 5-7-0.823 1.955-0.99 3.955-0.5 6 6.779 1.418 11.279-1.248 13.5-8 1.069-2.908 1.236-5.908 0.5-9-0.383-0.556-0.883-0.8893-1.5-1z" fill="#c88f85"/>
<path d="m67.5 99.5c0.8961 4.363 2.2295 8.696 4 13 0.0654 0.438-0.1012 0.772-0.5 1-1.4382-1.218-3.1049-1.885-5-2-1.9108 0.907-3.7441 0.907-5.5 0-0.3333 0.833-0.6667 1.667-1 2.5 0.615 3.926 2.115 7.426 4.5 10.5 3.3103 3.482 6.4769 7.148 9.5 11h-2c-9.0031-8.004-14.336-18.004-16-30 1.3249 1.453 2.1582 1.119 2.5-1 0.5613 0.522 1.228 0.855 2 1 1.091-1.846 2.4244-2.513 4-2 0.3333 1 0.6667 2 1 3 0.6667-1.333 1.3333-1.333 2 0 0.4966-2.31 0.6633-4.643 0.5-7z" fill="#f8ac44"/>
<path d="m52.5 95.5c-0.2685 6.449 0.3982 12.783 2 19-2.5838-0.548-3.5838-2.215-3-5-1.4587-0.067-2.7921 0.266-4 1-0.8112-4.506-0.8112-8.84 0-13 1.031 0.7485 2.1976 1.4152 3.5 2 0.21-1.5581 0.71-2.8915 1.5-4z" fill="#f3b64e"/>
<path d="m151.5 101.5c2.706 0.387 5.039 1.387 7 3-1.467-0.792-2.8-0.792-4 0-0.882 3.291-1.548 6.624-2 10h5v1h-6v-14z" fill="#ccbc8d"/>
<path d="m97.5 101.5c-1.6571 3.885-4.3238 6.885-8 9v-4c2.963-0.963 4.963-2.963 6-6 0.6835 0.363 1.3501 0.696 2 1z" fill="#8b779c"/>
<path d="m69.5 100.5c1.1074 1.492 2.6074 2.492 4.5 3 1.9392-0.934 3.7725-0.934 5.5 0 0.3333 0.667 0.6667 1.333 1 2-0.6667 1-1.3333 2-2 3-1.7459 1.752-3.7459 3.085-6 4-1.2518-3.922-2.2518-7.922-3-12z" fill="#c8908e"/>
<path d="m37.5 99.5c0.9674 1.306 2.3007 1.973 4 2v3c-0.6667-0.333-1.3333-0.667-2-1-7.0255-3.332-10.359-0.999-10 7-3.2698-7.145-0.6031-10.812 8-11z" fill="#a3af7b"/>
<path d="m39.5 103.5c0.3938 1.467 0.7272 2.967 1 4.5-0.2453 3.255-1.912 4.588-5 4 1.6802-0.347 2.6802-1.347 3-3-0.7911-2.734-2.1245-3.068-4-1 1.1405 0.741 1.1405 1.575 0 2.5-0.5016 1.021-1.1683 1.188-2 0.5 1.0762-1.726 1.2429-3.559 0.5-5.5-0.3599 2.108-1.0266 4.108-2 6-0.3826-0.556-0.8826-0.889-1.5-1-0.3588-7.999 2.9745-10.332 10-7z" fill="#e4c56b"/>
<path d="m150.5 97.5h1v4 14h-1c0-0.667-0.333-1-1-1 0.952-5.575 1.286-11.241 1-17z" fill="#715624"/>
<path d="m104.5 94.5h2c-0.043 3.0865-0.21 6.087-0.5 9h5c1.853-1.78 3.687-3.447 5.5-5-2.221 6.752-6.721 9.418-13.5 8-0.49-2.045-0.323-4.045 0.5-6 0.203-1.5443 0.87-2.8777 2-4-0.363-0.6835-0.696-1.3501-1-2z" fill="#f0c18f"/>
<path d="m122.5 89.5h1c1.258 2.1869 2.258 4.5202 3 7-0.318 4.532 0.015 8.866 1 13 0.641 0.982 1.307 1.982 2 3-0.729 2.095-0.063 3.928 2 5.5-0.544 0.717-1.211 1.217-2 1.5-1.106-2.554-1.939-5.221-2.5-8-1.011-0.837-2.178-1.17-3.5-1 0.196-3.804 0.196-7.471 0-11 0.16-1.6992-6e-3 -3.3659-0.5-5-1.039 1.2101-2.206 2.2101-3.5 3 0.717-2.8229 1.717-5.4896 3-8z" fill="#7c391c"/>
<path d="m83.5 93.5c-0.1427 1.7624 0.1906 3.4291 1 5 2.2427 0.9742 4.576 1.3076 7 1-1.1002 1.058-2.4336 1.892-4 2.5-2.8647 0.183-5.5314 0.683-8 1.5-1.7275-0.934-3.5608-0.934-5.5 0-1.8926-0.508-3.3926-1.508-4.5-3 0.1189-1.6834 0.4522-3.35 1-5 0.4378 5.653 3.4378 7.486 9 5.5-0.3333-0.333-0.6667-0.667-1-1 1.0813-2.6847 2.7479-4.8514 5-6.5z" fill="#562548"/>
<path d="m115.5 88.5c0.617 0.1107 1.117 0.444 1.5 1 0.736 3.092 0.569 6.092-0.5 9-1.813 1.553-3.647 3.22-5.5 5h-5c0.29-2.913 0.457-5.9135 0.5-9 1.869-0.6646 3.869-1.3313 6-2 0.672-1.6595 1.672-2.9928 3-4z" fill="#fbe39d"/>
<path d="m58.5 86.5v7c1.9672 0.2394 3.8005-0.0939 5.5-1 0.4186 1.1721 1.0853 2.1721 2 3 0.3333-2 0.6667-4 1-6 0.3826-0.556 0.8826-0.8893 1.5-1-0.8439 3.5991-1.1773 7.2657-1 11 0.1633 2.357-0.0034 4.69-0.5 7-0.6667-1.333-1.3333-1.333-2 0-0.3333-1-0.6667-2-1-3-1.5756-0.513-2.909 0.154-4 2-0.772-0.145-1.4387-0.478-2-1-0.3418 2.119-1.1751 2.453-2.5 1-0.5886-6.7223 0.4114-13.056 3-19z" fill="#fbcc4c"/>
<path d="m149.5 82.5c0.722 0.4175 1.222 1.0842 1.5 2 0.333-0.3333 0.667-0.6667 1-1 0.469 5.6903 1.136 11.357 2 17 2.531-1.4227 4.365-3.4227 5.5-6-0.131 0.7389 0.036 1.4056 0.5 2 1.667-1.6667 3.333-3.3333 5-5 1.11 1.5368 2.61 2.2035 4.5 2 0.739-0.131 1.406 0.0357 2 0.5-0.178 2.9546-0.178 6.121 0 9.5h5v1 3c-5.011 0.166-10.011-1e-3 -15-0.5-0.566-0.995-1.233-1.828-2-2.5h-1c-1.961-1.613-4.294-2.613-7-3v-4c0.384-3.9885-0.283-7.6552-2-11v-4z" fill="#32c8b3"/>
<path d="m126.5 96.5c2.956 0.6371 5.956 1.1371 9 1.5 1.369 1.7189 2.369 3.552 3 5.5v2c-0.095 2.286-0.762 4.286-2 6-0.934-1.068-1.268-2.401-1-4-2.841 0.06-5.507 0.726-8 2-0.985-4.134-1.318-8.468-1-13z" fill="#fbbe48"/>
<path d="m100.5 93.5c1.333 0.3333 2.667 0.6667 4 1 0.304 0.6499 0.637 1.3165 1 2-1.13 1.1223-1.797 2.4557-2 4-2.39 1.767-4.0568 4.1-5 7-1.7624 0.762-2.7624 2.096-3 4v3c-2.4931 0.729-4.8264 1.563-7 2.5-1.5997-2.64-1.2664-4.807 1-6.5 3.6762-2.115 6.3429-5.115 8-9-0.6499-0.304-1.3165-0.637-2-1-1.037 3.037-3.037 5.037-6 6-0.6522-1.225-1.8189-1.892-3.5-2-1.8784 0.196-3.7117 0.529-5.5 1-0.3333-0.667-0.6667-1.333-1-2 2.4686-0.817 5.1353-1.317 8-1.5 1.5664-0.608 2.8998-1.442 4-2.5 1.9044-0.2376 3.2377-1.2376 4-3 1.9113-0.575 3.578-1.575 5-3z" fill="#3a1235"/>
<path d="m97.5 101.5c-0.0743-3.6611 0.9257-4.3277 3-2-0.5047 1.419-1.5047 2.085-3 2z" fill="#9480a8"/>
<path d="m45.5 81.5h1c-0.4926 2.3056-0.8259 4.639-1 7-0.9511 1.4187-1.2845 3.0853-1 5-1.2017 7.184-1.2017 14.518 0 22-0.6667-1-1.3333-2-2-3 0.1716-0.992-0.1618-1.658-1-2v-6-3c0.4377-6.8554 1.7711-13.522 4-20z" fill="#647157"/>
<path d="m83.5 92.5c3.4929 2.7199 7.4929 4.0532 12 4-0.7623 1.7624-2.0956 2.7624-4 3-2.424 0.3076-4.7573-0.0258-7-1-0.8094-1.5709-1.1427-3.2376-1-5v-1z" fill="#99555b"/>
<path d="m80.5 89.5h2c0.6098 0.891 0.9431 1.891 1 3v1c-2.2521 1.6486-3.9187 3.8153-5 6.5 0.3333 0.333 0.6667 0.667 1 1-5.5622 1.986-8.5622 0.153-9-5.5-1.9931-0.9716-2.3264-2.3049-1-4h8 1c1-0.3333 1.6667-1 2-2z" fill="#2d0b34"/>
<path d="m23.5 87.5c1.2899 0.5577 2.1232 1.5577 2.5 3 1.2975-1.2836 2.4642-1.1169 3.5 0.5-1.3333 1.6667-1.3333 3.3333 0 5 2.646 0.4974 5.3127 0.6641 8 0.5v3c-8.6031 0.1885-11.27 3.855-8 11-0.219 1.175 0.1143 2.175 1 3 4.5311 1.862 8.1978 0.862 11-3 0.8382 0.342 1.1716 1.008 1 2-2.8265 2.915-6.1598 5.082-10 6.5 0.948 0.483 1.948 0.649 3 0.5 0.297 4.267-0.0363 8.434-1 12.5 1.5 0.833 2.6667 2 3.5 3.5 0.6172-0.949 0.4506-1.782-0.5-2.5 2.3776-0.974 2.0443-1.641-1-2 0.0425-3.749 0.7092-7.583 2-11.5 1.6085 5.999 4.4418 11.332 8.5 16 0.6543-1.196 1.1543-1.196 1.5 0-0.5253 0.692-1.1919 1.192-2 1.5 0.9239 0.85 0.9239 1.85 0 3 1.8532 3.334 3.8532 6.5 6 9.5-0.7341 1.208-1.0674 2.541-1 4-4.891-1.126-9.2243-3.292-13-6.5 1.3576-4.141 0.0242-5.307-4-3.5v3h-1c-2.3333-1.667-4.3333-3.667-6-6 0.1203-3.459 0.4536-6.626 1-9.5-0.8805-0.708-1.5472-1.542-2-2.5-1.2804-1.431-2.9471-2.098-5-2-0.6667-2-1.3333-4-2-6 1.052 0.149 2.052-0.017 3-0.5-0.9061-1.699-1.2394-3.533-1-5.5-2.424 0.308-4.7573-0.026-7-1 0.9565-1.575 1.6231-3.242 2-5 0.4382 0.065 0.7716-0.101 1-0.5-1.7226-0.523-3.056-1.523-4-3 0.792-2.691 0.4587-5.3578-1-8 1.0733-1.4162 1.0733-2.7496 0-4 1.4733-0.7096 2.1399-1.8762 2-3.5 1.6238-0.1399 2.7904 0.5267 3.5 2 0.6891-0.8567 1.5224-1.5233 2.5-2 1.6366 0.9439 2.6366 0.2773 3-2z" fill="#27b8a9"/>
<path d="m41.5 135.5c3.4656 0.609 4.4656 2.442 3 5.5-0.948 0.483-1.948 0.649-3 0.5v-6z" fill="#97b68f"/>
<path d="m10.5 98.5c-2.6894-0.6894-4.3561-2.356-5-5 5.7336-2.885 7.4003-1.2184 5 5z" fill="#ac9e70"/>
<path d="m176.5 103.5h-5c-0.178-3.379-0.178-6.5454 0-9.5-0.594-0.4643-1.261-0.631-2-0.5-1.307-1.3016-1.307-2.635 0-4 1.859-1.6924 3.859-3.1924 6-4.5-3.44-0.8789-4.44-2.8789-3-6-0.362-1.2247-0.862-2.3914-1.5-3.5-5.387 4.0526-7.053 2.3859-5-5 1.85-2.6894 2.683-5.3561 2.5-8 1.808 0.0086 3.475-0.4914 5-1.5-0.808-0.3076-1.475-0.8076-2-1.5 1.545-0.9519 3.212-1.2852 5-1 0.237 2.7116 0.237 5.2116 0 7.5 2.491 0.6259 2.491 1.4593 0 2.5 0.069 4.6459 0.069 9.3126 0 14-0.018 1.8726 0.482 2.2059 1.5 1 2.096 1.2155 1.929 2.0488-0.5 2.5 3.631 1.9629 3.298 3.4629-1 4.5 0.172 4.4707 1.006 4.8041 2.5 1 0.667 2 0.667 4 0 6-1.388-1.0536-2.888-1.2203-4.5-0.5-2.036 1.8194-2.203 3.653-0.5 5.5 1.007-2.242 1.841-1.908 2.5 1z" fill="#23afa9"/>
<path d="m149.5 86.5c1.717 3.3448 2.384 7.0115 2 11h-1v-5c0.172-0.9916-0.162-1.6583-1-2v-4z" fill="#32523b"/>
<path d="m82.5 89.5c4.8419 0.3336 9.3419 1.6669 13.5 4 1.0698-0.028 1.9032-0.3614 2.5-1 0.9916-0.1716 1.658 0.1618 2 1-1.422 1.425-3.0887 2.425-5 3-4.5071 0.0532-8.5071-1.2801-12-4-0.0569-1.109-0.3902-2.109-1-3z" fill="#e49961"/>
<path d="m135.5 69.5c7.93 8.4573 11.264 18.457 10 30-1.153 0.813-1.153 1.813 0 3-0.645 1.146-1.478 2.146-2.5 3-0.369-4.363-0.869-8.6962-1.5-13 1.601 1.1428 2.267 0.4761 2-2-1.429-3.4599-2.262-7.1265-2.5-11-0.333 0.3333-0.667 0.6667-1 1-2.477-3.2914-3.977-6.9581-4.5-11z" fill="#f0c754"/>
<path d="m132.5 79.5c4.482 7.2612 6.482 15.261 6 24-0.631-1.948-1.631-3.7811-3-5.5-3.044-0.3629-6.044-0.8629-9-1.5-0.742-2.4798-1.742-4.8131-3-7v-3c1.876 2.6751 3.376 2.3418 4.5-1 0.333 0.3333 0.667 0.6667 1 1 1.067-0.6905 2.234-1.1905 3.5-1.5 0.354-1.6255 0.354-3.4588 0-5.5z" fill="#fce358"/>
<path d="m181.5 87.5h4v4c-3 0.3333-4.333-1-4-4z" fill="#a28655"/>
<path d="m108.5 82.5c3.449 0.5746 6.115 2.2413 8 5-0.667 0-1 0.3333-1 1-1.328 1.0072-2.328 2.3405-3 4-2.131 0.6687-4.131 1.3354-6 2h-2c-1.333-0.3333-2.667-0.6667-4-1-0.342-0.8382-1.0084-1.1716-2-1-0.7674-0.672-1.4341-1.5053-2-2.5 2.7879-1.7186 5.121-3.8852 7-6.5 1.542-0.8007 3.208-1.134 5-1z" fill="#fbf7cb"/>
<path d="m74.5 81.5c0.7719 1.1935 1.7719 2.1935 3 3-1.0736 1.3846-2.4069 2.5513-4 3.5 2.3098 0.4966 4.6432 0.6633 7 0.5v1c-0.3333 1-1 1.6667-2 2-0.6522-1.2251-1.8189-1.8917-3.5-2-1.1667 0.1667-2.3333 0.3333-3.5 0.5 2.2078 0.1909 4.2078 0.6909 6 1.5h-8c0.9986-2.6618 1.9986-5.3284 3-8 1-0.3333 1.6667-1 2-2z" fill="#816c7b"/>
<path d="m78.5 91.5h-1c-1.7922-0.8091-3.7922-1.3091-6-1.5 1.1667-0.1667 2.3333-0.3333 3.5-0.5 1.6811 0.1083 2.8478 0.7749 3.5 2z" fill="#f6edf7"/>
<path d="m68.5 71.5c0.6667 0.3333 1.3333 0.6667 2 1 1.8229 5.8131 1.1563 11.146-2 16-0.6174 0.1107-1.1174 0.444-1.5 1-0.3333 2-0.6667 4-1 6-0.9147-0.8279-1.5814-1.8279-2-3-1.6995 0.9061-3.5328 1.2394-5.5 1v-7c1.7416-6.0724 5.0749-11.072 10-15z" fill="#fbf163"/>
<path d="m118.5 79.5h1c0.784 3.0358 1.784 6.3691 3 10-1.283 2.5104-2.283 5.1771-3 8h-1c0.313-3.5419-0.021-6.8752-1-10 0.528-1.2206 1.195-2.3873 2-3.5-0.88-1.3561-1.214-2.8561-1-4.5z" fill="#371322"/>
<path d="m90.5 77.5c-1.2563 2.441-1.2563 4.7743 0 7 4.1072 0.6504 7.6072-0.3496 10.5-3 0.708 0.8805 1.542 1.5472 2.5 2-1.879 2.6148-4.2121 4.7814-7 6.5 0.5659 0.9947 1.2326 1.828 2 2.5-0.5968 0.6386-1.4302 0.972-2.5 1-4.1581-2.3331-8.6581-3.6664-13.5-4h-2v-1c4.6899-0.5004 6.8566-3.1671 6.5-8 0.7589-1.5629 1.9256-2.5629 3.5-3z" fill="#f8c872"/>
<path d="m50.5 81.5c-1.4206 5.2596-2.4206 10.593-3 16-0.8112 4.16-0.8112 8.494 0 13v1c-0.8091-1.792-1.3091-3.792-1.5-6-0.3333 1.333-0.6667 2.667-1 4-0.4994-5.323-0.666-10.656-0.5-16-0.2845-1.9147 0.0489-3.5813 1-5 1.1005-1.7774 1.9338-3.7774 2.5-6 0.6708-0.7524 1.5041-1.0858 2.5-1z" fill="#b7863c"/>
<path d="m157.5 49.5c2.135 1.869 4.802 2.5356 8 2 0.149 1.052-0.017 2.052-0.5 3-0.893-1.2112-1.726-1.2112-2.5 0 1.189 0.9287 2.522 1.262 4 1-0.106 2.5786 0.561 4.912 2 7 0.183 2.6439-0.65 5.3106-2.5 8-2.053 7.3859-0.387 9.0526 5 5 0.638 1.1086 1.138 2.2753 1.5 3.5-1.44 3.1211-0.44 5.1211 3 6-2.141 1.3076-4.141 2.8076-6 4.5-1.307 1.365-1.307 2.6984 0 4-1.89 0.2035-3.39-0.4632-4.5-2-1.667 1.6667-3.333 3.3333-5 5-0.464-0.5944-0.631-1.2611-0.5-2 1.663-1.9385 2.329-4.2718 2-7-2.433-6.6133-6.933-11.613-13.5-15-1.301 0.1387-2.134 0.8054-2.5 2h-1c-1.39-1.3993-2.39-3.0659-3-5 0.982 0.6408 1.982 1.3075 3 2 0.886-0.825 1.219-1.825 1-3h5c-0.219 1.175 0.114 2.175 1 3 3.205 3.5725 6.871 6.2392 11 8-0.284-3.2766 0.049-6.4433 1-9.5-0.667-0.3333-1.333-0.6667-2-1 1.054-1.3876 1.22-2.8876 0.5-4.5-2.145-3.4697-4.645-6.6363-7.5-9.5-1.601-0.2734-3.101-0.7734-4.5-1.5-1.745 1.4557-3.578 2.789-5.5 4-0.79 3.4246-1.79 6.758-3 10-1.604-0.787-2.271-2.1203-2-4 4.338-3.9457 3.672-5.6123-2-5v3c-1.527 0.073-2.527-0.5937-3-2 2.228-1.0927 4.561-2.0927 7-3 1.854-1.7243 3.188-3.7243 4-6 0.667 0.3333 1.333 0.6667 2 1 3.918 1.796 7.252 1.1293 10-2z" fill="#46b8a4"/>
<path d="m161.5 87.5c-0.148-7.0636 2.352-8.3969 7.5-4 0.084 6.0877-2.416 7.421-7.5 4z" fill="#bf984e"/>
<path d="m132.5 79.5c0.354 2.0412 0.354 3.8745 0 5.5-1.266 0.3095-2.433 0.8095-3.5 1.5-0.333-0.3333-0.667-0.6667-1-1-1.124 3.3418-2.624 3.6751-4.5 1-1.314-4.8477-1.314-9.8477 0-15 2.324 0.3773 2.991 1.3773 2 3 1.436 1.5363 2.269 3.203 2.5 5 1.432-2.4312 2.932-2.4312 4.5 0z" fill="#fcf963"/>
<path d="m17.5 80.5c4.6585-0.4854 5.9919 1.348 4 5.5-4.7718 0.8104-6.1052-1.0229-4-5.5z" fill="#b5914e"/>
<path d="m49.5 77.5c0.3333 1.3333 0.6667 2.6667 1 4-0.9959-0.0858-1.8292 0.2476-2.5 1-0.5662 2.2226-1.3995 4.2226-2.5 6 0.1741-2.361 0.5074-4.6944 1-7 1-1.3333 2-2.6667 3-4z" fill="#e2cea6"/>
<path d="m75.5 78.5c1.3734-0.1567 2.7068 0.01 4 0.5-2.4312 1.0924-2.4312 2.2591 0 3.5-0.3333 1-1 1.6667-2 2-1.2281-0.8065-2.2281-1.8065-3-3 0.0569-1.109 0.3902-2.109 1-3z" fill="#270f25"/>
<path d="m91.5 82.5v-1c1.1819-1.5995 2.5153-1.9328 4-1 0.6924-0.5253 1.1924-1.1919 1.5-2 1.9224 2.5076 1.2557 4.1742-2 5-1.2559-0.1483-2.4226-0.4816-3.5-1z" fill="#1f0a24"/>
<path d="m161.5 87.5c0.329 2.7282-0.337 5.0615-2 7-1.135 2.5773-2.969 4.5773-5.5 6-0.864-5.643-1.531-11.31-2-17-0.333 0.3333-0.667 0.6667-1 1-0.278-0.9158-0.778-1.5825-1.5-2-1.282-2.6373-2.615-5.304-4-8 0.366-1.1946 1.199-1.8613 2.5-2 6.567 3.3867 11.067 8.3867 13.5 15z" fill="#23e4ca"/>
<path d="m144.5 74.5h1c1.385 2.696 2.718 5.3627 4 8v4c-1.283-3.5085-2.949-6.8418-5-10v-2z" fill="#3f7c72"/>
<path d="m144.5 76.5c2.051 3.1582 3.717 6.4915 5 10v4c-1.878-3.9186-3.544-8.5852-5-14z" fill="#e3d5ae"/>
<path d="m97.5 76.5c-3.4578-0.0855-5.4578 1.5812-6 5v1c-0.8382 0.3417-1.1716 1.0084-1 2-1.2563-2.2257-1.2563-4.559 0-7-0.0824-1.7517 0.7509-2.7517 2.5-3 1.7275 0.399 3.2275 1.0657 4.5 2z" fill="#b66d4a"/>
<path d="m97.5 76.5c1.7572 0.792 3.091 2.1253 4 4 3.246 1.4975 5.913 0.8308 8-2 0.543 0.06 0.876 0.3933 1 1-1.112 0.7652-1.779 1.7652-2 3-1.792-0.134-3.458 0.1993-5 1-0.958-0.4528-1.792-1.1195-2.5-2-2.8928 2.6504-6.3928 3.6504-10.5 3-0.1716-0.9916 0.1618-1.6583 1-2 1.0774 0.5184 2.2441 0.8517 3.5 1 3.2557-0.8258 3.9224-2.4924 2-5-0.3076 0.8081-0.8076 1.4747-1.5 2-1.4847-0.9328-2.8181-0.5995-4 1 0.5422-3.4188 2.5422-5.0855 6-5z" fill="#5a3331"/>
<path d="m52.5 70.5v2c-1.7503 1.1594-2.7503 2.826-3 5-1 1.3333-2 2.6667-3 4h-1v-5h3c-0.1581-3.0221 1.1752-5.0221 4-6z" fill="#5ea59d"/>
<path d="m122.5 66.5c4.048 3.7535 7.382 8.0869 10 13-1.568-2.4312-3.068-2.4312-4.5 0-0.231-1.797-1.064-3.4637-2.5-5 0.991-1.6227 0.324-2.6227-2-3-1.314 5.1523-1.314 10.152 0 15v3h-1c-1.216-3.6309-2.216-6.9642-3-10 0.637-4.5348 1.637-8.8681 3-13z" fill="#f4eb74"/>
<path d="m109.5 78.5c-2.087 2.8308-4.754 3.4975-8 2-0.909-1.8747-2.2428-3.208-4-4-1.2725-0.9343-2.7725-1.601-4.5-2-1.7491 0.2483-2.5824 1.2483-2.5 3-1.5744 0.4371-2.7411 1.4371-3.5 3 0.3566 4.8329-1.8101 7.4996-6.5 8-2.3568 0.1633-4.6902-0.0034-7-0.5 1.5931-0.9487 2.9264-2.1154 4-3.5 1-0.3333 1.6667-1 2-2 1.2645-2.2721 1.0978-4.6055-0.5-7-0.985 1.3141-2.1516 2.3141-3.5 3-0.6098 0.891-0.9431 1.891-1 3-0.3333 1-1 1.6667-2 2 0.5417-5.0804 2.2083-9.7471 5-14 3.9253-1.9794 6.7586-0.9794 8.5 3 2.9339-3.9621 6.7672-5.4621 11.5-4.5 4.457 2.956 8.457 6.456 12 10.5z" fill="#f7edbd"/>
<path d="m79.5 82.5c-2.4312-1.2409-2.4312-2.4076 0-3.5-1.2932-0.49-2.6266-0.6567-4-0.5 1.3484-0.6859 2.515-1.6859 3.5-3 1.5978 2.3945 1.7645 4.7279 0.5 7z" fill="#6f483a"/>
<path d="m70.5 69.5h2c-0.1602 1.6992 0.0065 3.3659 0.5 5 1.0669-2.1917 2.5669-3.8583 4.5-5-2.7917 4.2529-4.4583 8.9196-5 14-1.0014 2.6716-2.0014 5.3382-3 8-1.3264 1.6951-0.9931 3.0284 1 4-0.5478 1.65-0.8811 3.3166-1 5 0.7482 4.078 1.7482 8.078 3 12h-1c-1.7705-4.304-3.1039-8.637-4-13-0.1773-3.7343 0.1561-7.4009 1-11 3.1563-4.8535 3.8229-10.187 2-16v-3z" fill="#684536"/>
<path d="m113.5 69.5c0.426 1.0279 0.426 2.3612 0 4h4v3c-0.751 1.0735-1.751 1.2401-3 0.5-1.465-1.7742-2.798-3.6075-4-5.5 0.132-2.5069 1.132-3.1736 3-2z" fill="#ca9486"/>
<path d="m68.5 58.5c0.8382 0.3417 1.1716 1.0084 1 2-8.1255 5.4549-14.459 12.455-19 21-0.3333-1.3333-0.6667-2.6667-1-4 0.2497-2.174 1.2497-3.8406 3-5 2.3031-1.8247 4.6364-3.6581 7-5.5-0.5606-1.5655 0.1061-2.8989 2-4 2.2343-1.7498 4.5676-3.2498 7-4.5z" fill="#b78f54"/>
<path d="m31.5 64.5c-1.1599 6.5207 1.1735 8.5207 7 6 1.4063-0.4731 2.073-1.4731 2-3 0.9345-1.0676 1.2678-2.401 1-4 0.7389-0.131 1.4056 0.0357 2 0.5-1.9326 5.3325-4.0993 10.166-6.5 14.5-0.3333-1.3333-0.6667-2.6667-1-4-1 1.3333-2 1.3333-3 0-0.7313 3.6482-2.898 5.8149-6.5 6.5l1 1c-0.7529 1.487-1.5862 1.6537-2.5 0.5-0.21 1.5581-0.71 2.8915-1.5 4 0.7652-6.8034-2.0681-8.8034-8.5-6-1.7583-0.9695-2.2583-2.1361-1.5-3.5-1.5368-1.1096-2.2035-2.6096-2-4.5h5v-5c-4-0.3333-4-0.6667 0-1 0.3333-4 0.6667-4 1 0 2.9877 0.0612 5.8211-0.6055 8.5-2 1.8895 0.2852 3.2229 1.2852 4 3 0.2321-1.2375 0.7321-2.2375 1.5-3z" fill="#2eb9ac"/>
<path d="m10.5 71.5v4h-3c-1.8442-0.7039-2.3442-2.0372-1.5-4 1.6155-1.3009 3.1155-1.3009 4.5 0z" fill="#aca87a"/>
<path d="m119.5 65.5c0.163 2.3568-3e-3 4.6902-0.5 7-0.383 0.556-0.883 0.8893-1.5 1h-4c0.426-1.6388 0.426-2.9721 0-4 1.647-1.8264 3.647-3.1597 6-4z" fill="#f0d6ab"/>
<path d="m76.5 62.5c2.2301 2.0351 2.5635 4.3684 1 7-1.9331 1.1417-3.4331 2.8083-4.5 5-0.4935-1.6341-0.6602-3.3008-0.5-5 1.5682-2.3109 2.4016-4.9776 2.5-8 0.3826 0.556 0.8826 0.8893 1.5 1z" fill="#b98c91"/>
<path d="m69.5 60.5v2c0.1747 2.1208-0.1586 4.1208-1 6-8.6223 6.9766-13.956 15.977-16 27-0.79 1.1085-1.29 2.4419-1.5 4-1.3024-0.5848-2.469-1.2515-3.5-2 0.5794-5.4071 1.5794-10.74 3-16 4.5412-8.5451 10.874-15.545 19-21z" fill="#f4dd64"/>
<path d="m121.5 61.5h1c4.259 6.1045 8.759 12.104 13.5 18 1.791 3.9115 3.291 7.9115 4.5 12v15c-0.667-0.333-1.333-0.667-2-1v-2c0.482-8.7388-1.518-16.739-6-24-2.618-4.9131-5.952-9.2465-10-13-0.801-1.5418-1.134-3.2085-1-5z" fill="#a3762f"/>
<path d="m57.5 64.5c-0.8163 2.6073-2.4829 4.6073-5 6 0.575-1.9113 1.575-3.578 3-5 0.6667-0.3333 1.3333-0.6667 2-1z" fill="#607b75"/>
<path d="m132.5 59.5h2c0.473 1.4063 1.473 2.073 3 2 0 1.3333 0.667 2 2 2-0.271 1.8797 0.396 3.213 2 4v2c-2.971-3.3076-5.971-6.641-9-10z" fill="#587a72"/>
<path d="m106.5 62.5c1.466 0.847 2.3 2.1803 2.5 4 0.708-0.8805 1.542-1.5472 2.5-2-0.209 1.4217-0.709 2.755-1.5 4-0.77 1.0981-1.603 1.0981-2.5 0-0.333-2-0.667-4-1-6z" fill="#bd8988"/>
<path d="m183.5 63.5v1 4c-3.41 0.1162-4.744-1.5504-4-5h4z" fill="#969472"/>
<path d="m107.5 47.5v8c1.43 0.0792 2.764-0.2542 4-1 1.039 3.6054 1.705 7.2721 2 11 2.792-0.1225 4.792-1.4558 6-4h1c0.067 1.4587-0.266 2.7921-1 4-2.353 0.8403-4.353 2.1736-6 4-1.868-1.1736-2.868-0.5069-3 2-1.69-0.3564-2.69-1.3564-3-3 0.897 1.0981 1.73 1.0981 2.5 0 0.791-1.245 1.291-2.5783 1.5-4-0.643-2.6982-1.476-5.3649-2.5-8-0.383 0.556-0.883 0.8893-1.5 1-1.333-3.3333-1.333-6.6667 0-10z" fill="#7c3544"/>
<path d="m86.5 62.5c4.949-0.5411 9.6156 0.2922 14 2.5-5.8035 1.83-11.804 2.4967-18 2-0.6667-0.3333-1.3333-0.6667-2-1 2.1181-1.0821 4.1181-2.2488 6-3.5z" fill="#8b7fa4"/>
<path d="m119.5 49.5c0.667 0.6667 1.333 1.3333 2 2v3 7c-0.134 1.7915 0.199 3.4582 1 5-1.363 4.1319-2.363 8.4652-3 13h-1c0.237-1.291-0.096-2.291-1-3v-3c0.617-0.1107 1.117-0.444 1.5-1 0.497-2.3098 0.663-4.6432 0.5-7 0.734-1.2079 1.067-2.5413 1-4-5e-3 -4.0341-0.338-8.0341-1-12z" fill="#69423c"/>
<path d="m40.5 67.5c0.073 1.5269-0.5937 2.5269-2 3-6.204 0.1863-7.5374-2.3137-4-7.5 3.8482-0.9866 5.8482 0.5134 6 4.5z" fill="#cea050"/>
<path d="m139.5 63.5c-1.333 0-2-0.6667-2-2v-3c5.672-0.6123 6.338 1.0543 2 5z" fill="#c8c690"/>
<path d="m125.5 59.5c1.981 1.8031 4.148 3.4697 6.5 5 1.14 1.7792 2.307 3.4459 3.5 5 0.523 4.0419 2.023 7.7086 4.5 11 0.333-0.3333 0.667-0.6667 1-1 0.238 3.8735 1.071 7.5401 2.5 11 0.267 2.4761-0.399 3.1428-2 2 0-0.6667-0.333-1-1-1-1.209-4.0885-2.709-8.0885-4.5-12-4.741-5.8955-9.241-11.896-13.5-18-0.098-2.7476 0.902-3.4143 3-2z" fill="#f5e369"/>
<path d="m111.5 64.5c-0.958 0.4528-1.792 1.1195-2.5 2-0.2-1.8197-1.034-3.153-2.5-4-0.134-1.7915 0.199-3.4582 1-5 0.617-0.1107 1.117-0.444 1.5-1 1.024 2.6351 1.857 5.3018 2.5 8z" fill="#f1d8c8"/>
<path d="m76.5 50.5h1v2c0.1576 3.4023-0.1758 6.7356-1 10-0.6174-0.1107-1.1174-0.444-1.5-1-0.0984 3.0224-0.9318 5.6891-2.5 8h-2c-0.2373-1.291 0.096-2.291 1-3 0.3333 1.3333 0.6667 1.3333 1 0 0.9682-2.1074 1.3016-4.4407 1-7h3v-9z" fill="#863344"/>
<path d="m57.5 61.5v3c-0.6667 0.3333-1.3333 0.6667-2 1-3.6809-0.7222-4.6809-2.7222-3-6 2.4305-1.2856 4.0972-0.619 5 2z" fill="#c0d39f"/>
<path d="m67.5 56.5c2.1977-0.0912 2.5311 0.5755 1 2-2.4324 1.2502-4.7657 2.7502-7 4.5-1.8939 1.1011-2.5606 2.4345-2 4-2.3636 1.8419-4.6969 3.6753-7 5.5v-2c2.5171-1.3927 4.1837-3.3927 5-6v-3c3.7557-0.9126 7.089-2.5793 10-5z" fill="#beb59c"/>
<path d="m41.5 63.5c0.2678 1.599-0.0655 2.9324-1 4-0.1518-3.9866-2.1518-5.4866-6-4.5-3.5374 5.1863-2.204 7.6863 4 7.5-5.8265 2.5207-8.1599 0.5207-7-6 2.9239-3.595 6.2573-3.9283 10-1z" fill="#97985d"/>
<path d="m130.5 60.5c0.342-0.8382 1.008-1.1716 2-1 3.029 3.359 6.029 6.6924 9 10 0.61 1.9341 1.61 3.6007 3 5v2c-4.195-5.7079-8.862-11.041-14-16z" fill="#e6dbc4"/>
<path d="m100.5 56.5c-2.4674 3.4529-5.9674 5.1196-10.5 5-2.5345-0.3677-4.3678-1.701-5.5-4 5.3336 0.6705 10.667 0.3372 16-1z" fill="#b98a62"/>
<path d="m75.5 49.5c0.6667 0 1 0.3333 1 1v9h-3c0.3016 2.5593-0.0318 4.8926-1 7-0.3242-4.0546 0.0091-8.0546 1-12 1.7174-1.1685 2.3841-2.8352 2-5z" fill="#e8727a"/>
<path d="m14.5 57.5h5v5c-4.5272 0.638-6.1939-1.0286-5-5z" fill="#b49e68"/>
<path d="m69.5 48.5h1c0.3195 4.8633-0.0139 9.53-1 14v-2c0.1716-0.9916-0.1618-1.6583-1-2 1.5311-1.4245 1.1977-2.0912-1-2 1.7261-2.3201 2.3928-4.9867 2-8z" fill="#5d4c53"/>
<path d="m121.5 54.5c1.55 0.9408 3.216 1.6075 5 2h2c1.904 0.2376 3.238 1.2376 4 3-0.992-0.1716-1.658 0.1618-2 1-1.476-1.9318-3.143-2.2652-5-1-2.098-1.4143-3.098-0.7476-3 2h-1v-7z" fill="#9c805c"/>
<path d="m81.5 52.5c0.891 0.6098 1.891 0.9431 3 1-0.0852 1.4953 0.5815 2.4953 2 3 1.6099-1.0522 3.2766-1.0522 5 0 2.6971-0.7324 5.3638-1.5657 8-2.5-0.9158-0.2784-1.5825-0.7784-2-1.5 1.9147-0.2845 3.581 0.0489 5 1-0.667 1-1.333 2-2 3-5.333 1.3372-10.666 1.6705-16 1 0-0.6667-0.3333-1-1-1-1.1005-1.1049-1.7671-2.4382-2-4z" fill="#e5c56f"/>
<path d="m141.5 69.5v-2c1.21-3.242 2.21-6.5754 3-10 1.922-1.211 3.755-2.5443 5.5-4 1.399 0.7266 2.899 1.2266 4.5 1.5 2.855 2.8637 5.355 6.0303 7.5 9.5 0.72 1.6124 0.554 3.1124-0.5 4.5 0.667 0.3333 1.333 0.6667 2 1-0.951 3.0567-1.284 6.2234-1 9.5-4.129-1.7608-7.795-4.4275-11-8-0.886-0.825-1.219-1.825-1-3h-5c0.219 1.175-0.114 2.175-1 3-1.018-0.6925-2.018-1.3592-3-2z" fill="#1accb4"/>
<path d="m97.5 52.5c0.4175 0.7216 1.0842 1.2216 2 1.5-2.6362 0.9343-5.3029 1.7676-8 2.5-1.7234-1.0522-3.3901-1.0522-5 0-1.4185-0.5047-2.0852-1.5047-2-3 4.2352-0.936 8.5685-1.2693 13-1z" fill="#f2de63"/>
<path d="m75.5 48.5v1c0.3841 2.1648-0.2826 3.8315-2 5-0.9909 3.9454-1.3242 7.9454-1 12-0.3333 1.3333-0.6667 1.3333-1 0-0.1661-5.6764 6e-4 -11.343 0.5-17 1.0113-0.8366 2.1779-1.17 3.5-1z" fill="#f4999d"/>
<path d="m125.5 54.5c1.527-0.073 2.527 0.5937 3 2h-2c-0.333-0.6667-0.667-1.3333-1-2z" fill="#2a564e"/>
<path d="m74.5 46.5c0.8382 0.3417 1.1716 1.0084 1 2-1.3221-0.17-2.4887 0.1634-3.5 1-0.4994 5.6569-0.6661 11.324-0.5 17-0.904 0.709-1.2373 1.709-1 3v3c-0.6667-0.3333-1.3333-0.6667-2-1 1.3333-1 1.3333-2 0-3 0.8414-1.8792 1.1747-3.8792 1-6 0.9861-4.47 1.3195-9.1367 1-14 0.1556-3.6351 1.3223-3.9685 3.5-1 0.3988-0.2284 0.5654-0.5618 0.5-1z" fill="#bb8b8d"/>
<path d="m121.5 51.5c0.667 0 1 0.3333 1 1 0.473 1.4063 1.473 2.073 3 2 0.333 0.6667 0.667 1.3333 1 2-1.784-0.3925-3.45-1.0592-5-2v-3z" fill="#d5d5c7"/>
<path d="m122.5 52.5c1.527-0.073 2.527 0.5937 3 2-1.527 0.073-2.527-0.5937-3-2z" fill="#215d5a"/>
<path d="m77.5 48.5c1.4613 1.1857 2.7946 1.1857 4 0h6c-2.5232 0.8844-5.1898 1.7177-8 2.5 0.5442 0.7172 1.2109 1.2172 2 1.5 0.2329 1.5618 0.8995 2.8951 2 4-2.2541-0.9151-4.2541-2.2484-6-4v-2-2z" fill="#5d6474"/>
<path d="m103.5 50.5c0.237 1.291-0.096 2.291-1 3-1.419-0.9511-3.0853-1.2845-5-1-4.4315-0.2693-8.7648 0.064-13 1-1.109-0.0569-2.109-0.3902-3-1 2.3766-1.3873 5.0432-2.2206 8-2.5 4.8522-0.8151 9.5189-0.6484 14 0.5z" fill="#a9763f"/>
<path d="m77.5 46.5v2 2h-1c0-0.6667-0.3333-1-1-1v-1c0.1716-0.9916-0.1618-1.6583-1-2-0.131-0.7389 0.0357-1.4056 0.5-2 0.7083 0.8805 1.5416 1.5472 2.5 2z" fill="#4e3854"/>
<path d="m87.5 48.5h17c0.172 0.9916-0.162 1.6583-1 2-4.4811-1.1484-9.1478-1.3151-14-0.5-2.9568 0.2794-5.6234 1.1127-8 2.5-0.7891-0.2828-1.4558-0.7828-2-1.5 2.8102-0.7823 5.4768-1.6156 8-2.5z" fill="#f1e3d6"/>
<path d="m157.5 49.5c-2.748 3.1293-6.082 3.796-10 2-0.719-2.2638-1.052-4.5971-1-7 0.767-0.672 1.434-1.5053 2-2.5 6.827-2.0027 9.827 0.4973 9 7.5z" fill="#c2a15c"/>
<path d="m183.5 45.5c-2.398 2.0647-5.065 2.398-8 1-1.708-5.4616 0.292-7.6283 6-6.5 1.655 1.4443 2.322 3.2776 2 5.5z" fill="#b49556"/>
<path d="m138.5 31.5c-0.949-3.7262 0.718-5.3929 5-5v5h-5z" fill="#aea372"/>
<path d="m65.5 154.5v-1c1.5615 1.872 2.5615 4.205 3 7 3.2456 1.539 6.4123 3.206 9.5 5 1.3333-0.667 2.6667-1.333 4-2 1.016 1.134 1.6827 0.801 2-1 0.2784 0.916 0.7784 1.582 1.5 2-1.0981 0.897-1.0981 1.73 0 2.5 2.6667 0.333 5.3333 0.667 8 1 1.9694 4.427 3.8027 4.261 5.5-0.5 0.2784 0.916 0.7784 1.582 1.5 2-1.3333 2-3 3.667-5 5-2.0692-1.625-4.5692-3.292-7.5-5-1.5637 0.489-3.0637 0.822-4.5 1v-5c-4-0.667-5.6667 1-5 5-0.6255-2.126-1.9589-3.793-4-5 0.4354 1.462-0.398 2.462-2.5 3-2.0243-0.3-2.5243-1.133-1.5-2.5-3.2348-0.229-6.2348-0.396-9-0.5 4.7742-2.483 6.1076-6.149 4-11z" fill="#31aa9b"/>
<path d="m167.5 125.5c1.936 1.615 2.936 3.782 3 6.5 0.665 2.991 0.665 5.825 0 8.5-7.832-0.499-11.166 3.168-10 11 1.967 0.239 3.801-0.094 5.5-1l1.5 1.5c-2.199 1.583-4.532 1.75-7 0.5v3c2.687-0.164 5.354 3e-3 8 0.5-3 0.667-6 0.667-9 0-0.498-1.158-1.331-1.991-2.5-2.5-1.422-0.705-2.755-1.039-4-1-1.039 0.744-1.539 1.744-1.5 3h-3c-0.175 2.121 0.159 4.121 1 6-0.815 1.337-1.982 2.337-3.5 3-0.617 0.949-0.451 1.782 0.5 2.5-1.201 0.903-2.035 2.069-2.5 3.5-1.482-2.281-3.149-2.281-5 0-1.84-1.333-2.34-1.166-1.5 0.5-5.316 0.116-10.316 1.282-15 3.5-5.247-2.873-9.581-1.873-13 3 0.175-2.121-0.159-4.121-1-6 1.083 0.039 2.083 0.373 3 1 1.006-0.438 1.006-1.104 0-2 3.251-2.379 6.918-3.379 11-3 0.02-1.643-0.647-2.976-2-4 0.477-0.978 1.143-1.811 2-2.5 3.921-0.203 7.755-0.703 11.5-1.5l1 1c0.977-3.939 3.311-4.939 7-3 1.067-0.691 2.234-1.191 3.5-1.5-1.667-0.333-3.333-0.667-5-1l1-1c-1.558-0.21-2.891-0.71-4-1.5h4c-8e-3 -5.708 0.492-6.041 1.5-1 2.273 3.104 4.44 3.271 6.5 0.5-1.75-1.754-2.417-3.921-2-6.5h3c0.067-1.459-0.266-2.792-1-4 1.333 0.667 2.667 1.333 4 2 2.222 0.322 4.056-0.345 5.5-2-0.394-7.093 2.44-12.426 8.5-16z" fill="#28a29d"/>
<path d="m125.5 162.5c4.009-0.486 5.842 1.18 5.5 5-5.58 2.252-7.413 0.585-5.5-5z" fill="#b68648"/>
<path d="m83.5 170.5c-1.6667 1.333-3.3333 1.333-5 0-0.6667-4 1-5.667 5-5v5z" fill="#a7995d"/>
<path d="m100.5 169.5c3.033-0.368 5.7 0.298 8 2 0.841 1.879 1.175 3.879 1 6 0.271 1.88-0.396 3.213-2 4 2.565-8.776-0.268-11.443-8.5-8-1.0729 3.6-0.2395 6.6 2.5 9-1.9113-0.575-3.578-1.575-5-3 0.134-1.792-0.1993-3.458-1-5 2-1.333 3.6667-3 5-5z" fill="#9a9966"/>
<path d="m43.5 173.5c-1.3933 0.76-2.8933 1.426-4.5 2-1.9078-0.215-3.0744-1.215-3.5-3h3c-0.1602-1.699 0.0065-3.366 0.5-5 0.2602 2.118 1.2602 3.784 3 5 0.4476-5.728-1.7191-7.061-6.5-4-0.9287 1.189-1.262 2.522-1 4h-1c-0.2852-1.788 0.0481-3.455 1-5 6.6299-3.719 9.6299-1.719 9 6z" fill="#a28853"/>
<path d="m35.5 172.5h-1c-0.262-1.478 0.0713-2.811 1-4 4.7809-3.061 6.9476-1.728 6.5 4-1.7398-1.216-2.7398-2.882-3-5-0.4935 1.634-0.6602 3.301-0.5 5h-3z" fill="#cda054"/>
<path d="m107.5 181.5c-1.935 0.65-3.935 0.983-6 1-2.7395-2.4-3.5729-5.4-2.5-9 8.232-3.443 11.065-0.776 8.5 8z" fill="#d09b4e"/>
<path d="m148.5 173.5v1c0.333 3-1 4.333-4 4v-5h4z" fill="#958350"/>
<path d="m33.5 172.5h1 1c0.4256 1.785 1.5922 2.785 3.5 3 1.6067-0.574 3.1067-1.24 4.5-2-0.131 0.739 0.0357 1.406 0.5 2 0.6891-0.857 1.5224-1.523 2.5-2 8.464 1.506 16.131 4.673 23 9.5 3.3333 0.333 6.6667 0.667 10 1l1.5 1.5c4.7229-0.322 9.5562-0.322 14.5 0-0.262-1.478 0.0713-2.811 1-4 4.406 3.532 9.073 3.866 14 1 5.507 1.817 10.507 0.984 15-2.5 2.929-0.777 5.763-0.61 8.5 0.5 2.126-2.928 1.293-4.761-2.5-5.5 2.724-0.27 5.391-0.77 8-1.5 2.552 1.161 3.885 3.161 4 6-1.35-0.983-2.35-2.316-3-4-1.527 6.831-5.86 9.498-13 8v5c-5.714 0.762-11.38 0.762-17 0-0.854 1.022-1.854 1.855-3 2.5-8.0825-0.827-16.082 7e-3 -24 2.5-4.4992-0.297-4.8325-1.131-1-2.5-0.3333-0.333-0.6667-0.667-1-1-6-0.333-12-0.667-18-1-4.5986-1.598-7.4319-4.765-8.5-9.5-2.635 3.006-4.635 2.672-6-1-2.0095 1.333-3.6761 3-5 5-2.4937-1.275-4.9937-2.608-7.5-4-1.299-2.258-2.299-4.592-3-7z" fill="#048596"/>
</svg>
