<svg width="2026" height="2026" viewBox="0 0 2026 2026" fill="none" xmlns="http://www.w3.org/2000/svg">
<path fill-rule="evenodd" clip-rule="evenodd" d="M1774.07 1681.56C1930.9 1503.17 2026 1269.19 2026 1013C2026 453.536 1572.46 0 1013 0C453.536 0 0 453.536 0 1013C0 1572.46 453.536 2026 1013 2026C1104.92 2026 1193.97 2013.76 1278.63 1990.82C1124.54 1941.43 1013 1796.99 1013 1626.5C1013 1415.25 1184.25 1244 1395.5 1244C1606.75 1244 1778 1415.25 1778 1626.5C1778 1645.2 1776.66 1663.58 1774.07 1681.56Z" fill="#50AF95"/>
<path d="M1688.5 1626.8C1688.5 1789.3 1557.3 1920.6 1394.7 1920.6C1232.1 1920.6 1101 1789.3 1101 1626.8C1101 1556 1126 1492.4 1166.6 1441.4C1169.7 1437.2 1172.8 1433.1 1177 1429.9C1231.2 1370.5 1308.2 1333 1394.7 1333C1451.5 1333 1504.4 1349 1549.3 1376.8C1587.2 1400.2 1619.3 1432.1 1643.1 1469.7C1671.9 1515.2 1688.5 1569 1688.5 1626.8Z" fill="#606060"/>
<path d="M1688.5 1626.8C1688.5 1789.3 1557.3 1920.6 1394.7 1920.6C1232.1 1920.6 1101 1789.3 1101 1626.8C1101 1556 1126 1492.4 1166.6 1441.4C1169.7 1437.2 1172.8 1433.1 1177 1429.9C1231.2 1370.5 1308.2 1333 1394.7 1333C1451.5 1333 1504.4 1349 1549.3 1376.8C1587.2 1400.2 1619.3 1432.1 1643.1 1469.7C1671.9 1515.2 1688.5 1569 1688.5 1626.8Z" fill="#28374F"/>
<path d="M1394.8 1446.3L1288.4 1621L1394.8 1683V1446.3Z" fill="#FCFCFD"/>
<path d="M1394.8 1717.3V1807.3L1286.3 1654L1394.8 1717.3Z" fill="#FCFCFD"/>
<path d="M1288.4 1621L1394.8 1572.3V1683L1288.4 1621Z" fill="#FCFCFD"/>
<path d="M1394.8 1446.3L1501.2 1621L1394.8 1683V1446.3Z" fill="#FCFCFD"/>
<path d="M1503.2 1654L1394.8 1807.3V1717.3L1503.2 1654Z" fill="#FCFCFD"/>
<path d="M1501.2 1621L1394.8 1572.3V1683L1501.2 1621Z" fill="#FCFCFD"/>
<path fill-rule="evenodd" clip-rule="evenodd" d="M1014.83 1054.02C1087.06 1054.02 1119.44 1052.08 1125.71 1051.62L1125.5 1051.56C1347.11 1041.75 1512.41 1003.14 1512.41 957.018C1512.41 910.894 1347.05 872.283 1125.5 862.421V1013.21C1119.29 1013.79 1084.76 1016.66 1015.82 1016.66C958.373 1016.66 916.8 1014.2 902.281 1013.16V862.317C680.26 872.231 514.541 910.789 514.541 957.018C514.541 1003.25 680.26 1041.86 902.281 1051.62C916.591 1052.29 957.381 1054.02 1014.83 1054.02ZM1125.71 846.771V846.82L1125.66 846.768C1125.68 846.769 1125.69 846.77 1125.71 846.771ZM1125.66 1355.41V1088.3C1376.35 1076.76 1565 1027.09 1565 967.558C1565 908.028 1376.54 858.358 1125.71 846.771V711.838H1434.9V506H593.092V711.838H902.229V846.768C650.96 858.299 462 908.024 462 967.61C462 1027.2 650.96 1076.87 902.229 1088.45V1521H1027.73C1045.92 1457.49 1080.11 1400.75 1125.66 1355.41Z" fill="white"/>
</svg>
