<svg xmlns="http://www.w3.org/2000/svg" version="1.1" width="512px" height="512px" style="shape-rendering:geometricPrecision; text-rendering:geometricPrecision; image-rendering:optimizeQuality; fill-rule:evenodd; clip-rule:evenodd" xmlns:xlink="http://www.w3.org/1999/xlink">
<g><path style="opacity:0.997" fill="#db3f3c" d="M 233.5,-0.5 C 248.5,-0.5 263.5,-0.5 278.5,-0.5C 337.878,5.52884 389.212,28.8622 432.5,69.5C 342.097,61.5728 266.597,91.2395 206,158.5C 172.528,198.799 152.695,245.133 146.5,297.5C 142.168,296.903 137.835,296.737 133.5,297C 125.926,301.874 125.592,307.208 132.5,313C 136.754,314.314 141.087,315.147 145.5,315.5C 143.954,375.354 160.954,429.187 196.5,477C 210.425,471.223 224.758,466.223 239.5,462C 254.488,460.933 269.488,459.933 284.5,459C 292.222,456.925 299.888,454.758 307.5,452.5C 315.504,454.168 317.671,458.835 314,466.5C 309.973,469.596 305.473,471.763 300.5,473C 281.757,477.221 262.757,479.221 243.5,479C 231.643,481.763 220.309,485.929 209.5,491.5C 208.479,492.002 208.312,492.668 209,493.5C 215.065,499.031 220.231,504.697 224.5,510.5C 210.725,509.478 197.392,506.812 184.5,502.5C 192.43,499.411 200.096,495.744 207.5,491.5C 204.357,487.189 201.023,483.022 197.5,479C 184.132,484.401 170.465,488.901 156.5,492.5C 88.8207,463.319 41.654,414.319 15,345.5C 7.11831,323.65 1.95164,301.317 -0.5,278.5C -0.5,263.5 -0.5,248.5 -0.5,233.5C 1.29291,216.869 4.62625,200.536 9.5,184.5C 9.51056,186.017 10.1772,187.184 11.5,188C 33.4914,204.246 57.6581,216.413 84,224.5C 91.5869,223.975 94.9203,219.975 94,212.5C 92.9542,210.91 91.7875,209.41 90.5,208C 62.0306,199.938 36.6973,186.438 14.5,167.5C 48.932,81.9085 110.932,27.7419 200.5,5C 211.576,2.74641 222.576,0.913081 233.5,-0.5 Z"/></g>
<g><path style="opacity:0.997" fill="#fe4e19" d="M 432.5,69.5 C 442.212,78.8775 451.212,88.8775 459.5,99.5C 436.843,109.997 413.176,117.83 388.5,123C 382.355,127.694 382.021,132.694 387.5,138C 389.199,138.958 391.033,139.458 393,139.5C 417.857,134.214 442.024,126.714 465.5,117C 467.544,116.502 468.878,115.335 469.5,113.5C 492.165,147.174 506.165,184.174 511.5,224.5C 511.5,245.5 511.5,266.5 511.5,287.5C 495.826,384.699 443.159,453.533 353.5,494C 332.034,502.365 310.034,508.198 287.5,511.5C 266.5,511.5 245.5,511.5 224.5,511.5C 224.5,511.167 224.5,510.833 224.5,510.5C 220.231,504.697 215.065,499.031 209,493.5C 208.312,492.668 208.479,492.002 209.5,491.5C 220.309,485.929 231.643,481.763 243.5,479C 262.757,479.221 281.757,477.221 300.5,473C 305.473,471.763 309.973,469.596 314,466.5C 317.671,458.835 315.504,454.168 307.5,452.5C 299.888,454.758 292.222,456.925 284.5,459C 269.488,459.933 254.488,460.933 239.5,462C 224.758,466.223 210.425,471.223 196.5,477C 160.954,429.187 143.954,375.354 145.5,315.5C 165.064,318.699 184.73,321.199 204.5,323C 219.521,326.204 234.521,329.538 249.5,333C 253.104,334.334 254.271,336.834 253,340.5C 247.537,344.419 246.204,349.419 249,355.5C 249.903,356.701 251.069,357.535 252.5,358C 294.17,358.911 335.504,355.577 376.5,348C 387.091,346.217 397.424,343.55 407.5,340C 410.567,334.8 409.9,330.133 405.5,326C 400.196,324.399 394.862,322.899 389.5,321.5C 388.068,321.267 387.568,320.6 388,319.5C 393.167,315.667 398.333,311.833 403.5,308C 413.318,305.463 422.985,302.463 432.5,299C 437.608,291.053 435.608,285.886 426.5,283.5C 357.826,302.934 287.826,310.434 216.5,306C 193.037,304.62 169.704,302.12 146.5,298.5C 146.5,298.167 146.5,297.833 146.5,297.5C 152.695,245.133 172.528,198.799 206,158.5C 266.597,91.2395 342.097,61.5728 432.5,69.5 Z"/></g>
<g><path style="opacity:1" fill="#a13939" d="M 185.5,76.5 C 194.882,77.0379 198.048,81.7046 195,90.5C 187.217,96.5295 181.717,94.8628 178.5,85.5C 179.199,81.0453 181.533,78.0453 185.5,76.5 Z"/></g>
<g><path style="opacity:1" fill="#db3f3c" d="M 459.5,99.5 C 463.189,103.865 466.522,108.531 469.5,113.5C 468.878,115.335 467.544,116.502 465.5,117C 442.024,126.714 417.857,134.214 393,139.5C 391.033,139.458 389.199,138.958 387.5,138C 382.021,132.694 382.355,127.694 388.5,123C 413.176,117.83 436.843,109.997 459.5,99.5 Z"/></g>
<g><path style="opacity:1" fill="#a03939" d="M 125.5,101.5 C 138.95,100.12 145.45,106.12 145,119.5C 142.507,135.337 133.34,143.17 117.5,143C 113.725,141.558 110.892,139.058 109,135.5C 105.157,119.521 110.657,108.187 125.5,101.5 Z"/></g>
<g><path style="opacity:1" fill="#a03939" d="M 14.5,167.5 C 36.6973,186.438 62.0306,199.938 90.5,208C 91.7875,209.41 92.9542,210.91 94,212.5C 94.9203,219.975 91.5869,223.975 84,224.5C 57.6581,216.413 33.4914,204.246 11.5,188C 10.1772,187.184 9.51056,186.017 9.5,184.5C 10.9639,178.775 12.6306,173.108 14.5,167.5 Z"/></g>
<g><path style="opacity:1" fill="#db3f3c" d="M 388.5,196.5 C 398.856,195.25 402.69,199.584 400,209.5C 395,214.833 390,214.833 385,209.5C 382.676,204.167 383.843,199.833 388.5,196.5 Z"/></g>
<g><path style="opacity:1" fill="#db3f3c" d="M 347.5,221.5 C 355.472,221.636 358.972,225.636 358,233.5C 354.936,238.789 350.436,242.289 344.5,244C 336.669,246.528 328.669,247.528 320.5,247C 314.826,242.628 314.159,237.628 318.5,232C 325.458,230.228 332.458,228.561 339.5,227C 342.07,224.913 344.737,223.08 347.5,221.5 Z"/></g>
<g><path style="opacity:1" fill="#db3f3c" d="M 278.5,230.5 C 283.511,230.334 288.511,230.501 293.5,231C 298.069,233.541 299.569,237.375 298,242.5C 297.167,244.667 295.667,246.167 293.5,247C 286.714,247.223 280.047,248.223 273.5,250C 265.712,253.394 258.045,257.061 250.5,261C 238.499,265.198 226.166,266.532 213.5,265C 206.89,263.944 204.057,260.111 205,253.5C 205.774,251.061 207.274,249.227 209.5,248C 219.953,249.324 230.286,248.658 240.5,246C 248.288,242.606 255.955,238.939 263.5,235C 268.535,233.151 273.535,231.651 278.5,230.5 Z"/></g>
<g><path style="opacity:1" fill="#db3f3c" d="M 422.5,230.5 C 431.61,228.783 435.777,232.45 435,241.5C 430.558,248.705 425.225,249.372 419,243.5C 417.85,241.246 417.516,238.913 418,236.5C 419.332,234.34 420.832,232.34 422.5,230.5 Z"/></g>
<g><path style="opacity:1" fill="#a03939" d="M 66.5,272.5 C 77.6155,271.428 84.4488,276.428 87,287.5C 88.7822,296.763 85.6155,303.596 77.5,308C 68.8822,308.597 63.0488,304.764 60,296.5C 56.8972,286.899 59.0639,278.899 66.5,272.5 Z"/></g>
<g><path style="opacity:1" fill="#db3f3c" d="M 145.5,315.5 C 145.447,309.804 145.78,304.138 146.5,298.5C 169.704,302.12 193.037,304.62 216.5,306C 287.826,310.434 357.826,302.934 426.5,283.5C 435.608,285.886 437.608,291.053 432.5,299C 422.985,302.463 413.318,305.463 403.5,308C 398.333,311.833 393.167,315.667 388,319.5C 387.568,320.6 388.068,321.267 389.5,321.5C 394.862,322.899 400.196,324.399 405.5,326C 409.9,330.133 410.567,334.8 407.5,340C 397.424,343.55 387.091,346.217 376.5,348C 335.504,355.577 294.17,358.911 252.5,358C 251.069,357.535 249.903,356.701 249,355.5C 246.204,349.419 247.537,344.419 253,340.5C 254.271,336.834 253.104,334.334 249.5,333C 234.521,329.538 219.521,326.204 204.5,323C 184.73,321.199 165.064,318.699 145.5,315.5 Z"/></g>
<g><path style="opacity:1" fill="#a03939" d="M 146.5,297.5 C 146.5,297.833 146.5,298.167 146.5,298.5C 145.78,304.138 145.447,309.804 145.5,315.5C 141.087,315.147 136.754,314.314 132.5,313C 125.592,307.208 125.926,301.874 133.5,297C 137.835,296.737 142.168,296.903 146.5,297.5 Z"/></g>
<g><path style="opacity:1" fill="#db3f3c" d="M 209.5,341.5 C 216.391,340.063 220.724,342.73 222.5,349.5C 219.914,358.792 214.58,360.792 206.5,355.5C 203.42,349.895 204.42,345.229 209.5,341.5 Z"/></g>
<g><path style="opacity:1" fill="#db3f3c" d="M 321.5,383.5 C 331.714,383.917 334.881,388.917 331,398.5C 324.911,402.894 319.911,401.894 316,395.5C 314.873,390.089 316.707,386.089 321.5,383.5 Z"/></g>
<g><path style="opacity:1" fill="#a23938" d="M 184.5,502.5 C 174.724,500.132 165.39,496.799 156.5,492.5C 170.465,488.901 184.132,484.401 197.5,479C 201.023,483.022 204.357,487.189 207.5,491.5C 200.096,495.744 192.43,499.411 184.5,502.5 Z"/></g>
</svg>
