<svg width="200" height="200" viewBox="0 0 200 200" fill="none" xmlns="http://www.w3.org/2000/svg">
<g clip-path="url(#clip0_639_988)">
<path d="M161.82 144.3C164.69 148.84 166.35 154.22 166.35 160C166.35 176.25 153.23 189.38 136.97 189.38C120.71 189.38 107.6 176.25 107.6 160C107.6 152.92 110.1 146.56 114.16 141.46C114.47 141.04 114.78 140.63 115.2 140.31C120.62 134.37 128.32 130.62 136.97 130.62C142.65 130.62 147.94 132.22 152.43 135C156.23 137.35 159.44 140.53 161.82 144.3Z" fill="#2775CA"/>
<path d="M174.59 166.75C174.99 164.52 175.21 162.23 175.21 159.89C175.21 150.88 172.06 142.58 166.8 136.03C163.97 132.5 160.53 129.49 156.64 127.14C150.89 123.67 144.16 121.66 136.98 121.66C133.3 121.66 129.66 122.21 126.19 123.25C119.73 125.19 113.81 128.83 109.07 133.84C108.24 134.67 107.61 135.51 107.19 136.03C103.55 140.63 101.05 145.77 99.76 151.24C99.09 154.08 98.75 157 98.75 159.99C98.75 177.22 110.27 191.87 126 196.61C117.71 198.82 109 199.99 100 199.99C44.58 200 0 155.42 0 100C0 44.58 44.58 0 100 0C155.42 0 200 44.58 200 100C200 125.7 190.41 149.08 174.59 166.75Z" fill="black"/>
<path fill-rule="evenodd" clip-rule="evenodd" d="M158.802 128.546L158.857 128.44L157.847 127.9C158.169 128.111 158.487 128.326 158.802 128.546ZM151.816 124.675C147.25 122.737 142.236 121.66 136.98 121.66C133.3 121.66 129.66 122.21 126.19 123.25C121.339 124.707 116.792 127.123 112.821 130.357L101.925 125.941C100.69 125.437 99.3102 125.437 98.075 125.941L49.9852 145.529L41.1426 128.535L93.6334 100.416L41.1426 72.2971L49.9852 55.3037L98.075 74.7426C99.3102 75.2454 100.69 75.2454 101.925 74.7426L150.015 55.3037L158.831 72.2426L106.339 100.361L151.816 124.675Z" fill="#23F7DD"/>
<path d="M166.35 160C166.35 176.25 153.23 189.38 136.97 189.38C120.71 189.38 107.6 176.25 107.6 160C107.6 152.92 110.1 146.56 114.16 141.46C114.47 141.04 114.78 140.63 115.2 140.31C120.62 134.37 128.32 130.62 136.97 130.62C142.65 130.62 147.94 132.22 152.43 135C156.22 137.34 159.43 140.53 161.81 144.29C164.69 148.84 166.35 154.22 166.35 160Z" fill="white"/>
<path d="M126.696 174.6H131.952L136.956 157.824L141.96 174.6H147.288L154.74 149.4H149.268L144.408 166.644L139.224 149.4H134.652L129.504 166.644L124.68 149.4H119.208L126.696 174.6Z" fill="black"/>
</g>
<defs>
<clipPath id="clip0_639_988">
<rect width="200" height="200" fill="white"/>
</clipPath>
</defs>
</svg>
