<svg xmlns="http://www.w3.org/2000/svg" xmlns:xlink="http://www.w3.org/1999/xlink" width="200" zoomAndPan="magnify" viewBox="0 0 150 149.999998" height="200" preserveAspectRatio="xMidYMid meet" version="1.2"><defs/><g id="275e50f55f"><g style="fill:#d32f23;fill-opacity:0.4196;"><g transform="translate(30.969931, 75.754234)"><path style="stroke:none" d="M 14.625 -19.71875 C 14.738281 -19.71875 14.828125 -19.679688 14.890625 -19.609375 C 14.953125 -19.535156 14.972656 -19.429688 14.953125 -19.296875 L 14.515625 -15.609375 C 14.492188 -15.472656 14.441406 -15.367188 14.359375 -15.296875 C 14.285156 -15.222656 14.1875 -15.1875 14.0625 -15.1875 L 10.796875 -15.1875 C 10.703125 -15.1875 10.65625 -15.140625 10.65625 -15.046875 L 8.84375 -0.421875 C 8.820312 -0.285156 8.773438 -0.179688 8.703125 -0.109375 C 8.628906 -0.0351562 8.523438 0 8.390625 0 L 4.078125 0 C 3.953125 0 3.851562 -0.0351562 3.78125 -0.109375 C 3.71875 -0.179688 3.695312 -0.285156 3.71875 -0.421875 L 5.515625 -15.046875 C 5.515625 -15.140625 5.46875 -15.1875 5.375 -15.1875 L 2.21875 -15.1875 C 2.09375 -15.1875 1.992188 -15.222656 1.921875 -15.296875 C 1.859375 -15.367188 1.835938 -15.472656 1.859375 -15.609375 L 2.3125 -19.296875 C 2.332031 -19.429688 2.382812 -19.535156 2.46875 -19.609375 C 2.550781 -19.679688 2.65625 -19.71875 2.78125 -19.71875 Z M 14.625 -19.71875 "/></g></g><g style="fill:#d32f23;fill-opacity:0.4196;"><g transform="translate(44.604516, 75.754234)"><path style="stroke:none" d="M 0.5625 0 C 0.445312 0 0.359375 -0.0351562 0.296875 -0.109375 C 0.234375 -0.179688 0.207031 -0.285156 0.21875 -0.421875 L 2.53125 -19.296875 C 2.550781 -19.429688 2.601562 -19.535156 2.6875 -19.609375 C 2.769531 -19.679688 2.867188 -19.71875 2.984375 -19.71875 L 7.328125 -19.71875 C 7.441406 -19.71875 7.53125 -19.679688 7.59375 -19.609375 C 7.65625 -19.535156 7.675781 -19.429688 7.65625 -19.296875 L 5.359375 -0.421875 C 5.335938 -0.285156 5.285156 -0.179688 5.203125 -0.109375 C 5.117188 -0.0351562 5.019531 0 4.90625 0 Z M 0.5625 0 "/></g></g><g style="fill:#d32f23;fill-opacity:0.4196;"><g transform="translate(51.168273, 75.754234)"><path style="stroke:none" d="M 5.9375 0.21875 C 4.3125 0.21875 3.019531 -0.226562 2.0625 -1.125 C 1.113281 -2.03125 0.640625 -3.257812 0.640625 -4.8125 C 0.640625 -5 0.660156 -5.320312 0.703125 -5.78125 L 1.71875 -14 C 1.945312 -15.820312 2.671875 -17.269531 3.890625 -18.34375 C 5.109375 -19.414062 6.617188 -19.953125 8.421875 -19.953125 C 10.054688 -19.953125 11.351562 -19.503906 12.3125 -18.609375 C 13.269531 -17.710938 13.75 -16.488281 13.75 -14.9375 C 13.75 -14.757812 13.726562 -14.445312 13.6875 -14 L 13.65625 -13.859375 C 13.644531 -13.722656 13.59375 -13.613281 13.5 -13.53125 C 13.414062 -13.445312 13.320312 -13.40625 13.21875 -13.40625 L 8.875 -13.265625 C 8.59375 -13.265625 8.472656 -13.394531 8.515625 -13.65625 L 8.59375 -14.375 C 8.632812 -14.6875 8.585938 -14.9375 8.453125 -15.125 C 8.316406 -15.3125 8.128906 -15.40625 7.890625 -15.40625 C 7.628906 -15.40625 7.40625 -15.3125 7.21875 -15.125 C 7.039062 -14.9375 6.9375 -14.6875 6.90625 -14.375 L 5.796875 -5.328125 C 5.765625 -5.023438 5.804688 -4.78125 5.921875 -4.59375 C 6.046875 -4.40625 6.238281 -4.3125 6.5 -4.3125 C 6.769531 -4.3125 6.992188 -4.398438 7.171875 -4.578125 C 7.347656 -4.753906 7.457031 -5.003906 7.5 -5.328125 L 7.578125 -6.078125 C 7.597656 -6.210938 7.648438 -6.3125 7.734375 -6.375 C 7.816406 -6.445312 7.914062 -6.484375 8.03125 -6.484375 L 12.34375 -6.34375 C 12.46875 -6.34375 12.5625 -6.296875 12.625 -6.203125 C 12.695312 -6.117188 12.722656 -6.015625 12.703125 -5.890625 L 12.671875 -5.78125 C 12.453125 -3.957031 11.726562 -2.5 10.5 -1.40625 C 9.269531 -0.320312 7.75 0.21875 5.9375 0.21875 Z M 5.9375 0.21875 "/></g></g><g style="fill:#d32f23;fill-opacity:0.4196;"><g transform="translate(64.183107, 75.754234)"><path style="stroke:none" d="M 0.5625 0 C 0.445312 0 0.359375 -0.0351562 0.296875 -0.109375 C 0.234375 -0.179688 0.207031 -0.285156 0.21875 -0.421875 L 2.53125 -19.296875 C 2.550781 -19.429688 2.601562 -19.535156 2.6875 -19.609375 C 2.769531 -19.679688 2.867188 -19.71875 2.984375 -19.71875 L 7.328125 -19.71875 C 7.441406 -19.71875 7.53125 -19.679688 7.59375 -19.609375 C 7.65625 -19.535156 7.675781 -19.429688 7.65625 -19.296875 L 6.984375 -13.640625 C 6.960938 -13.554688 6.972656 -13.515625 7.015625 -13.515625 C 7.054688 -13.515625 7.09375 -13.546875 7.125 -13.609375 L 10.171875 -19.375 C 10.285156 -19.601562 10.460938 -19.71875 10.703125 -19.71875 L 15.21875 -19.71875 C 15.4375 -19.71875 15.546875 -19.632812 15.546875 -19.46875 C 15.546875 -19.394531 15.519531 -19.3125 15.46875 -19.21875 L 10.59375 -10.875 C 10.570312 -10.800781 10.5625 -10.742188 10.5625 -10.703125 L 13.296875 -0.484375 L 13.296875 -0.359375 C 13.296875 -0.117188 13.164062 0 12.90625 0 L 8.359375 0 C 8.117188 0 7.972656 -0.113281 7.921875 -0.34375 L 6.484375 -6.140625 C 6.484375 -6.191406 6.460938 -6.222656 6.421875 -6.234375 C 6.378906 -6.242188 6.351562 -6.210938 6.34375 -6.140625 L 6 -5.515625 L 5.96875 -5.359375 L 5.359375 -0.421875 C 5.335938 -0.285156 5.285156 -0.179688 5.203125 -0.109375 C 5.117188 -0.0351562 5.019531 0 4.90625 0 Z M 0.5625 0 "/></g></g><g style="fill:#d32f23;fill-opacity:0.4196;"><g transform="translate(78.296596, 75.754234)"><path style="stroke:none" d="M 13.015625 -15.609375 C 12.992188 -15.472656 12.941406 -15.367188 12.859375 -15.296875 C 12.773438 -15.222656 12.664062 -15.1875 12.53125 -15.1875 L 7.296875 -15.1875 C 7.203125 -15.1875 7.15625 -15.140625 7.15625 -15.046875 L 6.8125 -12.28125 C 6.78125 -12.1875 6.820312 -12.140625 6.9375 -12.140625 L 9.65625 -12.140625 C 9.789062 -12.140625 9.890625 -12.101562 9.953125 -12.03125 C 10.023438 -11.957031 10.050781 -11.851562 10.03125 -11.71875 L 9.578125 -8.03125 C 9.523438 -7.75 9.363281 -7.609375 9.09375 -7.609375 L 6.359375 -7.609375 C 6.265625 -7.609375 6.21875 -7.5625 6.21875 -7.46875 L 5.890625 -4.671875 C 5.847656 -4.578125 5.882812 -4.53125 6 -4.53125 L 11.234375 -4.53125 C 11.367188 -4.53125 11.46875 -4.492188 11.53125 -4.421875 C 11.601562 -4.347656 11.628906 -4.242188 11.609375 -4.109375 L 11.15625 -0.421875 C 11.132812 -0.285156 11.082031 -0.179688 11 -0.109375 C 10.914062 -0.0351562 10.804688 0 10.671875 0 L 0.5625 0 C 0.445312 0 0.359375 -0.0351562 0.296875 -0.109375 C 0.234375 -0.179688 0.207031 -0.285156 0.21875 -0.421875 L 2.53125 -19.296875 C 2.550781 -19.429688 2.601562 -19.535156 2.6875 -19.609375 C 2.769531 -19.679688 2.867188 -19.71875 2.984375 -19.71875 L 13.09375 -19.71875 C 13.226562 -19.71875 13.328125 -19.679688 13.390625 -19.609375 C 13.460938 -19.535156 13.488281 -19.429688 13.46875 -19.296875 Z M 13.015625 -15.609375 "/></g></g><g style="fill:#d32f23;fill-opacity:0.4196;"><g transform="translate(90.438136, 75.754234)"><path style="stroke:none" d="M 14.625 -19.71875 C 14.738281 -19.71875 14.828125 -19.679688 14.890625 -19.609375 C 14.953125 -19.535156 14.972656 -19.429688 14.953125 -19.296875 L 14.515625 -15.609375 C 14.492188 -15.472656 14.441406 -15.367188 14.359375 -15.296875 C 14.285156 -15.222656 14.1875 -15.1875 14.0625 -15.1875 L 10.796875 -15.1875 C 10.703125 -15.1875 10.65625 -15.140625 10.65625 -15.046875 L 8.84375 -0.421875 C 8.820312 -0.285156 8.773438 -0.179688 8.703125 -0.109375 C 8.628906 -0.0351562 8.523438 0 8.390625 0 L 4.078125 0 C 3.953125 0 3.851562 -0.0351562 3.78125 -0.109375 C 3.71875 -0.179688 3.695312 -0.285156 3.71875 -0.421875 L 5.515625 -15.046875 C 5.515625 -15.140625 5.46875 -15.1875 5.375 -15.1875 L 2.21875 -15.1875 C 2.09375 -15.1875 1.992188 -15.222656 1.921875 -15.296875 C 1.859375 -15.367188 1.835938 -15.472656 1.859375 -15.609375 L 2.3125 -19.296875 C 2.332031 -19.429688 2.382812 -19.535156 2.46875 -19.609375 C 2.550781 -19.679688 2.65625 -19.71875 2.78125 -19.71875 Z M 14.625 -19.71875 "/></g></g><g style="fill:#d32f23;fill-opacity:0.4196;"><g transform="translate(104.072721, 75.754234)"><path style="stroke:none" d="M 5.859375 0.21875 C 4.242188 0.21875 2.96875 -0.195312 2.03125 -1.03125 C 1.09375 -1.863281 0.625 -2.972656 0.625 -4.359375 C 0.625 -4.492188 0.640625 -4.734375 0.671875 -5.078125 L 0.78125 -5.9375 C 0.800781 -6.070312 0.851562 -6.175781 0.9375 -6.25 C 1.03125 -6.320312 1.128906 -6.359375 1.234375 -6.359375 L 5.515625 -6.359375 C 5.628906 -6.359375 5.71875 -6.320312 5.78125 -6.25 C 5.851562 -6.175781 5.878906 -6.070312 5.859375 -5.9375 L 5.796875 -5.328125 C 5.765625 -5.023438 5.800781 -4.78125 5.90625 -4.59375 C 6.019531 -4.40625 6.191406 -4.3125 6.421875 -4.3125 C 6.671875 -4.3125 6.878906 -4.414062 7.046875 -4.625 C 7.210938 -4.832031 7.296875 -5.082031 7.296875 -5.375 C 7.296875 -5.65625 7.160156 -5.945312 6.890625 -6.25 C 6.617188 -6.550781 6.097656 -7.015625 5.328125 -7.640625 C 4.578125 -8.253906 3.957031 -8.800781 3.46875 -9.28125 C 2.976562 -9.757812 2.550781 -10.347656 2.1875 -11.046875 C 1.832031 -11.753906 1.65625 -12.5625 1.65625 -13.46875 C 1.65625 -13.632812 1.675781 -13.925781 1.71875 -14.34375 C 1.925781 -16.007812 2.617188 -17.359375 3.796875 -18.390625 C 4.984375 -19.429688 6.457031 -19.953125 8.21875 -19.953125 C 9.84375 -19.953125 11.117188 -19.519531 12.046875 -18.65625 C 12.972656 -17.789062 13.4375 -16.625 13.4375 -15.15625 C 13.4375 -14.988281 13.414062 -14.71875 13.375 -14.34375 L 13.296875 -13.71875 C 13.273438 -13.582031 13.222656 -13.476562 13.140625 -13.40625 C 13.054688 -13.332031 12.957031 -13.296875 12.84375 -13.296875 L 8.59375 -13.296875 C 8.476562 -13.296875 8.382812 -13.332031 8.3125 -13.40625 C 8.25 -13.476562 8.226562 -13.582031 8.25 -13.71875 L 8.34375 -14.453125 C 8.351562 -14.734375 8.296875 -14.960938 8.171875 -15.140625 C 8.054688 -15.316406 7.882812 -15.40625 7.65625 -15.40625 C 7.394531 -15.40625 7.179688 -15.289062 7.015625 -15.0625 C 6.847656 -14.84375 6.765625 -14.546875 6.765625 -14.171875 C 6.765625 -13.847656 6.894531 -13.515625 7.15625 -13.171875 C 7.414062 -12.835938 7.90625 -12.375 8.625 -11.78125 C 9.582031 -10.96875 10.3125 -10.3125 10.8125 -9.8125 C 11.320312 -9.320312 11.722656 -8.78125 12.015625 -8.1875 C 12.304688 -7.59375 12.453125 -6.921875 12.453125 -6.171875 C 12.453125 -6.015625 12.429688 -5.75 12.390625 -5.375 C 12.171875 -3.664062 11.460938 -2.304688 10.265625 -1.296875 C 9.078125 -0.285156 7.609375 0.21875 5.859375 0.21875 Z M 5.859375 0.21875 "/></g></g><g style="fill:#75c7fb;fill-opacity:1;"><g transform="translate(30.132271, 75.000003)"><path style="stroke:none" d="M 14.625 -19.71875 C 14.738281 -19.71875 14.828125 -19.679688 14.890625 -19.609375 C 14.953125 -19.535156 14.972656 -19.429688 14.953125 -19.296875 L 14.515625 -15.609375 C 14.492188 -15.472656 14.441406 -15.367188 14.359375 -15.296875 C 14.285156 -15.222656 14.1875 -15.1875 14.0625 -15.1875 L 10.796875 -15.1875 C 10.703125 -15.1875 10.65625 -15.140625 10.65625 -15.046875 L 8.84375 -0.421875 C 8.820312 -0.285156 8.773438 -0.179688 8.703125 -0.109375 C 8.628906 -0.0351562 8.523438 0 8.390625 0 L 4.078125 0 C 3.953125 0 3.851562 -0.0351562 3.78125 -0.109375 C 3.71875 -0.179688 3.695312 -0.285156 3.71875 -0.421875 L 5.515625 -15.046875 C 5.515625 -15.140625 5.46875 -15.1875 5.375 -15.1875 L 2.21875 -15.1875 C 2.09375 -15.1875 1.992188 -15.222656 1.921875 -15.296875 C 1.859375 -15.367188 1.835938 -15.472656 1.859375 -15.609375 L 2.3125 -19.296875 C 2.332031 -19.429688 2.382812 -19.535156 2.46875 -19.609375 C 2.550781 -19.679688 2.65625 -19.71875 2.78125 -19.71875 Z M 14.625 -19.71875 "/></g></g><g style="fill:#75c7fb;fill-opacity:1;"><g transform="translate(43.766856, 75.000003)"><path style="stroke:none" d="M 0.5625 0 C 0.445312 0 0.359375 -0.0351562 0.296875 -0.109375 C 0.234375 -0.179688 0.207031 -0.285156 0.21875 -0.421875 L 2.53125 -19.296875 C 2.550781 -19.429688 2.601562 -19.535156 2.6875 -19.609375 C 2.769531 -19.679688 2.867188 -19.71875 2.984375 -19.71875 L 7.328125 -19.71875 C 7.441406 -19.71875 7.53125 -19.679688 7.59375 -19.609375 C 7.65625 -19.535156 7.675781 -19.429688 7.65625 -19.296875 L 5.359375 -0.421875 C 5.335938 -0.285156 5.285156 -0.179688 5.203125 -0.109375 C 5.117188 -0.0351562 5.019531 0 4.90625 0 Z M 0.5625 0 "/></g></g><g style="fill:#75c7fb;fill-opacity:1;"><g transform="translate(50.330613, 75.000003)"><path style="stroke:none" d="M 5.9375 0.21875 C 4.3125 0.21875 3.019531 -0.226562 2.0625 -1.125 C 1.113281 -2.03125 0.640625 -3.257812 0.640625 -4.8125 C 0.640625 -5 0.660156 -5.320312 0.703125 -5.78125 L 1.71875 -14 C 1.945312 -15.820312 2.671875 -17.269531 3.890625 -18.34375 C 5.109375 -19.414062 6.617188 -19.953125 8.421875 -19.953125 C 10.054688 -19.953125 11.351562 -19.503906 12.3125 -18.609375 C 13.269531 -17.710938 13.75 -16.488281 13.75 -14.9375 C 13.75 -14.757812 13.726562 -14.445312 13.6875 -14 L 13.65625 -13.859375 C 13.644531 -13.722656 13.59375 -13.613281 13.5 -13.53125 C 13.414062 -13.445312 13.320312 -13.40625 13.21875 -13.40625 L 8.875 -13.265625 C 8.59375 -13.265625 8.472656 -13.394531 8.515625 -13.65625 L 8.59375 -14.375 C 8.632812 -14.6875 8.585938 -14.9375 8.453125 -15.125 C 8.316406 -15.3125 8.128906 -15.40625 7.890625 -15.40625 C 7.628906 -15.40625 7.40625 -15.3125 7.21875 -15.125 C 7.039062 -14.9375 6.9375 -14.6875 6.90625 -14.375 L 5.796875 -5.328125 C 5.765625 -5.023438 5.804688 -4.78125 5.921875 -4.59375 C 6.046875 -4.40625 6.238281 -4.3125 6.5 -4.3125 C 6.769531 -4.3125 6.992188 -4.398438 7.171875 -4.578125 C 7.347656 -4.753906 7.457031 -5.003906 7.5 -5.328125 L 7.578125 -6.078125 C 7.597656 -6.210938 7.648438 -6.3125 7.734375 -6.375 C 7.816406 -6.445312 7.914062 -6.484375 8.03125 -6.484375 L 12.34375 -6.34375 C 12.46875 -6.34375 12.5625 -6.296875 12.625 -6.203125 C 12.695312 -6.117188 12.722656 -6.015625 12.703125 -5.890625 L 12.671875 -5.78125 C 12.453125 -3.957031 11.726562 -2.5 10.5 -1.40625 C 9.269531 -0.320312 7.75 0.21875 5.9375 0.21875 Z M 5.9375 0.21875 "/></g></g><g style="fill:#75c7fb;fill-opacity:1;"><g transform="translate(63.345447, 75.000003)"><path style="stroke:none" d="M 0.5625 0 C 0.445312 0 0.359375 -0.0351562 0.296875 -0.109375 C 0.234375 -0.179688 0.207031 -0.285156 0.21875 -0.421875 L 2.53125 -19.296875 C 2.550781 -19.429688 2.601562 -19.535156 2.6875 -19.609375 C 2.769531 -19.679688 2.867188 -19.71875 2.984375 -19.71875 L 7.328125 -19.71875 C 7.441406 -19.71875 7.53125 -19.679688 7.59375 -19.609375 C 7.65625 -19.535156 7.675781 -19.429688 7.65625 -19.296875 L 6.984375 -13.640625 C 6.960938 -13.554688 6.972656 -13.515625 7.015625 -13.515625 C 7.054688 -13.515625 7.09375 -13.546875 7.125 -13.609375 L 10.171875 -19.375 C 10.285156 -19.601562 10.460938 -19.71875 10.703125 -19.71875 L 15.21875 -19.71875 C 15.4375 -19.71875 15.546875 -19.632812 15.546875 -19.46875 C 15.546875 -19.394531 15.519531 -19.3125 15.46875 -19.21875 L 10.59375 -10.875 C 10.570312 -10.800781 10.5625 -10.742188 10.5625 -10.703125 L 13.296875 -0.484375 L 13.296875 -0.359375 C 13.296875 -0.117188 13.164062 0 12.90625 0 L 8.359375 0 C 8.117188 0 7.972656 -0.113281 7.921875 -0.34375 L 6.484375 -6.140625 C 6.484375 -6.191406 6.460938 -6.222656 6.421875 -6.234375 C 6.378906 -6.242188 6.351562 -6.210938 6.34375 -6.140625 L 6 -5.515625 L 5.96875 -5.359375 L 5.359375 -0.421875 C 5.335938 -0.285156 5.285156 -0.179688 5.203125 -0.109375 C 5.117188 -0.0351562 5.019531 0 4.90625 0 Z M 0.5625 0 "/></g></g><g style="fill:#75c7fb;fill-opacity:1;"><g transform="translate(77.458936, 75.000003)"><path style="stroke:none" d="M 13.015625 -15.609375 C 12.992188 -15.472656 12.941406 -15.367188 12.859375 -15.296875 C 12.773438 -15.222656 12.664062 -15.1875 12.53125 -15.1875 L 7.296875 -15.1875 C 7.203125 -15.1875 7.15625 -15.140625 7.15625 -15.046875 L 6.8125 -12.28125 C 6.78125 -12.1875 6.820312 -12.140625 6.9375 -12.140625 L 9.65625 -12.140625 C 9.789062 -12.140625 9.890625 -12.101562 9.953125 -12.03125 C 10.023438 -11.957031 10.050781 -11.851562 10.03125 -11.71875 L 9.578125 -8.03125 C 9.523438 -7.75 9.363281 -7.609375 9.09375 -7.609375 L 6.359375 -7.609375 C 6.265625 -7.609375 6.21875 -7.5625 6.21875 -7.46875 L 5.890625 -4.671875 C 5.847656 -4.578125 5.882812 -4.53125 6 -4.53125 L 11.234375 -4.53125 C 11.367188 -4.53125 11.46875 -4.492188 11.53125 -4.421875 C 11.601562 -4.347656 11.628906 -4.242188 11.609375 -4.109375 L 11.15625 -0.421875 C 11.132812 -0.285156 11.082031 -0.179688 11 -0.109375 C 10.914062 -0.0351562 10.804688 0 10.671875 0 L 0.5625 0 C 0.445312 0 0.359375 -0.0351562 0.296875 -0.109375 C 0.234375 -0.179688 0.207031 -0.285156 0.21875 -0.421875 L 2.53125 -19.296875 C 2.550781 -19.429688 2.601562 -19.535156 2.6875 -19.609375 C 2.769531 -19.679688 2.867188 -19.71875 2.984375 -19.71875 L 13.09375 -19.71875 C 13.226562 -19.71875 13.328125 -19.679688 13.390625 -19.609375 C 13.460938 -19.535156 13.488281 -19.429688 13.46875 -19.296875 Z M 13.015625 -15.609375 "/></g></g><g style="fill:#75c7fb;fill-opacity:1;"><g transform="translate(89.600476, 75.000003)"><path style="stroke:none" d="M 14.625 -19.71875 C 14.738281 -19.71875 14.828125 -19.679688 14.890625 -19.609375 C 14.953125 -19.535156 14.972656 -19.429688 14.953125 -19.296875 L 14.515625 -15.609375 C 14.492188 -15.472656 14.441406 -15.367188 14.359375 -15.296875 C 14.285156 -15.222656 14.1875 -15.1875 14.0625 -15.1875 L 10.796875 -15.1875 C 10.703125 -15.1875 10.65625 -15.140625 10.65625 -15.046875 L 8.84375 -0.421875 C 8.820312 -0.285156 8.773438 -0.179688 8.703125 -0.109375 C 8.628906 -0.0351562 8.523438 0 8.390625 0 L 4.078125 0 C 3.953125 0 3.851562 -0.0351562 3.78125 -0.109375 C 3.71875 -0.179688 3.695312 -0.285156 3.71875 -0.421875 L 5.515625 -15.046875 C 5.515625 -15.140625 5.46875 -15.1875 5.375 -15.1875 L 2.21875 -15.1875 C 2.09375 -15.1875 1.992188 -15.222656 1.921875 -15.296875 C 1.859375 -15.367188 1.835938 -15.472656 1.859375 -15.609375 L 2.3125 -19.296875 C 2.332031 -19.429688 2.382812 -19.535156 2.46875 -19.609375 C 2.550781 -19.679688 2.65625 -19.71875 2.78125 -19.71875 Z M 14.625 -19.71875 "/></g></g><g style="fill:#75c7fb;fill-opacity:1;"><g transform="translate(103.235061, 75.000003)"><path style="stroke:none" d="M 5.859375 0.21875 C 4.242188 0.21875 2.96875 -0.195312 2.03125 -1.03125 C 1.09375 -1.863281 0.625 -2.972656 0.625 -4.359375 C 0.625 -4.492188 0.640625 -4.734375 0.671875 -5.078125 L 0.78125 -5.9375 C 0.800781 -6.070312 0.851562 -6.175781 0.9375 -6.25 C 1.03125 -6.320312 1.128906 -6.359375 1.234375 -6.359375 L 5.515625 -6.359375 C 5.628906 -6.359375 5.71875 -6.320312 5.78125 -6.25 C 5.851562 -6.175781 5.878906 -6.070312 5.859375 -5.9375 L 5.796875 -5.328125 C 5.765625 -5.023438 5.800781 -4.78125 5.90625 -4.59375 C 6.019531 -4.40625 6.191406 -4.3125 6.421875 -4.3125 C 6.671875 -4.3125 6.878906 -4.414062 7.046875 -4.625 C 7.210938 -4.832031 7.296875 -5.082031 7.296875 -5.375 C 7.296875 -5.65625 7.160156 -5.945312 6.890625 -6.25 C 6.617188 -6.550781 6.097656 -7.015625 5.328125 -7.640625 C 4.578125 -8.253906 3.957031 -8.800781 3.46875 -9.28125 C 2.976562 -9.757812 2.550781 -10.347656 2.1875 -11.046875 C 1.832031 -11.753906 1.65625 -12.5625 1.65625 -13.46875 C 1.65625 -13.632812 1.675781 -13.925781 1.71875 -14.34375 C 1.925781 -16.007812 2.617188 -17.359375 3.796875 -18.390625 C 4.984375 -19.429688 6.457031 -19.953125 8.21875 -19.953125 C 9.84375 -19.953125 11.117188 -19.519531 12.046875 -18.65625 C 12.972656 -17.789062 13.4375 -16.625 13.4375 -15.15625 C 13.4375 -14.988281 13.414062 -14.71875 13.375 -14.34375 L 13.296875 -13.71875 C 13.273438 -13.582031 13.222656 -13.476562 13.140625 -13.40625 C 13.054688 -13.332031 12.957031 -13.296875 12.84375 -13.296875 L 8.59375 -13.296875 C 8.476562 -13.296875 8.382812 -13.332031 8.3125 -13.40625 C 8.25 -13.476562 8.226562 -13.582031 8.25 -13.71875 L 8.34375 -14.453125 C 8.351562 -14.734375 8.296875 -14.960938 8.171875 -15.140625 C 8.054688 -15.316406 7.882812 -15.40625 7.65625 -15.40625 C 7.394531 -15.40625 7.179688 -15.289062 7.015625 -15.0625 C 6.847656 -14.84375 6.765625 -14.546875 6.765625 -14.171875 C 6.765625 -13.847656 6.894531 -13.515625 7.15625 -13.171875 C 7.414062 -12.835938 7.90625 -12.375 8.625 -11.78125 C 9.582031 -10.96875 10.3125 -10.3125 10.8125 -9.8125 C 11.320312 -9.320312 11.722656 -8.78125 12.015625 -8.1875 C 12.304688 -7.59375 12.453125 -6.921875 12.453125 -6.171875 C 12.453125 -6.015625 12.429688 -5.75 12.390625 -5.375 C 12.171875 -3.664062 11.460938 -2.304688 10.265625 -1.296875 C 9.078125 -0.285156 7.609375 0.21875 5.859375 0.21875 Z M 5.859375 0.21875 "/></g></g><g style="fill:#d32f23;fill-opacity:0.4196;"><g transform="translate(116.725353, 75.754234)"><path style="stroke:none" d=""/></g></g><g style="fill:#d32f23;fill-opacity:0.4196;"><g transform="translate(41.349916, 98.087697)"><path style="stroke:none" d="M 8.765625 0 C 8.492188 0 8.367188 -0.128906 8.390625 -0.390625 L 8.34375 -2.53125 C 8.351562 -2.570312 8.335938 -2.601562 8.296875 -2.625 C 8.265625 -2.65625 8.234375 -2.671875 8.203125 -2.671875 L 5.75 -2.671875 C 5.65625 -2.671875 5.585938 -2.625 5.546875 -2.53125 L 5.015625 -0.390625 C 4.960938 -0.128906 4.800781 0 4.53125 0 L 0.25 0 C -0.03125 0 -0.132812 -0.148438 -0.0625 -0.453125 L 6.140625 -19.359375 C 6.210938 -19.597656 6.382812 -19.71875 6.65625 -19.71875 L 11.640625 -19.71875 C 11.898438 -19.71875 12.039062 -19.597656 12.0625 -19.359375 L 13.609375 -0.453125 L 13.609375 -0.390625 C 13.609375 -0.128906 13.46875 0 13.1875 0 Z M 6.703125 -6.875 C 6.671875 -6.78125 6.703125 -6.734375 6.796875 -6.734375 L 8.109375 -6.734375 C 8.171875 -6.734375 8.21875 -6.78125 8.25 -6.875 L 8.140625 -12.078125 C 8.140625 -12.160156 8.113281 -12.195312 8.0625 -12.1875 C 8.019531 -12.175781 8 -12.140625 8 -12.078125 Z M 6.703125 -6.875 "/></g></g><g style="fill:#d32f23;fill-opacity:0.4196;"><g transform="translate(55.857793, 98.087697)"><path style="stroke:none" d="M 7.640625 0 C 7.410156 0 7.273438 -0.117188 7.234375 -0.359375 L 6.421875 -7.46875 C 6.421875 -7.539062 6.394531 -7.578125 6.34375 -7.578125 C 6.257812 -7.578125 6.21875 -7.53125 6.21875 -7.4375 L 5.359375 -0.421875 C 5.335938 -0.285156 5.285156 -0.179688 5.203125 -0.109375 C 5.117188 -0.0351562 5.019531 0 4.90625 0 L 0.5625 0 C 0.445312 0 0.359375 -0.0351562 0.296875 -0.109375 C 0.234375 -0.179688 0.207031 -0.285156 0.21875 -0.421875 L 2.53125 -19.296875 C 2.550781 -19.429688 2.601562 -19.535156 2.6875 -19.609375 C 2.769531 -19.679688 2.867188 -19.71875 2.984375 -19.71875 L 9.15625 -19.71875 C 10.65625 -19.71875 11.84375 -19.238281 12.71875 -18.28125 C 13.59375 -17.320312 14.03125 -16.054688 14.03125 -14.484375 C 14.03125 -14.023438 14.007812 -13.675781 13.96875 -13.4375 C 13.84375 -12.40625 13.550781 -11.476562 13.09375 -10.65625 C 12.644531 -9.84375 12.066406 -9.179688 11.359375 -8.671875 C 11.265625 -8.617188 11.234375 -8.554688 11.265625 -8.484375 L 12.484375 -0.484375 L 12.484375 -0.359375 C 12.484375 -0.253906 12.441406 -0.164062 12.359375 -0.09375 C 12.285156 -0.03125 12.191406 0 12.078125 0 Z M 7.296875 -15.1875 C 7.203125 -15.1875 7.15625 -15.140625 7.15625 -15.046875 L 6.734375 -11.75 C 6.734375 -11.65625 6.78125 -11.609375 6.875 -11.609375 L 7.234375 -11.609375 C 7.691406 -11.609375 8.070312 -11.804688 8.375 -12.203125 C 8.6875 -12.597656 8.84375 -13.140625 8.84375 -13.828125 C 8.84375 -14.265625 8.738281 -14.597656 8.53125 -14.828125 C 8.320312 -15.066406 8.039062 -15.1875 7.6875 -15.1875 Z M 7.296875 -15.1875 "/></g></g><g style="fill:#d32f23;fill-opacity:0.4196;"><g transform="translate(69.238843, 98.087697)"><path style="stroke:none" d="M 13.015625 -15.609375 C 12.992188 -15.472656 12.941406 -15.367188 12.859375 -15.296875 C 12.773438 -15.222656 12.664062 -15.1875 12.53125 -15.1875 L 7.296875 -15.1875 C 7.203125 -15.1875 7.15625 -15.140625 7.15625 -15.046875 L 6.8125 -12.28125 C 6.78125 -12.1875 6.820312 -12.140625 6.9375 -12.140625 L 9.65625 -12.140625 C 9.789062 -12.140625 9.890625 -12.101562 9.953125 -12.03125 C 10.023438 -11.957031 10.050781 -11.851562 10.03125 -11.71875 L 9.578125 -8.03125 C 9.523438 -7.75 9.363281 -7.609375 9.09375 -7.609375 L 6.359375 -7.609375 C 6.265625 -7.609375 6.21875 -7.5625 6.21875 -7.46875 L 5.890625 -4.671875 C 5.847656 -4.578125 5.882812 -4.53125 6 -4.53125 L 11.234375 -4.53125 C 11.367188 -4.53125 11.46875 -4.492188 11.53125 -4.421875 C 11.601562 -4.347656 11.628906 -4.242188 11.609375 -4.109375 L 11.15625 -0.421875 C 11.132812 -0.285156 11.082031 -0.179688 11 -0.109375 C 10.914062 -0.0351562 10.804688 0 10.671875 0 L 0.5625 0 C 0.445312 0 0.359375 -0.0351562 0.296875 -0.109375 C 0.234375 -0.179688 0.207031 -0.285156 0.21875 -0.421875 L 2.53125 -19.296875 C 2.550781 -19.429688 2.601562 -19.535156 2.6875 -19.609375 C 2.769531 -19.679688 2.867188 -19.71875 2.984375 -19.71875 L 13.09375 -19.71875 C 13.226562 -19.71875 13.328125 -19.679688 13.390625 -19.609375 C 13.460938 -19.535156 13.488281 -19.429688 13.46875 -19.296875 Z M 13.015625 -15.609375 "/></g></g><g style="fill:#d32f23;fill-opacity:0.4196;"><g transform="translate(81.380383, 98.087697)"><path style="stroke:none" d="M 10.453125 -19.296875 C 10.472656 -19.429688 10.523438 -19.535156 10.609375 -19.609375 C 10.691406 -19.679688 10.800781 -19.71875 10.9375 -19.71875 L 15.1875 -19.71875 C 15.3125 -19.71875 15.40625 -19.679688 15.46875 -19.609375 C 15.539062 -19.535156 15.566406 -19.429688 15.546875 -19.296875 L 13.21875 -0.421875 C 13.195312 -0.285156 13.144531 -0.179688 13.0625 -0.109375 C 12.988281 -0.0351562 12.890625 0 12.765625 0 L 7.890625 0 C 7.660156 0 7.53125 -0.117188 7.5 -0.359375 L 6.421875 -9.015625 C 6.421875 -9.066406 6.398438 -9.09375 6.359375 -9.09375 C 6.328125 -9.09375 6.3125 -9.066406 6.3125 -9.015625 L 5.296875 -0.421875 C 5.273438 -0.285156 5.222656 -0.179688 5.140625 -0.109375 C 5.054688 -0.0351562 4.957031 0 4.84375 0 L 0.5625 0 C 0.445312 0 0.359375 -0.0351562 0.296875 -0.109375 C 0.234375 -0.179688 0.207031 -0.285156 0.21875 -0.421875 L 2.53125 -19.296875 C 2.550781 -19.429688 2.601562 -19.535156 2.6875 -19.609375 C 2.769531 -19.679688 2.867188 -19.71875 2.984375 -19.71875 L 7.796875 -19.71875 C 8.023438 -19.71875 8.160156 -19.597656 8.203125 -19.359375 L 9.296875 -10.65625 C 9.296875 -10.59375 9.3125 -10.570312 9.34375 -10.59375 C 9.382812 -10.613281 9.414062 -10.640625 9.4375 -10.671875 Z M 10.453125 -19.296875 "/></g></g><g style="fill:#d32f23;fill-opacity:0.4196;"><g transform="translate(95.803748, 98.087697)"><path style="stroke:none" d="M 8.765625 0 C 8.492188 0 8.367188 -0.128906 8.390625 -0.390625 L 8.34375 -2.53125 C 8.351562 -2.570312 8.335938 -2.601562 8.296875 -2.625 C 8.265625 -2.65625 8.234375 -2.671875 8.203125 -2.671875 L 5.75 -2.671875 C 5.65625 -2.671875 5.585938 -2.625 5.546875 -2.53125 L 5.015625 -0.390625 C 4.960938 -0.128906 4.800781 0 4.53125 0 L 0.25 0 C -0.03125 0 -0.132812 -0.148438 -0.0625 -0.453125 L 6.140625 -19.359375 C 6.210938 -19.597656 6.382812 -19.71875 6.65625 -19.71875 L 11.640625 -19.71875 C 11.898438 -19.71875 12.039062 -19.597656 12.0625 -19.359375 L 13.609375 -0.453125 L 13.609375 -0.390625 C 13.609375 -0.128906 13.46875 0 13.1875 0 Z M 6.703125 -6.875 C 6.671875 -6.78125 6.703125 -6.734375 6.796875 -6.734375 L 8.109375 -6.734375 C 8.171875 -6.734375 8.21875 -6.78125 8.25 -6.875 L 8.140625 -12.078125 C 8.140625 -12.160156 8.113281 -12.195312 8.0625 -12.1875 C 8.019531 -12.175781 8 -12.140625 8 -12.078125 Z M 6.703125 -6.875 "/></g></g><g style="fill:#ff3947;fill-opacity:1;"><g transform="translate(40.512256, 97.333465)"><path style="stroke:none" d="M 8.765625 0 C 8.492188 0 8.367188 -0.128906 8.390625 -0.390625 L 8.34375 -2.53125 C 8.351562 -2.570312 8.335938 -2.601562 8.296875 -2.625 C 8.265625 -2.65625 8.234375 -2.671875 8.203125 -2.671875 L 5.75 -2.671875 C 5.65625 -2.671875 5.585938 -2.625 5.546875 -2.53125 L 5.015625 -0.390625 C 4.960938 -0.128906 4.800781 0 4.53125 0 L 0.25 0 C -0.03125 0 -0.132812 -0.148438 -0.0625 -0.453125 L 6.140625 -19.359375 C 6.210938 -19.597656 6.382812 -19.71875 6.65625 -19.71875 L 11.640625 -19.71875 C 11.898438 -19.71875 12.039062 -19.597656 12.0625 -19.359375 L 13.609375 -0.453125 L 13.609375 -0.390625 C 13.609375 -0.128906 13.46875 0 13.1875 0 Z M 6.703125 -6.875 C 6.671875 -6.78125 6.703125 -6.734375 6.796875 -6.734375 L 8.109375 -6.734375 C 8.171875 -6.734375 8.21875 -6.78125 8.25 -6.875 L 8.140625 -12.078125 C 8.140625 -12.160156 8.113281 -12.195312 8.0625 -12.1875 C 8.019531 -12.175781 8 -12.140625 8 -12.078125 Z M 6.703125 -6.875 "/></g></g><g style="fill:#ff3947;fill-opacity:1;"><g transform="translate(55.020134, 97.333465)"><path style="stroke:none" d="M 7.640625 0 C 7.410156 0 7.273438 -0.117188 7.234375 -0.359375 L 6.421875 -7.46875 C 6.421875 -7.539062 6.394531 -7.578125 6.34375 -7.578125 C 6.257812 -7.578125 6.21875 -7.53125 6.21875 -7.4375 L 5.359375 -0.421875 C 5.335938 -0.285156 5.285156 -0.179688 5.203125 -0.109375 C 5.117188 -0.0351562 5.019531 0 4.90625 0 L 0.5625 0 C 0.445312 0 0.359375 -0.0351562 0.296875 -0.109375 C 0.234375 -0.179688 0.207031 -0.285156 0.21875 -0.421875 L 2.53125 -19.296875 C 2.550781 -19.429688 2.601562 -19.535156 2.6875 -19.609375 C 2.769531 -19.679688 2.867188 -19.71875 2.984375 -19.71875 L 9.15625 -19.71875 C 10.65625 -19.71875 11.84375 -19.238281 12.71875 -18.28125 C 13.59375 -17.320312 14.03125 -16.054688 14.03125 -14.484375 C 14.03125 -14.023438 14.007812 -13.675781 13.96875 -13.4375 C 13.84375 -12.40625 13.550781 -11.476562 13.09375 -10.65625 C 12.644531 -9.84375 12.066406 -9.179688 11.359375 -8.671875 C 11.265625 -8.617188 11.234375 -8.554688 11.265625 -8.484375 L 12.484375 -0.484375 L 12.484375 -0.359375 C 12.484375 -0.253906 12.441406 -0.164062 12.359375 -0.09375 C 12.285156 -0.03125 12.191406 0 12.078125 0 Z M 7.296875 -15.1875 C 7.203125 -15.1875 7.15625 -15.140625 7.15625 -15.046875 L 6.734375 -11.75 C 6.734375 -11.65625 6.78125 -11.609375 6.875 -11.609375 L 7.234375 -11.609375 C 7.691406 -11.609375 8.070312 -11.804688 8.375 -12.203125 C 8.6875 -12.597656 8.84375 -13.140625 8.84375 -13.828125 C 8.84375 -14.265625 8.738281 -14.597656 8.53125 -14.828125 C 8.320312 -15.066406 8.039062 -15.1875 7.6875 -15.1875 Z M 7.296875 -15.1875 "/></g></g><g style="fill:#ff3947;fill-opacity:1;"><g transform="translate(68.401183, 97.333465)"><path style="stroke:none" d="M 13.015625 -15.609375 C 12.992188 -15.472656 12.941406 -15.367188 12.859375 -15.296875 C 12.773438 -15.222656 12.664062 -15.1875 12.53125 -15.1875 L 7.296875 -15.1875 C 7.203125 -15.1875 7.15625 -15.140625 7.15625 -15.046875 L 6.8125 -12.28125 C 6.78125 -12.1875 6.820312 -12.140625 6.9375 -12.140625 L 9.65625 -12.140625 C 9.789062 -12.140625 9.890625 -12.101562 9.953125 -12.03125 C 10.023438 -11.957031 10.050781 -11.851562 10.03125 -11.71875 L 9.578125 -8.03125 C 9.523438 -7.75 9.363281 -7.609375 9.09375 -7.609375 L 6.359375 -7.609375 C 6.265625 -7.609375 6.21875 -7.5625 6.21875 -7.46875 L 5.890625 -4.671875 C 5.847656 -4.578125 5.882812 -4.53125 6 -4.53125 L 11.234375 -4.53125 C 11.367188 -4.53125 11.46875 -4.492188 11.53125 -4.421875 C 11.601562 -4.347656 11.628906 -4.242188 11.609375 -4.109375 L 11.15625 -0.421875 C 11.132812 -0.285156 11.082031 -0.179688 11 -0.109375 C 10.914062 -0.0351562 10.804688 0 10.671875 0 L 0.5625 0 C 0.445312 0 0.359375 -0.0351562 0.296875 -0.109375 C 0.234375 -0.179688 0.207031 -0.285156 0.21875 -0.421875 L 2.53125 -19.296875 C 2.550781 -19.429688 2.601562 -19.535156 2.6875 -19.609375 C 2.769531 -19.679688 2.867188 -19.71875 2.984375 -19.71875 L 13.09375 -19.71875 C 13.226562 -19.71875 13.328125 -19.679688 13.390625 -19.609375 C 13.460938 -19.535156 13.488281 -19.429688 13.46875 -19.296875 Z M 13.015625 -15.609375 "/></g></g><g style="fill:#ff3947;fill-opacity:1;"><g transform="translate(80.542723, 97.333465)"><path style="stroke:none" d="M 10.453125 -19.296875 C 10.472656 -19.429688 10.523438 -19.535156 10.609375 -19.609375 C 10.691406 -19.679688 10.800781 -19.71875 10.9375 -19.71875 L 15.1875 -19.71875 C 15.3125 -19.71875 15.40625 -19.679688 15.46875 -19.609375 C 15.539062 -19.535156 15.566406 -19.429688 15.546875 -19.296875 L 13.21875 -0.421875 C 13.195312 -0.285156 13.144531 -0.179688 13.0625 -0.109375 C 12.988281 -0.0351562 12.890625 0 12.765625 0 L 7.890625 0 C 7.660156 0 7.53125 -0.117188 7.5 -0.359375 L 6.421875 -9.015625 C 6.421875 -9.066406 6.398438 -9.09375 6.359375 -9.09375 C 6.328125 -9.09375 6.3125 -9.066406 6.3125 -9.015625 L 5.296875 -0.421875 C 5.273438 -0.285156 5.222656 -0.179688 5.140625 -0.109375 C 5.054688 -0.0351562 4.957031 0 4.84375 0 L 0.5625 0 C 0.445312 0 0.359375 -0.0351562 0.296875 -0.109375 C 0.234375 -0.179688 0.207031 -0.285156 0.21875 -0.421875 L 2.53125 -19.296875 C 2.550781 -19.429688 2.601562 -19.535156 2.6875 -19.609375 C 2.769531 -19.679688 2.867188 -19.71875 2.984375 -19.71875 L 7.796875 -19.71875 C 8.023438 -19.71875 8.160156 -19.597656 8.203125 -19.359375 L 9.296875 -10.65625 C 9.296875 -10.59375 9.3125 -10.570312 9.34375 -10.59375 C 9.382812 -10.613281 9.414062 -10.640625 9.4375 -10.671875 Z M 10.453125 -19.296875 "/></g></g><g style="fill:#ff3947;fill-opacity:1;"><g transform="translate(94.966088, 97.333465)"><path style="stroke:none" d="M 8.765625 0 C 8.492188 0 8.367188 -0.128906 8.390625 -0.390625 L 8.34375 -2.53125 C 8.351562 -2.570312 8.335938 -2.601562 8.296875 -2.625 C 8.265625 -2.65625 8.234375 -2.671875 8.203125 -2.671875 L 5.75 -2.671875 C 5.65625 -2.671875 5.585938 -2.625 5.546875 -2.53125 L 5.015625 -0.390625 C 4.960938 -0.128906 4.800781 0 4.53125 0 L 0.25 0 C -0.03125 0 -0.132812 -0.148438 -0.0625 -0.453125 L 6.140625 -19.359375 C 6.210938 -19.597656 6.382812 -19.71875 6.65625 -19.71875 L 11.640625 -19.71875 C 11.898438 -19.71875 12.039062 -19.597656 12.0625 -19.359375 L 13.609375 -0.453125 L 13.609375 -0.390625 C 13.609375 -0.128906 13.46875 0 13.1875 0 Z M 6.703125 -6.875 C 6.671875 -6.78125 6.703125 -6.734375 6.796875 -6.734375 L 8.109375 -6.734375 C 8.171875 -6.734375 8.21875 -6.78125 8.25 -6.875 L 8.140625 -12.078125 C 8.140625 -12.160156 8.113281 -12.195312 8.0625 -12.1875 C 8.019531 -12.175781 8 -12.140625 8 -12.078125 Z M 6.703125 -6.875 "/></g></g></g></svg>