<?xml version="1.0" encoding="UTF-8"?>
<svg version="1.1" xmlns="http://www.w3.org/2000/svg" width="200" height="200">
<path d="M0 0 C2.18130981 0.00848287 4.3599641 -0.02031776 6.54101562 -0.05200195 C21.70457636 -0.12801031 34.91264876 3.45987141 48.44726562 10.44604492 C49.39214844 10.90881836 50.33703125 11.3715918 51.31054688 11.84838867 C66.10813061 19.40415632 78.54518218 31.51043775 87.44726562 45.44604492 C87.95902344 46.20143555 88.47078125 46.95682617 88.99804688 47.73510742 C92.21134069 52.70035212 94.54211131 57.81254593 96.63476562 63.32104492 C96.99163452 64.2561792 96.99163452 64.2561792 97.35571289 65.21020508 C98.10695703 67.27474501 98.78834572 69.35015974 99.44726562 71.44604492 C99.72014404 72.30133789 99.99302246 73.15663086 100.27416992 74.0378418 C102.56030396 82.02198659 102.94190919 89.76085006 102.89331055 97.9987793 C102.88482768 100.18008911 102.91362831 102.3587434 102.9453125 104.53979492 C103.02132086 119.70335566 99.43343914 132.91142806 92.44726562 146.44604492 C91.75310547 147.86336914 91.75310547 147.86336914 91.04492188 149.30932617 C83.48915423 164.1069099 71.38287279 176.54396148 57.44726562 185.44604492 C56.691875 185.95780273 55.93648437 186.46956055 55.15820312 186.99682617 C50.19295842 190.21011998 45.08076462 192.5408906 39.57226562 194.63354492 C38.94884277 194.87145752 38.32541992 195.10937012 37.68310547 195.35449219 C35.61856553 196.10573633 33.54315081 196.78712502 31.44726562 197.44604492 C30.59197266 197.71892334 29.73667969 197.99180176 28.85546875 198.27294922 C20.87132396 200.55908326 13.13246049 200.94068849 4.89453125 200.89208984 C2.71322144 200.88360697 0.53456715 200.9124076 -1.64648438 200.9440918 C-16.81004511 201.02010016 -30.01811751 197.43221844 -43.55273438 190.44604492 C-44.49761719 189.98327148 -45.4425 189.52049805 -46.41601562 189.04370117 C-61.21359936 181.48793352 -73.65065093 169.38165209 -82.55273438 155.44604492 C-83.06449219 154.6906543 -83.57625 153.93526367 -84.10351562 153.15698242 C-87.31680944 148.19173772 -89.64758006 143.07954392 -91.74023438 137.57104492 C-91.97814697 136.94762207 -92.21605957 136.32419922 -92.46118164 135.68188477 C-93.21242578 133.61734483 -93.89381447 131.54193011 -94.55273438 129.44604492 C-94.82561279 128.59075195 -95.09849121 127.73545898 -95.37963867 126.85424805 C-97.66577271 118.87010326 -98.04737794 111.13123979 -97.9987793 102.89331055 C-97.99029643 100.71200073 -98.01909706 98.53334644 -98.05078125 96.35229492 C-98.12678961 81.18873419 -94.53890789 67.98066178 -87.55273438 54.44604492 C-87.08996094 53.50116211 -86.6271875 52.5562793 -86.15039062 51.58276367 C-78.59462298 36.78517994 -66.48834154 24.34812837 -52.55273438 15.44604492 C-51.79734375 14.93428711 -51.04195312 14.4225293 -50.26367188 13.89526367 C-45.29842717 10.68196986 -40.18623337 8.35119924 -34.67773438 6.25854492 C-33.7426001 5.90167603 -33.7426001 5.90167603 -32.78857422 5.53759766 C-30.72403428 4.78635352 -28.64861956 4.10496482 -26.55273438 3.44604492 C-25.69744141 3.1731665 -24.84214844 2.90028809 -23.9609375 2.61914062 C-15.97679271 0.33300659 -8.23792924 -0.04859865 0 0 Z " fill="#010101" transform="translate(97.552734375,-0.446044921875)"/>
<path d="M0 0 C2.18130981 0.00848287 4.3599641 -0.02031776 6.54101562 -0.05200195 C21.70457636 -0.12801031 34.91264876 3.45987141 48.44726562 10.44604492 C49.39214844 10.90881836 50.33703125 11.3715918 51.31054688 11.84838867 C66.10813061 19.40415632 78.54518218 31.51043775 87.44726562 45.44604492 C87.95902344 46.20143555 88.47078125 46.95682617 88.99804688 47.73510742 C92.21134069 52.70035212 94.54211131 57.81254593 96.63476562 63.32104492 C96.99163452 64.2561792 96.99163452 64.2561792 97.35571289 65.21020508 C98.10695703 67.27474501 98.78834572 69.35015974 99.44726562 71.44604492 C99.72014404 72.30133789 99.99302246 73.15663086 100.27416992 74.0378418 C102.56030396 82.02198659 102.94190919 89.76085006 102.89331055 97.9987793 C102.88482768 100.18008911 102.91362831 102.3587434 102.9453125 104.53979492 C103.02132086 119.70335566 99.43343914 132.91142806 92.44726562 146.44604492 C91.75310547 147.86336914 91.75310547 147.86336914 91.04492188 149.30932617 C83.48915423 164.1069099 71.38287279 176.54396148 57.44726562 185.44604492 C56.691875 185.95780273 55.93648437 186.46956055 55.15820312 186.99682617 C50.19295842 190.21011998 45.08076462 192.5408906 39.57226562 194.63354492 C38.94884277 194.87145752 38.32541992 195.10937012 37.68310547 195.35449219 C35.61856553 196.10573633 33.54315081 196.78712502 31.44726562 197.44604492 C30.59197266 197.71892334 29.73667969 197.99180176 28.85546875 198.27294922 C20.87132396 200.55908326 13.13246049 200.94068849 4.89453125 200.89208984 C2.71322144 200.88360697 0.53456715 200.9124076 -1.64648438 200.9440918 C-16.81004511 201.02010016 -30.01811751 197.43221844 -43.55273438 190.44604492 C-44.49761719 189.98327148 -45.4425 189.52049805 -46.41601562 189.04370117 C-61.21359936 181.48793352 -73.65065093 169.38165209 -82.55273438 155.44604492 C-83.06449219 154.6906543 -83.57625 153.93526367 -84.10351562 153.15698242 C-87.31680944 148.19173772 -89.64758006 143.07954392 -91.74023438 137.57104492 C-91.97814697 136.94762207 -92.21605957 136.32419922 -92.46118164 135.68188477 C-93.21242578 133.61734483 -93.89381447 131.54193011 -94.55273438 129.44604492 C-94.82561279 128.59075195 -95.09849121 127.73545898 -95.37963867 126.85424805 C-97.66577271 118.87010326 -98.04737794 111.13123979 -97.9987793 102.89331055 C-97.99029643 100.71200073 -98.01909706 98.53334644 -98.05078125 96.35229492 C-98.12678961 81.18873419 -94.53890789 67.98066178 -87.55273438 54.44604492 C-87.08996094 53.50116211 -86.6271875 52.5562793 -86.15039062 51.58276367 C-78.59462298 36.78517994 -66.48834154 24.34812837 -52.55273438 15.44604492 C-51.79734375 14.93428711 -51.04195312 14.4225293 -50.26367188 13.89526367 C-45.29842717 10.68196986 -40.18623337 8.35119924 -34.67773438 6.25854492 C-33.7426001 5.90167603 -33.7426001 5.90167603 -32.78857422 5.53759766 C-30.72403428 4.78635352 -28.64861956 4.10496482 -26.55273438 3.44604492 C-25.69744141 3.1731665 -24.84214844 2.90028809 -23.9609375 2.61914062 C-15.97679271 0.33300659 -8.23792924 -0.04859865 0 0 Z M-27.42773438 18.07104492 C-28.10553955 18.33119385 -28.78334473 18.59134277 -29.48168945 18.859375 C-51.79855448 27.78245865 -67.98164654 44.53365488 -78.11914062 66.02416992 C-87.31257024 87.96815995 -87.12849453 112.56772972 -78.24804688 134.55151367 C-69.26341394 155.7488224 -52.29609496 172.71879237 -31.00195312 181.57495117 C-6.66496855 190.23068891 17.04786283 189.45494533 40.49609375 178.42407227 C63.63017794 166.82808362 77.81458605 146.50808248 85.76220703 122.5871582 C92.32813971 102.06569364 88.71787398 78.47785749 79.47265625 59.38110352 C76.75829811 54.25872194 73.20883724 49.84194564 69.44726562 45.44604492 C68.71378906 44.56303711 67.9803125 43.6800293 67.22460938 42.77026367 C53.89191854 27.27424381 37.89039493 19.38633841 18.44726562 14.44604492 C17.81723633 14.2657373 17.18720703 14.08542969 16.53808594 13.8996582 C12.23497796 12.96607873 7.76936061 13.26133233 3.38476562 13.25854492 C2.39798828 13.24629883 1.41121094 13.23405273 0.39453125 13.22143555 C-9.28627972 13.20241627 -18.3787094 14.58703518 -27.42773438 18.07104492 Z " fill="#082D67" transform="translate(97.552734375,-0.446044921875)"/>
<path d="M0 0 C2.0012207 1.47119141 2.0012207 1.47119141 3.92578125 3.3515625 C4.64056641 4.03863281 5.35535156 4.72570313 6.09179688 5.43359375 C6.82462891 6.15675781 7.55746094 6.87992188 8.3125 7.625 C9.76558786 9.0352354 11.22000898 10.44409836 12.67578125 11.8515625 C13.39137207 12.54467529 14.10696289 13.23778809 14.84423828 13.9519043 C19.50345427 18.37842331 24.31130631 22.63863498 29.5 26.4375 C30.1703125 26.93121094 30.840625 27.42492187 31.53125 27.93359375 C32.25828125 28.46146484 32.25828125 28.46146484 33 29 C33.4125 28.57589844 33.825 28.15179688 34.25 27.71484375 C37.36013769 24.55611016 40.50903208 21.51108093 43.875 18.625 C46.8846753 16.03365795 49.71088616 13.32745217 52.5 10.5 C58.63068182 4.34821429 58.63068182 4.34821429 61.1875 1.9375 C61.77917969 1.36902344 62.37085938 0.80054688 62.98046875 0.21484375 C66.01884523 -1.61288369 67.49318852 -1.67778709 71 -1 C73.94997042 1.06578102 76.37813118 3.5410311 78.875 6.125 C79.56335938 6.79015625 80.25171875 7.4553125 80.9609375 8.140625 C81.610625 8.79804687 82.2603125 9.45546875 82.9296875 10.1328125 C83.51991699 10.72980957 84.11014648 11.32680664 84.71826172 11.94189453 C86.51729005 14.83062003 86.47118374 16.6564543 86 20 C84.42700195 22.25415039 84.42700195 22.25415039 82.23828125 24.34765625 C81.44873047 25.11787109 80.65917969 25.88808594 79.84570312 26.68164062 C79.00974609 27.46732422 78.17378906 28.25300781 77.3125 29.0625 C76.08756836 30.24682617 76.08756836 30.24682617 74.83789062 31.45507812 C73.25908584 32.98019076 71.67440897 34.49925358 70.08325195 36.01147461 C68.42857343 37.59091403 66.80275155 39.20057414 65.1875 40.8203125 C63.08866881 42.91164787 60.92851214 44.87535392 58.6875 46.8125 C57.99011719 47.41707031 57.29273437 48.02164063 56.57421875 48.64453125 C56.05472656 49.09183594 55.53523438 49.53914063 55 50 C56.60289986 54.27780281 59.86295367 56.86008702 63.1875 59.8125 C64.37341909 60.88428553 65.55832411 61.95719423 66.7421875 63.03125 C67.30905273 63.54429688 67.87591797 64.05734375 68.45996094 64.5859375 C70.3000923 66.27554448 72.06658128 68.02597852 73.8125 69.8125 C76.82958377 72.88992544 80.03181986 75.71297697 83.30078125 78.51953125 C84.57729445 79.63171172 85.80283014 80.80283014 87 82 C87.11720082 86.38200844 85.65409405 88.7271998 82.8671875 91.90234375 C81.54993419 93.26059591 80.21866691 94.60537221 78.875 95.9375 C78.22273438 96.63423828 77.57046875 97.33097656 76.8984375 98.04882812 C72.03621596 102.93516782 72.03621596 102.93516782 67.31640625 103.23046875 C63.53063594 101.82585432 61.7655317 100.35238267 59.0625 97.375 C56.19014637 94.32150695 53.37890393 91.34509956 50.1875 88.625 C44.3031126 83.58990562 38.67484096 78.26825937 33 73 C28.43948682 75.83509647 24.83406453 78.94754637 21.125 82.8125 C17.15799814 86.86783467 13.1472349 90.74916866 8.796875 94.3984375 C6.85556464 96.12873587 5.17667975 98.00593311 3.4375 99.9375 C0.93415205 102.44084795 0.08926796 102.97768301 -3.5 103.875 C-7.75376284 102.81155929 -9.3053365 101.21375704 -12.15625 98 C-14.66742971 95.27600845 -17.55282274 93.11066049 -20.49609375 90.87109375 C-22.67290479 88.16280158 -22.36152222 86.40256208 -22 83 C-20.3828125 80.68579102 -20.3828125 80.68579102 -18.125 78.50390625 C-17.30386719 77.69759766 -16.48273437 76.89128906 -15.63671875 76.06054688 C-14.76660156 75.23619141 -13.89648438 74.41183594 -13 73.5625 C-12.16082031 72.74201172 -11.32164063 71.92152344 -10.45703125 71.07617188 C-5.97189215 66.7196763 -1.38643995 62.50610576 3.35742188 58.43310547 C5.33186877 56.71045338 7.18568084 54.88991579 9 53 C6.10615637 46.25277512 -0.33443373 41.37314159 -5.8125 36.6875 C-9.46630731 33.52924955 -12.97449073 30.23972431 -16.4375 26.875 C-16.97028564 26.37186279 -17.50307129 25.86872559 -18.05200195 25.3503418 C-21.11075912 22.3391686 -22.76569206 20.32359811 -23 16 C-21.67651367 13.97949219 -21.67651367 13.97949219 -19.66796875 12.046875 C-18.95189453 11.345625 -18.23582031 10.644375 -17.49804688 9.921875 C-16.73556641 9.20515625 -15.97308594 8.4884375 -15.1875 7.75 C-14.43662109 7.0178125 -13.68574219 6.285625 -12.91210938 5.53125 C-5.51189679 -1.62383468 -5.51189679 -1.62383468 0 0 Z " fill="#570464" transform="translate(67,48)"/>
<path d="M0 0 C2.22490721 0.01609424 4.44799882 0.00006079 6.67285156 -0.01904297 C14.92745687 -0.0321055 23.54601485 0.00750071 31.22753906 3.39111328 C31.55753906 4.38111328 31.88753906 5.37111328 32.22753906 6.39111328 C29.44486876 10.319589 26.79569444 13.58509836 22.22753906 15.39111328 C20.35653137 15.16304462 18.48599771 14.92937996 16.61987305 14.66430664 C12.06435372 14.14408763 7.4950379 14.20662446 2.91503906 14.20361328 C1.94630859 14.19136719 0.97757812 14.17912109 -0.02050781 14.16650391 C-9.62658106 14.14727894 -18.6697067 15.56026087 -27.64746094 19.01611328 C-28.32454102 19.27553711 -29.00162109 19.53496094 -29.69921875 19.80224609 C-51.73842823 28.60345082 -67.35955307 44.8140496 -77.33886719 65.96923828 C-86.5322968 87.91322831 -86.34822109 112.51279808 -77.46777344 134.49658203 C-68.60692332 155.40185183 -52.2198329 171.78696136 -31.22167969 180.52001953 C-6.88469511 189.17575727 16.82813627 188.40001368 40.27636719 177.36914062 C53.19208528 170.89512077 63.82831735 161.04046861 72.22753906 149.39111328 C72.73800781 148.69244141 73.24847656 147.99376953 73.77441406 147.27392578 C79.56481879 138.52605628 82.6842312 128.19814491 86.22753906 118.39111328 C88.29397209 124.59041236 84.92126619 131.75351634 82.24560547 137.5 C76.76252279 148.22840987 69.81622739 157.00634632 61.22753906 165.39111328 C60.55207031 166.07560547 59.87660156 166.76009766 59.18066406 167.46533203 C53.35682576 173.00295606 46.24074062 176.59817469 39.22753906 180.39111328 C38.54046875 180.80490234 37.85339844 181.21869141 37.14550781 181.64501953 C26.0182459 188.05010258 12.91996182 188.74897973 0.41503906 188.76611328 C-1.26489136 188.76853027 -1.26489136 188.76853027 -2.97875977 188.77099609 C-10.4049067 188.67249882 -17.48767186 187.82124583 -24.77246094 186.39111328 C-24.77246094 185.73111328 -24.77246094 185.07111328 -24.77246094 184.39111328 C-25.44792969 184.46458984 -26.12339844 184.53806641 -26.81933594 184.61376953 C-30.7408983 184.31809618 -33.64862966 182.70173305 -37.02246094 180.82861328 C-37.68487793 180.46799805 -38.34729492 180.10738281 -39.02978516 179.73583984 C-44.35887695 176.76757343 -49.13744618 173.36110418 -53.77246094 169.39111328 C-57.45248604 166.29974242 -57.45248604 166.29974242 -61.77246094 164.39111328 C-62.01996094 164.98923828 -62.26746094 165.58736328 -62.52246094 166.20361328 C-63.93616106 168.67758849 -65.42301477 169.82481584 -67.77246094 171.39111328 C-79.07353343 166.35210693 -87.09033611 150.18814661 -91.4597168 139.14697266 C-92.66665244 135.92009885 -93.78686361 132.69106119 -94.77246094 129.39111328 C-95.17307739 128.12122559 -95.17307739 128.12122559 -95.58178711 126.82568359 C-97.87487202 118.82809957 -98.2671895 111.09071447 -98.21850586 102.83837891 C-98.21002299 100.65706909 -98.23882362 98.4784148 -98.27050781 96.29736328 C-98.34651617 81.13380255 -94.75863445 67.92573014 -87.77246094 54.39111328 C-87.3096875 53.44623047 -86.84691406 52.50134766 -86.37011719 51.52783203 C-78.81434954 36.7302483 -66.70806811 24.29319672 -52.77246094 15.39111328 C-52.01707031 14.87935547 -51.26167969 14.36759766 -50.48339844 13.84033203 C-45.51815374 10.62703822 -40.40595993 8.2962676 -34.89746094 6.20361328 C-33.96232666 5.84674438 -33.96232666 5.84674438 -33.00830078 5.48266602 C-30.94380954 4.7314396 -28.86814526 4.05048051 -26.77246094 3.39111328 C-25.92006836 3.11750977 -25.06767578 2.84390625 -24.18945312 2.56201172 C-16.12957979 0.24387005 -8.31505583 -0.07139744 0 0 Z " fill="#026731" transform="translate(97.7724609375,-0.39111328125)"/>
<path d="M0 0 C4.29378813 1.92287034 6.77153701 4.62478869 10 8 C7.33322693 13.94198466 2.3186489 17.90565061 -2.5625 22.0625 C-6.67087167 25.61875848 -10.56344465 29.38002768 -14.4375 33.1875 C-15.065354 33.79408447 -15.69320801 34.40066895 -16.34008789 35.02563477 C-17.22168579 35.90046509 -17.22168579 35.90046509 -18.12109375 36.79296875 C-18.6514624 37.3139917 -19.18183105 37.83501465 -19.72827148 38.37182617 C-21.20007766 40.25615625 -21.69110181 41.63790831 -22 44 C-20.90449514 45.9289673 -20.90449514 45.9289673 -19.125 47.6875 C-18.47660156 48.38101563 -17.82820313 49.07453125 -17.16015625 49.7890625 C-16.44730469 50.51867187 -15.73445313 51.24828125 -15 52 C-14.27683594 52.75023437 -13.55367188 53.50046875 -12.80859375 54.2734375 C-8.6977793 58.46289362 -4.45086563 62.40818661 0.00390625 66.2265625 C3.49167866 69.32528789 6.74144373 72.66344637 10 76 C8.23770311 79.77519562 6.23124812 82.30729323 3 85 C-0.7703517 84.75020444 -2.76135143 82.69215845 -5.4375 80.1875 C-6.31019531 79.37925781 -7.18289062 78.57101563 -8.08203125 77.73828125 C-8.5507666 77.29822754 -9.01950195 76.85817383 -9.50244141 76.40478516 C-11.0823014 74.92279716 -12.67079114 73.45056641 -14.26171875 71.98046875 C-14.81529053 71.46871094 -15.3688623 70.95695312 -15.93920898 70.4296875 C-17.06077253 69.39534766 -18.18397828 68.3627856 -19.30883789 67.33203125 C-21.70129866 65.13814294 -24.06153588 62.938566 -26.359375 60.64453125 C-27.02453125 59.99871094 -27.6896875 59.35289063 -28.375 58.6875 C-28.91898438 58.13449219 -29.46296875 57.58148438 -30.0234375 57.01171875 C-33.36477571 55.30142904 -35.45796835 55.96612985 -39 57 C-41.61653104 58.93607208 -43.74587601 61.22796857 -45.9375 63.625 C-47.16612161 64.91322255 -48.39657456 66.19970111 -49.62890625 67.484375 C-50.21172363 68.09861328 -50.79454102 68.71285156 -51.39501953 69.34570312 C-53.84969152 71.87580009 -56.4949573 74.13848358 -59.1953125 76.3984375 C-62.04786604 78.92992441 -64.58616725 81.76484638 -67.140625 84.59375 C-69 86 -69 86 -71 85.94140625 C-73.44003715 84.79287314 -74.90006121 83.39416603 -76.75 81.4375 C-77.36359375 80.79683594 -77.9771875 80.15617187 -78.609375 79.49609375 C-79.06828125 79.00238281 -79.5271875 78.50867188 -80 78 C-74.78407861 71.76633785 -69.35731073 65.98832331 -63.1875 60.6875 C-59.8986259 57.83069367 -56.70295664 54.89466985 -53.5625 51.875 C-52.71816406 51.06804687 -51.87382813 50.26109375 -51.00390625 49.4296875 C-48.85168297 46.82016922 -48.17883356 45.3531293 -48 42 C-49.9894684 38.71305221 -52.60942369 36.44732738 -55.50390625 33.98828125 C-60.7480009 29.42529212 -65.61001398 24.49868501 -70.5 19.5625 C-71.4178125 18.64017578 -72.335625 17.71785156 -73.28125 16.76757812 C-75.52315055 14.51400101 -77.762666 12.25810925 -80 10 C-79.04270084 8.87411986 -78.08412105 7.7493285 -77.125 6.625 C-76.59132812 5.99851562 -76.05765625 5.37203125 -75.5078125 4.7265625 C-74.38567993 3.44163349 -73.20628025 2.20628025 -72 1 C-68.60663134 1.32723945 -66.86171689 2.74295743 -64.4609375 5.0625 C-63.80262939 5.69051514 -63.14432129 6.31853027 -62.46606445 6.96557617 C-61.43098755 7.97261597 -61.43098755 7.97261597 -60.375 9 C-58.93947033 10.37179339 -57.50327345 11.74288891 -56.06640625 13.11328125 C-55.37047363 13.78053223 -54.67454102 14.4477832 -53.95751953 15.13525391 C-51.44518959 17.52851608 -48.89101649 19.86566841 -46.3125 22.1875 C-45.58675781 22.84105469 -44.86101562 23.49460937 -44.11328125 24.16796875 C-43.41589844 24.77253906 -42.71851563 25.37710938 -42 26 C-40.78376953 27.10794922 -40.78376953 27.10794922 -39.54296875 28.23828125 C-37.14855405 30.15529539 -37.14855405 30.15529539 -34.42578125 30.47265625 C-31.3104204 29.86563747 -30.29910282 28.78026776 -28.1875 26.4375 C-25.55829017 23.63070752 -22.92994173 20.99246517 -20 18.5 C-16.49979461 15.49201099 -13.26741222 12.28752988 -10.03125 9 C-6.82466301 5.84274512 -3.42577588 2.91555394 0 0 Z " fill="#010202" transform="translate(134,56)"/>
<path d="M0 0 C2.94968539 2.06623056 5.37810157 4.54100047 7.875 7.125 C8.56335938 7.79015625 9.25171875 8.4553125 9.9609375 9.140625 C10.610625 9.79804687 11.2603125 10.45546875 11.9296875 11.1328125 C12.51991699 11.72980957 13.11014648 12.32680664 13.71826172 12.94189453 C15.51729005 15.83062003 15.47118374 17.6564543 15 21 C13.42700195 23.25415039 13.42700195 23.25415039 11.23828125 25.34765625 C10.44873047 26.11787109 9.65917969 26.88808594 8.84570312 27.68164062 C8.00974609 28.46732422 7.17378906 29.25300781 6.3125 30.0625 C5.08756836 31.24682617 5.08756836 31.24682617 3.83789062 32.45507812 C2.25908584 33.98019076 0.67440897 35.49925358 -0.91674805 37.01147461 C-2.57142657 38.59091403 -4.19724845 40.20057414 -5.8125 41.8203125 C-7.91133119 43.91164787 -10.07148786 45.87535392 -12.3125 47.8125 C-13.00988281 48.41707031 -13.70726563 49.02164063 -14.42578125 49.64453125 C-14.94527344 50.09183594 -15.46476562 50.53914063 -16 51 C-14.39710014 55.27780281 -11.13704633 57.86008702 -7.8125 60.8125 C-6.62658091 61.88428553 -5.44167589 62.95719423 -4.2578125 64.03125 C-3.69094727 64.54429688 -3.12408203 65.05734375 -2.54003906 65.5859375 C-0.6999077 67.27554448 1.06658128 69.02597852 2.8125 70.8125 C5.82958377 73.88992544 9.03181986 76.71297697 12.30078125 79.51953125 C13.57729445 80.63171172 14.80283014 81.80283014 16 83 C16.11720082 87.38200844 14.65409405 89.7271998 11.8671875 92.90234375 C10.54993419 94.26059591 9.21866691 95.60537221 7.875 96.9375 C7.22273438 97.63423828 6.57046875 98.33097656 5.8984375 99.04882812 C1.03621596 103.93516782 1.03621596 103.93516782 -3.68359375 104.23046875 C-7.46936406 102.82585432 -9.2344683 101.35238267 -11.9375 98.375 C-14.80985363 95.32150695 -17.62109607 92.34509956 -20.8125 89.625 C-24.59653651 86.37150882 -28.31029818 83.0472042 -32 79.6875 C-32.88328979 78.89496826 -32.88328979 78.89496826 -33.78442383 78.08642578 C-35.2284157 76.76548565 -36.61932622 75.38698784 -38 74 C-38 73.34 -38 72.68 -38 72 C-38.66 72 -39.32 72 -40 72 C-40.495 69.525 -40.495 69.525 -41 67 C-38.46377663 65.96965926 -36.72821166 65.69567274 -34.16796875 66.765625 C-29.45947531 69.55171579 -25.77405573 73.02818026 -22 76.95703125 C-19.46428126 79.54722832 -16.77285171 81.90375041 -14.015625 84.25390625 C-12.60129171 85.47911357 -11.21798903 86.74062718 -9.859375 88.02734375 C-9.16328125 88.67832031 -8.4671875 89.32929688 -7.75 90 C-7.12609375 90.598125 -6.5021875 91.19625 -5.859375 91.8125 C-4.07620855 93.21261352 -4.07620855 93.21261352 -1.9375 92.84765625 C1.01594087 91.55552587 2.83961037 89.3404221 5 87 C3.40584497 83.08790692 0.86106668 80.62781914 -2.125 77.6875 C-2.6192749 77.19967041 -3.1135498 76.71184082 -3.62280273 76.20922852 C-6.36166264 73.52719695 -9.15493012 70.93479929 -12.0625 68.4375 C-15.29135534 65.66416782 -18.38453899 62.77897487 -21.4375 59.8125 C-22.28183594 58.99394531 -23.12617187 58.17539063 -23.99609375 57.33203125 C-26.90958577 53.94147621 -26.90958577 53.94147621 -27 51 C-26.09375 49.38671875 -26.09375 49.38671875 -24.5 47.6875 C-23.85933594 47.00171875 -23.21867187 46.3159375 -22.55859375 45.609375 C-21.71425781 44.74828125 -20.86992188 43.8871875 -20 43 C-19.44586426 42.43216797 -18.89172852 41.86433594 -18.32080078 41.27929688 C-5.01126664 27.6779024 -5.01126664 27.6779024 1.58203125 22.39453125 C3.38318297 20.77383775 3.38318297 20.77383775 5 17 C2.69 14.69 0.38 12.38 -2 10 C-6.64650971 12.32325485 -9.76508294 15.49504728 -13.31445312 19.1875 C-16.20776451 22.00261378 -17.68592105 22.97195141 -21.76171875 23.3359375 C-22.83035156 23.22507812 -23.89898437 23.11421875 -25 23 C-28.26696117 23 -29.7920404 25.34649883 -32.125 27.5 C-33.03507812 28.3353125 -33.94515625 29.170625 -34.8828125 30.03125 C-35.58148438 30.6809375 -36.28015625 31.330625 -37 32 C-37.99 31.67 -38.98 31.34 -40 31 C-39.53851563 30.59910156 -39.07703125 30.19820312 -38.6015625 29.78515625 C-27.99854966 20.58840339 -27.99854966 20.58840339 -17.875 10.875 C-16.58593487 9.58073703 -15.29427345 8.28905461 -14 7 C-12.9790625 5.98292969 -12.9790625 5.98292969 -11.9375 4.9453125 C-11.256875 4.30335937 -10.57625 3.66140625 -9.875 3 C-9.27429688 2.4225 -8.67359375 1.845 -8.0546875 1.25 C-4.99867674 -0.60917004 -3.53690158 -0.68867555 0 0 Z " fill="#274A12" transform="translate(138,47)"/>
<path d="M0 0 C1.051875 0.185625 1.051875 0.185625 2.125 0.375 C1.691875 1.426875 1.691875 1.426875 1.25 2.5 C0.07938903 5.34032438 0.07938903 5.34032438 -0.65625 8.24609375 C-2.06290972 11.85742207 -3.70890003 13.64669709 -6.5 16.3125 C-7.39460938 17.17359375 -8.28921875 18.0346875 -9.2109375 18.921875 C-12.10174438 21.58379101 -15.0585378 24.15210544 -18.046875 26.703125 C-20.95392801 29.36171194 -23.38597933 32.32594968 -25.875 35.375 C-24.80783928 36.57705464 -23.72061663 37.76132333 -22.625 38.9375 C-22.02171875 39.59878906 -21.4184375 40.26007813 -20.796875 40.94140625 C-19.01093601 42.61894797 -19.01093601 42.61894797 -16.93945312 42.13305664 C-13.42155685 40.8413031 -11.1566843 37.91394469 -8.625 35.25 C-7.46156133 34.0541129 -6.29620603 32.86008733 -5.12890625 31.66796875 C-4.5683252 31.09481934 -4.00774414 30.52166992 -3.43017578 29.93115234 C-0.97550454 27.47493971 1.63754847 25.23304761 4.296875 23.00390625 C6.40723827 21.12351846 8.26958385 19.0753024 10.1875 17 C12.7542853 14.36713904 14.44489256 12.89332499 18.125 12.375 C19.115 12.375 20.105 12.375 21.125 12.375 C22.115 13.695 23.105 15.015 24.125 16.375 C21.815 16.045 19.505 15.715 17.125 15.375 C17.125 17.025 17.125 18.675 17.125 20.375 C17.785 20.705 18.445 21.035 19.125 21.375 C18.12146484 22.28765625 18.12146484 22.28765625 17.09765625 23.21875 C10.72654281 29.03399448 4.4077632 34.90185359 -1.875 40.8125 C-2.60452881 41.49828125 -3.33405762 42.1840625 -4.08569336 42.890625 C-4.77928955 43.54417969 -5.47288574 44.19773438 -6.1875 44.87109375 C-6.83759033 45.48283447 -7.48768066 46.0945752 -8.1574707 46.72485352 C-9.53261415 48.04604677 -10.85911558 49.41779368 -12.16796875 50.8046875 C-13.875 52.375 -13.875 52.375 -17.1875 53.0625 C-21.70661499 52.21995314 -23.06254098 50.72154471 -26.03125 47.375 C-28.54242971 44.65100845 -31.42782274 42.48566049 -34.37109375 40.24609375 C-36.54790479 37.53780158 -36.23652222 35.77756208 -35.875 32.375 C-34.2578125 30.06079102 -34.2578125 30.06079102 -32 27.87890625 C-30.76830078 26.66944336 -30.76830078 26.66944336 -29.51171875 25.43554688 C-28.64160156 24.61119141 -27.77148438 23.78683594 -26.875 22.9375 C-26.03582031 22.11701172 -25.19664063 21.29652344 -24.33203125 20.45117188 C-19.87330988 16.12033631 -15.31877823 11.93377418 -10.5847168 7.90576172 C-8.83411007 6.33838999 -7.27578584 4.66748511 -5.6875 2.9375 C-2.875 0.375 -2.875 0.375 0 0 Z " fill="#07345F" transform="translate(80.875,98.625)"/>
<path d="M0 0 C2.94968539 2.06623056 5.37810157 4.54100047 7.875 7.125 C8.56335938 7.79015625 9.25171875 8.4553125 9.9609375 9.140625 C10.610625 9.79804687 11.2603125 10.45546875 11.9296875 11.1328125 C12.51991699 11.72980957 13.11014648 12.32680664 13.71826172 12.94189453 C15.51825283 15.83216597 15.4705027 17.65402369 15 21 C13.42700195 23.30175781 13.42700195 23.30175781 11.23828125 25.453125 C10.44873047 26.236875 9.65917969 27.020625 8.84570312 27.828125 C8.00974609 28.62734375 7.17378906 29.4265625 6.3125 30.25 C5.49587891 31.0646875 4.67925781 31.879375 3.83789062 32.71875 C0.03697261 36.43657102 -2.8947764 39.26667933 -8 41 C-8.66 39.68 -9.32 38.36 -10 37 C-15.53601728 41.60136502 -20.39863498 46.46398272 -25 52 C-25.495 50.515 -25.495 50.515 -26 49 C-23.15912732 46.13409251 -20.31473864 43.27172303 -17.46728516 40.41235352 C-16.50248541 39.44257727 -15.53859105 38.4718993 -14.57568359 37.50024414 C-9.40764968 32.28649921 -4.25662943 27.1744114 1.44140625 22.53735352 C3.36747508 20.8029311 3.36747508 20.8029311 5 17 C2.69 14.69 0.38 12.38 -2 10 C-6.64650971 12.32325485 -9.76508294 15.49504728 -13.31445312 19.1875 C-16.20776451 22.00261378 -17.68592105 22.97195141 -21.76171875 23.3359375 C-22.83035156 23.22507812 -23.89898437 23.11421875 -25 23 C-28.26696117 23 -29.7920404 25.34649883 -32.125 27.5 C-33.03507812 28.3353125 -33.94515625 29.170625 -34.8828125 30.03125 C-35.58148438 30.6809375 -36.28015625 31.330625 -37 32 C-37.99 31.67 -38.98 31.34 -40 31 C-39.53851563 30.59910156 -39.07703125 30.19820312 -38.6015625 29.78515625 C-27.99854966 20.58840339 -27.99854966 20.58840339 -17.875 10.875 C-16.58593487 9.58073703 -15.29427345 8.28905461 -14 7 C-12.9790625 5.98292969 -12.9790625 5.98292969 -11.9375 4.9453125 C-11.256875 4.30335937 -10.57625 3.66140625 -9.875 3 C-9.27429688 2.4225 -8.67359375 1.845 -8.0546875 1.25 C-4.99867674 -0.60917004 -3.53690158 -0.68867555 0 0 Z " fill="#0B5F32" transform="translate(138,47)"/>
<path d="M0 0 C1.88311399 2.82467099 2.96297781 5.29051976 4.1875 8.4375 C8.77112751 19.51571343 14.6273624 28.4185211 23 37 C22.01 37.495 22.01 37.495 21 38 C20.566875 38.928125 20.566875 38.928125 20.125 39.875 C18.80519587 42.36796335 17.32278328 43.45147781 15 45 C7.30546309 41.56910259 3.1064707 33.87771644 -1.25 27 C-1.6742627 26.33597168 -2.09852539 25.67194336 -2.53564453 24.98779297 C-5.32972458 20.47223129 -7.27350288 16.02253709 -9 11 C-4.375 6.125 -4.375 6.125 -1 5 C-0.67 3.35 -0.34 1.7 0 0 Z " fill="#326500" transform="translate(15,126)"/>
<path d="M0 0 C0.99 0.33 1.98 0.66 3 1 C3 1.99 3 2.98 3 4 C4.62703594 5.90216595 6.25328727 7.62497383 8.0390625 9.3671875 C8.55753754 9.88378937 9.07601257 10.40039124 9.61019897 10.93264771 C10.71141926 12.02713876 11.81623467 13.11802253 12.92431641 14.20556641 C14.60436052 15.85473977 16.27376866 17.51407304 17.94140625 19.17578125 C19.01501089 20.2402031 20.08921165 21.30402408 21.1640625 22.3671875 C21.65806549 22.85694061 22.15206848 23.34669373 22.66104126 23.85128784 C25.11629865 26.25740608 27.61951613 28.53884017 30.28662109 30.70361328 C33 33 33 33 34.25 35.375 C33.84549781 39.62227299 30.92029113 42.06277965 28 45 C27.34 44.01 26.68 43.02 26 42 C27.32 40.02 28.64 38.04 30 36 C29.13117188 36.2784375 28.26234375 36.556875 27.3671875 36.84375 C24 37 24 37 21.0703125 34.71875 C20.07115771 33.66200318 19.09009141 32.58794426 18.125 31.5 C17.06705183 30.37316823 16.00715999 29.24815809 14.9453125 28.125 C14.18395996 27.30708984 14.18395996 27.30708984 13.40722656 26.47265625 C11.70222671 24.6883816 9.89200866 23.08327085 8 21.5 C4.40161648 18.41132408 0.96255423 15.17893962 -2.4375 11.875 C-2.97052734 11.37162109 -3.50355469 10.86824219 -4.05273438 10.34960938 C-7.07097932 7.378341 -8.69404438 5.28337874 -9 1 C-7.88625 1.020625 -6.7725 1.04125 -5.625 1.0625 C-2.16784079 1.26380718 -2.16784079 1.26380718 0 0 Z " fill="#2E1762" transform="translate(53,63)"/>
<path d="M0 0 C2.06643303 6.19929908 -1.30627288 13.36240306 -3.98193359 19.10888672 C-9.46501627 29.83729659 -16.41131167 38.61523304 -25 47 C-25.67546875 47.68449219 -26.3509375 48.36898437 -27.046875 49.07421875 C-32.87071331 54.61184278 -39.98679844 58.20706141 -47 62 C-47.68707031 62.41378906 -48.37414062 62.82757813 -49.08203125 63.25390625 C-60.20929317 69.65898929 -73.30757725 70.35786645 -85.8125 70.375 C-87.49243042 70.37741699 -87.49243042 70.37741699 -89.20629883 70.37988281 C-96.63244577 70.28138554 -103.71521092 69.43013255 -111 68 C-111 67.34 -111 66.68 -111 66 C-111.67546875 66.07347656 -112.3509375 66.14695312 -113.046875 66.22265625 C-116.9685912 65.9269713 -119.87587295 64.31026204 -123.25 62.4375 C-123.9087915 62.07978516 -124.56758301 61.72207031 -125.24633789 61.35351562 C-130.56988944 58.39388456 -135.3935541 54.99474983 -140 51 C-135.98478134 51 -134.23198035 52.57550209 -130.875 54.75 C-112.06758935 66.61197841 -90.36526835 70.76020186 -68.4375 66.9375 C-46.20326593 61.84314658 -27.37274728 49.54741905 -14 31 C-13.48953125 30.30132812 -12.9790625 29.60265625 -12.453125 28.8828125 C-6.66272028 20.134943 -3.54330787 9.80703163 0 0 Z " fill="#11A0C6" transform="translate(184,118)"/>
<path d="M0 0 C2.76917692 2.04576622 5.04259035 4.47768643 7.375 7 C8.01566406 7.66773438 8.65632813 8.33546875 9.31640625 9.0234375 C10.89200192 10.66958223 12.45190719 12.32803435 14 14 C13.67 14.66 13.34 15.32 13 16 C12.31292969 15.28972656 11.62585938 14.57945313 10.91796875 13.84765625 C10.01691406 12.92855469 9.11585938 12.00945313 8.1875 11.0625 C7.29417969 10.14597656 6.40085938 9.22945312 5.48046875 8.28515625 C3.14563407 5.82064892 3.14563407 5.82064892 0 5 C-0.33 5.66 -0.66 6.32 -1 7 C-1.495 6.01 -1.495 6.01 -2 5 C-3.08527495 5.93525165 -4.16800709 6.8734533 -5.25 7.8125 C-5.971875 8.43769531 -6.69375 9.06289063 -7.4375 9.70703125 C-9.35530636 11.42311712 -11.21590312 13.15946674 -13.0625 14.94921875 C-13.5894043 15.45283936 -14.11630859 15.95645996 -14.65917969 16.4753418 C-15.71124943 17.48365603 -16.75382351 18.50198181 -17.78613281 19.53051758 C-19.265625 20.9375 -19.265625 20.9375 -22 23 C-23.3339441 22.66911933 -24.66728138 22.33578262 -26 22 C-28.12217932 23.58570661 -29.8833556 25.09290258 -31.75 26.9375 C-32.25660156 27.41896484 -32.76320313 27.90042969 -33.28515625 28.39648438 C-34.53412504 29.58653954 -35.7685103 30.79186613 -37 32 C-37.99 31.67 -38.98 31.34 -40 31 C-39.53851563 30.59910156 -39.07703125 30.19820312 -38.6015625 29.78515625 C-27.99854966 20.58840339 -27.99854966 20.58840339 -17.875 10.875 C-16.58593487 9.58073703 -15.29427345 8.28905461 -14 7 C-12.9790625 5.98292969 -12.9790625 5.98292969 -11.9375 4.9453125 C-11.256875 4.30335937 -10.57625 3.66140625 -9.875 3 C-9.27429688 2.4225 -8.67359375 1.845 -8.0546875 1.25 C-5.0129431 -0.60049089 -3.51513057 -0.68254962 0 0 Z " fill="#00744A" transform="translate(138,47)"/>
<path d="M0 0 C0.33 0.66 0.66 1.32 1 2 C2.98 2 4.96 2 7 2 C2.17645439 7.96596431 -3.24070919 12.94570712 -9 18 C-9.33 18.33 -9.66 18.66 -10 19 C-13.72974013 19.63938402 -15.04278031 18.97336321 -18.3125 16.9375 C-21 14 -21 14 -21.375 10.1875 C-21.25125 9.135625 -21.1275 8.08375 -21 7 C-18.125 6.8125 -18.125 6.8125 -15 7 C-14.01 8.485 -14.01 8.485 -13 10 C-9.52224821 8.48446596 -7.0442016 6.4226544 -4.25 3.875 C-3.45078125 3.15054688 -2.6515625 2.42609375 -1.828125 1.6796875 C-1.22484375 1.12539062 -0.6215625 0.57109375 0 0 Z " fill="#501342" transform="translate(112,68)"/>
<path d="M0 0 C1.051875 0.185625 1.051875 0.185625 2.125 0.375 C0.87523244 4.02816671 0.45401247 5.15565836 -2.875 7.375 C-3.47957031 7.61089844 -4.08414063 7.84679687 -4.70703125 8.08984375 C-8.01250827 10.0493067 -10.15925871 13.00037604 -12.5625 15.9375 C-25.74112537 31.66291494 -25.74112537 31.66291494 -31.875 34.375 C-32.6175 34.74625 -33.36 35.1175 -34.125 35.5 C-34.7025 35.78875 -35.28 36.0775 -35.875 36.375 C-35.36873066 32.10408019 -34.17286765 30.1833243 -31.12109375 27.1953125 C-30.34830078 26.43089844 -29.57550781 25.66648437 -28.77929688 24.87890625 C-27.96525391 24.09386719 -27.15121094 23.30882813 -26.3125 22.5 C-25.52552734 21.72269531 -24.73855469 20.94539063 -23.92773438 20.14453125 C-19.61422255 15.91280902 -15.2081517 11.83544892 -10.60449219 7.92114258 C-8.84586319 6.34895208 -7.2815986 4.674523 -5.6875 2.9375 C-2.875 0.375 -2.875 0.375 0 0 Z " fill="#116193" transform="translate(80.875,98.625)"/>
<path d="M0 0 C3.9492568 0.55105909 7.34920174 1.38935371 11 3 C9.53543147 5.92913705 7.10003844 7.50816521 4.59375 9.5625 C2.88323361 10.92966207 2.88323361 10.92966207 2 13 C2.763125 13.20625 3.52625 13.4125 4.3125 13.625 C16.36090444 18.11762538 27.09709538 25.7895405 36 35 C35.67 35.99 35.34 36.98 35 38 C34.57332031 37.52691406 34.14664063 37.05382813 33.70703125 36.56640625 C21.71722247 23.88440233 7.06214199 17.16380167 -9 11 C-7.14875304 9.13792703 -5.27699616 7.31142492 -3.375 5.5 C-0.8187374 3.16311246 -0.8187374 3.16311246 0 0 Z " fill="#26264F" transform="translate(129,4)"/>
<path d="M0 0 C3.53491784 2.94925098 6.95911957 5.902741 10.125 9.25 C12.89308285 11.89773142 14.55631544 12.64065083 18 14 C20.56356283 16.49610065 21.94381615 17.87632294 22.125 21.5 C20.4999205 25.11128778 18.16292315 26.6446317 15 29 C14.67 28.01 14.34 27.02 14 26 C15.9375 22.8125 15.9375 22.8125 18 20 C17.13761719 20.28359375 16.27523437 20.5671875 15.38671875 20.859375 C12 21 12 21 8.89453125 18.578125 C7.84883008 17.48603658 6.82185342 16.37576807 5.8125 15.25 C5.29236328 14.69828125 4.77222656 14.1465625 4.23632812 13.578125 C3.2648615 12.54586417 2.30078772 11.5065561 1.34692383 10.45800781 C-0.06381302 8.93092417 -1.52155233 7.46136049 -3 6 C-2.34 6 -1.68 6 -1 6 C-0.67 4.02 -0.34 2.04 0 0 Z " fill="#231853" transform="translate(65,79)"/>
<path d="M0 0 C2.0012207 1.47119141 2.0012207 1.47119141 3.92578125 3.3515625 C4.64056641 4.03863281 5.35535156 4.72570313 6.09179688 5.43359375 C6.82462891 6.15675781 7.55746094 6.87992188 8.3125 7.625 C9.76558786 9.0352354 11.22000898 10.44409836 12.67578125 11.8515625 C13.38943848 12.54540039 14.1030957 13.23923828 14.83837891 13.95410156 C17.56098035 16.5309482 20.39050142 18.96425353 23.26245117 21.37255859 C25.10953277 23.10259174 26.54082532 24.93738616 28 27 C25.19083037 25.71772614 23.12707912 24.37412775 20.93359375 22.20703125 C20.3708374 21.66191895 19.80808105 21.11680664 19.22827148 20.55517578 C18.63731689 19.98009277 18.0463623 19.40500977 17.4375 18.8125 C9.03357354 10.74050681 9.03357354 10.74050681 -1 5 C-5.9257035 5.34820879 -7.66348962 7.4966641 -11 11 C-13.89512341 12.90654468 -16.88071673 14.49413911 -20 16 C-20.66 16.33 -21.32 16.66 -22 17 C-20.68904236 14.10261071 -19.28539071 12.03715911 -17.03125 9.80078125 C-16.46019531 9.23166016 -15.88914062 8.66253906 -15.30078125 8.07617188 C-14.70652344 7.49416016 -14.11226562 6.91214844 -13.5 6.3125 C-12.90574219 5.71888672 -12.31148437 5.12527344 -11.69921875 4.51367188 C-5.50174807 -1.62084481 -5.50174807 -1.62084481 0 0 Z " fill="#803196" transform="translate(67,48)"/>
<path d="M0 0 C1.65012665 1.40948318 3.2994778 2.81988253 4.9453125 4.234375 C6.27054423 5.37316729 7.59847743 6.50882697 8.9296875 7.640625 C13.41787687 11.49794438 17.60572591 15.56955054 21.75 19.79296875 C24.51657431 22.50670918 27.44919794 24.96810549 30.46875 27.39453125 C32.22272116 29.23351632 32.61254165 30.51919027 33 33 C31.35 32.67 29.7 32.34 28 32 C28 31.34 28 30.68 28 30 C27.01 29.67 26.02 29.34 25 29 C23.3515625 27.36328125 23.3515625 27.36328125 21.625 25.3125 C20.71234375 24.23548828 20.71234375 24.23548828 19.78125 23.13671875 C19.1934375 22.43160156 18.605625 21.72648437 18 21 C17.4946875 20.40832031 16.989375 19.81664063 16.46875 19.20703125 C13.14973498 15.29946996 13.14973498 15.29946996 12 13 C10.741875 12.62875 9.48375 12.2575 8.1875 11.875 C4.56561519 10.62002017 3.21671576 9.36473398 1.5 5.9375 C0.56438588 3.77187593 0 2.3603531 0 0 Z " fill="#7E923A" transform="translate(120,99)"/>
<path d="M0 0 C0 0.66 0 1.32 0 2 C-1.08667969 1.83886719 -2.17335938 1.67773438 -3.29296875 1.51171875 C-8.63182368 0.84832464 -13.93858116 0.81603315 -19.3125 0.8125 C-20.28123047 0.80025391 -21.24996094 0.78800781 -22.24804688 0.77539062 C-31.8554352 0.75616303 -40.89554976 2.17136529 -49.875 5.625 C-50.54917969 5.88152344 -51.22335938 6.13804688 -51.91796875 6.40234375 C-61.85546589 10.35114205 -70.66513897 16.35225585 -79 23 C-78.26692913 18.25052674 -75.68869099 16.67109795 -71.96484375 13.9296875 C-65.92542129 9.9988908 -59.59866637 6.87677752 -53 4 C-51.19208984 3.19949219 -51.19208984 3.19949219 -49.34765625 2.3828125 C-36.39273035 -2.62783058 -13.38717445 -4.46239148 0 0 Z " fill="#004D20" transform="translate(120,13)"/>
<path d="M0 0 C2.76917692 2.04576622 5.04259035 4.47768643 7.375 7 C8.01566406 7.66773438 8.65632813 8.33546875 9.31640625 9.0234375 C10.89200192 10.66958223 12.45190719 12.32803435 14 14 C13.67 14.66 13.34 15.32 13 16 C12.13117188 15.0615625 11.26234375 14.123125 10.3671875 13.15625 C9.20394288 11.93671935 8.03983472 10.71801196 6.875 9.5 C6.30523437 8.87996094 5.73546875 8.25992188 5.1484375 7.62109375 C1.58721853 3.93751653 1.58721853 3.93751653 -3.21875 2.40234375 C-6.33306142 3.07157078 -7.31780724 3.68680786 -9.375 6.0625 C-11.78715027 8.70261173 -14.21054235 11.12145378 -16.9375 13.4375 C-19.74576347 15.85617779 -22.39970593 18.35899683 -25 21 C-27.721916 23.74339069 -30.46750757 26.44635522 -33.3125 29.0625 C-33.94800781 29.65160156 -34.58351563 30.24070312 -35.23828125 30.84765625 C-35.81964844 31.22792969 -36.40101562 31.60820313 -37 32 C-37.99 31.67 -38.98 31.34 -40 31 C-39.53851563 30.59910156 -39.07703125 30.19820312 -38.6015625 29.78515625 C-27.99854966 20.58840339 -27.99854966 20.58840339 -17.875 10.875 C-16.58593487 9.58073703 -15.29427345 8.28905461 -14 7 C-12.9790625 5.98292969 -12.9790625 5.98292969 -11.9375 4.9453125 C-11.256875 4.30335937 -10.57625 3.66140625 -9.875 3 C-9.27429688 2.4225 -8.67359375 1.845 -8.0546875 1.25 C-5.0129431 -0.60049089 -3.51513057 -0.68254962 0 0 Z " fill="#47968A" transform="translate(138,47)"/>
<path d="M0 0 C0.66 0.33 1.32 0.66 2 1 C0.69675781 2.23363281 0.69675781 2.23363281 -0.6328125 3.4921875 C-7.25814005 9.8689693 -12.67853377 15.80605105 -17 24 C-17.90542338 25.44460809 -18.82159966 26.88255006 -19.75 28.3125 C-21.52612621 31.13738645 -22.82561219 33.86829918 -24 37 C-25.29079459 39.68822005 -26.64780974 42.34224674 -28 45 C-28.5775 46.155 -29.155 47.31 -29.75 48.5 C-30.1625 49.325 -30.575 50.15 -31 51 C-32 49 -32 49 -31.06640625 45.76171875 C-30.57807566 44.39892784 -30.07577984 43.04109138 -29.5625 41.6875 C-29.29099121 40.97126465 -29.01948242 40.2550293 -28.73974609 39.51708984 C-22.57448155 23.89772654 -11.97180152 11.53021868 0 0 Z " fill="#008443" transform="translate(35,22)"/>
<path d="M0 0 C0.66 0.33 1.32 0.66 2 1 C2 1.66 2 2.32 2 3 C2.556875 3.103125 3.11375 3.20625 3.6875 3.3125 C7.97486493 4.58712201 10.51792535 6.27688802 13 10 C12.67 10.33 12.34 10.66 12 11 C11.95936168 12.66617115 11.957279 14.33388095 12 16 C8.28954753 14.42219077 5.70093616 12.09296752 2.75 9.375 C1.85796875 8.55773437 0.9659375 7.74046875 0.046875 6.8984375 C-0.96632813 5.95871094 -0.96632813 5.95871094 -2 5 C-1.34 4.67 -0.68 4.34 0 4 C0 2.68 0 1.36 0 0 Z " fill="#560457" transform="translate(80,65)"/>
<path d="M0 0 C14.91302707 0 31.59161072 11.52677105 41.89453125 21.80078125 C42.58933594 22.52652344 43.28414062 23.25226562 44 24 C43.505 25.485 43.505 25.485 43 27 C42.35998047 26.29037109 42.35998047 26.29037109 41.70703125 25.56640625 C30.17041441 13.36375792 15.9496952 5.8660087 0 1 C0 0.67 0 0.34 0 0 Z " fill="#2A0D41" transform="translate(121,15)"/>
<path d="M0 0 C2.07126834 6.21380502 -1.28278032 13.54065151 -4.11083984 19.23779297 C-7.88569704 26.18181234 -11.89886025 32.94239654 -17 39 C-17.99 38.67 -18.98 38.34 -20 38 C-19.13375 37.05125 -18.2675 36.1025 -17.375 35.125 C-8.63775623 24.75462655 -4.55104395 12.59620491 0 0 Z " fill="#1482AE" transform="translate(184,118)"/>
<path d="M0 0 C3.78590116 1.3754533 6.90760772 3.1369654 10.25 5.375 C18.49333819 10.6868837 26.49657385 13.65522944 36 16 C36 16.99 36 17.98 36 19 C33.69 18.67 31.38 18.34 29 18 C29 17.34 29 16.68 29 16 C28.32453125 16.07347656 27.6490625 16.14695313 26.953125 16.22265625 C23.0315512 15.92698203 20.12388726 14.31055532 16.75 12.4375 C16.0912085 12.07906006 15.43241699 11.72062012 14.75366211 11.35131836 C9.466447 8.4073524 4.43649475 5.14794225 0 1 C0 0.67 0 0.34 0 0 Z " fill="#1F929E" transform="translate(44,168)"/>
<path d="M0 0 C2.32790995 0.01837824 4.65542308 0.02050831 6.98339844 0.02026367 C8.47558936 0.02517601 9.9677776 0.03100309 11.45996094 0.0378418 C12.14962952 0.03895462 12.8392981 0.04006744 13.54986572 0.04121399 C17.17705696 0.07674554 20.54069752 0.35258816 24.06933594 1.20581055 C24.06933594 1.53581055 24.06933594 1.86581055 24.06933594 2.20581055 C22.4868103 2.19795532 22.4868103 2.19795532 20.87231445 2.18994141 C16.97176964 2.17189154 13.07122854 2.1603786 9.1706543 2.15087891 C7.47989278 2.14583865 5.78913565 2.1390065 4.09838867 2.13037109 C1.67332887 2.11829198 -0.7516735 2.11257932 -3.17675781 2.1081543 C-3.9371788 2.10299301 -4.69759979 2.09783173 -5.48106384 2.09251404 C-7.29798977 2.09231817 -9.11479534 2.14383778 -10.93066406 2.20581055 C-11.26066406 2.53581055 -11.59066406 2.86581055 -11.93066406 3.20581055 C-17.00051926 4.13700844 -21.8018471 4.29578979 -26.93066406 4.20581055 C-19.04804984 -1.0492656 -9.10886959 -0.07452008 0 0 Z " fill="#007B3D" transform="translate(97.9306640625,-0.205810546875)"/>
<path d="M0 0 C0.65355469 0.59748047 0.65355469 0.59748047 1.3203125 1.20703125 C4.15774936 3.73124456 6.63065597 5.8190968 10.0625 7.5 C13.93140989 9.47561356 16.13694122 11.72793283 19 15 C19 15.99 19 16.98 19 18 C17.35 17.67 15.7 17.34 14 17 C14 16.34 14 15.68 14 15 C13.01 14.67 12.02 14.34 11 14 C9.31640625 12.29296875 9.31640625 12.29296875 7.5625 10.1875 C5.62032666 7.88734132 3.7217084 5.72884408 1.5625 3.625 C0 2 0 2 0 0 Z " fill="#4C7801" transform="translate(134,114)"/>
<path d="M0 0 C0.66 0 1.32 0 2 0 C2.33 1.32 2.66 2.64 3 4 C0.03 6.64 -2.94 9.28 -6 12 C-6.33 11.01 -6.66 10.02 -7 9 C-9.01508358 8.26676204 -9.01508358 8.26676204 -11 8 C-11.33 6.35 -11.66 4.7 -12 3 C-11.401875 3.33 -10.80375 3.66 -10.1875 4 C-7.94613529 5.20787988 -7.94613529 5.20787988 -5 5 C-3.31288577 3.3540349 -1.6454378 1.68762851 0 0 Z " fill="#582449" transform="translate(107,72)"/>
<path d="M0 0 C-1.30324219 0.59748047 -1.30324219 0.59748047 -2.6328125 1.20703125 C-3.78523438 1.73683594 -4.93765625 2.26664062 -6.125 2.8125 C-7.26195313 3.33457031 -8.39890625 3.85664063 -9.5703125 4.39453125 C-11.81805172 5.44671897 -14.04397231 6.54714211 -16.2421875 7.69921875 C-19 9 -19 9 -22 9 C-22 9.66 -22 10.32 -22 11 C-24.1171875 12.54296875 -24.1171875 12.54296875 -26.875 14.1875 C-28.23238281 15.01314453 -28.23238281 15.01314453 -29.6171875 15.85546875 C-30.40351562 16.23316406 -31.18984375 16.61085938 -32 17 C-32.66 16.67 -33.32 16.34 -34 16 C-9.22158943 -3.51818933 -9.22158943 -3.51818933 0 0 Z " fill="#009049" transform="translate(71,5)"/>
<path d="M0 0 C1.9451 2.91765 2.45276317 4.62537285 3 8 C1.9171875 8.61875 1.9171875 8.61875 0.8125 9.25 C-1.97969862 10.98736803 -4.47012585 12.90381857 -7 15 C-7.66 13.68 -8.32 12.36 -9 11 C-4.375 6.125 -4.375 6.125 -1 5 C-0.67 3.35 -0.34 1.7 0 0 Z " fill="#096C03" transform="translate(15,126)"/>
<path d="M0 0 C3.0625 -0.5 3.0625 -0.5 6 0 C6.66 0.99 7.32 1.98 8 3 C7.34 3 6.68 3 6 3 C5.67 3.66 5.34 4.32 5 5 C4.67 4.34 4.34 3.68 4 3 C2.72799029 4.10281127 1.45744147 5.20730769 0.1875 6.3125 C-0.52019531 6.92738281 -1.22789062 7.54226562 -1.95703125 8.17578125 C-3.70136739 9.73334335 -5.36778041 11.32658875 -7 13 C-7.66 12.67 -8.32 12.34 -9 12 C-8 9 -8 9 -5.625 7.125 C-2.85878781 5.17343823 -2.85878781 5.17343823 -1.5625 2.25 C-1.046875 1.5075 -0.53125 0.765 0 0 Z " fill="#006F3A" transform="translate(132,49)"/>
<path d="M0 0 C0.69480469 0.12375 1.38960937 0.2475 2.10546875 0.375 C0.85570119 4.02816671 0.43448122 5.15565836 -2.89453125 7.375 C-3.67828125 7.478125 -4.46203125 7.58125 -5.26953125 7.6875 C-8.85299713 8.62602678 -10.46310376 10.66569509 -12.89453125 13.375 C-13.55453125 13.045 -14.21453125 12.715 -14.89453125 12.375 C-13.01353517 10.3590042 -11.11694453 8.36328018 -9.20703125 6.375 C-8.67658203 5.80265625 -8.14613281 5.2303125 -7.59960938 4.640625 C-3.54237011 0.45893054 -3.54237011 0.45893054 0 0 Z " fill="#385487" transform="translate(80.89453125,98.625)"/>
<path d="M0 0 C0.33 0.66 0.66 1.32 1 2 C2.98 2 4.96 2 7 2 C6.0919838 3.13199353 5.17316174 4.25532363 4.25 5.375 C3.73953125 6.00148438 3.2290625 6.62796875 2.703125 7.2734375 C0.91800519 9.08312318 -0.67949644 10.00117455 -3 11 C-2.814375 10.4225 -2.62875 9.845 -2.4375 9.25 C-1.82065265 7.01302293 -1.82065265 7.01302293 -2.625 4.9375 C-2.74875 4.298125 -2.8725 3.65875 -3 3 C-1.5625 1.25 -1.5625 1.25 0 0 Z " fill="#373A42" transform="translate(112,68)"/>
<path d="M0 0 C0.99 0.66 1.98 1.32 3 2 C-0.4229236 5.82562049 -2.96666561 7.84652754 -8 9 C-10.875 9.125 -10.875 9.125 -13 9 C-11.8125 7.0625 -11.8125 7.0625 -10 5 C-8.33678518 4.64984951 -6.66965451 4.31802943 -5 4 C-2.2299003 2.03490091 -2.2299003 2.03490091 0 0 Z " fill="#420962" transform="translate(59,56)"/>
<path d="M0 0 C3.006818 1.33999498 4.99762609 2.79845291 7.25 5.1875 C10.40458882 8.45086774 13.72554996 11.41001087 17.203125 14.32421875 C19.07674426 16.07157236 20.52511967 17.9105862 22 20 C19.11409866 18.68554739 16.97902991 17.25163159 14.6875 15.06640625 C14.08679688 14.49986328 13.48609375 13.93332031 12.8671875 13.34960938 C12.25101563 12.75986328 11.63484375 12.17011719 11 11.5625 C9.77251609 10.3953631 8.54339488 9.22994529 7.3125 8.06640625 C6.74015625 7.52516113 6.1678125 6.98391602 5.578125 6.42626953 C3.912438 4.87183893 3.912438 4.87183893 1.5625 3.21484375 C1.046875 2.81394531 0.53125 2.41304687 0 2 C0 1.34 0 0.68 0 0 Z " fill="#954195" transform="translate(73,55)"/>
<path d="M0 0 C2.97 0.495 2.97 0.495 6 1 C5.2575 1.721875 4.515 2.44375 3.75 3.1875 C0.97397287 5.86710808 0.97397287 5.86710808 -0.9375 8.8125 C-3 11 -3 11 -6.25 11.3125 C-7.1575 11.209375 -8.065 11.10625 -9 11 C-7.1436027 9.1436027 -5.2767018 7.31114457 -3.375 5.5 C-0.8187374 3.16311246 -0.8187374 3.16311246 0 0 Z " fill="#0F344B" transform="translate(129,4)"/>
<path d="M0 0 C0 4.24691525 -2.46581676 6.02933913 -5.25 8.9375 C-5.98669922 9.72543945 -5.98669922 9.72543945 -6.73828125 10.52929688 C-9.43930753 13.4067902 -12.1924913 16.22591402 -15 19 C-15.66 18.67 -16.32 18.34 -17 18 C-16.57589844 17.5875 -16.15179688 17.175 -15.71484375 16.75 C-11.81595825 12.91109736 -8.13624596 8.95355837 -4.578125 4.796875 C-3.11118731 3.12659942 -1.59043707 1.55211328 0 0 Z " fill="#057A4A" transform="translate(144,65)"/>
<path d="M0 0 C4.18423892 3.50897269 8.19588166 7.08060535 12 11 C9.97954558 10.39816251 7.97888961 9.72693904 6 9 C5.67 8.34 5.34 7.68 5 7 C4.67 7.99 4.34 8.98 4 10 C3.34 10 2.68 10 2 10 C1.67 7.69 1.34 5.38 1 3 C0.34 3 -0.32 3 -1 3 C-0.67 2.01 -0.34 1.02 0 0 Z " fill="#69016F" transform="translate(76,59)"/>
<path d="M0 0 C0.66 0.33 1.32 0.66 2 1 C1.40832031 1.65226562 0.81664063 2.30453125 0.20703125 2.9765625 C-3.95518632 7.58012451 -8.07669156 12.1907832 -12 17 C-12 13.42188369 -11.13534858 12.73324619 -9 10 C-8.67 9.01 -8.34 8.02 -8 7 C-6.15234375 5.17578125 -6.15234375 5.17578125 -3.9375 3.3125 C-2.83728516 2.37857422 -2.83728516 2.37857422 -1.71484375 1.42578125 C-1.14894531 0.95527344 -0.58304688 0.48476562 0 0 Z " fill="#013A73" transform="translate(74,105)"/>
<path d="M0 0 C4.27081914 -0.02897435 8.54161309 -0.04678996 12.8125 -0.0625 C14.63491211 -0.07506836 14.63491211 -0.07506836 16.49414062 -0.08789062 C18.23920898 -0.09272461 18.23920898 -0.09272461 20.01953125 -0.09765625 C21.09307861 -0.10289307 22.16662598 -0.10812988 23.27270508 -0.11352539 C26 0 26 0 29 1 C29 1.66 29 2.32 29 3 C27.3603125 2.76990234 27.3603125 2.76990234 25.6875 2.53515625 C20.47066053 1.88305132 15.24994266 1.65835966 10 1.4375 C9.03449219 1.39431641 8.06898437 1.35113281 7.07421875 1.30664062 C4.71625575 1.20158287 2.35820584 1.09943086 0 1 C0 0.67 0 0.34 0 0 Z " fill="#023A23" transform="translate(91,12)"/>
<path d="M0 0 C1.15224028 0.92961422 2.29659176 1.8690125 3.4375 2.8125 C4.07558594 3.33457031 4.71367188 3.85664062 5.37109375 4.39453125 C7 6 7 6 8 9 C9.49985609 10.66710346 9.49985609 10.66710346 11 12 C4.76515987 11.04079383 4.76515987 11.04079383 2.64453125 8.15625 C0 2.88628159 0 2.88628159 0 0 Z " fill="#6A6D24" transform="translate(120,99)"/>
<path d="M0 0 C0.59329102 0.21495117 1.18658203 0.42990234 1.79785156 0.65136719 C1.10304687 1.0290625 0.40824219 1.40675781 -0.30761719 1.79589844 C-3.73819718 3.99498817 -6.55667392 6.55341123 -9.51464844 9.33886719 C-10.33932617 10.10553711 -10.33932617 10.10553711 -11.18066406 10.88769531 C-12.52481224 12.13833753 -13.86399444 13.39431343 -15.20214844 14.65136719 C-15.20214844 11.65136719 -15.20214844 11.65136719 -14.07226562 10.19335938 C-12.37718077 8.58245006 -10.67613735 6.98138272 -8.95214844 5.40136719 C-8.07236328 4.55058594 -8.07236328 4.55058594 -7.17480469 3.68261719 C-6.60117188 3.15152344 -6.02753906 2.62042969 -5.43652344 2.07324219 C-4.9128418 1.58436523 -4.38916016 1.09548828 -3.84960938 0.59179688 C-2.20214844 -0.34863281 -2.20214844 -0.34863281 0 0 Z " fill="#1EB392" transform="translate(134.2021484375,47.3486328125)"/>
<path d="M0 0 C-2 3 -2 3 -5.125 3.6875 C-9.12211256 4.00984779 -12.99280854 4.0703016 -17 4 C-12.0251208 0.68341387 -5.96431647 -0.38479461 0 0 Z " fill="#008843" transform="translate(88,0)"/>
<path d="M0 0 C1.32591677 3.9777503 0.38574021 6.11698924 -0.75 10.125 C-1.26820313 12.01605469 -1.26820313 12.01605469 -1.796875 13.9453125 C-2.19390625 14.95335937 -2.5909375 15.96140625 -3 17 C-3.99 17.33 -4.98 17.66 -6 18 C-4.23536928 11.89262558 -2.30442525 5.92566493 0 0 Z " fill="#146B97" transform="translate(184,118)"/>
<path d="M0 0 C1.32 0.33 2.64 0.66 4 1 C2.83608372 3.32783257 1.55663134 4.34167872 -0.4375 6 C-2.37629938 7.61903915 -4.21204833 9.21204833 -6 11 C-6.66 10.34 -7.32 9.68 -8 9 C-7.50628906 8.51789062 -7.01257813 8.03578125 -6.50390625 7.5390625 C-5.86324219 6.90742188 -5.22257813 6.27578125 -4.5625 5.625 C-3.92441406 4.99851562 -3.28632813 4.37203125 -2.62890625 3.7265625 C-0.92117824 2.08276939 -0.92117824 2.08276939 0 0 Z " fill="#351D54" transform="translate(136,6)"/>
<path d="M0 0 C0.33 0.66 0.66 1.32 1 2 C-2.3618226 6.25171681 -5.74828319 9.6381774 -10 13 C-10.66 12.67 -11.32 12.34 -12 12 C-8.04 8.04 -4.08 4.08 0 0 Z " fill="#004785" transform="translate(65,113)"/>
<path d="M0 0 C5.94 1.485 5.94 1.485 12 3 C12 3.99 12 4.98 12 6 C9.69 5.67 7.38 5.34 5 5 C5 4.34 5 3.68 5 3 C3.35 3 1.7 3 0 3 C0 2.01 0 1.02 0 0 Z " fill="#0B78A3" transform="translate(68,181)"/>
<path d="M0 0 C4.18768262 0.95174605 6.71992844 3.69098259 9.75 6.625 C8.76 6.955 7.77 7.285 6.75 7.625 C6.0075 6.965 5.265 6.305 4.5 5.625 C1.80052538 3.2133804 1.80052538 3.2133804 -2.0625 3.875 C-3.6403125 4.24625 -3.6403125 4.24625 -5.25 4.625 C-3.73174645 2.06794139 -2.91858453 0.81071793 0 0 Z " fill="#740481" transform="translate(63.25,48.375)"/>
<path d="M0 0 C0 3 0 3 -2.1875 5.48046875 C-3.115625 6.37378906 -4.04375 7.26710937 -5 8.1875 C-5.928125 9.08855469 -6.85625 9.98960937 -7.8125 10.91796875 C-8.534375 11.60503906 -9.25625 12.29210937 -10 13 C-10.99 12.67 -11.98 12.34 -13 12 C-12.14535156 11.21753906 -11.29070312 10.43507812 -10.41015625 9.62890625 C-9.29425993 8.60678273 -8.17837511 7.58464667 -7.0625 6.5625 C-6.21655273 5.7880957 -6.21655273 5.7880957 -5.35351562 4.99804688 C-2.64001674 2.53775333 -2.64001674 2.53775333 0 0 Z " fill="#004688" transform="translate(164,159)"/>
<path d="M0 0 C2 3 2 3 2 5 C0.35443434 6.03435556 -1.3170608 7.02763513 -3 8 C-4.68477344 9.31037934 -6.35648543 10.63823078 -8 12 C-8 10.68 -8 9.36 -8 8 C-6.34928604 6.97388051 -4.68029994 5.97691857 -3 5 C-1.19203897 2.43389334 -1.19203897 2.43389334 0 0 Z " fill="#1D6E01" transform="translate(16,129)"/>
<path d="M0 0 C1.32 1.32 2.64 2.64 4 4 C3.34 4 2.68 4 2 4 C1.7525 4.598125 1.505 5.19625 1.25 5.8125 C-0.16370012 8.28647521 -1.65055383 9.43370255 -4 11 C-4.66 10.67 -5.32 10.34 -6 10 C-5.195625 9.278125 -4.39125 8.55625 -3.5625 7.8125 C-0.97707928 4.97484311 -0.31957187 3.72833853 0 0 Z " fill="#0E5C14" transform="translate(34,160)"/>
<path d="M0 0 C0.45890625 0.40992188 0.9178125 0.81984375 1.390625 1.2421875 C2.00421875 1.78101563 2.6178125 2.31984375 3.25 2.875 C3.85328125 3.40867188 4.4565625 3.94234375 5.078125 4.4921875 C6.97418746 5.9797487 8.81290005 7.00322436 11 8 C10.67 9.32 10.34 10.64 10 12 C10 11.34 10 10.68 10 10 C9.1028125 9.566875 9.1028125 9.566875 8.1875 9.125 C6 8 6 8 3 6 C3 5.34 3 4.68 3 4 C2.34 4 1.68 4 1 4 C0.67 2.68 0.34 1.36 0 0 Z " fill="#007D44" transform="translate(142,54)"/>
<path d="M0 0 C3 -0.375 3 -0.375 6 0 C6.66 0.99 7.32 1.98 8 3 C7.34 3 6.68 3 6 3 C5.67 3.66 5.34 4.32 5 5 C5 4.01 5 3.02 5 2 C2.69 2.33 0.38 2.66 -2 3 C-1.34 2.01 -0.68 1.02 0 0 Z " fill="#008345" transform="translate(132,49)"/>
<path d="M0 0 C1.65 1.65 3.3 3.3 5 5 C3.68 5.99 2.36 6.98 1 8 C0 7 0 7 -0.0625 3.4375 C-0.041875 2.303125 -0.02125 1.16875 0 0 Z " fill="#163F1A" transform="translate(127,84)"/>
<path d="M0 0 C3.81684226 1.55500981 6.19195732 4.03595495 9 7 C8.67 7.66 8.34 8.32 8 9 C6.66079162 7.88200014 5.32877444 6.75538103 4 5.625 C2.88625 4.68527344 2.88625 4.68527344 1.75 3.7265625 C1.1725 3.15679687 0.595 2.58703125 0 2 C0 1.34 0 0.68 0 0 Z " fill="#748F32" transform="translate(144,122)"/>
<path d="M0 0 C6.625 -0.25 6.625 -0.25 10 2 C5.94568308 3.15837626 3.78187881 2.83691257 0 1 C0 0.67 0 0.34 0 0 Z " fill="#005847" transform="translate(119,2)"/>
<path d="M0 0 C0 0.99 0 1.98 0 3 C-1.8125 4.75 -1.8125 4.75 -4 6 C-4.99 5.67 -5.98 5.34 -7 5 C-2.25 0 -2.25 0 0 0 Z " fill="#633A5C" transform="translate(109,72)"/>
<path d="M0 0 C0.598125 0.309375 1.19625 0.61875 1.8125 0.9375 C4.08956772 2.10209704 4.08956772 2.10209704 7 3 C7 3.66 7 4.32 7 5 C5.02 5 3.04 5 1 5 C0.67 3.35 0.34 1.7 0 0 Z " fill="#7C376E" transform="translate(95,75)"/>
<path d="M0 0 C1.32 0.33 2.64 0.66 4 1 C1.03 3.475 1.03 3.475 -2 6 C-2 4.68 -2 3.36 -2 2 C-1.34 2 -0.68 2 0 2 C0 1.34 0 0.68 0 0 Z " fill="#183632" transform="translate(115,70)"/>
<path d="M0 0 C1.65 0 3.3 0 5 0 C3.6875 2 3.6875 2 2 4 C1.01 4 0.02 4 -1 4 C-0.67 2.68 -0.34 1.36 0 0 Z " fill="#0F5348" transform="translate(114,66)"/>
<path d="M0 0 C0.99 0.33 1.98 0.66 3 1 C2.67 1.99 2.34 2.98 2 4 C0.35 4 -1.3 4 -3 4 C-2.01 2.68 -1.02 1.36 0 0 Z " fill="#3F1476" transform="translate(49,61)"/>
</svg>
