<svg width="55" height="55" viewBox="0 0 55 55" fill="none" xmlns="http://www.w3.org/2000/svg">
<path d="M27.5 55C42.7397 55 55 42.7397 55 27.5C55 12.2603 42.7397 0 27.5 0C12.2603 0 0 12.2603 0 27.5C0 42.7397 12.2603 55 27.5 55Z" fill="#5D5FEF"/>
<mask id="mask0_9252_59298" style="mask-type:alpha" maskUnits="userSpaceOnUse" x="0" y="0" width="55" height="55">
<path d="M27.5 55C42.7397 55 55 42.7397 55 27.5C55 12.2603 42.7397 0 27.5 0C12.2603 0 0 12.2603 0 27.5C0 42.7397 12.2603 55 27.5 55Z" fill="#5D5FEF"/>
</mask>
<g mask="url(#mask0_9252_59298)">
<path d="M50.5386 20.0023C50.3093 22.1731 49.3134 24.176 47.9658 26.5845C41.5759 38.005 28.8469 38.6136 16.5238 38.1749C6.22741 37.6584 -4.19409 41.8744 -11.2488 50.4138C-12.0747 51.4135 -12.8336 52.4452 -13.5255 53.509C-18.5843 61.2442 -20.0879 70.4448 -18.2734 79.0225C-17.8919 80.8796 -17.3492 82.6829 -16.6453 84.4325C-15.8901 86.3179 -14.8796 88.0639 -13.6824 89.7537C-13.6824 89.7537 -13.6686 89.7652 -13.6408 89.7882C-12.7316 91.0065 -11.7005 92.162 -10.5475 93.2548C-10.0728 89.3717 -8.9063 85.4995 -7.06063 81.908C-6.02217 79.9158 -4.78508 77.9942 -3.34939 76.1433C-3.18879 75.9489 -3.0282 75.7545 -2.86761 75.5601C0.711372 71.2279 5.15967 67.9644 9.9448 65.8201C12.5964 64.6466 15.3602 63.8461 18.1947 63.3844C18.1947 63.3844 22.2716 62.267 24.3798 61.8361C31.907 60.2751 37.8694 56.7906 42.2544 53.2644C48.0665 48.6045 51.6347 41.7404 52.2743 34.3491C52.6783 30.1273 52.5993 24.3639 50.5386 20.0023Z" fill="#F60F70"/>
<path fill-rule="evenodd" clip-rule="evenodd" d="M47.7941 53.9019C47.7941 53.9019 47.7941 53.9019 47.7941 53.9019L47.8129 53.8625C47.0738 53.3149 46.2706 52.8336 45.4034 52.4186C44.0631 51.7771 42.668 51.3517 41.2763 51.1216C39.548 52.9106 37.6398 54.4681 35.5706 55.7548C38.3498 59.362 40.0472 63.711 40.4762 68.1797C46.4698 64.8953 48.4372 61.5254 48.8422 58.8838C48.4373 61.5254 46.47 64.8954 40.4762 68.1798C40.8572 72.1412 40.2836 76.2754 38.5719 80.1555C38.4724 80.431 38.3598 80.7 38.234 80.9627C37.4605 82.5789 36.4899 84.1007 35.3994 85.4682C35.3743 85.5207 35.336 85.567 35.2846 85.607C35.1702 85.7784 35.0491 85.9303 34.921 86.0629C34.8319 86.1816 34.7296 86.2942 34.6141 86.4005L34.3843 86.678C34.038 86.9968 33.6848 87.2961 33.3248 87.5759C33.2483 87.6684 33.1648 87.7415 33.0745 87.7953C32.7145 88.0751 32.3345 88.3292 31.9345 88.5576C31.8179 88.5988 31.7144 88.6463 31.6242 88.6998C29.0869 90.0533 26.0444 90.4381 23.177 89.6472L22.5479 89.4431C22.1286 89.307 21.7088 89.1382 21.2883 88.937L20.9729 88.7861C20.8278 88.6844 20.6896 88.602 20.5582 88.5391L20.4794 88.5014C17.8539 87.0025 16.3907 84.8973 15.6336 82.9363C15.0409 81.4415 14.7397 79.8439 14.7898 78.2207C14.8225 77.8486 14.8191 77.6533 14.8191 77.6533C14.0727 80.8326 13.914 84.0997 14.3006 87.2398C14.9061 87.5942 15.5373 87.9287 16.1943 88.2431L16.7856 88.5261C20.9623 90.4281 25.3912 91.0944 29.6661 90.7665C30.1283 90.7204 30.5873 90.6652 31.0429 90.6008C31.5235 90.533 32.0005 90.4547 32.4739 90.3662C40.3435 88.8034 47.4292 83.7164 51.1457 75.9509C52.4286 73.2706 53.2024 70.5403 53.5254 67.7396C53.6182 67.0734 53.6714 66.3885 53.6854 65.6845C53.7432 61.1097 51.595 56.6903 47.8129 53.8627L47.7941 53.9019Z" fill="#5D5FEF"/>
</g>
<path d="M34.9711 31.8919C34.9711 27.8752 32.5795 26.498 27.7965 25.9242C24.38 25.4651 23.6967 24.547 23.6967 22.9401C23.6967 21.3332 24.8356 20.3006 27.1132 20.3006C29.1631 20.3006 30.302 20.9892 30.8713 22.7107C30.9853 23.055 31.3269 23.2844 31.6686 23.2844H33.4905C33.9461 23.2844 34.2878 22.9401 34.2878 22.4812V22.3664C33.8321 19.8414 31.7823 17.8905 29.1631 17.661V14.9066C29.1631 14.4474 28.8214 14.1031 28.2521 13.9883H26.5439C26.0882 13.9883 25.7466 14.3326 25.6326 14.9066V17.5462C22.2162 18.0053 20.0526 20.3006 20.0526 23.1698C20.0526 26.9571 22.3301 28.4489 27.1132 29.023C30.302 29.5967 31.3269 30.2853 31.3269 32.1217C31.3269 33.958 29.7324 35.2204 27.5688 35.2204C24.6077 35.2204 23.5827 33.9578 23.2411 32.2362C23.1274 31.7774 22.7858 31.5476 22.4441 31.5476H20.5079C20.0526 31.5476 19.7109 31.8919 19.7109 32.3511V32.466C20.1663 35.335 21.9885 37.4008 25.7466 37.9748V40.7292C25.7466 41.1881 26.0882 41.5324 26.6576 41.6472H28.3658C28.8214 41.6472 29.1631 41.3029 29.277 40.7292V37.9748C32.6935 37.4008 34.9711 34.9907 34.9711 31.8919Z" fill="white"/>
<path d="M21.6159 43.8974C12.6167 40.6816 8.00163 30.6892 11.3477 21.8451C13.0783 17.0212 16.8856 13.3459 21.6159 11.623C22.0775 11.3934 22.3081 11.0489 22.3081 10.4744V8.86651C22.3081 8.40699 22.0775 8.06243 21.6159 7.94775C21.5004 7.94775 21.2698 7.94775 21.1543 8.06243C10.1938 11.5081 4.19427 23.1087 7.6555 34.0199C9.73224 40.4517 14.6934 45.3906 21.1543 47.458C21.6159 47.6876 22.0775 47.458 22.1927 46.9985C22.3081 46.8838 22.3081 46.7689 22.3081 46.5393V44.9311C22.3081 44.5865 21.962 44.1273 21.6159 43.8974ZM33.8456 8.06243C33.3841 7.83281 32.9225 8.06243 32.8073 8.52194C32.6918 8.63689 32.6918 8.75156 32.6918 8.98146V10.5893C32.6918 11.0489 33.0379 11.5081 33.3841 11.738C42.3832 14.9538 46.9983 24.9462 43.6523 33.7903C41.9217 38.6142 38.1143 42.2895 33.3841 44.0123C32.9225 44.242 32.6918 44.5865 32.6918 45.161V46.7689C32.6918 47.2284 32.9225 47.573 33.3841 47.6876C33.4995 47.6876 33.7302 47.6876 33.8456 47.573C44.8061 44.1273 50.8057 32.5267 47.3444 21.6155C45.2677 15.0687 40.191 10.1298 33.8456 8.06243Z" fill="white"/>
</svg>
