<?xml version="1.0" standalone="no"?>
<!DOCTYPE svg PUBLIC "-//W3C//DTD SVG 20010904//EN"
 "http://www.w3.org/TR/2001/REC-SVG-20010904/DTD/svg10.dtd">
<svg version="1.0" xmlns="http://www.w3.org/2000/svg"
 width="150.000000pt" height="150.000000pt" viewBox="0 0 150.000000 150.000000"
 preserveAspectRatio="xMidYMid meet">

<g transform="translate(0.000000,150.000000) scale(0.100000,-0.100000)"
fill="#000000" stroke="none">
<path d="M20 1480 c14 -11 31 -20 39 -20 8 0 11 -6 7 -15 -4 -11 0 -15 12 -13
9 2 16 -3 14 -9 -3 -16 17 -16 50 -1 25 12 25 13 10 45 -16 33 -16 33 -86 33
l-71 0 25 -20z"/>
<path d="M163 1475 c13 -26 33 -35 23 -10 -10 27 30 17 43 -11 10 -23 9 -26
-9 -31 -23 -6 -25 -14 -8 -31 9 -9 9 -12 0 -12 -7 0 -15 7 -18 15 -5 12 -10
13 -20 4 -7 -6 -22 -8 -33 -4 -22 7 -33 -5 -21 -24 5 -10 24 -12 64 -9 31 3
59 1 62 -4 3 -5 13 -3 22 5 23 19 52 29 52 17 0 -16 37 -12 54 5 8 9 18 16 21
15 37 -2 42 1 39 28 -2 15 -1 19 2 10 3 -10 12 -18 20 -18 8 0 15 -8 16 -17 4
-55 3 -58 -25 -56 -15 1 -27 -2 -27 -7 0 -6 5 -10 10 -10 18 0 10 -18 -11 -23
-15 -4 -19 -2 -15 9 3 8 -1 14 -8 14 -9 0 -12 -7 -9 -19 5 -20 49 -26 71 -9 8
8 12 6 12 -5 0 -9 -8 -21 -17 -26 -15 -8 -10 -10 22 -11 30 0 36 3 27 12 -17
17 -15 33 3 18 10 -9 15 -9 15 -1 0 6 8 11 18 11 13 0 14 2 3 9 -9 6 -10 11
-3 15 6 4 9 13 5 21 -3 11 2 15 17 15 19 0 20 -2 10 -15 -9 -11 -10 -18 -1
-28 6 -8 7 -18 3 -22 -4 -5 -2 -5 4 -2 7 4 27 0 45 -8 34 -14 33 -15 -7 -20
-54 -6 -61 -41 -9 -47 25 -3 40 1 51 13 10 11 11 18 4 21 -7 2 -7 8 2 20 8 11
31 18 62 20 46 2 50 0 57 -24 6 -23 3 -28 -19 -37 -23 -8 -24 -10 -7 -11 17
-2 16 -3 -5 -10 -14 -4 -32 -8 -40 -9 -13 -1 -13 0 0 9 13 8 12 10 -2 10 -10
0 -18 -6 -18 -14 0 -19 -46 -29 -70 -16 -16 9 -20 8 -20 -6 0 -13 -3 -14 -14
-5 -11 9 -13 6 -13 -13 -1 -14 2 -24 6 -23 11 4 11 -17 0 -52 -16 -46 -27 -23
-25 52 l1 57 -62 0 c-60 0 -63 1 -63 25 0 18 -7 26 -25 31 -14 4 -29 4 -32 0
-3 -3 -12 -1 -19 4 -8 8 -17 6 -29 -6 -13 -14 -14 -19 -3 -25 22 -14 58 -10
58 6 0 9 6 12 16 8 9 -3 12 -9 7 -12 -4 -3 -8 -12 -9 -18 -1 -7 -2 -25 -4 -40
l-2 -28 -7 30 c-5 23 -12 31 -33 33 -26 3 -26 2 -16 -32 6 -19 15 -34 21 -33
15 3 17 -34 1 -40 -8 -3 -14 -19 -14 -38 0 -41 -9 -67 -21 -59 -16 9 -10 -67
7 -83 10 -10 14 -27 12 -45 -3 -15 -1 -28 4 -28 4 0 2 -11 -4 -25 -6 -14 -15
-25 -20 -25 -4 0 -8 -6 -8 -14 0 -7 -7 -19 -15 -26 -20 -16 -19 -50 1 -50 9 0
14 -6 11 -12 -2 -7 -16 -12 -30 -12 -22 1 -25 -1 -16 -12 9 -12 2 -14 -40 -14
-28 0 -51 -2 -51 -4 0 -2 7 -19 15 -39 8 -19 11 -38 7 -42 -4 -5 -2 -5 5 -2 6
4 20 -6 32 -25 11 -18 30 -42 43 -53 l23 -19 -35 -9 c-19 -5 -63 -9 -97 -10
-34 0 -60 -3 -58 -6 2 -4 -9 -14 -24 -22 -25 -15 -27 -15 -28 4 -2 21 -19 37
-39 37 -8 0 -12 -52 -12 -171 -1 -143 1 -174 14 -187 13 -12 20 -13 35 -4 22
14 24 9 8 -19 -8 -16 -13 -18 -24 -9 -21 17 -31 6 -33 -39 -2 -31 1 -41 12
-41 8 0 17 12 19 28 4 26 4 26 12 5 8 -24 11 -25 45 -25 42 0 50 2 50 17 0 9
7 30 16 47 15 28 15 30 0 25 -11 -5 -16 -1 -16 13 0 11 4 20 10 20 17 0 -1 28
-23 35 -21 6 -22 6 -2 14 11 5 46 10 78 13 l58 5 -29 -31 c-38 -41 -68 -93
-77 -134 l-7 -32 121 0 c137 0 131 -5 110 89 -9 45 -8 54 10 80 12 16 29 64
40 108 13 54 23 77 32 76 76 -14 150 -39 154 -54 13 -41 81 -87 153 -103 133
-30 162 -21 213 70 17 30 33 54 35 54 6 0 -8 -33 -34 -78 -30 -52 -22 -55 14
-4 14 20 23 28 21 17 -39 -149 -37 -144 -72 -138 -38 6 -79 -12 -71 -32 3 -10
-10 -17 -45 -24 -65 -14 -135 -13 -234 3 -44 8 -82 12 -83 11 -13 -12 93 -28
205 -32 118 -5 132 -7 136 -24 5 -17 15 -19 86 -19 76 0 81 1 81 21 0 12 18
54 40 93 28 52 42 93 51 147 6 40 15 79 21 84 7 7 9 4 5 -10 -3 -11 -8 -47
-12 -80 -5 -44 -19 -82 -51 -142 -40 -74 -53 -113 -38 -113 3 0 25 16 48 35
50 41 59 43 47 12 -16 -41 4 -46 193 -46 l176 -1 0 25 c0 16 -6 25 -15 25 -15
0 -20 22 -16 67 1 12 -3 24 -9 28 -6 4 -8 -1 -4 -12 5 -16 4 -16 -6 1 -10 15
-9 20 1 27 13 8 12 10 -11 13 -5 0 -16 11 -24 22 -9 12 -28 27 -45 33 -18 8
-34 25 -41 44 -33 87 -69 137 -98 137 -11 0 -1 17 34 53 62 65 124 156 124
182 0 3 -26 5 -57 5 -55 1 -59 3 -80 35 -20 31 -20 35 -5 35 10 0 28 -8 42
-17 22 -16 23 -16 17 0 -5 12 -1 17 13 17 14 0 18 5 13 17 -4 11 -8 12 -11 5
-2 -7 -11 -12 -20 -11 -11 0 -12 2 -4 6 6 2 12 11 12 19 0 8 5 14 12 14 6 0 8
3 4 7 -4 5 -14 -1 -22 -12 -15 -20 -16 -19 -44 15 -16 19 -30 43 -30 53 0 10
-5 15 -10 12 -5 -3 -10 -1 -10 4 0 6 4 11 8 11 5 0 10 28 11 62 1 35 4 65 7
67 9 9 63 10 69 1 10 -17 25 -1 26 28 2 23 2 23 6 5 3 -14 11 -21 24 -20 28 2
26 60 -3 89 -16 16 -20 17 -15 5 3 -9 2 -17 -2 -17 -5 0 -12 6 -14 13 -4 9 -6
9 -6 -1 -1 -8 8 -16 18 -19 16 -4 36 -41 28 -50 -2 -1 -20 19 -41 45 -22 26
-36 39 -33 30 4 -12 1 -18 -8 -18 -8 0 -15 5 -15 10 0 6 -5 10 -11 10 -5 0 -8
-4 -5 -9 3 -4 -1 -17 -9 -27 -9 -12 -14 -14 -15 -6 0 7 -4 11 -9 7 -5 -3 -12
5 -16 17 -13 46 -28 78 -36 78 -5 0 -32 -14 -60 -31 -37 -24 -53 -29 -62 -20
-8 8 -8 11 1 11 7 0 12 5 12 11 0 6 -7 9 -15 5 -9 -3 -15 0 -15 10 0 8 -4 13
-9 10 -4 -3 -23 6 -41 19 -33 24 -75 42 -115 48 -33 4 -42 15 -43 47 -1 25 3
30 16 26 9 -3 30 -8 45 -12 16 -4 25 -9 20 -13 -5 -3 -6 -17 -2 -31 4 -14 7
-19 8 -12 1 6 12 12 26 12 14 0 25 5 25 10 0 6 20 10 45 10 l45 0 -16 -25 c-9
-14 -20 -22 -25 -19 -10 6 -12 -7 -3 -30 3 -9 14 -16 24 -16 10 0 21 -6 23
-12 4 -10 6 -10 6 0 1 6 10 12 20 12 11 0 22 -6 24 -12 3 -7 6 -1 6 15 1 17 6
27 16 27 8 0 15 3 15 8 0 4 -18 6 -40 4 -38 -4 -40 -3 -40 25 0 31 31 69 45
56 4 -5 5 0 2 10 -5 12 -1 17 13 17 11 0 20 4 20 10 0 6 -9 6 -22 1 -16 -6
-30 -3 -45 7 -27 17 -30 39 -5 45 12 3 11 5 -6 6 -13 0 -20 5 -17 11 4 6 11 7
17 4 7 -4 8 -2 4 4 -10 17 -56 11 -56 -8 0 -13 -1 -13 -10 0 -14 21 -12 30 4
30 8 0 16 5 18 12 3 7 18 13 34 13 16 1 40 5 53 9 20 7 23 5 18 -8 -4 -10 -1
-16 8 -16 8 0 15 6 15 14 0 8 6 16 13 19 7 2 8 8 3 13 -5 5 -11 4 -13 -3 -7
-18 -23 -16 -23 3 0 14 -1 14 -16 0 -8 -9 -20 -13 -26 -10 -7 4 -6 9 2 14 7 4
-17 8 -53 9 l-65 1 -18 -45 c-9 -25 -21 -45 -26 -45 -6 0 -8 7 -4 15 7 20 -4
19 -21 -2 -14 -17 -14 -17 -9 0 8 27 -8 20 -26 -11 -15 -24 -22 -28 -49 -24
-22 3 -30 1 -25 -7 4 -6 12 -9 17 -6 5 4 9 1 9 -4 0 -12 -11 -14 -47 -12 -11
1 -24 -3 -28 -8 -11 -20 -23 -11 -20 14 1 14 -1 25 -5 25 -11 0 -60 44 -60 54
0 5 7 3 15 -4 8 -7 22 -9 31 -6 15 6 15 8 -1 26 -10 11 -24 20 -32 20 -7 0
-13 4 -13 9 0 5 -69 10 -154 10 -126 1 -156 -1 -166 -14 -11 -13 -9 -15 14
-15 19 0 26 -5 26 -20 0 -12 7 -20 18 -20 14 0 14 -2 3 -9 -9 -6 -22 -6 -33 0
-10 5 -18 6 -17 2 5 -27 -1 -35 -16 -23 -12 10 -18 10 -30 0 -13 -10 -15 -9
-15 9 0 11 4 21 9 21 13 0 20 25 14 49 -5 19 -13 21 -83 21 l-78 0 11 -25z
m82 6 c3 -5 1 -12 -5 -16 -5 -3 -10 1 -10 9 0 18 6 21 15 7z m340 -21 c8 -13
-5 -13 -25 0 -13 8 -13 10 2 10 9 0 20 -4 23 -10z m65 -50 c0 -16 -5 -30 -10
-30 -6 0 -9 14 -8 30 1 17 6 30 10 30 4 0 8 -13 8 -30z m327 -18 l3 -27 -13
25 c-8 14 -12 29 -9 33 7 13 16 -1 19 -31z m-480 13 c0 -8 -4 -12 -9 -9 -4 3
-8 9 -8 15 0 5 4 9 8 9 5 0 9 -7 9 -15z m123 -15 c0 -5 -5 -10 -11 -10 -5 0
-7 5 -4 10 3 6 8 10 11 10 2 0 4 -4 4 -10z m413 -26 c-4 -11 -8 -12 -20 -3
-11 10 -11 14 -1 20 17 10 28 2 21 -17z m-343 -4 c-20 -13 -33 -13 -25 0 3 6
14 10 23 10 15 0 15 -2 2 -10z m167 -5 c0 -8 -4 -15 -9 -15 -4 0 -8 7 -8 15 0
8 4 15 8 15 5 0 9 -7 9 -15z m43 -11 c0 -2 -7 -4 -15 -4 -8 0 -15 4 -15 10 0
5 7 7 15 4 8 -4 15 -8 15 -10z m57 10 c-3 -3 -12 -4 -19 -1 -8 3 -5 6 6 6 11
1 17 -2 13 -5z m-187 -14 c0 -5 -2 -10 -4 -10 -3 0 -8 5 -11 10 -3 6 -1 10 4
10 6 0 11 -4 11 -10z m-110 -13 c0 -5 11 -6 24 -3 13 3 39 3 58 -1 l33 -7 -30
-7 c-16 -4 -56 -7 -87 -8 -47 -1 -59 2 -68 18 -9 18 -7 20 30 18 22 -1 40 -5
40 -10z m409 -6 c23 -42 -47 -59 -148 -35 -62 15 -71 19 -51 25 14 4 18 8 10
9 -25 4 61 17 122 19 47 1 59 -2 67 -18z m-259 -12 c0 -5 -7 -9 -15 -9 -15 0
-20 12 -9 23 8 8 24 -1 24 -14z m-3 -61 c-3 -8 -6 -5 -6 6 -1 11 2 17 5 13 3
-3 4 -12 1 -19z m64 -120 c23 -44 39 -218 21 -218 -6 0 -33 8 -59 19 -26 10
-72 24 -100 31 -59 13 -61 19 -39 92 20 68 70 136 104 140 30 4 44 -8 73 -64z
m-501 42 c0 -5 -4 -10 -10 -10 -5 0 -10 5 -10 10 0 6 5 10 10 10 6 0 10 -4 10
-10z m920 -120 c0 -5 -2 -10 -4 -10 -3 0 -8 5 -11 10 -3 6 -1 10 4 10 6 0 11
-4 11 -10z m-778 -88 c16 -26 16 -31 3 -42 -12 -10 -16 -9 -21 6 -3 11 -12 36
-19 58 -14 36 -13 38 3 23 9 -9 25 -29 34 -45z m575 3 c-13 -35 -24 -52 -30
-46 -5 5 -6 18 -3 29 6 19 43 72 51 72 1 0 -6 -25 -18 -55z m-760 -7 c-3 -8
-6 -5 -6 6 -1 11 2 17 5 13 3 -3 4 -12 1 -19z m441 -27 c31 -11 70 -25 87 -31
l29 -11 -49 -29 c-53 -31 -111 -39 -160 -20 -14 5 -64 13 -111 17 l-85 6 33
35 c18 18 42 38 53 42 37 16 144 11 203 -9z m212 -116 c38 -8 76 -39 95 -76
14 -26 14 -29 0 -29 -8 0 -15 -4 -15 -9 0 -18 66 -96 98 -116 17 -11 31 -22
31 -25 1 -7 -70 -55 -92 -63 -16 -6 -16 -4 3 20 l21 26 -36 29 c-35 29 -45 53
-24 60 7 2 1 23 -15 53 -18 33 -23 51 -15 55 16 10 -36 48 -76 56 -38 7 -53
38 -27 53 13 8 18 5 20 -9 2 -11 15 -21 32 -25z m-380 -15 c0 -5 -5 -10 -11
-10 -6 0 -24 -10 -41 -21 -21 -15 -26 -24 -17 -29 21 -14 3 -38 -24 -33 l-25
5 18 30 c28 46 100 88 100 58z m60 -95 c22 -24 22 -25 4 -25 -23 0 -44 18 -44
37 0 20 14 16 40 -12z m290 14 c0 -23 -22 -49 -40 -49 -26 0 -25 8 2 37 23 25
38 30 38 12z m-439 -57 c-5 -10 -7 -29 -4 -41 4 -17 -2 -29 -27 -49 l-32 -27
22 -28 c12 -15 19 -27 15 -27 -14 0 -62 30 -82 52 l-21 23 36 23 c20 13 51 41
67 62 31 39 44 45 26 12z m-431 -512 c0 -5 -4 -10 -10 -10 -5 0 -10 5 -10 10
0 6 5 10 10 10 6 0 10 -4 10 -10z m18 -56 c-1 -5 -9 -9 -16 -10 -10 -2 -11 1
-1 12 12 14 24 13 17 -2z m29 -31 c-3 -10 -5 -4 -5 12 0 17 2 24 5 18 2 -7 2
-21 0 -30z m803 27 c0 -5 -8 -10 -17 -10 -15 0 -16 2 -3 10 19 12 20 12 20 0z
m-827 -45 c-7 -21 -13 -19 -13 6 0 11 4 18 10 14 5 -3 7 -12 3 -20z m822 -5
c11 -18 -26 -23 -43 -6 -15 15 -14 16 10 16 15 0 30 -5 33 -10z m259 2 c2 -4
-4 -9 -15 -9 -10 -1 -19 2 -19 8 0 11 27 12 34 1z"/>
<path d="M698 1313 c7 -3 16 -2 19 1 4 3 -2 6 -13 5 -11 0 -14 -3 -6 -6z"/>
<path d="M973 1293 c15 -2 37 -2 50 0 12 2 0 4 -28 4 -27 0 -38 -2 -22 -4z"/>
<path d="M711 1484 c0 -11 3 -14 6 -6 3 7 2 16 -1 19 -3 4 -6 -2 -5 -13z"/>
<path d="M770 1485 c-21 -25 -3 -29 26 -6 24 19 25 21 7 21 -11 0 -26 -7 -33
-15z"/>
<path d="M836 1484 c-3 -8 -6 -24 -6 -35 0 -11 -7 -22 -15 -25 -8 -4 -15 -10
-15 -15 0 -12 30 1 52 23 10 10 25 18 33 18 8 0 15 4 15 9 0 5 10 11 22 13 12
2 23 10 25 18 4 13 3 13 -6 0 -7 -10 -14 -11 -18 -4 -13 18 -80 17 -87 -2z"/>
<path d="M1186 1486 c7 -18 26 -17 30 2 1 7 0 8 -3 2 -3 -8 -9 -7 -19 1 -12
10 -13 9 -8 -5z"/>
<path d="M1465 1490 c-4 -6 -11 -8 -16 -5 -5 4 -9 1 -9 -4 0 -6 6 -11 14 -11
13 0 30 -39 21 -49 -3 -2 -5 1 -5 7 0 6 -6 9 -13 6 -15 -5 -11 -75 5 -85 5 -3
3 -9 -6 -12 -9 -4 -16 -1 -16 5 0 8 -7 6 -17 -4 -11 -12 -13 -21 -6 -30 14
-19 16 -90 2 -98 -7 -5 -8 -13 -1 -26 5 -11 8 -29 6 -42 -4 -21 -1 -23 28 -20
17 2 33 -2 35 -8 2 -7 -7 -10 -28 -8 -25 3 -29 1 -20 -9 6 -8 8 -17 4 -20 -3
-4 -1 -7 6 -7 6 0 16 -10 21 -22 8 -21 9 -22 10 -3 2 17 3 16 10 -5 4 -14 8
84 8 218 1 199 -2 242 -13 242 -8 0 -17 -5 -20 -10z m18 -250 c0 -39 -3 -73
-7 -77 -3 -3 -6 6 -6 20 0 17 -5 27 -15 27 -11 0 -15 11 -15 36 0 19 4 33 9
30 4 -3 6 -18 4 -33 -4 -22 -2 -25 6 -13 6 8 11 33 11 54 0 22 3 36 6 33 4 -4
7 -38 7 -77z m-30 -59 c2 -10 1 -25 -4 -32 -6 -10 -9 -4 -9 19 0 36 5 42 13
13z"/>
<path d="M1315 1470 c-3 -5 -2 -10 4 -10 5 0 13 5 16 10 3 6 2 10 -4 10 -5 0
-13 -4 -16 -10z"/>
<path d="M1361 1475 c-2 -20 -41 -37 -56 -25 -10 8 -19 8 -33 1 -11 -6 -23 -7
-27 -3 -5 4 -5 2 -2 -4 4 -6 18 -9 32 -6 18 3 25 0 25 -10 0 -11 -8 -14 -26
-10 -15 3 -24 1 -21 -4 3 -5 -8 -9 -24 -9 -16 0 -29 4 -29 8 0 4 -11 0 -25
-10 -13 -10 -22 -24 -20 -30 2 -7 -1 -13 -8 -13 -8 0 -8 -3 -2 -8 6 -4 11 -22
11 -39 2 -72 -1 -70 72 -48 13 4 22 3 22 -3 0 -5 -7 -9 -16 -8 -9 0 -19 -4
-21 -11 -3 -7 6 -11 25 -11 23 1 28 5 26 22 -1 12 -3 26 -3 32 -1 6 -14 10
-31 9 -16 -1 -30 1 -30 4 0 11 20 36 20 26 0 -5 5 -2 11 8 5 9 8 21 5 26 -3 5
1 11 9 14 12 5 12 1 4 -21 -6 -15 -7 -23 -3 -20 4 4 15 3 25 -2 23 -13 49 12
49 48 l1 27 14 -30 c9 -20 14 -24 14 -12 1 9 5 17 10 17 16 0 21 32 12 70 -5
19 -9 30 -10 25z m-1 -77 c0 -6 -6 -5 -15 2 -8 7 -15 14 -15 16 0 2 7 1 15 -2
8 -4 15 -11 15 -16z m-57 -13 c4 -8 2 -17 -3 -20 -6 -4 -10 0 -10 9 0 8 -6 17
-12 19 -8 4 -7 6 3 6 9 1 19 -6 22 -14z m-101 -18 c-6 -7 -16 -24 -21 -38 -9
-23 -10 -23 -10 8 -1 22 4 33 17 36 9 3 19 5 21 6 2 0 -1 -5 -7 -12z"/>
<path d="M730 1448 c0 -16 -4 -28 -10 -28 -5 0 -10 -4 -10 -10 0 -5 3 -9 8 -9
22 4 42 -2 37 -11 -15 -24 4 -7 21 18 17 26 17 27 -1 12 -17 -14 -18 -13 -12
8 3 13 3 21 0 18 -3 -3 -12 2 -19 12 -12 15 -13 14 -14 -10z"/>
<path d="M331 1444 c0 -11 3 -14 6 -6 3 7 2 16 -1 19 -3 4 -6 -2 -5 -13z"/>
<path d="M40 1400 c13 -24 32 -27 23 -3 -4 11 -3 14 5 9 7 -4 12 -2 12 3 0 6
-11 11 -25 11 -23 0 -24 -2 -15 -20z"/>
<path d="M445 1381 c-3 -5 -1 -12 5 -16 5 -3 10 1 10 9 0 18 -6 21 -15 7z"/>
<path d="M1090 1379 c0 -5 5 -7 10 -4 6 3 10 8 10 11 0 2 -4 4 -10 4 -5 0 -10
-5 -10 -11z"/>
<path d="M211 1324 c0 -11 3 -14 6 -6 3 7 2 16 -1 19 -3 4 -6 -2 -5 -13z"/>
<path d="M243 1319 c-2 -23 3 -25 10 -4 4 8 3 16 -1 19 -4 3 -9 -4 -9 -15z"/>
<path d="M140 1281 c0 -10 19 -25 25 -20 1 2 -3 10 -11 17 -8 7 -14 8 -14 3z"/>
<path d="M1340 1275 c-1 -11 -3 -28 -5 -37 -6 -30 21 -27 33 4 9 24 8 29 -3
24 -8 -3 -16 3 -18 12 -4 14 -5 13 -7 -3z"/>
<path d="M530 1270 c0 -5 5 -10 10 -10 6 0 10 5 10 10 0 6 -4 10 -10 10 -5 0
-10 -4 -10 -10z"/>
<path d="M745 1270 c-3 -5 -1 -10 4 -10 6 0 11 5 11 10 0 6 -2 10 -4 10 -3 0
-8 -4 -11 -10z"/>
<path d="M1121 1271 c-11 -7 -11 -9 0 -14 10 -4 8 -6 -4 -6 -10 -1 -16 -5 -12
-11 9 -14 32 -1 38 21 6 21 0 24 -22 10z"/>
<path d="M703 1263 c-7 -2 -13 -12 -13 -20 0 -10 6 -13 16 -9 9 3 18 6 20 6 2
0 4 7 4 15 0 15 -6 17 -27 8z"/>
<path d="M450 1234 c0 -15 7 -19 37 -18 41 1 60 24 20 24 -14 0 -32 3 -41 6
-11 4 -16 0 -16 -12z"/>
<path d="M1180 1230 c0 -5 5 -10 11 -10 5 0 7 5 4 10 -3 6 -8 10 -11 10 -2 0
-4 -4 -4 -10z"/>
<path d="M1125 1180 c-3 -5 1 -10 10 -10 9 0 13 5 10 10 -3 6 -8 10 -10 10 -2
0 -7 -4 -10 -10z"/>
<path d="M1340 1161 c0 -6 5 -13 10 -16 6 -3 10 1 10 9 0 9 -4 16 -10 16 -5 0
-10 -4 -10 -9z"/>
<path d="M1270 1135 c0 -17 50 -29 63 -16 6 6 9 11 6 11 -2 0 -19 4 -37 9 -24
7 -32 7 -32 -4z"/>
<path d="M70 1125 c0 -8 5 -15 10 -15 6 0 10 7 10 15 0 8 -4 15 -10 15 -5 0
-10 -7 -10 -15z"/>
<path d="M1372 1110 c0 -14 2 -19 5 -12 2 6 2 18 0 25 -3 6 -5 1 -5 -13z"/>
<path d="M310 1095 c0 -8 5 -15 10 -15 6 0 10 7 10 15 0 8 -4 15 -10 15 -5 0
-10 -7 -10 -15z"/>
<path d="M160 1025 c0 -14 4 -25 9 -25 4 0 6 11 3 25 -2 14 -6 25 -8 25 -2 0
-4 -11 -4 -25z"/>
<path d="M1432 1025 c0 -16 2 -22 5 -12 2 9 2 23 0 30 -3 6 -5 -1 -5 -18z"/>
<path d="M115 1030 c-8 -13 3 -30 18 -30 7 0 6 4 -3 10 -10 6 -11 10 -2 10 6
0 12 5 12 10 0 6 -4 10 -9 10 -6 0 -13 -4 -16 -10z"/>
<path d="M255 1030 c-3 -5 -1 -10 4 -10 6 0 11 5 11 10 0 6 -2 10 -4 10 -3 0
-8 -4 -11 -10z"/>
<path d="M281 1014 c0 -11 3 -14 6 -6 3 7 2 16 -1 19 -3 4 -6 -2 -5 -13z"/>
<path d="M1453 1007 c-3 -7 -3 -9 2 -5 4 4 14 3 21 -3 7 -6 15 -6 18 -1 3 6
-3 12 -14 15 -11 3 -23 0 -27 -6z"/>
<path d="M270 960 c6 -11 13 -20 15 -20 3 0 5 9 5 20 0 11 -7 20 -15 20 -13 0
-14 -4 -5 -20z"/>
<path d="M1321 944 c0 -11 3 -14 6 -6 3 7 2 16 -1 19 -3 4 -6 -2 -5 -13z"/>
<path d="M1435 950 c-8 -13 5 -13 25 0 13 8 13 10 -2 10 -9 0 -20 -4 -23 -10z"/>
<path d="M192 920 c0 -14 2 -19 5 -12 2 6 2 18 0 25 -3 6 -5 1 -5 -13z"/>
<path d="M1275 870 c3 -5 10 -10 16 -10 5 0 9 5 9 10 0 6 -7 10 -16 10 -8 0
-12 -4 -9 -10z"/>
<path d="M1317 863 c3 -6 11 -9 19 -6 20 7 17 19 -5 19 -11 0 -17 -6 -14 -13z"/>
<path d="M1475 860 c-3 -5 1 -10 9 -10 9 0 16 5 16 10 0 6 -4 10 -9 10 -6 0
-13 -4 -16 -10z"/>
<path d="M1247 843 c-13 -12 -7 -25 8 -19 9 3 15 0 15 -9 0 -21 38 -19 43 3 3
14 6 13 15 -8 7 -16 11 -19 11 -9 1 23 -23 41 -44 32 -13 -4 -16 -3 -11 5 8
13 -25 17 -37 5z"/>
<path d="M130 816 c0 -9 5 -16 10 -16 6 0 10 4 10 9 0 6 -4 13 -10 16 -5 3
-10 -1 -10 -9z"/>
<path d="M167 809 c4 -13 8 -18 11 -10 2 7 -1 18 -6 23 -8 8 -9 4 -5 -13z"/>
<path d="M225 809 c-4 -6 -5 -12 -2 -15 2 -3 7 2 10 11 7 17 1 20 -8 4z"/>
<path d="M192 785 c0 -16 2 -22 5 -12 2 9 2 23 0 30 -3 6 -5 -1 -5 -18z"/>
<path d="M160 740 c0 -5 5 -10 11 -10 5 0 7 5 4 10 -3 6 -8 10 -11 10 -2 0 -4
-4 -4 -10z"/>
<path d="M1 645 c0 -61 15 -80 37 -47 8 12 21 22 28 22 8 0 14 4 14 8 0 8 -65
72 -73 72 -3 0 -6 -25 -6 -55z"/>
<path d="M1337 694 c-4 -4 -7 -14 -7 -23 0 -11 3 -12 11 -4 6 6 10 16 7 23 -2
6 -7 8 -11 4z"/>
<path d="M1467 560 c-3 -11 -2 -22 2 -24 11 -7 27 7 26 23 0 23 -22 24 -28 1z"/>
<path d="M5 510 c-3 -5 -1 -10 4 -10 6 0 11 5 11 10 0 6 -2 10 -4 10 -3 0 -8
-4 -11 -10z"/>
<path d="M85 510 c-19 -8 -19 -9 3 -9 12 -1 22 4 22 9 0 6 -1 10 -2 9 -2 0
-12 -4 -23 -9z"/>
<path d="M1461 354 c0 -11 3 -14 6 -6 3 7 2 16 -1 19 -3 4 -6 -2 -5 -13z"/>
<path d="M1461 318 c-1 -10 -5 -18 -11 -18 -5 0 -10 -5 -10 -11 0 -5 5 -7 10
-4 14 9 13 -8 -2 -23 -9 -9 -9 -12 0 -12 19 0 33 36 23 62 -7 17 -10 19 -10 6z"/>
<path d="M1492 280 c0 -14 2 -19 5 -12 2 6 2 18 0 25 -3 6 -5 1 -5 -13z"/>
<path d="M1488 208 c-2 -7 -1 -29 3 -48 6 -34 6 -33 8 13 1 46 -3 59 -11 35z"/>
<path d="M506 194 c-10 -9 -15 -23 -12 -31 3 -8 6 -19 6 -24 0 -5 4 -9 9 -9 8
0 24 71 17 77 -2 2 -11 -4 -20 -13z"/>
<path d="M597 160 c-12 -45 -9 -56 10 -38 13 13 14 22 6 40 l-10 22 -6 -24z"/>
<path d="M622 126 c-8 -19 -21 -26 -49 -29 l-38 -4 37 -1 c30 -2 41 3 54 23 9
14 15 28 12 30 -3 3 -10 -6 -16 -19z"/>
</g>
</svg>
