<?xml version="1.0" standalone="no"?>
<!DOCTYPE svg PUBLIC "-//W3C//DTD SVG 20010904//EN"
 "http://www.w3.org/TR/2001/REC-SVG-20010904/DTD/svg10.dtd">
<svg version="1.0" xmlns="http://www.w3.org/2000/svg"
 width="200.000000pt" height="200.000000pt" viewBox="0 0 200.000000 200.000000"
 preserveAspectRatio="xMidYMid meet">

<g transform="translate(0.000000,200.000000) scale(0.100000,-0.100000)"
fill="#000000" stroke="none">
<path d="M850 1994 c-283 -21 -501 -92 -625 -206 -49 -45 -52 -51 -58 -108 -8
-70 -31 -120 -98 -207 -87 -114 -90 -199 -14 -402 33 -89 49 -148 55 -209 9
-84 8 -113 -10 -307 -25 -266 -25 -298 2 -357 51 -111 134 -170 264 -189 96
-14 205 1 441 61 157 40 210 57 262 88 36 22 139 82 228 135 89 52 183 110
210 128 140 95 227 196 264 306 31 96 49 129 122 221 84 105 102 152 101 262
-1 104 -23 154 -113 253 -81 90 -104 127 -135 223 -31 93 -81 182 -134 237
-55 57 -82 68 -160 65 -37 -1 -175 0 -307 4 -132 3 -265 4 -295 2z m665 -63
c69 -28 116 -94 176 -243 22 -57 51 -123 65 -147 13 -24 24 -45 24 -47 0 -2
-26 -5 -57 -5 l-58 -2 60 -7 c245 -28 311 -368 101 -522 -30 -22 -35 -28 -16
-23 24 8 24 7 -7 -28 -18 -21 -38 -60 -47 -94 -49 -178 -161 -291 -458 -461
-58 -34 -148 -89 -199 -122 -81 -52 -100 -60 -142 -60 -32 0 -76 -11 -130 -34
-110 -45 -210 -67 -338 -73 -138 -7 -227 17 -295 79 -75 69 -78 93 -53 406 24
310 18 404 -30 508 l-29 62 60 -34 c33 -19 58 -28 56 -21 -2 6 -24 22 -48 34
-53 25 -69 56 -70 136 -1 134 78 215 214 219 36 1 63 5 60 9 -3 5 -42 6 -87 2
-100 -7 -133 -28 -173 -108 -25 -51 -26 -63 -22 -143 5 -78 4 -84 -8 -57 -17
38 -17 159 0 206 7 20 34 64 60 97 52 69 76 126 76 184 0 51 39 102 124 162
77 55 138 76 224 76 41 0 62 4 53 9 -15 10 55 23 209 40 52 6 111 13 130 15
82 9 546 -1 575 -13z"/>
<path d="M900 1904 c-41 -8 -120 -18 -175 -23 l-100 -8 80 -1 c44 -1 134 7
200 18 252 42 343 19 540 -138 97 -77 109 -83 45 -23 -83 77 -177 138 -255
166 -82 29 -210 32 -335 9z"/>
<path d="M920 1835 c-167 -32 -250 -37 -335 -20 -44 8 -94 15 -110 15 -32 0
-75 -24 -75 -41 0 -6 11 -2 24 9 23 18 30 18 123 6 143 -19 247 -17 334 6 90
24 222 26 304 5 78 -21 158 -65 242 -132 l68 -56 -59 61 c-127 130 -318 185
-516 147z"/>
<path d="M1100 1759 c144 -16 243 -56 303 -124 18 -20 18 -20 8 2 -35 70 -156
122 -301 128 l-95 4 85 -10z"/>
<path d="M510 1734 c-80 -26 -102 -38 -115 -64 -23 -44 -18 -57 8 -20 36 55
79 74 166 73 47 0 90 -6 114 -16 30 -13 37 -13 37 -2 0 24 -158 46 -210 29z"/>
<path d="M981 1704 c-12 -19 -21 -50 -20 -67 1 -31 2 -30 10 9 5 22 18 50 29
62 22 23 25 32 11 32 -5 0 -18 -16 -30 -36z"/>
<path d="M671 1660 c0 -8 6 -24 14 -34 11 -15 15 -16 15 -5 0 8 -7 24 -15 35
-11 14 -14 15 -14 4z"/>
<path d="M1083 1582 c-67 -24 -116 -62 -137 -106 -19 -41 -12 -63 32 -101 l26
-23 51 28 c77 44 158 63 224 55 31 -3 76 -7 101 -8 44 -2 45 -2 44 29 -2 43
-29 80 -82 111 -61 36 -181 43 -259 15z m67 -41 c0 -5 3 -23 6 -40 6 -29 4
-31 -20 -31 -15 0 -44 -11 -64 -25 -45 -30 -82 -33 -82 -6 0 29 30 59 85 86
53 26 75 31 75 16z m228 -65 c3 -14 0 -15 -25 -4 -37 16 -36 15 -29 27 9 15
50 -3 54 -23z"/>
<path d="M692 1550 c0 -14 2 -19 5 -12 2 6 2 18 0 25 -3 6 -5 1 -5 -13z"/>
<path d="M433 1521 c-31 -19 -49 -52 -39 -70 7 -11 82 -28 163 -36 34 -4 76
-14 94 -23 29 -15 33 -21 32 -60 0 -40 -5 -49 -74 -119 -41 -41 -96 -90 -124
-109 -57 -39 -50 -46 10 -9 49 30 52 30 60 4 6 -19 8 -19 25 -4 17 15 21 13
64 -44 69 -90 102 -100 126 -40 15 36 6 48 -22 30 -18 -11 -24 -10 -47 7 -25
18 -70 87 -71 106 0 5 20 27 45 49 44 40 45 42 45 104 0 59 2 63 30 78 34 18
56 50 40 60 -6 4 -24 4 -40 0 -22 -5 -31 -2 -39 14 -6 10 -39 33 -73 50 -75
38 -154 42 -205 12z m117 -41 c0 -5 -20 -10 -45 -10 -25 0 -45 5 -45 10 0 6
20 10 45 10 25 0 45 -4 45 -10z"/>
<path d="M1464 1481 c4 -6 16 -11 26 -11 28 0 34 -18 8 -23 -21 -4 -20 -4 3
-6 15 0 32 5 38 13 9 11 6 15 -16 20 -16 4 -36 9 -47 13 -12 3 -16 1 -12 -6z"/>
<path d="M1685 1453 c81 -7 106 -15 142 -46 30 -26 34 -28 24 -10 -19 38 -82
63 -148 61 -44 -1 -48 -2 -18 -5z"/>
<path d="M1460 1421 c0 -5 7 -12 16 -15 14 -5 15 -4 4 9 -14 17 -20 19 -20 6z"/>
<path d="M1210 1400 c0 -34 32 -81 69 -99 77 -40 245 -17 296 39 14 15 31 20
73 20 48 0 58 -4 87 -33 51 -51 63 -104 42 -186 -23 -90 -22 -102 8 -68 49 56
56 156 16 235 -35 68 -93 102 -174 102 -45 0 -64 -7 -121 -41 -108 -65 -155
-65 -231 1 -47 40 -65 49 -65 30z"/>
<path d="M164 1367 c-15 -13 -25 -28 -23 -33 2 -5 20 6 39 24 39 36 26 44 -16
9z"/>
<path d="M227 1343 c-16 -4 -53 -60 -45 -68 2 -2 32 3 66 12 57 14 64 14 87
-1 14 -9 25 -25 25 -37 0 -27 23 -34 78 -23 37 7 50 15 60 37 20 41 2 56 -34
29 l-28 -20 -36 28 c-55 43 -116 58 -173 43z"/>
<path d="M1613 1319 c-6 -8 -13 -25 -15 -38 -2 -19 -23 -35 -93 -74 -421 -229
-765 -308 -997 -231 -58 19 -164 95 -173 123 -3 11 -9 48 -13 82 -4 36 -12 64
-19 67 -8 2 -13 -5 -13 -17 0 -11 -12 -51 -26 -88 -35 -93 -47 -221 -34 -348
23 -211 63 -280 180 -315 174 -52 505 -51 678 1 170 53 354 206 446 374 28 50
65 114 84 143 19 29 32 58 29 65 -3 7 1 28 9 46 13 31 16 32 53 26 21 -3 42
-2 45 3 3 5 -21 33 -54 61 -47 41 -60 59 -67 93 -7 33 -11 38 -20 27z m7 -144
c0 -68 -55 -134 -138 -165 -29 -11 -52 -19 -52 -17 -1 1 -3 23 -5 49 l-4 47
61 41 c56 39 112 69 131 70 4 0 7 -11 7 -25z m-236 -132 c-11 -45 -33 -82 -58
-98 -26 -17 -177 -77 -181 -73 -2 2 -6 29 -10 61 -6 46 -5 57 7 57 8 0 61 18
119 40 126 48 131 48 123 13z m-1093 -16 c-8 -8 -11 -7 -11 4 0 20 13 34 18
19 3 -7 -1 -17 -7 -23z m59 -61 c0 -55 -10 -106 -21 -106 -5 0 -13 9 -19 21
-9 16 -7 33 6 75 9 30 21 54 25 54 5 0 9 -20 9 -44z m104 -30 c13 -5 17 -12
12 -29 -4 -12 -9 -37 -13 -55 -4 -23 -10 -31 -20 -28 -8 4 -21 6 -28 6 -19 0
-30 92 -15 120 10 19 14 20 28 7 9 -8 25 -17 36 -21z m1086 31 c0 -2 -17 -35
-37 -72 -54 -98 -87 -113 -87 -40 0 39 32 80 79 101 30 13 45 17 45 11z m-445
-54 c4 -21 9 -45 11 -54 3 -12 -13 -21 -75 -37 -43 -12 -95 -22 -115 -22 l-36
0 0 55 c0 30 3 55 8 55 4 0 39 9 77 20 39 10 82 19 97 19 24 1 28 -4 33 -36z
m-469 -19 c28 -4 30 -7 29 -47 -1 -38 -4 -42 -28 -45 -15 -2 -52 2 -82 8 -59
12 -58 10 -38 83 4 17 11 18 119 1z m214 -39 l0 -55 -76 0 -76 0 7 43 c4 23 8
42 9 43 2 2 109 21 124 23 8 1 12 -16 12 -54z m534 2 c-3 -8 2 -35 11 -61 9
-26 15 -49 13 -50 -2 -1 -30 -24 -62 -51 -33 -28 -73 -60 -89 -72 l-30 -23
-23 57 c-46 111 -48 104 63 161 105 53 125 60 117 39z m-244 -128 c0 -18 10
-58 21 -91 12 -32 20 -60 18 -62 -21 -16 -164 -56 -201 -56 l-48 0 0 83 0 83
58 18 c31 10 73 27 92 37 50 26 60 24 60 -12z m-801 -114 c0 -13 -7 -7 -20 20
-24 52 -24 80 1 35 11 -19 19 -44 19 -55z m67 34 c8 -17 22 -49 30 -71 l14
-40 -33 7 c-39 8 -72 35 -43 35 16 0 17 6 11 50 -8 58 -2 63 21 19z m486 -141
c-2 -5 -36 -8 -77 -8 l-73 0 -9 73 -8 72 55 7 c30 3 66 11 80 16 l25 9 5 -81
c3 -44 4 -84 2 -88z m-366 128 c13 -33 34 -119 30 -123 -2 -3 -17 -1 -33 4
-19 7 -29 18 -34 39 -3 16 -11 39 -17 51 -20 37 -15 45 21 38 17 -4 32 -8 33
-9z m118 4 c30 -11 44 -35 55 -95 l8 -45 -36 0 c-49 0 -56 7 -81 74 -18 48
-20 60 -9 67 18 11 32 11 63 -1z"/>
<path d="M1883 1225 c0 -44 2 -61 4 -37 2 23 2 59 0 80 -2 20 -4 1 -4 -43z"/>
<path d="M133 1255 c0 -22 2 -30 4 -17 2 12 2 30 0 40 -3 9 -5 -1 -4 -23z"/>
<path d="M960 1200 c-11 -21 -3 -25 60 -32 30 -4 39 -41 17 -66 -25 -28 -25
-57 0 -60 26 -4 41 20 49 82 6 39 3 48 -19 70 -33 33 -91 36 -107 6z"/>
<path d="M1101 1198 c-1 -21 5 -29 22 -32 38 -9 137 -11 137 -4 0 4 -32 8 -72
10 -67 3 -73 5 -79 28 l-7 25 -1 -27z"/>
<path d="M137 1182 c6 -25 28 -45 43 -40 6 2 -2 16 -19 32 -26 25 -29 26 -24
8z"/>
<path d="M855 1110 c-25 -28 -8 -39 49 -33 24 3 53 0 65 -7 21 -11 22 -10 19
22 -3 33 -4 33 -59 36 -46 2 -58 -1 -74 -18z"/>
<path d="M1870 1116 c0 -34 -39 -93 -72 -109 -18 -9 -26 -17 -17 -17 9 0 32
12 52 28 26 19 37 37 42 65 4 21 4 41 1 44 -3 4 -6 -1 -6 -11z"/>
<path d="M1390 558 c-14 -6 -86 -46 -160 -89 -155 -90 -243 -126 -338 -138
l-67 -8 51 -2 c98 -2 213 44 439 178 111 65 137 86 75 59z"/>
<path d="M1495 553 c-16 -8 -62 -35 -100 -59 -94 -58 -281 -145 -381 -178 -83
-27 -260 -65 -317 -67 -25 -1 -27 -3 -9 -6 32 -6 198 23 303 53 177 51 390
149 509 234 55 40 52 53 -5 23z"/>
<path d="M340 402 c27 -56 79 -80 187 -87 l78 -5 -78 14 c-84 15 -153 50 -187
93 l-21 28 21 -43z"/>
<path d="M223 385 c0 -22 2 -30 4 -17 2 12 2 30 0 40 -3 9 -5 -1 -4 -23z"/>
<path d="M620 390 c25 -4 93 -4 150 0 l105 7 -150 0 c-101 1 -135 -2 -105 -7z"/>
<path d="M266 302 c59 -58 117 -72 273 -70 l126 1 -130 7 c-140 8 -205 26
-273 75 l-37 27 41 -40z"/>
</g>
</svg>
