<?xml version="1.0" encoding="UTF-8"?>
<!DOCTYPE svg PUBLIC "-//W3C//DTD SVG 1.1//EN" "http://www.w3.org/Graphics/SVG/1.1/DTD/svg11.dtd">
<!-- Creator: CorelDRAW X8 -->
<svg xmlns="http://www.w3.org/2000/svg" xml:space="preserve" width="200px" height="200px" version="1.1" style="shape-rendering:geometricPrecision; text-rendering:geometricPrecision; image-rendering:optimizeQuality; fill-rule:evenodd; clip-rule:evenodd"
viewBox="0 0 200000 200000"
 xmlns:xlink="http://www.w3.org/1999/xlink">
 <defs>
  <style type="text/css">
   <![CDATA[
    .fil0 {fill:none;fill-rule:nonzero}
    .fil1 {fill:#1F1B20}
    .fil3 {fill:#6CB800;fill-rule:nonzero}
    .fil2 {fill:#83CC00;fill-rule:nonzero}
    .fil4 {fill:#A4DF07;fill-rule:nonzero}
   ]]>
  </style>
 </defs>
 <g id="Layer_x0020_1">
  <metadata id="CorelCorpID_0Corel-Layer"/>
  <polygon class="fil0" points="0,200000 200000,200000 200000,0 0,0 "/>
  <circle class="fil1" cx="100000" cy="100000" r="100001"/>
  <g id="_2293464932880">
   <path class="fil2" d="M161925 107964c-1535,4907 -5542,8931 -10372,10643 -419,3986 -2765,7788 -6272,9767 -3927,2217 -9059,2005 -12869,-366 -377,3953 -2691,7751 -6200,9653 -3810,2066 -8724,1729 -12355,-585 -404,2125 -1193,4168 -2557,5828 -1747,2126 -4578,3487 -7267,3063 299,1280 172,2658 -338,3872 1089,114 2134,740 2779,1640 850,1186 1049,2765 711,4184 -235,993 -713,1909 -1328,2726 1318,1165 1896,3123 1386,4812 -414,1364 -1515,2479 -2841,2985 373,1377 52,2943 -837,4059 -192,1656 102,3370 859,4856 754,1480 1959,2722 3402,3540l-22 0c-1680,-266 -3285,-1009 -4551,-2146 -1690,-1518 -2749,-3714 -2906,-5978 -906,-782 -1514,-1910 -1649,-3100 -151,-1329 290,-2712 1173,-3715 12,-14 25,-27 37,-40 -50,-13 -98,-27 -147,-41l-1 0c-1179,-880 -2038,-2194 -2338,-3636 -87,-412 -126,-833 -122,-1254 7,-767 161,-1534 446,-2247 -940,539 -2124,663 -3139,271 -621,-240 -1160,-666 -1560,-1198 -404,-788 -554,-1711 -451,-2596 128,-1109 629,-2152 1332,-3025 26,-34 53,-67 80,-100 -190,-412 -327,-852 -401,-1301 -71,-417 -89,-844 -50,-1266 85,-920 436,-1813 991,-2551 270,19 543,21 815,6 192,-11 384,-31 573,-59l1 0c2268,-341 4312,-1904 5302,-3969 652,-1710 1148,-3804 859,-4900 -26,2763 -2628,5389 -5289,6130 -2292,638 -4895,-169 -6500,-1906 -356,503 -780,960 -1256,1358 -1666,1395 -3966,2092 -6124,1711 -3482,-613 -6275,-3727 -6842,-7216 -430,-2644 331,-5390 1866,-7592 -4943,607 -10261,-1753 -12858,-6050 -2849,-4712 -2116,-11236 1504,-15331 -2861,1440 -5163,4090 -6412,7141 -3197,-3882 -5901,-8250 -6958,-13145 -1184,-5478 23,-11716 4129,-15530 2450,-2275 5705,-3521 8992,-4128 6464,-1194 13333,-9 19048,3227 1323,-4041 5226,-7142 9481,-7433 2081,-142 4169,393 5978,1426 0,-1 0,0 2,0 1990,1136 3642,2871 4571,4966 628,-1389 1448,-2688 2421,-3863 2364,-2860 5631,-4983 9244,-5848 5785,-1386 12241,508 16361,4800 2871,2991 4536,7070 4729,11205 1419,-1327 3174,-2322 5046,-2851 1,0 1,0 1,0 58,-12 117,-20 175,-30 58,-10 117,-18 175,-28 34,-4 68,-9 103,-15 53,-7 105,-15 158,-22 5,0 9,-2 14,-2 52,-7 104,-14 157,-20 173,-21 346,-40 520,-56 65,-6 130,-12 194,-16 66,-6 132,-10 198,-15 305,-20 612,-33 916,-37 70,0 139,-1 207,-1 4243,0 8503,1602 11569,4549 4388,4216 6124,10984 4307,16790z"/>
   <path class="fil3" d="M107804 178641c-1906,8 -3813,-668 -5272,-1895 -1594,-1340 -2630,-3321 -2841,-5392 -1844,-669 -3133,-2631 -3011,-4589 86,-1426 915,-2763 2099,-3553 358,194 736,346 1129,450 -908,1005 -1362,2408 -1210,3755 135,1190 743,2318 1649,3100 157,2264 1216,4460 2906,5978 1266,1137 2871,1880 4551,2146z"/>
   <path class="fil4" d="M119572 93883c-2705,-4342 -7793,-7152 -12922,-6995 -5398,163 -10552,3605 -12835,8488 224,-906 551,-1784 964,-2617 -2221,-435 -4599,-36 -6551,1111 -1058,621 -1987,1460 -2726,2440 572,-1569 1490,-2995 2798,-4019 1985,-1556 4956,-1967 7065,-592 2002,-3268 5377,-5726 9139,-6452 441,-85 889,-148 1340,-183 5,0 10,0 15,-2 5820,-458 11694,3361 13713,8821z"/>
   <path class="fil3" d="M161925 107964c-1535,4907 -5542,8931 -10372,10643 -419,3986 -2765,7788 -6272,9767 -3927,2217 -9059,2005 -12869,-366 -377,3953 -2691,7751 -6200,9653 -3810,2066 -8724,1729 -12355,-585 -404,2125 -1193,4168 -2557,5828 -1747,2126 -4578,3487 -7267,3063 299,1280 172,2658 -338,3872 1089,114 2134,740 2779,1640 850,1186 1049,2765 711,4184 -235,993 -713,1909 -1328,2726 1318,1165 1896,3123 1386,4812 -414,1364 -1515,2479 -2841,2985 -11,3 -21,8 -32,11 1291,-806 2160,-2294 2147,-3824 -14,-1659 -1065,-3250 -2551,-3971 1130,-1410 1460,-3446 776,-5128 -623,-1534 -2059,-2693 -3670,-3052 1604,-2053 2247,-4825 1740,-7378 3351,-42 6442,-2387 7914,-5416 1124,-2314 1409,-4943 1128,-7518 1424,2634 4569,4290 7620,4183 3597,-127 6900,-2341 8990,-5272 1896,-2662 2902,-5854 3454,-9087 697,2356 2213,4481 4303,5766 2365,1454 5451,1749 7976,594 2523,-1155 4350,-3792 4362,-6567 7,-1619 -641,-3222 -1710,-4429 3633,-1209 6802,-4427 8081,-8589 1742,-5663 -175,-12561 -4437,-15964 -3565,-2845 -8496,-3031 -12303,-713 -116,68 -230,142 -344,217 111,-112 224,-222 339,-331 1419,-1327 3174,-2322 5046,-2851 1,0 1,0 1,0 58,-12 117,-20 175,-30 58,-10 117,-18 175,-28 34,-4 68,-9 103,-15 53,-7 105,-15 158,-22 5,0 9,-2 14,-2 52,-7 104,-14 157,-20 173,-21 346,-40 520,-56 65,-6 130,-12 194,-16 66,-6 132,-10 198,-15 305,-20 612,-33 916,-37 70,0 139,-1 207,-1 4243,0 8503,1602 11569,4549 4388,4216 6124,10984 4307,16790z"/>
   <path class="fil2" d="M59237 68587c1281,548 2541,1511 3253,2587 1125,1701 715,3432 -888,3745 -1603,312 -4159,-843 -5518,-2498 -10,-12 -18,-22 -26,-34 465,212 938,360 1383,425 1670,243 2812,-643 2734,-1984 -39,-677 -367,-1441 -893,-2179 -15,-21 -29,-42 -45,-62z"/>
   <path class="fil4" d="M56189 68325c795,-305 1956,-150 3093,324 526,738 854,1502 893,2179 78,1341 -1064,2227 -2734,1984 -445,-65 -918,-213 -1383,-425 -1331,-1645 -1276,-3525 131,-4062z"/>
   <path class="fil3" d="M84667 131164c-2614,-144 -5248,-615 -7076,-2404 -1420,-1387 -2111,-3389 -2270,-5367 -31,-384 -43,-769 -40,-1154 615,1957 1738,3795 3294,5315 1647,1610 3766,2848 6092,3610z"/>
   <path class="fil3" d="M126090 112408c-3245,2325 -7601,2987 -11408,1817 37,-33 74,-66 109,-99 3640,51 7297,-1081 10245,-3222 3158,-2295 5465,-5724 6443,-9501 148,4246 -1929,8527 -5389,11005z"/>
   <path class="fil3" d="M116961 119031c-3,1 -5,3 -6,4 -2086,1259 -4576,1831 -7002,1630 2374,1026 5235,907 7491,-370 1157,-654 2184,-1658 2897,-2774 377,-591 684,-1226 908,-1889 215,-635 169,-1461 418,-2050 -950,2245 -2618,4187 -4706,5449z"/>
   <path class="fil2" d="M137765 145337c-1160,-873 -1917,-2668 -2215,-4050 -208,-969 -104,-2554 1101,-2824 46,-11 91,-18 138,-23 443,-48 877,169 1220,453 1145,945 2205,2233 2777,3607 377,912 522,2066 -138,2799 -706,786 -2041,675 -2883,38z"/>
   <path class="fil3" d="M137765 145337c-1160,-873 -1917,-2668 -2215,-4050 -208,-969 -104,-2554 1101,-2824 46,-11 91,-18 138,-23 416,-44 826,145 1159,404 -292,181 -530,469 -663,791 -230,554 -203,1179 -104,1771 284,1683 1150,3253 2384,4429 -617,76 -1297,-118 -1800,-498z"/>
   <path class="fil2" d="M105474 64289c-240,419 -536,861 -995,1065 -231,101 -508,121 -728,-3 -277,-158 -394,-500 -426,-820 -195,-1949 -161,-3864 374,-5765 221,-781 536,-1580 1159,-2100 622,-521 1630,-658 2226,-107 606,558 553,1520 397,2329 -365,1894 -1046,3727 -2007,5401z"/>
   <path class="fil4" d="M107303 59706c-201,312 -418,615 -651,904 -378,472 -865,945 -1469,963 -911,26 -1484,-957 -1711,-1854 63,-317 139,-636 227,-953 221,-781 536,-1580 1159,-2100 622,-521 1630,-658 2226,-107 606,558 553,1520 397,2329 -53,274 -112,548 -178,818z"/>
   <path class="fil4" d="M150868 82524c-510,442 -1202,619 -1861,672 -306,24 -1689,143 -1902,-24 -172,-136 -307,-313 -368,-528 -235,-801 581,-1489 1292,-1926 505,-310 1025,-628 1607,-732 584,-105 1253,46 1603,526 442,604 195,1520 -371,2012z"/>
   <path class="fil4" d="M96720 50383c-37,719 -572,1500 -1384,1191 -562,-212 -749,-911 -771,-1511 -18,-482 41,-1017 398,-1342 792,-719 1476,538 1693,1169 52,150 72,320 64,493z"/>
   <path class="fil4" d="M142546 87001c28,-5704 -2439,-11413 -6703,-15221 -4917,-4389 -12078,-6118 -18456,-4458 -5204,1356 -9759,4937 -12429,9593 -2856,-2573 -6865,-3846 -10682,-3335 -3715,496 -7164,2667 -9265,5765 -6423,-3173 -13957,-4054 -20933,-2418 -4581,1074 -9049,3314 -11900,7056 -2906,3813 -3861,8865 -3354,13632 428,4043 1874,8013 4382,11213 1802,2299 6627,6075 6981,5213 -3197,-3882 -5901,-8250 -6958,-13145 -1184,-5478 23,-11716 4129,-15530 2450,-2275 5705,-3521 8992,-4128 6464,-1194 13333,-9 19048,3227 1323,-4041 5226,-7142 9481,-7433 2081,-142 4169,393 5978,1426 0,-1 0,0 2,0 2016,1690 3385,4170 3645,6789 441,-85 889,-148 1340,-183 437,-2374 1459,-4640 2940,-6547 2259,-2329 5153,-4048 8311,-4804 5785,-1386 12241,508 16361,4800 2871,2991 4536,7070 4729,11205 1419,-1327 3174,-2322 5046,-2851 -230,39 -458,84 -685,134z"/>
   <path class="fil4" d="M97422 159985c-87,-412 -126,-833 -122,-1254 7,-767 161,-1534 446,-2247 -940,539 -2124,663 -3139,271 -621,-240 -1160,-666 -1560,-1198 -476,-631 -758,-1408 -753,-2198 6,-909 354,-1766 877,-2517 367,-528 1037,-770 1652,-581 4,1 7,2 11,4 -693,-1088 -957,-2442 -723,-3710 233,-1269 961,-2440 1996,-3209l-390 -545c-1063,803 -1842,1974 -2173,3264 -211,824 -237,1692 -87,2529 -1755,712 -3100,2417 -3302,4309 -231,2182 1072,4441 3075,5333 885,393 1842,529 2814,540 17,705 173,1408 471,2048 468,1013 1283,1858 2264,2388 312,169 641,307 981,409 -1179,-880 -2038,-2194 -2338,-3636z"/>
   <path class="fil3" d="M101239 140696c-990,2065 -3035,3628 -5303,3969 -189,28 -381,48 -573,59 -272,15 -545,13 -815,-6 -1606,-117 -3157,-834 -4337,-1939 -1454,2759 -4319,4786 -7440,5075 -3868,359 -7838,-1976 -9405,-5530 -1149,-2609 -940,-5730 389,-8238 -4419,-49 -8848,-2021 -11597,-5502 -2110,-2674 -3127,-6104 -3042,-9504 34,-794 124,-1588 275,-2374 174,-909 442,-1803 796,-2665 1249,-3051 3551,-5701 6412,-7141 -3620,4095 -4353,10619 -1504,15331 2597,4297 7915,6657 12858,6050 -1535,2202 -2296,4948 -1866,7592 567,3489 3360,6603 6842,7216 2158,381 4458,-316 6124,-1711 476,-398 900,-855 1256,-1358 1605,1737 4208,2544 6500,1906 2661,-741 5263,-3367 5289,-6130 289,1096 -207,3190 -859,4900z"/>
  </g>
  <path class="fil2" d="M55558 45920c-19,13 -43,21 -81,19 19,144 44,258 62,338 18,82 80,188 193,326l1584 1905 82 -74 -533 594 -433 354 -621 368 -751 623 1014 1405 2490 3002c99,112 175,170 225,151 55,-13 138,6 237,50l2394 601c-118,-32 -262,-26 -424,11 79,295 210,513 404,665 187,150 363,356 512,620 137,244 124,381 -39,425 -163,38 -313,93 -445,168 -263,186 -483,380 -652,566 -163,188 -376,388 -627,595l-2651 2150 125 89c-88,-26 -269,55 -539,229 -276,181 -564,392 -864,643 -296,243 -572,499 -816,747 -244,251 -382,438 -408,562l-4859 -505 -4103 -5128 588 -292c-100,150 -169,263 -207,338 -30,80 0,174 94,287l3692 4451 652 -443 2030 -1784 2413 -1908 1393 -1147c345,-288 457,-512 339,-675 -118,-163 -268,-357 -462,-588l-767 -923c-306,-370 -574,-690 -804,-971 -232,-276 -494,-633 -791,-1072l-819 -927 -1128 935 -430 -520 -1078 -1304 1503 -1241c57,-50 150,-118 270,-205 126,-83 232,-176 320,-263 88,-88 157,-189 201,-288 43,-99 26,-199 -56,-300l-3442 -4156 -2564 2027 -157 -70 -741 -840 -729 -1058c106,-26 174,-37 206,-44 25,-7 44,-7 50,6 6,6 19,6 25,1 13,-7 62,-51 163,-131l2401 -2040c12,19 62,-36 150,-174 81,-132 151,-225 208,-276l871 -717 375 221c36,237 162,481 386,733 223,250 461,502 704,758 243,250 407,439 492,564 89,126 163,181 238,169 70,-11 170,-93 289,-242 120,-144 313,-349 590,-606l344 -293 2031 -1777 395 -231c345,-249 446,-474 302,-662 -137,-195 -330,-432 -567,-721l-1778 -2088c-130,-150 -231,-269 -300,-357 -74,-88 -130,-163 -181,-219 -49,-57 -106,-114 -167,-176 -69,-57 -149,-144 -245,-264 -98,-112 -141,-206 -136,-275 7,-74 0,-137 -30,-193 -31,-57 -100,-114 -200,-176 -100,-63 -281,-133 -537,-215l137 -62 -685 -947 -643 -777 -524 -101 1057 -491 4466 393c49,219 254,576 616,1070 369,496 774,1016 1228,1568 456,551 893,1078 1316,1586 424,514 724,872 898,1084l1148 1386c131,157 231,243 300,269 68,25 163,113 293,269l-2908 2308 -546 406 -582 530c-132,81 -233,193 -295,343 -70,156 -133,257 -189,306 -101,82 -350,94 -751,36 -406,-57 -844,-121 -1326,-192 -482,-69 -943,-127 -1387,-165 -439,-46 -752,-2 -939,122 -56,-182 -156,-238 -293,-175 -139,67 -302,162 -495,286l3088 314 1074 1353 31 -24 36 168zm-726 -11874l-144 -175 -175 143 319 32zm326 1627l-167 -199 -151 174 318 25zm287 352l-143 -176 -175 143 318 33zm684 -474l-325 24 125 144 200 -168zm2107 22769l-262 211 261 82 58 -49 -57 -244zm375 -312l-294 237 232 101 62 -338zm313 32l32 -319 -262 213 230 106zm-5309 4346l-319 24 143 176 176 -200zm514 -373l-169 143 312 26 -143 -169zm903 -505l50 -287 -257 217 207 70zm695 -574l51 -289 -257 220 206 69zm2106 -1746l51 -288 -288 237 237 51zm114 -338l295 1 -7 -238 -288 237zm346 -286l255 76 1 -294 -256 218zm-3845 3474l-176 144 319 32 -143 -176zm4763 -3654l32 -319 -256 219 224 100zm351 -286l26 -319 -288 243 262 76zm346 -581l-257 212 345 7 -88 -219zm-5141 4553l-176 144 319 32 -143 -176zm953 -792l-262 219 318 31 -56 -250zm4532 -3753l-256 211 319 32 -63 -243zm-5029 4747l-111 -194 -202 168 313 26zm783 -643l58 -343 -288 242 230 101zm3148 -2612l33 -313 -290 236 257 77zm407 -331l-118 -201 -201 169 319 32zm288 -243l58 -338 -321 262 263 76zm690 -574l63 -344 -287 243 224 101zm-11502 -3232c18,213 44,400 87,563 37,162 199,207 493,127l286 932 288 -237 148 945 -947 737 224 737 425 45c-62,244 -52,412 30,507 80,94 256,214 531,346l245 -351 99 63 -214 563 238 288c112,171 230,220 362,146l-144 -176 258 -219 24 326 369 89 -1348 1259 -993 -1077 -262 -320 -1121 -1411 -338 -352c-281,-256 -374,-438 -299,-537 82,-93 220,-226 414,-387 58,-44 195,-175 407,-387 214,-212 358,-313 428,-306l-425 -576c-368,-439 -704,-828 -1010,-1160 -306,-326 -618,-684 -943,-1072 -267,-326 -561,-709 -873,-1147 -317,-439 -629,-802 -941,-1097l-287 -351 -311 -376 -262 -314 -287 -351 -288 -345 -286 -344 -287 -351 -287 -345 -287 -345 -287 -345 -286 -351c-101,-81 -144,-169 -126,-262 21,-94 -118,-170 -418,-214l-821 780c-44,-63 -76,-38 -88,68 -18,50 -31,94 -38,131 -256,-75 -430,-145 -525,-196 -93,-55 -143,-106 -156,-161 -12,-58 -36,-127 -74,-207 -37,-82 -131,-195 -280,-333l-556 -608c-18,-143 -37,-231 -43,-263 -6,-26 -12,-37 -32,-36 -18,-9 -44,-7 -80,-14 -38,0 -93,-50 -175,-143l-1061 -1168 463 -436 1154 -904 2000 -1709 81 -19 3097 -2663 3235 -2632 107 -43 1278 -1105 113 -44 1342 -1260 13 -154 1378 1485 -112 92 -396 232 1 -588 -513 673 -63 -243 -840 749 -112 36c-151,131 -207,181 -157,162 45,-24 63,1 57,70l-402 42 -420 787 99 64 -175 142c-119,-62 -194,-112 -236,-144 -44,-24 -121,6 -239,100 -94,81 -113,144 -58,193 57,51 13,138 -144,270 -75,62 -182,55 -319,-32l-927 822 18 82 -375 18 -334 711 -167 -150 -290 245 -183 486 -299 -189 -95 469 -232 194 -61 -243c-264,186 -533,404 -804,641 -269,243 -445,494 -526,750l-395 -64 -358 744 -330 -164 -390 763 -275 -215 -452 568 -350 51 -346 523 -382 75 -1 343 -700 388c35,361 60,587 78,687 18,101 37,150 69,144 25,-12 69,-25 138,-43 62,-19 155,44 287,200 31,38 44,108 44,201 0,101 -1,187 -8,258l518 150c19,144 57,282 107,400 55,121 199,126 438,27l-106 -595 313 425 287 3 176 -439 43 408 325 212 351 -285c49,180 105,294 149,331 50,43 113,56 187,44 69,-6 150,-32 232,-68 81,-38 175,-31 275,13l-83 362 520 102c-51,175 -62,300 -46,381 19,88 51,150 89,201 37,44 93,101 156,156 68,64 119,157 161,282l257 -211 -131 306 705 733 498 603 392 650 264 -218 341 889 132 38 169 -143 217 845 313 -212 260 907 364 -156 -62 51 186 626 256 -212c55,375 111,601 168,663 56,69 262,165 624,290l-112 43 330 752 281 -187zm-4952 -10565l217 262 339 -530 370 88 102 -524 525 50 -502 512 -81 76 -521 429c156,189 231,295 205,315 -19,11 38,118 163,306l674 751 1334 1675 952 -793 828 -829 646 -631 2820 3460 -421 200 -12 -426 -201 169 -105 -307 -287 -394 -192 -526 -131 12 -320 267 72 -743 -500 -365 -133 600 -232 -100 89 -76 -188 -280 -390 711c-207,-57 -344,-64 -406,-25 -70,37 -112,98 -138,186 -25,88 -50,195 -70,326 -25,130 -95,262 -213,393 -37,-131 -56,-213 -43,-256 13,-44 -19,-114 -100,-214 -31,-37 -87,-61 -163,-82 -81,-13 -144,-30 -193,-56l-177 731 -199 -763 -495 217c-43,-125 -61,-192 -61,-192 0,0 -44,-45 -124,-146 -125,-150 -232,-169 -314,-50 -82,112 -144,224 -188,324 -38,-163 -49,-275 -37,-337 12,-57 25,-126 32,-195 6,-68 -12,-168 -67,-287 -50,-120 -175,-320 -382,-607l-63 393 -161 -550 -349 -540 -226 381 -141 -1001 -345 237 -131 -626 -374 17 8 -637zm1748 -1303c50,25 100,50 137,82 45,30 100,13 182,-50 132,-113 201,-199 195,-262 0,-63 -25,-138 -69,-232l439 -118 400 -336 83 -312c94,-13 163,-13 212,-7 57,1 132,-37 226,-111l88 -76c94,-81 144,-156 152,-224 4,-70 5,-125 -8,-163 -18,-38 -17,-44 0,-26 19,20 81,64 201,125l319 -260c112,-94 169,-194 170,-294 0,-94 38,-200 101,-318l193 225 370 -600 150 170 432 -356 863 453 283 -481 -89 368 593 239 -263 213 363 439 243 -63 231 101c-43,106 -81,194 -107,262 -18,70 26,170 138,301 43,63 93,76 136,57 51,-26 107,-31 176,-25l-143 -175 176 -144 54 245 590 -344 -101 -5 39 -426 225 157 532 -299 -224 -445 264 -219 42 351c183,-55 276,-137 277,-255 6,-113 -24,-239 -81,-364 -62,-131 -136,-256 -217,-381 -88,-125 -120,-226 -94,-313l986 1128c-75,30 -126,38 -151,25 -25,-6 -36,-12 -36,-12 0,0 -7,4 -26,23 -19,13 -69,57 -144,120l-264 211 -607 506 -691 574c-55,49 -144,150 -256,311 -112,156 -233,293 -358,418 -125,119 -263,213 -400,280 -139,70 -264,37 -376,-100 -243,-250 -418,-457 -530,-608 -113,-157 -287,-357 -531,-607l-885 -1073 -1102 968 -691 572 -695 574 -835 937 -482 298 195 -649zm9874 13498l-287 243c69,6 137,26 194,57 61,32 106,32 150,1 169,-144 220,-243 144,-294 -74,-50 -131,-156 -169,-319l-288 238 256 74zm-5150 -4210l1049 1085 263 320 54 244 351 7 1097 -967 2196 2764 261 370 68 88c50,56 125,131 232,220 105,93 186,150 236,169l-2188 1771 15 -457 230 108 684 -768 346 -818c-18,-214 -24,-389 -17,-520 0,-131 -125,-195 -375,-183l-329 -751 -289 243 -161 -845 -131 18 -294 2527c-94,-113 -143,-295 -149,-532 -6,-237 7,-500 33,-782 26,-281 58,-550 90,-807 32,-249 58,-450 71,-594l-452 280 -82 313 -149 -413 -375 19 -228 1305 -131 -38c30,-118 56,-337 75,-644 20,-306 -16,-519 -117,-637l-230 -101 -122 737 -231 -100c170,-306 190,-551 59,-731 -137,-183 -275,-396 -411,-640 -95,275 -121,438 -84,487 38,51 -61,44 -306,-11l271 -564 -411 -495 -188 -282 -301 399 70 -794zm-8453 -1911c-160,-155 -261,-275 -299,-356 -36,-88 -80,-144 -142,-175 -57,-32 -150,-58 -276,-64 -118,-13 -343,-33 -656,-64 -251,-26 -420,-14 -526,17 -99,38 -188,63 -269,80 -82,19 -169,6 -262,-49 -95,-51 -238,-176 -432,-371l558 -30 978 -1005 555 615 256 370 286 344 287 352 287 344 474 633 -819 -641zm7255 1107l89 -1006 182 -194 25 564 350 -344 314 -499 31 269 446 -468 245 -695 18 426 445 -224 -1688 1548 -44 476 -413 147zm2886 -13798l-20 794 -212 -19c1,-193 1,-349 -5,-476 -6,-124 94,-274 307,-454l-411 -440 -265 219 16 -695 243 -55 0 294c13,19 74,68 175,150 99,81 169,151 217,206 0,0 32,76 88,220 24,76 68,144 112,201l-245 55zm1282 20477c99,313 155,476 168,494 18,20 -70,108 -264,269 -113,63 -212,143 -288,237 -82,100 -201,168 -371,205l110 -1107 286 639 359 -737zm-4128 -7979c101,-150 170,-420 209,-807 32,-389 27,-657 -28,-801l224 -193c-6,69 -6,194 -7,368 0,182 -7,376 -27,589 -19,213 -38,406 -51,582 -19,176 -50,294 -89,362l-231 -100zm920 -179c-118,-226 -181,-445 -193,-646 -4,-206 89,-406 284,-600 -118,-262 -168,-400 -149,-412 19,-19 100,-100 239,-243 -2,194 4,349 10,475 6,125 -20,294 -75,500 -58,207 -70,356 -45,450 30,95 6,251 -71,476zm-5844 3232c-120,-220 -268,-408 -436,-558 -176,-151 -243,-339 -206,-564l244 289c125,149 175,213 144,169 -32,-38 -6,-62 87,-68 37,161 31,212 -19,156 -45,-57 0,0 143,176 50,55 75,86 75,86 0,0 26,-24 87,-75 38,163 32,219 -18,163 -45,-62 0,0 142,169 51,57 89,76 121,51 24,-25 43,-38 55,-44 6,-11 13,7 13,38 -6,37 -26,132 -58,287l-374 -275zm5464 -819c-32,-113 -32,-256 1,-437 25,-189 38,-314 43,-382l-198 -125 -13 -137c51,-13 131,23 243,119 107,87 207,188 300,307 100,112 174,224 225,325 49,100 62,169 17,200l-125 -37 -130 -333 -363 500zm2756 -14368l-212 -75 7 -344 269 -32 305 720 -376 75 7 -344zm-7795 15519c156,1 249,-5 281,-12 25,-7 38,0 37,19 1,19 -12,50 -25,88 -13,43 25,113 100,212 50,58 76,88 76,88 0,0 29,-24 86,-74 37,162 31,219 -13,156 -50,-57 0,0 144,175l226 101 -114 388 -798 -1141zm2294 3121c-31,-107 -50,-175 -75,-207 -25,-31 -51,-50 -75,-56 -25,-13 -50,-38 -63,-75 -12,-38 -5,-119 27,-238 142,138 287,264 430,370 137,113 112,250 -83,406l-313 268c-80,-131 -118,-206 -112,-224 0,-19 13,-31 44,-38 25,-7 63,-12 106,-19 44,0 82,-68 114,-187zm1731 -7141c-6,-124 -5,-212 -5,-261 6,-56 12,-100 13,-138 6,-32 6,-68 12,-100 1,-37 -17,-101 -62,-194l289 -236 -144 -176 176 -143 13 131 174 101c-120,161 -201,311 -239,442 -38,124 -57,276 -57,432l-170 142zm4162 6493c2,-195 26,-370 77,-526 51,-155 26,-326 -61,-512l263 -213c37,163 30,332 -20,500 -57,176 -45,345 30,514l-289 237zm-1878 -19253l45 -475c-130,-82 -199,-113 -193,-82 7,24 39,-50 88,-219l493 414 13 188 -446 174zm1790 2512c107,-149 150,-280 132,-399 -13,-118 -25,-257 -23,-420 155,2 249,21 268,70 24,44 49,125 74,233l-175 143 -14 450 -262 -77zm-8459 8135l193 -61 201 126 -183 250 -81 -38 -130 -277zm10273 8929l288 107c-88,131 -120,226 -107,281 13,57 19,108 23,150 7,44 -11,95 -42,157 -32,57 -114,143 -252,255l90 -950zm-4183 -3107c18,175 17,338 5,476 -13,143 -88,287 -226,431 20,-176 33,-358 40,-538 6,-188 19,-369 38,-545l143 176zm3538 3205l272 -612 205 69c-56,213 -106,337 -145,388 -37,51 -105,162 -188,331l-144 -176zm-16160 -8729l-287 -352 -207 -68 -5 -188 269 -31c38,163 38,214 0,151 -38,-69 7,-26 131,130 32,39 68,57 100,64 19,19 50,38 101,63l66 432 -168 -201zm-2414 -2677l470 -199 -107 632 -363 -433zm15447 4054c-75,-131 -119,-225 -130,-281 -13,-49 -19,-100 -13,-131 1,-38 7,-70 7,-107 7,-37 -6,-107 -31,-219l256 -211 -89 949zm-694 7155c-61,-113 -99,-187 -112,-226 -12,-37 -18,-68 -19,-105 7,-38 13,-76 26,-119 12,-44 0,-125 -44,-256l245 -57 -96 763zm-711 -8329l140 -355 150 -175 -122 976 -168 -446zm1656 1119l212 -37 18 -156 213 257 -38 131 -193 62 -212 -257zm-4014 -8130l186 44c0,158 0,257 0,294 -6,32 -88,132 -246,294l60 -632zm-2326 6656c-57,-150 -80,-249 -61,-312 13,-63 94,-157 250,-281l-32 607 -157 -14zm3535 4676c-6,-163 1,-275 13,-331 20,-63 94,-169 233,-313l-39 664 -207 -20zm-1107 -2743c32,-125 44,-199 51,-238 0,-31 7,-62 6,-74 1,-20 26,-44 63,-75 39,-31 94,-99 176,-200 -12,175 -21,294 -19,357 6,63 -13,175 -45,331l-232 -101zm1562 -1297l119 -437 144 -119 -1 639 -262 -83zm3386 11669c-112,62 -176,106 -189,131 -6,24 -13,43 0,50 6,12 -6,18 -44,12 -36,0 -112,-19 -237,-50l276 -375 207 76 -13 156zm-3034 -7421c24,-124 37,-212 24,-268 -17,-51 -43,-145 -86,-270l251 -61c19,181 23,287 19,325 -2,32 -70,125 -208,274zm3040 4787l256 126c-87,138 -125,213 -131,232 0,18 5,24 25,31 18,0 19,6 -1,25 -18,12 -100,92 -238,242l89 -656zm-1323 -1242l230 101c-80,131 -118,212 -112,237 6,32 12,44 31,44 19,7 20,13 0,32 -19,13 -101,93 -238,243l89 -657zm-7912 -10253c100,-119 163,-207 193,-262 32,-64 58,-93 64,-100 12,-12 31,-6 57,5 24,8 87,21 194,34l-277 424 -231 -101zm7944 9934c-6,-163 -6,-269 0,-318 7,-57 77,-156 215,-300 35,163 48,263 36,307 -12,43 -94,148 -251,311zm-3046 -4787c-19,-180 -25,-287 -25,-324 7,-32 76,-126 214,-269l-13 449 -176 144zm-6131 -7397c138,-111 195,-175 182,-192 -18,-19 -37,-25 -63,-19 -31,6 -44,-6 -50,-32 -13,-32 57,-118 195,-262l-8 639 -256 -134zm10834 -4982l207 76 -265 268 -185 -282 231 -194 12 132zm-9319 4749c0,-157 6,-269 19,-326 12,-62 94,-167 231,-311 -30,281 -31,413 -13,393 19,-12 -55,70 -237,244zm6676 9288l4 480c-137,-205 -205,-330 -204,-368 6,-32 31,-120 82,-257l118 145zm-6972 -1001c-26,-106 -50,-169 -75,-182 -25,-5 -45,-12 -64,-17 -17,0 -24,-13 -23,-26 0,-19 25,-100 75,-238l156 19 92 457 -161 -13zm2478 -2777l281 107 -176 144 119 144 -220 87 -4 -482zm3082 2603c63,-80 95,-137 108,-161 12,-26 12,-44 6,-50 -6,-13 -19,-32 -32,-70 -17,-36 1,-124 52,-262l185 575 -319 -32zm-3506 -8346l294 0c-69,119 -101,189 -101,206 -6,20 -6,26 -6,26 0,0 0,6 -1,25 0,19 -31,87 -100,206l-86 -463zm-3234 2681c11,-175 13,-288 0,-344 -12,-56 1,-162 32,-319 137,245 199,371 193,376 -13,11 -88,106 -225,287zm11017 11475l250 -56 -20 508 -287 -108 201 -168 -144 -176zm-2368 1433l275 -80 -44 476 -263 -77 176 -150 -144 -169zm1453 -3011l10 481 -285 -106 275 -375zm-1420 -17288l11 476 -287 -107 276 -369zm-2027 14546l30 505 -306 -132 276 -373zm3362 -13410c-44,-132 -37,-219 14,-280 44,-57 119,-127 220,-207 11,218 23,300 36,256 12,-43 -75,38 -270,231zm-3129 10339l132 -258 231 102 -132 256 -231 -100zm-6147 -5477l243 233 -256 217 13 -450zm5581 6677l-68 150 -270 31 108 -283 230 102zm-6898 -5441l-14 156 -293 -2 133 -256 174 102zm9975 13267l263 -211 -45 474 -218 -263zm-7057 -11689l262 -219 -45 475 -217 -256zm9325 10545l199 419 -244 55 45 -474zm-9920 -15321c-119,-219 -175,-350 -175,-387 7,-39 20,-132 56,-288l119 675zm5372 7539c19,182 24,289 25,326 -6,31 -75,124 -214,267l189 -593zm-2493 -8119l312 133 -313 211 1 -344zm5366 -2057l250 132 -314 212 64 -344zm-4982 -4010l263 -267 56 299 -319 -32zm4037 4108c-119,-226 -175,-338 -169,-345 13,-12 57,-80 145,-218l24 563zm-6465 1366l-238 243 6 -344 232 101zm2352 7312l287 -244 -32 319 -255 -75zm4078 -12306l-289 243 32 -319 257 76zm466 1327l-263 213 32 -319 231 106zm-8526 7354l-264 268 40 -370 224 102zm7601 -7763l319 32 -257 212 -62 -244zm801 2311l262 25 -238 243 -24 -268zm-8516 3255l326 -24 -269 268 -57 -244zm2928 4887l320 26 -289 242 -31 -268zm-3072 -1891l344 7 -288 238 -56 -245zm8529 8817l269 -24 -270 268 1 -244zm-13917 -10782l319 26 -287 243 -32 -269zm15254 -3828l326 -18 -320 262 -6 -244zm-5187 10735l326 -25 -271 268 -55 -243zm631 -9876l295 1 -239 243 -56 -244zm-2081 1721l294 2 -239 242 -55 -244zm5294 -5260l318 -24 -288 238 -30 -214zm1024 18056l-313 -32 256 -213 57 245zm-6433 -6703l-344 -8 263 -268 81 276zm-4671 -3346l344 7 -231 242 -113 -249zm7021 4177l288 0 -257 212 -31 -212zm4287 -8233l318 -25 -262 268 -56 -243zm-8964 4944l-319 -32 263 -212 56 244zm7323 10890l231 -194 -87 369 -144 -175zm1639 -484l176 -143 43 400 -219 -257zm-2046 -2057l263 -218 -57 288 -206 -70zm-864 717l262 -218 -57 288 -205 -70zm2498 4073l256 -219 -51 288 -205 -69zm-8745 -14785l293 -238 -32 319 -261 -81zm4382 8111l294 -236 -32 319 -262 -83zm4794 -13324l239 -244 -32 314 -207 -70zm-5276 1451l287 -244 -57 294 -230 -50zm5850 -761l263 -213 -33 319 -230 -106zm-1313 17173l263 -218 -1 294 -262 -76zm-984 574l257 -218 -51 287 -206 -69zm-5703 -11111l290 -244 -32 319 -258 -75zm-2448 -1189l237 -243 -6 344 -231 -101zm-1316 -1593l258 -211 -28 319 -230 -108zm9409 14475l233 -194 -32 319 -201 -125zm-4361 -22019l264 -218 0 295 -264 -77zm1386 -1147l263 -218 -32 319 -231 -101zm695 -580l257 -212 0 294 -257 -82zm-6242 5177l232 -193 -2 293 -230 -100zm6932 -5751l263 -211 -33 313 -230 -102zm-3461 2875l258 -217 -32 318 -226 -101zm-2081 1722l257 -212 -25 313 -232 -101zm-720 599l288 -237 -32 319 -256 -82zm1385 -1148l288 -237 -31 313 -257 -76zm721 -598l257 -213 -26 313 -231 -100zm-2463 9257l258 -217 -32 318 -226 -101zm-1987 -986l233 -244 -26 313 -207 -69zm-1729 3035l252 -55 -58 287 -194 -232zm-304 -377l269 -23 -58 281 -211 -258zm-1441 -1729l269 -31 -50 289 -219 -258zm-860 -1040l243 -56 -25 312 -218 -256zm10577 10285l244 -56 -33 319 -211 -263zm-573 -690l268 -31 -32 319 -236 -288zm1070 -2937l244 -63 -26 320 -218 -257zm-8199 -3192l269 -31 -32 319 -237 -288zm4626 -1301l243 -57 -32 320 -211 -263zm-7189 -1790l219 -86 -27 312 -192 -226zm261 314l269 -24 -25 313 -244 -289zm12284 8294l231 101 -107 231 -124 -332zm-7173 -7950l181 -192 137 225 -318 -33zm2395 -4516l174 150 -200 168 26 -318zm2169 7612l169 151 -195 111 26 -262zm1967 -802l224 151 -225 137 1 -288zm2765 -10190l144 176 -208 168 64 -344zm-551 456l174 150 -175 143 1 -293zm-1270 -117l174 152 -199 161 25 -313zm2162 839l193 181 -225 138 32 -319zm-4675 363l144 176 -144 118 0 -294zm3267 -2413l199 181 -231 139 32 -320zm695 -279l143 169 -207 167 64 -336zm926 59l192 230 -199 112 7 -342zm-1736 1434l192 231 -226 143 34 -374zm2616 1395l169 199 -226 138 57 -337zm-2386 -3585l150 176 -207 169 57 -345zm-2803 2327l175 150 -200 163 25 -313zm4243 -591l144 170 -200 168 56 -338zm-2648 15740l225 -88 -188 306 -37 -218zm-11698 -7356c212,-18 313,-36 294,-55 -12,-19 0,56 37,219l-331 -164zm17218 8727l20 -163 168 207 -144 118 -44 -162zm-7501 -6938l199 -169 13 189 -69 150 -143 -170zm7533 6618l13 -156 144 169 -169 144 12 -157zm-11182 -3794c169,89 244,126 232,108 -18,-19 -44,62 -83,256l-149 -364zm4848 -1971c150,107 224,145 217,114 -5,-24 -31,57 -61,250l-156 -364zm4247 10127c105,-150 144,-213 112,-188 -32,25 50,51 245,88l-357 100zm-14165 -11796c157,70 225,87 207,68 -12,-17 -51,63 -101,233l-106 -301zm11276 -11151l169 202 -176 143 7 -345zm-1841 13127l-175 -151 176 -144 -1 295zm7448 6154l-201 -175 201 -169 0 344zm-3284 -15360l200 178 -176 142 -24 -320zm2555 16252l-162 -199 144 -119 18 318zm-7293 -7743l-174 -150 175 -143 -1 293zm-2985 -3954l-176 -151 201 -169 -25 320zm-134 550l295 -6 -152 175 -143 -169zm-3927 -455l107 13 -184 488 77 -501zm9717 8908l131 38 -151 462 20 -500zm-5735 -10449l176 -143 -32 313 -144 -170zm4985 10246l200 -168 -57 338 -143 -170zm4274 2158l-176 143 31 -319 145 176zm-7780 -5688l168 -143 -50 287 -118 -144zm8594 7202l176 -143 -31 313 -145 -170zm-6726 -6703l176 -142 -32 311 -144 -169zm-1089 -2024l201 -168 -58 344 -143 -176zm-1807 -2888l169 -144 -25 320 -144 -176zm9048 11215l145 -118 23 317 -168 -199zm-7984 -9222l201 -169 -57 344 -144 -175zm4100 -10805l-169 143 26 -319 143 176zm723 -894l-170 144 7 -345 163 201zm-3564 13923l169 -144 -26 319 -143 -175zm6913 -10411l176 -144 -51 287 -125 -143zm-3290 14960l-114 389 114 -389z"/>
  <path id="1" class="fil2" d="M75392 47205c-132,-168 -244,-250 -332,-244 -94,-1 -139,80 -144,237l476 7zm4928 -9134l-538 173 576 328 -38 -501zm-445 -14233l168 144 132 -317 -249 -39 -51 212zm-137 -431l-131 318 319 -99 -188 -219zm-194 -250l146 -282 -214 68 68 214zm-8781 6c-63,-350 -73,-583 -49,-701 31,-113 13,-313 -55,-607 -56,-169 -56,-288 -12,-350 44,-69 112,-106 201,-106 93,-7 186,6 287,25 94,26 182,20 250,1l4689 -1491c62,106 137,169 231,174 94,13 176,19 243,26 70,0 120,25 163,63 38,44 38,119 -6,239 200,-38 350,-44 444,-25 99,25 143,131 124,320 194,-38 345,-44 444,-24 101,18 137,124 118,313 251,-51 495,-25 738,82 245,107 462,245 663,420 200,169 386,364 555,571 175,206 318,371 437,489 88,106 124,163 112,182 -6,18 -13,24 -24,31 -13,-1 -13,25 -2,56 7,38 70,106 182,201 137,112 231,206 287,282 50,74 137,201 268,363l985 1347c195,275 356,514 500,702 137,194 274,370 399,527 131,156 268,307 407,457 137,157 293,332 466,545 214,244 393,463 543,651 150,188 293,370 432,552 137,182 266,364 392,544 125,182 287,389 486,616 281,300 568,669 867,1102 294,432 600,864 911,1302 307,439 644,852 999,1235 362,389 743,682 1155,896 625,321 1138,585 1531,793 393,199 712,407 968,614 251,214 443,470 580,783 137,307 274,745 398,1309l137 431 410 1284c19,49 81,187 193,413 113,226 186,400 224,520l223 1070c-81,0 -375,73 -894,223 -513,155 -1077,329 -1685,522 -606,192 -1188,385 -1747,572 -556,193 -920,316 -1083,367l-2647 844c-213,69 -370,126 -463,169 -87,37 -175,62 -250,62 -82,-7 -175,-32 -287,-89 -107,-55 -276,-157 -506,-294 -282,-145 -576,-308 -882,-484 -306,-175 -606,-301 -887,-364l365 2008 -9415 2959 -505 -465 -264 43c32,-169 -92,-325 -361,-475 -275,-151 -569,-296 -893,-446 -326,-146 -619,-297 -887,-447 -275,-144 -408,-288 -395,-426l-324 106 -186 -964 -137 -432 -137 -425 -137 -432 -136 -426 -137 -432 -105 -319c212,169 362,433 454,802 87,363 180,727 273,1094 87,364 205,677 355,927 143,256 386,346 731,259l420 -168 388 -132 432 -129 426 -137 431 -143c7,25 75,-6 200,-100 133,-94 232,-156 300,-175 195,-62 289,-99 283,-112 -6,-12 119,-44 362,-92l434 -137 424 -137 432 -137 395 -125 425 -137 432 -137 425 -135 433 -137 425 -137 432 -136 533 -174 -1654 -5184c-42,-144 -131,-206 -256,-195 -125,13 -269,56 -431,119 -163,68 -333,131 -508,199 -175,75 -350,93 -514,67l-158 -1482 1920 -653 120 0 3099 -1026 979 1223c-176,105 -288,180 -338,225 -56,43 -176,99 -369,154l-1071 343 206 525 105 445 137 425 124 394 137 433 137 425 341 721 174 650 69 100 274 977c99,226 161,319 187,268 18,-42 219,-111 582,-204l425 -136 432 -137 433 -137 388 -124 431 -137 432 -137 425 -137 433 -137 425 -136c76,-26 138,-55 207,-106 126,-86 225,-150 294,-169l75 -24c146,-44 395,-112 759,-205 368,-92 738,-206 1113,-336 382,-129 714,-274 995,-416 282,-139 401,-280 352,-424l-1492 -4684c-68,-218 -236,-275 -505,-176 -270,100 -489,174 -658,231l-539 167c-112,-276 -299,-582 -548,-927 -256,-337 -530,-682 -824,-1033 -293,-351 -586,-696 -873,-1022 -294,-326 -512,-614 -669,-851 -441,-645 -897,-1216 -1372,-1712 -474,-489 -923,-1077 -1348,-1754 -249,-369 -485,-677 -710,-933 -224,-257 -437,-527 -630,-802 -219,-275 -413,-534 -586,-784 -169,-245 -393,-520 -675,-827 -206,-225 -461,-514 -774,-877 -311,-357 -518,-626 -630,-802 -44,-63 -130,-200 -249,-414 -118,-212 -256,-425 -399,-638 -149,-220 -312,-401 -493,-552 -182,-156 -344,-207 -482,-163l-4581 1461 -228 1494zm5043 19896l-62 56 -1189 342 -777 167 -106 37c-118,38 -219,87 -306,156 -83,62 -175,112 -269,144l-1034 210 -194 143c-62,44 -157,89 -275,125l-857 273 -274 -738 -68 -332 -205 -526 -69 -331 -205 -526 -69 -338 -367 -1020 1396 -449 -31 -105c115,-614 166,-1308 142,-2078 -23,-769 -28,-1519 -26,-2251 20,-926 53,-1820 111,-2676 53,-858 104,-1678 143,-2448 0,-161 21,-467 40,-919 26,-455 64,-994 103,-1607 39,-619 71,-1269 104,-1945 33,-682 59,-1314 67,-1896 13,-581 16,-1069 4,-1475 -13,-401 -37,-638 -86,-701l1670 -572 1189 -342 1491 -516 1010 1691 -319 100 -270 -463c-99,-76 -156,-120 -161,-146 -8,-24 -88,-11 -226,31 -76,26 -106,64 -106,113 6,50 -82,132 -257,238l-6 -388 -615 668 -136 -431 -458 661 -105 -326 -108 -81 -926 1043 32 -401 -540 525 88 288 211 -69 -382 1263 406 -92 -478 1456 150 106 314 -493 93 49 -403 839 -162 -26 419 457c-194,218 -307,413 -345,581 -39,169 -20,400 41,694l170 -212 213 170c-182,87 -309,194 -365,337 -63,137 -95,300 -101,481 -6,188 -13,395 -20,619 -6,226 -58,444 -145,657l306 214c-106,168 -188,393 -239,687 -49,294 -14,587 110,896l-281 480 305 219c-82,231 -150,451 -201,656 -57,200 -51,395 12,583l175 180 -272 758 439 -218 -440 1087 93 49 288 -210 -484 1449 319 258 -366 944 269 225c-63,131 -125,281 -170,450 -50,175 -57,331 -7,475 6,26 51,64 131,113 82,57 144,101 182,145l-315 731 400 -94 -163 720 -271 131 158 -369 -474 -1 -284 599 -180 -456 -326 344c180,151 274,301 280,444 7,138 -19,364 -83,669l358 -112 -164 727 355 -120 -144 407 357 120 319 -218 -69 -102 251 -192 30 343 1184 -498 344 -149 307 100 519 -361 344 89c239,-156 407,-306 508,-437 100,-138 176,-280 220,-426 44,-149 82,-293 120,-431 31,-144 112,-300 245,-475l99 326c-133,169 -201,305 -208,400 -6,93 -13,176 0,238 7,63 -13,118 -44,168 -38,51 -150,119 -332,207 131,87 238,113 319,75 82,-44 150,-106 219,-186 63,-89 120,-195 176,-313 50,-126 113,-238 189,-338l-58 688 93 50 734 -906 -233 626 238 118 -1691 623zm12157 -4115l394 -244 -55 -174 -182 173 -212 69 55 176zm609 -312l179 64c89,-132 139,-220 158,-251 12,-32 0,-157 -43,-377l-245 351 -49 213zm-126 -395l339 -537 -225 -89 -339 663 81 252 319 -107 -175 -182zm-130 -782l-218 69c-245,287 -371,505 -365,650 6,137 -32,369 -115,681l-281 -26 -49 214 356 -114c119,-36 206,-92 264,-161l408 -1313zm245 38l-24 -581c-151,99 -226,137 -219,111 0,-31 49,19 143,151l-213 68 68 213 245 38zm-6006 182l-408 212 188 212 220 -424zm6573 226l199 883 -426 136 -550 137 -989 235 -820 261 -858 274 -858 274 -106 37 -2485 988 -367 -907 -168 -419 -137 -426 -137 -432c-25,-68 -19,-119 13,-144 31,-19 49,-37 62,-37 13,-6 8,-6 -24,-12 -25,-7 -113,-38 -264,-95 32,-144 58,-231 71,-275 12,-44 19,-70 19,-70 0,0 -20,-6 -51,-24 -30,-12 -62,-82 -99,-200l-131 -395c-63,-112 -80,-189 -56,-237 26,-45 -62,-182 -268,-407l156 -251c170,32 220,57 145,75 -68,26 0,0 213,-68l325 -99 1121 -554 39 -132 -725 -796 -62 62c12,-137 -81,-324 -275,-563 -200,-239 -356,-432 -480,-576 -138,-187 -256,-300 -337,-326 -88,-25 -302,18 -632,124l-326 105 -845 304 652 -917 -101 544 515 -356 -39 245 432 -137 301 -525 319 -107 -232 508 500 -44c137,350 275,463 400,326 132,-131 245,-281 351,-442l213 168 -377 551 463 -143 93 44 -81 342 469 8 93 407 451 -187 -221 545c188,93 319,187 382,269 70,87 112,157 131,220 19,55 50,94 93,106 44,13 150,6 326,-25l-158 363 457 208 66 575 -249 -44 -113 392 -413 -182 -551 487 -175 -175 -351 268c175,207 75,382 -301,526l137 431 137 432 99 319 325 -105 -288 213 100 324 324 -105 -119 743 1027 -366 268 -281 -49 213 425 -137 352 -506 262 -163 -221 545 571 -181 414 -918 -137 -76 287 -93 -200 856 -95 -49 57 175 489 -194 -82 -250c157,0 262,-68 307,-219 44,-143 82,-293 114,-443 26,-156 69,-281 131,-381 64,-101 176,-81 351,45l-390 875 -326 336 582 -143 -57 -181 182 -56c164,-549 348,-987 541,-1312 201,-331 378,-750 522,-1269l728 1653zm-13855 -6134l871 -242 313 -137 1013 -405 427 -136 538 -168 -3007 -4004 -71 532 -150 12 -67 -451 -464 144c170,-207 288,-338 365,-388 74,-55 75,-237 1,-556l344 -31 505 351 106 207 277 -250 143 76 -88 344 824 602 218 444 464 -386c-32,144 -75,256 -126,337 -50,81 -63,182 -19,300 18,76 80,119 181,138 100,26 176,51 243,83l-20 437 370 -74 99 676 420 -412 -121 863 588 -262 -219 424 387 227 -126 356 544 220 -120 357 508 -6c-107,244 -209,362 -302,349 -93,-5 -225,19 -393,69 -140,44 -233,100 -283,169 -43,68 -93,175 -151,325l-319 -140 -206 344c-187,-175 -325,-250 -425,-219 -94,30 -220,136 -370,318l-31 -107 -1009 555 70 94 -99 -319 -578 537 -211 -408 -508 875 -119 0 282 -844 131 39c-112,-201 -206,-295 -268,-290 -63,8 -175,95 -332,251l-293 -421 89 -581 174 182zm-792 5290l320 -732 -476 230 371 -548 151 -639 399 265c-94,112 -176,287 -244,531 -63,244 -108,506 -121,787 -13,282 -14,571 -2,865 19,298 42,543 80,744l1814 -616c102,232 169,350 213,363 44,12 87,132 131,351l440 1633 68 332 717 1747 -845 66 338 -418 -30 -224 113 0 -313 -495c-6,-101 0,-169 14,-201 18,-31 6,-106 -32,-224 -30,-95 -125,-145 -281,-146l89 -700c-156,0 -255,-13 -306,-37 -44,-26 -62,-69 -37,-126 19,-62 44,-125 70,-200 31,-74 23,-176 -13,-294 -38,-119 -93,-157 -175,-119 -81,36 -137,74 -182,119l-162 -152 -620 281 -581 -89 80 131 -338 419 214 -694 -318 -138 -158 130 -242 -395c-170,213 -264,383 -276,501 -13,125 -113,105 -288,-43l768 -1663 -213 -169 -137 -433zm11117 -3422l-420 -220 0 -239c176,50 332,157 475,320 144,163 287,333 419,501 130,163 255,339 375,508 124,169 243,288 374,352 187,99 399,100 644,-6 244,-106 394,-150 444,-143 87,25 169,114 243,258 75,150 124,300 163,456 37,164 68,326 81,487 10,170 17,283 4,339l-250 -45 -678 1445 -144 -76 798 -1830 -144 -70 -596 974 -107 -81 258 -675 -75 -250 -499 161c6,-137 0,-232 -18,-294 -20,-56 -125,-57 -314,5 -50,12 -131,139 -256,375 -120,238 -120,413 -9,533l-318 105 114 -751 415 -800 -283 93 -147 -700 -573 1043 -212 -169 597 -975 -294 -63 -67 -568zm-9834 -2931c-7,-25 -6,-106 5,-237 8,-137 15,-281 15,-438 0,-162 7,-306 19,-445 8,-131 14,-212 1,-231 13,-137 7,-331 -12,-587 -12,-263 46,-463 183,-613l1678 2180c-212,69 -419,149 -632,242 -206,95 -395,169 -576,225 -181,55 -325,86 -444,86 -119,-6 -200,-63 -237,-182zm5958 -1820c38,38 162,170 363,395 205,226 411,464 624,726 218,257 418,502 611,733 187,227 299,352 331,364 63,114 181,258 356,440 174,181 355,375 543,595 186,212 348,419 474,614 131,200 180,338 154,425l-211 -51 -428 532c33,-170 83,-306 164,-425 82,-118 102,-251 51,-395 -18,-68 -61,-100 -124,-93 -69,6 -132,-7 -195,-38l9 -476 -95 -49 -471 742 -6 119 -206 -287 508 -756c-38,-38 -87,-83 -144,-133 -48,-43 -149,-49 -293,-1 -51,13 -106,82 -170,213 -62,125 -113,218 -144,282l-106 -88 257 -550 137 69 -167 -533c-194,220 -283,357 -264,419 19,57 -62,13 -237,-144l81 12 151 -636 -406 92 125 -357 -474 -363 -168 -538 -401 599 189 -882 -463 24 45 -600zm-13135 11551l144 -399c313,-26 583,-68 827,-149 237,-75 457,-249 658,-524 19,150 37,263 50,339 5,74 -70,142 -239,191l-106 39 -1146 479 235 1107 -423 -1083zm17195 -2527l897 -1745 -111 -119 395 -243 55 176c-56,74 -132,199 -212,386 -89,182 -183,381 -284,600 -100,212 -200,431 -301,650 -106,213 -195,375 -264,474l-175 -179zm-486 -1028l-174 -182 363 -706 294 63c-56,150 -106,257 -155,307 -51,55 -96,106 -134,143 -37,37 -61,100 -63,174 0,82 26,201 82,369l220 -305c55,194 61,331 17,431 -50,95 -119,207 -208,338l-105 -319 -394 242 257 -555zm-10116 -8511l125 38 -106 389 110 1225 -364 -44 164 -957 -368 81 439 -732zm3040 6082c95,-32 150,-56 169,-75 26,-20 38,-45 38,-69 7,-31 25,-63 68,-107 38,-36 139,-93 302,-167l30 343 -564 219 -118 -1c-188,55 -288,99 -293,112 -13,19 -71,68 -170,151 -281,35 -433,85 -470,149 -31,61 -149,25 -350,-121l751 -243 488 -191 119 0zm-8002 -2376c83,-231 108,-493 83,-774 -25,-281 33,-508 158,-682l68 219c-50,249 -57,493 -19,731 36,238 -7,444 -140,620l162 143 -182 176 -130 -433zm115 1858c44,220 68,382 75,482 12,107 -46,226 -158,369 213,250 187,532 -84,857l33 -525 -131 -156 188 -533 -168 -144 245 -350zm14004 931c488,-207 670,-580 546,-1118l326 -107c-82,319 -138,525 -157,619 -19,101 -44,181 -63,238 -20,62 -69,132 -151,206 -81,81 -214,238 -396,481l-105 -319zm-5510 -9508l-93 -288 -106 -82 182 -61 630 865 56 180 -327 99 -30 -462 -338 -89 26 -162zm2553 3202l-470 -8 157 -369 -105 -199 393 113 -38 250 418 338 -13 201 -131 -38 -194 137 -17 -425zm-5719 6632c156,0 205,12 144,31 -58,19 5,-6 200,-62l751 -242c-63,149 -226,274 -495,375 -269,99 -476,172 -620,217l-319 99c68,-182 100,-262 75,-238 -18,18 51,26 213,31l51 -211zm-5078 -7524c-61,-269 -72,-506 -35,-719 39,-207 -6,-383 -130,-526l257 -318c36,275 55,563 61,870 -2,299 -51,532 -153,693zm9498 5956c55,-149 118,-344 193,-576 70,-230 121,-418 151,-562l290 -93 -403 837 162 145 -181 299 -212 -50zm4677 3313c-12,107 -95,307 -245,588 -145,281 -257,462 -339,543 -56,-268 -36,-470 70,-594 107,-125 195,-319 269,-575l245 38zm-9728 -5563l38 -130 -200 -251c57,-150 107,-288 151,-406 38,-119 126,-226 251,-313l-114 625c150,213 130,444 -57,688l-69 -213zm5912 -113c-56,150 -88,245 -101,288 -12,44 -125,113 -333,206l201 131c-75,99 -119,169 -132,200 -18,32 -31,56 -37,69 -7,18 -39,31 -81,50 -50,13 -133,50 -239,112 81,-237 145,-412 202,-537 51,-119 156,-275 307,-450l213 -69zm-4903 8454l-219 68 213 170 -358 111c38,282 50,419 37,427 -13,-2 -107,49 -294,129 37,-138 75,-268 113,-387 45,-119 113,-218 220,-306l-175 -182 394 -243 69 213zm-5538 -13792l138 -557 -168 -144 182 -176 211 170 -176 568 168 146 -181 175 -174 -182zm-107 2634l138 -558 -167 -144 218 -187 163 144 -139 557 131 156 -181 176 -163 -144zm16245 9197c51,-175 108,-350 183,-532 76,-180 182,-330 326,-454 -43,274 -63,467 -69,574 -7,106 -95,263 -265,474l-175 -62zm-4905 -5133c150,-101 238,-194 262,-281 26,-88 51,-157 70,-219 19,-55 50,-119 93,-188 45,-69 164,-144 345,-224l-553 1118 -217 -206zm-3357 -7558l38 -363 -468 -364 50 -212 250 39 -74 262 392 106 89 289 -26 168 -251 75zm-4985 18093c25,-163 57,-275 88,-338 31,-62 69,-119 107,-155 44,-38 68,-88 75,-139 6,-55 19,-157 25,-288 138,7 207,1 214,-23 0,-31 0,-44 -13,-38 -13,0 -19,26 -19,62 0,44 44,126 137,251 -81,80 -125,137 -144,169 -19,30 -26,55 -38,68 -6,19 -25,38 -56,57 -38,25 -113,55 -232,93l176 182 -320 99zm-482 -2997c269,-212 420,-500 439,-844l251 38c-89,238 -163,380 -233,444 -74,63 -137,225 -188,475l-269 -113zm-2010 -16926l-77 619c94,127 131,183 106,163 -17,-25 -81,38 -193,181l-107 -88 77 -613 -125 -155 182 -175 137 68zm5911 127l63 -414 -174 -182 107 -150 212 51 69 450 148 106 -425 139zm8113 14823c233,-101 339,-169 326,-200 -13,-38 63,-145 214,-325l175 181 -214 68 69 214c-119,37 -200,62 -232,73 -37,13 -57,26 -68,39 -6,18 -19,43 -38,75 -12,31 -57,93 -131,199l-101 -324zm-10815 177c-57,231 -114,368 -164,412 -56,38 -63,188 -38,444l-251 -45 114 -268 -131 -157 218 -67 -68 -213 320 -106zm2317 1587l-137 -194 319 -99 -190 887 -211 -50 219 -544zm8009 -7239c-26,245 -39,399 -26,463 7,62 -94,149 -288,267l65 -650 249 -80zm289 6325l148 112 -269 638 -233 -7 354 -743zm-326 -3241c157,-76 231,-132 225,-150 -6,-26 -25,-38 -49,-45 -31,-6 -38,-13 -32,-31 6,-11 113,-68 326,-161l-220 424 162 145 -312 137 -100 -319zm-14305 2078l-67 -332c100,-86 156,-124 163,-112 0,13 0,24 -6,43 -14,13 -19,19 -38,7 -19,-6 6,-81 63,-231l67 212 113 356 -157 131 -138 -74zm8119 -11219l-151 -106 259 -556 263 -43 -371 705zm4126 3925l-124 -156 306 -137 -57 175 163 144 -195 261 -200 -12 107 -275zm1092 7372l326 -456 175 182c-99,87 -163,131 -175,131 -7,6 -13,19 -7,42 13,26 6,51 -12,83 -13,29 -58,99 -132,198l-175 -180zm1787 -2180l176 -56 -175 -181 356 -119 -69 144 162 144 -237 118 55 176 -212 -51 -56 -175zm-5550 -2332c32,-138 70,-270 114,-388 39,-119 119,-237 238,-349 -6,131 -7,237 6,313 12,74 6,131 0,175 -13,43 -45,81 -89,105 -43,32 -131,75 -269,144zm4747 304l163 143c-51,176 -100,289 -150,344 -45,51 -158,132 -333,245l320 -732zm-14373 2610l221 -663 41 501 138 193 -175 175 -225 -206zm11727 -5475l-326 463 -119 -119 271 -519 174 175zm1109 8316c57,-256 70,-413 51,-469 -19,-62 88,-138 319,-237l-176 444 169 144 -363 118zm-5571 1539l69 214 -188 532 -245 -38 364 -708zm3571 -7835l324 -457c75,238 100,369 63,394 -32,19 -89,112 -170,268l-217 -205zm-3266 -8885c0,-155 -13,-250 -32,-281 -24,-37 -43,-50 -56,-43 -13,0 -5,13 12,37 20,19 83,-18 189,-100l255 307 18 194 -386 -114zm-7599 14473l219 -539 69 214 30 344 -106 150 -212 -169zm14980 -1940l-152 -106 195 -494 238 0 -281 600zm-3996 -4750l150 107 -195 500 -236 -7 281 -600zm-6632 -7576c86,-51 143,-81 168,-94 26,-6 37,-12 37,-12 0,0 2,-19 2,-57 -2,-36 6,-124 11,-262l251 38 -245 594 -224 -207zm5348 3182c48,245 67,383 54,413 -17,31 -68,113 -156,250l-187 -100 289 -563zm5987 8407l182 -55 -57 -175 251 -80 87 280 -244 81 -139 200 -80 -251zm-11408 -6760c30,-139 69,-238 107,-287 31,-50 144,-120 325,-206l-289 568 -143 -75zm3196 -5786l55 300 -343 269 106 -389 -69 -219 251 39zm8207 14874l263 -45 -233 508 -200 -14 170 -449zm-9389 3151c62,-125 106,-193 132,-199 25,-7 31,0 19,12 -7,18 -13,26 -26,31 -13,0 -19,-75 -18,-231l326 -105 -233 505 -200 -13zm5668 -9884l-143 -69 139 -437 262 -44 -258 550zm-7622 -1429c63,-126 106,-213 132,-256 25,-50 44,-138 50,-276l251 39c-82,162 -126,256 -125,300 -1,37 -101,105 -308,193zm-1851 8904c-19,-232 -25,-400 -6,-514 20,-105 133,-212 339,-299l-333 813zm6738 -9632c70,-100 114,-169 132,-200 20,-32 31,-56 56,-75 19,-19 44,-38 82,-50 38,-12 112,-38 231,-74l-289 568 -212 -169zm462 -2626l-230 -483 26 -163 417 571 -213 75zm1067 4461c75,-100 119,-174 144,-224 26,-44 45,-87 64,-119 17,-31 30,-63 49,-94 13,-30 63,-87 144,-161l-226 780 -175 -182zm-10666 6077l165 -600 56 175 30 345 -144 169 -107 -89zm10255 -9842l-25 -195 250 39 175 538 -400 -382zm-5487 11947c-49,176 -81,276 -100,307 -19,31 -125,106 -326,224l176 -450 250 -81zm9908 -1780l262 -44 -170 450 -262 44 170 -450zm-2732 -4246l219 -426 150 107 -301 532 -68 -213zm-2064 -6236l-68 -338 0 -118 418 576 -350 -120zm-1571 260c32,-137 64,-238 101,-287 38,-50 151,-107 345,-168 -76,106 -120,175 -133,218 -13,44 -18,75 -30,88 -7,17 -25,32 -64,43 -37,12 -112,50 -219,106zm3336 2447l-170 444c-69,-213 -93,-332 -80,-363 18,-33 75,-132 181,-301l69 220zm-6783 -2136l358 -111 -51 331 -214 70 -93 -290zm-454 -1426l-1 626 -293 -64 294 -562zm8226 6041c69,213 94,344 69,394 -26,43 -145,107 -364,174l295 -568zm-5441 1971l213 170 -249 81 80 243 -262 -69 218 -425zm7305 4131c-31,220 -38,339 -18,363 17,19 -71,88 -270,200l112 -507 176 -56zm-2861 -7987l213 44 -39 250 -318 106 144 -400zm-11454 145l208 -700 -33 876 -175 -176zm5938 -6344c99,-86 163,-124 175,-118 17,6 19,19 11,38 -5,12 -11,19 -17,6 0,-12 25,-93 81,-243l105 319 -182 180 -173 -182zm-1999 13514l219 -68 -69 -212 245 157 -221 304 -174 -181zm9260 1972l-213 -51 289 -562 -76 613zm-4336 -11495l213 51 -183 412 -211 -169 249 -80 -68 -214zm-8773 782l183 -173 99 324 -176 175 -106 -326zm3408 1165c-12,-288 -24,-431 -24,-431 0,0 106,-44 312,-137l-288 568zm11416 9000l326 -456 -164 600 -162 -144zm-7135 -13475c19,224 25,349 19,362 -6,18 -125,50 -345,92l326 -454zm5664 14417c-88,-256 -120,-375 -95,-344 25,31 83,-18 170,-149 38,118 62,193 76,231 12,37 18,63 25,69 -2,13 -13,25 -51,38 -38,11 -82,61 -125,155zm-11737 3466c-67,-213 -99,-306 -92,-281 6,19 55,-32 144,-169 37,119 67,195 92,225 26,37 32,57 26,75 -14,13 -26,26 -51,32 -25,12 -62,49 -119,118zm1935 -7152c-81,-238 -111,-338 -98,-307 11,38 56,-25 137,-181 37,120 62,207 81,251 12,49 25,68 25,68 0,0 -13,13 -32,32 -18,18 -63,69 -113,137zm-518 5798c-74,-238 -100,-345 -81,-313 25,31 75,-32 157,-188 36,120 61,201 74,233 12,37 19,62 25,75 0,13 -13,23 -50,30 -37,13 -75,69 -125,163zm10471 -2749c6,-133 38,-213 94,-244 57,-32 144,-69 264,-106 -64,207 -83,287 -58,256 31,-37 -76,-6 -300,94zm547 -1238l182 -175 174 182 -182 174 -174 -181zm-11624 3309c75,245 111,370 118,376 -1,13 -81,76 -256,181l138 -557zm3153 20l-111 -595 180 -55 -69 650zm7018 -2944l-111 -595 182 -56 -71 651zm-9286 -13819l99 320 -317 105 218 -425zm11552 10302c-44,-226 -62,-338 -50,-344 14,-1 113,-45 295,-131l-245 475zm-11080 -8680l-243 -158 425 -255 -182 413zm-3562 -1428c32,-137 44,-238 44,-289 -6,-49 -5,-74 -5,-74 0,0 12,0 43,7 26,-1 75,-20 138,-64l-163 600 -57 -180zm9219 3841l-105 -326 287 -87 -182 413zm-5508 -4785l-149 -350 325 -100 -176 450zm6404 4024l45 -250 243 39 -37 249 -251 -38zm-6895 12834l81 -106 300 63 -206 224 -175 -181zm12279 -2495l112 -157 243 38 -68 144 -108 150 -179 -175zm-2122 -3069l-305 -102c125,-112 187,-169 206,-163 12,14 19,19 13,39 -13,12 -19,18 -20,6 -6,-13 20,-95 82,-243l24 463zm-10255 4881c-45,281 -52,395 -26,345 25,-44 -45,-19 -194,87l50 -337 170 -95zm9841 -1123c13,-138 7,-220 1,-258 -13,-36 -19,-55 -19,-55 0,0 13,6 38,6 31,6 80,-31 163,-106l-1 356 -182 57zm-5189 -13198l431 -256 -218 426 -213 -170zm-1829 7360l281 -94 -182 419 -99 -325zm5004 15l105 326 -288 87 183 -413zm1117 -1811l225 88 -169 212 -138 -193 82 -107zm-13390 11007c-183,-75 -250,-145 -201,-214 45,-68 101,-150 170,-249l31 463zm8984 -9640c55,-69 87,-118 87,-149 6,-26 12,-107 26,-238l269 106 -382 281zm-5201 -7911l237 0 -137 319 -187 -213 87 -106zm1261 -1468l468 -149 -301 293 -167 -144zm388 -398l143 -163 82 250 -145 162 -80 -249zm-1323 12907c13,125 32,220 51,275 18,63 19,101 0,118 -19,26 -45,45 -83,71 -30,18 -74,54 -138,105l170 -569zm-47 1590c-42,-227 -54,-345 -35,-364 24,-19 87,-100 199,-243l-164 607zm9436 -4266l201 13 -39 250 -236 -126 74 -137zm1860 5589c88,-56 144,-80 174,-74 26,-1 39,6 39,6 0,0 0,-17 -13,-56 -12,-31 7,-100 56,-193l62 450 -318 -133zm-14415 -4940l139 -556 -21 681 -118 -125zm3952 -8111l244 -231 -71 413 -173 -182zm-1500 17412l224 207 -368 80 144 -287zm1993 -2524l225 207 -356 112 131 -319zm-1234 -13388l212 168 -357 114 145 -282zm660 -2376l344 -156 -74 262 -270 -106zm5911 3471c-18,-231 -25,-356 -18,-368 7,-20 76,-76 201,-163l-183 531zm2871 9364l319 -106 -26 170 -118 118 -175 -182zm-6435 1814l319 -99 -62 174 -82 107 -175 -182zm-2391 -1562l355 -114 -68 139 -108 155 -179 -180zm11266 -3593l357 -112 -76 144 -106 150 -175 -182zm-11374 3868l287 -95 -37 132 -75 138 -175 -175zm1916 2418l357 -112 -63 175 -121 119 -173 -182zm7744 -6209c-19,-231 -30,-350 -37,-363 1,-12 75,-67 225,-174l-188 537zm-5714 -7674l287 144 -169 213 -118 -357zm-4945 4493c38,120 68,201 93,244 32,45 44,70 44,70 0,0 -19,6 -50,31 -32,25 -88,75 -169,156l82 -501zm302 -6592l-119 -357 250 38 -131 319zm560 12894l137 312 -280 -31 143 -281zm-1074 5027l319 -100 -143 281 -176 -181zm1715 -548l326 -98 -150 280 -176 -182zm-272 -857l326 -98 -153 279 -173 -181zm825 -260l357 -112 -181 294 -176 -182zm10872 -5551l319 -107 -107 277 -212 -170zm-13375 -191l277 -125 -101 307 -176 -182zm4074 5476l320 -99 -144 281 -176 -182zm-2268 -7586l275 112 -343 143 68 -255zm6827 -3558l238 124 -325 101 87 -225zm-7520 747l305 101 -344 150 39 -251zm467 -2237l269 112 -319 99 50 -211zm507 14449l-268 -112 307 -138 -39 250zm1783 -17898l-319 -134 356 -111 -37 245zm-227 -2053l-268 -113 355 -111 -87 224zm-3315 5898l268 114 -356 111 88 -225zm2312 12935l-275 -112 314 -137 -39 249zm-825 261l-269 -112 305 -139 -36 251zm10500 -4883l268 114 -313 137 45 -251zm-1236 1694l-282 -145 320 -107 -38 252zm-10148 -14290l269 107 -320 105 51 -212zm7941 7979l287 -86 -232 268 -55 -182zm-11118 828l106 -387 6 744 -112 -357zm3453 -9294l107 325 -252 -157 145 -168zm2461 10683l150 344 -281 -150 131 -194zm-891 7448l357 -112 -156 243 -201 -131zm3946 -8975l326 -105 -156 250 -170 -145zm-6107 -7432l325 -99 -150 281 -175 -182zm7258 5214l307 -137 -108 269 -199 -132zm-5224 3398l93 282 -269 -107 176 -175zm-2208 -6190l325 -107 -124 238 -201 -131zm-263 12015l87 288 -268 -107 181 -181zm75 -9276l319 -107 -144 289 -175 -182zm361 10285l326 -107 -150 282 -176 -175zm1586 -7517l319 -105 -114 274 -205 -169zm-797 7023l327 -99 -153 281 -174 -182zm1124 -5239l326 -105 -157 250 -169 -145zm-1883 -9250l107 326 -287 -151 180 -175zm2183 -2310l306 -136 -106 274 -200 -138zm8464 14831l326 -105 -115 274 -211 -169zm-11144 990l319 -99 -156 243 -163 -144zm8029 -10391l251 36 -157 245 -94 -281zm-4921 -6311l256 76 -157 243 -99 -319zm-5520 16053c37,125 62,199 75,238 11,31 17,56 24,69 0,13 -13,24 -50,37 -38,6 -75,63 -126,156l77 -500zm256 -9452c38,120 63,195 76,232 6,38 18,56 18,69 7,12 -13,24 -44,37 -38,13 -81,63 -131,157l81 -495zm4871 12821l120 239 -263 42 143 -281zm19 -17615l207 -99 68 213 -275 -114zm1115 -823l239 -118 48 263 -287 -145zm-1294 254l67 214 -213 68 146 -282zm3164 9196l218 -74 69 218 -287 -144zm-4232 1423l80 251 -224 30 144 -281zm-198 2346l243 -112 44 262 -287 -150zm1031 3223l112 239 -249 80 137 -319zm9362 -4722l117 239 -262 43 145 -282zm-11271 -6328l105 200 -225 30 120 -230zm853 1809l80 251 -263 49 183 -300zm2588 3789l250 -80 31 225 -281 -145zm-7241 7192c-199,-44 -287,-57 -269,-38 20,25 32,-44 32,-207l237 245zm14634 -7226l213 -67 -38 131 -107 150 -68 -214zm-6102 -7394l219 -68 -75 143 -88 107 -56 -182zm3485 2159l-80 -250 213 -69 -133 319zm-7724 8766l-69 -211 183 -63 -114 274zm9673 -4383l107 200 -219 68 112 -268zm-10421 9312l-69 -219 176 -57 -107 276zm4037 -1293l-106 -201 219 -67 -113 268zm-2945 -476l-107 -200 214 -69 -107 269zm782 -15455l268 113 -199 106 -69 -219zm8615 8362l-218 69 38 -251 180 182zm-8957 5769l251 -82 -183 300 -68 -218zm-363 -14851l182 -57 -113 269 -69 -212zm-1256 11864l212 -69 -144 281 -68 -212zm1283 -6592l213 -68 -145 281 -68 -213zm-382 -2321l212 -68 -158 250 -54 -182zm12777 9947l181 -55 -114 268 -67 -213zm-12429 -3047l174 -55 -120 230 -54 -175zm-293 5016l214 -68 -157 243 -57 -175zm4216 -5795l219 -69 -163 251 -56 -182zm3611 -1151l219 -68 -162 243 -57 -175zm-8845 3017l213 -70 -144 281 -69 -211z"/>
  <path id="2" class="fil2" d="M120801 38220l68 -257 -262 1 194 256zm-290 -381l32 -263 -257 -31 225 294zm-7840 1695c144,44 270,118 383,225 113,100 232,211 350,330 126,120 258,238 408,356 151,125 345,212 589,274 168,49 375,99 619,162 245,54 476,111 695,166 219,56 413,99 570,137 163,31 238,50 238,50l487 67 446 62c124,17 262,36 425,54 162,25 312,25 457,6 137,-19 274,-63 393,-133 125,-75 200,-207 225,-406 61,-419 111,-851 159,-1284 49,-438 86,-774 123,-1026l111 -820 61 -444c11,-100 31,-237 56,-425 24,-188 48,-374 79,-556 25,-189 31,-364 31,-526 -1,-169 -52,-294 -140,-381 -62,-82 -174,-150 -330,-194 -157,-50 -302,-93 -440,-136 -131,-44 -231,-100 -294,-175 -68,-75 -64,-181 6,-319l-257 -75 -271 -1056 161 -357 -194 -256c12,-50 25,-88 56,-106 56,-44 88,-76 88,-101 24,-175 18,-387 -27,-650 -39,-257 -89,-507 -158,-757 -69,-250 -146,-486 -227,-713 -83,-224 -151,-392 -214,-506 -233,-330 -451,-555 -665,-674 -212,-118 -420,-198 -632,-235 -208,-45 -401,-81 -588,-118 -182,-44 -339,-131 -476,-275l-18 150 -1146 -196 -445 -63 -487 -67 -444 -56 -489 -29 -651 -242 -382 26 -419 -251c475,44 907,86 1290,142 381,48 750,79 1101,91 355,12 700,-3 1051,-46 343,-39 743,-145 1193,-310 456,-163 875,-315 1256,-453 388,-138 769,-333 1157,-578 393,-276 674,-602 835,-984 169,-382 386,-720 648,-1014 -13,-252 12,-402 80,-438 69,-45 107,-163 106,-370l167 -920c37,-450 4,-871 -91,-1264 -100,-393 -258,-830 -466,-1312 -151,-376 -295,-657 -432,-855 -140,-195 -271,-363 -403,-507 -131,-143 -281,-293 -451,-443 -169,-149 -351,-350 -546,-606 368,82 713,236 1033,486 320,243 620,524 909,843 283,318 547,648 791,999 239,343 471,675 678,980 169,225 314,544 422,943 106,407 195,833 259,1271 70,437 114,868 128,1287 19,418 14,750 -24,1001l-48 369 -74 557 -50 332c-43,350 -123,614 -242,800 -111,189 -229,465 -353,828 -44,118 -126,250 -245,401 -124,144 -236,307 -348,482 -112,170 -219,327 -312,464 -93,144 -125,250 -87,330l-369 -48 100 87 -549 683c95,63 271,239 521,525 250,287 515,611 790,980 283,368 534,712 772,1031 232,324 377,536 439,648 158,326 221,582 177,765 -37,180 -74,424 -117,719 -13,124 -36,249 -67,368 -32,126 -38,252 -31,376 6,307 51,482 132,531 88,50 150,175 195,388 19,74 64,187 144,338 82,150 176,312 296,475 113,167 226,336 327,499 106,169 188,306 250,411 164,251 214,507 140,763 -75,252 -124,508 -161,753 -54,419 -104,931 -147,1531 -48,602 -116,1083 -220,1446l-62 444c-13,125 -38,201 -62,220 -31,25 -50,31 -63,32 -13,-1 -13,19 12,55 19,44 70,131 151,268 -87,64 -193,114 -325,146 -131,32 -218,45 -269,37 -200,-23 -475,-55 -839,-92 -361,-35 -725,-79 -1100,-134 -369,-50 -701,-105 -996,-173 -293,-68 -463,-137 -500,-218l-368 214c-45,-57 -239,-150 -590,-287 -345,-137 -714,-292 -1109,-473 -387,-179 -719,-385 -995,-611 -270,-224 -345,-444 -214,-655l-281 -150 92 -137c-143,-25 -300,-100 -457,-237 -156,-132 -300,-288 -433,-456 -125,-169 -225,-338 -289,-513 -62,-168 -68,-293 -6,-356 -176,-26 -333,-150 -483,-374 -145,-220 -270,-475 -384,-769 -113,-294 -188,-593 -240,-907 -43,-306 -50,-574 -20,-794l454 1688zm-7900 2407l-239 -223 -31 224 270 -1zm4879 -2475l-195 -257 -37 264 232 -7zm2279 -7262c-93,114 -62,275 101,488 164,206 283,469 365,787 75,213 107,489 95,826 -4,338 -42,558 -105,644l-106 2453c-182,-156 -245,-319 -176,-499 61,-182 86,-414 73,-689 -7,-332 -2,-563 18,-702 18,-137 18,-236 5,-298 -19,-70 -69,-107 -156,-120 -88,-13 -239,-43 -457,-99 -414,-105 -808,-211 -1172,-310 -363,-99 -719,-73 -1069,77 132,300 302,564 496,788 195,231 402,474 621,730 125,169 238,313 320,424 88,112 139,226 165,345 18,112 24,249 18,399 -5,152 -30,370 -74,670 -148,914 -276,1815 -387,2709 -110,896 -220,1777 -344,2641l-5994 -737 -101 -93 -3685 -423c-37,-132 -113,-294 -239,-488 -126,-193 -277,-399 -446,-613 -175,-210 -351,-409 -527,-597 -175,-194 -312,-356 -419,-494 -195,-255 -359,-462 -491,-619 -124,-154 -219,-299 -275,-437 -63,-130 -95,-274 -114,-431 -20,-150 -7,-362 30,-638l55 -144 117 -1119c89,87 131,231 133,437 -6,199 -18,407 -49,614 -31,212 -42,412 -42,600 0,188 56,307 176,349 50,7 212,25 487,62 270,36 564,80 870,124 314,42 595,79 858,116 255,30 400,55 426,56l1263 171 452 24 2759 300 374 50 876 235 113 20 720 -21 158 -1985 559 -4123 -1482 -202c-151,-26 -239,-138 -258,-338 -26,-205 -14,-444 23,-719 37,-269 93,-537 167,-808 75,-268 118,-463 136,-588 56,-219 144,-363 268,-438 118,-69 257,-95 407,-77 151,19 294,57 438,100 151,44 269,75 370,87 300,42 550,67 763,86 212,17 513,86 901,217 94,37 231,104 407,206 176,99 358,199 545,304 189,100 363,193 526,280 169,81 276,130 325,137l-92 137 281 156zm-5234 5605l304 -295 -338 -311 -954 927 -325 407 682 -245 218 32 -143 206c256,11 406,-13 469,-71 57,-55 143,-150 261,-281l-206 -144 32 -225zm-3944 -19921l-201 -219 -125 102 81 236 245 -119zm2997 19911l1425 -1023 -246 2090c-237,69 -737,46 -1501,-72 -769,-117 -1590,-246 -2466,-395 -875,-140 -1689,-272 -2446,-368 -757,-106 -1245,-98 -1464,27l-282 -418 130 -664 181 -245c-57,-131 -89,-230 -89,-293 -7,-62 -6,-194 -7,-400l61 -444 69 -482 145 -1609c0,0 1,-36 12,-112 -18,-32 -31,-68 -25,-118 270,-114 583,-146 926,-103l1038 148 337 -1058c-58,-131 -58,-488 -9,-1057 54,-576 134,-1258 245,-2052 104,-789 227,-1646 370,-2561 135,-913 259,-1770 363,-2564 111,-789 184,-1470 220,-2035 43,-562 17,-912 -65,-1043l-1614 -72 21 -1551 119 -326 47 -1164 62 -450 60 -482 81 -556 250 -195c137,100 175,138 99,131 -74,-12 0,0 220,32l1264 172 1271 134 4848 507 5971 931c225,232 544,412 970,548 420,131 794,411 1114,831 102,168 208,355 322,555 113,206 219,406 320,594 94,193 189,362 270,512 75,150 144,237 189,268l-143 207 -426 -205 130 -401 -332 -42 -7 -495 -507 83 150 -245 -239 -224 -324 182 -63 -388 -371 -49c-111,-88 -181,-156 -199,-194 -19,-43 -95,-75 -219,-88 -51,-5 -113,8 -195,45 -81,44 -150,82 -205,126l-13 -456 -607 295 -102 -395 -625 147 181 -202 -93 -131 -912 560 110 -551 -563 265 -30 -345 -932 440 175 -432 -658 -168 -300 264 -358 -424 -517 457 11 -375 -607 -11 -556 496 -69 -89 357 -370 -94 -125 -650 290 131 -395 -394 134 -1471 -316 -507 351 56 -376 -450 -61 -32 226c-168,-25 -281,-50 -325,-81 -51,-32 -81,-62 -100,-94 -25,-25 -44,-56 -69,-80 -20,-32 -81,-50 -174,-63 -127,-19 -188,13 -188,89 6,74 -94,100 -294,74 -51,-12 -107,-43 -175,-105 -64,-57 -119,-114 -164,-169 -63,87 -100,151 -100,176 -5,25 -94,25 -269,0 -94,-12 -163,-99 -188,-255l-757 238 -256 -298 -686 851 400 93 -555 489 469 181 -529 833 399 93 46 500 499 -307 -11 337c269,88 387,206 370,356 -19,144 7,325 76,537l688 -320 -656 664 488 31 -324 713 495 -45 -512 421 251 374 -387 626 263 300c-61,95 -124,157 -180,189 -50,31 -88,106 -107,232l-22 1282 -255 194 226 594 -349 332 126 476 -137 431 170 138 -269 306 426 206 -349 69c30,157 43,245 38,270 0,24 -20,37 -44,32 -25,0 -58,0 -93,5 -39,8 -70,89 -88,233 -32,200 7,268 106,206 94,-63 200,17 326,237 -256,38 -418,138 -474,288 -63,157 -25,306 107,450l-262 539 94 125 232 -45 -418 582 94 132 238 -43 81 236 -374 -48 -31 488 151 281c-112,112 -199,250 -262,419 -61,169 1,295 195,370l749 -773 126 169 -1274 1042 50 425 701 -401 93 131 -1860 1449 -132 -131 993 -891 -64 -119 -456 14 -6 338 -207 -406 -813 -148 -106 -95 -111 820 -206 427 494 -45 -462 350 227 563c-107,37 -194,75 -264,113 -67,45 -111,151 -137,326l84 237 448 -244 96 131 -738 690 95 131 756 -278 -80 333 618 -109 520 336 44 -293c294,63 475,124 537,187 70,55 114,87 125,86 13,7 57,-19 146,-68 80,-57 287,-170 610,-352l-42 332 843 -115 -305 301 763 -8 420 212 419 -289 307 5 41 -331zm6403 -7234c-8,-300 -39,-443 -95,-424 -51,12 -194,18 -420,13l-167 432 88 163 368 -215 226 31zm1002 404l555 -188 94 -370 -857 153 143 -207 -444 -99 -493 307 -180 470 556 74 -131 175 426 206 331 -521zm-2529 -613l375 55c150,19 250,0 307,-56 62,-51 118,-114 180,-182l-425 -212 -437 395zm1681 -3401l-181 201 370 50 -189 -251zm777 368l480 -427c-231,-6 -351,7 -369,26 -13,25 -13,44 13,63 25,13 37,25 31,38 0,13 -88,19 -268,19l113 281zm4473 -2230l287 -183 -256 -38 -31 221zm-8941 -3865l756 -240 549 -419 -337 526 332 43c125,218 239,299 345,235 112,-61 275,-138 487,-238l-37 301 226 -7 693 -626 124 166 -479 465 212 144c144,19 256,0 332,-70 67,-63 174,-125 306,-182l-44 332 459 -13 -32 224 -1602 -222 -814 -147 -556 -73 -482 -69c-150,-18 -244,-24 -282,-18 -37,6 -69,13 -95,7 -25,-1 -62,-7 -111,-13 -51,-5 -144,-36 -294,-80 -246,-57 -420,-93 -534,-112 -111,-12 -193,-12 -242,7 -57,19 -88,50 -94,100 -7,51 -18,126 -31,225l-370 2179c-13,99 -13,213 7,344 19,131 19,218 -19,262l-121 1195 957 -58c218,206 625,317 1220,335 588,16 1176,41 1751,72 220,29 476,41 769,47 289,0 571,-7 833,-20 269,-13 512,-58 738,-128 226,-68 400,-170 518,-307 524,-709 680,-1309 472,-1790 -214,-482 -646,-1025 -1299,-1617l457 -277 -88 363 594 -182 -175 432c146,43 251,86 308,117 56,32 94,64 100,89 12,30 19,55 32,80 6,26 38,45 87,50 194,24 370,-26 513,-157 143,-133 293,-214 450,-239l-625 671 432 168c2,356 96,630 284,818 189,188 295,312 313,363l-280 381 44 232 407 55 -648 859 337 42 -943 822 95 124 -375 -10 332 349 817 -721 295 306c118,-139 280,-258 487,-352 200,-100 400,-201 588,-302 194,-100 356,-206 499,-327 144,-118 237,-274 294,-469l-414 -61 768 -878c249,-13 412,-88 481,-220 68,-126 87,-257 55,-388l-457 14 656 -634c113,269 151,406 113,419 -38,7 -67,70 -86,195 -31,225 -38,300 -31,225 12,-76 44,-31 99,124 -167,101 -274,251 -329,446 -50,193 -137,401 -268,606 -130,214 -274,377 -430,496 -150,114 -213,251 -187,408 -150,-19 -313,19 -488,120 -182,105 -368,220 -562,344 -194,120 -380,251 -562,377 -182,126 -363,215 -543,264 -213,45 -551,119 -1020,222 -463,101 -825,145 -1076,140 -250,-12 -550,-12 -888,-11 -345,0 -688,1 -1038,-10 -357,-13 -682,-36 -996,-79 -306,-43 -543,-111 -706,-211l-235 876c-57,244 -25,426 93,544 127,119 282,199 483,237 194,37 395,61 594,60 200,7 370,12 489,31 350,50 714,85 1101,111 388,30 738,91 1057,184l2334 358 207 174 1177 504c-167,307 -48,638 359,993l-86 333 90 1301 -156 13 -357 -425c117,-137 199,-232 230,-294 31,-56 -107,-119 -426,-188l79 -593 -581 338 -93 -131 312 -331 -63 -89 -450 -22 112 -290 -725 322 36 -526 -1542 1035 -94 -162 1062 -841 -346 -236 -1017 1071 -369 -48 207 405 463 -89 -31 226 -262 1 213 374 455 -282 89 163 -355 408 600 42 -393 363 182 332 418 -290 133 176 -418 282 -121 19 489 330 -392 365 188 293 332 42c-207,226 -331,358 -375,408 -43,45 -12,214 101,501l-95 1846 -355 895 451 60 -424 590 93 125 489 30 -263 263 151 287 626 -139 -226 270 95 125 476 -126 263 268 542 -383 83 237 -220 -30 -36 263 688 -58 0 262 482 -194c143,68 219,112 230,124 7,13 76,31 201,50 150,18 268,-45 363,-183 100,-137 168,-281 211,-426l-330 -43 422 -626 -587 152 818 -1029 -101 -50 -632 140 856 -977 -133 -132 -625 401 630 -1007 -137 -95 -237 82c17,-300 -2,-443 -57,-426 -51,20 -213,20 -495,9l267 -307 -149 -245 -463 52 305 -563 1360 1129 -144 207 -23 451 -314 2300 -128 1503 -826 -73c-94,-19 -244,-31 -445,-43 -200,-19 -399,-23 -606,-29 -201,0 -381,-12 -544,-37 -157,-19 -251,-31 -275,-38 -214,-105 -357,-149 -439,-136 -75,19 -256,-30 -544,-148 -170,-50 -288,-94 -363,-143 -69,-50 -126,-94 -170,-139 -44,-42 -88,-93 -132,-148 -37,-57 -118,-131 -232,-219 -320,-249 -508,-574 -564,-987 -58,-413 -109,-724 -158,-932 -140,-450 -172,-919 -91,-1414 79,-493 166,-1101 264,-1820 -138,-269 -222,-600 -241,-993 -19,-396 -113,-759 -271,-1082 -150,-351 -290,-601 -408,-757 -113,-149 -244,-267 -383,-356 -144,-80 -288,-155 -444,-229 -157,-70 -332,-194 -532,-374l-689 -244 373 -256 -387 -200 -162 88 43 -332c-126,-18 -200,-30 -238,-36 -39,-7 -70,0 -101,6 -24,12 -50,25 -81,44 -25,25 -93,64 -205,125 149,-331 160,-499 48,-499 -112,-6 -250,-57 -413,-157l17 -675 154 -1383c-139,-93 -283,-174 -420,-249 -145,-69 -319,7 -525,232l-320 -418 -788 459 369 -446 143 25 -294 -305 -88 62 50 -338 -564 -73 150 -245 -469 89 129 -933 -20 -112 273 -1746 -157 -206 161 -626 -357 -161 543 -377 -246 -450 369 -445c257,112 533,224 821,342 287,112 518,-7 693,-365l338 50 -405 439zm2947 3390l225 31 -193 -257 -32 226zm-296 -606l-49 331 377 49 -328 -380zm960 736c12,-251 -2,-406 -32,-463 -32,-50 -146,-118 -333,-193l365 656zm-1652 -2348c176,25 332,-27 482,-157 226,179 526,297 895,347 300,37 519,86 664,142 144,62 264,125 369,186 107,63 202,133 276,188 82,63 195,118 338,162 -32,44 -25,176 8,381 37,207 32,426 -19,657 -41,238 -141,444 -310,620 -162,182 -443,258 -844,227 -276,14 -626,21 -1044,28 -414,7 -845,-36 -1289,-123l-1934 -257c-194,-32 -338,-24 -419,14 -82,44 -124,63 -138,56 -12,1 -6,-50 18,-144 25,-101 44,-287 56,-563 6,-225 24,-476 48,-751 24,-275 56,-544 93,-820l29 -225c25,-144 95,-239 213,-269 113,-38 250,-50 400,-45 150,12 294,36 426,80 132,44 226,69 274,74l489 31 445 62 474 99zm-9672 -6240l-111 552 -18 374 -111 556 -7 338 -67 482 -61 445 -351 2303c694,93 1194,185 1495,278 301,93 413,361 327,800l-123 895 -129 933 -84 931 -187 539 -150 -20 145 -1645 -1191 -1792 118 -56 -331 -44c98,-163 98,-281 11,-362 -94,-75 -107,-257 -39,-550l124 -895 233 -1709c24,-175 43,-431 67,-769 19,-338 55,-682 104,-1044 49,-357 105,-690 172,-996 69,-307 156,-507 268,-589l-92 707 -12 338zm5065 18373l-300 -268 -31 219 -226 -31 158 -320 -396 -162 -268 339 -138 -131 817 -990c102,219 145,375 145,475 0,100 1,169 13,194 6,25 50,36 125,38 75,-6 251,11 526,48 219,31 400,48 537,54 137,7 339,69 602,181l-154 1114c-31,225 -74,325 -130,301 -64,-19 -158,-26 -282,-19l-532 271 -56 -126 680 -583 -443 -62 -451 240 -93 -125 224 -269 -470 -181 143 -207zm3981 -4194l-2176 -408 -1602 -184 -117 820 -302 -268 174 -469c-237,-107 -257,-225 -62,-346 194,-124 355,-218 494,-276l18 420 975 -509 -337 520 558 73 30 -218 226 30 0 264 813 -153 -24 219 332 49c125,19 207,-1 249,-44 44,-43 118,-82 226,-120l212 370 370 -177 176 368 -233 39zm-8631 -2765l-62 446 -68 481 -60 450c-19,120 -6,207 24,245 32,44 50,68 63,68 12,0 1,6 -38,13 -38,6 -112,44 -218,101 6,-226 17,-520 42,-883 24,-362 55,-725 91,-1081 37,-364 85,-683 148,-965 68,-281 168,-475 312,-581l-13 336 -221 1370zm2798 6138c49,-20 156,-82 306,-189 156,-100 312,-213 480,-331 169,-115 318,-227 445,-335 129,-112 198,-199 204,-275 19,-125 13,-199 -25,-231 -32,-32 -63,-101 -102,-200l251 -464c131,145 176,307 126,476l-42 600 -20 106c-24,201 -36,269 -24,207 7,-63 -38,-25 -131,113l-288 -112 -1099 872 -81 -237zm-3363 -1182c-81,44 -131,70 -144,76 -12,13 -80,7 -205,-5l-1528 -209c-193,-32 -263,-38 -200,-32 62,13 13,44 -149,95 74,-163 130,-257 173,-276 38,-19 145,19 308,117l138 -174 1063 223 369 -177 175 362zm16379 951l170 137 -99 438 189 294 132 701 -214 -105 -412 244 -88 -201 369 -214 -26 -613 -226 -29 205 -652zm-1244 509c156,-50 276,-112 344,-182 75,-61 132,-125 182,-182 43,-55 93,-112 150,-169 62,-55 167,-93 324,-125l88 -364 299 306 -143 207 -375 -56 118 245 -368 -50 81 238 -748 502 48 -370zm-17356 930l-137 206c-18,125 -30,194 -31,207 1,12 0,18 0,18 0,0 6,7 13,20 13,12 38,62 75,143 -75,-12 -113,-19 -113,-19 0,0 1,38 -12,113 -23,201 -36,269 -31,207 12,-63 44,-13 95,143 -76,-12 -113,-12 -113,-12 0,0 0,37 -12,106 -19,125 -6,206 25,232 31,30 56,55 69,68 7,12 0,25 -25,31 -24,13 -94,44 -206,107l-89 -463 144 -212 -82 -239c17,-124 31,-192 30,-218 6,-25 13,-31 26,-19 5,13 19,38 25,62 12,25 32,13 63,-31l-64 -388 143 -207 207 145zm19441 -10942c-218,119 -474,282 -768,483 -293,201 -512,401 -669,608l-237 -224c269,-89 537,-265 811,-527 276,-271 539,-460 781,-578l82 238zm-16832 5694c-31,42 -56,81 -88,99 -31,26 -42,45 -49,70l0 36c-31,227 -44,302 -31,227 6,-75 38,-32 93,123 -74,-11 -111,-12 -111,-12 0,0 -6,38 -13,108 -31,224 -44,300 -31,224 6,-74 44,-31 94,125 -75,-6 -112,-12 -112,-12 0,0 -6,50 -19,150 -18,120 -5,201 26,226 32,30 56,50 69,50 12,-2 7,6 -19,19 -30,5 -112,49 -249,131 5,-375 5,-707 4,-1001 4,-288 117,-519 341,-688l95 125zm2539 5266c-86,264 -248,489 -485,671 -244,182 -469,320 -688,421l-77 -238c258,-44 476,-170 657,-382 181,-220 382,-377 593,-472zm-5166 -2371c68,62 113,182 138,362 26,182 26,363 1,552 -23,181 -74,355 -149,526 -67,168 -148,268 -230,305l240 -1745zm6822 -1147c87,-119 213,-258 363,-428 142,-167 262,-275 342,-313l-42 332c-13,75 -50,188 -106,332 -55,143 -87,225 -87,251l-470 -174zm9458 5602c44,-170 99,-295 162,-377 64,-75 125,-131 194,-163 68,-26 138,-68 205,-119 70,-57 151,-150 251,-288l206 137c-62,94 -224,244 -480,451 -257,201 -430,321 -538,359zm1595 -19472l330 88 221 330 -381 -12c-195,-30 -288,-86 -277,-173 12,-89 -81,-144 -282,-169 -125,-19 -211,-18 -262,0 -57,20 -74,-37 -57,-156l708 92zm-9853 18914c194,-276 443,-470 762,-576l-36 562 -470 -180 -30 225 -226 -31zm-801 41l-112 -283c156,-24 250,-56 281,-94 31,-32 56,-63 86,-101 32,-30 82,-62 150,-93 64,-26 201,-26 395,-1l-800 572zm12742 -13749l-332 -42 268 -301 32 -226 239 488 -50 332 -87 99 -70 -350zm-3227 2860c245,-118 382,-207 411,-269 38,-57 195,-95 476,-108 -144,106 -275,226 -392,344 -113,126 -244,215 -376,270l-119 -237zm-9463 11388l749 -540c-80,239 -168,402 -249,476 -87,75 -238,163 -455,258l-45 -194zm4989 -17151c-61,69 -175,169 -350,313 -167,138 -305,226 -412,264 57,-244 124,-388 194,-426 68,-43 181,-100 344,-181l224 30zm-2427 12c144,-106 262,-212 363,-314 106,-100 237,-201 406,-301 -88,438 -344,645 -769,615zm5268 -2803c74,-169 143,-224 212,-163 63,63 162,101 287,120l776 102 -12 114 -1263 -173zm3824 6391c-88,89 -150,144 -175,163 -32,19 -56,38 -81,44 -32,12 -57,32 -88,70 -31,30 -87,106 -181,218l-231 -224c181,-51 287,-95 318,-145 31,-43 106,-137 231,-270l207 144zm-14081 8033l218 31 -125 94 82 238 -225 -25 -30 218 -332 -41 412 -515zm803 1587l663 -439 82 238c-132,56 -219,81 -256,82 -39,-7 -64,-7 -76,6 -13,13 -24,37 -30,69 -7,36 -51,112 -143,231l-240 -187zm13321 -9959c106,-37 174,-55 199,-68 25,-6 45,-19 63,-25 13,-13 25,-38 44,-70 18,-37 93,-80 230,-144l-255 457 45 238 -369 -49 43 -339zm-13727 9604c206,-50 319,-102 325,-145 5,-50 119,-138 336,-257 -61,244 -124,382 -192,426 -69,43 -200,112 -388,213l-81 -237zm14387 -10837l269 -307 206 181 -87 332 -87 100 -301 -306zm-17667 10163l210 -696c109,119 176,188 196,220 25,24 25,36 12,37 -13,-1 -31,-7 -69,-7 -37,-6 -62,25 -75,101 -30,225 -37,301 -30,225 12,-74 44,-30 100,124l-243 120 -101 -124zm14868 7059l43 232 -339 -44c157,-207 239,-338 245,-401 12,-62 149,-88 424,-76l-373 289zm-6407 -18550l495 -316c-57,220 -93,338 -125,364 -25,19 -125,81 -287,188l-83 -236zm-7855 16494l469 -90c-75,145 -162,244 -267,308 -114,56 -239,131 -376,214l174 -432zm5986 -16679l93 169c-124,131 -187,214 -204,232 -15,24 -152,19 -395,-12l506 -389zm-4684 17419c51,-218 94,-336 125,-356 24,-25 119,-76 282,-150l224 30 -631 476zm15465 678l-493 307c56,-218 94,-336 124,-362 25,-19 125,-69 281,-151l88 206zm-10158 -10473c125,-138 200,-219 226,-256 31,-32 162,-45 386,-39 -167,125 -243,200 -217,214 19,18 -37,86 -181,218l-214 -137zm-3662 8847l206 144 -381 289 -226 -32 401 -401zm10173 -4364l418 -283 82 238c-132,30 -208,51 -219,62 -19,13 -25,26 -25,38 0,13 -19,32 -50,70 -25,31 -99,81 -206,138l0 -263zm-10938 1614l-113 -281c156,-33 245,-58 256,-83 19,-17 19,-36 13,-49 -13,-19 -7,-25 19,-19 24,6 137,6 338,6l-513 426zm12493 5301c200,-151 299,-263 311,-340 6,-74 118,-137 324,-181 -154,207 -236,338 -242,401 -7,62 -138,100 -393,120zm-7967 -12105c-80,238 -148,381 -193,425 -43,45 -200,64 -475,52l668 -477zm-4745 8969c118,-139 193,-221 224,-251 31,-38 169,-50 424,-38 -149,131 -230,212 -261,243 -32,39 -163,51 -387,46zm1875 -5690c56,-219 124,-377 212,-463 94,-89 237,-146 444,-165l-656 628zm10802 7156l418 -289c-63,243 -112,375 -150,381 -38,7 -143,63 -306,163l38 -255zm524 -5538l82 244 -369 175 -219 -29 506 -390zm-1120 -379l124 169 -411 251 -219 -31 506 -389zm-10940 2753l169 137 -413 283 -263 -38 507 -382zm-1246 2480c156,-32 250,-64 275,-94 31,-38 49,-64 49,-89 6,-24 25,-57 51,-87 31,-37 125,-69 281,-95l-581 640 -75 -275zm-1311 -1205l219 -231 207 137c-57,44 -119,100 -194,163 -68,68 -131,126 -193,163l-39 -232zm10973 -15501c-112,88 -186,145 -218,176 -24,37 -49,62 -68,87 -13,26 -37,32 -75,26 -37,1 -119,-12 -243,-31l349 -332 255 74zm-5917 -505l112 281 -624 177 512 -458zm-5297 16658c-127,6 -220,18 -271,38 -55,18 -80,25 -80,25 0,0 -7,-12 -13,-37 -12,-26 -32,-82 -76,-163l469 -89 -29 226zm7020 -17331l115 243 -264 1 -29 225 -202 -181 380 -288zm7048 14664c49,-193 98,-305 143,-337 36,-31 176,-32 394,-2l-537 339zm-912 597c156,-25 232,-38 232,-26 -8,13 -13,26 -26,39 -19,6 -31,5 -38,-7 -12,-12 51,-75 193,-182l-42 332 -243 81 -76 -237zm528 1363c-67,344 -262,556 -574,639l574 -639zm-8813 -13623l206 143 -543 377 337 -520zm-1981 14498l237 -81 -43 330 -237 83 43 -332zm8243 -16558l495 -314 -414 551 -81 -237zm-6566 3418c37,-244 50,-351 43,-313 0,37 75,0 244,-100 -19,124 -31,207 -32,243 -5,31 -12,57 -12,70 0,12 -12,19 -36,19 -26,-7 -95,25 -207,81zm7513 -2608c37,-249 50,-356 43,-319 -6,38 75,8 244,-94 -19,119 -32,201 -38,239 1,36 -6,62 -6,74 -6,13 -24,19 -62,13 -37,-7 -94,25 -181,87zm2093 -886c144,18 226,24 244,11 12,-12 6,-24 -13,-37 -24,-17 -24,-37 8,-56 24,-24 116,-51 275,-76l-363 440 -151 -282zm-12838 15281l-107 -313 524 -8 -417 321zm1443 -1124l-187 238 -189 -293 163 -89 213 144zm1672 -7272c37,-119 56,-207 48,-256 2,-51 2,-76 13,-77 12,7 31,1 57,-6 31,-13 93,-31 200,-68 -44,119 -56,200 -50,237 6,38 0,63 -12,76 -13,13 -32,12 -56,12 -26,-6 -95,25 -200,82zm10260 11624l187 -508 237 187 -424 321zm-1595 -215l180 -508 207 180 -387 328zm-9346 -2832c18,-144 36,-237 37,-275 6,-38 12,-64 12,-75 0,-13 13,-18 38,-12 25,0 93,-26 200,-89 -69,320 -132,470 -193,444 -57,-17 -89,-17 -94,7zm9587 -4219l43 232 -106 249 -226 -31 289 -450zm-4798 -10348l351 -64c-38,94 -63,158 -63,183 -7,23 -6,36 -6,36 0,0 -19,-5 -56,-5 -37,-6 -120,18 -257,76l31 -226zm-6696 6928c156,-232 213,-332 168,-300 -37,31 32,37 207,12l-118 319 -257 -31zm6404 -8404l-10 376 -370 -50 380 -326zm8411 17465l-369 -87 419 -283 -50 370zm-3428 -15956l201 180 -250 195 -131 -169 180 -206zm-8211 16901l238 188 -381 290 143 -478zm-902 -8373l-287 152 -83 -238 239 -81 131 167zm11523 10470l-189 -293c156,-25 238,-38 250,-20 6,13 6,25 -7,38 -19,7 -25,6 -18,-6 -1,-12 56,-76 174,-182l-210 463zm-11466 -2550c-120,137 -194,218 -226,257 -30,30 -168,18 -412,-42l638 -215zm-670 -93l-137 -132 179 -199 208 181 -250 150zm-566 -1137l-169 131 -156 -249 244 -120 81 238zm10161 -4252l-137 169 -150 -288 236 -82 51 201zm-1869 -11011l256 -189 86 163 -136 169 -206 -143zm4078 13658l-131 170 -151 -282 237 -82 45 194zm-10810 419l-130 132 -193 -250 242 -119 81 237zm-2232 2495l-131 138 -157 -250 243 -120 45 232zm12111 -4669l-130 131 -157 -243 243 -119 44 231zm-8002 -3516l131 -131 157 249 -243 119 -45 -237zm7713 2302l-132 132 -194 -249 243 -119 83 236zm1696 5877c93,-119 143,-195 143,-231 6,-38 13,-51 13,-51 0,0 12,0 36,0 26,6 88,0 188,-6 -150,181 -205,269 -169,274 39,7 -30,7 -211,14zm-2288 -4062c-54,220 -91,338 -123,358 -25,25 -125,87 -288,188l411 -546zm-892 -12576l-17 375 -258 -36 275 -339zm-13316 14080l-7 -262 369 86 -362 176zm7123 -14779c99,18 163,25 186,30 26,0 39,0 39,0 0,0 -1,-18 6,-49 6,-37 50,-89 137,-157l-143 476 -225 -300zm3389 -140l0 262 -330 -41 330 -221zm-1459 -3718l113 275 -408 -55 295 -220zm-2046 2783l119 243 -374 -50 255 -193zm-2033 2982l115 280 -377 -56 262 -224zm843 -6208l114 281 -369 -49 255 -232zm-3211 14971l376 11 -188 238 -188 -249zm464 -15345l115 280 -377 -55 262 -225zm-2309 -316l114 283 -369 -56 255 -227zm15481 23385l54 -406 202 181 -256 225zm-4202 -7496l-26 -382 237 -81 -211 463zm2843 4097l294 -188 81 236 -375 -48zm-3645 -15149l157 -56 81 237 -375 -49 137 -132zm-6434 17179l332 44 -95 144 -155 51 -82 -239zm10878 -5105l125 -56 76 238 -332 -49 131 -133zm-11943 4282l374 50 -125 93 -168 96 -81 -239zm10362 -3777l331 44 -94 144 -162 87 -75 -275zm1764 2592l337 44 -131 131 -130 101 -76 -276zm203 -919l163 -94 76 275 -332 -44 93 -137zm-1204 3805l125 -57 82 239 -339 -44 132 -138zm-10159 -10698l-150 -287 332 49 -182 238zm9290 5697l-157 -245 338 43 -181 202zm706 1761l-146 -281 333 44 -187 237zm-11526 -1267l293 -189 -48 376 -245 -187zm12591 2097l-157 -250 332 50 -175 200zm-11072 383l-150 -288 331 49 -181 239zm9961 -18595l217 -233 113 281 -330 -48zm-11105 5072l193 219 -242 119 49 -338zm8973 -1390l-263 232 -112 -281 375 49zm3139 18339l150 289 -338 -50 188 -239zm-4861 -18798l-231 -219 280 -112 -49 331zm-7315 9226l18 -376 256 38 -274 338zm10865 2501l369 93 -288 145 -81 -238zm-11865 -2068l330 44 -255 193 -75 -237zm2313 5237l370 48 -294 189 -76 -237zm-798 570l368 87 -256 195 -112 -282zm10813 2310l-361 -88 279 -151 82 239zm-7936 -18686l99 87 -517 458 418 -545zm6336 -85l100 89 -481 464 381 -553zm2589 4856l-369 -50 255 -195 114 245zm40 1407l-375 -49 293 -188 82 237zm-7151 -5895l-369 -49 256 -195 113 244zm-6721 -1485l330 43 -255 194 -75 -237zm2246 3222l-338 -50 257 -187 81 237zm10813 1476l239 219 -414 -18 175 -201zm344 -2528l240 219 -415 -17 175 -202zm-14243 -5465l231 256 -412 -56 181 -200zm444 61l233 256 -377 -49 144 -207zm482 67l195 251 -370 -49 175 -202zm451 56l226 262 -370 -48 144 -214zm926 129l233 262 -409 -60 176 -202zm5055 689l233 263 -414 -56 181 -207zm927 129l194 251 -370 -50 176 -201zm449 63l227 255 -370 -48 143 -207zm927 121l194 258 -368 -50 174 -208zm-444 -61l195 258 -375 -50 180 -208zm2266 314l231 257 -368 -50 137 -207zm-8960 9905l368 86 -287 151 -81 -237zm1587 -5533l233 256 -412 -57 179 -199zm945 -5252l227 258 -370 -51 143 -207zm-1772 20735l376 49 -293 189 -83 -238zm-537 -21048l234 255 -371 -48 137 -207zm2791 382l195 249 -375 -50 180 -199zm445 61l194 249 -369 -48 175 -201zm5055 689l232 256 -411 -55 179 -201zm-6914 -947l232 262 -369 -50 137 -212zm2791 381l189 256 -370 -49 181 -207zm3679 504l195 257 -376 -56 181 -201zm-5468 2321l202 219 -376 -56 174 -163zm4986 -2388l226 262 -369 -55 143 -207zm-3685 -504l232 262 -369 -50 137 -212zm-6501 21039l369 48 -248 195 -121 -243zm3310 -21470l188 249 -369 -49 181 -200zm-1795 13684l369 87 -249 156 -120 -243zm2239 -13623l233 256 -414 -55 181 -201zm12067 5884l239 224 -374 -56 135 -168zm-406 -319l226 257 -408 -56 182 -201zm-999 11488l368 50 -249 155 -119 -205zm-10213 -4236l362 86 -243 157 -119 -243zm-1127 -380l408 93 -289 152 -119 -245zm3566 -7808l202 218 -376 -49 174 -169zm5917 -364l201 219 -376 -18 175 -201zm-9337 1304l233 218 -375 -11 142 -207zm12116 -585l-189 -249 370 49 -181 200zm-12897 16832l151 287 -239 76 88 -363zm316 -11999l-231 -256 368 50 -137 206zm12051 -1497l201 218 -376 -19 175 -199zm-4292 -2931l233 219 -376 -12 143 -207zm-7318 2863l368 50 -255 195 -113 -245zm-2862 12368l182 -201 188 250 -370 -49zm2337 -17133l370 49 -249 195 -121 -244zm926 123l338 49 -256 189 -82 -238zm7585 1033l369 57 -249 186 -120 -243zm-8179 1689l332 44 -249 195 -83 -239zm12565 -1085l332 42 -251 195 -81 -237zm-13987 -2364l371 49 -258 194 -113 -243zm-122 888l369 56 -250 188 -119 -244zm2266 577l380 12 -255 194 -125 -206zm10062 12013l179 -208 195 256 -374 -48zm-2285 -10724l371 50 -250 194 -121 -244zm4062 16568l180 -201 189 249 -369 -48zm-10484 -10554l176 -206 155 249 -331 -43zm9816 -5096l374 50 -255 194 -119 -244zm-15066 14448l137 -207 193 256 -330 -49zm3641 -18130l338 48 -255 189 -83 -237zm2108 -168l370 55 -251 188 -119 -243zm-2924 17283l206 145 -350 62 144 -207zm10479 -4664l206 143 -349 63 143 -206zm-10681 -3580l288 -188 -31 263 -257 -75zm-2622 10359l-7 -269 263 38 -256 231zm1352 -4964l38 -261 224 30 -262 231zm11490 -11492l0 262 -249 -73 249 -189zm244 13773l219 32 -30 218 -189 -250zm495 -1977l251 -195 7 269 -258 -74zm-12531 3633l29 -264 258 75 -287 189zm1613 -4934l38 -256 224 31 -262 225zm1315 -2662l-7 -224 256 36 -249 188zm150 -2777l-2 -270 258 75 -256 195zm9584 9104l257 -189 1 264 -258 -75zm-10597 -3372l-1 -269 257 74 -256 195zm9735 -12495l264 -1 -76 256 -188 -255zm201 19072l249 -195 8 231 -257 -36zm-9978 -11506l-1 -269 249 75 -248 194zm11444 9357l249 -189 7 264 -256 -75zm-10324 -8977l-2 -264 257 69 -255 195zm10666 -7445l270 0 -37 262 -233 -262zm-9695 7805l224 31 -31 218 -193 -249zm-2627 3158l0 -262 256 74 -256 188zm707 98l-1 -262 258 68 -257 194zm10683 -10884l-29 262 -220 -67 249 -195zm-11691 15253l248 -194 1 268 -249 -74zm6254 -16716l-2 269 -261 -38 263 -231zm-5254 8825l31 -262 219 68 -250 194zm-1335 4740l0 -264 257 75 -257 189zm1033 2719l0 -270 256 75 -256 195zm1672 -7268l37 -262 219 69 -256 193zm-2687 -1087l257 36 -131 132 -156 50 30 -218zm-1991 9306l156 -57 -31 225 -220 -31 95 -137zm4100 -9249l226 31 -94 101 -162 93 30 -225zm-2612 3622l256 36 -130 133 -157 49 31 -218zm12537 765l169 -93 -32 224 -262 -36 125 -95zm76 3077l226 25 -94 106 -162 89 30 -220zm-3937 -14171l120 -57 -31 226 -220 -31 131 -138zm-13415 14262c131,143 201,199 206,162 1,-37 -43,24 -143,187l-63 -349zm13857 3064c156,150 226,199 219,163 -6,-38 -44,24 -119,193l-100 -356zm-6315 -11726l0 -263 219 24 -219 239zm6505 -6077l6 262 -224 -30 218 -232zm-508 -149l0 -263 219 31 -219 232zm958 -97l-1 -262 224 32 -223 230zm-8598 1178l-7 -270 224 32 -217 238zm12515 4813l0 262 -219 -30 219 -232zm-12089 12544l227 32 -251 194 24 -226zm-2502 -2458l259 68 -288 151 29 -219zm4010 -13840l233 219 -263 0 30 -219zm-2486 9614l264 36 -295 189 31 -225zm1058 -7728l226 257 -263 0 37 -257zm-22 12073l256 75 -286 151 30 -226zm873 -9722l256 73 -288 151 32 -224zm-2204 2276l257 67 -287 151 30 -218zm366 -1585l224 32 -143 212 -81 -244zm-1106 -7416l219 31 -137 207 -82 -238zm7886 1301l224 32 -256 195 32 -227zm-834 -567l225 32 -256 194 31 -226zm6990 955l224 29 -255 195 31 -224zm-8013 -2040l220 30 -250 194 30 -224zm2244 1590l-263 -31 294 -188 -31 219zm3381 -935l-218 -29 249 -195 -31 224zm973 14555l30 -263 226 30 -256 233zm-10791 -13887l262 30 -294 189 32 -219zm-895 -123l225 30 -250 189 25 -219zm2628 469l-226 -31 257 -194 -31 225zm1764 8422l-225 -32 30 -224 195 256zm-3482 -4451l226 29 -256 195 30 -224zm253 636l224 31 -256 195 32 -226zm1376 190l262 38 -293 182 31 -220zm-920 103l220 31 -250 189 30 -220zm8972 -4988l-225 -30 255 -194 -30 224zm-9276 253l224 26 -256 194 32 -220zm5977 -1045l256 36 -287 189 31 -225zm-8220 15844l-263 -36 31 -226 232 262zm2644 -9107l36 -257 219 31 -255 226z"/>
  <path id="3" class="fil2" d="M134258 52607l-418 281 463 224 -45 -505zm-1077 -337l476 -14 -89 -294 -156 170 -144 -287 -87 425zm276 -514l-14 -212 -262 62 87 239 189 -89zm-508 -368l-37 -344 -169 157 206 187zm4798 3570l-238 83 301 249 -63 -332zm-2581 -2236c-132,-118 -213,-230 -251,-330 -37,-107 -131,-105 -268,7l444 405 75 -82zm-1567 -1453c-144,-171 -205,-251 -200,-245 6,7 -1,-99 -26,-319l-256 269c106,102 176,182 208,245 25,55 37,93 37,112 0,19 13,18 24,0 19,-19 88,-38 213,-62zm-470 -432l-256 -600 -238 88c-7,81 -6,138 0,163 6,32 56,87 144,175l350 174zm927 493l-199 269 168 312 408 226c13,-126 25,-195 42,-214 19,-18 19,-18 0,0 -17,19 -36,26 -61,13 -32,-6 -57,-69 -76,-194 31,-106 69,-168 113,-175 43,-13 24,-87 -51,-225 -114,-175 -201,-244 -269,-206 -69,44 -143,62 -212,63l137 131zm727 380c5,175 18,283 37,312 19,39 126,45 319,20l-356 -332zm-1887 -1654l-43 -300 -118 200 161 100zm7021 5437l151 -163 -163 -157 12 320zm151 -464l-213 -149 62 313 151 -164zm-13 138c69,100 113,175 126,219 5,45 18,68 25,75 12,13 25,8 43,-13 13,-18 88,-37 206,-62 -74,-138 -106,-219 -100,-245 7,-23 25,-37 50,-30 32,6 32,0 1,-25 -25,-25 -96,-106 -207,-245l-144 326zm1424 -1103l201 394 -45 -506 213 -58c-188,-243 -258,-367 -213,-381 44,-6 -37,7 -250,50l163 158 -150 161 81 182zm-395 -1344l-349 970 -582 -130 -350 758 714 199 176 781 388 -413c68,-76 111,-119 124,-138 19,-20 25,-25 12,-13 -4,6 0,13 19,13 14,-1 70,-13 157,-32l5 -826 -314 -1169zm3496 -4266l306 230 -82 -329 -224 99zm224 -400l-157 163 170 155 -13 -318zm9247 1386c31,-144 25,-313 -32,-518 -50,-201 -106,-395 -163,-589 -138,220 -205,439 -205,657 0,220 138,370 400,450zm299 -652c-6,-175 -6,-274 13,-287 19,-19 -13,-99 -87,-237 -32,144 -69,225 -114,256 -36,25 -61,45 -61,45 0,0 19,6 55,18 31,19 101,88 194,205zm1316 293l-39 -294 -125 138 164 156zm-771 -549l344 12 -269 -257 -75 245zm86 -1027c-133,220 -207,334 -212,339 -13,12 25,88 100,225l112 -564zm889 362l-113 -206 -156 6 -76 245 345 -45zm463 381l-75 -794 -239 88c113,175 169,281 169,312 1,38 -50,144 -149,326l294 68zm298 -1365c45,138 69,250 77,326 11,80 23,207 30,387 131,-181 201,-318 194,-407 0,-86 -26,-219 -64,-392l-237 86zm332 -355l-370 11 275 258 95 -269zm811 -660c-50,126 -80,207 -99,245 -13,38 -26,50 -26,50 0,0 13,11 32,31 19,12 56,68 113,149l-20 -475zm-21921 9456l-333 -305 -326 -306 -331 -306 -333 -307 -332 -311 -326 -307 -357 -331 -332 -306c-119,-169 -195,-274 -232,-306 -38,-39 -50,-113 -44,-231l-82 93 -532 -593 -920 -606 280 -1126 -264 -550c105,-43 181,-182 218,-425 31,-238 61,-501 80,-777 12,-274 31,-543 48,-800 18,-257 81,-444 181,-551 194,-207 376,-294 556,-264 -162,169 -224,326 -180,471 37,138 112,262 219,361 114,100 226,188 357,250 125,70 213,124 269,175 277,256 607,555 997,906 395,343 782,698 1165,1056 382,355 752,686 1109,998 352,312 632,562 834,749l819 769c50,49 126,131 207,243 83,106 170,207 263,293 88,83 195,144 307,188 119,38 238,-7 357,-131 255,-246 531,-533 818,-879 294,-344 474,-569 543,-669 169,-219 323,-376 456,-477 131,-99 287,-250 475,-451l62 -100 1231 -1359 49 -107 -1097 -1331 1068 -1152 756 -733 686 -795 232 -195 1517 -1760 561 -552 1275 -1427 667 -658c169,-182 281,-313 344,-402 56,-81 100,-119 138,-118 37,-7 81,37 137,124 57,89 163,207 326,355l81 76c296,268 502,475 628,606 132,137 176,274 151,419 -31,144 -144,313 -331,513 -188,201 -457,495 -812,877l-263 226 -424 514 952 936 300 231 1498 1392 1573 1318c88,12 299,-144 643,-477 343,-332 705,-701 1086,-1115 381,-413 749,-815 1099,-1208 351,-396 581,-652 700,-783l2685 -2832 -577 -538 -326 -300 -331 -305 -407 -388 -276 -249 -415 -381 -901 -843 -4598 -4277 -1592 -1475 -357 -329 -5994 -5578 -1200 1291 -106 -106 1254 -1509 671 624 514 468 356 262 2243 2160 1109 956 702 731 313 219 1367 1335 969 832 734 755 777 649 540 576 474 367 351 400 118 37 735 750 614 499 1616 1511 2036 1886 -185 1465 -146 3246 -2860 3020 -1473 1448 -19 80 -968 1153 -1036 928c-157,25 -382,-80 -671,-319 -294,-231 -494,-492 -608,-767l-983 -800 -2543 -2197 -91 -2033c-19,55 -55,136 -125,244 -69,107 -124,188 -181,244l-99 56 -3735 3909c-188,201 -325,377 -419,533 -86,151 -130,388 -117,707 13,351 -11,682 -67,982 -63,307 -62,569 1,795 -125,62 -262,144 -419,257 -150,112 -274,213 -356,307l-50 107 -1593 1433 -306 383 -412 389 -200 275 -412 383 -224 250c-156,163 -206,220 -156,163 49,-55 44,-13 -20,131l-337 89 -2423 -2305 -332 -306zm18835 -15249c19,-57 31,-106 49,-163 18,-57 0,-106 -56,-156l-952 -630 -63 -313 -959 -680 -38 -395 -419 63 43 -524 -707 7c220,-307 232,-488 50,-544 -188,-50 -389,-94 -614,-131l199 -287 -744 -225 182 -307 -1016 -242c90,-19 195,-45 326,-76 133,-30 125,-119 -19,-256 -131,-119 -200,-169 -205,-144 -7,25 -57,32 -157,32l-364 -556 -419 1 256 -277 -664 -361 -276 -463 -207 170 106 -364 -643 -36 230 -313 -626 -167c-6,-64 0,-119 25,-164 20,-44 6,-88 -50,-137 -94,-88 -195,-131 -300,-124 -106,0 -232,-13 -377,-44 19,-49 38,-131 57,-224 25,-102 12,-176 -45,-226 -131,-118 -200,-175 -218,-156 -13,19 -82,37 -207,56l76 -82 -578 -543 -74 76c55,-132 49,-238 -25,-306 -87,-82 -183,-126 -269,-118 -89,0 -201,-19 -338,-57l211 -226 -544 -137 -38 -399 -588 -87c-26,-156 -45,-263 -51,-306 -12,-44 -25,-63 -31,-51 -7,7 -25,19 -49,32 -32,6 -70,-13 -127,-63 -112,-106 -167,-175 -169,-211 2,-32 13,-45 37,-39 32,7 39,13 32,25 -12,7 -82,-11 -207,-55l-74 300 -312 63 -1267 1359 -121 -112 -80 388 -562 308 -5 412 -145 -87 -581 701 -649 483 6 370 -288 143 583 544 -74 76c74,67 125,105 157,111 24,7 50,13 80,19 26,13 63,18 107,25 44,6 125,43 232,106l-51 113 325 92 252 450 300 -43 113 318 162 -6 100 -276 445 -250 -251 -231c181,-45 313,-82 399,-102 89,-25 152,-44 189,-69 37,-18 75,-55 118,-125 44,-62 113,-150 219,-263l411 -721 332 -24 201 344 269 -14 425 551 144 -101 83 362 469 49 -262 446 -427 -544 -445 -412c-262,-237 -488,-300 -682,-187 -194,119 -374,282 -543,508l-344 363 -281 307 -311 389 -370 337 -3249 -2603 255 -275 281 -307 332 -357 287 -301 299 -389 413 -381 1180 -1272 336 -357 282 -301 330 -363 718 -921 206 -220c100,-113 201,-168 288,-175 88,1 169,24 238,75 75,50 132,111 170,181 37,68 62,112 81,125l2881 2415 5225 4959 256 282 408 380 276 257 389 355 274 256 383 356 276 256 413 388 245 230 413 381 275 257 414 381 281 193c289,275 528,475 709,612 181,132 369,337 557,618 76,101 176,188 300,250 126,69 233,131 314,186 82,64 112,144 101,251 -19,107 -106,256 -282,438l-230 251 -1181 1123 -2753 2956 -332 364c-86,93 -137,143 -143,150 -6,11 -6,11 0,0 6,-7 19,-6 25,-2 12,8 6,57 -6,145 -89,24 -194,7 -306,-49 -120,-57 -201,-112 -257,-163l-3133 -2910 1937 -1967 11 -358 -1303 -1153 -557 -576 -82 -74c-112,-106 -219,-175 -332,-207 -106,-31 -212,-62 -325,-92l263 -282 639 699 518 50 -199 218 445 406c144,107 231,169 256,194 25,25 125,18 300,-19l-112 337 470 156 576 425 -256 432 888 206 -900 138 245 230 -794 1016 -50 213 -536 796 431 186 -74 137 451 270c-49,124 -36,218 38,287 107,100 207,148 294,144 89,-7 208,4 351,29l-232 251 1220 4 -543 421c269,42 526,55 757,29 232,-24 312,-187 249,-489l401 -93 86 -376c214,-43 389,-114 532,-207 137,-94 206,-231 200,-407l873 -834 88 -281 767 -676 482 -590 -633 -117 582 -244 -864 -275 182 -306 -564 56 207 -326 -546 -348c-144,-100 -199,-150 -169,-157 38,1 38,-50 0,-156l-349 -12zm-16956 -2263l318 -13 -282 -255 -36 268zm921 812c67,-149 111,-238 149,-276 32,-36 57,-62 62,-68 8,-13 -11,-25 -55,-57 -52,-25 -132,-93 -245,-199l89 600zm-57 -7488l-306 326 -1185 1354 13 369c74,0 118,-8 137,-6 13,-2 69,43 163,131l212 262 1016 942 1604 1461 100 63 414 380 300 282 1786 -2030c205,-43 380,-37 512,18 131,57 264,150 389,288 125,131 257,280 382,455 124,169 283,357 465,557l-2156 2324 -462 488 -1722 2011 -2093 2099 -231 244 -474 740 -1179 -1094 -381 -255 131 -188 1365 1224 207 -220 635 -689 1655 -1941 -3514 -3173 62 -1169 117 -1120 156 -7c-143,-131 -213,-338 -208,-601 7,-268 44,-543 112,-838 69,-301 156,-570 249,-819 99,-252 187,-438 274,-569 130,-182 318,-408 557,-683 236,-271 492,-539 766,-796 269,-257 533,-470 769,-640 243,-163 425,-244 552,-232l-1189 1052zm7404 5832l-475 513 201 187 -551 245 82 75 -1161 1253 -120 -113c-7,163 -11,269 -19,313 -5,45 -11,70 -11,70 0,0 -6,0 -25,0 -19,0 -50,23 -99,81l-682 439c-156,132 -201,200 -144,207 63,6 57,93 -19,256 -67,113 -124,163 -168,150 -49,-13 -119,32 -199,120l-51 163 -1224 1208 -68 400 -319 15 -849 914 -107 113c-150,168 -193,219 -125,162 70,-57 95,-25 76,99l-444 52 113 101 -794 850 -81 -80 270 406 -538 113 -718 558c0,68 -6,144 -12,219 -13,75 -32,132 -69,169 -169,182 -262,232 -282,144 -25,-87 -87,-180 -194,-281l-106 -43 -407 -431 -313 13 -162 -306 -744 851 -1074 1096 -6 564c-106,0 -225,-18 -351,-69 -124,-49 -206,-111 -243,-179l-690 -589 694 -738 406 -439 386 -415c119,-131 214,-237 275,-332 69,-87 139,-180 207,-268 61,-94 143,-200 224,-332 81,-125 199,-269 356,-438 306,-326 549,-464 725,-401 175,62 332,180 469,361 138,175 265,331 383,456 113,125 269,87 457,-112l3609 -3824 992 -1132 1974 -2061c243,-257 462,-470 657,-645 198,-177 342,-333 436,-470 94,-140 132,-271 118,-402 -12,-131 -118,-275 -319,-424l-470 -544 594 49 -169 239 270 249c107,101 169,137 194,112 31,-32 118,-56 274,-81l160 1564zm-5246 13408l-88 -446 425 -62 -747 -1513 155 -725 312 -171 102 551c107,68 238,156 388,262 157,112 282,230 383,356 106,132 169,276 188,432 24,156 -37,300 -193,431l-925 885zm2417 -5854c145,-45 238,-57 295,-38 50,13 118,-25 207,-112l74 -89c88,-88 131,-144 131,-163 0,-11 -7,-30 -26,-43 -17,-19 -24,-44 -24,-76 0,-36 37,-106 106,-212 81,-94 163,-126 237,-107 75,18 151,-13 220,-81 80,-95 118,-169 105,-232 -6,-62 -6,-157 6,-275 68,-6 150,-7 239,-13 86,0 173,-51 262,-138 150,-169 186,-269 105,-313 -82,-38 -156,-131 -232,-268 88,-20 225,-39 420,-45 193,-7 311,-26 343,-63 137,-151 206,-232 218,-257 7,-31 37,-107 88,-225l544 -420 -120 -112 281 -252c88,188 70,369 -55,539 -125,176 -243,294 -343,369l-687 589 -256 276 -244 338 -450 407 -231 246 -331 355 -374 570 -238 88 -270 -243zm3922 -3835l-192 -181 680 -345 -38 -337 682 -351 12 -395 418 81 -1154 1240c-169,182 -275,332 -313,450 -43,120 -168,164 -375,139l280 -301zm-3639 4065c-43,296 -131,477 -250,533 -119,57 -274,188 -462,390l-437 512c-151,-243 -151,-413 5,-506 157,-95 338,-176 550,-258l-275 -249 438 -58 431 -364zm9313 -82c-74,-101 -112,-163 -112,-182 -1,-12 6,-25 26,-25 17,0 43,-25 73,-82 32,-55 63,-155 95,-294l1170 224 31 189c-313,42 -544,36 -694,-19 -158,-57 -350,7 -589,189zm-13749 7458l-870 -804 49 -58 319 144 170 313 769 50 -437 355zm1586 -1741l76 69 -382 407c-69,75 -112,120 -131,139 -12,17 -25,24 -38,17 -5,-4 -17,-12 -37,-12 -12,8 -56,26 -124,64l-89 -289 725 -395zm11639 -9538l294 224 -600 307 -63 -256 369 -275zm-12372 -10852c-37,-107 -76,-170 -101,-195 -24,-25 19,-101 139,-232l80 -81c119,-124 188,-176 207,-137 18,31 87,55 205,67 -99,108 -169,182 -198,220 -38,38 -63,62 -83,81 -12,19 -37,44 -73,82 -33,38 -95,99 -176,195zm1254 17243c-57,-125 -64,-213 -13,-268 88,-95 137,-144 155,-165 19,-17 26,-30 26,-30 0,0 6,7 12,13 13,12 56,6 144,-13l38 237 -362 226zm6672 -8699c144,-6 251,-20 313,-32 63,-13 163,-45 307,-82l63 207c-182,50 -295,82 -344,93 -43,13 -157,-48 -339,-186zm-6690 -9879c-44,-207 -7,-364 113,-451 118,-93 268,-144 444,-150l-557 601zm5476 5702l-6 -206 438 0 57 205 -489 1zm7986 5842c-82,163 -107,232 -76,213 38,-18 -31,-24 -211,-18l199 -426 243 68 -155 163zm-7689 -795c174,-180 256,-275 256,-275 0,0 112,69 332,200l-588 75zm-4763 6859l-368 318 -76 -268 444 -50zm1564 -3976l-89 -231 264 -63 88 232 -263 62zm-10191 3319c-43,-212 -62,-330 -50,-356 6,-25 125,-68 349,-131l-299 487zm19040 -693l250 232c-74,5 -161,11 -281,24 -111,13 -186,20 -224,19l255 -275zm-17903 -860l255 -275 64 262 -319 13zm-1862 2005l255 -276 65 263 -320 13zm1530 -1648l281 -300 64 263 -345 37zm20220 -2015l302 231 -287 88 -15 -319zm-19582 1333l256 -276 87 232 -343 44zm-918 983l255 -276 38 294 -293 -18zm9530 -1605l301 231 -288 89 -13 -320zm-11087 3278l258 -270 62 262 -320 8zm18920 -1875l351 174 -450 43 99 -217zm-11961 6761l343 -37 -66 294 -277 -257zm4080 -18146l295 17 -93 269 -202 -286zm-527 9552l343 -38 -68 294 -275 -256zm-6383 7193l376 -14 -69 294 -307 -280zm4213 -20882l-43 -344 300 68 -257 276zm3395 13749l-13 -312 268 43 -255 269zm23 -1406l344 -39 -68 294 -276 -255zm-3748 -11992l-12 -369 269 99 -257 270zm1243 -1341l-32 -345 270 95 -238 250zm-5709 21177l251 282 -343 -19 92 -263zm18477 -8387l277 257 -319 -44 42 -213zm-14134 -6683l294 -95 -19 351 -275 -256zm-2550 16882l230 -39 39 294 -269 -255zm9388 -12295l149 -162 188 186 -337 -24zm7950 3315l124 -195 163 158 -287 37zm-12954 853l313 -7 -163 231 -150 -224zm1172 936l343 13 -180 193 -163 -206zm-2635 10476l193 125 -205 169 12 -294zm5017 -14902l319 -13 -150 220 -169 -207zm357 663l320 -8 -157 163 -163 -155zm-12153 4761c7,181 19,250 44,225 25,-26 -37,6 -194,101l150 -326zm15349 -9140l375 95 -375 -95z"/>
 </g>
</svg>
