<?xml version="1.0" encoding="UTF-8"?>
<svg version="1.1" xmlns="http://www.w3.org/2000/svg" width="200" height="200">
<path d="M0 0 C66 0 132 0 200 0 C200 66 200 132 200 200 C134 200 68 200 0 200 C0 134 0 68 0 0 Z " fill="#000001" transform="translate(0,0)"/>
<path d="M0 0 C11.7884337 7.82323327 19.67652308 16.7599154 22.8515625 30.62890625 C23.30325269 33.05428616 23.58445891 35.38066021 23.765625 37.8359375 C24.57342489 42.60195686 26.36856295 44.80397652 29.390625 48.5234375 C28.400625 48.5234375 27.410625 48.5234375 26.390625 48.5234375 C25.895625 53.4734375 25.895625 53.4734375 25.390625 58.5234375 C26.710625 58.5234375 28.030625 58.5234375 29.390625 58.5234375 C29.390625 56.8734375 29.390625 55.2234375 29.390625 53.5234375 C30.050625 53.1934375 30.710625 52.8634375 31.390625 52.5234375 C32.74502168 55.23223085 32.45563951 57.53277018 32.390625 60.5234375 C33.586875 60.6678125 34.783125 60.8121875 36.015625 60.9609375 C38.59111857 61.2749111 41.08892304 61.65772558 43.640625 62.1484375 C46.29442351 62.51031911 47.88739234 62.38994111 50.390625 61.5234375 C50.390625 60.8634375 50.390625 60.2034375 50.390625 59.5234375 C49.730625 58.8634375 49.070625 58.2034375 48.390625 57.5234375 C51.140625 55.4609375 51.140625 55.4609375 54.390625 53.5234375 C56.59375 53.90234375 56.59375 53.90234375 58.390625 54.5234375 C57.87371094 55.53664062 57.35679687 56.54984375 56.82421875 57.59375 C56.15802481 58.9449039 55.49270613 60.2964896 54.828125 61.6484375 C54.48587891 62.31359375 54.14363281 62.97875 53.79101562 63.6640625 C51.65695657 68.06151753 51.04676925 70.64773975 52.390625 75.5234375 C52.6690625 76.9465625 52.6690625 76.9465625 52.953125 78.3984375 C53.1696875 79.4503125 53.1696875 79.4503125 53.390625 80.5234375 C54.19886719 80.2346875 55.00710937 79.9459375 55.83984375 79.6484375 C56.90847656 79.2771875 57.97710937 78.9059375 59.078125 78.5234375 C60.13386719 78.1521875 61.18960938 77.7809375 62.27734375 77.3984375 C65.17424556 76.5842518 67.40763123 76.34633954 70.390625 76.5234375 C70.390625 75.8634375 70.390625 75.2034375 70.390625 74.5234375 C71.380625 74.8534375 72.370625 75.1834375 73.390625 75.5234375 C72.03436886 79.59220593 69.43690244 80.38852878 65.828125 82.2109375 C63.70375 83.3040625 61.579375 84.3971875 59.390625 85.5234375 C64.340625 85.1934375 69.290625 84.8634375 74.390625 84.5234375 C74.720625 85.8434375 75.050625 87.1634375 75.390625 88.5234375 C71.96361712 90.03132097 68.64552491 91.44167715 65.078125 92.5859375 C62.28096731 93.34326248 62.28096731 93.34326248 60.390625 95.5234375 C65.010625 96.1834375 69.630625 96.8434375 74.390625 97.5234375 C74.060625 98.5134375 73.730625 99.5034375 73.390625 100.5234375 C69.100625 100.5234375 64.810625 100.5234375 60.390625 100.5234375 C60.390625 101.1834375 60.390625 101.8434375 60.390625 102.5234375 C61.80664214 103.00452025 63.22346937 103.48321891 64.640625 103.9609375 C65.42953125 104.22777344 66.2184375 104.49460937 67.03125 104.76953125 C69.13884488 105.44298458 71.23816473 106.01494345 73.390625 106.5234375 C73.390625 107.8434375 73.390625 109.1634375 73.390625 110.5234375 C67.47570228 110.07118989 62.03862612 109.365177 56.390625 107.5234375 C57.01872673 110.49361444 57.01872673 110.49361444 58.390625 113.5234375 C60.7337059 114.64429062 60.7337059 114.64429062 63.390625 115.5234375 C66.203125 118.1484375 66.203125 118.1484375 68.390625 120.5234375 C66.78465175 120.07147505 65.18089992 119.61161423 63.578125 119.1484375 C62.68480469 118.89320313 61.79148437 118.63796875 60.87109375 118.375 C58.390625 117.5234375 58.390625 117.5234375 55.390625 115.5234375 C53.10665468 115.86949361 51.45653463 116.49048269 49.390625 117.5234375 C49.390625 118.1834375 49.390625 118.8434375 49.390625 119.5234375 C51.370625 119.5234375 53.350625 119.5234375 55.390625 119.5234375 C55.7928125 120.60625 55.7928125 120.60625 56.203125 121.7109375 C57.38044998 124.49933876 58.78208384 126.96439474 60.390625 129.5234375 C56.37327911 128.14606177 53.66320799 126.19317625 50.390625 123.5234375 C48.905625 123.0284375 48.905625 123.0284375 47.390625 122.5234375 C47.05709216 127.30407487 47.89909781 129.51532855 50.390625 133.5234375 C50.060625 134.5134375 49.730625 135.5034375 49.390625 136.5234375 C46.890625 134.7734375 46.890625 134.7734375 44.390625 132.5234375 C44.390625 131.2034375 44.390625 129.8834375 44.390625 128.5234375 C43.75125 128.7090625 43.111875 128.8946875 42.453125 129.0859375 C41.7725 129.2303125 41.091875 129.3746875 40.390625 129.5234375 C40.060625 129.1934375 39.730625 128.8634375 39.390625 128.5234375 C39.09929687 129.13832031 38.80796875 129.75320312 38.5078125 130.38671875 C36.5558203 134.23545809 35.09978286 137.0033884 31.578125 139.5859375 C26.72105917 141.01448627 22.56706665 141.45619821 17.765625 139.3984375 C15.21652009 137.38598626 13.01729312 135.21511476 10.8203125 132.828125 C9.30734856 131.2701778 9.30734856 131.2701778 6.390625 130.5234375 C6.49375 131.2865625 6.596875 132.0496875 6.703125 132.8359375 C6.6 133.7228125 6.496875 134.6096875 6.390625 135.5234375 C3.890625 137.3359375 3.890625 137.3359375 1.390625 138.5234375 C1.535 137.94335938 1.679375 137.36328125 1.828125 136.765625 C3.97731654 128.07809521 3.97731654 128.07809521 1.578125 119.7109375 C-0.29634507 116.29263251 -0.29634507 116.29263251 -3.609375 115.5234375 C-5.296875 112.4609375 -5.296875 112.4609375 -6.609375 109.5234375 C-7.42921875 109.8121875 -8.2490625 110.1009375 -9.09375 110.3984375 C-10.17140625 110.7696875 -11.2490625 111.1409375 -12.359375 111.5234375 C-13.42671875 111.8946875 -14.4940625 112.2659375 -15.59375 112.6484375 C-18.609375 113.5234375 -18.609375 113.5234375 -22.609375 113.5234375 C-22.609375 112.2034375 -22.609375 110.8834375 -22.609375 109.5234375 C-17.24497856 106.84123928 -13.59930547 106.208178 -7.609375 106.5234375 C-7.939375 105.2034375 -8.269375 103.8834375 -8.609375 102.5234375 C-9.516875 102.6884375 -10.424375 102.8534375 -11.359375 103.0234375 C-16.74719975 103.81217061 -22.17850056 103.60369673 -27.609375 103.5234375 C-24.0266862 99.14992107 -18.9319608 99.1830742 -13.609375 98.5234375 C-9.921875 98.3984375 -9.921875 98.3984375 -7.609375 98.5234375 C-6.87603071 94.54589622 -6.87603071 94.54589622 -6.609375 90.5234375 C-7.599375 91.0184375 -7.599375 91.0184375 -8.609375 91.5234375 C-8.609375 92.1834375 -8.609375 92.8434375 -8.609375 93.5234375 C-15.65377579 93.73476952 -21.85050075 93.60309112 -28.609375 91.5234375 C-28.609375 90.8634375 -28.609375 90.2034375 -28.609375 89.5234375 C-27.99449219 89.47445312 -27.37960938 89.42546875 -26.74609375 89.375 C-25.53373047 89.26285156 -25.53373047 89.26285156 -24.296875 89.1484375 C-23.09611328 89.04402344 -23.09611328 89.04402344 -21.87109375 88.9375 C-19.33713059 88.62779324 -19.33713059 88.62779324 -16.609375 86.5234375 C-17.24101563 86.50925781 -17.87265625 86.49507813 -18.5234375 86.48046875 C-31.92333747 85.76606486 -44.41661424 80.94453987 -53.82421875 71.23828125 C-63.80562726 59.50966157 -66.44703785 47.61425766 -65.78417969 32.58837891 C-64.86350017 21.7125306 -57.9188019 12.37445035 -50.171875 5.1484375 C-36.79098713 -6.1196786 -15.49073326 -8.76571433 0 0 Z " fill="#1E58FB" transform="translate(97.609375,29.4765625)"/>
<path d="M0 0 C2.64752004 2.57784846 4.94432065 4.91648098 7 8 C6.01 8 5.02 8 4 8 C3.67 11.3 3.34 14.6 3 18 C4.32 18 5.64 18 7 18 C7 16.35 7 14.7 7 13 C7.66 12.67 8.32 12.34 9 12 C10.35439668 14.70879335 10.06501451 17.00933268 10 20 C11.794375 20.2165625 11.794375 20.2165625 13.625 20.4375 C16.20049357 20.7514736 18.69829804 21.13428808 21.25 21.625 C23.90379851 21.98688161 25.49676734 21.86650361 28 21 C28 20.34 28 19.68 28 19 C27.01 18.01 27.01 18.01 26 17 C28.75 14.9375 28.75 14.9375 32 13 C34.203125 13.37890625 34.203125 13.37890625 36 14 C35.48308594 15.01320313 34.96617187 16.02640625 34.43359375 17.0703125 C33.76739981 18.4214664 33.10208113 19.7730521 32.4375 21.125 C32.09525391 21.79015625 31.75300781 22.4553125 31.40039062 23.140625 C29.26633157 27.53808003 28.65614425 30.12430225 30 35 C30.185625 35.94875 30.37125 36.8975 30.5625 37.875 C30.7790625 38.926875 30.7790625 38.926875 31 40 C31.80824219 39.71125 32.61648437 39.4225 33.44921875 39.125 C34.51785156 38.75375 35.58648437 38.3825 36.6875 38 C37.74324219 37.62875 38.79898438 37.2575 39.88671875 36.875 C42.78362056 36.0608143 45.01700623 35.82290204 48 36 C48 35.34 48 34.68 48 34 C49.485 34.495 49.485 34.495 51 35 C49.64374386 39.06876843 47.04627744 39.86509128 43.4375 41.6875 C41.313125 42.780625 39.18875 43.87375 37 45 C41.95 44.67 46.9 44.34 52 44 C52.495 45.98 52.495 45.98 53 48 C49.57299212 49.50788347 46.25489991 50.91823965 42.6875 52.0625 C39.89034231 52.81982498 39.89034231 52.81982498 38 55 C42.62 55.66 47.24 56.32 52 57 C51.67 57.99 51.34 58.98 51 60 C46.71 60 42.42 60 38 60 C38 60.66 38 61.32 38 62 C39.41601714 62.48108275 40.83284437 62.95978141 42.25 63.4375 C43.03890625 63.70433594 43.8278125 63.97117188 44.640625 64.24609375 C46.74821988 64.91954708 48.84753973 65.49150595 51 66 C51 67.32 51 68.64 51 70 C45.08507728 69.54775239 39.64800112 68.8417395 34 67 C34.62810173 69.97017694 34.62810173 69.97017694 36 73 C38.3430809 74.12085312 38.3430809 74.12085312 41 75 C43.8125 77.625 43.8125 77.625 46 80 C44.39402675 79.54803755 42.79027492 79.08817673 41.1875 78.625 C40.29417969 78.36976563 39.40085937 78.11453125 38.48046875 77.8515625 C36 77 36 77 33 75 C30.71602968 75.34605611 29.06590963 75.96704519 27 77 C27 77.66 27 78.32 27 79 C28.98 79 30.96 79 33 79 C33.4021875 80.0828125 33.4021875 80.0828125 33.8125 81.1875 C34.98982498 83.97590126 36.39145884 86.44095724 38 89 C33.98265411 87.62262427 31.27258299 85.66973875 28 83 C26.515 82.505 26.515 82.505 25 82 C24.66646716 86.78063737 25.50847281 88.99189105 28 93 C27.505 94.485 27.505 94.485 27 96 C24.5 94.25 24.5 94.25 22 92 C22 90.68 22 89.36 22 88 C21.360625 88.185625 20.72125 88.37125 20.0625 88.5625 C19.381875 88.706875 18.70125 88.85125 18 89 C17.67 88.67 17.34 88.34 17 88 C16.70867187 88.61488281 16.41734375 89.22976562 16.1171875 89.86328125 C14.1651953 93.71202059 12.70915786 96.4799509 9.1875 99.0625 C4.33043417 100.49104877 0.17644165 100.93276071 -4.625 98.875 C-7.17410491 96.86254876 -9.37333188 94.69167726 -11.5703125 92.3046875 C-13.08327644 90.7467403 -13.08327644 90.7467403 -16 90 C-15.8453125 91.1446875 -15.8453125 91.1446875 -15.6875 92.3125 C-15.790625 93.199375 -15.89375 94.08625 -16 95 C-18.5 96.8125 -18.5 96.8125 -21 98 C-20.855625 97.41992188 -20.71125 96.83984375 -20.5625 96.2421875 C-18.41330846 87.55465771 -18.41330846 87.55465771 -20.8125 79.1875 C-22.68697007 75.76919501 -22.68697007 75.76919501 -26 75 C-27.6875 71.9375 -27.6875 71.9375 -29 69 C-29.81984375 69.28875 -30.6396875 69.5775 -31.484375 69.875 C-32.56203125 70.24625 -33.6396875 70.6175 -34.75 71 C-35.81734375 71.37125 -36.8846875 71.7425 -37.984375 72.125 C-41 73 -41 73 -45 73 C-45 71.68 -45 70.36 -45 69 C-39.63560356 66.31780178 -35.98993047 65.6847405 -30 66 C-30.33 64.68 -30.66 63.36 -31 62 C-32.36125 62.2475 -32.36125 62.2475 -33.75 62.5 C-39.13782475 63.28873311 -44.56912556 63.08025923 -50 63 C-46.4173112 58.62648357 -41.3225858 58.6596367 -36 58 C-32.3125 57.875 -32.3125 57.875 -30 58 C-29.26665571 54.02245872 -29.26665571 54.02245872 -29 50 C-29.99 50.495 -29.99 50.495 -31 51 C-31 51.66 -31 52.32 -31 53 C-38.04440079 53.21133202 -44.24112575 53.07965362 -51 51 C-51 50.34 -51 49.68 -51 49 C-50.38511719 48.95101562 -49.77023438 48.90203125 -49.13671875 48.8515625 C-48.32847656 48.77679688 -47.52023438 48.70203125 -46.6875 48.625 C-45.48673828 48.52058594 -45.48673828 48.52058594 -44.26171875 48.4140625 C-41.72775559 48.10435574 -41.72775559 48.10435574 -39 46 C-42.63 45.67 -46.26 45.34 -50 45 C-50 44.67 -50 44.34 -50 44 C-46.535 43.505 -46.535 43.505 -43 43 C-43.99 41.68 -44.98 40.36 -46 39 C-45.505 38.505 -45.505 38.505 -45 38 C-40.01229179 38.42268714 -35.71276667 39.2327125 -31 41 C-31 39.68 -31 38.36 -31 37 C-31.804375 36.6596875 -31.804375 36.6596875 -32.625 36.3125 C-35.78500863 34.56617944 -38.2676983 32.3597151 -41 30 C-37.71023192 28.90341064 -36.28696233 29.20046862 -33 30 C-33 30.66 -33 31.32 -33 32 C-31.02 32.66 -29.04 33.32 -27 34 C-27.42683239 32.41375765 -27.86696158 30.8310902 -28.3125 29.25 C-28.55613281 28.36828125 -28.79976562 27.4865625 -29.05078125 26.578125 C-29.87822754 23.95086424 -29.87822754 23.95086424 -31.59375 21.875 C-33.56197992 19.25069344 -33.21740594 17.18862049 -33 14 C-30.23723823 14.52268466 -27.6739124 15.10869587 -25 16 C-24.67 17.98 -24.34 19.96 -24 22 C-20.11044501 22.29919654 -17.17926406 21.81912799 -13.5625 20.5 C-9.479569 19.02599271 -6.31572142 18.72452842 -2 19 C-2.14204741 17.41632253 -2.28880153 15.83306682 -2.4375 14.25 C-2.51871094 13.36828125 -2.59992188 12.4865625 -2.68359375 11.578125 C-2.91971206 9.04130199 -2.91971206 9.04130199 -3.65625 6.84375 C-3.7696875 6.2353125 -3.883125 5.626875 -4 5 C-2.0625 2.25 -2.0625 2.25 0 0 Z " fill="#CBA939" transform="translate(120,70)"/>
<path d="M0 0 C2.64752004 2.57784846 4.94432065 4.91648098 7 8 C6.01 8 5.02 8 4 8 C3.67 11.3 3.34 14.6 3 18 C4.32 18 5.64 18 7 18 C7 16.35 7 14.7 7 13 C7.66 12.67 8.32 12.34 9 12 C10.35439668 14.70879335 10.06501451 17.00933268 10 20 C11.794375 20.2165625 11.794375 20.2165625 13.625 20.4375 C16.20049357 20.7514736 18.69829804 21.13428808 21.25 21.625 C23.90379851 21.98688161 25.49676734 21.86650361 28 21 C28 20.34 28 19.68 28 19 C27.34 18.34 26.68 17.68 26 17 C28.75 14.9375 28.75 14.9375 32 13 C34.203125 13.37890625 34.203125 13.37890625 36 14 C35.50628906 15.02480469 35.01257813 16.04960938 34.50390625 17.10546875 C33.85647794 18.4660065 33.20935879 19.82669139 32.5625 21.1875 C32.07426758 22.19780273 32.07426758 22.19780273 31.57617188 23.22851562 C29.88320189 26.80644187 28.54637879 30.03682994 28 34 C27.34 34 26.68 34 26 34 C25.67 34.99 25.34 35.98 25 37 C22.47740939 35.02579865 22.0070192 34.03254358 21.3125 30.8125 C21.209375 29.884375 21.10625 28.95625 21 28 C20.34 28 19.68 28 19 28 C18.67 28.66 18.34 29.32 18 30 C13.545 29.01 13.545 29.01 9 28 C8.67 28.66 8.34 29.32 8 30 C7.13048706 29.97643433 7.13048706 29.97643433 6.2434082 29.95239258 C3.59987261 29.88977209 0.95649345 29.85092482 -1.6875 29.8125 C-3.05551758 29.77479492 -3.05551758 29.77479492 -4.45117188 29.73632812 C-11.27864277 29.584529 -11.27864277 29.584529 -17 33 C-17.60024521 35.04285061 -17.60024521 35.04285061 -17.3125 37.1875 C-17.209375 38.445625 -17.10625 39.70375 -17 41 C-13.7 41.33 -10.4 41.66 -7 42 C-7 42.66 -7 43.32 -7 44 C-6.34 44 -5.68 44 -5 44 C-5.66 46.31 -6.32 48.62 -7 51 C-10.465 50.505 -10.465 50.505 -14 50 C-14.85650653 52.80045046 -14.85650653 52.80045046 -15 56 C-13.12491838 58.2085766 -13.12491838 58.2085766 -11 60 C-11 60.99 -11 61.98 -11 63 C-11.99 63 -12.98 63 -14 63 C-14 64.32 -14 65.64 -14 67 C-12.68 67.66 -11.36 68.32 -10 69 C-10.99 70.175625 -10.99 70.175625 -12 71.375 C-14.20201441 73.71512812 -14.20201441 73.71512812 -14 76 C-12.35 75.01 -10.7 74.02 -9 73 C-10.49097658 76.7952131 -12.75700849 78.61042731 -16 81 C-17.9451 78.08235 -18.45276317 76.37462715 -19 73 C-19.99 73.495 -19.99 73.495 -21 74 C-21 73.01 -21 72.02 -21 71 C-21.99 71 -22.98 71 -24 71 C-24.495 71.99 -24.495 71.99 -25 73 C-29.33824387 66.08967479 -27.17868578 55.66145754 -26 48 C-25.4147552 38.21805119 -26.31086031 29.97450653 -31.95703125 21.828125 C-33.45975171 19.19414307 -33.36913066 16.95304528 -33 14 C-30.23723823 14.52268466 -27.6739124 15.10869587 -25 16 C-24.67 17.98 -24.34 19.96 -24 22 C-20.11044501 22.29919654 -17.17926406 21.81912799 -13.5625 20.5 C-9.479569 19.02599271 -6.31572142 18.72452842 -2 19 C-2.14204741 17.41632253 -2.28880153 15.83306682 -2.4375 14.25 C-2.51871094 13.36828125 -2.59992188 12.4865625 -2.68359375 11.578125 C-2.91971206 9.04130199 -2.91971206 9.04130199 -3.65625 6.84375 C-3.7696875 6.2353125 -3.883125 5.626875 -4 5 C-2.0625 2.25 -2.0625 2.25 0 0 Z " fill="#CDAB37" transform="translate(120,70)"/>
<path d="M0 0 C1.33033666 3.99100997 0.38325337 7.18587844 -0.4375 11.1875 C-0.953125 13.765625 -1.46875 16.34375 -2 19 C3.61 19 9.22 19 15 19 C15 24.11091054 14.61041624 25.23372463 12 29.3125 C11.443125 30.19550781 10.88625 31.07851562 10.3125 31.98828125 C9.879375 32.65214844 9.44625 33.31601563 9 34 C9.66 34 10.32 34 11 34 C11 34.99 11 35.98 11 37 C11.99 37 12.98 37 14 37 C15.6875 38.5 15.6875 38.5 17 40 C17.33 39.01 17.66 38.02 18 37 C19.65 37 21.3 37 23 37 C23 37.99 23 38.98 23 40 C23.66 40 24.32 40 25 40 C25.33 40.66 25.66 41.32 26 42 C26.99 42 27.98 42 29 42 C30.32 37.71 31.64 33.42 33 29 C33.66 29 34.32 29 35 29 C35.103125 28.360625 35.20625 27.72125 35.3125 27.0625 C35.539375 26.381875 35.76625 25.70125 36 25 C36.99 24.67 37.98 24.34 39 24 C39.33 22.02 39.66 20.04 40 18 C40.33 18 40.66 18 41 18 C41.44759534 23.70684056 40.60644032 25.69553898 37 30 C37.36647559 31.88994964 37.36647559 31.88994964 38 34 C38.06624507 35.74886981 38.08552595 37.50002748 38.0625 39.25 C38.05347656 40.14203125 38.04445312 41.0340625 38.03515625 41.953125 C38.02355469 42.62859375 38.01195312 43.3040625 38 44 C36.92878906 44.20496094 35.85757813 44.40992188 34.75390625 44.62109375 C33.35673149 44.89302709 31.95959819 45.16517352 30.5625 45.4375 C29.85544922 45.57220703 29.14839844 45.70691406 28.41992188 45.84570312 C24.91570736 46.28406898 24.91570736 46.28406898 22 48 C19 48.125 19 48.125 16 48 C15 47 15 47 14.9375 43.9375 C14.958125 42.968125 14.97875 41.99875 15 41 C14.4225 40.855625 13.845 40.71125 13.25 40.5625 C11.16666667 40.04166667 9.08333333 39.52083333 7 39 C8.25581137 43.93677751 8.25581137 43.93677751 10.5625 48.4375 C12.54221889 51.96656411 12.65947658 54.98182366 13 59 C10.83125748 58.49396008 9.00032373 58.00016187 7 57 C7 56.34 7 55.68 7 55 C4.69 55 2.38 55 0 55 C0.99 56.32 1.98 57.64 3 59 C1.02 58.34 -0.96 57.68 -3 57 C-3 55.02 -3 53.04 -3 51 C-5.64 51 -8.28 51 -11 51 C-11.02688151 49.35425434 -11.04634123 47.70838587 -11.0625 46.0625 C-11.07410156 45.14597656 -11.08570312 44.22945312 -11.09765625 43.28515625 C-11 41 -11 41 -10 40 C-9.63239269 37.67182036 -9.29758419 35.3381615 -9 33 C-10.794375 33.061875 -10.794375 33.061875 -12.625 33.125 C-16.42329953 33.13851708 -19.44975618 32.42009753 -23 31 C-22.67 28.69 -22.34 26.38 -22 24 C-21.34 24 -20.68 24 -20 24 C-19.7525 23.38125 -19.505 22.7625 -19.25 22.125 C-18 20 -18 20 -16.12182617 19.10961914 C-13.59966101 17.79064081 -12.49349221 16.3964073 -10.80078125 14.12109375 C-9.94709961 12.98704102 -9.94709961 12.98704102 -9.07617188 11.83007812 C-8.49416016 11.04052734 -7.91214844 10.25097656 -7.3125 9.4375 C-6.14229867 7.87341983 -4.97174458 6.30960351 -3.80078125 4.74609375 C-3.28684814 4.05185303 -2.77291504 3.3576123 -2.2434082 2.64233398 C-1 1 -1 1 0 0 Z " fill="#1D58F3" transform="translate(80,45)"/>
<path d="M0 0 C0.87333984 -0.01224609 1.74667969 -0.02449219 2.64648438 -0.03710938 C10.08647884 -0.05377852 16.44427043 1.18264956 23.3125 4.1875 C23.3125 6.8275 23.3125 9.4675 23.3125 12.1875 C21.04250175 12.69127768 18.77146997 13.19040019 16.5 13.6875 C15.23542969 13.9659375 13.97085938 14.244375 12.66796875 14.53125 C9.3125 15.1875 9.3125 15.1875 6.3125 15.1875 C6.3125 16.5075 6.3125 17.8275 6.3125 19.1875 C10.6025 19.1875 14.8925 19.1875 19.3125 19.1875 C18.8175 17.2075 18.8175 17.2075 18.3125 15.1875 C19.6325 15.1875 20.9525 15.1875 22.3125 15.1875 C22.3125 15.8475 22.3125 16.5075 22.3125 17.1875 C22.9725 17.1875 23.6325 17.1875 24.3125 17.1875 C27.36704545 21.26022727 27.36704545 21.26022727 27.1875 24.3125 C26.18549048 26.45966326 25.16019685 27.70934252 23.3125 29.1875 C22.6525 29.1875 21.9925 29.1875 21.3125 29.1875 C21.32410156 29.77917969 21.33570313 30.37085938 21.34765625 30.98046875 C21.42387848 37.65535837 21.42387848 37.65535837 20.75 40.875 C20.18928855 43.8387605 20.69939572 46.258224 21.3125 49.1875 C20.51199219 48.36765625 19.71148437 47.5478125 18.88671875 46.703125 C14.8473449 43.33875958 11.1764253 43.64252626 6.125 43.9375 C4.52749234 43.99879526 2.9298314 44.05624781 1.33203125 44.109375 C0.63182861 44.14643555 -0.06837402 44.18349609 -0.78979492 44.22167969 C-2.6875 44.1875 -2.6875 44.1875 -5.6875 43.1875 C-4.72259792 40.55594888 -4.11633979 39.41152079 -1.59375 38.09375 C1.97027428 36.98238759 5.42299329 36.73254433 9.125 36.5625 C9.81787109 36.52382812 10.51074219 36.48515625 11.22460938 36.4453125 C12.92017015 36.35176432 14.61629712 36.26857636 16.3125 36.1875 C15.3225 35.589375 14.3325 34.99125 13.3125 34.375 C12.3225 33.653125 11.3325 32.93125 10.3125 32.1875 C10.3125 31.1975 10.3125 30.2075 10.3125 29.1875 C9.24 29.373125 8.1675 29.55875 7.0625 29.75 C3.90858454 30.1179568 2.21431508 30.23215343 -0.6875 29.1875 C-0.89375 29.765 -1.1 30.3425 -1.3125 30.9375 C-3.20375222 34.03227636 -5.58785937 35.3793763 -8.6875 37.1875 C-9.3475 37.1875 -10.0075 37.1875 -10.6875 37.1875 C-10.6875 36.1975 -10.6875 35.2075 -10.6875 34.1875 C-10.0275 34.1875 -9.3675 34.1875 -8.6875 34.1875 C-10.20956009 31.55848712 -11.53115964 29.34384036 -13.6875 27.1875 C-13.33394564 24.92475212 -12.71205574 23.23661148 -11.6875 21.1875 C-9.3775 21.5175 -7.0675 21.8475 -4.6875 22.1875 C-4.543125 21.40375 -4.39875 20.62 -4.25 19.8125 C-3.6875 17.1875 -3.6875 17.1875 -2.6875 15.1875 C-3.3475 15.1875 -4.0075 15.1875 -4.6875 15.1875 C-4.6875 14.5275 -4.6875 13.8675 -4.6875 13.1875 C-5.39777344 13.19910156 -6.10804687 13.21070312 -6.83984375 13.22265625 C-7.75894531 13.23167969 -8.67804688 13.24070312 -9.625 13.25 C-10.54152344 13.26160156 -11.45804687 13.27320312 -12.40234375 13.28515625 C-14.6875 13.1875 -14.6875 13.1875 -15.6875 12.1875 C-16.15874825 4.88315217 -16.15874825 4.88315217 -14.375 2.25 C-9.90559482 -0.56406993 -5.08048084 0.00366822 0 0 Z " fill="#0E0908" transform="translate(117.6875,98.8125)"/>
<path d="M0 0 C1.65 0 3.3 0 5 0 C5 0.66 5 1.32 5 2 C4.31292969 2.15855469 3.62585938 2.31710938 2.91796875 2.48046875 C-2.78291401 3.80071961 -2.78291401 3.80071961 -7 7.5625 C-7.33 8.366875 -7.66 9.17125 -8 10 C-8.66 10.66 -9.32 11.32 -10 12 C-10.46162427 14.43252661 -10.46162427 14.43252661 -10.625 17.125 C-10.74875 18.73375 -10.8725 20.3425 -11 22 C-7.04 22 -3.08 22 1 22 C1 22.66 1 23.32 1 24 C1.66 24 2.32 24 3 24 C2.34 26.31 1.68 28.62 1 31 C-1.31 30.67 -3.62 30.34 -6 30 C-6.85650653 32.80045046 -6.85650653 32.80045046 -7 36 C-5.12491838 38.2085766 -5.12491838 38.2085766 -3 40 C-3 40.99 -3 41.98 -3 43 C-3.99 43 -4.98 43 -6 43 C-6 44.32 -6 45.64 -6 47 C-4.68 47.66 -3.36 48.32 -2 49 C-2.66 49.78375 -3.32 50.5675 -4 51.375 C-6.20201441 53.71512812 -6.20201441 53.71512812 -6 56 C-4.35 55.01 -2.7 54.02 -1 53 C-2.49097658 56.7952131 -4.75700849 58.61042731 -8 61 C-9.9451 58.08235 -10.45276317 56.37462715 -11 53 C-11.99 53.495 -11.99 53.495 -13 54 C-13 53.01 -13 52.02 -13 51 C-13.99 51 -14.98 51 -16 51 C-16.33 51.66 -16.66 52.32 -17 53 C-21.89316158 44.96123455 -18.84418305 32.18621594 -17.71191406 23.21826172 C-16.88171801 16.60180599 -16.94109669 10.61814567 -18 4 C-17.36191406 4.01160156 -16.72382812 4.02320312 -16.06640625 4.03515625 C-15.24011719 4.04417969 -14.41382812 4.05320312 -13.5625 4.0625 C-12.32693359 4.07990234 -12.32693359 4.07990234 -11.06640625 4.09765625 C-9.00836062 4.23267348 -9.00836062 4.23267348 -8 3 C-5.66702567 2.95907063 -3.33294775 2.95758277 -1 3 C-0.67 2.01 -0.34 1.02 0 0 Z " fill="#CEAC37" transform="translate(112,90)"/>
<path d="M0 0 C3.72516182 3.72516182 3.0632465 10.00643245 3.125 15.0625 C3.09931745 17.89186105 2.93172337 20.4437981 2.5 23.25 C1.61650212 29.87623408 0.86630701 37.59892103 3 44 C4.98 43.505 4.98 43.505 7 43 C7 44.65 7 46.3 7 48 C7.66 48 8.32 48 9 48 C9.25394531 48.63808594 9.50789063 49.27617187 9.76953125 49.93359375 C10.11371094 50.75988281 10.45789063 51.58617187 10.8125 52.4375 C11.14894531 53.26121094 11.48539063 54.08492187 11.83203125 54.93359375 C12.88403088 57.33372488 12.88403088 57.33372488 16 58 C16 59.65 16 61.3 16 63 C14.68 62.67 13.36 62.34 12 62 C12.103125 62.763125 12.20625 63.52625 12.3125 64.3125 C12.209375 65.199375 12.10625 66.08625 12 67 C9.5 68.8125 9.5 68.8125 7 70 C7.144375 69.41992188 7.28875 68.83984375 7.4375 68.2421875 C9.58669154 59.55465771 9.58669154 59.55465771 7.1875 51.1875 C5.31302993 47.76919501 5.31302993 47.76919501 2 47 C0.3125 43.9375 0.3125 43.9375 -1 41 C-1.81984375 41.28875 -2.6396875 41.5775 -3.484375 41.875 C-4.56203125 42.24625 -5.6396875 42.6175 -6.75 43 C-7.81734375 43.37125 -8.8846875 43.7425 -9.984375 44.125 C-13 45 -13 45 -17 45 C-17 43.68 -17 42.36 -17 41 C-11.63560356 38.31780178 -7.98993047 37.6847405 -2 38 C-2.33 36.68 -2.66 35.36 -3 34 C-4.36125 34.2475 -4.36125 34.2475 -5.75 34.5 C-11.13782475 35.28873311 -16.56912556 35.08025923 -22 35 C-18.4173112 30.62648357 -13.3225858 30.6596367 -8 30 C-4.3125 29.875 -4.3125 29.875 -2 30 C-1.26665571 26.02245872 -1.26665571 26.02245872 -1 22 C-1.66 22.33 -2.32 22.66 -3 23 C-3 23.66 -3 24.32 -3 25 C-10.04440079 25.21133202 -16.24112575 25.07965362 -23 23 C-23 22.34 -23 21.68 -23 21 C-22.38511719 20.95101562 -21.77023438 20.90203125 -21.13671875 20.8515625 C-20.32847656 20.77679688 -19.52023438 20.70203125 -18.6875 20.625 C-17.88699219 20.55539063 -17.08648437 20.48578125 -16.26171875 20.4140625 C-13.72775559 20.10435574 -13.72775559 20.10435574 -11 18 C-14.63 17.67 -18.26 17.34 -22 17 C-22 16.67 -22 16.34 -22 16 C-18.535 15.505 -18.535 15.505 -15 15 C-15.99 13.68 -16.98 12.36 -18 11 C-17.67 10.67 -17.34 10.34 -17 10 C-12.01229179 10.42268714 -7.71276667 11.2327125 -3 13 C-3 11.68 -3 10.36 -3 9 C-3.804375 8.6596875 -3.804375 8.6596875 -4.625 8.3125 C-7.78500863 6.56617944 -10.2676983 4.3597151 -13 2 C-9.71023192 0.90341064 -8.28696233 1.20046862 -5 2 C-5 2.66 -5 3.32 -5 4 C-3.02 4.66 -1.04 5.32 1 6 C0.67 4.02 0.34 2.04 0 0 Z " fill="#A89047" transform="translate(92,98)"/>
<path d="M0 0 C1.33033666 3.99100997 0.38325337 7.18587844 -0.4375 11.1875 C-0.953125 13.765625 -1.46875 16.34375 -2 19 C3.28 19 8.56 19 14 19 C12.33950953 23.15122617 11.35628221 25.06838211 8.625 28.3125 C4.20584534 33.6757098 0.0661985 39.2211677 -4.05029297 44.81762695 C-5.34404209 46.56224073 -6.66904566 48.28360128 -8 50 C-8.33 50 -8.66 50 -9 50 C-8.45043021 43.2026894 -7.42905169 36.6689079 -6 30 C-11.28 30 -16.56 30 -22 30 C-20.223648 26.44729601 -18.38928144 23.70696503 -16 20.5625 C-15.2059375 19.51578125 -14.411875 18.4690625 -13.59375 17.390625 C-12.72960597 16.26008074 -11.86500734 15.12988385 -11 14 C-10.54367188 13.40251953 -10.08734375 12.80503906 -9.6171875 12.18945312 C-1.28351244 1.28351244 -1.28351244 1.28351244 0 0 Z " fill="#F9FBFA" transform="translate(80,45)"/>
<path d="M0 0 C0.99 0.33 1.98 0.66 3 1 C1.64374386 5.06876843 -0.95372256 5.86509128 -4.5625 7.6875 C-6.686875 8.780625 -8.81125 9.87375 -11 11 C-6.05 10.67 -1.1 10.34 4 10 C4.33 11.32 4.66 12.64 5 14 C1.57299212 15.50788347 -1.74510009 16.91823965 -5.3125 18.0625 C-8.10965769 18.81982498 -8.10965769 18.81982498 -10 21 C-5.38 21.66 -0.76 22.32 4 23 C3.67 23.99 3.34 24.98 3 26 C-1.29 26 -5.58 26 -10 26 C-10 26.66 -10 27.32 -10 28 C-8.58398286 28.48108275 -7.16715563 28.95978141 -5.75 29.4375 C-4.96109375 29.70433594 -4.1721875 29.97117188 -3.359375 30.24609375 C-1.25178012 30.91954708 0.84753973 31.49150595 3 32 C3 33.32 3 34.64 3 36 C-2.91492272 35.54775239 -8.35199888 34.8417395 -14 33 C-13.37189827 35.97017694 -13.37189827 35.97017694 -12 39 C-9.6569191 40.12085312 -9.6569191 40.12085312 -7 41 C-4.1875 43.625 -4.1875 43.625 -2 46 C-7.6143991 44.43551329 -12.86810338 42.83604813 -18 40 C-17.67475342 39.42580322 -17.34950684 38.85160645 -17.0144043 38.26000977 C-15.94699944 35.88191909 -15.75448436 34.42171382 -15.76953125 31.83984375 C-15.77082031 31.0506958 -15.77210938 30.26154785 -15.7734375 29.44848633 C-15.78632813 28.61986084 -15.79921875 27.79123535 -15.8125 26.9375 C-15.81894531 26.09147217 -15.82539063 25.24544434 -15.83203125 24.3737793 C-15.90739712 18.21556305 -16.23057243 12.11420121 -17 6 C-15.10751181 5.32389577 -13.2108398 4.65949561 -11.3125 4 C-10.25675781 3.62875 -9.20101562 3.2575 -8.11328125 2.875 C-5.21637944 2.0608143 -2.98299377 1.82290204 0 2 C0 1.34 0 0.68 0 0 Z " fill="#221912" transform="translate(168,104)"/>
<path d="M0 0 C2.64752004 2.57784846 4.94432065 4.91648098 7 8 C6.01 8 5.02 8 4 8 C3.67 11.3 3.34 14.6 3 18 C4.32 18 5.64 18 7 18 C7 16.35 7 14.7 7 13 C7.66 12.67 8.32 12.34 9 12 C10.35439668 14.70879335 10.06501451 17.00933268 10 20 C12.64 20.33 15.28 20.66 18 21 C13.80356351 22.29121123 9.7575084 22.77424574 5.66796875 20.97265625 C2.57532451 19.84517687 0.50764255 19.91543131 -2.75 20.25 C-3.71421875 20.33765625 -4.6784375 20.4253125 -5.671875 20.515625 C-6.44015625 20.67546875 -7.2084375 20.8353125 -8 21 C-8.33 21.66 -8.66 22.32 -9 23 C-11.32716 23.37400786 -13.66117862 23.70764733 -16 24 C-16.33 24.33 -16.66 24.66 -17 25 C-23.52542373 25.23728814 -23.52542373 25.23728814 -26 24 C-25.67 25.03125 -25.34 26.0625 -25 27.125 C-24.0284808 30.48426709 -23.82883229 33.49106202 -24 37 C-24.99 37.495 -24.99 37.495 -26 38 C-26.08636719 37.3709375 -26.17273438 36.741875 -26.26171875 36.09375 C-27.19785076 30.39107428 -28.678605 26.55828838 -31.95703125 21.828125 C-33.45975171 19.19414307 -33.36913066 16.95304528 -33 14 C-30.23723823 14.52268466 -27.6739124 15.10869587 -25 16 C-24.67 17.98 -24.34 19.96 -24 22 C-20.11044501 22.29919654 -17.17926406 21.81912799 -13.5625 20.5 C-9.479569 19.02599271 -6.31572142 18.72452842 -2 19 C-2.14204741 17.41632253 -2.28880153 15.83306682 -2.4375 14.25 C-2.51871094 13.36828125 -2.59992188 12.4865625 -2.68359375 11.578125 C-2.91971206 9.04130199 -2.91971206 9.04130199 -3.65625 6.84375 C-3.7696875 6.2353125 -3.883125 5.626875 -4 5 C-2.0625 2.25 -2.0625 2.25 0 0 Z " fill="#BB9E48" transform="translate(120,70)"/>
<path d="M0 0 C0.89267578 0.00322266 1.78535156 0.00644531 2.70507812 0.00976562 C4.09823242 0.02233398 4.09823242 0.02233398 5.51953125 0.03515625 C6.45990234 0.03966797 7.40027344 0.04417969 8.36914062 0.04882812 C10.69016837 0.06060999 13.01106769 0.07706067 15.33203125 0.09765625 C15.66203125 0.75765625 15.99203125 1.41765625 16.33203125 2.09765625 C15.57277344 2.64035156 14.81351563 3.18304688 14.03125 3.7421875 C12.54044922 4.81533203 12.54044922 4.81533203 11.01953125 5.91015625 C10.03339844 6.61785156 9.04726562 7.32554688 8.03125 8.0546875 C5.93145938 9.64396462 4.11168156 11.17223254 2.33203125 13.09765625 C3.65203125 14.08765625 4.97203125 15.07765625 6.33203125 16.09765625 C6.00203125 17.41765625 5.67203125 18.73765625 5.33203125 20.09765625 C3.68203125 20.42765625 2.03203125 20.75765625 0.33203125 21.09765625 C0.83807117 18.92891373 1.33186938 17.09797998 2.33203125 15.09765625 C1.67203125 15.09765625 1.01203125 15.09765625 0.33203125 15.09765625 C0.33203125 14.43765625 0.33203125 13.77765625 0.33203125 13.09765625 C-0.37824219 13.10925781 -1.08851562 13.12085937 -1.8203125 13.1328125 C-2.73941406 13.14183594 -3.65851563 13.15085937 -4.60546875 13.16015625 C-5.52199219 13.17175781 -6.43851562 13.18335937 -7.3828125 13.1953125 C-9.66796875 13.09765625 -9.66796875 13.09765625 -10.66796875 12.09765625 C-11.139217 4.79330842 -11.139217 4.79330842 -9.35546875 2.16015625 C-6.23624651 0.1962015 -3.58210768 -0.02281597 0 0 Z " fill="#A58B45" transform="translate(112.66796875,98.90234375)"/>
<path d="M0 0 C0.33 0 0.66 0 1 0 C1.44759534 5.70684056 0.60644032 7.69553898 -3 12 C-2.63352441 13.88994964 -2.63352441 13.88994964 -2 16 C-1.93375493 17.74886981 -1.91447405 19.50002748 -1.9375 21.25 C-1.94652344 22.14203125 -1.95554688 23.0340625 -1.96484375 23.953125 C-1.97644531 24.62859375 -1.98804688 25.3040625 -2 26 C-3.07121094 26.20496094 -4.14242187 26.40992187 -5.24609375 26.62109375 C-6.64326851 26.89302709 -8.04040181 27.16517352 -9.4375 27.4375 C-10.14455078 27.57220703 -10.85160156 27.70691406 -11.58007812 27.84570312 C-15.08429264 28.28406898 -15.08429264 28.28406898 -18 30 C-21 30.125 -21 30.125 -24 30 C-25 29 -25 29 -25.0625 25.9375 C-25.0315625 24.4834375 -25.0315625 24.4834375 -25 23 C-25.5775 22.855625 -26.155 22.71125 -26.75 22.5625 C-28.83333333 22.04166667 -30.91666667 21.52083333 -33 21 C-33 22.98 -33 24.96 -33 27 C-35.11180592 24.42910583 -36.66306057 22.36939433 -37 19 C-36.34 18.34 -35.68 17.68 -35 17 C-35 17.66 -35 18.32 -35 19 C-34.07767578 18.94779297 -34.07767578 18.94779297 -33.13671875 18.89453125 C-32.32847656 18.86746094 -31.52023438 18.84039062 -30.6875 18.8125 C-29.48673828 18.76029297 -29.48673828 18.76029297 -28.26171875 18.70703125 C-25.52148416 19.06198392 -24.70828921 19.89366282 -23 22 C-22.67 21.01 -22.34 20.02 -22 19 C-20.35 19 -18.7 19 -17 19 C-17 19.99 -17 20.98 -17 22 C-16.34 22 -15.68 22 -15 22 C-14.67 22.66 -14.34 23.32 -14 24 C-13.01 24 -12.02 24 -11 24 C-9.68 19.71 -8.36 15.42 -7 11 C-6.34 11 -5.68 11 -5 11 C-4.8453125 10.0409375 -4.8453125 10.0409375 -4.6875 9.0625 C-4.3471875 8.0415625 -4.3471875 8.0415625 -4 7 C-3.01 6.67 -2.02 6.34 -1 6 C-0.67 4.02 -0.34 2.04 0 0 Z " fill="#355ED3" transform="translate(120,63)"/>
<path d="M0 0 C2.9375 1.0625 2.9375 1.0625 5 2 C5 4.64 5 7.28 5 10 C2.77228658 10.50643553 0.54275924 11.0048962 -1.6875 11.5 C-2.92886719 11.7784375 -4.17023438 12.056875 -5.44921875 12.34375 C-8.43815999 12.89616158 -10.98526474 13.06936559 -14 13 C-15.299375 13.3403125 -15.299375 13.3403125 -16.625 13.6875 C-17.40875 13.790625 -18.1925 13.89375 -19 14 C-20.6484375 12.51953125 -20.6484375 12.51953125 -22 11 C-20.44233138 9.55726615 -18.87864043 8.12103292 -17.3125 6.6875 C-16.44238281 5.88699219 -15.57226562 5.08648437 -14.67578125 4.26171875 C-9.43621716 -0.16705148 -6.85094071 -1.59039695 0 0 Z " fill="#0B0706" transform="translate(136,101)"/>
<path d="M0 0 C5.28 0.66 10.56 1.32 16 2 C15.67 2.99 15.34 3.98 15 5 C10.71 5 6.42 5 2 5 C2 5.66 2 6.32 2 7 C3.41601714 7.48108275 4.83284437 7.95978141 6.25 8.4375 C7.03890625 8.70433594 7.8278125 8.97117188 8.640625 9.24609375 C10.74821988 9.91954708 12.84753973 10.49150595 15 11 C15 12.32 15 13.64 15 15 C9.08507728 14.54775239 3.64800112 13.8417395 -2 12 C-1.37189827 14.97017694 -1.37189827 14.97017694 0 18 C2.3430809 19.12085312 2.3430809 19.12085312 5 20 C7.8125 22.625 7.8125 22.625 10 25 C4.3856009 23.43551329 -0.86810338 21.83604813 -6 19 C-5.79503906 18.43152344 -5.59007812 17.86304688 -5.37890625 17.27734375 C-3.70907331 12.4915546 -2.53623064 8.04056799 -2 3 C-1.34 3 -0.68 3 0 3 C0 2.01 0 1.02 0 0 Z " fill="#1D130E" transform="translate(156,125)"/>
<path d="M0 0 C0.66 0 1.32 0 2 0 C5.05454545 4.07272727 5.05454545 4.07272727 4.875 7.125 C3.87299048 9.27216326 2.84769685 10.52184252 1 12 C0.34 12 -0.32 12 -1 12 C-0.98839844 12.59167969 -0.97679687 13.18335938 -0.96484375 13.79296875 C-0.88862152 20.46785837 -0.88862152 20.46785837 -1.5625 23.6875 C-2.12321145 26.6512605 -1.61310428 29.070724 -1 32 C-1.80050781 31.18015625 -2.60101563 30.3603125 -3.42578125 29.515625 C-7.4651551 26.15125958 -11.1360747 26.45502626 -16.1875 26.75 C-17.78500766 26.81129526 -19.3826686 26.86874781 -20.98046875 26.921875 C-21.68067139 26.95893555 -22.38087402 26.99599609 -23.10229492 27.03417969 C-25 27 -25 27 -28 26 C-27.06647083 23.45401134 -26.416291 22.23788057 -24.03125 20.875 C-19.72660472 19.63242198 -15.64143729 19.78864477 -11.1875 19.875 C-10.30384766 19.88402344 -9.42019531 19.89304688 -8.50976562 19.90234375 C-6.33972641 19.92580363 -4.16982753 19.96167135 -2 20 C-2.99 18.68 -3.98 17.36 -5 16 C-3.55922954 12.63820226 -1.75249979 10.40843732 1 8 C1.66 8 2.32 8 3 8 C2.01 5.36 1.02 2.72 0 0 Z " fill="#B19337" transform="translate(140,116)"/>
<path d="M0 0 C3.63 0 7.26 0 11 0 C11.33 0.99 11.66 1.98 12 3 C13.97485205 4.3703055 15.97386717 5.70672372 18 7 C18 7.33 18 7.66 18 8 C16.37191406 8.05607422 16.37191406 8.05607422 14.7109375 8.11328125 C13.26559261 8.17897875 11.82028161 8.24542476 10.375 8.3125 C9.66214844 8.33505859 8.94929688 8.35761719 8.21484375 8.38085938 C3.49554657 8.61898905 0.10417977 9.4427803 -4 12 C-4.33 12.66 -4.66 13.32 -5 14 C-4.01 14.33 -3.02 14.66 -2 15 C-5 16 -8 17 -11 18 C-11.33 17.01 -11.66 16.02 -12 15 C-10.68 13.68 -9.36 12.36 -8 11 C-8.99 10.34 -9.98 9.68 -11 9 C-10.67 7.68 -10.34 6.36 -10 5 C-10 5.99 -10 6.98 -10 8 C-8.51714758 7.04737966 -7.03881799 6.08771595 -5.5625 5.125 C-4.32693359 4.32449219 -4.32693359 4.32449219 -3.06640625 3.5078125 C-0.88961129 2.16165694 -0.88961129 2.16165694 0 0 Z " fill="#C8A740" transform="translate(117,128)"/>
<path d="M0 0 C2 2 2 2 2.23046875 4.05859375 C2.20919922 5.23615234 2.20919922 5.23615234 2.1875 6.4375 C2.18105469 7.21996094 2.17460938 8.00242187 2.16796875 8.80859375 C2 11 2 11 1 14 C-3.51560826 17.0104055 -6.78986889 17.31220069 -12.09375 16.58984375 C-15.13335839 15.64930919 -16.38581827 13.6230453 -18 11 C-17.67 10.67 -17.34 10.34 -17 10 C-12.01229179 10.42268714 -7.71276667 11.2327125 -3 13 C-3 11.68 -3 10.36 -3 9 C-3.53625 8.773125 -4.0725 8.54625 -4.625 8.3125 C-7.78500863 6.56617944 -10.2676983 4.3597151 -13 2 C-9.71023192 0.90341064 -8.28696233 1.20046862 -5 2 C-5 2.66 -5 3.32 -5 4 C-3.02 4.66 -1.04 5.32 1 6 C0.67 4.02 0.34 2.04 0 0 Z " fill="#425CA1" transform="translate(92,98)"/>
<path d="M0 0 C0.61488281 0.08378906 1.22976562 0.16757813 1.86328125 0.25390625 C2.67152344 0.35574219 3.47976562 0.45757812 4.3125 0.5625 C5.11300781 0.66691406 5.91351563 0.77132812 6.73828125 0.87890625 C9.16817116 1.14755178 9.16817116 1.14755178 12 0 C12.33 1.98 12.66 3.96 13 6 C13.99 6.33 14.98 6.66 16 7 C15.67 9.31 15.34 11.62 15 14 C14.01 14 13.02 14 12 14 C11.67 15.32 11.34 16.64 11 18 C11 17.34 11 16.68 11 16 C9.68 16 8.36 16 7 16 C7.33 17.32 7.66 18.64 8 20 C3.71 20 -0.58 20 -5 20 C-5.33 18.35 -5.66 16.7 -6 15 C-4.01432292 14.77213542 -2.02864583 14.54427083 -0.04296875 14.31640625 C2.19396393 14.02829265 2.19396393 14.02829265 5 13 C7.33299825 12.96045766 9.66708189 12.95598268 12 13 C12 10.36 12 7.72 12 5 C6.06 3.515 6.06 3.515 0 2 C0 1.34 0 0.68 0 0 Z " fill="#BEA24C" transform="translate(129,98)"/>
<path d="M0 0 C0.99 0 1.98 0 3 0 C3 1.98 3 3.96 3 6 C2.34 6 1.68 6 1 6 C1 6.66 1 7.32 1 8 C0.01 8.495 0.01 8.495 -1 9 C-1 9.66 -1 10.32 -1 11 C-8.04440079 11.21133202 -14.24112575 11.07965362 -21 9 C-21 8.34 -21 7.68 -21 7 C-20.38511719 6.95101562 -19.77023438 6.90203125 -19.13671875 6.8515625 C-18.32847656 6.77679688 -17.52023438 6.70203125 -16.6875 6.625 C-15.88699219 6.55539063 -15.08648437 6.48578125 -14.26171875 6.4140625 C-11.72775559 6.10435574 -11.72775559 6.10435574 -9 4 C-12.63 3.67 -16.26 3.34 -20 3 C-20 2.67 -20 2.34 -20 2 C-13.73 2 -7.46 2 -1 2 C-0.67 1.34 -0.34 0.68 0 0 Z " fill="#1B1419" transform="translate(90,112)"/>
<path d="M0 0 C1.33033666 3.99100997 0.38325337 7.18587844 -0.4375 11.1875 C-0.953125 13.765625 -1.46875 16.34375 -2 19 C3.28 19 8.56 19 14 19 C13.67 19.66 13.34 20.32 13 21 C8.70805854 20.86162204 4.41653071 20.71304061 0.125 20.5625 C-1.09832031 20.52318359 -2.32164063 20.48386719 -3.58203125 20.44335938 C-4.74863281 20.40146484 -5.91523437 20.35957031 -7.1171875 20.31640625 C-8.19597168 20.27974854 -9.27475586 20.24309082 -10.38623047 20.20532227 C-13 20 -13 20 -15 19 C-12.68861693 16.01996523 -10.37570691 13.04111919 -8.0625 10.0625 C-7.40314453 9.21236328 -6.74378906 8.36222656 -6.06445312 7.48632812 C-5.43603516 6.67744141 -4.80761719 5.86855469 -4.16015625 5.03515625 C-3.57886963 4.2862915 -2.99758301 3.53742676 -2.39868164 2.76586914 C-1 1 -1 1 0 0 Z " fill="#CCD7E2" transform="translate(80,45)"/>
<path d="M0 0 C0.05395478 1.62463842 0.09277195 3.24978541 0.125 4.875 C0.14820312 5.77992188 0.17140625 6.68484375 0.1953125 7.6171875 C0 10 0 10 -2 12 C-4.2421875 12.8515625 -4.2421875 12.8515625 -6.875 13.625 C-7.73867187 13.88539063 -8.60234375 14.14578125 -9.4921875 14.4140625 C-12 15 -12 15 -16 15 C-16 13.68 -16 12.36 -16 11 C-10.63560356 8.31780178 -6.98993047 7.6847405 -1 8 C-1.33 6.68 -1.66 5.36 -2 4 C-2.9075 4.165 -3.815 4.33 -4.75 4.5 C-10.13782475 5.28873311 -15.56912556 5.08025923 -21 5 C-16.3194667 -0.69464885 -6.87365009 -0.30549556 0 0 Z " fill="#271B11" transform="translate(91,128)"/>
<path d="M0 0 C0.98965019 2.96895056 1.23779528 4.9086614 1 8 C0.34 8.66 -0.32 9.32 -1 10 C-1.45565731 13.31151483 -1.32395134 16.66079012 -1.3125 20 C-1.32861328 20.90878906 -1.34472656 21.81757812 -1.36132812 22.75390625 C-1.36598132 29.29629978 -0.20399322 34.8491661 2 41 C2.66 41 3.32 41 4 41 C4.8971875 42.6396875 4.8971875 42.6396875 5.8125 44.3125 C7.30229991 46.94218239 8.80273399 48.91259729 11 51 C11 51.66 11 52.32 11 53 C12.32 53 13.64 53 15 53 C15 53.99 15 54.98 15 56 C15.78375 56.144375 16.5675 56.28875 17.375 56.4375 C20 57 20 57 22 58 C22 58.99 22 59.98 22 61 C12.19201435 57.93500448 5.17868699 49.98775921 0.48828125 41.15234375 C-4.44494219 30.64980788 -5.96538539 18.81862921 -3.10546875 7.44140625 C-2.16909741 4.89699083 -1.18035267 2.43974682 0 0 Z " fill="#2F52D4" transform="translate(36,49)"/>
<path d="M0 0 C2.76276177 0.52268466 5.3260876 1.10869587 8 2 C8.33 3.98 8.66 5.96 9 8 C13.86570185 8.37428476 17.3997407 7.31589183 21.8515625 5.55859375 C24.29486248 4.92333575 25.63914647 5.19346407 28 6 C27.01 6.33 26.02 6.66 25 7 C24.67 7.66 24.34 8.32 24 9 C21.67284 9.37400786 19.33882138 9.70764733 17 10 C16.67 10.33 16.34 10.66 16 11 C9.47457627 11.23728814 9.47457627 11.23728814 7 10 C7.33 11.03125 7.66 12.0625 8 13.125 C8.9715192 16.48426709 9.17116771 19.49106202 9 23 C8.34 23.33 7.68 23.66 7 24 C6.91363281 23.3709375 6.82726562 22.741875 6.73828125 22.09375 C5.80214924 16.39107428 4.321395 12.55828838 1.04296875 7.828125 C-0.45975171 5.19414307 -0.36913066 2.95304528 0 0 Z " fill="#B5A971" transform="translate(87,84)"/>
<path d="M0 0 C3.96 0 7.92 0 12 0 C9.27951669 4.97804055 6.30393723 9.47194666 2.8125 13.9375 C2.13670898 14.82018555 2.13670898 14.82018555 1.44726562 15.72070312 C0.32550897 17.16872784 -0.83386542 18.58746904 -2 20 C-2.33 20 -2.66 20 -3 20 C-2.45043021 13.2026894 -1.42905169 6.6689079 0 0 Z " fill="#E0EAEF" transform="translate(74,75)"/>
<path d="M0 0 C-3.41043355 4.44389827 -6.88474139 8.50185045 -12 11 C-15.9375 11.3125 -15.9375 11.3125 -19 11 C-19.375 8.3125 -19.375 8.3125 -19 5 C-13.99784811 -1.57425677 -7.70572526 -0.51447721 0 0 Z " fill="#0F0A07" transform="translate(122,100)"/>
<path d="M0 0 C0.66 0 1.32 0 2 0 C0.2138347 4.05946658 -2.39504223 7.43532094 -5 11 C0.28 11 5.56 11 11 11 C10.37505481 17.33872978 9.7145914 23.6707619 9 30 C10.65 28.35 12.3 26.7 14 25 C13.125 30.875 13.125 30.875 12 32 C10.00041636 32.04080783 7.99954746 32.04254356 6 32 C5.97311849 30.35425434 5.95365877 28.70838587 5.9375 27.0625 C5.92589844 26.14597656 5.91429688 25.22945312 5.90234375 24.28515625 C6 22 6 22 7 21 C7.36760731 18.67182036 7.70241581 16.3381615 8 14 C6.205625 14.061875 6.205625 14.061875 4.375 14.125 C0.57670047 14.13851708 -2.44975618 13.42009753 -6 12 C-5.67 9.69 -5.34 7.38 -5 5 C-4.34 5 -3.68 5 -3 5 C-2.5359375 4.0409375 -2.5359375 4.0409375 -2.0625 3.0625 C-1 1 -1 1 0 0 Z " fill="#2859DA" transform="translate(63,64)"/>
<path d="M0 0 C-1.98 0.99 -1.98 0.99 -4 2 C-4 1.34 -4 0.68 -4 0 C-17.08377916 -0.27321117 -29.05888091 -0.15679718 -41 6 C-41.52335937 6.52335937 -42.04671875 7.04671875 -42.5859375 7.5859375 C-44.73651832 9.73651832 -47.06677557 9.67408617 -50 10 C-36.87559084 -4.35482252 -17.81878113 -6.46556205 0 0 Z " fill="#2859DE" transform="translate(95,28)"/>
<path d="M0 0 C0.66 0 1.32 0 2 0 C1.85913398 2.60452271 1.71251536 5.20850197 1.5625 7.8125 C1.52318359 8.55048828 1.48386719 9.28847656 1.44335938 10.04882812 C1.25618965 13.23071342 1.01279207 15.96162378 0 19 C5.94 19.99 5.94 19.99 12 21 C12 21.33 12 21.66 12 22 C7.05 22 2.1 22 -3 22 C-3 17.18771842 -2.90105843 13.6241083 -2 9.0625 C-1.814375 8.10472656 -1.62875 7.14695312 -1.4375 6.16015625 C-1.2209375 5.09087891 -1.2209375 5.09087891 -1 4 C-1.75925781 4.97582031 -2.51851562 5.95164062 -3.30078125 6.95703125 C-4.30458124 8.2422705 -5.30849338 9.52742216 -6.3125 10.8125 C-6.81201172 11.45509766 -7.31152344 12.09769531 -7.82617188 12.75976562 C-8.55610352 13.69272461 -8.55610352 13.69272461 -9.30078125 14.64453125 C-9.74591064 15.21534424 -10.19104004 15.78615723 -10.6496582 16.37426758 C-12.01546416 18.01861794 -13.46578334 19.5130506 -15 21 C-15 19.35 -15 17.7 -15 16 C-14.34 16 -13.68 16 -13 16 C-12.34 14.35 -11.68 12.7 -11 11 C-10.01 11 -9.02 11 -8 11 C-7.896875 10.2575 -7.79375 9.515 -7.6875 8.75 C-6.93969576 5.75878306 -6.17558321 4.17558321 -4 2 C-2.68 2 -1.36 2 0 2 C0 1.34 0 0.68 0 0 Z " fill="#4770D9" transform="translate(81,42)"/>
<path d="M0 0 C0.68707555 2.49064888 1 4.37886292 1 7 C1.70125 6.34 2.4025 5.68 3.125 5 C6.43460229 2.69766797 8.06225823 2.63369844 12 3 C11.42946335 6.77235429 9.83356579 8.62716051 7.1875 11.3125 C6.50042969 12.03050781 5.81335938 12.74851562 5.10546875 13.48828125 C3 15 3 15 0.86328125 14.91796875 C-1 14 -1 14 -3 11 C-2.70187643 6.90080096 -2.12632393 3.54387321 0 0 Z " fill="#251B11" transform="translate(151,92)"/>
<path d="M0 0 C0.99 0.33 1.98 0.66 3 1 C2.67 1.99 2.34 2.98 2 4 C3.98 4 5.96 4 8 4 C8.268125 4.721875 8.53625 5.44375 8.8125 6.1875 C9.98982498 8.97590126 11.39145884 11.44095724 13 14 C8.98265411 12.62262427 6.27258299 10.66973875 3 8 C2.01 7.67 1.02 7.34 0 7 C-0.33353284 11.78063737 0.50847281 13.99189105 3 18 C2.67 18.99 2.34 19.98 2 21 C-0.5 19.25 -0.5 19.25 -3 17 C-3 15.68 -3 14.36 -3 13 C-3.66 12.67 -4.32 12.34 -5 12 C-4.72285156 11.46890625 -4.44570312 10.9378125 -4.16015625 10.390625 C-3.79792969 9.68421875 -3.43570313 8.9778125 -3.0625 8.25 C-2.52302734 7.20585937 -2.52302734 7.20585937 -1.97265625 6.140625 C-1.04441818 4.09775567 -0.46833422 2.18884624 0 0 Z " fill="#271F13" transform="translate(145,145)"/>
<path d="M0 0 C0.33 0 0.66 0 1 0 C1.37815631 4.37243229 0.34305827 6.65147145 -2 10.3125 C-2.556875 11.19550781 -3.11375 12.07851562 -3.6875 12.98828125 C-4.120625 13.65214844 -4.55375 14.31601563 -5 15 C-4.34 15 -3.68 15 -3 15 C-3 15.99 -3 16.98 -3 18 C-5.31 18 -7.62 18 -10 18 C-9.67 19.65 -9.34 21.3 -9 23 C-10.1446875 23.2165625 -10.1446875 23.2165625 -11.3125 23.4375 C-14.08172908 23.9632594 -14.08172908 23.9632594 -17 25 C-15.2449216 21.04862237 -12.71500276 17.66793458 -10.1875 14.1875 C-9.76146484 13.59646484 -9.33542969 13.00542969 -8.89648438 12.39648438 C-8.03752631 11.20485874 -7.17669185 10.01458338 -6.31396484 8.82568359 C-5.39872936 7.55401304 -4.49352871 6.27508544 -3.59619141 4.99072266 C-2.42035151 3.31089098 -1.21294147 1.65324134 0 0 Z " fill="#416DD6" transform="translate(94,64)"/>
<path d="M0 0 C2.5 1.6875 2.5 1.6875 4.5 4.6875 C1.22918529 4.71652429 -2.0415963 4.73430684 -5.3125 4.75 C-6.24126953 4.75837891 -7.17003906 4.76675781 -8.12695312 4.77539062 C-9.01962891 4.77861328 -9.91230469 4.78183594 -10.83203125 4.78515625 C-12.06530151 4.79301147 -12.06530151 4.79301147 -13.32348633 4.80102539 C-15.5 4.6875 -15.5 4.6875 -18.5 3.6875 C-17.6875 1.75 -17.6875 1.75 -16.5 -0.3125 C-10.98562306 -2.15062565 -5.42827647 -2.03560368 0 0 Z " fill="#20140B" transform="translate(130.5,138.3125)"/>
<path d="M0 0 C0 0.66 0 1.32 0 2 C-1.58199631 2.64910154 -3.16565724 3.29414694 -4.75 3.9375 C-5.63171875 4.29714844 -6.5134375 4.65679687 -7.421875 5.02734375 C-9.61186104 5.85356576 -11.71898271 6.49369943 -14 7 C-14 8.32 -14 9.64 -14 11 C-14.66 11 -15.32 11 -16 11 C-16 13.31 -16 15.62 -16 18 C-16.33 18 -16.66 18 -17 18 C-17 13.38 -17 8.76 -17 4 C-16.34 4 -15.68 4 -15 4 C-15 3.01 -15 2.02 -15 1 C-10.03926578 -0.32286246 -5.08888488 -0.08893197 0 0 Z " fill="#231B15" transform="translate(170,117)"/>
<path d="M0 0 C0.66 1.32 1.32 2.64 2 4 C3.65 4 5.3 4 7 4 C7 3.34 7 2.68 7 2 C7.99 2.33 8.98 2.66 10 3 C8.68 3.99 7.36 4.98 6 6 C6.33 6.66 6.66 7.32 7 8 C5.33612799 10.01416086 4.17494052 10.93853441 1.6875 11.8125 C-1.62179801 12.04338126 -3.93959048 11.20992935 -7 10 C-6.02223933 8.51990357 -5.0427506 7.04094856 -4.0625 5.5625 C-3.51722656 4.73878906 -2.97195312 3.91507812 -2.41015625 3.06640625 C-1 1 -1 1 0 0 Z " fill="#1C130E" transform="translate(142,81)"/>
<path d="M0 0 C4.4114727 3.23507998 4.84694558 6.84557192 5.703125 11.953125 C5.85007812 12.96632813 5.85007812 12.96632813 6 14 C3.83125748 13.49396008 2.00032373 13.00016187 0 12 C0 11.34 0 10.68 0 10 C-2.31 10 -4.62 10 -7 10 C-6.01 11.32 -5.02 12.64 -4 14 C-5.65 13.67 -7.3 13.34 -9 13 C-9 11.02 -9 9.04 -9 7 C-5.18510326 5.53273202 -2.70988378 6.56663581 1 8 C0.67 5.36 0.34 2.72 0 0 Z " fill="#2F5ADB" transform="translate(87,90)"/>
<path d="M0 0 C-3.465 7.425 -3.465 7.425 -7 15 C-7.66 14.67 -8.32 14.34 -9 14 C-9.625 11.4375 -9.625 11.4375 -10 9 C-10 9.66 -10 10.32 -10 11 C-10.99 10.67 -11.98 10.34 -13 10 C-11.625 8.5 -11.625 8.5 -10 7 C-9.34 7 -8.68 7 -8 7 C-8 6.34 -8 5.68 -8 5 C-8.66 4.34 -9.32 3.68 -10 3 C-4.5 -1.125 -4.5 -1.125 0 0 Z " fill="#B3973D" transform="translate(156,84)"/>
<path d="M0 0 C0.89267578 0.00322266 1.78535156 0.00644531 2.70507812 0.00976562 C4.09823242 0.02233398 4.09823242 0.02233398 5.51953125 0.03515625 C6.45990234 0.03966797 7.40027344 0.04417969 8.36914062 0.04882812 C10.69016837 0.06060999 13.01106769 0.07706067 15.33203125 0.09765625 C15.66203125 0.75765625 15.99203125 1.41765625 16.33203125 2.09765625 C11.87703125 5.06765625 11.87703125 5.06765625 7.33203125 8.09765625 C7.00203125 6.77765625 6.67203125 5.45765625 6.33203125 4.09765625 C6.99203125 3.43765625 7.65203125 2.77765625 8.33203125 2.09765625 C0.48892775 1.50258946 0.48892775 1.50258946 -6.85546875 3.72265625 C-9.00916141 6.54473629 -9.42861972 8.58720383 -9.66796875 12.09765625 C-9.99796875 12.09765625 -10.32796875 12.09765625 -10.66796875 12.09765625 C-11.03478098 4.63914097 -11.03478098 4.63914097 -9.35546875 2.16015625 C-6.23624651 0.1962015 -3.58210768 -0.02281597 0 0 Z " fill="#917A3C" transform="translate(112.66796875,98.90234375)"/>
<path d="M0 0 C-0.81791016 0.4021875 -0.81791016 0.4021875 -1.65234375 0.8125 C-10.92675243 5.63202177 -18.07549677 11.69541098 -23 21 C-23.93423645 17.98968256 -24.04449911 17.13349732 -23 14 C-22.34 14 -21.68 14 -21 14 C-21 13.01 -21 12.02 -21 11 C-20.34 11 -19.68 11 -19 11 C-18.67 10.01 -18.34 9.02 -18 8 C-17.01 8 -16.02 8 -15 8 C-15 7.34 -15 6.68 -15 6 C-14.01 6 -13.02 6 -12 6 C-12 5.01 -12 4.02 -12 3 C-11.34 3 -10.68 3 -10 3 C-10 2.34 -10 1.68 -10 1 C-3.375 -1.125 -3.375 -1.125 0 0 Z " fill="#050627" transform="translate(60,28)"/>
<path d="M0 0 C0 3 0 3 -1.5 4.6875 C-1.995 5.120625 -2.49 5.55375 -3 6 C-1.68 6.66 -0.36 7.32 1 8 C0.360625 8.28875 -0.27875 8.5775 -0.9375 8.875 C-3.15206079 9.82823451 -3.15206079 9.82823451 -4 12 C-3.01 12.33 -2.02 12.66 -1 13 C-4 14 -7 15 -10 16 C-10.33 15.01 -10.66 14.02 -11 13 C-9.68 11.68 -8.36 10.36 -7 9 C-7.99 8.34 -8.98 7.68 -10 7 C-9.67 5.68 -9.34 4.36 -9 3 C-9 3.99 -9 4.98 -9 6 C-6.03 4.02 -3.06 2.04 0 0 Z " fill="#A88C37" transform="translate(116,130)"/>
<path d="M0 0 C0.61488281 0.08378906 1.22976562 0.16757813 1.86328125 0.25390625 C3.07564453 0.40666016 3.07564453 0.40666016 4.3125 0.5625 C5.11300781 0.66691406 5.91351563 0.77132812 6.73828125 0.87890625 C9.16817116 1.14755178 9.16817116 1.14755178 12 0 C12.33 1.98 12.66 3.96 13 6 C13.99 6.33 14.98 6.66 16 7 C15.67 9.31 15.34 11.62 15 14 C11.7 14 8.4 14 5 14 C5 13.67 5 13.34 5 13 C7.31 13 9.62 13 12 13 C12 10.36 12 7.72 12 5 C6.06 3.515 6.06 3.515 0 2 C0 1.34 0 0.68 0 0 Z " fill="#AB913D" transform="translate(129,98)"/>
<path d="M0 0 C2.97 0.495 2.97 0.495 6 1 C4.68 1.99 3.36 2.98 2 4 C2.99 5.32 3.98 6.64 5 8 C-2.2484945 8.41640288 -8.16914355 7.44166784 -15 5 C-15 4.67 -15 4.34 -15 4 C-8.07 4.495 -8.07 4.495 -1 5 C-0.67 3.35 -0.34 1.7 0 0 Z " fill="#2A51CD" transform="translate(73,106)"/>
<path d="M0 0 C0.66 0 1.32 0 2 0 C2.598125 1.093125 3.19625 2.18625 3.8125 3.3125 C5.30229991 5.94218239 6.80273399 7.91259729 9 10 C9 10.66 9 11.32 9 12 C10.32 12 11.64 12 13 12 C13 12.99 13 13.98 13 15 C13.78375 15.144375 14.5675 15.28875 15.375 15.4375 C18 16 18 16 20 17 C20 17.99 20 18.98 20 20 C11.35352398 17.29797625 4.63478654 10.60394666 0 3 C0 2.01 0 1.02 0 0 Z " fill="#274CD8" transform="translate(38,90)"/>
<path d="M0 0 C1.11117187 -0.020625 2.22234375 -0.04125 3.3671875 -0.0625 C9.51463635 -0.09177357 14.29103332 0.03459473 19.625 3.25 C20.12 4.735 20.12 4.735 20.625 6.25 C19.94953125 6.04503906 19.2740625 5.84007812 18.578125 5.62890625 C17.68609375 5.35949219 16.7940625 5.09007812 15.875 4.8125 C14.99328125 4.54566406 14.1115625 4.27882813 13.203125 4.00390625 C8.13253908 2.521144 3.60475008 2.09755532 -1.6875 2.125 C-2.78868164 2.11919922 -2.78868164 2.11919922 -3.91210938 2.11328125 C-8.50033703 2.12142362 -12.84868339 2.49661045 -17.375 3.25 C-17.375 2.59 -17.375 1.93 -17.375 1.25 C-11.58956338 -0.06553104 -5.90839477 0.02722763 0 0 Z " fill="#080D45" transform="translate(77.375,23.75)"/>
<path d="M0 0 C3.3 0 6.6 0 10 0 C10 0.66 10 1.32 10 2 C10.66 2 11.32 2 12 2 C11.34 4.31 10.68 6.62 10 9 C7.69 8.67 5.38 8.34 3 8 C2.34 9.98 1.68 11.96 1 14 C-1 11 -1 11 -1 9 C0.98139735 7.63242962 3.05472212 6.49654964 5.15234375 5.31640625 C7.30967459 4.05288044 7.30967459 4.05288044 8 1 C5.36 1 2.72 1 0 1 C0 0.67 0 0.34 0 0 Z " fill="#CCAB40" transform="translate(103,112)"/>
<path d="M0 0 C0.99 0.33 1.98 0.66 3 1 C2.690625 1.763125 2.38125 2.52625 2.0625 3.3125 C0.56031883 7.11213472 -0.11009763 9.92638776 0 14 C-0.61875 13.505 -1.2375 13.01 -1.875 12.5 C-3.83880904 10.80777227 -3.83880904 10.80777227 -6 11 C-6 11.66 -6 12.32 -6 13 C-9.67410785 14.17571451 -13.16929183 14.07366746 -17 14 C-17 13.67 -17 13.34 -17 13 C-16.09507813 12.85304687 -16.09507813 12.85304687 -15.171875 12.703125 C-8.67220773 11.48738322 -8.67220773 11.48738322 -4 7 C-2.58063412 4.70033054 -1.28276764 2.38228275 0 0 Z " fill="#372D1F" transform="translate(137,157)"/>
<path d="M0 0 C-0.33 1.32 -0.66 2.64 -1 4 C-4.83724172 4.90413673 -8.37502274 5.10576898 -12.3125 5.0625 C-13.38113281 5.05347656 -14.44976562 5.04445312 -15.55078125 5.03515625 C-16.35902344 5.02355469 -17.16726562 5.01195312 -18 5 C-15.50842947 1.93796888 -13.40212875 1.42204758 -9.5625 0.8125 C-8.61503906 0.65394531 -7.66757813 0.49539062 -6.69140625 0.33203125 C-4 0 -4 0 0 0 Z " fill="#96855B" transform="translate(88,128)"/>
<path d="M0 0 C1.2380014 3.57644848 0.74926071 6.33694766 0 10 C-0.33 8.68 -0.66 7.36 -1 6 C-2.01707031 6.14308594 -2.01707031 6.14308594 -3.0546875 6.2890625 C-9.80222525 7.09278583 -15.43277353 6.72371888 -22 5 C-22 4.34 -22 3.68 -22 3 C-15.4 3.66 -8.8 4.32 -2 5 C-2 4.34 -2 3.68 -2 3 C-3.65 3 -5.3 3 -7 3 C-7 2.67 -7 2.34 -7 2 C-4.69 2 -2.38 2 0 2 C0 1.34 0 0.68 0 0 Z " fill="#201511" transform="translate(91,118)"/>
<path d="M0 0 C0.66 0 1.32 0 2 0 C6.35363722 7.72419508 7.22597553 14.18695417 7 23 C4 21 4 21 3.0859375 17.2265625 C2.83595802 15.69477335 2.5994923 14.1607314 2.375 12.625 C2.13387828 11.09618569 1.8917236 9.56753387 1.6484375 8.0390625 C1.54708496 7.36053223 1.44573242 6.68200195 1.34130859 5.98291016 C0.99243676 3.95605965 0.52280122 1.98842249 0 0 Z " fill="#080A26" transform="translate(117,50)"/>
<path d="M0 0 C0.99 0.99 1.98 1.98 3 3 C2.34 3.66 1.68 4.32 1 5 C0.61533818 8.11663497 0.49291013 11.21156449 0.34375 14.34765625 C0.2303125 15.22292969 0.116875 16.09820312 0 17 C-0.66 17.33 -1.32 17.66 -2 18 C-2.06058594 17.39671875 -2.12117188 16.7934375 -2.18359375 16.171875 C-2.30927734 14.97304687 -2.30927734 14.97304687 -2.4375 13.75 C-2.51871094 12.96109375 -2.59992188 12.1721875 -2.68359375 11.359375 C-2.93219806 9.01170197 -2.93219806 9.01170197 -3.65625 6.875 C-3.7696875 6.25625 -3.883125 5.6375 -4 5 C-2.0625 2.25 -2.0625 2.25 0 0 Z " fill="#BCAA62" transform="translate(120,70)"/>
<path d="M0 0 C2 2 2 2 2.1953125 4.3828125 C2.13020833 6.921875 2.06510417 9.4609375 2 12 C-1.3 12.33 -4.6 12.66 -8 13 C-7.01 12.01 -6.02 11.02 -5 10 C-4.01 10 -3.02 10 -2 10 C-2.04125 8.72125 -2.0825 7.4425 -2.125 6.125 C-2.1953125 3.9453125 -2.1953125 3.9453125 -2 2 C-1.34 1.34 -0.68 0.68 0 0 Z " fill="#4C659A" transform="translate(116,77)"/>
<path d="M0 0 C0.99 0 1.98 0 3 0 C1.33560611 3.73364035 -0.98126133 6.80768126 -3.4375 10.0625 C-4.21996094 11.10535156 -5.00242187 12.14820313 -5.80859375 13.22265625 C-7.45949471 15.31497458 -9.0548079 17.19240991 -11 19 C-11 17.35 -11 15.7 -11 14 C-10.34 14 -9.68 14 -9 14 C-8.34 12.35 -7.68 10.7 -7 9 C-6.01 9 -5.02 9 -4 9 C-3.896875 8.2575 -3.79375 7.515 -3.6875 6.75 C-2.94569253 3.78277013 -2.11319446 2.19447117 0 0 Z " fill="#3064DC" transform="translate(77,44)"/>
<path d="M0 0 C1.76586914 0.16186523 1.76586914 0.16186523 4.03515625 0.55859375 C4.84404297 0.69716797 5.65292969 0.83574219 6.48632812 0.97851562 C7.33646484 1.12998047 8.18660156 1.28144531 9.0625 1.4375 C9.91650391 1.58509766 10.77050781 1.73269531 11.65039062 1.88476562 C13.76780638 2.25146891 15.88402072 2.62509676 18 3 C18 3.33 18 3.66 18 4 C4.635 4.495 4.635 4.495 -9 5 C-8.67 4.34 -8.34 3.68 -8 3 C-5.67793475 2.29508733 -3.34406932 1.62787571 -1 1 C-0.67 0.67 -0.34 0.34 0 0 Z " fill="#020016" transform="translate(71,20)"/>
<path d="M0 0 C3.96 0 7.92 0 12 0 C11.01 1.98 10.02 3.96 9 6 C7.68 5.34 6.36 4.68 5 4 C5 3.34 5 2.68 5 2 C3.68 2 2.36 2 1 2 C1 2.66 1 3.32 1 4 C1.99 4.33 2.98 4.66 4 5 C2.35 6.65 0.7 8.3 -1 10 C-0.67 6.7 -0.34 3.4 0 0 Z " fill="#D5DBE4" transform="translate(74,75)"/>
<path d="M0 0 C2.64 0.33 5.28 0.66 8 1 C8 1.66 8 2.32 8 3 C8.639375 3.2475 9.27875 3.495 9.9375 3.75 C12 5 12 5 12.75 7.125 C12.87375 8.053125 12.87375 8.053125 13 9 C8.85935519 8.47788717 6.74547153 7.31033918 3.6875 4.5 C2.99011719 3.8709375 2.29273437 3.241875 1.57421875 2.59375 C0 1 0 1 0 0 Z " fill="#7C92AD" transform="translate(79,99)"/>
<path d="M0 0 C8.92417976 3.63577694 15.42907293 10.21151943 21 18 C20.34 19.32 19.68 20.64 19 22 C18.505 20.845 18.01 19.69 17.5 18.5 C14.14284082 11.78568165 9.15730882 6.46460373 2 4 C2 3.34 2 2.68 2 2 C1.34 2 0.68 2 0 2 C0 1.34 0 0.68 0 0 Z " fill="#2E62E2" transform="translate(95,29)"/>
<path d="M0 0 C2 2 2 2 2.125 5.125 C2.08375 6.07375 2.0425 7.0225 2 8 C4.64 8.33 7.28 8.66 10 9 C4.60213201 10.66088246 0.10762449 10.40358799 -5 8 C-5 7.34 -5 6.68 -5 6 C-3.68 6 -2.36 6 -1 6 C-1.020625 5.195625 -1.04125 4.39125 -1.0625 3.5625 C-1 1 -1 1 0 0 Z " fill="#BF9F51" transform="translate(128,82)"/>
<path d="M0 0 C0.33 0.66 0.66 1.32 1 2 C2.32 1.67 3.64 1.34 5 1 C4.814375 1.61875 4.62875 2.2375 4.4375 2.875 C3.76313824 5.04160178 3.76313824 5.04160178 5 7 C4.72057545 8.67654729 4.39171753 10.34608154 4 12 C2.68 12 1.36 12 0 12 C0 8.04 0 4.08 0 0 Z " fill="#22170F" transform="translate(123,76)"/>
<path d="M0 0 C0.33 0 0.66 0 1 0 C1.66 6.6 2.32 13.2 3 20 C2.01 19.67 1.02 19.34 0 19 C-3.11096076 6.22192152 -3.11096076 6.22192152 0 0 Z " fill="#0C0B31" transform="translate(31,64)"/>
<path d="M0 0 C2.39591038 -0.02712351 4.79150957 -0.0468982 7.1875 -0.0625 C7.86103516 -0.07087891 8.53457031 -0.07925781 9.22851562 -0.08789062 C12.95434131 -0.10606538 16.3788042 0.10700608 20 1 C20 1.66 20 2.32 20 3 C12.95559921 3.21133202 6.75887425 3.07965362 0 1 C0 0.67 0 0.34 0 0 Z " fill="#A29066" transform="translate(69,120)"/>
<path d="M0 0 C6.20988129 0.44356295 10.60540561 1.91532502 16 5 C11.83229187 6.20937959 8.16926948 6.29008133 4 5 C1.5 2.4375 1.5 2.4375 0 0 Z " fill="#989B90" transform="translate(74,109)"/>
<path d="M0 0 C2.76276177 0.52268466 5.3260876 1.10869587 8 2 C8 3.65 8 5.3 8 7 C6.68 6.34 5.36 5.68 4 5 C4 6.65 4 8.3 4 10 C2 8.375 2 8.375 0 6 C-0.25 2.75 -0.25 2.75 0 0 Z " fill="#969688" transform="translate(87,84)"/>
<path d="M0 0 C0.433125 0.495 0.86625 0.99 1.3125 1.5 C2.99740483 3.33218192 2.99740483 3.33218192 6 3 C5.67 3.99 5.34 4.98 5 6 C4.01 5.67 3.02 5.34 2 5 C2.103125 5.763125 2.20625 6.52625 2.3125 7.3125 C2.209375 8.199375 2.10625 9.08625 2 10 C-0.5 11.8125 -0.5 11.8125 -3 13 C-2.68817931 11.58318366 -2.37551263 10.16655349 -2.0625 8.75 C-1.88847656 7.96109375 -1.71445313 7.1721875 -1.53515625 6.359375 C-1.052444 4.23121297 -0.53836822 2.11467158 0 0 Z " fill="#5C4E39" transform="translate(102,155)"/>
<path d="M0 0 C0.33 0.66 0.66 1.32 1 2 C-1.10084209 3.00696568 -3.20579489 4.0053589 -5.3125 5 C-6.48425781 5.556875 -7.65601563 6.11375 -8.86328125 6.6875 C-12 8 -12 8 -15 8 C-15 7.01 -15 6.02 -15 5 C-13.43979133 4.34865075 -11.87671421 3.70417036 -10.3125 3.0625 C-9.44238281 2.70285156 -8.57226562 2.34320313 -7.67578125 1.97265625 C-5.11820735 1.0429688 -2.6778677 0.45837375 0 0 Z " fill="#A38B51" transform="translate(168,105)"/>
<path d="M0 0 C0.66 0 1.32 0 2 0 C0.2138347 4.05946658 -2.39504223 7.43532094 -5 11 C0.28 11 5.56 11 11 11 C11 11.33 11 11.66 11 12 C5.39 12 -0.22 12 -6 12 C-5.67 9.69 -5.34 7.38 -5 5 C-4.34 5 -3.68 5 -3 5 C-2.5359375 4.0409375 -2.5359375 4.0409375 -2.0625 3.0625 C-1 1 -1 1 0 0 Z " fill="#3B6FBD" transform="translate(63,64)"/>
<path d="M0 0 C5.28 0.66 10.56 1.32 16 2 C16 2.66 16 3.32 16 4 C14.083412 4.02712153 12.1667127 4.04645097 10.25 4.0625 C8.64898437 4.07990234 8.64898437 4.07990234 7.015625 4.09765625 C4.46631499 4.01510087 2.42066409 3.74617558 0 3 C0 2.01 0 1.02 0 0 Z " fill="#A38A64" transform="translate(156,125)"/>
<path d="M0 0 C0 0.66 0 1.32 0 2 C-0.66 2 -1.32 2 -2 2 C-2.33 2.99 -2.66 3.98 -3 5 C-6.72230027 7.73698549 -10.55495127 8.86694836 -15 10 C-11.33829025 5.99500496 -5.76187936 0 0 0 Z " fill="#2954D4" transform="translate(60,28)"/>
<path d="M0 0 C0.33 0 0.66 0 1 0 C1.37815631 4.37243229 0.34305827 6.65147145 -2 10.3125 C-2.556875 11.19550781 -3.11375 12.07851562 -3.6875 12.98828125 C-4.120625 13.65214844 -4.55375 14.31601563 -5 15 C-4.34 15 -3.68 15 -3 15 C-3.33 15.99 -3.66 16.98 -4 18 C-4.99 17.67 -5.98 17.34 -7 17 C-6.20717977 10.85564321 -3.40624243 5.10936364 0 0 Z " fill="#2F62E2" transform="translate(94,64)"/>
<path d="M0 0 C4.68520915 1.21815438 8.70543612 2.69559987 13 5 C13 5.33 13 5.66 13 6 C8.07872966 6.16682272 4.49656104 6.24828052 0 4 C0 2.68 0 1.36 0 0 Z " fill="#A0895B" transform="translate(156,133)"/>
<path d="M0 0 C0.74056641 0.07025391 1.48113281 0.14050781 2.24414062 0.21289062 C4.0610806 0.38872353 5.87479394 0.59736097 7.6875 0.8125 C7.6875 1.1425 7.6875 1.4725 7.6875 1.8125 C6.73488281 1.84988281 5.78226563 1.88726562 4.80078125 1.92578125 C3.54652344 1.99152344 2.29226562 2.05726562 1 2.125 C-0.24136719 2.18300781 -1.48273438 2.24101563 -2.76171875 2.30078125 C-6.44383351 2.83142705 -8.48048251 3.40957607 -11.3125 5.8125 C-11.91419446 8.08581799 -11.91419446 8.08581799 -11.625 10.5 C-11.57988281 11.30824219 -11.53476563 12.11648437 -11.48828125 12.94921875 C-11.43027344 13.56410156 -11.37226562 14.17898437 -11.3125 14.8125 C-11.9725 14.8125 -12.6325 14.8125 -13.3125 14.8125 C-13.4488128 13.25247572 -13.54509126 11.68892824 -13.625 10.125 C-13.71201172 8.81982422 -13.71201172 8.81982422 -13.80078125 7.48828125 C-12.39422064 -0.21967092 -6.67685045 -0.82938536 0 0 Z " fill="#CAAC49" transform="translate(114.3125,97.1875)"/>
<path d="M0 0 C3.5742977 0.32493615 5.55712453 0.63870686 8.375 2.9375 C10 5 10 5 10 7 C11.32 7.33 12.64 7.66 14 8 C13.67 9.32 13.34 10.64 13 12 C12.48050781 11.46890625 11.96101563 10.9378125 11.42578125 10.390625 C7.77192991 6.68949647 4.17122079 3.12841559 0 0 Z " fill="#060D41" transform="translate(98,30)"/>
<path d="M0 0 C0 0.99 0 1.98 0 3 C-3.96 4.98 -7.92 6.96 -12 9 C-9.24255378 3.48510756 -6.38709783 0 0 0 Z " fill="#A28E55" transform="translate(92,145)"/>
<path d="M0 0 C0.33 0.66 0.66 1.32 1 2 C0.06421005 4.35981813 -0.93347808 6.69631264 -2 9 C-3.32 8.67 -4.64 8.34 -6 8 C-6 7.34 -6 6.68 -6 6 C-6.66 6 -7.32 6 -8 6 C-8 5.01 -8 4.02 -8 3 C-6.8553125 3.0928125 -6.8553125 3.0928125 -5.6875 3.1875 C-2.95474688 3.25898085 -2.95474688 3.25898085 -1.1875 1.5 C-0.795625 1.005 -0.40375 0.51 0 0 Z " fill="#2357E5" transform="translate(111,79)"/>
<path d="M0 0 C5.44208234 0.34013015 8.93668198 3.70296528 13 7 C12.01 7.495 12.01 7.495 11 8 C8.90625 7.2578125 8.90625 7.2578125 6.5 6.125 C5.7059375 5.75632813 4.911875 5.38765625 4.09375 5.0078125 C2.72426876 4.3486219 1.35941491 3.67970746 0 3 C0 2.01 0 1.02 0 0 Z " fill="#A28C5B" transform="translate(153,142)"/>
<path d="M0 0 C-3.12988781 2.64836661 -6.0193072 4.0048268 -10 5 C-12.375 4.625 -12.375 4.625 -14 4 C-9.89239426 0.52433361 -5.34448487 -2.0555711 0 0 Z " fill="#AF9C63" transform="translate(89,138)"/>
<path d="M0 0 C0.33 0 0.66 0 1 0 C1.57256004 3.92612596 1.74950876 5.91988086 -0.55859375 9.24609375 C-2.31655476 11.23043203 -4.10884918 13.14261973 -6 15 C-6.33 13.68 -6.66 12.36 -7 11 C-6.34 11 -5.68 11 -5 11 C-4.896875 10.360625 -4.79375 9.72125 -4.6875 9.0625 C-4.460625 8.381875 -4.23375 7.70125 -4 7 C-3.01 6.67 -2.02 6.34 -1 6 C-0.67 4.02 -0.34 2.04 0 0 Z " fill="#2C59CD" transform="translate(120,63)"/>
<path d="M0 0 C0.433125 0.598125 0.86625 1.19625 1.3125 1.8125 C2.77461239 3.70783087 4.27050227 5.3528593 6 7 C6.33 6.34 6.66 5.68 7 5 C7 5.99 7 6.98 7 8 C2.05 9.485 2.05 9.485 -3 11 C-2.67 10.34 -2.34 9.68 -2 9 C-1.01 9 -0.02 9 1 9 C1 8.01 1 7.02 1 6 C-0.65 6.33 -2.3 6.66 -4 7 C-4 6.34 -4 5.68 -4 5 C-2.68 5 -1.36 5 0 5 C0 3.35 0 1.7 0 0 Z " fill="#261C12" transform="translate(91,139)"/>
<path d="M0 0 C4.875 4.625 4.875 4.625 6 8 C2.5980513 10.09350689 -0.05272412 10.17942163 -4 10 C-4.33 9.34 -4.66 8.68 -5 8 C-3.02 8 -1.04 8 1 8 C0.67 7.34 0.34 6.68 0 6 C-0.039992 4.00039988 -0.04346799 1.99952758 0 0 Z " fill="#657CB3" transform="translate(100,83)"/>
<path d="M0 0 C0.66 0 1.32 0 2 0 C1.67 1.98 1.34 3.96 1 6 C6.94 6.99 6.94 6.99 13 8 C13 8.33 13 8.66 13 9 C8.05 9 3.1 9 -2 9 C-1.34 6.03 -0.68 3.06 0 0 Z " fill="#305FD7" transform="translate(80,55)"/>
<path d="M0 0 C0.99 0.66 1.98 1.32 3 2 C3 2.99 3 3.98 3 5 C2.01 5 1.02 5 0 5 C0 6.32 0 7.64 0 9 C0.66 9.33 1.32 9.66 2 10 C0.35 9.67 -1.3 9.34 -3 9 C-3.33 7.35 -3.66 5.7 -4 4 C-3.34 3.67 -2.68 3.34 -2 3 C-1.34 3.33 -0.68 3.66 0 4 C0 2.68 0 1.36 0 0 Z " fill="#C0A23E" transform="translate(106,128)"/>
<path d="M0 0 C4.4114727 3.23507998 4.84694558 6.84557192 5.703125 11.953125 C5.80109375 12.62859375 5.8990625 13.3040625 6 14 C3.13275314 13.42655063 2.1385485 13.1385485 0 11 C0.99 10.67 1.98 10.34 3 10 C3.33 9.34 3.66 8.68 4 8 C3.34 8 2.68 8 2 8 C1.34 5.36 0.68 2.72 0 0 Z " fill="#395AC3" transform="translate(87,90)"/>
<path d="M0 0 C2 1 4 2 6 3 C6 4.32 6 5.64 6 7 C1.545 6.01 1.545 6.01 -3 5 C-2.01 4.67 -1.02 4.34 0 4 C0 2.68 0 1.36 0 0 Z " fill="#2B58CA" transform="translate(83,104)"/>
<path d="M0 0 C-1.25942386 1.19959375 -2.53295286 2.38439443 -3.8125 3.5625 C-4.87404297 4.55443359 -4.87404297 4.55443359 -5.95703125 5.56640625 C-6.63121094 6.03949219 -7.30539063 6.51257813 -8 7 C-8.99 6.67 -9.98 6.34 -11 6 C-6.60180995 0.25791855 -6.60180995 0.25791855 -3.8125 -0.9375 C-2 -1 -2 -1 0 0 Z " fill="#887244" transform="translate(162,97)"/>
<path d="M0 0 C0.99 0 1.98 0 3 0 C1.34908222 4.29238623 -1.73754566 6.8793915 -5 10 C-5.66 9.67 -6.32 9.34 -7 9 C-6.02180976 7.68677212 -5.0424189 6.37443848 -4.0625 5.0625 C-3.51722656 4.33160156 -2.97195312 3.60070312 -2.41015625 2.84765625 C-1 1 -1 1 0 0 Z " fill="#9B8A58" transform="translate(95,152)"/>
<path d="M0 0 C2.02532424 1.01266212 4.04949131 2.02549552 6.0625 3.0625 C8.13410175 4.11611949 8.13410175 4.11611949 11 5 C9.87926138 5.83905565 8.75325453 6.67107831 7.625 7.5 C6.99851562 7.9640625 6.37203125 8.428125 5.7265625 8.90625 C4 10 4 10 2 10 C2 9.01 2 8.02 2 7 C2.66 7 3.32 7 4 7 C3.525625 6.21625 3.05125 5.4325 2.5625 4.625 C1.66101977 3.11051322 0.78820515 1.5764103 0 0 Z " fill="#2B1F15" transform="translate(105,126)"/>
<path d="M0 0 C0.97582031 0.00902344 1.95164062 0.01804687 2.95703125 0.02734375 C4.06111328 0.04474609 4.06111328 0.04474609 5.1875 0.0625 C2.03485697 1.84378058 -0.81097031 2.54796662 -4.375 3.125 C-7.32976099 3.61011001 -9.96597056 4.11365685 -12.8125 5.0625 C-12.125 3.125 -12.125 3.125 -10.8125 1.0625 C-7.18953724 0.04194711 -3.74663629 -0.0451402 0 0 Z " fill="#1D1611" transform="translate(82.8125,126.9375)"/>
<path d="M0 0 C0.66 0 1.32 0 2 0 C3.75149321 2.33532429 4.96980239 4.03367663 5.0625 7 C3.4124301 10.10601393 0.7230921 11.83264098 -2 14 C-2.66 14.99 -3.32 15.98 -4 17 C-4 13 -4 13 -1.625 10.25 C1 8 1 8 3 8 C2.01 5.36 1.02 2.72 0 0 Z " fill="#AE9345" transform="translate(140,116)"/>
<path d="M0 0 C2.64 0 5.28 0 8 0 C7.01 0.33 6.02 0.66 5 1 C5 1.99 5 2.98 5 4 C7.97 4 10.94 4 14 4 C14 4.33 14 4.66 14 5 C9.71 5 5.42 5 1 5 C0.67 3.35 0.34 1.7 0 0 Z " fill="#A78B4C" transform="translate(123,113)"/>
<path d="M0 0 C3.59905908 0.55550695 4.99909799 1.74887248 7.25 4.5625 C8.03117188 5.52349609 8.03117188 5.52349609 8.828125 6.50390625 C9.21484375 6.99761719 9.6015625 7.49132812 10 8 C6.68233477 8 5.9296548 7.54749052 3.3125 5.6875 C2.68988281 5.25824219 2.06726563 4.82898438 1.42578125 4.38671875 C0.95527344 3.92910156 0.48476562 3.47148437 0 3 C0 2.01 0 1.02 0 0 Z " fill="#9E8959" transform="translate(148,150)"/>
<path d="M0 0 C3.63 0 7.26 0 11 0 C9.3125 2.5 9.3125 2.5 7 5 C4.25 5.3125 4.25 5.3125 2 5 C1.67 4.34 1.34 3.68 1 3 C1.66 2.67 2.32 2.34 3 2 C2.01 1.34 1.02 0.68 0 0 Z " fill="#41341E" transform="translate(126,118)"/>
<path d="M0 0 C0.33 0.66 0.66 1.32 1 2 C3.32156597 2.40729228 5.6568787 2.74438677 8 3 C8 3.99 8 4.98 8 6 C5.525 5.01 5.525 5.01 3 4 C3 5.98 3 7.96 3 10 C0.86746245 7.40386733 -0.55075623 5.36932827 -1 2 C-0.67 1.34 -0.34 0.68 0 0 Z " fill="#4B6CC1" transform="translate(84,80)"/>
<path d="M0 0 C0.66 0 1.32 0 2 0 C1.43454163 3.95820859 0.19097652 6.6659053 -2 10 C-2.99 9.67 -3.98 9.34 -5 9 C-5 7.68 -5 6.36 -5 5 C-4.360625 4.731875 -3.72125 4.46375 -3.0625 4.1875 C-0.66868314 3.11332248 -0.66868314 3.11332248 0 0 Z " fill="#A08A3B" transform="translate(151,136)"/>
<path d="M0 0 C0.99 0.33 1.98 0.66 3 1 C3 2.32 3 3.64 3 5 C3.33 5.99 3.66 6.98 4 8 C0.12867972 7.42647107 -2.08172796 5.51295648 -5 3 C-4.360625 2.87625 -3.72125 2.7525 -3.0625 2.625 C-2.0415625 2.315625 -2.0415625 2.315625 -1 2 C-0.67 1.34 -0.34 0.68 0 0 Z " fill="#322616" transform="translate(134,128)"/>
<path d="M0 0 C-3.79039366 2.12999997 -6.65736138 2.16702456 -11 2 C-11 2.66 -11 3.32 -11 4 C-12.32 4 -13.64 4 -15 4 C-15 3.01 -15 2.02 -15 1 C-10.03926578 -0.32286246 -5.08888488 -0.08893197 0 0 Z " fill="#B09A68" transform="translate(170,117)"/>
<path d="M0 0 C0.66 0.33 1.32 0.66 2 1 C0.59921602 2.53547475 -0.82120903 4.05305148 -2.25 5.5625 C-3.43335938 6.83287109 -3.43335938 6.83287109 -4.640625 8.12890625 C-7 10 -7 10 -9.296875 9.77734375 C-10.13992187 9.39255859 -10.13992187 9.39255859 -11 9 C-11 8.34 -11 7.68 -11 7 C-9.39125 6.38125 -9.39125 6.38125 -7.75 5.75 C-4.47734926 4.36260851 -2.34482838 2.72000092 0 0 Z " fill="#140D0A" transform="translate(161,97)"/>
<path d="M0 0 C2.97 0.495 2.97 0.495 6 1 C6 2.32 6 3.64 6 5 C3.69 4.67 1.38 4.34 -1 4 C-0.67 2.68 -0.34 1.36 0 0 Z " fill="#1F55E7" transform="translate(77,103)"/>
<path d="M0 0 C1.32 0.66 2.64 1.32 4 2 C2.33612799 4.01416086 1.17494052 4.93853441 -1.3125 5.8125 C-4.62179801 6.04338126 -6.93959048 5.20992935 -10 4 C-6.92677456 3.08941469 -4.19902639 2.91113816 -1 3 C-0.67 2.01 -0.34 1.02 0 0 Z " fill="#2E2312" transform="translate(145,87)"/>
<path d="M0 0 C3.465 1.98 3.465 1.98 7 4 C6.67 4.66 6.34 5.32 6 6 C4.35 5.67 2.7 5.34 1 5 C1 5.99 1 6.98 1 8 C0.34 8 -0.32 8 -1 8 C-0.67 5.36 -0.34 2.72 0 0 Z " fill="#2B2318" transform="translate(111,165)"/>
<path d="M0 0 C3.63 0 7.26 0 11 0 C11 0.99 11 1.98 11 3 C9.741875 3.020625 8.48375 3.04125 7.1875 3.0625 C6.47980469 3.07410156 5.77210937 3.08570313 5.04296875 3.09765625 C3 3 3 3 0 2 C0 1.34 0 0.68 0 0 Z " fill="#A88A3E" transform="translate(117,128)"/>
<path d="M0 0 C0 3.74161103 -0.51338171 7.28953557 -1 11 C-1.99 11 -2.98 11 -4 11 C-4.36630156 7.06225823 -4.30233203 5.43460229 -2 2.125 C-1.34 1.42375 -0.68 0.7225 0 0 Z " fill="#637BCD" transform="translate(115,76)"/>
<path d="M0 0 C0.763125 0.0825 1.52625 0.165 2.3125 0.25 C2.6425 1.57 2.9725 2.89 3.3125 4.25 C0.3425 4.25 -2.6275 4.25 -5.6875 4.25 C-3.34903846 0.31153846 -3.34903846 0.31153846 0 0 Z " fill="#070304" transform="translate(122.6875,136.75)"/>
<path d="M0 0 C1.4589426 0.47730838 2.91713496 0.95691042 4.375 1.4375 C5.18710937 1.70433594 5.99921875 1.97117187 6.8359375 2.24609375 C9 3 9 3 11 4 C11 4.99 11 5.98 11 7 C6.89188572 5.55007731 3.53144334 3.54592427 0 1 C0 0.67 0 0.34 0 0 Z " fill="#2449CB" transform="translate(47,103)"/>
<path d="M0 0 C3.2542015 2.83430453 4.5206753 4.68607774 5 9 C3.02 7.68 1.04 6.36 -1 5 C-0.67 3.35 -0.34 1.7 0 0 Z " fill="#84764F" transform="translate(143,157)"/>
<path d="M0 0 C7.42857143 1 7.42857143 1 11 2 C11 3.32 11 4.64 11 6 C7.61723506 5.39593483 5.65678929 4.14257201 3 2 C2.01 1.34 1.02 0.68 0 0 Z " fill="#342A20" transform="translate(160,134)"/>
<path d="M0 0 C-0.33 0.99 -0.66 1.98 -1 3 C-4.5625 4.6875 -4.5625 4.6875 -8 6 C-8 4.68 -8 3.36 -8 2 C-4.91190305 0.23537317 -3.76687864 0 0 0 Z " fill="#BC9F44" transform="translate(133,164)"/>
<path d="M0 0 C1.32 0.33 2.64 0.66 4 1 C3.67 2.32 3.34 3.64 3 5 C1.35 5.33 -0.3 5.66 -2 6 C-1.49396008 3.83125748 -1.00016187 2.00032373 0 0 Z " fill="#AD974B" transform="translate(115,114)"/>
<path d="M0 0 C-0.94875 0.515625 -1.8975 1.03125 -2.875 1.5625 C-6.614517 4.47932326 -7.1216227 6.43243804 -8 11 C-8.33 11 -8.66 11 -9 11 C-9.36681223 3.54148472 -9.36681223 3.54148472 -7.6875 1.0625 C-4.67108223 -0.836726 -3.42281983 -1.14093994 0 0 Z " fill="#9B8E59" transform="translate(111,100)"/>
<path d="M0 0 C0.99 0.99 1.98 1.98 3 3 C1 5 -1 7 -3 9 C-3.75 7.3125 -3.75 7.3125 -4 5 C-2.0625 2.25 -2.0625 2.25 0 0 Z " fill="#A59A7A" transform="translate(120,70)"/>
<path d="M0 0 C0.66 0.33 1.32 0.66 2 1 C2 4.3 2 7.6 2 11 C-1.0580872 7.9419128 -1.69074569 7.12339076 -2 3 C-1.34 2.01 -0.68 1.02 0 0 Z " fill="#CEAD47" transform="translate(146,93)"/>
<path d="M0 0 C0.625 1.8125 0.625 1.8125 1 4 C0.01 5.485 0.01 5.485 -1 7 C-3.625 7.1875 -3.625 7.1875 -6 7 C-5.67 6.01 -5.34 5.02 -5 4 C-4.34 4 -3.68 4 -3 4 C-1.36323743 2.0399719 -1.36323743 2.0399719 0 0 Z " fill="#3E6ADA" transform="translate(76,89)"/>
<path d="M0 0 C0.99 1.32 1.98 2.64 3 4 C2.3125 6.6875 2.3125 6.6875 1 9 C0.01 9.495 0.01 9.495 -1 10 C-0.67 6.7 -0.34 3.4 0 0 Z " fill="#C0D4E2" transform="translate(72,85)"/>
<path d="M0 0 C2.97 0.495 2.97 0.495 6 1 C6 1.33 6 1.66 6 2 C4.35 2 2.7 2 1 2 C1 2.66 1 3.32 1 4 C1.99 4.33 2.98 4.66 4 5 C2.35 6.65 0.7 8.3 -1 10 C-0.67 6.7 -0.34 3.4 0 0 Z " fill="#C8D2E6" transform="translate(74,75)"/>
<path d="M0 0 C4.62 0 9.24 0 14 0 C13.34 1.65 12.68 3.3 12 5 C11.34 4.01 10.68 3.02 10 2 C7.57478506 1.41810734 7.57478506 1.41810734 4.875 1.3125 C3.96492188 1.24675781 3.05484375 1.18101563 2.1171875 1.11328125 C1.41851562 1.07589844 0.71984375 1.03851563 0 1 C0 0.67 0 0.34 0 0 Z " fill="#F1F9EB" transform="translate(79,65)"/>
<path d="M0 0 C0.99 0.33 1.98 0.66 3 1 C2.67 2.32 2.34 3.64 2 5 C0.02 5.33 -1.96 5.66 -4 6 C-3.6875 4.125 -3.6875 4.125 -3 2 C-2.01 1.34 -1.02 0.68 0 0 Z " fill="#0D0908" transform="translate(150,144)"/>
<path d="M0 0 C0.33 0.99 0.66 1.98 1 3 C-0.75 5.0625 -0.75 5.0625 -3 7 C-5.25 6.75 -5.25 6.75 -7 6 C-4.94766315 3.7522025 -3.99332739 2.9977758 -1 2 C-0.67 1.34 -0.34 0.68 0 0 Z " fill="#433321" transform="translate(119,116)"/>
<path d="M0 0 C1.60875 0.5878125 1.60875 0.5878125 3.25 1.1875 C3.25 1.5175 3.25 1.8475 3.25 2.1875 C0.94 1.8575 -1.37 1.5275 -3.75 1.1875 C-4.41 3.1675 -5.07 5.1475 -5.75 7.1875 C-7.75 4.1875 -7.75 4.1875 -7.75 2.1875 C-4.99780539 -0.89495796 -4.13111884 -0.89507575 0 0 Z " fill="#AC943A" transform="translate(109.75,118.8125)"/>
<path d="M0 0 C0.33 0 0.66 0 1 0 C1.66 2.64 2.32 5.28 3 8 C0.625 8.625 0.625 8.625 -2 9 C-2.66 8.34 -3.32 7.68 -4 7 C-2.68 7 -1.36 7 0 7 C-0.2784375 5.824375 -0.2784375 5.824375 -0.5625 4.625 C-1 2 -1 2 0 0 Z " fill="#355EC3" transform="translate(99,83)"/>
<path d="M0 0 C2 2 2 2 2.125 4.625 C2.08375 5.40875 2.0425 6.1925 2 7 C-0.31 7 -2.62 7 -5 7 C-3.68 6.67 -2.36 6.34 -1 6 C-1.020625 5.195625 -1.04125 4.39125 -1.0625 3.5625 C-1 1 -1 1 0 0 Z " fill="#6E5940" transform="translate(128,82)"/>
<path d="M0 0 C0.33 0.99 0.66 1.98 1 3 C5.29 3 9.58 3 14 3 C14 3.33 14 3.66 14 4 C8.72 4 3.44 4 -2 4 C-1.34 2.68 -0.68 1.36 0 0 Z " fill="#D3E8E5" transform="translate(60,71)"/>
<path d="M0 0 C0.86625 0.3403125 0.86625 0.3403125 1.75 0.6875 C0.265 3.1625 0.265 3.1625 -1.25 5.6875 C-1.91 5.0275 -2.57 4.3675 -3.25 3.6875 C-4.24 3.3575 -5.23 3.0275 -6.25 2.6875 C-2.80384615 -0.38942308 -2.80384615 -0.38942308 0 0 Z " fill="#B7A359" transform="translate(154.25,83.3125)"/>
<path d="M0 0 C0.99 0.33 1.98 0.66 3 1 C1.87548273 3.9719385 0.77706209 6.33440687 -1 9 C-1.66 8.67 -2.32 8.34 -3 8 C-2.01 5.36 -1.02 2.72 0 0 Z " fill="#251B0E" transform="translate(137,157)"/>
<path d="M0 0 C0.66 0 1.32 0 2 0 C4.42857143 7.42857143 4.42857143 7.42857143 3 11 C2.67 9.02 2.34 7.04 2 5 C1.34 5 0.68 5 0 5 C0 3.35 0 1.7 0 0 Z " fill="#2B56D0" transform="translate(116,51)"/>
<path d="M0 0 C0.598125 0.226875 1.19625 0.45375 1.8125 0.6875 C0.31510417 1.92447917 -1.18229167 3.16145833 -2.6796875 4.3984375 C-3.89801161 5.44000992 -5.05410097 6.55410097 -6.1875 7.6875 C-5.82037028 4.97074005 -5.46005401 3.07686287 -3.875 0.8125 C-2.1875 -0.3125 -2.1875 -0.3125 0 0 Z " fill="#190E0C" transform="translate(85.1875,146.3125)"/>
<path d="M0 0 C0.33 0.99 0.66 1.98 1 3 C1.66 3 2.32 3 3 3 C3 3.99 3 4.98 3 6 C2.34 6 1.68 6 1 6 C1 8.31 1 10.62 1 13 C0.67 13 0.34 13 0 13 C0 8.71 0 4.42 0 0 Z " fill="#31281C" transform="translate(153,122)"/>
<path d="M0 0 C1.95582488 2.93373731 3.56224304 5.78216298 5 9 C4.67 9.66 4.34 10.32 4 11 C1.9656541 9.58480285 1.09589607 8.45017877 0.578125 6.01953125 C0.33726048 4.01823046 0.16467259 2.0090056 0 0 Z " fill="#0B0E45" transform="translate(34,84)"/>
<path d="M0 0 C3 3.75 3 3.75 3 6 C2.01 6.33 1.02 6.66 0 7 C0 6.34 0 5.68 0 5 C-1.32 5.33 -2.64 5.66 -4 6 C-4 5.34 -4 4.68 -4 4 C-2.68 4 -1.36 4 0 4 C0 2.68 0 1.36 0 0 Z " fill="#1E130B" transform="translate(98,147)"/>
<path d="M0 0 C0.99 0 1.98 0 3 0 C3 1.98 3 3.96 3 6 C0.525 5.01 0.525 5.01 -2 4 C-1.34 2.68 -0.68 1.36 0 0 Z " fill="#947B30" transform="translate(96,141)"/>
<path d="M0 0 C0.99 0 1.98 0 3 0 C3 1.98 3 3.96 3 6 C2.67 5.34 2.34 4.68 2 4 C0.35 4 -1.3 4 -3 4 C-1.6875 2 -1.6875 2 0 0 Z " fill="#3B3226" transform="translate(90,112)"/>
<path d="M0 0 C0.33 0.66 0.66 1.32 1 2 C-2.37097383 3.49821059 -4.20442119 4 -8 4 C-8 3.34 -8 2.68 -8 2 C-5.36 1.34 -2.72 0.68 0 0 Z " fill="#99865F" transform="translate(168,105)"/>
<path d="M0 0 C0.625 1.8125 0.625 1.8125 1 4 C0.01 5.485 0.01 5.485 -1 7 C-1.99 7 -2.98 7 -4 7 C-2.92598892 4.08482708 -2.22189824 2.22189824 0 0 Z " fill="#87745B" transform="translate(142,81)"/>
<path d="M0 0 C0.66 1.32 1.32 2.64 2 4 C0.8553125 4.2165625 0.8553125 4.2165625 -0.3125 4.4375 C-3.08172908 4.9632594 -3.08172908 4.9632594 -6 6 C-4.95125002 3.37812506 -4.35068687 2.20628639 -1.875 0.75 C-1.25625 0.5025 -0.6375 0.255 0 0 Z " fill="#3462D9" transform="translate(83,83)"/>
<path d="M0 0 C1.15941038 3.47823115 0.70820884 5.45895578 0 9 C-0.66 8.01 -1.32 7.02 -2 6 C-2.66 5.67 -3.32 5.34 -4 5 C-2.68 3.35 -1.36 1.7 0 0 Z " fill="#C3E0E6" transform="translate(80,45)"/>
<path d="M0 0 C4.875 4.625 4.875 4.625 6 8 C5.34 8.66 4.68 9.32 4 10 C3.32845067 8.71086513 2.66291141 7.41859796 2 6.125 C1.62875 5.40570313 1.2575 4.68640625 0.875 3.9453125 C0 2 0 2 0 0 Z " fill="#3057D9" transform="translate(110,41)"/>
<path d="M0 0 C2.31 0.33 4.62 0.66 7 1 C7 1.33 7 1.66 7 2 C5.35 2 3.7 2 2 2 C2 3.65 2 5.3 2 7 C0 5 0 5 -0.125 2.375 C-0.08375 1.59125 -0.0425 0.8075 0 0 Z " fill="#C9B145" transform="translate(94,94)"/>
</svg>
