<svg width="200" height="200" viewBox="0 0 200 200" fill="none" xmlns="http://www.w3.org/2000/svg">
<path d="M95.2256 178.654C95.2256 179.025 97.6369 178.822 97.6406 178.945V181.392C97.6406 181.406 97.3729 181.506 97.3535 181.508H95.3398V184.143H45.9424C42.3993 181.862 39.0103 179.362 35.793 176.665H95.2256V178.654ZM164.207 176.665C160.989 179.363 157.6 181.862 154.057 184.143H118.518V179.179C118.518 179.06 116.22 178.941 116.218 179.236V181.333C116.218 181.513 113.458 181.804 113.457 181.45V178.945H115.815C115.831 178.941 115.987 178.782 115.987 178.771V176.665H164.207ZM92.9717 161.212C92.8901 161.249 92.8168 161.288 92.8057 161.315C93.0504 161.799 92.6065 167.237 92.7158 168.689H27.3262C25.0715 166.305 22.9333 163.809 20.9199 161.212H92.9717ZM179.08 161.212C177.067 163.809 174.928 166.305 172.674 168.689H115.987V166.249H113.688C113.673 166.249 113.573 165.974 113.572 165.958V161.212H179.08ZM97.7559 148.428H95.3398C95.2257 148.434 95.3065 150.67 95.2256 150.757C95.1394 150.844 92.8114 150.713 92.8096 151.048V154.232H15.9707C14.4041 151.81 12.9388 149.316 11.582 146.756H97.7559V148.428ZM188.417 146.756C187.06 149.316 185.595 151.81 184.028 154.232H110.927V151.93H113.572C113.527 151.548 113.831 148.311 113.572 148.311H110.812C110.702 148.309 110.68 147.668 110.691 146.756H188.417ZM92.8096 137.886C92.8096 137.898 92.9694 138.059 92.9824 138.061H95.1104C95.2467 138.061 95.1756 139.451 95.1436 140.773H8.66504C7.57314 138.331 6.57478 135.838 5.67773 133.297H70.0645C70.0367 134.462 70.0674 135.382 70.2676 135.382H72.625C72.6394 135.382 72.7402 135.658 72.7402 135.673V138.177H74.9834C75.0054 138.174 75.2705 137.905 75.2705 137.886V133.297H92.8096V137.886ZM194.322 133.297C193.425 135.838 192.427 138.331 191.335 140.773H110.77C110.751 140.677 110.728 140.623 110.697 140.623H108.569C108.555 140.623 108.283 140.522 108.281 140.507V138.235C108.281 138.223 108.442 138.061 108.454 138.061H110.697V133.297H194.322ZM64.9238 120.835C64.8739 123.337 64.8786 125.832 65.0156 128.312H4.06543C3.3423 125.857 2.71173 123.364 2.17578 120.835H64.9238ZM95.5938 120.835C95.7365 121.797 95.7107 125.248 95.5127 125.248H93.2705C93.2705 125.28 93.2746 126.925 93.293 128.312H82.8613V120.835H95.5938ZM126.454 122.627C126.456 122.641 126.613 122.8 126.626 122.802H128.581C129.285 122.802 128.699 125.364 129.156 125.364H131.399L131.442 128.312H106.247C106.092 127.088 106.171 123.446 106.246 120.835H126.454V122.627ZM197.824 120.835C197.288 123.364 196.658 125.857 195.935 128.312H134.274V127.752C134.274 127.74 134.435 127.577 134.447 127.577H136.46V125.364C136.46 125.35 136.73 125.249 136.747 125.248H138.99C139.091 124.931 139.062 122.946 139.042 120.835H197.824ZM27.4395 109.368C27.4524 109.885 27.4582 110.248 27.4443 110.377C27.6625 110.876 29.5128 110.329 29.6748 110.563C29.8473 110.816 29.6706 115.461 30.0156 115.461H32.2578C32.2722 115.461 32.373 115.737 32.373 115.752V116.847H1.41504C0.997109 114.383 0.669797 111.889 0.435547 109.368H27.4395ZM47.5322 109.368C47.5611 110.104 47.6173 110.568 47.7275 110.568H49.8555V116.847H34.7881V113.015C34.7881 112.804 37.4291 113.031 37.4336 112.898V109.368H47.5322ZM65.251 109.368C65.2186 111.858 65.124 114.353 65.0391 116.847H54.9678C54.9417 116.173 54.9737 115.461 55.4336 115.461H57.5615C57.6805 115.455 57.5566 113.018 57.6758 113.015H60.0342C60.0485 113.012 60.2061 112.852 60.2061 112.84V109.368H65.251ZM87.9219 110.454C88.0417 110.454 87.8478 112.9 88.0371 112.9H90.165C90.4208 112.902 90.3923 114.892 90.3525 116.847H82.8613V113.017C82.8666 112.889 85.3916 113.029 85.3916 112.9V110.454H87.9219ZM121.302 109.368C121.329 110.371 121.324 111.478 121.394 111.478H123.636C123.931 111.478 123.855 114.325 123.813 116.847H110.697V110.746C110.697 110.734 110.537 110.572 110.524 110.571H106.097C106.015 110.571 105.958 110.069 105.926 109.368H121.302ZM159.767 109.368C159.733 111.654 159.529 115.58 159.808 115.58H162.338V116.847H139.058C139.089 115.945 139.153 115.347 139.277 115.347H141.463C141.476 115.346 141.636 115.184 141.636 115.172V109.368H159.767ZM199.564 109.368C199.33 111.889 199.003 114.383 198.585 116.847H170.016C170 115.301 169.865 112.784 170.044 112.784H171.941C172.012 112.784 172.457 112.542 172.459 112.493V109.368H199.564ZM29.8428 100.027C29.8391 100.043 29.6861 100.197 29.6709 100.201H27.4854C27.1863 100.201 27.2608 103.521 27.3506 106.377H0.200195C0.0674939 104.268 3.83863e-06 102.142 0 100C0 99.6327 0.00288619 99.2657 0.00683594 98.8994H29.8428V100.027ZM47.3252 99.8525C47.6283 99.8547 47.5438 103.373 47.5146 106.377H42.4727C42.4122 104.104 42.0912 99.8525 42.667 99.8525H47.3252ZM62.6221 102.938C62.6252 102.703 65.0876 102.287 65.1475 103.061C65.2068 104.164 65.2386 105.269 65.2529 106.377H60.2061V105.385C60.2079 105.371 60.367 105.21 60.3789 105.21H62.4492C62.4624 105.209 62.6221 105.047 62.6221 105.035V102.938ZM108.396 99.7959C108.396 99.808 108.557 99.9707 108.569 99.9707H110.755C110.769 99.9738 110.924 100.131 110.927 100.146V102.476C110.928 102.489 111.088 102.65 111.1 102.65H113.285C113.304 102.652 113.572 102.752 113.572 102.767V105.097L118.633 105.085V106.377H105.922C105.953 105.636 106.012 105.097 106.097 105.097H108.225C108.354 105.091 108.41 102.533 108.281 102.533H106.039C106.027 102.533 105.869 102.374 105.866 102.359C105.866 102.359 105.866 99.8457 105.866 98.8994H108.396V99.7959ZM152.102 99.9707V106.377H147.041V99.9707H152.102ZM200 100C200 102.142 199.933 104.268 199.8 106.377H172.459V102.825C172.459 102.813 172.298 102.65 172.286 102.65H170.044C169.878 102.65 169.992 100.383 170.011 98.8994H199.992C199.996 99.2658 200 99.6327 200 100ZM100 0C154.527 9.77032e-05 198.859 43.6424 199.976 97.9023H169.997C169.984 97.7378 169.963 97.6421 169.929 97.6416H167.513C167.229 97.636 167.573 92.6846 167.298 92.3516C166.989 91.9803 165.115 92.3465 164.976 92.2324C164.635 91.9509 165.184 89.6021 164.351 89.6016H162.396C162.384 89.6016 162.223 89.4389 162.223 89.4268V87.1553C162.219 86.962 159.693 87.2815 159.692 86.748V84.6514C159.692 84.6392 159.532 84.4766 159.52 84.4766H157.335C157.246 84.4766 157.047 83.8106 157.047 83.7197V81.9727C157.047 81.9605 156.886 81.7979 156.874 81.7979H154.689C154.678 81.7979 154.519 81.6369 154.517 81.623V79.2354C154.517 79.1019 157.162 79.3074 157.162 79.1182V76.5557H159.75C159.763 76.5571 159.921 76.7174 159.922 76.7305V81.623C159.923 82.1686 164.982 81.5407 164.982 81.7979V84.1855C164.983 84.1986 165.142 84.3594 165.155 84.3604H167.513V86.748C167.513 87.0416 172.1 86.928 172.459 86.8066V76.9639C172.459 76.8427 172.177 76.5564 172.057 76.5557H170.101C170.086 76.5525 169.929 76.3929 169.929 76.3809V74.2842C169.926 74.2585 169.571 73.995 169.526 73.9932H167.57C167.556 73.9902 167.398 73.8304 167.398 73.8184V71.8379C167.398 71.0086 165.361 71.6149 165.028 71.3262C164.54 70.9037 165.337 68.7523 164.351 68.752H162.51C162.496 68.7496 162.341 68.5916 162.338 68.5771V66.4805C162.338 66.4611 162.069 66.1895 162.05 66.1895H159.979C159.966 66.1873 159.811 66.0298 159.808 66.0146V63.918C159.808 63.3526 154.843 63.7769 154.395 63.459C154.258 63.3595 154.505 61.0637 154.114 61.0635H147.214C146.708 61.0635 147.307 58.3385 146.514 58.5156L128.984 58.6172V56.1133C128.985 56.1009 129.143 55.94 129.156 55.9385H131.342C131.355 55.9375 131.515 55.7758 131.515 55.7637V48.3086C131.519 48.293 131.673 48.137 131.687 48.1348H134.274V40.6211C134.274 39.9006 134.826 40.2139 135.022 40.2139H144.338C144.35 40.2139 144.509 40.0527 144.511 40.0391V37.709C144.513 37.6951 144.672 37.5342 144.684 37.5342H147.041V35.8457C147.041 35.7536 147.225 34.9733 147.328 34.9717H149.629C149.643 34.9697 149.801 34.8089 149.801 34.7969V30.0801L128.986 30.3711V32.2373C128.982 32.6348 121.396 32.3174 121.396 32.7031V34.916C121.396 34.9281 121.235 35.0908 121.223 35.0908H118.923C118.909 35.0908 118.637 35.1918 118.635 35.207V37.7119C118.632 37.7264 118.476 37.8851 118.463 37.8867H116.393C116.381 37.8867 116.22 38.0494 116.22 38.0615V40.1582C116.219 40.2551 115.935 40.3641 115.817 40.3447L111.159 40.332V42.4873C111.159 42.5091 111.066 42.8955 111.044 42.8955H108.687C108.394 42.8958 108.492 45.1569 108.349 45.3486C108.116 45.6613 106.268 45.2565 106.034 45.5664C105.828 45.8428 105.995 48.1322 105.869 48.1367H103.856C103.737 48.1367 103.454 48.4223 103.453 48.5439V50.8154H101.096C101.084 50.8157 100.925 50.9763 100.923 50.9902V53.3789H98.4502C98.4359 53.3817 98.2819 53.5375 98.2783 53.5527V55.6494C98.2783 55.6615 98.1181 55.8235 98.1055 55.8242H95.6328V53.6699C95.6328 53.6554 95.532 53.3789 95.5176 53.3789H93.1025C92.9636 53.3789 93.258 50.7004 92.7002 50.6992H90.5723C90.3998 50.6992 90.682 48.6891 90.5146 48.3701C90.2319 47.8338 88.353 48.3768 88.0918 48.0273C87.9172 47.7929 88.013 45.6618 87.9268 45.5742C87.6632 45.3073 80.9034 45.7074 80.4697 45.4404C80.2645 45.3116 80.5706 43.1048 80.334 42.8975C80.183 42.7688 77.9636 42.8515 77.8223 42.7617C77.4631 42.5334 78.1935 40.6391 77.4971 40.3545C76.8429 40.0876 73.2886 40.5872 72.9268 40.2305C72.7332 40.037 72.9413 37.9642 72.5557 37.7871L50.0537 37.7676C49.9723 37.7924 49.8574 38.0179 49.8574 38.0615V45.166C49.8574 45.1781 50.0183 45.3408 50.0303 45.3408H52.2158C52.2303 45.3438 52.3853 45.5014 52.3877 45.5156V47.8457C52.3888 48.5492 59.4109 47.8334 60.0938 48.1367C60.0938 48.3478 60.082 50.6992 60.209 50.6992H62.624C62.8827 50.6995 62.4973 55.938 62.9111 55.9414H67.6846C67.8139 55.9415 67.766 58.4143 67.6104 58.4863C65.3056 59.0056 48.0986 57.8876 47.6895 58.8115C47.493 59.258 47.9502 60.7335 47.4424 61.0078C46.587 61.4689 41.1724 60.649 40.2734 61.2021C39.8182 61.4836 40.2971 63.3813 39.9473 63.6094C39.7334 63.7476 34.9033 63.4763 34.9033 63.918V66.1309C34.9021 66.144 34.7459 66.3028 34.7314 66.3057H32.6611C32.1652 66.3057 32.4764 68.5183 32.2393 68.8486C32.0164 69.1592 30.4663 68.8295 30.0732 69.043C29.5485 69.3269 30.078 71.1153 29.7354 71.3799C29.4766 71.5789 27.4992 71.3558 27.3291 71.7393C27.5709 72.8362 26.8459 87.0391 27.6006 87.0391H29.5557C29.5692 87.0373 29.7275 86.8763 29.7275 86.8643V84.5352C29.7275 84.5231 29.8874 84.3615 29.9004 84.3604H32.0859C32.0991 84.3589 32.256 84.1992 32.2578 84.1855V82.0889C32.2578 81.7593 34.6904 81.8893 34.7881 81.7979C35.0444 81.5407 34.6498 76.6748 34.9033 76.6719H39.7344C39.8607 76.6756 39.6266 79.2348 40.0215 79.2354H42.3223C42.3363 79.2328 42.4911 79.0753 42.4941 79.0605V74.1094H52.3857C52.5121 74.1057 52.2807 71.5469 52.501 71.5469H54.9736C54.9878 71.5494 55.1439 71.7082 55.1455 71.7217V73.9346C55.1455 73.9467 55.3064 74.1094 55.3184 74.1094H60.0342C60.2256 74.1122 60.3524 76.3943 60.209 76.5049C59.8999 76.7378 52.5021 76.2865 52.501 76.7305V78.9434C52.0289 79.4942 47.8448 79.0606 47.6699 79.2354C47.5819 79.3261 47.7776 81.3788 47.5674 81.6348C47.1792 82.1055 45.5467 81.4023 45.2783 82.1133C45.0102 82.8252 45.339 86.496 45.0371 86.877C44.8095 87.1657 38.5753 86.7219 37.8535 87.0566C37.3935 87.2702 37.7186 89.7178 37.376 89.7178H35.0762C34.6952 89.7178 35.0469 94.96 34.7881 94.96H32.5459C32.5339 94.96 32.373 95.1226 32.373 95.1348V97.3477C32.373 97.367 32.1069 97.6366 32.0859 97.6387H30.0156C30.0037 97.6387 29.8446 97.7997 29.8428 97.8135V97.9023H0.0234375C1.13991 43.6423 45.4725 0 100 0ZM152.102 74.1094V79.0605C152.099 79.075 151.941 79.2354 151.929 79.2354H149.744C149.732 79.2354 149.574 79.0752 149.571 79.0605V74.2842C149.574 74.27 149.732 74.1094 149.744 74.1094H152.102ZM144.396 74.1094V76.5557H139.105V74.2842C139.108 74.2697 139.264 74.1108 139.277 74.1094H144.396Z" fill="url(#paint0_linear_477_12480)"/>
<defs>
<linearGradient id="paint0_linear_477_12480" x1="100" y1="0" x2="100" y2="184.143" gradientUnits="userSpaceOnUse">
<stop stop-color="#FFE53A"/>
<stop offset="0.36" stop-color="#FC894B"/>
<stop offset="0.63" stop-color="#FB4E5F"/>
<stop offset="0.805" stop-color="#E02EA1"/>
<stop offset="1" stop-color="#763CC1"/>
</linearGradient>
</defs>
</svg>
