<svg xmlns="http://www.w3.org/2000/svg" xmlns:xlink="http://www.w3.org/1999/xlink" viewBox="0 0 200 200.01"><defs><style>.cls-1{fill:none;}.cls-2{fill:#9bc265;}.cls-3{fill:#1c1c1c;}.cls-4{fill:#404040;}.cls-5{fill:#2b2b2b;}.cls-6{fill:#242424;}.cls-7{fill:#ff7a47;}.cls-8{clip-path:url(#clip-path);}.cls-9{fill:#ffb972;}.cls-10{fill:#ff47ff;}.cls-11{fill:#8347ff;}.cls-12{clip-path:url(#clip-path-2);}.cls-13{fill:#d872ff;}.cls-14{fill:#8bffd9;}.cls-15{fill:#979797;}.cls-16{fill:#17133d;}.cls-17{fill:#6f0fa6;}.cls-18{fill:#470a6b;}.cls-19{fill:#c7db18;}.cls-20{fill:#9aa81e;}.cls-21{fill:#faccbb;}.cls-22{fill:#2686e3;}.cls-23{fill:#359cf7;}.cls-24{fill:#1c64a8;}.cls-25{fill:#1f6eba;}.cls-26{fill:#b6ff01;}.cls-27{clip-path:url(#clip-path-3);}.cls-28{fill:#a1e000;}.cls-29{fill:#acf100;}.cls-30{clip-path:url(#clip-path-5);}.cls-31{fill:#a12aeb;}.cls-32{fill:#262261;}.cls-33{fill:#fff;}.cls-34{fill:#a69f7e;}.cls-35{fill:#9e3987;}.cls-36{fill:#807b61;}.cls-37{fill:#221f1f;}.cls-38{fill:#b731ca;}.cls-39{fill:#2adeeb;}.cls-40{fill:#61225c;}.cls-41{fill:#a33b9a;}.cls-42{fill:#c742a1;}.cls-43{fill:#eb55c1;}.cls-44{fill:#1748b3;}.cls-45{clip-path:url(#clip-path-7);}.cls-46{fill:#1e3a75;}.cls-47{fill:#3d65bf;}.cls-48{fill:#11234a;}.cls-49{fill:#668acf;}.cls-50{fill:#7ba6ff;}.cls-51{fill:red;}.cls-52{fill:#231f20;}</style><clipPath id="clip-path"><path class="cls-1" d="M126.74,169.24c6.48-2.36,12-6.7,17.48-10.88s11.22-8.32,17.84-10.2,11.58.42,16.52,5.22c3.9-8.52-11.1-18.68-21.14-23.14s-21.14-6.1-32.12-6.16c-2.3,0-4.72.08-6.68,1.26a10.46,10.46,0,0,0-4.06,5.84c-2.2,6.68-1.2,14.08,1.38,20.62s6.64,12.38,10.7,18.1"/></clipPath><clipPath id="clip-path-2"><path class="cls-1" d="M73.24,169.24c-6.48-2.36-12-6.7-17.48-10.88S44.54,150,37.92,148.16s-11.58.42-16.52,5.22c-3.9-8.52,11.1-18.68,21.14-23.14s21.14-6.1,32.12-6.16c2.3,0,4.72.08,6.68,1.26a10.46,10.46,0,0,1,4.06,5.84c2.2,6.68,1.2,14.08-1.38,20.62s-6.64,12.38-10.7,18.1"/></clipPath><clipPath id="clip-path-3"><path class="cls-1" d="M106.06,114.56s-.66-1,.9-1.74c1.22-.6,7.26-4.72,12.56-.26s7.74,10.72,6.06,11.44-2.2-1.38-2.2-1.38,4.46,11.08.24,10.94-2.72-7.48-2.72-7.48-.12,1.08-.94,1.06c-2.9-.08,2.14-15.72-10.78-12.68C108.4,114.66,106.44,115.64,106.06,114.56Z"/></clipPath><clipPath id="clip-path-5"><path class="cls-1" d="M93.7,114.56s.66-1-.9-1.74c-1.22-.6-7.26-4.72-12.56-.26S72.5,123.28,74.18,124s2.2-1.38,2.2-1.38-4.46,11.08-.24,10.94,2.72-7.48,2.72-7.48.12,1.08.94,1.06c2.9-.08-2.14-15.72,10.78-12.68C91.34,114.66,93.32,115.64,93.7,114.56Z"/></clipPath><clipPath id="clip-path-7"><path class="cls-1" d="M160.36,24C154,4.48,126-3.94,97.94,5.24s-45.74,32.44-39.36,52c2.32,7.1,7.72,13,14.7,16.84h0c1.76,1,13,1.72,26.7,1.72,13.3,0,24.36-.7,26.56-1.64h0C151.16,63.86,166.28,42.18,160.36,24Z"/></clipPath></defs><g id="Layer_2" data-name="Layer 2"><g id="Layer_1-2" data-name="Layer 1"><g id="background"><g id="_5" data-name="5"><rect class="cls-2" width="200" height="200"/></g></g><g id="body"><path class="cls-3" d="M175.8,200H24.2V180.08a51.42,51.42,0,0,1,51.42-51.42h48.76a51.42,51.42,0,0,1,51.42,51.42Z"/><path class="cls-4" d="M101.62,200c0-1.4-.06-2.08-.08-3.46-.1-5.2-.32-10.4-.46-15.58-.12-4.4-.14-8.82-.5-13.22a54.7,54.7,0,0,0-.46-6.54c0-.12-.24-.14-.26,0a33,33,0,0,0-.3,5.26c-.06,1.9-.24,3.78-.26,5.68,0,2.32-.06,4.62-.08,6.94-.1,7.22-.28,13.7-.3,20.92Z"/><path d="M102.52,184.94a37.74,37.74,0,0,0-.14,4.76,32.84,32.84,0,0,0,.18,4.44c0,.32.52.22.54-.08a34.43,34.43,0,0,0-.16-4.76,26.6,26.6,0,0,0-.42-4.36s0,0,0,0Z"/><path d="M83.86,182.06a21.83,21.83,0,0,0-1.42,7.18,50.73,50.73,0,0,0-.3,8,.55.55,0,0,0,1.1,0c.22-2.52.14-5.06.34-7.6a41.39,41.39,0,0,0,.32-7.54s0-.06,0,0Z"/><path d="M85.82,191.68a7.11,7.11,0,0,0-.3,1.58,5.64,5.64,0,0,0,0,1.64.3.3,0,0,0,.58,0,5.62,5.62,0,0,0,.08-1.64,7,7,0,0,0-.16-1.58c0-.08-.14-.08-.16,0Z"/><path d="M116.32,179.76c.38,1.22.72,2.44,1.08,3.68s.52,2.54,1,3.72a.3.3,0,0,0,.58-.08c.1-2.54-1.18-5.28-2.5-7.38-.06-.06-.16,0-.14.06Z"/><path d="M120.6,186.24c.3,1,.24,2.18.44,3.24.06.28.5.2.5-.06a8.74,8.74,0,0,0-.86-3.18c0-.06-.08,0-.08,0Z"/><path class="cls-5" d="M70.28,200a11.11,11.11,0,0,1-.26-2c0-4.74,3-8.86,5.52-12.86a74,74,0,0,0,9.56-54.82l-2-2.26c-11.36.28-22.86,1.06-33.68,4.54s-21,9.88-27.22,19.42-7.88,21.54-8.68,33c-.36,5.14-.58,9.79-1.08,14.93H70.28Z"/><path class="cls-1" d="M70.28,200a11.22,11.22,0,0,1-.26-2c0-4.74,3-8.86,5.52-12.86a74,74,0,0,0,9.56-54.82l-2-2.26c-11.36.28-22.86,1.06-33.68,4.54s-21,9.88-27.22,19.42-7.88,21.54-8.68,33c-.36,5.14-.58,9.78-1.08,14.92Z"/><path class="cls-1" d="M70.28,200a11.22,11.22,0,0,1-.26-2c0-4.74,3-8.86,5.52-12.86a74,74,0,0,0,9.56-54.82l-2-2.26c-11.36.28-22.86,1.06-33.68,4.54s-21,9.88-27.22,19.42-7.88,21.54-8.68,33c-.36,5.14-.58,9.78-1.08,14.92Z"/><path class="cls-5" d="M130,198a8.38,8.38,0,0,1-.26,2h57.8c-.5-5.14-.72-9.8-1.08-14.94-.8-11.48-2.42-23.36-8.68-33s-16.4-15.94-27.22-19.42-22.32-4.26-33.68-4.54l-2,2.26a74,74,0,0,0,9.56,54.82C127,189.18,130,193.3,130,198Z"/><path class="cls-1" d="M129.72,200a11.22,11.22,0,0,0,.26-2c0-4.74-3-8.86-5.52-12.86a74,74,0,0,1-9.56-54.82l2-2.26c11.36.28,22.86,1.06,33.68,4.54s21,9.88,27.22,19.42,7.88,21.54,8.68,33c.36,5.14.58,9.78,1.08,14.92Z"/><path class="cls-1" d="M129.72,200a11.22,11.22,0,0,0,.26-2c0-4.74-3-8.86-5.52-12.86a74,74,0,0,1-9.56-54.82l2-2.26c11.36.28,22.86,1.06,33.68,4.54s21,9.88,27.22,19.42,7.88,21.54,8.68,33c.36,5.14.58,9.78,1.08,14.92Z"/><path class="cls-6" d="M19.88,167.08c-.48,1.62-1,3.16-1.42,4.8s-.62,3.42-.86,5.12-.36,3.24-.48,4.88a16.76,16.76,0,0,0,0,5,.66.66,0,0,0,1.26,0,20.38,20.38,0,0,0,.58-4.82c.12-1.68.32-3.34.44-5s.3-3.32.4-5,.06-3.32.14-5c0,0,0,0-.06,0Z"/><path class="cls-6" d="M25.38,182c-.12,1.36-.22,2.72-.34,4.1a23.48,23.48,0,0,0-.2,4.1c0,.32.56.46.62.08a22,22,0,0,0,.16-4c0-1.42,0-2.86,0-4.28a.13.13,0,1,0-.26,0Z"/><path class="cls-6" d="M43.28,166c.08,3.32-.3,6.64-.2,10,0,.44.7.56.78.1A25.67,25.67,0,0,0,43.4,166c0-.06-.12,0-.12,0Z"/><path class="cls-6" d="M70.58,186.42a20.35,20.35,0,0,0-4,4.6,15.68,15.68,0,0,0-1.32,2.58,5.48,5.48,0,0,0-.68,2.76c.08.42.62.38.82.1a8.46,8.46,0,0,0,.76-2.44,19.75,19.75,0,0,1,1.08-2.8,18.07,18.07,0,0,1,3.32-4.8s0,0,0,0Z"/><path class="cls-6" d="M180.06,167.1c.1,1.66,0,3.32.14,5s.28,3.34.4,5,.32,3.34.44,5a20.51,20.51,0,0,0,.58,4.82.66.66,0,0,0,1.26,0,16.22,16.22,0,0,0,0-4.82c-.12-1.68-.26-3.38-.5-5.06s-.46-3.3-.82-4.94-1-3.32-1.46-5c0-.06-.08,0-.06,0Z"/><path class="cls-6" d="M174.34,182c0,1.42,0,2.86,0,4.28a22,22,0,0,0,.16,4c.06.38.6.24.62-.08a21.68,21.68,0,0,0-.2-4.1c-.12-1.36-.22-2.72-.34-4.1,0-.16-.26-.16-.26,0Z"/><path class="cls-6" d="M156.58,166a25.67,25.67,0,0,0-.46,10.1.4.4,0,0,0,.78-.1c.1-3.32-.28-6.64-.2-10,0-.1-.1-.12-.12,0Z"/><path class="cls-6" d="M129.42,186.44a18,18,0,0,1,3.34,4.78,21.16,21.16,0,0,1,1,2.64,9.61,9.61,0,0,0,.82,2.6c.2.28.74.3.82-.1a5.24,5.24,0,0,0-.68-2.76,17.41,17.41,0,0,0-1.32-2.58,20.4,20.4,0,0,0-4-4.58s0,0,0,0Z"/><path class="cls-7" d="M126.74,169.24c6.48-2.36,12-6.7,17.48-10.88s11.22-8.32,17.84-10.2,11.58.42,16.52,5.22c3.9-8.52-11.1-18.68-21.14-23.14s-21.14-6.1-32.12-6.16c-2.3,0-4.72.08-6.68,1.26a10.46,10.46,0,0,0-4.06,5.84c-2.2,6.68-1.2,14.08,1.38,20.62s6.64,12.38,10.7,18.1"/><g class="cls-8"><path class="cls-9" d="M177.4,143c-4.52-3.38-7.8-5.1-12.66-4.32a36.12,36.12,0,0,0-9.18,3.24c-2.94,1.36-5.76,3-8.78,4.16-1.88.72-4.22,1.18-5.74-.16-1.32-1.18-1.38-3.16-2-4.8a10.86,10.86,0,0,0-4-4.6,38.65,38.65,0,0,1-4.84-3.76,7.22,7.22,0,0,1-2.3-5.5,6.69,6.69,0,0,1,4.3-5.16,17,17,0,0,1,6.94-.88,56.94,56.94,0,0,1,22.52,5,38,38,0,0,1,17,15.3"/></g><path class="cls-10" d="M155.06,138a12.61,12.61,0,0,0-5.58,2.62c-.08.08,0,.2.12.16a49.72,49.72,0,0,1,5.46-2.74s0,0,0,0Z"/><path class="cls-10" d="M147.16,138.58a8.47,8.47,0,0,0-2.88,2.28.15.15,0,0,0,.2.2c1-.74,1.74-1.7,2.7-2.46,0,0,0,0,0,0Z"/><path class="cls-10" d="M153.62,131.28a10.48,10.48,0,0,0-4.78,1.8c-.16.12,0,.38.16.28a28.27,28.27,0,0,1,4.64-1.9c.08,0,.08-.2,0-.18Z"/><path class="cls-10" d="M147.48,130.84a14.77,14.77,0,0,0-2.26,1.58c-.1.08,0,.24.12.16a13.63,13.63,0,0,0,2.2-1.68s0-.08-.06-.06Z"/><path class="cls-10" d="M142.36,131.66a6.41,6.41,0,0,0-2.66,1.82,0,0,0,0,0,.06.06,7.81,7.81,0,0,1,2.6-1.88Z"/><path class="cls-10" d="M143,135.68a6.78,6.78,0,0,0-2.78,2.18c-.1.14.12.3.24.18a17.84,17.84,0,0,1,2.54-2.36Z"/><path class="cls-10" d="M160.36,132.8a6.28,6.28,0,0,0-2.64.44,10.81,10.81,0,0,0-2.8,1.18.09.09,0,0,0,.08.16,20.51,20.51,0,0,1,2.94-1.18,18.6,18.6,0,0,0,2.42-.6Z"/><path class="cls-10" d="M151.08,135.9a8,8,0,0,0-1.3.84c-.08.08,0,.2.12.16a7,7,0,0,0,1.22-1s0-.06,0,0Z"/><path class="cls-10" d="M165.62,136.48a4.65,4.65,0,0,0-3.08.06c-.1,0,0,.2.06.2a15.28,15.28,0,0,1,3-.26Z"/><path class="cls-10" d="M159.68,138.16a2.76,2.76,0,0,0-1.46.58c-.16.14.08.36.22.22a3.68,3.68,0,0,1,1.24-.8Z"/><path class="cls-10" d="M146.82,143.12a3.66,3.66,0,0,0-.92.48,1.86,1.86,0,0,0-.72.7.13.13,0,0,0,.18.18,3,3,0,0,0,.74-.6c.26-.22.52-.44.76-.66,0,0,0-.12,0-.1Z"/><path class="cls-10" d="M150,147.86a9.62,9.62,0,0,0-3.78,2.56c-.08.1,0,.26.14.18,1.26-.82,2.42-1.84,3.64-2.74Z"/><path class="cls-10" d="M139.16,151.84l-.78,1.12c0,.06.06.1.08.06a11.46,11.46,0,0,0,.7-1.18c.06,0,0,0,0,0Z"/><path class="cls-11" d="M73.24,169.24c-6.48-2.36-12-6.7-17.48-10.88S44.54,150,37.92,148.16s-11.58.42-16.52,5.22c-3.9-8.52,11.1-18.68,21.14-23.14s21.14-6.1,32.12-6.16c2.3,0,4.72.08,6.68,1.26a10.46,10.46,0,0,1,4.06,5.84c2.2,6.68,1.2,14.08-1.38,20.62s-6.64,12.38-10.7,18.1"/><g class="cls-12"><path class="cls-13" d="M22.6,143c4.52-3.38,7.8-5.1,12.66-4.32a36.12,36.12,0,0,1,9.18,3.24c2.94,1.36,5.76,3,8.78,4.16,1.88.72,4.22,1.18,5.74-.16,1.32-1.18,1.38-3.16,2-4.8a10.86,10.86,0,0,1,4-4.6,38.65,38.65,0,0,0,4.84-3.76,7.22,7.22,0,0,0,2.3-5.5,6.69,6.69,0,0,0-4.3-5.16,17,17,0,0,0-6.94-.88,56.94,56.94,0,0,0-22.52,5,38,38,0,0,0-17,15.3"/></g><path class="cls-14" d="M44.92,138.1a46.41,46.41,0,0,1,5.46,2.74.1.1,0,0,0,.12-.16,12.61,12.61,0,0,0-5.58-2.62s0,0,0,0Z"/><path class="cls-14" d="M52.8,138.62c1,.74,1.74,1.72,2.7,2.46a.15.15,0,0,0,.2-.2,8.19,8.19,0,0,0-2.88-2.28s0,0,0,0Z"/><path class="cls-14" d="M46.34,131.44a29.35,29.35,0,0,1,4.64,1.9.16.16,0,0,0,.16-.28,10.65,10.65,0,0,0-4.78-1.8c-.1,0-.1.16,0,.18Z"/><path class="cls-14" d="M52.46,130.92a15.22,15.22,0,0,0,2.2,1.68c.1.06.22-.08.12-.16a14.77,14.77,0,0,0-2.26-1.58c-.06,0-.12,0-.06.06Z"/><path class="cls-14" d="M57.62,131.66a8,8,0,0,1,2.6,1.86,0,0,0,0,0,.06-.06,6.43,6.43,0,0,0-2.66-1.8Z"/><path class="cls-14" d="M57,135.7a16.83,16.83,0,0,1,2.56,2.36c.12.12.34,0,.24-.18A6.68,6.68,0,0,0,57,135.7s0,0,0,0Z"/><path class="cls-14" d="M39.62,132.8a23.71,23.71,0,0,0,2.42.58A25,25,0,0,1,45,134.56a.09.09,0,0,0,.08-.16,11.11,11.11,0,0,0-2.8-1.18,6.71,6.71,0,0,0-2.64-.42Z"/><path class="cls-14" d="M48.88,136a6.3,6.3,0,0,0,1.22,1c.1,0,.2-.08.12-.16a6.87,6.87,0,0,0-1.3-.84s-.08,0,0,0Z"/><path class="cls-14" d="M34.36,136.48a16.93,16.93,0,0,1,3,.24.11.11,0,0,0,.06-.2,4.78,4.78,0,0,0-3.08,0Z"/><path class="cls-14" d="M40.3,138.18a3.57,3.57,0,0,1,1.24.8c.16.14.38-.1.22-.22a2.55,2.55,0,0,0-1.46-.58Z"/><path class="cls-14" d="M53.12,143.2c.26.22.52.44.76.66a3,3,0,0,0,.74.6.13.13,0,0,0,.18-.18,1.86,1.86,0,0,0-.72-.7,4,4,0,0,0-.92-.48s-.06.08,0,.1Z"/><path class="cls-14" d="M50,147.86c1.22.9,2.38,1.92,3.64,2.74.12.08.22-.08.14-.18A9.48,9.48,0,0,0,50,147.86Z"/><path class="cls-14" d="M60.78,151.86c.24.38.46.78.72,1.16a.05.05,0,1,0,.08-.06c-.24-.38-.5-.76-.78-1.12,0,0,0,0,0,0Z"/><path class="cls-15" d="M63,186.5c.12,2.32,3.14,3.48,5,4.24,2.34,1,4.72,1.82,7.12,2.58A91.79,91.79,0,0,0,90,196.66a78.48,78.48,0,0,0,27.92-.94,55.17,55.17,0,0,0,9.32-2.66,82.72,82.72,0,0,0,9.64-5c2.08-1.2.26-4.22-1.86-3.18a53.84,53.84,0,0,1-8.72,3.28c-2.76.8-5.46,1.76-8.28,2.42a74.21,74.21,0,0,1-14.1,1.86A70.65,70.65,0,0,1,92.1,192c-4.92-.68-9.72-1.84-14.52-3-2.76-.66-5.48-1.44-8.18-2.34a20,20,0,0,0-4-1.06c-.5-.06-2.44,0-2.4.9Z"/><path class="cls-15" d="M69.32,186.48c0-.24-.14-1.2-.2-1.42l-.06-.18c-.08-.22-.42-1.08-.54-1.28l-.06-.1c-.1-.18-.7-.92-.84-1.08l-.06-.06-.06-.06c-.12-.12-1-.76-1.08-.84l-.06,0,0,0-1.24-.52h0a3.69,3.69,0,0,0-.82-.12,5.53,5.53,0,0,0-1.52,0,3.15,3.15,0,0,0-1.44.38,7,7,0,0,0-.76.34,7.26,7.26,0,0,0-1.16.92c-.12.12-.74.94-.84,1.1s0,0,0,.06a3.94,3.94,0,0,0-.32.74,3.4,3.4,0,0,0-.4,1.48,5.74,5.74,0,0,0-.1.82v.06c0,.14.16,1.3.2,1.44s0,0,0,.06l.54,1.3s0,0,0,.06l.84,1.08,0,.06c.08.08,1,.78,1.1.84h0l1.48.58.16,0s0,0,0,0a1.28,1.28,0,0,1,.2.08.15.15,0,0,1,.1,0c.12,0,1.3.18,1.42.18s1.3-.16,1.42-.18l.06,0,1.24-.52a0,0,0,0,0,0,0,5.06,5.06,0,0,0,.56-.44c.44-.34.38-.26.56-.46s.76-1,.84-1.08a.1.1,0,0,0,0-.08s0,0,0-.06l.52-1.24v0a5.32,5.32,0,0,0,.22-1.68A.53.53,0,0,1,69.32,186.48Z"/><path class="cls-16" d="M67.5,186.48c0-.16-.1-.82-.14-1a1.27,1.27,0,0,1,0-.14c-.06-.16-.3-.74-.38-.88s0,0,0-.06-.48-.64-.58-.76l0,0,0,0c-.08-.08-.66-.52-.76-.58a0,0,0,0,1,0,0s0,0,0,0l-.86-.36h0a2.7,2.7,0,0,0-.56-.08,4.52,4.52,0,0,0-1,0,2.13,2.13,0,0,0-1,.26,4.33,4.33,0,0,0-.52.24,5.11,5.11,0,0,0-.8.62c-.08.08-.5.64-.58.76s0,0,0,0a2.89,2.89,0,0,0-.22.52,2.29,2.29,0,0,0-.28,1c0,.18-.06.38-.08.56v0c0,.1.12.9.14,1s0,0,0,0,.34.82.38.9,0,0,0,0c.2.24.38.5.58.74,0,0,0,0,0,0s.68.54.76.58h0c.28.12.72.3,1,.4a.15.15,0,0,1,.1,0h0a.48.48,0,0,1,.14.06l.08,0c.08,0,.9.12,1,.12a8.26,8.26,0,0,0,1-.14l0,0,.86-.36h0c.14-.08.56-.42.38-.3a3.7,3.7,0,0,0,.4-.32c.08-.08.52-.66.58-.74s0,0,0-.06,0,0,0,0l.36-.86v0a3.87,3.87,0,0,0,.16-1.16S67.52,186.5,67.5,186.48Z"/><path class="cls-15" d="M141.76,185.62a5.74,5.74,0,0,0-.12-.8,8.47,8.47,0,0,0-.6-1.38,12.41,12.41,0,0,0-.84-1.1s-.08-.08-.1-.1L139,181.4l0,0a12.91,12.91,0,0,0-1.34-.58.47.47,0,0,0-.16,0l-.6-.1-.16,0c-.32,0-.64-.08-.74-.08h-.08l-.24,0h0a5,5,0,0,0-.76.1h0l-.42.06-.18,0-.66.28h0a6.91,6.91,0,0,0-.68.28,7.62,7.62,0,0,0-.64.48l-.06,0a.43.43,0,0,0-.14.12,3.83,3.83,0,0,0-.44.36,6.1,6.1,0,0,0-1.5,2.58v0a4.25,4.25,0,0,0-.1,2.18v0a4.44,4.44,0,0,0,.64,2,0,0,0,0,0,0,0l.14.2.06.12a5.26,5.26,0,0,0,1,1.26,5.68,5.68,0,0,0,5.44,1.44,6.33,6.33,0,0,0,1.36-.58l.28-.14a9.62,9.62,0,0,0,1.14-.88,6.07,6.07,0,0,0,.94-1.2c.12-.24.2-.48.32-.72a7.19,7.19,0,0,0,.3-.74v0c0-.24.06-.48.1-.7s.06-.5.1-.76v0A3.68,3.68,0,0,0,141.76,185.62Z"/><path class="cls-16" d="M140,185.88a3.1,3.1,0,0,0-.08-.56,5.82,5.82,0,0,0-.42-1,9.12,9.12,0,0,0-.6-.78l-.08-.08-.76-.58,0,0a7.8,7.8,0,0,0-.94-.4l-.12,0a3.38,3.38,0,0,0-.42-.06l-.1,0a4,4,0,0,0-.52-.06h-.06l-.18,0h0a2.52,2.52,0,0,0-.54.08h0l-.28,0a.21.21,0,0,0-.12,0,3.19,3.19,0,0,0-.46.2h0a4.89,4.89,0,0,0-.48.2c-.16.1-.3.24-.44.34l0,0-.1.08-.3.24a4.38,4.38,0,0,0-1.06,1.82v0a2.88,2.88,0,0,0-.06,1.54v0a2.78,2.78,0,0,0,.46,1.42v0l.1.14s0,.06,0,.08a4.14,4.14,0,0,0,.68.88,4,4,0,0,0,3.84,1,5.11,5.11,0,0,0,1-.4l.2-.1a7.79,7.79,0,0,0,.8-.62,5.3,5.3,0,0,0,.66-.84c.08-.16.14-.34.22-.5s.16-.34.22-.52v0l.06-.5a5,5,0,0,1,.08-.54v0A3,3,0,0,1,140,185.88Z"/><path class="cls-15" d="M72.58,170.44c.18,1.88,2.24,3.06,3.76,3.88a50.18,50.18,0,0,0,5.26,2.44,45.27,45.27,0,0,0,10.78,2.68,55.34,55.34,0,0,0,22.9-1.46,31,31,0,0,0,6-2.28c1.9-1,3.76-2.18,5.6-3.34a1.84,1.84,0,0,0-1.86-3.18,31.22,31.22,0,0,1-4.72,1.94c-1.68.54-3.34,1.12-5,1.66a48.25,48.25,0,0,1-10.24,2.1,54,54,0,0,1-20.52-2.28c-1.82-.56-3.64-1.1-5.4-1.82-.9-.36-1.78-.78-2.68-1.1s-2-.84-3-.42a1.26,1.26,0,0,0-.94,1.18Z"/><path class="cls-15" d="M78.9,170c0-.24-.14-1.2-.2-1.42l-.06-.18c-.08-.22-.42-1.08-.54-1.28l-.06-.1c-.1-.18-.7-.92-.84-1.08l-.06-.06-.06-.06c-.12-.12-1-.76-1.08-.84l-.06,0,0,0-1.24-.52h0a3.69,3.69,0,0,0-.82-.12,5.53,5.53,0,0,0-1.52,0,3.15,3.15,0,0,0-1.44.38,7,7,0,0,0-.76.34,7.26,7.26,0,0,0-1.16.92c-.12.12-.74.94-.84,1.1s0,0,0,.06a3.94,3.94,0,0,0-.32.74,3.4,3.4,0,0,0-.4,1.48,5.74,5.74,0,0,0-.1.82v.06c0,.14.16,1.3.2,1.44s0,0,0,.06L68,173s0,0,0,.06l.84,1.08,0,.06c.08.08,1,.78,1.1.84h0l1.48.58.16,0s0,0,0,0a1.28,1.28,0,0,1,.2.08.15.15,0,0,1,.1,0c.12,0,1.3.18,1.42.18s1.3-.16,1.42-.18l.06,0,1.24-.52a0,0,0,0,0,0,0,5.06,5.06,0,0,0,.56-.44c.44-.34.38-.26.56-.46s.76-1,.84-1.08a.1.1,0,0,0,0-.08s0,0,0-.06l.52-1.24v0a5.32,5.32,0,0,0,.22-1.68A.53.53,0,0,1,78.9,170Z"/><path class="cls-16" d="M77.08,170c0-.16-.1-.82-.14-1a1.27,1.27,0,0,1,0-.14c-.06-.16-.3-.74-.38-.88s0,0,0-.06-.48-.64-.58-.76l0,0,0,0c-.08-.08-.66-.52-.76-.58a0,0,0,0,1,0,0s0,0,0,0l-.86-.36h0a2.7,2.7,0,0,0-.56-.08,4.52,4.52,0,0,0-1,0,2.13,2.13,0,0,0-1,.26,4.33,4.33,0,0,0-.52.24,5.11,5.11,0,0,0-.8.62c-.08.08-.5.64-.58.76s0,0,0,0a2.89,2.89,0,0,0-.22.52,2.29,2.29,0,0,0-.28,1c0,.18-.06.38-.08.56v0c0,.1.12.9.14,1s0,0,0,0,.34.82.38.9,0,0,0,0c.2.24.38.5.58.74,0,0,0,0,0,0s.68.54.76.58h0c.28.12.72.3,1,.4a.15.15,0,0,1,.1,0h0a.48.48,0,0,1,.14.06l.08,0c.08,0,.9.12,1,.12a8.26,8.26,0,0,0,1-.14l0,0,.86-.36h0c.14-.08.56-.42.38-.3a3.7,3.7,0,0,0,.4-.32c.08-.08.52-.66.58-.74s0,0,0-.06,0,0,0,0l.36-.86v0a3.87,3.87,0,0,0,.16-1.16S77.08,170.06,77.08,170Z"/><path class="cls-15" d="M132.58,169.2a5.74,5.74,0,0,0-.12-.8,8.47,8.47,0,0,0-.6-1.38,12.41,12.41,0,0,0-.84-1.1s-.08-.08-.1-.1l-1.08-.84,0,0a12.91,12.91,0,0,0-1.34-.58.47.47,0,0,0-.16,0l-.6-.1-.16,0c-.32,0-.64-.08-.74-.08h-.08l-.24,0h0a5,5,0,0,0-.76.1h0l-.42.06-.18,0-.66.28h0a6.91,6.91,0,0,0-.68.28,7.62,7.62,0,0,0-.64.48l-.06,0a.43.43,0,0,0-.14.12,3.83,3.83,0,0,0-.44.36,6.1,6.1,0,0,0-1.5,2.58v0a4.25,4.25,0,0,0-.1,2.18v0a4.44,4.44,0,0,0,.64,2,0,0,0,0,0,0,0l.14.2.06.12a5.26,5.26,0,0,0,1,1.26,5.68,5.68,0,0,0,5.44,1.44,6.33,6.33,0,0,0,1.36-.58l.28-.14a9.62,9.62,0,0,0,1.14-.88,6.07,6.07,0,0,0,.94-1.2c.12-.24.2-.48.32-.72a7.19,7.19,0,0,0,.3-.74v0c0-.24.06-.48.1-.7s.06-.5.1-.76v0A3.68,3.68,0,0,0,132.58,169.2Z"/><path class="cls-16" d="M130.86,169.46a3.1,3.1,0,0,0-.08-.56,5.82,5.82,0,0,0-.42-1,9.12,9.12,0,0,0-.6-.78l-.08-.08-.76-.58,0,0a7.8,7.8,0,0,0-.94-.4l-.12,0a3.38,3.38,0,0,0-.42-.06l-.1,0a4,4,0,0,0-.52-.06h-.06l-.18,0h0a2.52,2.52,0,0,0-.54.08h0l-.28,0a.21.21,0,0,0-.12,0,3.19,3.19,0,0,0-.46.2h0a4.89,4.89,0,0,0-.48.2c-.16.1-.3.24-.44.34l0,0-.1.08-.3.24a4.38,4.38,0,0,0-1.06,1.82v0a2.88,2.88,0,0,0-.06,1.54v0a2.78,2.78,0,0,0,.46,1.42v0l.1.14s0,.06,0,.08a4.14,4.14,0,0,0,.68.88,4,4,0,0,0,3.84,1,5.11,5.11,0,0,0,1-.4l.2-.1a7.79,7.79,0,0,0,.8-.62,5.3,5.3,0,0,0,.66-.84c.08-.16.14-.34.22-.5s.16-.34.22-.52v0l.06-.5a5,5,0,0,1,.08-.54v0A3,3,0,0,1,130.86,169.46Z"/></g><g id="hair_back" data-name="hair back"><path class="cls-17" d="M144.58,85.42a8,8,0,0,0-6.68-7.68,6.18,6.18,0,0,0-1.28-5,5.67,5.67,0,0,0-4.54-2c-1.72.08-3.3,1-5,1.34s-3.78,0-4.52-1.64c0,0-4.24-8.22-21.52-8.22-.36,0-.72,0-1.06,0l-1.06,0c-17.28,0-21.52,8.22-21.52,8.22-.72,1.62-2.84,2-4.52,1.64s-3.26-1.26-5-1.34a5.67,5.67,0,0,0-4.54,2,6.18,6.18,0,0,0-1.28,5,8,8,0,0,0-.32,15.64,4.39,4.39,0,0,0,.74,5.74,4,4,0,0,0,5.5-.76,14.67,14.67,0,0,0-.36,14.38,15.24,15.24,0,0,0,11.74,7.82,16.43,16.43,0,0,0,9.76-2.18c.72,4.64,5.3,8.22,10.86,8.22s10.12-3.58,10.86-8.22a16.46,16.46,0,0,0,9.76,2.18,15.24,15.24,0,0,0,11.74-7.82A14.67,14.67,0,0,0,132,98.36a4,4,0,0,0,5.5.76,4.39,4.39,0,0,0,.74-5.74A8,8,0,0,0,144.58,85.42Z"/><path class="cls-18" d="M73.68,94.78c-5.76,5.32-5.8,16.14.32,21.24a.25.25,0,1,0,.36-.36c-2.46-3-4.26-6.4-4.34-10.4a16.68,16.68,0,0,1,3.7-10.44s0-.06,0,0Z"/><path class="cls-18" d="M81,71.56a6.26,6.26,0,0,1-6.5,2.94c-2.16-.48-4.28-2.14-6.56-1.22-4.34,1.76-3.12,7.8-.16,10.2A.37.37,0,0,0,68.3,83c-1.5-1.8-3.14-3.88-2.46-6.4a4.33,4.33,0,0,1,2-2.62,4.54,4.54,0,0,1,3.78.12c1.86.68,3.58,1.38,5.58.8A5.82,5.82,0,0,0,81,71.58s0-.06,0,0Z"/><path class="cls-18" d="M62.2,80.84c-3.68,1.48-4.12,7.14-.82,9.34.2.14.48-.14.34-.34-1.06-1.52-2.14-2.76-2.2-4.72a4.57,4.57,0,0,1,2.68-4.28s0,0,0,0Z"/><path class="cls-18" d="M78.58,80.7a10.6,10.6,0,0,1-4.16,5c-1.84,1.26-4,2-5.92,3.1-2.74,1.56-5.7,5.18-3.26,8.3.24.3.74-.1.52-.4-1.3-1.9-.72-4.14.82-5.72s3.46-2.3,5.3-3.2c3.06-1.48,5.76-3.68,6.7-7Z"/><path class="cls-18" d="M76.82,89c-2.26,1.22-4.9,2.68-6.56,4.68-.1.1,0,.32.16.22,1-.7,1.88-1.62,2.86-2.38,1.14-.88,2.32-1.74,3.54-2.52Z"/><path class="cls-18" d="M74.16,79.26a3.73,3.73,0,0,0-2.9,1.62.23.23,0,0,0,.36.28,12.79,12.79,0,0,1,1-1.08,3.79,3.79,0,0,1,1.56-.76s0-.06,0-.06Z"/><path class="cls-18" d="M76.48,110.42a7.58,7.58,0,0,0,3.28,5,7.44,7.44,0,0,0,6.2,1c.22-.08.22-.46-.06-.44-2.06.1-3.9.1-5.72-1a8.86,8.86,0,0,1-3.62-4.56c0-.06-.1,0-.08,0Z"/><path class="cls-18" d="M126.58,94.8a16.56,16.56,0,0,1,3.7,10.44c-.08,4-1.88,7.36-4.34,10.4a.25.25,0,0,0,.36.36c6.1-5.08,6.08-15.92.32-21.24,0,0-.06,0,0,0Z"/><path class="cls-18" d="M119.26,71.58a5.73,5.73,0,0,0,3.66,3.24c2,.64,3.78-.06,5.7-.76a4.67,4.67,0,0,1,3.66-.18,4.23,4.23,0,0,1,2.08,2.56c.8,2.54-.9,4.72-2.42,6.54a.37.37,0,0,0,.52.52c3-2.4,4.18-8.44-.16-10.2-2.22-.9-4.3.66-6.4,1.18a6.21,6.21,0,0,1-6.64-2.9c0-.06,0,0,0,0Z"/><path class="cls-18" d="M138.08,80.86a4.47,4.47,0,0,1,2.68,4.28c-.06,1.94-1.14,3.2-2.2,4.72-.14.2.14.46.34.34,3.3-2.22,2.88-7.86-.82-9.34,0,0,0,0,0,0Z"/><path class="cls-18" d="M121.7,80.7c1,3.36,3.66,5.56,6.7,7a18.43,18.43,0,0,1,5.2,3.08c1.6,1.58,2.26,3.88.92,5.82-.22.3.28.7.52.4,2.44-3.12-.5-6.74-3.26-8.3-1.9-1.08-4-1.8-5.8-3a10.84,10.84,0,0,1-4.28-5Z"/><path class="cls-18" d="M123.46,89A39.26,39.26,0,0,1,127,91.56c1,.76,1.84,1.66,2.86,2.38.14.1.26-.1.16-.22-1.66-2-4.3-3.48-6.56-4.68Z"/><path class="cls-18" d="M126.12,79.32a3.79,3.79,0,0,1,1.56.76c.38.32.64.74,1,1.08a.23.23,0,0,0,.36-.28,3.7,3.7,0,0,0-2.9-1.62c-.06,0-.06.06,0,.06Z"/><path class="cls-18" d="M123.74,110.4a8.7,8.7,0,0,1-3.62,4.56c-1.82,1.12-3.68,1.1-5.72,1-.28,0-.28.36-.06.44a7.51,7.51,0,0,0,6.2-1,7.42,7.42,0,0,0,3.28-5s-.06,0-.08,0Z"/></g><g id="ears"><path class="cls-19" d="M65.16,96.62c0,5.64,2.94,10.2,6.54,10.2s3.68-4.12,3.68-9.76S75.32,86.4,71.7,86.4,65.16,91,65.16,96.62Z"/><path class="cls-19" d="M134.84,96.62c0-5.64-2.94-10.2-6.54-10.2s-3.68,4.12-3.68,9.76.06,10.66,3.68,10.66S134.84,102.26,134.84,96.62Z"/><path class="cls-20" d="M67.12,98.2a18.17,18.17,0,0,1,.12-4.66A9.48,9.48,0,0,1,69,89.46a2,2,0,0,1,2.86-.5,4,4,0,0,1,1,2,11.14,11.14,0,0,1-.06,4.6c0,.3.44.42.58.16,1.06-2.12.44-9.06-3.32-7.64-1.62.62-2.44,2.56-2.92,4.08a9.65,9.65,0,0,0-.08,6.1s.06,0,0,0Z"/><path class="cls-20" d="M68.32,95.9a8.76,8.76,0,0,0,.6,4.8c.08.18.36.06.3-.14-.18-.72-.5-1.4-.64-2.14a17.9,17.9,0,0,1-.24-2.54,0,0,0,0,0,0,0Z"/><path class="cls-20" d="M132.34,98.2a9.57,9.57,0,0,0,0-5.94c-.48-1.58-1.3-3.6-3-4.24-3.76-1.42-4.38,5.54-3.32,7.64.14.26.62.16.58-.16a11.14,11.14,0,0,1-.06-4.6,4.17,4.17,0,0,1,1-2,2,2,0,0,1,2.86.5,9.59,9.59,0,0,1,1.78,4.08,18.19,18.19,0,0,1,.12,4.66s.06,0,.06,0Z"/><path class="cls-20" d="M131.1,95.9c-.06.84-.1,1.7-.24,2.54s-.46,1.4-.64,2.14c0,.18.22.3.3.14a8.58,8.58,0,0,0,.6-4.8s0,0,0,0Z"/></g><g id="face"><path class="cls-21" d="M110,64.08H90a14.6,14.6,0,0,0-14.6,14.6V97.34a17.29,17.29,0,0,0,17.3,17.3H107.3a17.29,17.29,0,0,0,17.3-17.3V78.68A14.57,14.57,0,0,0,110,64.08Z"/></g><g id="beard"><path class="cls-22" d="M138,130.32a22.41,22.41,0,0,0-3.54-12.18,19.32,19.32,0,0,0-1.16-4.56,18.33,18.33,0,0,0-4.38-6.66,10.55,10.55,0,0,0-2-5.32,25.61,25.61,0,0,1,4.54,4.18s-1-4.74-6.84-8.7c0,2.16-.76,11.9-13.36,7.9l-1.14-.36a31.25,31.25,0,0,0-9.66-1.52h-.92a31.86,31.86,0,0,0-9.66,1.52l-1.14.36c-12.6,4-13.34-5.74-13.36-7.9-5.8,4-6.84,8.7-6.84,8.7a24.88,24.88,0,0,1,4.54-4.18,10.37,10.37,0,0,0-2,5.32,18.33,18.33,0,0,0-4.38,6.66,19.83,19.83,0,0,0-1.16,4.56A22.41,22.41,0,0,0,62,130.32a13.17,13.17,0,0,1,1.62-3.06A30.37,30.37,0,0,0,67,147.62a30.06,30.06,0,0,1-.64-4.44S69,159.1,87.24,164.66a31.16,31.16,0,0,1-3.9-3.4c.12.1,8.1,5.84,16.7,6.18,8.6-.34,16.58-6.1,16.7-6.18a31.16,31.16,0,0,1-3.9,3.4c18.3-5.56,20.9-21.48,20.9-21.48a36.52,36.52,0,0,1-.64,4.44,30.35,30.35,0,0,0,3.36-20.36A13.42,13.42,0,0,1,138,130.32Zm-67.16-7.86a.45.45,0,0,1,0-.24A1,1,0,0,1,70.88,122.46Zm58.24,0c0-.08,0-.16,0-.24A.45.45,0,0,1,129.12,122.46Z"/><path class="cls-23" d="M71.88,139.88c0,1.08-.42,1.94-.2,3a11.81,11.81,0,0,0,1,2.8,19.2,19.2,0,0,0,3.6,5.14,36.69,36.69,0,0,0,5.16,4.32c1,.7,2,1.36,3,2s2,1.54,3.2,1.38c.66-.08,1.4-.68,1.12-1.46-.4-1.1-1.28-1.5-2.22-2.08s-1.84-1.12-2.74-1.72a36.16,36.16,0,0,1-5.12-3.92A25.06,25.06,0,0,1,75,145.1a20.45,20.45,0,0,1-1.4-2.5,9.06,9.06,0,0,0-.68-1.22,5.08,5.08,0,0,1-1-1.52s-.1,0-.1,0Z"/><path class="cls-23" d="M68.86,122.74c-.42,1.2-.94,2.38-1.24,3.62A31.47,31.47,0,0,0,67,130a27.76,27.76,0,0,0-.2,3.64,7.51,7.51,0,0,0,.6,3.76,1,1,0,0,0,1.84-.24,9.46,9.46,0,0,0,0-3.52c-.06-1.22-.12-2.42-.14-3.64s0-2.3,0-3.44-.08-2.52,0-3.78c0-.16-.24-.18-.3,0Z"/><path class="cls-23" d="M77.58,138.28c.58,1.74.9,3.52,2,5.06a10.25,10.25,0,0,0,4.06,3.84c1,.4,1.8-.92,1.34-1.74a10.33,10.33,0,0,0-1.74-2c-.58-.6-1.14-1.22-1.7-1.82-1.16-1.22-2.62-2.18-3.66-3.5-.1-.14-.34,0-.28.16Z"/><path class="cls-23" d="M76.68,112.76a25.82,25.82,0,0,0-2.46,5.14c-.46,1.72-1.16,3.88-.34,5.56a.94.94,0,0,0,1.6,0c.94-1.4.7-3.48.9-5.08.22-1.84.1-3.72.46-5.54,0-.1-.12-.18-.16-.08Z"/><path class="cls-23" d="M73.62,108.68c-1.22.4-2.06,1.74-2.66,2.82a9.05,9.05,0,0,0-1.34,4.34c0,.76,1.18,1.2,1.54.42.56-1.26.84-2.62,1.3-3.92s1.14-2.4,1.16-3.66Z"/><path class="cls-23" d="M97.92,162.28c1.18.78,1.84,1.72,3.34,1.88,1.14.14,2.94.3,3.72-.72a1,1,0,0,0-.2-1.58c-1-.6-2.26-.2-3.34-.18a7.62,7.62,0,0,0-1.5.14,5.43,5.43,0,0,1-2,.3.09.09,0,0,0-.06.16Z"/><path class="cls-23" d="M94.18,153.26a16.17,16.17,0,0,0,6.06,3,12.91,12.91,0,0,0,3.4.18c1.1-.1,2.58-.14,3.34-1.08a1.2,1.2,0,0,0-.52-2c-.94-.36-2,.1-3,.2a25.91,25.91,0,0,1-3.06.18,16,16,0,0,1-6.08-.78.18.18,0,0,0-.16.32Z"/><path class="cls-23" d="M126.74,110.5a28.8,28.8,0,0,1,.9,6.14c.08.94.14,1.9.16,2.86a6.88,6.88,0,0,0,.28,3,1,1,0,0,0,1.68,0,4.8,4.8,0,0,0,.4-3,18.72,18.72,0,0,0-.48-3.32,14.5,14.5,0,0,0-1-2.88,25.27,25.27,0,0,0-1.82-2.84.05.05,0,0,0-.1,0Z"/><path class="cls-23" d="M120,109.86c.16,1.38-.32,3.62,1,4.54a.62.62,0,0,0,.9-.36,2.82,2.82,0,0,0-.46-2.16c-.36-.72-.88-1.34-1.22-2.08,0-.08-.2,0-.18.06Z"/><path class="cls-23" d="M132.9,131.56a51.57,51.57,0,0,1-1.76,7.34,28.75,28.75,0,0,1-1.38,3.58,35.09,35.09,0,0,0-1.64,3.38.81.81,0,0,0,1.34.78c1.68-1.84,2.56-4.78,3.22-7.14a20.65,20.65,0,0,0,.54-7.9c0-.16-.28-.24-.32,0Z"/><path class="cls-23" d="M126.92,133.74a20.5,20.5,0,0,1-4,6.3c-.8.9-1.66,1.72-2.48,2.6s-1.34,2.24,0,2.76,2.22-.88,2.88-1.74a15.44,15.44,0,0,0,1.86-3.06,23.21,23.21,0,0,0,1.8-6.84s0-.06-.06,0Z"/><path class="cls-23" d="M123,150.84a38.3,38.3,0,0,1-5.22,4.1c-.88.56-1.7,1.18-2.58,1.74s-2.18,1.1-2.78,2.06a1.32,1.32,0,0,0,1.12,2c1.18,0,2.32-.94,3.24-1.62a17.84,17.84,0,0,0,2.62-2.3,25.08,25.08,0,0,0,3.76-5.8c.06-.12-.06-.22-.16-.14Z"/><path class="cls-23" d="M116.86,138.48c-.76,0-1.26.92-1.7,1.44a16.78,16.78,0,0,1-2.24,2.22,17.29,17.29,0,0,0-2.58,1.86,1.33,1.33,0,0,0,.58,2.2c1,.28,2.14-.8,2.82-1.46a16.13,16.13,0,0,0,1.9-2.3c.18-.26,2.34-3.94,1.22-4Z"/><path class="cls-23" d="M102.38,147.6a12.27,12.27,0,0,1-3.2-.12c-1-.08-1.88-.4-2.82,0a1,1,0,0,0-.2,1.62c.82.84,2.26.72,3.34.54a9.19,9.19,0,0,0,3.12-1.5.32.32,0,0,0-.24-.58Z"/><path class="cls-24" d="M69.5,114.9c-.38,1.78-1.08,3.48-1.3,5.3,0,.32.46.36.54.08.5-1.76.5-3.58.84-5.36,0,0-.06-.06-.08,0Z"/><path class="cls-24" d="M73.64,115.58c-.16.8-.56,1.54-.66,2.36a.2.2,0,0,0,.4.06c.22-.78.12-1.6.28-2.4,0,0,0,0,0,0Z"/><path class="cls-24" d="M73.46,109.82a15.05,15.05,0,0,0-1.06,3c0,.2.26.36.36.14a14,14,0,0,0,.76-3.16s0,0-.06,0Z"/><path class="cls-24" d="M69.32,111c-.16.46-.46.88-.64,1.32a11.2,11.2,0,0,0-.52,1.36c-.08.24.28.32.38.1a14,14,0,0,0,.48-1.38c.14-.46.18-1,.34-1.42l0,0Z"/><path class="cls-24" d="M65.64,122.62a8.48,8.48,0,0,0-.42,3.86c0,.2.32.2.32,0a19,19,0,0,1,.2-3.84s-.08-.06-.1,0Z"/><path class="cls-24" d="M71,121.54a18.1,18.1,0,0,0-.4,2.74.21.21,0,0,0,.42.06,18.63,18.63,0,0,0,.14-2.8.08.08,0,0,0-.16,0Z"/><path class="cls-24" d="M68.4,125a23.14,23.14,0,0,0-.14,2.88.16.16,0,0,0,.32,0,23.06,23.06,0,0,0,0-2.88c0-.12-.16-.12-.18,0Z"/><path class="cls-24" d="M65,130.28a32,32,0,0,0,.24,3.38c0,.2.38.16.36,0a27.54,27.54,0,0,0-.42-3.36c0-.12-.18-.08-.18,0Z"/><path class="cls-24" d="M78.06,108.6a28.37,28.37,0,0,0-1.3,3.8.21.21,0,0,0,.4.12,26.29,26.29,0,0,0,.92-3.9s0,0,0,0Z"/><path class="cls-24" d="M73.54,105.58c-.24.58-.5,1.16-.72,1.74-.06.16.2.24.26.08.2-.6.38-1.18.58-1.78,0-.08-.08-.1-.12,0Z"/><path class="cls-24" d="M76.66,105.52a15.47,15.47,0,0,0-.56,1.94c0,.22.28.32.34.1a13.67,13.67,0,0,0,.34-2c0-.1-.1-.14-.12-.06Z"/><path class="cls-24" d="M82.46,122.44a18.28,18.28,0,0,0,.24,6c.06.26.52.22.5-.06a53.72,53.72,0,0,1-.54-5.94c0-.12-.2-.12-.2,0Z"/><path class="cls-24" d="M78,123.62a6,6,0,0,0-.14,4,.13.13,0,0,0,.26,0c0-.66-.14-1.32-.16-2s.1-1.32,0-2c0,0,0,0,0,0Z"/><path class="cls-24" d="M80.82,117.86a13.4,13.4,0,0,0-.54,3.2.17.17,0,0,0,.34,0,12.6,12.6,0,0,0,.26-3.24,0,0,0,1,0-.06,0Z"/><path class="cls-24" d="M76.3,120.16c-.18.76-.38,1.5-.52,2.26,0,.14.18.18.2.06.16-.76.28-1.54.4-2.3,0-.06-.08-.08-.08,0Z"/><path class="cls-24" d="M73.52,126.1a32.6,32.6,0,0,0-.1,4.84.22.22,0,0,0,.44,0,32.68,32.68,0,0,0-.22-4.84c0-.06-.12-.08-.12,0Z"/><path class="cls-24" d="M67.54,135a24.78,24.78,0,0,0,.44,3.64.17.17,0,0,0,.34,0,22.07,22.07,0,0,0-.72-3.6c0-.06-.06,0-.06,0Z"/><path class="cls-24" d="M74.42,135.54a33.81,33.81,0,0,0,.7,3.44.23.23,0,0,0,.44-.12,32.17,32.17,0,0,0-1-3.34.06.06,0,1,0-.12,0Z"/><path class="cls-24" d="M70.72,131.66a12.89,12.89,0,0,0,.22,2.34c.06.24.46.2.44-.06a13.36,13.36,0,0,0-.58-2.3s-.1,0-.08,0Z"/><path class="cls-24" d="M78.6,131.92a4.52,4.52,0,0,0,.68,3.42c.1.16.4.06.32-.14a26.77,26.77,0,0,1-1-3.28s0,0,0,0Z"/><path class="cls-24" d="M71.34,139.84A5.88,5.88,0,0,0,72.4,143c.18.22.5-.06.38-.3a10.35,10.35,0,0,1-1.24-3c0-.12-.22-.06-.2.06Z"/><path class="cls-24" d="M69.26,143.76c.24.66.5,1.34.8,2,0,.08.2,0,.16-.06-.24-.68-.52-1.32-.8-2,0-.1-.18,0-.16.06Z"/><path class="cls-24" d="M82.06,132.6a9.1,9.1,0,0,0,1.62,3,.19.19,0,0,0,.32-.18,8.38,8.38,0,0,0-1.82-2.88c0-.08-.16,0-.12.06Z"/><path class="cls-24" d="M86.7,129.54a15.34,15.34,0,0,0,1.22,2.26.13.13,0,0,0,.22-.12,15.34,15.34,0,0,0-1.4-2.16s0,0,0,0Z"/><path class="cls-24" d="M79.86,113.4a14.78,14.78,0,0,0-1.16,2.86c0,.14.18.24.24.1a16.7,16.7,0,0,0,1-2.92s0-.06-.06,0Z"/><path class="cls-24" d="M82.2,108.14a14,14,0,0,0-.92,2,.19.19,0,0,0,.34.14,16,16,0,0,0,.66-2.1c0-.06-.08-.08-.08,0Z"/><path class="cls-24" d="M88,108c-.22.42-.44.84-.64,1.28-.06.14.16.28.22.12.2-.44.38-.9.54-1.36,0-.06-.08-.12-.12,0Z"/><path class="cls-24" d="M83.84,112.18A9.26,9.26,0,0,0,83.4,114c0,.16.22.18.26,0a9.17,9.17,0,0,0,.36-1.76c0-.14-.14-.2-.18-.06Z"/><path class="cls-24" d="M73.7,149.38a22.24,22.24,0,0,0,1.66,2.4c.14.16.42-.06.3-.24a28.54,28.54,0,0,0-1.9-2.22s-.08,0-.06.06Z"/><path class="cls-24" d="M76.46,145.3a17.4,17.4,0,0,0,1.74,2.26c.14.14.4,0,.28-.22a17.49,17.49,0,0,0-1.94-2.1.05.05,0,1,0-.08.06Z"/><path class="cls-24" d="M79.94,141.24a9.87,9.87,0,0,0,1.42,2.38c.14.16.34,0,.28-.22A9.39,9.39,0,0,0,80,141.18s-.08,0-.06.06Z"/><path class="cls-24" d="M84.94,140.46a17,17,0,0,0,4.24,4.22c.18.12.42-.16.24-.32-1.48-1.3-3-2.56-4.4-4,0-.06-.12,0-.08.06Z"/><path class="cls-24" d="M88.46,136.26A12.66,12.66,0,0,0,91,138.7c.14.1.38-.1.26-.26a12.93,12.93,0,0,0-2.68-2.32c-.08-.08-.16.06-.1.14Z"/><path class="cls-24" d="M93,132.24a11.45,11.45,0,0,0,2.42,2.68c.14.1.34-.1.24-.24A12.35,12.35,0,0,0,93,132.2a0,0,0,0,0,0,0Z"/><path class="cls-24" d="M79.7,152.24a4.07,4.07,0,0,0,1.5,2,7,7,0,0,0,2.2,1.38c.24.08.36-.26.16-.4a16.21,16.21,0,0,1-2.18-1.5,17,17,0,0,0-1.62-1.56,0,0,0,0,0-.06.06Z"/><path class="cls-24" d="M78.38,156.44c.46.46.9.92,1.4,1.34.1.08.24,0,.14-.14-.46-.46-1-.86-1.46-1.28,0-.06-.14,0-.08.08Z"/><path class="cls-24" d="M84.8,149.7a13.93,13.93,0,0,0,4.64,3.92.18.18,0,0,0,.18-.3,24.92,24.92,0,0,1-4.76-3.66s-.1,0-.06,0Z"/><path class="cls-24" d="M87.46,158.38c1.44,1,2.86,2.06,4.36,3a.14.14,0,1,0,.14-.24c-1.44-1-3-1.9-4.44-2.82-.08,0-.12,0-.06.08Z"/><path class="cls-24" d="M92.4,157.54a12.19,12.19,0,0,0,3.18,1.8c.22.08.32-.24.14-.36a12.23,12.23,0,0,0-3.24-1.6c-.08,0-.16.1-.08.16Z"/><path class="cls-24" d="M90.34,149.22a22.1,22.1,0,0,0,2.86,1.58c.26.12.48-.24.22-.38a23.92,23.92,0,0,0-3-1.34c-.08,0-.12.1-.06.14Z"/><path class="cls-24" d="M93.22,143.28c.82.44,1.62.88,2.46,1.28.12.06.24-.12.12-.18-.82-.42-1.68-.8-2.5-1.2-.08,0-.14.06-.08.1Z"/><path class="cls-24" d="M130.42,114.94c.34,1.78.34,3.6.84,5.36.08.28.58.24.54-.08-.22-1.82-.92-3.52-1.3-5.3,0-.06-.1,0-.08,0Z"/><path class="cls-24" d="M126.34,115.6a23.81,23.81,0,0,0,.28,2.4c.06.22.44.18.4-.06a24.3,24.3,0,0,0-.66-2.36s0,0,0,0Z"/><path class="cls-24" d="M126.48,109.84a14,14,0,0,0,.76,3.16c.1.22.38,0,.36-.14a15.05,15.05,0,0,0-1.06-3s-.06,0-.06,0Z"/><path class="cls-24" d="M130.64,111c.16.46.22.94.34,1.42a12.57,12.57,0,0,0,.48,1.38c.1.22.44.14.38-.1a11.2,11.2,0,0,0-.52-1.36c-.2-.46-.48-.86-.64-1.32,0,0-.06,0,0,0Z"/><path class="cls-24" d="M134.26,122.66a22.47,22.47,0,0,1,.2,3.84c0,.2.28.2.32,0a8.42,8.42,0,0,0-.42-3.86.05.05,0,0,0-.1,0Z"/><path class="cls-24" d="M128.82,121.54a18.63,18.63,0,0,0,.14,2.8.21.21,0,0,0,.42-.06,18.1,18.1,0,0,0-.4-2.74c0-.1-.18-.1-.16,0Z"/><path class="cls-24" d="M131.42,125a23.06,23.06,0,0,0,0,2.88.16.16,0,0,0,.32,0,23.14,23.14,0,0,0-.14-2.88c0-.12-.18-.12-.18,0Z"/><path class="cls-24" d="M134.82,130.26a27.06,27.06,0,0,0-.42,3.36c0,.2.34.26.36,0a24,24,0,0,0,.24-3.38c0-.1-.16-.14-.18,0Z"/><path class="cls-24" d="M121.92,108.6a26.29,26.29,0,0,0,.92,3.9.21.21,0,1,0,.4-.12,24.87,24.87,0,0,0-1.32-3.78s0,0,0,0Z"/><path class="cls-24" d="M126.34,105.62c.2.6.38,1.2.58,1.78.06.16.34.08.26-.08l-.72-1.74c0-.06-.14,0-.12,0Z"/><path class="cls-24" d="M123.22,105.56a16.38,16.38,0,0,0,.34,2c.06.22.38.12.34-.1a16.51,16.51,0,0,0-.56-1.94c0-.06-.14,0-.12.06Z"/><path class="cls-24" d="M117.34,122.44a53.72,53.72,0,0,1-.54,5.94c0,.28.42.34.5.06a18.33,18.33,0,0,0,.24-6c0-.12-.18-.12-.2,0Z"/><path class="cls-24" d="M121.92,123.62c0,.66.08,1.32.06,2s-.12,1.32-.16,2a.13.13,0,0,0,.26,0,5.91,5.91,0,0,0-.16-4Z"/><path class="cls-24" d="M119.12,117.88a12.53,12.53,0,0,0,.26,3.24.17.17,0,0,0,.34,0,12.47,12.47,0,0,0-.54-3.2c0-.06-.06-.06-.06,0Z"/><path class="cls-24" d="M123.62,120.18c.12.76.24,1.54.4,2.3,0,.14.22.08.2-.06-.14-.76-.34-1.52-.52-2.26,0-.06-.08,0-.08,0Z"/><path class="cls-24" d="M126.36,126.1a32.56,32.56,0,0,0-.22,4.84.22.22,0,0,0,.44,0,32.6,32.6,0,0,0-.1-4.84c0-.08-.12-.06-.12,0Z"/><path class="cls-24" d="M132.38,135a24.41,24.41,0,0,0-.72,3.6.17.17,0,0,0,.34,0,22.34,22.34,0,0,0,.44-3.64s-.06,0-.06,0Z"/><path class="cls-24" d="M125.46,135.5a32.17,32.17,0,0,0-1,3.34.23.23,0,0,0,.44.12,33.81,33.81,0,0,0,.7-3.44c0-.06-.1-.1-.12,0Z"/><path class="cls-24" d="M129.2,131.66a12.91,12.91,0,0,0-.58,2.3c0,.24.38.3.44.06a11.59,11.59,0,0,0,.22-2.34c0-.06-.06-.08-.08,0Z"/><path class="cls-24" d="M121.36,131.92a26.77,26.77,0,0,1-1,3.28c-.08.2.22.3.32.14a4.53,4.53,0,0,0,.68-3.42s0,0,0,0Z"/><path class="cls-24" d="M128.46,139.78a9.9,9.9,0,0,1-1.24,3c-.12.24.2.52.38.3a5.94,5.94,0,0,0,1.06-3.2c0-.12-.18-.18-.2-.06Z"/><path class="cls-24" d="M130.58,143.7c-.28.66-.56,1.3-.8,2,0,.1.12.16.16.06.3-.66.54-1.32.8-2,0-.1-.12-.16-.16-.06Z"/><path class="cls-24" d="M117.82,132.52A9,9,0,0,0,116,135.4a.19.19,0,0,0,.32.18,8.4,8.4,0,0,0,1.62-3s-.08-.12-.12-.06Z"/><path class="cls-24" d="M113.24,129.52a19,19,0,0,0-1.4,2.16c-.08.16.12.26.22.12a16.42,16.42,0,0,0,1.22-2.26s0,0,0,0Z"/><path class="cls-24" d="M120.08,113.42a13.56,13.56,0,0,0,1,2.92.13.13,0,0,0,.24-.1,15.31,15.31,0,0,0-1.16-2.86s-.06,0-.06,0Z"/><path class="cls-24" d="M117.76,108.16a15.06,15.06,0,0,0,.66,2.1.19.19,0,0,0,.34-.14,18.09,18.09,0,0,0-.92-2s-.1,0-.08,0Z"/><path class="cls-24" d="M111.9,108c.18.46.34.9.54,1.36.08.16.28,0,.22-.12-.18-.44-.42-.86-.64-1.28,0-.1-.14,0-.12,0Z"/><path class="cls-24" d="M116,112.22a8.59,8.59,0,0,0,.36,1.76c0,.14.28.12.26,0a8.91,8.91,0,0,0-.44-1.78c0-.12-.2-.06-.18.06Z"/><path class="cls-24" d="M126.26,149.34a25.25,25.25,0,0,0-1.9,2.22c-.12.18.16.4.3.24a28.42,28.42,0,0,0,1.66-2.4c0-.06,0-.1-.06-.06Z"/><path class="cls-24" d="M123.46,145.22a19.15,19.15,0,0,0-1.94,2.1c-.12.18.14.36.28.22a17.4,17.4,0,0,0,1.74-2.26s0-.1-.08-.06Z"/><path class="cls-24" d="M120,141.18a9.39,9.39,0,0,0-1.64,2.22.18.18,0,0,0,.28.22,9.87,9.87,0,0,0,1.42-2.38s0-.1-.06-.06Z"/><path class="cls-24" d="M115,140.38c-1.4,1.4-2.9,2.66-4.4,4-.18.16.06.44.24.32a16.67,16.67,0,0,0,4.24-4.22c.06,0,0-.1-.08-.06Z"/><path class="cls-24" d="M111.42,136.12a12.93,12.93,0,0,0-2.68,2.32c-.12.16.1.36.26.26a12.15,12.15,0,0,0,2.52-2.44c.08-.08,0-.22-.1-.14Z"/><path class="cls-24" d="M107,132.22a11.87,11.87,0,0,0-2.62,2.48c-.1.14.1.34.24.24a12.4,12.4,0,0,0,2.42-2.68s0-.06,0,0Z"/><path class="cls-24" d="M120.24,152.18a17,17,0,0,0-1.62,1.56,16.21,16.21,0,0,1-2.18,1.5c-.2.12-.08.48.16.4a6.49,6.49,0,0,0,2.2-1.38,4.15,4.15,0,0,0,1.5-2,0,0,0,0,0-.06-.06Z"/><path class="cls-24" d="M121.52,156.36a18.06,18.06,0,0,0-1.46,1.28.1.1,0,1,0,.14.14,14.77,14.77,0,0,0,1.4-1.34c.08-.06,0-.14-.08-.08Z"/><path class="cls-24" d="M115.14,149.64a24.13,24.13,0,0,1-4.76,3.66c-.2.12,0,.4.18.3a13.7,13.7,0,0,0,4.64-3.92s0-.06-.06,0Z"/><path class="cls-24" d="M112.5,158.3c-1.48.92-3,1.82-4.44,2.82-.14.1,0,.34.14.24,1.5-.92,2.92-2,4.36-3,0,0,0-.12-.06-.08Z"/><path class="cls-24" d="M107.52,157.4a12.23,12.23,0,0,0-3.24,1.6c-.16.12-.08.44.14.36a12.19,12.19,0,0,0,3.18-1.8c.08-.08,0-.2-.08-.16Z"/><path class="cls-24" d="M109.6,149.08a27.17,27.17,0,0,0-3,1.34c-.26.14,0,.5.22.38a26.57,26.57,0,0,0,2.86-1.58c.06,0,0-.18-.06-.14Z"/><path class="cls-24" d="M106.72,143.18c-.84.4-1.68.78-2.5,1.2-.12.06,0,.26.12.18l2.46-1.28s0-.14-.08-.1Z"/><path class="cls-24" d="M103.84,138.74c-.28.18-.58.3-.88.46a2.29,2.29,0,0,0-.76.54c-.1.14,0,.4.2.32a2.43,2.43,0,0,0,.74-.54c.26-.24.48-.5.74-.72,0,0,0-.08,0-.06Z"/><path class="cls-24" d="M100.58,135c-.14.12-.14.36-.14.54a2.55,2.55,0,0,0,0,.78c.06.24.38.16.4-.06a2.46,2.46,0,0,0-.08-.76c0-.18,0-.4-.2-.5Z"/><path class="cls-24" d="M96.54,139a9.07,9.07,0,0,0,1,1c.14.1.3-.12.18-.24a7.11,7.11,0,0,0-1.16-.74Z"/><path class="cls-24" d="M99.14,143.18a8,8,0,0,0,1.48.48.11.11,0,1,0,.06-.22,7.87,7.87,0,0,0-1.52-.3s-.06,0,0,0Z"/><path class="cls-24" d="M98.5,149a5,5,0,0,0,2.86.34.2.2,0,0,0-.06-.4,9.38,9.38,0,0,1-2.8.06Z"/><path class="cls-24" d="M97.22,155a7.84,7.84,0,0,0,5.06.38c.28-.08.16-.46-.12-.42a12.63,12.63,0,0,1-4.9-.1c-.1,0-.12.1,0,.14Z"/><path class="cls-24" d="M98.44,163.06a5.63,5.63,0,0,0,4-.1c.18-.08,0-.32-.12-.3a11.07,11.07,0,0,1-3.88.4s0,0,0,0Z"/><path class="cls-25" d="M133.06,147.62a30.06,30.06,0,0,0,.64-4.44s-2.62,15.92-20.9,21.48a31.16,31.16,0,0,0,3.9-3.4c-.12.1-8.1,5.84-16.7,6.18-8.6-.34-16.58-6.1-16.7-6.18a31.16,31.16,0,0,0,3.9,3.4c-18.3-5.58-20.9-21.48-20.9-21.48a36.52,36.52,0,0,0,.64,4.44,30,30,0,0,1-3.82-13.08,36,36,0,0,0,3.82,18.34,36.92,36.92,0,0,1-.64-4.9s2.62,17.58,20.9,23.72A33.07,33.07,0,0,1,83.3,168c.12.1,8.1,6.46,16.7,6.82,8.6-.38,16.58-6.72,16.7-6.82a31.36,31.36,0,0,1-3.9,3.74c18.3-6.16,20.9-23.72,20.9-23.72a43.74,43.74,0,0,1-.64,4.9,36.25,36.25,0,0,0,3.82-18.34A29.75,29.75,0,0,1,133.06,147.62Z"/></g><g id="moustache"><path class="cls-26" d="M106.06,114.56s-.66-1,.9-1.74c1.22-.6,7.26-4.72,12.56-.26s7.74,10.72,6.06,11.44-2.2-1.38-2.2-1.38,4.46,11.08.24,10.94-2.72-7.48-2.72-7.48-.12,1.08-.94,1.06c-2.9-.08,2.14-15.72-10.78-12.68C108.4,114.66,106.44,115.64,106.06,114.56Z"/><g class="cls-27"><path class="cls-28" d="M121.76,114.62a5.51,5.51,0,0,1,2.26,3.72,1.85,1.85,0,0,1,0,.74.74.74,0,0,1-.48.52,1.08,1.08,0,0,1-1-.36,5.61,5.61,0,0,1-1.2-1.54,9.15,9.15,0,0,1,1,3.76,2.23,2.23,0,0,1-.12,1,1,1,0,0,1-.72.62,1,1,0,0,1-.8-.32,2.32,2.32,0,0,1-.44-.78,11.8,11.8,0,0,1-.72-2.58,2.22,2.22,0,0,1,.06,1.14.75.75,0,0,1-.9.52.71.71,0,0,1-.38-.5,3.29,3.29,0,0,1-.1-.64,3,3,0,0,0-.72-1.56L114,115.4l-.9-2.44,3.16-3.28,5.8,3.78Z"/></g><g class="cls-27"><path class="cls-29" d="M114.34,114.62l1.22.34a.61.61,0,0,0,.42,0,.39.39,0,0,0,.08-.58,1.12,1.12,0,0,0-.54-.36,2.79,2.79,0,0,1,1.2,1c.32.4.6.84,1,1.22a1.11,1.11,0,0,0,1.1.46.91.91,0,0,0,.48-.86,2.61,2.61,0,0,0-.52-1.56,6.59,6.59,0,0,0-1.16-1.2,2.5,2.5,0,0,0,.78.74.84.84,0,0,0,1-.14.81.81,0,0,0,.1-.68,1.61,1.61,0,0,0-.38-.6,3.79,3.79,0,0,0-1.58-1l-3.1-2.3-3.48,1.1-4.66,2.4L105.2,114l1.08,1.62,4.78-.1Z"/></g><path class="cls-26" d="M93.7,114.56s.66-1-.9-1.74c-1.22-.6-7.26-4.72-12.56-.26S72.5,123.28,74.18,124s2.2-1.38,2.2-1.38-4.46,11.08-.24,10.94,2.72-7.48,2.72-7.48.12,1.08.94,1.06c2.9-.08-2.14-15.72,10.78-12.68C91.34,114.66,93.32,115.64,93.7,114.56Z"/><g class="cls-30"><path class="cls-28" d="M78,114.62a5.51,5.51,0,0,0-2.26,3.72,1.85,1.85,0,0,0,0,.74.7.7,0,0,0,.48.52,1.08,1.08,0,0,0,1-.36,5.61,5.61,0,0,0,1.2-1.54,9.15,9.15,0,0,0-1,3.76,2.23,2.23,0,0,0,.12,1,1,1,0,0,0,.72.62,1,1,0,0,0,.8-.32,2.32,2.32,0,0,0,.44-.78,11.8,11.8,0,0,0,.72-2.58,2.22,2.22,0,0,0-.06,1.14.75.75,0,0,0,.9.52.71.71,0,0,0,.38-.5,3.29,3.29,0,0,0,.1-.64,3,3,0,0,1,.72-1.56l3.5-2.92.9-2.44-3.16-3.28-5.8,3.78Z"/></g><g class="cls-30"><path class="cls-29" d="M85.42,114.62,84.2,115a.61.61,0,0,1-.42,0,.39.39,0,0,1-.08-.58,1.12,1.12,0,0,1,.54-.36,2.79,2.79,0,0,0-1.2,1c-.32.4-.6.84-1,1.22a1.11,1.11,0,0,1-1.1.46.91.91,0,0,1-.48-.86,2.61,2.61,0,0,1,.52-1.56,6.59,6.59,0,0,1,1.16-1.2,2.5,2.5,0,0,1-.78.74.84.84,0,0,1-1-.14.81.81,0,0,1-.1-.68,1.61,1.61,0,0,1,.38-.6,3.79,3.79,0,0,1,1.58-1l3.08-2.28,3.48,1.1,4.66,2.4L94.56,114l-1.08,1.62-4.78-.1Z"/></g></g><g id="mouth"><path class="cls-31" d="M101.5,116a29.6,29.6,0,0,1-6.86-.42c-3-.66-8.72-2.7-9.38,3.08s8.54,11.3,17,10.54,14.26-5.34,13.5-10.88S107.82,115.3,101.5,116Z"/><path class="cls-32" d="M100.7,125.38a16.37,16.37,0,0,1-6.12-1.22,12.31,12.31,0,0,1-4.36-2.84,3.35,3.35,0,0,1-1.06-2.26c0-.26.08-.44.1-.54l.3,0a15.46,15.46,0,0,1,3.18.56c.36.08.7.18,1,.24a29.91,29.91,0,0,0,6.06.56c1.08,0,1.84,0,1.92,0h.16c1.36-.14,2.72-.36,4-.56a34.31,34.31,0,0,1,4.92-.58,4.71,4.71,0,0,1,1,.08.12.12,0,0,0,0,.08,3.43,3.43,0,0,1-.86,2.76,9.1,9.1,0,0,1-3.3,2.36,17.9,17.9,0,0,1-5.78,1.4l-1.26,0Z"/><path class="cls-33" d="M100.2,122.64c1.5-.1,1.84-1.92,1.94-2.88l-.22,0h-.16c-.08,0-.82,0-1.92,0-.32,0-.66,0-1,0C98.7,120.86,98.72,122.74,100.2,122.64Z"/><path class="cls-33" d="M87.9,116.64c-1.24.42-2,2.3-1.06,3.34a.23.23,0,0,0,.38-.22,4.58,4.58,0,0,1-.32-1.7,2.19,2.19,0,0,1,1-1.4,0,0,0,0,0,0,0Z"/><path class="cls-33" d="M112.78,120.46a10.19,10.19,0,0,1-2.4,2.5.14.14,0,0,0,.14.24,6.59,6.59,0,0,0,2.34-2.68c0-.06,0-.1-.08-.06Z"/><path class="cls-33" d="M94.34,126.46c.48.46.88,1,1.62,1a1.42,1.42,0,0,0,1.26-.8l-.68-.08.18.94a.38.38,0,0,0,.64.16.6.6,0,0,1,.52-.28.37.37,0,0,0,.72-.2c-.28-1-1.28-.64-1.78-.06.22.06.42.12.64.16l-.18-.94a.37.37,0,0,0-.68-.08c-.36.82-1.58.44-2.18.14-.06,0-.08,0-.08,0Z"/></g><g id="eyes"><path class="cls-34" d="M92.88,95.24c0,3.56-3.56,4.1-7.94,4.1S77,98.8,77,95.24s3.56-6.44,7.94-6.44S92.88,91.68,92.88,95.24Z"/><path class="cls-33" d="M89.14,95.24c0,1.76-1.88,3.2-4.2,3.2s-4.2-1.44-4.2-3.2,1.88-2.32,4.2-2.32S89.14,93.48,89.14,95.24Z"/><ellipse class="cls-35" cx="84.94" cy="95.24" rx="1.78" ry="2.32"/><path class="cls-34" d="M107.16,95.24c0,3.56,3.56,4.1,7.94,4.1s7.94-.54,7.94-4.1-3.56-6.44-7.94-6.44S107.16,91.68,107.16,95.24Z"/><path class="cls-33" d="M110.88,95.24c0,1.76,1.88,3.2,4.2,3.2s4.2-1.44,4.2-3.2-1.88-2.32-4.2-2.32S110.88,93.48,110.88,95.24Z"/><ellipse class="cls-35" cx="115.1" cy="95.24" rx="1.78" ry="2.32"/><path class="cls-36" d="M79.32,94.34c1.64-1.22,3.1-2.4,5.24-2.46a8.75,8.75,0,0,1,5.4,2c.08.06.2-.08.12-.14a7.75,7.75,0,0,0-5.52-2.12,8.24,8.24,0,0,0-5.3,2.68s0,.1.06.06Z"/><path class="cls-36" d="M80.06,96.66A2.62,2.62,0,0,0,81.3,98.3c.1,0,.22-.08.12-.16a4.34,4.34,0,0,1-.72-.64,6.47,6.47,0,0,1-.54-.88s-.12,0-.1,0Z"/><path class="cls-36" d="M84.62,101.48c2.84,0,6-.64,7.76-3.1.08-.1-.08-.22-.16-.14a10.62,10.62,0,0,1-7.6,3.08c-.1,0-.1.16,0,.16Z"/><path class="cls-36" d="M90.86,101.1a4.71,4.71,0,0,0,2-1.86c.06-.1-.08-.16-.14-.08a6.38,6.38,0,0,1-2,1.84c-.06,0,0,.12.06.1Z"/><path class="cls-36" d="M120.78,94.24a8.24,8.24,0,0,0-5.3-2.68A7.83,7.83,0,0,0,110,93.68c-.08.08,0,.22.12.14a8.75,8.75,0,0,1,5.4-2c2.14.06,3.6,1.24,5.24,2.46,0,.08.1,0,.06-.06Z"/><path class="cls-36" d="M119.86,96.62c-.2.28-.3.6-.54.88a5.49,5.49,0,0,1-.72.64c-.1.08,0,.2.12.16A2.46,2.46,0,0,0,120,96.66c0-.06-.06-.08-.1,0Z"/><path class="cls-36" d="M115.42,101.34a10.62,10.62,0,0,1-7.6-3.08.11.11,0,0,0-.16.14c1.76,2.44,4.92,3.1,7.76,3.1.08,0,.08-.16,0-.16Z"/><path class="cls-36" d="M109.22,101a6.38,6.38,0,0,1-2-1.84c-.06-.08-.2,0-.14.08a4.71,4.71,0,0,0,2,1.86c.08,0,.14-.08.06-.1Z"/></g><g id="nose"><path class="cls-37" d="M96.5,91.84c.74-2.66-1.62-5.38-1.16-8.12a4.33,4.33,0,0,1,3.5-3.42,5,5,0,0,1,4.62,1.86,5.62,5.62,0,0,1,.86,5,20.21,20.21,0,0,1-1.2,2.7,5.34,5.34,0,0,0-.62,2.86"/><path class="cls-38" d="M99.56,81.94c-1,0-1.2.52-1.58,1.12a7,7,0,0,0-.76,2c-1.18,4.52-2.34,9-3.52,13.54-.58,2.26-1.18,4.52-1.7,6.78a8.54,8.54,0,0,0-.28,3.88,3.12,3.12,0,0,0,2.6,2.56,3,3,0,0,0,2.26-1,6.82,6.82,0,0,0,1.32-2.16,11.43,11.43,0,0,0,.58,4.82,2,2,0,0,0,2,1.12A2.35,2.35,0,0,0,102,113.4a5.54,5.54,0,0,0,.48-4.6,3.29,3.29,0,0,0,2,2.48,2.83,2.83,0,0,0,3-1.18,5.36,5.36,0,0,0,.86-3.22,18.31,18.31,0,0,0-.78-4.4c-1.62-6.18-3-12.32-5.7-18.1C101.32,83.42,100.64,82,99.56,81.94Z"/><path class="cls-39" d="M99.58,87.64a16.48,16.48,0,0,0-.72,5.58c0,2.06,0,4.12,0,6.16,0,4,0,8.1.1,12.14a1.12,1.12,0,0,0,2.24,0c.22-4.1.16-8.24,0-12.34-.06-2-.18-4-.32-6a15.32,15.32,0,0,0-1.24-5.6s-.12,0-.14,0Z"/></g><g id="eyebrows"><path class="cls-40" d="M120.6,83.64c-5.48-4-11.14.38-14.42,4.66a.57.57,0,0,0,.08.82.66.66,0,0,0,.68-.1c9.18-7,14.66.62,15.66,1.12a.79.79,0,0,0,.86-.1c.36-.32.22-.92,0-1.34a5,5,0,0,0-2.58-2.4,3.66,3.66,0,0,0,.9.34c.38.12.9.08,1-.32.26-1.06-2.2-1.88-2.6-2C120.6,84.44,121.16,84,120.6,83.64Z"/><path class="cls-40" d="M79.4,83.64c5.48-4,11.14.38,14.42,4.66a.57.57,0,0,1-.08.82.66.66,0,0,1-.68-.1c-9.18-7-14.66.62-15.66,1.12a.79.79,0,0,1-.86-.1c-.36-.32-.22-.92,0-1.34a5,5,0,0,1,2.58-2.4,3.66,3.66,0,0,1-.9.34c-.38.12-.9.08-1-.32-.26-1.06,2.2-1.88,2.6-2C79.4,84.44,78.84,84,79.4,83.64Z"/><path class="cls-41" d="M84.94,83.26a3.13,3.13,0,0,0-3.56.46c-.9,1.12,1.2,1.18,1.8,1.08,0-.16-.1-.34-.14-.5a7.42,7.42,0,0,0-3.34,1.78c-.1.12,0,.36.18.3,1.14-.46,2.1-1.2,3.3-1.58a.26.26,0,0,0-.14-.5c-.36.06-1.78.26-.8-.56a2.48,2.48,0,0,1,1-.34c.58-.1,1.14,0,1.7-.14Z"/><path class="cls-41" d="M89.88,86.16c-1.26-.86-3.2-1.74-4.76-1.42-.14,0-.12.24,0,.28.78.24,1.62.22,2.42.44a19.76,19.76,0,0,1,2.32.78s0,0,0-.08Z"/><path class="cls-41" d="M115.06,83.28c.56.1,1.12,0,1.7.12a2.57,2.57,0,0,1,1,.34c.82.7-.3.66-.8.56a.26.26,0,0,0-.14.5c1.2.38,2.16,1.12,3.3,1.58.18.08.28-.18.18-.3A7.42,7.42,0,0,0,117,84.3c0,.16-.1.34-.14.5.6.1,2.7,0,1.8-1.08a3.06,3.06,0,0,0-3.56-.44Z"/><path class="cls-41" d="M110.16,86.24a15.81,15.81,0,0,1,2.32-.78c.8-.22,1.64-.18,2.42-.44.12,0,.14-.26,0-.28-1.58-.32-3.5.58-4.76,1.42,0,0,0,.1,0,.08Z"/></g><g id="hair_front" data-name="hair front"><path class="cls-42" d="M127,74.4c-1.3-9.76-11.36-15.82-14.24-17s-17.44-4.66-28,.68c-7.92,4-11.84,13.56-11.66,18.12v.14a3.76,3.76,0,0,0,3.76,3.76,3.69,3.69,0,0,0,2.42-.9,5.14,5.14,0,0,0,4.18,2.14,5.06,5.06,0,0,0,3.88-1.78,2.25,2.25,0,0,0,1.74.8,2.33,2.33,0,0,0,1.8-.86,5.52,5.52,0,0,0,9.24.2,2.54,2.54,0,0,0,1.72.68,2.66,2.66,0,0,0,1.2-.3,5.47,5.47,0,0,0,3.52,1.28A5.4,5.4,0,0,0,111,79.14a2.66,2.66,0,0,0,1.88.76,2.69,2.69,0,0,0,2.2-1.14,4.3,4.3,0,0,0,6.06-.92,3.55,3.55,0,0,0,2.36.88,3.61,3.61,0,0,0,3.6-3.6A2.24,2.24,0,0,0,127,74.4Z"/><path class="cls-43" d="M94.7,68.7a5.74,5.74,0,0,0-4.9,1.7c-1.5,1.5-1.68,3.38-2.1,5.36a4.36,4.36,0,0,1-1.8,3,4.17,4.17,0,0,1-3.28.36c-2.52-.72-3.44-3.2-4.22-5.4a.37.37,0,0,0-.72.2c.52,3.78,5.1,7.92,8.84,5.12,1.82-1.38,1.68-3.82,2.2-5.82a6.25,6.25,0,0,1,6-4.48s0-.06,0-.06Z"/><path class="cls-43" d="M117.86,68.62a4.47,4.47,0,0,1,2.68,4.28c-.06,1.94-1.14,3.2-2.2,4.72-.14.2.14.46.34.34,3.3-2.22,2.88-7.86-.82-9.34,0,0,0,0,0,0Z"/><path class="cls-43" d="M112.82,59.58c-2.28,2.64-2.62,6.1-2.18,9.44a19.19,19.19,0,0,1,.3,6c-.42,2.2-2,4-4.34,4a.33.33,0,0,0,0,.66,4.51,4.51,0,0,0,3.9-2,8.38,8.38,0,0,0,1.14-5.62c-.4-4.24-1.6-8.72,1.18-12.48Z"/><path class="cls-43" d="M92.52,74.46a3.79,3.79,0,0,1,1.56.76c.38.32.64.74,1,1.08a.23.23,0,0,0,.36-.28,3.7,3.7,0,0,0-2.9-1.62s-.06,0,0,.06Z"/><path class="cls-43" d="M102.76,73.48A8.7,8.7,0,0,1,99.14,78c-1.82,1.12-3.68,1.1-5.72,1-.28,0-.28.36-.06.44a7.51,7.51,0,0,0,6.2-1,7.42,7.42,0,0,0,3.28-5s-.06,0-.08,0Z"/></g><g id="hat"><path class="cls-44" d="M160.36,24C154,4.48,126-3.94,97.94,5.24s-45.74,32.44-39.36,52c2.32,7.1,7.72,13,14.7,16.84h0c1.76,1,13,1.72,26.7,1.72,13.3,0,24.36-.7,26.56-1.64h0C151.16,63.86,166.28,42.18,160.36,24Z"/><g class="cls-45"><path class="cls-46" d="M80.6,13.42a27,27,0,0,0-9.78,15.16,24.66,24.66,0,0,0,2.34,17.06C75,49.1,77.92,52.2,81.64,53.5a21,21,0,0,0,8.94.6,92.54,92.54,0,0,0,19.06-3.82c3.24-1,6.62-2.22,9.94-1.5,2.6.56,4.8,2.24,7,3.72,4.82,3.22,10.34,5.68,16.12,5.82s11.86-2.4,14.86-7.36L134.38,81.7l-29,10.62L53.88,77,48,48.22l23.48-36.7Z"/></g><path class="cls-47" d="M115.82,24.66a75.64,75.64,0,0,0-12.8,7c-3.92,2.64-8,5.7-10.82,9.54-.26.36.3.74.6.46,1.76-1.56,3.34-3.32,5.06-4.92s3.7-3.32,5.68-4.84a62.58,62.58,0,0,1,12.3-7.18s0-.08,0-.06Z"/><path class="cls-47" d="M125.08,15.52c-7.88.62-16.2,3.48-22.2,8.76-.34.3.12.9.48.62a54.33,54.33,0,0,1,10-6,43.79,43.79,0,0,1,11.76-3.28c.06,0,.06-.08,0-.08Z"/><path class="cls-47" d="M126.68,30.38c-5.36,1.68-10.82,4.44-14.76,8.52-.3.32.14.74.48.48a59.5,59.5,0,0,1,6.7-5.14,41.42,41.42,0,0,1,7.6-3.78s0-.1,0-.08Z"/><path class="cls-47" d="M94.08,13.06a38.17,38.17,0,0,0-8,4.16c-1.18.82-2.34,1.72-3.44,2.66a13.71,13.71,0,0,0-3.12,3.24c-.18.3.18.72.5.5a29,29,0,0,0,3.06-2.82,45.52,45.52,0,0,1,3.56-2.94,50.32,50.32,0,0,1,7.46-4.62.09.09,0,1,0-.06-.18Z"/><path class="cls-47" d="M92,27.06a32,32,0,0,0-7.26,5.28,23.09,23.09,0,0,0-2.82,3.42,12.56,12.56,0,0,0-2.14,4.06c-.18.72.8,1.44,1.34.78a40.19,40.19,0,0,0,2.36-3.72c.76-1.18,1.6-2.28,2.44-3.42a33.31,33.31,0,0,1,6.14-6.3c.08-.06,0-.12-.06-.1Z"/><path class="cls-47" d="M103.92,43.06A15.25,15.25,0,0,0,97.32,50c-.18.42.38.78.62.36a22.65,22.65,0,0,1,6-7.18c.08,0,0-.14,0-.1Z"/><path class="cls-47" d="M117.24,44.76a51.33,51.33,0,0,0-4.84,3.14c-.4.3,0,1,.4.7A57.1,57.1,0,0,0,117.38,45a.12.12,0,0,0-.14-.2Z"/><path class="cls-47" d="M106,14.54c-2.88,1.5-6.08,2.78-8.66,4.76a.35.35,0,0,0,.34.6c3-1.3,5.66-3.46,8.36-5.26.08,0,0-.14,0-.1Z"/><path class="cls-47" d="M77.56,31.58A41.47,41.47,0,0,0,74.08,36c-.18.3.28.68.52.4a40.82,40.82,0,0,0,3-4.76c0-.08,0-.14-.08-.08Z"/><path class="cls-47" d="M152.68,49.7a13.76,13.76,0,0,1-2.36,2.58c-.82.68-1.8,1.16-2.62,1.84a.17.17,0,0,0,.16.28c2.08-.58,3.84-2.88,4.86-4.66.06-.06,0-.08,0,0Z"/><path class="cls-47" d="M110.1,45.4l-2,2.2c-.08.08.06.22.12.12.64-.76,1.28-1.54,1.9-2.3,0,0,0,0,0,0Z"/><path class="cls-47" d="M87.46,41.38c-.72,1.14-1.5,2.28-2.14,3.48-.08.14.14.28.22.14.72-1.14,1.32-2.38,2-3.58,0-.06,0-.08-.06,0Z"/><path class="cls-47" d="M97.24,31c-1.18,1.1-2.4,2.18-3.52,3.34-.14.14.08.34.2.2,1.16-1.12,2.24-2.34,3.34-3.52,0,0,0,0,0,0Z"/><path class="cls-47" d="M85.72,24.82c-1.14,1-2.36,2-3.4,3.06-.2.2.1.5.32.32,1.16-1,2.18-2.14,3.26-3.2.08-.12-.08-.26-.18-.18Z"/><path class="cls-47" d="M107.46,10.52l-3.8,1.62c-.24.1,0,.48.2.36l3.64-1.9s0-.1,0-.08Z"/><path class="cls-47" d="M125.94,26.44c-1.92,1-3.86,2-5.72,3.16a.14.14,0,0,0,.14.24c1.92-1,3.78-2.18,5.64-3.3a.06.06,0,1,0-.06-.1Z"/><path class="cls-47" d="M92.56,48.12a42.34,42.34,0,0,0-3.14,3.68c-.12.16.14.36.28.22a38.87,38.87,0,0,0,3-3.78c.08-.08-.08-.2-.14-.12Z"/><path class="cls-48" d="M120.48,53.9a20.75,20.75,0,0,0-2.88,2.74c-.14.2.14.36.3.24A20.36,20.36,0,0,0,120.54,54a0,0,0,1,0-.06-.06Z"/><path class="cls-48" d="M64.7,34.4a24.45,24.45,0,0,0-4,15.32c0,.38.62.38.58,0A27.19,27.19,0,0,1,64.86,34.5a.09.09,0,0,0-.16-.1Z"/><path class="cls-48" d="M64.26,48A10.06,10.06,0,0,0,65.4,54.1c.18.28.68.12.56-.24-.3-.92-.74-1.78-1-2.72A18.85,18.85,0,0,1,64.5,48c0-.18-.24-.18-.24,0Z"/><path class="cls-48" d="M61.58,55.52c.22.66.4,1.34.66,2a.21.21,0,1,0,.38-.16c-.28-.64-.62-1.26-.9-1.88-.06-.08-.16,0-.14,0Z"/><path class="cls-48" d="M104.24,55.78a39.31,39.31,0,0,0-5.32,5.16.28.28,0,0,0,.4.4,40.69,40.69,0,0,0,5-5.48c0-.06,0-.12-.1-.08Z"/><path class="cls-48" d="M113.6,53.88a39.18,39.18,0,0,0-5.66,5.1.28.28,0,0,0,.4.4,39.13,39.13,0,0,0,5.26-5.5Z"/><path class="cls-48" d="M112.76,62.16a56.73,56.73,0,0,1-5.46,5.28c-1,.88-2.12,1.7-3.24,2.48s-2.16,1.32-3.18,2.08a.23.23,0,0,0,.24.4,29,29,0,0,0,6.22-4.46,39.06,39.06,0,0,0,5.42-5.78Z"/><path class="cls-48" d="M101.9,67a34.49,34.49,0,0,1-4.76,3c-.82.42-1.64.8-2.5,1.16A15.87,15.87,0,0,0,92,72.26c-.28.18-.22.76.2.72a8.07,8.07,0,0,0,2.42-.92,27,27,0,0,0,2.68-1.5A34.07,34.07,0,0,0,101.9,67s0,0,0,0Z"/><path class="cls-48" d="M122.06,61.16a35.12,35.12,0,0,1-5.36,4.38c-.42.28,0,1,.4.68a21.36,21.36,0,0,0,5-5s-.06-.1-.08-.06Z"/><path class="cls-48" d="M129.64,63.76A32.23,32.23,0,0,1,122,69.5a35,35,0,0,1-9,3.14c-.48.12-.4,1,.12.9,6.5-.8,12.56-4.7,16.66-9.68.06-.08,0-.16-.08-.1Z"/><path class="cls-48" d="M136.18,63.72a50.47,50.47,0,0,0-5.28,4c-.24.2.08.62.34.44a53.58,53.58,0,0,0,5.06-4.24c.06-.08,0-.22-.12-.16Z"/><path class="cls-48" d="M95,58.22A36.1,36.1,0,0,0,91.36,62c-.16.22.16.42.34.26a37.65,37.65,0,0,0,3.34-4s0,0,0,0Z"/><path class="cls-48" d="M69.64,51.16a8.15,8.15,0,0,0,1.42,6.26c.24.32.76,0,.54-.32a13.1,13.1,0,0,1-1.78-5.92c0-.08-.16-.12-.18,0Z"/><path class="cls-48" d="M67.6,62.74a12.93,12.93,0,0,0,3.78,5.82A12,12,0,0,0,77.58,72c.48.08.92-.62.38-.88A30.33,30.33,0,0,1,72.18,68,21.2,21.2,0,0,1,67.7,62.7a.06.06,0,0,0-.1,0Z"/><path class="cls-48" d="M87.06,68.48c-1,.9-2,1.72-3,2.66a4.66,4.66,0,0,0,.56.22c.06-1.2,0-2.4.12-3.6a.53.53,0,0,0-1-.26c-.38.72-.82.82-1.56.94s-.48.94,0,1.1a2.06,2.06,0,0,0,2.52-1.64l-1-.14c.12,1.2.18,2.4.28,3.6,0,.26.36.46.56.22.9-1,1.68-2.08,2.54-3.1,0,0,0,0,0,0Z"/><path class="cls-48" d="M75.82,62.24a2.76,2.76,0,0,0,.72,1.14,7.68,7.68,0,0,0,1.12,1.16.34.34,0,0,0,.48-.48A10.23,10.23,0,0,0,77,62.92a2.58,2.58,0,0,0-1.12-.72s-.06,0-.06,0Z"/><path class="cls-49" d="M40.18,12.48a45,45,0,0,1,13.64,5.6,45.71,45.71,0,0,1,10.86,10C70.5,35.26,74.76,43.74,78,52.36c1.22,3.28,2.36,6.62,3.32,10a.55.55,0,0,0,1.06-.3,87,87,0,0,0-7.84-21.18c-4.46-8.82-10.42-17.36-18.6-23.12-4.66-3.28-10-5.5-15.76-5.34,0,0,0,.06,0,.06Z"/><path class="cls-50" d="M35.3,5.88a55.88,55.88,0,0,1,17.28,8.4C61.3,20.46,68,29.08,72.86,38.56a89.38,89.38,0,0,1,4.62,10.86c.72,2,1.36,4.08,1.94,6.14.64,2.26,1.1,4.58,1.76,6.84.24.86,1.42.48,1.3-.36a71.45,71.45,0,0,0-3.26-12,92.13,92.13,0,0,0-4-9.9,75.26,75.26,0,0,0-9.8-15.68C59.8,17.54,52.64,11.48,44.36,8a30.83,30.83,0,0,0-9-2.46c-.2,0-.24.3,0,.34Z"/><path class="cls-49" d="M21.26,24.26c1.76.18,3.46.34,5.22.38,1.6,0,3.22.12,4.82.22a63.66,63.66,0,0,1,9.14,1.3,55.81,55.81,0,0,1,15.28,5.76,56.19,56.19,0,0,1,19.88,19,54.48,54.48,0,0,1,5.56,11.5c.3.88,1.7.5,1.4-.38a58.64,58.64,0,0,0-13-21.22A56.26,56.26,0,0,0,42.86,25.26a62.53,62.53,0,0,0-10.18-1.7c-1.84-.16-3.68-.24-5.54-.22a26.47,26.47,0,0,0-5.88.76c-.12,0-.1.14,0,.16Z"/><path class="cls-49" d="M33.86,35.4c2.28-.08,4.56-.54,6.84-.72a37.74,37.74,0,0,1,6.2,0,35.28,35.28,0,0,1,11.68,3.06A43.72,43.72,0,0,1,75.76,52.2a52.27,52.27,0,0,1,5.4,10.18c.34.8,1.58.52,1.32-.36a35.86,35.86,0,0,0-4.78-9.54,47.85,47.85,0,0,0-7.42-8.64A40,40,0,0,0,48.6,33.42a34.44,34.44,0,0,0-7.32-.14,19.33,19.33,0,0,0-7.5,1.9c-.08.08,0,.24.08.22Z"/><path class="cls-50" d="M30.58,30.34a65.4,65.4,0,0,1,8.4,0,55.57,55.57,0,0,1,10.52,2,47.42,47.42,0,0,1,22.14,14,48.43,48.43,0,0,1,5.28,7.26c1.7,2.84,2.88,5.9,4.46,8.8a.55.55,0,0,0,1-.42,33.34,33.34,0,0,0-3.72-8.26,53.2,53.2,0,0,0-4.6-6.72A47.65,47.65,0,0,0,40.38,29.42a25.43,25.43,0,0,0-9.82.84s0,.08,0,.08Z"/><path class="cls-49" d="M19.78,20.76a35.24,35.24,0,0,0,5.2-.52c1.66-.16,3.3-.38,4.94-.46a44.9,44.9,0,0,1,9.12.4,41.63,41.63,0,0,1,15.4,5.66c8.86,5.4,15.64,13.72,20.62,22.72a83,83,0,0,1,6.08,13.86c.3.88,1.68.5,1.4-.38A79.25,79.25,0,0,0,68.62,36.46c-7.06-8.54-16.48-15.2-27.48-17.36a45.27,45.27,0,0,0-10.26-.8,39.41,39.41,0,0,0-5.52.56,17.12,17.12,0,0,0-5.64,1.72c-.08,0,0,.18.06.18Z"/><path class="cls-50" d="M26.12,15.64c6.84.16,13.6.28,20.14,2.52A41.59,41.59,0,0,1,60.86,27c7.36,6.8,12.46,15.72,16.28,24.9,1.44,3.46,2.64,7,4,10.5.34.84,1.72.48,1.38-.38-2.86-7.58-5.6-15.14-9.72-22.14-5.68-9.66-13.66-18.14-24.24-22.4-7-2.8-15.12-3.86-22.48-2-.06,0,0,.16,0,.16Z"/><path class="cls-50" d="M29.74,21.4c1.5.34,3,.68,4.48.88s2.94.42,4.4.72a60.4,60.4,0,0,1,7.94,2.14,51.66,51.66,0,0,1,12.9,6.68,54.83,54.83,0,0,1,15.4,17.1,60.19,60.19,0,0,1,4,8.06c.34.86,1.74.48,1.4-.38a61.91,61.91,0,0,0-9.54-16.18A53.81,53.81,0,0,0,49,24.56a57.1,57.1,0,0,0-8.9-2.7c-1.6-.34-3.24-.64-4.86-.84A22.84,22.84,0,0,0,29.78,21a.22.22,0,0,0,0,.44Z"/><path class="cls-51" d="M74.22,47.36a1.71,1.71,0,0,0-2,1.2,2,2,0,0,0,.8,2.26,1.26,1.26,0,1,0,.76,2.32,1.27,1.27,0,0,0-.94.88,1.08,1.08,0,0,0,.44,1.18.87.87,0,0,0,1.18-.3,1.76,1.76,0,1,0,3,1.72,2.21,2.21,0,0,0,1.08,2,1.82,1.82,0,0,0,2.16-.34,1.55,1.55,0,0,0-.12-2.12,2,2,0,0,0,2.24,0A1.92,1.92,0,0,0,83.46,54a2,2,0,0,0-1.86-1.26,1.69,1.69,0,0,0,1.6-.82,1.4,1.4,0,0,0-.32-1.72,1.17,1.17,0,0,0-1.66.3A2.36,2.36,0,0,0,82,49.12a1.54,1.54,0,0,0-.56-1.4A1.07,1.07,0,0,0,80,47.9a2,2,0,0,0-.84-2.28,2,2,0,0,0-2.42.34,1.51,1.51,0,0,0-1.92-.5,1.48,1.48,0,0,0-.58,1.9"/><path class="cls-52" d="M74.3,50.36c1.28-.84,2.56-1.68,3.84-2.5a1.47,1.47,0,0,1-.28-.08C79,50,80.1,52.2,81.24,54.4l.12-.3L78.72,55a5.09,5.09,0,0,0-1.38.46c-.2.18,0,0,.06.12-.06-.1-.12-.22-.18-.34L74.4,50.08c-.12-.24-.48,0-.36.2,1,1.84,2,3.66,3,5.5a.22.22,0,0,0,.24.1l4.2-1.38a.2.2,0,0,0,.12-.3c-1.12-2.2-2.24-4.42-3.38-6.62A.2.2,0,0,0,78,47.5c-1.28.84-2.56,1.68-3.84,2.5C73.88,50.14,74.08,50.5,74.3,50.36Z"/><path class="cls-52" d="M77.72,48.84c-.1.82,0,1.7-.08,2.54,0,.26.4.26.4,0a7.22,7.22,0,0,0-.32-2.54Z"/><path class="cls-52" d="M80.32,53.9a7.57,7.57,0,0,0-1-1,6.68,6.68,0,0,0-1-.88c-.14-.1-.36.1-.24.24a4.65,4.65,0,0,0,1,.88,4.08,4.08,0,0,0,1.2.72Z"/><path class="cls-52" d="M77.7,54.68a6,6,0,0,0,0-2,.17.17,0,0,0-.34,0,6.44,6.44,0,0,0,.3,1.94s0,0,0,0Z"/><path class="cls-52" d="M75.22,50.5c.26.26.54.5.82.76a5.18,5.18,0,0,0,.84.64.18.18,0,0,0,.22-.28,4.66,4.66,0,0,0-1.84-1.16s-.08,0,0,0Z"/><path class="cls-52" d="M75.78,46.26c0-.08-.14-.1-.22-.1a.63.63,0,0,0-.38.14c-.2.14-.4.5-.22.74.06.08.22.08.24,0s0-.46.22-.6a.84.84,0,0,1,.3-.08s.06,0,.06-.06Z"/><path class="cls-52" d="M73.66,48.38a.76.76,0,0,0-.58.46.78.78,0,0,0,.06.88c.12.14.3,0,.28-.16a1.55,1.55,0,0,1-.06-.68c.06-.2.22-.3.32-.48,0,0,0,0,0,0Z"/><path class="cls-52" d="M73,51.74c-.18,0-.24.28-.24.42s.18.44.38.42a.13.13,0,0,0,.08-.22c-.08-.1-.18-.12-.24-.24s0-.24,0-.38Z"/><path class="cls-52" d="M74.92,56a.82.82,0,0,0,.24.9.74.74,0,0,0,1,.08.15.15,0,0,0-.1-.24,1.48,1.48,0,0,1-.72-.06c-.26-.12-.34-.4-.42-.68Z"/><path class="cls-52" d="M78.7,57.2a.71.71,0,0,0,.68.72c.36,0,.86-.32.76-.72a.14.14,0,0,0-.24-.06c-.16.2-.22.42-.52.46s-.52-.16-.68-.4c0,0,0,0,0,0Z"/><path class="cls-52" d="M81.7,55.64c.84.26,1.6-1.26.9-1.76a.15.15,0,0,0-.22.12,1.9,1.9,0,0,0,.08.36,1,1,0,0,1-.06.6c-.14.34-.44.44-.72.64a.06.06,0,0,0,0,0Z"/><path class="cls-52" d="M82.2,51.92c.28.06.48-.38.5-.6s-.16-.82-.5-.78a.15.15,0,0,0-.14.18.57.57,0,0,0,.16.22.68.68,0,0,1,.18.38.78.78,0,0,1-.08.36c0,.08-.1.14-.12.24Z"/><path class="cls-52" d="M81.16,48.72c.1-.12-.14-.3-.22-.36a.64.64,0,0,0-.6,0,.14.14,0,0,0-.06.12v0c0,.06,0,.08.08.1s.16,0,.24-.06a.66.66,0,0,1,.28,0s.26.2.28.18Z"/><path class="cls-52" d="M77.74,46.42a2.45,2.45,0,0,0,.38,0,.8.8,0,0,1,.48.1.87.87,0,0,1,.32.34c.06.12.06.2.18.28a.11.11,0,0,0,.16,0c.24-.32-.3-.8-.58-.9s-.86-.1-.94.26Z"/></g></g></g></svg>