<?xml version="1.0" encoding="utf-8"?>
<!-- Generator: Adobe Illustrator 25.1.0, SVG Export Plug-In . SVG Version: 6.00 Build 0)  -->
<svg version="1.1" id="Layer_1" xmlns="http://www.w3.org/2000/svg" xmlns:xlink="http://www.w3.org/1999/xlink" x="0px" y="0px"
	 viewBox="0 0 595.3 595.3" style="enable-background:new 0 0 595.3 595.3;" xml:space="preserve">
<style type="text/css">
	.st0{fill-rule:evenodd;clip-rule:evenodd;fill:#650099;}
	.st1{fill-rule:evenodd;clip-rule:evenodd;fill:#FFFFFF;}
	.st2{fill-rule:evenodd;clip-rule:evenodd;fill:#00FFFF;}
</style>
<g>
	<path class="st0" d="M595.3,297.5c0-82.2-29.1-152.3-87.4-210.3c-58-58-128.1-87.1-210.3-87.1S145.1,29.2,87.1,87.2
		C29.1,145.2,0,215.3,0,297.5c0,82.2,29.1,152.3,87.1,210.3c58,58.2,128.3,87.4,210.5,87.4s152.3-29.1,210.3-87.4
		C566.2,449.8,595.3,379.7,595.3,297.5"/>
	<path class="st1" d="M400.6,233.3c-1-20.7-6.2-37.8-15.3-51.1c-9.4-13.3-21.7-23.2-37.3-29.4c-15.1-6.4-32.6-9.6-52.3-9.6
		c-17.5,0-34.3,3-49.9,8.6c-15.5,5.9-28.1,15.1-38,27.4c-10.1,12.3-15.3,28.1-15.5,47.1c0.2,17.5,4.9,31.1,13.6,40.7
		c8.6,9.9,20,17.3,34.1,22.5l21,6.9v-37.3c-6.7-2.7-12.3-5.7-17.3-9.1c-8.6-6.2-13.1-14.8-13.3-26.4c0.2-12.1,3.2-22,9.4-29.1
		s14.1-12.1,23.7-15.3c9.6-2.7,20-4.2,30.8-4.2c19.7,0,35.8,4.7,48.4,13.8c12.1,9.4,19.5,24.2,22.2,44.4H400.6 M332.7,277v36.8
		c11.4,3.5,21,8.4,28.6,14.6c8.6,6.7,13.1,16.5,13.3,29.4c-0.2,13.6-3.9,24.2-11.1,31.8c-7.2,7.7-16.3,12.8-27.1,15.8
		c-11.1,3-22.5,4.4-34.1,4.2c-14.6,0-28.1-2.5-40.7-7.2c-12.6-4.7-22.7-12.3-30.4-22.5c-7.7-10.1-11.6-23-11.8-38.7h-35.8
		c0.2,23,5.7,42,16.3,56.8c10.6,14.8,24.7,25.7,42.4,32.8c17.5,7.2,37.3,10.9,59,10.9c13.1,0,26.2-1.5,39.2-4.7
		c13.1-3.2,24.9-8.4,35.8-15.1c10.6-6.9,19.5-15.8,26.2-26.4c6.7-10.9,9.9-23.9,10.1-39c-0.2-18.3-4.9-32.8-13.6-43.7
		c-8.6-10.9-20-19.3-33.6-24.9C354.9,283.7,344,280,332.7,277z"/>
	<path class="st2" d="M278.4,189.7v204.1c7.7,1.7,15.5,2.5,23.9,2.5h0.2l13.3-0.5V191.1c-6.7-1.7-13.8-2.7-21.7-2.7L278.4,189.7
		 M233.5,77.1c-4.7-2.2-9.6-2.5-14.3-0.7c-31.6,11.1-60.2,29.4-85.6,54.8c-45.2,45.2-67.9,99.7-67.9,163.6
		c0,63.9,22.7,118.7,67.9,163.9c25.4,25.4,54,43.9,85.6,55c4.7,1.7,9.6,1.2,14.3-1c4.7-2.2,7.9-5.7,9.6-10.4c1.7-4.9,1.2-9.9-1-14.6
		c-2.2-4.7-5.7-7.9-10.4-9.6c-26.4-9.1-50.3-24.7-71.8-46.2c-37.8-37.8-56.8-83.7-56.8-137.2c0-53.6,19-99.2,56.8-137
		c21.5-21.5,45.4-37,71.8-46.2c4.7-1.7,8.1-4.7,10.4-9.4c2.2-4.7,2.7-9.6,1-14.6C241.4,83,238.2,79.3,233.5,77.1z M315.9,101.8
		c45.7,3.9,85.1,22.7,118.5,56c37.8,37.8,56.8,83.4,56.8,137c0,53.6-19,99.5-56.8,137.2c-33.3,33.6-72.8,52.3-118.5,56.3v-33.8
		l-14.6,0.5l-23-1.2v73.1l18.8-0.2c63.9,0,118.5-22.7,163.6-67.9c45.2-45.2,67.9-100,67.9-163.9c0-63.9-22.7-118.5-67.9-163.6
		C415.6,86,361.1,63.6,297.1,63.6l-18.8-0.5v67.9l17.3-1l20.2,1V101.8z"/>
</g>
</svg>
