<?xml version="1.0" encoding="UTF-8" standalone="no"?>
<!-- Created with Inkscape (http://www.inkscape.org/) -->

<svg
   width="100mm"
   height="100mm"
   viewBox="0 0 100 100"
   version="1.1"
   id="svg5"
   inkscape:version="1.1.1 (3bf5ae0d25, 2021-09-20)"
   sodipodi:docname="LPJEXBEE-a6fd37.svg"
   inkscape:export-filename="D:\Dev\projects\jex-graphics\LPJEXUSDT-732142.png"
   inkscape:export-xdpi="1820.4399"
   inkscape:export-ydpi="1820.4399"
   xmlns:inkscape="http://www.inkscape.org/namespaces/inkscape"
   xmlns:sodipodi="http://sodipodi.sourceforge.net/DTD/sodipodi-0.dtd"
   xmlns:xlink="http://www.w3.org/1999/xlink"
   xmlns="http://www.w3.org/2000/svg"
   xmlns:svg="http://www.w3.org/2000/svg">
  <sodipodi:namedview
     id="namedview7"
     pagecolor="#ffffff"
     bordercolor="#666666"
     borderopacity="1.0"
     inkscape:pageshadow="2"
     inkscape:pageopacity="0.0"
     inkscape:pagecheckerboard="0"
     inkscape:document-units="mm"
     showgrid="false"
     inkscape:zoom="0.7500982"
     inkscape:cx="396.61474"
     inkscape:cy="241.96832"
     inkscape:window-width="1920"
     inkscape:window-height="1027"
     inkscape:window-x="1912"
     inkscape:window-y="-8"
     inkscape:window-maximized="1"
     inkscape:current-layer="layer1" />
  <defs
     id="defs2">
    <style
       id="style824">.cls-1{fill:url(#Dégradé_sans_nom_13);}.cls-2,.cls-3,.cls-4,.cls-5,.cls-6,.cls-7{stroke:#fff;stroke-miterlimit:10;}.cls-2,.cls-3,.cls-4,.cls-5{stroke-width:7.20979px;}.cls-2{fill:url(#Dégradé_sans_nom_13-2);}.cls-3{fill:url(#Dégradé_sans_nom_13-3);}.cls-4{fill:url(#Dégradé_sans_nom_13-4);}.cls-5{fill:url(#Dégradé_sans_nom_13-5);}.cls-6{fill:none;}.cls-6,.cls-7{stroke-width:5.04685px;}.cls-7{fill:url(#Dégradé_sans_nom_13-6);}.cls-8{fill:url(#Dégradé_sans_nom_13-7);}</style>
    <linearGradient
       id="Dégradé_sans_nom_13"
       y1="70.701958"
       x2="141.40392"
       y2="70.701958"
       gradientUnits="userSpaceOnUse">
      <stop
         offset="0"
         stop-color="#00a19a"
         id="stop826" />
      <stop
         offset="1"
         stop-color="#29235c"
         id="stop828" />
    </linearGradient>
    <linearGradient
       id="Dégradé_sans_nom_13-2"
       x1="230.90323"
       y1="549.74615"
       x2="260.31412"
       y2="549.74615"
       gradientTransform="rotate(-15.00005,-1727.3378,1084.483)"
       xlink:href="#D%C3%A9grad%C3%A9_sans_nom_13" />
    <linearGradient
       id="Dégradé_sans_nom_13-3"
       x1="230.90323"
       y1="569.2901"
       x2="256.85846"
       y2="569.2901"
       gradientTransform="rotate(-15.00002,-1727.3417,1084.4848)"
       xlink:href="#D%C3%A9grad%C3%A9_sans_nom_13" />
    <linearGradient
       id="Dégradé_sans_nom_13-4"
       x1="295.79135"
       y1="549.82367"
       x2="321.74658"
       y2="549.82367"
       gradientTransform="rotate(-15.00002,-1727.3417,1084.4848)"
       xlink:href="#D%C3%A9grad%C3%A9_sans_nom_13" />
    <linearGradient
       id="Dégradé_sans_nom_13-5"
       x1="292.63248"
       y1="569.93652"
       x2="318.58771"
       y2="569.93652"
       gradientTransform="rotate(-15.00002,-1727.3417,1084.4848)"
       xlink:href="#D%C3%A9grad%C3%A9_sans_nom_13" />
    <linearGradient
       id="Dégradé_sans_nom_13-6"
       x1="54.986301"
       y1="19.83567"
       x2="88.994949"
       y2="19.83567"
       xlink:href="#D%C3%A9grad%C3%A9_sans_nom_13" />
    <linearGradient
       id="Dégradé_sans_nom_13-7"
       x1="249.84595"
       y1="618.40613"
       x2="299.38873"
       y2="618.40613"
       xlink:href="#D%C3%A9grad%C3%A9_sans_nom_13" />
    <clipPath
       id="clip0_411_785">
      <rect
         width="200"
         height="200"
         fill="white"
         id="rect1108" />
    </clipPath>
    <style
       id="style1077">.cls-1{fill:url(#Dégradé_sans_nom_13);}.cls-2,.cls-3,.cls-4,.cls-5,.cls-6,.cls-7{stroke:#fff;stroke-miterlimit:10;}.cls-2,.cls-3,.cls-4,.cls-5{stroke-width:7.20979px;}.cls-2{fill:url(#Dégradé_sans_nom_13-2);}.cls-3{fill:url(#Dégradé_sans_nom_13-3);}.cls-4{fill:url(#Dégradé_sans_nom_13-4);}.cls-5{fill:url(#Dégradé_sans_nom_13-5);}.cls-6{fill:none;}.cls-6,.cls-7{stroke-width:5.04685px;}.cls-7{fill:url(#Dégradé_sans_nom_13-6);}.cls-8{fill:url(#Dégradé_sans_nom_13-7);}</style>
    <linearGradient
       id="Dégradé_sans_nom_13-28"
       y1="70.70196"
       x2="141.40391"
       y2="70.70196"
       gradientUnits="userSpaceOnUse">
      <stop
         offset="0"
         stop-color="#00a19a"
         id="stop1079" />
      <stop
         offset="1"
         stop-color="#29235c"
         id="stop1081" />
    </linearGradient>
    <linearGradient
       id="Dégradé_sans_nom_13-2-2"
       x1="230.90323"
       y1="549.74614"
       x2="260.31412"
       y2="549.74614"
       gradientTransform="rotate(-15.00005,-1727.3378,1084.483)"
       xlink:href="#Dégradé_sans_nom_13-28" />
    <linearGradient
       id="Dégradé_sans_nom_13-3-2"
       x1="230.90323"
       y1="569.2901"
       x2="256.85847"
       y2="569.2901"
       gradientTransform="rotate(-15.00002,-1727.3417,1084.4848)"
       xlink:href="#Dégradé_sans_nom_13-28" />
    <linearGradient
       id="Dégradé_sans_nom_13-4-9"
       x1="295.79134"
       y1="549.82367"
       x2="321.74658"
       y2="549.82367"
       gradientTransform="rotate(-15.00002,-1727.3417,1084.4848)"
       xlink:href="#Dégradé_sans_nom_13-28" />
    <linearGradient
       id="Dégradé_sans_nom_13-5-8"
       x1="292.63248"
       y1="569.93651"
       x2="318.58772"
       y2="569.93651"
       gradientTransform="rotate(-15.00002,-1727.3417,1084.4848)"
       xlink:href="#Dégradé_sans_nom_13-28" />
    <linearGradient
       inkscape:collect="always"
       xlink:href="#Dégradé_sans_nom_13-28"
       id="linearGradient1135"
       gradientUnits="userSpaceOnUse"
       y1="70.70196"
       x2="141.40391"
       y2="70.70196" />
  </defs>
  <g
     inkscape:label="Calque 1"
     inkscape:groupmode="layer"
     id="layer1">
    <g
       id="Calque_1"
       data-name="Calque 1"
       transform="matrix(0.37933018,0,0,0.37933018,8.1010419,11.628357)">
      <circle
         class="cls-1"
         cx="70.701958"
         cy="70.701958"
         r="70.701958"
         id="circle1092"
         style="fill:url(#linearGradient1135)" />
      <line
         class="cls-2"
         x1="54.165459"
         y1="53.448311"
         x2="25.796829"
         y2="61.21011"
         id="line1094"
         style="fill:url(#D%C3%A9grad%C3%A9_sans_nom_13-2-2)" />
      <line
         class="cls-3"
         x1="55.905949"
         y1="73.295509"
         x2="30.835119"
         y2="80.013229"
         id="line1096"
         style="fill:url(#D%C3%A9grad%C3%A9_sans_nom_13-3-2)" />
      <line
         class="cls-4"
         x1="88.473907"
         y1="44.415798"
         x2="113.54475"
         y2="37.698078"
         id="line1098"
         style="fill:url(#D%C3%A9grad%C3%A9_sans_nom_13-4-9)" />
      <line
         class="cls-5"
         x1="90.628288"
         y1="64.660889"
         x2="115.69912"
         y2="57.943169"
         id="line1100"
         style="fill:url(#D%C3%A9grad%C3%A9_sans_nom_13-5-8)" />
      <path
         class="cls-6"
         d="m 265.38009,624.28229 v -40.40738 a 10.90709,10.90709 0 0 1 10.90709,-10.90709 h 23.10156 V 581.47"
         transform="translate(-210.39379,-536.12783)"
         id="path1102-6" />
      <path
         class="cls-7"
         d="m 69.87321,11.33351 h 19.12174 v 2.11741 A 14.88692,14.88692 0 0 1 74.108,28.33783 H 54.9863 V 26.22042 A 14.88692,14.88692 0 0 1 69.87321,11.33351 Z"
         id="path1104-7"
         style="fill:url(#D%C3%A9grad%C3%A9_sans_nom_13-6)" />
      <path
         class="cls-8"
         d="m 286.88745,612.39783 a 67.94939,67.94939 0 0 1 -27.93045,22.89868 16.1978,16.1978 0 0 0 -2.329,1.21789 14.65456,14.65456 0 0 0 -6.782,12.27478 c 0,8.21405 6.30932,15.05518 14.52337,15.05518 3.77149,0 8.59467,-1.02966 11.21637,-3.34326 15.83222,-11.31329 23.81348,-32.00244 23.803,-53.52466 v -34.00861 a 68.05974,68.05974 0 0 1 -12.50129,39.43 z"
         transform="translate(-210.39379,-536.12783)"
         id="path1106"
         style="fill:url(#D%C3%A9grad%C3%A9_sans_nom_13-7)" />
      <path
         class="cls-6"
         d="m 286.88745,612.39783 a 67.94939,67.94939 0 0 1 -27.93045,22.89868 16.1978,16.1978 0 0 0 -2.329,1.21789 14.65456,14.65456 0 0 0 -6.782,12.27478 c 0,8.21405 6.30932,15.05518 14.52337,15.05518 3.77149,0 8.59467,-1.02966 11.21637,-3.34326 15.83222,-11.31329 23.81348,-32.00244 23.803,-53.52466 v -34.00861 a 68.05974,68.05974 0 0 1 -12.50129,39.43 z"
         transform="translate(-210.39379,-536.12783)"
         id="path1108" />
    </g>
    <g
       id="g1113"
       transform="matrix(0.26458333,0,0,0.26458333,41.645323,37.297937)">
      <g
         id="logo_x5F_fondRond"
         class="st0">
	<circle
   class="st1"
   cx="-319.79999"
   cy="98.599998"
   r="100.5"
   id="circle1037" />

	<g
   class="st2"
   id="g1049">
		<path
   class="st3"
   d="m -352.3,135.7 c -7.4,0 -14,-1.6 -19.9,-4.8 -5.8,-3.2 -10.4,-7.6 -13.7,-13.2 -3.3,-5.5 -5,-11.9 -5,-19 0,-7 1.6,-13.3 4.9,-18.9 3.3,-5.6 7.7,-9.9 13.4,-13.2 5.7,-3.2 12,-4.8 19,-4.8 6.6,0 12.6,1.5 17.9,4.5 5.3,3 9.4,7.2 12.3,12.6 2.9,5.4 4.4,11.5 4.4,18.3 0,1.3 0,2.6 -0.1,3.9 -0.1,1.3 -0.3,2.8 -0.7,4.3 l -59.6,0.1 V 91.3 l 50.7,-0.1 -7.9,6 c -0.1,-4.2 -0.8,-7.7 -2.2,-10.5 -1.4,-2.8 -3.3,-5 -5.7,-6.4 -2.4,-1.5 -5.5,-2.2 -9.1,-2.2 -3.8,0 -7.1,0.8 -10,2.5 -2.8,1.7 -5,4 -6.5,7.1 -1.5,3.1 -2.3,6.7 -2.3,10.9 0,4.3 0.8,8 2.4,11.2 1.6,3.2 3.9,5.6 7,7.2 3,1.7 6.5,2.5 10.5,2.5 3.6,0 6.9,-0.6 9.8,-1.8 2.9,-1.2 5.5,-3 7.6,-5.6 l 11.4,11.4 c -3.6,4.1 -7.9,7.2 -12.7,9.2 -4.9,2 -10.2,3 -15.9,3 z"
   id="path1039" />

		<path
   class="st3"
   d="m -303.2,132.7 c -4.9,-2 -9.1,-5.1 -12.7,-9.2 l 11.4,-11.4 c 2.2,2.5 4.7,4.4 7.6,5.6 2.9,1.2 6.2,1.8 9.8,1.8 4,0 7.5,-0.8 10.5,-2.5 3,-1.7 5.3,-4.1 7,-7.2 1.6,-3.2 2.4,-6.9 2.4,-11.2 0,-4.2 -0.8,-7.8 -2.3,-10.9 -1.5,-3.1 -3.7,-5.4 -6.5,-7.1 -2.8,-1.7 -6.2,-2.5 -10,-2.5 -3.6,0 -6.6,0.7 -9.1,2.2 -2.4,1.5 -4.3,3.6 -5.7,6.4 -1.4,2.8 -2.1,6.3 -2.2,10.5 l -7.9,-6 50.7,0.1 v 14.3 l -59.6,-0.1 c -0.4,-1.6 -0.6,-3 -0.7,-4.3 -0.1,-1.3 -0.1,-2.6 -0.1,-3.9 0,-6.8 1.5,-12.9 4.4,-18.3 2.9,-5.4 7,-9.5 12.3,-12.6 5.3,-3 11.2,-4.5 17.9,-4.5 7,0 13.4,1.6 19,4.8 5.7,3.2 10.1,7.6 13.4,13.2 3.3,5.6 4.9,11.8 4.9,18.9 0,7.1 -1.7,13.4 -5,19 -3.3,5.6 -7.9,9.9 -13.7,13.2 -5.8,3.2 -12.4,4.8 -19.9,4.8 -5.7,-0.1 -11,-1.1 -15.9,-3.1 z"
   id="path1041" />

		<path
   class="st3"
   d="m -329.5,51 v 11 l 9.5,5.5 9.5,-5.5 V 51 l -9.5,-5.5 z"
   id="path1043" />

		<path
   class="st3"
   d="m -333.1,135.7 h 26.5 c 2,0 3.6,1.6 3.6,3.5 0,2 -1.6,3.5 -3.6,3.5 h -26.5 c -2,0 -3.6,-1.6 -3.6,-3.5 0.1,-1.9 1.7,-3.5 3.6,-3.5 z"
   id="path1045" />

		<path
   class="st3"
   d="m -325.9,145.2 h 12.2 c 2,0 3.6,1.6 3.6,3.5 0,2 -1.6,3.5 -3.6,3.5 h -12.2 c -2,0 -3.6,-1.6 -3.6,-3.5 0,-1.9 1.6,-3.5 3.6,-3.5 z"
   id="path1047" />

	</g>

</g>
      <g
         id="logo_x5F_fondBleu">
	<rect
   x="-0.60000002"
   y="-1.5"
   class="st3"
   width="201"
   height="201"
   id="rect1052" />

	<g
   id="g1064">
		<path
   class="st4"
   d="m 67.3,135.7 c -7.4,0 -14,-1.6 -19.9,-4.8 -5.8,-3.2 -10.4,-7.6 -13.7,-13.2 -3.3,-5.5 -5,-11.9 -5,-19 0,-7 1.6,-13.3 4.9,-18.9 3.3,-5.6 7.7,-9.9 13.4,-13.2 5.7,-3.2 12,-4.8 19,-4.8 6.6,0 12.6,1.5 17.9,4.5 5.3,3 9.4,7.2 12.3,12.6 2.9,5.4 4.4,11.5 4.4,18.3 0,1.3 0,2.6 -0.1,3.9 -0.1,1.3 -0.3,2.8 -0.7,4.3 l -59.6,0.1 V 91.3 l 50.7,-0.1 -7.9,6 C 82.9,93 82.2,89.5 80.8,86.7 79.4,83.9 77.5,81.7 75.1,80.3 72.6,78.7 69.6,78 66,78 c -3.8,0 -7.1,0.8 -10,2.5 -2.8,1.7 -5,4 -6.5,7.1 -1.5,3.1 -2.3,6.7 -2.3,10.9 0,4.3 0.8,8 2.4,11.2 1.6,3.2 3.9,5.6 7,7.2 3,1.7 6.5,2.5 10.5,2.5 3.6,0 6.9,-0.6 9.8,-1.8 2.9,-1.2 5.5,-3 7.6,-5.6 L 96,123.4 c -3.6,4.1 -7.9,7.2 -12.7,9.2 -4.9,2.1 -10.3,3.1 -16,3.1 z"
   id="path1054" />

		<path
   class="st4"
   d="m 116.4,132.7 c -4.9,-2 -9.1,-5.1 -12.7,-9.2 l 11.4,-11.4 c 2.2,2.5 4.7,4.4 7.6,5.6 2.9,1.2 6.2,1.8 9.8,1.8 4,0 7.5,-0.8 10.5,-2.5 3,-1.7 5.3,-4.1 7,-7.2 1.6,-3.2 2.4,-6.9 2.4,-11.2 0,-4.2 -0.8,-7.8 -2.3,-10.9 -1.5,-3.1 -3.7,-5.4 -6.5,-7.1 -2.8,-1.7 -6.2,-2.5 -10,-2.5 -3.6,0 -6.6,0.7 -9.1,2.2 -2.4,1.5 -4.3,3.6 -5.7,6.4 -1.4,2.8 -2.1,6.3 -2.2,10.5 l -7.9,-6 50.7,0.1 v 14.3 l -59.6,-0.1 c -0.4,-1.6 -0.6,-3 -0.7,-4.3 C 99,99.9 99,98.6 99,97.3 c 0,-6.8 1.5,-12.9 4.4,-18.3 2.9,-5.4 7,-9.5 12.3,-12.6 5.3,-3 11.2,-4.5 17.9,-4.5 7,0 13.4,1.6 19,4.8 5.7,3.2 10.1,7.6 13.4,13.2 3.3,5.6 4.9,11.8 4.9,18.9 0,7.1 -1.7,13.4 -5,19 -3.3,5.6 -7.9,9.9 -13.7,13.2 -5.8,3.2 -12.4,4.8 -19.9,4.8 -5.6,-0.1 -11,-1.1 -15.9,-3.1 z"
   id="path1056" />

		<path
   class="st4"
   d="m 90.2,51 v 11 l 9.5,5.5 9.5,-5.5 V 51 l -9.5,-5.5 z"
   id="path1058" />

		<path
   class="st4"
   d="m 86.6,135.7 h 26.5 c 2,0 3.6,1.6 3.6,3.5 0,2 -1.6,3.5 -3.6,3.5 H 86.6 c -2,0 -3.6,-1.6 -3.6,-3.5 0,-1.9 1.6,-3.5 3.6,-3.5 z"
   id="path1060" />

		<path
   class="st4"
   d="m 93.7,145.2 h 12.2 c 2,0 3.6,1.6 3.6,3.5 0,2 -1.6,3.5 -3.6,3.5 H 93.7 c -2,0 -3.6,-1.6 -3.6,-3.5 0.1,-1.9 1.6,-3.5 3.6,-3.5 z"
   id="path1062" />

	</g>

</g>
      <g
         id="logo_x5F_fondBlanc"
         class="st0">
	<rect
   x="-211.2"
   y="-1.5"
   class="st1"
   width="201"
   height="201"
   id="rect1067" />

	<g
   class="st2"
   id="g1079">
		<path
   class="st3"
   d="m -143.3,135.7 c -7.4,0 -14,-1.6 -19.9,-4.8 -5.8,-3.2 -10.4,-7.6 -13.7,-13.2 -3.3,-5.5 -5,-11.9 -5,-19 0,-7 1.6,-13.3 4.9,-18.9 3.3,-5.6 7.7,-9.9 13.4,-13.2 5.7,-3.2 12,-4.8 19,-4.8 6.6,0 12.6,1.5 17.9,4.5 5.3,3 9.4,7.2 12.3,12.6 2.9,5.4 4.4,11.5 4.4,18.3 0,1.3 0,2.6 -0.1,3.9 -0.1,1.3 -0.3,2.8 -0.7,4.3 l -59.6,0.1 V 91.3 l 50.7,-0.1 -7.9,6 c -0.1,-4.2 -0.8,-7.7 -2.2,-10.5 -1.4,-2.8 -3.3,-5 -5.7,-6.4 -2.4,-1.5 -5.5,-2.2 -9.1,-2.2 -3.8,0 -7.1,0.8 -10,2.5 -2.8,1.7 -5,4 -6.5,7.1 -1.5,3.1 -2.3,6.7 -2.3,10.9 0,4.3 0.8,8 2.4,11.2 1.6,3.2 3.9,5.6 7,7.2 3,1.7 6.5,2.5 10.5,2.5 3.6,0 6.9,-0.6 9.8,-1.8 2.9,-1.2 5.5,-3 7.6,-5.6 l 11.4,11.4 c -3.6,4.1 -7.9,7.2 -12.7,9.2 -4.8,2 -10.1,3 -15.9,3 z"
   id="path1069" />

		<path
   class="st3"
   d="m -94.1,132.7 c -4.9,-2 -9.1,-5.1 -12.7,-9.2 l 11.4,-11.4 c 2.2,2.5 4.7,4.4 7.6,5.6 2.9,1.2 6.2,1.8 9.8,1.8 4,0 7.5,-0.8 10.5,-2.5 3,-1.7 5.3,-4.1 7,-7.2 1.6,-3.2 2.4,-6.9 2.4,-11.2 0,-4.2 -0.8,-7.8 -2.3,-10.9 -1.5,-3.1 -3.7,-5.4 -6.5,-7.1 -2.8,-1.7 -6.2,-2.5 -10,-2.5 -3.6,0 -6.6,0.7 -9.1,2.2 -2.4,1.5 -4.3,3.6 -5.7,6.4 -1.4,2.8 -2.1,6.3 -2.2,10.5 l -7.9,-6 50.7,0.1 v 14.3 l -59.6,-0.1 c -0.4,-1.6 -0.6,-3 -0.7,-4.3 -0.1,-1.3 -0.1,-2.6 -0.1,-3.9 0,-6.8 1.5,-12.9 4.4,-18.3 2.9,-5.4 7,-9.5 12.3,-12.6 5.3,-3 11.2,-4.5 17.9,-4.5 7,0 13.4,1.6 19,4.8 5.7,3.2 10.1,7.6 13.4,13.2 3.3,5.6 4.9,11.8 4.9,18.9 0,7.1 -1.7,13.4 -5,19 -3.3,5.6 -7.9,9.9 -13.7,13.2 -5.8,3.2 -12.4,4.8 -19.9,4.8 -5.7,-0.1 -11,-1.1 -15.9,-3.1 z"
   id="path1071" />

		<path
   class="st3"
   d="m -120.4,51 v 11 l 9.5,5.5 9.5,-5.5 V 51 l -9.5,-5.5 z"
   id="path1073" />

		<path
   class="st3"
   d="m -124,135.7 h 26.5 c 2,0 3.6,1.6 3.6,3.5 0,2 -1.6,3.5 -3.6,3.5 H -124 c -2,0 -3.6,-1.6 -3.6,-3.5 0,-1.9 1.6,-3.5 3.6,-3.5 z"
   id="path1075" />

		<path
   class="st3"
   d="m -116.9,145.2 h 12.2 c 2,0 3.6,1.6 3.6,3.5 0,2 -1.6,3.5 -3.6,3.5 h -12.2 c -2,0 -3.6,-1.6 -3.6,-3.5 0.1,-1.9 1.7,-3.5 3.6,-3.5 z"
   id="path1077" />

	</g>

</g>
    </g>
  </g>
  <style
     type="text/css"
     id="style1035">
	.st0{display:none;}
	.st1{display:inline;fill:#FCFCFC;}
	.st2{display:inline;}
	.st3{fill:#0D3857;}
	.st4{fill:#FCFCFC;}
</style>
</svg>
