<?xml version="1.0" encoding="UTF-8"?>
<svg xmlns="http://www.w3.org/2000/svg" xmlns:xlink="http://www.w3.org/1999/xlink" width="200px" height="200px" viewBox="0 0 200 200" version="1.1">
<g id="surface1">
<path style=" stroke:none;fill-rule:nonzero;fill:rgb(0%,0%,0%);fill-opacity:1;" d="M 0 99.917969 L 0 199.839844 L 200 199.839844 L 200 0 L 0 0 Z M 119.152344 32.847656 C 121 33.253906 121.539062 33.820312 121.539062 35.195312 C 121.539062 38.1875 120.078125 38.753906 115.382812 37.460938 C 110.308594 36.085938 92.617188 36.328125 75.617188 38.027344 L 64.617188 39.078125 L 64.617188 43.609375 C 64.617188 52.589844 67.152344 63.753906 73.539062 83.007812 C 74.847656 86.8125 75.382812 90.046875 75.230469 92.3125 L 74.921875 95.875 L 73.617188 92.800781 C 72.152344 89.5625 70 81.066406 66.617188 65.535156 C 65.152344 58.980469 64.460938 53.640625 64.382812 47.332031 L 64.230469 38.429688 L 68.847656 37.78125 C 71.382812 37.378906 79.539062 36.085938 86.921875 34.789062 C 100 32.605469 113.847656 31.714844 119.152344 32.847656 Z M 126.152344 37.621094 C 126.152344 37.78125 125.382812 38.347656 124.460938 38.835938 C 122.769531 39.726562 122.769531 39.644531 124.152344 38.511719 C 125.769531 37.136719 126.152344 36.972656 126.152344 37.621094 Z M 143.847656 50.160156 C 153 61.730469 157.769531 68.769531 161.152344 75.648438 C 164.152344 81.632812 164.382812 83.414062 162.617188 84.953125 C 161 86.40625 159.847656 84.953125 157.769531 78.882812 C 155.539062 72.492188 150.691406 63.269531 146.078125 56.554688 C 138.230469 45.226562 136.921875 43.203125 135.382812 40.046875 C 134.230469 37.621094 134.152344 37.296875 135.152344 38.835938 C 135.921875 39.96875 139.847656 45.066406 143.847656 50.160156 Z M 113.769531 49.191406 C 109.382812 53.964844 103.230469 60.679688 100.078125 64.160156 C 96.921875 67.636719 93.308594 71.035156 92.078125 71.683594 L 89.847656 72.976562 L 91.230469 70.386719 C 93.460938 66.34375 119.617188 40.535156 121.460938 40.453125 C 121.691406 40.453125 118.230469 44.335938 113.769531 49.191406 Z M 60.617188 48.707031 C 62.078125 50.242188 61.691406 52.183594 59.539062 54.289062 C 55.078125 58.574219 49.308594 69.011719 41.539062 86.8125 C 38.847656 92.878906 36.152344 98.382812 35.460938 98.949219 C 34.382812 99.757812 34.382812 99.757812 35.152344 98.707031 C 35.921875 97.574219 43.078125 79.125 43.078125 78.074219 C 43.078125 77.832031 44.617188 73.785156 46.539062 69.09375 C 50 60.679688 54.078125 53.074219 57.152344 49.515625 C 59 47.492188 59.382812 47.410156 60.617188 48.707031 Z M 124.617188 75.566406 C 136.691406 78.640625 160.617188 87.054688 159.769531 87.863281 C 159.617188 88.027344 156.921875 87.296875 153.847656 86.164062 C 150.769531 85.03125 144 83.253906 138.921875 82.121094 C 122.691406 78.480469 117.691406 76.859375 117.691406 75.082031 C 117.691406 74.191406 119.769531 74.273438 124.617188 75.566406 Z M 104.617188 88.59375 C 109.152344 89.96875 112.382812 96.199219 110.769531 100.726562 C 109.460938 104.367188 105.382812 107.605469 102.152344 107.605469 C 96.539062 107.605469 93.539062 104.855469 92.617188 98.867188 C 92.308594 96.683594 92.539062 94.902344 93.382812 93.203125 C 94.691406 90.535156 99.617188 87.296875 101.539062 87.78125 C 102.152344 87.945312 103.539062 88.347656 104.617188 88.59375 Z M 166.921875 99.515625 C 166 101.457031 164.308594 105.746094 163.078125 109.140625 C 157.617188 124.839844 156.691406 127.347656 153.921875 132.847656 C 147.847656 145.308594 145.078125 148.625 142.382812 146.84375 C 140.769531 145.875 141.539062 143.851562 144.921875 139.886719 C 148.847656 135.273438 154.078125 126.214844 158.152344 116.910156 C 164 103.480469 167.847656 95.386719 168.230469 95.710938 C 168.382812 95.953125 167.847656 97.652344 166.921875 99.515625 Z M 134.078125 118.769531 C 138.382812 136.972656 139.847656 147.894531 136.230469 134.304688 C 135 129.613281 132.847656 122.410156 131.539062 118.203125 C 128.847656 109.546875 127.617188 103.800781 128.308594 102.105469 C 129.152344 99.59375 130.617188 103.722656 134.078125 118.769531 Z M 48.539062 109.140625 C 52.078125 110.4375 57.078125 111.894531 59.617188 112.460938 C 69.230469 114.402344 83.382812 118.203125 84.382812 119.09375 C 85.921875 120.46875 84.769531 121.359375 82.078125 120.875 C 73.847656 119.335938 37.769531 106.796875 41.691406 106.796875 C 41.921875 106.796875 45 107.847656 48.539062 109.140625 Z M 45 114.644531 C 46 120.632812 50.769531 129.125 65.539062 151.457031 C 67.078125 153.800781 68.921875 156.796875 69.617188 158.171875 L 70.847656 160.597656 L 69.078125 158.171875 C 68.078125 156.796875 64.769531 152.425781 61.691406 148.460938 C 51.382812 135.195312 44.539062 125.160156 41.847656 119.660156 C 38.847656 113.347656 38.691406 112.054688 40.539062 110.921875 C 42.617188 109.789062 44.382812 111.246094 45 114.644531 Z M 112.308594 124.757812 C 112.382812 126.132812 90 148.949219 85 152.667969 C 81.921875 154.933594 82.921875 153.640625 89.691406 146.359375 C 94.460938 141.261719 100 135.113281 102 132.6875 C 105.847656 128.074219 110.539062 123.785156 111.691406 123.785156 C 112 123.785156 112.308594 124.273438 112.308594 124.757812 Z M 88 158.171875 C 93 159.789062 109.078125 159.789062 121.152344 158.171875 C 126.230469 157.523438 132.308594 157.039062 134.617188 157.121094 C 138.152344 157.199219 138.382812 157.28125 135.769531 157.523438 C 131.382812 158.007812 119.921875 159.871094 112.308594 161.488281 C 108.230469 162.296875 101.460938 162.863281 94.460938 162.945312 C 81.921875 163.027344 80.617188 162.621094 82.152344 158.980469 C 83.230469 156.632812 83.152344 156.632812 88 158.171875 Z M 88 158.171875 "/>
</g>
</svg>
