<?xml version="1.0" encoding="UTF-8"?>
<!DOCTYPE svg PUBLIC "-//W3C//DTD SVG 1.1//EN" "http://www.w3.org/Graphics/SVG/1.1/DTD/svg11.dtd">
<svg xmlns="http://www.w3.org/2000/svg" version="1.1" width="200px" height="200px" style="shape-rendering:geometricPrecision; text-rendering:geometricPrecision; image-rendering:optimizeQuality; fill-rule:evenodd; clip-rule:evenodd" xmlns:xlink="http://www.w3.org/1999/xlink">
<g><path style="opacity:1" fill="#022b7e" d="M -0.5,-0.5 C 66.1667,-0.5 132.833,-0.5 199.5,-0.5C 199.5,66.1667 199.5,132.833 199.5,199.5C 196.167,199.5 192.833,199.5 189.5,199.5C 189.363,191.744 186.697,185.078 181.5,179.5C 180.921,175.639 178.921,172.973 175.5,171.5C 173.443,167.933 170.777,164.766 167.5,162C 163.247,159.29 159.08,156.457 155,153.5C 156.227,150.75 157.727,148.083 159.5,145.5C 160.5,145.5 161.5,145.5 162.5,145.5C 161.848,140.553 163.015,136.22 166,132.5C 166.167,131.333 166.333,130.167 166.5,129C 165.797,126.171 165.63,123.338 166,120.5C 169.617,118.061 171.784,114.727 172.5,110.5C 171.388,109.735 170.721,108.735 170.5,107.5C 170.603,104.781 170.269,102.115 169.5,99.5C 169.529,97.9707 170.196,96.804 171.5,96C 170.552,95.5172 169.552,95.3505 168.5,95.5C 167.833,92.5 167.167,89.5 166.5,86.5C 167.5,86.5 168.5,86.5 169.5,86.5C 169.351,87.552 169.517,88.552 170,89.5C 170.497,87.1902 170.663,84.8568 170.5,82.5C 169.5,82.5 168.5,82.5 167.5,82.5C 167.48,80.857 168.147,79.5237 169.5,78.5C 168.62,76.5708 167.62,74.7374 166.5,73C 167.648,71.274 168.815,71.4407 170,73.5C 170.167,72.8333 170.333,72.1667 170.5,71.5C 168.828,67.6299 168.328,63.6299 169,59.5C 171.902,61.5825 173.902,64.2492 175,67.5C 174.738,63.9251 174.905,60.4251 175.5,57C 171.709,54.9326 170.375,51.9326 171.5,48C 171,47.8333 170.5,47.6667 170,47.5C 168.726,48.5353 167.56,49.702 166.5,51C 169.349,55.36 168.016,57.5266 162.5,57.5C 162.5,56.5 162.5,55.5 162.5,54.5C 161.5,54.5 160.5,54.5 159.5,54.5C 159.5,53.5 159.5,52.5 159.5,51.5C 158.167,51.5 156.833,51.5 155.5,51.5C 155.512,48.858 154.179,47.5246 151.5,47.5C 149.287,45.4715 146.787,43.8049 144,42.5C 142.196,37.5596 139.863,32.893 137,28.5C 136.329,27.7476 135.496,27.4142 134.5,27.5C 133.833,25.8333 133.167,24.1667 132.5,22.5C 132.52,20.857 131.853,19.5237 130.5,18.5C 126.708,16.8646 123.042,15.0312 119.5,13C 114.167,12.3333 108.833,12.3333 103.5,13C 102.027,13.7096 101.36,14.8762 101.5,16.5C 98.0775,19.2635 94.4108,21.5968 90.5,23.5C 89.925,21.5887 88.925,19.922 87.5,18.5C 85.3863,12.1096 81.0529,9.9429 74.5,12C 79.3718,9.71382 78.7052,9.04715 72.5,10C 71.0099,11.772 69.3432,11.9387 67.5,10.5C 63.8784,12.7309 60.2117,12.8976 56.5,11C 58.9005,10.8142 61.2338,10.3142 63.5,9.5C 58.1258,8.50253 52.7925,8.83587 47.5,10.5C 49.4233,11.3078 51.4233,11.8078 53.5,12C 51.5253,14.0916 49.5253,15.9249 47.5,17.5C 44.3453,19.3187 42.3453,21.9854 41.5,25.5C 38.4981,27.292 36.6648,29.9586 36,33.5C 30.9409,37.3586 27.1075,42.0253 24.5,47.5C 24.5,47.8333 24.5,48.1667 24.5,48.5C 23.7611,48.369 23.0944,48.5357 22.5,49C 14.955,59.2437 8.78835,70.4103 4,82.5C 2.63658,84.6838 1.13658,86.6838 -0.5,88.5C -0.5,58.8333 -0.5,29.1667 -0.5,-0.5 Z"/></g>
<g><path style="opacity:1" fill="#0b2c6f" d="M 87.5,18.5 C 78.0607,13.9433 68.0607,12.4433 57.5,14C 54.7187,14.5218 52.3854,15.6885 50.5,17.5C 49.5,17.5 48.5,17.5 47.5,17.5C 49.5253,15.9249 51.5253,14.0916 53.5,12C 51.4233,11.8078 49.4233,11.3078 47.5,10.5C 52.7925,8.83587 58.1258,8.50253 63.5,9.5C 61.2338,10.3142 58.9005,10.8142 56.5,11C 60.2117,12.8976 63.8784,12.7309 67.5,10.5C 69.3432,11.9387 71.0099,11.772 72.5,10C 78.7052,9.04715 79.3718,9.71382 74.5,12C 81.0529,9.9429 85.3863,12.1096 87.5,18.5 Z"/></g>
<g><path style="opacity:1" fill="#0a2c64" d="M 132.5,22.5 C 123.276,15.5572 112.942,13.5572 101.5,16.5C 101.36,14.8762 102.027,13.7096 103.5,13C 108.833,12.3333 114.167,12.3333 119.5,13C 123.042,15.0312 126.708,16.8646 130.5,18.5C 131.853,19.5237 132.52,20.857 132.5,22.5 Z"/></g>
<g><path style="opacity:1" fill="#1a200e" d="M 87.5,18.5 C 88.925,19.922 89.925,21.5887 90.5,23.5C 89.1667,22.5 87.8333,21.5 86.5,20.5C 86.1583,19.6618 85.4916,19.3284 84.5,19.5C 82.7786,17.3057 80.4453,16.139 77.5,16C 68.366,14.9904 59.366,15.4904 50.5,17.5C 52.3854,15.6885 54.7187,14.5218 57.5,14C 68.0607,12.4433 78.0607,13.9433 87.5,18.5 Z"/></g>
<g><path style="opacity:1" fill="#1e291a" d="M 47.5,17.5 C 48.5,17.5 49.5,17.5 50.5,17.5C 47.271,19.9416 44.271,22.6082 41.5,25.5C 42.3453,21.9854 44.3453,19.3187 47.5,17.5 Z"/></g>
<g><path style="opacity:1" fill="#e8cd35" d="M 84.5,19.5 C 73.47,16.7463 62.47,16.9129 51.5,20C 45.8883,23.61 41.7217,28.4433 39,34.5C 36.8943,37.1177 34.3943,39.1177 31.5,40.5C 36.084,36.3315 39.4173,31.3315 41.5,25.5C 44.271,22.6082 47.271,19.9416 50.5,17.5C 59.366,15.4904 68.366,14.9904 77.5,16C 80.4453,16.139 82.7786,17.3057 84.5,19.5 Z"/></g>
<g><path style="opacity:1" fill="#f3cf28" d="M 86.5,20.5 C 87.8333,21.5 89.1667,22.5 90.5,23.5C 91.7866,26.4061 92.7866,29.4061 93.5,32.5C 81.9105,30.503 70.5772,31.3364 59.5,35C 57.1294,37.706 54.4628,40.0394 51.5,42C 53.2889,42.5205 54.9556,42.1871 56.5,41C 60.0897,36.5773 64.7564,34.2439 70.5,34C 78.5363,33.3355 86.5363,33.6688 94.5,35C 96.3464,36.0298 98.0131,37.1964 99.5,38.5C 93.9486,36.8499 88.2819,35.5166 82.5,34.5C 78.5906,35.8215 74.7573,36.8215 71,37.5C 70.228,37.3552 69.5613,37.0219 69,36.5C 68.1253,39.2146 66.2919,40.5479 63.5,40.5C 63.6567,41.8734 63.49,43.2068 63,44.5C 61.3335,43.6598 61.1669,44.1598 62.5,46C 58.3579,46.3251 54.3579,45.8251 50.5,44.5C 49.5985,40.7593 50.9319,38.7593 54.5,38.5C 54.1459,36.4588 54.1459,34.6255 54.5,33C 52.3763,31.4178 50.2096,31.2512 48,32.5C 47.4092,31.5165 47.7425,30.8499 49,30.5C 51.7736,29.6831 54.6069,29.6831 57.5,30.5C 61.0855,29.2075 64.7522,28.2075 68.5,27.5C 74.1732,28.6914 79.8399,28.6914 85.5,27.5C 85.9431,25.0351 86.2764,22.7018 86.5,20.5 Z"/></g>
<g><path style="opacity:1" fill="#1b2417" d="M 41.5,25.5 C 39.4173,31.3315 36.084,36.3315 31.5,40.5C 29.5,43.1667 27.1667,45.5 24.5,47.5C 27.1075,42.0253 30.9409,37.3586 36,33.5C 36.6648,29.9586 38.4981,27.292 41.5,25.5 Z"/></g>
<g><path style="opacity:1" fill="#fbd018" d="M 84.5,19.5 C 85.4916,19.3284 86.1583,19.6618 86.5,20.5C 86.2764,22.7018 85.9431,25.0351 85.5,27.5C 79.8399,28.6914 74.1732,28.6914 68.5,27.5C 64.7522,28.2075 61.0855,29.2075 57.5,30.5C 54.6069,29.6831 51.7736,29.6831 49,30.5C 47.7425,30.8499 47.4092,31.5165 48,32.5C 50.2096,31.2512 52.3763,31.4178 54.5,33C 54.1459,34.6255 54.1459,36.4588 54.5,38.5C 50.9319,38.7593 49.5985,40.7593 50.5,44.5C 54.3579,45.8251 58.3579,46.3251 62.5,46C 61.1669,44.1598 61.3335,43.6598 63,44.5C 63.49,43.2068 63.6567,41.8734 63.5,40.5C 66.2919,40.5479 68.1253,39.2146 69,36.5C 69.5613,37.0219 70.228,37.3552 71,37.5C 74.7573,36.8215 78.5906,35.8215 82.5,34.5C 88.2819,35.5166 93.9486,36.8499 99.5,38.5C 101.749,39.0798 103.415,40.4131 104.5,42.5C 104.343,43.8734 104.51,45.2068 105,46.5C 107.692,47.7022 108.526,49.5355 107.5,52C 93.1217,52.816 78.7883,52.6493 64.5,51.5C 63.6143,52.325 63.281,53.325 63.5,54.5C 56.5409,57.1275 51.5409,61.7942 48.5,68.5C 48.5698,69.7716 48.9032,70.9383 49.5,72C 54.6646,72.4451 59.3313,73.9451 63.5,76.5C 64.0906,77.1515 64.7573,77.8182 65.5,78.5C 63.604,79.4656 61.604,79.7989 59.5,79.5C 59.5,82.8333 61.1667,84.5 64.5,84.5C 67.1117,85.7787 69.4451,87.4453 71.5,89.5C 71.4142,90.4959 71.7476,91.3292 72.5,92C 79.7621,93.4911 87.0954,94.3245 94.5,94.5C 99.1785,94.3342 103.845,94.5008 108.5,95C 105.797,98.038 102.797,100.705 99.5,103C 93.397,104.885 87.397,107.052 81.5,109.5C 89.1767,109.114 96.51,106.948 103.5,103C 106.369,99.9621 109.369,97.1288 112.5,94.5C 116.178,94.223 119.012,92.5563 121,89.5C 120.981,91.1075 120.815,92.7741 120.5,94.5C 122.857,94.3367 125.19,94.5034 127.5,95C 130.504,97.4957 133.838,99.329 137.5,100.5C 139.148,102.429 140.815,104.429 142.5,106.5C 143.386,105.675 143.719,104.675 143.5,103.5C 145.048,103.821 145.715,104.821 145.5,106.5C 148.187,106.664 150.854,106.497 153.5,106C 152.062,105.781 150.729,105.281 149.5,104.5C 150.145,103.268 150.311,101.935 150,100.5C 154.552,101.609 159.052,101.609 163.5,100.5C 164.488,110.937 160.322,113.937 151,109.5C 143.779,112.364 144.279,114.198 152.5,115C 154.559,116.185 154.726,117.352 153,118.5C 150.355,117.084 147.521,116.417 144.5,116.5C 138.838,117.055 133.172,117.555 127.5,118C 132.833,118.333 138.167,118.667 143.5,119C 140.625,120.065 137.625,120.565 134.5,120.5C 121.541,119.017 108.541,118.35 95.5,118.5C 86.8526,117.006 78.186,115.506 69.5,114C 67.1484,113.76 65.1484,112.927 63.5,111.5C 63.5299,110.503 63.0299,109.836 62,109.5C 60.1886,108.922 58.3553,108.422 56.5,108C 58.0368,106.89 58.7035,105.39 58.5,103.5C 55.1212,103.112 51.7879,102.445 48.5,101.5C 49.9492,100.828 51.2825,100.161 52.5,99.5C 53.0431,99.44 53.3764,99.1067 53.5,98.5C 50.287,97.4135 47.287,97.7469 44.5,99.5C 43.2006,101.153 43.5339,102.653 45.5,104C 43.0449,105.864 40.8783,105.698 39,103.5C 38.1462,107.625 38.4796,111.625 40,115.5C 40.3333,115.167 40.6667,114.833 41,114.5C 41.7083,115.381 42.5416,116.047 43.5,116.5C 46.2849,119.106 49.2849,121.606 52.5,124C 60.5,128 68.5,132 76.5,136C 84.5926,139.224 92.9259,141.39 101.5,142.5C 119.687,143.787 138.02,143.787 156.5,142.5C 156.649,143.552 156.483,144.552 156,145.5C 155.346,144.304 154.846,144.304 154.5,145.5C 155.127,146.417 155.461,147.417 155.5,148.5C 155.189,149.478 154.522,150.145 153.5,150.5C 149.886,146.835 145.553,145.668 140.5,147C 132.775,151.392 125.608,156.559 119,162.5C 114.706,158.399 110.706,158.732 107,163.5C 106.333,165.5 106.333,167.5 107,169.5C 110.385,173.217 113.385,177.217 116,181.5C 117.534,186.84 116.367,191.34 112.5,195C 109.352,196.424 106.352,197.924 103.5,199.5C 68.8333,199.5 34.1667,199.5 -0.5,199.5C -0.5,163.833 -0.5,128.167 -0.5,92.5C 7.31187,77.5436 15.6452,62.8769 24.5,48.5C 24.5,48.1667 24.5,47.8333 24.5,47.5C 27.1667,45.5 29.5,43.1667 31.5,40.5C 34.3943,39.1177 36.8943,37.1177 39,34.5C 41.7217,28.4433 45.8883,23.61 51.5,20C 62.47,16.9129 73.47,16.7463 84.5,19.5 Z"/></g>
<g><path style="opacity:1" fill="#20271a" d="M 24.5,48.5 C 15.6452,62.8769 7.31187,77.5436 -0.5,92.5C -0.5,91.1667 -0.5,89.8333 -0.5,88.5C 1.13658,86.6838 2.63658,84.6838 4,82.5C 8.78835,70.4103 14.955,59.2437 22.5,49C 23.0944,48.5357 23.7611,48.369 24.5,48.5 Z"/></g>
<g><path style="opacity:1" fill="#e6cb42" d="M 104.5,42.5 C 109.18,46.9957 112.347,52.3291 114,58.5C 112.269,56.3834 110.102,54.8834 107.5,54C 92.7887,53.1999 78.122,53.3666 63.5,54.5C 63.281,53.325 63.6143,52.325 64.5,51.5C 78.7883,52.6493 93.1217,52.816 107.5,52C 108.526,49.5355 107.692,47.7022 105,46.5C 104.51,45.2068 104.343,43.8734 104.5,42.5 Z"/></g>
<g><path style="opacity:1" fill="#f7d020" d="M 154.5,52.5 C 148.87,54.1958 142.87,55.3625 136.5,56C 134.017,56.5666 133.35,57.7333 134.5,59.5C 134.5,59.8333 134.5,60.1667 134.5,60.5C 131.978,62.3606 129.478,64.3606 127,66.5C 126.308,67.4368 126.475,68.1034 127.5,68.5C 128.551,69.2223 129.218,70.2223 129.5,71.5C 129.573,73.0269 128.906,74.0269 127.5,74.5C 125.857,74.4802 124.524,75.1468 123.5,76.5C 122.833,73.0227 122.166,69.6893 121.5,66.5C 120.236,64.7299 118.736,63.0632 117,61.5C 115.242,53.8184 111.742,46.9851 106.5,41C 124.939,34.4558 140.939,38.2892 154.5,52.5 Z"/></g>
<g><path style="opacity:1" fill="#092d75" d="M 151.5,47.5 C 154.179,47.5246 155.512,48.858 155.5,51.5C 156.833,51.5 158.167,51.5 159.5,51.5C 159.5,52.5 159.5,53.5 159.5,54.5C 160.5,54.5 161.5,54.5 162.5,54.5C 162.5,55.5 162.5,56.5 162.5,57.5C 168.016,57.5266 169.349,55.36 166.5,51C 167.56,49.702 168.726,48.5353 170,47.5C 170.5,47.6667 171,47.8333 171.5,48C 170.375,51.9326 171.709,54.9326 175.5,57C 174.905,60.4251 174.738,63.9251 175,67.5C 173.902,64.2492 171.902,61.5825 169,59.5C 168.328,63.6299 168.828,67.6299 170.5,71.5C 170.333,72.1667 170.167,72.8333 170,73.5C 168.815,71.4407 167.648,71.274 166.5,73C 167.62,74.7374 168.62,76.5708 169.5,78.5C 168.147,79.5237 167.48,80.857 167.5,82.5C 168.5,82.5 169.5,82.5 170.5,82.5C 170.663,84.8568 170.497,87.1902 170,89.5C 169.517,88.552 169.351,87.552 169.5,86.5C 168.5,86.5 167.5,86.5 166.5,86.5C 167.167,89.5 167.833,92.5 168.5,95.5C 169.552,95.3505 170.552,95.5172 171.5,96C 170.196,96.804 169.529,97.9707 169.5,99.5C 170.269,102.115 170.603,104.781 170.5,107.5C 170.167,107.5 169.833,107.5 169.5,107.5C 168.126,105.142 166.793,102.808 165.5,100.5C 164.858,96.8673 162.858,94.5339 159.5,93.5C 159.351,92.448 159.517,91.448 160,90.5C 162.403,88.695 164.07,86.3616 165,83.5C 164.962,76.8325 165.795,70.3325 167.5,64C 166.008,61.3424 164.008,59.1757 161.5,57.5C 160.311,56.5713 158.978,56.238 157.5,56.5C 157.912,54.0274 156.912,52.6941 154.5,52.5C 153.925,50.5887 152.925,48.922 151.5,47.5 Z"/></g>
<g><path style="opacity:1" fill="#d3c566" d="M 134.5,60.5 C 134.5,60.1667 134.5,59.8333 134.5,59.5C 143.626,55.4383 152.626,55.605 161.5,60C 152.504,57.9404 143.504,58.107 134.5,60.5 Z"/></g>
<g><path style="opacity:1" fill="#1e1e0d" d="M 154.5,52.5 C 156.912,52.6941 157.912,54.0274 157.5,56.5C 158.978,56.238 160.311,56.5713 161.5,57.5C 164.008,59.1757 166.008,61.3424 167.5,64C 165.795,70.3325 164.962,76.8325 165,83.5C 164.07,86.3616 162.403,88.695 160,90.5C 159.517,91.448 159.351,92.448 159.5,93.5C 162.858,94.5339 164.858,96.8673 165.5,100.5C 165.784,102.415 165.451,104.081 164.5,105.5C 164.784,103.585 164.451,101.919 163.5,100.5C 163.205,97.5696 161.705,95.5696 159,94.5C 156.616,96.6887 153.782,98.0221 150.5,98.5C 149,98.5472 148,97.8805 147.5,96.5C 150.167,95.8333 152.833,95.1667 155.5,94.5C 153.5,93.8333 151.5,93.1667 149.5,92.5C 152.107,91.6816 154.774,91.1816 157.5,91C 158.381,90.2917 159.047,89.4584 159.5,88.5C 162.276,86.9477 163.443,84.6144 163,81.5C 158.898,86.1469 153.731,88.1469 147.5,87.5C 148.5,86.5 149.5,85.5 150.5,84.5C 155.885,85.1432 160.219,82.9765 163.5,78C 159.145,75.8223 154.811,73.6557 150.5,71.5C 149.833,70.8333 149.167,70.1667 148.5,69.5C 153.043,70.1871 157.21,71.8538 161,74.5C 162.543,73.4228 162.543,72.0894 161,70.5C 159.68,68.3456 157.847,66.8456 155.5,66C 149.29,64.9793 143.29,65.4793 137.5,67.5C 136.662,67.8417 136.328,68.5084 136.5,69.5C 135.609,68.8902 134.609,68.5569 133.5,68.5C 135.316,66.8634 137.316,65.3634 139.5,64C 146.249,63.1227 152.916,63.456 159.5,65C 164.552,72.6255 165.552,72.1255 162.5,63.5C 149.643,58.1463 137.976,59.813 127.5,68.5C 126.475,68.1034 126.308,67.4368 127,66.5C 129.478,64.3606 131.978,62.3606 134.5,60.5C 143.504,58.107 152.504,57.9404 161.5,60C 152.626,55.605 143.626,55.4383 134.5,59.5C 133.35,57.7333 134.017,56.5666 136.5,56C 142.87,55.3625 148.87,54.1958 154.5,52.5 Z"/></g>
<g><path style="opacity:1" fill="#22210a" d="M 132.5,22.5 C 133.167,24.1667 133.833,25.8333 134.5,27.5C 135.496,27.4142 136.329,27.7476 137,28.5C 139.863,32.893 142.196,37.5596 144,42.5C 146.787,43.8049 149.287,45.4715 151.5,47.5C 152.925,48.922 153.925,50.5887 154.5,52.5C 140.939,38.2892 124.939,34.4558 106.5,41C 111.742,46.9851 115.242,53.8184 117,61.5C 118.736,63.0632 120.236,64.7299 121.5,66.5C 121.55,71.5518 121.05,76.5518 120,81.5C 118.964,78.7046 117.631,76.038 116,73.5C 109.106,65.2633 100.606,59.43 90.5,56C 81.4995,55.8746 72.4995,56.2079 63.5,57C 57.7493,59.2518 53.416,63.0852 50.5,68.5C 50.7332,69.9317 51.3999,70.4317 52.5,70C 55.7625,64.702 60.4292,61.3686 66.5,60C 74.4452,58.5117 82.4452,58.1784 90.5,59C 95.7231,62.779 101.39,65.779 107.5,68C 112.149,71.6276 115.149,76.2943 116.5,82C 117.13,83.3102 118.13,84.1435 119.5,84.5C 119.66,86.1992 119.494,87.8659 119,89.5C 116.929,91.4375 114.762,93.1041 112.5,94.5C 109.369,97.1288 106.369,99.9621 103.5,103C 96.51,106.948 89.1767,109.114 81.5,109.5C 87.397,107.052 93.397,104.885 99.5,103C 102.797,100.705 105.797,98.038 108.5,95C 103.845,94.5008 99.1785,94.3342 94.5,94.5C 87.6803,93.1001 80.6803,91.9335 73.5,91C 72.9558,90.2828 72.2891,89.7828 71.5,89.5C 69.4451,87.4453 67.1117,85.7787 64.5,84.5C 63.7101,83.2058 62.7101,82.0391 61.5,81C 65.7884,81.9978 69.455,84.3311 72.5,88C 82.5982,90.8118 92.9315,92.3118 103.5,92.5C 108.672,93.2401 113.172,91.9068 117,88.5C 117.749,87.365 117.583,86.365 116.5,85.5C 111.32,87.4221 105.986,88.7554 100.5,89.5C 97.5143,89.6183 94.8476,88.9517 92.5,87.5C 93.7777,87.2178 94.7777,86.5511 95.5,85.5C 97.2897,86.9973 99.4563,87.664 102,87.5C 106.196,86.6535 110.363,85.6535 114.5,84.5C 113.853,79.539 111.853,75.2056 108.5,71.5C 104.516,70.2301 100.516,70.2301 96.5,71.5C 96.8627,72.1835 97.1961,72.8501 97.5,73.5C 95.4029,72.6469 93.4029,72.6469 91.5,73.5C 89.1858,72.8773 89.5192,72.544 92.5,72.5C 92.5,71.5 92.5,70.5 92.5,69.5C 84.1667,69.5 75.8333,69.5 67.5,69.5C 68.9187,68.5489 70.5853,68.2155 72.5,68.5C 81.5246,68.8315 90.5246,68.4982 99.5,67.5C 99.0431,66.7025 98.3764,66.3691 97.5,66.5C 95.4223,63.9493 92.7556,62.116 89.5,61C 80.7107,60.091 72.044,60.7576 63.5,63C 59.8938,64.2736 57.2272,66.607 55.5,70C 56.0253,70.6924 56.6919,71.1924 57.5,71.5C 59.943,69.9447 62.6097,69.278 65.5,69.5C 64.1667,70.1667 62.8333,70.8333 61.5,71.5C 61.3893,72.1174 61.056,72.6174 60.5,73C 64.1882,74.1818 67.8548,75.3484 71.5,76.5C 72.4538,78.5336 73.4538,80.5336 74.5,82.5C 72.1137,81.6267 70.1137,80.1267 68.5,78C 66.9751,76.9914 65.3084,76.4914 63.5,76.5C 59.3313,73.9451 54.6646,72.4451 49.5,72C 48.9032,70.9383 48.5698,69.7716 48.5,68.5C 51.5409,61.7942 56.5409,57.1275 63.5,54.5C 78.122,53.3666 92.7887,53.1999 107.5,54C 110.102,54.8834 112.269,56.3834 114,58.5C 112.347,52.3291 109.18,46.9957 104.5,42.5C 103.415,40.4131 101.749,39.0798 99.5,38.5C 98.0131,37.1964 96.3464,36.0298 94.5,35C 86.5363,33.6688 78.5363,33.3355 70.5,34C 64.7564,34.2439 60.0897,36.5773 56.5,41C 54.9556,42.1871 53.2889,42.5205 51.5,42C 54.4628,40.0394 57.1294,37.706 59.5,35C 70.5772,31.3364 81.9105,30.503 93.5,32.5C 92.7866,29.4061 91.7866,26.4061 90.5,23.5C 94.4108,21.5968 98.0775,19.2635 101.5,16.5C 112.942,13.5572 123.276,15.5572 132.5,22.5 Z"/></g>
<g><path style="opacity:1" fill="#f2ce29" d="M 97.5,66.5 C 89.1667,67.1667 80.8333,67.8333 72.5,68.5C 70.5853,68.2155 68.9187,68.5489 67.5,69.5C 66.8333,69.5 66.1667,69.5 65.5,69.5C 62.6097,69.278 59.943,69.9447 57.5,71.5C 56.6919,71.1924 56.0253,70.6924 55.5,70C 57.2272,66.607 59.8938,64.2736 63.5,63C 72.044,60.7576 80.7107,60.091 89.5,61C 92.7556,62.116 95.4223,63.9493 97.5,66.5 Z"/></g>
<g><path style="opacity:1" fill="#d5bf40" d="M 131.5,25.5 C 132.5,26.1667 133.5,26.8333 134.5,27.5C 136.095,31.1847 138.095,34.6847 140.5,38C 137.581,38.4326 134.914,37.9326 132.5,36.5C 133.978,36.762 135.311,36.4287 136.5,35.5C 134.447,32.3269 132.78,28.9936 131.5,25.5 Z"/></g>
<g><path style="opacity:1" fill="#f9d01c" d="M 131.5,25.5 C 132.78,28.9936 134.447,32.3269 136.5,35.5C 135.311,36.4287 133.978,36.762 132.5,36.5C 132.389,35.8826 132.056,35.3826 131.5,35C 128.167,34.8333 124.833,34.6667 121.5,34.5C 117.761,34.5136 114.428,35.1803 111.5,36.5C 109.321,37.0592 107.154,37.7259 105,38.5C 102.01,36.8498 99.01,35.1831 96,33.5C 95.9411,30.1776 94.7744,27.3443 92.5,25C 103.977,14.8113 116.311,13.8113 129.5,22C 130.823,22.8159 131.489,23.9826 131.5,25.5 Z"/></g>
<g><path style="opacity:1" fill="#e3cd5e" d="M 132.5,36.5 C 125.48,35.2529 118.48,35.2529 111.5,36.5C 114.428,35.1803 117.761,34.5136 121.5,34.5C 124.833,34.6667 128.167,34.8333 131.5,35C 132.056,35.3826 132.389,35.8826 132.5,36.5 Z"/></g>
<g><path style="opacity:1" fill="#d9c241" d="M 121.5,66.5 C 122.166,69.6893 122.833,73.0227 123.5,76.5C 124.524,75.1468 125.857,74.4802 127.5,74.5C 125.06,77.0434 123.394,80.0434 122.5,83.5C 121.105,82.1854 120.105,82.5188 119.5,84.5C 118.13,84.1435 117.13,83.3102 116.5,82C 115.149,76.2943 112.149,71.6276 107.5,68C 101.39,65.779 95.7231,62.779 90.5,59C 82.4452,58.1784 74.4452,58.5117 66.5,60C 60.4292,61.3686 55.7625,64.702 52.5,70C 51.3999,70.4317 50.7332,69.9317 50.5,68.5C 53.416,63.0852 57.7493,59.2518 63.5,57C 72.4995,56.2079 81.4995,55.8746 90.5,56C 100.606,59.43 109.106,65.2633 116,73.5C 117.631,76.038 118.964,78.7046 120,81.5C 121.05,76.5518 121.55,71.5518 121.5,66.5 Z"/></g>
<g><path style="opacity:1" fill="#d7c547" d="M 133.5,68.5 C 132.167,69.5 130.833,70.5 129.5,71.5C 129.218,70.2223 128.551,69.2223 127.5,68.5C 137.976,59.813 149.643,58.1463 162.5,63.5C 165.552,72.1255 164.552,72.6255 159.5,65C 152.916,63.456 146.249,63.1227 139.5,64C 137.316,65.3634 135.316,66.8634 133.5,68.5 Z"/></g>
<g><path style="opacity:1" fill="#dfce65" d="M 97.5,66.5 C 98.3764,66.3691 99.0431,66.7025 99.5,67.5C 90.5246,68.4982 81.5246,68.8315 72.5,68.5C 80.8333,67.8333 89.1667,67.1667 97.5,66.5 Z"/></g>
<g><path style="opacity:1" fill="#e6ca39" d="M 148.5,69.5 C 147.5,69.5 146.5,69.5 145.5,69.5C 142.833,68.8333 140.167,68.1667 137.5,67.5C 143.29,65.4793 149.29,64.9793 155.5,66C 157.847,66.8456 159.68,68.3456 161,70.5C 162.543,72.0894 162.543,73.4228 161,74.5C 157.21,71.8538 153.043,70.1871 148.5,69.5 Z"/></g>
<g><path style="opacity:1" fill="#eacb31" d="M 96.5,56.5 C 101.323,54.8637 105.99,55.3637 110.5,58C 113,60.5 115.5,63 118,65.5C 119.422,68.0301 119.755,70.6967 119,73.5C 114.119,68.3188 108.953,63.4855 103.5,59C 101.257,57.8638 98.9237,57.0305 96.5,56.5 Z"/></g>
<g><path style="opacity:1" fill="#6c5b0e" d="M 137.5,67.5 C 140.167,68.1667 142.833,68.8333 145.5,69.5C 142.5,69.5 139.5,69.5 136.5,69.5C 136.328,68.5084 136.662,67.8417 137.5,67.5 Z"/></g>
<g><path style="opacity:1" fill="#0e0e0c" d="M 65.5,69.5 C 66.1667,69.5 66.8333,69.5 67.5,69.5C 75.8333,69.5 84.1667,69.5 92.5,69.5C 92.5,70.5 92.5,71.5 92.5,72.5C 89.5192,72.544 89.1858,72.8773 91.5,73.5C 93.4029,72.6469 95.4029,72.6469 97.5,73.5C 98.9813,77.7885 98.3146,81.7885 95.5,85.5C 94.7777,86.5511 93.7777,87.2178 92.5,87.5C 85.9748,87.3359 79.9748,85.6693 74.5,82.5C 73.4538,80.5336 72.4538,78.5336 71.5,76.5C 71.393,74.0968 72.393,72.2635 74.5,71C 70.181,70.9241 65.8476,71.0907 61.5,71.5C 62.8333,70.8333 64.1667,70.1667 65.5,69.5 Z"/></g>
<g><path style="opacity:1" fill="#0a0a09" d="M 133.5,68.5 C 134.609,68.5569 135.609,68.8902 136.5,69.5C 139.5,69.5 142.5,69.5 145.5,69.5C 146.5,69.5 147.5,69.5 148.5,69.5C 149.167,70.1667 149.833,70.8333 150.5,71.5C 151.594,73.8647 152.261,76.3647 152.5,79C 152.607,81.2206 151.94,83.0539 150.5,84.5C 149.5,85.5 148.5,86.5 147.5,87.5C 139.799,87.6911 132.132,87.3577 124.5,86.5C 123.833,85.5 123.167,84.5 122.5,83.5C 123.394,80.0434 125.06,77.0434 127.5,74.5C 128.906,74.0269 129.573,73.0269 129.5,71.5C 130.833,70.5 132.167,69.5 133.5,68.5 Z"/></g>
<g><path style="opacity:1" fill="#dadfdc" d="M 71.5,76.5 C 67.8548,75.3484 64.1882,74.1818 60.5,73C 61.056,72.6174 61.3893,72.1174 61.5,71.5C 65.8476,71.0907 70.181,70.9241 74.5,71C 72.393,72.2635 71.393,74.0968 71.5,76.5 Z"/></g>
<g><path style="opacity:1" fill="#e4f0e7" d="M 77.5,72.5 C 78.675,72.281 79.675,72.6143 80.5,73.5C 78.9483,74.7979 77.9483,74.4646 77.5,72.5 Z"/></g>
<g><path style="opacity:1" fill="#c0c1be" d="M 135.5,73.5 C 137.048,73.8212 137.715,74.8212 137.5,76.5C 134.752,76.5983 134.086,75.5983 135.5,73.5 Z"/></g>
<g><path style="opacity:1" fill="#e8e7e2" d="M 143.5,76.5 C 145.167,76.5 146.833,76.5 148.5,76.5C 149.169,80.6759 147.669,82.0093 144,80.5C 143.51,79.2068 143.343,77.8734 143.5,76.5 Z"/></g>
<g><path style="opacity:1" fill="#c8cac8" d="M 79.5,77.5 C 81.0481,77.8212 81.7148,78.8212 81.5,80.5C 78.7524,80.5983 78.0857,79.5983 79.5,77.5 Z"/></g>
<g><path style="opacity:1" fill="#e5e9e5" d="M 88.5,74.5 C 92.9028,73.8933 94.2361,75.56 92.5,79.5C 86.6004,81.2733 85.2671,79.6066 88.5,74.5 Z"/></g>
<g><path style="opacity:1" fill="#f3f3f1" d="M 95.5,85.5 C 98.3146,81.7885 98.9813,77.7885 97.5,73.5C 97.1961,72.8501 96.8627,72.1835 96.5,71.5C 100.516,70.2301 104.516,70.2301 108.5,71.5C 111.853,75.2056 113.853,79.539 114.5,84.5C 110.363,85.6535 106.196,86.6535 102,87.5C 99.4563,87.664 97.2897,86.9973 95.5,85.5 Z"/></g>
<g><path style="opacity:1" fill="#d8dbd8" d="M 128.5,75.5 C 129.239,75.369 129.906,75.5357 130.5,76C 129.712,79.0757 129.212,82.2423 129,85.5C 127.391,84.8534 125.891,84.02 124.5,83C 125.656,80.3604 126.989,77.8604 128.5,75.5 Z"/></g>
<g><path style="opacity:1" fill="#ebeae9" d="M 135.5,80.5 C 137.337,80.6395 137.67,81.3061 136.5,82.5C 135.702,82.0431 135.369,81.3764 135.5,80.5 Z"/></g>
<g><path style="opacity:1" fill="#edf1e9" d="M 150.5,71.5 C 154.811,73.6557 159.145,75.8223 163.5,78C 160.219,82.9765 155.885,85.1432 150.5,84.5C 151.94,83.0539 152.607,81.2206 152.5,79C 152.261,76.3647 151.594,73.8647 150.5,71.5 Z"/></g>
<g><path style="opacity:1" fill="#b9aa3a" d="M 159.5,88.5 C 159.304,86.3544 158.304,86.1878 156.5,88C 146.833,88.6667 137.167,88.6667 127.5,88C 126.263,87.7679 125.263,87.2679 124.5,86.5C 132.132,87.3577 139.799,87.6911 147.5,87.5C 153.731,88.1469 158.898,86.1469 163,81.5C 163.443,84.6144 162.276,86.9477 159.5,88.5 Z"/></g>
<g><path style="opacity:1" fill="#e1c635" d="M 63.5,76.5 C 65.3084,76.4914 66.9751,76.9914 68.5,78C 70.1137,80.1267 72.1137,81.6267 74.5,82.5C 79.9748,85.6693 85.9748,87.3359 92.5,87.5C 94.8476,88.9517 97.5143,89.6183 100.5,89.5C 105.986,88.7554 111.32,87.4221 116.5,85.5C 117.583,86.365 117.749,87.365 117,88.5C 113.172,91.9068 108.672,93.2401 103.5,92.5C 92.9315,92.3118 82.5982,90.8118 72.5,88C 69.455,84.3311 65.7884,81.9978 61.5,81C 62.7101,82.0391 63.7101,83.2058 64.5,84.5C 61.1667,84.5 59.5,82.8333 59.5,79.5C 61.604,79.7989 63.604,79.4656 65.5,78.5C 64.7573,77.8182 64.0906,77.1515 63.5,76.5 Z"/></g>
<g><path style="opacity:1" fill="#c9b844" d="M 71.5,89.5 C 72.2891,89.7828 72.9558,90.2828 73.5,91C 80.6803,91.9335 87.6803,93.1001 94.5,94.5C 87.0954,94.3245 79.7621,93.4911 72.5,92C 71.7476,91.3292 71.4142,90.4959 71.5,89.5 Z"/></g>
<g><path style="opacity:1" fill="#231f0e" d="M 143.5,103.5 C 143.719,104.675 143.386,105.675 142.5,106.5C 140.815,104.429 139.148,102.429 137.5,100.5C 136.375,98.8712 135.041,97.3712 133.5,96C 130.497,94.8338 127.83,93.1672 125.5,91C 129.879,91.9411 134.379,92.7745 139,93.5C 140.561,93.3968 142.061,93.0634 143.5,92.5C 144.711,93.2739 144.711,94.1072 143.5,95C 141.167,95.3333 138.833,95.6667 136.5,96C 138.333,98.9985 140.666,101.498 143.5,103.5 Z"/></g>
<g><path style="opacity:1" fill="#1d1e02" d="M 52.5,99.5 C 49.6183,99.9861 46.9517,99.9861 44.5,99.5C 47.287,97.7469 50.287,97.4135 53.5,98.5C 53.3764,99.1067 53.0431,99.44 52.5,99.5 Z"/></g>
<g><path style="opacity:1" fill="#edcd28" d="M 122.5,83.5 C 123.167,84.5 123.833,85.5 124.5,86.5C 125.263,87.2679 126.263,87.7679 127.5,88C 137.167,88.6667 146.833,88.6667 156.5,88C 158.304,86.1878 159.304,86.3544 159.5,88.5C 159.047,89.4584 158.381,90.2917 157.5,91C 154.774,91.1816 152.107,91.6816 149.5,92.5C 151.5,93.1667 153.5,93.8333 155.5,94.5C 152.833,95.1667 150.167,95.8333 147.5,96.5C 148,97.8805 149,98.5472 150.5,98.5C 153.782,98.0221 156.616,96.6887 159,94.5C 161.705,95.5696 163.205,97.5696 163.5,100.5C 159.052,101.609 154.552,101.609 150,100.5C 150.311,101.935 150.145,103.268 149.5,104.5C 150.729,105.281 152.062,105.781 153.5,106C 150.854,106.497 148.187,106.664 145.5,106.5C 145.715,104.821 145.048,103.821 143.5,103.5C 140.666,101.498 138.333,98.9985 136.5,96C 138.833,95.6667 141.167,95.3333 143.5,95C 144.711,94.1072 144.711,93.2739 143.5,92.5C 142.061,93.0634 140.561,93.3968 139,93.5C 134.379,92.7745 129.879,91.9411 125.5,91C 127.83,93.1672 130.497,94.8338 133.5,96C 135.041,97.3712 136.375,98.8712 137.5,100.5C 133.838,99.329 130.504,97.4957 127.5,95C 125.19,94.5034 122.857,94.3367 120.5,94.5C 120.815,92.7741 120.981,91.1075 121,89.5C 119.012,92.5563 116.178,94.223 112.5,94.5C 114.762,93.1041 116.929,91.4375 119,89.5C 119.494,87.8659 119.66,86.1992 119.5,84.5C 120.105,82.5188 121.105,82.1854 122.5,83.5 Z"/></g>
<g><path style="opacity:1" fill="#e4c736" d="M 44.5,99.5 C 46.9517,99.9861 49.6183,99.9861 52.5,99.5C 51.2825,100.161 49.9492,100.828 48.5,101.5C 51.7879,102.445 55.1212,103.112 58.5,103.5C 58.7035,105.39 58.0368,106.89 56.5,108C 58.3553,108.422 60.1886,108.922 62,109.5C 63.0299,109.836 63.5299,110.503 63.5,111.5C 59.3967,110.91 55.3967,109.91 51.5,108.5C 51.5,107.833 51.5,107.167 51.5,106.5C 57.6347,106.01 57.8014,105.343 52,104.5C 49.102,104.637 46.2686,105.137 43.5,106C 40.1247,107.029 38.9581,109.196 40,112.5C 40.7083,111.619 41.5416,110.953 42.5,110.5C 43.1667,110.5 43.5,110.833 43.5,111.5C 43.5,113.167 43.5,114.833 43.5,116.5C 42.5416,116.047 41.7083,115.381 41,114.5C 40.6667,114.833 40.3333,115.167 40,115.5C 38.4796,111.625 38.1462,107.625 39,103.5C 40.8783,105.698 43.0449,105.864 45.5,104C 43.5339,102.653 43.2006,101.153 44.5,99.5 Z"/></g>
<g><path style="opacity:1" fill="#282405" d="M 51.5,106.5 C 47.5843,105.961 44.5843,107.294 42.5,110.5C 41.5416,110.953 40.7083,111.619 40,112.5C 38.9581,109.196 40.1247,107.029 43.5,106C 46.2686,105.137 49.102,104.637 52,104.5C 57.8014,105.343 57.6347,106.01 51.5,106.5 Z"/></g>
<g><path style="opacity:1" fill="#bbb763" d="M 51.5,106.5 C 51.5,107.167 51.5,107.833 51.5,108.5C 48.014,107.829 45.3473,108.829 43.5,111.5C 43.5,110.833 43.1667,110.5 42.5,110.5C 44.5843,107.294 47.5843,105.961 51.5,106.5 Z"/></g>
<g><path style="opacity:1" fill="#edcc2c" d="M 163.5,100.5 C 164.451,101.919 164.784,103.585 164.5,105.5C 160.396,119.238 151.062,124.905 136.5,122.5C 122.633,121.667 108.967,120.334 95.5,118.5C 108.541,118.35 121.541,119.017 134.5,120.5C 137.625,120.565 140.625,120.065 143.5,119C 138.167,118.667 132.833,118.333 127.5,118C 133.172,117.555 138.838,117.055 144.5,116.5C 147.521,116.417 150.355,117.084 153,118.5C 154.726,117.352 154.559,116.185 152.5,115C 144.279,114.198 143.779,112.364 151,109.5C 160.322,113.937 164.488,110.937 163.5,100.5 Z"/></g>
<g><path style="opacity:1" fill="#bc1828" d="M 169.5,107.5 C 169.662,109.527 169.495,111.527 169,113.5C 166.873,115.114 165.373,117.114 164.5,119.5C 161.167,121.5 158.5,124.167 156.5,127.5C 140.566,129.925 124.566,130.092 108.5,128C 97.1546,126.377 85.8213,124.711 74.5,123C 67.8124,120.875 61.3124,118.375 55,115.5C 54.5,115.833 54,116.167 53.5,116.5C 54.5,117.333 55.5,118.167 56.5,119C 61.6803,120.623 66.6803,122.456 71.5,124.5C 68.1927,124.538 65.0261,123.872 62,122.5C 61.5,122.833 61,123.167 60.5,123.5C 61.325,124.386 62.325,124.719 63.5,124.5C 63.5,125.5 63.5,126.5 63.5,127.5C 58.362,124.763 53.362,121.763 48.5,118.5C 47.0562,116.392 46.3896,114.059 46.5,111.5C 53.1959,110.849 59.5293,112.015 65.5,115C 75.6833,116.175 85.6833,118.175 95.5,121C 106.092,122.824 116.759,123.657 127.5,123.5C 136.711,124.864 146.044,124.698 155.5,123C 157.324,122.34 158.657,121.173 159.5,119.5C 163.286,115.598 165.786,110.931 167,105.5C 167.708,106.381 168.542,107.047 169.5,107.5 Z"/></g>
<g><path style="opacity:1" fill="#4d0207" d="M 156.5,127.5 C 155.64,129.614 153.973,130.78 151.5,131C 138.167,131.667 124.833,131.667 111.5,131C 98.2003,128.548 84.867,126.381 71.5,124.5C 66.6803,122.456 61.6803,120.623 56.5,119C 55.5,118.167 54.5,117.333 53.5,116.5C 54,116.167 54.5,115.833 55,115.5C 61.3124,118.375 67.8124,120.875 74.5,123C 85.8213,124.711 97.1546,126.377 108.5,128C 124.566,130.092 140.566,129.925 156.5,127.5 Z"/></g>
<g><path style="opacity:1" fill="#7c1021" d="M 159.5,119.5 C 158.657,121.173 157.324,122.34 155.5,123C 146.044,124.698 136.711,124.864 127.5,123.5C 134.841,123.666 142.174,123.5 149.5,123C 153.18,122.652 156.514,121.485 159.5,119.5 Z"/></g>
<g><path style="opacity:1" fill="#3f0914" d="M 164.5,119.5 C 164.302,123.392 164.136,127.392 164,131.5C 162.629,133.041 161.129,134.375 159.5,135.5C 159.5,135.167 159.5,134.833 159.5,134.5C 160.458,133.038 161.624,131.705 163,130.5C 163.494,128.866 163.66,127.199 163.5,125.5C 161.167,126.167 158.833,126.833 156.5,127.5C 158.5,124.167 161.167,121.5 164.5,119.5 Z"/></g>
<g><path style="opacity:1" fill="#c81326" d="M 71.5,124.5 C 84.867,126.381 98.2003,128.548 111.5,131C 124.833,131.667 138.167,131.667 151.5,131C 153.973,130.78 155.64,129.614 156.5,127.5C 158.833,126.833 161.167,126.167 163.5,125.5C 163.66,127.199 163.494,128.866 163,130.5C 161.624,131.705 160.458,133.038 159.5,134.5C 156.876,136.45 153.876,137.95 150.5,139C 132.146,139.766 113.813,139.599 95.5,138.5C 91.753,138.608 88.0863,138.108 84.5,137C 77.6396,133.333 70.6396,130.166 63.5,127.5C 63.5,126.5 63.5,125.5 63.5,124.5C 62.325,124.719 61.325,124.386 60.5,123.5C 61,123.167 61.5,122.833 62,122.5C 65.0261,123.872 68.1927,124.538 71.5,124.5 Z"/></g>
<g><path style="opacity:1" fill="#1c2e57" d="M 169.5,107.5 C 169.833,107.5 170.167,107.5 170.5,107.5C 170.721,108.735 171.388,109.735 172.5,110.5C 171.784,114.727 169.617,118.061 166,120.5C 165.63,123.338 165.797,126.171 166.5,129C 166.333,130.167 166.167,131.333 166,132.5C 163.015,136.22 161.848,140.553 162.5,145.5C 161.5,145.5 160.5,145.5 159.5,145.5C 159.5,144.833 159.5,144.167 159.5,143.5C 160.767,140.939 160.767,138.272 159.5,135.5C 161.129,134.375 162.629,133.041 164,131.5C 164.136,127.392 164.302,123.392 164.5,119.5C 165.373,117.114 166.873,115.114 169,113.5C 169.495,111.527 169.662,109.527 169.5,107.5 Z"/></g>
<g><path style="opacity:1" fill="#321007" d="M 165.5,100.5 C 166.793,102.808 168.126,105.142 169.5,107.5C 168.542,107.047 167.708,106.381 167,105.5C 165.786,110.931 163.286,115.598 159.5,119.5C 156.514,121.485 153.18,122.652 149.5,123C 142.174,123.5 134.841,123.666 127.5,123.5C 116.759,123.657 106.092,122.824 95.5,121C 85.6833,118.175 75.6833,116.175 65.5,115C 59.5293,112.015 53.1959,110.849 46.5,111.5C 46.3896,114.059 47.0562,116.392 48.5,118.5C 53.362,121.763 58.362,124.763 63.5,127.5C 70.6396,130.166 77.6396,133.333 84.5,137C 88.0863,138.108 91.753,138.608 95.5,138.5C 100.569,140.099 105.902,140.933 111.5,141C 124.852,141.599 138.185,141.266 151.5,140C 154.592,139.146 157.259,137.646 159.5,135.5C 160.767,138.272 160.767,140.939 159.5,143.5C 159.785,141.712 159.452,140.045 158.5,138.5C 156.446,140.194 154.112,141.361 151.5,142C 134.837,142.5 118.17,142.667 101.5,142.5C 92.9259,141.39 84.5926,139.224 76.5,136C 68.5,132 60.5,128 52.5,124C 49.2849,121.606 46.2849,119.106 43.5,116.5C 43.5,114.833 43.5,113.167 43.5,111.5C 45.3473,108.829 48.014,107.829 51.5,108.5C 55.3967,109.91 59.3967,110.91 63.5,111.5C 65.1484,112.927 67.1484,113.76 69.5,114C 78.186,115.506 86.8526,117.006 95.5,118.5C 108.967,120.334 122.633,121.667 136.5,122.5C 151.062,124.905 160.396,119.238 164.5,105.5C 165.451,104.081 165.784,102.415 165.5,100.5 Z"/></g>
<g><path style="opacity:1" fill="#8b1a27" d="M 159.5,134.5 C 159.5,134.833 159.5,135.167 159.5,135.5C 157.259,137.646 154.592,139.146 151.5,140C 138.185,141.266 124.852,141.599 111.5,141C 105.902,140.933 100.569,140.099 95.5,138.5C 113.813,139.599 132.146,139.766 150.5,139C 153.876,137.95 156.876,136.45 159.5,134.5 Z"/></g>
<g><path style="opacity:1" fill="#c3b64d" d="M 159.5,143.5 C 158.407,145.349 157.074,147.016 155.5,148.5C 155.461,147.417 155.127,146.417 154.5,145.5C 154.846,144.304 155.346,144.304 156,145.5C 156.483,144.552 156.649,143.552 156.5,142.5C 138.02,143.787 119.687,143.787 101.5,142.5C 118.17,142.667 134.837,142.5 151.5,142C 154.112,141.361 156.446,140.194 158.5,138.5C 159.452,140.045 159.785,141.712 159.5,143.5 Z"/></g>
<g><path style="opacity:1" fill="#1f1f0d" d="M 159.5,143.5 C 159.5,144.167 159.5,144.833 159.5,145.5C 157.727,148.083 156.227,150.75 155,153.5C 159.08,156.457 163.247,159.29 167.5,162C 170.777,164.766 173.443,167.933 175.5,171.5C 170.509,165.678 164.509,161.178 157.5,158C 154.833,155.333 152.167,152.667 149.5,150C 146.97,148.578 144.303,148.245 141.5,149C 135.612,151.445 130.612,155.112 126.5,160C 130.795,161.845 131.462,164.512 128.5,168C 127.668,168.688 127.002,168.521 126.5,167.5C 129.044,165.608 129.044,163.775 126.5,162C 120.489,161.737 119.155,164.07 122.5,169C 125.5,169.667 128.5,169.667 131.5,169C 134.5,166.667 137.5,164.333 140.5,162C 144.95,160.886 148.95,161.72 152.5,164.5C 151.674,165.451 151.508,166.451 152,167.5C 154,165.403 156.166,164.403 158.5,164.5C 153.562,169.31 147.896,173.144 141.5,176C 139.7,177.812 138.033,179.645 136.5,181.5C 136.585,179.071 137.585,177.071 139.5,175.5C 139,175.167 138.5,174.833 138,174.5C 135.825,176.523 133.325,177.857 130.5,178.5C 130.5,179.5 130.5,180.5 130.5,181.5C 132.565,181.517 134.565,181.85 136.5,182.5C 138.083,188.958 142.083,191.292 148.5,189.5C 150.767,184.401 154.267,180.401 159,177.5C 160.257,177.85 160.591,178.517 160,179.5C 155.083,182.656 151.583,186.989 149.5,192.5C 150.91,194.955 153.077,195.955 156,195.5C 157.5,195.167 159,194.833 160.5,194.5C 163.5,190.833 166.833,187.5 170.5,184.5C 171.521,185.002 171.688,185.668 171,186.5C 168.333,189.167 165.667,191.833 163,194.5C 162.616,196.197 162.782,197.863 163.5,199.5C 162.5,199.5 161.5,199.5 160.5,199.5C 160.089,197.228 158.922,196.895 157,198.5C 146.091,195.7 136.758,190.033 129,181.5C 127.873,178.623 127.206,175.623 127,172.5C 121.798,172.298 118.798,169.631 118,164.5C 115.847,162.556 113.347,162.056 110.5,163C 108.016,165.284 107.849,167.784 110,170.5C 117.594,176.669 120.761,184.669 119.5,194.5C 118.262,193.588 116.928,193.421 115.5,194C 113.254,195.257 111.921,197.09 111.5,199.5C 108.833,199.5 106.167,199.5 103.5,199.5C 106.352,197.924 109.352,196.424 112.5,195C 116.367,191.34 117.534,186.84 116,181.5C 113.385,177.217 110.385,173.217 107,169.5C 106.333,167.5 106.333,165.5 107,163.5C 110.706,158.732 114.706,158.399 119,162.5C 125.608,156.559 132.775,151.392 140.5,147C 145.553,145.668 149.886,146.835 153.5,150.5C 154.522,150.145 155.189,149.478 155.5,148.5C 157.074,147.016 158.407,145.349 159.5,143.5 Z"/></g>
<g><path style="opacity:1" fill="#e2c937" d="M 141.5,163.5 C 144.907,163.125 145.407,164.125 143,166.5C 139.278,170.725 135.112,174.392 130.5,177.5C 129.682,175.892 129.015,174.225 128.5,172.5C 131.975,170.844 135.308,169.01 138.5,167C 139.71,165.961 140.71,164.794 141.5,163.5 Z"/></g>
<g><path style="opacity:1" fill="#15305c" d="M 146.5,163.5 C 148.09,163.628 149.423,164.295 150.5,165.5C 148.483,168.682 145.983,171.349 143,173.5C 141.635,172.407 141.301,171.074 142,169.5C 144.127,167.886 145.627,165.886 146.5,163.5 Z"/></g>
<g><path style="opacity:1" fill="#212b1a" d="M 175.5,171.5 C 178.921,172.973 180.921,175.639 181.5,179.5C 179.122,177.122 177.122,174.455 175.5,171.5 Z"/></g>
<g><path style="opacity:1" fill="#15295c" d="M 136.5,181.5 C 136.5,181.833 136.5,182.167 136.5,182.5C 134.565,181.85 132.565,181.517 130.5,181.5C 130.5,180.5 130.5,179.5 130.5,178.5C 133.325,177.857 135.825,176.523 138,174.5C 138.5,174.833 139,175.167 139.5,175.5C 137.585,177.071 136.585,179.071 136.5,181.5 Z"/></g>
<g><path style="opacity:1" fill="#f4cf24" d="M 175.5,171.5 C 177.122,174.455 179.122,177.122 181.5,179.5C 183.025,183.556 184.859,187.556 187,191.5C 188.079,194.063 188.579,196.729 188.5,199.5C 182.833,199.5 177.167,199.5 171.5,199.5C 173.992,196.531 176.492,193.531 179,190.5C 179.688,189.668 179.521,189.002 178.5,188.5C 175.173,192.161 171.84,195.828 168.5,199.5C 166.833,199.5 165.167,199.5 163.5,199.5C 162.782,197.863 162.616,196.197 163,194.5C 165.667,191.833 168.333,189.167 171,186.5C 171.688,185.668 171.521,185.002 170.5,184.5C 166.833,187.5 163.5,190.833 160.5,194.5C 159,194.833 157.5,195.167 156,195.5C 153.077,195.955 150.91,194.955 149.5,192.5C 151.583,186.989 155.083,182.656 160,179.5C 160.591,178.517 160.257,177.85 159,177.5C 154.267,180.401 150.767,184.401 148.5,189.5C 142.083,191.292 138.083,188.958 136.5,182.5C 136.5,182.167 136.5,181.833 136.5,181.5C 138.033,179.645 139.7,177.812 141.5,176C 147.896,173.144 153.562,169.31 158.5,164.5C 156.166,164.403 154,165.403 152,167.5C 151.508,166.451 151.674,165.451 152.5,164.5C 148.95,161.72 144.95,160.886 140.5,162C 137.5,164.333 134.5,166.667 131.5,169C 128.5,169.667 125.5,169.667 122.5,169C 119.155,164.07 120.489,161.737 126.5,162C 129.044,163.775 129.044,165.608 126.5,167.5C 127.002,168.521 127.668,168.688 128.5,168C 131.462,164.512 130.795,161.845 126.5,160C 130.612,155.112 135.612,151.445 141.5,149C 144.303,148.245 146.97,148.578 149.5,150C 152.167,152.667 154.833,155.333 157.5,158C 164.509,161.178 170.509,165.678 175.5,171.5 Z"/></g>
<g><path style="opacity:1" fill="#202613" d="M 181.5,179.5 C 186.697,185.078 189.363,191.744 189.5,199.5C 189.167,199.5 188.833,199.5 188.5,199.5C 188.579,196.729 188.079,194.063 187,191.5C 184.859,187.556 183.025,183.556 181.5,179.5 Z"/></g>
<g><path style="opacity:1" fill="#f7d021" d="M 160.5,199.5 C 149.167,199.5 137.833,199.5 126.5,199.5C 124.381,197.6 122.047,195.934 119.5,194.5C 120.761,184.669 117.594,176.669 110,170.5C 107.849,167.784 108.016,165.284 110.5,163C 113.347,162.056 115.847,162.556 118,164.5C 118.798,169.631 121.798,172.298 127,172.5C 127.206,175.623 127.873,178.623 129,181.5C 136.758,190.033 146.091,195.7 157,198.5C 158.922,196.895 160.089,197.228 160.5,199.5 Z"/></g>
<g><path style="opacity:1" fill="#251f08" d="M 171.5,199.5 C 170.5,199.5 169.5,199.5 168.5,199.5C 171.84,195.828 175.173,192.161 178.5,188.5C 179.521,189.002 179.688,189.668 179,190.5C 176.492,193.531 173.992,196.531 171.5,199.5 Z"/></g>
<g><path style="opacity:1" fill="#133074" d="M 119.5,194.5 C 120.167,196.167 120.833,197.833 121.5,199.5C 118.167,199.5 114.833,199.5 111.5,199.5C 111.921,197.09 113.254,195.257 115.5,194C 116.928,193.421 118.262,193.588 119.5,194.5 Z"/></g>
<g><path style="opacity:1" fill="#31351f" d="M 119.5,194.5 C 122.047,195.934 124.381,197.6 126.5,199.5C 124.833,199.5 123.167,199.5 121.5,199.5C 120.833,197.833 120.167,196.167 119.5,194.5 Z"/></g>
</svg>
