<?xml version="1.0" standalone="no"?>
<!DOCTYPE svg PUBLIC "-//W3C//DTD SVG 20010904//EN"
 "http://www.w3.org/TR/2001/REC-SVG-20010904/DTD/svg10.dtd">
<svg version="1.0" xmlns="http://www.w3.org/2000/svg"
 width="744.000000pt" height="400.000000pt" viewBox="0 0 744.000000 400.000000"
 preserveAspectRatio="xMidYMid meet">

<g transform="translate(0.000000,400.000000) scale(0.100000,-0.100000)"
fill="#000000" stroke="none">
<path d="M4199 3450 c-101 -16 -170 -49 -387 -185 l-115 -73 -47 29 c-75 46
-248 126 -335 154 -174 57 -249 69 -430 69 -169 1 -170 1 -250 -31 -261 -106
-435 -323 -491 -611 -16 -86 -19 -303 -4 -388 32 -176 124 -379 250 -546 97
-128 391 -419 1055 -1043 99 -94 207 -195 239 -226 69 -66 63 -66 181 9 304
194 452 310 686 538 253 246 395 426 537 680 168 297 255 648 223 895 -43 335
-281 604 -631 714 -63 20 -385 30 -481 15z m-1024 -129 c166 -25 289 -77 440
-185 27 -20 55 -36 60 -36 6 0 48 18 94 41 46 22 85 39 87 36 2 -2 -2 -21 -10
-43 -22 -62 -52 -164 -71 -234 -9 -36 -22 -87 -30 -115 -7 -27 -23 -90 -36
-139 -22 -87 -24 -90 -78 -132 l-56 -44 -6 28 c-3 16 -9 34 -13 40 -18 30
-150 1 -274 -60 -131 -64 -134 -63 -561 116 -74 31 -213 83 -309 116 -96 33
-177 62 -181 65 -3 3 2 43 12 88 22 109 84 235 140 282 82 71 323 176 457 199
42 8 209 -4 335 -23z m1035 -94 c-59 -154 -167 -517 -195 -654 -8 -40 13 -89
84 -197 28 -44 54 -89 57 -102 15 -57 -20 -82 -61 -44 -32 30 -49 17 -41 -32
8 -48 -7 -78 -38 -78 -18 0 -30 13 -56 62 l-33 62 -12 -34 -12 -35 -17 34
c-15 29 -21 32 -46 28 -22 -5 -29 -2 -33 13 -8 32 -34 23 -58 -20 -27 -47 -39
-43 -39 12 0 31 -6 46 -29 67 -25 24 -29 34 -26 70 2 28 11 49 28 66 44 45
103 210 177 500 39 154 73 287 76 295 2 8 26 29 52 47 57 38 128 57 233 62
l37 1 -48 -123z m426 112 c210 -38 404 -188 500 -385 128 -262 107 -581 -61
-941 l-44 -93 -78 34 c-270 117 -413 181 -495 222 -141 72 -221 111 -243 118
-12 4 -44 50 -80 114 -86 153 -85 164 59 549 125 336 146 382 174 386 57 9
211 6 268 -4z m-2313 -695 c40 -9 122 -35 182 -59 258 -101 397 -151 514 -186
97 -29 204 -23 277 14 28 14 57 33 65 43 8 9 32 25 54 35 78 36 116 16 75 -39
-12 -16 -20 -38 -18 -48 3 -17 11 -19 71 -15 55 2 67 0 67 -12 0 -19 -66 -75
-97 -83 -13 -4 -23 -12 -23 -20 0 -14 81 -54 111 -54 26 0 33 -17 10 -29 -11
-6 -51 -16 -90 -23 -39 -7 -73 -18 -75 -25 -3 -7 18 -25 50 -44 118 -67 67
-97 -90 -52 -17 5 -18 1 -12 -54 13 -116 -9 -120 -96 -18 -47 57 -77 82 -118
102 -80 38 -519 189 -853 294 l-77 24 -15 49 c-32 106 -29 216 6 216 5 0 42
-7 82 -16z m52 -361 c28 -8 88 -25 135 -38 117 -32 369 -117 525 -177 119 -46
134 -55 180 -104 36 -40 67 -61 110 -79 l60 -24 3 -63 c4 -90 -33 -199 -140
-410 -50 -98 -92 -178 -93 -178 -1 0 -71 77 -156 172 -85 94 -218 236 -296
316 -78 79 -177 190 -221 245 -86 110 -188 283 -198 336 -7 32 -6 33 17 26 13
-5 47 -14 74 -22z m1265 -3 c0 -12 -8 -12 -35 0 -18 8 -17 9 8 9 15 1 27 -3
27 -9z m725 -133 c55 -30 181 -90 280 -132 328 -139 345 -147 345 -164 -1 -25
-35 -95 -80 -161 l-41 -61 -92 49 c-308 165 -409 213 -503 237 -115 30 -157
31 -215 6 -88 -38 -89 -38 -89 12 0 59 -24 82 -78 73 -38 -6 -39 -5 -34 19 3
17 16 30 38 40 22 9 34 21 34 33 0 32 12 33 47 1 48 -41 84 -37 99 11 10 32
15 35 53 38 34 3 44 8 56 32 8 16 15 36 15 45 0 15 4 14 33 -3 17 -11 77 -44
132 -75z m-664 -37 c-6 -38 -8 -75 -5 -84 11 -28 48 3 77 65 20 42 34 59 48
59 16 0 19 -7 19 -48 0 -27 -6 -69 -14 -94 l-13 -46 58 5 c56 6 58 5 65 -21
10 -40 0 -53 -65 -85 -56 -29 -63 -37 -116 -127 -84 -142 -93 -163 -210 -476
-103 -276 -108 -288 -134 -288 -19 0 -42 17 -86 63 -33 35 -68 77 -77 94 l-17
30 110 254 110 254 0 80 c0 44 -5 95 -10 112 -6 20 -6 35 0 38 12 8 11 52 -2
77 -11 21 -10 21 65 14 103 -9 120 0 113 63 -6 51 4 78 50 126 38 41 47 23 34
-65z m-136 20 c-3 -5 -10 -10 -16 -10 -5 0 -9 5 -9 10 0 6 7 10 16 10 8 0 12
-4 9 -10z m688 -272 c48 -24 42 -33 -10 -19 -62 18 -195 -5 -252 -43 -26 -17
-64 -40 -85 -51 -52 -28 -86 -76 -171 -247 -75 -151 -120 -260 -129 -313 -2
-16 -14 -80 -27 -141 -29 -146 -24 -171 47 -241 33 -32 64 -53 77 -53 47 0
398 189 527 284 103 75 500 462 499 486 0 16 -92 96 -193 169 -34 24 -65 48
-71 54 -11 11 325 -161 339 -174 5 -4 -22 -47 -60 -96 -257 -329 -519 -557
-860 -748 l-102 -56 -140 85 c-77 48 -149 94 -160 104 -20 17 -19 19 69 257
85 226 169 427 242 575 41 84 106 135 182 145 28 3 85 17 126 30 78 25 90 25
152 -7z"/>
</g>
</svg>
