<?xml version="1.0" standalone="no"?>
<!DOCTYPE svg PUBLIC "-//W3C//DTD SVG 20010904//EN"
 "http://www.w3.org/TR/2001/REC-SVG-20010904/DTD/svg10.dtd">
<svg version="1.0" xmlns="http://www.w3.org/2000/svg"
 width="200.000000pt" height="200.000000pt" viewBox="0 0 200.000000 200.000000"
 preserveAspectRatio="xMidYMid meet">
<metadata>
Created by potrace 1.16, written by Peter Selinger 2001-2019
</metadata>
<g transform="translate(0.000000,200.000000) scale(0.100000,-0.100000)"
fill="#000000" stroke="none">
<path d="M0 1000 l0 -1000 1000 0 1000 0 0 1000 0 1000 -1000 0 -1000 0 0
-1000z m893 409 c23 -12 56 -33 74 -46 l32 -25 44 32 c46 33 122 60 168 60 46
0 139 -40 181 -78 77 -70 105 -174 73 -273 -16 -49 -38 -75 -235 -272 -128
-129 -224 -217 -233 -215 -8 1 -104 90 -214 196 -236 227 -259 260 -257 367 1
82 19 129 72 187 76 84 204 113 295 67z"/>
</g>
</svg>
