<?xml version="1.0" encoding="UTF-8"?>
<svg xmlns="http://www.w3.org/2000/svg" xmlns:xlink="http://www.w3.org/1999/xlink" width="100px" height="100px" viewBox="0 0 100 100" version="1.1">
<g id="surface1">
<path style=" stroke:none;fill-rule:nonzero;fill:rgb(91.764706%,94.901961%,98.823529%);fill-opacity:1;" d="M 0 0 C 33 0 66 0 100 0 C 100 33 100 66 100 100 C 67 100 34 100 0 100 C 0 67 0 34 0 0 Z M 0 0 "/>
<path style=" stroke:none;fill-rule:nonzero;fill:rgb(20.392157%,35.294119%,74.901962%);fill-opacity:1;" d="M 66.15625 38.5 C 69.378906 40.304688 71.355469 43.011719 72.5 46.5 C 72.941406 50.523438 72.660156 53.558594 70.5 57 C 70.828125 57 71.160156 57 71.5 57 C 71.5 57.328125 71.5 57.660156 71.5 58 C 71.171875 58 70.839844 58 70.5 58 C 70.335938 58.496094 70.171875 58.988281 70 59.5 C 69.835938 59.5 69.671875 59.5 69.5 59.5 C 68.644531 60.238281 67.804688 60.988281 66.96875 61.75 C 66.28125 62.375 66.28125 62.375 65.578125 63.015625 C 65.222656 63.339844 64.867188 63.664062 64.5 64 C 64.003906 63.011719 64.003906 63.011719 63.5 62 C 63.003906 62.246094 63.003906 62.246094 62.5 62.5 C 62.996094 63.738281 62.996094 63.738281 63.5 65 C 63.09375 65.390625 63.09375 65.390625 62.679688 65.789062 C 60.832031 67.585938 59.214844 69.203125 58 71.5 C 57.671875 71.828125 57.339844 72.160156 57 72.5 C 56.835938 72.171875 56.671875 71.839844 56.5 71.5 C 55.589844 72.371094 54.683594 73.246094 53.78125 74.125 C 53.523438 74.371094 53.265625 74.617188 53 74.867188 C 51.179688 76.632812 51.179688 76.632812 50.5 79 C 48.355469 78.207031 47.339844 76.785156 46 75 C 46 74.671875 46 74.339844 46 74 C 45.082031 73.011719 45.082031 73.011719 43.90625 72 C 43.324219 71.472656 43.324219 71.472656 42.726562 70.9375 C 41.511719 70.011719 40.441406 69.492188 39 69 C 39.164062 68.671875 39.328125 68.339844 39.5 68 C 39.457031 66.976562 39.378906 65.957031 39.28125 64.9375 C 39.230469 64.390625 39.179688 63.84375 39.125 63.277344 C 39.0625 62.644531 39.0625 62.644531 39 62 C 37.515625 62 36.03125 62 34.5 62 C 34.5 62.328125 34.5 62.660156 34.5 63 C 34.882812 62.886719 35.261719 62.773438 35.65625 62.65625 C 37 62.5 37 62.5 37.90625 63.1875 C 38.5 64 38.5 64 38.5 64.5 C 36.765625 64.746094 36.765625 64.746094 35 65 C 34.671875 64.503906 34.339844 64.011719 34 63.5 C 33.753906 63.746094 33.753906 63.746094 33.5 64 C 32.667969 64.019531 31.832031 64.019531 31 64 C 31.988281 63.753906 31.988281 63.753906 33 63.5 C 33 63.171875 33 62.839844 33 62.5 C 32.339844 62.5 31.679688 62.5 31 62.5 C 31 62.003906 31 61.511719 31 61 C 31.683594 60.535156 32.375 60.074219 33.078125 59.636719 C 34.957031 58.339844 36.511719 56.640625 38.121094 55.03125 C 38.699219 54.457031 38.699219 54.457031 39.285156 53.871094 C 40.09375 53.066406 40.898438 52.261719 41.703125 51.453125 C 42.941406 50.214844 44.183594 48.984375 45.425781 47.753906 C 46.210938 46.972656 46.992188 46.1875 47.777344 45.40625 C 48.152344 45.035156 48.523438 44.667969 48.910156 44.285156 C 49.25 43.941406 49.589844 43.597656 49.941406 43.246094 C 50.242188 42.945312 50.542969 42.640625 50.855469 42.332031 C 51.652344 41.476562 51.652344 41.476562 51.5 40 C 51.996094 39.671875 52.488281 39.339844 53 39 C 53.246094 39.496094 53.246094 39.496094 53.5 40 C 53.964844 39.679688 54.429688 39.359375 54.90625 39.03125 C 58.382812 36.78125 62.414062 36.808594 66.15625 38.5 Z M 66.15625 38.5 "/>
<path style=" stroke:none;fill-rule:nonzero;fill:rgb(77.64706%,83.92157%,95.294118%);fill-opacity:1;" d="M 71 42.5 C 71.496094 42.664062 71.988281 42.828125 72.5 43 C 73.0625 44.6875 73.0625 44.6875 73.5 46.5 C 73.746094 47.242188 73.746094 47.242188 74 48 C 74.113281 49.464844 74.09375 50.9375 74.09375 52.40625 C 74.101562 52.804688 74.105469 53.199219 74.113281 53.609375 C 74.117188 55.953125 73.875 57.792969 73 60 C 72.808594 60.644531 72.617188 61.289062 72.4375 61.9375 C 72.292969 62.453125 72.148438 62.96875 72 63.5 C 71.503906 63.5 71.011719 63.5 70.5 63.5 C 70.5 63.828125 70.5 64.160156 70.5 64.5 C 70.003906 64.996094 70.003906 64.996094 69.5 65.5 C 69.144531 66.890625 69 68.0625 69 69.5 C 68.257812 69.746094 68.257812 69.746094 67.5 70 C 67.34375 70.390625 67.191406 70.785156 67.03125 71.1875 C 66.429688 72.675781 65.835938 73.15625 64.5 74 C 64.5 73.503906 64.5 73.011719 64.5 72.5 C 63.34375 72.828125 62.191406 73.160156 61 73.5 C 60.835938 74.488281 60.671875 75.480469 60.5 76.5 C 60.003906 76.003906 59.511719 75.511719 59 75 C 57.984375 75.320312 57.984375 75.320312 57 76 C 56.503906 77.574219 56.5 78.832031 56.5 80.5 C 55.015625 80.746094 55.015625 80.746094 53.5 81 C 53.664062 81.660156 53.828125 82.320312 54 83 C 52.8125 82.875 52.8125 82.875 51.5 82.5 C 50.84375 81.46875 50.84375 81.46875 50.5 80.5 C 50.171875 80.828125 49.839844 81.160156 49.5 81.5 C 49.5 81.996094 49.5 82.488281 49.5 83 C 50.65625 83.660156 51.808594 84.320312 53 85 C 51.800781 86.449219 50.84375 86.75 49 87 C 48.835938 87.988281 48.671875 88.980469 48.5 90 C 47.617188 88.457031 47.5 87.882812 47.5 86 C 47.003906 85.753906 47.003906 85.753906 46.5 85.5 C 46.601562 85.191406 46.707031 84.882812 46.8125 84.5625 C 46.90625 84.035156 46.90625 84.035156 47 83.5 C 46.503906 83.003906 46.503906 83.003906 46 82.5 C 46.496094 81.757812 46.496094 81.757812 47 81 C 47.082031 79.6875 47.082031 79.6875 47 78.5 C 46.785156 78.746094 46.566406 78.996094 46.34375 79.25 C 45.5 80 45.5 80 44 80 C 43.835938 79.175781 43.671875 78.351562 43.5 77.5 C 42.839844 77.5 42.179688 77.5 41.5 77.5 C 41.335938 76.675781 41.171875 75.851562 41 75 C 40.671875 75 40.339844 75 40 75 C 40 74.175781 40 73.351562 40 72.5 C 39.175781 72.5 38.351562 72.5 37.5 72.5 C 37.335938 72.828125 37.171875 73.160156 37 73.5 C 36.175781 73.171875 35.351562 72.839844 34.5 72.5 C 34.5 71.675781 34.5 70.851562 34.5 70 C 32.765625 70.246094 32.765625 70.246094 31 70.5 C 29.179688 68.101562 28.933594 65.398438 28.5 62.5 C 28.996094 62.664062 29.488281 62.828125 30 63 C 30 63.496094 30 63.988281 30 64.5 C 30.328125 64.003906 30.660156 63.511719 31 63 C 31 63.328125 31 63.660156 31 64 C 31.824219 64 32.648438 64 33.5 64 C 33.664062 63.671875 33.828125 63.339844 34 63 C 34.195312 63.257812 34.390625 63.515625 34.59375 63.78125 C 34.894531 64.019531 35.191406 64.253906 35.5 64.5 C 36.828125 64.386719 36.828125 64.386719 38 64 C 38 63.671875 38 63.339844 38 63 C 36.84375 63 35.691406 63 34.5 63 C 34.5 62.671875 34.5 62.339844 34.5 62 C 35.984375 62 37.46875 62 39 62 C 39.480469 63.441406 39.554688 64.347656 39.53125 65.84375 C 39.527344 66.246094 39.523438 66.652344 39.515625 67.070312 C 39.511719 67.375 39.507812 67.683594 39.5 68 C 39.828125 68.164062 40.160156 68.328125 40.5 68.5 C 41.167969 69.167969 41.832031 69.832031 42.5 70.5 C 43.542969 71.375 44.589844 72.246094 45.648438 73.109375 C 46.601562 74.105469 46.71875 74.679688 47 76 C 48.175781 77.386719 48.175781 77.386719 49.5 78.5 C 49.828125 78.5 50.160156 78.5 50.5 78.5 C 50.523438 78.230469 50.550781 77.957031 50.578125 77.679688 C 51.203125 75.9375 52.46875 74.871094 53.78125 73.625 C 54.171875 73.246094 54.171875 73.246094 54.570312 72.859375 C 55.210938 72.234375 55.855469 71.617188 56.5 71 C 56.996094 71.246094 56.996094 71.246094 57.5 71.5 C 57.6875 71.246094 57.875 70.992188 58.070312 70.730469 C 59.652344 68.597656 61.277344 66.523438 63 64.5 C 62.503906 63.261719 62.503906 63.261719 62 62 C 62.496094 62 62.988281 62 63.5 62 C 63.828125 62.496094 64.160156 62.988281 64.5 63.5 C 65.242188 62.867188 65.980469 62.230469 66.71875 61.59375 C 67.128906 61.238281 67.542969 60.886719 67.96875 60.523438 C 69.109375 59.542969 69.109375 59.542969 69.5 58 C 70.160156 58 70.820312 58 71.5 58 C 71.5 57.671875 71.5 57.339844 71.5 57 C 71.171875 57 70.839844 57 70.5 57 C 70.65625 56.617188 70.808594 56.238281 70.96875 55.84375 C 71.8125 53.714844 72.082031 52.101562 72.09375 49.8125 C 72.101562 49.25 72.109375 48.691406 72.117188 48.113281 C 72 46.511719 71.632812 45.457031 71 44 C 71 43.503906 71 43.011719 71 42.5 Z M 41.5 75.5 C 42 76.5 42 76.5 42 76.5 Z M 41.5 75.5 "/>
<path style=" stroke:none;fill-rule:nonzero;fill:rgb(18.039216%,63.529414%,84.705883%);fill-opacity:1;" d="M 46 40 C 47.039062 40.613281 47.039062 40.613281 48.5 40.5 C 49.59375 41.25 49.59375 41.25 50.5 42 C 48.1875 44.324219 45.875 46.644531 43.558594 48.96875 C 42.773438 49.757812 41.988281 50.546875 41.199219 51.335938 C 40.070312 52.472656 38.9375 53.609375 37.804688 54.742188 C 37.453125 55.097656 37.101562 55.449219 36.742188 55.8125 C 36.410156 56.144531 36.082031 56.476562 35.742188 56.816406 C 35.453125 57.105469 35.164062 57.394531 34.867188 57.691406 C 32.386719 60 32.386719 60 31 60 C 31 60.328125 31 60.660156 31 61 C 30.671875 60.835938 30.339844 60.671875 30 60.5 C 30 60.171875 30 59.839844 30 59.5 C 29.269531 58.6875 29.269531 58.6875 28.5 58 C 28.996094 57.753906 28.996094 57.753906 29.5 57.5 C 29.1875 57.375 28.875 57.253906 28.554688 57.125 C 26.949219 56.171875 26.78125 55.023438 26.265625 53.296875 C 25.835938 51.195312 25.878906 49.136719 26 47 C 26.328125 47 26.660156 47 27 47 C 27.132812 46.679688 27.269531 46.359375 27.40625 46.03125 C 29.105469 42.28125 31.164062 39.914062 34.6875 37.78125 C 39.132812 36.828125 42.128906 37.730469 46 40 Z M 46 40 "/>
<path style=" stroke:none;fill-rule:nonzero;fill:rgb(28.235295%,45.490196%,84.705883%);fill-opacity:1;" d="M 66.15625 38.5 C 69.378906 40.304688 71.355469 43.011719 72.5 46.5 C 72.941406 50.523438 72.660156 53.558594 70.5 57 C 70.828125 57 71.160156 57 71.5 57 C 71.5 57.328125 71.5 57.660156 71.5 58 C 71.171875 58 70.839844 58 70.5 58 C 70.335938 58.496094 70.171875 58.988281 70 59.5 C 69.835938 59.171875 69.671875 58.839844 69.5 58.5 C 68.839844 58.996094 68.179688 59.488281 67.5 60 C 67.421875 59.519531 67.421875 59.519531 67.34375 59.03125 C 67.230469 58.691406 67.117188 58.351562 67 58 C 66.257812 57.753906 66.257812 57.753906 65.5 57.5 C 65.5 57.171875 65.5 56.839844 65.5 56.5 C 65.222656 56.398438 64.941406 56.292969 64.65625 56.1875 C 63.078125 55.25 62.167969 53.90625 61 52.5 C 60.503906 52.335938 60.011719 52.171875 59.5 52 C 59.5 51.503906 59.5 51.011719 59.5 50.5 C 59.199219 50.449219 58.902344 50.398438 58.59375 50.34375 C 57.34375 49.949219 56.8125 49.515625 56 48.5 C 56 48.171875 56 47.839844 56 47.5 C 55.730469 47.398438 55.464844 47.292969 55.1875 47.1875 C 53.5625 46.246094 52.039062 45.082031 51 43.5 C 51.164062 42.496094 51.164062 42.496094 51.5 41.5 C 51.5 41.003906 51.5 40.511719 51.5 40 C 51.996094 39.671875 52.488281 39.339844 53 39 C 53.164062 39.328125 53.328125 39.660156 53.5 40 C 53.964844 39.679688 54.429688 39.359375 54.90625 39.03125 C 58.382812 36.78125 62.414062 36.808594 66.15625 38.5 Z M 66.15625 38.5 "/>
<path style=" stroke:none;fill-rule:nonzero;fill:rgb(22.745098%,34.901962%,70.19608%);fill-opacity:1;" d="M 45.5 62 C 45.828125 62 46.160156 62 46.5 62 C 46.5 62.328125 46.5 62.660156 46.5 63 C 46.828125 63 47.160156 63 47.5 63 C 47.664062 64.816406 47.828125 66.628906 48 68.5 C 48.824219 68.5 49.648438 68.5 50.5 68.5 C 50.5 68.171875 50.5 67.839844 50.5 67.5 C 49.839844 67.335938 49.179688 67.171875 48.5 67 C 48.5 65.679688 48.5 64.359375 48.5 63 C 49.160156 63 49.820312 63 50.5 63 C 50.664062 62.671875 50.828125 62.339844 51 62 C 51.328125 62.328125 51.660156 62.660156 52 63 C 51.917969 63.566406 51.835938 64.132812 51.75 64.71875 C 51.292969 66.546875 51.292969 66.546875 52.5 68 C 53.792969 68.125 53.792969 68.125 55 68 C 54.398438 67.84375 54.398438 67.84375 53.78125 67.6875 C 52.5 67 52.5 67 52 65.53125 C 52 64 52 64 52.71875 63.0625 C 52.976562 62.875 53.234375 62.691406 53.5 62.5 C 54.738281 62.996094 54.738281 62.996094 56 63.5 C 56 64.488281 56 65.480469 56 66.5 C 56.328125 66.664062 56.660156 66.828125 57 67 C 57 66.011719 57 65.019531 57 64 C 57.328125 64 57.660156 64 58 64 C 58 65.484375 58 66.96875 58 68.5 C 58.496094 68.664062 58.988281 68.828125 59.5 69 C 58.738281 70.316406 58.078125 71.421875 57 72.5 C 56.753906 72.003906 56.753906 72.003906 56.5 71.5 C 55.589844 72.371094 54.683594 73.246094 53.78125 74.125 C 53.523438 74.371094 53.265625 74.617188 53 74.867188 C 51.179688 76.632812 51.179688 76.632812 50.5 79 C 48.355469 78.207031 47.339844 76.785156 46 75 C 46 74.671875 46 74.339844 46 74 C 45.082031 73.011719 45.082031 73.011719 43.90625 72 C 43.519531 71.648438 43.128906 71.296875 42.726562 70.9375 C 41.511719 70.011719 40.441406 69.492188 39 69 C 39.164062 68.671875 39.328125 68.339844 39.5 68 C 39.457031 67.144531 39.378906 66.289062 39.28125 65.4375 C 39.230469 64.984375 39.179688 64.527344 39.125 64.058594 C 39.085938 63.710938 39.042969 63.359375 39 63 C 39.976562 63.390625 39.976562 63.390625 41 64 C 41.34375 65.78125 41.34375 65.78125 41.5 67.5 C 42.0625 68.179688 42.0625 68.179688 43.53125 68.03125 C 44.015625 68.019531 44.5 68.011719 45 68 C 44.011719 67.671875 43.019531 67.339844 42 67 C 41.625 65.875 41.625 65.875 41.5 64.5 C 42.34375 63.3125 42.34375 63.3125 43.5 62.5 C 44.625 62.625 44.625 62.625 45.5 63 C 45.5 62.671875 45.5 62.339844 45.5 62 Z M 45.5 62 "/>
<path style=" stroke:none;fill-rule:nonzero;fill:rgb(72.156864%,84.705883%,98.039216%);fill-opacity:1;" d="M 36 81 C 36.328125 81 36.660156 81 37 81 C 37.164062 81.328125 37.328125 81.660156 37.5 82 C 39.511719 83.339844 41.105469 84.101562 43.5 84.5 C 43.003906 85.242188 43.003906 85.242188 42.5 86 C 40.6875 86.34375 40.6875 86.34375 39 86.5 C 39 87.488281 39 88.480469 39 89.5 C 38.503906 89.335938 38.011719 89.171875 37.5 89 C 37.5 89.328125 37.5 89.660156 37.5 90 C 37.199219 90.050781 36.902344 90.101562 36.59375 90.15625 C 35.359375 90.542969 34.839844 91.035156 34 92 C 33.671875 91.671875 33.339844 91.339844 33 91 C 32.007812 90.800781 31.003906 90.632812 30 90.5 C 30 89 30 89 30.5 88 C 30.171875 87.835938 29.839844 87.671875 29.5 87.5 C 29.738281 87.285156 29.972656 87.066406 30.21875 86.84375 C 31.117188 85.988281 31.117188 85.988281 31.5 84.5 C 32.53125 84.15625 32.53125 84.15625 33.5 84 C 33.664062 84.496094 33.828125 84.988281 34 85.5 C 34.660156 85.664062 35.320312 85.828125 36 86 C 36 84.351562 36 82.699219 36 81 Z M 29.5 90.5 C 29.664062 90.5 29.828125 90.5 30 90.5 C 30 91.65625 30 92.808594 30 94 C 29.503906 93.835938 29.011719 93.671875 28.5 93.5 C 28.828125 92.511719 29.160156 91.519531 29.5 90.5 Z M 29.5 90.5 "/>
<path style=" stroke:none;fill-rule:nonzero;fill:rgb(77.254903%,80.000001%,87.058824%);fill-opacity:1;" d="M 69.5 58 C 70.160156 58.164062 70.820312 58.328125 71.5 58.5 C 71.242188 61.769531 70.265625 63.234375 68 65.5 C 68 66.160156 68 66.820312 68 67.5 C 67.671875 67.5 67.339844 67.5 67 67.5 C 66.503906 68.738281 66.503906 68.738281 66 70 C 65.503906 69.835938 65.011719 69.671875 64.5 69.5 C 64.5 69.171875 64.5 68.839844 64.5 68.5 C 64.003906 68.664062 63.511719 68.828125 63 69 C 63.328125 69.328125 63.660156 69.660156 64 70 C 63.503906 70.164062 63.011719 70.328125 62.5 70.5 C 62.5 70.171875 62.5 69.839844 62.5 69.5 C 61.511719 69.664062 60.519531 69.828125 59.5 70 C 60.828125 68.128906 61.789062 67.175781 64 66.5 C 63.671875 66.335938 63.339844 66.171875 63 66 C 62.804688 65.171875 62.640625 64.339844 62.5 63.5 C 62.335938 63.003906 62.171875 62.511719 62 62 C 62.496094 62 62.988281 62 63.5 62 C 63.996094 62.742188 63.996094 62.742188 64.5 63.5 C 65.242188 62.867188 65.980469 62.230469 66.71875 61.59375 C 67.128906 61.238281 67.542969 60.886719 67.96875 60.523438 C 69.109375 59.542969 69.109375 59.542969 69.5 58 Z M 69.5 58 "/>
<path style=" stroke:none;fill-rule:nonzero;fill:rgb(85.882354%,88.627452%,96.862745%);fill-opacity:1;" d="M 71 42.5 C 71.496094 42.664062 71.988281 42.828125 72.5 43 C 73.0625 44.6875 73.0625 44.6875 73.5 46.5 C 73.664062 46.996094 73.828125 47.488281 74 48 C 74.113281 49.464844 74.09375 50.9375 74.09375 52.40625 C 74.101562 52.804688 74.105469 53.199219 74.113281 53.609375 C 74.117188 55.953125 73.875 57.792969 73 60 C 72.808594 60.644531 72.617188 61.289062 72.4375 61.9375 C 72.222656 62.710938 72.222656 62.710938 72 63.5 C 71.503906 63.5 71.011719 63.5 70.5 63.5 C 70.5 63.828125 70.5 64.160156 70.5 64.5 C 70.171875 64.828125 69.839844 65.160156 69.5 65.5 C 69.144531 66.890625 69 68.0625 69 69.5 C 68.257812 69.746094 68.257812 69.746094 67.5 70 C 67.335938 70.496094 67.171875 70.988281 67 71.5 C 66.835938 70.839844 66.671875 70.179688 66.5 69.5 C 66.828125 69.5 67.160156 69.5 67.5 69.5 C 67.664062 68.179688 67.828125 66.859375 68 65.5 C 67.671875 65.335938 67.339844 65.171875 67 65 C 67.390625 64.785156 67.785156 64.566406 68.1875 64.34375 C 70.480469 62.871094 70.832031 61.027344 71.5 58.5 C 71.171875 58.335938 70.839844 58.171875 70.5 58 C 70.828125 58 71.160156 58 71.5 58 C 71.5 57.671875 71.5 57.339844 71.5 57 C 71.171875 57 70.839844 57 70.5 57 C 70.65625 56.617188 70.808594 56.238281 70.96875 55.84375 C 71.8125 53.714844 72.082031 52.101562 72.09375 49.8125 C 72.105469 48.972656 72.105469 48.972656 72.117188 48.113281 C 72 46.511719 71.632812 45.457031 71 44 C 71 43.503906 71 43.011719 71 42.5 Z M 66 71.5 C 66 71.996094 66 72.488281 66 73 C 65.503906 73.328125 65.011719 73.660156 64.5 74 C 64.5 73.503906 64.5 73.011719 64.5 72.5 C 64.996094 72.171875 65.488281 71.839844 66 71.5 Z M 66 71.5 "/>
<path style=" stroke:none;fill-rule:nonzero;fill:rgb(72.941178%,84.705883%,97.254902%);fill-opacity:1;" d="M 55.5 76.5 C 56.5 77.5 56.5 77.5 56.5625 79.0625 C 56.542969 79.535156 56.519531 80.011719 56.5 80.5 C 55.511719 80.664062 54.519531 80.828125 53.5 81 C 53.664062 81.660156 53.828125 82.320312 54 83 C 52.8125 82.875 52.8125 82.875 51.5 82.5 C 50.84375 81.46875 50.84375 81.46875 50.5 80.5 C 50.171875 80.828125 49.839844 81.160156 49.5 81.5 C 49.5 81.996094 49.5 82.488281 49.5 83 C 51.234375 83.988281 51.234375 83.988281 53 85 C 51.800781 86.449219 50.84375 86.75 49 87 C 48.835938 87.988281 48.671875 88.980469 48.5 90 C 47.617188 88.457031 47.5 87.882812 47.5 86 C 47.171875 85.835938 46.839844 85.671875 46.5 85.5 C 46.601562 85.191406 46.707031 84.882812 46.8125 84.5625 C 46.875 84.210938 46.9375 83.859375 47 83.5 C 46.671875 83.171875 46.339844 82.839844 46 82.5 C 46.328125 82.003906 46.660156 81.511719 47 81 C 47.082031 79.4375 47.082031 79.4375 47 78 C 49.4375 78.9375 49.4375 78.9375 50 79.5 C 50.925781 79.355469 50.925781 79.355469 51.96875 79.0625 C 52.324219 78.972656 52.679688 78.878906 53.046875 78.785156 C 54.03125 78.519531 54.03125 78.519531 55 78 C 55.164062 77.503906 55.328125 77.011719 55.5 76.5 Z M 55.5 76.5 "/>
<path style=" stroke:none;fill-rule:nonzero;fill:rgb(21.568628%,49.019608%,68.235296%);fill-opacity:1;" d="M 46 40 C 44.679688 40.660156 44.109375 40.367188 42.6875 40.03125 C 39.191406 39.292969 35.851562 38.988281 32.5 40.5 C 31.652344 42.164062 31.652344 42.164062 31 44 C 30.578125 44.390625 30.15625 44.785156 29.71875 45.1875 C 28.074219 46.960938 27.839844 48.660156 27.5 51 C 27.335938 51 27.171875 51 27 51 C 27.160156 47.085938 27.675781 43.933594 30.433594 41.007812 C 35.507812 36.367188 40.207031 36.546875 46 40 Z M 46 40 "/>
<path style=" stroke:none;fill-rule:nonzero;fill:rgb(27.058825%,37.64706%,69.411767%);fill-opacity:1;" d="M 53.5 62.5 C 54.738281 62.996094 54.738281 62.996094 56 63.5 C 56 64.488281 56 65.480469 56 66.5 C 56.328125 66.664062 56.660156 66.828125 57 67 C 57 66.011719 57 65.019531 57 64 C 57.328125 64 57.660156 64 58 64 C 58 65.484375 58 66.96875 58 68.5 C 58.496094 68.664062 58.988281 68.828125 59.5 69 C 58.738281 70.316406 58.078125 71.421875 57 72.5 C 57.164062 71.34375 57.328125 70.191406 57.5 69 C 55.273438 69.246094 55.273438 69.246094 53 69.5 C 52.835938 69.171875 52.671875 68.839844 52.5 68.5 C 53.324219 68.335938 54.148438 68.171875 55 68 C 54.398438 67.84375 54.398438 67.84375 53.78125 67.6875 C 52.5 67 52.5 67 52 65.53125 C 52 64 52 64 52.71875 63.0625 C 52.976562 62.875 53.234375 62.691406 53.5 62.5 Z M 53.5 62.5 "/>
<path style=" stroke:none;fill-rule:nonzero;fill:rgb(73.725492%,81.568629%,94.901961%);fill-opacity:1;" d="M 56.5 71 C 56.996094 71.328125 57.488281 71.660156 58 72 C 58 72.328125 58 72.660156 58 73 C 57.671875 73 57.339844 73 57 73 C 56.921875 73.527344 56.921875 73.527344 56.84375 74.0625 C 56.371094 76.046875 55.804688 77.894531 54.125 79.15625 C 52.601562 79.621094 51.082031 79.816406 49.5 80 C 49.5 79.671875 49.5 79.339844 49.5 79 C 49.828125 78.835938 50.160156 78.671875 50.5 78.5 C 50.546875 78.21875 50.589844 77.9375 50.640625 77.648438 C 51.1875 75.898438 52.484375 74.859375 53.78125 73.625 C 54.042969 73.371094 54.300781 73.117188 54.570312 72.859375 C 55.210938 72.234375 55.855469 71.617188 56.5 71 Z M 56.5 71 "/>
<path style=" stroke:none;fill-rule:nonzero;fill:rgb(67.058825%,80.392158%,95.686275%);fill-opacity:1;" d="M 91.5 96 C 93.085938 95.960938 94.527344 96.003906 96.09375 96.28125 C 97.535156 96.617188 97.535156 96.617188 99 96 C 99.164062 96.328125 99.328125 96.660156 99.5 97 C 98.894531 98.617188 98.492188 99.003906 97 100 C 95.757812 100.097656 95.757812 100.097656 94.40625 100.0625 C 93.957031 100.054688 93.503906 100.042969 93.039062 100.035156 C 92.699219 100.023438 92.355469 100.011719 92 100 C 91.632812 99.011719 91.304688 98.007812 91 97 C 91.164062 96.671875 91.328125 96.339844 91.5 96 Z M 91.5 96 "/>
<path style=" stroke:none;fill-rule:nonzero;fill:rgb(63.529414%,71.372551%,86.666667%);fill-opacity:1;" d="M 38.5 65.5 C 38.40625 66.4375 38.40625 66.4375 38 67.5 C 36.71875 68.125 36.71875 68.125 35.5 68.5 C 36.042969 68.34375 36.042969 68.34375 36.59375 68.1875 C 38.222656 67.96875 39.042969 68.292969 40.5 69 C 40.003906 69.246094 40.003906 69.246094 39.5 69.5 C 39.5 69.828125 39.5 70.160156 39.5 70.5 C 39.820312 70.5625 40.140625 70.625 40.46875 70.6875 C 40.808594 70.789062 41.148438 70.894531 41.5 71 C 41.664062 71.328125 41.828125 71.660156 42 72 C 39.027344 71.8125 36.8125 70.925781 34.5 69 C 34.5 68.671875 34.5 68.339844 34.5 68 C 34.171875 68 33.839844 68 33.5 68 C 33.5 67.339844 33.5 66.679688 33.5 66 C 35.191406 65.480469 36.738281 65.460938 38.5 65.5 Z M 38.5 65.5 "/>
<path style=" stroke:none;fill-rule:nonzero;fill:rgb(70.588237%,83.529413%,97.254902%);fill-opacity:1;" d="M 77.5 85.5 C 77.777344 85.570312 78.058594 85.644531 78.34375 85.71875 C 78.726562 85.8125 79.105469 85.90625 79.5 86 C 79.859375 86.09375 80.222656 86.1875 80.59375 86.28125 C 82.566406 86.585938 84.507812 86.539062 86.5 86.5 C 86.5 86.828125 86.5 87.160156 86.5 87.5 C 85.015625 87.996094 83.53125 88.488281 82 89 C 82 89.328125 82 89.660156 82 90 C 82 90.496094 82 90.988281 82 91.5 C 80.84375 91.828125 79.691406 92.160156 78.5 92.5 C 78.5 92.171875 78.5 91.839844 78.5 91.5 C 78.828125 91.5 79.160156 91.5 79.5 91.5 C 79.664062 90.511719 79.828125 89.519531 80 88.5 C 78.894531 88.449219 78.894531 88.449219 77.5 89 C 77.171875 88.671875 76.839844 88.339844 76.5 88 C 76.828125 87.175781 77.160156 86.351562 77.5 85.5 Z M 77.5 85.5 "/>
<path style=" stroke:none;fill-rule:nonzero;fill:rgb(76.078433%,83.137256%,95.686275%);fill-opacity:1;" d="M 62.5 65.5 C 63.160156 65.828125 63.820312 66.160156 64.5 66.5 C 63.605469 66.988281 62.710938 67.476562 61.8125 67.964844 C 60.917969 68.457031 60.917969 68.457031 60.5 69.5 C 61.160156 69.664062 61.820312 69.828125 62.5 70 C 62.003906 70.742188 62.003906 70.742188 61.5 71.5 C 61.003906 71.5 60.511719 71.5 60 71.5 C 60.164062 72.160156 60.328125 72.820312 60.5 73.5 C 58.273438 74.984375 58.273438 74.984375 56 76.5 C 56.496094 74.765625 56.496094 74.765625 57 73 C 57.328125 73 57.660156 73 58 73 C 57.867188 72.730469 57.734375 72.457031 57.59375 72.179688 C 57.5 71 57.5 71 58.546875 69.601562 C 59.011719 69.101562 59.488281 68.613281 59.96875 68.125 C 60.210938 67.871094 60.449219 67.617188 60.699219 67.359375 C 61.292969 66.734375 61.894531 66.117188 62.5 65.5 Z M 62.5 65.5 "/>
<path style=" stroke:none;fill-rule:nonzero;fill:rgb(76.47059%,77.64706%,80.392158%);fill-opacity:1;" d="M 50.5 41 C 50.996094 41.164062 51.488281 41.328125 52 41.5 C 49.335938 44.203125 46.667969 46.898438 43.992188 49.589844 C 43.082031 50.507812 42.175781 51.425781 41.269531 52.34375 C 39.964844 53.664062 38.660156 54.980469 37.351562 56.296875 C 36.945312 56.707031 36.539062 57.121094 36.125 57.546875 C 35.742188 57.925781 35.363281 58.308594 34.972656 58.699219 C 34.636719 59.035156 34.304688 59.371094 33.960938 59.71875 C 32.953125 60.539062 32.269531 60.800781 31 61 C 31 60.671875 31 60.339844 31 60 C 31.71875 59.398438 31.71875 59.398438 32.78125 58.648438 C 36.148438 56.105469 39.042969 53.085938 42.007812 50.097656 C 43.007812 49.085938 44.015625 48.078125 45.023438 47.070312 C 45.660156 46.429688 46.300781 45.789062 46.9375 45.148438 C 47.238281 44.84375 47.539062 44.542969 47.847656 44.234375 C 49.355469 42.753906 49.355469 42.753906 50.5 41 Z M 50.5 41 "/>
<path style=" stroke:none;fill-rule:nonzero;fill:rgb(25.490198%,34.901962%,61.56863%);fill-opacity:1;" d="M 64.972656 38.058594 C 66.179688 38.667969 67.347656 39.300781 68.5 40 C 67 40.5 67 40.5 66.0625 40.0625 C 65.710938 39.875 65.359375 39.691406 65 39.5 C 61.339844 38.511719 57.914062 38.902344 54.5 40.5 C 54.335938 40.828125 54.171875 41.160156 54 41.5 C 52.515625 41.253906 52.515625 41.253906 51 41 C 51.660156 40.339844 52.320312 39.679688 53 39 C 53.164062 39.328125 53.328125 39.660156 53.5 40 C 53.964844 39.679688 54.429688 39.359375 54.90625 39.03125 C 57.980469 37.042969 61.535156 36.753906 64.972656 38.058594 Z M 64.972656 38.058594 "/>
<path style=" stroke:none;fill-rule:nonzero;fill:rgb(21.568628%,29.411766%,51.372552%);fill-opacity:1;" d="M 36 57 C 36.164062 57.660156 36.328125 58.320312 36.5 59 C 36.097656 59.238281 35.695312 59.472656 35.28125 59.71875 C 34.078125 60.382812 34.078125 60.382812 33.5 61 C 34.820312 61.164062 36.140625 61.328125 37.5 61.5 C 37.5 61.664062 37.5 61.828125 37.5 62 C 36.511719 62 35.519531 62 34.5 62 C 34.5 62.328125 34.5 62.660156 34.5 63 C 34.882812 62.886719 35.261719 62.773438 35.65625 62.65625 C 37 62.5 37 62.5 37.90625 63.1875 C 38.5 64 38.5 64 38.5 64.5 C 37.34375 64.664062 36.191406 64.828125 35 65 C 34.671875 64.503906 34.339844 64.011719 34 63.5 C 33.835938 63.664062 33.671875 63.828125 33.5 64 C 32.667969 64.019531 31.832031 64.019531 31 64 C 31.660156 63.835938 32.320312 63.671875 33 63.5 C 33 63.171875 33 62.839844 33 62.5 C 32.339844 62.5 31.679688 62.5 31 62.5 C 31 62.003906 31 61.511719 31 61 C 31.984375 60.308594 32.984375 59.644531 34 59 C 34.683594 58.351562 35.359375 57.691406 36 57 Z M 36 57 "/>
<path style=" stroke:none;fill-rule:nonzero;fill:rgb(72.549021%,73.725492%,76.47059%);fill-opacity:1;" d="M 71 42.5 C 71.496094 42.664062 71.988281 42.828125 72.5 43 C 73.0625 44.6875 73.0625 44.6875 73.5 46.5 C 73.664062 46.996094 73.828125 47.488281 74 48 C 74.210938 51.625 73.15625 54.609375 72 58 C 71.835938 57.671875 71.671875 57.339844 71.5 57 C 71.171875 57 70.839844 57 70.5 57 C 70.65625 56.617188 70.808594 56.238281 70.96875 55.84375 C 71.8125 53.714844 72.082031 52.101562 72.09375 49.8125 C 72.101562 49.25 72.109375 48.691406 72.117188 48.113281 C 72 46.511719 71.632812 45.457031 71 44 C 71 43.503906 71 43.011719 71 42.5 Z M 71 42.5 "/>
<path style=" stroke:none;fill-rule:nonzero;fill:rgb(72.156864%,74.509805%,78.823531%);fill-opacity:1;" d="M 28.5 62.5 C 28.996094 62.664062 29.488281 62.828125 30 63 C 30 63.496094 30 63.988281 30 64.5 C 30.328125 64.003906 30.660156 63.511719 31 63 C 31 63.328125 31 63.660156 31 64 C 31.824219 64 32.648438 64 33.5 64 C 33.664062 63.671875 33.828125 63.339844 34 63 C 34.328125 63.496094 34.660156 63.988281 35 64.5 C 34.671875 64.828125 34.339844 65.160156 34 65.5 C 33.503906 65.335938 33.011719 65.171875 32.5 65 C 32.355469 65.546875 32.210938 66.09375 32.0625 66.65625 C 31.5 68.5 31.5 68.5 30.5 70 C 29.378906 67.601562 28.972656 65.085938 28.5 62.5 Z M 28.5 62.5 "/>
<path style=" stroke:none;fill-rule:nonzero;fill:rgb(76.862746%,86.666667%,98.039216%);fill-opacity:1;" d="M 55.5 76.5 C 56.5 77.5 56.5 77.5 56.5625 79.0625 C 56.542969 79.535156 56.519531 80.011719 56.5 80.5 C 55.511719 80.664062 54.519531 80.828125 53.5 81 C 53.664062 81.660156 53.828125 82.320312 54 83 C 53.175781 82.835938 52.351562 82.671875 51.5 82.5 C 51.335938 81.675781 51.171875 80.851562 51 80 C 51.28125 79.871094 51.566406 79.746094 51.859375 79.617188 C 52.40625 79.355469 52.40625 79.355469 52.96875 79.09375 C 53.335938 78.925781 53.699219 78.757812 54.078125 78.585938 C 55.164062 78.03125 55.164062 78.03125 55.5 76.5 Z M 55.5 76.5 "/>
<path style=" stroke:none;fill-rule:nonzero;fill:rgb(77.64706%,86.274511%,97.254902%);fill-opacity:1;" d="M 41.5 74.5 C 42.949219 74.683594 44.1875 74.84375 45.5 75.5 C 45.664062 75.996094 45.828125 76.488281 46 77 C 46.328125 77.328125 46.660156 77.660156 47 78 C 46.671875 78.660156 46.339844 79.320312 46 80 C 45.339844 80 44.679688 80 44 80 C 43.835938 79.175781 43.671875 78.351562 43.5 77.5 C 42.839844 77.5 42.179688 77.5 41.5 77.5 C 41.308594 76.671875 41.144531 75.835938 41 75 C 41.164062 74.835938 41.328125 74.671875 41.5 74.5 Z M 41.5 75.5 C 42 76.5 42 76.5 42 76.5 Z M 41.5 75.5 "/>
<path style=" stroke:none;fill-rule:nonzero;fill:rgb(83.92157%,85.882354%,89.019608%);fill-opacity:1;" d="M 54.25 61.84375 C 55.117188 61.921875 55.117188 61.921875 56 62 C 57.214844 63.820312 57.082031 64.855469 57 67 C 56.503906 66.835938 56.011719 66.671875 55.5 66.5 C 55.5 65.511719 55.5 64.519531 55.5 63.5 C 54.015625 63.253906 54.015625 63.253906 52.5 63 C 52.394531 65.070312 52.394531 65.070312 53 67 C 53.820312 67.359375 54.65625 67.695312 55.5 68 C 55.5 68.164062 55.5 68.328125 55.5 68.5 C 52.796875 68.738281 52.796875 68.738281 51.53125 67.71875 C 50.777344 65.988281 51.066406 64.808594 51.5 63 C 52.5 62 52.5 62 54.25 61.84375 Z M 54.25 61.84375 "/>
<path style=" stroke:none;fill-rule:nonzero;fill:rgb(19.607843%,29.803923%,60.392159%);fill-opacity:1;" d="M 58.5 51 C 58.828125 51 59.160156 51 59.5 51 C 59.5 51.328125 59.5 51.660156 59.5 52 C 60.160156 52.164062 60.820312 52.328125 61.5 52.5 C 61.5 52.828125 61.5 53.160156 61.5 53.5 C 61.996094 53.664062 62.488281 53.828125 63 54 C 63.734375 54.742188 63.734375 54.742188 64.46875 55.65625 C 64.730469 55.96875 64.988281 56.28125 65.257812 56.605469 C 65.503906 56.902344 65.746094 57.195312 66 57.5 C 67.019531 58.6875 67.019531 58.6875 68 59.5 C 68.496094 59.5 68.988281 59.5 69.5 59.5 C 68.34375 60.324219 67.191406 61.148438 66 62 C 65.835938 61.339844 65.671875 60.679688 65.5 60 C 65.828125 59.835938 66.160156 59.671875 66.5 59.5 C 66.257812 59.304688 66.019531 59.113281 65.769531 58.914062 C 65.453125 58.652344 65.136719 58.394531 64.8125 58.125 C 64.5 57.871094 64.1875 57.613281 63.863281 57.351562 C 63 56.5 63 56.5 62.480469 55.429688 C 62.042969 54.320312 62.042969 54.320312 60.5 54 C 60.5 53.671875 60.5 53.339844 60.5 53 C 60.003906 53 59.511719 53 59 53 C 58.835938 52.339844 58.671875 51.679688 58.5 51 Z M 58.5 51 "/>
<path style=" stroke:none;fill-rule:nonzero;fill:rgb(67.843139%,81.176472%,96.862745%);fill-opacity:1;" d="M 17.5 91.5 C 17.996094 91.664062 18.488281 91.828125 19 92 C 19.164062 91.835938 19.328125 91.671875 19.5 91.5 C 20.335938 91.644531 21.171875 91.808594 22 92 C 22.164062 92.660156 22.328125 93.320312 22.5 94 C 22.003906 94 21.511719 94 21 94 C 20.503906 94.164062 20.011719 94.328125 19.5 94.5 C 19.5 94.828125 19.5 95.160156 19.5 95.5 C 18.015625 95.253906 18.015625 95.253906 16.5 95 C 16.9375 92.625 16.9375 92.625 17.5 91.5 Z M 17.5 91.5 "/>
<path style=" stroke:none;fill-rule:nonzero;fill:rgb(22.352941%,29.019609%,53.725493%);fill-opacity:1;" d="M 50.5 62 C 50.996094 62.328125 51.488281 62.660156 52 63 C 51.898438 63.535156 51.792969 64.074219 51.6875 64.625 C 51.507812 66.4375 51.507812 67.042969 52.5 68.5 C 51.839844 68.5 51.179688 68.5 50.5 68.5 C 50.5 68.171875 50.5 67.839844 50.5 67.5 C 49.839844 67.335938 49.179688 67.171875 48.5 67 C 48.5 65.679688 48.5 64.359375 48.5 63 C 49.160156 63 49.820312 63 50.5 63 C 50.5 62.671875 50.5 62.339844 50.5 62 Z M 50.5 62 "/>
<path style=" stroke:none;fill-rule:nonzero;fill:rgb(19.215687%,29.019609%,59.607846%);fill-opacity:1;" d="M 61.5 62 C 62.625 63.027344 63 63.503906 63.5 65 C 62.929688 65.585938 62.355469 66.167969 61.78125 66.75 C 61.460938 67.074219 61.144531 67.398438 60.8125 67.734375 C 60 68.5 60 68.5 59.5 68.5 C 59.5 66.851562 59.5 65.199219 59.5 63.5 C 60.160156 63.335938 60.820312 63.171875 61.5 63 C 61.5 62.671875 61.5 62.339844 61.5 62 Z M 61.5 62 "/>
<path style=" stroke:none;fill-rule:nonzero;fill:rgb(22.745098%,29.803923%,54.901963%);fill-opacity:1;" d="M 57 64 C 57.328125 64 57.660156 64 58 64 C 58 65.484375 58 66.96875 58 68.5 C 58.496094 68.664062 58.988281 68.828125 59.5 69 C 58.738281 70.316406 58.078125 71.421875 57 72.5 C 57.164062 71.34375 57.328125 70.191406 57.5 69 C 55.273438 69.246094 55.273438 69.246094 53 69.5 C 52.835938 69.171875 52.671875 68.839844 52.5 68.5 C 53.335938 68.359375 53.335938 68.359375 54.1875 68.21875 C 54.785156 67.980469 55.382812 67.746094 56 67.5 C 56.769531 65.742188 56.769531 65.742188 57 64 Z M 57 64 "/>
<path style=" stroke:none;fill-rule:nonzero;fill:rgb(68.627453%,74.117649%,84.705883%);fill-opacity:1;" d="M 43 71.5 C 44.898438 72.246094 45.839844 73.34375 47 75 C 47 75.328125 47 75.660156 47 76 C 47.550781 76.78125 47.550781 76.78125 48.25 77.5625 C 48.664062 78.035156 49.074219 78.511719 49.5 79 C 48.015625 78.4375 46.832031 77.886719 45.5 77 C 45.5 76.503906 45.5 76.011719 45.5 75.5 C 45.199219 75.367188 44.902344 75.230469 44.59375 75.09375 C 43.515625 74.507812 42.820312 73.902344 42 73 C 42.496094 73 42.988281 73 43.5 73 C 43.335938 72.503906 43.171875 72.011719 43 71.5 Z M 43 71.5 "/>
<path style=" stroke:none;fill-rule:nonzero;fill:rgb(21.568628%,35.686275%,76.078433%);fill-opacity:1;" d="M 43 64 C 44.167969 63.980469 45.332031 63.980469 46.5 64 C 47 64.5 47 64.5 47.046875 65.421875 C 47.023438 66.960938 47.023438 66.960938 47 68.5 C 46.671875 68.5 46.339844 68.5 46 68.5 C 46 68.003906 46 67.511719 46 67 C 45.503906 66.835938 45.011719 66.671875 44.5 66.5 C 44.335938 66.664062 44.171875 66.828125 44 67 C 43.503906 66.835938 43.011719 66.671875 42.5 66.5 C 42.664062 65.675781 42.828125 64.851562 43 64 Z M 43 64 "/>
<path style=" stroke:none;fill-rule:nonzero;fill:rgb(58.431375%,61.960787%,70.19608%);fill-opacity:1;" d="M 67.5 60.5 C 67.996094 60.664062 68.488281 60.828125 69 61 C 68.761719 61.300781 68.527344 61.597656 68.28125 61.90625 C 67.417969 63 67.417969 63 67 64.5 C 65.539062 65.539062 64.8125 66 63 66 C 62.929688 65.617188 62.855469 65.238281 62.78125 64.84375 C 62.519531 63.460938 62.519531 63.460938 62 62 C 62.496094 62 62.988281 62 63.5 62 C 63.996094 62.742188 63.996094 62.742188 64.5 63.5 C 65.488281 62.511719 66.480469 61.519531 67.5 60.5 Z M 67.5 60.5 "/>
<path style=" stroke:none;fill-rule:nonzero;fill:rgb(76.862746%,79.215688%,83.137256%);fill-opacity:1;" d="M 47.5 60 C 47.828125 60 48.160156 60 48.5 60 C 48.5 60.660156 48.5 61.320312 48.5 62 C 49.160156 62 49.820312 62 50.5 62 C 50.5 62.328125 50.5 62.660156 50.5 63 C 49.839844 63 49.179688 63 48.5 63 C 48.664062 64.320312 48.828125 65.640625 49 67 C 49.496094 67.164062 49.988281 67.328125 50.5 67.5 C 50.5 67.828125 50.5 68.160156 50.5 68.5 C 49.675781 68.5 48.851562 68.5 48 68.5 C 47.398438 67.296875 47.449219 66.523438 47.46875 65.1875 C 47.472656 64.777344 47.476562 64.371094 47.484375 63.949219 C 47.488281 63.636719 47.492188 63.324219 47.5 63 C 47.171875 63 46.839844 63 46.5 63 C 46.5 62.671875 46.5 62.339844 46.5 62 C 46.828125 62 47.160156 62 47.5 62 C 47.5 61.339844 47.5 60.679688 47.5 60 Z M 47.5 60 "/>
<path style=" stroke:none;fill-rule:nonzero;fill:rgb(79.607844%,80.392158%,83.529413%);fill-opacity:1;" d="M 34.5 62 C 35.984375 62 37.46875 62 39 62 C 39.480469 63.441406 39.554688 64.347656 39.53125 65.84375 C 39.527344 66.246094 39.523438 66.652344 39.515625 67.070312 C 39.511719 67.375 39.507812 67.683594 39.5 68 C 39.828125 68.164062 40.160156 68.328125 40.5 68.5 C 38.625 69.0625 38.625 69.0625 37.5 68.5 C 36.839844 68.5 36.179688 68.5 35.5 68.5 C 35.664062 68.171875 35.828125 67.839844 36 67.5 C 37.03125 67.1875 37.03125 67.1875 38 67 C 38 65.679688 38 64.359375 38 63 C 36.84375 63 35.691406 63 34.5 63 C 34.5 62.671875 34.5 62.339844 34.5 62 Z M 34.5 62 "/>
<path style=" stroke:none;fill-rule:nonzero;fill:rgb(83.92157%,84.705883%,85.09804%);fill-opacity:1;" d="M 31 38.5 C 31.40625 39.3125 31.40625 39.3125 31.5 40.5 C 30.902344 41.210938 30.304688 41.921875 29.671875 42.601562 C 28.472656 44.199219 28.019531 46.09375 27.5 48 C 27.171875 47.671875 26.839844 47.339844 26.5 47 C 26.5 43.332031 28.488281 41.011719 31 38.5 Z M 31 38.5 "/>
<path style=" stroke:none;fill-rule:nonzero;fill:rgb(72.156864%,84.705883%,97.647059%);fill-opacity:1;" d="M 54.5 83 C 55.71875 83.375 55.71875 83.375 57 84 C 57.40625 85.0625 57.40625 85.0625 57.5 86 C 56.074219 87.164062 54.730469 87.875 53 88.5 C 53.375 84.6875 53.375 84.6875 54.5 83 Z M 54.5 83 "/>
<path style=" stroke:none;fill-rule:nonzero;fill:rgb(81.568629%,82.745099%,84.705883%);fill-opacity:1;" d="M 43.8125 61.9375 C 44.648438 61.96875 44.648438 61.96875 45.5 62 C 45.5 62.328125 45.5 62.660156 45.5 63 C 44.511719 63.164062 43.519531 63.328125 42.5 63.5 C 42 65.292969 42 65.292969 42.5 67 C 43.488281 67.363281 44.488281 67.699219 45.5 68 C 45.5 68.164062 45.5 68.328125 45.5 68.5 C 42.308594 68.742188 42.308594 68.742188 41 67.71875 C 40.289062 65.988281 40.570312 64.792969 41 63 C 42 62 42 62 43.8125 61.9375 Z M 43.8125 61.9375 "/>
<path style=" stroke:none;fill-rule:nonzero;fill:rgb(12.941177%,22.745098%,50.588238%);fill-opacity:1;" d="M 43.5 49.5 C 43.664062 50.160156 43.828125 50.820312 44 51.5 C 43.503906 51.5 43.011719 51.5 42.5 51.5 C 42.46875 51.777344 42.4375 52.058594 42.40625 52.34375 C 41.824219 53.996094 40.800781 54.859375 39.5 56 C 39.171875 56 38.839844 56 38.5 56 C 38.5 56.328125 38.5 56.660156 38.5 57 C 37.839844 56.835938 37.179688 56.671875 36.5 56.5 C 38.808594 54.191406 41.121094 51.878906 43.5 49.5 Z M 43.5 49.5 "/>
<path style=" stroke:none;fill-rule:nonzero;fill:rgb(73.333335%,75.294119%,80.784315%);fill-opacity:1;" d="M 58 62 C 59.15625 62 60.308594 62 61.5 62 C 61.5 62.328125 61.5 62.660156 61.5 63 C 61.003906 63.164062 60.511719 63.328125 60 63.5 C 59.835938 65.148438 59.671875 66.800781 59.5 68.5 C 59.003906 68.5 58.511719 68.5 58 68.5 C 58 66.355469 58 64.210938 58 62 Z M 58 62 "/>
<path style=" stroke:none;fill-rule:nonzero;fill:rgb(57.647061%,61.960787%,71.764708%);fill-opacity:1;" d="M 67 66.5 C 66.503906 66.746094 66.503906 66.746094 66 67 C 65.671875 66.835938 65.339844 66.671875 65 66.5 C 65 67.324219 65 68.148438 65 69 C 64.339844 69 63.679688 69 63 69 C 63.328125 69.328125 63.660156 69.660156 64 70 C 63.503906 70.164062 63.011719 70.328125 62.5 70.5 C 62.5 70.171875 62.5 69.839844 62.5 69.5 C 61.511719 69.664062 60.519531 69.828125 59.5 70 C 61.441406 67.238281 63.535156 65.378906 67 66.5 Z M 67 66.5 "/>
<path style=" stroke:none;fill-rule:nonzero;fill:rgb(68.235296%,70.19608%,73.333335%);fill-opacity:1;" d="M 26 47 C 26.328125 47 26.660156 47 27 47 C 27.496094 48.484375 27.597656 49.636719 27.6875 51.1875 C 27.859375 53.324219 28.132812 54.777344 29.5 56.5 C 28.839844 56.664062 28.179688 56.828125 27.5 57 C 26.277344 53.585938 25.792969 50.625 26 47 Z M 26 47 "/>
<path style=" stroke:none;fill-rule:nonzero;fill:rgb(23.921569%,43.137255%,56.862748%);fill-opacity:1;" d="M 47 40 C 48.246094 40.601562 49.339844 41.226562 50.5 42 C 49.015625 43.484375 47.53125 44.96875 46 46.5 C 46 45 46 45 46.28125 43.78125 C 46.503906 42.480469 46.414062 41.738281 46 40.5 C 46.328125 40.5 46.660156 40.5 47 40.5 C 47 40.335938 47 40.171875 47 40 Z M 47 40 "/>
<path style=" stroke:none;fill-rule:nonzero;fill:rgb(73.333335%,85.490197%,97.254902%);fill-opacity:1;" d="M 21.5 83.5 C 21.828125 83.5 22.160156 83.5 22.5 83.5 C 22.371094 84.292969 22.234375 85.085938 22.09375 85.875 C 22.019531 86.316406 21.941406 86.757812 21.867188 87.210938 C 21.472656 88.59375 20.925781 89.414062 20 90.5 C 19.503906 90.003906 19.011719 89.511719 18.5 89 C 19.488281 87.183594 20.480469 85.371094 21.5 83.5 Z M 21.5 83.5 "/>
<path style=" stroke:none;fill-rule:nonzero;fill:rgb(67.450982%,72.156864%,80.784315%);fill-opacity:1;" d="M 56.5 71 C 56.996094 71.328125 57.488281 71.660156 58 72 C 58 72.328125 58 72.660156 58 73 C 57.519531 73.1875 57.519531 73.1875 57.03125 73.375 C 56.519531 73.683594 56.519531 73.683594 56 74 C 55.929688 74.328125 55.855469 74.660156 55.78125 75 C 55.6875 75.328125 55.59375 75.660156 55.5 76 C 54.21875 76.625 54.21875 76.625 53 77 C 53.597656 74.238281 54.300781 72.910156 56.5 71 Z M 56.5 71 "/>
<path style=" stroke:none;fill-rule:nonzero;fill:rgb(22.352941%,54.509807%,69.803923%);fill-opacity:1;" d="M 30.5 42 C 30.828125 42 31.160156 42 31.5 42 C 31.324219 43.578125 30.996094 44.003906 29.78125 45.09375 C 28.105469 46.933594 27.851562 48.59375 27.5 51 C 27.335938 51 27.171875 51 27 51 C 27.058594 50.207031 27.121094 49.417969 27.1875 48.625 C 27.222656 48.183594 27.257812 47.742188 27.292969 47.289062 C 27.5 46.003906 27.855469 45.121094 28.5 44 C 28.828125 44 29.160156 44 29.5 44 C 29.828125 43.339844 30.160156 42.679688 30.5 42 Z M 30.5 42 "/>
<path style=" stroke:none;fill-rule:nonzero;fill:rgb(73.725492%,74.117649%,75.686276%);fill-opacity:1;" d="M 62 36 C 60.457031 36.882812 59.882812 37 58 37 C 58 37.328125 58 37.660156 58 38 C 57.367188 38.335938 56.730469 38.667969 56.09375 39 C 55.738281 39.1875 55.386719 39.371094 55.023438 39.5625 C 54 40 54 40 52.5 40 C 55.097656 36.996094 57.96875 35.699219 62 36 Z M 62 36 "/>
<path style=" stroke:none;fill-rule:nonzero;fill:rgb(86.274511%,86.666667%,88.235295%);fill-opacity:1;" d="M 64.0625 36.4375 C 64.402344 36.527344 64.746094 36.621094 65.097656 36.714844 C 66 37 66 37 67 37.5 C 67 37.996094 67 38.488281 67 39 C 66.535156 38.84375 66.070312 38.691406 65.59375 38.53125 C 63.109375 37.8125 60.570312 37.675781 58 37.5 C 60.15625 36.347656 61.660156 35.769531 64.0625 36.4375 Z M 64.0625 36.4375 "/>
<path style=" stroke:none;fill-rule:nonzero;fill:rgb(77.254903%,87.450981%,97.647059%);fill-opacity:1;" d="M 85 80 C 85.328125 80.164062 85.660156 80.328125 86 80.5 C 85.671875 81.160156 85.339844 81.820312 85 82.5 C 85.328125 82.664062 85.660156 82.828125 86 83 C 83.6875 84.5 83.6875 84.5 82 84.5 C 82.234375 82.375 83.484375 81.398438 85 80 Z M 85 80 "/>
<path style=" stroke:none;fill-rule:nonzero;fill:rgb(23.137255%,30.19608%,56.078434%);fill-opacity:1;" d="M 45.5 62 C 45.828125 62 46.160156 62 46.5 62 C 46.664062 62.824219 46.828125 63.648438 47 64.5 C 45.679688 64.5 44.359375 64.5 43 64.5 C 43 65.488281 43 66.480469 43 67.5 C 42.21875 66.90625 42.21875 66.90625 41.5 66 C 41.5 64.71875 41.5 64.71875 42 63.5 C 43.21875 62.8125 43.21875 62.8125 44.5 62.5 C 44.828125 62.664062 45.160156 62.828125 45.5 63 C 45.5 62.671875 45.5 62.339844 45.5 62 Z M 45.5 62 "/>
<path style=" stroke:none;fill-rule:nonzero;fill:rgb(63.921571%,78.431374%,95.686275%);fill-opacity:1;" d="M 78 97.5 C 79 98 80 98.5 81 99 C 81 99.328125 81 99.660156 81 100 C 78.855469 100 76.710938 100 74.5 100 C 74.664062 99.671875 74.828125 99.339844 75 99 C 75.664062 98.828125 76.332031 98.660156 77 98.5 C 77.328125 98.171875 77.660156 97.839844 78 97.5 Z M 78 97.5 "/>
<path style=" stroke:none;fill-rule:nonzero;fill:rgb(67.058825%,80.784315%,96.862745%);fill-opacity:1;" d="M 64 90.5 C 64.59375 91.3125 64.59375 91.3125 65 92.5 C 64.3125 94.125 64.3125 94.125 63.5 95.5 C 62.839844 95.335938 62.179688 95.171875 61.5 95 C 61.664062 93.84375 61.828125 92.691406 62 91.5 C 62.660156 91.5 63.320312 91.5 64 91.5 C 64 91.171875 64 90.839844 64 90.5 Z M 64 90.5 "/>
<path style=" stroke:none;fill-rule:nonzero;fill:rgb(73.725492%,85.09804%,96.862745%);fill-opacity:1;" d="M 67 81.5 C 67.6875 82.144531 68.355469 82.8125 69 83.5 C 69 83.828125 69 84.160156 69 84.5 C 68.011719 84.828125 67.019531 85.160156 66 85.5 C 65.835938 84.511719 65.671875 83.519531 65.5 82.5 C 65.996094 82.5 66.488281 82.5 67 82.5 C 67 82.171875 67 81.839844 67 81.5 Z M 67 81.5 "/>
<path style=" stroke:none;fill-rule:nonzero;fill:rgb(71.764708%,74.117649%,79.607844%);fill-opacity:1;" d="M 66 65 C 66.660156 65.164062 67.320312 65.328125 68 65.5 C 68 66.160156 68 66.820312 68 67.5 C 67.671875 67.5 67.339844 67.5 67 67.5 C 66.671875 68.324219 66.339844 69.148438 66 70 C 65.503906 69.835938 65.011719 69.671875 64.5 69.5 C 64.664062 68.511719 64.828125 67.519531 65 66.5 C 65.496094 66.5 65.988281 66.5 66.5 66.5 C 66.335938 66.003906 66.171875 65.511719 66 65 Z M 66 65 "/>
<path style=" stroke:none;fill-rule:nonzero;fill:rgb(80.000001%,86.666667%,98.039216%);fill-opacity:1;" d="M 62 70 C 62.164062 70 62.328125 70 62.5 70 C 62.5 70.824219 62.5 71.648438 62.5 72.5 C 61.511719 72.996094 61.511719 72.996094 60.5 73.5 C 60.335938 72.839844 60.171875 72.179688 60 71.5 C 60.496094 71.5 60.988281 71.5 61.5 71.5 C 61.664062 71.003906 61.828125 70.511719 62 70 Z M 60 73.5 C 60.328125 73.664062 60.660156 73.828125 61 74 C 60.835938 74.824219 60.671875 75.648438 60.5 76.5 C 60.003906 76.003906 59.511719 75.511719 59 75 C 59.328125 74.503906 59.660156 74.011719 60 73.5 Z M 60 73.5 "/>
<path style=" stroke:none;fill-rule:nonzero;fill:rgb(27.058825%,34.117648%,59.607846%);fill-opacity:1;" d="M 39 63 C 39.976562 63.390625 39.976562 63.390625 41 64 C 41.34375 65.75 41.34375 65.75 41.5 67.5 C 41.664062 67.828125 41.828125 68.160156 42 68.5 C 41.671875 68.5 41.339844 68.5 41 68.5 C 40.835938 68.828125 40.671875 69.160156 40.5 69.5 C 40.003906 69.171875 39.511719 68.839844 39 68.5 C 39.164062 68.335938 39.328125 68.171875 39.5 68 C 39.457031 67.152344 39.378906 66.308594 39.28125 65.46875 C 39.230469 65.007812 39.179688 64.550781 39.125 64.078125 C 39.085938 63.722656 39.042969 63.367188 39 63 Z M 39 63 "/>
<path style=" stroke:none;fill-rule:nonzero;fill:rgb(21.568628%,28.627452%,53.333336%);fill-opacity:1;" d="M 53.5 62.5 C 54.8125 62.96875 54.8125 62.96875 56 63.5 C 56 64.488281 56 65.480469 56 66.5 C 55.835938 65.839844 55.671875 65.179688 55.5 64.5 C 54.015625 64.671875 54.015625 64.671875 52.5 65 C 52.335938 65.328125 52.171875 65.660156 52 66 C 52.1875 64.53125 52.1875 64.53125 52.5 63 C 52.828125 62.835938 53.160156 62.671875 53.5 62.5 Z M 53.5 62.5 "/>
<path style=" stroke:none;fill-rule:nonzero;fill:rgb(82.745099%,84.313726%,89.019608%);fill-opacity:1;" d="M 29 60 C 29.328125 60 29.660156 60 30 60 C 30 60.328125 30 60.660156 30 61 C 30.328125 61 30.660156 61 31 61 C 31 61.496094 31 61.988281 31 62.5 C 31.660156 62.5 32.320312 62.5 33 62.5 C 33 62.828125 33 63.160156 33 63.5 C 32.339844 63.5 31.679688 63.5 31 63.5 C 30.503906 64.242188 30.503906 64.242188 30 65 C 29.199219 63.246094 28.890625 61.929688 29 60 Z M 29 60 "/>
<path style=" stroke:none;fill-rule:nonzero;fill:rgb(67.058825%,80.392158%,97.254902%);fill-opacity:1;" d="M 3.78125 97.46875 C 4.382812 97.484375 4.382812 97.484375 5 97.5 C 4.5625 99.4375 4.5625 99.4375 4 100 C 3 100.019531 2 100.019531 1 100 C 2.207031 97.507812 2.207031 97.507812 3.78125 97.46875 Z M 3.78125 97.46875 "/>
<path style=" stroke:none;fill-rule:nonzero;fill:rgb(72.156864%,76.862746%,85.09804%);fill-opacity:1;" d="M 53 74.5 C 53.527344 76.085938 53.566406 76.492188 53 78 C 51.976562 79.3125 51.128906 79.71875 49.5 80 C 49.5 79.671875 49.5 79.339844 49.5 79 C 49.828125 78.835938 50.160156 78.671875 50.5 78.5 C 50.5625 78.199219 50.625 77.902344 50.6875 77.59375 C 51.101562 76.148438 51.902344 75.492188 53 74.5 Z M 53 74.5 "/>
<path style=" stroke:none;fill-rule:nonzero;fill:rgb(76.47059%,79.215688%,84.705883%);fill-opacity:1;" d="M 62.5 65.5 C 63.160156 65.828125 63.820312 66.160156 64.5 66.5 C 63.621094 66.988281 62.742188 67.476562 61.863281 67.964844 C 60.6875 68.691406 60.082031 69.21875 59.6875 70.5625 C 59.625 70.871094 59.5625 71.179688 59.5 71.5 C 58.839844 71.335938 58.179688 71.171875 57.5 71 C 59.148438 69.183594 60.800781 67.371094 62.5 65.5 Z M 62.5 65.5 "/>
<path style=" stroke:none;fill-rule:nonzero;fill:rgb(64.313728%,78.431374%,95.686275%);fill-opacity:1;" d="M 53.5 95 C 53.828125 95 54.160156 95 54.5 95 C 54.5 95.988281 54.5 96.980469 54.5 98 C 54.003906 98.246094 54.003906 98.246094 53.5 98.5 C 52.976562 96.933594 53.03125 96.503906 53.5 95 Z M 52 98 C 52.496094 98.164062 52.988281 98.328125 53.5 98.5 C 53.335938 98.996094 53.171875 99.488281 53 100 C 52.175781 100 51.351562 100 50.5 100 C 50.5 99.671875 50.5 99.339844 50.5 99 C 50.996094 98.671875 51.488281 98.339844 52 98 Z M 52 98 "/>
<path style=" stroke:none;fill-rule:nonzero;fill:rgb(36.078432%,45.490196%,65.098041%);fill-opacity:1;" d="M 35.5 65.5 C 36.488281 65.5 37.480469 65.5 38.5 65.5 C 38.335938 66.160156 38.171875 66.820312 38 67.5 C 36.125 68.0625 36.125 68.0625 35 67.5 C 35.164062 66.839844 35.328125 66.179688 35.5 65.5 Z M 35.5 65.5 "/>
<path style=" stroke:none;fill-rule:nonzero;fill:rgb(75.294119%,76.47059%,79.607844%);fill-opacity:1;" d="M 52.5 62 C 54.1875 61.90625 54.1875 61.90625 56 62 C 57.214844 63.820312 57.082031 64.855469 57 67 C 56.503906 66.835938 56.011719 66.671875 55.5 66.5 C 55.5 65.511719 55.5 64.519531 55.5 63.5 C 54.511719 63.171875 53.519531 62.839844 52.5 62.5 C 52.5 62.335938 52.5 62.171875 52.5 62 Z M 52.5 62 "/>
<path style=" stroke:none;fill-rule:nonzero;fill:rgb(65.098041%,65.882355%,70.588237%);fill-opacity:1;" d="M 72.5 52 C 72.828125 52.164062 73.160156 52.328125 73.5 52.5 C 73.164062 54.402344 72.636719 56.175781 72 58 C 71.835938 57.671875 71.671875 57.339844 71.5 57 C 71.171875 57 70.839844 57 70.5 57 C 71.167969 55.332031 71.832031 53.667969 72.5 52 Z M 72.5 52 "/>
<path style=" stroke:none;fill-rule:nonzero;fill:rgb(38.82353%,51.764709%,60.784316%);fill-opacity:1;" d="M 33 58.5 C 32.503906 59.242188 32.503906 59.242188 32 60 C 31.671875 60 31.339844 60 31 60 C 31 60.328125 31 60.660156 31 61 C 30.671875 60.835938 30.339844 60.671875 30 60.5 C 30 60.171875 30 59.839844 30 59.5 C 29.269531 58.6875 29.269531 58.6875 28.5 58 C 30.101562 57.199219 31.363281 57.984375 33 58.5 Z M 33 58.5 "/>
<path style=" stroke:none;fill-rule:nonzero;fill:rgb(19.607843%,32.549021%,65.882355%);fill-opacity:1;" d="M 58.5 51 C 58.828125 51 59.160156 51 59.5 51 C 59.5 51.328125 59.5 51.660156 59.5 52 C 60.160156 52.164062 60.820312 52.328125 61.5 52.5 C 61.5 52.828125 61.5 53.160156 61.5 53.5 C 61.996094 53.664062 62.488281 53.828125 63 54 C 63.59375 55.28125 63.59375 55.28125 64 56.5 C 63.671875 56.5 63.339844 56.5 63 56.5 C 62.800781 56.019531 62.800781 56.019531 62.59375 55.53125 C 62.058594 54.335938 62.058594 54.335938 60.5 54 C 60.5 53.671875 60.5 53.339844 60.5 53 C 60.003906 53 59.511719 53 59 53 C 58.835938 52.339844 58.671875 51.679688 58.5 51 Z M 58.5 51 "/>
<path style=" stroke:none;fill-rule:nonzero;fill:rgb(43.921569%,45.882353%,50.980395%);fill-opacity:1;" d="M 46 75 C 47.667969 75.289062 48.34375 75.796875 49.5 77 C 49.996094 77.164062 50.488281 77.328125 51 77.5 C 50.835938 77.996094 50.671875 78.488281 50.5 79 C 48.363281 78.207031 47.367188 76.746094 46 75 Z M 46 75 "/>
<path style=" stroke:none;fill-rule:nonzero;fill:rgb(59.607846%,62.352943%,68.235296%);fill-opacity:1;" d="M 33.5 66 C 33.996094 66 34.488281 66 35 66 C 35.164062 66.824219 35.328125 67.648438 35.5 68.5 C 36.324219 68.335938 37.148438 68.171875 38 68 C 37.835938 68.496094 37.671875 68.988281 37.5 69.5 C 36.675781 69.5 35.851562 69.5 35 69.5 C 34.835938 69.003906 34.671875 68.511719 34.5 68 C 34.171875 68 33.839844 68 33.5 68 C 33.5 67.339844 33.5 66.679688 33.5 66 Z M 33.5 66 "/>
<path style=" stroke:none;fill-rule:nonzero;fill:rgb(86.274511%,90.196079%,96.470588%);fill-opacity:1;" d="M 28 63 C 29.136719 64.136719 29.261719 64.707031 29.59375 66.25 C 29.683594 66.648438 29.773438 67.042969 29.867188 67.453125 C 30 68.5 30 68.5 29.5 69.5 C 29.171875 69.5 28.839844 69.5 28.5 69.5 C 28.335938 67.355469 28.171875 65.210938 28 63 Z M 28 63 "/>
<path style=" stroke:none;fill-rule:nonzero;fill:rgb(59.215689%,67.058825%,80.000001%);fill-opacity:1;" d="M 33.5 63 C 33.996094 63.496094 34.488281 63.988281 35 64.5 C 34.671875 64.828125 34.339844 65.160156 34 65.5 C 33.503906 65.335938 33.011719 65.171875 32.5 65 C 32.003906 66.734375 32.003906 66.734375 31.5 68.5 C 31.335938 68.5 31.171875 68.5 31 68.5 C 31 67.015625 31 65.53125 31 64 C 31.824219 64 32.648438 64 33.5 64 C 33.5 63.671875 33.5 63.339844 33.5 63 Z M 33.5 63 "/>
<path style=" stroke:none;fill-rule:nonzero;fill:rgb(84.313726%,86.274511%,89.019608%);fill-opacity:1;" d="M 47.5 60 C 47.828125 60 48.160156 60 48.5 60 C 48.5 60.660156 48.5 61.320312 48.5 62 C 49.160156 62 49.820312 62 50.5 62 C 50.5 62.328125 50.5 62.660156 50.5 63 C 47.625 63.5625 47.625 63.5625 46.5 63 C 46.5 62.671875 46.5 62.339844 46.5 62 C 46.828125 62 47.160156 62 47.5 62 C 47.5 61.339844 47.5 60.679688 47.5 60 Z M 47.5 60 "/>
<path style=" stroke:none;fill-rule:nonzero;fill:rgb(32.941177%,38.82353%,55.686277%);fill-opacity:1;" d="M 56.5 38.5 C 56.5 38.828125 56.5 39.160156 56.5 39.5 C 56.179688 39.644531 55.859375 39.789062 55.53125 39.9375 C 54.425781 40.414062 54.425781 40.414062 54 41.5 C 52.515625 41.253906 52.515625 41.253906 51 41 C 51.660156 40.339844 52.320312 39.679688 53 39 C 53.164062 39.328125 53.328125 39.660156 53.5 40 C 53.964844 39.628906 53.964844 39.628906 54.4375 39.25 C 55.5 38.5 55.5 38.5 56.5 38.5 Z M 56.5 38.5 "/>
<path style=" stroke:none;fill-rule:nonzero;fill:rgb(74.117649%,86.274511%,98.431373%);fill-opacity:1;" d="M 33.5 84 C 33.664062 84.824219 33.828125 85.648438 34 86.5 C 33.175781 86.664062 32.351562 86.828125 31.5 87 C 31.335938 86.671875 31.171875 86.339844 31 86 C 31.164062 85.503906 31.328125 85.011719 31.5 84.5 C 32.5 84 32.5 84 33.5 84 Z M 33.5 84 "/>
<path style=" stroke:none;fill-rule:nonzero;fill:rgb(81.960785%,84.313726%,89.019608%);fill-opacity:1;" d="M 39.5 69.5 C 41.34375 69.75 42.34375 70.011719 43.5 71.5 C 44.09375 72.59375 44.09375 72.59375 44.5 73.5 C 43.039062 72.84375 42.121094 72.121094 41 71 C 40.503906 70.835938 40.011719 70.671875 39.5 70.5 C 39.5 70.171875 39.5 69.839844 39.5 69.5 Z M 39.5 69.5 "/>
<path style=" stroke:none;fill-rule:nonzero;fill:rgb(16.078432%,30.19608%,69.803923%);fill-opacity:1;" d="M 49 63.5 C 49.496094 63.5 49.988281 63.5 50.5 63.5 C 50.5 64.820312 50.5 66.140625 50.5 67.5 C 50.003906 67.5 49.511719 67.5 49 67.5 C 49 66.179688 49 64.859375 49 63.5 Z M 49 63.5 "/>
<path style=" stroke:none;fill-rule:nonzero;fill:rgb(67.058825%,69.803923%,74.509805%);fill-opacity:1;" d="M 62 62 C 62.496094 62 62.988281 62 63.5 62 C 63.664062 62.660156 63.828125 63.320312 64 64 C 64.328125 64 64.660156 64 65 64 C 64.835938 64.660156 64.671875 65.320312 64.5 66 C 64.003906 66 63.511719 66 63 66 C 62.929688 65.617188 62.855469 65.238281 62.78125 64.84375 C 62.519531 63.460938 62.519531 63.460938 62 62 Z M 62 62 "/>
<path style=" stroke:none;fill-rule:nonzero;fill:rgb(26.274511%,35.294119%,60.784316%);fill-opacity:1;" d="M 38 63 C 38.164062 63.496094 38.328125 63.988281 38.5 64.5 C 37.34375 64.664062 36.191406 64.828125 35 65 C 34.835938 64.339844 34.671875 63.679688 34.5 63 C 36.050781 62.484375 36.527344 62.410156 38 63 Z M 38 63 "/>
<path style=" stroke:none;fill-rule:nonzero;fill:rgb(20.392157%,40.392157%,54.11765%);fill-opacity:1;" d="M 33.5 38.5 C 33.828125 38.664062 34.160156 38.828125 34.5 39 C 32.832031 40.667969 31.167969 42.332031 29.5 44 C 29.171875 43.835938 28.839844 43.671875 28.5 43.5 C 29.050781 42.851562 29.601562 42.207031 30.15625 41.5625 C 30.464844 41.203125 30.769531 40.84375 31.085938 40.472656 C 32 39.5 32 39.5 33.5 38.5 Z M 33.5 38.5 "/>
<path style=" stroke:none;fill-rule:nonzero;fill:rgb(74.901962%,76.078433%,79.215688%);fill-opacity:1;" d="M 43.5 37.5 C 45.1875 38.09375 46.324219 38.636719 47.5 40 C 47.335938 40.496094 47.171875 40.988281 47 41.5 C 46.609375 41.179688 46.214844 40.859375 45.8125 40.53125 C 44.601562 39.507812 44.601562 39.507812 43.5 39 C 43.5 38.503906 43.5 38.011719 43.5 37.5 Z M 43.5 37.5 "/>
<path style=" stroke:none;fill-rule:nonzero;fill:rgb(74.117649%,85.882354%,97.254902%);fill-opacity:1;" d="M 8.5 85 C 9.324219 85.660156 10.148438 86.320312 11 87 C 10.175781 87.988281 9.351562 88.980469 8.5 90 C 7.882812 88.152344 8.179688 86.898438 8.5 85 Z M 8.5 85 "/>
<path style=" stroke:none;fill-rule:nonzero;fill:rgb(70.980394%,78.039217%,92.156863%);fill-opacity:1;" d="M 62.5 70 C 62.003906 70.742188 62.003906 70.742188 61.5 71.5 C 61.003906 71.5 60.511719 71.5 60 71.5 C 60 71.828125 60 72.160156 60 72.5 C 59.503906 72.5 59.011719 72.5 58.5 72.5 C 58.5 72.171875 58.5 71.839844 58.5 71.5 C 58.828125 71.5 59.160156 71.5 59.5 71.5 C 59.5 71.003906 59.5 70.511719 59.5 70 C 60.746094 69.378906 61.207031 69.613281 62.5 70 Z M 62.5 70 "/>
<path style=" stroke:none;fill-rule:nonzero;fill:rgb(68.235296%,81.960785%,97.647059%);fill-opacity:1;" d="M 89.5 93 C 90.738281 93.246094 90.738281 93.246094 92 93.5 C 91.835938 94.160156 91.671875 94.820312 91.5 95.5 C 91.003906 95.5 90.511719 95.5 90 95.5 C 89.835938 94.675781 89.671875 93.851562 89.5 93 Z M 92 94 C 93 94.5 93 94.5 93 94.5 Z M 92 94 "/>
<path style=" stroke:none;fill-rule:nonzero;fill:rgb(72.156864%,84.313726%,96.862745%);fill-opacity:1;" d="M 59 84 C 59.496094 84.328125 59.988281 84.660156 60.5 85 C 60.335938 85.496094 60.171875 85.988281 60 86.5 C 60.164062 86.828125 60.328125 87.160156 60.5 87.5 C 59.839844 87.664062 59.179688 87.828125 58.5 88 C 58.1875 86.84375 58.1875 86.84375 58 85.5 C 58.328125 85.003906 58.660156 84.511719 59 84 Z M 59 84 "/>
<path style=" stroke:none;fill-rule:nonzero;fill:rgb(50.196081%,56.078434%,62.352943%);fill-opacity:1;" d="M 27 53 C 27.328125 53 27.660156 53 28 53 C 28.707031 54.320312 29.1875 55.535156 29.5 57 C 28.5625 56.90625 28.5625 56.90625 27.5 56.5 C 26.84375 55.28125 26.84375 55.28125 26.5 54 C 26.664062 53.671875 26.828125 53.339844 27 53 Z M 27 53 "/>
<path style=" stroke:none;fill-rule:nonzero;fill:rgb(65.490198%,79.215688%,96.862745%);fill-opacity:1;" d="M 18.5 97.5 C 19.335938 97.644531 20.171875 97.808594 21 98 C 21 98.660156 21 99.320312 21 100 C 20.175781 100 19.351562 100 18.5 100 C 18.21875 99.03125 18.21875 99.03125 18 98 C 18.164062 97.835938 18.328125 97.671875 18.5 97.5 Z M 18.5 97.5 "/>
<path style=" stroke:none;fill-rule:nonzero;fill:rgb(85.882354%,91.37255%,97.254902%);fill-opacity:1;" d="M 81 75.5 C 80.835938 75.996094 80.671875 76.488281 80.5 77 C 80.5 76.671875 80.5 76.339844 80.5 76 C 80.003906 76 79.511719 76 79 76 C 78.835938 76.496094 78.671875 76.988281 78.5 77.5 C 77.839844 76.675781 77.179688 75.851562 76.5 75 C 78.382812 74.371094 79.1875 74.816406 81 75.5 Z M 81 75.5 "/>
<path style=" stroke:none;fill-rule:nonzero;fill:rgb(51.764709%,54.11765%,60.784316%);fill-opacity:1;" d="M 56.5 71 C 56.996094 71.328125 57.488281 71.660156 58 72 C 58 72.328125 58 72.660156 58 73 C 56.863281 73.746094 55.714844 74.390625 54.5 75 C 55.375 72.125 55.375 72.125 56.5 71 Z M 56.5 71 "/>
<path style=" stroke:none;fill-rule:nonzero;fill:rgb(64.705884%,78.823531%,96.470588%);fill-opacity:1;" d="M 38.5 97.5 C 40.9375 98.375 40.9375 98.375 41.5 99.5 C 40.144531 100.175781 38.996094 100.03125 37.5 100 C 37.828125 99.503906 38.160156 99.011719 38.5 98.5 C 38.5 98.171875 38.5 97.839844 38.5 97.5 Z M 38.5 97.5 "/>
<path style=" stroke:none;fill-rule:nonzero;fill:rgb(63.529414%,78.431374%,96.078432%);fill-opacity:1;" d="M 71.5 97.5 C 70.839844 98.324219 70.179688 99.148438 69.5 100 C 69.003906 99.835938 68.511719 99.671875 68 99.5 C 68 99.003906 68 98.511719 68 98 C 69.230469 97.382812 70.140625 97.464844 71.5 97.5 Z M 71.5 97.5 "/>
<path style=" stroke:none;fill-rule:nonzero;fill:rgb(70.19608%,82.745099%,96.078432%);fill-opacity:1;" d="M 19 87.5 C 19.824219 87.664062 20.648438 87.828125 21.5 88 C 21.171875 88.824219 20.839844 89.648438 20.5 90.5 C 19.839844 90.003906 19.179688 89.511719 18.5 89 C 18.664062 88.503906 18.828125 88.011719 19 87.5 Z M 19 87.5 "/>
<path style=" stroke:none;fill-rule:nonzero;fill:rgb(73.333335%,85.490197%,98.823529%);fill-opacity:1;" d="M 50.5 83.5 C 51.324219 83.996094 52.148438 84.488281 53 85 C 52.503906 85.496094 52.011719 85.988281 51.5 86.5 C 50.839844 86.171875 50.179688 85.839844 49.5 85.5 C 49.828125 84.839844 50.160156 84.179688 50.5 83.5 Z M 50.5 83.5 "/>
<path style=" stroke:none;fill-rule:nonzero;fill:rgb(17.254902%,25.098041%,53.333336%);fill-opacity:1;" d="M 57 64 C 57.328125 64 57.660156 64 58 64 C 58 65.15625 58 66.308594 58 67.5 C 57.175781 67.828125 56.351562 68.160156 55.5 68.5 C 55.828125 68.003906 56.160156 67.511719 56.5 67 C 56.695312 66.003906 56.867188 65.003906 57 64 Z M 57 64 "/>
<path style=" stroke:none;fill-rule:nonzero;fill:rgb(10.980392%,19.215687%,42.352942%);fill-opacity:1;" d="M 47.5 45.5 C 47.5 47.289062 46.957031 48.027344 46 49.5 C 45.339844 49.335938 44.679688 49.171875 44 49 C 45.15625 47.84375 46.308594 46.691406 47.5 45.5 Z M 47.5 45.5 "/>
<path style=" stroke:none;fill-rule:nonzero;fill:rgb(68.235296%,81.960785%,97.254902%);fill-opacity:1;" d="M 0 94 C 0.988281 94.496094 0.988281 94.496094 2 95 C 1.835938 95.660156 1.671875 96.320312 1.5 97 C 1.003906 97 0.511719 97 0 97 C 0 96.011719 0 95.019531 0 94 Z M 0 94 "/>
<path style=" stroke:none;fill-rule:nonzero;fill:rgb(71.764708%,81.176472%,94.509804%);fill-opacity:1;" d="M 47 78 C 48.542969 78.597656 50.03125 79.238281 51.5 80 C 48.625 80.5625 48.625 80.5625 47.5 80 C 47.1875 78.96875 47.1875 78.96875 47 78 Z M 47 78 "/>
<path style=" stroke:none;fill-rule:nonzero;fill:rgb(79.607844%,88.627452%,97.647059%);fill-opacity:1;" d="M 29.5 77.5 C 30.820312 77.5 32.140625 77.5 33.5 77.5 C 33.210938 77.707031 32.921875 77.914062 32.625 78.125 C 31.488281 79.011719 30.5 79.964844 29.5 81 C 29.5 79.84375 29.5 78.691406 29.5 77.5 Z M 29.5 77.5 "/>
<path style=" stroke:none;fill-rule:nonzero;fill:rgb(13.333334%,19.215687%,39.607844%);fill-opacity:1;" d="M 36 57 C 36.164062 57.660156 36.328125 58.320312 36.5 59 C 35.015625 59.949219 33.742188 60.675781 32 61 C 33.332031 59.667969 34.667969 58.332031 36 57 Z M 36 57 "/>
<path style=" stroke:none;fill-rule:nonzero;fill:rgb(20.392157%,58.823532%,81.960785%);fill-opacity:1;" d="M 43.5 40 C 44.738281 40.246094 44.738281 40.246094 46 40.5 C 46.164062 41.160156 46.328125 41.820312 46.5 42.5 C 45.5625 42.375 45.5625 42.375 44.5 42 C 43.875 40.96875 43.875 40.96875 43.5 40 Z M 43.5 40 "/>
<path style=" stroke:none;fill-rule:nonzero;fill:rgb(50.980395%,52.941179%,58.039218%);fill-opacity:1;" d="M 47 40 C 48.246094 40.601562 49.339844 41.226562 50.5 42 C 49.511719 42.496094 49.511719 42.496094 48.5 43 C 47 40.5625 47 40.5625 47 40 Z M 47 40 "/>
<path style=" stroke:none;fill-rule:nonzero;fill:rgb(73.725492%,73.725492%,76.078433%);fill-opacity:1;" d="M 68 38.5 C 68.742188 38.996094 68.742188 38.996094 69.5 39.5 C 69.5 39.828125 69.5 40.160156 69.5 40.5 C 70.160156 40.664062 70.820312 40.828125 71.5 41 C 71.5 41.328125 71.5 41.660156 71.5 42 C 71.003906 42.164062 70.511719 42.328125 70 42.5 C 68 40.1875 68 40.1875 68 38.5 Z M 68 38.5 "/>
<path style=" stroke:none;fill-rule:nonzero;fill:rgb(67.843139%,80.784315%,96.078432%);fill-opacity:1;" d="M 30 89 C 30.328125 89 30.660156 89 31 89 C 31 89.496094 31 89.988281 31 90.5 C 30.503906 90.335938 30.011719 90.171875 29.5 90 C 29.664062 89.671875 29.828125 89.339844 30 89 Z M 29.5 90.5 C 29.664062 90.5 29.828125 90.5 30 90.5 C 30 91.65625 30 92.808594 30 94 C 29.503906 93.835938 29.011719 93.671875 28.5 93.5 C 28.828125 92.511719 29.160156 91.519531 29.5 90.5 Z M 29.5 90.5 "/>
<path style=" stroke:none;fill-rule:nonzero;fill:rgb(17.647059%,36.470589%,53.725493%);fill-opacity:1;" d="M 41 38 C 42.980469 38.28125 44.332031 38.90625 46 40 C 44.621094 40.6875 43.949219 40.460938 42.5 40 C 41.59375 38.96875 41.59375 38.96875 41 38 Z M 41 38 "/>
<path style=" stroke:none;fill-rule:nonzero;fill:rgb(67.843139%,81.568629%,96.862745%);fill-opacity:1;" d="M 38.5 92 C 38.996094 92.328125 39.488281 92.660156 40 93 C 39.339844 93.824219 38.679688 94.648438 38 95.5 C 37.671875 95.335938 37.339844 95.171875 37 95 C 37 94.671875 37 94.339844 37 94 C 37.328125 94 37.660156 94 38 94 C 38.164062 93.339844 38.328125 92.679688 38.5 92 Z M 38.5 92 "/>
<path style=" stroke:none;fill-rule:nonzero;fill:rgb(75.686276%,86.666667%,97.647059%);fill-opacity:1;" d="M 12.5 82.5 C 12.828125 82.5 13.160156 82.5 13.5 82.5 C 13.171875 83.65625 12.839844 84.808594 12.5 86 C 12.003906 85.835938 11.511719 85.671875 11 85.5 C 11.496094 84.511719 11.988281 83.519531 12.5 82.5 Z M 12.5 82.5 "/>
<path style=" stroke:none;fill-rule:nonzero;fill:rgb(77.254903%,87.843138%,97.647059%);fill-opacity:1;" d="M 80 80.5 C 80 80.996094 80 81.488281 80 82 C 79 82.84375 79 82.84375 78 83.5 C 77.671875 83.003906 77.339844 82.511719 77 82 C 77.988281 81.503906 78.980469 81.011719 80 80.5 Z M 80 80.5 "/>
<path style=" stroke:none;fill-rule:nonzero;fill:rgb(76.078433%,86.274511%,97.647059%);fill-opacity:1;" d="M 41.5 79 C 41.996094 79 42.488281 79 43 79 C 43.164062 79.660156 43.328125 80.320312 43.5 81 C 42.839844 81.164062 42.179688 81.328125 41.5 81.5 C 41.21875 80.53125 41.21875 80.53125 41 79.5 C 41.164062 79.335938 41.328125 79.171875 41.5 79 Z M 41.5 79 "/>
<path style=" stroke:none;fill-rule:nonzero;fill:rgb(68.627453%,76.47059%,90.980393%);fill-opacity:1;" d="M 38 70.5 C 39.4375 70.40625 39.4375 70.40625 41 70.5 C 41.328125 70.996094 41.660156 71.488281 42 72 C 40.828125 71.871094 39.660156 71.703125 38.5 71.5 C 38.335938 71.171875 38.171875 70.839844 38 70.5 Z M 38 70.5 "/>
<path style=" stroke:none;fill-rule:nonzero;fill:rgb(84.313726%,87.843138%,94.509804%);fill-opacity:1;" d="M 62.5 68.5 C 63.160156 68.5 63.820312 68.5 64.5 68.5 C 64.828125 69.324219 65.160156 70.148438 65.5 71 C 64.839844 71 64.179688 71 63.5 71 C 63.171875 70.175781 62.839844 69.351562 62.5 68.5 Z M 62.5 68.5 "/>
<path style=" stroke:none;fill-rule:nonzero;fill:rgb(18.039216%,29.019609%,61.960787%);fill-opacity:1;" d="M 43 68.5 C 43.824219 68.5 44.648438 68.5 45.5 68.5 C 45.5 68.828125 45.5 69.160156 45.5 69.5 C 44.675781 69.828125 43.851562 70.160156 43 70.5 C 43 69.839844 43 69.179688 43 68.5 Z M 43 68.5 "/>
</g>
</svg>
