<?xml version="1.0" encoding="UTF-8"?>
<!DOCTYPE svg PUBLIC "-//W3C//DTD SVG 1.1//EN" "http://www.w3.org/Graphics/SVG/1.1/DTD/svg11.dtd">
<svg xmlns="http://www.w3.org/2000/svg" version="1.1" width="200px" height="200px" style="shape-rendering:geometricPrecision; text-rendering:geometricPrecision; image-rendering:optimizeQuality; fill-rule:evenodd; clip-rule:evenodd" xmlns:xlink="http://www.w3.org/1999/xlink">
<g><path style="opacity:0.937" fill="#c59d4f" d="M 199.5,86.5 C 199.5,95.5 199.5,104.5 199.5,113.5C 198.415,118.106 197.082,122.773 195.5,127.5C 195.709,128.086 196.043,128.586 196.5,129C 194.833,132 193.167,135 191.5,138C 191.833,138.333 192.167,138.667 192.5,139C 187.092,147.847 180.925,156.68 174,165.5C 172.989,166.337 171.822,166.67 170.5,166.5C 170.67,167.822 170.337,168.989 169.5,170C 163.045,174.125 156.878,178.625 151,183.5C 150.667,183.167 150.333,182.833 150,182.5C 129.436,194.27 106.269,198.103 80.5,194C 61.7339,190.606 45.7339,182.939 32.5,171C 29.5529,170.888 28.2196,169.388 28.5,166.5C 27.1779,166.67 26.0113,166.337 25,165.5C 19.167,157.694 14.0003,150.028 9.5,142.5C 4.67354,132.595 1.34021,121.928 -0.5,110.5C -0.5,103.5 -0.5,96.5 -0.5,89.5C 0.833333,88.1667 0.833333,86.8333 -0.5,85.5C -0.5,85.1667 -0.5,84.8333 -0.5,84.5C 1.45695,80.0476 3.12362,75.381 4.5,70.5C 4.29069,69.914 3.95735,69.414 3.5,69C 6.31092,63.5748 9.31092,58.2415 12.5,53C 12.1667,52.6667 11.8333,52.3333 11.5,52C 14.7014,49.1747 17.2014,46.3413 19,43.5C 19.8624,41.913 20.5291,40.2464 21,38.5C 21.6667,37.1667 22.3333,37.1667 23,38.5C 25.4607,35.566 27.6274,32.566 29.5,29.5C 34.2143,27.2885 38.5477,24.2885 42.5,20.5C 49.2436,16.9356 55.0769,13.6022 60,10.5C 60.3333,10.8333 60.6667,11.1667 61,11.5C 63.4622,10.3502 65.7955,9.01689 68,7.5C 71.5291,7.91977 75.0291,7.25311 78.5,5.5C 128.489,-1.8318 166.156,16.0015 191.5,59C 190.366,60.016 190.699,60.6827 192.5,61C 192.167,61.3333 191.833,61.6667 191.5,62C 195.031,69.9845 197.698,78.1511 199.5,86.5 Z"/></g>
<g><path style="opacity:1" fill="#fcfcfd" d="M 104.5,8.5 C 102.265,8.20528 100.265,8.53862 98.5,9.5C 97.596,10.209 97.2627,11.209 97.5,12.5C 82.3354,13.4997 68.3354,17.9997 55.5,26C 40.0653,37.903 35.5653,53.0697 42,71.5C 49.5251,82.6779 59.3584,91.1779 71.5,97C 87.1122,104.139 102.445,111.806 117.5,120C 124.676,124.755 131.676,129.755 138.5,135C 146.822,144.856 147.656,155.356 141,166.5C 130.117,177.41 116.95,183.41 101.5,184.5C 106.158,163.077 107.991,141.41 107,119.5C 104.165,118.084 101.498,116.417 99,114.5C 93.6532,120.479 90.1532,127.312 88.5,135C 90.3036,151.931 92.6369,168.765 95.5,185.5C 86.7082,184.79 78.0415,183.623 69.5,182C 78.1308,185.306 87.1308,186.806 96.5,186.5C 96.6287,188.216 96.962,189.883 97.5,191.5C 50.9208,187.094 22.0874,162.094 11,116.5C 5.56894,65.8499 26.4023,31.0165 73.5,12C 83.8672,9.25069 94.2006,8.08402 104.5,8.5 Z"/></g>
<g><path style="opacity:1" fill="#fcfcfd" d="M 98.5,9.5 C 100.265,8.53862 102.265,8.20528 104.5,8.5C 141.336,11.6632 167.502,29.9965 183,63.5C 197.66,105.217 188.827,141.05 156.5,171C 139.551,184.037 120.551,190.537 99.5,190.5C 99.33,189.178 99.6634,188.011 100.5,187C 119.474,185.974 135.974,179.141 150,166.5C 164.126,147.882 162.293,131.049 144.5,116C 140.102,112.606 135.435,109.606 130.5,107C 116.013,100.256 101.68,93.2563 87.5,86C 79.2992,81.0652 71.6325,75.3985 64.5,69C 47.9058,50.6428 50.2392,34.9762 71.5,22C 79.3927,18.4626 87.5594,15.9626 96,14.5C 91.1647,36.8444 89.1647,59.511 90,82.5C 93.2485,84.2071 96.4151,86.0404 99.5,88C 100.5,88.6667 101.5,88.6667 102.5,88C 105.261,85.1478 107.261,81.8145 108.5,78C 107.697,56.6619 105.363,35.4953 101.5,14.5C 112.404,14.8618 123.071,16.3618 133.5,19C 123.792,14.7915 113.625,12.6248 103,12.5C 101.107,11.9923 99.6074,10.9923 98.5,9.5 Z"/></g>
<g><path style="opacity:1" fill="#323b55" d="M 98.5,9.5 C 99.6074,10.9923 101.107,11.9923 103,12.5C 113.625,12.6248 123.792,14.7915 133.5,19C 123.071,16.3618 112.404,14.8618 101.5,14.5C 105.363,35.4953 107.697,56.6619 108.5,78C 107.261,81.8145 105.261,85.1478 102.5,88C 101.5,88.6667 100.5,88.6667 99.5,88C 96.4151,86.0404 93.2485,84.2071 90,82.5C 89.1647,59.511 91.1647,36.8444 96,14.5C 87.5594,15.9626 79.3927,18.4626 71.5,22C 50.2392,34.9762 47.9058,50.6428 64.5,69C 71.6325,75.3985 79.2992,81.0652 87.5,86C 101.68,93.2563 116.013,100.256 130.5,107C 135.435,109.606 140.102,112.606 144.5,116C 162.293,131.049 164.126,147.882 150,166.5C 135.974,179.141 119.474,185.974 100.5,187C 99.6634,188.011 99.33,189.178 99.5,190.5C 98.7784,190.918 98.2784,191.584 98,192.5C 97.6012,192.272 97.4346,191.938 97.5,191.5C 96.962,189.883 96.6287,188.216 96.5,186.5C 87.1308,186.806 78.1308,185.306 69.5,182C 78.0415,183.623 86.7082,184.79 95.5,185.5C 92.6369,168.765 90.3036,151.931 88.5,135C 90.1532,127.312 93.6532,120.479 99,114.5C 101.498,116.417 104.165,118.084 107,119.5C 107.991,141.41 106.158,163.077 101.5,184.5C 116.95,183.41 130.117,177.41 141,166.5C 147.656,155.356 146.822,144.856 138.5,135C 131.676,129.755 124.676,124.755 117.5,120C 102.445,111.806 87.1122,104.139 71.5,97C 59.3584,91.1779 49.5251,82.6779 42,71.5C 35.5653,53.0697 40.0653,37.903 55.5,26C 68.3354,17.9997 82.3354,13.4997 97.5,12.5C 97.2627,11.209 97.596,10.209 98.5,9.5 Z"/></g>
<g><path style="opacity:1" fill="#c59d4f" d="M 124.5,40.5 C 126.363,47.7034 130.363,53.5368 136.5,58C 138.278,58.704 140.112,59.204 142,59.5C 150.45,57.5653 158.95,57.232 167.5,58.5C 146.305,66.01 127.972,78.01 112.5,94.5C 109.868,93.528 107.535,92.1947 105.5,90.5C 116.949,75.8264 123.282,59.1597 124.5,40.5 Z"/></g>
<g><path style="opacity:1" fill="#c59d4f" d="M 88.5,109.5 C 91.09,110.128 93.4234,111.295 95.5,113C 84.4199,127.336 77.2533,143.502 74,161.5C 72.0697,155.804 69.2364,150.637 65.5,146C 55.4091,145.16 45.4091,143.66 35.5,141.5C 56.2029,135.784 73.8696,125.117 88.5,109.5 Z"/></g>
<g><path style="opacity:0.004" fill="#c59e51" d="M 9.5,142.5 C 8.83333,143.167 8.83333,143.167 9.5,142.5 Z"/></g>
</svg>
