<svg width="384" height="60" viewBox="0 0 384 60" fill="none" xmlns="http://www.w3.org/2000/svg">
<path d="M380.359 58.2832V1.97919H383.868V58.2832H380.359Z" fill="#005F83"/>
<path d="M337.047 58.2832V1.97919H370.911V5.24319H340.556V28.744H367.321V32.008H340.556V58.2832H337.047Z" fill="#005F83"/>
<path d="M278.083 58.2832V1.97919H287.793V25.3984H315.374V1.97919H325.003V58.2832H315.374V34.5376H287.793V58.2832H278.083Z" fill="#005F83"/>
<path d="M242.568 59.2624C225.758 59.2624 212.947 46.696 212.947 30.1312C212.947 13.5664 225.758 1 242.568 1C256.685 1 267.946 9.8944 270.72 22.3792H260.438C257.909 15.1984 250.973 10.384 242.568 10.384C231.47 10.384 222.984 18.8704 222.984 30.1312C222.984 41.392 231.47 49.8784 242.568 49.8784C250.973 49.8784 257.909 45.064 260.438 37.8832H270.72C267.946 50.368 256.685 59.2624 242.568 59.2624Z" fill="#005F83"/>
<path d="M157.856 58.2832L180.052 1.97919H191.557L213.752 58.2832H203.063L198.493 46.288H172.871L168.301 58.2832H157.856ZM172.871 46.288H198.493L185.682 12.5872L172.871 46.288Z" fill="#005F83"/>
<path d="M118.503 58.2832V1.97919H155.142V11.1184H128.214V25.3984H152.449V34.5376H128.214V49.144H155.55V58.2832H118.503Z" fill="#005F83"/>
<path d="M86.0752 58.2832V11.1184H70V1.97919H111.779V11.1184H95.7856V58.2832H86.0752Z" fill="#005F83"/>
<rect width="60" height="60" rx="9" fill="#005F83" fill-opacity="0.1"/>
<rect x="2" y="2" width="56" height="56" rx="8" fill="#005F83"/>
<path d="M13.9176 30.5101C13.1134 30.6633 12.5389 31.391 12.5389 32.1953C12.5389 32.5783 12.6538 32.9613 12.8836 33.2294L12.1559 37.519C12.1176 37.7105 12.1942 37.902 12.3091 38.0169C12.424 38.17 12.6155 38.2466 12.807 38.2466H15.7943C15.9858 38.2466 16.139 38.17 16.2539 38.0169C16.3688 37.8637 16.4454 37.7105 16.4071 37.519L15.7943 33.0379C15.9475 32.7698 16.0241 32.4634 16.0241 32.157C16.0241 31.5442 15.6794 30.9697 15.1815 30.6633V28.3271L19.1264 30.0889V39.8169C19.1264 41.0042 20.0839 42 21.3094 42H39.1953C40.3826 42 41.3784 41.0425 41.3784 39.8169V29.4761L50.7235 25.4163C50.9533 25.3014 51.1065 25.0716 51.1065 24.8035C51.1065 24.5354 50.915 24.3056 50.6852 24.229L29.3906 17.0287C29.2374 16.9904 29.0842 16.9904 28.9693 17.0287C21.6924 19.7863 9.743 24.1907 8.63231 24.229C8.32592 24.229 8.05782 24.4588 8.01952 24.7269C7.94292 25.0333 8.09612 25.3014 8.40252 25.4546L13.9176 27.8675V30.5101ZM13.5346 37.0594L14.1857 33.1911C14.224 32.9613 14.1474 32.7315 13.9559 32.6166C13.841 32.54 13.8027 32.3868 13.8027 32.2719C13.8027 32.0038 14.0325 31.8123 14.2623 31.8123C14.5304 31.8123 14.7219 32.0421 14.7219 32.2719C14.7219 32.4251 14.6453 32.5017 14.607 32.5783C14.4921 32.7315 14.4155 32.8847 14.4538 33.0762L14.99 37.0977H13.5346V37.0594ZM40.0762 39.8552C40.0762 40.3531 39.6549 40.7744 39.157 40.7744H21.2711C20.7733 40.7744 20.352 40.3531 20.352 39.8552V30.6633L29.2757 34.5316C29.3523 34.5699 29.4289 34.5699 29.5438 34.5699C29.6587 34.5699 29.697 34.5699 29.8119 34.5316L40.1145 30.0506V39.8552H40.0762ZM10.5856 25.0333C15.1815 23.6162 26.2118 19.4416 29.1991 18.2926L48.6553 24.9567L29.5055 33.2677L16.8667 27.7909L27.5523 26.3738C28.0119 26.6419 28.7013 26.8334 29.5055 26.8334C30.9609 26.8334 32.0716 26.2589 32.0716 25.4546C32.0716 24.6886 30.9609 24.0758 29.5055 24.0758C28.2417 24.0758 27.2459 24.4971 26.9778 25.1482L14.607 26.7951L10.5856 25.0333ZM27.5906 25.4546C27.5906 25.1482 28.3566 24.7269 29.5438 24.7269C30.7311 24.7269 31.4971 25.1482 31.4971 25.4546C31.4971 25.761 30.7311 26.1823 29.5438 26.1823C28.3566 26.1823 27.5906 25.761 27.5906 25.4546Z" fill="white"/>
</svg>
