<?xml version="1.0" encoding="UTF-8"?>
<!DOCTYPE svg PUBLIC "-//W3C//DTD SVG 1.1//EN" "http://www.w3.org/Graphics/SVG/1.1/DTD/svg11.dtd">
<svg xmlns="http://www.w3.org/2000/svg" version="1.1" width="200px" height="200px" style="shape-rendering:geometricPrecision; text-rendering:geometricPrecision; image-rendering:optimizeQuality; fill-rule:evenodd; clip-rule:evenodd" xmlns:xlink="http://www.w3.org/1999/xlink">
<g><path style="opacity:0.471" fill="#535a5b" d="M 91.5,16.5 C 87.8002,18.2809 83.8002,19.2809 79.5,19.5C 83.0981,17.3082 87.0981,16.3082 91.5,16.5 Z"/></g>
<g><path style="opacity:0.935" fill="#4c5354" d="M 39.5,25.5 C 39.1667,25.5 38.8333,25.5 38.5,25.5C 38.6775,24.3052 39.0109,23.1385 39.5,22C 38.8235,20.3167 37.8235,20.1501 36.5,21.5C 37.7348,17.6338 40.2348,16.3005 44,17.5C 42.8587,20.1979 41.3587,22.8646 39.5,25.5 Z"/></g>
<g><path style="opacity:1" fill="#23262b" d="M 113.5,17.5 C 116.913,20.312 120.913,21.9787 125.5,22.5C 127.332,23.2485 128.999,24.2485 130.5,25.5C 131.539,27.5311 133.205,28.8645 135.5,29.5C 145.023,36.5418 151.023,45.8751 153.5,57.5C 153.821,59.0481 154.821,59.7148 156.5,59.5C 157.5,59.5 158.5,59.5 159.5,59.5C 160.436,60.9744 161.77,61.9744 163.5,62.5C 165.811,68.3709 167.144,74.3709 167.5,80.5C 167.5,81.1667 167.5,81.8333 167.5,82.5C 166.844,87.7304 166.011,93.0637 165,98.5C 164.667,98.8333 164.333,99.1667 164,99.5C 163.502,96.1832 163.335,92.8499 163.5,89.5C 163.5,88.8333 163.5,88.1667 163.5,87.5C 163.925,80.3846 163.425,73.3846 162,66.5C 159.934,63.8681 157.434,63.2014 154.5,64.5C 155.802,67.7079 156.469,71.0412 156.5,74.5C 156.683,81.8681 156.35,89.2015 155.5,96.5C 153.744,95.4479 153.077,93.7812 153.5,91.5C 155.036,75.3531 152.036,60.3531 144.5,46.5C 135.167,31.8246 121.834,23.1579 104.5,20.5C 102.359,19.8367 100.025,19.5034 97.5,19.5C 93.8589,19.3148 90.5256,19.9814 87.5,21.5C 71.0728,24.9314 59.4062,34.2647 52.5,49.5C 51.2101,50.0577 50.3768,51.0577 50,52.5C 48.2199,56.2811 47.0532,60.2811 46.5,64.5C 44.7686,72.5986 44.1019,80.9319 44.5,89.5C 44.6068,91.3786 44.1068,91.7119 43,90.5C 42.5004,83.8417 42.3337,77.175 42.5,70.5C 42.5,69.5 42.5,68.5 42.5,67.5C 43.4511,66.0813 43.7845,64.4147 43.5,62.5C 41.901,62.2322 40.5676,62.5655 39.5,63.5C 37.4131,64.5846 36.0798,66.2512 35.5,68.5C 34.2081,77.705 34.2081,87.0383 35.5,96.5C 35.6602,98.1992 35.4935,99.8659 35,101.5C 33.3831,100.464 33.2164,99.2975 34.5,98C 33.4734,97.4867 32.4734,96.9867 31.5,96.5C 31.5,96.1667 31.5,95.8333 31.5,95.5C 31.8016,92.9407 31.4682,90.6074 30.5,88.5C 30.5,84.1667 30.5,79.8333 30.5,75.5C 31.4767,72.7131 31.81,69.7131 31.5,66.5C 33.4132,60.8667 37.4132,58.2 43.5,58.5C 44.8019,54.2372 46.4686,50.2372 48.5,46.5C 49.9063,46.0269 50.573,45.0269 50.5,43.5C 51.9063,43.0269 52.573,42.0269 52.5,40.5C 58.8688,30.1328 67.8688,23.1328 79.5,19.5C 83.8002,19.2809 87.8002,18.2809 91.5,16.5C 98.7882,15.2079 106.122,15.5413 113.5,17.5 Z"/></g>
<g><path style="opacity:1" fill="#f7f7f7" d="M 104.5,20.5 C 121.834,23.1579 135.167,31.8246 144.5,46.5C 145.128,50.4911 143.795,51.8245 140.5,50.5C 116.317,37.6706 91.3166,36.1706 65.5,46C 61.4577,48.0156 57.791,50.5156 54.5,53.5C 54.8432,51.5168 54.1765,50.1834 52.5,49.5C 59.4062,34.2647 71.0728,24.9314 87.5,21.5C 93.1302,20.7081 98.7969,20.3748 104.5,20.5 Z"/></g>
<g><path style="opacity:1" fill="#85868b" d="M 104.5,20.5 C 98.7969,20.3748 93.1302,20.7081 87.5,21.5C 90.5256,19.9814 93.8589,19.3148 97.5,19.5C 100.025,19.5034 102.359,19.8367 104.5,20.5 Z"/></g>
<g><path style="opacity:0.298" fill="#52595a" d="M 113.5,17.5 C 117.797,18.6546 121.797,20.3213 125.5,22.5C 120.913,21.9787 116.913,20.312 113.5,17.5 Z"/></g>
<g><path style="opacity:0.949" fill="#2d3236" d="M 38.5,25.5 C 38.9746,28.0821 38.3079,30.0821 36.5,31.5C 35.4675,30.0883 34.8008,28.4216 34.5,26.5C 35.1984,25.1374 35.1984,23.9707 34.5,23C 35.0442,22.2828 35.7109,21.7828 36.5,21.5C 37.8235,20.1501 38.8235,20.3167 39.5,22C 39.0109,23.1385 38.6775,24.3052 38.5,25.5 Z"/></g>
<g><path style="opacity:0.537" fill="#6f7677" d="M 130.5,25.5 C 132.754,26.1237 134.421,27.457 135.5,29.5C 133.205,28.8645 131.539,27.5311 130.5,25.5 Z"/></g>
<g><path style="opacity:0.935" fill="#2d3235" d="M 51.5,34.5 C 49.712,34.2148 48.0453,34.5481 46.5,35.5C 46.6236,36.1067 46.9569,36.44 47.5,36.5C 48.1667,38.8333 48.8333,41.1667 49.5,43.5C 48.8333,43.5 48.5,43.8333 48.5,44.5C 46.5956,44.2624 45.2623,43.2624 44.5,41.5C 43.8911,37.5645 42.8911,33.7311 41.5,30C 41.6483,28.7441 41.9816,27.5774 42.5,26.5C 44.6565,21.0145 48.6565,17.6811 54.5,16.5C 56.2077,16.7028 57.541,17.5362 58.5,19C 55.3206,20.5576 52.3206,22.3909 49.5,24.5C 47.661,26.5271 47.161,28.8604 48,31.5C 49.5,30.6667 50.6667,29.5 51.5,28C 52.448,27.5172 53.448,27.3505 54.5,27.5C 55.0922,30.6305 54.0922,32.9639 51.5,34.5 Z"/></g>
<g><path style="opacity:0.004" fill="#b1b9b8" d="M 38.5,25.5 C 38.8333,25.5 39.1667,25.5 39.5,25.5C 39.5,27.8333 39.5,30.1667 39.5,32.5C 38.209,32.7373 37.209,32.404 36.5,31.5C 38.3079,30.0821 38.9746,28.0821 38.5,25.5 Z"/></g>
<g><path style="opacity:0.184" fill="#a8aeae" d="M 51.5,34.5 C 50.1667,35.1667 48.8333,35.8333 47.5,36.5C 46.9569,36.44 46.6236,36.1067 46.5,35.5C 48.0453,34.5481 49.712,34.2148 51.5,34.5 Z"/></g>
<g><path style="opacity:0.145" fill="#616868" d="M 42.5,26.5 C 41.9816,27.5774 41.6483,28.7441 41.5,30C 42.8911,33.7311 43.8911,37.5645 44.5,41.5C 41.1936,36.7215 40.0269,31.3882 41,25.5C 41.3826,26.056 41.8826,26.3893 42.5,26.5 Z"/></g>
<g><path style="opacity:0.161" fill="#737a7a" d="M 52.5,40.5 C 52.573,42.0269 51.9063,43.0269 50.5,43.5C 50.427,41.9731 51.0937,40.9731 52.5,40.5 Z"/></g>
<g><path style="opacity:0.059" fill="#9ca4a3" d="M 49.5,43.5 C 49.8333,43.5 50.1667,43.5 50.5,43.5C 50.573,45.0269 49.9063,46.0269 48.5,46.5C 48.5,45.8333 48.5,45.1667 48.5,44.5C 49.1667,44.5 49.5,44.1667 49.5,43.5 Z"/></g>
<g><path style="opacity:1" fill="#e9e9ea" d="M 52.5,49.5 C 54.1765,50.1834 54.8432,51.5168 54.5,53.5C 52.5547,58.6144 51.2214,63.9477 50.5,69.5C 48.3582,80.404 48.0249,91.404 49.5,102.5C 49.6602,104.199 49.4935,105.866 49,107.5C 47.6578,103.768 46.4912,100.101 45.5,96.5C 45.5,94.1667 45.5,91.8333 45.5,89.5C 45.4815,81.149 45.8148,72.8156 46.5,64.5C 47.0532,60.2811 48.2199,56.2811 50,52.5C 50.3768,51.0577 51.2101,50.0577 52.5,49.5 Z"/></g>
<g><path style="opacity:1" fill="#d3d4d6" d="M 144.5,46.5 C 152.036,60.3531 155.036,75.3531 153.5,91.5C 153.167,91.5 152.833,91.5 152.5,91.5C 152.762,83.7795 152.262,76.1128 151,68.5C 150.751,67.376 150.251,66.376 149.5,65.5C 148.534,67.396 148.201,69.396 148.5,71.5C 147.583,65.8926 145.916,60.5593 143.5,55.5C 142.925,53.5887 141.925,51.922 140.5,50.5C 143.795,51.8245 145.128,50.4911 144.5,46.5 Z"/></g>
<g><path style="opacity:1" fill="#212029" d="M 140.5,50.5 C 141.925,51.922 142.925,53.5887 143.5,55.5C 143.631,56.2389 143.464,56.9056 143,57.5C 141.961,56.2899 140.794,55.2899 139.5,54.5C 126.526,46.3723 112.192,42.3723 96.5,42.5C 99.3054,41.6805 102.305,41.1805 105.5,41C 100.167,40.3333 94.8333,40.3333 89.5,41C 87.6573,41.1587 86.9907,41.6587 87.5,42.5C 77.8153,44.9567 68.482,48.6234 59.5,53.5C 58.1667,54.1667 58.1667,54.8333 59.5,55.5C 66.4276,51.6055 73.761,48.9388 81.5,47.5C 89.4864,46.901 97.4864,46.5676 105.5,46.5C 117.099,46.7287 127.766,49.7287 137.5,55.5C 135.833,55.5 134.167,55.5 132.5,55.5C 132.822,61.358 132.489,67.0247 131.5,72.5C 131.666,66.8236 131.499,61.1569 131,55.5C 127.261,53.8648 123.427,52.5315 119.5,51.5C 119.343,52.8734 119.51,54.2068 120,55.5C 123.573,59.9794 126.073,64.9794 127.5,70.5C 127.5,72.5 127.5,74.5 127.5,76.5C 127.167,76.5 126.833,76.5 126.5,76.5C 126.097,73.5145 125.097,70.8478 123.5,68.5C 122.163,64.3267 120.163,60.4934 117.5,57C 116.5,56.3333 115.5,56.3333 114.5,57C 112.007,58.4186 109.674,59.9186 107.5,61.5C 105.097,61.448 102.764,61.7814 100.5,62.5C 93.3558,63.2506 86.6891,61.9172 80.5,58.5C 79.0815,59.0047 78.4148,60.0047 78.5,61.5C 75.8558,64.7734 73.6891,68.4401 72,72.5C 71.466,81.5099 70.7993,90.5099 70,99.5C 69.0184,102.929 67.8517,106.262 66.5,109.5C 66.2048,108.103 65.8714,106.603 65.5,105C 63.8654,104.46 62.5321,104.96 61.5,106.5C 60.2612,104.993 60.5946,103.826 62.5,103C 61.4178,101.67 60.7512,100.17 60.5,98.5C 58.4642,96.7943 57.4642,94.461 57.5,91.5C 55.712,91.7852 54.0453,91.4519 52.5,90.5C 51.2172,87.3654 51.2172,84.3654 52.5,81.5C 52.3505,82.552 52.5172,83.552 53,84.5C 53.813,82.5643 54.313,80.5643 54.5,78.5C 55.0138,76.6336 55.6805,74.8003 56.5,73C 56.2517,71.2509 55.2517,70.4176 53.5,70.5C 52.8946,68.5188 51.8946,68.1854 50.5,69.5C 51.2214,63.9477 52.5547,58.6144 54.5,53.5C 57.791,50.5156 61.4577,48.0156 65.5,46C 91.3166,36.1706 116.317,37.6706 140.5,50.5 Z"/></g>
<g><path style="opacity:1" fill="#dfe0e3" d="M 96.5,49.5 C 90.0757,51.0852 83.7424,53.0852 77.5,55.5C 74.1566,56.059 71.1566,57.3923 68.5,59.5C 67.5713,58.3112 67.238,56.9778 67.5,55.5C 69.5976,54.065 71.9309,52.8984 74.5,52C 81.7621,50.5089 89.0954,49.6755 96.5,49.5 Z"/></g>
<g><path style="opacity:1" fill="#3f434d" d="M 96.5,49.5 C 103.273,49.2003 109.94,49.8669 116.5,51.5C 108.974,58.585 99.9744,61.085 89.5,59C 85.8281,56.7206 81.8281,55.554 77.5,55.5C 83.7424,53.0852 90.0757,51.0852 96.5,49.5 Z"/></g>
<g><path style="opacity:1" fill="#9ca0a8" d="M 87.5,42.5 C 90.5,42.5 93.5,42.5 96.5,42.5C 112.192,42.3723 126.526,46.3723 139.5,54.5C 139.158,55.3382 138.492,55.6716 137.5,55.5C 127.766,49.7287 117.099,46.7287 105.5,46.5C 97.4447,45.1108 89.4447,45.4442 81.5,47.5C 73.761,48.9388 66.4276,51.6055 59.5,55.5C 58.1667,54.8333 58.1667,54.1667 59.5,53.5C 68.482,48.6234 77.8153,44.9567 87.5,42.5 Z"/></g>
<g><path style="opacity:1" fill="#454850" d="M 105.5,46.5 C 97.4864,46.5676 89.4864,46.901 81.5,47.5C 89.4447,45.4442 97.4447,45.1108 105.5,46.5 Z"/></g>
<g><path style="opacity:1" fill="#17171f" d="M 96.5,42.5 C 93.5,42.5 90.5,42.5 87.5,42.5C 86.9907,41.6587 87.6573,41.1587 89.5,41C 94.8333,40.3333 100.167,40.3333 105.5,41C 102.305,41.1805 99.3054,41.6805 96.5,42.5 Z"/></g>
<g><path style="opacity:1" fill="#1d1b27" d="M 139.5,54.5 C 140.794,55.2899 141.961,56.2899 143,57.5C 143.464,56.9056 143.631,56.2389 143.5,55.5C 145.916,60.5593 147.583,65.8926 148.5,71.5C 149.051,74.8067 149.384,78.1401 149.5,81.5C 149.513,90.5367 149.346,99.5367 149,108.5C 149.941,105.846 150.774,103.179 151.5,100.5C 153.33,96.3922 154.33,96.7255 154.5,101.5C 158.373,101.334 159.04,102.334 156.5,104.5C 155.761,104.369 155.094,104.536 154.5,105C 155.416,105.278 156.082,105.778 156.5,106.5C 158.628,107.281 158.795,108.281 157,109.5C 155.384,108.199 153.884,108.199 152.5,109.5C 152.167,110.167 151.833,110.833 151.5,111.5C 150.661,112.641 149.994,113.974 149.5,115.5C 149.855,116.522 150.522,117.189 151.5,117.5C 150.172,119.745 148.339,120.078 146,118.5C 145.333,119.167 144.667,119.833 144,120.5C 140.022,114.947 137.522,115.614 136.5,122.5C 135.5,122.5 134.5,122.5 133.5,122.5C 135.04,116.872 134.373,111.538 131.5,106.5C 133.902,104.103 135.902,101.436 137.5,98.5C 138.527,94.554 138.694,90.554 138,86.5C 136.833,85.3333 135.667,84.1667 134.5,83C 132.934,82.235 131.601,82.4017 130.5,83.5C 129.819,85.1585 128.985,86.8251 128,88.5C 127.501,84.5138 127.334,80.5138 127.5,76.5C 127.5,74.5 127.5,72.5 127.5,70.5C 128.558,71.6002 129.392,72.9336 130,74.5C 130.717,73.9558 131.217,73.2891 131.5,72.5C 132.489,67.0247 132.822,61.358 132.5,55.5C 134.167,55.5 135.833,55.5 137.5,55.5C 138.492,55.6716 139.158,55.3382 139.5,54.5 Z"/></g>
<g><path style="opacity:0.243" fill="#7f8686" d="M 153.5,57.5 C 154.71,57.9321 155.71,58.5987 156.5,59.5C 154.821,59.7148 153.821,59.0481 153.5,57.5 Z"/></g>
<g><path style="opacity:1" fill="#e1e1e2" d="M 60.5,58.5 C 61.8333,58.5 63.1667,58.5 64.5,58.5C 64.2417,62.7559 62.0751,65.7559 58,67.5C 56.5,67.3333 55.6667,66.5 55.5,65C 56.9852,62.683 58.6519,60.5164 60.5,58.5 Z"/></g>
<g><path style="opacity:1" fill="#3d3f49" d="M 67.5,55.5 C 67.238,56.9778 67.5713,58.3112 68.5,59.5C 71.1566,57.3923 74.1566,56.059 77.5,55.5C 73.5015,61.8281 70.3348,68.4948 68,75.5C 66.8698,72.1841 66.3698,68.6841 66.5,65C 66.5018,61.6482 66.8351,58.4815 67.5,55.5 Z"/></g>
<g><path style="opacity:1" fill="#393c46" d="M 131.5,72.5 C 131.217,73.2891 130.717,73.9558 130,74.5C 129.392,72.9336 128.558,71.6002 127.5,70.5C 126.073,64.9794 123.573,59.9794 120,55.5C 119.51,54.2068 119.343,52.8734 119.5,51.5C 123.427,52.5315 127.261,53.8648 131,55.5C 131.499,61.1569 131.666,66.8236 131.5,72.5 Z"/></g>
<g><path style="opacity:0.075" fill="#7e8686" d="M 159.5,59.5 C 161.632,59.5544 162.965,60.5544 163.5,62.5C 161.77,61.9744 160.436,60.9744 159.5,59.5 Z"/></g>
<g><path style="opacity:1" fill="#f5f5f5" d="M 39.5,63.5 C 40.5,63.5 41.5,63.5 42.5,63.5C 42.5,64.8333 42.5,66.1667 42.5,67.5C 42.5,68.5 42.5,69.5 42.5,70.5C 41.5104,76.31 41.1771,82.31 41.5,88.5C 39.5,88.5 37.5,88.5 35.5,88.5C 35.5,81.8333 35.5,75.1667 35.5,68.5C 36.0798,66.2512 37.4131,64.5846 39.5,63.5 Z"/></g>
<g><path style="opacity:1" fill="#f5f5f4" d="M 163.5,87.5 C 161.5,87.5 159.5,87.5 157.5,87.5C 157.818,82.9677 157.485,78.6344 156.5,74.5C 156.469,71.0412 155.802,67.7079 154.5,64.5C 157.434,63.2014 159.934,63.8681 162,66.5C 163.425,73.3846 163.925,80.3846 163.5,87.5 Z"/></g>
<g><path style="opacity:1" fill="#6b6d74" d="M 39.5,63.5 C 40.5676,62.5655 41.901,62.2322 43.5,62.5C 43.7845,64.4147 43.4511,66.0813 42.5,67.5C 42.5,66.1667 42.5,64.8333 42.5,63.5C 41.5,63.5 40.5,63.5 39.5,63.5 Z"/></g>
<g><path style="opacity:1" fill="#f9f9f9" d="M 152.5,91.5 C 152.552,93.9029 152.219,96.2362 151.5,98.5C 150.833,92.8333 150.167,87.1667 149.5,81.5C 149.384,78.1401 149.051,74.8067 148.5,71.5C 148.201,69.396 148.534,67.396 149.5,65.5C 150.251,66.376 150.751,67.376 151,68.5C 152.262,76.1128 152.762,83.7795 152.5,91.5 Z"/></g>
<g><path style="opacity:1" fill="#dbbd9b" d="M 123.5,68.5 C 122.25,68.4226 121.417,67.756 121,66.5C 121.105,69.0285 120.938,71.3618 120.5,73.5C 120.586,72.5041 120.252,71.6708 119.5,71C 116.761,69.9741 114.428,68.4741 112.5,66.5C 121.108,66.1167 121.774,63.7833 114.5,59.5C 112.149,60.1734 109.816,60.8401 107.5,61.5C 109.674,59.9186 112.007,58.4186 114.5,57C 115.5,56.3333 116.5,56.3333 117.5,57C 120.163,60.4934 122.163,64.3267 123.5,68.5 Z"/></g>
<g><path style="opacity:0.094" fill="#a2a7a8" d="M 31.5,66.5 C 31.81,69.7131 31.4767,72.7131 30.5,75.5C 30.0618,75.5654 29.7284,75.3988 29.5,75C 30.1281,72.0614 30.7948,69.2281 31.5,66.5 Z"/></g>
<g><path style="opacity:1" fill="#eaeaec" d="M 53.5,70.5 C 55.2517,70.4176 56.2517,71.2509 56.5,73C 55.6805,74.8003 55.0138,76.6336 54.5,78.5C 53.5386,76.7354 53.2053,74.7354 53.5,72.5C 53.5,71.8333 53.5,71.1667 53.5,70.5 Z"/></g>
<g><path style="opacity:0.522" fill="#43494b" d="M 163.5,62.5 C 165.61,63.4525 166.777,65.1192 167,67.5C 167.499,71.8206 167.666,76.1539 167.5,80.5C 167.144,74.3709 165.811,68.3709 163.5,62.5 Z"/></g>
<g><path style="opacity:1" fill="#919298" d="M 46.5,64.5 C 45.8148,72.8156 45.4815,81.149 45.5,89.5C 45.1667,89.5 44.8333,89.5 44.5,89.5C 44.1019,80.9319 44.7686,72.5986 46.5,64.5 Z"/></g>
<g><path style="opacity:1" fill="#b4b5b9" d="M 53.5,72.5 C 53.2053,74.7354 53.5386,76.7354 54.5,78.5C 54.313,80.5643 53.813,82.5643 53,84.5C 52.5172,83.552 52.3505,82.552 52.5,81.5C 52.19,78.2869 52.5233,75.2869 53.5,72.5 Z"/></g>
<g><path style="opacity:1" fill="#d1d1d4" d="M 149.5,81.5 C 150.167,87.1667 150.833,92.8333 151.5,98.5C 151.5,99.1667 151.5,99.8333 151.5,100.5C 150.774,103.179 149.941,105.846 149,108.5C 149.346,99.5367 149.513,90.5367 149.5,81.5 Z"/></g>
<g><path style="opacity:1" fill="#2c282a" d="M 92.5,78.5 C 93.7425,82.4841 93.7425,86.4841 92.5,90.5C 89.7664,95.7102 85.7664,97.2102 80.5,95C 81.8333,94.6667 83.1667,94.3333 84.5,94C 78.8266,91.2449 76.9933,86.7449 79,80.5C 79.8333,79 81,77.8333 82.5,77C 86.6611,73.5206 89.9944,74.0206 92.5,78.5 Z"/></g>
<g><path style="opacity:1" fill="#d6e0e3" d="M 83.5,79.5 C 89.4481,78.2834 91.9481,80.6168 91,86.5C 87.5222,91.7195 84.1889,91.7195 81,86.5C 80.6826,83.793 81.5159,81.4597 83.5,79.5 Z"/></g>
<g><path style="opacity:1" fill="#9c8671" d="M 92.5,78.5 C 93.7382,81.2613 95.0715,83.928 96.5,86.5C 96.81,89.7131 96.4767,92.7131 95.5,95.5C 95.6602,93.8008 95.4935,92.1341 95,90.5C 94.79,92.0581 94.29,93.3915 93.5,94.5C 93.7678,92.901 93.4345,91.5676 92.5,90.5C 93.7425,86.4841 93.7425,82.4841 92.5,78.5 Z"/></g>
<g><path style="opacity:1" fill="#b2b8be" d="M 35.5,68.5 C 35.5,75.1667 35.5,81.8333 35.5,88.5C 37.5,88.5 39.5,88.5 41.5,88.5C 42.1621,92.4659 42.4955,96.4659 42.5,100.5C 39.1626,100.813 36.8293,99.4799 35.5,96.5C 34.2081,87.0383 34.2081,77.705 35.5,68.5 Z"/></g>
<g><path style="opacity:1" fill="#dbc0a1" d="M 137.5,98.5 C 135.947,100.385 133.947,101.385 131.5,101.5C 131.5,100.5 131.5,99.5 131.5,98.5C 131.782,97.2223 132.449,96.2223 133.5,95.5C 133.643,93.7376 133.309,92.0709 132.5,90.5C 133.09,89.2011 134.09,88.3678 135.5,88C 133.866,87.5065 132.199,87.3398 130.5,87.5C 130.5,86.1667 130.5,84.8333 130.5,83.5C 131.601,82.4017 132.934,82.235 134.5,83C 135.667,84.1667 136.833,85.3333 138,86.5C 138.694,90.554 138.527,94.554 137.5,98.5 Z"/></g>
<g><path style="opacity:1" fill="#b7bcc3" d="M 156.5,74.5 C 157.485,78.6344 157.818,82.9677 157.5,87.5C 159.5,87.5 161.5,87.5 163.5,87.5C 163.5,88.1667 163.5,88.8333 163.5,89.5C 162.683,91.9686 162.183,94.6353 162,97.5C 160.491,99.9193 158.325,100.919 155.5,100.5C 155.5,99.1667 155.5,97.8333 155.5,96.5C 156.35,89.2015 156.683,81.8681 156.5,74.5 Z"/></g>
<g><path style="opacity:0.094" fill="#9ca2a2" d="M 30.5,88.5 C 31.4682,90.6074 31.8016,92.9407 31.5,95.5C 30.7326,94.828 30.0659,93.9947 29.5,93C 30.3802,91.6439 30.7135,90.1439 30.5,88.5 Z"/></g>
<g><path style="opacity:1" fill="#dcc1a2" d="M 60.5,98.5 C 58.4217,92.6504 59.4217,87.4837 63.5,83C 64.7932,82.51 66.1266,82.3433 67.5,82.5C 67.5,84.1667 67.5,85.8333 67.5,87.5C 65.8008,87.3398 64.1341,87.5065 62.5,88C 63.4162,88.3742 64.2496,88.8742 65,89.5C 65,91.5 65,93.5 65,95.5C 66.2316,92.7703 67.065,92.937 67.5,96C 67.0566,97.825 66.7233,99.6583 66.5,101.5C 64.0532,101.385 62.0532,100.385 60.5,98.5 Z"/></g>
<g><path style="opacity:1" fill="#ebc9a2" d="M 100.5,62.5 C 100.389,63.1174 100.056,63.6174 99.5,64C 96.7737,64.1816 94.1071,64.6816 91.5,65.5C 92.8333,66.8333 92.8333,68.1667 91.5,69.5C 90.0921,70.2432 88.7588,71.0766 87.5,72C 94.1455,74.4803 97.1455,79.3136 96.5,86.5C 95.0715,83.928 93.7382,81.2613 92.5,78.5C 89.9944,74.0206 86.6611,73.5206 82.5,77C 81,77.8333 79.8333,79 79,80.5C 76.9933,86.7449 78.8266,91.2449 84.5,94C 83.1667,94.3333 81.8333,94.6667 80.5,95C 85.7664,97.2102 89.7664,95.7102 92.5,90.5C 93.4345,91.5676 93.7678,92.901 93.5,94.5C 91.7739,96.8201 91.1072,99.4867 91.5,102.5C 90.8166,104.176 89.4832,104.843 87.5,104.5C 84.5812,103.707 81.9145,102.374 79.5,100.5C 76.9185,100.747 76.0851,102.08 77,104.5C 77.3333,104.167 77.6667,103.833 78,103.5C 78.1729,107.719 79.1729,111.719 81,115.5C 82.6379,117.734 84.8045,119.067 87.5,119.5C 87.6107,120.117 87.944,120.617 88.5,121C 94.3942,122.037 100.061,121.371 105.5,119C 103.167,118.667 100.833,118.333 98.5,118C 96.4873,116.209 96.4873,114.875 98.5,114C 97.944,113.617 97.6107,113.117 97.5,112.5C 99.6977,112.591 100.031,111.925 98.5,110.5C 105.997,111.471 112.997,110.138 119.5,106.5C 120.417,107.127 121.417,107.461 122.5,107.5C 121.531,108.309 120.698,109.309 120,110.5C 117.302,109.499 114.802,109.999 112.5,112C 109.118,112.176 105.785,112.676 102.5,113.5C 103.641,114.425 103.641,115.259 102.5,116C 104.764,116.236 106.931,116.736 109,117.5C 110.018,116.294 110.518,116.627 110.5,118.5C 110.081,119.672 109.415,120.672 108.5,121.5C 112.445,122.491 116.445,122.824 120.5,122.5C 120.5,122.833 120.5,123.167 120.5,123.5C 103.025,125.371 85.6915,124.704 68.5,121.5C 67.8333,121.5 67.5,121.167 67.5,120.5C 68.2849,113.647 69.7849,106.647 72,99.5C 72.3765,91.1425 73.0432,82.8091 74,74.5C 75.8234,70.1935 77.3234,65.8602 78.5,61.5C 78.4148,60.0047 79.0815,59.0047 80.5,58.5C 86.6891,61.9172 93.3558,63.2506 100.5,62.5 Z"/></g>
<g><path style="opacity:1" fill="#383b42" d="M 85.5,83.5 C 86.5,83.5 87.5,83.5 88.5,83.5C 88.5,84.5 88.5,85.5 88.5,86.5C 87.5,86.5 86.5,86.5 85.5,86.5C 85.5,85.5 85.5,84.5 85.5,83.5 Z"/></g>
<g><path style="opacity:1" fill="#2b2524" d="M 86.5,65.5 C 89.5,65.1667 90.8333,66.5 90.5,69.5C 86.1368,70.4475 82.1368,71.9475 78.5,74C 77.4829,72.9505 77.3162,71.7839 78,70.5C 80.9827,69.002 83.816,67.3354 86.5,65.5 Z"/></g>
<g><path style="opacity:1" fill="#948476" d="M 133.5,95.5 C 132.449,96.2223 131.782,97.2223 131.5,98.5C 130.387,97.0536 130.22,95.3869 131,93.5C 131.708,94.3805 132.542,95.0472 133.5,95.5 Z"/></g>
<g><path style="opacity:1" fill="#d5cec6" d="M 78.5,61.5 C 77.3234,65.8602 75.8234,70.1935 74,74.5C 73.0432,82.8091 72.3765,91.1425 72,99.5C 69.7849,106.647 68.2849,113.647 67.5,120.5C 66.0532,119.866 65.3866,118.699 65.5,117C 66.1595,114.538 66.4928,112.038 66.5,109.5C 67.8517,106.262 69.0184,102.929 70,99.5C 70.7993,90.5099 71.466,81.5099 72,72.5C 73.6891,68.4401 75.8558,64.7734 78.5,61.5 Z"/></g>
<g><path style="opacity:0.957" fill="#393c42" d="M 167.5,82.5 C 167.666,87.5111 167.499,92.5111 167,97.5C 165.795,101.877 162.961,104.21 158.5,104.5C 157.833,104.5 157.167,104.5 156.5,104.5C 159.04,102.334 158.373,101.334 154.5,101.5C 154.33,96.7255 153.33,96.3922 151.5,100.5C 151.5,99.8333 151.5,99.1667 151.5,98.5C 152.219,96.2362 152.552,93.9029 152.5,91.5C 152.833,91.5 153.167,91.5 153.5,91.5C 153.077,93.7812 153.744,95.4479 155.5,96.5C 155.5,97.8333 155.5,99.1667 155.5,100.5C 158.325,100.919 160.491,99.9193 162,97.5C 162.183,94.6353 162.683,91.9686 163.5,89.5C 163.335,92.8499 163.502,96.1832 164,99.5C 164.333,99.1667 164.667,98.8333 165,98.5C 166.011,93.0637 166.844,87.7304 167.5,82.5 Z"/></g>
<g><path style="opacity:1" fill="#2d3036" d="M 42.5,70.5 C 42.3337,77.175 42.5004,83.8417 43,90.5C 44.1068,91.7119 44.6068,91.3786 44.5,89.5C 44.8333,89.5 45.1667,89.5 45.5,89.5C 45.5,91.8333 45.5,94.1667 45.5,96.5C 43.2554,97.8278 42.9221,99.6612 44.5,102C 43.8333,102.333 43.1667,102.667 42.5,103C 43.9561,103.423 44.4561,104.256 44,105.5C 42.4157,106.861 40.5824,107.528 38.5,107.5C 38.5,106.833 38.8333,106.5 39.5,106.5C 43.2861,105.305 43.2861,104.638 39.5,104.5C 34.5,104.167 31.8333,101.5 31.5,96.5C 32.4734,96.9867 33.4734,97.4867 34.5,98C 33.2164,99.2975 33.3831,100.464 35,101.5C 35.4935,99.8659 35.6602,98.1992 35.5,96.5C 36.8293,99.4799 39.1626,100.813 42.5,100.5C 42.4955,96.4659 42.1621,92.4659 41.5,88.5C 41.1771,82.31 41.5104,76.31 42.5,70.5 Z"/></g>
<g><path style="opacity:1" fill="#332722" d="M 95.5,95.5 C 92.2895,99.5256 93.2895,101.526 98.5,101.5C 102.915,102.001 105.248,100.001 105.5,95.5C 108.3,98.5106 107.967,101.177 104.5,103.5C 99.9873,105.059 95.654,104.726 91.5,102.5C 91.1072,99.4867 91.7739,96.8201 93.5,94.5C 94.29,93.3915 94.79,92.0581 95,90.5C 95.4935,92.1341 95.6602,93.8008 95.5,95.5 Z"/></g>
<g><path style="opacity:1" fill="#f2cca1" d="M 112.5,66.5 C 110.863,65.7822 109.197,65.6155 107.5,66C 106.167,67 106.167,68 107.5,69C 111.167,70.8333 114.833,72.6667 118.5,74.5C 119.183,74.1373 119.85,73.8039 120.5,73.5C 120.938,71.3618 121.105,69.0285 121,66.5C 121.417,67.756 122.25,68.4226 123.5,68.5C 125.097,70.8478 126.097,73.5145 126.5,76.5C 125.598,86.4803 126.764,96.147 130,105.5C 131.551,110.954 131.718,116.288 130.5,121.5C 127.167,121.833 123.833,122.167 120.5,122.5C 116.445,122.824 112.445,122.491 108.5,121.5C 109.415,120.672 110.081,119.672 110.5,118.5C 110.518,116.627 110.018,116.294 109,117.5C 106.931,116.736 104.764,116.236 102.5,116C 103.641,115.259 103.641,114.425 102.5,113.5C 105.785,112.676 109.118,112.176 112.5,112C 114.802,109.999 117.302,109.499 120,110.5C 120.698,109.309 121.531,108.309 122.5,107.5C 122.5,104.167 120.833,102.5 117.5,102.5C 117.5,103.5 117.5,104.5 117.5,105.5C 111.267,107.006 104.934,107.673 98.5,107.5C 98.1667,107.5 97.8333,107.5 97.5,107.5C 97.3893,106.883 97.056,106.383 96.5,106C 98.8333,105.667 101.167,105.333 103.5,105C 104.056,104.617 104.389,104.117 104.5,103.5C 107.967,101.177 108.3,98.5106 105.5,95.5C 105.248,100.001 102.915,102.001 98.5,101.5C 93.2895,101.526 92.2895,99.5256 95.5,95.5C 96.4767,92.7131 96.81,89.7131 96.5,86.5C 97.1455,79.3136 94.1455,74.4803 87.5,72C 88.7588,71.0766 90.0921,70.2432 91.5,69.5C 92.8333,68.1667 92.8333,66.8333 91.5,65.5C 94.1071,64.6816 96.7737,64.1816 99.5,64C 100.056,63.6174 100.389,63.1174 100.5,62.5C 102.764,61.7814 105.097,61.448 107.5,61.5C 109.816,60.8401 112.149,60.1734 114.5,59.5C 121.774,63.7833 121.108,66.1167 112.5,66.5 Z"/></g>
<g><path style="opacity:1" fill="#312b2c" d="M 108.5,74.5 C 113.445,75.5567 117.278,78.2234 120,82.5C 120.414,87.6702 118.247,91.3368 113.5,93.5C 114.729,94.2811 116.062,94.7811 117.5,95C 114.569,96.9101 111.569,96.9101 108.5,95C 101.89,88.1277 101.89,81.2944 108.5,74.5 Z"/></g>
<g><path style="opacity:1" fill="#d9e3e5" d="M 108.5,79.5 C 115,78.4987 117.5,81.1653 116,87.5C 112.477,91.7014 109.477,91.3681 107,86.5C 106.167,83.829 106.667,81.4957 108.5,79.5 Z"/></g>
<g><path style="opacity:1" fill="#373a43" d="M 109.5,83.5 C 110.5,83.5 111.5,83.5 112.5,83.5C 112.5,84.5 112.5,85.5 112.5,86.5C 111.5,86.5 110.5,86.5 109.5,86.5C 109.5,85.5 109.5,84.5 109.5,83.5 Z"/></g>
<g><path style="opacity:1" fill="#2b2222" d="M 112.5,66.5 C 114.428,68.4741 116.761,69.9741 119.5,71C 120.252,71.6708 120.586,72.5041 120.5,73.5C 119.85,73.8039 119.183,74.1373 118.5,74.5C 114.833,72.6667 111.167,70.8333 107.5,69C 106.167,68 106.167,67 107.5,66C 109.197,65.6155 110.863,65.7822 112.5,66.5 Z"/></g>
<g><path style="opacity:0.004" fill="#c2c7c6" d="M 39.5,104.5 C 43.2861,104.638 43.2861,105.305 39.5,106.5C 39.5,105.833 39.5,105.167 39.5,104.5 Z"/></g>
<g><path style="opacity:1" fill="#bfa68b" d="M 91.5,102.5 C 95.654,104.726 99.9873,105.059 104.5,103.5C 104.389,104.117 104.056,104.617 103.5,105C 101.167,105.333 98.8333,105.667 96.5,106C 97.056,106.383 97.3893,106.883 97.5,107.5C 93.7934,107.396 90.46,106.396 87.5,104.5C 89.4832,104.843 90.8166,104.176 91.5,102.5 Z"/></g>
<g><path style="opacity:0.004" fill="#9ea5a4" d="M 156.5,104.5 C 157.167,104.5 157.833,104.5 158.5,104.5C 158.167,105.167 157.833,105.833 157.5,106.5C 157.167,106.5 156.833,106.5 156.5,106.5C 156.082,105.778 155.416,105.278 154.5,105C 155.094,104.536 155.761,104.369 156.5,104.5 Z"/></g>
<g><path style="opacity:1" fill="#1c1c27" d="M 53.5,70.5 C 53.5,71.1667 53.5,71.8333 53.5,72.5C 52.5233,75.2869 52.19,78.2869 52.5,81.5C 51.2172,84.3654 51.2172,87.3654 52.5,90.5C 54.0453,91.4519 55.712,91.7852 57.5,91.5C 57.4642,94.461 58.4642,96.7943 60.5,98.5C 60.7512,100.17 61.4178,101.67 62.5,103C 60.5946,103.826 60.2612,104.993 61.5,106.5C 62.5321,104.96 63.8654,104.46 65.5,105C 65.8714,106.603 66.2048,108.103 66.5,109.5C 66.4928,112.038 66.1595,114.538 65.5,117C 65.3866,118.699 66.0532,119.866 67.5,120.5C 67.5,121.167 67.8333,121.5 68.5,121.5C 69.8502,122.65 69.6836,123.317 68,123.5C 66.5603,122.852 65.0603,122.519 63.5,122.5C 63.5,121.5 63.5,120.5 63.5,119.5C 61.5,119.5 59.5,119.5 57.5,119.5C 55.2043,119.804 54.871,120.804 56.5,122.5C 56.8256,126.884 56.4922,131.217 55.5,135.5C 54.4777,135.145 53.811,134.478 53.5,133.5C 55.172,128.914 54.5053,124.58 51.5,120.5C 48.7892,119.011 46.7892,119.678 45.5,122.5C 44.1805,123.942 42.5138,124.608 40.5,124.5C 40.9752,122.216 41.9752,120.216 43.5,118.5C 46.204,118.33 47.8707,116.997 48.5,114.5C 49.368,112.103 50.0347,109.603 50.5,107C 50.4915,105.293 50.1582,103.793 49.5,102.5C 48.0249,91.404 48.3582,80.404 50.5,69.5C 51.8946,68.1854 52.8946,68.5188 53.5,70.5 Z"/></g>
<g><path style="opacity:1" fill="#443831" d="M 122.5,107.5 C 121.417,107.461 120.417,107.127 119.5,106.5C 112.997,110.138 105.997,111.471 98.5,110.5C 96.5853,110.784 94.9187,110.451 93.5,109.5C 99.1764,109.666 104.843,109.499 110.5,109C 106.312,108.824 102.312,108.324 98.5,107.5C 104.934,107.673 111.267,107.006 117.5,105.5C 117.5,104.5 117.5,103.5 117.5,102.5C 120.833,102.5 122.5,104.167 122.5,107.5 Z"/></g>
<g><path style="opacity:1" fill="#2a2326" d="M 87.5,104.5 C 90.46,106.396 93.7934,107.396 97.5,107.5C 97.8333,107.5 98.1667,107.5 98.5,107.5C 102.312,108.324 106.312,108.824 110.5,109C 104.843,109.499 99.1764,109.666 93.5,109.5C 90.0171,108.799 86.6838,107.799 83.5,106.5C 83.33,107.822 83.6634,108.989 84.5,110C 88.8034,111.05 93.1368,111.884 97.5,112.5C 97.6107,113.117 97.944,113.617 98.5,114C 96.4873,114.875 96.4873,116.209 98.5,118C 100.833,118.333 103.167,118.667 105.5,119C 100.061,121.371 94.3942,122.037 88.5,121C 87.944,120.617 87.6107,120.117 87.5,119.5C 84.8045,119.067 82.6379,117.734 81,115.5C 79.1729,111.719 78.1729,107.719 78,103.5C 77.6667,103.833 77.3333,104.167 77,104.5C 76.0851,102.08 76.9185,100.747 79.5,100.5C 81.9145,102.374 84.5812,103.707 87.5,104.5 Z"/></g>
<g><path style="opacity:1" fill="#e2e1e2" d="M 93.5,109.5 C 94.9187,110.451 96.5853,110.784 98.5,110.5C 100.031,111.925 99.6977,112.591 97.5,112.5C 93.1368,111.884 88.8034,111.05 84.5,110C 83.6634,108.989 83.33,107.822 83.5,106.5C 86.6838,107.799 90.0171,108.799 93.5,109.5 Z"/></g>
<g><path style="opacity:1" fill="#f3f3f4" d="M 152.5,109.5 C 157.5,109.833 160.167,112.5 160.5,117.5C 160.825,124.687 160.491,131.687 159.5,138.5C 158.508,138.672 157.842,138.338 157.5,137.5C 156.391,132.542 156.391,127.875 157.5,123.5C 157.267,121.938 156.6,120.605 155.5,119.5C 154.618,116.615 153.284,113.948 151.5,111.5C 151.833,110.833 152.167,110.167 152.5,109.5 Z"/></g>
<g><path style="opacity:1" fill="#4b191f" d="M 92.5,115.5 C 90.1445,114.425 87.8111,114.425 85.5,115.5C 86.2427,116.182 86.9094,116.849 87.5,117.5C 86.5,117.5 85.5,117.5 84.5,117.5C 84.5,116.167 84.5,114.833 84.5,113.5C 87.6981,112.964 90.3647,113.631 92.5,115.5 Z"/></g>
<g><path style="opacity:1" fill="#b3b5bb" d="M 45.5,109.5 C 46.3127,111.261 47.3127,112.928 48.5,114.5C 47.8707,116.997 46.204,118.33 43.5,118.5C 44.4608,115.574 45.1274,112.574 45.5,109.5 Z"/></g>
<g><path style="opacity:1" fill="#c14248" d="M 92.5,115.5 C 92.5,116.167 92.8333,116.5 93.5,116.5C 93.5299,117.497 93.0299,118.164 92,118.5C 90.5603,117.852 89.0603,117.519 87.5,117.5C 86.9094,116.849 86.2427,116.182 85.5,115.5C 87.8111,114.425 90.1445,114.425 92.5,115.5 Z"/></g>
<g><path style="opacity:1" fill="#302a2c" d="M 126.5,76.5 C 126.833,76.5 127.167,76.5 127.5,76.5C 127.334,80.5138 127.501,84.5138 128,88.5C 128.985,86.8251 129.819,85.1585 130.5,83.5C 130.5,84.8333 130.5,86.1667 130.5,87.5C 132.199,87.3398 133.866,87.5065 135.5,88C 134.09,88.3678 133.09,89.2011 132.5,90.5C 133.309,92.0709 133.643,93.7376 133.5,95.5C 132.542,95.0472 131.708,94.3805 131,93.5C 130.22,95.3869 130.387,97.0536 131.5,98.5C 131.5,99.5 131.5,100.5 131.5,101.5C 133.947,101.385 135.947,100.385 137.5,98.5C 135.902,101.436 133.902,104.103 131.5,106.5C 134.373,111.538 135.04,116.872 133.5,122.5C 129.331,125.055 124.665,126.555 119.5,127C 100.122,130.054 81.1223,128.72 62.5,123C 60.4156,122.303 58.7489,121.136 57.5,119.5C 59.5,119.5 61.5,119.5 63.5,119.5C 63.5,120.5 63.5,121.5 63.5,122.5C 65.0603,122.519 66.5603,122.852 68,123.5C 69.6836,123.317 69.8502,122.65 68.5,121.5C 85.6915,124.704 103.025,125.371 120.5,123.5C 124.122,123.678 127.456,123.011 130.5,121.5C 131.718,116.288 131.551,110.954 130,105.5C 126.764,96.147 125.598,86.4803 126.5,76.5 Z"/></g>
<g><path style="opacity:1" fill="#b1b3b8" d="M 151.5,111.5 C 153.284,113.948 154.618,116.615 155.5,119.5C 154.167,118.833 152.833,118.167 151.5,117.5C 150.522,117.189 149.855,116.522 149.5,115.5C 149.994,113.974 150.661,112.641 151.5,111.5 Z"/></g>
<g><path style="opacity:0.243" fill="#616869" d="M 34.5,111.5 C 33.7593,122.475 33.2593,133.475 33,144.5C 32.5831,145.756 31.7498,146.423 30.5,146.5C 31.379,144.772 32.0457,142.939 32.5,141C 31.8193,133.939 31.4859,126.939 31.5,120C 32.1936,116.975 33.1936,114.142 34.5,111.5 Z"/></g>
<g><path style="opacity:0.647" fill="#3e4246" d="M 156.5,106.5 C 156.833,106.5 157.167,106.5 157.5,106.5C 161.584,108.092 164.084,111.092 165,115.5C 165.333,124.833 165.667,134.167 166,143.5C 169.482,146.799 171.649,150.799 172.5,155.5C 170.647,153.625 168.813,151.625 167,149.5C 165.556,151.155 163.722,151.822 161.5,151.5C 162.209,150.596 163.209,150.263 164.5,150.5C 164.649,149.448 164.483,148.448 164,147.5C 162.293,145.963 160.793,144.296 159.5,142.5C 160.583,142.539 161.583,142.873 162.5,143.5C 163.833,133.833 163.833,124.167 162.5,114.5C 161.614,115.325 161.281,116.325 161.5,117.5C 161.167,117.5 160.833,117.5 160.5,117.5C 160.167,112.5 157.5,109.833 152.5,109.5C 153.884,108.199 155.384,108.199 157,109.5C 158.795,108.281 158.628,107.281 156.5,106.5 Z"/></g>
<g><path style="opacity:1" fill="#441920" d="M 93.5,116.5 C 95.5492,116.706 95.8825,117.539 94.5,119C 92.1902,119.497 89.8568,119.663 87.5,119.5C 87.5,118.833 87.5,118.167 87.5,117.5C 89.0603,117.519 90.5603,117.852 92,118.5C 93.0299,118.164 93.5299,117.497 93.5,116.5 Z"/></g>
<g><path style="opacity:1" fill="#24252e" d="M 151.5,117.5 C 152.833,118.167 154.167,118.833 155.5,119.5C 156.6,120.605 157.267,121.938 157.5,123.5C 157.265,124.097 156.765,124.43 156,124.5C 153.303,121.546 150.136,120.546 146.5,121.5C 144.656,125.217 143.989,129.217 144.5,133.5C 143.662,133.842 143.328,134.508 143.5,135.5C 124.087,144.122 103.754,146.955 82.5,144C 74.3087,142.286 66.3087,139.953 58.5,137C 56.6131,136.22 54.9464,136.387 53.5,137.5C 52.8333,136.5 52.1667,135.5 51.5,134.5C 51.8417,133.662 52.5084,133.328 53.5,133.5C 53.811,134.478 54.4777,135.145 55.5,135.5C 56.4922,131.217 56.8256,126.884 56.5,122.5C 60.9488,125.711 65.9488,127.877 71.5,129C 89.8061,132.268 108.139,132.268 126.5,129C 131.324,127.632 135.991,125.965 140.5,124C 142.014,122.561 142.347,121.061 141.5,119.5C 139.971,120.763 138.305,121.763 136.5,122.5C 137.522,115.614 140.022,114.947 144,120.5C 144.667,119.833 145.333,119.167 146,118.5C 148.339,120.078 150.172,119.745 151.5,117.5 Z"/></g>
<g><path style="opacity:1" fill="#f7f7f7" d="M 45.5,109.5 C 45.1274,112.574 44.4608,115.574 43.5,118.5C 41.9752,120.216 40.9752,122.216 40.5,124.5C 42.3177,128.173 42.9843,132.173 42.5,136.5C 41.1667,137.5 39.8333,138.5 38.5,139.5C 37.5076,131.684 37.1743,123.684 37.5,115.5C 38.9596,111.314 41.6263,109.314 45.5,109.5 Z"/></g>
<g><path style="opacity:1" fill="#b9b8bc" d="M 37.5,115.5 C 37.1743,123.684 37.5076,131.684 38.5,139.5C 38.44,140.043 38.1067,140.376 37.5,140.5C 36.1791,132.009 36.1791,123.676 37.5,115.5 Z"/></g>
<g><path style="opacity:1" fill="#b7bfc6" d="M 48.5,134.5 C 46.4214,134.971 44.4214,135.637 42.5,136.5C 42.9843,132.173 42.3177,128.173 40.5,124.5C 42.5138,124.608 44.1805,123.942 45.5,122.5C 46.4959,122.586 47.3292,122.252 48,121.5C 49.1622,123.838 50.9956,125.172 53.5,125.5C 53.8076,127.924 53.4742,130.257 52.5,132.5C 50.495,131.501 49.1617,132.168 48.5,134.5 Z"/></g>
<g><path style="opacity:1" fill="#b3bac1" d="M 157.5,123.5 C 156.391,127.875 156.391,132.542 157.5,137.5C 153.257,135.879 148.924,134.546 144.5,133.5C 143.989,129.217 144.656,125.217 146.5,121.5C 150.136,120.546 153.303,121.546 156,124.5C 156.765,124.43 157.265,124.097 157.5,123.5 Z"/></g>
<g><path style="opacity:1" fill="#a7adb4" d="M 57.5,119.5 C 58.7489,121.136 60.4156,122.303 62.5,123C 81.1223,128.72 100.122,130.054 119.5,127C 124.665,126.555 129.331,125.055 133.5,122.5C 134.5,122.5 135.5,122.5 136.5,122.5C 138.305,121.763 139.971,120.763 141.5,119.5C 142.347,121.061 142.014,122.561 140.5,124C 135.991,125.965 131.324,127.632 126.5,129C 108.139,132.268 89.8061,132.268 71.5,129C 65.9488,127.877 60.9488,125.711 56.5,122.5C 54.871,120.804 55.2043,119.804 57.5,119.5 Z"/></g>
<g><path style="opacity:1" fill="#604f41" d="M 130.5,121.5 C 127.456,123.011 124.122,123.678 120.5,123.5C 120.5,123.167 120.5,122.833 120.5,122.5C 123.833,122.167 127.167,121.833 130.5,121.5 Z"/></g>
<g><path style="opacity:1" fill="#bfc2c7" d="M 134.5,135.5 C 134.714,134.064 134.381,132.397 133.5,130.5C 136.09,130.082 138.423,129.082 140.5,127.5C 141.76,129.353 141.76,131.186 140.5,133C 138.593,134.122 136.593,134.955 134.5,135.5 Z"/></g>
<g><path style="opacity:1" fill="#9499a1" d="M 53.5,133.5 C 52.5084,133.328 51.8417,133.662 51.5,134.5C 50.5,134.5 49.5,134.5 48.5,134.5C 49.1617,132.168 50.495,131.501 52.5,132.5C 53.4742,130.257 53.8076,127.924 53.5,125.5C 50.9956,125.172 49.1622,123.838 48,121.5C 47.3292,122.252 46.4959,122.586 45.5,122.5C 46.7892,119.678 48.7892,119.011 51.5,120.5C 54.5053,124.58 55.172,128.914 53.5,133.5 Z"/></g>
<g><path style="opacity:1" fill="#6e7077" d="M 160.5,117.5 C 160.833,117.5 161.167,117.5 161.5,117.5C 161.831,124.863 161.497,132.197 160.5,139.5C 159.893,139.376 159.56,139.043 159.5,138.5C 160.491,131.687 160.825,124.687 160.5,117.5 Z"/></g>
<g><path style="opacity:1" fill="#afb6bc" d="M 127.5,132.5 C 129.179,132.285 130.179,132.952 130.5,134.5C 109.49,138.48 88.4896,138.48 67.5,134.5C 67.2174,131.685 66.2174,131.185 64.5,133C 64.8361,134.03 65.5028,134.53 66.5,134.5C 66.5,135.167 66.5,135.833 66.5,136.5C 63.8544,135.513 61.1878,134.513 58.5,133.5C 57.5481,131.955 57.2148,130.288 57.5,128.5C 80.5125,134.914 103.846,136.247 127.5,132.5 Z"/></g>
<g><path style="opacity:1" fill="#2f3037" d="M 67.5,134.5 C 67.1667,134.5 66.8333,134.5 66.5,134.5C 65.5028,134.53 64.8361,134.03 64.5,133C 66.2174,131.185 67.2174,131.685 67.5,134.5 Z"/></g>
<g><path style="opacity:1" fill="#575960" d="M 133.5,130.5 C 134.381,132.397 134.714,134.064 134.5,135.5C 134.158,136.338 133.492,136.672 132.5,136.5C 132.167,135.5 131.5,134.833 130.5,134.5C 130.179,132.952 129.179,132.285 127.5,132.5C 129.102,130.926 131.102,130.259 133.5,130.5 Z"/></g>
<g><path style="opacity:1" fill="#1c1b27" d="M 48.5,134.5 C 49.5,134.5 50.5,134.5 51.5,134.5C 52.1667,135.5 52.8333,136.5 53.5,137.5C 55.1667,139.5 56.8333,141.5 58.5,143.5C 62.2097,148.588 64.543,154.254 65.5,160.5C 66.873,167.216 66.7064,173.883 65,180.5C 64.6667,180.833 64.3333,181.167 64,181.5C 62.3775,180.901 60.8775,180.234 59.5,179.5C 59.7947,177.265 59.4614,175.265 58.5,173.5C 58.2576,169.521 57.2576,165.854 55.5,162.5C 53.4684,155.435 50.135,149.101 45.5,143.5C 45.528,141.418 44.8613,139.584 43.5,138C 45.4308,137.098 47.0975,135.931 48.5,134.5 Z"/></g>
<g><path style="opacity:1" fill="#dedfe1" d="M 66.5,134.5 C 66.8333,134.5 67.1667,134.5 67.5,134.5C 88.4896,138.48 109.49,138.48 130.5,134.5C 131.5,134.833 132.167,135.5 132.5,136.5C 110.475,143.147 88.4747,143.147 66.5,136.5C 66.5,135.833 66.5,135.167 66.5,134.5 Z"/></g>
<g><path style="opacity:1" fill="#f6f6f6" d="M 45.5,143.5 C 50.135,149.101 53.4684,155.435 55.5,162.5C 55.6301,166.525 56.6301,170.191 58.5,173.5C 58.5,175.167 58.5,176.833 58.5,178.5C 57.5,178.5 56.5,178.5 55.5,178.5C 55.7373,177.209 55.404,176.209 54.5,175.5C 53.5,171.5 52.5,171.5 51.5,175.5C 50.596,176.209 50.2627,177.209 50.5,178.5C 42.8333,178.5 35.1667,178.5 27.5,178.5C 27.19,175.287 27.5233,172.287 28.5,169.5C 32.0108,171.085 35.6775,171.585 39.5,171C 37.5,169.667 35.5,168.333 33.5,167C 39.5716,163.699 41.9049,158.866 40.5,152.5C 39.8333,149.833 38.1667,148.167 35.5,147.5C 36.2543,144.909 37.921,143.076 40.5,142C 42.4952,141.387 44.1619,141.887 45.5,143.5 Z"/></g>
<g><path style="opacity:1" fill="#f4f4f5" d="M 159.5,142.5 C 160.793,144.296 162.293,145.963 164,147.5C 164.483,148.448 164.649,149.448 164.5,150.5C 163.209,150.263 162.209,150.596 161.5,151.5C 158.982,152.264 156.649,153.264 154.5,154.5C 153.903,154.735 153.57,155.235 153.5,156C 155.814,161.118 157.814,166.285 159.5,171.5C 161.553,171.598 163.22,170.931 164.5,169.5C 166.806,169.007 169.139,168.674 171.5,168.5C 171.5,169.833 171.5,171.167 171.5,172.5C 171.5,173.5 171.5,174.5 171.5,175.5C 171.5,176.5 171.5,177.5 171.5,178.5C 163.5,178.5 155.5,178.5 147.5,178.5C 146.167,170.5 144.833,170.5 143.5,178.5C 142.5,178.5 141.5,178.5 140.5,178.5C 140.5,176.167 140.5,173.833 140.5,171.5C 142.186,159.962 147.186,150.129 155.5,142C 156.819,141.805 158.153,141.972 159.5,142.5 Z"/></g>
<g><path style="opacity:1" fill="#f5f5f6" d="M 140.5,142.5 C 133.132,153.274 129.132,165.274 128.5,178.5C 127.167,178.5 125.833,178.5 124.5,178.5C 124.821,172.974 124.488,167.64 123.5,162.5C 122.723,159.888 121.056,158.055 118.5,157C 106.167,156.333 93.8333,156.333 81.5,157C 77.9039,160.735 76.5706,165.235 77.5,170.5C 69.6452,169.794 66.6452,173.461 68.5,181.5C 68.6716,182.492 68.3382,183.158 67.5,183.5C 67.3088,178.628 67.6421,173.795 68.5,169C 68,166.5 67.5,164 67,161.5C 66.6174,160.944 66.1174,160.611 65.5,160.5C 64.543,154.254 62.2097,148.588 58.5,143.5C 59.209,142.596 60.209,142.263 61.5,142.5C 66.1423,145.272 71.1423,147.272 76.5,148.5C 84.457,149.894 92.6237,150.561 101,150.5C 107.738,150.686 114.238,150.019 120.5,148.5C 126.319,147.582 131.653,145.582 136.5,142.5C 137.961,141.314 139.295,141.314 140.5,142.5 Z"/></g>
<g><path style="opacity:1" fill="#22232b" d="M 61.5,142.5 C 61.56,141.957 61.8933,141.624 62.5,141.5C 68.9326,143.906 75.5993,145.239 82.5,145.5C 82.5,146.5 82.5,147.5 82.5,148.5C 80.5,148.5 78.5,148.5 76.5,148.5C 71.1423,147.272 66.1423,145.272 61.5,142.5 Z"/></g>
<g><path style="opacity:1" fill="#adb4bb" d="M 143.5,135.5 C 144.573,136.251 144.74,137.251 144,138.5C 142.595,139.731 141.429,141.064 140.5,142.5C 139.295,141.314 137.961,141.314 136.5,142.5C 136.44,141.957 136.107,141.624 135.5,141.5C 128.961,143.474 122.295,144.808 115.5,145.5C 115.5,146.5 115.5,147.5 115.5,148.5C 117.167,148.5 118.833,148.5 120.5,148.5C 114.238,150.019 107.738,150.686 101,150.5C 92.6237,150.561 84.457,149.894 76.5,148.5C 78.5,148.5 80.5,148.5 82.5,148.5C 82.5,147.5 82.5,146.5 82.5,145.5C 75.5993,145.239 68.9326,143.906 62.5,141.5C 61.8933,141.624 61.56,141.957 61.5,142.5C 60.209,142.263 59.209,142.596 58.5,143.5C 56.8333,141.5 55.1667,139.5 53.5,137.5C 54.9464,136.387 56.6131,136.22 58.5,137C 66.3087,139.953 74.3087,142.286 82.5,144C 103.754,146.955 124.087,144.122 143.5,135.5 Z"/></g>
<g><path style="opacity:1" fill="#2a2b32" d="M 136.5,142.5 C 131.653,145.582 126.319,147.582 120.5,148.5C 118.833,148.5 117.167,148.5 115.5,148.5C 115.5,147.5 115.5,146.5 115.5,145.5C 122.295,144.808 128.961,143.474 135.5,141.5C 136.107,141.624 136.44,141.957 136.5,142.5 Z"/></g>
<g><path style="opacity:0.145" fill="#5f6666" d="M 30.5,146.5 C 29.8897,148.434 28.8897,150.101 27.5,151.5C 27.2729,149.067 28.2729,147.401 30.5,146.5 Z"/></g>
<g><path style="opacity:1" fill="#243646" d="M 35.5,147.5 C 38.1667,148.167 39.8333,149.833 40.5,152.5C 39.8826,152.389 39.3826,152.056 39,151.5C 38.8138,154.036 38.3138,156.369 37.5,158.5C 38.6605,153.825 36.9939,151.159 32.5,150.5C 33.0998,149.1 34.0998,148.1 35.5,147.5 Z"/></g>
<g><path style="opacity:1" fill="#3fb7e0" d="M 32.5,150.5 C 36.9939,151.159 38.6605,153.825 37.5,158.5C 37.5,158.833 37.5,159.167 37.5,159.5C 35.4525,162.686 32.4525,164.019 28.5,163.5C 28.5838,160.673 29.2504,158.006 30.5,155.5C 30.7959,153.597 31.4625,151.93 32.5,150.5 Z"/></g>
<g><path style="opacity:0.004" fill="#a0a7a6" d="M 27.5,151.5 C 27.2041,153.403 26.5375,155.07 25.5,156.5C 25.1201,154.302 25.7868,152.635 27.5,151.5 Z"/></g>
<g><path style="opacity:1" fill="#d84342" d="M 162.5,154.5 C 166.845,154.298 167.512,155.631 164.5,158.5C 162.833,159.167 161.167,159.833 159.5,160.5C 157.727,159.686 157.227,158.352 158,156.5C 159.622,155.901 161.122,155.234 162.5,154.5 Z"/></g>
<g><path style="opacity:1" fill="#b74a4b" d="M 168.5,157.5 C 167.292,158.234 165.959,158.567 164.5,158.5C 167.512,155.631 166.845,154.298 162.5,154.5C 166.526,151.179 168.526,152.179 168.5,157.5 Z"/></g>
<g><path style="opacity:1" fill="#2b1e24" d="M 154.5,154.5 C 157.167,154.5 159.833,154.5 162.5,154.5C 161.122,155.234 159.622,155.901 158,156.5C 157.227,158.352 157.727,159.686 159.5,160.5C 159.5,161.5 159.5,162.5 159.5,163.5C 160.016,165.2 161.016,166.533 162.5,167.5C 165.096,166.518 167.762,165.851 170.5,165.5C 170.5,163.833 170.5,162.167 170.5,160.5C 172.141,162.203 173.141,164.37 173.5,167C 170.833,167.333 168.167,167.667 165.5,168C 164.944,168.383 164.611,168.883 164.5,169.5C 163.22,170.931 161.553,171.598 159.5,171.5C 157.814,166.285 155.814,161.118 153.5,156C 153.57,155.235 153.903,154.735 154.5,154.5 Z"/></g>
<g><path style="opacity:1" fill="#eeded1" d="M 168.5,157.5 C 169.404,158.209 169.737,159.209 169.5,160.5C 166.037,161.099 162.704,162.099 159.5,163.5C 159.5,162.5 159.5,161.5 159.5,160.5C 161.167,159.833 162.833,159.167 164.5,158.5C 165.959,158.567 167.292,158.234 168.5,157.5 Z"/></g>
<g><path style="opacity:1" fill="#cc4c4c" d="M 169.5,160.5 C 169.833,160.5 170.167,160.5 170.5,160.5C 170.5,162.167 170.5,163.833 170.5,165.5C 167.762,165.851 165.096,166.518 162.5,167.5C 161.016,166.533 160.016,165.2 159.5,163.5C 162.704,162.099 166.037,161.099 169.5,160.5 Z"/></g>
<g><path style="opacity:1" fill="#22222b" d="M 159.5,142.5 C 158.153,141.972 156.819,141.805 155.5,142C 147.186,150.129 142.186,159.962 140.5,171.5C 139.527,173.948 139.194,176.615 139.5,179.5C 141.099,179.768 142.432,179.434 143.5,178.5C 144.833,170.5 146.167,170.5 147.5,178.5C 155.65,179.493 163.983,179.826 172.5,179.5C 172.768,177.901 172.434,176.568 171.5,175.5C 171.5,174.5 171.5,173.5 171.5,172.5C 172.15,172.196 172.817,171.863 173.5,171.5C 174.172,172.949 174.839,174.282 175.5,175.5C 175.802,178.059 175.468,180.393 174.5,182.5C 157.167,182.5 139.833,182.5 122.5,182.5C 122.621,186.032 121.288,188.866 118.5,191C 106.167,191.667 93.8333,191.667 81.5,191C 80.4734,190.487 79.4734,189.987 78.5,189.5C 77.0108,187.884 76.0108,185.884 75.5,183.5C 72.7513,184.475 70.4179,183.808 68.5,181.5C 66.6452,173.461 69.6452,169.794 77.5,170.5C 76.5706,165.235 77.9039,160.735 81.5,157C 93.8333,156.333 106.167,156.333 118.5,157C 121.056,158.055 122.723,159.888 123.5,162.5C 123.5,168.167 123.5,173.833 123.5,179.5C 125.415,179.784 127.081,179.451 128.5,178.5C 129.132,165.274 133.132,153.274 140.5,142.5C 141.429,141.064 142.595,139.731 144,138.5C 144.74,137.251 144.573,136.251 143.5,135.5C 143.328,134.508 143.662,133.842 144.5,133.5C 148.924,134.546 153.257,135.879 157.5,137.5C 157.842,138.338 158.508,138.672 159.5,138.5C 159.56,139.043 159.893,139.376 160.5,139.5C 161.497,132.197 161.831,124.863 161.5,117.5C 161.281,116.325 161.614,115.325 162.5,114.5C 163.833,124.167 163.833,133.833 162.5,143.5C 161.583,142.873 160.583,142.539 159.5,142.5 Z"/></g>
<g><path style="opacity:1" fill="#f0f0f1" d="M 119.5,162.5 C 119.83,169.2 119.497,175.866 118.5,182.5C 117.828,181.051 117.161,179.718 116.5,178.5C 113.086,174.607 109.752,174.607 106.5,178.5C 105.566,179.568 105.232,180.901 105.5,182.5C 104.5,182.5 103.5,182.5 102.5,182.5C 100.833,181.167 99.1667,181.167 97.5,182.5C 96.5,182.5 95.5,182.5 94.5,182.5C 91.5,181.167 88.5,181.167 85.5,182.5C 83.8333,182.5 82.1667,182.5 80.5,182.5C 80.3337,175.825 80.5004,169.158 81,162.5C 81.5,162 82,161.5 82.5,161C 94.5,160.333 106.5,160.333 118.5,161C 119.056,161.383 119.389,161.883 119.5,162.5 Z"/></g>
<g><path style="opacity:1" fill="#1b1f2a" d="M 84.5,162.5 C 87.8333,162.5 91.1667,162.5 94.5,162.5C 94.5,166.5 94.5,170.5 94.5,174.5C 91.1667,174.5 87.8333,174.5 84.5,174.5C 84.5,170.5 84.5,166.5 84.5,162.5 Z"/></g>
<g><path style="opacity:1" fill="#22242b" d="M 45.5,96.5 C 46.4912,100.101 47.6578,103.768 49,107.5C 49.4935,105.866 49.6602,104.199 49.5,102.5C 50.1582,103.793 50.4915,105.293 50.5,107C 50.0347,109.603 49.368,112.103 48.5,114.5C 47.3127,112.928 46.3127,111.261 45.5,109.5C 41.6263,109.314 38.9596,111.314 37.5,115.5C 36.1791,123.676 36.1791,132.009 37.5,140.5C 38.1067,140.376 38.44,140.043 38.5,139.5C 39.8333,138.5 41.1667,137.5 42.5,136.5C 44.4214,135.637 46.4214,134.971 48.5,134.5C 47.0975,135.931 45.4308,137.098 43.5,138C 44.8613,139.584 45.528,141.418 45.5,143.5C 44.1619,141.887 42.4952,141.387 40.5,142C 37.921,143.076 36.2543,144.909 35.5,147.5C 34.0998,148.1 33.0998,149.1 32.5,150.5C 31.4625,151.93 30.7959,153.597 30.5,155.5C 27.3875,157.64 26.0541,160.64 26.5,164.5C 30.2568,164.929 33.7568,164.263 37,162.5C 37.4828,161.552 37.6495,160.552 37.5,159.5C 37.5,159.167 37.5,158.833 37.5,158.5C 38.3138,156.369 38.8138,154.036 39,151.5C 39.3826,152.056 39.8826,152.389 40.5,152.5C 41.9049,158.866 39.5716,163.699 33.5,167C 35.5,168.333 37.5,169.667 39.5,171C 35.6775,171.585 32.0108,171.085 28.5,169.5C 28.44,168.957 28.1067,168.624 27.5,168.5C 26.5108,172.107 26.1774,175.774 26.5,179.5C 34.8333,179.5 43.1667,179.5 51.5,179.5C 51.5,178.167 51.5,176.833 51.5,175.5C 52.5,171.5 53.5,171.5 54.5,175.5C 54.5,176.833 54.5,178.167 54.5,179.5C 56.1667,179.5 57.8333,179.5 59.5,179.5C 60.8775,180.234 62.3775,180.901 64,181.5C 64.3333,181.167 64.6667,180.833 65,180.5C 66.7064,173.883 66.873,167.216 65.5,160.5C 66.1174,160.611 66.6174,160.944 67,161.5C 67.5,164 68,166.5 68.5,169C 67.6421,173.795 67.3088,178.628 67.5,183.5C 52.9131,184.551 38.2465,184.551 23.5,183.5C 23.6239,174.451 24.2905,165.451 25.5,156.5C 26.5375,155.07 27.2041,153.403 27.5,151.5C 28.8897,150.101 29.8897,148.434 30.5,146.5C 31.7498,146.423 32.5831,145.756 33,144.5C 33.2593,133.475 33.7593,122.475 34.5,111.5C 34.9568,109.227 36.2901,107.894 38.5,107.5C 40.5824,107.528 42.4157,106.861 44,105.5C 44.4561,104.256 43.9561,103.423 42.5,103C 43.1667,102.667 43.8333,102.333 44.5,102C 42.9221,99.6612 43.2554,97.8278 45.5,96.5 Z"/></g>
<g><path style="opacity:1" fill="#163246" d="M 30.5,155.5 C 29.2504,158.006 28.5838,160.673 28.5,163.5C 32.4525,164.019 35.4525,162.686 37.5,159.5C 37.6495,160.552 37.4828,161.552 37,162.5C 33.7568,164.263 30.2568,164.929 26.5,164.5C 26.0541,160.64 27.3875,157.64 30.5,155.5 Z"/></g>
<g><path style="opacity:0.914" fill="#25252a" d="M 172.5,155.5 C 174.074,158.907 175.074,162.573 175.5,166.5C 175.5,169.5 175.5,172.5 175.5,175.5C 174.839,174.282 174.172,172.949 173.5,171.5C 172.817,171.863 172.15,172.196 171.5,172.5C 171.5,171.167 171.5,169.833 171.5,168.5C 169.139,168.674 166.806,169.007 164.5,169.5C 164.611,168.883 164.944,168.383 165.5,168C 168.167,167.667 170.833,167.333 173.5,167C 173.141,164.37 172.141,162.203 170.5,160.5C 170.167,160.5 169.833,160.5 169.5,160.5C 169.737,159.209 169.404,158.209 168.5,157.5C 168.526,152.179 166.526,151.179 162.5,154.5C 159.833,154.5 157.167,154.5 154.5,154.5C 156.649,153.264 158.982,152.264 161.5,151.5C 163.722,151.822 165.556,151.155 167,149.5C 168.813,151.625 170.647,153.625 172.5,155.5 Z"/></g>
<g><path style="opacity:1" fill="#abadb3" d="M 123.5,162.5 C 124.488,167.64 124.821,172.974 124.5,178.5C 125.833,178.5 127.167,178.5 128.5,178.5C 127.081,179.451 125.415,179.784 123.5,179.5C 123.5,173.833 123.5,168.167 123.5,162.5 Z"/></g>
<g><path style="opacity:1" fill="#bababf" d="M 55.5,162.5 C 57.2576,165.854 58.2576,169.521 58.5,173.5C 56.6301,170.191 55.6301,166.525 55.5,162.5 Z"/></g>
<g><path style="opacity:1" fill="#357c99" d="M 87.5,165.5 C 87.5,167.167 87.5,168.833 87.5,170.5C 88.8333,170.5 90.1667,170.5 91.5,170.5C 91.5,168.833 91.5,167.167 91.5,165.5C 92.4614,167.265 92.7947,169.265 92.5,171.5C 90.5,171.5 88.5,171.5 86.5,171.5C 86.2053,169.265 86.5386,167.265 87.5,165.5 Z"/></g>
<g><path style="opacity:1" fill="#3fbce6" d="M 87.5,165.5 C 88.8333,165.5 90.1667,165.5 91.5,165.5C 91.5,167.167 91.5,168.833 91.5,170.5C 90.1667,170.5 88.8333,170.5 87.5,170.5C 87.5,168.833 87.5,167.167 87.5,165.5 Z"/></g>
<g><path style="opacity:1" fill="#272c37" d="M 108.5,162.5 C 111.862,162.07 114.695,163.07 117,165.5C 117.467,172.52 114.3,174.853 107.5,172.5C 104.696,168.852 105.03,165.518 108.5,162.5 Z"/></g>
<g><path style="opacity:1" fill="#82becb" d="M 109.5,166.5 C 110.833,166.5 112.167,166.5 113.5,166.5C 113.5,167.833 113.5,169.167 113.5,170.5C 112.167,170.5 110.833,170.5 109.5,170.5C 109.5,169.167 109.5,167.833 109.5,166.5 Z"/></g>
<g><path style="opacity:0.098" fill="#5b6363" d="M 175.5,166.5 C 176.164,169.146 176.498,171.979 176.5,175C 176.481,178.252 175.814,181.085 174.5,183.5C 174.5,183.167 174.5,182.833 174.5,182.5C 175.468,180.393 175.802,178.059 175.5,175.5C 175.5,172.5 175.5,169.5 175.5,166.5 Z"/></g>
<g><path style="opacity:1" fill="#dfe2e5" d="M 72.5,174.5 C 73.8333,174.5 75.1667,174.5 76.5,174.5C 76.5,175.833 76.5,177.167 76.5,178.5C 75.1667,178.5 73.8333,178.5 72.5,178.5C 72.5,177.167 72.5,175.833 72.5,174.5 Z"/></g>
<g><path style="opacity:1" fill="#aaabb0" d="M 140.5,171.5 C 140.5,173.833 140.5,176.167 140.5,178.5C 141.5,178.5 142.5,178.5 143.5,178.5C 142.432,179.434 141.099,179.768 139.5,179.5C 139.194,176.615 139.527,173.948 140.5,171.5 Z"/></g>
<g><path style="opacity:0.506" fill="#505657" d="M 25.5,156.5 C 24.2905,165.451 23.6239,174.451 23.5,183.5C 22.7109,183.217 22.0442,182.717 21.5,182C 22.3115,177.829 22.3115,173.495 21.5,169C 21.8435,164.708 23.1768,160.541 25.5,156.5 Z"/></g>
<g><path style="opacity:1" fill="#b8b8bc" d="M 28.5,169.5 C 27.5233,172.287 27.19,175.287 27.5,178.5C 35.1667,178.5 42.8333,178.5 50.5,178.5C 50.2627,177.209 50.596,176.209 51.5,175.5C 51.5,176.833 51.5,178.167 51.5,179.5C 43.1667,179.5 34.8333,179.5 26.5,179.5C 26.1774,175.774 26.5108,172.107 27.5,168.5C 28.1067,168.624 28.44,168.957 28.5,169.5 Z"/></g>
<g><path style="opacity:1" fill="#a3a4a9" d="M 58.5,173.5 C 59.4614,175.265 59.7947,177.265 59.5,179.5C 57.8333,179.5 56.1667,179.5 54.5,179.5C 54.5,178.167 54.5,176.833 54.5,175.5C 55.404,176.209 55.7373,177.209 55.5,178.5C 56.5,178.5 57.5,178.5 58.5,178.5C 58.5,176.833 58.5,175.167 58.5,173.5 Z"/></g>
<g><path style="opacity:1" fill="#7a7c83" d="M 72.5,174.5 C 73.9187,173.549 75.5853,173.216 77.5,173.5C 77.5,175.5 77.5,177.5 77.5,179.5C 75.5853,179.784 73.9187,179.451 72.5,178.5C 73.8333,178.5 75.1667,178.5 76.5,178.5C 76.5,177.167 76.5,175.833 76.5,174.5C 75.1667,174.5 73.8333,174.5 72.5,174.5 Z"/></g>
<g><path style="opacity:1" fill="#b9b9be" d="M 171.5,175.5 C 172.434,176.568 172.768,177.901 172.5,179.5C 163.983,179.826 155.65,179.493 147.5,178.5C 155.5,178.5 163.5,178.5 171.5,178.5C 171.5,177.5 171.5,176.5 171.5,175.5 Z"/></g>
<g><path style="opacity:0.325" fill="#2e3436" d="M 174.5,182.5 C 174.5,182.833 174.5,183.167 174.5,183.5C 158.259,183.71 141.592,183.71 124.5,183.5C 124.764,188.074 122.764,191.241 118.5,193C 106.833,193.667 95.1667,193.667 83.5,193C 81.0268,192.78 79.3602,191.614 78.5,189.5C 79.4734,189.987 80.4734,190.487 81.5,191C 93.8333,191.667 106.167,191.667 118.5,191C 121.288,188.866 122.621,186.032 122.5,182.5C 139.833,182.5 157.167,182.5 174.5,182.5 Z"/></g>
<g><path style="opacity:1" fill="#221b20" d="M 116.5,178.5 C 117.002,186.486 113.835,188.486 107,184.5C 106.505,182.527 106.338,180.527 106.5,178.5C 109.752,174.607 113.086,174.607 116.5,178.5 Z"/></g>
<g><path style="opacity:1" fill="#a2a6ac" d="M 119.5,162.5 C 120.656,170.323 120.823,178.323 120,186.5C 119.184,187.823 118.017,188.489 116.5,188.5C 106.7,186.065 96.3667,185.065 85.5,185.5C 85.5,184.5 85.5,183.5 85.5,182.5C 88.5,181.167 91.5,181.167 94.5,182.5C 95.5,182.5 96.5,182.5 97.5,182.5C 97.7911,183.649 98.6244,184.316 100,184.5C 101.376,184.316 102.209,183.649 102.5,182.5C 103.5,182.5 104.5,182.5 105.5,182.5C 105.232,180.901 105.566,179.568 106.5,178.5C 106.338,180.527 106.505,182.527 107,184.5C 113.835,188.486 117.002,186.486 116.5,178.5C 117.161,179.718 117.828,181.051 118.5,182.5C 119.497,175.866 119.83,169.2 119.5,162.5 Z"/></g>
<g><path style="opacity:1" fill="#682b2a" d="M 109.5,179.5 C 109.222,181.346 109.889,182.68 111.5,183.5C 113.111,182.68 113.778,181.346 113.5,179.5C 115.177,183.986 113.677,185.319 109,183.5C 108.235,181.934 108.402,180.601 109.5,179.5 Z"/></g>
<g><path style="opacity:1" fill="#35373e" d="M 102.5,182.5 C 102.209,183.649 101.376,184.316 100,184.5C 98.6244,184.316 97.7911,183.649 97.5,182.5C 99.1667,181.167 100.833,181.167 102.5,182.5 Z"/></g>
<g><path style="opacity:1" fill="#12131a" d="M 94.5,182.5 C 93.6661,183.748 92.3328,184.415 90.5,184.5C 89.1667,184.167 87.8333,183.833 86.5,183.5C 89.0865,182.52 91.7531,182.187 94.5,182.5 Z"/></g>
<g><path style="opacity:1" fill="#c36345" d="M 113.5,179.5 C 113.778,181.346 113.111,182.68 111.5,183.5C 109.889,182.68 109.222,181.346 109.5,179.5C 110.833,178.167 112.167,178.167 113.5,179.5 Z"/></g>
<g><path style="opacity:1" fill="#b5bdc4" d="M 80.5,182.5 C 82.1667,182.5 83.8333,182.5 85.5,182.5C 85.5,183.5 85.5,184.5 85.5,185.5C 96.3667,185.065 106.7,186.065 116.5,188.5C 105.162,188.667 93.8284,188.5 82.5,188C 80.8446,186.556 80.178,184.722 80.5,182.5 Z"/></g>
</svg>
