<?xml version="1.0" encoding="UTF-8"?>
<svg xmlns="http://www.w3.org/2000/svg" xmlns:xlink="http://www.w3.org/1999/xlink" width="200px" height="200px" viewBox="0 0 200 200" version="1.1">
<defs>
<linearGradient id="linear0" gradientUnits="userSpaceOnUse" x1="1019.57" y1="1074.02" x2="654.07" y2="597.21" gradientTransform="matrix(0.118133,0,0,0.118133,0,0)">
<stop offset="0" style="stop-color:rgb(40.392157%,18.431373%,52.156863%);stop-opacity:1;"/>
<stop offset="1" style="stop-color:rgb(24.705882%,70.196078%,75.294118%);stop-opacity:1;"/>
</linearGradient>
<linearGradient id="linear1" gradientUnits="userSpaceOnUse" x1="846.7" y1="135.65" x2="846.7" y2="1513.72" gradientTransform="matrix(0.118133,0,0,0.118133,0,0)">
<stop offset="0" style="stop-color:rgb(25.098039%,68.627451%,74.901961%);stop-opacity:1;"/>
<stop offset="0.529412" style="stop-color:rgb(32.54902%,45.098039%,64.313725%);stop-opacity:1;"/>
<stop offset="1" style="stop-color:rgb(40.392157%,21.568627%,53.333333%);stop-opacity:1;"/>
</linearGradient>
<linearGradient id="linear2" gradientUnits="userSpaceOnUse" x1="744.74" y1="135.61" x2="744.74" y2="1513.74" gradientTransform="matrix(0.118133,0,0,0.118133,0,0)">
<stop offset="0" style="stop-color:rgb(25.098039%,69.803922%,75.294118%);stop-opacity:1;"/>
<stop offset="0.529412" style="stop-color:rgb(32.54902%,45.490196%,64.313725%);stop-opacity:1;"/>
<stop offset="1" style="stop-color:rgb(40.392157%,20.784314%,53.333333%);stop-opacity:1;"/>
</linearGradient>
<linearGradient id="linear3" gradientUnits="userSpaceOnUse" x1="846.66" y1="136.62" x2="846.66" y2="1514.72" gradientTransform="matrix(0.118133,0,0,0.118133,0,0)">
<stop offset="0" style="stop-color:rgb(25.098039%,69.803922%,75.294118%);stop-opacity:1;"/>
<stop offset="0.529412" style="stop-color:rgb(32.54902%,46.666667%,64.705882%);stop-opacity:1;"/>
<stop offset="1" style="stop-color:rgb(40.392157%,23.137255%,54.117647%);stop-opacity:1;"/>
</linearGradient>
</defs>
<g id="surface1">
<path style=" stroke:none;fill-rule:evenodd;fill:url(#linear0);" d="M 88.246094 108.210938 C 56.820312 85.410156 56.703125 138.453125 90.609375 111.988281 C 91.199219 111.515625 91.90625 110.925781 92.617188 110.453125 C 101.121094 104.191406 106.4375 97.8125 117.1875 94.625 C 132.308594 90.015625 141.523438 99.347656 142.351562 109.273438 C 143.175781 120.378906 133.960938 132.308594 117.1875 127.347656 C 112.699219 125.929688 107.617188 123.332031 102.066406 119.3125 L 102.421875 119.078125 C 104.664062 117.304688 106.910156 115.414062 109.273438 113.761719 C 139.988281 135.96875 140.933594 84.699219 108.089844 109.035156 C 104.902344 111.398438 101.710938 113.996094 98.640625 116.480469 C 96.160156 118.367188 93.914062 120.257812 91.789062 121.792969 C 87.65625 124.394531 83.757812 126.285156 80.210938 127.347656 C 64.144531 132.191406 55.285156 120.96875 55.402344 110.335938 C 55.402344 99.703125 64.265625 89.78125 80.210938 94.625 C 82.929688 95.332031 85.765625 96.632812 88.71875 98.285156 C 90.960938 96.515625 93.207031 94.625 95.332031 92.851562 C 88.125 91.433594 79.386719 91.671875 78.558594 87.65625 C 78.085938 85.765625 80.332031 82.574219 81.628906 81.511719 C 87.535156 77.023438 99.585938 74.070312 107.027344 74.070312 C 116.007812 74.070312 116.007812 78.320312 117.421875 84.347656 C 117.894531 85.171875 118.367188 86 118.722656 86.828125 C 123.09375 87.183594 129.238281 87.773438 132.191406 90.960938 L 133.84375 93.324219 C 126.164062 92.261719 135.378906 93.679688 129 92.496094 C 124.039062 91.554688 121.203125 92.96875 117.1875 92.851562 C 114.824219 92.851562 111.988281 88.953125 109.980469 85.882812 L 94.859375 85.882812 C 97.222656 86.828125 104.785156 86.238281 105.136719 91.199219 C 105.375 94.859375 92.851562 104.785156 88.953125 107.617188 C 88.71875 107.855469 88.480469 108.089844 88.246094 108.210938 Z M 124.867188 74.421875 C 124.039062 74.421875 123.332031 74.777344 122.859375 75.25 C 122.386719 75.722656 122.03125 76.433594 122.03125 77.257812 C 122.03125 77.96875 122.386719 78.675781 122.859375 79.148438 C 123.332031 79.738281 124.039062 79.976562 124.867188 79.976562 C 125.574219 79.976562 126.285156 79.738281 126.757812 79.148438 C 127.347656 78.675781 127.582031 77.96875 127.582031 77.257812 C 127.582031 76.433594 127.347656 75.722656 126.757812 75.25 C 126.285156 74.777344 125.574219 74.421875 124.867188 74.421875 Z M 118.960938 71.351562 C 117.421875 72.886719 116.480469 74.894531 116.480469 77.257812 C 116.480469 79.503906 117.421875 81.628906 118.960938 83.046875 C 120.496094 84.582031 122.503906 85.527344 124.867188 85.527344 C 127.109375 85.527344 129.238281 84.582031 130.65625 83.046875 C 132.191406 81.628906 133.136719 79.503906 133.136719 77.257812 C 133.136719 74.894531 132.191406 72.886719 130.65625 71.351562 C 129.238281 69.816406 127.109375 68.871094 124.867188 68.871094 C 122.503906 68.871094 120.496094 69.816406 118.960938 71.351562 Z M 118.960938 71.351562 "/>
<path style=" stroke:none;fill-rule:nonzero;fill:rgb(16.862745%,72.941176%,76.470588%);fill-opacity:1;" d="M 58.121094 138.214844 L 54.460938 141.878906 Z M 58.121094 138.214844 "/>
<path style=" stroke:none;fill-rule:nonzero;fill:rgb(16.862745%,72.941176%,76.470588%);fill-opacity:1;" d="M 42.644531 46.308594 L 38.984375 42.644531 Z M 42.644531 46.308594 "/>
<path style=" stroke:none;fill-rule:nonzero;fill:rgb(97.647059%,97.647059%,97.647059%);fill-opacity:1;" d="M 152.15625 155.816406 L 149.675781 153.335938 Z M 152.15625 155.816406 "/>
<path style=" stroke:none;fill-rule:nonzero;fill:rgb(97.647059%,97.647059%,97.647059%);fill-opacity:1;" d="M 146.839844 150.5 L 149.675781 153.335938 Z M 146.839844 150.5 "/>
<path style=" stroke:none;fill-rule:nonzero;fill:url(#linear1);" d="M 145.777344 156.761719 L 141.996094 153.101562 C 130.535156 162.195312 115.886719 167.75 100.058594 167.75 C 84.109375 167.75 69.582031 162.195312 58.003906 153.101562 L 54.339844 156.761719 C 66.863281 166.804688 82.691406 172.945312 100.058594 172.945312 C 117.304688 172.945312 133.253906 166.804688 145.777344 156.761719 Z M 145.777344 156.761719 "/>
<path style=" stroke:none;fill-rule:nonzero;fill:url(#linear2);" d="M 51.152344 137.859375 L 54.8125 134.199219 C 47.609375 124.746094 43.355469 112.933594 43.355469 100.175781 C 43.355469 68.871094 68.753906 43.472656 100.058594 43.472656 C 112.816406 43.472656 124.628906 47.726562 134.082031 54.933594 L 137.742188 51.269531 C 127.347656 43.117188 114.234375 38.394531 100.058594 38.394531 C 65.917969 38.394531 38.15625 66.035156 38.15625 100.175781 C 38.15625 114.351562 43 127.464844 51.152344 137.859375 Z M 51.152344 137.859375 "/>
<path style=" stroke:none;fill-rule:nonzero;fill:url(#linear3);" d="M 100.058594 16.183594 C 77.847656 16.183594 57.648438 24.808594 42.644531 38.984375 C 41.347656 40.164062 40.164062 41.347656 38.984375 42.644531 L 42.644531 46.308594 L 46.78125 50.441406 C 34.613281 63.4375 27.171875 80.921875 27.171875 100.058594 C 27.171875 121.085938 36.148438 139.988281 50.324219 153.335938 L 54.105469 149.675781 C 53.988281 149.675781 53.988281 149.675781 53.988281 149.675781 L 58.121094 145.539062 C 69.109375 155.699219 83.875 161.960938 100.058594 161.960938 C 134.082031 161.960938 161.839844 134.199219 161.839844 100.175781 C 161.839844 83.992188 155.582031 69.34375 145.421875 58.238281 L 153.21875 50.441406 C 152.035156 49.144531 150.855469 47.960938 149.554688 46.78125 C 136.5625 34.613281 119.195312 27.289062 100.058594 27.289062 C 80.921875 27.289062 63.4375 34.613281 50.441406 46.78125 L 46.308594 42.644531 C 60.367188 29.414062 79.265625 21.382812 100.058594 21.382812 C 143.414062 21.382812 178.734375 56.585938 178.734375 100.058594 C 178.734375 120.730469 170.582031 139.632812 157.472656 153.808594 L 153.335938 149.675781 C 165.386719 136.679688 172.828125 119.195312 172.828125 100.058594 C 172.828125 82.8125 166.804688 66.863281 156.644531 54.339844 L 152.980469 58.003906 C 162.195312 69.582031 167.628906 84.230469 167.628906 100.058594 C 167.628906 119.667969 159.359375 137.269531 146.011719 149.675781 L 153.808594 157.472656 C 139.632812 170.582031 120.730469 178.734375 100.058594 178.734375 C 56.585938 178.734375 21.382812 143.414062 21.382812 100.058594 C 21.382812 81.15625 27.996094 63.792969 39.21875 50.207031 L 35.441406 46.542969 C 23.390625 61.074219 16.183594 79.738281 16.183594 100.058594 C 16.183594 146.25 53.75 183.933594 100.058594 183.933594 C 122.265625 183.933594 142.351562 175.191406 157.472656 161.132812 C 158.652344 159.953125 159.953125 158.652344 161.132812 157.472656 C 175.191406 142.351562 183.933594 122.265625 183.933594 100.058594 C 183.933594 53.75 146.25 16.183594 100.058594 16.183594 Z M 100.058594 32.367188 C 117.777344 32.367188 133.84375 39.21875 145.894531 50.441406 L 138.097656 58.238281 C 139.394531 59.421875 140.578125 60.71875 141.757812 61.902344 C 150.972656 72.0625 156.644531 85.410156 156.644531 100.175781 C 156.644531 131.363281 131.246094 156.761719 100.058594 156.761719 C 85.292969 156.761719 71.824219 151.089844 61.785156 141.878906 C 60.484375 140.695312 59.300781 139.515625 58.121094 138.214844 L 54.460938 141.878906 L 50.324219 146.011719 C 39.21875 133.960938 32.367188 117.777344 32.367188 100.058594 C 32.367188 62.726562 62.726562 32.367188 100.058594 32.367188 Z M 100.058594 32.367188 "/>
</g>
</svg>
