<svg width="200" height="200" viewBox="0 0 200 200" fill="none" xmlns="http://www.w3.org/2000/svg">
<path d="M53.327 120.171C53.327 121.042 53.327 121.866 53.327 122.691C53.327 123.425 53.3317 124.155 53.3456 124.889C53.3502 125.301 53.155 125.46 52.7413 125.415C51.7187 125.301 50.7007 125.197 49.6781 125.079C49.0506 125.007 48.9111 124.848 48.8925 124.255C48.8739 123.738 48.8321 123.221 48.8461 122.709C48.86 122.138 49.1017 121.871 49.6502 121.88C51.0958 121.898 52.2207 121.291 53.155 120.276C53.1829 120.244 53.234 120.23 53.3363 120.176L53.327 120.171Z" fill="#fff"/>
<path d="M53.9217 120.385C53.9031 121.831 53.8753 123.277 53.8706 124.722C53.8706 125.303 54.1913 125.529 54.8235 125.443C55.7718 125.316 56.7154 125.171 57.6636 125.058C58.1424 124.999 58.3655 124.768 58.3609 124.306C58.3562 123.807 58.3516 123.309 58.3609 122.81C58.3655 122.121 58.2958 122.021 57.6078 121.954C56.1901 121.818 54.9444 121.36 54.0008 120.168C53.9543 120.295 53.9217 120.34 53.9217 120.385Z" fill="#fff"/>
<path d="M68.6939 107.909C68.6893 107.542 68.4196 107.547 68.1547 107.542C66.9554 107.533 65.7562 107.515 64.5523 107.502C63.855 107.497 63.5901 107.742 63.5715 108.431C63.5529 109.047 63.5808 109.663 63.5436 110.28C63.4599 111.771 63.1903 113.225 62.5303 114.589C61.9446 115.808 60.9917 116.574 59.5926 116.742C57.9842 116.937 56.534 116.538 55.2232 115.627C54.7769 115.314 54.7583 115.129 55.0884 114.671C55.609 113.946 56.1156 113.212 56.6502 112.5C56.9198 112.142 56.8687 111.893 56.5247 111.607C54.8095 110.18 52.7456 110.13 50.9281 111.499C50.4075 111.893 50.3843 112.047 50.7329 112.577C51.2396 113.348 51.7323 114.132 52.2483 114.898C52.4574 115.21 52.4388 115.437 52.1135 115.654C50.5191 116.715 48.7946 117.059 46.926 116.538C45.6059 116.175 44.402 114.68 44.3508 113.302C45.829 113.221 47.3118 113.139 48.7946 113.058L48.8039 112.935C48.6644 112.908 48.5296 112.872 48.3902 112.863C47.1584 112.763 45.9312 112.654 44.6994 112.582C44.2393 112.555 43.9929 112.373 43.9557 111.929C43.8488 110.687 43.7326 109.441 43.635 108.199C43.5931 107.637 43.5048 107.533 42.9284 107.533C41.7292 107.533 40.5253 107.533 39.326 107.533C38.6241 107.533 38.5498 107.61 38.5312 108.317C38.5033 109.55 38.4707 110.783 38.4289 112.015C38.4103 112.623 38.15 112.894 37.5969 112.967C33.2507 113.547 29.1463 114.825 25.3533 116.991C25.265 117.041 25.1906 117.118 25 117.277C25.2464 117.222 25.344 117.204 25.4416 117.177C29.3461 116.012 33.2832 114.993 37.304 114.272C38.3406 114.086 38.3824 114.114 38.6567 115.088C39.247 117.182 40.3905 118.904 42.366 119.991C44.6855 121.265 47.1909 121.673 49.8219 121.278C51.551 121.02 52.7828 120.114 53.415 118.496C53.4429 118.423 53.4847 118.355 53.5591 118.21C53.8473 118.632 54.089 118.976 54.3167 119.325C55.0279 120.417 56.0366 121.038 57.3521 121.269C58.714 121.509 60.0527 121.401 61.3961 121.219C65.4819 120.667 68.415 117.816 68.7543 113.828C68.9217 111.866 68.7218 109.872 68.6846 107.891L68.6939 107.909Z" fill="#fff"/>
<path d="M53.7268 117.525L53.4897 117.503C53.3363 116.746 53.2294 115.976 53.0202 115.232C52.8157 114.48 52.5182 113.755 52.2161 112.898C53.1922 113.275 54.094 113.243 55.0236 112.948C54.4194 114.448 53.6849 115.871 53.7221 117.525H53.7268Z" fill="#fff"/>
<path d="M51.4586 82.3494C51.1518 80.3418 50.6824 78.3568 50.2315 76.3764C49.9805 75.2707 49.6504 75.0395 48.4791 75.0078C47.4332 74.9806 46.3874 75.035 45.3415 75.0123C44.5141 74.9987 44.0539 75.3794 43.7936 76.1226C42.7106 79.2134 41.5903 82.2905 40.5119 85.3858C40.0657 86.6592 40.8094 87.4206 42.1667 87.126C42.3991 87.0761 42.6269 86.981 42.8361 86.8722C43.3846 86.5822 43.7518 86.138 43.9516 85.5534C44.198 84.8374 44.4676 84.1304 44.7279 83.4189L44.9045 83.4461C44.9371 83.6047 44.9836 83.7633 45.0022 83.922C45.2532 86.0429 45.4995 88.1592 45.7459 90.2802C45.9225 91.8029 46.0899 93.3256 46.2851 94.8483C46.4059 95.809 46.8336 96.2667 47.7307 96.3211C48.5349 96.371 49.3437 96.3664 50.1478 96.3211C50.9241 96.2803 51.3238 95.8951 51.4772 95.1564C51.5191 94.9434 51.5516 94.7304 51.5748 94.5129C52.0211 90.4524 52.0862 86.3918 51.4633 82.3494H51.4586ZM48.7719 93.67C48.7301 94.0371 48.5395 94.2591 48.1444 94.2591C47.7261 94.2591 47.6563 93.96 47.6284 93.6428C47.4797 92.1337 47.3449 90.6246 47.1822 89.12C46.9219 86.7181 46.6895 84.3117 46.3409 81.9189C46.1689 80.7225 46.6384 79.7844 47.3031 78.81C47.4286 79.798 47.5727 80.7859 47.6796 81.7739C48.0235 84.9552 48.3629 88.1366 48.6883 91.3179C48.758 91.9977 48.7626 92.682 48.7905 93.3663C48.7905 93.466 48.7905 93.5657 48.7766 93.6654L48.7719 93.67Z" fill="#fff"/>
<path d="M65.552 92.2172C64.6921 89.1673 63.8136 86.1219 62.9257 83.081C62.7026 82.3197 62.2238 81.9934 61.4104 81.9843C60.3459 81.9707 59.2815 81.9707 58.2217 81.9843C56.9062 82.0024 56.0835 82.578 55.7209 83.8061C55.4931 84.5856 55.3351 85.3923 55.2189 86.1989C54.8284 88.9362 55.0376 91.687 55.1445 94.4333C55.1584 94.746 55.2282 95.0587 55.2932 95.3669C55.4002 95.8609 55.7348 96.1917 56.2369 96.2279C57.2083 96.2914 58.1845 96.3095 59.156 96.2869C59.7742 96.2733 60.16 95.888 60.3134 95.3125C60.4389 94.8276 60.5365 94.3382 60.6341 93.8487C60.8433 92.7928 61.0385 91.7323 61.2431 90.6719H61.4197C61.6846 91.4196 61.9589 92.1674 62.2192 92.9242C62.5446 93.8714 63.5904 94.3246 64.7665 94.0164C65.5055 93.8215 65.817 93.178 65.5474 92.2218L65.552 92.2172ZM59.9276 90.6084C59.393 91.7006 59.4116 92.9016 59.3233 94.0753C59.2768 94.7506 58.984 95.0587 58.4123 95.0497C58.0915 95.0497 57.873 94.9182 57.8777 94.5829C57.9009 92.2535 58.2635 89.983 59.2489 87.8349C59.2815 87.7624 59.3419 87.7035 59.4302 87.5766C60.1647 88.551 60.4668 89.4981 59.9276 90.6084Z" fill="#fff"/>
<path d="M62.0663 100.128C63.3259 101.619 63.4607 103.436 62.5171 105.004C61.7316 106.309 60.1465 107.107 58.7148 106.876C59.8258 104.642 60.9321 102.421 62.0709 100.128H62.0663Z" fill="#fff"/>
<path d="M47.8655 98.7495C47.7632 99.393 47.3774 99.6876 46.8893 99.9187C45.5553 100.549 44.8162 101.568 44.8115 103.041C44.8115 103.159 44.8255 103.272 44.8441 103.39C44.8534 103.454 44.8859 103.512 44.951 103.712C45.4112 102.506 45.6343 101.278 46.801 100.648L46.9776 100.744C46.2572 102.18 45.5367 103.617 44.779 105.13C43.9609 103.735 43.8261 102.393 44.5327 101.015C45.2067 99.6921 46.299 98.9444 47.8701 98.7495H47.8655Z" fill="#fff"/>
<path d="M61.1175 99.3166C59.3605 98.1429 56.7063 98.6006 55.5535 100.341C54.9632 101.234 54.173 101.569 53.1225 101.51C52.6437 101.483 52.3183 101.329 52.1138 100.889C51.7326 100.087 51.0679 99.5341 50.2731 99.1399C50.1243 99.0674 49.7943 99.1399 49.6827 99.2577C49.5061 99.439 49.3806 99.7245 49.7339 99.9329C49.8268 99.9873 49.8826 100.092 50.0314 100.255C49.5293 100.178 49.1761 100.182 48.9669 100.626C48.1442 102.33 47.2935 104.016 46.4568 105.716C46.1872 106.268 46.2848 106.495 46.8612 106.717C49.2179 107.628 51.9093 106.278 52.5089 103.871C52.5926 103.531 52.6112 103.182 52.6623 102.838C52.7181 102.484 52.9086 102.299 53.2945 102.348C53.4293 102.367 53.5687 102.371 53.7035 102.367C54.5309 102.344 54.5588 102.353 54.6285 103.173C54.768 104.823 55.6511 105.96 57.1665 106.663C57.6871 106.907 57.9706 106.821 58.217 106.327C59.2629 104.247 60.2901 102.163 61.3313 100.078C61.4894 99.7562 61.4383 99.5296 61.1175 99.3166Z" fill="#fff"/>
<path d="M55.5863 103.762C54.9634 102.602 55.6095 101.038 57.004 100.1C58.18 99.3069 59.8674 99.3704 60.7598 100.331C57.6362 99.538 56.2091 101.065 55.5863 103.766V103.762Z" fill="#fff"/>
<path d="M88.8488 104.677L84.2935 114.244C84.2145 114.411 84.0425 114.516 83.8519 114.516H81.7695C81.5789 114.516 81.4023 114.407 81.3279 114.235L73.3747 96.7643C73.2306 96.4516 73.4676 96.0981 73.8163 96.0981H78.6877C78.8875 96.0981 79.0688 96.2205 79.1386 96.4018L82.9362 106.055L86.9523 96.3972C87.0267 96.2205 87.2033 96.1027 87.4032 96.1027H90.2805C90.4804 96.1027 90.657 96.2205 90.7314 96.3972L94.715 106.055L98.494 96.4063C98.5638 96.225 98.745 96.1027 98.9449 96.1027H103.835C104.184 96.1027 104.421 96.4562 104.277 96.7689L96.3558 114.239C96.2768 114.411 96.1048 114.52 95.9142 114.52H93.7667C93.5761 114.52 93.4042 114.411 93.3251 114.244L88.8442 104.681L88.8488 104.677Z" fill="#fff"/>
<path d="M123.716 109.471V112.145C121.49 113.727 118.733 114.52 115.451 114.52C112.17 114.52 109.585 113.668 107.638 111.964C105.685 110.26 104.714 107.998 104.714 105.189C104.714 102.379 105.63 100.163 107.461 98.3864C109.292 96.6099 111.631 95.7217 114.471 95.7217C117.311 95.7217 119.663 96.6552 121.49 98.5269C123.316 100.399 124.083 102.651 124.065 105.574C124.065 105.832 123.842 106.041 123.577 106.041H110.743C110.859 107.681 111.459 108.941 112.528 109.825C113.597 110.709 115.042 111.153 116.846 111.153C118.803 111.153 120.843 110.464 122.968 109.082C123.288 108.873 123.716 109.1 123.716 109.476V109.471ZM110.854 103.05H118.905C118.589 100.421 117.25 99.107 114.88 99.107C112.509 99.107 111.142 100.421 110.854 103.05Z" fill="#fff"/>
<path d="M144.875 98.3239C143.192 96.5882 141.016 95.7181 138.348 95.7181C136.703 95.7181 135.108 96.1758 133.579 97.0958V87.4248H133.147L127.746 93.3162V113.7C127.746 113.963 127.964 114.172 128.229 114.172H133.091C133.361 114.172 133.575 113.959 133.575 113.7V112.794C135.201 113.945 136.926 114.521 138.757 114.521C141.286 114.521 143.355 113.637 144.968 111.874C146.585 110.116 147.394 107.845 147.394 105.076C147.394 102.307 146.557 100.064 144.87 98.3284L144.875 98.3239ZM140.301 109.182C139.506 110.197 138.418 110.705 137.028 110.705C135.903 110.705 134.755 110.193 133.575 109.173V100.789C133.7 100.699 133.821 100.613 133.946 100.535C134.997 99.8647 136.001 99.5249 136.949 99.5249C138.311 99.5249 139.408 100.001 140.236 100.952C141.068 101.904 141.486 103.246 141.486 104.981C141.486 106.717 141.086 108.172 140.296 109.182H140.301Z" fill="#fff"/>
<path d="M156.728 96.5739V113.7C156.728 113.963 156.509 114.171 156.244 114.171H151.382C151.113 114.171 150.899 113.958 150.899 113.7V96.5739C150.899 96.311 151.117 96.1025 151.382 96.1025H156.244C156.514 96.1025 156.728 96.3155 156.728 96.5739Z" fill="#fff"/>
<path d="M174.99 96.5733V99.5145C174.99 99.7774 174.772 99.9858 174.507 99.9858H168.237V107.432C168.237 108.324 168.488 109.031 168.994 109.548C169.496 110.065 170.193 110.323 171.086 110.323C172.095 110.323 173.168 110.078 174.316 109.584C174.637 109.448 174.995 109.675 174.995 110.015V113.387C173.136 114.139 171.337 114.515 169.594 114.515C167.316 114.515 165.55 113.939 164.295 112.793C163.04 111.646 162.412 109.96 162.412 107.74V99.9858H159.763V98.8755L167.521 90.4146H168.246V96.102H174.516C174.786 96.102 175 96.315 175 96.5733H174.99Z" fill="#fff"/>
<path d="M156.263 87.4482H151.354C151.098 87.4482 150.889 87.6511 150.889 87.9014V92.6871C150.889 92.9374 151.098 93.1403 151.354 93.1403H156.263C156.52 93.1403 156.728 92.9374 156.728 92.6871V87.9014C156.728 87.6511 156.52 87.4482 156.263 87.4482Z" fill="#fff"/>
<path d="M83.7782 119.353H81.0125C80.5384 119.353 80.2781 119.615 80.2781 120.087V125.461H81.5517V123.051H84.0014L84.0478 122.964C84.0664 122.933 84.0943 122.869 84.1269 122.77C84.164 122.665 84.1826 122.552 84.1826 122.425C84.1826 122.035 83.9502 121.809 83.5505 121.809H81.5517V120.594H84.2245L84.271 120.513C84.2896 120.481 84.3174 120.413 84.35 120.313C84.3872 120.209 84.4058 120.096 84.4058 119.969C84.4058 119.579 84.1733 119.353 83.7736 119.353H83.7782Z" fill="#fff"/>
<path d="M100.177 124.623C100.061 124.333 99.9263 124.002 99.7729 123.626C99.6195 123.249 99.4522 122.855 99.2756 122.434C99.0989 122.017 98.9223 121.613 98.7503 121.224C98.5783 120.839 98.4203 120.49 98.2715 120.177C98.1228 119.86 98.0019 119.624 97.9043 119.465L97.8764 119.434C97.8764 119.434 97.8346 119.402 97.7742 119.37C97.7323 119.348 97.6812 119.325 97.6208 119.302C97.5603 119.275 97.486 119.252 97.4023 119.234C97.0816 119.162 96.7701 119.221 96.547 119.361C96.389 119.465 96.2495 119.642 96.1333 119.896C95.9242 120.345 95.715 120.807 95.5058 121.283C95.2966 121.754 95.0921 122.221 94.8969 122.683C94.7017 123.141 94.5111 123.589 94.3344 124.024C94.1531 124.459 93.9905 124.867 93.8464 125.248L93.7627 125.466H95.1572L95.1944 125.357C95.2594 125.185 95.3385 124.967 95.4407 124.704C95.529 124.473 95.6313 124.224 95.7382 123.952H98.411C98.4482 124.038 98.4854 124.133 98.5272 124.237C98.583 124.382 98.6388 124.527 98.6945 124.668L98.8479 125.067C98.8944 125.194 98.9316 125.293 98.9641 125.361L99.006 125.461H100.493L100.414 125.244C100.368 125.121 100.289 124.913 100.173 124.618L100.177 124.623ZM97.9462 122.742H96.2402C96.3007 122.592 96.3611 122.443 96.4262 122.289C96.5238 122.058 96.6214 121.831 96.719 121.613C96.8166 121.391 96.9096 121.183 97.0026 120.984C97.0397 120.907 97.0723 120.834 97.1048 120.766C97.1234 120.807 97.142 120.848 97.1652 120.897C97.2536 121.092 97.3465 121.31 97.4488 121.546C97.551 121.786 97.6533 122.03 97.7556 122.28C97.8253 122.443 97.8857 122.601 97.9462 122.746V122.742Z" fill="#fff"/>
<path d="M113.997 124.011C113.885 124.083 113.704 124.16 113.458 124.246C113.216 124.328 112.918 124.373 112.575 124.373C112.286 124.373 112.017 124.332 111.77 124.246C111.529 124.165 111.315 124.042 111.138 123.879C110.962 123.721 110.817 123.517 110.715 123.277C110.613 123.036 110.557 122.751 110.557 122.434C110.557 122.116 110.608 121.831 110.706 121.586C110.804 121.341 110.938 121.128 111.11 120.956C111.278 120.784 111.478 120.653 111.71 120.566C112.105 120.412 112.607 120.394 112.993 120.489C113.156 120.53 113.304 120.58 113.43 120.634C113.555 120.693 113.667 120.752 113.76 120.82C113.853 120.888 113.923 120.947 113.974 121.002L114.057 121.092L114.169 121.038C114.215 121.015 114.266 120.979 114.322 120.929C114.373 120.884 114.429 120.829 114.476 120.77C114.527 120.707 114.569 120.634 114.61 120.557C114.652 120.467 114.671 120.376 114.671 120.281C114.671 120.186 114.634 120.072 114.559 119.946C114.485 119.819 114.364 119.701 114.187 119.588C114.02 119.479 113.792 119.388 113.509 119.316C113.23 119.243 112.872 119.211 112.444 119.211C111.993 119.211 111.566 119.284 111.166 119.429C110.766 119.574 110.413 119.787 110.111 120.063C109.809 120.34 109.567 120.684 109.395 121.083C109.223 121.482 109.135 121.944 109.135 122.447C109.135 122.95 109.228 123.417 109.404 123.811C109.586 124.21 109.832 124.545 110.139 124.813C110.446 125.08 110.804 125.284 111.203 125.42C111.603 125.556 112.026 125.629 112.472 125.629C112.774 125.629 113.049 125.606 113.29 125.565C113.527 125.524 113.741 125.474 113.918 125.416C114.099 125.357 114.248 125.293 114.369 125.225C114.49 125.162 114.638 125.058 114.638 125.058L114.764 124.971L114.141 123.929L113.997 124.024V124.011Z" fill="#fff"/>
<path d="M129.001 119.353H123.967L123.921 119.43C123.902 119.461 123.87 119.529 123.828 119.629C123.786 119.733 123.763 119.851 123.763 119.978C123.763 120.368 124.009 120.594 124.437 120.594H126.003V125.461H127.365V120.594H129.462L129.513 120.535C129.55 120.49 129.582 120.422 129.624 120.313C129.661 120.209 129.68 120.091 129.68 119.969C129.68 119.579 129.434 119.353 129.006 119.353H129.001Z" fill="#fff"/>
<path d="M143.885 120.118C143.583 119.833 143.23 119.606 142.83 119.443C142.026 119.117 141.008 119.117 140.204 119.443C139.804 119.606 139.446 119.833 139.148 120.118C138.846 120.404 138.609 120.748 138.442 121.138C138.27 121.528 138.186 121.954 138.186 122.407C138.186 122.86 138.27 123.286 138.442 123.676C138.609 124.065 138.851 124.405 139.148 124.695C139.446 124.981 139.804 125.207 140.204 125.371C140.603 125.534 141.045 125.615 141.519 125.615C141.993 125.615 142.43 125.534 142.835 125.371C143.234 125.207 143.592 124.981 143.89 124.695C144.187 124.41 144.429 124.065 144.596 123.676C144.764 123.286 144.852 122.86 144.852 122.407C144.852 121.954 144.768 121.528 144.596 121.138C144.429 120.748 144.187 120.408 143.89 120.118H143.885ZM143.434 122.407C143.434 122.692 143.383 122.96 143.285 123.2C143.188 123.44 143.048 123.649 142.881 123.821C142.714 123.993 142.509 124.129 142.277 124.229C141.812 124.423 141.208 124.423 140.747 124.229C140.515 124.129 140.311 123.993 140.139 123.821C139.967 123.649 139.832 123.44 139.739 123.204C139.641 122.964 139.595 122.697 139.595 122.411C139.595 122.126 139.641 121.854 139.739 121.614C139.832 121.374 139.967 121.165 140.139 120.993C140.311 120.821 140.515 120.685 140.747 120.59C140.98 120.494 141.24 120.445 141.514 120.445C141.789 120.445 142.049 120.494 142.281 120.59C142.514 120.685 142.718 120.821 142.886 120.993C143.053 121.165 143.188 121.374 143.29 121.618C143.388 121.858 143.439 122.126 143.439 122.416L143.434 122.407Z" fill="#fff"/>
<path d="M158.629 124.636C158.518 124.428 158.397 124.215 158.276 124.006C158.155 123.793 158.03 123.59 157.904 123.39C157.816 123.25 157.727 123.118 157.644 122.996C157.932 122.846 158.169 122.651 158.346 122.411C158.564 122.121 158.676 121.75 158.676 121.31C158.676 120.68 158.425 120.177 157.937 119.805C157.458 119.447 156.742 119.266 155.803 119.266C155.352 119.266 154.999 119.275 154.757 119.298C154.506 119.32 154.348 119.339 154.251 119.357C154.092 119.388 153.953 119.456 153.841 119.552C153.711 119.66 153.646 119.833 153.646 120.059V125.461H154.98V123.322C155.041 123.327 155.106 123.331 155.185 123.34C155.45 123.363 155.724 123.372 156.077 123.354C156.152 123.354 156.226 123.345 156.296 123.336C156.365 123.431 156.445 123.558 156.537 123.707C156.658 123.907 156.779 124.111 156.9 124.328C157.021 124.546 157.132 124.75 157.235 124.94C157.337 125.13 157.411 125.275 157.458 125.371L157.504 125.461H159.075L158.95 125.226C158.852 125.04 158.745 124.84 158.634 124.632L158.629 124.636ZM157.225 120.984C157.267 121.088 157.29 121.201 157.29 121.319C157.29 121.45 157.267 121.568 157.221 121.673C157.179 121.772 157.105 121.858 157.002 121.931C156.891 122.008 156.737 122.071 156.547 122.117C156.352 122.162 156.101 122.189 155.803 122.189C155.529 122.189 155.315 122.18 155.171 122.167C155.097 122.157 155.036 122.148 154.98 122.144V120.476C155.022 120.476 155.069 120.467 155.124 120.463C155.273 120.453 155.492 120.444 155.775 120.444C156.087 120.444 156.347 120.472 156.551 120.521C156.747 120.571 156.9 120.639 157.007 120.721C157.109 120.798 157.184 120.889 157.225 120.984Z" fill="#fff"/>
<path d="M174.053 119.611C174.03 119.588 173.983 119.552 173.83 119.461C173.7 119.389 173.542 119.353 173.356 119.353C173.137 119.353 172.961 119.407 172.835 119.511C172.728 119.602 172.635 119.701 172.561 119.815L172.212 120.345C172.082 120.54 171.947 120.739 171.808 120.948C171.668 121.152 171.524 121.356 171.375 121.56C171.273 121.7 171.176 121.836 171.078 121.963C170.971 121.822 170.85 121.668 170.72 121.496C170.534 121.251 170.353 121.002 170.172 120.753C169.99 120.504 169.823 120.268 169.665 120.05C169.511 119.833 169.391 119.661 169.302 119.529L169.256 119.479L169.07 119.407C168.977 119.371 168.865 119.353 168.726 119.353C168.54 119.353 168.387 119.402 168.27 119.507C168.15 119.611 168.084 119.76 168.084 119.933C168.084 120.082 168.145 120.245 168.256 120.422C168.354 120.572 168.461 120.721 168.563 120.862C168.656 120.993 168.777 121.156 168.93 121.36C169.079 121.56 169.242 121.773 169.419 121.995L169.934 122.656C170.093 122.856 170.232 123.032 170.362 123.182V125.461H171.724V123.177C171.836 123.028 171.961 122.865 172.101 122.683C172.249 122.484 172.407 122.276 172.565 122.058C172.723 121.841 172.882 121.618 173.04 121.396C173.198 121.174 173.342 120.961 173.476 120.762C173.611 120.563 173.732 120.377 173.839 120.209C173.946 120.037 174.025 119.901 174.081 119.797L174.132 119.692L174.048 119.611H174.053Z" fill="#fff"/>
</svg>
