<?xml version="1.0" encoding="UTF-8"?>
<svg xmlns="http://www.w3.org/2000/svg" xmlns:xlink="http://www.w3.org/1999/xlink" width="200px" height="200px" viewBox="0 0 200 200" version="1.1">
<g id="surface1">
<path style=" stroke:none;fill-rule:nonzero;fill:rgb(35.294118%,33.333333%,39.215686%);fill-opacity:1;" d="M 163.078125 41.972656 L 157.585938 47.464844 C 184.746094 77.167969 184.746094 122.6875 157.585938 152.390625 L 163.078125 157.878906 C 193.296875 125.105469 193.296875 74.621094 163.078125 41.84375 Z M 163.078125 41.972656 "/>
<path style=" stroke:none;fill-rule:nonzero;fill:rgb(35.294118%,33.333333%,39.215686%);fill-opacity:1;" d="M 47.59375 42.449219 C 77.292969 15.289062 122.816406 15.289062 152.515625 42.449219 L 158.007812 36.957031 C 125.230469 6.738281 74.75 6.738281 41.972656 36.957031 Z M 47.59375 42.449219 "/>
<path style=" stroke:none;fill-rule:nonzero;fill:rgb(35.294118%,33.333333%,39.215686%);fill-opacity:1;" d="M 42.449219 152.445312 C 15.324219 122.75 15.324219 77.269531 42.449219 47.574219 L 36.957031 42.082031 C 6.738281 74.859375 6.738281 125.339844 36.957031 158.117188 Z M 42.449219 152.445312 "/>
<path style=" stroke:none;fill-rule:nonzero;fill:rgb(35.294118%,33.333333%,39.215686%);fill-opacity:1;" d="M 152.445312 157.515625 C 122.742188 184.675781 77.222656 184.675781 47.519531 157.515625 L 42.027344 163.003906 C 74.804688 193.222656 125.285156 193.222656 158.0625 163.003906 Z M 152.445312 157.515625 "/>
<path style=" stroke:none;fill-rule:nonzero;fill:rgb(94.117647%,57.254902%,25.882353%);fill-opacity:1;" d="M 134.667969 81.675781 C 133.570312 70.21875 123.6875 66.375 111.183594 65.203125 L 111.183594 49.421875 L 101.519531 49.421875 L 101.519531 64.910156 C 98.976562 64.910156 96.375 64.910156 93.792969 64.910156 L 93.792969 49.421875 L 84.203125 49.421875 L 84.203125 65.3125 L 64.597656 65.3125 L 64.597656 75.65625 C 64.597656 75.65625 71.738281 75.527344 71.628906 75.65625 C 74.304688 75.359375 76.730469 77.238281 77.117188 79.902344 L 77.117188 123.394531 C 77.0625 124.308594 76.640625 125.160156 75.949219 125.753906 C 75.265625 126.363281 74.367188 126.667969 73.457031 126.597656 C 73.585938 126.707031 66.429688 126.597656 66.429688 126.597656 L 64.597656 138.148438 L 84.019531 138.148438 L 84.019531 154.292969 L 93.683594 154.292969 L 93.683594 138.386719 L 101.410156 138.386719 L 101.410156 154.21875 L 111.09375 154.21875 L 111.09375 138.257812 C 127.421875 137.269531 138.804688 133.242188 140.234375 117.957031 C 141.386719 105.65625 135.601562 100.164062 126.359375 97.949219 C 131.980469 95.1875 135.457031 90.058594 134.667969 81.675781 Z M 121.125 116.054688 C 121.125 128.0625 100.550781 126.6875 93.996094 126.6875 L 93.996094 105.382812 C 100.550781 105.398438 121.125 103.515625 121.125 116.054688 Z M 116.640625 86.035156 C 116.640625 97.015625 99.46875 95.679688 94.015625 95.679688 L 94.015625 76.3125 C 99.46875 76.3125 116.640625 74.59375 116.640625 86.035156 Z M 116.640625 86.035156 "/>
<path style=" stroke:none;fill-rule:nonzero;fill:rgb(15.686275%,12.941176%,21.960784%);fill-opacity:1;" d="M 99.980469 200 C 44.757812 199.988281 -0.00390625 155.21875 0 99.992188 C 0.00390625 44.769531 44.769531 0.00390625 99.992188 0 C 155.21875 -0.00390625 199.988281 44.757812 200 99.980469 C 200.011719 155.222656 155.222656 200.011719 99.980469 200 Z M 99.980469 7.796875 C 49.105469 7.839844 7.886719 49.105469 7.90625 99.980469 C 7.929688 150.859375 49.175781 192.09375 100.054688 192.09375 C 150.933594 192.09375 192.183594 150.859375 192.203125 99.980469 C 192.210938 75.523438 182.496094 52.066406 165.199219 34.773438 C 147.902344 17.484375 124.441406 7.777344 99.980469 7.796875 Z M 99.980469 7.796875 "/>
</g>
</svg>
