<svg xmlns="http://www.w3.org/2000/svg" width="200" height="200" viewBox="0 0 200 200"><path d="M12.9,170c57.4-.8,116.5-.7,174.8,0Z" style="fill:#b0b4bf"/><path d="M132.8,169.9c-4-5,.3-19.2,3.5-24.9-25,4.1-15.5.8-19.8,23.6-.1,2.3-3.5.9-5,1.3.2-6.7,1.8-13.5,1.5-20.3-6.8-1.3-2.7,15.9-4.2,20.3-3.1-4,.4-13.2-.8-18.8-.7,2.5.5,22.8-2,17.3,1.7-19-.8-8.8-14.4-13.6-1.9-.1-5-3.1-6.2-2-.9,5.6-1.5,11.6-3.1,17.1-.6,0-1.4.1-1.1-.8,1.6-7.1,3-14.4,3-21.7-1.9,6.8-.1,17.6-4.7,22.5.6-7.8,4.4-16.6,2.9-24.4-4.8-9-1.2,19.8-3.9,23.5-.7,2.7-2.5-1.6-3.7.3s-.8-5.2-1.2-6.6c.3-33.1,2.8-17.6-19.5-33.8,1.8-.5-2-3.5.6-2.9,6,10.6,22.2,8.6,28.9,18.7,5-4.3-14.4-17.9-13.8-24,5.2,5.7,11.4,13.1,15.5,20.3,1.1,2.1,0,4.8,2.4,6,5.3,3,12,4.4,18,2.9,1.7-1.3.7-4,2.7-5.3A41.6,41.6,0,0,0,98,150.2c-3.8-4.8-11.2-7.4-13-13.6-1.2-3.8-2.6-8.1-1.1-12.1,1.4-2.1,1.3,1.2,1,2.2s.2,1.3,1,.7c6.8-2.2-3.1-5.6-3.7-9.1.6,3.2-2.1-.6-2.4-1.8s-2.3.2-3.4.1c-13.1,5.2-6-1,1.7-1.7a13.7,13.7,0,0,1-3.4-5.5c.3,7.7-2.7-3.7-2.3-6-.6,1.1-.9,1.8-1.5,2.7-1.9-2.8-.4-6.1.6-8.8a10,10,0,0,1-2.4,2.2c.2-2.1,1.6-3.8,2.6-5.6-5.4,1.1,1.3-2.4.5-4.6s.2-3,.9-.5c0-2.9,3.1-6,1.5-8.4,2.2-2,1.8,2.1,1.2,3.3,2.5-.7.3,6.5,1.9,8.2,1.9.2.7,2,1,3.3s2.1-1.2,1.9,2.1c.6-.7,2.6-1,2.2-2.1.6-3.7,6-2.9,8.6-4.3.6-.4-.7-1.4-.7-2s.8-3.7-.5-4.1c-11.6,0-7.5-17.3.2-20.4s13,13.9,6,17.2c8.1,3.1-6.5-2.3-4.6,6.4.8,3,4.6,5.9,7.5,4.2.7-.3-.5-.8.1-1.3s5.8.4,2.6,1.4c8.7,1.3,10.4,3.2,14.9,10.4.6.5.7-1.3,1.5-.4s.4-3.4,3.2-.9c-.3-1.5.2-3.4,1.8-1.7s.6-4.4,2.6-2.3c-.3-2.6,1.4-4.8,1.7-7.4a7.2,7.2,0,0,0-.1-5,5.4,5.4,0,0,0-.6-3.3c-.8-1.4,1.1-1.1,1-2.1-1-2.8,1.2-1.5.8-2.6s.5-1,.1-1.9.2-4.7-2-6.6,2.2-.6.6-3.6c0-.4,0-.8.5-.8s-1.1-2-1.5-2.7-.6-.6-.2-1.1-1.2-1-1.6-1.6-.4-.8.2-1.2c2.2-1.1-1-1.9-1.9-2.5s-.7-1.3-1.6-1.2-.9-.2-.8-.8-3.8.8-2.9-1c-.8.1-2.5,1-2.3-.5s-1,.2-1.3-.1-.6-.3-.9-.2-1.3-.9-2.3-.7c-3.1,1.8-6.1-.9-8.8,2.7-2.2,1.6.3-3.1-.8-2.8-3.6-.2-6.7,2.5-10.2,2.2a3.6,3.6,0,0,0-3.3,1.6,12.9,12.9,0,0,0-2.4,4c-.3.2-.6.4-.3.9s-.7,1.3-1,2-1.2-.4-1.7.3-1.8-.5-.7-1.2,2.5-3.3,3.8-5.1c-9.6,5.6,4.5-8,10-5.9-4.1-.5-9.9-2.3-12.3-5.7,5.1,1.9,11,3.1,16.6,4.6-3.7-2.1-9-2.8-11.3-6.4,2.7.6,5.4,2.8,8.4,3.2,1,0,2,1.4,2.8.8s1.5.4,2-.1c-1.8-4.8,2-1.4,3.6.4-.8-3.8-4.3-6.6-6-9.5,3.7.5,6.1,4.7,8.1,7.6-1.6-7.7.7-4.1,2.1.8.8-5.9-3.5-10.5-7.1-14.5,3.2-1.6,8,6.2,9.2,9.5.4-7.2,1.9,3.6,1.7,5.6.6-1.1,0-6.2,1.4-2.4.6-5.5,1.6-5.6,1.5-.1,1.1-15.5,3.5-1.9,1.7,4.1,2.6-3.5,5-6.4,2.4.1,2-2.2,5.7-7.2,2.7-.8,2.5-2.4,3.2-6.5,4.8-9.1,1,4.1-2.1,8.6-4.3,12,5.6-1.8,5.8-8.6,7.1-13,1.4,3.2,0,7.8-1.6,11,7.1-7.1,0,5.3-3.7,5.7,4.7.2,8.1-3.3,11.2-6,.5,1.1-1.5,2.3-1.3,3.1,3.1.6-3.7,3.1-4.8,3.3,6.8.2,6.3,1.8-.1,2.3,8.1,2.7.8,3.1-2.5.3,2.6,2.3,6.1,3.5,8.7,5.5-3,.4-5.9-1.9-8.2-3.6,1.2,3.2,11.8,11.3,1.7,5.3,1,3.1,3.6,6.6-.7,2.3-.2,1.8,1.8,3.4,2.5,4.8-.9.3-2-1.4-2.6-1.7a48.5,48.5,0,0,1,6.2,15.5c1.1-.6.9-6.3,2.3-1.7.1,2,2.1-.4,2.8,1.4s1,0,1.4-.5,3,3.1,2.7,4.6h0c-1.2.9-1-2.7-2.1-3.3-1.7,1.6-.5,10.4-1.9,10.3-.6-2.4.1-4.9.4-7.2-1.2-6.9-10-.3-9,4.3,1.5-1.8,7.6-8.5,8.3-3.6-3.3-1.4,3,8.2-4.7,12.7-3,.5,2-2.1,2.1-3.3s2.9-8.8-.8-8.5c-1.8.4.3,1.4,0,2.5s-1.3-1.9-2.1-.8,2,2.4,1.9,4.2-1.2-1-1.8-.9-1.2,4.1-.3,4.2.9.2.6.8-2-.5-3-.3-.9,1.5-2.4,0c-1.4,8.8,7.8,3.5,10-1,.1-.4,1.1-.8.9-.1-1.9,4.6-7,8.1-10.7,7.1.6,2.6,4.4,6.3-.9,2.8-.4,1.3,3.4,4.9.9,4.3-.5-.2-1.7-1.6-1.7-.6s-5.1,9.9-4.1,3.5c-3.7,7.1-2.3.9-3.9,2.7-5.7,2.1-7.5,9.7-.7,11.4.2-.8-1.6-4,.2-2.3s1.1,6.2-.7,9c11.3-7.4,15.9-6.9,1.6.8-3.8,2.7-13.8,7.2-11.9,12.4,7.6-3.7,16.1-2.8,24.1-4.8,5.1-1.8,12-2.5,15.3-7.1.6-.4.9-.3,1,.4-3.7,8.1-12.3,1.8-14.9,14.7,3.1-5.5-.4,3.8-.9,5.4C132.4,161.6,133.2,165.9,132.8,169.9Z" style="fill:#030205"/><path d="M14.3,169.9c-5.6-3.4-8.4-15.8-6.3-22.4-.1-3.1-2.8-5.1.3-8.2.8-1-.5-1.8-.8-2.7-2.7-3.8-.6-5.9,1.1-9.1C6.1,124.1,4.7,119,6.1,115c1.5-2.5-.7-6,1.7-7.9s.7-7.5,4.7-9.2c.7-.2.7-.2.7.5-2.5,1.5-1.7,4.5-2.8,6.9s-3.2,2.8-2.7,5.1-2.3,5.9-.8,8.9c-.1,4.2,2.8,11,8,8.7-5.5-.2-4.4-1.5.2-.8,2,0,13.3-2.5,5.4.8,10.6-2.4.6-12.1-9.1-4.5-1.5.9-.6-.7-.2-1.3s-1.9-.1-2-.9c3.9-.4,8-2.4,12.2-2,1.5-.2,2.8,1.6,4,.7,2.9-4.8-4.6-6.4-8.1-6-1.4,0-11.6,1.7-6.1-.3.4-1.6,1.2-.3,2.5-.7,4.2-.8,9.2-.9,12.7,1.9,1.9.5,2.3-3.5.7-5.1-4.1-6.3-18-1-14.7-3.2.6-.3-.4-.5-.4-1a68.5,68.5,0,0,0,7.5-.8c.8,0,.4-.4.6-1,2.1,1.2,4.7,2.2,6.9,3.6,4,0,3.1-7.6-.8-8.6-.3-2.8,3.8.8,4.2,2.1,2.2,3.2-1.2,6.1-1.3,9,1.9,3.1-1.2,5.3-1.5,8.1s-2,3-1.5,4.8c1,11.9-11.3,4-12.2,7.8,1.4,2.8,4.4,2.3,6.7,2.9-.9,1.8-4.6-.2-5.4.8.8,6.4,16.9-2.5,14.4-7.4-3.3,6.8.5-7.4,2.6-8.2.3-.2.6.1.3.5-2.2,3,1.8,2,1.4,4.2-4.9-2.7-1.7.9-2,3.4-.7,10-23.1,16.6-22.4,3.9,2.5-4.7-4.4,1.1-1.6,4.2.9,3,6.3,6.5,3.5,9.6-1.7.7,0-1.2-.1-1.9-2.3,3-2.5.8-1.5-1.6.1-.9-.8-1.2-1.1-.3-3.1,7.9,10.1,10.6,15.8,9.9s9.3-4.8,11.9-9.1c.2-.7,1.1-.5,1.4.2s-1,2-1.6,2.8C19.7,166.5-3,128.2,14.3,169.9Z" style="fill:#050204"/><path d="M144.6,87.9c-1.9-8.8-2.6-2-4.3-3.9s-3,1.2-2.9-2.1-1,1.7-1.7,2.4-.9-.1-.8-.5c-.2-5.3-3.3-9.7-5.3-14.3,1.7.7,2.4,3.1,3.9,4.1-.6-3.4,5.2,3.7,5.8,4.5-.2-3.1-2.1-5.7-3.4-8.3,2.1.2,3.5,2.9,5.1,4.3-.4-2.9-3.1-4.6-4.1-6.8,1.8,0,3.2,2,4.6,3.1-.7-4.4-6.2-5.3-7.6-8.7,2.6,1.1,5.5,3.5,8.6,3.6-.9-.9-2-1.7-3-2.6-3-2.1,5.3-.1,4.4-2s.6-1.2.7-.4,1.9,2.3.8,3.1-.3.3,0,.6-1.3,1.7-.6,2.2,9,1.8,3.1,2.8c-.8.1.4.8-.1,1.3,2.6.9,5.1-.9,6.5-2.6-7.9-3.2-2-2.1-2.4-4.2-4.2-2.5,1.2-.6,2.6-.1-.7,1-2,1.3-2.9,2.2.9,1.3,4.8.7,4.4,2-2.7,4.5-9.2,2.6-6,6.1.4.7,1.2,1.6-.6,1.4s-.2.4-.2.6c.6,2.4,1.6,4.1,4.1,5-2,1.6-4.8,1.1-7,.2A9.6,9.6,0,0,1,144.6,87.9Z" style="fill:#090814"/><path d="M187.7,169.9h-1.5c2.4-4,5.5-8.2,4-13.3.2,1.8-4.6,6.7-4.5,3.9a6.5,6.5,0,0,0,3.3-6.8c-1.2.7-.2,2.5-1.1,3.1-1.4-1.6-.5.7-1.4,1.1-2.2-3.9,4.5-7.3,6.4-10.2.7-.8.6-3.9-.7-3.2.3,3.6-3.2,4.1-6.1,3.8-7.1.4-20.6-11.3-13.2-16.3.7,1.1,2.4,9.1,0,4.4-1.8,4.1,12.2,14.2,14.8,9-3.2-1.8-10.1.4-8.9-5.9a3.5,3.5,0,0,0-.6-3.1,4.6,4.6,0,0,1-.7-4.5c.2-1.8-2-3.1-1.9-5.2s2-3.6,0-5.5c-2.8-7.1,2.6-7.3,6-10.6.1-2.9,1.3-5.8.8-8.8-.2-1-1.9-6,0-4.4,2,4.4.8,8.8.3,13.3-.1.7.2.8.8.7,4-.6,9.4,1,11.4,4.1s-.4,5.7,1.8,7.9a2.9,2.9,0,0,1,.7,2.8c-1.4,3.1,1.5,6.4-.6,9.1a2,2,0,0,0-.6,1.5c1,2.9-2.6,4.2-2.4,6.5s1.2,4.2-1.2,6.4C187.7,154.9,195.7,161.7,187.7,169.9Z" style="fill:#070205"/><path d="M137.8,40.6c2.6-1.6,5.5-3.3,8.7-2.1-3.7,1.2-8.7,14.9-6.2,4.5-12.2,7.9-.8-5.3-4.8-10.6-4.4,9.4-.3-4.8-7.8-11.2A131.4,131.4,0,0,1,123.5,35c-.8-5.9-9.5-7.8-7.3-14.3-2,1.9-3.5,4.4-3.3,7.2s-2.2-.4-2.1-1.6c-.3.4.3,3.9-1.2,2-1.4-5.4-7.4-6.3-10.8-9.8-1.7,3.6,4.5,13.9,1.2,6-1-3.4,2.1-2.2,3.2-.4-.7.5-2.1-1.1-2.1.2,3.9,11.8-3.7,3-7.3-.1,3.6,8.5-2.9.5-6.8-.1.4.6,2.8,2,1.2,2.3s-3.2-3.2-4.5-2.8c.7,2.6-1.9-.2-2.2-1.3,4.1-.3,8.1,1.6,11.6,3.6-.4-7.9,3.1,1,6.5,2-1.3-3-3.3-9.2-.9-10.9,3,3.8,8.4,4.3,10.9,8.6.4.5.4.3.6-.1,1.4-2.7,1.5-.8,1.6,1.2.1-2.3,4.4-9.5,5.9-6.7-3.3,5.8,3.5,7.3,5.6,11.5,1.5-4,3.3-8.2,3.9-12.4,3.3,3.5,6.2,8.2,7,13,3.2-4.8,3.7,7.1,2.5,9Z" style="fill:#350412"/><path d="M82.4,61.2c.4-.9,1.1,0,1.7-.3-1.5,8.2-3.2,17-7.3,24.3.4-1-.9-1.6-.5-2.3s-.3-3-.2-4.6,1.4.8,1.7,1.4c1.1-1.3-.7-3.7-1.9-2.3-2.5,3-2.1,7.3-3.3,10.8l-.2-.8h-.2v1.9c-.7-3.9,1-8,2.2-11.7-1-2.1-.3-4.1.4-6.2-1.3,0-3.4,2.7-4,1.2s2-4.4.7-.8c.7-1.2,2.1-1.4,2.6-2.6C75,65.4,80.8,64.9,82.4,61.2Z" style="fill:#110510"/><path d="M146.1,141.1c4.7-1.1,6.1,8.7,11.5,8.6,2.9,1.8,4.1-6,5.1-8.1s3.5-1.1,3.8-3c.2-3.6.8-7.4,4.8-8.4a.8.8,0,0,1,.3.9c-5.9,1.8-2.1,9.3-5.7,12.4-.7.1-.9,0-1.2-.7s1.8-.8,1.5-1.8c-2.7-.3-3.1,2.7-2.4,4.8s-.4,3.5-1.3.6c-2.1,3.5-2.6,7.7-4,11.3-1.7-1.7-.4-3.8.2-5.8-2.5.7-8,14.2-7.1,8.8-.4-.9,1.1-2.5-.1-2.3s2.3-1,2.3-2.3c-3.9,2.3-4.6,1.7-.9-1.2,1.1-.5,5.4-2.8,3.9-4s-6.2,1.6-6,0,3.4-.7,1.8-2.3-3.3-5.6-6-6.1C145.9,142.6,146.3,141.5,146.1,141.1Z" style="fill:#4e031a"/><path d="M37.7,141.7c-2.4-1.6,2.4-5.9-2-7.9-.3,1.5,1.6,1.9,1.5,3.3-4.3-.3-2.4-6.5-2.5-9.4s1.3,2.4,1,3.2c.8,3,4.6,3.8,3,8.2a84,84,0,0,0,15.4-10.2c-.2.5.7,1-.1,1.4-3.4,2.1-5.6,5.6-9.4,7.1,1.2.7,3.5.9,2.6,2.9-2-.9-4.4-2.6-6.7-1.3s3.5,2.8,3.1,5.4-1.5-1-2.8-1.3c.6,2.2,1.2,4.2.2,6.4-1.2-2.5-1-6.3-2.4-9C38.2,140.9,38.3,141.7,37.7,141.7Z" style="fill:#4d041a"/><path d="M84.6,53.9c-1.1,1-4,3.1-.5,2.1-1.2,5.4-16.3,10.4-6.7,2.5-2.8,1.2-2.5-1.8-.4-2.5-.9-.7-3.1,1.3-3-.1s-3.8,1.7-3-.3C74.9,52.9,80.3,55.3,84.6,53.9Z" style="fill:#110510"/><path d="M32.6,118.9c-3.1,1.7,1.4-5.3,1.6-7,1.1-4.1-1.4-8.1-1.4-12.2-1.9-5,7.8-20.5-1.2-19.7-3.5,1.3-3,7.5-6,7.8C31.3,72.2,38.8,78,35,92.1,31.4,101.2,39.3,110.5,32.6,118.9Z" style="fill:#5d071e"/><path d="M139.5,47.1c2.2-1.8,2.5-6.4,5.1-7.1a10.3,10.3,0,0,0-2.6,4.5c4.3-2.2,9.2-3,13.6-1.3-2.4,1.6-2.7,4.7-4.8,6.6s.5.9,1.1,1.4l-.9,1.1c1.8,1,5.3-.2,6.3.8s-7.3,12.4-8,8.6c2.1-.9,9.1-7.4,3-5.6.4-1.1,2.2-1.3,3-2.3-2.8-.2-5.2-1-7.8-.1.1-1.2.6-1.1-1-1.4s1.4-.8,1.9-.8,1.3.8,1.9,0-2.4-.4-1.3-1.3,3.2-4.4,4.8-6.6a15.7,15.7,0,0,0-13.6,3.8C139.7,48.1,138.5,47.6,139.5,47.1Z" style="fill:#2d0510"/><path d="M72.2,55c-.2.5-1.6.3-.9,1.4s-1.4,1.1-2.3,1.1c.5-2.7.7-4.8,2.7-7.1a14.6,14.6,0,0,0-3.8,2.9c-.7-4.4,7.3-8,5.4-8.6s.7-1.2,1.3-1.3l-.5-.3c2.6.2,4.5,1.2.2,1.1.9.6,5.9.9,4.4,2.3-3.3-1.4-6.7.8-8.7,3.3a9.6,9.6,0,0,1,8.5-3.4c0,.8-1.6.9-1,2-2.7,1.5-7.1,3-7.2,7.2C71,55.9,71.9,53.3,72.2,55Z" style="fill:#350412"/><path d="M73.9,43c-9.2-.4,2.2-6.3,6.3-5.4.8-2.4-1.4-6.9.6-9.9.8.7.9,2,1.8,2.7.5-1.8.2-3.9.5-5.8,2.2,2-.7,5.9,1.5,8.3-.8-4,2.5,3.1.3,1.8l-1.3-1c-1.8-1.7-1,1.2-1.6,2-1.4-1.6.5-4.2-.8-5.8a12.7,12.7,0,0,0,1.7,9.3c.9.9-.7,1.8-1.3.7-2.3-3.1-8.5-.1-9.7,1.6C72.9,41.9,75.2,41.5,73.9,43Z" style="fill:#350412"/><path d="M54.5,125.9a1.8,1.8,0,0,0-.7.5c-1.3-3.4.8-7.3,3.1-9.9,1.8-7.3,8.2-12.1,15.9-9.8.6,2.4-3.2.3-4.6.7-8.3-.2-12.4,10.1-8,16.6-2.4,1.1-2.6-4-3.4-5.4C54.9,120.2,54.5,123.6,54.5,125.9Z" style="fill:#53051c"/><path d="M73.9,55.7c1.1-.3-.5.8.4.7s-.6.7-.6,1.2c3.6-2.2.3,2.2,3.3.7.3-.1.6-.3.9,0s-4,2.9-3.5,4.2c.5-.5,1.6-.3,2.1-.2s-2.1.3-2.4.9c2.2.9-2.3,2.8-2.9,4,6.6-2.2,2.4,1,.5,3.6V70l-.5.2c2.6-3.9-6.3.8,2-6.2-2-.4-1.8-1.6-.9-3S72,57.2,73.9,55.7Z" style="fill:#29050e"/><path d="M171.6,131.1c-4.4-11.8,3.5-17.2,2.2-28.1,4.1,9.5-5.7,16.3-.9,29.5-.3-.9-1.1-.9-.9.1S171.6,131.6,171.6,131.1Z" style="fill:#370616"/><path d="M35.3,127.1c-.9,2.5-.7,5.6-.4,8.3s2.8,1.1,2,2.7c-4,.3-2.8-5.5-3-8.3-.5.7-.4,1.4-.8,1.9s-1.2,1.3-2,1.7,2.2-4.7,1.9-6.5-1.4-2.9-1.8-4.5c1.1-1.4,2.4,1.7,2.8.4A21.3,21.3,0,0,1,35.3,127.1Z" style="fill:#f7406d"/><path d="M127.8,112.7c0-.5.5-.4.7-.6-1.4-.7.8-.6,1.5-.3s.7.6,1,0c7.9,1.3,16.7,5.9,16.6,15-.5-.2-.2-.7-.5-1s.1,1.2-.5,1.1C146.4,117,136.1,113.4,127.8,112.7Z" style="fill:#5f0620"/><path d="M146.7,127l.5-2.3c1.1,4.5,3.6,8.1,2,12.8-.2-.4-.4-.7-.9-.2.1-2.5.3-5.1-.6-7.6s-6.1,8.3-9.2,7.4C141.4,134.1,145.2,131.1,146.7,127Z" style="fill:#3c0518"/><path d="M174.2,103.7c-1.3-2.2.3,2.6-.2,3.2-.9-4-.6-8-.3-12,2.9-7.6,9.4-.4,9.4,4.9-.4-.9-.4-2.1-1.2-2.7-1.1.9-1.2-2.2-2-2.7C173.5,89.2,174.6,100.2,174.2,103.7Z" style="fill:#620822"/><path d="M73.9,43c1.8-3.2,9.6,5.4,13.3,5,.8-.1,2.2.9.8,1s-7,1.2-3.3-.5C81.1,46.4,77.9,44,73.9,43Z" style="fill:#030205"/><path d="M26.4,97.8c0,.3-.4.6-.1,1a15.9,15.9,0,0,0-12.5-.2c-.9.4-.5-.9-1.3-.7,7.4-3.6,13.2,1,13.1-2.2.6.5-.6,2,.6,1.9S26.5,97.6,26.4,97.8Z" style="fill:#500a19"/><path d="M26.1,97.7c-.4.4-1-.2-.7-.6.8-3-1.6-7.6.8-9.7C26.4,90.5,26.9,94.4,26.1,97.7Z" style="fill:#050204"/><path d="M140.3,98.7c-.2-.3.9-.7,0-1s-.5-3.8.3-5c.1.7-.2,1.5.3,2.4.4-2.2-.1-4.5.8-6.4C140.6,92,142.2,95.7,140.3,98.7Z" style="fill:#090814"/><path d="M135.6,30.8c-1.2.1-.9,1.4-1.4,2.1-.3-1.2-.4-2.2-.6-3.3C133.9,30.7,134.7,30.8,135.6,30.8Z" style="fill:#ea426b"/><path d="M123.7,30.3l-.3,2-.7-1.8Z" style="fill:#e23b64"/><path d="M137.8,40.6l-1.5,1.2c.2-.8.4-1.3.6-1.9S137.2,40.7,137.8,40.6Z" style="fill:#e55c7d"/><path d="M143.5,86.5c.6.4,0,2,1.1,1.4C143.9,89.7,143.7,87.3,143.5,86.5Z" style="fill:#090814"/><path d="M70.8,71.2c.3.6-.6,1.7.7,1.9C70.3,74,70.7,71.9,70.8,71.2Z" style="fill:#29050e"/><path d="M8.8,149c1.4-2.6,11.8,7.1,21.6.7-1.7,3.6-6,6.9-10.2,7.1,3.5,2.8,12.8-8.6,11.3-5.2-3.8,5-10.7,11.5.7,10.1,1.5-.4,3-1.4,4.7-1.1s1.3,1.4,1.5.4c2.9-5.3,2.8,0,2,2.5.4-.7.4-2.9,1.3-3.5.8,1.6-.8,3.7-1.1,5.4s.7,1.2,1.2.5c3.2-4.7,1.3-10.6.4-15.6,4.9-1.3.5,21.7,4.3,17.5.8-.9,1.3-6.1,1.6-1.7.1-1.4-.7-5,1.5-4.3.5.2.6.7.2,1s-.5,5.4.9,5.8.9-1.3,1.8-1.4,1.3-2.5.9-3.7c-5.7-13.6-2.1-12.1.9-.1-.4-5.1,1.3,1,2.7,1.6s1.4-5.9,1.8-3.2-1,6.4-3.9,8.1H16C11.3,164.1,10.6,155.9,8.8,149Z" style="fill:#0f1a39"/><path d="M73.9,146.8c-.4,7.6.5,15.6-.4,23.1H61.6c-2.6-7.6,3.9-16.8,1.2-24.2.6-1.6-.4-7.5,1.2-7.3C67.3,141.2,70.8,143.8,73.9,146.8Z" style="fill:#173865"/><path d="M135.5,146.9c-5.3,9-5.7,26.2-19.5,23C119,148,114.9,154.4,135.5,146.9Z" style="fill:#1e3f6a"/><path d="M186.3,161.1c2.4-.9,3.3-2.9,4-5.6.5,18.5-18.5,14-31.3,14.4-2.2-2.8,3-6.4,5.4-6s3.4,1.4,3.2-.7C163.9,138.3,165.2,167.9,186.3,161.1Z" style="fill:#0f1937"/><path d="M91.6,154.6c2.4,1,5.2,1,7.4,1.6-.7.9-2.9,0-3.8-.1,13.1,1.2,9.6,1,7.7,13.8-4.2-1.2-14.5,2.7-15.1-2.3S85.6,154.8,91.6,154.6Z" style="fill:#716d7c"/><path d="M154.5,154.1c-2.1,1.1-3.4,3-5,4.5-7,3.5-7.6,13.7-16.7,11.3-.7-6.8,0-13.5,3-19.7-1.1,1-1.3,2.1-2,2.9.8-2.4,2.3-5.5,4.6-6.4-1.4,3.8-4.1,8.2-3.4,12.5.4-.8,3.6-5.6,2.6-2.5C128.5,179.1,152.3,146.5,154.5,154.1Z" style="fill:#10193a"/><path d="M91.6,154.6c-.1.5-.6.5-.9.5-4.8,1.1-1.8,10.8-2.5,14.8H82.3c1-5.9,2.2-11.8,3-17.7C86.6,151.7,89.6,154.3,91.6,154.6Z" style="fill:#38354c"/><path d="M124.4,169.9c4-5.5,6-12,8.9-18-1.2,5.9-2.2,11.9-1.4,18Z" style="fill:#0d1a3b"/><path d="M139.5,169.9c3-4.7,6.6-12,12.8-11.7a91.8,91.8,0,0,0-3.2,11.7c-7.1,1.3-.9-5.3.4-8.9C145,162.7,143.8,169.2,139.5,169.9Z" style="fill:#2a3a65"/><path d="M113,156.5c-.2,4.5-1,8.9-1.5,13.4h-2.7c.5-4.9-2.4-12.6,3.6-14.6C113.2,154.8,113.1,156.1,113,156.5Z" style="fill:#1f3e6b"/><path d="M63.4,140.2c.5,2.1-5.1,36.8-6.1,28.2-.8,1.1-1.4,1.7-2.4,1.5,7.6-8.1,2.5-20.5.6-29.6,3.4,3.6,3.8,10.2,4.4,15.1,1.1-5.7,3.4-11.6,2.4-17.5C63.1,136.1,63.5,139.5,63.4,140.2Z" style="fill:#030306"/><path d="M58.3,169.9c1.6-8.1,3.1-16.2,4.7-24.2,2.6,7.8-3.2,16.1-1.4,24.2Z" style="fill:#141a39"/><path d="M102.9,169.9c1.1-14,5.6-11.5-8.3-13.9,1.6,0,3,.6,4.3.2l-.3-.2c13.3-1.1,6,2.7,7.8,13.9Z" style="fill:#353248"/><path d="M8.8,149c2.2,6.8,2.7,14.7,7.2,20.9C10.6,167.9,7.2,154.6,8.8,149Z" style="fill:#352b5c"/><path d="M140.9,169.9c2.5-3.4,5-7.5,9-9.2a86.8,86.8,0,0,0-4.5,9.2Z" style="fill:#0e1635"/><path d="M183.1,169.9a65.7,65.7,0,0,0,7.6-11.3C190.9,163.2,188.4,170.6,183.1,169.9Z" style="fill:#2e2c56"/><path d="M80.3,169.9c4.8-31.1,6.2-28.6,1,0Z" style="fill:#203b64"/><path d="M156.4,169.9c-1.2-.4-4.2.7-4.4-.7.7-3,1.3-7.8,4.2-9.3C156,163.4,154.6,166.3,156.4,169.9Z" style="fill:#101739"/><path d="M156.4,169.9c-1.9-2.9-1.2-5.9-.4-8.8.5.5,1.3-.6,1.5.2C156.9,163.7,159.5,169.4,156.4,169.9Z" style="fill:#2a3462"/><path d="M107.2,169.9c.3-24.6,1.7-25.1.8,0Z" style="fill:#23416b"/><path d="M157.4,169.9c.6-1.9-1.6-16.2,1.1-12.3-.1,4.1-.3,8.2.5,12.3Z" style="fill:#06050f"/><path d="M149.1,169.9a32.9,32.9,0,0,1,2.5-9.8c.5,1.7-.2,3.7-.5,5.5S151.9,170.5,149.1,169.9Z" style="fill:#060510"/><path d="M150.6,169.9c.1-2.1-.1-6.1,2.9-5.8a28.6,28.6,0,0,0-1.3,5.8Z" style="fill:#2a3969"/><path d="M80.3,165.9c-.2,1.3-.5,2.6-.8,4H78C78.7,168.6,78.2,165.2,80.3,165.9Z" style="fill:#102042"/><path d="M74.3,169.8a1.4,1.4,0,0,1,2.8,0Z" style="fill:#6f6c7b"/><path d="M139.5,47.1c0,.2-.4.3-.1.6s-.8.6-.9,1.2c1.8-.3,8.6-3.9,7.1.4s-16,6.9-5.6,2.2c-4.3.7-12.5,4.1-3.9-1.3-3.4.7.2-1.6.3-3-3.1,3.7-6.9,6.2-12.5,6.1a11.9,11.9,0,0,0,8-8.4c-1.3.7-2,2.7-3.4,2.9,1.8-3.5,3.1-7.6,2.1-11.4-.7,4.9-1.8,12-7.6,13.2,2.5-3.6,5.1-7.7,4.9-12.4-1.4,3.6-2.5,7.4-5.4,9.9.3-1.4,1.2-2.5,1.6-3.9a49,49,0,0,1-4.5,4.9,20.1,20.1,0,0,0,1.8-5.2,48.2,48.2,0,0,1-3.7,4.7c.6-4,1.3-8-.4-12.4a38.9,38.9,0,0,1-1.2,8.7,12.9,12.9,0,0,0-.5-5.1c-.4,1.8-.4,7.4-1.7,3a8.3,8.3,0,0,1-.6,4.4c-.7-2.9-.2-6.2-1.4-9.2-.1,1.4.4,2.3-.2,3.4,0-3.9-13-15.5-7.4-8.1a4.2,4.2,0,0,1-2.5-2c.8-1.6-.5-2.9-.7-4.4s-.5-3.2,1.4-2,1.3.1,1.7.5c3.2,3,6.6,5.7,9.4,9-.6-2.5-.8-5.8,1.2-7.4,1.5,1.2,2,3.8,3.4,5.3s.6.7,1.2.5c2.2.2,2.9,3.6,4.3,4.9,1.3-3.2,2.9-6.5,4.4-9.7,3.8,1.8,3.9,8.4,4.4,12.4,2.6-2.8,2.5.6,2.6,2.6-2.6,6,3,2.2,5.5.4A17.9,17.9,0,0,1,139.5,47.1Z" style="fill:#1d1a2e"/><path d="M128,77.7c1.1,5.1-2.2.6-.2,5.5,0,2.5,1.8,7.1-1.2,8.3-1.3.1-2.4,2-2.7-.3,1.2,4-4.1,4.6-6.9,4.1s-1.6,5.3.2,6.5.2,1.1.1,1.8c-3.5-4.7-5.8-10.2-12.5-10.5-.3-1.9,1.2-4.4-.8-6.1.6.7,1.2,2.3.5,3s-2.1-1.8-3.6-1.1c-3.4,1.2-12.6-1.2-7.3-5.2.6-.4.8.4,1,.8,1.4,2,2.5-.2,3.7-.9s.4-.5.3-.8-2-.8-2.9-1c4.1-1.8,5.2-7,5.1-11,.1-.8-.7-3.1.6-2.9s1.4.7,2.1.6,3.1-3.3,5.2-4.2-5.9,10.8-3.8,13.4c.7.3,1.2-1.1,1.8-.3-2.7,12.3,5.5,14,15.2,11.5-4-.4.6-1.6,2-.2-.6-.7-3.4-.3-2.5-1.6,2.5-3,1.5-7.1,2.7-10.3s-5.3-9.8-3.5-10.3c2.1,1,2.8,3.3,4.4,4.8.2-2.4-1.9-5,.7-6.7.5-.5-.4-4.2.9-2.4s1.6,3.5,1.2,4.8-1,0-1.2.5,1.9,2.1,2.1,3.6S129.1,75.8,128,77.7Z" style="fill:#a44647"/><path d="M94.5,139c-3.8-1.3-14.3-10.1-5.9-11.1.5.5-.4,1.4-.3,2.1,1.8-.8,1.3-3,1.1-4.6l1.4,1.3-.8-3.6c7.1,3.5,5.1,12.1,10,3.1a10.9,10.9,0,0,1,.1,1.8c1.2-.6,1.8-1.7,2.8-2.7.1,4.2,2.8-1,3.9-2.4-1.5,6.9,3.6-.7,5-3.2.1,1.2-.7,1.8-.7,2.8s2.2-1,3.3-1.4c0,2.9-1.2,8.6,2.5,9.6.7-.5-1.1-1.1-.7-1.7,8.3,1.7-2.2,8-6,9.6-.4-2.5,1.1-5.2,1-7.9-4.8,4.7-13.1,7.4-17.9,1.2C93.9,134.2,95.1,136.7,94.5,139Z" style="fill:#4f1128"/><path d="M74.4,103.9c.9-1.5,1.8-2.8,1.8-4.5-1.5.6-1.9,2.3-2.9,3.3.7-1.9,1.3-3.8,2-5.8-1.8.1-2.3,2-3.3,3.1-.5-1.9,4.1-5.8,5.8-6.6a16.7,16.7,0,0,1-1.4,5.3c3.5-3.9,3.1-.1.8,2.4,1.3-.6,1.6-1.7,2.7-2.2s-.6.8-.5,1.5c1.1-.9,1.9-2.3,3.1-2.9.2,1.2-1.5,3.6,1.7,1.9a15.1,15.1,0,0,0-3,6.1c.7-.5,1.2-1.1,2-1.1a14.7,14.7,0,0,1-1.5,3.1c1-.4,1-.4,1.3,2.2l2.4-1.8c0,1.1-1.1,2.8.6,2.9.1,0,.2.3.3.4s.2,1.7,1.3,1.8c.1,1.9,1.8-.1,2.5.7-1.9,3,.5.7,2,.1l-.3,1.5c.9-.7,1.5-1.4,2.4-2s-.1,1.7.4,2.4l1.2-1.9c.8.5.5,1.8,1.1,2.1s.4-1.3.3-2.1l2.3,2.5c.4-1-.4-1.6-.3-2.5a10.4,10.4,0,0,1,3.3,2.3,7.9,7.9,0,0,1-.5-2.2,9.6,9.6,0,0,1,2.6,1.7c-.8-2.3,1.6-3.3,2.4-4.9s2.4,1.7,2.7,3.3c.6-2-.9-7.6,1.6-4.2.2-.3,0-.9.7-.8s-.3-2.1.5-2.6,1.3-.6,1.7-1.4c2.2-1.8,2.5,9.1,0,6.2.7,1.4-.4,5.1-1.7,2.4,0,1.1-.7.8-1,0-1.6,5.3-2.2,7.4-3.5.6-.2,1.2,0,2.4-.8,3.4h0c-2,1.3-1.8,4.1-3.7.6-.1-.1-.2-.3-.3-.1s-.7-.2-1.2-.3-.9,3-2,2.2-.4,0-.5.1c-2.1,3-1-2-1.6-3.3-.1.5-.3,1-.8,1.1s-.8,2.3-1.9,2.1c-1.7,1.3-2.1-2-2.8-3.1-.8,3.2-1.4,1.6-2-.5-.7.9-1.5,3.1-1.7.6l-.6.6c-.2-.6.3-1,.3-1.7-2.1,2-1-.6-1.7-.8s-.7,1.4-1.3,2.2a27.4,27.4,0,0,1-.9-3.9,12.9,12.9,0,0,0-.9,1.6c-.8-.9.2-2.6-.3-3.3-3.4,2.1-1.7-1.7-3.1-4-.6.4-.4,1.2-.8,1.7-1.2-1.5-.4-4.3,2.2-7.4-1.5,1.3-1.9,1.1-1-.9-1.5,1.9-1.8,3.5-2.5,5.1-.4-1-.1-1.9-.3-2.9-1.3,2.1-.8,4.2-1.3,6.6C76.3,107.6,75,105.7,74.4,103.9Z" style="fill:#1a1e37"/><path d="M151.6,153.3c-5.9,4.2-21.9,21.4-14,2.3a27.9,27.9,0,0,1-2.8,4.2c-.5-4.7,1.4-9,3.5-13-.8-.2-2,2.9-3.6,3.7-.3-5.8,14.4-11.5,7.5-4.5,2-.3,3.2,1.9,4.7,3s-4.7,4.6-5.9,6.3C144,154,148.4,151.2,151.6,153.3Z" style="fill:#224070"/><path d="M142.1,133.8a19.6,19.6,0,0,1-3.9,3.5A14.7,14.7,0,0,0,144,133c10.3,5-25.6,12.5-20.6,8.8-5.4,1.7-11.1,2.9-14.7,7.4-3-2.3,3-5.2,4.7-6.7,8-2.2,17.7-4.3,24.2-10.3,1.7-1.2,2.8-3.1,4.4-4.3A4.2,4.2,0,0,1,142.1,133.8Z" style="fill:#3f3f5b"/><path d="M143.2,61.6a31.1,31.1,0,0,1-4.3.3c1.3,1.4,2.9,2.4,4.2,3.7a19.3,19.3,0,0,1-9.5-4.2c2.5,3.8,7.5,4.5,8.1,9.4-1.6-1.3-2.7-2.7-5.2-3.7,2.3,2.3,4.5,4.5,4.7,7.3-1.9-1.6-3.2-3.6-5.5-4.9,2.1,2.9,3.9,5.7,3.6,9-1.7-1.8-3.2-4.6-5.9-5.7-.1.6.6.8.7,1.3-2.3-1.6-3.8-4-5.5-6.1h.1l2.9,2.4c-2.3-2-4.2-8.3,0-2.9-2.8-6.5-2.4-4,2.7-2.3a20.9,20.9,0,0,1-6.3-7.6c2.6,1.9,5,3.7,8.7,4-10.3-5.1-7.3-4.3,1.4-2.5C139.2,59.2,146.3,60.4,143.2,61.6Z" style="fill:#1d1a2e"/><path d="M107.6,36.6c2,2.6,2.3,5.7,2,8.8a28.3,28.3,0,0,0-2.8-6.2c2.8,12.4-2-1.9-7.9-3,3.1,3.3,5.8,6.1,6.7,10.3-5.7-6.9-17.8-8.2-19.9-17.9A41.7,41.7,0,0,0,101,34.7C95.7,25.3,106.5,37.5,107.6,36.6Z" style="fill:#1d1a2e"/><path d="M107.2,117.6a27.9,27.9,0,0,0,.7-4c1.2,1.2.8,3.4,1.3,4.9,1.3-1.4,1.8-3.6,2.2-5.8l.8,1.9v-1.8c1.9,3.7,2.3-.3,1.7-2.2,2.9,3.5,1.9-4.9.8-5.8a23,23,0,0,0-1.5,2.3c0,.3-.3-.5-.7-.5a3.5,3.5,0,0,0,0,3c-1.7-1-.5.6-1.1.7s-1.1-2.2-1.6-1.3c-.1-1.5.9-.1,1.5-.4s-.3-2.6.6-3.7-.5-1.2.1-1.5.6,2.2,1.5,1.9.8-4.7,2.6-2c-1.2,2.7,2,5.3,2,9.3.9-1.2.7-3.6,2.2-3.7s.4-.2.4-.4c.4-5.7,1.5-1.4.8,1.3.6-8.1,1.6-1.8,1.9,1.9.7-.9-.7-4.3.9-3.2,1.2-1.1-.7-4.5.5-4.3s1.1,1.4,1.9,2.2c.4-1.5-.6-2.9-.3-4.2a1.7,1.7,0,0,1,1.4,1.7c-.7-.2-.4.4-.4.6.9,3-.3,6.4-1.5,9.2-.6-1.7.1-3.7-.5-5.3-.1,2.4-1.5,4.3-2.5,6.4-.6-1.9-6.5,4.8-8.6,4.6-.1-1.1.8-2.1.5-3.1a9.1,9.1,0,0,0-1.8,2.1c-1.1-7.4-1.6,3.2-4.6,4.2C107.9,121.2,108.9,117.9,107.2,117.6Z" style="fill:#070917"/><path d="M108.7,149.2c3.5-5.2,9.9-5.9,15.5-7.9l-1.7,1.6c8.8-1.4,18.6-2.1,24.3-8.5C152.1,146.3,115.5,144.5,108.7,149.2Z" style="fill:#24233b"/><path d="M143.2,61.6c3.7-1.3-12.5-3.8-13.6-4.1s-1.9-1.1-2.4-1.9c2.4.6,4.3,3.1,7.1,1.9-7.8-3-3.8-1.6,1-3-1.7-1.4-3.7-.6-5.6-1,.6-.6,1.6-.5,2.4-.8,2.3.6,5.9-1.3,8.6-1.5-1.2,1.5-3.3,1.6-4.8,2.6,5.8.7,10.4-6.5,10.5-4.2s-1.3,1.7-.7,2.5,1.2.4,2.1,1c-2.8,2.6-11.9,2.3-16.1,2.7,15.7,5.7,32.5-7.5,16.6,7.4,7.5.7-.1,2.8-2.9,2.4.9-1.5-1.4-1.6-.3-2.2s.6-.7.2-1.1-.4-2.5-1.4-2.1C144.7,60.9,144.3,61.7,143.2,61.6Z" style="fill:#110916"/><path d="M108,145.1a12.3,12.3,0,0,0-1.2,3.7c-4.3,4.5-13.9.9-19-1.6a3.5,3.5,0,0,1-2.1-3.5c-1.3-8.1-9.5-13.3-13.5-20.2,1.9-2.8,3.8-6.3,7.2-7.5-.1.1-.2.1-.3-.1s1.4,2.4,2.4,3.1a11.8,11.8,0,0,0-.6,5.6c-2.8.1-5.4-4.9-2.5-7.1-8.6,4.7,1.9,12.8,5.6,17.1,2.6,6.2,6.8,14.6,14.2,15.2C101.4,148.4,104.7,145.8,108,145.1Z" style="fill:#403752"/><path d="M59.3,124.2c1.2-.7,1.3.6,2.1,1.2-.2-1.3-1.8-5.5.7-2.6,4.5,5.7,9.6,11.1,15.7,15,1.3,1,4.5,2.7,3.8,4.6-5.1-6.8-29.2-8-25.4-18.3,2,1.5,3.7,3.5,6.4,4.3C61.7,126.9,59.7,126,59.3,124.2Z" style="fill:#292941"/><path d="M94,82c-4,2.6-7.1-3-9.4-5.5s1.3-4.9,2.8-6.6c6.8-6.5,13.2,4.9,8.5,10.2C96.7,69.8,86.7,79.5,94,82Z" style="fill:#d0cfdc"/><path d="M63.4,140.2c-.3-.9.1-2-.8-2.7.7,6.5-1.3,12.9-2.8,19.1a38.9,38.9,0,0,0-4.7-17.4c2.7.4,3.5,5.9,4.7,8.3s.8-8.8,1.2-10.6-3.2-3.1-2.5-5.1c6.5,5.4,17.8,4.1,15.4,15-3.5-2.8-6.9-5.7-10.4-8.4C63.5,139,63.4,139.6,63.4,140.2Z" style="fill:#131b3e"/><path d="M88.5,48.4c-4.2-.5-9.9-3.8-12-6,2.5-3.7,6.2.2,9.7.5-1.6-2.2-4.8-4.3-4.2-7.3.2-.8-.3-3.5,1.3-2.4s2,1.2,2.8,2c1.4,3,4.4,5.2,6.1,7.8-1.6.1-3.7-1.6-5.2-2.5,3.3,4.5,9.1,5.1,13.5,7.9-5.7-1.3-11.8-2.5-17.3-4.9a20.8,20.8,0,0,0,8.3,4.7C91.2,49,89,49,88.5,48.4Z" style="fill:#211a2f"/><path d="M94.5,139c0-2.6-.8-5.1-1.7-8.1,4.9,7.3,13.6,4.4,18.7-.7C112.7,140.6,102.7,142.6,94.5,139Z" style="fill:#7d2f3d"/><path d="M91.6,43.1l.5-.2c-4.5-4.4-8.8-10-8.2-16.6-.2-.6-1.4-2.5-.1-1.7,3.3,11.1,10.8,13.1,19.1,19.3a2.9,2.9,0,0,1-1.7-.9c.4,1.2.6,2,.9,3s-2.3-1.1-2.2.3C97.3,45.1,94.1,44.7,91.6,43.1Z" style="fill:#0b0816"/><path d="M85.7,28.6c-.7-1.6-1.8-3.2-2.2-5,2.1.7,3.5,2.9,5.4,4-.2-.5-.8-.7-.7-1.3s.5-.2.3-.6c2.2,1.2,4.5,2.9,7.1,3.7-.2-.4-.8-.6-.8-1.1s-1.7-2.6-1.1-4.2c3.4,5.3,12.7,6.7,13.8,13.3-2.5-1.8-4.8-4.9-7.9-6,0,1.1,2.4,3.1,1.4,3.6C95.7,33.4,90.1,32.3,85.7,28.6Z" style="fill:#521531"/><path d="M72.9,126.7c2.3,3.6,7.4,7.3,8.6,10.7-7.5-5.9-16.6-10.9-19.9-20.5-1.4-2.3,1.3-7.5,3.5-3.9A27.7,27.7,0,0,0,72.9,126.7Z" style="fill:#847586"/><path d="M88.9,118.2c.9-.5.7-1.7,1.6-2.3s.2,2,1,2.7a11.5,11.5,0,0,1,1-2.3c.5,1.4.8,3,2,4s.1-.9.5-.9,1.1,0,1.6-1.1,1.5-1.1,1.3-2.3c1.2,2.3-1,7.1,2.1,3.5,1.8,1.1,1.1-3.4,2.8-1.2l.2-.8c1.8,1.4,2.2,4.1,3,.2.5.6.8-.3,1.2-.1-.3,2-1.9,7.3-3.6,7-.3-2.9-1.1-.5-1.9.3-.4-.9.1-2.1.1-3.1s-2.4,4.4-3.5,4.7c-.3-2.2-.6-1.4-1.3-.2s-.5-2.7-1.9-1.1c-2-.7-2.5-4.1-3.9-5.7-.7.9-.2,1.9.1,3A8.1,8.1,0,0,1,88.9,118.2Z" style="fill:#070917"/><path d="M117.8,119.1c1.1-.7,5.2-3.9,3.1-.6,5.3.7,9,4.8,12.2,8.7-1.7,2.7-5.3,3.5-7.8,5.3,1-1.9,3.7-2.7,4.8-4.7s-1.4-4.9-3.8-3.8c1.6,4.2-3.7,9.8-7.6,12.2C121.8,131,124.1,122.6,117.8,119.1Z" style="fill:#44405c"/><path d="M85.5,83.2c1.3,1.6,4.9.7,5.6,2s0,4.7-2.1,6.8c-1.4-.3-7.3,1.6-5.6,3.2-.5,1.3-2.1,1.7-3.1,2.5-1.3-3.3,5.1-6.4,3.1-8.8-6.5-.9-5.3-8.2-1.5-5.2-3.3,1.9,1.1,4,1.9,1.9s-.8-.4-.9-.9-.7-.8-1-1.2S84.7,82.7,85.5,83.2Z" style="fill:#b0484a"/><path d="M99.3,147.9c-2.6,2.5-7.7-8.6-10.2-10.4,5.5,2.9,15.6,6.8,24.5.5C110.6,142.1,103.4,144,99.3,147.9Z" style="fill:#746d7f"/><path d="M80.1,45.4c1.6,1.2,3.5,2.2,5.1,3.3-.5.3-1.1.3-1.7.6,2,.1,4.2-.9,5.8.5-1.4,2.7-7.4.9-10.4,1.2,1.6,1.6,4.5,1.5,6,2.6C81,56,76.3,53.7,72.2,55a1,1,0,0,1,.3-1.6,7.4,7.4,0,0,1,5.4-4.6c-.2,0-.6.4-.9,0l.3-.2c-.6-1.3.5-1.6,1.2-2.1S77.5,44.5,80.1,45.4Z" style="fill:#211a2f"/><path d="M66.6,124.9c4.5,7.4,19.7,10.4,17.6,20.5-5-7.7-14.1-12-20-19.7C66.2,125.7,65.2,123.8,66.6,124.9Z" style="fill:#413c59"/><path d="M100.9,68c.3,3.2.7,6.7-1.6,9.5,2.1-13.8-11.8-18.5-15.5-4.2-.7-3.6,1.9-7.6,4.7-9.6C79.3,66,101.4,54.1,100.9,68Z" style="fill:#5d182d"/><path d="M127.8,103.9a5,5,0,0,0-1.5-1.8c.4,1.7,1.1,3.2.5,4.7-1-.8-1.2-1.9-2.5-2.9a5.6,5.6,0,0,1,0,5.2l-.5-.9c-.5,1.3.5,2.7-.4,3.9-1-2.1-.1-4.1-1.4-6.7-.2,6.5-.6,6.8-.8.3-.2,1,.4,3.8-1.2,3.3-1,1-1,3-2,4,.5-3-4-8.1-1.9-9.7a12.4,12.4,0,0,1,2.4,3.8,11.6,11.6,0,0,1,.1-3.3c3.6,3.1-.3-5.7,4.6,1.3l-.7-4.4c1.3.7,1.7,1.7,2.7,2.5-.3-1.4-.6-2.9.5-4.1.3.7.9,1.7,1,.4,1.1-2.9,2.1,4.2,1.9,5.5Z" style="fill:#1a1e37"/><path d="M121.6,118.4c1.3-1,1.9-2.5,2.7-4.2v3.3c3.4-3.1,9.5,1.2,14,.5,2.2.7-1.4,5.7-2.6,6.9s-.6.4-1,.1C131.5,121,126,119.9,121.6,118.4Z" style="fill:#2b2842"/><path d="M135.5,146.9l-17.6,6.5c.6-1.7-.5-5.7,1.7-5.9a143.6,143.6,0,0,0,17.2-2.9A7.6,7.6,0,0,1,135.5,146.9Z" style="fill:#111a39"/><path d="M87.1,101.9c-1.7,11.4,14.2,9.6,19.5,3.6,1.9-3.6,2.6-2.2,3.4,1-1.5.3-1.1,1.6-1.3,2.6s-1.2-1.2-1.7-.1-2.4,4.3-4,4.3c-1.8-1.6-1.6.5-2.4.3s-2.7-2.1-2.3,0c-2.9-1.8,5.9-2.3,6.8-4.8-5.2,2.3-13.9,4.5-18.1-.6.3,2.2,2.4,3,3.7,4.3-6,.6-3.2-7.5-6.3-5C84.3,105.5,85.3,102.8,87.1,101.9Z" style="fill:#994248"/><path d="M74.8,146.5c0-3.9-1.5-9.7,3.7-5,0,3.6,1,27.3-1.9,26.2-3.6.5-.4-8.4-1.4-11.4s-.1-7.3-.3-10.6C74.9,146,75,146.3,74.8,146.5Z" style="fill:#443e54"/><path d="M89.2,149c3,2.4,15.4,1.7,14.8,3.6C102.5,158.4,84.5,154.7,89.2,149Z" style="fill:#726c7d"/><path d="M85.1,136.6c-3-4.9-6.1-11.9-3.6-17.6l.5.6c.4-.6-.1-1.3.1-2.1.9,4.3,6.2,4.8,6.4,8.7-4.8,3.2-3.6,2.1-3.8-2.3C82.2,127.7,84.1,132.6,85.1,136.6Z" style="fill:#2d2c4a"/><path d="M127.8,67c-1.5-11.3-17-19-26.1-12-1.6-1.6,2.2-3.8,3.7-4.1s3.8.8,5.4-.6-.1,2.4,3.5.1c-.5,1.3.7,1,1.6.6-1.4,1.9,1.3.9,2.5.6-2.2,2.1,1.9.8,2.8,1.1-.7.4-.5,1,.4.9s.7.8,1.1,1,3.1.9,3.3,2.3c-2.6,1.7-.6,1.6.9,3.4-2.2.3,2.6,3.2,1.7,3.9C126,64.2,129.4,66.6,127.8,67Z" style="fill:#6d1d35"/><path d="M117.8,119.1c4.6,2,4.7,6.7,3.6,10.9a9.1,9.1,0,0,0-2.4-3.8c2.1,5,0,2.8-3.1,1.3C114.7,125.2,114.7,120,117.8,119.1Z" style="fill:#222641"/><path d="M72.9,126.7c-3.1-2-6-7.3-7.5-11.4-.3-2-1.1-4.7-3.4-2.6-1.9-1.1-2.9,6.1-3.8,6.8-2.1-8.2,8-15.5,14.9-11.1-1.9,1.2-5.4-1.3-6.8,1.4C65.9,115.8,69.8,121.7,72.9,126.7Z" style="fill:#f34a72"/><path d="M94,82c11.1-12.1-8.6-21.7-10.1-3.2-1.8-6.2,7.4-18.9,13-10.5C99.6,72.8,100.4,80.6,94,82Z" style="fill:#837897"/><path d="M74.6,112.1c.1-1-.5-2.3,0-3.2,1,2.4,2,4.5,4.2,6.2-8.1.2-11.7,7.7-11.5-5,.9-.8,4.6-.8,3.6,1.1S73.7,111.7,74.6,112.1Z" style="fill:#2f2441"/><path d="M146.7,127a11.1,11.1,0,0,1-3.5,5.5c.2-1.8,2.4-3.3,2-5.5s-1.8-7.7-4-6.9c.3,1.7-6.9,9.2-5.6,6,8.4-7.5.7-11.6-7.3-12.4-.5,0-1-.5-.5-1C136.2,112.8,146.9,117.1,146.7,127Z" style="fill:#fb406c"/><path d="M85.5,83.2c-1.3-.1-2.5-.6-3.8-.4.2.8,1.4.9,1.3,1.9a2,2,0,0,1-1.1-.9c-1.1-1.8-3.9.4-2.9,2s6.3,1.8,4.9,4.7-5.3,8.5-5.5,4c-.2-1,1-2.6-.9-2.4-.1-2.9-.9-6.2.9-8.8C81.1,82.7,83.9,80.2,85.5,83.2Z" style="fill:#8c1d2f"/><path d="M119.6,95.2c2.4.5,5.9-2.4,3.6-4.8,1.1.1.7,2.5,1.7,1.6s2.4-.3,2.9-1.6c-.4,2.7-1.8,4.8-1.7,7.6a9.4,9.4,0,0,0-1-1c-.9,1-.3,4.8-2.4,2.5s-.9.8-1,1.5C120.6,99.5,115.8,96.4,119.6,95.2Z" style="fill:#7b2132"/><path d="M92.2,87.1c5,3.4,8.5.1,11.8,2.6.8.8.5-.6.6-1s0,2.4-.5,3.2.5-1,1.1-1.1a18.5,18.5,0,0,1-.4,2.3c-1.1-.3-2.5.3-3.4-1,2.1.2,1.9-1.6-.1-1.7s-2.9,1.1-1.1,1.5c-3.4,2.7-7.5-.2-8.6-3.9C92,87.8,91.8,87.3,92.2,87.1Z" style="fill:#5d152b"/><path d="M58.5,131.8c-.1.6.3,1.2-.3,1.6s-2.7,3-3.7,1.4c1.7,1.3-1.1,2.4-1.7,3.5s-2.1,2.7-3.6.8c-.3,1.7-1.1,1.3-1.9.1s-1.5-1-1.3-1.4c4.5-.8,5.7-3.7,8.9-6.3.9-.6-.9-.7-1-1.4C55.5,128,57,131,58.5,131.8Z" style="fill:#6e2d55"/><path d="M83.8,81.3c-.3.7-.7,1.2-1.6,1.1-6.8,2.6-1.6-2.3-.9-5.9,1.7-5.9.7-12.1,8-13.3C83.7,67.4,82.3,74.9,83.8,81.3Z" style="fill:#b14247"/><path d="M120.7,135.1c1.6-3.3,8.1-7.3,4.9-11.2C137.5,122.8,125.5,133.7,120.7,135.1Z" style="fill:#7c7484"/><path d="M76.5,62.3h0c4.5-.8,6-5.1,9.2-7.6a17.3,17.3,0,0,1-6,7.9c1.1-.4,1.8-.9,2.7-1.3-1.2,3.7-6.1,4-7.9,7.3-.5.9-.8,2-2,2.3.1-1.4,1.9-2.4,2.3-3.8C69.9,67.1,75.6,64.5,76.5,62.3Z" style="fill:#28192e"/><path d="M101.4,53.5v.2c-1.2-3-7.9,3.7-7.3.1-.7.2-3.1,1.5-1.9-.1-.3.4-.7.8-1.3.3s-3.3,3-5.2,3.4c-.5-1.3,2.3-3.7,3.4-4.8a34.3,34.3,0,0,0,9.4-2C103.2,49.9,101.8,49.3,101.4,53.5Z" style="fill:#6e2034"/><path d="M138,100.7c-3.8,4.3-9.8,5.3-8.3-2.3.2.2.4.6.5.6s.6,1.8,1.2.1,2.8.1,3.8.1S138,96,136.7,94s-1.2-2.1.1-2.3h0c.8.6,1.6.1,2.4.1-.2,2.5-.4,5-1.9,7.1s-3.1,1.4-2.3,2.3c-2.1,2-1.4-1.1-3.2-.3s-.8,1.8.5,1.9S136,100.7,138,100.7Z" style="fill:#872f3d"/><path d="M139.6,120.2a21.7,21.7,0,0,1-11,11.5c-.3-.8,2.3-.9.6-1.4,10.9-5.3-3-10.1-8.8-11.8.6,0,.8-.2.9-.5,4.3,1.8,10.4,2.5,13.6,6.8,1.7.1,3.1-3.2,3.4-4.9S140.3,119,139.6,120.2Z" style="fill:#18030c"/><path d="M114.2,142.2c-1.8.6-3.9,3.8-5.2,3.5,4.7-6.2,12-9.7,18.8-12.9C131,133.2,116.5,141.3,114.2,142.2Z" style="fill:#968b95"/><path d="M84,65.7c-1.1,9.2-7,17.4-6.5,26.4-2.4-10.4,5.9-20.4,6.6-31.2C85.8,60.4,84.3,64.9,84,65.7Z" style="fill:#f24268"/><path d="M80.3,165.9H79c.8-4.6-.3-11.2,1.2-14.8C84.7,154.6,80.8,161.2,80.3,165.9Z" style="fill:#203d68"/><path d="M119.6,95.2c-4,2.1,2.9,4.2,2.4,6.9-3.1-3.5-1.5,1.8-3.1,1s-.6-1.4-1.4-.5c-1.6-1.6-2.5-3.2-1.9-5.3S118.1,95.2,119.6,95.2Z" style="fill:#913a41"/><path d="M113,156.5c.2-2.6-3,.9-4,1.3.7-2.5-1-7.1,1.7-8.1C115.3,147.1,112.5,154.2,113,156.5Z" style="fill:#111b3d"/><path d="M82.4,153.8c-.8-.6-1.8-2.8-2.7-2.3v-9C84.1,144.8,82.9,149.8,82.4,153.8Z" style="fill:#121a3d"/><path d="M88.9,136.6c1.9,3.5,5.3,6.1,7,9.8-4.8-4.3-10.7-7.4-11.1-14.5C85.6,133.9,87.3,135.2,88.9,136.6Z" style="fill:#33314a"/><path d="M83.9,78.8c.1-1.2-.2-2.5.6-3.6,1.1,3.7,4.4,6.4,8,7.6C90,86.1,83.8,82,83.9,78.8Z" style="fill:#af97ac"/><path d="M116.9,152.6c-.6,2.9.3,18.4-3.5,16.3.3-2,.1-16.1,1.8-15s-.2,4.6.4,6.8c.5-2.6.1-5.3.6-7.8.3,0,.3,0,.2.5S116.3,152.3,116.9,152.6Z" style="fill:#5a5464"/><path d="M84.9,53.7c-2.2-.7-4.8-1.2-6.5-2.8,3.4-.5,7.6,1,11-.7a5,5,0,0,0-2.6-1.1c.4-.6,1.7.2,1.7-.7,2.9.1,5.5,0,8.5.9C92.3,49.2,88.3,50.3,84.9,53.7Z" style="fill:#110510"/><path d="M97.9,150.1c-5.2-1.1-10.9-6.2-12-11.4C89.1,143.2,94.6,145.6,97.9,150.1Z" style="fill:#80798a"/><path d="M101.5,101.4c-.5,2.3-15.1-.1-10-2.7C93.6,100,102.7,98.3,101.5,101.4Z" style="fill:#c5c7d4"/><path d="M99.3,147.9c4-4.2,10.7-6,14.3-9.9a36.1,36.1,0,0,0,5-4.1C114.6,141.9,106.2,143.7,99.3,147.9Z" style="fill:#333149"/><path d="M84,65.7c-.2-1.2,1.5-4.4.1-4.7.8-3,3.9-6.9,7.1-7.1.7.5,1-.6,1.6-.9a9.5,9.5,0,0,0-.9,1.7c-1.5.4-3.3,2.4-2.9,3.8s.2.5-.2.6C85.5,59.8,85.5,63.8,84,65.7Z" style="fill:#892e38"/><path d="M97,96c2.9,3.4,7.4-.3,10.4,2-6.3.9-14.1,1.6-20-1.6a3.9,3.9,0,0,1,3.3.3c.4.4.8-.1,1.2-.3.2,1.5,1.7-.1,2.7-.4-2.9,2.5.5.8,1.3-.4s.8,1.7-1.1,2.1a11.2,11.2,0,0,0,4.1.4C98.1,97.7,96.6,97.1,97,96Z" style="fill:#5b192d"/><path d="M109.1,95.9c.2.7,1,.8,1.1,1.5-2.8-2-9.4-.1-9.9-3.8,1.1-.6,1.1,1.1,2.2,1.5-3.3-4.1,4.4,1.8,2.5-1.1,3.4-.3,9,3.4,8.6,6.9C112.4,99.2,110.7,96.3,109.1,95.9Z" style="fill:#1a1e39"/><path d="M91.8,105.2c1-1.2,7.8-3,5.3.4,3-3,12.3.3,4.6,1.4,0-.4.3-.3.5-.3-1.6-.5-3.9-1.6-5.3-.1a.9.9,0,0,1-1.2,0C94.6,105.7,93,106,91.8,105.2Z" style="fill:#700b33"/><path d="M133.4,101.9c6.2-1.8,5.8-8,7-13.1s-.1,7.5-.1,8.9S130,106.1,131,101C131.1,102.2,132.6,101.7,133.4,101.9Z" style="fill:#a33f4b"/><path d="M138.3,118a33.2,33.2,0,0,1-12.4-1.9c1.4-3.5,5.6-.4,8.2.1S137.8,116.4,138.3,118Z" style="fill:#4a3d57"/><path d="M136.8,91.7c-1.4,2.3,3.2,5.1-1.6,7.5-2.5-1,0-3.3-.5-5.3.9.3,1.3,1,1.9,1.7.1-2-2.4-2.1-2.6-3.7S135.7,90.2,136.8,91.7Z" style="fill:#561228"/><path d="M101.5,101.4c.2-2.8-5.3-.8-7.2-2s-4.2-1.3-3.7,1.3c-1-.6.1-1.8-1.1-2.4a69.1,69.1,0,0,0,17.6.3c1.7-.7,1.8,2.1.3,2.4s-1.1,0-1-1.1-.6.9-1,1.3c-1.2-1.8-2.7-1.6-3.6.2C101.8,100.9,101.6,101.3,101.5,101.4Z" style="fill:#4c4460"/><path d="M138.3,118c-3.3-1.7-7.5-2.6-11.3-3.6l.6-1.5c3.2,2,12.8,1.5,12,7.3C139.8,119.3,138.8,118.8,138.3,118Z" style="fill:#b83654"/><path d="M106.7,105.2c-1.9,5.3-19.3,7.8-18.9,1.5C92.6,111.5,101.9,109.7,106.7,105.2Z" style="fill:#d2606a"/><path d="M98.2,155.4c2.3.2,6.3-1.1,5.4-3.8-1-.2-2.5.4-3.3-.3,3.3.4,7.6-1.9,6.3,3.2C104.8,156.1,100.8,155.5,98.2,155.4Z" style="fill:#3c394f"/><path d="M140.6,87.5a9.2,9.2,0,0,1-.8,4c-.6-1.1-1.9-4.8.4-3.1-1.3-4.5-6.8,2.4-8.4,4.2-.3-2.3.7-4.1,2-5.8.5.5-.3,1.2-.1,1.6C135.7,88.1,139.8,83.5,140.6,87.5Z" style="fill:#7a2938"/><path d="M116.9,152.6c-.6,0-.3.6-.4.9l-.3-.7c-.3.4-.8.6-1.1,1.1-2-.1-.8-3.6-.8-5.4C118.6,146.2,117,149.6,116.9,152.6Z" style="fill:#403349"/><path d="M92.2,87.1c-.2.3.3,1-.6.9-.6-4.6,2.5-6.8,7-5.2.3.2,1,.5.2.8s-3.3,3.5-4.5.6C93.7,82.9,91.5,86,92.2,87.1Z" style="fill:#d45a69"/><path d="M72.6,88.2c1-3.4.4-11,4.7-11.4,1.2.6,1.4,2,.5,3.4-3.4-6.3-3.4,7.1-4.7,9.3Z" style="fill:#f1476d"/><path d="M133.6,80.2c0,.7.8,4.4-.4,3.1-.2-3.9-3.5-6.8-3.9-10.5,2.3,1.2,3.9,4.7,4.4,7.4Z" style="fill:#090814"/><path d="M79.1,115.9h.6c-2.7,1.2-5.2,2.3-7.3,4.3a1.7,1.7,0,0,1-2.8-.4C70.6,117.1,76.2,116.5,79.1,115.9Z" style="fill:#f63c6d"/><path d="M91.4,94.1c-.9.1-2.1.9-2.9.5-1.1-2.1-4.2,1.2-4.9,2.5.8-4,5.3-4.1,8.4-5,.4.3-.5.5.1.7,3.9.8.6,2.2-1.5,2.3C90.6,94.5,91.5,94.8,91.4,94.1Z" style="fill:#1b1f38"/><path d="M57.2,125.2c-1.5-2.4-1.9,1-1.9,2.3-1.8-2.6.2-6,2-8.1C57.4,121.4,60.4,124.4,57.2,125.2Z" style="fill:#983152"/><path d="M70.5,120.8c2.9-.6,4.6-3.6,7.6-4.1-2.4,1.8-4,4.6-5.9,6.8A29.2,29.2,0,0,1,70.5,120.8Z" style="fill:#7a314f"/><path d="M91.8,105.2a15.9,15.9,0,0,1,4.7,1.4c2.1-2.1,4.1-.4,6.6.1C100.9,107.3,90.8,108.2,91.8,105.2Z" style="fill:#ac224d"/><path d="M70.6,109.9c-2.5-.5-4.1.5-4.3,3-2.3-5.5,3.3-4.6,6.8-4.5C74.3,110.7,72.3,110.7,70.6,109.9Z" style="fill:#b93557"/><path d="M66.3,112.9c.1-1-.2-2.2,1.1-2.7.1,2.8.3,7.2,2.7,8.7-1.1.9.4,1.3.3,2s-.4.7-.4,1.2A24.8,24.8,0,0,1,66.3,112.9Z" style="fill:#25020e"/><path d="M89.2,149c-1,1.2-.5,2.5-.2,3.8-1.8-1-4.5-1.4-3.5-4.1S87.9,148.9,89.2,149Z" style="fill:#353348"/><path d="M87.1,101.9c-1.5,1.2-2,2.9-2.7,4.4C84.1,102.4,88.3,90.7,87.1,101.9Z" style="fill:#55162f"/><path d="M114.1,153.8l.5-.2C113.8,172.7,111.7,173.7,114.1,153.8Z" style="fill:#7c7382"/><path d="M74.8,146.5v-1.7h.1c.2,7.5,1.7,16.1-.3,23C75.1,160.7,75,153.6,74.8,146.5Z" style="fill:#8c8492"/><path d="M144.2,143.2c-2.2-.4-5.1,1.3-7.2,2.3,1.4-2.6,6.4-3.4,9.1-4.4C147.3,142.2,145.3,143.4,144.2,143.2Z" style="fill:#231b41"/><path d="M147.6,138.6c.4-2.3.9-5-1-6.9s.1-2.2.6-3C149,130.8,149.2,135.9,147.6,138.6Z" style="fill:#f7406b"/><path d="M130.8,97.1c.7-1.4-.1-4.5,2.1-4.5S133.2,97.9,130.8,97.1Z" style="fill:#a04c4f"/><path d="M110,106.5c-1.7-2.3-1.6-4.5-.2-6.9C110.8,100.6,110.9,103.7,110,106.5Z" style="fill:#561630"/><path d="M131.9,82.5c.2.7.7,4.6-.2,3s-2.2-4.3-2.6-6.8C131.1,78.7,132,80.7,131.9,82.5Z" style="fill:#090814"/><path d="M139.2,91.8c-.8.4-1.6.9-2.4-.1s-1.7-2.6.9-2.9S138.8,90.8,139.2,91.8Z" style="fill:#60162f"/><path d="M140.6,87.5c-.9-2.4-3.6-1.5-5.4-1-1.3-2.5,7.6-3.3,5.8,2.1C140.5,88.4,141,87.8,140.6,87.5Z" style="fill:#ec6272"/><path d="M135.9,85.1c-2.8,2.8,1.9-.5,3.1.9-2.1.4-3.7,2.5-5.5,2.8A3.8,3.8,0,0,1,135.9,85.1Z" style="fill:#b64b4b"/><path d="M70.6,109.9c.9,0,2.3.7,2.9,0l1.1,2.2c-1,.1-5.2.7-4.2-.7S71.1,110.5,70.6,109.9Z" style="fill:#52405e"/><path d="M73.7,92.3c3.9-3.8,2.3,1.7.2,3.3-.2-.2-.1-.5-.2-.7s-.7,0-.8-.6S73.8,93.1,73.7,92.3Z" style="fill:#1a1e37"/><path d="M57.3,119.4c-1.3,2.1-2.5,4.2-2.7,6.6-.9-2.8.5-5.9,2.3-7.9Z" style="fill:#f84171"/><path d="M108,145.1c-3.4,1.2-6.7,3.8-9.8,4.7,3-2.6,6.7-4,10.6-5.6Z" style="fill:#908a97"/><path d="M101.8,101.4c-.1-2,3.4-2.4,3.2-.6S101.5,102.5,101.8,101.4Z" style="fill:#c0c9d7"/><path d="M97,96c.3,1.4,1.6,1.7,2.8,2.3a14.7,14.7,0,0,1-6.1-.7,4.1,4.1,0,0,0,3.2-1.8Z" style="fill:#a65658"/><path d="M74.7,80.2c.4-.7.6-1.5,1.5-1.8.8,1.9,1.5,4.5-.6,5.8-.2-.9,1.9-5.2-.9-3.8C74.6,80.3,74.6,80.3,74.7,80.2Z" style="fill:#661228"/><path d="M90.7,112.5c-2.9-.5-6.3-8-1.9-2.4C87.9,111.1,94.3,112.3,90.7,112.5Z" style="fill:#571622"/><path d="M94.9,108.7c-.4-.2-2.4.2-2.4-.6s2.8-.2,3.9-.4.7-.1.6.4S95.9,108.6,94.9,108.7Z" style="fill:#c5b9cd"/><path d="M103,109.6l3-1.6c-2.2,3-5.4,3.8-8.6,4.7.1-1.2,4.9-1.4,5.9-3Z" style="fill:#561825"/><path d="M128.8,132.6c-.9.2-1.9,1.3-2.7.8l7.2-4.8C132.9,130.3,130.2,131.7,128.8,132.6Z" style="fill:#be567a"/><path d="M73.1,91.5l2.3-2.1A10,10,0,0,1,70.8,93c1.9-2.1,3.8-3.8,5-6.4C75.6,88.9,74.1,90.1,73.1,91.5Z" style="fill:#811536"/><path d="M73.7,94.9c.1,2.3-2.2,5.1-2.6,7.7C70.7,101,72.2,96.9,73.7,94.9Z" style="fill:#dc2d55"/><path d="M130.8,97.1a2.9,2.9,0,0,0,2.9-3.1C135.1,95.9,131,100.3,130.8,97.1Z" style="fill:#501325"/><path d="M89,92a7.3,7.3,0,0,1,1.9-3C93.1,91.8,91.2,90.8,89,92Z" style="fill:#6b1d2d"/><path d="M128,77.7a43.5,43.5,0,0,1,.2-5.1c0,1,2.1,3.2.5,3.4S130.8,77.9,128,77.7Z" style="fill:#621e2f"/><path d="M74.7,80.2c.7,1,.7,3.4-.4,5.1C74.2,83.6,73.8,81.8,74.7,80.2Z" style="fill:#8b213a"/><path d="M91.8,108.3c-1.2-.1-2.8-1.2-1.4-2.1S93.8,107.5,91.8,108.3Z" style="fill:#bdbed8"/><path d="M92.3,44.7c-1.9-.6-5.4-3.5-5.9-4.8L90,42.2l-1.7-.6C89.6,43.1,91.2,43.5,92.3,44.7Z" style="fill:#0b0816"/><path d="M73.7,92.3c.1,2.2-2,3-3.3,5A14.5,14.5,0,0,1,73.7,92.3Z" style="fill:#7d183a"/><path d="M100.3,151.3l3.3.3a21.5,21.5,0,0,1-8-.6C97.1,150.8,98.8,151.3,100.3,151.3Z" style="fill:#b0afbf"/><path d="M99,107.7c.4.2,1.2-.4,1.3.2s-3,1-3.1.6S98.3,107.9,99,107.7Z" style="fill:#c4b9d0"/><path d="M105.4,101.2c-.2-.8.1-2.3,1.2-1.6S106.1,101.3,105.4,101.2Z" style="fill:#b1b5c0"/><path d="M89.3,105.4c1.2.2.4,1.3.2,2A1.1,1.1,0,0,1,89.3,105.4Z" style="fill:#9599c0"/><path d="M81.9,61.5a5.3,5.3,0,0,1-2.6,1.3c.4-.8,1.4-1.2,2-1.9S81.4,61.5,81.9,61.5Z" style="fill:#110510"/><path d="M73.9,88.6c.5-1.6.5-3.2,1.8-3.5S74.6,87.1,73.9,88.6Z" style="fill:#9f2347"/><path d="M89.5,98.3c1.6.3.7,1.4.7,2.1S89.4,99.2,89.5,98.3Z" style="fill:#b0b2c7"/><path d="M130,111.8c-.7-.1-1.4.3-2-.2S128.3,110.5,130,111.8Z" style="fill:#c3ebf2"/><path d="M74.4,103.9a37.7,37.7,0,0,1-.3,4.5C73.6,106.6,74.2,105.3,74.4,103.9Z" style="fill:#a93245"/><path d="M90.3,51.3l3.3-.7A4.6,4.6,0,0,1,90.3,51.3Z" style="fill:#110510"/><path d="M86.6,93.1a12.4,12.4,0,0,0-2.7,1.7A3.6,3.6,0,0,1,86.6,93.1Z" style="fill:#1b1f38"/><path d="M88.7,45.5l4,1A9.5,9.5,0,0,1,88.7,45.5Z" style="fill:#0b0816"/><path d="M102.7,107.1c-.2.5-1.7,1.2-2,.6Z" style="fill:#b0809f"/><path d="M12.1,105.7c1.7.8.7,1.2-.4,1.6,3.6-3.1,22.6,2.4,12.7,5.3-1.3,0-2.7-1.2-3.8-1s-1.4-1.2-1.1-1.9c-1.3,6.7-14.8-5.2-8.1,4.2-.6.3-1.3,0-1.8.6,2.6.5,5.1-1.1,7.7-.7s5.3.7,7.6,1.6.2,4.6-2,3.8-6.5.7-9.7-1c-1.7-1.2-3.4.5-4.8,1.5s-2.6-3.1-1.6-4.5-.4-5.4,1.4-7.4,2.2-5.3,3.4-8.1c2.3,0,21.9,2.4,14.6,5.9-2.7.4-5.2-2.5-7.6-1.5S9.7,101.4,12.1,105.7Z" style="fill:#8f3740"/><path d="M40.8,158.9c-1.9-.2-1.8,4-3.3,2.4s-1.1-.7-1.8-.4c-3.3.6-7.2,2.5-10.3-.2-.1-3.6,4.7-6.6,6.3-10-3.2,3-7.4,8.3-12.3,5.9,8-.3,11.1-7.8,16.6-12.2,2.3,1.3,1.8,4.3,2.8,6.4s.9.8,1.8.5A10,10,0,0,1,40.8,158.9Z" style="fill:#1b2b56"/><path d="M30.1,122.6a32.5,32.5,0,0,0-1.7,6.3,18.9,18.9,0,0,1,1.1-2.5c3.8,5.4-14.4,15.3-14.6,7.2,1.3.2,4.4.9,5.7-.1-2.5.2-7.7-1-6.9-3.7,4.9-1.4,13.4,2.1,12.2-6.7-.2-.9-.3-1.6.6-2.3s.1-3.5,1.5-4.9c3-3.3-.8-7,2.5-10.2C33.7,111.3,32.8,117,30.1,122.6Z" style="fill:#58122e"/><path d="M9.4,143.9c1.1-.1,1.4-1,1.9-1.8s.2,1.4-.3,1.9,1.8-1,1.1-1.9c1.8.1.6,2.5.9,3.5,2.2-1.8-5.1-10.4-.2-7.6-.6,1,.8,2.3,1.1,3.3s.6,3.6.8,5.3c1.8-2.8-1.2-5.9-1.5-8.5,1.9-.4,1.8,2.1,2.6,3.2s.5,4,1,5.7c1.2-1.2-.3-3.8,0-5.3s2.2,8.1,2.3,4.6c-2.5-9.4-5-6.1,4.6-8.7.3-.3,1.6-.6,1.1.2s2.8,4.8.4,5.7c-1.4-.9-.9-3.8-2.2-4.4-1.1,1.8,2.8,4.8.5,6.5-.7-.3-3.1-9.3-2.8-5.1,1.4,1.6.8,7,3.2,6.5,1.6,1.5-1.9,1.4-2.3,2.3,5.6,2.7,9.9-7,13.8-5.9-4.8,8.4-19.3,10.4-25.9,2.5C8,144.2,10,145.8,9.4,143.9Z" style="fill:#11193c"/><path d="M6.7,119.4c2.5,1.2,4-3.5,7.1-1.3a6.3,6.3,0,0,0,5.7.1c2.8.3,7.1,2.7,5.4-2.8,1.7,1.2,2,4.3.1,5.2a11.5,11.5,0,0,0-7.3-.9c-3.2-.1-5.5,2.2-8.6,1.5,1,.8,1.7.6,2.7.8-4.4,3.8,12,3.1,12.3-.1,2.9,3.3-1,7.2-4.7,6.2,10.8-3.5-5.6.1-8.4-.8,1.5.6,3.1.1,4.6.6C10.7,131.4,6.1,123.9,6.7,119.4Z" style="fill:#57122d"/><path d="M25.2,143.5c1.6-1.5,1.1,2.2,2.4,2s-1.1-2.5-1.1-3.7c-.1-3.1,2.4,1.6,2.9,2.4,2,.3-5.3-9-.9-8.8.7,2.1.7,4.2,2.2,6.1,3.4,5.2-2-5.6-.8-7.1s1.4,4.8,3.4,5.8,2.6,1.8,2.1,3.2c-2.3-1.2-6,5-8.9,5.7s-8.5.6-2.9-1c1.7-.5-.8-1.6-.1-2.6.9-2.7,1.3,1.4,2.3,1.2S24.7,144.5,25.2,143.5Z" style="fill:#2b3f6e"/><path d="M30.1,122.6c5.7-10.9-.2-18.9,2.5-29.7.9-3.6.8-7.5,1.5-11.3-5.4-2.4-6.8,7.2-7.7,10.6-3-6.2,10.4-20.8,8.9-7.1C30,101.5,38.6,107.7,30.1,122.6Z" style="fill:#f94d6e"/><path d="M26.2,91.7l.2.4c.6-8.5,1.2-1.2,5.2-.5,1.6.1-.8,5.3.2,7h0c.3,1.1-1,1.7-1.7,2.2C26.9,97.9,25.6,96.5,26.2,91.7Z" style="fill:#60122c"/><path d="M27.7,135.8c-4.8,3.9-12.7,4.4-17.7.7-.3-.2-.5-.5-.6.2-2.2.1-1.7-6.1-.3-7.8s.9.2,1.4.3.1.5-.1.7c-5.5,10,15.4,9.2,19.3,1.3C31.8,132.9,28.4,134.4,27.7,135.8Z" style="fill:#304470"/><path d="M28.1,103.2c-4.7-.7-8.9-2.9-13.7-3.1-1.5-.3-4.6.7-1.6-1.4,2.4.3,5.9-1,8.6-1.1S31,99.6,28.1,103.2Z" style="fill:#b54549"/><path d="M11.4,113.9c-1.7-.3-2.9-4.4-1-4.2s7.9,3.9,9-.4c.1-.6.6-.4.3.1a2,2,0,0,0,.5,2.2c.6.1.2-1.2.8-.5,2.6,1.8,6,2.3,6.1-1.6,1.8,1.5,1.7,5.5-.6,6-4.1-4.3-9.9-2-15-2.5C11.6,113.5,12.2,113.8,11.4,113.9Z" style="fill:#58122a"/><path d="M24.1,121.9c.1,3.3-12.3,3.6-13.3,1.7C13.7,121,21,119.6,24.1,121.9Z" style="fill:#8e3c44"/><path d="M30.1,100.8c.6-.7,1.5-1.2,1.7-2.2-.4,5.9,3.5,11.6.5,17.2-.6-1.3,1-2.5.3-4C30.1,108.4,31.4,104.4,30.1,100.8Z" style="fill:#a53643"/><path d="M28.1,103.2l.6-2.1c2,1.4,1,5.5-.9,6.7a42.1,42.1,0,0,1-7.6-3.9c-.5.1-1.1.9-1.6.1C21.8,102.4,26.4,108.5,28.1,103.2Z" style="fill:#5a1128"/><path d="M40.6,151.3c-3.3,2.3-2.1-5.7-4.6-6.9a18.9,18.9,0,0,0,1.9-3C38.9,144.4,40.6,148.1,40.6,151.3Z" style="fill:#5f335b"/><path d="M29.5,133.7a1.9,1.9,0,0,0,.2-2.5c4.3-5.8.3-5.9,1.5-8.8C35.2,125.1,32.5,131.5,29.5,133.7Z" style="fill:#5f3760"/><path d="M18.6,104c.6.5,1.1-.2,1.6-.1.8,1.9-.9,1-1.5,1.1-2.2.3-4.4,1.2-6.6.7s-.5-3.3,1.2-2.3A10.6,10.6,0,0,0,18.6,104Z" style="fill:#550f27"/><path d="M29.6,102.3c-3.8-5.6-11.2-5-16.7-2.9C16.1,95.7,27.8,96.2,29.6,102.3Z" style="fill:#f55575"/><path d="M35.6,143.1c-.6-2.2-4.2-5-2.4-7.1.6.4,1.2,3.6,2.2,2s2,1,1.4-1.1C38.8,138.1,36.6,141.5,35.6,143.1Z" style="fill:#703a5c"/><path d="M9.4,143.9a1.7,1.7,0,0,1,.3,1.4l-1.1-.5c1.1,1.4,2.6,1.9,2.8,3.1C3.9,145.1,11.5,133.9,9.4,143.9Z" style="fill:#322c5b"/><path d="M27.1,109.5a80.9,80.9,0,0,1-8.4-3.3A10.7,10.7,0,0,1,27.1,109.5Z" style="fill:#e65775"/><path d="M8.9,137c.8-.9.8-.9,2.5.3-1.2,2,1.7,3.6,1.4,5.5A48.9,48.9,0,0,1,8.9,137Z" style="fill:#070d25"/><path d="M24.8,115.4c-2,.4-4.8-1.3-7.1-.8C15.7,112.7,24,114.1,24.8,115.4Z" style="fill:#e65473"/><path d="M9.1,128.9c-1.4,2.1-.6,4.6-1,6.7C6.5,133.3,6.8,131,9.1,128.9Z" style="fill:#b6416f"/><path d="M22.5,120.8a19.8,19.8,0,0,1-5.5.5C16.3,120.3,21.3,120.3,22.5,120.8Z" style="fill:#db5b76"/><path d="M154.9,67.8c-1-.1-1,1-1.5,1.4s-3.9,1.9-5.9,1.1c.9-.4-.6-.9-.3-1.4s1.1,0,1.4-.2c4.2-.9-3.1-.9-4-2.4A50.2,50.2,0,0,0,154.9,67.8Z" style="fill:#110916"/><path d="M153.1,67.7a15.7,15.7,0,0,1-8.9-1.7C147.4,64.4,150.6,65.6,153.1,67.7Z" style="fill:#1d1a2e"/><path d="M153.1,67.7c-1.5-.6-3-1.1-3.8-2.6a3.7,3.7,0,0,0,2.2-1c-1.4-.6-2.5-.3-4.1-.7a13.2,13.2,0,0,1,3.1-1.2c.3,1.1,1.6.9,2.3,1.7a15.7,15.7,0,0,1-2.5,1.4c1.2,1.3,3,1.7,4.6,2.5A5.5,5.5,0,0,1,153.1,67.7Z" style="fill:#e0245a"/><path d="M151.9,80.6c-3.9-.7-3.5-5.6-5.2-8.7C149.1,74.6,148.3,78.7,151.9,80.6Z" style="fill:#cc315f"/><path d="M144.9,79.6c1.4,2.5.8,4.8-.3,7.2A11.8,11.8,0,0,0,144.9,79.6Z" style="fill:#b42e5a"/><path d="M147.3,71.4c.5-.1,3.3,3.4,1.8,2.7S147,72,147.3,71.4Z" style="fill:#d52f5b"/><path d="M147.5,70.3c2.1.6,4.2-.9,5.9-1.1-1.8,1.1-4.1,2.1-6.2,1.1Z" style="fill:#ab304f"/><path d="M148.4,80.7a4.7,4.7,0,0,1-2.9-1.6Z" style="fill:#ab2e51"/><path d="M192.3,148.8c-1.8,1.2-8.2,8-5.6,8.6,0-1.3.7-2.7,1.2-.7.5-1.1-.2-2.8,1.2-3.4,1.5,12.5-19.7,9.9-21.9.1,2.3.7,4.1,4.6,7.3,5-1.2-.7-6.6-4.8-5-5.5,2.8,2.4,2.9,1.1,4.1-1.7s-1.3,1.3-1.7,1.7-2.3.6-1.3-.8,2.3-2.6,1.5-3.7-1,3.7-2.7,3.5c-2.4-1.8,3-4.5.9-6.6C169.2,137.3,178.3,151.5,192.3,148.8Z" style="fill:#0f1937"/><path d="M196.7,132.7c-.9,4.1-2.2,10.2-7.2,10.9s-13.9-.3-8-5.9c-.9,5.6,5.8,2.2,8.8,2.4,1.4-.5.9-1.5.2-2.2.8-.2,1.4.2,2.4.2-1.5-.5-2.1-1.1-.3-2.1-3.6,2-7.1-.8-10.7.6s-4.2-5.4-1.5-6.7c-1.1,9.4,10.3-.1,14.2,2.7C195,133.8,195.9,132.9,196.7,132.7Z" style="fill:#57112a"/><path d="M175.8,121.2c2.6,2.8-2,6.1,1.7,9.3.7,2.2-.9,4.8,1.5,6.7a1,1,0,0,1,.3,1.2c-2.6,8.3,6.7,4.1,8.6,7.1-2.6,5.7-18-5.3-15-9.6a6.5,6.5,0,0,1,1,2.2c.5-1.1-1-3.6-.2-3.5C172.8,130.2,171.8,124.2,175.8,121.2Z" style="fill:#56122b"/><path d="M182.4,101.4a21.8,21.8,0,0,1-1.1,10.5c-2.7.2-6.3,4.4-5.5-.8-.8-8.8,3.2-5.4,5.2-11.2.6-1.9,1.4,1.7,1.4,2.4A1,1,0,0,1,182.4,101.4Z" style="fill:#5e1229"/><path d="M196.7,132.7c-1.8,2.2-2.3-1.6-4.9-.4,0-.5.6-.4,1-.6s-1.5-1.2,1.2-1.4l-1.6-.6c8.7-3.9-13.1-.9-7.3-5.1,1.6.5,7.1.1,6.1-2.4.8,0,1.7.5,2.5.2-2.2-1.6.2-3.2,2,.9S195.5,129.6,196.7,132.7Z" style="fill:#7e2e38"/><path d="M192.7,130.7c1.3.4,1.1,1-.1,1.3C175.1,140.1,176.6,123,192.7,130.7Z" style="fill:#8f3c42"/><path d="M191.2,122.2c2.2,2.2-4,3.1-5.4,2.9s-1.5-.1-1.6,1c-7.7,3.9-9.5-3.9-.1-4.5a.4.4,0,0,1-.5-.2A24.3,24.3,0,0,1,191.2,122.2Z" style="fill:#a04748"/><path d="M182.4,101.4v1.8c-6.4-19.7-8-3.6-6.6,6.6-2.8,8.3-4.9,16.5-2,25.3-5.1-9.6-.6-18.7.8-28.2-.3-4.1-2-11.1,1.4-13.9C181,91.5,181.7,98.1,182.4,101.4Z" style="fill:#f9446f"/><path d="M194,115.4c1.4,4.4-8.4-2.3-10.1,1.6-2.9,2.2-6.3,3.3-6.5-1.6C182.1,111.6,188.9,113,194,115.4Z" style="fill:#a24544"/><path d="M192.3,148.8c-7.8,1.5-14.9-1.6-21.2-6.1-.6-.7.2-.5.5-.8s-1.7-2.7-.2-3.8c3.3,6.8,18.1,15.9,21.2,5.8C194.2,144.8,193.7,147.7,192.3,148.8Z" style="fill:#2d3f70"/><path d="M177.5,115.4c1.3,5.6,2.9,2.3,4.5,3.5s3.8-.2,5.3.3,7.3.5,7-3.1a18.5,18.5,0,0,1-.1,4.7c-1-.3-1.8.8-.8,1.5-2.7-.5-1-.5-.1-2.2-4.8,2.9-9.9-1.6-14.8,2-2,.3-2.5-4.4-2-5.7a.4.4,0,0,1,.1.3C176.7,115.8,176.8,115.6,177.5,115.4Z" style="fill:#591228"/><path d="M172.9,130c-2.5-6.8.9-13.3,2.8-19.7,1,.6-.6,3.6,1.2,3.6-3.6,3.2.5,7.2-3.2,10.1C172.2,125.9,174.8,128.3,172.9,130Z" style="fill:#a74149"/><path d="M178.3,123.4c-1.8,4.2,3.4,4,5.9,2.7,3.4,1.4,7.6.4,10.7,1.6-1.4,2.7-5.8.5-8.1.2a9.6,9.6,0,0,0-8.3,2.1C176.7,128.3,175.8,124.9,178.3,123.4Z" style="fill:#561128"/><path d="M167.3,153.2c3,7.9,11.3,9.5,18.6,7.3l-.3.5h.7C165.5,169.7,158.1,133,167.3,153.2Z" style="fill:#08050e"/><path d="M191.2,139.2c.4,1.7-11.9,3.5-9.9-.6.8,2.2,3.1.1,3.9-1s-1.2.2-1.7-.3C186.3,137.1,189.1,137,191.2,139.2Z" style="fill:#7c303c"/><path d="M177.5,115.4c-.6.3-.7,1-.9,1.8.4-6.8,14-6.4,17.4-1.8C188.6,113.5,182.7,111.8,177.5,115.4Z" style="fill:#f44369"/><path d="M171.4,138.1c-1.2,1.4-.4,2.7.4,4-3.3-1.4-4.4-11,.2-9.5C171.2,134.6,170.3,135.9,171.4,138.1Z" style="fill:#693059"/><path d="M183.5,137.3h2.2C183.2,142.1,178.2,138.1,183.5,137.3Z" style="fill:#a85759"/><path d="M183.6,121.4h1.2c-2.2.5-4.2,1.7-6.1,1.6A11.1,11.1,0,0,1,183.6,121.4Z" style="fill:#d85378"/><path d="M128.1,27.1c-.5.9-4.7,12.5-5,9.4-2.4-5.8-4.6-2.8-7.1-8.4s-2.9,3.7-2.2,5.6c-3.2-2.6-17.7-19.3-12.5-5.9-5.9-10.9,1.3-5.4,6.6-1.4.8.4,2.3,3.8,2.7,1.5.7.3.6,1.4,1.2,2s-.4-1-.1-1.4c2,.5.4-2.6,1.4-3.6.3.7-.3,1.9-.2,2.6-.4-2.2,2.8-8,3.1-2.7s5.6,5.1,7,8.5.9.5,1.1-1C124.2,32.7,127.6,24.6,128.1,27.1Z" style="fill:#510e28"/><path d="M126.6,27.9c-.6,1.8-1.9,3.2-2.4,5.3.1-4.5,3.3-8.2,3.4-12.8,3.4,4.7,6.2,9.4,5.5,15.8,1-1.7,1.5-3,2.3-4.4,1.9,2.9,1.2,9.3-.5,10.5a37.4,37.4,0,0,0,.6-7.5c-.5-1.2-1.3,2-2.4,1.7-.5-5-3.1-9.6-5.3-14.2C127.7,24.2,127.6,26.3,126.6,27.9Z" style="fill:#ed2e63"/><path d="M126.6,27.9a19.5,19.5,0,0,0,1-6.4c2.1,5,5.5,9.4,5.4,15,.4.8,1.5,0,2,.7s.4,5.1-.6,7c.4-2.2,1.3-8.1-2-4.4-.5-4.2-1-10.6-4.6-13.2C127.3,27,127.3,27.8,126.6,27.9Z" style="fill:#510924"/><path d="M99.2,21.3a21,21,0,0,0,2.7,7.6A12.6,12.6,0,0,1,98.6,18c3.5,3.9,10.3,4.7,11.3,10.8-2.9-3.5-7.1-6.3-10.7-9.1A8.5,8.5,0,0,0,99.2,21.3Z" style="fill:#eb2d64"/><path d="M123,33.3V34c-1.6-4.8-8.1-5.5-7.6-11.3-2.2.8-2.1,3.5-2.5,5.5-.4-3.4,1.1-6.1,3.8-8.1C113.5,26.7,121.8,28,123,33.3Z" style="fill:#e93067"/><path d="M94.8,28.3l1.4,1.6a23.6,23.6,0,0,1-10-6.4A34.1,34.1,0,0,1,94.8,28.3Z" style="fill:#f52b66"/><path d="M135.1,44.5c2.5-3.1,5.6-5.4,9.8-5.6A39.6,39.6,0,0,0,135.1,44.5Z" style="fill:#f03768"/><path d="M88.2,26.3,89.4,28v.2c-2.1-1.7-4.3-3.2-6.2-5C84.3,23.1,86.2,24.2,88.2,26.3Z" style="fill:#ee2866"/><path d="M98.8,28.5c-1,.7-5.3-3.2-4.9-4.9A17.6,17.6,0,0,0,98.8,28.5Z" style="fill:#e43f6c"/><path d="M111.7,28.5c0,.6.5,1.2.3,1.8-1.1-1-2.2-3.1-1.2-4.6Z" style="fill:#e1396e"/><path d="M74.8,67c-.1,1.6-1.7,2.7-2.5,4.2C69.6,74.4,73.3,67.2,74.8,67Z" style="fill:#d92c5f"/><path d="M76.1,71.2a3.9,3.9,0,0,1,1.6-1.8A41.2,41.2,0,0,0,75,76.5C74.3,74.8,75.7,72.9,76.1,71.2Z" style="fill:#610d32"/><path d="M76.1,71.2c0,1.5-1.3,3.8-1.3,5.7A7.4,7.4,0,0,1,76.1,71.2Z" style="fill:#cd3263"/><path d="M163.4,148c2.6,4.2-1.3,10.7-5.2,12.8V159c2.1-3.5,2.1-8.6,4.6-12Z" style="fill:#602954"/><path d="M171.8,132.2c-7.8,2.3,3.9,13.9-2.1,8.7-.8,2.1.1,6.6-3.1,6.4-.5-.9.7-1.7.9-2.5s.5-3.6.9-5.4c.2,5.5-4.6,6.7-3,4.2,3.2-1.8,1.4-6,2.5-9S171.8,129.7,171.8,132.2Z" style="fill:#f8396b"/><path d="M147.6,150.2c-1.5-1.5-3.7-5.1-6-3.7,3.6-5.9,7.9,0,10.7,3.5C149.7,151.4,150,149.6,147.6,150.2Z" style="fill:#712f59"/><path d="M153.5,164.1c-1.8-.1-1.7,1.9-2.7,1.9,1.5-4.3,3.8-9,7.4-12-.8,1.3-.2,8.8-2.2,7.1C156.5,158,153.9,163.3,153.5,164.1Z" style="fill:#573361"/><path d="M152.3,150c-3.1-2.6-6.1-8.8-10.2-4.2,1.3-2,4.6-5.3,6.5-2.4S155.4,149.5,152.3,150Z" style="fill:#fa3966"/><path d="M147.6,150.2c1.9-1.3,1.9.6,3.6.1-1.3,2.7-8,3.4-10.8,5.6C142.8,153.9,144.9,151.7,147.6,150.2Z" style="fill:#120d1c"/><path d="M158.2,154c-3.3,3.3-5.3,7.6-7.3,11.6,1.1-5.2,3.8-10.7,8-13.9C158.7,152.4,158.5,153.2,158.2,154Z" style="fill:#f43c64"/><path d="M162.9,147c-2,4-2.7,8.4-4.3,12.4-.2-4.5,1.8-9.5,4-13.5Z" style="fill:#f43b67"/><path d="M145.4,153.4c3.7-1.5,8.5-4.1,12.4-2.2a2.1,2.1,0,0,1-3.1.9C151.5,151.8,148.5,152.9,145.4,153.4Z" style="fill:#f13769"/><path d="M167.7,144.9a4.8,4.8,0,0,0-1,2.3l.7-.2c-.3,1.1-1.7,1.5-2.3,2.4-1.3-1.5-2.3-7.5.7-6.1-.7.7-1.1,1.4.2,1.3-.7.2-.5,2.1.3,1.5S166.9,144.7,167.7,144.9Z" style="fill:#7e2a52"/><path d="M146.9,153.1c3-.9,6.8-2.3,9.6-.6-.6.6-.9,1.7-2,1.6C154,152.1,148.7,153,146.9,153.1Z" style="fill:#76244f"/><path d="M164.8,142.8c-1.1,1.6-.5,3.4-.5,5.1C160.2,140.1,170.2,138.8,164.8,142.8Z" style="fill:#f7406b"/><path d="M151.2,158.3c-.6.1-1.2.8-1.8.2a26.7,26.7,0,0,1,4.9-3C153.9,157,152.5,157.6,151.2,158.3Z" style="fill:#ed3966"/><path d="M54.3,161.4a8.5,8.5,0,0,1,0,3.2c-1.1-7.4-5-13.2-9.7-18.7a46.3,46.3,0,0,1,3.7,20.8h-.2c-1.1-5-1.5-10.2-2.8-15.3-1-2.8-2.2-5.4-2.1-8.3C48.6,147,53.1,154.8,54.3,161.4Z" style="fill:#0c040e"/><path d="M53.9,130.1c3.5,1.4-.2,1.7-1.1,3.6s-5.9,5-9.3,3.7C48.2,136.2,50.3,132.1,53.9,130.1Z" style="fill:#fb3b6d"/><path d="M40.5,141.1c-2.5-5.1,14.7,1,6.7,3.4C45.1,143.1,43.5,139.8,40.5,141.1Z" style="fill:#613560"/><path d="M40.8,158.9c1-3.8-.8-9.1.7-12C44.9,152.7,37.9,174.2,40.8,158.9Z" style="fill:#04030a"/><path d="M40.5,141.1c2-2.5,9.8,4.7,6.6,5.8C45.4,144.4,42.9,142.8,40.5,141.1Z" style="fill:#2d1c39"/><path d="M47.3,139.2c1.6,1.1,1.3,1.2,1.7-.5,3,2.2,9.7,14.1,1.3,4.4C49.4,142,46.5,140.8,47.3,139.2Z" style="fill:#151121"/><path d="M41,149.5v3.3c-.7-4.3-3.9-8.9-2.5-13.2A52.8,52.8,0,0,1,41,149.5Z" style="fill:#f4376a"/><path d="M43.3,145.8c.8,1.1,3.8,9.8,2.2,7.7S36.3,136.4,43.3,145.8Z" style="fill:#f3376d"/><path d="M47.3,140.2c.6.9,2.2,1.6,2.3,2.6-2.6-2-6.4-4.9-9.7-2.6C40,136.6,45.6,138.9,47.3,140.2Z" style="fill:#f14273"/><path d="M37.5,139.1a10.5,10.5,0,0,0-2-4.6C35,131.4,39.4,136.6,37.5,139.1Z" style="fill:#f4386a"/><path d="M41.2,145.1a12.6,12.6,0,0,1,2.4,3.6C41,150.3,41.8,146.7,41.2,145.1Z" style="fill:#74234c"/><path d="M75.7,57.1a9,9,0,0,0-2.7,1c1.2-2.1,2.5-2.8,4.8-2.2Z" style="fill:#e8406c"/><path d="M147.8,53.1c-5,.6.2-4.7-2.4-3.8,1.5-3-2.8-1.5-4.2-1.2,3.1-2.4,8.3-3.8,12.2-4a29,29,0,0,1-7.3,8c.7.2,1.6.1,2,.7Z" style="fill:#2b0c21"/><path d="M152.3,56c-15.5,1.7-7.6-3.9,2.6-1.7Z" style="fill:#571631"/><path d="M153,44.7l.3-.6c-5.4.5-10.2,3.5-15.2,5,3.4-4.1,10.6-6.3,16-5.4C153.7,44,153.3,45.1,153,44.7Z" style="fill:#5b132f"/><path d="M153,44.7v.2c-1.2,2-2.2,4.2-4.2,5.7-.3.6,1.4.5,2.1.8-1.6,1.3-3.4-.3-4.9.7A60.5,60.5,0,0,0,153,44.7Z" style="fill:#ed2c5d"/><path d="M154.1,43.7c-4.5-.7-9,1.6-12.7,2.5C144.7,43.3,151,42.2,154.1,43.7Z" style="fill:#e83264"/><path d="M154.9,54.3a10.5,10.5,0,0,1-7-.8c2.9-1.5,5.2.6,8.4,0Z" style="fill:#ef2c67"/><path d="M149.4,61.6c2.6-1.4,4-4,5.8-6.1C155.2,57.6,151.4,61.1,149.4,61.6Z" style="fill:#c92c50"/><path d="M77,48.8h1.3c-2.6,1.2-6.7,2.7-7,5.8.1.3-.6,1.3-.9,1.3C69.7,52.4,73.5,49.3,77,48.8Z" style="fill:#e93363"/><path d="M78.5,46.4h0c-3.7-.2-6.8,1.3-9.4,4.6C70.4,48.1,75.5,44.3,78.5,46.4Z" style="fill:#e8366c"/><path d="M76.9,44c.7.3,1.4.3,2,.9a.7.7,0,0,0-.1.6h0c-.1.9-3.7-1.1-4.9-1.3A7.7,7.7,0,0,1,76.9,44Z" style="fill:#e83271"/><path d="M70.2,55.3c-.2,1.1,1.3-.1.9-.6s1.8-3,3-3.8C73.8,51.8,70.4,57.5,70.2,55.3Z" style="fill:#701435"/><path d="M83.5,39.6c1,1.2,2.4,2.1,3.1,3.5-4.4-.2-6.8-4.4-10.4-.3a31.5,31.5,0,0,0-4.4-1.1c2.8-2,7.3-3.4,10.4-1.2C82.5,40.3,82.9,39.7,83.5,39.6Z" style="fill:#45162f"/><path d="M82.4,40.3l.6.7c-4.3-3-7.9-.5-12.2.9C74.1,39.3,79.3,36.3,82.4,40.3Z" style="fill:#f13069"/><path d="M83.5,39.6V40c-2.7-2.5-3.4-8.2-2.4-10.9a11.5,11.5,0,0,0,1.4,2.7l-.6-.5A11.4,11.4,0,0,0,83.5,39.6Z" style="fill:#ec2e66"/><path d="M83.9,26.3c.4,2.4.4,4.9,1,7.3C83,32,83.2,28.2,83.9,26.3Z" style="fill:#d32e63"/><path d="M66.6,124.9c-.4-.1-.8-.7-.8.4s-3.4-2-4.4-3,.7,2.8.1,3.6c-1.9-1.7-2.1-4.2-2.2-6.6s1.6-.8,1.9-1.8.3-.6.7-.6A28.1,28.1,0,0,0,66.6,124.9Z" style="fill:#4e3c59"/><path d="M61.9,116.9c-.3,1.3-2,1.3-2.4,2.4s1,2.6.1,3.6c-2.4-3.3-.5-8.7,2.3-11C62.2,113.5,60.9,115.2,61.9,116.9Z" style="fill:#b42c4d"/><path d="M57.2,125.2c.8-.3,1.1-1.1,1.7-1.5,1.1,1.9,2.8,3.2,4.2,5A12.3,12.3,0,0,1,57.2,125.2Z" style="fill:#533e5c"/><path d="M76.5,62.3c-1.3,2.2-3.3,4.8-6,5.2l4.2-3.9-1.4-.4C74.3,62.5,75.5,62.7,76.5,62.3Z" style="fill:#d82758"/><path d="M72.5,62.8c0-1.4,1.4-5.1,2.8-4.9C74.7,59.5,73.1,60.8,72.5,62.8Z" style="fill:#d72960"/><path d="M35.6,137.7l-.4,1.2a3.5,3.5,0,0,1-2-2.8l-.5,1c-1.4-.9.4-4.7-2.2-3a6.2,6.2,0,0,1,1.7-2.2c1.3-.5,1-1.9,1.9-2.8C34.4,132.1,33.1,135.6,35.6,137.7Z" style="fill:#5d1939"/><path d="M31.1,133.3c-3,3.5-5.6,3.1-.6-.6C30.6,133.1,30.4,133.6,31.1,133.3Z" style="fill:#9e5377"/><path d="M145.4,127c.2,2.7-1.8,4.8-3.3,6.8.9-2.1,1.4-3.7-.1-5.9C142.7,124.9,144,122.2,145.4,127Z" style="fill:#692e4a"/><path d="M146.1,130.7c1.6,1.8,2.7,3.9,1.8,6.3C147.2,132.7,140.8,135.2,146.1,130.7Z" style="fill:#7d294a"/><path d="M78.8,45.5c-.7-1,.9-.7,1.3-.1S78.8,44.6,78.8,45.5Z" style="fill:#350412"/><path d="M47.1,146.9c.9,0,.2-1,.8-1.2,2.9,2.9,4.3,7.3,7.6,10,3.5.5.7-8.7,1.3-11,2.1,6.3,3.3,13.2.9,19.5-.2,1.1-.8,1.8-1.3.5s-.6-1.8-1.6-2.1C53.7,156.9,50.2,151.8,47.1,146.9Z" style="fill:#111c3f"/><path d="M48.3,162.3c-.4-3.8-1.3-7.6-1.9-11.3a16.3,16.3,0,0,1,4.8,9.8c.3-1.1-.4-2.1.1-3a10.9,10.9,0,0,1,1.8,9.4c-1.3-.1-1.3,2.6-3.1,1.5s-2.2-4.5-.6-5.9S48.9,161.4,48.3,162.3Z" style="fill:#111c3f"/><path d="M47.3,161.3c.4,2.2,1.1,7.1-1.9,7.2-2.6-3.5.6-9.6-1-14C46.3,155.7,46.2,159.4,47.3,161.3Z" style="fill:#111c3f"/><path d="M41.7,160c.6-2.8.1-6,.8-8.6,1.2,4.5,3.5,13.6-2.4,15.1C40.5,164.3,41.8,162.2,41.7,160Z" style="fill:#111c3f"/><path d="M51.3,157.8A7.8,7.8,0,0,1,51,162c-.2-6.9-5.2-10.5-6.8-16.6A22.3,22.3,0,0,1,51.3,157.8Z" style="fill:#28416f"/><path d="M42.5,151.4l-.3.5a25.4,25.4,0,0,0-.4-2.9c3.1-1.5,2.7,3.7,4.3,4.9l1.2,7.4c-1.8-3.6-2.7-7.7-4.8-11.4C42.2,150.5,42.6,151,42.5,151.4Z" style="fill:#38345d"/><path d="M158.2,160.8c3.8-2.2,4.4-6.4,6.5-9.9,1.2,2.8,6.3,14.2.9,13.9-2.9-2.4-4.5,1.1-7,2.3A14.9,14.9,0,0,1,158.2,160.8Z" style="fill:#262e5a"/><path d="M56.8,144.7c2.8,18.7-3.8,9.8-9.6-.3.7-.6,2.1-1,2.5-1.9,1.9,1.3,2.9,3,4.8,4.7a42.7,42.7,0,0,0-4-7c1.2-1.7,6.2-4,3.3-5.9.9.6,1.6,1.4,2.5.1s1.9-.7,2.2-1.9c.7,1.3,1.9,2.3,2.7,3.5-.4,3.9,1,9-.9,12.3-2.1-2.2-2.3-7.4-5-9.1C55.1,140.8,56.5,142.9,56.8,144.7Z" style="fill:#26406e"/><path d="M88.9,57.6c.6-2.6,3.4-3.3,5.6-4.2.2.6-.4.9-.3,1.4,2.4-.3,7.3-4.6,7.5.1,6.5-7.5,30.3,1.8,22.7,11.8-1.5-2.4-2.8-5.3-6-6.2-.3-.1-.6-.2-.7-.6s-2-.3-2.9-.3-.6-.7-1.2-.4-1.7,0-2.3.8-.8.2-.7-.4-.8,1.7-1.1.4c-.5,5.9,2.2,2.4-3.3,6.2-2.3,2.4-1.8,3.2-5.3,1.8-.7-3.3-2.3-5.5-.4-8.5-.7.8-.6-.1-.8-.6s-.8-.9-1.3-1.2-.8.5-1.3.2C94.7,56.2,91.5,57.3,88.9,57.6Z" style="fill:#b05550"/><path d="M109.7,64.2c3-1.6,8.7.1,10.9,2.4-.7.1-.7.4-.3.9,1.8,2.3,5.3,8.3,3.4,10.2-.9-5.4-5.8-12.6-11.9-7.9-2.8,1.7-3.6,5-5.2,7.5C101,80.5,107.6,65.8,109.7,64.2Z" style="fill:#5e192e"/><path d="M120.6,66.6c-3.1-4.1-14.4,0-10.9-7.2v1.2c.6-.5.4-1.4,1.2-1.8l-.4,1.8c1-1.9,2.8-.9,3.9-1.7l-.6.7c.9-.2,4.7-1,4,.4,5,1.6,7.4,6.8,7.3,11.7C123.5,70.2,122.6,67.9,120.6,66.6Z" style="fill:#030204"/><path d="M106.6,77.3c6.4-19.6,23.8-3.2,14.8,10.2-.1.7,2.8.4,3.5,1.9-1.5-.7-2.9-1.7-5-.7a5.4,5.4,0,0,1,3.3.7,5.2,5.2,0,0,0-5,.3C110.3,93.3,103.5,84.8,106.6,77.3Z" style="fill:#0b0307"/><path d="M120.4,91.1c1.7-.7,2.6.7,2,2.3s-2.8,0-4.1.1a.6.6,0,1,1-.1-1.2,1.7,1.7,0,0,0,1.5-.5c-.5-.3-1.1.3-1.4-.3A2.6,2.6,0,0,1,120.4,91.1Z" style="fill:#d9626c"/><path d="M105.2,90.8c-.5.6-.8,1.4-1.9,1.5a3.7,3.7,0,0,0,.1-5.7C104.6,86.4,105.6,88.8,105.2,90.8Z" style="fill:#25040a"/><path d="M99.5,81.5c-1.8-.3.1-1.8,1.1-1.7S100.1,81.3,99.5,81.5Z" style="fill:#f47877"/><path d="M120.4,91.1a13.3,13.3,0,0,1-4,.4v-.2h2.3V91h-4C116.8,90.1,118.6,90.9,120.4,91.1Z" style="fill:#65121b"/><path d="M96.9,81.8c1.6-.5,3.7.4,5,2.2C100.3,83,98.9,81.8,96.9,81.8Z" style="fill:#030205"/><path d="M143.2,124.4c-3.2,11.5-19.6,16.1-29,17.8a91.2,91.2,0,0,0,18.9-13.1C134.5,127.5,142.5,119.7,143.2,124.4Z" style="fill:#786f7f"/><path d="M144.7,54.5c-3.7,2.1,5.8,1.8,7.2,1.6-6.7,3.3-14.3.9-21.1-.4C135.4,56,140.1,54.3,144.7,54.5Z" style="fill:#1d1a2e"/><path d="M80.7,124.8a87.8,87.8,0,0,0,3.2,9.9c-4.2-4.4-15-13.3-4.8-17.7C76.2,119.5,76.9,122.9,80.7,124.8Z" style="fill:#7e7787"/><path d="M95.9,80.1c-3.9,6.2-7.4-5.1-1.6-4.9C96.6,75.8,96.2,78.3,95.9,80.1Z" style="fill:#030305"/><path d="M93.7,40.1A9,9,0,0,1,97.3,42,15.5,15.5,0,0,1,93.7,40.1Z" style="fill:#1d1a2e"/><path d="M125.3,120.1c2.4,1,11,4.2,7.7,7.2A36.9,36.9,0,0,0,125.3,120.1Z" style="fill:#f63e6d"/><path d="M81.9,83.8c.5.9,2,.7,2.1,1.7C83.4,88.6,77.8,85,81.9,83.8Z" style="fill:#e85876"/><path d="M88.9,57.6c3.2-1,6.3-1.5,9.4.7L98,56.8a5.7,5.7,0,0,1,1.4,2.3l.3-1.3.4,2.1.6-1.3c.2,8.4-10.5-2.2-16.2,7.3-.3.3-.5.4-.4-.1.8-2.8,1.7-6.3,5-7C88.6,58.5,88,58.2,88.9,57.6Z" style="fill:#020203"/><path d="M76.6,166.9c-1.2-7.2-.3-14.3-.9-21.6C81.4,147.9,75.9,161.3,76.6,166.9Z" style="fill:#7e7888"/><path d="M143.2,124.4c-.8-2.4-4-1-5.2.4,1.4-1.6,2.7-3.1,3.2-5.2,2.5,0,4.1,4.8,4.2,7.4C144.7,126.1,144.6,124.4,143.2,124.4Z" style="fill:#ad425d"/><path d="M133.4,101.9c-.7.3-1.3-1.7-2-.1C129.4,100.7,134.3,99.7,133.4,101.9Z" style="fill:#330b12"/><path d="M115.1,153.9c-.1-.8.6-.9,1.1-1.1a41,41,0,0,1-.5,8.6C114.5,159.2,115.5,156.4,115.1,153.9Z" style="fill:#87828e"/><path d="M131.4,101.8c-.5-.8.7-.9,1.2-.8S132.2,102.5,131.4,101.8Z" style="fill:#d57384"/><path d="M24.9,137.4l2.3-1.2c-.4,1.6,4.8,9.9,2,8.2-.8-1.1-1.3-3.1-2.5-3.5-.8,1.5,2.3,3.9.9,4.9S23.6,138.3,24.9,137.4Z" style="fill:#080f27"/><path d="M14.6,138.5c2.9-.3,5.4,7,4.5,9.1-1.4-1-.5-4.3-2.3-5.8.5,1.5,1.3,4.6,0,5.5s-.6-.1-.6-.5C17.1,143.8,15,141.2,14.6,138.5Z" style="fill:#070d25"/><path d="M25.2,143.5c.3.9,2.1,4.4,0,3.2-.6-1.1-4.5-10-1.6-7.3C24.2,140.7,24.7,142.1,25.2,143.5Z" style="fill:#080f27"/><path d="M23.5,145.5c.3.9.9,2.3-.6,2s-1.2-4.9-2.5-7.1C20.3,135.5,23.1,144.6,23.5,145.5Z" style="fill:#080f27"/><path d="M12.8,138c1.7,2,3.7,6.6,2,9-.6-2.5-.6-5.9-2.5-8.4C12.1,138.1,12.4,137.9,12.8,138Z" style="fill:#070d25"/><path d="M12.8,142.8c-2.7-5.4-1.9-5.4.5-.2.9.7-.4,5.2-.7,2.7A4.2,4.2,0,0,0,12.8,142.8Z" style="fill:#050204"/><path d="M28.5,135.4l1.5-1c.2,2.7.5,5.3,2.1,7.6.4.5.4.9-.1,1.2s-.8-.3-.9-.6A12.7,12.7,0,0,1,28.5,135.4Z" style="fill:#080f27"/><path d="M31.1,134c1.4-3.7,1.1,5.2,3.1,5.7C34.5,143.8,30.1,135.7,31.1,134Z" style="fill:#1a1122"/><path d="M27.9,85.8c.9-2.3,3.5-6.8,6.5-4.3.6.5.1,1.1-.1,1.5-1.6,3.2,0,6.7-1.5,9.9C31.8,90.1,31.3,86.7,27.9,85.8Z" style="fill:#bc343f"/><path d="M27.9,85.8c5.6,1.1,5,8.6,3.9,12.8a8,8,0,0,1,.5-6.4,10.3,10.3,0,0,1-5.2-4.3Z" style="fill:#902735"/><path d="M165.1,149.4c.4-2.1,2.3-.6,2.4.7,1-1.6,1.8-3.7,2.7-5.1,2,1.3-.3,3.5-1,5s.8,2.7,1.1.9.7-2.9,1.8-2.7-2.6,3.8-1.4,5.3,1.5-3.1,2.8-3.1-1,2.8-1.3,4.1-1.9-1.3-3.4-1.9a18.2,18.2,0,0,0,6.2,5.9C170.5,158.1,167.2,153.2,165.1,149.4Z" style="fill:#2d3663"/><path d="M170.2,145a19,19,0,0,1-2.7,5.3l-1.1-2c-.5-1.1,1.1-.5,1-1.3,2.4-1.3,1.2-4.4,2.2-6.5C171.6,141.9,170.8,143.1,170.2,145Z" style="fill:#28122a"/><path d="M176,111c-1.4-3.4,1.1-21.6,5.5-11.5C179.6,106.2,175.4,101.5,176,111Z" style="fill:#98303a"/><path d="M181,98.5c-2.6-5.8-5.9,3.9-5,6.8s-.1,3-.3,4.5C174.9,104.6,174.4,84.3,181,98.5Z" style="fill:#d43344"/><path d="M194.2,116.9c2.3,3.2-15.3,3.3-12.2,1.8l-1.8.3C185.5,114.4,187.7,115.3,194.2,116.9Z" style="fill:#8d343c"/><path d="M99.2,21.3a4.9,4.9,0,0,1-.3-2.2c2.7,2.9,6.6,4.2,9,7.5C105.2,25,101.8,21.6,99.2,21.3Z" style="fill:#5e0b26"/><path d="M135.5,39.4c.3-3.3-4.2-1.9-2.7-5.7a25.1,25.1,0,0,0,.4,2.7c.9-.6,1.4-1.8,2.3-2.5A12.8,12.8,0,0,1,135.5,39.4Z" style="fill:#590f2c"/><path d="M167.7,144.9c-.9.4-1,1.4-1.9,1.8-1.7-3.7,1.6.5,2.6-8A16.2,16.2,0,0,1,167.7,144.9Z" style="fill:#4b0824"/><path d="M110.2,58.6c3.2-2.3,8.1-1.4,10.9,1.7A12.3,12.3,0,0,0,110.2,58.6Z" style="fill:#0f0304"/><path d="M99.8,57.3c-2.8-1.8-5.5-1.4-8.5-.7C93.9,54.8,98.2,54.7,99.8,57.3Z" style="fill:#150303"/><path d="M108.3,86.8c-5.3-6.7,3.3-23.3,11.6-15.1,3.7,3.9,4.5,12.1.6,15.7C125.6,68.4,106.5,67.8,108.3,86.8Z" style="fill:#827995"/><path d="M121.6,82.5c1.2,9.6-15.7,9.7-13.5.2C111.2,88.8,118.1,87.2,121.6,82.5Z" style="fill:#b2a2b3"/><path d="M93.6,81.5c-1.6-.1-2.6-2.5-1-3.4,1.1,3.5,1.4.5,2.7,1.1S94.3,81.5,93.6,81.5Z" style="fill:#194d7c"/><path d="M94.8,78.2a.8.8,0,0,1-.1-1.6C95.9,76.6,95.9,78.3,94.8,78.2Z" style="fill:#d9f0f6"/><path d="M121.6,82.5c-3.6,5.3-10.4,6.6-13.5.2C107.8,69.9,123,69.1,121.6,82.5Z" style="fill:#cdcbd9"/><path d="M93.7,81.3c-.3,0-.6-.1-.6-.5S94.9,81.2,93.7,81.3Z" style="fill:#a3dbe6"/><path d="M116.8,82.2c.3,3.8-5.2,5.1-5,.6S116.9,77.6,116.8,82.2Z" style="fill:#030405"/><path d="M113,84.7c-1.5-.3-.4-3.9.1-2.2s1.4.4,2.5.4-.4,2.1-1.3,2.2S113.5,84,113,84.7Z" style="fill:#0c3e6c"/><path d="M115.4,80.6c1.2,0,1,1.6-.1,1.6S114.4,80.5,115.4,80.6Z" style="fill:#c7deeb"/><path d="M113,84.7c-.3-1.2,1.6-.5,1.3.4A1.1,1.1,0,0,1,113,84.7Z" style="fill:#a7e3ef"/></svg>