<svg width="200" height="200" viewBox="0 0 200 200" fill="none" xmlns="http://www.w3.org/2000/svg">
<g clip-path="url(#clip0_4749_1983)">
<path d="M10.4688 100C10.4688 149.446 50.5523 189.529 99.9981 189.529C149.444 189.529 189.527 149.446 189.527 100C189.527 50.5542 149.444 10.4706 99.9981 10.4706C50.5523 10.4706 10.4688 50.5542 10.4688 100Z" fill="url(#paint0_linear_4749_1983)"/>
<mask id="mask0_4749_1983" style="mask-type:luminance" maskUnits="userSpaceOnUse" x="0" y="0" width="200" height="200">
<path d="M0 -2.98023e-06H200V200H0V-2.98023e-06Z" fill="white"/>
</mask>
<g mask="url(#mask0_4749_1983)">
<path d="M114.935 99.3991C114.931 99.5191 114.926 99.6391 114.918 99.7604C114.913 99.8444 114.905 99.9297 114.897 100.014C114.885 100.136 114.87 100.26 114.853 100.384C114.841 100.47 114.83 100.554 114.817 100.64C114.795 100.77 114.771 100.9 114.746 101.032C114.73 101.115 114.715 101.196 114.697 101.279C114.665 101.424 114.627 101.571 114.59 101.718C114.571 101.788 114.555 101.859 114.535 101.931C114.478 102.138 114.415 102.346 114.346 102.556C114.342 102.57 114.338 102.583 114.334 102.596C114.259 102.822 114.177 103.05 114.089 103.279C114.062 103.347 114.033 103.416 114.006 103.484C113.941 103.647 113.875 103.81 113.803 103.974C113.766 104.06 113.725 104.148 113.685 104.236C113.618 104.384 113.55 104.532 113.477 104.683C113.431 104.778 113.382 104.874 113.334 104.97C113.261 105.115 113.186 105.262 113.107 105.408C113.055 105.507 113.001 105.607 112.946 105.706C112.865 105.852 112.782 106 112.697 106.15C112.639 106.25 112.581 106.35 112.521 106.451C112.43 106.604 112.335 106.758 112.239 106.912C112.178 107.011 112.118 107.108 112.055 107.207C112.034 107.242 112.01 107.276 111.987 107.311C111.986 107.31 111.986 107.308 111.985 107.308L110.538 109.379C108.217 112.472 104.986 115.823 100.898 119.358C96.294 123.339 93.774 126.414 92.394 128.579C92.1753 127.238 92.05 125.871 92.0206 124.5L92.0153 124.304C92.0113 124.16 92.0086 124.015 92.0086 123.87C92.0086 119.294 94.154 113.459 96.1566 110.846C98.1166 108.288 100.514 105.748 102.943 102.92L105.025 100.419C106.785 98.2164 108.498 95.8084 110.01 93.0764C110.655 93.1017 111.293 93.1644 111.913 93.2737C111.915 93.2751 111.918 93.2764 111.921 93.2791C111.937 93.2897 111.958 93.3017 111.982 93.3177C111.991 93.3243 112.003 93.3324 112.014 93.3391C112.037 93.3537 112.061 93.3697 112.089 93.3883C112.105 93.3991 112.125 93.4136 112.142 93.4257C112.169 93.4444 112.195 93.4629 112.225 93.4844C112.247 93.5017 112.274 93.5217 112.298 93.5404C112.327 93.5629 112.357 93.5844 112.387 93.6097C112.415 93.6324 112.446 93.6576 112.475 93.6817C112.507 93.7084 112.539 93.7337 112.573 93.7629C112.605 93.7909 112.639 93.8216 112.673 93.8511C112.707 93.8817 112.741 93.9111 112.775 93.9444C112.81 93.9777 112.847 94.0136 112.883 94.0484C112.919 94.0831 112.954 94.1164 112.99 94.1537C113.029 94.1924 113.067 94.2351 113.106 94.2764C113.142 94.3151 113.178 94.3523 113.214 94.3924C113.254 94.4377 113.294 94.4871 113.334 94.5337C113.37 94.5764 113.405 94.6163 113.441 94.6617C113.481 94.7124 113.522 94.7671 113.562 94.8216C113.597 94.8684 113.633 94.9136 113.667 94.9617C113.709 95.0189 113.747 95.0803 113.787 95.1404C113.821 95.1909 113.855 95.2391 113.887 95.2909C113.927 95.3549 113.966 95.4257 114.006 95.4924C114.037 95.5457 114.069 95.5977 114.099 95.6523C114.139 95.7243 114.175 95.8031 114.213 95.8791C114.241 95.9351 114.27 95.9884 114.297 96.0471C114.335 96.1311 114.37 96.2189 114.406 96.3071C114.429 96.3629 114.454 96.4164 114.475 96.4737C114.513 96.5711 114.545 96.6751 114.578 96.7777C114.595 96.8311 114.614 96.8804 114.631 96.9351C114.679 97.0937 114.722 97.2576 114.759 97.4284C114.799 97.6124 114.833 97.7991 114.859 97.9871C114.869 98.0484 114.873 98.1111 114.881 98.1737C114.895 98.3017 114.91 98.4311 114.919 98.5617C114.925 98.6377 114.926 98.7137 114.929 98.7897C114.934 98.9097 114.937 99.0296 114.937 99.1511C114.941 99.2351 114.938 99.3177 114.935 99.3991ZM111.401 90.3404C112.058 88.9191 112.659 87.4164 113.182 85.8137C116.409 75.9164 110.617 68.2911 106.782 62.6963C104.115 58.8044 94.5046 51.8564 94.5046 51.8564C94.5046 51.8564 104.101 70.0977 82.4687 87.2617C59.3113 105.636 70.4527 135.912 94.73 140.963L94.8686 140.994C95.7793 141.192 96.714 141.263 97.6446 141.203C97.6926 141.203 97.742 141.204 97.79 141.204C98.0046 141.204 98.2233 141.204 98.438 141.195H98.4806C103.426 141.083 108.287 139.707 112.537 137.216C112.798 137.063 113.061 136.903 113.322 136.738V136.846L115.189 135.462C122.601 129.967 127.059 121.056 128.026 111.891C129.453 98.3697 121.357 89.9337 111.401 90.3404Z" fill="white"/>
</g>
</g>
<defs>
<linearGradient id="paint0_linear_4749_1983" x1="10.4688" y1="100" x2="189.527" y2="100" gradientUnits="userSpaceOnUse">
<stop stop-color="#79E49B"/>
<stop offset="0.9368" stop-color="#309287"/>
<stop offset="1" stop-color="#309287"/>
</linearGradient>
<clipPath id="clip0_4749_1983">
<rect width="200" height="200" fill="white"/>
</clipPath>
</defs>
</svg>
