<svg width="200" height="200" viewBox="0 0 200 200" fill="none" xmlns="http://www.w3.org/2000/svg">
<g clip-path="url(#clip0_6377_18487)">
<path fill-rule="evenodd" clip-rule="evenodd" d="M55.5555 22.2222H144.444V44.4444H155.555V55.5555H177.778V144.444H155.555V155.555H144.444V177.778H55.5555V155.555H44.4444V144.444H22.2222L22.2222 55.5555H44.4444V44.4444H55.5555V22.2222Z" fill="#FFE3B3"/>
<g filter="url(#filter0_d_6377_18487)">
<rect width="11.1111" height="11.1111" transform="matrix(-1 0 0 1 144.444 22.2227)" fill="#038175"/>
<rect x="55.5554" y="22.2227" width="11.1111" height="11.1111" fill="#038175"/>
<rect width="11.1111" height="11.1111" transform="matrix(4.37114e-08 -1 -1 -4.37114e-08 177.778 77.7778)" fill="#038175"/>
<rect width="11.1111" height="11.1111" transform="matrix(1 8.74228e-08 8.74228e-08 -1 122.222 177.778)" fill="#038175"/>
<rect width="11.1111" height="11.1111" transform="matrix(4.37114e-08 -1 -1 -4.37114e-08 177.778 144.444)" fill="#038175"/>
<rect width="11.1111" height="11.1111" transform="matrix(-1 0 0 1 133.333 22.2227)" fill="#038175"/>
<rect x="66.6665" y="22.2227" width="11.1111" height="11.1111" fill="#038175"/>
<rect width="11.1111" height="11.1111" transform="matrix(4.37114e-08 -1 -1 -4.37114e-08 177.778 66.667)" fill="#038175"/>
<rect width="11.1111" height="11.1111" transform="matrix(1 8.74228e-08 8.74228e-08 -1 133.333 177.778)" fill="#038175"/>
<rect width="11.1111" height="11.1111" transform="matrix(4.37114e-08 -1 -1 -4.37114e-08 177.778 133.333)" fill="#038175"/>
<rect x="77.7776" y="11.1113" width="11.1111" height="11.1111" fill="#038175"/>
<rect x="188.889" y="77.7778" width="11.1111" height="11.1111" transform="rotate(90 188.889 77.7778)" fill="#038175"/>
<rect x="88.8887" y="11.1113" width="11.1111" height="11.1111" fill="#038175"/>
<rect x="188.889" y="88.8892" width="11.1111" height="11.1111" transform="rotate(90 188.889 88.8892)" fill="#038175"/>
<rect x="100" y="11.1113" width="11.1111" height="11.1111" fill="#038175"/>
<rect x="188.889" y="100" width="11.1111" height="11.1111" transform="rotate(90 188.889 100)" fill="#038175"/>
<rect x="111.111" y="11.1113" width="11.1111" height="11.1111" fill="#038175"/>
<rect x="188.889" y="111.111" width="11.1111" height="11.1111" transform="rotate(90 188.889 111.111)" fill="#038175"/>
<rect width="11.1111" height="11.1111" transform="matrix(-1 0 0 1 155.555 33.3335)" fill="#038175"/>
<rect x="44.4443" y="33.3335" width="11.1111" height="11.1111" fill="#038175"/>
<rect width="11.1111" height="11.1111" transform="matrix(4.37114e-08 -1 -1 -4.37114e-08 166.667 155.556)" fill="#038175"/>
<rect width="11.1111" height="11.1111" transform="matrix(-1 0 0 1 166.667 44.4448)" fill="#038175"/>
<rect x="33.3333" y="44.4448" width="11.1111" height="11.1111" fill="#038175"/>
<rect width="11.1111" height="11.1111" transform="matrix(4.37114e-08 -1 -1 -4.37114e-08 155.555 166.667)" fill="#038175"/>
<rect width="11.1111" height="11.1111" transform="matrix(1 -8.74228e-08 -8.74228e-08 -1 55.5554 177.778)" fill="#038175"/>
<rect width="11.1111" height="11.1111" transform="matrix(4.37114e-08 1 1 -4.37114e-08 22.2222 122.222)" fill="#038175"/>
<rect width="11.1111" height="11.1111" transform="matrix(4.37114e-08 1 1 -4.37114e-08 22.2222 55.5557)" fill="#038175"/>
<rect width="11.1111" height="11.1111" transform="matrix(1 -8.74228e-08 -8.74228e-08 -1 66.6665 177.778)" fill="#038175"/>
<rect width="11.1111" height="11.1111" transform="matrix(4.37114e-08 1 1 -4.37114e-08 22.2222 133.333)" fill="#038175"/>
<rect width="11.1111" height="11.1111" transform="matrix(4.37114e-08 1 1 -4.37114e-08 22.2222 66.667)" fill="#038175"/>
<rect x="122.222" y="188.889" width="11.1111" height="11.1111" transform="rotate(180 122.222 188.889)" fill="#038175"/>
<rect x="11.1111" y="122.222" width="11.1111" height="11.1111" transform="rotate(-90 11.1111 122.222)" fill="#038175"/>
<rect x="111.111" y="188.889" width="11.1111" height="11.1111" transform="rotate(180 111.111 188.889)" fill="#038175"/>
<rect x="11.1111" y="111.111" width="11.1111" height="11.1111" transform="rotate(-90 11.1111 111.111)" fill="#038175"/>
<rect x="100" y="188.889" width="11.1111" height="11.1111" transform="rotate(180 100 188.889)" fill="#038175"/>
<rect x="11.1111" y="100" width="11.1111" height="11.1111" transform="rotate(-90 11.1111 100)" fill="#038175"/>
<rect x="88.8887" y="188.889" width="11.1111" height="11.1111" transform="rotate(180 88.8887 188.889)" fill="#038175"/>
<rect x="11.1111" y="88.8892" width="11.1111" height="11.1111" transform="rotate(-90 11.1111 88.8892)" fill="#038175"/>
<rect width="11.1111" height="11.1111" transform="matrix(1 -8.74228e-08 -8.74228e-08 -1 44.4443 166.667)" fill="#038175"/>
<rect width="11.1111" height="11.1111" transform="matrix(1 -8.74228e-08 -8.74228e-08 -1 33.3333 155.556)" fill="#038175"/>
<rect width="11.1111" height="11.1111" transform="matrix(-1 0 0 1 144.444 11.1113)" fill="#038175"/>
<rect x="55.5554" y="11.1113" width="11.1111" height="11.1111" fill="#038175"/>
<rect width="11.1111" height="11.1111" transform="matrix(4.37114e-08 -1 -1 -4.37114e-08 177.778 66.6665)" fill="#038175"/>
<rect width="11.1111" height="11.1111" transform="matrix(-1 0 0 1 133.333 11.1113)" fill="#038175"/>
<rect x="66.6665" y="11.1113" width="11.1111" height="11.1111" fill="#038175"/>
<rect width="11.1111" height="11.1111" transform="matrix(4.37114e-08 -1 -1 -4.37114e-08 177.778 55.5557)" fill="#038175"/>
<rect x="77.7776" width="11.1111" height="11.1111" fill="#038175"/>
<rect x="188.889" y="66.6665" width="11.1111" height="11.1111" transform="rotate(90 188.889 66.6665)" fill="#038175"/>
<rect x="88.8887" width="11.1111" height="11.1111" fill="#038175"/>
<rect x="100" width="11.1111" height="11.1111" fill="#038175"/>
<rect x="111.111" width="11.1111" height="11.1111" fill="#038175"/>
<rect width="11.1111" height="11.1111" transform="matrix(-1 0 0 1 155.555 22.2222)" fill="#038175"/>
<rect x="44.4443" y="22.2222" width="11.1111" height="11.1111" fill="#038175"/>
<rect width="11.1111" height="11.1111" transform="matrix(-1 0 0 1 166.667 33.3335)" fill="#038175"/>
<rect x="33.3333" y="33.3335" width="11.1111" height="11.1111" fill="#038175"/>
<rect width="11.1111" height="11.1111" transform="matrix(4.37114e-08 1 1 -4.37114e-08 22.2222 44.4443)" fill="#038175"/>
<rect width="11.1111" height="11.1111" transform="matrix(4.37114e-08 1 1 -4.37114e-08 22.2222 55.5557)" fill="#038175"/>
<rect x="11.1111" y="77.7778" width="11.1111" height="11.1111" transform="rotate(-90 11.1111 77.7778)" fill="#038175"/>
<rect width="11.1111" height="11.1111" transform="matrix(4.37114e-08 -1 -1 -4.37114e-08 188.889 144.444)" fill="#038175"/>
<rect x="188.889" y="55.5557" width="11.1111" height="11.1111" transform="rotate(90 188.889 55.5557)" fill="#038175"/>
<rect width="11.1111" height="11.1111" transform="matrix(1 8.74228e-08 8.74228e-08 -1 133.333 177.778)" fill="#038175"/>
<rect width="11.1111" height="11.1111" transform="matrix(4.37114e-08 -1 -1 -4.37114e-08 188.889 133.333)" fill="#038175"/>
<rect x="188.889" y="66.667" width="11.1111" height="11.1111" transform="rotate(90 188.889 66.667)" fill="#038175"/>
<rect width="11.1111" height="11.1111" transform="matrix(1 8.74228e-08 8.74228e-08 -1 144.444 177.778)" fill="#038175"/>
<rect x="200" y="77.7778" width="11.1111" height="11.1111" transform="rotate(90 200 77.7778)" fill="#038175"/>
<rect x="133.333" y="188.889" width="11.1111" height="11.1111" transform="rotate(-180 133.333 188.889)" fill="#038175"/>
<rect x="200" y="88.8892" width="11.1111" height="11.1111" transform="rotate(90 200 88.8892)" fill="#038175"/>
<rect x="200" y="100" width="11.1111" height="11.1111" transform="rotate(90 200 100)" fill="#038175"/>
<rect x="200" y="111.111" width="11.1111" height="11.1111" transform="rotate(90 200 111.111)" fill="#038175"/>
<rect width="11.1111" height="11.1111" transform="matrix(4.37114e-08 -1 -1 -4.37114e-08 177.778 155.556)" fill="#038175"/>
<rect x="177.778" y="33.3335" width="11.1111" height="11.1111" transform="rotate(90 177.778 33.3335)" fill="#038175"/>
<rect width="11.1111" height="11.1111" transform="matrix(4.37114e-08 -1 -1 -4.37114e-08 166.667 166.667)" fill="#038175"/>
<rect x="166.667" y="33.3335" width="11.1111" height="11.1111" transform="rotate(90 166.667 33.3335)" fill="#038175"/>
<rect width="11.1111" height="11.1111" transform="matrix(-1 0 0 1 166.667 22.2227)" fill="#038175"/>
<rect width="11.1111" height="11.1111" transform="matrix(-1 0 0 1 144.445 22.2227)" fill="#038175"/>
<rect x="122.222" y="11.1113" width="11.1111" height="11.1111" fill="#038175"/>
<rect x="144.444" y="188.889" width="11.1111" height="11.1111" transform="rotate(-180 144.444 188.889)" fill="#038175"/>
<rect width="11.1111" height="11.1111" transform="matrix(1 0 0 -1 55.5554 188.889)" fill="#038175"/>
<rect x="177.778" y="133.333" width="11.1111" height="11.1111" transform="rotate(90 177.778 133.333)" fill="#038175"/>
<rect x="133.333" y="188.889" width="11.1111" height="11.1111" transform="rotate(-180 133.333 188.889)" fill="#038175"/>
<rect width="11.1111" height="11.1111" transform="matrix(1 0 0 -1 66.6665 188.889)" fill="#038175"/>
<rect x="177.778" y="155.556" width="11.1111" height="11.1111" transform="rotate(90 177.778 155.556)" fill="#038175"/>
<rect width="11.1111" height="11.1111" transform="matrix(1 0 0 -1 77.7776 200)" fill="#038175"/>
<rect width="11.1111" height="11.1111" transform="matrix(-4.37114e-08 -1 -1 4.37114e-08 188.889 133.333)" fill="#038175"/>
<rect width="11.1111" height="11.1111" transform="matrix(1 0 0 -1 88.8889 200)" fill="#038175"/>
<rect width="11.1111" height="11.1111" transform="matrix(1 0 0 -1 100 200)" fill="#038175"/>
<rect width="11.1111" height="11.1111" transform="matrix(1 0 0 -1 111.111 200)" fill="#038175"/>
<rect x="166.667" y="177.778" width="11.1111" height="11.1111" transform="rotate(-180 166.667 177.778)" fill="#038175"/>
<rect width="11.1111" height="11.1111" transform="matrix(1 0 0 -1 44.4443 177.778)" fill="#038175"/>
<rect x="166.667" y="166.667" width="11.1111" height="11.1111" transform="rotate(-180 166.667 166.667)" fill="#038175"/>
<rect width="11.1111" height="11.1111" transform="matrix(1 0 0 -1 33.3333 166.667)" fill="#038175"/>
<rect x="22.2222" y="155.556" width="11.1111" height="11.1111" transform="rotate(-90 22.2222 155.556)" fill="#038175"/>
<rect x="22.2222" y="144.444" width="11.1111" height="11.1111" transform="rotate(-90 22.2222 144.444)" fill="#038175"/>
<rect width="11.1111" height="11.1111" transform="matrix(-4.37114e-08 1 1 4.37114e-08 11.1111 122.222)" fill="#038175"/>
<rect x="11.1111" y="144.444" width="11.1111" height="11.1111" transform="rotate(-90 11.1111 144.444)" fill="#038175"/>
<rect width="11.1111" height="11.1111" transform="matrix(-4.37114e-08 1 1 4.37114e-08 11.1111 55.5557)" fill="#038175"/>
<rect x="66.6667" y="177.778" width="11.1111" height="11.1111" transform="rotate(180 66.6667 177.778)" fill="#038175"/>
<rect x="11.1111" y="133.333" width="11.1111" height="11.1111" transform="rotate(-90 11.1111 133.333)" fill="#038175"/>
<rect width="11.1111" height="11.1111" transform="matrix(-4.37114e-08 1 1 4.37114e-08 11.1111 66.667)" fill="#038175"/>
<rect x="44.4443" y="177.778" width="11.1111" height="11.1111" transform="rotate(180 44.4443 177.778)" fill="#038175"/>
<rect width="11.1111" height="11.1111" transform="matrix(-4.37114e-08 1 1 4.37114e-08 0 77.7778)" fill="#038175"/>
<rect width="11.1111" height="11.1111" transform="matrix(1 0 0 -1 66.6667 188.889)" fill="#038175"/>
<rect width="11.1111" height="11.1111" transform="matrix(-4.37114e-08 1 1 4.37114e-08 0 88.8892)" fill="#038175"/>
<rect width="11.1111" height="11.1111" transform="matrix(-4.37114e-08 1 1 4.37114e-08 0 100)" fill="#038175"/>
<rect width="11.1111" height="11.1111" transform="matrix(-4.37114e-08 1 1 4.37114e-08 0 111.111)" fill="#038175"/>
<rect x="22.2222" y="166.667" width="11.1111" height="11.1111" transform="rotate(-90 22.2222 166.667)" fill="#038175"/>
<rect width="11.1111" height="11.1111" transform="matrix(-4.37114e-08 1 1 4.37114e-08 22.2222 33.3335)" fill="#038175"/>
<rect x="33.3333" y="166.667" width="11.1111" height="11.1111" transform="rotate(-90 33.3333 166.667)" fill="#038175"/>
<rect width="11.1111" height="11.1111" transform="matrix(-4.37114e-08 1 1 4.37114e-08 33.3333 33.3335)" fill="#038175"/>
<rect x="33.3333" y="22.2227" width="11.1111" height="11.1111" fill="#038175"/>
<rect x="55.5554" y="22.2227" width="11.1111" height="11.1111" fill="#038175"/>
<rect width="11.1111" height="11.1111" transform="matrix(-1 -8.74228e-08 -8.74228e-08 1 77.7778 11.1113)" fill="#038175"/>
</g>
<g filter="url(#filter1_d_6377_18487)">
<path d="M102.69 96.7362V55.0933H114.588V61.0422H120.537V66.9912H126.486V61.0422H132.435V55.0933H144.333V96.7362H132.435V72.9402H126.486V84.8382H120.537V72.9402H114.588V96.7362H102.69Z" fill="#038175"/>
<path d="M55.0974 96.7362V55.0933H66.9954V61.0422H72.9444V66.9912H78.8934V61.0422H84.8424V55.0933H96.7403V96.7362H84.8424V72.9402H78.8934V84.8382H72.9444V72.9402H66.9954V96.7362H55.0974Z" fill="#038175"/>
<path d="M102.802 144.268V132.37H108.751V126.421H114.699V120.472H108.751V114.523H102.802V102.625H114.699V114.523H120.648V120.472H126.597V114.523H132.546V102.625H144.444V114.523H138.495V120.472H132.546V126.421H138.495V132.37H144.444V144.268H132.546V132.37H126.597V126.421H120.648V132.37H114.699V144.268H102.802Z" fill="#038175"/>
<path d="M73.0572 144.268V138.319H67.1082V132.37H61.1592V126.421H55.2102V102.625H67.1082V120.472H73.0572V126.421H79.0062V120.472H84.9551V102.625H96.8531V126.421H90.9041V132.37H84.9551V138.319H79.0062V144.268H73.0572Z" fill="#038175"/>
</g>
</g>
<defs>
<filter id="filter0_d_6377_18487" x="0" y="0" width="200" height="205.556" filterUnits="userSpaceOnUse" color-interpolation-filters="sRGB">
<feFlood flood-opacity="0" result="BackgroundImageFix"/>
<feColorMatrix in="SourceAlpha" type="matrix" values="0 0 0 0 0 0 0 0 0 0 0 0 0 0 0 0 0 0 127 0" result="hardAlpha"/>
<feOffset dy="5.55555"/>
<feComposite in2="hardAlpha" operator="out"/>
<feColorMatrix type="matrix" values="0 0 0 0 0.00692757 0 0 0 0 0.374674 0 0 0 0 0.339651 0 0 0 1 0"/>
<feBlend mode="normal" in2="BackgroundImageFix" result="effect1_dropShadow_6377_18487"/>
<feBlend mode="normal" in="SourceGraphic" in2="effect1_dropShadow_6377_18487" result="shape"/>
</filter>
<filter id="filter1_d_6377_18487" x="55.0974" y="55.0933" width="89.3469" height="91.9526" filterUnits="userSpaceOnUse" color-interpolation-filters="sRGB">
<feFlood flood-opacity="0" result="BackgroundImageFix"/>
<feColorMatrix in="SourceAlpha" type="matrix" values="0 0 0 0 0 0 0 0 0 0 0 0 0 0 0 0 0 0 127 0" result="hardAlpha"/>
<feOffset dy="2.77778"/>
<feComposite in2="hardAlpha" operator="out"/>
<feColorMatrix type="matrix" values="0 0 0 0 0.00692757 0 0 0 0 0.374674 0 0 0 0 0.339651 0 0 0 1 0"/>
<feBlend mode="normal" in2="BackgroundImageFix" result="effect1_dropShadow_6377_18487"/>
<feBlend mode="normal" in="SourceGraphic" in2="effect1_dropShadow_6377_18487" result="shape"/>
</filter>
<clipPath id="clip0_6377_18487">
<rect width="200" height="200" fill="white"/>
</clipPath>
</defs>
</svg>
