<svg id="final_svg" xmlns="http://www.w3.org/2000/svg" xmlns:xlink="http://www.w3.org/1999/xlink" viewBox="254.03257751464844 75.58999633789062 435.9820556640625 378.39532470703125">
      <style type="text/css">.st0{fill:url(#SVGID_1_);}	.st1{fill:url(#SVGID_00000075861343538566260630000001526473835882674842_);}	.st2{fill:url(#SVGID_00000043432311238834462790000006491784960267676830_);}	.st3{fill:url(#SVGID_00000008842458799328348310000009570345842598208391_);}	.st4{fill:url(#SVGID_00000057850985827828774140000000636318692499829377_);}</style>
    <g id="color_index_g" transform="translate(254.0325720214844, 75.59) scale(1.3840701865852014)" opacity="1">
              <linearGradient id="SVGID_1_" gradientUnits="userSpaceOnUse" x1="42.9609451" y1="4.5427198" x2="283.2974243" y2="208.1609039">
                      <stop offset="0" style="stop-color:#25efd2"></stop>
            <stop offset="1" style="stop-color:#0084ff"></stop>
                  </linearGradient>
        <path class="st0" d="M303.4804382,48.7242393c-4.166687-7.6435623-9.4735107-14.8084793-15.9205933-21.2555656		c-35.6277466-35.6136665-93.2289886-36.5990448-130.0533142-2.9420376		c-13.8935547-12.6969948-30.7290497-20.4531898-48.2121964-23.2966824		C80.3388519-3.4715669,49.5957031,5.3121896,27.4673119,27.4686737		C15.4318743,39.5041122,7.3519459,54.0593071,3.2275255,69.4731522		c-8.0799294,30.1378632-0.9853761,63.5978622,21.2414742,87.9502945		c0.1830006,0.1970825,75.0561981,75.1828308,103.6316757,103.7864227c16.2443085,16.2443848,42.5674896,16.2443848,58.8117981,0		c8.2347565-8.2488556,103.4064026-103.5330658,103.6174927-103.7864227		C318.0918884,127.2433014,322.3148804,83.1977921,303.4804382,48.7242393z M210.40625,161.8012238h-27.8434601v27.7449341		c0,13.8231812-11.2330627,25.0703278-25.0562592,25.0703278c-13.8231812,0-25.070343-11.2471466-25.070343-25.0703278v-27.7449341		h-27.8292847c-13.8231888,0-25.070343-11.2471466-25.070343-25.070343c0-13.8090897,11.2471542-25.0562439,25.070343-25.0562439		h27.8292847V83.8311691c0-6.6722717,2.6042175-12.9503632,7.3057404-17.7082443		c4.6734314-4.6312408,10.7686005-7.2212791,17.2437744-7.3480072l0.4927368-0.0140877		c13.5979156,0,25.0843506,11.7961617,25.0843506,25.7600746v27.1537323H210.40625		c13.8231964,0,25.0562592,11.2471542,25.0562592,25.0562439		C235.4625092,150.5540771,224.2294464,161.8012238,210.40625,161.8012238z"></path>
          </g>
    <g transform="translate(254.0325720214844, 75.59) scale(1.3840701865852014)" opacity="1">
              <linearGradient id="SVGID_00000022523249660159471080000014971315853292283321_" gradientUnits="userSpaceOnUse" x1="140.1718445" y1="-15.2658701" x2="241.6665039" y2="87.8096466">
                      <stop offset="0" style="stop-color:#000000;stop-opacity:0.4"></stop>
            <stop offset="1" style="stop-color:#000000;stop-opacity:0"></stop>
                  </linearGradient>
        <linearGradient id="SVGID_00000036948640818947933760000013296905354761797276_" gradientUnits="userSpaceOnUse" x1="174.857666" y1="239.3664703" x2="76.5032501" y2="161.4961853">
                      <stop offset="0" style="stop-color:#000000;stop-opacity:0.4"></stop>
            <stop offset="1" style="stop-color:#000000;stop-opacity:0"></stop>
                  </linearGradient>
        <linearGradient id="SVGID_00000031177381262588207020000007184812921325763476_" gradientUnits="userSpaceOnUse" x1="-13.2279425" y1="108.6902161" x2="97.9763489" y2="78.9715805">
                      <stop offset="0" style="stop-color:#000000;stop-opacity:0.4"></stop>
            <stop offset="1" style="stop-color:#000000;stop-opacity:0"></stop>
                  </linearGradient>
        <linearGradient id="SVGID_00000054972251021974004960000017471121016802359961_" gradientUnits="userSpaceOnUse" x1="268.3806458" y1="131.5242157" x2="207.9157562" y2="177.1406708">
                      <stop offset="0" style="stop-color:#000000;stop-opacity:0.4"></stop>
            <stop offset="1" style="stop-color:#000000;stop-opacity:0"></stop>
                  </linearGradient>
        <path style="fill:url(#SVGID_00000022523249660159471080000014971315853292283321_);" d="M303.4804382,48.7242393		c-1.5202942,41.2021065-79.2509918,62.9503975-93.0741882,62.9503975h-27.8434601V84.5209045		c0-13.963913-11.4864349-25.7600746-25.0843506-25.7600746l-0.4927368,0.0140877		c-6.475174,0.1267281-12.570343,2.7167664-17.2437744,7.3480072c-4.7015228,4.7578812-7.3057404,11.0359726-7.3057404,17.7082443		c0,0-2.0270233-29.1665802,25.070343-59.3045349c36.8243256-33.6570053,94.4255676-32.6716309,130.0533142,2.9420376		C294.0069275,33.91576,299.3137512,41.080677,303.4804382,48.7242393z"></path>
        <path style="fill:url(#SVGID_00000036948640818947933760000013296905354761797276_);" d="M114.164856,247.2459412		c-28.5753937-28.5894775-56.6581383-56.7004089-77.3225098-77.3928833l44.5100632-23.7612305		c3.7162247,9.2060394,12.7392654,15.7093964,23.2544937,15.7093964h27.8292847v27.7449341		c0,13.8231812,11.2471619,25.0703278,25.070343,25.0703278c13.8231964,0,25.0562592-11.2471466,25.0562592-25.0703278h0.0140839		C182.5768738,189.5461578,185.4907379,232.3388214,114.164856,247.2459412z"></path>
        <path style="fill:url(#SVGID_00000031177381262588207020000007184812921325763476_);" d="M109.2943344,1.2299544		l-4.6874313,110.4446793c-13.8231888,0-25.070343,11.2471542-25.070343,25.0562439		c0,12.5985413,9.3326797,23.0574188,21.4526596,24.802887c-16.1599426-1.6187439-81.6722031-13.048996-97.7616959-92.0606155		c4.1244202-15.4138451,12.2043486-29.9690399,24.2397861-42.0044785		C49.5957031,5.3121896,80.3388519-3.4715669,109.2943344,1.2299544z"></path>
        <path style="fill:url(#SVGID_00000054972251021974004960000017471121016802359961_);" d="M272.1741943,175.8636932		c-15.0619507,15.0760193-37.2184296,37.2606812-58.051712,58.1221466l-31.5456085-72.1846161H210.40625		c13.8231964,0,25.0562592-11.2471466,25.0562592-25.070343c0-12.9504395-9.8676758-23.6344986-22.4943085-24.9296036		C224.3983459,112.7162857,270.245697,119.8812943,272.1741943,175.8636932z"></path>
          </g>
    <g fill="#5451fa" id="text_group" transform="translate(689.8055720214843, 91.30605783007813)" opacity="1.0">
              <path d=""></path>
          </g>
  </svg>