<?xml version="1.0" encoding="UTF-8"?>
<svg xmlns="http://www.w3.org/2000/svg" xmlns:xlink="http://www.w3.org/1999/xlink" width="200px" height="200px" viewBox="0 0 200 200" version="1.1">
<g id="surface1">
<path style=" stroke:none;fill-rule:nonzero;fill:rgb(0%,0%,0%);fill-opacity:1;" d="M 90.957031 51.164062 C 87.414062 52.355469 85.234375 53.445312 83.425781 54.929688 C 82.183594 55.972656 78.246094 60.605469 77.652344 61.71875 C 77.179688 62.636719 76.980469 62.636719 77.179688 61.71875 C 77.253906 61.324219 77.230469 60.925781 77.082031 60.851562 C 76.710938 60.605469 75.371094 61.371094 73.8125 62.710938 L 72.421875 63.898438 L 71.554688 62.710938 C 71.085938 62.066406 70.515625 61.222656 70.292969 60.804688 C 69.746094 59.761719 67.714844 57.929688 66.402344 57.285156 C 61.644531 55.003906 53.640625 55.425781 47.992188 58.25 C 45.117188 59.664062 41.378906 62.339844 41.378906 62.957031 C 41.378906 63.355469 41.476562 63.429688 41.949219 63.28125 C 42.292969 63.179688 41.722656 63.925781 40.335938 65.335938 C 37.933594 67.816406 37.363281 68.804688 38.058594 69.300781 C 38.480469 69.597656 38.453125 69.648438 37.984375 70.167969 C 37.089844 71.160156 36.125 72.820312 36.273438 73.066406 C 36.371094 73.242188 36.941406 73.066406 37.785156 72.671875 C 38.527344 72.300781 39.195312 72.078125 39.296875 72.175781 C 39.394531 72.273438 39.195312 72.769531 38.851562 73.265625 C 38.105469 74.40625 37.808594 75.222656 38.105469 75.421875 C 38.207031 75.472656 39.148438 75.050781 40.164062 74.453125 C 41.179688 73.835938 42.121094 73.339844 42.269531 73.339844 C 42.441406 73.339844 42.394531 73.8125 42.097656 74.628906 C 41.875 75.347656 41.378906 77.207031 41.03125 78.765625 L 40.410156 81.589844 L 38.328125 83.722656 C 36.027344 86.074219 35.480469 86.867188 35.902344 87.289062 C 36.074219 87.460938 35.726562 87.933594 34.6875 88.898438 C 32.902344 90.511719 32.707031 91.277344 34.144531 91.054688 L 35.058594 90.90625 L 34.09375 91.773438 C 33.203125 92.589844 33.027344 92.640625 31.242188 92.714844 L 29.359375 92.789062 L 29.1875 96.085938 C 29.089844 97.894531 28.765625 101.113281 28.46875 103.246094 C 28.171875 105.425781 27.996094 107.753906 28.046875 108.621094 C 28.121094 109.539062 28.046875 110.503906 27.824219 111.101562 C 27.652344 111.621094 27.503906 112.859375 27.503906 113.824219 C 27.503906 114.792969 27.328125 116.203125 27.128906 116.949219 C 26.636719 118.804688 25.71875 126.933594 25.695312 129.929688 L 25.644531 132.410156 L 30.722656 134.636719 L 35.804688 136.867188 L 39.644531 136.894531 C 41.75 136.917969 44.550781 137.015625 45.863281 137.117188 L 48.242188 137.3125 L 48.414062 135.804688 C 48.511719 134.960938 48.636719 134.292969 48.6875 134.292969 C 48.738281 134.292969 49.851562 134.910156 51.164062 135.679688 L 53.542969 137.089844 L 57.0625 136.941406 C 59.414062 136.867188 61.472656 136.941406 63.28125 137.191406 C 64.742188 137.386719 66.03125 137.488281 66.082031 137.414062 C 66.15625 137.339844 66.253906 136.25 66.328125 134.984375 C 66.5 131.269531 66.402344 131.367188 68.160156 132.78125 C 68.980469 133.449219 70.292969 134.339844 71.058594 134.738281 C 74.605469 136.621094 80.003906 137.414062 83.574219 136.621094 C 86.273438 136 89.371094 134.8125 90.511719 133.945312 C 91.949219 132.878906 92.839844 132.308594 93.160156 132.308594 C 93.285156 132.308594 93.410156 132.730469 93.410156 133.277344 C 93.410156 135.578125 93.507812 135.703125 95.835938 136.445312 C 97.71875 137.042969 98.09375 137.066406 99.453125 136.84375 C 100.296875 136.71875 101.339844 136.695312 101.832031 136.792969 C 103.195312 137.117188 105.597656 137.042969 106.9375 136.644531 C 107.605469 136.445312 108.5 136.273438 108.917969 136.273438 C 110.605469 136.273438 113.800781 134.835938 116.03125 133.125 L 117.441406 132.035156 L 117.441406 137.089844 L 120.984375 136.917969 C 122.917969 136.820312 124.726562 136.769531 125 136.769531 C 125.273438 136.792969 129.386719 136.867188 134.144531 136.917969 L 142.765625 137.042969 L 144.300781 136.050781 L 145.835938 135.035156 L 147.570312 135.902344 C 149.949219 137.089844 151.832031 137.511719 154.609375 137.511719 C 156.441406 137.511719 157.308594 137.363281 158.574219 136.917969 C 160.628906 136.175781 166.378906 133.5 168.1875 132.433594 C 171.308594 130.597656 173.265625 128.269531 174.40625 124.925781 C 175.023438 123.167969 175.097656 122.597656 175.074219 120.242188 C 175.023438 117.964844 174.902344 117.246094 174.28125 115.460938 C 173.660156 113.726562 172.300781 111.273438 170.835938 109.339844 C 170.664062 109.117188 170.835938 108.84375 171.457031 108.324219 C 172.226562 107.679688 172.300781 107.484375 172.398438 105.996094 C 172.570312 103.445312 171.257812 99.753906 169.375 97.347656 L 168.484375 96.257812 L 170.042969 96.136719 L 171.582031 96.011719 L 171.703125 94.277344 L 171.828125 92.542969 L 174.304688 92.292969 L 174.378906 90.707031 C 174.429688 89.644531 174.578125 89.023438 174.828125 88.824219 C 175.097656 88.628906 175.171875 88.15625 175.125 86.96875 L 175.050781 85.355469 L 168.113281 85.355469 L 168.039062 86.398438 C 167.988281 86.992188 167.890625 87.460938 167.816406 87.460938 C 167.742188 87.460938 167.46875 87.191406 167.21875 86.867188 C 166.476562 85.902344 164.792969 85.234375 163.207031 85.234375 C 161.746094 85.234375 161.496094 85.035156 162.214844 84.464844 C 162.660156 84.09375 164.519531 81.617188 164.519531 81.390625 C 164.519531 81.316406 164.296875 81.269531 164 81.269531 L 163.503906 81.269531 L 164.023438 80.523438 C 164.320312 80.128906 164.496094 79.683594 164.421875 79.558594 C 164.347656 79.433594 163.453125 79.558594 162.386719 79.832031 C 161.347656 80.078125 160.40625 80.277344 160.308594 80.226562 C 160.183594 80.179688 161.621094 79.3125 163.480469 78.269531 C 165.3125 77.253906 166.898438 76.261719 166.949219 76.113281 C 167.023438 75.890625 166.601562 75.84375 165.238281 75.964844 C 164.046875 76.089844 163.503906 76.066406 163.601562 75.890625 C 163.703125 75.742188 164.816406 75.148438 166.128906 74.578125 C 168.382812 73.539062 169.101562 72.871094 167.9375 72.820312 C 167.617188 72.820312 166.601562 72.570312 165.632812 72.25 L 163.898438 71.703125 L 165.632812 71.136719 C 168.558594 70.144531 168.632812 69.773438 166.007812 69.523438 C 164.097656 69.324219 163.75 69.027344 165.214844 68.78125 C 167.789062 68.359375 168.484375 67.863281 167.617188 67.144531 C 167.292969 66.875 167.292969 66.773438 167.542969 66.625 C 167.988281 66.351562 166.699219 63.972656 165.1875 62.289062 C 163.105469 59.984375 160.109375 58.96875 155.351562 58.96875 C 151.585938 58.96875 145.738281 59.785156 143.53125 60.628906 C 143.113281 60.804688 143.113281 60.753906 143.558594 60.085938 C 143.832031 59.664062 144.597656 58.695312 145.269531 57.902344 C 145.960938 57.136719 146.433594 56.417969 146.332031 56.316406 C 146.183594 56.167969 145.417969 56.390625 143.632812 57.109375 C 143.1875 57.285156 143.1875 57.234375 143.683594 56.316406 C 143.953125 55.773438 144.476562 54.980469 144.820312 54.558594 C 145.886719 53.296875 145.613281 52.972656 144.027344 53.640625 C 143.53125 53.839844 143.085938 53.964844 143.011719 53.914062 C 142.964844 53.839844 143.1875 53.445312 143.558594 53.023438 C 144.894531 51.414062 144.152344 51.386719 139.765625 52.898438 C 135.925781 54.210938 133.25 55.5 132.136719 56.542969 L 131.367188 57.285156 L 123.339844 57.335938 C 116.699219 57.359375 114.890625 57.433594 112.710938 57.828125 C 111.25 58.078125 109.859375 58.226562 109.613281 58.125 C 109.191406 57.953125 109.191406 57.902344 109.761719 57.484375 C 110.828125 56.664062 110.109375 56.664062 107.234375 57.433594 C 103.914062 58.351562 99.035156 59.414062 97.992188 59.464844 C 97.597656 59.488281 96.285156 59.515625 95.09375 59.488281 L 92.964844 59.464844 L 93.335938 58.050781 C 93.855469 56.070312 94.746094 54.386719 96.085938 52.972656 C 96.753906 52.253906 97.125 51.683594 96.976562 51.535156 C 96.753906 51.339844 95.019531 51.5625 94.101562 51.90625 C 93.410156 52.179688 93.582031 51.636719 94.402344 50.964844 C 95.886719 49.703125 95.242188 49.753906 90.957031 51.164062 Z M 55.625 84.738281 C 55.550781 84.886719 55.300781 84.984375 55.105469 84.984375 C 54.90625 84.984375 54.808594 85.085938 54.882812 85.234375 C 54.957031 85.355469 54.90625 85.503906 54.78125 85.503906 C 54.136719 85.578125 54.039062 85.605469 53.863281 85.777344 C 53.765625 85.902344 53.519531 85.976562 53.296875 85.976562 C 52.949219 85.976562 52.949219 85.925781 53.269531 85.726562 C 53.566406 85.53125 53.542969 85.480469 53.097656 85.480469 C 52.773438 85.480469 52.527344 85.578125 52.527344 85.703125 C 52.527344 85.828125 52.15625 85.976562 51.734375 86.050781 C 51.289062 86.125 50.296875 86.371094 49.554688 86.570312 C 47.644531 87.140625 47.347656 87.015625 48.167969 86.027344 C 48.933594 85.132812 49.304688 85.011719 49.304688 85.652344 C 49.332031 85.976562 49.429688 85.902344 49.703125 85.429688 C 50 84.886719 50.199219 84.761719 50.792969 84.835938 C 51.214844 84.886719 51.535156 84.835938 51.535156 84.738281 C 51.535156 84.613281 52.503906 84.515625 53.667969 84.515625 C 55.003906 84.488281 55.722656 84.589844 55.625 84.738281 Z M 77.800781 84.984375 C 78.023438 85.40625 77.949219 85.480469 77.128906 85.605469 C 76.609375 85.703125 75.964844 85.851562 75.695312 85.976562 C 75.421875 86.101562 74.082031 86.445312 72.746094 86.746094 C 71.308594 87.066406 70.09375 87.488281 69.820312 87.761719 C 69.574219 88.007812 69.152344 88.207031 68.855469 88.207031 C 67.964844 88.207031 68.484375 87.636719 69.699219 87.289062 C 70.960938 86.917969 71.285156 86.621094 70.191406 86.84375 L 69.5 86.96875 L 70.117188 86.671875 C 70.464844 86.496094 70.789062 86.296875 70.863281 86.199219 C 71.035156 86 72.027344 85.480469 72.273438 85.480469 C 72.375 85.480469 72.101562 85.703125 71.628906 86 C 71.183594 86.273438 70.863281 86.546875 70.9375 86.621094 C 70.984375 86.695312 71.457031 86.496094 71.953125 86.199219 C 72.597656 85.828125 73.265625 85.679688 74.28125 85.679688 C 75.519531 85.679688 75.59375 85.652344 74.949219 85.457031 C 74.554688 85.308594 73.8125 85.257812 73.339844 85.332031 C 72.621094 85.429688 72.546875 85.40625 72.945312 85.183594 C 73.214844 85.035156 73.910156 84.886719 74.480469 84.886719 C 75.050781 84.859375 75.472656 84.785156 75.394531 84.664062 C 75.347656 84.5625 75.792969 84.488281 76.414062 84.488281 C 77.28125 84.488281 77.601562 84.613281 77.800781 84.984375 Z M 164.890625 86.472656 C 166.203125 87.089844 166.574219 87.414062 167.21875 88.453125 C 167.816406 89.46875 167.914062 91.277344 167.394531 92.492188 C 166.824219 93.90625 164.644531 95.390625 163.15625 95.390625 C 162.363281 95.390625 160.925781 94.773438 160.132812 94.078125 C 156.9375 91.277344 158.894531 86.101562 163.15625 86 C 163.578125 86 164.347656 86.199219 164.890625 86.472656 Z M 173.6875 86.199219 C 173.6875 86.621094 173.117188 86.820312 171.902344 86.84375 C 170.566406 86.867188 170.464844 86.792969 171.285156 86.472656 C 171.777344 86.273438 171.753906 86.25 171.035156 86.25 C 170.515625 86.222656 170.242188 86.324219 170.292969 86.519531 C 170.316406 86.71875 170.09375 86.820312 169.671875 86.792969 C 169.152344 86.769531 169.027344 86.84375 169.152344 87.164062 C 169.25 87.386719 169.402344 87.636719 169.523438 87.734375 C 169.625 87.808594 169.746094 88.230469 169.796875 88.703125 C 169.945312 89.867188 170.316406 89.890625 170.664062 88.777344 L 170.9375 87.835938 L 172.695312 87.835938 C 173.636719 87.835938 174.429688 87.910156 174.429688 88.007812 C 174.429688 88.132812 173.660156 88.207031 172.695312 88.207031 C 171.011719 88.207031 170.960938 88.230469 170.960938 88.824219 C 170.960938 89.421875 171.035156 89.445312 172.324219 89.445312 L 173.6875 89.445312 L 173.6875 91.675781 L 170.960938 91.675781 L 170.960938 95.390625 L 168.730469 95.390625 L 168.730469 85.976562 L 171.210938 85.976562 C 172.597656 85.976562 173.6875 86.074219 173.6875 86.199219 Z M 84.835938 90.660156 C 84.738281 92.714844 84.5625 94.402344 84.464844 94.402344 C 84.339844 94.402344 84.242188 95.144531 84.21875 96.058594 C 84.191406 97.546875 84.167969 97.644531 83.945312 97.003906 C 83.648438 96.085938 83.449219 88.703125 83.746094 88.703125 C 83.84375 88.703125 83.894531 88.480469 83.820312 88.207031 C 83.746094 87.910156 83.820312 87.710938 83.992188 87.710938 C 84.242188 87.710938 84.242188 87.636719 84.019531 87.363281 C 83.769531 87.066406 83.820312 86.992188 84.292969 86.917969 C 84.613281 86.867188 84.886719 86.84375 84.9375 86.867188 C 84.984375 86.894531 84.9375 88.601562 84.835938 90.660156 Z M 156.167969 88.378906 C 156.09375 88.628906 155.722656 89.121094 155.375 89.46875 C 155.03125 89.816406 154.558594 90.335938 154.359375 90.660156 C 153.839844 91.453125 150.445312 94.152344 149.949219 94.152344 C 149.378906 94.175781 147.199219 95.367188 147.671875 95.390625 C 147.917969 95.417969 147.894531 95.492188 147.546875 95.640625 C 146.730469 95.984375 145.09375 95.910156 144.5 95.492188 C 144.203125 95.292969 143.832031 95.191406 143.65625 95.292969 C 143.484375 95.390625 143.457031 95.367188 143.558594 95.191406 C 143.683594 94.996094 143.558594 94.894531 143.234375 94.894531 C 142.9375 94.894531 142.714844 94.773438 142.714844 94.648438 C 142.714844 94.5 142.640625 94.425781 142.542969 94.449219 C 142.417969 94.5 142.34375 94.449219 142.34375 94.351562 C 142.34375 94.25 141.996094 93.90625 141.550781 93.582031 L 140.757812 92.988281 L 139.171875 93.507812 C 138.304688 93.804688 136.820312 94.5 135.851562 95.09375 C 134.886719 95.6875 133.96875 96.136719 133.820312 96.085938 C 133.671875 96.035156 133.398438 96.285156 133.226562 96.605469 C 132.902344 97.25 130.003906 98.933594 129.683594 98.660156 C 129.582031 98.5625 129.582031 98.613281 129.65625 98.761719 C 129.757812 98.933594 129.65625 99.183594 129.460938 99.355469 C 129.261719 99.527344 129.089844 99.578125 129.089844 99.480469 C 129.089844 99.378906 128.914062 99.429688 128.714844 99.605469 C 127.921875 100.273438 128.394531 99.40625 129.335938 98.488281 C 130.75 97.101562 130.351562 97.101562 128.714844 98.488281 C 127.972656 99.132812 127.355469 99.554688 127.355469 99.429688 C 127.355469 99.28125 127.082031 99.230469 126.734375 99.304688 C 125.890625 99.453125 125.941406 98.933594 126.808594 98.09375 C 127.675781 97.25 128.394531 96.878906 129.136719 96.878906 C 129.855469 96.878906 131.8125 95.960938 131.8125 95.640625 C 131.8125 95.492188 131.988281 95.390625 132.183594 95.390625 C 132.410156 95.390625 132.632812 95.21875 132.707031 95.019531 C 132.804688 94.820312 133.003906 94.648438 133.175781 94.648438 C 133.375 94.648438 134.042969 94.152344 134.6875 93.53125 C 135.308594 92.914062 136.050781 92.417969 136.296875 92.417969 C 136.546875 92.417969 136.820312 92.320312 136.894531 92.171875 C 136.992188 92.023438 136.867188 91.996094 136.59375 92.097656 C 136.347656 92.171875 136.222656 92.171875 136.324219 92.070312 C 136.421875 91.949219 136.917969 91.824219 137.4375 91.75 C 137.957031 91.699219 138.527344 91.601562 138.703125 91.550781 C 138.851562 91.476562 139 91.527344 139 91.625 C 139 91.75 139.46875 91.796875 140.039062 91.773438 C 140.882812 91.722656 140.980469 91.773438 140.632812 91.972656 C 140.363281 92.121094 139.742188 92.269531 139.246094 92.292969 C 138.328125 92.367188 135.457031 93.683594 135.160156 94.152344 C 135.058594 94.300781 135.058594 94.5 135.160156 94.597656 C 135.257812 94.699219 135.40625 94.625 135.457031 94.476562 C 135.53125 94.300781 136.671875 93.804688 138.03125 93.382812 C 139.371094 92.9375 140.484375 92.492188 140.484375 92.394531 C 140.484375 91.996094 140.980469 92.144531 141.796875 92.765625 C 144.101562 94.5 147.152344 94.402344 149.035156 92.492188 C 149.355469 92.171875 149.40625 92.195312 149.40625 92.664062 C 149.40625 93.160156 149.429688 93.160156 150.59375 92.515625 C 151.238281 92.171875 151.980469 91.675781 152.253906 91.425781 C 152.527344 91.179688 153.222656 90.683594 153.816406 90.335938 C 154.410156 89.964844 155.105469 89.273438 155.402344 88.800781 C 155.921875 87.933594 156.441406 87.636719 156.167969 88.378906 Z M 64.195312 89.421875 C 64.371094 89.148438 64.421875 89.171875 64.421875 89.496094 C 64.421875 89.71875 64.222656 90.039062 64 90.164062 C 63.75 90.3125 63.628906 90.4375 63.726562 90.4375 C 63.824219 90.4375 63.824219 90.660156 63.726562 90.957031 C 63.601562 91.230469 63.453125 91.453125 63.355469 91.425781 C 63.230469 91.425781 62.363281 92.121094 61.398438 93.011719 C 60.429688 93.929688 59.515625 94.648438 59.339844 94.648438 C 59.167969 94.648438 58.871094 94.847656 58.695312 95.070312 C 58.449219 95.34375 58.449219 95.417969 58.671875 95.292969 C 59.144531 94.996094 59.019531 95.269531 58.425781 95.789062 C 57.953125 96.160156 57.929688 96.183594 58.203125 95.8125 C 58.375 95.589844 58.449219 95.390625 58.375 95.390625 C 58.050781 95.390625 55.871094 97.175781 55.921875 97.375 C 55.945312 97.472656 55.75 97.523438 55.5 97.449219 C 55.179688 97.375 53.789062 97.917969 51.785156 98.960938 C 50.023438 99.851562 48.511719 100.59375 48.4375 100.59375 C 48.363281 100.59375 48.316406 100.472656 48.316406 100.347656 C 48.316406 100.199219 48.390625 100.125 48.511719 100.125 C 48.859375 100.199219 50.296875 99.554688 50.296875 99.304688 C 50.296875 99.183594 50.394531 99.132812 50.519531 99.230469 C 50.667969 99.304688 51.1875 99.007812 51.683594 98.5625 C 52.207031 98.117188 52.652344 97.769531 52.699219 97.792969 C 52.875 97.917969 53.667969 97.523438 54.238281 97.027344 C 54.609375 96.703125 54.757812 96.65625 54.65625 96.878906 C 54.558594 97.078125 54.683594 97.003906 54.957031 96.679688 C 55.226562 96.382812 55.550781 96.136719 55.675781 96.136719 C 55.796875 96.136719 56.070312 95.910156 56.316406 95.640625 C 56.566406 95.34375 56.863281 95.191406 57.011719 95.269531 C 57.136719 95.367188 57.210938 95.292969 57.183594 95.144531 C 57.109375 94.796875 62.511719 89.816406 63.304688 89.46875 C 63.601562 89.347656 63.824219 89.347656 63.898438 89.496094 C 63.949219 89.644531 64.074219 89.59375 64.195312 89.421875 Z M 161.324219 96.851562 C 162.089844 97.152344 162.984375 97.671875 163.304688 98.019531 C 163.628906 98.390625 164.246094 98.835938 164.691406 99.007812 C 165.113281 99.207031 165.757812 99.726562 166.128906 100.199219 C 166.796875 101.089844 167.816406 103.417969 168.113281 104.730469 L 168.261719 105.523438 L 160.804688 105.523438 L 160.257812 104.359375 C 159.6875 103.222656 159.664062 103.195312 158.523438 103.222656 C 156.367188 103.246094 155.152344 105.105469 156.34375 106.589844 C 156.886719 107.308594 158.027344 107.804688 160.703125 108.523438 C 166.351562 110.035156 169.699219 113.480469 170.664062 118.707031 C 170.835938 119.550781 170.789062 119.96875 170.539062 120.292969 C 170.367188 120.566406 170.21875 121.011719 170.21875 121.308594 C 170.21875 121.65625 170.019531 121.902344 169.699219 121.976562 C 169.375 122.050781 169.25 122.226562 169.351562 122.398438 C 169.449219 122.570312 169.796875 122.621094 170.144531 122.523438 C 170.6875 122.398438 170.738281 122.449219 170.589844 122.945312 C 169.96875 125.050781 167.417969 128.371094 166.722656 127.972656 C 166.527344 127.847656 166.476562 127.875 166.601562 128.074219 C 166.949219 128.59375 163.675781 129.90625 161.671875 130.03125 C 160.503906 130.105469 159.8125 130.054688 159.710938 129.855469 C 159.613281 129.707031 159.390625 129.582031 159.242188 129.582031 C 159.070312 129.582031 159.09375 129.683594 159.316406 129.832031 C 160.257812 130.449219 157.183594 129.808594 155.300781 129.015625 C 154.707031 128.765625 154.359375 128.445312 154.359375 128.171875 C 154.359375 127.824219 154.3125 127.800781 154.136719 128.074219 C 153.839844 128.519531 153.148438 128.046875 151.386719 126.1875 C 149.679688 124.378906 147.917969 120.910156 147.917969 119.324219 C 147.917969 118.832031 148.066406 118.804688 150.023438 118.730469 C 151.363281 118.683594 152.128906 118.757812 152.128906 118.929688 C 152.128906 119.277344 152.800781 119.226562 153.988281 118.832031 C 155.449219 118.308594 155.550781 118.433594 155.945312 120.789062 C 155.996094 121.058594 155.921875 121.359375 155.796875 121.433594 C 155.675781 121.507812 155.75 121.730469 155.972656 121.902344 C 156.292969 122.175781 156.34375 122.152344 156.21875 121.828125 C 155.945312 121.183594 156.566406 121.109375 157.53125 121.703125 C 158.796875 122.496094 160.878906 122.496094 161.992188 121.703125 C 162.414062 121.382812 162.785156 120.960938 162.785156 120.738281 C 162.785156 120.464844 162.933594 120.390625 163.429688 120.515625 C 164 120.664062 164.046875 120.613281 163.972656 119.996094 C 163.925781 119.523438 163.777344 119.324219 163.527344 119.351562 C 163.28125 119.402344 163.007812 119.101562 162.808594 118.507812 C 162.636719 118.011719 162.042969 117.144531 161.496094 116.550781 C 160.902344 115.90625 160.652344 115.460938 160.851562 115.410156 C 161.027344 115.335938 160.308594 115.289062 159.292969 115.261719 C 156.542969 115.1875 154.261719 114.394531 153.863281 113.355469 C 153.714844 112.957031 153.492188 112.785156 153.246094 112.882812 C 153.023438 112.984375 152.875 112.910156 152.875 112.660156 C 152.875 112.238281 151.957031 111.59375 151.015625 111.347656 C 150.644531 111.25 150.273438 111 150.199219 110.777344 C 150.097656 110.554688 149.652344 109.738281 149.207031 108.945312 C 148.066406 106.988281 147.84375 104.433594 148.613281 101.933594 C 149.183594 100.097656 150.394531 98.363281 151.113281 98.363281 C 151.363281 98.363281 152.230469 97.945312 153.023438 97.398438 C 155.054688 96.109375 154.957031 96.136719 157.582031 96.234375 C 159.21875 96.285156 160.355469 96.480469 161.324219 96.851562 Z M 79.164062 96.976562 C 79.433594 97.175781 79.558594 97.472656 79.460938 97.695312 C 79.261719 98.214844 80.574219 102.179688 81.515625 103.863281 C 81.738281 104.261719 81.664062 104.3125 80.921875 104.3125 C 80.449219 104.3125 79.957031 104.136719 79.757812 103.914062 C 79.507812 103.617188 79.164062 103.542969 78.371094 103.667969 C 77.15625 103.816406 72.597656 105.523438 72.597656 105.824219 C 72.597656 105.921875 72.101562 106.589844 71.480469 107.308594 C 70.863281 108.027344 70.09375 109.167969 69.722656 109.835938 C 69.175781 110.902344 69.101562 111.324219 69.152344 112.957031 C 69.175781 114 69.300781 114.941406 69.402344 115.089844 C 69.796875 115.660156 69.746094 116.328125 69.25 116.648438 C 68.78125 116.949219 68.78125 116.972656 69.375 116.824219 C 69.894531 116.699219 69.921875 116.722656 69.597656 116.972656 C 69.226562 117.246094 69.25 117.367188 69.699219 118.234375 C 70.21875 119.203125 70.464844 119.375 70.738281 118.929688 C 70.8125 118.78125 71.011719 118.683594 71.160156 118.683594 C 71.308594 118.683594 71.234375 118.90625 71.011719 119.152344 C 70.738281 119.449219 70.664062 119.671875 70.835938 119.796875 C 70.984375 119.871094 71.109375 119.820312 71.109375 119.699219 C 71.109375 119.203125 71.828125 119.402344 72.894531 120.167969 C 74.332031 121.210938 76.039062 121.65625 78.617188 121.65625 C 80.625 121.65625 80.945312 121.582031 81.664062 121.035156 C 82.109375 120.6875 82.707031 120.417969 82.976562 120.417969 C 83.277344 120.417969 83.5 120.316406 83.5 120.21875 C 83.5 120.09375 84.070312 119.402344 84.761719 118.65625 C 86.546875 116.75 87.265625 115.0625 87.265625 112.734375 C 87.265625 109.710938 85.878906 107.0625 83.5 105.523438 C 82.433594 104.832031 82.335938 104.707031 82.65625 104.386719 C 83.050781 103.988281 83.078125 103.863281 83.003906 102.429688 C 82.976562 101.785156 83.101562 101.3125 83.351562 101.113281 C 83.574219 100.917969 83.746094 100.621094 83.746094 100.394531 C 83.746094 100.199219 83.820312 100.097656 83.917969 100.171875 C 84.21875 100.472656 84.738281 99.800781 84.738281 99.109375 C 84.738281 98.140625 84.9375 98.066406 86.074219 98.660156 C 89.867188 100.59375 93.039062 103.890625 93.507812 106.390625 C 93.609375 106.914062 93.980469 107.753906 94.300781 108.277344 C 95.21875 109.664062 95.367188 112.785156 94.671875 115.90625 C 94.152344 118.285156 93.285156 120.390625 92.742188 120.589844 C 92.566406 120.664062 92.46875 120.8125 92.542969 120.910156 C 92.742188 121.210938 91.675781 122.398438 91.230469 122.398438 C 90.90625 122.398438 90.882812 122.449219 91.128906 122.597656 C 91.378906 122.769531 91.328125 122.96875 90.90625 123.464844 C 90.632812 123.835938 90.289062 124.058594 90.140625 123.984375 C 89.988281 123.886719 89.941406 123.910156 90.015625 124.058594 C 90.238281 124.40625 89.273438 125.273438 88.207031 125.71875 C 87.710938 125.917969 87.117188 126.3125 86.84375 126.609375 C 86.175781 127.355469 83.277344 128.640625 82.484375 128.542969 C 82.136719 128.519531 81.566406 128.667969 81.21875 128.890625 C 80.203125 129.558594 74.332031 129.433594 72.71875 128.714844 C 72.175781 128.46875 71.507812 128.222656 71.257812 128.171875 C 70.492188 128.023438 67.417969 126.289062 66.824219 125.667969 C 66.550781 125.371094 66.007812 124.578125 65.660156 123.933594 C 65.3125 123.289062 64.792969 122.671875 64.496094 122.523438 C 63.527344 122.101562 61.296875 117.195312 61.96875 116.972656 C 62.140625 116.921875 62.164062 116.824219 61.992188 116.722656 C 61.867188 116.648438 61.671875 116.203125 61.570312 115.757812 C 61.445312 115.089844 61.472656 114.964844 61.867188 114.941406 C 62.214844 114.941406 62.238281 114.890625 61.941406 114.765625 C 61.644531 114.644531 61.570312 114.148438 61.570312 112.613281 C 61.59375 109.042969 63.253906 105.203125 66.128906 101.980469 C 67.292969 100.71875 69.773438 99.109375 70.613281 99.109375 C 70.960938 99.109375 71.925781 98.710938 72.71875 98.214844 C 74.257812 97.300781 75.621094 96.925781 78.320312 96.65625 C 78.519531 96.65625 78.914062 96.777344 79.164062 96.976562 Z M 102.800781 96.902344 C 103.371094 97.101562 103.890625 97.101562 104.757812 96.878906 C 106.292969 96.53125 108.96875 97.078125 110.058594 97.992188 C 110.457031 98.339844 110.902344 98.613281 111.027344 98.613281 C 111.148438 98.613281 111.496094 99.132812 111.820312 99.777344 C 112.117188 100.445312 112.585938 101.164062 112.859375 101.414062 C 113.328125 101.859375 113.355469 101.832031 113.675781 100.867188 C 113.949219 100.023438 114.097656 99.902344 114.421875 100.074219 C 115.1875 100.496094 117.46875 102.996094 118.011719 103.988281 C 118.308594 104.535156 118.929688 105.523438 119.375 106.167969 C 119.820312 106.863281 120.167969 107.707031 120.167969 108.125 C 120.167969 108.546875 120.417969 109.390625 120.6875 110.011719 C 121.285156 111.273438 121.382812 114.46875 120.910156 116.527344 C 120.242188 119.597656 118.136719 123.242188 115.90625 125.246094 C 114.644531 126.386719 112.957031 127.503906 112.238281 127.652344 C 112.042969 127.699219 111.71875 127.875 111.519531 128.046875 C 111.347656 128.222656 111.050781 128.320312 110.851562 128.246094 C 110.679688 128.171875 110.503906 128.246094 110.457031 128.371094 C 110.40625 128.519531 109.710938 128.714844 108.894531 128.839844 C 108.078125 128.941406 106.640625 129.1875 105.722656 129.359375 C 104.410156 129.582031 103.742188 129.609375 102.800781 129.386719 C 101.261719 129.015625 99.429688 129.015625 99.230469 129.335938 C 99.035156 129.65625 97.695312 129.65625 97.496094 129.359375 C 97.421875 129.210938 97.597656 128.988281 97.871094 128.839844 C 98.289062 128.617188 98.363281 128.34375 98.363281 126.90625 L 98.339844 125.246094 L 97.84375 125.84375 C 97.300781 126.511719 96.953125 126.414062 97.324219 125.695312 C 97.449219 125.445312 97.496094 125.074219 97.449219 124.875 C 97.347656 124.554688 97.375 124.554688 97.597656 124.875 C 97.84375 125.199219 97.96875 125.074219 97.894531 124.554688 C 97.894531 124.453125 97.992188 124.378906 98.117188 124.378906 C 98.265625 124.378906 98.363281 124.109375 98.363281 123.761719 C 98.363281 123.289062 98.242188 123.140625 97.84375 123.140625 C 97.496094 123.140625 97.375 123.019531 97.421875 122.695312 C 97.472656 122.449219 97.71875 122.273438 98.09375 122.273438 C 98.5625 122.273438 98.6875 122.125 98.738281 121.457031 C 98.8125 120.613281 98.464844 120.367188 98.191406 121.085938 C 98.066406 121.382812 97.945312 121.160156 97.746094 120.292969 C 97.570312 119.425781 97.546875 119.003906 97.746094 118.878906 C 97.917969 118.757812 97.917969 118.683594 97.71875 118.683594 C 97.347656 118.683594 97.472656 110.109375 97.84375 109.664062 C 98.042969 109.414062 98.019531 108.894531 97.71875 107.78125 C 97.226562 105.847656 97.175781 103.519531 97.621094 101.980469 C 97.871094 101.113281 97.871094 100.742188 97.644531 100.519531 C 97.300781 100.171875 97.273438 97.621094 97.644531 97.621094 C 97.792969 97.621094 97.84375 97.398438 97.746094 97.125 C 97.597656 96.65625 97.695312 96.628906 99.800781 96.628906 C 101.015625 96.628906 102.355469 96.753906 102.800781 96.902344 Z M 41.75 97.347656 C 43.261719 100.097656 43.234375 100.074219 42.816406 100.792969 C 42.589844 101.164062 41.996094 101.660156 41.527344 101.90625 C 41.03125 102.179688 40.632812 102.476562 40.632812 102.601562 C 40.632812 102.726562 40.335938 102.824219 39.988281 102.824219 C 39.644531 102.824219 39.421875 102.921875 39.519531 103.074219 C 39.59375 103.195312 39.890625 103.320312 40.164062 103.320312 C 40.410156 103.320312 40.632812 103.195312 40.632812 103.074219 C 40.632812 102.921875 40.808594 102.824219 41.03125 102.824219 C 41.253906 102.824219 41.328125 102.949219 41.230469 103.121094 C 41.082031 103.371094 41.128906 103.371094 41.402344 103.171875 C 41.601562 103.023438 42.195312 102.875 42.714844 102.847656 C 43.261719 102.824219 43.78125 102.75 43.878906 102.675781 C 44.003906 102.625 44.277344 102.875 44.5 103.246094 C 44.722656 103.617188 45.117188 104.238281 45.367188 104.582031 C 45.613281 104.957031 45.886719 105.722656 45.960938 106.292969 C 46.085938 107.0625 46.40625 107.707031 47.101562 108.472656 C 47.621094 109.09375 48.066406 109.664062 48.066406 109.761719 C 48.066406 110.308594 50.59375 115.261719 50.792969 115.0625 C 50.890625 114.941406 51.113281 113.007812 51.289062 110.753906 C 51.4375 108.5 51.683594 105.945312 51.859375 105.054688 C 52.007812 104.164062 52.128906 102.847656 52.15625 102.128906 C 52.15625 100.964844 52.28125 100.71875 52.824219 100.816406 C 52.921875 100.816406 53.074219 100.621094 53.148438 100.347656 C 53.222656 100.097656 53.617188 99.828125 54.015625 99.726562 C 54.433594 99.628906 54.757812 99.480469 54.757812 99.378906 C 54.757812 99.28125 54.90625 99.183594 55.078125 99.15625 C 55.226562 99.132812 55.722656 99.082031 56.167969 99.058594 C 56.617188 99.007812 57.109375 98.835938 57.285156 98.660156 C 57.433594 98.511719 57.730469 98.363281 57.929688 98.363281 C 58.101562 98.363281 58.226562 98.214844 58.175781 98.066406 C 58.027344 97.671875 58.449219 97.25 59.167969 97.027344 C 59.664062 96.851562 59.710938 96.925781 59.710938 97.71875 C 59.710938 98.191406 59.589844 98.660156 59.464844 98.738281 C 59.292969 98.859375 59.242188 99.800781 59.367188 101.5625 C 59.464844 103.296875 59.441406 104.535156 59.265625 105.078125 C 59.117188 105.550781 58.96875 107.183594 58.945312 108.722656 C 58.917969 110.28125 58.796875 111.941406 58.695312 112.4375 C 58.574219 112.933594 58.425781 115.511719 58.351562 118.160156 C 58.277344 122.226562 58.203125 123.019531 57.878906 123.191406 C 57.65625 123.316406 57.484375 123.5625 57.484375 123.761719 C 57.484375 123.984375 57.335938 124.058594 57.109375 123.984375 C 56.886719 123.886719 56.738281 123.984375 56.738281 124.230469 C 56.738281 124.480469 56.863281 124.554688 57.183594 124.453125 C 57.558594 124.304688 57.582031 124.332031 57.234375 124.753906 C 56.886719 125.171875 56.914062 125.199219 57.285156 125.074219 C 57.855469 124.851562 57.929688 125.199219 57.78125 127.550781 L 57.65625 129.632812 L 57.011719 129.433594 C 56.664062 129.335938 55.476562 129.238281 54.386719 129.1875 C 53.296875 129.164062 52.179688 129.0625 51.882812 128.964844 C 51.5625 128.863281 51.261719 128.941406 51.066406 129.1875 C 50.621094 129.707031 48.960938 129.730469 49.15625 129.210938 C 49.230469 129.015625 49.207031 128.839844 49.082031 128.839844 C 48.984375 128.839844 48.761719 128.542969 48.585938 128.171875 C 48.316406 127.601562 48.339844 127.453125 48.710938 127.179688 C 49.207031 126.808594 48.984375 125.992188 48.4375 126.214844 C 47.917969 126.414062 46.703125 125 46.332031 123.835938 C 46.183594 123.316406 45.960938 122.894531 45.835938 122.894531 C 45.6875 122.894531 45.589844 122.671875 45.589844 122.421875 C 45.589844 122.078125 45.714844 121.976562 46.085938 122.078125 C 46.457031 122.175781 46.582031 122.078125 46.582031 121.730469 C 46.582031 121.40625 46.308594 121.183594 45.789062 121.035156 C 45.070312 120.8125 44.796875 120.441406 43.558594 118.0625 C 42.765625 116.550781 41.996094 114.890625 41.824219 114.347656 C 41.675781 113.800781 41.328125 113.082031 41.054688 112.734375 C 40.808594 112.386719 40.4375 111.746094 40.238281 111.273438 C 39.792969 110.234375 39.667969 110.332031 39.519531 111.894531 C 39.222656 114.816406 39.121094 115.882812 39.023438 116.824219 C 38.925781 117.691406 38.007812 126.683594 37.808594 128.714844 C 37.761719 129.285156 37.636719 129.460938 37.265625 129.410156 C 35.828125 129.261719 34.316406 129.261719 32.285156 129.433594 C 30.351562 129.582031 29.980469 129.558594 29.980469 129.261719 C 29.980469 128.742188 30.574219 128.296875 30.898438 128.617188 C 31.070312 128.789062 31.242188 128.742188 31.441406 128.492188 C 31.886719 127.972656 31.542969 127.578125 30.824219 127.75 C 30.476562 127.847656 30.226562 127.800781 30.226562 127.625 C 30.226562 127.476562 30.402344 127.355469 30.597656 127.355469 C 31.144531 127.355469 31.367188 126.5625 31.566406 123.933594 C 31.691406 122.375 31.664062 121.65625 31.492188 121.65625 C 31.34375 121.65625 31.21875 121.480469 31.21875 121.285156 C 31.21875 121.085938 31.367188 120.984375 31.542969 121.058594 C 31.738281 121.136719 31.886719 121.011719 31.886719 120.789062 C 31.886719 120.515625 31.714844 120.417969 31.46875 120.492188 C 31.144531 120.566406 31.019531 120.441406 31.019531 119.945312 C 31.019531 119.597656 31.09375 119.203125 31.167969 119.054688 C 31.269531 118.929688 31.34375 118.632812 31.34375 118.433594 C 31.367188 118.234375 31.390625 117.816406 31.417969 117.492188 C 31.441406 117.171875 31.566406 116.972656 31.691406 117.070312 C 31.8125 117.144531 32.011719 117.070312 32.109375 116.921875 C 32.210938 116.722656 32.183594 116.699219 31.988281 116.796875 C 31.492188 117.121094 31.714844 113.105469 32.285156 111.546875 C 32.679688 110.429688 32.707031 110.058594 32.484375 109.070312 C 32.285156 108.175781 32.308594 107.234375 32.582031 105.054688 C 32.804688 103.492188 33.003906 101.488281 33.078125 100.59375 C 33.125 99.703125 33.25 98.511719 33.324219 97.945312 L 33.472656 96.902344 L 37.488281 96.902344 C 41.082031 96.902344 41.550781 96.953125 41.75 97.347656 Z M 143.980469 97.300781 C 143.980469 97.546875 144.027344 97.945312 144.078125 98.191406 C 144.128906 98.4375 144.25 99.851562 144.324219 101.339844 L 144.5 104.015625 L 139.46875 103.964844 C 136.695312 103.941406 134.265625 103.839844 134.117188 103.742188 C 133.945312 103.640625 133.300781 103.714844 132.679688 103.914062 C 132.0625 104.136719 131.417969 104.285156 131.242188 104.238281 C 131.046875 104.210938 130.945312 104.582031 130.996094 105.550781 C 131.019531 106.292969 131.046875 107.359375 131.046875 107.902344 L 131.070312 108.894531 L 133.871094 109.019531 C 137.910156 109.191406 140.238281 109.167969 141.277344 108.945312 L 142.171875 108.746094 L 142.320312 110.554688 C 142.394531 111.546875 142.515625 113.28125 142.589844 114.394531 L 142.742188 116.453125 L 140.558594 116.425781 C 139.371094 116.425781 137.613281 116.328125 136.644531 116.230469 C 135.652344 116.105469 134.191406 116.128906 133.25 116.277344 L 131.566406 116.5 L 131.566406 119.101562 C 131.566406 121.160156 131.492188 121.703125 131.195312 121.804688 C 130.996094 121.902344 130.824219 122.078125 130.824219 122.226562 C 130.824219 122.347656 131.019531 122.300781 131.269531 122.078125 C 131.664062 121.703125 132.410156 121.65625 136.472656 121.65625 C 139.421875 121.65625 141.648438 121.777344 142.34375 121.953125 C 143.234375 122.199219 143.582031 122.199219 143.953125 121.953125 C 144.5 121.605469 145.34375 121.554688 145.539062 121.851562 C 145.589844 121.953125 145.738281 122.84375 145.8125 123.835938 C 145.984375 125.59375 145.984375 125.621094 145.417969 125.644531 C 144.871094 125.667969 144.871094 125.695312 145.316406 125.816406 C 146.035156 126.066406 146.109375 126.859375 145.390625 126.882812 C 144.847656 126.90625 144.847656 126.90625 145.441406 127.082031 C 145.984375 127.230469 146.058594 127.402344 146.085938 128.417969 L 146.136719 129.582031 L 143.953125 129.582031 C 142.121094 129.582031 141.75 129.507812 141.574219 129.136719 C 141.476562 128.914062 141.425781 128.640625 141.425781 128.519531 C 141.453125 128.417969 141.425781 128.34375 141.351562 128.34375 C 141.15625 128.34375 139.890625 129.164062 139.742188 129.386719 C 139.496094 129.707031 133.523438 129.535156 133.375 129.210938 C 133.300781 128.964844 133.003906 128.964844 132.035156 129.210938 C 131.34375 129.410156 130.5 129.484375 130.128906 129.386719 C 129.1875 129.164062 127.253906 129.1875 125.496094 129.410156 L 124.035156 129.609375 L 124.605469 128.988281 C 125.050781 128.519531 125.171875 128.097656 125.171875 127.054688 C 125.171875 126.339844 125.148438 125.621094 125.125 125.496094 C 125.097656 125.347656 125.097656 124.554688 125.125 123.710938 C 125.148438 122.792969 125.050781 122.125 124.875 122.027344 C 124.652344 121.902344 124.652344 121.777344 124.851562 121.679688 C 125 121.582031 125.050781 121.136719 124.949219 120.589844 C 124.851562 119.921875 124.703125 119.671875 124.355469 119.671875 C 123.761719 119.671875 123.738281 118.929688 124.332031 118.90625 C 124.679688 118.90625 124.679688 118.855469 124.257812 118.683594 C 123.984375 118.558594 123.910156 118.457031 124.082031 118.457031 C 124.332031 118.433594 124.332031 118.335938 124.035156 118.039062 C 123.585938 117.617188 123.710938 117.195312 124.28125 117.195312 C 124.480469 117.195312 124.628906 117.070312 124.628906 116.949219 C 124.628906 116.796875 124.40625 116.699219 124.15625 116.699219 C 123.539062 116.699219 123.464844 116.054688 123.636719 112.117188 C 123.710938 110.480469 123.6875 108.648438 123.5625 108.027344 C 123.464844 107.410156 123.339844 105.425781 123.316406 103.617188 L 123.265625 100.347656 L 124.082031 100.394531 C 124.527344 100.421875 124.949219 100.519531 125 100.59375 C 125.050781 100.695312 127.898438 100.71875 129.285156 100.621094 C 129.460938 100.59375 129.78125 100.371094 130.003906 100.097656 C 130.402344 99.628906 130.449219 99.628906 130.625 100.023438 C 130.773438 100.445312 130.796875 100.445312 130.796875 100.050781 C 130.824219 99.753906 130.945312 99.679688 131.242188 99.777344 C 131.515625 99.875 131.589844 99.851562 131.46875 99.652344 C 131.367188 99.480469 131.542969 99.304688 131.9375 99.207031 C 132.285156 99.132812 132.558594 98.960938 132.558594 98.8125 C 132.558594 98.6875 132.679688 98.660156 132.804688 98.738281 C 132.953125 98.8125 133.125 98.710938 133.203125 98.511719 C 133.277344 98.289062 133.449219 98.167969 133.546875 98.242188 C 133.671875 98.316406 133.84375 98.265625 133.917969 98.117188 C 134.019531 97.96875 133.992188 97.871094 133.871094 97.894531 C 133.300781 97.992188 133.226562 97.820312 133.746094 97.421875 C 134.21875 97.078125 135.011719 96.976562 139.121094 96.925781 C 143.683594 96.828125 143.953125 96.851562 143.980469 97.300781 Z M 148.265625 102.128906 C 148.09375 102.726562 147.894531 103.46875 147.820312 103.816406 C 147.746094 104.164062 147.152344 105.179688 146.480469 106.070312 C 145.117188 107.953125 144.003906 110.28125 143.90625 111.472656 C 143.804688 112.6875 143.507812 112.636719 143.335938 111.398438 C 142.988281 109.21875 143.832031 106.789062 145.738281 104.359375 C 147.078125 102.675781 148.4375 101.089844 148.5625 101.089844 C 148.5625 101.089844 148.4375 101.5625 148.265625 102.128906 Z M 47.570312 103.46875 C 48.984375 105.574219 50.964844 109.9375 50.644531 110.234375 C 50.421875 110.457031 47.992188 107.730469 47.347656 106.515625 C 45.738281 103.519531 45.539062 103.074219 45.664062 102.699219 C 45.960938 101.980469 46.777344 102.304688 47.570312 103.46875 Z M 81.589844 113.972656 C 81.839844 113.972656 82.085938 114.148438 82.160156 114.347656 C 82.308594 114.71875 81.121094 116.453125 80.699219 116.453125 C 80.550781 116.453125 80.253906 116.601562 80.054688 116.796875 C 79.507812 117.246094 76.90625 117.566406 76.683594 117.195312 C 76.4375 116.796875 78.269531 114.691406 79.3125 114.171875 C 79.78125 113.925781 80.375 113.800781 80.648438 113.851562 C 80.921875 113.925781 81.34375 113.972656 81.589844 113.972656 Z M 81.589844 113.972656 "/>
<path style=" stroke:none;fill-rule:nonzero;fill:rgb(0%,0%,0%);fill-opacity:1;" d="M 162.289062 86.84375 C 162.117188 87.042969 161.84375 87.214844 161.671875 87.214844 C 161.496094 87.214844 161 87.613281 160.554688 88.105469 C 159.910156 88.851562 159.8125 89.171875 159.886719 89.867188 C 160.058594 91.054688 160.207031 91.105469 160.429688 90.039062 C 160.652344 88.851562 161.125 88.132812 162.238281 87.339844 L 163.15625 86.671875 L 162.214844 87.511719 C 161.296875 88.328125 160.902344 89.046875 161.746094 88.429688 C 161.96875 88.253906 161.867188 88.429688 161.496094 88.851562 C 160.703125 89.71875 160.554688 91.203125 161.175781 92.097656 C 161.746094 92.890625 163.132812 93.285156 164.046875 92.914062 C 165.632812 92.246094 166.054688 90.164062 164.839844 88.898438 C 164.121094 88.15625 164.320312 87.984375 165.1875 88.578125 C 165.585938 88.851562 165.757812 88.875 165.929688 88.628906 C 166.304688 88.179688 166.601562 87.5625 166.378906 87.761719 C 166.277344 87.859375 166.007812 87.710938 165.78125 87.414062 C 165.511719 87.089844 165.015625 86.867188 164.371094 86.84375 C 163.851562 86.792969 163.230469 86.695312 163.007812 86.59375 C 162.785156 86.519531 162.488281 86.621094 162.289062 86.84375 Z M 162.289062 86.84375 "/>
<path style=" stroke:none;fill-rule:nonzero;fill:rgb(0%,0%,0%);fill-opacity:1;" d="M 105.03125 104.359375 C 104.957031 105.796875 105.105469 119.796875 105.226562 120.613281 L 105.375 121.703125 L 106.640625 121.53125 C 108.203125 121.332031 109.414062 120.566406 111.519531 118.433594 C 114.71875 115.1875 114.667969 112.5625 111.296875 107.359375 C 110.652344 106.367188 109.960938 105.550781 109.761719 105.550781 C 109.5625 105.550781 108.722656 105.203125 107.929688 104.808594 C 106.417969 104.039062 105.078125 103.839844 105.03125 104.359375 Z M 105.03125 104.359375 "/>
<path style=" stroke:none;fill-rule:nonzero;fill:rgb(0%,0%,0%);fill-opacity:1;" d="M 55.550781 145.269531 C 55.105469 145.714844 54.757812 146.160156 54.757812 146.257812 C 54.757812 146.382812 55.054688 146.730469 55.449219 147.050781 C 56.070312 147.570312 56.144531 147.597656 56.566406 147.25 C 56.960938 146.878906 56.988281 147.027344 56.988281 149.976562 L 56.988281 153.121094 L 59.292969 153.121094 L 59.117188 151.214844 C 59.042969 150.171875 58.96875 148.242188 58.96875 146.878906 L 58.96875 144.449219 L 57.65625 144.449219 C 56.492188 144.449219 56.242188 144.550781 55.550781 145.269531 Z M 55.550781 145.269531 "/>
<path style=" stroke:none;fill-rule:nonzero;fill:rgb(0%,0%,0%);fill-opacity:1;" d="M 76.066406 148.910156 L 76.066406 153.121094 L 82.257812 153.121094 L 82.257812 151.140625 L 78.296875 151.140625 L 78.296875 149.40625 L 81.515625 149.40625 L 81.515625 147.175781 L 78.296875 147.175781 L 78.296875 145.6875 L 80.277344 145.6875 C 82.085938 145.6875 82.257812 145.640625 82.257812 145.191406 C 82.257812 144.722656 82.085938 144.699219 79.164062 144.699219 L 76.066406 144.699219 Z M 76.066406 148.910156 "/>
<path style=" stroke:none;fill-rule:nonzero;fill:rgb(0%,0%,0%);fill-opacity:1;" d="M 87.214844 148.910156 L 87.214844 153.121094 L 88.824219 153.121094 C 90.707031 153.121094 91.996094 152.578125 92.988281 151.386719 C 93.609375 150.667969 94.152344 149.257812 94.152344 148.414062 C 94.152344 147.570312 93.609375 146.160156 93.011719 145.441406 C 92.367188 144.699219 92.367188 144.699219 89.792969 144.699219 L 87.214844 144.699219 Z M 91.453125 146.777344 C 92.246094 148.066406 91.996094 149.503906 90.832031 150.445312 C 90.558594 150.695312 90.113281 150.890625 89.890625 150.890625 C 89.496094 150.890625 89.445312 150.59375 89.445312 148.191406 L 89.445312 145.464844 L 90.214844 145.738281 C 90.632812 145.886719 91.179688 146.359375 91.453125 146.777344 Z M 91.453125 146.777344 "/>
<path style=" stroke:none;fill-rule:nonzero;fill:rgb(0%,0%,0%);fill-opacity:1;" d="M 98.859375 148.140625 C 98.859375 150.023438 98.785156 151.933594 98.710938 152.355469 L 98.5625 153.121094 L 100.84375 153.121094 L 100.84375 149.058594 C 100.84375 144.671875 100.84375 144.699219 99.453125 144.699219 L 98.859375 144.699219 Z M 98.859375 148.140625 "/>
<path style=" stroke:none;fill-rule:nonzero;fill:rgb(0%,0%,0%);fill-opacity:1;" d="M 106.046875 145.191406 C 106.046875 145.316406 106.441406 145.441406 106.914062 145.441406 L 107.78125 145.441406 L 107.78125 153.121094 L 110.011719 153.121094 L 110.011719 145.441406 L 110.878906 145.441406 C 111.347656 145.441406 111.746094 145.316406 111.746094 145.191406 C 111.746094 145.042969 110.628906 144.945312 108.894531 144.945312 C 107.160156 144.945312 106.046875 145.042969 106.046875 145.191406 Z M 106.046875 145.191406 "/>
<path style=" stroke:none;fill-rule:nonzero;fill:rgb(0%,0%,0%);fill-opacity:1;" d="M 116.949219 149.035156 L 116.949219 153.121094 L 119.175781 153.121094 L 119.175781 151.3125 C 119.175781 150.296875 119.101562 148.464844 119.027344 147.226562 L 118.855469 144.945312 L 116.949219 144.945312 Z M 116.949219 149.035156 "/>
<path style=" stroke:none;fill-rule:nonzero;fill:rgb(0%,0%,0%);fill-opacity:1;" d="M 124.976562 145.367188 C 123.242188 147.101562 123.710938 150.445312 125.941406 152.230469 C 127.699219 153.640625 130.597656 153.34375 132.234375 151.585938 C 133.820312 149.902344 133.917969 147.101562 132.484375 145.492188 C 132.011719 144.96875 131.789062 144.945312 128.691406 144.945312 C 125.917969 144.945312 125.347656 145.019531 124.976562 145.367188 Z M 130.773438 146.554688 C 131.617188 147.546875 131.542969 149.230469 130.597656 150.171875 C 130.003906 150.769531 129.65625 150.890625 128.714844 150.890625 C 127.773438 150.890625 127.429688 150.769531 126.832031 150.171875 C 125.445312 148.761719 126.066406 146.234375 127.921875 145.738281 C 128.964844 145.464844 130.078125 145.789062 130.773438 146.554688 Z M 130.773438 146.554688 "/>
<path style=" stroke:none;fill-rule:nonzero;fill:rgb(0%,0%,0%);fill-opacity:1;" d="M 138.429688 147.84375 C 138.328125 149.28125 138.253906 151.066406 138.253906 151.808594 L 138.253906 153.121094 L 140.460938 153.121094 L 140.535156 150.320312 L 140.609375 147.546875 L 142.171875 150.320312 L 143.757812 153.121094 L 146.183594 153.121094 L 146.183594 145.191406 L 143.953125 145.191406 L 143.953125 149.28125 L 142.765625 147.25 L 141.601562 145.191406 L 138.578125 145.191406 Z M 138.429688 147.84375 "/>
</g>
</svg>
