<?xml version="1.0" encoding="UTF-8"?>
<svg xmlns="http://www.w3.org/2000/svg" xmlns:xlink="http://www.w3.org/1999/xlink" width="200px" height="200px" viewBox="0 0 200 200" version="1.1">
<g id="surface1">
<path style=" stroke:none;fill-rule:nonzero;fill:rgb(98.823529%,98.823529%,99.215686%);fill-opacity:1;" d="M 166.351562 160 C 166.351562 176.25 153.230469 189.378906 136.96875 189.378906 C 120.710938 189.378906 107.601562 176.25 107.601562 160 C 107.601562 159.300781 107.621094 158.609375 107.671875 157.921875 C 108.109375 151.671875 110.5 146.050781 114.160156 141.460938 C 114.46875 141.039062 114.78125 140.628906 115.199219 140.308594 C 117.628906 137.640625 120.53125 135.421875 123.761719 133.78125 C 126.910156 132.179688 130.390625 131.128906 134.078125 130.769531 C 135.03125 130.679688 135.988281 130.628906 136.96875 130.628906 C 140.480469 130.628906 143.851562 131.238281 146.960938 132.371094 C 148.878906 133.058594 150.710938 133.949219 152.429688 135.011719 C 152.699219 135.179688 152.960938 135.339844 153.21875 135.519531 C 153.648438 135.808594 154.078125 136.109375 154.5 136.410156 C 155.058594 136.820312 155.601562 137.261719 156.121094 137.710938 C 156.230469 137.800781 156.328125 137.890625 156.429688 137.980469 C 156.429688 137.980469 156.429688 137.980469 156.441406 137.988281 C 158.519531 139.828125 160.328125 141.949219 161.820312 144.308594 C 163.078125 146.300781 164.101562 148.441406 164.851562 150.710938 C 165.070312 151.359375 165.261719 152.019531 165.429688 152.691406 C 165.46875 152.859375 165.511719 153.019531 165.550781 153.191406 C 165.589844 153.359375 165.628906 153.53125 165.660156 153.699219 C 165.730469 154.039062 165.800781 154.378906 165.859375 154.71875 C 166.191406 156.429688 166.351562 158.191406 166.351562 160 Z M 166.351562 160 "/>
<path style=" stroke:none;fill-rule:nonzero;fill:rgb(98.823529%,98.823529%,99.215686%);fill-opacity:1;" d="M 174.589844 166.75 C 174.988281 164.519531 175.210938 162.230469 175.210938 159.890625 C 175.210938 150.878906 172.058594 142.578125 166.800781 136.03125 C 163.96875 132.5 160.53125 129.488281 156.640625 127.140625 C 154.878906 126.078125 153.019531 125.148438 151.089844 124.371094 C 146.71875 122.621094 141.960938 121.648438 136.980469 121.648438 C 136.011719 121.648438 135.039062 121.691406 134.078125 121.761719 C 131.390625 121.96875 128.75 122.46875 126.191406 123.238281 C 119.761719 125.171875 113.859375 128.789062 109.128906 133.761719 C 109.109375 133.78125 109.089844 133.800781 109.070312 133.828125 C 108.238281 134.660156 107.609375 135.5 107.191406 136.019531 C 103.550781 140.621094 101.050781 145.761719 99.761719 151.230469 C 99.761719 151.230469 99.761719 151.238281 99.761719 151.238281 C 99.210938 153.578125 98.878906 155.980469 98.78125 158.429688 C 98.761719 158.941406 98.75 159.460938 98.75 159.980469 C 98.75 177.210938 110.269531 191.859375 126 196.601562 C 117.710938 198.808594 109 199.980469 100 199.980469 C 44.578125 200 0 155.421875 0 100 C 0 44.578125 44.578125 0 100 0 C 155.421875 0 200 44.578125 200 100 C 200 125.699219 190.410156 149.078125 174.589844 166.75 Z M 174.589844 166.75 "/>
<path style=" stroke:none;fill-rule:nonzero;fill:rgb(98.823529%,98.823529%,99.215686%);fill-opacity:1;" d="M 126.191406 123.25 C 126.191406 123.25 126.191406 123.261719 126.191406 123.261719 C 119.761719 125.191406 113.871094 128.800781 109.140625 133.78125 C 109.121094 133.800781 109.089844 133.828125 109.070312 133.859375 C 108.238281 134.691406 107.609375 135.53125 107.191406 136.050781 C 103.550781 140.648438 101.050781 145.789062 99.761719 151.261719 C 99.761719 151.261719 99.761719 151.25 99.761719 151.25 C 101.050781 145.78125 103.550781 140.640625 107.191406 136.039062 C 107.609375 135.519531 108.238281 134.679688 109.070312 133.851562 C 109.089844 133.828125 109.109375 133.808594 109.128906 133.78125 C 113.859375 128.800781 119.761719 125.179688 126.191406 123.25 Z M 126.191406 123.25 "/>
<path style=" stroke:none;fill-rule:nonzero;fill:rgb(37.647059%,37.647059%,37.647059%);fill-opacity:1;" d="M 166.351562 160 C 166.351562 176.25 153.230469 189.378906 136.96875 189.378906 C 120.710938 189.378906 107.601562 176.25 107.601562 160 C 107.601562 159.300781 107.621094 158.609375 107.671875 157.921875 C 108.109375 151.671875 110.5 146.050781 114.160156 141.460938 C 114.46875 141.039062 114.78125 140.628906 115.199219 140.308594 C 117.628906 137.640625 120.53125 135.421875 123.761719 133.78125 C 126.910156 132.179688 130.390625 131.128906 134.078125 130.769531 C 135.03125 130.679688 135.988281 130.628906 136.96875 130.628906 C 140.480469 130.628906 143.851562 131.238281 146.960938 132.371094 C 148.878906 133.058594 150.710938 133.949219 152.429688 135.011719 C 152.699219 135.179688 152.960938 135.339844 153.21875 135.519531 C 153.648438 135.808594 154.078125 136.101562 154.5 136.410156 C 155.058594 136.820312 155.601562 137.261719 156.121094 137.710938 C 156.230469 137.800781 156.328125 137.890625 156.429688 137.980469 C 156.429688 137.980469 156.429688 137.980469 156.441406 137.988281 C 158.511719 139.820312 160.320312 141.949219 161.808594 144.300781 C 163.070312 146.289062 164.101562 148.441406 164.851562 150.710938 C 165.070312 151.359375 165.261719 152.019531 165.429688 152.691406 C 165.46875 152.859375 165.511719 153.019531 165.550781 153.191406 C 165.589844 153.359375 165.628906 153.53125 165.660156 153.699219 C 165.730469 154.039062 165.800781 154.378906 165.859375 154.71875 C 166.191406 156.429688 166.351562 158.191406 166.351562 160 Z M 166.351562 160 "/>
<path style=" stroke:none;fill-rule:nonzero;fill:rgb(15.686275%,21.568627%,30.980392%);fill-opacity:1;" d="M 166.351562 160 C 166.351562 176.25 153.230469 189.378906 136.96875 189.378906 C 120.710938 189.378906 107.601562 176.25 107.601562 160 C 107.601562 159.300781 107.621094 158.609375 107.671875 157.921875 C 108.109375 151.671875 110.5 146.050781 114.160156 141.460938 C 114.46875 141.039062 114.78125 140.628906 115.199219 140.308594 C 117.628906 137.640625 120.53125 135.421875 123.761719 133.78125 C 126.910156 132.179688 130.390625 131.128906 134.078125 130.769531 C 135.03125 130.679688 135.988281 130.628906 136.96875 130.628906 C 140.480469 130.628906 143.851562 131.238281 146.960938 132.371094 C 148.878906 133.058594 150.710938 133.949219 152.429688 135.011719 C 152.699219 135.179688 152.960938 135.339844 153.21875 135.519531 C 153.648438 135.808594 154.078125 136.101562 154.5 136.410156 C 155.058594 136.820312 155.601562 137.261719 156.121094 137.710938 C 156.230469 137.800781 156.328125 137.890625 156.429688 137.980469 C 156.429688 137.980469 156.429688 137.980469 156.441406 137.988281 C 158.511719 139.820312 160.320312 141.949219 161.808594 144.300781 C 163.070312 146.289062 164.101562 148.441406 164.851562 150.710938 C 165.070312 151.359375 165.261719 152.019531 165.429688 152.691406 C 165.46875 152.859375 165.511719 153.019531 165.550781 153.191406 C 165.589844 153.359375 165.628906 153.53125 165.660156 153.699219 C 165.730469 154.039062 165.800781 154.378906 165.859375 154.71875 C 166.191406 156.429688 166.351562 158.191406 166.351562 160 Z M 166.351562 160 "/>
<path style=" stroke:none;fill-rule:nonzero;fill:rgb(98.823529%,98.823529%,99.215686%);fill-opacity:1;" d="M 136.980469 141.949219 L 126.339844 159.421875 L 136.980469 165.621094 Z M 136.980469 141.949219 "/>
<path style=" stroke:none;fill-rule:nonzero;fill:rgb(98.823529%,98.823529%,99.215686%);fill-opacity:1;" d="M 136.980469 169.050781 L 136.980469 178.050781 L 126.128906 162.71875 Z M 136.980469 169.050781 "/>
<path style=" stroke:none;fill-rule:nonzero;fill:rgb(98.823529%,98.823529%,99.215686%);fill-opacity:1;" d="M 126.339844 159.421875 L 136.980469 154.550781 L 136.980469 165.621094 Z M 126.339844 159.421875 "/>
<path style=" stroke:none;fill-rule:nonzero;fill:rgb(98.823529%,98.823529%,99.215686%);fill-opacity:1;" d="M 136.980469 141.949219 L 147.621094 159.421875 L 136.980469 165.621094 Z M 136.980469 141.949219 "/>
<path style=" stroke:none;fill-rule:nonzero;fill:rgb(98.823529%,98.823529%,99.215686%);fill-opacity:1;" d="M 147.820312 162.71875 L 136.980469 178.050781 L 136.980469 169.050781 Z M 147.820312 162.71875 "/>
<path style=" stroke:none;fill-rule:nonzero;fill:rgb(98.823529%,98.823529%,99.215686%);fill-opacity:1;" d="M 147.621094 159.421875 L 136.980469 154.550781 L 136.980469 165.621094 Z M 147.621094 159.421875 "/>
<path style=" stroke:none;fill-rule:nonzero;fill:rgb(41.176471%,19.607843%,83.137255%);fill-opacity:1;" d="M 134.078125 41.550781 L 134.078125 62.789062 L 65.921875 62.789062 L 65.921875 133.769531 L 109.140625 133.769531 C 109.121094 133.789062 109.089844 133.820312 109.070312 133.851562 C 108.238281 134.679688 107.609375 135.519531 107.191406 136.039062 C 103.550781 140.640625 101.050781 145.78125 99.761719 151.25 C 99.210938 153.589844 98.878906 155.988281 98.78125 158.441406 C 68.859375 157.808594 44.671875 132.238281 44.671875 102.058594 L 44.671875 78.398438 L 92.300781 41.550781 Z M 134.078125 41.550781 "/>
<path style=" stroke:none;fill-rule:nonzero;fill:rgb(41.176471%,19.607843%,83.137255%);fill-opacity:1;" d="M 155.328125 62.789062 L 155.328125 103.171875 C 155.328125 110.671875 153.820312 117.839844 151.089844 124.378906 C 146.71875 122.628906 141.960938 121.660156 136.980469 121.660156 C 136.011719 121.660156 135.039062 121.699219 134.078125 121.769531 L 134.078125 62.789062 Z M 155.328125 62.789062 "/>
</g>
</svg>
