<svg width="200" height="200" viewBox="0 0 200 200" fill="none" xmlns="http://www.w3.org/2000/svg">
<path d="M193.75 100C193.75 151.777 151.777 193.75 100 193.75C48.2233 193.75 6.25 151.777 6.25 100C6.25 48.2233 48.2233 6.25 100 6.25C151.777 6.25 193.75 48.2233 193.75 100Z" fill="white" stroke="#9BA5B4" stroke-width="12.5"/>
<path fill-rule="evenodd" clip-rule="evenodd" d="M103.471 37.6129L93.2987 86.4777H133.294L113.934 112.222H113.931L76.8936 161.085L87.4125 112.222H47.0718L65.6658 87.4996L65.6585 87.4998L103.471 37.6129Z" fill="#3364F6"/>
<path d="M130.6 168.116C151.084 168.116 167.691 151.51 167.691 131.026C167.691 110.542 151.084 93.9362 130.6 93.9362C110.115 93.9362 93.5088 110.542 93.5088 131.026C93.5088 151.51 110.115 168.116 130.6 168.116Z" fill="white"/>
<path d="M130.601 162.377C147.916 162.377 161.952 148.341 161.952 131.026C161.952 113.712 147.916 99.6758 130.601 99.6758C113.287 99.6758 99.2507 113.712 99.2507 131.026C99.2507 148.341 113.287 162.377 130.601 162.377Z" fill="#00AAD9"/>
<path d="M142.622 126.8H141.058V122.104C141.058 119.475 140.013 116.953 138.154 115.094C136.295 113.235 133.774 112.191 131.145 112.191C128.516 112.191 125.995 113.235 124.136 115.094C122.277 116.953 121.233 119.475 121.233 122.104V126.8H119.669C118.838 126.8 118.042 127.13 117.455 127.717C116.868 128.304 116.538 129.1 116.538 129.931V142.456C116.538 143.287 116.868 144.083 117.455 144.67C118.042 145.258 118.838 145.587 119.669 145.587H142.622C143.034 145.587 143.441 145.507 143.821 145.349C144.201 145.192 144.546 144.961 144.837 144.67C145.127 144.38 145.358 144.034 145.515 143.654C145.673 143.275 145.754 142.867 145.754 142.456V129.931C145.754 129.52 145.673 129.113 145.515 128.733C145.358 128.353 145.127 128.008 144.837 127.717C144.546 127.426 144.201 127.195 143.821 127.038C143.441 126.881 143.034 126.8 142.622 126.8ZM135.841 126.8H126.447V122.104C126.447 120.858 126.942 119.663 127.822 118.782C128.703 117.902 129.898 117.407 131.144 117.407C132.389 117.407 133.584 117.902 134.465 118.782C135.346 119.663 135.841 120.858 135.841 122.104V126.8Z" fill="white"/>
</svg>
