<?xml version="1.0" encoding="UTF-8"?>
<!DOCTYPE svg PUBLIC "-//W3C//DTD SVG 1.1//EN" "http://www.w3.org/Graphics/SVG/1.1/DTD/svg11.dtd">
<svg xmlns="http://www.w3.org/2000/svg" version="1.1" width="200px" height="200px" style="shape-rendering:geometricPrecision; text-rendering:geometricPrecision; image-rendering:optimizeQuality; fill-rule:evenodd; clip-rule:evenodd" xmlns:xlink="http://www.w3.org/1999/xlink">
<g><path style="opacity:1" fill="#fdfdfc" d="M -0.5,-0.5 C 28.5,-0.5 57.5,-0.5 86.5,-0.5C 78.8448,1.13715 71.1782,3.13715 63.5,5.5C 61.0748,7.14453 58.4081,8.3112 55.5,9C 52.5798,10.9461 49.9131,13.1128 47.5,15.5C 45.7376,15.3573 44.0709,15.6906 42.5,16.5C 37.3481,21.1515 32.3481,25.9849 27.5,31C 26.5,31.3333 25.5,31.6667 24.5,32C 22.0495,36.3927 19.2161,40.5594 16,44.5C 15.5172,45.448 15.3505,46.448 15.5,47.5C 14.5,47.5 13.5,47.5 12.5,47.5C 6.54899,60.352 2.21565,73.6854 -0.5,87.5C -0.5,58.1667 -0.5,28.8333 -0.5,-0.5 Z"/></g>
<g><path style="opacity:1" fill="#fdfdfc" d="M 111.5,-0.5 C 140.833,-0.5 170.167,-0.5 199.5,-0.5C 199.5,27.5 199.5,55.5 199.5,83.5C 198.883,83.3893 198.383,83.056 198,82.5C 197.107,77.4768 196.107,72.4768 195,67.5C 191.953,61.1406 188.953,54.8072 186,48.5C 181.167,41.0944 175.667,34.4278 169.5,28.5C 168.212,24.7179 165.545,22.5512 161.5,22C 159.5,20 157.5,18 155.5,16C 149.326,12.9954 143.159,9.82876 137,6.5C 128.575,3.46858 120.075,1.13525 111.5,-0.5 Z"/></g>
<g><path style="opacity:1" fill="#f0c2c2" d="M 86.5,-0.5 C 94.8333,-0.5 103.167,-0.5 111.5,-0.5C 120.075,1.13525 128.575,3.46858 137,6.5C 143.159,9.82876 149.326,12.9954 155.5,16C 157.5,18 159.5,20 161.5,22C 165.545,22.5512 168.212,24.7179 169.5,28.5C 166.834,28.933 164.168,29.433 161.5,30C 162.634,31.016 162.301,31.6827 160.5,32C 162.129,34.8112 163.462,37.8112 164.5,41C 163.615,43.1566 161.948,43.9899 159.5,43.5C 159.5,39.5 159.5,35.5 159.5,31.5C 154.167,31.5 148.833,31.5 143.5,31.5C 144.116,39.9392 143.449,48.1058 141.5,56C 142.683,58.1551 142.35,60.1551 140.5,62C 141.712,63.1068 141.379,63.6068 139.5,63.5C 137.562,54.951 133.562,47.6176 127.5,41.5C 124.042,37.268 119.708,34.268 114.5,32.5C 111.904,31.7347 109.237,31.4013 106.5,31.5C 108.467,30.0726 110.134,28.2392 111.5,26C 111.25,22.6679 111.25,19.1679 111.5,15.5C 115.514,15.6655 119.514,15.4988 123.5,15C 122.672,14.0853 121.672,13.4186 120.5,13C 116.532,12.7663 112.698,11.933 109,10.5C 106.291,10.8717 104.457,12.3717 103.5,15C 102.167,15.1667 100.833,15.3333 99.5,15.5C 94.9121,14.2157 90.2455,13.3824 85.5,13C 87.5026,11.1813 88.836,9.01458 89.5,6.5C 91.5,6.5 93.5,6.5 95.5,6.5C 95.5,5.5 95.5,4.5 95.5,3.5C 88.0411,3.3275 80.8744,4.66083 74,7.5C 71.4881,9.71813 69.3214,12.2181 67.5,15C 63.7887,15.8253 60.122,15.6586 56.5,14.5C 58.8907,13.0177 61.2241,11.3511 63.5,9.5C 62.8333,9.16667 62.1667,8.83333 61.5,8.5C 58.4458,9.71268 55.7792,11.546 53.5,14C 51.6547,15.128 49.6547,15.628 47.5,15.5C 49.9131,13.1128 52.5798,10.9461 55.5,9C 58.4081,8.3112 61.0748,7.14453 63.5,5.5C 71.1782,3.13715 78.8448,1.13715 86.5,-0.5 Z"/></g>
<g><path style="opacity:1" fill="#f1c1c1" d="M 106.5,31.5 C 91.2964,33.0602 80.6298,40.7269 74.5,54.5C 71.3962,55.7752 68.3962,55.7752 65.5,54.5C 62.3023,50.6451 58.9689,46.8117 55.5,43C 53.2511,42.1368 51.4178,42.6368 50,44.5C 49.7937,50.285 48.9604,55.9516 47.5,61.5C 42.5784,64.4131 37.9117,67.7464 33.5,71.5C 30.6952,73.7922 28.3619,76.4589 26.5,79.5C 24.8333,79.5 23.1667,79.5 21.5,79.5C 21.6602,81.1992 21.4935,82.8659 21,84.5C 18.5346,82.9448 18.0346,80.9448 19.5,78.5C 18.8632,76.6969 17.6965,75.3636 16,74.5C 15.6667,72.1667 15.3333,69.8333 15,67.5C 10.1605,76.1885 7.66048,85.5218 7.5,95.5C 8.83333,95.5 10.1667,95.5 11.5,95.5C 10.0757,103.02 8.74232,110.52 7.5,118C 8.65367,118.914 8.48701,119.747 7,120.5C 6.08529,119.672 5.41862,118.672 5,117.5C 3.97444,112.141 3.80777,106.807 4.5,101.5C 3.83333,98.8333 3.16667,96.1667 2.5,93.5C 3.71621,79.454 7.88288,66.454 15,54.5C 15.4966,52.1902 15.6633,49.8568 15.5,47.5C 15.3505,46.448 15.5172,45.448 16,44.5C 19.2161,40.5594 22.0495,36.3927 24.5,32C 25.5,31.6667 26.5,31.3333 27.5,31C 32.3481,25.9849 37.3481,21.1515 42.5,16.5C 44.0709,15.6906 45.7376,15.3573 47.5,15.5C 49.6547,15.628 51.6547,15.128 53.5,14C 55.7792,11.546 58.4458,9.71268 61.5,8.5C 62.1667,8.83333 62.8333,9.16667 63.5,9.5C 61.2241,11.3511 58.8907,13.0177 56.5,14.5C 60.122,15.6586 63.7887,15.8253 67.5,15C 69.3214,12.2181 71.4881,9.71813 74,7.5C 80.8744,4.66083 88.0411,3.3275 95.5,3.5C 95.5,4.5 95.5,5.5 95.5,6.5C 93.5,6.5 91.5,6.5 89.5,6.5C 88.836,9.01458 87.5026,11.1813 85.5,13C 90.2455,13.3824 94.9121,14.2157 99.5,15.5C 100.833,15.3333 102.167,15.1667 103.5,15C 104.457,12.3717 106.291,10.8717 109,10.5C 112.698,11.933 116.532,12.7663 120.5,13C 121.672,13.4186 122.672,14.0853 123.5,15C 119.514,15.4988 115.514,15.6655 111.5,15.5C 111.25,19.1679 111.25,22.6679 111.5,26C 110.134,28.2392 108.467,30.0726 106.5,31.5 Z"/></g>
<g><path style="opacity:1" fill="#9c4637" d="M 114.5,32.5 C 119.708,34.268 124.042,37.268 127.5,41.5C 127.5,42.1667 127.5,42.8333 127.5,43.5C 125.833,43.5 124.167,43.5 122.5,43.5C 122.688,41.8967 122.188,40.5634 121,39.5C 120.667,39.8333 120.333,40.1667 120,40.5C 117.958,38.396 115.458,37.2293 112.5,37C 101.486,34.8846 92.4864,38.0513 85.5,46.5C 86.0253,47.1924 86.6919,47.6924 87.5,48C 85.5448,48.9533 83.8782,50.2866 82.5,52C 86.8379,53.1055 91.1712,53.9389 95.5,54.5C 97.8268,56.0303 100.16,57.6969 102.5,59.5C 94.8999,57.8444 87.2332,56.511 79.5,55.5C 79.3359,52.8127 79.5026,50.146 80,47.5C 89.084,36.7559 100.584,31.7559 114.5,32.5 Z"/></g>
<g><path style="opacity:1" fill="#73312a" d="M 106.5,31.5 C 109.237,31.4013 111.904,31.7347 114.5,32.5C 100.584,31.7559 89.084,36.7559 80,47.5C 79.5026,50.146 79.3359,52.8127 79.5,55.5C 77.7085,55.634 76.0418,55.3007 74.5,54.5C 80.6298,40.7269 91.2964,33.0602 106.5,31.5 Z"/></g>
<g><path style="opacity:1" fill="#874339" d="M 127.5,41.5 C 133.562,47.6176 137.562,54.951 139.5,63.5C 138.833,65.1667 138.167,66.8333 137.5,68.5C 136.508,68.6716 135.842,68.3382 135.5,67.5C 136.239,67.631 136.906,67.4643 137.5,67C 136.584,66.7216 135.918,66.2216 135.5,65.5C 136.289,65.2172 136.956,64.7172 137.5,64C 136.689,61.8948 135.689,59.8948 134.5,58C 134.735,57.1268 135.069,56.2935 135.5,55.5C 133.914,53.3295 132.58,50.9962 131.5,48.5C 130.675,47.6143 129.675,47.281 128.5,47.5C 127.566,46.4324 127.232,45.099 127.5,43.5C 127.5,42.8333 127.5,42.1667 127.5,41.5 Z"/></g>
<g><path style="opacity:1" fill="#ab422f" d="M 127.5,43.5 C 127.232,45.099 127.566,46.4324 128.5,47.5C 127.87,51.0044 127.203,54.5044 126.5,58C 122.458,58.1611 118.458,57.6611 114.5,56.5C 112.962,56.6728 111.462,57.0062 110,57.5C 109.5,57.1667 109,56.8333 108.5,56.5C 109.376,55.7492 110.376,55.2492 111.5,55C 106.177,54.5006 100.844,54.334 95.5,54.5C 91.1712,53.9389 86.8379,53.1055 82.5,52C 83.8782,50.2866 85.5448,48.9533 87.5,48C 86.6919,47.6924 86.0253,47.1924 85.5,46.5C 92.4864,38.0513 101.486,34.8846 112.5,37C 115.458,37.2293 117.958,38.396 120,40.5C 120.333,40.1667 120.667,39.8333 121,39.5C 122.188,40.5634 122.688,41.8967 122.5,43.5C 124.167,43.5 125.833,43.5 127.5,43.5 Z"/></g>
<g><path style="opacity:1" fill="#c8986f" d="M 63.5,55.5 C 58.919,57.1401 54.2524,58.8068 49.5,60.5C 50.493,55.2228 51.1596,49.8895 51.5,44.5C 52.8734,44.3433 54.2068,44.51 55.5,45C 58.3826,48.3765 61.0493,51.8765 63.5,55.5 Z"/></g>
<g><path style="opacity:1" fill="#a34431" d="M 128.5,47.5 C 129.675,47.281 130.675,47.6143 131.5,48.5C 132.58,50.9962 133.914,53.3295 135.5,55.5C 135.069,56.2935 134.735,57.1268 134.5,58C 135.689,59.8948 136.689,61.8948 137.5,64C 136.956,64.7172 136.289,65.2172 135.5,65.5C 130.955,63.7074 126.288,62.2074 121.5,61C 116.648,60.1849 111.981,60.3516 107.5,61.5C 106.18,60.0582 104.514,59.3915 102.5,59.5C 100.16,57.6969 97.8268,56.0303 95.5,54.5C 100.844,54.334 106.177,54.5006 111.5,55C 110.376,55.2492 109.376,55.7492 108.5,56.5C 109,56.8333 109.5,57.1667 110,57.5C 111.462,57.0062 112.962,56.6728 114.5,56.5C 118.458,57.6611 122.458,58.1611 126.5,58C 127.203,54.5044 127.87,51.0044 128.5,47.5 Z"/></g>
<g><path style="opacity:1" fill="#653a2b" d="M 65.5,54.5 C 64.8333,54.8333 64.1667,55.1667 63.5,55.5C 61.0493,51.8765 58.3826,48.3765 55.5,45C 54.2068,44.51 52.8734,44.3433 51.5,44.5C 51.1596,49.8895 50.493,55.2228 49.5,60.5C 48.8333,60.8333 48.1667,61.1667 47.5,61.5C 48.9604,55.9516 49.7937,50.285 50,44.5C 51.4178,42.6368 53.2511,42.1368 55.5,43C 58.9689,46.8117 62.3023,50.6451 65.5,54.5 Z"/></g>
<g><path style="opacity:1" fill="#99463a" d="M 108.5,63.5 C 99.9248,63.2067 91.4248,62.2067 83,60.5C 81.2841,60.2517 79.7841,59.585 78.5,58.5C 71.8343,59.1914 65.1677,60.0247 58.5,61C 56.9963,62.3369 55.9963,64.0036 55.5,66C 50.7142,68.163 45.7142,69.8297 40.5,71C 38.2835,73.3048 36.6169,75.9715 35.5,79C 34.2068,79.49 32.8734,79.6567 31.5,79.5C 31.2525,77.1417 31.9192,75.1417 33.5,73.5C 49.2905,59.6206 67.6239,54.4539 88.5,58C 95.2114,60.1606 101.878,61.9939 108.5,63.5 Z"/></g>
<g><path style="opacity:1" fill="#601c12" d="M 65.5,54.5 C 68.3962,55.7752 71.3962,55.7752 74.5,54.5C 76.0418,55.3007 77.7085,55.634 79.5,55.5C 87.2332,56.511 94.8999,57.8444 102.5,59.5C 104.514,59.3915 106.18,60.0582 107.5,61.5C 116.846,63.3694 126.179,65.3694 135.5,67.5C 135.842,68.3382 136.508,68.6716 137.5,68.5C 138.167,69.1667 138.833,69.8333 139.5,70.5C 129.177,68.0358 118.843,65.7025 108.5,63.5C 101.878,61.9939 95.2114,60.1606 88.5,58C 67.6239,54.4539 49.2905,59.6206 33.5,73.5C 33.5,72.8333 33.5,72.1667 33.5,71.5C 37.9117,67.7464 42.5784,64.4131 47.5,61.5C 48.1667,61.1667 48.8333,60.8333 49.5,60.5C 54.2524,58.8068 58.919,57.1401 63.5,55.5C 64.1667,55.1667 64.8333,54.8333 65.5,54.5 Z"/></g>
<g><path style="opacity:1" fill="#5a2e1f" d="M 163.5,71.5 C 164.589,73.1171 166.256,73.9504 168.5,74C 162.509,74.4995 156.509,74.6662 150.5,74.5C 147.133,72.4225 143.466,71.0892 139.5,70.5C 138.833,69.8333 138.167,69.1667 137.5,68.5C 138.167,66.8333 138.833,65.1667 139.5,63.5C 139.771,65.3117 140.438,66.9783 141.5,68.5C 144.427,63.1297 146.593,57.4631 148,51.5C 148.388,50.572 149.055,49.9054 150,49.5C 151.326,50.7989 152.66,52.1322 154,53.5C 156.937,59.7119 160.104,65.7119 163.5,71.5 Z"/></g>
<g><path style="opacity:1" fill="#c0956f" d="M 151.5,71.5 C 153.5,71.1667 155.5,70.8333 157.5,70.5C 156.491,67.9514 155.658,65.2848 155,62.5C 154.667,63.8333 154.333,65.1667 154,66.5C 153.667,64.5 153.333,62.5 153,60.5C 151.096,59.3531 149.596,59.8531 148.5,62C 147.652,64.7695 147.319,67.6029 147.5,70.5C 146.5,70.5 145.5,70.5 144.5,70.5C 145.505,64.1502 147.505,58.1502 150.5,52.5C 154.419,58.6697 158.086,65.0031 161.5,71.5C 158.02,72.8056 154.687,72.8056 151.5,71.5 Z"/></g>
<g><path style="opacity:1" fill="#aa4330" d="M 108.5,63.5 C 118.843,65.7025 129.177,68.0358 139.5,70.5C 143.466,71.0892 147.133,72.4225 150.5,74.5C 150.611,75.1174 150.944,75.6174 151.5,76C 159.493,76.4997 167.493,76.6664 175.5,76.5C 175.5,77.5 175.5,78.5 175.5,79.5C 174.022,79.238 172.689,79.5713 171.5,80.5C 170.366,83.0698 169.532,85.7365 169,88.5C 168.333,90.5 167,91.8333 165,92.5C 164.517,93.448 164.351,94.448 164.5,95.5C 162.833,95.5 161.167,95.5 159.5,95.5C 159.5,94.5 159.5,93.5 159.5,92.5C 156.213,91.736 153.546,89.9027 151.5,87C 143.343,85.4021 135.343,83.2354 127.5,80.5C 114.179,79.334 100.846,79.1673 87.5,80C 82.7195,81.7085 77.7195,82.5418 72.5,82.5C 72.0829,87.9114 69.0829,90.5781 63.5,90.5C 63.5,92.1667 63.5,93.8333 63.5,95.5C 62.1667,95.5 60.8333,95.5 59.5,95.5C 59.5358,100.062 58.5358,104.396 56.5,108.5C 57.5225,110.895 56.5225,111.895 53.5,111.5C 53.6971,115.806 51.6971,117.806 47.5,117.5C 45.8121,120.579 44.4788,123.912 43.5,127.5C 42.1667,127.5 40.8333,127.5 39.5,127.5C 38.5849,125.246 37.2516,123.246 35.5,121.5C 30.5229,119.856 27.1896,116.523 25.5,111.5C 24.3356,104.524 24.1689,97.5237 25,90.5C 25.9411,88.2279 27.2745,86.2279 29,84.5C 29.4935,82.8659 29.6602,81.1992 29.5,79.5C 30.1667,79.5 30.8333,79.5 31.5,79.5C 32.8734,79.6567 34.2068,79.49 35.5,79C 36.6169,75.9715 38.2835,73.3048 40.5,71C 45.7142,69.8297 50.7142,68.163 55.5,66C 55.9963,64.0036 56.9963,62.3369 58.5,61C 65.1677,60.0247 71.8343,59.1914 78.5,58.5C 79.7841,59.585 81.2841,60.2517 83,60.5C 91.4248,62.2067 99.9248,63.2067 108.5,63.5 Z"/></g>
<g><path style="opacity:1" fill="#bb6b58" d="M 107.5,61.5 C 111.981,60.3516 116.648,60.1849 121.5,61C 126.288,62.2074 130.955,63.7074 135.5,65.5C 135.918,66.2216 136.584,66.7216 137.5,67C 136.906,67.4643 136.239,67.631 135.5,67.5C 126.179,65.3694 116.846,63.3694 107.5,61.5 Z"/></g>
<g><path style="opacity:1" fill="#cd9963" d="M 151.5,71.5 C 149.901,71.7678 148.568,71.4345 147.5,70.5C 147.319,67.6029 147.652,64.7695 148.5,62C 149.596,59.8531 151.096,59.3531 153,60.5C 153.333,62.5 153.667,64.5 154,66.5C 154.333,65.1667 154.667,63.8333 155,62.5C 155.658,65.2848 156.491,67.9514 157.5,70.5C 155.5,70.8333 153.5,71.1667 151.5,71.5 Z"/></g>
<g><path style="opacity:1" fill="#8d4b3b" d="M 176.5,79.5 C 176.662,77.4727 176.495,75.4727 176,73.5C 175.517,74.448 175.351,75.448 175.5,76.5C 167.493,76.6664 159.493,76.4997 151.5,76C 150.944,75.6174 150.611,75.1174 150.5,74.5C 156.509,74.6662 162.509,74.4995 168.5,74C 166.256,73.9504 164.589,73.1171 163.5,71.5C 168.193,73.2049 172.527,72.5382 176.5,69.5C 177.806,72.9798 177.806,76.3132 176.5,79.5 Z"/></g>
<g><path style="opacity:1" fill="#f0c2c2" d="M 169.5,28.5 C 175.667,34.4278 181.167,41.0944 186,48.5C 188.953,54.8072 191.953,61.1406 195,67.5C 196.107,72.4768 197.107,77.4768 198,82.5C 198.383,83.056 198.883,83.3893 199.5,83.5C 199.5,91.1667 199.5,98.8333 199.5,106.5C 198.549,107.919 198.216,109.585 198.5,111.5C 197.167,111.5 195.833,111.5 194.5,111.5C 193.899,118.654 192.899,125.654 191.5,132.5C 190.178,132.33 189.011,132.663 188,133.5C 186.094,137.229 184.928,141.229 184.5,145.5C 181.858,149.309 179.025,152.976 176,156.5C 176.158,160.416 174.491,163.082 171,164.5C 169.96,169.039 167.126,171.706 162.5,172.5C 161.014,174.302 160.014,176.302 159.5,178.5C 156.187,181.155 152.854,183.822 149.5,186.5C 149.844,181.878 149.177,177.545 147.5,173.5C 147.5,172.833 147.167,172.5 146.5,172.5C 146.291,171.078 145.791,169.745 145,168.5C 141.934,165.604 139.101,162.604 136.5,159.5C 136.833,158.5 137.5,157.833 138.5,157.5C 151.056,153.439 161.223,146.106 169,135.5C 170.368,132.262 170.701,128.928 170,125.5C 162.459,120.867 159.292,114.2 160.5,105.5C 160.238,104.022 160.571,102.689 161.5,101.5C 162.855,100.812 163.855,99.8118 164.5,98.5C 171.703,94.277 175.703,87.9437 176.5,79.5C 177.806,76.3132 177.806,72.9798 176.5,69.5C 172.527,72.5382 168.193,73.2049 163.5,71.5C 160.104,65.7119 156.937,59.7119 154,53.5C 152.66,52.1322 151.326,50.7989 150,49.5C 149.055,49.9054 148.388,50.572 148,51.5C 146.593,57.4631 144.427,63.1297 141.5,68.5C 140.438,66.9783 139.771,65.3117 139.5,63.5C 141.379,63.6068 141.712,63.1068 140.5,62C 142.35,60.1551 142.683,58.1551 141.5,56C 143.449,48.1058 144.116,39.9392 143.5,31.5C 148.833,31.5 154.167,31.5 159.5,31.5C 159.5,35.5 159.5,39.5 159.5,43.5C 161.948,43.9899 163.615,43.1566 164.5,41C 163.462,37.8112 162.129,34.8112 160.5,32C 162.301,31.6827 162.634,31.016 161.5,30C 164.168,29.433 166.834,28.933 169.5,28.5 Z"/></g>
<g><path style="opacity:1" fill="#964739" d="M 175.5,79.5 C 173.936,87.7306 169.602,94.0639 162.5,98.5C 161.022,98.762 159.689,98.4287 158.5,97.5C 156.612,93.4438 153.612,90.6104 149.5,89C 142.226,86.8481 134.892,85.0148 127.5,83.5C 118.143,80.9177 108.476,79.9177 98.5,80.5C 91.2503,80.3113 84.917,82.3113 79.5,86.5C 74.0088,88.6068 69.3422,91.9401 65.5,96.5C 63.074,103.205 59.9074,109.538 56,115.5C 53.9263,118.078 51.4263,120.078 48.5,121.5C 46.65,123.821 46.3167,126.154 47.5,128.5C 47.719,129.675 47.3857,130.675 46.5,131.5C 43.651,130.9 41.3177,129.567 39.5,127.5C 40.8333,127.5 42.1667,127.5 43.5,127.5C 44.4788,123.912 45.8121,120.579 47.5,117.5C 51.6971,117.806 53.6971,115.806 53.5,111.5C 56.5225,111.895 57.5225,110.895 56.5,108.5C 58.5358,104.396 59.5358,100.062 59.5,95.5C 60.8333,95.5 62.1667,95.5 63.5,95.5C 63.5,93.8333 63.5,92.1667 63.5,90.5C 69.0829,90.5781 72.0829,87.9114 72.5,82.5C 77.7195,82.5418 82.7195,81.7085 87.5,80C 100.846,79.1673 114.179,79.334 127.5,80.5C 135.343,83.2354 143.343,85.4021 151.5,87C 153.546,89.9027 156.213,91.736 159.5,92.5C 159.5,93.5 159.5,94.5 159.5,95.5C 161.167,95.5 162.833,95.5 164.5,95.5C 164.351,94.448 164.517,93.448 165,92.5C 167,91.8333 168.333,90.5 169,88.5C 169.532,85.7365 170.366,83.0698 171.5,80.5C 172.689,79.5713 174.022,79.238 175.5,79.5 Z"/></g>
<g><path style="opacity:1" fill="#4c2418" d="M 98.5,80.5 C 98.5,81.1667 98.5,81.8333 98.5,82.5C 101.549,85.2704 103.883,88.6037 105.5,92.5C 105.376,93.1067 105.043,93.44 104.5,93.5C 101.761,85.1915 96.0942,82.0248 87.5,84C 84.6882,85.3277 82.0216,86.8277 79.5,88.5C 79.5,87.8333 79.5,87.1667 79.5,86.5C 84.917,82.3113 91.2503,80.3113 98.5,80.5 Z"/></g>
<g><path style="opacity:1" fill="#602410" d="M 98.5,80.5 C 108.476,79.9177 118.143,80.9177 127.5,83.5C 127.5,84.1667 127.5,84.8333 127.5,85.5C 118.04,82.8599 108.374,81.8599 98.5,82.5C 98.5,81.8333 98.5,81.1667 98.5,80.5 Z"/></g>
<g><path style="opacity:1" fill="#62241d" d="M 176.5,79.5 C 175.703,87.9437 171.703,94.277 164.5,98.5C 163.833,98.5 163.167,98.5 162.5,98.5C 169.602,94.0639 173.936,87.7306 175.5,79.5C 175.5,78.5 175.5,77.5 175.5,76.5C 175.351,75.448 175.517,74.448 176,73.5C 176.495,75.4727 176.662,77.4727 176.5,79.5 Z"/></g>
<g><path style="opacity:1" fill="#561f0e" d="M 79.5,86.5 C 79.5,87.1667 79.5,87.8333 79.5,88.5C 79.5,88.8333 79.5,89.1667 79.5,89.5C 78.1266,89.3433 76.7932,89.51 75.5,90C 71.8946,93.3604 68.3946,96.8604 65,100.5C 62.7894,110.184 57.9561,118.184 50.5,124.5C 49.8902,125.391 49.5569,126.391 49.5,127.5C 48.5084,127.328 47.8417,127.662 47.5,128.5C 46.3167,126.154 46.65,123.821 48.5,121.5C 51.4263,120.078 53.9263,118.078 56,115.5C 59.9074,109.538 63.074,103.205 65.5,96.5C 69.3422,91.9401 74.0088,88.6068 79.5,86.5 Z"/></g>
<g><path style="opacity:1" fill="#eedac5" d="M 104.5,93.5 C 107.559,103.617 109.725,113.951 111,124.5C 113.456,127.788 116.623,130.121 120.5,131.5C 120.5,131.833 120.5,132.167 120.5,132.5C 117.203,132.89 114.203,133.89 111.5,135.5C 110.078,136.925 108.411,137.925 106.5,138.5C 105.833,137.167 104.833,136.167 103.5,135.5C 105.137,133.876 104.803,132.876 102.5,132.5C 100.462,133.634 98.4624,133.634 96.5,132.5C 95.8333,133.167 95.1667,133.833 94.5,134.5C 92.2324,133.456 89.8991,133.289 87.5,134C 89.5951,134.556 89.7618,135.056 88,135.5C 85.0068,132.853 82.1735,132.853 79.5,135.5C 84.7208,136.624 84.7208,137.458 79.5,138C 82.1168,138.822 84.7835,139.322 87.5,139.5C 87.1667,142.5 88.5,143.833 91.5,143.5C 90.9738,146.808 92.3072,148.974 95.5,150C 93.8988,150.273 92.3988,150.773 91,151.5C 86.4662,147.989 81.6328,145.156 76.5,143C 77.3081,142.692 77.9747,142.192 78.5,141.5C 71.9517,130.342 69.9517,118.342 72.5,105.5C 73.7472,99.6741 76.0805,94.3408 79.5,89.5C 79.5,89.1667 79.5,88.8333 79.5,88.5C 82.0216,86.8277 84.6882,85.3277 87.5,84C 96.0942,82.0248 101.761,85.1915 104.5,93.5 Z"/></g>
<g><path style="opacity:1" fill="#d1995f" d="M 143.5,94.5 C 142.766,95.7079 142.433,97.0413 142.5,98.5C 141.028,108.632 140.028,118.965 139.5,129.5C 136.064,127.303 133.564,124.303 132,120.5C 131.363,122.303 130.197,123.636 128.5,124.5C 123.697,122.997 118.031,122.33 111.5,122.5C 111.16,113.557 111.16,104.557 111.5,95.5C 110.325,95.719 109.325,95.3857 108.5,94.5C 107.068,91.6698 106.735,88.8365 107.5,86C 108.833,85.8333 110.167,85.6667 111.5,85.5C 117.887,88.601 124.554,89.7677 131.5,89C 133.788,89.8221 136.122,90.4888 138.5,91C 140.596,91.7365 142.263,92.9032 143.5,94.5 Z"/></g>
<g><path style="opacity:1" fill="#4d2316" d="M 127.5,83.5 C 134.892,85.0148 142.226,86.8481 149.5,89C 153.612,90.6104 156.612,93.4438 158.5,97.5C 159.689,98.4287 161.022,98.762 162.5,98.5C 163.167,98.5 163.833,98.5 164.5,98.5C 163.855,99.8118 162.855,100.812 161.5,101.5C 160.571,102.689 160.238,104.022 160.5,105.5C 160.5,106.167 160.167,106.5 159.5,106.5C 158.969,100.746 156.302,96.2459 151.5,93C 146.566,92.7589 143.899,95.2589 143.5,100.5C 142.662,100.158 142.328,99.4916 142.5,98.5C 142.433,97.0413 142.766,95.7079 143.5,94.5C 144.801,93.1155 144.801,91.6155 143.5,90C 138.414,87.582 133.081,86.082 127.5,85.5C 127.5,84.8333 127.5,84.1667 127.5,83.5 Z"/></g>
<g><path style="opacity:1" fill="#cdaf96" d="M 159.5,106.5 C 160.038,108.117 160.371,109.784 160.5,111.5C 159.833,113.5 159.167,115.5 158.5,117.5C 158.809,112.733 158.309,108.066 157,103.5C 151.283,98.7921 147.283,100.125 145,107.5C 143.79,114.112 143.29,120.778 143.5,127.5C 143.167,127.5 142.833,127.5 142.5,127.5C 141.024,118.412 141.357,109.412 143.5,100.5C 143.899,95.2589 146.566,92.7589 151.5,93C 156.302,96.2459 158.969,100.746 159.5,106.5 Z"/></g>
<g><path style="opacity:1" fill="#c6986d" d="M 79.5,89.5 C 76.0805,94.3408 73.7472,99.6741 72.5,105.5C 70.4983,109.833 69.4983,114.5 69.5,119.5C 69.0984,122.477 68.0984,125.143 66.5,127.5C 67.0292,121.649 67.6958,115.816 68.5,110C 67.8307,108.153 66.4974,106.986 64.5,106.5C 63.6816,109.107 63.1816,111.774 63,114.5C 62.6667,114.167 62.3333,113.833 62,113.5C 60.2752,116.674 58.9419,120.007 58,123.5C 55.9286,124.103 54.7619,125.436 54.5,127.5C 53.8333,127.5 53.1667,127.5 52.5,127.5C 51.8333,126.5 51.1667,125.5 50.5,124.5C 57.9561,118.184 62.7894,110.184 65,100.5C 68.3946,96.8604 71.8946,93.3604 75.5,90C 76.7932,89.51 78.1266,89.3433 79.5,89.5 Z"/></g>
<g><path style="opacity:1" fill="#c59669" d="M 98.5,82.5 C 108.374,81.8599 118.04,82.8599 127.5,85.5C 133.081,86.082 138.414,87.582 143.5,90C 144.801,91.6155 144.801,93.1155 143.5,94.5C 142.263,92.9032 140.596,91.7365 138.5,91C 136.122,90.4888 133.788,89.8221 131.5,89C 124.554,89.7677 117.887,88.601 111.5,85.5C 110.167,85.6667 108.833,85.8333 107.5,86C 106.735,88.8365 107.068,91.6698 108.5,94.5C 109.325,95.3857 110.325,95.719 111.5,95.5C 111.16,104.557 111.16,113.557 111.5,122.5C 118.031,122.33 123.697,122.997 128.5,124.5C 130.197,123.636 131.363,122.303 132,120.5C 133.564,124.303 136.064,127.303 139.5,129.5C 140.028,118.965 141.028,108.632 142.5,98.5C 142.328,99.4916 142.662,100.158 143.5,100.5C 141.357,109.412 141.024,118.412 142.5,127.5C 142.463,130.702 140.797,132.368 137.5,132.5C 135.796,128.394 132.629,126.727 128,127.5C 125.775,127.565 123.608,127.898 121.5,128.5C 120.614,129.325 120.281,130.325 120.5,131.5C 116.623,130.121 113.456,127.788 111,124.5C 109.725,113.951 107.559,103.617 104.5,93.5C 105.043,93.44 105.376,93.1067 105.5,92.5C 103.883,88.6037 101.549,85.2704 98.5,82.5 Z"/></g>
<g><path style="opacity:1" fill="#342726" d="M 78.5,101.5 C 84.2082,90.9956 91.3749,89.9956 100,98.5C 104.769,107.715 105.602,117.215 102.5,127C 92.0558,130.558 83.0558,128.392 75.5,120.5C 74.1202,113.712 75.1202,107.379 78.5,101.5 Z"/></g>
<g><path style="opacity:1" fill="#e8e5e3" d="M 97.5,110.5 C 95.059,111.756 92.7257,111.756 90.5,110.5C 89.6259,103.715 92.1259,101.715 98,104.5C 98.4901,106.545 98.3235,108.545 97.5,110.5 Z"/></g>
<g><path style="opacity:1" fill="#dcd3d9" d="M 86.5,101.5 C 86.5,101.167 86.5,100.833 86.5,100.5C 87.0717,97.7564 88.7383,96.9231 91.5,98C 92.3802,99.3561 92.7135,100.856 92.5,102.5C 90.3792,102.675 88.3792,102.341 86.5,101.5 Z"/></g>
<g><path style="opacity:1" fill="#56221f" d="M 33.5,71.5 C 33.5,72.1667 33.5,72.8333 33.5,73.5C 31.9192,75.1417 31.2525,77.1417 31.5,79.5C 30.8333,79.5 30.1667,79.5 29.5,79.5C 22.8833,88.3291 20.7167,98.3291 23,109.5C 24.8803,118.878 30.3803,124.878 39.5,127.5C 41.3177,129.567 43.651,130.9 46.5,131.5C 47.3857,130.675 47.719,129.675 47.5,128.5C 47.8417,127.662 48.5084,127.328 49.5,127.5C 49.5,128.5 49.5,129.5 49.5,130.5C 49.7373,131.791 49.404,132.791 48.5,133.5C 24.2526,127.681 15.4193,112.681 22,88.5C 24.0406,85.7522 25.5406,82.7522 26.5,79.5C 28.3619,76.4589 30.6952,73.7922 33.5,71.5 Z"/></g>
<g><path style="opacity:1" fill="#93463b" d="M 29.5,79.5 C 29.6602,81.1992 29.4935,82.8659 29,84.5C 27.2745,86.2279 25.9411,88.2279 25,90.5C 24.1689,97.5237 24.3356,104.524 25.5,111.5C 27.1896,116.523 30.5229,119.856 35.5,121.5C 37.2516,123.246 38.5849,125.246 39.5,127.5C 30.3803,124.878 24.8803,118.878 23,109.5C 20.7167,98.3291 22.8833,88.3291 29.5,79.5 Z"/></g>
<g><path style="opacity:1" fill="#2c212a" d="M 86.5,100.5 C 86.5,100.833 86.5,101.167 86.5,101.5C 85.7929,104.786 85.4595,108.119 85.5,111.5C 86.5,111.5 87.5,111.5 88.5,111.5C 88.3379,109.473 88.5045,107.473 89,105.5C 89.1981,107.382 89.6981,109.048 90.5,110.5C 92.7257,111.756 95.059,111.756 97.5,110.5C 98.9311,110.119 99.7645,109.119 100,107.5C 100.635,109.618 101.469,111.618 102.5,113.5C 102.004,118.249 100.67,122.582 98.5,126.5C 93.9174,126.368 89.9174,124.868 86.5,122C 84.1902,121.503 81.8568,121.337 79.5,121.5C 78.7476,118.91 77.7476,116.41 76.5,114C 76.7631,110.359 77.7631,107.026 79.5,104C 78.7476,103.329 78.4142,102.496 78.5,101.5C 80.0295,102.067 81.5295,102.733 83,103.5C 84.3588,102.635 85.5255,101.635 86.5,100.5 Z"/></g>
<g><path style="opacity:1" fill="#332423" d="M 158.5,117.5 C 157.128,126.567 152.128,129.9 143.5,127.5C 143.29,120.778 143.79,114.112 145,107.5C 147.283,100.125 151.283,98.7921 157,103.5C 158.309,108.066 158.809,112.733 158.5,117.5 Z"/></g>
<g><path style="opacity:1" fill="#ede7e4" d="M 150.5,103.5 C 155.328,103.385 156.661,105.552 154.5,110C 149.791,110.082 148.458,107.915 150.5,103.5 Z"/></g>
<g><path style="opacity:1" fill="#cf9b60" d="M 66.5,127.5 C 62.5,127.5 58.5,127.5 54.5,127.5C 54.7619,125.436 55.9286,124.103 58,123.5C 58.9419,120.007 60.2752,116.674 62,113.5C 62.3333,113.833 62.6667,114.167 63,114.5C 63.1816,111.774 63.6816,109.107 64.5,106.5C 66.4974,106.986 67.8307,108.153 68.5,110C 67.6958,115.816 67.0292,121.649 66.5,127.5 Z"/></g>
<g><path style="opacity:1" fill="#ecc2c2" d="M 15.5,47.5 C 15.6633,49.8568 15.4966,52.1902 15,54.5C 7.88288,66.454 3.71621,79.454 2.5,93.5C 3.16667,96.1667 3.83333,98.8333 4.5,101.5C 3.80777,106.807 3.97444,112.141 5,117.5C 5.41862,118.672 6.08529,119.672 7,120.5C 8.48701,119.747 8.65367,118.914 7.5,118C 8.74232,110.52 10.0757,103.02 11.5,95.5C 10.1667,95.5 8.83333,95.5 7.5,95.5C 7.66048,85.5218 10.1605,76.1885 15,67.5C 15.3333,69.8333 15.6667,72.1667 16,74.5C 17.6965,75.3636 18.8632,76.6969 19.5,78.5C 18.0346,80.9448 18.5346,82.9448 21,84.5C 21.4935,82.8659 21.6602,81.1992 21.5,79.5C 23.1667,79.5 24.8333,79.5 26.5,79.5C 25.5406,82.7522 24.0406,85.7522 22,88.5C 15.4193,112.681 24.2526,127.681 48.5,133.5C 50.1368,135.124 49.8034,136.124 47.5,136.5C 42.1808,135.021 36.8475,134.688 31.5,135.5C 31.9569,136.298 32.6236,136.631 33.5,136.5C 25.8337,137.282 19.3337,140.615 14,146.5C 13.3083,147.437 13.475,148.103 14.5,148.5C 15.3351,149.943 16.6684,150.943 18.5,151.5C 17.6721,152.415 16.6721,153.081 15.5,153.5C 14.6364,151.803 13.3031,150.637 11.5,150C 12.0219,149.439 12.3552,148.772 12.5,148C 6.65477,136.293 2.32144,124.126 -0.5,111.5C -0.5,103.5 -0.5,95.5 -0.5,87.5C 2.21565,73.6854 6.54899,60.352 12.5,47.5C 13.5,47.5 14.5,47.5 15.5,47.5 Z"/></g>
<g><path style="opacity:1" fill="#361e17" d="M 137.5,132.5 C 136.518,131.859 135.518,131.193 134.5,130.5C 130.212,131.411 125.879,132.078 121.5,132.5C 121.167,132.5 120.833,132.5 120.5,132.5C 120.5,132.167 120.5,131.833 120.5,131.5C 120.281,130.325 120.614,129.325 121.5,128.5C 123.608,127.898 125.775,127.565 128,127.5C 132.629,126.727 135.796,128.394 137.5,132.5 Z"/></g>
<g><path style="opacity:1" fill="#c6a07d" d="M 69.5,119.5 C 69.334,124.844 69.5006,130.177 70,135.5C 71.7926,138.394 73.2926,141.394 74.5,144.5C 73.4767,147.38 71.81,147.88 69.5,146C 67.346,143.526 65.846,140.692 65,137.5C 64.5814,138.672 63.9147,139.672 63,140.5C 61.98,139.109 61.1466,137.609 60.5,136C 55.5591,135.228 52.8925,132.394 52.5,127.5C 53.1667,127.5 53.8333,127.5 54.5,127.5C 58.5,127.5 62.5,127.5 66.5,127.5C 68.0984,125.143 69.0984,122.477 69.5,119.5 Z"/></g>
<g><path style="opacity:1" fill="#1c2d3f" d="M 137.5,132.5 C 137.5,132.833 137.5,133.167 137.5,133.5C 136.609,134.11 135.609,134.443 134.5,134.5C 130.481,134.646 126.481,134.979 122.5,135.5C 122.443,134.391 122.11,133.391 121.5,132.5C 125.879,132.078 130.212,131.411 134.5,130.5C 135.518,131.193 136.518,131.859 137.5,132.5 Z"/></g>
<g><path style="opacity:1" fill="#efdac2" d="M 160.5,111.5 C 159.659,118.162 162.159,123.162 168,126.5C 168.912,130.452 168.245,134.119 166,137.5C 161.795,142.887 156.628,146.887 150.5,149.5C 148.982,146.466 148.149,143.133 148,139.5C 144.858,136.854 141.358,134.854 137.5,133.5C 137.5,133.167 137.5,132.833 137.5,132.5C 140.797,132.368 142.463,130.702 142.5,127.5C 142.833,127.5 143.167,127.5 143.5,127.5C 152.128,129.9 157.128,126.567 158.5,117.5C 159.167,115.5 159.833,113.5 160.5,111.5 Z"/></g>
<g><path style="opacity:1" fill="#fdfefc" d="M -0.5,119.5 C 1.11365,125.6 2.28032,131.933 3,138.5C 3.31732,136.699 3.98398,136.366 5,137.5C 5.59102,140.275 6.75769,142.775 8.5,145C 7.67046,146.465 7.50379,147.965 8,149.5C 9.83333,150.667 11.6667,151.833 13.5,153C 12.8333,153.333 12.1667,153.667 11.5,154C 12.2836,158.442 14.9502,160.276 19.5,159.5C 19.3266,163.17 20.9933,165.67 24.5,167C 24.1667,167.333 23.8333,167.667 23.5,168C 24.0143,170.415 25.0143,171.749 26.5,172C 26.2409,173.261 25.5742,174.261 24.5,175C 27.2305,175.728 29.8971,175.562 32.5,174.5C 33.1687,176.631 33.8354,178.631 34.5,180.5C 36.5582,181.933 38.8915,182.6 41.5,182.5C 41.5,183.5 41.5,184.5 41.5,185.5C 43.5,185.5 45.5,185.5 47.5,185.5C 48.8333,185.833 50.1667,186.167 51.5,186.5C 53.8831,188.358 56.5498,189.692 59.5,190.5C 59.5,191.167 59.8333,191.5 60.5,191.5C 67.9093,194.935 75.576,197.601 83.5,199.5C 55.5,199.5 27.5,199.5 -0.5,199.5C -0.5,172.833 -0.5,146.167 -0.5,119.5 Z"/></g>
<g><path style="opacity:1" fill="#a9cee0" d="M 120.5,132.5 C 120.833,132.5 121.167,132.5 121.5,132.5C 122.11,133.391 122.443,134.391 122.5,135.5C 118.833,134.167 115.167,134.167 111.5,135.5C 114.203,133.89 117.203,132.89 120.5,132.5 Z"/></g>
<g><path style="opacity:1" fill="#f1dcbf" d="M 72.5,105.5 C 69.9517,118.342 71.9517,130.342 78.5,141.5C 77.9747,142.192 77.3081,142.692 76.5,143C 81.6328,145.156 86.4662,147.989 91,151.5C 92.3988,150.773 93.8988,150.273 95.5,150C 92.3072,148.974 90.9738,146.808 91.5,143.5C 88.5,143.833 87.1667,142.5 87.5,139.5C 84.7835,139.322 82.1168,138.822 79.5,138C 84.7208,137.458 84.7208,136.624 79.5,135.5C 82.1735,132.853 85.0068,132.853 88,135.5C 89.7618,135.056 89.5951,134.556 87.5,134C 89.8991,133.289 92.2324,133.456 94.5,134.5C 95.1667,133.833 95.8333,133.167 96.5,132.5C 98.4624,133.634 100.462,133.634 102.5,132.5C 104.803,132.876 105.137,133.876 103.5,135.5C 102.761,135.369 102.094,135.536 101.5,136C 103.35,136.69 104.684,137.856 105.5,139.5C 105.5,139.833 105.5,140.167 105.5,140.5C 104.258,143.74 104.424,147.074 106,150.5C 106.671,151.252 107.504,151.586 108.5,151.5C 108.007,153.806 107.674,156.139 107.5,158.5C 105.236,157.781 102.903,157.448 100.5,157.5C 96.8373,155.405 92.8373,153.905 88.5,153C 83.3386,150.922 78.6719,148.089 74.5,144.5C 73.2926,141.394 71.7926,138.394 70,135.5C 69.5006,130.177 69.334,124.844 69.5,119.5C 69.4983,114.5 70.4983,109.833 72.5,105.5 Z"/></g>
<g><path style="opacity:1" fill="#fdfdfc" d="M 199.5,115.5 C 199.5,143.5 199.5,171.5 199.5,199.5C 175.5,199.5 151.5,199.5 127.5,199.5C 130.744,197.888 134.411,196.888 138.5,196.5C 139.736,195.643 141.069,194.977 142.5,194.5C 143.386,193.675 143.719,192.675 143.5,191.5C 144.5,191.5 145.5,191.5 146.5,191.5C 146.433,190.041 146.766,188.708 147.5,187.5C 148.167,187.5 148.5,187.167 148.5,186.5C 148.833,186.5 149.167,186.5 149.5,186.5C 152.854,183.822 156.187,181.155 159.5,178.5C 163.894,175.952 167.894,172.785 171.5,169C 184.915,154.504 193.582,137.504 197.5,118C 197.684,116.624 198.351,115.791 199.5,115.5 Z"/></g>
<g><path style="opacity:1" fill="#3c2a26" d="M 49.5,130.5 C 50.935,132.598 52.1016,134.931 53,137.5C 56.9576,141.537 61.1242,145.204 65.5,148.5C 64.1667,148.5 63.5,149.167 63.5,150.5C 58.7306,147.566 54.7306,143.733 51.5,139C 46.9945,137.038 42.3278,136.371 37.5,137C 41.2364,138.507 41.2364,139.34 37.5,139.5C 36.4549,138.122 35.1216,137.122 33.5,136.5C 32.6236,136.631 31.9569,136.298 31.5,135.5C 36.8475,134.688 42.1808,135.021 47.5,136.5C 49.8034,136.124 50.1368,135.124 48.5,133.5C 49.404,132.791 49.7373,131.791 49.5,130.5 Z"/></g>
<g><path style="opacity:1" fill="#6a604f" d="M 103.5,135.5 C 104.833,136.167 105.833,137.167 106.5,138.5C 105.833,138.5 105.5,138.833 105.5,139.5C 104.684,137.856 103.35,136.69 101.5,136C 102.094,135.536 102.761,135.369 103.5,135.5 Z"/></g>
<g><path style="opacity:1" fill="#3b91dc" d="M 134.5,134.5 C 135.167,135.833 135.833,137.167 136.5,138.5C 136.167,138.5 135.833,138.5 135.5,138.5C 132.99,138.054 130.99,138.72 129.5,140.5C 126.833,140.5 124.167,140.5 121.5,140.5C 120.777,138.836 121.11,137.169 122.5,135.5C 126.481,134.979 130.481,134.646 134.5,134.5 Z"/></g>
<g><path style="opacity:1" fill="#e2dbcf" d="M 137.5,133.5 C 141.358,134.854 144.858,136.854 148,139.5C 148.149,143.133 148.982,146.466 150.5,149.5C 147.308,152.242 143.642,154.242 139.5,155.5C 139.5,154.833 139.5,154.167 139.5,153.5C 140.167,153.5 140.5,153.167 140.5,152.5C 143.324,148.64 144.158,144.307 143,139.5C 140.91,137.584 139.077,135.584 137.5,133.5 Z"/></g>
<g><path style="opacity:1" fill="#489fbe" d="M 135.5,138.5 C 134.89,139.391 134.557,140.391 134.5,141.5C 133.5,141.5 132.5,141.5 131.5,141.5C 130.508,141.672 129.842,141.338 129.5,140.5C 130.99,138.72 132.99,138.054 135.5,138.5 Z"/></g>
<g><path style="opacity:1" fill="#b5eaef" d="M 115.5,140.5 C 115.573,142.027 114.906,143.027 113.5,143.5C 111.744,142.448 111.077,140.781 111.5,138.5C 113.483,138.157 114.817,138.824 115.5,140.5 Z"/></g>
<g><path style="opacity:1" fill="#b6e5f3" d="M 135.5,138.5 C 135.833,138.5 136.167,138.5 136.5,138.5C 139.048,140.038 139.048,141.704 136.5,143.5C 135.5,143.167 134.833,142.5 134.5,141.5C 134.557,140.391 134.89,139.391 135.5,138.5 Z"/></g>
<g><path style="opacity:1" fill="#1c5483" d="M 119.5,140.5 C 120.167,140.5 120.833,140.5 121.5,140.5C 124.167,140.5 126.833,140.5 129.5,140.5C 129.842,141.338 130.508,141.672 131.5,141.5C 129.614,142.065 127.947,143.065 126.5,144.5C 127.34,145.735 128.34,146.735 129.5,147.5C 128.833,147.5 128.167,147.5 127.5,147.5C 126.833,147.5 126.167,147.5 125.5,147.5C 125.5,146.167 125.5,144.833 125.5,143.5C 124.5,143.5 123.5,143.5 122.5,143.5C 122.5,144.833 122.5,146.167 122.5,147.5C 122.167,147.5 121.833,147.5 121.5,147.5C 121.5,145.833 121.5,144.167 121.5,142.5C 119.007,142.869 118.34,142.203 119.5,140.5 Z"/></g>
<g><path style="opacity:1" fill="#698783" d="M 119.5,140.5 C 118.34,142.203 119.007,142.869 121.5,142.5C 121.5,144.167 121.5,145.833 121.5,147.5C 118.703,147.967 117.369,149.633 117.5,152.5C 116.402,151.399 116.235,150.066 117,148.5C 122.145,144.774 121.645,143.274 115.5,144C 114.295,145.376 112.962,146.542 111.5,147.5C 111.733,145.938 112.4,144.605 113.5,143.5C 114.906,143.027 115.573,142.027 115.5,140.5C 116.702,139.595 118.036,139.595 119.5,140.5 Z"/></g>
<g><path style="opacity:1" fill="#4c96b7" d="M 137.5,133.5 C 139.077,135.584 140.91,137.584 143,139.5C 144.158,144.307 143.324,148.64 140.5,152.5C 139.312,150.054 137.979,147.72 136.5,145.5C 136.5,144.833 136.5,144.167 136.5,143.5C 139.048,141.704 139.048,140.038 136.5,138.5C 135.833,137.167 135.167,135.833 134.5,134.5C 135.609,134.443 136.609,134.11 137.5,133.5 Z"/></g>
<g><path style="opacity:1" fill="#c4dae4" d="M 105.5,140.5 C 106.473,142.948 106.806,145.615 106.5,148.5C 107.167,149.5 107.833,150.5 108.5,151.5C 107.504,151.586 106.671,151.252 106,150.5C 104.424,147.074 104.258,143.74 105.5,140.5 Z"/></g>
<g><path style="opacity:1" fill="#3052a9" d="M 125.5,147.5 C 125.158,148.338 124.492,148.672 123.5,148.5C 122.833,148.5 122.5,148.167 122.5,147.5C 122.5,146.167 122.5,144.833 122.5,143.5C 123.5,143.5 124.5,143.5 125.5,143.5C 125.5,144.833 125.5,146.167 125.5,147.5 Z"/></g>
<g><path style="opacity:1" fill="#c1bd6e" d="M 136.5,145.5 C 137.979,147.72 139.312,150.054 140.5,152.5C 140.5,153.167 140.167,153.5 139.5,153.5C 138.833,153.5 138.167,153.5 137.5,153.5C 137.5,152.5 137.5,151.5 137.5,150.5C 137.55,148.41 136.55,147.077 134.5,146.5C 133.702,146.957 133.369,147.624 133.5,148.5C 132.188,147.188 130.854,145.854 129.5,144.5C 132.1,143.154 134.433,143.488 136.5,145.5 Z"/></g>
<g><path style="opacity:1" fill="#5c3e36" d="M 160.5,105.5 C 159.292,114.2 162.459,120.867 170,125.5C 170.701,128.928 170.368,132.262 169,135.5C 161.223,146.106 151.056,153.439 138.5,157.5C 138.328,156.508 138.662,155.842 139.5,155.5C 143.642,154.242 147.308,152.242 150.5,149.5C 156.628,146.887 161.795,142.887 166,137.5C 168.245,134.119 168.912,130.452 168,126.5C 162.159,123.162 159.659,118.162 160.5,111.5C 160.371,109.784 160.038,108.117 159.5,106.5C 160.167,106.5 160.5,106.167 160.5,105.5 Z"/></g>
<g><path style="opacity:1" fill="#4893bc" d="M 122.5,135.5 C 121.11,137.169 120.777,138.836 121.5,140.5C 120.833,140.5 120.167,140.5 119.5,140.5C 118.036,139.595 116.702,139.595 115.5,140.5C 114.817,138.824 113.483,138.157 111.5,138.5C 111.077,140.781 111.744,142.448 113.5,143.5C 112.4,144.605 111.733,145.938 111.5,147.5C 109.958,148.301 108.292,148.634 106.5,148.5C 106.806,145.615 106.473,142.948 105.5,140.5C 105.5,140.167 105.5,139.833 105.5,139.5C 105.5,138.833 105.833,138.5 106.5,138.5C 108.411,137.925 110.078,136.925 111.5,135.5C 115.167,134.167 118.833,134.167 122.5,135.5 Z"/></g>
<g><path style="opacity:1" fill="#e8c8c7" d="M 199.5,106.5 C 199.5,109.5 199.5,112.5 199.5,115.5C 198.351,115.791 197.684,116.624 197.5,118C 193.582,137.504 184.915,154.504 171.5,169C 167.894,172.785 163.894,175.952 159.5,178.5C 160.014,176.302 161.014,174.302 162.5,172.5C 167.126,171.706 169.96,169.039 171,164.5C 174.491,163.082 176.158,160.416 176,156.5C 179.025,152.976 181.858,149.309 184.5,145.5C 184.928,141.229 186.094,137.229 188,133.5C 189.011,132.663 190.178,132.33 191.5,132.5C 192.899,125.654 193.899,118.654 194.5,111.5C 195.833,111.5 197.167,111.5 198.5,111.5C 198.216,109.585 198.549,107.919 199.5,106.5 Z"/></g>
<g><path style="opacity:1" fill="#bd9d85" d="M 50.5,124.5 C 51.1667,125.5 51.8333,126.5 52.5,127.5C 52.8925,132.394 55.5591,135.228 60.5,136C 61.1466,137.609 61.98,139.109 63,140.5C 63.9147,139.672 64.5814,138.672 65,137.5C 65.846,140.692 67.346,143.526 69.5,146C 71.81,147.88 73.4767,147.38 74.5,144.5C 78.6719,148.089 83.3386,150.922 88.5,153C 92.8373,153.905 96.8373,155.405 100.5,157.5C 99.5,157.5 98.5,157.5 97.5,157.5C 85.8433,157.589 75.1766,154.589 65.5,148.5C 61.1242,145.204 56.9576,141.537 53,137.5C 52.1016,134.931 50.935,132.598 49.5,130.5C 49.5,129.5 49.5,128.5 49.5,127.5C 49.5569,126.391 49.8902,125.391 50.5,124.5 Z"/></g>
<g><path style="opacity:1" fill="#c1c45c" d="M 117.5,152.5 C 117.5,152.833 117.5,153.167 117.5,153.5C 117.5,154.5 117.5,155.5 117.5,156.5C 116.661,155.359 115.994,154.026 115.5,152.5C 114.311,151.571 112.978,151.238 111.5,151.5C 111.5,150.167 111.5,148.833 111.5,147.5C 112.962,146.542 114.295,145.376 115.5,144C 121.645,143.274 122.145,144.774 117,148.5C 116.235,150.066 116.402,151.399 117.5,152.5 Z"/></g>
<g><path style="opacity:1" fill="#6c9487" d="M 111.5,147.5 C 111.5,148.833 111.5,150.167 111.5,151.5C 111.5,152.167 111.5,152.833 111.5,153.5C 110.222,153.218 109.222,152.551 108.5,151.5C 107.833,150.5 107.167,149.5 106.5,148.5C 108.292,148.634 109.958,148.301 111.5,147.5 Z"/></g>
<g><path style="opacity:1" fill="#359dd1" d="M 121.5,147.5 C 121.833,147.5 122.167,147.5 122.5,147.5C 122.5,148.167 122.833,148.5 123.5,148.5C 124.028,149.721 124.695,150.887 125.5,152C 123.561,152.908 122.561,154.408 122.5,156.5C 123.5,156.5 124.5,156.5 125.5,156.5C 124.432,157.434 123.099,157.768 121.5,157.5C 120.467,155.915 119.134,154.581 117.5,153.5C 117.5,153.167 117.5,152.833 117.5,152.5C 117.369,149.633 118.703,147.967 121.5,147.5 Z"/></g>
<g><path style="opacity:1" fill="#f9f1dc" d="M 63.5,151.5 C 63.8333,151.5 64.1667,151.5 64.5,151.5C 64.5858,152.496 64.2524,153.329 63.5,154C 59.2226,153.525 56.2226,155.192 54.5,159C 50.7745,159.76 47.1078,159.593 43.5,158.5C 42.6786,161.447 42.1786,164.447 42,167.5C 40.4143,170.849 38.2476,173.682 35.5,176C 39.3798,179.387 43.3798,182.553 47.5,185.5C 45.5,185.5 43.5,185.5 41.5,185.5C 41.5,184.5 41.5,183.5 41.5,182.5C 38.8915,182.6 36.5582,181.933 34.5,180.5C 34.5,176.5 34.5,172.5 34.5,168.5C 36.5,168.167 38.5,167.833 40.5,167.5C 40.6556,164.934 40.3223,162.434 39.5,160C 39.8777,158.365 40.5444,156.865 41.5,155.5C 47.388,154.825 53.2213,153.159 59,150.5C 60.3561,151.38 61.8561,151.714 63.5,151.5 Z"/></g>
<g><path style="opacity:1" fill="#5c8271" d="M 131.5,141.5 C 132.5,141.5 133.5,141.5 134.5,141.5C 134.833,142.5 135.5,143.167 136.5,143.5C 136.5,144.167 136.5,144.833 136.5,145.5C 134.433,143.488 132.1,143.154 129.5,144.5C 130.854,145.854 132.188,147.188 133.5,148.5C 133.784,150.415 133.451,152.081 132.5,153.5C 132.539,150.911 131.539,148.911 129.5,147.5C 128.34,146.735 127.34,145.735 126.5,144.5C 127.947,143.065 129.614,142.065 131.5,141.5 Z"/></g>
<g><path style="opacity:1" fill="#309fd3" d="M 127.5,147.5 C 128.167,147.5 128.833,147.5 129.5,147.5C 131.539,148.911 132.539,150.911 132.5,153.5C 131.18,154.942 129.514,155.608 127.5,155.5C 127.5,152.833 127.5,150.167 127.5,147.5 Z"/></g>
<g><path style="opacity:1" fill="#289df1" d="M 125.5,147.5 C 126.167,147.5 126.833,147.5 127.5,147.5C 127.5,150.167 127.5,152.833 127.5,155.5C 127.158,156.338 126.492,156.672 125.5,156.5C 124.5,156.5 123.5,156.5 122.5,156.5C 122.561,154.408 123.561,152.908 125.5,152C 124.695,150.887 124.028,149.721 123.5,148.5C 124.492,148.672 125.158,148.338 125.5,147.5 Z"/></g>
<g><path style="opacity:1" fill="#d8c240" d="M 137.5,150.5 C 136.051,153.338 134.385,156.172 132.5,159C 126.436,160.042 120.602,159.542 115,157.5C 114.5,157.833 114,158.167 113.5,158.5C 114.34,159.735 115.34,160.735 116.5,161.5C 114.784,161.371 113.117,161.038 111.5,160.5C 112.067,158.302 112.067,155.969 111.5,153.5C 111.5,152.833 111.5,152.167 111.5,151.5C 112.978,151.238 114.311,151.571 115.5,152.5C 115.994,154.026 116.661,155.359 117.5,156.5C 118.833,156.833 120.167,157.167 121.5,157.5C 123.966,158.634 126.633,158.801 129.5,158C 131.141,156.871 132.141,155.371 132.5,153.5C 133.451,152.081 133.784,150.415 133.5,148.5C 133.369,147.624 133.702,146.957 134.5,146.5C 136.55,147.077 137.55,148.41 137.5,150.5 Z"/></g>
<g><path style="opacity:1" fill="#64a186" d="M 117.5,153.5 C 119.134,154.581 120.467,155.915 121.5,157.5C 120.167,157.167 118.833,156.833 117.5,156.5C 117.5,155.5 117.5,154.5 117.5,153.5 Z"/></g>
<g><path style="opacity:1" fill="#6a8c5f" d="M 132.5,153.5 C 132.141,155.371 131.141,156.871 129.5,158C 126.633,158.801 123.966,158.634 121.5,157.5C 123.099,157.768 124.432,157.434 125.5,156.5C 126.492,156.672 127.158,156.338 127.5,155.5C 129.514,155.608 131.18,154.942 132.5,153.5 Z"/></g>
<g><path style="opacity:1" fill="#83634c" d="M 97.5,157.5 C 98.5,157.5 99.5,157.5 100.5,157.5C 102.903,157.448 105.236,157.781 107.5,158.5C 106.341,159.513 104.341,159.847 101.5,159.5C 97.6286,159.815 93.9619,159.482 90.5,158.5C 93.0593,158.802 95.3926,158.468 97.5,157.5 Z"/></g>
<g><path style="opacity:1" fill="#f4d7b3" d="M 108.5,151.5 C 109.222,152.551 110.222,153.218 111.5,153.5C 112.067,155.969 112.067,158.302 111.5,160.5C 113.336,162.009 115.336,163.509 117.5,165C 123.195,165.626 128.862,165.459 134.5,164.5C 134.824,168.555 134.491,172.555 133.5,176.5C 132.817,176.863 132.15,177.196 131.5,177.5C 132.347,175.971 133.014,174.304 133.5,172.5C 133.43,171.228 133.097,170.062 132.5,169C 125.491,168.577 118.491,168.744 111.5,169.5C 111.383,167.516 112.05,165.85 113.5,164.5C 110.216,163.343 106.882,163.176 103.5,164C 106.001,167.519 108.501,171.019 111,174.5C 111.483,175.448 111.649,176.448 111.5,177.5C 109.589,176.925 107.922,175.925 106.5,174.5C 105.316,172.59 103.816,170.924 102,169.5C 101.502,166.183 101.335,162.85 101.5,159.5C 104.341,159.847 106.341,159.513 107.5,158.5C 107.674,156.139 108.007,153.806 108.5,151.5 Z"/></g>
<g><path style="opacity:1" fill="#c39f72" d="M 64.5,151.5 C 66.0532,153.385 68.0532,154.385 70.5,154.5C 70.1482,159.006 70.8148,163.339 72.5,167.5C 70.1152,170.212 67.7819,172.878 65.5,175.5C 65.5954,172.642 66.7621,170.309 69,168.5C 70.3224,156.298 65.8224,153.298 55.5,159.5C 55.719,160.675 55.3857,161.675 54.5,162.5C 54.5105,161.559 54.0105,160.892 53,160.5C 50.4992,162.457 47.8326,163.123 45,162.5C 44.5078,163.549 44.6744,164.549 45.5,165.5C 44.0517,168.782 42.385,171.948 40.5,175C 42.6916,179.333 46.0249,180.833 50.5,179.5C 50.448,181.903 50.7814,184.236 51.5,186.5C 50.1667,186.167 48.8333,185.833 47.5,185.5C 43.3798,182.553 39.3798,179.387 35.5,176C 38.2476,173.682 40.4143,170.849 42,167.5C 42.1786,164.447 42.6786,161.447 43.5,158.5C 47.1078,159.593 50.7745,159.76 54.5,159C 56.2226,155.192 59.2226,153.525 63.5,154C 64.2524,153.329 64.5858,152.496 64.5,151.5 Z"/></g>
<g><path style="opacity:1" fill="#daa83b" d="M 137.5,153.5 C 138.167,153.5 138.833,153.5 139.5,153.5C 139.5,154.167 139.5,154.833 139.5,155.5C 138.662,155.842 138.328,156.508 138.5,157.5C 137.5,157.833 136.833,158.5 136.5,159.5C 135.691,161.028 135.024,162.694 134.5,164.5C 128.862,165.459 123.195,165.626 117.5,165C 115.336,163.509 113.336,162.009 111.5,160.5C 113.117,161.038 114.784,161.371 116.5,161.5C 118.695,163.179 121.195,164.179 124,164.5C 127.269,164.077 130.436,163.244 133.5,162C 135.109,159.246 136.442,156.413 137.5,153.5 Z"/></g>
<g><path style="opacity:1" fill="#f3bc23" d="M 137.5,150.5 C 137.5,151.5 137.5,152.5 137.5,153.5C 136.442,156.413 135.109,159.246 133.5,162C 130.436,163.244 127.269,164.077 124,164.5C 121.195,164.179 118.695,163.179 116.5,161.5C 115.34,160.735 114.34,159.735 113.5,158.5C 114,158.167 114.5,157.833 115,157.5C 120.602,159.542 126.436,160.042 132.5,159C 134.385,156.172 136.051,153.338 137.5,150.5 Z"/></g>
<g><path style="opacity:1" fill="#4a2714" d="M 65.5,148.5 C 75.1766,154.589 85.8433,157.589 97.5,157.5C 95.3926,158.468 93.0593,158.802 90.5,158.5C 87.0977,158.342 83.7644,158.676 80.5,159.5C 78.5222,162.306 77.5222,165.472 77.5,169C 77.9277,173.972 78.9277,178.806 80.5,183.5C 79.0337,182.653 78.2004,181.32 78,179.5C 77.0071,175.558 76.3404,171.558 76,167.5C 71.1901,173.47 67.0235,179.804 63.5,186.5C 63.5,186.833 63.5,187.167 63.5,187.5C 62.5,188.833 61.5,190.167 60.5,191.5C 59.8333,191.5 59.5,191.167 59.5,190.5C 61.119,185.302 63.119,180.302 65.5,175.5C 67.7819,172.878 70.1152,170.212 72.5,167.5C 70.8148,163.339 70.1482,159.006 70.5,154.5C 68.0532,154.385 66.0532,153.385 64.5,151.5C 64.1667,151.5 63.8333,151.5 63.5,151.5C 63.5,151.167 63.5,150.833 63.5,150.5C 63.5,149.167 64.1667,148.5 65.5,148.5 Z"/></g>
<g><path style="opacity:1" fill="#dcbbbd" d="M 80.5,159.5 C 78.5066,161.467 76.5066,163.467 74.5,165.5C 72.02,162.639 71.02,159.306 71.5,155.5C 74.4552,156.159 77.4552,156.492 80.5,156.5C 80.5,157.5 80.5,158.5 80.5,159.5 Z"/></g>
<g><path style="opacity:1" fill="#faf5ee" d="M -0.5,111.5 C 2.32144,124.126 6.65477,136.293 12.5,148C 12.3552,148.772 12.0219,149.439 11.5,150C 13.3031,150.637 14.6364,151.803 15.5,153.5C 16.6721,153.081 17.6721,152.415 18.5,151.5C 16.6684,150.943 15.3351,149.943 14.5,148.5C 20.1924,140.832 27.8591,137.832 37.5,139.5C 41.2364,139.34 41.2364,138.507 37.5,137C 42.3278,136.371 46.9945,137.038 51.5,139C 54.7306,143.733 58.7306,147.566 63.5,150.5C 63.5,150.833 63.5,151.167 63.5,151.5C 61.8561,151.714 60.3561,151.38 59,150.5C 53.2213,153.159 47.388,154.825 41.5,155.5C 40.5444,156.865 39.8777,158.365 39.5,160C 40.3223,162.434 40.6556,164.934 40.5,167.5C 38.5,167.833 36.5,168.167 34.5,168.5C 34.5,172.5 34.5,176.5 34.5,180.5C 33.8354,178.631 33.1687,176.631 32.5,174.5C 29.8971,175.562 27.2305,175.728 24.5,175C 25.5742,174.261 26.2409,173.261 26.5,172C 25.0143,171.749 24.0143,170.415 23.5,168C 23.8333,167.667 24.1667,167.333 24.5,167C 20.9933,165.67 19.3266,163.17 19.5,159.5C 14.9502,160.276 12.2836,158.442 11.5,154C 12.1667,153.667 12.8333,153.333 13.5,153C 11.6667,151.833 9.83333,150.667 8,149.5C 7.50379,147.965 7.67046,146.465 8.5,145C 6.75769,142.775 5.59102,140.275 5,137.5C 3.98398,136.366 3.31732,136.699 3,138.5C 2.28032,131.933 1.11365,125.6 -0.5,119.5C -0.5,116.833 -0.5,114.167 -0.5,111.5 Z"/></g>
<g><path style="opacity:1" fill="#655151" d="M 33.5,136.5 C 35.1216,137.122 36.4549,138.122 37.5,139.5C 27.8591,137.832 20.1924,140.832 14.5,148.5C 13.475,148.103 13.3083,147.437 14,146.5C 19.3337,140.615 25.8337,137.282 33.5,136.5 Z"/></g>
<g><path style="opacity:1" fill="#ce995f" d="M 65.5,175.5 C 63.119,180.302 61.119,185.302 59.5,190.5C 56.5498,189.692 53.8831,188.358 51.5,186.5C 50.7814,184.236 50.448,181.903 50.5,179.5C 46.0249,180.833 42.6916,179.333 40.5,175C 42.385,171.948 44.0517,168.782 45.5,165.5C 44.6744,164.549 44.5078,163.549 45,162.5C 47.8326,163.123 50.4992,162.457 53,160.5C 54.0105,160.892 54.5105,161.559 54.5,162.5C 55.3857,161.675 55.719,160.675 55.5,159.5C 65.8224,153.298 70.3224,156.298 69,168.5C 66.7621,170.309 65.5954,172.642 65.5,175.5 Z"/></g>
<g><path style="opacity:1" fill="#96654a" d="M 136.5,159.5 C 139.101,162.604 141.934,165.604 145,168.5C 145.791,169.745 146.291,171.078 146.5,172.5C 143.899,169.396 141.066,166.396 138,163.5C 137.209,162.255 136.709,160.922 136.5,159.5 Z"/></g>
<g><path style="opacity:1" fill="#c49366" d="M 80.5,183.5 C 82.1119,188.111 85.1119,191.444 89.5,193.5C 89.5386,194.756 89.0386,195.756 88,196.5C 86.6703,195.418 85.1703,194.751 83.5,194.5C 83.5,193.5 83.5,192.5 83.5,191.5C 82.1667,191.5 80.8333,191.5 79.5,191.5C 79.8076,189.076 79.4742,186.743 78.5,184.5C 76.8119,182.971 75.4786,181.137 74.5,179C 73.2068,178.51 71.8734,178.343 70.5,178.5C 70.4046,181.358 69.2379,183.691 67,185.5C 65.8552,185.619 64.6885,185.952 63.5,186.5C 67.0235,179.804 71.1901,173.47 76,167.5C 76.3404,171.558 77.0071,175.558 78,179.5C 78.2004,181.32 79.0337,182.653 80.5,183.5 Z"/></g>
<g><path style="opacity:1" fill="#d0995c" d="M 115.5,187.5 C 116.471,190.569 115.471,192.902 112.5,194.5C 110.319,194.716 108.653,193.883 107.5,192C 108.167,191.667 108.833,191.333 109.5,191C 105.793,190.064 102.626,188.231 100,185.5C 98.9805,186.687 97.8139,187.687 96.5,188.5C 95.8076,187.975 95.3076,187.308 95,186.5C 89.0182,187.156 85.0182,184.49 83,178.5C 82.3333,174.167 82.3333,169.833 83,165.5C 84,164.833 85,164.167 86,163.5C 87.1937,165.623 87.8603,167.957 88,170.5C 88.4687,164.471 90.1354,164.471 93,170.5C 94.113,169.24 94.2797,168.073 93.5,167C 94.5,166.5 95.5,166 96.5,165.5C 98.1399,168.742 99.4732,172.076 100.5,175.5C 101.873,175.343 103.207,175.51 104.5,176C 105.833,176.667 105.833,177.333 104.5,178C 106.701,180.463 109.367,182.297 112.5,183.5C 113.15,185.184 114.15,186.517 115.5,187.5 Z"/></g>
<g><path style="opacity:1" fill="#865b45" d="M 147.5,173.5 C 149.177,177.545 149.844,181.878 149.5,186.5C 149.167,186.5 148.833,186.5 148.5,186.5C 147.833,182.833 147.167,179.167 146.5,175.5C 146.328,174.508 146.662,173.842 147.5,173.5 Z"/></g>
<g><path style="opacity:1" fill="#f1dabf" d="M 131.5,177.5 C 130.471,179.517 129.471,181.517 128.5,183.5C 125.868,185.113 123.202,186.78 120.5,188.5C 117.855,184.524 114.855,180.857 111.5,177.5C 111.649,176.448 111.483,175.448 111,174.5C 108.501,171.019 106.001,167.519 103.5,164C 106.882,163.176 110.216,163.343 113.5,164.5C 112.05,165.85 111.383,167.516 111.5,169.5C 118.491,168.744 125.491,168.577 132.5,169C 133.097,170.062 133.43,171.228 133.5,172.5C 133.014,174.304 132.347,175.971 131.5,177.5 Z"/></g>
<g><path style="opacity:1" fill="#cf995f" d="M 83.5,194.5 C 76.744,193.737 70.0773,192.737 63.5,191.5C 63.5,190.167 63.5,188.833 63.5,187.5C 63.5,187.167 63.5,186.833 63.5,186.5C 64.6885,185.952 65.8552,185.619 67,185.5C 69.2379,183.691 70.4046,181.358 70.5,178.5C 71.8734,178.343 73.2068,178.51 74.5,179C 75.4786,181.137 76.8119,182.971 78.5,184.5C 79.4742,186.743 79.8076,189.076 79.5,191.5C 80.8333,191.5 82.1667,191.5 83.5,191.5C 83.5,192.5 83.5,193.5 83.5,194.5 Z"/></g>
<g><path style="opacity:1" fill="#ce9860" d="M 136.5,159.5 C 136.709,160.922 137.209,162.255 138,163.5C 141.066,166.396 143.899,169.396 146.5,172.5C 147.167,172.5 147.5,172.833 147.5,173.5C 146.662,173.842 146.328,174.508 146.5,175.5C 146.5,178.833 146.5,182.167 146.5,185.5C 139.182,189.275 131.515,192.275 123.5,194.5C 122.1,193.9 121.1,192.9 120.5,191.5C 123.683,189.263 126.349,186.597 128.5,183.5C 129.471,181.517 130.471,179.517 131.5,177.5C 132.15,177.196 132.817,176.863 133.5,176.5C 134.491,172.555 134.824,168.555 134.5,164.5C 135.024,162.694 135.691,161.028 136.5,159.5 Z"/></g>
<g><path style="opacity:1" fill="#c99864" d="M 90.5,158.5 C 93.9619,159.482 97.6286,159.815 101.5,159.5C 101.335,162.85 101.502,166.183 102,169.5C 103.816,170.924 105.316,172.59 106.5,174.5C 106.062,174.435 105.728,174.601 105.5,175C 109.586,179.017 113.586,183.017 117.5,187C 116.906,187.464 116.239,187.631 115.5,187.5C 114.15,186.517 113.15,185.184 112.5,183.5C 109.367,182.297 106.701,180.463 104.5,178C 105.833,177.333 105.833,176.667 104.5,176C 103.207,175.51 101.873,175.343 100.5,175.5C 99.4732,172.076 98.1399,168.742 96.5,165.5C 95.5,166 94.5,166.5 93.5,167C 94.2797,168.073 94.113,169.24 93,170.5C 90.1354,164.471 88.4687,164.471 88,170.5C 87.8603,167.957 87.1937,165.623 86,163.5C 85,164.167 84,164.833 83,165.5C 82.3333,169.833 82.3333,174.167 83,178.5C 85.0182,184.49 89.0182,187.156 95,186.5C 95.3076,187.308 95.8076,187.975 96.5,188.5C 97.8139,187.687 98.9805,186.687 100,185.5C 102.626,188.231 105.793,190.064 109.5,191C 108.833,191.333 108.167,191.667 107.5,192C 108.653,193.883 110.319,194.716 112.5,194.5C 113.6,195.605 114.267,196.938 114.5,198.5C 111.833,198.5 109.167,198.5 106.5,198.5C 106.315,196.804 105.481,195.471 104,194.5C 104.077,195.738 103.911,196.738 103.5,197.5C 100.573,196.199 97.5729,195.199 94.5,194.5C 92.0578,192.774 89.3911,191.274 86.5,190C 84.5998,187.665 82.5998,185.498 80.5,183.5C 78.9277,178.806 77.9277,173.972 77.5,169C 77.5222,165.472 78.5222,162.306 80.5,159.5C 83.7644,158.676 87.0977,158.342 90.5,158.5 Z"/></g>
<g><path style="opacity:1" fill="#987250" d="M 106.5,174.5 C 107.922,175.925 109.589,176.925 111.5,177.5C 114.855,180.857 117.855,184.524 120.5,188.5C 123.202,186.78 125.868,185.113 128.5,183.5C 126.349,186.597 123.683,189.263 120.5,191.5C 120.631,190.761 120.464,190.094 120,189.5C 118.856,192.08 118.022,194.747 117.5,197.5C 116.609,198.11 115.609,198.443 114.5,198.5C 114.267,196.938 113.6,195.605 112.5,194.5C 115.471,192.902 116.471,190.569 115.5,187.5C 116.239,187.631 116.906,187.464 117.5,187C 113.586,183.017 109.586,179.017 105.5,175C 105.728,174.601 106.062,174.435 106.5,174.5 Z"/></g>
<g><path style="opacity:1" fill="#73451a" d="M 80.5,183.5 C 82.5998,185.498 84.5998,187.665 86.5,190C 89.3911,191.274 92.0578,192.774 94.5,194.5C 93.5,194.5 92.5,194.5 91.5,194.5C 91.1583,193.662 90.4916,193.328 89.5,193.5C 85.1119,191.444 82.1119,188.111 80.5,183.5 Z"/></g>
<g><path style="opacity:1" fill="#c19e77" d="M 146.5,175.5 C 147.167,179.167 147.833,182.833 148.5,186.5C 148.5,187.167 148.167,187.5 147.5,187.5C 138.354,191.437 129.021,194.77 119.5,197.5C 120.436,196.026 121.77,195.026 123.5,194.5C 131.515,192.275 139.182,189.275 146.5,185.5C 146.5,182.167 146.5,178.833 146.5,175.5 Z"/></g>
<g><path style="opacity:1" fill="#634027" d="M 120.5,191.5 C 121.1,192.9 122.1,193.9 123.5,194.5C 121.77,195.026 120.436,196.026 119.5,197.5C 118.833,197.5 118.167,197.5 117.5,197.5C 118.022,194.747 118.856,192.08 120,189.5C 120.464,190.094 120.631,190.761 120.5,191.5 Z"/></g>
<g><path style="opacity:1" fill="#c9a578" d="M 63.5,187.5 C 63.5,188.833 63.5,190.167 63.5,191.5C 70.0773,192.737 76.744,193.737 83.5,194.5C 85.1703,194.751 86.6703,195.418 88,196.5C 89.0386,195.756 89.5386,194.756 89.5,193.5C 90.4916,193.328 91.1583,193.662 91.5,194.5C 91.33,195.822 91.6634,196.989 92.5,198C 91.5842,198.278 90.9175,198.778 90.5,199.5C 88.1667,199.5 85.8333,199.5 83.5,199.5C 75.576,197.601 67.9093,194.935 60.5,191.5C 61.5,190.167 62.5,188.833 63.5,187.5 Z"/></g>
<g><path style="opacity:1" fill="#efd6bd" d="M 91.5,194.5 C 92.5,194.5 93.5,194.5 94.5,194.5C 96.938,196.535 99.6047,198.201 102.5,199.5C 98.5,199.5 94.5,199.5 90.5,199.5C 90.9175,198.778 91.5842,198.278 92.5,198C 91.6634,196.989 91.33,195.822 91.5,194.5 Z"/></g>
<g><path style="opacity:1" fill="#70492f" d="M 94.5,194.5 C 97.5729,195.199 100.573,196.199 103.5,197.5C 103.911,196.738 104.077,195.738 104,194.5C 105.481,195.471 106.315,196.804 106.5,198.5C 106.5,198.833 106.5,199.167 106.5,199.5C 105.167,199.5 103.833,199.5 102.5,199.5C 99.6047,198.201 96.938,196.535 94.5,194.5 Z"/></g>
<g><path style="opacity:1" fill="#f9f3e3" d="M 147.5,187.5 C 146.766,188.708 146.433,190.041 146.5,191.5C 145.5,191.5 144.5,191.5 143.5,191.5C 143.719,192.675 143.386,193.675 142.5,194.5C 141.069,194.977 139.736,195.643 138.5,196.5C 134.411,196.888 130.744,197.888 127.5,199.5C 120.5,199.5 113.5,199.5 106.5,199.5C 106.5,199.167 106.5,198.833 106.5,198.5C 109.167,198.5 111.833,198.5 114.5,198.5C 115.609,198.443 116.609,198.11 117.5,197.5C 118.167,197.5 118.833,197.5 119.5,197.5C 129.021,194.77 138.354,191.437 147.5,187.5 Z"/></g>
</svg>
