<?xml version="1.0" encoding="UTF-8"?>
<!DOCTYPE svg PUBLIC "-//W3C//DTD SVG 1.1//EN" "http://www.w3.org/Graphics/SVG/1.1/DTD/svg11.dtd">
<svg xmlns="http://www.w3.org/2000/svg" version="1.1" width="200px" height="200px" style="shape-rendering:geometricPrecision; text-rendering:geometricPrecision; image-rendering:optimizeQuality; fill-rule:evenodd; clip-rule:evenodd" xmlns:xlink="http://www.w3.org/1999/xlink">
<g><path style="opacity:1" fill="#000000" d="M -0.5,-0.5 C 66.1667,-0.5 132.833,-0.5 199.5,-0.5C 199.5,66.1667 199.5,132.833 199.5,199.5C 132.833,199.5 66.1667,199.5 -0.5,199.5C -0.5,132.833 -0.5,66.1667 -0.5,-0.5 Z"/></g>
<g><path style="opacity:1" fill="#13de00" d="M 67.5,24.5 C 89.1667,24.5 110.833,24.5 132.5,24.5C 132.5,31.8333 132.5,39.1667 132.5,46.5C 118.167,46.5 103.833,46.5 89.5,46.5C 89.5,53.5 89.5,60.5 89.5,67.5C 82.1667,67.5 74.8333,67.5 67.5,67.5C 67.5,89.1667 67.5,110.833 67.5,132.5C 89.1667,132.5 110.833,132.5 132.5,132.5C 132.5,125.167 132.5,117.833 132.5,110.5C 118.167,110.5 103.833,110.5 89.5,110.5C 89.5,103.5 89.5,96.5 89.5,89.5C 110.833,89.5 132.167,89.5 153.5,89.5C 153.5,110.833 153.5,132.167 153.5,153.5C 146.5,153.5 139.5,153.5 132.5,153.5C 132.5,160.833 132.5,168.167 132.5,175.5C 118.167,175.5 103.833,175.5 89.5,175.5C 89.5,168.167 89.5,160.833 89.5,153.5C 75.1667,153.5 60.8333,153.5 46.5,153.5C 46.5,117.833 46.5,82.1667 46.5,46.5C 53.5,46.5 60.5,46.5 67.5,46.5C 67.5,39.1667 67.5,31.8333 67.5,24.5 Z"/></g>
</svg>
