<?xml version="1.0" encoding="UTF-8"?>
<!DOCTYPE svg PUBLIC "-//W3C//DTD SVG 1.1//EN" "http://www.w3.org/Graphics/SVG/1.1/DTD/svg11.dtd">
<svg xmlns="http://www.w3.org/2000/svg" version="1.1" width="200px" height="200px" style="shape-rendering:geometricPrecision; text-rendering:geometricPrecision; image-rendering:optimizeQuality; fill-rule:evenodd; clip-rule:evenodd" xmlns:xlink="http://www.w3.org/1999/xlink">
<g><path style="opacity:1" fill="#fdfdfd" d="M -0.5,-0.5 C 66.1667,-0.5 132.833,-0.5 199.5,-0.5C 199.5,66.1667 199.5,132.833 199.5,199.5C 187.5,199.5 175.5,199.5 163.5,199.5C 165.673,176.517 157.173,158.85 138,146.5C 137.598,145.128 137.098,143.795 136.5,142.5C 138.616,140.6 139.949,138.267 140.5,135.5C 141.434,134.432 141.768,133.099 141.5,131.5C 141.375,125.797 141.708,120.13 142.5,114.5C 144.558,112.073 146.391,109.407 148,106.5C 148.576,104.623 148.409,102.789 147.5,101C 147.978,99.6974 148.645,98.5307 149.5,97.5C 151.448,96.8688 153.281,95.8688 155,94.5C 156.92,86.989 158.753,79.489 160.5,72C 160.361,66.696 157.694,63.8627 152.5,63.5C 148.538,51.529 140.538,44.1957 128.5,41.5C 127.85,39.5648 127.517,37.5648 127.5,35.5C 128.5,34.1667 129.5,32.8333 130.5,31.5C 131.5,31.1667 132.167,30.5 132.5,29.5C 137.429,20.311 135.096,13.311 125.5,8.5C 118.655,6.75314 112.489,8.08647 107,12.5C 105.441,14.2166 104.608,16.2166 104.5,18.5C 104.5,18.8333 104.5,19.1667 104.5,19.5C 96.9809,19.175 89.6476,19.5084 82.5,20.5C 76.3419,23.1654 70.5085,26.4988 65,30.5C 61.5102,28.349 58.0102,26.1824 54.5,24C 50.4815,22.8295 46.4815,21.6628 42.5,20.5C 41.4324,19.5655 40.099,19.2322 38.5,19.5C 31.5221,18.9035 24.5221,18.2368 17.5,17.5C 16.5589,15.2279 15.2255,13.2279 13.5,11.5C 10.9401,9.72667 8.60679,7.72667 6.5,5.5C 4.39209,4.05625 2.05875,3.38958 -0.5,3.5C -0.5,2.16667 -0.5,0.833333 -0.5,-0.5 Z"/></g>
<g><path style="opacity:1" fill="#30231f" d="M -0.5,4.5 C -0.5,4.16667 -0.5,3.83333 -0.5,3.5C 2.05875,3.38958 4.39209,4.05625 6.5,5.5C 8.60679,7.72667 10.9401,9.72667 13.5,11.5C 15.2255,13.2279 16.5589,15.2279 17.5,17.5C 24.5221,18.2368 31.5221,18.9035 38.5,19.5C 29.676,20.3297 20.676,20.8297 11.5,21C 7.57801,22.4626 3.57801,23.6293 -0.5,24.5C -0.5,23.8333 -0.5,23.1667 -0.5,22.5C 0.166667,22.5 0.833333,22.5 1.5,22.5C 5.88195,20.2372 10.5486,18.9039 15.5,18.5C 14.564,15.0406 12.564,12.2072 9.5,10C 6.27293,7.88825 2.93959,6.05491 -0.5,4.5 Z"/></g>
<g><path style="opacity:1" fill="#5f3927" d="M -0.5,4.5 C 2.93959,6.05491 6.27293,7.88825 9.5,10C 12.564,12.2072 14.564,15.0406 15.5,18.5C 10.5486,18.9039 5.88195,20.2372 1.5,22.5C 3.64894,20.2542 6.31561,18.7542 9.5,18C 11.2233,14.5921 10.2233,12.2587 6.5,11C 4.257,9.86381 1.92367,9.03048 -0.5,8.5C -0.5,7.16667 -0.5,5.83333 -0.5,4.5 Z"/></g>
<g><path style="opacity:1" fill="#5c3826" d="M 132.5,29.5 C 132.167,30.5 131.5,31.1667 130.5,31.5C 130.565,31.0618 130.399,30.7284 130,30.5C 128.667,31.8333 127.333,33.1667 126,34.5C 124.331,33.1537 123.164,31.487 122.5,29.5C 126.087,31.4736 128.254,30.4736 129,26.5C 129.105,16.1004 123.938,12.2671 113.5,15C 111.771,16.7889 111.104,18.9556 111.5,21.5C 108.093,15.9838 109.76,12.4838 116.5,11C 128.835,9.00297 134.335,14.1696 133,26.5C 131.454,27.5029 131.287,28.5029 132.5,29.5 Z"/></g>
<g><path style="opacity:1" fill="#b47858" d="M -0.5,8.5 C 1.92367,9.03048 4.257,9.86381 6.5,11C 10.2233,12.2587 11.2233,14.5921 9.5,18C 6.31561,18.7542 3.64894,20.2542 1.5,22.5C 0.833333,22.5 0.166667,22.5 -0.5,22.5C -0.5,17.8333 -0.5,13.1667 -0.5,8.5 Z"/></g>
<g><path style="opacity:1" fill="#b27656" d="M 122.5,29.5 C 119.392,26.4114 115.725,24.0781 111.5,22.5C 111.5,22.1667 111.5,21.8333 111.5,21.5C 111.104,18.9556 111.771,16.7889 113.5,15C 123.938,12.2671 129.105,16.1004 129,26.5C 128.254,30.4736 126.087,31.4736 122.5,29.5 Z"/></g>
<g><path style="opacity:1" fill="#49332b" d="M 132.5,29.5 C 131.287,28.5029 131.454,27.5029 133,26.5C 134.335,14.1696 128.835,9.00297 116.5,11C 109.76,12.4838 108.093,15.9838 111.5,21.5C 111.5,21.8333 111.5,22.1667 111.5,22.5C 108.412,22.2689 106.079,20.9355 104.5,18.5C 104.608,16.2166 105.441,14.2166 107,12.5C 112.489,8.08647 118.655,6.75314 125.5,8.5C 135.096,13.311 137.429,20.311 132.5,29.5 Z"/></g>
<g><path style="opacity:1" fill="#6d442d" d="M 38.5,19.5 C 40.099,19.2322 41.4324,19.5655 42.5,20.5C 41.448,20.3505 40.448,20.5172 39.5,21C 47.8021,22.9854 55.4687,26.3188 62.5,31C 65.6311,35.1328 69.1311,38.9662 73,42.5C 74.5588,44.2166 75.3921,46.2166 75.5,48.5C 61.2011,46.9712 46.8678,46.4712 32.5,47C 28.2339,48.087 24.2339,49.7536 20.5,52C 24.309,50.8535 28.309,49.8535 32.5,49C 47.5861,48.3081 62.5861,48.9747 77.5,51C 80.3355,54.6668 83.3355,58.1668 86.5,61.5C 84.0763,60.9695 81.743,60.1362 79.5,59C 64.5,58.3333 49.5,58.3333 34.5,59C 22.9287,61.4842 11.2621,63.3175 -0.5,64.5C -0.5,51.1667 -0.5,37.8333 -0.5,24.5C 3.57801,23.6293 7.57801,22.4626 11.5,21C 20.676,20.8297 29.676,20.3297 38.5,19.5 Z"/></g>
<g><path style="opacity:1" fill="#6b432d" d="M 82.5,20.5 C 89.6476,19.5084 96.9809,19.175 104.5,19.5C 104.389,20.1174 104.056,20.6174 103.5,21C 112.711,24.2174 120.211,29.7174 126,37.5C 126.278,36.5842 126.778,35.9175 127.5,35.5C 127.517,37.5648 127.85,39.5648 128.5,41.5C 126.484,43.0133 124.151,43.8466 121.5,44C 106.716,44.131 92.0489,45.131 77.5,47C 74.0253,42.0247 70.3586,37.1914 66.5,32.5C 72.3739,28.3362 77.7072,24.3362 82.5,20.5 Z"/></g>
<g><path style="opacity:1" fill="#271612" d="M 104.5,18.5 C 106.079,20.9355 108.412,22.2689 111.5,22.5C 115.725,24.0781 119.392,26.4114 122.5,29.5C 123.164,31.487 124.331,33.1537 126,34.5C 127.333,33.1667 128.667,31.8333 130,30.5C 130.399,30.7284 130.565,31.0618 130.5,31.5C 129.5,32.8333 128.5,34.1667 127.5,35.5C 126.778,35.9175 126.278,36.5842 126,37.5C 120.211,29.7174 112.711,24.2174 103.5,21C 104.056,20.6174 104.389,20.1174 104.5,19.5C 104.5,19.1667 104.5,18.8333 104.5,18.5 Z"/></g>
<g><path style="opacity:1" fill="#221713" d="M 42.5,20.5 C 46.4815,21.6628 50.4815,22.8295 54.5,24C 58.0102,26.1824 61.5102,28.349 65,30.5C 70.5085,26.4988 76.3419,23.1654 82.5,20.5C 77.7072,24.3362 72.3739,28.3362 66.5,32.5C 70.3586,37.1914 74.0253,42.0247 77.5,47C 92.0489,45.131 106.716,44.131 121.5,44C 124.151,43.8466 126.484,43.0133 128.5,41.5C 140.538,44.1957 148.538,51.529 152.5,63.5C 146.833,64.8333 141.167,64.8333 135.5,63.5C 140.305,62.5128 145.305,62.1795 150.5,62.5C 150.67,61.1779 150.337,60.0113 149.5,59C 141.5,58.3333 133.5,58.3333 125.5,59C 118.167,60.6667 110.833,62.3333 103.5,64C 102.944,64.3826 102.611,64.8826 102.5,65.5C 101.609,64.8902 100.609,64.5569 99.5,64.5C 106.768,61.4027 114.435,59.236 122.5,58C 130.853,57.8317 139.187,57.3317 147.5,56.5C 143.209,49.1997 136.876,45.1997 128.5,44.5C 116.514,45.4992 104.514,46.3325 92.5,47C 87.6426,47.1891 82.9759,48.1891 78.5,50C 82.3367,54.6686 86.3367,59.1686 90.5,63.5C 88.6203,63.7709 87.287,63.1042 86.5,61.5C 83.3355,58.1668 80.3355,54.6668 77.5,51C 62.5861,48.9747 47.5861,48.3081 32.5,49C 28.309,49.8535 24.309,50.8535 20.5,52C 24.2339,49.7536 28.2339,48.087 32.5,47C 46.8678,46.4712 61.2011,46.9712 75.5,48.5C 75.3921,46.2166 74.5588,44.2166 73,42.5C 69.1311,38.9662 65.6311,35.1328 62.5,31C 55.4687,26.3188 47.8021,22.9854 39.5,21C 40.448,20.5172 41.448,20.3505 42.5,20.5 Z"/></g>
<g><path style="opacity:1" fill="#6c432d" d="M 99.5,64.5 C 96.1456,66.1132 93.1456,65.7798 90.5,63.5C 86.3367,59.1686 82.3367,54.6686 78.5,50C 82.9759,48.1891 87.6426,47.1891 92.5,47C 104.514,46.3325 116.514,45.4992 128.5,44.5C 136.876,45.1997 143.209,49.1997 147.5,56.5C 139.187,57.3317 130.853,57.8317 122.5,58C 114.435,59.236 106.768,61.4027 99.5,64.5 Z"/></g>
<g><path style="opacity:1" fill="#030202" d="M 86.5,61.5 C 87.287,63.1042 88.6203,63.7709 90.5,63.5C 93.1456,65.7798 96.1456,66.1132 99.5,64.5C 100.609,64.5569 101.609,64.8902 102.5,65.5C 113.442,63.9942 124.442,63.3276 135.5,63.5C 141.167,64.8333 146.833,64.8333 152.5,63.5C 157.694,63.8627 160.361,66.696 160.5,72C 158.753,79.489 156.92,86.989 155,94.5C 153.281,95.8688 151.448,96.8688 149.5,97.5C 147.389,96.2584 145.389,96.2584 143.5,97.5C 131.48,99.7675 120.147,97.9341 109.5,92C 107.948,89.2185 105.615,87.5518 102.5,87C 102.728,86.6012 103.062,86.4346 103.5,86.5C 104.497,86.5299 105.164,86.0299 105.5,85C 103.674,80.5229 102.007,76.0229 100.5,71.5C 98.8561,71.2865 97.3561,71.6198 96,72.5C 95.5466,75.7671 94.7133,78.9338 93.5,82C 93.5699,82.7648 93.9033,83.2648 94.5,83.5C 92.2874,85.8603 89.6207,87.6937 86.5,89C 71.3701,93.3997 56.0368,94.3997 40.5,92C 38.7585,90.3804 36.9252,88.8804 35,87.5C 33.9701,82.1863 33.1368,76.8529 32.5,71.5C 33.3387,64.5829 30.672,62.7496 24.5,66C 25.9423,66.3768 26.9423,67.2101 27.5,68.5C 23.9847,67.2716 20.4847,65.9383 17,64.5C 11.1386,65.3782 5.30528,66.3782 -0.5,67.5C -0.5,66.5 -0.5,65.5 -0.5,64.5C 11.2621,63.3175 22.9287,61.4842 34.5,59C 49.5,58.3333 64.5,58.3333 79.5,59C 81.743,60.1362 84.0763,60.9695 86.5,61.5 Z"/></g>
<g><path style="opacity:1" fill="#64402d" d="M 135.5,63.5 C 124.442,63.3276 113.442,63.9942 102.5,65.5C 102.611,64.8826 102.944,64.3826 103.5,64C 110.833,62.3333 118.167,60.6667 125.5,59C 133.5,58.3333 141.5,58.3333 149.5,59C 150.337,60.0113 150.67,61.1779 150.5,62.5C 145.305,62.1795 140.305,62.5128 135.5,63.5 Z"/></g>
<g><path style="opacity:1" fill="#e7e6e5" d="M 32.5,71.5 C 31.078,70.075 29.4113,69.075 27.5,68.5C 26.9423,67.2101 25.9423,66.3768 24.5,66C 30.672,62.7496 33.3387,64.5829 32.5,71.5 Z"/></g>
<g><path style="opacity:1" fill="#6e442d" d="M 27.5,68.5 C 29.4113,69.075 31.078,70.075 32.5,71.5C 33.1368,76.8529 33.9701,82.1863 35,87.5C 36.9252,88.8804 38.7585,90.3804 40.5,92C 56.0368,94.3997 71.3701,93.3997 86.5,89C 89.6207,87.6937 92.2874,85.8603 94.5,83.5C 97.6324,84.36 100.632,85.36 103.5,86.5C 103.062,86.4346 102.728,86.6012 102.5,87C 105.615,87.5518 107.948,89.2185 109.5,92C 120.147,97.9341 131.48,99.7675 143.5,97.5C 147.135,97.6556 147.468,98.8223 144.5,101C 145.894,101.956 146.561,103.289 146.5,105C 145.017,108.129 143.684,111.296 142.5,114.5C 140.981,117.526 140.315,120.859 140.5,124.5C 140.503,127.025 140.837,129.359 141.5,131.5C 141.768,133.099 141.434,134.432 140.5,135.5C 140.631,134.761 140.464,134.094 140,133.5C 138.761,137.546 136.595,140.88 133.5,143.5C 133.167,144.833 132.833,146.167 132.5,147.5C 131.833,147.5 131.5,147.167 131.5,146.5C 132.218,144.863 132.384,143.197 132,141.5C 129.012,139.601 126.179,137.601 123.5,135.5C 123.167,134.833 122.833,134.167 122.5,133.5C 126.632,118.064 122.299,105.564 109.5,96C 103.5,95.3333 97.5,95.3333 91.5,96C 73.8475,104.722 68.0141,118.555 74,137.5C 78.4942,142.058 83.9942,144.391 90.5,144.5C 100.075,144.677 109.075,142.511 117.5,138C 117.272,137.601 116.938,137.435 116.5,137.5C 116.5,137.167 116.5,136.833 116.5,136.5C 117.5,136.5 118.5,136.5 119.5,136.5C 119.351,137.552 119.517,138.552 120,139.5C 122.688,141.364 125.188,143.364 127.5,145.5C 126.043,147.785 124.043,149.618 121.5,151C 112.335,152.414 103.335,154.247 94.5,156.5C 69.8311,156.333 45.1644,156.5 20.5,157C 19.5842,157.278 18.9175,157.778 18.5,158.5C 12.1667,158.5 5.83333,158.5 -0.5,158.5C -0.5,128.167 -0.5,97.8333 -0.5,67.5C 5.30528,66.3782 11.1386,65.3782 17,64.5C 20.4847,65.9383 23.9847,67.2716 27.5,68.5 Z"/></g>
<g><path style="opacity:1" fill="#eaeaea" d="M 103.5,86.5 C 100.632,85.36 97.6324,84.36 94.5,83.5C 93.9033,83.2648 93.5699,82.7648 93.5,82C 94.7133,78.9338 95.5466,75.7671 96,72.5C 97.3561,71.6198 98.8561,71.2865 100.5,71.5C 102.007,76.0229 103.674,80.5229 105.5,85C 105.164,86.0299 104.497,86.5299 103.5,86.5 Z"/></g>
<g><path style="opacity:1" fill="#2b1610" d="M 86.5,90.5 C 87.552,90.3505 88.552,90.5172 89.5,91C 85.039,93.0643 80.7057,95.3977 76.5,98C 74.7412,98.7975 73.0745,98.6309 71.5,97.5C 76.9417,95.9437 81.9417,93.6104 86.5,90.5 Z"/></g>
<g><path style="opacity:1" fill="#21120d" d="M 122.5,133.5 C 123.672,123.467 121.839,113.8 117,104.5C 112.981,99.1571 107.648,96.8237 101,97.5C 77.808,100.414 69.1414,113.414 75,136.5C 79.1039,140.149 83.9372,142.149 89.5,142.5C 98.7772,142.207 107.777,140.541 116.5,137.5C 116.938,137.435 117.272,137.601 117.5,138C 109.075,142.511 100.075,144.677 90.5,144.5C 83.9942,144.391 78.4942,142.058 74,137.5C 68.0141,118.555 73.8475,104.722 91.5,96C 97.5,95.3333 103.5,95.3333 109.5,96C 122.299,105.564 126.632,118.064 122.5,133.5 Z"/></g>
<g><path style="opacity:1" fill="#322824" d="M 143.5,97.5 C 145.389,96.2584 147.389,96.2584 149.5,97.5C 148.645,98.5307 147.978,99.6974 147.5,101C 148.409,102.789 148.576,104.623 148,106.5C 146.391,109.407 144.558,112.073 142.5,114.5C 143.684,111.296 145.017,108.129 146.5,105C 146.561,103.289 145.894,101.956 144.5,101C 147.468,98.8223 147.135,97.6556 143.5,97.5 Z"/></g>
<g><path style="opacity:1" fill="#442a1d" d="M 122.5,133.5 C 122.833,134.167 123.167,134.833 123.5,135.5C 122.041,135.433 120.708,135.766 119.5,136.5C 119.279,134.336 118.279,132.67 116.5,131.5C 117.043,131.44 117.376,131.107 117.5,130.5C 112.4,130.09 107.566,129.09 103,127.5C 102.646,123.646 102.146,119.812 101.5,116C 103.365,113.764 104.865,111.264 106,108.5C 106.798,106.741 106.631,105.074 105.5,103.5C 100.515,102.285 95.5152,102.285 90.5,103.5C 89.6706,110.261 92.6706,113.928 99.5,114.5C 99.8757,119.55 100.542,124.55 101.5,129.5C 97.6902,130.071 94.0235,130.904 90.5,132C 97.2147,132.243 103.881,132.743 110.5,133.5C 112.483,134.471 114.483,135.471 116.5,136.5C 116.5,136.833 116.5,137.167 116.5,137.5C 107.777,140.541 98.7772,142.207 89.5,142.5C 83.9372,142.149 79.1039,140.149 75,136.5C 69.1414,113.414 77.808,100.414 101,97.5C 107.648,96.8237 112.981,99.1571 117,104.5C 121.839,113.8 123.672,123.467 122.5,133.5 Z"/></g>
<g><path style="opacity:1" fill="#0b0504" d="M 116.5,131.5 C 114.102,131.259 112.102,131.926 110.5,133.5C 103.881,132.743 97.2147,132.243 90.5,132C 94.0235,130.904 97.6902,130.071 101.5,129.5C 100.542,124.55 99.8757,119.55 99.5,114.5C 92.6706,113.928 89.6706,110.261 90.5,103.5C 95.5152,102.285 100.515,102.285 105.5,103.5C 106.631,105.074 106.798,106.741 106,108.5C 104.865,111.264 103.365,113.764 101.5,116C 102.146,119.812 102.646,123.646 103,127.5C 107.566,129.09 112.4,130.09 117.5,130.5C 117.376,131.107 117.043,131.44 116.5,131.5 Z"/></g>
<g><path style="opacity:1" fill="#241714" d="M 142.5,114.5 C 141.708,120.13 141.375,125.797 141.5,131.5C 140.837,129.359 140.503,127.025 140.5,124.5C 140.315,120.859 140.981,117.526 142.5,114.5 Z"/></g>
<g><path style="opacity:1" fill="#e29764" d="M 116.5,131.5 C 118.279,132.67 119.279,134.336 119.5,136.5C 118.5,136.5 117.5,136.5 116.5,136.5C 114.483,135.471 112.483,134.471 110.5,133.5C 112.102,131.926 114.102,131.259 116.5,131.5 Z"/></g>
<g><path style="opacity:1" fill="#efeeed" d="M 123.5,135.5 C 126.179,137.601 129.012,139.601 132,141.5C 132.384,143.197 132.218,144.863 131.5,146.5C 130.833,146.5 130.167,146.5 129.5,146.5C 128.833,146.167 128.167,145.833 127.5,145.5C 125.188,143.364 122.688,141.364 120,139.5C 119.517,138.552 119.351,137.552 119.5,136.5C 120.708,135.766 122.041,135.433 123.5,135.5 Z"/></g>
<g><path style="opacity:1" fill="#cf7544" d="M 133.5,143.5 C 135.176,144.183 135.843,145.517 135.5,147.5C 134.5,147.5 133.5,147.5 132.5,147.5C 132.833,146.167 133.167,144.833 133.5,143.5 Z"/></g>
<g><path style="opacity:1" fill="#363636" d="M 140.5,135.5 C 139.949,138.267 138.616,140.6 136.5,142.5C 137.098,143.795 137.598,145.128 138,146.5C 157.173,158.85 165.673,176.517 163.5,199.5C 163.167,199.5 162.833,199.5 162.5,199.5C 162.664,196.813 162.497,194.146 162,191.5C 161.503,193.81 161.337,196.143 161.5,198.5C 134.167,198.5 106.833,198.5 79.5,198.5C 79.1771,192.31 79.5104,186.31 80.5,180.5C 80.5,182.167 80.5,183.833 80.5,185.5C 92.9408,181.969 104.607,176.802 115.5,170C 116.63,167.572 118.13,165.405 120,163.5C 125.202,160.193 129.869,156.193 134,151.5C 133.857,150.135 133.357,148.802 132.5,147.5C 133.5,147.5 134.5,147.5 135.5,147.5C 135.843,145.517 135.176,144.183 133.5,143.5C 136.595,140.88 138.761,137.546 140,133.5C 140.464,134.094 140.631,134.761 140.5,135.5 Z"/></g>
<g><path style="opacity:1" fill="#5e3d2f" d="M 94.5,156.5 C 69.3566,158.26 44.0232,158.927 18.5,158.5C 18.9175,157.778 19.5842,157.278 20.5,157C 45.1644,156.5 69.8311,156.333 94.5,156.5 Z"/></g>
<g><path style="opacity:1" fill="#18100e" d="M 127.5,145.5 C 128.167,145.833 128.833,146.167 129.5,146.5C 123.823,151.535 117.823,156.368 111.5,161C 101.622,166.106 91.6221,170.939 81.5,175.5C 80.5481,177.045 80.2148,178.712 80.5,180.5C 79.5104,186.31 79.1771,192.31 79.5,198.5C 106.833,198.5 134.167,198.5 161.5,198.5C 161.337,196.143 161.503,193.81 162,191.5C 162.497,194.146 162.664,196.813 162.5,199.5C 134.167,199.5 105.833,199.5 77.5,199.5C 77.5,199.167 77.5,198.833 77.5,198.5C 77.2395,190.387 78.0728,182.387 80,174.5C 81.6516,173.601 83.1516,172.601 84.5,171.5C 89.0049,170.447 93.0049,168.447 96.5,165.5C 104.365,163.235 111.365,159.401 117.5,154C 116.5,153.833 115.5,153.667 114.5,153.5C 107.24,155.63 99.9065,157.464 92.5,159C 61.5033,159.765 30.5033,160.265 -0.5,160.5C -0.5,159.833 -0.5,159.167 -0.5,158.5C 5.83333,158.5 12.1667,158.5 18.5,158.5C 44.0232,158.927 69.3566,158.26 94.5,156.5C 103.335,154.247 112.335,152.414 121.5,151C 124.043,149.618 126.043,147.785 127.5,145.5 Z"/></g>
<g><path style="opacity:1" fill="#6c432d" d="M 96.5,165.5 C 91.6146,165.965 86.9479,167.132 82.5,169C 65.5033,169.5 48.5033,169.667 31.5,169.5C 23.8004,167.164 15.8004,165.831 7.5,165.5C 4.67332,164.892 2.00666,163.892 -0.5,162.5C -0.5,161.833 -0.5,161.167 -0.5,160.5C 30.5033,160.265 61.5033,159.765 92.5,159C 99.9065,157.464 107.24,155.63 114.5,153.5C 115.5,153.667 116.5,153.833 117.5,154C 111.365,159.401 104.365,163.235 96.5,165.5 Z"/></g>
<g><path style="opacity:1" fill="#1a1011" d="M -0.5,162.5 C 2.00666,163.892 4.67332,164.892 7.5,165.5C 10.4167,168.303 13.75,170.637 17.5,172.5C 18.7879,174.299 18.7879,175.965 17.5,177.5C 17.6766,175.019 16.6766,173.186 14.5,172C 9.75223,168.959 4.75223,166.459 -0.5,164.5C -0.5,163.833 -0.5,163.167 -0.5,162.5 Z"/></g>
<g><path style="opacity:1" fill="#3e3e3e" d="M 129.5,146.5 C 130.167,146.5 130.833,146.5 131.5,146.5C 131.5,147.167 131.833,147.5 132.5,147.5C 133.357,148.802 133.857,150.135 134,151.5C 129.869,156.193 125.202,160.193 120,163.5C 118.13,165.405 116.63,167.572 115.5,170C 104.607,176.802 92.9408,181.969 80.5,185.5C 80.5,183.833 80.5,182.167 80.5,180.5C 80.2148,178.712 80.5481,177.045 81.5,175.5C 91.6221,170.939 101.622,166.106 111.5,161C 117.823,156.368 123.823,151.535 129.5,146.5 Z"/></g>
<g><path style="opacity:1" fill="#831a23" d="M 96.5,165.5 C 93.0049,168.447 89.0049,170.447 84.5,171.5C 66.8333,170.833 49.1667,170.167 31.5,169.5C 48.5033,169.667 65.5033,169.5 82.5,169C 86.9479,167.132 91.6146,165.965 96.5,165.5 Z"/></g>
<g><path style="opacity:1" fill="#a7022e" d="M 7.5,165.5 C 15.8004,165.831 23.8004,167.164 31.5,169.5C 49.1667,170.167 66.8333,170.833 84.5,171.5C 83.1516,172.601 81.6516,173.601 80,174.5C 78.0728,182.387 77.2395,190.387 77.5,198.5C 55.9935,198.831 34.6601,198.497 13.5,197.5C 15.6458,191.007 16.9791,184.34 17.5,177.5C 18.7879,175.965 18.7879,174.299 17.5,172.5C 13.75,170.637 10.4167,168.303 7.5,165.5 Z"/></g>
<g><path style="opacity:1" fill="#383838" d="M -0.5,164.5 C 4.75223,166.459 9.75223,168.959 14.5,172C 16.6766,173.186 17.6766,175.019 17.5,177.5C 15.1863,184.041 12.853,190.707 10.5,197.5C 6.89272,198.489 3.22605,198.823 -0.5,198.5C -0.5,187.167 -0.5,175.833 -0.5,164.5 Z"/></g>
<g><path style="opacity:1" fill="#1e1315" d="M 17.5,177.5 C 16.9791,184.34 15.6458,191.007 13.5,197.5C 12.6618,197.842 12.3284,198.508 12.5,199.5C 8.16667,199.5 3.83333,199.5 -0.5,199.5C -0.5,199.167 -0.5,198.833 -0.5,198.5C 3.22605,198.823 6.89272,198.489 10.5,197.5C 12.853,190.707 15.1863,184.041 17.5,177.5 Z"/></g>
<g><path style="opacity:1" fill="#610818" d="M 13.5,197.5 C 34.6601,198.497 55.9935,198.831 77.5,198.5C 77.5,198.833 77.5,199.167 77.5,199.5C 55.8333,199.5 34.1667,199.5 12.5,199.5C 12.3284,198.508 12.6618,197.842 13.5,197.5 Z"/></g>
</svg>
