<?xml version="1.0" encoding="utf-8"?>
<!DOCTYPE svg PUBLIC "-//W3C//DTD SVG 1.1//EN" "http://www.w3.org/Graphics/SVG/1.1/DTD/svg11.dtd">
<svg version="1.1" xmlns="http://www.w3.org/2000/svg" width="200px" height="200px" viewBox="0 0 200 200" preserveAspectRatio="xMidYMid meet">
 <g fill="#363735">
  <path d="M123.1 191.3 c0.1 -1 -0.1 -3.9 -0.5 -6.5 l-0.8 -4.8 -5.5 0 c-6.8 0 -8.8 -1.6 -8 -6.7 0.3 -1.9 1.4 -4.1 2.4 -4.9 1.7 -1.3 1.7 -1.4 0.1 -0.8 -1.4 0.5 -1.8 0.1 -1.8 -1.5 0 -2.3 1.5 -2.9 2.3 -0.8 0.4 1 0.6 1 0.6 0 0.1 -0.7 1 -1.3 2.2 -1.3 1.9 0 2.1 0.5 1.7 3.9 -0.4 4.3 0.6 5.1 6.5 5.1 2.3 0 2.7 0.4 2.7 3 0 2.3 0.4 3 2 3 1.6 0 2 -0.7 2 -3.6 0 -3 0.3 -3.6 1.8 -3.2 1.1 0.3 1.9 0 1.9 -0.8 0 -0.7 -0.4 -1.1 -0.9 -0.8 -0.4 0.3 -0.8 0 -0.8 -0.5 0 -0.6 0.5 -1.1 1.2 -1.1 0.9 0 0.9 -0.3 0 -1.2 -2.2 -2.2 -1.3 -3.8 2.2 -3.8 3.3 0 3.3 0.1 4 5.3 1.2 10.7 1.3 10.6 -4.5 10.2 l-5.1 -0.4 0.5 4.4 c0.2 2.5 0.1 4.2 -0.4 3.9 -0.5 -0.3 -0.9 -0.1 -0.9 0.5 0 0.5 0.6 1.2 1.3 1.4 0.9 0.4 0.9 0.8 -0.2 1.5 -1.1 0.8 -1.1 1 0 1.5 0.8 0.3 -0.3 0.6 -2.4 0.6 -3.1 0.1 -3.8 -0.2 -3.6 -1.6z m13.9 -19.8 c0 -0.8 -0.4 -1.5 -1 -1.5 -0.5 0 -1 0.7 -1 1.5 0 0.8 0.5 1.5 1 1.5 0.6 0 1 -0.7 1 -1.5z"/>
  <path d="M98.3 191.3 c-3 -0.4 -3.3 -0.7 -3.3 -3.9 0 -3.1 0.2 -3.4 3 -3.4 1.7 0 3 -0.4 3 -1 0 -0.5 1.6 -1 3.5 -1 l3.5 0 0 5 0 5 -3.2 -0.2 c-1.8 0 -4.8 -0.3 -6.5 -0.5z"/>
  <path d="M132 187.6 c0 -3.2 0.2 -3.4 3.5 -3.3 3.3 0.1 3.5 0.3 3.5 3.4 0 3.1 -0.2 3.3 -3.5 3.3 -3.3 0 -3.5 -0.2 -3.5 -3.4z"/>
  <path d="M89 175.5 c0 -0.8 0.7 -1.5 1.6 -1.5 0.9 0 1.8 -0.9 2.1 -2 0.3 -1.1 1.4 -2 2.4 -2 1.5 0 1.9 0.7 1.9 3.5 0 3.4 -0.1 3.5 -4 3.5 -2.9 0 -4 -0.4 -4 -1.5z"/>
  <path d="M89 171.5 c0 -0.8 0.7 -1.5 1.5 -1.5 0.8 0 1.5 0.7 1.5 1.5 0 0.8 -0.7 1.5 -1.5 1.5 -0.8 0 -1.5 -0.7 -1.5 -1.5z"/>
  <path d="M87.2 148.8 c-1.2 -7.3 -2.2 -15 -2.2 -17 0 -3.1 -0.4 -3.8 -1.9 -3.8 -1.6 0 -2.1 -0.9 -2.7 -4.5 -0.3 -2.5 -0.3 -5.3 0.1 -6.2 0.7 -1.7 0.8 -1.6 1.5 0.2 0.7 1.7 0.9 1.7 0.9 0.3 0.1 -1.1 0.9 -1.8 2.2 -1.8 1.8 0 2.1 0.4 1.6 3 -0.7 3.2 0.6 4.6 3.6 4.2 1.4 -0.3 1.7 0.5 1.7 4.8 0 2.7 0.9 10.7 2 17.7 1.1 6.9 1.8 13.4 1.5 14.4 -0.9 2.7 -2.7 2.3 -2.1 -0.3 l0.6 -2.3 -1.1 2.3 c-2.4 4.4 -3.5 2.3 -5.7 -11z"/>
  <path d="M107 128.6 c0 -3.5 0.1 -3.6 3.6 -3.6 3.4 0 3.5 0.1 3.2 3.3 -0.3 2.8 -0.7 3.2 -3.5 3.5 -3.2 0.3 -3.3 0.2 -3.3 -3.2z"/>
  <path d="M125.7 130.3 c-1.6 -1.5 -0.4 -8.3 1.5 -8.3 0.5 0 0.6 0.6 0.2 1.3 -0.5 0.8 -0.4 0.9 0.4 0.2 0.6 -0.5 1.2 -3.5 1.4 -6.5 0.3 -5.4 0.4 -5.5 3.6 -5.8 l3.2 -0.3 0 6 c0 4.8 -0.3 6.1 -1.5 6.1 -0.9 0 -1.5 0.9 -1.5 2.4 0 4.1 -1.1 5.6 -3.9 5.6 -1.5 0 -3.1 -0.3 -3.4 -0.7z"/>
  <path d="M138.1 128.3 c0.2 -3.7 1.9 -8.3 3.1 -8.3 0.5 0 0.8 -0.6 0.5 -1.2 -0.8 -2.4 1.3 -4.8 4.3 -4.8 2.7 0 3 0.3 3 3 0 1.6 -0.9 5.4 -2.1 8.5 -1.9 5.2 -2.2 5.5 -5.5 5.5 -3 0 -3.4 -0.3 -3.3 -2.7z"/>
  <path d="M143 110 c0 -1.1 -0.4 -2 -1 -2 -0.5 0 -0.9 -0.8 -0.8 -1.7 0.3 -3.8 -0.2 -5.2 -1.6 -4.7 -0.9 0.3 -1.7 -0.3 -2.1 -1.7 -0.4 -1.3 -1.4 -2.9 -2.1 -3.7 -0.8 -0.7 -1.4 -2.2 -1.4 -3.3 0 -1 -0.4 -1.9 -1 -1.9 -0.5 0 -1 0.7 -1 1.5 0 1 -1.1 1.5 -3.5 1.5 -3.3 0 -3.5 -0.2 -3.5 -3.5 0 -2.9 0.4 -3.5 2.1 -3.5 1.3 0 1.8 0.4 1.3 1.3 -0.5 0.8 -0.3 0.8 0.9 -0.2 0.9 -0.7 1.4 -1.7 1.2 -2.2 -0.3 -0.4 -0.3 -2 0.1 -3.4 0.5 -2.1 0.9 -2.4 1.6 -1.3 0.6 0.8 0.7 0 0.3 -2.4 -0.4 -2.4 -0.2 -3.8 0.5 -3.8 0.5 0 1 -1.6 1 -3.5 0 -2.7 0.4 -3.5 1.8 -3.5 1.5 0 1.8 -0.6 1.3 -3.2 -0.4 -3.2 -0.5 -3.2 -1.1 -0.8 -0.6 2.2 -0.8 2 -1.4 -1.7 -0.6 -3.3 -1.2 -4.3 -2.7 -4.3 -1.7 0 -1.9 -0.8 -1.9 -6.9 0 -3.8 0.3 -7.6 0.6 -8.5 0.7 -1.7 3.4 -2.2 3.4 -0.6 0 0.6 0.5 1 1 1 0.6 0 1 -1.3 1 -3 0 -1.6 -0.4 -3 -1 -3 -0.5 0 -1 0.7 -1 1.5 0 2.8 -2.6 1.5 -4 -2 -0.8 -1.9 -2 -3.5 -2.7 -3.5 -0.7 0 -1.3 -0.9 -1.3 -2.1 0 -1.7 -0.5 -2 -3.3 -1.8 -1.8 0.2 -3.7 0 -4.4 -0.4 -0.7 -0.5 -0.9 0 -0.6 1.3 0.5 1.7 0 2 -3.3 2 -3.9 0.1 -3.9 0.1 -1.4 1.5 l2.5 1.4 -2.5 0.1 -2.5 0.1 2.3 1.2 c1.2 0.7 1.9 1.6 1.6 2 -0.4 0.4 1.4 0.4 3.9 0.1 l4.7 -0.7 0 4.2 c0 3.4 -0.3 4.1 -2 4.1 -1.1 0 -2 0.4 -2 0.9 0 1.2 -4.9 1.1 -7.9 -0.3 -2.8 -1.2 -3 -1.6 -3.8 -8.7 -0.5 -4.2 -0.7 -4.5 -2.9 -4.1 -2.5 0.5 -3.2 3 -1.3 4.9 0.7 0.7 0.8 2.8 0.4 5.7 l-0.7 4.6 -4.4 0 c-3 0 -4.6 -0.5 -5 -1.5 -0.4 -0.9 -1.9 -1.5 -3.5 -1.5 -2.6 0 -2.9 -0.3 -2.9 -3.5 0 -1.9 -0.3 -3.5 -0.7 -3.5 -0.5 0 -4.5 0.9 -8.9 2.1 l-8.2 2.1 0.9 3.2 c1.2 4 1.2 9.3 0 10.1 -0.5 0.3 -1.2 -0.3 -1.4 -1.2 -0.3 -1 -0.5 0.2 -0.5 2.7 0 2.5 0.2 3.7 0.5 2.7 0.2 -0.9 0.9 -1.5 1.4 -1.2 1.7 1.1 0.9 7.9 -1.6 14 -1.4 3.3 -2.5 6.1 -2.5 6.3 0 0.1 0.9 0.2 2 0.2 1.6 0 2 0.7 2 3.5 0 3.3 -0.2 3.5 -3.5 3.5 -8.8 0 -19.3 -7 -23.9 -15.9 -2 -3.7 -3.1 -11.3 -2.1 -13.8 0.7 -1.7 0.8 -1.7 1.5 0.2 0.6 1.4 0.8 0.5 0.8 -3 0 -2.7 -0.2 -4.2 -0.5 -3.2 -0.6 2.4 -2.3 1.1 -2.3 -1.9 0 -6.3 2.1 -7.2 37.5 -16.4 11 -2.8 20.9 -5.4 22 -5.7 1.8 -0.5 1.8 -0.4 0.6 1.1 -0.8 0.9 -1.1 1.9 -0.7 2.3 0.3 0.3 0.6 0.1 0.6 -0.5 0 -1.7 4.6 -4.4 8.8 -5.3 3.7 -0.8 3.7 -0.8 -0.5 -0.5 -6.6 0.6 -5.1 -1.1 1.7 -1.9 6.2 -0.7 8.3 -2.5 3 -2.5 -2.3 0 -3.1 -0.5 -3.6 -2.5 -0.3 -1.4 -0.4 -3.2 0 -4 0.7 -1.9 4.5 -1.9 7.2 0 1.9 1.2 2.4 1.2 4 0 1.2 -0.9 4.4 -1.4 8.7 -1.5 l6.7 0 1.2 4.5 c1 3.7 1.6 4.5 3.5 4.5 1.3 0 2.3 0.5 2.3 1 0 0.6 0.9 1 2 1 1.5 0 2 0.7 2 2.5 0 1.4 0.5 2.5 1 2.5 0.6 0 1 1.6 1 3.5 0 2.5 -0.4 3.5 -1.6 3.5 -0.9 0 -1.2 -0.5 -0.8 -1.3 0.6 -0.9 0.4 -0.9 -0.7 0 -2 1.9 -3.9 1.5 -3.9 -0.8 0 -2.8 -2.6 -5.3 -4.8 -4.4 -1.4 0.6 -1.5 0.8 -0.2 1.3 0.8 0.3 2 1.2 2.7 2.1 1.5 1.9 1.7 8.1 0.3 8.1 -0.5 0 -1 -0.4 -1 -1 0 -0.5 -0.4 -1 -1 -1 -0.5 0 -1 1.4 -1 3 0 1.7 0.5 3 1 3 0.6 0 1 -0.4 1 -1 0 -0.5 0.5 -1 1.1 -1 0.7 0 0.9 2.6 0.7 7.4 -0.3 7.4 0.5 9.6 3.5 9.6 1.1 0 1.3 -1.2 0.9 -5 l-0.5 -5 3.5 0 c3.2 0 3.6 0.3 4.2 3.1 0.3 1.7 0.6 5.1 0.6 7.5 0 4.2 -0.1 4.4 -3 4.4 -2.9 0 -3 0.2 -3 4.5 0 4.4 -0.1 4.5 -3.3 4.5 -3.3 0 -3.3 0 -4.8 7.5 -1.4 7 -1.4 7.5 0.2 7.5 1 0 2.1 1 2.5 2.2 0.3 1.2 1.3 2.8 2 3.6 0.8 0.7 1.4 2.7 1.4 4.3 0 1.8 0.5 2.9 1.4 2.9 1.3 0 2.6 4.1 2.6 8.6 0 2 -0.5 2.4 -3 2.4 -2.3 0 -3 -0.4 -3 -2z m-85.5 -68 c1.3 -0.5 1.4 -0.9 0.5 -0.9 -0.8 0 -2.4 0.4 -3.5 0.9 -1.3 0.5 -1.4 0.9 -0.5 0.9 0.8 0 2.4 -0.4 3.5 -0.9z m58 0.1 c-0.3 -0.5 0.5 -1.1 1.7 -1.3 1.7 -0.3 1.3 -0.5 -1.4 -0.9 -3.7 -0.5 -4.8 0.9 -1.8 2.3 2.1 0.9 2.2 0.9 1.5 -0.1z m14.7 -22.9 c-0.9 -2.6 -3.1 1.1 -2.5 4.2 l0.6 2.9 1.2 -2.9 c0.7 -1.6 1 -3.5 0.7 -4.2z m8.3 4.8 c1.8 -0.8 1.7 -0.9 -0.7 -0.9 -1.6 -0.1 -2.8 0.4 -2.8 0.9 0 1.2 0.8 1.2 3.5 0z m-8.9 -10.8 c-1.6 -0.2 -3.2 0 -3.7 0.5 -0.5 0.5 0.7 0.7 2.9 0.4 3.4 -0.5 3.5 -0.6 0.8 -0.9z"/>
  <path d="M80.7 108.4 c-1.2 -1.3 -0.8 -4.7 1.4 -11.4 1.2 -3.6 2.4 -7.2 2.6 -8 0.4 -1.2 0.7 -1.1 1.3 0.5 0.7 1.7 0.9 1.7 0.9 0.3 0.1 -2.7 3.7 -2.2 4.5 0.5 0.9 3.3 0.7 7.7 -0.3 7.7 -0.4 0 -1.6 2.5 -2.6 5.5 -1.7 5.5 -3.9 7.2 -5.2 3.8 -0.6 -1.5 -0.7 -1.5 -1.3 0.1 -0.3 0.9 -0.9 1.4 -1.3 1z"/>
  <path d="M74.2 84.8 c0.3 -2.9 0.7 -3.3 3.6 -3.6 2.4 -0.3 3.2 0.1 3.2 1.3 0 0.9 -0.4 1.3 -1 1 -0.5 -0.3 -1 -0.1 -1 0.4 0 0.6 0.5 1.1 1 1.1 0.6 0 1 0.7 1 1.5 0 1.1 -1.1 1.5 -3.6 1.5 -3.4 0 -3.5 -0.1 -3.2 -3.2z"/>
  <path d="M122 71.5 c0 -3.4 0.1 -3.5 4 -3.5 3.9 0 4 0.1 4 3.5 0 3.4 -0.1 3.5 -4 3.5 -3.9 0 -4 -0.1 -4 -3.5z"/>
  <path d="M145.7 47.3 c-0.4 -0.3 -0.7 -2.1 -0.7 -3.9 0 -3.2 0.1 -3.3 3.8 -3.1 3.5 0.2 3.7 0.4 4 4 0.3 3.6 0.2 3.7 -3.1 3.7 -1.8 0 -3.7 -0.3 -4 -0.7z"/>
 </g>
 <g fill="#525d55">
  <path d="M106 195.3 c-1.4 -0.3 -2.9 -0.9 -3.4 -1.4 -0.6 -0.5 -1.8 -0.9 -2.8 -0.9 -1.5 0 -1.8 -0.7 -1.6 -3.3 l0.2 -3.3 8.4 -0.2 c7.6 -0.1 8.5 0.1 8.9 1.9 0.3 1 0.9 1.9 1.3 1.9 0.4 0 0.7 1.4 0.8 3 0.1 2.9 0 3 -4.6 2.9 -2.6 -0.1 -5.8 -0.4 -7.2 -0.6z"/>
  <path d="M121 193 c0 -1.7 0.6 -3.1 1.3 -3.1 0.6 -0.1 2.4 -0.3 3.8 -0.4 2.3 -0.3 2.6 0 2.7 3.1 0.1 3.3 0 3.4 -3.8 3.4 -3.8 0 -4 -0.2 -4 -3z"/>
  <path d="M77 185.5 c0 -1.9 0.5 -3.5 1 -3.5 0.6 0 1 -1.3 1 -3 0 -2.4 0.4 -3 2.1 -3 1.3 0 1.8 0.4 1.3 1.3 -0.6 1 -0.4 1 0.7 0 2.1 -2.1 2.9 -1.5 2.9 2.2 0 1.9 -0.4 3.5 -1 3.5 -0.5 0 -1 1.4 -1 3 0 2.8 -0.3 3 -3.5 3 -3.3 0 -3.5 -0.2 -3.5 -3.5z"/>
  <path d="M111 179 c0 -0.5 -0.9 -1 -2 -1 -1.6 0 -2 -0.7 -2 -3.5 0 -3.4 -0.1 -3.5 -4 -3.5 -3.8 0 -4 0.2 -4 3 0 2.8 -0.3 3 -3.5 3 -2.4 0 -3.5 -0.5 -3.5 -1.5 0 -0.8 0.8 -1.5 1.8 -1.6 1 0 1.2 -0.3 0.5 -0.6 -0.7 -0.2 -1.3 -1.4 -1.4 -2.6 -0.1 -2 -0.2 -2 -0.9 0.3 l-0.7 2.5 -0.6 -2.5 c-1 -4.4 -2 -13.3 -2.1 -18.2 -0.1 -2.7 -0.5 -4.8 -1 -4.8 -0.4 0 -0.6 -1.3 -0.4 -3 0.3 -1.6 0.1 -3 -0.4 -3 -0.4 0 -0.8 -0.8 -0.8 -1.8 0 -1 -0.3 -2.2 -0.7 -2.6 -1.2 -1.1 -3.3 -8 -3.3 -10.7 0 -2.4 0.3 -2.6 5 -2.8 2.8 -0.1 5 0.3 5 0.8 0 0.5 1.8 0.7 4 0.4 3.6 -0.5 4 -0.3 4 1.6 0 1.1 0.4 2.1 0.9 2.1 1.5 0 2.2 3.3 0.9 4.2 -1 0.6 -1 0.8 0 0.8 0.6 0 1.2 0.5 1.2 1.1 0 0.8 -1.6 1 -5 0.6 l-5 -0.6 0.3 6.4 c0.1 3.6 0.5 6.5 0.8 6.5 0.3 0 1.1 3.5 1.8 7.8 0.8 4.2 1.6 9 1.9 10.7 0.4 2.7 0.3 2.9 -1.2 1.6 -0.9 -0.7 -1.6 -0.9 -1.6 -0.3 0 1.8 3.1 2.2 4.6 0.7 0.9 -0.8 1.1 -1.5 0.5 -1.5 -0.6 0 -1.1 -0.4 -1.1 -0.9 0 -1.3 11.3 -2.2 12.1 -0.9 0.4 0.7 0.8 0.6 1.1 -0.3 0.9 -2.5 2.1 -0.2 2.8 5.1 0.1 0.8 0.5 0.2 0.9 -1.5 0.6 -2.9 0.8 -3 7.4 -3.3 l6.7 -0.3 0 -3 c0 -2 0.4 -2.8 1.1 -2.3 0.8 0.4 0.9 -0.3 0.5 -2.3 -0.9 -3.8 1.3 -13 2.6 -11.1 0.5 0.8 0.6 0.2 0.2 -1.6 -0.5 -1.9 -0.3 -2.7 0.4 -2.2 0.6 0.4 0.8 -0.2 0.4 -1.6 -0.3 -1.4 -0.2 -1.9 0.6 -1.4 0.8 0.5 1.2 -0.2 1.2 -1.9 0 -2 0.4 -2.6 1.5 -2.2 0.8 0.4 1.7 0.2 2.1 -0.4 1 -1.7 -0.3 -2.1 -2.5 -0.9 -1.9 0.9 -2.1 0.8 -2.1 -1.4 0 -1.3 0.6 -2.7 1.3 -2.9 0.9 -0.4 0.9 -0.6 0 -0.6 -0.7 -0.1 -1 -0.8 -0.7 -1.6 0.4 -0.9 1.9 -1.5 4.1 -1.5 l3.4 0 -0.7 8.3 c-0.4 4.5 -2 12.4 -3.5 17.6 -3.1 9.9 -3.5 13.1 -1.9 13.1 0.6 0 1 2.7 1 6.1 0 5.2 -0.2 6 -1.7 5.7 -1 -0.2 -1.7 -1 -1.5 -1.7 0.1 -0.7 -0.2 -1 -0.7 -0.7 -0.5 0.3 -0.7 1.5 -0.4 2.6 0.5 1.7 0 2 -3.1 2 -3.3 0 -3.6 -0.2 -3.2 -2.3 0.6 -3.3 -0.5 -4.6 -4.2 -5.3 -2.9 -0.6 -3.2 -0.4 -3.2 1.9 0 1.9 -0.4 2.5 -1.4 2.1 -0.8 -0.3 -1.7 -0.1 -2 0.4 -0.3 0.5 0.2 0.9 1.1 0.8 2.5 -0.2 2.6 2.1 0.1 2.8 -3.5 0.9 -7.8 0.7 -7.8 -0.4z m26 -7.5 c0 -0.8 -0.4 -1.5 -1 -1.5 -0.5 0 -1 0.7 -1 1.5 0 0.8 0.5 1.5 1 1.5 0.6 0 1 -0.7 1 -1.5z m-11.7 -2.2 c-1.3 -0.2 -3.3 -0.2 -4.5 0 -1.3 0.2 -0.3 0.4 2.2 0.4 2.5 0 3.5 -0.2 2.3 -0.4z m-13.6 -1.1 c0.8 -0.5 -0.2 -0.8 -2.4 -0.9 -2.5 -0.1 -3.2 0.2 -2.2 0.8 1.7 1.1 3 1.1 4.6 0.1z m21.3 0.3 c0 -0.2 -0.9 -0.9 -2 -1.5 -1.6 -0.9 -1.8 -0.8 -1.4 0.5 0.5 1.3 3.4 2.2 3.4 1z m-39.1 -9.7 c0.1 -0.5 -0.3 -0.8 -0.7 -0.8 -0.4 0 -0.8 1.2 -0.9 2.8 -0.1 2.3 -0.1 2.4 0.7 0.7 0.5 -1.1 0.9 -2.3 0.9 -2.7z m40.2 -1.5 c-0.9 -1.6 -1 -1.5 -1.1 0.8 0 1.4 0.3 2.9 0.8 3.3 1.2 1.2 1.4 -2.2 0.3 -4.1z m-43.4 -12.8 c-1.6 -1.7 -1.7 -1.4 -1 1.4 0.4 1.5 0.8 1.9 1.3 1 0.5 -0.6 0.3 -1.8 -0.3 -2.4z"/>
  <path d="M108.2 132.5 c-0.1 -2.4 0.3 -3.5 1.2 -3.5 0.9 0 1.2 -0.7 0.9 -1.8 -0.3 -1.5 0.7 -1.9 6.4 -2.9 3.7 -0.6 7.9 -1.5 9.2 -1.9 1.9 -0.6 2.2 -0.4 1.6 0.7 -0.6 1.1 -0.5 1.2 0.6 0.2 1.8 -1.8 3.9 -1.6 3.9 0.3 0 0.8 0.7 2.3 1.6 3.2 1.5 1.5 1.5 1.6 -0.2 2.3 -1.7 0.7 -1.7 0.8 -0.1 0.8 1 0.1 1.7 0.9 1.7 1.9 0 1.5 -0.8 1.8 -4.2 1.7 -2.4 0 -6.8 0.5 -9.8 1.2 -3 0.7 -7.1 1.3 -9.1 1.3 -3.4 0 -3.6 -0.2 -3.7 -3.5z"/>
  <path d="M141 123.8 c0 -0.7 0.3 -3 0.6 -5 0.6 -3.5 0.9 -3.8 4 -3.8 3 0 3.4 0.3 3.4 2.8 0 5.7 -1 7.2 -4.6 7.2 -2.1 0 -3.4 -0.5 -3.4 -1.2z"/>
  <path d="M80 119.8 c0 -1.3 0.5 -3 1 -3.8 0.8 -1.2 1 -1.2 1 0.5 0 1.1 0.5 2.7 1.1 3.5 0.8 1.2 0.9 1.1 0.4 -0.6 -1 -3.6 0.4 -5.4 4.1 -5.4 3.2 0 3.4 0.2 3.4 3.5 0 3.3 -0.2 3.5 -2.5 2.9 -1.5 -0.4 -2.5 -0.2 -2.5 0.5 0 0.6 -1.3 1.1 -3 1.1 -2.4 0 -3 -0.4 -3 -2.2z"/>
  <path d="M128.6 115.2 c-1.2 -7.4 -0.9 -8.2 2.8 -8.2 3.1 0 3.4 0.3 4 3.8 1.2 7.3 0.9 8 -2.8 8 -3.1 0 -3.4 -0.3 -4 -3.6z"/>
  <path d="M142.4 107.3 c-0.4 -2.3 -0.9 -3.1 -1.5 -2.2 -0.5 0.9 -0.9 0.6 -1.2 -1.2 -1.2 -5.9 -0.8 -6.9 2.8 -6.9 3.4 0 4.5 1.3 4.5 5.1 0 1 0.5 1.9 1 1.9 0.6 0 1 1.5 1 3.3 0 3.1 -0.3 3.4 -3 3.5 -2.6 0.1 -3 -0.3 -3.6 -3.5z"/>
  <path d="M80.6 108.4 c-0.9 -2.4 -0.7 -5.4 0.4 -5.4 0.6 0 1 -1.3 1 -3 0 -1.6 0.5 -3 1 -3 0.6 0 1 -0.8 1 -1.9 0 -1.4 1 -2 3.8 -2.5 6.7 -1.1 7.2 -0.9 7.2 2.8 0 2.9 -0.4 3.4 -3 4 -2.5 0.5 -3 1 -3 3.6 0 1.6 -0.4 3 -1 3 -0.5 0 -1 0.9 -1 2 0 1.5 -0.7 2 -2.9 2 -1.7 0 -3.1 -0.6 -3.5 -1.6z m2.9 -0.4 c-0.3 -0.5 -0.1 -1.9 0.5 -3.1 1 -1.8 0.7 -4 -0.4 -2.8 -1.1 1.2 -1.6 6.9 -0.6 6.9 0.6 0 0.8 -0.4 0.5 -1z m3.5 -11.3 c0 -1.6 -1.8 0.3 -2.3 2.5 -0.6 2.2 -0.5 2.2 0.8 0.4 0.8 -1.1 1.5 -2.4 1.5 -2.9z"/>
  <path d="M130.3 93.3 c-3 -0.4 -3.3 -0.7 -3.3 -3.9 0 -2.5 0.4 -3.4 1.6 -3.4 1.1 0 1.4 0.4 0.8 1.3 -0.5 0.7 -0.2 0.5 0.8 -0.5 1 -1.1 1.4 -2.7 1 -4 -0.4 -1.5 -0.2 -1.9 0.7 -1.3 0.9 0.5 1.2 0 1 -1.6 -0.3 -3.2 1.1 -7.9 2.3 -7.9 0.6 0 0.8 1.2 0.4 2.8 -0.4 2.3 -0.3 2.1 1 -0.8 1.2 -2.7 1.4 -4.5 0.6 -8.2 -0.5 -2.6 -0.5 -4.8 -0.1 -4.8 0.5 0 0.9 0.5 0.9 1.1 0 0.6 0.7 0.4 1.5 -0.5 0.8 -0.8 1.5 -1.9 1.5 -2.5 0 -0.5 1 -2.6 2.1 -4.6 1.9 -3.2 2 -4.1 1 -7.4 -1.7 -5.9 -1.5 -14.1 0.5 -14.1 0.9 0 1.2 0.5 0.8 1.3 -0.6 0.9 -0.4 0.9 0.7 0 0.7 -0.7 1.9 -1.3 2.6 -1.3 0.7 0 1.3 0.6 1.3 1.3 0 0.6 0.7 2.4 1.4 3.9 1.9 3.6 3.3 23.8 1.7 23.8 -0.6 0 -1.1 0.7 -1.1 1.5 0 0.9 -0.9 1.5 -2.4 1.5 -2.2 0 -2.3 0.3 -1.8 4.5 l0.5 4.5 -4 0 -4 0 -1 5.8 c-0.7 3.4 -0.7 6.1 -0.2 6.7 0.5 0.5 0.9 2.3 0.9 4 0 2.8 -0.3 3.1 -3.2 3.1 -1.8 0.1 -4.8 -0.1 -6.5 -0.3z m19.5 -34.9 c0 -1.7 -0.4 -2.2 -1.1 -1.5 -0.5 0.5 -0.7 1.7 -0.4 2.5 0.9 2.3 1.5 1.9 1.5 -1z"/>
  <path d="M66.5 87.5 c-0.5 -0.2 -2.7 -0.6 -4.7 -1 -3.6 -0.6 -3.8 -0.8 -3.8 -4.2 l0 -3.6 4.8 0.9 c2.6 0.4 9.3 0.7 15 0.7 l10.2 -0.1 -0.1 3.6 c0 3 -0.2 3.3 -0.9 1.7 -0.7 -1.5 -0.9 -1.6 -0.9 -0.4 -0.1 1 -1.3 1.9 -3.2 2.3 -3.2 0.6 -14.6 0.7 -16.4 0.1z"/>
  <path d="M44 71.5 c0 -4.4 0.9 -4.4 3.8 0 l2.2 3.5 -3 0 c-2.8 0 -3 -0.3 -3 -3.5z"/>
  <path d="M133.3 54 c0.2 -2.8 0 -3.7 -0.7 -3 -0.5 0.5 -1.8 1 -2.8 1 -1.4 0 -1.8 -0.8 -1.8 -3.5 0 -3.4 0.2 -3.5 3.6 -3.5 l3.6 0 -0.4 4.5 c-0.2 2.5 0 4.5 0.4 4.5 0.5 0 0.8 -1 0.9 -2.2 0 -2.2 0.1 -2.2 0.9 -0.3 0.7 1.7 0.9 1.7 0.9 0.3 0.1 -1 0.8 -1.8 1.6 -1.8 1 0 1.5 1 1.5 3.4 0 3.5 -1.9 6.2 -2.1 2.9 0 -1.6 -0.1 -1.6 -0.8 0.2 l-0.8 2 -0.5 -2 c-0.5 -1.6 -0.6 -1.7 -0.7 -0.2 0 0.9 -0.8 1.7 -1.6 1.7 -1.1 0 -1.4 -1 -1.2 -4z"/>
  <path d="M141 30.5 c0 -0.9 -1.4 -1.7 -3.9 -2.1 -3.3 -0.5 -3.8 -0.9 -3.4 -2.8 0.4 -1.9 0.3 -1.8 -1.1 0.4 -1.5 2.5 -1.5 2.4 -1.6 -2.4 0 -4.8 0 -4.9 2 -3.1 1.1 1 2 1.3 2 0.7 0 -0.6 -0.6 -1.3 -1.2 -1.5 -0.7 -0.3 -0.1 -0.6 1.5 -0.6 1.8 -0.1 2.7 0.4 2.7 1.4 0 1 1.1 1.5 3.5 1.5 2.4 0 3.5 0.5 3.5 1.5 0 0.8 0.7 1.5 1.5 1.5 1 0 1.5 1 1.5 3.3 0 3.2 -0.2 3.4 -3.5 3.5 -2.5 0.1 -3.5 -0.3 -3.5 -1.3z m-1 -6.7 c0 -0.5 -1.1 -0.8 -2.5 -0.8 -1.4 0 -2.5 0.4 -2.5 0.9 0 0.5 1.1 0.8 2.5 0.7 1.4 0 2.5 -0.4 2.5 -0.8z"/>
  <path d="M118.2 27.3 c-0.6 -0.2 -0.9 -0.9 -0.6 -1.5 0.4 -0.6 -0.2 -0.6 -1.4 0.1 -2.8 1.5 -4.2 1.4 -4.2 -0.4 0 -0.8 -0.7 -1.5 -1.5 -1.5 -1 0 -1.5 -1 -1.5 -3 0 -2.7 0.3 -3 3.4 -3 1.9 0 3.7 0.6 3.9 1.3 0.3 0.6 0.6 0.2 0.6 -1 0.1 -1.4 0.7 -2.3 1.7 -2.3 0.8 0 1.2 0.5 0.9 1.1 -0.4 0.6 0.2 0.5 1.3 -0.2 2.8 -1.7 3.4 -0.9 3 3.7 -0.3 3.7 -0.3 3.8 -2.2 1.8 -1.9 -1.9 -2 -1.9 -1.4 0.4 0.3 1.2 0.2 2 -0.3 1.6 -0.5 -0.3 -0.9 0 -0.9 0.5 0 1 2.1 1.6 4.3 1.2 0.4 0 0.7 0.4 0.7 0.9 0 1 -3.5 1.2 -5.8 0.3z"/>
  <path d="M128 15.9 c0 -1.4 0.5 -1.9 1.5 -1.6 0.8 0.4 1.7 0.2 2 -0.3 0.4 -0.6 -0.4 -1 -1.7 -1 -1.8 0 -2 -0.2 -0.8 -1 0.8 -0.5 2.5 -1 3.8 -1 1.8 0 2.2 0.5 2.2 3.3 0 3.1 -0.3 3.3 -3.5 3.5 -3 0.2 -3.5 -0.1 -3.5 -1.9z"/>
 </g>
 <g fill="#7c6a59">
  <path d="M112 194.7 c0 -0.9 0.8 -1.7 1.8 -1.9 1.6 -0.3 1.6 -0.4 -0.1 -1.1 -1.4 -0.5 -2 -0.2 -2.4 1.3 -0.4 1.5 -1.4 2 -3.9 2 -1.9 0 -3.4 -0.4 -3.4 -0.9 0 -0.6 -2.4 -0.7 -5.5 -0.4 -4.7 0.5 -5.8 0.3 -7 -1.3 -1.3 -1.8 -1.4 -1.8 -2 -0.1 -0.5 1.2 -1.8 1.7 -4.9 1.7 -5.5 0 -6.3 -0.7 -7.1 -6.1 -1.4 -9.1 3.1 -16.9 9.6 -16.9 3.6 0 3.7 -1.2 0.9 -16.4 -2.2 -12.1 -2.5 -16.6 -1 -16.6 0.5 0 1.4 0.8 1.9 1.8 1 1.6 1 1.6 1.1 0 0 -1 0.6 -1.8 1.3 -1.8 0.9 0 1.8 3.8 3.1 12.3 1 6.7 2 13.5 2.3 15.1 0.5 2.1 0.3 2.7 -0.6 2.2 -1.6 -1 -4.1 1.2 -4.1 3.5 0 1 -0.9 1.9 -2.2 2.2 -1.3 0.2 -0.3 0.4 2.2 0.4 2.5 0.1 3.7 -0.1 2.8 -0.4 -1.9 -0.5 -2.3 -2 -0.9 -4.1 0.7 -1.1 1.1 -1.1 2.3 0.2 0.8 0.8 4.3 1.8 7.7 2.2 3.4 0.4 6.1 1.1 6.1 1.8 0 1.5 3.8 3.8 5 3.1 0.6 -0.4 1 0.2 1 1.2 0 1 -1.6 2.8 -3.6 4.1 -4.2 2.7 -3.6 4.2 1.7 4.2 2.7 0 3.9 0.4 3.9 1.4 0 0.8 -0.6 1.7 -1.2 1.9 -0.7 0.3 0.7 0.6 3.2 0.6 3 0 4 -0.2 3.1 -0.8 -0.8 -0.5 -1.1 -1.6 -0.8 -2.4 0.3 -0.9 -0.3 -2.7 -1.4 -4 -2.5 -3.2 -2.6 -6.9 -0.1 -6 1.4 0.5 1.3 0.3 -0.3 -1 -1.9 -1.6 -1.9 -1.6 1.7 -1.7 4.2 0 6.4 2.3 7.4 7.7 0.3 1.8 1 3 1.5 2.7 1.2 -0.7 1.1 -5.4 -0.1 -5.4 -1.8 0 -1.1 -3 0.8 -3.1 1.4 0 1.4 -0.2 0.2 -0.7 -2.5 -1.1 -2.1 -2.9 0.6 -2.9 2 0 2.5 0.4 2.1 1.8 -0.3 1.1 0 2.2 0.6 2.6 0.7 0.3 0.9 0.3 0.5 -0.2 -0.9 -0.9 0.9 -4.5 2.2 -4.5 0.6 0 1 2 1 4.5 0 2.5 -0.4 4.5 -1 4.5 -0.5 0 -1 -0.4 -1 -1 0 -0.5 -0.4 -1 -1 -1 -0.5 0 -1 1.4 -1 3 0 1.7 0.5 3 1 3 0.6 0 1 -0.4 1 -1 0 -0.5 0.5 -1 1 -1 0.6 0 1 2 1 4.5 0 6.6 -2.5 7.9 -16.2 8.4 -9.2 0.3 -10.8 0.1 -10.8 -1.2z m-17 -10.3 c0 -1.1 -3.4 -6.4 -4.2 -6.4 -1.6 0 -6.1 4.8 -5.4 5.8 0.7 1.2 9.6 1.7 9.6 0.6z m0 -19.9 c0 -0.8 -0.5 -1.5 -1.1 -1.5 -0.7 0 -0.9 -0.9 -0.6 -2.2 0.3 -1.3 -0.1 -3.1 -1 -4.3 l-1.6 -2 0.8 2 c0.4 1.1 0.8 3.1 1 4.5 0.4 4.6 0.5 5 1.5 5 0.6 0 1 -0.7 1 -1.5z m-3.5 -13.5 c-0.4 -1.2 -0.9 -1.9 -1.2 -1.7 -0.3 0.3 -0.2 1.5 0.2 2.7 0.4 1.2 0.9 1.9 1.2 1.7 0.3 -0.3 0.2 -1.5 -0.2 -2.7z m-0.7 -6.7 c-1.4 -1.8 -1.9 -1.2 -1.1 1.6 0.4 1.6 0.8 1.9 1.4 1 0.4 -0.7 0.3 -1.9 -0.3 -2.6z"/>
  <path d="M112 174 c-0.8 -0.5 -1.2 -1.1 -0.9 -1.4 0.7 -0.8 4.9 0.5 4.9 1.5 0 1.2 -2.1 1.1 -4 -0.1z"/>
  <path d="M134.9 159.3 c-0.1 -1 0 -2.5 0.1 -3.3 0.3 -2.2 -1.7 0 -2.3 2.5 -0.3 1.3 -0.5 0.9 -0.6 -1.2 -0.1 -3 0.2 -3.3 2.9 -3.3 2.8 0 3 0.3 3 3.5 0 2.4 -0.5 3.5 -1.5 3.5 -0.8 0 -1.6 -0.8 -1.6 -1.7z"/>
  <path d="M136.4 140.9 c0.3 -1.7 0.6 -3.8 0.6 -4.6 0 -0.9 0.6 -1.3 1.5 -1 0.8 0.4 1.7 0.2 2.1 -0.4 1.2 -1.9 -0.5 -2.2 -3.2 -0.5 -2.9 2 -7.4 1.4 -7.4 -0.9 0 -1.9 -0.7 -1.9 -6.1 0 -5.1 1.8 -22.4 2.7 -28.8 1.5 -2.4 -0.4 -4.7 -1.4 -5.2 -2.1 -0.5 -0.8 -0.9 -0.9 -0.9 -0.4 0 0.6 -1.3 1.1 -3 1.2 -2.8 0.2 -3.1 -0.1 -4.6 -5.3 -0.9 -3.1 -1.4 -6.9 -1.2 -8.5 0.3 -1.6 0.1 -2.9 -0.4 -2.9 -0.4 0 -0.8 -2.5 -0.8 -5.5 0 -3 0.5 -5.5 1 -5.5 0.6 0 1 -1.6 1 -3.6 0 -2 0.6 -4.2 1.4 -4.8 0.8 -0.6 1.6 -3.2 1.9 -5.8 0.4 -4.7 0.4 -4.8 -2.4 -4.8 -1.5 0 -3.1 -0.4 -3.4 -1 -0.3 -0.5 0.1 -1 1 -1 0.9 0 1.3 -0.5 1 -1 -0.4 -0.6 -1.1 -0.8 -1.6 -0.5 -0.5 0.4 -0.9 -0.2 -0.9 -1.3 0 -2 3.8 -3.2 10.3 -3.2 2.7 0 2.7 0.1 2.7 6.4 l0 6.3 5.3 0.7 c2.8 0.3 6.6 0.6 8.3 0.6 4.9 0 20.6 -4.9 23.1 -7.1 2.1 -2.1 4.2 -8.4 4.4 -13.6 l0.1 -2.8 0.8 3 c0.5 2 0.8 0.1 0.8 -6 0 -4.9 -0.2 -8.2 -0.5 -7.3 -0.5 2.1 -3.3 1.3 -3.3 -1 0 -1.3 -0.3 -1.2 -2 0.3 -2.9 2.6 -3.4 5.4 -1.4 7.6 0.9 1 2.3 1.9 3.1 1.9 0.8 0 1.3 1.2 1.3 3.5 0 3.4 -0.1 3.5 -4 3.5 -2.2 0 -4 0.5 -4 1.1 0 1.6 -5.1 6.8 -8.2 8.5 -1.5 0.8 -4.3 1.4 -6.3 1.4 -3.3 0 -3.5 -0.2 -3.5 -3.4 0 -2.8 0.5 -3.6 2.9 -4.6 1.6 -0.6 4.2 -2.4 5.8 -4 2.6 -2.6 2.7 -3.2 2.4 -10.5 -0.3 -6.9 0 -8 2.4 -11.7 2.9 -4.3 2.7 -6.4 -0.4 -3 -3.4 4 -11 1.8 -9.8 -2.8 0.3 -1.3 0.1 -1.7 -0.9 -1.3 -0.9 0.3 -1.4 -0.2 -1.4 -1.6 0 -1.2 -0.4 -2.1 -1 -2.1 -0.5 0 -1 1.9 -1 4.1 l0 4.2 -4.2 -0.7 c-2.4 -0.3 -6.1 -0.9 -8.3 -1.2 -4.5 -0.7 -5.5 -1.7 -5.5 -5.5 l0 -2.7 -7.9 2 -7.9 2 0.5 5.4 c0.5 4.2 0.3 5.4 -0.8 5.4 -1.9 0 -5.9 -12.6 -4.5 -14 0.7 -0.7 0.6 -1 -0.1 -1 -0.7 0 -1.4 0.4 -1.8 1 -0.3 0.5 -1.2 0.7 -2 0.3 -0.8 -0.3 -1.5 -0.1 -1.5 0.3 0 0.5 -1.4 1 -3.2 1 -1.8 0.1 -3.4 0.6 -3.6 1.2 -0.2 0.6 -1 0.8 -1.8 0.5 -0.8 -0.3 -1.4 0 -1.4 0.6 0 0.6 -0.7 0.8 -1.5 0.5 -0.8 -0.4 -1.5 -0.1 -1.5 0.6 0 0.6 -0.3 0.9 -0.7 0.7 -0.7 -0.5 -2.7 1.1 -3 2.3 -0.6 2.2 -1.7 4 -2.4 4 -1 0 -1.2 -5 -0.3 -7.4 0.7 -1.9 9.8 -5 13 -4.3 1.5 0.2 2.4 0 2.4 -0.8 0 -1.3 18.8 -6.5 23.5 -6.5 1.4 0 2.5 -0.4 2.5 -0.8 0 -0.5 2.6 -1.5 5.7 -2.2 3.1 -0.7 7.9 -2.8 10.6 -4.6 2.7 -1.9 6 -3.4 7.3 -3.4 1.9 0 2.4 -0.5 2.4 -2.7 0 -6.2 0.8 -7.1 6.6 -7.9 3.7 -0.4 5.9 -0.2 6.9 0.6 1.2 1 1.5 1 1.5 0 0 -0.9 1.4 -1 5.3 -0.5 8.2 1 8.6 1.3 9.3 5.6 0.6 3.4 1 3.9 3.4 3.9 4.1 0 6.6 2.9 8.4 9.5 2.6 9.9 2.8 10.5 3.7 10.5 0.5 0 0.9 1.6 0.9 3.5 0 2.1 -0.5 3.5 -1.2 3.5 -1 0 -0.9 0.3 0.1 0.9 1 0.6 1.2 2.3 0.6 6.8 -0.8 7 -1.1 7.5 -4.9 8.8 -3.2 1.1 -4.7 3.5 -2.2 3.5 1.2 0 1.6 1 1.6 3.5 0 3.3 -0.2 3.5 -3.5 3.5 -3 0 -3.5 -0.4 -3.5 -2.2 -0.1 -4 -1.7 0.2 -2.3 6 -0.6 5.2 0.1 7.8 3.1 11 0.6 0.7 1.2 2 1.2 2.8 0 0.8 0.4 1.4 0.9 1.4 0.5 0 1.8 2.2 3 4.9 3.1 7.2 2.9 18.6 -0.4 26.6 -1.4 3.3 -2.5 7.1 -2.5 8.5 0 6 -1.3 10 -3 10 -1 0 -2.1 -0.6 -2.3 -1.2 -0.4 -1 -0.6 -1 -0.6 0 -0.1 0.6 -0.6 1.2 -1.2 1.2 -0.8 0 -0.9 -1.1 -0.5 -3.1z m-29.1 -7.6 c-1.3 -0.2 -3.3 -0.2 -4.5 0 -1.3 0.2 -0.3 0.4 2.2 0.4 2.5 0 3.5 -0.2 2.3 -0.4z m15.5 -2.4 c0.3 -1.1 0.1 -1.1 -0.6 -0.1 -0.5 0.7 -1.7 1 -2.8 0.6 -1.6 -0.5 -1.6 -0.4 -0.4 0.5 1.8 1.3 3.2 1 3.8 -1z m-18.2 -1.1 c0.4 -0.7 0.3 -0.8 -0.4 -0.4 -0.7 0.4 -1.2 0.2 -1.2 -0.3 0 -0.6 -0.4 -1.1 -1 -1.1 -0.5 0 -0.7 0.7 -0.4 1.5 0.7 1.8 2 1.9 3 0.3z m33.6 -6.3 c1.2 -2.4 2.6 -4.1 3.1 -3.8 0.5 0.3 0.6 -0.3 0.3 -1.5 -0.4 -1.1 -0.2 -2.3 0.4 -2.7 0.5 -0.3 1 -2.2 1 -4.1 0 -2.4 -0.4 -3.3 -1.1 -2.8 -0.9 0.5 -1 -0.1 -0.5 -2 0.4 -1.8 0.3 -2.5 -0.4 -2.1 -0.5 0.3 -1 0.2 -1 -0.3 0 -0.5 -0.9 -1.9 -2 -3.2 -1.1 -1.3 -2 -2.9 -2 -3.7 0 -0.7 -0.4 -1.3 -1 -1.3 -0.5 0 -1 -0.7 -1 -1.5 0 -0.8 -0.7 -1.5 -1.5 -1.5 -0.8 0 -1.5 0.4 -1.5 0.9 0 0.5 -3.3 1.9 -7.2 3.2 -6.2 2 -9.3 2.4 -20.5 2.4 -9.5 0 -13.3 0.3 -13.3 1.2 0 0.6 -0.4 1.3 -0.9 1.5 -0.5 0.2 -1.2 2.7 -1.6 5.5 l-0.7 5.2 4.1 0.7 c3.8 0.6 4.1 0.9 4.1 3.9 0 2.8 -0.4 3.3 -2.7 3.8 -1.6 0.3 -2.9 0.1 -3.1 -0.4 -0.5 -1.2 -3.2 -1.2 -3.2 0 0 0.5 0.7 1.5 1.7 2.2 2.2 1.9 35.4 2 36.1 0.2 0.2 -0.7 0.9 -1.3 1.6 -1.3 0.7 0 1.8 -1.1 2.4 -2.5 1.5 -3.2 1.5 -5.7 0.1 -3.2 -0.5 0.9 -1.9 1.7 -2.9 1.7 -1.1 0 -2 0.5 -2 1 0 0.6 -2.8 1 -6.5 1 l-6.5 0 0 -3.5 0 -3.5 4.8 0 c4.2 0 4.9 -0.4 7 -3.3 1.2 -1.8 2.2 -4.5 2.2 -6 0 -2.5 0.2 -2.7 4.9 -2.6 l4.8 0.2 1.3 6.7 c1.2 6.2 0.9 14.5 -0.6 18.5 -0.4 0.8 -0.1 1.5 0.5 1.5 0.6 0 2.1 -2 3.3 -4.5z m-54.5 -5.5 c-0.4 -3.5 -1.7 -5.3 -1.7 -2.2 0 2.1 0.9 5.2 1.6 5.2 0.2 0 0.2 -1.4 0.1 -3z m-0.1 -9.8 c-0.3 -0.5 0.1 -2 0.9 -3.5 1.2 -2.3 1.2 -2.7 -0.1 -2.7 -0.8 0 -1.4 0.6 -1.4 1.3 0 0.6 -0.3 2.2 -0.6 3.5 -0.4 1.3 -0.2 2.2 0.5 2.2 0.7 0 1 -0.4 0.7 -0.8z m3.1 -9.8 c0.8 -1.7 0.8 -2.4 0.1 -2.2 -1.3 0.5 -3.1 4.8 -2 4.8 0.4 0 1.2 -1.2 1.9 -2.6z m0.4 -10.6 c-0.4 -3.5 -0.6 -3.8 -0.9 -1.5 -0.3 2.6 0.3 5.7 1 5.7 0.2 0 0.1 -1.9 -0.1 -4.2z m50.1 -14.3 c0.3 -1.4 0.1 -2.5 -0.3 -2.5 -0.5 0 -0.9 0.6 -0.9 1.4 0 0.8 -0.3 2.2 -0.7 3.2 -0.4 1.1 -0.3 1.5 0.4 1.1 0.6 -0.4 1.3 -1.8 1.5 -3.2z m6.8 -7.2 c-0.4 -4.7 -0.5 -4.7 -0.8 -1 -0.2 2.6 -0.7 3.5 -1.5 3 -0.7 -0.4 -0.6 0 0.2 1 2.2 2.7 2.6 2 2.1 -3z m-6.8 -1.3 c-0.2 -1.6 -0.6 -3 -0.8 -3 -0.2 0 -0.4 1.4 -0.4 3 0 1.7 0.4 3 0.8 3 0.5 0 0.7 -1.3 0.4 -3z m13.8 -9.4 l0 -3.1 -1.4 2.7 c-0.8 1.6 -1.4 3.7 -1.3 4.9 0.1 1.9 0.2 1.9 1.4 0.3 0.7 -1 1.3 -3.2 1.3 -4.8z m-13.5 -4 c0.4 -6 0.3 -6.5 -1.1 -5.2 -0.8 0.9 -1.3 2 -1 2.4 0.3 0.5 -0.1 2 -0.9 3.5 -1.1 2.2 -1.1 2.5 0.1 2 1 -0.4 1.4 0.3 1.4 2.3 0 5.2 1.1 1.7 1.5 -5z m-21.9 -7.6 c0.1 -0.6 0.2 -1.4 0.3 -2 0.1 -1.3 2.8 -1.3 3.4 0 0.3 0.6 0.4 0.5 0.3 -0.2 -0.1 -0.7 -1.9 -1.6 -3.9 -1.9 -2 -0.3 -3.4 -0.2 -3.1 0.3 0.3 0.4 0 0.8 -0.5 0.8 -2 0 -1.1 1.8 1.1 2.3 1.9 0.5 2 0.8 0.8 2.4 -1.2 1.6 -1.2 1.6 0 0.5 0.8 -0.7 1.6 -1.7 1.6 -2.2z m-16.8 1.3 c-2.7 -0.7 -2.1 -2.2 0.7 -1.8 1.4 0.1 2.5 -0.1 2.5 -0.6 0 -1.3 -4.1 -2.2 -5.2 -1.1 -1.5 1.5 -0.2 4.2 1.9 4.1 1.7 -0.1 1.7 -0.2 0.1 -0.6z m51 -1.5 c-0.2 -0.5 -0.8 -0.9 -1.3 -0.9 -0.5 0 -1.1 0.4 -1.3 0.9 -0.1 0.5 0.4 0.9 1.3 0.9 0.9 0 1.4 -0.4 1.3 -0.9z m-10.8 -2.5 c0 -1.6 -0.9 -4.1 -2 -5.8 -1.1 -1.6 -2 -2.3 -2 -1.5 0 0.9 -0.6 0.7 -1.6 -0.8 -1.3 -1.9 -1.4 -2.8 -0.4 -5.3 1 -2.3 1.9 -2.9 4.1 -2.9 1.6 0 2.9 -0.4 2.9 -1 0 -0.5 -1.1 -1 -2.5 -1 -1.6 0 -2.5 -0.6 -2.5 -1.5 0 -0.8 -0.4 -1.5 -1 -1.5 -0.5 0 -0.7 -0.8 -0.3 -1.7 0.5 -1.4 0.3 -1.5 -0.6 -0.7 -1 0.9 -0.9 1.7 0.4 3.8 1 1.4 1.3 2.6 0.7 2.6 -0.5 0 -1.5 1.3 -2.2 3 -0.7 1.8 -1.7 2.7 -2.4 2.3 -0.6 -0.4 0.1 0.8 1.7 2.6 1.9 2.3 2.7 4.4 2.7 7.2 0 5 1.8 5.1 2.3 0.2 l0.4 -3.8 0.1 4.3 c0.2 4.6 2.2 5.9 2.2 1.5z m-54.3 -6.6 c0.4 -0.7 0 -0.8 -1.1 -0.4 -1 0.4 -2.4 0.7 -3.2 0.7 -0.8 0 -1.4 0.4 -1.4 0.9 0 1.1 4.9 0.1 5.7 -1.2z m31.8 1.2 c0.4 -0.5 -0.7 -0.9 -2.4 -0.9 -3.9 0 -4.9 1.7 -1.1 1.8 1.6 0 3.2 -0.4 3.5 -0.9z m-6.6 -6.5 c0.5 0.3 2 0.2 3.3 -0.3 2.2 -0.9 2.2 -1 -0.7 -0.9 -4.3 0.1 -6.5 0.8 -6.5 2 0 0.7 0.5 0.6 1.5 -0.2 0.8 -0.6 1.8 -0.9 2.4 -0.6z m-1.4 -3.3 c3 1.1 3.5 1.1 3.5 -0.6 0 -2 -5 -2 -7.6 0.1 -1.9 1.5 -1.9 1.5 0.1 0.6 1.1 -0.5 2.9 -0.6 4 -0.1z m14.3 -2.5 c-1 -0.7 -1.8 -2.1 -1.8 -3.1 0 -2.6 -0.6 -1.6 -1.3 2.2 -0.5 2.5 -0.3 3.3 1.1 3.6 2.7 0.6 4 -1.2 2 -2.7z m7.2 -4.1 c0 -1.7 -0.2 -1.8 -1.5 -0.4 -0.9 0.9 -1.3 2.3 -0.9 3.3 0.5 1.4 0.9 1.5 1.5 0.4 0.5 -0.7 0.9 -2.2 0.9 -3.3z m-14.8 -3.9 c0.3 0.3 0.9 0.1 1.3 -0.5 0.9 -1.6 -2.4 -1.3 -4.1 0.3 -2.1 2.1 -1.7 3.2 0.4 1.3 1 -1 2.1 -1.4 2.4 -1.1z m12.6 -1.4 c0.7 -0.1 2.2 0.2 3.2 0.8 1.6 0.8 1.8 0.8 1.4 -0.5 -1 -2.4 -6.1 -1.9 -7.4 0.8 -0.9 1.8 -0.9 2 0.2 0.7 0.7 -0.8 1.9 -1.6 2.6 -1.8z"/>
  <path d="M61.5 86 c-2.7 -1 -5.8 -1.9 -6.7 -1.9 -1.3 -0.1 -1.8 -0.9 -1.8 -3.2 0 -2.9 0.1 -2.9 2.1 -1.5 2 1.3 2.4 1.2 5.5 -1.6 1.8 -1.7 4.1 -5.1 5 -7.7 1 -2.5 2.1 -5.1 2.6 -5.7 0.4 -0.6 0.5 -1.4 0.1 -1.7 -0.3 -0.4 0.1 -0.7 1 -0.7 1.2 0 1.7 0.9 1.7 2.9 0 3.6 -2.7 11.3 -4.3 12.3 -1.4 1 0.8 2.8 3.5 2.8 2.6 0 3.2 2 1.2 3.5 -1.8 1.3 -1.8 1.4 -0.1 1.5 0.9 0 1.7 0.7 1.7 1.5 0 2 -5 1.8 -11.5 -0.5z"/>
  <path d="M42 69.5 c0 -1.4 -0.4 -2.5 -1 -2.5 -0.5 0 -1 -1.8 -1 -4 0 -5.6 2.2 -5.2 4.1 0.8 0.9 2.6 1.9 5.5 2.3 6.5 0.7 1.4 0.3 1.7 -1.8 1.7 -2.1 0 -2.6 -0.5 -2.6 -2.5z"/>
 </g>
 <g fill="#888f77">
  <path d="M0 100 l0 -100 100 0 100 0 0 100 0 100 -100 0 -100 0 0 -100z m130 92.1 c1.3 -0.4 -2.2 -0.6 -7.9 -0.4 -5.7 0.1 -10.6 0.5 -10.9 0.8 -0.8 0.7 15.9 0.4 18.8 -0.4z m-23.2 -1.2 c-1 -0.5 -1.8 -1.5 -1.8 -2 0 -0.6 0.6 -0.7 1.3 -0.3 1 0.6 1 0.4 0 -0.7 -2 -2.1 -1.5 -2.9 1.7 -2.9 2.6 0 3 0.4 3 2.6 l0 2.7 11.5 -0.5 c8.3 -0.4 11.3 -0.2 10.8 0.6 -0.3 0.6 0.2 0.3 1.3 -0.6 1.5 -1.5 1.8 -3.4 2 -10.5 0 -5.9 -0.4 -9.5 -1.3 -11 -0.9 -1.6 -1.1 -3.9 -0.7 -7.9 0.6 -4.4 0.4 -5.5 -0.5 -5 -0.7 0.5 -1.2 2 -1.1 3.4 0.1 1.5 0.2 4.2 0.1 6 -0.1 2.9 -0.3 3.2 -2.1 2.2 -1.6 -0.9 -1.8 -0.8 -1.3 0.6 0.4 1.1 1.3 1.4 2.9 1 2.2 -0.6 2.4 -0.3 2.4 2.9 0 3.1 -0.3 3.5 -2.7 3.6 l-2.8 0.2 2.8 0.4 c2.1 0.3 2.7 1 2.7 2.9 0 1.3 -0.4 2.4 -1 2.4 -0.5 0 -1 -0.4 -1 -1 0 -0.5 -1.8 -1 -4.1 -1 -2.6 0 -5 -0.7 -6.6 -2 -1.4 -1.1 -3.2 -2 -3.9 -2 -0.8 0 -1.4 -0.7 -1.4 -1.5 0 -0.8 -0.4 -1.5 -1 -1.5 -0.5 0 -1 0.5 -1 1 0 1.7 -3.8 1.1 -4.3 -0.7 -0.4 -1.4 -0.5 -1.3 -0.6 0.4 -0.1 1.6 -0.9 2.3 -2.8 2.6 -1.6 0.2 -1.1 0.3 0.9 0.2 2.2 -0.2 3.9 0.2 4.1 0.9 0.4 0.9 -1.7 1.3 -7.4 1.5 -6.3 0.1 -7.9 -0.1 -7.9 -1.2 0 -1.2 -0.7 -1.3 -3.3 -0.8 -5 1.2 -7.5 2.9 -9.2 6.1 -1.5 3 -1.5 3 1.4 3 1.6 0 3.1 0.6 3.4 1.4 0.4 1 0.1 1.3 -0.7 1 -0.8 -0.3 -1.7 -0.1 -2.1 0.5 -0.4 0.7 1 1.1 4.2 1 3.6 0 4.3 -0.3 2.8 -0.9 -1.1 -0.5 -1.4 -0.9 -0.7 -0.9 0.6 -0.1 1.2 -0.8 1.2 -1.6 0 -0.8 0.9 -1.5 2 -1.5 1.3 0 2 0.7 2 2 0 2.1 1.5 2.7 2.5 1 0.3 -0.5 1.2 -0.7 2.1 -0.3 0.8 0.3 1.2 0.8 0.9 1.1 -0.7 0.7 2.5 4.2 3.9 4.2 0.6 0 0.3 -0.5 -0.6 -1.1z m-24.5 -3.6 c-4.8 -1.9 4.2 -14.8 9 -13 0.7 0.2 2.1 0.1 3.2 -0.4 1.7 -0.6 1.7 -0.8 0.3 -0.8 -1.9 -0.1 -2.2 -0.9 -1.2 -3.5 0.3 -0.8 1.3 -1.3 2.2 -1 1.5 0.5 1.5 0.4 0.2 -0.8 -0.9 -0.7 -1.4 -2.1 -1.2 -3 0.2 -1 -0.2 -1.8 -0.8 -1.8 -0.8 0 -1 -0.8 -0.7 -2.2 0.4 -1.2 0.2 -2.7 -0.3 -3.4 -0.6 -0.6 -1.2 -3.7 -1.4 -6.8 -0.2 -3.2 -0.7 -6 -1 -6.3 -0.3 -0.4 -0.6 -1.9 -0.6 -3.4 0 -1.5 -0.5 -3.1 -1 -3.4 -0.7 -0.4 -0.9 0.2 -0.6 1.7 0.3 1.2 1.5 7.8 2.6 14.6 2.1 12.8 1.9 19.2 -0.7 19.2 -2.7 0 -7.3 3.1 -8.8 6 -2.1 4.1 -2 9 0.3 8.9 1 0 1.2 -0.3 0.5 -0.6z m42.2 -16.3 c-0.3 -0.5 0.1 -1 0.9 -1 0.9 0 1.6 -0.4 1.6 -1 0 -0.5 -0.7 -1 -1.5 -1 -2.7 0 -1.6 -2.9 1.3 -3.2 2.3 -0.3 2.8 -0.8 3 -3.7 0.3 -2.6 0.6 -3.1 1.3 -2 0.6 0.9 0.7 0 0.3 -2.8 -0.4 -2.9 0 -6 1.6 -10.7 2.5 -7.7 2.2 -9.6 -1.7 -9.6 -1.5 0 -3.4 -0.4 -4 -0.8 -0.7 -0.4 -2.9 -0.6 -4.8 -0.4 -3.1 0.4 -3.5 0.7 -3.5 3.3 0 1.6 -0.9 3.8 -2 4.9 -1.5 1.5 -2 3.4 -2.1 8.3 -0.1 3.4 -0.4 7.3 -0.8 8.7 -0.7 2.4 -0.8 2.4 -1.5 -1 -0.4 -1.9 -0.9 -5.9 -1.1 -8.9 -0.6 -7.7 -1.5 -7.6 -1.5 0.2 0 3.6 0.4 6.8 0.9 7.1 0.5 0.3 0.7 2.5 0.4 4.9 -0.5 3.9 -0.4 4.1 1 2.2 1.3 -1.7 1.9 -1.8 3.6 -0.7 1.2 0.6 3 1.2 4.1 1.2 1.2 0 2 0.7 2 1.6 0 1.2 -0.6 1.5 -2.6 1 -2.4 -0.6 -2.5 -0.5 -1.1 0.9 0.9 0.8 2.1 1.5 2.7 1.5 0.6 0 0.8 0.5 0.5 1 -0.3 0.6 0.3 1 1.5 1 1.2 0 1.8 -0.4 1.5 -1z m-19 -2 c-0.3 -0.5 -1.2 -1 -2 -1 -0.8 0 -1.7 0.5 -2 1 -0.4 0.6 0.5 1 2 1 1.5 0 2.4 -0.4 2 -1z m6.1 0.1 c-0.4 -0.5 0 -1.1 0.6 -1.4 0.7 -0.2 -0.5 -0.4 -2.7 -0.4 l-4 0 3 1.3 c3.7 1.6 3.8 1.6 3.1 0.5z m-5 -4.9 c0.7 -0.4 1.5 -4.4 1.9 -9 0.7 -8 0.6 -8.3 -1.9 -10.9 -1.7 -1.7 -2.6 -3.7 -2.6 -5.7 0 -3.1 0 -3.1 -5.6 -3.1 -5.4 0 -5.5 0.1 -5.1 2.5 0.3 1.4 1.3 8 2.3 14.8 l1.9 12.2 4 0 c2.2 0 4.5 -0.4 5.1 -0.8z m32.5 -28.7 c1.3 0.4 1.9 0.2 1.9 -0.9 0 -1.9 -0.5 -2 -3.1 -0.6 -1.2 0.7 -1.8 2 -1.8 3.8 l0.2 2.7 0.4 -2.8 c0.4 -2.2 0.8 -2.7 2.4 -2.2z m-49.5 -3.2 c-0.3 -0.4 -0.6 -0.1 -0.6 0.5 0 0.7 -0.7 0.9 -1.7 0.5 -1.5 -0.6 -1.6 -0.5 -0.3 0.9 1.3 1.4 1.6 1.4 2.3 0.1 0.5 -0.8 0.6 -1.7 0.3 -2z m22.7 1.3 c2.2 -1.7 2.2 -2.7 0.1 -1.9 -1.2 0.4 -1.5 0.2 -1.2 -0.8 0.3 -0.8 2.8 -1.8 5.9 -2.3 3 -0.5 5.6 -1.3 5.9 -1.7 0.3 -0.4 1.2 -0.7 2 -0.7 3.7 0.2 5 -0.4 6.4 -2.9 l1.5 -2.8 0.1 3.8 c0 3.5 0.2 3.7 2.9 3.5 2.1 -0.1 2.7 -0.6 2.3 -1.7 -0.4 -1 -0.1 -1.2 0.8 -0.6 0.9 0.5 1.1 0.4 0.6 -0.4 -0.4 -0.6 0 -2.4 1 -3.9 2.2 -3.2 2.7 -16.3 0.7 -16.9 -0.7 -0.3 -0.9 -1.1 -0.6 -2 0.5 -1.2 0.3 -1.4 -0.7 -0.8 -1 0.6 -1.2 0.4 -0.7 -0.9 0.4 -1 0.3 -1.5 -0.3 -1.1 -1.2 0.7 -3.3 -3.2 -2.4 -4.7 0.4 -0.7 0.3 -0.8 -0.5 -0.4 -0.6 0.4 -1.4 0 -1.7 -0.8 -0.3 -0.9 -1.7 -1.6 -3 -1.6 -3 0 -3.1 -1.1 -0.3 -2.8 1.6 -1 2.4 -1.1 3.5 -0.1 2.7 2.2 9.5 14.6 10.1 18.3 0.3 2 0.9 3.6 1.4 3.6 2.2 0 -4 -14 -9.6 -21.6 -2.3 -3 -2.3 -3 -0.6 -10.5 0.9 -4.1 1.6 -9.5 1.5 -12.1 l-0.1 -4.7 2.8 4.4 c3.8 6 4.7 6.3 4.2 1 -0.4 -3.4 0 -5.3 1.6 -8.1 1.2 -2 2 -3.8 1.7 -4.1 -0.2 -0.2 -1.4 1.4 -2.7 3.6 -2.9 5.3 -3.4 4.7 -1 -1.5 1.1 -2.7 2.4 -6.8 3.1 -9.1 0.7 -3 1.5 -4.1 2.5 -3.7 1.1 0.4 0.9 -0.4 -0.5 -3.5 -1.1 -2.2 -2.2 -4.8 -2.3 -5.8 -1.7 -8.5 -2 -9.4 -4.8 -10.8 -1.5 -0.8 -3.7 -1.5 -4.9 -1.5 -1.2 0 -2 -0.7 -2 -1.6 0 -0.9 -0.7 -3.1 -1.6 -5 -1.3 -2.7 -2.2 -3.4 -4.5 -3.4 -3.3 0 -4.2 1.1 -4.9 6.7 -0.6 4.8 -2.6 4.7 -3.1 -0.2 -0.5 -3.8 -2.1 -5.5 -5.2 -5.5 -4.4 0 -5.5 2.8 -3.2 8.3 0.6 1.4 0.2 1.7 -2.7 1.7 -2.4 0 -4.9 1.1 -7.9 3.2 -3.6 2.7 -8.6 4.4 -27.4 9.4 -12.7 3.4 -24.7 6.9 -26.8 7.7 -4.6 2 -6.1 5.4 -5.3 12.7 0.7 7.8 2.9 12.4 8.7 18.5 4.1 4.4 6.2 5.7 12 7.5 5.9 1.9 8.3 2.2 15 1.7 l7.9 -0.6 0 3.2 c0 1.8 0.5 3.9 1 4.7 0.8 1.2 1 0.9 1 -1.2 0 -1.6 0.4 -2.8 0.9 -2.8 2.3 0 2.5 8.7 0.2 11.4 -0.8 0.9 -1.6 3.9 -1.9 6.5 -0.6 6.4 0.8 8 6.5 7.3 l4.3 -0.5 0 3.6 c0 3.8 -1.2 4.7 -6 4.7 -3.4 0 -4.9 -2.7 -1.7 -3.2 1.8 -0.3 1.7 -0.5 -0.8 -0.9 -2.7 -0.4 -3 -0.2 -3 2.3 0 1.5 0.6 3.3 1.3 3.9 0.9 1 1.2 1 1.2 0.1 0 -0.7 0.7 -1.2 1.5 -1.2 0.8 0 1.5 0.7 1.5 1.5 0 2.8 3.3 5.5 6.7 5.5 1.8 0 3.3 0.5 3.3 1 0 0.6 0.5 1 1.1 1 0.5 0 0.8 -0.4 0.5 -0.8 -0.2 -0.4 0.9 -0.9 2.5 -1 2 -0.2 2.9 0.2 2.9 1.3 0 1.5 -1.5 1.9 -5.7 1.5 -1.3 -0.1 -2.3 0.3 -2.3 0.9 0 0.5 1.9 1.2 4.3 1.4 2.3 0.2 4.4 0.4 4.7 0.5 0.3 0.1 1.3 -0.5 2.3 -1.2z m10.5 -2.4 c0.2 -0.7 -0.1 -1.2 -0.8 -1.2 -0.6 0 -0.8 0.4 -0.5 1 0.4 0.6 -0.7 0.8 -2.7 0.5 -2.9 -0.4 -3 -0.4 -0.8 0.4 3 1.1 4.2 0.9 4.8 -0.7z m5.1 -3 c1.3 -1 1.1 -1 -1.1 -0.1 -1.8 0.8 -2.4 1.6 -2 2.7 0.5 1.3 0.6 1.4 1 0.1 0.3 -0.7 1.2 -2 2.1 -2.7z m18 -11.7 c0 -1.1 -0.6 -0.2 -1.3 2 -0.7 2.2 -2.2 5.9 -3.4 8.2 -1.2 2.3 -2.2 4.6 -2.1 5 0.1 1.7 6.9 -13.3 6.8 -15.2z m-60.1 10.2 c-0.6 -2 -1.5 -3.7 -1.9 -3.7 -0.4 0 0 1.8 0.8 4 2 4.9 2.6 4.7 1.1 -0.3z m3.7 2.3 c-0.3 -0.5 0.2 -1 1.2 -1.1 1.6 0 1.6 -0.1 -0.2 -0.8 -1.1 -0.5 -2.2 -0.7 -2.4 -0.5 -0.5 0.4 0.7 3.4 1.4 3.4 0.4 0 0.3 -0.4 0 -1z m-5.9 -14.2 c-0.2 -4.8 0.1 -8.2 1.1 -10 0.7 -1.6 1.1 -2.8 0.8 -2.8 -0.3 0 0.4 -1.9 1.6 -4.2 2.1 -4.1 2.1 -4.2 0.2 -2.5 -4 3.5 -6.6 17.3 -4.7 24.5 1.1 3.8 1.3 2.5 1 -5z m67.4 -59.7 c0 -2.7 -0.3 -3.2 -1 -2.1 -0.8 1.3 -1 1.3 -1 -0.2 0 -0.9 0.4 -1.8 0.8 -2 0.4 -0.1 0.2 -1.4 -0.6 -2.8 l-1.4 -2.5 0.6 2.8 c0.4 1.5 0.2 2.7 -0.4 2.7 -0.6 0 -0.6 0.9 -0.1 2.3 0.5 1.2 0.6 3.8 0.4 5.7 -0.4 3.3 -0.3 3.4 1.1 1.6 0.9 -1.1 1.6 -3.6 1.6 -5.5z"/>
  <path d="M132.3 185.6 c1.5 -3.2 3 -3.4 2.5 -0.4 -0.2 1.3 -1.1 2.4 -2 2.6 -1.4 0.3 -1.5 0 -0.5 -2.2z"/>
  <path d="M117.2 177.8 c0.6 -1.8 2.2 -2 4.3 -0.3 1.9 1.4 1.8 1.4 -1.3 1.5 -2.2 0 -3.2 -0.4 -3 -1.2z"/>
  <path d="M125 125.1 c0 -1.8 1.2 -4.1 2.2 -4.1 0.6 0 0.7 0.8 0.4 1.8 -0.6 1.6 -0.5 1.6 0.8 0 2.1 -2.7 3.7 -2 1.8 0.8 -1 1.5 -5.2 2.8 -5.2 1.5z"/>
  <path d="M124 108.5 c0 -2.5 0.4 -3.5 1.6 -3.5 1.1 0 1.4 0.7 1 3.1 -0.2 1.7 -0.2 2.8 0.2 2.5 0.3 -0.4 0.7 -1.6 0.9 -2.8 0.7 -4.3 1.9 -3.8 2.9 1 0.6 3.1 0.6 3.2 -3 3.2 -3.5 0 -3.6 -0.1 -3.6 -3.5z"/>
  <path d="M103 99 c0 -0.5 0.8 -1.4 1.8 -1.9 1.6 -1 1.6 -1 0 -1.1 -1 0 -1.8 -0.7 -1.8 -1.5 0 -1.2 1.3 -1.5 5.5 -1.5 5.1 0 7.2 1.2 4.3 2.3 -1 0.4 -1 0.6 0 0.6 0.6 0.1 1.2 1 1.2 2.1 0 1.8 -0.7 2 -5.5 2 -3 0 -5.5 -0.4 -5.5 -1z"/>
  <path d="M130.1 87.3 c1 -1.1 1 -1.4 0.2 -0.9 -0.7 0.4 -1.3 0.2 -1.3 -0.3 0 -0.6 0.7 -1.1 1.5 -1.1 0.9 0 1.2 -0.6 0.9 -1.5 -0.4 -0.8 -0.2 -1.5 0.4 -1.5 0.5 0 1.5 -4.8 2.1 -10.7 0.7 -5.9 1.5 -11 1.7 -11.3 1.1 -1 0 14.7 -1.3 20.4 -1.4 6.1 -2.7 8.6 -4.5 8.6 -0.6 0 -0.4 -0.8 0.3 -1.7z"/>
  <path d="M87.6 84.5 c0.6 -2.5 0.5 -2.7 -1.7 -2 -8.6 2.7 -31.3 -0.6 -26.1 -3.9 0.4 -0.2 3.2 0.4 6.2 1.5 4.5 1.5 7.1 1.7 14.3 1.2 l8.7 -0.6 0 2.6 c0 1.4 -0.5 2.9 -1 3.2 -0.7 0.4 -0.8 -0.3 -0.4 -2z"/>
  <path d="M140.6 65.2 c-1.1 -2.3 -1.6 -4.5 -1.3 -4.9 0.4 -0.3 0.7 0.1 0.7 1 0 0.9 0.7 2 1.6 2.5 0.9 0.5 1.4 1.8 1.2 3.3 -0.3 2.1 -0.5 1.9 -2.2 -1.9z"/>
  <path d="M117 58.8 c0 -3 2.1 -7.4 4.2 -8.9 0.5 -0.3 1.2 -2.5 1.6 -5 0.7 -4 0.5 -4.6 -2.1 -7.1 -1.5 -1.6 -3.2 -2.8 -3.7 -2.8 -0.6 0 -1 -0.4 -1 -1 0 -0.5 -0.9 -1 -2 -1 -1.3 0 -2 -0.7 -2 -2 0 -2.5 0.6 -2.5 4.1 0.3 1.6 1.2 4.3 3.3 6 4.6 1.7 1.3 3.4 3.3 3.8 4.4 0.7 1.9 0.8 1.9 1.3 -0.6 0.3 -1.4 0.2 -2.4 -0.2 -2.2 -0.4 0.2 -1.8 -0.7 -3 -2 -1.3 -1.4 -2.9 -2.5 -3.6 -2.5 -0.6 0 -2.2 -0.9 -3.5 -2 -2.4 -2 -2.4 -2 -0.4 -3.5 2.2 -1.8 6.9 -1.5 10.2 0.5 5.1 3.2 7.7 13.4 4.8 19 -1.4 2.5 -10.5 12 -10.5 10.8 0 -0.4 1.3 -2.8 2.9 -5.5 3.5 -5.7 4.7 -9.3 3.2 -9.3 -0.6 0 -1.1 1 -1.1 2.3 0 1.3 -1.6 4.7 -3.5 7.7 -1.9 3 -3.5 6 -3.5 6.7 0 0.6 -0.4 1.5 -1 1.8 -0.6 0.4 -1 -0.7 -1 -2.7z"/>
  <path d="M122 60.4 c0 -0.9 2.5 -4.1 5.5 -7.2 5.2 -5.3 5.5 -5.5 5.2 -2.9 -0.2 1.6 -2.1 4.6 -4.7 7.2 -4.7 4.8 -6 5.4 -6 2.9z"/>
  <path d="M111 48 c0 -1.1 0.5 -2 1 -2 0.6 0 1 0.5 1 1.1 0 0.6 0.7 0.4 1.5 -0.5 0.8 -0.8 1.5 -1.9 1.5 -2.5 0 -0.6 0.5 -1.1 1 -1.1 0.6 0 1 1.6 1 3.5 0 3.3 -0.2 3.5 -3.5 3.5 -2.8 0 -3.5 -0.4 -3.5 -2z"/>
  <path d="M107 41.3 c0 -3.1 0.2 -3.2 3.5 -3.1 1.9 0.1 3.5 0.5 3.5 1 0 0.4 -0.6 0.7 -1.2 0.6 -0.7 -0.2 -1.4 0.9 -1.6 2.4 -0.2 1.9 -0.9 2.6 -2.3 2.5 -1.5 -0.1 -1.9 -0.9 -1.9 -3.4z"/>
  <path d="M65.2 42 c0.4 -1.2 39.8 -12.3 40.7 -11.5 0.2 0.3 1.3 0 2.3 -0.6 1.6 -0.9 1.9 -0.8 1.6 0.3 -0.3 0.7 -2.2 1.4 -4.4 1.6 -2.1 0.2 -4.1 0.7 -4.4 1.1 -0.3 0.4 -7.9 2.7 -16.9 5 -9 2.3 -17 4.5 -17.8 4.8 -1 0.4 -1.4 0.1 -1.1 -0.7z"/>
  <path d="M143.7 31.1 c-0.3 -1.1 -2 -2.9 -3.8 -4 -2.7 -1.7 -3 -2.1 -1.3 -2.1 2.9 0 5.2 2 6 5.3 0.7 3 -0.1 3.8 -0.9 0.8z"/>
  <path d="M103.5 28 c3.3 -2.2 6.5 -2.6 6.5 -0.8 0 0.6 -0.3 0.9 -0.6 0.5 -0.4 -0.3 -1.9 0 -3.5 0.8 -4.1 2.2 -5.9 1.8 -2.4 -0.5z"/>
  <path d="M127 27.2 c-2.2 -1.5 -2.4 -2.2 -2 -6.7 0.4 -4.3 0.8 -5 2.9 -5.3 3.2 -0.5 4.4 1 4.7 6 l0.3 4.3 -1.2 -3.2 c-1.9 -5.1 -3.5 -6.1 -4.2 -2.7 -0.4 1.6 -0.9 3.8 -1.2 4.9 -0.3 1.5 -0.2 1.6 0.5 0.7 0.8 -1.1 1.3 -1.2 3 -0.1 1.1 0.7 1.8 1.9 1.5 2.6 -0.6 1.6 -1.2 1.6 -4.3 -0.5z"/>
  <path d="M112.5 26 c-0.3 -0.5 0.3 -1 1.5 -1 1.2 0 1.8 0.5 1.5 1 -0.3 0.6 -1 1 -1.5 1 -0.5 0 -1.2 -0.4 -1.5 -1z"/>
  <path d="M117 24 c0 -0.7 -0.6 -1 -1.4 -0.7 -1.6 0.6 -2.6 -1.2 -2.6 -4.8 0 -2.5 3.3 -4 4.8 -2.1 1.9 2.3 2.2 6.3 0.7 7.6 -1.2 1 -1.5 1 -1.5 0z"/>
 </g>
 <g fill="#ada3b0">
  <path d="M106.5 190.7 c-2.1 -1.1 -1.9 -2.8 0.3 -2.1 1.6 0.5 1.6 0.5 0 -0.6 -1 -0.6 -1.8 -1.8 -1.8 -2.6 0 -1.2 -0.2 -1.2 -1.4 -0.2 -1 0.9 -1 1.5 -0.3 2 2.1 1.3 -4.6 3 -12.3 3.1 -7.9 0.2 -11.4 -0.8 -8.9 -2.4 1 -0.6 1.1 -0.9 0.2 -0.9 -3.5 0 0.1 -9.1 4.5 -11.4 4 -2 8.2 -1.8 8.2 0.5 0 1.3 -0.7 1.9 -2.5 1.9 -1.3 0 -3.6 1.2 -5 2.6 -2.5 2.5 -2.5 2.7 -0.8 4 1.7 1.3 1.7 1.5 -0.1 2.9 -1.8 1.4 -1.6 1.5 3.5 1.4 3 -0.1 4.6 -0.3 3.7 -0.6 -2.9 -0.7 -2 -3 1.3 -3.5 2.6 -0.4 3 -0.2 2.6 1.4 -0.6 2 1.7 2.5 2.9 0.6 0.4 -0.7 0.3 -0.8 -0.4 -0.4 -0.7 0.4 -1.2 0.1 -1.2 -1 0 -1.1 0.6 -1.5 1.8 -1.2 1.5 0.4 1.8 0.1 1.5 -1.6 -0.3 -1.2 0.4 -3.1 1.4 -4.3 1.9 -2.2 8.3 -4 8.3 -2.3 0 0.6 1.7 0.8 3.9 0.5 3 -0.3 4.6 0.1 6.7 1.7 l2.9 2.2 -2 -2.3 -2 -2.4 3 0.7 c3.8 1 3.6 0.7 4.2 6 0.4 3.6 1 4.6 2.7 4.9 1.2 0.2 0.9 0.3 -0.6 0.2 -1.6 -0.1 -2.9 0.3 -2.9 0.9 -0.1 0.6 -0.4 -0.2 -0.8 -1.9 l-0.7 -3 -0.5 3.3 c-0.4 2.2 -0.2 3.2 0.8 3.2 0.7 0 1.3 0.5 1.3 1 0 0.6 -1.6 1 -3.5 1 -3.6 0 -4.8 -1.5 -1.7 -2.3 1.5 -0.4 1.5 -0.5 0 -0.6 -1.2 -0.1 -1.6 -1 -1.5 -3.6 0.1 -4.3 -0.5 -4.9 -4.8 -4.9 -2.4 0 -3.9 0.7 -5.3 2.5 l-2 2.4 4.9 0.3 c3.3 0.2 4.9 0.7 4.9 1.7 0 0.7 -0.8 1.6 -1.7 1.8 -1.7 0.4 -1.7 0.5 0 0.6 0.9 0 1.7 0.6 1.7 1.1 0 1.2 -10.3 0.9 -12.5 -0.3z m4 -13.5 c-0.3 -0.3 -1.6 0.5 -2.8 1.7 l-2.2 2.3 2.8 -1.7 c1.5 -1 2.5 -2 2.2 -2.3z"/>
  <path d="M129 190 c0 -0.5 1.2 -1 2.6 -1 1.4 0 2.3 0.4 1.9 1 -0.3 0.6 -1.5 1 -2.6 1 -1 0 -1.9 -0.4 -1.9 -1z"/>
  <path d="M112.5 174 c-0.8 -1.3 9.5 -1.3 11.5 0 1.1 0.7 -0.3 1 -4.7 1 -3.4 0 -6.5 -0.4 -6.8 -1z"/>
  <path d="M91.8 134.4 c-1 -0.3 -1.8 -1 -1.8 -1.6 0 -0.6 -0.3 -0.8 -0.7 -0.5 -0.7 0.8 -2.6 -2.5 -4.2 -7.5 -1.5 -4.6 -2 -14.5 -0.9 -18.5 0.5 -1.8 0.8 -3.4 0.7 -3.5 -0.1 -0.2 0.7 -2.1 1.8 -4.3 1.1 -2.2 1.8 -4.6 1.5 -5.4 -0.4 -1.1 0.2 -1.3 2.8 -0.8 1.8 0.4 4.3 0.7 5.6 0.7 2.8 0 3.3 2.6 0.7 3.3 -1.7 0.4 -1.7 0.5 0 0.6 0.9 0 1.7 0.8 1.7 1.6 0 1.1 -1.1 1.5 -4 1.5 -3.4 0 -4 0.3 -4 2.1 0 1.1 -0.9 3.2 -1.9 4.5 -1.1 1.4 -1.7 3.3 -1.4 4.4 0.4 1.6 1.4 2 4.9 2 l4.4 0 0 4 c0 3.6 -0.2 4 -2.6 4 -3.4 0 -2.6 2.4 0.9 2.8 1.5 0.2 2.7 0.6 2.7 1 0 0.4 3.2 0.7 7 0.8 3.9 0 7 -0.3 7 -0.8 0 -0.4 1.4 -0.8 3 -0.8 3.2 0 9.4 -2.2 10.3 -3.6 0.3 -0.5 -3.4 -0.9 -8.1 -0.9 l-8.7 0 -0.3 -3.8 -0.3 -3.9 4.3 0.3 c8.7 0.4 10.8 -1.3 10.8 -8.8 0 -2.9 0.4 -3.3 3.4 -3.8 5.7 -1.1 7 -0.1 8.5 6.4 0.7 3.2 1.2 6.9 1.1 8.2 -0.1 1.3 -0.1 4 0 5.9 l0.2 3.5 1.3 -3 c0.8 -1.6 1.4 -4.2 1.5 -5.7 0 -3.1 2.6 -3.9 3.3 -1 0.3 0.9 0.5 -0.1 0.5 -2.3 0 -2.2 -0.2 -3.2 -0.5 -2.2 -0.8 3.2 -2.9 1.7 -4.1 -2.9 -1.4 -5.2 -6 -12.3 -7.9 -12.4 -0.7 0 -1.3 0.5 -1.3 1 0 0.6 -1.1 1 -2.5 1 -1.4 0 -2.5 0.4 -2.5 0.9 0 0.9 -9.7 3.1 -13.7 3.1 -1.4 0 -2.3 -0.6 -2.3 -1.5 0 -0.8 0.8 -1.5 1.8 -1.5 1.6 -0.1 1.6 -0.1 0 -1.1 -3.1 -1.7 -2 -2.5 5.2 -3.9 3.9 -0.7 7 -1.7 7 -2.2 0 -0.4 0.9 -0.8 2 -0.8 1.1 0 2 -0.4 2 -0.9 0 -1.1 5.9 -3.6 6.7 -2.8 0.7 0.8 -1.6 3.7 -2.9 3.7 -0.6 0 -0.4 -0.8 0.3 -1.7 1.3 -1.6 1.2 -1.7 -0.3 -0.4 -1 0.7 -1.5 1.7 -1.3 2.2 0.3 0.4 -0.3 1.2 -1.2 1.8 -1 0.6 -1.5 1.1 -1.1 1.1 0.4 0 2.3 -0.9 4.2 -2.1 l3.5 -2 3 4.2 c9.2 12.7 10.6 21.5 5 32.6 -3.3 6.6 -3.5 6.8 -7.1 6.8 -4.4 0.1 -4.6 -0.2 -1.6 -1.6 l2.3 -1 -2.2 0.5 c-3.4 0.6 -4.8 -1.7 -2.7 -4.9 0.9 -1.4 1.4 -2.8 1 -3.2 -0.3 -0.3 -0.6 -0.1 -0.6 0.5 0 0.7 -1.5 2.2 -3.2 3.3 -1.8 1.2 -2.5 1.9 -1.5 1.5 0.9 -0.3 1.7 -0.2 1.7 0.3 0 1.1 -7.3 4.1 -10.3 4.2 -1.8 0.1 -1.7 0.2 0.7 1 1.9 0.5 3.4 0.4 4.2 -0.2 0.7 -0.6 1.7 -0.8 2.3 -0.5 0.5 0.3 1.1 0 1.4 -0.6 0.3 -1 0.8 -1 1.7 -0.2 2.3 2.2 -5 3.7 -20 4 -8 0.1 -15.3 0 -16.2 -0.2z m23 -1.4 c0.2 0 0.1 -0.3 -0.1 -0.7 -0.3 -0.5 -4.3 -0.6 -8.9 -0.4 -5.8 0.2 -7.7 0.6 -6.3 1.2 1.5 0.7 8.4 0.6 15.3 -0.1z m-22.3 -2.9 c-2.9 -1.4 -3.4 -2 -2 -2.1 1.5 -0.1 1.6 -0.3 0.5 -0.7 -0.8 -0.3 -1.8 -1.1 -2.2 -1.7 -0.4 -0.6 -0.8 0 -0.8 1.5 0 1.8 0.7 2.8 2.8 3.6 4.6 1.8 5.9 1.4 1.7 -0.6z m12 -0.1 c0.3 -0.5 3.2 -1.1 6.3 -1.2 l5.7 -0.2 -5.3 -0.3 c-3.2 -0.3 -5.9 0.1 -6.8 0.8 -0.8 0.7 -1.4 0.7 -1.4 0.1 0 -0.5 -1.8 -1.2 -4 -1.4 -2.2 -0.2 -4 0 -4 0.4 0 0.5 1.6 0.8 3.5 0.8 1.9 0 3.5 0.5 3.5 1 0 0.6 0.4 1 0.9 1 0.6 0 1.3 -0.4 1.6 -1z m-15.5 -8 c0 -1.1 -0.7 -2 -1.5 -2 -1.8 0 -1.9 1.2 -0.3 2.8 1.6 1.6 1.8 1.5 1.8 -0.8z m44 -5.5 c0 -1.9 -0.4 -3.5 -0.8 -3.5 -0.4 0 -0.6 1.6 -0.4 3.5 0.2 1.9 0.6 3.5 0.8 3.5 0.2 0 0.4 -1.6 0.4 -3.5z m-42.5 0.7 c-1.6 -0.2 -3.6 -0.9 -4.4 -1.5 -1.2 -1 -1.2 -0.9 -0.1 0.9 1 1.6 1.9 1.9 4.4 1.5 l3.1 -0.6 -3 -0.3z m37.5 -10.3 c0 -1.6 -0.3 -2.9 -0.7 -2.9 -0.5 0 -0.8 1.5 -0.8 3.4 0 1.9 0.3 3.2 0.7 3 0.4 -0.3 0.8 -1.8 0.8 -3.5z m-33 -11.3 c0 -0.2 -1.1 -0.6 -2.5 -0.8 -1.4 -0.3 -2.5 -0.1 -2.5 0.3 0 0.5 1.1 0.9 2.5 0.9 1.4 0 2.5 -0.2 2.5 -0.4z m24.9 -1.2 c2.9 -0.8 5.1 -1.7 4.9 -1.9 -0.2 -0.2 -3.2 0.5 -6.8 1.5 -3.6 1 -5.8 1.9 -4.9 1.9 0.8 0.1 3.9 -0.6 6.8 -1.5z"/>
  <path d="M130.3 134.3 c-2 -0.7 -1.5 -2.2 0.6 -2 1.1 0 1.7 0.5 1.4 0.9 -0.2 0.5 0.7 0.6 2.1 0.2 1.6 -0.4 2.6 -0.2 2.6 0.5 0 1.1 -4.4 1.4 -6.7 0.4z"/>
  <path d="M107 43.1 c0 -3.5 0.2 -3.8 2.7 -3.8 2.5 0 2.6 0 0.8 1.3 -1 0.8 -1.3 1.4 -0.7 1.4 0.7 0 1.2 0.9 1.2 1.9 0 1.1 0.6 2.2 1.3 2.4 0.6 0.3 -0.3 0.6 -2 0.6 -3.2 0.1 -3.3 -0.1 -3.3 -3.8z"/>
  <path d="M115.8 44 c0.5 -3.5 2.7 -4 3.6 -0.7 0.9 3.4 0.8 3.7 -1.7 3.7 -2 0 -2.3 -0.4 -1.9 -3z"/>
  <path d="M88 41.5 c0 -3.4 0.1 -3.5 3.8 -3.5 3.7 0 3.9 0.1 4 3.5 0.1 3.4 0.1 3.5 -3.8 3.5 -3.9 0 -4 -0.1 -4 -3.5z"/>
  <path d="M114.8 39.3 c1.2 -0.2 3 -0.2 4 0 0.9 0.3 -0.1 0.5 -2.3 0.4 -2.2 0 -3 -0.2 -1.7 -0.4z"/>
 </g>
 <g fill="#d9b187">
  <path d="M126 191.1 c0 -1 3.4 -2.1 6.5 -2.1 1.6 0.1 1.7 0.2 0.5 0.9 -2.5 1.4 -7 2.2 -7 1.2z"/>
  <path d="M98 188.9 c0 -0.5 0.6 -0.9 1.4 -0.9 0.8 0 2.2 -0.3 3.2 -0.7 1.1 -0.4 1.5 -0.3 1.1 0.4 -0.8 1.3 -5.7 2.3 -5.7 1.2z"/>
  <path d="M127 186.9 c0 -1.9 0.6 -2.8 2.1 -3.2 2.8 -0.8 1.9 -3.1 -1.3 -3.5 -1.4 -0.2 -3.4 -1.2 -4.3 -2.2 -1.6 -1.8 -1.5 -1.9 4.9 -1.9 l6.7 0 -0.3 5.7 c-0.3 5.6 -0.4 5.7 -3.3 5.7 -1.6 0 -3.3 0.5 -3.7 1 -0.4 0.6 -0.8 -0.2 -0.8 -1.6z"/>
  <path d="M99 183.5 c0 -1.9 -0.4 -3.7 -1 -4 -0.6 -0.3 -0.7 0.1 -0.4 0.9 0.4 1.1 0 1.6 -1.5 1.6 -1.2 0 -2.1 -0.6 -2.1 -1.4 0 -0.7 -0.9 -1.6 -2 -1.9 -2.2 -0.6 -2.8 -4.5 -0.7 -4.4 0.6 0 2.1 -0.1 3.2 -0.2 1.6 -0.1 1.7 -0.3 0.5 -1.1 -2.6 -1.7 -0.3 -2.1 7.4 -1.4 8.2 0.7 9.5 1.7 4.4 3.4 -3.2 1 -3.2 1 1 0.6 4.3 -0.4 5.8 0.7 2.3 1.7 -1.7 0.4 -5.4 5.1 -6.3 8 -0.2 0.4 -1.3 0.9 -2.6 1.2 -1.9 0.3 -2.2 0 -2.2 -3z"/>
  <path d="M105.1 185.7 c-0.1 -2.3 6.1 -8.7 8.3 -8.7 2.8 0 1.7 2.8 -1.4 3.5 -2.1 0.5 -3 1.3 -3 2.6 0 1 -0.6 1.9 -1.4 1.9 -0.8 0 -1.7 0.6 -1.9 1.3 -0.3 0.7 -0.6 0.4 -0.6 -0.6z"/>
  <path d="M119 178.5 c0 -1.9 1.1 -1.9 3.6 0 1.8 1.4 1.8 1.4 -0.8 1.5 -1.8 0 -2.8 -0.5 -2.8 -1.5z"/>
  <path d="M112.3 174.3 c-2 -0.8 -1.5 -2.3 0.7 -2.3 1.1 0 2 0.7 2 1.5 0 1.5 -0.6 1.7 -2.7 0.8z"/>
  <path d="M119 174 c0 -0.6 3.3 -1 8 -0.9 4.4 0.1 7.8 0.5 7.5 0.9 -0.7 1.2 -15.5 1.2 -15.5 0z"/>
  <path d="M91 99 c0 -0.6 -0.7 -1 -1.5 -1 -0.8 0 -1.5 -0.5 -1.5 -1.1 0 -0.8 1.6 -0.9 5.3 -0.3 10.7 1.6 22.9 0 32.6 -4.3 3 -1.3 6.2 -2.1 7 -1.8 2.5 1 -3.4 4.2 -11.8 6.3 -8.4 2.2 -30.1 3.8 -30.1 2.2z"/>
  <path d="M95 95.7 c-0.3 -0.3 -1.9 -0.7 -3.5 -1 -2.7 -0.3 -3.1 -0.8 -3.6 -4.8 -0.3 -2.4 -0.4 -5.2 -0.1 -6.2 0.4 -1.6 0.1 -1.8 -1.9 -1.2 -4.4 1.4 -16.3 1.3 -21.4 -0.2 -2.7 -0.8 -5.2 -1.7 -5.4 -1.9 -0.2 -0.2 1 -1.6 2.6 -3.3 6.6 -6.5 8.7 -20.4 4.9 -31 -0.9 -2.5 -1.3 -4.8 -0.9 -5.1 0.8 -0.7 36.1 -10.1 40.1 -10.7 8.4 -1.2 7.6 -1.5 16.8 6.1 3.4 2.8 3.5 3.2 3 8 -0.9 8.1 -1 8.5 -1.7 8 -0.4 -0.2 -1.6 1.1 -2.7 2.8 -2.4 4.1 -3.8 8.3 -2.4 7.4 0.6 -0.4 0.8 0.2 0.4 1.6 -0.4 1.6 -0.2 1.9 0.8 1.3 1 -0.6 1.2 -0.4 0.7 0.7 -0.7 2 3.2 5.8 5.9 5.7 1.5 0 1.6 -0.2 0.4 -0.7 -5.1 -2.3 -5.6 -3.3 -5 -8.4 0.6 -4.2 1.4 -5.7 5.8 -10.1 4.8 -4.8 5.2 -5 5.2 -2.7 -0.1 1.4 0 7.7 0.1 14 l0.2 11.5 0.7 -10.2 c0.3 -5.7 1 -10.6 1.4 -11 0.4 -0.4 0.6 3.9 0.5 9.7 -0.2 10.4 -2 21.2 -4.1 23.7 -1.6 2 -3.2 1.6 -1.7 -0.4 1.1 -1.6 1.1 -1.6 -0.1 -0.5 -0.8 0.7 -1.5 1.8 -1.5 2.5 0 2.3 -13.4 5.9 -23.5 6.4 -5.2 0.3 -9.7 0.3 -10 0z m16.9 -14.1 c1.5 -0.8 3.4 -2.3 4.2 -3.3 1.3 -1.7 1.3 -1.7 -0.6 -0.2 -1.1 0.9 -3.3 2.4 -5 3.2 -1.6 0.9 -2.6 1.6 -2.2 1.7 0.4 0 2 -0.6 3.6 -1.4z m5.1 -39.2 c0 -2.1 2 -1.7 2.1 0.4 0 1.3 0.2 1.4 0.6 0.2 0.3 -0.8 1.1 -1.8 1.7 -2.2 0.6 -0.4 -0.9 -0.8 -3.5 -0.8 -2.5 0 -5.1 -0.6 -5.8 -1.2 -1.1 -1.1 -1.3 -1 -0.7 0 0.4 0.7 0.1 1.5 -0.8 1.8 -1.3 0.5 -1.3 1 -0.4 2.7 2.3 4.3 3.2 4.8 5.1 2.5 0.9 -1.1 1.7 -2.6 1.7 -3.4z m-15.6 1.9 c0.8 -2 -2.7 -5.5 -4.8 -4.7 -0.8 0.3 -1.3 1.2 -1 2 0.2 0.8 0.6 2.1 0.9 2.9 0.6 2 4.1 1.9 4.9 -0.2z m-8.9 -2.5 c0.6 -0.4 0 -0.8 -1.2 -0.8 -1.6 0 -2.1 0.4 -1.6 1.5 0.3 0.9 0.8 1.2 1.2 0.8 0.3 -0.4 1.1 -1.1 1.6 -1.5z m6.3 -4.5 c-1 -0.2 -2.6 -0.2 -3.5 0 -1 0.3 -0.2 0.5 1.7 0.5 1.9 0 2.7 -0.2 1.8 -0.5z m17.7 -1.4 c1.5 -1.5 -4.8 -1 -7.5 0.6 -2.4 1.3 -2.3 1.3 2 0.8 2.5 -0.3 4.9 -0.9 5.5 -1.4z"/>
  <path d="M127 40.7 c0 -0.9 0.7 -1.4 1.5 -1.3 2 0.3 2 2 0.1 2.4 -0.9 0.2 -1.6 -0.3 -1.6 -1.1z"/>
  <path d="M117.4 31.5 c-1.8 -1.4 -1.8 -1.4 0.4 -1.5 1.3 0 2.1 0.4 1.7 0.9 -0.3 0.5 0.3 1.2 1.2 1.4 1.4 0.4 1.4 0.5 0.2 0.6 -0.8 0 -2.4 -0.6 -3.5 -1.4z"/>
  <path d="M102.6 28.5 c2.5 -1.9 4 -1.9 2 0 -0.8 0.8 -2 1.5 -2.7 1.5 -0.7 0 -0.4 -0.6 0.7 -1.5z"/>
  <path d="M127 27.2 c-2.2 -1.5 -2.4 -2.2 -2 -6.7 0.4 -4.3 0.8 -5 2.9 -5.3 3 -0.5 4.3 0.9 4.8 5 0.3 3.2 -1.3 8.9 -2.6 8.7 -0.3 0 -1.7 -0.8 -3.1 -1.7z"/>
  <path d="M113.5 22.2 c-1.1 -3 -0.5 -6 1.5 -6.5 2.4 -0.6 3.8 0.9 4.2 4.8 0.3 2.6 0 3 -2.4 3 -1.5 0.1 -3 -0.5 -3.3 -1.3z"/>
 </g>
 <g fill="#fab3ab">
  <path d="M124 191 c0 -0.5 1.2 -1 2.8 -1 1.5 0 3.8 -0.3 5.2 -0.5 1.6 -0.3 1.2 0 -1 0.9 -4.2 1.7 -7 2 -7 0.6z"/>
  <path d="M96.1 189.3 c0.5 -3.1 -0.5 -6.6 -2.6 -9.1 -2.8 -3.4 -3.2 -5.2 -1.1 -5.2 2.7 0 5.5 4.9 5.3 9.2 l-0.3 4 3.5 -0.6 c1.9 -0.3 3 -0.2 2.5 0.3 -1.3 1.3 -7.5 2.4 -7.3 1.4z"/>
  <path d="M105.4 186 c0.1 -1.8 1.3 -4.2 2.9 -5.8 2.6 -2.5 2.7 -2.5 2.7 -0.5 0 1.1 -0.7 2.6 -1.5 3.3 -0.8 0.7 -1.5 1.8 -1.5 2.5 0 0.7 -0.6 1.8 -1.4 2.4 -1.2 1 -1.4 0.6 -1.2 -1.9z"/>
  <path d="M122.2 184 c-2.8 -6.1 -2.5 -8.3 0.7 -5.1 1.2 1.2 2 2.9 1.7 3.6 -0.3 0.8 -0.1 1.7 0.4 2 1.2 0.7 1.3 4.5 0.2 4.5 -0.4 0 -1.8 -2.3 -3 -5z"/>
  <path d="M127.1 187 c-0.1 -1.4 -1 -4.3 -2.1 -6.5 -1.1 -2.2 -2 -3.9 -2 -4 0 0 2.2 0 4.9 0 2.7 0 4.7 0.4 4.3 0.9 -0.3 0.5 0.1 0.7 0.9 0.4 1.2 -0.5 1.5 0.2 1.3 3.2 -0.2 4.6 -1.1 6.3 -3 5.6 -0.8 -0.3 -1.4 -0.1 -1.4 0.5 0 0.6 -0.4 0.8 -0.9 0.5 -0.5 -0.4 -1.2 0 -1.4 0.6 -0.3 0.7 -0.6 0.2 -0.6 -1.2z"/>
  <path d="M99 183.5 c0 -2.1 -0.9 -4.4 -2.6 -6.4 -1.6 -2 -2.1 -3.1 -1.2 -3.1 1 0 1 -0.2 -0.2 -1 -0.8 -0.5 -1.1 -1.2 -0.8 -1.5 0.9 -0.9 10.9 0.5 10.4 1.4 -0.3 0.4 0.9 0.6 2.7 0.4 2.7 -0.4 2.9 -0.2 1.4 0.7 -1.1 0.7 -4 1 -7 0.7 l-5.2 -0.5 5.8 1 c5.7 1.1 7 2.5 4.3 4.7 -0.8 0.7 -1.7 2.4 -2.1 3.8 -0.5 2.1 -0.8 2.4 -1.6 1.2 -0.5 -0.8 -0.9 -0.9 -0.9 -0.3 0 0.7 -0.7 1.4 -1.5 1.8 -1.2 0.4 -1.5 -0.3 -1.5 -2.9z"/>
  <path d="M120 174 c0 -0.5 1.5 -1 3.4 -1 1.9 0 3.8 0.5 4.1 1 0.4 0.6 -1 1 -3.4 1 -2.3 0 -4.1 -0.4 -4.1 -1z"/>
  <path d="M129 174.2 c0 -0.4 1.4 -0.9 3.1 -1 1.9 -0.2 2.8 0.2 2.4 0.8 -0.7 1.2 -5.5 1.4 -5.5 0.2z"/>
 </g>
 <g fill="#cdc8cf">
  <path d="M108.1 191.1 c-1.4 -0.4 -2.6 -1.2 -2.9 -1.9 -0.2 -0.8 0.3 -1 1.5 -0.6 1.7 0.5 1.7 0.5 0.1 -0.6 -2.7 -1.7 -2.2 -3.8 1.6 -7.6 3.8 -3.8 7.6 -4.5 7.6 -1.5 0 2 -1.8 3.1 -5.1 3.1 -1 0 -1.9 0.7 -1.9 1.5 0 0.8 0.9 1.5 1.9 1.5 1.1 0 2.1 0.4 2.3 0.9 0.2 0.5 2.2 1.2 4.6 1.6 4.6 0.7 5.5 -0.4 2.7 -4.1 -1.6 -2.2 -2 -6.4 -0.5 -6.4 1.8 0 5.2 4.1 4.6 5.5 -0.3 0.8 -0.1 1.7 0.4 2 0.6 0.4 1 1.5 1 2.6 0 1.8 -0.7 1.9 -8 1.8 -4.5 -0.1 -8.4 0.2 -8.8 0.6 -0.4 0.4 5 0.5 12 0.4 8.6 -0.3 12.1 -0.1 11 0.6 -2 1.1 -20.5 1.6 -24.1 0.6z"/>
  <path d="M82 189 c0 -0.6 1.1 -0.8 2.8 -0.4 3.9 1 4 1.4 0.4 1.4 -1.8 0 -3.2 -0.5 -3.2 -1z"/>
  <path d="M95.5 189 c8.7 -2.1 9 -2.2 7.9 -1 -0.6 0.6 -3.5 1.3 -6.5 1.5 -5.2 0.5 -5.2 0.4 -1.4 -0.5z"/>
  <path d="M82.6 186.7 c-3.8 -2.8 2.4 -11.9 8 -11.9 4 0 7.2 4.1 7.1 8.9 -0.2 3.4 -0.5 3.8 -2.9 4.1 -2.2 0.3 -2.8 -0.1 -2.8 -1.5 0 -1.1 0.5 -2.4 1.1 -3 1.5 -1.5 -1.6 -4.3 -4.7 -4.3 -1.9 0 -2.4 0.5 -2.4 2.4 0 1.3 0.5 2.6 1.2 2.8 1.5 0.5 0.3 3.8 -1.5 3.8 -0.7 0 -2.1 -0.6 -3.1 -1.3z"/>
  <path d="M94.4 134 c-0.5 -0.5 -2.2 -1.1 -3.7 -1.2 -3.1 -0.3 -3.6 -2.3 -0.7 -3.1 1.1 -0.3 1.8 -0.1 1.5 0.4 -0.3 0.4 0.7 1.1 2.2 1.5 1.5 0.3 4.3 1 6.1 1.6 3.1 0.9 11.3 0.5 15.9 -0.8 1.3 -0.3 3.1 -0.3 4 0.1 1.5 0.7 1.3 0.9 -1.2 1.5 -4.6 1.2 -23 1.1 -24.1 0z"/>
  <path d="M127 132 c-1.3 -0.9 -1.3 -1.1 0 -2 2.1 -1.3 2.5 -1.3 4.3 0.8 1.5 1.6 1.5 1.8 -0.6 2 -1.2 0.1 -2.9 -0.3 -3.7 -0.8z"/>
  <path d="M97.5 131.1 c-0.6 -0.5 -1.9 -1.1 -3 -1.4 -1.2 -0.3 -0.7 -0.5 1.1 -0.4 1.8 0.1 3.1 0.6 3.1 1.4 0 1.5 0 1.5 -1.2 0.4z"/>
  <path d="M105.1 130.8 c-0.1 -1 0.6 -1.8 1.4 -1.8 0.8 0 1.5 0.8 1.5 1.8 0 1.3 -0.2 1.4 -0.9 0.3 -0.7 -1.1 -0.9 -1.1 -1.4 0 -0.4 1 -0.6 0.9 -0.6 -0.3z"/>
  <path d="M114 130.2 c0 -0.4 0.9 -0.8 2 -0.8 1.1 0 2 0.4 2 0.8 0 0.4 -0.9 0.8 -2 0.8 -1.1 0 -2 -0.4 -2 -0.8z"/>
  <path d="M130.1 128.7 c-0.6 -0.6 -0.2 -2.3 1 -4.6 2.1 -3.9 2.5 -10.4 0.9 -14.6 -0.5 -1.4 -1.1 -3.8 -1.2 -5.3 -0.2 -2.6 -0.4 -2.7 -2.5 -1.8 -1.5 0.7 -2.1 1.7 -1.7 2.8 0.3 0.9 -0.2 3.2 -0.9 5.1 -1.8 4.1 -6.2 6.2 -11.4 5.4 -2.4 -0.4 -3.3 -0.3 -2.6 0.4 0.9 0.9 3.9 1.3 7.5 1 0.9 0 2.9 -1.2 4.5 -2.5 3.1 -2.6 4.6 -1.9 5.1 2.4 0.4 4 -1.7 7.8 -5.1 9 -4.2 1.5 -24 2.4 -29.7 1.3 -4.4 -0.8 -4.5 -0.9 -4.8 -5.1 -0.3 -3.9 -0.1 -4.2 2.2 -4.2 1.4 0 2.8 -0.5 3.1 -1 0.4 -0.7 -0.2 -0.9 -1.7 -0.5 -1.3 0.3 -3.5 0.2 -4.9 -0.4 l-2.6 -0.9 0.8 4.2 c0.4 2.3 1.1 5.5 1.5 7.1 0.5 1.9 0.3 2.6 -0.4 2.1 -1.4 -0.8 -3 -9.4 -3.1 -16.7 -0.1 -4.2 0.4 -6.2 1.9 -8.2 2.2 -2.7 2.6 -4.2 1 -3.2 -0.6 0.4 -0.5 -0.5 0.2 -2 1.1 -2.5 1.4 -2.6 6.2 -1.8 10.2 1.6 22.9 -0.1 32.5 -4.3 5.9 -2.6 8.6 -2.4 9.6 0.7 0.4 1 1.1 1.9 1.6 1.9 0.5 0 0.9 0.7 0.9 1.5 0 0.8 0.4 1.5 1 1.5 0.5 0 0.9 0.3 0.8 0.8 -0.1 0.4 0.4 2.8 1.1 5.4 2.3 8.2 0.9 18 -3.5 24.6 -0.6 0.9 -6.5 0.7 -7.3 -0.1z"/>
  <path d="M110.4 47.2 c-1.6 -1.1 -2.4 -4.1 -1.4 -4.7 0.6 -0.4 1 -0.2 1 0.4 0 0.5 0.7 1.6 1.5 2.5 1.6 1.5 0.7 3 -1.1 1.8z"/>
  <path d="M94.4 46 c-2.9 -1.2 -4 -3 -2.3 -4.1 2.3 -1.4 3.9 -1 3.9 0.9 0 1 0.5 2.3 1.2 3 1.4 1.4 0.3 1.5 -2.8 0.2z"/>
  <path d="M116.3 44 c1.3 -3.4 2.7 -3.9 2.7 -1 0 1 -0.9 2.4 -1.9 3 -1.8 0.9 -1.8 0.8 -0.8 -2z"/>
 </g>
 <g fill="#a8fee5">
  <path d="M114.8 177.3 c1.2 -0.2 3.2 -0.2 4.5 0 1.2 0.2 0.2 0.4 -2.3 0.4 -2.5 0 -3.5 -0.2 -2.2 -0.4z"/>
  <path d="M100.5 174.3 c-1.1 -0.2 -3 -0.6 -4.2 -0.9 -1.6 -0.3 -2.3 -1.2 -2.3 -2.8 0 -2.2 0.2 -2.3 4.6 -1.5 2.6 0.5 6.4 0.6 8.6 0.2 3.9 -0.6 4 -0.5 3.3 1.8 -1.2 3.7 -3.7 4.6 -10 3.2z"/>
  <path d="M112.2 174.2 c-1.8 -1.2 -0.5 -6.2 1.7 -6.2 1.3 0 1.3 -0.2 0.2 -0.9 -1.3 -0.9 -2.2 -8.3 -2.2 -19.4 0 -3.1 -0.4 -4.5 -1.1 -4.1 -0.7 0.5 -0.8 4.4 -0.4 11.9 l0.7 11.3 -4.3 0.5 c-3.6 0.4 -8.5 0.3 -11.5 -0.2 -0.5 0 -0.9 -1.1 -1 -2.3 0 -1.3 -0.3 -3.4 -0.6 -4.8 -1.8 -8.8 -2.5 -12.7 -2.5 -14 0 -1.3 -0.5 -3.8 -2.8 -13.4 -0.6 -2.7 -0.5 -2.9 1.7 -2.2 11.2 3.3 13.7 3.7 18.9 3 3 -0.4 7.1 -0.7 9 -0.8 1.9 -0.1 4.1 -0.5 4.8 -1 0.7 -0.4 1.6 -0.6 1.9 -0.2 0.3 0.3 1.2 -0.1 2 -0.9 1.9 -2 2.6 -1.9 4.9 0.7 l1.9 2.1 -3 -1.8 -3 -1.7 2.5 2 c1.6 1.3 3.3 1.9 4.7 1.6 2 -0.5 2.2 -0.3 1.9 2.8 -0.2 1.8 -0.1 2.3 0.1 1.1 0.5 -2.8 2.3 -3 2.3 -0.3 0 1.1 -1.3 6 -3 11 -1.8 5.3 -3 11.1 -3 14.1 0 4.6 -0.2 5.1 -2 4.6 -1.2 -0.3 -1.8 -0.1 -1.4 0.5 0.5 0.7 -1.6 0.9 -6 0.6 -3.6 -0.2 -6.6 0 -6.6 0.4 0 1.5 5.3 2 11.2 1.1 6.3 -1 7.4 -0.5 6.6 3.4 -0.3 1.6 -1.6 1.8 -10.8 2.1 -5.8 0.1 -11.1 -0.2 -11.8 -0.6z"/>
 </g>
 <g fill="#f6f1f5">
  <path d="M110.5 191.3 c-1.6 -0.3 -3.4 -0.9 -4 -1.5 -0.7 -0.8 -0.4 -0.9 0.8 -0.4 1 0.3 3.4 0.6 5.3 0.6 2.1 0 3.3 0.4 2.9 1 -0.3 0.6 -0.9 0.9 -1.3 0.9 -0.4 -0.1 -2 -0.4 -3.7 -0.6z"/>
  <path d="M82.7 189.3 c-0.3 -0.5 1.6 -0.7 4.1 -0.5 8 0.5 9 0.9 2.5 1.1 -3.4 0 -6.4 -0.2 -6.6 -0.6z"/>
  <path d="M108.5 188.2 c-3.1 -0.6 -3.7 -1.6 -2.6 -4.5 2.2 -5.9 12.8 -8.9 16.6 -4.7 1 1.1 2 3.8 2.2 6 l0.5 4 -7.4 -0.2 c-4 -0.1 -8.2 -0.3 -9.3 -0.6z"/>
  <path d="M83.8 187.2 c-1.3 -0.2 -1.8 -1.3 -1.8 -3.4 0 -3.6 4.8 -8.8 8.2 -8.8 2.2 0 6.7 3.1 6.9 4.8 0 0.4 0.3 1.8 0.5 3.1 0.3 1.7 -0.1 2.8 -1.3 3.5 -1.8 1.1 -9.1 1.5 -12.5 0.8z"/>
  <path d="M109.4 45.5 c-1 -2.6 0.1 -3.5 1.3 -1 0.6 1.4 0.7 2.5 0.2 2.5 -0.5 0 -1.2 -0.7 -1.5 -1.5z"/>
  <path d="M92.8 44.9 c-2.6 -1.4 -2.2 -2.9 0.7 -2.9 1.8 0 2.5 0.5 2.5 2 0 2.2 -0.7 2.4 -3.2 0.9z"/>
  <path d="M116.7 44 c0.3 -1.1 0.9 -2 1.4 -2 1.1 0 1.1 0.3 0.3 2.4 -0.9 2.3 -2.3 2 -1.7 -0.4z"/>
 </g>
<g opacity="0.5" transform="rotate(-45, 100.0, 100.0)">
  <text x="50%" y="50%" font-size="20" text-anchor="middle" fill="lightgray" dominant-baseline="middle">
    generated by vectorizer.io
  </text>
</g>
</svg>