<?xml version="1.0" encoding="UTF-8" standalone="no"?>
<!DOCTYPE svg PUBLIC "-//W3C//DTD SVG 1.1//EN" "http://www.w3.org/Graphics/SVG/1.1/DTD/svg11.dtd">
<svg width="100%" height="100%" viewBox="0 0 200 200" version="1.1" xmlns="http://www.w3.org/2000/svg" xmlns:xlink="http://www.w3.org/1999/xlink" xml:space="preserve" xmlns:serif="http://www.serif.com/" style="fill-rule:evenodd;clip-rule:evenodd;stroke-linejoin:round;stroke-miterlimit:2;">
    <g transform="matrix(0.0231556,0,0,0.0231556,7.37785,4.23906)">
        <path d="M2673.46,1596.17L3321.1,2222.95L1429.77,4113.87C1424.03,4119.6 1420.81,4127.38 1420.81,4135.49C1420.81,4143.6 1424.04,4151.38 1429.78,4157.11L2819.6,5545.2C2831.54,5557.13 2850.89,5557.12 2862.82,5545.18L4911.13,3494.48L5535.43,4120.42L2986.85,6667.95C2921.53,6733.24 2815.95,6734.2 2749.46,6670.09C2273.09,6210.82 729.183,4722.29 244.373,4254.87C211.574,4223.24 192.892,4179.74 192.543,4134.18C192.195,4088.62 210.21,4044.84 242.522,4012.72L2673.46,1596.17ZM2782.7,1487.58L3975.24,302.097C4041.39,236.347 4148.23,236.409 4214.29,302.235C4382.7,470.03 4651.44,737.799 4729.14,815.219L3430.02,2114.06L2782.7,1487.58Z" style="fill:url(#_Linear1);"/>
    </g>
    <g transform="matrix(-0.0231556,5.14159e-18,-5.14159e-18,-0.0231556,192.622,189.498)">
        <path d="M2673.46,1596.17L3321.1,2222.95L1429.77,4113.87C1424.03,4119.6 1420.81,4127.38 1420.81,4135.49C1420.81,4143.6 1424.04,4151.38 1429.78,4157.11L2819.6,5545.2C2831.54,5557.13 2850.89,5557.12 2862.82,5545.18L4911.13,3494.48L5535.43,4120.42L2986.85,6667.95C2921.53,6733.24 2815.95,6734.2 2749.46,6670.09C2273.09,6210.82 729.183,4722.29 244.373,4254.87C211.574,4223.24 192.892,4179.74 192.543,4134.18C192.195,4088.62 210.21,4044.84 242.522,4012.72L2673.46,1596.17ZM2782.7,1487.58L3975.24,302.097C4041.39,236.347 4148.23,236.409 4214.29,302.235C4382.7,470.03 4651.44,737.799 4729.14,815.219L3430.02,2114.06L2782.7,1487.58Z" style="fill:url(#_Linear2);"/>
    </g>
    <defs>
        <linearGradient id="_Linear1" x1="0" y1="0" x2="1" y2="0" gradientUnits="userSpaceOnUse" gradientTransform="matrix(3688.03,3715.69,-3715.69,3688.03,2224.07,2037.72)"><stop offset="0" style="stop-color:rgb(29,145,251);stop-opacity:1"/><stop offset="0.38" style="stop-color:rgb(18,75,253);stop-opacity:1"/><stop offset="0.5" style="stop-color:rgb(64,48,251);stop-opacity:1"/><stop offset="0.69" style="stop-color:rgb(74,42,250);stop-opacity:1"/><stop offset="1" style="stop-color:rgb(114,17,247);stop-opacity:1"/></linearGradient>
        <linearGradient id="_Linear2" x1="0" y1="0" x2="1" y2="0" gradientUnits="userSpaceOnUse" gradientTransform="matrix(-3447.55,-3866.64,3866.64,-3447.55,5535.43,6113.81)"><stop offset="0" style="stop-color:rgb(29,145,251);stop-opacity:1"/><stop offset="0.38" style="stop-color:rgb(18,75,253);stop-opacity:1"/><stop offset="0.5" style="stop-color:rgb(64,48,251);stop-opacity:1"/><stop offset="0.69" style="stop-color:rgb(74,42,250);stop-opacity:1"/><stop offset="1" style="stop-color:rgb(114,17,247);stop-opacity:1"/></linearGradient>
    </defs>
</svg>
