<?xml version="1.0" encoding="UTF-8"?>
<svg xmlns="http://www.w3.org/2000/svg" xmlns:xlink="http://www.w3.org/1999/xlink" width="200px" height="200px" viewBox="0 0 200 200" version="1.1">
<g id="surface1">
<path style=" stroke:none;fill-rule:nonzero;fill:rgb(0%,0%,0%);fill-opacity:1;" d="M 0 100 L 0 200 L 200 200 L 200 0 L 0 0 Z M 95.933594 12.398438 C 96.066406 13.367188 95.234375 13.867188 94.667969 13.167969 C 94.367188 12.832031 94.367188 12.535156 94.667969 12 C 95.132812 11.101562 95.800781 11.300781 95.933594 12.398438 Z M 98.464844 12.765625 C 98.464844 13.265625 98.433594 14.867188 98.398438 16.332031 C 98.367188 17.832031 98.199219 19 98 19 C 97.832031 19 97.667969 18.699219 97.667969 18.367188 C 97.667969 18 97.535156 17.601562 97.332031 17.5 C 96.699219 17.101562 97 18.933594 97.832031 20.367188 C 98.667969 21.832031 98.933594 23.464844 98.367188 23.800781 C 98.234375 23.898438 97.933594 23.601562 97.734375 23.167969 C 97.5 22.699219 97.199219 22.332031 97 22.332031 C 96.601562 22.332031 96.535156 24.566406 96.964844 24.800781 C 97.398438 25.101562 98.933594 28.367188 99.167969 29.566406 C 99.433594 30.898438 99.132812 31.535156 98.5 31 C 97.867188 30.464844 97.566406 31.535156 98.132812 32.433594 C 98.398438 32.867188 98.667969 34.566406 98.765625 36.632812 L 98.933594 40.132812 L 97.933594 41.066406 C 96.964844 41.964844 96.933594 42.667969 97.800781 42.667969 C 98.535156 42.667969 98.765625 45.898438 98.101562 46.867188 C 97.832031 47.300781 97.5 47.667969 97.367188 47.667969 C 97.265625 47.667969 96.800781 46.5 96.398438 45.066406 C 95.964844 43.667969 95.433594 42.066406 95.167969 41.566406 C 94.898438 41.035156 94.667969 40.199219 94.667969 39.667969 C 94.667969 38.566406 94.167969 38.066406 93.867188 38.867188 C 93.765625 39.167969 93.667969 39.964844 93.667969 40.699219 C 93.667969 41.398438 93.535156 42 93.398438 42 C 93.066406 42 92.367188 39.800781 92.300781 38.632812 C 92.265625 38.199219 92.132812 38.734375 91.964844 39.800781 C 91.800781 41.035156 91.800781 41.933594 92 42.167969 C 92.167969 42.367188 92.398438 43.398438 92.535156 44.433594 C 92.734375 46.066406 92.667969 46.332031 92.199219 46.332031 C 91.867188 46.332031 91.667969 46.066406 91.667969 45.566406 C 91.667969 45.167969 91.464844 44.464844 91.234375 44 C 90.964844 43.535156 90.667969 41.667969 90.566406 39.867188 C 90.367188 36.800781 90.398438 36.601562 91 36.433594 C 91.367188 36.332031 91.734375 35.964844 91.832031 35.601562 C 92.066406 34.867188 91.433594 33.898438 90.832031 34.132812 C 90.632812 34.199219 90.300781 33.667969 90.066406 32.867188 C 89.699219 31.632812 89.535156 30.667969 88.699219 26 C 88.566406 25.167969 88.234375 23.867188 88 23.101562 C 87.5 21.464844 87.699219 20.667969 88.667969 20.667969 C 89.398438 20.667969 89.535156 19.898438 89 18.535156 C 88.566406 17.367188 89.566406 14.765625 90.765625 14.066406 C 91.234375 13.765625 91.699219 13.601562 91.800781 13.699219 C 91.898438 13.800781 91.734375 14.734375 91.464844 15.800781 C 90.867188 18.035156 91.132812 19.066406 92.601562 20.398438 C 93.566406 21.265625 95.566406 22.199219 95.867188 21.898438 C 95.964844 21.832031 95.800781 21.167969 95.464844 20.464844 C 95.167969 19.734375 94.867188 18.800781 94.832031 18.332031 C 94.800781 17.867188 94.734375 17.332031 94.667969 17.167969 C 94.464844 16.332031 94.699219 15.699219 95.300781 15.5 C 95.734375 15.367188 96.035156 14.867188 96.167969 13.964844 C 96.433594 12.5 97.132812 11.566406 97.964844 11.734375 C 98.300781 11.800781 98.5 12.167969 98.464844 12.765625 Z M 76.632812 18.734375 C 78.832031 19.765625 80.765625 21.398438 81.5 22.867188 C 81.867188 23.566406 82.367188 24.367188 82.601562 24.601562 C 82.800781 24.832031 83 25.234375 83 25.464844 C 83 25.699219 83.300781 26.167969 83.632812 26.464844 C 84 26.800781 84.398438 27.5 84.5 28 C 84.601562 28.535156 84.898438 29.035156 85.132812 29.101562 C 85.832031 29.367188 87.398438 32.898438 87.800781 35 C 87.867188 35.464844 88.101562 36.265625 88.300781 36.765625 C 88.5 37.300781 88.667969 38.101562 88.667969 38.601562 C 88.667969 39.101562 88.898438 39.800781 89.167969 40.132812 C 89.433594 40.5 89.667969 41.332031 89.667969 42.035156 C 89.667969 42.699219 89.898438 43.433594 90.167969 43.667969 C 90.699219 44.132812 90.867188 46.832031 90.367188 47.132812 C 90.035156 47.332031 89.667969 46.601562 89.667969 45.734375 C 89.667969 45.464844 89.464844 44.964844 89.199219 44.699219 C 88.667969 44.101562 87.367188 39.464844 87.167969 37.5 C 86.933594 35.332031 86.601562 34 86.234375 33.765625 C 85.667969 33.433594 83.667969 35.964844 83.667969 37.035156 C 83.667969 37.601562 83.5 38 83.234375 38 C 82.933594 38 82.601562 36.933594 82.199219 34.667969 C 81.867188 32.832031 81.464844 31.234375 81.265625 31.132812 C 81.066406 31 81 30.234375 81.066406 29.265625 C 81.199219 28.066406 81.132812 27.566406 80.800781 27.433594 C 80.535156 27.332031 80.332031 26.765625 80.332031 26.167969 C 80.332031 25.535156 80.199219 24.933594 80 24.832031 C 79.832031 24.734375 79.667969 24.800781 79.667969 24.964844 C 79.667969 25.167969 79.535156 25.332031 79.332031 25.332031 C 79.167969 25.332031 79.066406 24.765625 79.101562 24.066406 C 79.167969 23.066406 79.066406 22.832031 78.601562 22.867188 C 78.234375 22.898438 78 22.699219 78 22.300781 C 78 21.933594 77.765625 21.667969 77.5 21.667969 C 77.234375 21.667969 77 21.433594 77 21.167969 C 77 20.398438 75.464844 19.566406 74.535156 19.800781 C 73.433594 20.066406 73.167969 19.5 74 18.667969 C 74.832031 17.832031 74.800781 17.832031 76.632812 18.734375 Z M 60.964844 22.398438 C 61.234375 23.566406 61.234375 24.234375 61 24.464844 C 60.234375 25.234375 60.667969 26.199219 62.167969 27.132812 C 63 27.667969 63.667969 28.234375 63.667969 28.433594 C 63.667969 28.601562 63.066406 28.667969 62.167969 28.535156 C 60.933594 28.332031 60.667969 28.398438 60.667969 28.800781 C 60.667969 29.101562 60.765625 29.332031 60.933594 29.332031 C 61.066406 29.367188 61.832031 29.964844 62.632812 30.667969 L 64.101562 32 L 63.035156 32.199219 C 61.800781 32.464844 61.734375 32.734375 62.765625 33.433594 C 63.332031 33.832031 63.398438 34.035156 63.101562 34.367188 C 62.632812 34.832031 62.964844 35.667969 64.101562 36.898438 C 64.464844 37.332031 64.699219 37.734375 64.601562 37.832031 C 64.265625 38.167969 60.832031 36.101562 60.5 35.367188 C 60.332031 34.964844 60.066406 34.667969 59.964844 34.667969 C 59.601562 34.667969 60.234375 37.300781 60.832031 38.199219 C 61.300781 38.933594 61.332031 39.132812 60.964844 39.367188 C 60.300781 39.800781 60.132812 39.734375 59.066406 38.832031 C 57.832031 37.800781 57.734375 37.800781 57.933594 38.867188 C 58.101562 39.800781 60.632812 41.667969 61.734375 41.667969 C 62.535156 41.667969 62.5 42.234375 61.699219 42.667969 C 61.234375 42.898438 60.964844 42.898438 60.832031 42.632812 C 60.699219 42.433594 60.265625 42.367188 59.867188 42.464844 C 59.433594 42.566406 58.667969 42.367188 58.035156 41.964844 C 55.632812 40.5 56.699219 42.5 59.234375 44.199219 C 60.199219 44.832031 61.035156 45.464844 61.132812 45.632812 C 61.5 46.199219 56.132812 45.5 55.367188 44.867188 C 54.964844 44.566406 54.964844 44.601562 55.265625 45.199219 C 55.464844 45.566406 56.167969 46.265625 56.800781 46.699219 C 57.464844 47.132812 57.933594 47.632812 57.898438 47.832031 C 57.734375 48.332031 55.367188 48.433594 54.800781 47.964844 C 54.535156 47.765625 54.234375 47.632812 54.167969 47.734375 C 53.832031 48.066406 54.367188 48.898438 55.332031 49.601562 C 56.265625 50.300781 56.332031 50.300781 57.5 49.765625 C 58.132812 49.464844 58.667969 49 58.667969 48.765625 C 58.667969 48.535156 59 48.332031 59.433594 48.332031 C 59.832031 48.332031 60.433594 48.101562 60.765625 47.867188 C 61.535156 47.300781 62.566406 47.535156 62.765625 48.332031 C 62.964844 49.101562 64.898438 50.332031 65.933594 50.332031 C 67.234375 50.332031 66.734375 50.898438 65.199219 51.132812 C 64.132812 51.300781 63.535156 51.632812 63 52.332031 C 62.566406 52.898438 62.066406 53.332031 61.867188 53.332031 C 61.5 53.367188 59.667969 54.832031 59.667969 55.132812 C 59.667969 55.234375 60.734375 55.332031 62.066406 55.398438 C 64.601562 55.5 65.332031 56 63.765625 56.601562 C 60.5 57.800781 56.800781 58.667969 54.832031 58.667969 C 54.464844 58.667969 53.867188 58.800781 53.5 58.964844 C 51.800781 59.699219 51 59.832031 48.5 59.765625 C 45 59.699219 43.5 59.398438 42.800781 58.632812 C 42.5 58.300781 42 58 41.699219 57.964844 C 41.398438 57.964844 41.898438 57.765625 42.832031 57.5 C 43.832031 57.234375 44.734375 56.734375 45.167969 56.199219 C 45.765625 55.464844 46.167969 55.300781 47.933594 55.199219 C 49.265625 55.132812 50.265625 54.867188 50.667969 54.5 C 51.066406 54.132812 51.332031 54.066406 51.5 54.300781 C 51.867188 54.898438 52.234375 54.699219 52.464844 53.832031 C 52.632812 53.132812 52.832031 53.035156 53.464844 53.199219 C 54.601562 53.464844 54.832031 52.832031 53.832031 52.199219 C 52.832031 51.535156 52.667969 51.535156 52.667969 52.132812 C 52.667969 52.800781 51.332031 53.199219 50.964844 52.632812 C 50.535156 51.933594 50.632812 50.898438 51.167969 50.199219 C 51.433594 49.832031 51.667969 49.199219 51.667969 48.765625 C 51.667969 48.332031 51.964844 47.734375 52.300781 47.433594 C 52.765625 47.035156 52.898438 46.632812 52.765625 45.800781 C 52.601562 44.800781 52.699219 44.632812 53.5 44.332031 C 54.234375 44.066406 54.367188 43.832031 54.199219 43.199219 C 53.964844 42.265625 54.601562 40.265625 55.234375 39.898438 C 55.535156 39.699219 55.699219 39.132812 55.632812 38.398438 C 55.566406 36.800781 56 34.332031 56.367188 34.332031 C 56.535156 34.332031 56.667969 34.632812 56.667969 35 C 56.667969 35.367188 56.800781 35.667969 57 35.667969 C 57.199219 35.667969 57.234375 34.898438 57.101562 33.667969 C 56.964844 32.101562 57.035156 31.535156 57.433594 31.066406 C 57.699219 30.765625 58.035156 29.898438 58.167969 29.167969 C 58.300781 28.433594 58.632812 27.332031 58.898438 26.734375 C 59.265625 25.964844 59.300781 25.535156 59.066406 25.234375 C 58.800781 24.933594 58.832031 24.332031 59.132812 23.101562 C 59.933594 20.066406 60.367188 19.898438 60.964844 22.398438 Z M 67.101562 24.066406 C 68.167969 24.601562 67.734375 25.101562 66.332031 24.898438 C 65.433594 24.800781 64.898438 24.867188 64.632812 25.199219 C 64.132812 25.800781 62.964844 25.800781 62.132812 25.199219 C 61.332031 24.601562 61.667969 24.265625 63.433594 23.800781 C 64.867188 23.433594 66.035156 23.5 67.101562 24.066406 Z M 82.5 40.933594 C 82.632812 43.035156 83.667969 46.066406 84.300781 46.265625 C 84.5 46.332031 84.667969 46.167969 84.667969 45.867188 C 84.667969 45.566406 84.800781 45.332031 84.964844 45.332031 C 85.132812 45.332031 85.367188 46.265625 85.5 47.398438 C 85.601562 48.566406 85.867188 50.234375 86.101562 51.101562 C 86.5 52.867188 86.234375 53.734375 85.199219 53.933594 C 84.398438 54.101562 83.332031 53.066406 83.332031 52.167969 C 83.332031 51.734375 83.101562 51.300781 82.800781 51.199219 C 82.464844 51.066406 82.332031 50.800781 82.464844 50.464844 C 82.667969 49.933594 82.101562 47.066406 81.632812 46.5 C 81.199219 45.933594 81.234375 42.300781 81.667969 40.398438 C 81.898438 39.433594 82.167969 38.699219 82.234375 38.800781 C 82.332031 38.867188 82.433594 39.832031 82.5 40.933594 Z M 94.5 42.699219 C 94.632812 42.867188 94.632812 43.433594 94.5 43.933594 C 94.332031 44.601562 94.234375 44.699219 93.964844 44.300781 C 93.566406 43.667969 93.566406 42.332031 93.964844 42.332031 C 94.167969 42.332031 94.398438 42.5 94.5 42.699219 Z M 41.601562 53.667969 C 42.167969 54.265625 42.433594 54.367188 42.734375 54.066406 C 43.199219 53.601562 44.667969 53.535156 44.667969 53.964844 C 44.667969 54.167969 44.535156 54.398438 44.332031 54.5 C 44.167969 54.601562 44 55.066406 44 55.535156 C 44 58.265625 40.167969 55.632812 39.566406 52.5 C 39.464844 51.933594 39.199219 50.832031 39 50 C 38.632812 48.632812 38.667969 48.398438 39.367188 47.300781 L 40.167969 46.101562 L 40.5 49.464844 C 40.765625 52.234375 40.964844 53 41.601562 53.667969 Z M 65.167969 46.832031 C 64.035156 47.734375 63 47.898438 63 47.167969 C 63 46.898438 63.300781 46.667969 63.632812 46.667969 C 64 46.667969 64.398438 46.5 64.5 46.332031 C 64.601562 46.132812 65.035156 46 65.433594 46 C 66.101562 46 66.101562 46.066406 65.167969 46.832031 Z M 79.832031 53.332031 C 79.964844 53.535156 79.800781 54.066406 79.5 54.535156 C 79.199219 55 79 55.667969 79.066406 56 C 79.167969 56.632812 79.199219 56.632812 80.5 55.964844 C 81.234375 55.632812 82.234375 55.066406 82.734375 54.765625 C 83.234375 54.433594 83.734375 54.265625 83.832031 54.398438 C 84.199219 54.765625 83.332031 55.800781 81.933594 56.667969 C 81.199219 57.132812 80.332031 58 79.933594 58.566406 C 79.566406 59.167969 79.167969 59.667969 79 59.667969 C 78.699219 59.667969 78.234375 61.699219 78.5 61.933594 C 78.601562 62.035156 79.234375 61.566406 79.933594 60.898438 C 81.101562 59.800781 82.898438 58.800781 83.234375 59.132812 C 83.300781 59.199219 82.867188 60 82.234375 60.898438 C 81.601562 61.765625 80.734375 63.332031 80.332031 64.332031 C 79.933594 65.332031 79.398438 66.601562 79.167969 67.167969 C 78.066406 69.667969 77.398438 71.601562 77.199219 72.933594 C 77 74.265625 77.066406 74.433594 78.332031 75.699219 L 79.632812 77.035156 L 77.699219 76.800781 C 76.398438 76.667969 75.667969 76.699219 75.535156 76.964844 C 75.398438 77.167969 74.832031 77.332031 74.300781 77.332031 C 73.101562 77.332031 72.535156 78.433594 72.167969 81.535156 C 71.964844 83.464844 72.632812 88.5 73.234375 89.433594 C 73.667969 90.101562 74.367188 92.101562 74.667969 93.5 C 74.867188 94.433594 74.800781 95.066406 74.464844 95.734375 C 74.167969 96.300781 74.066406 97.035156 74.199219 97.566406 C 74.667969 99.632812 76.066406 103.535156 76.535156 104.035156 C 76.800781 104.300781 77 104.699219 77 104.867188 C 77 105.035156 77.265625 105.332031 77.601562 105.535156 C 78.132812 105.867188 78.167969 105.601562 78.234375 101.398438 C 78.300781 98 78.199219 96.699219 77.832031 95.964844 C 76.535156 93.5 77.601562 93.398438 79.964844 95.800781 C 81.566406 97.398438 81.765625 97.800781 81.933594 99.300781 C 82.101562 101.035156 82.367188 101.332031 83 100.566406 C 84.167969 99.199219 85.035156 97.398438 85.234375 96.101562 C 85.367188 95.035156 85.601562 94.535156 86.035156 94.433594 C 86.464844 94.300781 86.601562 93.964844 86.535156 93 C 86.464844 91.800781 86.300781 91.601562 84.332031 90.265625 C 83.132812 89.5 82.132812 88.734375 82.066406 88.601562 C 82 88.464844 81.433594 88.035156 80.800781 87.632812 C 79.433594 86.800781 79.566406 86.535156 81.265625 86.464844 C 82.464844 86.398438 83.800781 86.832031 85.765625 87.898438 C 86.832031 88.464844 87.367188 88.167969 87.566406 86.964844 C 87.632812 86.601562 87.898438 86.066406 88.132812 85.800781 C 88.398438 85.535156 88.699219 85.035156 88.832031 84.699219 C 88.933594 84.367188 89.332031 84 89.699219 83.898438 C 90.199219 83.765625 90.300781 83.832031 90.035156 84.132812 C 89.734375 84.464844 88.667969 90.066406 88.667969 91.234375 C 88.667969 92.300781 89.234375 91.464844 89.964844 89.398438 C 91.234375 85.898438 92 84.300781 92.367188 84.5 C 92.765625 84.765625 92.765625 88.898438 92.367188 89.132812 C 92.199219 89.234375 92 89.734375 91.898438 90.234375 C 91.832031 90.765625 91.433594 92 91.035156 93 C 89.800781 96.167969 89 98.632812 89 99.332031 C 89 99.699219 88.867188 100.265625 88.699219 100.601562 C 88.066406 101.765625 86.964844 106 87.167969 106.367188 C 87.300781 106.535156 87.132812 107 86.832031 107.332031 C 86.199219 108.066406 86.367188 109 87.167969 109 C 87.867188 109 87.800781 109.667969 86.933594 110.566406 C 86.035156 111.5 85.535156 111.535156 84.300781 110.632812 C 83.5 110.066406 83.332031 109.699219 83.332031 108.566406 C 83.332031 107.535156 83.234375 107.300781 83 107.667969 C 82.832031 107.933594 82.667969 108.464844 82.667969 108.867188 C 82.667969 109.265625 82.300781 110.101562 81.867188 110.765625 C 81.199219 111.734375 81 112.464844 80.933594 114.566406 C 80.832031 117.132812 80.832031 117.167969 81.667969 117.265625 C 83.332031 117.464844 84.667969 118.332031 84.667969 119.167969 C 84.667969 119.765625 84.898438 120 85.667969 120.167969 C 87.066406 120.464844 86.898438 120.964844 85.332031 121.199219 C 83.667969 121.464844 83.398438 121.832031 84.265625 122.765625 C 85 123.601562 85.433594 125 85.066406 125.5 C 84.933594 125.699219 84.433594 126.101562 83.933594 126.433594 C 83.398438 126.765625 83 127.234375 83 127.464844 C 83 128.066406 84.601562 128.433594 85.765625 128.167969 C 86.964844 127.832031 87.199219 128.566406 86.035156 129.132812 C 85.066406 129.667969 83.667969 131.167969 83.667969 131.734375 C 83.667969 131.898438 84.398438 131.933594 85.367188 131.800781 L 87.066406 131.566406 L 86.667969 132.367188 C 86.433594 132.800781 85.765625 133.566406 85.199219 134.066406 C 84.265625 134.898438 84.234375 135.035156 84.734375 135.332031 C 85.367188 135.734375 85.234375 137.5 84.433594 139.066406 C 83.898438 140.199219 83.398438 140.234375 81.765625 139.300781 C 81.066406 138.898438 79.933594 138.367188 79.265625 138.132812 C 78.132812 137.734375 77.964844 137.765625 77.667969 138.300781 C 77.300781 139 75.199219 140.332031 74.535156 140.332031 C 74.265625 140.332031 73.632812 140.101562 73.132812 139.832031 C 72.300781 139.433594 72.101562 139.398438 71.699219 139.832031 C 71.300781 140.234375 71.132812 140.132812 70.464844 139.132812 C 70.035156 138.5 69.667969 137.832031 69.667969 137.667969 C 69.667969 137.132812 70.398438 137.265625 70.832031 137.867188 C 71.132812 138.300781 71.367188 138.332031 71.867188 138.066406 C 72.199219 137.898438 73.433594 137.632812 74.566406 137.5 C 77.667969 137.167969 78.765625 135.765625 77.398438 133.964844 C 77.066406 133.535156 76.667969 132.898438 76.566406 132.566406 C 76.433594 132.234375 76.199219 132.035156 76.035156 132.132812 C 75.566406 132.433594 75.398438 133.964844 75.800781 134.101562 C 76 134.167969 75.765625 134.632812 75.234375 135.101562 C 74.234375 136.066406 72.167969 136.765625 70.265625 136.832031 C 69.167969 136.867188 69.035156 136.765625 68.667969 135.632812 C 68.167969 134.132812 68.398438 133.667969 69.632812 133.667969 C 71.300781 133.667969 73.667969 133.234375 73.667969 132.964844 C 73.667969 132.800781 73.367188 132.667969 73.035156 132.667969 C 72.101562 132.667969 71.832031 132.066406 72.5 131.332031 C 73.035156 130.734375 73 130.699219 71.800781 130.601562 C 70.234375 130.464844 69.601562 129.601562 70.433594 128.765625 C 71.167969 128 73.265625 128.132812 74.101562 129 C 74.800781 129.765625 75.066406 129.800781 75.601562 129.265625 C 76.066406 128.800781 75.535156 128 74.765625 128 C 74.464844 128 74.332031 127.800781 74.433594 127.535156 C 74.699219 126.898438 73.898438 126.601562 71.5 126.367188 C 69.933594 126.199219 69.464844 126.035156 69.398438 125.566406 C 69.300781 125.035156 69.433594 125 70.5 125.199219 C 71.464844 125.367188 71.734375 125.332031 71.601562 124.964844 C 71.535156 124.734375 71.132812 124.433594 70.765625 124.332031 C 70.398438 124.234375 69.566406 123.699219 68.898438 123.101562 C 67.964844 122.300781 67.667969 121.765625 67.601562 120.765625 C 67.5 119.535156 67.535156 119.5 68.632812 119.398438 C 69.800781 119.265625 71.667969 119.867188 71.667969 120.367188 C 71.667969 120.765625 72.964844 121.398438 73.332031 121.167969 C 73.535156 121.035156 72.867188 120.132812 71.832031 119.167969 C 70.832031 118.167969 70 117.132812 70 116.832031 C 70 116.464844 70.265625 116.566406 70.933594 117.265625 C 71.433594 117.765625 72.066406 118.332031 72.332031 118.464844 C 72.601562 118.601562 73.367188 118.964844 74 119.300781 C 74.632812 119.667969 75.265625 119.867188 75.433594 119.765625 C 75.898438 119.464844 75.667969 118.367188 75.066406 118.167969 C 74.199219 117.898438 73.632812 116.601562 74.066406 115.867188 C 74.300781 115.433594 74.101562 114.734375 73.199219 112.964844 C 72.535156 111.667969 72 110.300781 72 109.898438 C 72 109.5 71.632812 108.132812 71.167969 106.867188 C 69.699219 102.832031 68.433594 97.898438 68.199219 95.464844 C 67.898438 92.398438 68.035156 82.667969 68.398438 80.167969 C 68.464844 79.699219 68.300781 79.464844 67.800781 79.398438 C 67.234375 79.332031 66.800781 79.765625 65.699219 81.632812 C 64.964844 82.898438 64.332031 84.101562 64.332031 84.300781 C 64.332031 84.5 64.199219 84.667969 64 84.667969 C 63.535156 84.667969 63.566406 82.898438 64.035156 82.433594 C 64.5 81.964844 65.234375 80.699219 65.535156 79.898438 C 65.632812 79.601562 65.964844 79.332031 66.199219 79.332031 C 66.464844 79.332031 66.667969 79.035156 66.667969 78.667969 C 66.667969 77.832031 66.066406 77.800781 65.765625 78.566406 C 65.632812 78.898438 65.101562 79.5 64.601562 79.933594 C 64.101562 80.367188 63.667969 81 63.667969 81.332031 C 63.667969 81.667969 63.535156 82.066406 63.332031 82.167969 C 63 82.367188 62.433594 83.566406 61.632812 85.667969 C 61.398438 86.300781 60.699219 87.632812 60.101562 88.601562 C 58.398438 91.234375 58.367188 91.398438 59.699219 91.265625 C 60.566406 91.199219 60.832031 91 60.867188 90.5 C 60.898438 90.101562 61.300781 89.167969 61.800781 88.398438 C 62.265625 87.632812 62.667969 86.632812 62.667969 86.199219 C 62.667969 85.300781 63.167969 84.800781 63.5 85.332031 C 63.734375 85.734375 62.234375 90.167969 61.265625 91.933594 C 60.933594 92.535156 60.667969 93.300781 60.667969 93.667969 C 60.667969 94.035156 60.535156 94.332031 60.398438 94.332031 C 60.234375 94.332031 59.800781 95.132812 59.367188 96.066406 C 58.964844 97.035156 58.199219 98.367188 57.699219 99 C 57.199219 99.632812 56.199219 101.066406 55.5 102.167969 C 54.300781 103.964844 54.167969 104.066406 54.066406 103.332031 C 54 102.898438 54.101562 102.464844 54.300781 102.398438 C 54.5 102.332031 54.667969 101.933594 54.667969 101.5 C 54.667969 101.035156 55.132812 100.199219 55.667969 99.601562 C 57.464844 97.632812 57.566406 97.5 57.800781 96.566406 C 57.898438 96.066406 58.167969 95.667969 58.332031 95.667969 C 58.535156 95.667969 58.667969 95.5 58.667969 95.300781 C 58.667969 95.101562 58.964844 94.566406 59.332031 94.101562 C 59.699219 93.632812 60 93.035156 60 92.800781 C 60 92.535156 59.699219 92.332031 59.332031 92.332031 C 58.964844 92.332031 58.667969 92.433594 58.667969 92.601562 C 58.667969 92.734375 58.265625 93.300781 57.765625 93.867188 C 56.265625 95.5 53.667969 99.464844 53.667969 100.066406 C 53.667969 100.367188 53.367188 101.167969 52.964844 101.800781 C 52.601562 102.433594 52.367188 103.132812 52.5 103.332031 C 52.734375 103.699219 52.066406 104.535156 49.832031 106.734375 C 43.667969 112.800781 41.667969 114.898438 41.667969 115.398438 C 41.667969 116.265625 41.035156 116.464844 40.300781 115.800781 C 39.265625 114.867188 39.535156 114.035156 41.632812 112.035156 C 43.332031 110.433594 43.601562 110 43.601562 108.964844 C 43.601562 108.300781 43.765625 107.433594 43.964844 107.066406 C 44.167969 106.699219 44.566406 105.667969 44.867188 104.800781 C 45.132812 103.898438 45.765625 102.367188 46.234375 101.433594 C 46.867188 100.132812 47.035156 99.398438 46.867188 98.601562 C 46.566406 97.199219 46.566406 96.699219 46.832031 95.667969 C 47 95 46.734375 94.5 45.5 93.101562 C 44.667969 92.167969 44 91.167969 44 90.867188 C 44 90.167969 43.367188 90.199219 42.167969 91 C 40.800781 91.898438 40.234375 91.832031 38.800781 90.535156 L 37.566406 89.398438 L 37.964844 87.300781 C 38.398438 84.800781 39.066406 83.867188 39.632812 84.964844 C 39.898438 85.433594 39.933594 85.867188 39.699219 86.300781 C 39.199219 87.199219 39.632812 87.398438 40.800781 86.734375 C 42.699219 85.699219 43.964844 84.332031 43 84.332031 C 42.832031 84.332031 42.667969 84.566406 42.667969 84.832031 C 42.667969 85.167969 42.332031 85.332031 41.667969 85.332031 C 41 85.332031 40.667969 85.167969 40.667969 84.832031 C 40.667969 84.566406 40.867188 84.332031 41.101562 84.332031 C 41.367188 84.332031 42.199219 83.867188 42.964844 83.332031 C 43.867188 82.667969 44.601562 82.367188 45 82.5 C 45.667969 82.699219 46.132812 82.199219 46.167969 81.167969 C 46.167969 80.734375 46.464844 80.464844 47.265625 80.300781 C 48.601562 80.035156 50.800781 78.601562 51.5 77.535156 C 52.234375 76.433594 53.234375 76.234375 53.734375 77.101562 C 54 77.632812 54 77.832031 53.699219 77.933594 C 53.101562 78.132812 52.332031 79 52.332031 79.5 C 52.332031 79.898438 52.535156 79.898438 53.601562 79.535156 C 54.535156 79.199219 54.800781 78.933594 54.765625 78.367188 C 54.699219 77.867188 54.898438 77.632812 55.5 77.464844 C 56.433594 77.234375 56.566406 76.632812 55.832031 76 C 55.234375 75.5 55.199219 74.933594 55.699219 74.433594 C 56 74.132812 56.300781 74.167969 56.898438 74.566406 C 57.332031 74.867188 57.800781 75 57.898438 74.867188 C 58.398438 74.367188 58.367188 71.632812 57.800781 70.5 C 57.300781 69.433594 57.300781 69.265625 57.800781 68.535156 C 58.132812 68.035156 58.199219 67.632812 58 67.5 C 57.800781 67.398438 57.667969 67.167969 57.667969 67 C 57.667969 66.535156 59.5 65.667969 60.398438 65.667969 C 60.832031 65.667969 61.5 65.433594 61.898438 65.167969 C 62.765625 64.566406 65.367188 63.601562 65.566406 63.800781 C 65.800781 64.035156 64.867188 65.332031 64.464844 65.332031 C 64.234375 65.332031 63.832031 65.699219 63.535156 66.167969 C 63.234375 66.632812 63.132812 67 63.332031 67 C 63.5 67 63.667969 66.867188 63.667969 66.699219 C 63.667969 66.535156 64.5 66.332031 65.5 66.265625 C 66.800781 66.199219 67.332031 66.300781 67.332031 66.566406 C 67.332031 66.800781 66.964844 67 66.535156 67 C 66.066406 67 65.601562 67.132812 65.5 67.332031 C 65.398438 67.5 65.035156 67.667969 64.734375 67.667969 C 64.101562 67.667969 62.332031 69.300781 62.332031 69.898438 C 62.332031 70.5 63.167969 70.433594 63.667969 69.832031 C 63.898438 69.566406 64.265625 69.332031 64.5 69.332031 C 64.734375 69.332031 65.101562 69.132812 65.300781 68.867188 C 65.667969 68.433594 69.5 67.800781 70.765625 67.964844 C 71.066406 68 71.332031 67.867188 71.332031 67.699219 C 71.332031 67.5 71.101562 67.332031 70.832031 67.332031 C 70.101562 67.332031 70.234375 66.765625 71 66.332031 C 71.464844 66.066406 71.632812 65.765625 71.5 65.332031 C 71.367188 64.898438 71.535156 64.601562 72 64.332031 C 72.433594 64.101562 72.667969 63.632812 72.667969 62.964844 C 72.667969 62.167969 72.800781 61.964844 73.265625 62.066406 C 73.667969 62.167969 73.832031 62.535156 73.867188 63.5 C 73.898438 65.433594 73.933594 65.5 74.667969 64.832031 C 75.367188 64.199219 75.566406 63.332031 75 63.332031 C 74.332031 63.332031 74.699219 62.632812 75.5 62.332031 C 76.199219 62.066406 76.332031 61.800781 76.300781 60.765625 C 76.265625 59.699219 76.234375 59.632812 76.035156 60.332031 C 75.898438 60.832031 75.535156 61.199219 75.066406 61.265625 C 73.832031 61.464844 74.167969 60.066406 76.167969 57 C 78.765625 53.066406 79.332031 52.5 79.832031 53.332031 Z M 116 56 C 116 56.433594 115.832031 56.566406 115.332031 56.433594 C 114.464844 56.199219 114.132812 55.667969 114.667969 55.332031 C 115.300781 54.933594 116 55.300781 116 56 Z M 40.667969 56.867188 C 40.667969 57.132812 40.433594 57.332031 40.167969 57.332031 C 39.667969 57.332031 39.464844 56.632812 39.867188 56.234375 C 40.199219 55.933594 40.667969 56.300781 40.667969 56.867188 Z M 39.332031 58.601562 C 39.332031 58.933594 39.101562 59.5 38.832031 59.867188 C 38.398438 60.398438 38.300781 60.433594 38 60 C 37.5 59.234375 37.601562 58.398438 38.265625 58.234375 C 39.265625 57.964844 39.332031 58 39.332031 58.601562 Z M 100.765625 59.566406 C 100.898438 59.667969 100.867188 59.933594 100.699219 60.132812 C 100.535156 60.332031 100.332031 60.800781 100.234375 61.167969 C 100.132812 61.566406 100.066406 61.300781 100.035156 60.566406 C 100 59.398438 100.265625 59.035156 100.765625 59.566406 Z M 57.667969 64.832031 C 57.667969 65.101562 57.433594 65.332031 57.167969 65.332031 C 56.898438 65.332031 56.667969 65.101562 56.667969 64.832031 C 56.667969 64.566406 56.898438 64.332031 57.167969 64.332031 C 57.433594 64.332031 57.667969 64.566406 57.667969 64.832031 Z M 69.234375 66.199219 C 69.167969 66.265625 68.832031 66.234375 68.5 66.101562 C 67.898438 65.898438 67.898438 65.867188 68.535156 65.667969 C 69.101562 65.433594 69.632812 65.832031 69.234375 66.199219 Z M 102.332031 69.898438 C 102.332031 70 102.101562 70.398438 101.765625 70.734375 C 100.832031 71.765625 99.332031 71.332031 99.800781 70.167969 C 99.964844 69.667969 102.332031 69.433594 102.332031 69.898438 Z M 84.101562 74.234375 C 84.867188 75.132812 86.933594 79.132812 87.066406 80.035156 C 87.167969 80.765625 87.035156 80.832031 85.699219 80.933594 C 84.601562 81.035156 84.132812 80.898438 83.898438 80.5 C 83.734375 80.199219 83.132812 79.667969 82.566406 79.300781 L 81.5 78.667969 L 82.433594 78.667969 C 83.535156 78.667969 83.601562 78.101562 82.667969 76.601562 C 81.898438 75.332031 81.832031 74.632812 82.398438 74.066406 C 82.964844 73.5 83.464844 73.566406 84.101562 74.234375 Z M 77.734375 78.601562 C 77.933594 78.800781 77.433594 79.101562 76.367188 79.464844 C 75.464844 79.765625 74.632812 80 74.535156 80 C 74.234375 80 74.300781 78.5 74.601562 78.199219 C 74.898438 77.867188 77.300781 78.167969 77.734375 78.601562 Z M 75.535156 82.367188 C 75.800781 82.832031 75.066406 83.332031 74.464844 83.101562 C 73.964844 82.898438 73.601562 82.066406 73.867188 81.632812 C 74.066406 81.300781 75.167969 81.765625 75.535156 82.367188 Z M 41.332031 100.566406 C 41.300781 100.734375 40.933594 101.265625 40.5 101.832031 C 39.867188 102.601562 39.667969 102.699219 39.667969 102.234375 C 39.667969 101.933594 39.933594 101.367188 40.265625 101.035156 C 40.867188 100.367188 41.332031 100.167969 41.332031 100.566406 Z M 59.667969 100.800781 C 59.667969 101.332031 59.066406 101.832031 58.765625 101.535156 C 58.5 101.265625 58.933594 100.332031 59.332031 100.332031 C 59.5 100.332031 59.667969 100.535156 59.667969 100.800781 Z M 61.800781 102.734375 C 61.933594 103.699219 62 104.632812 62 104.832031 C 61.933594 106.464844 61.734375 107.101562 61.234375 107.367188 C 60.535156 107.765625 60.800781 108.332031 61.699219 108.332031 C 62.199219 108.332031 62.332031 108.566406 62.332031 109.632812 L 62.332031 110.933594 L 61 110.300781 C 60.265625 109.933594 59.265625 109.5 58.800781 109.332031 C 58.066406 109.035156 57.964844 108.867188 58.167969 108.066406 C 58.300781 107.566406 58.464844 106.367188 58.566406 105.398438 C 58.734375 103.464844 59.464844 103.035156 59.800781 104.667969 C 60.101562 106.265625 60.800781 105.898438 60.566406 104.234375 C 60.367188 102.867188 60.898438 100.566406 61.367188 100.832031 C 61.464844 100.933594 61.667969 101.765625 61.800781 102.734375 Z M 67.800781 103.5 C 67.898438 103.765625 67.898438 104.199219 67.800781 104.464844 C 67.699219 104.734375 67.765625 105.035156 67.964844 105.167969 C 68.167969 105.265625 68.332031 105.601562 68.332031 105.898438 C 68.332031 106.332031 68.167969 106.300781 67.5 105.667969 C 66.601562 104.800781 66.167969 103.867188 66.5 103.332031 C 66.800781 102.832031 67.566406 102.933594 67.800781 103.5 Z M 51.667969 108 C 51.667969 108.433594 52.867188 108.433594 53.699219 107.964844 C 54.367188 107.632812 54.367188 107.632812 53.800781 108.464844 C 53.199219 109.433594 51.632812 110.035156 51.398438 109.367188 C 51.300781 109.101562 51.132812 109.066406 50.867188 109.300781 C 50.632812 109.5 50.300781 109.5 50 109.332031 C 49.601562 109.066406 49.632812 108.933594 50.167969 108.367188 C 50.898438 107.667969 51.667969 107.464844 51.667969 108 Z M 53.367188 113.464844 C 53.734375 113.933594 54.632812 114.5 55.398438 114.734375 C 56.132812 114.933594 56.800781 115.332031 56.898438 115.566406 C 57 115.800781 57.265625 116 57.535156 116 C 57.800781 116 58 116.234375 58 116.5 C 58 116.765625 58.234375 117 58.535156 117 C 58.933594 117 59.035156 117.199219 58.867188 117.800781 C 58.765625 118.265625 58.832031 118.734375 59.035156 118.832031 C 59.199219 118.964844 59.535156 119.398438 59.699219 119.765625 C 59.898438 120.167969 60.300781 121 60.632812 121.632812 C 60.964844 122.265625 61.167969 123.066406 61.066406 123.398438 C 61 123.734375 61.300781 124.5 61.800781 125.132812 C 63.132812 126.898438 63.234375 131.265625 61.964844 133.734375 C 61.800781 134.066406 61.667969 134.867188 61.667969 135.535156 C 61.667969 136.332031 61.535156 136.667969 61.265625 136.566406 C 60.800781 136.433594 60.765625 134.832031 61.167969 133.167969 C 61.734375 130.800781 61.734375 127.332031 61.132812 125.832031 C 60.832031 125 60.464844 124.332031 60.332031 124.332031 C 60.167969 124.332031 59.933594 123.933594 59.734375 123.398438 C 59.566406 122.898438 59.066406 122.132812 58.601562 121.667969 C 58.132812 121.199219 57.699219 120.566406 57.566406 120.234375 C 57.332031 119.601562 56.667969 119.433594 56.667969 120.035156 C 56.667969 120.234375 56.867188 120.800781 57.132812 121.265625 C 57.398438 121.765625 58.035156 123.199219 58.566406 124.5 C 59.464844 126.765625 59.5 127 59.566406 133.898438 C 59.601562 137.800781 59.535156 141 59.398438 141 C 59.265625 141 58.933594 140.300781 58.699219 139.398438 C 58.433594 138.535156 57.964844 137.5 57.632812 137.066406 C 57.332031 136.667969 56.964844 135.734375 56.832031 135 C 56.699219 134.265625 56.398438 133.535156 56.132812 133.398438 C 55.800781 133.199219 55.601562 132.398438 55.5 130.898438 C 55.367188 128.5 55.199219 128 54.535156 128 C 53.964844 128 49.667969 132.199219 49.667969 132.765625 C 49.667969 133 49.367188 133.433594 49 133.765625 C 48.632812 134.101562 48.332031 134.734375 48.332031 135.300781 C 48.332031 136.566406 47.535156 136.832031 46.5 135.933594 C 44.734375 134.398438 45.699219 130.964844 49.566406 125.167969 C 51.734375 121.898438 51.964844 120.601562 51.167969 116.332031 C 50.867188 114.632812 50.5 112.898438 50.332031 112.5 C 50.167969 112.066406 50.132812 111.667969 50.234375 111.566406 C 50.535156 111.265625 52.632812 112.535156 53.367188 113.464844 Z M 46.867188 119.734375 C 46.601562 120.535156 46.132812 121.765625 45.800781 122.5 C 45.132812 124.101562 44.5 127.035156 44.167969 130.066406 C 43.933594 132.265625 44.132812 133.734375 45.199219 137.535156 C 45.867188 139.964844 45.800781 140.300781 44.832031 139.234375 C 43.035156 137.332031 41.734375 132.234375 42.132812 128.765625 C 42.5 125.667969 44.167969 121.566406 46.464844 118.101562 C 47.066406 117.167969 47.167969 117.101562 47.265625 117.632812 C 47.332031 118 47.167969 118.933594 46.867188 119.734375 Z M 104.101562 119.5 C 104.132812 119.667969 103.898438 119.867188 103.601562 119.933594 C 103.234375 120 103 119.832031 103 119.5 C 103 118.933594 104 118.898438 104.101562 119.5 Z M 68.167969 124.699219 C 68.035156 124.867188 67.734375 125 67.433594 125 C 67 125 67 124.898438 67.332031 124.5 C 67.765625 124 68.5 124.132812 68.167969 124.699219 Z M 116.667969 124.632812 C 116.667969 125.035156 116 125.464844 115.765625 125.234375 C 115.535156 125 115.964844 124.332031 116.367188 124.332031 C 116.535156 124.332031 116.667969 124.464844 116.667969 124.632812 Z M 68.132812 126.734375 C 68.832031 127.832031 69 131.167969 68.332031 131.167969 C 68 131.167969 67.765625 130.699219 67.632812 129.832031 C 67.535156 129.101562 67.265625 128.167969 67.035156 127.734375 C 66.234375 126.265625 67.234375 125.367188 68.132812 126.734375 Z M 94.167969 128.667969 C 94.066406 128.832031 93.667969 129 93.300781 129 C 92.964844 129 92.667969 128.832031 92.667969 128.667969 C 92.667969 128.464844 93.066406 128.332031 93.535156 128.332031 C 94 128.332031 94.300781 128.464844 94.167969 128.667969 Z M 52.667969 131.933594 C 52.667969 132.101562 52.433594 132.5 52.167969 132.867188 C 51.667969 133.5 51.5 133.132812 51.867188 132.199219 C 52.066406 131.632812 52.667969 131.464844 52.667969 131.933594 Z M 91.167969 138.332031 C 91 138.898438 91.101562 139 91.964844 139 C 92.964844 139 93 139.066406 93 140.5 C 93 141.300781 92.800781 142.101562 92.566406 142.234375 C 92.035156 142.566406 90.800781 145.199219 90.5 146.601562 C 90.300781 147.5 90.199219 147.632812 89.800781 147.300781 C 89.167969 146.765625 88.332031 147.464844 88.332031 148.535156 C 88.332031 149.167969 88.167969 149.332031 87.535156 149.332031 C 87.035156 149.332031 86.398438 149.734375 85.898438 150.332031 C 84.667969 151.765625 84.132812 151.632812 83.898438 149.800781 C 83.699219 147.765625 83.332031 147.464844 81.964844 148.132812 C 81.367188 148.433594 80.734375 148.667969 80.535156 148.667969 C 79.867188 148.667969 76.734375 151.898438 75.964844 153.367188 C 75.566406 154.167969 74.898438 155.332031 74.5 156 C 74.066406 156.632812 73.632812 157.699219 73.464844 158.332031 C 73.265625 159.332031 73.199219 159.398438 72.964844 158.832031 C 72.832031 158.464844 72.699219 157.300781 72.699219 156.265625 C 72.632812 152.832031 75.367188 148.332031 77.5 148.332031 C 77.898438 148.332031 78.433594 148.101562 78.667969 147.832031 C 78.898438 147.566406 79.300781 147.332031 79.566406 147.332031 C 79.933594 147.332031 81.867188 146.5 82.265625 146.167969 C 82.300781 146.132812 82.101562 145.632812 81.765625 145.066406 C 81.035156 143.800781 81.566406 142.933594 82.933594 143.199219 C 83.699219 143.332031 84.199219 143.035156 86 141.300781 C 89.367188 138.132812 91.667969 136.800781 91.167969 138.332031 Z M 81.933594 141.265625 C 82.234375 141.933594 82.199219 142.035156 81.800781 141.867188 C 81.234375 141.667969 78 143.066406 76.699219 144.066406 C 76.265625 144.398438 75.667969 144.667969 75.332031 144.667969 C 75.035156 144.667969 74.5 144.964844 74.167969 145.332031 C 73.832031 145.699219 73.464844 146 73.332031 146 C 73.132812 146 72.535156 144.898438 71.332031 142.332031 C 71.199219 142.035156 71.265625 141.535156 71.535156 141.199219 C 71.964844 140.601562 72.035156 140.632812 73.167969 141.632812 C 73.832031 142.199219 74.5 142.667969 74.667969 142.667969 C 74.832031 142.667969 75.667969 142.167969 76.5 141.566406 C 77.367188 141 78.535156 140.265625 79.101562 139.964844 C 80.066406 139.464844 80.199219 139.464844 80.832031 139.933594 C 81.234375 140.234375 81.734375 140.832031 81.933594 141.265625 Z M 64.898438 142.199219 C 65 142.5 64.933594 143 64.734375 143.300781 C 64.167969 144.066406 63 146.398438 63 146.734375 C 63 146.898438 63.433594 146.699219 63.964844 146.300781 C 65.464844 145.199219 65.867188 145.667969 64.601562 147.035156 C 64 147.699219 63.265625 148.601562 63 149 C 62.734375 149.433594 62.234375 150 61.933594 150.300781 C 61.601562 150.601562 61.332031 151.300781 61.332031 151.898438 C 61.332031 152.800781 61.167969 153.101562 60.5 153.332031 C 59.800781 153.601562 59.699219 153.800781 59.867188 154.464844 C 60 155.035156 59.832031 155.5 59.332031 156 C 58.933594 156.398438 58.699219 156.933594 58.800781 157.199219 C 58.898438 157.464844 58.765625 158.167969 58.5 158.765625 C 58.234375 159.332031 57.933594 160.832031 57.832031 162.066406 C 57.601562 164.5 57.132812 165.265625 56.832031 163.765625 C 56.699219 163.265625 56.433594 162.300781 56.167969 161.667969 C 55.933594 161.035156 55.535156 158.964844 55.332031 157.066406 C 54.667969 151.5 55.699219 147.699219 58.566406 145.367188 C 59.265625 144.800781 60.199219 144.332031 60.667969 144.332031 C 61.234375 144.332031 61.964844 143.867188 62.800781 143 C 64.167969 141.535156 64.566406 141.398438 64.898438 142.199219 Z M 83 152 C 83.265625 152.5 83.265625 152.800781 82.933594 153.167969 C 82.167969 154.035156 81.800781 154.5 81.398438 155.167969 C 81.035156 155.832031 81 155.832031 80.800781 155.066406 C 80.535156 154.199219 80.066406 154.132812 79.5 154.898438 C 79.234375 155.234375 78.867188 155.367188 78.5 155.199219 C 77.964844 155 78 154.867188 79 153.832031 C 79.632812 153.199219 80.300781 152.667969 80.5 152.667969 C 80.699219 152.667969 81.101562 152.367188 81.433594 152 C 82.132812 151.167969 82.535156 151.167969 83 152 Z M 86.464844 154.832031 C 86.699219 155.800781 87.066406 155.898438 87.667969 155.167969 C 88.234375 154.464844 88.667969 154.535156 88.667969 155.332031 C 88.667969 155.699219 88.535156 156 88.398438 156 C 88.234375 156 87.765625 156.300781 87.332031 156.667969 C 86.898438 157.035156 86.367188 157.332031 86.132812 157.332031 C 85.632812 157.332031 84.867188 155.167969 85.132812 154.5 C 85.433594 153.699219 86.234375 153.933594 86.464844 154.832031 Z M 98 156 C 98.699219 156.433594 98.632812 159.167969 97.832031 162.433594 C 97.132812 165.5 96.667969 165.265625 96.667969 161.832031 C 96.667969 159.234375 96.398438 157.933594 95.964844 158.199219 C 95.800781 158.300781 95.667969 158.933594 95.632812 159.601562 C 95.632812 160.265625 95.433594 161.265625 95.234375 161.832031 C 94.566406 163.464844 92.601562 167 92.300781 167 C 92.167969 167 91.933594 166.667969 91.800781 166.234375 C 91.667969 165.832031 91.433594 165.398438 91.265625 165.300781 C 91.066406 165.167969 90.898438 164.566406 90.832031 163.964844 C 90.734375 162.601562 93.035156 157.566406 94.265625 156.433594 C 95.132812 155.632812 97.066406 155.398438 98 156 Z M 77.667969 156.632812 C 77.667969 156.800781 77.464844 157.101562 77.199219 157.300781 C 76.933594 157.535156 76.632812 158.433594 76.5 159.332031 C 76.265625 161 75.632812 161.898438 75 161.5 C 74.5 161.199219 74.601562 160.332031 75.167969 160.132812 C 75.433594 160 75.667969 159.632812 75.667969 159.265625 C 75.667969 158.464844 76.898438 156.332031 77.367188 156.332031 C 77.535156 156.332031 77.667969 156.464844 77.667969 156.632812 Z M 78.066406 163.765625 C 77.898438 164 77.667969 164.699219 77.535156 165.332031 C 77.398438 165.964844 77.035156 166.867188 76.667969 167.332031 L 76 168.167969 L 76.066406 166.332031 C 76.167969 164.800781 76.300781 164.433594 76.933594 164.167969 C 77.332031 164 77.765625 163.535156 77.898438 163.167969 C 78.035156 162.734375 78.167969 162.667969 78.265625 162.933594 C 78.332031 163.167969 78.265625 163.535156 78.066406 163.765625 Z M 108.765625 171.933594 C 108.566406 172.699219 104.199219 177.332031 103.699219 177.332031 C 103.5 177.332031 103.332031 177.464844 103.332031 177.667969 C 103.332031 178.167969 102.101562 178.066406 101.535156 177.5 C 100.832031 176.765625 101.167969 176.101562 103.265625 174.066406 C 104.601562 172.800781 105.433594 172.265625 106.398438 172.132812 C 107.101562 172 107.765625 171.765625 107.867188 171.632812 C 108.199219 171.066406 108.933594 171.332031 108.765625 171.933594 Z M 108.765625 171.933594 "/>
<path style=" stroke:none;fill-rule:nonzero;fill:rgb(0%,0%,0%);fill-opacity:1;" d="M 90.667969 22.300781 C 90.667969 22.667969 91.132812 23.300781 91.667969 23.734375 C 93.035156 24.800781 95.667969 27.265625 95.667969 27.5 C 95.667969 27.832031 97.132812 29.667969 97.398438 29.667969 C 97.933594 29.667969 97.632812 28.765625 96.667969 27.464844 C 96.132812 26.765625 95.667969 26.035156 95.667969 25.867188 C 95.667969 25.234375 91.535156 21.667969 90.832031 21.667969 C 90.734375 21.667969 90.667969 21.964844 90.667969 22.300781 Z M 90.667969 22.300781 "/>
<path style=" stroke:none;fill-rule:nonzero;fill:rgb(0%,0%,0%);fill-opacity:1;" d="M 92 31.632812 C 92 32.234375 92.800781 34.199219 93.265625 34.734375 C 94.367188 36.035156 95.398438 34.765625 94.667969 33.035156 C 94.199219 31.898438 92 30.734375 92 31.632812 Z M 92 31.632812 "/>
<path style=" stroke:none;fill-rule:nonzero;fill:rgb(0%,0%,0%);fill-opacity:1;" d="M 67.734375 70.300781 C 66.933594 70.964844 66.632812 71.5 66.699219 72.035156 C 66.832031 73.167969 65.933594 74.398438 64 75.632812 C 62.066406 76.898438 60.867188 78.433594 61.101562 79.367188 C 61.234375 79.832031 60.898438 80.367188 60.101562 81.167969 C 58.964844 82.265625 58.933594 82.367188 59.332031 83.332031 C 59.832031 84.535156 60.199219 84.601562 60.535156 83.566406 C 60.667969 83.167969 61.167969 82.300781 61.667969 81.667969 C 62.167969 81.035156 62.667969 80.234375 62.765625 79.898438 C 62.898438 79.601562 63.132812 79.332031 63.332031 79.332031 C 63.5 79.332031 63.667969 79.132812 63.667969 78.867188 C 63.667969 78.601562 64.132812 78 64.667969 77.566406 C 65.234375 77.101562 65.667969 76.566406 65.667969 76.367188 C 65.667969 76.199219 66.433594 75.300781 67.332031 74.398438 C 68.867188 72.867188 68.964844 72.667969 68.667969 71.832031 C 68.300781 70.832031 68.464844 70.332031 69.199219 70.332031 C 69.464844 70.332031 69.667969 70.101562 69.667969 69.832031 C 69.667969 69.066406 68.964844 69.265625 67.734375 70.300781 Z M 67.734375 70.300781 "/>
<path style=" stroke:none;fill-rule:nonzero;fill:rgb(0%,0%,0%);fill-opacity:1;" d="M 58 83.832031 C 58 84.101562 58.167969 84.332031 58.332031 84.332031 C 58.535156 84.332031 58.667969 84.101562 58.667969 83.832031 C 58.667969 83.566406 58.535156 83.332031 58.332031 83.332031 C 58.167969 83.332031 58 83.566406 58 83.832031 Z M 58 83.832031 "/>
<path style=" stroke:none;fill-rule:nonzero;fill:rgb(0%,0%,0%);fill-opacity:1;" d="M 48.332031 84 C 48.332031 84.167969 48.632812 84.332031 49 84.332031 C 49.367188 84.332031 49.667969 84.167969 49.667969 84 C 49.667969 83.800781 49.367188 83.667969 49 83.667969 C 48.632812 83.667969 48.332031 83.800781 48.332031 84 Z M 48.332031 84 "/>
<path style=" stroke:none;fill-rule:nonzero;fill:rgb(0%,0%,0%);fill-opacity:1;" d="M 50.398438 84.367188 C 50 85 50.035156 85 50.667969 84.667969 C 51.035156 84.464844 51.332031 84.167969 51.332031 84 C 51.332031 83.433594 50.832031 83.632812 50.398438 84.367188 Z M 50.398438 84.367188 "/>
<path style=" stroke:none;fill-rule:nonzero;fill:rgb(0%,0%,0%);fill-opacity:1;" d="M 45.601562 86.632812 C 45.167969 86.964844 44.535156 87.332031 44.167969 87.464844 C 43.734375 87.667969 43.632812 87.800781 43.933594 87.898438 C 44.167969 88 44.867188 87.832031 45.464844 87.535156 C 46.101562 87.234375 46.765625 87 46.964844 87 C 47.5 87 47.433594 86.433594 46.867188 86.234375 C 46.601562 86.132812 46.035156 86.300781 45.601562 86.632812 Z M 45.601562 86.632812 "/>
<path style=" stroke:none;fill-rule:nonzero;fill:rgb(0%,0%,0%);fill-opacity:1;" d="M 49.832031 87.332031 C 48.734375 87.867188 47.667969 88.332031 47.464844 88.332031 C 47.265625 88.332031 46.898438 88.535156 46.699219 88.800781 C 46.464844 89.066406 45.832031 89.398438 45.300781 89.5 C 44.765625 89.632812 44.332031 89.867188 44.332031 90.035156 C 44.332031 90.5 46.101562 90.367188 46.800781 89.832031 C 47.167969 89.566406 47.632812 89.332031 47.867188 89.332031 C 48.5 89.332031 52.332031 87.035156 52.332031 86.667969 C 52.332031 86.167969 52 86.265625 49.832031 87.332031 Z M 49.832031 87.332031 "/>
<path style=" stroke:none;fill-rule:nonzero;fill:rgb(0%,0%,0%);fill-opacity:1;" d="M 55.832031 87 C 55.734375 87.367188 55.464844 87.667969 55.300781 87.667969 C 55.132812 87.667969 55 87.832031 55 88.035156 C 55 88.234375 55.464844 88.066406 56 87.667969 C 57.066406 86.898438 57.300781 86.332031 56.535156 86.332031 C 56.265625 86.332031 55.933594 86.632812 55.832031 87 Z M 55.832031 87 "/>
<path style=" stroke:none;fill-rule:nonzero;fill:rgb(0%,0%,0%);fill-opacity:1;" d="M 50.433594 91.566406 C 50.199219 91.632812 50 91.867188 50 92.066406 C 50 92.464844 51.367188 92.265625 51.367188 91.832031 C 51.398438 91.433594 51 91.332031 50.433594 91.566406 Z M 50.433594 91.566406 "/>
<path style=" stroke:none;fill-rule:nonzero;fill:rgb(0%,0%,0%);fill-opacity:1;" d="M 48.535156 93.035156 C 48.199219 93.433594 48 94.035156 48.101562 94.367188 C 48.199219 94.699219 48.132812 95.101562 47.964844 95.199219 C 47.566406 95.433594 47.601562 96 48 96 C 48.199219 96 48.332031 95.832031 48.332031 95.667969 C 48.332031 95.464844 48.632812 95.035156 49 94.667969 C 49.632812 94.035156 49.933594 92.332031 49.398438 92.332031 C 49.265625 92.332031 48.867188 92.667969 48.535156 93.035156 Z M 48.535156 93.035156 "/>
<path style=" stroke:none;fill-rule:nonzero;fill:rgb(0%,0%,0%);fill-opacity:1;" d="M 87.898438 92.898438 C 87.566406 93.199219 87.632812 94.332031 87.964844 94.332031 C 88.132812 94.332031 88.332031 93.964844 88.398438 93.5 C 88.566406 92.699219 88.332031 92.433594 87.898438 92.898438 Z M 87.898438 92.898438 "/>
<path style=" stroke:none;fill-rule:nonzero;fill:rgb(0%,0%,0%);fill-opacity:1;" d="M 86.898438 95.234375 C 86.566406 95.566406 86.632812 97.332031 86.964844 97.332031 C 87.265625 97.332031 87.667969 96.234375 87.667969 95.398438 C 87.667969 94.964844 87.234375 94.867188 86.898438 95.234375 Z M 86.898438 95.234375 "/>
<path style=" stroke:none;fill-rule:nonzero;fill:rgb(0%,0%,0%);fill-opacity:1;" d="M 85.933594 97.535156 C 85.765625 97.667969 85.667969 98.199219 85.667969 98.667969 C 85.667969 99.167969 85.433594 99.765625 85.167969 100 C 84.898438 100.234375 84.667969 100.832031 84.667969 101.367188 C 84.667969 101.867188 84.535156 102.367188 84.398438 102.464844 C 84.035156 102.667969 83.199219 106.332031 83.433594 106.566406 C 83.832031 106.933594 84.332031 106.265625 84.332031 105.398438 C 84.332031 104.898438 84.566406 104.066406 84.832031 103.566406 C 85.101562 103.066406 85.398438 102.066406 85.535156 101.398438 C 85.667969 100.734375 85.898438 100 86.066406 99.765625 C 86.433594 99.300781 86.300781 97.132812 85.933594 97.535156 Z M 85.933594 97.535156 "/>
<path style=" stroke:none;fill-rule:nonzero;fill:rgb(0%,0%,0%);fill-opacity:1;" d="M 45.433594 107.265625 C 45.035156 108.234375 44.832031 109 44.933594 109 C 45.464844 108.964844 46.367188 107.234375 46.265625 106.433594 C 46.167969 105.667969 46.066406 105.765625 45.433594 107.265625 Z M 45.433594 107.265625 "/>
<path style=" stroke:none;fill-rule:nonzero;fill:rgb(0%,0%,0%);fill-opacity:1;" d="M 74.867188 106.832031 C 75.367188 108.800781 76.964844 112.5 77.398438 112.601562 C 77.699219 112.667969 77.867188 112.167969 77.933594 110.898438 C 78.035156 109.234375 77.964844 109.066406 76.601562 107.566406 C 74.964844 105.800781 74.566406 105.632812 74.867188 106.832031 Z M 74.867188 106.832031 "/>
<path style=" stroke:none;fill-rule:nonzero;fill:rgb(0%,0%,0%);fill-opacity:1;" d="M 73.933594 122.632812 C 73.699219 123.035156 73.300781 123.332031 73.066406 123.332031 C 72.800781 123.332031 72.667969 123.632812 72.734375 124.066406 C 72.800781 124.667969 73.035156 124.800781 73.667969 124.734375 C 74.734375 124.632812 75 124.300781 75.101562 123.167969 C 75.167969 122.035156 74.5 121.699219 73.933594 122.632812 Z M 73.933594 122.632812 "/>
<path style=" stroke:none;fill-rule:nonzero;fill:rgb(0%,0%,0%);fill-opacity:1;" d="M 79.5 122.667969 C 79.398438 122.867188 79.535156 123.101562 79.800781 123.199219 C 80.5 123.464844 81.433594 123.101562 81.167969 122.667969 C 80.898438 122.234375 79.765625 122.234375 79.5 122.667969 Z M 79.5 122.667969 "/>
<path style=" stroke:none;fill-rule:nonzero;fill:rgb(0%,0%,0%);fill-opacity:1;" d="M 78.800781 130.5 C 78.667969 130.800781 78.734375 131.199219 78.933594 131.398438 C 79.464844 131.933594 80.5 131.566406 80.5 130.832031 C 80.5 129.964844 79.101562 129.699219 78.800781 130.5 Z M 78.800781 130.5 "/>
<path style=" stroke:none;fill-rule:nonzero;fill:rgb(0%,0%,0%);fill-opacity:1;" d="M 73.667969 131.832031 C 73.667969 132.101562 73.898438 132.332031 74.167969 132.332031 C 74.433594 132.332031 74.667969 132.101562 74.667969 131.832031 C 74.667969 131.566406 74.433594 131.332031 74.167969 131.332031 C 73.898438 131.332031 73.667969 131.566406 73.667969 131.832031 Z M 73.667969 131.832031 "/>
<path style=" stroke:none;fill-rule:nonzero;fill:rgb(0%,0%,0%);fill-opacity:1;" d="M 80.433594 133.898438 C 79.601562 134.464844 79.398438 135.332031 80.132812 135.332031 C 80.734375 135.332031 81.398438 134.464844 81.265625 133.898438 C 81.167969 133.464844 81.066406 133.464844 80.433594 133.898438 Z M 80.433594 133.898438 "/>
<path style=" stroke:none;fill-rule:nonzero;fill:rgb(0%,0%,0%);fill-opacity:1;" d="M 51.832031 127.699219 C 51.699219 127.898438 51.667969 128.132812 51.765625 128.234375 C 52 128.464844 52.667969 128.035156 52.667969 127.632812 C 52.667969 127.234375 52.101562 127.234375 51.832031 127.699219 Z M 51.832031 127.699219 "/>
<path style=" stroke:none;fill-rule:nonzero;fill:rgb(0%,0%,0%);fill-opacity:1;" d="M 57.066406 130 C 57.066406 130.632812 57.132812 130.898438 57.234375 130.566406 C 57.300781 130.265625 57.300781 129.734375 57.234375 129.398438 C 57.132812 129.101562 57.066406 129.367188 57.066406 130 Z M 57.066406 130 "/>
</g>
</svg>
