<?xml version="1.0" standalone="no"?>
<!DOCTYPE svg PUBLIC "-//W3C//DTD SVG 20010904//EN"
 "http://www.w3.org/TR/2001/REC-SVG-20010904/DTD/svg10.dtd">
<svg version="1.0" xmlns="http://www.w3.org/2000/svg"
 width="1080.000000pt" height="1080.000000pt" viewBox="0 0 1080.000000 1080.000000"
 preserveAspectRatio="xMidYMid meet">

<g transform="translate(0.000000,1080.000000) scale(0.100000,-0.100000)"
fill="#000000" stroke="none">
<path d="M5304 8992 c-114 -41 -215 -148 -298 -317 -41 -84 -86 -191 -86 -207
0 -3 15 -9 33 -13 17 -3 60 -16 95 -27 35 -11 65 -18 66 -17 2 2 17 35 34 73
65 141 167 267 228 282 119 30 300 -309 389 -729 99 -467 117 -1080 48 -1664
l-6 -53 273 0 272 0 -6 33 c-12 72 -39 288 -35 291 17 15 435 189 602 250 26
10 47 21 47 24 0 7 -40 115 -44 120 -5 5 -280 -130 -446 -218 -92 -50 -170
-90 -173 -90 -2 0 -8 28 -11 63 -4 34 -28 183 -52 331 -166 996 -364 1591
-595 1790 -101 86 -229 116 -335 78z"/>
<path d="M4779 8296 c-83 -29 -147 -86 -191 -169 -20 -36 -23 -57 -23 -142 0
-92 2 -104 29 -153 60 -108 148 -163 271 -170 106 -5 179 21 248 90 71 71 92
123 92 233 0 78 -4 97 -28 147 -55 111 -166 178 -295 178 -37 -1 -83 -7 -103
-14z"/>
<path d="M4726 7448 c-14 -177 -25 -398 -26 -500 0 -60 -4 -108 -8 -108 -5 0
-53 18 -108 40 -429 175 -973 355 -1325 440 -400 95 -692 99 -851 13 -248
-135 -234 -414 39 -756 l54 -67 57 59 c31 32 65 63 75 68 16 9 12 19 -46 105
-108 162 -148 297 -103 347 81 90 436 64 824 -60 408 -131 975 -434 1389 -743
l103 -76 23 38 c57 92 250 433 246 435 -2 2 -70 30 -151 63 l-147 59 5 40 c22
195 58 469 72 556 l19 107 -36 6 c-20 3 -50 8 -67 12 l-31 6 -7 -84z"/>
<path d="M7245 7432 c-113 -54 -176 -149 -183 -277 -5 -104 20 -175 86 -243
73 -74 128 -97 237 -97 106 0 163 23 231 90 68 68 89 124 89 235 0 80 -4 102
-23 138 -36 68 -92 123 -157 154 -50 23 -73 28 -140 28 -67 0 -90 -5 -140 -28z"/>
<path d="M8000 7375 c-8 -2 -54 -9 -101 -15 l-87 -12 19 -54 c11 -30 22 -74
25 -97 l6 -42 167 0 c181 0 235 -11 281 -60 19 -20 22 -32 18 -69 -14 -119
-142 -310 -348 -517 -245 -246 -522 -451 -925 -684 -126 -73 -422 -221 -540
-271 -49 -20 -94 -41 -99 -45 -8 -7 251 -469 263 -469 3 0 61 43 128 95 67 52
125 95 129 95 9 0 371 -273 474 -358 l85 -70 42 46 c23 26 42 50 43 53 0 12
-288 204 -532 355 l-47 30 101 79 c326 253 683 568 943 829 192 193 296 315
387 456 94 143 130 239 136 356 5 111 -12 171 -65 233 -79 93 -182 132 -363
137 -69 2 -132 1 -140 -1z"/>
<path d="M2810 6561 c-90 -29 -174 -104 -213 -189 -16 -36 -22 -67 -22 -127 0
-71 4 -88 33 -147 33 -68 81 -116 152 -154 55 -29 219 -27 282 4 249 123 242
482 -11 595 -50 22 -177 33 -221 18z"/>
<path d="M5239 6055 c-195 -49 -356 -179 -445 -360 -54 -111 -74 -201 -70
-320 7 -182 71 -331 196 -455 85 -84 155 -129 262 -168 67 -24 86 -27 218 -27
132 0 151 3 218 27 107 39 177 84 262 168 125 124 189 273 196 455 4 120 -16
209 -72 324 -78 158 -214 278 -386 338 -61 22 -94 27 -198 29 -84 2 -143 -1
-181 -11z"/>
<path d="M3262 5940 c-23 -27 -42 -51 -42 -54 0 -6 403 -274 514 -341 l66 -41
-78 -59 c-504 -388 -1072 -919 -1281 -1199 -227 -302 -275 -547 -138 -702 106
-120 309 -158 608 -113 l77 11 -19 55 c-11 29 -22 73 -25 96 l-6 42 -167 0
c-181 0 -235 11 -281 60 -72 77 66 320 335 590 153 154 259 243 446 378 287
206 684 431 1008 571 56 24 104 46 108 49 6 7 -256 467 -266 467 -3 0 -62 -43
-130 -96 l-124 -96 -66 46 c-70 49 -335 252 -437 335 l-60 50 -42 -49z"/>
<path d="M7788 4855 c-233 -89 -289 -391 -102 -554 65 -57 117 -76 214 -76
107 0 169 26 235 96 67 72 89 127 90 224 0 71 -4 88 -33 147 -34 69 -82 117
-152 154 -47 24 -199 30 -252 9z"/>
<path d="M5863 4348 c-73 -127 -130 -235 -128 -238 3 -4 70 -34 149 -66 l145
-58 -5 -41 c-23 -204 -58 -469 -72 -556 l-18 -105 64 -12 c36 -7 66 -11 67
-10 6 8 26 308 32 487 3 111 9 201 13 201 3 0 57 -21 120 -46 200 -81 528
-200 737 -267 872 -283 1317 -316 1516 -110 149 152 103 393 -130 686 l-54 67
-52 -53 c-29 -30 -62 -61 -74 -69 l-23 -15 64 -96 c108 -164 147 -296 102
-346 -37 -41 -115 -54 -276 -48 -305 12 -656 122 -1109 347 -302 151 -543 296
-804 487 -70 51 -129 93 -130 93 -1 -1 -61 -105 -134 -232z"/>
<path d="M4450 4467 c0 -1 9 -65 20 -142 11 -77 20 -149 20 -161 0 -17 -32
-34 -202 -107 -112 -47 -256 -106 -322 -131 -65 -25 -120 -47 -123 -50 -3 -2
5 -32 17 -65 l22 -60 32 13 c88 38 230 109 399 198 104 55 190 98 191 96 2 -2
8 -43 15 -93 77 -551 202 -1135 321 -1498 121 -367 252 -572 418 -654 48 -24
70 -28 137 -28 67 0 89 4 136 28 102 50 198 163 274 324 34 71 75 172 75 185
0 3 -23 11 -52 17 -28 6 -71 20 -95 31 l-43 19 -35 -75 c-68 -148 -169 -275
-231 -290 -92 -23 -218 163 -319 469 -150 455 -201 1173 -130 1815 8 74 15
140 15 148 0 12 -45 14 -270 14 -148 0 -270 -1 -270 -3z"/>
<path d="M3310 3964 c-147 -54 -227 -176 -218 -333 8 -123 68 -215 180 -271
53 -26 72 -30 143 -30 71 0 90 4 143 30 114 57 173 148 180 275 3 65 0 91 -18
138 -26 69 -95 143 -164 177 -65 31 -181 37 -246 14z"/>
<path d="M5794 3110 c-71 -28 -137 -89 -171 -158 -24 -50 -28 -69 -28 -147 0
-111 21 -163 94 -234 155 -151 411 -111 516 80 28 50 30 62 30 154 0 85 -3
106 -23 143 -34 63 -84 114 -144 147 -72 39 -196 46 -274 15z"/>
</g>
</svg>
