<svg width="200" height="200" viewBox="0 0 200 200" fill="none" xmlns="http://www.w3.org/2000/svg">
<path d="M99 198C153.676 198 198 153.676 198 99C198 44.3238 153.676 0 99 0C44.3238 0 0 44.3238 0 99C0 153.676 44.3238 198 99 198Z" fill="white"/>
<path d="M136.725 170.38C157.005 170.38 173.445 153.94 173.445 133.661C173.445 113.382 157.005 96.9423 136.725 96.9423C116.445 96.9423 100.005 113.382 100.005 133.661C100.005 153.94 116.445 170.38 136.725 170.38Z" fill="white"/>
<path d="M136.724 164.698C153.865 164.698 167.761 150.802 167.761 133.661C167.761 116.52 153.865 102.624 136.724 102.624C119.583 102.624 105.688 116.52 105.688 133.661C105.688 150.802 119.583 164.698 136.724 164.698Z" fill="#00AAD9"/>
<path d="M148.628 129.477H147.079V124.828C147.079 122.225 146.045 119.729 144.204 117.889C142.364 116.048 139.868 115.014 137.265 115.014C134.663 115.014 132.166 116.048 130.326 117.889C128.486 119.729 127.452 122.225 127.452 124.828V129.477H125.904C125.082 129.477 124.293 129.804 123.712 130.385C123.13 130.966 122.804 131.755 122.804 132.577V144.977C122.804 145.799 123.13 146.588 123.712 147.169C124.293 147.75 125.082 148.077 125.904 148.077H148.628C149.035 148.077 149.438 147.997 149.814 147.841C150.19 147.685 150.532 147.457 150.82 147.169C151.108 146.881 151.336 146.539 151.492 146.163C151.648 145.787 151.728 145.384 151.728 144.977V132.577C151.728 132.17 151.648 131.767 151.492 131.391C151.336 131.015 151.108 130.673 150.82 130.385C150.532 130.097 150.19 129.869 149.814 129.713C149.438 129.557 149.035 129.477 148.628 129.477ZM141.914 129.477H132.614V124.828C132.614 123.595 133.104 122.412 133.976 121.54C134.848 120.668 136.03 120.178 137.264 120.178C138.497 120.178 139.68 120.668 140.552 121.54C141.424 122.412 141.914 123.595 141.914 124.828V129.477Z" fill="white"/>
<path d="M123.876 69.1259H135.002C135.002 74.2396 133.995 79.3031 132.038 84.0275C130.081 88.7518 127.212 93.0443 123.596 96.6599C119.98 100.276 115.687 103.144 110.962 105.1C106.237 107.056 101.174 108.063 96.06 108.062V133.1C96.0571 133.836 95.7636 134.54 95.2435 135.061C94.7234 135.581 94.0187 135.875 93.283 135.878H87.72C86.9836 135.874 86.2783 135.581 85.7569 135.061C85.2354 134.541 84.9398 133.836 84.934 133.1V108.062C84.9353 97.7348 89.0387 87.8312 96.3417 80.5293C103.645 73.2275 113.549 69.1256 123.876 69.1259ZM57.127 57.9999C64.0684 58.001 70.8832 59.8587 76.8648 63.3804C82.8465 66.9022 87.7772 71.9598 91.146 78.0289C86.2613 83.3386 82.7405 89.7562 80.887 96.7289C71.3144 95.7262 62.4523 91.2142 56.01 84.0632C49.5677 76.9122 46.0018 67.6289 46 58.0039L57.127 57.9999Z" fill="url(#paint0_linear_1365_18315)"/>
<defs>
<linearGradient id="paint0_linear_1365_18315" x1="90.501" y1="138.059" x2="90.501" y2="52.86" gradientUnits="userSpaceOnUse">
<stop stop-color="#91E3B4"/>
<stop offset="1" stop-color="#00DD72"/>
</linearGradient>
</defs>
</svg>
