<?xml version="1.0" encoding="UTF-8"?>
<!DOCTYPE svg PUBLIC "-//W3C//DTD SVG 1.1//EN" "http://www.w3.org/Graphics/SVG/1.1/DTD/svg11.dtd">
<svg xmlns="http://www.w3.org/2000/svg" version="1.1" width="200px" height="200px" style="shape-rendering:geometricPrecision; text-rendering:geometricPrecision; image-rendering:optimizeQuality; fill-rule:evenodd; clip-rule:evenodd" xmlns:xlink="http://www.w3.org/1999/xlink">
<g><path style="opacity:0.994" fill="#958e85" d="M 86.5,-0.5 C 95.1667,-0.5 103.833,-0.5 112.5,-0.5C 160.71,8.71007 189.71,37.3767 199.5,85.5C 199.5,94.8333 199.5,104.167 199.5,113.5C 189.697,161.636 160.697,190.303 112.5,199.5C 103.833,199.5 95.1667,199.5 86.5,199.5C 38.3027,190.303 9.30266,161.636 -0.5,113.5C -0.5,104.167 -0.5,94.8333 -0.5,85.5C 9.28982,37.3767 38.2898,8.71007 86.5,-0.5 Z"/></g>
<g><path style="opacity:1" fill="#141312" d="M 88.5,38.5 C 123.839,36.0503 147.339,51.3836 159,84.5C 164.025,113.931 154.191,136.765 129.5,153C 95.0293,168.26 67.1959,160.427 46,129.5C 31.7586,98.406 37.5919,71.906 63.5,50C 71.1596,44.5113 79.4929,40.678 88.5,38.5 Z"/></g>
<g><path style="opacity:1" fill="#958e85" d="M 89.5,40.5 C 120.262,38.121 142.095,50.7876 155,78.5C 163.544,108.205 155.377,132.038 130.5,150C 99.5294,165.462 73.0294,159.962 51,133.5C 36.1815,108.792 37.1815,84.7923 54,61.5C 63.6904,50.7432 75.5237,43.7432 89.5,40.5 Z"/></g>
<g><path style="opacity:1" fill="#0a0908" d="M 122.5,79.5 C 123.5,79.5 124.5,79.5 125.5,79.5C 125.5,80.5 125.5,81.5 125.5,82.5C 124.5,82.5 123.5,82.5 122.5,82.5C 122.5,81.5 122.5,80.5 122.5,79.5 Z"/></g>
<g><path style="opacity:1" fill="#0b0a09" d="M 79.5,84.5 C 80.5,84.5 81.5,84.5 82.5,84.5C 82.5,85.5 82.5,86.5 82.5,87.5C 81.5,87.5 80.5,87.5 79.5,87.5C 79.5,86.5 79.5,85.5 79.5,84.5 Z"/></g>
<g><path style="opacity:1" fill="#080707" d="M 89.5,118.5 C 98.8333,118.5 108.167,118.5 117.5,118.5C 117.5,119.833 117.5,121.167 117.5,122.5C 108.18,121.871 98.8464,121.538 89.5,121.5C 89.5,120.5 89.5,119.5 89.5,118.5 Z"/></g>
</svg>
