<?xml version="1.0" encoding="UTF-8"?>
<!DOCTYPE svg PUBLIC "-//W3C//DTD SVG 1.1//EN" "http://www.w3.org/Graphics/SVG/1.1/DTD/svg11.dtd">
<svg xmlns="http://www.w3.org/2000/svg" version="1.1" width="200px" height="200px" style="shape-rendering:geometricPrecision; text-rendering:geometricPrecision; image-rendering:optimizeQuality; fill-rule:evenodd; clip-rule:evenodd" xmlns:xlink="http://www.w3.org/1999/xlink">
<g><path style="opacity:1" fill="#23f6dc" d="M -0.5,-0.5 C 66.1667,-0.5 132.833,-0.5 199.5,-0.5C 199.5,66.1667 199.5,132.833 199.5,199.5C 179.167,199.5 158.833,199.5 138.5,199.5C 138.768,193.051 138.102,186.717 136.5,180.5C 135.349,173.556 134.682,166.556 134.5,159.5C 135.504,158.317 136.338,156.984 137,155.5C 137.667,141.833 137.667,128.167 137,114.5C 134.466,108.629 130.466,103.962 125,100.5C 124.517,99.552 124.351,98.552 124.5,97.5C 125.737,96.0351 126.737,94.3684 127.5,92.5C 130.895,86.9817 132.895,80.9817 133.5,74.5C 135.83,72.4582 136.996,69.7916 137,66.5C 137.678,62.7789 137.511,59.1122 136.5,55.5C 136.204,39.0893 129.871,25.5893 117.5,15C 107.109,7.77844 96.776,7.77844 86.5,15C 80.5349,19.9588 75.7016,25.7921 72,32.5C 71.5014,36.1516 71.3347,39.8183 71.5,43.5C 70.362,52.7557 70.1954,62.0891 71,71.5C 71.6701,74.1739 72.8368,76.5073 74.5,78.5C 75.1098,79.391 75.4431,80.391 75.5,81.5C 69.8289,85.179 63.4956,86.8456 56.5,86.5C 56.8064,83.6146 56.4731,80.9479 55.5,78.5C 54.6192,72.6129 51.2859,69.6129 45.5,69.5C 46.0916,72.1272 46.4249,74.7938 46.5,77.5C 46.6653,81.1817 46.4986,84.8484 46,88.5C 45.7996,90.3197 44.9663,91.653 43.5,92.5C 33.1508,103.197 26.4841,115.864 23.5,130.5C 23.1218,132.921 22.4552,135.254 21.5,137.5C 20.19,139.435 18.8567,141.435 17.5,143.5C 15.5808,144.612 13.9142,145.946 12.5,147.5C 9.50006,149.668 7.00006,152.334 5,155.5C 4.1925,159.027 4.35916,162.36 5.5,165.5C 5.5,165.833 5.5,166.167 5.5,166.5C 6.90142,178.226 13.2348,185.56 24.5,188.5C 24.5,191.833 24.5,195.167 24.5,198.5C 24.5,198.833 24.5,199.167 24.5,199.5C 16.1667,199.5 7.83333,199.5 -0.5,199.5C -0.5,132.833 -0.5,66.1667 -0.5,-0.5 Z"/></g>
<g><path style="opacity:1" fill="#242425" d="M 136.5,55.5 C 135.278,50.6029 132.278,47.1029 127.5,45C 116.775,42.4116 105.942,40.9116 95,40.5C 94.6924,41.3081 94.1924,41.9747 93.5,42.5C 92.5,41.1667 91.5,41.1667 90.5,42.5C 89.8333,41.1667 89.1667,39.8333 88.5,38.5C 86.1848,38.3138 83.8515,37.9804 81.5,37.5C 81.8555,36.4777 82.5222,35.811 83.5,35.5C 84.6009,36.5983 85.9343,36.765 87.5,36C 86.2888,35.1072 86.2888,34.2739 87.5,33.5C 88.1924,34.0253 88.6924,34.6919 89,35.5C 89.3333,35.1667 89.6667,34.8333 90,34.5C 90.1705,36.7148 90.8372,38.7148 92,40.5C 92.49,39.2068 92.6567,37.8734 92.5,36.5C 93.5,36.5 94.5,36.5 95.5,36.5C 95.5,34.8333 95.5,33.1667 95.5,31.5C 94.1667,31.5 92.8333,31.5 91.5,31.5C 91.6495,30.448 91.4828,29.448 91,28.5C 90.6667,30.1667 90.3333,31.8333 90,33.5C 89.647,31.9261 88.9804,30.2594 88,28.5C 87.6667,29.8333 87.3333,31.1667 87,32.5C 86.0508,29.8003 84.2175,28.967 81.5,30C 82.9733,30.7096 83.6399,31.8762 83.5,33.5C 82.2058,32.7101 81.0391,31.7101 80,30.5C 78.6667,31.8333 77.3333,31.8333 76,30.5C 74.1759,31.7487 74.3426,32.9153 76.5,34C 74.1317,36.9074 72.465,40.0741 71.5,43.5C 71.3347,39.8183 71.5014,36.1516 72,32.5C 75.7016,25.7921 80.5349,19.9588 86.5,15C 96.776,7.77844 107.109,7.77844 117.5,15C 129.871,25.5893 136.204,39.0893 136.5,55.5 Z"/></g>
<g><path style="opacity:1" fill="#24d3be" d="M 115.5,28.5 C 118.177,29.6436 120.843,29.8103 123.5,29C 120.846,31.072 121.18,32.7387 124.5,34C 121.5,33.3333 118.5,33.3333 115.5,34C 116.672,33.5814 117.672,32.9147 118.5,32C 116.937,31.2411 115.937,30.0744 115.5,28.5 Z"/></g>
<g><path style="opacity:1" fill="#a3a2a3" d="M 83.5,35.5 C 83.5,34.8333 83.5,34.1667 83.5,33.5C 83.6399,31.8762 82.9733,30.7096 81.5,30C 84.2175,28.967 86.0508,29.8003 87,32.5C 87.3333,31.1667 87.6667,29.8333 88,28.5C 88.9804,30.2594 89.647,31.9261 90,33.5C 90.3333,31.8333 90.6667,30.1667 91,28.5C 91.4828,29.448 91.6495,30.448 91.5,31.5C 92.8333,31.5 94.1667,31.5 95.5,31.5C 95.5,33.1667 95.5,34.8333 95.5,36.5C 94.5,36.5 93.5,36.5 92.5,36.5C 92.6567,37.8734 92.49,39.2068 92,40.5C 90.8372,38.7148 90.1705,36.7148 90,34.5C 89.6667,34.8333 89.3333,35.1667 89,35.5C 88.6924,34.6919 88.1924,34.0253 87.5,33.5C 86.2888,34.2739 86.2888,35.1072 87.5,36C 85.9343,36.765 84.6009,36.5983 83.5,35.5 Z"/></g>
<g><path style="opacity:1" fill="#9c9c9c" d="M 112.5,28.5 C 114.344,30.2789 115.01,32.6122 114.5,35.5C 112.089,35.8633 110.589,34.8633 110,32.5C 109.667,33.8333 109.333,35.1667 109,36.5C 107.333,36.1667 105.667,35.8333 104,35.5C 103.701,38.4688 102.201,39.9688 99.5,40C 100.804,39.196 101.471,38.0293 101.5,36.5C 100.577,34.8715 100.243,33.3715 100.5,32C 100.833,31.8333 101.167,31.6667 101.5,31.5C 102.251,32.376 102.751,33.376 103,34.5C 103.11,31.3543 104.443,30.3543 107,31.5C 109.326,31.12 111.159,30.12 112.5,28.5 Z"/></g>
<g><path style="opacity:1" fill="#c4c3c4" d="M 96.5,32.5 C 97.4971,31.2875 98.4971,31.4542 99.5,33C 99.8519,35.1934 99.3519,37.3601 98,39.5C 97.2347,36.8449 96.7347,34.5115 96.5,32.5 Z"/></g>
<g><path style="opacity:1" fill="#191615" d="M 83.5,33.5 C 83.5,34.1667 83.5,34.8333 83.5,35.5C 82.5222,35.811 81.8555,36.4777 81.5,37.5C 83.8515,37.9804 86.1848,38.3138 88.5,38.5C 89.1667,39.8333 89.8333,41.1667 90.5,42.5C 91.5,41.1667 92.5,41.1667 93.5,42.5C 94.1924,41.9747 94.6924,41.3081 95,40.5C 105.942,40.9116 116.775,42.4116 127.5,45C 132.278,47.1029 135.278,50.6029 136.5,55.5C 137.511,59.1122 137.678,62.7789 137,66.5C 136.996,69.7916 135.83,72.4582 133.5,74.5C 133.666,69.8215 133.499,65.1548 133,60.5C 132.623,59.0577 131.79,58.0577 130.5,57.5C 130.672,56.5084 130.338,55.8417 129.5,55.5C 128.476,51.6381 126.143,48.8048 122.5,47C 111.838,42.3341 101.171,42.3341 90.5,47C 86.3457,48.4052 85.179,50.9052 87,54.5C 89.1385,53.2309 91.3052,53.2309 93.5,54.5C 88.7601,55.3574 84.0934,56.5241 79.5,58C 78.6195,58.7083 77.9528,59.5416 77.5,60.5C 76.6851,61.4293 75.8518,62.4293 75,63.5C 74.5007,68.4889 74.3341,73.4889 74.5,78.5C 72.8368,76.5073 71.6701,74.1739 71,71.5C 70.1954,62.0891 70.362,52.7557 71.5,43.5C 72.465,40.0741 74.1317,36.9074 76.5,34C 74.3426,32.9153 74.1759,31.7487 76,30.5C 77.3333,31.8333 78.6667,31.8333 80,30.5C 81.0391,31.7101 82.2058,32.7101 83.5,33.5 Z"/></g>
<g><path style="opacity:1" fill="#b57f65" d="M 112.5,54.5 C 117.975,55.4889 123.642,55.8222 129.5,55.5C 130.338,55.8417 130.672,56.5084 130.5,57.5C 127.745,56.0198 125.078,56.1865 122.5,58C 115.192,59.8456 109.525,57.679 105.5,51.5C 104.304,53.1446 103.304,54.8113 102.5,56.5C 102.259,52.865 101.425,49.5317 100,46.5C 102.826,44.6602 105.993,43.9935 109.5,44.5C 109.5,45.5 109.5,46.5 109.5,47.5C 113.339,48.05 113.339,49.05 109.5,50.5C 108.068,53.4188 109.068,54.7521 112.5,54.5 Z"/></g>
<g><path style="opacity:1" fill="#764d39" d="M 129.5,55.5 C 123.642,55.8222 117.975,55.4889 112.5,54.5C 109.068,54.7521 108.068,53.4188 109.5,50.5C 113.339,49.05 113.339,48.05 109.5,47.5C 109.5,46.5 109.5,45.5 109.5,44.5C 105.993,43.9935 102.826,44.6602 100,46.5C 101.425,49.5317 102.259,52.865 102.5,56.5C 101.768,57.8083 100.934,59.1416 100,60.5C 99.3527,57.5888 97.5194,56.2555 94.5,56.5C 92.4233,56.6922 90.4233,57.1922 88.5,58C 89.5,58.3333 90.5,58.6667 91.5,59C 81.7782,57.0597 77.6116,60.893 79,70.5C 80.995,72.747 83.495,73.747 86.5,73.5C 85.3995,74.6049 84.7329,75.9382 84.5,77.5C 83.3509,77.7911 82.6842,78.6244 82.5,80C 82.7728,81.5328 83.1062,83.0328 83.5,84.5C 82.0337,83.653 81.2004,82.3197 81,80.5C 80.5034,78.1902 80.3367,75.8568 80.5,73.5C 79.1779,73.67 78.0113,73.3366 77,72.5C 76.5027,68.4761 76.6693,64.4761 77.5,60.5C 77.9528,59.5416 78.6195,58.7083 79.5,58C 84.0934,56.5241 88.7601,55.3574 93.5,54.5C 91.3052,53.2309 89.1385,53.2309 87,54.5C 85.179,50.9052 86.3457,48.4052 90.5,47C 101.171,42.3341 111.838,42.3341 122.5,47C 126.143,48.8048 128.476,51.6381 129.5,55.5 Z"/></g>
<g><path style="opacity:1" fill="#3b251a" d="M 112.5,54.5 C 113.777,53.1024 115.443,52.4357 117.5,52.5C 119.867,52.8417 122.2,53.3417 124.5,54C 120.514,54.4988 116.514,54.6655 112.5,54.5 Z"/></g>
<g><path style="opacity:1" fill="#e4a381" d="M 130.5,57.5 C 131.54,61.7799 131.706,66.1132 131,70.5C 129.644,71.3802 128.144,71.7135 126.5,71.5C 123.496,68.5701 119.996,66.2368 116,64.5C 115.833,65 115.667,65.5 115.5,66C 117.765,67.7574 119.431,69.9241 120.5,72.5C 117.603,72.8747 114.937,72.3747 112.5,71C 114.842,69.6081 114.842,68.7748 112.5,68.5C 115.106,67.1501 115.106,65.6501 112.5,64C 117.4,63.6363 122.066,64.303 126.5,66C 127.576,64.2739 127.743,62.4406 127,60.5C 121.255,60.2544 115.422,60.0877 109.5,60C 108.034,59.3645 106.7,58.5312 105.5,57.5C 104.511,61.1073 104.177,64.774 104.5,68.5C 103.883,68.3893 103.383,68.056 103,67.5C 102.501,63.8484 102.335,60.1817 102.5,56.5C 103.304,54.8113 104.304,53.1446 105.5,51.5C 109.525,57.679 115.192,59.8456 122.5,58C 125.078,56.1865 127.745,56.0198 130.5,57.5 Z"/></g>
<g><path style="opacity:1" fill="#f6b99a" d="M 112.5,68.5 C 112.167,68.5 111.833,68.5 111.5,68.5C 108.959,69.1032 106.626,69.1032 104.5,68.5C 104.177,64.774 104.511,61.1073 105.5,57.5C 106.7,58.5312 108.034,59.3645 109.5,60C 115.422,60.0877 121.255,60.2544 127,60.5C 127.743,62.4406 127.576,64.2739 126.5,66C 122.066,64.303 117.4,63.6363 112.5,64C 115.106,65.6501 115.106,67.1501 112.5,68.5 Z"/></g>
<g><path style="opacity:1" fill="#ac765c" d="M 102.5,56.5 C 102.335,60.1817 102.501,63.8484 103,67.5C 103.383,68.056 103.883,68.3893 104.5,68.5C 106.626,69.1032 108.959,69.1032 111.5,68.5C 110.047,69.8486 109.047,71.5153 108.5,73.5C 108.167,73.5 107.833,73.5 107.5,73.5C 106.514,71.5923 104.848,70.5923 102.5,70.5C 100.052,69.5269 97.3854,69.1936 94.5,69.5C 94.5,70.8333 94.5,72.1667 94.5,73.5C 92.0971,73.552 89.7638,73.2186 87.5,72.5C 88.1667,71.5 88.8333,70.5 89.5,69.5C 90.5846,67.4131 92.2512,66.0798 94.5,65.5C 97.6789,63.5039 98.0122,61.1706 95.5,58.5C 91.3083,59.957 86.975,60.957 82.5,61.5C 80.7018,64.2893 80.2018,67.2893 81,70.5C 82.5843,71.8613 84.4176,72.528 86.5,72.5C 86.5,72.8333 86.5,73.1667 86.5,73.5C 83.495,73.747 80.995,72.747 79,70.5C 77.6116,60.893 81.7782,57.0597 91.5,59C 90.5,58.6667 89.5,58.3333 88.5,58C 90.4233,57.1922 92.4233,56.6922 94.5,56.5C 97.5194,56.2555 99.3527,57.5888 100,60.5C 100.934,59.1416 101.768,57.8083 102.5,56.5 Z"/></g>
<g><path style="opacity:1" fill="#ca8d6f" d="M 94.5,65.5 C 94.67,64.1779 94.3366,63.0113 93.5,62C 90.8333,61.3333 88.1667,61.3333 85.5,62C 82.1982,66.8951 83.5315,69.3951 89.5,69.5C 88.8333,70.5 88.1667,71.5 87.5,72.5C 87.1667,72.5 86.8333,72.5 86.5,72.5C 84.4176,72.528 82.5843,71.8613 81,70.5C 80.2018,67.2893 80.7018,64.2893 82.5,61.5C 86.975,60.957 91.3083,59.957 95.5,58.5C 98.0122,61.1706 97.6789,63.5039 94.5,65.5 Z"/></g>
<g><path style="opacity:1" fill="#e9a78a" d="M 94.5,65.5 C 92.2512,66.0798 90.5846,67.4131 89.5,69.5C 83.5315,69.3951 82.1982,66.8951 85.5,62C 88.1667,61.3333 90.8333,61.3333 93.5,62C 94.3366,63.0113 94.67,64.1779 94.5,65.5 Z"/></g>
<g><path style="opacity:1" fill="#683d32" d="M 102.5,70.5 C 102.5,70.8333 102.5,71.1667 102.5,71.5C 99.0961,72.6056 95.5961,73.6056 92,74.5C 90.1216,74.3038 88.2883,73.9705 86.5,73.5C 86.5,73.1667 86.5,72.8333 86.5,72.5C 86.8333,72.5 87.1667,72.5 87.5,72.5C 89.7638,73.2186 92.0971,73.552 94.5,73.5C 94.5,72.1667 94.5,70.8333 94.5,69.5C 97.3854,69.1936 100.052,69.5269 102.5,70.5 Z"/></g>
<g><path style="opacity:1" fill="#8b726e" d="M 102.5,70.5 C 104.848,70.5923 106.514,71.5923 107.5,73.5C 106.399,74.5983 105.066,74.765 103.5,74C 102.748,73.3292 102.414,72.4959 102.5,71.5C 102.5,71.1667 102.5,70.8333 102.5,70.5 Z"/></g>
<g><path style="opacity:1" fill="#60402d" d="M 77.5,60.5 C 76.6693,64.4761 76.5027,68.4761 77,72.5C 78.0113,73.3366 79.1779,73.67 80.5,73.5C 80.3367,75.8568 80.5034,78.1902 81,80.5C 81.2004,82.3197 82.0337,83.653 83.5,84.5C 87.3118,88.6451 90.3118,93.3117 92.5,98.5C 90.4156,96.1697 87.749,95.003 84.5,95C 81.3406,90.4871 78.3406,85.9871 75.5,81.5C 75.4431,80.391 75.1098,79.391 74.5,78.5C 74.3341,73.4889 74.5007,68.4889 75,63.5C 75.8518,62.4293 76.6851,61.4293 77.5,60.5 Z"/></g>
<g><path style="opacity:1" fill="#b48465" d="M 130.5,57.5 C 131.79,58.0577 132.623,59.0577 133,60.5C 133.499,65.1548 133.666,69.8215 133.5,74.5C 132.895,80.9817 130.895,86.9817 127.5,92.5C 124.506,94.9106 121.506,97.4106 118.5,100C 114.83,100.548 111.163,101.048 107.5,101.5C 111.961,99.9539 116.294,97.9539 120.5,95.5C 122.703,92.8912 123.703,89.8912 123.5,86.5C 121.678,86.1692 120.011,85.5025 118.5,84.5C 119.672,83.2947 121.005,83.2947 122.5,84.5C 123.298,84.0431 123.631,83.3764 123.5,82.5C 123.557,81.391 123.89,80.391 124.5,79.5C 125.167,79.5 125.5,79.1667 125.5,78.5C 126.88,78.0377 127.547,77.0377 127.5,75.5C 127.154,74.1508 126.821,72.8175 126.5,71.5C 128.144,71.7135 129.644,71.3802 131,70.5C 131.706,66.1132 131.54,61.7799 130.5,57.5 Z"/></g>
<g><path style="opacity:1" fill="#5a3c34" d="M 111.5,68.5 C 111.833,68.5 112.167,68.5 112.5,68.5C 114.842,68.7748 114.842,69.6081 112.5,71C 114.937,72.3747 117.603,72.8747 120.5,72.5C 121.85,69.894 123.35,69.894 125,72.5C 125.495,74.4727 125.662,76.4727 125.5,78.5C 125.5,79.1667 125.167,79.5 124.5,79.5C 125.109,72.9888 123.443,71.9888 119.5,76.5C 117.283,75.6314 114.95,75.298 112.5,75.5C 111.713,73.8958 110.38,73.2291 108.5,73.5C 109.047,71.5153 110.047,69.8486 111.5,68.5 Z"/></g>
<g><path style="opacity:1" fill="#301f1b" d="M 102.5,71.5 C 102.414,72.4959 102.748,73.3292 103.5,74C 105.066,74.765 106.399,74.5983 107.5,73.5C 107.833,73.5 108.167,73.5 108.5,73.5C 110.38,73.2291 111.713,73.8958 112.5,75.5C 108.298,76.2926 103.965,77.1259 99.5,78C 96.9595,79.0404 95.2929,80.8737 94.5,83.5C 91.9408,81.1502 89.6074,81.1502 87.5,83.5C 85.461,82.089 84.461,80.089 84.5,77.5C 84.7329,75.9382 85.3995,74.6049 86.5,73.5C 88.2883,73.9705 90.1216,74.3038 92,74.5C 95.5961,73.6056 99.0961,72.6056 102.5,71.5 Z"/></g>
<g><path style="opacity:1" fill="#98614d" d="M 126.5,71.5 C 126.821,72.8175 127.154,74.1508 127.5,75.5C 127.547,77.0377 126.88,78.0377 125.5,78.5C 125.662,76.4727 125.495,74.4727 125,72.5C 123.35,69.894 121.85,69.894 120.5,72.5C 119.431,69.9241 117.765,67.7574 115.5,66C 115.667,65.5 115.833,65 116,64.5C 119.996,66.2368 123.496,68.5701 126.5,71.5 Z"/></g>
<g><path style="opacity:1" fill="#2c1c18" d="M 124.5,79.5 C 123.89,80.391 123.557,81.391 123.5,82.5C 122.833,82.5 122.167,82.5 121.5,82.5C 121.65,79.074 120.484,78.7406 118,81.5C 117.691,80.2341 117.191,79.0674 116.5,78C 117.737,77.7679 118.737,77.2679 119.5,76.5C 123.443,71.9888 125.109,72.9888 124.5,79.5 Z"/></g>
<g><path style="opacity:1" fill="#d5bcb6" d="M 106.5,79.5 C 109.898,79.1796 113.232,79.513 116.5,80.5C 116.137,81.1835 115.804,81.8501 115.5,82.5C 111.475,83.3883 107.142,83.8883 102.5,84C 101.692,83.6924 101.025,83.1924 100.5,82.5C 102.444,81.1993 104.444,80.1993 106.5,79.5 Z"/></g>
<g><path style="opacity:1" fill="#73483d" d="M 112.5,75.5 C 114.95,75.298 117.283,75.6314 119.5,76.5C 118.737,77.2679 117.737,77.7679 116.5,78C 117.191,79.0674 117.691,80.2341 118,81.5C 120.484,78.7406 121.65,79.074 121.5,82.5C 119.5,82.5 117.5,82.5 115.5,82.5C 115.804,81.8501 116.137,81.1835 116.5,80.5C 113.232,79.513 109.898,79.1796 106.5,79.5C 103.751,79.2739 101.084,79.6072 98.5,80.5C 97.3776,82.0436 97.711,83.377 99.5,84.5C 98.8333,85.1667 98.1667,85.8333 97.5,86.5C 98.7366,87.2807 99.7366,88.2807 100.5,89.5C 104.783,90.4922 109.116,90.8256 113.5,90.5C 113.532,92.6188 112.532,93.9522 110.5,94.5C 110.586,93.5041 110.252,92.6708 109.5,92C 105.789,91.1747 102.122,91.3414 98.5,92.5C 99.9469,93.9348 101.614,94.9348 103.5,95.5C 101.143,95.6633 98.8098,95.4966 96.5,95C 93.8422,90.8255 90.8422,86.9922 87.5,83.5C 89.6074,81.1502 91.9408,81.1502 94.5,83.5C 95.2929,80.8737 96.9595,79.0404 99.5,78C 103.965,77.1259 108.298,76.2926 112.5,75.5 Z"/></g>
<g><path style="opacity:1" fill="#ac806b" d="M 84.5,77.5 C 84.461,80.089 85.461,82.089 87.5,83.5C 90.8422,86.9922 93.8422,90.8255 96.5,95C 98.8098,95.4966 101.143,95.6633 103.5,95.5C 104.167,95.5 104.833,95.5 105.5,95.5C 105.631,96.2389 105.464,96.9056 105,97.5C 103.644,96.6198 102.144,96.2865 100.5,96.5C 100.281,97.675 100.614,98.675 101.5,99.5C 103.026,99.9943 104.359,100.661 105.5,101.5C 101.193,100.673 96.8595,100.007 92.5,99.5C 92.5,99.1667 92.5,98.8333 92.5,98.5C 90.3118,93.3117 87.3118,88.6451 83.5,84.5C 83.1062,83.0328 82.7728,81.5328 82.5,80C 82.6842,78.6244 83.3509,77.7911 84.5,77.5 Z"/></g>
<g><path style="opacity:1" fill="#f1b38d" d="M 55.5,78.5 C 54.4389,84.719 53.4389,91.0523 52.5,97.5C 50.8539,96.2214 49.6872,94.5547 49,92.5C 48.7044,87.2721 47.8711,82.2721 46.5,77.5C 46.4249,74.7938 46.0916,72.1272 45.5,69.5C 51.2859,69.6129 54.6192,72.6129 55.5,78.5 Z"/></g>
<g><path style="opacity:1" fill="#b8806f" d="M 106.5,79.5 C 104.444,80.1993 102.444,81.1993 100.5,82.5C 101.025,83.1924 101.692,83.6924 102.5,84C 107.142,83.8883 111.475,83.3883 115.5,82.5C 117.5,82.5 119.5,82.5 121.5,82.5C 122.167,82.5 122.833,82.5 123.5,82.5C 123.631,83.3764 123.298,84.0431 122.5,84.5C 121.005,83.2947 119.672,83.2947 118.5,84.5C 118.872,90.8041 115.872,94.4707 109.5,95.5C 107.886,95.1971 106.552,94.5305 105.5,93.5C 105.56,92.9569 105.893,92.6236 106.5,92.5C 107.524,93.8532 108.857,94.5198 110.5,94.5C 112.532,93.9522 113.532,92.6188 113.5,90.5C 109.116,90.8256 104.783,90.4922 100.5,89.5C 99.7366,88.2807 98.7366,87.2807 97.5,86.5C 98.1667,85.8333 98.8333,85.1667 99.5,84.5C 97.711,83.377 97.3776,82.0436 98.5,80.5C 101.084,79.6072 103.751,79.2739 106.5,79.5 Z"/></g>
<g><path style="opacity:1" fill="#25201b" d="M 75.5,81.5 C 78.3406,85.9871 81.3406,90.4871 84.5,95C 87.749,95.003 90.4156,96.1697 92.5,98.5C 92.5,98.8333 92.5,99.1667 92.5,99.5C 93.5511,100.222 94.2178,101.222 94.5,102.5C 92.3175,101.7 90.6508,100.2 89.5,98C 87.3018,97.6271 85.1351,97.1271 83,96.5C 82.5,96.8333 82,97.1667 81.5,97.5C 82.7701,98.2876 83.7701,99.2876 84.5,100.5C 83.6009,101.472 82.4343,102.138 81,102.5C 76.6767,101.302 72.51,101.302 68.5,102.5C 64.5607,103.327 60.5607,103.994 56.5,104.5C 56.5,98.5 56.5,92.5 56.5,86.5C 63.4956,86.8456 69.8289,85.179 75.5,81.5 Z"/></g>
<g><path style="opacity:1" fill="#daa890" d="M 118.5,84.5 C 120.011,85.5025 121.678,86.1692 123.5,86.5C 123.703,89.8912 122.703,92.8912 120.5,95.5C 116.294,97.9539 111.961,99.9539 107.5,101.5C 107.5,102.167 107.5,102.833 107.5,103.5C 107.5,103.833 107.5,104.167 107.5,104.5C 106.833,103.5 106.167,102.5 105.5,101.5C 104.359,100.661 103.026,99.9943 101.5,99.5C 100.614,98.675 100.281,97.675 100.5,96.5C 102.144,96.2865 103.644,96.6198 105,97.5C 105.464,96.9056 105.631,96.2389 105.5,95.5C 105.5,94.8333 105.5,94.1667 105.5,93.5C 106.552,94.5305 107.886,95.1971 109.5,95.5C 115.872,94.4707 118.872,90.8041 118.5,84.5 Z"/></g>
<g><path style="opacity:1" fill="#442f28" d="M 110.5,94.5 C 108.857,94.5198 107.524,93.8532 106.5,92.5C 105.893,92.6236 105.56,92.9569 105.5,93.5C 105.5,94.1667 105.5,94.8333 105.5,95.5C 104.833,95.5 104.167,95.5 103.5,95.5C 101.614,94.9348 99.9469,93.9348 98.5,92.5C 102.122,91.3414 105.789,91.1747 109.5,92C 110.252,92.6708 110.586,93.5041 110.5,94.5 Z"/></g>
<g><path style="opacity:1" fill="#d19b6d" d="M 46.5,77.5 C 47.8711,82.2721 48.7044,87.2721 49,92.5C 49.6872,94.5547 50.8539,96.2214 52.5,97.5C 53.4389,91.0523 54.4389,84.719 55.5,78.5C 56.4731,80.9479 56.8064,83.6146 56.5,86.5C 56.5,92.5 56.5,98.5 56.5,104.5C 55.0687,103.22 54.4021,101.553 54.5,99.5C 52.1305,99.1489 49.7972,98.9822 47.5,99C 45.9632,100.11 45.2965,101.61 45.5,103.5C 43.6122,101.012 42.9455,98.0122 43.5,94.5C 43.5,93.8333 43.5,93.1667 43.5,92.5C 44.9663,91.653 45.7996,90.3197 46,88.5C 46.4986,84.8484 46.6653,81.1817 46.5,77.5 Z"/></g>
<g><path style="opacity:1" fill="#675040" d="M 127.5,92.5 C 126.737,94.3684 125.737,96.0351 124.5,97.5C 122.095,98.6871 119.761,100.187 117.5,102C 114.12,102.339 110.787,102.839 107.5,103.5C 107.5,102.833 107.5,102.167 107.5,101.5C 111.163,101.048 114.83,100.548 118.5,100C 121.506,97.4106 124.506,94.9106 127.5,92.5 Z"/></g>
<g><path style="opacity:1" fill="#12100d" d="M 94.5,102.5 C 97.5184,102.335 100.518,102.502 103.5,103C 104.646,103.645 105.646,104.478 106.5,105.5C 107.107,105.376 107.44,105.043 107.5,104.5C 107.5,104.167 107.5,103.833 107.5,103.5C 110.787,102.839 114.12,102.339 117.5,102C 119.761,100.187 122.095,98.6871 124.5,97.5C 124.351,98.552 124.517,99.552 125,100.5C 130.466,103.962 134.466,108.629 137,114.5C 137.667,128.167 137.667,141.833 137,155.5C 136.338,156.984 135.504,158.317 134.5,159.5C 132.007,160.774 129.341,161.44 126.5,161.5C 124.517,161.157 123.183,161.824 122.5,163.5C 122.167,163.5 121.833,163.5 121.5,163.5C 118.5,160.288 116.667,160.954 116,165.5C 114.582,163.637 112.749,163.137 110.5,164C 112.183,166.183 112.85,168.35 112.5,170.5C 111.065,169.176 110.065,167.51 109.5,165.5C 108.749,166.376 108.249,167.376 108,168.5C 107.361,165.772 106.194,165.272 104.5,167C 104.833,167.333 105.167,167.667 105.5,168C 104.529,169.204 103.529,169.704 102.5,169.5C 103.325,170.386 104.325,170.719 105.5,170.5C 104.889,176.082 104.889,181.748 105.5,187.5C 104.178,187.67 103.011,187.337 102,186.5C 101.03,189.444 100.196,192.444 99.5,195.5C 98.6667,193.5 97.8333,191.5 97,189.5C 95.9505,190.517 94.7839,190.684 93.5,190C 92.2657,186.865 90.2657,185.365 87.5,185.5C 88.4604,184.188 88.2937,182.854 87,181.5C 86.6667,182.167 86.3333,182.833 86,183.5C 84.9914,181.975 84.4914,180.308 84.5,178.5C 85.552,178.649 86.552,178.483 87.5,178C 86.4829,176.951 86.3162,175.784 87,174.5C 89.07,179.771 90.57,179.437 91.5,173.5C 96.4464,172.364 96.613,171.031 92,169.5C 86.2863,171.419 81.7863,169.919 78.5,165C 76.5273,164.505 74.5273,164.338 72.5,164.5C 76.8064,163.75 81.1398,162.583 85.5,161C 87.9962,159.669 89.9962,157.836 91.5,155.5C 93.2529,152.429 92.5862,150.096 89.5,148.5C 92.4247,146.242 95.0914,143.575 97.5,140.5C 98.3569,135.882 96.6902,132.882 92.5,131.5C 92.1667,131.5 91.8333,131.5 91.5,131.5C 90.4019,130.603 90.4019,129.77 91.5,129C 100.726,128.955 106.726,124.455 109.5,115.5C 109.154,114.304 108.654,114.304 108,115.5C 106.223,119.904 103.39,123.404 99.5,126C 97.3258,126.877 95.6591,126.377 94.5,124.5C 93.1932,121.22 91.5265,118.22 89.5,115.5C 90.7563,113.059 90.7563,110.726 89.5,108.5C 87.86,105.851 86.1933,103.184 84.5,100.5C 83.7701,99.2876 82.7701,98.2876 81.5,97.5C 82,97.1667 82.5,96.8333 83,96.5C 85.1351,97.1271 87.3018,97.6271 89.5,98C 90.6508,100.2 92.3175,101.7 94.5,102.5 Z"/></g>
<g><path style="opacity:1" fill="#654e42" d="M 92.5,99.5 C 96.8595,100.007 101.193,100.673 105.5,101.5C 106.167,102.5 106.833,103.5 107.5,104.5C 107.44,105.043 107.107,105.376 106.5,105.5C 105.646,104.478 104.646,103.645 103.5,103C 100.518,102.502 97.5184,102.335 94.5,102.5C 94.2178,101.222 93.5511,100.222 92.5,99.5 Z"/></g>
<g><path style="opacity:1" fill="#c9b08f" d="M 43.5,94.5 C 42.9455,98.0122 43.6122,101.012 45.5,103.5C 45.5,105.167 45.5,106.833 45.5,108.5C 51.2599,107.883 56.9266,107.55 62.5,107.5C 62.6107,108.117 62.944,108.617 63.5,109C 61.3162,110.363 59.3162,111.863 57.5,113.5C 53.5547,112.575 53.5547,111.409 57.5,110C 55.5,109.333 53.5,109.333 51.5,110C 48.6175,111.74 46.2841,113.907 44.5,116.5C 44.1667,116.5 43.8333,116.5 43.5,116.5C 42.8397,114.656 41.8397,112.99 40.5,111.5C 41.327,108.217 41.6604,104.884 41.5,101.5C 41.7215,98.9327 42.3882,96.5994 43.5,94.5 Z"/></g>
<g><path style="opacity:1" fill="#ebc499" d="M 56.5,104.5 C 60.5607,103.994 64.5607,103.327 68.5,102.5C 70.288,102.215 71.9547,102.548 73.5,103.5C 74.9213,106.009 76.5879,108.343 78.5,110.5C 78.3333,110.833 78.1667,111.167 78,111.5C 75.01,109.85 72.01,108.183 69,106.5C 68.5,106.667 68,106.833 67.5,107C 71.9584,112.272 71.2917,113.439 65.5,110.5C 65.5,109.5 65.5,108.5 65.5,107.5C 64.5,107.5 63.5,107.5 62.5,107.5C 56.9266,107.55 51.2599,107.883 45.5,108.5C 45.5,106.833 45.5,105.167 45.5,103.5C 45.2965,101.61 45.9632,100.11 47.5,99C 49.7972,98.9822 52.1305,99.1489 54.5,99.5C 54.4021,101.553 55.0687,103.22 56.5,104.5 Z"/></g>
<g><path style="opacity:1" fill="#b69e7a" d="M 84.5,100.5 C 86.1933,103.184 87.86,105.851 89.5,108.5C 88.8783,109.627 88.045,110.627 87,111.5C 81.0233,106.93 79.19,108.263 81.5,115.5C 78.0279,116.037 75.1945,115.037 73,112.5C 72.5604,114.076 71.727,115.41 70.5,116.5C 70.8627,117.183 71.1961,117.85 71.5,118.5C 68.4761,118.947 68.1428,119.78 70.5,121C 69.4019,121.77 69.4019,122.603 70.5,123.5C 69.8333,124.167 69.1667,124.833 68.5,125.5C 68.4136,120.007 65.7469,118.34 60.5,120.5C 59.6143,121.325 59.281,122.325 59.5,123.5C 61.288,123.215 62.9547,123.548 64.5,124.5C 62.7844,125.549 61.4511,126.882 60.5,128.5C 57.7188,128.094 54.7188,128.094 51.5,128.5C 51.5,127.5 51.5,126.5 51.5,125.5C 52.0967,125.265 52.4301,124.765 52.5,124C 51.3726,122.943 50.8726,121.777 51,120.5C 52.897,118.984 55.0637,118.317 57.5,118.5C 57.2965,116.61 57.9632,115.11 59.5,114C 58.9056,113.536 58.2389,113.369 57.5,113.5C 59.3162,111.863 61.3162,110.363 63.5,109C 62.944,108.617 62.6107,108.117 62.5,107.5C 63.5,107.5 64.5,107.5 65.5,107.5C 65.5,108.5 65.5,109.5 65.5,110.5C 71.2917,113.439 71.9584,112.272 67.5,107C 68,106.833 68.5,106.667 69,106.5C 72.01,108.183 75.01,109.85 78,111.5C 78.1667,111.167 78.3333,110.833 78.5,110.5C 76.5879,108.343 74.9213,106.009 73.5,103.5C 71.9547,102.548 70.288,102.215 68.5,102.5C 72.51,101.302 76.6767,101.302 81,102.5C 82.4343,102.138 83.6009,101.472 84.5,100.5 Z"/></g>
<g><path style="opacity:1" fill="#876b4a" d="M 89.5,108.5 C 90.7563,110.726 90.7563,113.059 89.5,115.5C 88.2921,116.234 86.9587,116.567 85.5,116.5C 80.7001,116.35 76.0334,117.016 71.5,118.5C 71.1961,117.85 70.8627,117.183 70.5,116.5C 71.727,115.41 72.5604,114.076 73,112.5C 75.1945,115.037 78.0279,116.037 81.5,115.5C 79.19,108.263 81.0233,106.93 87,111.5C 88.045,110.627 88.8783,109.627 89.5,108.5 Z"/></g>
<g><path style="opacity:1" fill="#35312b" d="M 43.5,92.5 C 43.5,93.1667 43.5,93.8333 43.5,94.5C 42.3882,96.5994 41.7215,98.9327 41.5,101.5C 40.286,108.989 38.1193,116.322 35,123.5C 33.6976,124.085 32.531,124.751 31.5,125.5C 28.3189,126.349 25.6523,128.015 23.5,130.5C 26.4841,115.864 33.1508,103.197 43.5,92.5 Z"/></g>
<g><path style="opacity:1" fill="#978464" d="M 41.5,101.5 C 41.6604,104.884 41.327,108.217 40.5,111.5C 41.8397,112.99 42.8397,114.656 43.5,116.5C 41.9826,116.511 40.8159,117.177 40,118.5C 39.2217,121.275 39.7217,123.775 41.5,126C 39.9355,129.645 37.7689,132.812 35,135.5C 34.51,136.793 34.3433,138.127 34.5,139.5C 35.1495,141.435 35.4828,143.435 35.5,145.5C 34.1667,145.5 32.8333,145.5 31.5,145.5C 32.4299,135.131 30.4299,134.131 25.5,142.5C 26.3766,145.382 27.71,148.049 29.5,150.5C 29.0179,153.541 28.3513,156.541 27.5,159.5C 25.1837,158.504 23.517,156.837 22.5,154.5C 21.7432,151.63 20.7432,148.964 19.5,146.5C 20.5778,143.598 21.2444,140.598 21.5,137.5C 23.5825,136.412 25.7492,135.412 28,134.5C 28.7261,131.379 30.2261,128.713 32.5,126.5C 32.3764,125.893 32.0431,125.56 31.5,125.5C 32.531,124.751 33.6976,124.085 35,123.5C 38.1193,116.322 40.286,108.989 41.5,101.5 Z"/></g>
<g><path style="opacity:1" fill="#988361" d="M 57.5,113.5 C 58.2389,113.369 58.9056,113.536 59.5,114C 57.9632,115.11 57.2965,116.61 57.5,118.5C 55.0637,118.317 52.897,118.984 51,120.5C 50.8726,121.777 51.3726,122.943 52.5,124C 52.4301,124.765 52.0967,125.265 51.5,125.5C 50.1995,124.118 49.3661,122.452 49,120.5C 47.9326,119.809 46.7659,119.309 45.5,119C 44.7476,118.329 44.4142,117.496 44.5,116.5C 46.2841,113.907 48.6175,111.74 51.5,110C 53.5,109.333 55.5,109.333 57.5,110C 53.5547,111.409 53.5547,112.575 57.5,113.5 Z"/></g>
<g><path style="opacity:1" fill="#dcbd93" d="M 85.5,116.5 C 85.6107,117.117 85.944,117.617 86.5,118C 84.3225,119.202 81.9892,119.702 79.5,119.5C 79.5,120.5 79.5,121.5 79.5,122.5C 76.4824,122.704 73.4824,123.037 70.5,123.5C 69.4019,122.603 69.4019,121.77 70.5,121C 68.1428,119.78 68.4761,118.947 71.5,118.5C 76.0334,117.016 80.7001,116.35 85.5,116.5 Z"/></g>
<g><path style="opacity:1" fill="#e0c59c" d="M 68.5,125.5 C 65.8181,126.955 63.1514,128.289 60.5,129.5C 60.5,129.167 60.5,128.833 60.5,128.5C 61.4511,126.882 62.7844,125.549 64.5,124.5C 62.9547,123.548 61.288,123.215 59.5,123.5C 59.281,122.325 59.6143,121.325 60.5,120.5C 65.7469,118.34 68.4136,120.007 68.5,125.5 Z"/></g>
<g><path style="opacity:1" fill="#7e7460" d="M 91.5,131.5 C 90.5,131.5 89.5,131.5 88.5,131.5C 88.5387,128.679 89.2054,126.012 90.5,123.5C 91.7362,124.246 93.0695,124.579 94.5,124.5C 95.6591,126.377 97.3258,126.877 99.5,126C 103.39,123.404 106.223,119.904 108,115.5C 108.654,114.304 109.154,114.304 109.5,115.5C 106.726,124.455 100.726,128.955 91.5,129C 90.4019,129.77 90.4019,130.603 91.5,131.5 Z"/></g>
<g><path style="opacity:1" fill="#a48b67" d="M 89.5,115.5 C 91.5265,118.22 93.1932,121.22 94.5,124.5C 93.0695,124.579 91.7362,124.246 90.5,123.5C 89.2054,126.012 88.5387,128.679 88.5,131.5C 85.0314,131.547 81.698,132.213 78.5,133.5C 77.039,131.189 75.2056,131.189 73,133.5C 72.7445,130.858 73.9112,129.025 76.5,128C 72.9888,127.281 70.6555,128.614 69.5,132C 70.062,135.316 71.062,138.483 72.5,141.5C 71.8728,142.417 71.5394,143.417 71.5,144.5C 70.8333,144.833 70.1667,145.167 69.5,145.5C 68.7354,145.923 67.9021,146.257 67,146.5C 65.9231,145.571 64.7564,144.904 63.5,144.5C 65.2688,142.603 67.6021,141.436 70.5,141C 69.646,139.978 68.646,139.145 67.5,138.5C 64.4418,140.154 62.1085,139.487 60.5,136.5C 62.8089,135.612 64.4756,133.946 65.5,131.5C 63.7086,130.83 62.0419,130.163 60.5,129.5C 63.1514,128.289 65.8181,126.955 68.5,125.5C 69.1667,124.833 69.8333,124.167 70.5,123.5C 73.4824,123.037 76.4824,122.704 79.5,122.5C 79.5,121.5 79.5,120.5 79.5,119.5C 81.9892,119.702 84.3225,119.202 86.5,118C 85.944,117.617 85.6107,117.117 85.5,116.5C 86.9587,116.567 88.2921,116.234 89.5,115.5 Z"/></g>
<g><path style="opacity:1" fill="#c4b8a0" d="M 31.5,125.5 C 32.0431,125.56 32.3764,125.893 32.5,126.5C 30.2261,128.713 28.7261,131.379 28,134.5C 25.7492,135.412 23.5825,136.412 21.5,137.5C 22.4552,135.254 23.1218,132.921 23.5,130.5C 25.6523,128.015 28.3189,126.349 31.5,125.5 Z"/></g>
<g><path style="opacity:1" fill="#544e3a" d="M 45.5,131.5 C 46.7914,132.473 46.7914,133.473 45.5,134.5C 50.3822,137.366 50.7155,140.699 46.5,144.5C 43.5701,145.299 40.5701,145.632 37.5,145.5C 36.4002,141.667 37.7335,138.834 41.5,137C 40.1817,133.463 41.515,131.629 45.5,131.5 Z"/></g>
<g><path style="opacity:1" fill="#7c6a4d" d="M 43.5,116.5 C 43.8333,116.5 44.1667,116.5 44.5,116.5C 44.4142,117.496 44.7476,118.329 45.5,119C 46.7659,119.309 47.9326,119.809 49,120.5C 49.3661,122.452 50.1995,124.118 51.5,125.5C 51.5,126.5 51.5,127.5 51.5,128.5C 54.7188,128.094 57.7188,128.094 60.5,128.5C 60.5,128.833 60.5,129.167 60.5,129.5C 62.0419,130.163 63.7086,130.83 65.5,131.5C 64.4756,133.946 62.8089,135.612 60.5,136.5C 60.5,135.5 60.5,134.5 60.5,133.5C 57.4041,132.907 55.0708,133.907 53.5,136.5C 53.6236,137.107 53.9569,137.44 54.5,137.5C 54.5,138.833 54.5,140.167 54.5,141.5C 51.4475,141.572 48.7808,142.572 46.5,144.5C 50.7155,140.699 50.3822,137.366 45.5,134.5C 46.7914,133.473 46.7914,132.473 45.5,131.5C 45.762,130.022 45.4287,128.689 44.5,127.5C 40.7398,131.25 37.4064,135.25 34.5,139.5C 34.3433,138.127 34.51,136.793 35,135.5C 37.7689,132.812 39.9355,129.645 41.5,126C 39.7217,123.775 39.2217,121.275 40,118.5C 40.8159,117.177 41.9826,116.511 43.5,116.5 Z"/></g>
<g><path style="opacity:1" fill="#c29a6c" d="M 60.5,136.5 C 62.1085,139.487 64.4418,140.154 67.5,138.5C 68.646,139.145 69.646,139.978 70.5,141C 67.6021,141.436 65.2688,142.603 63.5,144.5C 61.7028,145.73 59.7028,146.396 57.5,146.5C 57.9515,142.896 56.9515,139.896 54.5,137.5C 53.9569,137.44 53.6236,137.107 53.5,136.5C 55.0708,133.907 57.4041,132.907 60.5,133.5C 60.5,134.5 60.5,135.5 60.5,136.5 Z"/></g>
<g><path style="opacity:1" fill="#5e4f35" d="M 97.5,140.5 C 95.0914,143.575 92.4247,146.242 89.5,148.5C 84.0028,148.124 79.0028,149.457 74.5,152.5C 73.479,151.998 73.3123,151.332 74,150.5C 76.3876,147.366 79.5543,145.533 83.5,145C 86.0159,142.317 88.6826,139.817 91.5,137.5C 92.9512,139.559 94.9512,140.559 97.5,140.5 Z"/></g>
<g><path style="opacity:1" fill="#8a724f" d="M 54.5,137.5 C 56.9515,139.896 57.9515,142.896 57.5,146.5C 59.7028,146.396 61.7028,145.73 63.5,144.5C 64.7564,144.904 65.9231,145.571 67,146.5C 67.9021,146.257 68.7354,145.923 69.5,145.5C 69.719,146.675 69.3857,147.675 68.5,148.5C 66.8685,149.297 65.3685,150.297 64,151.5C 62.1739,150.99 62.0072,150.156 63.5,149C 60.1389,147.712 56.8055,146.712 53.5,146C 52.2283,147.307 51.2283,148.807 50.5,150.5C 49.3914,149.41 48.3914,149.41 47.5,150.5C 46.5934,153.421 46.2601,156.421 46.5,159.5C 47.5,159.5 48.5,159.5 49.5,159.5C 49.5,160.5 49.5,161.5 49.5,162.5C 49.719,163.675 49.3857,164.675 48.5,165.5C 47.1667,164.167 45.8333,162.833 44.5,161.5C 42.9291,162.309 41.2624,162.643 39.5,162.5C 37.9519,162.179 37.2852,161.179 37.5,159.5C 39.1667,159.5 40.8333,159.5 42.5,159.5C 42.4505,155.411 40.4505,152.744 36.5,151.5C 37.1264,149.343 37.4597,147.343 37.5,145.5C 40.5701,145.632 43.5701,145.299 46.5,144.5C 48.7808,142.572 51.4475,141.572 54.5,141.5C 54.5,140.167 54.5,138.833 54.5,137.5 Z"/></g>
<g><path style="opacity:1" fill="#907d5c" d="M 78.5,133.5 C 78.5,134.833 78.5,136.167 78.5,137.5C 83.9455,137.243 88.6121,135.243 92.5,131.5C 96.6902,132.882 98.3569,135.882 97.5,140.5C 94.9512,140.559 92.9512,139.559 91.5,137.5C 88.6826,139.817 86.0159,142.317 83.5,145C 79.5543,145.533 76.3876,147.366 74,150.5C 73.3123,151.332 73.479,151.998 74.5,152.5C 79.0028,149.457 84.0028,148.124 89.5,148.5C 92.5862,150.096 93.2529,152.429 91.5,155.5C 84.2449,155.425 76.9116,155.425 69.5,155.5C 67.2525,156.406 65.2525,157.739 63.5,159.5C 62.8003,156.985 61.4669,156.318 59.5,157.5C 58.2888,156.726 58.2888,155.893 59.5,155C 61.1124,154.28 62.6124,154.446 64,155.5C 67.7095,151.498 71.7095,148.165 76,145.5C 75.8339,141.693 74.8339,141.693 73,145.5C 72.6174,144.944 72.1174,144.611 71.5,144.5C 71.5394,143.417 71.8728,142.417 72.5,141.5C 71.062,138.483 70.062,135.316 69.5,132C 70.6555,128.614 72.9888,127.281 76.5,128C 73.9112,129.025 72.7445,130.858 73,133.5C 75.2056,131.189 77.039,131.189 78.5,133.5 Z"/></g>
<g><path style="opacity:1" fill="#d8b98f" d="M 88.5,131.5 C 89.5,131.5 90.5,131.5 91.5,131.5C 91.8333,131.5 92.1667,131.5 92.5,131.5C 88.6121,135.243 83.9455,137.243 78.5,137.5C 78.5,136.167 78.5,134.833 78.5,133.5C 81.698,132.213 85.0314,131.547 88.5,131.5 Z"/></g>
<g><path style="opacity:1" fill="#d0c7af" d="M 21.5,137.5 C 21.2444,140.598 20.5778,143.598 19.5,146.5C 19.5315,147.63 19.1981,148.963 18.5,150.5C 19.6302,151.622 20.2969,152.956 20.5,154.5C 18.8333,154.5 17.1667,154.5 15.5,154.5C 15.6641,151.813 15.4974,149.146 15,146.5C 14.3292,147.252 13.4959,147.586 12.5,147.5C 13.9142,145.946 15.5808,144.612 17.5,143.5C 18.8567,141.435 20.19,139.435 21.5,137.5 Z"/></g>
<g><path style="opacity:1" fill="#5c4e36" d="M 91.5,155.5 C 89.9962,157.836 87.9962,159.669 85.5,161C 81.1398,162.583 76.8064,163.75 72.5,164.5C 71.3951,165.6 70.0618,166.267 68.5,166.5C 66.5853,166.784 64.9187,166.451 63.5,165.5C 67.8883,163.917 71.8883,161.584 75.5,158.5C 71.3946,157.851 67.3946,158.517 63.5,160.5C 59.7386,159.988 56.072,159.155 52.5,158C 54.8609,157.803 56.5276,156.636 57.5,154.5C 55.3113,153.827 53.3113,152.827 51.5,151.5C 50.4593,153.991 49.6259,153.991 49,151.5C 48.5034,153.81 48.3367,156.143 48.5,158.5C 51.6063,158.588 51.9397,159.922 49.5,162.5C 49.5,161.5 49.5,160.5 49.5,159.5C 48.5,159.5 47.5,159.5 46.5,159.5C 46.2601,156.421 46.5934,153.421 47.5,150.5C 48.3914,149.41 49.3914,149.41 50.5,150.5C 51.2283,148.807 52.2283,147.307 53.5,146C 56.8055,146.712 60.1389,147.712 63.5,149C 62.0072,150.156 62.1739,150.99 64,151.5C 65.3685,150.297 66.8685,149.297 68.5,148.5C 69.3857,147.675 69.719,146.675 69.5,145.5C 70.1667,145.167 70.8333,144.833 71.5,144.5C 72.1174,144.611 72.6174,144.944 73,145.5C 74.8339,141.693 75.8339,141.693 76,145.5C 71.7095,148.165 67.7095,151.498 64,155.5C 62.6124,154.446 61.1124,154.28 59.5,155C 58.2888,155.893 58.2888,156.726 59.5,157.5C 61.4669,156.318 62.8003,156.985 63.5,159.5C 65.2525,157.739 67.2525,156.406 69.5,155.5C 76.9116,155.425 84.2449,155.425 91.5,155.5 Z"/></g>
<g><path style="opacity:1" fill="#d1c7b2" d="M 22.5,161.5 C 23.1667,161.833 23.8333,162.167 24.5,162.5C 22.8151,163.844 21.1484,163.677 19.5,162C 20.448,161.517 21.448,161.351 22.5,161.5 Z"/></g>
<g><path style="opacity:1" fill="#61533c" d="M 45.5,131.5 C 41.515,131.629 40.1817,133.463 41.5,137C 37.7335,138.834 36.4002,141.667 37.5,145.5C 37.4597,147.343 37.1264,149.343 36.5,151.5C 40.4505,152.744 42.4505,155.411 42.5,159.5C 40.8333,159.5 39.1667,159.5 37.5,159.5C 36.5554,156.013 34.2221,154.68 30.5,155.5C 29.9607,158.695 30.9607,161.195 33.5,163C 30.7795,163.602 28.1128,163.435 25.5,162.5C 25.1667,162.5 24.8333,162.5 24.5,162.5C 23.8333,162.167 23.1667,161.833 22.5,161.5C 21.4336,159.299 20.767,156.965 20.5,154.5C 20.2969,152.956 19.6302,151.622 18.5,150.5C 19.1981,148.963 19.5315,147.63 19.5,146.5C 20.7432,148.964 21.7432,151.63 22.5,154.5C 23.517,156.837 25.1837,158.504 27.5,159.5C 28.3513,156.541 29.0179,153.541 29.5,150.5C 27.71,148.049 26.3766,145.382 25.5,142.5C 30.4299,134.131 32.4299,135.131 31.5,145.5C 32.8333,145.5 34.1667,145.5 35.5,145.5C 35.4828,143.435 35.1495,141.435 34.5,139.5C 37.4064,135.25 40.7398,131.25 44.5,127.5C 45.4287,128.689 45.762,130.022 45.5,131.5 Z"/></g>
<g><path style="opacity:1" fill="#4e442e" d="M 63.5,165.5 C 59.2906,166.012 55.9572,167.012 53.5,168.5C 49.3856,166.792 45.0523,165.625 40.5,165C 39.7476,164.329 39.4142,163.496 39.5,162.5C 41.2624,162.643 42.9291,162.309 44.5,161.5C 45.8333,162.833 47.1667,164.167 48.5,165.5C 49.3857,164.675 49.719,163.675 49.5,162.5C 51.9397,159.922 51.6063,158.588 48.5,158.5C 48.3367,156.143 48.5034,153.81 49,151.5C 49.6259,153.991 50.4593,153.991 51.5,151.5C 53.3113,152.827 55.3113,153.827 57.5,154.5C 56.5276,156.636 54.8609,157.803 52.5,158C 56.072,159.155 59.7386,159.988 63.5,160.5C 67.3946,158.517 71.3946,157.851 75.5,158.5C 71.8883,161.584 67.8883,163.917 63.5,165.5 Z"/></g>
<g><path style="opacity:1" fill="#665238" d="M 18.5,162.5 C 14.3625,164.361 10.0292,165.694 5.5,166.5C 5.5,166.167 5.5,165.833 5.5,165.5C 5.5,163.5 5.5,161.5 5.5,159.5C 6.82207,159.33 7.98873,159.663 9,160.5C 13.6358,154.661 16.8025,155.327 18.5,162.5 Z"/></g>
<g><path style="opacity:1" fill="#918268" d="M 20.5,154.5 C 20.767,156.965 21.4336,159.299 22.5,161.5C 21.448,161.351 20.448,161.517 19.5,162C 21.1484,163.677 22.8151,163.844 24.5,162.5C 24.8333,162.5 25.1667,162.5 25.5,162.5C 28.9103,164.534 32.577,166.201 36.5,167.5C 33.3301,167.681 29.9967,168.014 26.5,168.5C 23.1537,167.485 20.487,165.485 18.5,162.5C 16.8025,155.327 13.6358,154.661 9,160.5C 7.98873,159.663 6.82207,159.33 5.5,159.5C 5.5,161.5 5.5,163.5 5.5,165.5C 4.35916,162.36 4.1925,159.027 5,155.5C 7.00006,152.334 9.50006,149.668 12.5,147.5C 13.4959,147.586 14.3292,147.252 15,146.5C 15.4974,149.146 15.6641,151.813 15.5,154.5C 17.1667,154.5 18.8333,154.5 20.5,154.5 Z"/></g>
<g><path style="opacity:1" fill="#413621" d="M 37.5,159.5 C 37.2852,161.179 37.9519,162.179 39.5,162.5C 39.4142,163.496 39.7476,164.329 40.5,165C 45.0523,165.625 49.3856,166.792 53.5,168.5C 55.9572,167.012 59.2906,166.012 63.5,165.5C 64.9187,166.451 66.5853,166.784 68.5,166.5C 61.5393,169.019 54.206,170.019 46.5,169.5C 46.9694,174.773 45.3027,179.107 41.5,182.5C 40.2307,179.466 38.5641,176.632 36.5,174C 36.6448,172.774 36.9781,171.607 37.5,170.5C 33.6875,169.833 30.0208,169.166 26.5,168.5C 29.9967,168.014 33.3301,167.681 36.5,167.5C 32.577,166.201 28.9103,164.534 25.5,162.5C 28.1128,163.435 30.7795,163.602 33.5,163C 30.9607,161.195 29.9607,158.695 30.5,155.5C 34.2221,154.68 36.5554,156.013 37.5,159.5 Z"/></g>
<g><path style="opacity:1" fill="#0a0706" d="M 121.5,163.5 C 119.082,172.336 117.416,181.336 116.5,190.5C 115.312,189.316 114.145,189.316 113,190.5C 111.092,193.206 110.259,196.206 110.5,199.5C 83.8333,199.5 57.1667,199.5 30.5,199.5C 31.1143,195.865 31.4476,192.198 31.5,188.5C 36.1476,188.49 39.4809,186.49 41.5,182.5C 45.3027,179.107 46.9694,174.773 46.5,169.5C 54.206,170.019 61.5393,169.019 68.5,166.5C 70.0618,166.267 71.3951,165.6 72.5,164.5C 74.5273,164.338 76.5273,164.505 78.5,165C 81.7863,169.919 86.2863,171.419 92,169.5C 96.613,171.031 96.4464,172.364 91.5,173.5C 90.57,179.437 89.07,179.771 87,174.5C 86.3162,175.784 86.4829,176.951 87.5,178C 86.552,178.483 85.552,178.649 84.5,178.5C 84.4914,180.308 84.9914,181.975 86,183.5C 86.3333,182.833 86.6667,182.167 87,181.5C 88.2937,182.854 88.4604,184.188 87.5,185.5C 90.2657,185.365 92.2657,186.865 93.5,190C 94.7839,190.684 95.9505,190.517 97,189.5C 97.8333,191.5 98.6667,193.5 99.5,195.5C 100.196,192.444 101.03,189.444 102,186.5C 103.011,187.337 104.178,187.67 105.5,187.5C 104.889,181.748 104.889,176.082 105.5,170.5C 104.325,170.719 103.325,170.386 102.5,169.5C 103.529,169.704 104.529,169.204 105.5,168C 105.167,167.667 104.833,167.333 104.5,167C 106.194,165.272 107.361,165.772 108,168.5C 108.249,167.376 108.749,166.376 109.5,165.5C 110.065,167.51 111.065,169.176 112.5,170.5C 112.85,168.35 112.183,166.183 110.5,164C 112.749,163.137 114.582,163.637 116,165.5C 116.667,160.954 118.5,160.288 121.5,163.5 Z"/></g>
<g><path style="opacity:1" fill="#37321e" d="M 18.5,162.5 C 20.487,165.485 23.1537,167.485 26.5,168.5C 23.8333,168.833 21.1667,169.167 18.5,169.5C 18.5,171.167 18.5,172.833 18.5,174.5C 17.1667,174.5 15.8333,174.5 14.5,174.5C 14.9789,178.792 17.3122,181.459 21.5,182.5C 22.4519,184.045 22.7852,185.712 22.5,187.5C 23.5,187.5 24.5,187.5 25.5,187.5C 25.815,191.371 25.4816,195.038 24.5,198.5C 24.5,195.167 24.5,191.833 24.5,188.5C 13.2348,185.56 6.90142,178.226 5.5,166.5C 10.0292,165.694 14.3625,164.361 18.5,162.5 Z"/></g>
<g><path style="opacity:1" fill="#302314" d="M 121.5,163.5 C 121.833,163.5 122.167,163.5 122.5,163.5C 122.965,167.792 122.132,171.792 120,175.5C 118.902,183.464 118.402,191.464 118.5,199.5C 118.167,199.5 117.833,199.5 117.5,199.5C 117.037,196.518 116.704,193.518 116.5,190.5C 117.416,181.336 119.082,172.336 121.5,163.5 Z"/></g>
<g><path style="opacity:1" fill="#251f15" d="M 26.5,168.5 C 30.0208,169.166 33.6875,169.833 37.5,170.5C 36.9781,171.607 36.6448,172.774 36.5,174C 38.5641,176.632 40.2307,179.466 41.5,182.5C 39.4809,186.49 36.1476,188.49 31.5,188.5C 31.4476,192.198 31.1143,195.865 30.5,199.5C 28.5,199.5 26.5,199.5 24.5,199.5C 24.5,199.167 24.5,198.833 24.5,198.5C 25.4816,195.038 25.815,191.371 25.5,187.5C 24.5,187.5 23.5,187.5 22.5,187.5C 22.7852,185.712 22.4519,184.045 21.5,182.5C 17.3122,181.459 14.9789,178.792 14.5,174.5C 15.8333,174.5 17.1667,174.5 18.5,174.5C 18.5,172.833 18.5,171.167 18.5,169.5C 21.1667,169.167 23.8333,168.833 26.5,168.5 Z"/></g>
<g><path style="opacity:1" fill="#6d4524" d="M 134.5,159.5 C 134.682,166.556 135.349,173.556 136.5,180.5C 124.453,181.572 120.453,187.905 124.5,199.5C 123.167,199.5 121.833,199.5 120.5,199.5C 121.171,187.141 122.171,174.808 123.5,162.5C 124.791,162.737 125.791,162.404 126.5,161.5C 129.341,161.44 132.007,160.774 134.5,159.5 Z"/></g>
<g><path style="opacity:1" fill="#21ebd2" d="M 116.5,190.5 C 116.704,193.518 117.037,196.518 117.5,199.5C 115.167,199.5 112.833,199.5 110.5,199.5C 110.259,196.206 111.092,193.206 113,190.5C 114.145,189.316 115.312,189.316 116.5,190.5 Z"/></g>
<g><path style="opacity:1" fill="#4c3018" d="M 126.5,161.5 C 125.791,162.404 124.791,162.737 123.5,162.5C 122.171,174.808 121.171,187.141 120.5,199.5C 119.833,199.5 119.167,199.5 118.5,199.5C 118.402,191.464 118.902,183.464 120,175.5C 122.132,171.792 122.965,167.792 122.5,163.5C 123.183,161.824 124.517,161.157 126.5,161.5 Z"/></g>
<g><path style="opacity:1" fill="#8b6036" d="M 136.5,180.5 C 138.102,186.717 138.768,193.051 138.5,199.5C 133.833,199.5 129.167,199.5 124.5,199.5C 120.453,187.905 124.453,181.572 136.5,180.5 Z"/></g>
</svg>
