<svg xmlns="http://www.w3.org/2000/svg" xmlns:xlink="http://www.w3.org/1999/xlink" viewBox="0 0 812 812"><defs><style>.cls-1{fill:url(#linear-gradient);}.cls-2{fill:url(#linear-gradient-2);}.cls-3{fill:url(#linear-gradient-3);}.cls-4{fill:url(#linear-gradient-4);}.cls-5{fill:url(#linear-gradient-5);}.cls-6{fill:#fff;}</style><linearGradient id="linear-gradient" x1="639.93" y1="71.91" x2="175.87" y2="734.66" gradientUnits="userSpaceOnUse"><stop offset="0" stop-color="#32353f"/><stop offset="0.73" stop-color="#010000"/></linearGradient><linearGradient id="linear-gradient-2" x1="265.86" y1="736.15" x2="546.14" y2="75.85" gradientUnits="userSpaceOnUse"><stop offset="0" stop-color="#32353f"/><stop offset="1" stop-color="#010101"/></linearGradient><linearGradient id="linear-gradient-3" x1="193.8" y1="658.89" x2="618.2" y2="153.11" gradientUnits="userSpaceOnUse"><stop offset="0.43" stop-color="#010000"/><stop offset="1" stop-color="#34353b"/></linearGradient><linearGradient id="linear-gradient-4" x1="130.25" y1="510.51" x2="1084.97" y2="501.87" gradientUnits="userSpaceOnUse"><stop offset="0.01" stop-color="#883a14"/><stop offset="0.18" stop-color="#fff044"/><stop offset="0.35" stop-color="#fad02a"/><stop offset="0.56" stop-color="#9b5418"/><stop offset="0.67" stop-color="#c68e21"/><stop offset="0.72" stop-color="#dcaa25"/><stop offset="0.75" stop-color="#e4b426"/><stop offset="0.88" stop-color="#ac7122"/><stop offset="0.91" stop-color="#a86c21"/><stop offset="0.95" stop-color="#9e5c1d"/><stop offset="0.99" stop-color="#8d4216"/><stop offset="1" stop-color="#883a14"/></linearGradient><linearGradient id="linear-gradient-5" x1="129.21" y1="395.37" x2="1083.93" y2="386.73" xlink:href="#linear-gradient-4"/></defs><g id="Layer_2" data-name="Layer 2"><g id="Layer_1-2" data-name="Layer 1"><circle class="cls-1" cx="406" cy="406" r="406"/><circle class="cls-2" cx="406" cy="406" r="358.57"/><circle class="cls-3" cx="406" cy="406" r="330.11"/><path class="cls-4" d="M665.45,402.74c0,83.61-30.6,148.88-77.68,192.64-44.84,41.7-104.63,63.9-167.2,63.9a259.37,259.37,0,0,1-61-7.22l48.71-75.6,14.26-22.14c32.16-.3,60.65-8,83.31-22.35,26.78-16.9,45.41-43,52.3-76.76H420.57v-2.38l41.68-96.73H659.61C663.11,371.26,665.45,387.58,665.45,402.74Z"/><path class="cls-5" d="M589.65,210.33,515,285a148.38,148.38,0,0,0-94.46-33.81A151.85,151.85,0,0,0,276.51,450.22c0,.06.05.14.07.21a151.35,151.35,0,0,0,79.23,89.49l-33,100.25A255.82,255.82,0,0,1,190.31,516.41s0,0,0-.07A256.55,256.55,0,0,1,420.57,146.2C485.87,146.2,544.17,170.69,589.65,210.33Z"/><polygon class="cls-6" points="459.96 469.72 405.91 553.63 396.22 568.68 345.05 648.1 333.87 665.46 325.15 679 329.95 664.42 336.26 645.24 362.85 564.46 369.11 545.43 383.15 504.88 327.74 504.88 398.08 330.84 457.48 330.84 440.42 370.46 398.74 467.2 397.65 469.72 459.96 469.72"/></g></g></svg>