<?xml version="1.0" encoding="utf-8"?>
<!-- Generator: Adobe Illustrator 21.0.0, SVG Export Plug-In . SVG Version: 6.00 Build 0)  -->
<svg version="1.1" id="Layer_1" xmlns="http://www.w3.org/2000/svg" xmlns:xlink="http://www.w3.org/1999/xlink" x="0px" y="0px"
	 viewBox="0 0 2000 2000" style="enable-background:new 0 0 2000 2000;" xml:space="preserve">
<style type="text/css">
	.st0{fill:#23273D;}
	.st1{fill:none;stroke:#464D74;stroke-width:7;stroke-miterlimit:10;}
	.st2{fill:#FFFFFF;}
</style>
<path class="st0" d="M841.2,59.1c101.1-58.4,225.7-58.4,326.8,0l570,329c101.1,58.4,163.3,166.2,163.3,282.9v658
	c0,116.7-62.3,224.5-163.3,282.9l-570.1,329c-101.1,58.4-225.7,58.4-326.8,0l-569.8-329c-101.1-58.4-163.3-166.2-163.3-282.9V671
	c0-116.7,62.3-224.5,163.3-282.9L841.2,59.1z"/>
<path class="st1" d="M841.2,59.1c101.1-58.4,225.7-58.4,326.8,0l570,329c101.1,58.4,163.3,166.2,163.3,282.9v658
	c0,116.7-62.3,224.5-163.3,282.9l-570.1,329c-101.1,58.4-225.7,58.4-326.8,0l-569.8-329c-101.1-58.4-163.3-166.2-163.3-282.9V671
	c0-116.7,62.3-224.5,163.3-282.9L841.2,59.1z"/>
<path class="st2" d="M1539.7,837.9h-196.3c-16.7-0.1-33.2,3-48.7,9.1c-90.7,36.9-182.4,73.4-280.4,84.9
	c-116.7,16.3-234.8-17.8-324.8-93.9H468.8c-26.3-2-49.3,17.7-51.3,44c-1.1,14.4,4.4,28.6,15,38.5c46.4,43.6,98.8,80.4,155.7,109.1
	c29.8,14.9,60.7,27.6,92.3,38c7.6,20.1,16.4,39.8,26.3,58.9l38.7,89.5c14.1,32.6,34.6,62.1,60.3,86.6l67.8,65.3
	c13.1,15.9,25.6,30.7,37.6,44.6c44.4,51.3,122,57,173.4,12.6c4.5-3.9,8.7-8.1,12.6-12.6c12.1-13.9,24.7-28.8,37.7-44.6l67.7-65.3
	c25.6-24.6,46.1-54,60.2-86.6l38.8-89.8c9.8-18.9,18.6-38.4,26.3-58.3c92.4-30.5,177.1-80.8,248-147.4c9.9-8.5,15.7-20.8,15.9-33.9
	c-0.4-27.6-23.2-49.6-50.8-49.2c-0.2,0-0.4,0-0.7,0L1539.7,837.9z M815.7,1229.3c-55.9-37.9-92-97.6-95.5-149.7
	c16.7,4.5,33.5,8.3,50.5,11.5l56.8,10.7c28.1,5.3,56.4,9.2,84.9,11.8c35.8,33.8,57.3,80.1,60,129.3c-2.2,1.9-4.6,3.7-7,5.3
	C929.5,1271.8,871.2,1266.5,815.7,1229.3z M1042.7,1247.9c-2.5-1.6-4.8-3.3-7-5.3c3.1-49.2,24.8-95.4,60.8-129.1
	c28.6-2.7,56.9-6.6,85-11.8l56.8-10.7c17-3.3,33.8-7.1,50.3-11.5c-3.3,52.1-39.5,111.4-95.5,149.7c-56,38.2-114.1,42.7-150.8,18.6
	H1042.7z"/>
<path class="st2" d="M840.2,837.9c37.4,16.6,77.3,26.7,118.1,29.8c16-0.1,31.9-1,47.8-2.9c40.7-6,80.8-15.1,120-27.2
	c54.9-15.9,113.7-36.3,162.4-55.1c10.7-4.1,20.9-8,30.4-11.9l-6-47.8l-15-122.4v-1.6c-4.2-33.8-35-57.7-68.8-53.5
	c-3.7,0.5-7.3,1.2-10.8,2.4L798.6,670.8l156.2-88l-15.9,3.5c-21.4,4.9-43.9,0.6-62.1-11.6c-36.5-24.6-85.9-14.9-110.5,21.5
	c-5.2,7.8-9.1,16.4-11.3,25.5l-45.4,150l12.4,7.8C759.8,801.9,799.3,821.5,840.2,837.9z"/>
</svg>
