<?xml version="1.0" encoding="UTF-8" standalone="no"?>
<svg
   xmlns:dc="http://purl.org/dc/elements/1.1/"
   xmlns:cc="http://creativecommons.org/ns#"
   xmlns:rdf="http://www.w3.org/1999/02/22-rdf-syntax-ns#"
   xmlns:svg="http://www.w3.org/2000/svg"
   xmlns="http://www.w3.org/2000/svg"
   xmlns:sodipodi="http://sodipodi.sourceforge.net/DTD/sodipodi-0.dtd"
   xmlns:inkscape="http://www.inkscape.org/namespaces/inkscape"
   version="1.1"
   id="svg2"
   xml:space="preserve"
   width="2000"
   height="2000"
   viewBox="0 0 2000 2000"
   sodipodi:docname="ASH token v1 ai.ai"><metadata
     id="metadata8"><rdf:RDF><cc:Work
         rdf:about=""><dc:format>image/svg+xml</dc:format><dc:type
           rdf:resource="http://purl.org/dc/dcmitype/StillImage" /></cc:Work></rdf:RDF></metadata><defs
     id="defs6"><linearGradient
       x1="0"
       y1="0"
       x2="1"
       y2="0"
       gradientUnits="userSpaceOnUse"
       gradientTransform="matrix(1342.9399,0,0,1342.9399,78.530029,750)"
       spreadMethod="pad"
       id="linearGradient32"><stop
         style="stop-opacity:1;stop-color:#ff0058"
         offset="0"
         id="stop24" /><stop
         style="stop-opacity:1;stop-color:#ff0058"
         offset="0.9368"
         id="stop26" /><stop
         style="stop-opacity:1;stop-color:#ff0058"
         offset="1"
         id="stop28" /><stop
         style="stop-opacity:1;stop-color:#ff0058"
         offset="1"
         id="stop30" /></linearGradient><clipPath
       clipPathUnits="userSpaceOnUse"
       id="clipPath42"><path
         d="M 0,1500 H 1500 V 0 H 0 Z"
         id="path40" /></clipPath></defs><sodipodi:namedview
     pagecolor="#ffffff"
     bordercolor="#666666"
     borderopacity="1"
     objecttolerance="10"
     gridtolerance="10"
     guidetolerance="10"
     inkscape:pageopacity="0"
     inkscape:pageshadow="2"
     inkscape:window-width="640"
     inkscape:window-height="480"
     id="namedview4" /><g
     id="g10"
     inkscape:groupmode="layer"
     inkscape:label="ASH token v1 ai"
     transform="matrix(1.3333333,0,0,-1.3333333,0,2000)"><g
       id="g12"><g
         id="g14"><g
           id="g20"><g
             id="g22"><path
               d="M 78.53,750 C 78.53,379.157 379.157,78.53 750,78.53 v 0 c 370.843,0 671.47,300.627 671.47,671.47 v 0 c 0,370.843 -300.627,671.47 -671.47,671.47 v 0 C 379.157,1421.47 78.53,1120.843 78.53,750"
               style="fill:url(#linearGradient32);stroke:none"
               id="path34" /></g></g></g></g><g
       id="g36"><g
         id="g38"
         clip-path="url(#clipPath42)"><g
           id="g44"
           transform="translate(862.0098,754.5098)"><path
             d="m 0,0 c -0.029,-0.9 -0.069,-1.8 -0.13,-2.71 -0.04,-0.63 -0.099,-1.27 -0.16,-1.899 -0.09,-0.92 -0.2,-1.851 -0.33,-2.781 -0.09,-0.64 -0.17,-1.27 -0.27,-1.92 -0.16,-0.969 -0.339,-1.95 -0.53,-2.94 -0.12,-0.62 -0.229,-1.229 -0.37,-1.85 -0.239,-1.089 -0.52,-2.19 -0.8,-3.29 -0.139,-0.53 -0.26,-1.06 -0.41,-1.6 -0.43,-1.55 -0.899,-3.11 -1.42,-4.69 -0.03,-0.099 -0.059,-0.2 -0.09,-0.299 -0.559,-1.691 -1.179,-3.401 -1.84,-5.121 -0.2,-0.509 -0.42,-1.03 -0.62,-1.54 -0.49,-1.219 -0.98,-2.44 -1.52,-3.67 -0.28,-0.65 -0.59,-1.31 -0.89,-1.969 -0.5,-1.111 -1.01,-2.221 -1.559,-3.351 -0.341,-0.71 -0.71,-1.43 -1.071,-2.149 -0.55,-1.091 -1.11,-2.191 -1.7,-3.29 -0.39,-0.741 -0.8,-1.491 -1.21,-2.231 -0.61,-1.099 -1.229,-2.21 -1.87,-3.33 -0.43,-0.75 -0.87,-1.5 -1.319,-2.26 -0.681,-1.15 -1.391,-2.299 -2.111,-3.46 -0.46,-0.74 -0.91,-1.469 -1.38,-2.21 -0.16,-0.259 -0.339,-0.52 -0.509,-0.78 -0.011,0.01 -0.011,0.021 -0.021,0.021 L -32.979,-74.85 c -17.411,-23.2 -41.641,-48.33 -72.301,-74.839 -34.53,-29.861 -53.43,-52.92 -63.78,-69.161 -1.64,10.06 -2.58,20.31 -2.8,30.59 l -0.04,1.47 c -0.03,1.08 -0.05,2.17 -0.05,3.261 0,34.319 16.09,78.08 31.11,97.679 14.7,19.18 32.68,38.23 50.901,59.44 l 15.609,18.761 c 13.2,16.519 26.051,34.579 37.391,55.069 4.839,-0.19 9.62,-0.66 14.269,-1.48 0.021,-0.01 0.04,-0.02 0.061,-0.04 0.119,-0.08 0.279,-0.17 0.46,-0.29 0.069,-0.049 0.159,-0.11 0.239,-0.16 0.17,-0.11 0.35,-0.23 0.56,-0.369 0.121,-0.081 0.27,-0.19 0.401,-0.281 0.199,-0.14 0.399,-0.279 0.619,-0.44 0.17,-0.13 0.37,-0.28 0.551,-0.42 0.219,-0.169 0.439,-0.33 0.67,-0.52 0.21,-0.17 0.439,-0.359 0.659,-0.54 0.24,-0.2 0.48,-0.39 0.73,-0.609 0.241,-0.21 0.5,-0.44 0.75,-0.661 0.26,-0.23 0.51,-0.45 0.77,-0.7 0.261,-0.25 0.54,-0.519 0.81,-0.78 0.27,-0.26 0.531,-0.51 0.8,-0.79 0.29,-0.29 0.58,-0.61 0.87,-0.92 0.27,-0.29 0.54,-0.569 0.81,-0.87 0.301,-0.34 0.6,-0.71 0.9,-1.06 0.27,-0.32 0.531,-0.619 0.8,-0.96 0.3,-0.38 0.61,-0.79 0.91,-1.199 0.26,-0.351 0.53,-0.69 0.79,-1.051 0.31,-0.429 0.6,-0.889 0.901,-1.34 0.25,-0.379 0.509,-0.74 0.75,-1.129 0.299,-0.48 0.589,-1.011 0.889,-1.511 0.23,-0.4 0.47,-0.79 0.7,-1.199 0.3,-0.54 0.57,-1.131 0.85,-1.701 0.21,-0.42 0.43,-0.82 0.63,-1.26 0.29,-0.63 0.55,-1.289 0.82,-1.95 0.17,-0.419 0.361,-0.82 0.52,-1.25 0.28,-0.73 0.52,-1.51 0.77,-2.28 0.13,-0.4 0.27,-0.77 0.401,-1.18 0.359,-1.19 0.679,-2.419 0.96,-3.7 C -1.02,13.4 -0.77,12 -0.569,10.59 -0.5,10.13 -0.47,9.66 -0.41,9.19 -0.3,8.23 -0.189,7.26 -0.12,6.28 -0.08,5.71 -0.069,5.14 -0.05,4.57 -0.01,3.67 0.01,2.771 0.01,1.86 0.04,1.23 0.021,0.61 0,0 m -26.51,67.94 c 4.93,10.66 9.441,21.93 13.361,33.95 24.199,74.23 -19.241,131.42 -48,173.381 -20,29.189 -92.081,81.299 -92.081,81.299 0,0 71.97,-136.81 -90.27,-265.54 -173.68,-137.809 -90.12,-364.88 91.96,-402.759 l 1.04,-0.231 c 6.83,-1.489 13.84,-2.019 20.82,-1.569 0.36,0 0.73,-0.011 1.09,-0.011 1.61,0 3.25,0 4.86,0.07 h 0.32 c 37.091,0.84 73.551,11.16 105.42,29.84 1.961,1.151 3.93,2.351 5.89,3.59 v -0.81 l 14,10.38 c 55.59,41.21 89.03,108.04 96.28,176.781 C 108.88,7.72 48.16,70.99 -26.51,67.94"
             style="fill:#FFFF00;fill-opacity:1;fill-rule:nonzero;stroke:none"
             id="path46" /></g></g></g></g></svg>
