<?xml version="1.0" standalone="no"?>
<!DOCTYPE svg PUBLIC "-//W3C//DTD SVG 20010904//EN"
 "http://www.w3.org/TR/2001/REC-SVG-20010904/DTD/svg10.dtd">
<svg version="1.0" xmlns="http://www.w3.org/2000/svg"
 width="150.000000pt" height="150.000000pt" viewBox="0 0 150.000000 150.000000"
 preserveAspectRatio="xMidYMid meet">
<metadata>
Created by potrace 1.16, written by Peter Selinger 2001-2019
</metadata>
<g transform="translate(0.000000,150.000000) scale(0.100000,-0.100000)"
fill="#000000" stroke="none">
<path d="M824 1485 c7 -18 -24 -21 -42 -3 -9 9 -12 8 -12 -5 0 -15 9 -17 53
-16 28 1 113 -11 187 -26 127 -27 140 -28 220 -16 47 7 92 19 101 27 8 8 24
14 35 13 14 -1 13 -3 -6 -8 -13 -4 -40 -27 -59 -51 -18 -25 -36 -45 -40 -45
-15 -2 -117 -59 -123 -70 -4 -7 -31 -22 -60 -35 -44 -19 -62 -21 -118 -16 -36
4 -78 14 -95 23 -22 11 -69 17 -175 20 -80 2 -146 9 -148 14 -2 5 -21 9 -42 9
-42 0 -39 -3 -122 109 -42 56 -65 71 -78 51 -17 -26 -12 -68 8 -74 10 -4 32
-20 48 -37 21 -22 24 -28 10 -23 -14 5 -17 4 -12 -4 4 -7 2 -12 -4 -12 -7 0
-10 7 -6 15 6 17 -5 20 -20 5 -7 -7 -10 -4 -10 11 1 24 -19 37 -26 17 -8 -21
11 -149 24 -166 10 -12 10 -14 1 -8 -17 9 -16 3 2 -41 9 -21 12 -40 7 -45 -6
-6 -2 -24 9 -45 11 -21 16 -46 13 -63 -8 -37 12 -48 38 -20 23 25 38 19 17 -7
-12 -16 -12 -17 2 -6 9 7 19 10 22 7 3 -4 6 2 6 12 0 11 3 31 7 47 6 25 4 27
-27 28 l-34 1 30 10 c17 6 35 15 42 20 8 7 10 3 6 -11 -4 -17 -1 -21 21 -21
28 0 93 -33 114 -59 12 -14 13 -14 7 4 -6 19 -5 19 11 3 14 -13 15 -22 8 -40
-11 -25 -19 -118 -10 -118 10 0 26 74 17 83 -12 12 -2 39 10 31 6 -3 7 6 4 23
-6 25 -5 26 6 9 6 -10 12 -57 13 -104 0 -48 5 -87 11 -89 6 -2 10 20 10 56 0
33 3 57 7 55 5 -3 8 -13 8 -22 1 -16 39 -94 40 -81 0 11 -34 105 -46 124 -6
11 -15 36 -19 55 -7 33 -6 34 9 15 15 -20 15 -19 16 7 0 21 4 25 20 21 24 -6
27 -41 4 -50 -12 -4 -14 -14 -9 -45 4 -22 13 -51 20 -64 13 -25 13 -25 19 13
11 58 11 85 3 126 -6 27 -5 37 2 32 6 -3 11 -19 11 -36 0 -16 4 -29 10 -29 5
0 7 6 4 14 -3 8 -1 17 5 21 7 4 11 -8 11 -33 0 -24 11 -61 27 -92 20 -38 24
-56 17 -68 -5 -10 -9 -33 -8 -52 1 -19 3 -41 3 -49 1 -7 7 -11 15 -8 10 4 12
0 8 -15 -2 -11 -11 -22 -18 -25 -9 -3 -14 -21 -14 -47 0 -23 -5 -47 -12 -54
-9 -9 -9 -12 3 -12 10 -1 9 -4 -4 -11 -11 -6 -34 -8 -55 -4 l-37 7 28 -29 c15
-16 27 -34 27 -39 0 -5 -20 -15 -44 -22 -50 -13 -96 -3 -131 30 -15 14 -29 18
-60 14 l-40 -5 35 11 c26 8 30 12 17 16 -20 4 -77 -16 -77 -28 0 -4 13 -10 29
-13 16 -4 38 -15 48 -25 13 -14 38 -21 87 -25 39 -4 76 -13 84 -20 12 -12 9
-17 -21 -36 -19 -11 -39 -21 -45 -21 -20 0 -186 -60 -191 -69 -4 -5 -42 -24
-86 -42 -44 -17 -108 -45 -143 -60 -67 -31 -87 -36 -76 -17 5 8 2 9 -12 4 -10
-5 -27 -11 -36 -13 -10 -3 -16 -9 -13 -13 2 -3 -10 -6 -28 -4 -62 5 -67 -1
-67 -72 l0 -64 324 0 c205 0 326 4 328 10 2 5 61 68 132 140 114 114 140 135
213 171 74 36 86 39 118 30 20 -5 52 -7 71 -4 28 5 41 0 72 -24 20 -16 55 -41
77 -55 61 -40 105 -85 105 -108 0 -12 -4 -19 -8 -16 -5 3 -8 -4 -8 -16 1 -12
-5 -23 -13 -26 -8 -3 -11 0 -7 7 7 11 -19 5 -39 -9 -5 -4 -20 -11 -32 -14 -19
-6 -23 -4 -23 14 0 29 -21 110 -29 110 -3 0 -13 -18 -22 -39 -14 -32 -14 -39
-3 -34 8 3 14 -1 14 -8 0 -8 -22 -24 -50 -37 -59 -27 -89 -18 -91 26 -2 23 -2
24 -6 4 -5 -24 -13 -28 -30 -11 -7 7 -17 0 -33 -26 -23 -37 -23 -37 -77 -31
-29 3 -53 3 -53 -2 0 -4 -10 -13 -23 -21 -21 -13 -22 -13 -4 6 38 43 -26 45
-108 3 -32 -16 -60 -32 -63 -35 -3 -3 169 -5 381 -5 l387 0 0 406 0 407 -30
52 c-29 51 -47 135 -29 135 5 0 9 12 8 28 l-1 27 -7 -25 -7 -25 -8 24 c-16 47
-11 122 8 136 11 8 13 15 7 20 -6 3 -11 14 -11 23 1 12 4 10 14 -7 8 -14 12
-30 9 -37 -2 -7 0 -15 6 -19 6 -3 11 -15 11 -26 0 -11 -4 -18 -8 -15 -5 3 -1
-18 9 -47 16 -45 16 -53 3 -63 -12 -10 -12 -13 0 -23 8 -7 16 -27 18 -44 2
-18 5 46 6 141 2 178 -3 209 -42 241 -13 11 -16 11 -16 0 -1 -9 -7 -6 -19 8
-10 12 -21 19 -25 16 -3 -4 -6 3 -6 15 0 12 1 22 3 22 1 0 26 -9 55 -20 l52
-20 0 85 0 85 -341 0 c-299 0 -340 -2 -335 -15z m121 -831 c20 -13 33 -14 65
-6 35 9 39 8 31 -7 -5 -9 -6 -22 -3 -30 2 -8 -3 -20 -12 -27 -10 -7 -16 -16
-14 -21 2 -4 -12 -15 -30 -25 -27 -13 -30 -17 -15 -21 13 -3 8 -7 -17 -12 -28
-7 -31 -10 -15 -15 15 -5 11 -8 -19 -14 -21 -4 -41 -5 -44 -2 -3 3 5 6 18 6
32 0 20 10 -19 15 -21 2 -31 -1 -31 -10 0 -12 -39 -29 -48 -21 -2 2 11 20 27
39 17 19 31 46 31 59 0 34 39 83 53 69 18 -18 28 -12 17 8 -19 36 -12 39 25
15z m359 -124 c35 -13 49 -43 34 -74 -15 -35 -24 -33 -32 7 l-7 32 -17 -27
c-22 -37 -40 -35 -57 5 -13 28 -20 24 -16 -10 1 -7 -3 -22 -9 -33 -13 -24 -58
-27 -66 -5 -4 8 -10 12 -15 9 -14 -8 -11 62 4 73 6 5 23 10 37 11 14 1 26 6
28 12 5 13 82 13 116 0z m-321 -172 c3 -11 -11 -27 -42 -49 -25 -17 -66 -51
-91 -75 -55 -52 -249 -156 -282 -150 -13 1 -47 -5 -75 -15 -30 -10 -53 -14
-53 -8 0 6 -6 7 -12 3 -7 -5 -5 3 5 16 9 14 20 31 24 39 3 7 17 25 29 39 33
35 30 51 -3 21 -49 -44 -103 -80 -112 -75 -4 3 -28 -8 -53 -23 -25 -16 -55
-34 -67 -41 -20 -10 -21 -10 -9 9 7 12 16 21 20 21 5 0 8 6 8 14 0 20 51 55
92 63 54 10 97 32 121 59 26 30 112 79 88 50 -8 -10 12 0 45 22 32 22 85 53
118 71 55 29 64 31 152 28 77 -2 94 -5 97 -19z"/>
<path d="M270 1159 c0 -153 -13 -223 -53 -279 -44 -63 -62 -76 -144 -100 -58
-17 -73 -26 -73 -41 0 -17 7 -19 58 -18 78 2 99 -6 151 -55 24 -22 41 -35 37
-28 -4 6 -2 12 4 12 6 0 8 5 4 11 -3 6 -1 14 5 18 15 10 -13 67 -41 82 -17 9
-18 13 -7 20 8 5 10 9 4 9 -5 0 7 11 28 25 34 24 41 39 40 83 -1 6 8 12 18 12
22 0 21 -3 23 70 1 30 -4 64 -11 76 -7 11 -12 31 -12 45 2 27 -20 161 -27 168
-2 2 -4 -47 -4 -110z"/>
<path d="M452 814 c-26 -10 -53 -30 -70 -52 -15 -21 -35 -44 -44 -53 -25 -23
-22 -52 9 -91 15 -18 28 -34 29 -36 0 -1 9 0 18 4 20 8 21 34 0 34 -8 0 -13 4
-10 9 3 5 -3 11 -14 14 -25 6 -26 38 -1 54 10 6 21 25 24 42 7 36 31 41 47 11
9 -16 8 -22 -5 -26 -15 -6 -13 -9 45 -81 7 -9 2 -17 -20 -28 -17 -9 -28 -20
-25 -25 6 -10 35 -2 35 10 0 4 30 6 68 3 l67 -5 -34 24 c-19 12 -53 35 -75 49
-35 22 -41 30 -39 56 2 20 -2 33 -13 37 -20 8 -9 26 16 26 12 0 21 -10 25 -31
26 -119 205 -150 205 -35 0 75 -138 127 -238 90z"/>
</g>
</svg>
