<?xml version="1.0" standalone="no"?>
<!DOCTYPE svg PUBLIC "-//W3C//DTD SVG 20010904//EN"
 "http://www.w3.org/TR/2001/REC-SVG-20010904/DTD/svg10.dtd">
<svg version="1.0" xmlns="http://www.w3.org/2000/svg"
 width="2560.000000pt" height="1706.000000pt" viewBox="0 0 2560.000000 1706.000000"
 preserveAspectRatio="xMidYMid meet">

<g transform="translate(0.000000,1706.000000) scale(0.100000,-0.100000)"
fill="#000000" stroke="none">
<path d="M10950 13149 c-35 -15 -243 -218 -923 -897 -483 -482 -896 -898 -918
-924 l-40 -47 36 -17 c35 -16 85 -76 85 -101 0 -14 -29 -15 -100 -5 -44 7 -44
7 -17 19 34 16 35 47 2 69 -21 14 -28 14 -43 3 -30 -23 -562 -562 -562 -570 0
-4 8 -10 18 -12 12 -3 11 -5 -6 -6 -29 -1 -62 -18 -62 -32 0 -5 10 -3 23 6 13
8 26 13 29 9 11 -10 -4 -42 -22 -47 -13 -3 -21 -19 -26 -53 l-7 -49 -16 48
c-25 80 -46 54 -51 -63 -4 -120 0 -190 12 -190 4 0 23 9 43 20 20 11 46 20 58
20 20 -1 20 -2 5 -11 -10 -5 -18 -16 -18 -23 0 -7 -9 -21 -21 -32 -20 -18 -22
-18 -50 -1 -26 14 -30 14 -34 2 -14 -45 -18 -51 -22 -34 -2 10 -15 16 -33 16
-42 0 -49 11 -20 33 23 18 24 20 5 20 -12 0 -26 -5 -33 -12 -9 -9 -12 -9 -12
0 0 7 -4 12 -10 12 -5 0 -10 -7 -10 -15 0 -8 5 -15 11 -15 5 0 7 -4 4 -10 -3
-5 -17 -10 -31 -10 -20 0 -24 -5 -25 -32 0 -18 -3 -116 -7 -218 -12 -323 -9
-1647 4 -1660 14 -14 57 -3 49 11 -3 5 1 6 10 3 10 -4 33 10 65 40 43 40 55
46 92 46 45 0 65 -10 147 -75 49 -39 66 -75 36 -75 -20 0 -46 -52 -34 -71 5
-8 9 -28 9 -45 0 -17 7 -37 15 -44 8 -7 15 -21 15 -32 0 -15 -5 -18 -20 -13
-20 6 -26 -8 -22 -55 3 -32 -7 -43 -23 -26 -13 12 -13 19 -4 34 9 15 10 33 2
73 -6 30 -9 68 -6 84 6 38 -12 85 -32 85 -16 0 -19 -13 -15 -77 2 -47 -9 -91
-19 -76 -3 6 -18 13 -33 17 -28 6 -28 6 -28 -48 0 -52 15 -106 30 -106 4 0 21
-18 39 -40 34 -42 35 -55 2 -19 -38 41 -41 14 -6 -58 32 -68 37 -73 66 -73 23
0 30 -4 26 -14 -3 -8 8 -26 24 -40 51 -46 21 -48 -44 -3 -55 37 -83 65 -173
172 l-25 30 6 -38 c3 -21 9 -46 12 -55 6 -15 5 -15 -10 -3 -10 8 -20 11 -23 8
-10 -10 29 -69 57 -86 14 -9 46 -31 70 -50 41 -31 100 -62 142 -75 40 -12 12
-23 -58 -22 -41 1 -70 3 -65 4 22 8 8 21 -27 28 -101 18 -172 99 -228 260
l-22 63 -2 -239 c-1 -223 0 -240 16 -241 11 0 13 -3 6 -6 -7 -2 -13 -20 -13
-39 0 -33 4 -37 50 -56 42 -17 49 -24 44 -41 -4 -12 -1 -23 7 -28 21 -13 39
-11 39 6 0 8 5 15 10 15 6 0 10 -9 10 -20 0 -11 5 -20 11 -20 6 0 9 7 5 15 -7
20 11 19 22 -2 9 -15 10 -14 15 3 4 10 7 40 8 66 5 88 19 74 18 -17 0 -99 -8
-118 -79 -170 -43 -32 -47 -32 -55 7 l-7 32 -16 -30 c-8 -16 -32 -45 -52 -64
-36 -34 -37 -37 -36 -100 l1 -65 37 1 c28 1 38 -3 41 -17 3 -11 14 -19 26 -19
25 0 25 1 6 47 -8 20 -14 38 -12 40 12 12 40 -16 59 -58 18 -39 31 -52 62 -64
27 -11 42 -13 49 -6 14 14 47 14 47 1 0 -5 -11 -19 -25 -32 -13 -13 -28 -41
-33 -63 l-8 -40 -18 58 c-21 71 -46 79 -46 15 0 -24 4 -50 10 -58 5 -9 5 -19
-1 -26 -15 -19 -16 -144 0 -153 9 -6 10 -11 2 -15 -14 -9 -14 -36 -1 -36 6 0
23 9 38 20 32 23 97 40 71 18 -9 -7 -19 -23 -23 -36 -9 -26 -46 -38 -74 -23
-28 15 -32 14 -32 -9 0 -11 -4 -20 -10 -20 -5 0 -44 33 -86 73 l-77 72 6 -110
c9 -168 28 -232 102 -350 27 -43 396 -419 1272 -1295 679 -679 1258 -1254
1287 -1277 29 -23 82 -56 118 -73 136 -64 39 -61 1911 -58 l1702 3 65 22 c154
53 105 7 1456 1358 804 803 1274 1280 1296 1315 66 103 87 173 97 326 12 161
11 3107 -1 3254 -4 52 -12 205 -18 339 -7 182 -14 251 -26 276 -13 28 -462
485 -971 988 l-160 158 -28 -43 c-15 -24 -44 -65 -64 -93 -21 -27 -50 -68 -66
-89 -25 -35 -29 -37 -36 -20 -8 22 -2 37 11 29 11 -7 52 53 74 107 13 31 13
37 1 42 -21 8 -97 -21 -126 -48 -20 -19 -28 -21 -41 -12 -15 11 -15 13 3 24
21 14 26 52 6 52 -7 0 -19 15 -25 34 -7 19 -37 59 -67 90 -55 57 -54 61 2 20
17 -13 34 -24 38 -24 3 0 17 -12 30 -27 21 -25 24 -26 30 -10 4 10 0 28 -9 42
-14 22 -15 25 -1 25 18 0 19 5 5 31 -9 16 -7 19 13 19 13 0 27 -3 31 -7 14
-14 56 -10 56 6 0 17 -50 68 -825 847 -458 460 -611 608 -645 623 -45 20 -57
21 -1860 21 -1800 0 -1815 -1 -1860 -21z m2106 -307 c-3 -5 -23 -15 -46 -22
-22 -7 -45 -19 -51 -27 -6 -7 -17 -13 -23 -13 -16 1 23 29 69 51 44 20 59 24
51 11z m1367 -495 c84 -25 136 -50 198 -97 49 -36 1210 -1191 2012 -2000 300
-302 315 -319 357 -403 l44 -87 3 -1459 3 -1460 -38 -44 c-20 -24 -590 -598
-1267 -1276 l-1230 -1231 -195 -5 c-107 -3 -226 -5 -264 -4 l-69 0 31 -36 c36
-40 43 -58 12 -30 -33 30 -33 11 2 -61 30 -63 36 -69 66 -72 27 -3 32 -7 27
-22 -4 -13 2 -24 20 -36 33 -22 44 -10 18 19 -11 12 -24 33 -28 47 -4 14 -24
43 -44 65 -20 22 -26 31 -13 21 12 -11 32 -24 44 -30 12 -6 31 -30 43 -54 25
-50 78 -108 120 -129 19 -10 72 -19 141 -23 88 -6 121 -12 165 -33 49 -23 51
-25 24 -26 -16 -1 -46 3 -65 8 -19 5 -66 12 -104 15 -61 6 -68 5 -62 -10 5
-13 2 -14 -11 -8 -25 11 -306 23 -318 13 -6 -4 -17 -4 -25 1 -12 8 -12 10 3
10 31 0 8 19 -31 26 -55 10 -87 29 -125 76 -45 55 -83 133 -102 205 -8 31 -21
60 -27 65 -7 5 -483 7 -1058 6 -575 -2 -1162 -2 -1306 0 l-260 3 -1244 1243
c-684 684 -1248 1252 -1253 1262 -15 26 -13 2796 2 2889 15 95 75 212 153 301
35 40 551 560 1148 1156 728 728 1105 1097 1145 1123 74 49 166 83 253 94 37
5 738 8 1557 7 1385 -1 1494 -2 1548 -19z m1352 -647 c17 -7 17 -9 3 -9 -10
-1 -18 -8 -18 -16 0 -9 -9 -15 -23 -15 -34 0 -39 11 -15 31 23 21 25 21 53 9z
m211 -5 c10 -8 15 -14 9 -14 -5 0 -19 6 -29 14 -11 8 -15 15 -10 15 6 0 19 -7
30 -15z m-332 -40 c-4 -8 -11 -15 -16 -15 -6 0 -5 6 2 15 7 8 14 15 16 15 2 0
1 -7 -2 -15z m251 -165 c3 -5 1 -10 -4 -10 -6 0 -11 5 -11 10 0 6 2 10 4 10 3
0 8 -4 11 -10z m56 -37 c16 -10 29 -23 29 -30 0 -20 -9 -16 -42 17 -33 34 -30
38 13 13z m-6756 -330 c-4 -10 -10 -28 -12 -40 -7 -30 -33 -18 -33 16 0 33 7
41 33 41 14 0 17 -4 12 -17z m-70 -53 c3 -5 1 -10 -4 -10 -6 0 -11 5 -11 10 0
6 2 10 4 10 3 0 8 -4 11 -10z m-235 -49 c0 -6 -4 -13 -10 -16 -5 -3 -10 1 -10
9 0 9 5 16 10 16 6 0 10 -4 10 -9z m240 -41 c11 -11 17 -26 14 -35 -5 -11 1
-15 20 -15 18 0 30 7 36 23 5 12 9 17 9 10 1 -7 10 -21 22 -32 17 -16 19 -23
10 -40 -14 -25 -15 -25 -42 -8 -18 10 -23 9 -40 -12 -12 -14 -19 -18 -19 -9 0
8 5 19 10 24 8 8 2 21 -19 42 -30 33 -51 41 -51 20 0 -9 -3 -9 -11 -1 -8 8 -7
17 3 32 16 26 32 27 58 1z m-110 -105 c0 -8 -4 -15 -10 -15 -5 0 -10 7 -10 15
0 8 5 15 10 15 6 0 10 -7 10 -15z m116 -72 c-11 -11 -19 6 -11 24 8 17 8 17
12 0 3 -10 2 -21 -1 -24z m-191 6 c-8 -11 -56 -32 -62 -26 -12 13 13 37 39 37
18 0 27 -4 23 -11z m77 -39 c1 -22 2 -47 2 -57 1 -9 -5 -18 -11 -20 -7 -3 -13
2 -13 11 0 9 -7 16 -15 16 -8 0 -15 4 -15 9 0 5 7 14 15 21 8 7 15 23 15 36 0
41 20 26 22 -16z m-335 -116 c-3 -3 -12 -4 -19 -1 -8 3 -5 6 6 6 11 1 17 -2
13 -5z m-102 -73 c-3 -6 -11 -11 -17 -11 -6 0 -6 6 2 15 14 17 26 13 15 -4z
m263 -7 c-11 -11 -23 -14 -35 -9 -17 7 -17 8 2 15 11 5 27 9 35 9 12 1 11 -2
-2 -15z m-435 -189 c-3 -8 -9 -15 -14 -15 -10 0 -12 24 -3 33 11 11 24 -3 17
-18z m3 -40 c-19 -28 -39 -29 -44 -2 -2 11 3 17 17 17 11 0 23 5 26 11 4 6 9
8 12 5 3 -3 -2 -17 -11 -31z m7 -157 c-13 -39 -7 -87 15 -118 12 -16 22 -36
22 -45 0 -18 16 -20 26 -3 4 6 0 16 -9 23 -20 14 -32 78 -19 102 9 16 11 14
17 -12 3 -17 13 -42 21 -57 8 -14 14 -33 14 -42 0 -11 9 -16 26 -16 22 0 25
-2 14 -15 -7 -8 -9 -15 -4 -15 5 0 1 -5 -8 -11 -22 -12 -24 -39 -4 -39 16 0
31 -34 22 -49 -8 -13 -108 8 -131 28 -11 9 -39 30 -62 45 -24 16 -43 33 -43
38 0 5 10 22 21 37 24 32 18 55 -12 46 -24 -8 -24 2 3 45 12 20 23 30 25 23 7
-21 17 -15 37 22 21 39 42 48 29 13z m-223 -182 c0 -12 5 -27 12 -34 16 -16
-4 -37 -27 -28 -12 4 -15 13 -11 29 3 12 6 32 6 45 0 13 4 20 10 17 6 -3 10
-16 10 -29z m8890 -1247 c0 -5 -7 -9 -15 -9 -15 0 -20 12 -9 23 8 8 24 -1 24
-14z m-8566 -304 c-4 -8 -8 -15 -10 -15 -2 0 -4 7 -4 15 0 8 4 15 10 15 5 0 7
-7 4 -15z m8860 -481 c22 -8 20 -24 -3 -24 -10 0 -21 7 -25 15 -6 16 3 19 28
9z m-8877 -26 c-3 -8 -6 -5 -6 6 -1 11 2 17 5 13 3 -3 4 -12 1 -19z m34 -102
c9 -12 19 -34 23 -49 10 -43 -15 -30 -38 19 -10 21 -25 47 -33 56 -14 16 -14
16 9 6 13 -6 31 -21 39 -32z m-216 -26 c3 -5 1 -10 -4 -10 -6 0 -11 5 -11 10
0 6 2 10 4 10 3 0 8 -4 11 -10z m-95 -130 c0 -5 -4 -10 -10 -10 -5 0 -10 5
-10 10 0 6 5 10 10 10 6 0 10 -4 10 -10z m40 -95 c0 -8 -4 -15 -9 -15 -13 0
-22 16 -14 24 11 11 23 6 23 -9z m140 -81 c0 -19 -4 -33 -9 -30 -5 3 -9 21 -8
40 1 45 17 35 17 -10z m28 -430 c2 -12 -4 -24 -12 -27 -10 -4 -16 -1 -16 7 0
8 -3 22 -6 31 -5 13 -2 16 12 13 10 -2 20 -13 22 -24z m-81 -36 c-3 -8 -6 -5
-6 6 -1 11 2 17 5 13 3 -3 4 -12 1 -19z m63 -58 c0 -5 -5 -10 -11 -10 -5 0 -7
5 -4 10 3 6 8 10 11 10 2 0 4 -4 4 -10z m40 -39 c0 -10 -52 -31 -61 -25 -5 3
-9 13 -9 23 0 14 7 16 35 13 19 -2 35 -7 35 -11z m-48 -293 c-6 -6 -15 -9 -18
-5 -4 3 -4 14 0 23 5 13 9 15 18 6 9 -9 9 -15 0 -24z m6 -30 c-19 -28 -41 -30
-46 -4 -3 15 0 18 17 13 12 -3 21 -1 21 4 0 5 5 9 11 9 7 0 6 -8 -3 -22z m6
-168 c-9 -16 -13 -34 -9 -40 3 -5 2 -10 -4 -10 -6 0 -15 9 -21 20 -7 12 -7 20
-1 20 5 0 13 9 16 20 3 11 12 20 20 20 11 0 11 -5 -1 -30z m56 -63 c0 -12 7
-31 15 -41 29 -38 15 -52 -15 -16 -28 32 -38 68 -24 83 11 11 24 -3 24 -26z
m187 -5 c6 -4 14 -24 18 -45 l7 -37 -42 0 c-23 0 -57 -7 -76 -16 -43 -20 -57
-11 -17 10 16 8 42 33 56 55 28 42 34 46 54 33z m1896 -2031 c18 -31 22 -77 8
-99 -11 -18 -34 10 -25 32 3 9 1 16 -5 16 -6 0 -11 14 -11 30 0 17 -5 30 -11
30 -5 0 -7 5 -4 10 11 18 30 10 48 -19z m1238 -129 c-13 -2 -28 2 -32 10 -16
25 -9 28 24 11 31 -17 31 -18 8 -21z m289 -5 c-1 -21 -1 -21 -15 -3 -8 10 -12
23 -9 28 9 14 24 -2 24 -25z m400 23 c0 -5 -5 -10 -11 -10 -5 0 -7 5 -4 10 3
6 8 10 11 10 2 0 4 -4 4 -10z m1259 -52 c1 -5 -3 -8 -9 -8 -5 0 -10 12 -9 28
0 24 1 25 9 7 5 -11 9 -23 9 -27z m-1783 -19 c3 -6 -1 -18 -10 -27 -15 -15
-16 -14 -16 11 0 27 13 36 26 16z m-1196 -2 c0 -2 -11 -17 -25 -33 -14 -16
-25 -33 -25 -38 0 -5 -7 -3 -15 4 -8 7 -15 17 -15 23 0 8 4 7 11 0 9 -9 18 -4
36 18 23 26 33 35 33 26z m3435 -27 c3 -5 2 -10 -4 -10 -5 0 -13 5 -16 10 -3
6 -2 10 4 10 5 0 13 -4 16 -10z m-2310 -10 c3 -5 2 -10 -4 -10 -5 0 -13 5 -16
10 -3 6 -2 10 4 10 5 0 13 -4 16 -10z m990 -69 c3 -5 1 -12 -5 -16 -5 -3 -10
1 -10 9 0 18 6 21 15 7z m852 -23 c-3 -7 -5 -2 -5 12 0 14 2 19 5 13 2 -7 2
-19 0 -25z m533 -26 c0 -9 -9 -7 -30 8 -16 12 -30 23 -30 25 0 2 14 -2 30 -8
17 -6 30 -17 30 -25z m-460 -47 c0 -8 -4 -15 -10 -15 -5 0 -7 7 -4 15 4 8 8
15 10 15 2 0 4 -7 4 -15z m600 -9 c0 -3 -4 -8 -10 -11 -5 -3 -10 -1 -10 4 0 6
5 11 10 11 6 0 10 -2 10 -4z"/>
<path d="M11781 10948 c-6 -18 -35 -133 -66 -255 l-55 -222 0 -1136 c0 -954 2
-1135 14 -1135 8 0 15 -15 19 -40 5 -36 23 -79 59 -141 11 -18 11 -22 -1 -27
-8 -2 -31 -20 -52 -39 l-39 -35 0 -1039 c0 -841 2 -1039 13 -1039 7 0 13 -10
14 -21 3 -42 36 -128 54 -145 28 -25 24 -35 -31 -79 l-50 -40 0 -197 c0 -109
2 -198 4 -198 13 0 184 42 201 49 17 7 24 27 39 107 24 131 66 304 80 331 6
11 38 41 72 66 96 71 188 162 214 213 28 52 32 124 16 269 l-9 81 129 102 c71
56 138 109 149 117 l20 16 -20 -9 c-85 -41 -255 -77 -255 -55 0 25 87 351 108
407 44 112 126 189 232 217 31 8 237 14 670 19 588 6 628 7 671 26 54 22 96
56 126 99 19 29 24 42 44 115 13 51 12 598 -1 673 -7 34 -14 69 -17 77 -8 27
-26 -19 -19 -51 3 -15 2 -31 -3 -34 -13 -8 -34 22 -25 37 9 15 6 76 -6 118 -5
18 -5 30 1 30 14 0 11 38 -7 71 -23 45 -39 31 -41 -37 0 -32 -1 -64 -2 -71 -1
-8 -10 -9 -33 -2 -18 5 -34 9 -35 9 -2 0 -3 -29 -3 -64 0 -61 2 -66 40 -107
22 -24 40 -48 40 -54 0 -5 -7 -2 -14 8 -13 17 -37 24 -35 10 0 -5 15 -37 32
-73 28 -56 36 -65 62 -68 33 -4 60 -22 32 -22 -15 0 -14 -3 3 -20 36 -36 11
-40 -42 -7 -46 28 -109 94 -161 167 -17 25 -17 25 -11 -23 5 -41 4 -46 -10
-41 -9 4 -16 1 -16 -6 0 -22 34 -70 50 -70 8 0 30 -16 49 -35 19 -19 63 -49
98 -67 35 -18 63 -38 63 -43 0 -6 -26 -10 -59 -10 -33 0 -55 3 -48 7 12 7 -9
17 -81 39 -67 20 -116 85 -179 239 -6 14 -16 57 -23 95 -13 75 -9 110 26 209
l17 49 -26 19 c-32 23 -35 48 -7 48 34 0 74 23 117 67 36 36 49 43 82 43 39 0
90 -14 101 -28 3 -4 20 -20 38 -36 l32 -30 0 132 0 132 -455 0 c-251 -1 -462
-3 -471 -7 -19 -7 -54 -84 -54 -118 0 -37 -10 -53 -30 -48 -27 7 -31 38 -10
101 10 31 16 60 13 65 -2 4 -45 7 -95 7 -82 0 -90 -2 -95 -20 -6 -22 -28 -22
-28 0 0 17 -31 28 -81 29 -22 1 -43 4 -47 7 -3 4 6 25 22 48 58 85 82 147 137
351 67 250 112 334 206 378 54 26 128 42 128 28 0 -4 -25 -34 -55 -66 -81 -85
-79 -84 65 12 36 24 71 43 78 43 7 0 54 -21 105 -47 83 -43 99 -47 163 -48 61
0 79 5 145 37 140 70 283 196 333 296 49 96 58 165 58 427 0 149 -4 257 -11
285 -7 25 -14 169 -18 327 l-6 281 -78 1 c-44 0 -79 -3 -79 -7 0 -11 -91 -74
-98 -68 -2 3 -5 19 -6 36 -1 29 -16 44 -16 16 0 -8 -22 -39 -50 -68 -41 -44
-51 -50 -60 -38 -11 15 -7 79 6 113 6 16 -55 17 -974 17 l-980 0 -11 -32z
m2259 -149 c0 -3 -6 -12 -14 -18 -11 -9 -15 -6 -20 14 -9 36 3 53 21 30 7 -11
13 -22 13 -26z m-80 -19 c0 -5 -5 -10 -11 -10 -5 0 -7 5 -4 10 3 6 8 10 11 10
2 0 4 -4 4 -10z m-40 -95 c8 -24 21 -36 52 -49 37 -14 43 -14 58 -1 22 20 30
19 30 -5 0 -10 -9 -24 -20 -30 -12 -7 -22 -25 -26 -50 -7 -45 -19 -44 -29 3
-4 17 -15 40 -24 51 -15 17 -16 17 -21 -20 -3 -22 -2 -49 2 -62 5 -13 4 -31
-2 -42 -13 -24 -13 -85 -1 -128 6 -21 6 -44 0 -65 -6 -18 -13 -38 -15 -46 -3
-10 -8 -10 -18 -2 -7 6 -15 8 -18 6 -3 -3 -18 -1 -34 6 l-29 11 28 14 c37 20
34 25 -15 20 -40 -3 -68 -26 -33 -26 9 0 13 -4 10 -10 -3 -5 -22 -10 -41 -10
l-34 0 0 60 c0 39 6 70 16 85 15 23 15 25 0 31 -13 5 -16 24 -16 110 0 61 4
104 10 104 5 0 7 13 4 29 -6 27 -4 29 31 33 28 3 39 0 46 -14 5 -10 19 -18 29
-18 24 0 24 1 5 47 -8 19 -15 40 -15 46 0 20 60 -46 70 -78z m100 31 c0 -3 -4
-8 -10 -11 -5 -3 -10 -1 -10 4 0 6 5 11 10 11 6 0 10 -2 10 -4z m55 -47 c6 0
-3 -4 -20 -9 -16 -4 -37 -9 -45 -11 -9 -3 -16 4 -18 18 -3 20 -1 21 35 12 21
-5 43 -9 48 -10z m-65 -273 c0 -8 6 -16 12 -18 9 -3 8 -12 -5 -31 -21 -32 -33
-34 -47 -7 -9 18 -8 20 17 21 15 0 22 3 16 6 -15 6 -17 43 -3 43 6 0 10 -6 10
-14z m37 -84 c-10 -10 -17 -23 -17 -29 0 -6 -6 -16 -14 -22 -17 -14 -69 -4
-63 13 6 17 68 56 90 56 19 0 19 -1 4 -18z m-167 -96 c0 -2 -7 -9 -15 -16 -13
-11 -14 -10 -9 4 5 14 24 23 24 12z m140 -25 c-15 -29 -12 -79 7 -112 10 -16
21 -29 25 -29 4 0 8 -9 8 -20 0 -22 15 -27 26 -8 4 6 1 16 -7 22 -18 14 -39
74 -32 92 9 24 20 16 27 -20 4 -19 11 -36 16 -38 5 -2 12 -17 16 -34 5 -29 2
-35 -41 -68 -27 -20 -53 -36 -60 -36 -7 0 -31 14 -54 30 l-41 30 21 29 c23 32
20 65 -6 55 -18 -7 -19 6 -3 41 8 18 18 25 30 22 12 -4 24 6 39 29 22 36 48
49 29 15z m-1295 -68 c2 -30 -7 -29 -22 3 -10 22 -9 25 4 22 9 -2 17 -13 18
-25z m1065 -101 c0 -10 6 -27 14 -38 17 -24 6 -50 -18 -41 -11 4 -15 18 -13
51 2 43 17 67 17 28z m-323 -1523 c19 -12 32 -23 29 -26 -5 -6 -63 24 -71 37
-10 16 5 12 42 -11z m644 -52 c-10 -9 -11 -8 -5 6 3 10 9 15 12 12 3 -3 0 -11
-7 -18z m-984 -59 c-3 -8 -6 -5 -6 6 -1 11 2 17 5 13 3 -3 4 -12 1 -19z
m-1306 -424 c9 -11 7 -14 -14 -14 -16 0 -26 7 -30 19 -3 14 0 17 14 14 10 -3
24 -11 30 -19z m276 1 c8 -22 -6 -33 -17 -15 -13 20 -12 30 0 30 6 0 13 -7 17
-15z m1662 -47 c1 -5 -3 -8 -9 -8 -5 0 -10 12 -9 28 0 24 1 25 9 7 5 -11 9
-23 9 -27z m-1782 -24 c2 -5 -5 -14 -15 -21 -17 -10 -18 -8 -14 13 4 24 22 29
29 8z m2133 -18 c0 5 7 -2 16 -14 11 -16 12 -27 5 -39 -8 -14 -10 -14 -11 -3
0 8 -15 29 -32 48 -31 33 -32 34 -5 17 15 -9 27 -14 27 -9z m-2200 -16 c13 -8
13 -10 -2 -10 -9 0 -20 5 -23 10 -8 13 5 13 25 0z m2015 -40 c3 -5 1 -10 -4
-10 -6 0 -11 5 -11 10 0 6 2 10 4 10 3 0 8 -4 11 -10z m-1031 -35 c-4 -8 -8
-15 -10 -15 -2 0 -4 7 -4 15 0 8 4 15 10 15 5 0 7 -7 4 -15z m853 -7 c-3 -8
-6 -5 -6 6 -1 11 2 17 5 13 3 -3 4 -12 1 -19z m73 -83 c0 -8 -4 -15 -10 -15
-5 0 -7 7 -4 15 4 8 8 15 10 15 2 0 4 -7 4 -15z m40 -101 c0 -8 -5 -12 -10 -9
-6 4 -8 11 -5 16 9 14 15 11 15 -7z m150 -74 c0 -16 -4 -32 -10 -35 -6 -4 -10
10 -10 35 0 25 4 39 10 35 6 -3 10 -19 10 -35z"/>
<path d="M13834 10553 c4 -15 11 -29 15 -31 8 -3 -1 -63 -14 -95 -5 -13 -3
-16 8 -12 9 4 16 -2 20 -15 4 -14 12 -20 24 -18 15 3 18 12 16 56 -1 29 -8 62
-15 75 -7 12 -13 31 -13 42 0 13 -8 21 -24 23 -21 3 -23 1 -17 -25z"/>
<path d="M13986 10025 c-3 -8 -1 -15 4 -15 6 0 10 7 10 15 0 8 -2 15 -4 15 -2
0 -6 -7 -10 -15z"/>
<path d="M13928 8343 c7 -3 16 -2 19 1 4 3 -2 6 -13 5 -11 0 -14 -3 -6 -6z"/>
<path d="M14015 8320 l-20 -22 35 4 c23 2 35 8 35 18 0 23 -29 23 -50 0z"/>
<path d="M14115 8250 c-3 -5 -1 -18 4 -27 9 -16 10 -14 11 10 0 28 -5 34 -15
17z"/>
<path d="M13960 8196 c0 -8 5 -18 10 -21 6 -3 10 3 10 14 0 12 -4 21 -10 21
-5 0 -10 -6 -10 -14z"/>
<path d="M13820 8071 c0 -6 5 -13 10 -16 6 -3 10 1 10 9 0 9 -4 16 -10 16 -5
0 -10 -4 -10 -9z"/>
<path d="M11810 5157 c-50 -25 -72 -127 -35 -164 30 -30 66 -24 97 15 35 44
39 111 8 142 -23 23 -36 24 -70 7z"/>
<path d="M13905 4170 c6 -34 4 -39 -9 -34 -22 8 -20 -12 5 -52 12 -20 29 -34
40 -34 10 0 19 -4 19 -8 0 -17 101 -84 156 -103 43 -15 63 -18 78 -10 12 5 15
10 9 10 -7 1 -13 7 -13 14 0 6 -28 28 -62 47 -77 44 -161 119 -190 171 -28 50
-42 50 -33 -1z m25 -81 c0 -5 -4 -9 -10 -9 -5 0 -10 7 -10 16 0 8 5 12 10 9 6
-3 10 -10 10 -16z"/>
<path d="M8402 10020 c0 -14 2 -19 5 -12 2 6 2 18 0 25 -3 6 -5 1 -5 -13z"/>
<path d="M16060 11637 c0 -9 4 -18 9 -21 5 -4 8 1 7 9 -3 21 -16 31 -16 12z"/>
<path d="M16196 11588 c-24 -34 -20 -55 15 -67 27 -9 30 -13 19 -26 -7 -9 -8
-15 -2 -15 5 0 19 18 29 40 l20 39 -27 26 c-32 31 -35 31 -54 3z"/>
<path d="M16056 11514 c-4 -10 -1 -14 6 -12 15 5 23 28 10 28 -5 0 -13 -7 -16
-16z"/>
<path d="M8270 10478 c-21 -36 -26 -58 -11 -58 5 0 13 -9 16 -20 3 -11 15 -20
26 -20 15 0 19 7 19 34 0 47 -11 96 -21 96 -5 0 -18 -15 -29 -32z"/>
<path d="M8220 10329 c0 -5 5 -7 10 -4 6 3 10 8 10 11 0 2 -4 4 -10 4 -5 0
-10 -5 -10 -11z"/>
<path d="M8338 8343 c7 -3 16 -2 19 1 4 3 -2 6 -13 5 -11 0 -14 -3 -6 -6z"/>
<path d="M8432 8328 c-20 -20 -14 -30 16 -26 16 2 27 9 27 18 0 19 -27 24 -43
8z"/>
<path d="M8160 8223 c0 -69 9 -74 29 -14 15 46 14 54 -9 69 -19 12 -20 10 -20
-55z"/>
<path d="M8380 8191 c0 -12 5 -21 10 -21 6 0 10 6 10 14 0 8 -4 18 -10 21 -5
3 -10 -3 -10 -14z"/>
<path d="M8232 8071 c2 -7 7 -12 11 -12 12 1 9 15 -3 20 -7 2 -11 -2 -8 -8z"/>
<path d="M8167 7393 c-11 -10 -8 -133 2 -133 16 0 51 51 51 74 0 23 -26 66
-39 66 -4 0 -11 -3 -14 -7z"/>
<path d="M8240 6856 c0 -2 5 -17 11 -33 16 -38 18 -64 8 -91 -6 -14 -5 -28 1
-35 6 -7 17 -21 24 -31 8 -12 18 -16 26 -11 17 11 7 125 -13 140 -8 5 -14 21
-13 35 1 19 -5 26 -21 28 -13 2 -23 1 -23 -2z"/>
</g>
</svg>
