<?xml version="1.0" encoding="UTF-8"?>
<!DOCTYPE svg PUBLIC "-//W3C//DTD SVG 1.1//EN" "http://www.w3.org/Graphics/SVG/1.1/DTD/svg11.dtd">
<svg xmlns="http://www.w3.org/2000/svg" version="1.1" width="200px" height="200px" style="shape-rendering:geometricPrecision; text-rendering:geometricPrecision; image-rendering:optimizeQuality; fill-rule:evenodd; clip-rule:evenodd" xmlns:xlink="http://www.w3.org/1999/xlink">
<g><path style="opacity:0.394" fill="#fff16d" d="M 39.5,15.5 C 78.9979,14.3354 118.665,14.1688 158.5,15C 159.056,15.3826 159.389,15.8826 159.5,16.5C 157.883,15.962 156.216,15.6287 154.5,15.5C 117.833,15.5 81.1667,15.5 44.5,15.5C 42.8333,15.5 41.1667,15.5 39.5,15.5 Z"/></g>
<g><path style="opacity:1" fill="#ffd130" d="M 154.5,15.5 C 156.216,15.6287 157.883,15.962 159.5,16.5C 163.887,19.271 166.221,23.271 166.5,28.5C 164.399,25.752 162.566,22.752 161,19.5C 158.686,18.2668 156.519,16.9334 154.5,15.5 Z"/></g>
<g><path style="opacity:1" fill="#fffeec" d="M 40.5,17.5 C 65.339,17.169 90.0056,17.5023 114.5,18.5C 107.5,18.5 100.5,18.5 93.5,18.5C 76.1353,19.0718 58.802,19.7384 41.5,20.5C 35.2428,20.8776 34.9095,19.8776 40.5,17.5 Z"/></g>
<g><path style="opacity:1" fill="#fffcb8" d="M 40.5,17.5 C 41.5676,16.5655 42.901,16.2322 44.5,16.5C 80.1759,16.3382 115.843,16.8382 151.5,18C 150.944,18.3826 150.611,18.8826 150.5,19.5C 150.167,19.5 149.833,19.5 149.5,19.5C 139.659,18.1771 129.659,18.1771 119.5,19.5C 124.606,21.7636 127.606,25.597 128.5,31C 128.486,32.3847 128.152,33.5514 127.5,34.5C 127.662,32.4727 127.495,30.4727 127,28.5C 114.6,28.4556 102.1,28.6223 89.5,29C 80.7026,29.263 73.0359,32.263 66.5,38C 67.3366,39.0113 67.67,40.1779 67.5,41.5C 60.142,41.6838 52.8087,41.3505 45.5,40.5C 44.1667,40.6667 42.8333,40.8333 41.5,41C 42.056,41.3826 42.3893,41.8826 42.5,42.5C 41.209,42.2627 40.209,42.596 39.5,43.5C 38.0384,42.5423 36.7051,41.3756 35.5,40C 37.2205,39.2607 38.8872,38.4274 40.5,37.5C 39.3112,36.5713 37.9778,36.238 36.5,36.5C 35.1779,36.67 34.0113,36.3366 33,35.5C 32.3333,32.1667 32.3333,28.8333 33,25.5C 38.1783,24.5815 43.3449,23.4148 48.5,22C 45.9644,21.8138 43.631,21.3138 41.5,20.5C 58.802,19.7384 76.1353,19.0718 93.5,18.5C 96.5982,19.821 100.098,20.4877 104,20.5C 107.902,20.4877 111.402,19.821 114.5,18.5C 90.0056,17.5023 65.339,17.169 40.5,17.5 Z"/></g>
<g><path style="opacity:1" fill="#fffb91" d="M 149.5,19.5 C 144.966,20.4903 140.299,21.4903 135.5,22.5C 139.452,23.4938 143.452,24.1604 147.5,24.5C 147.069,30.028 147.736,35.3613 149.5,40.5C 148.833,41.1667 148.167,41.8333 147.5,42.5C 147.167,41.5 146.5,40.8333 145.5,40.5C 142.547,39.9965 139.714,38.9965 137,37.5C 133.222,38.3817 129.555,38.715 126,38.5C 125.536,37.9056 125.369,37.2389 125.5,36.5C 126.5,36.1667 127.167,35.5 127.5,34.5C 128.152,33.5514 128.486,32.3847 128.5,31C 127.606,25.597 124.606,21.7636 119.5,19.5C 129.659,18.1771 139.659,18.1771 149.5,19.5 Z"/></g>
<g><path style="opacity:1" fill="#fffd6f" d="M 93.5,18.5 C 100.5,18.5 107.5,18.5 114.5,18.5C 111.402,19.821 107.902,20.4877 104,20.5C 100.098,20.4877 96.5982,19.821 93.5,18.5 Z"/></g>
<g><path style="opacity:0.278" fill="#ffcd3c" d="M 39.5,15.5 C 41.1667,15.5 42.8333,15.5 44.5,15.5C 44.5,15.8333 44.5,16.1667 44.5,16.5C 42.901,16.2322 41.5676,16.5655 40.5,17.5C 34.9095,19.8776 35.2428,20.8776 41.5,20.5C 43.631,21.3138 45.9644,21.8138 48.5,22C 43.3449,23.4148 38.1783,24.5815 33,25.5C 32.3333,28.8333 32.3333,32.1667 33,35.5C 34.0113,36.3366 35.1779,36.67 36.5,36.5C 36.5,36.8333 36.5,37.1667 36.5,37.5C 34.2341,37.8588 32.4007,37.1922 31,35.5C 30.3333,32.1667 30.3333,28.8333 31,25.5C 32.2183,23.9808 33.7183,22.8141 35.5,22C 34.5509,21.3828 33.7175,21.5494 33,22.5C 33.8579,19.1351 36.0246,16.8018 39.5,15.5 Z"/></g>
<g><path style="opacity:1" fill="#fffb21" d="M 163.5,40.5 C 160.02,45.0284 155.354,46.695 149.5,45.5C 150.263,44.7321 151.263,44.2321 152.5,44C 152.272,43.6012 151.938,43.4346 151.5,43.5C 150.833,42.5 150.167,41.5 149.5,40.5C 147.736,35.3613 147.069,30.028 147.5,24.5C 143.452,24.1604 139.452,23.4938 135.5,22.5C 140.299,21.4903 144.966,20.4903 149.5,19.5C 149.833,19.5 150.167,19.5 150.5,19.5C 153.342,18.3875 156.008,18.8875 158.5,21C 157.833,21.6667 157.167,22.3333 156.5,23C 160.545,25.253 162.378,28.753 162,33.5C 163.163,31.7148 163.83,29.7148 164,27.5C 164.263,31.8351 164.097,36.1684 163.5,40.5 Z"/></g>
<g><path style="opacity:1" fill="#fff6bd" d="M 127.5,34.5 C 127.167,35.5 126.5,36.1667 125.5,36.5C 122.622,38.1054 119.622,39.4388 116.5,40.5C 111.786,40.1734 107.12,40.5067 102.5,41.5C 105.086,42.48 107.753,42.8134 110.5,42.5C 110.5,42.8333 110.5,43.1667 110.5,43.5C 87.1667,43.5 63.8333,43.5 40.5,43.5C 40.1667,43.5 39.8333,43.5 39.5,43.5C 40.209,42.596 41.209,42.2627 42.5,42.5C 51.5871,42.8324 59.9205,42.4991 67.5,41.5C 67.67,40.1779 67.3366,39.0113 66.5,38C 73.0359,32.263 80.7026,29.263 89.5,29C 102.1,28.6223 114.6,28.4556 127,28.5C 127.495,30.4727 127.662,32.4727 127.5,34.5 Z"/></g>
<g><path style="opacity:1" fill="#fff59f" d="M 125.5,36.5 C 125.369,37.2389 125.536,37.9056 126,38.5C 129.555,38.715 133.222,38.3817 137,37.5C 139.714,38.9965 142.547,39.9965 145.5,40.5C 137.14,40.1688 128.807,40.5021 120.5,41.5C 129.475,42.4982 138.475,42.8315 147.5,42.5C 148.167,41.8333 148.833,41.1667 149.5,40.5C 150.167,41.5 150.833,42.5 151.5,43.5C 137.833,43.5 124.167,43.5 110.5,43.5C 110.5,43.1667 110.5,42.8333 110.5,42.5C 113.082,42.9746 115.082,42.3079 116.5,40.5C 119.622,39.4388 122.622,38.1054 125.5,36.5 Z"/></g>
<g><path style="opacity:1" fill="#fff123" d="M 44.5,16.5 C 44.5,16.1667 44.5,15.8333 44.5,15.5C 81.1667,15.5 117.833,15.5 154.5,15.5C 156.519,16.9334 158.686,18.2668 161,19.5C 162.566,22.752 164.399,25.752 166.5,28.5C 167.35,35.7985 167.683,43.1319 167.5,50.5C 166.833,50.5 166.167,50.5 165.5,50.5C 164.833,50.5 164.167,50.5 163.5,50.5C 162.833,50.5 162.5,50.1667 162.5,49.5C 163.5,49.5 164.5,49.5 165.5,49.5C 165.665,45.8183 165.499,42.1516 165,38.5C 164.722,39.4158 164.222,40.0825 163.5,40.5C 164.097,36.1684 164.263,31.8351 164,27.5C 163.83,29.7148 163.163,31.7148 162,33.5C 162.378,28.753 160.545,25.253 156.5,23C 157.167,22.3333 157.833,21.6667 158.5,21C 156.008,18.8875 153.342,18.3875 150.5,19.5C 150.611,18.8826 150.944,18.3826 151.5,18C 115.843,16.8382 80.1759,16.3382 44.5,16.5 Z"/></g>
<g><path style="opacity:1" fill="#ffce7c" d="M 116.5,40.5 C 115.082,42.3079 113.082,42.9746 110.5,42.5C 107.753,42.8134 105.086,42.48 102.5,41.5C 107.12,40.5067 111.786,40.1734 116.5,40.5 Z"/></g>
<g><path style="opacity:1" fill="#fff242" d="M 67.5,41.5 C 59.9205,42.4991 51.5871,42.8324 42.5,42.5C 42.3893,41.8826 42.056,41.3826 41.5,41C 42.8333,40.8333 44.1667,40.6667 45.5,40.5C 52.8087,41.3505 60.142,41.6838 67.5,41.5 Z"/></g>
<g><path style="opacity:1" fill="#ffd559" d="M 145.5,40.5 C 146.5,40.8333 147.167,41.5 147.5,42.5C 138.475,42.8315 129.475,42.4982 120.5,41.5C 128.807,40.5021 137.14,40.1688 145.5,40.5 Z"/></g>
<g><path style="opacity:1" fill="#ffbb45" d="M 40.5,43.5 C 63.8333,43.5 87.1667,43.5 110.5,43.5C 124.167,43.5 137.833,43.5 151.5,43.5C 151.938,43.4346 152.272,43.6012 152.5,44C 151.263,44.2321 150.263,44.7321 149.5,45.5C 147.833,45.5 146.167,45.5 144.5,45.5C 130.167,45.5 115.833,45.5 101.5,45.5C 87.5,45.5 73.5,45.5 59.5,45.5C 53.1667,44.8333 46.8333,44.1667 40.5,43.5 Z"/></g>
<g><path style="opacity:1" fill="#fff8bc" d="M 59.5,45.5 C 73.5,45.5 87.5,45.5 101.5,45.5C 102.568,46.4345 103.901,46.7678 105.5,46.5C 96.3247,47.1666 86.9914,47.8333 77.5,48.5C 74.0073,52.4718 72.1739,57.1385 72,62.5C 71.7998,69.8826 71.2998,77.2159 70.5,84.5C 65.8685,85.3283 61.2018,85.8283 56.5,86C 61.6835,86.1739 66.6835,86.6739 71.5,87.5C 66.1254,87.1718 60.7921,87.5052 55.5,88.5C 53.021,98.0806 51.021,107.747 49.5,117.5C 52.5184,117.665 55.5184,117.498 58.5,117C 59.3198,113.687 60.3198,110.521 61.5,107.5C 62.6551,107.578 63.9884,107.912 65.5,108.5C 63.1031,116.858 60.6031,125.191 58,133.5C 57.6849,138.838 57.8516,144.172 58.5,149.5C 50.1667,149.5 41.8333,149.5 33.5,149.5C 33.5,148.167 33.5,146.833 33.5,145.5C 37.5475,145.16 41.5475,144.494 45.5,143.5C 42.6944,142.832 40.0277,142.166 37.5,141.5C 39.1493,137.793 40.6493,133.793 42,129.5C 44.4473,114.995 47.614,100.662 51.5,86.5C 54.9389,84.6064 58.2722,82.4397 61.5,80C 58.8195,80.4911 56.1528,81.3244 53.5,82.5C 53.5382,79.0489 54.2049,75.7156 55.5,72.5C 55.3333,71.8333 55.1667,71.1667 55,70.5C 53.9563,71.6226 53.2896,72.9559 53,74.5C 52.5225,71.0474 53.0225,67.7141 54.5,64.5C 55.2811,65.7287 55.7811,67.062 56,68.5C 56.662,66.1873 57.162,63.854 57.5,61.5C 56.1667,61.5 54.8333,61.5 53.5,61.5C 53.5,60.8333 53.8333,60.5 54.5,60.5C 56.604,60.7989 58.604,60.4656 60.5,59.5C 58.2573,58.5258 55.924,58.1924 53.5,58.5C 53.33,57.1779 53.6634,56.0113 54.5,55C 70.4274,54.1452 70.4274,52.9785 54.5,51.5C 54.5,49.5 54.5,47.5 54.5,45.5C 56.1667,45.5 57.8333,45.5 59.5,45.5 Z"/></g>
<g><path style="opacity:1" fill="#fff0bc" d="M 105.5,46.5 C 115.964,47.6516 125.131,51.6516 133,58.5C 134.047,61.0385 134.547,63.7052 134.5,66.5C 132.989,73.0621 131.989,79.7288 131.5,86.5C 128.552,86.2229 125.719,86.5562 123,87.5C 120.5,96.8341 118,106.167 115.5,115.5C 118.768,116.487 122.102,116.82 125.5,116.5C 125.574,125.371 123.241,133.538 118.5,141C 109.587,145.693 100.254,148.859 90.5,150.5C 74.5,150.5 58.5,150.5 42.5,150.5C 39.2869,150.81 36.2869,150.477 33.5,149.5C 41.8333,149.5 50.1667,149.5 58.5,149.5C 57.8516,144.172 57.6849,138.838 58,133.5C 60.6031,125.191 63.1031,116.858 65.5,108.5C 63.9884,107.912 62.6551,107.578 61.5,107.5C 63.9671,105.537 66.9671,104.371 70.5,104C 74.3915,99.9401 75.8915,95.1067 75,89.5C 74.1841,88.1772 73.0174,87.5106 71.5,87.5C 66.6835,86.6739 61.6835,86.1739 56.5,86C 61.2018,85.8283 65.8685,85.3283 70.5,84.5C 71.2998,77.2159 71.7998,69.8826 72,62.5C 72.1739,57.1385 74.0073,52.4718 77.5,48.5C 86.9914,47.8333 96.3247,47.1666 105.5,46.5 Z"/></g>
<g><path style="opacity:1" fill="#fffa92" d="M 162.5,49.5 C 158.881,50.1805 155.214,50.6805 151.5,51C 156.304,51.3677 160.97,52.3677 165.5,54C 164.118,61.7918 162.785,69.6251 161.5,77.5C 158.679,77.5387 156.012,78.2054 153.5,79.5C 154.025,80.1924 154.692,80.6924 155.5,81C 152.81,81.7709 150.144,82.6042 147.5,83.5C 150.985,85.0936 154.652,85.7603 158.5,85.5C 154.776,99.842 150.943,114.175 147,128.5C 143.532,129.933 140.032,131.267 136.5,132.5C 134.897,133.677 133.564,133.511 132.5,132C 133.66,126.872 134.827,121.705 136,116.5C 136.667,115.167 137.333,115.167 138,116.5C 138.557,114.385 139.391,112.385 140.5,110.5C 140.376,109.893 140.043,109.56 139.5,109.5C 141.473,102.968 142.806,96.301 143.5,89.5C 144.645,88.2073 144.311,87.0407 142.5,86C 147.454,73.9561 148.454,61.6227 145.5,49C 145.645,48.228 145.978,47.5613 146.5,47C 145.584,46.7216 144.918,46.2216 144.5,45.5C 146.167,45.5 147.833,45.5 149.5,45.5C 155.354,46.695 160.02,45.0284 163.5,40.5C 164.222,40.0825 164.722,39.4158 165,38.5C 165.499,42.1516 165.665,45.8183 165.5,49.5C 164.5,49.5 163.5,49.5 162.5,49.5 Z"/></g>
<g><path style="opacity:1" fill="#ffec90" d="M 101.5,45.5 C 115.833,45.5 130.167,45.5 144.5,45.5C 144.918,46.2216 145.584,46.7216 146.5,47C 145.978,47.5613 145.645,48.228 145.5,49C 148.454,61.6227 147.454,73.9561 142.5,86C 144.311,87.0407 144.645,88.2073 143.5,89.5C 142.653,88.0337 141.32,87.2004 139.5,87C 137.19,86.5034 134.857,86.3367 132.5,86.5C 132.167,86.5 131.833,86.5 131.5,86.5C 131.989,79.7288 132.989,73.0621 134.5,66.5C 134.547,63.7052 134.047,61.0385 133,58.5C 125.131,51.6516 115.964,47.6516 105.5,46.5C 103.901,46.7678 102.568,46.4345 101.5,45.5 Z"/></g>
<g><path style="opacity:1" fill="#ffb44c" d="M 116.5,48.5 C 122.057,47.1894 127.723,47.356 133.5,49C 127.818,49.4686 122.152,49.3019 116.5,48.5 Z"/></g>
<g><path style="opacity:1" fill="#ffe84b" d="M 36.5,36.5 C 37.9778,36.238 39.3112,36.5713 40.5,37.5C 38.8872,38.4274 37.2205,39.2607 35.5,40C 36.7051,41.3756 38.0384,42.5423 39.5,43.5C 39.8333,43.5 40.1667,43.5 40.5,43.5C 46.8333,44.1667 53.1667,44.8333 59.5,45.5C 57.8333,45.5 56.1667,45.5 54.5,45.5C 54.5,47.5 54.5,49.5 54.5,51.5C 70.4274,52.9785 70.4274,54.1452 54.5,55C 53.6634,56.0113 53.33,57.1779 53.5,58.5C 55.924,58.1924 58.2573,58.5258 60.5,59.5C 58.604,60.4656 56.604,60.7989 54.5,60.5C 53.6522,59.375 52.6522,59.375 51.5,60.5C 51.3379,58.4727 51.5045,56.4727 52,54.5C 56.6647,53.2609 56.498,52.4276 51.5,52C 52.4061,50.3005 52.7394,48.4672 52.5,46.5C 47.4012,46.8254 42.4012,46.3254 37.5,45C 35.6487,43.3163 33.982,41.4829 32.5,39.5C 33.9492,38.8281 35.2825,38.1614 36.5,37.5C 36.5,37.1667 36.5,36.8333 36.5,36.5 Z"/></g>
<g><path style="opacity:1" fill="#fffe56" d="M 161.5,57.5 C 162.305,61.6446 161.472,65.6446 159,69.5C 158.877,65.3215 159.71,61.3215 161.5,57.5 Z"/></g>
<g><path style="opacity:1" fill="#fffee9" d="M 53.5,61.5 C 54.8333,61.5 56.1667,61.5 57.5,61.5C 57.162,63.854 56.662,66.1873 56,68.5C 55.7811,67.062 55.2811,65.7287 54.5,64.5C 53.0225,67.7141 52.5225,71.0474 53,74.5C 53.2896,72.9559 53.9563,71.6226 55,70.5C 55.1667,71.1667 55.3333,71.8333 55.5,72.5C 54.2049,75.7156 53.5382,79.0489 53.5,82.5C 51.8008,82.6602 50.1341,82.4935 48.5,82C 50.3358,75.1083 52.0025,68.2749 53.5,61.5 Z"/></g>
<g><path style="opacity:0.02" fill="#fffcaa" d="M 163.5,76.5 C 163.719,77.675 163.386,78.675 162.5,79.5C 161.893,79.3764 161.56,79.0431 161.5,78.5C 162.167,77.8333 162.833,77.1667 163.5,76.5 Z"/></g>
<g><path style="opacity:1" fill="#fffa44" d="M 162.5,49.5 C 162.5,50.1667 162.833,50.5 163.5,50.5C 164.167,51.8333 164.833,51.8333 165.5,50.5C 166.167,50.5 166.833,50.5 167.5,50.5C 166.843,59.0351 165.51,67.7017 163.5,76.5C 162.833,77.1667 162.167,77.8333 161.5,78.5C 159.202,79.9111 156.869,81.4111 154.5,83C 156.81,83.4966 159.143,83.6633 161.5,83.5C 157.334,98.8304 153.167,114.164 149,129.5C 146.208,131.407 143.042,132.573 139.5,133C 142.956,132.907 145.956,133.907 148.5,136C 147.865,139.603 147.198,143.103 146.5,146.5C 146.802,143.941 146.468,141.607 145.5,139.5C 145.5,138.167 145.5,136.833 145.5,135.5C 141.818,135.665 138.152,135.499 134.5,135C 135.381,134.292 136.047,133.458 136.5,132.5C 140.032,131.267 143.532,129.933 147,128.5C 150.943,114.175 154.776,99.842 158.5,85.5C 154.652,85.7603 150.985,85.0936 147.5,83.5C 150.144,82.6042 152.81,81.7709 155.5,81C 154.692,80.6924 154.025,80.1924 153.5,79.5C 156.012,78.2054 158.679,77.5387 161.5,77.5C 162.785,69.6251 164.118,61.7918 165.5,54C 160.97,52.3677 156.304,51.3677 151.5,51C 155.214,50.6805 158.881,50.1805 162.5,49.5 Z"/></g>
<g><path style="opacity:1" fill="#ffe113" d="M 89.5,91.5 C 89.6309,90.6236 89.2975,89.9569 88.5,89.5C 87.5,90.8333 86.5,90.8333 85.5,89.5C 85.3309,90.3966 84.9976,91.3966 84.5,92.5C 82.6399,91.3623 81.9732,90.029 82.5,88.5C 87.6978,85.8703 93.0312,85.8703 98.5,88.5C 99.6964,89.5594 100.363,90.8927 100.5,92.5C 99.9537,94.1347 99.6204,95.8014 99.5,97.5C 96.1501,97.665 92.8168,97.4983 89.5,97C 90.807,95.0565 90.807,93.2232 89.5,91.5 Z"/></g>
<g><path style="opacity:1" fill="#ffe40f" d="M 132.5,86.5 C 134.857,86.3367 137.19,86.5034 139.5,87C 141.32,87.2004 142.653,88.0337 143.5,89.5C 142.806,96.301 141.473,102.968 139.5,109.5C 138.764,112.32 137.098,114.32 134.5,115.5C 131.428,115.817 128.428,115.484 125.5,114.5C 125.76,113.095 126.093,111.762 126.5,110.5C 127.793,111.645 128.959,111.311 130,109.5C 131.491,103.547 132.657,97.5474 133.5,91.5C 131.94,89.8706 132.273,88.704 134.5,88C 133.584,87.7216 132.918,87.2216 132.5,86.5 Z"/></g>
<g><path style="opacity:1" fill="#ffd317" d="M 105.5,86.5 C 108.898,86.1796 112.232,86.513 115.5,87.5C 113.651,95.2295 111.651,102.896 109.5,110.5C 111.167,110.5 112.833,110.5 114.5,110.5C 114.739,112.467 114.406,114.301 113.5,116C 108.467,116.829 103.467,116.662 98.5,115.5C 100.962,105.855 103.295,96.1884 105.5,86.5 Z"/></g>
<g><path style="opacity:1" fill="#ffd616" d="M 131.5,86.5 C 131.833,86.5 132.167,86.5 132.5,86.5C 132.918,87.2216 133.584,87.7216 134.5,88C 132.273,88.704 131.94,89.8706 133.5,91.5C 132.25,91.5774 131.417,92.244 131,93.5C 129.939,99.3157 128.439,104.982 126.5,110.5C 126.093,111.762 125.76,113.095 125.5,114.5C 128.428,115.484 131.428,115.817 134.5,115.5C 131.713,116.477 128.713,116.81 125.5,116.5C 122.102,116.82 118.768,116.487 115.5,115.5C 118,106.167 120.5,96.8341 123,87.5C 125.719,86.5562 128.552,86.2229 131.5,86.5 Z"/></g>
<g><path style="opacity:1" fill="#fffedf" d="M 46.5,92.5 C 46.5905,95.1522 45.9238,97.4855 44.5,99.5C 44.4095,96.8478 45.0762,94.5145 46.5,92.5 Z"/></g>
<g><path style="opacity:1" fill="#fffe7d" d="M 43.5,102.5 C 43.2627,101.209 43.596,100.209 44.5,99.5C 45.9238,97.4855 46.5905,95.1522 46.5,92.5C 47.2216,92.0825 47.7216,91.4158 48,90.5C 47.2673,97.0002 45.6006,103.333 43,109.5C 42.9822,107.203 43.1489,104.869 43.5,102.5 Z"/></g>
<g><path style="opacity:1" fill="#fffa1a" d="M 71.5,87.5 C 73.0174,87.5106 74.1841,88.1772 75,89.5C 75.8915,95.1067 74.3915,99.9401 70.5,104C 66.9671,104.371 63.9671,105.537 61.5,107.5C 60.3198,110.521 59.3198,113.687 58.5,117C 55.5184,117.498 52.5184,117.665 49.5,117.5C 51.021,107.747 53.021,98.0806 55.5,88.5C 60.7921,87.5052 66.1254,87.1718 71.5,87.5 Z"/></g>
<g><path style="opacity:1" fill="#fff4ce" d="M 64.5,92.5 C 65.6935,92.9704 66.3601,93.9704 66.5,95.5C 66.6578,97.3186 65.9911,98.6519 64.5,99.5C 63.6365,97.2287 63.6365,94.8954 64.5,92.5 Z"/></g>
<g><path style="opacity:1" fill="#ffee9c" d="M 133.5,91.5 C 132.657,97.5474 131.491,103.547 130,109.5C 128.959,111.311 127.793,111.645 126.5,110.5C 128.439,104.982 129.939,99.3157 131,93.5C 131.417,92.244 132.25,91.5774 133.5,91.5 Z"/></g>
<g><path style="opacity:1" fill="#fffb47" d="M 154.5,88.5 C 155.097,88.7352 155.43,89.2352 155.5,90C 152.987,96.8777 150.487,103.711 148,110.5C 149.037,102.884 151.204,95.5504 154.5,88.5 Z"/></g>
<g><path style="opacity:0.914" fill="#fffa43" d="M 54.5,60.5 C 53.8333,60.5 53.5,60.8333 53.5,61.5C 52.0025,68.2749 50.3358,75.1083 48.5,82C 50.1341,82.4935 51.8008,82.6602 53.5,82.5C 56.1528,81.3244 58.8195,80.4911 61.5,80C 58.2722,82.4397 54.9389,84.6064 51.5,86.5C 47.686,86.6509 46.0193,88.6509 46.5,92.5C 45.0762,94.5145 44.4095,96.8478 44.5,99.5C 43.596,100.209 43.2627,101.209 43.5,102.5C 40.9402,109.318 38.6069,116.318 36.5,123.5C 37.8333,124.5 39.1667,125.5 40.5,126.5C 39.0095,127.244 37.5095,127.91 36,128.5C 34.8054,132.751 34.3054,137.085 34.5,141.5C 35.5,141.5 36.5,141.5 37.5,141.5C 40.0277,142.166 42.6944,142.832 45.5,143.5C 41.5475,144.494 37.5475,145.16 33.5,145.5C 33.5,146.833 33.5,148.167 33.5,149.5C 36.2869,150.477 39.2869,150.81 42.5,150.5C 44.1667,151.167 45.8333,151.833 47.5,152.5C 38.5,152.5 29.5,152.5 20.5,152.5C 19.8333,152.5 19.5,152.167 19.5,151.5C 23.2984,150.517 27.2984,150.183 31.5,150.5C 31.3379,148.473 31.5045,146.473 32,144.5C 32.7504,143.874 33.5838,143.374 34.5,143C 33.2958,141.647 32.6292,139.981 32.5,138C 32.8371,134.477 33.3371,130.977 34,127.5C 35.0674,126.809 36.2341,126.309 37.5,126C 36.552,125.517 35.552,125.351 34.5,125.5C 38.1667,112.167 41.8333,98.8333 45.5,85.5C 49.8383,85.3781 50.1716,85.0447 46.5,84.5C 48.1897,76.3799 49.8564,68.3799 51.5,60.5C 52.6522,59.375 53.6522,59.375 54.5,60.5 Z"/></g>
<g><path style="opacity:1" fill="#ffee16" d="M 82.5,88.5 C 81.9732,90.029 82.6399,91.3623 84.5,92.5C 84.9976,91.3966 85.3309,90.3966 85.5,89.5C 86.5,90.8333 87.5,90.8333 88.5,89.5C 89.2975,89.9569 89.6309,90.6236 89.5,91.5C 88.8826,91.6107 88.3826,91.944 88,92.5C 85.5143,99.0705 84.3476,105.737 84.5,112.5C 85.7989,111.91 86.6322,110.91 87,109.5C 86.7161,106.591 86.8828,103.758 87.5,101C 91.1516,100.501 94.8183,100.335 98.5,100.5C 97.0794,105.76 96.0794,111.093 95.5,116.5C 92.7508,116.726 90.0841,116.393 87.5,115.5C 77.87,120.034 73.7034,117.034 75,106.5C 75.8423,102.131 76.8423,97.7974 78,93.5C 78.9959,91.3395 80.4959,89.6728 82.5,88.5 Z"/></g>
<g><path style="opacity:1" fill="#fff292" d="M 139.5,109.5 C 140.043,109.56 140.376,109.893 140.5,110.5C 139.391,112.385 138.557,114.385 138,116.5C 137.333,115.167 136.667,115.167 136,116.5C 134.827,121.705 133.66,126.872 132.5,132C 133.564,133.511 134.897,133.677 136.5,132.5C 136.047,133.458 135.381,134.292 134.5,135C 138.152,135.499 141.818,135.665 145.5,135.5C 145.5,136.833 145.5,138.167 145.5,139.5C 144.765,144.785 144.265,150.118 144,155.5C 143.829,150.467 143.329,145.467 142.5,140.5C 141.673,144.459 141.173,148.459 141,152.5C 140.329,151.748 139.496,151.414 138.5,151.5C 133.695,150.513 128.695,150.179 123.5,150.5C 112.5,150.5 101.5,150.5 90.5,150.5C 100.254,148.859 109.587,145.693 118.5,141C 123.241,133.538 125.574,125.371 125.5,116.5C 128.713,116.81 131.713,116.477 134.5,115.5C 137.098,114.32 138.764,112.32 139.5,109.5 Z"/></g>
<g><path style="opacity:1" fill="#fffee5" d="M 51.5,86.5 C 47.614,100.662 44.4473,114.995 42,129.5C 40.6493,133.793 39.1493,137.793 37.5,141.5C 36.5,141.5 35.5,141.5 34.5,141.5C 34.3054,137.085 34.8054,132.751 36,128.5C 37.5095,127.91 39.0095,127.244 40.5,126.5C 39.1667,125.5 37.8333,124.5 36.5,123.5C 38.6069,116.318 40.9402,109.318 43.5,102.5C 43.1489,104.869 42.9822,107.203 43,109.5C 45.6006,103.333 47.2673,97.0002 48,90.5C 47.7216,91.4158 47.2216,92.0825 46.5,92.5C 46.0193,88.6509 47.686,86.6509 51.5,86.5 Z"/></g>
<g><path style="opacity:1" fill="#fffd6c" d="M 36.5,131.5 C 37.709,133.435 37.5423,135.435 36,137.5C 35.5099,135.455 35.6765,133.455 36.5,131.5 Z"/></g>
<g><path style="opacity:1" fill="#ffa932" d="M 42.5,150.5 C 58.5,150.5 74.5,150.5 90.5,150.5C 101.5,150.5 112.5,150.5 123.5,150.5C 125.167,151.167 126.833,151.833 128.5,152.5C 118.167,152.5 107.833,152.5 97.5,152.5C 88.8333,152.5 80.1667,152.5 71.5,152.5C 63.5,152.5 55.5,152.5 47.5,152.5C 45.8333,151.833 44.1667,151.167 42.5,150.5 Z"/></g>
<g><path style="opacity:1" fill="#fffee9" d="M 20.5,152.5 C 29.5,152.5 38.5,152.5 47.5,152.5C 55.5,152.5 63.5,152.5 71.5,152.5C 70.0512,154.164 68.0512,154.998 65.5,155C 53.3263,155.169 41.3263,155.669 29.5,156.5C 25.1539,156.666 20.8206,156.499 16.5,156C 17.7305,154.595 19.0639,153.429 20.5,152.5 Z"/></g>
<g><path style="opacity:1" fill="#ffe531" d="M 123.5,150.5 C 128.695,150.179 133.695,150.513 138.5,151.5C 134.453,154.235 130.453,156.902 126.5,159.5C 123.161,159.11 119.827,158.61 116.5,158C 121.081,156.725 125.748,155.725 130.5,155C 132.956,152.841 132.29,152.008 128.5,152.5C 126.833,151.833 125.167,151.167 123.5,150.5 Z"/></g>
<g><path style="opacity:1" fill="#fff5ba" d="M 71.5,152.5 C 80.1667,152.5 88.8333,152.5 97.5,152.5C 98.9516,153.302 100.618,153.802 102.5,154C 101.376,154.249 100.376,154.749 99.5,155.5C 101.398,156.734 103.065,156.401 104.5,154.5C 108.679,155.515 111.345,158.015 112.5,162C 112.561,163.711 111.894,165.044 110.5,166C 107.321,167.461 103.988,168.295 100.5,168.5C 87.9718,167.849 75.3051,167.016 62.5,166C 56.4043,164.787 51.4043,161.787 47.5,157C 41.8333,156.333 36.1667,156.333 30.5,157C 31.8333,157.667 31.8333,158.333 30.5,159C 28.2884,159.789 26.2884,159.622 24.5,158.5C 26.7812,158.923 28.4479,158.256 29.5,156.5C 41.3263,155.669 53.3263,155.169 65.5,155C 68.0512,154.998 70.0512,154.164 71.5,152.5 Z"/></g>
<g><path style="opacity:1" fill="#fffcbb" d="M 100.5,168.5 C 82.1923,172.736 63.5256,175.403 44.5,176.5C 37.1591,176.334 29.8258,176.5 22.5,177C 31.4483,178.307 40.4483,178.807 49.5,178.5C 49.5,178.833 49.5,179.167 49.5,179.5C 40.5,179.5 31.5,179.5 22.5,179.5C 15.3141,177.718 14.9808,175.385 21.5,172.5C 18.9135,171.52 16.2469,171.187 13.5,171.5C 13.5,167.833 13.5,164.167 13.5,160.5C 17.1974,159.992 20.8641,159.326 24.5,158.5C 26.2884,159.622 28.2884,159.789 30.5,159C 31.8333,158.333 31.8333,157.667 30.5,157C 36.1667,156.333 41.8333,156.333 47.5,157C 51.4043,161.787 56.4043,164.787 62.5,166C 75.3051,167.016 87.9718,167.849 100.5,168.5 Z"/></g>
<g><path style="opacity:0.967" fill="#ffe448" d="M 19.5,151.5 C 19.5,152.167 19.8333,152.5 20.5,152.5C 19.0639,153.429 17.7305,154.595 16.5,156C 20.8206,156.499 25.1539,156.666 29.5,156.5C 28.4479,158.256 26.7812,158.923 24.5,158.5C 20.8641,159.326 17.1974,159.992 13.5,160.5C 13.0623,159.494 12.3957,159.494 11.5,160.5C 13.6581,158.78 16.3248,157.947 19.5,158C 17.4233,157.808 15.4233,157.308 13.5,156.5C 14.9308,154.062 16.9308,152.396 19.5,151.5 Z"/></g>
<g><path style="opacity:1" fill="#fff924" d="M 145.5,139.5 C 146.468,141.607 146.802,143.941 146.5,146.5C 146.5,151.833 146.5,157.167 146.5,162.5C 146.352,168.128 144.518,173.128 141,177.5C 140.586,177.043 140.086,176.709 139.5,176.5C 137.827,178.086 135.827,178.753 133.5,178.5C 133.5,179.5 133.5,180.5 133.5,181.5C 96.5,181.5 59.5,181.5 22.5,181.5C 22.5,180.833 22.5,180.167 22.5,179.5C 31.5,179.5 40.5,179.5 49.5,179.5C 77.1687,179.667 104.835,179.5 132.5,179C 128.295,173.434 126.962,167.267 128.5,160.5C 128.043,159.702 127.376,159.369 126.5,159.5C 130.453,156.902 134.453,154.235 138.5,151.5C 139.496,151.414 140.329,151.748 141,152.5C 141.173,148.459 141.673,144.459 142.5,140.5C 143.329,145.467 143.829,150.467 144,155.5C 144.265,150.118 144.765,144.785 145.5,139.5 Z"/></g>
<g><path style="opacity:1" fill="#fffb93" d="M 97.5,152.5 C 107.833,152.5 118.167,152.5 128.5,152.5C 132.29,152.008 132.956,152.841 130.5,155C 125.748,155.725 121.081,156.725 116.5,158C 119.827,158.61 123.161,159.11 126.5,159.5C 127.376,159.369 128.043,159.702 128.5,160.5C 126.962,167.267 128.295,173.434 132.5,179C 104.835,179.5 77.1687,179.667 49.5,179.5C 49.5,179.167 49.5,178.833 49.5,178.5C 47.8333,177.833 46.1667,177.167 44.5,176.5C 63.5256,175.403 82.1923,172.736 100.5,168.5C 103.988,168.295 107.321,167.461 110.5,166C 111.894,165.044 112.561,163.711 112.5,162C 111.345,158.015 108.679,155.515 104.5,154.5C 103.065,156.401 101.398,156.734 99.5,155.5C 100.376,154.749 101.376,154.249 102.5,154C 100.618,153.802 98.9516,153.302 97.5,152.5 Z"/></g>
<g><path style="opacity:1" fill="#ffc442" d="M 13.5,160.5 C 13.5,164.167 13.5,167.833 13.5,171.5C 16.2469,171.187 18.9135,171.52 21.5,172.5C 14.9808,175.385 15.3141,177.718 22.5,179.5C 22.5,180.167 22.5,180.833 22.5,181.5C 18.4546,181.13 15.4546,179.13 13.5,175.5C 14.376,174.749 15.376,174.249 16.5,174C 14.8659,173.506 13.1992,173.34 11.5,173.5C 10.3046,169.12 10.3046,164.787 11.5,160.5C 12.3957,159.494 13.0623,159.494 13.5,160.5 Z"/></g>
<g><path style="opacity:1" fill="#fff54f" d="M 44.5,176.5 C 46.1667,177.167 47.8333,177.833 49.5,178.5C 40.4483,178.807 31.4483,178.307 22.5,177C 29.8258,176.5 37.1591,176.334 44.5,176.5 Z"/></g>
<g><path style="opacity:1" fill="#fffe5a" d="M 82.5,177.5 C 87.3477,176.186 92.3477,176.186 97.5,177.5C 92.497,178.666 87.497,178.666 82.5,177.5 Z"/></g>
<g><path style="opacity:1" fill="#fffe58" d="M 101.5,176.5 C 110.192,176.169 118.859,176.502 127.5,177.5C 123.167,177.833 118.833,178.167 114.5,178.5C 109.778,178.492 105.445,177.825 101.5,176.5 Z"/></g>
<g><path style="opacity:1" fill="#ffd332" d="M 146.5,162.5 C 148.371,170.143 146.037,176.31 139.5,181C 137.527,181.495 135.527,181.662 133.5,181.5C 133.5,180.5 133.5,179.5 133.5,178.5C 135.827,178.753 137.827,178.086 139.5,176.5C 140.086,176.709 140.586,177.043 141,177.5C 144.518,173.128 146.352,168.128 146.5,162.5 Z"/></g>
</svg>
