<?xml version="1.0" encoding="UTF-8"?>
<!DOCTYPE svg PUBLIC "-//W3C//DTD SVG 1.1//EN" "http://www.w3.org/Graphics/SVG/1.1/DTD/svg11.dtd">
<svg xmlns="http://www.w3.org/2000/svg" version="1.1" width="200px" height="200px" style="shape-rendering:geometricPrecision; text-rendering:geometricPrecision; image-rendering:optimizeQuality; fill-rule:evenodd; clip-rule:evenodd" xmlns:xlink="http://www.w3.org/1999/xlink">
<g><path style="opacity:1" fill="#707179" d="M -0.5,-0.5 C 66.1667,-0.5 132.833,-0.5 199.5,-0.5C 199.5,66.1667 199.5,132.833 199.5,199.5C 132.833,199.5 66.1667,199.5 -0.5,199.5C -0.5,132.833 -0.5,66.1667 -0.5,-0.5 Z"/></g>
<g><path style="opacity:1" fill="#d6aa63" d="M 47.5,39.5 C 48.0431,39.56 48.3764,39.8933 48.5,40.5C 47.7401,42.3604 46.7401,44.027 45.5,45.5C 42.0878,46.0421 39.0878,47.3754 36.5,49.5C 35.8333,49.5 35.1667,49.5 34.5,49.5C 35.5524,47.3449 34.8857,47.0116 32.5,48.5C 31.537,48.0302 31.537,47.3635 32.5,46.5C 37.3044,43.6823 42.3044,41.349 47.5,39.5 Z"/></g>
<g><path style="opacity:1" fill="#905b2c" d="M 45.5,45.5 C 45.6716,46.4916 45.3382,47.1583 44.5,47.5C 44.19,46.2617 43.69,46.2617 43,47.5C 40.5057,53.005 36.8391,57.6717 32,61.5C 31.5004,68.4921 31.3337,75.4921 31.5,82.5C 31.1667,82.5 30.8333,82.5 30.5,82.5C 30.5,74.5 30.5,66.5 30.5,58.5C 35.1776,56.6663 38.8443,53.4997 41.5,49C 39.8925,49.0187 38.2259,49.1854 36.5,49.5C 39.0878,47.3754 42.0878,46.0421 45.5,45.5 Z"/></g>
<g><path style="opacity:1" fill="#946339" d="M 34.5,49.5 C 35.1667,49.5 35.8333,49.5 36.5,49.5C 34.8816,51.316 32.8816,52.6493 30.5,53.5C 30.3893,52.8826 30.056,52.3826 29.5,52C 30.9101,50.6283 32.5767,49.795 34.5,49.5 Z"/></g>
<g><path style="opacity:1" fill="#f7ecc4" d="M 170.5,49.5 C 170.914,58.5822 170.414,67.5822 169,76.5C 168.829,68.9885 168.329,61.6552 167.5,54.5C 166.564,53.0256 165.23,52.0256 163.5,51.5C 161.999,50.2485 160.332,49.2485 158.5,48.5C 157.513,46.5266 156.513,44.5266 155.5,42.5C 155.833,42.1667 156.167,41.8333 156.5,41.5C 160.926,44.5943 165.593,47.261 170.5,49.5 Z"/></g>
<g><path style="opacity:1" fill="#e1af5c" d="M 156.5,76.5 C 153.854,74.5211 151.521,72.1878 149.5,69.5C 154.803,65.8959 157.803,60.8959 158.5,54.5C 159.29,53.3915 159.79,52.0581 160,50.5C 160.732,53.5289 161.565,56.5289 162.5,59.5C 161.892,62.1454 161.392,64.8121 161,67.5C 160.667,66.1667 160.333,64.8333 160,63.5C 157.137,67.3798 155.97,71.7132 156.5,76.5 Z"/></g>
<g><path style="opacity:1" fill="#2a1e24" d="M 32.5,46.5 C 31.537,47.3635 31.537,48.0302 32.5,48.5C 34.8857,47.0116 35.5524,47.3449 34.5,49.5C 32.5767,49.795 30.9101,50.6283 29.5,52C 30.056,52.3826 30.3893,52.8826 30.5,53.5C 29.5416,53.9528 28.7083,54.6195 28,55.5C 27.5,79.1643 27.3334,102.831 27.5,126.5C 26.5348,100.881 26.2015,75.2144 26.5,49.5C 28.2163,47.9752 30.2163,46.9752 32.5,46.5 Z"/></g>
<g><path style="opacity:1" fill="#bb7c35" d="M 43.5,56.5 C 44.935,58.5976 46.1016,60.9309 47,63.5C 49.0176,65.3501 50.8509,67.3501 52.5,69.5C 46.7839,75.5467 41.1172,81.5467 35.5,87.5C 34.3443,80.0113 34.1777,72.3446 35,64.5C 36.3333,63.1667 37.6667,61.8333 39,60.5C 39.3333,60.8333 39.6667,61.1667 40,61.5C 41.1889,59.7669 42.3556,58.1002 43.5,56.5 Z"/></g>
<g><path style="opacity:1" fill="#be8038" d="M 158.5,48.5 C 160.332,49.2485 161.999,50.2485 163.5,51.5C 164.747,57.4978 165.414,63.6645 165.5,70C 165.499,75.6771 165.166,81.1771 164.5,86.5C 162.244,82.9026 159.577,79.5693 156.5,76.5C 155.97,71.7132 157.137,67.3798 160,63.5C 160.333,64.8333 160.667,66.1667 161,67.5C 161.392,64.8121 161.892,62.1454 162.5,59.5C 161.565,56.5289 160.732,53.5289 160,50.5C 159.79,52.0581 159.29,53.3915 158.5,54.5C 158.5,52.5 158.5,50.5 158.5,48.5 Z"/></g>
<g><path style="opacity:1" fill="#8f5724" d="M 163.5,51.5 C 165.23,52.0256 166.564,53.0256 167.5,54.5C 167.5,64.8333 167.5,75.1667 167.5,85.5C 167.5,87.5 167.5,89.5 167.5,91.5C 166.263,90.0351 165.263,88.3684 164.5,86.5C 165.166,81.1771 165.499,75.6771 165.5,70C 165.414,63.6645 164.747,57.4978 163.5,51.5 Z"/></g>
<g><path style="opacity:1" fill="#c88d42" d="M 44.5,47.5 C 43.701,50.4299 43.3677,53.4299 43.5,56.5C 42.3556,58.1002 41.1889,59.7669 40,61.5C 39.6667,61.1667 39.3333,60.8333 39,60.5C 37.6667,61.8333 36.3333,63.1667 35,64.5C 34.1777,72.3446 34.3443,80.0113 35.5,87.5C 35.4125,90.5983 35.9125,90.9316 37,88.5C 37.1667,89 37.3333,89.5 37.5,90C 34.4728,93.918 33.9728,98.0847 36,102.5C 38.0285,98.4204 40.5285,94.7537 43.5,91.5C 43.4431,92.609 43.1098,93.609 42.5,94.5C 39.1347,98.9052 37.1347,103.905 36.5,109.5C 38.1185,114.379 39.1185,119.379 39.5,124.5C 38.71,123.391 38.21,122.058 38,120.5C 36.6288,122.041 35.1288,123.375 33.5,124.5C 32.775,122.053 32.1083,119.553 31.5,117C 32.1507,106.504 32.1507,95.0042 31.5,82.5C 31.3337,75.4921 31.5004,68.4921 32,61.5C 36.8391,57.6717 40.5057,53.005 43,47.5C 43.69,46.2617 44.19,46.2617 44.5,47.5 Z"/></g>
<g><path style="opacity:1" fill="#19151e" d="M 171.5,49.5 C 171.167,49.5 170.833,49.5 170.5,49.5C 165.593,47.261 160.926,44.5943 156.5,41.5C 156.167,41.8333 155.833,42.1667 155.5,42.5C 156.513,44.5266 157.513,46.5266 158.5,48.5C 158.5,50.5 158.5,52.5 158.5,54.5C 157.803,60.8959 154.803,65.8959 149.5,69.5C 151.521,72.1878 153.854,74.5211 156.5,76.5C 159.577,79.5693 162.244,82.9026 164.5,86.5C 165.263,88.3684 166.263,90.0351 167.5,91.5C 167.5,92.1667 167.5,92.8333 167.5,93.5C 167.148,95.7047 166.148,97.5381 164.5,99C 165.099,100.622 165.766,102.122 166.5,103.5C 167.324,106.764 167.658,110.098 167.5,113.5C 166.883,113.389 166.383,113.056 166,112.5C 165.505,114.473 165.338,116.473 165.5,118.5C 164.833,118.5 164.5,118.167 164.5,117.5C 164.44,116.957 164.107,116.624 163.5,116.5C 162.526,118.743 162.192,121.076 162.5,123.5C 162.349,126.718 161.516,127.051 160,124.5C 159,127.5 158,130.5 157,133.5C 156.683,131.699 156.016,131.366 155,132.5C 154.392,134.154 153.892,135.821 153.5,137.5C 152.428,139.882 151.262,142.216 150,144.5C 149.667,143.167 149.333,141.833 149,140.5C 146.675,142.501 144.842,144.834 143.5,147.5C 142.175,148.953 141.342,148.619 141,146.5C 138.957,148.208 137.29,150.208 136,152.5C 137.559,145.593 136.225,144.926 132,150.5C 131.667,149.833 131.333,149.167 131,148.5C 126.403,151.422 122.07,154.756 118,158.5C 117.667,157.833 117.333,157.167 117,156.5C 115.603,158.07 114.103,159.404 112.5,160.5C 111.833,160.5 111.167,160.5 110.5,160.5C 113.209,155.973 117.209,153.14 122.5,152C 126.194,148.694 129.527,145.194 132.5,141.5C 132.932,140.29 133.599,139.29 134.5,138.5C 135.675,138.281 136.675,138.614 137.5,139.5C 135.789,141.24 134.956,143.24 135,145.5C 137.325,143.499 139.158,141.166 140.5,138.5C 141.376,138.369 142.043,138.702 142.5,139.5C 141.167,140.62 140.667,141.953 141,143.5C 142.385,142.449 143.385,141.116 144,139.5C 144.333,140.167 144.667,140.833 145,141.5C 147.183,139.093 149.35,136.76 151.5,134.5C 154.328,130.178 156.661,125.511 158.5,120.5C 160.018,117.466 160.851,114.133 161,110.5C 161.232,111.737 161.732,112.737 162.5,113.5C 163.716,111.153 163.716,108.653 162.5,106C 162.944,104.238 163.444,104.405 164,106.5C 164.159,102.152 162.659,98.4856 159.5,95.5C 158.581,92.9108 156.914,90.9108 154.5,89.5C 154.5,89.1667 154.5,88.8333 154.5,88.5C 154.833,88.5 155.167,88.5 155.5,88.5C 158.414,89.9061 160.914,91.9061 163,94.5C 162.454,91.9067 160.954,89.7401 158.5,88C 159.996,87.4926 161.163,87.9926 162,89.5C 162.585,88.0024 162.085,87.0024 160.5,86.5C 157.399,81.5635 153.399,77.3969 148.5,74C 149.151,72.692 148.485,71.8586 146.5,71.5C 146.918,70.7784 147.584,70.2784 148.5,70C 147.09,68.6283 145.423,67.795 143.5,67.5C 143.167,67.5 142.833,67.5 142.5,67.5C 142.047,66.5416 141.381,65.7083 140.5,65C 141.167,64.6667 141.833,64.3333 142.5,64C 139.879,61.8442 137.879,59.3442 136.5,56.5C 135.646,54.965 135.646,53.6316 136.5,52.5C 138.641,49.5282 141.308,47.0282 144.5,45C 148.274,43.8175 151.441,44.6508 154,47.5C 156.6,55.738 154.1,61.5713 146.5,65C 148.059,66.7557 149.726,66.7557 151.5,65C 156.021,60.3767 157.521,54.8767 156,48.5C 153.94,45.7143 152.44,42.7143 151.5,39.5C 148.167,39.5 144.833,39.5 141.5,39.5C 140.306,40.2719 139.306,41.2719 138.5,42.5C 137.363,43.7888 136.03,44.7888 134.5,45.5C 134.751,43.8297 135.418,42.3297 136.5,41C 134.138,41.0885 131.972,41.9219 130,43.5C 128.437,42.8979 128.604,42.0646 130.5,41C 127.118,40.8236 123.785,40.3236 120.5,39.5C 121.025,38.8076 121.692,38.3076 122.5,38C 118.623,37.2713 114.789,37.438 111,38.5C 109.437,37.8979 109.604,37.0646 111.5,36C 109.402,35.3224 107.402,35.4891 105.5,36.5C 104.265,36.2786 103.265,35.6119 102.5,34.5C 101.3,35.5312 99.9663,36.3645 98.5,37C 100.271,37.5354 100.604,38.3687 99.5,39.5C 97.8333,38.1667 96.1667,36.8333 94.5,35.5C 94.8904,37.1255 94.8904,38.7922 94.5,40.5C 94.0269,39.0937 93.0269,38.427 91.5,38.5C 88.3601,37.3592 85.0267,37.1925 81.5,38C 81.8333,38.3333 82.1667,38.6667 82.5,39C 80.2922,39.1909 78.2922,39.6909 76.5,40.5C 74.1582,40.7748 74.1582,41.6081 76.5,43C 74.195,42.6712 72.195,41.5045 70.5,39.5C 69.2322,38.5721 67.8989,38.4054 66.5,39C 68.0657,41.3256 69.7324,43.4922 71.5,45.5C 71.5,45.8333 71.5,46.1667 71.5,46.5C 70.9937,48.4287 69.9937,50.0953 68.5,51.5C 68.7093,52.086 69.0426,52.586 69.5,53C 67.5428,54.9914 65.5428,56.9914 63.5,59C 64.1771,61.5372 63.1771,63.5372 60.5,65C 60.8333,65.3333 61.1667,65.6667 61.5,66C 58.2634,70.7389 54.2634,74.5722 49.5,77.5C 47.1137,78.3733 45.1137,79.8733 43.5,82C 44.0944,82.4643 44.7611,82.631 45.5,82.5C 44.1902,84.1477 42.8569,85.8144 41.5,87.5C 41.6667,87.8333 41.8333,88.1667 42,88.5C 43,87.5 44,86.5 45,85.5C 45.7484,87.8401 45.2484,89.8401 43.5,91.5C 40.5285,94.7537 38.0285,98.4204 36,102.5C 33.9728,98.0847 34.4728,93.918 37.5,90C 37.3333,89.5 37.1667,89 37,88.5C 35.9125,90.9316 35.4125,90.5983 35.5,87.5C 41.1172,81.5467 46.7839,75.5467 52.5,69.5C 50.8509,67.3501 49.0176,65.3501 47,63.5C 46.1016,60.9309 44.935,58.5976 43.5,56.5C 43.3677,53.4299 43.701,50.4299 44.5,47.5C 45.3382,47.1583 45.6716,46.4916 45.5,45.5C 46.7401,44.027 47.7401,42.3604 48.5,40.5C 48.3764,39.8933 48.0431,39.56 47.5,39.5C 64.699,30.5646 82.0323,21.5646 99.5,12.5C 114.296,20.3989 128.963,28.5656 143.5,37C 146.833,37.3333 150.167,37.6667 153.5,38C 159.734,41.6082 165.734,45.4415 171.5,49.5 Z"/></g>
<g><path style="opacity:1" fill="#e8b474" d="M 142.5,67.5 C 142.833,67.5 143.167,67.5 143.5,67.5C 143.738,69.4044 144.738,70.7377 146.5,71.5C 146.5,72.1667 146.5,72.8333 146.5,73.5C 143.38,71.7342 140.047,70.4009 136.5,69.5C 136.567,67.5756 136.9,65.5756 137.5,63.5C 138.766,65.4039 140.433,66.7372 142.5,67.5 Z"/></g>
<g><path style="opacity:1" fill="#cc8750" d="M 83.5,51.5 C 86.6862,51.8954 89.6862,52.8954 92.5,54.5C 93.1067,54.3764 93.44,54.0431 93.5,53.5C 96.7239,55.5611 99.0573,58.3944 100.5,62C 99.255,65.1592 98.0884,64.9926 97,61.5C 96.5038,63.0349 96.6705,64.5349 97.5,66C 97.3893,67.7215 96.8893,67.8882 96,66.5C 95.5065,68.1341 95.3398,69.8008 95.5,71.5C 95.5,72.1667 95.1667,72.5 94.5,72.5C 88.5765,74.612 84.5765,72.612 82.5,66.5C 84.4893,67.4814 86.4893,68.4814 88.5,69.5C 89.938,69.2811 91.2713,68.7811 92.5,68C 90.5012,65.7448 89.1679,63.2448 88.5,60.5C 86.8624,59.2954 86.5291,57.9621 87.5,56.5C 86.8065,55.0199 85.1399,54.0199 82.5,53.5C 82.8333,52.8333 83.1667,52.1667 83.5,51.5 Z"/></g>
<g><path style="opacity:1" fill="#31313d" d="M 52.5,46.5 C 54.288,46.2148 55.9547,46.5481 57.5,47.5C 50.8909,52.3415 50.8909,57.1748 57.5,62C 56.9747,62.6924 56.3081,63.1924 55.5,63.5C 48.8603,58.6786 47.8603,53.0119 52.5,46.5 Z"/></g>
<g><path style="opacity:1" fill="#c78654" d="M 106.5,40.5 C 108.467,40.7394 110.301,40.4061 112,39.5C 114.113,41.2711 113.947,42.7711 111.5,44C 112.819,44.195 114.153,44.0283 115.5,43.5C 117.446,43.1928 119.113,43.1928 120.5,43.5C 118.098,44.5754 115.764,45.7421 113.5,47C 114,47.1667 114.5,47.3333 115,47.5C 118.915,45.0498 122.748,45.0498 126.5,47.5C 128.727,46.9475 131.061,46.9475 133.5,47.5C 133.736,48.9024 134.07,50.4024 134.5,52C 134.108,53.0105 133.441,53.5105 132.5,53.5C 133.852,54.5244 135.185,55.5244 136.5,56.5C 137.879,59.3442 139.879,61.8442 142.5,64C 141.833,64.3333 141.167,64.6667 140.5,65C 141.381,65.7083 142.047,66.5416 142.5,67.5C 140.433,66.7372 138.766,65.4039 137.5,63.5C 136.9,65.5756 136.567,67.5756 136.5,69.5C 140.047,70.4009 143.38,71.7342 146.5,73.5C 147.833,75.1667 149.167,76.8333 150.5,78.5C 146.872,76.7919 143.038,75.7919 139,75.5C 136.498,75.3384 134.331,76.0051 132.5,77.5C 133.485,74.0131 134.485,70.5131 135.5,67C 135.333,65.5 135.167,64 135,62.5C 132.542,60.2176 130.376,57.8843 128.5,55.5C 125.461,52.983 122.461,52.983 119.5,55.5C 116.352,56.4735 114.519,58.4735 114,61.5C 115.371,59.9586 116.871,58.6253 118.5,57.5C 121.764,56.6758 125.098,56.3424 128.5,56.5C 128.938,56.4346 129.272,56.6012 129.5,57C 128.584,57.2784 127.918,57.7784 127.5,58.5C 124.212,58.0156 121.545,59.0156 119.5,61.5C 117.12,63.2367 115.453,65.57 114.5,68.5C 116.396,69.4656 118.396,69.7989 120.5,69.5C 119.292,72.0442 117.292,73.3775 114.5,73.5C 110.009,72.7759 108.342,70.1093 109.5,65.5C 110.927,62.8713 110.261,60.7046 107.5,59C 109.329,57.8867 110.163,56.3867 110,54.5C 107.888,57.284 105.221,59.284 102,60.5C 99.8442,57.6751 97.6776,54.8417 95.5,52C 95.8333,51.5 96.1667,51 96.5,50.5C 97.6086,51.5896 98.6086,51.5896 99.5,50.5C 95.5402,47.7336 91.2068,45.7336 86.5,44.5C 85.3044,44.8457 85.3044,45.3457 86.5,46C 88.0441,46.2896 89.3774,46.9563 90.5,48C 89.9747,48.6924 89.3081,49.1924 88.5,49.5C 82.5929,49.14 76.9262,48.14 71.5,46.5C 71.5,46.1667 71.5,45.8333 71.5,45.5C 74.4869,45.0022 77.4869,44.5022 80.5,44C 79.6721,43.0853 78.6721,42.4186 77.5,42C 83.2891,40.983 88.6225,42.1497 93.5,45.5C 94.4786,42.0472 95.9786,41.7138 98,44.5C 100.044,42.4155 102.211,40.4155 104.5,38.5C 105.182,39.2427 105.849,39.9094 106.5,40.5 Z"/></g>
<g><path style="opacity:1" fill="#a85831" d="M 126.5,63.5 C 128.95,63.298 131.283,63.6314 133.5,64.5C 133.852,67.0728 133.352,69.4062 132,71.5C 131.994,68.7356 130.828,66.7356 128.5,65.5C 128.062,64.4937 127.396,64.4937 126.5,65.5C 125.833,65.5 125.5,65.1667 125.5,64.5C 125.5,63.8333 125.833,63.5 126.5,63.5 Z"/></g>
<g><path style="opacity:1" fill="#efb15f" d="M 119.5,61.5 C 119.369,62.3764 119.702,63.0431 120.5,63.5C 122.678,60.9621 124.678,60.9621 126.5,63.5C 125.833,63.5 125.5,63.8333 125.5,64.5C 123.5,65.8333 121.833,67.5 120.5,69.5C 118.396,69.7989 116.396,69.4656 114.5,68.5C 115.453,65.57 117.12,63.2367 119.5,61.5 Z"/></g>
<g><path style="opacity:1" fill="#f2ebe0" d="M 127.5,58.5 C 130.5,59.5 132.5,61.5 133.5,64.5C 131.283,63.6314 128.95,63.298 126.5,63.5C 124.678,60.9621 122.678,60.9621 120.5,63.5C 119.702,63.0431 119.369,62.3764 119.5,61.5C 121.545,59.0156 124.212,58.0156 127.5,58.5 Z"/></g>
<g><path style="opacity:1" fill="#5c402d" d="M 119.5,55.5 C 119.167,56.1667 118.833,56.8333 118.5,57.5C 116.871,58.6253 115.371,59.9586 114,61.5C 114.519,58.4735 116.352,56.4735 119.5,55.5 Z"/></g>
<g><path style="opacity:1" fill="#ebdaba" d="M 119.5,55.5 C 122.5,55.5 125.5,55.5 128.5,55.5C 128.5,55.8333 128.5,56.1667 128.5,56.5C 125.098,56.3424 121.764,56.6758 118.5,57.5C 118.833,56.8333 119.167,56.1667 119.5,55.5 Z"/></g>
<g><path style="opacity:1" fill="#685a56" d="M 128.5,55.5 C 125.5,55.5 122.5,55.5 119.5,55.5C 122.461,52.983 125.461,52.983 128.5,55.5 Z"/></g>
<g><path style="opacity:1" fill="#e8d4b7" d="M 116.5,50.5 C 121.051,50.0527 125.384,50.7194 129.5,52.5C 124.464,52.23 119.297,52.5633 114,53.5C 113.5,53.3333 113,53.1667 112.5,53C 113.858,52.0656 115.192,51.2323 116.5,50.5 Z"/></g>
<g><path style="opacity:1" fill="#402d2c" d="M 138.5,42.5 C 139.239,42.369 139.906,42.5357 140.5,43C 138.833,44.6667 137.167,46.3333 135.5,48C 135.912,49.5639 136.245,51.0639 136.5,52.5C 135.646,53.6316 135.646,54.965 136.5,56.5C 135.185,55.5244 133.852,54.5244 132.5,53.5C 133.441,53.5105 134.108,53.0105 134.5,52C 134.07,50.4024 133.736,48.9024 133.5,47.5C 133.5,47.1667 133.5,46.8333 133.5,46.5C 133.5,45.8333 133.833,45.5 134.5,45.5C 136.03,44.7888 137.363,43.7888 138.5,42.5 Z"/></g>
<g><path style="opacity:1" fill="#e8b770" d="M 133.5,46.5 C 133.5,46.8333 133.5,47.1667 133.5,47.5C 131.061,46.9475 128.727,46.9475 126.5,47.5C 122.748,45.0498 118.915,45.0498 115,47.5C 114.5,47.3333 114,47.1667 113.5,47C 115.764,45.7421 118.098,44.5754 120.5,43.5C 119.113,43.1928 117.446,43.1928 115.5,43.5C 115.918,42.7784 116.584,42.2784 117.5,42C 120.5,41.3333 123.5,41.3333 126.5,42C 125.167,42.6667 125.167,43.3333 126.5,44C 128.9,44.7436 131.233,45.5769 133.5,46.5 Z"/></g>
<g><path style="opacity:1" fill="#c9bbac" d="M 105.5,36.5 C 106.234,37.7079 106.567,39.0413 106.5,40.5C 105.849,39.9094 105.182,39.2427 104.5,38.5C 102.211,40.4155 100.044,42.4155 98,44.5C 95.9786,41.7138 94.4786,42.0472 93.5,45.5C 88.6225,42.1497 83.2891,40.983 77.5,42C 78.6721,42.4186 79.6721,43.0853 80.5,44C 77.4869,44.5022 74.4869,45.0022 71.5,45.5C 69.7324,43.4922 68.0657,41.3256 66.5,39C 67.8989,38.4054 69.2322,38.5721 70.5,39.5C 72.195,41.5045 74.195,42.6712 76.5,43C 74.1582,41.6081 74.1582,40.7748 76.5,40.5C 81.646,40.1808 86.646,40.8475 91.5,42.5C 92.1067,42.3764 92.44,42.0431 92.5,41.5C 92.8417,40.6618 93.5084,40.3284 94.5,40.5C 94.8904,38.7922 94.8904,37.1255 94.5,35.5C 96.1667,36.8333 97.8333,38.1667 99.5,39.5C 100.604,38.3687 100.271,37.5354 98.5,37C 99.9663,36.3645 101.3,35.5312 102.5,34.5C 103.265,35.6119 104.265,36.2786 105.5,36.5 Z"/></g>
<g><path style="opacity:1" fill="#b9b8b9" d="M 141.5,39.5 C 144.833,39.5 148.167,39.5 151.5,39.5C 152.44,42.7143 153.94,45.7143 156,48.5C 157.521,54.8767 156.021,60.3767 151.5,65C 149.726,66.7557 148.059,66.7557 146.5,65C 154.1,61.5713 156.6,55.738 154,47.5C 151.441,44.6508 148.274,43.8175 144.5,45C 141.308,47.0282 138.641,49.5282 136.5,52.5C 136.245,51.0639 135.912,49.5639 135.5,48C 137.167,46.3333 138.833,44.6667 140.5,43C 139.906,42.5357 139.239,42.369 138.5,42.5C 139.306,41.2719 140.306,40.2719 141.5,39.5 Z"/></g>
<g><path style="opacity:1" fill="#a5a3a5" d="M 60.5,39.5 C 63.3576,39.5954 65.6909,40.7621 67.5,43C 65.2102,43.7904 64.8769,45.1237 66.5,47C 66.1377,48.2247 65.6377,49.3914 65,50.5C 61.4909,45.1617 56.6576,43.3284 50.5,45C 45.9544,52.7287 47.2877,59.3954 54.5,65C 51.3281,65.1506 49.1615,63.6506 48,60.5C 45.8152,55.0132 46.1485,49.6799 49,44.5C 50.129,42.8588 51.629,41.8588 53.5,41.5C 56.5184,41.6646 59.5184,41.498 62.5,41C 61.5842,40.7216 60.9175,40.2216 60.5,39.5 Z"/></g>
<g><path style="opacity:1" fill="#d9d6d3" d="M 91.5,38.5 C 93.0269,38.427 94.0269,39.0937 94.5,40.5C 93.5084,40.3284 92.8417,40.6618 92.5,41.5C 90.1489,39.9304 87.4823,39.0971 84.5,39C 86.8098,38.5034 89.1432,38.3367 91.5,38.5 Z"/></g>
<g><path style="opacity:1" fill="#77777d" d="M 91.5,38.5 C 89.1432,38.3367 86.8098,38.5034 84.5,39C 87.4823,39.0971 90.1489,39.9304 92.5,41.5C 92.44,42.0431 92.1067,42.3764 91.5,42.5C 86.646,40.8475 81.646,40.1808 76.5,40.5C 78.2922,39.6909 80.2922,39.1909 82.5,39C 82.1667,38.6667 81.8333,38.3333 81.5,38C 85.0267,37.1925 88.3601,37.3592 91.5,38.5 Z"/></g>
<g><path style="opacity:1" fill="#655953" d="M 56.5,36.5 C 57.209,37.404 58.209,37.7373 59.5,37.5C 61.2161,37.3713 62.8828,37.038 64.5,36.5C 63.4097,37.8571 62.0764,38.8571 60.5,39.5C 60.9175,40.2216 61.5842,40.7216 62.5,41C 59.5184,41.498 56.5184,41.6646 53.5,41.5C 60.3728,40.8757 60.7061,39.7091 54.5,38C 55.0442,37.2828 55.7109,36.7828 56.5,36.5 Z"/></g>
<g><path style="opacity:1" fill="#d4d0ca" d="M 134.5,45.5 C 133.833,45.5 133.5,45.8333 133.5,46.5C 131.233,45.5769 128.9,44.7436 126.5,44C 125.167,43.3333 125.167,42.6667 126.5,42C 123.5,41.3333 120.5,41.3333 117.5,42C 116.584,42.2784 115.918,42.7784 115.5,43.5C 114.153,44.0283 112.819,44.195 111.5,44C 113.947,42.7711 114.113,41.2711 112,39.5C 110.301,40.4061 108.467,40.7394 106.5,40.5C 106.567,39.0413 106.234,37.7079 105.5,36.5C 107.402,35.4891 109.402,35.3224 111.5,36C 109.604,37.0646 109.437,37.8979 111,38.5C 114.789,37.438 118.623,37.2713 122.5,38C 121.692,38.3076 121.025,38.8076 120.5,39.5C 123.785,40.3236 127.118,40.8236 130.5,41C 128.604,42.0646 128.437,42.8979 130,43.5C 131.972,41.9219 134.138,41.0885 136.5,41C 135.418,42.3297 134.751,43.8297 134.5,45.5 Z"/></g>
<g><path style="opacity:1" fill="#68452c" d="M 91.5,33.5 C 91.5,34.5 91.5,35.5 91.5,36.5C 88.9407,36.8016 86.6074,36.4682 84.5,35.5C 87.2108,35.8151 89.5441,35.1484 91.5,33.5 Z"/></g>
<g><path style="opacity:1" fill="#e1b669" d="M 77.5,25.5 C 71.8105,30.0082 65.8105,34.0082 59.5,37.5C 58.209,37.7373 57.209,37.404 56.5,36.5C 63.3691,32.5656 70.3691,28.8989 77.5,25.5 Z"/></g>
<g><path style="opacity:1" fill="#ebcf8a" d="M 104.5,17.5 C 117.096,23.4649 129.429,29.9649 141.5,37C 142.598,37.7697 142.598,38.603 141.5,39.5C 139.883,38.962 138.216,38.6287 136.5,38.5C 136.586,37.5041 136.252,36.6708 135.5,36C 124.844,30.3984 114.177,24.8984 103.5,19.5C 103.833,18.8333 104.167,18.1667 104.5,17.5 Z"/></g>
<g><path style="opacity:1" fill="#794b29" d="M 113.5,27.5 C 118.984,29.4068 123.984,32.0734 128.5,35.5C 123.016,33.5932 118.016,30.9266 113.5,27.5 Z"/></g>
<g><path style="opacity:1" fill="#ba7c36" d="M 104.5,23.5 C 106.713,24.7729 109.046,25.7729 111.5,26.5C 112.492,26.3284 113.158,26.6618 113.5,27.5C 118.016,30.9266 123.016,33.5932 128.5,35.5C 130.819,35.9925 132.819,36.9925 134.5,38.5C 134.083,39.1239 133.416,39.4573 132.5,39.5C 129.525,38.8607 126.525,38.3607 123.5,38C 124.634,36.984 124.301,36.3173 122.5,36C 116.975,35.753 111.642,34.9197 106.5,33.5C 106.611,32.8826 106.944,32.3826 107.5,32C 106.202,29.2731 105.202,26.4398 104.5,23.5 Z"/></g>
<g><path style="opacity:1" fill="#754723" d="M 93.5,20.5 C 92.537,21.3635 92.537,22.0302 93.5,22.5C 94.4168,21.8728 95.4168,21.5394 96.5,21.5C 87.4773,25.8468 78.4773,30.5134 69.5,35.5C 68.7025,35.9569 68.3691,36.6236 68.5,37.5C 67.609,36.8902 66.609,36.5569 65.5,36.5C 74.8254,31.1701 84.1588,25.8367 93.5,20.5 Z"/></g>
<g><path style="opacity:1" fill="#774e2f" d="M 111.5,26.5 C 109.046,25.7729 106.713,24.7729 104.5,23.5C 102.668,22.7515 101.001,21.7515 99.5,20.5C 98.609,21.1098 97.609,21.4431 96.5,21.5C 97.6591,19.6231 99.3258,19.1231 101.5,20C 105.069,21.9417 108.402,24.1084 111.5,26.5 Z"/></g>
<g><path style="opacity:1" fill="#f6e6b6" d="M 99.5,20.5 C 101.001,21.7515 102.668,22.7515 104.5,23.5C 105.202,26.4398 106.202,29.2731 107.5,32C 106.944,32.3826 106.611,32.8826 106.5,33.5C 105.167,32.8333 103.833,32.1667 102.5,31.5C 100.726,28.0735 99.7261,24.4069 99.5,20.5 Z"/></g>
<g><path style="opacity:1" fill="#bd7d36" d="M 99.5,20.5 C 99.7261,24.4069 100.726,28.0735 102.5,31.5C 101.809,33.0222 100.642,34.0222 99,34.5C 96.5661,33.6777 94.0661,33.3444 91.5,33.5C 89.5441,35.1484 87.2108,35.8151 84.5,35.5C 81.2784,35.1081 78.2784,35.6081 75.5,37C 76.8333,37.3333 78.1667,37.6667 79.5,38C 75.7973,38.5787 72.1306,38.412 68.5,37.5C 68.3691,36.6236 68.7025,35.9569 69.5,35.5C 78.4773,30.5134 87.4773,25.8468 96.5,21.5C 97.609,21.4431 98.609,21.1098 99.5,20.5 Z"/></g>
<g><path style="opacity:1" fill="#f2e4b6" d="M 93.5,17.5 C 94.2389,17.369 94.9056,17.5357 95.5,18C 94.6195,18.7083 93.9528,19.5416 93.5,20.5C 84.1588,25.8367 74.8254,31.1701 65.5,36.5C 65.1667,36.5 64.8333,36.5 64.5,36.5C 62.8828,37.038 61.2161,37.3713 59.5,37.5C 65.8105,34.0082 71.8105,30.0082 77.5,25.5C 82.5156,22.3255 87.8489,19.6588 93.5,17.5 Z"/></g>
<g><path style="opacity:1" fill="#f4eac4" d="M 103.5,19.5 C 114.177,24.8984 124.844,30.3984 135.5,36C 136.252,36.6708 136.586,37.5041 136.5,38.5C 135.833,38.5 135.167,38.5 134.5,38.5C 132.819,36.9925 130.819,35.9925 128.5,35.5C 123.984,32.0734 118.984,29.4068 113.5,27.5C 113.158,26.6618 112.492,26.3284 111.5,26.5C 108.402,24.1084 105.069,21.9417 101.5,20C 99.3258,19.1231 97.6591,19.6231 96.5,21.5C 95.4168,21.5394 94.4168,21.8728 93.5,22.5C 92.537,22.0302 92.537,21.3635 93.5,20.5C 95.4664,19.5588 97.4664,18.5588 99.5,17.5C 100.86,18.1799 102.193,18.8466 103.5,19.5 Z"/></g>
<g><path style="opacity:1" fill="#d0a867" d="M 104.5,17.5 C 104.167,18.1667 103.833,18.8333 103.5,19.5C 102.193,18.8466 100.86,18.1799 99.5,17.5C 97.4664,18.5588 95.4664,19.5588 93.5,20.5C 93.9528,19.5416 94.6195,18.7083 95.5,18C 94.9056,17.5357 94.2389,17.369 93.5,17.5C 95.3085,16.6059 97.1418,15.6059 99,14.5C 101.12,15.1402 102.954,16.1402 104.5,17.5 Z"/></g>
<g><path style="opacity:1" fill="#7a422d" d="M 125.5,64.5 C 125.5,65.1667 125.833,65.5 126.5,65.5C 123.805,68.5256 121.138,71.5256 118.5,74.5C 116.901,74.7678 115.568,74.4345 114.5,73.5C 117.292,73.3775 119.292,72.0442 120.5,69.5C 121.833,67.5 123.5,65.8333 125.5,64.5 Z"/></g>
<g><path style="opacity:1" fill="#0f0e1b" d="M 89.5,75.5 C 88.7375,76.2679 87.7375,76.7679 86.5,77C 87.6492,78.7441 88.9825,78.9108 90.5,77.5C 91.7567,79.7986 91.4233,81.7986 89.5,83.5C 89.3059,79.9952 88.3059,79.6618 86.5,82.5C 85.8333,81.8333 85.1667,81.1667 84.5,80.5C 82.8333,80.5 81.1667,80.5 79.5,80.5C 76.6874,80.9754 74.6874,79.9754 73.5,77.5C 75.2283,73.2014 76.2283,68.868 76.5,64.5C 80.3532,67.5195 83.6865,71.0195 86.5,75C 87.448,75.4828 88.448,75.6495 89.5,75.5 Z"/></g>
<g><path style="opacity:1" fill="#706e72" d="M 143.5,67.5 C 145.423,67.795 147.09,68.6283 148.5,70C 147.584,70.2784 146.918,70.7784 146.5,71.5C 144.738,70.7377 143.738,69.4044 143.5,67.5 Z"/></g>
<g><path style="opacity:1" fill="#512c24" d="M 72.5,61.5 C 74.1708,63.0077 76.0041,63.3411 78,62.5C 79.3712,64.0414 80.8712,65.3747 82.5,66.5C 84.5765,72.612 88.5765,74.612 94.5,72.5C 94.719,73.675 94.3857,74.675 93.5,75.5C 92.0052,74.2947 90.6719,74.2947 89.5,75.5C 88.448,75.6495 87.448,75.4828 86.5,75C 83.6865,71.0195 80.3532,67.5195 76.5,64.5C 76.2283,68.868 75.2283,73.2014 73.5,77.5C 73.1667,77.5 72.8333,77.5 72.5,77.5C 72.5,76.5 72.5,75.5 72.5,74.5C 69.8732,74.7067 68.2065,73.54 67.5,71C 67.9902,68.6539 68.6568,66.4872 69.5,64.5C 69.1485,67.0728 69.6485,69.4062 71,71.5C 71.1171,70.0496 70.9505,68.5496 70.5,67C 70.7006,64.8886 71.3673,63.0552 72.5,61.5 Z"/></g>
<g><path style="opacity:1" fill="#6c4130" d="M 108.5,68.5 C 107.587,70.0861 107.587,71.5861 108.5,73C 104.445,73.2315 100.445,73.7315 96.5,74.5C 95.913,73.7666 95.913,72.7666 96.5,71.5C 96.7286,69.567 97.5619,67.9003 99,66.5C 100.064,70.2946 102.564,71.4612 106.5,70C 107.044,69.2828 107.711,68.7828 108.5,68.5 Z"/></g>
<g><path style="opacity:1" fill="#553127" d="M 128.5,56.5 C 128.5,56.1667 128.5,55.8333 128.5,55.5C 130.376,57.8843 132.542,60.2176 135,62.5C 135.167,64 135.333,65.5 135.5,67C 134.485,70.5131 133.485,74.0131 132.5,77.5C 132.5,78.1667 132.167,78.5 131.5,78.5C 130.637,74.0549 129.637,69.7216 128.5,65.5C 130.828,66.7356 131.994,68.7356 132,71.5C 133.352,69.4062 133.852,67.0728 133.5,64.5C 132.5,61.5 130.5,59.5 127.5,58.5C 127.918,57.7784 128.584,57.2784 129.5,57C 129.272,56.6012 128.938,56.4346 128.5,56.5 Z"/></g>
<g><path style="opacity:1" fill="#a36642" d="M 109.5,65.5 C 109.649,64.448 109.483,63.448 109,62.5C 108.505,64.4727 108.338,66.4727 108.5,68.5C 107.711,68.7828 107.044,69.2828 106.5,70C 102.564,71.4612 100.064,70.2946 99,66.5C 97.5619,67.9003 96.7286,69.567 96.5,71.5C 96.1667,71.5 95.8333,71.5 95.5,71.5C 95.3398,69.8008 95.5065,68.1341 96,66.5C 96.8893,67.8882 97.3893,67.7215 97.5,66C 96.6705,64.5349 96.5038,63.0349 97,61.5C 98.0884,64.9926 99.255,65.1592 100.5,62C 99.0573,58.3944 96.7239,55.5611 93.5,53.5C 88.1828,49.8669 82.5161,49.0336 76.5,51C 78.8098,51.4966 81.1432,51.6633 83.5,51.5C 83.1667,52.1667 82.8333,52.8333 82.5,53.5C 78.1559,53.3385 74.4893,54.8385 71.5,58C 72.0944,58.4643 72.7611,58.631 73.5,58.5C 70.9908,59.6824 69.6574,61.6824 69.5,64.5C 68.6568,66.4872 67.9902,68.6539 67.5,71C 68.2065,73.54 69.8732,74.7067 72.5,74.5C 72.5,75.5 72.5,76.5 72.5,77.5C 69.7543,75.8736 66.7543,75.2069 63.5,75.5C 60.4867,75.1072 57.8201,75.7739 55.5,77.5C 53.6531,76.4271 51.6531,76.4271 49.5,77.5C 54.2634,74.5722 58.2634,70.7389 61.5,66C 61.1667,65.6667 60.8333,65.3333 60.5,65C 63.1771,63.5372 64.1771,61.5372 63.5,59C 65.5428,56.9914 67.5428,54.9914 69.5,53C 69.0426,52.586 68.7093,52.086 68.5,51.5C 69.9937,50.0953 70.9937,48.4287 71.5,46.5C 76.9262,48.14 82.5929,49.14 88.5,49.5C 89.3081,49.1924 89.9747,48.6924 90.5,48C 89.3774,46.9563 88.0441,46.2896 86.5,46C 85.3044,45.3457 85.3044,44.8457 86.5,44.5C 91.2068,45.7336 95.5402,47.7336 99.5,50.5C 98.6086,51.5896 97.6086,51.5896 96.5,50.5C 96.1667,51 95.8333,51.5 95.5,52C 97.6776,54.8417 99.8442,57.6751 102,60.5C 105.221,59.284 107.888,57.284 110,54.5C 110.163,56.3867 109.329,57.8867 107.5,59C 110.261,60.7046 110.927,62.8713 109.5,65.5 Z"/></g>
<g><path style="opacity:1" fill="#150f16" d="M 73.5,58.5 C 74.4916,58.3284 75.1583,58.6618 75.5,59.5C 74.2905,59.9321 73.2905,60.5987 72.5,61.5C 71.3673,63.0552 70.7006,64.8886 70.5,67C 70.9505,68.5496 71.1171,70.0496 71,71.5C 69.6485,69.4062 69.1485,67.0728 69.5,64.5C 69.6574,61.6824 70.9908,59.6824 73.5,58.5 Z"/></g>
<g><path style="opacity:1" fill="#f0b563" d="M 82.5,58.5 C 84.9032,58.393 86.7365,59.393 88,61.5C 88.3988,61.2716 88.5654,60.9382 88.5,60.5C 89.1679,63.2448 90.5012,65.7448 92.5,68C 91.2713,68.7811 89.938,69.2811 88.5,69.5C 86.4893,68.4814 84.4893,67.4814 82.5,66.5C 80.8712,65.3747 79.3712,64.0414 78,62.5C 76.0041,63.3411 74.1708,63.0077 72.5,61.5C 73.2905,60.5987 74.2905,59.9321 75.5,59.5C 77.7925,59.2436 79.9592,59.5769 82,60.5C 82.4643,59.9056 82.631,59.2389 82.5,58.5 Z"/></g>
<g><path style="opacity:1" fill="#7a5e53" d="M 77.5,55.5 C 78.4856,57.4077 80.1523,58.4077 82.5,58.5C 82.631,59.2389 82.4643,59.9056 82,60.5C 79.9592,59.5769 77.7925,59.2436 75.5,59.5C 75.1583,58.6618 74.4916,58.3284 73.5,58.5C 74.795,57.5116 76.1283,56.5116 77.5,55.5 Z"/></g>
<g><path style="opacity:1" fill="#f6e3be" d="M 77.5,55.5 C 80.9023,55.3424 84.2356,55.6758 87.5,56.5C 86.5291,57.9621 86.8624,59.2954 88.5,60.5C 88.5654,60.9382 88.3988,61.2716 88,61.5C 86.7365,59.393 84.9032,58.393 82.5,58.5C 80.1523,58.4077 78.4856,57.4077 77.5,55.5 Z"/></g>
<g><path style="opacity:1" fill="#261c21" d="M 82.5,53.5 C 85.1399,54.0199 86.8065,55.0199 87.5,56.5C 84.2356,55.6758 80.9023,55.3424 77.5,55.5C 76.1283,56.5116 74.795,57.5116 73.5,58.5C 72.7611,58.631 72.0944,58.4643 71.5,58C 74.4893,54.8385 78.1559,53.3385 82.5,53.5 Z"/></g>
<g><path style="opacity:1" fill="#ccb598" d="M 93.5,53.5 C 93.44,54.0431 93.1067,54.3764 92.5,54.5C 89.6862,52.8954 86.6862,51.8954 83.5,51.5C 81.1432,51.6633 78.8098,51.4966 76.5,51C 82.5161,49.0336 88.1828,49.8669 93.5,53.5 Z"/></g>
<g><path style="opacity:1" fill="#dad9d9" d="M 79.5,74.5 C 80.3864,73.2241 81.3864,73.2241 82.5,74.5C 81.5754,75.5624 80.5754,75.5624 79.5,74.5 Z"/></g>
<g><path style="opacity:1" fill="#e1d2be" d="M 63.5,75.5 C 66.7543,75.2069 69.7543,75.8736 72.5,77.5C 72.8333,77.5 73.1667,77.5 73.5,77.5C 74.6874,79.9754 76.6874,80.9754 79.5,80.5C 79.6716,81.4916 79.3382,82.1583 78.5,82.5C 77.8333,82.5 77.1667,82.5 76.5,82.5C 72.8983,78.274 68.2317,76.4407 62.5,77C 63.056,76.6174 63.3893,76.1174 63.5,75.5 Z"/></g>
<g><path style="opacity:1" fill="#110f1b" d="M 128.5,65.5 C 129.637,69.7216 130.637,74.0549 131.5,78.5C 129.703,79.7298 127.703,80.3964 125.5,80.5C 123.473,80.3379 121.473,80.5045 119.5,81C 120.044,81.7172 120.711,82.2172 121.5,82.5C 121.328,83.4916 121.662,84.1583 122.5,84.5C 122.633,87.925 121.967,88.2583 120.5,85.5C 119.167,83.8333 117.833,82.1667 116.5,80.5C 115.449,79.7777 114.782,78.7777 114.5,77.5C 116.715,78.3066 118.049,77.3066 118.5,74.5C 121.138,71.5256 123.805,68.5256 126.5,65.5C 127.396,64.4937 128.062,64.4937 128.5,65.5 Z"/></g>
<g><path style="opacity:1" fill="#cbcbcb" d="M 121.5,74.5 C 123.364,73.2072 125.364,73.2072 127.5,74.5C 125.825,75.4099 123.825,75.4099 121.5,74.5 Z"/></g>
<g><path style="opacity:1" fill="#927a5e" d="M 49.5,77.5 C 48.1667,79.1667 46.8333,80.8333 45.5,82.5C 44.7611,82.631 44.0944,82.4643 43.5,82C 45.1137,79.8733 47.1137,78.3733 49.5,77.5 Z"/></g>
<g><path style="opacity:1" fill="#41231e" d="M 55.5,77.5 C 54.1667,78.1667 52.8333,78.8333 51.5,79.5C 49.5,80.5 47.5,81.5 45.5,82.5C 46.8333,80.8333 48.1667,79.1667 49.5,77.5C 51.6531,76.4271 53.6531,76.4271 55.5,77.5 Z"/></g>
<g><path style="opacity:1" fill="#eaa960" d="M 134.5,78.5 C 139.174,78.1294 143.507,79.6294 147.5,83C 143.908,82.4979 140.241,82.4979 136.5,83C 135.944,83.3826 135.611,83.8826 135.5,84.5C 134.833,84.5 134.167,84.5 133.5,84.5C 133.92,82.9064 134.586,81.4064 135.5,80C 135.43,79.2352 135.097,78.7352 134.5,78.5 Z"/></g>
<g><path style="opacity:1" fill="#bb794a" d="M 63.5,75.5 C 63.3893,76.1174 63.056,76.6174 62.5,77C 68.2317,76.4407 72.8983,78.274 76.5,82.5C 70.1078,83.8164 63.7745,84.8164 57.5,85.5C 54.0434,85.7579 50.7101,86.2579 47.5,87C 49.4962,84.8377 50.8295,82.3377 51.5,79.5C 52.8333,78.8333 54.1667,78.1667 55.5,77.5C 57.8201,75.7739 60.4867,75.1072 63.5,75.5 Z"/></g>
<g><path style="opacity:1" fill="#eddcc4" d="M 150.5,78.5 C 151.463,79.3635 151.463,80.0302 150.5,80.5C 148.669,79.0706 146.669,78.5706 144.5,79C 146.862,80.5106 149.195,82.0106 151.5,83.5C 152.833,84.5 154.167,85.5 155.5,86.5C 155.5,87.1667 155.5,87.8333 155.5,88.5C 155.167,88.5 154.833,88.5 154.5,88.5C 152.266,86.5541 149.599,85.3874 146.5,85C 142.848,84.5014 139.182,84.3347 135.5,84.5C 135.611,83.8826 135.944,83.3826 136.5,83C 140.241,82.4979 143.908,82.4979 147.5,83C 143.507,79.6294 139.174,78.1294 134.5,78.5C 131.272,80.8955 127.605,82.2288 123.5,82.5C 124.167,81.8333 124.833,81.1667 125.5,80.5C 127.703,80.3964 129.703,79.7298 131.5,78.5C 132.167,78.5 132.5,78.1667 132.5,77.5C 134.331,76.0051 136.498,75.3384 139,75.5C 143.038,75.7919 146.872,76.7919 150.5,78.5 Z"/></g>
<g><path style="opacity:1" fill="#dfdbd7" d="M 146.5,71.5 C 148.485,71.8586 149.151,72.692 148.5,74C 153.399,77.3969 157.399,81.5635 160.5,86.5C 158.5,84.8333 156.5,83.1667 154.5,81.5C 153.738,79.7376 152.404,78.7376 150.5,78.5C 149.167,76.8333 147.833,75.1667 146.5,73.5C 146.5,72.8333 146.5,72.1667 146.5,71.5 Z"/></g>
<g><path style="opacity:1" fill="#594c4d" d="M 79.5,80.5 C 81.1667,80.5 82.8333,80.5 84.5,80.5C 84.0113,81.9952 83.3446,83.3285 82.5,84.5C 81.1667,83.8333 79.8333,83.1667 78.5,82.5C 79.3382,82.1583 79.6716,81.4916 79.5,80.5 Z"/></g>
<g><path style="opacity:1" fill="#bfbebe" d="M 113.5,79.5 C 114.303,80.4232 114.47,81.4232 114,82.5C 109.934,81.5363 105.767,81.203 101.5,81.5C 98.3926,81.6488 95.3926,81.1488 92.5,80C 99.4921,79.5004 106.492,79.3337 113.5,79.5 Z"/></g>
<g><path style="opacity:1" fill="#5e5c62" d="M 125.5,80.5 C 124.833,81.1667 124.167,81.8333 123.5,82.5C 122.833,82.5 122.167,82.5 121.5,82.5C 120.711,82.2172 120.044,81.7172 119.5,81C 121.473,80.5045 123.473,80.3379 125.5,80.5 Z"/></g>
<g><path style="opacity:1" fill="#a0673e" d="M 150.5,78.5 C 152.404,78.7376 153.738,79.7376 154.5,81.5C 154.5,82.1667 154.5,82.8333 154.5,83.5C 153.348,82.375 152.348,82.375 151.5,83.5C 149.195,82.0106 146.862,80.5106 144.5,79C 146.669,78.5706 148.669,79.0706 150.5,80.5C 151.463,80.0302 151.463,79.3635 150.5,78.5 Z"/></g>
<g><path style="opacity:1" fill="#27232b" d="M 109.5,65.5 C 108.342,70.1093 110.009,72.7759 114.5,73.5C 115.568,74.4345 116.901,74.7678 118.5,74.5C 118.049,77.3066 116.715,78.3066 114.5,77.5C 113.833,77.5 113.167,77.5 112.5,77.5C 112.833,78.1667 113.167,78.8333 113.5,79.5C 106.492,79.3337 99.4921,79.5004 92.5,80C 95.3926,81.1488 98.3926,81.6488 101.5,81.5C 99.7078,82.3091 97.7078,82.8091 95.5,83C 99.58,86.1116 101.247,89.9449 100.5,94.5C 98.487,92.6348 96.1536,90.9681 93.5,89.5C 91.7224,87.736 90.3891,85.736 89.5,83.5C 91.4233,81.7986 91.7567,79.7986 90.5,77.5C 88.9825,78.9108 87.6492,78.7441 86.5,77C 87.7375,76.7679 88.7375,76.2679 89.5,75.5C 90.6719,74.2947 92.0052,74.2947 93.5,75.5C 94.3857,74.675 94.719,73.675 94.5,72.5C 95.1667,72.5 95.5,72.1667 95.5,71.5C 95.8333,71.5 96.1667,71.5 96.5,71.5C 95.913,72.7666 95.913,73.7666 96.5,74.5C 100.445,73.7315 104.445,73.2315 108.5,73C 107.587,71.5861 107.587,70.0861 108.5,68.5C 108.338,66.4727 108.505,64.4727 109,62.5C 109.483,63.448 109.649,64.448 109.5,65.5 Z"/></g>
<g><path style="opacity:1" fill="#a7a6a7" d="M 112.5,77.5 C 106.144,76.3843 99.8109,76.2177 93.5,77C 100.037,73.6181 106.371,73.7847 112.5,77.5 Z"/></g>
<g><path style="opacity:1" fill="#3a3a46" d="M 112.5,77.5 C 113.167,77.5 113.833,77.5 114.5,77.5C 114.782,78.7777 115.449,79.7777 116.5,80.5C 115.752,83.1702 114.752,85.8369 113.5,88.5C 112.167,89.5 110.833,90.5 109.5,91.5C 109.082,90.7784 108.416,90.2784 107.5,90C 109.651,88.5947 111.318,86.7614 112.5,84.5C 108.853,83.2565 106.353,84.5899 105,88.5C 103.921,91.0627 103.421,93.7294 103.5,96.5C 102.5,96.5 101.5,96.5 100.5,96.5C 100.5,95.8333 100.5,95.1667 100.5,94.5C 101.247,89.9449 99.58,86.1116 95.5,83C 97.7078,82.8091 99.7078,82.3091 101.5,81.5C 105.767,81.203 109.934,81.5363 114,82.5C 114.47,81.4232 114.303,80.4232 113.5,79.5C 113.167,78.8333 112.833,78.1667 112.5,77.5 Z"/></g>
<g><path style="opacity:1" fill="#b87747" d="M 134.5,78.5 C 135.097,78.7352 135.43,79.2352 135.5,80C 134.586,81.4064 133.92,82.9064 133.5,84.5C 131.374,85.0482 129.374,85.7148 127.5,86.5C 125.486,86.6085 123.82,85.9418 122.5,84.5C 121.662,84.1583 121.328,83.4916 121.5,82.5C 122.167,82.5 122.833,82.5 123.5,82.5C 127.605,82.2288 131.272,80.8955 134.5,78.5 Z"/></g>
<g><path style="opacity:1" fill="#565660" d="M 89.5,83.5 C 88.5,84.8333 87.5,86.1667 86.5,87.5C 86.0825,86.7784 85.4158,86.2784 84.5,86C 85.8228,85.1841 86.4894,84.0174 86.5,82.5C 88.3059,79.6618 89.3059,79.9952 89.5,83.5 Z"/></g>
<g><path style="opacity:1" fill="#49261f" d="M 151.5,83.5 C 152.348,82.375 153.348,82.375 154.5,83.5C 154.953,84.4584 155.619,85.2917 156.5,86C 156.272,86.3988 155.938,86.5654 155.5,86.5C 154.167,85.5 152.833,84.5 151.5,83.5 Z"/></g>
<g><path style="opacity:1" fill="#d8b174" d="M 170.5,49.5 C 170.833,49.5 171.167,49.5 171.5,49.5C 171.5,63.5 171.5,77.5 171.5,91.5C 170.835,89.3021 170.168,86.9688 169.5,84.5C 168.817,84.8627 168.15,85.1961 167.5,85.5C 167.5,75.1667 167.5,64.8333 167.5,54.5C 168.329,61.6552 168.829,68.9885 169,76.5C 170.414,67.5822 170.914,58.5822 170.5,49.5 Z"/></g>
<g><path style="opacity:1" fill="#dfdedd" d="M 116.5,80.5 C 117.833,82.1667 119.167,83.8333 120.5,85.5C 120.082,86.2216 119.416,86.7216 118.5,87C 120.235,88.1819 121.235,89.8485 121.5,92C 120.616,93.098 119.616,93.598 118.5,93.5C 119.357,94.4252 120.357,95.0919 121.5,95.5C 120.789,97.8418 119.456,98.1751 117.5,96.5C 115.109,94.3852 113.776,91.7186 113.5,88.5C 114.752,85.8369 115.752,83.1702 116.5,80.5 Z"/></g>
<g><path style="opacity:1" fill="#8f6549" d="M 76.5,82.5 C 77.1667,82.5 77.8333,82.5 78.5,82.5C 79.8333,83.1667 81.1667,83.8333 82.5,84.5C 80.0722,86.0435 77.4056,87.0435 74.5,87.5C 69.0562,86.1164 63.3895,85.4497 57.5,85.5C 63.7745,84.8164 70.1078,83.8164 76.5,82.5 Z"/></g>
<g><path style="opacity:1" fill="#251e26" d="M 84.5,80.5 C 85.1667,81.1667 85.8333,81.8333 86.5,82.5C 86.4894,84.0174 85.8228,85.1841 84.5,86C 85.4158,86.2784 86.0825,86.7784 86.5,87.5C 85.9569,87.56 85.6236,87.8933 85.5,88.5C 88.7973,89.1424 89.1307,90.3091 86.5,92C 87.5,92.3333 88.5,92.6667 89.5,93C 87.5692,93.9022 85.9025,95.0688 84.5,96.5C 83.1667,95.1667 81.8333,95.1667 80.5,96.5C 80.631,95.7611 80.4643,95.0944 80,94.5C 78.0065,95.914 75.8398,96.914 73.5,97.5C 74.9142,95.9458 76.5808,94.6125 78.5,93.5C 77.9747,92.8076 77.3081,92.3076 76.5,92C 77.3567,91.3109 78.0233,90.4776 78.5,89.5C 76.2287,88.6365 73.8954,88.6365 71.5,89.5C 72.2905,88.5987 73.2905,87.9321 74.5,87.5C 77.4056,87.0435 80.0722,86.0435 82.5,84.5C 83.3446,83.3285 84.0113,81.9952 84.5,80.5 Z"/></g>
<g><path style="opacity:1" fill="#74655b" d="M 133.5,84.5 C 134.167,84.5 134.833,84.5 135.5,84.5C 139.182,84.3347 142.848,84.5014 146.5,85C 149.599,85.3874 152.266,86.5541 154.5,88.5C 154.5,88.8333 154.5,89.1667 154.5,89.5C 152.95,88.5592 151.284,87.8925 149.5,87.5C 144.579,85.5069 139.579,85.1736 134.5,86.5C 132.167,86.5 129.833,86.5 127.5,86.5C 129.374,85.7148 131.374,85.0482 133.5,84.5 Z"/></g>
<g><path style="opacity:1" fill="#a48a77" d="M 154.5,81.5 C 156.5,83.1667 158.5,84.8333 160.5,86.5C 162.085,87.0024 162.585,88.0024 162,89.5C 161.163,87.9926 159.996,87.4926 158.5,88C 160.954,89.7401 162.454,91.9067 163,94.5C 160.914,91.9061 158.414,89.9061 155.5,88.5C 155.5,87.8333 155.5,87.1667 155.5,86.5C 155.938,86.5654 156.272,86.3988 156.5,86C 155.619,85.2917 154.953,84.4584 154.5,83.5C 154.5,82.8333 154.5,82.1667 154.5,81.5 Z"/></g>
<g><path style="opacity:1" fill="#372a2d" d="M 122.5,84.5 C 123.82,85.9418 125.486,86.6085 127.5,86.5C 126.553,88.7578 127.553,89.9245 130.5,90C 129.167,90.6667 129.167,91.3333 130.5,92C 128.68,91.5241 127.013,91.6907 125.5,92.5C 123.011,91.2546 121.678,92.2546 121.5,95.5C 120.357,95.0919 119.357,94.4252 118.5,93.5C 119.616,93.598 120.616,93.098 121.5,92C 121.235,89.8485 120.235,88.1819 118.5,87C 119.416,86.7216 120.082,86.2216 120.5,85.5C 121.967,88.2583 122.633,87.925 122.5,84.5 Z"/></g>
<g><path style="opacity:1" fill="#080718" d="M 109.5,91.5 C 108.167,91.8333 106.833,92.1667 105.5,92.5C 104.833,93.8333 104.167,95.1667 103.5,96.5C 103.421,93.7294 103.921,91.0627 105,88.5C 106.353,84.5899 108.853,83.2565 112.5,84.5C 111.318,86.7614 109.651,88.5947 107.5,90C 108.416,90.2784 109.082,90.7784 109.5,91.5 Z"/></g>
<g><path style="opacity:1" fill="#e9dfce" d="M 149.5,87.5 C 148.761,87.369 148.094,87.5357 147.5,88C 150.375,88.8945 150.708,89.7278 148.5,90.5C 144.565,89.183 140.565,88.183 136.5,87.5C 135.508,87.6716 134.842,87.3382 134.5,86.5C 139.579,85.1736 144.579,85.5069 149.5,87.5 Z"/></g>
<g><path style="opacity:1" fill="#895439" d="M 51.5,79.5 C 50.8295,82.3377 49.4962,84.8377 47.5,87C 50.7101,86.2579 54.0434,85.7579 57.5,85.5C 56.5161,87.4799 55.1827,89.1466 53.5,90.5C 51.9557,90.7031 50.6223,91.3698 49.5,92.5C 48.707,91.6446 49.0403,90.8113 50.5,90C 49.1667,89.3333 47.8333,89.3333 46.5,90C 45.0735,92.0454 44.0735,94.2121 43.5,96.5C 43.6716,95.5084 43.3382,94.8417 42.5,94.5C 43.1098,93.609 43.4431,92.609 43.5,91.5C 45.2484,89.8401 45.7484,87.8401 45,85.5C 44,86.5 43,87.5 42,88.5C 41.8333,88.1667 41.6667,87.8333 41.5,87.5C 42.8569,85.8144 44.1902,84.1477 45.5,82.5C 47.5,81.5 49.5,80.5 51.5,79.5 Z"/></g>
<g><path style="opacity:1" fill="#d8975b" d="M 57.5,85.5 C 63.3895,85.4497 69.0562,86.1164 74.5,87.5C 73.2905,87.9321 72.2905,88.5987 71.5,89.5C 67.7233,89.9337 64.39,91.267 61.5,93.5C 58.2622,94.7375 55.2622,96.4042 52.5,98.5C 51.7784,98.0825 51.2784,97.4158 51,96.5C 49.6667,97.8333 48.3333,99.1667 47,100.5C 46.8333,100.167 46.6667,99.8333 46.5,99.5C 49.2394,96.7673 51.5727,93.7673 53.5,90.5C 55.1827,89.1466 56.5161,87.4799 57.5,85.5 Z"/></g>
<g><path style="opacity:1" fill="#b5b4b5" d="M 89.5,83.5 C 90.3891,85.736 91.7224,87.736 93.5,89.5C 96.1536,90.9681 98.487,92.6348 100.5,94.5C 100.5,95.1667 100.5,95.8333 100.5,96.5C 95.5683,95.5664 90.5683,95.5664 85.5,96.5C 85.1667,96.5 84.8333,96.5 84.5,96.5C 85.9025,95.0688 87.5692,93.9022 89.5,93C 88.5,92.6667 87.5,92.3333 86.5,92C 89.1307,90.3091 88.7973,89.1424 85.5,88.5C 85.6236,87.8933 85.9569,87.56 86.5,87.5C 87.5,86.1667 88.5,84.8333 89.5,83.5 Z"/></g>
<g><path style="opacity:1" fill="#aeadaf" d="M 113.5,88.5 C 113.776,91.7186 115.109,94.3852 117.5,96.5C 117.217,97.2891 116.717,97.9558 116,98.5C 113.959,97.5769 111.792,97.2436 109.5,97.5C 108.167,97.5 106.833,97.5 105.5,97.5C 105.5,95.8333 105.5,94.1667 105.5,92.5C 106.833,92.1667 108.167,91.8333 109.5,91.5C 110.833,90.5 112.167,89.5 113.5,88.5 Z"/></g>
<g><path style="opacity:1" fill="#ebb270" d="M 136.5,87.5 C 140.565,88.183 144.565,89.183 148.5,90.5C 150.708,89.7278 150.375,88.8945 147.5,88C 148.094,87.5357 148.761,87.369 149.5,87.5C 151.284,87.8925 152.95,88.5592 154.5,89.5C 156.914,90.9108 158.581,92.9108 159.5,95.5C 160.219,97.7638 160.552,100.097 160.5,102.5C 160.167,102.5 159.833,102.5 159.5,102.5C 159.001,99.6108 157.501,98.9442 155,100.5C 153.89,98.9632 152.39,98.2965 150.5,98.5C 145.277,94.721 139.61,91.721 133.5,89.5C 134.5,88.8333 135.5,88.1667 136.5,87.5 Z"/></g>
<g><path style="opacity:1" fill="#5d3d2c" d="M 133.5,89.5 C 139.61,91.721 145.277,94.721 150.5,98.5C 151.463,99.3635 151.463,100.03 150.5,100.5C 148.113,98.3107 145.447,96.6441 142.5,95.5C 139.912,93.3754 136.912,92.0421 133.5,91.5C 132.494,90.6043 132.494,89.9377 133.5,89.5 Z"/></g>
<g><path style="opacity:1" fill="#9a633f" d="M 127.5,86.5 C 129.833,86.5 132.167,86.5 134.5,86.5C 134.842,87.3382 135.508,87.6716 136.5,87.5C 135.5,88.1667 134.5,88.8333 133.5,89.5C 132.494,89.9377 132.494,90.6043 133.5,91.5C 132.761,91.369 132.094,91.5357 131.5,92C 133.37,94.0396 135.37,95.8729 137.5,97.5C 138.625,99.1288 139.959,100.629 141.5,102C 141.272,102.399 140.938,102.565 140.5,102.5C 138.251,101.92 136.585,100.587 135.5,98.5C 133.914,95.139 131.581,93.8056 128.5,94.5C 127.5,93.8333 126.5,93.1667 125.5,92.5C 127.013,91.6907 128.68,91.5241 130.5,92C 129.167,91.3333 129.167,90.6667 130.5,90C 127.553,89.9245 126.553,88.7578 127.5,86.5 Z"/></g>
<g><path style="opacity:1" fill="#f0daa8" d="M 171.5,91.5 C 171.5,100.167 171.5,108.833 171.5,117.5C 170.808,109.798 169.808,102.132 168.5,94.5C 168.5,93.8333 168.167,93.5 167.5,93.5C 167.5,92.8333 167.5,92.1667 167.5,91.5C 167.5,89.5 167.5,87.5 167.5,85.5C 168.15,85.1961 168.817,84.8627 169.5,84.5C 170.168,86.9688 170.835,89.3021 171.5,91.5 Z"/></g>
<g><path style="opacity:1" fill="#ecb06c" d="M 133.5,91.5 C 136.912,92.0421 139.912,93.3754 142.5,95.5C 140.989,96.5025 139.322,97.1692 137.5,97.5C 135.37,95.8729 133.37,94.0396 131.5,92C 132.094,91.5357 132.761,91.369 133.5,91.5 Z"/></g>
<g><path style="opacity:1" fill="#4a4a55" d="M 17.5,94.5 C 18.9755,95.262 20.3088,95.5953 21.5,95.5C 20.3047,96.9675 20.3047,98.4675 21.5,100C 19.825,103.209 18.1584,103.043 16.5,99.5C 16.9767,98.5224 17.6433,97.6891 18.5,97C 17.7476,96.3292 17.4142,95.4959 17.5,94.5 Z"/></g>
<g><path style="opacity:1" fill="#c27f4d" d="M 124.5,95.5 C 124.5,95.1667 124.5,94.8333 124.5,94.5C 126.153,94.6596 127.486,95.3263 128.5,96.5C 127.041,96.5674 125.708,96.2341 124.5,95.5 Z"/></g>
<g><path style="opacity:1" fill="#dea767" d="M 128.5,94.5 C 131.581,93.8056 133.914,95.139 135.5,98.5C 133.031,97.4314 130.698,96.0981 128.5,94.5 Z"/></g>
<g><path style="opacity:1" fill="#c17f4d" d="M 73.5,97.5 C 71.1582,97.2252 71.1582,96.3919 73.5,95C 73.1667,94.8333 72.8333,94.6667 72.5,94.5C 69.7673,97.2394 66.7673,99.5727 63.5,101.5C 62.8826,101.389 62.3826,101.056 62,100.5C 59.1392,104.723 57.6392,104.39 57.5,99.5C 56.448,99.6495 55.448,99.4828 54.5,99C 57.02,97.3029 59.3533,95.4695 61.5,93.5C 64.39,91.267 67.7233,89.9337 71.5,89.5C 73.8954,88.6365 76.2287,88.6365 78.5,89.5C 78.0233,90.4776 77.3567,91.3109 76.5,92C 77.3081,92.3076 77.9747,92.8076 78.5,93.5C 76.5808,94.6125 74.9142,95.9458 73.5,97.5 Z"/></g>
<g><path style="opacity:1" fill="#7e7d81" d="M 105.5,92.5 C 105.5,94.1667 105.5,95.8333 105.5,97.5C 106.833,97.5 108.167,97.5 109.5,97.5C 103.122,98.1893 96.622,98.5227 90,98.5C 88.2725,98.101 86.7725,97.4343 85.5,96.5C 90.5683,95.5664 95.5683,95.5664 100.5,96.5C 101.5,96.5 102.5,96.5 103.5,96.5C 104.167,95.1667 104.833,93.8333 105.5,92.5 Z"/></g>
<g><path style="opacity:1" fill="#795e45" d="M 167.5,93.5 C 168.167,93.5 168.5,93.8333 168.5,94.5C 167.366,97.3704 166.7,100.37 166.5,103.5C 165.766,102.122 165.099,100.622 164.5,99C 166.148,97.5381 167.148,95.7047 167.5,93.5 Z"/></g>
<g><path style="opacity:1" fill="#0e0c19" d="M 125.5,92.5 C 125.167,93.1667 124.833,93.8333 124.5,94.5C 124.5,94.8333 124.5,95.1667 124.5,95.5C 123.178,97.8021 123.178,100.135 124.5,102.5C 123.083,102.859 121.75,104.025 120.5,106C 121.317,114.088 121.817,122.255 122,130.5C 122.69,129.262 123.19,129.262 123.5,130.5C 120.587,135.929 117.42,141.263 114,146.5C 112.195,148.826 110.028,150.492 107.5,151.5C 100.445,152.889 94.6121,150.889 90,145.5C 87.6667,142.5 85.3333,139.5 83,136.5C 82.8598,134.479 82.6932,132.645 82.5,131C 83.3081,130.692 83.9747,130.192 84.5,129.5C 83.8728,128.583 83.5394,127.583 83.5,126.5C 83.6663,119.492 83.4996,112.492 83,105.5C 82.6667,105.833 82.3333,106.167 82,106.5C 81.2086,105.255 80.7086,103.922 80.5,102.5C 82.8519,101.457 83.0185,100.124 81,98.5C 79.9609,99.7101 78.7942,100.71 77.5,101.5C 78.075,99.5887 79.075,97.922 80.5,96.5C 81.8333,95.1667 83.1667,95.1667 84.5,96.5C 84.8333,96.5 85.1667,96.5 85.5,96.5C 86.7725,97.4343 88.2725,98.101 90,98.5C 96.622,98.5227 103.122,98.1893 109.5,97.5C 111.792,97.2436 113.959,97.5769 116,98.5C 116.717,97.9558 117.217,97.2891 117.5,96.5C 119.456,98.1751 120.789,97.8418 121.5,95.5C 121.678,92.2546 123.011,91.2546 125.5,92.5 Z"/></g>
<g><path style="opacity:1" fill="#e8e8e8" d="M 109.5,99.5 C 111.144,99.2865 112.644,99.6198 114,100.5C 114.667,103.5 114.667,106.5 114,109.5C 113.692,110.308 113.192,110.975 112.5,111.5C 111.244,107.553 110.244,103.553 109.5,99.5 Z"/></g>
<g><path style="opacity:1" fill="#e9e8e7" d="M 91.5,99.5 C 92.8333,99.5 94.1667,99.5 95.5,99.5C 94.5052,103.488 93.5052,107.488 92.5,111.5C 90.3484,107.628 90.0151,103.628 91.5,99.5 Z"/></g>
<g><path style="opacity:1" fill="#62382a" d="M 125.5,92.5 C 126.5,93.1667 127.5,93.8333 128.5,94.5C 130.698,96.0981 133.031,97.4314 135.5,98.5C 136.585,100.587 138.251,101.92 140.5,102.5C 140.833,103.167 141.167,103.833 141.5,104.5C 140.357,104.207 139.023,104.207 137.5,104.5C 134.984,103.274 132.651,101.774 130.5,100C 128.934,99.235 127.601,99.4017 126.5,100.5C 123.747,97.5957 124.414,96.929 128.5,98.5C 129.463,98.0302 129.463,97.3635 128.5,96.5C 127.486,95.3263 126.153,94.6596 124.5,94.5C 124.833,93.8333 125.167,93.1667 125.5,92.5 Z"/></g>
<g><path style="opacity:1" fill="#a09fa3" d="M 97.5,99.5 C 101.153,100.58 104.82,100.747 108.5,100C 105.986,102.376 102.986,103.043 99.5,102C 98.244,101.583 97.5774,100.75 97.5,99.5 Z"/></g>
<g><path style="opacity:1" fill="#ac7234" d="M 30.5,82.5 C 30.8333,82.5 31.1667,82.5 31.5,82.5C 32.1507,95.0042 32.1507,106.504 31.5,117C 32.1083,119.553 32.775,122.053 33.5,124.5C 32.5041,124.586 31.6708,124.252 31,123.5C 30.5001,109.837 30.3334,96.1707 30.5,82.5 Z"/></g>
<g><path style="opacity:1" fill="#c07e4c" d="M 53.5,90.5 C 51.5727,93.7673 49.2394,96.7673 46.5,99.5C 46.6667,99.8333 46.8333,100.167 47,100.5C 48.3333,99.1667 49.6667,97.8333 51,96.5C 51.2784,97.4158 51.7784,98.0825 52.5,98.5C 52.0472,99.4584 51.3805,100.292 50.5,101C 51.1667,101.333 51.8333,101.667 52.5,102C 50.1568,103.808 49.4901,105.974 50.5,108.5C 51.086,108.291 51.586,107.957 52,107.5C 52.6667,110.167 52.6667,112.833 52,115.5C 51.6174,114.944 51.1174,114.611 50.5,114.5C 50.2882,112.616 49.2882,111.283 47.5,110.5C 46.8324,113.306 46.1657,115.972 45.5,118.5C 45.5,118.167 45.5,117.833 45.5,117.5C 44.8644,112.153 44.031,106.82 43,101.5C 41.872,103.345 41.372,105.345 41.5,107.5C 40.5262,112.979 40.3595,110.979 41,101.5C 41.8466,99.8068 42.6799,98.1401 43.5,96.5C 44.0735,94.2121 45.0735,92.0454 46.5,90C 47.8333,89.3333 49.1667,89.3333 50.5,90C 49.0403,90.8113 48.707,91.6446 49.5,92.5C 50.6223,91.3698 51.9557,90.7031 53.5,90.5 Z"/></g>
<g><path style="opacity:1" fill="#7d4731" d="M 73.5,97.5 C 75.8398,96.914 78.0065,95.914 80,94.5C 80.4643,95.0944 80.631,95.7611 80.5,96.5C 79.075,97.922 78.075,99.5887 77.5,101.5C 75.5541,102.254 74.7207,103.588 75,105.5C 78.3882,101.296 79.0549,101.629 77,106.5C 73.9465,109.887 71.2798,113.553 69,117.5C 67.3907,115.732 65.8907,113.399 64.5,110.5C 65.6138,109.115 66.6138,107.615 67.5,106C 67.1667,105.833 66.8333,105.667 66.5,105.5C 64.5986,107.006 62.9319,108.673 61.5,110.5C 60.8359,109.352 60.6692,108.019 61,106.5C 60.2825,107.451 59.4491,107.617 58.5,107C 60.3734,105.296 62.0401,103.463 63.5,101.5C 66.7673,99.5727 69.7673,97.2394 72.5,94.5C 72.8333,94.6667 73.1667,94.8333 73.5,95C 71.1582,96.3919 71.1582,97.2252 73.5,97.5 Z"/></g>
<g><path style="opacity:1" fill="#e1b76b" d="M 30.5,82.5 C 30.3334,96.1707 30.5001,109.837 31,123.5C 31.6708,124.252 32.5041,124.586 33.5,124.5C 35.1288,123.375 36.6288,122.041 38,120.5C 38.21,122.058 38.71,123.391 39.5,124.5C 39.5,124.833 39.5,125.167 39.5,125.5C 36.5361,127.962 33.7028,130.629 31,133.5C 30.79,131.942 30.29,130.609 29.5,129.5C 29.573,127.973 28.9063,126.973 27.5,126.5C 27.3334,102.831 27.5,79.1643 28,55.5C 28.7083,54.6195 29.5416,53.9528 30.5,53.5C 32.8816,52.6493 34.8816,51.316 36.5,49.5C 38.2259,49.1854 39.8925,49.0187 41.5,49C 38.8443,53.4997 35.1776,56.6663 30.5,58.5C 30.5,66.5 30.5,74.5 30.5,82.5 Z"/></g>
<g><path style="opacity:1" fill="#432d2d" d="M 124.5,95.5 C 125.708,96.2341 127.041,96.5674 128.5,96.5C 129.463,97.3635 129.463,98.0302 128.5,98.5C 124.414,96.929 123.747,97.5957 126.5,100.5C 127.8,101.601 128.3,102.934 128,104.5C 126.608,102.158 125.775,102.158 125.5,104.5C 126.427,110.811 126.594,117.144 126,123.5C 125.147,125.125 124.147,125.458 123,124.5C 122.333,125.833 122.333,127.167 123,128.5C 123.889,127.112 124.389,127.278 124.5,129C 124.43,129.765 124.097,130.265 123.5,130.5C 123.19,129.262 122.69,129.262 122,130.5C 121.817,122.255 121.317,114.088 120.5,106C 121.75,104.025 123.083,102.859 124.5,102.5C 123.178,100.135 123.178,97.8021 124.5,95.5 Z"/></g>
<g><path style="opacity:1" fill="#9c5e3b" d="M 141.5,104.5 C 145.961,108.465 146.628,107.632 143.5,102C 147.183,100.863 150.349,102.03 153,105.5C 153.667,106.167 153.667,106.833 153,107.5C 151.989,106.663 150.822,106.33 149.5,106.5C 149.533,110.92 149.367,115.254 149,119.5C 150.039,118.29 151.206,117.29 152.5,116.5C 151.946,120.5 150.613,124.166 148.5,127.5C 146.885,130.45 144.885,133.116 142.5,135.5C 141.662,135.158 141.328,134.492 141.5,133.5C 142.601,128.832 143.768,124.165 145,119.5C 144.875,125.909 146.042,126.576 148.5,121.5C 148.041,117.824 147.708,114.158 147.5,110.5C 146.833,110.833 146.167,111.167 145.5,111.5C 144.418,109.216 142.752,108.05 140.5,108C 141.617,111.073 141.784,114.24 141,117.5C 140.946,114.139 139.946,111.139 138,108.5C 137.74,111.577 138.24,114.577 139.5,117.5C 138.628,121.333 137.628,124.999 136.5,128.5C 135.564,124.265 135.231,119.931 135.5,115.5C 133.297,115.935 131.297,115.935 129.5,115.5C 129.722,111.158 128.389,107.491 125.5,104.5C 125.775,102.158 126.608,102.158 128,104.5C 128.3,102.934 127.8,101.601 126.5,100.5C 127.601,99.4017 128.934,99.235 130.5,100C 132.651,101.774 134.984,103.274 137.5,104.5C 139.023,104.207 140.357,104.207 141.5,104.5 Z"/></g>
<g><path style="opacity:1" fill="#d59256" d="M 142.5,95.5 C 145.447,96.6441 148.113,98.3107 150.5,100.5C 151.463,100.03 151.463,99.3635 150.5,98.5C 152.39,98.2965 153.89,98.9632 155,100.5C 157.501,98.9442 159.001,99.6108 159.5,102.5C 159.665,108.319 159.331,114.319 158.5,120.5C 156.661,125.511 154.328,130.178 151.5,134.5C 152.901,131.296 153.901,127.963 154.5,124.5C 156.835,117.795 157.668,110.795 157,103.5C 156.258,109.211 155.258,114.878 154,120.5C 153.921,118.264 153.421,116.93 152.5,116.5C 151.206,117.29 150.039,118.29 149,119.5C 149.367,115.254 149.533,110.92 149.5,106.5C 150.822,106.33 151.989,106.663 153,107.5C 153.667,106.833 153.667,106.167 153,105.5C 150.349,102.03 147.183,100.863 143.5,102C 146.628,107.632 145.961,108.465 141.5,104.5C 141.167,103.833 140.833,103.167 140.5,102.5C 140.938,102.565 141.272,102.399 141.5,102C 139.959,100.629 138.625,99.1288 137.5,97.5C 139.322,97.1692 140.989,96.5025 142.5,95.5 Z"/></g>
<g><path style="opacity:1" fill="#b1977e" d="M 159.5,95.5 C 162.659,98.4856 164.159,102.152 164,106.5C 163.444,104.405 162.944,104.238 162.5,106C 163.716,108.653 163.716,111.153 162.5,113.5C 161.537,109.899 160.87,106.233 160.5,102.5C 160.552,100.097 160.219,97.7638 159.5,95.5 Z"/></g>
<g><path style="opacity:1" fill="#362120" d="M 159.5,102.5 C 159.833,102.5 160.167,102.5 160.5,102.5C 160.87,106.233 161.537,109.899 162.5,113.5C 161.732,112.737 161.232,111.737 161,110.5C 160.851,114.133 160.018,117.466 158.5,120.5C 159.331,114.319 159.665,108.319 159.5,102.5 Z"/></g>
<g><path style="opacity:1" fill="#453132" d="M 80.5,102.5 C 80.7086,103.922 81.2086,105.255 82,106.5C 82.3333,106.167 82.6667,105.833 83,105.5C 83.4996,112.492 83.6663,119.492 83.5,126.5C 81.7673,125.992 81.434,125.159 82.5,124C 80.4144,123.685 78.4144,123.185 76.5,122.5C 76.5961,115.47 77.9295,108.804 80.5,102.5 Z"/></g>
<g><path style="opacity:1" fill="#643327" d="M 111.5,117.5 C 109.007,116.226 106.341,115.56 103.5,115.5C 103.854,117.767 103.521,119.101 102.5,119.5C 102.5,118.167 102.5,116.833 102.5,115.5C 96.4598,115.654 93.4598,118.654 93.5,124.5C 93.3284,125.492 93.6618,126.158 94.5,126.5C 94.7329,128.062 95.3995,129.395 96.5,130.5C 95.8333,130.833 95.1667,131.167 94.5,131.5C 88.1864,117.662 92.5197,111.495 107.5,113C 109.751,113.748 111.084,115.248 111.5,117.5 Z"/></g>
<g><path style="opacity:1" fill="#9b5e3b" d="M 61.5,93.5 C 59.3533,95.4695 57.02,97.3029 54.5,99C 55.448,99.4828 56.448,99.6495 57.5,99.5C 57.6392,104.39 59.1392,104.723 62,100.5C 62.3826,101.056 62.8826,101.389 63.5,101.5C 62.0401,103.463 60.3734,105.296 58.5,107C 59.4491,107.617 60.2825,107.451 61,106.5C 60.6692,108.019 60.8359,109.352 61.5,110.5C 61.2101,116.324 61.8768,121.991 63.5,127.5C 62.8761,127.917 62.5427,128.584 62.5,129.5C 63.3621,131.51 63.8621,133.51 64,135.5C 61.2166,132.553 59.0499,129.22 57.5,125.5C 59.7578,124.553 60.9245,125.553 61,128.5C 61.3283,125.793 60.995,123.126 60,120.5C 59.6924,121.308 59.1924,121.975 58.5,122.5C 57.5159,119.572 57.1826,116.572 57.5,113.5C 56.5,113.5 55.5,113.5 54.5,113.5C 54.3107,117.037 54.9774,120.37 56.5,123.5C 55.5595,126.125 54.3928,126.125 53,123.5C 51.8502,120.582 51.0169,117.582 50.5,114.5C 51.1174,114.611 51.6174,114.944 52,115.5C 52.6667,112.833 52.6667,110.167 52,107.5C 51.586,107.957 51.086,108.291 50.5,108.5C 49.4901,105.974 50.1568,103.808 52.5,102C 51.8333,101.667 51.1667,101.333 50.5,101C 51.3805,100.292 52.0472,99.4584 52.5,98.5C 55.2622,96.4042 58.2622,94.7375 61.5,93.5 Z"/></g>
<g><path style="opacity:1" fill="#553a2e" d="M 45.5,117.5 C 44.71,118.609 44.21,119.942 44,121.5C 43.0168,116.728 42.1834,112.062 41.5,107.5C 41.372,105.345 41.872,103.345 43,101.5C 44.031,106.82 44.8644,112.153 45.5,117.5 Z"/></g>
<g><path style="opacity:1" fill="#de9a59" d="M 57.5,125.5 C 57.1667,124.833 56.8333,124.167 56.5,123.5C 54.9774,120.37 54.3107,117.037 54.5,113.5C 55.5,113.5 56.5,113.5 57.5,113.5C 57.1826,116.572 57.5159,119.572 58.5,122.5C 59.1924,121.975 59.6924,121.308 60,120.5C 60.995,123.126 61.3283,125.793 61,128.5C 60.9245,125.553 59.7578,124.553 57.5,125.5 Z"/></g>
<g><path style="opacity:1" fill="#bf703a" d="M 111.5,117.5 C 112.94,118.946 113.607,120.779 113.5,123C 113.486,124.385 113.152,125.551 112.5,126.5C 112.703,124.61 112.037,123.11 110.5,122C 108.567,121.749 106.734,121.249 105,120.5C 104.167,122.5 103.333,124.5 102.5,126.5C 101.813,124.726 100.98,123.059 100,121.5C 98.9243,124.079 97.091,125.746 94.5,126.5C 93.6618,126.158 93.3284,125.492 93.5,124.5C 94.1174,124.611 94.6174,124.944 95,125.5C 96.5034,122.06 99.0034,120.06 102.5,119.5C 103.521,119.101 103.854,117.767 103.5,115.5C 106.341,115.56 109.007,116.226 111.5,117.5 Z"/></g>
<g><path style="opacity:1" fill="#594b44" d="M 164.5,117.5 C 163.549,118.919 163.216,120.585 163.5,122.5C 163.5,123.167 163.167,123.5 162.5,123.5C 162.192,121.076 162.526,118.743 163.5,116.5C 164.107,116.624 164.44,116.957 164.5,117.5 Z"/></g>
<g><path style="opacity:1" fill="#b75c2f" d="M 102.5,119.5 C 99.0034,120.06 96.5034,122.06 95,125.5C 94.6174,124.944 94.1174,124.611 93.5,124.5C 93.4598,118.654 96.4598,115.654 102.5,115.5C 102.5,116.833 102.5,118.167 102.5,119.5 Z"/></g>
<g><path style="opacity:1" fill="#6c3b2c" d="M 80.5,102.5 C 77.9295,108.804 76.5961,115.47 76.5,122.5C 74.974,120.55 73.974,118.217 73.5,115.5C 71.9552,120.692 73.6219,124.525 78.5,127C 78.1667,127.333 77.8333,127.667 77.5,128C 78.448,128.483 79.448,128.649 80.5,128.5C 80.8146,130.226 80.9813,131.893 81,133.5C 79.6132,131.699 78.1132,131.032 76.5,131.5C 78.1397,134.468 80.1397,137.135 82.5,139.5C 81.5313,140.309 80.6979,141.309 80,142.5C 78.2845,139.603 75.7845,138.269 72.5,138.5C 68.3689,133.298 65.8689,127.298 65,120.5C 64.6667,121.167 64.3333,121.833 64,122.5C 63.3933,118.463 63.56,114.463 64.5,110.5C 65.8907,113.399 67.3907,115.732 69,117.5C 71.2798,113.553 73.9465,109.887 77,106.5C 79.0549,101.629 78.3882,101.296 75,105.5C 74.7207,103.588 75.5541,102.254 77.5,101.5C 78.7942,100.71 79.9609,99.7101 81,98.5C 83.0185,100.124 82.8519,101.457 80.5,102.5 Z"/></g>
<g><path style="opacity:1" fill="#62626a" d="M 118.5,114.5 C 118.702,116.95 118.369,119.283 117.5,121.5C 116.252,120.666 115.585,119.333 115.5,117.5C 115.833,116.167 116.167,114.833 116.5,113.5C 117.183,113.863 117.85,114.196 118.5,114.5 Z"/></g>
<g><path style="opacity:1" fill="#e9c887" d="M 168.5,94.5 C 169.808,102.132 170.808,109.798 171.5,117.5C 171.823,124.022 171.49,130.355 170.5,136.5C 170.5,136.167 170.5,135.833 170.5,135.5C 169.918,134.069 169.085,132.736 168,131.5C 167.501,125.509 167.334,119.509 167.5,113.5C 167.658,110.098 167.324,106.764 166.5,103.5C 166.7,100.37 167.366,97.3704 168.5,94.5 Z"/></g>
<g><path style="opacity:1" fill="#bc7847" d="M 141.5,133.5 C 140.542,133.953 139.708,134.619 139,135.5C 138.833,135 138.667,134.5 138.5,134C 140.395,128.925 141.562,123.758 142,118.5C 139.805,125.282 137.305,131.949 134.5,138.5C 133.599,139.29 132.932,140.29 132.5,141.5C 130.246,142.415 128.246,143.748 126.5,145.5C 126.062,145.565 125.728,145.399 125.5,145C 131.449,140.909 135.116,135.409 136.5,128.5C 137.628,124.999 138.628,121.333 139.5,117.5C 138.24,114.577 137.74,111.577 138,108.5C 139.946,111.139 140.946,114.139 141,117.5C 141.784,114.24 141.617,111.073 140.5,108C 142.752,108.05 144.418,109.216 145.5,111.5C 146.167,111.167 146.833,110.833 147.5,110.5C 147.708,114.158 148.041,117.824 148.5,121.5C 146.042,126.576 144.875,125.909 145,119.5C 143.768,124.165 142.601,128.832 141.5,133.5 Z"/></g>
<g><path style="opacity:1" fill="#57575f" d="M 86.5,114.5 C 86.8966,113.475 87.5632,113.308 88.5,114C 90.892,117.329 90.892,120.496 88.5,123.5C 87.8333,120.5 87.1667,117.5 86.5,114.5 Z"/></g>
<g><path style="opacity:1" fill="#6c3929" d="M 50.5,114.5 C 51.0169,117.582 51.8502,120.582 53,123.5C 54.3928,126.125 55.5595,126.125 56.5,123.5C 56.8333,124.167 57.1667,124.833 57.5,125.5C 56.4265,126.251 56.2599,127.251 57,128.5C 59.3145,132.638 62.1479,136.305 65.5,139.5C 66.5294,141.517 67.5294,143.517 68.5,145.5C 59.5135,137.909 52.6802,128.576 48,117.5C 47.9153,120.361 48.7486,123.028 50.5,125.5C 49.675,126.386 48.675,126.719 47.5,126.5C 46.8333,123.833 46.1667,121.167 45.5,118.5C 46.1657,115.972 46.8324,113.306 47.5,110.5C 49.2882,111.283 50.2882,112.616 50.5,114.5 Z"/></g>
<g><path style="opacity:1" fill="#f0d38c" d="M 164.5,117.5 C 164.5,118.167 164.833,118.5 165.5,118.5C 166.39,120.782 166.556,123.115 166,125.5C 165.148,124.429 164.315,123.429 163.5,122.5C 163.216,120.585 163.549,118.919 164.5,117.5 Z"/></g>
<g><path style="opacity:1" fill="#c47f4b" d="M 64.5,110.5 C 63.56,114.463 63.3933,118.463 64,122.5C 64.3333,121.833 64.6667,121.167 65,120.5C 65.8689,127.298 68.3689,133.298 72.5,138.5C 72.6716,139.492 72.3382,140.158 71.5,140.5C 67.9667,136.648 65.3,132.314 63.5,127.5C 61.8768,121.991 61.2101,116.324 61.5,110.5C 62.9319,108.673 64.5986,107.006 66.5,105.5C 66.8333,105.667 67.1667,105.833 67.5,106C 66.6138,107.615 65.6138,109.115 64.5,110.5 Z"/></g>
<g><path style="opacity:1" fill="#f1b561" d="M 112.5,126.5 C 112.834,129.491 111.834,131.824 109.5,133.5C 109.053,131.027 108.053,130.86 106.5,133C 102.579,134.139 99.2456,133.305 96.5,130.5C 95.3995,129.395 94.7329,128.062 94.5,126.5C 97.091,125.746 98.9243,124.079 100,121.5C 100.98,123.059 101.813,124.726 102.5,126.5C 103.333,124.5 104.167,122.5 105,120.5C 106.734,121.249 108.567,121.749 110.5,122C 112.037,123.11 112.703,124.61 112.5,126.5 Z"/></g>
<g><path style="opacity:1" fill="#b3b1b2" d="M 86.5,114.5 C 87.1667,117.5 87.8333,120.5 88.5,123.5C 88.5,124.5 88.5,125.5 88.5,126.5C 88.6621,128.527 88.4955,130.527 88,132.5C 87.8019,130.618 87.3019,128.952 86.5,127.5C 86.5,123.167 86.5,118.833 86.5,114.5 Z"/></g>
<g><path style="opacity:1" fill="#7a432e" d="M 154.5,124.5 C 151.989,127.988 149.156,131.988 146,136.5C 146.277,133.597 147.444,130.93 149.5,128.5C 149.376,127.893 149.043,127.56 148.5,127.5C 150.613,124.166 151.946,120.5 152.5,116.5C 153.421,116.93 153.921,118.264 154,120.5C 155.258,114.878 156.258,109.211 157,103.5C 157.668,110.795 156.835,117.795 154.5,124.5 Z"/></g>
<g><path style="opacity:1" fill="#ba7e39" d="M 167.5,113.5 C 167.334,119.509 167.501,125.509 168,131.5C 169.085,132.736 169.918,134.069 170.5,135.5C 169.833,135.5 169.167,135.5 168.5,135.5C 167.749,134.427 166.749,134.26 165.5,135C 162.14,137.546 158.474,139.379 154.5,140.5C 154.737,139.209 154.404,138.209 153.5,137.5C 153.892,135.821 154.392,134.154 155,132.5C 156.016,131.366 156.683,131.699 157,133.5C 158,130.5 159,127.5 160,124.5C 161.516,127.051 162.349,126.718 162.5,123.5C 163.167,123.5 163.5,123.167 163.5,122.5C 164.315,123.429 165.148,124.429 166,125.5C 166.556,123.115 166.39,120.782 165.5,118.5C 165.338,116.473 165.505,114.473 166,112.5C 166.383,113.056 166.883,113.389 167.5,113.5 Z"/></g>
<g><path style="opacity:1" fill="#150f1a" d="M 42.5,94.5 C 43.3382,94.8417 43.6716,95.5084 43.5,96.5C 42.6799,98.1401 41.8466,99.8068 41,101.5C 40.3595,110.979 40.5262,112.979 41.5,107.5C 42.1834,112.062 43.0168,116.728 44,121.5C 44.21,119.942 44.71,118.609 45.5,117.5C 45.5,117.833 45.5,118.167 45.5,118.5C 46.1667,121.167 46.8333,123.833 47.5,126.5C 47.7086,127.922 48.2086,129.255 49,130.5C 49.3333,129.833 49.6667,129.167 50,128.5C 51.852,131.711 53.5186,135.044 55,138.5C 56,137.5 57,136.5 58,135.5C 60.2567,139.012 62.7567,142.346 65.5,145.5C 67.4114,146.736 68.4114,146.736 68.5,145.5C 67.5294,143.517 66.5294,141.517 65.5,139.5C 65.4346,139.062 65.6012,138.728 66,138.5C 67.6837,140.351 69.5171,142.018 71.5,143.5C 72.1067,143.376 72.44,143.043 72.5,142.5C 75.5355,143.956 76.8688,146.123 76.5,149C 80.653,152.575 84.9863,155.909 89.5,159C 90.1667,159.667 90.8333,159.667 91.5,159C 90.5,158 89.5,157 88.5,156C 91.6064,157.065 94.273,159.065 96.5,162C 96.2716,162.399 95.9382,162.565 95.5,162.5C 93.079,162.122 90.7457,161.455 88.5,160.5C 83.978,158.168 79.8113,155.168 76,151.5C 75.6924,152.308 75.1924,152.975 74.5,153.5C 72.8067,151.973 70.9734,150.64 69,149.5C 68.7679,150.737 68.2679,151.737 67.5,152.5C 65.9128,149.732 64.0795,147.065 62,144.5C 62.0519,146.911 62.3853,149.244 63,151.5C 60.7519,148.672 58.7519,145.672 57,142.5C 56.6667,143.5 56.3333,144.5 56,145.5C 53.3895,139.924 50.0562,134.924 46,130.5C 45.6667,131.5 45.3333,132.5 45,133.5C 44,130.167 43,126.833 42,123.5C 41.7679,124.737 41.2679,125.737 40.5,126.5C 40.5,125.833 40.1667,125.5 39.5,125.5C 39.5,125.167 39.5,124.833 39.5,124.5C 39.1185,119.379 38.1185,114.379 36.5,109.5C 37.1347,103.905 39.1347,98.9052 42.5,94.5 Z"/></g>
<g><path style="opacity:1" fill="#7f462f" d="M 129.5,115.5 C 131.297,115.935 133.297,115.935 135.5,115.5C 135.231,119.931 135.564,124.265 136.5,128.5C 135.116,135.409 131.449,140.909 125.5,145C 125.728,145.399 126.062,145.565 126.5,145.5C 124.544,147.114 122.544,148.781 120.5,150.5C 120.436,149.635 120.103,148.635 119.5,147.5C 121.316,145.183 123.316,143.016 125.5,141C 124.551,140.383 123.718,140.549 123,141.5C 122.333,140.167 122.333,138.833 123,137.5C 125.597,135.182 128.097,132.682 130.5,130C 129.5,129.667 128.5,129.333 127.5,129C 130.026,125.974 132.36,122.807 134.5,119.5C 134.333,119.167 134.167,118.833 134,118.5C 132.426,119.984 131.093,121.651 130,123.5C 129.503,120.854 129.336,118.187 129.5,115.5 Z"/></g>
<g><path style="opacity:1" fill="#e9c57a" d="M 40.5,126.5 C 41.1408,127.482 41.8075,128.482 42.5,129.5C 41.5721,130.768 41.4054,132.101 42,133.5C 42.6543,132.304 43.1543,132.304 43.5,133.5C 41.78,136.202 40.1134,138.868 38.5,141.5C 36.4862,141.608 34.8195,140.942 33.5,139.5C 33.9954,137.518 34.4954,135.518 35,133.5C 37.4889,131.531 39.3222,129.198 40.5,126.5 Z"/></g>
<g><path style="opacity:1" fill="#efefee" d="M 91.5,131.5 C 92.8466,134.193 94.1799,136.86 95.5,139.5C 94.7494,140.573 93.7494,140.74 92.5,140C 91.536,138.275 90.8693,136.441 90.5,134.5C 90.2627,133.209 90.596,132.209 91.5,131.5 Z"/></g>
<g><path style="opacity:1" fill="#eeedec" d="M 113.5,131.5 C 114.643,134.068 114.476,136.735 113,139.5C 111.244,140.985 110.077,140.652 109.5,138.5C 110.833,136.167 112.167,133.833 113.5,131.5 Z"/></g>
<g><path style="opacity:1" fill="#a1542f" d="M 96.5,130.5 C 99.2456,133.305 102.579,134.139 106.5,133C 108.053,130.86 109.053,131.027 109.5,133.5C 105.607,136.744 101.273,137.244 96.5,135C 95.695,133.887 95.0283,132.721 94.5,131.5C 95.1667,131.167 95.8333,130.833 96.5,130.5 Z"/></g>
<g><path style="opacity:1" fill="#a8a7a8" d="M 118.5,114.5 C 119.152,115.449 119.486,116.615 119.5,118C 118.88,122.82 118.38,127.653 118,132.5C 117.76,134.852 116.927,136.852 115.5,138.5C 115.325,136.379 115.659,134.379 116.5,132.5C 116.323,128.766 116.656,125.099 117.5,121.5C 118.369,119.283 118.702,116.95 118.5,114.5 Z"/></g>
<g><path style="opacity:1" fill="#cb9e5a" d="M 39.5,125.5 C 40.1667,125.5 40.5,125.833 40.5,126.5C 39.3222,129.198 37.4889,131.531 35,133.5C 34.4954,135.518 33.9954,137.518 33.5,139.5C 30.0694,137.196 28.736,133.863 29.5,129.5C 30.29,130.609 30.79,131.942 31,133.5C 33.7028,130.629 36.5361,127.962 39.5,125.5 Z"/></g>
<g><path style="opacity:1" fill="#432521" d="M 76.5,122.5 C 78.4144,123.185 80.4144,123.685 82.5,124C 81.434,125.159 81.7673,125.992 83.5,126.5C 83.5394,127.583 83.8728,128.583 84.5,129.5C 83.9747,130.192 83.3081,130.692 82.5,131C 82.6932,132.645 82.8598,134.479 83,136.5C 85.3333,139.5 87.6667,142.5 90,145.5C 94.6121,150.889 100.445,152.889 107.5,151.5C 103.689,152.645 99.6888,152.812 95.5,152C 90.6643,148.33 86.331,144.164 82.5,139.5C 80.1397,137.135 78.1397,134.468 76.5,131.5C 78.1132,131.032 79.6132,131.699 81,133.5C 80.9813,131.893 80.8146,130.226 80.5,128.5C 79.448,128.649 78.448,128.483 77.5,128C 77.8333,127.667 78.1667,127.333 78.5,127C 73.6219,124.525 71.9552,120.692 73.5,115.5C 73.974,118.217 74.974,120.55 76.5,122.5 Z"/></g>
<g><path style="opacity:1" fill="#5a5a62" d="M 88.5,126.5 C 89.2329,128.294 90.2329,129.961 91.5,131.5C 90.596,132.209 90.2627,133.209 90.5,134.5C 89.8761,134.917 89.5427,135.584 89.5,136.5C 90.1776,138.516 90.8443,140.516 91.5,142.5C 91.5,142.833 91.5,143.167 91.5,143.5C 87.8592,138.905 86.1926,133.572 86.5,127.5C 87.3019,128.952 87.8019,130.618 88,132.5C 88.4955,130.527 88.6621,128.527 88.5,126.5 Z"/></g>
<g><path style="opacity:1" fill="#d09d50" d="M 67.5,152.5 C 68.1894,153.774 69.0228,153.774 70,152.5C 71.3333,153.833 72.6667,155.167 74,156.5C 74.6172,157.449 74.4506,158.282 73.5,159C 74.3805,159.708 75.0472,160.542 75.5,161.5C 70.6599,160.221 65.9932,158.554 61.5,156.5C 55.8878,153.358 50.2211,150.191 44.5,147C 41.9568,145.618 39.9568,143.785 38.5,141.5C 40.1134,138.868 41.78,136.202 43.5,133.5C 43.1543,132.304 42.6543,132.304 42,133.5C 41.4054,132.101 41.5721,130.768 42.5,129.5C 41.8075,128.482 41.1408,127.482 40.5,126.5C 41.2679,125.737 41.7679,124.737 42,123.5C 43,126.833 44,130.167 45,133.5C 45.3333,132.5 45.6667,131.5 46,130.5C 50.0562,134.924 53.3895,139.924 56,145.5C 56.3333,144.5 56.6667,143.5 57,142.5C 58.7519,145.672 60.7519,148.672 63,151.5C 62.3853,149.244 62.0519,146.911 62,144.5C 64.0795,147.065 65.9128,149.732 67.5,152.5 Z"/></g>
<g><path style="opacity:1" fill="#46241e" d="M 154.5,124.5 C 153.901,127.963 152.901,131.296 151.5,134.5C 149.35,136.76 147.183,139.093 145,141.5C 144.667,140.833 144.333,140.167 144,139.5C 143.385,141.116 142.385,142.449 141,143.5C 140.667,141.953 141.167,140.62 142.5,139.5C 142.043,138.702 141.376,138.369 140.5,138.5C 141.167,137.5 141.833,136.5 142.5,135.5C 144.885,133.116 146.885,130.45 148.5,127.5C 149.043,127.56 149.376,127.893 149.5,128.5C 147.444,130.93 146.277,133.597 146,136.5C 149.156,131.988 151.989,127.988 154.5,124.5 Z"/></g>
<g><path style="opacity:1" fill="#43231f" d="M 57.5,125.5 C 59.0499,129.22 61.2166,132.553 64,135.5C 63.8621,133.51 63.3621,131.51 62.5,129.5C 62.5427,128.584 62.8761,127.917 63.5,127.5C 65.3,132.314 67.9667,136.648 71.5,140.5C 71.8333,141.167 72.1667,141.833 72.5,142.5C 72.44,143.043 72.1067,143.376 71.5,143.5C 69.5171,142.018 67.6837,140.351 66,138.5C 65.6012,138.728 65.4346,139.062 65.5,139.5C 62.1479,136.305 59.3145,132.638 57,128.5C 56.2599,127.251 56.4265,126.251 57.5,125.5 Z"/></g>
<g><path style="opacity:1" fill="#391f1f" d="M 68.5,145.5 C 68.4114,146.736 67.4114,146.736 65.5,145.5C 62.7567,142.346 60.2567,139.012 58,135.5C 57,136.5 56,137.5 55,138.5C 53.5186,135.044 51.852,131.711 50,128.5C 49.6667,129.167 49.3333,129.833 49,130.5C 48.2086,129.255 47.7086,127.922 47.5,126.5C 48.675,126.719 49.675,126.386 50.5,125.5C 48.7486,123.028 47.9153,120.361 48,117.5C 52.6802,128.576 59.5135,137.909 68.5,145.5 Z"/></g>
<g><path style="opacity:1" fill="#663728" d="M 141.5,133.5 C 141.328,134.492 141.662,135.158 142.5,135.5C 141.833,136.5 141.167,137.5 140.5,138.5C 139.158,141.166 137.325,143.499 135,145.5C 134.956,143.24 135.789,141.24 137.5,139.5C 136.675,138.614 135.675,138.281 134.5,138.5C 137.305,131.949 139.805,125.282 142,118.5C 141.562,123.758 140.395,128.925 138.5,134C 138.667,134.5 138.833,135 139,135.5C 139.708,134.619 140.542,133.953 141.5,133.5 Z"/></g>
<g><path style="opacity:1" fill="#3d3d49" d="M 26.5,49.5 C 26.2015,75.2144 26.5348,100.881 27.5,126.5C 28.9063,126.973 29.573,127.973 29.5,129.5C 28.736,133.863 30.0694,137.196 33.5,139.5C 34.8195,140.942 36.4862,141.608 38.5,141.5C 39.9568,143.785 41.9568,145.618 44.5,147C 50.2211,150.191 55.8878,153.358 61.5,156.5C 65.5,159.5 69.5,162.5 73.5,165.5C 74.7751,169.01 76.7751,172.01 79.5,174.5C 77.3453,174.628 75.3453,174.128 73.5,173C 58.4065,163.569 43.0731,154.569 27.5,146C 25.4842,143.419 23.9842,140.586 23,137.5C 22.6924,121.673 22.5257,106.173 22.5,91C 22.7483,89.2841 23.415,87.7841 24.5,86.5C 24.1543,85.3044 23.6543,85.3044 23,86.5C 22.181,75.4606 22.5144,64.4606 24,53.5C 24.6082,51.9336 25.4415,50.6002 26.5,49.5 Z"/></g>
<g><path style="opacity:1" fill="#d9a95e" d="M 168.5,135.5 C 160.261,140.781 151.927,145.781 143.5,150.5C 143.5,149.5 143.5,148.5 143.5,147.5C 144.842,144.834 146.675,142.501 149,140.5C 149.333,141.833 149.667,143.167 150,144.5C 151.262,142.216 152.428,139.882 153.5,137.5C 154.404,138.209 154.737,139.209 154.5,140.5C 158.474,139.379 162.14,137.546 165.5,135C 166.749,134.26 167.749,134.427 168.5,135.5 Z"/></g>
<g><path style="opacity:1" fill="#592d25" d="M 125.5,104.5 C 128.389,107.491 129.722,111.158 129.5,115.5C 129.336,118.187 129.503,120.854 130,123.5C 131.093,121.651 132.426,119.984 134,118.5C 134.167,118.833 134.333,119.167 134.5,119.5C 132.36,122.807 130.026,125.974 127.5,129C 128.5,129.333 129.5,129.667 130.5,130C 128.097,132.682 125.597,135.182 123,137.5C 122.333,138.833 122.333,140.167 123,141.5C 123.718,140.549 124.551,140.383 125.5,141C 123.316,143.016 121.316,145.183 119.5,147.5C 120.103,148.635 120.436,149.635 120.5,150.5C 122.544,148.781 124.544,147.114 126.5,145.5C 128.246,143.748 130.246,142.415 132.5,141.5C 129.527,145.194 126.194,148.694 122.5,152C 117.209,153.14 113.209,155.973 110.5,160.5C 110.158,161.338 109.492,161.672 108.5,161.5C 104.137,163.428 99.804,163.761 95.5,162.5C 95.9382,162.565 96.2716,162.399 96.5,162C 94.273,159.065 91.6064,157.065 88.5,156C 89.5,157 90.5,158 91.5,159C 90.8333,159.667 90.1667,159.667 89.5,159C 84.9863,155.909 80.653,152.575 76.5,149C 76.8688,146.123 75.5355,143.956 72.5,142.5C 72.1667,141.833 71.8333,141.167 71.5,140.5C 72.3382,140.158 72.6716,139.492 72.5,138.5C 75.7845,138.269 78.2845,139.603 80,142.5C 80.6979,141.309 81.5313,140.309 82.5,139.5C 86.331,144.164 90.6643,148.33 95.5,152C 99.6888,152.812 103.689,152.645 107.5,151.5C 110.028,150.492 112.195,148.826 114,146.5C 117.42,141.263 120.587,135.929 123.5,130.5C 124.097,130.265 124.43,129.765 124.5,129C 124.389,127.278 123.889,127.112 123,128.5C 122.333,127.167 122.333,125.833 123,124.5C 124.147,125.458 125.147,125.125 126,123.5C 126.594,117.144 126.427,110.811 125.5,104.5 Z"/></g>
<g><path style="opacity:1" fill="#2d2c34" d="M 113.5,131.5 C 113.56,130.957 113.893,130.624 114.5,130.5C 115.182,131.243 115.849,131.909 116.5,132.5C 115.659,134.379 115.325,136.379 115.5,138.5C 112.47,144.682 107.47,147.182 100.5,146C 103.232,145.587 105.899,144.92 108.5,144C 104.5,143.333 100.5,143.333 96.5,144C 97.5,144.333 98.5,144.667 99.5,145C 96.3893,145.612 93.7226,144.779 91.5,142.5C 90.8443,140.516 90.1776,138.516 89.5,136.5C 89.5427,135.584 89.8761,134.917 90.5,134.5C 90.8693,136.441 91.536,138.275 92.5,140C 93.7494,140.74 94.7494,140.573 95.5,139.5C 95.8333,139.5 96.1667,139.5 96.5,139.5C 96.281,140.675 96.6143,141.675 97.5,142.5C 100.833,142.5 104.167,142.5 107.5,142.5C 108.798,140.948 108.465,139.948 106.5,139.5C 107.209,138.596 108.209,138.263 109.5,138.5C 110.077,140.652 111.244,140.985 113,139.5C 114.476,136.735 114.643,134.068 113.5,131.5 Z"/></g>
<g><path style="opacity:1" fill="#b8b8b9" d="M 96.5,139.5 C 99.8333,139.5 103.167,139.5 106.5,139.5C 108.465,139.948 108.798,140.948 107.5,142.5C 104.167,142.5 100.833,142.5 97.5,142.5C 96.6143,141.675 96.281,140.675 96.5,139.5 Z"/></g>
<g><path style="opacity:1" fill="#a7a6a8" d="M 115.5,138.5 C 114.868,143.305 112.201,146.472 107.5,148C 101.115,149.684 95.7813,148.184 91.5,143.5C 91.5,143.167 91.5,142.833 91.5,142.5C 93.7226,144.779 96.3893,145.612 99.5,145C 98.5,144.667 97.5,144.333 96.5,144C 100.5,143.333 104.5,143.333 108.5,144C 105.899,144.92 103.232,145.587 100.5,146C 107.47,147.182 112.47,144.682 115.5,138.5 Z"/></g>
<g><path style="opacity:1" fill="#464651" d="M 173.5,137.5 C 172.38,140.387 171.38,143.387 170.5,146.5C 163.916,150.375 157.416,154.375 151,158.5C 150.617,157.944 150.117,157.611 149.5,157.5C 150.765,156.521 152.099,155.521 153.5,154.5C 154.308,152.577 154.808,150.577 155,148.5C 155.219,149.938 155.719,151.271 156.5,152.5C 158.5,151.167 160.5,149.833 162.5,148.5C 163.221,146.314 163.887,144.147 164.5,142C 167.522,140.489 170.522,138.989 173.5,137.5 Z"/></g>
<g><path style="opacity:1" fill="#ac783f" d="M 143.5,147.5 C 143.5,148.5 143.5,149.5 143.5,150.5C 129.092,158.378 114.759,166.545 100.5,175C 96.7366,175.079 93.7366,173.579 91.5,170.5C 93.9633,171.233 96.2967,172.233 98.5,173.5C 99.4164,173.457 100.083,173.124 100.5,172.5C 103.102,170.19 106.102,168.357 109.5,167C 110.412,164.749 111.412,162.583 112.5,160.5C 114.103,159.404 115.603,158.07 117,156.5C 117.333,157.167 117.667,157.833 118,158.5C 122.07,154.756 126.403,151.422 131,148.5C 131.333,149.167 131.667,149.833 132,150.5C 136.225,144.926 137.559,145.593 136,152.5C 137.29,150.208 138.957,148.208 141,146.5C 141.342,148.619 142.175,148.953 143.5,147.5 Z"/></g>
<g><path style="opacity:1" fill="#f3d586" d="M 126.5,152.5 C 128.308,152.491 129.975,152.991 131.5,154C 126.167,157.667 120.833,161.333 115.5,165C 114.833,165.667 114.167,165.667 113.5,165C 117.866,160.826 122.199,156.66 126.5,152.5 Z"/></g>
<g><path style="opacity:1" fill="#f2e3ab" d="M 168.5,135.5 C 169.167,135.5 169.833,135.5 170.5,135.5C 170.5,135.833 170.5,136.167 170.5,136.5C 147.614,152.179 123.781,166.512 99,179.5C 90.5419,174.689 82.0419,170.022 73.5,165.5C 69.5,162.5 65.5,159.5 61.5,156.5C 65.9932,158.554 70.6599,160.221 75.5,161.5C 80.8333,164.5 86.1667,167.5 91.5,170.5C 93.7366,173.579 96.7366,175.079 100.5,175C 114.759,166.545 129.092,158.378 143.5,150.5C 151.927,145.781 160.261,140.781 168.5,135.5 Z"/></g>
<g><path style="opacity:1" fill="#c38439" d="M 88.5,160.5 C 90.7457,161.455 93.079,162.122 95.5,162.5C 99.804,163.761 104.137,163.428 108.5,161.5C 106.067,165.768 102.734,169.268 98.5,172C 99.0944,172.464 99.7611,172.631 100.5,172.5C 100.083,173.124 99.4164,173.457 98.5,173.5C 96.2967,172.233 93.9633,171.233 91.5,170.5C 90.0401,168.537 88.3734,166.704 86.5,165C 87.7111,163.887 87.7111,162.72 86.5,161.5C 86.9569,160.702 87.6236,160.369 88.5,160.5 Z"/></g>
<g><path style="opacity:1" fill="#4e4e58" d="M 149.5,157.5 C 149.316,160.173 148.149,160.84 146,159.5C 145.535,160.931 144.701,162.097 143.5,163C 135.572,167.462 127.572,171.629 119.5,175.5C 119.953,174.542 120.619,173.708 121.5,173C 128.962,169.033 136.295,164.867 143.5,160.5C 144.308,158.577 144.808,156.577 145,154.5C 145.219,155.938 145.719,157.271 146.5,158.5C 147.417,157.873 148.417,157.539 149.5,157.5 Z"/></g>
<g><path style="opacity:1" fill="#f1ca76" d="M 110.5,160.5 C 111.167,160.5 111.833,160.5 112.5,160.5C 111.412,162.583 110.412,164.749 109.5,167C 106.102,168.357 103.102,170.19 100.5,172.5C 99.7611,172.631 99.0944,172.464 98.5,172C 102.734,169.268 106.067,165.768 108.5,161.5C 109.492,161.672 110.158,161.338 110.5,160.5 Z"/></g>
<g><path style="opacity:1" fill="#a76d32" d="M 88.5,160.5 C 87.6236,160.369 86.9569,160.702 86.5,161.5C 87.7111,162.72 87.7111,163.887 86.5,165C 88.3734,166.704 90.0401,168.537 91.5,170.5C 86.1667,167.5 80.8333,164.5 75.5,161.5C 75.0472,160.542 74.3805,159.708 73.5,159C 74.4506,158.282 74.6172,157.449 74,156.5C 72.6667,155.167 71.3333,153.833 70,152.5C 69.0228,153.774 68.1894,153.774 67.5,152.5C 68.2679,151.737 68.7679,150.737 69,149.5C 70.9734,150.64 72.8067,151.973 74.5,153.5C 75.1924,152.975 75.6924,152.308 76,151.5C 79.8113,155.168 83.978,158.168 88.5,160.5 Z"/></g>
<g><path style="opacity:1" fill="#2f2c35" d="M 171.5,49.5 C 173.492,78.481 174.159,107.814 173.5,137.5C 170.522,138.989 167.522,140.489 164.5,142C 163.887,144.147 163.221,146.314 162.5,148.5C 160.5,149.833 158.5,151.167 156.5,152.5C 155.719,151.271 155.219,149.938 155,148.5C 154.808,150.577 154.308,152.577 153.5,154.5C 152.099,155.521 150.765,156.521 149.5,157.5C 148.417,157.539 147.417,157.873 146.5,158.5C 145.719,157.271 145.219,155.938 145,154.5C 144.808,156.577 144.308,158.577 143.5,160.5C 136.295,164.867 128.962,169.033 121.5,173C 120.619,173.708 119.953,174.542 119.5,175.5C 112.89,179.812 106.223,184.146 99.5,188.5C 93.2981,184.468 86.9648,180.635 80.5,177C 79.7476,176.329 79.4142,175.496 79.5,174.5C 76.7751,172.01 74.7751,169.01 73.5,165.5C 82.0419,170.022 90.5419,174.689 99,179.5C 123.781,166.512 147.614,152.179 170.5,136.5C 171.49,130.355 171.823,124.022 171.5,117.5C 171.5,108.833 171.5,100.167 171.5,91.5C 171.5,77.5 171.5,63.5 171.5,49.5 Z"/></g>
</svg>
