<?xml version="1.0" standalone="no"?>
<!DOCTYPE svg PUBLIC "-//W3C//DTD SVG 20010904//EN"
 "http://www.w3.org/TR/2001/REC-SVG-20010904/DTD/svg10.dtd">
<svg version="1.0" xmlns="http://www.w3.org/2000/svg"
 width="200.000000pt" height="200.000000pt" viewBox="0 0 200.000000 200.000000"
 preserveAspectRatio="xMidYMid meet">

<g transform="translate(0.000000,200.000000) scale(0.100000,-0.100000)"
fill="#000000" stroke="none">
<path d="M0 1000 l0 -1000 1000 0 1000 0 0 1000 0 1000 -1000 0 -1000 0 0
-1000z m698 572 c3 -17 -2 -22 -17 -22 -14 0 -21 6 -21 18 0 38 33 41 38 4z
m706 9 c9 -14 -4 -41 -19 -41 -18 0 -28 17 -21 35 6 17 32 20 40 6z m-844 -26
c17 -20 8 -50 -15 -50 -20 0 -31 25 -21 51 7 18 20 18 36 -1z m995 -45 c0 -16
-6 -26 -19 -28 -25 -5 -39 12 -31 38 10 31 50 24 50 -10z m-760 -30 c0 -16 -6
-26 -19 -28 -24 -5 -37 17 -25 41 14 26 44 17 44 -13z m520 0 c0 -18 -6 -26
-23 -28 -24 -4 -38 18 -28 44 3 9 15 14 28 12 17 -2 23 -10 23 -28z m-647 -32
c7 -7 12 -24 12 -38 0 -49 -46 -68 -74 -29 -31 45 24 105 62 67z m787 -18 c15
-16 17 -26 9 -48 -18 -51 -84 -37 -84 17 0 50 42 67 75 31z m-253 -17 c25 -22
24 -69 -2 -83 -31 -17 -70 12 -70 51 0 10 37 49 47 49 3 0 15 -7 25 -17z
m-294 -5 c13 -13 16 -47 6 -72 -10 -26 -63 -21 -73 7 -19 51 31 101 67 65z
m-390 -41 c4 -20 -25 -34 -40 -19 -15 15 -1 44 19 40 10 -2 19 -11 21 -21z
m1070 -10 c4 -20 -25 -34 -40 -19 -15 15 -1 44 19 40 10 -2 19 -11 21 -21z
m-793 -42 c30 -29 32 -68 5 -95 -40 -40 -100 -12 -100 48 0 23 40 72 60 72 6
0 22 -11 35 -25z m544 -11 c12 -15 21 -35 21 -46 0 -23 -43 -68 -65 -68 -24 0
-55 38 -55 68 0 67 61 95 99 46z m-269 -31 c25 -32 20 -69 -12 -96 -55 -46
-116 38 -72 101 21 30 58 28 84 -5z m-482 5 c16 -16 15 -23 -4 -43 -19 -18
-44 -4 -44 25 0 31 26 40 48 18z m920 -24 c4 -29 -23 -51 -43 -34 -18 15 -19
32 -3 48 18 18 42 10 46 -14z m-301 -68 c22 -19 28 -32 28 -66 0 -34 -6 -47
-28 -66 -34 -29 -56 -30 -89 -4 -61 47 -28 155 49 159 7 1 24 -10 40 -23z
m-294 3 c63 -28 60 -133 -3 -159 -51 -21 -99 19 -100 83 0 27 7 45 25 62 27
28 42 30 78 14z m-217 -34 c15 -23 15 -27 0 -50 -28 -43 -76 -27 -76 25 0 52
48 68 76 25z m732 -24 c4 -23 -23 -61 -41 -61 -19 0 -47 33 -47 56 0 13 10 30
22 38 19 13 25 14 43 2 11 -7 21 -23 23 -35z m-343 -104 c20 -16 28 -35 32
-68 5 -41 2 -50 -24 -79 -41 -45 -85 -46 -125 -2 -81 91 27 227 117 149z
m-274 -33 c7 -9 13 -31 13 -49 0 -42 -19 -65 -55 -65 -51 0 -78 72 -42 112 20
22 66 24 84 2z m503 -6 c33 -46 7 -108 -44 -108 -32 0 -60 31 -60 65 0 34 28
65 60 65 18 0 34 -8 44 -22z m-396 -121 c32 -34 37 -76 13 -114 -17 -27 -27
-33 -56 -33 -48 0 -75 29 -75 80 0 76 72 116 118 67z m271 -12 c33 -17 41 -33
41 -85 0 -68 -74 -104 -118 -57 -51 55 -26 141 46 156 2 1 16 -6 31 -14z
m-500 -29 c31 -37 -9 -103 -46 -80 -37 23 -24 94 17 94 10 0 23 -6 29 -14z
m731 -17 c26 -47 -26 -101 -65 -69 -18 15 -20 61 -3 78 19 19 56 14 68 -9z
m-632 -105 c43 -30 20 -124 -31 -124 -53 0 -77 80 -37 120 24 24 38 25 68 4z
m263 0 c7 -9 13 -31 13 -49 0 -42 -19 -65 -55 -65 -51 0 -78 72 -42 112 20 22
66 24 84 2z m281 -11 c22 -20 23 -70 1 -95 -9 -10 -29 -18 -45 -18 -23 0 -32
6 -42 32 -30 69 33 129 86 81z m-744 -37 c-4 -30 -42 -28 -46 3 -2 13 2 27 9
32 18 11 41 -10 37 -35z m916 12 c8 -14 7 -22 -7 -35 -16 -16 -18 -16 -33 -1
-10 10 -14 23 -9 37 8 25 33 24 49 -1z m-598 -93 c19 -30 16 -53 -11 -71 -45
-30 -88 42 -49 80 22 23 41 20 60 -9z m294 -5 c21 -21 23 -29 14 -54 -18 -47
-84 -38 -84 11 0 26 25 63 42 63 4 0 17 -9 28 -20z m-693 -6 c3 -8 1 -20 -5
-26 -15 -15 -43 8 -35 28 7 19 32 18 40 -2z m1071 -16 c-2 -13 -10 -23 -18
-23 -8 0 -16 10 -18 23 -3 17 2 22 18 22 16 0 21 -5 18 -22z m-913 -8 c15 -16
17 -26 9 -48 -18 -51 -84 -37 -84 17 0 50 42 67 75 31z m793 -29 c4 -23 -23
-61 -41 -61 -18 0 -47 32 -47 52 0 10 9 27 21 39 18 18 23 19 42 6 12 -8 23
-24 25 -36z m-670 -70 c4 -26 -13 -42 -35 -34 -14 5 -18 45 -6 57 14 14 38 0
41 -23z m516 -4 c16 -25 -16 -56 -38 -37 -19 15 -20 32 -4 48 15 15 28 11 42
-11z m-746 -40 c5 -23 -16 -47 -34 -40 -14 5 -19 44 -7 57 12 12 38 1 41 -17z
m990 -5 c4 -28 -24 -41 -44 -20 -20 20 -7 50 20 46 13 -2 22 -12 24 -26z
m-860 -50 c3 -17 -2 -22 -17 -22 -14 0 -21 6 -21 18 0 38 33 41 38 4z m706 9
c9 -14 -4 -41 -19 -41 -18 0 -28 17 -21 35 6 17 32 20 40 6z"/>
</g>
</svg>
