<?xml version="1.0" encoding="UTF-8"?><svg width="200px" height="200px" id="Ebene_2" xmlns="http://www.w3.org/2000/svg" viewBox="0 0 500 500"><defs><style>.cls-1{stroke-linejoin:round;}.cls-1,.cls-2,.cls-3,.cls-4{stroke:#000;}.cls-1,.cls-2,.cls-4{fill:none;stroke-width:7.3495px;}.cls-1,.cls-4{stroke-linecap:round;}.cls-5{fill:#fff;}.cls-2{stroke-linecap:square;}.cls-2,.cls-3,.cls-4{stroke-miterlimit:10;}</style></defs><g id="Ebene_1-2"><g><circle class="cls-5" cx="250" cy="250" r="250"/><circle class="cls-4" cx="250" cy="250" r="222.89001"/><g><circle class="cls-3" cx="250" cy="248.89" r="27.08" transform="translate(-35.72177 455.7941) rotate(-80.78252)"/><path class="cls-4" d="M181.09,83.84c40.56,13.31,62.64999,56.98,49.34,97.54001-1.2,3.67-2.67999,7.25-4.42,10.7"/><path class="cls-4" d="M318.97,83.84c5.54999,10.82,8.42999,22.81,8.39001,34.97-.01999,33.42-21.53,63.04001-53.31,73.39"/><path class="cls-4" d="M181.09,83.84c-19.24001,38.07-3.98,84.51999,34.09,103.76001,3.49001,1.75999,7.11,3.25999,10.83,4.48h47.98c-19.25-38.02-4.03-84.45,33.98999-103.7,3.54001-1.79,7.22-3.31,11-4.54"/><circle class="cls-3" cx="192.73" cy="273.85999" r="11.46"/><line class="cls-1" x1="137.86" y1="235.44" x2="77.6" y2="250.46001"/><circle class="cls-3" cx="77.6" cy="250.46001" r="11.46"/><path class="cls-1" d="M83.71,318.78l32.89-32.88998c-39-34.45-40.37-36.00999-40.37-36.00999"/><polyline class="cls-1" points="83.71 180.83 137.86 234.98 192.14 273.85999"/><path class="cls-1" d="M83.71,318.78c10.86,5.51001,22.86,8.39001,35.04,8.39001"/><path class="cls-1" d="M83.71,181.35001h0c38.01-19.25999,84.45-4.06,103.71,33.95,1.14999,2.25999,2.17999,4.58,3.10001,6.94"/><path class="cls-1" d="M83.71,318.78c38.02,19.32999,84.51,4.17999,103.83999-33.84,1.81-3.57001,3.35001-7.26999,4.59-11.07999"/><path class="cls-1" d="M83.71,181.35001h0c38.01-19.25999,84.45-4.06,103.71,33.95,1.14999,2.25999,2.17999,4.58,3.10001,6.94"/><path class="cls-2" d="M181.09,416.16c40.56-13.20001,62.74001-56.76999,49.55-97.32999-1.23-3.79001-2.75999-7.48001-4.56-11.03-3.73-7.20001-8.56-13.78-14.3-19.5-5.35001-5.59-11.62-10.23001-18.53-13.72"/><circle class="cls-3" cx="307.26999" cy="273.85999" r="11.45999"/><line class="cls-1" x1="362.14001" y1="235.5" x2="422.39999" y2="250.52"/><circle class="cls-3" cx="383.53" cy="286.07999" r="11.45999"/><path class="cls-1" d="M416.48999,318.84l-32.89001-32.88998c39-34.45,40.37-36.00999,40.37-36.00999"/><polyline class="cls-1" points="416.29001 180.89999 362.14001 235.05 307.85999 273.92001"/><path class="cls-1" d="M381.25,327.23001c12.23999,.03,24.32001-2.84,35.23001-8.39001"/><path class="cls-1" d="M309.35001,221.92c15.5-39.7,60.25-59.31,99.94998-43.8,2.45001,.96001,4.85001,2.03999,7.17999,3.24001h0"/><path class="cls-1" d="M307.85999,273.92001c13.16,40.57001,56.73001,62.79001,97.29999,49.62,3.89999-1.26001,7.69-2.84,11.32999-4.70001"/><path class="cls-1" d="M309.35001,221.92c15.5-39.7,60.25-59.31,99.94998-43.8,2.45001,.96001,4.85001,2.03999,7.17999,3.24001h0"/><path class="cls-2" d="M306.75,274.44c-6.92001,3.47-13.19,8.10999-18.53,13.72-5.75,5.70001-10.56,12.29001-14.23999,19.5-15.16,29.79001-9.41,65.95999,14.23999,89.57999,8.57999,8.69,19.13,15.17999,30.75,18.92001"/><circle class="cls-3" cx="226.00999" cy="192.08" r="11.46001"/><circle class="cls-3" cx="273.92001" cy="192.08" r="11.46"/><circle class="cls-3" cx="190.64999" cy="221.85001" r="11.46001"/><circle class="cls-3" cx="137.86" cy="234.98" r="11.46001"/><circle class="cls-3" cx="116.47" cy="286.01001" r="11.46"/><circle class="cls-3" cx="309.35001" cy="221.92" r="11.46"/><circle class="cls-3" cx="362.14001" cy="234.98" r="11.46"/><circle class="cls-3" cx="422.39999" cy="250.52" r="11.46"/></g></g></g></svg>