<svg width="2026" height="2026" viewBox="0 0 2026 2026" fill="none" xmlns="http://www.w3.org/2000/svg">
<circle cx="1013" cy="1013" r="1013" fill="#50AF95"/>
<path fill-rule="evenodd" clip-rule="evenodd" d="M1125.71 1051.62C1119.44 1052.08 1087.06 1054.02 1014.83 1054.02C957.381 1054.02 916.591 1052.29 902.281 1051.62C680.26 1041.86 514.541 1003.25 514.541 957.018C514.541 910.79 680.26 872.231 902.281 862.317V1013.16C916.8 1014.2 958.373 1016.66 1015.82 1016.66C1084.76 1016.66 1119.29 1013.79 1125.5 1013.21V862.421C1347.05 872.283 1512.41 910.894 1512.41 957.018C1512.41 1003.14 1347.11 1041.75 1125.5 1051.56L1125.71 1051.62ZM1125.71 846.82V711.838H1434.9V506H593.092V711.838H902.229V846.768C650.96 858.299 462 908.024 462 967.61C462 1027.2 650.96 1076.87 902.229 1088.45V1521H1125.66V1088.3C1376.35 1076.76 1565 1027.09 1565 967.558C1565 908.024 1376.51 858.352 1125.66 846.768L1125.71 846.82Z" fill="white"/>
</svg>
