<?xml version="1.0"?>
<svg width="200" height="200" xmlns="http://www.w3.org/2000/svg" xmlns:svg="http://www.w3.org/2000/svg" preserveAspectRatio="xMidYMid meet" version="1.0">

 <g class="layer">
  <title>Layer 1</title>
  <g fill="#000000" id="svg_1" transform="matrix(0.1, 0, 0, -0.1, 0, 0)">
   <path d="m0,-1000l0,-1000l239,0l240,0l-39,116c-22,64 -48,132 -59,150l-20,34l69,0l70,0l-12,-24c-8,-20 -7,-40 7,-94l18,-70l24,26c37,40 55,126 31,150c-9,9 16,12 115,12c81,0 127,-4 127,-10c0,-6 -7,-13 -15,-16c-23,-9 -22,-226 2,-245c14,-12 8,-15 -53,-20c-38,-3 133,-6 379,-7c356,-2 447,1 441,11c-4,6 -16,24 -26,39c-10,14 -15,33 -12,41c3,8 0,18 -6,22c-8,5 -10,-10 -7,-49l4,-56l-45,0c-36,0 -43,3 -38,16c3,9 6,48 6,88c0,69 1,72 30,89c29,18 30,18 30,-3c0,-27 27,-37 48,-16c14,14 15,19 3,38c-12,19 -11,23 5,35c11,8 18,19 16,25c-3,13 26,-9 45,-32c17,-20 16,-51 -1,-76c-17,-24 -8,-90 18,-128c21,-33 21,-34 -16,-39c-22,-2 -14,-4 21,-5c48,-2 53,0 37,11c-17,12 -15,14 18,13c31,-1 34,-3 19,-14c-14,-10 11,-12 135,-12l152,0l0,1000l0,1000l-155,0c-97,0 -155,-4 -155,-10c0,-6 -47,-10 -120,-10c-66,0 -120,4 -120,9c0,5 -29,9 -65,10c-37,0 -65,-4 -65,-9c0,-12 -167,-14 -174,-2c-8,13 -386,16 -386,3c0,-7 -38,-11 -109,-11c-63,0 -112,-4 -116,-10c-4,-6 30,-10 96,-10c89,0 100,-2 89,-15c-9,-11 -33,-15 -88,-15c-41,0 -72,-3 -69,-7c4,-3 36,-5 72,-4c53,2 65,0 65,-13c0,-13 -13,-16 -62,-18l-63,-2l58,-3c41,-3 57,-8 57,-18c0,-11 -20,-15 -87,-18l-88,-3l91,-2c71,-2 93,-5 98,-17c4,-12 -4,-15 -39,-15c-25,0 -45,4 -45,8c0,5 -13,9 -30,9c-16,0 -30,-4 -30,-9c0,-4 -21,-8 -46,-8c-26,0 -43,-4 -39,-10c3,-5 19,-7 36,-3c49,10 76,-41 42,-79c-15,-17 -15,-21 -3,-29c13,-9 13,-10 0,-8c-52,5 -70,-1 -70,-26c0,-14 -5,-25 -11,-25c-6,0 -9,9 -6,20c3,11 0,23 -5,26c-6,4 1,13 16,21c30,16 33,28 9,42c-16,9 -15,10 6,11c13,0 22,3 19,6c-10,9 -98,-7 -92,-17c3,-5 -5,-13 -18,-18c-13,-6 -17,-10 -10,-10c23,-2 12,-29 -15,-36c-29,-8 -27,-9 20,-19c35,-8 35,-26 0,-27l-28,0l24,-10c14,-5 30,-18 37,-27c9,-13 24,-18 54,-16c33,2 40,-1 38,-14c-4,-19 -76,-22 -88,-3c-6,10 -12,10 -28,2c-26,-14 -42,-14 -22,-1c13,9 13,11 0,20c-8,5 -26,10 -39,10c-27,0 -61,34 -61,60c0,10 8,28 19,41c10,13 17,32 15,42c-2,14 5,17 37,17c24,0 38,4 34,10c-3,6 -22,10 -41,10c-38,0 -47,17 -11,22c38,5 77,-3 70,-16c-3,-6 3,-2 15,8c12,11 20,22 17,25c-4,3 -10,-1 -15,-9c-7,-10 -10,-11 -10,-2c0,8 -16,12 -46,12c-51,0 -73,17 -74,57c0,26 11,35 70,49l45,12l-47,1c-37,1 -46,4 -42,16c3,8 13,14 22,13c10,-1 37,0 62,1c64,2 31,20 -40,22c-40,0 -50,3 -35,9c12,5 -47,9 -152,9l-173,1l0,-1000zm1176,942c-4,-3 -14,2 -24,12c-16,18 -16,18 6,6c13,-6 21,-14 18,-18zm-321,7c11,-16 1,-19 -13,-3c-7,8 -8,14 -3,14c5,0 13,-5 16,-11zm45,-9c-6,-11 -13,-20 -16,-20c-2,0 0,9 6,20c6,11 13,20 16,20c2,0 0,-9 -6,-20zm74,12c3,-5 -1,-9 -9,-9c-8,0 -12,4 -9,9c3,4 7,8 9,8c2,0 6,-4 9,-8zm346,-7c0,-13 -11,-15 -62,-13c-38,2 -63,8 -66,16c-3,9 14,12 62,12c53,0 66,-3 66,-15zm97,9c-3,-3 -12,-4 -19,-1c-8,3 -5,6 6,6c11,1 17,-2 13,-5zm273,-9c0,-13 -17,-15 -112,-13c-78,2 -113,7 -116,16c-3,9 24,12 112,12c98,0 116,-2 116,-15zm-908,-27c-7,-7 -12,-8 -12,-2c0,14 12,26 19,19c2,-3 -1,-11 -7,-17zm448,-9c0,6 18,11 45,11c34,0 45,-4 45,-16c0,-12 -10,-15 -47,-13c-28,2 -46,-1 -44,-6c18,-47 23,-51 52,-47c22,3 29,0 29,-12c0,-9 -8,-16 -20,-16c-11,0 -20,5 -20,11c0,5 -4,8 -9,5c-5,-4 -24,12 -41,34c-23,29 -27,38 -13,33c16,-6 17,-5 3,13c-14,18 -14,18 3,5c11,-9 17,-10 17,-2zm460,-4c0,-12 -19,-15 -109,-15c-88,0 -110,3 -115,15c-5,13 11,15 109,15c96,0 115,-3 115,-15zm-956,-55c10,-13 9,-13 -6,-1c-10,7 -18,21 -17,30c0,13 1,14 6,1c3,-8 11,-22 17,-30zm576,14c0,-11 -8,-14 -27,-12c-39,4 -42,28 -4,28c21,0 31,-5 31,-16zm110,7c0,-5 -7,-11 -15,-15c-8,-3 -15,-1 -15,3c0,5 -14,7 -31,4c-21,-3 -29,-1 -24,6c8,13 85,15 85,2zm270,-6c0,-12 -19,-15 -110,-15c-91,0 -110,3 -110,15c0,12 19,15 110,15c91,0 110,-3 110,-15zm-746,-1c9,-3 14,-9 12,-13c-3,-4 0,-13 5,-21c8,-12 9,-11 7,4c-2,13 4,19 22,22c14,1 19,0 13,-2c-19,-8 -46,-71 -39,-89c3,-9 2,-13 -4,-10c-6,3 -10,-1 -10,-9c0,-9 -20,-20 -54,-30c-51,-15 -79,-34 -75,-52c3,-13 -12,-87 -23,-106c-5,-10 -15,-18 -24,-18c-12,0 -13,-4 -3,-21c16,-31 -7,-52 -27,-25c-18,25 -18,60 -1,78c8,7 12,20 10,28c-2,8 1,6 8,-5c12,-19 12,-19 20,0c4,11 8,32 8,48c1,27 -11,33 -61,29c-14,-1 -16,6 -11,56c6,69 23,98 60,105c15,3 53,12 83,21c67,18 65,17 84,10zm316,-85c0,-9 -8,-20 -17,-23c-10,-4 -14,-4 -10,0c4,4 0,18 -9,32c-9,13 -11,21 -5,18c17,-11 13,5 -6,28c-10,12 -3,8 15,-8c17,-17 32,-37 32,-47zm430,47c0,-10 -16,-15 -52,-18c-85,-6 -158,2 -158,18c0,11 23,14 105,14c83,0 105,-3 105,-14zm-250,-6c0,-5 -12,-10 -26,-10c-14,0 -23,4 -19,10c3,6 15,10 26,10c10,0 19,-4 19,-10zm-730,-40c0,-15 -7,-20 -27,-20c-30,1 -67,23 -56,33c3,4 24,7 45,7c31,0 38,-3 38,-20zm600,6c0,-21 -21,-31 -31,-15c-14,22 -11,29 11,29c11,0 20,-6 20,-14zm306,4c59,0 74,-3 74,-15c0,-12 -18,-15 -105,-15c-100,0 -105,1 -105,21c0,19 4,21 31,15c17,-3 65,-6 105,-6zm-405,-37c16,-18 17,-22 5,-13c-18,14 -19,13 -13,-4c6,-15 5,-17 -6,-8c-8,7 -17,10 -20,7c-4,-3 -5,-2 -2,2c3,3 -1,13 -7,22c-10,13 -10,14 2,4c20,-18 35,-16 20,2c-22,26 -4,16 21,-12zm-501,-18c0,-9 -9,-15 -25,-15c-16,0 -25,6 -25,15c0,9 9,15 25,15c16,0 25,-6 25,-15zm600,0c0,-8 -7,-15 -15,-15c-8,0 -15,7 -15,15c0,8 7,15 15,15c8,0 15,-7 15,-15zm380,0c0,-12 -18,-15 -105,-15c-87,0 -105,3 -105,15c0,12 18,15 105,15c87,0 105,-3 105,-15zm-1055,-5c-3,-5 -16,-10 -28,-9c-21,0 -21,1 -2,9c28,12 37,12 30,0zm420,-30c37,-37 40,-46 40,-95c0,-29 -3,-57 -7,-61c-15,-15 -38,19 -38,57c0,28 -8,47 -30,72c-60,69 -28,92 35,27zm350,30c3,-5 1,-10 -4,-10c-6,0 -11,5 -11,10c0,6 2,10 4,10c3,0 8,-4 11,-10zm-143,-30c-2,-17 -6,-30 -7,-28c-11,14 -25,49 -17,44c6,-3 13,-2 17,4c10,16 12,12 7,-20zm-65,-6c-9,-9 -28,6 -21,18c4,6 10,6 17,-1c6,-6 8,-13 4,-17zm-494,-4c-3,-11 -14,-20 -24,-20c-12,0 -19,7 -19,20c0,14 7,20 24,20c19,0 23,-4 19,-20zm607,6c-1,-5 4,-13 12,-17c9,-6 2,-9 -19,-9c-36,0 -36,0 -27,25c7,16 36,17 34,1zm117,8c-3,-3 -12,-4 -19,-1c-8,3 -5,6 6,6c11,1 17,-2 13,-5zm263,-14c0,-19 -7,-20 -105,-20c-98,0 -105,1 -105,20c0,19 7,20 105,20c98,0 105,-1 105,-20zm-460,-25c19,-22 8,-25 -12,-3c-10,10 -14,18 -9,18c5,0 14,-7 21,-15zm-700,-16c0,-6 5,-7 13,-2c20,12 38,12 34,0c-2,-7 -22,-13 -45,-15c-33,-2 -42,0 -42,12c0,9 9,16 20,16c11,0 20,-5 20,-11zm170,-4c0,-8 -9,-15 -20,-15c-11,0 -20,7 -20,15c0,8 9,15 20,15c11,0 20,-7 20,-15zm557,-17c-3,-7 -5,-2 -5,12c0,14 2,19 5,13c2,-7 2,-19 0,-25zm63,23c0,-5 10,-12 23,-14c12,-2 1,-5 -25,-6c-37,-1 -48,3 -48,14c0,9 9,15 25,15c14,0 25,-4 25,-9zm130,-6c0,-8 -4,-15 -10,-15c-5,0 -10,7 -10,15c0,8 5,15 10,15c6,0 10,-7 10,-15zm30,3c0,8 16,12 45,12c33,0 45,-4 45,-15c0,-12 -13,-15 -55,-15c-46,0 -55,3 -55,18c0,14 2,15 10,2c6,-10 10,-11 10,-2zm210,-3c0,-8 -5,-15 -11,-15c-6,0 -17,7 -25,15c-14,13 -13,15 10,15c16,0 26,-6 26,-15zm-763,-2c15,-6 13,-9 -12,-14c-30,-7 -30,-7 6,-8c22,-1 42,5 49,14c11,13 50,22 50,11c0,-2 3,-12 7,-22c4,-11 3,-15 -4,-11c-7,5 -9,0 -6,-12c3,-11 -4,-33 -16,-50c-12,-16 -21,-35 -21,-43c0,-7 -7,-21 -14,-31c-13,-17 -16,-17 -38,-3c-14,9 -27,13 -30,10c-4,-3 -16,0 -29,7c-21,11 -21,12 -5,24c15,11 16,17 6,35c-9,16 -9,29 -1,46c7,17 7,25 -2,31c-8,5 -3,10 13,14c14,4 26,7 27,8c1,1 10,-2 20,-6zm301,-30c6,-20 8,-41 4,-47c-3,-6 -9,3 -13,19c-4,17 -10,38 -14,48c-4,9 -3,17 2,17c5,0 15,-16 21,-37zm-748,-14c0,-5 -7,-9 -15,-9c-15,0 -20,12 -9,23c8,8 24,-1 24,-14zm37,-5c-9,-9 -28,6 -21,18c4,6 10,6 17,-1c6,-6 8,-13 4,-17zm83,13c0,-8 -12,-13 -30,-13c-38,0 -39,13 -2,19c15,2 28,5 30,6c1,0 2,-5 2,-12zm118,-4c2,-9 -8,-13 -32,-13c-28,0 -34,3 -29,16c7,18 54,16 61,-3zm652,5c0,-5 -4,-6 -10,-3c-5,3 -10,1 -10,-4c0,-6 -20,-11 -45,-11c-41,0 -54,7 -39,23c10,10 104,6 104,-5zm134,-1c-5,-8 -3,-8 7,1c19,17 59,15 59,-3c0,-17 -16,-20 -26,-4c-4,8 -9,8 -17,0c-13,-13 -93,-15 -101,-3c-3,5 9,6 26,4c17,-3 28,-1 25,5c-3,5 3,10 14,10c12,1 17,-3 13,-10zm136,-2c0,-8 -4,-15 -10,-15c-5,0 -10,7 -10,15c0,8 5,15 10,15c6,0 10,-7 10,-15zm-470,-24c0,-11 -4,-22 -9,-25c-5,-4 -7,4 -3,16c4,16 2,19 -8,13c-9,-5 -11,-4 -6,3c11,18 26,14 26,-7zm365,9c-5,-9 6,-14 25,-12c3,0 7,-10 8,-24c2,-23 -1,-24 -52,-24c-56,0 -119,23 -94,34c7,3 1,4 -14,1c-16,-3 -28,-1 -28,5c0,6 15,10 34,8c23,-1 32,-6 29,-15c-4,-9 0,-11 13,-6c12,4 15,3 10,-5c-4,-7 -2,-12 3,-12c6,0 11,9 11,20c0,13 7,20 19,20c11,0 23,5 26,10c3,6 8,10 11,10c3,0 2,-4 -1,-10zm152,4c-3,-3 -12,-4 -19,-1c-8,3 -5,6 6,6c11,1 17,-2 13,-5zm-1353,-25c4,6 14,11 23,11c13,0 13,-3 3,-15c-17,-21 -50,-19 -50,3c0,13 2,14 9,3c6,-9 11,-10 15,-2zm236,1c0,-5 5,-10 11,-10c5,0 7,5 4,10c-3,6 -1,10 4,10c6,0 11,-7 11,-15c0,-10 -10,-15 -32,-14c-18,0 -27,3 -19,6c11,5 11,7 0,14c-11,7 -10,9 4,9c9,0 17,-4 17,-10zm160,1c0,-17 -19,-22 -39,-11c-14,7 -22,7 -27,-2c-4,-6 -3,-8 4,-4c6,3 14,1 18,-5c4,-8 3,-9 -4,-5c-8,4 -12,0 -12,-11c0,-10 -4,-24 -9,-32c-6,-9 -8,1 -6,30c2,24 4,45 4,47c3,7 71,0 71,-7zm634,-2c-2,-4 12,-13 31,-19c19,-6 35,-16 35,-21c0,-5 3,-8 8,-8c4,1 35,1 70,0c55,-1 62,-3 62,-21c0,-15 -7,-20 -27,-21l-28,-1l30,-9c30,-8 29,-8 -6,-6c-30,2 -35,0 -31,-15c2,-11 14,-18 27,-18c14,0 25,-7 28,-20c4,-17 0,-20 -25,-20c-24,0 -29,-4 -26,-22c2,-14 14,-25 33,-31c39,-13 38,-11 30,-47c-6,-27 -8,-29 -19,-15c-9,12 -19,15 -41,9l-30,-7l35,-13c21,-7 28,-13 18,-14c-10,-2 -23,-3 -30,-4c-6,0 -13,-7 -16,-14c-3,-11 0,-12 17,-3c17,10 21,9 21,-4c0,-8 -6,-15 -12,-15c-9,0 -8,-4 2,-10c10,-6 11,-10 3,-10c-7,0 -13,-4 -13,-10c0,-5 7,-10 15,-10c8,0 15,5 15,10c0,16 27,11 34,-6c4,-12 2,-15 -9,-10c-8,3 -22,3 -31,-1c-12,-4 -9,-9 15,-19c35,-15 41,-34 10,-34c-28,0 -89,29 -89,43c0,6 -3,7 -7,4c-9,-10 -91,39 -134,79c-19,19 -39,31 -43,27c-4,-5 -6,-3 -5,2c5,16 -32,65 -44,58c-5,-3 -7,-1 -3,5c3,6 2,13 -4,17c-15,9 -12,89 5,132c13,33 22,68 24,96c1,4 26,7 56,6c30,-1 52,-6 49,-10zm-218,-113c-2,-21 -8,-42 -13,-47c-11,-11 -16,94 -7,134l7,32l9,-40c5,-22 7,-57 4,-79zm494,89c0,-8 -4,-15 -10,-15c-5,0 -10,7 -10,15c0,8 5,15 10,15c6,0 10,-7 10,-15zm-457,-1c-7,-3 -9,-13 -6,-22c6,-15 5,-15 -11,-3c-13,11 -14,16 -4,22c7,5 18,8 23,8c6,0 5,-3 -2,-5zm56,3c-2,-1 -15,-11 -28,-22l-24,-20l12,23c6,12 19,22 28,22c9,0 14,-1 12,-3zm-720,-21c8,-1 17,-9 19,-17c3,-11 2,-11 -7,1c-8,12 -11,12 -17,-4c-4,-11 -14,-16 -25,-13c-10,3 -20,0 -21,-5c-2,-6 -10,-2 -18,8c-9,11 -10,15 -2,10c6,-4 12,-2 12,3c0,6 -5,11 -11,11c-5,0 -7,5 -3,11c3,6 18,8 33,5c14,-4 33,-8 40,-10zm199,-8c-2,-13 4,-29 12,-36c8,-8 11,-12 5,-10c-12,4 -75,-59 -67,-67c3,-3 -1,-5 -10,-5c-22,0 -92,-70 -70,-70c18,-1 114,-49 98,-50c-14,0 15,-30 30,-30c8,0 11,6 8,15c-4,8 -1,15 4,15c12,0 7,-39 -6,-52c-5,-5 -22,3 -39,19c-26,25 -55,43 -98,62c-5,2 13,-18 42,-46c58,-56 61,-78 4,-34c-20,16 -46,31 -58,35c-32,10 -71,-3 -69,-22c2,-9 -4,-22 -13,-29c-14,-11 -14,-12 2,-13c15,0 16,-3 7,-20c-6,-11 -7,-20 -3,-20c4,0 2,-5 -5,-12c-9,-9 -9,-15 0,-25c9,-11 7,-18 -5,-30c-15,-15 -15,-17 1,-30c13,-10 14,-13 2,-11c-8,2 -14,-3 -12,-9c1,-8 -9,-13 -25,-13c-26,-1 -27,-2 -10,-15c14,-10 17,-20 11,-37c-4,-13 -7,-27 -6,-31c1,-5 -2,-6 -8,-2c-5,3 -10,-1 -10,-10c0,-31 -64,19 -71,55c-4,17 -4,29 -2,26c11,-11 43,43 53,90c23,103 52,184 66,184c8,0 13,6 11,13c-1,7 11,13 32,15c21,2 30,7 22,11c-13,9 44,65 121,118c42,28 46,35 42,62c-3,19 -1,31 6,31c6,0 10,-10 8,-22zm-89,-7c-7,-2 -7,-6 2,-12c9,-6 0,-7 -21,-3c-57,11 -65,21 -16,20c25,-1 41,-3 35,-5zm981,-28c0,-24 -3,-33 -9,-25c-7,12 -4,62 5,62c2,0 4,-17 4,-37zm51,23c-8,-10 -9,-16 -1,-21c5,-3 10,-14 10,-24c0,-14 -6,-17 -25,-13c-26,5 -37,41 -12,43c10,0 10,2 0,6c-22,8 -14,23 13,23c22,0 24,-3 15,-14zm-1331,-16c0,-5 -4,-10 -10,-10c-5,0 -10,5 -10,10c0,6 5,10 10,10c6,0 10,-4 10,-10zm879,-99c10,-81 10,-96 -4,-117c-8,-13 -19,-24 -24,-24c-14,0 -23,220 -10,237c19,22 26,5 38,-96zm-842,42c-3,-10 -5,-4 -5,12c0,17 2,24 5,18c2,-7 2,-21 0,-30zm38,27c3,-5 12,-10 18,-10c7,0 6,4 -3,11c-11,7 2,9 45,5c33,-3 69,-7 80,-9c11,-3 28,-5 37,-6c12,-1 15,-6 11,-18c-6,-16 -5,-16 10,-4c25,20 21,7 -5,-15c-14,-13 -19,-14 -14,-4c4,8 -1,4 -11,-10c-34,-47 -63,-68 -86,-63c-13,3 -17,1 -11,-4c8,-5 0,-19 -24,-43c-19,-19 -29,-26 -21,-16c12,18 12,19 -3,13c-12,-4 -15,-2 -12,8c4,9 -4,15 -23,18c-19,3 -14,4 17,5c29,1 40,-1 31,-7c-9,-6 -10,-11 -2,-15c6,-4 11,-4 12,1c7,64 6,79 -4,86c-8,6 -5,7 9,4c17,-3 20,0 16,24c-4,26 -8,29 -42,29c-24,0 -40,5 -44,15c-6,17 9,21 19,5zm-75,-21c0,-5 -4,-9 -10,-9c-5,0 -10,7 -10,16c0,8 5,12 10,9c6,-3 10,-10 10,-16zm600,-32c0,-25 -25,-67 -49,-81c-9,-6 -31,-10 -50,-11c-34,-1 -41,8 -57,71c-5,19 -3,23 9,18c9,-3 14,-11 11,-18c-3,-7 4,-21 16,-31c19,-17 21,-17 39,-1c10,9 21,28 23,41c4,21 2,23 -13,15c-10,-6 -20,-6 -23,-1c-9,15 6,21 51,21c38,0 43,-3 43,-23zm682,1c-2,-10 -7,-18 -11,-18c-4,0 -7,8 -8,18c-1,10 4,19 11,19c8,0 11,-8 8,-19zm-866,4c6,-4 16,-34 22,-67c7,-32 17,-64 22,-69c5,-5 28,-12 51,-15l41,-6l-32,-43c-29,-41 -97,-81 -142,-85c-10,-1 -18,-5 -18,-11c0,-16 -49,-75 -73,-87c-21,-11 -21,-11 -7,7c8,10 24,36 34,57c14,27 22,34 29,25c6,-9 7,-6 4,9c-3,12 -2,21 2,20c3,-1 23,15 43,36c45,45 57,82 35,104c-14,15 -18,14 -43,-1c-14,-10 -24,-13 -20,-8c3,6 -10,20 -29,32c-39,24 -39,23 15,83c25,27 45,33 66,19zm-305,-56c-9,-11 -9,-15 1,-19c7,-3 -3,-5 -22,-5c-19,0 -29,2 -22,5c10,4 10,8 1,19c-9,12 -6,14 21,14c27,0 30,-2 21,-14zm1163,-43c-10,-40 -14,-41 -14,-5c0,18 5,32 10,32c6,0 8,-11 4,-27zm-335,-117c1,-27 -11,-61 -41,-117c-24,-44 -46,-79 -50,-79c-3,0 -29,29 -57,65c-49,62 -58,68 -91,66c-10,0 -11,1 -2,5c6,3 10,10 7,15c-4,5 1,6 9,3c18,-7 68,25 59,39c-3,6 -1,7 6,3c7,-5 28,4 49,21c20,15 40,27 45,25c4,-1 6,1 5,6c-2,4 6,19 17,34l20,26l12,-36c6,-20 12,-54 12,-76zm-912,84c-1,-22 -17,-28 -17,-7c0,12 9,27 16,27c2,0 2,-9 1,-20zm-33,-5c3,-8 1,-15 -4,-15c-6,0 -10,7 -10,15c0,8 2,15 4,15c2,0 6,-7 10,-15zm433,-27c-3,-7 -5,-2 -5,12c0,14 2,19 5,13c2,-7 2,-19 0,-25zm192,-20c9,-15 12,-30 8,-34c-9,-10 -57,35 -57,53c0,23 33,10 49,-19zm469,-117c23,-40 38,-70 33,-67c-5,3 -23,30 -40,60c-17,30 -37,58 -44,63c-8,4 -29,26 -48,48l-34,40l45,-36c25,-21 64,-68 88,-108zm207,129c18,-8 17,-9 -7,-9c-16,-1 -28,4 -28,9c0,12 8,12 35,0zm-1232,-7c-7,-2 -19,-2 -25,0c-7,3 -2,5 12,5c14,0 19,-2 13,-5zm582,-81c20,-11 20,-11 -3,-27c-12,-9 -36,-44 -54,-78c-26,-53 -32,-59 -39,-42c-6,16 -8,17 -8,3c-2,-31 18,-29 48,4l29,33l8,-29c5,-20 0,-54 -14,-102c-12,-41 -22,-84 -22,-96c0,-13 -4,-29 -9,-37c-7,-11 -16,6 -31,58c-26,83 -27,112 -12,266c6,61 11,116 11,124c1,8 17,-3 39,-26c20,-22 46,-45 57,-51zm595,74c0,-2 -7,-6 -15,-10c-8,-3 -15,-1 -15,4c0,6 7,10 15,10c8,0 15,-2 15,-4zm-1164,-36c8,0 11,-6 8,-15c-8,-19 -85,-21 -81,-2c3,15 28,27 45,21c8,-2 20,-4 28,-4zm1210,-15c-3,-9 -10,-13 -16,-10c-6,4 -5,11 3,20c15,16 22,11 13,-10zm-35,-89c7,4 9,3 6,-3c-4,-6 32,-29 81,-52c51,-25 75,-40 57,-37c-56,8 -109,29 -120,46c-3,5 -10,8 -15,5c-5,-3 -14,1 -22,8c-18,18 -88,60 -88,53c0,-3 -8,2 -18,12c-9,9 -29,25 -42,35c-14,10 14,-3 62,-28c48,-26 93,-43 99,-39zm70,52c22,-6 39,-15 39,-19c0,-4 -16,-1 -35,7c-40,16 -68,19 -45,4c8,-5 11,-10 6,-10c-19,0 17,-29 45,-35c16,-4 29,-10 29,-15c0,-4 -10,-6 -22,-2c-15,4 -19,2 -13,-7c4,-8 -4,-7 -24,4c-18,9 -29,20 -26,25c4,6 1,10 -4,10c-12,0 -15,33 -4,43c8,9 9,9 54,-5zm-1247,-13c-4,-9 -18,-14 -40,-13c-18,1 -31,5 -29,9c3,4 -1,10 -7,12c-7,3 8,6 34,6c38,1 46,-2 42,-14zm1243,-11c-3,-3 -12,-4 -19,-1c-8,3 -5,6 6,6c11,1 17,-2 13,-5zm-1263,-32c3,-5 -1,-9 -9,-9c-8,0 -12,4 -9,9c3,4 7,8 9,8c2,0 6,-4 9,-8zm873,-41c-5,-45 -51,-152 -97,-227c-11,-17 -16,-35 -12,-39c4,-5 1,-5 -5,-1c-12,6 -18,-5 -14,-26c0,-5 -3,-7 -8,-5c-4,1 -18,-9 -29,-23c-20,-24 -21,-24 -22,-5c0,12 6,27 12,33c9,9 10,15 2,20c-6,4 -11,37 -12,75c0,37 -6,83 -12,102c-10,30 -9,40 5,61c25,39 43,40 81,4c18,-19 35,-32 37,-29c2,2 18,28 36,57c18,28 35,52 38,52c3,0 3,-22 0,-49zm-247,24c14,-8 21,-14 15,-14c-5,0 -21,6 -35,14c-14,8 -20,14 -15,14c6,0 21,-6 35,-14zm-637,-119c40,-38 96,-60 132,-54c22,5 22,3 12,-21c-16,-36 -25,-41 -82,-41c-60,0 -84,12 -67,32c6,8 7,19 3,27c-6,10 -10,8 -15,-6c-7,-17 -8,-17 -22,1c-15,21 -18,54 -8,80c8,21 5,22 47,-18zm150,-1c-9,-19 -18,-33 -21,-31c-4,5 26,66 33,66c3,0 -3,-16 -12,-35zm234,-27c-2,-13 -4,-3 -4,22c0,25 2,35 4,23c2,-13 2,-33 0,-45zm233,-7c-5,-11 -15,-23 -21,-27c-6,-3 -3,5 6,20c20,30 30,35 15,7zm432,-7c-12,-8 -27,-12 -32,-9c-6,3 -10,2 -10,-4c0,-6 -8,-7 -17,-4c-14,6 -9,10 22,19c55,17 63,17 37,-2zm-100,-25c-13,-5 -20,-14 -16,-20c4,-7 -1,-7 -16,1c-26,14 -15,25 27,27c27,2 27,1 5,-8zm-372,-29c-6,-11 -13,-20 -16,-20c-2,0 0,9 6,20c6,11 13,20 16,20c2,0 0,-9 -6,-20zm60,3c-5,-10 -24,-34 -42,-53c-30,-33 -30,-33 -13,-5c17,30 55,75 62,75c2,0 -1,-8 -7,-17zm-526,-139c-38,-109 -73,-190 -73,-174c0,3 11,37 25,75c14,39 27,80 30,91c2,12 11,35 19,50c8,16 15,39 15,51c0,12 6,24 13,26c6,3 13,6 14,6c1,1 -18,-56 -43,-125zm273,4c-3,-7 -5,-2 -5,12c0,14 2,19 5,13c2,-7 2,-19 0,-25zm212,-8c-13,-16 -25,-28 -27,-25c-5,5 37,55 45,55c2,0 -6,-13 -18,-30zm482,-1l24,-21l-25,16c-40,26 -47,18 -10,-9c19,-14 36,-21 38,-16c3,9 112,-56 112,-67c0,-2 -11,3 -25,12c-30,20 -31,20 -38,2c-4,-10 -1,-13 7,-10c7,3 21,-2 30,-11c9,-9 16,-14 16,-11c0,4 18,-5 41,-20c22,-14 47,-23 55,-20c24,9 11,-13 -35,-59c-24,-25 -47,-42 -51,-40c-5,3 -12,0 -16,-6c-4,-8 -3,-9 4,-5c7,4 12,2 12,-3c0,-17 -18,-13 -40,9c-11,11 -23,21 -27,22c-34,7 -43,13 -43,29c0,23 10,24 36,3c18,-14 18,-15 -6,-9c-21,5 -22,4 -7,-5c9,-6 21,-8 27,-5c5,3 23,-1 40,-10c28,-14 31,-14 36,0c8,20 3,25 -34,29c-36,5 -74,24 -85,43c-7,12 -12,12 -32,-1c-21,-14 -24,-13 -38,2c-11,12 -13,22 -7,32c24,38 6,41 -26,5c-41,-46 -69,-95 -55,-95c6,0 8,-6 5,-13c-3,-8 2,-20 11,-27c8,-7 15,-18 15,-24c0,-6 -14,5 -31,24c-18,20 -28,27 -25,16c5,-13 2,-17 -9,-12c-20,7 -47,-3 -39,-16c4,-6 -3,-5 -15,1c-18,10 -21,9 -18,-8c4,-25 27,-51 100,-113l58,-48l82,45c54,29 81,50 79,60c-2,8 2,15 8,15c6,0 8,-4 5,-10c-11,-17 3,-11 91,42c78,47 85,53 68,65c-10,7 -13,13 -7,13c7,0 15,-4 18,-10c8,-14 18,-13 40,4c19,14 19,15 0,37l-20,22l22,-14c35,-21 35,-37 0,-56c-18,-9 -26,-18 -19,-20c6,-3 10,-9 7,-14c-3,-5 -1,-19 5,-31c11,-21 10,-21 -9,2c-10,13 -17,29 -14,34c11,16 -24,-2 -141,-73c-152,-93 -211,-122 -232,-114c-13,5 -15,3 -9,-7c5,-9 4,-11 -4,-6c-6,4 -9,11 -7,15c7,11 -80,94 -92,87c-5,-3 -9,2 -8,11c0,9 -5,18 -13,21c-10,3 -11,0 -5,-9c7,-12 5,-12 -9,0c-9,7 -15,17 -12,21c6,10 -60,72 -72,68c-6,-2 -12,2 -13,7c-2,14 -42,55 -53,55c-5,0 -7,-6 -4,-14c3,-8 -1,-20 -9,-26c-10,-9 -14,-9 -14,-1c0,6 5,11 11,11c8,0 8,5 -1,15c-9,11 -9,15 -1,15c7,0 9,5 6,10c-4,6 -10,8 -15,5c-5,-3 -11,-1 -14,4c-4,5 -2,12 3,16c6,3 32,-15 60,-39c37,-33 56,-44 74,-40c30,5 59,-22 33,-32c-16,-6 -13,-24 5,-24c6,0 7,5 4,10c-3,6 -1,11 4,11c6,1 16,2 21,3c6,0 10,6 9,11c0,6 -8,8 -17,7c-14,-3 -14,-2 -1,14c12,16 12,17 -1,10c-11,-6 -10,-3 2,10c16,16 22,17 51,6c44,-16 44,-16 51,14c4,15 19,42 33,61l26,34l-31,-18c-17,-10 -28,-21 -26,-25c3,-4 -2,-5 -10,-2c-9,4 -20,-4 -29,-22c-9,-18 -17,-23 -21,-15c-9,14 19,61 36,61c6,0 21,10 32,23c12,12 31,28 42,35c18,12 18,13 0,7c-17,-5 -17,-4 -5,12c9,11 10,14 2,9c-7,-4 -13,-3 -13,3c0,9 46,40 61,41c4,0 17,-9 30,-21zm-147,-21c-5,-7 -2,-9 8,-6c8,4 21,2 29,-4c11,-8 9,-8 -6,-4c-20,6 -20,6 -1,-9c20,-15 19,-16 -23,-19c-8,-1 -15,-9 -17,-19c-4,-31 -12,-31 -64,-3c-27,15 -50,23 -50,18c0,-5 11,-14 24,-20c23,-10 29,-33 13,-48c-4,-4 -2,-13 4,-20c17,-21 -17,-30 -37,-10c-8,9 -20,14 -25,11c-5,-4 -9,-1 -9,5c0,6 -4,8 -10,5c-5,-3 -10,-1 -10,5c0,6 -5,8 -11,4c-7,-4 -10,1 -7,12c4,21 21,24 56,12c16,-6 22,-4 22,8c0,8 -4,13 -9,10c-4,-3 -8,5 -7,17c1,12 7,21 14,19c7,-1 12,3 12,9c0,5 4,8 9,5c5,-4 11,0 13,6c3,8 9,4 17,-10c13,-25 41,-30 41,-7c0,8 -6,15 -14,15c-8,0 -17,4 -20,9c-3,4 6,7 19,5c14,-1 27,2 31,7c3,5 7,9 10,9c3,0 2,-5 -2,-12zm-284,-11c0,-2 -10,-12 -22,-23l-23,-19l19,23c18,21 26,27 26,19zm-253,-39c-3,-8 -6,-5 -6,6c-1,11 2,17 5,13c3,-3 4,-12 1,-19zm492,-47c11,-7 9,-11 -8,-20c-14,-8 -21,-8 -21,-1c0,5 6,10 13,10c8,0 7,4 -3,10c-8,5 -10,10 -5,10c6,0 16,-4 24,-9zm411,-27c0,-2 -9,0 -20,6c-11,6 -20,13 -20,16c0,2 9,0 20,-6c11,-6 20,-13 20,-16zm-354,-21c-2,-9 -8,-19 -14,-21c-8,-2 -10,13 -3,36c1,1 5,2 10,2c5,0 8,-8 7,-17zm-369,1c-3,-3 -12,-4 -19,-1c-8,3 -5,6 6,6c11,1 17,-2 13,-5zm447,-15c14,-7 22,-17 19,-25c-7,-20 -21,-17 -28,5c-3,11 -14,22 -23,24c-9,3 -12,5 -5,6c7,0 23,-4 37,-10zm79,-15c-7,-19 -10,-18 -16,5c-3,13 -1,18 9,14c7,-2 10,-11 7,-19zm-966,-46c-3,-7 -5,-2 -5,12c0,14 2,19 5,13c2,-7 2,-19 0,-25zm970,-18c-1,-8 5,-15 14,-14c9,1 20,-11 26,-27l11,-28l-62,-13c-60,-14 -62,-13 -83,10c-34,34 -28,50 6,18c16,-16 35,-26 43,-23c9,4 8,6 -4,6c-16,1 -68,55 -68,71c0,9 46,17 92,16c19,0 27,-5 25,-16zm-118,-65c13,-19 21,-42 17,-50c-5,-14 -9,-14 -36,0c-27,14 -35,25 -31,48c0,4 -3,7 -9,7c-5,0 -10,-6 -10,-12c0,-7 -7,-4 -16,7c-14,19 -13,21 13,31c35,15 43,11 72,-31zm-58,-82c13,-16 12,-17 -3,-4c-17,13 -22,21 -14,21c2,0 10,-8 17,-17zm-369,-118l-4,-115l50,0c40,0 52,-4 55,-17c3,-10 5,36 6,103c1,81 -3,124 -11,132c-9,9 0,12 43,12l55,0l-4,-116l-5,-117l57,5l56,5l0,-31c0,-24 3,-27 10,-16c5,8 10,64 10,123l0,109l62,-56c34,-31 67,-56 75,-56c7,0 13,-4 13,-10c0,-11 -11,-13 -47,-12c-13,1 -23,-5 -23,-13c0,-7 -3,-20 -6,-29c-5,-13 3,-16 50,-16c58,0 60,-1 50,-38l-6,-22l-295,0c-278,0 -295,1 -287,17c5,10 10,64 12,121c3,82 0,109 -13,128l-15,24l57,0l58,0l-3,-115zm510,46c8,11 9,11 6,1c-4,-16 -22,-18 -24,-2c-2,7 -1,6 3,-1c4,-8 8,-7 15,2zm-1126,-72c0,-12 -7,-17 -21,-16c-26,3 -36,29 -17,43c19,14 38,0 38,-27zm1420,-1c0,-10 -7,-17 -16,-15c-20,3 -30,28 -16,43c13,14 32,-2 32,-28z" id="svg_2"/>
   <path d="m1236,-213c3,-10 9,-15 12,-12c3,3 0,11 -7,18c-10,9 -11,8 -5,-6z" id="svg_3"/>
   <path d="m1298,-467c7,-3 16,-2 19,1c4,3 -2,6 -13,5c-11,0 -14,-3 -6,-6z" id="svg_4"/>
   <path d="m1390,-499c0,-10 19,-25 25,-20c1,2 -3,10 -11,17c-8,7 -14,8 -14,3z" id="svg_5"/>
   <path d="m710,-841c-7,-11 -10,-23 -7,-25c2,-2 9,7 15,21c14,30 7,33 -8,4z" id="svg_6"/>
   <path d="m1620,-920c8,-5 20,-10 25,-10c6,0 3,5 -5,10c-8,5 -19,10 -25,10c-5,0 -3,-5 5,-10z" id="svg_7"/>
   <path d="m1486,-1338c-5,-9 20,-32 28,-25c3,4 6,10 6,14c0,10 -28,20 -34,11z" id="svg_8"/>
   <path d="m1399,-1342c-5,-18 -6,-38 -1,-34c7,8 12,36 6,36c-2,0 -4,-1 -5,-2z" id="svg_9"/>
   <path d="m1455,-1373c-26,-31 -44,-66 -36,-71c13,-8 71,54 64,70c-6,17 -15,17 -28,1z" id="svg_10"/>
   <path d="m1535,-1429c-7,-12 25,-30 43,-24c10,4 10,8 1,19c-13,16 -35,18 -44,5z" id="svg_11"/>
   <path d="m1150,-1525c0,-2 6,-8 13,-14c10,-8 14,-7 14,2c0,8 -6,14 -14,14c-7,0 -13,-1 -13,-2z" id="svg_12"/>
   <path d="m1201,-1406c0,-11 3,-14 6,-6c3,7 2,16 -1,19c-3,4 -6,-2 -5,-13z" id="svg_13"/>
   <path d="m1405,-1560c-8,-12 20,-24 35,-15c5,3 10,10 10,16c0,12 -37,12 -45,-1z" id="svg_14"/>
   <path d="m370,-114c0,-10 28,-13 41,-5c10,6 7,9 -13,9c-16,0 -28,-2 -28,-4z" id="svg_15"/>
   <path d="m452,-120c10,-6 25,-7 40,-1c20,9 18,10 -17,10c-31,0 -36,-2 -23,-9z" id="svg_16"/>
   <path d="m403,-157c9,-2 25,-2 35,0c9,3 1,5 -18,5c-19,0 -27,-2 -17,-5z" id="svg_17"/>
   <path d="m630,-1853c-23,-67 -45,-128 -47,-135c-4,-8 8,-12 39,-12c38,0 46,4 56,25c14,30 16,231 3,239c-5,3 -28,-49 -51,-117z" id="svg_18"/>
  </g>
 </g>
</svg>