<svg width="200" height="200" xmlns="http://www.w3.org/2000/svg" clip-rule="evenodd" fill-rule="evenodd" image-rendering="optimizeQuality" text-rendering="geometricPrecision" shape-rendering="geometricPrecision">

 <g>
  <title>Layer 1</title>
  <g stroke="null" id="svg_1" fill-rule="nonzero">
   <path stroke="null" id="svg_2" d="m101.49971,1c28.02344,0 53.40233,11.36319 71.76744,29.73224c18.36907,18.36508 29.73228,43.74394 29.73228,71.76734c0,28.0234 -11.36321,53.40226 -29.73228,71.76734c-18.36511,18.36904 -43.744,29.73224 -71.76744,29.73224c-28.02344,0 -53.40233,-11.36319 -71.76744,-29.73224c-18.36907,-18.36508 -29.73228,-43.74394 -29.73228,-71.76734c0,-28.0234 11.36321,-53.40226 29.73228,-71.76734c18.36511,-18.36904 43.744,-29.73224 71.76744,-29.73224z" fill="#999"/>
   <path stroke="null" id="svg_3" d="m101.49971,8.72348c25.89036,0 49.34631,10.49886 66.31183,27.46436l0.43217,0.46785c16.70781,16.93378 27.03223,40.19145 27.03223,65.83992c0,25.89429 -10.50681,49.34624 -27.47233,66.31173l-0.46785,0.43217c-16.94173,16.71571 -40.2034,27.03616 -65.83605,27.03616c-25.8626,0 -49.31062,-10.51076 -66.28407,-27.48815c-16.98534,-16.94567 -27.48819,-40.39762 -27.48819,-66.29191c0,-25.89429 10.49888,-49.34227 27.4644,-66.30777c16.96552,-16.9655 40.4175,-27.46436 66.30786,-27.46436z" fill="#fff"/>
   <path stroke="null" id="svg_4" d="m64.69417,24.97927l0,155.0406c-28.9631,-13.78174 -48.99344,-43.30781 -48.99344,-77.52427c0,-34.21249 20.03034,-63.74253 48.99344,-77.51634z" fill="#002B7F"/>
   <path stroke="null" id="svg_5" d="m144.10184,28.00047l0,148.99424c-12.5487,7.19616 -27.09963,11.30769 -42.60213,11.30769c-13.17117,0 -25.6485,-2.97362 -36.80554,-8.28252l0,-155.0406c11.15704,-5.30494 23.63437,-8.28252 36.80554,-8.28252c15.5025,0 30.05343,4.10756 42.60213,11.30372z" fill="#FCD116"/>
   <path stroke="null" id="svg_6" d="m144.10184,176.99471l0,-148.99424c25.81503,14.79277 43.20082,42.61396 43.20082,74.49514c0,31.88514 -17.38579,59.70633 -43.20082,74.4991z" fill="#CE1126"/>
  </g>
 </g>
</svg>