<svg width="200" height="200" viewBox="0 0 200 200" fill="none" xmlns="http://www.w3.org/2000/svg">
<g clip-path="url(#clip0_1769_39628)">
<path fill-rule="evenodd" clip-rule="evenodd" d="M126.639 196.413C118.158 198.751 109.225 200 100 200C44.7715 200 0 155.228 0 100C0 44.7715 44.7715 0 100 0C155.228 0 200 44.7715 200 100C200 125.638 190.352 149.022 174.489 166.72C174.825 164.698 175 162.62 175 160.5C175 153.123 172.881 146.256 169.204 140.448C166.166 135.649 162.068 131.577 157.23 128.591C151.498 125.042 144.745 123 137.494 123C126.451 123 116.621 127.786 109.702 135.368C109.166 135.777 108.77 136.3 108.374 136.836C103.191 143.345 100 151.463 100 160.5C100 177.467 111.2 191.77 126.639 196.413Z" fill="url(#paint0_linear_1769_39628)"/>
<mask id="mask0_1769_39628" style="mask-type:alpha" maskUnits="userSpaceOnUse" x="0" y="0" width="200" height="200">
<path fill-rule="evenodd" clip-rule="evenodd" d="M126.639 196.413C118.158 198.751 109.225 200 100 200C44.7715 200 0 155.228 0 100C0 44.7715 44.7715 0 100 0C155.228 0 200 44.7715 200 100C200 125.638 190.352 149.022 174.489 166.72C174.825 164.698 175 162.62 175 160.5C175 153.123 172.881 146.256 169.204 140.448C166.166 135.649 162.068 131.577 157.23 128.591C151.498 125.042 144.745 123 137.494 123C126.451 123 116.621 127.786 109.702 135.368C109.166 135.777 108.77 136.3 108.374 136.836C103.191 143.345 100 151.463 100 160.5C100 177.467 111.2 191.77 126.639 196.413Z" fill="url(#paint1_linear_1769_39628)"/>
</mask>
<g mask="url(#mask0_1769_39628)">
<path d="M99.98 25L110.71 31.22C110.19 31.2 109.96 31.54 109.77 31.91L109.67 32.11C109.63 32.2 109.77 32.38 109.92 32.74L111.42 31.63L114.84 33.62C113.97 33.69 114.02 34.09 114.44 34.8L115.21 33.83L118.48 35.73L117.61 36.63C117.89 37.24 118.25 38.08 118.68 38.89C118.75 39.03 119.09 39.02 119.42 39.11L119.69 37.04L120.51 37.13V39.5H121.53V37.5L122.67 38.15L122.56 38.26V40.88L122.96 41.41C123.64 40.54 124.4 39.83 125.59 39.97L125.32 39.69L139.93 48.17L140 48.44L140.23 48.4V48.34L140.33 48.4L140.97 48.77V55.48L140.84 55.5L140.92 56.45H140.97V61.3C140.18 61.76 139.59 62.09 139.05 62.46C138.91 62.55 138.87 62.79 138.78 63.06H135.7V62.89H135.54V63.05H134.39C134.34 62.47 134.01 62.05 133.19 61.85L132.53 63.05H130.42V62.15L129.52 63.05H128.73V60.4C128.89 60.42 129.1 60.36 129.34 60.28L128.73 59.29V55.86L126.72 54.7L128.1 53.34C127.36 52.72 126.8 52.81 126.29 53.37C126.28 53.38 126.21 53.34 126.14 53.28L126.03 53.2L125.98 53.17L126.58 51.12C125.45 51.8 124.54 52.52 123.52 52.84L122.92 52.5L123.01 52.53L125.11 50.63L122.63 49.27L122.41 51.56H121.3L115.88 48.41C116.17 48.02 116.23 47.61 116.01 47.21C115.5 46.23 114.57 46.4 113.58 46.65L114.07 47.36L100 39.21L99.78 39.34L99.67 37.94L98.21 39.75L98.53 40.05C98.65 39.93 98.74 39.78 98.88 39.71C99.11 39.6 99.36 39.51 99.66 39.41L91.3 44.24L90.95 43.74V44.44L71.24 55.87V57.44H71.09L71.14 57.39L70.8 56.99L70.64 57.14L71.04 57.49L71.22 58.91H71.24V89.21L74.15 90.91V92.16H75.63L75.28 91.56L75.52 91.69L75.58 91.76C75.58 91.76 75.6 91.76 75.6 91.74L83.04 96.06V96.1H83.1L84.6 96.97V97.17H84.77V97.07L86.05 97.8V98.66H86.29V97.94L86.96 98.34H86.91V98.5H87.25L91.63 101.04L91.56 101.13H91.78L99.99 105.89L106.34 102.31L106.97 101.95L111.75 104.73H111.61L111.79 106.05L112.05 106.03V104.9L113.78 105.9V106.11H113.94V106L117.19 107.88L117.29 107.93L117.7 108.18L117.71 108.22L117.75 108.21L118.43 108.6L117.48 108.76L118.3 109.57L99.98 120.07L99.35 119.71L98.06 118.96C98.12 118.85 98.16 118.73 98.2 118.61H97.46L78.48 107.61L77.39 108.24V107.6H77.15V108.38L71.24 111.81V145.15L75.94 147.87L75.7 147.91C74.93 149.33 76.72 149.69 77.1 150.67L76.43 148.16L77.6 148.84V149.23H78.03L78.02 149.08L79.08 149.7V150.24L79.51 150.19L79.44 149.91L81.6 151.15V151.31H81.84V151.3L99.34 161.44L99.32 161.45L99.72 161.8L99.77 161.75V162.23L99.72 162.19L99.32 162.53L99.48 162.69L99.82 162.29L99.77 162.24L100.27 161.74V161.77L102.23 160.71L101.83 160.74L102.41 160.4V160.75H102.57V160.31L128.7 145.04V138.24H128.94V138.07H128.7V136.55H120.92L120.9 136.4L120.25 136.55H118.84L100.8 147.03L99.98 147.5L95.68 145V143.86H95.44V144.86L92.34 143.06C92.3 142.83 92.2 142.6 92.12 142.37L91.98 142.86L83.46 137.92V135.94L83.53 135.68L83.46 135.75V127.8H83.94V127.64H83.46V123.6L94.79 130.17L95.09 130.47L95.15 130.38L96.9 131.4L96.96 131.5L97.01 131.46L99.98 133.18L112.79 125.76V125.98H112.96V125.66L114.78 124.6H133.02V125.49H133.27V124.6H140.92V136.55H140.88V138.07H140.86L140.89 138.24L140.92 141.97L140.85 141.94V142.95L140.93 142.94L140.95 146.15L140.62 145.45L139.23 146.18L140.96 147.21L140.99 150.49H140.81V150.65H140.99L141 152.08L137.9 153.88L137.6 153.27L137.07 154.37L134.61 155.8L132.5 155.31L131.82 157.43L131.24 157.77H131.04V157.89L119.83 164.43L118.85 164.15C119.18 164.53 119.28 164.72 119.35 164.71L112.46 168.73V168.7H112.3V168.83L103.84 173.76L102.76 172.86C102.72 173.81 102.88 174.14 103.22 174.12L100.62 175.64L99.98 176.01L99.35 175.64L59 152.23V113.9H59.22V113.73H59V111.04H59.54L59.86 110.64L59 110V105.04L59.41 104.96L59.14 104.62L62.77 102.52V102.54H63.59L63.54 102.11L63.4 102.15L66.24 100.5L59 96.3V57.58L60.1 58.08L60.6 59.43V57.55C60.0104 57.1948 59.4721 56.7608 59 56.26V48.76L67.8 43.66V44.02H67.96V43.57L69.19 42.86H69.6V42.69H69.47L70.68 41.99L70.74 42.47L71 42.45V41.81L71.63 41.44H73.03V40.64L98.33 25.96L98.2 26.2L99.35 27.53L98.82 28.65C99.99 28.59 100.32 27.58 101.03 27.16C101.43 27.56 101.8 28.02 102.26 28.35C102.49 28.51 102.89 28.43 103.47 28.49C102.91 27.29 102 26.78 101.11 26.32L100.73 26.12C100.47 25.99 100.23 25.86 99.99 25.71L99.53 26.11C99.33 25.99 99.14 25.71 98.93 25.61L99.35 25.37L99.98 25ZM102.04 171.71L101.7 172.11L101.3 172.46L101.45 172.62L101.8 172.22L102.2 171.87L102.04 171.71ZM103.93 170.72L103.77 170.88L104.17 171.22H104.18L104.37 172.15L104.68 172.11L104.6 171.16L104.22 171.18L104.27 171.13L103.93 170.72ZM99.43 169.52C99.48 170.62 99.48 170.62 100.52 171.01L99.42 169.51L99.43 169.52ZM103.14 168.77H102.32L102.37 169.2L103.17 169L103.14 168.77ZM103.73 167.82H102.73V168.07H103.73V167.82ZM110.56 167.28H109.74L109.79 167.71L110.59 167.51L110.56 167.28ZM113.5 165.08L112.44 166.14L112.04 166.54L113.66 167.43L113.5 165.08ZM94.92 165.84L95.55 166.85C96.1 165.55 95.57 165.62 94.92 165.84ZM102.16 164.8H100.86V165.24L102.19 165.06L102.16 164.8ZM98.56 163.2C98.5 163.3 98.41 163.37 98.33 163.45L98.2 163.56C97.9 163.82 97.63 164.09 98 164.74C98.09 164.62 98.2 164.52 98.3 164.44L98.44 164.32C98.71 164.08 98.91 163.8 98.56 163.2ZM87.2 162.77L86.86 163.17L86.41 163.27L86.61 164.27L86.86 164.1L86.93 163.25L86.96 163.28L87.36 162.93L87.2 162.77ZM97.13 162.27L96.89 162.31V163.13L97.31 163.11L97.13 162.28V162.27ZM113 161.47L112.14 161.87L113 162.93V161.46V161.47ZM103.73 162.35H102.73V162.6H103.73V162.35ZM102.15 161.82H101.33L101.38 162.25L102.18 162.05L102.15 161.82ZM108.09 161.32L107.67 161.36L107.85 162.19L108.09 162.15V161.33V161.32ZM92.26 161.32H91.44L91.49 161.75L92.29 161.55L92.26 161.32ZM92.64 160.28L93.04 161.29C93.34 160.58 93.44 160.05 92.64 160.29V160.28ZM80.16 160.06C80.02 160.63 80.02 160.63 80.69 160.6L80.16 160.06ZM119.34 158.58L120.52 159.55C120.58 158.1 120.17 158.09 119.34 158.58ZM78 156.88L79.69 159.28L80.4 158.58C79.86 157.75 79.77 156.35 78 156.88ZM76.63 154.86V156.69L77.97 155.77L76.63 154.87V154.86ZM135.53 154.4C135.46 154.47 135.43 154.6 135.41 154.73L135.38 154.93L135.36 155.03C135.59 154.97 135.82 154.93 136.03 154.84C136.15 154.78 136.23 154.63 136.33 154.51C136.28 154.46 136.23 154.36 136.16 154.35C135.95 154.35 135.66 154.29 135.54 154.4H135.53ZM129.13 152.34L128.98 152.5L129.38 152.84L129.72 153.24L129.88 153.09L129.48 152.74L129.14 152.34H129.13ZM81.17 151.86L81.71 153.04C82.1 151.99 81.97 151.64 81.17 151.86ZM134.38 149.99L131.81 150.51L132.52 151.12L133.98 150.85L132.65 152.46C133.75 153.04 134.34 152.76 134.87 152.02C134.856 151.847 134.856 151.673 134.87 151.5L134.89 151.24C134.92 150.71 134.92 150.21 134.39 149.99H134.38ZM131.9 152.42H130.91V152.67H131.91V152.42H131.9ZM76.93 151.38L76.5 151.44L76.7 152.24L76.93 152.2V151.38ZM127.33 149.3L126.51 149.48L126.54 149.73H127.36L127.33 149.3ZM140.23 148.9H138.92V149.35L140.25 149.17L140.23 148.91V148.9ZM125.84 147.83H125.6V149.32H125.84V147.82V147.83ZM132.38 147.03L131.28 148.37L131.52 148.83L133.76 148.66L132.38 147.03ZM129.3 147.31L128.5 147.51L128.53 147.74H129.35L129.3 147.31ZM129.92 145.47H128.93V145.72H129.93V145.47H129.92ZM61.36 141.65L60.39 142.84C61.84 142.9 61.85 142.49 61.36 141.65ZM93.27 141.9L92.33 141.98L92.35 142.41L93.32 142.21L93.27 141.9ZM98.64 140L97.69 140.56L98.51 141.32L99.28 140.64L98.64 140ZM97.07 139.36C96.99 139.48 96.87 139.57 96.77 139.66L96.64 139.78C96.36 140.02 96.16 140.3 96.51 140.9C96.56 140.83 96.62 140.76 96.69 140.7L96.82 140.6C97.15 140.31 97.47 140.05 97.07 139.36ZM61.02 138.93L60.78 138.96V139.79L61.2 139.76L61.02 138.93ZM88.12 136.88L87.28 138.06L87.66 138.46L88.96 137.72L88.12 136.88ZM90.04 137.71C89.9 138.28 89.9 138.28 90.57 138.25L90.24 137.91L90.04 137.71ZM94.74 136.98H93.92L93.94 137.41L94.77 137.23L94.74 136.98ZM103.09 136.88L102.29 137.08L102.32 137.31H103.14L103.09 136.88ZM92.26 136.48H91.44L91.47 136.91L92.3 136.73L92.26 136.49V136.48ZM126.34 135.41H126.09V136.41H126.34V135.41ZM139.32 135.53H138.32V135.78H139.32V135.53ZM122.35 133.98L122.09 134V135.32L122.53 135.3L122.35 133.98ZM89.79 133.51C89.64 133.51 89.49 133.53 89.35 133.54L89.53 134.85L89.79 134.83V133.51ZM88.21 133.97L87.98 134.01V134.83L88.4 134.78L88.21 133.98V133.97ZM130.79 131.44H130.54V133.42H130.79V131.44ZM123.59 131.28L122.22 132.55L123.36 133.31L124.06 131.66L123.6 131.28H123.59ZM118.87 132.15L119.84 130.95C118.39 130.9 118.38 131.31 118.87 132.15ZM69.59 129.95C68.92 130.45 68.92 130.93 69.59 131.43L69.54 131.48L69.89 131.88L70.04 131.73L69.64 131.38L69.59 131.43V129.95ZM135.65 129.45L135.32 129.62C135.5 130.06 135.72 130.49 135.85 130.95C136.05 131.68 136.41 131.54 136.85 131.2L135.65 129.45ZM92.35 130.08H91.3L91.48 130.98L92.35 130.8V130.08ZM70.17 128.74C69.79 129.08 69.6 129.18 69.61 129.24C69.64 129.43 69.7 129.6 69.76 129.77L69.82 129.94L70.17 128.74ZM89.2 129L88.96 129.04V129.87L89.39 129.81L89.2 129.01V129ZM134.75 128.44L133.92 128.62L133.96 128.87H134.78L134.75 128.44ZM131.78 127.46H131.53V128.46H131.78V127.46ZM111.95 127.51L111.71 127.55V128.38L112.14 128.32L111.94 127.52L111.95 127.51ZM87.25 126.97H86.54V128.02L87.44 127.84L87.25 126.97ZM85.91 127.1H84.86L85.04 128L85.91 127.82V127.1ZM110.55 127.55H109.73L109.78 127.98L110.58 127.78L110.55 127.55ZM113.63 126.65L114.65 126.27C113.76 125.99 113.35 126.12 113.63 126.64V126.65ZM139.23 125.06L138.8 125.09L138.98 126.41L139.24 126.38V125.06H139.23ZM69.52 123.16L68.2 124.39V125.59C69.9 125.11 69.64 124.09 69.52 123.15V123.16ZM85.92 125.1H84.42V125.35H85.92V125.1ZM130.19 68.7L129.83 69.37L134.81 68.72V68.7H140.96V88.76C140.926 88.7303 140.893 88.7003 140.86 88.67L140.51 88.27L140.35 88.43L140.75 88.77L140.95 89.01V91.38L140.85 91.6L140.95 91.62V95.09C140.67 94.77 140.34 94.59 139.68 94.86L140.34 96.22L140.96 96.07V96.3L140.51 96.56L140.12 96.04L139.32 97.24L138.17 97.92V97.66H138V98.01L133.71 100.5L137.01 102.41L136.12 102.89C136.98 103.21 137.38 103.19 137.32 102.59L138.61 103.34C137.99 103.67 137.39 104.09 136.66 104.54L137.62 106.47L138.11 104.08L139.01 107.54H139.73C140.31 106.07 138.2 105.08 139 103.62H139.1L139.94 104.12L140.74 104.62V104.57L140.96 104.7V107.61L140.16 107.68L140.96 108.52V109.01L140.62 108.41C140.1 109.17 140.43 109.5 140.96 109.67V112.16L140.85 112.26L140.95 112.36V114.11C140.67 114.15 140.34 114.26 139.85 114.41C140.48 114.49 140.75 114.83 140.95 115.25V118.19H140.8V118.36H140.96V118.91H139.76C139.652 118.642 139.542 118.376 139.43 118.11C139.391 118.375 139.368 118.642 139.36 118.91H128.72V118.85H128.93V118.69H128.72V111.79L120.84 107.23L120.69 107.13L119.77 105.21L120.37 104.99L117.67 102.59L114.93 103.8L105.53 98.35V98.15H105.36V98.25L99.96 95.12L93.62 98.7L92.99 99.06L92.36 98.69L86.81 95.48L86.65 95.15L86.58 95.35L84.76 94.28V94.18H84.59L82.77 93.13L82.67 93.08L80.75 91.96L99.35 81.3L99.98 80.94L110.27 86.9V87.23H110.51V87.05L121.48 93.4L126.1 90.72L126.46 91.11C126.46 90.88 126.46 90.69 126.42 90.54L128.72 89.2V84.75H128.77V84.25H128.72V71.36L129.69 72.06V70.3L128.72 69.77V68.7H130.19ZM134.96 116.87V118.49H137.68L136.18 117.61L135.71 117.32L135.36 117.12L134.96 116.87ZM135.03 116.08H133.03L133.93 117.25L135.03 116.08ZM130.75 115.58L130.5 115.62V116.44L130.93 116.42L130.75 115.59V115.58ZM131.41 114.18H130.41V114.42H131.41V114.18ZM111.45 112.12L111.22 112.16V112.98L111.64 112.93L111.45 112.12ZM137.42 111.36C137.04 111.7 136.85 111.79 136.86 111.86C136.9 112.1 137 112.33 137.08 112.56L137.42 111.36ZM140.22 110.66L139.8 110.69L139.98 111.52L140.22 111.49V110.67V110.66ZM109.98 110.62L109.73 110.65V111.48L110.16 111.45L109.98 110.62ZM136.93 108.74V111.12L137.99 110.89L136.93 108.74ZM134.32 109.09L133.38 109.16L134.13 110.32L134.36 110.1L134.43 111.06L135.37 111L134.62 109.83L134.39 110.05L134.32 109.09ZM113.02 109.16L112.6 109.22L112.8 110.02L113.03 109.99V109.16H113.02ZM61.82 109.64L61.84 109.71L63.06 109.27C61.77 109.19 61.72 109.19 61.82 109.64ZM88.82 107.19H86.96L88.88 108.33V109.08L88.83 109.03L88.43 109.38L88.59 109.54L88.93 109.13L88.88 109.08L90.24 108.09H88.9L88.83 107.19H88.82ZM115 108.67L114.58 108.72L114.77 109.52L115 109.49V108.67ZM92.39 108.29V109.5H93.8L93.14 108.73L92.99 108.56C92.58 108.1 92.53 108.15 92.39 108.29ZM138.29 107.72H136.79L136.99 108.78L138.29 107.72ZM135.59 104.69C134.59 105.98 134.66 107.27 135.61 108.55L136.28 106.43C136.52 105.63 136.31 105.04 135.58 104.69H135.59ZM64.6 104.87L64.75 105.47L64.81 105.77C65.07 106.96 65.39 108.11 67.13 108.35L65.5 106.71L66.36 105.36L65.38 105.1C65.14 105.03 65.11 104.45 64.6 104.87ZM108.03 107.2L107.03 107.83C108.33 108.37 108.25 107.85 108.03 107.2ZM105.03 107.15L104.79 107.19V108.01L105.22 107.96L105.02 107.16L105.03 107.15ZM86.3 106.11C85.87 106.46 85.06 106.68 85.73 107.76L86.91 106.91L86.3 106.11ZM74.03 106.17C74.09 107.07 74.43 107.56 75.46 107.62L74.03 106.17ZM125.84 106.6H125.6V107.6H125.84V106.6ZM122.38 106.6H122.14V107.6H122.38V106.6ZM90.28 106.15H89.46V107.55H90.28V106.15ZM78.91 106.69L78.48 106.72L78.66 107.55L78.91 107.52V106.69ZM62.09 106.69H61.27L61.32 107.11L62.12 106.92L62.09 106.69ZM87.19 103.67L86.85 104.07L86.9 104.12L85.34 104.62L86.41 106.1L86.48 106.02L86.65 105.86C86.76 105.76 86.86 105.64 86.88 105.52C86.95 105.06 86.9 104.59 86.9 104.12L86.95 104.17L87.35 103.82L87.19 103.67ZM109.02 105.59L108.22 105.79L108.26 106.02H109.08L109.02 105.59ZM133.88 105.73H132.89V105.98H133.88V105.73ZM105.2 105.73H104.2V105.98H105.2V105.73ZM117.33 104.63C117.73 105.03 118.17 105.42 118.53 105.87V105.89L116.36 104.63C116.69 104.61 117.02 104.58 117.33 104.63ZM129.02 104.42V105.49H131.18L129.02 104.42ZM69.1 105.24H68.11V105.48H69.1V105.24ZM82.82 103.62H82.57V104.62H82.82V103.62ZM91.82 104.4C92.74 104.94 92.89 104.17 93.35 103.84C92.43 103.3 92.28 104.06 91.83 104.4H91.82ZM90.4 103.2H88.62L90.19 104.35L90.39 103.21L90.4 103.2ZM129.24 102.13C128.52 102.63 128.18 103.18 128.64 104.13C129.35 103.63 129.69 103.06 129.24 102.13ZM121.46 101.5L122.69 101.7C123.69 102.33 122.63 103.84 123.86 104.1L126.03 101.96C125.29 101.07 124.26 100.86 123.21 100.69L122.75 100.62C122.05 100.52 121.87 101.04 121.46 101.5ZM66.05 102.2L65.62 102.25L65.74 104.04L66.04 104.02V102.21L66.05 102.2ZM81.38 102.7L80.95 102.76L81.15 103.56L81.38 103.53V102.71V102.7ZM106.56 103.11L105.74 103.29L105.77 103.54H106.59L106.56 103.11ZM135.24 102.13H135V103.13H135.25V102.13H135.24ZM75.39 96.23L75.94 97.33C76.1 97.67 76.29 97.99 76.48 98.3L76.71 98.69C77.28 99.64 77.79 100.62 77.55 101.89C77.49 102.19 77.93 102.59 78.2 102.97L78.27 103.07L78.22 102.92C77.85 101.54 79.87 100.41 78.6 98.94C77.7 97.92 77.15 96.6 75.39 96.24V96.23ZM130.76 101.7L130.5 101.72V103.04L130.94 103.01L130.76 101.7ZM83.36 102.22H82.54L82.57 102.64L83.4 102.46L83.36 102.22ZM115.59 101.38L114.92 102.05L113.68 101.57L114.21 102.31L114.45 102.63H116.82L115.59 101.38ZM119.34 101.68L119 102.08L118.6 102.43L118.75 102.58L119.09 102.18L119.49 101.84L119.34 101.68ZM65.06 101.73L64.64 101.75L64.82 102.58L65.06 102.55V101.73ZM65.89 97.71L67.86 101.63H68.49C68.52 101.36 68.53 101.05 68.61 100.77C68.71 100.44 68.87 100.12 69 99.79C68.37 99.16 67.76 98.49 67.09 97.91C66.89 97.74 66.48 97.8 65.89 97.71ZM114.89 99.73L113.61 100.4L114.85 101.04L114.62 100.61L115.69 100.47L114.89 99.73ZM131.03 97.25C130.91 99.35 131.25 100.65 132.08 100.65L132.71 100.11L132.25 97.76L131.03 97.25ZM121.79 99.38L120.27 100.58H122.05L121.79 99.38ZM123.47 99.37C123.93 99.7 124.08 100.47 125 99.93C124.9 99.86 124.83 99.78 124.75 99.69L124.65 99.56C124.38 99.26 124.12 98.99 123.47 99.36V99.37ZM131.86 94.77H129.12C128.58 95.62 128.52 96.64 127.53 96.89L127.19 99.17L127.61 100L128.39 99.55C128.14 99.05 127.99 98.79 127.88 98.55L130.2 95.59H131.86V94.77ZM87.28 99.14L86.45 99.32L86.49 99.56H87.31L87.28 99.14ZM120.12 97.61C118.98 97.73 118.58 98.15 118.54 99.21C119.48 99.07 119.97 98.75 120.12 97.61ZM83.82 98.16H83.56V99.16H83.81V98.16H83.82ZM79.82 97.73L79.57 97.75V99.07L80.01 99.03L79.82 97.73ZM71.9 96.5C70.68 96.98 70.41 97.6 70.7 98.56C71.8 98.85 72.33 98.42 72.59 97.6L71.89 96.5H71.9ZM138.28 96.12L136.92 96.32C137.16 96.6 137.41 96.58 137.59 96.67C137.79 96.77 137.95 96.99 138.34 97.36L138.28 96.12ZM95.32 96.78H94.32V97.03H95.32V96.78ZM118.96 96.25H118.14L118.2 96.67L119 96.48L118.96 96.25ZM78.43 95.25H77.61L77.63 95.68L78.46 95.5L78.43 95.25ZM87.11 92.73L86.96 92.89L87.36 93.23L87.41 93.19V94.04C88.01 94.24 88.66 94.48 89.31 94.65C89.49 94.69 89.71 94.51 90.08 94.35L89.19 93.18H87.41L87.46 93.14L87.11 92.73ZM133.56 94C133.42 94.57 133.42 94.57 134.1 94.54L133.56 94ZM78.7 93.7C78.47 93.74 78.24 93.84 78.01 93.92L79.23 94.27C78.88 93.87 78.78 93.69 78.7 93.7ZM140.17 92.3L139.14 93.28L139.51 94.21C140.29 93.61 140.56 93.04 140.17 92.29V92.3ZM128.82 93.19H128.57V94.19H128.82V93.19ZM76.96 92.79H75.09V93.53C75.78 93.83 76.35 93.78 76.79 93.17C76.86 93.07 76.89 92.95 76.96 92.78V92.79ZM106.11 93.28H105.29L105.34 93.7L106.14 93.51L106.11 93.28ZM98.21 92.78H97.39L97.41 93.2L98.24 93.02L98.21 92.78ZM86.74 91.26L86.5 91.3V92.12L86.93 92.06L86.73 91.26H86.74ZM136.37 90.72C136.3 91 136.37 91.32 136.37 91.66H137.67L138.39 89.86C137.3 89.56 136.61 89.73 136.37 90.72ZM83.25 90.75L82.91 91.15L82.51 91.5L82.66 91.65L83 91.25L83.4 90.91L83.25 90.75ZM88.19 90.85L88.72 91.39C88.86 90.82 88.86 90.82 88.19 90.85ZM69.52 89.79L69.08 89.83L69.27 91.13L69.52 91.11V89.79ZM98.78 90.33H97.79V90.58H98.78V90.33ZM62.27 88.2V89.98L63.41 88.41L62.27 88.2ZM98.69 89.31H97.37L97.42 89.75L98.72 89.56L98.69 89.31ZM109.46 88.18C109.16 88.89 109.07 89.42 109.86 89.18L109.46 88.18ZM135.78 87.82L135.36 87.87L135.55 88.67L135.78 88.64V87.82ZM98.61 87.29L98.37 87.32V88.14L98.79 88.12L98.61 87.29ZM138.98 86.49L139.03 86.62C139.4 87.53 139.45 87.54 140.47 87.58L138.97 86.48L138.98 86.49ZM130.55 84.03L129.73 87.34L129.86 87.32L130.06 87.28C130.94 87.15 131.76 87.48 132.58 86.91L130.55 84.03ZM137.07 84.59L135.01 86.63C135.49 87.16 136.06 87.63 136.82 87.01C137.64 86.34 137.49 85.55 137.07 84.59ZM140.22 85.19L139.22 85.43L140.36 86.49L140.22 85.19ZM138.9 85.58L137.77 85.94L138.01 86.26L139.55 86.14C139.26 85.9 139.17 85.83 139.08 85.74L138.9 85.58ZM138.46 82.91C138.05 83.69 138.4 84.37 139.08 84.71C139.71 85.01 140.35 84.71 140.74 84.08L138.46 82.91ZM102.11 84.24L101.31 84.44L101.34 84.67H102.16L102.11 84.24ZM132.85 82.81H132V84.65L132.86 82.81H132.85ZM68.03 83.85H67.21L67.26 84.28L68.06 84.08L68.03 83.85ZM60.62 83.35L60.19 83.4L60.39 84.2L60.62 84.17V83.35ZM136.52 82.35L136.49 82.52C136.4 83.12 136.29 83.4 136.39 83.49C136.56 83.67 136.87 83.72 137.09 83.81L136.61 82.58L136.51 82.35H136.52ZM134.12 81.76L133.82 82.03L134.81 83.81V83.63C134.81 83 134.87 82.71 134.81 82.51L134.78 82.46C134.703 82.3196 134.601 82.1943 134.48 82.09L134.24 81.87L134.12 81.77V81.76ZM97.17 82.77H96.93V83.77H97.17V82.77ZM135.86 80.53C135.97 81.53 136.7 81.98 137.76 82.43L135.86 80.53ZM129.23 81.11L130.41 82.08C130.46 80.63 130.06 80.62 129.23 81.11ZM134.18 80.33L133.84 80.73L133.88 80.78H133.4L133.45 80.74L133.1 80.34L132.95 80.49L133.35 80.84L133.4 80.79L133.56 81.19L133.89 80.79L133.93 80.84L134.33 80.49L134.18 80.33ZM134.13 77.3L133.4 78.72L134.78 79.42C134.82 78.97 134.88 78.74 134.84 78.52C134.81 78.28 134.56 77.98 134.64 77.82C135.07 77 134.34 77.42 134.14 77.3H134.13ZM65.46 76.88L64.26 78.14L64.9 78.79C65.51 78.25 66.08 77.7 65.46 76.88ZM130.79 77.25L129.74 77.45L130.79 78.75V77.25ZM137.19 77.85C137.1 77.85 137.02 77.87 136.94 77.88V78.71L137.36 78.68L137.18 77.85H137.19ZM133.39 76.81H131.91L131.18 78.31C131.93 78.2 132.45 78.21 132.89 78.03C133.39 77.83 133.46 77.32 133.39 76.81ZM66.81 75.38C66.77 76.46 67.06 77.97 67.31 78.2C67.44 78.32 67.73 78.26 68.17 78.3L66.81 75.38ZM129.57 75.37V76.87L130.62 76.66L129.57 75.36V75.37ZM132.77 75.49L133.43 76.86L134.65 76.56C134.08 75.83 133.87 75.06 132.77 75.49ZM132.83 73.44H131.54V76.82L131.86 76.86V74.99L132.83 74.67V73.44ZM135.45 74.79V76.58L136.6 74.99L135.45 74.79ZM138.71 75.41C139.91 75.24 140.34 74.65 140.7 73.91C139.64 73.67 139 73.98 138.71 75.41ZM135.79 72.22L137.2 73.9L138.88 73.06L138.68 72.31L138.08 72.82L135.79 72.22ZM133.1 69.06C133.5 69.88 133.74 70.18 133.76 70.5C133.8 70.9 133.65 71.3 133.58 71.7L134.15 72.81H135.13L134.75 69.85L133.1 69.06ZM132.79 70.83L131.35 70.94L131.52 71.8H132.97L132.79 70.83ZM66.84 70.9L66.68 71.05L67.08 71.39L67.42 71.79L67.58 71.64L67.18 71.3L66.84 70.9ZM69.06 69.25C68.02 69.51 67.45 69.85 67.78 70.93C68.62 70.73 69.18 70.45 69.06 69.25ZM70.91 69.91L70.68 69.95V70.77L71.1 70.72L70.91 69.91ZM66.44 67.67L64.43 68.75L66.05 68.93L66.36 70.53L67.18 68.7L66.44 67.67ZM137.59 69.35L135.93 69.49L138.11 70.42L138.34 70.1L137.59 69.35ZM62.13 67.1L63.85 67.96C63.67 66.96 63.12 66.6 62.13 67.1ZM68.31 65.05L67.14 65.64V66.14C68.28 66.88 69.15 66.04 70.17 65.61L68.31 65.05ZM62.71 65.55L63.73 65.19C62.81 64.89 62.47 65.07 62.71 65.56V65.55ZM59.79 62.35C59.79 63.18 59.7 63.49 59.81 63.71C59.88 63.85 59.99 63.96 60.11 64.07L60.35 64.29L60.47 64.41L60.77 64.14L59.79 62.36V62.35ZM70.33 63.42C70.27 63.47 70.17 63.52 70.17 63.59C70.16 63.8 70.1 64.09 70.21 64.22C70.33 64.35 70.62 64.34 70.84 64.39C70.78 64.17 70.74 63.93 70.65 63.72C70.6 63.6 70.44 63.52 70.33 63.42ZM67.34 61.51L67.27 61.52C66.69 62.02 66.34 62.58 66.83 63.35H67.97C68.01 62.25 67.79 61.55 67.41 61.51H67.34ZM130.75 60.34L129.93 61.16L131.01 62.25L130.75 60.34ZM68.32 60.42C67.8 61.29 68.52 61.49 68.91 61.91C69.43 61.03 68.71 60.84 68.32 60.42ZM138.68 59.48L138.43 59.5V60.82H138.86L138.68 59.48ZM130.28 58.46H130.08C131.03 59.1 131.26 60 132.34 59.9C131.92 59.2 131.59 58.53 130.46 58.47H130.27L130.28 58.46ZM68.03 59L67.6 59.05L67.8 59.86L68.03 59.82V59ZM62.92 56.88L62.21 58.36H64.16L62.92 56.88ZM63.59 56.61L64.52 57.52C64.8 56.39 64.42 56.3 63.59 56.62V56.61ZM137.92 55.01V57.39H138.76L137.92 55V55.01ZM63.12 53.5H62.26V55.33L63.12 53.5ZM69.78 53.45L69.51 54.21L71.41 54.99C70.98 54.29 70.77 53.4 69.78 53.45ZM64.67 54.07C64.69 54.35 64.63 54.67 64.75 54.75C64.95 54.9 65.25 54.9 65.52 54.96L64.67 54.06V54.07ZM61.6 53.54H60.78L60.81 53.97L61.64 53.78L61.6 53.54ZM66.63 53.08H65.63V53.33H66.63V53.08ZM131.16 51.72C130.77 52.76 130.9 53.12 131.7 52.9L131.16 51.72ZM128.72 52.11L129.26 52.64C129.4 52.07 129.4 52.07 128.72 52.11ZM66 50.91L64.95 51.12L66 52.42V50.92V50.91ZM129.43 46.01C129.08 46.34 128.76 46.74 128.36 46.98C127.94 47.23 127.43 47.33 126.96 47.49V50.9L127.4 50.62L127.63 51.55L128 51.27L127.55 50.11C127.96 49.31 129.5 49.59 129.43 48.22L128.18 47.64L130.88 47.31L129.43 46.01ZM138.15 50.46L136.85 50.56V51.54C137.25 51.27 137.48 51.11 137.72 50.98L137.89 50.89L138.25 50.75L138.15 50.45V50.46ZM131.55 50.38C131.25 51.51 131.63 51.6 132.47 51.28L131.54 50.38H131.55ZM72.2 49.34V51.17L73.3 49.79L72.2 49.34ZM135.29 50.06L134.86 50.11L135.06 50.91L135.29 50.88V50.06ZM118.77 47.91L118.05 48.19C118.71 49.86 118.71 49.86 119.58 50.22L118.77 47.92V47.91ZM68.53 49.57H67.7L67.76 50L68.56 49.8L68.53 49.57ZM120.17 48.21L121.07 49.85L122.33 49.17L120.17 48.21ZM125.67 47.58H124.03L124.76 49.07L125.68 47.58H125.67ZM122.47 42.26L121.71 43.4C122.04 43.4857 122.359 43.6099 122.66 43.77L123.2 44.07L121.53 45.75C121.65 46.72 121.04 47.93 122.67 48.58C123.15 48.1 123.61 47.71 123.99 47.24C124.23 46.93 124.34 46.52 124.59 45.97L122.08 47.5C121.78 45.38 123.33 45.2 124.61 44.67L122.46 42.27L122.47 42.26ZM70.5 47.58H69.68L69.74 48.01L70.54 47.81L70.5 47.58ZM134.6 47.08L135.37 47.89C135.38 47.15 135.27 46.73 134.6 47.09V47.08ZM132.86 45.76L132.88 45.94L132.91 46.24L132.96 46.71L132.99 46.95L133 47.07L134 46.82L132.86 45.76ZM66.39 46.01C66.45 46.23 66.49 46.47 66.58 46.67C66.63 46.8 66.79 46.88 66.9 46.98C66.96 46.92 67.06 46.87 67.06 46.81C67.07 46.59 67.13 46.31 67.02 46.18C66.9 46.04 66.61 46.06 66.39 46.01ZM119.47 44.98L118.32 45.18L119.47 46.76V44.98ZM86.31 45.98L85 46.16L85.02 46.42H86.33L86.31 45.98ZM69.61 46.13H68.61V46.38H69.61V46.13ZM128.24 45.43C128.58 45.81 128.68 46 128.74 45.99C128.86 45.97 128.98 45.94 129.09 45.89L129.44 45.77L128.24 45.43ZM72.1 44.71C72.04 46.16 72.45 46.17 73.28 45.68L72.1 44.71ZM116.8 45.1L117.57 45.9C117.58 45.17 117.47 44.74 116.8 45.1ZM71.5 44.1L71.07 44.13L71.25 44.97L71.5 44.93V44.11V44.1ZM119.16 43.69C119.73 44.06 119.84 45.19 121.32 44.89C120.41 44.39 120.25 43.49 119.16 43.69ZM129.5 43.73C130.05 44.65 130.76 44.58 131.47 44.48L131.72 44.44L131.84 44.42L131.94 43.59C131.04 43.54 130.25 43.35 129.5 43.73ZM125.68 40.6C125.15 41.44 124.26 40.9 123.5 41.04C123.63 41.2 123.73 41.39 123.88 41.53C124.22 41.86 124.58 42.17 124.94 42.48L124.54 42.82L124.7 42.98L125.04 42.58L125 42.53H126.4L126.55 43.92H128.39V42.06L125.68 40.6ZM113.12 40.04V40.11C113.08 40.48 113.32 40.99 112.63 41.04L112.68 40.99L112.33 40.59L112.18 40.74L112.58 41.09L112.63 41.04L112.91 42.58L114.11 40.71L113.12 40.04ZM79 41.3C78.78 41.36 78.54 41.39 78.33 41.48C78.21 41.54 78.13 41.7 78.03 41.81C78.09 41.87 78.13 41.97 78.2 41.97C78.41 41.98 78.7 42.04 78.83 41.93C78.96 41.8 78.95 41.51 79 41.3ZM89.59 39.6L89.43 39.76L89.83 40.11L89.88 40.06L89.71 40.47C89.23 41.48 89.24 42.03 89.73 41.94L90.03 41.08L91.19 41.79L90.04 39.65L89.91 39.98L89.59 39.6ZM103.46 40.07C103.4 40.13 103.3 40.18 103.3 40.24C103.29 40.46 103.23 40.74 103.35 40.87C103.47 41.01 103.75 41 103.97 41.05C103.91 40.82 103.88 40.59 103.79 40.38C103.73 40.25 103.57 40.18 103.46 40.08V40.07ZM112.33 38.61L112.18 38.77L112.58 39.11L112.63 39.07C112.7 39.44 112.38 40.01 113.13 40.05C113.116 39.9843 113.109 39.9172 113.11 39.85L113.12 39.69C113.14 39.39 113.15 39.09 112.63 39.06L112.68 39.02L112.33 38.61ZM110.3 38.31C110.72 39.35 110.72 39.35 111.8 39.4L110.3 38.3V38.31ZM107.43 37.07C107.49 37.3 107.53 37.54 107.63 37.74C107.68 37.87 107.83 37.95 107.95 38.05C108 37.99 108.1 37.94 108.11 37.88C108.11 37.66 108.17 37.38 108.06 37.25C107.94 37.11 107.65 37.13 107.43 37.07ZM85.25 37.13L85.02 37.17V37.99L85.45 37.94L85.25 37.13ZM98.65 37.06L97.85 37.25L97.88 37.49H98.7L98.65 37.06ZM116.45 36.08H116.21V37.08H116.46V36.08H116.45ZM107.88 32.65L107.73 32.81L108.13 33.15L108.16 33.13C108.22 34.03 108.54 34.73 109.66 35.29L109.56 33.1H108.18L108.23 33.06L107.88 32.65ZM101.91 33.65H99.91L100.81 34.81L101.91 33.64V33.65ZM105.09 33.1H104.84V34.1H105.09V33.1ZM100.55 29.6L100.25 29.7L100.59 31.53L100.28 31.87L100.98 32.57H101.08L101.29 32.59C102.14 32.65 102.99 32.67 103.33 31.11H101.6L100.55 29.61V29.6ZM94.7 30.1L93.89 30.3L93.93 30.53H94.75L94.7 30.1ZM104.47 30.14C104.41 30.14 104.36 30.34 104.27 30.54H106.62L106.6 30.12C105.9 30.12 105.18 30.12 104.47 30.14ZM92.85 29.74H91.85V30H92.85V29.75V29.74Z" fill="white"/>
</g>
<path d="M166.684 160.592C166.684 176.634 153.732 189.595 137.681 189.595C121.629 189.595 108.688 176.634 108.688 160.592C108.688 153.603 111.155 147.325 115.163 142.29C115.469 141.876 115.775 141.471 116.19 141.155C121.54 135.291 129.142 131.589 137.681 131.589C143.288 131.589 148.51 133.169 152.942 135.913C156.684 138.223 159.852 141.372 162.202 145.084C165.045 149.576 166.684 154.886 166.684 160.592Z" fill="#606060"/>
<path d="M166.684 160.592C166.684 176.634 153.732 189.595 137.681 189.595C121.629 189.595 108.688 176.634 108.688 160.592C108.688 153.603 111.155 147.325 115.163 142.29C115.469 141.876 115.775 141.471 116.19 141.155C121.54 135.291 129.142 131.589 137.681 131.589C143.288 131.589 148.51 133.169 152.942 135.913C156.684 138.223 159.852 141.372 162.202 145.084C165.045 149.576 166.684 154.886 166.684 160.592Z" fill="#28374F"/>
<path d="M137.691 142.774L127.188 160.02L137.691 166.14V142.774Z" fill="#FCFCFD"/>
<path d="M137.691 169.526V178.411L126.98 163.277L137.691 169.526Z" fill="#FCFCFD"/>
<path d="M127.188 160.02L137.691 155.212V166.14L127.188 160.02Z" fill="#FCFCFD"/>
<path d="M137.691 142.774L148.195 160.02L137.691 166.14V142.774Z" fill="#FCFCFD"/>
<path d="M148.392 163.277L137.691 178.411V169.526L148.392 163.277Z" fill="#FCFCFD"/>
<path d="M148.195 160.02L137.691 155.212V166.14L148.195 160.02Z" fill="#FCFCFD"/>
</g>
<defs>
<linearGradient id="paint0_linear_1769_39628" x1="11980" y1="28516" x2="-4300" y2="-66822" gradientUnits="userSpaceOnUse">
<stop stop-color="#27A8CF"/>
<stop offset="1" stop-color="#64F0A1"/>
</linearGradient>
<linearGradient id="paint1_linear_1769_39628" x1="11980" y1="28516" x2="-4300" y2="-66822" gradientUnits="userSpaceOnUse">
<stop stop-color="#27A8CF"/>
<stop offset="1" stop-color="#64F0A1"/>
</linearGradient>
<clipPath id="clip0_1769_39628">
<rect width="200" height="200" fill="white"/>
</clipPath>
</defs>
</svg>
