<svg width="200" height="200" viewBox="0 0 200 200" fill="none" xmlns="http://www.w3.org/2000/svg">
<g clip-path="url(#clip0_3745_77112)">
<path fill-rule="evenodd" clip-rule="evenodd" d="M175.13 165.998C190.612 148.388 200 125.29 200 100C200 44.7716 155.228 0 100 0C44.7716 0 0 44.7716 0 100C0 155.228 44.7716 200 100 200C109.074 200 117.865 198.792 126.222 196.527C111.011 191.652 100 177.393 100 160.563C100 139.709 116.905 122.804 137.759 122.804C158.613 122.804 175.518 139.709 175.518 160.563C175.518 162.409 175.386 164.223 175.13 165.998Z" fill="white"/>
<mask id="mask0_3745_77112" style="mask-type:alpha" maskUnits="userSpaceOnUse" x="0" y="0" width="200" height="200">
<path fill-rule="evenodd" clip-rule="evenodd" d="M175.13 165.998C190.612 148.388 200 125.29 200 100C200 44.7716 155.228 0 100 0C44.7716 0 0 44.7716 0 100C0 155.228 44.7716 200 100 200C109.074 200 117.865 198.792 126.222 196.527C111.011 191.652 100 177.393 100 160.563C100 139.709 116.905 122.804 137.759 122.804C158.613 122.804 175.518 139.709 175.518 160.563C175.518 162.409 175.386 164.223 175.13 165.998Z" fill="#F7931A"/>
</mask>
<g mask="url(#mask0_3745_77112)">
<path d="M158.216 46.4058L153.191 51.4305C165.181 64.5422 171.83 81.6661 171.83 99.4333C171.83 117.2 165.181 134.324 153.191 147.436L158.216 152.461C171.55 137.998 178.953 119.046 178.953 99.3746C178.953 79.703 171.55 60.7517 158.216 46.2886V46.4058Z" fill="#595564"/>
<path d="M52.5482 46.8408C65.6599 34.851 82.7838 28.2021 100.551 28.2021C118.318 28.2021 135.442 34.851 148.554 46.8408L153.578 41.8161C139.115 28.4822 120.164 21.0793 100.492 21.0793C80.8206 21.0793 61.8694 28.4822 47.4062 41.8161L52.5482 46.8408Z" fill="#595564"/>
<path d="M47.8396 147.486C35.864 134.377 29.2238 117.264 29.2238 99.5084C29.2238 81.753 35.864 64.6396 47.8396 51.5308L42.8149 46.5061C29.481 60.9692 22.0781 79.9205 22.0781 99.5922C22.0781 119.264 29.481 138.215 42.8149 152.678L47.8396 147.486Z" fill="#595564"/>
<path d="M148.487 152.125C135.376 164.115 118.252 170.764 100.484 170.764C82.7173 170.764 65.5934 164.115 52.4817 152.125L47.457 157.15C61.9201 170.484 80.8714 177.887 100.543 177.887C120.215 177.887 139.166 170.484 153.629 157.15L148.487 152.125Z" fill="#595564"/>
<path d="M132.221 82.7342C131.216 72.2493 122.171 68.732 110.732 67.6601V53.2224H101.888V67.3921C99.5602 67.3921 97.1818 67.3921 94.8202 67.3921V53.2224H86.0437V67.7606H68.1055V77.2238C68.1055 77.2238 74.6376 77.1065 74.5371 77.2238C75.7149 77.0942 76.897 77.4269 77.8343 78.1518C78.7716 78.8766 79.391 79.937 79.5618 81.1096V120.905C79.5366 121.319 79.4288 121.723 79.2447 122.094C79.0606 122.465 78.8039 122.796 78.4899 123.066C78.1817 123.341 77.8211 123.551 77.4296 123.684C77.0382 123.816 76.624 123.868 76.212 123.836C76.3292 123.937 69.7804 123.836 69.7804 123.836L68.1055 134.405H85.8762V149.178H94.7197V134.623H101.788V149.111H110.648V134.505C125.588 133.601 136.006 129.916 137.312 115.931C138.368 104.675 133.075 99.6507 124.617 97.6241C129.759 95.095 132.941 90.4053 132.221 82.7342ZM119.826 114.189C119.826 125.176 101.001 123.92 95.0044 123.92V104.424C101.001 104.441 119.826 102.716 119.826 114.189ZM115.723 86.7205C115.723 96.7699 100.012 95.5472 95.0212 95.5472V77.8267C100.012 77.8267 115.723 76.2523 115.723 86.7205Z" fill="#F7931A"/>
<path d="M100.483 191C82.3877 190.997 64.6994 185.628 49.6549 175.572C34.6104 165.517 22.8852 151.227 15.9619 134.508C9.03852 117.789 7.22792 99.3928 10.759 81.6451C14.2901 63.8975 23.0043 47.5953 35.7998 34.7998C48.5953 22.0043 64.8975 13.2901 82.6451 9.759C100.393 6.22792 118.789 8.03852 135.508 14.9619C152.227 21.8852 166.517 33.6104 176.572 48.6549C186.628 63.6994 191.997 81.3877 192 99.4833C192.002 111.502 189.637 123.403 185.038 134.508C180.44 145.612 173.699 155.702 165.2 164.2C156.702 172.699 146.612 179.44 135.508 184.038C124.403 188.637 112.502 191.002 100.483 191ZM100.483 15.1351C83.8117 15.1484 67.5182 20.1038 53.6623 29.3749C39.8064 38.6461 29.01 51.8169 22.6377 67.2226C16.2654 82.6283 14.6033 99.5773 17.8614 115.927C21.1196 132.278 29.1517 147.295 40.9427 159.081C52.7336 170.867 67.754 178.893 84.1054 182.145C100.457 185.397 117.405 183.728 132.808 177.35C148.212 170.971 161.378 160.169 170.644 146.31C179.909 132.45 184.858 116.155 184.865 99.4833C184.869 88.4025 182.689 77.4294 178.45 67.1917C174.211 56.9539 167.995 47.6522 160.158 39.8185C152.321 31.9847 143.017 25.7725 132.777 21.5372C122.538 17.3018 111.564 15.1263 100.483 15.1351Z" fill="#29233B"/>
</g>
<path d="M166.684 160.592C166.684 176.634 153.732 189.595 137.681 189.595C121.629 189.595 108.688 176.634 108.688 160.592C108.688 153.603 111.155 147.325 115.163 142.29C115.469 141.876 115.775 141.471 116.19 141.155C121.54 135.291 129.142 131.589 137.681 131.589C143.288 131.589 148.51 133.169 152.942 135.913C156.684 138.223 159.852 141.372 162.202 145.084C165.045 149.576 166.684 154.886 166.684 160.592Z" fill="#606060"/>
<path d="M166.684 160.592C166.684 176.634 153.732 189.595 137.681 189.595C121.629 189.595 108.688 176.634 108.688 160.592C108.688 153.603 111.155 147.325 115.163 142.29C115.469 141.876 115.775 141.471 116.19 141.155C121.54 135.291 129.142 131.589 137.681 131.589C143.288 131.589 148.51 133.169 152.942 135.913C156.684 138.223 159.852 141.372 162.202 145.084C165.045 149.576 166.684 154.886 166.684 160.592Z" fill="#28374F"/>
<path d="M137.691 142.774L127.188 160.02L137.691 166.14V142.774Z" fill="#FCFCFD"/>
<path d="M137.691 169.526V178.411L126.98 163.277L137.691 169.526Z" fill="#FCFCFD"/>
<path d="M127.188 160.02L137.691 155.212V166.14L127.188 160.02Z" fill="#FCFCFD"/>
<path d="M137.691 142.774L148.195 160.02L137.691 166.14V142.774Z" fill="#FCFCFD"/>
<path d="M148.392 163.277L137.691 178.411V169.526L148.392 163.277Z" fill="#FCFCFD"/>
<path d="M148.195 160.02L137.691 155.212V166.14L148.195 160.02Z" fill="#FCFCFD"/>
</g>
<defs>
<clipPath id="clip0_3745_77112">
<rect width="200" height="200" fill="white"/>
</clipPath>
</defs>
</svg>
