<?xml version="1.0" standalone="no"?>
<!DOCTYPE svg PUBLIC "-//W3C//DTD SVG 20010904//EN"
 "http://www.w3.org/TR/2001/REC-SVG-20010904/DTD/svg10.dtd">
<svg version="1.0" xmlns="http://www.w3.org/2000/svg"
 width="150.000000pt" height="150.000000pt" viewBox="0 0 150.000000 150.000000"
 preserveAspectRatio="xMidYMid meet">
<metadata>
Created by potrace 1.10, written by Peter Selinger 2001-2011
</metadata>
<g transform="translate(0.000000,150.000000) scale(0.100000,-0.100000)"
fill="#000000" stroke="none">
<path d="M477 1282 c-9 -10 -29 -44 -44 -77 -24 -52 -28 -72 -28 -150 0 -74
-3 -92 -18 -103 -32 -24 -60 -93 -59 -148 0 -66 27 -117 87 -173 40 -37 48
-50 51 -87 4 -48 31 -110 60 -135 52 -46 107 -63 204 -63 84 -1 102 3 157 28
68 31 138 98 149 141 4 14 4 43 1 64 -4 33 -1 42 26 67 83 78 91 214 19 297
-12 14 -16 41 -17 115 0 79 -4 106 -23 147 -53 115 -96 124 -183 38 l-57 -58
-69 1 -68 2 -56 56 c-61 61 -101 73 -132 38z m494 -12 c10 -6 19 -15 19 -21 0
-6 -7 -3 -16 5 -8 9 -22 16 -31 16 -17 0 -130 -107 -125 -118 2 -4 -1 -8 -7
-10 -19 -6 -12 16 12 40 54 53 108 98 118 98 6 0 19 -5 30 -10z m26 -90 c20
-45 24 -67 22 -130 -2 -41 0 -81 5 -88 4 -6 5 -16 2 -21 -3 -5 1 -15 10 -22
43 -35 58 -133 30 -187 -22 -42 -133 -142 -190 -171 -45 -22 -65 -26 -161 -27
-89 -2 -111 -5 -113 -17 -6 -28 36 -40 127 -35 103 6 182 34 237 84 31 28 34
34 16 29 -22 -6 -22 -6 3 19 14 14 27 26 28 26 1 0 2 -14 3 -30 1 -19 -4 -30
-12 -30 -9 0 -14 -12 -14 -32 0 -44 -69 -109 -147 -138 -72 -27 -166 -25 -233
6 -25 12 -57 26 -72 32 -33 14 -36 32 -8 39 20 5 20 5 -1 31 -14 18 -19 38
-17 64 2 33 -2 41 -27 57 -46 27 -93 86 -105 131 -13 47 2 109 32 136 10 10
18 25 18 34 0 27 51 96 100 133 51 40 117 64 187 70 55 5 73 0 73 -19 0 -25
29 -14 46 17 8 17 36 51 60 76 53 53 63 49 101 -37z m-447 57 c8 -7 28 -27 43
-46 21 -25 25 -36 16 -42 -8 -4 -20 4 -33 24 -29 43 -53 49 -32 9 23 -44 20
-59 -13 -76 -16 -9 -40 -29 -55 -46 l-26 -32 0 45 c0 70 44 177 73 177 6 0 19
-6 27 -13z m41 -4 c13 -16 12 -17 -3 -4 -10 7 -18 15 -18 17 0 8 8 3 21 -13z
m428 -33 c0 -10 -3 -8 -9 5 -12 27 -12 43 0 25 5 -8 9 -22 9 -30z m-394 10 c3
-5 1 -10 -4 -10 -6 0 -11 5 -11 10 0 6 2 10 4 10 3 0 8 -4 11 -10z m-172 -25
c-3 -9 -8 -14 -10 -11 -3 3 -2 9 2 15 9 16 15 13 8 -4z m207 -25 c0 -14 -14
-12 -28 2 -19 19 -14 30 8 18 11 -6 20 -15 20 -20z m47 4 c-3 -3 -12 -4 -19
-1 -8 3 -5 6 6 6 11 1 17 -2 13 -5z m342 -106 c1 -32 -2 -58 -6 -58 -5 0 -8
34 -8 75 0 42 3 67 7 58 3 -10 7 -44 7 -75z m-609 -50 c0 -5 -4 -8 -10 -8 -5
0 -10 10 -10 23 0 18 2 19 10 7 5 -8 10 -18 10 -22z m635 -88 c26 -29 14 -33
-14 -4 -13 13 -19 24 -14 24 6 0 18 -9 28 -20z m-713 -67 c-3 -16 -7 -22 -10
-15 -4 13 4 42 11 42 2 0 2 -12 -1 -27z m748 -27 c0 -39 -6 -31 -14 19 -5 29
-4 36 3 25 6 -8 11 -28 11 -44z m-731 -106 c8 -14 23 -36 35 -50 l21 -25 -27
24 c-35 31 -58 81 -57 123 1 32 2 32 8 -7 4 -22 13 -51 20 -65z m721 20 c-6
-11 -12 -20 -14 -20 -2 0 -2 9 1 20 3 11 9 20 15 20 5 0 4 -9 -2 -20z m-23
-52 c-3 -8 -6 -5 -6 6 -1 11 2 17 5 13 3 -3 4 -12 1 -19z m-602 -69 c11 -17
-1 -21 -15 -4 -8 9 -8 15 -2 15 6 0 14 -5 17 -11z m436 -69 c-13 -11 -28 -20
-34 -20 -13 0 -4 9 25 26 33 18 36 16 9 -6z m99 -45 c-6 -19 -16 -33 -21 -30
-5 4 -9 -1 -9 -9 0 -9 -7 -16 -16 -16 -12 0 -10 7 10 31 14 17 29 43 33 57 3
15 8 21 10 15 3 -7 -1 -29 -7 -48z m-233 -1 c-3 -3 -12 -4 -19 -1 -8 3 -5 6 6
6 11 1 17 -2 13 -5z m173 -68 c0 -2 -7 -7 -16 -10 -8 -3 -12 -2 -9 4 6 10 25
14 25 6z m-338 -46 c6 0 9 -3 6 -6 -9 -8 -48 14 -48 27 0 6 7 3 16 -5 8 -9 20
-16 26 -16z m289 16 c-13 -15 -64 -29 -55 -15 3 5 14 9 24 9 10 0 22 5 25 10
3 6 9 10 12 10 3 0 0 -6 -6 -14z m-231 -32 c0 -2 -9 -4 -20 -4 -11 0 -20 4
-20 9 0 5 9 7 20 4 11 -3 20 -7 20 -9z m115 -4 c-11 -5 -29 -8 -40 -8 -16 0
-15 2 5 8 34 11 60 11 35 0z"/>
<path d="M896 1177 c-32 -42 -45 -97 -24 -97 9 0 30 -16 49 -35 19 -19 38 -35
42 -35 5 0 -10 17 -32 38 -23 21 -41 45 -41 54 0 8 11 36 25 62 28 54 17 61
-19 13z"/>
<path d="M958 1183 c5 -10 17 -35 27 -56 10 -21 20 -36 22 -33 7 6 -40 106
-50 106 -4 0 -4 -8 1 -17z"/>
<path d="M695 1119 c-95 -12 -206 -87 -235 -160 -8 -19 -27 -52 -42 -73 -31
-44 -36 -86 -14 -137 14 -34 76 -102 76 -83 0 5 -12 20 -26 34 -49 46 -61 133
-23 171 20 20 37 21 85 2 13 -5 16 -3 12 8 -10 25 19 79 42 79 12 0 20 -7 20
-16 0 -12 -6 -15 -21 -11 -17 5 -20 1 -17 -22 1 -17 -6 -38 -20 -55 -12 -16
-22 -35 -22 -43 0 -27 31 -74 55 -83 19 -7 25 -17 25 -40 0 -42 31 -70 79 -70
32 0 44 6 65 31 14 17 26 38 26 46 0 9 17 31 38 49 30 26 35 35 25 45 -10 10
-18 8 -41 -14 -32 -31 -91 -37 -116 -11 -21 21 -20 31 4 39 34 11 44 41 20 65
-24 24 -67 26 -98 4 -29 -20 -28 -30 9 -65 l31 -29 -27 -12 c-34 -15 -59 -1
-63 36 -4 33 20 73 54 88 26 12 33 55 12 76 -31 31 -87 3 -88 -44 0 -17 -6
-20 -39 -20 -35 1 -38 3 -25 17 8 8 14 21 14 29 0 10 3 10 14 1 10 -8 16 -9
21 -1 4 6 1 9 -6 8 -25 -6 -18 19 15 51 l34 33 27 -29 c24 -25 26 -25 15 -4
-14 27 -1 47 24 38 18 -7 22 -57 4 -57 -6 0 -9 -2 -6 -5 3 -3 13 -3 22 1 18 7
23 64 5 64 -5 0 -7 5 -3 12 4 7 3 8 -4 4 -7 -4 -12 -2 -12 3 0 6 6 11 14 11 8
0 16 5 18 11 2 6 30 13 62 15 32 2 60 5 63 7 9 9 -35 13 -82 6z m-120 -69 c-3
-5 -12 -10 -18 -10 -7 0 -6 4 3 10 19 12 23 12 15 0z m70 -179 c-16 -14 -55
-23 -55 -12 0 9 20 17 50 20 8 1 10 -2 5 -8z m35 -21 c0 -12 -42 -51 -48 -45
-3 2 1 13 9 22 11 15 11 16 -1 6 -16 -15 -30 -17 -30 -5 0 5 12 13 28 19 36
14 42 15 42 3z m-42 -92 c-3 -14 -24 -38 -33 -38 -3 0 2 11 11 25 18 27 25 32
22 13z m32 -68 c5 0 13 6 17 13 8 15 53 30 53 19 0 -19 -40 -70 -58 -74 -33
-9 -65 19 -57 51 9 37 29 46 33 16 2 -14 7 -25 12 -25z"/>
<path d="M926 1111 c-17 -19 -17 -21 16 -50 38 -34 42 -30 30 24 -9 46 -22 53
-46 26z m34 -31 c0 -17 -2 -19 -14 -8 -14 13 -12 28 5 28 5 0 9 -9 9 -20z"/>
<path d="M779 1083 c6 -13 8 -23 3 -23 -4 0 -19 -14 -31 -31 -13 -18 -19 -29
-13 -26 5 4 12 -2 15 -13 4 -17 9 -18 41 -8 20 6 36 16 36 21 0 6 9 2 19 -7
14 -13 21 -14 27 -5 4 7 3 10 -4 5 -6 -3 -13 -2 -17 4 -3 5 -1 10 4 10 6 0 11
5 11 11 0 8 -5 8 -15 -1 -12 -10 -15 -9 -15 7 0 10 5 24 11 30 8 8 8 13 0 18
-6 3 -10 3 -9 -2 3 -8 -5 -13 -22 -13 -5 0 -19 10 -31 23 l-21 22 11 -22z m44
-47 c7 -17 -23 -46 -46 -46 -20 0 -22 13 -5 40 15 23 43 26 51 6z"/>
<path d="M973 1002 c-12 -8 -12 -24 2 -56 6 -13 4 -21 -3 -24 -20 -6 -14 -31
7 -25 12 3 31 -8 57 -34 l39 -38 -21 35 c-11 19 -31 41 -45 47 -13 7 -18 13
-9 13 12 0 12 2 2 9 -8 5 -14 25 -15 45 -1 20 -1 36 -1 36 -1 0 -6 -4 -13 -8z"/>
<path d="M770 950 c-11 -11 -20 -31 -20 -45 0 -14 -3 -25 -6 -25 -12 0 -33 28
-26 35 4 5 1 5 -6 1 -7 -4 -18 -3 -25 2 -7 6 -21 6 -34 1 -29 -11 -29 -14 3
-17 29 -2 61 -17 89 -42 11 -10 31 -21 45 -25 21 -6 20 -4 -7 14 -32 20 -32
21 -19 53 17 40 41 57 57 41 16 -16 1 -36 -22 -30 -14 4 -19 0 -19 -17 0 -45
52 -62 83 -28 35 38 5 102 -48 102 -14 0 -34 -9 -45 -20z m86 -47 c-4 -26 -33
-40 -48 -24 -7 8 -8 11 -2 8 6 -3 17 3 24 14 18 24 29 25 26 2z"/>
<path d="M883 864 l-28 -26 27 16 c37 22 91 21 111 -2 24 -26 21 -83 -6 -123
-81 -121 -289 -184 -408 -124 -48 24 -61 22 -36 -4 9 -11 9 -13 0 -7 -7 4 -13
4 -13 -1 0 -12 46 -53 59 -53 15 0 9 23 -9 33 -8 4 -1 4 15 1 64 -14 132 -14
170 -1 22 8 48 13 58 11 9 -1 17 2 17 8 0 6 6 8 14 5 8 -3 16 -2 18 2 7 18
100 81 110 75 7 -4 8 -3 4 5 -7 11 27 65 36 56 2 -2 4 4 4 13 0 9 4 28 8 41 5
15 5 21 -2 17 -6 -3 -8 1 -5 12 7 27 -39 67 -80 70 -26 2 -43 -4 -64 -24z"/>
<path d="M925 500 c-21 -22 -44 -40 -50 -40 -6 0 -19 -6 -29 -13 -16 -12 -16
-14 -2 -14 9 0 16 4 16 9 0 5 4 7 9 3 9 -5 63 41 90 78 23 29 7 19 -34 -23z"/>
<path d="M760 450 c-19 -11 -51 -23 -70 -29 -34 -10 -34 -11 12 -6 50 5 84 21
92 42 3 7 4 13 3 12 -1 -1 -18 -9 -37 -19z"/>
<path d="M512 1227 c-16 -19 -42 -95 -41 -121 0 -11 9 4 20 34 11 30 25 63 30
73 13 23 6 32 -9 14z"/>
<path d="M507 1123 c-12 -12 -7 -22 8 -17 8 4 15 10 15 15 0 11 -14 12 -23 2z"/>
<path d="M1100 1006 c0 -8 4 -17 9 -20 5 -4 7 3 4 14 -6 23 -13 26 -13 6z"/>
<path d="M343 985 c0 -8 4 -12 9 -9 5 3 6 10 3 15 -9 13 -12 11 -12 -6z"/>
<path d="M325 941 c-3 -5 -2 -12 3 -15 5 -3 9 1 9 9 0 17 -3 19 -12 6z"/>
<path d="M400 590 c0 -5 5 -10 11 -10 5 0 7 5 4 10 -3 6 -8 10 -11 10 -2 0 -4
-4 -4 -10z"/>
</g>
</svg>
