<?xml version="1.0" encoding="UTF-8"?>
<!DOCTYPE svg PUBLIC "-//W3C//DTD SVG 1.1//EN" "http://www.w3.org/Graphics/SVG/1.1/DTD/svg11.dtd">
<svg xmlns="http://www.w3.org/2000/svg" version="1.1" width="200px" height="200px" style="shape-rendering:geometricPrecision; text-rendering:geometricPrecision; image-rendering:optimizeQuality; fill-rule:evenodd; clip-rule:evenodd" xmlns:xlink="http://www.w3.org/1999/xlink">
<g><path style="opacity:1" fill="#f8fbfb" d="M -0.5,-0.5 C 4.16667,-0.5 8.83333,-0.5 13.5,-0.5C 13.3832,9.02582 12.3832,18.3591 10.5,27.5C 6.83333,32.1667 3.16667,36.8333 -0.5,41.5C -0.5,27.5 -0.5,13.5 -0.5,-0.5 Z"/></g>
<g><path style="opacity:1" fill="#fbfcfd" d="M 195.5,-0.5 C 196.833,-0.5 198.167,-0.5 199.5,-0.5C 199.5,66.1667 199.5,132.833 199.5,199.5C 132.833,199.5 66.1667,199.5 -0.5,199.5C -0.5,192.167 -0.5,184.833 -0.5,177.5C 1.83673,175.334 4.33673,173.334 7,171.5C 7.38258,172.056 7.88258,172.389 8.5,172.5C 9.16667,172.5 9.83333,172.5 10.5,172.5C 14.6925,180.364 19.6925,187.697 25.5,194.5C 27.7427,195.474 30.076,195.808 32.5,195.5C 44.8333,195.5 57.1667,195.5 69.5,195.5C 69.8333,195.5 70.1667,195.5 70.5,195.5C 71.1667,195.5 71.8333,195.5 72.5,195.5C 72.8333,195.5 73.1667,195.5 73.5,195.5C 77.5,195.5 81.5,195.5 85.5,195.5C 86.8333,195.5 88.1667,195.5 89.5,195.5C 92.8333,195.5 96.1667,195.5 99.5,195.5C 101.167,195.5 102.833,195.5 104.5,195.5C 104.833,195.5 105.167,195.5 105.5,195.5C 105.833,195.5 106.167,195.5 106.5,195.5C 107.5,195.5 108.5,195.5 109.5,195.5C 131.167,195.5 152.833,195.5 174.5,195.5C 177.509,195.577 179.676,194.244 181,191.5C 183.512,187.139 186.012,182.806 188.5,178.5C 191.984,173.544 194.318,168.211 195.5,162.5C 195.5,160.167 195.5,157.833 195.5,155.5C 195.5,154.167 195.5,152.833 195.5,151.5C 195.5,148.167 195.5,144.833 195.5,141.5C 195.5,140.833 195.5,140.167 195.5,139.5C 195.5,132.833 195.5,126.167 195.5,119.5C 195.5,118.833 195.5,118.167 195.5,117.5C 195.5,98.5 195.5,79.5 195.5,60.5C 195.5,55.8333 195.5,51.1667 195.5,46.5C 195.818,41.9677 195.485,37.6344 194.5,33.5C 192.148,27.8409 192.315,22.1742 195,16.5C 195.499,10.8431 195.666,5.17645 195.5,-0.5 Z"/></g>
<g><path style="opacity:1" fill="#0551f2" d="M 187.5,-0.5 C 189.833,-0.5 192.167,-0.5 194.5,-0.5C 194.821,5.02621 194.488,10.3595 193.5,15.5C 192,16.5875 190.667,17.9208 189.5,19.5C 188.5,18.5 187.5,17.5 186.5,16.5C 187.454,10.8955 187.788,5.22887 187.5,-0.5 Z"/></g>
<g><path style="opacity:1" fill="#4d60ad" d="M 13.5,-0.5 C 13.8333,-0.5 14.1667,-0.5 14.5,-0.5C 14.6664,8.17307 14.4998,16.8397 14,25.5C 12.8873,26.305 11.7206,26.9717 10.5,27.5C 12.3832,18.3591 13.3832,9.02582 13.5,-0.5 Z"/></g>
<g><path style="opacity:1" fill="#0550e3" d="M 15.5,-0.5 C 17.8333,-0.5 20.1667,-0.5 22.5,-0.5C 22.5,4.83333 22.5,10.1667 22.5,15.5C 26.2407,16.4015 28.2407,15.0681 28.5,11.5C 31.2849,8.89415 34.2849,6.39415 37.5,4C 38.8825,2.72917 39.8825,1.22917 40.5,-0.5C 41.5,-0.5 42.5,-0.5 43.5,-0.5C 41.227,1.7987 39.227,4.46537 37.5,7.5C 35.8068,8.22833 34.3068,9.22833 33,10.5C 30.7753,13.2003 29.2753,16.2003 28.5,19.5C 24.7956,19.2764 21.129,19.1097 17.5,19C 17.1667,19.3333 16.8333,19.6667 16.5,20C 17.1667,21.6667 17.8333,23.3333 18.5,25C 16.5384,27.3132 14.2051,29.1465 11.5,30.5C 11.7619,28.4362 12.9286,27.1029 15,26.5C 15.4998,17.5062 15.6664,8.50617 15.5,-0.5 Z"/></g>
<g><path style="opacity:1" fill="#0453b1" d="M 22.5,-0.5 C 23.5,-0.5 24.5,-0.5 25.5,-0.5C 25.1744,3.88387 25.5078,8.2172 26.5,12.5C 27.1835,12.1373 27.8501,11.8039 28.5,11.5C 28.2407,15.0681 26.2407,16.4015 22.5,15.5C 22.5,10.1667 22.5,4.83333 22.5,-0.5 Z"/></g>
<g><path style="opacity:1" fill="#0683f5" d="M 25.5,-0.5 C 30.5,-0.5 35.5,-0.5 40.5,-0.5C 39.8825,1.22917 38.8825,2.72917 37.5,4C 34.2849,6.39415 31.2849,8.89415 28.5,11.5C 27.8501,11.8039 27.1835,12.1373 26.5,12.5C 25.5078,8.2172 25.1744,3.88387 25.5,-0.5 Z"/></g>
<g><path style="opacity:1" fill="#0641c3" d="M 172.5,-0.5 C 173.167,-0.5 173.833,-0.5 174.5,-0.5C 172.457,9.11718 176.124,14.7838 185.5,16.5C 185.5,10.8333 185.5,5.16667 185.5,-0.5C 186.167,-0.5 186.833,-0.5 187.5,-0.5C 187.788,5.22887 187.454,10.8955 186.5,16.5C 187.5,17.5 188.5,18.5 189.5,19.5C 190.667,17.9208 192,16.5875 193.5,15.5C 191.677,21.9401 191.01,28.6067 191.5,35.5C 193.179,35.7148 194.179,35.0481 194.5,33.5C 195.485,37.6344 195.818,41.9677 195.5,46.5C 194.25,46.4226 193.417,45.756 193,44.5C 191.319,37.5209 189.819,30.5209 188.5,23.5C 185.459,23.5944 183.793,22.0944 183.5,19C 181.527,18.5045 179.527,18.3379 177.5,18.5C 177.5,17.5 177.5,16.5 177.5,15.5C 174.5,15.8333 173.167,14.5 173.5,11.5C 170.512,11.8453 169.179,10.512 169.5,7.5C 170.515,4.82589 171.515,2.15922 172.5,-0.5 Z"/></g>
<g><path style="opacity:1" fill="#0b80f0" d="M 174.5,-0.5 C 178.167,-0.5 181.833,-0.5 185.5,-0.5C 185.5,5.16667 185.5,10.8333 185.5,16.5C 176.124,14.7838 172.457,9.11718 174.5,-0.5 Z"/></g>
<g><path style="opacity:1" fill="#0351f9" d="M 43.5,-0.5 C 86.5,-0.5 129.5,-0.5 172.5,-0.5C 171.515,2.15922 170.515,4.82589 169.5,7.5C 169.179,10.512 170.512,11.8453 173.5,11.5C 173.167,14.5 174.5,15.8333 177.5,15.5C 177.5,16.5 177.5,17.5 177.5,18.5C 179.527,18.3379 181.527,18.5045 183.5,19C 183.793,22.0944 185.459,23.5944 188.5,23.5C 189.819,30.5209 191.319,37.5209 193,44.5C 193.417,45.756 194.25,46.4226 195.5,46.5C 195.5,51.1667 195.5,55.8333 195.5,60.5C 193.888,59.5477 192.388,59.2144 191,59.5C 190.667,60.1667 190.333,60.8333 190,61.5C 188.796,60.5294 188.296,59.5294 188.5,58.5C 187.571,59.6888 187.238,61.0222 187.5,62.5C 186.5,62.5 185.5,62.5 184.5,62.5C 186.321,53.3627 186.988,44.5294 186.5,36C 185.365,35.2506 184.365,35.4173 183.5,36.5C 182.926,38.0589 182.26,39.5589 181.5,41C 183.607,42.2635 184.607,44.0968 184.5,46.5C 182.088,46.756 180.421,45.756 179.5,43.5C 178.614,44.325 178.281,45.325 178.5,46.5C 177.833,46.5 177.167,46.5 176.5,46.5C 176.167,44.5 175.833,42.5 175.5,40.5C 175.5,38.1667 175.5,35.8333 175.5,33.5C 173.067,33.7271 171.401,32.7271 170.5,30.5C 170.649,29.448 170.483,28.448 170,27.5C 168.027,25.7721 166.194,23.9387 164.5,22C 162.167,21.6667 159.833,21.3333 157.5,21C 156.663,19.9887 156.33,18.8221 156.5,17.5C 154.5,17.5 152.5,17.5 150.5,17.5C 147.819,17.5379 145.319,16.8713 143,15.5C 135.629,16.1833 128.462,17.6833 121.5,20C 116.261,24.0889 110.928,27.9223 105.5,31.5C 100.517,35.4679 97.184,40.4679 95.5,46.5C 94.5076,54.3159 94.1743,62.3159 94.5,70.5C 93.5041,70.5858 92.6708,70.2524 92,69.5C 91.855,65.9627 91.0216,62.6294 89.5,59.5C 88.5052,64.7921 88.1718,70.1254 88.5,75.5C 87.1667,75.5 85.8333,75.5 84.5,75.5C 84.937,79.4545 83.6037,82.6212 80.5,85C 81.0795,86.9142 82.0795,88.5809 83.5,90C 82.472,91.9706 80.8053,93.1372 78.5,93.5C 77.0646,92.9035 75.398,92.9035 73.5,93.5C 72.2825,92.8386 70.9492,92.1719 69.5,91.5C 69.8627,90.8165 70.1961,90.1499 70.5,89.5C 71.8734,89.6567 73.2068,89.49 74.5,89C 76.3333,85.8333 78.8333,83.3333 82,81.5C 82.4828,80.552 82.6495,79.552 82.5,78.5C 82.8792,75.7469 84.3792,73.7469 87,72.5C 87.8206,65.6536 87.654,58.987 86.5,52.5C 86.1249,50.3024 85.4582,48.3024 84.5,46.5C 84.8064,43.6146 84.4731,40.9479 83.5,38.5C 82.5145,34.5568 81.8478,30.5568 81.5,26.5C 78.9837,26.2447 76.6504,25.4114 74.5,24C 75.8333,23 75.8333,22 74.5,21C 71.6287,20.8823 68.962,20.2156 66.5,19C 57.7445,18.3826 49.0779,19.0493 40.5,21C 34.4709,23.0581 28.4709,25.0581 22.5,27C 20.811,30.9724 18.311,34.4724 15,37.5C 14.502,40.4816 14.3354,43.4816 14.5,46.5C 14.1667,46.5 13.8333,46.5 13.5,46.5C 9.95,54.6667 9.61667,63.0001 12.5,71.5C 11.7677,70.1917 10.9344,68.8584 10,67.5C 9.82752,63.1289 9.32752,58.7956 8.5,54.5C 7.51078,58.1073 7.17744,61.774 7.5,65.5C 6.16667,65.5 4.83333,65.5 3.5,65.5C 3.71901,64.325 3.38568,63.325 2.5,62.5C 2.26196,65.9708 1.76196,69.6375 1,73.5C 0.617425,74.056 0.117425,74.3893 -0.5,74.5C -0.5,64.1667 -0.5,53.8333 -0.5,43.5C 0.822066,43.67 1.98873,43.3366 3,42.5C 5.25405,38.9934 7.25405,35.3267 9,31.5C 9.67076,30.7476 10.5041,30.4142 11.5,30.5C 14.2051,29.1465 16.5384,27.3132 18.5,25C 17.8333,23.3333 17.1667,21.6667 16.5,20C 16.8333,19.6667 17.1667,19.3333 17.5,19C 21.129,19.1097 24.7956,19.2764 28.5,19.5C 29.2753,16.2003 30.7753,13.2003 33,10.5C 34.3068,9.22833 35.8068,8.22833 37.5,7.5C 39.227,4.46537 41.227,1.7987 43.5,-0.5 Z"/></g>
<g><path style="opacity:1" fill="#0941ca" d="M 83.5,38.5 C 82.4274,37.3421 81.2607,37.3421 80,38.5C 78.699,38.3613 77.8656,37.6946 77.5,36.5C 78.4959,36.4142 79.3292,36.7476 80,37.5C 80.2942,31.1857 77.4609,26.6857 71.5,24C 68.5547,22.8695 65.5547,22.0362 62.5,21.5C 62.5,22.8333 62.5,24.1667 62.5,25.5C 59.4816,25.3354 56.4816,25.502 53.5,26C 57.3563,26.1773 61.023,26.6773 64.5,27.5C 55.4104,27.0225 46.7437,28.3558 38.5,31.5C 33.6576,31.9101 28.9909,33.0768 24.5,35C 22.2101,36.7772 20.5434,38.9438 19.5,41.5C 16.7154,42.0835 15.0487,43.7502 14.5,46.5C 14.3354,43.4816 14.502,40.4816 15,37.5C 18.311,34.4724 20.811,30.9724 22.5,27C 28.4709,25.0581 34.4709,23.0581 40.5,21C 49.0779,19.0493 57.7445,18.3826 66.5,19C 68.962,20.2156 71.6287,20.8823 74.5,21C 75.8333,22 75.8333,23 74.5,24C 76.6504,25.4114 78.9837,26.2447 81.5,26.5C 81.8478,30.5568 82.5145,34.5568 83.5,38.5 Z"/></g>
<g><path style="opacity:1" fill="#074ee6" d="M 150.5,17.5 C 152.5,17.5 154.5,17.5 156.5,17.5C 156.33,18.8221 156.663,19.9887 157.5,21C 159.833,21.3333 162.167,21.6667 164.5,22C 166.194,23.9387 168.027,25.7721 170,27.5C 170.483,28.448 170.649,29.448 170.5,30.5C 168.974,29.8953 167.974,28.7286 167.5,27C 159.655,26.1777 151.989,26.3443 144.5,27.5C 143.791,28.404 142.791,28.7373 141.5,28.5C 140.411,26.8829 138.744,26.0496 136.5,26C 138.715,25.8295 140.715,25.1628 142.5,24C 138.63,23.8949 134.963,23.0615 131.5,21.5C 132.025,20.8076 132.692,20.3076 133.5,20C 139.833,19.6667 146.167,19.3333 152.5,19C 151.584,18.7216 150.918,18.2216 150.5,17.5 Z"/></g>
<g><path style="opacity:1" fill="#093bb4" d="M 150.5,17.5 C 150.918,18.2216 151.584,18.7216 152.5,19C 146.167,19.3333 139.833,19.6667 133.5,20C 132.692,20.3076 132.025,20.8076 131.5,21.5C 134.963,23.0615 138.63,23.8949 142.5,24C 140.715,25.1628 138.715,25.8295 136.5,26C 138.744,26.0496 140.411,26.8829 141.5,28.5C 137.027,29.0506 132.693,29.7173 128.5,30.5C 126.735,31.4614 124.735,31.7947 122.5,31.5C 116.833,31.5 111.167,31.5 105.5,31.5C 110.928,27.9223 116.261,24.0889 121.5,20C 128.462,17.6833 135.629,16.1833 143,15.5C 145.319,16.8713 147.819,17.5379 150.5,17.5 Z"/></g>
<g><path style="opacity:1" fill="#0a65f1" d="M 87.5,16.5 C 86.032,17.7791 85.3653,19.4458 85.5,21.5C 88.1085,21.5997 90.4418,20.9331 92.5,19.5C 90.2261,22.7024 87.2261,23.7024 83.5,22.5C 81.8155,18.5413 83.1488,16.5413 87.5,16.5 Z"/></g>
<g><path style="opacity:1" fill="#2cb7ef" d="M 96.5,9.5 C 96.8333,9.5 97.1667,9.5 97.5,9.5C 95.9739,11.13 93.9739,11.9633 91.5,12C 92.7468,13.4579 92.7468,14.9579 91.5,16.5C 92.3333,16.8333 93.1667,17.1667 94,17.5C 95.3756,17.3158 96.2089,16.6491 96.5,15.5C 97.1667,15.5 97.8333,15.5 98.5,15.5C 99.6222,16.9473 101.122,17.9473 103,18.5C 103.483,19.448 103.649,20.448 103.5,21.5C 99.6163,21.5762 95.9496,20.9095 92.5,19.5C 90.4418,20.9331 88.1085,21.5997 85.5,21.5C 85.3653,19.4458 86.032,17.7791 87.5,16.5C 90.3892,16.001 91.0558,14.501 89.5,12C 87.8988,11.7266 86.3988,11.2266 85,10.5C 84.3828,9.55085 84.5494,8.71752 85.5,8C 89.1786,8.14813 92.8452,8.64813 96.5,9.5 Z"/></g>
<g><path style="opacity:1" fill="#2fd3ea" d="M 96.5,15.5 C 96.2089,16.6491 95.3756,17.3158 94,17.5C 93.1667,17.1667 92.3333,16.8333 91.5,16.5C 92.7468,14.9579 92.7468,13.4579 91.5,12C 93.9739,11.9633 95.9739,11.13 97.5,9.5C 99.4844,8.30577 101.484,8.30577 103.5,9.5C 102.088,10.8064 100.421,11.6397 98.5,12C 97.1772,12.8159 96.5106,13.9826 96.5,15.5 Z"/></g>
<g><path style="opacity:1" fill="#107ee8" d="M 98.5,15.5 C 97.8333,15.5 97.1667,15.5 96.5,15.5C 96.5106,13.9826 97.1772,12.8159 98.5,12C 100.421,11.6397 102.088,10.8064 103.5,9.5C 101.484,8.30577 99.4844,8.30577 97.5,9.5C 97.1667,9.5 96.8333,9.5 96.5,9.5C 96.6107,8.88258 96.944,8.38258 97.5,8C 99.8098,7.50335 102.143,7.33669 104.5,7.5C 104.785,11.0379 103.118,12.8712 99.5,13C 98.7476,13.6708 98.4142,14.5041 98.5,15.5 Z"/></g>
<g><path style="opacity:1" fill="#074df4" d="M 121.5,23.5 C 122.833,23.5 124.167,23.5 125.5,23.5C 125.5,25.1667 125.5,26.8333 125.5,28.5C 120.717,30.3117 115.717,30.8117 110.5,30C 113.126,27.8543 116.126,26.521 119.5,26C 120.381,25.2917 121.047,24.4584 121.5,23.5 Z"/></g>
<g><path style="opacity:1" fill="#2e58d1" d="M 144.5,27.5 C 151.989,26.3443 159.655,26.1777 167.5,27C 167.974,28.7286 168.974,29.8953 170.5,30.5C 171.401,32.7271 173.067,33.7271 175.5,33.5C 175.5,35.8333 175.5,38.1667 175.5,40.5C 175.167,40.5 174.833,40.5 174.5,40.5C 174.151,36.4698 172.151,33.4698 168.5,31.5C 166.219,29.5721 163.553,28.5721 160.5,28.5C 155.36,27.5119 150.026,27.1786 144.5,27.5 Z"/></g>
<g><path style="opacity:1" fill="#153ba7" d="M 64.5,27.5 C 65.3446,28.6715 66.0113,30.0048 66.5,31.5C 61.8333,31.5 57.1667,31.5 52.5,31.5C 47.8333,31.5 43.1667,31.5 38.5,31.5C 46.7437,28.3558 55.4104,27.0225 64.5,27.5 Z"/></g>
<g><path style="opacity:1" fill="#6478b5" d="M 144.5,27.5 C 150.026,27.1786 155.36,27.5119 160.5,28.5C 159.5,28.5 158.5,28.5 157.5,28.5C 151.931,28.376 146.598,29.0427 141.5,30.5C 137.167,30.5 132.833,30.5 128.5,30.5C 132.693,29.7173 137.027,29.0506 141.5,28.5C 142.791,28.7373 143.791,28.404 144.5,27.5 Z"/></g>
<g><path style="opacity:1" fill="#050507" d="M 52.5,31.5 C 57.1667,31.5 61.8333,31.5 66.5,31.5C 67.1667,31.5 67.8333,31.5 68.5,31.5C 72.3619,35.5229 76.6952,39.0229 81.5,42C 81.9147,44.0263 82.9147,45.5263 84.5,46.5C 85.2897,53.4707 85.6231,60.4707 85.5,67.5C 84.9278,69.2554 84.0945,70.9221 83,72.5C 82.5045,74.4727 82.3379,76.4727 82.5,78.5C 78.4942,82.173 74.4942,85.8397 70.5,89.5C 67.459,90.6782 64.2923,91.3449 61,91.5C 56.6397,90.9843 52.473,89.9843 48.5,88.5C 47.8333,88.5 47.1667,88.5 46.5,88.5C 46.5,88.1667 46.5,87.8333 46.5,87.5C 46.1667,86.5 45.5,85.8333 44.5,85.5C 42.4862,82.8057 40.9862,79.8057 40,76.5C 37.8905,60.9376 41.3905,46.9376 50.5,34.5C 51.9063,34.0269 52.573,33.0269 52.5,31.5 Z"/></g>
<g><path style="opacity:1" fill="#094feb" d="M 77.5,36.5 C 75.2585,33.5442 72.2585,31.8776 68.5,31.5C 67.8333,31.5 67.1667,31.5 66.5,31.5C 66.0113,30.0048 65.3446,28.6715 64.5,27.5C 61.023,26.6773 57.3563,26.1773 53.5,26C 56.4816,25.502 59.4816,25.3354 62.5,25.5C 62.5,24.1667 62.5,22.8333 62.5,21.5C 65.5547,22.0362 68.5547,22.8695 71.5,24C 77.4609,26.6857 80.2942,31.1857 80,37.5C 79.3292,36.7476 78.4959,36.4142 77.5,36.5 Z"/></g>
<g><path style="opacity:1" fill="#f8f9fa" d="M 128.5,30.5 C 132.833,30.5 137.167,30.5 141.5,30.5C 147.29,30.0962 152.956,30.5962 158.5,32C 166.17,37.4946 172.17,44.3279 176.5,52.5C 177.413,58.4406 177.746,64.4406 177.5,70.5C 177.108,72.1789 176.608,73.8455 176,75.5C 173.63,78.0386 171.13,80.3719 168.5,82.5C 165.669,83.0787 163.336,84.412 161.5,86.5C 152.964,87.405 144.631,88.7383 136.5,90.5C 132.102,90.7059 127.768,90.3726 123.5,89.5C 126.534,86.4952 129.368,83.1619 132,79.5C 134.948,67.1261 134.615,54.7927 131,42.5C 129.341,38.3422 126.508,35.3422 122.5,33.5C 122.5,32.8333 122.5,32.1667 122.5,31.5C 124.735,31.7947 126.735,31.4614 128.5,30.5 Z"/></g>
<g><path style="opacity:1" fill="#e8edec" d="M 157.5,28.5 C 158.5,28.5 159.5,28.5 160.5,28.5C 163.553,28.5721 166.219,29.5721 168.5,31.5C 168.791,35.7766 170.791,38.7766 174.5,40.5C 174.833,40.5 175.167,40.5 175.5,40.5C 175.833,42.5 176.167,44.5 176.5,46.5C 176.5,47.1667 176.5,47.8333 176.5,48.5C 171.545,40.544 165.211,33.8773 157.5,28.5 Z"/></g>
<g><path style="opacity:1" fill="#040407" d="M 122.5,33.5 C 126.508,35.3422 129.341,38.3422 131,42.5C 134.615,54.7927 134.948,67.1261 132,79.5C 129.368,83.1619 126.534,86.4952 123.5,89.5C 118.833,89.5 114.167,89.5 109.5,89.5C 107.188,86.5211 104.521,83.8544 101.5,81.5C 100.346,78.5212 99.1798,75.5212 98,72.5C 97.1841,71.1772 96.0174,70.5106 94.5,70.5C 94.1743,62.3159 94.5076,54.3159 95.5,46.5C 97.5279,42.297 100.195,38.4636 103.5,35C 109.721,32.4536 116.054,31.9536 122.5,33.5 Z"/></g>
<g><path style="opacity:1" fill="#8898be" d="M 38.5,31.5 C 43.1667,31.5 47.8333,31.5 52.5,31.5C 52.573,33.0269 51.9063,34.0269 50.5,34.5C 39.4788,33.2736 29.1454,35.6069 19.5,41.5C 20.5434,38.9438 22.2101,36.7772 24.5,35C 28.9909,33.0768 33.6576,31.9101 38.5,31.5 Z"/></g>
<g><path style="opacity:1" fill="#223983" d="M 194.5,-0.5 C 194.833,-0.5 195.167,-0.5 195.5,-0.5C 195.666,5.17645 195.499,10.8431 195,16.5C 192.315,22.1742 192.148,27.8409 194.5,33.5C 194.179,35.0481 193.179,35.7148 191.5,35.5C 191.01,28.6067 191.677,21.9401 193.5,15.5C 194.488,10.3595 194.821,5.02621 194.5,-0.5 Z"/></g>
<g><path style="opacity:1" fill="#8ca1c0" d="M 168.5,31.5 C 172.151,33.4698 174.151,36.4698 174.5,40.5C 170.791,38.7766 168.791,35.7766 168.5,31.5 Z"/></g>
<g><path style="opacity:1" fill="#f8f8f7" d="M 50.5,34.5 C 41.3905,46.9376 37.8905,60.9376 40,76.5C 40.9862,79.8057 42.4862,82.8057 44.5,85.5C 38.562,86.0378 32.8954,84.5378 27.5,81C 23.3322,77.6638 19.3322,74.1638 15.5,70.5C 15.3404,68.847 14.6737,67.5137 13.5,66.5C 12.1667,61.8333 12.1667,57.1667 13.5,52.5C 15.5036,48.8312 17.5036,45.1645 19.5,41.5C 29.1454,35.6069 39.4788,33.2736 50.5,34.5 Z"/></g>
<g><path style="opacity:1" fill="#073093" d="M 68.5,31.5 C 72.2585,31.8776 75.2585,33.5442 77.5,36.5C 77.8656,37.6946 78.699,38.3613 80,38.5C 81.2607,37.3421 82.4274,37.3421 83.5,38.5C 84.4731,40.9479 84.8064,43.6146 84.5,46.5C 82.9147,45.5263 81.9147,44.0263 81.5,42C 76.6952,39.0229 72.3619,35.5229 68.5,31.5 Z"/></g>
<g><path style="opacity:1" fill="#2343ae" d="M 14.5,-0.5 C 14.8333,-0.5 15.1667,-0.5 15.5,-0.5C 15.6664,8.50617 15.4998,17.5062 15,26.5C 12.9286,27.1029 11.7619,28.4362 11.5,30.5C 10.5041,30.4142 9.67076,30.7476 9,31.5C 7.25405,35.3267 5.25405,38.9934 3,42.5C 1.98873,43.3366 0.822066,43.67 -0.5,43.5C -0.5,42.8333 -0.5,42.1667 -0.5,41.5C 3.16667,36.8333 6.83333,32.1667 10.5,27.5C 11.7206,26.9717 12.8873,26.305 14,25.5C 14.4998,16.8397 14.6664,8.17307 14.5,-0.5 Z"/></g>
<g><path style="opacity:1" fill="#0a226c" d="M 105.5,31.5 C 111.167,31.5 116.833,31.5 122.5,31.5C 122.5,32.1667 122.5,32.8333 122.5,33.5C 116.054,31.9536 109.721,32.4536 103.5,35C 100.195,38.4636 97.5279,42.297 95.5,46.5C 97.184,40.4679 100.517,35.4679 105.5,31.5 Z"/></g>
<g><path style="opacity:1" fill="#f0f0ee" d="M 65.5,43.5 C 74.3474,41.6299 77.8474,44.9632 76,53.5C 73.9473,57.2916 70.7806,58.4582 66.5,57C 62.9797,52.6873 62.6464,48.1873 65.5,43.5 Z"/></g>
<g><path style="opacity:1" fill="#e1e1e0" d="M 118.5,40.5 C 123.395,40.0961 126.062,42.2628 126.5,47C 126.11,53.3925 122.777,56.0592 116.5,55C 111.259,49.5618 111.925,44.7284 118.5,40.5 Z"/></g>
<g><path style="opacity:1" fill="#768099" d="M 19.5,41.5 C 17.5036,45.1645 15.5036,48.8312 13.5,52.5C 13.5,50.5 13.5,48.5 13.5,46.5C 13.8333,46.5 14.1667,46.5 14.5,46.5C 15.0487,43.7502 16.7154,42.0835 19.5,41.5 Z"/></g>
<g><path style="opacity:1" fill="#0251fb" d="M 195.5,60.5 C 195.5,79.5 195.5,98.5 195.5,117.5C 186.045,118.593 176.712,120.426 167.5,123C 162.98,125.393 158.647,127.893 154.5,130.5C 151.191,129.373 147.857,129.373 144.5,130.5C 144.5,129.5 144.5,128.5 144.5,127.5C 142.263,126.551 139.929,125.884 137.5,125.5C 136.717,130.839 137.05,136.172 138.5,141.5C 133.007,140.178 130.507,142.178 131,147.5C 131.5,148.667 132.333,149.5 133.5,150C 136.146,150.497 138.813,150.664 141.5,150.5C 141.5,151.833 141.5,153.167 141.5,154.5C 141.5,154.833 141.5,155.167 141.5,155.5C 141.5,157.5 141.5,159.5 141.5,161.5C 141.5,164.833 141.5,168.167 141.5,171.5C 144.518,171.665 147.518,171.498 150.5,171C 152.579,167.019 155.912,165.186 160.5,165.5C 160.5,164.5 160.5,163.5 160.5,162.5C 168.852,160.737 177.185,158.57 185.5,156C 188.817,155.502 192.15,155.335 195.5,155.5C 195.5,157.833 195.5,160.167 195.5,162.5C 194.504,162.414 193.671,162.748 193,163.5C 191.901,169.025 189.734,174.025 186.5,178.5C 182.746,184.342 178.746,190.009 174.5,195.5C 152.833,195.5 131.167,195.5 109.5,195.5C 109.448,191.802 109.114,188.135 108.5,184.5C 111.55,183.923 113.55,185.09 114.5,188C 123.574,188.113 132.574,187.28 141.5,185.5C 141.291,184.914 140.957,184.414 140.5,184C 136.008,183.109 131.674,181.942 127.5,180.5C 127.52,178.857 126.853,177.524 125.5,176.5C 119.392,174.612 113.392,172.445 107.5,170C 105.559,169.257 103.726,169.424 102,170.5C 100.736,168.393 98.9032,167.393 96.5,167.5C 95.3412,166.26 94.3412,164.926 93.5,163.5C 93.1253,157.128 92.4586,150.795 91.5,144.5C 95.8814,144.628 100.215,144.295 104.5,143.5C 105.315,139.841 107.481,137.174 111,135.5C 111.49,134.207 111.657,132.873 111.5,131.5C 112.822,131.67 113.989,131.337 115,130.5C 115.499,126.514 115.666,122.514 115.5,118.5C 116.718,116.172 117.718,113.672 118.5,111C 117.167,110 115.833,109 114.5,108C 115.451,107.282 115.617,106.449 115,105.5C 113.602,104.949 112.268,104.616 111,104.5C 109.89,106.037 108.39,106.703 106.5,106.5C 106.5,105.5 106.5,104.5 106.5,103.5C 107.675,103.719 108.675,103.386 109.5,102.5C 107.163,101.488 104.83,101.655 102.5,103C 98.8333,103.667 95.1667,103.667 91.5,103C 94.4456,102.194 97.1123,100.861 99.5,99C 97.7505,97.6814 95.7505,97.1814 93.5,97.5C 93.5,98.5 93.5,99.5 93.5,100.5C 89.4862,100.334 85.4862,100.501 81.5,101C 84.0822,103.027 83.5822,104.193 80,104.5C 79.1667,104.333 78.3333,104.167 77.5,104C 78.7112,103.107 78.7112,102.274 77.5,101.5C 76.2638,100.754 74.9305,100.421 73.5,100.5C 73.4326,99.0413 73.7659,97.7079 74.5,96.5C 75.8333,96.5 77.1667,96.5 78.5,96.5C 78.5,95.5 78.5,94.5 78.5,93.5C 80.8053,93.1372 82.472,91.9706 83.5,90C 82.0795,88.5809 81.0795,86.9142 80.5,85C 83.6037,82.6212 84.937,79.4545 84.5,75.5C 85.8333,75.5 87.1667,75.5 88.5,75.5C 88.1718,70.1254 88.5052,64.7921 89.5,59.5C 91.0216,62.6294 91.855,65.9627 92,69.5C 92.6708,70.2524 93.5041,70.5858 94.5,70.5C 95.0895,75.3606 97.4228,79.0272 101.5,81.5C 100.756,84.9496 102.09,86.6162 105.5,86.5C 104.833,89.1667 104.167,91.8333 103.5,94.5C 105.5,94.5 107.5,94.5 109.5,94.5C 109.5,95.5 109.5,96.5 109.5,97.5C 114.781,98.5559 120.114,99.2226 125.5,99.5C 125.227,101.451 125.893,102.951 127.5,104C 131.871,104.828 136.205,104.661 140.5,103.5C 140.291,102.914 139.957,102.414 139.5,102C 136.833,101.667 134.167,101.333 131.5,101C 132.598,100.23 132.598,99.397 131.5,98.5C 139.119,97.7319 146.786,97.2319 154.5,97C 155.308,96.6924 155.975,96.1924 156.5,95.5C 146.183,94.7137 135.85,94.7137 125.5,95.5C 123.628,93.9385 121.295,92.9385 118.5,92.5C 119.667,92.1667 120.833,91.8333 122,91.5C 131.364,92.8385 140.53,92.5051 149.5,90.5C 152.454,89.7287 155.454,89.062 158.5,88.5C 169.758,87.4101 176.925,81.4101 180,70.5C 180.667,65.8333 180.667,61.1667 180,56.5C 179.768,55.2625 179.268,54.2625 178.5,53.5C 178.5,51.1667 178.5,48.8333 178.5,46.5C 178.281,45.325 178.614,44.325 179.5,43.5C 180.421,45.756 182.088,46.756 184.5,46.5C 184.607,44.0968 183.607,42.2635 181.5,41C 182.26,39.5589 182.926,38.0589 183.5,36.5C 184.365,35.4173 185.365,35.2506 186.5,36C 186.988,44.5294 186.321,53.3627 184.5,62.5C 185.5,62.5 186.5,62.5 187.5,62.5C 187.238,61.0222 187.571,59.6888 188.5,58.5C 188.296,59.5294 188.796,60.5294 190,61.5C 190.333,60.8333 190.667,60.1667 191,59.5C 192.388,59.2144 193.888,59.5477 195.5,60.5 Z"/></g>
<g><path style="opacity:1" fill="#9e9e9e" d="M 157.5,28.5 C 165.211,33.8773 171.545,40.544 176.5,48.5C 176.5,49.8333 176.5,51.1667 176.5,52.5C 172.17,44.3279 166.17,37.4946 158.5,32C 152.956,30.5962 147.29,30.0962 141.5,30.5C 146.598,29.0427 151.931,28.376 157.5,28.5 Z"/></g>
<g><path style="opacity:1" fill="#001653" d="M 84.5,46.5 C 85.4582,48.3024 86.1249,50.3024 86.5,52.5C 86.8205,57.6946 86.4872,62.6946 85.5,67.5C 85.6231,60.4707 85.2897,53.4707 84.5,46.5 Z"/></g>
<g><path style="opacity:1" fill="#6f80be" d="M 176.5,46.5 C 177.167,46.5 177.833,46.5 178.5,46.5C 178.5,48.8333 178.5,51.1667 178.5,53.5C 178.822,59.358 178.489,65.0247 177.5,70.5C 177.746,64.4406 177.413,58.4406 176.5,52.5C 176.5,51.1667 176.5,49.8333 176.5,48.5C 176.5,47.8333 176.5,47.1667 176.5,46.5 Z"/></g>
<g><path style="opacity:1" fill="#0835a3" d="M 86.5,52.5 C 87.654,58.987 87.8206,65.6536 87,72.5C 84.3792,73.7469 82.8792,75.7469 82.5,78.5C 82.3379,76.4727 82.5045,74.4727 83,72.5C 84.0945,70.9221 84.9278,69.2554 85.5,67.5C 86.4872,62.6946 86.8205,57.6946 86.5,52.5 Z"/></g>
<g><path style="opacity:1" fill="#4868c4" d="M 13.5,46.5 C 13.5,48.5 13.5,50.5 13.5,52.5C 12.1667,57.1667 12.1667,61.8333 13.5,66.5C 13.6785,69.2165 14.1785,71.8832 15,74.5C 17.3245,76.5008 19.1579,78.8342 20.5,81.5C 19.5,81.5 18.5,81.5 17.5,81.5C 15.7833,78.1381 14.1166,74.8047 12.5,71.5C 9.61667,63.0001 9.95,54.6667 13.5,46.5 Z"/></g>
<g><path style="opacity:1" fill="#041c54" d="M 94.5,70.5 C 96.0174,70.5106 97.1841,71.1772 98,72.5C 99.1798,75.5212 100.346,78.5212 101.5,81.5C 97.4228,79.0272 95.0895,75.3606 94.5,70.5 Z"/></g>
<g><path style="opacity:1" fill="#b4cbe9" d="M 13.5,66.5 C 14.6737,67.5137 15.3404,68.847 15.5,70.5C 15.7086,71.9217 16.2086,73.255 17,74.5C 21.3986,78.4093 25.8986,82.076 30.5,85.5C 27.3777,84.4388 24.3777,83.1054 21.5,81.5C 21.1667,81.5 20.8333,81.5 20.5,81.5C 19.1579,78.8342 17.3245,76.5008 15,74.5C 14.1785,71.8832 13.6785,69.2165 13.5,66.5 Z"/></g>
<g><path style="opacity:1" fill="#0251fb" d="M 12.5,71.5 C 14.1166,74.8047 15.7833,78.1381 17.5,81.5C 18.5,81.5 19.5,81.5 20.5,81.5C 20.8333,81.5 21.1667,81.5 21.5,81.5C 21.5774,82.7498 22.244,83.5831 23.5,84C 22.0439,84.4226 21.5439,85.2559 22,86.5C 26.9335,90.8764 32.7669,92.7097 39.5,92C 40.3279,92.9147 41.3279,93.5814 42.5,94C 45.9194,94.2485 49.2527,94.7485 52.5,95.5C 53.254,97.5053 54.4207,98.172 56,97.5C 60.0297,98.8972 64.1964,99.8972 68.5,100.5C 68.2907,101.086 67.9574,101.586 67.5,102C 70.2241,102.27 72.8908,102.77 75.5,103.5C 75.8333,103.833 76.1667,104.167 76.5,104.5C 75.3881,105.265 74.7214,106.265 74.5,107.5C 73.1266,107.343 71.7932,107.51 70.5,108C 69.9941,110.532 68.8274,112.698 67,114.5C 66.2618,118.71 66.4285,122.876 67.5,127C 66.244,128.479 65.244,130.145 64.5,132C 65.4812,136.116 67.8146,139.283 71.5,141.5C 71.5523,139.43 71.719,137.097 72,134.5C 74.0176,136.35 75.8509,138.35 77.5,140.5C 78.325,141.386 79.325,141.719 80.5,141.5C 81.1667,141.5 81.8333,141.5 82.5,141.5C 84.2057,143.536 86.539,144.536 89.5,144.5C 89.6658,149.179 89.4992,153.845 89,158.5C 86.9614,159.978 86.1281,161.978 86.5,164.5C 84.0499,166.629 82.3833,169.296 81.5,172.5C 80.5,172.5 79.5,172.5 78.5,172.5C 75.1016,172.18 71.7683,172.513 68.5,173.5C 69.0253,174.192 69.6919,174.692 70.5,175C 67.4375,175.574 64.7708,176.908 62.5,179C 57.957,179.386 53.6237,180.552 49.5,182.5C 49.6236,183.107 49.9569,183.44 50.5,183.5C 50.5,184.5 50.5,185.5 50.5,186.5C 56.9035,186.376 63.2369,185.71 69.5,184.5C 69.5,188.167 69.5,191.833 69.5,195.5C 57.1667,195.5 44.8333,195.5 32.5,195.5C 29.5961,190.436 25.7627,186.103 21,182.5C 20.51,181.207 20.3433,179.873 20.5,178.5C 17.8858,178.723 16.2191,177.556 15.5,175C 13.9221,173.906 12.2554,173.072 10.5,172.5C 11.9288,169.692 12.5955,166.692 12.5,163.5C 10.4012,164.231 8.40115,164.231 6.5,163.5C 5.61978,161.571 4.61978,159.737 3.5,158C 3.83333,157.5 4.16667,157 4.5,156.5C 11.5388,152.539 19.2055,150.539 27.5,150.5C 27.5,153.167 27.5,155.833 27.5,158.5C 23.7602,160.298 19.7602,161.298 15.5,161.5C 15.5,162.5 15.5,163.5 15.5,164.5C 25.6223,161.794 35.9556,161.127 46.5,162.5C 46.5,161.5 46.5,160.5 46.5,159.5C 43.0977,159.658 39.7644,159.324 36.5,158.5C 35.3495,155.789 36.1829,153.789 39,152.5C 43.2244,152.836 47.0578,154.169 50.5,156.5C 51.6727,153.355 51.006,150.688 48.5,148.5C 44.5,148.5 40.5,148.5 36.5,148.5C 37.1641,145.863 37.8307,143.197 38.5,140.5C 37.1667,139.167 35.8333,139.167 34.5,140.5C 33.4867,142.527 32.4867,144.527 31.5,146.5C 23.5866,147.281 15.9199,149.115 8.5,152C 5.51838,152.498 2.51838,152.665 -0.5,152.5C -0.5,148.833 -0.5,145.167 -0.5,141.5C 10.072,135.933 21.4054,133.933 33.5,135.5C 33.3505,136.552 33.5172,137.552 34,138.5C 36.0408,137.577 38.2075,137.244 40.5,137.5C 44.271,139.115 47.9377,141.115 51.5,143.5C 52.3635,141.229 52.3635,138.895 51.5,136.5C 48.8806,136.768 46.3806,136.435 44,135.5C 43.3333,134.5 43.3333,133.5 44,132.5C 45.9239,130.991 47.0906,128.991 47.5,126.5C 46.3112,125.571 44.9778,125.238 43.5,125.5C 42.448,125.351 41.448,125.517 40.5,126C 39.4271,128.657 37.7605,130.823 35.5,132.5C 28.1892,133.331 20.8559,133.831 13.5,134C 8.45621,135.027 3.78954,136.861 -0.5,139.5C -0.5,117.833 -0.5,96.1667 -0.5,74.5C 0.117425,74.3893 0.617425,74.056 1,73.5C 1.76196,69.6375 2.26196,65.9708 2.5,62.5C 3.38568,63.325 3.71901,64.325 3.5,65.5C 4.83333,65.5 6.16667,65.5 7.5,65.5C 7.17744,61.774 7.51078,58.1073 8.5,54.5C 9.32752,58.7956 9.82752,63.1289 10,67.5C 10.9344,68.8584 11.7677,70.1917 12.5,71.5 Z"/></g>
<g><path style="opacity:1" fill="#768fcf" d="M 168.5,82.5 C 166.664,84.588 164.331,85.9213 161.5,86.5C 163.336,84.412 165.669,83.0787 168.5,82.5 Z"/></g>
<g><path style="opacity:1" fill="#899498" d="M 15.5,70.5 C 19.3322,74.1638 23.3322,77.6638 27.5,81C 32.8954,84.5378 38.562,86.0378 44.5,85.5C 45.5,85.8333 46.1667,86.5 46.5,87.5C 41.0472,87.6351 35.7139,86.9685 30.5,85.5C 25.8986,82.076 21.3986,78.4093 17,74.5C 16.2086,73.255 15.7086,71.9217 15.5,70.5 Z"/></g>
<g><path style="opacity:1" fill="#133dae" d="M 178.5,53.5 C 179.268,54.2625 179.768,55.2625 180,56.5C 180.667,61.1667 180.667,65.8333 180,70.5C 176.925,81.4101 169.758,87.4101 158.5,88.5C 159.5,87.8333 160.5,87.1667 161.5,86.5C 164.331,85.9213 166.664,84.588 168.5,82.5C 171.13,80.3719 173.63,78.0386 176,75.5C 176.608,73.8455 177.108,72.1789 177.5,70.5C 178.489,65.0247 178.822,59.358 178.5,53.5 Z"/></g>
<g><path style="opacity:1" fill="#7fa7e1" d="M 30.5,85.5 C 35.7139,86.9685 41.0472,87.6351 46.5,87.5C 46.5,87.8333 46.5,88.1667 46.5,88.5C 40.7053,89.1685 35.372,88.1685 30.5,85.5 Z"/></g>
<g><path style="opacity:1" fill="#07287e" d="M 82.5,78.5 C 82.6495,79.552 82.4828,80.552 82,81.5C 78.8333,83.3333 76.3333,85.8333 74.5,89C 73.2068,89.49 71.8734,89.6567 70.5,89.5C 74.4942,85.8397 78.4942,82.173 82.5,78.5 Z"/></g>
<g><path style="opacity:1" fill="#6e81ac" d="M 161.5,86.5 C 160.5,87.1667 159.5,87.8333 158.5,88.5C 155.454,89.062 152.454,89.7287 149.5,90.5C 145.167,90.5 140.833,90.5 136.5,90.5C 144.631,88.7383 152.964,87.405 161.5,86.5 Z"/></g>
<g><path style="opacity:1" fill="#116cf8" d="M 21.5,81.5 C 24.3777,83.1054 27.3777,84.4388 30.5,85.5C 35.372,88.1685 40.7053,89.1685 46.5,88.5C 47.1667,88.5 47.8333,88.5 48.5,88.5C 48.8333,89.5 49.5,90.1667 50.5,90.5C 50.9528,91.4584 51.6195,92.2917 52.5,93C 56.0899,93.3106 59.4233,94.144 62.5,95.5C 59.1667,95.5 55.8333,95.5 52.5,95.5C 49.2527,94.7485 45.9194,94.2485 42.5,94C 41.3279,93.5814 40.3279,92.9147 39.5,92C 32.7669,92.7097 26.9335,90.8764 22,86.5C 21.5439,85.2559 22.0439,84.4226 23.5,84C 22.244,83.5831 21.5774,82.7498 21.5,81.5 Z"/></g>
<g><path style="opacity:1" fill="#1341b9" d="M 109.5,89.5 C 114.167,89.5 118.833,89.5 123.5,89.5C 127.768,90.3726 132.102,90.7059 136.5,90.5C 140.833,90.5 145.167,90.5 149.5,90.5C 140.53,92.5051 131.364,92.8385 122,91.5C 120.833,91.8333 119.667,92.1667 118.5,92.5C 121.295,92.9385 123.628,93.9385 125.5,95.5C 126.895,97.3794 128.895,98.3794 131.5,98.5C 132.598,99.397 132.598,100.23 131.5,101C 134.167,101.333 136.833,101.667 139.5,102C 139.957,102.414 140.291,102.914 140.5,103.5C 136.205,104.661 131.871,104.828 127.5,104C 125.893,102.951 125.227,101.451 125.5,99.5C 122.461,96.4622 118.794,94.7955 114.5,94.5C 114.649,93.448 114.483,92.448 114,91.5C 112.378,90.9011 110.878,90.2344 109.5,89.5 Z"/></g>
<g><path style="opacity:1" fill="#0c52c6" d="M 50.5,90.5 C 55.693,92.0196 61.0263,92.853 66.5,93C 67.0253,93.6924 67.6919,94.1924 68.5,94.5C 70.0709,93.6906 71.7376,93.3573 73.5,93.5C 75.398,92.9035 77.0646,92.9035 78.5,93.5C 78.5,94.5 78.5,95.5 78.5,96.5C 77.1667,96.5 75.8333,96.5 74.5,96.5C 71.1165,96.3396 67.7831,96.673 64.5,97.5C 63.2867,97.2528 62.62,96.5862 62.5,95.5C 59.4233,94.144 56.0899,93.3106 52.5,93C 51.6195,92.2917 50.9528,91.4584 50.5,90.5 Z"/></g>
<g><path style="opacity:1" fill="#042f82" d="M 48.5,88.5 C 52.473,89.9843 56.6397,90.9843 61,91.5C 64.2923,91.3449 67.459,90.6782 70.5,89.5C 70.1961,90.1499 69.8627,90.8165 69.5,91.5C 70.9492,92.1719 72.2825,92.8386 73.5,93.5C 71.7376,93.3573 70.0709,93.6906 68.5,94.5C 67.6919,94.1924 67.0253,93.6924 66.5,93C 61.0263,92.853 55.693,92.0196 50.5,90.5C 49.5,90.1667 48.8333,89.5 48.5,88.5 Z"/></g>
<g><path style="opacity:1" fill="#0960ec" d="M 101.5,81.5 C 104.521,83.8544 107.188,86.5211 109.5,89.5C 110.878,90.2344 112.378,90.9011 114,91.5C 114.483,92.448 114.649,93.448 114.5,94.5C 118.794,94.7955 122.461,96.4622 125.5,99.5C 120.114,99.2226 114.781,98.5559 109.5,97.5C 109.5,96.5 109.5,95.5 109.5,94.5C 107.5,94.5 105.5,94.5 103.5,94.5C 104.167,91.8333 104.833,89.1667 105.5,86.5C 102.09,86.6162 100.756,84.9496 101.5,81.5 Z"/></g>
<g><path style="opacity:1" fill="#086ffa" d="M 131.5,98.5 C 128.895,98.3794 126.895,97.3794 125.5,95.5C 135.85,94.7137 146.183,94.7137 156.5,95.5C 155.975,96.1924 155.308,96.6924 154.5,97C 146.786,97.2319 139.119,97.7319 131.5,98.5 Z"/></g>
<g><path style="opacity:1" fill="#054feb" d="M 52.5,95.5 C 55.8333,95.5 59.1667,95.5 62.5,95.5C 62.62,96.5862 63.2867,97.2528 64.5,97.5C 67.7831,96.673 71.1165,96.3396 74.5,96.5C 73.7659,97.7079 73.4326,99.0413 73.5,100.5C 74.9305,100.421 76.2638,100.754 77.5,101.5C 78.7112,102.274 78.7112,103.107 77.5,104C 78.3333,104.167 79.1667,104.333 80,104.5C 83.5822,104.193 84.0822,103.027 81.5,101C 85.4862,100.501 89.4862,100.334 93.5,100.5C 93.5,99.5 93.5,98.5 93.5,97.5C 95.7505,97.1814 97.7505,97.6814 99.5,99C 97.1123,100.861 94.4456,102.194 91.5,103C 95.1667,103.667 98.8333,103.667 102.5,103C 104.83,101.655 107.163,101.488 109.5,102.5C 108.675,103.386 107.675,103.719 106.5,103.5C 106.5,104.5 106.5,105.5 106.5,106.5C 108.39,106.703 109.89,106.037 111,104.5C 112.268,104.616 113.602,104.949 115,105.5C 115.617,106.449 115.451,107.282 114.5,108C 115.833,109 117.167,110 118.5,111C 117.718,113.672 116.718,116.172 115.5,118.5C 116.084,115.715 115.084,114.048 112.5,113.5C 111.5,112.167 110.5,110.833 109.5,109.5C 107.9,108.356 106.233,107.189 104.5,106C 95.6567,105.176 86.9901,105.343 78.5,106.5C 77.0413,106.433 75.7079,106.766 74.5,107.5C 74.7214,106.265 75.3881,105.265 76.5,104.5C 76.1667,104.167 75.8333,103.833 75.5,103.5C 72.8908,102.77 70.2241,102.27 67.5,102C 67.9574,101.586 68.2907,101.086 68.5,100.5C 64.1964,99.8972 60.0297,98.8972 56,97.5C 54.4207,98.172 53.254,97.5053 52.5,95.5 Z"/></g>
<g><path style="opacity:1" fill="#011558" d="M 78.5,106.5 C 86.9901,105.343 95.6567,105.176 104.5,106C 106.233,107.189 107.9,108.356 109.5,109.5C 106.575,109.54 103.909,108.707 101.5,107C 93.8406,106.5 86.1739,106.334 78.5,106.5 Z"/></g>
<g><path style="opacity:1" fill="#040307" d="M 78.5,106.5 C 86.1739,106.334 93.8406,106.5 101.5,107C 103.909,108.707 106.575,109.54 109.5,109.5C 110.5,110.833 111.5,112.167 112.5,113.5C 114.741,121.625 113.408,128.958 108.5,135.5C 105.792,138.723 102.458,140.89 98.5,142C 95.964,142.339 93.464,142.839 91,143.5C 88.4534,141.823 85.6201,141.156 82.5,141.5C 82.6168,139.516 81.9501,137.85 80.5,136.5C 77.8843,134.643 75.2177,132.976 72.5,131.5C 70.7497,127.767 69.7497,123.767 69.5,119.5C 70.188,116.354 71.188,113.354 72.5,110.5C 73.1667,109.5 73.8333,108.5 74.5,107.5C 75.7079,106.766 77.0413,106.433 78.5,106.5 Z"/></g>
<g><path style="opacity:1" fill="#011347" d="M 72.5,110.5 C 71.188,113.354 70.188,116.354 69.5,119.5C 69.7497,123.767 70.7497,127.767 72.5,131.5C 71.5178,130.859 70.5178,130.193 69.5,129.5C 68.3377,124.533 68.1711,119.533 69,114.5C 70.4048,113.269 71.5714,111.936 72.5,110.5 Z"/></g>
<g><path style="opacity:1" fill="#2e2e2e" d="M 101.5,121.5 C 101.5,123.833 101.5,126.167 101.5,128.5C 102.5,128.5 103.5,128.5 104.5,128.5C 104.662,126.473 104.495,124.473 104,122.5C 103.617,121.944 103.117,121.611 102.5,121.5C 103.067,119.97 103.733,118.47 104.5,117C 105.744,116.544 106.577,117.044 107,118.5C 107.812,123.717 107.312,128.717 105.5,133.5C 102.95,133.439 101.45,132.106 101,129.5C 100.199,126.633 100.366,123.966 101.5,121.5 Z"/></g>
<g><path style="opacity:1" fill="#878185" d="M 101.5,121.5 C 101.833,121.5 102.167,121.5 102.5,121.5C 103.117,121.611 103.617,121.944 104,122.5C 104.495,124.473 104.662,126.473 104.5,128.5C 103.5,128.5 102.5,128.5 101.5,128.5C 101.5,126.167 101.5,123.833 101.5,121.5 Z"/></g>
<g><path style="opacity:1" fill="#0338af" d="M 195.5,117.5 C 195.5,118.167 195.5,118.833 195.5,119.5C 188.635,120.59 181.802,121.924 175,123.5C 167.654,126.482 160.488,129.982 153.5,134C 150.847,136.134 148.847,138.634 147.5,141.5C 147.631,140.624 147.298,139.957 146.5,139.5C 145.099,140.521 143.765,141.521 142.5,142.5C 141.539,144.265 141.205,146.265 141.5,148.5C 139.833,148.5 138.167,148.5 136.5,148.5C 136.343,147.127 136.51,145.793 137,144.5C 140.312,142.355 143.146,139.688 145.5,136.5C 143.103,131.98 144.269,131.313 149,134.5C 151.005,133.318 152.838,131.985 154.5,130.5C 158.647,127.893 162.98,125.393 167.5,123C 176.712,120.426 186.045,118.593 195.5,117.5 Z"/></g>
<g><path style="opacity:1" fill="#474747" d="M 77.5,117.5 C 79.0481,117.821 79.7148,118.821 79.5,120.5C 80.8221,120.33 81.9887,120.663 83,121.5C 84.0274,125.18 83.1941,128.347 80.5,131C 79.365,131.749 78.365,131.583 77.5,130.5C 76.3112,126.183 76.3112,121.85 77.5,117.5 Z"/></g>
<g><path style="opacity:1" fill="#0a4ce3" d="M 74.5,107.5 C 73.8333,108.5 73.1667,109.5 72.5,110.5C 71.5714,111.936 70.4048,113.269 69,114.5C 68.1711,119.533 68.3377,124.533 69.5,129.5C 70.5178,130.193 71.5178,130.859 72.5,131.5C 75.1128,134.79 77.7794,138.123 80.5,141.5C 79.325,141.719 78.325,141.386 77.5,140.5C 75.8509,138.35 74.0176,136.35 72,134.5C 71.719,137.097 71.5523,139.43 71.5,141.5C 67.8146,139.283 65.4812,136.116 64.5,132C 65.244,130.145 66.244,128.479 67.5,127C 66.4285,122.876 66.2618,118.71 67,114.5C 68.8274,112.698 69.9941,110.532 70.5,108C 71.7932,107.51 73.1266,107.343 74.5,107.5 Z"/></g>
<g><path style="opacity:1" fill="#0b1236" d="M 72.5,131.5 C 75.2177,132.976 77.8843,134.643 80.5,136.5C 81.9501,137.85 82.6168,139.516 82.5,141.5C 81.8333,141.5 81.1667,141.5 80.5,141.5C 77.7794,138.123 75.1128,134.79 72.5,131.5 Z"/></g>
<g><path style="opacity:1" fill="#0231aa" d="M 43.5,125.5 C 41.6657,128.751 39.999,132.085 38.5,135.5C 39.8734,135.343 41.2068,135.51 42.5,136C 41.9558,136.717 41.2891,137.217 40.5,137.5C 38.2075,137.244 36.0408,137.577 34,138.5C 33.5172,137.552 33.3505,136.552 33.5,135.5C 21.4054,133.933 10.072,135.933 -0.5,141.5C -0.5,140.833 -0.5,140.167 -0.5,139.5C 3.78954,136.861 8.45621,135.027 13.5,134C 20.8559,133.831 28.1892,133.331 35.5,132.5C 37.7605,130.823 39.4271,128.657 40.5,126C 41.448,125.517 42.448,125.351 43.5,125.5 Z"/></g>
<g><path style="opacity:1" fill="#034ff7" d="M 195.5,119.5 C 195.5,126.167 195.5,132.833 195.5,139.5C 188.163,140.222 180.83,141.056 173.5,142C 166.28,144.897 159.28,148.064 152.5,151.5C 151.833,148.167 151.167,144.833 150.5,141.5C 149.516,144.428 149.183,147.428 149.5,150.5C 148.778,150.918 148.278,151.584 148,152.5C 147.501,148.848 147.335,145.182 147.5,141.5C 148.847,138.634 150.847,136.134 153.5,134C 160.488,129.982 167.654,126.482 175,123.5C 181.802,121.924 188.635,120.59 195.5,119.5 Z"/></g>
<g><path style="opacity:1" fill="#0a5cf1" d="M 154.5,130.5 C 152.838,131.985 151.005,133.318 149,134.5C 144.269,131.313 143.103,131.98 145.5,136.5C 143.146,139.688 140.312,142.355 137,144.5C 136.51,145.793 136.343,147.127 136.5,148.5C 138.167,148.5 139.833,148.5 141.5,148.5C 141.205,146.265 141.539,144.265 142.5,142.5C 142.817,146.702 142.483,150.702 141.5,154.5C 141.5,153.167 141.5,151.833 141.5,150.5C 138.813,150.664 136.146,150.497 133.5,150C 132.333,149.5 131.5,148.667 131,147.5C 130.507,142.178 133.007,140.178 138.5,141.5C 137.05,136.172 136.717,130.839 137.5,125.5C 139.929,125.884 142.263,126.551 144.5,127.5C 144.5,128.5 144.5,129.5 144.5,130.5C 147.857,129.373 151.191,129.373 154.5,130.5 Z"/></g>
<g><path style="opacity:1" fill="#0954cf" d="M 43.5,125.5 C 44.9778,125.238 46.3112,125.571 47.5,126.5C 47.0906,128.991 45.9239,130.991 44,132.5C 43.3333,133.5 43.3333,134.5 44,135.5C 46.3806,136.435 48.8806,136.768 51.5,136.5C 52.3635,138.895 52.3635,141.229 51.5,143.5C 47.9377,141.115 44.271,139.115 40.5,137.5C 41.2891,137.217 41.9558,136.717 42.5,136C 41.2068,135.51 39.8734,135.343 38.5,135.5C 39.999,132.085 41.6657,128.751 43.5,125.5 Z"/></g>
<g><path style="opacity:1" fill="#0873eb" d="M 36.5,148.5 C 34.4862,148.608 32.8195,147.942 31.5,146.5C 32.4867,144.527 33.4867,142.527 34.5,140.5C 35.8333,139.167 37.1667,139.167 38.5,140.5C 37.8307,143.197 37.1641,145.863 36.5,148.5 Z"/></g>
<g><path style="opacity:1" fill="#082f97" d="M 112.5,113.5 C 115.084,114.048 116.084,115.715 115.5,118.5C 115.666,122.514 115.499,126.514 115,130.5C 113.989,131.337 112.822,131.67 111.5,131.5C 111.657,132.873 111.49,134.207 111,135.5C 107.481,137.174 105.315,139.841 104.5,143.5C 100.215,144.295 95.8814,144.628 91.5,144.5C 92.4586,150.795 93.1253,157.128 93.5,163.5C 92.1851,162.524 90.8518,161.524 89.5,160.5C 88.1408,161.624 87.1408,162.958 86.5,164.5C 86.1281,161.978 86.9614,159.978 89,158.5C 89.4992,153.845 89.6658,149.179 89.5,144.5C 86.539,144.536 84.2057,143.536 82.5,141.5C 85.6201,141.156 88.4534,141.823 91,143.5C 93.464,142.839 95.964,142.339 98.5,142C 102.458,140.89 105.792,138.723 108.5,135.5C 113.408,128.958 114.741,121.625 112.5,113.5 Z"/></g>
<g><path style="opacity:1" fill="#096ff2" d="M 147.5,141.5 C 147.335,145.182 147.501,148.848 148,152.5C 148.278,151.584 148.778,150.918 149.5,150.5C 149.727,152.933 148.727,154.599 146.5,155.5C 144.833,155.5 143.167,155.5 141.5,155.5C 141.5,155.167 141.5,154.833 141.5,154.5C 142.483,150.702 142.817,146.702 142.5,142.5C 143.765,141.521 145.099,140.521 146.5,139.5C 147.298,139.957 147.631,140.624 147.5,141.5 Z"/></g>
<g><path style="opacity:1" fill="#0450fa" d="M 195.5,141.5 C 195.5,144.833 195.5,148.167 195.5,151.5C 186.614,153.378 177.614,155.211 168.5,157C 163.57,160.064 158.237,161.898 152.5,162.5C 152.5,160.167 152.5,157.833 152.5,155.5C 153.833,155.5 155.167,155.5 156.5,155.5C 156.286,153.856 156.62,152.356 157.5,151C 169.553,145.461 182.22,142.294 195.5,141.5 Z"/></g>
<g><path style="opacity:1" fill="#0b64ea" d="M 48.5,148.5 C 51.006,150.688 51.6727,153.355 50.5,156.5C 47.0578,154.169 43.2244,152.836 39,152.5C 36.1829,153.789 35.3495,155.789 36.5,158.5C 34.5,158.5 32.5,158.5 30.5,158.5C 30.5,155.5 30.5,152.5 30.5,149.5C 36.6684,149.686 42.6684,150.686 48.5,152.5C 48.5,151.167 48.5,149.833 48.5,148.5 Z"/></g>
<g><path style="opacity:1" fill="#0835ac" d="M 31.5,146.5 C 32.8195,147.942 34.4862,148.608 36.5,148.5C 40.5,148.5 44.5,148.5 48.5,148.5C 48.5,149.833 48.5,151.167 48.5,152.5C 42.6684,150.686 36.6684,149.686 30.5,149.5C 30.5,152.5 30.5,155.5 30.5,158.5C 32.5,158.5 34.5,158.5 36.5,158.5C 39.7644,159.324 43.0977,159.658 46.5,159.5C 46.5,160.5 46.5,161.5 46.5,162.5C 35.9556,161.127 25.6223,161.794 15.5,164.5C 15.5,163.5 15.5,162.5 15.5,161.5C 19.7602,161.298 23.7602,160.298 27.5,158.5C 27.5,155.833 27.5,153.167 27.5,150.5C 19.2055,150.539 11.5388,152.539 4.5,156.5C 4.16667,157 3.83333,157.5 3.5,158C 4.61978,159.737 5.61978,161.571 6.5,163.5C 8.40115,164.231 10.4012,164.231 12.5,163.5C 12.5955,166.692 11.9288,169.692 10.5,172.5C 9.83333,172.5 9.16667,172.5 8.5,172.5C 8.53905,169.911 7.53905,167.911 5.5,166.5C 4.5023,162.495 2.5023,159.161 -0.5,156.5C -0.5,155.167 -0.5,153.833 -0.5,152.5C 2.51838,152.665 5.51838,152.498 8.5,152C 15.9199,149.115 23.5866,147.281 31.5,146.5 Z"/></g>
<g><path style="opacity:1" fill="#074fa8" d="M 141.5,155.5 C 143.167,155.5 144.833,155.5 146.5,155.5C 146.682,157.591 146.348,159.591 145.5,161.5C 144.192,162.626 142.858,162.626 141.5,161.5C 141.5,159.5 141.5,157.5 141.5,155.5 Z"/></g>
<g><path style="opacity:1" fill="#0640c0" d="M 195.5,139.5 C 195.5,140.167 195.5,140.833 195.5,141.5C 182.22,142.294 169.553,145.461 157.5,151C 156.62,152.356 156.286,153.856 156.5,155.5C 155.167,155.5 153.833,155.5 152.5,155.5C 152.5,157.833 152.5,160.167 152.5,162.5C 158.237,161.898 163.57,160.064 168.5,157C 177.614,155.211 186.614,153.378 195.5,151.5C 195.5,152.833 195.5,154.167 195.5,155.5C 192.15,155.335 188.817,155.502 185.5,156C 177.185,158.57 168.852,160.737 160.5,162.5C 160.5,163.5 160.5,164.5 160.5,165.5C 155.912,165.186 152.579,167.019 150.5,171C 147.518,171.498 144.518,171.665 141.5,171.5C 141.5,168.167 141.5,164.833 141.5,161.5C 142.858,162.626 144.192,162.626 145.5,161.5C 146.348,159.591 146.682,157.591 146.5,155.5C 148.727,154.599 149.727,152.933 149.5,150.5C 149.183,147.428 149.516,144.428 150.5,141.5C 151.167,144.833 151.833,148.167 152.5,151.5C 159.28,148.064 166.28,144.897 173.5,142C 180.83,141.056 188.163,140.222 195.5,139.5 Z"/></g>
<g><path style="opacity:1" fill="#e7edf4" d="M -0.5,156.5 C 2.5023,159.161 4.5023,162.495 5.5,166.5C 5.76202,167.978 5.42869,169.311 4.5,170.5C 2.45141,171.882 0.784748,173.548 -0.5,175.5C -0.5,169.167 -0.5,162.833 -0.5,156.5 Z"/></g>
<g><path style="opacity:1" fill="#362674" d="M 93.5,163.5 C 94.3412,164.926 95.3412,166.26 96.5,167.5C 97.8333,169.5 99.1667,171.5 100.5,173.5C 100.5,174.5 100.5,175.5 100.5,176.5C 105.833,175.833 108.167,178.167 107.5,183.5C 106.57,187.4 106.237,191.4 106.5,195.5C 106.167,195.5 105.833,195.5 105.5,195.5C 105.5,189.833 105.5,184.167 105.5,178.5C 103.784,178.371 102.117,178.038 100.5,177.5C 99.4415,176.4 98.6082,175.066 98,173.5C 97.3292,172.748 96.4959,172.414 95.5,172.5C 93.3458,161.566 89.6791,160.9 84.5,170.5C 83.5,171.167 82.5,171.833 81.5,172.5C 82.3833,169.296 84.0499,166.629 86.5,164.5C 87.1408,162.958 88.1408,161.624 89.5,160.5C 90.8518,161.524 92.1851,162.524 93.5,163.5 Z"/></g>
<g><path style="opacity:1" fill="#012668" d="M 149.5,165.5 C 151.225,165.843 151.725,166.843 151,168.5C 149.416,169.861 147.582,170.528 145.5,170.5C 145.5,169.167 145.5,167.833 145.5,166.5C 147.099,166.768 148.432,166.434 149.5,165.5 Z"/></g>
<g><path style="opacity:1" fill="#2440a3" d="M 195.5,162.5 C 194.318,168.211 191.984,173.544 188.5,178.5C 187.833,178.5 187.167,178.5 186.5,178.5C 189.734,174.025 191.901,169.025 193,163.5C 193.671,162.748 194.504,162.414 195.5,162.5 Z"/></g>
<g><path style="opacity:1" fill="#771328" d="M 95.5,172.5 C 94.5,172.5 93.5,172.5 92.5,172.5C 92.9783,169.722 91.9783,167.722 89.5,166.5C 87.8144,167.857 86.1477,169.19 84.5,170.5C 89.6791,160.9 93.3458,161.566 95.5,172.5 Z"/></g>
<g><path style="opacity:1" fill="#d82432" d="M 95.5,172.5 C 96.4959,172.414 97.3292,172.748 98,173.5C 98.6082,175.066 99.4415,176.4 100.5,177.5C 101.287,179.104 102.62,179.771 104.5,179.5C 104.5,184.833 104.5,190.167 104.5,195.5C 102.833,195.5 101.167,195.5 99.5,195.5C 99.5615,190.122 99.7281,184.788 100,179.5C 96.7721,178.113 93.9388,176.113 91.5,173.5C 88.7984,175.22 86.1318,176.887 83.5,178.5C 83.8333,177.833 84.1667,177.167 84.5,176.5C 85.4778,176.189 86.1445,175.522 86.5,174.5C 85.1468,173.476 84.4802,172.143 84.5,170.5C 86.1477,169.19 87.8144,167.857 89.5,166.5C 91.9783,167.722 92.9783,169.722 92.5,172.5C 93.5,172.5 94.5,172.5 95.5,172.5 Z"/></g>
<g><path style="opacity:1" fill="#9c9ea2" d="M 5.5,166.5 C 7.53905,167.911 8.53905,169.911 8.5,172.5C 7.88258,172.389 7.38258,172.056 7,171.5C 4.33673,173.334 1.83673,175.334 -0.5,177.5C -0.5,176.833 -0.5,176.167 -0.5,175.5C 0.784748,173.548 2.45141,171.882 4.5,170.5C 5.42869,169.311 5.76202,167.978 5.5,166.5 Z"/></g>
<g><path style="opacity:1" fill="#ec8c9b" d="M 84.5,170.5 C 84.4802,172.143 85.1468,173.476 86.5,174.5C 86.1445,175.522 85.4778,176.189 84.5,176.5C 82.6064,177.048 80.9397,178.048 79.5,179.5C 78.7025,179.043 78.3691,178.376 78.5,177.5C 80.047,176.232 81.047,174.565 81.5,172.5C 82.5,171.833 83.5,171.167 84.5,170.5 Z"/></g>
<g><path style="opacity:1" fill="#713257" d="M 78.5,172.5 C 79.5,172.5 80.5,172.5 81.5,172.5C 81.047,174.565 80.047,176.232 78.5,177.5C 78.1667,177.5 77.8333,177.5 77.5,177.5C 76.078,178.925 74.4113,179.925 72.5,180.5C 73.1667,179.5 73.8333,178.5 74.5,177.5C 75.2995,175.427 76.6329,173.76 78.5,172.5 Z"/></g>
<g><path style="opacity:1" fill="#0b5eef" d="M 78.5,172.5 C 76.6329,173.76 75.2995,175.427 74.5,177.5C 72.0676,178.75 69.7343,180.25 67.5,182C 61.9116,183.289 56.2449,183.789 50.5,183.5C 49.9569,183.44 49.6236,183.107 49.5,182.5C 53.6237,180.552 57.957,179.386 62.5,179C 64.7708,176.908 67.4375,175.574 70.5,175C 69.6919,174.692 69.0253,174.192 68.5,173.5C 71.7683,172.513 75.1016,172.18 78.5,172.5 Z"/></g>
<g><path style="opacity:1" fill="#073196" d="M 100.5,173.5 C 103.37,174.634 106.37,175.3 109.5,175.5C 109.5,176.833 109.5,178.167 109.5,179.5C 117.107,179.269 124.107,180.936 130.5,184.5C 125.533,185.662 120.533,185.829 115.5,185C 112.992,184.346 110.826,183.179 109,181.5C 108.722,182.416 108.222,183.082 107.5,183.5C 108.167,178.167 105.833,175.833 100.5,176.5C 100.5,175.5 100.5,174.5 100.5,173.5 Z"/></g>
<g><path style="opacity:1" fill="#2032a7" d="M 74.5,177.5 C 73.8333,178.5 73.1667,179.5 72.5,180.5C 71.8826,180.611 71.3826,180.944 71,181.5C 70.5008,186.155 70.3342,190.821 70.5,195.5C 70.1667,195.5 69.8333,195.5 69.5,195.5C 69.5,191.833 69.5,188.167 69.5,184.5C 63.2369,185.71 56.9035,186.376 50.5,186.5C 50.5,185.5 50.5,184.5 50.5,183.5C 56.2449,183.789 61.9116,183.289 67.5,182C 69.7343,180.25 72.0676,178.75 74.5,177.5 Z"/></g>
<g><path style="opacity:1" fill="#f7061f" d="M 99.5,195.5 C 96.1667,195.5 92.8333,195.5 89.5,195.5C 89.3542,191.481 89.0209,187.481 88.5,183.5C 87.5,183.5 86.5,183.5 85.5,183.5C 84.9953,187.4 84.9953,191.4 85.5,195.5C 81.5,195.5 77.5,195.5 73.5,195.5C 75.3064,191.012 76.8064,186.346 78,181.5C 80.0183,180.777 81.8516,179.777 83.5,178.5C 86.1318,176.887 88.7984,175.22 91.5,173.5C 93.9388,176.113 96.7721,178.113 100,179.5C 99.7281,184.788 99.5615,190.122 99.5,195.5 Z"/></g>
<g><path style="opacity:1" fill="#0b54ea" d="M 96.5,167.5 C 98.9032,167.393 100.736,168.393 102,170.5C 103.726,169.424 105.559,169.257 107.5,170C 113.392,172.445 119.392,174.612 125.5,176.5C 126.853,177.524 127.52,178.857 127.5,180.5C 131.674,181.942 136.008,183.109 140.5,184C 140.957,184.414 141.291,184.914 141.5,185.5C 132.574,187.28 123.574,188.113 114.5,188C 113.55,185.09 111.55,183.923 108.5,184.5C 109.114,188.135 109.448,191.802 109.5,195.5C 108.5,195.5 107.5,195.5 106.5,195.5C 106.237,191.4 106.57,187.4 107.5,183.5C 108.222,183.082 108.722,182.416 109,181.5C 110.826,183.179 112.992,184.346 115.5,185C 120.533,185.829 125.533,185.662 130.5,184.5C 124.107,180.936 117.107,179.269 109.5,179.5C 109.5,178.167 109.5,176.833 109.5,175.5C 106.37,175.3 103.37,174.634 100.5,173.5C 99.1667,171.5 97.8333,169.5 96.5,167.5 Z"/></g>
<g><path style="opacity:1" fill="#7f8fb3" d="M 186.5,178.5 C 187.167,178.5 187.833,178.5 188.5,178.5C 186.012,182.806 183.512,187.139 181,191.5C 179.676,194.244 177.509,195.577 174.5,195.5C 178.746,190.009 182.746,184.342 186.5,178.5 Z"/></g>
<g><path style="opacity:1" fill="#af4672" d="M 100.5,177.5 C 102.117,178.038 103.784,178.371 105.5,178.5C 105.5,184.167 105.5,189.833 105.5,195.5C 105.167,195.5 104.833,195.5 104.5,195.5C 104.5,190.167 104.5,184.833 104.5,179.5C 102.62,179.771 101.287,179.104 100.5,177.5 Z"/></g>
<g><path style="opacity:1" fill="#1d48c1" d="M 10.5,172.5 C 12.2554,173.072 13.9221,173.906 15.5,175C 16.2191,177.556 17.8858,178.723 20.5,178.5C 20.3433,179.873 20.51,181.207 21,182.5C 25.7627,186.103 29.5961,190.436 32.5,195.5C 30.076,195.808 27.7427,195.474 25.5,194.5C 19.6925,187.697 14.6925,180.364 10.5,172.5 Z"/></g>
<g><path style="opacity:1" fill="#d73845" d="M 89.5,195.5 C 88.1667,195.5 86.8333,195.5 85.5,195.5C 84.9953,191.4 84.9953,187.4 85.5,183.5C 86.5,183.5 87.5,183.5 88.5,183.5C 89.0209,187.481 89.3542,191.481 89.5,195.5 Z"/></g>
<g><path style="opacity:1" fill="#9f2332" d="M 77.5,177.5 C 76.9447,179.729 75.6114,181.395 73.5,182.5C 72.5078,186.783 72.1744,191.116 72.5,195.5C 71.8333,195.5 71.1667,195.5 70.5,195.5C 70.3342,190.821 70.5008,186.155 71,181.5C 71.3826,180.944 71.8826,180.611 72.5,180.5C 74.4113,179.925 76.078,178.925 77.5,177.5 Z"/></g>
<g><path style="opacity:1" fill="#f75568" d="M 84.5,176.5 C 84.1667,177.167 83.8333,177.833 83.5,178.5C 81.8516,179.777 80.0183,180.777 78,181.5C 76.8064,186.346 75.3064,191.012 73.5,195.5C 73.1667,195.5 72.8333,195.5 72.5,195.5C 72.1744,191.116 72.5078,186.783 73.5,182.5C 75.6114,181.395 76.9447,179.729 77.5,177.5C 77.8333,177.5 78.1667,177.5 78.5,177.5C 78.3691,178.376 78.7025,179.043 79.5,179.5C 80.9397,178.048 82.6064,177.048 84.5,176.5 Z"/></g>
<g><path style="opacity:1" fill="#fc9da3" d="M 100.5,185.5 C 102.722,185.559 103.722,186.725 103.5,189C 103.342,191.149 102.508,192.983 101,194.5C 100.502,191.518 100.335,188.518 100.5,185.5 Z"/></g>
</svg>
