<?xml version="1.0" encoding="UTF-8"?>
<!DOCTYPE svg PUBLIC "-//W3C//DTD SVG 1.1//EN" "http://www.w3.org/Graphics/SVG/1.1/DTD/svg11.dtd">
<svg xmlns="http://www.w3.org/2000/svg" version="1.1" width="200px" height="200px" style="shape-rendering:geometricPrecision; text-rendering:geometricPrecision; image-rendering:optimizeQuality; fill-rule:evenodd; clip-rule:evenodd" xmlns:xlink="http://www.w3.org/1999/xlink">
<g><path style="opacity:1" fill="#fefefe" d="M -0.5,-0.5 C 66.1667,-0.5 132.833,-0.5 199.5,-0.5C 199.5,66.1667 199.5,132.833 199.5,199.5C 132.833,199.5 66.1667,199.5 -0.5,199.5C -0.5,132.833 -0.5,66.1667 -0.5,-0.5 Z"/></g>
<g><path style="opacity:1" fill="#1d2322" d="M 162.5,182.5 C 161.609,183.261 160.942,184.261 160.5,185.5C 159.311,186.429 157.978,186.762 156.5,186.5C 157.002,168.174 153.835,150.508 147,133.5C 145.77,130.268 143.77,127.601 141,125.5C 140.973,116.384 140.139,107.384 138.5,98.5C 138.963,91.062 138.63,86.3954 137.5,84.5C 136.5,84.5 135.5,84.5 134.5,84.5C 132.181,84.0075 130.181,83.0075 128.5,81.5C 131.167,82.1667 133.833,82.8333 136.5,83.5C 136.666,79.1539 136.499,74.8206 136,70.5C 134.89,68.9632 133.39,68.2965 131.5,68.5C 129.5,70.5 127.5,72.5 125.5,74.5C 126.366,72.856 126.866,71.1893 127,69.5C 124.47,72.0633 122.303,74.8967 120.5,78C 122.26,78.9653 122.594,80.132 121.5,81.5C 108.354,75.3328 94.6875,73.9994 80.5,77.5C 79.8933,77.3764 79.56,77.0431 79.5,76.5C 77.2612,72.3599 74.7612,68.3599 72,64.5C 69,60.5 66,60.5 63,64.5C 61.7225,67.7206 60.8891,71.054 60.5,74.5C 56.5295,97.0512 53.0295,119.718 50,142.5C 49.1803,157.228 49.6803,171.894 51.5,186.5C 50.3509,186.209 49.6842,185.376 49.5,184C 47.5954,169.221 47.0954,154.388 48,139.5C 52.0044,114.82 56.0044,90.1538 60,65.5C 61.1667,63.6667 62.3333,61.8333 63.5,60C 65.8333,59.3333 68.1667,59.3333 70.5,60C 74.0357,64.2372 77.2024,68.7372 80,73.5C 80.8926,74.0814 81.8926,74.4148 83,74.5C 94.6302,72.8753 106.13,73.542 117.5,76.5C 120.595,72.9014 123.929,69.4014 127.5,66C 131.227,62.5225 134.727,62.6891 138,66.5C 139.127,69.3771 139.794,72.3771 140,75.5C 140.259,91.9128 141.259,108.246 143,124.5C 145.043,126.208 146.71,128.208 148,130.5C 151.042,137.582 153.209,144.915 154.5,152.5C 165.281,148.793 169.781,152.459 168,163.5C 166.312,169.927 164.479,176.26 162.5,182.5 Z"/></g>
<g><path style="opacity:1" fill="#4d6a62" d="M 79.5,76.5 C 73.5448,77.7577 67.5448,78.7577 61.5,79.5C 61.7845,77.5853 61.4511,75.9187 60.5,74.5C 60.8891,71.054 61.7225,67.7206 63,64.5C 66,60.5 69,60.5 72,64.5C 74.7612,68.3599 77.2612,72.3599 79.5,76.5 Z"/></g>
<g><path style="opacity:1" fill="#f6f8f7" d="M 65.5,64.5 C 70.5228,66.3507 74.1894,69.8507 76.5,75C 72.3121,76.6307 67.9788,77.4641 63.5,77.5C 63.0537,72.9289 63.7203,68.5956 65.5,64.5 Z"/></g>
<g><path style="opacity:1" fill="#53a08d" d="M 131.5,68.5 C 130.504,68.4142 129.671,68.7476 129,69.5C 128.312,68.6683 128.479,68.0016 129.5,67.5C 131.098,66.5153 132.765,66.3486 134.5,67C 133.263,67.2321 132.263,67.7321 131.5,68.5 Z"/></g>
<g><path style="opacity:1" fill="#eef0ef" d="M 131.5,68.5 C 133.39,68.2965 134.89,68.9632 136,70.5C 136.499,74.8206 136.666,79.1539 136.5,83.5C 133.833,82.8333 131.167,82.1667 128.5,81.5C 126.273,79.7713 125.273,77.438 125.5,74.5C 127.5,72.5 129.5,70.5 131.5,68.5 Z"/></g>
<g><path style="opacity:1" fill="#50f6cf" d="M 125.5,74.5 C 122.355,78.381 123.355,80.7144 128.5,81.5C 130.181,83.0075 132.181,84.0075 134.5,84.5C 135.209,85.404 136.209,85.7373 137.5,85.5C 137.182,90.0323 137.515,94.3656 138.5,98.5C 140.139,107.384 140.973,116.384 141,125.5C 143.77,127.601 145.77,130.268 147,133.5C 153.835,150.508 157.002,168.174 156.5,186.5C 150.833,186.5 145.167,186.5 139.5,186.5C 140.409,179.996 138.076,175.329 132.5,172.5C 131.368,168.574 130.701,164.574 130.5,160.5C 131.786,151.6 129.12,144.266 122.5,138.5C 125.458,136.044 128.291,133.378 131,130.5C 133.732,124.441 132.232,119.608 126.5,116C 121.576,112.218 116.576,108.718 111.5,105.5C 114.5,104.833 117.5,104.167 120.5,103.5C 125.095,102.875 128.095,100.375 129.5,96C 128.205,93.0359 125.872,91.8693 122.5,92.5C 115.862,92.3161 110.862,94.9828 107.5,100.5C 107.863,101.183 108.196,101.85 108.5,102.5C 106.527,103.163 104.361,103.496 102,103.5C 99.2228,103.369 96.7228,102.702 94.5,101.5C 89.3933,96.0746 83.0599,93.9079 75.5,95C 72.9659,97.5867 72.9659,100.253 75.5,103C 79.0888,105.631 83.0888,106.797 87.5,106.5C 81.8976,110.927 76.3976,115.593 71,120.5C 68.8202,124.414 69.1536,128.081 72,131.5C 74.3756,134.045 76.8756,136.378 79.5,138.5C 76.5865,141.322 74.4198,144.655 73,148.5C 72.3333,156.167 72.3333,163.833 73,171.5C 74.447,177.412 77.6137,182.079 82.5,185.5C 82.5,185.833 82.5,186.167 82.5,186.5C 72.1667,186.5 61.8333,186.5 51.5,186.5C 49.6803,171.894 49.1803,157.228 50,142.5C 53.0295,119.718 56.5295,97.0512 60.5,74.5C 61.4511,75.9187 61.7845,77.5853 61.5,79.5C 67.5448,78.7577 73.5448,77.7577 79.5,76.5C 79.56,77.0431 79.8933,77.3764 80.5,77.5C 94.6875,73.9994 108.354,75.3328 121.5,81.5C 122.594,80.132 122.26,78.9653 120.5,78C 122.303,74.8967 124.47,72.0633 127,69.5C 126.866,71.1893 126.366,72.856 125.5,74.5 Z"/></g>
<g><path style="opacity:1" fill="#44534f" d="M 125.5,74.5 C 125.273,77.438 126.273,79.7713 128.5,81.5C 123.355,80.7144 122.355,78.381 125.5,74.5 Z"/></g>
<g><path style="opacity:1" fill="#1a1f1e" d="M 120.5,103.5 C 116.4,103.763 112.4,103.43 108.5,102.5C 108.196,101.85 107.863,101.183 107.5,100.5C 110.862,94.9828 115.862,92.3161 122.5,92.5C 125.872,91.8693 128.205,93.0359 129.5,96C 128.095,100.375 125.095,102.875 120.5,103.5 Z"/></g>
<g><path style="opacity:1" fill="#717171" d="M 126.5,94.5 C 124.265,94.2053 122.265,94.5386 120.5,95.5C 119.957,95.44 119.624,95.1067 119.5,94.5C 121.973,93.2031 124.307,93.2031 126.5,94.5 Z"/></g>
<g><path style="opacity:1" fill="#ededed" d="M 126.5,94.5 C 127.299,98.0715 125.632,100.071 121.5,100.5C 121.634,98.7085 121.301,97.0418 120.5,95.5C 122.265,94.5386 124.265,94.2053 126.5,94.5 Z"/></g>
<g><path style="opacity:1" fill="#1b2220" d="M 94.5,101.5 C 94.5,102.5 94.5,103.5 94.5,104.5C 92.412,105.939 90.0786,106.606 87.5,106.5C 83.0888,106.797 79.0888,105.631 75.5,103C 72.9659,100.253 72.9659,97.5867 75.5,95C 83.0599,93.9079 89.3933,96.0746 94.5,101.5 Z"/></g>
<g><path style="opacity:1" fill="#367e6d" d="M 138.5,98.5 C 137.515,94.3656 137.182,90.0323 137.5,85.5C 136.209,85.7373 135.209,85.404 134.5,84.5C 135.5,84.5 136.5,84.5 137.5,84.5C 138.63,86.3954 138.963,91.062 138.5,98.5 Z"/></g>
<g><path style="opacity:1" fill="#e6e6e6" d="M 75.5,96.5 C 77.924,96.1924 80.2573,96.5258 82.5,97.5C 82.3262,103.907 80.1595,104.907 76,100.5C 75.51,99.2068 75.3433,97.8734 75.5,96.5 Z"/></g>
<g><path style="opacity:1" fill="#e4e4e4" d="M 114.5,95.5 C 116.308,96.9179 116.975,98.9179 116.5,101.5C 114.5,101.5 112.5,101.5 110.5,101.5C 110.657,98.6824 111.991,96.6824 114.5,95.5 Z"/></g>
<g><path style="opacity:1" fill="#eaeaea" d="M 92.5,103.5 C 90.2646,103.795 88.2646,103.461 86.5,102.5C 86.3398,100.801 86.5065,99.1341 87,97.5C 89.7437,98.7404 91.577,100.74 92.5,103.5 Z"/></g>
<g><path style="opacity:1" fill="#7a7a7a" d="M 86.5,102.5 C 88.2646,103.461 90.2646,103.795 92.5,103.5C 90.3066,104.797 87.9732,104.797 85.5,103.5C 85.6236,102.893 85.9569,102.56 86.5,102.5 Z"/></g>
<g><path style="opacity:1" fill="#63d7bd" d="M 94.5,101.5 C 96.7228,102.702 99.2228,103.369 102,103.5C 104.361,103.496 106.527,103.163 108.5,102.5C 112.4,103.43 116.4,103.763 120.5,103.5C 117.5,104.167 114.5,104.833 111.5,105.5C 105.879,104.646 100.212,104.313 94.5,104.5C 94.5,103.5 94.5,102.5 94.5,101.5 Z"/></g>
<g><path style="opacity:1" fill="#f8faf9" d="M 94.5,104.5 C 100.212,104.313 105.879,104.646 111.5,105.5C 116.576,108.718 121.576,112.218 126.5,116C 132.232,119.608 133.732,124.441 131,130.5C 128.291,133.378 125.458,136.044 122.5,138.5C 129.12,144.266 131.786,151.6 130.5,160.5C 128.99,159.272 127.49,159.272 126,160.5C 125.924,164.819 126.091,169.152 126.5,173.5C 120.585,174.652 118.251,178.319 119.5,184.5C 118.129,185.787 116.295,186.453 114,186.5C 111.705,186.453 109.871,185.787 108.5,184.5C 109.038,182.883 109.371,181.216 109.5,179.5C 110.738,177.786 111.405,175.786 111.5,173.5C 112.097,173.265 112.43,172.765 112.5,172C 111.256,169.42 109.923,166.92 108.5,164.5C 109.931,163.22 110.598,161.553 110.5,159.5C 110.328,158.508 110.662,157.842 111.5,157.5C 112.573,156.749 112.74,155.749 112,154.5C 111.282,153.549 110.449,153.383 109.5,154C 107.061,157.393 105.061,160.893 103.5,164.5C 101.058,163.712 98.5582,164.045 96,165.5C 92.5859,171.997 88.9192,178.33 85,184.5C 84.2331,179.695 82.3998,175.361 79.5,171.5C 79.1667,171.833 78.8333,172.167 78.5,172.5C 81.2204,176.375 82.5538,180.709 82.5,185.5C 77.6137,182.079 74.447,177.412 73,171.5C 72.3333,163.833 72.3333,156.167 73,148.5C 74.4198,144.655 76.5865,141.322 79.5,138.5C 76.8756,136.378 74.3756,134.045 72,131.5C 69.1536,128.081 68.8202,124.414 71,120.5C 76.3976,115.593 81.8976,110.927 87.5,106.5C 90.0786,106.606 92.412,105.939 94.5,104.5 Z"/></g>
<g><path style="opacity:1" fill="#191919" d="M 98.5,107.5 C 102.106,107.211 105.606,107.544 109,108.5C 110.497,113.166 108.997,116.5 104.5,118.5C 107.521,124.935 111.688,125.935 117,121.5C 117.333,120.167 117.667,118.833 118,117.5C 119.48,123.362 117.147,126.362 111,126.5C 107.581,126.207 105.081,124.541 103.5,121.5C 100.559,126.387 96.5589,127.553 91.5,125C 88.2838,122.59 87.7838,119.757 90,116.5C 89.4846,122.823 92.3179,125.323 98.5,124C 100.019,122.649 101.352,121.149 102.5,119.5C 98.3848,117.257 96.2182,113.923 96,109.5C 96.9947,108.934 97.828,108.267 98.5,107.5 Z"/></g>
<g><path style="opacity:1" fill="#1c1c1c" d="M 92.5,130.5 C 98.134,134.492 103.801,134.492 109.5,130.5C 110.594,131.868 110.26,133.035 108.5,134C 103.816,135.909 99.1497,135.909 94.5,134C 93.1772,133.184 92.5106,132.017 92.5,130.5 Z"/></g>
<g><path style="opacity:1" fill="#4ef0ca" d="M 164.5,154.5 C 164.5,158.5 164.5,162.5 164.5,166.5C 163.931,171.122 162.597,175.455 160.5,179.5C 159.833,176.833 159.167,174.167 158.5,171.5C 157.572,166.178 157.072,160.844 157,155.5C 159.357,153.354 161.857,153.021 164.5,154.5 Z"/></g>
<g><path style="opacity:1" fill="#455c56" d="M 111.5,157.5 C 111.294,155.451 110.461,155.117 109,156.5C 107.713,160.37 106.047,164.036 104,167.5C 103.517,166.552 103.351,165.552 103.5,164.5C 105.061,160.893 107.061,157.393 109.5,154C 110.449,153.383 111.282,153.549 112,154.5C 112.74,155.749 112.573,156.749 111.5,157.5 Z"/></g>
<g><path style="opacity:1" fill="#45ba9e" d="M 164.5,154.5 C 166.026,155.492 166.693,156.992 166.5,159C 166.354,161.76 165.687,164.26 164.5,166.5C 164.5,162.5 164.5,158.5 164.5,154.5 Z"/></g>
<g><path style="opacity:1" fill="#48625c" d="M 110.5,159.5 C 110.598,161.553 109.931,163.22 108.5,164.5C 108.402,162.447 109.069,160.78 110.5,159.5 Z"/></g>
<g><path style="opacity:1" fill="#51f2cc" d="M 111.5,157.5 C 110.662,157.842 110.328,158.508 110.5,159.5C 109.069,160.78 108.402,162.447 108.5,164.5C 106.901,165.799 106.401,167.465 107,169.5C 107.383,168.944 107.883,168.611 108.5,168.5C 108.449,170.57 109.115,172.403 110.5,174C 109.767,175.766 109.433,177.599 109.5,179.5C 107.707,181.426 106.707,183.759 106.5,186.5C 99.5,186.5 92.5,186.5 85.5,186.5C 89.8706,180.113 93.8706,173.446 97.5,166.5C 99.2638,169.177 100.43,168.844 101,165.5C 101.671,164.748 102.504,164.414 103.5,164.5C 103.351,165.552 103.517,166.552 104,167.5C 106.047,164.036 107.713,160.37 109,156.5C 110.461,155.117 111.294,155.451 111.5,157.5 Z"/></g>
<g><path style="opacity:1" fill="#324641" d="M 108.5,164.5 C 109.923,166.92 111.256,169.42 112.5,172C 112.43,172.765 112.097,173.265 111.5,173.5C 110.543,171.136 109.543,169.469 108.5,168.5C 107.883,168.611 107.383,168.944 107,169.5C 106.401,167.465 106.901,165.799 108.5,164.5 Z"/></g>
<g><path style="opacity:1" fill="#438e7b" d="M 111.5,173.5 C 111.405,175.786 110.738,177.786 109.5,179.5C 109.433,177.599 109.767,175.766 110.5,174C 109.115,172.403 108.449,170.57 108.5,168.5C 109.543,169.469 110.543,171.136 111.5,173.5 Z"/></g>
<g><path style="opacity:1" fill="#37554d" d="M 130.5,160.5 C 130.701,164.574 131.368,168.574 132.5,172.5C 138.076,175.329 140.409,179.996 139.5,186.5C 139.167,186.5 138.833,186.5 138.5,186.5C 137.987,183.088 137.153,179.755 136,176.5C 135.586,176.957 135.086,177.291 134.5,177.5C 133.115,173.622 131.949,173.622 131,177.5C 130.137,172.173 129.303,166.839 128.5,161.5C 127.385,165.48 127.385,169.48 128.5,173.5C 128.286,177.144 127.119,177.477 125,174.5C 123.956,175.623 123.29,176.956 123,178.5C 122.586,178.043 122.086,177.709 121.5,177.5C 120.932,180.412 120.932,183.412 121.5,186.5C 120.833,185.833 120.167,185.167 119.5,184.5C 118.251,178.319 120.585,174.652 126.5,173.5C 126.091,169.152 125.924,164.819 126,160.5C 127.49,159.272 128.99,159.272 130.5,160.5 Z"/></g>
<g><path style="opacity:1" fill="#52f1cc" d="M 138.5,186.5 C 132.833,186.5 127.167,186.5 121.5,186.5C 120.932,183.412 120.932,180.412 121.5,177.5C 122.086,177.709 122.586,178.043 123,178.5C 123.29,176.956 123.956,175.623 125,174.5C 127.119,177.477 128.286,177.144 128.5,173.5C 127.385,169.48 127.385,165.48 128.5,161.5C 129.303,166.839 130.137,172.173 131,177.5C 131.949,173.622 133.115,173.622 134.5,177.5C 135.086,177.291 135.586,176.957 136,176.5C 137.153,179.755 137.987,183.088 138.5,186.5 Z"/></g>
<g><path style="opacity:1" fill="#3f9883" d="M 158.5,171.5 C 159.167,174.167 159.833,176.833 160.5,179.5C 160.44,180.043 160.107,180.376 159.5,180.5C 158.516,177.572 158.183,174.572 158.5,171.5 Z"/></g>
<g><path style="opacity:1" fill="#46645c" d="M 109.5,179.5 C 109.371,181.216 109.038,182.883 108.5,184.5C 107.833,185.167 107.167,185.833 106.5,186.5C 106.707,183.759 107.707,181.426 109.5,179.5 Z"/></g>
<g><path style="opacity:1" fill="#474f4d" d="M 103.5,164.5 C 102.504,164.414 101.671,164.748 101,165.5C 100.43,168.844 99.2638,169.177 97.5,166.5C 93.8706,173.446 89.8706,180.113 85.5,186.5C 84.5,186.5 83.5,186.5 82.5,186.5C 82.5,186.167 82.5,185.833 82.5,185.5C 82.5538,180.709 81.2204,176.375 78.5,172.5C 78.8333,172.167 79.1667,171.833 79.5,171.5C 82.3998,175.361 84.2331,179.695 85,184.5C 88.9192,178.33 92.5859,171.997 96,165.5C 98.5582,164.045 101.058,163.712 103.5,164.5 Z"/></g>
<g><path style="opacity:1" fill="#d1e1e0" d="M 162.5,182.5 C 162.297,184.39 162.963,185.89 164.5,187C 126.664,187.831 88.9978,187.664 51.5,186.5C 61.8333,186.5 72.1667,186.5 82.5,186.5C 83.5,186.5 84.5,186.5 85.5,186.5C 92.5,186.5 99.5,186.5 106.5,186.5C 107.167,185.833 107.833,185.167 108.5,184.5C 109.871,185.787 111.705,186.453 114,186.5C 116.295,186.453 118.129,185.787 119.5,184.5C 120.167,185.167 120.833,185.833 121.5,186.5C 127.167,186.5 132.833,186.5 138.5,186.5C 138.833,186.5 139.167,186.5 139.5,186.5C 145.167,186.5 150.833,186.5 156.5,186.5C 157.978,186.762 159.311,186.429 160.5,185.5C 160.942,184.261 161.609,183.261 162.5,182.5 Z"/></g>
</svg>
