<?xml version="1.0" standalone="no"?>
<!DOCTYPE svg PUBLIC "-//W3C//DTD SVG 20010904//EN"
 "http://www.w3.org/TR/2001/REC-SVG-20010904/DTD/svg10.dtd">
<svg version="1.0" xmlns="http://www.w3.org/2000/svg"
 width="300.000000pt" height="275.000000pt" viewBox="0 0 300.000000 275.000000"
 preserveAspectRatio="xMidYMid meet">

<g transform="translate(0.000000,275.000000) scale(0.100000,-0.100000)"
fill="#000000" stroke="none">
<path d="M2164 2695 c-9 -13 -25 -27 -37 -31 -20 -6 -20 -7 -1 -17 10 -5 28
-20 39 -32 l20 -21 30 30 30 31 -33 32 -32 32 -16 -24z"/>
<path d="M1395 2551 c-133 -18 -280 -72 -382 -142 -150 -103 -283 -278 -338
-447 -15 -45 -24 -57 -64 -79 -25 -14 -84 -49 -129 -76 -74 -43 -87 -48 -108
-38 -44 20 -83 13 -116 -19 -24 -25 -29 -37 -27 -69 3 -36 -2 -45 -76 -123
-44 -46 -92 -107 -107 -134 -81 -150 -47 -263 102 -338 121 -60 191 -71 470
-71 135 0 259 3 277 7 26 6 38 2 70 -23 93 -75 230 -138 353 -164 92 -19 268
-19 360 0 167 35 306 112 435 240 99 99 169 209 206 326 21 64 23 66 84 97 91
47 267 164 351 233 324 264 315 513 -22 599 -130 34 -292 43 -489 30 l-173
-11 -68 47 c-177 122 -410 181 -609 155z m1280 -246 c114 -23 218 -76 253
-127 62 -94 23 -200 -126 -348 -125 -124 -370 -287 -553 -369 -42 -19 -43 -19
-70 0 -16 11 -44 19 -69 19 -34 0 -48 -6 -76 -34 -24 -24 -34 -43 -34 -64 0
-19 -6 -32 -17 -37 -259 -105 -609 -205 -893 -254 -189 -33 -306 -44 -485 -44
-256 0 -408 34 -498 114 -72 63 -83 129 -35 224 30 60 95 140 149 185 42 36
50 39 72 29 57 -26 127 23 127 89 0 38 1 39 104 100 57 34 105 62 107 62 2 0
4 -71 5 -157 0 -142 3 -167 28 -248 28 -91 87 -212 133 -274 l26 -33 66 6
c114 11 350 56 507 96 141 36 463 138 504 160 10 5 28 30 40 55 27 56 70 90
132 105 40 10 56 10 98 -4 l49 -16 77 37 76 38 -5 110 c-11 207 -89 399 -220
542 l-38 42 33 5 c114 20 420 14 533 -9z m-925 -296 c0 -3 15 -14 33 -23 17
-8 26 -16 18 -16 -7 0 -28 -15 -46 -34 l-32 -35 -13 24 c-7 12 -24 28 -38 34
l-25 12 30 19 c17 10 34 29 38 41 7 22 8 22 21 4 8 -10 14 -22 14 -26z m-527
-178 c9 -43 65 -101 122 -127 28 -13 44 -23 36 -23 -8 -1 -35 -11 -59 -22 -46
-23 -102 -95 -102 -131 0 -32 -16 -19 -29 21 -14 50 -89 118 -139 127 l-35 7
51 19 c60 22 118 84 128 135 7 38 19 36 27 -6z"/>
<path d="M550 2148 c-11 -15 -28 -28 -38 -28 -14 -1 -14 -2 3 -11 11 -6 29
-21 40 -33 l20 -21 30 30 30 30 -32 31 -32 31 -21 -29z"/>
<path d="M2403 1172 c-29 -29 -30 -33 -14 -45 9 -6 25 -23 34 -37 12 -18 17
-20 17 -8 0 9 14 28 31 41 31 24 31 25 10 32 -11 3 -27 16 -34 28 -12 22 -12
22 -44 -11z"/>
<path d="M320 230 l0 -230 145 0 145 0 0 35 0 35 -110 0 -110 0 0 65 0 65 95
0 95 0 0 35 0 35 -95 0 -95 0 0 60 0 60 105 0 105 0 0 35 0 35 -140 0 -140 0
0 -230z"/>
<path d="M905 368 c-23 -51 -72 -155 -108 -230 l-66 -138 39 0 c35 0 41 4 62
42 l23 43 108 3 107 3 20 -46 c18 -43 21 -45 59 -45 l40 0 -33 73 c-135 292
-183 387 -194 387 -7 0 -33 -42 -57 -92z m98 -126 c20 -48 37 -91 37 -95 0 -4
-36 -7 -81 -7 -92 0 -90 -6 -38 104 16 34 29 67 29 74 0 31 19 5 53 -76z"/>
<path d="M1340 230 l0 -230 40 0 40 0 0 90 0 90 34 0 c32 0 37 -5 88 -88 54
-86 55 -87 98 -90 51 -4 51 -3 -20 103 -27 41 -50 76 -50 78 0 3 14 10 30 17
65 27 91 120 55 190 -27 52 -79 70 -205 70 l-110 0 0 -230z m237 135 c30 -34
29 -70 -2 -100 -21 -22 -33 -25 -90 -25 l-65 0 0 81 0 82 67 -6 c57 -4 71 -9
90 -32z"/>
<path d="M1800 425 l0 -35 65 0 65 0 0 -195 0 -195 40 0 40 0 0 195 0 195 65
0 65 0 0 35 0 35 -170 0 -170 0 0 -35z"/>
<path d="M2300 230 l0 -230 40 0 40 0 0 100 0 101 113 -3 112 -3 3 -97 3 -98
34 0 35 0 0 230 0 230 -35 0 -35 0 0 -95 0 -95 -115 0 -115 0 0 95 0 95 -40 0
-40 0 0 -230z"/>
</g>
</svg>
