<svg xmlns="http://www.w3.org/2000/svg" width="74.998" height="74.998" viewBox="0 0 74.998 74.998">
  <g transform="translate(-165 -102.2)">
    <g transform="translate(165 102.2)">
      <g transform="translate(0 0)">
        <path d="M1151,1343.793a37.5,37.5,0,1,1-75,0c0-.894.026-1.775.089-2.655a37.812,37.812,0,0,1,8.285-21.012,6.917,6.917,0,0,1,1.328-1.468,38.134,38.134,0,0,1,10.927-8.336,36.971,36.971,0,0,1,13.174-3.842c1.213-.115,2.438-.179,3.689-.179a37.475,37.475,0,0,1,19.736,5.591c.345.217.677.421,1.008.651.549.37,1.1.753,1.634,1.136.715.523,1.4,1.085,2.068,1.659.14.115.268.23.4.345l.013.013a37.472,37.472,0,0,1,6.868,8.068,36.879,36.879,0,0,1,3.868,8.17c.281.83.523,1.672.74,2.528.051.217.1.421.153.638s.1.434.14.651c.089.434.179.868.255,1.3A35.5,35.5,0,0,1,1151,1343.793Z" transform="translate(-1076 -1306.3)" fill="#fcfdfc"/>
        <path d="M1007.512,1232.5v0a14.629,14.629,0,0,0-6.394,3.945.206.206,0,0,0-.026.03,9.37,9.37,0,0,0-.705.821,14.541,14.541,0,0,0-2.786,5.7h0v0a14.54,14.54,0,0,1,2.786-5.7,9.369,9.369,0,0,1,.705-.821.174.174,0,0,0,.022-.026,14.649,14.649,0,0,1,6.4-3.949Z" transform="translate(-960.187 -1186.278)" fill="#fcfcfd"/>
      </g>
    </g>
    <path d="M46.346,14.7V46.953H15.613V14.7H46.346V5.478H27.494l-21.45,16V31.741c0,13.419,11.418,24.692,25.367,24.477a25.447,25.447,0,0,0,17.347-7.177A23.554,23.554,0,0,0,55.92,32.235V14.7Z" transform="translate(171.517 108.849)" fill="#6932d4"/>
  </g>
</svg>
