<?xml version="1.0" standalone="no"?>
<!DOCTYPE svg PUBLIC "-//W3C//DTD SVG 20010904//EN"
 "http://www.w3.org/TR/2001/REC-SVG-20010904/DTD/svg10.dtd">
<svg version="1.0" xmlns="http://www.w3.org/2000/svg"
 width="200.000000pt" height="200.000000pt" viewBox="0 0 200.000000 200.000000"
 preserveAspectRatio="xMidYMid meet">

<g transform="translate(0.000000,200.000000) scale(0.100000,-0.100000)"
fill="#000000" stroke="none">
<path d="M764 1580 c-12 -4 -24 -15 -27 -23 -5 -14 -2 -14 28 -1 46 19 92 8
108 -24 29 -61 132 -93 184 -57 23 16 68 83 61 90 -2 3 -20 0 -39 -5 -52 -15
-118 -12 -200 10 -83 22 -86 22 -115 10z"/>
<path d="M1160 1584 c-9 -3 -24 -21 -35 -40 -10 -19 -34 -48 -52 -65 -65 -57
-114 -51 -187 22 -27 27 -58 49 -68 49 -39 0 -85 -61 -112 -151 -14 -47 -26
-98 -26 -113 0 -26 -3 -28 -27 -23 -23 5 -28 2 -29 -16 -6 -78 -21 -88 -86
-58 -55 26 -104 66 -269 219 -132 122 -181 158 -199 147 -6 -3 -10 -26 -10
-49 0 -88 83 -206 217 -309 131 -100 438 -261 453 -238 5 9 54 14 151 17 192
5 355 14 402 21 36 5 52 -8 25 -21 -7 -3 -2 -3 12 0 73 19 305 153 422 245
129 101 212 237 192 314 -15 62 -43 45 -245 -151 -144 -140 -216 -194 -260
-194 -22 0 -31 8 -51 53 -30 62 -82 204 -98 265 -18 70 -55 93 -120 76z m-465
-394 c-3 -5 -12 -10 -18 -10 -7 0 -6 4 3 10 19 12 23 12 15 0z m315 -96 c0 -2
-7 -4 -15 -4 -8 0 -15 4 -15 10 0 5 7 7 15 4 8 -4 15 -8 15 -10z"/>
<path d="M591 843 c9 -24 155 -173 169 -173 20 0 70 -47 70 -66 0 -9 28 -43
61 -76 47 -45 64 -57 70 -47 14 22 11 27 -38 73 -47 45 -47 47 -5 58 14 4 -14
25 -207 156 -68 47 -122 80 -120 75z"/>
<path d="M1330 804 c-36 -24 -82 -55 -102 -69 -21 -14 -38 -28 -38 -31 0 -4 7
0 17 7 12 10 17 11 20 2 8 -22 57 10 117 75 32 34 57 62 55 61 -2 0 -33 -20
-69 -45z"/>
<path d="M1131 606 c-27 -29 -19 -56 9 -31 19 17 33 55 21 55 -4 0 -18 -11
-30 -24z"/>
</g>
</svg>
