<?xml version="1.0" standalone="no"?>
<!DOCTYPE svg PUBLIC "-//W3C//DTD SVG 20010904//EN"
 "http://www.w3.org/TR/2001/REC-SVG-20010904/DTD/svg10.dtd">
<svg version="1.0" xmlns="http://www.w3.org/2000/svg"
 width="200.000000pt" height="200.000000pt" viewBox="0 0 200.000000 200.000000"
 preserveAspectRatio="xMidYMid meet">

<g transform="translate(0.000000,200.000000) scale(0.100000,-0.100000)"
fill="#000000" stroke="none">
<path d="M0 1000 l0 -1000 1000 0 1000 0 0 1000 0 1000 -1000 0 -1000 0 0
-1000z m740 715 l0 -95 38 0 37 0 0 92 c0 64 4 93 13 95 9 4 12 -21 12 -101
l0 -106 -60 0 -60 0 0 105 c0 63 4 105 10 105 6 0 10 -38 10 -95z m265 63 c0
-34 -19 -42 -23 -10 -3 17 -10 22 -33 22 -46 0 -39 -37 16 -83 37 -32 45 -44
45 -72 l0 -35 -60 0 -60 0 0 36 c0 39 23 44 28 6 3 -17 10 -22 33 -22 47 0 39
39 -16 84 -34 28 -45 44 -45 65 0 38 7 42 65 39 47 -3 50 -5 50 -30z m290 0
c0 -34 -19 -42 -23 -10 -3 18 -10 22 -38 22 l-34 0 0 -85 0 -85 35 0 c33 0 35
2 35 34 0 24 -5 36 -17 39 -10 3 -3 5 15 6 l33 1 -3 -47 -3 -48 -60 0 -60 0
-3 89 c-2 49 0 96 2 103 4 10 21 13 63 11 56 -3 58 -4 58 -30z m-165 -98 c0
-5 -18 -10 -41 -10 -24 0 -38 4 -34 10 3 6 22 10 41 10 19 0 34 -4 34 -10z
m-540 -70 l21 -30 392 0 392 0 17 30 17 30 216 0 c119 0 215 -4 213 -8 -1 -4
-50 -90 -108 -190 l-105 -182 -40 0 -40 0 -170 -287 c-223 -375 -210 -349
-191 -379 16 -23 13 -30 -91 -209 -59 -102 -109 -185 -113 -185 -3 0 -53 82
-111 183 -105 182 -105 184 -91 214 l15 31 -188 316 -188 316 -41 0 -41 0 -75
132 c-41 72 -90 158 -108 190 l-33 58 215 0 215 0 21 -30z"/>
<path d="M217 1568 c10 -18 45 -79 78 -135 32 -57 61 -103 64 -103 3 0 41 61
83 135 l77 135 -161 0 -160 0 19 -32z m263 7 c0 -3 -27 -48 -59 -101 -58 -95
-59 -96 -74 -73 -12 20 -87 143 -104 172 -2 4 50 7 116 7 67 0 121 -2 121 -5z"/>
<path d="M300 1545 c0 -10 55 -95 62 -95 7 0 58 82 58 93 0 4 -27 7 -60 7 -33
0 -60 -2 -60 -5z"/>
<path d="M550 1590 c0 -5 5 -10 10 -10 6 0 10 5 10 10 0 6 -4 10 -10 10 -5 0
-10 -4 -10 -10z"/>
<path d="M1435 1590 c-3 -5 -1 -10 4 -10 6 0 11 5 11 10 0 6 -2 10 -4 10 -3 0
-8 -4 -11 -10z"/>
<path d="M1559 1465 c42 -74 79 -134 82 -135 5 0 118 190 156 263 2 4 -68 7
-155 7 l-160 0 77 -135z m201 108 c0 -4 -25 -49 -57 -100 -39 -66 -59 -90 -65
-81 -29 43 -108 177 -108 182 0 3 52 6 115 6 63 0 115 -3 115 -7z"/>
<path d="M1590 1540 c0 -5 12 -29 27 -54 l27 -45 28 42 c40 60 37 67 -27 67
-30 0 -55 -4 -55 -10z"/>
<path d="M522 1538 c-7 -7 -12 -16 -12 -20 0 -4 221 -8 490 -8 270 0 490 4
490 8 0 30 -28 32 -490 32 -349 0 -469 -3 -478 -12z"/>
<path d="M474 1456 c-15 -24 -13 -30 101 -222 84 -141 120 -193 126 -183 6 9
9 -3 9 -34 0 -40 5 -54 29 -78 20 -20 40 -29 61 -29 l31 0 -36 35 c-60 61 -88
128 -89 215 0 90 22 146 83 213 60 64 126 91 226 92 67 0 88 -5 131 -27 190
-100 227 -349 73 -496 -64 -62 -134 -85 -234 -78 -100 7 -195 11 -195 10 0 -1
40 -69 88 -150 85 -144 89 -149 124 -152 l35 -3 253 426 c245 413 252 426 240
455 l-12 30 -514 0 -514 0 -16 -24z"/>
<path d="M940 1441 c-81 -26 -147 -81 -184 -150 -38 -73 -37 -110 3 -152 33
-35 35 -55 16 -117 -6 -18 0 -30 35 -63 37 -36 47 -40 77 -36 36 6 129 60 177
103 l28 25 -21 23 c-28 30 -27 36 9 36 25 0 35 7 52 36 l21 36 19 -36 c15 -29
24 -36 48 -36 35 0 38 -10 9 -36 -16 -15 -20 -27 -16 -56 6 -43 6 -43 -32 -24
-26 14 -30 13 -77 -21 -27 -19 -74 -47 -104 -62 l-55 -26 64 -3 c87 -4 176 38
226 106 42 59 63 118 47 134 -14 14 -16 32 -3 23 11 -6 26 33 17 42 -3 4 -6 1
-6 -5 0 -21 -17 -13 -25 11 -6 21 -7 21 -20 -8 l-13 -30 -7 27 c-8 31 -30 53
-65 62 l-25 7 23 -19 24 -18 -28 -19 c-27 -17 -28 -17 -39 0 -5 9 -18 27 -28
39 -17 20 -17 20 -1 -14 9 -19 23 -39 30 -43 8 -4 14 -12 14 -17 0 -18 -32
-40 -59 -40 -41 0 -44 -10 -15 -41 l25 -26 -38 -32 c-20 -17 -41 -31 -45 -31
-14 0 -30 42 -24 65 7 26 -18 80 -40 89 -9 3 -26 3 -38 0 -48 -12 -65 63 -26
113 10 13 16 31 13 39 -3 7 2 17 11 20 9 3 16 15 16 26 0 10 -4 16 -10 13 -5
-3 -10 -2 -10 4 0 17 20 23 35 11 17 -14 38 -3 31 16 -12 30 91 63 109 34 3
-5 25 -10 48 -10 l42 0 -29 15 c-34 18 -150 28 -186 16z"/>
<path d="M996 1395 c-3 -8 -1 -15 4 -15 13 0 22 18 11 24 -5 3 -11 -1 -15 -9z"/>
<path d="M425 1370 c-4 -14 58 -126 225 -407 128 -213 233 -389 235 -391 2 -2
13 -2 24 0 18 3 11 19 -72 159 -51 86 -103 169 -115 184 -12 15 -22 32 -22 37
0 14 -253 438 -262 438 -3 0 -9 -9 -13 -20z"/>
<path d="M1322 986 c-133 -224 -242 -410 -242 -412 0 -3 9 -4 21 -2 16 2 77
97 251 391 193 325 229 391 221 409 -8 18 -44 -38 -251 -386z"/>
<path d="M1050 1330 c0 -4 9 -10 20 -13 11 -3 20 -2 20 3 0 4 -9 10 -20 13
-11 3 -20 2 -20 -3z"/>
<path d="M958 1323 c-14 -2 -32 -11 -38 -19 -11 -12 -8 -13 17 -8 22 4 32 2
36 -9 4 -11 20 -15 51 -15 45 0 77 17 37 19 -33 2 -39 4 -46 11 -4 4 -14 4
-23 1 -11 -5 -14 -2 -9 10 3 9 5 16 4 16 -1 -1 -14 -4 -29 -6z"/>
<path d="M1130 1309 c7 -11 14 -19 16 -16 7 7 -7 37 -17 37 -6 0 -5 -9 1 -21z"/>
<path d="M386 1305 c-3 -9 0 -15 9 -15 16 0 20 16 6 24 -5 3 -11 -1 -15 -9z"/>
<path d="M1595 1310 c-8 -13 -1 -24 14 -19 6 3 7 10 2 18 -6 10 -10 10 -16 1z"/>
<path d="M825 580 c-3 -5 -1 -10 4 -10 6 0 11 5 11 10 0 6 -2 10 -4 10 -3 0
-8 -4 -11 -10z"/>
<path d="M1160 580 c0 -5 5 -10 11 -10 5 0 7 5 4 10 -3 6 -8 10 -11 10 -2 0
-4 -4 -4 -10z"/>
<path d="M842 532 c12 -27 154 -271 158 -272 5 0 151 250 158 271 2 5 -65 9
-158 9 -89 0 -160 -3 -158 -8z m266 -44 c-8 -13 -34 -56 -57 -95 -24 -40 -46
-73 -50 -73 -3 0 -22 26 -41 57 -19 32 -45 75 -58 95 l-23 38 122 0 121 0 -14
-22z"/>
<path d="M940 475 c0 -8 55 -95 60 -95 5 0 60 87 60 95 0 3 -27 5 -60 5 -33 0
-60 -2 -60 -5z"/>
</g>
</svg>
