<?xml version="1.0" encoding="UTF-8"?>
<svg xmlns="http://www.w3.org/2000/svg" xmlns:xlink="http://www.w3.org/1999/xlink" width="200px" height="200px" viewBox="0 0 200 200" version="1.1">
<g id="surface1">
<path style=" stroke:none;fill-rule:nonzero;fill:rgb(0%,0%,0%);fill-opacity:1;" d="M 47.5 23.898438 C 49.699219 24.300781 52.199219 24.898438 53 25.398438 C 53.800781 25.800781 53.601562 25.398438 52.601562 24.601562 C 51.5 23.699219 49 23.101562 47.101562 23.101562 L 43.5 23.300781 Z M 47.5 23.898438 "/>
<path style=" stroke:none;fill-rule:nonzero;fill:rgb(0%,0%,0%);fill-opacity:1;" d="M 135 26 C 134 26.601562 134.800781 26.699219 137.5 26.300781 C 142.398438 25.601562 143.300781 25 139.398438 25 C 137.800781 25 135.800781 25.5 135 26 Z M 135 26 "/>
<path style=" stroke:none;fill-rule:nonzero;fill:rgb(0%,0%,0%);fill-opacity:1;" d="M 44 29.898438 C 44 34.898438 45.398438 38.199219 48.101562 39.5 C 49.601562 40.300781 51.601562 40.699219 52.601562 40.300781 C 54 39.800781 54.199219 40.101562 53.601562 42.601562 C 53.199219 44.199219 52.898438 46.5 52.898438 47.699219 C 53 49 52.5 50 52 50 C 50.601562 50 50.699219 53.699219 52.101562 54.601562 C 52.898438 55.101562 52.898438 55.5 52 56 C 50.199219 57.101562 51.898438 62 54.199219 62 C 55.199219 62 55.898438 61.601562 55.601562 61.101562 C 55.300781 60.601562 55.601562 60 56.398438 59.699219 C 57.101562 59.398438 58.300781 60.199219 59 61.398438 C 59.898438 63.199219 60.898438 63.601562 63.5 63.398438 C 65.601562 63.300781 67.398438 63.800781 68.101562 64.601562 C 69.101562 65.800781 69.5 65.800781 70.300781 64.800781 C 70.898438 63.898438 71 64 70.601562 65.199219 C 70.300781 66.300781 71.101562 67.898438 72.800781 69.5 L 75.5 72 L 75.800781 69 C 76.199219 65 77.199219 65.199219 79.5 69.699219 L 81.300781 73.5 L 82.199219 69.199219 C 82.699219 66.898438 83.601562 65 84.101562 65 C 84.601562 65 85.898438 66.898438 87 69.199219 C 88 71.601562 88.898438 72.898438 88.898438 72.199219 C 89 71.5 89.5 71.199219 90.101562 71.601562 C 90.699219 71.898438 90.898438 73.398438 90.601562 74.898438 C 90 77.199219 90.101562 77.300781 91.300781 75.800781 C 92.101562 74.800781 93 74.300781 93.300781 74.699219 C 93.699219 75 94 74.800781 94 74.101562 C 94 73.398438 94.398438 73.101562 94.898438 73.5 C 95.398438 73.800781 96.199219 73 96.601562 71.800781 C 97.5 68.601562 101.101562 63.800781 101.898438 64.5 C 102.601562 65.300781 102.699219 65.800781 102.898438 70.699219 C 103 74.601562 104.101562 74.398438 106.398438 69.898438 C 107.699219 67.300781 110.300781 66 109.398438 68.398438 C 109.101562 69.199219 109.300781 70.699219 109.898438 71.699219 C 110.5 72.699219 111 72.898438 111 72.199219 C 111 71.601562 111.398438 71.101562 111.898438 71.199219 C 112.398438 71.398438 114.199219 70.300781 115.898438 68.699219 C 117.601562 67.199219 119 66.300781 119 66.800781 C 119 67.199219 120.699219 67.5 122.800781 67.5 C 124.898438 67.398438 126.5 66.898438 126.5 66.199219 C 126.5 65.101562 127 64.800781 128.800781 65.101562 C 131.699219 65.601562 132.601562 65.300781 133.699219 63.5 C 135.199219 61 135.398438 58.699219 133.898438 59.601562 C 133.300781 59.898438 133.5 59.101562 134.398438 57.800781 C 135.898438 55.5 135.898438 55.199219 134.5 54 C 133.601562 53.300781 133.101562 52.101562 133.398438 51.398438 C 133.699219 50.699219 133.398438 50 132.800781 49.800781 C 132.101562 49.5 131.898438 48.398438 132.300781 46.898438 C 132.699219 45.199219 133.699219 44.5 135.398438 44.398438 C 139.300781 44.101562 141.300781 41.398438 141.800781 35.398438 C 142.300781 29 141.199219 28.5 135.398438 32.5 C 133.300781 33.898438 130.601562 35.300781 129.300781 35.601562 C 128 36 127 36.601562 127 37.101562 C 127 37.601562 125.300781 38 123.300781 38 C 120.5 38 119.898438 38.300781 121 39 C 122.398438 39.898438 122.300781 40.101562 119.898438 40.398438 C 119.398438 40.398438 118 41.601562 117 43 C 115.800781 44.5 115 44.898438 115 44.101562 C 115 43.300781 116.199219 41.101562 117.699219 39.199219 C 119.898438 36.199219 120 35.800781 118.398438 36.5 C 115.800781 37.601562 110.800781 37.898438 109 36.898438 C 108.199219 36.5 104.398438 35.398438 100.5 34.601562 C 94.300781 33.199219 92.300781 33.199219 83 34.398438 C 71.699219 36 72 36 63.5 30.898438 C 60 28.898438 60.398438 29.398438 66.300781 35 C 70 38.601562 73 42.300781 73 43.199219 C 73 45.800781 70.699219 44.398438 69 40.800781 C 67 36.601562 62.101562 33.800781 60.199219 35.699219 C 59.5 36.398438 58.300781 37 57.699219 37 C 57 37 57.300781 36.5 58.300781 35.898438 C 60.601562 34.601562 59.101562 32.5 55.199219 31.5 C 53.699219 31.101562 52.199219 30.300781 51.800781 29.699219 C 51.5 29.101562 49.601562 28.5 47.601562 28.398438 C 44.699219 28.101562 44 28.398438 44 29.898438 Z M 48.699219 37.601562 C 48.398438 37.898438 47.5 38 46.800781 37.699219 C 46 37.398438 46.300781 37.101562 47.398438 37.101562 C 48.5 37 49.101562 37.300781 48.699219 37.601562 Z M 61.398438 38.898438 C 61.699219 39.398438 61.101562 40 59.898438 40.300781 C 58.300781 40.699219 58.101562 40.601562 59.101562 39.398438 C 60.398438 37.800781 60.699219 37.699219 61.398438 38.898438 Z M 67.699219 43.5 C 68.800781 46.800781 68.699219 47.398438 66.699219 49.699219 C 65.601562 51 64.101562 51.601562 63.199219 51.300781 C 62.300781 50.898438 61.898438 51.101562 62.300781 51.699219 C 62.699219 52.300781 62.300781 53.300781 61.398438 54 C 60.601562 54.699219 60.101562 55.898438 60.398438 56.5 C 60.601562 57.199219 60.5 58.199219 60.199219 58.800781 C 59 60.601562 56.398438 57.800781 55.601562 53.699219 C 55 50.699219 55.199219 50 56.5 50 C 57.300781 50 58 50.398438 58 51 C 58 52.398438 59.300781 52.199219 61.601562 50.601562 C 63.398438 49.199219 63.398438 49.101562 61 48.101562 C 58.800781 47.300781 58.699219 47.101562 60.5 46.898438 C 61.601562 46.800781 63 46.800781 63.601562 46.898438 C 64.300781 47 65 46.101562 65.300781 45 C 65.601562 43.898438 65.398438 43 64.898438 43 C 64.398438 43 64 43.5 64 44.101562 C 64 44.699219 63.101562 45 62 44.699219 C 60.898438 44.398438 60.199219 44.601562 60.601562 45.101562 C 61.5 46.601562 59.300781 46.101562 57.898438 44.398438 C 56.199219 42.300781 57.699219 41.5 62.898438 41.5 C 66.101562 41.5 67.199219 41.898438 67.699219 43.5 Z M 130.5 42 C 130.800781 42.5 130.398438 43 129.601562 43 C 128.800781 43 127.800781 42.5 127.5 42 C 127.199219 41.398438 127.601562 41 128.398438 41 C 129.199219 41 130.199219 41.398438 130.5 42 Z M 126.300781 44.898438 C 126.699219 45 127.5 45 128 45 C 129.898438 45 129 47.898438 126.800781 49.199219 C 125.5 49.898438 124.199219 50.300781 123.800781 50.199219 C 122.5 49.800781 122.898438 51.699219 124.5 53 C 125.300781 53.601562 126.800781 53.898438 128 53.5 C 129.5 53 130 53.300781 130 54.699219 C 130 55.699219 129.601562 57.199219 129 58 C 128.5 58.898438 128.5 59.898438 129.199219 60.699219 C 129.800781 61.5 130 62.300781 129.699219 62.699219 C 128.699219 63.699219 126.5 61.300781 125.101562 57.601562 C 124.300781 55.699219 122.601562 53.601562 121.300781 52.898438 C 119.699219 52.101562 119 50.800781 119 48.800781 C 119 47.300781 119.5 46 120.101562 46 C 120.601562 46 120.898438 45.601562 120.601562 45.101562 C 119.800781 43.800781 122.199219 43.101562 124 44 C 124.800781 44.5 125.800781 44.800781 126.300781 44.898438 Z M 126.300781 44.898438 "/>
<path style=" stroke:none;fill-rule:nonzero;fill:rgb(0%,0%,0%);fill-opacity:1;" d="M 122 48 C 122 48.5 122.5 49 123.101562 49 C 123.601562 49 123.800781 48.5 123.5 48 C 123.199219 47.398438 122.699219 47 122.398438 47 C 122.199219 47 122 47.398438 122 48 Z M 122 48 "/>
<path style=" stroke:none;fill-rule:nonzero;fill:rgb(0%,0%,0%);fill-opacity:1;" d="M 56.5 73.199219 C 56.800781 74.5 55.699219 76.398438 53.398438 78.699219 C 50.5 81.5 50.101562 82.398438 51 83.601562 C 52 84.699219 51.898438 85 50.699219 85 C 49.101562 85 48.898438 85.398438 45.5 94.5 L 43.199219 100.5 L 45.898438 101.699219 L 48.5 102.800781 L 45.398438 102.898438 C 42.699219 103 42.199219 103.398438 41.800781 106 C 41.5 108.300781 41.800781 109.101562 43.300781 109.601562 C 46 110.5 46.699219 109.199219 44.398438 107.5 C 42.601562 106.101562 42.800781 106 46.5 106.601562 C 51.601562 107.398438 52 107.800781 49.601562 109.601562 C 47.699219 110.898438 47.699219 111 50.398438 111 C 51.898438 111 52.898438 111.398438 52.5 111.898438 C 51.699219 113.398438 54 114.398438 55.300781 113.101562 C 55.898438 112.5 57.101562 112 58 112 C 60.300781 112 76.699219 129.199219 78.5 133.300781 C 80.601562 138.300781 80.398438 139.5 77.300781 142.5 C 74.601562 144.898438 74.601562 145 76.800781 145 C 78 145 79 145.5 79 146 C 79 146.601562 79.398438 146.898438 79.898438 146.800781 C 82.398438 146.101562 89.300781 152.601562 88.601562 154.800781 C 88.300781 155.699219 89.398438 154.898438 91 153 C 92.699219 151.101562 94 149 94 148.300781 C 94 147.199219 97.398438 146.300781 102 146 C 102.800781 146 105.199219 145.800781 107.199219 145.601562 C 111 145.199219 113.800781 146.898438 112.601562 148.898438 C 112.300781 149.398438 112.601562 150.101562 113.199219 150.398438 C 113.898438 150.699219 113.5 150.699219 112.300781 150.398438 C 109.300781 149.699219 101 153.398438 101 155.5 C 101 156.800781 101.800781 157.101562 104.398438 156.898438 C 106.300781 156.699219 108.300781 156.898438 108.699219 157.398438 C 109.101562 157.800781 109 158 108.5 157.898438 C 107.199219 157.5 97 162.300781 97 163.199219 C 97 163.699219 97.699219 164 98.601562 164 C 99.898438 164 100 164.300781 99.101562 165.300781 C 98.5 166.101562 98.300781 167 98.699219 167.398438 C 99.101562 167.800781 98.699219 167.800781 97.699219 167.398438 C 96.800781 167.101562 96 167.199219 96 167.800781 C 96 169 98.398438 170 101.300781 170 C 103.398438 169.898438 103.398438 169.898438 101.601562 168.5 C 99.898438 167.199219 100.300781 167.101562 105.101562 167.699219 C 111.101562 168.398438 112.800781 169 108.5 169 C 106.199219 169 105.898438 169.199219 107 170.5 C 107.800781 171.5 108.699219 171.699219 110 171 C 111.800781 170 114 171.398438 114 173.5 C 114 174.101562 115.300781 175.898438 116.800781 177.398438 C 119.300781 179.699219 119.898438 179.898438 120.898438 178.601562 C 121.601562 177.800781 122.800781 177.398438 123.5 177.699219 C 124.300781 178 125.699219 177.398438 126.699219 176.398438 C 128.398438 174.699219 128.300781 174.699219 124.699219 175.300781 C 120.5 176 119.699219 174.398438 123.101562 172 C 128.800781 167.898438 128.5 168.398438 127 166.398438 C 125.699219 164.800781 125.800781 164.800781 128.199219 166.5 C 130.199219 168.101562 130.601562 168.800781 129.699219 169.898438 C 128.699219 171 128.898438 171.199219 131 170.5 C 133.300781 169.800781 133.398438 169.800781 132 171.601562 C 131.199219 172.601562 130.101562 173.898438 129.5 174.300781 C 129 174.699219 129.699219 174.800781 131.300781 174.398438 C 132.800781 174.101562 134 174.199219 134 174.699219 C 134 175.898438 129.101562 178.601562 125.398438 179.398438 C 122.800781 180 122.300781 180.601562 122.199219 183.300781 C 122.199219 185.300781 122.398438 186 122.898438 185.101562 C 123.398438 184.300781 124.300781 184.101562 124.898438 184.398438 C 126.800781 185.601562 126.101562 188.898438 123.5 190.601562 C 121.101562 192.199219 120.800781 192.199219 119.601562 190.5 C 118.101562 188.398438 107.300781 186.699219 106.300781 188.398438 C 105.898438 188.898438 106.199219 189.601562 106.800781 189.800781 C 107.5 190 107.800781 190.601562 107.398438 191.101562 C 107.101562 191.601562 107.398438 192 107.898438 192 C 108.5 192 109 193.601562 109 195.5 C 109 197.398438 108.601562 199 108.101562 199 C 107.601562 199 107.398438 198.199219 107.699219 197.101562 C 108 195.898438 107.398438 194.699219 105.898438 193.601562 C 102.601562 191.300781 102 191.601562 102 195.398438 C 102 197.300781 101.398438 199 100.800781 199.300781 C 100.101562 199.601562 109.300781 199.800781 121.300781 199.898438 L 143.101562 200 L 140.398438 195.800781 C 138.898438 193.5 137.699219 190.300781 137.800781 188.800781 C 137.800781 186.699219 137.199219 185.601562 135.101562 184.601562 C 131.5 182.699219 129.199219 180 131.199219 180 C 132 180 133.101562 180.5 133.699219 181.101562 C 134.398438 181.800781 135.398438 181.898438 136.199219 181.398438 C 136.898438 180.898438 138.601562 180.5 139.898438 180.5 C 141.199219 180.5 142.5 179.898438 142.800781 179.101562 C 143.101562 178.101562 142.601562 178 140.898438 178.5 C 138.800781 179.199219 138.699219 179.101562 139.898438 177.601562 C 140.601562 176.699219 141.800781 176 142.5 176 C 143.300781 176 144 175.5 144.199219 174.800781 C 144.5 174.101562 145.398438 173.898438 146.398438 174.300781 C 147.398438 174.699219 148 175.601562 147.699219 176.398438 C 147.300781 177.398438 148.101562 178.101562 150 178.5 C 151.699219 178.898438 153.199219 179.601562 153.5 180.101562 C 153.898438 180.601562 155.199219 181 156.601562 181 C 159.398438 181 166.898438 184.601562 167.199219 186 C 167.699219 189.398438 167.5 189.5 159.601562 189.101562 C 150.601562 188.800781 149.800781 189.300781 150.601562 195.5 C 151.101562 199.199219 151.101562 199.300781 149.800781 197.101562 C 149.101562 195.800781 147.601562 194.101562 146.5 193.398438 C 144.5 192.101562 144.398438 192.199219 144.5 196 L 144.5 200 L 200 200 L 200 193.101562 L 194.300781 193.398438 C 191.101562 193.601562 187.601562 194.101562 186.5 194.5 C 184.898438 195.101562 184.800781 195 186 194.101562 C 187.199219 193.199219 186.898438 193 184.300781 193 C 181.601562 193 180.800781 192.398438 179.5 189.5 C 178.601562 187.601562 177.199219 185.601562 176.398438 184.898438 C 175.601562 184.300781 175 183.101562 175 182.398438 C 175 180.601562 169.5 172.898438 168.699219 173.601562 C 168.398438 173.898438 167.101562 173.5 165.800781 172.699219 C 164.601562 171.898438 160.199219 170 156.199219 168.5 C 152.199219 167 148.398438 165.300781 147.699219 164.699219 C 147.101562 164 145.199219 162.800781 143.5 162 C 140.199219 160.398438 137.398438 158 138.699219 158 C 139.101562 158 138.5 157.300781 137.398438 156.5 C 135.300781 155.101562 134.300781 152.101562 133.398438 144.5 C 132.300781 134.699219 128.699219 123 126.800781 123 C 126.300781 123 126 122.5 126 122 C 126 121.398438 124.800781 119.101562 123.300781 116.898438 C 121.800781 114.601562 120.398438 111.800781 120.300781 110.699219 C 120.101562 109.5 119.300781 107.5 118.398438 106.300781 C 117.601562 105 117.199219 103.5 117.5 103 C 117.800781 102.5 117.199219 101.601562 116.300781 101 C 114.699219 100 114.699219 99.898438 116.199219 100.398438 C 118.300781 101 123.300781 97.199219 122.601562 95.398438 C 122.300781 94.601562 123.101562 94 124.800781 93.800781 C 126.5 93.601562 127.601562 92.800781 127.800781 91.601562 C 128.101562 90.5 129.101562 88.898438 130.199219 88.101562 C 131.199219 87.199219 132.5 84.800781 133 82.699219 C 133.800781 79.199219 133.699219 78.898438 131.898438 79.300781 C 130.898438 79.601562 129.699219 79.398438 129.398438 78.898438 C 129.101562 78.398438 129.199219 78 129.699219 78.101562 C 131.898438 78.5 131.898438 77.800781 129.601562 75.5 C 127.300781 73.199219 126.601562 73 122.300781 73.699219 C 117.699219 74.5 115 77 118.800781 77 C 119.898438 77 121 77.5 121.199219 78.199219 C 121.800781 79.800781 118 84.101562 116.699219 83.300781 C 116.101562 82.898438 115.898438 83.300781 116.300781 84.300781 C 116.800781 85.601562 116.398438 86 114.898438 86 C 113.601562 86 113.101562 86.398438 113.601562 87.199219 C 114.101562 87.898438 113.898438 88 112.898438 87.5 C 112.199219 87 109.601562 86.699219 107.199219 86.898438 C 101.800781 87.199219 101.699219 84.800781 107.101562 83.898438 C 111 83.300781 115 81.300781 115 80 C 115 79.601562 115.300781 78.5 115.601562 77.601562 C 116.101562 76.300781 115.5 76 113.101562 76 C 109 76 104.300781 78.398438 100.398438 82.5 C 98 85.199219 97.601562 86.300781 98.300781 88.199219 C 98.898438 90 98.898438 90.300781 97.898438 89.199219 C 96.101562 87.5 95.300781 87.699219 94.699219 89.800781 C 94.101562 92.300781 90.101562 93.398438 89.300781 91.398438 C 88.398438 89.101562 90.601562 87.398438 92.5 89 C 93.5 89.800781 94 89.898438 94 89.199219 C 94 87.601562 90.300781 85.800781 89.5 87 C 89.199219 87.5 87.699219 88.800781 86.101562 89.898438 C 83.601562 91.699219 83.101562 91.800781 82.601562 90.398438 C 82.300781 89.601562 82.398438 89.199219 83 89.5 C 83.5 89.800781 84.898438 89.101562 86 88 L 88 86 L 86 83.800781 C 84.898438 82.601562 84 81.300781 84 80.898438 C 84 80.5 82 79.300781 79.5 78.101562 C 77 76.898438 75 75.5 75 74.898438 C 75 74.101562 74.398438 74.199219 73.300781 75.101562 C 71.800781 76.300781 71.699219 76.300781 72.5 75 C 73.300781 73.699219 73.101562 73.699219 71.800781 74.800781 C 68.800781 77.199219 72.300781 81 78.800781 82.398438 C 80.5 82.800781 82 83.800781 82 84.5 C 82 86.300781 80.300781 87.300781 79.5 85.898438 C 79.101562 85.398438 77.101562 85 75 85.101562 C 72.898438 85.300781 70.601562 84.898438 69.800781 84.300781 C 68.5 83.199219 68.199219 83.101562 65.800781 82.898438 C 65.101562 82.898438 65.398438 82.5 66.5 82 C 67.601562 81.5 67.898438 81.101562 67.199219 81.101562 C 66.5 81 66.101562 80.601562 66.398438 80.101562 C 66.699219 79.601562 66.300781 78.699219 65.5 78 C 63.398438 76.199219 63.601562 74.199219 66 73.800781 C 70.398438 73.101562 67.699219 71.5 62.101562 71.398438 C 56.601562 71.199219 56.199219 71.398438 56.5 73.199219 Z M 62.101562 78.398438 C 61.300781 79.398438 61.199219 80 62 80.5 C 62.5 80.800781 63 81.601562 63 82.199219 C 63 82.898438 62.398438 82.800781 61.5 82 C 60.300781 81 60 81 60 82.398438 C 60 83.5 59.101562 84 57.300781 83.898438 C 54.601562 83.898438 54.601562 83.800781 56.800781 83 C 58 82.5 59 81.800781 59 81.5 C 59 81.101562 58.398438 81.199219 57.800781 81.5 C 57.101562 81.898438 57.800781 81 59.300781 79.601562 C 62.300781 76.800781 64 76.101562 62.101562 78.398438 Z M 127.398438 86.398438 C 126.300781 89.199219 124.398438 88 124.898438 84.699219 C 124.898438 84.300781 124.398438 84 123.800781 84 C 122.898438 84 122.898438 83.699219 123.898438 83.101562 C 125.699219 81.898438 128.199219 84.300781 127.398438 86.398438 Z M 57.398438 86.5 C 57 87.300781 56.101562 88 55.398438 88 C 54.199219 88 54.199219 87.699219 55.199219 86.5 C 56.898438 84.601562 58.101562 84.601562 57.398438 86.5 Z M 67.699219 86.601562 C 67.398438 86.898438 66.5 87 65.800781 86.699219 C 65 86.398438 65.300781 86.101562 66.398438 86.101562 C 67.5 86 68.101562 86.300781 67.699219 86.601562 Z M 79.699219 87.800781 C 80.398438 88.199219 80.601562 89.101562 80.101562 89.898438 C 79.199219 91.398438 81.699219 95 83.601562 95 C 84.5 95 85.398438 96.300781 87.800781 101.199219 C 88 101.699219 87.5 102 86.601562 102 C 85.699219 102 85 102.5 85 103.101562 C 85 104.300781 79.699219 103.398438 76.5 101.699219 C 75.398438 101.101562 74.300781 100.601562 74 100.699219 C 73.5 100.800781 73.101562 98.800781 72.898438 94.699219 C 72.898438 93.101562 71.800781 92.5 69.5 93 C 65.898438 93.699219 58 93.601562 58 92.898438 C 58 92.398438 58.601562 92 59.300781 91.898438 C 59.898438 91.898438 59.601562 91.5 58.5 91 C 56.898438 90.398438 57.101562 90.199219 59.800781 90.300781 C 61.601562 90.300781 62.601562 90.601562 62 91 C 61.199219 91.5 61.601562 91.898438 62.898438 92.300781 C 64.800781 92.800781 66.601562 90.699219 65.5 89.101562 C 65.300781 88.699219 67.398438 88.199219 70.199219 88.101562 C 73.101562 88 75.601562 87.699219 75.898438 87.5 C 76.601562 86.800781 78.300781 86.898438 79.699219 87.800781 Z M 109.398438 89.699219 C 109.699219 90.101562 110.601562 90.5 111.300781 90.601562 C 112 90.699219 113.398438 91.199219 114.398438 91.601562 C 115.898438 92.199219 116.199219 92 115.601562 90.898438 C 115.199219 90.101562 115.601562 90.398438 116.398438 91.398438 C 117.601562 92.898438 117.699219 93.601562 116.800781 94.101562 C 116.101562 94.601562 115.199219 94.398438 114.800781 93.699219 C 114.300781 92.898438 114 93.101562 114 94.199219 C 114 95.199219 113.300781 96 112.5 96 C 110.5 96 110.601562 97.699219 112.800781 99 C 114.300781 99.898438 114.199219 100 112.300781 99.5 C 109 98.601562 109.5 99.699219 113.101562 101.5 C 114.800781 102.398438 116 103.398438 115.699219 103.699219 C 115.398438 103.898438 114.101562 103.398438 112.699219 102.601562 C 110.300781 101 107 101.300781 107 103.101562 C 107 104.398438 100.300781 104.199219 98.101562 102.800781 C 96.300781 101.699219 96.300781 101.601562 98.199219 98.300781 C 99.300781 96.5 100.699219 94.699219 101.300781 94.300781 C 101.898438 94 102 94.199219 101.601562 94.800781 C 100.398438 96.800781 102.601562 96.101562 104.601562 93.898438 C 106.5 91.699219 106.5 91.699219 103.800781 92.398438 C 101.699219 92.898438 101 92.699219 101 91.601562 C 101 90.800781 101.601562 89.898438 102.300781 89.699219 C 104.199219 88.898438 108.601562 88.898438 109.398438 89.699219 Z M 61.601562 95.898438 C 61.300781 96.398438 60 97 58.800781 97.300781 C 56.601562 97.898438 56.601562 97.800781 58.398438 96.5 C 60.601562 94.800781 62.398438 94.5 61.601562 95.898438 Z M 65 96 C 65 96.5 64.601562 97 64 97 C 63.5 97 63 96.5 63 96 C 63 95.398438 63.5 95 64 95 C 64.601562 95 65 95.398438 65 96 Z M 117.699219 96.601562 C 117.398438 96.898438 116.5 97 115.800781 96.699219 C 115 96.398438 115.300781 96.101562 116.398438 96.101562 C 117.5 96 118.101562 96.300781 117.699219 96.601562 Z M 71.699219 98.601562 C 71.398438 98.898438 70.5 99 69.800781 98.699219 C 69 98.398438 69.300781 98.101562 70.398438 98.101562 C 71.5 98 72.101562 98.300781 71.699219 98.601562 Z M 66.5 100.898438 C 66.199219 101.5 65.398438 102 64.898438 102 C 64.398438 102 64.5 101.398438 65.199219 100.601562 C 66.601562 99 67.601562 99.300781 66.5 100.898438 Z M 112.5 104 C 112.800781 104.5 112.699219 105 112.101562 105 C 111.601562 105 110.800781 104.5 110.5 104 C 110.199219 103.398438 110.300781 103 110.898438 103 C 111.398438 103 112.199219 103.398438 112.5 104 Z M 81 114.398438 C 81 115.101562 82.101562 117.398438 83.5 119.5 C 84.898438 121.5 85.5 123 84.898438 122.800781 C 83.699219 122.398438 79 114.601562 79 112.898438 C 79 112.300781 79.5 112.199219 80 112.5 C 80.601562 112.800781 81 113.699219 81 114.398438 Z M 102 115.101562 C 101.300781 116.199219 100.601562 116.898438 100.300781 116.601562 C 100 116.300781 100.300781 115.398438 101 114.5 C 102.800781 112.398438 103.300781 112.601562 102 115.101562 Z M 95 116.300781 C 95 116.800781 95.398438 116.898438 95.898438 116.601562 C 96.398438 116.199219 96.699219 116.699219 96.601562 117.601562 C 96.300781 119.800781 94.101562 121 90.398438 121 C 87 121 85.300781 119.5 85.300781 116.800781 C 85.300781 115.300781 86.199219 115.101562 90.199219 115.300781 C 92.800781 115.398438 95 115.898438 95 116.300781 Z M 97 122.5 C 95.699219 123.898438 94.300781 125 93.800781 125 C 92.898438 125 98 120.101562 98.898438 120 C 99.199219 120 98.300781 121.101562 97 122.5 Z M 108.398438 126.5 C 110.101562 127.800781 110.199219 128 108.601562 128.601562 C 106.800781 129.300781 103.699219 127.300781 104.601562 125.898438 C 105.300781 124.699219 106.199219 124.800781 108.398438 126.5 Z M 107.101562 130.699219 C 108.300781 132.101562 108.300781 132.300781 107 131.800781 C 101.5 129.601562 101.398438 129.601562 104 131.800781 L 106.5 134 L 103.300781 132.898438 C 101.199219 132.199219 100.300781 131.398438 100.699219 130.398438 C 101.398438 128.5 105.5 128.601562 107.101562 130.699219 Z M 103 139 C 104.300781 139.800781 104.300781 140 102.800781 140 C 101.898438 140 100.800781 139.5 100.5 139 C 99.699219 137.699219 101 137.699219 103 139 Z M 109.398438 162.898438 C 109.699219 163.398438 108.898438 163.699219 107.601562 163.601562 C 106.300781 163.601562 105.398438 163.199219 105.699219 162.699219 C 106.300781 161.699219 108.800781 161.800781 109.398438 162.898438 Z M 140 166 C 141.300781 166.800781 141.300781 167 139.800781 167 C 138.898438 167 137.800781 166.5 137.5 166 C 136.699219 164.699219 138 164.699219 140 166 Z M 142.5 173 C 143.300781 174.300781 142 174.300781 140 173 C 138.699219 172.199219 138.699219 172 140.199219 172 C 141.101562 172 142.199219 172.398438 142.5 173 Z M 134.101562 188.199219 C 135.199219 189.300781 136 191.199219 135.898438 192.398438 C 135.898438 193.601562 135.601562 193.898438 135.300781 193.199219 C 134.5 191.199219 133 191.800781 132 194.601562 C 131.398438 196 130.398438 197 129.699219 196.699219 C 128 196.101562 128.300781 188.101562 130.101562 186.898438 C 132 185.699219 132 185.699219 134.101562 188.199219 Z M 134.101562 188.199219 "/>
<path style=" stroke:none;fill-rule:nonzero;fill:rgb(0%,0%,0%);fill-opacity:1;" d="M 90 78.800781 C 90 79.199219 90.898438 79.601562 92 79.699219 C 93.101562 79.800781 93.800781 79.5 93.5 78.898438 C 92.800781 77.800781 90 77.699219 90 78.800781 Z M 90 78.800781 "/>
<path style=" stroke:none;fill-rule:nonzero;fill:rgb(0%,0%,0%);fill-opacity:1;" d="M 41.601562 112.398438 C 42 113.398438 41.699219 114 40.800781 114 C 40.101562 114 39.300781 115.101562 39.199219 116.5 C 39.101562 117.898438 39.5 119 40.101562 119 C 40.601562 119 39.5 120.601562 37.5 122.699219 C 33.800781 126.5 33.398438 127.5 35 128.5 C 35.601562 128.898438 35.800781 129.601562 35.5 130.101562 C 34.699219 131.300781 37.601562 131.300781 40 130 C 41.199219 129.398438 42.898438 129.398438 45 130.101562 C 47.398438 131 48.398438 131 49.300781 130 C 50.199219 129 50.101562 128.800781 48.800781 129.300781 C 47.699219 129.699219 47.101562 129.5 47.300781 128.699219 C 47.398438 128 46.398438 127.5 45.101562 127.5 C 43.800781 127.5 42.5 126.898438 42.199219 126.101562 C 42 125.300781 42.101562 125 42.601562 125.199219 C 43.101562 125.5 44.398438 125.398438 45.5 124.898438 C 47.199219 124.199219 47.300781 124.101562 45.699219 124.101562 C 44.199219 124 44.101562 123.601562 45 122 C 45.601562 120.800781 45.699219 120 45.101562 120 C 44.601562 120 44.398438 119.101562 44.699219 118 C 45 116.898438 45.699219 116.300781 46.300781 116.699219 C 46.898438 117.101562 47 116.800781 46.398438 115.898438 C 45.898438 115.101562 45.5 113.800781 45.5 113 C 45.5 112.199219 44.5 111.398438 43.300781 111.199219 C 41.601562 110.898438 41.199219 111.199219 41.601562 112.398438 Z M 41.601562 112.398438 "/>
<path style=" stroke:none;fill-rule:nonzero;fill:rgb(0%,0%,0%);fill-opacity:1;" d="M 48.601562 116.601562 C 48.101562 118 48.199219 118.101562 49.5 117 C 51.199219 115.601562 51.398438 115 50.101562 115 C 49.601562 115 48.898438 115.699219 48.601562 116.601562 Z M 48.601562 116.601562 "/>
<path style=" stroke:none;fill-rule:nonzero;fill:rgb(0%,0%,0%);fill-opacity:1;" d="M 31.398438 131.398438 C 29.898438 135.199219 35 139 41.398438 139 C 43.800781 139 45.398438 139.800781 47.300781 142 C 50.300781 145.300781 50.5 146.199219 48.800781 148.898438 C 47.898438 150.398438 47.898438 151.699219 49 155 C 50.101562 158.398438 50.101562 160 49.199219 163.699219 C 48 168 48.101562 168.5 50.601562 172.300781 C 52.101562 174.5 54.699219 177.601562 56.398438 179.199219 C 59.800781 182.300781 59.398438 184.398438 54.898438 186.699219 C 53.5 187.398438 52.300781 189.101562 52 190.699219 C 51.601562 192.898438 50.898438 193.601562 48.699219 193.800781 C 46.101562 194.101562 45.898438 193.898438 46.5 191.800781 C 46.898438 190.5 47.601562 189.101562 48.101562 188.601562 C 49.699219 186.800781 49 186 45.898438 186 C 42.898438 186 42.800781 186.101562 43.398438 189.398438 C 43.898438 191.898438 43.699219 192.898438 42.5 193.398438 C 41.601562 193.699219 41 193.398438 41 192.5 C 41 191.699219 40.601562 191 40.101562 191 C 39.699219 191 39.5 192.101562 39.800781 193.5 C 40.300781 196.398438 39.300781 196.601562 36.5 194.300781 C 34.601562 192.800781 34.601562 192.800781 36.398438 193.398438 C 38.300781 194.101562 38.300781 194 36.601562 192.199219 C 35.5 190.898438 34.101562 190.398438 32.800781 190.800781 C 31 191.199219 30.800781 191 31.398438 188.699219 C 32 186 31.398438 185.101562 28 184.5 C 25.5 184 25.5 183.601562 28.601562 190.398438 C 31 195.601562 31.101562 198 29 198 C 28.5 198 27.699219 196.800781 27.398438 195.199219 C 27 193.699219 26.300781 191.898438 25.699219 191.199219 C 24.300781 189.5 23 191.398438 23 195.199219 C 23 197.800781 21.398438 199.800781 20.300781 198.601562 C 19.699219 198 21.199219 190.101562 22.5 186.5 C 23 185.101562 22.300781 185.5 20.101562 187.699219 C 18.300781 189.5 16.5 191 15.898438 191 C 15.398438 191 15 192.601562 15 194.601562 C 15 197.699219 14.699219 198.101562 12.699219 197.800781 C 11 197.601562 10.5 196.898438 10.699219 194.800781 C 10.898438 191.800781 10.398438 191.5 8 193 C 6.800781 193.699219 6.800781 194.199219 7.800781 195.199219 C 9.699219 197.101562 9.199219 198 6.5 198 C 5.101562 198 4 197.5 4 197 C 4 196.398438 4.5 196 5.101562 196 C 5.699219 196 5.5 195.300781 4.601562 194.5 C 2.101562 192 0 192.601562 0 195.898438 C 0 198.699219 0.199219 198.800781 5.199219 199.300781 C 8.101562 199.5 28.101562 199.800781 49.699219 199.898438 L 88.898438 200 L 89.800781 196.800781 C 90.199219 195.101562 91.101562 193.5 91.800781 193.199219 C 93.398438 192.699219 93.398438 197.199219 91.800781 198.800781 C 90.898438 199.699219 91.300781 200 93.699219 200 C 96 200 96.898438 199.5 97.398438 197.800781 C 98.398438 194 98.101562 192 96.5 192 C 94.699219 192 94.5 189.898438 96.101562 188.300781 C 97 187.398438 96.800781 187.199219 95.300781 187.601562 C 94.101562 187.898438 92.898438 187.699219 92.601562 187.101562 C 92.199219 186.5 91.101562 186 90.300781 186 C 88.898438 186 89 186.398438 90.800781 188 C 93.601562 190.699219 93.601562 192 90.699219 192 C 89 192 87.898438 193 86.699219 195.5 C 85.800781 197.398438 84.601562 199 84 199 C 81.898438 199 83.101562 194.300781 86 191.199219 C 88.199219 188.699219 88.699219 187.5 88.101562 185.800781 C 87.601562 184.398438 87.101562 184.101562 86.601562 184.800781 C 86.199219 185.5 86.199219 186 86.699219 186 C 87.101562 186 87.101562 186.398438 86.5 186.800781 C 86 187.199219 85 188.398438 84.398438 189.5 C 83.800781 190.699219 81.898438 191.699219 79.898438 192 C 77.398438 192.398438 76.5 193 76.398438 194.5 C 76.199219 198.398438 76 199 74.898438 199 C 73.5 199 74.5 191.101562 76.398438 188.199219 C 76.800781 187.398438 77.898438 184.101562 78.601562 180.699219 C 79.398438 177.300781 80.300781 173.601562 80.601562 172.5 C 81.101562 170.5 81.101562 170.5 79.601562 172.398438 C 78.699219 173.5 77.699219 174.101562 77.398438 173.699219 C 77 173.398438 75.898438 173.5 74.898438 174.101562 C 73.5 174.800781 73 174.699219 73 173.898438 C 73 173.199219 72.699219 173 72.300781 173.300781 C 71.199219 174.5 69.101562 170.601562 69 167.300781 C 69 165.601562 68.601562 163.800781 68 163.5 C 67.5 163.199219 67 163.800781 67 164.898438 C 67 166.898438 66.898438 166.898438 65 165.300781 C 63.898438 164.300781 63 163 63 162.300781 C 63 161.601562 61 159.699219 58.5 158 C 56 156.300781 54 154.601562 54 154.300781 C 54 153.898438 54.300781 154 54.699219 154.398438 C 55.101562 154.800781 56 153.601562 56.601562 151.800781 C 57.199219 150 58 148.699219 58.5 148.800781 C 58.898438 149 59.601562 148.699219 59.898438 148.101562 C 60.300781 147.601562 61.898438 146.898438 63.5 146.601562 C 65.101562 146.300781 66.800781 145.398438 67.199219 144.601562 C 67.699219 143.800781 68.699219 143.300781 69.5 143.601562 C 70.5 144 71 143.601562 71 142.5 C 71 141.601562 70.601562 141.199219 70 141.5 C 69.5 141.800781 69 141.398438 69 140.398438 C 69 139.101562 68.699219 139 67.5 140 C 66.398438 140.898438 66 140.898438 66 140.101562 C 66 139.398438 65.601562 139.199219 65 139.5 C 64.398438 139.800781 64.300781 139.398438 64.699219 138.5 C 65.101562 137.300781 65.5 137.199219 66 138 C 66.5 138.800781 66.898438 138.699219 67.300781 137.5 C 67.699219 136.601562 67.601562 136.101562 67.101562 136.5 C 66.601562 136.800781 65.5 136.300781 64.699219 135.5 C 62.898438 133.699219 61 133.5 61 135.101562 C 61 135.898438 60.601562 135.898438 59.601562 135.101562 C 58.699219 134.300781 58 134.300781 57.601562 134.898438 C 57.199219 135.5 56.199219 135.699219 55.199219 135.398438 C 54.300781 135.101562 54.601562 135.5 55.800781 136.300781 L 58.199219 137.699219 L 55.5 139.398438 C 52.898438 141.101562 49 140.800781 49 138.898438 C 49 138.398438 48.101562 138 47 138 C 45.300781 138 45.101562 137.699219 46 136.101562 C 47.601562 133 47.300781 132.699219 42.5 133.398438 C 38.800781 134 37.699219 133.800781 35.800781 132.101562 C 33.199219 129.601562 32.101562 129.5 31.398438 131.398438 Z M 31.398438 131.398438 "/>
<path style=" stroke:none;fill-rule:nonzero;fill:rgb(0%,0%,0%);fill-opacity:1;" d="M 28.199219 143.199219 C 28.398438 144.601562 29.699219 145.699219 32.398438 146.699219 C 36.800781 148.199219 38.5 147.5 35.601562 145.398438 C 34.5 144.601562 34 144 34.601562 144 C 35.398438 143.898438 29.300781 141 28.300781 141 C 28.101562 141 28 142 28.199219 143.199219 Z M 28.199219 143.199219 "/>
<path style=" stroke:none;fill-rule:nonzero;fill:rgb(0%,0%,0%);fill-opacity:1;" d="M 28.199219 151.199219 C 26.398438 153 26.699219 154 28.898438 154 C 30 154 31.101562 154.398438 31.398438 154.898438 C 31.699219 155.300781 33.800781 156 35.898438 156.398438 C 38.300781 156.800781 40.898438 158 42.300781 159.601562 C 45.800781 163.398438 46.800781 160.101562 43.398438 156 C 41.398438 153.699219 40 153 37.101562 153 C 35.101562 153 32.5 152.300781 31.398438 151.5 C 29.800781 150.5 29 150.398438 28.199219 151.199219 Z M 28.199219 151.199219 "/>
<path style=" stroke:none;fill-rule:nonzero;fill:rgb(0%,0%,0%);fill-opacity:1;" d="M 91.199219 157.300781 C 88.800781 160.398438 88.898438 160.898438 92 160 C 93.800781 159.5 95 159.5 95 160.101562 C 95 161.601562 97.699219 161.101562 98.300781 159.5 C 99 157.800781 98.300781 157.300781 94.699219 156.601562 C 93.300781 156.398438 91.699219 156.699219 91.199219 157.300781 Z M 91.199219 157.300781 "/>
<path style=" stroke:none;fill-rule:nonzero;fill:rgb(0%,0%,0%);fill-opacity:1;" d="M 26 159.601562 C 26 160.699219 26.5 161 27.601562 160.601562 C 28.5 160.300781 29.601562 160 30.101562 160 C 30.699219 160 30.800781 159.5 30.5 159 C 29.5 157.398438 26 157.800781 26 159.601562 Z M 26 159.601562 "/>
<path style=" stroke:none;fill-rule:nonzero;fill:rgb(0%,0%,0%);fill-opacity:1;" d="M 44.601562 165.601562 C 43.898438 167.398438 44.601562 169 46.101562 169 C 46.601562 169 47 167.898438 47 166.5 C 47 163.699219 45.5 163.101562 44.601562 165.601562 Z M 44.601562 165.601562 "/>
<path style=" stroke:none;fill-rule:nonzero;fill:rgb(0%,0%,0%);fill-opacity:1;" d="M 79.601562 166.898438 C 79.300781 167.398438 79.601562 168 80.300781 168.300781 C 81.101562 168.601562 81.699219 168.199219 81.699219 167.398438 C 81.699219 165.800781 80.398438 165.5 79.601562 166.898438 Z M 79.601562 166.898438 "/>
<path style=" stroke:none;fill-rule:nonzero;fill:rgb(0%,0%,0%);fill-opacity:1;" d="M 26.300781 169.101562 C 24.398438 169.601562 23 170.699219 23 171.601562 C 23 172.898438 24 173 29.300781 172.398438 C 37.199219 171.601562 38 171 34 169.398438 C 30.398438 167.800781 30.699219 167.800781 26.300781 169.101562 Z M 26.300781 169.101562 "/>
<path style=" stroke:none;fill-rule:nonzero;fill:rgb(0%,0%,0%);fill-opacity:1;" d="M 89 172.199219 C 89 173.800781 93.898438 176.5 99.601562 178 C 103.398438 178.898438 103.699219 179.199219 103.398438 182.101562 C 103.199219 183.898438 103.398438 184.898438 104 184.5 C 104.601562 184.199219 105 183 105 181.898438 C 105 180.800781 105.398438 179.101562 106 178.101562 C 106.699219 176.699219 106.398438 176.101562 104.699219 175.199219 C 97.398438 171.800781 89 170.101562 89 172.199219 Z M 89 172.199219 "/>
<path style=" stroke:none;fill-rule:nonzero;fill:rgb(0%,0%,0%);fill-opacity:1;" d="M 93 182.199219 C 93 182.601562 93.398438 183 93.898438 183 C 94.5 183 95.101562 182.601562 95.398438 182.199219 C 95.699219 181.699219 95.300781 181.300781 94.5 181.300781 C 93.699219 181.300781 93 181.699219 93 182.199219 Z M 93 182.199219 "/>
<path style=" stroke:none;fill-rule:nonzero;fill:rgb(0%,0%,0%);fill-opacity:1;" d="M 0 187 C 0 187.398438 2.300781 187.800781 5.199219 187.898438 C 8 187.898438 10 187.699219 9.699219 187.398438 C 8.800781 186.398438 0 186.101562 0 187 Z M 0 187 "/>
</g>
</svg>
