<?xml version="1.0" encoding="UTF-8"?>
<svg id="Layer_1" data-name="Layer 1" xmlns="http://www.w3.org/2000/svg" width="200" height="200" viewBox="0 0 200 200">
  <defs>
    <style>
      .cls-1 {
        fill: #f9f8fb;
      }

      .cls-1, .cls-2, .cls-3 {
        stroke-width: 0px;
      }

      .cls-2 {
        fill: #121120;
      }

      .cls-3 {
        fill: #2cc4bb;
      }

      .cls-4 {
        fill: none;
        stroke: #f9f8fb;
        stroke-linecap: round;
        stroke-miterlimit: 1.67;
        stroke-width: 1.43px;
      }
    </style>
  </defs>
  <g id="_9tFgyjLMGU7oXSs89XH5u" data-name="9tFgyjLMGU7oXSs89XH5u">
    <g id="Layer_1-2" data-name="Layer 1-2">
      <path class="cls-2" d="m0,100C0,44.77,44.77,0,100,0s100,44.77,100,100-44.77,100-100,100S0,155.23,0,100Z"/>
    </g>
  </g>
  <g id="vsz0GfO9lNqVvKZX4GPw8">
    <g id="Layer_1-2-2" data-name="Layer 1-2">
      <path class="cls-4" d="m4.74,100C4.74,47.39,47.39,4.74,100,4.74s95.26,42.65,95.26,95.26-42.65,95.26-95.26,95.26S4.74,152.61,4.74,100h0Z"/>
    </g>
  </g>
  <g id="hur-eBrg8FojZLtzqC6cr">
    <g id="Layer_1-2-3" data-name="Layer 1-2">
      <path class="cls-4" d="m48.61,100c0-28.38,23.01-51.39,51.39-51.39s51.39,23.01,51.39,51.39-23.01,51.39-51.39,51.39-51.39-23.01-51.39-51.39Z"/>
    </g>
  </g>
  <g id="_0-Bamef4wyHVlHNw8uIik" data-name="0-Bamef4wyHVlHNw8uIik">
    <g id="Layer_1-2-4" data-name="Layer 1-2">
      <path class="cls-4" d="m43.35,100c0-31.29,25.36-56.65,56.65-56.65s56.65,25.36,56.65,56.65-25.36,56.65-56.65,56.65-56.65-25.36-56.65-56.65h0Z"/>
    </g>
  </g>
  <g id="_LjaCjFCqjm3d-H1O8b1L" data-name=" LjaCjFCqjm3d-H1O8b1L">
    <g id="e7vPSxjgtvprz04pFFHq1">
      <path class="cls-3" d="m41.64,157.2l-1.29-1.41-.89.68c-.3.24-.63.27-1,.09-.36-.18-.87-.63-1.54-1.36-.66-.73-1.15-1.39-1.46-2s-.36-1-.16-1.19c.24-.22,2.14-1.15,5.71-2.81,3.57-1.66,5.62-2.61,6.16-2.87.17-.07.64.23,1.4.9.76.66,1.53,1.42,2.3,2.27.77.85,1.06,1.45.84,1.81-4.47,7.48-6.75,11.26-6.85,11.35-.1.09-.25.12-.46.09-.47-.08-1.07-.52-1.82-1.34-1.59-1.74-2.19-2.81-1.81-3.23l.86-.98Zm2.52-2.86l2.45-2.64-.3-.32-2.88,2.17.73.79Zm13.85,13.35l-.28-.2-2.2,3.44c-.09.15-.51.05-1.25-.3-.74-.35-1.46-.74-2.14-1.18-.69-.44-1.1-.76-1.25-.97-.14-.2-.16-.39-.06-.56l6.9-10.8c.19-.29.69-.26,1.5.08.81.34,1.78.87,2.9,1.59,1.12.72,1.84,1.18,2.17,1.4.33.22.71.49,1.13.81.43.32.74.6.96.85s.44.53.68.86c.24.33.39.64.44.96.05.31.08.65.08,1.03,0,.67-.29,1.46-.86,2.35s-1.2,1.54-1.88,1.96c-.69.42-1.38.63-2.07.63,0,2.85-.19,4.55-.54,5.09-.35.55-1.63.12-3.83-1.29-.64-.41-1.06-.72-1.27-.93-.21-.21-.29-.44-.24-.67l1.12-4.15Zm3.8-5.35l-.56-.36-1.87,2.92.44.28c.65.42,1.3.12,1.94-.89.33-.51.48-.94.44-1.26-.04-.32-.17-.56-.39-.7h0Zm20.46,11.49l-2.36-.79-2.72,8.13c-.05.14-.47.12-1.27-.06-.8-.18-1.59-.39-2.36-.65-.78-.26-1.26-.46-1.44-.6-.18-.14-.25-.29-.2-.45l2.72-8.13-2.63-.88c-.14-.05-.2-.26-.18-.65.02-.38.14-.93.37-1.63.24-.7.52-1.3.86-1.81.34-.51.64-.72.89-.64l10.22,3.42c.19.06.26.28.21.66-.05.37-.18.89-.41,1.56s-.5,1.28-.84,1.82c-.34.55-.62.78-.86.7h0Zm23.55,11.21c-1.1.07-2.05.02-2.85-.14-.8-.16-1.55-.48-2.24-.97-1.4-.97-2.19-2.94-2.37-5.91-.08-1.25.04-2.34.35-3.3.31-.95.77-1.71,1.39-2.3,1.21-1.14,2.83-1.77,4.86-1.89,1.05-.06,1.96-.02,2.75.12.79.14,1.54.43,2.26.88,1.45.92,2.26,2.81,2.44,5.64.15,2.55-.37,4.46-1.55,5.74-1.19,1.28-2.86,1.99-5.02,2.12h0Zm-1.65-7.21s.02.28.05.85c.03.56.12,1.16.27,1.78.14.62.3,1.03.47,1.21.17.18.39.27.67.25.28-.02.49-.12.64-.33.15-.2.25-.62.32-1.26.07-.63.07-1.52,0-2.65-.07-1.13-.17-1.99-.32-2.59-.14-.61-.3-.99-.47-1.17-.17-.18-.39-.26-.67-.24-.28.02-.49.12-.64.32-.15.19-.26.6-.33,1.22-.07.61-.07,1.49,0,2.61h0Zm23.93-2.06l-3.19.89,1.21,3.8c.06.19-.3.46-1.09.81-.79.35-1.55.64-2.29.87-.73.23-1.22.34-1.46.32-.24-.02-.39-.13-.46-.32l-3.82-12.04c-.1-.33-.01-.61.27-.86.29-.24.89-.51,1.8-.8l7.05-2.24c.26-.08.55.35.85,1.31.3.96.48,1.7.51,2.24.04.54-.04.84-.23.9l-3.92,1.04.41,1.29c1.66-.61,2.78-1.01,3.35-1.19.19-.06.35,0,.49.18.13.18.29.56.48,1.13.18.58.29,1.15.33,1.71s-.05.88-.28.96h0Zm24.23-11.46l-1.49,1.2.62.93c.22.32.23.65.03,1-.2.35-.69.84-1.45,1.45-.76.62-1.46,1.07-2.08,1.34-.62.27-1.02.3-1.2.09-.2-.25-1.02-2.2-2.46-5.86-1.44-3.66-2.27-5.77-2.5-6.32-.06-.18.27-.62.98-1.34.71-.72,1.51-1.44,2.41-2.16.89-.72,1.51-.97,1.85-.73,7.2,4.91,10.84,7.41,10.92,7.52.09.1.11.26.07.46-.11.46-.59,1.04-1.44,1.73-1.83,1.48-2.94,2.02-3.33,1.62l-.92-.92Zm-2.7-2.68l-2.49-2.6-.34.27,1.99,3,.84-.68Zm7.25-18.06l9.93,8c.12.09-.05.48-.49,1.17-.44.69-.92,1.35-1.43,1.98-.51.64-.87,1.02-1.07,1.15-.2.13-.37.14-.5.03l-9.65-7.78c-.23-.18-.21-.66.05-1.44s.69-1.54,1.29-2.29c.53-.66,1.02-.98,1.47-.97.16,0,.29.06.4.14h0Z"/>
    </g>
  </g>
  <g id="_8S7OIq9IQwzHiZUD0U1_i" data-name="8S7OIq9IQwzHiZUD0U1_i">
    <g id="md_A5kenuTnXYPDH1V_O3" data-name="md A5kenuTnXYPDH1V O3">
      <path class="cls-3" d="m16.18,104.05l.3-6.68c.23-5.19,2.87-8,8.35-7.75,5.48.24,7.88,3.27,7.66,8.46l-.3,6.68-16-.71Zm13.04-6.07c.12-2.58-1.32-3.93-4.07-4.05l-.98-.04c-2.77-.12-4.32,1.1-4.43,3.68l-.11,2.47,9.48.42.11-2.47Zm-11.4-14.63l2.7-8.9c1.04-3.41,3.65-4.47,6.39-3.64,1.96.6,3.28,2.04,3.63,3.93l7-1.23-1.36,4.46-6.17.9-1.06,3.5,5.4,1.64-1.21,3.99-15.32-4.66Zm9.43-6.02c.33-1.07-.23-2.05-1.46-2.42-1.16-.35-2.13.11-2.47,1.22l-1.26,4.15,3.92,1.19,1.26-4.15Zm-2.75-13.4l6.7-11.39,2.81,1.66-4.59,7.8,2.59,1.52,4.01-6.81,2.75,1.62-4.01,6.81,2.83,1.67,4.67-7.94,2.81,1.66-6.78,11.53-13.8-8.12Zm13.38-19.44l3.47-3.62,15.73,6.74-3.08,3.21-2.66-1.23-4.42,4.61,1.34,2.61-2.97,3.1-7.4-15.43Zm10.48,3.69l-3.23-1.51c-.65-.3-2.07-1.01-2.9-1.46l-.11.12c.48.78,1.16,2.05,1.59,2.82l1.63,3.18,3.02-3.15Zm1.31-15.02l5.23-3.1,5.3,5.15c.6.54,1.83,1.82,2.61,2.66l.16-.09c-.29-.86-.77-2.36-1.13-3.56l-1.95-7.11,5.09-3.02,8.17,13.78-3.49,2.07-3.48-5.87c-1.01-1.71-2.16-3.74-2.55-4.43l-.16.09c.25.69.82,2.52,1.1,3.55l2.24,8.35-2.89,1.71-6.27-5.96c-.7-.67-1.89-1.91-2.56-2.66l-.16.1c.66,1.02,1.83,2.9,2.67,4.32l3.49,5.87-3.27,1.94-8.17-13.78Zm27.35-13.35l4.1-.77,1.14,6.05,6.39-1.21-1.14-6.05,4.1-.77,2.96,15.74-4.1.77-1.2-6.35-6.39,1.21,1.2,6.35-4.1.77-2.96-15.74Zm20.08,4.76c.4-5.51,3.73-8.02,8.98-7.64,5.23.39,8.17,3.36,7.76,8.87-.41,5.53-3.75,8.05-8.98,7.66-5.25-.39-8.17-3.36-7.76-8.9h0Zm12.42,1.46l.08-1.05c.21-2.81-1.09-4.59-3.76-4.79-2.7-.2-4.22,1.37-4.42,4.19l-.08,1.04c-.21,2.81,1.06,4.59,3.76,4.79,2.68.2,4.22-1.37,4.42-4.19Zm7.59,2.4l3.23-9.25,3.96,1.38-3.2,9.18c-.69,1.96-.03,3.49,1.95,4.19,1.98.69,3.49-.09,4.17-2.05l3.2-9.18,3.94,1.38-3.23,9.24c-1.42,4.07-4.74,5.24-9.16,3.69-4.4-1.54-6.28-4.51-4.86-8.58Zm16.38,7.57c.08-.12.17-.25.24-.32l3.37,2.21c-.05.08-.16.2-.21.28-.82,1.25-.09,2.39,1.47,3.42,1.4.92,2.64,1.25,3.24.34,1.59-2.42-7.55-6.18-4.21-11.26,1.87-2.85,5.23-2.32,8.35-.27,3.06,2.01,4.76,4.89,2.97,7.7l-.15.23-3.35-2.2.09-.14c.57-.88.25-2.04-1.17-2.97-1.44-.95-2.54-1.02-2.98-.34-1.5,2.28,7.59,6.16,4.38,11.05-2.1,3.2-5.39,2.82-8.71.64-3.37-2.21-5.44-5.13-3.32-8.37h0Zm22.41,2.27l9.08,9.61-2.38,2.24-6.21-6.58-2.19,2.07,5.43,5.74-2.32,2.2-5.43-5.75-2.39,2.26,6.32,6.7-2.37,2.24-9.19-9.73,11.64-11Zm15.91,19.29l1.61,3.34-4.17,8.48c-.22.47-.8,1.57-1.06,1.98l.07.1,8.32-4.01,1.68,3.49-14.43,6.95-1.6-3.32,4.38-8.96c.26-.59.63-1.16.85-1.52l-.07-.1-8.32,4.01-1.68-3.48,14.43-6.95Zm8.42,19.67l2.52,12.03-3.2.67-1.66-7.94-3.38.71,1.46,6.98-3.13.65-1.46-6.98-5.98,1.25-.85-4.09,15.68-3.28Zm-.39,21.42l.02-5.2h3.43s-.06,14.59-.06,14.59h-3.43s.02-5.21.02-5.21l-12.59-.05.02-4.17,12.59.05Z"/>
    </g>
  </g>
  <g id="jJkIHByW8udxEH5XqIM46">
    <g>
      <g id="Layer_1-2-5" data-name="Layer 1-2">
        <path class="cls-1" d="m75.76,90.98c-.32.11-9.23,11.92-9.23,11.92l.54,27.59,65.6.22v-22.55l-25.66,1.4.22-28.88-17.49.75.75,29.96-14.72-20.41Z"/>
      </g>
      <g id="Layer_1-2-6" data-name="Layer 1-2">
        <path class="cls-3" d="m122.56,99.69c-4.16,2.67-8.32,5.33-12.48,8v-26.92c-2.37-2.19-4.77-4.35-7.13-6.55-1.51-2.3-2.99-4.62-4.48-6.95-1.33,2.11-2.64,4.23-3.96,6.35-.14.26-.31.5-.51.72-2.38,2.14-4.77,4.29-7.16,6.42,0,6.66,0,13.31,0,19.97-3.64-5.94-7.27-11.87-10.9-17.81-3.62,5.87-7.23,11.74-10.83,17.61-.18.22-.11.51-.12.77v31.2h70.02v-24.83c-4.15-2.67-8.3-5.33-12.45-8Zm-48.06,10.22h-4.47v-7.19h4.47v3.6c0,1.19,0,2.39,0,3.59h0Zm2.82,0v-7.19h4.48v7.19c-1.49,0-2.98,0-4.47,0h0Zm25.91-25.88v7.82h-9.25v-7.82h9.25Zm0,18.04h-9.25v-7.83h9.25v3.91c0,1.3,0,2.61,0,3.92Zm22.26,16.71h-5.6v-8.87h5.6c0,2.96,0,5.92,0,8.87Z"/>
      </g>
    </g>
  </g>
</svg>