<svg xmlns="http://www.w3.org/2000/svg" width="200" height="200" viewBox="0 0 200 200"><ellipse cx="98.4" cy="101.1" rx="88.1" ry="88.4" style="fill:#875436"/><path d="M122,34.4c9,3.8,15.6.3,17.8-4.9-1.4,7.4-2.2,5.5-3.6,9.6-4.9-.1.8,1.3,2.8.8-2,.3-4.2.7-2.5,3.1-2.7-2.7-5.8-.2-7.9-2.1-4.7,0-7.6-4.7-15.8,0-.6-2.1,2.3-1.8,5.2-2.7-4.6.5-4.3-1.7-8.5.3-.4-2.9.6-3.8,3.8-4.3-3.3-.7-5.7,1.4-8.1,2.9-.2,2.8-.2-.5-1.4,1.4,1.1-2.9-.2-.3-2.5-.6,1.5-1.7,2.3-2.5,2.7-4.7-3.3,2.8-4.1,7.5-6.6,1.1-1.4,2.4-1.7,7.3-1.7,2-7.2,2.4-9.3-3.4-15.5-4.1,3.8-1.3,6.8,1,10.5,1.4-1.2-3.5,2.6-.8,2-5.3,1.3,0-.2,4.5,1.4,5,.8-2,.8-5.4,3.3-5.2.3,2.6-1.8,3.1-.9,5.5,3.5.6,3.1-8.3,8.5-7.7-2.8,4.4-2.6,1.6-5.5,6.8,3.7,2.5,10.1-6.1,12.4-3.2-12,6.7,4-1.1,4.5,2.7-9.3-.1.5,1.5,5.7.9C120.3,33.8,117.1,34.5,122,34.4Z" style="fill:#f7e3d1"/><path d="M184,54.2c-.1-.1-5.6,9.6-7.8,5.1-1.2,1.5-.8.9-2.3.3,4.7-1.5,4-3,7.7-5.3-6.5,2,3.5-3.7-5.3-6.4,9.7-8.4,4.3-3.6-3-2.1,6-4.4,2.4-2,6.1-7.3-7.6,7.8-14.2,6.6-23.9,12.8-1.4.4-7.5-1.2-8.3-2.2,5.9,2.4,6.7-4.9,13.1-5.4,2.3.1,6.2-4.9,10.6-4.6,0-1.4-.6-2.9.1-4.3,4.8-.6,3.2,3.5,7.1-3.3-1.2,8.5,1.9-6.3,1.4-.3,1.8-3.5,1.9,7.3-4.7,6.2,5.5,0,8-5.4,7.6,2.7,1.9-8.2.2,2.7.3,5.1,3.8-8-.9,8.7.1,7.8S184.2,52.1,184,54.2Zm-6.4-11.1a8,8,0,0,0,3.9-4.4C180.3,40.2,178.5,41.1,177.6,43.1Z" style="fill:#5e3c2a"/><path d="M37.8,82.8C48.7,73.5,39.5,72.2,60.4,51c-3.2,7.1-8.5,13.1-10.2,20.3C53,69.8,57,78.2,59,69.4A11.7,11.7,0,0,1,70.6,61c-10.8,2.6-20.7,24.9-4.2,24.5-3.5.6-6.8.4-9.4-2.5-.4,4.1,10.4,5,2.4,5C50.6,76.2,53,76.6,37.8,82.8Zm14.3-5.3c-1.3-.7-5,.4-5.1,1.5Z" style="fill:#c18456"/><path d="M174.4,126.5c-.1,4.1,1.8,8.6-.8,1.9-.9,8.4,1.2-24.3-.7-9.7-1.2-5.4-4.7-18.9-.3-7.7.2-2.7-4.3-10.9-1.6-7.5-3.2-7.4-1.3-1.2,1.1-2.8-8.7-7.4-23.9-24.1-8.6-14.3-.7-1-3.7-4.3-1.5-2.6-.8-2.1-.3-2.1,1.2,0-3-6.5-.4-2.3,1.9,1-3.5-6.3-6.3-17.1-.7-6.5,3.1,4.7.9,8.5,10.5,15.7-16.1-10.8-1.5-2.3.8,10.1.2.7.8,1.3.4,2.1-4.3-11.8-.4,12.2,2.1,16.6-2.5-.3-1.1-2-3-5C175.5,121,173.3,128.5,174.4,126.5Zm-.1-17.1c-5.7-10.5,1.7,10.8-.1,1C175.9,113.2,175.8,112.7,174.3,109.4Zm-5.4-15.1c1.5,2.2,2.9,4.5,4.3,6.7A16.4,16.4,0,0,0,168.9,94.3Zm-4.6-2.7,4,4.4A12.1,12.1,0,0,0,164.3,91.6Zm8.4,11.7,1.5,5A10.4,10.4,0,0,0,172.7,103.3Z" style="fill:#d8c6bf"/><path d="M178.7,50.2c5.1,1.3-3.4,5.7,2.9,4.1-.4,1.3-5.6,2-2.7,2.8-.8,1.3-6.9,2.5-3.8,2.8-.5,1.5.7-.3,1.1-.6.7,1.8.8.7,2.4,1.2-19.3,12.9-31.6-1.5-15-.3,6.1.4,17.5-7.2,8.3-5.9C183.9,51.2,168.9,55.5,178.7,50.2Z" style="fill:#26140e"/><path d="M45.4,17.7c4.7-.2,2.3-3,7.3,3.2,1.7-1,8.5,11.9,1.7,3-4.2-.4-9.7-3.8-14.3-7,7.1,9.8-3.7.3-11,2.5,2.8,2.7-3.9,1.6-6.7,3.3,2.5.4-2.9.9,2.7.8-2.5.8-8.6.1-9.2.9,4.2-2.9,14.1-4.2,4.2-2.7,5.8-4.5,19.9-3.9,5.2-5.1,3.5-1.9,11.7-.2,13.3-1.3C44.2,14.4,53.4,26.7,45.4,17.7Z" style="fill:#dcaa85"/><path d="M65.1,36.2c6.8.5,11.2-4.7,18.1-2.6,7.2,6.5,0,4.4-5.8,5.2.1,1.3,1.3.5,1.8,1.3-1.2,0-3-.5-1.2.8l-4.5.2c5,2.9-2.2-.2-2,1,2.2,2.5-8.9,1.1-3.1-2.6C64.8,41.1,65.4,35.4,65.1,36.2Zm12-1.8c0-.6-1.4-.1-2-.3S76.4,34.4,77.1,34.4Z" style="fill:#fef1df"/><path d="M49.2,63.6c-.6,1-.4,4.2-1.7,3.8,2.5-7.3-3.4,3.3-5.9,2.2.8-2.9-1.7.7-.6-1.7,10.2-6.2,7.5-16.3,19.5-28.7,6.3-7.3.3.4,3.6,5.2C54.2,50.2,53.8,54.6,49.2,63.6Z" style="fill:#e6ae7b"/><path d="M19.3,107.2C24.9,93,24,96,33.8,84.6c3.7-4.9-1.2,2.7.9,1.9-.5,1.2-3.3.4-2.5,2.7-9.5,9.7-12.1,24.8.2,7-1.2,1.2-9.7,20.6-6.5,9.7-2.1,5.2-2.1,9.8-2.9,13.9-2.7-4.3-2.6.5-5,3.4s3.1-9.9,2.5-15C20.8,106,25.8,97.5,19.3,107.2Zm1.1,10c1.4-3.9,1.6-7.9,2.3-11.9C22.2,109,18.1,115.1,20.4,117.2Zm8.7-26.6c-1.1.5-4.3,5.7-3.1,6.6C27,95,28,92.8,29.1,90.6Z" style="fill:#f8ece3"/><path d="M42.3,66.3c-8.1-1.2,13-20.6,2-15.8,1.7-2.3,5.3-.3,7-3.1-1.7-.7.9-.5,1.5-1.5-6.9.5-3.3,1.2-.6-2,4.9,2.1-5.3-2.9,4-1-1.3-2.1-2.7-3.8.4-1-1.3-1.7-4.4-4-1.2-2.6s4.7-4.1,4.5-5.3c-2.8-5.3-12.6-13.4-1.8-7.4C69.5,41.6,43,48.1,42.3,66.3Z" style="fill:#c28154"/><path d="M42.3,66.3c1.4-13.8,16.6-23.6,20-31.9,2.1,2.7-9.8,15.5-12.6,18.9C53.3,47.8,45.1,70.4,42.3,66.3Z" style="fill:#da9b65"/><path d="M15.5,52.7c-2.4,4.2.8-9.2-1.3-1.9-.4-.9-.3-1.2-1.3-1.2,2.5-6.9,1.4-6.7-1-5.4,4.3-7,5.7-6.8,10.3-6.3,7.3-2.7-.5,3.9-2.7,4.7C22,44.4,16.1,46,15.5,52.7Z" style="fill:#855233"/><path d="M42.3,58.9c-3.4,2.4-3,6.9-7.7,5.6-9.8-2.6-17.6-6.9-8.9-9.3,1.4-.3.2,1.5,2.3-.6-.7,2.2-2.1,3-3.4,4.3,3.4-.1,3.1-.2,6-1.1-3.6,2.4-.6.9,2.2.1-9.5,5,6.8-.9,2.2,2.3C45.3,56.9,28.7,66.5,42.3,58.9Z" style="fill:#422012"/><path d="M173.3,113.7c2.7,27.4-14.1,27-19.4,45.7C161.7,145.5,178.7,137.2,173.3,113.7Z" style="fill:#4b2d1f"/><path d="M160.5,67.2c.7-.1,1.3-2.1,1.6,4.1-2.7-7-.4,2.1,2.5,4.2s-1.2-.8-2.3-2.1c1.6,4.7.1,1.6-1.1-1-1.3,3.8,7,17.9.5,7.2,1.3,6.2-1.8,2,1.8,6.8-2.6-5-9.2-1.5-7.7-4.8s-3.5-7.4,5.8,1.6C157.3,75.6,156.6,69.7,160.5,67.2Z" style="fill:#b3a3a3"/><path d="M15.5,52.7c3.6-9.2,1.9-8.5,10.7-12-4,7.6-1.4-1.1-6,5a1.3,1.3,0,0,0,2.2.9c3.4.6-6,6.5,2.1,1.7,5.5-3.2.1,6.1-3.2,5.5,4.6-3.9.5-2.8-1.5-.3,1.9-3.7-1.1.5-2.1,1.8-2.9,2.7-.1-2.4.9-5C16.1,51.8,17.6,54.7,15.5,52.7Zm1.9-2.4c.6-.4.9-1.2,1.5.5C20.2,46.4,19.1,46.6,17.4,50.3Z" style="fill:#67402a"/><path d="M138.9,33.3c7.6-15.6,17.2-15.8,23.1-16.6-9.5,6.4-3.6,1.9-12.9,9.2-1.9,1.1,1.3-3.9,2-5.8-3.5,5.1-6.9,9.3-2.8,2.8-2.2,1.9-6.7,10.7-5.3,3.8C140.7,30.2,141.5,37.6,138.9,33.3Z" style="fill:#dba984"/><path d="M183.4,37.6c0-2.9-.6.7-1,2.5.4-8.1-2.1-2.7-7.6-2.6,6-.8,5.9-3.1,5.6-8.3-.7,4.3-2.4-4.4-4.3-6.2.6,3.2-.9-.8-3.3,2.7-.3-1.7,2.7-4,3.4-3.4,2.4,2.3,10.9,13.2,10.4,13.6-6.5-4.9-3.1-3.1-.8,2.8,1.3-1,.7,13.8,0,3.3C183.5,52.9,185.9,40.5,183.4,37.6Z" style="fill:#ae8d7f"/><path d="M81.8,38.4c6.5,1.1,5-1.5,1.4-4.8-3.7.1,1-1.4-4.8-.5q3.1-1.7,7.2.6c-1,2.8,7.3,3.4,10.1,2.6.7,4.1.8,4.3-3.4,2.2-.2,2.8-1.1-.2-2.3-.6,3.4,5.9.7,4-3.4,1.5C90.7,43.6,83.7,39.9,81.8,38.4Z" style="fill:#eac4a4"/><path d="M17.5,37.3c-5.9,9.7-.8-2.9-6.5,7.5C8.2,42.9,25.6,23.5,23,32c3-1.5-.4,1.1-1.4,1.7.3-.9,1.2-2.3.5-1.7-6.4,4.7-.6,1.9,3.4,1.1C23.2,35.2,10.6,39,17.5,37.3Z" style="fill:#9f6a47"/><path d="M21.7,119.2c2.8,2.6,2.8-11.1,6-11.4-2.6,8.3-4.1,8.3-1.9,26.7-3.6-12.2-1.3,3.8,1.5,6.1C19.8,126.2,24.5,126.4,21.7,119.2Z" style="fill:#e3c8b6"/><path d="M25.8,134.5c-.9-14-.2-.9,3.9,5.5-1.4-5.5-4-9.8-2.4-15.1,3.5,23.1,4.8,9.3,10.5,30.1-2.8-5-4.9-11-9.4-16.3C38.2,156.3,31.1,145.7,25.8,134.5Zm10.8,16.7c.4,1.2-.2,3.2,1.2,2.9S37.3,152.2,36.6,151.2Z" style="fill:#c39c86"/><path d="M159,16.4c-10.3,2-12.9,7.9-19.2,13.1.6-6.7,8.5-9.7,8.7-11.1,6.9-6.5-1.5,3.5,4-1.2,2.9-1,7.5-2.5,8-1.5S157.7,18.7,159,16.4Zm-14.7,5.3-1.1,2.7C143.9,23.2,145.9,21.9,144.3,21.7Z" style="fill:#f4d9c1"/><path d="M25.7,55.2c-4.2,5.1.5-3.4-4.7,2.9,1.9,2.4,11.7,6.6,7.1,4.6C7.2,61,36.3,42.7,25.7,55.2Z" style="fill:#67402a"/><path d="M16.8,33.3c-.2-1.2-3.5,1.4-1.7,1.4-.8.8-2.9-1.2-2.9,1.3,1.2-5.2,3.3-4.5,8.4-10.9.9,1.2.5,3,2,3.5C9.2,33.7,31.4,24.5,16.8,33.3Z" style="fill:#bf8c69"/><path d="M22.6,28.6c-3.1-3.5.1-2.8-5.5-4,.6-1.5,11.1,1,12.7-.6-.1,3.3.4,3.1-7.9,1.6C29.3,29.1,30.1,27.8,22.6,28.6Z" style="fill:#825033"/><path d="M64.1,44.4c-.8-2.6-3.3-9,2-7.9C62.7,37.5,72.2,43,64.1,44.4Z" style="fill:#f3d0b3"/><path d="M183.4,37.6c2.1,4.7-.3,14.4,3.1,12.2-1.1,1.5-3.1,6.5-2,2.7C181.4,55.9,184.2,41,183.4,37.6Z" style="fill:#816a62"/><path d="M41.8,70.1c4.6-3.7.5,1.4,1.2,3,3.5-5.4.2,3.3-1.6.2C36.6,82.6,38,75.1,41.8,70.1Z" style="fill:#ebd0c2"/><path d="M178.8,23.9c-3.1.4-4-4.9-6.4-2.7-.6-1-3.4-2.9,3.1-.6.6.2,9.5,2,6,4.4C185.7,25,173.5,20.3,178.8,23.9Z" style="fill:#e8cbb5"/><path d="M104.3,31.5c1.2,2-2.7.5-4.3,1.7-1-1.2,3.3-7.1,2.4-3.4C105.2,25,103.5,28.1,104.3,31.5Z" style="fill:#c6916a"/><path d="M25.8,134.5c1.1,2.9,6,10.4.6,5.6C25,136,22,123.4,25.8,134.5Z" style="fill:#65311c"/><path d="M41,67.9c2.3.4-2.6,7.2-.8,1.3-2.9,3.2-.5-1-2.9,0,1.5-2.5-2.3-2.5.7-3.8C36.5,68.8,40.8,65.2,41,67.9Z" style="fill:#edd7ca"/><path d="M90.4,31.5c1.6,3.2-3.2,1.2-4.8.9C88.3,31.1,83,27.2,90.4,31.5Z" style="fill:#e0b490"/><path d="M172,93.9c-.2,1.6-5.1-4.9-6.2-7.1C167,89.4,176.7,93.9,172,93.9Z" style="fill:#875436"/><path d="M25.3,16.6c6.1-.6,9.8,2,1.8,2.4-1.8-.3.6-.6,2.1-.7C26.6,17.1,26.1,19.3,25.3,16.6Z" style="fill:#b87952"/><path d="M186.7,36.4c1.9-1.2-8.6-8.6-5.9-10C184.3,34,186.9,30.8,186.7,36.4Z" style="fill:#dfcdc0"/><path d="M34,150.3c-3.9-9.8-7.4-14.1.5-2.5C35.4,149,35.9,150,34,150.3Z" style="fill:#6a3720"/><path d="M98.9,30.2c.6.9-.5,4.8-2.4,3.4C96.3,31.6,97.2,26.1,98.9,30.2Z" style="fill:#dbb192"/><path d="M33.8,84.6c-2.4,3.4-6.7,8.2-10.7,8.9C23.9,91.7,31.5,88,33.8,84.6Z" style="fill:#975b3f"/><path d="M21.7,119.2c.8,2.9-2.8,4.8-3.6,3.5C19.9,121.5,21.6,114.5,21.7,119.2Z" style="fill:#82472a"/><path d="M158.3,19.7c-4.4-.5,3.5-2.3,4.3-3.5,10.3.4-4.8.2,4.4,1.2C162.1,18.5,161.9,15.8,158.3,19.7Z" style="fill:#e8cbb5"/><path d="M184.9,50.2a29.1,29.1,0,0,1,.9-8.2C185.7,45.3,187.5,48.8,184.9,50.2Z" style="fill:#493832"/><path d="M38.3,70c-1,2.5-2.4,7.7-5.1,7.3C35,74.7,36.7,72.4,38.3,70Z" style="fill:#85563f"/><path d="M40.1,78.8c5.4-4.1,4.9-.2-.2,1.8C42.9,77.6,38.1,81.3,40.1,78.8Z" style="fill:#dba67d"/><path d="M180.8,26.4c-4.1-4.1-3.3-4.4,2.1-1.8C181.8,24.9,180.5,25.1,180.8,26.4Z" style="fill:#6f442b"/><path d="M38,65.4c-2,1.4-4.4-.7-.5-.5,1.4-3.8,4.6-5.6,2.6-1.5C42.1,59.4,38.4,64,38,65.4Z" style="fill:#8e5735"/><path d="M167.2,16.6c-2.1-.5,3.3-1.9-.9-1.5,1.3-.8,7.1.4,3.9,1S173.2,17.8,167.2,16.6Z" style="fill:#e8cbb5"/><path d="M186.7,36.4c-1.5,3.4-1.1-1.6-2.3-1.7,2,4.7-2.1-.6-2-3.6C183.1,34.2,185.8,34.5,186.7,36.4Z" style="fill:#402e28"/><path d="M170.6,17c-5.1-1.4,1-.6,3.8-.1C175.2,19.9,172.5,17.7,170.6,17Z" style="fill:#855037"/><path d="M175.3,123c-.9-1.7.2-3.4-.1-5.2C176,120.3,178,121.8,175.3,123Z" style="fill:#644a3d"/><path d="M94.9,30.2a7.9,7.9,0,0,1-.8,3.1C93,32.1,92.1,27,94.9,30.2Z" style="fill:#e2b592"/><path d="M14.6,35.1c0-.4,1-2.9,2-1.8C16,36.1,11,39.7,14.6,35.1Z" style="fill:#5b331f"/><path d="M112.6,31c.6.7-2.6,1.3-3.4,1.1C109.9,30.3,111.4,28.7,112.6,31Z" style="fill:#302c2c"/><path d="M176,113.7c-.4-3.1-1.7-6.5-1.6-9.6C174.8,107.7,177.1,110.3,176,113.7Z" style="fill:#8d6753"/><path d="M22.6,128.5c.8-.5,1,3.3,1.5,4.4C21,133.8,22.9,131,22.6,128.5Z" style="fill:#763921"/><path d="M116.8,33.1c-5.3,1.5-6.3-1.5-.5-1.6C116.4,32,111,32.8,116.8,33.1Z" style="fill:#d4a989"/><path d="M19.3,107.2c3.9-5.5,4.3-6.9,1.7.2C20.5,106.4,20.1,106.5,19.3,107.2Z" style="fill:#8d6149"/><path d="M15.7,52.5c1.4,2.8.8-1.3,2.9-2.2C16.9,54.2,15.7,58.8,15.7,52.5Z" style="fill:#855233"/><path d="M171,17.3c2.6.5,4.5,2.3,6.9,2.9C176.8,20.7,170.2,18.3,171,17.3Z" style="fill:#e8cbb5"/><path d="M173.1,131.5c.1-4,1.4-2.6,1.5.6C172.6,131.8,173.2,134.7,173.1,131.5Z" style="fill:#573726"/><path d="M176.7,111.1c-1.1-2.1-2.3-4.8-2.1-7.1A10.3,10.3,0,0,1,176.7,111.1Zm-1.8-5.3c.3.9.6,1.8,1.1,3.1C176.4,107.3,175.4,106.6,174.9,105.8Z" style="fill:#d8c6bf"/><path d="M18.6,57.6c-2-.2-.5-2.5,1.4-3.8C16.8,56.5,22.1,59.6,18.6,57.6Z" style="fill:#67402a"/><path d="M22.6,128.5c.1,1.7-.6,3.3,0,5C20.7,131.9,22.6,120.4,22.6,128.5Z" style="fill:#f8ece3"/><path d="M19.5,122.8c4.4-1.9,1.6-1.2,2.2,2.4C19.4,126,21.8,122.8,19.5,122.8Z" style="fill:#f8ece3"/><path d="M159.2,150.9c4.4-7.1,6.1-4.6,1.1-.1C163.1,147.8,160.8,148.3,159.2,150.9Z" style="fill:#908279"/><path d="M163.3,76.3c-1.7-4.5.2-1.4,1.8.5C164.2,78.5,163.9,78.1,163.3,76.3Z" style="fill:#5e392b"/><path d="M111.5,29.7c-3,1.1-.9,3.1-4.7,3.3C108,31.3,111.2,29,111.5,29.7Z" style="fill:#a97452"/><path d="M11.9,44.4c2.7-2,.6,1.7,2.4-2.2C13.9,46.9,15,46.9,11.9,44.4Z" style="fill:#d5c0b4"/><path d="M161.5,70.3c.7,1.7.6-.3.6-.9-.3,2.5,3.7,4,2.7,6.1C165.3,74.3,159.7,69.6,161.5,70.3Z" style="fill:#d8c6bf"/><path d="M176,106.5c-1-2.2-2.3-2.6-2.8-5.1C174,103.2,176.1,104.4,176,106.5Z" style="fill:#845944"/><path d="M173.1,131.5c0,2,.1,4.3-1.5,5.8C172.5,136.1,172.8,128.4,173.1,131.5Z" style="fill:#ac9c91"/><path d="M116.8,33.1a5.5,5.5,0,0,1-3.1-.5C114.9,31.5,116.4,31.5,116.8,33.1Z" style="fill:#383232"/><path d="M43.6,73.9c5.2-4.5.5,1.3-2,2.9C41.9,75.6,43.6,75.3,43.6,73.9Z" style="fill:#da9b65"/><path d="M156.8,155.4c1.7-.5.4-3.1,2.4-4.5C158.9,152.3,158.4,155.8,156.8,155.4Z" style="fill:#978a83"/><path d="M159.2,151.8c-.1-1.6,1.5-2.3,2.6-3.9C161.4,150.2,160.6,150.6,159.2,151.8Z" style="fill:#4b2d1f"/><path d="M186,33.5c-1.2-1.2-3-1.7-4-3.6C183.7,31.1,185.2,31.8,186,33.5Z" style="fill:#ae8d7f"/><path d="M34.7,86.5c.1-.8,2.7-4.1,3.5-3.3Z" style="fill:#dba67d"/><path d="M122,34.4c-1,.7-1.8-.1-3.5-.4C120.7,33.5,121,33,122,34.4Z" style="fill:#4c413d"/><path d="M57.5,25.3c-.4.1-.8-.1-1,.7C55.1,23.6,56.7,22.5,57.5,25.3Z" style="fill:#e4bc9d"/><path d="M36.6,81.8l3-3.2A6.3,6.3,0,0,1,36.6,81.8Z" style="fill:#ca9679"/><path d="M22.6,21.2c.9-.6,1.7,0,3,.1C24.5,21.9,20.4,21.9,22.6,21.2Z" style="fill:#9a5936"/><path d="M12.2,36c-.4-1.1.8-1,1.2-1.5S11.8,38.5,12.2,36Z" style="fill:#654334"/><path d="M24.8,94c2.5-2.4,3.1-2.5.9.5Z" style="fill:#926955"/><path d="M176.7,62.3c-.7-.4-2.1-.3-1.2-1.4C176.6,61.4,179.2,62,176.7,62.3Z" style="fill:#816e65"/><path d="M160.5,15.7a2.6,2.6,0,0,1,3.6-.4Z" style="fill:#aa8b78"/><path d="M32.6,82.3c-2-.7.1-1.4,1.2-2.6Z" style="fill:#b68a74"/><path d="M18.6,57.6c1,1.9,1.7.2,1.7-1.2C21.9,60.6,17.1,58.5,18.6,57.6Z" style="fill:#ae8c7a"/><path d="M30.5,63.8c1.6-.1,2.9-.2,4.1.7C33.1,64.8,31.9,64,30.5,63.8Z" style="fill:#8e5735"/><path d="M174.4,126.5c-.9,4.6.2-6.4.6-3.1C174.3,124.3,174.9,125.5,174.4,126.5Z" style="fill:#644a3d"/><path d="M152.5,17.2l-2,1.5C150.6,17.5,151.2,16.9,152.5,17.2Z" style="fill:#544540"/><path d="M40.4,71.8c.5-.6,1.1-2.9,1.4-1.7S39.5,73.8,40.4,71.8Z" style="fill:#da9b65"/><path d="M179.8,21.9l-2.9-.9C178.5,21.1,179.5,20.4,179.8,21.9Z" style="fill:#97664a"/><path d="M148.5,18.4c.4,1.1-.6,1.4-1.2,1.9A7.6,7.6,0,0,1,148.5,18.4Z" style="fill:#906b56"/><path d="M18.1,55.2c.1.9-.4,2.3-1.4,2C17.3,56.6,17.6,55.7,18.1,55.2Z" style="fill:#ae8c7a"/><path d="M55.9,23.5c.1.6.1,1.1.2,1.6S54.5,22.7,55.9,23.5Z" style="fill:#c28154"/><path d="M27.5,17.9c.5-.6.6.2,1.7.4C27.1,18.5,25.7,19,27.5,17.9Z" style="fill:#dcaa85"/><path d="M81.8,38.4c1.9,1.4,8.9,5.2,4.8,1,4.2,2.6,6.7,4.3,3.4-1.5,1.2.4,2.1,3.4,2.3.6,4.2,3,5.5-2.7,8,5.6,4.2-8.2-1.2,1.4,3.3-.3-2.7,6.7,2.1-1.4,3.1-3.7.6,5-2.7,5.9,2.1,4.2s9.5-8.3,17.3-4.2c-2.3-.5-11.5-.2-5.7.4-3.7,1.9-2.8,2.2.2.7,1.4,2.8-8.4,2.8-6.4,5.2-13.8,15.9-6.9,39.8,15.3,41.5,7.2-1.1,17.8-8.6,22.1-6.6,7.6-2.5.8.2,7,4.8-5.5-2.8-2.1,1.7,1.7,4.5-3.9-.8-9.5-3.4-3.1.4-14.8-1-9.4-3.5,3.8,8.5-6.6-8-22.4-5.9-17.4-8.9-9.4,2,6.1,2.9,7.1,7C135.8,88.8,125,99.1,115.4,83c-6-8.7-21.5-10.5-11.6-21.9-3.5-11.1,4.7-.7,5.9-12.4-5.3,2.3-5.2-2.2-11.4,1.8-1.7,7-6,1.5-8.4,5-1.6-1.4-1.9-4-4.9-3.9,1.6,2.9,4.4,9.7-.5,5.8-5.1-11.6,5.7-4.9.1-12-1.6.2-6.4-1-4.9-2.3,8.8,2.9-6.4-4.6,4.6-1.2-1.5-2.1-4.1-1.8-6.2-2.8C80,38.8,80.5,38.1,81.8,38.4Zm36.8,2.5c-2.9-.3-6.6,1.7-7.4,3.8ZM150,88.3c.2.8,3.4,1.8,4,1.4Z" style="fill:#d59f74"/><path d="M103.6,43.8c-3.5,0-1.3-.4-1.5-3.7-2.3,7.8-3-1-5.8-2.3,1.9-7.9,1.6,5.7,7.1-3.7.7,2.6-4.8,5.3,1.2,2.7-2.3,3.4,1.1-.5-.1,1.8,1.3-1.1,1.4-3.4,3.7-3.1-9,9,2.3,1.7.4-.2,7.8-3.2-.4-.5.9,3.2,6.1-2.4-.5-.1-1.6,3.3,2.1-1.6,5.2-4.9,6-3-2.4,2.1-.5,2.2,2.5.5-4.8,4.9-5.9,2.6-10.8,6.9C107.9,41.7,106.4,38.1,103.6,43.8Z" style="fill:#e6bc9b"/><path d="M128.6,40.9c2.1,1.9,5.2-.6,7.9,2.1-.6-1.2-1.2-2.2.2-2.6,1.5,3.1,4.1-1.6,6-2-4.9,6.1-.6,7.8-1.9,10.1s-2.8,2.5-5.7-3.2C132.7,43.4,125.8,44.1,128.6,40.9Z" style="fill:#eec09b"/><path d="M142.6,38.2c-4.6,5.1-8.2,1.3-6.8.5,4-.2,2.6-7.8,4.2-3.3C141.4,32.1,143.3,33.3,142.6,38.2Z" style="fill:#ab683c"/><path d="M128.6,40.9c-2.8,4.8-7.2-1.3-11.1,1.7C120,38.2,121,40.2,128.6,40.9Z" style="fill:#deb99d"/><path d="M108.6,35.3c1.9.4-2.9,4-4.3,5.8C105.5,38.5,106.2,36.3,108.6,35.3Z" style="fill:#b08366"/><path d="M113.7,37.9a19.1,19.1,0,0,0-5.8,3.9C108.7,39.7,112.3,36.4,113.7,37.9Z" style="fill:#d59f74"/><path d="M138.9,33.7c.7,2.5-1.2,5.8-2.1,2.3,2.5.7,1.2.4.9-1.3C139.1,35.9,138.5,35.2,138.9,33.7Z" style="fill:#dba984"/><path d="M114.1,39.1c-.5-1,2.5-1.4,3.9-.9Z" style="fill:#b88668"/><path d="M172.4,21.2c3.3,0-4.5,5-6.8,4.9,1.6,2.8,5.1-1.8,7.6-1.9-4.6,4.3-7.7,6-.4,1.7-4.1,5.3,1.1-.7,1.8.6.1,3-6.3,3.8-4.2,5.8,1,4.2,11-6.9,4.7,1.7-2.9,1.6-5.5.5-4.2,5.1-9.5.4-16.3,12.4-24.3,9.2,13.9-4.9-16.5,5.1,8.6-27.7-.7,4.7-3.5,9.1,2.1,2.4-3,5.9,1.1-.9,3.7-.6-4.3,8.2,2.9-2.5,4-2.1C159.4,29.7,168.1,20.8,172.4,21.2Zm.2,1.1c-2.8.4-5.1.1-6,2.9A15,15,0,0,0,172.6,22.3Z" style="fill:#160b09"/><path d="M148.1,48c-1.6,8.1,17.6-2.9,22.8-2.3-2.3,2.9,8.1-9.1,3.3-2.6,1-.4,1.9-1.2,2-.9-4.9,3.5-5.6,12-13,12.9,17.9-13.4-10.1-.2-12.4-3.3,3.5,1.8,3.9,4.7,2.1,4.3,10.7,4.4,9.2,9.8,1.3,2.1,7.4,13.9,2.4,4.9,1.1,10.5-2.8-4.3-8.1-6.9-9.9-12,4.8,4.5,2,3.1,4.3,1.9-3.1-4.5-3-2,.9-1.4-2.5-3.4-2.8-4.9.7-1.1C150,53.2,141.9,44.6,148.1,48Zm2.3,4.5c.7,1.4,1.7,2.1,3.8,1.9Z" style="fill:#855232"/><path d="M162.1,60.5c-8.2-3.8-8.6-3.7,1.1-5.4,3.9-.6,8-4.4,8.7-8.1,2.1-1.2,9.7-5.2,4.2-1.3,13.6-7.4-5.2,3.6,5.3,2.6-5,.5-.6,3-8.2,4.8,7.3-1.4,4.3.3-1.3,1.2,8.8-.6,0,3.7-4.4,4.2C174.8,59.9,162.9,61.2,162.1,60.5Zm8.6-4.5a40.5,40.5,0,0,1-5.7,1.6C167,57.5,169.1,57.6,170.7,56Z" style="fill:#975d38"/><path d="M174.6,25.7c-8,6.6,2.4-3.2,1.5-2.7,1.4,1.8,4.9,9.5,1.9,7.6C178.7,27.5,175.4,25.4,174.6,25.7Z" style="fill:#936a54"/><path d="M178,30.6c1.3,1,.9,1.9-.4,4.4,1.6-6.4-2.1,2-3.3.4C175.2,33.6,177.1,32.5,178,30.6Z" style="fill:#99674a"/><path d="M173.3,45.5c.8-2.7,3.3-3.2,5.4-4.9C176.2,43.9,176.4,44.2,173.3,45.5Z" style="fill:#975d38"/><path d="M176.2,42c-3.7,2.2.9-1.9,3.2-3.5A11.1,11.1,0,0,1,176.2,42Z" style="fill:#975d38"/><path d="M177.6,43.1c.9-2,2.7-2.9,3.9-4.4A8,8,0,0,1,177.6,43.1Z" style="fill:#b58160"/><path d="M39.1,82.6c14.2-7.2,12.1-5,20.3,5.4,13.9,1.8,27.1-9,27.9-23.1,3.5-.1,5.6,3.2,3.9-2.4,1.2.9,1.1,4.3-.1,4.8-1.8,10-21.9,18.8-22.5,28.6-2.2,11.7-2.8-4.1-8.5,1.6-11.9,2.3-2.6.5-2.2,1.4-4.1.6-5.7,5.5-9.8,5.1-2.8,1.8,3.3-4.5,5.8-4.2-10.7.9,12.5-5.9,12-9.1,1.2-2.4-11.5.3-9.3-2.1-4.6,1.6-1.7-2.4-5.6-3.8-2.2-.6-1.3,2-5.4-.1C57.1,84.1,41.8,81.2,39.1,82.6Z" style="fill:#dba67d"/><path d="M78.9,43.5c7,3.9,7.1,44.8.5,24.7-4.2-11.1-18.9-2.2-21.1,7,1.1-7.1,6-11.4,12.3-14.2C51.7,64.1,83.7,52.5,82,71.5c4.2-8.1-4.2-20.6.2-22.6.7-4.4-12.5-7.4-6.5-6C78,43.8,74.2,40.4,78.9,43.5Z" style="fill:#af7150"/><path d="M59,69.4c-2,8.8-6,.4-8.8,1.9C50.7,67.1,62,47.9,60,53.2c7.3-4.4,4.3-3.7,1.6,1.9C60.6,59.7,55.8,66.9,59,69.4Z" style="fill:#a46335"/><path d="M64.6,50c-13.9,6.3-9.2-1.4,1.8-3.7,4.7-.1,10.6,2.6,14.3-.1,2.2,7.5-4.6,6.3-11.5,7C66.8,51.3,69.4,48.8,64.6,50Z" style="fill:#1f100e"/><path d="M39.1,82.6c4.8-.8-4.8,3.8-6.3,7.5,4-3.9,11.3-10.1,4.4-2.3,5.1-3.1,3,.2-.7,1-9.7,5.2-.3,2.2,4.6-.9-2.8,1.8-6.1,6.2-9.9,6.9,7.8-5.3-4.1-.6-3.8,2.9,6.3-6.6,0,2.8-2.1,5.7C19.9,111,31.3,84.4,39.1,82.6Z" style="fill:#fff"/><path d="M64.6,50c6-1.2-2.7,3.9.2,5.4-.3,2.2,2.4,3-.3,4.9,1,0-6.1,11.4-7.2,7.7,2.3-3.7,1.9-8.3,4.3-12.9C60.2,52.3,68.4,50.6,64.6,50Z" style="fill:#7b4323"/><path d="M58.3,75.2c2.2-9.2,16.9-18.1,21.1-7C63.4,52.6,55.6,90.6,58.3,75.2Z" style="fill:#5b362b"/><path d="M57.9,80.1c5.3,8.5,22.1,2.2,21.2-2.3,4.9-10,2-.7-1.1,4.2C72.5,85.1,58.9,89,57.9,80.1Z" style="fill:#d2aa91"/><path d="M66.4,85.5c2.9,1,14-5.3,10.5-1.9C68.6,89,46.5,84.1,66.4,85.5Z" style="fill:#ab683f"/><path d="M61.7,87.2c4.9-.7,9.8-1.4,14.4-3.6C76.4,85.9,65.7,89.4,61.7,87.2Z" style="fill:#7d3e22"/><path d="M44.3,72.3c-1.5.8-1-3.1,3.6-8.4C48.6,67.7,47.4,68.7,44.3,72.3Z" style="fill:#da9b65"/><path d="M54.8,54.3c8.8-6.3.7,3.1-3.4,5C51.2,56.7,54.5,56.4,54.8,54.3Z" style="fill:#da9b65"/><path d="M49.2,63.6c.5-1.5.1-3.7,2.2-3.6C51.6,61.8,49.9,62.4,49.2,63.6Z" style="fill:#da9b65"/><path d="M52.1,77.5,47,79C47.1,77.9,50.8,76.8,52.1,77.5Z" style="fill:#dba67d"/><path d="M51.4,60c-2,.6-1.3-.1,0-.7S52.5,59.5,51.4,60Z" style="fill:#682f15"/><path d="M57.4,84.1c.8.7,1.5,1.5,2.3,2.3A2.8,2.8,0,0,1,57.4,84.1Z" style="fill:#dba67d"/><path d="M158.1,92.6c-.8-5.6,13,11.8,8.8,5.6.4.3,3.4.9,1.6.7,3.6,5.5.6,2.3,2.8,7.3-4.6-9,0,7.2.2,4.3C167.1,109.5,163.3,93.1,158.1,92.6Z" style="fill:#b8998a"/><path d="M169.1,109.4c2.6,1.5,4.8,10,2.2,10.6-1.1-1-8.7-15.2-4.7-9.5C183.1,133,152.8,88.4,169.1,109.4Z" style="fill:#382118"/><path d="M171.7,119.8c2,1.7-.5-7.5,1.2-1.1,1.9-4.8-2.2,21.6-.4,7.5C165.9,145.9,171.3,132.1,171.7,119.8Z" style="fill:#a6897b"/><path d="M161.5,90.6c6.4,4.7,10.7,11.8,1.3,2.6C161.9,92.9,159.4,91.1,161.5,90.6Z" style="fill:#b8998a"/><path d="M164.6,95.3c4,1.5,10.6,9.4,4.6,3.8C167.4,98.3,166.1,100.4,164.6,95.3Z" style="fill:#3e281f"/><path d="M174.2,110.4c1.1,7.6-1.4-1.4-2.7-5C172.8,107.5,174.2,108.5,174.2,110.4Z" style="fill:#40271d"/><path d="M169.7,105.3c-1.5-3.7.9-.9,1.6.9C173.6,112.9,172,109.3,169.7,105.3Z" style="fill:#412c22"/><path d="M156.1,86.2c.2-1.8,8.3,5.8,5.4,4.4S158.3,87.3,156.1,86.2Z" style="fill:#b8998a"/><path d="M168.9,94.3a16.4,16.4,0,0,1,4.3,6.7C171.8,98.8,170.4,96.5,168.9,94.3Z" style="fill:#845944"/><path d="M164.3,91.6a12.1,12.1,0,0,1,4,4.4Z" style="fill:#7d594a"/><path d="M171.5,110.5c-.2,2.5-1.4-3.4-1.8-4.2A10.5,10.5,0,0,1,171.5,110.5Z" style="fill:#55382e"/><path d="M166.3,83c-1.1-.4-1-1.6-1.1-1.8S166.9,81.6,166.3,83Z" style="fill:#8d593e"/><path d="M172.7,103.3a10.4,10.4,0,0,1,1.5,5Z" style="fill:#987260"/><path d="M174.2,110.4c-.4-2.3,1.4,1.1,1.5,2.9C174.9,111.9,174.9,110.2,174.2,110.4Z" style="fill:#8d6753"/><path d="M38.4,153.5c2.6,11,.4-3.8-3.8-7.9,12,16,8,3.6,14,18,8.9,2.6-11.5-14-4.1-22.6-2.3,3-1.4,3.9-2.3-.4-.4,6.3-.8-1-.6-2.5,1.2-6.7,5.7-18.4,2.8-6-1.3-2.2-.1-6.8-1.1-2-.8-2.4-1.6-4.3-.9-.9-3.1,6.5-1.7,17.4,2.4,24-4-4.6-8.9-21.8-5.2-6.4,9.8,15.8-15.1-12.1-2.7-22.3-6.6,8.2-6.6,11.6-1,20.1C30.1,138,32.6,144.2,38.4,153.5Z" style="fill:#4f291a"/><path d="M40.3,153.1c1.5,4.5-2.8-1.3-5.7-7.5C40.2,153.2,41.5,151.3,40.3,153.1Z" style="fill:#a67b64"/><path d="M41.2,158.9c1.7.6,1.6-3.4.1-4C38,151.3,41.2,156.7,41.2,158.9Z" style="fill:#38170d"/><path d="M157.4,148.6c1.7,1.8-12,12.2-5.3,8.6-1.7,2.7,1.1-1.6,2.6-2.6-1.2,1.7-4.3,7.8-1.9,3.7C158.6,148.3,166.6,141.6,157.4,148.6Z" style="fill:#735443"/><path d="M148.1,61.4c2.1,2.9,5.7,4.1,7.2,7.3-.8-2.7,1.1-.9,1.8-2.3s.8,1.7,1.9.7.5-.6.9.9c-3.7,3.3-2,8,1.7,15.2-2.2-1.7-7.8-9.2-5.1-4.5-1-.7-1.3-1.7-2.5-1.9,4.2,5.6-.4.5,2.6,4.9-5.5-3.9-5.9-6.4-4.7-8.1.7-.2-6-8.2.6-1-5.7-6.6-1.9-5.6-8.4-10.5C150.9,64.3,148.1,66.9,148.1,61.4Zm6.5,8.5c-1-2.4-3-4-4.7-5.9C151.3,65.7,153,69.7,154.6,69.9Z" style="fill:#8d675a"/><path d="M52.8,24.3c2,3.8,13.1,15.9,2.4,5.2-1-3.4-1.4,0-.4,1.8-3.7-1.4-3.2-1.6-3.1-5.9-3.2,2.1.5,5.1-4.9.1,7.8,4.1-3-4.5-3.5-6.5C46.8,22.3,49.8,21.5,52.8,24.3Z" style="fill:#a0643d"/><path d="M49,26.6c-6.2-3.9-9.7-2.6-15.1-4.9C38.9,19.3,40.8,18.1,49,26.6Z" style="fill:#ad7450"/><path d="M34.4,19.7c4.4,2.9.9-.3-.4,4.2-7.7-1.4-7.6,1.9-7.1-2.3,5.4,2.3,7.9,1.1,2.2-2.2l6.4,1.9C34.5,20.5,32,19,34.4,19.7Z" style="fill:#825033"/><path d="M30.2,20.5c10,3.1-13.7,3.2-6.3,2.5-4.6-1.2,5-.1,2-2C27,21,30.3,21.6,30.2,20.5Z" style="fill:#ad7450"/><path d="M49,26.6c-2.5-3.3-7.4-6.6-8.6-10C43.4,20.8,51.5,25.4,49,26.6Z" style="fill:#784224"/><path d="M25.1,23.5c8,.4-2.8,2.5-5.6.4C21.2,22.9,24.1,24.9,25.1,23.5Z" style="fill:#ad7450"/><path d="M34.2,19.6c-2.1-.2.4.9,1.3,1.7C30.3,20.1,27.2,18.3,34.2,19.6Z" style="fill:#ad7450"/><path d="M45.4,17.7c1.4,1.4,3.1,2.5,3.8,4.4C47.9,20.6,46.3,19.5,45.4,17.7Z" style="fill:#a0643d"/><path d="M66.4,46.3c-5.5,0-8.8,4.3-12.2,6.9-.5-.8,6.4-7.6,9.9-8.8C75.3,41.5,79.5,43.9,66.4,46.3Z" style="fill:#94847f"/><path d="M66.4,46.3c4.2-1.3,6-2.5,9.9-1.2-1-1.6-7.1-3.6-3.1-2.7C89.4,47.7,73.5,47.9,66.4,46.3Z" style="fill:#544949"/><path d="M78.9,43.5c-1.6-1-4.7-2.8-1.6-.1-6.3-2.7-.4-2.5,1.9-3.3-1.1-.5-3-1.3-.5-1.3-.2.6,10.9,5.4.7,1.8C83.1,43.8,83.7,44.2,78.9,43.5Z" style="fill:#f1d1b3"/><path d="M79.9,33.3l.2-.9C82.9,33,82.3,33.5,79.9,33.3Z" style="fill:#51453e"/><path d="M77.1,34.4c-.7,0-2.3,1-2-.3S77.1,33.8,77.1,34.4Z" style="fill:#846857"/><path d="M73.2,42.4c-.6,0-1-.8-1.7-.3C69.8,40.9,75.1,42.2,73.2,42.4Z" style="fill:#cb8c5e"/><path d="M41,67.9c-.7-2-4.2-.7,0-3.4-.5,1-.6,2.2.6,1.3C41.5,66.5,42.4,67.7,41,67.9Z" style="fill:#da9b65"/><path d="M29.3,98c-2-4.5,34-21.3,6.3-1.9,3.6-2.5,14.1-8,13.2-5.4-7-.3,1.1.4-2.5,1.8-8,5.5,4.9-2.4-.2,3,2,.5,5.6-3.1,1.5,1.4,1.6-1.3,3-1.6,1-.1,1.4,0,1.7-.2.3.7,11.9-2.9-7.4,9.3-2.8,1.8-.9,1.6-5.1,4.1-6.4,2-4.8,3.5-1,.2-.2-2.2-.7.6-3.5,4.1-3,2.5,4.5-5.1,1.1-1.6-1.3-2.8-8.6,12,.9-2.3-7.8,6.5C29.4,99.3,38.3,90.5,29.3,98Zm7.9-2c1.7,1.5,6.3.9,7.4-.7A29.5,29.5,0,0,1,37.2,96Zm9,1.5a19.5,19.5,0,0,0-5,2.8C43.5,99.9,45.4,99.7,46.2,97.5Z" style="fill:#dba67d"/><path d="M29.3,98c8.8-7.7.4,1.8-3.7,5.7C24.5,102.2,28.2,99.5,29.3,98Z" style="fill:#855137"/><path d="M20.4,117.2c-2.3-2.1,1.8-8.2,2.3-11.9C22,109.3,21.8,113.3,20.4,117.2Z" style="fill:#864e34"/><path d="M26.4,109.1c-3.8,12.6-3.5,6.6-.5-3.2C25.6,110.1,24.1,110.2,26.4,109.1Z" style="fill:#94573b"/><path d="M26.4,109.1c-.6-3.7,3.4-5.6,6.1-8.4C30.5,103.9,28,105.6,26.4,109.1Z" style="fill:#512e1f"/><path d="M29.1,90.6c-1.4,1.6-1.9,6.5-3.8,6.2C26.6,95.1,27.4,91.2,29.1,90.6Z" style="fill:#fff"/><path d="M51.7,29c-1.3,6.7,5.5,5.3,3.7,10.3-3.2-1.4-.1.9,1.2,2.6-3.1-2.8-1.7-1.1-.4,1-9.3-1.2.2,1-3.4,1.8l-.6-.8c-.4,4.3-2.6-5.4-2.8-1.5-5.2,2.5-12.9.8-19.9,4.9-3.5,1,.2,4.1,1.6,5.6-3.2-2.4-2.5-.4-4.5,2.2s5.2-9.1-1.1-2.8c-3.1,1.6-9.5,8.5-5.5,1.5-3.9,3.1-1.1,0,.8-2.5-2.7,5.7,2.2-2.6,3,.3-6.5,4.7,5.4-.2,2.8-4.5-1.9,1.4-3,1.3-1.4-1-1.7,1.7-4.1,4.9-1.6.6-.6,0-4.3.7-2.8-.8,6.3.3,17.4-6.7,30-5.6-.4-3.5-.6-7.1-4.5-12.6C51.5,32.8,50.2,28.7,51.7,29Z" style="fill:#4d210f"/><path d="M30.2,52c-7-10.9,17.8-6.3,22.6-6.1C48.8,52.2,37.8,47.6,30.2,52Z" style="fill:#67402a"/><path d="M30.2,52c6.4-3.9,12.7-1.3,18.4-2C43.9,50.8,39.3,61.4,30.2,52Z" style="fill:#a27b60"/><path d="M38.7,56.2c6.7-5.9,11.1-1.2,1.4-.3C45,57.8,42.6,58.3,39,61c-6,2.4-2.8.2,1.1-1.8-5.7,1.2-3.8-.8-10.8,1.2,5.7-4.4-2.9.6,1.3-2.6,1.6-3.5,3.3-1.1,4.6-1.6S38.6,57.9,38.7,56.2Z" style="fill:#a1633a"/><path d="M55.4,39.3c2.2-5.8-8.3-4.6-1-10C53.6,25.7,62,42.2,55.4,39.3Z" style="fill:#763b1c"/><path d="M58.3,34.9c-2.7-.3-2.3-2.4-3.1-5.4C57.2,31.1,63.6,40,58.3,34.9Z" style="fill:#9d5b32"/><path d="M47.8,46.4c-1.5-.4-1.5-2.1-1.5-3.3C48.9,44.6,52.7,45.1,47.8,46.4Z" style="fill:#20100a"/><path d="M50.8,45.3c-2.3-.9-6.4-3.1-1.4-2.9C49.6,43.3,51.9,45.2,50.8,45.3Z" style="fill:#67402a"/><path d="M43.6,56.9c-1.5,1.2-2-.7-3.5-1C42,56,45.8,54.6,43.6,56.9Z" style="fill:#411f10"/><path d="M40.3,64.7c-3.2,3.8.4-2.5,1.3-4.2A10.8,10.8,0,0,1,40.3,64.7Z" style="fill:#a1633a"/><path d="M46.7,52.5c-.4,0-.7.1-.8-.3C39.1,50.2,49.6,50.4,46.7,52.5Z" style="fill:#67402a"/><path d="M57.7,38c.4-3.1.5-2.4,1,.3Z" style="fill:#9d5b32"/><path d="M46.3,27.7c4.6,8.6,7.3,11.4-1.4,13.8-13.8-2.4-17,5.9-24.1,4.4,9.3-5.9,1.8-3.2-.8-3.9,3.6-.2,8.2-7.2,2.2-4.1-7.6,2.8,6.2-1.6-4-.9,16.5-1.5.7-10.7,11.2-8.2-10.8-5.1-4.1-1.1-.8-2.5,3.3.3,1.3-.5-1-1,4.7.2,1.3-1.5.2-3,4,2.2,5.9,2,7.7.5C40.1,25.4,43,24.3,46.3,27.7Z" style="fill:#20100a"/><path d="M25.5,33.1c1.2,3.9-6.8,2.6-6.6,5.3,1.6-2-2.9-1-3.7.1C15.1,36.1,23.2,35.9,25.5,33.1Z" style="fill:#57301c"/><path d="M38.7,56.2c-.3,1.9-3.3-1.6-4.4.8-1.3-3.9-6.2,3.8-9.7,1.9C31.4,49.4,24.8,51.7,38.7,56.2Z" style="fill:#67402a"/><path d="M168.8,134.6c.8,1.3-.8,6-2.8,7.7,2-2.7,1.2-6.3-1-2.2-.2-4,1.5-21.2,1.1-7,1.1-2-.9-9.2,1.4-6.6s-2.8,9.1-1.1,10.2C168.9,132.3,169.7,129,168.8,134.6Z" style="fill:#765547"/><path d="M167,137.9c1,1.7-5,8.7-4.4,7.1S165.6,140.3,167,137.9Z" style="fill:#a6897b"/><path d="M161.9,71.4c.7,1.3,3.4,2.6,2.7,4.1C163.7,74.1,162.3,73.1,161.9,71.4Z" style="fill:#7d503a"/><path d="M161.5,70.3a7.6,7.6,0,0,1-1.1-2.2C160.9,68.8,162.3,69,161.5,70.3Z" style="fill:#6f4532"/><path d="M22.6,44.9c-4.3,2.5-1.1-1.4,1.4-2.4C24,43.9,23,44.2,22.6,44.9Z" style="fill:#855233"/><path d="M17.4,50.3c1.7-3.7,2.8-3.9,1.5.5C18.3,49.1,18,49.9,17.4,50.3Z" style="fill:#855233"/><path d="M22,49.1c1.1,0,1.7-.9,2.4-1.6C25.5,48.7,18.2,51.8,22,49.1Z" style="fill:#20100a"/><path d="M153.7,23c-5.5,7.6-1.1,2.3-7.9,8.2C147.1,26.9,153.4,19.9,153.7,23Z" style="fill:#b37951"/><path d="M158.8,22.8c-2.1,2.6-3.8,4.4-1.5.2-5.6,6.8-2.8,2.3-2.1-2.4-.1,3,7.2-5,2.5,1C160.4,19.1,157.5,22.2,158.8,22.8Z" style="fill:#b47e58"/><path d="M143,33.5c-3.5-1.1,3-7.6,5.3-10.6C144.2,30.5,145.6,30.9,143,33.5Z" style="fill:#b37951"/><path d="M146.9,27.5a16,16,0,0,1,4.2-7.4C149.4,22.8,148.7,27,146.9,27.5Z" style="fill:#452013"/><path d="M142.5,29.5c-.4,2.2-.5,9-1.3,3.3C141,30.9,143.7,23.9,142.5,29.5Z" style="fill:#622b13"/><path d="M159,16.4c-1.5,1.5-3.1,2.6-4.8,4C154.6,18.9,157.9,16.2,159,16.4Z" style="fill:#6c3e2a"/><path d="M173.2,24.2c-9.7,3.6-6.3,3.1-.6-2.1C174.4,18.3,176.2,23.3,173.2,24.2Z" style="fill:#936a54"/><path d="M172.8,25.9c-6.6,3.9-5,3-.1-1.2C172.6,25.2,172.2,25.3,172.8,25.9Z" style="fill:#936a54"/><path d="M184.6,45.5c-.8.4-.4-4.7.5-5.9C184.9,41.8,185.1,43.7,184.6,45.5Z" style="fill:#35221d"/><path d="M172.8,25.9a28.9,28.9,0,0,1,2.5-2.4C175.3,24.9,171.6,28.3,172.8,25.9Z" style="fill:#663e28"/><path d="M23.9,28.1C30,32.2,25,33.4,18.4,35c1.7-1.1,5.4-5.2,3.1-1.3,1.1-.6,4.5-3.2,1.5-1.7,4.7-6.2-4.6,1.6-6.2,1.3C29.6,25.6,9.8,33.2,23.9,28.1Z" style="fill:#57301c"/><path d="M27.6,107.1c5.1-3.2.9-4.4,11.5-9.3-4.6,7.1-9.6,19.2-10.1,13.1-2.4-.4-3.3,4.1-1.1-2.2C23.7,115.4,26.8,111.7,27.6,107.1Z" style="fill:#bf8358"/><path d="M26.8,127c3.3,15.8.6,11.5-1.3-1.6-3.5,3.2,1-2,1.5-3.8C27.7,123.3,26.8,125.2,26.8,127Z" style="fill:#4d2517"/><path d="M27.3,122.3c-5.5,7.5-1.9-5.1,1.4-9.3A17.6,17.6,0,0,0,27.3,122.3Z" style="fill:#a36945"/><path d="M26.2,113c3.9-5.3,2.2-.2-1.5,3.8C25.3,122.1,23.5,115.5,26.2,113Z" style="fill:#895236"/><path d="M25.3,116.9c-.1-3.6,6.6-7.8,1.1.2C25.4,119.3,26,114.3,25.3,116.9Z" style="fill:#301911"/><path d="M22.8,127.4c-.6-2.4-.3-4.4-.4-7.1C22.5,122.2,24.5,131.5,22.8,127.4Z" style="fill:#ab745b"/><path d="M21.3,125a2,2,0,0,1,.6-1.8C21.9,124,22.2,124.7,21.3,125Z" style="fill:#935f49"/><path d="M33.6,141.7c-4.3-4.4-3-11.1-3.4-19.5.1,2.9,1.1,1.8,2.9,1C31.6,132.6,30.7,131.8,33.6,141.7Z" style="fill:#965a35"/><path d="M30,123c.8,6-.2,11.8.8,17.8C27.4,135.3,28.7,128.9,30,123Z" style="fill:#34170f"/><path d="M26.8,127c1.3-7.5,2.6-15,4.1-11.4C26.3,128.2,29.1,127.2,26.8,127Z" style="fill:#ad724c"/><path d="M28,130.7c-.1-5.8.7-11.7,3.8-16.6C28.2,118,28.6,140,28,130.7Z" style="fill:#6e3d25"/><path d="M30.3,137.9c.1-4.7,1.6.8,2,2.5C31.8,139.7,30.6,135.4,30.3,137.9Z" style="fill:#b27348"/><path d="M36.6,151.2c.7,1,1.5,1.7,1.2,2.9S37,152.4,36.6,151.2Z" style="fill:#663b29"/><path d="M144.3,21.7c1.6.2-.4,1.5-1.1,2.7Z" style="fill:#7c5f4f"/><path d="M172.4,21.2c-5.6,1.3-3.8.1-10.4,4.6a26.4,26.4,0,0,1,5.9-7.9c-3-.1-.4-.8-5.3-1.2,4.6-.9,14.1,2.5,12.9,3.9C169,18.3,171.8,20.2,172.4,21.2ZM167.7,19l3.4-.3C169.7,17.5,168.7,18.6,167.7,19Z" style="fill:#bb8969"/><path d="M40.1,63.4c-2.7,4.8-2.2.3.8-2.2C40.5,62.4,40.3,62.9,40.1,63.4Z" style="fill:#3a180d"/><path d="M38.1,65.6c1.1.3.1,1-.1,1.8S37.7,66.3,38.1,65.6Z" style="fill:#8e5735"/><path d="M165.9,17.5c3.4.3-3.1,1.6-4.7,5.4,2.8-6.2-3.3,3.6.6-5.3-2.4,2.3-5.3,5.4-1.9,1S162.5,18.7,165.9,17.5Z" style="fill:#dba984"/><path d="M174.9,105.8c.5.8,1.5,1.5,1.1,3.1C175.5,107.6,175.2,106.7,174.9,105.8Z" style="fill:#76513f"/><path d="M68.6,95.9c5.4-17,32.8-23.6,19-37.5-4.3-12.8-1.4-4,3.2-3.7s6.9-3.9,13.1-6.6c2.1,3.8,3-.1,5.6,1.1-8.7,5.8-4.3,10.1-9.7,20.9,4.3,4.5,11.7,6.8,15.6,12.9C105.5,68.1,79.7,73.6,68.6,95.9ZM101,54.4c-1.5,1.6-1.8,3.5-2,6.3Zm-1.5,0a9.2,9.2,0,0,0,2-4.9C100.1,50.9,99.8,52.4,99.5,54.4Z" style="fill:#e6bc9d"/><path d="M157.7,97.5c10.5,14,4,2.3,7.7,19.6-.7-6.3-6-14.2-1.5-3.7-4.1-8.5-.3,2.8-5.5-7.2,3.3,7,2.8,6.8-2.1.7,5.8,7.3-3.1,1.4-6.4-1,6.1,10.8-4.1-3,.9,5.2-1.8-3.2-6.6-7.3-7.4-9.5,1.3.3,5.2,1.6,3.2-.7-5-4-5.9-4.3.6-3.9-4.4-.3,2,5.9,7.6,6.6-4.5-1.4-9.8-7.6-3.8-3.7-.4-.9-2.2-1.6-3.1-2.4,3.7.3,10.7,9.7,13.5,4.7C160.4,100.6,153.8,94.7,157.7,97.5Z" style="fill:#97603d"/><path d="M118.2,83.9c-23.5-13.7-4.4-35.7-4.2-36.8,3.4,6.1-11.5,19.5-1.1,30.4,1.5,3.7,3.7,5,1,.2,3.9,5-1-2.2.9-5-1.5,6.6,5.2,12.1,11.6,10.8,9.1-.4,9.3-.4,11.7-5.3C139.1,87.9,124.2,85.4,118.2,83.9Z" style="fill:#aa734e"/><path d="M119.2,86.9c15.5,19.4-13-7.9-20.9-7.2C108.5,70.4,109.6,83.2,119.2,86.9Z" style="fill:#f7ede1"/><path d="M85.8,58.5c3.2,5.5,6.8,1.4,5.6,7.9-1.4-.3-2-2.5-4.1-1.5-.9,11.4-7.4,14.8-9.1,17.2,11.6-10.9,1.4-36.4,4.5-36.3,3.1-2.2,6.3,6.1.2,3.6C83.4,52.1,83.5,57.2,85.8,58.5Z" style="fill:#cb8c5e"/><path d="M118.2,83.9c37,14.1,11.7-40.6-4.1-11.9C123,29.8,161.5,101.8,118.2,83.9ZM116,67.5c5.1-8.3,10.9-5.3,16.7-2.2C129.1,57.5,117.2,58,116,67.5Z" style="fill:#855232"/><path d="M119.2,86.9c-9.6-3.7-10.8-16.5-20.9-7.2-6.8-3.5-14.7-3.1-22.5,7.1C87.1,69.3,107.3,70.8,119.2,86.9Z" style="fill:#f8dfc4"/><path d="M141.2,97c3.5,1.1,8.1,6.9,2.7,3.3,5.8,1.8-6.2-4.3-8.9-4.2-3.9-2.4-13.8,3.6-7.2-4,8.9,1.9,19.9.6,26.3,8.6.3,1.7-1.8-1.7-6.2-3.2,3.2,2.1,3.9,3.1-.3.4,3.4,4.7-4.7-.5-.4-1.4C148.6,95.8,130.9,93.7,141.2,97Z" style="fill:#b47b54"/><path d="M119.5,84.8c20.5,10.5,15.4-12.7,35.9-4.4-4,1.5-7.2.7-13.7,1.7C135.7,87.6,126.8,91,119.5,84.8Z" style="fill:#b5794d"/><path d="M115.1,45.4c2.9-2.4,10.2-5.8,4.5-.3,2.2-.8,4.8-2.1,5.2-1,3.6-1.2,9.4.6,10.8,2.6-4.2-2.5-10.7,1-12.1-.6-.4,2.1-5.8,2.7-3.1-.4-2.7,2.1-2,2.2-1.6-.5C117.9,47.8,115.4,48.7,115.1,45.4Z" style="fill:#6c5f5c"/><path d="M157.7,97.5c-4.5-2.9,4.4,3.9,3.8,5.4-2.1-2.9-11.8-8.3-4.7-3.5-2.2-.3-3.5-2.2-6-2.1-5.3-3.4,0-.9,3.6-2-2.1-.6-8.3-.7-6.5-1.6,4.8.4,2.8-.5-.6-2.3C151.4,93,155.8,93.9,157.7,97.5Z" style="fill:#b47b54"/><path d="M164.4,106.7c2.7,2.2-9.9-16.6,2.4-2.9,1.7,2.4-.2.4-1.3-.2.9,2,3.9,4,3.6,5.8-8-8.2-4.5-6.8-1.2,1.9S165.8,109.7,164.4,106.7Z" style="fill:#6b4a3a"/><path d="M125.5,94.6c4.4,8-1.7,4.2-6.9,5,1.3-.5,1.8-2.8,3.8-1.7C123.1,95.8,123.4,94.1,125.5,94.6Z" style="fill:#beb5b1"/><path d="M158.1,92.6c8.9,4.9-20-3.4-5.3-1.6C147.9,89.2,156.8,90.9,158.1,92.6Z" style="fill:#b47b54"/><path d="M166.8,103.8a55.5,55.5,0,0,0-10.2-8.5C161.3,94.5,166.1,98.6,166.8,103.8Z" style="fill:#b47b54"/><path d="M150.8,97.3c2.5-.1,3.8,1.8,6,2.1-7.1-4.7,2.6.4,4.6,3.5C157.4,101.8,153.6,100.4,150.8,97.3Z" style="fill:#97603d"/><path d="M106.8,51.8c.9-1.2,2.1-3.1,3.7-2.2C107.3,54.4,101.6,61.3,106.8,51.8Z" style="fill:#7b472d"/><path d="M164.6,95.3c-1.2,1-4.5-4-7.4-4.3C160.2,91.2,163.2,92.4,164.6,95.3Z" style="fill:#b47b54"/><path d="M160.6,95.1c2.4,1.7-8.3-.7-4.9-1.3C157.3,94.3,161.7,93.7,160.6,95.1Z" style="fill:#523222"/><path d="M147,94l7.4,1.3C151.3,96.6,142,93.9,147,94Z" style="fill:#502d1b"/><path d="M118.6,40.9l-7.4,3.8C112,42.6,115.7,40.6,118.6,40.9Z" style="fill:#804f36"/><path d="M103.6,43.8a9.9,9.9,0,0,1,2.5-3.2C106.1,43.4,100.6,50,103.6,43.8Z" style="fill:#8c553b"/><path d="M161,99.5c1.6,2,7.1,12.7,3.6,7C163.4,102.8,159.3,100.6,161,99.5Z" style="fill:#b47b54"/><path d="M156.1,86.2c1.2.7,7,5.1,4.2,4.4C159.8,88.9,152.7,85.7,156.1,86.2Z" style="fill:#d8c6bf"/><path d="M160.3,90.6c1.5,1.1-2.4.5-3.1.4C152,88.2,157.6,89.9,160.3,90.6Z" style="fill:#503020"/><path d="M149.6,93.7c-2.7-.1-5.5.1-8-1.1A18.3,18.3,0,0,1,149.6,93.7Z" style="fill:#5f341f"/><path d="M143.1,92.4c-5.7.3-5.1-.7.5-1.8C141.6,91.9,140.6,92.1,143.1,92.4Z" style="fill:#b47b54"/><path d="M150.8,90.2c4.3,1.4-2.7,0-4,0C141.5,88.9,148.8,90,150.8,90.2Z" style="fill:#723d22"/><path d="M150,88.3c1.1.7,3.6.7,3.9,1.7C152.8,89.4,150.3,89.4,150,88.3Z" style="fill:#b47b54"/><path d="M156.1,89.5c-.7-.1-2.6-.1-2.3-1Z" style="fill:#b47b54"/><path d="M115.1,45.4c.4,6.3,5.8-3.5,2.8,2.4,1.5-1.2,3.3-3,1.3-.6.9.8,2.2-.3,2.4.9,1.8-1.5,5.3-2.5,11.5-2.3,18.6,14.2,1.1-.8-9.4,2.6C120.8,49,113.1,51.3,115.1,45.4Z" style="fill:#3a3537"/><path d="M142.5,54.2c-1.7-4.5-5.2-6.1-1.9-6.2s-3.7-2.4.7-1.3c-2.9-6.4.5-3.2,3.4.9.7,2.4,1.9,4.2-1.6,2.2,3.7,2.7,3,3.4-.3.9,1.7,1.5,5.8,5.5,1.3,1.8.1,1.8,2,3.8,1.3,4.2-1.7-1.7-.9,1.8-4.9-.7C129.5,48,141.3,57.4,142.5,54.2Z" style="fill:#c88859"/><path d="M142,44.2c1-2.1-.1-6.4,2.1-13.6-.9,6,.9-.5.8,5.3,1.6-5,.1-7.7,2.1-8-2.3,4.2-.3,2.3,1.8,0C147.7,31.8,145.2,42.6,142,44.2Z" style="fill:#7e4524"/><path d="M132.9,44.9c-4.8-1.5-8.4-1.7-10.9-.5C113.9,42.8,133.9,41.7,132.9,44.9Z" style="fill:#9c8d88"/><path d="M141.4,42.7c-3.3,1.1.8-2.9,1.3-4.3C142.9,40.1,143.1,41.7,141.4,42.7Z" style="fill:#341509"/><path d="M142,44.2c1.3-.7,4.3,2,2.6,1.9,8-1.3,8.6,2.5.4,1.1,6.7,8.6,4.4,5.9,4.6,10.3-4.7-4,2.1,1.9-1.6.9,4.2,7.2-8.8-10.1-1.5-3.9-2.4-3.3-5.4-4.7-.4-1.6C143,48.6,148.2,51.2,142,44.2Z" style="fill:#b27446"/><path d="M174.6,25.7c2.3,0,3,3.2-2.7,5.2,2.3,0,6.6-4.2,4.9-2.1C167.2,38,170.2,32.1,174.6,25.7Z" style="fill:#663e28"/><path d="M160.8,22.8c2-.7,3.5-5.2,7-4.9C166.3,19.4,157.3,27.3,160.8,22.8Z" style="fill:#5b3724"/><path d="M159.2,20.3c3.1-4,2.7-1.1.4,1.6,3.8-1.3,3.6-1.9-.1,1.5C158.8,21.5,157.3,22.9,159.2,20.3Z" style="fill:#512f1f"/><path d="M172.6,22.3a15,15,0,0,1-6,2.9C167.5,22.4,169.8,22.7,172.6,22.3Z" style="fill:#936a54"/><path d="M173.7,32.6c.6-2.1,2.8-2.9,3.8-4.7C178.1,29,175.4,32,173.7,32.6Z" style="fill:#99674a"/><path d="M144.1,44.4c-.6,0-.5-.5-.7-.8C147.1,40.7,148.1,41.5,144.1,44.4Z" style="fill:#c88859"/><path d="M159.3,24.8c1.2,0,1.4-1.3,2.3-1.6C164.7,21.9,158.2,27.6,159.3,24.8Z" style="fill:#512f1f"/><path d="M176.9,29.9c2.4-4.1.8,3.5-1.8,4.1C175.7,33.3,178.6,29.7,176.9,29.9Z" style="fill:#5e3c2a"/><path d="M145.4,45.9c-2.1-.9,2.6-1.2,3.5-2.2A6.6,6.6,0,0,1,145.4,45.9Z" style="fill:#c88859"/><path d="M163.2,55.1c-10.6,3-2.6-4,3.8-4.9C172.2,47.8,165.4,54.6,163.2,55.1Z" style="fill:#a57f62"/><path d="M169.3,49.6c-4.1.7-11.2,3.2-11.6,6C143.9,57.5,171.3,44.5,169.3,49.6Z" style="fill:#975d38"/><path d="M140.5,56c1.5.7,5.4,2.2,3.4-.5,3.1,2.6,3.9,5.3,4.6,8.5C143,59.3,147.1,61.5,140.5,56Z" style="fill:#b27446"/><path d="M155,55.8c3.8-1.3,2.4.7-.5,1.3,1.8.7,3.1,1.8,4.8,1.7C160.2,60.6,148.5,55.8,155,55.8Z" style="fill:#26140e"/><path d="M155,53.4c-1.6.9-2.5-.8-4.3-1.6C153.4,52.7,159.2,50.2,155,53.4Z" style="fill:#1e0c06"/><path d="M150.4,52.5l3.8,1.9C152.1,54.6,151.1,53.9,150.4,52.5Z" style="fill:#25120a"/><path d="M170.7,56c-1.6,1.6-3.7,1.5-5.7,1.6A40.5,40.5,0,0,0,170.7,56Z" style="fill:#371b0d"/><path d="M177.6,27.7a11.6,11.6,0,0,1-5.7,3.2C174.3,30.3,177.1,26.9,177.6,27.7Z" style="fill:#ae8d7f"/><path d="M75.8,86.8c3.7-3.8,18.3-17.6,17.9-6.5C82,82.2,76.4,92.7,85.4,102.1c-4,2.8-7.8,2.5-10-2.4C62.3,108.7,68,92.8,75.8,86.8Zm4,16.4c.3-.8.4-1.3-.5-1.5S78.5,103.3,79.8,103.2Z" style="fill:#fceedf"/><path d="M49.9,96.8c-4.3-.1,5-5.5-3.8-1.3,2.8-3.8,4.5-3.2-.8-2,.4-1.3,4.7-3.2-.3-2,1.4-2,8.7-.5,5.7-1.6-3.6-2.9-10.1,4.2-15.2,6.2,5.6-5.5,19.1-8.7,4.9-10-5.7,4.2,2.9-7.5,2.8-4.1,1.9,2.3,6.4-.5,7.8,2.2-5.1-.3-6.3,2.4-1,.6-3.5,1.4,5.8-1,3.2,4.2,2.4.6,10.9-.2,12.7,1.6-1.9,4.3-12.1,5.8-16.3,9.7C54.5,96.7,58,94.4,49.9,96.8ZM42.5,84.5a2.6,2.6,0,0,0-2.8,1.7Z" style="fill:#e7ba96"/><path d="M28.7,132.2c-3.8-14.5,9.9-19.9,13.2-25.6-2.2,4.9-4.1,9.5,1,2.1,2-1.3,2-6.3,1.9-.7.8-1.9,1.1-1.8,3.3-4,3.4-.5.1,1.8-.3,3.7,5.4-4.7-7.4,11.2-4.9,17.3-1.6-4.1,2.1-9.8.2-12.7-1,4.7-.7,4.3-1.1,11.3-.3-4.3-1.5-3.4-1.3,0-2.4-8.3-4.4.5-6.8,3.9,5-16.5.9-4.5-1.9,4.4-.8-6.6,6.4-17.2-.5-8.4-1.2,2-1-.1-1.3-1.3A38.5,38.5,0,0,0,28.7,132.2Zm17.1-24.4c1.3-.4,1.5-1.4,1.6-2.7A5.4,5.4,0,0,0,45.8,107.8Z" style="fill:#b27348"/><path d="M67,101.3c2.3,7.8-.8,13.2-3.8,3.6,4.4-1.5,2.4-3.1-.9-6.1-5.9,2-13,3.5-3.3-.4,3.3-.2-1.6-.6-2.7-.4C61.4,97,65,94.5,67,101.3Z" style="fill:#b27348"/><path d="M53.2,101.8c5.3-2.9,11.6-4.4,13.2,2.6-9.1-.6,1.8,6.2,3.6,7.8-7.5-2.5-10.4-6.5-5.7-9.6C56.8,97.3,42.7,110.6,53.2,101.8Z" style="fill:#72462a"/><path d="M47,104.9c-4.4,4.6,2.1-6.9,6.9-5.1C51,100.6,48.4,102,47,104.9Z" style="fill:#411d10"/><path d="M56.3,98a10.3,10.3,0,0,1,4.2.3C57.4,98.4,49,100.2,56.3,98Z" style="fill:#56301b"/><path d="M79.8,81.2c-1.9,1,1.1-2.4,1.9-4.1C80.9,79.3,80.9,79.8,79.8,81.2Z" style="fill:#af7150"/><path d="M65.5,60.7c-.1-1.7-2.9-10.2,3.1-10.8-2.3,7.2,8.8,1,10.5,2.3-.5,1.6-1.3,3,1.6,6.2-3.8-1.5-2,3-.9,4.7C75,57.7,70.3,57.3,65.5,60.7Z" style="fill:#4f2413"/><path d="M65.9,60.5c4.5-3.4,9.2-2.6,13.9,2.6-1.1-1.7-2.9-6.2.9-4.7-3.8-4.4-1.8-5.5-.3-7C81,58,85.6,64.8,82,71.5,81.9,63.1,73.8,57,65.9,60.5Z" style="fill:#9a572f"/><path d="M81.1,71.9c.7,6.4-4.7,6-2.2.7C77,64.6,77,64.3,81.1,71.9Z" style="fill:#e1d4d0"/><path d="M80.2,50.9c.2-.6.7-.8,1.1-2.2C82,50.3,81.8,52.6,80.2,50.9Z" style="fill:#9a572f"/><path d="M81.3,48.5c-.6-2.8.6-1.6.9.4C81.7,49.1,81.8,48,81.3,48.5Z" style="fill:#9a572f"/><path d="M61.2,50.7c4-1.5,1.3,1.8-1.2,2.5Z" style="fill:#7b4323"/><path d="M40.9,87.3c1.1,1.6-7.4,3.5-9.5,5.2C33.7,89.3,37.4,88.5,40.9,87.3Z" style="fill:#b37b5a"/><path d="M41.1,82.6c2.8-.9-6.4,4.8-8.3,7.5A24.3,24.3,0,0,1,41.1,82.6Z" style="fill:#dba67d"/><path d="M28.9,95.1c0,1.4-1.3,2.2-1.5,2.6S27.3,95.6,28.9,95.1Z" style="fill:#c48e72"/><path d="M40.9,87.3l-4.4,1.5C38,88.3,39.3,87.3,40.9,87.3Z" style="fill:#dba67d"/><path d="M76,65.6c9.1,18.1-3.9-4.7-11,13.8C51.2,79.3,68.7,59.1,76,65.6Z" style="fill:#fdffff"/><path d="M60.4,73.2c-1.8,4.9,2,8.6,6.4,5.4C72.8,89.8,51.9,82.9,60.4,73.2Z" style="fill:#f0e7e0"/><path d="M68.1,81.3c-4.6-7.3,3.1-3.7,5-7.9.7-1.2,1.9-.8,2.9-1.1C84.4,82.7,73.9,78.8,68.1,81.3Z" style="fill:#2b1c1c"/><path d="M68.1,81.3c2.3-2.2,5.6-.7,8.3-1.1C77.4,83.9,69.2,85.3,68.1,81.3Z" style="fill:#85341a"/><path d="M163.9,113.4c-3.9-9.9,2.8.5,4.7,11,.4-3.2-4.8-17.8-.9-10.6.3,4.1,2.3,14.6.9,16.4C168.8,120.8,164.9,119.8,163.9,113.4Z" style="fill:#623a28"/><path d="M168.9,129.7c1.8-6.4-5-21.3,1.9-11.3C169.7,143.9,170.9,113,168.9,129.7Z" style="fill:#a6897b"/><path d="M165.9,110.9c7.9,29.9-4.5-10.2-1.5-2.1C160.7,100.8,164.8,106.3,165.9,110.9Z" style="fill:#b09387"/><path d="M169.5,131c2.6-16.5,3.6-6.6-.7,3.6C168.3,134,169.4,131.9,169.5,131Z" style="fill:#412318"/><path d="M170,115.3c-.7-1.9-2.8-3.7-2.5-5.7C170.7,111.5,173.7,123.1,170,115.3Z" style="fill:#a08276"/><path d="M54.9,161.8c-.4,10.5,3.3,1.4,4.6,7.7-.6,1.7,5.7-2.1,4.3,4,2.5-2.9,3.5-4,4.8,1,1-7.4,3.8-.7,2.6,2.8,1.7-7.4,6.4-8,1.6,0,4-1.7,7.3-.2,11.6,1.9-24-26.1,35.7,17.2,46.8-38.2-3.1,11.4-23.1,37.7-11.2,10.7-6.9,14.8-27.3,18.1-39.9,7.6,9.8,15.2-13.9-.4-14.5-9.4a39.1,39.1,0,0,0,1.4,6.8c-3.9-2.1-5.7-13-4.2-3,4,4.8,4.3,6-1.7,2,3.6,5.3-3.2-2.3-5.6-4.2,6.6,12.8-2.2-3.8-2.7-2.5,6.8,10.4,2.6,11.5-4-.2C48.6,153.2,53.5,157.3,54.9,161.8Z" style="fill:#2a140c"/><path d="M49.5,160.1a51.2,51.2,0,0,0,3.2,7.6c4.3-9.8-12.8-14.6-7.3-24.4C43.3,134.3,42.3,156.4,49.5,160.1Z" style="fill:#2a140c"/><path d="M45.5,159.6c4.4,5.3.7-3.1-2.8-5.6C43,156.1,45.6,157.2,45.5,159.6Z" style="fill:#29140d"/><path d="M32.7,130.4c2.3-9.9,6-17.5,1.2-2.9,2.4-3.4,4.4-12.2,6.8-3.9-.2-3.4,1-4.3,1.3,0,.4-7,.1-6.6,1.1-11.3,1.9,2.4-1.5,7.6-.4,11.2s2-15.1,3.7-7.5c-3.1-1.3-2.5,4.6-2.6,6.8.8-3.1.9-7.2,3.1-2.2,1-3.2-.7,5.9,1.9,3.5,4.7-14-2.1,10.8-.9,17.4-2.4-1.5-3.5-8.3-4.9-2.9.1-4,.5-1.6-.9-1.3-3.2-3.9,6.3-8.2,3.5-16.2-1.3-2.9-1.8,6.4-2.3,9-1.7-3.8-.4-2.8-1.5-.9s-.4,8.5-1.4,10.8c-2.6-5-1.1-8.5-.4-13.3C29.5,153.2,44.4,109.5,32.7,130.4Z" style="fill:#965a35"/><path d="M41.6,138.1c1.6-1.3,1.7-3.6,1.4.5,1.4-5.4,2.5,1.4,4.9,2.9,2.1-5.8-1.4-8.8,3.5-2.3,1-8.5-1-.8,1.7,2.7a15.5,15.5,0,0,1-.1-9.3c.7,13.4,2.8,9.5,4.3-1.4-4.5,8.4,11,29.9-1.8,14.9,1.9,10.6-4.9-3.3-2.7,2.9s-2.6-1.8-2.9,1.8c-2.1-3.3-.9-5-3.7-3.4s1.1-6-.9-7.9c-2.2,2.8-2.4,6.8-3.1,1.1C41.9,146.4,41.4,140.7,41.6,138.1Zm8.6,8.6c-1-2.8.4-5.8-.6-9.5C49,141,48.7,143.9,50.2,146.7Z" style="fill:#713d20"/><path d="M36.9,124.5c3.4-4.3-2.7,8.2-.7,13.7,5.3-17.5,1.5-6.8,1.2,4.9s-1.3-24.5-3.8-10.8C31.3,131.1,36.8,126.9,36.9,124.5Z" style="fill:#29120b"/><path d="M39.2,147c-2.7-4.8-2.2-10.3-.7-14.9,1.4,6.5,2.6,13.9,6,20.4-1.9-.3-4.8-9.7-6.2-13.2C38.7,149.5,46.3,158.5,39.2,147Z" style="fill:#7b4426"/><path d="M33.6,132.3c4.9-10.3-.8,10,4.7,14.1C36.7,146.4,30.6,132.4,33.6,132.3Z" style="fill:#935a39"/><path d="M43.8,127.6a21,21,0,0,1,1.8-6.5C46.8,124.1,43.2,137.1,43.8,127.6Z" style="fill:#190b07"/><path d="M47,159c-1.4-1.7-3-3.4-4.3-5.1C45,154.3,45.9,157.2,47,159Z" style="fill:#a67b64"/><path d="M40.3,153.1,39.1,151C41.2,153,43,155.7,40.3,153.1Z" style="fill:#29140d"/><path d="M33.6,141.7c.7-.7,1.9,2.3,2.2,3Z" style="fill:#b27348"/><path d="M148.8,163.3a40.9,40.9,0,0,1,2.6-5.1C149.7,157.5,145.7,164.1,148.8,163.3Z" style="fill:#301d16"/><path d="M150.1,162.3c1.3-2.7,3.2-4.9,4.6-7.7C152.4,156.3,149.4,161.5,150.1,162.3Z" style="fill:#4b2d1f"/><path d="M160.1,134c-.8-6.6-2.5-.2-5.1,1.9-6.1,8.1.8-4-1.6-8.3-.7,2.1-3.3,6.2-4.1,8.8,2.4.6-.4.6,3.1-1.8-.6,4.9-3.8,8.5-6.8,12.4,9.7-37.8-5.8,16.1-2.7-15,.5,6.1-2.2,11.5-5.7,16.3,2.4-5.8,2.4-16.6-.1-4.8-3.8,7.9-5.6,8.5-4.1-.7-3.5,3.8,6.8-27.6,11.3-29.7-4.7-9.2-4.6,7.8-9.8,11.6,2.3-6.4.5-7-1.9-.9-10.7,15.1-18.7,24.4-1.6,4.8-12.2,24.2-4.4,12-15.9,33.2,2.5,5.7,10.5-6.4,11.2-10.6,8.6-18.6.6-1.5,2.4,1.4,11.4-14.9-14.5,18.3.2,6.4-9.1,10.1-6.3,6.2,3.3,1.2-3,2.4-11.7,13.2-5.3,11.9,2.4-8.5,6.7-11.5,12.3-18.6-.6,6.7-14.9,15.6-6.3,18.5,2.1-5.8,4.1-9.9,9.9-13.7-5.7,7.5-5.3,17.8-5.3,5.1-6.2,19,10.1-2.8,13.2-10.1,6.2-6.3,6.4-26.2,4.6-7.5,3.4-6.6,0-7,2.2-8.5C158.4,133.6,163.6,130.2,160.1,134Z" style="fill:#301d16"/><path d="M153.2,150.6c3.3-4.8,7.7-10.8,6.1-16.8-5.3,6.5.1,3.1-4,12,.7-2.4,1.4-10.4.6-8.7,1.4,11.4-9.1,18.1-11.5,28.3,9.6-8-2.2-3.2,10.4-15.4-1.5,2.6-2.6,4.6-3.8,6.5C154.5,151.9,162.6,139.9,153.2,150.6Z" style="fill:#4b2d1f"/><path d="M160.4,135.2c3.4-5,1.5,8.9-1.3,11.5,7.9-12-.4,3.3,5.9-6.6C169.3,135.3,154.7,160.8,160.4,135.2Z" style="fill:#4b2d1f"/><path d="M159.9,140.3c-.8,12.4-13.3,22-1.5,4.7C148.8,154.8,158.3,146.4,159.9,140.3Z" style="fill:#301d16"/><path d="M149.6,158.2c-6.5,5.8,1.4-5.1,5.2-8.2C152.8,153.3,151.9,155.8,149.6,158.2Z" style="fill:#301d16"/><path d="M151.4,158c-.6.2-1.3.7-1-.4S152.6,156.7,151.4,158Z" style="fill:#4b2d1f"/><path d="M140.5,56c6.6,6.1,3.1,3,9.3,9.9-1.8-2.7-8.3-5.3-2.8-2.2-.1,3.3,9.4,11.7,1.1,4.8,5.3,8.5,9.7,12.1-5.3,10.5-5.2.3-5.2-11-5.9-16.1a16.1,16.1,0,0,0-3.6-5.2c1.7-4.2,8.8,6.4,8.6.8-2.8-3.3-8.3-3.8-10.8-7.4C133.4,51.9,137.8,54.7,140.5,56Z" style="fill:#855232"/><path d="M154.6,69.9c-1.6-.2-3.3-4.2-4.7-5.9C151.6,65.9,153.6,67.5,154.6,69.9Z" style="fill:#855232"/><path d="M46.3,27.7c-3.3-3.4-6.2-2.3-10.8-4.9,5.7-2,16.6,7.9,14.4,3.7C53.9,25.1,51.2,34.1,46.3,27.7Z" style="fill:#784224"/><path d="M48.7,101.1c-2.8,1.6-4.5,10.3-3.8,3.9-2.5,7.3-1.3-1-3.3,2.8-.8-.5.3-.8.3-1.2-6.2,9.3.5-4.3-10.1,7.2.1-6.3,11.1-19.3,6.4-8.4C47.9,98,43.8,102.9,48.7,101.1Z" style="fill:#c99065"/><path d="M38,101.4c-5.7,5.8-4,7.2-6.4,12C23.8,123,40.8,94.7,38,101.4Z" style="fill:#6e3d25"/><path d="M43.9,101.4c-2.6,1-3.9,3.8-6.8,4.3C36.4,104.8,43.7,99.8,43.9,101.4Z" style="fill:#331b11"/><path d="M37.2,96a29.5,29.5,0,0,0,7.4-.7C43.5,96.9,38.9,97.5,37.2,96Z" style="fill:#462313"/><path d="M49.9,96.8A17,17,0,0,1,56,95.7C54.8,96.9,47.8,98.1,49.9,96.8Z" style="fill:#663a23"/><path d="M46.2,97.5c-.8,2.2-2.7,2.4-5,2.8A19.5,19.5,0,0,1,46.2,97.5Z" style="fill:#3f2014"/><path d="M45.3,93.5l4.6-1.3C47.3,94,38.6,96,45.3,93.5Z" style="fill:#713e24"/><path d="M45.7,89.9a19.7,19.7,0,0,1,6.4.2C49.6,90.2,48,90.7,45.7,89.9Z" style="fill:#965d3a"/><path d="M46.1,95.5a14.6,14.6,0,0,1,5.1-1.9C49.6,94.3,47.3,96,46.1,95.5Z" style="fill:#895033"/><path d="M30.5,105.3l-1.7,1.2C29.4,104.7,31.8,103.2,30.5,105.3Z" style="fill:#4e2a1a"/><path d="M51.4,45c-1-.6-2.7-2.7-1.7-3.7C50.3,42.5,51.2,43.6,51.4,45Z" style="fill:#20100a"/><path d="M24.4,47.5c-1.1.8-.5-1.4.8-1.4Z" style="fill:#67402a"/><path d="M168.9,129.7c1.6-16.1,3.5,2.5-3.3,6.9.6-3,3.4-8.2.8-11.2.1,14.2-.7.2-.5-6.4C168.1,119.9,168.7,132,168.9,129.7Z" style="fill:#291812"/><path d="M165.9,125.4c-.3,4.2-.3,13.8-1.8,14.8S163.3,128.1,165.9,125.4Z" style="fill:#623a28"/><path d="M145.6,28.2c-.3,2.5.5,5-.7,7.7C144.9,33.1,143.9,30.6,145.6,28.2Z" style="fill:#321309"/><path d="M29.8,114a17.5,17.5,0,0,0-1.8,7.8C25.5,124.4,29.8,101.7,29.8,114Z" style="fill:#c39c86"/><path d="M33.1,123.2c2.3-8.9.2.9-.6,4.9C32.2,126.4,32.9,124.8,33.1,123.2Z" style="fill:#4f291a"/><path d="M32,130.3c-.2,3.1-.6-1.2,0-2.3Z" style="fill:#4f291a"/><path d="M38.5,110c-.4,2.2-5.8,6.9-6.7,4.2,1-1.3,7.5-7.8,6.9-5.7C31.6,112.1,32,117.6,38.5,110Z" style="fill:#6e3d25"/><path d="M167.7,19c1-.4,2-1.5,3.4-.3Z" style="fill:#dba984"/><path d="M101,54.4l-2,6.3C99.2,57.9,99.5,56,101,54.4Z" style="fill:#ab714f"/><path d="M99.5,54.4c.3-2,.6-3.5,2-4.9A9.2,9.2,0,0,1,99.5,54.4Z" style="fill:#d59f74"/><path d="M106.8,51.8l-1.4,2.5A2.5,2.5,0,0,1,106.8,51.8Z" style="fill:#d59f74"/><path d="M161.5,133.2c-1.6-.5,4.4-24-2.3-2.7-4.2,6.6-.1-2.8-.2-6.1-1.9,2.3-.2,7.3-2.7,4.6-.6-5.2,1.2-7,.9-11.4,1.1,5.5,3.2.4.9-5.1-6.8-2.1-6.8-4.2,0-.7-.7-5.8-1.5-4.7,2.8,1.3C156,96.6,169.5,126,161.5,133.2Z" style="fill:#623a28"/><path d="M143.8,100.7c-8.3-2.7,8.1,7.7,1,3.9-4.9-1-3.4-2.7-14-6.7-3.9.4,3.8-2.3,1.9.2C140.9,96.6,136.3,98.6,143.8,100.7Z" style="fill:#7d4b2e"/><path d="M146.9,106.4c6.6,8-.3-3.2,4.3,4.7-.2-4.6,2.6,3.9-.1,3.5-.5-2.7-11.2-10.1-5.7-7.9C149.1,111.2,146,106.9,146.9,106.4Z" style="fill:#895131"/><path d="M151.9,114.9c-.6-10.1-.8-9,6.2-3.1C149.8,107.3,154.4,111.9,151.9,114.9Z" style="fill:#2c170f"/><path d="M164.5,117.2a11.2,11.2,0,0,1-3.1-8.7C162.3,111.1,165.6,114.9,164.5,117.2Z" style="fill:#281710"/><path d="M153.6,100a57.7,57.7,0,0,0,7.9,2.9C161.4,105.7,154.9,101.8,153.6,100Z" style="fill:#321b12"/><path d="M146.8,99.3c2.8,1.4,5.1,2.7,8,4.3C152.1,104.1,148.3,100.8,146.8,99.3Z" style="fill:#381d12"/><path d="M147.2,96.5c-2.4.5-5.1,1-7.4-.1C142.1,96.6,145.7,96,147.2,96.5Z" style="fill:#2d170e"/><path d="M143.4,101.6c-6.1-1.8,2.2-1,4,.5C146,102.5,144.7,101.9,143.4,101.6Z" style="fill:#341b10"/><path d="M133.3,51.6c-4.8-1-5.2-2-2.9,2.3C128,61.2,120,55.7,115.7,63c.4-4.8-1.2-8.1,3.9-11-2.4.5-2.8-3.3-5.3-.3-1.5-8.7,2.4.6,9.4-3.3C132.9,43.5,152,60.7,133.3,51.6Z" style="fill:#29120b"/><path d="M115.9,50.4c4,1.7,3.2,1.8-.1,5.3.6,6-1.2,9.7-1.7,16.3,11.6-25.7,28.2,10.3,22.6,8.5,3.5-15.7-22.6-22.7-22.7-4C107.3,66.7,117.5,53.5,115.9,50.4Z" style="fill:#522c1d"/><path d="M119,82.1c-2.9-3.6-2.2-10.5,2.9-6.2,2.3-1.1,3.3-4.8,6.3-2.2s0,12.1-1.1,6.6c-2.2-1.6-4.5,2.2-6.2-1.1C118.5,78.6,119,81,119,82.1Z" style="fill:#201616"/><path d="M127.3,82.6c2.3-.8,2.2-7.9,2.4-4.8.6,4.8,8.8-1.3,6.1-4.6C142.2,80.1,127.8,87,127.3,82.6Z" style="fill:#afa7a6"/><path d="M115.9,50.4c-6.2,10.9-5.7,23.6-.1,31.3C106.1,72.3,108.8,60,115.9,50.4Z" style="fill:#804d2f"/><path d="M127.3,82.6c-2.1,2.8-10.6.6-7.9-3.3C122,81,128.7,78.2,127.3,82.6Z" style="fill:#732c16"/><path d="M114.6,77.3c-6.8-6.5-4.4-21.1,3-25.2C108.2,60.3,112.8,74.3,114.6,77.3Z" style="fill:#794629"/><path d="M117.3,76.6c-.1,10.9-6.4-8.9,2.2-10.5C116.6,68.3,114.2,73.7,117.3,76.6Z" style="fill:#cfc3be"/><path d="M124,94.8c-2-.1-.3,2.1-1.6,3.1-2.1-.8-4.9,2.1-4.9,3.8-3.5,1.3-8,3.2-10,7.2-3.8.6,2.2-2.6-1-3.1-1.9,6.2-14.1,2.7-7-1.2C130.7,94,97.9,79.7,124,94.8Zm-3.5,0a1.9,1.9,0,0,0,1.2,2.2C122.1,95.8,122,94.8,120.5,94.8Z" style="fill:#dec0a3"/><path d="M106.1,81.7c9.8,8.6-2.4-2.9-7,1.8S85.4,81.7,83.8,90c-1-8.4,8.9-1.9,11.4-6.3C87.8,78.7,102.1,80.6,106.1,81.7Z" style="fill:#767476"/><path d="M83.8,90c1.6-8.3,10.7-1,15.3-6.5s13.3,3.1,12.3,6c-3.2-10-13.3-.6-22-2.9C85.3,83.7,83.9,94.3,83.8,90Z" style="fill:#5a5553"/><path d="M106.1,81.7c-18.9-5.6-6.9,5.1-15.2,3.7C73.4,87.5,97.9,75.6,106.1,81.7Z" style="fill:#938f8d"/><path d="M130.6,50.9c2.9,3.7,9.9,4.5,11.5,8.6-21.5-10.9,17.2,34.5-19,26.9,28.9,1.4,8.3-19.1,10.1-31.3C142.9,59.2,131,52.6,130.6,50.9Z" style="fill:#64351e"/><path d="M130.6,50.9c.4,1.7,12.3,8.3,2.6,4.2-3.9,4.8,3.4,9.4,4.4,15-2.9-2.9-4-7.4-8.1-9.6-5.8-6.6-16.3,6.6-13.3,2.2,3.1-7,19.9-2.5,11.9-12.3Z" style="fill:#60351f"/><path d="M116,67.5c1.2-9.5,13.1-10,16.7-2.2C126.9,62.2,121.1,59.2,116,67.5Z" style="fill:#986043"/><path d="M143.8,100.7c-6.4-3.4-5.7-2-10.7-3.6-2.5-1.1-6.1,3.4-6.4.4C130.2,91.6,149.3,100.7,143.8,100.7Z" style="fill:#97603d"/><path d="M147.2,96.5c-2.6-.7-6.7.7-9.9-1.1C139.8,95.2,148.1,95.6,147.2,96.5Z" style="fill:#97603d"/><path d="M97.6,108.2c3.5,4.7,7.6-3.4,10.3-1.5-2.8-.5-2.5,2.6-.4,2.2.5-4.1,6.4-3.3,6.8-6.9,4-.3,6.7-4.9,12.3-1.4C122.6,98.2,102.2,121.4,97.6,108.2Zm17.1-4.6c-.2,1.9,2.9.5,1.5-1C115.6,104,114,100.6,114.7,103.6Zm3.9-3.2c-1.1.1-.8,1.6.1,1.8S119.2,100.9,118.6,100.4Zm-6.6,5.7c-.9-1-1.7.7-.6,1.2S112,106.6,112,106.1Z" style="fill:#c4a286"/><path d="M127.1,98.9c5-3.8.6,4.1-.2,7.1,3.1-1.8,3.8,1.6.7,2.7-6.5,3.7-22.7,8.3-29.5,3.8,7,3.6,15.9-1.6,20.9-4.4C125.2,107.8,128.5,107.5,127.1,98.9Z" style="fill:#685346"/><path d="M127.1,99.6c2.3,9.9-8.9,2.3-13.9,8.4,2.7-3.7,8.7-4.8,10.6-7.9C124.9,100.4,126.8,103.1,127.1,99.6Z" style="fill:#99887f"/><path d="M133.3,51.6c1.7,1.3,4.6,1.7,5.8,3.5C138.7,55.1,132.2,52.3,133.3,51.6Z" style="fill:#b27446"/><path d="M141.4,42.7l2.7-2.4C143.8,41.4,142,45.3,141.4,42.7Z" style="fill:#c88859"/><path d="M84.2,86.4c-10.2,5.6,6.7,13.5,4.4,18-5.7,5.2-14.6-3.2-18.7,2.6-3.6,1.7-3.7-8.3-2-3.5,1.8-3.2,8.6-.8,7.7-3.1-1,0-1.6.3-.2-.7,1.8,2.1,3.5,6.5,7,3.6C90.6,101.9,72.2,89.1,84.2,86.4ZM83.6,105c1.3-2.1-1.9-1.9-1.1.1A.9.9,0,0,0,83.6,105Z" style="fill:#ead1b8"/><path d="M79.8,103.2c-1.3.1-1.6-1.1-.5-1.5S80.1,102.4,79.8,103.2Z" style="fill:#ab7f64"/><path d="M75.5,101.6c-1.6,1-1.1-2,.1-1.2C74.9,100.3,74.6,101.7,75.5,101.6Z" style="fill:#e8caae"/><path d="M50.7,89.9c-4.5-.3-4.5-.1-.2-1.1C50.4,89.2,50.2,89.6,50.7,89.9Z" style="fill:#dba67d"/><path d="M42.5,84.5l-2.8,1.7A2.6,2.6,0,0,1,42.5,84.5Z" style="fill:#dba67d"/><path d="M48.3,124.7c1.7-13-1.1-10.6,6-20.5-4.1,2.3-5.3,6.8-7.8,10.3-.5-5.7,2-8.9,9.4-12.7,14.9-1.1,2.4,2.3,7.2,7-4.7-4.5-7.1,8.3-6.8-1.4-4.4,7.7,5.9,10.1,8.3,20.5,7.8-.9-.9,2.6,3.8,4.9,6.6,10.8-8.9-10.6-10.4-16.1-.6,2.7,3.3,10.7.3,4.8-1.5-3.3-5.2-8.8-8.1-3.6C53.1,110.9,48.5,121.8,48.3,124.7Z" style="fill:#28120c"/><path d="M41.6,107.8c3.1-4-.1,4.1-2.2,5.7C38.2,112.3,41.2,109.5,41.6,107.8Z" style="fill:#25110a"/><path d="M45.8,107.8a5.4,5.4,0,0,1,1.6-2.7C47.3,106.4,47.1,107.4,45.8,107.8Z" style="fill:#462212"/><path d="M97.6,108.2c2,1.9-23.6,12.6-28.6,1.9,6,3.4,30.6,4.2,25.5-6.8,7.7,2.5,22.4-8.2,16.5-16C124.7,98.7,97.6,100.6,97.6,108.2Z" style="fill:#a37f62"/><path d="M67.3,106c43.6.4,7.1-5.2,15.6-17.8-4.7,7.3,6,11.9,10.2,16-.6,1.8-8.4,6.3-5.8,3.5.6,3.3,2-3.4-.6-1.3-2.4,3.9-7.3-.8-10.5,2.7C73.5,105,68.2,112.6,67.3,106Zm8.9.2c-.8.5,0,1.8.7,1.3S77,106.3,76.2,106.2Z" style="fill:#e8caae"/><path d="M82.9,88.2c-1.9,4.2,4.3,12.9,11.6,15.1,7.6,12.9-30.2,8.4-23.9,6.7,3.8-.4,8.2.6,10.3-1.8-1.1.2-1.4,4.1,1.1,2.4C109.7,106.9,77.9,100.9,82.9,88.2Z" style="fill:#d2af8e"/><path d="M80.9,108.2c-2.2,2.8-19.2,2.2-8.4-.3,6.7.4,29.7,1.1,15.3-7.7-3.4-2.5-8.4-7.7-4.9-12-6.6,9.6,15.4,12.7,10,19.2C88.2,109.3,78.9,113.3,80.9,108.2Z" style="fill:#d3b090"/><path d="M70,112.2c0,5.1,6.1,11.6,8.2,4.2,14.8.5,24.2-2.6,37,1.1,3.1,10.3,16.9-20.1,19.9-4.7-1.6,8.2-7.3,26.1-12.3,14.1-8.7,1.5-12.4,15.5-11.7-.3-3.8,8.3-14.5-1.7-14.3,8.6-1.1-4-13.3-12.3-14.8-7.4.3,5.9-3.7-1.4-7.5,1.5-2.7-3.6-6.3-1.1-9.9-1.4C55.4,112.1,49.2,103.7,70,112.2Z" style="fill:#010001"/><path d="M55.9,101.8c-1.2.3-2,1-3.4.9C53.8,101.8,59.2,100.3,55.9,101.8Z" style="fill:#b27348"/><path d="M69.5,75.2c-7.6,7,.9-8.4,6.5-2.9C73.8,73.5,68.5,70,69.5,75.2Z" style="fill:#6a5c5a"/><path d="M69.5,75.2c-1.5-2.4,3.2-4.8,3.6-1.8S70.9,76.4,69.5,75.2Z" style="fill:#aca9ab"/><path d="M162.2,131.9c2.5-4.5,1.7-10.6,2.2-14.7C167,119.2,166.2,126.6,162.2,131.9Z" style="fill:#765547"/><path d="M78.4,177.3c1.1-3.6,6.4-5.4,3.2-.1,5-3.4,1.2,2.2,3.9,2.2,8.7-3.2,21.1.4,30.1-2.7,11.3-4.1,7.4-7.2,16.6-16.5-9.7,5-12.3,8.9-3.3-1.2-11.7,7.8,2-6.3,3.2-11.7C110.9,190.2,76.1,157.2,78.4,177.3Z" style="fill:#100706"/><path d="M120.6,150.8c-6.8,15.3-27.5,19.3-40.5,8.5,10.3,11.9-12.1,4.1-11.9-5.1,2.7,7.4,15.9,13.8,8.9,1.6,16.8,11.3,43.1,5.3,48.5-18.3-14.9,11.7.8-2.2,5.4-8.9C130.3,135.7,121,143.1,120.6,150.8Z" style="fill:#4e2e1e"/><path d="M77.1,155.8c6.9,15.5-9.2,1.3-11.6-5.9,2.9,9.7-2.7,5.7-1.6-1.5,3.3-4.3,4.6,10.1,11.9,12.3,1.1-1.6.8-5-1.8-8.7-5.5-6.7-16.6-43.8-22.6-24.8,0-2.8,1.7-5,2.4-7.6-3.3-2-3.7,6.9-5.1,7.4,2.5-6.9,3.7-11.7-.4-2.3C52.8,97.6,68,143.4,77.1,155.8Z" style="fill:#55311e"/><path d="M74,152c2.6,3.7,2.9,7.1,1.8,8.7-7.3-2.2-8.6-16.6-11.9-12.3,1,6-2-1.1-1.8,1.8-3.1-3-2.2-10.2-.4-4.5C66.7,139.1,67,149.7,74,152Z" style="fill:#754123"/><path d="M59.7,143.3a31,31,0,0,0,6.9,15.4c-7-3-3.7-.2-11.1-7.2,6.5,11.3-4.5-3.5,0-1.9.6-6.3,2.8,1,6,3.3C61.1,150.5,57.3,136.7,59.7,143.3Z" style="fill:#502916"/><path d="M45.6,149c3.3,5,7.9,16.5,9.6,18.8.4-6.5-6.7-22.8-9.8-20-.5-1.6.1-3,0-4.5C43.8,144.7,44.1,152.6,45.6,149Zm7.5,9.8a7.8,7.8,0,0,1-3-4.1Z" style="fill:#502916"/><path d="M71.8,177.2c2.8,1.1,4.5-9,2.2-5C72.5,167.8,72.8,175.8,71.8,177.2Z" style="fill:#6a452f"/><path d="M69.5,176.3c2.4,1.4,2.2-3.2,1.8-5.2C67.7,171.1,68.5,173.6,69.5,176.3Z" style="fill:#6a452f"/><path d="M49.9,150.8c2.2-3.1,6,3.6,7.7,6.1C53.2,153.5,58.6,163.1,49.9,150.8Z" style="fill:#502916"/><path d="M52.8,149l-.9-2.6C53.5,147,52.5,148.1,52.8,149Z" style="fill:#502916"/><path d="M45.1,150.4c.6-3.7,2.9,3.9,1.8,1.6C50.5,158.7,48,155.1,45.1,150.4Z" style="fill:#713d20"/><path d="M46.5,114.5c9.3-14.3,4.4-8.4.4,6.1-2.2-5-2.3-.9-3.1,2.2C42.9,118.5,45.3,116.4,46.5,114.5Z" style="fill:#b27348"/><path d="M47.2,119.6c.6-4.2.6-4.6,4.1-6.2C47.6,117.5,47.4,129.4,47.2,119.6Z" style="fill:#5c311c"/><path d="M48.7,127c1.1,2.7-1.4,7.3.4,10.6C46.5,134.9,48.1,130.3,48.7,127Z" style="fill:#2c130a"/><path d="M45.6,121.1c-.6,1.7-1.5,3.3-1.6,5.2C43.1,125,45.4,117.8,45.6,121.1Z" style="fill:#b27348"/><path d="M51.4,127.2c1.1-4.5,3.7-5.3,1.2-.2,4.8-6.7,5.4.2,3.2,5.4,2.4-10.1,5.6-4.3,3.8,2.5,1.3-11.8,8.6,5,10,9.8-8.3-16.3-13.4-.5-12.3-13.5-.8,7.6-6,1.6-3.1-3.7C51.6,133,50.7,133.5,51.4,127.2Z" style="fill:#b17f5f"/><path d="M56.8,135.9c1.1.5,2.8,3.9,3.2.9,2.9-5.8,17.4,18.3,11.6,13.7C60.8,135.9,64,153,59,140.3,60.6,152.6,55.4,142.1,56.8,135.9Z" style="fill:#975a33"/><path d="M51.4,127.2c-.3,5.1,1.8,16.7-2.9,7.1C47.1,126.2,56.1,111.1,51.4,127.2Z" style="fill:#965a35"/><path d="M53.2,131.4c2.1,4.4,3.1,4.9,3.1,11.9C52.3,139.8,52.9,135.5,53.2,131.4Z" style="fill:#985930"/><path d="M53.2,131.4c-.8,3.5-1.4,7-.1,10.5C48.9,138.3,55.3,122.4,53.2,131.4Z" style="fill:#32160b"/><path d="M50.2,146.7c-1.5-2.8-1.2-5.7-.6-9.5C50.6,140.9,49.2,143.9,50.2,146.7Z" style="fill:#1d0c07"/><path d="M149.8,134.8c-1.9,2,1.3.8.2,2.9,5.1-7.7-.8,6.9-4.4,9.3,6.2-17.1-.2-9.5,2.3-14.1-3.4,11.5-6.9,14.1-5-.9-2.6,18.9-5.4,16-4.4-1.2,2.7,0,.9-4.3,2.9-7.6,2.4,6.7-.3,1.1,1.4-2.2-1.2-8.9,5.6-4.9,4.1-.2-4.9-9.6-.8,6.2-2.6,12C150.3,123.3,149.6,128.9,149.8,134.8Z" style="fill:#7a462a"/><path d="M117.9,142.4c-8.6,7.6,7-7.6,7-12.1,2.3,5.8,23.4-32.8-2.3-17,15.5-7.4,6.9-5.3,10.1-11.8,2.3,1,9.2-.8,4.4,1.5,2,.5,3.3,1,.1.9,3.4,1.3,8.6,0,3.8,2.4,1.9,1,.8,1.1-.8,1.6C139,125.5,131.4,122.7,117.9,142.4Z" style="fill:#140a08"/><path d="M146.7,116.7c-7.4-7.3-2.2,17.2-5.3,6.5-1.2,6.6-3.6,6.8-2.7,13.6-.7-.3-2.9-4.7-3,4.7,2.6-1.5-.1,1.4,1.4,2-11.1,16.8-1-14.8,4.6-29C142.5,110.9,146.1,114.5,146.7,116.7Z" style="fill:#562e1a"/><path d="M126.9,172.1c5.7-4.9,8.5-11.5,12.3-18.6C133.6,160.6,129.3,163.6,126.9,172.1Z" style="fill:#100706"/><path d="M146.7,116.7c-6.7-6.7-.8-10.8,2.3-2-.2,11,3.3,4.3-.5-2.5,8.2,6.9,1.7,9.5,1.4,19.4C149.1,126.7,148.7,121.8,146.7,116.7Z" style="fill:#895131"/><path d="M133.2,172.2c4.8.6.7-8.8,5.4-8.8-.7,2.4-1.9,4.7-1.2,7.9C145.1,154,137,159.9,133.2,172.2Z" style="fill:#110908"/><path d="M152.3,120.1c2-4.5-.8-8,1.6.9,3.1-11.3-.4.1,1.6-.7-4.2,6.4,2.2,3,0,10.6-2.3,9.6-1.5,1.9-2.1-3.3-.3-2.6-1.8-2.5-.4-.2C147.8,141.2,153.6,125,152.3,120.1Z" style="fill:#7a462a"/><path d="M152.5,114.7c-1.3,3.2-1.8-.9-6.3-4.7-2.4.3-8.7-.4-3.8-2.8-2.6-1.3-.4-2.1,1.3-1.9-1.5-.9-8.9-1.3-4.4-1.4-6.3-2.3,6.3-2.4-.3-1.6C147.8,104.7,142.2,108.1,152.5,114.7Z" style="fill:#492716"/><path d="M153,136.3c3.1-2,5-13.9-.1-11a16.5,16.5,0,0,0,3.4-11.3C156.3,127.8,160.9,134.6,153,136.3Z" style="fill:#4b2d1f"/><path d="M159.2,130.5c1.7-3.4,2.9-6.8,2.4-10.7C163.4,123.4,161.1,139,159.2,130.5Z" style="fill:#1d110e"/><path d="M137.1,143.5c-1.5-.6,1.2-3.5-1.4-2C135.6,130.5,140.8,136.2,137.1,143.5Z" style="fill:#7a462a"/><path d="M152.3,120.1c1.5,4.5-1.9,10.9-2.5,14.7C149.4,133.3,151.7,119.2,152.3,120.1Z" style="fill:#4b2d1f"/><path d="M159.9,140.3c-.7,1.9-.8,5.1-3.4,5.6C159,142.1,161,129.8,159.9,140.3Z" style="fill:#1d110e"/><path d="M120.6,150.8c.4-2.5,2.1-5.1,4-7.9C123.9,146.4,121.9,148.4,120.6,150.8Z" style="fill:#674b3b"/><path d="M152.1,138.8l2.9-2.9C154.3,136.6,151.5,140.5,152.1,138.8Z" style="fill:#7a462a"/><path d="M153,127.4c-.7-.5-.6-1.1-.4-2.5C152.8,126,153.8,127.8,153,127.4Z" style="fill:#4b2d1f"/><path d="M162.2,131.9c4.6-6.9,1.7,12.3-3.1,14.8C162.6,141.9,161.9,136.8,162.2,131.9Z" style="fill:#20120e"/><path d="M163.5,141c.6-.8.5-.6,1.1-.4C162.6,144.8,160.1,145.9,163.5,141Z" style="fill:#765547"/><path d="M38.5,110a14.7,14.7,0,0,1-6,4.7C32.4,112.9,39.5,106.5,38.5,110Z" style="fill:#24100a"/><path d="M157.2,117.6c-1.4-7.6-.1,1.8-2.6,4,2-14.2-1.2,7.7-1.9-10.3C160.5,108,159.9,126.5,157.2,117.6Z" style="fill:#895131"/><path d="M139.2,101.5c-16.5-2,1.7,8.1-15,9.8C137.2,108.9,120.7,93.5,139.2,101.5Z" style="fill:#4b2e1f"/><path d="M136.4,100.5c-13.9-5.8-.2,9.6-12.2,10.7.6-2.7,7.3-2.5,4.9-5.9C124,105.8,131.6,93.3,136.4,100.5Z" style="fill:#5a3a29"/><path d="M145.8,105.8c-1.1-.4-2.7-2.9-1-1.2S149.2,109.1,145.8,105.8Z" style="fill:#97603d"/><path d="M145.4,106.7a15.3,15.3,0,0,1,3.1,2.6C147.1,108.8,145.8,108.2,145.4,106.7Z" style="fill:#97603d"/><path d="M117.3,76.6c-9.2-17.6,25.9-10.8,11-2.8C125.2,69.3,117.8,71.1,117.3,76.6Z" style="fill:#fcfefd"/><path d="M128.3,73.8c6.3.2,3.4-5.9.1-8C141.6,69,132.9,89.2,128.3,73.8Z" style="fill:#dcdadb"/><path d="M124,73.7c-.3,2-3.1,3.2-4,.9S124,70.8,124,73.7Z" style="fill:#aeabac"/><path d="M124,73.7c-1.4-4.8-4,1.8-5.8.6C120.5,68.5,133.4,72.8,124,73.7Z" style="fill:#635452"/><path d="M120.5,94.8c1.5,0,1.6,1,1.2,2.2A1.9,1.9,0,0,1,120.5,94.8Z" style="fill:#beb5b1"/><path d="M106.5,108a.7.7,0,1,1,.3-1.4A1.1,1.1,0,0,1,106.5,108Z" style="fill:#79533e"/><path d="M90.7,101.3c-8.2-5-10.3-14.1-1.3-14.7,7.4,2.3,23.5-7.8,20.9,4.3-1.9-9.3-11.4-.9-16.9-.1C94.6,94.1,95.7,101.3,90.7,101.3Zm-3.8-6.2c14.4,2.7-1.8-15.2-1.8-1.1C86.8,101,97.8,98.8,86.9,95.1Z" style="fill:#312f2f"/><path d="M83.6,89.5c-1.1,1.4-.3,2.8.2,4C90.2,105.1,78.8,88.4,83.6,89.5Z" style="fill:#976b4c"/><path d="M90.7,101.3c5,0,3.9-7.2,2.7-10.5,6-1.2,15.7-9.3,17.2,1C116.2,90,99.1,111.5,90.7,101.3Z" style="fill:#110c0b"/><path d="M103.6,101.6c4.1-2.9,9.7-7.3,7.8-13C115.4,93.3,108.3,99.3,103.6,101.6Z" style="fill:#312f2f"/><path d="M124.2,111.2c-5.1,2.8-6.1,13.6-9,6.3-11.6-4.2-35.3-.5-39.9,1.3-10.9-13.9,18.5,4.9,21.9-12.1C96.6,121.1,116.1,111.4,124.2,111.2Z" style="fill:#5a3a29"/><path d="M98.1,112.5c4.8.3,16.1-4.7,23.4-8.2,2.5-.3,3.8,3.5,5.6-.1-.5,6.6-5.3,1.9-8.1,3.9C114,110.9,105.1,116.1,98.1,112.5Zm24.7-7.4c-1.1,0-1.1.7-1.3,1.5C123,107.3,123.4,106.4,122.8,105.1Zm-5.9,3.3c.9-.1,1.3-.8,1.7-1.4S116.4,107.2,116.9,108.4Z" style="fill:#99775c"/><path d="M115.4,103.3c1.3-1.4,1.5.8.3,1.3S114.1,103.6,115.4,103.3Z" style="fill:#dec0a3"/><path d="M118.6,100.4c.6.5.4,1.1.1,1.8S117.5,100.5,118.6,100.4Z" style="fill:#705241"/><path d="M112,106.1c0,.5,0,1-.6,1.2S111.1,105.1,112,106.1Z" style="fill:#412519"/><path d="M115.4,103.3c-1,.8-1.6-.9-.2-1.1Z" style="fill:#523022"/><path d="M84,104.1c-.2.8-.6.9-1.4.6S83.4,103.3,84,104.1Z" style="fill:#82533a"/><path d="M84,104.1c-1.1-1.2-2.2,1-.4.9C81.1,106.5,83.1,101.6,84,104.1Z" style="fill:#e8caae"/><path d="M75.5,101.6c-.9.1-.6-1.3.1-1.2S75.7,101.3,75.5,101.6Z" style="fill:#87533a"/><path d="M68.4,128.1c2.2-2.3,7.8,3.3,9.8,5.1C73.2,142.9,69.5,135.9,68.4,128.1Zm8.4,5.8c-1.9-3.7-6.5-3.8-4.9,1S75.2,135.8,76.8,133.9Z" style="fill:#af8974"/><path d="M71.4,137.2c17.3,17.2-.2,4.8-7.6-7.2-1.9-4.5-4.5-5.4-4.9-10C62.9,125.8,65,133.3,71.4,137.2Z" style="fill:#8b5739"/><path d="M70.8,136.8C63.8,130.3,59,122,58,116.7,61.6,123.9,65.2,130.9,70.8,136.8Z" style="fill:#55311e"/><path d="M68.4,128.5c.1,1.7.3,5.6,2.5,5.1C71,138.6,66.7,130.7,68.4,128.5Z" style="fill:#8b5739"/><path d="M68,129.7c.2,1.1.3,2.1.4,3.1C67.1,131.7,64.9,129.5,68,129.7Z" style="fill:#55311e"/><path d="M70.6,112.5c1.5,1,6.1,6.1,2.4,6.4C71.5,117.5,69.4,113.8,70.6,112.5Z" style="fill:#d3c7bc"/><path d="M87.1,107.6c-.3-.1-.8.1-.6-.5C86.9,104.8,89,107.5,87.1,107.6Z" style="fill:#7e533e"/><path d="M76.2,106.2c.8.1.9.6.7,1.3S75.4,106.7,76.2,106.2Z" style="fill:#946649"/><path d="M87.3,107.7c.4-.4.8-.5,1.2,0S86.9,108.9,87.3,107.7Z" style="fill:#ead1b8"/><path d="M88,106.9c-.5-.7-1.2-1.2-1.5.2C86.3,105.8,88.7,105.6,88,106.9Z" style="fill:#d2af8e"/><path d="M80.9,108.2c1,.6.6,1.5-.5,1.2S80.1,108.2,80.9,108.2Z" style="fill:#734932"/><path d="M125,128.8c-1.2,2.7-7.9,16-10.2,14,3.7-.6,4.4-8.9-.4-7.7s-11.9,20.4-.7,11.5c-4,5.1-19.7,8.6-22.7,1.9,15.2,6.7,29.4-22.1,5.9-13.7.1-9.8,10.4,0,14.2-8.2,1.7,2.7-2.5,10.1,2.1,7.3C112.6,131.3,125.1,124.1,125,128.8Zm-8.5,5.3c2.1,5.7,7.4-.3,3.4-3.2C118.1,131.2,117.6,132.9,116.5,134.1Z" style="fill:#462c24"/><path d="M82,127.8c1.6-4.9,17.8,4.4,14.4,10.4C94.9,131.1,87.1,131,82,127.8Z" style="fill:#462c24"/><path d="M82,127.8c6.4,3,16.2,6.2,14.6,12.3C94.5,131.9,80.6,134.2,82,127.8Z" style="fill:#753f25"/><path d="M96.9,137c-1.5-5.4,15.7-5.6,11.4.9C107.6,134.1,99.7,134.7,96.9,137Z" style="fill:#885033"/><path d="M82,130.6c1.3,10.5-2.8-2.2-8-.3-1.9.4-1.5-3.2-3.8-3.1C74.4,128.7,77.9,128.4,82,130.6Z" style="fill:#452e23"/><path d="M119.1,119.6c-2-2.3.5-3.4,1.4-4.8C124.3,110.8,121.6,118.5,119.1,119.6Z" style="fill:#757579"/><path d="M73,118.9c1.6.1,1.7-.7,1.1-1.9C69.8,108.6,80.3,122.4,73,118.9Z" style="fill:#a39180"/><path d="M115,145.5c18.2-2.1-19.5,21.3-28.3,14.7-9.4-.5-18.3-12.9-4.2-3.2,12.6,2.7,25.8,2.8,35.4-10.2C111.8,148,114.5,150.7,115,145.5Z" style="fill:#996f50"/><path d="M97.2,160.4c25.6-4.6,17.2-15.1,28.4-22.9C122.8,150.7,109,163.4,97.2,160.4Z" style="fill:#674b3b"/><path d="M97.2,156.8c-16.4,8.4-26.3-10.4-32.6-24C71.8,147.5,84.5,160.7,97.2,156.8Z" style="fill:#c79871"/><path d="M62.3,130.3c-5.2,2.3-.5,6.4-2.6-2.6-1.5-1.6-2.2-.8-3.9,4.7,2.2-5.2,1.6-12.1-3.2-5.4C53.8,115.5,58.9,122.7,62.3,130.3Z" style="fill:#895a3c"/><path d="M60.3,124.5c4.1,6.1,11.9,18.7,21.2,23.2C71.6,145.4,64.7,132.9,60.3,124.5Z" style="fill:#c79871"/><path d="M64.1,131.9c2,.9,3.9,5.5,5.9,7.6C67.6,137.6,65.9,134.5,64.1,131.9Z" style="fill:#d6af8a"/><path d="M53.1,158.8a7.8,7.8,0,0,1-3-4.1Z" style="fill:#2a140c"/><path d="M145.4,129.6c-1.3-6.5-2.5-7.5-.3-13.3,1.2,4.3,2.8,1,3,9.3-1.1,3.1-2.3-4.4-2.9-5.8C145.5,123.2,147.2,126.3,145.4,129.6Z" style="fill:#895131"/><path d="M146.5,124.1a7.9,7.9,0,0,1-2.2,8.7A30.1,30.1,0,0,0,146.5,124.1Z" style="fill:#26140d"/><path d="M146.7,128.5c1.6-2.8,1.7-5.7.5-9.3S150.8,129,146.7,128.5Z" style="fill:#562e1a"/><path d="M118,140.2c2.3-3.9,4.4-6.3,6.9-9.9C124.1,134.2,121.1,137.8,118,140.2Z" style="fill:#301d16"/><path d="M115,145.5c1,2.1-2,3.5-3.6,3.8C113,148.4,113.4,146.3,115,145.5Z" style="fill:#674b3b"/><path d="M114.8,143.2c.8,1.1-.4,2.7-1.8,2.5S114.1,144,114.8,143.2Z" style="fill:#674b3b"/><path d="M137.3,101.8c-.8-.6-1.8-.4-2.6-.7C135.7,100.5,139.8,101.8,137.3,101.8Z" style="fill:#7d4b2e"/><path d="M113,145.7c-.3.7-.1.4,0,0C115.6,144.7,113.9,147.2,113,145.7Z" style="fill:#301d16"/><path d="M149,114.7c2.2,2.1,1.9,4.7.4,7.5C149.2,119.5,149.1,117.1,149,114.7Z" style="fill:#27150e"/><path d="M151.5,124.8c-.2.8.4,3-.8,2.6S150.2,124.3,151.5,124.8Z" style="fill:#7a462a"/><path d="M85.1,94c-.4-7.6,7.3-6.6,8.1.3A7.4,7.4,0,0,1,85.1,94Z" style="fill:#030303"/><path d="M85.1,94c2.5,1.2,4.5,3.8,7.6,3C91.5,100.8,85,97.1,85.1,94Z" style="fill:#787471"/><path d="M122.8,105.1c.6,1.3.2,2.2-1.3,1.5C121.7,105.8,121.7,105.1,122.8,105.1Z" style="fill:#685346"/><path d="M116.9,108.4c-.5-1.2.7-2.2,1.7-1.4S117.8,108.3,116.9,108.4Z" style="fill:#685346"/><path d="M74,130.3c7.3-1.1,6.2,10.1,9.5,0,7,3.7,21,12.6,10.2,17.8-13.9-5.2-3.2.7-10.7.9,6.9-3.3-1.1-14.7-5.3-14.4C78.6,132.6,76.8,130.5,74,130.3Zm10,3.3c-3.3,10.9,19,20,9.7,5.7C90.6,137.4,86.1,137.8,84,133.6Z" style="fill:#aa6d4b"/><path d="M77.7,134.6c2-.6,7.7,3.4,3.2,4.7,2.6-.8,4.9,1.7,2.7,2.4-1.3-3.5-4.7-1.6-5.4,1.2,1.4,1.6,6,2.5,1.4,3.2-4.1-2.4-8.4-13-1.5-5.9C83.4,139.5,74.1,135.4,77.7,134.6Z" style="fill:#caa791"/><path d="M76.8,133.9c-1.6,1.9-4.1,5.2-4.9,1S74.9,130.2,76.8,133.9Z" style="fill:#caa791"/><path d="M76.4,135.4c1.6.9,5.3,4.7,1.7,4.8C76.5,139.7,73.9,136.4,76.4,135.4Z" style="fill:#e6d3c8"/><path d="M81.3,146.1c1.3-2.9-2.1-.9-3.1-3.2C83.9,131,88,153.6,81.3,146.1Z" style="fill:#e7d6c9"/><path d="M81.3,146.1c.2,1.4-.8.3-1.7,0Z" style="fill:#c79871"/><path d="M111.4,149.3c17.3-7.1-12.3,14.9-14.2,7.4,4.6,1.2,23.9-8.8,14.7-6.8-4.6,2.7-9.8,2.9-14.7,2.7.2,5-7.4,5.5-13.3,3.6-8-.3-16.7-22-10.1-9.8,4.4,15,38.6,10.4,11.7,3.5C93.5,150.6,102.9,154.9,111.4,149.3Zm-21.2,1.4a2.1,2.1,0,0,0-2.7-.6A3.7,3.7,0,0,0,90.2,150.7Z" style="fill:#cea57f"/><path d="M96.9,137c17.2-9.5,9.9,15.6.2,10.7,4,.9,11.6-5.3,9.4-9.4S95.5,141.9,96.9,137Z" style="fill:#aa6d4b"/><path d="M97.1,147.7c-14.2,3.3,4.7,6.1,11.4,2.3-3.7,3.9-27,3.3-22.8-6C88,148.6,94.2,147.6,97.1,147.7Z" style="fill:#80523c"/><path d="M116.5,134.1c1.1-1.2,1.6-2.9,3.4-3.2C123.9,133.8,118.6,139.8,116.5,134.1Z" style="fill:#5b4a47"/><path d="M97.2,148.8c6.7,0,11.6-7.7,11.6-14.5C111.8,141.3,103.6,150.2,97.2,148.8Z" style="fill:#775144"/><path d="M113,145.7c-8.5,8.1-3.4-11.5-4.1.4C112.3,143.9,112.9,137.6,113,145.7Z" style="fill:#a29e9e"/><path d="M109.7,140.8c1.4-1.4,2.2-3.4,4.7-5.7C119.2,133.7,112,141.6,109.7,140.8Z" style="fill:#5b4a47"/><path d="M113.1,139.7c.6-1.5,2.6-4.8,4.2-3.4C117,138.3,115.3,142.7,113.1,139.7Z" style="fill:#82736f"/><path d="M109.7,140.8c4-.2.6,5-.8,5.3A5.5,5.5,0,0,1,109.7,140.8Z" style="fill:#e4dfd9"/><path d="M108.1,145.3c-.6,4.7,1.8.8,4.5,1.6C110.9,151,106.1,149.2,108.1,145.3Z" style="fill:#674b3b"/><path d="M111.9,141.9c-3.1-4.2,6.4.7,1.1,2.9C111.8,143.2,115,139.8,111.9,141.9Z" style="fill:#82736f"/><path d="M115.2,140.8a9.4,9.4,0,0,0,2.1-4.5C119,138.1,117.1,143,115.2,140.8Z" style="fill:#5b4a47"/><path d="M115.2,140.8c1.7.8,1.2,1.8-.4,2C113.2,140.6,111.9,139.5,115.2,140.8Z" style="fill:#674b3b"/><path d="M71.5,142.1c-4.3-3.6,15.3,14,24,11.6C85.7,159.2,76.9,149.6,71.5,142.1Z" style="fill:#efd9c6"/><path d="M97.2,154.9c.8-4.3,12-.8,16.4-5.3C110,153.3,100.7,156.8,97.2,154.9Z" style="fill:#e3c5a7"/><path d="M97.2,155.8c24.4-6.1,9.5-2.5,1.6-3.2C128,145.3,109.1,156.4,97.2,155.8Z" style="fill:#d6af8a"/><path d="M71.5,142.1c5.4,7.5,14.2,17.1,24,11.6C84.3,155.4,60.7,134,80,147.8c3,1.2,6-1.8,5.1-5.2,1.4,3.1.6,5.7-2.1,6.4,4,2.9,9.9,2.3,13.4,4.5C90.6,162.8,74,151.6,71.5,142.1Z" style="fill:#d6af8a"/><path d="M146.5,124.1c-.4,1.7-1.2-3.2-1.3-4.3C145.7,121.3,146.1,122.7,146.5,124.1Z" style="fill:#7a462a"/><path d="M84,133.6c2.1,4.2,6.6,3.8,9.7,5.7C103,153.6,80.7,144.5,84,133.6Zm4.9,11.1c.4-.8-3-7.3-4.1-8.2C85.9,139.6,86.5,142.5,88.9,144.7Z" style="fill:#cd977a"/><path d="M97.1,147.7c13.1-3.2-1.1-13.1-.1-1.1C95,126.4,119.1,144.1,97.1,147.7Z" style="fill:#ca9a7d"/><path d="M97,146.6c-1.6-4.8,3.6-7.8,6.2-3.8C103.3,144.6,98.2,148.4,97,146.6Z" style="fill:#debda9"/><path d="M90.2,150.7a3.7,3.7,0,0,1-2.7-.6A2.1,2.1,0,0,1,90.2,150.7Z" style="fill:#d6af8a"/><path d="M88.9,144.7c-2.4-2.2-3-5.1-4.1-8.2C85.9,137.4,89.3,143.9,88.9,144.7Z" style="fill:#e3c5b5"/></svg>