<svg version="1.1" id="Layer_1" xmlns="http://www.w3.org/2000/svg" xmlns:xlink="http://www.w3.org/1999/xlink" x="0px" y="0px"
	 width="100%" viewBox="0 0 200 200" enable-background="new 0 0 200 200" xml:space="preserve">
<path fill="#010101" opacity="1.000000" stroke="none" 
	d="
M1.000000,186.000000 
	C1.000000,129.645767 1.000000,73.291542 1.308202,16.333254 
	C6.575005,11.813330 11.406194,7.717793 16.553337,4.067807 
	C18.687515,2.554401 21.497402,1.993867 24.000000,1.000000 
	C24.750000,1.000000 25.500000,1.000000 26.829092,1.384097 
	C27.898186,1.843791 28.388170,1.985488 28.878189,1.985595 
	C76.085960,1.995902 123.293732,2.002587 170.501450,1.954023 
	C171.667953,1.952823 172.833832,1.331891 174.000000,1.000000 
	C174.444443,1.000000 174.888901,1.000000 175.797668,1.365315 
	C186.866348,2.999627 195.221436,7.912694 201.000000,17.000000 
	C201.000000,73.020897 201.000000,129.041794 200.729141,185.725861 
	C195.446762,194.404083 187.455460,198.042877 179.000000,201.000000 
	C178.555557,201.000000 178.111099,201.000000 177.050903,200.689377 
	C175.623093,200.252014 174.811096,200.014633 173.999008,200.014359 
	C126.061188,199.997833 78.123367,199.992462 30.185598,200.043900 
	C28.790058,200.045395 27.395184,200.667343 26.000000,201.000000 
	C24.933331,201.000000 23.866661,201.000000 22.242022,200.678589 
	C13.063892,198.057312 5.987754,193.532990 1.000000,186.000000 
M163.386093,42.120464 
	C139.133621,18.701447 110.383087,11.072786 78.290871,20.547398 
	C32.366608,34.105656 7.663682,82.980072 23.054836,128.341660 
	C38.164577,172.873856 85.343178,196.247726 129.710358,181.256607 
	C188.996063,161.224701 206.635452,88.381134 163.386093,42.120464 
z"/>
<path fill="#0B1321" opacity="1.000000" stroke="none" 
	d="
M26.468657,201.000000 
	C27.395184,200.667343 28.790058,200.045395 30.185598,200.043900 
	C78.123367,199.992462 126.061188,199.997833 173.999008,200.014359 
	C174.811096,200.014633 175.623093,200.252014 176.717560,200.689377 
	C126.979103,201.000000 76.958206,201.000000 26.468657,201.000000 
z"/>
<path fill="#F5F6F8" opacity="1.000000" stroke="none" 
	d="
M201.000000,16.528801 
	C195.221436,7.912694 186.866348,2.999627 176.130997,1.365315 
	C184.242310,1.000000 192.484604,1.000000 201.000000,1.000000 
	C201.000000,6.015935 201.000000,11.036770 201.000000,16.528801 
z"/>
<path fill="#75859F" opacity="1.000000" stroke="none" 
	d="
M173.531342,1.000000 
	C172.833832,1.331891 171.667953,1.952823 170.501450,1.954023 
	C123.293732,2.002587 76.085960,1.995902 28.878189,1.985595 
	C28.388170,1.985488 27.898186,1.843791 27.204092,1.384097 
	C75.687561,1.000000 124.375122,1.000000 173.531342,1.000000 
z"/>
<path fill="#F5F6F8" opacity="1.000000" stroke="none" 
	d="
M23.531263,1.000000 
	C21.497402,1.993867 18.687515,2.554401 16.553337,4.067807 
	C11.406194,7.717793 6.575005,11.813330 1.308202,15.864597 
	C1.000000,11.058330 1.000000,6.116659 1.000000,1.000000 
	C8.353493,1.000000 15.708010,1.000000 23.531263,1.000000 
z"/>
<path fill="#F3F4F6" opacity="1.000000" stroke="none" 
	d="
M179.468781,201.000000 
	C187.455460,198.042877 195.446762,194.404083 200.729141,186.194519 
	C201.000000,190.940063 201.000000,195.880112 201.000000,201.000000 
	C193.979935,201.000000 186.958740,201.000000 179.468781,201.000000 
z"/>
<path fill="#F4F5F7" opacity="1.000000" stroke="none" 
	d="
M1.000000,186.472656 
	C5.987754,193.532990 13.063892,198.057312 21.842026,200.678589 
	C15.087809,201.000000 8.175616,201.000000 1.000000,201.000000 
	C1.000000,196.318359 1.000000,191.631836 1.000000,186.472656 
z"/>
<path fill="#60D6B4" opacity="1.000000" stroke="none" 
	d="
M163.637207,42.368481 
	C206.635452,88.381134 188.996063,161.224701 129.710358,181.256607 
	C85.343178,196.247726 38.164577,172.873856 23.054836,128.341660 
	C7.663682,82.980072 32.366608,34.105656 78.290871,20.547398 
	C110.383087,11.072786 139.133621,18.701447 163.637207,42.368481 
M52.183071,147.685776 
	C52.521442,148.121857 52.859810,148.557953 53.418560,149.604797 
	C56.167828,152.458191 58.917095,155.311600 62.026718,158.749435 
	C86.297691,180.716370 122.272125,182.107269 147.969772,161.965500 
	C149.331314,160.898315 150.018204,158.970398 151.297943,156.950699 
	C152.515823,155.771271 153.733719,154.591843 155.697678,153.237396 
	C157.981689,151.027115 160.773315,149.148468 162.468582,146.553543 
	C174.878189,127.558327 178.775284,107.283371 170.405075,85.199326 
	C170.442352,84.494301 170.479614,83.789284 170.264618,82.349991 
	C161.969437,61.854362 147.503830,47.967991 126.371628,41.075737 
	C123.737488,40.216614 121.024864,38.858021 119.037094,36.995911 
	C117.500488,35.556435 117.079735,32.948223 116.089600,30.894953 
	C115.446045,29.560392 114.911781,27.987440 113.840675,27.132597 
	C113.387634,26.771025 110.840416,27.831526 110.721695,28.505682 
	C110.482063,29.866541 110.935555,31.597137 111.679543,32.826401 
	C112.841858,34.746883 114.483109,36.377502 116.132599,38.388344 
	C107.087051,38.711632 104.225174,36.978848 101.483055,29.891136 
	C98.903244,23.222944 92.124390,19.305552 85.199394,20.587362 
	C85.131416,30.976997 91.418304,35.775730 100.877296,37.994293 
	C97.576385,38.963573 94.564438,39.624115 91.516739,39.965458 
	C89.896019,40.146980 88.208794,39.819294 86.559471,39.646336 
	C78.830246,38.835789 72.477806,43.274872 70.304077,51.034615 
	C77.544243,54.442451 84.718697,53.044003 88.998886,46.298206 
	C92.219910,41.221710 96.100700,41.653393 99.739487,42.277454 
	C97.204048,47.747025 93.524673,52.858498 92.595879,58.428616 
	C91.520576,64.877335 88.791969,69.383232 84.148354,73.558075 
	C78.884056,78.290947 79.087135,78.767265 83.618172,83.863274 
	C80.776459,88.013992 81.022675,93.928192 83.718292,98.410789 
	C84.489182,99.692719 84.385178,101.791550 84.060524,103.389473 
	C82.866867,109.264587 84.653740,112.395676 90.607521,113.434227 
	C93.175293,113.882141 95.909523,113.727425 98.529366,113.462730 
	C108.519218,112.453453 114.884079,116.966263 116.964470,126.727150 
	C120.633781,143.943024 105.969536,161.800232 87.936821,162.075256 
	C78.192337,162.223877 72.193954,158.790222 69.443535,150.796539 
	C66.349236,141.803421 68.324638,133.279144 73.517792,125.654037 
	C77.035622,120.488831 83.748375,118.720718 89.059601,120.994202 
	C92.250092,122.359917 95.797966,123.728058 93.120911,128.625793 
	C92.594070,129.589661 93.479111,131.947784 94.455887,132.904160 
	C95.172821,133.606125 97.598000,133.627747 98.370842,132.944580 
	C99.385101,132.048004 100.409889,129.537476 99.892677,128.801437 
	C96.820694,124.429726 94.478607,119.213249 88.376160,117.867165 
	C79.071327,115.814705 70.231277,121.276802 67.367165,132.442017 
	C65.708015,138.909897 66.074974,145.897522 65.571060,152.143829 
	C61.155098,148.571960 58.306156,138.355392 60.806644,130.411880 
	C62.168095,126.086830 63.772671,120.849617 67.043892,118.329536 
	C73.021561,113.724449 73.622780,114.114395 68.294815,108.692429 
	C74.890404,102.757957 76.724854,96.986862 74.128632,89.945129 
	C67.224525,91.348434 63.152893,95.429237 61.526917,102.340591 
	C60.437241,106.972359 58.987728,111.543228 57.370060,116.022469 
	C52.854137,128.526840 53.013897,140.459793 61.089092,151.622879 
	C61.476353,152.158218 61.531715,152.933670 61.741638,153.597305 
	C61.432735,153.803970 61.123837,154.010620 60.814934,154.217285 
	C58.913284,152.074753 57.011635,149.932220 54.966526,147.234680 
	C54.465195,146.666138 53.963867,146.097595 53.151531,144.920395 
	C48.755653,138.338608 44.881779,131.371887 45.318947,123.261856 
	C45.743713,115.381905 45.691193,107.014374 53.542088,101.699448 
	C54.451912,101.083504 54.981110,98.319839 54.382225,97.446396 
	C53.561123,96.248871 51.223217,95.055878 50.032471,95.432533 
	C48.790726,95.825317 47.827015,97.982452 47.313389,99.554924 
	C46.743671,101.299110 47.136326,103.361351 46.549583,105.095505 
	C45.370613,108.580063 43.810970,111.935814 41.916424,116.540543 
	C41.916424,110.814407 41.306377,106.248512 42.075108,101.927948 
	C42.979839,96.843010 44.859684,91.880623 46.826820,87.073853 
	C47.281029,85.963974 49.859875,85.045380 51.372543,85.164299 
	C57.919697,85.679008 62.855675,83.105553 66.728546,78.117859 
	C66.728546,78.117859 66.840828,78.147301 67.408272,77.481590 
	C68.099823,75.923157 68.791374,74.364716 69.542526,72.671974 
	C61.323559,69.386131 55.444714,72.273872 49.957561,78.337990 
	C49.683052,76.913567 49.091976,75.625626 49.428261,75.302345 
	C51.591137,73.223091 53.663673,70.639755 56.312027,69.553497 
	C63.855289,66.459518 67.989052,60.086136 66.528191,52.535870 
	C57.095219,53.231087 52.346634,57.644348 50.110081,66.894394 
	C49.240711,70.489952 47.228374,73.809151 45.736687,77.254242 
	C45.293884,77.062515 44.851082,76.870781 44.408279,76.679054 
	C46.800415,65.757568 45.159870,60.082226 38.597370,56.576653 
	C32.684975,63.956455 32.768478,71.291550 38.778603,78.164383 
	C39.614719,79.120522 40.834072,80.302643 40.810879,81.356712 
	C40.675278,87.518524 40.222462,93.673363 39.806248,101.085526 
	C35.830353,95.983185 33.070332,92.080360 29.881117,88.567154 
	C28.917780,87.505951 26.577463,86.874031 25.217381,87.264084 
	C24.204533,87.554573 22.905737,90.114716 23.265390,91.111710 
	C23.733356,92.408951 26.004320,94.228127 26.999826,93.961021 
	C31.453543,92.766029 33.273582,95.494652 34.503799,98.621033 
	C36.313080,103.218987 38.168118,107.924217 39.001133,112.756569 
	C41.134972,125.135017 43.779320,137.206543 52.183071,147.685776 
z"/>
<path fill="#F8D2A9" opacity="1.000000" stroke="none" 
	d="
M154.951599,153.412415 
	C153.733719,154.591843 152.515823,155.771271 150.790710,157.286713 
	C149.298477,158.193588 148.222687,158.650742 147.342529,159.353043 
	C138.997940,166.011444 129.560181,170.264145 119.132942,172.447617 
	C112.115822,173.916992 97.598732,174.455368 92.743439,171.277847 
	C105.486603,169.261734 116.264343,163.999832 124.432198,153.584229 
	C128.314133,148.634018 130.487350,142.018158 137.063980,139.403961 
	C137.269653,139.322205 137.167664,138.466461 137.531677,138.061523 
	C138.558197,137.504120 139.262146,136.856720 140.289841,136.010284 
	C143.171066,131.485992 143.824142,126.966393 142.305084,122.142281 
	C134.340256,123.515633 129.546234,127.787102 129.481186,135.708420 
	C129.429749,141.970444 126.586594,146.371368 123.317551,150.882248 
	C112.681595,165.558609 95.190880,171.461700 79.097122,165.706665 
	C79.455070,165.016006 79.732727,164.574020 80.421608,164.128845 
	C99.623055,167.467697 117.388725,154.876526 119.842102,135.898499 
	C121.475548,123.262947 116.187386,108.931465 97.271568,110.954956 
	C94.978638,111.200233 92.582077,111.156799 90.312279,110.776840 
	C87.007896,110.223701 85.704918,108.226341 86.172287,104.664551 
	C86.604408,101.371284 86.264336,97.976692 86.264336,94.626732 
	C85.770012,94.607033 85.275688,94.587341 84.781357,94.567650 
	C85.941818,93.808029 87.102287,93.048401 88.679512,92.015968 
	C86.761055,90.724350 85.317062,89.752167 83.342232,88.422585 
	C87.665657,85.045250 87.088181,81.873825 82.740112,79.084496 
	C84.147369,77.403313 85.075020,75.722191 86.484016,74.713364 
	C91.898438,70.836693 93.727539,65.425148 94.948593,59.083755 
	C97.610741,45.258183 106.718109,39.312847 120.513527,42.268291 
	C132.783417,44.896908 144.005325,50.328476 152.322906,59.846077 
	C158.042694,66.391098 162.262360,74.240372 167.254288,81.436104 
	C167.931961,82.412949 167.672012,86.106972 170.516891,83.084259 
	C170.479614,83.789284 170.442352,84.494301 170.241516,85.055565 
	C169.991669,86.330261 169.713745,87.768066 169.854614,89.163589 
	C170.298050,93.556091 170.898758,97.932716 171.438568,102.315483 
	C170.988098,102.387260 170.537628,102.459038 170.087143,102.530815 
	C169.765976,101.476494 169.392044,100.435028 169.131516,99.365929 
	C165.181259,83.154961 156.248550,70.542366 141.905396,61.921982 
	C135.676514,58.178360 129.340408,54.608162 122.986160,51.079586 
	C117.352310,47.951057 109.687103,49.687160 105.142868,54.953217 
	C110.949326,61.142609 117.017807,63.232658 123.283051,59.701462 
	C129.004440,56.476795 132.233093,60.133205 136.927109,61.961472 
	C132.483154,62.993786 128.884979,63.829628 125.286789,64.665474 
	C125.416977,65.279976 125.547165,65.894485 125.677353,66.508987 
	C126.396225,66.399529 127.141579,66.377090 127.830002,66.167564 
	C138.425034,62.943016 146.754135,66.669670 153.576035,74.688225 
	C170.340134,94.392967 172.246338,116.174866 162.236984,139.434479 
	C160.165787,144.247528 157.398224,148.760925 154.951599,153.412415 
M132.993912,164.155960 
	C134.041229,164.200668 135.088547,164.245377 136.794205,164.159393 
	C137.248535,163.455093 137.702881,162.750778 138.532562,161.440903 
	C140.316605,158.501312 142.100647,155.561707 144.156158,152.174820 
	C139.622894,154.377274 135.854614,155.811157 132.545517,157.954086 
	C130.307144,159.403641 130.185715,161.825195 132.597763,163.708878 
	C132.597763,163.708878 132.620987,163.728531 132.993912,164.155960 
M121.024712,70.968002 
	C121.308487,69.934937 121.592270,68.901878 122.047714,67.243866 
	C118.575264,68.325523 114.145325,66.152740 113.580887,71.291832 
	C113.466003,72.337799 116.445137,73.723587 118.644150,74.934616 
	C119.370773,73.954048 120.097404,72.973480 121.024712,70.968002 
M153.476547,133.104736 
	C153.300797,133.141861 153.125046,133.179001 152.308319,132.741119 
	C153.498871,124.013153 153.755585,115.357094 151.032501,106.790100 
	C150.461960,104.995094 150.624496,102.898552 150.754333,100.961411 
	C151.287262,93.009575 146.225464,86.416016 138.577469,85.574257 
	C137.131958,91.882935 136.938644,98.379379 142.892685,102.125717 
	C149.651718,106.378578 150.542969,112.676979 150.632690,119.238754 
	C150.713379,125.140381 149.520844,131.059418 148.465042,137.359680 
	C148.332199,137.907104 148.199341,138.454514 147.696335,139.622635 
	C145.837158,143.963791 143.977982,148.304962 141.730698,153.552338 
	C146.811325,151.322540 156.868912,136.452805 156.356384,133.122620 
	C156.330902,132.957016 154.819519,133.020111 153.476547,133.104736 
M157.099899,98.302811 
	C157.902985,101.819763 158.706085,105.336716 159.509171,108.853668 
	C160.146973,108.718246 160.784760,108.582825 161.422562,108.447403 
	C160.617279,104.631523 159.812012,100.815636 158.996262,96.255875 
	C158.664032,95.315697 158.396149,94.346672 157.989578,93.439827 
	C154.097794,84.759521 149.408218,76.776390 139.533508,73.742378 
	C131.486572,71.269951 124.574501,73.870316 119.110909,79.648262 
	C114.568909,84.451599 113.951195,90.250526 117.672844,96.144501 
	C118.076508,96.783798 117.984802,97.751839 118.071579,98.572815 
	C119.086288,108.172058 123.083244,112.544617 132.718857,114.579613 
	C134.842499,106.668961 131.608002,100.014008 123.869621,96.372383 
	C117.059837,93.167747 115.889526,87.518059 120.826050,81.679543 
	C127.872658,73.345383 140.990707,73.426468 148.372650,82.486282 
	C151.977478,86.910477 154.226837,92.439095 157.099899,98.302811 
M111.328880,65.292206 
	C105.744041,60.790985 103.450684,59.903118 99.480843,61.037956 
	C104.017181,63.798588 108.264923,66.383591 113.461220,69.545845 
	C112.654900,67.707291 112.244896,66.772423 111.328880,65.292206 
M104.630379,74.040451 
	C105.833511,73.748283 107.036652,73.456116 108.239784,73.163940 
	C108.174248,72.851257 108.108719,72.538574 108.043182,72.225883 
	C104.429604,70.982574 100.816017,69.739258 96.487511,68.249962 
	C97.653595,72.416985 100.557999,73.416168 104.630379,74.040451 
M160.257523,121.725060 
	C160.486176,119.278313 160.714844,116.831566 160.943497,114.384827 
	C160.347717,114.341408 159.751938,114.297997 159.156158,114.254585 
	C158.519821,117.984962 157.883469,121.715340 157.247131,125.445709 
	C157.792938,125.587517 158.338760,125.729317 158.884567,125.871117 
	C159.297043,124.808067 159.709503,123.745018 160.257523,121.725060 
M159.518311,113.695251 
	C160.069046,112.339157 160.619781,110.983063 161.170517,109.626961 
	C160.615906,109.490448 160.061310,109.353928 159.506699,109.217415 
	C159.362213,110.360237 159.217728,111.503067 159.518311,113.695251 
M156.209869,127.616386 
	C156.209869,128.657104 156.209869,129.697815 156.209869,130.738525 
	C156.843216,130.583160 157.476562,130.427811 158.109909,130.272446 
	C157.700760,129.076538 157.291611,127.880623 156.209869,127.616386 
M122.305611,68.707977 
	C123.165718,67.973709 124.025826,67.239449 124.885933,66.505188 
	C123.499207,65.795334 122.715927,65.916672 122.170593,66.342644 
	C121.736565,66.681679 121.593163,67.392769 122.305611,68.707977 
z"/>
<path fill="#2D2C14" opacity="1.000000" stroke="none" 
	d="
M170.390747,82.717125 
	C167.672012,86.106972 167.931961,82.412949 167.254288,81.436104 
	C162.262360,74.240372 158.042694,66.391098 152.322906,59.846077 
	C144.005325,50.328476 132.783417,44.896908 120.513527,42.268291 
	C106.718109,39.312847 97.610741,45.258183 94.948593,59.083755 
	C93.727539,65.425148 91.898438,70.836693 86.484016,74.713364 
	C85.075020,75.722191 84.147369,77.403313 82.740112,79.084496 
	C87.088181,81.873825 87.665657,85.045250 83.342232,88.422585 
	C85.317062,89.752167 86.761055,90.724350 88.679512,92.015968 
	C87.102287,93.048401 85.941818,93.808029 84.781357,94.567650 
	C85.275688,94.587341 85.770012,94.607033 86.264336,94.626732 
	C86.264336,97.976692 86.604408,101.371284 86.172287,104.664551 
	C85.704918,108.226341 87.007896,110.223701 90.312279,110.776840 
	C92.582077,111.156799 94.978638,111.200233 97.271568,110.954956 
	C116.187386,108.931465 121.475548,123.262947 119.842102,135.898499 
	C117.388725,154.876526 99.623055,167.467697 80.098068,163.961288 
	C75.910622,162.430145 72.457924,161.063370 68.956512,159.385681 
	C67.930206,157.844330 66.952599,156.613892 65.942490,155.342529 
	C64.292358,156.431702 62.979359,157.298355 61.666359,158.165009 
	C58.917095,155.311600 56.167828,152.458191 53.606857,149.258484 
	C54.233425,148.537994 54.671703,148.163849 55.109985,147.789688 
	C57.011635,149.932220 58.913284,152.074753 60.814934,154.217285 
	C61.123837,154.010620 61.432735,153.803970 61.741638,153.597305 
	C61.531715,152.933670 61.476353,152.158218 61.089092,151.622879 
	C53.013897,140.459793 52.854137,128.526840 57.370060,116.022469 
	C58.987728,111.543228 60.437241,106.972359 61.526917,102.340591 
	C63.152893,95.429237 67.224525,91.348434 74.128632,89.945129 
	C76.724854,96.986862 74.890404,102.757957 68.294815,108.692429 
	C73.622780,114.114395 73.021561,113.724449 67.043892,118.329536 
	C63.772671,120.849617 62.168095,126.086830 60.806644,130.411880 
	C58.306156,138.355392 61.155098,148.571960 65.571060,152.143829 
	C66.074974,145.897522 65.708015,138.909897 67.367165,132.442017 
	C70.231277,121.276802 79.071327,115.814705 88.376160,117.867165 
	C94.478607,119.213249 96.820694,124.429726 99.892677,128.801437 
	C100.409889,129.537476 99.385101,132.048004 98.370842,132.944580 
	C97.598000,133.627747 95.172821,133.606125 94.455887,132.904160 
	C93.479111,131.947784 92.594070,129.589661 93.120911,128.625793 
	C95.797966,123.728058 92.250092,122.359917 89.059601,120.994202 
	C83.748375,118.720718 77.035622,120.488831 73.517792,125.654037 
	C68.324638,133.279144 66.349236,141.803421 69.443535,150.796539 
	C72.193954,158.790222 78.192337,162.223877 87.936821,162.075256 
	C105.969536,161.800232 120.633781,143.943024 116.964470,126.727150 
	C114.884079,116.966263 108.519218,112.453453 98.529366,113.462730 
	C95.909523,113.727425 93.175293,113.882141 90.607521,113.434227 
	C84.653740,112.395676 82.866867,109.264587 84.060524,103.389473 
	C84.385178,101.791550 84.489182,99.692719 83.718292,98.410789 
	C81.022675,93.928192 80.776459,88.013992 83.618172,83.863274 
	C79.087135,78.767265 78.884056,78.290947 84.148354,73.558075 
	C88.791969,69.383232 91.520576,64.877335 92.595879,58.428616 
	C93.524673,52.858498 97.204048,47.747025 99.739487,42.277454 
	C96.100700,41.653393 92.219910,41.221710 88.998886,46.298206 
	C84.718697,53.044003 77.544243,54.442451 70.304077,51.034615 
	C72.477806,43.274872 78.830246,38.835789 86.559471,39.646336 
	C88.208794,39.819294 89.896019,40.146980 91.516739,39.965458 
	C94.564438,39.624115 97.576385,38.963573 100.877296,37.994293 
	C91.418304,35.775730 85.131416,30.976997 85.199394,20.587362 
	C92.124390,19.305552 98.903244,23.222944 101.483055,29.891136 
	C104.225174,36.978848 107.087051,38.711632 116.132599,38.388344 
	C114.483109,36.377502 112.841858,34.746883 111.679543,32.826401 
	C110.935555,31.597137 110.482063,29.866541 110.721695,28.505682 
	C110.840416,27.831526 113.387634,26.771025 113.840675,27.132597 
	C114.911781,27.987440 115.446045,29.560392 116.089600,30.894953 
	C117.079735,32.948223 117.500488,35.556435 119.037094,36.995911 
	C121.024864,38.858021 123.737488,40.216614 126.371628,41.075737 
	C147.503830,47.967991 161.969437,61.854362 170.390747,82.717125 
M66.727409,100.003967 
	C67.195595,100.702194 68.124245,101.477089 68.023758,102.080635 
	C67.874031,102.979927 66.998032,103.758293 66.120758,105.042274 
	C71.188583,103.319916 73.098480,99.474533 71.319618,92.534332 
	C69.433762,94.872673 67.547913,97.211014 65.192123,99.736977 
	C65.023598,100.040871 64.855072,100.344757 64.686546,100.648651 
	C65.147728,100.461143 65.608910,100.273636 66.727409,100.003967 
M92.996239,31.443480 
	C93.144264,31.363005 93.292282,31.282530 93.440308,31.202055 
	C93.310089,31.120655 93.179863,31.039255 93.129723,30.228437 
	C93.932961,29.990879 95.056900,29.303692 95.476990,29.603319 
	C96.568405,30.381763 97.350494,31.593903 98.692581,33.133923 
	C98.377579,26.711294 94.054138,23.150610 86.709518,23.814276 
	C89.124329,26.649923 91.017281,28.872763 92.996239,31.443480 
M64.327637,110.006836 
	C60.229404,113.600418 56.669491,123.240356 59.329231,127.330338 
	C61.234985,121.594719 63.140739,115.859108 64.327637,110.006836 
M75.112328,49.933968 
	C78.395973,49.393078 81.679611,48.852184 85.877510,48.160694 
	C83.203194,45.632301 81.830795,44.334785 79.554428,42.182625 
	C77.752792,44.773834 76.062943,47.204262 75.112328,49.933968 
z"/>
<path fill="#282911" opacity="1.000000" stroke="none" 
	d="
M66.783882,78.115570 
	C62.855675,83.105553 57.919697,85.679008 51.372543,85.164299 
	C49.859875,85.045380 47.281029,85.963974 46.826820,87.073853 
	C44.859684,91.880623 42.979839,96.843010 42.075108,101.927948 
	C41.306377,106.248512 41.916424,110.814407 41.916424,116.540543 
	C43.810970,111.935814 45.370613,108.580063 46.549583,105.095505 
	C47.136326,103.361351 46.743671,101.299110 47.313389,99.554924 
	C47.827015,97.982452 48.790726,95.825317 50.032471,95.432533 
	C51.223217,95.055878 53.561123,96.248871 54.382225,97.446396 
	C54.981110,98.319839 54.451912,101.083504 53.542088,101.699448 
	C45.691193,107.014374 45.743713,115.381905 45.318947,123.261856 
	C44.881779,131.371887 48.755653,138.338608 52.952332,145.616150 
	C52.546162,146.596146 52.339188,146.880386 52.132210,147.164627 
	C43.779320,137.206543 41.134972,125.135017 39.001133,112.756569 
	C38.168118,107.924217 36.313080,103.218987 34.503799,98.621033 
	C33.273582,95.494652 31.453543,92.766029 26.999826,93.961021 
	C26.004320,94.228127 23.733356,92.408951 23.265390,91.111710 
	C22.905737,90.114716 24.204533,87.554573 25.217381,87.264084 
	C26.577463,86.874031 28.917780,87.505951 29.881117,88.567154 
	C33.070332,92.080360 35.830353,95.983185 39.806248,101.085526 
	C40.222462,93.673363 40.675278,87.518524 40.810879,81.356712 
	C40.834072,80.302643 39.614719,79.120522 38.778603,78.164383 
	C32.768478,71.291550 32.684975,63.956455 38.597370,56.576653 
	C45.159870,60.082226 46.800415,65.757568 44.408279,76.679054 
	C44.851082,76.870781 45.293884,77.062515 45.736687,77.254242 
	C47.228374,73.809151 49.240711,70.489952 50.110081,66.894394 
	C52.346634,57.644348 57.095219,53.231087 66.528191,52.535870 
	C67.989052,60.086136 63.855289,66.459518 56.312027,69.553497 
	C53.663673,70.639755 51.591137,73.223091 49.428261,75.302345 
	C49.091976,75.625626 49.683052,76.913567 49.957561,78.337990 
	C55.444714,72.273872 61.323559,69.386131 69.542526,72.671974 
	C68.791374,74.364716 68.099823,75.923157 66.743713,77.528046 
	C65.321503,76.369881 64.736679,74.291901 63.778202,74.102242 
	C57.510315,72.861992 54.912678,76.630280 53.880253,82.953918 
	C55.608299,82.453400 57.198414,82.115677 58.693130,81.533157 
	C61.419872,80.470497 64.090088,79.262779 66.783882,78.115570 
M43.176636,69.932610 
	C42.315155,66.662384 41.453674,63.392166 40.592194,60.121944 
	C39.749111,60.206299 38.906025,60.290657 38.062939,60.375011 
	C37.697594,64.314537 37.332245,68.254066 36.911385,72.792168 
	C39.857632,71.781731 41.494812,71.220253 43.176636,69.932610 
M62.614746,55.892529 
	C57.919373,56.542049 55.179214,58.594341 56.905087,63.850788 
	C62.372787,63.906769 64.253975,61.637867 62.614746,55.892529 
z"/>
<path fill="#342A11" opacity="1.000000" stroke="none" 
	d="
M155.324646,153.324905 
	C157.398224,148.760925 160.165787,144.247528 162.236984,139.434479 
	C172.246338,116.174866 170.340134,94.392967 153.576035,74.688225 
	C146.754135,66.669670 138.425034,62.943016 127.830002,66.167564 
	C127.141579,66.377090 126.396225,66.399529 125.677353,66.508987 
	C125.547165,65.894485 125.416977,65.279976 125.286789,64.665474 
	C128.884979,63.829628 132.483154,62.993786 136.927109,61.961472 
	C132.233093,60.133205 129.004440,56.476795 123.283051,59.701462 
	C117.017807,63.232658 110.949326,61.142609 105.142868,54.953217 
	C109.687103,49.687160 117.352310,47.951057 122.986160,51.079586 
	C129.340408,54.608162 135.676514,58.178360 141.905396,61.921982 
	C156.248550,70.542366 165.181259,83.154961 169.131516,99.365929 
	C169.392044,100.435028 169.765976,101.476494 170.087143,102.530815 
	C170.537628,102.459038 170.988098,102.387260 171.438568,102.315483 
	C170.898758,97.932716 170.298050,93.556091 169.854614,89.163589 
	C169.713745,87.768066 169.991669,86.330261 170.504120,85.173668 
	C178.775284,107.283371 174.878189,127.558327 162.468582,146.553543 
	C160.773315,149.148468 157.981689,151.027115 155.324646,153.324905 
M109.823395,54.074303 
	C110.097343,54.958412 110.207031,56.505451 110.671524,56.620533 
	C114.036736,57.454308 117.473564,57.998989 120.887733,58.635170 
	C120.947754,58.205574 121.007767,57.775974 121.067780,57.346378 
	C119.475288,56.739998 117.882790,56.133614 116.290291,55.527233 
	C116.384697,55.163357 116.479095,54.799480 116.573494,54.435604 
	C118.134109,54.181274 119.694717,53.926945 121.704048,53.599487 
	C117.612350,51.118408 114.035454,51.889023 109.823395,54.074303 
z"/>
<path fill="#332B13" opacity="1.000000" stroke="none" 
	d="
M61.846539,158.457214 
	C62.979359,157.298355 64.292358,156.431702 65.942490,155.342529 
	C66.952599,156.613892 67.930206,157.844330 68.630974,159.512421 
	C71.908363,161.951813 75.462593,163.953568 79.016823,165.955307 
	C95.190880,171.461700 112.681595,165.558609 123.317551,150.882248 
	C126.586594,146.371368 129.429749,141.970444 129.481186,135.708420 
	C129.546234,127.787102 134.340256,123.515633 142.305084,122.142281 
	C143.824142,126.966393 143.171066,131.485992 139.937073,135.917908 
	C139.119034,135.155807 138.745865,134.249664 138.878983,133.425247 
	C139.293869,130.855972 139.900436,128.317657 140.432678,125.767326 
	C139.849136,125.474510 139.265610,125.181694 138.682068,124.888878 
	C136.209564,127.034416 133.737061,129.179947 131.264557,131.325485 
	C131.711395,131.771027 132.158218,132.216568 132.605057,132.662125 
	C133.682602,132.875656 134.760162,133.089188 134.534409,133.044449 
	C135.761459,135.304794 136.485291,136.638168 137.209122,137.971542 
	C137.167664,138.466461 137.269653,139.322205 137.063980,139.403961 
	C130.487350,142.018158 128.314133,148.634018 124.432198,153.584229 
	C116.264343,163.999832 105.486603,169.261734 92.743439,171.277847 
	C97.598732,174.455368 112.115822,173.916992 119.132942,172.447617 
	C129.560181,170.264145 138.997940,166.011444 147.342529,159.353043 
	C148.222687,158.650742 149.298477,158.193588 150.651321,157.532959 
	C150.018204,158.970398 149.331314,160.898315 147.969772,161.965500 
	C122.272125,182.107269 86.297691,180.716370 61.846539,158.457214 
z"/>
<path fill="#77A461" opacity="1.000000" stroke="none" 
	d="
M66.756210,78.116714 
	C64.090088,79.262779 61.419872,80.470497 58.693130,81.533157 
	C57.198414,82.115677 55.608299,82.453400 53.880253,82.953918 
	C54.912678,76.630280 57.510315,72.861992 63.778202,74.102242 
	C64.736679,74.291901 65.321503,76.369881 66.459991,77.860901 
	C66.840828,78.147301 66.728546,78.117859 66.756210,78.116714 
z"/>
<path fill="#282911" opacity="1.000000" stroke="none" 
	d="
M55.038254,147.512177 
	C54.671703,148.163849 54.233425,148.537994 53.496666,148.953094 
	C52.859810,148.557953 52.521442,148.121857 52.157642,147.425201 
	C52.339188,146.880386 52.546162,146.596146 53.107834,145.920471 
	C53.963867,146.097595 54.465195,146.666138 55.038254,147.512177 
z"/>
<path fill="#3B2E16" opacity="1.000000" stroke="none" 
	d="
M157.089722,97.467812 
	C154.226837,92.439095 151.977478,86.910477 148.372650,82.486282 
	C140.990707,73.426468 127.872658,73.345383 120.826050,81.679543 
	C115.889526,87.518059 117.059837,93.167747 123.869621,96.372383 
	C131.608002,100.014008 134.842499,106.668961 132.718857,114.579613 
	C123.083244,112.544617 119.086288,108.172058 118.071579,98.572815 
	C117.984802,97.751839 118.076508,96.783798 117.672844,96.144501 
	C113.951195,90.250526 114.568909,84.451599 119.110909,79.648262 
	C124.574501,73.870316 131.486572,71.269951 139.533508,73.742378 
	C149.408218,76.776390 154.097794,84.759521 157.989578,93.439827 
	C158.396149,94.346672 158.664032,95.315697 158.516327,96.720634 
	C157.720840,97.279526 157.405289,97.373665 157.089722,97.467812 
M123.939247,107.469147 
	C125.961212,108.768486 127.983177,110.067833 130.005142,111.367180 
	C130.424469,110.969193 130.843796,110.571198 131.263123,110.173210 
	C130.481659,107.940704 130.114136,105.410027 128.788406,103.569565 
	C127.718338,102.084030 124.863495,100.168602 123.898689,100.649109 
	C121.164192,102.010963 121.831299,104.634155 123.939247,107.469147 
z"/>
<path fill="#362C13" opacity="1.000000" stroke="none" 
	d="
M148.889908,136.970764 
	C149.520844,131.059418 150.713379,125.140381 150.632690,119.238754 
	C150.542969,112.676979 149.651718,106.378578 142.892685,102.125717 
	C136.938644,98.379379 137.131958,91.882935 138.577469,85.574257 
	C146.225464,86.416016 151.287262,93.009575 150.754333,100.961411 
	C150.624496,102.898552 150.461960,104.995094 151.032501,106.790100 
	C153.755585,115.357094 153.498871,124.013153 152.431854,133.199188 
	C151.333557,134.761749 150.111740,135.866257 148.889908,136.970764 
M146.920074,94.559761 
	C145.143539,92.494614 143.367004,90.429459 141.590469,88.364311 
	C140.926865,88.766998 140.263260,89.169685 139.599655,89.572372 
	C140.637482,92.912163 141.675293,96.251945 142.713120,99.591736 
	C142.316788,98.770203 141.920441,97.948669 141.524109,97.127136 
	C143.292267,96.511383 145.060425,95.895630 146.920074,94.559761 
z"/>
<path fill="#362C13" opacity="1.000000" stroke="none" 
	d="
M154.000015,132.976715 
	C154.819519,133.020111 156.330902,132.957016 156.356384,133.122620 
	C156.868912,136.452805 146.811325,151.322540 141.730698,153.552338 
	C143.977982,148.304962 145.837158,143.963791 148.253647,139.301880 
	C152.731461,138.872971 153.413239,135.965897 154.000015,132.976715 
z"/>
<path fill="#75A15F" opacity="1.000000" stroke="none" 
	d="
M137.531677,138.061523 
	C136.485291,136.638168 135.761459,135.304794 134.534409,133.044449 
	C134.760162,133.089188 133.682602,132.875656 132.605057,132.662125 
	C132.158218,132.216568 131.711395,131.771027 131.264557,131.325485 
	C133.737061,129.179947 136.209564,127.034416 138.682068,124.888878 
	C139.265610,125.181694 139.849136,125.474510 140.432678,125.767326 
	C139.900436,128.317657 139.293869,130.855972 138.878983,133.425247 
	C138.745865,134.249664 139.119034,135.155807 139.613312,136.116943 
	C139.262146,136.856720 138.558197,137.504120 137.531677,138.061523 
z"/>
<path fill="#3B2E16" opacity="1.000000" stroke="none" 
	d="
M111.581894,65.564880 
	C112.244896,66.772423 112.654900,67.707291 113.461220,69.545845 
	C108.264923,66.383591 104.017181,63.798588 99.480843,61.037956 
	C103.450684,59.903118 105.744041,60.790985 111.581894,65.564880 
z"/>
<path fill="#362C13" opacity="1.000000" stroke="none" 
	d="
M132.581055,163.751160 
	C130.185715,161.825195 130.307144,159.403641 132.545517,157.954086 
	C135.854614,155.811157 139.622894,154.377274 144.156158,152.174820 
	C142.100647,155.561707 140.316605,158.501312 138.040436,161.544403 
	C136.447922,160.727448 135.347504,159.807007 133.687759,158.418671 
	C133.173431,160.896896 132.877243,162.324036 132.581055,163.751160 
z"/>
<path fill="#4A3B22" opacity="1.000000" stroke="none" 
	d="
M104.213379,74.028290 
	C100.557999,73.416168 97.653595,72.416985 96.487511,68.249962 
	C100.816017,69.739258 104.429604,70.982574 108.043182,72.225883 
	C108.108719,72.538574 108.174248,72.851257 108.239784,73.163940 
	C107.036652,73.456116 105.833511,73.748283 104.213379,74.028290 
z"/>
<path fill="#342A11" opacity="1.000000" stroke="none" 
	d="
M117.997971,74.952721 
	C116.445137,73.723587 113.466003,72.337799 113.580887,71.291832 
	C114.145325,66.152740 118.575264,68.325523 122.047714,67.243866 
	C121.592270,68.901878 121.308487,69.934937 120.580513,71.436020 
	C118.736816,71.580101 117.337326,71.256157 115.269096,70.777428 
	C116.530060,72.706764 117.264015,73.829742 117.997971,74.952721 
z"/>
<path fill="#D6B58F" opacity="1.000000" stroke="none" 
	d="
M79.097122,165.706665 
	C75.462593,163.953568 71.908363,161.951813 68.679672,159.823334 
	C72.457924,161.063370 75.910622,162.430145 79.686859,163.964478 
	C79.732727,164.574020 79.455070,165.016006 79.097122,165.706665 
z"/>
<path fill="#362C13" opacity="1.000000" stroke="none" 
	d="
M157.094818,97.885315 
	C157.405289,97.373665 157.720840,97.279526 158.521576,97.092575 
	C159.812012,100.815636 160.617279,104.631523 161.422562,108.447403 
	C160.784760,108.582825 160.146973,108.718246 159.509171,108.853668 
	C158.706085,105.336716 157.902985,101.819763 157.094818,97.885315 
z"/>
<path fill="#362C13" opacity="1.000000" stroke="none" 
	d="
M160.189758,122.203506 
	C159.709503,123.745018 159.297043,124.808067 158.884567,125.871117 
	C158.338760,125.729317 157.792938,125.587517 157.247131,125.445709 
	C157.883469,121.715340 158.519821,117.984962 159.156158,114.254585 
	C159.751938,114.297997 160.347717,114.341408 160.943497,114.384827 
	C160.714844,116.831566 160.486176,119.278313 160.189758,122.203506 
z"/>
<path fill="#3B2E16" opacity="1.000000" stroke="none" 
	d="
M132.589417,163.730011 
	C132.877243,162.324036 133.173431,160.896896 133.687759,158.418671 
	C135.347504,159.807007 136.447922,160.727448 137.852768,161.847198 
	C137.702881,162.750778 137.248535,163.455093 136.224808,163.900024 
	C134.643936,163.669952 133.632462,163.699234 132.620987,163.728516 
	C132.620987,163.728531 132.597763,163.708878 132.589417,163.730011 
z"/>
<path fill="#3B2E16" opacity="1.000000" stroke="none" 
	d="
M153.738281,133.040726 
	C153.413239,135.965897 152.731461,138.872971 148.438721,138.991531 
	C148.199341,138.454514 148.332199,137.907104 148.677475,137.165222 
	C150.111740,135.866257 151.333557,134.761749 152.752350,133.436691 
	C153.125046,133.179001 153.300797,133.141861 153.738281,133.040726 
z"/>
<path fill="#3B2C15" opacity="1.000000" stroke="none" 
	d="
M118.321060,74.943665 
	C117.264015,73.829742 116.530060,72.706764 115.269096,70.777428 
	C117.337326,71.256157 118.736816,71.580101 120.480179,71.948471 
	C120.097404,72.973480 119.370773,73.954048 118.321060,74.943665 
z"/>
<path fill="#362C13" opacity="1.000000" stroke="none" 
	d="
M159.295776,113.170570 
	C159.217728,111.503067 159.362213,110.360237 159.506699,109.217415 
	C160.061310,109.353928 160.615906,109.490448 161.170517,109.626961 
	C160.619781,110.983063 160.069046,112.339157 159.295776,113.170570 
z"/>
<path fill="#362C13" opacity="1.000000" stroke="none" 
	d="
M156.546158,127.150543 
	C157.291611,127.880623 157.700760,129.076538 158.109909,130.272446 
	C157.476562,130.427811 156.843216,130.583160 156.209869,130.738525 
	C156.209869,129.697815 156.209869,128.657104 156.546158,127.150543 
z"/>
<path fill="#362C13" opacity="1.000000" stroke="none" 
	d="
M132.807449,163.942230 
	C133.632462,163.699234 134.643936,163.669952 135.895630,163.965378 
	C135.088547,164.245377 134.041229,164.200668 132.807449,163.942230 
z"/>
<path fill="#342A11" opacity="1.000000" stroke="none" 
	d="
M121.813171,68.323334 
	C121.593163,67.392769 121.736565,66.681679 122.170593,66.342644 
	C122.715927,65.916672 123.499207,65.795334 124.885933,66.505188 
	C124.025826,67.239449 123.165718,67.973709 121.813171,68.323334 
z"/>
<path fill="#5BC6A5" opacity="1.000000" stroke="none" 
	d="
M64.687065,110.065163 
	C63.140739,115.859108 61.234985,121.594719 59.329231,127.330338 
	C56.669491,123.240356 60.229404,113.600418 64.687065,110.065163 
z"/>
<path fill="#749F5E" opacity="1.000000" stroke="none" 
	d="
M92.910225,31.095600 
	C91.017281,28.872763 89.124329,26.649923 86.709518,23.814276 
	C94.054138,23.150610 98.377579,26.711294 98.692581,33.133923 
	C97.350494,31.593903 96.568405,30.381763 95.476990,29.603319 
	C95.056900,29.303692 93.932961,29.990879 93.053970,30.626713 
	C92.978218,31.024986 92.910225,31.095600 92.910225,31.095600 
z"/>
<path fill="#749F5E" opacity="1.000000" stroke="none" 
	d="
M74.742714,49.784325 
	C76.062943,47.204262 77.752792,44.773834 79.554428,42.182625 
	C81.830795,44.334785 83.203194,45.632301 85.877510,48.160694 
	C81.679611,48.852184 78.395973,49.393078 74.742714,49.784325 
z"/>
<path fill="#739E5D" opacity="1.000000" stroke="none" 
	d="
M65.662056,99.549355 
	C67.547913,97.211014 69.433762,94.872673 71.319618,92.534332 
	C73.098480,99.474533 71.188583,103.319916 66.120758,105.042274 
	C66.998032,103.758293 67.874031,102.979927 68.023758,102.080635 
	C68.124245,101.477089 67.195595,100.702194 66.294510,99.912552 
	C65.861618,99.821129 65.662056,99.549355 65.662056,99.549355 
z"/>
<path fill="#739E5D" opacity="1.000000" stroke="none" 
	d="
M65.965851,99.953629 
	C65.608910,100.273636 65.147728,100.461143 64.686546,100.648651 
	C64.855072,100.344757 65.023598,100.040871 65.427094,99.643166 
	C65.662056,99.549355 65.861618,99.821129 65.965851,99.953629 
z"/>
<path fill="#749F5E" opacity="1.000000" stroke="none" 
	d="
M93.013931,30.991421 
	C93.179863,31.039255 93.310089,31.120655 93.440308,31.202053 
	C93.292282,31.282530 93.144264,31.363005 92.953232,31.269539 
	C92.910225,31.095600 92.978218,31.024986 93.013931,30.991421 
z"/>
<path fill="#76A360" opacity="1.000000" stroke="none" 
	d="
M43.154312,70.295685 
	C41.494812,71.220253 39.857632,71.781731 36.911385,72.792168 
	C37.332245,68.254066 37.697594,64.314537 38.062939,60.375011 
	C38.906025,60.290657 39.749111,60.206299 40.592194,60.121944 
	C41.453674,63.392166 42.315155,66.662384 43.154312,70.295685 
z"/>
<path fill="#749F5E" opacity="1.000000" stroke="none" 
	d="
M63.012634,55.948563 
	C64.253975,61.637867 62.372787,63.906769 56.905544,63.851116 
	C55.179214,58.594341 57.919373,56.542049 63.012634,55.948563 
z"/>
<path fill="#719B5B" opacity="1.000000" stroke="none" 
	d="
M110.147629,53.874077 
	C114.035454,51.889023 117.612350,51.118408 121.704048,53.599487 
	C119.694717,53.926945 118.134109,54.181274 116.573494,54.435604 
	C116.479095,54.799480 116.384697,55.163357 116.290291,55.527233 
	C117.882790,56.133614 119.475288,56.739998 121.067780,57.346378 
	C121.007767,57.775974 120.947754,58.205574 120.887733,58.635170 
	C117.473564,57.998989 114.036736,57.454308 110.671524,56.620533 
	C110.207031,56.505451 110.097343,54.958412 110.147629,53.874077 
z"/>
<path fill="#74A05E" opacity="1.000000" stroke="none" 
	d="
M123.711021,107.168182 
	C121.831299,104.634155 121.164192,102.010963 123.898689,100.649109 
	C124.863495,100.168602 127.718338,102.084030 128.788406,103.569565 
	C130.114136,105.410027 130.481659,107.940704 131.263123,110.173210 
	C130.843796,110.571198 130.424469,110.969193 130.005142,111.367180 
	C127.983177,110.067833 125.961212,108.768486 123.711021,107.168182 
z"/>
<path fill="#75A15F" opacity="1.000000" stroke="none" 
	d="
M146.874329,94.919823 
	C145.060425,95.895630 143.292267,96.511383 141.524109,97.127136 
	C141.920441,97.948669 142.316788,98.770203 142.713120,99.591736 
	C141.675293,96.251945 140.637482,92.912163 139.599655,89.572372 
	C140.263260,89.169685 140.926865,88.766998 141.590469,88.364311 
	C143.367004,90.429459 145.143539,92.494614 146.874329,94.919823 
z"/>
</svg>