<svg width="200" height="200" viewBox="0 0 200 200" fill="none" xmlns="http://www.w3.org/2000/svg">
<circle cx="100" cy="100" r="100" fill="url(#paint0_radial_131_119)"/>
<path d="M131.844 76.5313L110.849 64.5878C109.546 63.8467 107.903 64.3168 107.162 65.6175C106.421 66.9182 106.874 68.563 108.174 69.3042L129.17 81.2477C129.586 81.4822 130.037 81.5906 130.507 81.5906C131.446 81.5906 132.35 81.1028 132.856 80.2167C133.597 78.9173 133.146 77.2712 131.844 76.5313ZM111.824 87.8963L90.8464 75.9705C89.5457 75.2294 87.8832 75.6819 87.1423 76.9826C86.4013 78.2833 86.8537 79.9458 88.1544 80.6867L109.15 92.6125C109.566 92.8469 110.035 92.9742 110.487 92.9742C111.426 92.9742 112.349 92.4865 112.836 91.6004C113.577 90.2997 113.125 88.6385 111.824 87.8963ZM91.8221 99.2813L70.8267 87.3542C69.526 86.6131 67.8812 87.0656 67.14 88.3663C66.3989 89.667 66.8514 91.3295 68.1534 92.0704L89.1475 103.996C89.5634 104.231 90.0146 104.358 90.4847 104.358C91.4262 104.358 92.33 103.853 92.8341 102.983C93.5727 101.682 93.1216 100.02 91.8221 99.2813ZM166.066 74.7241C166.066 74.5439 166.048 74.3813 165.994 74.2187C165.994 74.1645 165.976 74.1103 165.976 74.0561C165.904 73.857 165.831 73.6591 165.723 73.4776C165.703 73.441 165.685 73.4234 165.669 73.4057C165.578 73.2431 165.452 73.0806 165.326 72.9545C165.289 72.918 165.235 72.8638 165.201 72.8285C165.075 72.7201 164.947 72.6117 164.802 72.5399C164.765 72.5222 164.749 72.4857 164.711 72.468L118.003 45.9068C117.172 45.4367 116.141 45.4367 115.311 45.9068L35.2849 91.421C34.4355 91.8911 33.9111 92.7948 33.9111 93.7703V125.174C33.9111 126.15 34.4355 127.053 35.2849 127.523L81.993 154.085C82.4089 154.319 82.8601 154.446 83.3302 154.446C83.8003 154.446 84.2516 154.32 84.6675 154.085L164.713 108.587C165.562 108.096 166.086 107.194 166.086 106.22V74.8158C166.086 74.778 166.067 74.7591 166.067 74.7226L166.066 74.7241Z" fill="white"/>
<path d="M131.844 76.5313L110.849 64.5878C109.546 63.8467 107.903 64.3168 107.162 65.6175C106.421 66.9182 106.874 68.563 108.174 69.3042L129.17 81.2477C129.586 81.4822 130.037 81.5906 130.507 81.5906C131.446 81.5906 132.35 81.1028 132.856 80.2167C133.597 78.9173 133.146 77.2712 131.844 76.5313L131.844 76.5313ZM111.824 87.8963L90.8464 75.9705C89.5457 75.2294 87.8832 75.6819 87.1423 76.9826C86.4013 78.2833 86.8537 79.9458 88.1544 80.6867L109.15 92.6125C109.566 92.8469 110.035 92.9742 110.487 92.9742C111.426 92.9742 112.349 92.4865 112.836 91.6004C113.577 90.2997 113.125 88.6385 111.824 87.8963H111.824ZM91.8221 99.2813L70.8267 87.3542C69.526 86.6131 67.8812 87.0656 67.14 88.3663C66.3989 89.667 66.8514 91.3295 68.1534 92.0704L89.1475 103.996C89.5634 104.231 90.0146 104.358 90.4847 104.358C91.4262 104.358 92.33 103.853 92.8341 102.983C93.5727 101.682 93.1214 100.02 91.822 99.281L91.8221 99.2813ZM166.066 74.7241C166.066 74.5439 166.048 74.3813 165.994 74.2187C165.994 74.1645 165.976 74.1103 165.976 74.0561C165.904 73.857 165.831 73.6591 165.723 73.4776C165.703 73.441 165.685 73.4234 165.669 73.4057C165.578 73.2431 165.452 73.0806 165.326 72.9545C165.289 72.918 165.235 72.8638 165.201 72.8285C165.075 72.7201 164.947 72.6117 164.802 72.5399C164.765 72.5222 164.749 72.4857 164.711 72.468L118.003 45.9068C117.172 45.4367 116.141 45.4367 115.311 45.9068L35.2849 91.421C34.4355 91.8911 33.9111 92.7948 33.9111 93.7703V125.174C33.9111 126.15 34.4355 127.053 35.2849 127.523L81.993 154.085C82.4089 154.319 82.8601 154.446 83.3302 154.446C83.8003 154.446 84.2516 154.32 84.6675 154.085L164.713 108.587C165.562 108.096 166.086 107.194 166.086 106.22V74.8158C166.086 74.778 166.067 74.7591 166.067 74.7226L166.066 74.7241ZM80.6194 147.071L39.3321 123.6V98.4298L80.6194 121.901V147.071ZM83.3305 117.205L42.098 93.7677L116.671 51.3769L157.884 74.8125L83.3305 117.205ZM160.665 104.645L86.0408 147.071V121.901L160.665 79.4749V104.645Z" fill="black"/>
<defs>
<radialGradient id="paint0_radial_131_119" cx="0" cy="0" r="1" gradientUnits="userSpaceOnUse" gradientTransform="translate(100 100) rotate(90) scale(100)">
<stop offset="0.625" stop-color="#FF0000"/>
<stop offset="1" stop-color="#960000"/>
</radialGradient>
</defs>
</svg>
