<svg xmlns="http://www.w3.org/2000/svg" width="200" height="200" viewBox="0 0 200 200" version="1.1"><path d="M 94.348 33.434 C 92.141 35.323, 86.047 41.961, 80.806 48.184 C 75.564 54.408, 67.227 65.575, 62.279 73 C 57.330 80.425, 52.777 87.467, 52.160 88.648 C 51.203 90.481, 51.397 91.030, 53.484 92.398 C 54.829 93.279, 56.367 94, 56.903 94 C 57.438 94, 62.693 86.787, 68.582 77.970 C 74.470 69.154, 79.673 61.702, 80.144 61.411 C 80.615 61.120, 81.001 62.596, 81.002 64.691 C 81.003 66.786, 80.323 72.550, 79.491 77.500 C 78.658 82.450, 77.514 89.425, 76.948 93 C 76.383 96.575, 75.016 103.325, 73.912 108 C 72.807 112.675, 71.224 119.200, 70.393 122.500 C 69.562 125.800, 68.409 129.850, 67.830 131.500 C 67.251 133.150, 65.516 139, 63.975 144.500 C 62.433 150, 60.857 156.637, 60.473 159.250 C 60.088 161.863, 59.992 164, 60.260 164 C 60.528 164, 62.091 160.512, 63.735 156.250 C 65.378 151.988, 67.914 144.900, 69.370 140.500 C 70.825 136.100, 72.631 130.475, 73.382 128 C 74.133 125.525, 75.956 119.675, 77.432 115 C 78.908 110.325, 81.679 99.300, 83.589 90.500 C 85.499 81.700, 87.537 70.450, 88.116 65.500 C 88.696 60.550, 89.250 54.985, 89.347 53.132 C 89.482 50.560, 90.888 48.268, 95.298 43.428 C 98.723 39.669, 101.628 37.304, 102.437 37.614 C 103.187 37.902, 105.366 40.694, 107.280 43.819 C 109.194 46.943, 112.501 52.846, 114.630 56.936 C 118.282 63.955, 118.495 64.854, 118.406 72.936 C 118.350 77.979, 117.581 83.933, 116.536 87.417 C 115.387 91.247, 113.481 94.679, 111.131 97.148 C 108.586 99.822, 104.102 102.464, 96.139 105.981 C 89.891 108.742, 84.223 111, 83.544 111 C 82.865 111, 81.565 111.823, 80.655 112.829 C 79.745 113.835, 79 115.427, 79 116.369 C 79 117.310, 79.918 119.879, 81.040 122.079 C 82.163 124.279, 84.395 126.878, 86.001 127.854 C 87.607 128.831, 89.835 130.792, 90.953 132.213 C 92.070 133.633, 95.575 136.502, 98.742 138.588 C 101.909 140.674, 108.325 146.227, 113 150.927 C 117.675 155.628, 123.024 160.717, 124.888 162.237 C 126.751 163.757, 128.923 165, 129.715 165 C 130.528 165, 128.617 162.109, 125.328 158.362 C 122.122 154.711, 117.250 149.385, 114.500 146.527 C 111.750 143.669, 107.250 139.624, 104.500 137.539 C 101.750 135.453, 96.709 130.890, 93.299 127.399 C 89.888 123.907, 86.628 120.174, 86.055 119.103 C 85.121 117.358, 85.557 116.978, 90.257 115.441 C 93.140 114.497, 99.550 111.839, 104.500 109.534 C 110.578 106.704, 114.676 104.034, 117.122 101.310 C 119.307 98.877, 121.681 94.543, 123.105 90.388 C 125.017 84.806, 125.468 81.414, 125.482 72.500 C 125.500 61.541, 125.484 61.468, 121.246 53 C 118.907 48.325, 115.216 41.827, 113.045 38.561 C 110.873 35.295, 108.062 32.048, 106.798 31.346 C 105.534 30.645, 103.118 30.055, 101.430 30.035 C 99.344 30.011, 97.074 31.101, 94.348 33.434 M 162.542 39.681 C 161.465 39.981, 159.619 40.858, 158.441 41.630 C 157.263 42.402, 155.024 45.377, 153.465 48.241 C 150.963 52.839, 150.578 54.740, 150.178 64.474 C 149.796 73.776, 149.433 75.704, 147.862 76.807 C 146.764 77.578, 146 79.320, 146 81.057 C 146 83.630, 146.361 84, 148.866 84 C 151.683 84, 151.741 84.115, 152.280 90.750 C 152.590 94.577, 154.027 100.532, 155.596 104.500 C 157.118 108.350, 160.304 114.537, 162.675 118.250 C 165.047 121.963, 167.183 125, 167.424 125 C 167.664 125, 167.502 123.750, 167.063 122.221 C 166.625 120.693, 164.831 116.172, 163.077 112.176 C 161.323 108.179, 159.013 102.171, 157.944 98.824 C 156.875 95.478, 156 90.790, 156 88.408 C 156 84.150, 156.071 84.059, 160.250 82.992 C 162.588 82.395, 165.850 81.382, 167.500 80.740 C 169.150 80.099, 172.680 77.544, 175.345 75.062 C 178.009 72.580, 181.095 68.774, 182.202 66.603 C 183.728 63.612, 184.117 61.291, 183.807 57.013 C 183.535 53.251, 182.642 50.307, 181.130 48.182 C 179.882 46.430, 177.334 43.831, 175.468 42.408 C 173.591 40.976, 170.383 39.667, 168.287 39.477 C 166.204 39.289, 163.619 39.381, 162.542 39.681 M 161.096 48.573 C 159.371 50.024, 157.635 52.749, 157.114 54.823 C 156.605 56.845, 155.971 62.449, 155.704 67.275 L 155.218 76.050 158.859 75.393 C 160.862 75.032, 163.400 74.280, 164.500 73.722 C 165.600 73.163, 168.075 71.344, 170 69.678 C 171.925 68.012, 174.287 65.368, 175.250 63.801 C 176.213 62.234, 176.997 59.500, 176.993 57.726 C 176.990 55.952, 176.166 53.255, 175.163 51.734 C 174.160 50.213, 172.476 48.315, 171.420 47.516 C 170.364 46.717, 168.297 46.049, 166.827 46.032 C 165.356 46.014, 162.777 47.158, 161.096 48.573 M 29.938 55.273 C 28.529 55.948, 25.298 58.075, 22.759 60 C 20.219 61.925, 17.612 64.625, 16.965 66 C 16.319 67.375, 15.180 69.850, 14.436 71.500 C 13.691 73.150, 12.780 76.300, 12.411 78.500 C 12.041 80.700, 11.309 83.043, 10.784 83.706 C 10.258 84.370, 10.099 85.351, 10.430 85.886 C 10.761 86.422, 11.450 90.159, 11.961 94.191 C 12.472 98.223, 14.500 106.831, 16.467 113.321 C 18.434 119.810, 20.707 126.555, 21.518 128.310 C 22.967 131.445, 22.983 131.397, 22.451 125.500 C 22.153 122.200, 20.554 114.181, 18.897 107.681 C 17.239 101.180, 16.022 94.470, 16.192 92.770 C 16.464 90.039, 17.085 89.480, 21.512 87.981 C 24.268 87.047, 28.475 85.288, 30.861 84.071 C 33.247 82.854, 37.134 80.074, 39.500 77.893 C 41.866 75.713, 44.081 72.814, 44.423 71.451 C 44.808 69.918, 44.215 66.978, 42.867 63.737 C 41.669 60.857, 39.972 57.741, 39.095 56.813 C 38.218 55.885, 36.375 54.883, 35 54.586 C 33.625 54.289, 31.347 54.598, 29.938 55.273 M 26.952 64.315 C 23.694 66.597, 21.808 68.918, 20.299 72.500 C 19.141 75.250, 17.940 78.287, 17.628 79.250 C 17.231 80.480, 17.600 81, 18.872 81 C 19.867 81, 23.340 79.659, 26.590 78.021 C 29.841 76.382, 33.812 73.980, 35.416 72.683 L 38.332 70.324 36.416 65.666 C 35.302 62.957, 33.872 61.033, 33 61.069 C 32.175 61.103, 29.454 62.564, 26.952 64.315" stroke="none" fill="#393939" fill-rule="evenodd"/><path d="M -0 100.005 L -0 200.010 100.250 199.755 L 200.500 199.500 200.755 99.750 L 201.010 0 100.505 0 L 0 0 -0 100.005 M 0.481 100.500 C 0.481 155.500, 0.602 178.147, 0.750 150.826 C 0.898 123.506, 0.898 78.506, 0.750 50.826 C 0.602 23.147, 0.481 45.500, 0.481 100.500 M 94.348 33.434 C 92.141 35.323, 86.047 41.961, 80.806 48.184 C 75.564 54.408, 67.227 65.575, 62.279 73 C 57.330 80.425, 52.777 87.467, 52.160 88.648 C 51.203 90.481, 51.397 91.030, 53.484 92.398 C 54.829 93.279, 56.367 94, 56.903 94 C 57.438 94, 62.693 86.787, 68.582 77.970 C 74.470 69.154, 79.673 61.702, 80.144 61.411 C 80.615 61.120, 81.001 62.596, 81.002 64.691 C 81.003 66.786, 80.323 72.550, 79.491 77.500 C 78.658 82.450, 77.514 89.425, 76.948 93 C 76.383 96.575, 75.016 103.325, 73.912 108 C 72.807 112.675, 71.224 119.200, 70.393 122.500 C 69.562 125.800, 68.409 129.850, 67.830 131.500 C 67.251 133.150, 65.516 139, 63.975 144.500 C 62.433 150, 60.857 156.637, 60.473 159.250 C 60.088 161.863, 59.992 164, 60.260 164 C 60.528 164, 62.091 160.512, 63.735 156.250 C 65.378 151.988, 67.914 144.900, 69.370 140.500 C 70.825 136.100, 72.631 130.475, 73.382 128 C 74.133 125.525, 75.956 119.675, 77.432 115 C 78.908 110.325, 81.679 99.300, 83.589 90.500 C 85.499 81.700, 87.537 70.450, 88.116 65.500 C 88.696 60.550, 89.250 54.985, 89.347 53.132 C 89.482 50.560, 90.888 48.268, 95.298 43.428 C 98.723 39.669, 101.628 37.304, 102.437 37.614 C 103.187 37.902, 105.366 40.694, 107.280 43.819 C 109.194 46.943, 112.501 52.846, 114.630 56.936 C 118.282 63.955, 118.495 64.854, 118.406 72.936 C 118.350 77.979, 117.581 83.933, 116.536 87.417 C 115.387 91.247, 113.481 94.679, 111.131 97.148 C 108.586 99.822, 104.102 102.464, 96.139 105.981 C 89.891 108.742, 84.223 111, 83.544 111 C 82.865 111, 81.565 111.823, 80.655 112.829 C 79.745 113.835, 79 115.427, 79 116.369 C 79 117.310, 79.918 119.879, 81.040 122.079 C 82.163 124.279, 84.395 126.878, 86.001 127.854 C 87.607 128.831, 89.835 130.792, 90.953 132.213 C 92.070 133.633, 95.575 136.502, 98.742 138.588 C 101.909 140.674, 108.325 146.227, 113 150.927 C 117.675 155.628, 123.024 160.717, 124.888 162.237 C 126.751 163.757, 128.923 165, 129.715 165 C 130.528 165, 128.617 162.109, 125.328 158.362 C 122.122 154.711, 117.250 149.385, 114.500 146.527 C 111.750 143.669, 107.250 139.624, 104.500 137.539 C 101.750 135.453, 96.709 130.890, 93.299 127.399 C 89.888 123.907, 86.628 120.174, 86.055 119.103 C 85.121 117.358, 85.557 116.978, 90.257 115.441 C 93.140 114.497, 99.550 111.839, 104.500 109.534 C 110.578 106.704, 114.676 104.034, 117.122 101.310 C 119.307 98.877, 121.681 94.543, 123.105 90.388 C 125.017 84.806, 125.468 81.414, 125.482 72.500 C 125.500 61.541, 125.484 61.468, 121.246 53 C 118.907 48.325, 115.216 41.827, 113.045 38.561 C 110.873 35.295, 108.062 32.048, 106.798 31.346 C 105.534 30.645, 103.118 30.055, 101.430 30.035 C 99.344 30.011, 97.074 31.101, 94.348 33.434 M 162.542 39.681 C 161.465 39.981, 159.619 40.858, 158.441 41.630 C 157.263 42.402, 155.024 45.377, 153.465 48.241 C 150.963 52.839, 150.578 54.740, 150.178 64.474 C 149.796 73.776, 149.433 75.704, 147.862 76.807 C 146.764 77.578, 146 79.320, 146 81.057 C 146 83.630, 146.361 84, 148.866 84 C 151.683 84, 151.741 84.115, 152.280 90.750 C 152.590 94.577, 154.027 100.532, 155.596 104.500 C 157.118 108.350, 160.304 114.537, 162.675 118.250 C 165.047 121.963, 167.183 125, 167.424 125 C 167.664 125, 167.502 123.750, 167.063 122.221 C 166.625 120.693, 164.831 116.172, 163.077 112.176 C 161.323 108.179, 159.013 102.171, 157.944 98.824 C 156.875 95.478, 156 90.790, 156 88.408 C 156 84.150, 156.071 84.059, 160.250 82.992 C 162.588 82.395, 165.850 81.382, 167.500 80.740 C 169.150 80.099, 172.680 77.544, 175.345 75.062 C 178.009 72.580, 181.095 68.774, 182.202 66.603 C 183.728 63.612, 184.117 61.291, 183.807 57.013 C 183.535 53.251, 182.642 50.307, 181.130 48.182 C 179.882 46.430, 177.334 43.831, 175.468 42.408 C 173.591 40.976, 170.383 39.667, 168.287 39.477 C 166.204 39.289, 163.619 39.381, 162.542 39.681 M 161.096 48.573 C 159.371 50.024, 157.635 52.749, 157.114 54.823 C 156.605 56.845, 155.971 62.449, 155.704 67.275 L 155.218 76.050 158.859 75.393 C 160.862 75.032, 163.400 74.280, 164.500 73.722 C 165.600 73.163, 168.075 71.344, 170 69.678 C 171.925 68.012, 174.287 65.368, 175.250 63.801 C 176.213 62.234, 176.997 59.500, 176.993 57.726 C 176.990 55.952, 176.166 53.255, 175.163 51.734 C 174.160 50.213, 172.476 48.315, 171.420 47.516 C 170.364 46.717, 168.297 46.049, 166.827 46.032 C 165.356 46.014, 162.777 47.158, 161.096 48.573 M 29.938 55.273 C 28.529 55.948, 25.298 58.075, 22.759 60 C 20.219 61.925, 17.612 64.625, 16.965 66 C 16.319 67.375, 15.180 69.850, 14.436 71.500 C 13.691 73.150, 12.780 76.300, 12.411 78.500 C 12.041 80.700, 11.309 83.043, 10.784 83.706 C 10.258 84.370, 10.099 85.351, 10.430 85.886 C 10.761 86.422, 11.450 90.159, 11.961 94.191 C 12.472 98.223, 14.500 106.831, 16.467 113.321 C 18.434 119.810, 20.707 126.555, 21.518 128.310 C 22.967 131.445, 22.983 131.397, 22.451 125.500 C 22.153 122.200, 20.554 114.181, 18.897 107.681 C 17.239 101.180, 16.022 94.470, 16.192 92.770 C 16.464 90.039, 17.085 89.480, 21.512 87.981 C 24.268 87.047, 28.475 85.288, 30.861 84.071 C 33.247 82.854, 37.134 80.074, 39.500 77.893 C 41.866 75.713, 44.081 72.814, 44.423 71.451 C 44.808 69.918, 44.215 66.978, 42.867 63.737 C 41.669 60.857, 39.972 57.741, 39.095 56.813 C 38.218 55.885, 36.375 54.883, 35 54.586 C 33.625 54.289, 31.347 54.598, 29.938 55.273 M 26.952 64.315 C 23.694 66.597, 21.808 68.918, 20.299 72.500 C 19.141 75.250, 17.940 78.287, 17.628 79.250 C 17.231 80.480, 17.600 81, 18.872 81 C 19.867 81, 23.340 79.659, 26.590 78.021 C 29.841 76.382, 33.812 73.980, 35.416 72.683 L 38.332 70.324 36.416 65.666 C 35.302 62.957, 33.872 61.033, 33 61.069 C 32.175 61.103, 29.454 62.564, 26.952 64.315" stroke="none" fill="#fafafa" fill-rule="evenodd"/></svg>