<?xml version="1.0" encoding="UTF-8"?>
<svg xmlns="http://www.w3.org/2000/svg" xmlns:xlink="http://www.w3.org/1999/xlink" width="200px" height="200px" viewBox="0 0 200 200" version="1.1">
<g id="surface1">
<path style=" stroke:none;fill-rule:nonzero;fill:rgb(1.568627%,1.568627%,1.568627%);fill-opacity:1;" d="M 132.8125 200.199219 C 88.542969 200.199219 44.367188 200.199219 0.195312 200.199219 C 0.195312 133.53125 0.195312 66.867188 0.195312 0.199219 C 66.863281 0.199219 133.527344 0.199219 200.195312 0.199219 C 200.195312 66.867188 200.195312 133.53125 200.195312 200.199219 C 177.765625 200.199219 155.339844 200.199219 132.8125 200.199219 M 104.507812 36.300781 C 104.042969 36.390625 103.578125 36.484375 103.019531 36.671875 C 101.730469 39.414062 100.4375 42.160156 99.046875 44.988281 C 96.613281 50.148438 94.171875 55.304688 91.75 60.46875 C 90.828125 62.433594 89.945312 64.417969 88.929688 66.464844 C 85.390625 73.867188 81.855469 81.265625 78.207031 88.75 C 77.042969 91.175781 75.859375 93.589844 74.71875 96.027344 C 73.144531 99.386719 71.605469 102.765625 69.949219 106.222656 C 67.675781 110.972656 65.398438 115.726562 63.046875 120.632812 C 72.460938 120.632812 81.6875 120.632812 91.125 120.632812 C 84.160156 136.796875 77.265625 152.800781 70.34375 168.863281 C 70.683594 168.546875 71.050781 168.253906 71.363281 167.910156 C 73.898438 165.117188 76.414062 162.300781 78.960938 159.519531 C 82.992188 155.125 87.042969 150.753906 91.082031 146.371094 C 95.835938 141.214844 100.585938 136.058594 105.328125 130.890625 C 107.65625 128.355469 109.960938 125.800781 112.378906 123.171875 C 114.667969 120.664062 116.96875 118.167969 119.242188 115.644531 C 120.808594 113.902344 122.335938 112.121094 124 110.3125 C 128.289062 105.746094 132.578125 101.179688 137.039062 96.433594 C 126.125 96.433594 115.40625 96.433594 104.503906 96.433594 C 106.53125 93.28125 108.429688 90.328125 110.324219 87.371094 C 111.832031 85.023438 113.332031 82.667969 114.933594 80.226562 C 117.925781 75.632812 120.921875 71.042969 123.90625 66.441406 C 125.28125 64.324219 126.628906 62.191406 128.105469 60 C 130.40625 56.441406 132.707031 52.882812 135.121094 49.257812 C 137.773438 45.300781 140.429688 41.347656 143.070312 37.382812 C 143.222656 37.152344 143.230469 36.824219 143.289062 36.488281 C 135.398438 36.441406 127.507812 36.386719 119.617188 36.355469 C 118.363281 36.347656 117.109375 36.5 115.851562 36.492188 C 112.132812 36.460938 108.410156 36.386719 104.507812 36.300781 M 70.023438 169.085938 C 70.023438 169.085938 70.019531 169.074219 70.023438 169.085938 Z M 70.023438 169.085938 "/>
<path style=" stroke:none;fill-rule:nonzero;fill:rgb(92.54902%,48.235294%,1.568627%);fill-opacity:1;" d="M 114.832031 80.316406 C 113.332031 82.667969 111.832031 85.023438 110.324219 87.371094 C 108.429688 90.328125 106.53125 93.28125 104.503906 96.433594 C 115.40625 96.433594 126.125 96.433594 137.039062 96.433594 C 132.578125 101.179688 128.289062 105.746094 123.871094 110.316406 C 123.210938 110.007812 122.707031 109.644531 122.152344 110.359375 C 122.074219 110.460938 121.230469 110.214844 121.191406 110.03125 C 120.90625 108.707031 119.863281 108.046875 119.027344 107.191406 C 118.808594 106.964844 118.757812 106.566406 118.539062 106.015625 C 118.414062 106.066406 118.042969 106.28125 117.644531 106.367188 C 117.320312 106.441406 116.855469 106.507812 116.636719 106.332031 C 116.011719 105.84375 115.496094 105.210938 114.902344 104.679688 C 114.5625 104.375 114.152344 104.160156 113.679688 103.839844 C 113.871094 103.179688 113.394531 103.058594 112.699219 103.3125 C 112.199219 103.496094 111.960938 103.390625 111.699219 102.910156 C 111.226562 102.035156 110.28125 101.847656 109.371094 102.328125 C 109.183594 102.429688 108.953125 102.488281 108.742188 102.496094 C 108.230469 102.519531 107.714844 102.503906 107.179688 102.503906 C 106.941406 101.671875 105.96875 100.886719 105.058594 100.78125 C 104.75 100.746094 104.449219 100.605469 104.15625 100.484375 C 103.402344 100.171875 102.664062 99.828125 101.914062 99.519531 C 101.453125 99.332031 100.957031 99.222656 100.511719 99.011719 C 100.023438 98.777344 99.523438 98.519531 99.117188 98.167969 C 97.996094 97.207031 96.289062 97.605469 95.289062 96.410156 C 95.265625 96.382812 95.167969 96.421875 95.042969 96.433594 C 94.820312 97.355469 94.296875 97.339844 93.621094 96.84375 C 93.472656 96.734375 93.246094 96.628906 93.082031 96.65625 C 92.035156 96.832031 91.417969 96.027344 90.914062 95.425781 C 90.265625 94.648438 89.78125 94.492188 88.863281 94.886719 C 87.84375 95.320312 87.414062 94.988281 87.304688 93.910156 C 87.210938 92.988281 86.65625 92.601562 85.839844 92.460938 C 85.492188 92.402344 85.03125 92.453125 84.820312 92.246094 C 83.96875 91.40625 82.980469 91.570312 81.972656 91.675781 C 81.699219 91.703125 81.234375 91.753906 81.160156 91.617188 C 80.753906 90.867188 80.207031 91.058594 79.589844 91.210938 C 79.339844 91.277344 79.007812 91.167969 78.777344 91.027344 C 78.707031 90.984375 78.789062 90.558594 78.890625 90.351562 C 79.277344 89.574219 79.113281 89.015625 78.316406 88.667969 C 81.855469 81.265625 85.390625 73.867188 89.050781 66.421875 C 89.421875 66.253906 89.671875 66.128906 89.757812 66.085938 C 90.6875 66.753906 91.449219 67.597656 92.375 67.882812 C 93.414062 68.199219 94.121094 69.652344 95.496094 68.90625 C 95.589844 68.859375 95.839844 69.136719 96.027344 69.246094 C 96.347656 69.433594 96.667969 69.625 97 69.792969 C 97.257812 69.917969 97.648438 69.929688 97.785156 70.132812 C 98.753906 71.546875 100.433594 71.230469 101.707031 71.871094 C 101.964844 71.996094 102.273438 72.15625 102.394531 72.390625 C 102.980469 73.519531 103.789062 74.082031 105.109375 74.21875 C 106.402344 74.351562 107.832031 74.398438 108.738281 75.753906 C 109.277344 76.558594 110.023438 77.230469 110.738281 77.894531 C 111.128906 78.257812 111.894531 78.371094 112.070312 78.785156 C 112.632812 80.09375 113.648438 80.308594 114.832031 80.316406 M 119.664062 106.5625 C 119.761719 106.554688 119.855469 106.546875 119.949219 106.539062 C 119.933594 106.484375 119.914062 106.429688 119.898438 106.375 C 119.8125 106.410156 119.726562 106.445312 119.664062 106.5625 Z M 119.664062 106.5625 "/>
<path style=" stroke:none;fill-rule:nonzero;fill:rgb(88.235294%,43.921569%,1.176471%);fill-opacity:1;" d="M 112.273438 123.253906 C 109.960938 125.800781 107.65625 128.355469 105.328125 130.890625 C 100.585938 136.058594 95.835938 141.214844 91.082031 146.371094 C 87.042969 150.753906 82.992188 155.125 78.960938 159.519531 C 76.414062 162.300781 73.898438 165.117188 71.363281 167.910156 C 71.050781 168.253906 70.683594 168.546875 70.34375 168.863281 C 77.265625 152.800781 84.160156 136.796875 91.125 120.632812 C 81.6875 120.632812 72.460938 120.632812 63.046875 120.632812 C 65.398438 115.726562 67.675781 110.972656 70.070312 106.207031 C 70.847656 106.472656 71.300781 106.234375 71.65625 105.636719 C 71.910156 105.214844 72.203125 104.8125 72.511719 104.433594 C 73.078125 103.738281 73.65625 103.613281 74.429688 104.238281 C 75.007812 104.699219 75.75 104.945312 76.574219 105.363281 C 76.742188 106.078125 76.796875 106.195312 77.636719 106.3125 C 79.207031 106.53125 80.40625 107.003906 80.363281 108.984375 C 80.335938 110.308594 82.007812 109.324219 82.359375 110.300781 C 82.390625 110.394531 82.761719 110.378906 82.972656 110.378906 C 83.054688 110.378906 83.144531 110.285156 83.210938 110.214844 C 83.78125 109.640625 84.089844 109.949219 84.371094 110.535156 C 84.5 110.796875 84.820312 111.230469 84.9375 111.195312 C 86.023438 110.859375 86.304688 111.445312 86.480469 112.367188 C 86.550781 112.742188 86.914062 113.0625 87.027344 113.238281 C 87.8125 113.238281 88.578125 113 88.984375 113.289062 C 89.890625 113.933594 90.695312 114.78125 91.398438 115.660156 C 91.875 116.257812 92.253906 116.40625 92.851562 115.976562 C 93.078125 115.816406 93.300781 115.660156 93.660156 115.40625 C 93.566406 115.855469 93.480469 116.132812 93.449219 116.417969 C 93.355469 117.34375 93.867188 117.78125 94.707031 117.585938 C 95.613281 117.378906 96.535156 117.238281 97.429688 117.074219 C 97.3125 117.53125 97.191406 117.988281 97.007812 118.703125 C 97.582031 118.46875 97.886719 118.417969 98.101562 118.246094 C 98.835938 117.675781 99.558594 117.746094 100.378906 118.070312 C 101.042969 118.335938 101.777344 118.414062 102.476562 118.589844 C 102.800781 118.667969 103.113281 118.777344 103.527344 118.902344 C 103.148438 119.425781 102.871094 119.8125 102.5625 120.238281 C 103.691406 120.613281 104.660156 120.929688 105.628906 121.25 C 105.917969 120.917969 106.332031 120.628906 106.621094 120.726562 C 107.378906 120.984375 107.121094 121.558594 106.730469 122.089844 C 107.800781 122.355469 108.78125 122.597656 109.824219 122.859375 C 109.648438 123.21875 109.488281 123.542969 109.328125 123.867188 C 109.378906 123.953125 109.429688 124.035156 109.476562 124.121094 C 110.410156 123.832031 111.339844 123.542969 112.273438 123.253906 M 78.136719 107.800781 C 78.125 107.800781 78.113281 107.800781 78.136719 107.800781 Z M 78.136719 107.800781 "/>
<path style=" stroke:none;fill-rule:nonzero;fill:rgb(89.803922%,45.882353%,1.568627%);fill-opacity:1;" d="M 112.324219 123.210938 C 111.339844 123.542969 110.410156 123.832031 109.476562 124.121094 C 109.429688 124.035156 109.378906 123.953125 109.328125 123.867188 C 109.488281 123.542969 109.648438 123.21875 109.824219 122.859375 C 108.78125 122.597656 107.800781 122.355469 106.730469 122.089844 C 107.121094 121.558594 107.378906 120.984375 106.621094 120.726562 C 106.332031 120.628906 105.917969 120.917969 105.628906 121.25 C 104.660156 120.929688 103.691406 120.613281 102.5625 120.238281 C 102.871094 119.8125 103.148438 119.425781 103.527344 118.902344 C 103.113281 118.777344 102.800781 118.667969 102.476562 118.589844 C 101.777344 118.414062 101.042969 118.335938 100.378906 118.070312 C 99.558594 117.746094 98.835938 117.675781 98.101562 118.246094 C 97.886719 118.417969 97.582031 118.46875 97.007812 118.703125 C 97.191406 117.988281 97.3125 117.53125 97.429688 117.074219 C 96.535156 117.238281 95.613281 117.378906 94.707031 117.585938 C 93.867188 117.78125 93.355469 117.34375 93.449219 116.417969 C 93.480469 116.132812 93.566406 115.855469 93.660156 115.40625 C 93.300781 115.660156 93.078125 115.816406 92.851562 115.976562 C 92.253906 116.40625 91.875 116.257812 91.398438 115.660156 C 90.695312 114.78125 89.890625 113.933594 88.984375 113.289062 C 88.578125 113 87.8125 113.238281 87.027344 113.238281 C 86.914062 113.0625 86.550781 112.742188 86.480469 112.367188 C 86.304688 111.445312 86.023438 110.859375 84.9375 111.195312 C 84.820312 111.230469 84.5 110.796875 84.371094 110.535156 C 84.089844 109.949219 83.78125 109.640625 83.210938 110.214844 C 83.144531 110.285156 83.054688 110.378906 82.972656 110.378906 C 82.761719 110.378906 82.390625 110.394531 82.359375 110.300781 C 82.007812 109.324219 80.335938 110.308594 80.363281 108.984375 C 80.40625 107.003906 79.207031 106.53125 77.636719 106.3125 C 76.796875 106.195312 76.742188 106.078125 76.574219 105.363281 C 75.75 104.945312 75.007812 104.699219 74.429688 104.238281 C 73.65625 103.613281 73.078125 103.738281 72.511719 104.433594 C 72.203125 104.8125 71.910156 105.214844 71.65625 105.636719 C 71.300781 106.234375 70.847656 106.472656 70.121094 106.160156 C 71.605469 102.765625 73.144531 99.386719 74.71875 96.027344 C 75.859375 93.589844 77.042969 91.175781 78.261719 88.707031 C 79.113281 89.015625 79.277344 89.574219 78.890625 90.351562 C 78.789062 90.558594 78.707031 90.984375 78.777344 91.027344 C 79.007812 91.167969 79.339844 91.277344 79.589844 91.210938 C 80.207031 91.058594 80.753906 90.867188 81.160156 91.617188 C 81.234375 91.753906 81.699219 91.703125 81.972656 91.675781 C 82.980469 91.570312 83.96875 91.40625 84.820312 92.246094 C 85.03125 92.453125 85.492188 92.402344 85.839844 92.460938 C 86.65625 92.601562 87.210938 92.988281 87.304688 93.910156 C 87.414062 94.988281 87.84375 95.320312 88.863281 94.886719 C 89.78125 94.492188 90.265625 94.648438 90.914062 95.425781 C 91.417969 96.027344 92.035156 96.832031 93.082031 96.65625 C 93.246094 96.628906 93.472656 96.734375 93.621094 96.84375 C 94.296875 97.339844 94.820312 97.355469 95.042969 96.433594 C 95.167969 96.421875 95.265625 96.382812 95.289062 96.410156 C 96.289062 97.605469 97.996094 97.207031 99.117188 98.167969 C 99.523438 98.519531 100.023438 98.777344 100.511719 99.011719 C 100.957031 99.222656 101.453125 99.332031 101.914062 99.519531 C 102.664062 99.828125 103.402344 100.171875 104.15625 100.484375 C 104.449219 100.605469 104.75 100.746094 105.058594 100.78125 C 105.96875 100.886719 106.941406 101.671875 107.179688 102.503906 C 107.714844 102.503906 108.230469 102.519531 108.742188 102.496094 C 108.953125 102.488281 109.183594 102.429688 109.371094 102.328125 C 110.28125 101.847656 111.226562 102.035156 111.699219 102.910156 C 111.960938 103.390625 112.199219 103.496094 112.699219 103.3125 C 113.394531 103.058594 113.871094 103.179688 113.679688 103.839844 C 114.152344 104.160156 114.5625 104.375 114.902344 104.679688 C 115.496094 105.210938 116.011719 105.84375 116.636719 106.332031 C 116.855469 106.507812 117.320312 106.441406 117.644531 106.367188 C 118.042969 106.28125 118.414062 106.066406 118.539062 106.015625 C 118.757812 106.566406 118.808594 106.964844 119.027344 107.191406 C 119.863281 108.046875 120.90625 108.707031 121.191406 110.03125 C 121.230469 110.214844 122.074219 110.460938 122.152344 110.359375 C 122.707031 109.644531 123.210938 110.007812 123.8125 110.339844 C 122.335938 112.121094 120.808594 113.902344 119.242188 115.644531 C 116.96875 118.167969 114.667969 120.664062 112.324219 123.210938 Z M 112.324219 123.210938 "/>
<path style=" stroke:none;fill-rule:nonzero;fill:rgb(96.862745%,52.156863%,1.568627%);fill-opacity:1;" d="M 114.882812 80.269531 C 113.648438 80.308594 112.632812 80.09375 112.070312 78.785156 C 111.894531 78.371094 111.128906 78.257812 110.738281 77.894531 C 110.023438 77.230469 109.277344 76.558594 108.738281 75.753906 C 107.832031 74.398438 106.402344 74.351562 105.109375 74.21875 C 103.789062 74.082031 102.980469 73.519531 102.394531 72.390625 C 102.273438 72.15625 101.964844 71.996094 101.707031 71.871094 C 100.433594 71.230469 98.753906 71.546875 97.785156 70.132812 C 97.648438 69.929688 97.257812 69.917969 97 69.792969 C 96.667969 69.625 96.347656 69.433594 96.027344 69.246094 C 95.839844 69.136719 95.589844 68.859375 95.496094 68.90625 C 94.121094 69.652344 93.414062 68.199219 92.375 67.882812 C 91.449219 67.597656 90.6875 66.753906 89.757812 66.085938 C 89.671875 66.128906 89.421875 66.253906 89.105469 66.386719 C 89.945312 64.417969 90.828125 62.433594 91.75 60.46875 C 94.171875 55.304688 96.613281 50.148438 99.15625 44.984375 C 99.542969 45.34375 99.878906 45.675781 100.078125 46.082031 C 100.414062 46.753906 100.824219 47.113281 101.628906 47.183594 C 102.300781 47.242188 102.988281 47.574219 103.578125 47.9375 C 104.8125 48.695312 105.960938 49.59375 107.195312 50.34375 C 107.566406 50.566406 108.109375 50.480469 108.570312 50.5625 C 108.917969 50.621094 109.308594 50.644531 109.589844 50.828125 C 110.367188 51.332031 111.101562 51.914062 111.949219 52.53125 C 111.84375 53.035156 111.964844 53.582031 112.738281 53.804688 C 112.882812 53.847656 112.945312 54.121094 113.082031 54.253906 C 113.394531 54.5625 113.6875 54.976562 114.066406 55.109375 C 114.726562 55.339844 115.519531 55.273438 115.566406 56.300781 C 115.570312 56.382812 115.898438 56.546875 116.042969 56.511719 C 116.769531 56.347656 117.242188 56.707031 117.78125 57.140625 C 118.300781 57.558594 118.957031 57.820312 119.589844 58.054688 C 120.691406 58.46875 121.980469 58.449219 122.445312 59.972656 C 122.644531 60.628906 124.410156 61.566406 125.089844 61.605469 C 125.40625 61.621094 125.757812 61.425781 126.058594 61.257812 C 126.714844 60.882812 127.347656 60.464844 127.992188 60.0625 C 126.628906 62.191406 125.28125 64.324219 123.90625 66.441406 C 120.921875 71.042969 117.925781 75.632812 114.882812 80.269531 Z M 114.882812 80.269531 "/>
<path style=" stroke:none;fill-rule:nonzero;fill:rgb(99.607843%,56.470588%,1.568627%);fill-opacity:1;" d="M 128.046875 60.03125 C 127.347656 60.464844 126.714844 60.882812 126.058594 61.257812 C 125.757812 61.425781 125.40625 61.621094 125.089844 61.605469 C 124.410156 61.566406 122.644531 60.628906 122.445312 59.972656 C 121.980469 58.449219 120.691406 58.46875 119.589844 58.054688 C 118.957031 57.820312 118.300781 57.558594 117.78125 57.140625 C 117.242188 56.707031 116.769531 56.347656 116.042969 56.511719 C 115.898438 56.546875 115.570312 56.382812 115.566406 56.300781 C 115.519531 55.273438 114.726562 55.339844 114.066406 55.109375 C 113.6875 54.976562 113.394531 54.5625 113.082031 54.253906 C 112.945312 54.121094 112.882812 53.847656 112.738281 53.804688 C 111.964844 53.582031 111.84375 53.035156 111.949219 52.53125 C 111.101562 51.914062 110.367188 51.332031 109.589844 50.828125 C 109.308594 50.644531 108.917969 50.621094 108.570312 50.5625 C 108.109375 50.480469 107.566406 50.566406 107.195312 50.34375 C 105.960938 49.59375 104.8125 48.695312 103.578125 47.9375 C 102.988281 47.574219 102.300781 47.242188 101.628906 47.183594 C 100.824219 47.113281 100.414062 46.753906 100.078125 46.082031 C 99.878906 45.675781 99.542969 45.34375 99.207031 44.941406 C 100.4375 42.160156 101.730469 39.414062 103.160156 36.625 C 105.863281 36.734375 108.40625 36.449219 110.992188 37.125 C 113.90625 37.886719 116.617188 38.964844 119.1875 40.488281 C 120.566406 41.304688 121.886719 42.230469 123.292969 43 C 124.886719 43.871094 126.550781 44.621094 128.171875 45.441406 C 128.363281 45.535156 128.574219 45.722656 128.636719 45.914062 C 129.15625 47.535156 130.75 47.925781 131.875 48.839844 C 132.214844 49.117188 132.792969 49.121094 133.273438 49.1875 C 133.847656 49.265625 134.429688 49.28125 135.003906 49.320312 C 132.707031 52.882812 130.40625 56.441406 128.046875 60.03125 Z M 128.046875 60.03125 "/>
<path style=" stroke:none;fill-rule:nonzero;fill:rgb(99.607843%,61.176471%,1.960784%);fill-opacity:1;" d="M 135.0625 49.289062 C 134.429688 49.28125 133.847656 49.265625 133.273438 49.1875 C 132.792969 49.121094 132.214844 49.117188 131.875 48.839844 C 130.75 47.925781 129.15625 47.535156 128.636719 45.914062 C 128.574219 45.722656 128.363281 45.535156 128.171875 45.441406 C 126.550781 44.621094 124.886719 43.871094 123.292969 43 C 121.886719 42.230469 120.566406 41.304688 119.1875 40.488281 C 116.617188 38.964844 113.90625 37.886719 110.992188 37.125 C 108.40625 36.449219 105.863281 36.734375 103.207031 36.578125 C 103.578125 36.484375 104.042969 36.390625 104.652344 36.34375 C 108.984375 36.464844 113.171875 36.585938 117.359375 36.617188 C 121.652344 36.648438 125.945312 36.585938 130.234375 36.570312 C 134.59375 36.554688 138.949219 36.550781 143.304688 36.539062 C 143.230469 36.824219 143.222656 37.152344 143.070312 37.382812 C 140.429688 41.347656 137.773438 45.300781 135.0625 49.289062 Z M 135.0625 49.289062 "/>
<path style=" stroke:none;fill-rule:nonzero;fill:rgb(88.235294%,43.921569%,1.176471%);fill-opacity:1;" d="M 143.296875 36.515625 C 138.949219 36.550781 134.59375 36.554688 130.234375 36.570312 C 125.945312 36.585938 121.652344 36.648438 117.359375 36.617188 C 113.171875 36.585938 108.984375 36.464844 104.742188 36.359375 C 108.410156 36.386719 112.132812 36.460938 115.851562 36.492188 C 117.109375 36.5 118.363281 36.347656 119.617188 36.355469 C 127.507812 36.386719 135.398438 36.441406 143.296875 36.515625 Z M 143.296875 36.515625 "/>
<path style=" stroke:none;fill-rule:nonzero;fill:rgb(89.803922%,45.882353%,1.568627%);fill-opacity:1;" d="M 119.652344 106.523438 C 119.726562 106.445312 119.8125 106.410156 119.898438 106.375 C 119.914062 106.429688 119.933594 106.484375 119.949219 106.539062 C 119.855469 106.546875 119.761719 106.554688 119.652344 106.523438 Z M 119.652344 106.523438 "/>
</g>
</svg>
