<svg width="200" height="200" viewBox="0 0 200 200" fill="none" xmlns="http://www.w3.org/2000/svg">
<g clip-path="url(#clip0_4355_80761)">
<path fill-rule="evenodd" clip-rule="evenodd" d="M175.13 165.998C190.612 148.388 200 125.29 200 100C200 44.7716 155.228 0 100 0C44.7716 0 0 44.7716 0 100C0 155.228 44.7716 200 100 200C109.074 200 117.865 198.792 126.222 196.527C111.011 191.652 100 177.393 100 160.563C100 139.709 116.905 122.804 137.759 122.804C158.613 122.804 175.518 139.709 175.518 160.563C175.518 162.409 175.386 164.223 175.13 165.998Z" fill="#D5E2FC"/>
<mask id="mask0_4355_80761" style="mask-type:alpha" maskUnits="userSpaceOnUse" x="0" y="0" width="200" height="200">
<path fill-rule="evenodd" clip-rule="evenodd" d="M175.13 165.998C190.612 148.388 200 125.29 200 100C200 44.7716 155.228 0 100 0C44.7716 0 0 44.7716 0 100C0 155.228 44.7716 200 100 200C109.074 200 117.865 198.792 126.222 196.527C111.011 191.652 100 177.393 100 160.563C100 139.709 116.905 122.804 137.759 122.804C158.613 122.804 175.518 139.709 175.518 160.563C175.518 162.409 175.386 164.223 175.13 165.998Z" fill="#F7931A"/>
</mask>
<g mask="url(#mask0_4355_80761)">
<path fill-rule="evenodd" clip-rule="evenodd" d="M85.5664 92.1649L99.5999 123.287L120.487 111.247L120.502 111.241V87.1411L85.5664 92.1649Z" fill="#2BBDF7"/>
<path fill-rule="evenodd" clip-rule="evenodd" d="M147.525 69.0718L134.488 64.1613L120.555 63.0359V137.928L141.457 149.975L157.955 116.212L147.55 83.5643L147.525 69.0718Z" fill="#2891F9"/>
<path fill-rule="evenodd" clip-rule="evenodd" d="M146.215 63.061L141.373 75.1046H141.367V149.988L162.273 137.944V63.061H146.215Z" fill="#2BBDF7"/>
<path fill-rule="evenodd" clip-rule="evenodd" d="M141.46 50.9958L120.555 63.0488L141.46 75.0987L162.366 63.0488L141.46 50.9958Z" fill="#2B6DEF"/>
<path fill-rule="evenodd" clip-rule="evenodd" d="M99.6132 99.1823V99.1761L78.7106 75.7868L36.9023 63.0359V137.919L57.8017 149.969L63.7747 108.529L78.7106 111.242V111.229L99.6163 123.276V99.1823H99.6132Z" fill="#2891F9"/>
<path fill-rule="evenodd" clip-rule="evenodd" d="M57.8143 50.9958L36.9023 63.0457L99.6067 99.2047L109.082 93.7441L120.509 87.1518L57.8143 50.9958Z" fill="#2B6DEF"/>
<path fill-rule="evenodd" clip-rule="evenodd" d="M57.8195 99.1814H57.8164V149.965L78.722 137.918V111.231L57.8195 99.1814Z" fill="#2BBDF7"/>
</g>
<path d="M166.684 160.592C166.684 176.634 153.732 189.595 137.681 189.595C121.629 189.595 108.688 176.634 108.688 160.592C108.688 153.603 111.155 147.325 115.163 142.29C115.469 141.876 115.775 141.471 116.19 141.155C121.54 135.291 129.142 131.589 137.681 131.589C143.288 131.589 148.51 133.169 152.942 135.913C156.684 138.223 159.852 141.372 162.202 145.084C165.045 149.576 166.684 154.886 166.684 160.592Z" fill="#606060"/>
<path d="M166.684 160.592C166.684 176.634 153.732 189.595 137.681 189.595C121.629 189.595 108.688 176.634 108.688 160.592C108.688 153.603 111.155 147.325 115.163 142.29C115.469 141.876 115.775 141.471 116.19 141.155C121.54 135.291 129.142 131.589 137.681 131.589C143.288 131.589 148.51 133.169 152.942 135.913C156.684 138.223 159.852 141.372 162.202 145.084C165.045 149.576 166.684 154.886 166.684 160.592Z" fill="#8247E5"/>
<path d="M148.044 154.003C147.295 153.576 146.332 153.576 145.475 154.003L139.48 157.528L135.413 159.772L129.525 163.297C128.775 163.724 127.812 163.724 126.956 163.297L122.352 160.519C121.603 160.092 121.068 159.237 121.068 158.276V152.935C121.068 152.08 121.496 151.226 122.352 150.691L126.956 148.021C127.705 147.593 128.668 147.593 129.525 148.021L134.128 150.798C134.877 151.226 135.413 152.08 135.413 153.042V156.567L139.48 154.217V150.585C139.48 149.73 139.052 148.875 138.196 148.341L129.632 143.32C128.883 142.893 127.919 142.893 127.063 143.32L118.285 148.448C117.428 148.875 117 149.73 117 150.585V160.626C117 161.481 117.428 162.335 118.285 162.869L126.956 167.89C127.705 168.318 128.668 168.318 129.525 167.89L135.413 164.472L139.48 162.122L145.368 158.703C146.117 158.276 147.081 158.276 147.937 158.703L152.54 161.374C153.29 161.801 153.825 162.656 153.825 163.617V168.958C153.825 169.813 153.397 170.668 152.54 171.202L148.044 173.872C147.295 174.3 146.332 174.3 145.475 173.872L140.872 171.202C140.123 170.774 139.587 169.92 139.587 168.958V165.54L135.52 167.89V171.415C135.52 172.27 135.948 173.125 136.804 173.659L145.475 178.68C146.225 179.107 147.188 179.107 148.044 178.68L156.715 173.659C157.465 173.231 158 172.377 158 171.415V161.267C158 160.412 157.572 159.558 156.715 159.024L148.044 154.003Z" fill="white"/>
</g>
<defs>
<clipPath id="clip0_4355_80761">
<rect width="200" height="200" fill="white"/>
</clipPath>
</defs>
</svg>
