<?xml version="1.0" encoding="UTF-8"?>
<!DOCTYPE svg PUBLIC "-//W3C//DTD SVG 1.1//EN" "http://www.w3.org/Graphics/SVG/1.1/DTD/svg11.dtd">
<svg xmlns="http://www.w3.org/2000/svg" version="1.1" width="160px" height="160px" style="shape-rendering:geometricPrecision; text-rendering:geometricPrecision; image-rendering:optimizeQuality; fill-rule:evenodd; clip-rule:evenodd" xmlns:xlink="http://www.w3.org/1999/xlink">
<g><path style="opacity:0.243" fill="#fcfbf6" d="M 120.5,109.5 C 121.316,105.853 122.816,102.52 125,99.5C 129.667,85.8333 129.667,72.1667 125,58.5C 124.434,55.7713 122.934,53.7713 120.5,52.5C 120.5,51.1667 119.833,50.5 118.5,50.5C 118.657,49.1266 118.49,47.7932 118,46.5C 101.822,29.4433 82.3223,23.9433 59.5,30C 56.3283,31.6966 53.3283,33.5299 50.5,35.5C 48.2512,36.0798 46.5846,37.4131 45.5,39.5C 40.0751,43.6513 35.0751,48.318 30.5,53.5C 42.7938,31.8542 61.4605,22.6876 86.5,26C 110.333,31.1667 124.833,45.6667 130,69.5C 132.455,84.3396 129.288,97.673 120.5,109.5 Z"/></g>
<g><path style="opacity:1" fill="#e4d096" d="M 99.5,38.5 C 94.5933,36.9221 89.5933,35.4221 84.5,34C 65.7489,31.5168 50.7489,37.6835 39.5,52.5C 39.7086,51.0783 40.2086,49.745 41,48.5C 54.3514,33.0648 70.8514,27.8981 90.5,33C 93.7352,34.7949 96.7352,36.6283 99.5,38.5 Z"/></g>
<g><path style="opacity:1" fill="#f3ead1" d="M 118.5,50.5 C 115.833,48.1667 113.167,45.8333 110.5,43.5C 108.251,42.9202 106.585,41.5869 105.5,39.5C 102.921,36.8652 99.921,34.6985 96.5,33C 86.3974,29.7659 76.0641,28.7659 65.5,30C 60.3882,31.5372 55.3882,33.3705 50.5,35.5C 53.3283,33.5299 56.3283,31.6966 59.5,30C 82.3223,23.9433 101.822,29.4433 118,46.5C 118.49,47.7932 118.657,49.1266 118.5,50.5 Z"/></g>
<g><path style="opacity:1" fill="#dbc174" d="M 99.5,38.5 C 99.369,39.2389 99.5357,39.9056 100,40.5C 108.561,45.7284 114.561,53.0617 118,62.5C 125.097,80.7661 121.764,96.7661 108,110.5C 95.283,123.46 80.1163,127.294 62.5,122C 57.8635,118.898 52.8635,116.565 47.5,115C 31.6169,96.7238 28.2835,76.2238 37.5,53.5C 38.1667,53.1667 38.8333,52.8333 39.5,52.5C 50.7489,37.6835 65.7489,31.5168 84.5,34C 89.5933,35.4221 94.5933,36.9221 99.5,38.5 Z"/></g>
<g><path style="opacity:1" fill="#d6b961" d="M 97.5,42.5 C 73.8664,33.1727 55.0331,38.8394 41,59.5C 31.6812,83.3661 37.5146,102.366 58.5,116.5C 52.5165,115.045 47.6832,111.712 44,106.5C 27.9699,81.1207 31.8033,59.2873 55.5,41C 67.7976,36.1964 80.4643,35.1964 93.5,38C 95.0414,39.3712 96.3747,40.8712 97.5,42.5 Z"/></g>
<g><path style="opacity:1" fill="#d3b354" d="M 97.5,42.5 C 98.9778,42.238 100.311,42.5713 101.5,43.5C 106.92,50.0247 112.086,56.6913 117,63.5C 119.444,75.3871 118.777,87.0538 115,98.5C 103.866,116.311 87.6989,123.811 66.5,121C 63.7215,119.529 61.0548,118.029 58.5,116.5C 37.5146,102.366 31.6812,83.3661 41,59.5C 55.0331,38.8394 73.8664,33.1727 97.5,42.5 Z"/></g>
<g><path style="opacity:1" fill="#fcfbfa" d="M 70.5,41.5 C 92.5593,40.0969 107.059,49.7635 114,70.5C 116.216,94.5912 105.716,109.758 82.5,116C 59.6143,117.304 45.4477,106.804 40,84.5C 38.729,61.9525 48.8957,47.6191 70.5,41.5 Z"/></g>
<g><path style="opacity:1" fill="#f4edd7" d="M 45.5,39.5 C 31.3174,53.547 25.3174,70.547 27.5,90.5C 25.571,84.0845 25.071,77.4178 26,70.5C 27.8122,64.8998 29.3122,59.2331 30.5,53.5C 35.0751,48.318 40.0751,43.6513 45.5,39.5 Z"/></g>
<g><path style="opacity:1" fill="#f3ecd4" d="M 120.5,52.5 C 122.934,53.7713 124.434,55.7713 125,58.5C 129.667,72.1667 129.667,85.8333 125,99.5C 122.816,102.52 121.316,105.853 120.5,109.5C 116.299,113.105 112.299,116.938 108.5,121C 103.38,123.06 98.3797,125.393 93.5,128C 84.5623,129.548 75.5623,129.881 66.5,129C 64.2774,128.434 62.2774,127.6 60.5,126.5C 77.0061,130.416 92.6727,128.249 107.5,120C 127.328,100.591 131.661,78.0909 120.5,52.5 Z"/></g>
<g><path style="opacity:1" fill="#ecdeb5" d="M 105.5,39.5 C 103.435,39.4828 101.435,39.1495 99.5,38.5C 96.7352,36.6283 93.7352,34.7949 90.5,33C 70.8514,27.8981 54.3514,33.0648 41,48.5C 40.2086,49.745 39.7086,51.0783 39.5,52.5C 38.8333,52.8333 38.1667,53.1667 37.5,53.5C 29.8578,65.0126 27.6912,77.6792 31,91.5C 31.5713,95.4568 32.9046,99.1235 35,102.5C 39.9422,108.201 44.7755,114.035 49.5,120C 61.7804,126.07 74.7804,128.07 88.5,126C 95,122.155 101.667,118.489 108.5,115C 112.999,108.842 117.499,102.675 122,96.5C 126.037,82.4865 125.203,68.8198 119.5,55.5C 116.511,51.5085 113.511,47.5085 110.5,43.5C 113.167,45.8333 115.833,48.1667 118.5,50.5C 119.833,50.5 120.5,51.1667 120.5,52.5C 131.661,78.0909 127.328,100.591 107.5,120C 92.6727,128.249 77.0061,130.416 60.5,126.5C 47.8197,123.985 39.3197,116.651 35,104.5C 31.0868,100.596 28.5868,95.9297 27.5,90.5C 25.3174,70.547 31.3174,53.547 45.5,39.5C 46.5846,37.4131 48.2512,36.0798 50.5,35.5C 55.3882,33.3705 60.3882,31.5372 65.5,30C 76.0641,28.7659 86.3974,29.7659 96.5,33C 99.921,34.6985 102.921,36.8652 105.5,39.5 Z"/></g>
<g><path style="opacity:1" fill="#e2cd90" d="M 99.5,38.5 C 101.435,39.1495 103.435,39.4828 105.5,39.5C 106.585,41.5869 108.251,42.9202 110.5,43.5C 113.511,47.5085 116.511,51.5085 119.5,55.5C 125.203,68.8198 126.037,82.4865 122,96.5C 117.499,102.675 112.999,108.842 108.5,115C 101.667,118.489 95,122.155 88.5,126C 74.7804,128.07 61.7804,126.07 49.5,120C 44.7755,114.035 39.9422,108.201 35,102.5C 32.9046,99.1235 31.5713,95.4568 31,91.5C 27.6912,77.6792 29.8578,65.0126 37.5,53.5C 28.2835,76.2238 31.6169,96.7238 47.5,115C 52.8635,116.565 57.8635,118.898 62.5,122C 80.1163,127.294 95.283,123.46 108,110.5C 121.764,96.7661 125.097,80.7661 118,62.5C 114.561,53.0617 108.561,45.7284 100,40.5C 99.5357,39.9056 99.369,39.2389 99.5,38.5 Z"/></g>
<g><path style="opacity:1" fill="#6a6f71" d="M 65.5,77.5 C 64.209,77.2627 63.209,77.596 62.5,78.5C 61.0783,78.2914 59.745,77.7914 58.5,77C 61.0385,76.2042 63.3718,76.3709 65.5,77.5 Z"/></g>
<g><path style="opacity:1" fill="#353c3f" d="M 62.5,78.5 C 63.209,77.596 64.209,77.2627 65.5,77.5C 66.5,77.5 67.5,77.5 68.5,77.5C 63.494,63.9985 68.1606,58.4985 82.5,61C 88.5529,62.7739 93.7196,65.9405 98,70.5C 99.2893,72.0548 99.956,73.7215 100,75.5C 94.3657,72.2662 88.5324,69.4329 82.5,67C 79.8333,66.3333 77.1667,66.3333 74.5,67C 73.0564,68.126 72.3898,69.626 72.5,71.5C 73.3504,78.1998 76.5171,83.5331 82,87.5C 83.6667,91.5 85.3333,95.5 87,99.5C 89.087,100.794 91.2537,101.961 93.5,103C 88.5626,104.369 84.396,103.203 81,99.5C 73.7848,104.558 66.2848,104.725 58.5,100C 54.2166,96.5546 50.8833,92.3879 48.5,87.5C 48.8333,87.1667 49.1667,86.8333 49.5,86.5C 54.0928,91.5902 59.4261,95.7569 65.5,99C 74.388,100.779 77.888,97.2788 76,88.5C 72.467,83.7921 67.967,80.4588 62.5,78.5 Z"/></g>
<g><path style="opacity:1" fill="#333a3d" d="M 90.5,53.5 C 97.4863,53.331 99.153,56.1643 95.5,62C 88.4159,62.475 86.7492,59.6417 90.5,53.5 Z"/></g>
<g><path style="opacity:0.902" fill="#fbf9f1" d="M 30.5,53.5 C 29.3122,59.2331 27.8122,64.8998 26,70.5C 25.071,77.4178 25.571,84.0845 27.5,90.5C 28.5868,95.9297 31.0868,100.596 35,104.5C 39.3197,116.651 47.8197,123.985 60.5,126.5C 62.2774,127.6 64.2774,128.434 66.5,129C 75.5623,129.881 84.5623,129.548 93.5,128C 98.3797,125.393 103.38,123.06 108.5,121C 112.299,116.938 116.299,113.105 120.5,109.5C 114.788,118.702 106.788,125.202 96.5,129C 72.6088,136.733 52.1088,131.233 35,112.5C 23.0038,95.6644 20.3371,77.6644 27,58.5C 28.1889,56.7669 29.3556,55.1002 30.5,53.5 Z"/></g>
</svg>
