<?xml version="1.0" encoding="UTF-8"?>
<svg xmlns="http://www.w3.org/2000/svg" xmlns:xlink="http://www.w3.org/1999/xlink" width="200px" height="200px" viewBox="0 0 200 200" version="1.1">
<defs>
<filter id="alpha" filterUnits="objectBoundingBox" x="0%" y="0%" width="100%" height="100%">
  <feColorMatrix type="matrix" in="SourceGraphic" values="0 0 0 0 1 0 0 0 0 1 0 0 0 0 1 0 0 0 1 0"/>
</filter>
<mask id="mask0">
  <g filter="url(#alpha)">
<rect x="0" y="0" width="200" height="200" style="fill:rgb(0%,0%,0%);fill-opacity:0.243137;stroke:none;"/>
  </g>
</mask>
<clipPath id="clip1">
  <rect x="0" y="0" width="200" height="200"/>
</clipPath>
<g id="surface5" clip-path="url(#clip1)">
<path style=" stroke:none;fill-rule:evenodd;fill:rgb(98.823529%,98.431373%,96.470588%);fill-opacity:1;" d="M 150.625 136.875 C 151.644531 132.316406 153.519531 128.148438 156.25 124.375 C 162.082031 107.292969 162.082031 90.207031 156.25 73.125 C 155.542969 69.714844 153.667969 67.214844 150.625 65.625 C 150.625 63.957031 149.792969 63.125 148.125 63.125 C 148.320312 61.410156 148.113281 59.742188 147.5 58.125 C 127.277344 36.804688 102.902344 29.929688 74.375 37.5 C 70.410156 39.621094 66.660156 41.914062 63.125 44.375 C 60.3125 45.101562 58.230469 46.765625 56.875 49.375 C 50.09375 54.5625 43.84375 60.398438 38.125 66.875 C 53.492188 39.816406 76.824219 28.359375 108.125 32.5 C 137.917969 38.957031 156.042969 57.082031 162.5 86.875 C 165.570312 105.425781 161.609375 122.089844 150.625 136.875 Z M 150.625 136.875 "/>
</g>
<mask id="mask1">
  <g filter="url(#alpha)">
<rect x="0" y="0" width="200" height="200" style="fill:rgb(0%,0%,0%);fill-opacity:0.901961;stroke:none;"/>
  </g>
</mask>
<clipPath id="clip2">
  <rect x="0" y="0" width="200" height="200"/>
</clipPath>
<g id="surface8" clip-path="url(#clip2)">
<path style=" stroke:none;fill-rule:evenodd;fill:rgb(98.431373%,97.647059%,94.509804%);fill-opacity:1;" d="M 38.125 66.875 C 36.640625 74.042969 34.765625 81.125 32.5 88.125 C 31.339844 96.773438 31.964844 105.105469 34.375 113.125 C 35.734375 119.914062 38.859375 125.746094 43.75 130.625 C 49.148438 145.8125 59.773438 154.980469 75.625 158.125 C 77.847656 159.5 80.347656 160.542969 83.125 161.25 C 94.453125 162.351562 105.703125 161.933594 116.875 160 C 122.976562 156.742188 129.226562 153.824219 135.625 151.25 C 140.375 146.171875 145.375 141.382812 150.625 136.875 C 143.484375 148.378906 133.484375 156.503906 120.625 161.25 C 90.761719 170.917969 65.136719 164.042969 43.75 140.625 C 28.753906 119.582031 25.421875 97.082031 33.75 73.125 C 35.234375 70.957031 36.695312 68.875 38.125 66.875 Z M 38.125 66.875 "/>
</g>
</defs>
<g id="surface1">
<use xlink:href="#surface5" mask="url(#mask0)"/>
<path style=" stroke:none;fill-rule:evenodd;fill:rgb(89.411765%,81.568627%,58.823529%);fill-opacity:1;" d="M 124.375 48.125 C 118.242188 46.152344 111.992188 44.277344 105.625 42.5 C 82.1875 39.394531 63.4375 47.105469 49.375 65.625 C 49.636719 63.847656 50.261719 62.179688 51.25 60.625 C 67.9375 41.332031 88.5625 34.871094 113.125 41.25 C 117.167969 43.492188 120.917969 45.785156 124.375 48.125 Z M 124.375 48.125 "/>
<path style=" stroke:none;fill-rule:evenodd;fill:rgb(95.294118%,91.764706%,81.960784%);fill-opacity:1;" d="M 148.125 63.125 C 144.792969 60.207031 141.457031 57.292969 138.125 54.375 C 135.3125 53.648438 133.230469 51.984375 131.875 49.375 C 128.652344 46.082031 124.902344 43.375 120.625 41.25 C 107.996094 37.207031 95.082031 35.957031 81.875 37.5 C 75.484375 39.421875 69.234375 41.714844 63.125 44.375 C 66.660156 41.914062 70.410156 39.621094 74.375 37.5 C 102.902344 29.929688 127.277344 36.804688 147.5 58.125 C 148.113281 59.742188 148.320312 61.410156 148.125 63.125 Z M 148.125 63.125 "/>
<path style=" stroke:none;fill-rule:evenodd;fill:rgb(85.882353%,75.686275%,45.490196%);fill-opacity:1;" d="M 124.375 48.125 C 124.210938 49.046875 124.417969 49.882812 125 50.625 C 135.703125 57.160156 143.203125 66.328125 147.5 78.125 C 156.371094 100.957031 152.203125 120.957031 135 138.125 C 119.105469 154.324219 100.144531 159.117188 78.125 152.5 C 72.328125 148.621094 66.078125 145.707031 59.375 143.75 C 39.519531 120.90625 35.355469 95.28125 46.875 66.875 C 47.707031 66.457031 48.542969 66.042969 49.375 65.625 C 63.4375 47.105469 82.1875 39.394531 105.625 42.5 C 111.992188 44.277344 118.242188 46.152344 124.375 48.125 Z M 124.375 48.125 "/>
<path style=" stroke:none;fill-rule:evenodd;fill:rgb(83.921569%,72.54902%,38.039216%);fill-opacity:1;" d="M 121.875 53.125 C 92.332031 41.464844 68.792969 48.550781 51.25 74.375 C 39.601562 104.207031 46.894531 127.957031 73.125 145.625 C 65.644531 143.804688 59.605469 139.640625 55 133.125 C 34.960938 101.402344 39.753906 74.109375 69.375 51.25 C 84.746094 45.246094 100.582031 43.996094 116.875 47.5 C 118.800781 49.214844 120.46875 51.089844 121.875 53.125 Z M 121.875 53.125 "/>
<path style=" stroke:none;fill-rule:evenodd;fill:rgb(82.745098%,70.196078%,32.941176%);fill-opacity:1;" d="M 121.875 53.125 C 123.722656 52.796875 125.390625 53.214844 126.875 54.375 C 133.648438 62.53125 140.109375 70.863281 146.25 79.375 C 149.304688 94.234375 148.472656 108.816406 143.75 123.125 C 129.832031 145.390625 109.625 154.765625 83.125 151.25 C 79.652344 149.410156 76.320312 147.535156 73.125 145.625 C 46.894531 127.957031 39.601562 104.207031 51.25 74.375 C 68.792969 48.550781 92.332031 41.464844 121.875 53.125 Z M 121.875 53.125 "/>
<path style=" stroke:none;fill-rule:evenodd;fill:rgb(98.823529%,98.431373%,98.039216%);fill-opacity:1;" d="M 88.125 51.875 C 115.699219 50.121094 133.824219 62.203125 142.5 88.125 C 145.269531 118.238281 132.144531 137.199219 103.125 145 C 74.519531 146.628906 56.808594 133.503906 50 105.625 C 48.410156 77.441406 61.121094 59.523438 88.125 51.875 Z M 88.125 51.875 "/>
<path style=" stroke:none;fill-rule:evenodd;fill:rgb(95.686275%,92.941176%,84.313725%);fill-opacity:1;" d="M 56.875 49.375 C 39.148438 66.933594 31.648438 88.183594 34.375 113.125 C 31.964844 105.105469 31.339844 96.773438 32.5 88.125 C 34.765625 81.125 36.640625 74.042969 38.125 66.875 C 43.84375 60.398438 50.09375 54.5625 56.875 49.375 Z M 56.875 49.375 "/>
<path style=" stroke:none;fill-rule:evenodd;fill:rgb(95.294118%,92.54902%,83.137255%);fill-opacity:1;" d="M 150.625 65.625 C 153.667969 67.214844 155.542969 69.714844 156.25 73.125 C 162.082031 90.207031 162.082031 107.292969 156.25 124.375 C 153.519531 128.148438 151.644531 132.316406 150.625 136.875 C 145.375 141.382812 140.375 146.171875 135.625 151.25 C 129.226562 153.824219 122.976562 156.742188 116.875 160 C 105.703125 161.933594 94.453125 162.351562 83.125 161.25 C 80.347656 160.542969 77.847656 159.5 75.625 158.125 C 96.257812 163.019531 115.839844 160.3125 134.375 150 C 159.160156 125.738281 164.578125 97.613281 150.625 65.625 Z M 150.625 65.625 "/>
<path style=" stroke:none;fill-rule:evenodd;fill:rgb(92.54902%,87.058824%,70.980392%);fill-opacity:1;" d="M 131.875 49.375 C 129.292969 49.351562 126.792969 48.9375 124.375 48.125 C 120.917969 45.785156 117.167969 43.492188 113.125 41.25 C 88.5625 34.871094 67.9375 41.332031 51.25 60.625 C 50.261719 62.179688 49.636719 63.847656 49.375 65.625 C 48.542969 66.042969 47.707031 66.457031 46.875 66.875 C 37.320312 81.265625 34.613281 97.097656 38.75 114.375 C 39.464844 119.320312 41.128906 123.90625 43.75 128.125 C 49.929688 135.25 55.96875 142.542969 61.875 150 C 77.226562 157.585938 93.476562 160.085938 110.625 157.5 C 118.75 152.695312 127.082031 148.109375 135.625 143.75 C 141.25 136.050781 146.875 128.34375 152.5 120.625 C 157.546875 103.109375 156.503906 86.023438 149.375 69.375 C 145.640625 64.386719 141.890625 59.386719 138.125 54.375 C 141.457031 57.292969 144.792969 60.207031 148.125 63.125 C 149.792969 63.125 150.625 63.957031 150.625 65.625 C 164.578125 97.613281 159.160156 125.738281 134.375 150 C 115.839844 160.3125 96.257812 163.019531 75.625 158.125 C 59.773438 154.980469 49.148438 145.8125 43.75 130.625 C 38.859375 125.746094 35.734375 119.914062 34.375 113.125 C 31.648438 88.183594 39.148438 66.933594 56.875 49.375 C 58.230469 46.765625 60.3125 45.101562 63.125 44.375 C 69.234375 41.714844 75.484375 39.421875 81.875 37.5 C 95.082031 35.957031 107.996094 37.207031 120.625 41.25 C 124.902344 43.375 128.652344 46.082031 131.875 49.375 Z M 131.875 49.375 "/>
<path style=" stroke:none;fill-rule:evenodd;fill:rgb(88.627451%,80.392157%,56.470588%);fill-opacity:1;" d="M 124.375 48.125 C 126.792969 48.9375 129.292969 49.351562 131.875 49.375 C 133.230469 51.984375 135.3125 53.648438 138.125 54.375 C 141.890625 59.386719 145.640625 64.386719 149.375 69.375 C 156.503906 86.023438 157.546875 103.109375 152.5 120.625 C 146.875 128.34375 141.25 136.050781 135.625 143.75 C 127.082031 148.109375 118.75 152.695312 110.625 157.5 C 93.476562 160.085938 77.226562 157.585938 61.875 150 C 55.96875 142.542969 49.929688 135.25 43.75 128.125 C 41.128906 123.90625 39.464844 119.320312 38.75 114.375 C 34.613281 97.097656 37.320312 81.265625 46.875 66.875 C 35.355469 95.28125 39.519531 120.90625 59.375 143.75 C 66.078125 145.707031 72.328125 148.621094 78.125 152.5 C 100.144531 159.117188 119.105469 154.324219 135 138.125 C 152.203125 120.957031 156.371094 100.957031 147.5 78.125 C 143.203125 66.328125 135.703125 57.160156 125 50.625 C 124.417969 49.882812 124.210938 49.046875 124.375 48.125 Z M 124.375 48.125 "/>
<path style=" stroke:none;fill-rule:evenodd;fill:rgb(41.568627%,43.529412%,44.313725%);fill-opacity:1;" d="M 81.875 96.875 C 80.261719 96.578125 79.011719 96.996094 78.125 98.125 C 76.347656 97.863281 74.679688 97.238281 73.125 96.25 C 76.296875 95.253906 79.214844 95.464844 81.875 96.875 Z M 81.875 96.875 "/>
<path style=" stroke:none;fill-rule:evenodd;fill:rgb(20.784314%,23.529412%,24.705882%);fill-opacity:1;" d="M 78.125 98.125 C 79.011719 96.996094 80.261719 96.578125 81.875 96.875 C 83.125 96.875 84.375 96.875 85.625 96.875 C 79.367188 80 85.199219 73.125 103.125 76.25 C 110.691406 78.46875 117.148438 82.425781 122.5 88.125 C 124.113281 90.070312 124.945312 92.152344 125 94.375 C 117.957031 90.332031 110.664062 86.792969 103.125 83.75 C 99.792969 82.917969 96.457031 82.917969 93.125 83.75 C 91.320312 85.15625 90.488281 87.03125 90.625 89.375 C 91.6875 97.75 95.644531 104.417969 102.5 109.375 C 104.582031 114.375 106.667969 119.375 108.75 124.375 C 111.359375 125.992188 114.066406 127.453125 116.875 128.75 C 110.703125 130.460938 105.496094 129.003906 101.25 124.375 C 92.230469 130.699219 82.855469 130.90625 73.125 125 C 67.769531 120.691406 63.605469 115.484375 60.625 109.375 C 61.042969 108.957031 61.457031 108.542969 61.875 108.125 C 67.617188 114.488281 74.28125 119.695312 81.875 123.75 C 92.984375 125.972656 97.359375 121.597656 95 110.625 C 90.582031 104.738281 84.957031 100.574219 78.125 98.125 Z M 78.125 98.125 "/>
<path style=" stroke:none;fill-rule:evenodd;fill:rgb(20%,22.745098%,23.921569%);fill-opacity:1;" d="M 113.125 66.875 C 121.859375 66.664062 123.941406 70.207031 119.375 77.5 C 110.519531 78.09375 108.4375 74.550781 113.125 66.875 Z M 113.125 66.875 "/>
<use xlink:href="#surface8" mask="url(#mask1)"/>
</g>
</svg>
