<?xml version="1.0" encoding="UTF-8"?>
<svg version="1.1" xmlns="http://www.w3.org/2000/svg" width="200" height="200">
<path d="M0,0 L34,0 L34,1 L39,1 L39,2 L43,2 L43,3 L46,3 L46,4 L49,4 L49,5 L52,5 L52,6 L55,6 L55,7 L57,7 L57,8 L59,8 L59,9 L62,9 L62,10 L63,10 L63,11 L65,11 L65,12 L67,12 L67,13 L69,13 L69,14 L70,14 L70,15 L72,15 L72,16 L74,16 L74,17 L75,17 L75,18 L76,18 L76,19 L78,19 L78,20 L79,20 L79,21 L80,21 L80,22 L81,22 L81,23 L83,23 L83,24 L84,24 L84,25 L85,25 L85,26 L86,26 L86,27 L87,27 L87,28 L88,28 L88,29 L89,29 L89,30 L90,30 L90,31 L91,31 L91,32 L92,32 L92,33 L93,33 L93,34 L94,34 L94,36 L95,36 L95,37 L96,37 L96,38 L97,38 L97,39 L98,39 L98,41 L99,41 L99,42 L100,42 L100,43 L101,43 L101,45 L102,45 L102,47 L103,47 L103,48 L104,48 L104,50 L105,50 L105,52 L106,52 L106,54 L107,54 L107,55 L108,55 L108,58 L109,58 L109,60 L110,60 L110,62 L111,62 L111,65 L112,65 L112,68 L113,68 L113,71 L114,71 L114,74 L115,74 L115,78 L116,78 L116,84 L117,84 L117,116 L116,116 L116,122 L115,122 L115,126 L114,126 L114,129 L113,129 L113,132 L112,132 L112,135 L111,135 L111,138 L110,138 L110,140 L109,140 L109,142 L108,142 L108,145 L107,145 L107,146 L106,146 L106,148 L105,148 L105,150 L104,150 L104,152 L103,152 L103,153 L102,153 L102,155 L101,155 L101,157 L100,157 L100,158 L99,158 L99,159 L98,159 L98,161 L97,161 L97,162 L96,162 L96,163 L95,163 L95,164 L94,164 L94,166 L93,166 L93,167 L92,167 L92,168 L91,168 L91,169 L90,169 L90,170 L89,170 L89,171 L88,171 L88,172 L87,172 L87,173 L86,173 L86,174 L85,174 L85,175 L84,175 L84,176 L83,176 L83,177 L81,177 L81,178 L80,178 L80,179 L79,179 L79,180 L78,180 L78,181 L76,181 L76,182 L75,182 L75,183 L74,183 L74,184 L72,184 L72,185 L70,185 L70,186 L69,186 L69,187 L67,187 L67,188 L65,188 L65,189 L63,189 L63,190 L62,190 L62,191 L59,191 L59,192 L57,192 L57,193 L55,193 L55,194 L52,194 L52,195 L49,195 L49,196 L46,196 L46,197 L43,197 L43,198 L39,198 L39,199 L34,199 L34,200 L0,200 L0,199 L-5,199 L-5,198 L-9,198 L-9,197 L-12,197 L-12,196 L-15,196 L-15,195 L-18,195 L-18,194 L-21,194 L-21,193 L-23,193 L-23,192 L-25,192 L-25,191 L-28,191 L-28,190 L-29,190 L-29,189 L-31,189 L-31,188 L-33,188 L-33,187 L-35,187 L-35,186 L-36,186 L-36,185 L-38,185 L-38,184 L-40,184 L-40,183 L-41,183 L-41,182 L-42,182 L-42,181 L-44,181 L-44,180 L-45,180 L-45,179 L-46,179 L-46,178 L-47,178 L-47,177 L-49,177 L-49,176 L-50,176 L-50,175 L-51,175 L-51,174 L-52,174 L-52,173 L-53,173 L-53,172 L-54,172 L-54,171 L-55,171 L-55,170 L-56,170 L-56,169 L-57,169 L-57,168 L-58,168 L-58,167 L-59,167 L-59,166 L-60,166 L-60,164 L-61,164 L-61,163 L-62,163 L-62,162 L-63,162 L-63,161 L-64,161 L-64,159 L-65,159 L-65,158 L-66,158 L-66,157 L-67,157 L-67,155 L-68,155 L-68,153 L-69,153 L-69,152 L-70,152 L-70,150 L-71,150 L-71,148 L-72,148 L-72,146 L-73,146 L-73,145 L-74,145 L-74,142 L-75,142 L-75,140 L-76,140 L-76,138 L-77,138 L-77,135 L-78,135 L-78,132 L-79,132 L-79,129 L-80,129 L-80,126 L-81,126 L-81,122 L-82,122 L-82,116 L-83,116 L-83,84 L-82,84 L-82,78 L-81,78 L-81,74 L-80,74 L-80,71 L-79,71 L-79,68 L-78,68 L-78,65 L-77,65 L-77,62 L-76,62 L-76,60 L-75,60 L-75,58 L-74,58 L-74,55 L-73,55 L-73,54 L-72,54 L-72,52 L-71,52 L-71,50 L-70,50 L-70,48 L-69,48 L-69,47 L-68,47 L-68,45 L-67,45 L-67,43 L-66,43 L-66,42 L-65,42 L-65,41 L-64,41 L-64,39 L-63,39 L-63,38 L-62,38 L-62,37 L-61,37 L-61,36 L-60,36 L-60,34 L-59,34 L-59,33 L-58,33 L-58,32 L-57,32 L-57,31 L-56,31 L-56,30 L-55,30 L-55,29 L-54,29 L-54,28 L-53,28 L-53,27 L-52,27 L-52,26 L-51,26 L-51,25 L-50,25 L-50,24 L-49,24 L-49,23 L-47,23 L-47,22 L-46,22 L-46,21 L-45,21 L-45,20 L-44,20 L-44,19 L-42,19 L-42,18 L-41,18 L-41,17 L-40,17 L-40,16 L-38,16 L-38,15 L-36,15 L-36,14 L-35,14 L-35,13 L-33,13 L-33,12 L-31,12 L-31,11 L-29,11 L-29,10 L-28,10 L-28,9 L-25,9 L-25,8 L-23,8 L-23,7 L-21,7 L-21,6 L-18,6 L-18,5 L-15,5 L-15,4 L-12,4 L-12,3 L-9,3 L-9,2 L-5,2 L-5,1 L0,1 Z " fill="#12272D" transform="translate(83,0)"/>
<path d="M0,0 L2,0 L2,6 L0,6 L0,11 L1,11 L1,16 L21,16 L21,17 L23,17 L23,19 L24,19 L24,20 L26,20 L26,40 L24,40 L24,41 L19,41 L19,44 L24,44 L24,46 L19,46 L19,49 L24,49 L24,51 L19,51 L19,55 L24,55 L24,57 L19,57 L19,59 L20,59 L20,60 L24,60 L24,63 L22,63 L22,62 L19,62 L19,65 L21,65 L21,66 L24,66 L24,68 L19,68 L19,70 L20,70 L20,71 L24,71 L24,73 L19,73 L19,76 L24,76 L24,79 L23,79 L23,78 L19,78 L19,81 L24,81 L24,83 L19,83 L19,87 L11,87 L11,88 L19,88 L19,89 L24,89 L24,95 L19,95 L19,100 L18,100 L18,103 L11,103 L11,104 L-67,104 L-67,105 L-91,105 L-91,89 L-90,89 L-90,87 L-91,87 L-91,79 L-92,79 L-92,78 L-93,78 L-93,77 L-91,77 L-91,70 L-94,70 L-94,55 L-91,55 L-91,49 L-90,49 L-90,45 L-91,45 L-91,20 L-89,20 L-89,19 L-88,19 L-88,17 L-86,17 L-86,16 L-63,16 L-63,14 L-61,14 L-61,15 L-60,15 L-60,16 L-58,16 L-58,14 L-57,14 L-57,16 L-26,16 L-26,13 L-25,13 L-25,16 L-4,16 L-4,11 L-3,11 L-3,8 L-2,8 L-2,7 L-3,7 L-3,5 L0,5 Z " fill="#1A0A11" transform="translate(135,49)"/>
<path d="M0,0 L49,0 L49,1 L79,1 L79,2 L36,2 L36,4 L39,4 L39,5 L42,5 L42,4 L43,4 L43,3 L44,3 L44,4 L45,4 L45,17 L44,17 L44,16 L43,16 L43,19 L45,19 L45,21 L47,21 L47,23 L48,23 L48,25 L49,25 L49,26 L50,26 L50,27 L51,27 L51,28 L52,28 L52,30 L53,30 L53,32 L54,32 L54,46 L53,46 L53,50 L51,50 L51,51 L50,51 L50,54 L49,54 L49,55 L48,55 L48,56 L47,56 L47,57 L44,57 L44,58 L41,58 L41,59 L29,59 L29,57 L25,57 L25,56 L24,56 L24,54 L23,54 L23,53 L22,53 L22,52 L21,52 L21,51 L20,51 L20,50 L18,50 L18,47 L16,47 L16,43 L15,43 L15,42 L11,42 L11,43 L12,43 L12,44 L15,44 L15,48 L16,48 L16,52 L17,52 L17,53 L19,53 L19,57 L21,57 L21,60 L23,60 L23,61 L25,61 L25,63 L26,63 L26,70 L1,70 L1,54 L2,54 L2,49 L1,49 L1,6 L0,6 L0,3 L1,3 L1,2 L0,2 Z " fill="#9B353F" transform="translate(67,66)"/>
<path d="M0,0 L38,0 L38,5 L40,5 L40,7 L38,7 L38,10 L40,10 L40,11 L42,11 L42,9 L43,9 L43,14 L41,14 L41,13 L38,13 L38,16 L41,16 L41,17 L43,17 L43,19 L42,19 L42,18 L37,18 L37,15 L36,15 L36,13 L34,13 L34,12 L33,12 L33,64 L32,64 L32,65 L30,65 L30,70 L11,70 L11,66 L9,66 L9,67 L8,67 L8,68 L7,68 L7,69 L5,69 L5,61 L8,61 L8,59 L7,59 L7,57 L6,57 L6,54 L7,54 L7,53 L8,53 L8,50 L10,50 L10,47 L8,47 L8,44 L10,44 L10,42 L8,42 L8,37 L7,37 L7,34 L6,34 L6,32 L4,32 L4,30 L3,30 L3,28 L2,28 L2,27 L1,27 L1,26 L0,26 L0,25 L-1,25 L-1,23 L-2,23 L-2,21 L-4,21 L-4,19 L-6,19 L-6,16 L-5,16 L-5,17 L-4,17 L-4,4 L-5,4 L-5,3 L-6,3 L-6,4 L-7,4 L-7,5 L-10,5 L-10,4 L-13,4 L-13,2 L30,2 L30,1 L0,1 Z M35,15 L36,15 L36,16 L35,16 Z " fill="#9D3740" transform="translate(116,66)"/>
<path d="M0,0 L53,0 L53,1 L61,1 L61,2 L56,2 L56,3 L58,3 L58,13 L60,13 L60,15 L58,15 L58,17 L64,17 L64,28 L58,28 L58,32 L60,32 L60,31 L62,31 L62,33 L63,33 L63,34 L60,34 L60,35 L57,35 L57,36 L54,36 L54,37 L51,37 L51,38 L47,38 L47,39 L42,39 L42,40 L8,40 L8,39 L9,39 L9,37 L4,37 L4,35 L18,35 L18,34 L19,34 L19,31 L18,31 L18,33 L10,33 L10,32 L3,32 L3,33 L2,33 L2,30 L15,30 L15,25 L16,25 L16,23 L14,23 L14,22 L13,22 L13,21 L3,21 L3,27 L2,27 L2,15 L0,15 L0,8 L-1,8 L-1,6 L-3,6 L-3,1 L0,1 Z " fill="#400C1A" transform="translate(75,160)"/>
<path d="M0,0 L5,0 L5,1 L7,1 L7,7 L9,7 L9,8 L11,8 L11,17 L12,17 L12,6 L14,6 L14,32 L13,32 L13,33 L12,33 L12,35 L10,35 L10,36 L9,36 L9,37 L8,37 L8,38 L7,38 L7,46 L6,46 L6,48 L7,48 L7,55 L6,55 L6,57 L1,57 L1,60 L3,60 L3,62 L6,62 L6,63 L-3,63 L-3,64 L-16,64 L-16,70 L-14,70 L-14,72 L-13,72 L-13,76 L-10,76 L-10,79 L-4,79 L-4,81 L-6,81 L-6,82 L-8,82 L-8,81 L-11,81 L-11,90 L-10,90 L-10,92 L-9,92 L-9,91 L-8,91 L-8,86 L-7,86 L-7,87 L-6,87 L-6,94 L-2,94 L-2,93 L2,93 L2,94 L1,94 L1,95 L-1,95 L-1,96 L-2,96 L-2,97 L-4,97 L-4,98 L-6,98 L-6,99 L-8,99 L-8,100 L-9,100 L-9,101 L-12,101 L-12,102 L-14,102 L-14,103 L-17,103 L-17,101 L-19,101 L-19,102 L-21,102 L-21,98 L-15,98 L-15,87 L-21,87 L-21,85 L-19,85 L-19,83 L-21,83 L-21,73 L-23,73 L-23,72 L-18,72 L-18,71 L-26,71 L-26,70 L-79,70 L-79,71 L-82,71 L-82,76 L-80,76 L-80,78 L-79,78 L-79,85 L-77,85 L-77,97 L-76,97 L-76,91 L-66,91 L-66,92 L-65,92 L-65,93 L-63,93 L-63,95 L-64,95 L-64,100 L-77,100 L-77,103 L-76,103 L-76,102 L-69,102 L-69,103 L-61,103 L-61,101 L-60,101 L-60,104 L-61,104 L-61,105 L-75,105 L-75,107 L-70,107 L-70,109 L-76,109 L-76,108 L-80,108 L-80,107 L-83,107 L-83,106 L-86,106 L-86,105 L-89,105 L-89,104 L-90,104 L-90,95 L-92,95 L-92,93 L-93,93 L-93,91 L-92,91 L-92,80 L-94,80 L-94,83 L-95,83 L-95,82 L-96,82 L-96,81 L-99,81 L-99,79 L-93,79 L-93,77 L-92,77 L-92,76 L-89,76 L-89,72 L-88,72 L-88,70 L-86,70 L-86,63 L-8,63 L-8,62 L-1,62 L-1,59 L0,59 L0,54 L5,54 L5,48 L0,48 L0,47 L-8,47 L-8,46 L0,46 L0,42 L5,42 L5,40 L0,40 L0,37 L4,37 L4,38 L5,38 L5,35 L0,35 L0,32 L5,32 L5,30 L1,30 L1,29 L0,29 L0,27 L5,27 L5,25 L2,25 L2,24 L0,24 L0,21 L3,21 L3,22 L5,22 L5,19 L1,19 L1,18 L0,18 L0,16 L5,16 L5,14 L0,14 L0,10 L5,10 L5,8 L0,8 L0,5 L5,5 L5,3 L0,3 Z " fill="#11040C" transform="translate(154,90)"/>
<path d="M0,0 L113,0 L113,6 L108,6 L108,11 L107,11 L107,14 L5,14 L5,12 L2,12 L2,14 L0,14 Z " fill="#3E5A56" transform="translate(46,138)"/>
<path d="M0,0 L1,0 L1,2 L3,2 L3,4 L5,4 L5,6 L6,6 L6,8 L7,8 L7,9 L8,9 L8,10 L9,10 L9,11 L10,11 L10,13 L11,13 L11,15 L12,15 L12,29 L11,29 L11,33 L9,33 L9,34 L8,34 L8,37 L7,37 L7,38 L6,38 L6,39 L5,39 L5,40 L2,40 L2,41 L-1,41 L-1,42 L-13,42 L-13,40 L-17,40 L-17,39 L-18,39 L-18,37 L-19,37 L-19,36 L-20,36 L-20,35 L-21,35 L-21,34 L-22,34 L-22,33 L-24,33 L-24,30 L-26,30 L-26,26 L-27,26 L-27,25 L-26,25 L-26,22 L-25,22 L-25,19 L-24,19 L-24,14 L-23,14 L-23,13 L-22,13 L-22,10 L-21,10 L-21,6 L-20,6 L-20,5 L-18,5 L-18,4 L-13,4 L-13,3 L-3,3 L-3,2 L-1,2 L-1,1 L0,1 Z " fill="#295852" transform="translate(109,83)"/>
<path d="M0,0 L26,0 L26,2 L28,2 L28,21 L26,21 L26,22 L23,22 L23,23 L19,23 L19,24 L14,24 L14,25 L0,25 Z " fill="#314F4F" transform="translate(103,175)"/>
<path d="M0,0 L11,0 L11,2 L7,2 L7,3 L11,3 L11,6 L10,6 L10,11 L11,11 L11,51 L10,51 L10,64 L8,64 L8,63 L6,63 L6,65 L10,65 L10,67 L7,67 L7,70 L2,70 L2,69 L4,69 L4,68 L5,68 L5,67 L2,67 L2,62 L3,62 L3,61 L0,61 L0,60 L-1,60 L-1,58 L0,58 L0,57 L3,57 L3,55 L0,55 L0,54 L-2,54 L-2,50 L1,50 L1,32 L0,32 L0,29 L1,29 L1,11 L0,11 L0,7 L1,7 L1,4 L4,4 L4,2 L-3,2 L-3,1 L0,1 Z " fill="#852B3B" transform="translate(55,66)"/>
<path d="M0,0 L1,0 L1,6 L7,6 L7,7 L4,7 L4,12 L6,12 L6,14 L7,14 L7,21 L9,21 L9,33 L10,33 L10,27 L20,27 L20,28 L21,28 L21,29 L23,29 L23,31 L22,31 L22,36 L9,36 L9,39 L10,39 L10,38 L17,38 L17,39 L25,39 L25,37 L26,37 L26,40 L25,40 L25,41 L11,41 L11,43 L16,43 L16,45 L10,45 L10,44 L6,44 L6,43 L3,43 L3,42 L0,42 L0,41 L-3,41 L-3,40 L-4,40 L-4,31 L-6,31 L-6,29 L-7,29 L-7,27 L-6,27 L-6,16 L-8,16 L-8,19 L-9,19 L-9,18 L-10,18 L-10,17 L-13,17 L-13,15 L-7,15 L-7,13 L-6,13 L-6,12 L-3,12 L-3,8 L-2,8 L-2,6 L0,6 Z " fill="#20030B" transform="translate(68,154)"/>
<path d="M0,0 L38,0 L38,5 L40,5 L40,7 L38,7 L38,10 L40,10 L40,11 L42,11 L42,9 L43,9 L43,14 L41,14 L41,13 L38,13 L38,16 L41,16 L41,17 L43,17 L43,19 L42,19 L42,18 L37,18 L37,15 L36,15 L36,13 L34,13 L34,12 L33,12 L33,64 L32,64 L32,65 L30,65 L30,60 L29,60 L29,55 L30,55 L30,49 L29,49 L29,37 L30,37 L30,33 L31,33 L31,31 L30,31 L30,21 L29,21 L29,35 L19,35 L19,34 L18,34 L18,11 L25,11 L25,10 L26,10 L26,9 L24,9 L24,10 L22,10 L22,8 L23,8 L23,7 L25,7 L25,6 L26,6 L26,7 L28,7 L28,10 L29,10 L29,6 L30,6 L30,1 L0,1 Z M35,15 L36,15 L36,16 L35,16 Z " fill="#681B30" transform="translate(116,66)"/>
<path d="M0,0 L1,0 L1,2 L2,2 L2,5 L3,5 L3,10 L5,10 L5,12 L3,12 L3,15 L5,15 L5,18 L3,18 L3,21 L2,21 L2,22 L1,22 L1,25 L2,25 L2,27 L3,27 L3,29 L0,29 L0,37 L2,37 L2,36 L3,36 L3,35 L4,35 L4,34 L6,34 L6,38 L-28,38 L-28,31 L-29,31 L-29,29 L-31,29 L-31,28 L-33,28 L-33,25 L-35,25 L-35,21 L-37,21 L-37,20 L-38,20 L-38,16 L-39,16 L-39,12 L-42,12 L-42,11 L-43,11 L-43,10 L-39,10 L-39,11 L-38,11 L-38,15 L-36,15 L-36,18 L-34,18 L-34,19 L-33,19 L-33,20 L-32,20 L-32,21 L-31,21 L-31,22 L-30,22 L-30,24 L-29,24 L-29,25 L-25,25 L-25,27 L-13,27 L-13,26 L-10,26 L-10,25 L-7,25 L-7,24 L-6,24 L-6,23 L-5,23 L-5,22 L-4,22 L-4,19 L-3,19 L-3,18 L-1,18 L-1,14 L0,14 Z " fill="#6D1E33" transform="translate(121,98)"/>
<path d="M0,0 L46,0 L46,1 L34,1 L34,4 L35,4 L35,5 L37,5 L37,7 L38,7 L38,9 L37,9 L37,12 L34,12 L34,13 L0,13 Z " fill="#3D7A71" transform="translate(97,138)"/>
<path d="M0,0 L24,0 L24,1 L26,1 L26,25 L6,25 L6,24 L7,24 L7,22 L2,22 L2,20 L16,20 L16,19 L17,19 L17,16 L16,16 L16,18 L8,18 L8,17 L1,17 L1,18 L0,18 L0,15 L13,15 L13,10 L14,10 L14,8 L12,8 L12,7 L11,7 L11,6 L1,6 L1,12 L0,12 Z " fill="#7D3940" transform="translate(77,175)"/>
<path d="M0,0 L32,0 L32,1 L62,1 L62,2 L19,2 L19,4 L22,4 L22,5 L25,5 L25,4 L26,4 L26,3 L27,3 L27,4 L28,4 L28,17 L27,17 L27,16 L26,16 L26,17 L25,17 L25,18 L24,18 L24,19 L22,19 L22,20 L5,20 L5,18 L8,18 L8,17 L9,17 L9,2 L-15,2 L-15,1 L0,1 Z " fill="#B26B61" transform="translate(84,66)"/>
<path d="M0,0 L1,0 L1,1 L3,1 L3,3 L4,3 L4,9 L6,9 L6,10 L9,10 L9,11 L10,11 L10,12 L5,12 L5,15 L10,15 L10,17 L5,17 L5,20 L10,20 L10,22 L5,22 L5,26 L10,26 L10,28 L5,28 L5,30 L6,30 L6,31 L10,31 L10,34 L8,34 L8,33 L5,33 L5,36 L7,36 L7,37 L10,37 L10,39 L5,39 L5,41 L6,41 L6,42 L10,42 L10,44 L5,44 L5,47 L10,47 L10,50 L9,50 L9,49 L5,49 L5,52 L10,52 L10,54 L5,54 L5,58 L-3,58 L-3,53 L-1,53 L-1,52 L0,52 Z M2,3 L2,4 L3,4 L3,3 Z " fill="#4B0F1E" transform="translate(149,78)"/>
<path d="M0,0 L1,0 L1,2 L2,2 L2,3 L1,3 L1,6 L2,6 L2,49 L3,49 L3,54 L2,54 L2,70 L80,70 L80,71 L88,71 L88,72 L-15,72 L-15,71 L0,71 L0,70 L-4,70 L-4,67 L-1,67 L-1,65 L-5,65 L-5,63 L-3,63 L-3,64 L-1,64 L-1,51 L0,51 L0,11 L-1,11 L-1,6 L0,6 L0,3 L-4,3 L-4,2 L0,2 Z " fill="#2F1416" transform="translate(66,66)"/>
<path d="M0,0 L7,0 L7,1 L9,1 L9,3 L10,3 L10,5 L12,5 L12,9 L13,9 L13,14 L12,14 L12,18 L10,18 L10,19 L9,19 L9,20 L7,20 L7,21 L5,21 L5,22 L1,22 L1,21 L-1,21 L-1,20 L-4,20 L-4,18 L-6,18 L-6,14 L-7,14 L-7,5 L-6,5 L-6,4 L-5,4 L-5,3 L-4,3 L-4,1 L0,1 Z " fill="#10322D" transform="translate(100,95)"/>
<path d="M0,0 L1,0 L1,4 L-1,4 L-1,7 L1,7 L1,9 L0,9 L0,11 L-1,11 L-1,14 L-3,14 L-3,13 L-5,13 L-5,16 L-3,16 L-3,18 L-2,18 L-2,19 L-1,19 L-1,21 L-8,21 L-8,23 L-7,23 L-7,26 L-5,26 L-5,31 L0,31 L0,36 L3,36 L3,39 L5,39 L5,38 L7,38 L7,35 L4,35 L4,31 L5,31 L5,33 L7,33 L7,34 L9,34 L9,36 L11,36 L11,44 L12,44 L12,46 L14,46 L14,41 L15,41 L15,36 L14,36 L14,35 L11,35 L11,33 L15,33 L15,27 L16,27 L16,52 L11,52 L11,51 L8,51 L8,46 L5,46 L5,45 L1,45 L1,43 L0,43 L0,41 L-1,41 L-1,40 L-3,40 L-3,38 L-4,38 L-4,37 L-5,37 L-5,34 L-6,34 L-6,32 L-7,32 L-7,31 L-8,31 L-8,28 L-10,28 L-10,20 L-8,20 L-8,17 L-7,17 L-7,11 L-6,11 L-6,8 L-5,8 L-5,10 L-1,10 L-1,8 L-3,8 L-3,7 L-5,7 L-5,5 L-3,5 L-3,3 L-2,3 L-2,1 L0,1 Z " fill="#130C13" transform="translate(23,69)"/>
<path d="M0,0 L7,0 L7,2 L4,2 L4,5 L3,5 L3,9 L4,9 L4,27 L3,27 L3,30 L4,30 L4,48 L1,48 L1,52 L3,52 L3,53 L6,53 L6,55 L3,55 L3,56 L2,56 L2,58 L3,58 L3,59 L6,59 L6,60 L5,60 L5,65 L8,65 L8,66 L7,66 L7,67 L5,67 L5,68 L0,68 L0,61 L-3,61 L-3,59 L0,59 L0,56 L-3,56 L-3,54 L0,54 L0,50 L-3,50 L-3,48 L0,48 L0,44 L-3,44 L-3,42 L0,42 L0,38 L-3,38 L-3,36 L0,36 L0,33 L-3,33 L-3,31 L0,31 L0,28 L-3,28 L-3,26 L0,26 L0,22 L-3,22 L-3,21 L0,21 L0,17 L-3,17 L-3,16 L-4,16 L-4,14 L0,14 L0,11 L-3,11 L-3,8 L-2,8 L-2,9 L-1,9 L-1,6 L-2,6 L-2,4 L0,4 Z " fill="#521121" transform="translate(52,68)"/>
<path d="M0,0 L53,0 L53,2 L45,2 L45,3 L37,3 L37,5 L38,5 L38,6 L36,6 L36,13 L19,13 L19,12 L17,12 L17,10 L18,10 L18,8 L17,8 L17,7 L18,7 L18,3 L9,3 L9,2 L0,2 Z " fill="#823F41" transform="translate(75,160)"/>
<path d="M0,0 L16,0 L16,6 L11,6 L11,11 L10,11 L10,14 L-18,14 L-18,13 L-12,13 L-12,12 L-9,12 L-9,9 L-8,9 L-8,7 L-9,7 L-9,5 L-11,5 L-11,4 L-12,4 L-12,1 L0,1 Z " fill="#302E37" transform="translate(143,138)"/>
<path d="M0,0 L2,0 L2,2 L3,2 L3,9 L5,9 L5,21 L6,21 L6,15 L16,15 L16,16 L17,16 L17,17 L19,17 L19,19 L18,19 L18,24 L5,24 L5,27 L6,27 L6,26 L13,26 L13,27 L21,27 L21,25 L22,25 L22,28 L21,28 L21,29 L7,29 L7,31 L12,31 L12,33 L6,33 L6,32 L4,32 L4,30 L2,30 L2,28 L-1,28 L-1,27 L-4,27 L-4,25 L-2,25 L-2,24 L2,24 L2,22 L-2,22 L-2,21 L-4,21 L-4,20 L-2,20 L-2,19 L-1,19 L-1,18 L1,18 L1,16 L-1,16 L-1,13 L0,13 Z " fill="#370B16" transform="translate(72,166)"/>
<path d="M0,0 L8,0 L8,1 L2,1 L2,2 L-6,2 L-6,3 L-4,3 L-4,5 L-6,5 L-6,7 L-4,7 L-4,12 L-8,12 L-8,13 L-41,13 L-41,12 L-45,12 L-45,11 L-46,11 L-46,10 L-47,10 L-47,9 L-48,9 L-48,8 L-46,8 L-46,9 L-44,9 L-44,7 L-46,7 L-46,5 L-48,5 L-48,1 L-44,1 L-44,2 L-35,2 L-35,6 L-36,6 L-36,7 L-35,7 L-35,9 L-36,9 L-36,11 L-34,11 L-34,12 L-17,12 L-17,5 L-15,5 L-15,4 L-16,4 L-16,2 L-8,2 L-8,1 L0,1 Z " fill="#6C2231" transform="translate(128,161)"/>
<path d="M0,0 L11,0 L11,24 L1,24 L1,23 L0,23 Z " fill="#522729" transform="translate(134,77)"/>
<path d="M0,0 L25,0 L25,13 L8,13 L8,12 L7,12 L7,11 L6,11 L6,10 L5,10 L5,5 L6,5 L6,4 L10,4 L10,5 L11,5 L11,6 L12,6 L12,4 L11,4 L11,2 L0,2 Z " fill="#428176" transform="translate(70,138)"/>
<path d="M0,0 L6,0 L6,1 L4,1 L4,2 L12,2 L12,3 L9,3 L9,4 L5,4 L5,5 L17,5 L17,6 L19,6 L19,9 L16,9 L16,8 L15,8 L15,12 L20,12 L20,15 L19,15 L19,18 L20,18 L20,19 L21,19 L21,20 L22,20 L22,21 L23,21 L23,22 L21,22 L21,21 L18,21 L18,23 L17,23 L17,24 L16,24 L16,25 L6,25 L6,24 L7,24 L7,22 L2,22 L2,20 L16,20 L16,19 L17,19 L17,16 L16,16 L16,18 L8,18 L8,17 L1,17 L1,18 L0,18 L0,15 L13,15 L13,10 L14,10 L14,8 L12,8 L12,7 L11,7 L11,6 L1,6 L1,12 L0,12 Z " fill="#69242D" transform="translate(77,175)"/>
<path d="M0,0 L1,0 L1,10 L2,10 L2,12 L1,12 L1,16 L0,16 L0,28 L1,28 L1,34 L0,34 L0,39 L1,39 L1,49 L-12,49 L-12,46 L-9,46 L-9,43 L-7,43 L-7,46 L-6,46 L-6,47 L-3,47 L-3,40 L-4,40 L-4,38 L-3,38 L-3,35 L-5,35 L-5,34 L-6,34 L-6,28 L-5,28 L-5,25 L-6,25 L-6,23 L-7,23 L-7,20 L-6,20 L-6,19 L-2,19 L-2,17 L-3,17 L-3,16 L-7,16 L-7,15 L-10,15 L-10,14 L0,14 Z " fill="#7F2538" transform="translate(145,87)"/>
<path d="M0,0 L8,0 L8,1 L10,1 L10,3 L12,3 L12,4 L14,4 L14,5 L15,5 L15,6 L16,6 L16,8 L17,8 L17,17 L16,17 L16,22 L13,22 L13,24 L12,24 L12,26 L10,26 L10,27 L8,27 L8,28 L2,28 L2,27 L-3,27 L-3,26 L-5,26 L-5,23 L-6,23 L-6,22 L-7,22 L-7,17 L-8,17 L-8,7 L-7,7 L-7,5 L-6,5 L-6,4 L-5,4 L-5,3 L-3,3 L-3,1 L0,1 Z M1,3 L1,4 L-3,4 L-3,6 L-4,6 L-4,7 L-5,7 L-5,8 L-6,8 L-6,17 L-5,17 L-5,21 L-3,21 L-3,23 L0,23 L0,24 L2,24 L2,25 L6,25 L6,24 L8,24 L8,23 L10,23 L10,22 L11,22 L11,21 L13,21 L13,17 L14,17 L14,12 L13,12 L13,8 L11,8 L11,6 L10,6 L10,4 L8,4 L8,3 Z " fill="#39D19D" transform="translate(99,92)"/>
<path d="M0,0 L11,0 L11,1 L14,1 L14,2 L16,2 L16,4 L17,4 L17,5 L18,5 L18,6 L19,6 L19,8 L20,8 L20,10 L21,10 L21,21 L20,21 L20,24 L19,24 L19,26 L18,26 L18,27 L17,27 L17,29 L16,29 L16,30 L15,30 L15,31 L12,31 L12,32 L11,32 L11,33 L1,33 L1,32 L0,32 L0,31 L-2,31 L-2,30 L-4,30 L-4,29 L-5,29 L-5,26 L-3,26 L-3,28 L-1,28 L-1,29 L4,29 L4,30 L10,30 L10,29 L12,29 L12,28 L14,28 L14,26 L15,26 L15,24 L18,24 L18,19 L19,19 L19,10 L18,10 L18,8 L17,8 L17,7 L16,7 L16,6 L14,6 L14,5 L12,5 L12,3 L10,3 L10,2 L2,2 L2,3 L-1,3 L-1,5 L-3,5 L-3,6 L-4,6 L-4,7 L-5,7 L-5,9 L-6,9 L-6,10 L-7,10 L-7,18 L-9,18 L-9,10 L-8,10 L-8,7 L-7,7 L-7,6 L-6,6 L-6,5 L-5,5 L-5,3 L-4,3 L-4,2 L-3,2 L-3,1 L0,1 Z " fill="#143C35" transform="translate(97,90)"/>
<path d="M0,0 L5,0 L5,2 L15,2 L15,11 L18,11 L18,13 L31,13 L31,14 L5,14 L5,12 L2,12 L2,14 L0,14 Z " fill="#31333B" transform="translate(46,138)"/>
<path d="M0,0 L10,0 L10,1 L11,1 L11,2 L12,2 L12,4 L13,4 L13,10 L12,10 L12,11 L11,11 L11,12 L10,12 L10,13 L9,13 L9,15 L1,15 L1,13 L0,13 L0,12 L-1,12 L-1,11 L-2,11 L-2,4 L-1,4 L-1,1 L0,1 Z " fill="#85AD79" transform="translate(42,27)"/>
<path d="M0,0 L2,0 L2,1 L3,1 L3,2 L4,2 L4,4 L12,4 L12,2 L13,2 L13,1 L14,1 L14,0 L16,0 L16,3 L15,3 L15,4 L14,4 L14,5 L12,5 L12,6 L7,6 L7,7 L6,7 L6,13 L5,13 L5,18 L3,18 L3,22 L2,22 L2,23 L1,23 L1,24 L0,24 L0,25 L-1,25 L-1,26 L-2,26 L-2,27 L-4,27 L-4,26 L-8,26 L-8,28 L-11,28 L-11,31 L-8,31 L-8,30 L-7,30 L-7,29 L-4,29 L-4,30 L-5,30 L-5,31 L-7,31 L-7,32 L-8,32 L-8,33 L-10,33 L-10,34 L-11,34 L-11,35 L-12,35 L-12,36 L-13,36 L-13,37 L-14,37 L-14,35 L-13,35 L-13,33 L-12,33 L-12,31 L-14,31 L-14,30 L-13,30 L-13,27 L-9,27 L-9,25 L-7,25 L-7,23 L-6,23 L-6,22 L-4,22 L-4,20 L-3,20 L-3,22 L0,22 L0,21 L-1,21 L-1,20 L-2,20 L-2,18 L-1,18 L-1,14 L0,14 L0,12 L5,12 L5,9 L1,9 L1,2 L0,2 Z " fill="#110A10" transform="translate(39,38)"/>
<path d="M0,0 L14,0 L14,2 L13,2 L13,3 L12,3 L12,4 L14,4 L14,5 L15,5 L15,13 L0,13 Z " fill="#71A493" transform="translate(97,138)"/>
<path d="M0,0 L1,0 L1,4 L4,4 L4,7 L10,7 L10,9 L8,9 L8,10 L6,10 L6,9 L3,9 L3,18 L4,18 L4,20 L5,20 L5,19 L6,19 L6,14 L7,14 L7,15 L8,15 L8,22 L12,22 L12,21 L16,21 L16,22 L15,22 L15,23 L13,23 L13,24 L12,24 L12,25 L10,25 L10,26 L8,26 L8,27 L6,27 L6,28 L5,28 L5,29 L2,29 L2,30 L0,30 Z " fill="#0D040C" transform="translate(140,162)"/>
<path d="M0,0 L2,0 L2,11 L1,11 L1,13 L2,13 L2,15 L4,15 L4,24 L2,24 L2,23 L0,23 L0,22 L-2,22 L-2,21 L-5,21 L-5,20 L-6,20 L-6,19 L-7,19 L-7,17 L-8,17 L-8,16 L-9,16 L-9,14 L-10,14 L-10,13 L-4,13 L-4,9 L-8,9 L-8,7 L-11,7 L-11,5 L-10,5 L-10,4 L-9,4 L-9,6 L-6,6 L-6,7 L-3,7 L-3,6 L-1,6 L-1,3 L0,3 Z " fill="#160E15" transform="translate(60,170)"/>
<path d="M0,0 L12,0 L12,33 L9,33 L9,31 L7,31 L7,32 L5,32 L5,28 L11,28 L11,17 L5,17 L5,15 L7,15 L7,13 L5,13 L5,3 L3,3 L3,2 L8,2 L8,1 L0,1 Z " fill="#25040E" transform="translate(128,160)"/>
<path d="M0,0 L4,0 L4,1 L5,1 L5,5 L7,5 L7,8 L9,8 L9,9 L10,9 L10,10 L11,10 L11,11 L12,11 L12,12 L13,12 L13,14 L14,14 L14,15 L18,15 L18,17 L30,17 L30,16 L33,16 L33,15 L36,15 L36,14 L37,14 L37,16 L36,16 L36,17 L34,17 L34,20 L29,20 L29,21 L18,21 L18,20 L16,20 L16,19 L12,19 L12,18 L10,18 L10,15 L8,15 L8,11 L6,11 L6,10 L5,10 L5,6 L4,6 L4,2 L1,2 L1,1 L0,1 Z " fill="#3A151F" transform="translate(78,108)"/>
<path d="M0,0 L3,0 L3,2 L6,2 L6,6 L3,6 L3,8 L6,8 L6,12 L3,12 L3,14 L6,14 L6,17 L3,17 L3,19 L6,19 L6,26 L20,26 L20,27 L1,27 L1,26 L0,26 Z " fill="#2A0610" transform="translate(46,110)"/>
<path d="M0,0 L5,0 L5,1 L7,1 L7,7 L9,7 L9,8 L11,8 L11,16 L10,16 L10,14 L6,14 L6,27 L5,27 L5,25 L2,25 L2,24 L0,24 L0,21 L3,21 L3,22 L5,22 L5,19 L1,19 L1,18 L0,18 L0,16 L5,16 L5,14 L0,14 L0,10 L5,10 L5,8 L0,8 L0,5 L5,5 L5,3 L0,3 Z " fill="#22040D" transform="translate(154,90)"/>
<path d="M0,0 L38,0 L38,5 L40,5 L40,7 L38,7 L38,10 L40,10 L40,11 L42,11 L42,9 L43,9 L43,14 L41,14 L41,13 L38,13 L38,16 L41,16 L41,17 L43,17 L43,19 L42,19 L42,18 L37,18 L37,15 L36,15 L36,13 L34,13 L34,12 L33,12 L33,4 L30,4 L30,1 L0,1 Z M35,15 L36,15 L36,16 L35,16 Z " fill="#562027" transform="translate(116,66)"/>
<path d="M0,0 L1,0 L1,2 L2,2 L2,3 L1,3 L1,6 L2,6 L2,52 L0,52 L0,70 L-4,70 L-4,67 L-1,67 L-1,65 L-5,65 L-5,63 L-3,63 L-3,64 L-1,64 L-1,51 L0,51 L0,11 L-1,11 L-1,6 L0,6 L0,3 L-4,3 L-4,2 L0,2 Z " fill="#381314" transform="translate(66,66)"/>
<path d="M0,0 L1,0 L1,2 L2,2 L2,5 L3,5 L3,10 L5,10 L5,12 L3,12 L3,15 L5,15 L5,18 L3,18 L3,21 L2,21 L2,22 L1,22 L1,25 L2,25 L2,27 L3,27 L3,29 L0,29 L0,37 L2,37 L2,36 L3,36 L3,35 L4,35 L4,34 L6,34 L6,38 L-1,38 L-1,24 L-6,24 L-6,23 L-5,23 L-5,22 L-4,22 L-4,19 L-3,19 L-3,18 L-1,18 L-1,14 L0,14 Z " fill="#5B2027" transform="translate(121,98)"/>
<path d="M0,0 L3,0 L3,1 L8,1 L8,5 L10,5 L10,7 L12,7 L12,9 L10,9 L10,8 L8,8 L8,9 L9,9 L9,10 L10,10 L10,11 L11,11 L11,12 L15,12 L15,13 L40,13 L40,14 L31,14 L31,15 L29,15 L29,14 L3,14 L3,7 L2,7 L2,5 L0,5 Z " fill="#4E1220" transform="translate(72,161)"/>
<path d="M0,0 L11,0 L11,2 L1,2 L1,4 L0,4 L0,5 L1,5 L1,9 L-2,9 L-2,13 L-5,13 L-5,12 L-7,12 L-7,13 L-12,13 L-12,12 L-9,12 L-9,9 L-8,9 L-8,7 L-9,7 L-9,5 L-11,5 L-11,4 L-12,4 L-12,1 L0,1 Z " fill="#385150" transform="translate(143,138)"/>
<path d="M0,0 L19,0 L19,1 L21,1 L21,2 L13,2 L13,4 L11,4 L11,5 L22,5 L22,14 L17,14 L17,13 L20,13 L20,6 L15,6 L15,7 L13,7 L13,6 L8,6 L8,5 L9,5 L9,4 L7,4 L7,5 L6,5 L6,9 L2,9 L2,6 L1,6 L1,7 L0,7 Z " fill="#7A8F78" transform="translate(103,175)"/>
<path d="M0,0 L12,0 L12,1 L15,1 L15,2 L16,2 L16,4 L17,4 L17,5 L18,5 L18,6 L19,6 L19,7 L20,7 L20,8 L21,8 L21,11 L22,11 L22,14 L21,14 L21,13 L20,13 L20,11 L19,11 L19,9 L18,9 L18,8 L17,8 L17,7 L16,7 L16,5 L14,5 L14,4 L11,4 L11,3 L0,3 L0,4 L-3,4 L-3,5 L-4,5 L-4,6 L-5,6 L-5,8 L-6,8 L-6,9 L-7,9 L-7,10 L-8,10 L-8,13 L-9,13 L-9,14 L-10,14 L-10,25 L-11,25 L-11,11 L-10,11 L-10,9 L-9,9 L-9,8 L-8,8 L-8,5 L-7,5 L-7,4 L-5,4 L-5,3 L-4,3 L-4,2 L-3,2 L-3,1 L0,1 Z " fill="#4F967F" transform="translate(97,87)"/>
<path d="M0,0 L4,0 L4,2 L5,2 L5,3 L7,3 L7,23 L4,23 L4,22 L1,22 L1,21 L-1,21 L-1,18 L4,18 L4,19 L5,19 L5,17 L3,17 L3,16 L0,16 L0,13 L3,13 L3,14 L5,14 L5,9 L4,9 L4,11 L2,11 L2,10 L0,10 L0,7 L2,7 L2,5 L0,5 Z " fill="#19070D" transform="translate(154,66)"/>
<path d="M0,0 L1,0 L1,10 L2,10 L2,12 L1,12 L1,25 L-1,25 L-1,24 L-2,24 L-2,23 L-4,23 L-4,7 L-6,7 L-6,4 L-3,4 L-3,1 L0,1 Z " fill="#95303E" transform="translate(64,105)"/>
<path d="M0,0 L1,0 L1,33 L0,33 L0,32 L-1,32 L-1,23 L-3,23 L-3,21 L-4,21 L-4,19 L-3,19 L-3,8 L-5,8 L-5,11 L-6,11 L-6,10 L-7,10 L-7,9 L-10,9 L-10,7 L-4,7 L-4,5 L-3,5 L-3,4 L0,4 Z " fill="#0F040C" transform="translate(65,162)"/>
<path d="M0,0 L32,0 L32,1 L20,1 L20,2 L4,2 L4,4 L5,4 L5,6 L7,6 L7,8 L9,8 L9,10 L5,10 L5,13 L1,13 L1,5 L0,5 L0,4 L-2,4 L-2,3 L-1,3 L-1,2 L0,2 Z " fill="#658D73" transform="translate(111,138)"/>
<path d="M0,0 L1,0 L1,4 L3,4 L3,20 L5,20 L5,21 L4,21 L4,23 L8,23 L8,25 L5,25 L5,28 L0,28 L0,27 L2,27 L2,26 L3,26 L3,25 L0,25 L0,20 L1,20 L1,19 L-2,19 L-2,18 L-3,18 L-3,16 L-2,16 L-2,15 L1,15 L1,13 L-2,13 L-2,12 L-4,12 L-4,9 L0,9 Z " fill="#833439" transform="translate(57,108)"/>
<path d="M0,0 L1,0 L1,5 L0,5 L0,22 L43,22 L43,23 L-17,23 L-17,22 L-2,22 L-2,3 L0,3 Z " fill="#1D1F1A" transform="translate(68,115)"/>
<path d="M0,0 L2,0 L2,1 L1,1 L1,2 L6,2 L6,3 L8,3 L8,2 L13,2 L13,9 L10,9 L10,10 L1,10 L1,9 L0,9 L0,2 L-1,2 L-1,1 L0,1 Z " fill="#6E705D" transform="translate(110,179)"/>
<path d="M0,0 L1,0 L1,3 L5,3 L5,8 L4,8 L4,12 L5,12 L5,16 L6,16 L6,19 L-1,19 L-1,1 L0,1 Z " fill="#38756E" transform="translate(104,181)"/>
<path d="M0,0 L1,0 L1,5 L2,5 L2,4 L3,4 L3,16 L4,16 L4,18 L3,18 L3,28 L2,28 L2,29 L1,29 L1,40 L-3,40 L-3,39 L0,39 L0,21 L-1,21 L-1,18 L0,18 Z " fill="#6A1C31" transform="translate(56,77)"/>
<path d="M0,0 L4,0 L4,24 L2,24 L2,23 L1,23 L1,22 L0,22 Z " fill="#2A2524" transform="translate(73,41)"/>
<path d="M0,0 L3,0 L3,14 L-5,14 L-5,12 L-6,12 L-6,11 L-5,11 L-5,9 L-6,9 L-6,8 L-4,8 L-4,4 L-1,4 L-1,2 L0,2 Z " fill="#8C2B3A" transform="translate(117,122)"/>
<path d="M0,0 L2,0 L2,26 L1,26 L1,27 L0,27 L0,29 L-2,29 L-2,30 L-5,30 L-5,26 L-3,26 L-3,23 L-1,23 L-1,11 L0,11 Z " fill="#0F1217" transform="translate(166,96)"/>
<path d="M0,0 L1,0 L1,1 L11,1 L11,2 L18,2 L18,4 L17,4 L17,10 L18,10 L18,11 L19,11 L19,12 L20,12 L20,13 L13,13 L13,11 L10,11 L10,2 L0,2 Z " fill="#2F4A4D" transform="translate(51,138)"/>
<path d="M0,0 L11,0 L11,2 L7,2 L7,3 L9,3 L9,6 L4,6 L4,7 L6,7 L6,12 L7,12 L7,13 L4,13 L4,14 L3,14 L3,16 L2,16 L2,11 L0,11 L0,7 L1,7 L1,4 L4,4 L4,2 L-3,2 L-3,1 L0,1 Z " fill="#7B323C" transform="translate(55,66)"/>
<path d="M0,0 L1,0 L1,2 L2,2 L2,8 L1,8 L1,9 L0,9 L0,10 L-1,10 L-1,11 L-2,11 L-2,13 L-10,13 L-10,11 L-11,11 L-11,10 L-12,10 L-12,9 L-13,9 L-13,4 L-11,4 L-11,3 L-10,3 L-10,7 L-9,7 L-9,8 L-8,8 L-8,9 L-4,9 L-4,8 L-3,8 L-3,7 L-2,7 L-2,3 L-1,3 L-1,2 L0,2 Z " fill="#767A60" transform="translate(53,29)"/>
<path d="M0,0 L12,0 L12,4 L11,4 L11,8 L10,8 L10,5 L8,5 L8,4 L7,4 L7,5 L5,5 L5,6 L4,6 L4,8 L6,8 L6,7 L8,7 L8,8 L7,8 L7,9 L0,9 L0,5 L-2,5 L-2,4 L-1,4 L-1,3 L0,3 Z " fill="#8C2A3A" transform="translate(134,68)"/>
<path d="M0,0 L2,0 L2,1 L4,1 L4,2 L9,2 L9,1 L11,1 L11,0 L13,0 L13,1 L14,1 L14,2 L13,2 L13,3 L11,3 L11,4 L9,4 L9,5 L7,5 L7,6 L9,6 L9,7 L11,7 L11,8 L13,8 L13,11 L11,11 L11,10 L9,10 L9,9 L4,9 L4,10 L2,10 L2,11 L0,11 L0,10 L-1,10 L-1,9 L0,9 L0,8 L2,8 L2,7 L4,7 L4,6 L6,6 L6,5 L4,5 L4,4 L2,4 L2,3 L0,3 L0,2 L-1,2 L-1,1 L0,1 Z " fill="#33E6CE" transform="translate(96,72)"/>
<path d="M0,0 L2,0 L2,2 L3,2 L3,3 L4,3 L4,4 L5,4 L5,5 L6,5 L6,6 L4,6 L4,5 L1,5 L1,7 L0,7 L0,8 L-1,8 L-1,9 L-11,9 L-11,8 L-10,8 L-10,6 L-15,6 L-15,4 L-1,4 L-1,3 L0,3 Z " fill="#752935" transform="translate(94,191)"/>
<path d="M0,0 L8,0 L8,1 L10,1 L10,3 L11,3 L11,5 L10,5 L10,4 L8,4 L8,3 L1,3 L1,4 L-3,4 L-3,6 L-4,6 L-4,7 L-5,7 L-5,8 L-6,8 L-6,21 L-7,21 L-7,17 L-8,17 L-8,7 L-7,7 L-7,5 L-6,5 L-6,4 L-5,4 L-5,3 L-3,3 L-3,1 L0,1 Z " fill="#56E0AB" transform="translate(99,92)"/>
<path d="M0,0 L1,0 L1,25 L-4,25 L-4,24 L-7,24 L-7,19 L-1,19 L-1,14 L0,14 L0,9 L-1,9 L-1,8 L-4,8 L-4,6 L0,6 Z " fill="#130A13" transform="translate(38,96)"/>
<path d="M0,0 L1,0 L1,1 L3,1 L3,3 L1,3 L1,5 L3,5 L3,10 L-1,10 L-1,11 L-9,11 L-9,10 L-8,10 L-8,9 L-7,9 L-7,6 L-6,6 L-6,5 L-4,5 L-4,4 L-3,4 L-3,3 L-2,3 L-2,2 L0,2 Z " fill="#601A2A" transform="translate(121,163)"/>
<path d="M0,0 L1,0 L1,2 L2,2 L2,0 L4,0 L4,2 L5,2 L5,0 L8,0 L8,4 L7,4 L7,7 L2,7 L2,8 L-5,8 L-5,5 L-2,5 L-2,4 L-3,4 L-3,3 L-2,3 L-2,2 L0,2 Z " fill="#3B4D40" transform="translate(115,192)"/>
<path d="M0,0 L8,0 L8,9 L0,9 Z " fill="#5F5E5A" transform="translate(135,90)"/>
<path d="M0,0 L8,0 L8,9 L0,9 Z " fill="#858877" transform="translate(135,79)"/>
<path d="M0,0 L25,0 L25,13 L22,13 L22,2 L13,2 L13,1 L0,1 Z " fill="#76A18C" transform="translate(70,138)"/>
<path d="M0,0 L4,0 L4,2 L7,2 L7,5 L4,5 L4,7 L7,7 L7,10 L4,10 L4,12 L7,12 L7,16 L6,16 L6,13 L2,13 L2,14 L1,14 L1,4 L0,4 Z " fill="#2E0712" transform="translate(45,94)"/>
<path d="M0,0 L1,0 L1,15 L3,15 L3,13 L6,13 L6,15 L7,15 L7,16 L23,16 L23,17 L-1,17 L-1,1 L0,1 Z " fill="#120E15" transform="translate(45,137)"/>
<path d="M0,0 L2,0 L2,2 L4,2 L4,3 L9,3 L9,4 L15,4 L15,3 L17,3 L17,2 L19,2 L19,1 L21,1 L21,4 L20,4 L20,5 L17,5 L17,6 L16,6 L16,7 L6,7 L6,6 L5,6 L5,5 L3,5 L3,4 L1,4 L1,3 L0,3 Z " fill="#12292A" transform="translate(92,116)"/>
<path d="M0,0 L3,0 L3,1 L5,1 L5,10 L3,10 L3,9 L1,9 L1,8 L-1,8 L-1,7 L-4,7 L-4,3 L-2,3 L-2,1 L0,1 Z " fill="#13282E" transform="translate(59,184)"/>
<path d="M0,0 L4,0 L4,4 L3,4 L3,10 L0,10 L0,14 L-1,14 L-1,20 L-2,20 L-2,2 L-1,2 L-1,1 L0,1 Z " fill="#312D30" transform="translate(41,94)"/>
<path d="M0,0 L1,0 L1,1 L3,1 L3,4 L4,4 L4,5 L9,5 L9,6 L7,6 L7,11 L6,11 L6,7 L4,7 L4,17 L6,17 L6,16 L8,16 L8,18 L9,18 L9,19 L6,19 L6,20 L3,20 L3,21 L2,21 L2,2 L0,2 Z " fill="#2A1019" transform="translate(129,175)"/>
<path d="M0,0 L1,0 L1,2 L3,2 L3,4 L5,4 L5,6 L6,6 L6,7 L4,7 L4,6 L3,6 L3,5 L0,5 L0,4 L-12,4 L-12,5 L-15,5 L-15,6 L-16,6 L-16,7 L-17,7 L-17,8 L-19,8 L-19,9 L-20,9 L-20,12 L-21,12 L-21,13 L-22,13 L-22,10 L-21,10 L-21,6 L-20,6 L-20,5 L-18,5 L-18,4 L-13,4 L-13,3 L-3,3 L-3,2 L-1,2 L-1,1 L0,1 Z " fill="#524A3E" transform="translate(109,83)"/>
<path d="M0,0 L26,0 L26,2 L20,2 L20,6 L16,6 L16,5 L15,5 L15,2 L10,2 L10,1 L0,1 Z " fill="#B68562" transform="translate(85,161)"/>
<path d="M0,0 L5,0 L5,4 L3,4 L3,6 L4,6 L4,5 L5,5 L5,12 L2,12 L2,14 L0,14 Z " fill="#281F2A" transform="translate(46,138)"/>
<path d="M0,0 L5,0 L5,1 L7,1 L7,7 L9,7 L9,8 L11,8 L11,16 L10,16 L10,14 L6,14 L6,5 L5,5 L5,3 L0,3 Z " fill="#1F0C13" transform="translate(154,90)"/>
<path d="M0,0 L1,0 L1,2 L4,2 L4,3 L2,3 L2,5 L1,5 L1,6 L-4,6 L-4,8 L-7,8 L-7,11 L-4,11 L-4,10 L-3,10 L-3,9 L0,9 L0,10 L-1,10 L-1,11 L-3,11 L-3,12 L-4,12 L-4,13 L-6,13 L-6,14 L-7,14 L-7,15 L-8,15 L-8,16 L-9,16 L-9,17 L-10,17 L-10,15 L-9,15 L-9,13 L-8,13 L-8,11 L-10,11 L-10,10 L-9,10 L-9,7 L-5,7 L-5,5 L-3,5 L-3,3 L-2,3 L-2,2 L0,2 Z " fill="#1A1319" transform="translate(35,58)"/>
<path d="M0,0 L14,0 L14,8 L12,8 L12,6 L13,6 L13,2 L10,2 L10,4 L9,4 L9,2 L7,2 L7,4 L6,4 L6,2 L5,2 L5,4 L3,4 L3,5 L2,5 L2,6 L3,6 L3,7 L0,7 Z " fill="#9A8450" transform="translate(110,190)"/>
<path d="M0,0 L8,0 L8,1 L2,1 L2,2 L-7,2 L-7,4 L-9,4 L-9,5 L-10,5 L-10,6 L-11,6 L-11,7 L-13,7 L-13,8 L-14,8 L-14,11 L-15,11 L-15,6 L-17,6 L-17,5 L-15,5 L-15,4 L-16,4 L-16,2 L-8,2 L-8,1 L0,1 Z " fill="#631F2C" transform="translate(128,161)"/>
<path d="M0,0 L7,0 L7,3 L8,3 L8,5 L7,5 L7,7 L8,7 L8,10 L3,10 L3,5 L1,5 L1,2 L0,2 Z " fill="#3D3235" transform="translate(15,90)"/>
<path d="M0,0 L12,0 L12,1 L8,1 L8,2 L10,2 L10,3 L7,3 L7,4 L6,4 L6,8 L2,8 L2,5 L1,5 L1,6 L0,6 Z " fill="#619A8A" transform="translate(103,176)"/>
<path d="M0,0 L1,0 L1,3 L2,3 L2,4 L3,4 L3,10 L5,10 L5,15 L8,15 L8,18 L6,18 L6,19 L4,19 L4,16 L1,16 L1,8 L0,8 L0,6 L1,6 L1,4 L0,4 Z " fill="#1C161E" transform="translate(22,89)"/>
<path d="M0,0 L1,0 L1,11 L4,11 L4,18 L0,18 L0,17 L-1,17 L-1,15 L-2,15 L-2,14 L-5,14 L-5,13 L-1,13 L-1,6 L0,6 Z " fill="#1D171F" transform="translate(40,108)"/>
<path d="M0,0 L3,0 L3,2 L7,2 L7,6 L1,6 L1,7 L2,7 L2,9 L3,9 L3,10 L4,10 L4,12 L3,12 L3,11 L1,11 L1,10 L-1,10 L-1,2 L0,2 Z " fill="#453C3A" transform="translate(49,177)"/>
<path d="M0,0 L3,0 L3,2 L6,2 L6,3 L7,3 L7,5 L8,5 L8,7 L9,7 L9,10 L11,10 L11,13 L12,13 L12,18 L11,18 L11,15 L10,15 L10,13 L8,13 L8,11 L7,11 L7,9 L6,9 L6,8 L5,8 L5,7 L4,7 L4,6 L3,6 L3,4 L2,4 L2,2 L0,2 Z " fill="#9A4B38" transform="translate(112,85)"/>
<path d="M0,0 L8,0 L8,6 L-1,6 L-1,5 L-4,5 L-4,4 L0,4 Z " fill="#14030C" transform="translate(81,184)"/>
<path d="M0,0 L6,0 L6,2 L5,2 L5,12 L1,12 L1,2 L0,2 Z " fill="#7FB2A4" transform="translate(97,138)"/>
<path d="M0,0 L1,0 L1,2 L2,2 L2,5 L3,5 L3,10 L5,10 L5,12 L3,12 L3,15 L5,15 L5,18 L3,18 L3,21 L2,21 L2,22 L1,22 L1,25 L0,25 L0,23 L-1,23 L-1,21 L0,21 L0,20 L1,20 L1,11 L2,11 L2,7 L1,7 L1,3 L0,3 Z " fill="#6A272F" transform="translate(121,98)"/>
<path d="M0,0 L1,0 L1,2 L4,2 L4,7 L9,7 L9,9 L6,9 L6,13 L9,13 L9,17 L8,17 L8,16 L6,16 L6,14 L5,14 L5,13 L4,13 L4,10 L3,10 L3,8 L2,8 L2,7 L1,7 L1,4 L0,4 Z " fill="#0E050B" transform="translate(14,93)"/>
<path d="M0,0 L5,0 L5,3 L8,3 L8,4 L6,4 L6,5 L5,5 L5,6 L4,6 L4,7 L3,7 L3,6 L-4,6 L-4,4 L-3,4 L-3,2 L-1,2 L-1,1 L0,1 Z " fill="#3E3434" transform="translate(153,177)"/>
<path d="M0,0 L1,0 L1,9 L2,9 L2,14 L3,14 L3,15 L4,15 L4,16 L2,16 L2,17 L1,17 L1,16 L0,16 L0,15 L-1,15 L-1,12 L-3,12 L-3,1 L-2,1 L-2,8 L0,8 Z " fill="#1D4741" transform="translate(90,100)"/>
<path d="M0,0 L4,0 L4,1 L5,1 L5,5 L7,5 L7,8 L9,8 L9,13 L11,13 L11,15 L12,15 L12,17 L14,17 L14,19 L12,19 L12,18 L10,18 L10,15 L8,15 L8,11 L6,11 L6,10 L5,10 L5,6 L4,6 L4,2 L1,2 L1,1 L0,1 Z " fill="#631B29" transform="translate(78,108)"/>
<path d="M0,0 L1,0 L1,2 L0,2 L0,3 L-3,3 L-3,4 L-5,4 L-5,5 L-17,5 L-17,4 L-19,4 L-19,3 L-21,3 L-21,2 L-22,2 L-22,1 L-18,1 L-18,3 L-6,3 L-6,2 L-3,2 L-3,1 L0,1 Z " fill="#161F23" transform="translate(114,122)"/>
<path d="M0,0 L1,0 L1,3 L3,3 L3,5 L4,5 L4,6 L5,6 L5,8 L-2,8 L-2,10 L-1,10 L-1,13 L-2,13 L-2,11 L-3,11 L-3,15 L-4,15 L-4,7 L-2,7 L-2,4 L0,4 Z " fill="#1C131A" transform="translate(17,82)"/>
<path d="M0,0 L5,0 L5,7 L2,7 L2,8 L-2,8 L-2,7 L-1,7 L-1,1 L0,1 Z " fill="#685C4C" transform="translate(118,181)"/>
<path d="M0,0 L10,0 L10,1 L11,1 L11,2 L13,2 L13,4 L12,4 L12,9 L11,9 L11,3 L3,3 L3,2 L1,2 L1,3 L2,3 L2,6 L0,6 Z " fill="#49111D" transform="translate(78,181)"/>
<path d="M0,0 L1,0 L1,2 L0,2 L0,16 L1,16 L1,20 L-1,20 L-1,17 L-3,17 L-3,13 L-4,13 L-4,12 L-3,12 L-3,9 L-2,9 L-2,6 L-1,6 L-1,1 L0,1 Z " fill="#20413F" transform="translate(86,96)"/>
<path d="M0,0 L1,0 L1,2 L2,2 L2,5 L1,5 L1,8 L-19,8 L-19,7 L-8,7 L-8,6 L-6,6 L-6,7 L-3,7 L-3,3 L0,3 Z " fill="#333940" transform="translate(144,144)"/>
<path d="M0,0 L6,0 L6,1 L4,1 L4,2 L12,2 L12,3 L9,3 L9,4 L5,4 L5,5 L1,5 L1,12 L0,12 Z " fill="#722834" transform="translate(77,175)"/>
<path d="M0,0 L2,0 L2,3 L3,3 L3,4 L4,4 L4,5 L5,5 L5,7 L6,7 L6,8 L8,8 L8,9 L10,9 L10,10 L11,10 L11,11 L13,11 L13,12 L9,12 L9,11 L5,11 L5,10 L4,10 L4,8 L3,8 L3,7 L2,7 L2,6 L1,6 L1,5 L0,5 Z " fill="#275E57" transform="translate(87,112)"/>
<path d="M0,0 L10,0 L10,1 L20,1 L20,5 L22,5 L22,7 L19,7 L19,11 L17,11 L17,9 L18,9 L18,7 L17,7 L17,6 L18,6 L18,2 L9,2 L9,1 L0,1 Z " fill="#82393E" transform="translate(75,161)"/>
<path d="M0,0 L1,0 L1,5 L0,5 L0,21 L-2,21 L-2,3 L0,3 Z " fill="#2F2C2A" transform="translate(68,115)"/>
<path d="M0,0 L1,0 L1,23 L0,23 L0,15 L-1,15 L-1,14 L-2,14 L-2,13 L0,13 L0,6 L-3,6 L-3,1 L0,1 Z " fill="#0B0409" transform="translate(44,113)"/>
<path d="M0,0 L2,0 L2,6 L0,6 L0,16 L-2,16 L-2,13 L-3,13 L-3,8 L-2,8 L-2,7 L-3,7 L-3,5 L0,5 Z " fill="#221016" transform="translate(135,49)"/>
<path d="M0,0 L2,0 L2,1 L4,1 L4,5 L2,5 L2,6 L1,6 L1,7 L-2,7 L-2,8 L-3,8 L-3,1 L0,1 Z " fill="#12252B" transform="translate(144,184)"/>
<path d="M0,0 L2,0 L2,2 L3,2 L3,9 L5,9 L5,11 L3,11 L3,12 L2,12 L2,13 L0,13 Z " fill="#3B0815" transform="translate(72,166)"/>
<path d="M0,0 L1,0 L1,1 L2,1 L2,2 L3,2 L3,4 L8,4 L8,7 L7,7 L7,8 L0,8 Z " fill="#6A2433" transform="translate(68,128)"/>
<path d="M0,0 L1,0 L1,15 L2,15 L2,16 L1,16 L1,18 L-1,18 L-1,19 L-4,19 L-4,15 L-2,15 L-2,12 L0,12 Z " fill="#1D1720" transform="translate(165,107)"/>
<path d="M0,0 L1,0 L1,9 L-9,9 L-9,8 L0,8 L0,7 L-3,7 L-3,5 L-5,5 L-5,2 L0,2 Z " fill="#191920" transform="translate(160,145)"/>
<path d="M0,0 L5,0 L5,6 L0,6 L0,11 L-1,11 L-1,2 L0,2 Z " fill="#2D2831" transform="translate(154,138)"/>
<path d="M0,0 L2,0 L2,1 L1,1 L1,2 L0,2 L0,3 L-1,3 L-1,4 L-4,4 L-4,5 L-7,5 L-7,6 L-19,6 L-19,5 L-15,5 L-15,4 L-7,4 L-7,3 L-6,3 L-6,2 L-1,2 L-1,1 L0,1 Z " fill="#22514E" transform="translate(115,119)"/>
<path d="M0,0 L1,0 L1,4 L2,4 L2,15 L1,15 L1,13 L-2,13 L-2,12 L-4,12 L-4,9 L0,9 Z " fill="#89403A" transform="translate(57,108)"/>
<path d="M0,0 L3,0 L3,1 L4,1 L4,3 L5,3 L5,6 L4,6 L4,5 L3,5 L3,10 L2,10 L2,11 L1,11 L1,9 L0,9 Z " fill="#1E171F" transform="translate(143,171)"/>
<path d="M0,0 L2,0 L2,2 L1,2 L1,4 L-2,4 L-2,8 L-5,8 L-5,9 L-9,9 L-9,8 L-16,8 L-16,7 L-8,7 L-8,6 L-3,6 L-3,3 L-1,3 L-1,2 L0,2 Z " fill="#60192C" transform="translate(115,122)"/>
<path d="M0,0 L1,0 L1,9 L-4,9 L-4,8 L-7,8 L-7,3 L-3,3 L-3,7 L0,7 Z " fill="#0C040A" transform="translate(38,112)"/>
<path d="M0,0 L1,0 L1,7 L2,7 L2,8 L15,8 L15,9 L1,9 L1,16 L0,16 L0,12 L-1,12 L-1,8 L0,8 Z " fill="#293C36" transform="translate(109,181)"/>
<path d="M0,0 L1,0 L1,4 L2,4 L2,8 L1,8 L1,13 L0,13 L0,16 L-1,16 L-1,17 L-2,17 L-2,19 L-3,19 L-3,20 L-4,20 L-4,21 L-6,21 L-6,20 L-5,20 L-5,19 L-4,19 L-4,16 L-3,16 L-3,15 L-1,15 L-1,11 L0,11 Z " fill="#162023" transform="translate(121,101)"/>
<path d="M0,0 L1,0 L1,2 L2,2 L2,3 L1,3 L1,4 L0,4 L0,5 L-1,5 L-1,18 L-2,18 L-2,14 L-3,14 L-3,4 L-2,4 L-2,2 L-1,2 L-1,1 L0,1 Z " fill="#48E3AA" transform="translate(94,95)"/>
<path d="M0,0 L1,0 L1,1 L3,1 L3,2 L4,2 L4,3 L5,3 L5,5 L6,5 L6,14 L5,14 L5,7 L4,7 L4,6 L3,6 L3,9 L2,9 L2,5 L0,5 L0,3 L-1,3 L-1,2 L0,2 Z " fill="#28C28F" transform="translate(110,95)"/>
<path d="M0,0 L16,0 L16,1 L18,1 L18,4 L15,4 L15,3 L11,3 L11,2 L10,2 L10,1 L0,1 Z " fill="#591B26" transform="translate(78,180)"/>
<path d="M0,0 L1,0 L1,19 L-3,19 L-3,16 L0,16 L0,14 L-4,14 L-4,12 L-2,12 L-2,13 L0,13 Z " fill="#621C27" transform="translate(65,117)"/>
<path d="M0,0 L1,0 L1,4 L2,4 L2,8 L3,8 L3,9 L5,9 L5,11 L3,11 L3,10 L2,10 L2,9 L-1,9 L-1,7 L-2,7 L-2,6 L-3,6 L-3,3 L-1,3 L-1,2 L0,2 Z " fill="#862739" transform="translate(81,110)"/>
<path d="M0,0 L2,0 L2,3 L1,3 L1,4 L0,4 L0,5 L-2,5 L-2,6 L-3,6 L-3,5 L-9,5 L-9,8 L-11,8 L-11,3 L-12,3 L-12,1 L-11,1 L-11,2 L-10,2 L-10,4 L-2,4 L-2,2 L-1,2 L-1,1 L0,1 Z " fill="#1E1319" transform="translate(53,38)"/>
<path d="M0,0 L1,0 L1,2 L2,2 L2,0 L4,0 L4,2 L5,2 L5,0 L8,0 L8,4 L3,4 L3,3 L2,3 L2,5 L1,5 L1,4 L-3,4 L-3,3 L-2,3 L-2,2 L0,2 Z " fill="#653129" transform="translate(115,192)"/>
<path d="M0,0 L2,0 L2,1 L1,1 L1,2 L0,2 L0,4 L1,4 L1,5 L0,5 L0,6 L-1,6 L-1,9 L-2,9 L-2,10 L-3,10 L-3,21 L-4,21 L-4,7 L-3,7 L-3,5 L-2,5 L-2,4 L-1,4 L-1,1 L0,1 Z " fill="#30776B" transform="translate(90,91)"/>
<path d="M0,0 L5,0 L5,1 L7,1 L7,2 L9,2 L9,3 L8,3 L8,4 L-1,4 L-1,2 L-2,2 L-2,1 L0,1 Z " fill="#AB6C62" transform="translate(100,81)"/>
<path d="M0,0 L1,0 L1,1 L3,1 L3,3 L1,3 L1,5 L3,5 L3,10 L-1,10 L-1,2 L0,2 Z " fill="#511322" transform="translate(121,163)"/>
<path d="M0,0 L1,0 L1,10 L0,10 L0,13 L-1,13 L-1,15 L-2,15 L-2,16 L-3,16 L-3,18 L-4,18 L-4,16 L-6,16 L-6,15 L-5,15 L-5,13 L-2,13 L-2,9 L0,9 Z " fill="#153231" transform="translate(117,101)"/>
<path d="M0,0 L1,0 L1,2 L6,2 L6,4 L1,4 L1,8 L-4,8 L-4,7 L-3,7 L-3,5 L-2,5 L-2,4 L-1,4 L-1,3 L0,3 Z " fill="#430C1B" transform="translate(153,128)"/>
<path d="M0,0 L1,0 L1,6 L2,6 L2,8 L3,8 L3,9 L9,9 L9,10 L1,10 L1,8 L0,8 L0,7 L-1,7 L-1,6 L-2,6 L-2,1 L0,1 Z " fill="#665853" transform="translate(42,32)"/>
<path d="M0,0 L5,0 L5,1 L6,1 L6,2 L7,2 L7,4 L8,4 L8,6 L9,6 L9,7 L8,7 L8,16 L6,16 L6,15 L7,15 L7,6 L6,6 L6,4 L5,4 L5,3 L4,3 L4,2 L2,2 L2,1 L0,1 Z " fill="#15463E" transform="translate(109,94)"/>
<path d="M0,0 L7,0 L7,9 L0,9 L0,8 L6,8 L6,5 L5,5 L5,2 L0,2 Z " fill="#91947D" transform="translate(136,90)"/>
<path d="M0,0 L4,0 L4,2 L5,2 L5,8 L4,8 L4,7 L2,7 L2,5 L0,5 Z " fill="#2A0810" transform="translate(154,66)"/>
<path d="M0,0 L1,0 L1,1 L2,1 L2,4 L-1,4 L-1,5 L-2,5 L-2,6 L-4,6 L-4,8 L-5,8 L-5,10 L-2,10 L-2,11 L-6,11 L-6,4 L-3,4 L-3,3 L0,3 Z " fill="#1E131C" transform="translate(154,173)"/>
<path d="M0,0 L4,0 L4,1 L2,1 L2,2 L1,2 L1,3 L-4,3 L-4,4 L-10,4 L-10,3 L-8,3 L-8,1 L0,1 Z " fill="#366461" transform="translate(124,176)"/>
<path d="M0,0 L10,0 L10,2 L11,2 L11,4 L10,4 L10,3 L9,3 L9,2 L5,2 L5,3 L4,3 L4,7 L3,7 L3,2 L1,2 L1,1 L0,1 Z " fill="#366F67" transform="translate(71,140)"/>
<path d="M0,0 L1,0 L1,4 L5,4 L5,0 L6,0 L6,6 L4,6 L4,10 L2,10 L2,6 L0,6 Z " fill="#130A0F" transform="translate(72,30)"/>
<path d="M0,0 L4,0 L4,4 L3,4 L3,9 L1,9 L1,5 L0,5 Z " fill="#685642" transform="translate(41,94)"/>
<path d="M0,0 L5,0 L5,4 L4,4 L4,8 L3,8 L3,5 L1,5 L1,4 L0,4 L0,2 L-1,2 L-1,1 L0,1 Z " fill="#7B2538" transform="translate(141,68)"/>
<path d="M0,0 L4,0 L4,4 L2,4 L2,5 L-1,5 L-1,4 L-2,4 L-2,3 L-3,3 L-3,2 L-2,2 L-2,1 L0,1 Z " fill="#483F3E" transform="translate(55,172)"/>
<path d="M0,0 L1,0 L1,4 L3,4 L3,6 L1,6 L1,10 L0,10 L0,7 L-2,7 L-2,6 L-10,6 L-10,5 L0,5 Z " fill="#340815" transform="translate(132,169)"/>
<path d="M0,0 L4,0 L4,1 L5,1 L5,13 L4,13 L4,4 L2,4 L2,3 L0,3 Z " fill="#4C4E47" transform="translate(161,94)"/>
<path d="M0,0 L12,0 L12,2 L8,2 L8,1 L7,1 L7,2 L6,2 L6,3 L3,3 L3,2 L0,2 Z " fill="#8E373B" transform="translate(103,68)"/>
<path d="M0,0 L1,0 L1,1 L2,1 L2,4 L1,4 L1,5 L0,5 L0,6 L-4,6 L-4,5 L-5,5 L-5,1 L-3,1 L-3,3 L0,3 Z " fill="#10E785" transform="translate(49,32)"/>
<path d="M0,0 L2,0 L2,2 L4,2 L4,4 L9,4 L9,6 L3,6 L3,5 L1,5 L1,3 L0,3 Z " fill="#4E121F" transform="translate(75,193)"/>
<path d="M0,0 L7,0 L7,1 L9,1 L9,2 L8,2 L8,3 L0,3 L0,2 L-1,2 L-1,1 L0,1 Z " fill="#342A31" transform="translate(99,155)"/>
<path d="M0,0 L3,0 L3,9 L1,9 L1,7 L0,7 Z " fill="#3D3337" transform="translate(34,106)"/>
<path d="M0,0 L3,0 L3,7 L4,7 L4,9 L0,9 L0,6 L2,6 L2,4 L0,4 Z " fill="#21151F" transform="translate(31,106)"/>
<path d="M0,0 L2,0 L2,3 L3,3 L3,4 L6,4 L6,5 L0,5 L0,6 L-3,6 L-3,3 L0,3 Z " fill="#8B2B3A" transform="translate(136,130)"/>
<path d="M0,0 L1,0 L1,2 L2,2 L2,3 L1,3 L1,6 L2,6 L2,10 L0,10 L0,11 L-1,11 L-1,6 L0,6 L0,3 L-4,3 L-4,2 L0,2 Z " fill="#3B2120" transform="translate(66,66)"/>
<path d="M0,0 L5,0 L5,1 L4,1 L4,3 L2,3 L2,4 L-4,4 L-4,2 L0,2 Z " fill="#34DCA3" transform="translate(105,116)"/>
<path d="M0,0 L5,0 L5,2 L3,2 L3,5 L0,5 L0,3 L-3,3 L-3,2 L-1,2 L-1,1 L0,1 Z " fill="#0C0309" transform="translate(28,110)"/>
<path d="M0,0 L3,0 L3,2 L7,2 L7,5 L5,5 L5,6 L3,6 L3,3 L0,3 Z " fill="#453A3D" transform="translate(23,102)"/>
<path d="M0,0 L9,0 L9,1 L12,1 L12,2 L14,2 L14,4 L10,4 L10,3 L8,3 L8,1 L0,1 Z " fill="#10342E" transform="translate(99,90)"/>
<path d="M0,0 L1,0 L1,2 L3,2 L3,4 L5,4 L5,6 L6,6 L6,7 L4,7 L4,6 L3,6 L3,5 L0,5 L0,4 L-2,4 L-2,3 L-3,3 L-3,2 L-1,2 L-1,1 L0,1 Z " fill="#6E4433" transform="translate(109,83)"/>
<path d="M0,0 L3,0 L3,1 L5,1 L5,3 L6,3 L6,4 L-2,4 L-2,3 L-1,3 L-1,2 L0,2 Z " fill="#84333D" transform="translate(95,196)"/>
<path d="M0,0 L5,0 L5,1 L6,1 L6,5 L5,5 L5,4 L2,4 L2,3 L0,3 Z " fill="#2A050F" transform="translate(153,84)"/>
<path d="M0,0 L2,0 L2,2 L3,2 L3,3 L4,3 L4,4 L5,4 L5,5 L6,5 L6,6 L4,6 L4,5 L1,5 L1,7 L0,7 Z M-1,7 L0,7 L0,8 L-1,8 Z " fill="#782C37" transform="translate(94,191)"/>
<path d="M0,0 L2,0 L2,5 L1,5 L1,7 L-1,7 L-1,3 L-4,3 L-4,2 L-1,2 L-1,1 L0,1 Z " fill="#4C111E" transform="translate(75,177)"/>
<path d="M0,0 L3,0 L3,3 L6,3 L6,6 L7,6 L7,7 L5,7 L5,6 L4,6 L4,4 L0,4 Z " fill="#291D25" transform="translate(20,102)"/>
<path d="M0,0 L3,0 L3,1 L4,1 L4,5 L0,5 L0,4 L-1,4 L-1,2 L0,2 Z " fill="#31DA9F" transform="translate(98,98)"/>
<path d="M0,0 L2,0 L2,1 L4,1 L4,5 L3,5 L3,6 L0,6 Z " fill="#2D232D" transform="translate(161,97)"/>
<path d="M0,0 L10,0 L10,1 L11,1 L11,4 L9,4 L9,2 L8,2 L8,1 L2,1 L2,2 L1,2 L1,4 L0,4 Z " fill="#C2BE96" transform="translate(42,27)"/>
<path d="M0,0 L1,0 L1,1 L4,1 L4,0 L5,0 L5,1 L6,1 L6,4 L0,4 Z " fill="#873C41" transform="translate(92,183)"/>
<path d="M0,0 L1,0 L1,11 L-1,11 L-1,7 L-2,7 L-2,6 L-1,6 L-1,3 L0,3 Z " fill="#1F1C21" transform="translate(84,102)"/>
<path d="M0,0 L2,0 L2,1 L4,1 L4,2 L3,2 L3,3 L0,3 L0,4 L-1,4 L-1,5 L-2,5 L-2,7 L-4,7 L-4,5 L-3,5 L-3,4 L-2,4 L-2,2 L-1,2 L-1,1 L0,1 Z " fill="#419D85" transform="translate(94,88)"/>
<path d="M0,0 L4,0 L4,5 L0,5 Z " fill="#2D232B" transform="translate(137,81)"/>
<path d="M0,0 L4,0 L4,5 L0,5 Z " fill="#5D2A2E" transform="translate(73,29)"/>
<path d="M0,0 L3,0 L3,2 L4,2 L4,3 L5,3 L5,5 L3,5 L3,4 L-1,4 L-1,2 L0,2 Z " fill="#5D5548" transform="translate(49,177)"/>
<path d="M0,0 L1,0 L1,6 L7,6 L7,7 L4,7 L4,8 L0,8 L0,7 L-2,7 L-2,6 L0,6 Z " fill="#200E15" transform="translate(68,154)"/>
<path d="M0,0 L8,0 L8,2 L6,2 L6,3 L1,3 L1,2 L2,2 L2,1 L0,1 Z " fill="#1E141F" transform="translate(106,155)"/>
<path d="M0,0 L5,0 L5,3 L4,3 L4,4 L0,4 Z " fill="#892837" transform="translate(71,132)"/>
<path d="M0,0 L3,0 L3,4 L1,4 L1,5 L-4,5 L-4,4 L-1,4 L-1,2 L0,2 Z " fill="#752335" transform="translate(117,122)"/>
<path d="M0,0 L2,0 L2,3 L3,3 L3,4 L4,4 L4,8 L3,8 L3,7 L2,7 L2,6 L1,6 L1,5 L0,5 Z " fill="#2C6B63" transform="translate(87,112)"/>
<path d="M0,0 L3,0 L3,2 L2,2 L2,4 L1,4 L1,7 L-2,7 L-2,4 L0,4 Z " fill="#3D3033" transform="translate(24,69)"/>
<path d="M0,0 L3,0 L3,2 L2,2 L2,3 L-7,3 L-7,2 L-3,2 L-3,1 L0,1 Z " fill="#873841" transform="translate(89,177)"/>
<path d="M0,0 L1,0 L1,2 L4,2 L4,3 L7,3 L7,5 L2,5 L2,3 L-1,3 L-1,1 L0,1 Z " fill="#20141D" transform="translate(50,174)"/>
<path d="M0,0 L2,0 L2,2 L3,2 L3,3 L2,3 L2,5 L3,5 L3,6 L1,6 L1,4 L0,4 L0,3 L-3,3 L-3,1 L0,1 Z " fill="#5E1F25" transform="translate(52,121)"/>
<path d="M0,0 L4,0 L4,5 L1,5 L1,3 L0,3 Z " fill="#2A282C" transform="translate(137,92)"/>
<path d="M0,0 L1,0 L1,3 L4,3 L4,5 L1,5 L1,7 L0,7 L0,5 L-1,5 L-1,1 L0,1 Z " fill="#366662" transform="translate(104,181)"/>
<path d="M0,0 L2,0 L2,3 L1,3 L1,5 L0,5 L0,10 L-1,10 L-1,1 L0,1 Z " fill="#1F1821" transform="translate(154,139)"/>
<path d="M0,0 L4,0 L4,3 L5,3 L5,8 L4,8 L4,5 L3,5 L3,3 L1,3 L1,1 L0,1 Z " fill="#8B3E33" transform="translate(119,95)"/>
<path d="M0,0 L2,0 L2,6 L3,6 L3,8 L1,8 L1,7 L0,7 Z " fill="#2E1D24" transform="translate(74,57)"/>
</svg>
