<?xml version="1.0" standalone="no"?>
<!DOCTYPE svg PUBLIC "-//W3C//DTD SVG 20010904//EN"
 "http://www.w3.org/TR/2001/REC-SVG-20010904/DTD/svg10.dtd">
<svg version="1.0" xmlns="http://www.w3.org/2000/svg"
 width="200.000000pt" height="200.000000pt" viewBox="0 0 200.000000 200.000000"
 preserveAspectRatio="xMidYMid meet">

<g transform="translate(0.000000,200.000000) scale(0.100000,-0.100000)"
fill="#000000" stroke="none">
<path d="M962 1830 c0 -102 2 -128 10 -107 6 18 7 64 0 135 l-9 107 -1 -135z"/>
<path d="M1011 1865 c-2 -95 -16 -207 -21 -175 -1 9 -5 4 -10 -10 -6 -18 -8
-20 -9 -7 -1 10 -5 16 -9 13 -8 -5 -20 62 -38 212 -11 94 -14 50 -5 -79 5 -68
5 -126 1 -129 -4 -3 -10 -14 -13 -25 -4 -11 -4 -4 -2 15 3 35 -31 260 -42 270
-3 3 -3 -11 0 -30 7 -39 27 -207 27 -228 0 -7 -4 -11 -8 -8 -5 3 -19 -4 -32
-16 -21 -20 -22 -20 -16 -1 6 18 -56 249 -70 262 -4 3 -5 -1 -2 -9 3 -8 16
-60 28 -115 13 -55 27 -101 31 -103 4 -2 5 -12 2 -22 -3 -11 -9 -17 -14 -14
-5 3 -12 -2 -15 -10 -3 -9 -10 -13 -15 -10 -5 3 -12 -1 -15 -9 -2 -7 -11 -14
-18 -14 -8 0 -12 7 -8 15 4 11 1 13 -8 7 -10 -6 -12 -4 -7 8 4 10 1 17 -5 17
-6 0 -9 3 -5 6 6 6 -16 62 -60 152 -42 85 -36 54 11 -59 56 -135 61 -150 46
-147 -7 2 -15 -3 -18 -11 -3 -8 0 -11 7 -7 6 4 14 0 17 -8 8 -21 24 -20 24 2
0 13 2 14 9 3 12 -18 32 -5 25 17 -5 15 -4 15 6 -1 15 -23 29 -13 24 16 -4 20
-3 19 6 -3 11 -24 12 -24 26 -6 8 11 14 14 14 8 0 -22 20 -12 21 11 1 18 2 19
6 4 3 -13 11 -17 24 -14 25 7 24 0 -5 -38 -26 -33 -66 -143 -66 -180 0 -11 -4
-25 -9 -31 -14 -14 -29 -100 -23 -129 2 -14 20 -38 38 -53 19 -15 34 -30 34
-34 0 -4 -21 -10 -47 -13 -79 -11 -154 -35 -235 -76 -71 -36 -177 -111 -205
-147 -13 -15 -15 -13 -17 17 -1 8 -15 18 -31 23 -36 10 -274 -2 -281 -14 -3
-4 64 -6 148 -4 84 3 140 1 123 -3 l-30 -8 30 -5 c19 -4 14 -5 -15 -3 -56 3
-242 -15 -254 -26 -4 -4 18 -6 50 -3 139 9 227 13 206 8 -12 -3 -19 -10 -16
-16 4 -6 -1 -8 -13 -4 -18 6 -193 -18 -218 -30 -12 -5 105 3 192 14 35 5 63 5
63 0 0 -4 -9 -8 -21 -8 -11 0 -18 -4 -15 -9 4 -5 -2 -7 -11 -5 -10 2 -61 -7
-113 -20 -105 -26 -86 -34 25 -11 79 17 129 20 105 6 -8 -5 -60 -21 -114 -37
-118 -33 -115 -43 5 -15 130 30 122 11 -14 -35 -90 -30 -97 -42 -11 -19 32 8
65 15 73 15 30 0 -12 -28 -71 -48 -32 -10 -55 -21 -52 -25 3 -3 26 2 50 10 70
24 74 0 6 -37 l-37 -21 32 7 c38 7 43 -7 13 -33 -11 -9 -15 -20 -10 -23 6 -4
5 -21 -2 -45 -7 -22 -12 -94 -12 -160 1 -101 5 -132 27 -199 25 -76 27 -129 6
-142 -14 -8 -10 -24 6 -24 21 0 33 28 45 106 6 38 12 70 14 71 1 2 17 -20 35
-48 18 -27 36 -48 38 -45 3 3 -4 28 -16 55 -52 121 -62 211 -35 320 21 85 45
132 85 165 34 29 101 66 119 66 23 0 109 -93 131 -143 18 -41 23 -70 24 -137
0 -77 -3 -93 -38 -170 -54 -120 -54 -118 -15 -82 22 21 35 28 35 18 0 -8 -5
-14 -11 -13 -11 2 -13 -120 -2 -148 4 -12 26 -15 102 -15 l96 0 -4 69 c-3 56
-9 76 -33 111 -17 23 -39 57 -50 74 l-20 31 48 -39 c55 -45 63 -35 11 15 -46
44 -69 89 -89 174 -22 96 -49 151 -105 215 l-48 57 64 31 63 32 98 -31 c54
-17 106 -35 115 -40 25 -13 41 -11 32 3 -4 7 -3 8 4 4 16 -10 4 -33 -20 -39
-30 -8 -14 -23 34 -32 36 -6 40 -8 22 -15 -12 -5 -24 -16 -27 -24 -5 -13 -1
-15 21 -10 l27 7 -25 -28 -25 -27 30 6 c28 6 31 4 30 -17 0 -12 -8 -35 -18
-50 -17 -26 -17 -27 3 -27 29 0 59 17 99 56 19 19 37 31 40 29 7 -8 -30 -45
-77 -77 -45 -31 -51 -54 -13 -52 17 1 21 -4 18 -18 -6 -21 -3 -22 24 -8 17 10
19 7 19 -28 0 -52 12 -61 26 -20 l12 33 11 -29 c11 -26 9 -33 -16 -64 -15 -19
-57 -50 -93 -68 -36 -19 -81 -51 -100 -71 -35 -36 -35 -36 -5 -18 53 34 130
75 139 75 17 0 -29 -42 -122 -112 -52 -38 -91 -72 -89 -75 3 -3 23 7 44 21 44
30 63 34 40 8 -10 -10 -17 -22 -17 -25 0 -4 175 -7 389 -7 363 0 390 1 394 18
4 16 5 16 6 0 0 -10 5 -18 10 -18 18 0 22 37 10 120 -10 78 -9 92 10 163 20
70 21 79 7 104 -8 16 -15 22 -16 15 0 -7 -15 2 -34 19 -27 24 -33 35 -27 52 4
12 12 22 18 24 10 4 33 -39 33 -62 0 -8 9 -15 19 -15 11 0 23 -4 26 -10 3 -5
12 -10 18 -10 7 0 -5 16 -25 35 -21 18 -38 41 -38 50 0 18 8 15 63 -28 21 -16
40 -27 42 -25 3 3 -22 26 -55 51 -55 43 -73 67 -52 67 5 0 37 -18 70 -40 34
-22 62 -36 62 -31 0 5 -22 23 -49 41 -102 65 -95 91 8 32 89 -51 94 -41 6 13
-98 60 -83 79 21 25 31 -17 61 -29 66 -28 5 2 -20 19 -56 38 -36 19 -66 41
-66 48 0 16 1 16 77 -18 87 -40 94 -30 9 12 -96 47 -86 67 15 28 28 -12 57
-19 63 -17 6 3 -2 10 -19 16 -66 25 -105 44 -105 53 0 12 24 10 75 -8 26 -8
52 -13 58 -11 7 2 -15 13 -47 23 -71 24 -91 51 -30 40 87 -17 99 -16 50 1 -66
24 -75 48 -15 38 24 -3 52 -9 63 -12 12 -3 16 -1 12 6 -4 6 -13 11 -19 11 -7
0 -29 5 -50 11 -56 15 -36 33 32 26 55 -6 49 5 -11 17 -45 10 -32 25 25 28
l52 4 -43 8 c-52 10 -50 29 4 37 26 4 31 7 13 8 -14 0 -28 4 -32 7 -13 13 7
34 32 35 24 0 25 1 5 9 l-22 9 25 52 c23 47 25 61 19 123 -13 144 -26 195 -58
226 -16 17 -34 30 -39 30 -19 0 -237 -114 -233 -122 3 -4 10 -8 15 -8 6 0 7 5
3 12 -4 7 -3 8 5 4 6 -4 50 13 97 39 54 29 91 44 102 40 16 -6 16 -8 -1 -20
-11 -8 -57 -28 -102 -46 -46 -18 -82 -37 -79 -41 3 -4 -3 -5 -12 -1 -12 4 -15
3 -10 -5 5 -8 2 -10 -8 -6 -9 3 -13 10 -10 15 7 12 0 11 -31 -3 -26 -12 -29
-36 -4 -29 8 2 28 4 44 5 17 1 40 8 53 15 13 7 47 19 75 28 29 8 58 20 65 25
7 6 16 8 19 4 10 -10 -9 -20 -87 -46 -38 -13 -67 -27 -65 -31 3 -4 -5 -5 -17
-1 -14 3 -19 1 -14 -6 5 -8 1 -10 -10 -5 -11 4 -15 3 -10 -5 7 -11 -31 -28
-41 -18 -4 3 1 6 10 6 10 0 17 7 17 15 0 17 -9 19 -28 6 -9 -5 -11 -17 -7 -34
6 -23 11 -26 34 -22 24 5 25 5 4 -4 -35 -16 -28 -34 10 -27 32 6 32 6 5 -5
-34 -13 -36 -29 -5 -30 22 0 22 0 1 -9 -29 -11 -21 -57 10 -63 20 -4 20 -4 -1
-6 -13 0 -23 -5 -23 -11 0 -5 10 -10 23 -11 20 0 20 -1 3 -8 -10 -4 -20 -19
-22 -33 -4 -37 -105 -170 -119 -158 -16 13 -26 1 -19 -24 5 -22 -46 -106 -65
-106 -5 0 -28 16 -52 36 -23 19 -55 42 -70 50 -16 8 -46 38 -68 67 -35 46 -38
52 -21 55 24 4 34 18 49 65 12 35 33 48 46 27 3 -6 11 -10 17 -10 6 0 5 7 -3
18 -13 15 -12 16 3 4 10 -8 16 -17 15 -20 -1 -4 27 -36 62 -72 35 -36 61 -58
56 -50 -5 9 -4 12 1 7 5 -5 9 -14 9 -20 0 -15 18 -22 23 -9 4 13 -98 134 -118
140 -11 4 -9 -2 5 -19 l20 -24 -22 19 c-13 10 -20 22 -18 27 3 4 -10 19 -29
34 l-34 26 24 76 c13 42 25 92 26 111 1 18 6 36 12 39 5 4 6 0 2 -8 -4 -8 4 0
18 16 28 32 32 45 15 45 -5 0 -7 -4 -4 -10 3 -5 2 -10 -3 -10 -6 0 -13 7 -16
16 -3 8 -2 12 4 9 18 -11 11 21 -10 48 -11 14 -25 50 -31 80 -11 51 -10 56 11
77 17 17 19 24 9 30 -8 5 -18 2 -26 -8 -12 -15 -13 -14 -3 6 6 12 16 20 22 16
6 -4 9 -1 6 7 -3 8 -10 13 -16 12 -5 -1 -13 4 -16 13 -4 10 -2 13 6 8 8 -5 9
-2 5 10 -4 9 -3 15 2 12 7 -5 28 34 88 167 25 53 3 26 -36 -45 -22 -40 -47
-82 -56 -93 -16 -19 -16 -19 -10 10 4 16 22 62 40 102 19 40 30 73 26 73 -11
0 -92 -172 -95 -203 -4 -36 -13 -44 -20 -19 -4 12 10 65 34 132 23 61 40 114
37 116 -7 7 -97 -218 -91 -228 3 -5 -3 -4 -15 4 -12 7 -21 16 -21 21 0 4 4 6
8 3 9 -5 77 202 70 210 -2 2 -20 -40 -39 -93 -48 -132 -65 -131 -30 1 15 58
25 106 21 106 -4 0 -19 -45 -35 -101 -16 -55 -32 -102 -37 -105 -12 -8 -9 43
7 116 24 108 15 112 -11 5 -13 -54 -23 -104 -20 -110 2 -7 -2 -12 -10 -12 -17
0 -17 18 0 137 14 89 15 125 3 83 -13 -45 -38 -197 -34 -208 3 -6 -2 -12 -10
-12 -13 0 -15 12 -10 76 4 42 9 99 13 126 4 28 4 48 1 45 -9 -9 -39 -221 -34
-241 3 -13 0 -16 -11 -12 -13 5 -14 25 -10 132 3 75 2 109 -3 85 -4 -23 -9
-85 -11 -137 -2 -73 -6 -93 -15 -85 -8 7 -13 52 -16 136 l-3 127 -3 -100z
m166 -190 c50 -15 50 -16 44 -48 -4 -20 -13 -32 -23 -32 -14 0 -108 78 -108
90 0 9 36 5 87 -10z m-230 -27 c-3 -8 -6 -5 -6 6 -1 11 2 17 5 13 3 -3 4 -12
1 -19z m19 -64 c-6 -19 -12 -28 -14 -20 -3 13 14 56 22 56 2 0 -2 -16 -8 -36z
m164 -136 c27 -4 31 -22 6 -26 -30 -6 -66 19 -87 60 -28 55 -24 57 21 11 21
-23 49 -43 60 -45z m-198 10 c-11 -23 -11 -23 -11 -1 -1 12 -4 30 -7 40 -6 17
-6 17 11 1 15 -14 16 -21 7 -40z m-16 -72 c24 -4 25 -12 3 -32 -11 -10 -19
-14 -17 -8 2 6 -8 21 -22 33 l-25 22 24 -7 c13 -3 30 -7 37 -8z m99 -27 c-13
-24 -14 -34 -4 -45 9 -11 7 -14 -10 -14 -11 0 -21 5 -21 10 0 6 -8 11 -17 11
-17 1 -17 2 0 6 11 3 17 14 17 34 0 24 4 29 25 29 25 0 25 0 10 -31z m71 21
c-22 -4 -45 -16 -53 -26 -7 -10 -13 -13 -13 -6 0 18 43 42 75 41 27 -1 26 -2
-9 -9z m159 -11 c-4 -13 -3 -19 2 -16 6 4 8 -5 5 -21 l-6 -27 -6 25 c-4 19
-13 25 -35 26 -17 1 -34 -4 -38 -10 -5 -7 -7 -3 -5 9 3 19 28 31 71 34 14 1
17 -4 12 -20z m135 11 c0 -5 -2 -10 -4 -10 -3 0 -8 5 -11 10 -3 6 -1 10 4 10
6 0 11 -4 11 -10z m555 -114 c11 -68 10 -76 -10 -116 l-22 -43 -6 102 c-4 71
-3 108 5 121 7 11 14 17 17 14 2 -2 10 -37 16 -78z m-709 19 c11 -44 10 -128
-2 -132 -15 -5 -24 30 -24 100 0 58 15 77 26 32z m45 -2 c13 -16 12 -17 -3 -4
-10 7 -18 15 -18 17 0 8 8 3 21 -13z m-111 3 c0 -2 -8 -10 -17 -17 -16 -13
-17 -12 -4 4 13 16 21 21 21 13z m182 -43 c-3 -16 -7 -22 -10 -15 -4 13 4 42
11 42 2 0 2 -12 -1 -27z m438 17 c0 -5 -4 -10 -10 -10 -5 0 -10 5 -10 10 0 6
5 10 10 10 6 0 10 -4 10 -10z m91 -195 c-6 -11 -12 -29 -13 -40 -2 -11 -7 31
-11 92 -6 84 -4 118 5 133 11 18 14 8 21 -72 5 -58 4 -101 -2 -113z m-754 189
c-3 -3 -12 -4 -19 -1 -8 3 -5 6 6 6 11 1 17 -2 13 -5z m623 -4 c0 -5 -5 -10
-11 -10 -5 0 -7 5 -4 10 3 6 8 10 11 10 2 0 4 -4 4 -10z m-584 -22 c-19 -66
-19 -76 3 -83 27 -8 27 -32 -1 -56 l-23 -19 33 6 c37 7 43 -7 10 -24 -20 -10
-17 -12 25 -9 28 1 47 -2 47 -8 0 -7 -15 -9 -37 -7 -27 3 -40 0 -49 -13 -11
-15 -16 -16 -29 -5 -24 20 -38 51 -40 85 -1 17 -4 39 -8 51 -5 15 1 33 23 62
33 46 56 56 46 20z m144 12 c0 -5 -2 -10 -4 -10 -3 0 -8 5 -11 10 -3 6 -1 10
4 10 6 0 11 -4 11 -10z m476 -19 c-8 -12 -46 -21 -46 -11 0 5 8 11 18 13 29 8
33 7 28 -2z m-604 -43 c-7 -7 -12 -8 -12 -2 0 14 12 26 19 19 2 -3 -1 -11 -7
-17z m126 -9 c-3 -8 -7 -3 -11 10 -4 17 -3 21 5 13 5 -5 8 -16 6 -23z m477 11
c-3 -5 -11 -10 -16 -10 -6 0 -7 5 -4 10 3 6 11 10 16 10 6 0 7 -4 4 -10z m43
-62 l-2 -73 -3 60 -4 60 -21 -25 -20 -25 14 25 c27 47 29 50 34 50 2 0 3 -33
2 -72z m-551 0 c-3 -8 -6 -5 -6 6 -1 11 2 17 5 13 3 -3 4 -12 1 -19z m-438
-75 c-21 -77 -26 -81 -135 -129 -41 -18 -100 -52 -131 -76 -30 -24 -61 -47
-68 -52 -15 -11 -105 39 -113 62 -10 30 165 170 265 213 53 23 185 59 194 53
4 -2 -2 -34 -12 -71z m381 57 c0 -5 -5 -10 -11 -10 -5 0 -7 5 -4 10 3 6 8 10
11 10 2 0 4 -4 4 -10z m483 3 c-7 -2 -21 -2 -30 0 -10 3 -4 5 12 5 17 0 24 -2
18 -5z m-638 -153 l69 -70 -37 0 c-27 0 -43 7 -58 24 -12 14 -28 22 -35 19
-11 -4 -14 7 -14 46 0 28 1 51 3 51 1 0 34 -31 72 -70z m-128 15 c12 -32 -4
-32 -25 1 -22 34 -22 35 -2 24 12 -6 24 -18 27 -25z m519 -37 l29 -33 -32 29
c-31 28 -38 36 -30 36 2 0 16 -15 33 -32z m254 -33 c-26 -28 -16 -33 18 -9 23
16 52 13 52 -6 0 -15 -58 -76 -65 -68 -4 4 6 18 21 32 32 28 17 35 -20 11 -20
-13 -25 -13 -35 -2 -9 11 -6 20 10 41 11 14 25 26 31 26 7 0 1 -11 -12 -25z
m-1047 -50 c-36 -36 -68 -65 -72 -66 -15 -2 -37 -8 -53 -14 -28 -11 -21 8 15
42 36 35 144 103 163 103 7 0 -17 -29 -53 -65z m222 6 c26 -33 65 -72 87 -87
22 -16 35 -30 29 -32 -9 -3 -9 -7 0 -18 9 -11 7 -14 -14 -14 -14 0 -27 5 -29
10 -2 6 -34 42 -72 80 -59 59 -68 72 -62 94 3 14 8 26 11 26 2 0 25 -27 50
-59z m263 9 l52 0 0 -43 c0 -48 -23 -71 -65 -62 -14 3 -36 7 -50 10 -24 5 -44
34 -60 84 -7 23 -6 24 31 18 22 -4 63 -7 92 -7z m130 -45 c4 -6 18 -19 32 -28
13 -9 19 -17 12 -17 -6 0 -12 -11 -12 -24 0 -56 -29 -75 -51 -33 -7 12 -17 25
-23 29 -7 4 -10 30 -7 69 l3 64 19 -24 c11 -13 23 -29 27 -36z m-845 -17 c29
-23 45 -39 35 -35 -9 3 -36 -7 -64 -24 -47 -30 -94 -34 -94 -7 0 12 59 108 66
108 3 0 28 -19 57 -42z m318 -12 c30 -14 75 -30 102 -37 52 -13 63 -29 19 -29
-33 0 -128 24 -178 45 -31 13 -34 17 -24 30 16 20 18 19 81 -9z m896 4 c3 -11
14 -20 25 -20 10 0 16 -4 13 -10 -3 -5 -17 -10 -30 -10 -27 0 -42 -16 -23 -23
7 -2 9 -8 5 -13 -4 -4 -20 4 -34 19 l-27 26 24 26 c28 30 40 32 47 5z m-821
-15 c17 -13 16 -14 -13 -4 -34 11 -42 19 -20 19 7 0 22 -7 33 -15z m418 -54
c10 -15 -22 -21 -119 -21 -127 0 -134 18 -8 23 54 1 103 4 110 5 6 1 14 -2 17
-7z m301 -21 c-10 -11 -23 -20 -28 -20 -6 0 0 11 13 25 27 29 42 25 15 -5z
m-1219 2 c7 -4 1 -15 -18 -30 -29 -24 -36 -16 -18 19 11 20 19 23 36 11z
m1242 -22 c-7 -11 -16 -20 -21 -20 -4 0 -3 9 3 20 6 11 15 20 20 20 6 0 5 -9
-2 -20z m-367 -11 c-74 -13 -76 -19 -8 -19 39 0 57 -4 57 -12 0 -7 -20 -53
-44 -103 -26 -54 -41 -94 -36 -100 5 -6 5 -17 0 -25 -8 -12 -10 -11 -10 4 0
11 -7 28 -17 38 -15 17 -15 18 7 18 18 0 20 3 11 14 -7 8 -14 30 -16 48 -3 18
-11 38 -19 44 -14 10 -16 69 -3 91 3 5 34 10 69 10 l63 1 -54 -9z m389 -14
c-13 -14 -26 -23 -28 -20 -7 7 29 45 41 45 6 0 0 -11 -13 -25z m-521 -16 c18
-15 21 -23 13 -31 -16 -16 -62 9 -62 34 0 23 19 22 49 -3z m446 -9 c27 -52 16
-62 -40 -34 l-30 14 32 -5 c31 -4 32 -3 23 21 -18 45 -8 48 15 4z m-175 -50
c0 -12 -33 -5 -38 8 -2 6 5 8 17 5 12 -3 21 -9 21 -13z m-344 -6 c17 -14 17
-15 1 -10 -10 3 -25 6 -33 6 -9 0 -12 5 -9 10 9 14 18 13 41 -6z m431 -18 c-5
-13 18 -31 36 -28 11 3 8 -13 -5 -26 -9 -9 -14 -6 -23 11 -7 14 -18 21 -31 18
-19 -3 -19 -3 0 18 22 24 30 27 23 7z m-222 -86 c-9 -16 -18 -30 -21 -30 -2 0
2 14 11 30 9 17 18 30 21 30 2 0 -2 -13 -11 -30z m188 0 c16 -19 16 -20 -4
-20 -12 0 -17 -4 -13 -11 4 -8 0 -8 -15 0 -21 12 -27 31 -14 44 12 12 28 7 46
-13z m-43 -74 c0 -27 -24 -35 -47 -17 -20 17 -20 19 -6 34 18 18 53 7 53 -17z
m270 19 c7 -8 16 -12 21 -9 5 3 9 -2 9 -10 0 -9 6 -16 14 -16 8 0 18 -5 21
-10 9 -15 -5 -51 -16 -44 -6 3 -13 -4 -16 -17 l-6 -23 -8 22 c-11 29 -29 28
-30 0 -1 -47 -18 15 -18 70 -1 53 7 63 29 37z m41 -272 c-12 -20 -14 -14 -5
12 4 9 9 14 11 11 3 -2 0 -13 -6 -23z"/>
<path d="M1601 776 c-8 -9 -11 -19 -7 -23 9 -9 29 13 24 27 -2 8 -8 7 -17 -4z"/>
<path d="M1345 470 c-3 -5 -1 -10 4 -10 6 0 11 5 11 10 0 6 -2 10 -4 10 -3 0
-8 -4 -11 -10z"/>
<path d="M1292 398 c5 -15 28 -18 29 -3 0 6 -7 12 -17 13 -10 3 -15 -1 -12
-10z"/>
<path d="M721 1907 c-2 -31 62 -238 71 -229 5 5 -7 53 -26 108 -19 54 -36 108
-39 119 -4 17 -5 18 -6 2z"/>
<path d="M821 1905 c-3 -31 34 -214 42 -206 6 6 0 48 -16 113 -14 56 -25 99
-26 93z"/>
<path d="M670 1896 c0 -5 19 -65 42 -132 30 -84 46 -120 53 -112 7 7 6 12 -3
15 -6 3 -10 8 -7 12 2 5 -15 57 -40 117 -24 60 -44 105 -45 100z"/>
<path d="M580 1847 c0 -18 109 -227 114 -219 4 6 -7 35 -24 65 -16 29 -30 61
-30 70 0 9 -4 17 -9 17 -5 0 -14 14 -21 30 -11 26 -30 50 -30 37z"/>
<path d="M1467 1806 c-8 -18 -36 -66 -62 -106 -26 -40 -43 -76 -38 -81 4 -4
36 41 70 101 34 61 58 112 54 115 -4 2 -15 -11 -24 -29z"/>
<path d="M543 1803 c6 -16 14 -30 17 -33 20 -17 99 -181 94 -194 -4 -9 0 -18
9 -22 22 -8 57 13 51 31 -8 19 -34 7 -27 -13 4 -14 3 -14 -5 -3 -6 8 -8 19 -6
25 2 6 -25 58 -61 116 -36 57 -65 108 -65 112 0 5 -4 8 -10 8 -6 0 -5 -11 3
-27z"/>
<path d="M492 1805 c10 -30 122 -204 129 -200 4 3 -14 40 -42 83 -49 77 -93
136 -87 117z"/>
<path d="M1456 1699 c-43 -61 -75 -113 -72 -117 3 -3 -1 -16 -9 -28 -10 -15
-11 -25 -4 -29 12 -8 40 25 32 38 -5 8 55 115 110 195 16 24 27 45 24 48 -2 2
-39 -46 -81 -107z"/>
<path d="M440 1784 c0 -4 8 -17 19 -28 28 -31 142 -204 140 -213 -4 -21 2 -33
16 -33 17 0 20 16 5 25 -6 4 -9 12 -8 19 2 8 -32 61 -75 120 -76 102 -97 126
-97 110z"/>
<path d="M1494 1678 c-43 -57 -79 -107 -79 -113 -1 -5 -6 -20 -13 -31 -6 -12
-8 -24 -5 -28 9 -9 44 25 37 36 -6 10 23 57 99 161 79 108 48 88 -39 -25z
m-44 -82 c0 -2 -8 -10 -17 -17 -16 -13 -17 -12 -4 4 13 16 21 21 21 13z"/>
<path d="M432 1718 c12 -18 51 -70 85 -115 35 -46 62 -88 61 -94 -2 -6 3 -14
11 -17 10 -3 12 0 7 14 -5 11 -9 24 -10 31 -1 6 -29 44 -62 85 -33 40 -68 85
-77 101 -10 15 -22 27 -28 27 -6 0 0 -15 13 -32z m139 -165 c13 -16 12 -17 -3
-4 -10 7 -18 15 -18 17 0 8 8 3 21 -13z"/>
<path d="M1534 1658 c-86 -100 -105 -126 -83 -113 8 5 4 -3 -8 -17 -23 -24
-30 -48 -15 -48 5 0 19 11 32 25 12 13 26 23 30 22 4 -1 44 40 89 91 45 50 78
92 72 92 -13 0 -157 -159 -154 -170 2 -5 -4 -7 -12 -4 -18 7 -18 8 68 117 38
49 67 90 65 93 -3 2 -40 -38 -84 -88z"/>
<path d="M381 1705 c31 -45 124 -150 131 -148 4 2 5 -4 2 -12 -7 -18 -44 9
-123 90 -30 31 -55 54 -57 52 -9 -9 167 -184 184 -183 9 0 19 -3 20 -9 7 -19
24 -35 34 -29 5 3 4 11 -2 19 -7 8 -9 18 -7 22 3 5 -40 55 -95 113 -55 58 -94
96 -87 85z m164 -175 c10 -11 16 -20 13 -20 -3 0 -13 9 -23 20 -10 11 -16 20
-13 20 3 0 13 -9 23 -20z"/>
<path d="M1596 1597 c-49 -46 -90 -91 -92 -102 -2 -11 38 23 97 81 54 54 99
100 99 101 0 12 -28 -9 -104 -80z m-56 -71 c0 -2 -8 -10 -17 -17 -16 -13 -17
-12 -4 4 13 16 21 21 21 13z"/>
<path d="M300 1648 c0 -3 43 -47 95 -98 52 -52 93 -96 90 -98 -3 -3 -13 2 -23
11 -10 10 -22 14 -25 10 -4 -3 -7 -2 -7 4 0 6 -30 35 -67 65 -128 102 -107 72
32 -49 33 -28 57 -54 54 -57 -3 -3 -44 21 -90 55 -84 61 -119 83 -119 76 0 -5
201 -161 220 -171 8 -4 4 1 -9 12 l-23 19 23 -2 c13 -1 24 -7 24 -12 0 -17 12
-26 25 -18 8 5 6 13 -7 27 -18 20 -18 21 4 7 29 -18 41 -4 18 21 -10 11 -15
20 -11 20 3 0 -33 35 -81 78 -99 87 -123 107 -123 100z m161 -145 c13 -16 12
-17 -3 -4 -10 7 -18 15 -18 17 0 8 8 3 21 -13z"/>
<path d="M1621 1559 c-57 -49 -111 -88 -119 -87 -16 3 -40 -27 -29 -38 4 -4
16 1 28 12 11 10 26 19 33 19 13 0 201 174 195 179 -2 2 -51 -36 -108 -85z"/>
<path d="M628 1593 c-8 -18 -2 -57 10 -60 8 -3 11 5 9 26 -4 32 -12 48 -19 34z"/>
<path d="M1643 1522 c-56 -42 -99 -80 -97 -83 2 -4 -5 -14 -16 -24 -11 -10
-17 -22 -14 -26 7 -12 44 9 41 23 -1 6 23 31 53 56 77 63 142 123 138 127 -2
2 -49 -31 -105 -73z m-53 -56 c0 -2 -8 -10 -17 -17 -16 -13 -17 -12 -4 4 13
16 21 21 21 13z"/>
<path d="M1730 1530 c-30 -22 -60 -40 -67 -40 -7 0 -13 -4 -13 -9 0 -5 -20
-22 -44 -37 -25 -16 -43 -31 -40 -35 2 -4 -5 -14 -17 -23 -12 -8 -18 -19 -15
-25 9 -14 36 -2 30 13 -3 7 8 21 23 31 59 38 203 150 203 157 0 11 1 12 -60
-32z"/>
<path d="M210 1527 c0 -11 217 -154 234 -154 18 0 18 1 1 13 -10 8 -21 11 -25
9 -5 -3 -11 2 -14 11 -3 8 -10 12 -16 9 -5 -3 -10 -2 -10 3 0 6 -33 30 -72 54
-92 57 -98 60 -98 55z"/>
<path d="M1461 1496 c-16 -17 -19 -26 -11 -31 16 -10 52 26 42 43 -6 9 -14 6
-31 -12z"/>
<path d="M1690 1450 c-63 -39 -115 -75 -115 -80 0 -6 -7 -15 -15 -20 -10 -6
-11 -12 -5 -19 7 -6 16 -5 28 4 22 16 23 25 5 37 -10 7 -8 8 5 4 10 -3 16 -2
13 3 -3 5 2 8 12 7 9 0 16 5 14 12 -1 8 2 11 8 7 5 -3 23 3 39 14 16 12 32 21
35 21 8 0 106 71 106 76 0 10 -23 -1 -130 -66z"/>
<path d="M520 1486 c14 -14 13 -29 -2 -20 -7 4 -5 -1 4 -11 20 -22 34 -14 23
12 -5 10 -8 21 -7 24 0 3 -6 6 -14 6 -10 0 -11 -4 -4 -11z"/>
<path d="M188 1477 c7 -8 30 -24 50 -35 20 -10 68 -38 105 -61 38 -23 71 -40
74 -37 3 3 14 1 23 -4 14 -7 22 -4 34 15 9 13 12 26 7 29 -5 3 -12 -1 -15 -10
-3 -8 -10 -12 -16 -9 -5 3 -10 1 -10 -5 0 -7 -6 -8 -19 -1 -10 6 -21 7 -25 4
-3 -3 -6 -1 -6 6 0 7 -4 9 -10 6 -5 -3 -10 -2 -10 4 0 5 -39 31 -87 58 -107
58 -111 60 -95 40z"/>
<path d="M1815 1471 c-6 -5 -57 -34 -115 -65 -58 -31 -98 -56 -90 -56 8 -1 3
-7 -12 -16 -41 -22 -36 -44 6 -28 9 3 14 10 11 15 -6 9 13 23 85 61 73 39 140
82 140 90 0 11 -14 10 -25 -1z"/>
<path d="M1507 1442 c-21 -23 -21 -32 -3 -32 19 0 36 23 27 38 -6 9 -12 8 -24
-6z"/>
<path d="M160 1442 c0 -13 230 -133 241 -126 7 4 6 -3 -2 -17 -7 -13 -12 -27
-11 -31 1 -3 -5 -9 -13 -12 -8 -3 -15 -1 -15 4 0 5 -7 6 -17 3 -12 -5 -14 -3
-8 7 6 10 4 12 -8 7 -10 -3 -17 -3 -17 2 0 5 -21 16 -47 25 -27 10 -69 26 -95
36 -27 10 -48 15 -48 10 0 -4 13 -13 29 -18 91 -32 221 -96 209 -103 -19 -12
-30 -11 -22 3 5 7 2 9 -9 5 -9 -3 -17 -3 -19 1 -4 9 -200 73 -206 67 -3 -2 4
-8 14 -11 10 -4 59 -23 109 -42 50 -19 105 -35 122 -36 20 0 28 -3 20 -8 -6
-4 -7 -8 -2 -8 6 0 1 -7 -9 -15 -15 -11 -16 -15 -5 -16 8 0 6 -4 -6 -9 -26
-11 -37 -12 -31 -2 5 9 -233 56 -242 47 -3 -3 3 -5 12 -5 23 0 86 -30 86 -40
0 -5 -25 -6 -55 -3 -81 8 -67 -4 20 -18 41 -6 75 -16 75 -20 0 -5 -6 -10 -12
-10 -26 -3 -114 2 -133 8 -13 3 -17 2 -10 -5 14 -14 249 -45 284 -37 21 4 30
13 34 33 3 15 4 28 3 29 -1 1 -27 -2 -58 -6 -31 -4 -55 -4 -52 0 2 4 -14 10
-36 14 -42 7 -65 25 -31 25 11 0 22 -4 25 -9 9 -14 113 -22 142 -10 23 8 25
12 14 19 -8 6 -10 10 -5 10 6 0 15 11 22 25 9 21 8 27 -5 36 -16 10 -16 10 0
5 22 -7 35 13 17 25 -11 7 -10 9 5 9 12 0 16 5 12 15 -3 8 0 14 6 12 17 -3 20
20 3 27 -9 3 -13 2 -10 -4 3 -6 4 -10 0 -10 -9 0 -210 102 -215 110 -7 9 -50
20 -50 12z m186 -330 c-11 -2 -26 -11 -34 -19 -10 -10 -18 -11 -25 -4 -6 6
-21 11 -34 11 -13 0 -23 3 -23 8 0 4 30 7 68 8 37 0 58 -2 48 -4z"/>
<path d="M140 1396 c0 -4 52 -32 116 -63 93 -45 118 -53 127 -43 10 10 8 12
-5 7 -10 -4 -18 -3 -18 2 0 5 -44 28 -97 51 -128 55 -123 53 -123 46z"/>
<path d="M198 1218 c102 -33 127 -38 145 -29 21 11 21 11 -5 8 -15 -2 -29 -1
-30 3 -3 7 -210 61 -225 59 -4 -1 47 -19 115 -41z"/>
<path d="M50 1058 c0 -3 28 -9 63 -11 34 -3 93 -8 131 -11 97 -7 94 -16 -5
-17 -46 0 -104 -4 -129 -8 -35 -7 -20 -9 72 -10 65 0 128 -6 143 -13 29 -13
32 -12 37 22 3 22 -2 26 -32 31 l-35 6 38 2 c20 0 37 4 37 9 0 4 -72 7 -160 7
-88 0 -160 -3 -160 -7z"/>
<path d="M1439 733 c-13 -16 -12 -17 4 -4 16 13 21 21 13 21 -2 0 -10 -8 -17
-17z"/>
<path d="M311 454 c0 -11 3 -14 6 -6 3 7 2 16 -1 19 -3 4 -6 -2 -5 -13z"/>
</g>
</svg>
