<?xml version="1.0" encoding="UTF-8"?>
<!-- Generator: visioncortex VTracer 0.6.3 -->
<svg version="1.1" xmlns="http://www.w3.org/2000/svg" width="200" height="200">
<path d="M0,0 L139,0 L139,4 L138,4 L138,5 L140,5 L140,7 L141,7 L141,6 L142,6 L142,7 L143,7 L143,8 L144,8 L144,11 L145,11 L145,12 L146,12 L146,13 L148,13 L148,14 L149,14 L149,15 L150,15 L150,16 L151,16 L151,17 L152,17 L152,31 L153,31 L153,32 L154,32 L154,31 L155,31 L155,29 L156,29 L156,27 L157,27 L157,26 L159,26 L159,25 L160,25 L160,24 L161,24 L161,27 L162,27 L162,28 L163,28 L163,29 L164,29 L164,30 L165,30 L165,31 L163,31 L163,30 L162,30 L162,29 L161,29 L161,28 L160,28 L160,29 L157,29 L157,32 L158,32 L158,35 L157,35 L157,34 L155,34 L155,35 L153,35 L153,36 L150,36 L150,32 L149,32 L149,28 L148,28 L148,26 L147,26 L147,23 L146,23 L146,22 L145,22 L145,21 L144,21 L144,18 L143,18 L143,17 L142,17 L142,16 L141,16 L141,15 L140,15 L140,13 L137,13 L137,12 L136,12 L136,11 L135,11 L135,9 L133,9 L133,8 L129,8 L129,7 L128,7 L128,6 L127,6 L127,5 L122,5 L122,4 L119,4 L119,5 L109,5 L109,6 L108,6 L108,7 L105,7 L105,8 L99,8 L99,10 L100,10 L100,11 L99,11 L99,12 L97,12 L97,13 L95,13 L95,18 L94,18 L94,19 L93,19 L93,21 L91,21 L91,23 L90,23 L90,26 L89,26 L89,28 L88,28 L88,36 L87,36 L87,38 L86,38 L86,27 L87,27 L87,24 L88,24 L88,19 L87,19 L87,18 L86,18 L86,17 L85,17 L85,16 L84,16 L84,15 L83,15 L83,14 L81,14 L81,13 L80,13 L80,12 L79,12 L79,11 L78,11 L78,10 L70,10 L70,11 L69,11 L69,15 L70,15 L70,16 L71,16 L71,24 L66,24 L66,25 L62,25 L62,26 L56,26 L56,27 L52,27 L52,28 L47,28 L47,29 L43,29 L43,36 L42,36 L42,32 L36,32 L36,35 L35,35 L35,36 L34,36 L34,37 L33,37 L33,38 L31,38 L31,37 L32,37 L32,36 L33,36 L33,35 L34,35 L34,32 L33,32 L33,31 L32,31 L32,29 L36,29 L36,30 L39,30 L39,29 L41,29 L41,28 L42,28 L42,27 L43,27 L43,26 L44,26 L44,24 L43,24 L43,22 L41,22 L41,21 L31,21 L31,22 L29,22 L29,23 L25,23 L25,24 L24,24 L24,25 L23,25 L23,26 L22,26 L22,27 L21,27 L21,28 L20,28 L20,29 L19,29 L19,31 L18,31 L18,33 L17,33 L17,35 L16,35 L16,32 L15,32 L15,30 L13,30 L13,29 L12,29 L12,27 L11,27 L11,26 L9,26 L9,25 L8,25 L8,24 L7,24 L7,23 L5,23 L5,22 L3,22 L3,21 L0,21 Z " fill="#2F9BDC" transform="translate(0,0)"/>
<path d="M0,0 L6,0 L6,4 L7,4 L7,8 L8,8 L8,9 L9,9 L9,10 L10,10 L10,11 L12,11 L12,12 L13,12 L13,13 L15,13 L15,14 L22,14 L22,15 L23,15 L23,18 L21,18 L21,19 L20,19 L20,21 L19,21 L19,22 L18,22 L18,23 L17,23 L17,24 L16,24 L16,25 L14,25 L14,27 L13,27 L13,31 L12,31 L12,36 L11,36 L11,40 L10,40 L10,45 L9,45 L9,46 L8,46 L8,53 L9,53 L9,56 L8,56 L8,54 L7,54 L7,57 L8,57 L8,59 L9,59 L9,63 L10,63 L10,68 L11,68 L11,71 L12,71 L12,73 L13,73 L13,77 L14,77 L14,85 L15,85 L15,92 L16,92 L16,97 L15,97 L15,94 L14,94 L14,92 L13,92 L13,85 L12,85 L12,83 L11,83 L11,82 L10,82 L10,80 L9,80 L9,79 L8,79 L8,76 L10,76 L10,78 L11,78 L11,75 L10,75 L10,74 L9,74 L9,72 L7,72 L7,70 L6,70 L6,69 L4,69 L4,68 L1,68 L1,67 L-1,67 L-1,69 L-2,69 L-2,71 L-3,71 L-3,70 L-4,70 L-4,74 L-3,74 L-3,75 L-4,75 L-4,76 L-5,76 L-5,77 L-7,77 L-7,78 L-8,78 L-8,79 L-9,79 L-9,76 L-7,76 L-7,75 L-6,75 L-6,74 L-5,74 L-5,66 L-6,66 L-6,65 L-7,65 L-7,64 L-8,64 L-8,62 L-6,62 L-6,61 L-3,61 L-3,60 L1,60 L1,59 L2,59 L2,57 L1,57 L1,56 L-9,56 L-9,57 L-10,57 L-10,59 L-11,59 L-11,60 L-12,60 L-12,56 L-13,56 L-13,55 L-14,55 L-14,54 L-15,54 L-15,53 L-17,53 L-17,51 L-25,51 L-25,54 L-24,54 L-24,55 L-23,55 L-23,56 L-20,56 L-20,57 L-19,57 L-19,58 L-18,58 L-18,59 L-17,59 L-17,60 L-23,60 L-23,61 L-24,61 L-24,62 L-25,62 L-25,63 L-26,63 L-26,64 L-27,64 L-27,66 L-28,66 L-28,65 L-30,65 L-30,64 L-32,64 L-32,63 L-34,63 L-34,56 L-33,56 L-33,52 L-32,52 L-32,50 L-31,50 L-31,46 L-30,46 L-30,43 L-29,43 L-29,39 L-28,39 L-28,38 L-26,38 L-26,37 L-21,37 L-21,36 L-23,36 L-23,31 L-22,31 L-22,33 L-21,33 L-21,32 L-20,32 L-20,34 L-19,34 L-19,37 L-18,37 L-18,46 L-16,46 L-16,45 L-14,45 L-14,44 L-13,44 L-13,43 L-12,43 L-12,42 L-11,42 L-11,40 L-10,40 L-10,36 L-9,36 L-9,33 L-8,33 L-8,23 L-6,23 L-6,24 L-5,24 L-5,25 L-4,25 L-4,26 L-3,26 L-3,28 L-2,28 L-2,30 L1,30 L1,32 L2,32 L2,33 L3,33 L3,35 L4,35 L4,37 L5,37 L5,39 L8,39 L8,37 L9,37 L9,24 L8,24 L8,22 L7,22 L7,20 L6,20 L6,19 L5,19 L5,18 L4,18 L4,17 L3,17 L3,16 L2,16 L2,15 L1,15 L1,14 L-1,14 L-1,13 L-3,13 L-3,12 L-6,12 L-6,11 L-11,11 L-11,10 L-10,10 L-10,9 L-8,9 L-8,8 L-6,8 L-6,7 L-5,7 L-5,6 L-3,6 L-3,5 L-2,5 L-2,4 L-1,4 L-1,3 L0,3 Z " fill="#60D8DB" transform="translate(36,32)"/>
<path d="M0,0 L4,0 L4,1 L15,1 L15,2 L17,2 L17,1 L21,1 L21,0 L27,0 L27,1 L28,1 L28,2 L31,2 L31,1 L32,1 L32,2 L33,2 L33,3 L35,3 L35,4 L37,4 L37,5 L38,5 L38,20 L37,20 L37,21 L36,21 L36,22 L35,22 L35,7 L33,7 L33,26 L32,26 L32,28 L31,28 L31,30 L30,30 L30,32 L29,32 L29,33 L28,33 L28,35 L27,35 L27,37 L26,37 L26,35 L25,35 L25,34 L24,34 L24,33 L22,33 L22,32 L21,32 L21,31 L20,31 L20,30 L19,30 L19,29 L18,29 L18,28 L17,28 L17,27 L16,27 L16,26 L15,26 L15,25 L14,25 L14,24 L11,24 L11,23 L10,23 L10,22 L14,22 L14,23 L16,23 L16,21 L15,21 L15,19 L14,19 L14,18 L13,18 L13,17 L9,17 L9,15 L8,15 L8,14 L9,14 L9,13 L11,13 L11,12 L14,12 L14,10 L16,10 L16,9 L17,9 L17,7 L16,7 L16,6 L4,6 L4,5 L1,5 L1,6 L0,6 L0,5 L-2,5 L-2,3 L-1,3 L-1,2 L0,2 Z " fill="#2F9FDF" transform="translate(162,1)"/>
<path d="M0,0 L3,0 L3,1 L8,1 L8,2 L9,2 L9,3 L10,3 L10,4 L14,4 L14,5 L16,5 L16,7 L17,7 L17,8 L18,8 L18,9 L21,9 L21,11 L22,11 L22,12 L23,12 L23,13 L24,13 L24,14 L25,14 L25,17 L26,17 L26,18 L27,18 L27,19 L28,19 L28,22 L29,22 L29,24 L30,24 L30,28 L29,28 L29,35 L30,35 L30,38 L32,38 L32,39 L36,39 L36,40 L43,40 L43,41 L42,41 L42,42 L34,42 L34,43 L33,43 L33,42 L27,42 L27,44 L26,44 L26,45 L24,45 L24,44 L23,44 L23,42 L25,42 L25,39 L26,39 L26,33 L25,33 L25,27 L24,27 L24,25 L23,25 L23,22 L22,22 L22,21 L21,21 L21,19 L20,19 L20,17 L19,17 L19,16 L18,16 L18,13 L14,13 L14,11 L12,11 L12,10 L11,10 L11,9 L8,9 L8,8 L3,8 L3,7 L-8,7 L-8,8 L-11,8 L-11,9 L-13,9 L-13,10 L-16,10 L-16,11 L-18,11 L-18,13 L-20,13 L-20,14 L-21,14 L-21,18 L-23,18 L-23,19 L-24,19 L-24,20 L-25,20 L-25,24 L-26,24 L-26,28 L-27,28 L-27,43 L-26,43 L-26,44 L-25,44 L-25,45 L-24,45 L-24,48 L-23,48 L-23,49 L-24,49 L-24,50 L-25,50 L-25,48 L-26,48 L-26,47 L-28,47 L-28,46 L-30,46 L-30,45 L-31,45 L-31,44 L-33,44 L-33,43 L-32,43 L-32,42 L-33,42 L-33,41 L-34,41 L-34,38 L-33,38 L-33,34 L-32,34 L-32,32 L-31,32 L-31,24 L-30,24 L-30,22 L-29,22 L-29,19 L-28,19 L-28,17 L-26,17 L-26,15 L-25,15 L-25,14 L-24,14 L-24,9 L-22,9 L-22,8 L-20,8 L-20,7 L-19,7 L-19,6 L-20,6 L-20,4 L-14,4 L-14,3 L-11,3 L-11,2 L-10,2 L-10,1 L0,1 Z " fill="#47C1E4" transform="translate(119,4)"/>
<path d="M0,0 L3,0 L3,1 L5,1 L5,2 L6,2 L6,3 L8,3 L8,4 L9,4 L9,11 L8,11 L8,12 L7,12 L7,14 L8,14 L8,15 L9,15 L9,31 L8,31 L8,33 L6,33 L6,34 L5,34 L5,33 L4,33 L4,32 L2,32 L2,31 L3,31 L3,30 L2,30 L2,29 L1,29 L1,31 L-2,31 L-2,32 L-6,32 L-6,33 L-1,33 L-1,34 L-5,34 L-5,35 L-4,35 L-4,36 L-1,36 L-1,37 L-12,37 L-12,35 L-13,35 L-13,34 L-20,34 L-20,31 L-18,31 L-18,29 L-17,29 L-17,18 L-18,18 L-18,16 L-19,16 L-19,15 L-15,15 L-15,14 L-9,14 L-9,13 L-5,13 L-5,12 L0,12 L0,5 L2,5 L2,4 L1,4 L1,3 L0,3 Z " fill="#71593A" transform="translate(71,12)"/>
<path d="M0,0 L2,0 L2,1 L3,1 L3,2 L4,2 L4,4 L5,4 L5,24 L3,24 L3,23 L-4,23 L-4,24 L-6,24 L-6,23 L-7,23 L-7,22 L-8,22 L-8,21 L-9,21 L-9,20 L-11,20 L-11,21 L-12,21 L-12,24 L-13,24 L-13,25 L-14,25 L-14,26 L-15,26 L-15,31 L-14,31 L-14,33 L-15,33 L-15,35 L-16,35 L-16,30 L-20,30 L-20,29 L-19,29 L-19,28 L-16,28 L-16,26 L-20,26 L-20,27 L-21,27 L-21,28 L-23,28 L-23,31 L-24,31 L-24,32 L-25,32 L-25,33 L-34,33 L-34,34 L-36,34 L-36,37 L-37,37 L-37,31 L-35,31 L-35,32 L-31,32 L-31,31 L-28,31 L-28,30 L-26,30 L-26,29 L-25,29 L-25,28 L-24,28 L-24,27 L-23,27 L-23,26 L-22,26 L-22,24 L-21,24 L-21,16 L-20,16 L-20,15 L-19,15 L-19,13 L-22,13 L-22,12 L-21,12 L-21,11 L-24,11 L-24,9 L-23,9 L-23,8 L-20,8 L-20,6 L-16,6 L-16,8 L-15,8 L-15,6 L-13,6 L-13,7 L-12,7 L-12,8 L-11,8 L-11,6 L-10,6 L-10,4 L-9,4 L-9,3 L-8,3 L-8,2 L0,2 Z " fill="#77F2DC" transform="translate(125,81)"/>
<path d="M0,0 L8,0 L8,1 L10,1 L10,2 L14,2 L14,3 L16,3 L16,4 L17,4 L17,5 L19,5 L19,6 L20,6 L20,7 L21,7 L21,8 L22,8 L22,10 L23,10 L23,11 L24,11 L24,13 L25,13 L25,15 L26,15 L26,17 L25,17 L25,16 L21,16 L21,15 L23,15 L23,14 L18,14 L18,16 L17,16 L17,18 L16,18 L16,19 L15,19 L15,20 L14,20 L14,21 L12,21 L12,13 L11,13 L11,14 L7,14 L7,15 L6,15 L6,16 L5,16 L5,20 L6,20 L6,22 L4,22 L4,23 L-5,23 L-5,21 L-4,21 L-4,20 L-3,20 L-3,15 L-7,15 L-7,16 L-8,16 L-8,19 L-12,19 L-12,18 L-16,18 L-16,20 L-17,20 L-17,16 L-16,16 L-16,14 L-15,14 L-15,12 L-14,12 L-14,10 L-13,10 L-13,9 L-12,9 L-12,8 L-11,8 L-11,7 L-10,7 L-10,6 L-9,6 L-9,5 L-8,5 L-8,4 L-6,4 L-6,3 L-5,3 L-5,2 L-3,2 L-3,1 L0,1 Z " fill="#FBEF6A" transform="translate(113,14)"/>
<path d="M0,0 L2,0 L2,1 L5,1 L5,2 L7,2 L7,3 L8,3 L8,5 L10,5 L10,7 L11,7 L11,8 L12,8 L12,11 L11,11 L11,9 L9,9 L9,12 L10,12 L10,13 L11,13 L11,15 L12,15 L12,16 L13,16 L13,18 L14,18 L14,25 L15,25 L15,27 L16,27 L16,30 L18,30 L18,40 L19,40 L19,43 L2,43 L2,42 L13,42 L13,41 L12,41 L12,40 L11,40 L11,39 L10,39 L10,38 L9,38 L9,37 L8,37 L8,36 L7,36 L7,31 L6,31 L6,30 L2,30 L2,5 L1,5 L1,37 L0,37 L0,31 L-2,31 L-2,30 L-1,30 L-1,29 L-3,29 L-3,30 L-4,30 L-4,31 L-5,31 L-5,32 L-6,32 L-6,33 L-7,33 L-7,34 L-8,34 L-8,35 L-11,35 L-11,18 L-10,18 L-10,28 L-4,28 L-4,27 L-3,27 L-3,28 L-1,28 L-1,27 L-2,27 L-2,26 L-1,26 L-1,23 L-3,23 L-3,22 L-1,22 L-1,18 L-2,18 L-2,17 L-3,17 L-3,16 L-1,16 L-1,10 L-4,10 L-4,9 L-3,9 L-3,8 L-2,8 L-2,7 L-3,7 L-3,3 L-2,3 L-2,4 L-1,4 L-1,2 L0,2 Z " fill="#C1EBD7" transform="translate(35,99)"/>
<path d="M0,0 L1,0 L1,1 L3,1 L3,5 L6,5 L6,6 L5,6 L5,10 L4,10 L4,28 L3,28 L3,30 L4,30 L4,33 L5,33 L5,49 L6,49 L6,58 L8,58 L8,59 L6,59 L6,60 L5,60 L5,62 L3,62 L3,63 L-1,63 L-1,62 L-3,62 L-3,60 L-4,60 L-4,59 L-7,59 L-7,60 L-8,60 L-8,58 L-10,58 L-10,57 L-7,57 L-7,54 L-6,54 L-6,39 L-7,39 L-7,29 L-8,29 L-8,19 L-9,19 L-9,12 L-8,12 L-8,14 L-6,14 L-6,15 L-7,15 L-7,28 L-6,28 L-6,29 L-5,29 L-5,27 L-4,27 L-4,26 L-3,26 L-3,25 L-2,25 L-2,27 L-3,27 L-3,28 L-1,28 L-1,26 L0,26 L0,24 L1,24 L1,9 L0,9 L0,3 L-2,3 L-2,2 L-3,2 L-3,1 L0,1 Z " fill="#373B6F" transform="translate(61,110)"/>
<path d="M0,0 L1,0 L1,1 L2,1 L2,2 L3,2 L3,3 L5,3 L5,4 L6,4 L6,5 L8,5 L8,2 L7,2 L7,0 L9,0 L9,1 L10,1 L10,3 L11,3 L11,4 L12,4 L12,5 L13,5 L13,6 L14,6 L14,7 L15,7 L15,8 L16,8 L16,9 L17,9 L17,10 L18,10 L18,11 L19,11 L19,12 L20,12 L20,13 L21,13 L21,14 L22,14 L22,15 L23,15 L23,16 L24,16 L24,18 L23,18 L23,34 L22,34 L22,35 L21,35 L21,36 L16,36 L16,37 L15,37 L15,38 L14,38 L14,29 L13,29 L13,28 L12,28 L12,27 L11,27 L11,26 L10,26 L10,25 L9,25 L9,24 L17,24 L17,18 L14,18 L14,19 L16,19 L16,20 L15,20 L15,22 L14,22 L14,20 L13,20 L13,17 L10,17 L10,16 L9,16 L9,14 L6,14 L6,15 L1,15 L1,7 L-1,7 L-1,15 L-2,15 L-2,16 L-5,16 L-5,15 L-9,15 L-9,14 L-11,14 L-11,11 L-12,11 L-12,4 L-10,4 L-10,8 L-7,8 L-7,7 L-5,7 L-5,6 L-3,6 L-3,7 L-2,7 L-2,4 L-3,4 L-3,1 L0,1 Z " fill="#3EC4E7" transform="translate(160,28)"/>
<path d="M0,0 L1,0 L1,8 L3,8 L3,7 L4,7 L4,6 L5,6 L5,5 L6,5 L6,3 L7,3 L7,1 L12,1 L12,2 L10,2 L10,3 L14,3 L14,4 L15,4 L15,5 L16,5 L16,14 L15,14 L15,11 L13,11 L13,10 L12,10 L12,11 L11,11 L11,12 L9,12 L9,13 L5,13 L5,14 L2,14 L2,15 L0,15 L0,17 L-4,17 L-4,18 L-7,18 L-7,19 L-19,19 L-19,18 L-26,18 L-26,19 L-27,19 L-27,16 L-28,16 L-28,7 L-27,7 L-27,5 L-23,5 L-23,6 L-19,6 L-19,3 L-18,3 L-18,2 L-14,2 L-14,7 L-15,7 L-15,8 L-16,8 L-16,10 L-7,10 L-7,9 L-5,9 L-5,7 L-6,7 L-6,3 L-5,3 L-5,2 L-4,2 L-4,1 L0,1 Z " fill="#FAC537" transform="translate(124,27)"/>
<path d="M0,0 L2,0 L2,1 L3,1 L3,2 L4,2 L4,3 L5,3 L5,4 L6,4 L6,5 L8,5 L8,6 L9,6 L9,16 L10,16 L10,21 L11,21 L11,26 L12,26 L12,31 L13,31 L13,33 L11,33 L11,32 L10,32 L10,36 L11,36 L11,38 L7,38 L7,36 L5,36 L5,34 L4,34 L4,32 L3,32 L3,30 L1,30 L1,27 L0,27 L0,25 L-1,25 L-1,22 L-2,22 L-2,20 L-3,20 L-3,17 L-4,17 L-4,23 L-5,23 L-5,15 L-8,15 L-8,11 L-10,11 L-10,10 L-13,10 L-13,9 L-11,9 L-11,8 L-12,8 L-12,4 L-15,4 L-15,2 L-2,2 L-2,1 L0,1 Z " fill="#34376B" transform="translate(72,100)"/>
<path d="M0,0 L1,0 L1,1 L3,1 L3,7 L2,7 L2,10 L1,10 L1,11 L0,11 L0,13 L-1,13 L-1,14 L-2,14 L-2,15 L-3,15 L-3,16 L-4,16 L-4,17 L-5,17 L-5,18 L-6,18 L-6,19 L-8,19 L-8,20 L-11,20 L-11,21 L-13,21 L-13,22 L-24,22 L-24,21 L-27,21 L-27,20 L-29,20 L-29,19 L-30,19 L-30,18 L-32,18 L-32,17 L-33,17 L-33,16 L-34,16 L-34,15 L-35,15 L-35,14 L-36,14 L-36,12 L-37,12 L-37,11 L-38,11 L-38,8 L-31,8 L-31,9 L-19,9 L-19,8 L-16,8 L-16,7 L-12,7 L-12,5 L-10,5 L-10,4 L-7,4 L-7,3 L-3,3 L-3,2 L-1,2 L-1,1 L0,1 Z " fill="#FCA325" transform="translate(136,37)"/>
<path d="M0,0 L17,0 L17,1 L18,1 L18,2 L19,2 L19,3 L20,3 L20,5 L21,5 L21,7 L22,7 L22,8 L23,8 L23,10 L24,10 L24,11 L25,11 L25,12 L26,12 L26,14 L27,14 L27,15 L28,15 L28,17 L29,17 L29,18 L39,18 L39,19 L20,19 L20,20 L10,20 L10,21 L12,21 L12,22 L18,22 L18,23 L11,23 L11,22 L4,22 L4,21 L3,21 L3,17 L2,17 L2,15 L1,15 L1,14 L0,14 L0,12 L-1,12 L-1,11 L5,11 L5,9 L4,9 L4,7 L3,7 L3,6 L2,6 L2,4 L1,4 L1,3 L0,3 Z " fill="#E17236" transform="translate(16,137)"/>
<path d="M0,0 L3,0 L3,2 L2,2 L2,3 L1,3 L1,7 L0,7 L0,10 L-1,10 L-1,13 L-2,13 L-2,11 L-3,11 L-3,10 L-4,10 L-4,9 L-6,9 L-6,11 L-14,11 L-14,12 L-15,12 L-15,13 L-16,13 L-16,15 L-17,15 L-17,17 L-18,17 L-18,16 L-19,16 L-19,15 L-21,15 L-21,17 L-22,17 L-22,15 L-26,15 L-26,17 L-29,17 L-29,18 L-30,18 L-30,20 L-27,20 L-27,21 L-28,21 L-28,22 L-25,22 L-25,24 L-26,24 L-26,25 L-27,25 L-27,33 L-28,33 L-28,27 L-29,27 L-29,25 L-30,25 L-30,24 L-31,24 L-31,23 L-34,23 L-34,24 L-35,24 L-35,25 L-36,25 L-36,27 L-37,27 L-37,28 L-43,28 L-43,26 L-42,26 L-42,24 L-41,24 L-41,23 L-40,23 L-40,22 L-38,22 L-38,21 L-37,21 L-37,20 L-36,20 L-36,19 L-35,19 L-35,18 L-33,18 L-33,17 L-32,17 L-32,15 L-31,15 L-31,13 L-30,13 L-30,12 L-29,12 L-29,3 L-27,3 L-27,4 L-26,4 L-26,3 L-25,3 L-25,4 L-24,4 L-24,3 L-22,3 L-22,4 L-19,4 L-19,2 L-14,2 L-14,1 L-10,1 L-10,2 L-4,2 L-4,1 L0,1 Z " fill="#66DFD9" transform="translate(131,72)"/>
<path d="M0,0 L1,0 L1,1 L2,1 L2,2 L3,2 L3,3 L4,3 L4,4 L6,4 L6,3 L5,3 L5,1 L7,1 L7,2 L8,2 L8,3 L9,3 L9,4 L10,4 L10,8 L11,8 L11,12 L12,12 L12,18 L14,18 L14,12 L15,12 L15,18 L16,18 L16,10 L17,10 L17,28 L18,28 L18,34 L17,34 L17,35 L18,35 L18,36 L17,36 L17,37 L16,37 L16,36 L15,36 L15,35 L14,35 L14,34 L7,34 L7,36 L6,36 L6,40 L7,40 L7,41 L8,41 L8,42 L7,42 L7,45 L9,45 L9,46 L6,46 L6,48 L5,48 L5,50 L4,50 L4,51 L2,51 L2,52 L1,52 L1,53 L0,53 L0,51 L1,51 L1,50 L2,50 L2,48 L3,48 L3,46 L4,46 L4,43 L5,43 L5,34 L4,34 L4,31 L2,31 L2,34 L1,34 L1,32 L0,32 L0,31 L1,31 L1,30 L5,30 L5,28 L4,28 L4,24 L3,24 L3,19 L2,19 L2,14 L1,14 L1,11 L2,11 L2,6 L1,6 L1,2 L0,2 Z " fill="#3A3C6E" transform="translate(78,139)"/>
<path d="M0,0 L2,0 L2,2 L5,2 L5,5 L6,5 L6,6 L8,6 L8,7 L9,7 L9,8 L12,8 L12,9 L15,9 L15,10 L16,10 L16,11 L28,11 L28,9 L30,9 L30,8 L33,8 L33,7 L35,7 L35,6 L36,6 L36,5 L37,5 L37,4 L39,4 L39,18 L36,18 L36,19 L32,19 L32,20 L26,20 L26,19 L22,19 L22,20 L17,20 L17,22 L14,22 L14,21 L12,21 L12,22 L11,22 L11,21 L10,21 L10,22 L9,22 L9,21 L6,21 L6,17 L5,17 L5,14 L4,14 L4,10 L3,10 L3,7 L2,7 L2,4 L1,4 L1,2 L0,2 Z " fill="#51DFE4" transform="translate(95,54)"/>
<path d="M0,0 L1,0 L1,25 L2,25 L2,41 L4,41 L4,42 L11,42 L11,43 L15,43 L15,47 L16,47 L16,51 L17,51 L17,53 L13,53 L13,54 L12,54 L12,55 L13,55 L13,57 L14,57 L14,54 L16,54 L16,57 L17,57 L17,58 L11,58 L11,59 L8,59 L8,60 L3,60 L3,61 L1,61 L1,71 L-1,71 L-1,70 L0,70 L0,62 L-1,62 L-1,57 L-2,57 L-2,56 L0,56 L0,54 L1,54 L1,53 L3,53 L3,52 L1,52 L1,43 L0,43 L0,27 L-1,27 L-1,24 L-2,24 L-2,22 L-1,22 L-1,4 L0,4 Z " fill="#B36352" transform="translate(66,116)"/>
<path d="M0,0 L8,0 L8,2 L10,2 L10,3 L11,3 L11,4 L12,4 L12,5 L13,5 L13,9 L14,9 L14,8 L15,8 L15,6 L16,6 L16,5 L26,5 L26,6 L27,6 L27,8 L26,8 L26,9 L22,9 L22,10 L19,10 L19,11 L17,11 L17,13 L18,13 L18,14 L19,14 L19,15 L20,15 L20,23 L19,23 L19,24 L18,24 L18,25 L16,25 L16,26 L15,26 L15,20 L16,20 L16,18 L14,18 L14,13 L13,13 L13,11 L11,11 L11,13 L12,13 L12,14 L11,14 L11,16 L10,16 L10,17 L7,17 L7,18 L6,18 L6,19 L4,19 L4,18 L0,18 L0,17 L-2,17 L-2,16 L-4,16 L-4,15 L-6,15 L-6,14 L-8,14 L-8,13 L-10,13 L-10,12 L-11,12 L-11,9 L-10,9 L-10,4 L-9,4 L-9,1 L-8,1 L-8,5 L-9,5 L-9,12 L-7,12 L-7,13 L-5,13 L-5,14 L-3,14 L-3,15 L-2,15 L-2,13 L-1,13 L-1,12 L0,12 L0,11 L1,11 L1,10 L2,10 L2,9 L8,9 L8,8 L7,8 L7,7 L6,7 L6,6 L5,6 L5,5 L2,5 L2,4 L1,4 L1,3 L0,3 Z " fill="#84B374" transform="translate(11,83)"/>
<path d="M0,0 L2,0 L2,2 L4,2 L4,1 L14,1 L14,11 L10,11 L10,12 L9,12 L9,13 L8,13 L8,16 L7,16 L7,18 L12,18 L12,19 L15,19 L15,30 L14,30 L14,23 L12,23 L12,22 L10,22 L10,21 L3,21 L3,22 L2,22 L2,21 L-2,21 L-2,19 L-3,19 L-3,18 L-2,18 L-2,17 L-4,17 L-4,6 L-5,6 L-5,4 L-4,4 L-4,2 L-2,2 L-2,1 L0,1 Z " fill="#47C1E4" transform="translate(140,51)"/>
<path d="M0,0 L1,0 L1,24 L5,24 L5,23 L6,23 L6,24 L10,24 L10,23 L19,23 L19,22 L18,22 L18,20 L21,20 L21,27 L20,27 L20,28 L19,28 L19,31 L20,31 L20,32 L29,32 L29,33 L17,33 L17,32 L8,32 L8,28 L4,28 L4,26 L3,26 L3,29 L-5,29 L-5,27 L-6,27 L-6,28 L-8,28 L-8,33 L-9,33 L-9,15 L-8,15 L-8,14 L-2,14 L-2,15 L-1,15 L-1,18 L0,18 L0,2 L-1,2 L-1,1 L0,1 Z " fill="#9CB6CA" transform="translate(154,93)"/>
<path d="M0,0 L1,0 L1,8 L3,8 L3,7 L4,7 L4,6 L6,6 L6,5 L7,5 L7,6 L9,6 L9,7 L14,7 L14,6 L15,6 L15,5 L18,5 L18,4 L22,4 L22,3 L25,3 L25,0 L26,0 L26,2 L29,2 L29,3 L28,3 L28,4 L27,4 L27,5 L26,5 L26,9 L28,9 L28,10 L36,10 L36,9 L37,9 L37,8 L39,8 L39,7 L40,7 L40,6 L42,6 L42,5 L43,5 L43,13 L-9,13 L-9,12 L-4,12 L-4,10 L-2,10 L-2,9 L-1,9 L-1,5 L0,5 Z " fill="#F4BE51" transform="translate(97,187)"/>
<path d="M0,0 L4,0 L4,2 L1,2 L1,3 L0,3 L0,4 L4,4 L4,18 L5,18 L5,22 L2,22 L2,21 L-1,21 L-1,22 L-4,22 L-4,17 L-8,17 L-8,18 L-9,18 L-9,19 L-10,19 L-10,20 L-12,20 L-12,21 L-13,21 L-13,22 L-14,22 L-14,26 L-15,26 L-15,19 L-16,19 L-16,8 L-14,8 L-14,7 L-5,7 L-5,6 L-4,6 L-4,5 L-3,5 L-3,2 L-1,2 L-1,1 L0,1 Z " fill="#A0FCD7" transform="translate(105,107)"/>
<path d="M0,0 L3,0 L3,1 L5,1 L5,2 L8,2 L8,6 L9,6 L9,7 L7,7 L7,8 L9,8 L9,9 L6,9 L6,10 L7,10 L7,11 L9,11 L9,17 L10,17 L10,32 L9,32 L9,34 L8,34 L8,36 L6,36 L6,35 L7,35 L7,33 L6,33 L6,34 L5,34 L5,35 L4,35 L4,37 L3,37 L3,36 L2,36 L2,23 L3,23 L3,22 L1,22 L1,20 L0,20 L0,22 L-1,22 L-1,19 L0,19 L0,10 L-1,10 L-1,5 L0,5 L0,3 L-1,3 L-1,1 L0,1 Z " fill="#3F4B75" transform="translate(52,102)"/>
<path d="M0,0 L1,0 L1,1 L7,1 L7,0 L9,0 L9,1 L8,1 L8,2 L2,2 L2,4 L4,4 L4,5 L5,5 L5,6 L7,6 L7,5 L8,5 L8,4 L12,4 L12,2 L13,2 L13,7 L14,7 L14,9 L15,9 L15,11 L16,11 L16,12 L17,12 L17,13 L19,13 L19,14 L21,14 L21,15 L22,15 L22,16 L20,16 L20,17 L18,17 L18,18 L16,18 L16,19 L13,19 L13,20 L11,20 L11,21 L10,21 L10,22 L7,22 L7,23 L5,23 L5,24 L2,24 L2,20 L1,20 L1,9 L0,9 Z " fill="#F5D861" transform="translate(140,167)"/>
<path d="M0,0 L1,0 L1,2 L10,2 L10,3 L11,3 L11,4 L12,4 L12,9 L13,9 L13,30 L12,30 L12,36 L15,36 L15,25 L16,25 L16,14 L15,14 L15,6 L18,6 L18,8 L20,8 L20,24 L21,24 L21,28 L20,28 L20,40 L21,40 L21,41 L22,41 L22,43 L23,43 L23,52 L22,52 L22,54 L21,54 L21,55 L20,55 L20,51 L19,51 L19,49 L18,49 L18,47 L19,47 L19,45 L20,45 L20,41 L19,41 L19,40 L18,40 L18,39 L16,39 L16,38 L14,38 L14,37 L8,37 L8,36 L-2,36 L-2,35 L11,35 L11,29 L12,29 L12,15 L11,15 L11,5 L10,5 L10,4 L1,4 L1,3 L0,3 Z " fill="#A55B61" transform="translate(173,121)"/>
<path d="M0,0 L1,0 L1,7 L4,7 L4,0 L5,0 L5,8 L6,8 L6,22 L5,22 L5,18 L-5,18 L-5,16 L-6,16 L-6,15 L-5,15 L-5,14 L-4,14 L-4,13 L-35,13 L-35,12 L5,12 L5,11 L-35,11 L-35,9 L-21,9 L-21,8 L-14,8 L-14,1 L-12,1 L-12,6 L-10,6 L-10,1 L-8,1 L-8,7 L-12,7 L-12,8 L-5,8 L-5,1 L-4,1 L-4,4 L-3,4 L-3,5 L-1,5 L-1,2 L0,2 Z " fill="#9CB6CB" transform="translate(179,128)"/>
<path d="M0,0 L3,0 L3,5 L4,5 L4,8 L5,8 L5,10 L6,10 L6,12 L7,12 L7,13 L9,13 L9,14 L12,14 L12,3 L13,3 L13,0 L14,0 L14,19 L10,19 L10,20 L8,20 L8,21 L7,21 L7,22 L6,22 L6,25 L11,25 L11,26 L7,26 L7,27 L3,27 L3,26 L2,26 L2,27 L-2,27 L-2,3 L0,3 Z " fill="#BAD2D5" transform="translate(157,90)"/>
<path d="M0,0 L1,0 L1,4 L2,4 L2,49 L1,49 L1,50 L0,50 L0,52 L-1,52 L-1,54 L-2,54 L-2,56 L-8,56 L-8,54 L-9,54 L-9,51 L-8,51 L-8,50 L-6,50 L-6,49 L-4,49 L-4,48 L-2,48 L-2,42 L-3,42 L-3,8 L0,8 Z M-4,42 L-3,42 L-3,43 L-4,43 Z " fill="#ADCAD4" transform="translate(198,61)"/>
<path d="M0,0 L5,0 L5,1 L6,1 L6,0 L13,0 L13,1 L15,1 L15,2 L17,2 L17,10 L16,10 L16,11 L14,11 L14,12 L13,12 L13,14 L12,14 L12,16 L11,16 L11,18 L10,18 L10,27 L11,27 L11,28 L9,28 L9,26 L8,26 L8,25 L7,25 L7,24 L6,24 L6,23 L5,23 L5,22 L4,22 L4,11 L3,11 L3,9 L2,9 L2,8 L1,8 L1,2 L0,2 Z " fill="#67E8E2" transform="translate(137,72)"/>
<path d="M0,0 L6,0 L6,1 L7,1 L7,2 L12,2 L12,1 L15,1 L15,2 L14,2 L14,3 L13,3 L13,5 L12,5 L12,6 L11,6 L11,11 L12,11 L12,12 L13,12 L13,13 L6,13 L6,11 L5,11 L5,10 L-1,10 L-1,9 L-4,9 L-4,8 L-9,8 L-9,7 L-13,7 L-13,8 L-15,8 L-15,9 L-17,9 L-17,10 L-18,10 L-18,13 L-19,13 L-19,11 L-20,11 L-20,10 L-21,10 L-21,9 L-28,9 L-28,10 L-30,10 L-30,9 L-31,9 L-31,8 L-26,8 L-26,7 L-18,7 L-18,6 L-16,6 L-16,5 L-15,5 L-15,4 L-12,4 L-12,3 L-9,3 L-9,2 L-2,2 L-2,1 L0,1 Z " fill="#F7D158" transform="translate(65,187)"/>
<path d="M0,0 L20,0 L20,5 L16,5 L16,7 L21,7 L21,9 L19,9 L19,10 L17,10 L17,11 L15,11 L15,12 L14,12 L14,13 L0,13 L0,14 L-2,14 L-2,10 L-1,10 L-1,1 L0,1 Z " fill="#F97062" transform="translate(54,80)"/>
<path d="M0,0 L1,0 L1,2 L9,2 L9,1 L13,1 L13,6 L14,6 L14,8 L13,8 L13,16 L12,16 L12,17 L11,17 L11,18 L10,18 L10,19 L9,19 L9,20 L8,20 L8,21 L7,21 L7,25 L5,25 L5,26 L4,26 L4,27 L2,27 L2,19 L1,19 L1,12 L0,12 L0,6 L-1,6 L-1,5 L0,5 Z " fill="#F7E265" transform="translate(96,168)"/>
<path d="M0,0 L2,0 L2,1 L1,1 L1,3 L0,3 L0,5 L-1,5 L-1,7 L-2,7 L-2,21 L-1,21 L-1,24 L0,24 L0,26 L1,26 L1,28 L2,28 L2,29 L3,29 L3,31 L4,31 L4,32 L5,32 L5,33 L6,33 L6,34 L8,34 L8,35 L9,35 L9,36 L10,36 L10,37 L14,37 L14,38 L17,38 L17,39 L26,39 L26,38 L29,38 L29,37 L32,37 L32,36 L34,36 L34,35 L36,35 L36,34 L37,34 L37,33 L38,33 L38,32 L39,32 L39,31 L40,31 L40,33 L39,33 L39,35 L40,35 L40,46 L42,46 L42,47 L41,47 L41,48 L42,48 L42,50 L41,50 L41,49 L38,49 L38,36 L36,36 L36,37 L35,37 L35,38 L34,38 L34,39 L32,39 L32,40 L29,40 L29,41 L27,41 L27,43 L15,43 L15,42 L14,42 L14,41 L11,41 L11,40 L8,40 L8,39 L7,39 L7,38 L5,38 L5,37 L4,37 L4,34 L1,34 L1,32 L-1,32 L-1,31 L0,31 L0,30 L-1,30 L-1,27 L-2,27 L-2,26 L-3,26 L-3,25 L-4,25 L-4,10 L-3,10 L-3,6 L-2,6 L-2,2 L-1,2 L-1,1 L0,1 Z " fill="#67E8E2" transform="translate(96,22)"/>
<path d="M0,0 L1,0 L1,38 L0,38 L0,10 L-2,10 L-2,36 L-5,36 L-5,35 L-9,35 L-9,30 L-8,30 L-8,28 L-9,28 L-9,27 L-10,27 L-10,21 L-9,21 L-9,20 L-8,20 L-8,18 L-7,18 L-7,17 L-6,17 L-6,15 L-5,15 L-5,14 L-4,14 L-4,12 L-6,12 L-6,13 L-7,13 L-7,15 L-9,15 L-9,13 L-8,13 L-8,10 L-9,10 L-9,9 L-10,9 L-10,8 L-12,8 L-12,6 L-11,6 L-11,7 L-9,7 L-9,8 L-8,8 L-8,9 L-7,9 L-7,11 L-6,11 L-6,9 L-5,9 L-5,7 L-4,7 L-4,6 L-3,6 L-3,4 L-2,4 L-2,2 L-1,2 L-1,1 L0,1 Z " fill="#AFB7BC" transform="translate(195,27)"/>
<path d="M0,0 L1,0 L1,25 L5,25 L5,26 L6,26 L6,31 L7,31 L7,32 L8,32 L8,33 L9,33 L9,34 L10,34 L10,35 L11,35 L11,36 L12,36 L12,37 L1,37 L1,38 L0,38 L0,36 L-1,36 L-1,35 L-2,35 L-2,34 L-3,34 L-3,33 L-4,33 L-4,32 L-23,32 L-23,31 L-22,31 L-22,16 L-21,16 L-21,29 L-20,29 L-20,28 L-17,28 L-17,27 L-15,27 L-15,28 L-13,28 L-13,27 L-12,27 L-12,30 L-9,30 L-9,29 L-8,29 L-8,28 L-7,28 L-7,27 L-6,27 L-6,26 L-5,26 L-5,25 L-4,25 L-4,24 L-2,24 L-2,25 L-3,25 L-3,26 L-1,26 L-1,32 L0,32 Z " fill="#93BBD3" transform="translate(36,104)"/>
<path d="M0,0 L2,0 L2,1 L12,1 L12,2 L18,2 L18,3 L20,3 L20,4 L22,4 L22,5 L23,5 L23,6 L24,6 L24,10 L23,10 L23,12 L22,12 L22,13 L21,13 L21,12 L20,12 L20,11 L19,11 L19,10 L15,10 L15,11 L14,11 L14,12 L13,12 L13,13 L10,13 L10,12 L11,12 L11,11 L0,11 L0,7 L-1,7 L-1,5 L-2,5 L-2,4 L-3,4 L-3,3 L-2,3 L-2,2 L1,2 L1,1 L0,1 Z " fill="#E16758" transform="translate(169,156)"/>
<path d="M0,0 L4,0 L4,1 L6,1 L6,2 L7,2 L7,3 L9,3 L9,4 L10,4 L10,8 L12,8 L12,7 L14,7 L14,20 L15,20 L15,19 L16,19 L16,18 L17,18 L17,23 L14,23 L14,24 L12,24 L12,25 L10,25 L10,26 L9,26 L9,24 L8,24 L8,21 L7,21 L7,19 L6,19 L6,16 L5,16 L5,13 L4,13 L4,12 L3,12 L3,10 L2,10 L2,8 L1,8 L1,6 L0,6 L0,4 L-1,4 L-1,3 L-2,3 L-2,2 L-1,2 L-1,1 L0,1 Z " fill="#97C3D3" transform="translate(179,85)"/>
<path d="M0,0 L1,0 L1,1 L3,1 L3,3 L4,3 L4,8 L5,8 L5,11 L6,11 L6,13 L7,13 L7,15 L8,15 L8,16 L9,16 L9,18 L10,18 L10,22 L11,22 L11,26 L10,26 L10,27 L6,27 L6,28 L5,28 L5,29 L4,29 L4,23 L1,23 L1,25 L2,25 L2,26 L-3,26 L-3,25 L-8,25 L-8,22 L-7,22 L-7,21 L-6,21 L-6,20 L-4,20 L-4,19 L0,19 Z " fill="#97AAB7" transform="translate(171,90)"/>
<path d="M0,0 L2,0 L2,6 L3,6 L3,7 L4,7 L4,8 L5,8 L5,9 L10,9 L10,8 L12,8 L12,7 L13,7 L13,6 L14,6 L14,5 L15,5 L15,4 L21,4 L21,5 L22,5 L22,7 L21,7 L21,14 L20,14 L20,13 L10,13 L10,14 L0,14 L0,15 L-2,15 L-2,11 L-3,11 L-3,9 L-4,9 L-4,16 L-5,16 L-5,15 L-6,15 L-6,8 L-5,8 L-5,5 L-4,5 L-4,4 L-3,4 L-3,3 L-2,3 L-2,2 L-1,2 L-1,1 L0,1 Z " fill="#EDF1E7" transform="translate(56,52)"/>
<path d="M0,0 L6,0 L6,2 L7,2 L7,3 L8,3 L8,5 L6,5 L6,8 L5,8 L5,9 L4,9 L4,10 L-2,10 L-2,8 L-3,8 L-3,5 L-5,5 L-5,11 L-4,11 L-4,12 L-1,12 L-1,11 L4,11 L4,12 L5,12 L5,16 L1,16 L1,15 L0,15 L0,13 L-1,13 L-1,15 L-7,15 L-7,16 L-8,16 L-8,17 L-5,17 L-5,20 L-7,20 L-7,22 L-5,22 L-5,23 L-10,23 L-10,22 L-8,22 L-8,20 L-10,20 L-10,16 L-14,16 L-14,22 L-15,22 L-15,20 L-16,20 L-16,11 L-15,11 L-15,9 L-8,9 L-8,8 L-7,8 L-7,7 L-6,7 L-6,4 L-5,4 L-5,2 L-3,2 L-3,3 L-2,3 L-2,7 L0,7 L0,6 L1,6 L1,5 L2,5 L2,4 L3,4 L3,3 L4,3 L4,1 L0,1 Z " fill="#7B564E" transform="translate(125,105)"/>
<path d="M0,0 L6,0 L6,2 L5,2 L5,8 L6,8 L6,10 L7,10 L7,9 L8,9 L8,8 L10,8 L10,9 L9,9 L9,10 L8,10 L8,11 L7,11 L7,13 L6,13 L6,14 L5,14 L5,15 L4,15 L4,13 L3,13 L3,15 L2,15 L2,31 L0,31 L0,30 L-2,30 L-2,31 L-5,31 L-5,32 L-6,32 L-6,15 L-5,15 L-5,13 L-2,13 L-2,12 L1,12 L1,11 L2,11 L2,6 L1,6 L1,5 L0,5 L0,4 L-1,4 L-1,2 L0,2 Z " fill="#B6EAD6" transform="translate(21,101)"/>
<path d="M0,0 L1,0 L1,3 L2,3 L2,5 L3,5 L3,7 L4,7 L4,8 L5,8 L5,10 L6,10 L6,12 L7,12 L7,14 L8,14 L8,16 L9,16 L9,17 L11,17 L11,18 L12,18 L12,20 L13,20 L13,22 L19,22 L19,24 L23,24 L23,25 L17,25 L17,23 L14,23 L14,24 L13,24 L13,23 L9,23 L9,24 L-2,24 L-2,23 L-4,23 L-4,24 L-5,24 L-5,13 L-2,13 L-2,14 L4,14 L4,12 L3,12 L3,10 L2,10 L2,8 L1,8 L1,6 L0,6 L0,4 L-1,4 L-1,1 L0,1 Z " fill="#A38073" transform="translate(5,138)"/>
<path d="M0,0 L9,0 L9,4 L10,4 L10,7 L11,7 L11,11 L10,11 L10,10 L8,10 L8,11 L9,11 L9,13 L10,13 L10,15 L7,15 L7,16 L8,16 L8,18 L-3,18 L-3,17 L-2,17 L-2,16 L-1,16 L-1,14 L0,14 L0,13 L-2,13 L-2,8 L-3,8 L-3,5 L-4,5 L-4,3 L-5,3 L-5,2 L-2,2 L-2,1 L0,1 Z " fill="#74BFD9" transform="translate(88,65)"/>
<path d="M0,0 L1,0 L1,7 L2,7 L2,9 L1,9 L1,11 L4,11 L4,12 L6,12 L6,13 L7,13 L7,14 L8,14 L8,16 L10,16 L10,17 L9,17 L9,18 L7,18 L7,19 L6,19 L6,20 L5,20 L5,22 L4,22 L4,24 L8,24 L8,25 L3,25 L3,24 L2,24 L2,25 L-2,25 L-2,27 L-5,27 L-5,26 L-6,26 L-6,25 L-7,25 L-7,24 L-8,24 L-8,22 L-7,22 L-7,21 L-6,21 L-6,20 L-5,20 L-5,18 L-4,18 L-4,17 L-9,17 L-9,16 L-3,16 L-3,14 L-4,14 L-4,13 L-1,13 L-1,11 L-2,11 L-2,9 L-3,9 L-3,7 L-4,7 L-4,6 L-5,6 L-5,4 L-1,4 L-1,3 L0,3 Z " fill="#97665E" transform="translate(84,76)"/>
<path d="M0,0 L3,0 L3,3 L4,3 L4,9 L5,9 L5,10 L6,10 L6,12 L7,12 L7,42 L6,42 L6,41 L5,41 L5,33 L4,33 L4,31 L0,31 L0,32 L-1,32 L-1,33 L-2,33 L-2,34 L-4,34 L-4,11 L-3,11 L-3,32 L-2,32 L-2,31 L-1,31 L-1,30 L1,30 L1,29 L2,29 L2,7 L0,7 L0,8 L-1,8 L-1,9 L-3,9 L-3,8 L-2,8 L-2,4 L-1,4 L-1,3 L0,3 Z " fill="#70A3CE" transform="translate(134,71)"/>
<path d="M0,0 L3,0 L3,1 L4,1 L4,2 L5,2 L5,3 L6,3 L6,4 L7,4 L7,5 L8,5 L8,6 L9,6 L9,7 L10,7 L10,10 L12,10 L12,11 L13,11 L13,12 L14,12 L14,15 L13,15 L13,17 L15,17 L15,15 L16,15 L16,14 L18,14 L18,16 L17,16 L17,17 L16,17 L16,19 L15,19 L15,20 L14,20 L14,22 L13,22 L13,23 L12,23 L12,29 L13,29 L13,30 L14,30 L14,32 L13,32 L13,37 L11,37 L11,19 L10,19 L10,18 L9,18 L9,17 L8,17 L8,16 L7,16 L7,15 L6,15 L6,14 L5,14 L5,13 L4,13 L4,12 L3,12 L3,11 L2,11 L2,10 L1,10 L1,9 L0,9 L0,8 L-1,8 L-1,7 L-2,7 L-2,6 L-3,6 L-3,4 L-4,4 L-4,3 L-2,3 L-2,2 L-1,2 L-1,1 L0,1 Z " fill="#ECEAB6" transform="translate(173,25)"/>
<path d="M0,0 L1,0 L1,7 L0,7 L0,10 L-1,10 L-1,11 L-7,11 L-7,12 L-21,12 L-21,11 L-26,11 L-26,10 L-28,10 L-28,9 L-23,9 L-23,8 L-27,8 L-27,7 L-29,7 L-29,4 L-24,4 L-24,3 L-21,3 L-21,4 L-20,4 L-20,5 L-18,5 L-18,6 L-16,6 L-16,7 L-7,7 L-7,6 L-15,6 L-15,5 L-10,5 L-10,4 L-8,4 L-8,5 L-6,5 L-6,4 L-4,4 L-4,3 L-3,3 L-3,2 L-2,2 L-2,1 L0,1 Z " fill="#939ED0" transform="translate(139,152)"/>
<path d="M0,0 L4,0 L4,5 L7,5 L7,4 L10,4 L10,5 L12,5 L12,10 L11,10 L11,11 L8,11 L8,12 L7,12 L7,13 L6,13 L6,14 L4,14 L4,15 L1,15 L1,16 L-3,16 L-3,17 L-5,17 L-5,15 L-6,15 L-6,5 L-5,5 L-5,4 L-4,4 L-4,3 L-2,3 L-2,2 L-1,2 L-1,1 L0,1 Z " fill="#DBFAD0" transform="translate(97,124)"/>
<path d="M0,0 L2,0 L2,1 L7,1 L7,2 L10,2 L10,3 L5,3 L5,4 L4,4 L4,5 L3,5 L3,8 L4,8 L4,9 L12,9 L12,7 L13,7 L13,6 L21,6 L21,8 L19,8 L19,9 L17,9 L17,10 L16,10 L16,11 L14,11 L14,12 L11,12 L11,13 L10,13 L10,14 L9,14 L9,19 L8,19 L8,20 L6,20 L6,21 L4,21 L4,23 L-3,23 L-3,22 L-2,22 L-2,21 L-1,21 L-1,18 L0,18 L0,16 L1,16 L1,6 L0,6 Z " fill="#F5DC5F" transform="translate(26,172)"/>
<path d="M0,0 L1,0 L1,1 L2,1 L2,2 L3,2 L3,3 L4,3 L4,4 L5,4 L5,6 L9,6 L9,5 L10,5 L10,3 L11,3 L11,2 L12,2 L12,1 L13,1 L13,17 L12,17 L12,14 L11,14 L11,13 L5,13 L5,14 L4,14 L4,32 L0,32 L0,29 L1,29 L1,21 L0,21 Z " fill="#98F6DC" transform="translate(141,94)"/>
<path d="M0,0 L6,0 L6,8 L5,8 L5,11 L4,11 L4,13 L3,13 L3,14 L0,14 L0,15 L-5,15 L-5,14 L-6,14 L-6,13 L-10,13 L-10,3 L-8,3 L-8,2 L-3,2 L-3,1 L0,1 Z " fill="#F9E066" transform="translate(77,174)"/>
<path d="M0,0 L1,0 L1,2 L5,2 L5,1 L21,1 L21,2 L34,2 L34,3 L22,3 L22,4 L6,4 L6,5 L4,5 L4,12 L7,12 L7,5 L8,5 L8,13 L-6,13 L-6,10 L-7,10 L-7,8 L-6,8 L-6,5 L-7,5 L-7,3 L-9,3 L-9,2 L0,2 Z " fill="#9EA8BF" transform="translate(150,124)"/>
<path d="M0,0 L2,0 L2,1 L1,1 L1,2 L0,2 L0,3 L2,3 L2,4 L-1,4 L-1,5 L0,5 L0,6 L1,6 L1,7 L12,7 L12,6 L15,6 L15,5 L18,5 L18,4 L24,4 L24,3 L28,3 L28,4 L26,4 L26,5 L19,5 L19,6 L16,6 L16,7 L13,7 L13,8 L12,8 L12,9 L10,9 L10,10 L2,10 L2,11 L-3,11 L-3,12 L-2,12 L-2,13 L0,13 L0,12 L7,12 L7,13 L8,13 L8,14 L9,14 L9,16 L-17,16 L-17,14 L-15,14 L-15,13 L-14,13 L-14,12 L-9,12 L-9,11 L-7,11 L-7,9 L-5,9 L-5,8 L-3,8 L-3,7 L-2,7 L-2,2 L-1,2 L-1,1 L0,1 Z " fill="#BB7943" transform="translate(37,184)"/>
<path d="M0,0 L8,0 L8,1 L12,1 L12,2 L17,2 L17,3 L21,3 L21,5 L22,5 L22,7 L23,7 L23,9 L22,9 L22,10 L21,10 L21,11 L20,11 L20,10 L12,10 L12,11 L11,11 L11,13 L3,13 L3,12 L2,12 L2,9 L3,9 L3,8 L4,8 L4,7 L9,7 L9,6 L6,6 L6,5 L1,5 L1,4 L0,4 Z " fill="#D77A45" transform="translate(27,168)"/>
<path d="M0,0 L2,0 L2,1 L3,1 L3,2 L4,2 L4,3 L6,3 L6,4 L7,4 L7,5 L9,5 L9,3 L10,3 L10,6 L12,6 L12,8 L14,8 L14,7 L15,7 L15,9 L14,9 L14,12 L16,12 L16,13 L17,13 L17,15 L18,15 L18,17 L17,17 L17,16 L16,16 L16,14 L13,14 L13,12 L12,12 L12,10 L11,10 L11,9 L10,9 L10,8 L9,8 L9,7 L7,7 L7,10 L6,10 L6,7 L5,7 L5,5 L4,5 L4,4 L3,4 L3,20 L2,20 L2,24 L1,24 L1,26 L2,26 L2,25 L3,25 L3,24 L4,24 L4,26 L3,26 L3,27 L2,27 L2,28 L1,28 L1,29 L-1,29 L-1,30 L-3,30 L-3,13 L-4,13 L-4,10 L-7,10 L-7,11 L-8,11 L-8,9 L-7,9 L-7,8 L-5,8 L-5,9 L-1,9 L-1,8 L0,8 L0,7 L1,7 L1,6 L2,6 L2,2 L1,2 L1,1 L0,1 Z " fill="#456B53" transform="translate(21,48)"/>
<path d="M0,0 L8,0 L8,13 L-7,13 L-7,12 L-10,12 L-10,7 L-6,7 L-6,6 L-5,6 L-5,3 L-3,3 L-3,2 L-2,2 L-2,1 L0,1 Z " fill="#37E4E4" transform="translate(66,65)"/>
<path d="M0,0 L4,0 L4,1 L5,1 L5,3 L4,3 L4,4 L3,4 L3,5 L-2,5 L-2,7 L-1,7 L-1,8 L1,8 L1,7 L2,7 L2,8 L3,8 L3,6 L4,6 L4,5 L5,5 L5,14 L9,14 L9,19 L8,19 L8,21 L6,21 L6,20 L5,20 L5,19 L3,19 L3,17 L2,17 L2,14 L1,14 L1,9 L-2,9 L-2,12 L-5,12 L-5,13 L-6,13 L-6,15 L-7,15 L-7,16 L-8,16 L-8,18 L-9,18 L-9,19 L-11,19 L-11,18 L-12,18 L-12,9 L-11,9 L-11,17 L-10,17 L-10,12 L-9,12 L-9,8 L-8,8 L-8,6 L-7,6 L-7,5 L-6,5 L-6,4 L-5,4 L-5,3 L-3,3 L-3,2 L-2,2 L-2,1 L0,1 Z " fill="#74973D" transform="translate(159,81)"/>
<path d="M0,0 L2,0 L2,2 L3,2 L3,3 L4,3 L4,4 L5,4 L5,5 L6,5 L6,6 L7,6 L7,8 L8,8 L8,9 L9,9 L9,10 L10,10 L10,11 L8,11 L8,12 L9,12 L9,13 L10,13 L10,14 L8,14 L8,13 L7,13 L7,12 L5,12 L5,13 L6,13 L6,14 L4,14 L4,13 L2,13 L2,12 L0,12 L0,13 L1,13 L1,14 L3,14 L3,15 L2,15 L2,17 L1,17 L1,18 L0,18 L0,20 L-1,20 L-1,22 L-2,22 L-2,23 L-3,23 L-3,22 L-4,22 L-4,8 L-5,8 L-5,7 L-6,7 L-6,6 L-7,6 L-7,5 L-8,5 L-8,4 L-9,4 L-9,2 L-8,2 L-8,3 L-7,3 L-7,4 L-4,4 L-4,3 L-2,3 L-2,2 L-1,2 L-1,1 L0,1 Z " fill="#B1B4C0" transform="translate(156,9)"/>
<path d="M0,0 L7,0 L7,1 L16,1 L16,2 L17,2 L17,3 L18,3 L18,4 L19,4 L19,11 L18,11 L18,9 L17,9 L17,7 L16,7 L16,6 L15,6 L15,5 L14,5 L14,4 L13,4 L13,2 L12,2 L12,5 L11,5 L11,6 L10,6 L10,7 L11,7 L11,15 L10,15 L10,20 L3,20 L3,18 L4,18 L4,17 L5,17 L5,15 L6,15 L6,12 L7,12 L7,9 L8,9 L8,7 L9,7 L9,5 L8,5 L8,4 L4,4 L4,5 L2,5 L2,6 L1,6 L1,7 L0,7 L0,8 L-1,8 L-1,9 L-2,9 L-2,11 L-3,11 L-3,12 L-4,12 L-4,6 L-3,6 L-3,4 L-2,4 L-2,2 L-1,2 L-1,1 L0,1 Z " fill="#C2D3E0" transform="translate(7,174)"/>
<path d="M0,0 L3,0 L3,3 L2,3 L2,6 L1,6 L1,20 L2,20 L2,21 L4,21 L4,22 L-3,22 L-3,24 L-4,24 L-4,25 L-5,25 L-5,28 L-4,28 L-4,30 L-3,30 L-3,32 L-2,32 L-2,34 L-1,34 L-1,36 L0,36 L0,38 L-6,38 L-6,37 L-9,37 L-9,17 L-6,17 L-6,18 L-3,18 L-3,17 L-2,17 L-2,18 L-1,18 L-1,9 L0,9 L0,5 L1,5 L1,2 L2,2 L2,1 L0,1 Z " fill="#79C1D9" transform="translate(9,114)"/>
<path d="M0,0 L2,0 L2,2 L3,2 L3,3 L5,3 L5,4 L6,4 L6,6 L7,6 L7,10 L8,10 L8,11 L15,11 L15,12 L32,12 L32,13 L34,13 L34,14 L40,14 L40,15 L43,15 L43,16 L42,16 L42,19 L34,19 L34,18 L29,18 L29,17 L24,17 L24,18 L21,18 L21,17 L22,17 L22,16 L16,16 L16,14 L12,14 L12,12 L6,12 L6,10 L5,10 L5,8 L4,8 L4,7 L3,7 L3,5 L2,5 L2,3 L1,3 L1,1 L0,1 Z " fill="#B9315B" transform="translate(12,148)"/>
<path d="M0,0 L12,0 L12,1 L11,1 L11,8 L8,8 L8,1 L7,1 L7,3 L6,3 L6,6 L4,6 L4,5 L3,5 L3,2 L2,2 L2,9 L-5,9 L-5,8 L-1,8 L-1,2 L-3,2 L-3,7 L-5,7 L-5,2 L-7,2 L-7,9 L-14,9 L-14,2 L-15,2 L-15,9 L-18,9 L-18,2 L-16,2 L-16,1 L0,1 Z " fill="#7684AB" transform="translate(172,127)"/>
<path d="M0,0 L2,0 L2,1 L3,1 L3,2 L4,2 L4,3 L5,3 L5,4 L6,4 L6,6 L1,6 L1,7 L2,7 L2,8 L7,8 L7,10 L6,10 L6,25 L5,25 L5,28 L6,28 L6,29 L7,29 L7,30 L6,30 L6,31 L8,31 L8,32 L9,32 L9,33 L7,33 L7,32 L4,32 L4,30 L2,30 L2,29 L0,29 L0,10 L-1,10 L-1,9 L-2,9 L-2,7 L-1,7 L-1,6 L0,6 Z " fill="#3390BF" transform="translate(80,17)"/>
<path d="M0,0 L1,0 L1,2 L2,2 L2,5 L3,5 L3,8 L4,8 L4,12 L5,12 L5,15 L6,15 L6,19 L7,19 L7,28 L6,28 L6,29 L5,29 L5,31 L4,31 L4,33 L3,33 L3,34 L1,34 L1,35 L0,35 L0,36 L-3,36 L-3,34 L-4,34 L-4,33 L-5,33 L-5,32 L-7,32 L-7,31 L-10,31 L-10,29 L-9,29 L-9,27 L1,27 L1,25 L0,25 L0,24 L3,24 L3,22 L2,22 L2,20 L1,20 L1,19 L3,19 L3,20 L4,20 L4,16 L3,16 L3,13 L2,13 L2,6 L1,6 L1,3 L0,3 Z " fill="#867E9A" transform="translate(95,56)"/>
<path d="M0,0 L1,0 L1,38 L-3,38 L-3,39 L-7,39 L-7,38 L-4,38 L-4,37 L-2,37 L-2,35 L-3,35 L-3,34 L-5,34 L-5,33 L-8,33 L-8,32 L-15,32 L-15,31 L-14,31 L-14,15 L-13,15 L-13,31 L-7,31 L-7,32 L-4,32 L-4,6 L-2,6 L-2,34 L-1,34 L-1,1 L0,1 Z " fill="#4960A0" transform="translate(197,31)"/>
<path d="M0,0 L4,0 L4,1 L7,1 L7,2 L9,2 L9,3 L12,3 L12,4 L14,4 L14,5 L15,5 L15,11 L13,11 L13,12 L12,12 L12,7 L10,7 L10,8 L8,8 L8,9 L6,9 L6,10 L4,10 L4,11 L2,11 L2,12 L0,12 L0,11 L-2,11 L-2,10 L-5,10 L-5,9 L-7,9 L-7,8 L-9,8 L-9,7 L-11,7 L-11,5 L-9,5 L-9,6 L-8,6 L-8,7 L-7,7 L-7,5 L-5,5 L-5,4 L-3,4 L-3,3 L1,3 L1,2 L-1,2 L-1,1 L0,1 Z " fill="#91C37B" transform="translate(154,187)"/>
<path d="M0,0 L12,0 L12,2 L11,2 L11,10 L12,10 L12,11 L13,11 L13,12 L14,12 L14,13 L16,13 L16,15 L5,15 L5,16 L2,16 L2,6 L1,6 L1,2 L0,2 Z " fill="#56E1E0" transform="translate(93,143)"/>
<path d="M0,0 L3,0 L3,3 L4,3 L4,4 L5,4 L5,6 L6,6 L6,8 L7,8 L7,10 L8,10 L8,13 L9,13 L9,15 L10,15 L10,19 L11,19 L11,23 L12,23 L12,25 L13,25 L13,28 L14,28 L14,31 L13,31 L13,32 L14,32 L14,34 L10,34 L10,33 L1,33 L1,30 L2,30 L2,29 L3,29 L3,28 L4,28 L4,27 L8,27 L8,26 L9,26 L9,22 L8,22 L8,18 L7,18 L7,16 L6,16 L6,15 L5,15 L5,13 L4,13 L4,11 L3,11 L3,8 L2,8 L2,3 L1,3 L1,1 L0,1 Z " fill="#BD7659" transform="translate(173,90)"/>
<path d="M0,0 L26,0 L26,1 L25,1 L25,2 L23,2 L23,3 L21,3 L21,4 L19,4 L19,5 L18,5 L18,6 L16,6 L16,7 L15,7 L15,8 L12,8 L12,9 L2,9 L2,8 L1,8 L1,7 L0,7 L0,6 L-1,6 L-1,5 L-2,5 L-2,4 L-3,4 L-3,2 L-1,2 L-1,3 L0,3 L0,4 L2,4 L2,5 L12,5 L12,4 L14,4 L14,3 L11,3 L11,4 L3,4 L3,3 L1,3 L1,2 L0,2 Z " fill="#B6BBDA" transform="translate(54,93)"/>
<path d="M0,0 L8,0 L8,1 L11,1 L11,2 L13,2 L13,3 L14,3 L14,5 L12,5 L12,6 L9,6 L9,7 L-2,7 L-2,9 L-3,9 L-3,11 L-4,11 L-4,12 L-5,12 L-5,13 L-6,13 L-6,14 L-7,14 L-7,15 L-10,15 L-10,7 L-8,7 L-8,6 L-7,6 L-7,4 L-5,4 L-5,3 L-4,3 L-4,2 L-3,2 L-3,1 L0,1 Z " fill="#88A72B" transform="translate(181,63)"/>
<path d="M0,0 L1,0 L1,1 L7,1 L7,2 L10,2 L10,3 L13,3 L13,4 L16,4 L16,5 L15,5 L15,6 L13,6 L13,7 L12,7 L12,8 L9,8 L9,9 L7,9 L7,10 L6,10 L6,9 L4,9 L4,8 L1,8 L1,7 L-1,7 L-1,6 L-4,6 L-4,5 L-8,5 L-8,6 L-9,6 L-9,7 L-7,7 L-7,8 L-11,8 L-11,9 L-13,9 L-13,10 L-15,10 L-15,12 L-16,12 L-16,11 L-17,11 L-17,10 L-21,10 L-21,18 L-22,18 L-22,9 L-21,9 L-21,5 L-20,5 L-20,9 L-17,9 L-17,8 L-15,8 L-15,7 L-12,7 L-12,6 L-11,6 L-11,5 L-9,5 L-9,4 L-6,4 L-6,3 L-4,3 L-4,2 L-2,2 L-2,1 L0,1 Z " fill="#729549" transform="translate(162,182)"/>
<path d="M0,0 L5,0 L5,5 L6,5 L6,13 L5,13 L5,14 L1,14 L1,15 L-5,15 L-5,16 L-8,16 L-8,17 L-11,17 L-11,18 L-14,18 L-14,16 L-20,16 L-20,15 L-15,15 L-15,14 L-11,14 L-11,13 L-10,13 L-10,12 L-9,12 L-9,11 L-8,11 L-8,10 L-6,10 L-6,9 L-4,9 L-4,8 L-1,8 L-1,6 L0,6 L0,5 L4,5 L4,4 L2,4 L2,3 L0,3 Z " fill="#8389C1" transform="translate(60,173)"/>
<path d="M0,0 L1,0 L1,2 L2,2 L2,5 L3,5 L3,3 L4,3 L4,1 L5,1 L5,5 L4,5 L4,7 L7,7 L7,5 L8,5 L8,4 L9,4 L9,3 L10,3 L10,5 L9,5 L9,6 L8,6 L8,8 L7,8 L7,9 L6,9 L6,11 L5,11 L5,13 L7,13 L7,12 L10,12 L10,11 L11,11 L11,10 L13,10 L13,9 L15,9 L15,8 L17,8 L17,9 L16,9 L16,10 L14,10 L14,11 L12,11 L12,12 L11,12 L11,13 L16,13 L16,14 L8,14 L8,15 L9,15 L9,17 L11,17 L11,18 L13,18 L13,19 L16,19 L16,20 L17,20 L17,21 L16,21 L16,23 L14,23 L14,22 L13,22 L13,21 L11,21 L11,20 L10,20 L10,19 L9,19 L9,18 L5,18 L5,17 L1,17 L1,16 L0,16 L0,13 L4,13 L4,12 L-3,12 L-3,10 L-4,10 L-4,9 L-5,9 L-5,7 L-6,7 L-6,6 L-4,6 L-4,7 L1,7 L1,3 L0,3 Z " fill="#62703B" transform="translate(14,30)"/>
<path d="M0,0 L3,0 L3,1 L5,1 L5,2 L6,2 L6,3 L9,3 L9,4 L10,4 L10,5 L11,5 L11,14 L12,14 L12,13 L13,13 L13,12 L15,12 L15,13 L14,13 L14,14 L13,14 L13,15 L11,15 L11,17 L10,17 L10,18 L8,18 L8,20 L7,20 L7,18 L6,18 L6,16 L5,16 L5,15 L4,15 L4,14 L3,14 L3,13 L1,13 L1,12 L-1,12 L-1,11 L0,11 Z " fill="#7A99C4" transform="translate(163,52)"/>
<path d="M0,0 L5,0 L5,1 L7,1 L7,2 L10,2 L10,3 L12,3 L12,4 L13,4 L13,5 L14,5 L14,7 L15,7 L15,8 L16,8 L16,9 L17,9 L17,10 L18,10 L18,13 L19,13 L19,18 L20,18 L20,23 L21,23 L21,13 L20,13 L20,9 L21,9 L21,11 L22,11 L22,24 L21,24 L21,26 L18,26 L18,24 L17,24 L17,22 L16,22 L16,18 L15,18 L15,16 L14,16 L14,15 L12,15 L12,12 L13,12 L13,10 L12,10 L12,11 L10,11 L10,9 L8,9 L8,5 L7,5 L7,4 L4,4 L4,3 L2,3 L2,2 L0,2 Z " fill="#7AA62C" transform="translate(23,45)"/>
<path d="M0,0 L1,0 L1,6 L2,6 L2,8 L3,8 L3,9 L4,9 L4,10 L10,10 L10,9 L13,9 L13,8 L15,8 L15,7 L17,7 L17,8 L16,8 L16,9 L15,9 L15,10 L16,10 L16,11 L18,11 L18,12 L20,12 L20,13 L28,13 L28,14 L19,14 L19,13 L17,13 L17,12 L15,12 L15,11 L14,11 L14,10 L11,10 L11,11 L6,11 L6,14 L8,14 L8,15 L12,15 L12,16 L7,16 L7,17 L9,17 L9,18 L14,18 L14,19 L28,19 L28,18 L34,18 L34,17 L35,17 L35,14 L36,14 L36,11 L38,11 L38,12 L37,12 L37,15 L36,15 L36,21 L37,21 L37,22 L36,22 L36,23 L35,23 L35,24 L34,24 L34,28 L33,28 L33,24 L32,24 L32,23 L30,23 L30,22 L32,22 L32,20 L9,20 L9,21 L8,21 L8,22 L7,22 L7,32 L6,32 L6,15 L5,15 L5,11 L3,11 L3,10 L2,10 L2,9 L1,9 L1,8 L0,8 Z " fill="#3A356F" transform="translate(104,145)"/>
<path d="M0,0 L2,0 L2,1 L3,1 L3,2 L4,2 L4,3 L5,3 L5,5 L6,5 L6,7 L7,7 L7,13 L10,13 L10,12 L11,12 L11,11 L12,11 L12,10 L13,10 L13,9 L14,9 L14,7 L15,7 L15,5 L23,5 L23,6 L19,6 L19,7 L18,7 L18,8 L17,8 L17,9 L16,9 L16,10 L14,10 L14,11 L13,11 L13,12 L20,12 L20,13 L21,13 L21,14 L23,14 L23,17 L25,17 L25,19 L22,19 L22,20 L20,20 L20,19 L16,19 L16,16 L14,16 L14,15 L12,15 L12,14 L10,14 L10,15 L9,15 L9,16 L8,16 L8,14 L4,14 L4,17 L2,17 L2,15 L1,15 L1,14 L-3,14 L-3,12 L-4,12 L-4,11 L-2,11 L-2,12 L0,12 L0,13 L4,13 L4,11 L3,11 L3,10 L2,10 L2,8 L3,8 L3,9 L4,9 L4,4 L3,4 L3,3 L2,3 L2,2 L1,2 L1,1 L0,1 Z " fill="#4C6D42" transform="translate(164,65)"/>
<path d="M0,0 L6,0 L6,2 L7,2 L7,13 L6,13 L6,15 L4,15 L4,17 L2,17 L2,16 L1,16 L1,15 L-1,15 L-1,14 L-2,14 L-2,13 L-3,13 L-3,12 L-4,12 L-4,1 L0,1 Z " fill="#020405" transform="translate(47,28)"/>
<path d="M0,0 L1,0 L1,2 L2,2 L2,3 L6,3 L6,2 L8,2 L8,3 L11,3 L11,4 L12,4 L12,5 L13,5 L13,7 L12,7 L12,9 L11,9 L11,10 L10,10 L10,11 L9,11 L9,12 L7,12 L7,13 L-1,13 L-1,12 L0,12 L0,10 L1,10 L1,9 L-6,9 L-6,7 L-4,7 L-4,4 L-7,4 L-7,3 L-6,3 L-6,2 L0,2 Z " fill="#F3EFD0" transform="translate(124,118)"/>
<path d="M0,0 L2,0 L2,1 L3,1 L3,3 L4,3 L4,4 L5,4 L5,7 L6,7 L6,11 L5,11 L5,12 L4,12 L4,13 L3,13 L3,14 L2,14 L2,15 L1,15 L1,16 L-2,16 L-2,17 L-3,17 L-3,18 L-8,18 L-8,13 L-7,13 L-7,10 L-6,10 L-6,8 L-5,8 L-5,7 L-4,7 L-4,6 L-3,6 L-3,4 L-1,4 L-1,1 L0,1 Z " fill="#D1843F" transform="translate(148,147)"/>
<path d="M0,0 L1,0 L1,1 L2,1 L2,3 L9,3 L9,4 L5,4 L5,7 L6,7 L6,8 L10,8 L10,9 L7,9 L7,10 L6,10 L6,11 L5,11 L5,13 L4,13 L4,15 L5,15 L5,17 L4,17 L4,16 L3,16 L3,15 L-1,15 L-1,12 L-2,12 L-2,11 L-3,11 L-3,6 L-5,6 L-5,8 L-6,8 L-6,11 L-9,11 L-9,2 L0,2 Z " fill="#826941" transform="translate(9,39)"/>
<path d="M0,0 L4,0 L4,1 L5,1 L5,2 L7,2 L7,3 L9,3 L9,4 L18,4 L18,3 L21,3 L21,2 L22,2 L22,1 L23,1 L23,0 L24,0 L24,2 L23,2 L23,3 L22,3 L22,4 L27,4 L27,5 L22,5 L22,6 L21,6 L21,7 L19,7 L19,9 L-1,9 L-1,1 L0,1 Z " fill="#DDA648" transform="translate(1,191)"/>
<path d="M0,0 L7,0 L7,1 L8,1 L8,2 L9,2 L9,3 L10,3 L10,2 L11,2 L11,7 L9,7 L9,10 L8,10 L8,13 L7,13 L7,14 L6,14 L6,15 L5,15 L5,17 L0,17 L0,16 L-2,16 L-2,14 L-1,14 L-1,12 L2,12 L2,11 L0,11 L0,8 L1,8 L1,7 L0,7 L0,6 L-1,6 L-1,2 L0,2 Z " fill="#8984A8" transform="translate(85,173)"/>
<path d="M0,0 L1,0 L1,1 L2,1 L2,2 L5,2 L5,3 L8,3 L8,2 L15,2 L15,1 L18,1 L18,0 L19,0 L19,1 L22,1 L22,2 L23,2 L23,4 L22,4 L22,5 L20,5 L20,6 L19,6 L19,7 L18,7 L18,8 L16,8 L16,14 L11,14 L11,8 L10,8 L10,6 L0,6 L0,5 L-3,5 L-3,4 L-2,4 L-2,3 L-1,3 L-1,2 L0,2 Z " fill="#E1AA84" transform="translate(164,168)"/>
<path d="M0,0 L2,0 L2,1 L4,1 L4,6 L3,6 L3,8 L2,8 L2,9 L1,9 L1,11 L0,11 L0,12 L-1,12 L-1,13 L-2,13 L-2,14 L-3,14 L-3,15 L-5,15 L-5,16 L-12,16 L-12,15 L-13,15 L-13,14 L-12,14 L-12,11 L-11,11 L-11,9 L-9,9 L-9,8 L-8,8 L-8,7 L-7,7 L-7,5 L-5,5 L-5,4 L-4,4 L-4,3 L-3,3 L-3,2 L-2,2 L-2,1 L0,1 Z " fill="#F1F3E6" transform="translate(135,139)"/>
<path d="M0,0 L3,0 L3,6 L1,6 L1,7 L2,7 L2,8 L3,8 L3,12 L1,12 L1,13 L3,13 L3,16 L2,16 L2,17 L3,17 L3,18 L1,18 L1,17 L0,17 L0,18 L-6,18 L-6,8 L-7,8 L-7,22 L-8,22 L-8,7 L-7,7 L-7,5 L-6,5 L-6,7 L-5,7 L-5,6 L-4,6 L-4,5 L-3,5 L-3,3 L-2,3 L-2,2 L-1,2 L-1,1 L0,1 Z " fill="#93BBD3" transform="translate(31,109)"/>
<path d="M0,0 L3,0 L3,1 L5,1 L5,2 L7,2 L7,3 L8,3 L8,4 L9,4 L9,5 L11,5 L11,6 L12,6 L12,8 L13,8 L13,9 L14,9 L14,12 L15,12 L15,16 L10,16 L10,15 L7,15 L7,14 L6,14 L6,13 L5,13 L5,12 L4,12 L4,11 L2,11 L2,10 L0,10 Z " fill="#96B42C" transform="translate(0,21)"/>
<path d="M0,0 L14,0 L14,1 L16,1 L16,2 L18,2 L18,3 L20,3 L20,4 L21,4 L21,5 L22,5 L22,6 L23,6 L23,7 L24,7 L24,8 L25,8 L25,9 L26,9 L26,10 L27,10 L27,12 L28,12 L28,13 L29,13 L29,15 L30,15 L30,18 L31,18 L31,31 L30,31 L30,32 L29,32 L29,34 L28,34 L28,36 L27,36 L27,37 L26,37 L26,39 L25,39 L25,40 L24,40 L24,41 L23,41 L23,42 L22,42 L22,43 L21,43 L21,44 L19,44 L19,45 L17,45 L17,46 L14,46 L14,47 L11,47 L11,46 L12,46 L12,45 L14,45 L14,44 L17,44 L17,43 L19,43 L19,42 L20,42 L20,41 L21,41 L21,40 L22,40 L22,39 L23,39 L23,38 L24,38 L24,37 L25,37 L25,35 L26,35 L26,34 L27,34 L27,31 L28,31 L28,28 L29,28 L29,19 L28,19 L28,16 L27,16 L27,14 L26,14 L26,12 L25,12 L25,11 L24,11 L24,9 L23,9 L23,8 L22,8 L22,7 L21,7 L21,6 L19,6 L19,5 L18,5 L18,4 L16,4 L16,3 L12,3 L12,2 L10,2 L10,1 L2,1 L2,2 L-1,2 L-1,3 L-3,3 L-3,2 L-2,2 L-2,1 L0,1 Z " fill="#E9F5DB" transform="translate(111,13)"/>
<path d="M0,0 L41,0 L41,1 L1,1 L1,2 L32,2 L32,3 L31,3 L31,4 L30,4 L30,5 L31,5 L31,6 L20,6 L20,5 L0,5 Z " fill="#B0C3DB" transform="translate(143,139)"/>
<path d="M0,0 L4,0 L4,1 L7,1 L7,25 L8,25 L8,29 L6,29 L6,30 L5,30 L5,25 L6,25 L6,22 L2,22 L2,19 L1,19 L1,3 L0,3 Z " fill="#959EB9" transform="translate(192,126)"/>
<path d="M0,0 L6,0 L6,1 L7,1 L7,2 L8,2 L8,3 L9,3 L9,8 L8,8 L8,11 L7,11 L7,13 L6,13 L6,14 L5,14 L5,16 L4,16 L4,17 L3,17 L3,18 L2,18 L2,19 L0,19 L0,20 L-2,20 L-2,19 L-4,19 L-4,20 L-11,20 L-11,19 L-13,19 L-13,18 L-14,18 L-14,17 L-13,17 L-13,16 L-12,16 L-12,15 L-11,15 L-11,14 L-10,14 L-10,16 L-11,16 L-11,17 L-10,17 L-10,18 L-3,18 L-3,17 L-1,17 L-1,16 L0,16 L0,15 L1,15 L1,14 L2,14 L2,13 L3,13 L3,11 L4,11 L4,10 L5,10 L5,8 L6,8 L6,3 L4,3 L4,2 L2,2 L2,3 L0,3 L0,4 L-1,4 L-1,5 L-2,5 L-2,6 L-3,6 L-3,7 L-4,7 L-4,5 L-5,5 L-5,6 L-7,6 L-7,5 L-9,5 L-9,3 L-8,3 L-8,2 L-5,2 L-5,1 L-2,1 L-2,2 L-1,2 L-1,1 L0,1 Z " fill="#ADBAE2" transform="translate(133,137)"/>
<path d="M0,0 L1,0 L1,12 L0,12 L0,16 L-1,16 L-1,17 L-3,17 L-3,19 L-8,19 L-8,20 L-18,20 L-18,19 L-19,19 L-19,18 L-20,18 L-20,13 L-19,13 L-19,12 L-18,12 L-18,14 L-17,14 L-17,15 L-8,15 L-8,14 L-6,14 L-6,13 L-5,13 L-5,12 L-4,12 L-4,10 L-3,10 L-3,7 L-2,7 L-2,5 L-1,5 L-1,3 L0,3 Z " fill="#8D799B" transform="translate(96,180)"/>
<path d="M0,0 L4,0 L4,1 L5,1 L5,2 L6,2 L6,3 L7,3 L7,4 L8,4 L8,6 L9,6 L9,10 L10,10 L10,9 L11,9 L11,7 L12,7 L12,0 L13,0 L13,4 L16,4 L16,8 L13,8 L13,10 L11,10 L11,12 L10,12 L10,18 L11,18 L11,19 L10,19 L10,23 L11,23 L11,24 L9,24 L9,23 L8,23 L8,21 L7,21 L7,17 L-3,17 L-3,16 L1,16 L1,15 L4,15 L4,14 L6,14 L6,13 L7,13 L7,12 L5,12 L5,7 L4,7 L4,5 L3,5 L3,4 L2,4 L2,3 L-1,3 L-1,1 L0,1 Z " fill="#BA9277" transform="translate(184,166)"/>
<path d="M0,0 L1,0 L1,2 L2,2 L2,4 L3,4 L3,6 L5,6 L5,8 L9,8 L9,6 L8,6 L8,2 L9,2 L9,3 L11,3 L11,1 L10,1 L10,0 L12,0 L12,1 L14,1 L14,4 L15,4 L15,7 L12,7 L12,6 L11,6 L11,8 L12,8 L12,9 L14,9 L14,10 L15,10 L15,11 L16,11 L16,13 L17,13 L17,17 L18,17 L18,27 L16,27 L16,21 L15,21 L15,17 L14,17 L14,13 L13,13 L13,12 L12,12 L12,11 L11,11 L11,10 L9,10 L9,12 L10,12 L10,13 L8,13 L8,12 L7,12 L7,11 L6,11 L6,10 L5,10 L5,9 L4,9 L4,11 L5,11 L5,15 L6,15 L6,20 L5,20 L5,17 L4,17 L4,13 L3,13 L3,9 L2,9 L2,6 L1,6 L1,3 L0,3 Z " fill="#313068" transform="translate(74,130)"/>
<path d="M0,0 L6,0 L6,1 L7,1 L7,2 L8,2 L8,5 L9,5 L9,2 L11,2 L11,5 L12,5 L12,2 L13,2 L13,4 L15,4 L15,2 L16,2 L16,4 L17,4 L17,5 L19,5 L19,4 L18,4 L18,3 L19,3 L19,2 L17,2 L17,1 L19,1 L19,0 L20,0 L20,4 L22,4 L22,5 L28,5 L28,4 L29,4 L29,2 L30,2 L30,1 L28,1 L28,0 L31,0 L31,6 L23,6 L23,7 L24,7 L24,8 L25,8 L25,9 L23,9 L23,8 L22,8 L22,7 L20,7 L20,6 L16,6 L16,15 L15,15 L15,6 L9,6 L9,16 L8,16 L8,6 L-2,6 L-2,7 L-4,7 L-4,5 L-3,5 L-3,4 L0,4 Z " fill="#4997C9" transform="translate(146,46)"/>
<path d="M0,0 L4,0 L4,2 L5,2 L5,10 L6,10 L6,11 L7,11 L7,13 L8,13 L8,21 L6,21 L6,24 L5,24 L5,26 L4,26 L4,27 L0,27 L0,26 L1,26 L1,25 L2,25 L2,23 L3,23 L3,21 L4,21 L4,14 L3,14 L3,13 L2,13 L2,12 L1,12 L1,11 L0,11 L0,10 L-3,10 L-3,8 L-1,8 L-1,6 L-2,6 L-2,5 L-3,5 L-3,3 L-2,3 L-2,2 L-1,2 L-1,1 L0,1 Z " fill="#AF5A36" transform="translate(134,102)"/>
<path d="M0,0 L10,0 L10,1 L12,1 L12,2 L14,2 L14,4 L15,4 L15,5 L16,5 L16,6 L17,6 L17,7 L18,7 L18,12 L17,12 L17,11 L16,11 L16,12 L15,12 L15,11 L14,11 L14,9 L12,9 L12,8 L11,8 L11,7 L10,7 L10,6 L9,6 L9,5 L8,5 L8,7 L7,7 L7,8 L6,8 L6,10 L5,10 L5,8 L2,8 L2,7 L-3,7 L-3,5 L-2,5 L-2,2 L-1,2 L-1,1 L0,1 Z " fill="#89A73C" transform="translate(150,62)"/>
<path d="M0,0 L2,0 L2,1 L3,1 L3,2 L4,2 L4,3 L5,3 L5,4 L6,4 L6,5 L7,5 L7,4 L8,4 L8,3 L9,3 L9,2 L11,2 L11,1 L13,1 L13,0 L15,0 L15,2 L12,2 L12,3 L10,3 L10,4 L9,4 L9,5 L10,5 L10,7 L14,7 L14,8 L15,8 L15,9 L16,9 L16,11 L17,11 L17,13 L15,13 L15,12 L11,12 L11,13 L12,13 L12,15 L11,15 L11,16 L10,16 L10,17 L6,17 L6,19 L7,19 L7,22 L5,22 L5,21 L4,21 L4,19 L3,19 L3,18 L2,18 L2,17 L1,17 L1,16 L0,16 L0,13 L-1,13 L-1,14 L-2,14 L-2,15 L-3,15 L-3,13 L-2,13 L-2,12 L-4,12 L-4,11 L-5,11 L-5,10 L-3,10 L-3,11 L-1,11 L-1,12 L1,12 L1,13 L3,13 L3,14 L5,14 L5,15 L6,15 L6,14 L8,14 L8,13 L9,13 L9,10 L8,10 L8,9 L7,9 L7,7 L6,7 L6,6 L5,6 L5,5 L4,5 L4,4 L3,4 L3,3 L2,3 L2,2 L1,2 L1,1 L0,1 Z " fill="#66688E" transform="translate(161,11)"/>
<path d="M0,0 L1,0 L1,1 L2,1 L2,0 L5,0 L5,1 L6,1 L6,2 L7,2 L7,3 L10,3 L10,2 L13,2 L13,1 L16,1 L16,3 L15,3 L15,4 L14,4 L14,3 L11,3 L11,4 L8,4 L8,5 L7,5 L7,7 L9,7 L9,8 L11,8 L11,7 L12,7 L12,9 L11,9 L11,11 L10,11 L10,12 L9,12 L9,13 L7,13 L7,15 L6,15 L6,16 L5,16 L5,17 L4,17 L4,15 L5,15 L5,14 L6,14 L6,10 L5,10 L5,9 L4,9 L4,7 L5,7 L5,5 L1,5 L1,7 L3,7 L3,8 L-3,8 L-3,9 L-4,9 L-4,10 L-3,10 L-3,12 L-4,12 L-4,11 L-5,11 L-5,10 L-7,10 L-7,11 L-9,11 L-9,10 L-8,10 L-8,9 L-9,9 L-9,8 L-8,8 L-8,7 L-7,7 L-7,6 L-5,6 L-5,5 L-2,5 L-2,6 L-1,6 L-1,4 L-3,4 L-3,3 L-4,3 L-4,1 L-3,1 L-3,2 L-1,2 L-1,1 L0,1 Z " fill="#7D6678" transform="translate(117,135)"/>
<path d="M0,0 L2,0 L2,1 L3,1 L3,2 L4,2 L4,3 L5,3 L5,4 L7,4 L7,3 L14,3 L14,4 L11,4 L11,5 L15,5 L15,7 L14,7 L14,8 L13,8 L13,9 L12,9 L12,10 L11,10 L11,11 L9,11 L9,7 L8,7 L8,6 L6,6 L6,8 L5,8 L5,11 L4,11 L4,12 L3,12 L3,13 L-3,13 L-3,11 L-4,11 L-4,6 L-3,6 L-3,5 L-2,5 L-2,4 L-1,4 L-1,1 L0,1 Z " fill="#8B7E83" transform="translate(114,101)"/>
<path d="M0,0 L1,0 L1,1 L0,1 Z M-2,1 L0,1 L0,3 L-1,3 L-1,4 L-3,4 L-3,5 L-4,5 L-4,6 L-5,6 L-5,7 L-6,7 L-6,8 L-7,8 L-7,9 L-8,9 L-8,10 L-9,10 L-9,12 L-10,12 L-10,14 L-11,14 L-11,16 L-12,16 L-12,29 L-11,29 L-11,32 L-10,32 L-10,34 L-9,34 L-9,35 L-8,35 L-8,37 L-7,37 L-7,38 L-6,38 L-6,39 L-5,39 L-5,40 L-4,40 L-4,41 L-2,41 L-2,42 L-1,42 L-1,43 L1,43 L1,44 L4,44 L4,45 L14,45 L14,47 L5,47 L5,46 L2,46 L2,45 L-2,45 L-2,44 L-3,44 L-3,43 L-4,43 L-4,42 L-6,42 L-6,41 L-7,41 L-7,40 L-8,40 L-8,39 L-9,39 L-9,37 L-10,37 L-10,36 L-11,36 L-11,34 L-12,34 L-12,32 L-13,32 L-13,29 L-14,29 L-14,15 L-13,15 L-13,13 L-12,13 L-12,11 L-11,11 L-11,9 L-10,9 L-10,8 L-9,8 L-9,7 L-8,7 L-8,6 L-7,6 L-7,5 L-6,5 L-6,4 L-5,4 L-5,3 L-4,3 L-4,2 L-2,2 Z " fill="#E9F5DB" transform="translate(108,14)"/>
<path d="M0,0 L52,0 L52,6 L51,6 L51,5 L49,5 L49,4 L47,4 L47,3 L46,3 L46,2 L45,2 L45,3 L42,3 L42,2 L41,2 L41,1 L35,1 L35,2 L31,2 L31,3 L29,3 L29,2 L18,2 L18,1 L14,1 L14,3 L13,3 L13,4 L12,4 L12,5 L8,5 L8,4 L9,4 L9,3 L6,3 L6,4 L5,4 L5,3 L1,3 L1,1 L0,1 Z " fill="#2194E4" transform="translate(148,0)"/>
<path d="M0,0 L2,0 L2,1 L3,1 L3,2 L4,2 L4,3 L5,3 L5,2 L9,2 L9,1 L21,1 L21,3 L20,3 L20,4 L18,4 L18,5 L16,5 L16,6 L14,6 L14,7 L13,7 L13,8 L12,8 L12,9 L11,9 L11,8 L10,8 L10,7 L9,7 L9,6 L8,6 L8,5 L7,5 L7,4 L5,4 L5,5 L6,5 L6,6 L7,6 L7,7 L8,7 L8,8 L9,8 L9,9 L10,9 L10,10 L11,10 L11,11 L12,11 L12,13 L13,13 L13,14 L14,14 L14,17 L13,17 L13,18 L11,18 L11,19 L10,19 L10,18 L8,18 L8,17 L6,17 L6,15 L5,15 L5,14 L7,14 L7,15 L8,15 L8,16 L10,16 L10,15 L9,15 L9,14 L8,14 L8,13 L10,13 L10,12 L9,12 L9,11 L8,11 L8,10 L7,10 L7,8 L6,8 L6,7 L5,7 L5,6 L4,6 L4,5 L3,5 L3,4 L2,4 L2,2 L0,2 Z " fill="#9E9DB9" transform="translate(156,7)"/>
<path d="M0,0 L22,0 L22,4 L23,4 L23,6 L24,6 L24,7 L26,7 L26,8 L28,8 L28,9 L29,9 L29,10 L31,10 L31,17 L21,17 L21,11 L19,11 L19,6 L18,6 L18,5 L20,5 L20,7 L22,7 L22,5 L21,5 L21,3 L20,3 L20,2 L21,2 L21,1 L4,1 L4,2 L3,2 L3,1 L0,1 Z " fill="#E1B54A" transform="translate(169,183)"/>
<path d="M0,0 L2,0 L2,5 L-13,5 L-13,6 L-16,6 L-16,7 L-19,7 L-19,8 L-21,8 L-21,9 L-23,9 L-23,10 L-24,10 L-24,11 L-25,11 L-25,12 L-26,12 L-26,13 L-27,13 L-27,14 L-28,14 L-28,16 L-29,16 L-29,18 L-30,18 L-30,20 L-34,20 L-34,21 L-35,21 L-35,22 L-37,22 L-37,21 L-38,21 L-38,20 L-40,20 L-40,18 L-34,18 L-34,17 L-33,17 L-33,16 L-32,16 L-32,15 L-31,15 L-31,14 L-30,14 L-30,13 L-29,13 L-29,12 L-28,12 L-28,11 L-27,11 L-27,8 L-25,8 L-25,7 L-21,7 L-21,6 L-19,6 L-19,5 L-16,5 L-16,4 L-12,4 L-12,3 L-9,3 L-9,2 L-3,2 L-3,1 L0,1 Z " fill="#F5E674" transform="translate(182,151)"/>
<path d="M0,0 L2,0 L2,1 L8,1 L8,3 L6,3 L6,8 L8,8 L8,6 L10,6 L10,8 L9,8 L9,12 L6,12 L6,13 L7,13 L7,14 L5,14 L5,15 L7,15 L7,16 L6,16 L6,17 L5,17 L5,18 L-3,18 L-3,16 L-1,16 L-1,15 L-3,15 L-3,13 L-2,13 L-2,12 L-1,12 L-1,11 L0,11 L0,10 L1,10 L1,8 L2,8 L2,7 L3,7 L3,6 L2,6 L2,4 L1,4 L1,3 L0,3 Z " fill="#9691AF" transform="translate(128,179)"/>
<path d="M0,0 L1,0 L1,9 L2,9 L2,11 L1,11 L1,13 L2,13 L2,14 L3,14 L3,12 L4,12 L4,10 L5,10 L5,9 L6,9 L6,8 L10,8 L10,7 L12,7 L12,13 L11,13 L11,14 L10,14 L10,15 L6,15 L6,16 L3,16 L3,17 L2,17 L2,18 L-3,18 L-3,17 L-5,17 L-5,16 L-6,16 L-6,13 L-5,13 L-5,12 L-4,12 L-4,11 L-3,11 L-3,10 L-2,10 L-2,9 L-1,9 L-1,8 L0,8 Z " fill="#8B819E" transform="translate(109,176)"/>
<path d="M0,0 L2,0 L2,4 L3,4 L3,5 L4,5 L4,6 L5,6 L5,7 L6,7 L6,8 L7,8 L7,9 L6,9 L6,10 L4,10 L4,9 L3,9 L3,10 L0,10 L0,11 L-1,11 L-1,12 L-2,12 L-2,14 L-3,14 L-3,16 L-4,16 L-4,18 L-5,18 L-5,16 L-18,16 L-18,14 L-16,14 L-16,13 L-12,13 L-12,12 L-9,12 L-9,11 L-7,11 L-7,10 L-6,10 L-6,9 L-5,9 L-5,8 L-2,8 L-2,7 L-1,7 L-1,2 L0,2 Z " fill="#98A9C4" transform="translate(110,127)"/>
<path d="M0,0 L1,0 L1,2 L2,2 L2,3 L3,3 L3,4 L4,4 L4,5 L5,5 L5,7 L6,7 L6,9 L7,9 L7,2 L8,2 L8,12 L7,12 L7,14 L6,14 L6,15 L5,15 L5,16 L4,16 L4,17 L3,17 L3,18 L0,18 L0,19 L-9,19 L-9,18 L-2,18 L-2,13 L-1,13 L-1,5 L-2,5 L-2,4 L-1,4 L-1,3 L0,3 Z " fill="#2570C1" transform="translate(19,176)"/>
<path d="M0,0 L1,0 L1,3 L-1,3 L-1,7 L0,7 L0,9 L2,9 L2,10 L-30,10 L-30,2 L-28,2 L-28,4 L-26,4 L-26,5 L-24,5 L-24,6 L-22,6 L-22,7 L-19,7 L-19,8 L-17,8 L-17,9 L-15,9 L-15,8 L-13,8 L-13,7 L-11,7 L-11,6 L-9,6 L-9,5 L-7,5 L-7,4 L-5,4 L-5,9 L-4,9 L-4,8 L-2,8 L-2,1 L0,1 Z " fill="#325643" transform="translate(171,190)"/>
<path d="M0,0 L2,0 L2,8 L7,8 L7,7 L10,7 L10,9 L11,9 L11,10 L14,10 L14,13 L15,13 L15,16 L9,16 L9,15 L7,15 L7,11 L6,11 L6,12 L4,12 L4,13 L6,13 L6,14 L5,14 L5,15 L6,15 L6,16 L4,16 L4,15 L3,15 L3,13 L2,13 L2,15 L0,15 L0,13 L-1,13 L-1,16 L-2,16 L-2,13 L-4,13 L-4,16 L-5,16 L-5,13 L-6,13 L-6,11 L2,11 L2,10 L3,10 L3,9 L-1,9 L-1,8 L0,8 Z " fill="#65ABD3" transform="translate(159,35)"/>
<path d="M0,0 L2,0 L2,1 L13,1 L13,0 L17,0 L17,1 L14,1 L14,8 L13,8 L13,6 L12,6 L12,4 L11,4 L11,2 L9,2 L9,8 L8,8 L8,9 L10,9 L10,10 L8,10 L8,12 L7,12 L7,13 L6,13 L6,14 L5,14 L5,15 L4,15 L4,17 L3,17 L3,19 L2,19 L2,25 L3,25 L3,27 L4,27 L4,28 L5,28 L5,30 L6,30 L6,31 L8,31 L8,32 L9,32 L9,33 L7,33 L7,32 L5,32 L5,31 L4,31 L4,30 L3,30 L3,28 L2,28 L2,26 L1,26 L1,18 L2,18 L2,16 L3,16 L3,14 L4,14 L4,9 L3,9 L3,7 L4,7 L4,6 L5,6 L5,5 L1,5 L1,1 L0,1 Z " fill="#645056" transform="translate(1,161)"/>
<path d="M0,0 L1,0 L1,41 L0,41 L0,17 L-3,17 L-3,16 L-7,16 L-7,19 L-8,19 L-8,17 L-11,17 L-11,16 L-9,16 L-9,11 L-8,11 L-8,12 L-5,12 L-5,9 L-4,9 L-4,7 L-3,7 L-3,5 L-2,5 L-2,3 L-1,3 L-1,1 L0,1 Z " fill="#924F69" transform="translate(199,110)"/>
<path d="M0,0 L2,0 L2,5 L3,5 L3,6 L4,6 L4,9 L6,9 L6,10 L5,10 L5,12 L4,12 L4,13 L3,13 L3,15 L2,15 L2,16 L0,16 L0,18 L-1,18 L-1,20 L-2,20 L-2,22 L-3,22 L-3,24 L-4,24 L-4,5 L-1,5 L-1,2 L0,2 Z " fill="#4890B5" transform="translate(4,45)"/>
<path d="M0,0 L19,0 L19,7 L16,7 L16,6 L10,6 L10,5 L8,5 L8,4 L-2,4 L-2,3 L-8,3 L-8,2 L-10,2 L-10,1 L0,1 Z " fill="#F08734" transform="translate(36,156)"/>
<path d="M0,0 L10,0 L10,1 L2,1 L2,2 L0,2 L0,3 L-1,3 L-1,5 L1,5 L1,4 L3,4 L3,3 L6,3 L6,4 L4,4 L4,5 L2,5 L2,6 L1,6 L1,7 L-1,7 L-1,8 L-2,8 L-2,9 L-3,9 L-3,10 L-4,10 L-4,11 L-5,11 L-5,12 L-6,12 L-6,13 L-7,13 L-7,12 L-8,12 L-8,13 L-9,13 L-9,14 L-10,14 L-10,16 L-13,16 L-13,14 L-12,14 L-12,8 L-11,8 L-11,7 L-10,7 L-10,6 L-9,6 L-9,5 L-8,5 L-8,4 L-7,4 L-7,3 L-6,3 L-6,2 L-2,2 L-2,1 L0,1 Z " fill="#5D8534" transform="translate(31,21)"/>
<path d="M0,0 L5,0 L5,1 L12,1 L12,2 L15,2 L15,3 L18,3 L18,7 L17,7 L17,8 L19,8 L19,7 L21,7 L21,6 L24,6 L24,4 L25,4 L25,8 L24,8 L24,9 L23,9 L23,10 L22,10 L22,11 L21,11 L21,12 L20,12 L20,13 L16,13 L16,15 L15,15 L15,16 L11,16 L11,15 L7,15 L7,14 L8,14 L8,13 L10,13 L10,12 L12,12 L12,11 L13,11 L13,10 L14,10 L14,9 L15,9 L15,7 L14,7 L14,5 L13,5 L13,3 L9,3 L9,2 L4,2 L4,1 L0,1 Z " fill="#6F5A7F" transform="translate(35,168)"/>
<path d="M0,0 L6,0 L6,15 L5,15 L5,14 L4,14 L4,12 L3,12 L3,11 L2,11 L2,10 L0,10 L0,9 L-2,9 L-2,8 L-3,8 L-3,7 L-10,7 L-10,6 L-9,6 L-9,5 L-7,5 L-7,4 L-6,4 L-6,3 L-5,3 L-5,2 L-4,2 L-4,1 L0,1 Z " fill="#8CB8CE" transform="translate(187,70)"/>
<path d="M0,0 L3,0 L3,3 L5,3 L5,4 L3,4 L3,5 L5,5 L5,6 L3,6 L3,7 L8,7 L8,6 L10,6 L10,13 L9,13 L9,12 L8,12 L8,11 L7,11 L7,10 L5,10 L5,9 L2,9 L2,10 L4,10 L4,11 L6,11 L6,12 L-7,12 L-7,11 L-6,11 L-6,9 L-4,9 L-4,8 L-6,8 L-6,7 L-5,7 L-5,1 L-3,1 L-3,3 L-2,3 L-2,5 L-1,5 L-1,7 L0,7 Z " fill="#8D9954" transform="translate(15,162)"/>
<path d="M0,0 L4,0 L4,1 L14,1 L14,3 L15,3 L15,9 L4,9 L4,8 L2,8 L2,7 L1,7 L1,6 L0,6 Z " fill="#EC4153" transform="translate(160,173)"/>
<path d="M0,0 L2,0 L2,3 L3,3 L3,7 L4,7 L4,11 L-1,11 L-1,12 L-3,12 L-3,13 L-6,13 L-6,9 L-7,9 L-7,13 L-10,13 L-10,9 L-9,9 L-9,6 L-7,6 L-7,7 L-6,7 L-6,5 L-5,5 L-5,3 L-4,3 L-4,2 L-3,2 L-3,1 L0,1 Z " fill="#DDE0DF" transform="translate(89,54)"/>
<path d="M0,0 L1,0 L1,4 L3,4 L3,6 L4,6 L4,9 L3,9 L3,11 L4,11 L4,16 L3,16 L3,23 L2,23 L2,26 L1,26 L1,33 L0,33 L0,29 L-1,29 L-1,30 L-2,30 L-2,28 L-1,28 L-1,27 L0,27 L0,25 L1,25 L1,22 L2,22 L2,17 L1,17 L1,16 L0,16 L0,15 L-1,15 L-1,14 L-7,14 L-7,13 L0,13 L0,14 L1,14 L1,15 L3,15 L3,12 L2,12 L2,5 L1,5 L1,6 L-1,6 L-1,7 L-5,7 L-5,8 L-7,8 L-7,9 L-10,9 L-10,10 L-12,10 L-12,11 L-14,11 L-14,12 L-16,12 L-16,13 L-18,13 L-18,12 L-21,12 L-21,13 L-22,13 L-22,12 L-24,12 L-24,11 L-25,11 L-25,10 L-26,10 L-26,9 L-27,9 L-27,8 L-28,8 L-28,6 L-27,6 L-27,7 L-26,7 L-26,8 L-25,8 L-25,9 L-23,9 L-23,10 L-13,10 L-13,9 L-11,9 L-11,8 L-9,8 L-9,7 L-7,7 L-7,6 L-2,6 L-2,5 L-1,5 L-1,3 L0,3 Z " fill="#584D6F" transform="translate(140,123)"/>
<path d="M0,0 L1,0 L1,8 L2,8 L2,16 L3,16 L3,15 L4,15 L4,23 L5,23 L5,30 L6,30 L6,36 L7,36 L7,40 L8,40 L8,42 L9,42 L9,54 L8,54 L8,48 L7,48 L7,44 L6,44 L6,40 L5,40 L5,38 L4,38 L4,37 L3,37 L3,36 L1,36 L1,35 L0,35 L0,33 L1,33 L1,34 L4,34 L4,31 L3,31 L3,28 L2,28 L2,19 L1,19 L1,12 L0,12 Z " fill="#93775B" transform="translate(85,103)"/>
<path d="M0,0 L2,0 L2,22 L1,22 L1,23 L-1,23 L-1,24 L-2,24 L-2,25 L-3,25 L-3,2 L-1,2 L-1,1 L0,1 Z " fill="#84D3EC" transform="translate(134,78)"/>
<path d="M0,0 L2,0 L2,1 L4,1 L4,2 L7,2 L7,3 L9,3 L9,4 L11,4 L11,10 L-6,10 L-6,9 L-8,9 L-8,7 L-3,7 L-3,6 L1,6 L1,4 L0,4 Z " fill="#6B9459" transform="translate(179,190)"/>
<path d="M0,0 L7,0 L7,4 L-4,4 L-4,5 L-7,5 L-7,6 L-17,6 L-17,7 L-21,7 L-21,6 L-22,6 L-22,5 L-24,5 L-24,4 L-23,4 L-23,3 L-15,3 L-15,2 L-6,2 L-6,1 L0,1 Z " fill="#68ECD8" transform="translate(177,146)"/>
<path d="M0,0 L4,0 L4,2 L3,2 L3,4 L4,4 L4,5 L5,5 L5,9 L4,9 L4,10 L3,10 L3,12 L1,12 L1,13 L-1,13 L-1,14 L-4,14 L-4,15 L-10,15 L-10,14 L-11,14 L-11,13 L-12,13 L-12,12 L-3,12 L-3,9 L-4,9 L-4,8 L-5,8 L-5,7 L-4,7 L-4,5 L-5,5 L-5,4 L-4,4 L-4,3 L2,3 L2,2 L0,2 Z " fill="#ADB6DB" transform="translate(118,140)"/>
<path d="M0,0 L4,0 L4,1 L5,1 L5,0 L8,0 L8,1 L7,1 L7,2 L11,2 L11,3 L13,3 L13,4 L14,4 L14,3 L17,3 L17,4 L29,4 L29,5 L30,5 L30,7 L29,7 L29,8 L27,8 L27,7 L28,7 L28,5 L16,5 L16,6 L12,6 L12,7 L11,7 L11,6 L10,6 L10,5 L9,5 L9,4 L7,4 L7,7 L6,7 L6,8 L5,8 L5,9 L3,9 L3,10 L0,10 L0,9 L-1,9 L-1,8 L-2,8 L-2,4 L-1,4 L-1,5 L2,5 L2,4 L1,4 L1,2 L3,2 L3,1 L0,1 Z " fill="#465F90" transform="translate(149,3)"/>
<path d="M0,0 L5,0 L5,1 L6,1 L6,3 L7,3 L7,5 L8,5 L8,7 L9,7 L9,9 L10,9 L10,10 L11,10 L11,13 L12,13 L12,16 L13,16 L13,18 L14,18 L14,21 L15,21 L15,23 L16,23 L16,22 L18,22 L18,21 L20,21 L20,20 L23,20 L23,21 L21,21 L21,22 L19,22 L19,23 L17,23 L17,24 L16,24 L16,28 L15,28 L15,25 L14,25 L14,24 L11,24 L11,21 L10,21 L10,17 L9,17 L9,15 L8,15 L8,12 L7,12 L7,10 L6,10 L6,8 L5,8 L5,6 L4,6 L4,5 L3,5 L3,2 L0,2 Z " fill="#8E647D" transform="translate(173,88)"/>
<path d="M0,0 L18,0 L18,2 L16,2 L16,3 L18,3 L18,4 L19,4 L19,8 L20,8 L20,4 L21,4 L21,12 L22,12 L22,13 L20,13 L20,14 L14,14 L14,15 L12,15 L12,14 L10,14 L10,9 L11,9 L11,10 L12,10 L12,11 L13,11 L13,12 L15,12 L15,13 L17,13 L17,12 L16,12 L16,10 L17,10 L17,4 L14,4 L14,3 L13,3 L13,2 L12,2 L12,1 L4,1 L4,4 L2,4 L2,6 L1,6 L1,4 L-2,4 L-2,3 L-3,3 L-3,2 L0,2 Z " fill="#314D9E" transform="translate(118,165)"/>
<path d="M0,0 L1,0 L1,4 L0,4 L0,7 L2,7 L2,9 L1,9 L1,11 L0,11 L0,14 L1,14 L1,13 L2,13 L2,10 L3,10 L3,14 L2,14 L2,17 L1,17 L1,21 L0,21 L0,23 L-2,23 L-2,26 L-3,26 L-3,31 L-4,31 L-4,8 L-3,8 L-3,6 L-2,6 L-2,4 L-1,4 L-1,2 L0,2 Z " fill="#BE9172" transform="translate(4,61)"/>
<path d="M0,0 L2,0 L2,1 L5,1 L5,2 L7,2 L7,3 L8,3 L8,6 L7,6 L7,7 L6,7 L6,8 L5,8 L5,10 L4,10 L4,12 L3,12 L3,11 L1,11 L1,14 L0,14 L0,17 L-2,17 L-2,10 L-1,10 L-1,8 L-2,8 L-2,7 L-6,7 L-6,6 L-5,6 L-5,5 L-4,5 L-4,4 L-3,4 L-3,3 L-2,3 L-2,2 L-1,2 L-1,1 L0,1 Z " fill="#F6F8EB" transform="translate(79,49)"/>
<path d="M0,0 L11,0 L11,1 L16,1 L16,2 L19,2 L19,3 L20,3 L20,4 L22,4 L22,6 L26,6 L26,9 L27,9 L27,10 L28,10 L28,12 L29,12 L29,14 L30,14 L30,15 L31,15 L31,18 L30,18 L30,17 L29,17 L29,15 L28,15 L28,14 L27,14 L27,12 L26,12 L26,11 L25,11 L25,10 L24,10 L24,9 L23,9 L23,8 L22,8 L22,7 L21,7 L21,6 L20,6 L20,5 L18,5 L18,4 L16,4 L16,3 L14,3 L14,2 L0,2 L0,3 L-3,3 L-3,4 L-5,4 L-5,5 L-7,5 L-7,6 L-8,6 L-8,7 L-9,7 L-9,8 L-10,8 L-10,9 L-11,9 L-11,10 L-12,10 L-12,11 L-13,11 L-13,7 L-12,7 L-12,6 L-10,6 L-10,4 L-8,4 L-8,3 L-5,3 L-5,2 L-3,2 L-3,1 L0,1 Z " fill="#7BD6E6" transform="translate(111,11)"/>
<path d="M0,0 L4,0 L4,1 L5,1 L5,3 L4,3 L4,5 L3,5 L3,8 L2,8 L2,11 L1,11 L1,13 L0,13 L0,14 L-1,14 L-1,15 L-2,15 L-2,14 L-4,14 L-4,13 L-5,13 L-5,11 L-6,11 L-6,10 L-7,10 L-7,7 L-6,7 L-6,5 L-5,5 L-5,4 L-4,4 L-4,3 L-3,3 L-3,2 L-2,2 L-2,1 L0,1 Z " fill="#E46417" transform="translate(11,178)"/>
<path d="M0,0 L4,0 L4,3 L3,3 L3,8 L4,8 L4,7 L6,7 L6,22 L3,22 L3,18 L2,18 L2,16 L1,16 L1,14 L0,14 L0,13 L-1,13 L-1,1 L0,1 Z " fill="#EDC75A" transform="translate(194,148)"/>
<path d="M0,0 L17,0 L17,7 L4,7 L4,6 L3,6 L3,5 L2,5 L2,3 L1,3 L1,2 L0,2 Z " fill="#3BBAEE" transform="translate(37,142)"/>
<path d="M0,0 L8,0 L8,1 L7,1 L7,2 L10,2 L10,1 L15,1 L15,2 L20,2 L20,3 L25,3 L25,4 L27,4 L27,6 L28,6 L28,5 L31,5 L31,6 L32,6 L32,8 L33,8 L33,10 L30,10 L30,11 L28,11 L28,12 L26,12 L26,11 L27,11 L27,7 L24,7 L24,6 L21,6 L21,5 L14,5 L14,4 L9,4 L9,3 L3,3 L3,2 L-1,2 L-1,1 L0,1 Z " fill="#90809B" transform="translate(26,164)"/>
<path d="M0,0 L5,0 L5,2 L6,2 L6,3 L7,3 L7,5 L8,5 L8,7 L9,7 L9,9 L6,9 L6,10 L7,10 L7,12 L1,12 L1,13 L-6,13 L-6,12 L-5,12 L-5,11 L-3,11 L-3,10 L-1,10 L-1,9 L1,9 L1,7 L-4,7 L-4,5 L0,5 Z " fill="#E3427C" transform="translate(74,80)"/>
<path d="M0,0 L1,0 L1,3 L3,3 L3,4 L11,4 L11,3 L12,3 L12,8 L11,8 L11,16 L9,16 L9,15 L10,15 L10,9 L8,9 L8,10 L4,10 L4,11 L3,11 L3,12 L2,12 L2,14 L1,14 L1,16 L0,16 L0,15 L-1,15 L-1,13 L0,13 L0,11 L-1,11 L-1,3 L0,3 Z " fill="#666596" transform="translate(111,174)"/>
<path d="M0,0 L1,0 L1,12 L2,12 L2,19 L3,19 L3,28 L2,28 L2,27 L0,27 L0,23 L-1,23 L-1,18 L-2,18 L-2,13 L-3,13 L-3,3 L-4,3 L-4,2 L-5,2 L-5,1 L0,1 Z " fill="#2F2860" transform="translate(84,103)"/>
<path d="M0,0 L2,0 L2,2 L3,2 L3,7 L-1,7 L-1,9 L-2,9 L-2,11 L-1,11 L-1,12 L0,12 L0,13 L1,13 L1,17 L-1,17 L-1,16 L-3,16 L-3,15 L-5,15 L-5,14 L-6,14 L-6,10 L-7,10 L-7,9 L-8,9 L-8,8 L-12,8 L-12,7 L-16,7 L-16,6 L-19,6 L-19,5 L-22,5 L-22,1 L-21,1 L-21,2 L-19,2 L-19,3 L-17,3 L-17,4 L-15,4 L-15,5 L-13,5 L-13,6 L-11,6 L-11,7 L-7,7 L-7,8 L-5,8 L-5,7 L-4,7 L-4,6 L-1,6 L-1,5 L0,5 L0,3 L1,3 L1,2 L0,2 Z " fill="#D2AF82" transform="translate(22,94)"/>
<path d="M0,0 L1,0 L1,3 L2,3 L2,4 L3,4 L3,5 L7,5 L7,6 L6,6 L6,7 L2,7 L2,10 L1,10 L1,9 L-1,9 L-1,12 L-2,12 L-2,23 L-5,23 L-5,22 L-7,22 L-7,21 L-8,21 L-8,19 L-7,19 L-7,20 L-6,20 L-6,21 L-4,21 L-4,19 L-3,19 L-3,14 L-7,14 L-7,5 L-8,5 L-8,6 L-9,6 L-9,8 L-10,8 L-10,7 L-11,7 L-11,8 L-13,8 L-13,7 L-14,7 L-14,5 L-9,5 L-9,4 L-8,4 L-8,3 L-7,3 L-7,2 L-6,2 L-6,6 L-5,6 L-5,7 L-4,7 L-4,8 L0,8 L0,7 L1,7 L1,4 L0,4 L0,2 L-1,2 L-1,1 L0,1 Z " fill="#4C5352" transform="translate(171,81)"/>
<path d="M0,0 L1,0 L1,3 L0,3 L0,10 L1,10 L1,11 L2,11 L2,4 L3,4 L3,6 L4,6 L4,24 L3,24 L3,28 L2,28 L2,25 L0,25 L0,24 L2,24 L2,22 L1,22 L1,21 L0,21 L0,19 L1,19 L1,15 L0,15 L0,12 L-1,12 L-1,14 L-2,14 L-2,18 L-3,18 L-3,21 L-4,21 L-4,22 L-5,22 L-5,28 L-6,28 L-6,21 L-5,21 L-5,20 L-4,20 L-4,15 L-3,15 L-3,11 L-2,11 L-2,6 L-1,6 L-1,2 L0,2 Z " fill="#436FA1" transform="translate(50,57)"/>
<path d="M0,0 L9,0 L9,1 L10,1 L10,5 L11,5 L11,10 L0,10 Z " fill="#35CBED" transform="translate(68,142)"/>
<path d="M0,0 L2,0 L2,1 L1,1 L1,2 L0,2 L0,3 L-1,3 L-1,5 L0,5 L0,6 L1,6 L1,7 L2,7 L2,8 L5,8 L5,6 L9,6 L9,5 L10,5 L10,14 L11,14 L11,15 L12,15 L12,16 L14,16 L14,15 L21,15 L21,14 L22,14 L22,13 L23,13 L23,12 L24,12 L24,11 L25,11 L25,10 L26,10 L26,12 L25,12 L25,13 L24,13 L24,14 L23,14 L23,15 L22,15 L22,16 L20,16 L20,17 L17,17 L17,18 L13,18 L13,17 L11,17 L11,24 L10,24 L10,16 L9,16 L9,8 L7,8 L7,9 L2,9 L2,10 L1,10 L1,9 L0,9 L0,8 L-1,8 L-1,7 L-2,7 L-2,6 L-3,6 L-3,5 L-5,5 L-5,6 L-7,6 L-7,7 L-11,7 L-11,6 L-8,6 L-8,5 L-7,5 L-7,4 L-5,4 L-5,3 L-4,3 L-4,2 L-2,2 L-2,1 L0,1 Z " fill="#4F3756" transform="translate(77,95)"/>
<path d="M0,0 L4,0 L4,1 L9,1 L9,2 L12,2 L12,3 L18,3 L18,4 L19,4 L19,6 L-5,6 L-5,3 L-4,3 L-4,2 L-2,2 L-2,1 L0,1 Z " fill="#6E9548" transform="translate(52,194)"/>
<path d="M0,0 L2,0 L2,1 L4,1 L4,2 L6,2 L6,5 L10,5 L10,6 L12,6 L12,5 L15,5 L15,3 L13,3 L13,1 L15,1 L15,2 L16,2 L16,3 L17,3 L17,5 L18,5 L18,7 L19,7 L19,9 L20,9 L20,12 L17,12 L17,11 L15,11 L15,10 L14,10 L14,9 L12,9 L12,8 L11,8 L11,7 L9,7 L9,6 L5,6 L5,7 L0,7 L0,6 L-1,6 L-1,5 L-2,5 L-2,2 L-1,2 L-1,1 L0,1 Z " fill="#7B6F58" transform="translate(174,79)"/>
<path d="M0,0 L3,0 L3,1 L5,1 L5,2 L1,2 L1,3 L0,3 L0,5 L-3,5 L-3,6 L-5,6 L-5,7 L-7,7 L-7,8 L-8,8 L-8,9 L-9,9 L-9,10 L-10,10 L-10,11 L-14,11 L-14,12 L-19,12 L-19,13 L-13,13 L-13,15 L-21,15 L-21,14 L-22,14 L-22,13 L-23,13 L-23,12 L-20,12 L-20,11 L-22,11 L-22,10 L-21,10 L-21,9 L-20,9 L-20,8 L-19,8 L-19,7 L-13,7 L-13,8 L-9,8 L-9,7 L-8,7 L-8,5 L-4,5 L-4,4 L-3,4 L-3,3 L-2,3 L-2,2 L-1,2 L-1,1 L0,1 Z " fill="#CAC9D2" transform="translate(59,176)"/>
<path d="M0,0 L1,0 L1,2 L2,2 L2,7 L4,7 L4,8 L3,8 L3,9 L1,9 L1,10 L-2,10 L-2,11 L-6,11 L-6,12 L-24,12 L-24,11 L-26,11 L-26,10 L-28,10 L-28,9 L-25,9 L-25,10 L-23,10 L-23,11 L-7,11 L-7,5 L-5,5 L-5,4 L-4,4 L-4,3 L-3,3 L-3,2 L-1,2 L-1,1 L0,1 Z " fill="#A92C5E" transform="translate(187,171)"/>
<path d="M0,0 L2,0 L2,4 L6,4 L6,5 L5,5 L5,6 L4,6 L4,8 L5,8 L5,13 L4,13 L4,15 L3,15 L3,17 L2,17 L2,25 L3,25 L3,27 L4,27 L4,29 L1,29 L1,30 L0,30 Z " fill="#E7A74D" transform="translate(0,162)"/>
<path d="M0,0 L4,0 L4,1 L1,1 L1,2 L-2,2 L-2,3 L-4,3 L-4,5 L-2,5 L-2,6 L-1,6 L-1,7 L0,7 L0,11 L-2,11 L-2,8 L-3,8 L-3,7 L-5,7 L-5,6 L-8,6 L-8,7 L-9,7 L-9,8 L-10,8 L-10,9 L-11,9 L-11,10 L-10,10 L-10,11 L-9,11 L-9,19 L-7,19 L-7,18 L-6,18 L-6,22 L-5,22 L-5,23 L-9,23 L-9,22 L-10,22 L-10,21 L-11,21 L-11,19 L-12,19 L-12,17 L-13,17 L-13,10 L-12,10 L-12,8 L-11,8 L-11,7 L-10,7 L-10,6 L-9,6 L-9,5 L-8,5 L-8,4 L-7,4 L-7,3 L-5,3 L-5,2 L-3,2 L-3,1 L0,1 Z " fill="#C05B69" transform="translate(166,157)"/>
<path d="M0,0 L2,0 L2,1 L4,1 L4,2 L6,2 L6,3 L8,3 L8,4 L7,4 L7,5 L4,5 L4,6 L-6,6 L-6,7 L-14,7 L-14,8 L-15,8 L-15,2 L-4,2 L-4,5 L-2,5 L-2,1 L0,1 Z " fill="#774792" transform="translate(15,108)"/>
<path d="M0,0 L8,0 L8,1 L7,1 L7,2 L5,2 L5,5 L4,5 L4,6 L0,6 L0,11 L3,11 L3,12 L17,12 L17,14 L-2,14 L-2,1 L0,1 Z " fill="#70EBE5" transform="translate(56,66)"/>
<path d="M0,0 L3,0 L3,19 L1,19 L1,18 L0,18 L0,17 L-2,17 L-2,15 L-3,15 L-3,11 L-2,11 L-2,10 L-3,10 L-3,4 L-2,4 L-2,2 L0,2 Z " fill="#838D86" transform="translate(197,174)"/>
<path d="M0,0 L3,0 L3,2 L9,2 L9,3 L7,3 L7,4 L6,4 L6,5 L10,5 L10,6 L16,6 L16,7 L8,7 L8,11 L7,11 L7,17 L6,17 L6,16 L5,16 L5,15 L4,15 L4,14 L-5,14 L-5,13 L2,13 L2,12 L0,12 L0,11 L-2,11 L-2,10 L1,10 L1,11 L3,11 L3,12 L4,12 L4,13 L5,13 L5,14 L6,14 L6,7 L4,7 L4,8 L-1,8 L-1,7 L1,7 L1,6 L-1,6 L-1,5 L1,5 L1,4 L-1,4 L-1,1 L0,1 Z " fill="#696349" transform="translate(19,161)"/>
<path d="M0,0 L11,0 L11,1 L9,1 L9,2 L6,2 L6,3 L0,3 L0,4 L-3,4 L-3,5 L-7,5 L-7,6 L-10,6 L-10,7 L-12,7 L-12,8 L-16,8 L-16,9 L-17,9 L-17,3 L-13,3 L-13,2 L-3,2 L-3,1 L0,1 Z " fill="#D8FAC9" transform="translate(173,150)"/>
<path d="M0,0 L1,0 L1,7 L2,7 L2,10 L0,10 L0,9 L-1,9 L-1,8 L-11,8 L-11,9 L-14,9 L-14,10 L-17,10 L-17,9 L-18,9 L-18,8 L-17,8 L-17,7 L-15,7 L-15,6 L-13,6 L-13,5 L-11,5 L-11,4 L-8,4 L-8,3 L-6,3 L-6,2 L-2,2 L-2,1 L0,1 Z " fill="#C6CFE6" transform="translate(141,128)"/>
<path d="M0,0 L1,0 L1,3 L2,3 L2,7 L1,7 L1,9 L2,9 L2,10 L3,10 L3,12 L1,12 L1,13 L3,13 L3,20 L-1,20 L-1,21 L-3,21 L-3,18 L-4,18 L-4,10 L-3,10 L-3,9 L-2,9 L-2,6 L-1,6 L-1,2 L0,2 Z " fill="#A3BED9" transform="translate(49,69)"/>
<path d="M0,0 L1,0 L1,8 L2,8 L2,23 L1,23 L1,24 L0,24 L0,25 L-2,25 L-2,26 L-3,26 L-3,27 L-4,27 L-4,26 L-6,26 L-6,25 L-4,25 L-4,24 L-5,24 L-5,23 L-2,23 L-2,19 L-1,19 L-1,17 L-3,17 L-3,19 L-5,19 L-5,14 L-3,14 L-3,12 L-7,12 L-7,11 L-1,11 L-1,10 L1,10 L1,9 L0,9 Z " fill="#504B89" transform="translate(139,168)"/>
<path d="M0,0 L10,0 L10,2 L11,2 L11,4 L10,4 L10,5 L9,5 L9,6 L8,6 L8,7 L6,7 L6,8 L3,8 L3,7 L-1,7 L-1,9 L0,9 L0,10 L1,10 L1,13 L0,13 L0,14 L-2,14 L-2,12 L-3,12 L-3,10 L-2,10 L-2,6 L-1,6 L-1,5 L0,5 L0,4 L2,4 L2,3 L4,3 L4,2 L1,2 L1,3 L-1,3 L-1,4 L-3,4 L-3,2 L-2,2 L-2,1 L0,1 Z " fill="#CFD01C" transform="translate(33,22)"/>
<path d="M0,0 L4,0 L4,4 L6,4 L6,6 L4,6 L4,7 L9,7 L9,6 L14,6 L14,7 L13,7 L13,9 L12,9 L12,10 L18,10 L18,11 L16,11 L16,12 L6,12 L6,11 L4,11 L4,10 L3,10 L3,9 L2,9 L2,8 L1,8 L1,6 L0,6 Z " fill="#E3DBC4" transform="translate(111,121)"/>
<path d="M0,0 L3,0 L3,1 L2,1 L2,2 L1,2 L1,3 L0,3 L0,4 L-1,4 L-1,5 L-2,5 L-2,6 L-3,6 L-3,7 L-5,7 L-5,8 L-9,8 L-9,9 L-11,9 L-11,10 L-14,10 L-14,8 L-16,8 L-16,5 L-15,5 L-15,2 L-4,2 L-4,4 L-5,4 L-5,5 L-3,5 L-3,3 L-2,3 L-2,2 L-1,2 L-1,1 L0,1 Z " fill="#C8A190" transform="translate(76,49)"/>
<path d="M0,0 L20,0 L20,1 L13,1 L13,2 L11,2 L11,4 L10,4 L10,7 L9,7 L9,6 L8,6 L8,4 L7,4 L7,3 L5,3 L5,4 L4,4 L4,7 L2,7 L2,9 L1,9 L1,10 L0,10 L0,11 L-1,11 L-1,12 L-2,12 L-2,5 L-1,5 L-1,2 L0,2 Z " fill="#3BB7D3" transform="translate(143,144)"/>
<path d="M0,0 L2,0 L2,3 L3,3 L3,5 L9,5 L9,4 L10,4 L10,3 L11,3 L11,2 L14,2 L14,3 L15,3 L15,4 L16,4 L16,5 L17,5 L17,6 L18,6 L18,13 L16,13 L16,12 L15,12 L15,11 L12,11 L12,10 L10,10 L10,7 L9,7 L9,6 L4,6 L4,7 L1,7 L1,6 L0,6 Z " fill="#EF9A24" transform="translate(120,110)"/>
<path d="M0,0 L9,0 L9,1 L10,1 L10,4 L13,4 L13,5 L11,5 L11,7 L12,7 L12,8 L9,8 L9,7 L8,7 L8,13 L7,13 L7,12 L6,12 L6,11 L5,11 L5,8 L4,8 L4,7 L3,7 L3,6 L2,6 L2,7 L1,7 L1,5 L-1,5 L-1,4 L0,4 Z " fill="#6FA7CC" transform="translate(139,0)"/>
<path d="M0,0 L3,0 L3,1 L4,1 L4,2 L6,2 L6,4 L5,4 L5,3 L2,3 L2,4 L0,4 L0,5 L-1,5 L-1,6 L-2,6 L-2,7 L-1,7 L-1,8 L-2,8 L-2,9 L0,9 L0,8 L2,8 L2,9 L3,9 L3,11 L4,11 L4,12 L5,12 L5,15 L-4,15 L-4,14 L-5,14 L-5,8 L-4,8 L-4,6 L-3,6 L-3,4 L-2,4 L-2,2 L-1,2 L-1,1 L0,1 Z " fill="#E1E4E3" transform="translate(110,137)"/>
<path d="M0,0 L3,0 L3,1 L4,1 L4,2 L5,2 L5,4 L6,4 L6,8 L5,8 L5,9 L4,9 L4,10 L-5,10 L-5,9 L-6,9 L-6,8 L-7,8 L-7,7 L-9,7 L-9,6 L-5,6 L-5,5 L-3,5 L-3,4 L-2,4 L-2,2 L-1,2 L-1,1 L0,1 Z " fill="#F5C668" transform="translate(97,95)"/>
<path d="M0,0 L17,0 L17,1 L16,1 L16,2 L17,2 L17,4 L18,4 L18,6 L16,6 L16,4 L14,4 L14,5 L15,5 L15,9 L13,9 L13,8 L10,8 L10,7 L8,7 L8,6 L6,6 L6,3 L5,3 L5,2 L2,2 L2,1 L0,1 Z " fill="#F8E063" transform="translate(173,184)"/>
<path d="M0,0 L5,0 L5,1 L7,1 L7,2 L9,2 L9,3 L7,3 L7,5 L8,5 L8,13 L9,13 L9,14 L10,14 L10,16 L11,16 L11,17 L10,17 L10,18 L9,18 L9,20 L8,20 L8,21 L7,21 L7,22 L6,22 L6,23 L5,23 L5,25 L7,25 L7,26 L5,26 L5,27 L3,27 L3,23 L4,23 L4,22 L5,22 L5,21 L6,21 L6,20 L7,20 L7,19 L8,19 L8,16 L9,16 L9,15 L8,15 L8,14 L7,14 L7,6 L6,6 L6,4 L5,4 L5,3 L4,3 L4,2 L3,2 L3,3 L2,3 L2,9 L-3,9 L-3,7 L-2,7 L-2,2 L0,2 Z " fill="#464177" transform="translate(120,169)"/>
<path d="M0,0 L26,0 L26,1 L10,1 L10,2 L9,2 L9,1 L3,1 L3,3 L4,3 L4,5 L5,5 L5,6 L6,6 L6,8 L7,8 L7,10 L8,10 L8,11 L9,11 L9,13 L10,13 L10,15 L9,15 L9,14 L8,14 L8,12 L6,12 L6,13 L7,13 L7,15 L8,15 L8,17 L9,17 L9,19 L8,19 L8,18 L7,18 L7,16 L6,16 L6,14 L5,14 L5,12 L4,12 L4,10 L3,10 L3,9 L2,9 L2,7 L1,7 L1,5 L0,5 Z " fill="#983752" transform="translate(6,136)"/>
<path d="M0,0 L8,0 L8,1 L9,1 L9,2 L10,2 L10,3 L11,3 L11,4 L13,4 L13,5 L14,5 L14,6 L15,6 L15,7 L16,7 L16,8 L17,8 L17,9 L18,9 L18,14 L17,14 L17,15 L12,15 L12,14 L11,14 L11,13 L16,13 L16,11 L15,11 L15,10 L14,10 L14,9 L13,9 L13,8 L12,8 L12,7 L10,7 L10,6 L9,6 L9,5 L7,5 L7,4 L6,4 L6,3 L4,3 L4,2 L1,2 L1,5 L2,5 L2,6 L3,6 L3,7 L1,7 L1,6 L0,6 L0,5 L-1,5 L-1,1 L0,1 Z " fill="#BBC24D" transform="translate(70,10)"/>
<path d="M0,0 L1,0 L1,14 L0,14 L0,9 L-4,9 L-4,10 L-12,10 L-12,8 L-13,8 L-13,7 L-14,7 L-14,5 L-7,5 L-7,4 L-3,4 L-3,3 L0,3 Z " fill="#F3EB7C" transform="translate(109,160)"/>
<path d="M0,0 L11,0 L11,5 L8,5 L8,6 L4,6 L4,7 L-3,7 L-3,1 L0,1 Z " fill="#EAFAC6" transform="translate(98,158)"/>
<path d="M0,0 L2,0 L2,1 L3,1 L3,2 L4,2 L4,3 L3,3 L3,7 L2,7 L2,8 L1,8 L1,10 L-1,10 L-1,12 L-2,12 L-2,17 L-4,17 L-4,20 L-5,20 L-5,21 L-6,21 L-6,18 L-5,18 L-5,16 L-4,16 L-4,14 L-6,14 L-6,11 L-5,11 L-5,7 L-4,7 L-4,6 L-3,6 L-3,4 L-2,4 L-2,3 L-1,3 L-1,1 L0,1 Z " fill="#CD8756" transform="translate(10,54)"/>
<path d="M0,0 L2,0 L2,3 L1,3 L1,5 L0,5 L0,7 L-1,7 L-1,10 L-2,10 L-2,12 L-3,12 L-3,13 L-4,13 L-4,14 L-6,14 L-6,15 L-15,15 L-15,14 L-16,14 L-16,12 L-15,12 L-15,11 L-14,11 L-14,10 L-12,10 L-12,9 L-9,9 L-9,10 L-4,10 L-4,8 L-3,8 L-3,7 L-2,7 L-2,6 L-1,6 L-1,3 L0,3 Z " fill="#D6D6D6" transform="translate(94,180)"/>
<path d="M0,0 L8,0 L8,1 L9,1 L9,2 L10,2 L10,3 L13,3 L13,9 L12,9 L12,11 L13,11 L13,12 L11,12 L11,11 L9,11 L9,10 L8,10 L8,9 L7,9 L7,8 L5,8 L5,6 L7,6 L7,5 L5,5 L5,4 L3,4 L3,3 L0,3 Z " fill="#2F96DF" transform="translate(122,166)"/>
<path d="M0,0 L1,0 L1,2 L3,2 L3,10 L4,10 L4,21 L3,21 L3,32 L0,32 L0,26 L1,26 L1,5 L0,5 Z " fill="#F1B858" transform="translate(185,125)"/>
<path d="M0,0 L4,0 L4,2 L3,2 L3,6 L2,6 L2,21 L-1,21 L-1,20 L-2,20 L-2,6 L-1,6 L-1,3 L0,3 Z " fill="#DAAB84" transform="translate(12,114)"/>
<path d="M0,0 L1,0 L1,1 L3,1 L3,2 L4,2 L4,3 L5,3 L5,4 L14,4 L14,3 L15,3 L15,2 L16,2 L16,4 L15,4 L15,5 L14,5 L14,6 L13,6 L13,7 L12,7 L12,8 L11,8 L11,9 L4,9 L4,10 L2,10 L2,9 L1,9 L1,8 L0,8 Z " fill="#E37D40" transform="translate(87,101)"/>
<path d="M0,0 L2,0 L2,1 L5,1 L5,2 L6,2 L6,4 L7,4 L7,7 L8,7 L8,9 L6,9 L6,10 L3,10 L3,14 L6,14 L6,15 L-1,15 L-1,13 L0,13 Z " fill="#3B9BE4" transform="translate(74,65)"/>
<path d="M0,0 L1,0 L1,1 L2,1 L2,2 L3,2 L3,4 L4,4 L4,12 L5,12 L5,13 L6,13 L6,14 L5,14 L5,17 L4,17 L4,18 L0,18 L0,16 L-1,16 L-1,11 L0,11 L0,6 L-1,6 L-1,1 L0,1 Z " fill="#EFD861" transform="translate(123,171)"/>
<path d="M0,0 L1,0 L1,2 L2,2 L2,1 L3,1 L3,4 L5,4 L5,5 L4,5 L4,11 L5,11 L5,16 L6,16 L6,17 L7,17 L7,15 L8,15 L8,14 L9,14 L9,13 L11,13 L11,14 L12,14 L12,15 L13,15 L13,16 L14,16 L14,17 L12,17 L12,16 L9,16 L9,17 L8,17 L8,19 L9,19 L9,21 L8,21 L8,26 L9,26 L9,35 L8,35 L8,31 L7,31 L7,23 L6,23 L6,19 L5,19 L5,17 L4,17 L4,14 L3,14 L3,9 L2,9 L2,5 L1,5 L1,3 L0,3 Z " fill="#42456F" transform="translate(43,86)"/>
<path d="M0,0 L4,0 L4,1 L2,1 L2,2 L-4,2 L-4,3 L-5,3 L-5,4 L-6,4 L-6,5 L-7,5 L-7,7 L-9,7 L-9,6 L-8,6 L-8,4 L-19,4 L-19,7 L-20,7 L-20,10 L-18,10 L-18,12 L-15,12 L-15,11 L-13,11 L-13,10 L-10,10 L-10,11 L-11,11 L-11,12 L-12,12 L-12,13 L-14,13 L-14,14 L-19,14 L-19,13 L-20,13 L-20,12 L-21,12 L-21,11 L-22,11 L-22,5 L-24,5 L-24,4 L-23,4 L-23,3 L-22,3 L-22,4 L-21,4 L-21,5 L-20,5 L-20,3 L-8,3 L-8,2 L-7,2 L-7,1 L0,1 Z " fill="#815659" transform="translate(80,47)"/>
<path d="M0,0 L1,0 L1,5 L0,5 L0,9 L2,9 L2,10 L3,10 L3,11 L5,11 L5,12 L13,12 L13,11 L16,11 L16,12 L14,12 L14,13 L4,13 L4,12 L2,12 L2,11 L1,11 L1,10 L-1,10 L-1,12 L0,12 L0,13 L1,13 L1,14 L0,14 L0,15 L-1,15 L-1,16 L-2,16 L-2,18 L-3,18 L-3,17 L-4,17 L-4,12 L-5,12 L-5,6 L-4,6 L-4,4 L0,4 Z " fill="#A47370" transform="translate(52,85)"/>
<path d="M0,0 L11,0 L11,1 L13,1 L13,2 L15,2 L15,3 L16,3 L16,4 L17,4 L17,5 L18,5 L18,6 L19,6 L19,7 L20,7 L20,8 L21,8 L21,14 L22,14 L22,24 L21,24 L21,19 L20,19 L20,14 L19,14 L19,11 L18,11 L18,10 L17,10 L17,9 L16,9 L16,8 L15,8 L15,6 L14,6 L14,5 L13,5 L13,4 L11,4 L11,3 L8,3 L8,2 L6,2 L6,1 L0,1 Z " fill="#D2C54F" transform="translate(22,44)"/>
<path d="M0,0 L1,0 L1,4 L0,4 L0,6 L1,6 L1,8 L2,8 L2,9 L1,9 L1,10 L-1,10 L-1,11 L-3,11 L-3,12 L-5,12 L-5,13 L-6,13 L-6,14 L-9,14 L-9,15 L-11,15 L-11,13 L-10,13 L-10,11 L-9,11 L-9,10 L-8,10 L-8,8 L-7,8 L-7,7 L-6,7 L-6,6 L-5,6 L-5,5 L-4,5 L-4,4 L-3,4 L-3,3 L-2,3 L-2,2 L-1,2 L-1,1 L0,1 Z " fill="#A3BA10" transform="translate(30,28)"/>
<path d="M0,0 L2,0 L2,1 L5,1 L5,2 L9,2 L9,3 L11,3 L11,4 L12,4 L12,6 L13,6 L13,11 L14,11 L14,14 L15,14 L15,17 L11,17 L11,13 L10,13 L10,9 L9,9 L9,6 L7,6 L7,7 L5,7 L5,4 L4,4 L4,3 L2,3 L2,2 L-1,2 L-1,1 L0,1 Z " fill="#BBAAA0" transform="translate(82,48)"/>
<path d="M0,0 L3,0 L3,1 L4,1 L4,2 L7,2 L7,3 L8,3 L8,4 L9,4 L9,7 L10,7 L10,10 L1,10 L1,9 L0,9 Z " fill="#F5F7D6" transform="translate(67,132)"/>
<path d="M0,0 L10,0 L10,1 L9,1 L9,4 L8,4 L8,6 L3,6 L3,9 L2,9 L2,11 L1,11 L1,12 L-1,12 L-1,1 L0,1 Z " fill="#B3F0D0" transform="translate(1,115)"/>
<path d="M0,0 L1,0 L1,5 L2,5 L2,7 L3,7 L3,10 L4,10 L4,15 L6,15 L6,16 L5,16 L5,18 L4,18 L4,19 L3,19 L3,13 L2,13 L2,16 L1,16 L1,17 L-2,17 L-2,16 L-5,16 L-5,12 L-2,12 L-2,11 L0,11 L0,9 L-1,9 L-1,6 L-2,6 L-2,4 L0,4 Z " fill="#3257AF" transform="translate(82,63)"/>
<path d="M0,0 L5,0 L5,2 L2,2 L2,3 L3,3 L3,4 L6,4 L6,6 L5,6 L5,11 L4,11 L4,13 L1,13 L1,12 L-1,12 L-1,9 L-2,9 L-2,2 L-1,2 L-1,1 L0,1 Z " fill="#3392DE" transform="translate(113,165)"/>
<path d="M0,0 L1,0 L1,4 L2,4 L2,6 L6,6 L6,7 L10,7 L10,8 L15,8 L15,5 L16,5 L16,9 L15,9 L15,10 L13,10 L13,14 L11,14 L11,11 L0,11 Z " fill="#74316D" transform="translate(0,99)"/>
<path d="M0,0 L2,0 L2,1 L3,1 L3,8 L2,8 L2,11 L1,11 L1,12 L0,12 L0,13 L-1,13 L-1,14 L-2,14 L-2,15 L-3,15 L-3,16 L-6,16 L-6,17 L-12,17 L-12,15 L-13,15 L-13,14 L-8,14 L-8,13 L-7,13 L-7,12 L-4,12 L-4,11 L-3,11 L-3,10 L-2,10 L-2,9 L-1,9 L-1,8 L0,8 L0,7 L1,7 L1,3 L0,3 Z " fill="#7F6D8F" transform="translate(153,151)"/>
<path d="M0,0 L1,0 L1,1 L2,1 L2,2 L1,2 L1,3 L3,3 L3,4 L4,4 L4,5 L5,5 L5,4 L7,4 L7,2 L8,2 L8,5 L10,5 L10,6 L8,6 L8,7 L1,7 L1,8 L0,8 L0,9 L-12,9 L-12,11 L-13,11 L-13,10 L-14,10 L-14,9 L-13,9 L-13,8 L-2,8 L-2,7 L-5,7 L-5,6 L-6,6 L-6,5 L-2,5 L-2,4 L-7,4 L-7,3 L-3,3 L-3,2 L0,2 Z " fill="#573620" transform="translate(72,41)"/>
<path d="M0,0 L1,0 L1,2 L2,2 L2,3 L3,3 L3,4 L5,4 L5,5 L6,5 L6,7 L3,7 L3,8 L6,8 L6,9 L4,9 L4,10 L2,10 L2,11 L1,11 L1,12 L-1,12 L-1,13 L-2,13 L-2,14 L-3,14 L-3,15 L-4,15 L-4,17 L-5,17 L-5,21 L-6,21 L-6,26 L-7,26 L-7,16 L-6,16 L-6,14 L-5,14 L-5,12 L-4,12 L-4,11 L-2,11 L-2,10 L-1,10 L-1,9 L0,9 Z " fill="#BEC384" transform="translate(155,72)"/>
<path d="M0,0 L1,0 L1,34 L0,34 L0,36 L-1,36 L-1,23 L-3,23 L-3,24 L-5,24 L-5,21 L-3,21 L-3,22 L0,22 L0,19 L-1,19 L-1,17 L-2,17 L-2,16 L-1,16 L-1,1 L0,1 Z " fill="#6D9ACF" transform="translate(194,69)"/>
<path d="M0,0 L2,0 L2,1 L3,1 L3,2 L4,2 L4,4 L5,4 L5,8 L16,8 L16,9 L15,9 L15,11 L8,11 L8,12 L5,12 L5,11 L2,11 L2,10 L1,10 L1,9 L2,9 L2,5 L1,5 L1,4 L0,4 L0,3 L-2,3 L-2,1 L0,1 Z " fill="#C4A38A" transform="translate(164,159)"/>
<path d="M0,0 L6,0 L6,9 L7,9 L7,0 L8,0 L8,11 L5,11 L5,10 L0,10 Z " fill="#ABCBCC" transform="translate(155,52)"/>
<path d="M0,0 L11,0 L11,1 L12,1 L12,6 L13,6 L13,7 L9,7 L9,6 L2,6 L2,5 L0,5 Z " fill="#7CF1CD" transform="translate(68,152)"/>
<path d="M0,0 L6,0 L6,1 L7,1 L7,3 L8,3 L8,4 L9,4 L9,6 L10,6 L10,7 L11,7 L11,9 L12,9 L12,11 L6,11 L6,10 L5,10 L5,9 L4,9 L4,7 L3,7 L3,5 L2,5 L2,4 L1,4 L1,2 L0,2 Z " fill="#F8942D" transform="translate(9,137)"/>
<path d="M0,0 L3,0 L3,1 L4,1 L4,4 L5,4 L5,3 L6,3 L6,5 L11,5 L11,7 L10,7 L10,10 L7,10 L7,9 L6,9 L6,14 L4,14 L4,15 L2,15 L2,13 L0,13 L0,12 L3,12 L3,10 L2,10 L2,9 L3,9 L3,6 L2,6 L2,3 L1,3 L1,1 L0,1 Z " fill="#D46E5D" transform="translate(184,112)"/>
<path d="M0,0 L2,0 L2,2 L3,2 L3,8 L4,8 L4,14 L3,14 L3,17 L1,17 L1,19 L2,19 L2,20 L4,20 L4,19 L5,19 L5,21 L2,21 L2,22 L-1,22 L-1,23 L-3,23 L-3,24 L-5,24 L-5,23 L-4,23 L-4,21 L-3,21 L-3,20 L-2,20 L-2,18 L-1,18 L-1,16 L0,16 L0,15 L1,15 L1,2 L0,2 Z " fill="#7BD6E6" transform="translate(141,29)"/>
<path d="M0,0 L3,0 L3,1 L5,1 L5,2 L6,2 L6,7 L5,7 L5,8 L4,8 L4,9 L3,9 L3,10 L2,10 L2,12 L1,12 L1,13 L-1,13 L-1,5 L-2,5 L-2,4 L-3,4 L-3,3 L-2,3 L-2,2 L-1,2 L-1,1 L0,1 Z " fill="#F3D9B3" transform="translate(158,163)"/>
<path d="M0,0 L13,0 L13,6 L3,6 L3,5 L2,5 L2,3 L1,3 L1,2 L0,2 Z " fill="#6CE8D3" transform="translate(42,149)"/>
<path d="M0,0 L1,0 L1,37 L0,37 L0,33 L-1,33 L-1,3 L-2,3 L-2,2 L-1,2 L-1,1 L0,1 Z " fill="#8E8DB2" transform="translate(199,28)"/>
<path d="M0,0 L1,0 L1,3 L2,3 L2,5 L3,5 L3,8 L4,8 L4,10 L5,10 L5,13 L6,13 L6,16 L7,16 L7,18 L6,18 L6,17 L3,17 L3,16 L2,16 L2,15 L-1,15 L-1,6 L0,6 Z " fill="#9CE8D0" transform="translate(68,117)"/>
<path d="M0,0 L2,0 L2,1 L5,1 L5,2 L9,2 L9,3 L13,3 L13,4 L14,4 L14,8 L9,8 L9,7 L5,7 L5,6 L1,6 L1,4 L0,4 Z " fill="#F08E3D" transform="translate(1,99)"/>
<path d="M0,0 L5,0 L5,1 L6,1 L6,2 L7,2 L7,6 L6,6 L6,7 L5,7 L5,8 L4,8 L4,9 L0,9 L0,8 L-2,8 L-2,6 L-3,6 L-3,4 L-2,4 L-2,2 L-1,2 L-1,1 L0,1 Z " fill="#D58655" transform="translate(16,48)"/>
<path d="M0,0 L18,0 L18,1 L21,1 L21,2 L15,2 L15,3 L6,3 L6,4 L-2,4 L-2,5 L-3,5 L-3,3 L-2,3 L-2,1 L0,1 Z " fill="#2CC8F0" transform="translate(156,145)"/>
<path d="M0,0 L7,0 L7,1 L8,1 L8,3 L10,3 L10,0 L14,0 L14,2 L13,2 L13,3 L12,3 L12,4 L13,4 L13,6 L14,6 L14,9 L13,9 L13,10 L9,10 L9,9 L8,9 L8,8 L7,8 L7,4 L6,4 L6,3 L5,3 L5,2 L3,2 L3,1 L0,1 Z " fill="#BD9349" transform="translate(158,79)"/>
<path d="M0,0 L2,0 L2,1 L4,1 L4,2 L5,2 L5,3 L6,3 L6,4 L7,4 L7,5 L8,5 L8,6 L9,6 L9,10 L0,10 Z " fill="#317692" transform="translate(0,31)"/>
<path d="M0,0 L2,0 L2,7 L3,7 L3,9 L-1,9 L-1,10 L-7,10 L-7,6 L-5,6 L-5,3 L-3,3 L-3,2 L-2,2 L-2,1 L0,1 Z " fill="#253D36" transform="translate(177,187)"/>
<path d="M0,0 L5,0 L5,2 L4,2 L4,11 L3,11 L3,10 L2,10 L2,11 L-1,11 L-1,10 L-4,10 L-4,6 L-2,6 L-2,5 L-1,5 L-1,3 L0,3 Z " fill="#C8D4CC" transform="translate(4,121)"/>
<path d="M0,0 L1,0 L1,2 L5,2 L5,6 L-2,6 L-2,7 L-6,7 L-6,5 L-7,5 L-7,7 L-11,7 L-11,2 L-9,2 L-9,1 L-8,1 L-8,3 L0,3 Z " fill="#AFD0D9" transform="translate(157,119)"/>
<path d="M0,0 L1,0 L1,1 L2,1 L2,2 L3,2 L3,3 L4,3 L4,4 L6,4 L6,6 L7,6 L7,7 L8,7 L8,8 L9,8 L9,9 L10,9 L10,11 L6,11 L6,10 L4,10 L4,9 L0,9 L0,8 L-1,8 L-1,7 L-2,7 L-2,3 L-1,3 L-1,2 L0,2 Z " fill="#97B21C" transform="translate(158,67)"/>
<path d="M0,0 L1,0 L1,1 L2,1 L2,3 L3,3 L3,6 L4,6 L4,13 L3,13 L3,16 L2,16 L2,20 L0,20 L0,21 L-1,21 L-1,22 L-2,22 L-2,20 L-1,20 L-1,16 L0,16 Z " fill="#A3B130" transform="translate(24,52)"/>
<path d="M0,0 L3,0 L3,3 L4,3 L4,11 L3,11 L3,8 L2,8 L2,6 L1,6 L1,7 L0,7 L0,5 L-1,5 L-1,10 L1,10 L1,11 L-4,11 L-4,12 L-6,12 L-6,8 L-5,8 L-5,6 L-3,6 L-3,4 L-2,4 L-2,3 L-1,3 L-1,1 L0,1 Z " fill="#53C2D2" transform="translate(14,58)"/>
<path d="M0,0 L2,0 L2,15 L3,15 L3,14 L4,14 L4,13 L5,13 L5,20 L4,20 L4,21 L3,21 L3,22 L2,22 L2,24 L1,24 L1,19 L0,19 Z M-1,19 L0,19 L0,20 L-1,20 Z " fill="#AFB5C6" transform="translate(195,8)"/>
</svg>
