<?xml version="1.0" encoding="UTF-8"?><svg xmlns="http://www.w3.org/2000/svg" viewBox="0 0 687.63 690.1"><defs><style>.d,.e{stroke:#000;stroke-miterlimit:10;}.f{fill:#e99700;}.g{fill:#fff;}.e{fill:none;}.h{font-family:MyriadPro-Bold, Myriad Pro;font-size:30px;}</style></defs><g id="a"/><g id="b"><g id="c"><g><polygon class="f" points=".5 357.91 .65 336.32 335.85 .69 349.23 .5 687.13 338.4 687.13 355.98 353.55 689.12 333.19 689.59 .5 357.91"/><path d="M349.03,1.01l337.61,337.6v17.17l-333.29,332.85-19.95,.46L1,357.7l.15-21.18L336.06,1.19l12.96-.18m.41-1.01l-13.79,.19L.15,336.11l-.15,22,332.99,331.99,20.77-.48,333.87-333.42v-18L349.43,0h0Z"/></g><g><rect x="112.62" y="116.18" width="460.03" height="460.03" transform="translate(-144.44 343.68) rotate(-45)"/><path d="M342.63,21.61l324.59,324.59-324.59,324.59L18.05,346.19,342.63,21.61m0-1.41L16.63,346.19l326,326,326-326L342.63,20.19h0Z"/></g><g><rect class="f" x="130.3" y="131.85" width="424.68" height="424.68" transform="translate(-143.03 343.09) rotate(-45)"/><path d="M342.63,44.61l299.59,299.59-299.59,299.59L43.05,344.19,342.63,44.61m0-1.41L41.63,344.19l301,301,301-301L342.63,43.19h0Z"/></g><g><ellipse cx="343.13" cy="300.69" rx="125" ry="107"/><path d="M343.13,194.19c33.28,0,64.57,11.1,88.09,31.25,23.48,20.11,36.41,46.84,36.41,75.25s-12.93,55.14-36.41,75.25c-23.52,20.15-54.81,31.25-88.09,31.25s-64.57-11.1-88.09-31.25c-23.48-20.11-36.41-46.84-36.41-75.25s12.93-55.14,36.41-75.25c23.52-20.15,54.81-31.25,88.09-31.25m0-1c-69.31,0-125.5,48.13-125.5,107.5s56.19,107.5,125.5,107.5,125.5-48.13,125.5-107.5-56.19-107.5-125.5-107.5h0Z"/></g><g><ellipse cx="343.13" cy="436.19" rx="74" ry="66.5"/><path d="M343.13,370.19c40.53,0,73.5,29.61,73.5,66s-32.97,66-73.5,66-73.5-29.61-73.5-66,32.97-66,73.5-66m0-1c-41.15,0-74.5,30-74.5,67s33.35,67,74.5,67,74.5-30,74.5-67-33.35-67-74.5-67h0Z"/></g><g><ellipse cx="228.13" cy="300.69" rx="35" ry="37"/><path d="M228.13,264.19c19.02,0,34.5,16.37,34.5,36.5s-15.48,36.5-34.5,36.5-34.5-16.37-34.5-36.5,15.48-36.5,34.5-36.5m0-1c-19.61,0-35.5,16.79-35.5,37.5s15.89,37.5,35.5,37.5,35.5-16.79,35.5-37.5-15.89-37.5-35.5-37.5h0Z"/></g><g><ellipse cx="458.13" cy="300.69" rx="35" ry="37"/><path d="M458.13,264.19c19.02,0,34.5,16.37,34.5,36.5s-15.48,36.5-34.5,36.5-34.5-16.37-34.5-36.5,15.48-36.5,34.5-36.5m0-1c-19.61,0-35.5,16.79-35.5,37.5s15.89,37.5,35.5,37.5,35.5-16.79,35.5-37.5-15.89-37.5-35.5-37.5h0Z"/></g><ellipse class="g" cx="306.13" cy="306.69" rx="75.5" ry="85.5"/><ellipse class="g" cx="343.13" cy="432.19" rx="55.5" ry="59"/><ellipse class="g" cx="380.14" cy="306.84" rx="75.5" ry="85.64"/><circle cx="297.63" cy="294.19" r="10"/><circle cx="396.63" cy="294.19" r="10"/><path class="d" d="M389.13,466.69c-7.49,4-22.67,10.97-43,11-25.21,.04-38.87-3.35-46-8"/><g><path class="e" d="M463.13,275.02c1.44,1.17,12.67,10.61,12.5,26.48-.18,16.19-12.08,25.45-13.5,26.52,2.16-5.84,4.77-14.94,4.99-26.33,.23-11.47-2.05-20.73-3.99-26.67Z"/><path class="g" d="M463.13,275.02c1.44,1.17,12.67,10.61,12.5,26.48-.18,16.19-12.08,25.45-13.5,26.52,2.16-5.84,4.77-14.94,4.99-26.33,.23-11.47-2.05-20.73-3.99-26.67Z"/></g><g><path class="e" d="M223.86,328.28c-1.44-1.17-12.67-10.61-12.5-26.48,.18-16.19,12.08-25.45,13.5-26.52-2.16,5.84-4.77,14.94-4.99,26.33-.23,11.47,2.05,20.73,3.99,26.67Z"/><path class="g" d="M223.86,328.28c-1.44-1.17-12.67-10.61-12.5-26.48,.18-16.19,12.08-25.45,13.5-26.52-2.16,5.84-4.77,14.94-4.99,26.33-.23,11.47,2.05,20.73,3.99,26.67Z"/></g><path class="d" d="M327.37,387.22c-1.67-2.59-1.64-5.83,0-8,2.11-2.8,6.63-3.49,10-1"/><path class="d" d="M358.5,377.38c2.59-1.67,5.83-1.64,8,0,2.8,2.11,3.49,6.63,1,10"/><path class="d" d="M351.76,194.06c18.68-14.63,26.03-19.33,26.85-18.41,1.24,1.39-12.12,15.93-11.44,16.56,.61,.55,9.92-11.88,15.55-9.92,3.9,1.36,4.74,9.21,4.83,15.83"/><text class="h" transform="translate(295.37 138.71)"><tspan x="0" y="0">JUNGLE</tspan></text><text class="h" transform="translate(300.5 561.7)"><tspan x="0" y="0">3f82c8</tspan></text></g></g></svg>