<svg width="200" height="200" viewBox="0 0 200 200" fill="none" xmlns="http://www.w3.org/2000/svg">
<rect width="200" height="200" rx="100" fill="#007CFF"/>
<path d="M126.239 55.9548L110.118 93.4401H133.567C136.288 93.4401 138.8 95.1061 139.847 97.6051C140.685 100.312 140.057 103.228 137.963 105.102L84.3673 151.75C81.855 153.625 78.5053 153.833 75.993 151.959C73.4807 150.293 72.4339 146.961 73.69 144.045L89.8106 106.56H66.5718C63.6408 106.56 61.1285 104.894 60.2911 102.395C59.2443 99.6876 59.8724 96.7721 61.9659 94.8978L115.562 48.2495C118.074 46.3753 121.424 46.167 123.936 48.0413C126.448 49.7073 127.495 53.0393 126.239 55.9548Z" fill="white"/>
</svg>
