<svg xmlns="http://www.w3.org/2000/svg" xmlns:xlink="http://www.w3.org/1999/xlink" viewBox="0 0 200 200"><defs><style>.cls-1{fill:none;}.cls-2{isolation:isolate;}.cls-3{clip-path:url(#clip-path);}.cls-4{fill:#451f94;}.cls-5{fill:#ffc659;}.cls-6{fill:#ce2c4c;}.cls-7{fill:#ea3f60;}.cls-8{fill:#ff808c;}.cls-9{fill:#ffa941;}.cls-10{fill:#ffedb5;}.cls-11{fill:#ea7c11;}.cls-12{fill:#f5e5e3;}.cls-13{fill:#f48f2b;}.cls-14{fill:#ffd67c;}.cls-15{fill:#fff;}.cls-16{fill:#e57c1a;}.cls-17{fill:#bc2145;}.cls-18{fill:#35343b;}.cls-19{fill:#00ae9b;}.cls-20{fill:#00937f;}.cls-21{fill:#583733;opacity:0.3;}.cls-21,.cls-22{mix-blend-mode:multiply;}.cls-22{opacity:0.2;}.cls-23{fill:#423f46;}</style><clipPath id="clip-path"><circle class="cls-1" cx="100" cy="100" r="96.95"/></clipPath></defs><g class="cls-2"><g id="Layer_2" data-name="Layer 2"><g id="_1" data-name="1"><g class="cls-3"><rect class="cls-4" x="3.05" y="3.05" width="193.9" height="193.9"/></g><path class="cls-5" d="M100,6A94,94,0,1,1,6,100,94.11,94.11,0,0,1,100,6m0-6A100,100,0,1,0,200,100,100,100,0,0,0,100,0Z"/><path class="cls-6" d="M41.48,102.32a5.86,5.86,0,0,0,3,4.33c2.83,1.66,6.33-.06,6.33-.06s.33,5.34,7.09,5.69,6.25-20.6,6.25-20.6Z"/><path class="cls-7" d="M94.35,80.69S82.68,77.46,63,66.91C45.11,57.33,35.57,60.44,33.46,64c-1.36,2.27-.56,5.34,0,6.33L93.93,84.07Z"/><path class="cls-7" d="M106.49,86.76S95.72,81.23,78.58,66.91C63,53.92,53,55,50.26,58A7.11,7.11,0,0,0,49,64.24L105.4,90Z"/><path class="cls-7" d="M91.17,81.73s-12.76-7.5-32.66-11.39S30,70,28.68,75.49c-.6,2.58,1,6.14,1.69,7l60.88,2.61Z"/><path class="cls-7" d="M84.25,84.68c-12.59-4.89-41.15-9.13-53-2.72-3.14,1.69-3.32,6-2.39,8.29,1.41,3.38,3.93,3.77,7.88,4.22,8.57,1,48.6-6.6,48.6-6.6Z"/><path class="cls-7" d="M78.74,83.79c-11.33-1.09-35.52.56-43.17,9-1.48,1.63-1.41,6-.14,7.6,1.91,2.41,4.54,2.2,7.88,1.82,11.1-1.26,37-16.06,37-16.06Z"/><path class="cls-6" d="M34.73,94.05c12.09,1.12,34.45-5.48,34.45-5.48l-3.66,5.34S52.44,96.72,44.29,96.3,34.73,94.05,34.73,94.05Z"/><path class="cls-6" d="M30.37,82.52C35.57,88,60.74,90,69.88,89.13l-6.19,4.64s-15.32-.56-23.48-3.94S30.37,82.52,30.37,82.52Z"/><path class="cls-6" d="M33.46,70.29c4.36,6.6,36.31,16.94,49.65,15.64l-5.64,4.46-9.56.28S52.73,87.44,45.27,82.8,33.46,70.29,33.46,70.29Z"/><path class="cls-6" d="M49.06,61.41C52,68.78,81.05,85.53,94.37,87l-6.44,3.19-9.41-1.71S64.34,82.19,58,76.1,49.06,61.41,49.06,61.41Z"/><path class="cls-6" d="M72.41,62.27s0,4.5,3.94,6c0,0,.42,3.79,3.94,4.64,0,0,.84,7,6.6,8.15l13.47,3.66V59.6Z"/><path class="cls-6" d="M158.52,102.32a5.86,5.86,0,0,1-3,4.33c-2.83,1.66-6.33-.06-6.33-.06s-.33,5.34-7.09,5.69-6.25-20.6-6.25-20.6Z"/><path class="cls-7" d="M105.65,80.69S117.32,77.46,137,66.91c17.88-9.58,27.42-6.47,29.53-2.95,1.36,2.27.56,5.34,0,6.33L106.07,84.07Z"/><path class="cls-7" d="M93.51,86.76s10.77-5.53,27.91-19.85C137,53.92,147,55,149.74,58a7.11,7.11,0,0,1,1.28,6.2L94.6,90Z"/><path class="cls-7" d="M108.83,81.73s12.76-7.5,32.66-11.39,28.56-.34,29.83,5.15c.59,2.58-1,6.14-1.69,7l-60.88,2.61Z"/><path class="cls-7" d="M115.75,84.68c12.59-4.89,41.15-9.13,53-2.72,3.14,1.69,3.32,6,2.39,8.29-1.41,3.38-3.93,3.77-7.88,4.22-8.57,1-48.6-6.6-48.6-6.6Z"/><path class="cls-7" d="M121.26,83.79c11.33-1.09,35.52.56,43.17,9,1.48,1.63,1.41,6,.14,7.6-1.91,2.41-4.54,2.2-7.88,1.82-11.1-1.26-37-16.06-37-16.06Z"/><path class="cls-6" d="M165.27,94.05c-12.09,1.12-34.45-5.48-34.45-5.48l3.66,5.34s13.08,2.81,21.23,2.39S165.27,94.05,165.27,94.05Z"/><path class="cls-6" d="M169.63,82.52c-5.2,5.48-30.37,7.45-39.51,6.61l6.19,4.64s15.32-.56,23.48-3.94S169.63,82.52,169.63,82.52Z"/><path class="cls-6" d="M166.54,70.29c-4.36,6.6-36.31,16.94-49.65,15.64l5.64,4.46,9.56.28s15.18-3.23,22.64-7.87S166.54,70.29,166.54,70.29Z"/><path class="cls-6" d="M150.94,61.41c-2.89,7.37-32,24.12-45.31,25.63l6.44,3.19,9.41-1.71S135.66,82.19,142,76.1,150.94,61.41,150.94,61.41Z"/><path class="cls-6" d="M127.59,62.27s0,4.5-3.94,6c0,0-.42,3.79-3.94,4.64,0,0-.84,7-6.6,8.15L99.64,84.77V59.6Z"/><path class="cls-8" d="M59.65,62.55c3.05,2.94,4.81,6.09,3.91,7s-5.37-1.4-8.43-4.34-4-4.91-2.65-6.32S56.59,59.6,59.65,62.55Z"/><path class="cls-8" d="M43.18,67.85c3.34,2.61,5.72,5.36,4.81,6.51s-6.1-.24-9.44-2.85S34.11,67,35.49,65.2,39.84,65.23,43.18,67.85Z"/><path class="cls-8" d="M36.29,79c2.2,1.73,3.71,3.61,3,4.54s-4.33.23-6.53-1.49S29.88,78.9,31,77.5,34.08,77.23,36.29,79Z"/><path class="cls-8" d="M33.75,89c1.38.94,2.32,2,1.86,2.71s-2.71.51-4.08-.44-1.78-1.78-1.09-2.79S32.38,88.06,33.75,89Z"/><path class="cls-8" d="M139.24,65.14c-3.36,2.59-6.73,3.85-7.53,2.81s2.14-5.13,5.5-7.72,5.45-3.25,6.67-1.67S142.6,62.54,139.24,65.14Z"/><path class="cls-8" d="M153.08,65.8c-3.3,2.67-5.63,5.45-4.72,6.57s6.06-.38,9.36-3.05,4.36-4.62,3-6.33S156.37,63.13,153.08,65.8Z"/><path class="cls-8" d="M163.83,76.46c-2.06,1.89-3.42,3.88-2.65,4.71s4.26-.18,6.32-2.08,2.62-3.29,1.45-4.56S165.89,74.56,163.83,76.46Z"/><path class="cls-8" d="M166.55,87.54c-1.44.84-2.46,1.88-2.05,2.57s2.66.7,4.1-.14,1.91-1.64,1.29-2.7S168,86.7,166.55,87.54Z"/><path class="cls-5" d="M106.64,24.21s3.37-3.75,8-2.44,5.07,4.41,4.78,6.29c-.16,1.12-4.12,13.21-9.56,17.34S102,41,102,41Z"/><path class="cls-5" d="M118.12,29.11s4.08-3,8.3-.73,4,5.35,3.38,7.13c-.4,1.07-6.77,12.08-12.94,15s-6.79-5.94-6.79-5.94Z"/><path class="cls-5" d="M128.39,36.86s4.79-1.54,7.77,1.91a5.82,5.82,0,0,1,.41,7.83c-.62.91-8.89,9.57-14.87,10.49s-4.18-7.81-4.18-7.81Z"/><path class="cls-5" d="M129.86,46.9s4.57-1.09,7.1,2.33a5.43,5.43,0,0,1-.16,7.32c-.64.8-9,8.29-14.59,8.73s-3.34-7.57-3.34-7.57Z"/><path class="cls-9" d="M118.87,57.71l.77-.77c-2.63-.92-2.48-4.9-2.26-6.73a5.29,5.29,0,0,1-.52.29c-5.2,2.45-6.46-3.43-6.73-5.36a3.88,3.88,0,0,1-.31.26c-5,3.78-7.44-3.06-7.82-4.24a9.14,9.14,0,0,1-3,1.66L96.11,39.4c-1.86-3.91-3.22-13.13-3-15.8A52.79,52.79,0,0,0,94.64,31a47.19,47.19,0,0,0,5.15,10.69l3.66-1.41a88,88,0,0,0,3.19-16c2.9,6.47.56,16.41.56,16.41l2.15,5.06,2.35-2.06c5.25-6.47,7.59-15.28,7.59-15.28a.28.28,0,0,0,0,.09v0h0c.79,8.21-3.57,16.29-3.57,16.29l2.06,3a30.22,30.22,0,0,0,11.34-11,26.83,26.83,0,0,1-2.72,8.44,27.21,27.21,0,0,1-4.78,6.37l1.69,3.29c5.53-1,12.09-6.94,12.09-6.94-2.15,5.53-8,9.75-8,9.75,2,1.72,8.37.28,10.13-2.28a8.17,8.17,0,0,1-.78,1.15c-.64.8-9,8.29-14.59,8.73S118.87,57.71,118.87,57.71Z"/><path class="cls-5" d="M93.05,24.21s-3.37-3.75-8-2.44S80,26.18,80.3,28.06c.17,1.12,4.13,13.21,9.56,17.34S97.74,41,97.74,41Z"/><path class="cls-5" d="M81.56,29.11s-4.07-3-8.3-.73-4,5.35-3.38,7.13c.4,1.07,6.77,12.08,12.94,15s6.8-5.94,6.8-5.94Z"/><path class="cls-5" d="M71.3,36.86s-4.79-1.54-7.77,1.91a5.82,5.82,0,0,0-.41,7.83c.61.91,8.88,9.57,14.86,10.49s4.18-7.81,4.18-7.81Z"/><path class="cls-5" d="M69.83,46.9s-4.57-1.09-7.11,2.33a5.44,5.44,0,0,0,.17,7.32c.64.8,9,8.29,14.59,8.73s3.34-7.57,3.34-7.57Z"/><path class="cls-5" d="M96.25,39.49c-1.41-2.44-3.66-13.5-3.18-16.22s3-4.78,6.82-4.68a7.17,7.17,0,0,1,6.64,4.5c.47,1.68-.94,12.09-3,16.31l-2.94,3.42A8.41,8.41,0,0,1,96.25,39.49Z"/><path class="cls-9" d="M80.82,57.71,80,56.94c2.63-.92,2.48-4.9,2.26-6.73.18.1.35.21.52.29,5.2,2.45,6.46-3.43,6.73-5.36l.31.26c5,3.78,7.45-3.06,7.82-4.24,1.4,1.19-1.44-.92-1.44-.92a88,88,0,0,1-3.19-16c-2.91,6.47-.56,16.41-.56,16.41l-2.16,5.06L88,43.62c-5.25-6.47-7.59-15.28-7.59-15.28a.28.28,0,0,0,0,.09v0h0C79.6,36.66,84,44.74,84,44.74l-2.06,3a30.3,30.3,0,0,1-11.35-11,27.14,27.14,0,0,0,2.72,8.44,27.53,27.53,0,0,0,4.78,6.37l-1.69,3.29c-5.53-1-12.09-6.94-12.09-6.94,2.16,5.53,8,9.75,8,9.75-2,1.72-8.37.28-10.14-2.28a8.17,8.17,0,0,0,.79,1.15c.64.8,9,8.29,14.59,8.73S80.82,57.71,80.82,57.71Z"/><path class="cls-10" d="M68.24,43.93c1.29,1.9,1.94,3.78,1,4.4s-3.72-.7-5-2.6-1.39-3.16,0-4.11S67,42,68.24,43.93Z"/><path class="cls-10" d="M65.87,53.53c.81,1.2,1.19,2.4.56,2.83S64,56,63.14,54.81s-.84-2,.12-2.67S65.06,52.34,65.87,53.53Z"/><path class="cls-10" d="M76.55,34.9c.92,2.5,1.15,4.79,0,5.21s-3.83-1.9-4.74-4.4-.71-3.94,1-4.58S75.63,32.4,76.55,34.9Z"/><path class="cls-10" d="M87.08,28.86c.43,2.63.22,4.92-1,5.12s-3.39-2.59-3.83-5.21,0-4,1.86-4.31S86.64,26.24,87.08,28.86Z"/><path class="cls-10" d="M114,29.06c-1.22,2.37-2.75,4.09-3.82,3.54s-1.19-4.1,0-6.47,2.43-3.19,4.06-2.35S115.22,26.69,114,29.06Z"/><path class="cls-10" d="M123.81,32.68c-.82,1.14-1.81,1.88-2.43,1.43s-.55-2.43.28-3.56,1.58-1.42,2.52-.74S124.64,31.55,123.81,32.68Z"/><path class="cls-10" d="M100.89,26.57c.07,3.31-.58,6.1-2.08,6.13S95.08,28.92,95,25.62s.76-4.93,3-5S100.81,23.26,100.89,26.57Z"/><path class="cls-11" d="M150.83,120.3c1.19,1.19.18,13.5-.47,14.43s-10.22.94-11.53.28S138,121,139,119.83,149.51,119,150.83,120.3Z"/><path class="cls-12" d="M141.67,132.33c-.93-.54-.24-5.35-.09-5.59s.57-.43,1.3-.49c.07,0,1.92-.16,2.42.31s.41,1.38.1,3a.54.54,0,0,1-.64.39.53.53,0,0,1-.47-.58,8.9,8.9,0,0,0,.19-2.13,6.17,6.17,0,0,0-1.92,0,17.25,17.25,0,0,0-.17,4.31,13.38,13.38,0,0,0,4.45-.06c.55-.81.91-7.48.28-8.2-.55-.31-4.38-.38-7.62-.27a.54.54,0,0,1-.6-.47.5.5,0,0,1,.52-.5c3.47-.12,7.77-.11,8.48.57,1.2,1.14.51,8.83-.19,9.51-.36.35-1.89.54-3.35.54A6.73,6.73,0,0,1,141.67,132.33Z"/><path class="cls-11" d="M48.74,120.3c-1.19,1.19-.19,13.5.47,14.43s10.22.94,11.53.28.84-14.06-.19-15.18S50.05,119,48.74,120.3Z"/><path class="cls-12" d="M55.21,132.71c-1.46,0-3-.19-3.35-.54-.7-.68-1.39-8.37-.2-9.51.72-.68,5-.69,8.49-.57a.5.5,0,0,1,.52.5.55.55,0,0,1-.61.47c-3.23-.11-7.06,0-7.61.27-.63.72-.27,7.39.28,8.2a13.36,13.36,0,0,0,4.45.06,17.25,17.25,0,0,0-.17-4.31,6.23,6.23,0,0,0-1.93,0,9.67,9.67,0,0,0,.2,2.13.53.53,0,0,1-.47.58.54.54,0,0,1-.64-.39c-.31-1.63-.28-2.64.1-3s2.34-.32,2.42-.31c.73.06,1.13.21,1.3.49s.84,5-.09,5.59A6.73,6.73,0,0,1,55.21,132.71Z"/><path class="cls-5" d="M141.8,104.13A203.32,203.32,0,0,0,99.86,101a203.18,203.18,0,0,0-41.93,3.1,95.43,95.43,0,0,0,.28,15.18l35.15,8.44,6.39,14.82v.51l.11-.26.11.26v-.51l6.39-14.82,35.16-8.44A95.43,95.43,0,0,0,141.8,104.13Z"/><path class="cls-9" d="M142,109.48c0-3.11-.17-5.35-.17-5.35A203.32,203.32,0,0,0,99.86,101a203.18,203.18,0,0,0-41.93,3.1s-.15,2.24-.18,5.35c2-.07,7.44-3.36,21.35-5.27A149.74,149.74,0,0,1,99.77,103a150.88,150.88,0,0,1,20.75,1.21C134.51,106.12,139.92,109.41,142,109.48Z"/><path class="cls-9" d="M58.21,119.31l7.89,1.9c-1.11-9.84-1.23-17-1.23-17l-3.74-.57c-1.07.17-2.13.34-3.2.53A95.43,95.43,0,0,0,58.21,119.31Z"/><path class="cls-9" d="M141.52,119.31a95.43,95.43,0,0,0,.28-15.18c-1.14-.2-2.27-.38-3.4-.56l-3.94.6s-.13,7.25-1.25,17.14Z"/><path class="cls-9" d="M141.52,119.13s-6.19-10.46-18-10.46-19.41,7.31-20,8.6c0,0-1.31,1.72,1.69,6.68,2.64,4.38-4.42,17.33-5.38,19-1-1.72-8-14.67-5.37-19,3-5,1.68-6.68,1.68-6.68-.56-1.29-8.15-8.6-20-8.6s-18,10.46-18,10.46a139.16,139.16,0,0,0,5.73,26.42c8.8,28,25.3,35.87,35.81,35.87,7.43,0,27-5.63,36.4-37A142.13,142.13,0,0,0,141.52,119.13Z"/><path class="cls-13" d="M83.74,159.58S84.57,171,91,172c3.9.61,5.39-1,8.86-1s3.76,1.11,7.77,1,8.32-3.47,8.79-10.5C117,153.66,83.74,159.58,83.74,159.58Z"/><path class="cls-14" d="M90.55,120A18.13,18.13,0,0,0,80,115.89a15.4,15.4,0,0,0-11.38,4,11.3,11.3,0,0,0,10.68,7.53C87.6,127.42,90.55,120,90.55,120Z"/><path class="cls-13" d="M116.67,148.47c-1-6.33-4.21-15.24-6.65-16.27l-8.39,6.85c-.83,1.65-1.52,2.88-1.77,3.32-.25-.44-.93-1.67-1.76-3.32l-8.39-6.85c-2.44,1-5.91,8.72-6.66,16.27-.71,7.11-.16,12.19,1.59,15.32a20,20,0,0,0,15.22,2A21.26,21.26,0,0,0,115.77,164C118.11,159.39,117.21,151.87,116.67,148.47Z"/><path class="cls-11" d="M110,132.2l-8.39,6.85c-.83,1.65-1.52,2.88-1.77,3.32-.25-.44-.93-1.67-1.76-3.32l-7.91-6.45-1.16.05c-1.36,1.14-2.92,3.94-4.12,7.44a5.79,5.79,0,0,0-.17,2.89c.75,2.44,6.47,7.69,15.37,7.59,8.37-.08,14-6,15.09-8a.8.8,0,0,0,.07-.2C113.82,137.53,111.73,132.93,110,132.2Z"/><path class="cls-14" d="M109.17,120a18.17,18.17,0,0,1,10.55-4.15,15.44,15.44,0,0,1,11.39,4,11.3,11.3,0,0,1-10.69,7.53C112.13,127.42,109.17,120,109.17,120Z"/><path class="cls-7" d="M114.24,101.78s-14.35-1.12-14.38-1.11l-14.37,1.11c6.91,1.6,12.31,6.28,14.48,10.69C101.73,108.15,106.42,103.59,114.24,101.78Z"/><path class="cls-6" d="M99.86,101c-1.25,0-2.51-.06-3.76-.07l-10.61.82a23.2,23.2,0,0,1,4.28,1.46c3.12-.16,6.44-.25,10-.24s6.89.08,10,.24a25.8,25.8,0,0,1,4.45-1.46L103.65,101C102.38,101,101.12,101,99.86,101Z"/><path class="cls-14" d="M83.74,159.58A9.57,9.57,0,0,0,94.37,169a103.37,103.37,0,0,1,13,0c2.84.15,9.92-2.93,9.06-9.84C115.52,152.11,83.74,159.58,83.74,159.58Z"/><ellipse class="cls-10" cx="100.11" cy="162.17" rx="11.16" ry="4.48"/><path class="cls-5" d="M99.86,172.51c-5.2,0-9.41,2.83-9.41,6.33a4.4,4.4,0,0,0,.07.73,25.52,25.52,0,0,0,9.23,1.85,25.71,25.71,0,0,0,9.49-2.13,3.42,3.42,0,0,0,0-.45C109.28,175.34,105.06,172.51,99.86,172.51Z"/><path class="cls-14" d="M107.7,175.33a11.17,11.17,0,0,0-7.84-2.82,11.36,11.36,0,0,0-7.58,2.59c1.42,1.48,4.39,2.51,7.83,2.51C103.37,177.61,106.2,176.69,107.7,175.33Z"/><path class="cls-13" d="M75.36,110.73c11.25-.37,18.47,10.13,19,12.94,0,.11.06.2.09.29h0c3-5,1.68-6.68,1.68-6.68-.56-1.29-8.15-8.6-20-8.6s-18,10.46-18,10.46A23.3,23.3,0,0,1,75.36,110.73Z"/><path class="cls-13" d="M124.3,110.73c-11.25-.37-18.47,10.13-19,12.94a1.23,1.23,0,0,1-.09.29h0c-3-5-1.69-6.68-1.69-6.68.56-1.29,8.16-8.6,20-8.6s18,10.46,18,10.46A23.31,23.31,0,0,0,124.3,110.73Z"/><path class="cls-14" d="M112.55,136.51c-.84-2.53-1.55-4.5-3.23-4.5a3,3,0,0,0-2.4,1,17.2,17.2,0,0,0,.57-3.38c0-1.26-3.1-8.57-4.22-8.43-1.62.2-3.19,6.19-3.66,11.27-.41-5.12-1.47-11.06-3.15-11.27-1.13-.14-4.22,7.17-4.22,8.43A17.48,17.48,0,0,0,92.8,133a2.92,2.92,0,0,0-2.39-1c-1.69,0-2.39,2-3.23,4.5s-1.13,5.35,1.54,6.19,1.83-.56,2.67-.42c0,0,4.21,4.78,8.22,4.78s7.59-4.59,8.72-4.78c.84-.14,0,1.26,2.67.42S113.39,139,112.55,136.51Z"/><path class="cls-10" d="M99.61,143.08c2.77.09.83-18.66,3.74-20.77.51-.37,1.43.59,1.43.59-.59-1-1.15-1.76-1.51-1.71-1.62.2-3.19,6.19-3.66,11.27-.41-5.12-1.47-11.06-3.15-11.27-.4,0-1,.85-1.73,2.08,0,0,1-1.37,1.77-.77C98.85,124.33,96.85,143,99.61,143.08Z"/><polygon class="cls-10" points="94.45 123.81 94.44 123.82 94.49 123.95 94.45 123.81"/><path class="cls-9" d="M91.39,142.28s4.21,4.78,8.22,4.78,7.59-4.59,8.72-4.78c.84-.14,0,1.26,2.67.42s2.39-3.66,1.55-6.19a11.9,11.9,0,0,0-1.72-3.77c1.4,2.21,2,5.92.74,6.52s-2.25-.78-3.3-.5-4.15,5.35-8.66,5.35-6.53-5.42-7.93-5.49-2.89,1.62-3.59.92c-1.4-1.4.21-5.56.61-6.54a13.45,13.45,0,0,0-1.52,3.51c-.85,2.53-1.13,5.35,1.54,6.19S90.55,142.14,91.39,142.28Z"/><path class="cls-13" d="M70.68,146c-3.43-12.4-4.84-25.76-5.42-33.95a24.61,24.61,0,0,0-7.05,7.1,138.88,138.88,0,0,0,5.73,26.41c6.5,20.68,17.19,30.37,26.58,34C83.73,175.48,76.11,165.67,70.68,146Z"/><path class="cls-13" d="M136.15,144.44a142.13,142.13,0,0,0,5.37-25.31,24.69,24.69,0,0,0-7.44-7.34c-.57,8.17-2,21.67-5.43,34.19-5.33,19.29-12.75,29.09-19.43,33.32C118.1,175.64,129.59,166.3,136.15,144.44Z"/><path class="cls-15" d="M79.13,137.66c-10.15,0-15.07-5.43-15.3-5.7a.56.56,0,0,1,.85-.74c.06.07,6.17,6.78,18.62,5a.56.56,0,1,1,.16,1.11A30.51,30.51,0,0,1,79.13,137.66Z"/><path class="cls-15" d="M77.42,141.34a30.85,30.85,0,0,1-7.69-.91.56.56,0,0,1-.39-.69.55.55,0,0,1,.69-.39,31.79,31.79,0,0,0,11.86.54.58.58,0,0,1,.64.48.56.56,0,0,1-.47.64A32.13,32.13,0,0,1,77.42,141.34Z"/><path class="cls-15" d="M80.85,152.73c0-8-.07-8-.43-8.3-1.71-1.32-8.25-1.12-9.35-.43a1.29,1.29,0,0,0-.49.9c-.49,2.42.07,11.92,1,13.17a4.07,4.07,0,0,0,3.06,1.23,3.68,3.68,0,0,0,2.87-.91c1.05-1.27.79-9.26.17-10.11a2.35,2.35,0,0,0-1.67-.69,3.17,3.17,0,0,0-2.29.5c-.52.49-.54,2.55-.06,6.11a.57.57,0,0,0,1.12-.15,22.43,22.43,0,0,1-.29-5.15,3.11,3.11,0,0,1,2.25,0c.41.91.58,8-.1,8.78a2.7,2.7,0,0,1-2,.5,3.13,3.13,0,0,1-2.18-.76c-.69-1-1.25-11.16-.72-12.5.93-.36,6.36-.57,7.86.31.11.78.12,4.05.13,7.5,0,8,.1,15.49.58,20.46.42.37.83.72,1.24,1.06C80.89,168.76,80.87,159.13,80.85,152.73Z"/><path class="cls-12" d="M74.8,158.17h-.17a3.13,3.13,0,0,1-2.18-.76c-.44-.67-.83-5.06-.91-8.48-.29-1-.58-1.94-.86-3-.06-.2-.11-.41-.17-.61-.35,3,.19,11.51,1,12.7a4.07,4.07,0,0,0,3.06,1.23,5.18,5.18,0,0,0,.67,0Z"/><path class="cls-12" d="M80.3,173.19l0,0c.4.36.81.71,1.21,1-.13-1.15-.24-2.49-.33-3.94-.41-.6-.81-1.21-1.22-1.86C80.07,170.2,80.17,171.8,80.3,173.19Z"/><path class="cls-15" d="M121.1,137.66a30.51,30.51,0,0,1-4.33-.31.56.56,0,0,1,.16-1.11c12.49,1.76,18.56-5,18.62-5a.56.56,0,0,1,.85.74C136.17,132.23,131.25,137.66,121.1,137.66Z"/><path class="cls-15" d="M122.82,141.34a32,32,0,0,1-4.64-.33.57.57,0,0,1-.48-.64.58.58,0,0,1,.64-.48,31.7,31.7,0,0,0,11.86-.54.56.56,0,0,1,.3,1.08A30.73,30.73,0,0,1,122.82,141.34Z"/><path class="cls-15" d="M129.17,144c-1.11-.69-7.65-.89-9.36.43-.35.28-.4.32-.42,8.29,0,6.09,0,15.1-.61,20.69q.61-.51,1.23-1.08c.41-5,.48-12.08.5-19.6,0-3.45,0-6.72.13-7.5,1.5-.88,6.94-.67,7.86-.31.53,1.34,0,11.46-.72,12.5a3.11,3.11,0,0,1-2.18.76,2.77,2.77,0,0,1-2-.5c-.68-.82-.5-7.87-.13-8.73a3.09,3.09,0,0,1,2.24-.1c.22.44,0,3-.24,5.2a.56.56,0,0,0,1.11.15c.49-3.56.47-5.62-.06-6.11a3.17,3.17,0,0,0-2.29-.5,2.35,2.35,0,0,0-1.67.69c-.62.85-.88,8.84.17,10.11a3.7,3.7,0,0,0,2.88.91,4.07,4.07,0,0,0,3-1.23c.89-1.25,1.44-10.75,1-13.17A1.32,1.32,0,0,0,129.17,144Z"/><path class="cls-12" d="M119.1,168.8c-.08,1.68-.18,3.25-.32,4.61q.61-.51,1.23-1.08c.13-1.62.23-3.49.3-5.51C119.91,167.51,119.51,168.17,119.1,168.8Z"/><path class="cls-12" d="M125.65,159.3a4.07,4.07,0,0,0,3-1.23c.89-1.25,1.44-10.75,1-13.17a1.32,1.32,0,0,0-.48-.9c-.17.65-.33,1.3-.51,1.94.21,3-.29,10.58-.88,11.48a3.11,3.11,0,0,1-2.18.76,4.29,4.29,0,0,1-1-.09l-.44,1.06A5.38,5.38,0,0,0,125.65,159.3Z"/><path class="cls-12" d="M126.62,154.2c.13-.93.22-1.75.28-2.47-.34,1-.67,2-1,2.92a.45.45,0,0,0,.11,0A.55.55,0,0,0,126.62,154.2Z"/><path class="cls-15" d="M92.33,108.77a1.74,1.74,0,1,1-1.73-1.69A1.7,1.7,0,0,1,92.33,108.77Z"/><path class="cls-15" d="M85.49,105.72A1.64,1.64,0,1,1,83.85,104,1.69,1.69,0,0,1,85.49,105.72Z"/><path class="cls-15" d="M77.86,106.24a1.27,1.27,0,1,1-1.26-1.32A1.29,1.29,0,0,1,77.86,106.24Z"/><path class="cls-15" d="M75.6,131.26A1.64,1.64,0,1,1,74,129.58,1.67,1.67,0,0,1,75.6,131.26Z"/><path class="cls-15" d="M85.35,131.83a1.93,1.93,0,1,1-1.92-2A2,2,0,0,1,85.35,131.83Z"/><path class="cls-15" d="M68.05,126.81a1.55,1.55,0,1,1-1.54-1.64A1.59,1.59,0,0,1,68.05,126.81Z"/><path class="cls-15" d="M106.77,108.77a1.74,1.74,0,1,0,1.73-1.69A1.7,1.7,0,0,0,106.77,108.77Z"/><path class="cls-15" d="M113.61,105.72a1.64,1.64,0,1,0,1.64-1.73A1.69,1.69,0,0,0,113.61,105.72Z"/><path class="cls-15" d="M121.23,106.24a1.27,1.27,0,1,0,1.27-1.32A1.29,1.29,0,0,0,121.23,106.24Z"/><path class="cls-15" d="M123.5,131.26a1.64,1.64,0,1,0,1.64-1.68A1.66,1.66,0,0,0,123.5,131.26Z"/><ellipse class="cls-15" cx="115.67" cy="131.83" rx="1.92" ry="1.97"/><path class="cls-15" d="M131.05,126.81a1.55,1.55,0,1,0,1.54-1.64A1.59,1.59,0,0,0,131.05,126.81Z"/><path class="cls-16" d="M88.86,152.09v-.78H73.23a203.11,203.11,0,0,1-.71-27.87v-5c0-.06-1.54-6.18-1.67-8s0-7.36,0-7.41l-.79,0c0,.23-.14,5.66,0,7.49s1.64,7.83,1.69,8v4.89s-.06,1-.12,2.73c-1.23,0-8,.3-12.25.75.05.26.1.52.14.78,4.14-.44,10.75-.69,12.09-.74a204.3,204.3,0,0,0,3,40c.35.45.7.9,1.06,1.33-1.09-5.55-1.83-11.06-2.33-16.22Z"/><path class="cls-16" d="M128.1,123.44v-4.83c.06-.25,1.55-6.24,1.7-8.08s0-7.26,0-7.49l-.79,0s.14,5.62,0,7.41-1.66,7.89-1.69,8v4.94a201.75,201.75,0,0,1-.7,27.85H110.94V142.7a13.48,13.48,0,0,0,.56-4c-.07-2-.56-5.76-.56-5.76V101l-.78,0v25.31h-3.23a62.23,62.23,0,0,0-7.38-.85,42.88,42.88,0,0,0-6.61.85H89.68V101l-.79,0v31.45a62.62,62.62,0,0,0-.56,6.6c.11,1.41.56,3.73.56,3.73v24.68a7.06,7.06,0,0,0,.71,2.67c.16.36.31.73.44,1.11a8.65,8.65,0,0,1-.07,2.6,37.64,37.64,0,0,0-.22,5.44l.81.32a35.85,35.85,0,0,1,.2-5.68,8.3,8.3,0,0,0,0-2.93c-.13-.4-.29-.79-.45-1.17a6.38,6.38,0,0,1-.65-2.36V143.12a36.37,36.37,0,0,1-.56-4.22c-.05-1.47.56-6.7.56-6.7v-5.14H93a44.91,44.91,0,0,1,6.53-.84,65.12,65.12,0,0,1,7.31.84h3.3v5.17s.54,4.28.56,6.32a23.31,23.31,0,0,1-.56,4.5v24.4a6.22,6.22,0,0,1-.66,2.36c-.15.38-.31.77-.45,1.17a8.62,8.62,0,0,0,0,2.93,36.61,36.61,0,0,1,.22,5.36l.81-.35a36.91,36.91,0,0,0-.25-5.09,8.55,8.55,0,0,1-.06-2.6c.13-.38.28-.75.43-1.11a7.06,7.06,0,0,0,.71-2.67V152.09h15.6c-.49,5-1.2,10.32-2.23,15.7.35-.43.7-.86,1-1.32a203.62,203.62,0,0,0,2.87-39.54c1.41,0,7.88.3,12,.73,0-.26.1-.52.14-.78-4.19-.44-10.83-.69-12.14-.73C128.16,124.45,128.1,123.48,128.1,123.44Z"/><path class="cls-17" d="M110.94,101.53l-.78-.07v1.61l.78-.29Z"/><path class="cls-17" d="M89.68,101.46l-.79.06v1.34l.79.34Z"/><path class="cls-18" d="M90.55,119.78A18.93,18.93,0,0,0,80,116a16.17,16.17,0,0,0-11.38,3.66s3.37,6.75,10.82,6.47A14.3,14.3,0,0,0,90.55,119.78Z"/><path class="cls-18" d="M109.17,119.78a19,19,0,0,1,10.55-3.8,16.2,16.2,0,0,1,11.39,3.66s-3.37,6.75-10.83,6.47A14.3,14.3,0,0,1,109.17,119.78Z"/><path class="cls-18" d="M110.42,150.11c-4-2.1-16.71-2.11-20.74,0-3.73,1.95-8.13,8.07-4.77,11.92s5.56.2,15,.2,11.8,3.06,15.27-.2S114.14,152.06,110.42,150.11Z"/><path class="cls-19" d="M142.2,92.92c-1.42-2-13.88-5.11-20.82-6.29a134.63,134.63,0,0,0-21.61-1.86,133.56,133.56,0,0,0-21.52,1.86C71.34,87.81,58.94,91,57.52,92.92s-1.85,13.92-.43,14.91,6.24-3,22-5.12a149.74,149.74,0,0,1,20.67-1.21,150.88,150.88,0,0,1,20.75,1.21c15.84,2.17,20.68,6.1,22.11,5.12S143.63,94.89,142.2,92.92Z"/><path class="cls-20" d="M65,105.58c-.2-4.79.18-12.23.41-16-3.94,1.15-7.17,2.37-7.85,3.31-1.42,2-1.85,13.92-.43,14.91.85.59,2.92-.58,7.82-2.09Z"/><path class="cls-20" d="M142.2,92.92c-.7-1-4.1-2.23-8.2-3.4.23,3.71.63,11.23.42,16.06l0,.06c5.16,1.55,7.32,2.79,8.19,2.19C144.05,106.84,143.63,94.89,142.2,92.92Z"/><path class="cls-20" d="M142.63,105.86c-1.43,1-6.27-3-22.11-5.12a150.88,150.88,0,0,0-20.75-1.21,149.74,149.74,0,0,0-20.67,1.21c-15.77,2.17-20.59,6.1-22,5.12-.53-.37-.8-2.29-.86-4.64-.07,3.18.19,6.14.86,6.61,1.42,1,6.24-3,22-5.12a149.74,149.74,0,0,1,20.67-1.21,150.88,150.88,0,0,1,20.75,1.21c15.84,2.17,20.68,6.1,22.11,5.12.68-.47.94-3.43.87-6.61C143.44,103.57,143.16,105.49,142.63,105.86Z"/><path class="cls-20" d="M72,87.9l-1.58.38c-1.2,5-1,10.94-.25,16,.55-.13,1.14-.26,1.74-.38-.2-2.64-.38-5.27-.36-7.93S71.94,90.6,72,87.9Z"/><path class="cls-20" d="M92.57,85l-1.4.09c-1,5.24-.6,11.27-.11,16.58l1.82-.06A164,164,0,0,0,92.57,85Z"/><path class="cls-20" d="M78.65,86.56l-.4.07-1.16.21A57,57,0,0,0,77,103l1.8-.27C78.27,97.33,78.84,92,78.65,86.56Z"/><path class="cls-20" d="M85.54,85.6,84,85.78a57.26,57.26,0,0,0-.1,16.38L85.7,102C85.15,96.51,85.73,91.08,85.54,85.6Z"/><path class="cls-20" d="M128.68,88.14l-1.55-.36c.05,2.74.43,5.5.45,8.24s-.15,5.22-.35,7.82c.61.12,1.19.25,1.76.38C129.69,99.08,129.91,93.19,128.68,88.14Z"/><path class="cls-20" d="M108,85.06,106.57,85a164.08,164.08,0,0,0-.31,16.61l1.82.07C108.57,96.33,109,90.3,108,85.06Z"/><path class="cls-20" d="M122,86.74l-.65-.11-.89-.15c-.2,5.41.37,10.78-.13,16.2l.16,0,1.65.23A56.73,56.73,0,0,0,122,86.74Z"/><path class="cls-20" d="M115.13,85.73l-1.53-.18c-.2,5.48.39,10.91-.16,16.41l1.82.16A57.33,57.33,0,0,0,115.13,85.73Z"/><path class="cls-20" d="M100.65,92a63.93,63.93,0,0,0-.29-7.19H98.92a53.93,53.93,0,0,0,0,7.19c.07,3.18.09,6.38.38,9.54h1.64C100.93,98.33,100.74,95.14,100.65,92Z"/><path class="cls-20" d="M97.57,88.54v.08a2.05,2.05,0,0,1-.07.31,1.7,1.7,0,0,1-.61.92,1.58,1.58,0,0,1-.71.3l-.22,0a1.19,1.19,0,0,1-.19,0,1.63,1.63,0,0,1-.46-.11,1.67,1.67,0,0,1-1.08-1.57,2,2,0,0,1,.07-.49,1.82,1.82,0,0,1,.22-.47,1.69,1.69,0,0,1,.76-.62,1.67,1.67,0,0,1,.89-.1,1.67,1.67,0,0,1,1.38,1.28,1.55,1.55,0,0,1,0,.43Zm-.73,0a.78.78,0,0,0-.43-.63.79.79,0,0,0-.32-.08.65.65,0,0,0-.38.09.81.81,0,0,0-.27.25l-.09.18a.74.74,0,0,0,0,.22.87.87,0,0,0,.08.35.76.76,0,0,0,.29.3l.17.08.13,0h.09a.78.78,0,0,0,.37-.09.74.74,0,0,0,.38-.46,1.15,1.15,0,0,0,0-.16v-.07Z"/><path class="cls-20" d="M95.6,96.62l-.08,0a3.2,3.2,0,0,1-.31-.14,1.86,1.86,0,0,1-.81-.85,1.73,1.73,0,0,1-.14-.8c0-.08,0-.13,0-.24a1.08,1.08,0,0,1,0-.19,1.69,1.69,0,0,1,.21-.45,1.79,1.79,0,0,1,1.84-.75,1.79,1.79,0,0,1,1.42,1.45,1.79,1.79,0,0,1-.1.94,1.77,1.77,0,0,1-.5.71,1.72,1.72,0,0,1-1.14.41,1.4,1.4,0,0,1-.45-.06Zm.18-.71a.92.92,0,0,0,.8-.3.91.91,0,0,0,.17-.34.78.78,0,0,0,0-.43.86.86,0,0,0-.59-.6.87.87,0,0,0-.84.25,1.36,1.36,0,0,0-.12.17.64.64,0,0,0-.06.14.81.81,0,0,1,0,.09,1,1,0,0,0,0,.43.87.87,0,0,0,.41.52l.18.06.09,0Z"/><path class="cls-20" d="M82.57,89.85v.08a1.44,1.44,0,0,1-.07.32,1.73,1.73,0,0,1-.61.92,1.7,1.7,0,0,1-.71.3l-.22,0h-.19a1.8,1.8,0,0,1-.46-.1,1.7,1.7,0,0,1-1.08-1.55,1.73,1.73,0,0,1,.29-1,1.65,1.65,0,0,1,1.65-.73,1.67,1.67,0,0,1,1.38,1.28,1.55,1.55,0,0,1,0,.43Zm-.72,0a.83.83,0,0,0-.44-.63.79.79,0,0,0-.32-.08.78.78,0,0,0-.37.09.77.77,0,0,0-.4.62.75.75,0,0,0,.37.68l.17.08.13,0h.09a.93.93,0,0,0,.37-.1.71.71,0,0,0,.38-.46,1,1,0,0,0,0-.16v-.07Z"/><path class="cls-20" d="M80.6,97.93l-.08,0a3.2,3.2,0,0,1-.31-.14,1.91,1.91,0,0,1-.81-.85,1.71,1.71,0,0,1-.14-.8c0-.08,0-.13,0-.23a1.43,1.43,0,0,1,0-.2,1.65,1.65,0,0,1,.22-.44,1.75,1.75,0,0,1,1.86-.75,2.31,2.31,0,0,1,.49.18,1.76,1.76,0,0,1,.43.33,1.87,1.87,0,0,1,.47.94,1.8,1.8,0,0,1-.6,1.64,1.77,1.77,0,0,1-1.14.42,1.55,1.55,0,0,1-.45-.07Zm.18-.7a.94.94,0,0,0,.8-.31.87.87,0,0,0,.17-.33.81.81,0,0,0,0-.44.69.69,0,0,0-.21-.37l-.17-.14a.67.67,0,0,0-.23-.09.86.86,0,0,0-.42,0,.83.83,0,0,0-.4.24.94.94,0,0,0-.12.18.44.44,0,0,0,0,.13.46.46,0,0,0,0,.09.88.88,0,0,0,0,.43.77.77,0,0,0,.4.52l.18.06.09,0Z"/><path class="cls-20" d="M68.79,92.47v.09a1.38,1.38,0,0,1-.07.31,1.73,1.73,0,0,1-.61.92,1.7,1.7,0,0,1-.71.3l-.22,0a1.18,1.18,0,0,1-.19,0,1.82,1.82,0,0,1-.46-.11,1.67,1.67,0,0,1-1.08-1.57,2,2,0,0,1,.07-.49,1.56,1.56,0,0,1,.22-.47,1.84,1.84,0,0,1,.76-.63,1.7,1.7,0,0,1,1.65.22,1.69,1.69,0,0,1,.62,1,1.55,1.55,0,0,1,0,.43Zm-.72,0a.86.86,0,0,0-.44-.64.64.64,0,0,0-.32-.07.6.6,0,0,0-.37.09.62.62,0,0,0-.28.25,1.3,1.3,0,0,0-.08.17.47.47,0,0,0,0,.22.76.76,0,0,0,.09.36.73.73,0,0,0,.28.3l.17.07.13,0h.09a.92.92,0,0,0,.37-.09.74.74,0,0,0,.38-.46,1.28,1.28,0,0,0,0-.17v-.06Z"/><path class="cls-20" d="M66.82,100.55l-.08,0a1.25,1.25,0,0,1-.31-.14,1.82,1.82,0,0,1-.81-.84,1.73,1.73,0,0,1-.14-.8c0-.08,0-.14,0-.24s0-.1,0-.2a1.65,1.65,0,0,1,.22-.44,1.78,1.78,0,0,1,1.84-.75,1.77,1.77,0,0,1,1.31,2.39,1.84,1.84,0,0,1-.5.71,1.7,1.7,0,0,1-1.14.41,1.88,1.88,0,0,1-.45-.06Zm.18-.7a.91.91,0,0,0,.8-.31.87.87,0,0,0,.17-.33.81.81,0,0,0,0-.44.73.73,0,0,0-.21-.37.85.85,0,0,0-.37-.22.87.87,0,0,0-.85.24l-.12.18a.44.44,0,0,0,0,.13.62.62,0,0,0,0,.1.89.89,0,0,0,0,.43.82.82,0,0,0,.4.52l.18.06.09,0Z"/><path class="cls-20" d="M112.71,89.19v.09a2.36,2.36,0,0,1-.07.31,1.73,1.73,0,0,1-.61.92,1.7,1.7,0,0,1-.71.3l-.22,0a1.19,1.19,0,0,1-.19,0,2.07,2.07,0,0,1-.46-.11,1.67,1.67,0,0,1-1.08-1.57,2,2,0,0,1,.07-.49,1.56,1.56,0,0,1,.22-.47,1.65,1.65,0,0,1,1.65-.73,1.65,1.65,0,0,1,.76.32,1.63,1.63,0,0,1,.61,1,1.33,1.33,0,0,1,0,.42Zm-.73,0a.78.78,0,0,0-.75-.71.74.74,0,0,0-.38.1.59.59,0,0,0-.27.25l-.09.17a.74.74,0,0,0,0,.22.87.87,0,0,0,.08.36.9.9,0,0,0,.28.3l.18.07.13,0h.09a.92.92,0,0,0,.37-.09.76.76,0,0,0,.38-.46.51.51,0,0,0,0-.17v-.08Z"/><path class="cls-20" d="M110.74,97.27l-.09,0a1.42,1.42,0,0,1-.3-.14,1.76,1.76,0,0,1-.81-.85,1.67,1.67,0,0,1-.14-.79,1.12,1.12,0,0,1,0-.24,1.43,1.43,0,0,1,0-.2,1.63,1.63,0,0,1,.21-.44,1.8,1.8,0,0,1,2.79-.23,1.88,1.88,0,0,1,.47.93,1.9,1.9,0,0,1-.1.94,1.76,1.76,0,0,1-1.64,1.12,1.88,1.88,0,0,1-.45-.06Zm.18-.7a.91.91,0,0,0,.8-.31.84.84,0,0,0,.16-.33.82.82,0,0,0,0-.44.81.81,0,0,0-.21-.37.8.8,0,0,0-.38-.22.84.84,0,0,0-.84.24,1.11,1.11,0,0,0-.12.18s0,.08-.06.13a.87.87,0,0,0,0,.1,1,1,0,0,0,0,.43.87.87,0,0,0,.41.52.49.49,0,0,0,.18,0l.09,0Z"/><path class="cls-20" d="M126.67,90.93V91a1.17,1.17,0,0,1-.06.31,1.76,1.76,0,0,1-.61.92,1.63,1.63,0,0,1-.71.3l-.23,0h-.19a1.65,1.65,0,0,1-.45-.11,1.71,1.71,0,0,1-.76-.58,1.57,1.57,0,0,1-.32-1,2,2,0,0,1,.06-.49,1.62,1.62,0,0,1,.22-.46,1.73,1.73,0,0,1,.77-.63,1.77,1.77,0,0,1,.89-.1,1.65,1.65,0,0,1,.76.32,1.61,1.61,0,0,1,.61,1,1.18,1.18,0,0,1,0,.43Zm-.72,0a.81.81,0,0,0-.43-.63.88.88,0,0,0-.32-.08.65.65,0,0,0-.38.09.84.84,0,0,0-.28.25,1.42,1.42,0,0,0-.08.18.65.65,0,0,0,0,.22.94.94,0,0,0,.09.36.71.71,0,0,0,.28.29l.18.08.13,0h.08a.79.79,0,0,0,.38-.09.77.77,0,0,0,.38-.46.46.46,0,0,0,0-.16v-.07Z"/><path class="cls-20" d="M124.71,99l-.09,0-.31-.14a1.9,1.9,0,0,1-.8-.85,1.87,1.87,0,0,1-.15-.8,1.32,1.32,0,0,1,0-.24.59.59,0,0,1,0-.19,1.69,1.69,0,0,1,.21-.45,1.77,1.77,0,0,1,.78-.64,1.67,1.67,0,0,1,1.09-.1,1.81,1.81,0,0,1,.48.18,2,2,0,0,1,.44.33,1.94,1.94,0,0,1,.46.93,1.79,1.79,0,0,1-.1.94,1.73,1.73,0,0,1-1.63,1.12,1.33,1.33,0,0,1-.45-.06Zm.18-.71a.85.85,0,0,0,1-.64.78.78,0,0,0,0-.43.76.76,0,0,0-.21-.37l-.17-.14a.84.84,0,0,0-.24-.1,1,1,0,0,0-.42,0,.76.76,0,0,0-.39.24,1,1,0,0,0-.13.18,1.23,1.23,0,0,0-.05.13l0,.09a1,1,0,0,0,0,.43.87.87,0,0,0,.41.52.7.7,0,0,0,.17.06l.09,0Z"/><path class="cls-20" d="M101.91,92.4v-.08a3.09,3.09,0,0,1,0-.31,1.65,1.65,0,0,1,.37-1,1.6,1.6,0,0,1,.6-.43.86.86,0,0,1,.21-.07,1.08,1.08,0,0,1,.17,0,1.77,1.77,0,0,1,.46,0,1.61,1.61,0,0,1,1.34,1.22,1.68,1.68,0,0,1,0,1,1.77,1.77,0,0,1-.59.75,1.61,1.61,0,0,1-.81.28,1.54,1.54,0,0,1-.78-.13,1.6,1.6,0,0,1-.79-.78,1.73,1.73,0,0,1-.12-.39Zm.71-.14a.74.74,0,0,0,.52.47.6.6,0,0,0,.3,0,.57.57,0,0,0,.32-.16.61.61,0,0,0,.19-.28.76.76,0,0,0,0-.34.72.72,0,0,0-.47-.54.55.55,0,0,0-.17,0h-.2a.88.88,0,0,0-.32.16.71.71,0,0,0-.25.49.7.7,0,0,0,0,.16l0,.07Z"/><path class="cls-20" d="M87.06,93.68,87,93.62a1.87,1.87,0,0,1-.21-.26,1.8,1.8,0,0,1-.35-1.11,1.7,1.7,0,0,1,.21-.79c0-.06.07-.11.14-.2a.7.7,0,0,1,.13-.15,1.84,1.84,0,0,1,.38-.31,1.94,1.94,0,0,1,1-.24,1.73,1.73,0,0,1,1,.39,2.25,2.25,0,0,1,.36.38,1.8,1.8,0,0,1,.24.48,1.88,1.88,0,0,1,0,1,1.78,1.78,0,0,1-.49.79,1.76,1.76,0,0,1-2,.3,1.57,1.57,0,0,1-.38-.25Zm.47-.55a.9.9,0,0,0,.85.07.74.74,0,0,0,.29-.22.78.78,0,0,0,.19-.4.75.75,0,0,0,0-.42.72.72,0,0,0-.09-.2.63.63,0,0,0-.17-.19.87.87,0,0,0-.84-.13,1.06,1.06,0,0,0-.19.11s-.07.06-.11.09l-.06.08a.85.85,0,0,0-.17.39.86.86,0,0,0,.13.65.83.83,0,0,0,.14.13l.07,0Z"/><path class="cls-20" d="M72.57,94.74v-.08a1,1,0,0,1,0-.3,1.61,1.61,0,0,1,.37-1,1.6,1.6,0,0,1,.6-.43l.21-.07.17,0a1.36,1.36,0,0,1,.45,0,1.68,1.68,0,0,1,.85.38,1.59,1.59,0,0,1,.51.86,2,2,0,0,1,0,.47,1.58,1.58,0,0,1-.1.49,1.86,1.86,0,0,1-.59.76,1.71,1.71,0,0,1-.81.28,1.54,1.54,0,0,1-.78-.14,1.59,1.59,0,0,1-.79-.77,1.87,1.87,0,0,1-.12-.4Zm.71-.14a.75.75,0,0,0,.52.48,1,1,0,0,0,.3,0,.65.65,0,0,0,.32-.17.7.7,0,0,0,.19-.28.94.94,0,0,0,0-.16.83.83,0,0,0,0-.21.93.93,0,0,0-.15-.3.74.74,0,0,0-.31-.21l-.17,0a.27.27,0,0,0-.12,0h-.08a.74.74,0,0,0-.32.16.65.65,0,0,0-.25.49.68.68,0,0,0,0,.15l0,.08Z"/><path class="cls-20" d="M117.05,94.83l-.06-.06a2.39,2.39,0,0,1-.22-.26,1.81,1.81,0,0,1-.35-1.12,1.68,1.68,0,0,1,.22-.78,1.32,1.32,0,0,1,.13-.2,1.35,1.35,0,0,1,.13-.15,1.44,1.44,0,0,1,.39-.31,1.79,1.79,0,0,1,1-.24,1.73,1.73,0,0,1,1,.39,1.82,1.82,0,0,1,.36.37,1.84,1.84,0,0,1,.26,1.53,1.93,1.93,0,0,1-.5.8,1.71,1.71,0,0,1-.76.42,1.76,1.76,0,0,1-1.21-.12,1.5,1.5,0,0,1-.37-.26Zm.47-.55a.9.9,0,0,0,.85.07.89.89,0,0,0,.3-.23.76.76,0,0,0,.18-.39.79.79,0,0,0,0-.43l-.1-.2a.71.71,0,0,0-.16-.18,1,1,0,0,0-.39-.18.91.91,0,0,0-.46.05l-.19.1a.46.46,0,0,0-.1.1s-.05.05-.07.07a.88.88,0,0,0-.17.4.78.78,0,0,0,.14.64.53.53,0,0,0,.13.13l.07.06Z"/><path class="cls-20" d="M130.4,96.22v-.08a1.37,1.37,0,0,1,0-.31,1.67,1.67,0,0,1,.38-1,1.56,1.56,0,0,1,.59-.43.86.86,0,0,1,.21-.07l.18,0a1.69,1.69,0,0,1,.45,0,1.63,1.63,0,0,1,1.35,1.25,1.53,1.53,0,0,1,0,.47,1.4,1.4,0,0,1-.11.49,1.68,1.68,0,0,1-.58.75,1.61,1.61,0,0,1-.82.28,1.58,1.58,0,0,1-.78-.13,1.61,1.61,0,0,1-.78-.78,1.24,1.24,0,0,1-.12-.39Zm.71-.14a.77.77,0,0,0,.53.47.61.61,0,0,0,.3,0,.58.58,0,0,0,.31-.16.63.63,0,0,0,.2-.28c0-.06,0-.11,0-.17a.76.76,0,0,0,0-.2,1,1,0,0,0-.15-.3.66.66,0,0,0-.31-.21l-.17,0a.54.54,0,0,0-.13,0h-.07a.88.88,0,0,0-.32.16.63.63,0,0,0-.25.49.54.54,0,0,0,0,.15l0,.08Z"/><path class="cls-20" d="M71.66,90.82a11.56,11.56,0,0,1,5-.84c.5,0,.49-.71,0-.77a7.06,7.06,0,0,0-5.22,1.28c-.15.12,0,.39.19.33Z"/><path class="cls-20" d="M71.4,99.5A15.44,15.44,0,0,1,77,98.6c.42,0,.48-.6.1-.72-2-.61-4.12.38-5.85,1.3a.17.17,0,0,0,.13.32Z"/><path class="cls-20" d="M85,89.15c1.93-.7,4.2-1.18,6.14-.25a.39.39,0,0,0,.39-.67A5,5,0,0,0,88,87.65a5.07,5.07,0,0,0-3.27,1.1c-.16.16,0,.48.23.4Z"/><path class="cls-20" d="M85.26,97.79a8.3,8.3,0,0,1,5.87-.05c.54.21.78-.67.24-.88a7,7,0,0,0-6.32.44c-.24.16-.1.59.21.49Z"/><path class="cls-20" d="M100.16,88.43a10.61,10.61,0,0,1,3.19-.66,8.92,8.92,0,0,1,3.41,1c.34.14.76-.27.43-.56A6.24,6.24,0,0,0,99.92,88c-.21.16,0,.49.24.42Z"/><path class="cls-20" d="M100.13,97.27c1.05,0,2.08-.32,3.14-.34a9.75,9.75,0,0,1,3.63.64c.4.14.62-.45.28-.65a7.39,7.39,0,0,0-4.37-.78c-.92.06-2.4,0-2.82.94,0,.09.06.19.14.19Z"/><path class="cls-20" d="M115,89.66a16.94,16.94,0,0,1,3-.08,23.58,23.58,0,0,1,2.89.89.34.34,0,0,0,.33-.56,6.8,6.8,0,0,0-6.41-.88c-.31.14-.15.64.17.63Z"/><path class="cls-20" d="M115.09,98.26A11.66,11.66,0,0,1,118.2,98a25.72,25.72,0,0,1,3,.73c.24,0,.49-.26.26-.45-1.66-1.38-4.74-1.34-6.63-.52-.33.15-.08.61.23.55Z"/><path class="cls-20" d="M128.74,92.11a10.41,10.41,0,0,1,3.1-.2,7.12,7.12,0,0,1,2.82,1.33c.36.24.74-.29.45-.59-1.46-1.53-4.67-2.19-6.48-.93-.15.11-.12.42.11.39Z"/><path class="cls-20" d="M129.08,99.94c2.12-.64,4,.65,5.71,1.68.4.24.75-.28.47-.61-1.27-1.51-4.59-2.53-6.4-1.58-.28.14-.09.6.22.51Z"/><path class="cls-20" d="M81.8,86.08a6.13,6.13,0,0,0-.07.87,6.23,6.23,0,0,0,11.33,3.58,7.82,7.82,0,0,0,13.53.13,6.28,6.28,0,0,0,11.52-3.45,6.74,6.74,0,0,0-.1-1.11,134.49,134.49,0,0,0-18.24-1.33A132.62,132.62,0,0,0,81.8,86.08Z"/><path class="cls-19" d="M93.93,85.82a5.7,5.7,0,1,1-5.7-5.69A5.7,5.7,0,0,1,93.93,85.82Z"/><ellipse class="cls-19" cx="99.86" cy="84" rx="6.89" ry="7.94"/><path class="cls-20" d="M104.56,84c0,3-2.1,5.41-4.7,5.41S95.17,87,95.17,84s2.1-5.42,4.69-5.42S104.56,81,104.56,84Z"/><path class="cls-9" d="M103.58,84a3.76,3.76,0,1,1-3.72-4.29A4,4,0,0,1,103.58,84Z"/><path class="cls-5" d="M102.64,83.68a3,3,0,1,1-2.91-3.41A3.19,3.19,0,0,1,102.64,83.68Z"/><path class="cls-10" d="M99.53,82.75c-.51.65-1.23.93-1.62.63s-.29-1.07.21-1.72,1.23-.94,1.62-.64S100,82.1,99.53,82.75Z"/><path class="cls-10" d="M98.39,84.49c0,.33-.09.62-.31.65s-.44-.21-.49-.54.09-.62.31-.65S98.34,84.16,98.39,84.49Z"/><ellipse class="cls-20" cx="88.05" cy="85.65" rx="4.06" ry="4.05"/><path class="cls-9" d="M91.27,85.65a3.22,3.22,0,1,1-3.22-3.21A3.21,3.21,0,0,1,91.27,85.65Z"/><path class="cls-5" d="M90.46,85.41a2.53,2.53,0,1,1-2.53-2.55A2.54,2.54,0,0,1,90.46,85.41Z"/><path class="cls-10" d="M87.76,84.71c-.44.49-1.06.7-1.4.48s-.25-.8.19-1.29,1.06-.7,1.4-.47S88.2,84.23,87.76,84.71Z"/><path class="cls-10" d="M86.78,86c0,.25-.08.47-.27.49s-.38-.15-.42-.4a.39.39,0,0,1,.27-.49C86.55,85.59,86.73,85.77,86.78,86Z"/><path class="cls-19" d="M117.41,85.82a5.7,5.7,0,1,1-5.7-5.69A5.7,5.7,0,0,1,117.41,85.82Z"/><ellipse class="cls-20" cx="111.53" cy="85.65" rx="4.06" ry="4.05"/><path class="cls-9" d="M114.75,85.65a3.22,3.22,0,1,1-3.22-3.21A3.21,3.21,0,0,1,114.75,85.65Z"/><path class="cls-5" d="M113.94,85.41a2.53,2.53,0,1,1-2.53-2.55A2.54,2.54,0,0,1,113.94,85.41Z"/><path class="cls-10" d="M111.24,84.71c-.43.49-1.06.7-1.4.48s-.25-.8.19-1.29,1.06-.7,1.4-.47S111.68,84.23,111.24,84.71Z"/><path class="cls-10" d="M110.26,86c0,.25-.08.47-.27.49s-.38-.15-.42-.4a.39.39,0,0,1,.27-.49A.44.44,0,0,1,110.26,86Z"/><ellipse class="cls-19" cx="56.01" cy="146.92" rx="12.8" ry="13.12"/><path class="cls-20" d="M56,133.8A13.12,13.12,0,1,0,68.8,146.92,13,13,0,0,0,56,133.8Zm-.5,24.46A11.86,11.86,0,1,1,67.07,146.4,11.72,11.72,0,0,1,55.51,158.26Z"/><ellipse class="cls-20" cx="55.87" cy="146.5" rx="7.41" ry="7.6"/><ellipse class="cls-15" cx="55.87" cy="146.5" rx="6.03" ry="6.19"/><path class="cls-21" d="M55.87,140.31a6.19,6.19,0,1,0,6,6.19A6.11,6.11,0,0,0,55.87,140.31Zm.37,11.76a5.19,5.19,0,1,1,5.06-5.19A5.13,5.13,0,0,1,56.24,152.07Z"/><path class="cls-5" d="M58.54,146.36a2.75,2.75,0,1,1-2.74-2.82A2.78,2.78,0,0,1,58.54,146.36Z"/><g class="cls-22"><path class="cls-20" d="M56.78,135.68a1.59,1.59,0,0,0-1,.25c-.1.08-.12.3.05.32a2.62,2.62,0,0,0,1-.12.23.23,0,0,0-.06-.45Z"/><path class="cls-20" d="M54.71,135.38a7.9,7.9,0,0,0-1.86.39c-.45.13-1.06.29-1.3.72-.11.19.08.48.3.39.45-.17.88-.42,1.33-.62s1.07-.39,1.6-.62c.13,0,.06-.26-.07-.26Z"/><path class="cls-20" d="M53.15,137.53a2.29,2.29,0,0,0-1.28.53c-.1.08,0,.26.13.22.41-.16.81-.36,1.21-.54.09-.05,0-.23-.06-.21Z"/><path class="cls-20" d="M51.11,137.57a.53.53,0,0,0-.36.24c-.07.08,0,.25.09.23a.59.59,0,0,0,.44-.18.18.18,0,0,0-.17-.29Z"/><path class="cls-20" d="M48.49,140.36a1.24,1.24,0,0,0-.57.94.13.13,0,0,0,.19.11c.29-.2.44-.49.72-.71s-.1-.53-.34-.34Z"/><path class="cls-20" d="M48.17,142.07l0,.12a.15.15,0,0,0,.25.14l.1-.08c.25-.19-.25-.52-.32-.18Z"/><path class="cls-20" d="M45.72,142.44a.83.83,0,0,0-.18.42.2.2,0,0,0,.36.15.78.78,0,0,0,.19-.41.2.2,0,0,0-.37-.16Z"/><path class="cls-20" d="M64.33,152l-.07.21a.16.16,0,0,0,.23.18l.18-.13c.36-.25-.2-.66-.34-.26Z"/><path class="cls-20" d="M63.35,153.32A10.29,10.29,0,0,1,61.08,155c-.35.21,0,.77.32.55a7.36,7.36,0,0,0,2.14-2.13c.07-.11-.1-.23-.19-.14Z"/><path class="cls-20" d="M60.14,154.66a.84.84,0,0,0-.46.55.16.16,0,0,0,.23.18c.27-.12.18-.12.46-.33s0-.58-.23-.4Z"/><path class="cls-20" d="M58.18,156.74a1.56,1.56,0,0,0,1.52-.49c.07-.08,0-.2-.12-.2a3,3,0,0,0-1.42.52c-.06,0-.06.16,0,.17Z"/><path class="cls-20" d="M49.47,137.5A3.34,3.34,0,0,0,48,138.55a2.7,2.7,0,0,0-.94,1.4c0,.16.18.25.31.18.46-.28.72-.87,1.09-1.25a12,12,0,0,0,1.24-1.11c.1-.14-.07-.3-.22-.27Z"/></g><ellipse class="cls-19" cx="143.56" cy="146.92" rx="12.8" ry="13.12"/><path class="cls-20" d="M130.77,146.92a12.8,12.8,0,1,0,12.79-13.12A13,13,0,0,0,130.77,146.92Zm1.73-.52a11.57,11.57,0,1,1,11.56,11.86A11.71,11.71,0,0,1,132.5,146.4Z"/><ellipse class="cls-20" cx="143.7" cy="146.5" rx="7.41" ry="7.6"/><path class="cls-15" d="M137.67,146.5a6,6,0,1,0,6-6.19A6.11,6.11,0,0,0,137.67,146.5Z"/><path class="cls-21" d="M137.67,146.5a6,6,0,1,0,6-6.19A6.11,6.11,0,0,0,137.67,146.5Zm.59.38a5.07,5.07,0,1,1,5.07,5.19A5.13,5.13,0,0,1,138.26,146.88Z"/><path class="cls-5" d="M141,146.36a2.74,2.74,0,1,0,2.74-2.82A2.78,2.78,0,0,0,141,146.36Z"/><g class="cls-22"><path class="cls-20" d="M142.73,136.13a2.59,2.59,0,0,0,1,.12c.17,0,.14-.24,0-.32a1.62,1.62,0,0,0-1-.25.23.23,0,0,0-.06.45Z"/><path class="cls-20" d="M144.79,135.64c.53.23,1.08.38,1.6.62s.87.45,1.32.62c.23.09.42-.2.31-.39a2.14,2.14,0,0,0-1.31-.72,7.82,7.82,0,0,0-1.85-.39c-.13,0-.2.21-.07.26Z"/><path class="cls-20" d="M146.36,137.74c.4.18.8.38,1.21.54.12,0,.23-.14.13-.22a2.32,2.32,0,0,0-1.28-.53c-.11,0-.16.16-.06.21Z"/><path class="cls-20" d="M148.29,137.86a.58.58,0,0,0,.43.18c.13,0,.17-.15.1-.23a.53.53,0,0,0-.36-.24.18.18,0,0,0-.17.29Z"/><path class="cls-20" d="M150.74,140.7c.27.22.43.51.71.71a.13.13,0,0,0,.2-.11,1.27,1.27,0,0,0-.57-.94c-.24-.19-.58.15-.34.34Z"/><path class="cls-20" d="M151.08,142.25l.1.08a.14.14,0,0,0,.24-.14l0-.12c-.08-.33-.57,0-.32.18Z"/><path class="cls-20" d="M153.47,142.6a1,1,0,0,0,.19.41.2.2,0,0,0,.37-.15.93.93,0,0,0-.18-.42.21.21,0,0,0-.38.16Z"/><path class="cls-20" d="M134.9,152.29l.18.13c.11.08.27,0,.23-.18l-.07-.21c-.14-.4-.7,0-.34.26Z"/><path class="cls-20" d="M136,153.46a7.36,7.36,0,0,0,2.14,2.13c.34.22.67-.34.32-.55a10.59,10.59,0,0,1-2.28-1.72c-.08-.09-.25,0-.18.14Z"/><path class="cls-20" d="M139.2,155.06c.28.21.19.21.46.33a.16.16,0,0,0,.23-.18.82.82,0,0,0-.46-.55c-.25-.18-.47.22-.23.4Z"/><path class="cls-20" d="M141.41,156.57a3,3,0,0,0-1.43-.52c-.09,0-.18.12-.11.2a1.56,1.56,0,0,0,1.52.49c.08,0,.08-.13,0-.17Z"/><path class="cls-20" d="M149.88,137.77a13,13,0,0,0,1.23,1.11c.38.38.64,1,1.1,1.25a.21.21,0,0,0,.31-.18,2.7,2.7,0,0,0-.94-1.4,3.45,3.45,0,0,0-1.49-1.05c-.14,0-.32.13-.21.27Z"/></g><path class="cls-6" d="M123,66.25s-.66,3.57-3.28,4.13a3.7,3.7,0,0,1-3.84-1.13l.18-2.43Z"/><path class="cls-7" d="M125.17,57.91a4.42,4.42,0,0,1,2,3.75c.1,2.72-2.43,4.59-5.53,5.25a27.1,27.1,0,0,1-5.9.56l-5-2.53,9.8-8Z"/><path class="cls-7" d="M119.54,49.76A5.77,5.77,0,0,1,124.79,52c1.88,2.71.38,5.9.38,5.9S116.92,64.38,111.1,65l-3.84-3.19,10-11.44Z"/><path class="cls-7" d="M110.17,44a5.4,5.4,0,0,1,6.93-.38,5.52,5.52,0,0,1,2.44,6.1s-4.78,7.78-12.09,11.71l-2.63-2.9Z"/><path class="cls-7" d="M99.75,42.82c-.27-2.44,2.45-4.69,5.45-4.41s4.87,2.35,5,5.63-3.66,16.31-3.66,16.31l-6.09-3Z"/><path class="cls-6" d="M125.17,57.91c-2,3-10.6,6.66-13.6,6.66l3.1,2.25A19.86,19.86,0,0,0,120.76,64,10.16,10.16,0,0,0,125.17,57.91Z"/><path class="cls-6" d="M119.54,49.76c-.94,3.46-6.84,10.78-10.69,13l2.72,1.78a21.92,21.92,0,0,0,5.72-6.19A14.8,14.8,0,0,0,119.54,49.76Z"/><path class="cls-6" d="M110.17,44c-.57,7-4.32,13.59-5.44,16.12l4.5,2.53a40.79,40.79,0,0,0,2.62-10.22C112.42,46.57,110.17,44,110.17,44Z"/><path class="cls-6" d="M76.68,66.25s.65,3.57,3.28,4.13a3.71,3.71,0,0,0,3.84-1.13l-.19-2.43Z"/><path class="cls-7" d="M74.52,57.91a4.44,4.44,0,0,0-2,3.75c-.09,2.72,2.44,4.59,5.53,5.25a27.21,27.21,0,0,0,5.91.56l5-2.53-9.79-8Z"/><path class="cls-7" d="M80.15,49.76A5.77,5.77,0,0,0,74.9,52c-1.88,2.71-.38,5.9-.38,5.9S82.77,64.38,88.58,65l3.85-3.19-10-11.44Z"/><path class="cls-7" d="M89.52,44a5.41,5.41,0,0,0-6.94-.38,5.53,5.53,0,0,0-2.43,6.1s4.78,7.78,12.09,11.71l2.62-2.9Z"/><path class="cls-7" d="M99.93,42.82c.28-2.44-2.44-4.69-5.44-4.41s-4.88,2.35-5,5.63,3.66,16.31,3.66,16.31l6.09-3Z"/><path class="cls-6" d="M74.52,57.91c2,3,10.59,6.66,13.59,6.66L85,66.82A19.86,19.86,0,0,1,78.93,64,10.11,10.11,0,0,1,74.52,57.91Z"/><path class="cls-6" d="M80.15,49.76c.93,3.46,6.84,10.78,10.68,13l-2.72,1.78a22,22,0,0,1-5.71-6.19A14.8,14.8,0,0,1,80.15,49.76Z"/><path class="cls-6" d="M89.52,44c.56,7,4.31,13.59,5.44,16.12l-4.5,2.53a40.59,40.59,0,0,1-2.63-10.22C87.27,46.57,89.52,44,89.52,44Z"/><path class="cls-6" d="M93.08,59.77c4.59-6.64,6.85-17,6.85-17s3.28,11.88,6.93,17Z"/><path class="cls-8" d="M94.63,45.15c.19,2.59-.45,4.75-1.43,4.82s-2.27-2.8-2.46-5.39.28-3.88,1.77-4S94.44,42.56,94.63,45.15Z"/><path class="cls-8" d="M84.94,49.07c.44,1.82.15,3.45-.64,3.64s-2.15-1.68-2.59-3.5-.19-2.81,1-3.1S84.51,47.24,84.94,49.07Z"/><path class="cls-8" d="M115.2,47.06c-.39,1.18-1.22,2-1.86,1.76s-.91-1.79-.52-3,.94-1.63,1.92-1.31S115.59,45.88,115.2,47.06Z"/><path class="cls-8" d="M104.69,43.78c0,1.87-.67,3.39-1.48,3.39s-1.7-2.14-1.7-4,.48-2.77,1.72-2.77S104.7,41.9,104.69,43.78Z"/><path class="cls-8" d="M78.82,55.76c1.08,1.14,1.48,2.52.89,3.08s-2.47-.13-3.55-1.27-1.26-2-.37-2.87S77.74,54.62,78.82,55.76Z"/><path class="cls-5" d="M116.88,67.4c-1.27-1.54-6.54-3-8.79-5.55s-3-6.42-8.08-6.47h-.08c-5.06,0-5.84,3.88-8.08,6.47s-7.52,4-8.78,5.55a8,8,0,0,0-1.34,6A6.09,6.09,0,0,0,86,77.46c4.36,1.33,10-1.41,12.51-1.27,0,0,1,1.06,1.4,1.06s1.48-1.06,1.48-1.06c2.53-.14,8.15,2.6,12.51,1.27a6.09,6.09,0,0,0,4.29-4.08A8,8,0,0,0,116.88,67.4Z"/><path class="cls-18" d="M97,63.26c.66.65-1.5,2.53-2,2.06S96.57,62.79,97,63.26Z"/><path class="cls-18" d="M102.9,63.26c-.65.65,1.5,2.53,2,2.06S103.37,62.79,102.9,63.26Z"/><path class="cls-9" d="M116.88,67.4c-1.27-1.54-6.54-3-8.79-5.55-2.06-2.38-2.89-5.8-6.93-6.37,1.66.86,3,4.49,4.38,8.48a74.47,74.47,0,0,0,2.95,7.26,2.67,2.67,0,0,0-1-.18c-2.72,0-3.89,2.71-6,5.15h0c2.56-.08,8.12,2.59,12.43,1.27a6.09,6.09,0,0,0,4.29-4.08A8,8,0,0,0,116.88,67.4Z"/><path class="cls-9" d="M92.56,71a2.67,2.67,0,0,0-1,.18,74.47,74.47,0,0,0,3-7.26c1.41-4,2.74-7.67,4.42-8.5-4.14.52-5,4-7.05,6.39-2.25,2.6-7.52,4-8.78,5.55a8,8,0,0,0-1.34,6A6.09,6.09,0,0,0,86,77.46c4.36,1.33,10-1.41,12.51-1.27C96.45,73.75,95.28,71.08,92.56,71Z"/><path class="cls-11" d="M92.56,71a2.67,2.67,0,0,0-1,.18c-1.36.61-4.69,2-5,1.41s.28-1.13-.52-1.17-1.31,1.17-.65,2,2.11.79,3.84,0,2.77-1.74,4.08-1.6c1.14.12,2.89,2.88,3.32,4.58a8,8,0,0,1,1.9-.22C96.45,73.75,95.28,71.08,92.56,71Z"/><path class="cls-11" d="M107.44,71a2.73,2.73,0,0,1,1,.18c1.36.61,4.68,2,5,1.41s-.28-1.13.52-1.17,1.31,1.17.66,2-2.11.79-3.85,0-2.76-1.74-4.08-1.6c-1.14.12-2.89,2.88-3.32,4.58a7.85,7.85,0,0,0-1.9-.22C103.55,73.75,104.73,71.08,107.44,71Z"/><path class="cls-23" d="M93.08,59.77c0,2.86-1.82,5.17-4.08,5.17s-4.07-2.31-4.07-5.17,1.82-5.16,4.07-5.16S93.08,56.92,93.08,59.77Z"/><path class="cls-15" d="M87.89,57.72c-.33.5-.87.73-1.21.51s-.33-.81,0-1.31.87-.73,1.21-.51S88.22,57.22,87.89,57.72Z"/><path class="cls-15" d="M86.85,59.39c-.06.37-.31.63-.56.58s-.39-.37-.32-.74.32-.63.56-.58S86.92,59,86.85,59.39Z"/><path class="cls-18" d="M89,54.61c-2.25,0-4.07,2.31-4.07,5.16s1.82,5.17,4.07,5.17,4.08-2.31,4.08-5.17S91.26,54.61,89,54.61Zm-.18,9.3c-1.91,0-3.45-2-3.45-4.37s1.54-4.37,3.45-4.37,3.45,2,3.45,4.37S90.72,63.91,88.82,63.91Z"/><ellipse class="cls-23" cx="110.94" cy="59.77" rx="4.08" ry="5.17"/><path class="cls-15" d="M109.83,57.72c-.34.5-.88.73-1.21.51s-.34-.81,0-1.31.87-.73,1.2-.51S110.16,57.22,109.83,57.72Z"/><path class="cls-15" d="M108.79,59.39c-.07.37-.32.63-.56.58s-.39-.37-.32-.74.32-.63.56-.58S108.86,59,108.79,59.39Z"/><path class="cls-18" d="M110.94,54.61c-2.25,0-4.08,2.31-4.08,5.16s1.83,5.17,4.08,5.17S115,62.63,115,59.77,113.19,54.61,110.94,54.61Zm-.19,9.3c-1.9,0-3.44-2-3.44-4.37s1.54-4.37,3.44-4.37,3.45,2,3.45,4.37S112.66,63.91,110.75,63.91Z"/></g></g></g></svg>