<svg xmlns="http://www.w3.org/2000/svg" xmlns:xlink="http://www.w3.org/1999/xlink" width="200" zoomAndPan="magnify" viewBox="0 0 150 149.999998" height="200" preserveAspectRatio="xMidYMid meet" version="1.0"><defs><g/><clipPath id="ebabedfe34"><path d="M 1.941406 45.867188 L 112 45.867188 L 112 93 L 1.941406 93 Z M 1.941406 45.867188 " clip-rule="nonzero"/></clipPath><clipPath id="db55a1fb4d"><path d="M 38 57 L 148.191406 57 L 148.191406 104.367188 L 38 104.367188 Z M 38 57 " clip-rule="nonzero"/></clipPath><clipPath id="343829096b"><path d="M 0.480469 5 L 17 5 L 17 21 L 0.480469 21 Z M 0.480469 5 " clip-rule="nonzero"/></clipPath><clipPath id="722f1ed170"><rect x="0" width="18" y="0" height="30"/></clipPath><clipPath id="8aaf1e7d9c"><rect x="0" width="16" y="0" height="30"/></clipPath><clipPath id="322cc6acfe"><rect x="0" width="17" y="0" height="30"/></clipPath><clipPath id="0b367c7f52"><rect x="0" width="16" y="0" height="30"/></clipPath></defs><rect x="-15" width="180" fill="#ffffff" y="-15" height="179.999997" fill-opacity="1"/><rect x="-15" width="180" fill="#000000" y="-15" height="179.999997" fill-opacity="1"/><g clip-path="url(#ebabedfe34)"><path fill="#ffffff" d="M 8.214844 80.996094 C 6.898438 66.304688 35.722656 51.710938 72.601562 48.386719 C 86.980469 47.09375 100.460938 47.703125 111.636719 49.808594 C 100.867188 47.316406 88.347656 45.886719 74.996094 45.886719 C 34.660156 45.886719 1.941406 58.917969 1.941406 74.992188 C 1.941406 81.644531 7.546875 87.777344 16.972656 92.675781 C 11.765625 89.421875 8.621094 85.464844 8.214844 80.996094 Z M 8.214844 80.996094 " fill-opacity="1" fill-rule="nonzero"/></g><g clip-path="url(#db55a1fb4d)"><path fill="#ffffff" d="M 133.015625 57.304688 C 138.222656 60.5625 141.367188 64.519531 141.769531 68.984375 C 143.089844 83.679688 114.265625 98.28125 77.386719 101.597656 C 63.007812 102.890625 49.527344 102.277344 38.351562 100.179688 C 49.109375 102.671875 61.660156 104.101562 74.996094 104.101562 C 115.332031 104.101562 148.050781 91.066406 148.050781 74.992188 C 148.050781 68.339844 142.441406 62.207031 133.015625 57.304688 Z M 133.015625 57.304688 " fill-opacity="1" fill-rule="nonzero"/></g><g transform="matrix(1, 0, 0, 1, 24, 61)"><g clip-path="url(#722f1ed170)"><g clip-path="url(#343829096b)"><g fill="#ffffff" fill-opacity="1"><g transform="translate(1.053069, 20.361249)"><g><path d="M 14.5625 -14.71875 C 14.84375 -14.71875 15.039062 -14.648438 15.15625 -14.515625 C 15.28125 -14.390625 15.34375 -14.175781 15.34375 -13.875 C 15.34375 -13.570312 15.28125 -13.351562 15.15625 -13.21875 C 15.039062 -13.09375 14.84375 -13.03125 14.5625 -13.03125 L 13.890625 -13.03125 L 12.1875 -0.53125 C 12.144531 -0.238281 12.035156 -0.0351562 11.859375 0.078125 C 11.691406 0.203125 11.445312 0.265625 11.125 0.265625 C 10.445312 0.265625 10.023438 0 9.859375 -0.53125 L 7.5625 -7.734375 L 5.25 -0.53125 C 5.070312 0 4.640625 0.265625 3.953125 0.265625 C 3.628906 0.265625 3.382812 0.203125 3.21875 0.078125 C 3.050781 -0.0351562 2.945312 -0.238281 2.90625 -0.53125 L 1.265625 -13.03125 L 0.65625 -13.03125 C 0.375 -13.03125 0.171875 -13.09375 0.046875 -13.21875 C -0.0664062 -13.351562 -0.125 -13.570312 -0.125 -13.875 C -0.125 -14.175781 -0.0664062 -14.390625 0.046875 -14.515625 C 0.171875 -14.648438 0.375 -14.71875 0.65625 -14.71875 L 4.921875 -14.71875 C 5.203125 -14.71875 5.398438 -14.648438 5.515625 -14.515625 C 5.640625 -14.390625 5.703125 -14.175781 5.703125 -13.875 C 5.703125 -13.570312 5.640625 -13.351562 5.515625 -13.21875 C 5.398438 -13.09375 5.203125 -13.03125 4.921875 -13.03125 L 3.109375 -13.03125 L 4.359375 -3.09375 L 6.6875 -10.390625 C 6.800781 -10.773438 7.097656 -10.96875 7.578125 -10.96875 C 7.835938 -10.96875 8.039062 -10.925781 8.1875 -10.84375 C 8.332031 -10.757812 8.429688 -10.632812 8.484375 -10.46875 L 10.796875 -3.09375 L 12.09375 -13.03125 L 10.546875 -13.03125 C 10.265625 -13.03125 10.0625 -13.09375 9.9375 -13.21875 C 9.820312 -13.351562 9.765625 -13.570312 9.765625 -13.875 C 9.765625 -14.175781 9.820312 -14.390625 9.9375 -14.515625 C 10.0625 -14.648438 10.265625 -14.71875 10.546875 -14.71875 Z M 14.5625 -14.71875 "/></g></g></g></g></g></g><g transform="matrix(1, 0, 0, 1, 81, 60)"><g clip-path="url(#8aaf1e7d9c)"><g fill="#ffffff" fill-opacity="1"><g transform="translate(0.493392, 20.565758)"><g><path d="M 11.71875 -14.71875 C 12 -14.71875 12.195312 -14.648438 12.3125 -14.515625 C 12.4375 -14.390625 12.5 -14.175781 12.5 -13.875 C 12.5 -13.570312 12.4375 -13.351562 12.3125 -13.21875 C 12.195312 -13.09375 12 -13.03125 11.71875 -13.03125 L 8.546875 -13.03125 L 8.546875 -1.6875 L 11.96875 -1.6875 C 12.25 -1.6875 12.445312 -1.617188 12.5625 -1.484375 C 12.6875 -1.359375 12.75 -1.144531 12.75 -0.84375 C 12.75 -0.539062 12.6875 -0.320312 12.5625 -0.1875 C 12.445312 -0.0625 12.25 0 11.96875 0 L 3.265625 0 C 2.984375 0 2.78125 -0.0625 2.65625 -0.1875 C 2.539062 -0.320312 2.484375 -0.539062 2.484375 -0.84375 C 2.484375 -1.144531 2.539062 -1.359375 2.65625 -1.484375 C 2.78125 -1.617188 2.984375 -1.6875 3.265625 -1.6875 L 6.6875 -1.6875 L 6.6875 -13.03125 L 3.515625 -13.03125 C 3.234375 -13.03125 3.03125 -13.09375 2.90625 -13.21875 C 2.789062 -13.351562 2.734375 -13.570312 2.734375 -13.875 C 2.734375 -14.175781 2.789062 -14.390625 2.90625 -14.515625 C 3.03125 -14.648438 3.234375 -14.71875 3.515625 -14.71875 Z M 11.71875 -14.71875 "/></g></g></g></g></g><g transform="matrix(1, 0, 0, 1, 109, 61)"><g clip-path="url(#322cc6acfe)"><g fill="#ffffff" fill-opacity="1"><g transform="translate(0.71354, 20.361249)"><g><path d="M 12.390625 -14.984375 C 12.722656 -14.984375 12.957031 -14.921875 13.09375 -14.796875 C 13.238281 -14.671875 13.3125 -14.46875 13.3125 -14.1875 L 13.3125 -10.09375 C 13.3125 -9.800781 13.238281 -9.59375 13.09375 -9.46875 C 12.957031 -9.34375 12.722656 -9.28125 12.390625 -9.28125 C 12.046875 -9.28125 11.800781 -9.34375 11.65625 -9.46875 C 11.519531 -9.59375 11.453125 -9.800781 11.453125 -10.09375 C 11.453125 -10.65625 11.328125 -11.164062 11.078125 -11.625 C 10.828125 -12.09375 10.441406 -12.460938 9.921875 -12.734375 C 9.398438 -13.015625 8.753906 -13.15625 7.984375 -13.15625 C 7.085938 -13.15625 6.296875 -12.914062 5.609375 -12.4375 C 4.921875 -11.96875 4.382812 -11.296875 4 -10.421875 C 3.613281 -9.546875 3.421875 -8.523438 3.421875 -7.359375 C 3.421875 -6.179688 3.601562 -5.15625 3.96875 -4.28125 C 4.332031 -3.40625 4.847656 -2.734375 5.515625 -2.265625 C 6.179688 -1.796875 6.960938 -1.5625 7.859375 -1.5625 C 8.679688 -1.5625 9.460938 -1.679688 10.203125 -1.921875 C 10.941406 -2.160156 11.613281 -2.507812 12.21875 -2.96875 C 12.351562 -3.082031 12.503906 -3.140625 12.671875 -3.140625 C 12.921875 -3.140625 13.140625 -2.976562 13.328125 -2.65625 C 13.472656 -2.40625 13.546875 -2.1875 13.546875 -2 C 13.546875 -1.75 13.421875 -1.53125 13.171875 -1.34375 C 12.398438 -0.8125 11.5625 -0.410156 10.65625 -0.140625 C 9.75 0.128906 8.816406 0.265625 7.859375 0.265625 C 6.566406 0.265625 5.4375 -0.046875 4.46875 -0.671875 C 3.507812 -1.304688 2.769531 -2.195312 2.25 -3.34375 C 1.726562 -4.5 1.46875 -5.835938 1.46875 -7.359375 C 1.46875 -8.867188 1.734375 -10.195312 2.265625 -11.34375 C 2.804688 -12.5 3.5625 -13.394531 4.53125 -14.03125 C 5.5 -14.664062 6.609375 -14.984375 7.859375 -14.984375 C 8.640625 -14.984375 9.328125 -14.851562 9.921875 -14.59375 C 10.523438 -14.332031 11.035156 -13.957031 11.453125 -13.46875 L 11.453125 -14.1875 C 11.453125 -14.46875 11.519531 -14.671875 11.65625 -14.796875 C 11.800781 -14.921875 12.046875 -14.984375 12.390625 -14.984375 Z M 12.390625 -14.984375 "/></g></g></g></g></g><g transform="matrix(1, 0, 0, 1, 53, 61)"><g clip-path="url(#0b367c7f52)"><g fill="#ffffff" fill-opacity="1"><g transform="translate(0.273231, 20.361249)"><g><path d="M 7.3125 -14.984375 C 8.257812 -14.984375 9.085938 -14.816406 9.796875 -14.484375 C 10.515625 -14.148438 11.066406 -13.675781 11.453125 -13.0625 C 11.835938 -12.445312 12.03125 -11.722656 12.03125 -10.890625 C 12.03125 -10.179688 11.863281 -9.566406 11.53125 -9.046875 C 11.207031 -8.535156 10.742188 -8.128906 10.140625 -7.828125 C 10.890625 -7.515625 11.472656 -7.054688 11.890625 -6.453125 C 12.304688 -5.847656 12.515625 -5.125 12.515625 -4.28125 C 12.515625 -3.375 12.3125 -2.578125 11.90625 -1.890625 C 11.507812 -1.210938 10.925781 -0.679688 10.15625 -0.296875 C 9.394531 0.078125 8.476562 0.265625 7.40625 0.265625 C 6.601562 0.265625 5.785156 0.128906 4.953125 -0.140625 C 4.128906 -0.421875 3.390625 -0.804688 2.734375 -1.296875 C 2.492188 -1.472656 2.375 -1.675781 2.375 -1.90625 C 2.375 -2.070312 2.441406 -2.273438 2.578125 -2.515625 C 2.796875 -2.859375 3.035156 -3.03125 3.296875 -3.03125 C 3.429688 -3.03125 3.570312 -2.976562 3.71875 -2.875 C 4.257812 -2.46875 4.847656 -2.144531 5.484375 -1.90625 C 6.128906 -1.675781 6.769531 -1.5625 7.40625 -1.5625 C 8.4375 -1.5625 9.21875 -1.800781 9.75 -2.28125 C 10.289062 -2.769531 10.5625 -3.4375 10.5625 -4.28125 C 10.5625 -5.125 10.289062 -5.765625 9.75 -6.203125 C 9.207031 -6.648438 8.445312 -6.875 7.46875 -6.875 L 6.578125 -6.875 C 6.296875 -6.875 6.09375 -6.9375 5.96875 -7.0625 C 5.851562 -7.195312 5.796875 -7.414062 5.796875 -7.71875 C 5.796875 -8.03125 5.851562 -8.25 5.96875 -8.375 C 6.09375 -8.5 6.296875 -8.5625 6.578125 -8.5625 L 7.25 -8.5625 C 8.195312 -8.5625 8.910156 -8.757812 9.390625 -9.15625 C 9.878906 -9.550781 10.125 -10.128906 10.125 -10.890625 C 10.125 -11.597656 9.878906 -12.148438 9.390625 -12.546875 C 8.910156 -12.953125 8.222656 -13.15625 7.328125 -13.15625 C 6.367188 -13.15625 5.554688 -12.992188 4.890625 -12.671875 L 4.890625 -11.84375 C 4.890625 -11.550781 4.816406 -11.34375 4.671875 -11.21875 C 4.535156 -11.09375 4.296875 -11.03125 3.953125 -11.03125 C 3.617188 -11.03125 3.378906 -11.09375 3.234375 -11.21875 C 3.097656 -11.34375 3.03125 -11.550781 3.03125 -11.84375 L 3.03125 -13.1875 C 3.03125 -13.375 3.054688 -13.519531 3.109375 -13.625 C 3.160156 -13.726562 3.242188 -13.816406 3.359375 -13.890625 C 4.535156 -14.617188 5.851562 -14.984375 7.3125 -14.984375 Z M 7.3125 -14.984375 "/></g></g></g></g></g></svg>