<svg xmlns="http://www.w3.org/2000/svg" width="200" height="200" viewBox="0 0 200 200" version="1.1"><path d="M 114.813 8.683 C 115.534 8.972, 116.397 8.936, 116.729 8.604 C 117.061 8.272, 116.471 8.036, 115.417 8.079 C 114.252 8.127, 114.015 8.364, 114.813 8.683 M 119.813 9.683 C 120.534 9.972, 121.397 9.936, 121.729 9.604 C 122.061 9.272, 121.471 9.036, 120.417 9.079 C 119.252 9.127, 119.015 9.364, 119.813 9.683 M 124 10.613 C 124.825 10.956, 128.425 12.383, 132 13.785 C 157.742 23.874, 180.054 48.494, 188.141 75.734 C 191.240 86.172, 191.677 102.205, 189.190 114.202 C 185.470 132.149, 178.003 146.005, 165.018 159.056 C 152.570 171.567, 138.874 179.405, 121.562 183.927 C 107.556 187.585, 82.517 186.282, 73.178 181.410 C 71.705 180.641, 69.931 180.010, 69.236 180.006 C 68.541 180.003, 67.191 179.605, 66.236 179.122 C 65.281 178.639, 62.800 177.516, 60.722 176.625 C 48.258 171.283, 30.412 154.941, 23.968 142.968 C 22.646 140.511, 20.953 137.752, 20.206 136.838 C 19.460 135.923, 18.744 134.573, 18.617 133.838 C 18.489 133.102, 17.450 130.700, 16.307 128.500 C 13.770 123.614, 11.351 115.132, 9.461 104.500 L 8.040 96.500 8.478 105.500 C 9.462 125.718, 20.315 147.697, 37.869 165.016 C 59.573 186.429, 81.216 194.993, 110.500 193.753 C 116.550 193.497, 122.850 192.975, 124.500 192.593 C 126.150 192.211, 130.353 191.244, 133.840 190.443 C 137.327 189.642, 141.140 188.315, 142.313 187.493 C 143.486 186.672, 145.177 186, 146.072 186 C 146.968 186, 149.564 184.650, 151.841 183 C 154.119 181.350, 156.242 180, 156.558 180 C 157.407 180, 164.003 175.071, 167.854 171.559 C 172.348 167.460, 182.996 153.806, 186.993 147.019 C 190.425 141.190, 195.735 127.682, 196.602 122.573 C 198.319 112.450, 198.840 107.784, 198.916 101.857 C 199.007 94.684, 196.690 81.345, 194.512 76.500 C 193.770 74.850, 192.305 71.250, 191.256 68.500 C 185.192 52.604, 163.618 29.087, 146.056 19.228 C 138.771 15.139, 129.957 11.425, 125.500 10.566 C 123.850 10.248, 123.175 10.269, 124 10.613 M 82.113 13.482 C 63.570 17.686, 50.885 24.309, 38.136 36.443 C 15.170 58.301, 6.928 89.045, 16.048 118.835 C 18.451 126.683, 25.473 141.213, 27.944 143.449 C 28.985 144.391, 27.879 141.507, 25.399 136.807 C 22.987 132.238, 19.774 124.675, 18.260 120 C 15.772 112.323, 15.505 110.095, 15.503 97 C 15.500 84.591, 15.838 81.418, 17.842 75 C 27.288 44.748, 52.920 22.055, 84 16.428 C 127.472 8.557, 169.575 35.563, 183.889 80.500 C 185.910 86.843, 186.722 85.299, 184.941 78.500 C 180.213 60.448, 167.800 41.802, 152.816 30.245 C 144.922 24.156, 131.555 17.419, 122.500 14.965 C 112.067 12.138, 91.392 11.379, 82.113 13.482 M 99.500 19 C 99.840 19.550, 100.568 20, 101.118 20 C 101.668 20, 101.840 19.550, 101.500 19 C 101.160 18.450, 100.432 18, 99.882 18 C 99.332 18, 99.160 18.450, 99.500 19 M 86.629 19.791 C 86.360 20.226, 87.684 20.402, 89.570 20.182 C 91.457 19.961, 93 19.605, 93 19.391 C 93 18.638, 87.113 19.008, 86.629 19.791 M 106 19.750 C 106 20.163, 107.307 20.500, 108.905 20.500 C 110.502 20.500, 111.600 20.163, 111.345 19.750 C 111.091 19.337, 109.784 19, 108.441 19 C 107.098 19, 106 19.337, 106 19.750 M 82.500 21 C 82.840 21.550, 83.316 22, 83.559 22 C 83.802 22, 84 21.550, 84 21 C 84 20.450, 83.523 20, 82.941 20 C 82.359 20, 82.160 20.450, 82.500 21 M 97.500 21 C 97.160 21.550, 97.359 22, 97.941 22 C 98.523 22, 99 21.550, 99 21 C 99 20.450, 98.802 20, 98.559 20 C 98.316 20, 97.840 20.450, 97.500 21 M 118.500 22 C 118.840 22.550, 119.316 23, 119.559 23 C 119.802 23, 120 22.550, 120 22 C 120 21.450, 119.523 21, 118.941 21 C 118.359 21, 118.160 21.450, 118.500 22 M 77.836 23.582 C 78.416 24.727, 79.585 26.241, 80.434 26.946 C 81.283 27.650, 81.731 28.626, 81.430 29.113 C 81.129 29.601, 81.359 30, 81.941 30 C 83.650 30, 83.117 28.726, 79.850 25 C 78.162 23.075, 77.255 22.437, 77.836 23.582 M 67.750 25.662 C 68.438 25.940, 69.563 25.940, 70.250 25.662 C 70.938 25.385, 70.375 25.158, 69 25.158 C 67.625 25.158, 67.063 25.385, 67.750 25.662 M 96 26 C 96 26.550, 96.702 27, 97.559 27 C 98.416 27, 98.840 26.550, 98.500 26 C 98.160 25.450, 97.459 25, 96.941 25 C 96.423 25, 96 25.450, 96 26 M 130 25.471 C 130 26.486, 132.920 27.938, 133.400 27.162 C 133.718 26.648, 133.083 25.993, 131.989 25.707 C 130.895 25.421, 130 25.315, 130 25.471 M 104.813 26.683 C 105.534 26.972, 106.397 26.936, 106.729 26.604 C 107.061 26.272, 106.471 26.036, 105.417 26.079 C 104.252 26.127, 104.015 26.364, 104.813 26.683 M 109 27 C 108.175 27.533, 107.950 27.969, 108.500 27.969 C 109.050 27.969, 110.175 27.533, 111 27 C 111.825 26.467, 112.050 26.031, 111.500 26.031 C 110.950 26.031, 109.825 26.467, 109 27 M 86.500 28 C 85.762 29.194, 87.722 29.194, 90.500 28 C 92.286 27.233, 92.212 27.133, 89.809 27.070 C 88.329 27.032, 86.840 27.450, 86.500 28 M 62.064 28.500 C 62.064 29.050, 62.724 30.374, 63.532 31.441 C 64.339 32.509, 65 32.932, 65 32.382 C 65 31.832, 64.339 30.509, 63.532 29.441 C 62.724 28.374, 62.064 27.950, 62.064 28.500 M 134.543 28.931 C 133.541 30.552, 135.718 31.045, 137.009 29.489 C 138.014 28.278, 137.953 28, 136.681 28 C 135.822 28, 134.859 28.419, 134.543 28.931 M 67.564 30.293 C 67.940 31.279, 68.499 31.834, 68.807 31.526 C 69.115 31.219, 68.808 30.412, 68.124 29.733 C 67.136 28.753, 67.022 28.868, 67.564 30.293 M 57.250 30.662 C 55.560 31.344, 55.661 33, 57.393 33 C 58.159 33, 59.045 32.325, 59.362 31.500 C 59.950 29.967, 59.458 29.771, 57.250 30.662 M 138.968 31.250 C 138.951 31.938, 138.283 33.363, 137.485 34.418 C 136.256 36.042, 135.648 36.160, 133.517 35.190 C 130.104 33.635, 130.311 34.592, 133.774 36.383 C 136.453 37.769, 136.626 37.701, 138.774 34.423 C 141.267 30.620, 141.439 30, 140 30 C 139.450 30, 138.986 30.563, 138.968 31.250 M 71.662 32.618 C 70.100 33.464, 69.046 34.379, 69.319 34.652 C 69.852 35.185, 76 32.262, 76 31.474 C 76 30.656, 74.601 31.025, 71.662 32.618 M 125.813 31.683 C 126.534 31.972, 127.397 31.936, 127.729 31.604 C 128.061 31.272, 127.471 31.036, 126.417 31.079 C 125.252 31.127, 125.015 31.364, 125.813 31.683 M 143.500 33 C 143.160 33.550, 143.359 34, 143.941 34 C 144.523 34, 145 33.550, 145 33 C 145 32.450, 144.802 32, 144.559 32 C 144.316 32, 143.840 32.450, 143.500 33 M 50.250 35.731 C 49.013 36.563, 48 37.714, 48 38.289 C 48 38.863, 48.293 39.040, 48.651 38.682 C 49.009 38.324, 49.887 38.812, 50.601 39.766 C 51.768 41.323, 51.840 41.260, 51.307 39.148 C 50.938 37.688, 51.231 36.475, 52.078 35.952 C 52.828 35.488, 53.230 34.908, 52.971 34.664 C 52.712 34.419, 51.487 34.899, 50.250 35.731 M 65.459 36.067 C 64.383 37.808, 65.608 38.177, 66.980 36.524 C 67.769 35.574, 67.845 35, 67.181 35 C 66.597 35, 65.821 35.480, 65.459 36.067 M 140.594 37.161 C 138.842 39.208, 138.869 39.322, 141.648 41.595 C 143.216 42.878, 144.950 43.928, 145.500 43.928 C 146.050 43.928, 145.182 42.850, 143.570 41.533 C 141.059 39.480, 140.829 38.911, 141.963 37.545 C 142.690 36.669, 143.084 35.751, 142.839 35.506 C 142.594 35.261, 141.584 36.005, 140.594 37.161 M 145.494 37.006 C 144.496 38.110, 143.973 39.307, 144.333 39.667 C 145.063 40.396, 149 37.171, 149 35.845 C 149 34.385, 147.381 34.921, 145.494 37.006 M 61 39.059 C 61 39.641, 61.450 39.840, 62 39.500 C 62.550 39.160, 63 38.684, 63 38.441 C 63 38.198, 62.550 38, 62 38 C 61.450 38, 61 38.477, 61 39.059 M 150.583 39.643 C 149.631 42.126, 150.681 42.465, 151.954 40.086 C 152.568 38.938, 152.653 38, 152.142 38 C 151.632 38, 150.930 38.739, 150.583 39.643 M 68.808 41.469 C 67.858 42.733, 67.353 44.633, 67.657 45.795 C 67.954 46.934, 67.254 51.889, 66.099 56.807 C 62.947 70.234, 63.316 78, 67.107 78 C 68.148 78, 69 78.540, 69 79.200 C 69 79.965, 69.347 80.053, 69.958 79.442 C 70.484 78.916, 71.112 76.383, 71.352 73.814 C 71.684 70.259, 71.477 69.264, 70.484 69.644 C 68.404 70.443, 67.272 63.215, 68.229 55.237 C 68.583 52.280, 69.456 52.090, 72.137 54.385 C 73.891 55.887, 74.708 56.039, 76.155 55.135 C 77.155 54.511, 79.077 54, 80.427 54 C 81.777 54, 83.160 53.550, 83.500 53 C 84.148 51.951, 81.484 51.538, 76.611 51.932 C 74.349 52.114, 73.853 51.825, 74.324 50.598 C 74.700 49.618, 74.158 48.620, 72.877 47.934 C 71.750 47.331, 71.097 46.570, 71.425 46.242 C 71.753 45.914, 73.258 46.831, 74.771 48.280 C 76.800 50.225, 77.910 50.659, 79.010 49.939 C 80.302 49.093, 80.268 48.827, 78.750 47.932 C 77.787 47.365, 77 46.270, 77 45.500 C 77 44.730, 76.213 43.641, 75.250 43.080 C 73.815 42.245, 74.131 42.050, 77 42 C 80.084 41.946, 80.270 41.806, 78.563 40.816 C 74.974 38.733, 70.643 39.023, 68.808 41.469 M 151.339 43.624 C 149.601 45.476, 148.563 47.230, 149.032 47.520 C 150.050 48.149, 157.053 41.386, 156.233 40.567 C 155.325 39.658, 154.684 40.059, 151.339 43.624 M 53.996 43.504 C 52.707 44.877, 52.110 46, 52.671 46 C 53.948 46, 57.495 42.162, 56.831 41.498 C 56.562 41.228, 55.286 42.131, 53.996 43.504 M 127 41.999 C 127 42.628, 125.914 42.774, 124.250 42.369 C 121.587 41.722, 121.554 41.762, 123.227 43.653 C 124.917 45.565, 124.844 45.599, 119.727 45.250 C 114.875 44.920, 114.617 45.013, 116.133 46.545 C 117.479 47.904, 118.162 47.984, 120.008 46.996 C 121.738 46.070, 122.755 46.066, 124.461 46.979 C 126.334 47.982, 127.236 47.780, 130.363 45.657 C 132.430 44.255, 133.596 42.868, 133.011 42.507 C 131.057 41.299, 127 40.957, 127 41.999 M 41.500 43 C 41.160 43.550, 41.584 44, 42.441 44 C 43.298 44, 44 43.550, 44 43 C 44 42.450, 43.577 42, 43.059 42 C 42.541 42, 41.840 42.450, 41.500 43 M 69.733 43.124 C 70.412 43.808, 71.219 44.115, 71.526 43.807 C 71.834 43.499, 71.279 42.940, 70.293 42.564 C 68.868 42.022, 68.753 42.136, 69.733 43.124 M 38.500 46 C 38.160 46.550, 38.505 47, 39.267 47 C 40.028 47, 41.722 48.140, 43.030 49.532 L 45.410 52.065 42.705 54.573 C 41.217 55.952, 40 57.376, 40 57.737 C 40 58.097, 41.507 56.931, 43.350 55.146 L 46.699 51.899 43.250 48.450 C 39.415 44.615, 39.370 44.592, 38.500 46 M 44.500 46 C 44.840 46.550, 45.316 47, 45.559 47 C 45.802 47, 46 46.550, 46 46 C 46 45.450, 45.523 45, 44.941 45 C 44.359 45, 44.160 45.450, 44.500 46 M 158.241 46.986 C 156.410 49.917, 156.730 50.554, 159 48.500 C 161.031 46.662, 161.620 45, 160.241 45 C 159.823 45, 158.923 45.894, 158.241 46.986 M 48 48 C 47.207 48.490, 46.890 49.223, 47.296 49.629 C 47.701 50.035, 48.558 49.842, 49.200 49.200 C 49.842 48.558, 50.159 47.825, 49.904 47.571 C 49.650 47.317, 48.793 47.510, 48 48 M 106.998 48.023 C 105.816 48.770, 106.027 48.985, 108 49.044 C 109.375 49.085, 112.238 49.250, 114.363 49.412 C 117.052 49.616, 117.738 49.433, 116.622 48.808 C 114.139 47.419, 108.661 46.971, 106.998 48.023 M 70 50 C 70 50.550, 70.477 51, 71.059 51 C 71.641 51, 71.840 50.550, 71.500 50 C 71.160 49.450, 70.684 49, 70.441 49 C 70.198 49, 70 49.450, 70 50 M 138.015 50.798 C 138.007 52.062, 136.876 54.137, 135.503 55.410 C 134.129 56.683, 132.749 59.249, 132.437 61.112 C 132.124 62.976, 131.692 65.404, 131.476 66.508 C 131.260 67.613, 131.472 69.146, 131.948 69.916 C 132.624 71.009, 133.599 70.459, 136.402 67.408 C 139.691 63.826, 139.990 63, 139.980 57.500 C 139.974 54.200, 139.533 50.825, 139 50 C 138.219 48.792, 138.028 48.947, 138.015 50.798 M 159.176 51.051 C 157.965 52.179, 156.530 52.828, 155.987 52.492 C 155.444 52.156, 155 52.359, 155 52.941 C 155 54.573, 158.988 54.194, 159.638 52.500 C 159.955 51.675, 161.066 51, 162.107 51 C 163.148 51, 164 50.550, 164 50 C 164 48.334, 161.510 48.876, 159.176 51.051 M 34.667 50.667 C 33.469 51.864, 33.965 53.773, 35.641 54.416 C 36.974 54.927, 37.059 54.776, 36.093 53.612 C 34.432 51.611, 36.368 50.621, 39.229 52.009 C 41.406 53.065, 41.420 53.046, 39.559 51.555 C 37.490 49.897, 35.752 49.582, 34.667 50.667 M 164.062 54.640 C 162.565 56.195, 160.940 56.956, 159.769 56.650 C 157.788 56.132, 157.754 58.085, 159.733 58.744 C 160.983 59.161, 167.782 53.448, 166.985 52.651 C 166.702 52.368, 165.387 53.263, 164.062 54.640 M 31 55.814 C 31 57.147, 38.904 60.965, 39.538 59.938 C 39.857 59.422, 39.477 59, 38.694 59 C 37.911 59, 36.126 58.100, 34.727 57 C 31.987 54.845, 31 54.531, 31 55.814 M 164.665 59.420 C 162.538 60.727, 161.297 62.066, 161.878 62.425 C 162.455 62.781, 163.843 62.157, 164.964 61.036 C 167.297 58.703, 168.640 58.458, 169.280 60.250 C 169.525 60.938, 170.023 61.227, 170.387 60.893 C 171.145 60.196, 170.110 56.984, 169.143 57.031 C 168.789 57.048, 166.774 58.123, 164.665 59.420 M 29 59.059 C 29 59.641, 29.450 59.840, 30 59.500 C 30.550 59.160, 31 58.684, 31 58.441 C 31 58.198, 30.550 58, 30 58 C 29.450 58, 29 58.477, 29 59.059 M 27.046 61.771 C 27.071 62.172, 29.077 63.437, 31.503 64.581 C 35.084 66.271, 36.015 66.402, 36.446 65.279 C 36.749 64.490, 36.534 64.170, 35.945 64.534 C 35.377 64.885, 34.370 64.771, 33.706 64.282 C 31.639 62.756, 26.998 61.006, 27.046 61.771 M 103.250 63.209 C 100.683 64.460, 100.584 64.870, 102.303 67.128 C 103.297 68.435, 105.257 68.726, 112.243 68.606 C 117.599 68.514, 121.416 67.984, 122.172 67.228 C 123.143 66.257, 122.992 65.975, 121.450 65.882 C 120.377 65.816, 119.050 65.880, 118.500 66.024 C 113.586 67.305, 108.354 67.653, 107.500 66.757 C 106.827 66.050, 106.861 65.908, 107.603 66.321 C 108.755 66.964, 112.868 64.510, 111.998 63.699 C 110.742 62.526, 105.279 62.220, 103.250 63.209 M 168.303 64.962 C 166.590 66.003, 164.921 66.588, 164.594 66.261 C 164.268 65.934, 164 66.165, 164 66.774 C 164 67.384, 164.450 68.160, 165 68.500 C 165.550 68.840, 166 68.714, 166 68.220 C 166 67.449, 170.219 65, 171.547 65 C 171.796 65, 172 65.675, 172 66.500 C 172 68.127, 173.552 68.534, 174.417 67.134 C 174.712 66.657, 174.157 65.547, 173.185 64.668 C 171.561 63.197, 171.165 63.221, 168.303 64.962 M 89 65.206 L 85.500 66.233 90 67.601 C 92.475 68.354, 94.612 68.976, 94.750 68.985 C 94.888 68.993, 95 67.875, 95 66.500 C 95 63.791, 94.325 63.645, 89 65.206 M 139.028 67.448 C 137.544 70.220, 138.473 72.367, 140.120 69.971 C 140.869 68.881, 140.957 69.148, 140.458 71 C 139.831 73.331, 139.900 73.390, 141.487 71.870 C 142.991 70.429, 143.027 69.929, 141.790 67.570 L 140.392 64.900 139.028 67.448 M 25 67 C 25 67.550, 25.413 68, 25.918 68 C 26.423 68, 27.661 68.262, 28.668 68.582 C 30.344 69.114, 30.335 69.029, 28.559 67.582 C 26.336 65.770, 25 65.552, 25 67 M 79.441 70.509 C 77.665 71.889, 77.968 71.963, 83 71.378 C 90.702 70.483, 92.776 69.068, 86.441 69.030 C 83.414 69.012, 80.603 69.606, 79.441 70.509 M 167 71 C 167 71.550, 167.477 72, 168.059 72 C 168.641 72, 168.840 71.550, 168.500 71 C 168.160 70.450, 167.684 70, 167.441 70 C 167.198 70, 167 70.450, 167 71 M 24 72 C 24.825 72.533, 26.175 72.969, 27 72.969 C 28.333 72.969, 28.333 72.862, 27 72 C 26.175 71.467, 24.825 71.031, 24 71.031 C 22.667 71.031, 22.667 71.138, 24 72 M 175.638 73.500 C 175.288 74.414, 175.637 75, 176.531 75 C 177.339 75, 178 74.325, 178 73.500 C 178 72.675, 177.598 72, 177.107 72 C 176.616 72, 175.955 72.675, 175.638 73.500 M 142.046 74.445 C 141.386 75.240, 140.994 76.853, 141.173 78.029 C 141.431 79.719, 141.731 79.416, 142.601 76.584 C 143.828 72.588, 143.771 72.367, 142.046 74.445 M 169 75 C 167.718 75.828, 167.754 75.972, 169.250 75.985 C 170.213 75.993, 171 75.550, 171 75 C 171 73.780, 170.887 73.780, 169 75 M 22.750 75.662 C 23.438 75.940, 24.563 75.940, 25.250 75.662 C 25.938 75.385, 25.375 75.158, 24 75.158 C 22.625 75.158, 22.063 75.385, 22.750 75.662 M 132.839 77.300 C 132.289 78.329, 132.007 79.340, 132.213 79.546 C 133.119 80.453, 136.856 78.657, 137.258 77.122 C 137.881 74.739, 134.129 74.891, 132.839 77.300 M 139.079 76.583 C 139.127 77.748, 139.364 77.985, 139.683 77.188 C 139.972 76.466, 139.936 75.603, 139.604 75.271 C 139.272 74.939, 139.036 75.529, 139.079 76.583 M 28.250 76.689 C 29.212 76.941, 30 77.590, 30 78.132 C 30 78.674, 30.450 78.840, 31 78.500 C 32.931 77.307, 31.972 76.001, 29.250 76.116 C 27.558 76.187, 27.173 76.408, 28.250 76.689 M 72.691 79.206 C 73.044 80.969, 73.823 83.332, 74.422 84.456 C 75.678 86.811, 79 87.743, 79 85.741 C 79 84.480, 73.288 76, 72.438 76 C 72.225 76, 72.339 77.443, 72.691 79.206 M 124.174 78.314 C 121.699 80.949, 121.350 83, 123.378 83 C 125.043 83, 126.516 81.280, 127.445 78.250 C 128.334 75.351, 126.932 75.379, 124.174 78.314 M 173.079 77.265 C 171.747 77.944, 170.437 79.175, 170.166 80 C 169.767 81.218, 169.953 81.270, 171.156 80.278 C 171.971 79.606, 174.182 78.386, 176.069 77.567 C 178.444 76.537, 178.884 76.071, 177.500 76.054 C 176.400 76.040, 174.411 76.585, 173.079 77.265 M 21 78.981 C 21 79.541, 21.788 80.006, 22.750 80.014 C 23.712 80.021, 25.625 80.277, 27 80.582 C 28.803 80.983, 29.082 80.877, 28 80.204 C 25.515 78.657, 21 77.868, 21 78.981 M 29 83.393 C 29 84.159, 28.288 85.059, 27.418 85.393 C 24.938 86.345, 21 86.104, 21 85 C 21 84.450, 20.564 84, 20.031 84 C 19.499 84, 19.322 84.675, 19.638 85.500 C 20.014 86.478, 21.569 87, 24.107 87 C 26.248 87, 28 87.477, 28 88.059 C 28 88.641, 28.381 88.883, 28.847 88.595 C 29.700 88.067, 30.239 82, 29.433 82 C 29.195 82, 29 82.627, 29 83.393 M 96.739 83.959 C 92.354 84.810, 91.525 85.422, 92.538 87.061 C 93.052 87.893, 95.110 88.064, 99.307 87.626 C 106.330 86.892, 107.207 86.356, 104.557 84.418 C 102.458 82.883, 102.327 82.876, 96.739 83.959 M 177.157 85.995 C 173.440 86.874, 171.243 88.577, 172.371 89.704 C 172.777 90.110, 173.425 89.930, 173.812 89.304 C 174.199 88.678, 176.058 87.990, 177.944 87.775 C 179.829 87.560, 181.551 86.847, 181.769 86.192 C 182.210 84.871, 181.956 84.860, 177.157 85.995 M 43.531 87.293 C 43.103 88.279, 43.034 89.367, 43.376 89.710 C 44.392 90.725, 45.211 89.299, 44.743 87.328 C 44.329 85.581, 44.275 85.580, 43.531 87.293 M 52.710 88 C 52.998 89.100, 53.589 90, 54.023 90 C 54.457 90, 54.577 89.100, 54.290 88 C 54.002 86.900, 53.411 86, 52.977 86 C 52.543 86, 52.423 86.900, 52.710 88 M 57.079 87.750 C 56.998 90.043, 59.329 90.894, 60.500 89 C 60.840 88.450, 60.454 88, 59.642 88 C 58.831 88, 57.940 87.438, 57.662 86.750 C 57.385 86.063, 57.122 86.513, 57.079 87.750 M 137.242 88.966 C 136.442 90.258, 134.920 91, 133.069 91 C 130.638 91, 129.968 91.567, 129.026 94.420 C 128.406 96.301, 127.176 98.439, 126.294 99.170 C 125.412 99.902, 124.079 101.963, 123.332 103.750 C 121.987 106.966, 121.047 107.377, 115.819 107.038 C 114.344 106.942, 111.982 107.621, 110.569 108.547 C 106.770 111.036, 95.722 111.703, 92.565 109.635 C 91.193 108.736, 89.301 108, 88.361 108 C 86.860 108, 86.906 108.274, 88.738 110.250 C 90.381 112.023, 90.560 112.740, 89.579 113.633 C 88.041 115.034, 85.476 113.758, 83.896 110.806 C 82.938 109.016, 83.014 108.791, 84.395 109.322 C 85.865 109.885, 85.883 109.675, 84.584 107.162 C 83.792 105.631, 81.823 103.056, 80.207 101.439 C 78.592 99.823, 76.997 97.375, 76.664 96 C 76.330 94.625, 74.919 92.980, 73.528 92.344 C 70.541 90.978, 70.228 91.992, 72.893 94.404 C 73.935 95.346, 75.802 99.275, 77.044 103.136 L 79.300 110.154 76.900 112.430 C 75.386 113.865, 68.043 116.773, 57 120.309 C 47.375 123.391, 38.669 126.521, 37.653 127.264 C 35.886 128.557, 35.923 128.755, 38.508 131.827 C 42.541 136.620, 48.428 139.630, 59.527 142.574 C 72.002 145.883, 72.828 146.333, 74.683 150.830 C 76.918 156.248, 80.628 160.739, 85.330 163.718 C 89.120 166.119, 90.338 166.347, 98.703 166.213 C 110.697 166.022, 113.618 164.716, 119.885 156.741 C 124.884 150.380, 125.114 150.232, 140.619 143.404 C 150.665 138.981, 157.772 135.182, 160.399 132.831 L 164.500 129.162 154.500 124.593 C 139.644 117.805, 139.800 117.917, 135.699 111.135 C 132.132 105.235, 131.968 104.617, 133.056 101.172 C 133.693 99.153, 135.331 95.844, 136.694 93.821 C 138.058 91.797, 139.022 89.420, 138.837 88.537 C 138.556 87.199, 138.291 87.270, 137.242 88.966 M 50.500 89 C 50.840 89.550, 51.316 90, 51.559 90 C 51.802 90, 52 89.550, 52 89 C 52 88.450, 51.523 88, 50.941 88 C 50.359 88, 50.160 88.450, 50.500 89 M 38 90 C 38 90.550, 38.423 91, 38.941 91 C 39.459 91, 40.160 90.550, 40.500 90 C 40.840 89.450, 40.416 89, 39.559 89 C 38.702 89, 38 89.450, 38 90 M 44.374 95.250 C 44.826 96.655, 44.341 97, 41.910 97 C 40.146 97, 39.140 97.417, 39.500 98 C 39.840 98.550, 41.891 99, 44.059 99 C 47.293 99, 48 98.652, 48 97.059 C 48 95.991, 47.592 94.866, 47.093 94.558 C 46.595 94.249, 46.422 94.898, 46.710 95.999 C 47.014 97.162, 46.741 98, 46.058 98 C 45.411 98, 45.104 97.641, 45.375 97.202 C 45.646 96.763, 45.405 95.751, 44.840 94.952 C 44.001 93.768, 43.915 93.823, 44.374 95.250 M 51.797 95.851 C 51.369 97.368, 50.701 97.933, 49.913 97.446 C 49.137 96.967, 48.948 97.107, 49.396 97.832 C 50.166 99.078, 53.488 98.892, 54.724 97.532 C 55.151 97.063, 54.970 96.983, 54.321 97.355 C 53.593 97.772, 53.012 97.165, 52.801 95.765 L 52.459 93.500 51.797 95.851 M 58.032 94.559 C 58.126 97.351, 65 100.734, 65 97.988 C 65 97.445, 64.582 97.112, 64.071 97.250 C 63.559 97.388, 62.433 96.600, 61.568 95.500 L 59.995 93.500 60.579 95.500 C 61.155 97.473, 61.142 97.473, 59.582 95.559 C 58.712 94.491, 58.014 94.041, 58.032 94.559 M 97.674 95.113 C 94.470 95.464, 91.320 96.308, 90.674 96.988 C 89.749 97.963, 90.030 98.042, 92 97.362 C 93.375 96.888, 97.945 96.500, 102.156 96.500 C 106.366 96.500, 109.634 96.214, 109.418 95.865 C 108.739 94.770, 103.726 94.449, 97.674 95.113 M 130.119 98.441 C 129.504 100.883, 128.548 103.162, 127.993 103.504 C 127.439 103.847, 126.257 105.561, 125.366 107.313 L 123.746 110.500 126.373 108.076 C 130.208 104.537, 129.583 106.349, 125.354 111.030 C 123.349 113.249, 118.903 116.634, 115.475 118.551 L 109.241 122.037 103.410 120.519 C 100.204 119.683, 95.977 119, 94.018 119 C 91.498 119, 89.338 118.079, 86.637 115.853 L 82.819 112.705 83.488 118.103 C 84.125 123.247, 84.008 123.640, 80.986 126.500 C 69.470 137.401, 72.938 154.459, 87.950 160.748 C 90.257 161.715, 93.923 162.079, 99.023 161.847 C 108.038 161.437, 112.309 159.114, 117.129 152 C 120.041 147.701, 120.155 147.143, 119.693 139.500 L 119.208 131.500 124.809 122.137 C 129.174 114.841, 130.460 111.750, 130.636 108.137 C 130.761 105.587, 131.583 101.793, 132.463 99.706 C 133.990 96.086, 133.843 94, 132.060 94 C 131.607 94, 130.734 95.998, 130.119 98.441 M 35 97.365 C 35 98.081, 35.675 98.667, 36.500 98.667 C 37.325 98.667, 38 98.340, 38 97.940 C 38 97.541, 37.325 96.955, 36.500 96.638 C 35.640 96.308, 35 96.618, 35 97.365 M 173.500 97 C 173.840 97.550, 174.316 98, 174.559 98 C 174.802 98, 175 97.550, 175 97 C 175 96.450, 174.523 96, 173.941 96 C 173.359 96, 173.160 96.450, 173.500 97 M 178.500 97 C 176.205 97.584, 176.009 97.791, 177.668 97.882 C 178.861 97.947, 180.548 98.273, 181.418 98.607 C 182.456 99.005, 183 98.662, 183 97.607 C 183 95.870, 182.960 95.865, 178.500 97 M 93.450 99.884 C 91.987 101.346, 93.737 101.914, 99.413 101.817 C 104.389 101.732, 105.708 101.402, 105.301 100.343 C 104.932 99.380, 103.177 99.045, 99.339 99.206 C 96.347 99.331, 93.697 99.636, 93.450 99.884 M 174 102 C 174 102.550, 176.025 103, 178.500 103 C 180.975 103, 183 102.550, 183 102 C 183 101.450, 180.975 101, 178.500 101 C 176.025 101, 174 101.450, 174 102 M 31.158 104 C 31.158 105.375, 31.385 105.938, 31.662 105.250 C 31.940 104.563, 31.940 103.438, 31.662 102.750 C 31.385 102.063, 31.158 102.625, 31.158 104 M 36 103 C 36 103.550, 36.477 104, 37.059 104 C 37.641 104, 37.840 103.550, 37.500 103 C 37.160 102.450, 36.684 102, 36.441 102 C 36.198 102, 36 102.450, 36 103 M 43.459 104.067 C 43.096 104.653, 43.014 105.348, 43.276 105.610 C 43.538 105.872, 44.019 105.392, 44.345 104.543 C 45.021 102.781, 44.445 102.471, 43.459 104.067 M 55 104.441 C 55 105.298, 55.450 106, 56 106 C 56.550 106, 57 105.577, 57 105.059 C 57 104.541, 56.550 103.840, 56 103.500 C 55.450 103.160, 55 103.584, 55 104.441 M 60.500 105 C 60.160 105.550, 60.610 106, 61.500 106 C 62.390 106, 62.840 105.550, 62.500 105 C 62.160 104.450, 61.710 104, 61.500 104 C 61.290 104, 60.840 104.450, 60.500 105 M 29.609 108.177 C 30.300 109.294, 38 109.229, 38 108.106 C 38 107.615, 35.998 107.244, 33.550 107.283 C 31.103 107.321, 29.329 107.724, 29.609 108.177 M 41.177 107.507 C 42.122 108.456, 57 109.144, 56.999 108.239 C 56.999 107.832, 53.287 107.349, 48.749 107.164 C 44.212 106.979, 40.804 107.134, 41.177 107.507 M 59.500 108 C 59.840 108.550, 60.740 109, 61.500 109 C 62.260 109, 63.160 108.550, 63.500 108 C 63.852 107.431, 62.991 107, 61.500 107 C 60.009 107, 59.148 107.431, 59.500 108 M 114 110.500 C 113.246 111.408, 113.166 112, 113.796 112 C 115.633 112, 118 110.814, 118 109.893 C 118 108.462, 115.359 108.863, 114 110.500 M 172.334 116.500 C 172.793 117.879, 176.246 117.763, 176.716 116.353 C 176.944 115.668, 176.072 115.265, 174.550 115.353 C 173.148 115.434, 172.151 115.950, 172.334 116.500 M 164.500 124 C 164.840 124.550, 166.216 125, 167.559 125 C 168.902 125, 170 124.550, 170 124 C 170 123.450, 168.623 123, 166.941 123 C 165.156 123, 164.139 123.417, 164.500 124 M 32 128 C 30.718 128.828, 30.754 128.972, 32.250 128.985 C 33.212 128.993, 34 128.550, 34 128 C 34 126.780, 33.887 126.780, 32 128 M 165 134.059 C 165 134.641, 165.450 134.840, 166 134.500 C 166.550 134.160, 167 133.684, 167 133.441 C 167 133.198, 166.550 133, 166 133 C 165.450 133, 165 133.477, 165 134.059 M 167.459 136.067 C 167.096 136.653, 167.005 137.339, 167.257 137.590 C 167.954 138.288, 171 136.907, 171 135.893 C 171 134.641, 168.257 134.776, 167.459 136.067 M 164 137.878 C 164 140.793, 169.871 141.890, 170.785 139.145 C 171.107 138.179, 170.654 137.975, 169.202 138.436 C 168.084 138.791, 166.879 138.613, 166.525 138.041 C 165.743 136.775, 164 136.662, 164 137.878 M 159.458 142.068 C 159.095 142.656, 158.168 142.895, 157.399 142.600 C 156.629 142.304, 156 142.529, 156 143.098 C 156 144.549, 161.256 143.775, 161.756 142.250 C 162.256 140.727, 160.379 140.578, 159.458 142.068 M 39 143 C 39 143.550, 39.648 144, 40.441 144 C 41.234 144, 42.160 143.550, 42.500 143 C 42.840 142.450, 42.191 142, 41.059 142 C 39.927 142, 39 142.450, 39 143 M 162.713 143.991 C 162.346 145.392, 161.620 145.725, 159.861 145.299 C 157.923 144.830, 157.724 144.967, 158.750 146.064 C 160.883 148.344, 160.125 149.312, 157.535 147.615 C 153.685 145.092, 152.369 145.720, 155.594 148.541 C 158.406 151, 158.438 151.129, 156.582 152.524 C 155.141 153.608, 154.327 153.686, 153.308 152.841 C 152.562 152.221, 151.625 152.066, 151.226 152.494 C 150.827 152.923, 151.063 153.475, 151.750 153.720 C 152.438 153.966, 153 154.852, 153 155.690 C 153 156.634, 152.429 156.995, 151.500 156.638 C 150.604 156.294, 150 156.630, 150 157.472 C 150 160.250, 147.736 160.204, 145.425 157.377 C 143.634 155.187, 143.063 154.909, 143.036 156.215 C 143.016 157.158, 143.948 158.437, 145.107 159.057 C 146.567 159.839, 146.895 160.505, 146.174 161.226 C 145.453 161.947, 144.327 161.381, 142.510 159.383 C 140.134 156.771, 139.946 156.712, 140.511 158.751 C 141.079 160.797, 140.912 160.917, 138.679 160.068 C 136.533 159.252, 136.286 159.379, 136.728 161.067 C 137.317 163.322, 137.143 163.276, 140.435 162.025 C 142.501 161.239, 143 161.349, 143 162.592 C 143 163.686, 142.411 163.948, 140.975 163.492 C 139.657 163.074, 139.046 163.268, 139.225 164.050 C 139.779 166.468, 136.993 166.079, 135.854 163.579 C 135.208 162.160, 133.851 161, 132.839 161 C 130.276 161, 130.542 162.058, 133.750 164.623 C 137.428 167.562, 135.942 168.807, 132.058 166.041 C 130.376 164.844, 129 164.318, 129 164.873 C 129 165.428, 129.450 166.160, 130 166.500 C 131.312 167.311, 131.292 170, 129.975 170 C 129.411 170, 128.680 168.650, 128.350 167 C 128.020 165.350, 127.356 164, 126.875 164 C 125.806 164, 125.805 163.832, 126.898 167.643 C 127.694 170.419, 127.519 170.898, 125.350 171.886 C 121.997 173.414, 119.479 173.282, 118 171.500 C 116.212 169.345, 114.736 169.639, 115.950 171.907 C 116.820 173.532, 116.512 173.975, 113.871 174.895 C 109.961 176.258, 109 175.654, 109 171.834 C 109 169.465, 108.647 168.921, 107.418 169.393 C 106.548 169.727, 105.198 170, 104.418 170 C 103.638 170, 103 170.952, 103 172.117 C 103 173.835, 103.470 174.143, 105.500 173.755 C 107.176 173.435, 108 173.726, 108 174.639 C 108 176.377, 102.328 176.478, 101.746 174.750 C 101.418 173.776, 100.958 173.803, 99.660 174.875 C 98.619 175.734, 96.871 176.024, 94.998 175.650 C 92.836 175.217, 92 175.432, 92 176.418 C 92 177.170, 92.712 178.059, 93.582 178.393 C 96.010 179.325, 106.968 179.032, 112 177.902 C 114.475 177.346, 118.300 176.521, 120.500 176.069 C 136.526 172.778, 157.374 159.179, 165.173 146.931 C 166.704 144.527, 166.693 144.289, 165.007 143.236 C 163.533 142.316, 163.115 142.453, 162.713 143.991 M 45.667 147.667 C 44.434 148.899, 44.951 150.285, 46.250 149.230 C 46.938 148.672, 48.400 147.994, 49.500 147.724 C 51.109 147.328, 50.996 147.209, 48.917 147.116 C 47.496 147.052, 46.033 147.300, 45.667 147.667 M 150 149 C 150 149.550, 150.413 150, 150.918 150 C 151.423 150, 152.661 150.312, 153.668 150.694 C 155.384 151.344, 155.394 151.281, 153.821 149.694 C 151.959 147.814, 150 147.458, 150 149 M 47.538 150.348 C 45.457 151.870, 46.227 154, 48.859 154 C 51.162 154, 52.976 152.100, 52.315 150.378 C 51.645 148.633, 49.899 148.622, 47.538 150.348 M 48.510 152.016 C 48.856 152.575, 49.557 152.774, 50.069 152.457 C 51.456 151.600, 51.198 151, 49.441 151 C 48.584 151, 48.165 151.457, 48.510 152.016 M 147 152.837 C 147 154.103, 146.555 154.843, 146 154.500 C 145.450 154.160, 145 154.373, 145 154.972 C 145 156.562, 147.958 157.442, 149.183 156.217 C 149.914 155.486, 149.743 154.471, 148.616 152.862 L 147 150.555 147 152.837 M 43 153.316 C 43 157.608, 62.504 170.483, 75.718 174.914 C 83.607 177.560, 86 177.594, 86 175.059 C 86 173.991, 86.450 172.840, 87 172.500 C 88.775 171.403, 88.062 170.171, 85.968 170.719 C 84.851 171.011, 83.464 172.132, 82.887 173.211 C 81.483 175.835, 80.658 174.777, 80.571 170.238 C 80.514 167.217, 80.093 166.442, 78.377 166.197 C 76.773 165.968, 76.132 166.530, 75.756 168.495 C 75.371 170.513, 75.623 171.021, 76.879 170.760 C 77.771 170.575, 78.438 169.658, 78.363 168.722 C 78.288 167.787, 78.625 167.268, 79.113 167.570 C 80.479 168.414, 80.163 172, 78.672 172.572 C 77.942 172.852, 76.128 172.619, 74.640 172.053 C 72.005 171.051, 71.975 170.949, 73.468 168.062 C 75.365 164.393, 75.378 163.918, 73.558 164.616 C 72.766 164.920, 71.978 166.144, 71.808 167.335 C 71.614 168.697, 70.665 169.619, 69.250 169.820 C 66.481 170.213, 66.433 169.536, 69 166.273 C 71.372 163.258, 71.586 161, 69.500 161 C 68.675 161, 68 161.575, 68 162.277 C 68 162.980, 67.298 164.557, 66.441 165.781 C 65.164 167.603, 64.520 167.813, 62.887 166.940 C 60.946 165.901, 60.961 165.819, 63.446 163.864 C 66.052 161.814, 66.889 159, 64.894 159 C 64.286 159, 62.903 160.125, 61.821 161.500 C 59.545 164.394, 59.188 164.456, 56.505 162.429 C 54.822 161.157, 54.739 160.779, 55.971 160.018 C 56.849 159.475, 57.883 159.488, 58.560 160.049 C 59.320 160.681, 60.055 160.175, 60.822 158.492 C 62.268 155.318, 60.419 155.096, 56.727 158 C 55.329 159.100, 53.384 160, 52.405 160 C 50.941 160, 51.134 159.470, 53.490 157.010 C 56.789 153.567, 56.261 151.747, 52.878 154.899 C 49.958 157.619, 48.457 157.548, 45.455 154.545 C 44.105 153.195, 43 152.642, 43 153.316 M 120.529 166.355 C 119.273 167.274, 118.906 168.313, 119.391 169.577 C 119.997 171.156, 120.251 171.217, 121.038 169.972 C 121.668 168.976, 121.974 168.904, 121.985 169.750 C 121.993 170.438, 122.525 171, 123.167 171 C 123.808 171, 124.037 170.704, 123.675 170.342 C 123.313 169.980, 123.502 169.100, 124.095 168.386 C 125.165 167.097, 124.569 165, 123.132 165 C 122.720 165, 121.548 165.610, 120.529 166.355 M 111 170.583 C 111 173.716, 113.348 173.373, 113.820 170.172 C 114.032 168.729, 113.612 168, 112.570 168 C 111.549 168, 111 168.903, 111 170.583 M 94.667 169.667 C 94.300 170.033, 94 171.158, 94 172.167 C 94 174.166, 97.384 174.676, 99.936 173.061 C 101.126 172.308, 101.147 171.883, 100.063 170.576 C 98.722 168.961, 95.856 168.477, 94.667 169.667" stroke="none" fill="#2d2313" fill-rule="evenodd"/><path d="M -0 100.005 L -0 200.010 100.250 199.755 L 200.500 199.500 200.755 99.750 L 201.010 0 100.505 0 L 0 0 -0 100.005 M 0.481 100.500 C 0.481 155.500, 0.602 178.147, 0.750 150.826 C 0.898 123.506, 0.898 78.506, 0.750 50.826 C 0.602 23.147, 0.481 45.500, 0.481 100.500 M 114.813 8.683 C 115.534 8.972, 116.397 8.936, 116.729 8.604 C 117.061 8.272, 116.471 8.036, 115.417 8.079 C 114.252 8.127, 114.015 8.364, 114.813 8.683 M 119.813 9.683 C 120.534 9.972, 121.397 9.936, 121.729 9.604 C 122.061 9.272, 121.471 9.036, 120.417 9.079 C 119.252 9.127, 119.015 9.364, 119.813 9.683 M 124 10.613 C 124.825 10.956, 128.425 12.383, 132 13.785 C 157.742 23.874, 180.054 48.494, 188.141 75.734 C 191.240 86.172, 191.677 102.205, 189.190 114.202 C 185.470 132.149, 178.003 146.005, 165.018 159.056 C 152.570 171.567, 138.874 179.405, 121.562 183.927 C 107.556 187.585, 82.517 186.282, 73.178 181.410 C 71.705 180.641, 69.931 180.010, 69.236 180.006 C 68.541 180.003, 67.191 179.605, 66.236 179.122 C 65.281 178.639, 62.800 177.516, 60.722 176.625 C 48.258 171.283, 30.412 154.941, 23.968 142.968 C 22.646 140.511, 20.953 137.752, 20.206 136.838 C 19.460 135.923, 18.744 134.573, 18.617 133.838 C 18.489 133.102, 17.450 130.700, 16.307 128.500 C 13.770 123.614, 11.351 115.132, 9.461 104.500 L 8.040 96.500 8.478 105.500 C 9.462 125.718, 20.315 147.697, 37.869 165.016 C 59.573 186.429, 81.216 194.993, 110.500 193.753 C 116.550 193.497, 122.850 192.975, 124.500 192.593 C 126.150 192.211, 130.353 191.244, 133.840 190.443 C 137.327 189.642, 141.140 188.315, 142.313 187.493 C 143.486 186.672, 145.177 186, 146.072 186 C 146.968 186, 149.564 184.650, 151.841 183 C 154.119 181.350, 156.242 180, 156.558 180 C 157.407 180, 164.003 175.071, 167.854 171.559 C 172.348 167.460, 182.996 153.806, 186.993 147.019 C 190.425 141.190, 195.735 127.682, 196.602 122.573 C 198.319 112.450, 198.840 107.784, 198.916 101.857 C 199.007 94.684, 196.690 81.345, 194.512 76.500 C 193.770 74.850, 192.305 71.250, 191.256 68.500 C 185.192 52.604, 163.618 29.087, 146.056 19.228 C 138.771 15.139, 129.957 11.425, 125.500 10.566 C 123.850 10.248, 123.175 10.269, 124 10.613 M 82.113 13.482 C 63.570 17.686, 50.885 24.309, 38.136 36.443 C 15.170 58.301, 6.928 89.045, 16.048 118.835 C 18.451 126.683, 25.473 141.213, 27.944 143.449 C 28.985 144.391, 27.879 141.507, 25.399 136.807 C 22.987 132.238, 19.774 124.675, 18.260 120 C 15.772 112.323, 15.505 110.095, 15.503 97 C 15.500 84.591, 15.838 81.418, 17.842 75 C 27.288 44.748, 52.920 22.055, 84 16.428 C 127.472 8.557, 169.575 35.563, 183.889 80.500 C 185.910 86.843, 186.722 85.299, 184.941 78.500 C 180.213 60.448, 167.800 41.802, 152.816 30.245 C 144.922 24.156, 131.555 17.419, 122.500 14.965 C 112.067 12.138, 91.392 11.379, 82.113 13.482 M 99.500 19 C 99.840 19.550, 100.568 20, 101.118 20 C 101.668 20, 101.840 19.550, 101.500 19 C 101.160 18.450, 100.432 18, 99.882 18 C 99.332 18, 99.160 18.450, 99.500 19 M 86.629 19.791 C 86.360 20.226, 87.684 20.402, 89.570 20.182 C 91.457 19.961, 93 19.605, 93 19.391 C 93 18.638, 87.113 19.008, 86.629 19.791 M 106 19.750 C 106 20.163, 107.307 20.500, 108.905 20.500 C 110.502 20.500, 111.600 20.163, 111.345 19.750 C 111.091 19.337, 109.784 19, 108.441 19 C 107.098 19, 106 19.337, 106 19.750 M 82.500 21 C 82.840 21.550, 83.316 22, 83.559 22 C 83.802 22, 84 21.550, 84 21 C 84 20.450, 83.523 20, 82.941 20 C 82.359 20, 82.160 20.450, 82.500 21 M 97.500 21 C 97.160 21.550, 97.359 22, 97.941 22 C 98.523 22, 99 21.550, 99 21 C 99 20.450, 98.802 20, 98.559 20 C 98.316 20, 97.840 20.450, 97.500 21 M 118.500 22 C 118.840 22.550, 119.316 23, 119.559 23 C 119.802 23, 120 22.550, 120 22 C 120 21.450, 119.523 21, 118.941 21 C 118.359 21, 118.160 21.450, 118.500 22 M 77.836 23.582 C 78.416 24.727, 79.585 26.241, 80.434 26.946 C 81.283 27.650, 81.731 28.626, 81.430 29.113 C 81.129 29.601, 81.359 30, 81.941 30 C 83.650 30, 83.117 28.726, 79.850 25 C 78.162 23.075, 77.255 22.437, 77.836 23.582 M 67.750 25.662 C 68.438 25.940, 69.563 25.940, 70.250 25.662 C 70.938 25.385, 70.375 25.158, 69 25.158 C 67.625 25.158, 67.063 25.385, 67.750 25.662 M 96 26 C 96 26.550, 96.702 27, 97.559 27 C 98.416 27, 98.840 26.550, 98.500 26 C 98.160 25.450, 97.459 25, 96.941 25 C 96.423 25, 96 25.450, 96 26 M 130 25.471 C 130 26.486, 132.920 27.938, 133.400 27.162 C 133.718 26.648, 133.083 25.993, 131.989 25.707 C 130.895 25.421, 130 25.315, 130 25.471 M 104.813 26.683 C 105.534 26.972, 106.397 26.936, 106.729 26.604 C 107.061 26.272, 106.471 26.036, 105.417 26.079 C 104.252 26.127, 104.015 26.364, 104.813 26.683 M 109 27 C 108.175 27.533, 107.950 27.969, 108.500 27.969 C 109.050 27.969, 110.175 27.533, 111 27 C 111.825 26.467, 112.050 26.031, 111.500 26.031 C 110.950 26.031, 109.825 26.467, 109 27 M 86.500 28 C 85.762 29.194, 87.722 29.194, 90.500 28 C 92.286 27.233, 92.212 27.133, 89.809 27.070 C 88.329 27.032, 86.840 27.450, 86.500 28 M 62.064 28.500 C 62.064 29.050, 62.724 30.374, 63.532 31.441 C 64.339 32.509, 65 32.932, 65 32.382 C 65 31.832, 64.339 30.509, 63.532 29.441 C 62.724 28.374, 62.064 27.950, 62.064 28.500 M 134.543 28.931 C 133.541 30.552, 135.718 31.045, 137.009 29.489 C 138.014 28.278, 137.953 28, 136.681 28 C 135.822 28, 134.859 28.419, 134.543 28.931 M 67.564 30.293 C 67.940 31.279, 68.499 31.834, 68.807 31.526 C 69.115 31.219, 68.808 30.412, 68.124 29.733 C 67.136 28.753, 67.022 28.868, 67.564 30.293 M 57.250 30.662 C 55.560 31.344, 55.661 33, 57.393 33 C 58.159 33, 59.045 32.325, 59.362 31.500 C 59.950 29.967, 59.458 29.771, 57.250 30.662 M 138.968 31.250 C 138.951 31.938, 138.283 33.363, 137.485 34.418 C 136.256 36.042, 135.648 36.160, 133.517 35.190 C 130.104 33.635, 130.311 34.592, 133.774 36.383 C 136.453 37.769, 136.626 37.701, 138.774 34.423 C 141.267 30.620, 141.439 30, 140 30 C 139.450 30, 138.986 30.563, 138.968 31.250 M 71.662 32.618 C 70.100 33.464, 69.046 34.379, 69.319 34.652 C 69.852 35.185, 76 32.262, 76 31.474 C 76 30.656, 74.601 31.025, 71.662 32.618 M 125.813 31.683 C 126.534 31.972, 127.397 31.936, 127.729 31.604 C 128.061 31.272, 127.471 31.036, 126.417 31.079 C 125.252 31.127, 125.015 31.364, 125.813 31.683 M 143.500 33 C 143.160 33.550, 143.359 34, 143.941 34 C 144.523 34, 145 33.550, 145 33 C 145 32.450, 144.802 32, 144.559 32 C 144.316 32, 143.840 32.450, 143.500 33 M 50.250 35.731 C 49.013 36.563, 48 37.714, 48 38.289 C 48 38.863, 48.293 39.040, 48.651 38.682 C 49.009 38.324, 49.887 38.812, 50.601 39.766 C 51.768 41.323, 51.840 41.260, 51.307 39.148 C 50.938 37.688, 51.231 36.475, 52.078 35.952 C 52.828 35.488, 53.230 34.908, 52.971 34.664 C 52.712 34.419, 51.487 34.899, 50.250 35.731 M 65.459 36.067 C 64.383 37.808, 65.608 38.177, 66.980 36.524 C 67.769 35.574, 67.845 35, 67.181 35 C 66.597 35, 65.821 35.480, 65.459 36.067 M 140.594 37.161 C 138.842 39.208, 138.869 39.322, 141.648 41.595 C 143.216 42.878, 144.950 43.928, 145.500 43.928 C 146.050 43.928, 145.182 42.850, 143.570 41.533 C 141.059 39.480, 140.829 38.911, 141.963 37.545 C 142.690 36.669, 143.084 35.751, 142.839 35.506 C 142.594 35.261, 141.584 36.005, 140.594 37.161 M 145.494 37.006 C 144.496 38.110, 143.973 39.307, 144.333 39.667 C 145.063 40.396, 149 37.171, 149 35.845 C 149 34.385, 147.381 34.921, 145.494 37.006 M 61 39.059 C 61 39.641, 61.450 39.840, 62 39.500 C 62.550 39.160, 63 38.684, 63 38.441 C 63 38.198, 62.550 38, 62 38 C 61.450 38, 61 38.477, 61 39.059 M 150.583 39.643 C 149.631 42.126, 150.681 42.465, 151.954 40.086 C 152.568 38.938, 152.653 38, 152.142 38 C 151.632 38, 150.930 38.739, 150.583 39.643 M 68.808 41.469 C 67.858 42.733, 67.353 44.633, 67.657 45.795 C 67.954 46.934, 67.254 51.889, 66.099 56.807 C 62.947 70.234, 63.316 78, 67.107 78 C 68.148 78, 69 78.540, 69 79.200 C 69 79.965, 69.347 80.053, 69.958 79.442 C 70.484 78.916, 71.112 76.383, 71.352 73.814 C 71.684 70.259, 71.477 69.264, 70.484 69.644 C 68.404 70.443, 67.272 63.215, 68.229 55.237 C 68.583 52.280, 69.456 52.090, 72.137 54.385 C 73.891 55.887, 74.708 56.039, 76.155 55.135 C 77.155 54.511, 79.077 54, 80.427 54 C 81.777 54, 83.160 53.550, 83.500 53 C 84.148 51.951, 81.484 51.538, 76.611 51.932 C 74.349 52.114, 73.853 51.825, 74.324 50.598 C 74.700 49.618, 74.158 48.620, 72.877 47.934 C 71.750 47.331, 71.097 46.570, 71.425 46.242 C 71.753 45.914, 73.258 46.831, 74.771 48.280 C 76.800 50.225, 77.910 50.659, 79.010 49.939 C 80.302 49.093, 80.268 48.827, 78.750 47.932 C 77.787 47.365, 77 46.270, 77 45.500 C 77 44.730, 76.213 43.641, 75.250 43.080 C 73.815 42.245, 74.131 42.050, 77 42 C 80.084 41.946, 80.270 41.806, 78.563 40.816 C 74.974 38.733, 70.643 39.023, 68.808 41.469 M 151.339 43.624 C 149.601 45.476, 148.563 47.230, 149.032 47.520 C 150.050 48.149, 157.053 41.386, 156.233 40.567 C 155.325 39.658, 154.684 40.059, 151.339 43.624 M 53.996 43.504 C 52.707 44.877, 52.110 46, 52.671 46 C 53.948 46, 57.495 42.162, 56.831 41.498 C 56.562 41.228, 55.286 42.131, 53.996 43.504 M 127 41.999 C 127 42.628, 125.914 42.774, 124.250 42.369 C 121.587 41.722, 121.554 41.762, 123.227 43.653 C 124.917 45.565, 124.844 45.599, 119.727 45.250 C 114.875 44.920, 114.617 45.013, 116.133 46.545 C 117.479 47.904, 118.162 47.984, 120.008 46.996 C 121.738 46.070, 122.755 46.066, 124.461 46.979 C 126.334 47.982, 127.236 47.780, 130.363 45.657 C 132.430 44.255, 133.596 42.868, 133.011 42.507 C 131.057 41.299, 127 40.957, 127 41.999 M 41.500 43 C 41.160 43.550, 41.584 44, 42.441 44 C 43.298 44, 44 43.550, 44 43 C 44 42.450, 43.577 42, 43.059 42 C 42.541 42, 41.840 42.450, 41.500 43 M 69.733 43.124 C 70.412 43.808, 71.219 44.115, 71.526 43.807 C 71.834 43.499, 71.279 42.940, 70.293 42.564 C 68.868 42.022, 68.753 42.136, 69.733 43.124 M 38.500 46 C 38.160 46.550, 38.505 47, 39.267 47 C 40.028 47, 41.722 48.140, 43.030 49.532 L 45.410 52.065 42.705 54.573 C 41.217 55.952, 40 57.376, 40 57.737 C 40 58.097, 41.507 56.931, 43.350 55.146 L 46.699 51.899 43.250 48.450 C 39.415 44.615, 39.370 44.592, 38.500 46 M 44.500 46 C 44.840 46.550, 45.316 47, 45.559 47 C 45.802 47, 46 46.550, 46 46 C 46 45.450, 45.523 45, 44.941 45 C 44.359 45, 44.160 45.450, 44.500 46 M 158.241 46.986 C 156.410 49.917, 156.730 50.554, 159 48.500 C 161.031 46.662, 161.620 45, 160.241 45 C 159.823 45, 158.923 45.894, 158.241 46.986 M 48 48 C 47.207 48.490, 46.890 49.223, 47.296 49.629 C 47.701 50.035, 48.558 49.842, 49.200 49.200 C 49.842 48.558, 50.159 47.825, 49.904 47.571 C 49.650 47.317, 48.793 47.510, 48 48 M 106.998 48.023 C 105.816 48.770, 106.027 48.985, 108 49.044 C 109.375 49.085, 112.238 49.250, 114.363 49.412 C 117.052 49.616, 117.738 49.433, 116.622 48.808 C 114.139 47.419, 108.661 46.971, 106.998 48.023 M 70 50 C 70 50.550, 70.477 51, 71.059 51 C 71.641 51, 71.840 50.550, 71.500 50 C 71.160 49.450, 70.684 49, 70.441 49 C 70.198 49, 70 49.450, 70 50 M 138.015 50.798 C 138.007 52.062, 136.876 54.137, 135.503 55.410 C 134.129 56.683, 132.749 59.249, 132.437 61.112 C 132.124 62.976, 131.692 65.404, 131.476 66.508 C 131.260 67.613, 131.472 69.146, 131.948 69.916 C 132.624 71.009, 133.599 70.459, 136.402 67.408 C 139.691 63.826, 139.990 63, 139.980 57.500 C 139.974 54.200, 139.533 50.825, 139 50 C 138.219 48.792, 138.028 48.947, 138.015 50.798 M 159.176 51.051 C 157.965 52.179, 156.530 52.828, 155.987 52.492 C 155.444 52.156, 155 52.359, 155 52.941 C 155 54.573, 158.988 54.194, 159.638 52.500 C 159.955 51.675, 161.066 51, 162.107 51 C 163.148 51, 164 50.550, 164 50 C 164 48.334, 161.510 48.876, 159.176 51.051 M 34.667 50.667 C 33.469 51.864, 33.965 53.773, 35.641 54.416 C 36.974 54.927, 37.059 54.776, 36.093 53.612 C 34.432 51.611, 36.368 50.621, 39.229 52.009 C 41.406 53.065, 41.420 53.046, 39.559 51.555 C 37.490 49.897, 35.752 49.582, 34.667 50.667 M 164.062 54.640 C 162.565 56.195, 160.940 56.956, 159.769 56.650 C 157.788 56.132, 157.754 58.085, 159.733 58.744 C 160.983 59.161, 167.782 53.448, 166.985 52.651 C 166.702 52.368, 165.387 53.263, 164.062 54.640 M 31 55.814 C 31 57.147, 38.904 60.965, 39.538 59.938 C 39.857 59.422, 39.477 59, 38.694 59 C 37.911 59, 36.126 58.100, 34.727 57 C 31.987 54.845, 31 54.531, 31 55.814 M 164.665 59.420 C 162.538 60.727, 161.297 62.066, 161.878 62.425 C 162.455 62.781, 163.843 62.157, 164.964 61.036 C 167.297 58.703, 168.640 58.458, 169.280 60.250 C 169.525 60.938, 170.023 61.227, 170.387 60.893 C 171.145 60.196, 170.110 56.984, 169.143 57.031 C 168.789 57.048, 166.774 58.123, 164.665 59.420 M 29 59.059 C 29 59.641, 29.450 59.840, 30 59.500 C 30.550 59.160, 31 58.684, 31 58.441 C 31 58.198, 30.550 58, 30 58 C 29.450 58, 29 58.477, 29 59.059 M 27.046 61.771 C 27.071 62.172, 29.077 63.437, 31.503 64.581 C 35.084 66.271, 36.015 66.402, 36.446 65.279 C 36.749 64.490, 36.534 64.170, 35.945 64.534 C 35.377 64.885, 34.370 64.771, 33.706 64.282 C 31.639 62.756, 26.998 61.006, 27.046 61.771 M 103.250 63.209 C 100.683 64.460, 100.584 64.870, 102.303 67.128 C 103.297 68.435, 105.257 68.726, 112.243 68.606 C 117.599 68.514, 121.416 67.984, 122.172 67.228 C 123.143 66.257, 122.992 65.975, 121.450 65.882 C 120.377 65.816, 119.050 65.880, 118.500 66.024 C 113.586 67.305, 108.354 67.653, 107.500 66.757 C 106.827 66.050, 106.861 65.908, 107.603 66.321 C 108.755 66.964, 112.868 64.510, 111.998 63.699 C 110.742 62.526, 105.279 62.220, 103.250 63.209 M 168.303 64.962 C 166.590 66.003, 164.921 66.588, 164.594 66.261 C 164.268 65.934, 164 66.165, 164 66.774 C 164 67.384, 164.450 68.160, 165 68.500 C 165.550 68.840, 166 68.714, 166 68.220 C 166 67.449, 170.219 65, 171.547 65 C 171.796 65, 172 65.675, 172 66.500 C 172 68.127, 173.552 68.534, 174.417 67.134 C 174.712 66.657, 174.157 65.547, 173.185 64.668 C 171.561 63.197, 171.165 63.221, 168.303 64.962 M 89 65.206 L 85.500 66.233 90 67.601 C 92.475 68.354, 94.612 68.976, 94.750 68.985 C 94.888 68.993, 95 67.875, 95 66.500 C 95 63.791, 94.325 63.645, 89 65.206 M 139.028 67.448 C 137.544 70.220, 138.473 72.367, 140.120 69.971 C 140.869 68.881, 140.957 69.148, 140.458 71 C 139.831 73.331, 139.900 73.390, 141.487 71.870 C 142.991 70.429, 143.027 69.929, 141.790 67.570 L 140.392 64.900 139.028 67.448 M 25 67 C 25 67.550, 25.413 68, 25.918 68 C 26.423 68, 27.661 68.262, 28.668 68.582 C 30.344 69.114, 30.335 69.029, 28.559 67.582 C 26.336 65.770, 25 65.552, 25 67 M 79.441 70.509 C 77.665 71.889, 77.968 71.963, 83 71.378 C 90.702 70.483, 92.776 69.068, 86.441 69.030 C 83.414 69.012, 80.603 69.606, 79.441 70.509 M 167 71 C 167 71.550, 167.477 72, 168.059 72 C 168.641 72, 168.840 71.550, 168.500 71 C 168.160 70.450, 167.684 70, 167.441 70 C 167.198 70, 167 70.450, 167 71 M 24 72 C 24.825 72.533, 26.175 72.969, 27 72.969 C 28.333 72.969, 28.333 72.862, 27 72 C 26.175 71.467, 24.825 71.031, 24 71.031 C 22.667 71.031, 22.667 71.138, 24 72 M 175.638 73.500 C 175.288 74.414, 175.637 75, 176.531 75 C 177.339 75, 178 74.325, 178 73.500 C 178 72.675, 177.598 72, 177.107 72 C 176.616 72, 175.955 72.675, 175.638 73.500 M 142.046 74.445 C 141.386 75.240, 140.994 76.853, 141.173 78.029 C 141.431 79.719, 141.731 79.416, 142.601 76.584 C 143.828 72.588, 143.771 72.367, 142.046 74.445 M 169 75 C 167.718 75.828, 167.754 75.972, 169.250 75.985 C 170.213 75.993, 171 75.550, 171 75 C 171 73.780, 170.887 73.780, 169 75 M 22.750 75.662 C 23.438 75.940, 24.563 75.940, 25.250 75.662 C 25.938 75.385, 25.375 75.158, 24 75.158 C 22.625 75.158, 22.063 75.385, 22.750 75.662 M 132.839 77.300 C 132.289 78.329, 132.007 79.340, 132.213 79.546 C 133.119 80.453, 136.856 78.657, 137.258 77.122 C 137.881 74.739, 134.129 74.891, 132.839 77.300 M 139.079 76.583 C 139.127 77.748, 139.364 77.985, 139.683 77.188 C 139.972 76.466, 139.936 75.603, 139.604 75.271 C 139.272 74.939, 139.036 75.529, 139.079 76.583 M 28.250 76.689 C 29.212 76.941, 30 77.590, 30 78.132 C 30 78.674, 30.450 78.840, 31 78.500 C 32.931 77.307, 31.972 76.001, 29.250 76.116 C 27.558 76.187, 27.173 76.408, 28.250 76.689 M 72.691 79.206 C 73.044 80.969, 73.823 83.332, 74.422 84.456 C 75.678 86.811, 79 87.743, 79 85.741 C 79 84.480, 73.288 76, 72.438 76 C 72.225 76, 72.339 77.443, 72.691 79.206 M 124.174 78.314 C 121.699 80.949, 121.350 83, 123.378 83 C 125.043 83, 126.516 81.280, 127.445 78.250 C 128.334 75.351, 126.932 75.379, 124.174 78.314 M 173.079 77.265 C 171.747 77.944, 170.437 79.175, 170.166 80 C 169.767 81.218, 169.953 81.270, 171.156 80.278 C 171.971 79.606, 174.182 78.386, 176.069 77.567 C 178.444 76.537, 178.884 76.071, 177.500 76.054 C 176.400 76.040, 174.411 76.585, 173.079 77.265 M 21 78.981 C 21 79.541, 21.788 80.006, 22.750 80.014 C 23.712 80.021, 25.625 80.277, 27 80.582 C 28.803 80.983, 29.082 80.877, 28 80.204 C 25.515 78.657, 21 77.868, 21 78.981 M 29 83.393 C 29 84.159, 28.288 85.059, 27.418 85.393 C 24.938 86.345, 21 86.104, 21 85 C 21 84.450, 20.564 84, 20.031 84 C 19.499 84, 19.322 84.675, 19.638 85.500 C 20.014 86.478, 21.569 87, 24.107 87 C 26.248 87, 28 87.477, 28 88.059 C 28 88.641, 28.381 88.883, 28.847 88.595 C 29.700 88.067, 30.239 82, 29.433 82 C 29.195 82, 29 82.627, 29 83.393 M 96.739 83.959 C 92.354 84.810, 91.525 85.422, 92.538 87.061 C 93.052 87.893, 95.110 88.064, 99.307 87.626 C 106.330 86.892, 107.207 86.356, 104.557 84.418 C 102.458 82.883, 102.327 82.876, 96.739 83.959 M 177.157 85.995 C 173.440 86.874, 171.243 88.577, 172.371 89.704 C 172.777 90.110, 173.425 89.930, 173.812 89.304 C 174.199 88.678, 176.058 87.990, 177.944 87.775 C 179.829 87.560, 181.551 86.847, 181.769 86.192 C 182.210 84.871, 181.956 84.860, 177.157 85.995 M 43.531 87.293 C 43.103 88.279, 43.034 89.367, 43.376 89.710 C 44.392 90.725, 45.211 89.299, 44.743 87.328 C 44.329 85.581, 44.275 85.580, 43.531 87.293 M 52.710 88 C 52.998 89.100, 53.589 90, 54.023 90 C 54.457 90, 54.577 89.100, 54.290 88 C 54.002 86.900, 53.411 86, 52.977 86 C 52.543 86, 52.423 86.900, 52.710 88 M 57.079 87.750 C 56.998 90.043, 59.329 90.894, 60.500 89 C 60.840 88.450, 60.454 88, 59.642 88 C 58.831 88, 57.940 87.438, 57.662 86.750 C 57.385 86.063, 57.122 86.513, 57.079 87.750 M 137.242 88.966 C 136.442 90.258, 134.920 91, 133.069 91 C 130.638 91, 129.968 91.567, 129.026 94.420 C 128.406 96.301, 127.176 98.439, 126.294 99.170 C 125.412 99.902, 124.079 101.963, 123.332 103.750 C 121.987 106.966, 121.047 107.377, 115.819 107.038 C 114.344 106.942, 111.982 107.621, 110.569 108.547 C 106.770 111.036, 95.722 111.703, 92.565 109.635 C 91.193 108.736, 89.301 108, 88.361 108 C 86.860 108, 86.906 108.274, 88.738 110.250 C 90.381 112.023, 90.560 112.740, 89.579 113.633 C 88.041 115.034, 85.476 113.758, 83.896 110.806 C 82.938 109.016, 83.014 108.791, 84.395 109.322 C 85.865 109.885, 85.883 109.675, 84.584 107.162 C 83.792 105.631, 81.823 103.056, 80.207 101.439 C 78.592 99.823, 76.997 97.375, 76.664 96 C 76.330 94.625, 74.919 92.980, 73.528 92.344 C 70.541 90.978, 70.228 91.992, 72.893 94.404 C 73.935 95.346, 75.802 99.275, 77.044 103.136 L 79.300 110.154 76.900 112.430 C 75.386 113.865, 68.043 116.773, 57 120.309 C 47.375 123.391, 38.669 126.521, 37.653 127.264 C 35.886 128.557, 35.923 128.755, 38.508 131.827 C 42.541 136.620, 48.428 139.630, 59.527 142.574 C 72.002 145.883, 72.828 146.333, 74.683 150.830 C 76.918 156.248, 80.628 160.739, 85.330 163.718 C 89.120 166.119, 90.338 166.347, 98.703 166.213 C 110.697 166.022, 113.618 164.716, 119.885 156.741 C 124.884 150.380, 125.114 150.232, 140.619 143.404 C 150.665 138.981, 157.772 135.182, 160.399 132.831 L 164.500 129.162 154.500 124.593 C 139.644 117.805, 139.800 117.917, 135.699 111.135 C 132.132 105.235, 131.968 104.617, 133.056 101.172 C 133.693 99.153, 135.331 95.844, 136.694 93.821 C 138.058 91.797, 139.022 89.420, 138.837 88.537 C 138.556 87.199, 138.291 87.270, 137.242 88.966 M 50.500 89 C 50.840 89.550, 51.316 90, 51.559 90 C 51.802 90, 52 89.550, 52 89 C 52 88.450, 51.523 88, 50.941 88 C 50.359 88, 50.160 88.450, 50.500 89 M 38 90 C 38 90.550, 38.423 91, 38.941 91 C 39.459 91, 40.160 90.550, 40.500 90 C 40.840 89.450, 40.416 89, 39.559 89 C 38.702 89, 38 89.450, 38 90 M 44.374 95.250 C 44.826 96.655, 44.341 97, 41.910 97 C 40.146 97, 39.140 97.417, 39.500 98 C 39.840 98.550, 41.891 99, 44.059 99 C 47.293 99, 48 98.652, 48 97.059 C 48 95.991, 47.592 94.866, 47.093 94.558 C 46.595 94.249, 46.422 94.898, 46.710 95.999 C 47.014 97.162, 46.741 98, 46.058 98 C 45.411 98, 45.104 97.641, 45.375 97.202 C 45.646 96.763, 45.405 95.751, 44.840 94.952 C 44.001 93.768, 43.915 93.823, 44.374 95.250 M 51.797 95.851 C 51.369 97.368, 50.701 97.933, 49.913 97.446 C 49.137 96.967, 48.948 97.107, 49.396 97.832 C 50.166 99.078, 53.488 98.892, 54.724 97.532 C 55.151 97.063, 54.970 96.983, 54.321 97.355 C 53.593 97.772, 53.012 97.165, 52.801 95.765 L 52.459 93.500 51.797 95.851 M 58.032 94.559 C 58.126 97.351, 65 100.734, 65 97.988 C 65 97.445, 64.582 97.112, 64.071 97.250 C 63.559 97.388, 62.433 96.600, 61.568 95.500 L 59.995 93.500 60.579 95.500 C 61.155 97.473, 61.142 97.473, 59.582 95.559 C 58.712 94.491, 58.014 94.041, 58.032 94.559 M 97.674 95.113 C 94.470 95.464, 91.320 96.308, 90.674 96.988 C 89.749 97.963, 90.030 98.042, 92 97.362 C 93.375 96.888, 97.945 96.500, 102.156 96.500 C 106.366 96.500, 109.634 96.214, 109.418 95.865 C 108.739 94.770, 103.726 94.449, 97.674 95.113 M 130.119 98.441 C 129.504 100.883, 128.548 103.162, 127.993 103.504 C 127.439 103.847, 126.257 105.561, 125.366 107.313 L 123.746 110.500 126.373 108.076 C 130.208 104.537, 129.583 106.349, 125.354 111.030 C 123.349 113.249, 118.903 116.634, 115.475 118.551 L 109.241 122.037 103.410 120.519 C 100.204 119.683, 95.977 119, 94.018 119 C 91.498 119, 89.338 118.079, 86.637 115.853 L 82.819 112.705 83.488 118.103 C 84.125 123.247, 84.008 123.640, 80.986 126.500 C 69.470 137.401, 72.938 154.459, 87.950 160.748 C 90.257 161.715, 93.923 162.079, 99.023 161.847 C 108.038 161.437, 112.309 159.114, 117.129 152 C 120.041 147.701, 120.155 147.143, 119.693 139.500 L 119.208 131.500 124.809 122.137 C 129.174 114.841, 130.460 111.750, 130.636 108.137 C 130.761 105.587, 131.583 101.793, 132.463 99.706 C 133.990 96.086, 133.843 94, 132.060 94 C 131.607 94, 130.734 95.998, 130.119 98.441 M 35 97.365 C 35 98.081, 35.675 98.667, 36.500 98.667 C 37.325 98.667, 38 98.340, 38 97.940 C 38 97.541, 37.325 96.955, 36.500 96.638 C 35.640 96.308, 35 96.618, 35 97.365 M 173.500 97 C 173.840 97.550, 174.316 98, 174.559 98 C 174.802 98, 175 97.550, 175 97 C 175 96.450, 174.523 96, 173.941 96 C 173.359 96, 173.160 96.450, 173.500 97 M 178.500 97 C 176.205 97.584, 176.009 97.791, 177.668 97.882 C 178.861 97.947, 180.548 98.273, 181.418 98.607 C 182.456 99.005, 183 98.662, 183 97.607 C 183 95.870, 182.960 95.865, 178.500 97 M 93.450 99.884 C 91.987 101.346, 93.737 101.914, 99.413 101.817 C 104.389 101.732, 105.708 101.402, 105.301 100.343 C 104.932 99.380, 103.177 99.045, 99.339 99.206 C 96.347 99.331, 93.697 99.636, 93.450 99.884 M 174 102 C 174 102.550, 176.025 103, 178.500 103 C 180.975 103, 183 102.550, 183 102 C 183 101.450, 180.975 101, 178.500 101 C 176.025 101, 174 101.450, 174 102 M 31.158 104 C 31.158 105.375, 31.385 105.938, 31.662 105.250 C 31.940 104.563, 31.940 103.438, 31.662 102.750 C 31.385 102.063, 31.158 102.625, 31.158 104 M 36 103 C 36 103.550, 36.477 104, 37.059 104 C 37.641 104, 37.840 103.550, 37.500 103 C 37.160 102.450, 36.684 102, 36.441 102 C 36.198 102, 36 102.450, 36 103 M 43.459 104.067 C 43.096 104.653, 43.014 105.348, 43.276 105.610 C 43.538 105.872, 44.019 105.392, 44.345 104.543 C 45.021 102.781, 44.445 102.471, 43.459 104.067 M 55 104.441 C 55 105.298, 55.450 106, 56 106 C 56.550 106, 57 105.577, 57 105.059 C 57 104.541, 56.550 103.840, 56 103.500 C 55.450 103.160, 55 103.584, 55 104.441 M 60.500 105 C 60.160 105.550, 60.610 106, 61.500 106 C 62.390 106, 62.840 105.550, 62.500 105 C 62.160 104.450, 61.710 104, 61.500 104 C 61.290 104, 60.840 104.450, 60.500 105 M 29.609 108.177 C 30.300 109.294, 38 109.229, 38 108.106 C 38 107.615, 35.998 107.244, 33.550 107.283 C 31.103 107.321, 29.329 107.724, 29.609 108.177 M 41.177 107.507 C 42.122 108.456, 57 109.144, 56.999 108.239 C 56.999 107.832, 53.287 107.349, 48.749 107.164 C 44.212 106.979, 40.804 107.134, 41.177 107.507 M 59.500 108 C 59.840 108.550, 60.740 109, 61.500 109 C 62.260 109, 63.160 108.550, 63.500 108 C 63.852 107.431, 62.991 107, 61.500 107 C 60.009 107, 59.148 107.431, 59.500 108 M 114 110.500 C 113.246 111.408, 113.166 112, 113.796 112 C 115.633 112, 118 110.814, 118 109.893 C 118 108.462, 115.359 108.863, 114 110.500 M 172.334 116.500 C 172.793 117.879, 176.246 117.763, 176.716 116.353 C 176.944 115.668, 176.072 115.265, 174.550 115.353 C 173.148 115.434, 172.151 115.950, 172.334 116.500 M 164.500 124 C 164.840 124.550, 166.216 125, 167.559 125 C 168.902 125, 170 124.550, 170 124 C 170 123.450, 168.623 123, 166.941 123 C 165.156 123, 164.139 123.417, 164.500 124 M 32 128 C 30.718 128.828, 30.754 128.972, 32.250 128.985 C 33.212 128.993, 34 128.550, 34 128 C 34 126.780, 33.887 126.780, 32 128 M 165 134.059 C 165 134.641, 165.450 134.840, 166 134.500 C 166.550 134.160, 167 133.684, 167 133.441 C 167 133.198, 166.550 133, 166 133 C 165.450 133, 165 133.477, 165 134.059 M 167.459 136.067 C 167.096 136.653, 167.005 137.339, 167.257 137.590 C 167.954 138.288, 171 136.907, 171 135.893 C 171 134.641, 168.257 134.776, 167.459 136.067 M 164 137.878 C 164 140.793, 169.871 141.890, 170.785 139.145 C 171.107 138.179, 170.654 137.975, 169.202 138.436 C 168.084 138.791, 166.879 138.613, 166.525 138.041 C 165.743 136.775, 164 136.662, 164 137.878 M 159.458 142.068 C 159.095 142.656, 158.168 142.895, 157.399 142.600 C 156.629 142.304, 156 142.529, 156 143.098 C 156 144.549, 161.256 143.775, 161.756 142.250 C 162.256 140.727, 160.379 140.578, 159.458 142.068 M 39 143 C 39 143.550, 39.648 144, 40.441 144 C 41.234 144, 42.160 143.550, 42.500 143 C 42.840 142.450, 42.191 142, 41.059 142 C 39.927 142, 39 142.450, 39 143 M 162.713 143.991 C 162.346 145.392, 161.620 145.725, 159.861 145.299 C 157.923 144.830, 157.724 144.967, 158.750 146.064 C 160.883 148.344, 160.125 149.312, 157.535 147.615 C 153.685 145.092, 152.369 145.720, 155.594 148.541 C 158.406 151, 158.438 151.129, 156.582 152.524 C 155.141 153.608, 154.327 153.686, 153.308 152.841 C 152.562 152.221, 151.625 152.066, 151.226 152.494 C 150.827 152.923, 151.063 153.475, 151.750 153.720 C 152.438 153.966, 153 154.852, 153 155.690 C 153 156.634, 152.429 156.995, 151.500 156.638 C 150.604 156.294, 150 156.630, 150 157.472 C 150 160.250, 147.736 160.204, 145.425 157.377 C 143.634 155.187, 143.063 154.909, 143.036 156.215 C 143.016 157.158, 143.948 158.437, 145.107 159.057 C 146.567 159.839, 146.895 160.505, 146.174 161.226 C 145.453 161.947, 144.327 161.381, 142.510 159.383 C 140.134 156.771, 139.946 156.712, 140.511 158.751 C 141.079 160.797, 140.912 160.917, 138.679 160.068 C 136.533 159.252, 136.286 159.379, 136.728 161.067 C 137.317 163.322, 137.143 163.276, 140.435 162.025 C 142.501 161.239, 143 161.349, 143 162.592 C 143 163.686, 142.411 163.948, 140.975 163.492 C 139.657 163.074, 139.046 163.268, 139.225 164.050 C 139.779 166.468, 136.993 166.079, 135.854 163.579 C 135.208 162.160, 133.851 161, 132.839 161 C 130.276 161, 130.542 162.058, 133.750 164.623 C 137.428 167.562, 135.942 168.807, 132.058 166.041 C 130.376 164.844, 129 164.318, 129 164.873 C 129 165.428, 129.450 166.160, 130 166.500 C 131.312 167.311, 131.292 170, 129.975 170 C 129.411 170, 128.680 168.650, 128.350 167 C 128.020 165.350, 127.356 164, 126.875 164 C 125.806 164, 125.805 163.832, 126.898 167.643 C 127.694 170.419, 127.519 170.898, 125.350 171.886 C 121.997 173.414, 119.479 173.282, 118 171.500 C 116.212 169.345, 114.736 169.639, 115.950 171.907 C 116.820 173.532, 116.512 173.975, 113.871 174.895 C 109.961 176.258, 109 175.654, 109 171.834 C 109 169.465, 108.647 168.921, 107.418 169.393 C 106.548 169.727, 105.198 170, 104.418 170 C 103.638 170, 103 170.952, 103 172.117 C 103 173.835, 103.470 174.143, 105.500 173.755 C 107.176 173.435, 108 173.726, 108 174.639 C 108 176.377, 102.328 176.478, 101.746 174.750 C 101.418 173.776, 100.958 173.803, 99.660 174.875 C 98.619 175.734, 96.871 176.024, 94.998 175.650 C 92.836 175.217, 92 175.432, 92 176.418 C 92 177.170, 92.712 178.059, 93.582 178.393 C 96.010 179.325, 106.968 179.032, 112 177.902 C 114.475 177.346, 118.300 176.521, 120.500 176.069 C 136.526 172.778, 157.374 159.179, 165.173 146.931 C 166.704 144.527, 166.693 144.289, 165.007 143.236 C 163.533 142.316, 163.115 142.453, 162.713 143.991 M 45.667 147.667 C 44.434 148.899, 44.951 150.285, 46.250 149.230 C 46.938 148.672, 48.400 147.994, 49.500 147.724 C 51.109 147.328, 50.996 147.209, 48.917 147.116 C 47.496 147.052, 46.033 147.300, 45.667 147.667 M 150 149 C 150 149.550, 150.413 150, 150.918 150 C 151.423 150, 152.661 150.312, 153.668 150.694 C 155.384 151.344, 155.394 151.281, 153.821 149.694 C 151.959 147.814, 150 147.458, 150 149 M 47.538 150.348 C 45.457 151.870, 46.227 154, 48.859 154 C 51.162 154, 52.976 152.100, 52.315 150.378 C 51.645 148.633, 49.899 148.622, 47.538 150.348 M 48.510 152.016 C 48.856 152.575, 49.557 152.774, 50.069 152.457 C 51.456 151.600, 51.198 151, 49.441 151 C 48.584 151, 48.165 151.457, 48.510 152.016 M 147 152.837 C 147 154.103, 146.555 154.843, 146 154.500 C 145.450 154.160, 145 154.373, 145 154.972 C 145 156.562, 147.958 157.442, 149.183 156.217 C 149.914 155.486, 149.743 154.471, 148.616 152.862 L 147 150.555 147 152.837 M 43 153.316 C 43 157.608, 62.504 170.483, 75.718 174.914 C 83.607 177.560, 86 177.594, 86 175.059 C 86 173.991, 86.450 172.840, 87 172.500 C 88.775 171.403, 88.062 170.171, 85.968 170.719 C 84.851 171.011, 83.464 172.132, 82.887 173.211 C 81.483 175.835, 80.658 174.777, 80.571 170.238 C 80.514 167.217, 80.093 166.442, 78.377 166.197 C 76.773 165.968, 76.132 166.530, 75.756 168.495 C 75.371 170.513, 75.623 171.021, 76.879 170.760 C 77.771 170.575, 78.438 169.658, 78.363 168.722 C 78.288 167.787, 78.625 167.268, 79.113 167.570 C 80.479 168.414, 80.163 172, 78.672 172.572 C 77.942 172.852, 76.128 172.619, 74.640 172.053 C 72.005 171.051, 71.975 170.949, 73.468 168.062 C 75.365 164.393, 75.378 163.918, 73.558 164.616 C 72.766 164.920, 71.978 166.144, 71.808 167.335 C 71.614 168.697, 70.665 169.619, 69.250 169.820 C 66.481 170.213, 66.433 169.536, 69 166.273 C 71.372 163.258, 71.586 161, 69.500 161 C 68.675 161, 68 161.575, 68 162.277 C 68 162.980, 67.298 164.557, 66.441 165.781 C 65.164 167.603, 64.520 167.813, 62.887 166.940 C 60.946 165.901, 60.961 165.819, 63.446 163.864 C 66.052 161.814, 66.889 159, 64.894 159 C 64.286 159, 62.903 160.125, 61.821 161.500 C 59.545 164.394, 59.188 164.456, 56.505 162.429 C 54.822 161.157, 54.739 160.779, 55.971 160.018 C 56.849 159.475, 57.883 159.488, 58.560 160.049 C 59.320 160.681, 60.055 160.175, 60.822 158.492 C 62.268 155.318, 60.419 155.096, 56.727 158 C 55.329 159.100, 53.384 160, 52.405 160 C 50.941 160, 51.134 159.470, 53.490 157.010 C 56.789 153.567, 56.261 151.747, 52.878 154.899 C 49.958 157.619, 48.457 157.548, 45.455 154.545 C 44.105 153.195, 43 152.642, 43 153.316 M 120.529 166.355 C 119.273 167.274, 118.906 168.313, 119.391 169.577 C 119.997 171.156, 120.251 171.217, 121.038 169.972 C 121.668 168.976, 121.974 168.904, 121.985 169.750 C 121.993 170.438, 122.525 171, 123.167 171 C 123.808 171, 124.037 170.704, 123.675 170.342 C 123.313 169.980, 123.502 169.100, 124.095 168.386 C 125.165 167.097, 124.569 165, 123.132 165 C 122.720 165, 121.548 165.610, 120.529 166.355 M 111 170.583 C 111 173.716, 113.348 173.373, 113.820 170.172 C 114.032 168.729, 113.612 168, 112.570 168 C 111.549 168, 111 168.903, 111 170.583 M 94.667 169.667 C 94.300 170.033, 94 171.158, 94 172.167 C 94 174.166, 97.384 174.676, 99.936 173.061 C 101.126 172.308, 101.147 171.883, 100.063 170.576 C 98.722 168.961, 95.856 168.477, 94.667 169.667" stroke="none" fill="#ab9b74" fill-rule="evenodd"/></svg>