<svg version="1.2" xmlns="http://www.w3.org/2000/svg" viewBox="0 0 1628 1628" width="200" height="200">
	<title>coin1-2 (1)-svg</title>
	<style>
		.s0 { fill: #000000 } 
		.s1 { fill: none;stroke: #faf7e2;stroke-width: 85 } 
		.s2 { fill: #faf7e2 } 
		.s3 { fill: #ff003d } 
	</style>
	<g id="Layer">
		<path id="Layer" class="s0" d="m814 1535c-400.9 0-725-324.1-725-725 0-400.9 324.1-725 725-725 400.9 0 725 324.1 725 725 0 400.9-324.1 725-725 725z"/>
		<path id="Layer" class="s1" d="m814 1577.5c-424.4 0-767.5-343.1-767.5-767.5 0-424.4 343.1-767.5 767.5-767.5 424.4 0 767.5 343.1 767.5 767.5 0 424.4-343.1 767.5-767.5 767.5z"/>
	</g>
	<path id="Layer" fill-rule="evenodd" class="s2" d="m279.8 884.2q-31.1 0-53.5-9.1-22.4-9.1-34.3-28.4-11.9-19.6-11.9-50.4v-3.1h72.4v2.8q0 16.8 6.3 23.8 6.3 6.6 18.6 6.6 12.2 0 18.5-6.6 6.3-7 6.3-23.8v-156.8h77.4v157.1q0 30.8-11.9 50.4-11.9 19.3-34.3 28.4-22.4 9.1-53.6 9.1zm111.7-72.8v-55.3h88.5v55.3zm215.3 72.8q-41 0-69-14-27.6-14-42-41.6-14-28.1-14-69 0-61.6 31.5-93.1 31.9-31.5 93.5-31.5 35 0 60.9 11.9 26.2 11.6 40.6 34.6 14.3 23.1 14.3 56.7h-73.8q0-13.9-4.9-24.1-4.9-10.2-14.4-15.8-9.1-5.5-23.1-5.6-16.4 0-26.6 7-9.8 7.1-14.3 19.6-4.6 12.6-4.6 29.1v22.4q0 16.5 4.6 29 4.9 12.6 14.7 19.6 9.8 7.1 25.5 7 15.4 0.1 25.2-5.2 10.2-5.3 15.1-15.1 5.2-10.1 5.2-23.8h71.4q0 32.9-13.6 55.7-13.7 22.8-39.6 34.6-25.9 11.6-62.6 11.6zm249.3 0q-41 0-70-14-29.1-14-44.5-41.6-15.4-28.1-15.4-69 0-41.3 15.4-69 15.4-27.6 44.5-41.6 29-14 70-14 41.3 0 70.3 14 29.1 14 44.5 41.6 15.4 27.7 15.4 69 0 40.9-15.4 69-15.4 27.6-44.5 41.6-29 14-70.3 14zm0-57.7q12.6 0 22-3.9 9.8-4.2 16.1-11.5 6.7-7.4 9.8-17.5 3.2-10.5 3.2-22.8v-22.4q0-12.2-3.2-22.4-3.1-10.5-9.8-17.8-6.3-7.4-16.1-11.2-9.4-4.3-22-4.3-12.6 0-22.4 4.3-9.5 3.8-15.8 11.2-6.3 7.3-9.4 17.8-3.2 10.2-3.2 22.4v22.4q0 12.3 3.2 22.8 3.1 10.1 9.4 17.5 6.3 7.3 15.8 11.5 9.8 3.9 22.4 3.9zm143.8 53.5v-240.8h150.9q26.9 0 44.8 10.9 18.2 10.8 27.3 28.3 9.1 17.5 9.1 37.8 0 23.1-10.9 41.3-10.8 17.9-29.4 28.7l47.3 93.8h-86.8l-36.8-80.9h-38.1v80.9zm77.3-134.4h54.3q9.1 0 15.4-7 6.3-7.4 6.3-19.2 0-7.4-2.8-13-2.8-5.6-7.7-8.8-4.9-3.4-11.2-3.5h-54.3zm167.1 134.4v-240.8h142.1q22.7 0 39.9 10.5 17.5 10.2 27.3 28.4 9.8 18.2 9.8 42.4 0 24.8-10.2 43.4-9.8 18.1-27.3 28.3-17.1 10.2-39.5 10.2h-64.8v77.6zm77.4-134h38.8q12.3 0 18.2-6.3 6.3-6.3 6.3-18.5 0-8.4-2.8-13.7-2.4-5.6-8-8.4-5.3-2.8-13.7-2.8h-38.8z"/>
	<path id="Layer" fill-rule="evenodd" class="s3" d="m270 960.3l1.2-1.4-2.4 1.5-3 1.1q-0.4 0-1.1 0.1-1.1 0.3-1.8 0.3-0.4 0.2-0.7 0.3-0.3 0.3-2.3 0.3l0.5-0.7-8.3 3.1q-0.4 0.2-1.5 0.3-0.8 0.2-1.8 0.2 1.5-0.8 2.3-1.1l1.8-0.6q0.9-0.7 1.8-1 0.9-0.3 1.2-0.6-0.1 0-0.3 0.1-0.2 0.2-0.5 0.2-0.7 0-2.2 0.3-0.1 0.1-0.3 0.1-2.3 1.2-4.8 2-2.4 0.7-4.7 1.6-0.3 0.3-0.7 0.6-0.5 0.3-1.2 0.3l-3 0.8q-0.8 0.3-1.5 0.4-0.8 0.3-2.4 0.6 0-1 0.3-1.2h-0.3q0 0.2-0.2 0.2-1.3 0.6-2.4 1-1.2 0.5-2.8 0-0.9-0.3-0.9-0.9-0.3 0-0.3-0.1h-0.5l-2.2-0.5q-0.2 0.2-0.3 0-0.3-0.1-0.5-0.3v-0.4h-0.6q0-0.3-0.1-1.1-0.2-0.6-0.3-1-0.6-2.1-0.8-4.4-0.3-2.2 1.2-4.2l0.5-0.4q0.1-0.2 0.4-0.9 1.2-0.5 1.7-0.9 0.4-0.3 1.2-0.9l2.7-1.1q-0.8-0.3-1.4-0.7-0.7-0.5-1.3-1.5 0.3-3 0.9-5.1 0.4-2.3 1-4.7h0.2l0.3-0.3q2.8-9.3 6.1-15.9 3.2-6.7 6.5-13.8 2.8-5.2 5.2-10.3 2.6-5.3 5.1-11.7 1.5-3.2 2.7-5.9 1.2-2.7 2.6-6-0.5-0.1-0.9-0.1-1.2 0-1.7-0.3-1-0.2-1.5-0.3-0.4-0.2-1-0.5-0.3-0.3-0.9-0.4l-0.9-0.5q-0.5-0.4-0.9-1-0.3-0.5-0.8-0.8-0.4-0.3-0.7-0.6-1.2-1.6-2.4-2.8-1.1-1.4-1.5-3 0-0.2-0.6-1.1l-0.5-1.3h0.2q-0.5-0.2-0.5-1.2 2.1-4.4 6.5-5.7 1.2 0.1 2.1-0.3 1-0.5 2.1-1.1l2.7-1q1.3-0.2 2.8-0.5 1.5-0.4 2.7-1.5l2.9-0.7h-0.2q1.1-0.3 3.2-0.8 2.2-0.6 4-1 2-0.6 2.9-0.9 1-0.5-0.2-0.5l0.7-0.3q5.5-1.5 11.8-2.7 6.5-1.2 12.9-1.8 2.6-0.3 5.4-0.4 3-0.3 5.4-0.3 3 0 6.3 0.3 3.3 0.3 6.4 1 2 0.3 4.1 1.2 2.2 0.8 3.9 2.3 1.6 1.3 2.7 3.1 1.2 1.8 1.2 3.8 0 0.7-0.2 1.8 0 1-0.3 1.5h0.3q-0.1 1.3-0.1 1.8v0.7q0 1.2-0.3 2.1 0.1 2.4-0.6 5-0.6 2.4-2 4-0.3 0.5-0.9 0.9-0.4 0.3-0.7 0.5l-0.6 0.4h0.1q-0.3 0.3-0.7 0.9-0.5 0.6-1.2 0.6-0.8 0.8-2.9 1.7h-0.1v0.3l-1.2 0.9q-1.2 0.9-2 1.8-0.7 0.7-1.9 2.4l-0.8 0.1q-2.2 1.5-4.3 2.9-2 1.2-4.2 2.1l-0.8 0.7q-0.4 0.5-0.7 1.1-0.7 0.6-1.4 1-0.4 0.5-1.5 0.5-0.9 0-1.8 0.6-0.7 0.4-1 0.9-1.5 0.3-2.7 0.9-1.1 0.4-1.8 0.9h0.7q-0.7 1.2-1.5 1.3-0.7 0.2-1 0.3v0.3q6.3 2.6 11.4 5.6 5.1 3 9 8.2 0.1 0.8 0.3 1.2l0.6 0.6q1 1.7 1.5 3 0.6 1.4 0.9 3.3 0.1 0.6 0.1 1.7 0.2 1 0.2 1.3l0.4 1.8q0.3 1.2 0.6 2-0.3 1.2-0.4 1.9 0 0.6 0.1 1.5 0 0.9-0.1 1.7 0 0.7-0.6 1.6v0.6q0 0.5-0.2 1.1 0.2 0.3 0 0.9-0.1 0.4-0.1 0.7-0.3 0.9-0.9 1.7-0.5 0.6-1.5 1.3l-2.3 3.5q-4.8 4.3-10.2 7.6-5.2 3.3-12 5.9h-0.9q-0.7 0.6-1.3 0.9-0.6 0.3-0.9 0.6-0.3 0.1-0.8 0.1-0.4 0-1.3 0.6-0.3-0.3-1.5 0.3-1.1 0.8-1.4 1.2l-3.3 0.6-1.2 0.2 0.8 0.3-1.7 0.6-1.9 1.6h-0.2q-0.7 0.3-1.2 0.3h-1.5q-1.2 0.8-2.2 0.8h-0.3q-0.2 0-0.2 0.4-0.3 0.2-0.8 0.2h-2q-0.3 0.1-0.6 0.9-0.1-0.8-0.1-0.9-2.2 0.7-4.1 1.3-1.9 0.8-4.1 1.5l-0.6-0.4 2.4-0.9q1.2-0.5 2.4-1.4 1.1-0.6 2.1-1 1.2-0.3 2.1-0.6v-0.3h-0.1zm30.1-33.3l1.1-0.5 1.2-0.4 1-0.6v0.1l0.9-1q0.8-0.3 1.1-0.6 0.3-0.5 0.9-1.7 0.3-0.7 0.9-1.3 0.6-0.8 0.4-0.9v-0.9q0-0.3-0.1-0.5 0-0.1-0.8-1-0.3-0.8-1-1.1l-1.5-0.6-1.2-1.3v0.1q-0.6-0.3-0.9-0.6-0.3-0.3-1.1-0.3-0.9-0.4-2.5-0.9-1.7-0.4-3.5-1.2-0.6-0.3-1.2-0.4l-1.2-0.3h-0.9l-0.3 0.3-1.3-0.8h-0.8q-0.3-0.1-0.4-0.1-0.9 0-1.4-0.2h0.2q-1.2-0.3-2.3-0.3l-8.1-1.3q-2.8-0.5-6-0.8l-6-0.6q-0.7 1.8-1.6 3.5-0.8 1.5-2 3.6-0.3 1.6-1.5 4.2-1 2.4-1.8 3.7-1.9 3.3-3.3 3.8-0.7 0.3-1.5 0.9-0.6 0.6-1.3 1.8-0.8 0-1.1 0.3 0 0.3-0.1 0.6-0.5 0.7-0.6 0.9l-0.2 0.7q-0.3 0-0.3 0.5v0.6q-0.3 0-0.3 0.3 0.2 0.3-0.1 0.7-0.2 0.3-0.6 0.8-0.5 0.4-0.9 0.4l-0.2-0.6q-0.3 0.5-0.1 0l0.3-0.9-0.6 1.2q-0.6 0.9-0.5 1.2l0.5 0.5q-0.6 0.4-1.1 0.7-0.3 0.2-0.4 0.5l-0.9 1.6-0.3-0.4q-0.3 0.1-0.5 0.3 0 0.1-0.1 0.3 0 0.3 0.1 0.9 0.3 0.4-0.1-0.2l-0.8 1.8-0.7 2.1-0.6 1.4q-0.2 0.4-0.5 0.7-0.3 0.3-1.8 0.9 0.8-1.9 1.2-2.8 0.5-1.1 0.8-2.1-0.8 0.3-1.1 0.9-0.1 0.6-0.1 1.2l-1.5 2.5h-0.2l-0.6 0.9q-0.1 0.3-0.4 0.6l-1.2 1.4h-0.3q0.3 0.3-0.2 0.3l-0.7 0.4-0.3 0.3q-0.2 0 0 0.5 6.3-2.6 12.6-4.5 6.4-2 12.7-3.9 9.8-3 19.2-6.2 9.5-3.3 18.3-7.8zm-16.9-43.6q6.7-3.8 13.3-7.4 6.8-3.7 13.1-7.3 0.4-0.6 1.5-1.4 1.2-0.9 1.6-1.2 2.1-1.8 3.9-3.1 2-1.5 3.2-2.9-1.2-0.1-2.7-0.3-1.4-0.1-2.7-0.1-3.9 0-7.7 0.6-3.6 0.4-7.2 1.2l0.2 0.3h-0.6q0-0.6-0.3-0.5-0.3 0.2-0.5 0.2-0.3 0-0.6 0.3-0.1 0.1-0.4 0.1-0.3 0-0.5 0.2-0.1 0.1-0.4 0.1h-0.2q-0.1 0-0.3 0.2h-0.3l-6.9 1.5q-0.3 0.1-1.2 0.7-0.7 0.5-1 0.5-0.6 0.3-1.7 0.7-1 0.3-1.5 0.6v-0.1l-1.2 0.9v0.6q0 0.3 0.2 0.4 0.4 0.3 0.4 0.5 0.2 0.1 0.3 0.4-0.4 1.5-0.9 2.6-0.3 0.9-0.6 1.6l-0.6 1.8q-4.5 5.9-7.8 13.7 1.7-0.8 3-1.5 1.4-0.8 3-1.5zm15.2 8.2q-0.9 0.5-2.3 1.2-1.3 0.8-2.7 1.4 0.8 0 1.2-0.3h-0.1q0.3 0 0.9-0.3l0.6-0.3q0.4 0 0.9-0.5h-0.3q2.1-1.3 4.9-3.1 2.9-1.8 5-3.3 0.6-0.3 1.3-0.6 0.8-0.3 1.4-0.8l-0.6-0.3h-0.2q0 0.3-0.6 0.5-0.6 0-1 0.1l-2 1.2q-1 1.2-1.9 1.5-0.8 0.5-1.5 0.8l-1.2 0.6-1.5 1q0.3-0.1 0.7-0.1h0.9zm-34 69q-0.8 0.3-1.2 0.4-0.5 0.2-1.2 0.3h0.4q0.2 0 0.2-0.1h0.3l1.9-0.5 2-1.2 3-0.9 1.2-0.4 1.8-0.3q0.7-0.2 1.6-0.5 0.9-0.3 0.6-0.3 0.3-0.3 0.5-0.3 1.5-0.6 2.7-0.9 1.2-0.3 2.1-1l0.9-0.2q0.4-0.3 0.6-0.6 0.3-0.1 1-0.1 0.3-0.2 0.3 0.1 0 0.5 0.2-0.3-1.1 0.2-2.1 0.5-1.1 0.3-2.3 0.7l0.2 0.3q-3.9 1.4-7.8 2.6-3.8 1.2-6.9 2.7zm9.1-1.4l-0.4 0.3q0.3 0 0.7 0.8 0.3-0.6 0.6-1.1 0.3-0.3 0.5-0.6zm22.6-69.6q-0.3 0-0.4 0.3 0 0.2-0.2 0.2h0.3q0.3 0 0.3-0.5zm-54 51l0.2-0.4v-0.5q0 0.2-0.2 0.5zm30.9 17.8q-0.1 0-1.3 0.3 0.1-0.1 0.4-0.1 0.6 0 0.9-0.2zm19.1-66.7q-0.3 0-0.3 0.1 0.1-0.1 0.3-0.1zm-17.4 66.3h-0.3zm18.1-64.7h-0.3zm1.7-2.7l0.1-0.1q0 0.1-0.3 0.1zm-44.5 38.6l0.1 0.1q0-0.1-0.1-0.1zm166.8-30q-0.3 0.4-0.1 0.9l0.3 0.6q-0.3-0.2-0.5-0.6 0-0.5-0.7-0.6-0.3 0.3 0 0.6 0.4 0.1 0.6 0.4-0.8-1-2.7-0.9-1.8 0.2-3-0.1 0.7 0.4 1 0.4 0.3-0.1 1.1 0 0.3 0.3 0 0.3h-0.3q0.4 0.5 1.2 0.8 0.7 0.1 0.9 1-0.2 0-0.2 0.3 0 0.2 0.2 0.2-0.2 0.3-0.3 0.1-0.2-0.3-0.5-0.3-0.1 1.4-1 2.1-0.8 0.6-0.9 0.9-0.6-0.3-1.2 0-0.5 0.3-1.1 0.2-0.6 0.4-0.7 0.6v0.1l-0.3 0.2q-0.2 0.1-1.1 0.6-0.1 0-0.4 0.7-0.9 0.2-1.2 0-0.3-0.3-1.4 0.2-0.7 0.6-2.4 0.9-1.5 0.1-1.9 0.7 0.3 0.5 1 0 0.9-0.6 1.4-0.7 0.4 0.6 1.3 0.4 1.1-0.3 1.4 0-0.2 0.6-1.1 0.3-1.3 0.3-2.7 0.9-1.3 0.5-2.7 0.6-0.3-0.1-0.1 0.3 0.1 0.3 0 0.5l-0.2-0.2h-0.3q0-0.1 0.2-0.1-0.2 0.1-0.2 0.3v-0.9q-1.2 1.8-0.9 3.4 0.3 1.7-0.3 3.8-0.3-0.2-0.3-0.5 0.2-0.3 0.2-0.6-0.3 0.6-0.3 1.4 0 0.6-0.3 1-0.3-0.3-0.2-0.4 0.2-0.2-0.3-0.5-0.3 1.2-0.6 2.7-0.1 1.4 0 3 0.3 0.3 0.3-0.1 0-0.5 0.2-0.6v0.3q0.4-0.2 0.3-0.8-0.2-0.7 0.1-1 0-1.1 0.3-2 0.5-1 0.5-1.3 0.3 0.4 0 1-0.2 0.5-0.5 1.2-0.3 1.1-0.1 2 0.3 0.9-0.5 2.1h-0.3q-0.4 2.1-0.4 4.8 0 2.5-0.2 4.6 0.6-0.7 0.3-2.1-0.1-1.5 0.3-2.2 0.2 1.2 0 2.2h0.3q0.2 1.2-0.3 2.3-0.4 1-0.3 2.5 0.5-0.3 0.3-1.3-0.1-1.2 0.3-1.5 0.3-0.3 0.2-0.5-0.2-0.3 0.1-0.7 0.3-0.2 0.2 0.3-0.2 0.4 0 0.3l0.4-1.5q0.2-0.3 0.2 0 0.1 0.1 0.3 0v-0.5q-0.2 0.2-0.6-0.4 0.6-1.5 1-2.9 0.6-1.5 0.3-3.4 0.3-0.5 0.3-1.1 0.2-0.7 0.2-1.2 0.3 1.8 0.1 3.2-0.1 1.3-0.1 3 0.4-0.8 0.3-1.7-0.2-1 0.1-1.6 0.6 1.5 0.2 3-0.5 1.3-0.5 2.5 0.3-0.1 0.2-0.3 0-0.1 0.1-0.3 0.3 0.9 0.3 2 0 1-0.1 2.1 0.4 0.7 0.4 1.9v2q0 0.4 0.2 0.6-0.2 0-0.2-0.3-0.7 0.9-0.1 2.5 0.1-0.1 0.1-0.7 0.3 0.6-0.1 1.8-0.5 1-0.3 2.2-0.3 0.2 0 0.3h-0.2v0.2q-0.4-0.3-0.4-1.2 0.1-0.9 0.1-1.7-0.3 1.5-0.6 2.4-0.3 0.9-0.3 2.4-0.3 0.3-0.4 0.6-0.2 0.2-0.5 0.3 0 1.7-0.6 3.2-0.6 1.3-0.7 2.8-0.3-0.4-0.3 0 0 0.6-0.3 1.2-0.2 0.3-0.3 0.5-0.2 0.1-0.2 0.3l-0.1 0.1v0.2q0 0.1-0.2 0.1v0.3q0 0.3-0.3 0.2-0.1-0.2-0.4 0.1 0 1.1-0.2 1.5-0.1 0.5-0.9 1.2h-0.4q-0.5 0.6-1.1 0.8-0.4 0.1-0.9 0.1-0.4 0.2-0.9 0.5-0.3 0.3-0.4 1-0.9-0.1-1.1-0.3v0.9q-0.3 0-0.4 0.2-0.2 0.1-0.6 0.3-1.1-0.8-2-0.8-0.9 0-1.5-1.6-0.3-1.8-0.4-3l-0.3-2.1q0-0.9-0.2-2-0.1-1.2-0.3-3.1-0.3-4.7-0.6-8.9l-0.3-8.7q0-4.3 0.2-8.8 0.1-4.5 0.4-9.6-1-0.5-2.4 0.1-1.3 0.5-3.4 0.5-1.4 0.3-2.3 0.4-0.7 0.2-1.6 0.3-0.9 0.2-2.3 0.5-1.3 0.3-3.7 0.9 0 0.3 0.3 0.1 0.3-0.1 0.3 0-0.6 0.5-1.7 0.9-1 0.5-2.1 0.5 0.6-0.5 0.9-0.5 0.5-0.1 0.9-0.4-0.6-0.5-1 0.1-0.5 0.5-0.9 0.5-0.3 0.3-0.2 0.3 0.3 0 0.2 0.3-0.5 0-0.3-0.5-0.8 0.2-0.9 0.5l-0.5 0.4h-0.6q-0.1-0.1-0.6-0.1-0.3 0.1-0.3 0.4 0.2 0.2 0 0.6-1.6 0.9-3.7 1.2-2 0.2-3.5 1.4-1.6 2.5-3.4 4.2-1.7 1.6-4.1 3.6 0.2 0.7 0.3 1.2 0.3 0.3-0.4 0.6-0.3 0.7-0.6 1-0.2 0.3-0.3 1.1-1.4 1.2-2 2.8-0.6 1.5-1.8 2.7 0.2 0.3 0.2 0.5 0.1 0.1 0.1 0.6-0.6 0.1-0.7 0.6-0.2 0.4-0.9 0.6-0.3 0.6-0.2 0.7 0.3 0.2 0.2 0.5-0.8 0-0.9 0.3-0.2 0.1-0.6 0.1 0 0.3-0.2 0.5v0.6q-0.1 0.1-0.4 0.1-0.2 0-0.2 0.2 0 0.7-0.1 1 0 0.2 0.1 0.9-0.3 0.5-0.7 0.8-0.5 0.3-0.5 0.9-1.3 0.7-1.9 1.9-0.5 1.1-1.7 1.8 0.3-1.3 1.2-2.2 1.1-0.9 0.9-2.3 0.5-0.7 0.9-1.6 0.5-1.1 1.5-1.1-0.1-0.6 0-0.9 0.2-0.4 0.2-0.7 0.1 0 0.1-0.2 0.2-0.1 0.5-0.1 0.3-1.1 1-1.7 0.8-0.6 1.1-1.6 0.4-0.5 0.7-0.5-0.3-0.7-0.1-1 0.1-0.5 0.4-0.8 0-0.1-0.3 0.2 0-0.9 0.9-1.7 0.9-0.7 1.1-2.4 0.1-0.6 0-1.3l-1.8 2.5q-0.8 1.8-1.8 3-1.1 1.1-1.4 2.7-0.9 1.1-1.6 2.4-0.8 1.4-1.7 3-0.4 0.6-1.2 1.2-0.6 0.6-0.6 1.4-0.6 0.3-0.9 1.2-0.4 0-0.4 0.6-0.2-0.2-0.2-1.1 0.6-0.3 0.9-1l0.6-1.8q-1.2 1.5-2.1 3.3-0.9 1.8-2.1 3.4-0.3 0.8-0.6 1.2-0.1 0.6-0.6 1.2-0.3 1.1-0.7 2-0.5 0.9-1.1 1.8 0.5-1.1 0.8-1.7 0.4-0.4 0.3-1.2-0.3 0-0.3 0.2 0.1 0.1-0.2 0.1 0-1-0.1-1.3-0.9 0.3-1.4 0.7-0.6 0.5-1 0.8-0.3 0.4-0.5 0.9-0.3 0.4-0.6 0.4 0.3-0.3 0.3-0.6-0.1-0.1-0.1-0.4-0.8 0.4-1.7 1.6-0.9 1.2-1.2 2.1-1.5 0.3-2.4-0.3-1-0.4-2.2-0.9l-0.6-0.3q-0.2 0-0.5-0.7 0.2-0.5-0.1-0.9-0.5-0.3-0.2-0.6 0-0.3-1.9-0.3l-1.1-0.3q-0.3-0.2-0.3-0.3 0-0.2-0.1-0.5 0.3-0.3 0.1-0.6-0.3-0.1 0-0.4 1.7-3.8 3.2-6.5 1.3-2.7 2.7-5.2 1.3-2.6 2.8-5.1 1.5-2.7 3.3-6.2h-1.6q-0.6 0-1.8 0.5-1.1 0.4-0.8 0.1 0-0.1-0.1-0.1-0.2-0.2-1.2 0.1l-2.1-1.6q-0.5-1.1-0.6-2.9-0.2-1.9 0-3.9 0-1.9 0.4-3.6 0.3-1.8 0.9-2.5 0.3-0.2 0.5-0.3 0-0.3 0.3-0.5 0.6-0.7 1.3-1.2 0.6-0.4 1.4-1 2.4-0.9 4.3-1.2 1.8-0.5 4.2-1.2 0.8-0.3 2.1-0.6 1.4-0.5 2.4-1.2 0.5-0.3 0.8-0.9 0.4-0.8 1.2-1.7 0.7-0.9 1.3-1.8 0.6-0.9 1.1-1.6 1.8-2.9 3.4-5.1 1.7-2.4 3.3-4.7 1.7-2.4 3.3-4.6 1.8-2.4 3.9-5.3 0.8-1.3 2.1-2.8 1.5-1.5 2.4-2.7 1.4-2.1 2.9-3.9 1.5-1.8 2.7-4.1 1.6-2.4 2.7-3.7 1-1.5 1.8-2.7 0.9-1.2 1.8-2.7 0.9-1.7 2.4-4.2 0-0.2 0.7-1.2 0.8-1.2 1.7-2.6 0.9-1.3 1.6-2.5 0.8-1.2 0.8-1.5 0.9-0.8 1.5-1.5 0.7-0.9 1.5-2 0.7-0.3 1.3-0.7 0.8-0.6 1.4-1.2 0.3-0.2 0.4 0 0.3 0 0.2-0.5h0.4q0.5-0.6 1.5-0.6 1.2-0.1 2.4 0.2 1.2 0.1 2.3 0.6 1 0.4 1.3 0.7 0.8-0.7 1.1-0.9 0.4-0.3 1-0.6-0.1-0.3 0.5 0 0.6 0.2 0.7-0.1 1.2 0 1.8 0.3 0.8 0.3 1.2 0.7 0.5 0.3 1.1 0.6 0.6 0.3 1.5 0.5 0.6 0.7 1.3 1.2 0.8 0.3 1.1 1.2 3.9 1.5 5.1 5.7 0.9 1.2 0.7 2.5-0.1 1.4-0.3 2.6-0.3 1.6-0.4 3.3 0 1.6-0.2 3.3-0.7 3.9-1 7.9l-0.6 7.8q-0.2 2.1-0.5 4.2-0.1 2.1-0.1 3.9-0.2 1.5 0 4.1 0.1 2.5 0 4.3 2.8-0.1 4.9-0.3 2.1-0.1 3.9-0.1 1.8 0 3.6 0.1 2 0.2 4.5 0.5v0.4q-0.1 0-0.4 0.2zm-35 1.3q0.6-5.2 0.5-9.9-0.2-4.8 0.4-10.9-0.7 0.3-1.2 0.7-0.3 0.3-1 1.4l-3.9 5.8-0.8 0.8q-0.3 0.4-0.6 1-0.3 0.5-0.9 1.1-0.6 0.4-0.9 0.9-0.9 0.6-1.3 1.2-0.8 1.2-1.4 2.2-0.4 1.1-1.3 2.3-0.2 0.1-0.2 0.3-1.6 1.8-2.8 3.3-1.2 1.5-2.9 3.1 0 0.2 0.3 0.3v0.3q4.4-1.6 8.7-2.7 4.5-1 9.3-1.2zm14.3 45.2q-0.5 1.9 0.1 3.1 0.3-0.7 0.8-2.2 0.4-1.5 0-2.4 0.3-0.6 0.3-1.8 0.1-1.4 0.4-2.1 0.2 0.3 0 0.7-0.1 0.5 0.3 0.5-0.1-0.6 0-1.1 0.2-0.4-0.1-0.9-0.2 0.5-0.3 0.5-0.2 0-0.3 0.3 0 0.7-0.2 1.8-0.1 1-0.9 1.6 0.2-1.2-0.1-1.9-0.3-0.8 0.1-1.5-0.6-0.3-0.3-1.2 0.3-0.9-0.4-1.1 0 0.6-0.2 1.2v1.5q0.3 0.3 0.2 0.6l-0.3 0.6q0 0.6 0.1 1.4l0.3 1.2q-0.1 0.9-0.6 1.9-0.3 1.1 0 2.3 0.3-0.5 0.5-1.4 0.1-0.9 0.6-1.6zm2.7-32q-0.5 0.9-0.5 2.4 0.2 1.4 0 2.6 0.2 0 0.2-0.2 0.3 0.2 0.1 0.5-0.1 0.1-0.4 0.3-0.3 1.5-0.3 3.1 0 1.5-0.6 2.7 0.1-0.3 0.1-0.9 0-1.2-0.1-2.4 0-1.3 0.3-2.5l0.6-7.5q-0.2 0.3 0.1 1zm-2.4 17q-0.1-0.3-0.1-0.8 0.1-0.6 0.1-0.9-0.3 0-0.3 0.2 0 0.1-0.4 0.1 0.1-1.9 0.4-3.6l0.6-3.3q0.3 1.2 0 2.6-0.1 1.3 0.2 2.4 0.3-0.6 0.3-1.4 0.1 1.2-0.2 2.4-0.3 1.2-0.6 2.3zm0.8 7.6q0.3-0.6 0.3-1.2v-1.3q-0.6 0.3-0.6 1.3 0 0.9 0.3 1.2zm0.9-7.5q-0.2 0.5-0.3 1.1-0.2 0.6 0.1 1 0.2-0.4 0.2-1 0.1-0.8 0-1.1zm0.3 6.9q0-0.3-0.2-0.3l0.2 0.5v0.6q0.1 0.4 0.1 0.1 0-0.4-0.1-0.7 0.4-0.5 0.1-1.2 0 0.6-0.1 1zm0.3-1.6l0.3-0.3v-1.1q-0.3 0.9-0.3 1.4zm-1.5-10.1q0.1-0.3 0.1-0.9l-0.1 0.3zm-55.8 5.4v-0.3q-0.2 0.2 0 0.3zm54.4 0.8v0.1q0.2 0 0-0.1zm2.6 5.5v0.2zm32.5 23.2q0.8-0.4 0-0.9-0.3 0-1.2 0.9h-0.3q0 0.2-0.6 0-0.3 0-0.7 0.5l-0.3 0.9q-0.2 0.6-0.9 0.9-0.3-1.4-0.3-1.7 0.1-0.3 0.3-0.4-1.1 0-2.4 0.9h-1.5q-1.4-0.3-1.5-2.4v-3.8q0-0.7-0.3-1.9-0.3-1.4-0.6-2-0.5-1.5-0.9-2.7-0.3-1.2 0-2.4l2.8-10.3q0.3-1.1 0.6-2l0.6-1.8q1.2-3.9 2.3-7.2 1.2-3.3 2.8-7 1.1-2.9 2-5.6 1-2.8 2.2-5.7 1.2-2.5 2.3-4.9 1-2.6 2.2-5.1 1.1-2.6 2.4-5.1 1.5-2.6 2.6-5l2.4-5.2q1.2-2.9 3-6.6 1.8-3.9 3.1-6.6-0.1 0-0.4 0.3-0.2 0.1-0.5 0.3 0.2-0.5-0.6-0.2-0.6 0.3-1.5 0.9-0.9 0.5-1.8 1.1-0.7 0.4-1 0.4-0.2 0-0.6 0.2l-0.6 0.3q-0.5 0.1-1.5 0.4-0.9 0.2-2.1 0.3l-2.1 0.3q-1.1 0.2-1.7 0.2-0.4 0.3-1.3 0.7-0.8 0.3-1.7 0.5-1.5 0.7-1.6 0.9h-1.5q-0.3 0-0.5 0.1-0.1 0.2-0.9 0.2-0.1 0-0.6 0.1-0.4 0.2-0.7 0-0.5 0-1.4 0.3-0.6 0.3-1.5 0.5-0.7 0-0.9-0.2l-1.2-0.9v0.2q-0.3-0.2-0.1-0.3l0.3-0.3 0.3-0.2q0.1-0.1-0.3-0.1l-0.3-0.6q-0.2-0.3-0.2-0.9 0.2-0.3-0.1-0.6-0.2-0.3-0.2-0.6-0.4-0.5-0.3-1.2-0.1-0.2 0.2-0.3 0.4-0.3 0.7-0.6 0.5-0.3 0.5-0.5 0.1-0.3-0.5-0.4l0.9-2.3q0.3-0.3 0.3-1 0-0.8 0.5-2.1 0.6-1.8 1.2-3.3 0.6-1.5 1.3-2.3l0.3-0.9q0.2-0.1 0.2-0.3l2.2-1.2q0-0.1 0.2-0.3l0.1-0.1q0-0.2 0.2-0.3 1.6-0.5 1.6-0.8 0.2-0.3-0.1-0.6-0.2-0.4 0-0.7 0.3-0.3 2.2-0.8 1.2-0.1 1.8-0.1l1.5-0.3q0.8-0.2 1.8-0.3 1.2-0.3 3.5-1.1l-0.2 0.2q2.1-0.6 6.6-1.7 4.5-1 9.2-1.8 3.4-0.3 6.4-0.9 3-0.6 4.7-0.9 2.7-0.4 4.5-0.6 1.9-0.3 3.9-0.3 2.1 0 4.3-0.1 2.3-0.2 4.8-0.5h5q-0.3 0-0.8 0.2-0.4 0.1-0.6 0.3h2q0.4 0 0.4 0.1 0.2 0 0 0h-0.1 6.4q2.4 0.2 4.4 0.5 1.9 0.1 2.8 0.9l0.2 3.1-0.6 0.5q0.1 0.6 0.1 0.9 0.2 0.1-0.1 0.6h0.4q1.2 0.4 1.2 1-0.3 0.3-0.9 0.3v0.8q0.5 0.7-0.1 1.5-0.5 0.6 0.1 1.6-0.4 1.4-1.2 1.4l-0.7 0.3q0 0.3 0.4 0.4 0.6 0-0.1 0.3-0.9-0.4-1.7-0.3l-2.2 0.9q-0.5 0-0.9 0.2-0.3 0.1-0.5 0.1-0.7 0-1.2-0.4l-0.6 0.6q-1.8 0.3-2.8 0.7-1.1 0.5-1.7 0.9-0.6 0.3-1 0.6-0.3 0.2-0.8 0.2-1.2-0.2-1.9 0.3-0.6 0.3-2 0.4-1.5 0.2-3 0.5-1.5 0.3-3.6 1.3l-3 5.3q-1.8 3-3.4 6.1-1.5 3-2.7 5.3-1.2 2.2-1.2 2.4-0.3 0.3-0.6 0.7-0.3 0.5-0.3 0.6l-1.8 3.8q-0.6 0.4-1.1 1.2-0.3 0.6-0.6 1-0.3 0.8-1 2.3-0.8 1.5-1.5 2.1l-1.8 3.6q-0.6 1.3-1.5 2.2-1.7 3.6-3.5 7.7-1.6 4-3.6 7.6l-1.5 3q-1 2-1.3 3.8-0.3 1.6-1.4 3.1l-5.5 13.2-2 5.1-0.1 0.6q-0.8 2.6-2.1 5-0.6 0.9-1.1 1.8-0.3 0.7-0.7 1.8l-0.2 0.3q-0.4 1.3-0.9 2.4 0.8 0.3 0.5 0.4-0.3 0.3-0.6 0.8l-0.3 0.3-0.5 0.4-1 1.1q-0.5 0.3-0.8 0.4l-0.4 0.5q-0.3 0.7-0.9 1.5-0.5 0.7-1.2-0.5zm64.3 0q0.7-0.4 0-0.9-0.3 0-1.2 0.9h-0.3q0 0.2-0.6 0-0.3 0-0.8 0.5l-0.3 0.9q-0.1 0.6-0.9 0.9-0.3-1.4-0.3-1.7 0.2-0.3 0.3-0.4-1 0-2.4 0.9h-1.5q-1.3-0.3-1.5-2.4v-3.8q0-0.7-0.3-1.9-0.3-1.4-0.6-2-0.4-1.5-0.9-2.7-0.3-1.2 0-2.4l2.9-10.3q0.3-1.1 0.6-2l0.6-1.8q1.2-3.9 2.2-7.2 1.2-3.3 2.9-7 1-2.9 1.9-5.6 1.1-2.8 2.3-5.7 1.2-2.5 2.2-4.9 1.1-2.6 2.3-5.1 1-2.6 2.4-5.1 1.5-2.6 2.5-5l2.4-5.2q1.2-2.9 3-6.6 1.8-3.9 3.2-6.6-0.2 0-0.5 0.3-0.1 0.1-0.4 0.3 0.1-0.5-0.6-0.2-0.6 0.3-1.5 0.9-0.9 0.5-1.8 1.1-0.8 0.4-1.1 0.4-0.1 0-0.6 0.2l-0.6 0.3q-0.4 0.1-1.5 0.4-0.9 0.2-2.1 0.3l-2.1 0.3q-1 0.2-1.6 0.2-0.5 0.3-1.4 0.7-0.7 0.3-1.6 0.5-1.5 0.7-1.7 0.9h-1.5q-0.3 0-0.4 0.1-0.2 0.2-0.9 0.2-0.2 0-0.6 0.1-0.5 0.2-0.8 0-0.4 0-1.3 0.3-0.6 0.3-1.5 0.5-0.8 0-0.9-0.2l-1.2-0.9v0.2q-0.3-0.2-0.2-0.3l0.3-0.3 0.3-0.2q0.2-0.1-0.3-0.1l-0.3-0.6q-0.1-0.3-0.1-0.9 0.1-0.3-0.2-0.6-0.1-0.3-0.1-0.6-0.5-0.5-0.3-1.2-0.2-0.2 0.1-0.3 0.5-0.3 0.8-0.6 0.4-0.3 0.4-0.5 0.2-0.3-0.4-0.4l0.9-2.3q0.3-0.3 0.3-1 0-0.8 0.4-2.1 0.6-1.8 1.2-3.3 0.6-1.5 1.4-2.3l0.3-0.9q0.1-0.1 0.1-0.3l2.3-1.2q0-0.1 0.1-0.3l0.2-0.1q0-0.2 0.1-0.3 1.7-0.5 1.7-0.8 0.1-0.3-0.2-0.6-0.1-0.4 0-0.7 0.3-0.3 2.3-0.8 1.2-0.1 1.8-0.1l1.5-0.3q0.7-0.2 1.8-0.3 1.2-0.3 3.4-1.1l-0.1 0.2q2.1-0.6 6.6-1.7 4.5-1 9.1-1.8 3.5-0.3 6.5-0.9 3-0.6 4.6-0.9 2.7-0.4 4.5-0.6 2-0.3 3.9-0.3 2.1 0 4.4-0.1 2.2-0.2 4.8-0.5h4.9q-0.3 0-0.7 0.2-0.5 0.1-0.6 0.3h1.9q0.5 0 0.5 0.1 0.1 0 0 0h-0.2 6.5q2.4 0.2 4.3 0.5 2 0.1 2.9 0.9l0.1 3.1-0.6 0.5q0.2 0.6 0.2 0.9 0.1 0.1-0.2 0.6h0.5q1.2 0.4 1.2 1-0.3 0.3-0.9 0.3v0.8q0.4 0.7-0.2 1.5-0.4 0.6 0.2 1.6-0.5 1.4-1.2 1.4l-0.8 0.3q0 0.3 0.5 0.4 0.6 0-0.2 0.3-0.9-0.4-1.6-0.3l-2.3 0.9q-0.4 0-0.9 0.2-0.3 0.1-0.4 0.1-0.8 0-1.2-0.4l-0.6 0.6q-1.8 0.3-2.9 0.7-1 0.5-1.6 0.9-0.6 0.3-1.1 0.6-0.3 0.2-0.7 0.2-1.2-0.2-2 0.3-0.6 0.3-1.9 0.4-1.5 0.2-3 0.5-1.5 0.3-3.6 1.3l-3 5.3q-1.8 3-3.5 6.1-1.5 3-2.7 5.3-1.2 2.2-1.2 2.4-0.3 0.3-0.6 0.7-0.3 0.5-0.3 0.6l-1.8 3.8q-0.6 0.4-1 1.2-0.3 0.6-0.6 1-0.3 0.8-1.1 2.3-0.7 1.5-1.5 2.1l-1.8 3.6q-0.6 1.3-1.5 2.2-1.6 3.6-3.4 7.7-1.7 4-3.6 7.6l-1.5 3q-1.1 2-1.4 3.8-0.3 1.6-1.3 3.1l-5.6 13.2-1.9 5.1-0.2 0.6q-0.7 2.6-2.1 5-0.6 0.9-1 1.8-0.3 0.7-0.8 1.8l-0.1 0.3q-0.5 1.3-0.9 2.4 0.7 0.3 0.4 0.4-0.3 0.3-0.6 0.8l-0.3 0.3-0.4 0.4-1.1 1.1q-0.4 0.3-0.7 0.4l-0.5 0.5q-0.3 0.7-0.9 1.5-0.4 0.7-1.2-0.5zm68.2-25.3h0.2q0 0.9-0.2 1.3 0 0.3-0.3 0.8v0.1l3.9-1q2.1-0.6 3.5-0.9 1.5-0.3 3.1-0.6 1.8-0.5 4.1-0.8 2.2-0.4 6.1-1 2.7-0.6 4.5-0.8 2-0.1 3.6-0.1 1.8 0 3.8 0.1 2.1 0.2 5.1 0.2 0.7 0 1-0.2 0.5-0.1 0.8-0.1 1-0.2 1.5 0.3 0.6 0.4 1.8 2.5-0.6 0.5 0.1 1.7-1.2-0.5-1.5-0.2l-0.4 0.5-0.5 0.4q0 0.2 0.2 0.3 0.3 0.2 0.3 0.3h-0.2q0.3 0.3 0.3 0.9 0.2 0.5 0.2 0.8 0 0.6-0.5 0.9-0.4 0.1-0.7 0.4v-0.3l-0.3 0.3-0.2 0.2 1.4 0.6 1.3 0.6h-0.1q0.3 0.3 0.7 0.3v1.2l-2.4 0.4-1.2 0.5q0.3 0.1 0.8 0.1 0.6 0 1 0.2 0.6 0.1 1.1 0.3 0.1 0.4-1.5 0.7-1.5 0.2-2.6 0.5-0.3 0-0.7 0.1-0.3 0.2-0.6 0.2-2.3 0.1-4.1 0.7-1.6 0.5-2.8 0.9-1.2 0.3-1.8 0.8l-1.5 0.7q-0.8 0.5-2.1 1.2-1.4 0.6-3.8 1.2-1.3 0.3-2.7 0.5-1.3 0.1-3.1 0.7l-1.4 0.3h0.2q-4.2 1.1-6.5 2.6-0.3 0-0.6 0.1l-0.6 0.3v-0.1l-0.4 0.4v0.5q-3.3 0.6-5.1 1.8-1.4 0.4-2.7 0.7l-4.8 2.6-4.5 2.1q-0.5 0.3-0.9 0.4-0.3 0.2-1.1 0.5-0.3 0.1-0.7 0.1-0.3 0-0.5 0.2-0.6 0.3-2.1 0.3-1.5 0-1.6 1.5-0.2 0-0.8-0.3-0.6-0.2-1.5-0.5l-1.5-0.6q-0.6-0.1-0.9-0.1-1.3 0.1-1.2-0.6 0.2-0.8-0.1-2.4h0.1q-0.1-0.2-0.4-0.9l-0.9-3-0.8-1.8q-0.1-0.3-0.3-0.9-0.1-0.5 0.2-1.1l-0.2-0.4v0.1q-0.1-0.4-0.3-1.3-0.1-0.8-0.4-1.2h0.1l-0.4-0.5q-0.8-0.4-0.3-1 0.3-0.6 0.1-1.4 0-1.5 0.6-1.8 0-0.1 0.2-0.1 0-0.2 0.1-0.5l0.5-0.4h0.1q-0.3 0-0.6-0.3-0.4-0.3 0.3-1.1v-0.3l0.2-0.7q1.3-4.7 2.7-8.4 1.2-3.9 2.5-7.5l2.7-7.2 3.3-8.3q0.6-0.9 1.4-2.5l1.5-3.6q0.7-1.8 1.5-3.5 0.7-1.8 1.3-2.7 0.8-2.1 1.8-4.2 1.1-2.1 2-4l6.1-12 6.2-13.1q1.6-3 3.4-6.9l3.6-7.2q0.8-2.4 1.8-4.2 1.2-1.9 2.9-4l1.2-0.3q0.3-0.3 0.9-0.5 0.6-0.3 1-1l3.8 0.7q2.4 0.6 4.3 1.1 2.1 0.4 3.2 1.2l1.2 1.6 0.1 0.2q0 0.1 0.2 0.1v-0.1q1.2 0.6 1.5 0.9 0.3 0.1 0.6 0.9 0.1 0.4 0.4 0.9 0.5 0.4 0.5 0.3 0.6 0.7 0.3 0.9-0.2 0-0.5 0.3 0.2 0.4-0.1 0.7-0.2 0.3 0.1 1.1 0.9 1.2 1.5 2.7 0.6 1.5 0.3 3-0.1 1.2-0.7 2.7-0.5 1.5-1.2 1.8l-1.1 1.9h-0.4q-0.3 0.8-1.2 1.8-0.9 0.9-1.7 2.3h0.2l-0.9 1.8q-0.5 1-1.7 1.8-0.1 0.1-0.3 0.6-0.1 0.4-0.1 0.6-0.5 1.6-1.4 3.6-0.9 1.8-1.6 3-1.5 2.5-3.3 5.8-1.7 3.2-2.9 5.6-1.2 2.4-2.5 5.4-1.4 3-2.4 4.9l-0.3 0.6q-0.2 0.5-0.6 1.2-0.3 0.6-0.6 1.4l-0.5 0.9-1.8 3.1q-0.7 1.8-1.9 3.6-1.2 1.8-2 3-0.1 0.3-0.6 0.5-0.3 0-0.4 0.3-0.2 0-0.2 0.1 0 0.3 0.2 0.8l-1.4 1.8-0.6 1.5 0.6 0.1q0 0.9-0.6 0.9v0.6q0 0.3-0.1 0.6l0.1 0.5q-0.7 0.3-0.9 0.6-0.1 0.1-0.3 0.4l-0.3 1.1v-0.2l-0.7 0.8-0.2 0.3q0.9 0 0.5 0.4-0.3 0.3-0.5 1.1l-1 0.6h0.1v2.7q0 0.4-0.3 0.7l-0.3 0.6zm45.3 23.7q-1-0.3-1-1-0.2-0.6-1.4-2.3-0.9-0.4-1.3-1.6-0.5-1.2-0.5-2.6-0.1-1.5 0-2.8 0-1.5 0.2-2.6l2.2-8.1q0-0.6 0.3-1.3 0.3-0.9 0.5-1.2l0.3-1.4q1.8-6.7 3.6-12.9 1.9-6.1 4.2-11.8 1-1.2 1.5-2.4 0.4-1.4 0.9-2.4v-0.3q0.1-0.2 0.1-0.3 0.6-0.2 0.6-1.1l2.4-5.1q2.3-5.2 4.8-10.3 2.7-5.1 5.3-9.9 2.5-5.6 5.8-10.7 3.5-5.1 6-10.5 0.2-1.2 0.9-2.2 0.9-1.2 1.7-2l2.1-2.4q2.1-1.5 3.7-0.3h-0.4l1.2 0.3 0.9 0.5q0.3 0.3 0.6 0.9 0.4 0.6 1.3 1.2 0.3 0.1 0.9 0.6 0.6 0.4 1.1 0.9 0.6 0.3 0.7 0.4 0.3 0.2 0-0.1l9.3-1.8q6.3-1.5 12.6-2.6 6.5-1.2 14.7-0.9 1.2-0.1 3.2 0.2 1.9 0.1 3.6 0.4h1q1.5 0.2 2.1 0.8 0.6 0.4-0.6 2.1-2.4 1.2-2.7 2.8-0.1 1.5 1.2 2.9-1.9-0.2-2.1 0.4l-0.4 1.4h-0.6l-0.3 0.3q0.3 0.7-0.6 0.9 0 1.6-0.9 2.5l-0.8 0.6q-0.1 0-0.1 0.2h-0.3l-1.2 0.6q-1.2 1.2-2.4 1.5-1.1 0.3-2.3 0.3-0.7 0-1.6 0.1-0.8 0-1.5 0.2-0.6-0.2-1.2 0.1-0.5 0.2-0.6 0.5-0.2 0.1-0.8 0.1-0.3 0-0.7-0.1-0.5-0.3-1.2 0-0.3 0.1-0.9 0.3-0.5 0.1-1.1 0.3-0.4 0.1-0.7 0.1-0.6 0.2-1.1 0.3h-0.6l-2.4 0.5q-0.3 0-0.7 0.1-0.3 0-1.8 0.3l-3.9 1.5q-2 0.8-3.5 1.5-1.5 0.6-2.2 0.8l-1.4 0.3q-1.3 0.4-2.8 1-1.5 0.5-1.8 2.1l-0.5 0.3 0.2 0.2q0 0.1-0.2 0.1l-0.3 0.3q-0.6 1.7-1.9 3.8-1.2 1.9-2.7 4l-3 3.9q-1.4 2-2.3 3.6 6-1.6 12.8-2.8 6.9-1.2 13.6-1.8l3.2-0.5q3-0.6 6.3-0.7 3.3-0.2 6 0.4l0.1 0.9q0 0.3-0.1 0.6v0.6l-0.8 0.8-1.9 1.2v-0.5l-1.2 0.9q-0.3 0-0.3 0.2 0 0.3-0.8 0.3-0.3 0.3-0.4 1-0.2 0.6-0.2 1.2h3.8q0.4 0-0.3 0.2-0.2 0.1 0.3 0.1 1 0.5 0.7 1.4-0.3 0.7-1.8 1.5-0.1 0-0.4 0.1-0.3 0.2-0.5 0.2-0.3 0-0.6 0.1-0.3 0.2 0 0.5l-1.3 0.6q0 0.3-0.3 0.4-0.2 0.2-0.3 0.5v0.9q-0.3 0.6-3.2 0.9-0.6 0.1-1.3 0.1-0.8 0-1.4 0.3-1.2-0.3-2.2 0.2-1.1 0.4-2.1 0.7l-2.7 0.6q-2.1 0.2-3.8 0.6-1.5 0.3-2.5 0.8l-1.7 1.2q-0.7 0.4-2.4 0.9-1.6 0.3-3.4 0.6-0.5 0.3-1.1 0.4-0.6 0-1.8 0.6-0.6 0-1.5 0.2-0.7 0-1.3 0.3l-3.8 0.7q-0.7 0-1.3 0.3-0.5 0.2-1.2 0.3l-1.2 0.9q-0.6 0.5-2 0.2-0.7 0-1.6 0.1-0.8 0.2-1.5 0.5-0.6 0.7-1.2 2.2l-1.2 2.7-0.9 2-4.2 10q-0.8 1.5-0.9 2.3 0 0.7-0.3 1.9-0.2 0.8-0.2 0.6 0.2-0.3 0.2 0.5-1.4 4.6 3 3.4 1.3-0.3 2.1-0.3 0.7-0.1 2.4-0.6 1.3-0.6 2.8-1 1.7-0.6 3.6-1.4l3-1.3 11.7-4.2 8.1-2.6q2.6-1 5.1-1.6 2.6-0.8 5-1.5l4-1.2q1.7-0.5 3.6-0.8 2-0.4 4.4-0.9h2.2q1.5-0.1 2.9 0 1.5 0 2.4 0.5 1 0.4 0.9 1.5 0 1-1.8 1.2-0.3 0.3-0.8 0.3-0.3 0-0.6 0.3 0.3 0.3 0 0.6-0.1 0.1-0.4 0.1v0.6q-0.3 0-0.5 0.5-0.1 0.3-0.6 0.6h2.7q0.6 0 0.9 0.3 0 0.3-0.1 0.4-0.2 0-0.3 0.3-0.3 0.2-0.3 0.9-0.6 0-0.9 0.3-0.2 0.3-0.5 0.5v-0.2q-0.7 0.5-1.2 0.9-0.3 0.3-0.6 0.5h0.5q0.3 0 1.3-0.2-0.4 0.2-1 0.6-0.5 0.5-0.6 0.8l0.1 0.1h0.3q0.3 0 1.1 0.2-0.8 1-1.7 1.5-0.9 0.3-1.9 0.4-1.1 0.2-2.3 0.8-1.2 0.4-2.1 0.7-1.9 0.8-2.8 1.2-0.8 0.3-1.5 0.8-0.3 0.1-0.5 0.1-0.1 0-0.1 0.2v0.9q-0.2 0-0.3 0.1h-0.2l-0.9 0.5h0.2l0.3 0.6-8 3.6q-0.3 0-0.4 0.1l-0.5 0.5q-1 1.2-1.3 1.2h-1.4l-1.8 0.3h0.2q-1.2 0.3-2.7 0.9-1.4 0.6-2.1 1.2l0.4 0.3q-0.3 0.3-1.5 0.6-1 0.3-1.6 0.4h-0.2q-0.3 0-0.4-0.1l-2.3 0.6q-0.6 0.1-1.2 0.4-0.6 0.3-0.9 1.4-1.2 0-2.7 0.7l-0.7 0.8q-0.8 0.1-1.8 0.1-0.3 0-0.5 0.2-0.1 0-1 0.6-0.6 0-1.2 0.3l-6.9 2.8q-0.5 0.8-1.7 0.9-1 0.2-1.8 0.5h-1.3l-3.6 1.5q-0.8 0.9-2.3 1.5-1.5 0.7-1.3 0.6-1.8 0.4-4.1 1-2.2 0.6-4.8-0.4l-1.5-0.5-0.9 0.3q-0.3-0.3-0.9-0.6-0.6-0.1-0.9-0.7-0.7 0-2.1-1.1-0.9-0.3-1.5-0.7-0.4-0.3-1.2-0.5zm209.9-37.2q0.3 0.3 0.3 0.8 0.2 0.3-0.6 0.6-0.1 0.3-0.4 0.6-0.3 0.3-0.3 0.6l-0.6 1q-0.3 0.5-0.8 1.1-0.3 0.4-0.6 1-0.4 0.6-0.6 1.4l-3.3 4.8q-2.8 3.4-4.2 4-0.4 0.6-0.9 1.1-0.4 0.4-1.5 2.2-1.5 1.8-2.1 2.6-0.6 0.7-1 1l-0.6 0.3q-0.3 0.2 0-0.4-1.1 0.4-2.6 1.5-1.5 1-1.8 1.3 0.2-0.1 1.8-0.1-0.6 0.3-1.3 1.2-0.6 0.9-1.1 1.6-1.2 0.3-2.1 1.1-0.7 0.6-1.3 1.3 0-0.1-0.6 0.2l-0.9 0.4v-0.1q-0.3 0.3-0.9 0.3v0.6q-0.3 0.6-1.2 1.2-0.9 0.7-2.3 1.3-1.2 0.8-2.5 1.4-1.4 0.7-2.3 1.2l-1.9 0.7q-0.6 0.2-1.2 0.2-0.6 0.1-1.4 0.4-1.3 0.8-3 1.2-1.6 0.6-3.1 0.9h-0.2q0 0.2-0.1 0.2h-0.3q-1.7 0.1-4.1 0.4-2.2 0.3-5.2 0.3-1.8 0-3.3-0.4-1.5-0.3-2.7-0.5-4.5-0.9-8.6-3.6-3.9-2.7-6.7-6.4-2.9-3.9-4.4-8.6-1.6-4.8-1.5-9.9 0.2-6.3 2-11.7 1.8-5.4 3.6-10 3.7-9.2 8.4-17.1 4.6-8 10.9-15.8 3.3-3.7 6.8-7.6 3.6-4.1 6.9-8l1.8-1.6 2.7-2.7q2.1-2.1 4-3.9 2.1-2 3.3-2.7 1.2-0.6 1.5-1.1 0.5-0.4 1.1-0.9l2.5-2.4 1.4-0.7q0.9-0.8 1.5-1.2 0.7-0.6 2.1-0.9 0.3-0.2 1-0.2h0.8q0.4 0 0.7-0.1 0.3 0.1 0.6-0.2 0.5-0.3 0.8-0.3h0.9q0.7 0 1.2-0.1 0.6 0.6 0.6 1.2 0 0.3 0.3 0.7 0.3 0.3 2.1 0.9 1.9 0.6 4 1.1 2.3 0.3 4.4 0.6 2.1 0.3 2.7 1.5l0.6 1q0.3 0.8 0.7 1.5 0.6 0.6 1.1 1.4l1.2 1.6q0.7 1.2 1.3 3.9 0.6 2.6 0.6 4.5-0.4 0.3-0.4 0.6l0.7 0.8q0.6 0.4 0.9 0.1l-0.1-0.1q-0.3-0.3-0.3-0.5v-0.9q0.6 0.8 1 1.4 0.5 0.4 0.6 1.2 0.3 1.3 1.4 1.9h0.4v0.9q0 0.5 0.3 0.8 0 0.3 0.5 0.4h0.7q1.1 2.6 2 5.7 0.9 3 1.2 6.9 0.3 1.2 0.3 2.9 0 1.6-0.2 2.7 0 0.3-0.1 0.6v1.2q0 0.3-0.2 0.6 0 0.4-0.1 1.3 0 0.9-0.3 1.2-0.2 0.2-0.2 0.3 0 0.2-0.1 0.2 0.4 0.4 0.1 1.2 0.3 0.7-0.4 2.1v-0.2q-0.6 2.4-0.9 3.8-0.3 1.2-0.5 2.1-0.1 0.7-0.3 1.2-0.1 0.3-0.3 0.9l-1.2 1.5q0 0.1-0.1 0.3v0.6l-0.6 1.3 0.1-0.1q0 0.1-0.1 0.6-0.2 0.3-0.2 0.4-0.7 1.1-1 1.7-0.3 0.4-0.6 1.2l-1.2 2.8q0 0.5-0.5 0.8-0.3 0.1-0.6 0.9 0-0.2-0.4 0.9-0.3 0.9-0.6 1.3-0.3 0.8-0.6 1.1-0.2 0.1-0.2 0.4l-0.3 0.5zm-52.6 23.5q2.5-0.3 4.8-1.5 0.6-0.3 1.2-0.6 0.5-0.4 1.1-0.7 0.6-0.4 1.2-0.7 0.6-0.4 1.1-0.8v0.3l3.6-2.7q1.4-1.1 2.6-2.1 1.3-1.2 2.5-2.4 2.6-2.9 5.1-5.4 2.6-2.7 5.4-6.9l3.2-4.7q2.7-4 5.4-8.8 2.7-4.8 4.8-11 0.9-2.1 1.2-4.6 0.4-2.6 0.4-4.4 0-2.5-0.3-4.5-0.1-2.1-0.9-4.2-0.1-1.2-0.3-1.6 0-0.6-0.3-1.1-0.7-0.6-0.9-2.7-1.2-0.1-1.3-0.7 0-0.6-0.5-1.2-0.4-0.5-0.7-1.1-0.2-0.6-0.6-0.6-0.5 0.3-1.1 0.9-0.4 0.5-1.2 0.8-2.1 1-3.4 2.1-1.4 0.9-3 2.4-4.5 3.7-9.2 9.4-4.6 5.7-9.3 11.3-0.6 1-1.3 1.8l-1.2 1.5q-3.2 4-6.2 9-2.8 4.8-5.1 10.3-1.3 2.4-2.5 5.4-1.1 2.9-2 5.9-0.7 3-1.3 6.1-0.5 3-0.6 5.9l0.6 1q0.7 1.4 2.5 1.8 2 0.3 6.5-0.9zm113.4-34.9l-2.6 0.3q-1 0.1-1.8 0.6-0.7 0.4-1.5 0.4-0.6 0-0.9 0.2h-0.4q-1.4 0.3-2.6 1h-0.4q-0.2 0-0.5-0.3l-0.9 0.3q-1.9 0.2-2.8 1.1-1.2-0.5-1.8-0.2-0.6 0.3-1.1 0.6-0.3 0.3-0.4 0.3-0.2-0.1-0.2 0.2-0.3 0-0.6 0.1h-0.7q-0.3-0.1-1.1 0.5-0.3 0.3-0.6 0.3-0.1 0-0.3 0.1h-0.4q0.1-0.1-0.3 0.6l-0.6 1.5-0.6 0.5-1.2 2.1q-0.5 0.4-0.5 1l-1 1.2-1.5 4.5-1.5 3.5q-0.3 0.7-0.8 1.6-0.4 0.8-0.7 2-0.3 0.3-0.8 1.3-0.4 0.9-0.9 2.1l-0.6 2.1-0.4 1.4q-0.6 0.4-1.1 1.2-0.3 0.7-0.6 1.3l-0.1 1.5-2.6 3.9-0.4 1.8-0.6 1.7-1.4 1.3-0.4 0.5q-0.2 0.4-0.6 1.6 0 0.6-0.6 0.5l-0.9 1.3q-0.8 2-1.5 3.6-0.6 1.8-1.7 4.8-1.2-1.9-1-2.4 0.1-0.4 0.3-1 0.3-0.5 0.3-2h-0.3l-0.6 1.8q-0.3 0.5-0.6 1.1-0.3 0.6-0.5 1.5l-1.2 0.1q-0.1-0.3-0.3-0.4v-0.6q-0.3 0-0.3 0.6-0.3 0.7-0.7 0.9-2.6 0-3.5-0.8h-0.1q0 0.3-0.5 0.3-0.4 0.2-0.6 0.2 0 0.3-0.3 0.6-0.1 0.1 0 0.7-0.7 1.1-1 0.9-0.5 0-2-0.3h-1q-1.5 0-2.4-0.1-1.1 0-1.4-1.7-0.7-1.8-0.4-4.3 0.1-2.6 0.7-4.7 0.5-2.1 1.2-4.5 0.6-2.4 2-4.8 1.2-3.3 2.7-6.4 1.3-3.3 1.8-5.6 1.2-2.4 1.9-4.9 0.6-2.7 2-5.1 1.2-3.2 3.4-7.8 2.3-4.7 4.8-10.1 2.1-4.6 4.5-8.8 2.6-4.4 5-8.7l8.1-13.8-0.3-0.6q-0.8-0.3-1.8-1.4-0.9-1-0.6-0.1-0.6-0.5-1.1-1.2-0.4-0.9-1.2-1.7 0.2 0.3-1.8-0.9-0.6-1.6-2.1-2.2-1.9-1.1-2.7-2.9 0.5-0.3 0.6-1.2 0.3-1 0.6-1.8 1.5-2.1 3-3.3 1.7-1.3 4.7-1.9 2.4-0.3 4.9-1.2 2.7-1.1 5.3-1.8 1.3-0.5 3.4-0.9 2.1-0.6 4.2-1.4l0.9-1q-0.1 0.1-0.1 0l0.4-0.5 1.2-1.5 1.4-1q0.4-0.2 0.9-0.2 0.6 0 1.2-1.2 1 0.5 1.5 0l1 0.5 2.7 1.5 10.1-2.4q3-0.8 6.1-1.5 3.2-0.8 6.3-1.4 4.2-0.7 5.4-0.9 1.4-0.3 2.4-0.1h2.3q1.5-0.2 5.7-0.9l3.7-0.2q2.3-0.3 4.8-0.3 2.7-0.1 4.7 0.2 1 0.1 1.6 0.1 0.8-0.1 1.1-0.1 0.4 0 0.7 0.3 0.3 0.1 0.8 0.9 0.6 1.2 0.4 1.5-0.1 0.1-0.9 0.1-0.7 0-0.4 0.2 0.3 0 0.6 0.7-0.5 0.3-0.8 0.3-0.1 0-0.4 0.3-0.3 0.2-0.5 0.3-0.1 0.2-0.3 0.2 0.6 0.6 0.2 1.9-0.3 1.1 0.7 1.8l-0.4 0.9v0.5q0 0.3-0.2 0.6 0 0.1-0.7 0.3-0.2 0-0.3 0.1 0 0.2-0.3-0.1-1.2 0.6-2.1 1.6-0.9 1.1-2.1 1.8-0.2 0.2-0.2 0.3 0 0.2 0.9 0.9-2.4 0.5-2.1 2-1.9 0.3-3.9 0.9-1.8 0.6-3.6 1-3 0.8-5.8 1.4-2.9 0.4-7.1 1.2-1.5 0.3-3.1 0.9l-3.3 1.2q-2.3 0.9-3.9 1.3-1.5 0.5-3.2 1.1-1.5 0.4-3.6 1.3-1.9 0.9-5.2 2.4 0 0.3-0.2 0.5-0.1 0-0.3 0.3-0.1 0.3-0.6 0.6-0.4 0.1-0.4 0.4-0.9 1.1-1.4 1.7-0.3 0.6-0.6 1.6-0.4 1.5-1.6 2.4-0.1 0.4-0.2 0.6-0.1 0.3-0.3 0.6-0.1 0.3-0.3 0.6-0.1 0.2-0.3 0.5-0.7 1-1 1.8-0.3 1.2-1.1 2.1-0.7 0.9-0.9 2.2-0.4 0.3-0.4 0.5-0.2 0.6-0.9 0.7-0.5 1.5-1.2 3-0.6 1.4-1.4 2.7-1 1.1-1.9 2.1-0.8 1.1-1.1 2.1 0.6-0.7 0.2 0-0.3 0.6-0.9 1.4 1.8-0.3 3.7-0.8 2-0.6 4.1-0.9 2.4-0.6 4.8-0.9 2.4-0.4 4.9-0.7l9.5-1.7q1.3 0 2.5 0.3 1.4 0.2 1.8 1.7v-0.2q0.2 0.2 0.2 0.6h0.4q0.3-0.1 0.6-0.1 0.6-0.2 0.8 0 0.1 0 0.1 0.1 0 0.2 0.2 0.5 0.1 0.1 0.7 0.3 0.6 0.7 0.6 1.5 0 0.6-1.6 0.7l-0.5 0.6 1.1 0.6q-0.5 0.5-1.1 0.5 0.3 0.3 0.5 0.1 0.1-0.1 0.6-0.1 0.6 0 0.9 0.3 0.4 0.1 0.7 1.3h-1.2l-0.6 0.5q0.2 0.1 0.6 0.1 0.5 0.8 0.3 0.8-1.2 1.3-3 1.9-1.8 0.5-2.8 0.3-0.2 0-0.3 0.2h-0.3q-0.6 0-0.8 0.1-3.4 0.5-7.2 1.5-3.6 1.1-6.7 2-0.3 0.3-1.5 0.3zm-28.1-36.3l0.3 0.1h-0.3q0-0.1-0.1-0.1zm124.5 77.7q-0.3 0-0.6 0.3l-0.6 0.3q-0.6 0.1-1.3 0.7-0.6 0.5-1.4 0.3v-0.3q-0.3 0.2-0.7 0.3-0.5 0.2-0.9 0.2l-0.6 0.3-0.6-0.3q0 0.1-0.3 0.1-1.4 0.3-3.5 0.9-2.1 0.6-4.8 0.6h-3.7q-0.8 0-2-0.4-0.7 0-1.5-0.3-0.7-0.2-1.6-0.5-0.3-0.1-0.5-0.3-0.1-0.1-0.3-0.1-4.5-0.8-7.2-3.9-2.5-3.3-4.2-6.6-0.9-2.4-1-5.1-0.2-2.7-0.2-5.7 0-3.2 0.9-6.8 0.8-3.6 2-6.3 1.6-4.2 3.3-7.6 1.6-3.5 3.4-6.6 1.8-3.3 3.9-6.6 2.1-3.3 4.7-7.2 0 0.1 0.4-0.5 0.6-0.7 1.4-1.5 0.7-0.9 1.3-1.6l0.8-0.9 3.4-4.4q3.6-4 6.8-7.5 3.3-3.4 6.6-6.4 3.3-3.2 6.9-6.2 3.7-3 8.2-6.3 0-0.3 0.5-0.6 0.3-0.3 0.7-0.6 0.6-0.3 1.4-0.9 0.9-0.4 3-1.9 2.1-1.7 4.3-3.3 2.4-1.7 4.4-2.9 2-1.2 2.5-1l1.7-1.1q0.6-0.3 0.9-0.3 0.3 0 0.6-0.1 0.3 0 0.3-0.2 0.3 0 0.6-0.1 0.3-0.2 0.6-0.2 0.3 0 0.6-0.1h-0.3q0.6-0.3 1.3-0.6l0.7-0.3q1.3-0.5 1.7-0.8 0.6-0.4 1.1-0.6 0.6-0.3 1.2-0.4 0.7-0.3 2.4-0.3 0.4 0 1.3-0.5 1.1-0.4 1.6-0.6h2.8q0.9 0 1.7 0.2 0.8 0.1 1.3 0.4 1.3 0.5 1.8 0.5 0.6-0.2 1.2 0.6l1 0.4 8.5 5.9q0.6 0.9 1 1.8 0.3 0.6 0.6 1 0.3 0.3 0.7 0.9 0.5 0.6 0.6 2.1 1.1 2.4 0 4.8-0.9 2.3-2.1 4.5v0.6q-1 1.2-1.5 1.8l-0.4 0.9-2.6 2.7q-0.7 1.1-1.8 2-0.8 0.9-1.5 2.4-0.1 0.4-0.7 1.6-0.5 1.2-1.5 2h0.2q-0.2 0.9-1.3 1.3v-0.1l-0.5 0.7v1.1h-0.6q-0.5 0-0.5-0.2-0.3 0.8-0.7 1.7-0.4 0.9-0.6 1.2l-0.5 0.4q-0.1 0.2-0.3 0.2 0 1.2-1 1.2h-1.7l-0.6 0.4-0.6 0.5q-0.1 0-0.3 0.1h-0.1l-2.1 0.6-0.3-0.6-1.2 0.3q-0.8 0-1.2 0.6-0.6 0.5-1.8 0.6l-2.4 0.3h-3.5q-1.5-0.7-2.1-1.9-0.6-1.4-0.3-2.6 0-0.4 0.3-1.2 0.3-0.7 0.8-1.2l1.3-1.6q0.8-1.1 1.5-2.7l2.1-3.6 0.5-0.5q0.3-0.3 0.4-0.9 0.6-1 1.8-3 1.2-1.9 2-3.6h-0.2l-1.3 0.6q-1.7 0.3-2.6 0.6-0.3 0.3-0.9 0.6-0.6 0.2-0.9 0.5v-0.2l-1 0.9-0.3 0.3h-0.2q0 0.6-1.5 1.1-0.3 0.4-0.7 0.4l-0.5 0.5q-3.9 2.5-5.8 4-2 1.5-3.8 3 0.9-0.6 0.8-0.4v0.1q0 0.3-0.2 0.5 0 0.1-0.6 0.6l-2.3 1.6-1 1.2q-0.3 0.5-0.8 1.2-0.4 0.8-1.6 1.1-0.2 0.3-1.1 0.6-0.4 0.6-1.6 1.8-1.1 1.2-1.4 1.9-2.4 1.8-4 3.6-1.7 1.7-3 3.6-1.7 2-3.2 3.6-1.3 1.7-3 2.6-0.1 0.3-0.4 0.7-0.3 0.5-0.3 0.6v0.6q0 0.3-0.8 0.8l-0.1 0.1-0.5 0.5-1.3 2.2h-0.8q-1.6 2.4-2.5 3.8-0.9 1.2-1.5 1.9-0.5 0.8-0.6 1.1-0.2 0.3-0.3 0.7v0.6q-0.8 0.2-0.8 0.6l-0.9 0.8h0.9l-1.6 1.6q-0.2 0.3 0.1 0.3 0.2 0 0.2-0.1 0.3 0.7-0.2 1.2-0.4 0.3-0.7 0.6l-0.8 1.2q-1.2 2.5-1.6 4-0.5 1.5-0.8 2.4-0.1 0.9-0.1 1.5 0 0.6-0.2 1.1v1.2l-0.3 0.9q-0.1 0.4 0.3 0.9-0.3 0.3-0.1 0.6 0.3 0.3 0.1 0.6h-0.4 0.3q0.1 0 0.1 0.1 0.2 0.2 0.5 0.2 0.3 1.2 1.3 1.8 1.2 0.6 2.7 0.9h-0.1q1.3 0.3 4.2 0.3 2.8-0.2 4.3-0.8 2.3-0.4 3.8-0.9 1.6-0.6 3-1.3l2.7-1.5q1.3-0.8 3-1.7 2.4-1.5 4.6-2.4 2.3-1 4.7-2.7 0.4-0.3 1.6-1.3 1.4-1.1 2.6-2.1 1.4-1.2 2.4-2.1 1.1-1.1 1.2-1.1-0.3 0 0.2-0.1 0.4-0.3 0.1-0.2l-4.5 1.2q-1.1 0.2-2 0.8-0.7 0.4-1.5 0.4l-3.3 1.5q-0.3 0-1 0.2-0.6 0.1-0.9 0.1-0.3 0.2-0.8 0.2h-0.7q-2.1 0.1-3.5 0.1-1.2 0-2.7-0.6-0.3-0.1-0.9-0.1l-0.7-0.2v-0.3q0.1-0.1 0-0.3 0-0.1-0.6-0.4-0.2-0.2-0.6-0.5-0.5-0.3-1.2-0.3 0.7-0.7 0.1-0.9-0.6-0.1-0.6-0.4 0-0.3-0.3-0.5-0.3-0.1 0-0.7v-0.8l0.2-0.3q0-0.7-0.6-1.2-0.6-0.4 0-0.7 0.9-0.5 1.2-1.5 0.6-0.5 0.9-0.8 0.3-0.4 0.9-0.6 0.3-0.1 0.4-0.3 0.3-0.1 0.9 0 2.7-1.6 6-2.8 3.3-1.4 6.8-3l4.2-1.7 6.8-2.8 2.8-0.9q0.3 0 0.5-0.2 0.3-0.1 0.7-0.3 0.3-0.1 0.9-0.1 0.6 0 1.7-0.2l2.4-0.6h-0.2q1.1-0.6 2.1-0.6 1.7-0.9 4.2-1.3 2.6-0.6 4.7-1.1h0.6q0.3-0.1 1-0.6l4.8-0.7q1.4-0.5 2.3-0.6 0.9-0.2 1.6-0.3l1.8-0.3q0.9-0.2 2.4-0.5 0.5-0.1 0.9-0.1 0.5-0.2 1.2-0.2h-1.3q-0.8 0-1.4-0.1-0.4-0.2 0.3-0.5h1.2q1.4-0.1 2.1-0.1 0.9-0.2 2.4 0.1 3.2 0.5 4.7 1.5h-0.2q1.5 0.3 1.8 0.6 0.5 0.3 0.5 1.2l-1.4 1.4-0.9 0.6q-0.3 0.3-0.3 0.6 0 0.3-0.3 0.3 0.3 0.1 0.2 0.1l0.3 0.2q-0.5 0.4-0.5 0.6 0 0.1-0.1 0.3v0.9q0.1 0.3 0.1 0.6 0 0.3 0.2 0.6l0.3 0.6 0.3 1.9q0 0.8-0.3 1.4-0.5 1-1.5 1.6-1.1 0.5-2.1 0.8l-1.2 0.3q-2.1 0.4-2.7 0.7-0.6 0.3-0.9 0.8-0.2 0.4-0.6 1-0.5 0.5-2.4 1.4l-1.5 1.5q-0.8 1.3-2 2.2-1 0.8-1.9 2l-0.3 0.3-0.9 0.6h0.4q-0.7 0.7-1.2 1.8-0.3 0.7-0.7 1.5-0.5 0.6-1.2 1.6l-1.5 2q-0.6 1.2-1.4 1.9-0.7 0.8-1.5 2.1-0.4 0.6-0.9 1.5-0.4 0.9-0.7 1.7l-0.3-0.2-0.8 2.4q-0.7 1.1-1.8 2.7-0.9 1.7-1.2 2.6-0.3 1.2-1.2 2.8-0.9 1.7-1.3 2.7-0.6 1.2-1.1 1.8-0.3 0.5-0.4 0.6-0.3 0.3-0.5 0.3 0-0.1-0.1 0l-0.2 0.5-0.6 1.8q-0.4 0.7-0.7 0.9-0.2 0.1-0.2 0.9-0.3 1.3-0.6 2.1-0.1 0.7-0.4 0.7-0.2 0-0.5 0.3l-0.3 0.5q-1.2 1.8-1.6 2.2-0.3 0.5-0.3 0.3v-0.3q0-0.1-0.5 0.2-0.3 0.1-0.3-0.2 0.2-0.3 0.3-0.7 0.2-0.5 0.3-0.8 0.3-0.3 0.3-0.1l-0.9 1.2q-0.3 0.3 0 0.9-1.2 0.6-0.7 1.5 0.4 0.9 0.3 1.6 0 0.3-1.4 0.6-1.3 0.5-1.3 1.1l-1.4 0.4q-0.3 0.3-0.9 0-0.6-0.1-1.3 0.2-0.8-0.2-1.7 0-0.7 0.3-1.5 0.4-0.8 0.3-1.4 0.3-0.6 0-1-0.7-0.2-0.5-0.5-0.5h-0.4q-0.2 0.2-0.5 0-0.1-0.1-0.1-0.9v-2.5q0-0.9 0.1-1.8 0.2-0.9 0.5-2.1 0.4-1.2 1.2-3.3l0.1 0.1q0.3-1.9 0.5-3 0.3-1 0.4-1.5 0.3-0.4 0.6-0.7 0.3-0.3 0.7-0.9 0.1-1.1 0.4-2 0.5-1 1.7-4.2l0.1-0.7q0.8-1.5 0.9-1.5 0.2-0.2 0.5-0.9l-0.2-0.9q-0.4 0.1-0.9 0.1-0.3 0-0.9 0.5-0.7 0.4-1.3 1.3-0.7 0.9-1.9 1.2-0.6 0.5-1.2 1.2-0.6 0.6-1.6 1.5l-3.2 1.7q-0.3 0.4-0.6 0.3-0.1-0.3-0.4 0-0.2 0.1-0.2 0.4 0 0.2-0.1 0.3-1.4 0.8-2.1 1.1-0.6 0.3-1.1 0.4l-0.4 0.5q-0.2 0.3-0.5 0.3zm-19.2-60.8l-0.1 0.2q0.1 0 0.1-0.2zm169.3 30.8q0.3 0.3 0.3 0.7 0.1 0.3-0.6 0.6-0.2 0.3-0.5 0.6-0.3 0.3-0.3 0.6l-0.6 1.1q-0.3 0.4-0.7 1-0.3 0.5-0.6 1.1-0.5 0.6-0.6 1.3l-3.3 4.8q-2.9 3.5-4.2 4.1-0.5 0.6-0.9 1-0.5 0.5-1.5 2.3-1.5 1.8-2.1 2.5-0.6 0.8-1.1 1.1l-0.6 0.3q-0.3 0.1 0-0.5-1 0.5-2.5 1.5-1.5 1.1-1.8 1.4 0.1-0.2 1.8-0.2-0.6 0.3-1.4 1.2-0.6 0.9-1 1.7-1.2 0.3-2.1 1-0.8 0.6-1.4 1.4 0-0.2-0.6 0.1l-0.9 0.5v-0.2q-0.3 0.3-0.9 0.3v0.6q-0.3 0.6-1.2 1.2-0.9 0.8-2.2 1.4-1.2 0.7-2.6 1.3-1.3 0.8-2.2 1.2l-2 0.8q-0.6 0.1-1.2 0.1-0.6 0.2-1.3 0.5-1.4 0.7-3 1.2-1.7 0.6-3.2 0.9h-0.1q0 0.1-0.2 0.1h-0.3q-1.6 0.2-4 0.5-2.3 0.3-5.3 0.3-1.8 0-3.3-0.5-1.5-0.3-2.7-0.4-4.5-0.9-8.5-3.6-3.9-2.7-6.8-6.5-2.8-3.9-4.3-8.5-1.7-4.8-1.5-9.9 0.1-6.3 1.9-11.7 1.8-5.4 3.6-10.1 3.8-9.1 8.4-17.1 4.7-7.9 11-15.7 3.3-3.8 6.7-7.7 3.6-4 6.9-7.9l1.8-1.7 2.7-2.7q2.1-2.1 4.1-3.9 2.1-1.9 3.3-2.7 1.2-0.6 1.5-1 0.4-0.5 1-0.9l2.6-2.4 1.3-0.8q0.9-0.7 1.5-1.2 0.8-0.6 2.1-0.9 0.3-0.1 1.1-0.1h0.7q0.5 0 0.8-0.2 0.3 0.2 0.6-0.1 0.4-0.3 0.7-0.3h0.9q0.8 0 1.2-0.2 0.6 0.6 0.6 1.2 0 0.3 0.3 0.8 0.3 0.3 2.1 0.9 2 0.6 4.1 1 2.2 0.3 4.3 0.6 2.1 0.3 2.7 1.5l0.6 1.1q0.3 0.7 0.8 1.5 0.6 0.6 1 1.3l1.2 1.7q0.8 1.2 1.4 3.9 0.6 2.5 0.6 4.5-0.5 0.3-0.5 0.6l0.8 0.7q0.6 0.5 0.9 0.2l-0.2-0.2q-0.3-0.3-0.3-0.4v-0.9q0.6 0.7 1.1 1.3 0.4 0.5 0.6 1.2 0.3 1.4 1.3 2h0.5v0.9q0 0.4 0.3 0.7 0 0.3 0.4 0.5h0.8q1 2.5 1.9 5.7 0.9 3 1.2 6.9 0.3 1.2 0.3 2.8 0 1.7-0.1 2.7 0 0.3-0.2 0.6v1.2q0 0.3-0.1 0.6 0 0.5-0.2 1.4 0 0.9-0.3 1.2-0.1 0.1-0.1 0.3 0 0.1-0.2 0.1 0.5 0.5 0.2 1.2 0.3 0.8-0.5 2.1v-0.1q-0.6 2.4-0.9 3.7-0.3 1.2-0.4 2.1-0.2 0.8-0.3 1.2-0.2 0.3-0.3 0.9l-1.2 1.5q0 0.2-0.2 0.3v0.6l-0.6 1.4 0.2-0.2q0 0.2-0.2 0.6-0.1 0.3-0.1 0.5-0.8 1-1.1 1.6-0.3 0.5-0.6 1.2l-1.2 2.9q0 0.4-0.4 0.7-0.3 0.2-0.6 0.9 0-0.1-0.5 0.9-0.3 0.9-0.6 1.4-0.3 0.8-0.6 1-0.1 0.2-0.1 0.5l-0.3 0.4zm-52.7 23.6q2.6-0.3 4.8-1.5 0.6-0.3 1.2-0.7 0.6-0.3 1.2-0.7 0.6-0.3 1.2-0.7 0.5-0.4 1.1-0.8v0.3l3.6-2.7q1.3-1 2.5-2.1 1.4-1.2 2.6-2.4 2.5-2.8 5.1-5.4 2.5-2.7 5.4-6.9l3.1-4.6q2.7-4.1 5.4-8.9 2.7-4.8 4.8-10.9 0.9-2.1 1.2-4.7 0.5-2.5 0.5-4.3 0-2.6-0.3-4.5-0.2-2.1-0.9-4.2-0.2-1.2-0.3-1.7 0-0.6-0.3-1-0.8-0.6-0.9-2.7-1.2-0.2-1.4-0.8 0-0.6-0.4-1.2-0.5-0.4-0.8-1-0.1-0.6-0.6-0.6-0.4 0.3-1 0.9-0.5 0.4-1.2 0.7-2.1 1.1-3.5 2.1-1.3 0.9-3 2.4-4.5 3.8-9.1 9.5-4.7 5.7-9.3 11.2-0.6 1.1-1.4 1.8l-1.2 1.5q-3.1 4.1-6.1 9-2.9 4.8-5.1 10.4-1.4 2.4-2.6 5.4-1 2.8-1.9 5.8-0.8 3-1.4 6.2-0.4 3-0.6 5.8l0.6 1.1q0.8 1.3 2.6 1.8 1.9 0.3 6.4-0.9zm71.9 16.2q-0.6 0.2-0.8 0 0-0.2-0.1-0.2l-1.2 1.3q-0.6 0.6-1.4 0.2 0.3-0.5 0.3-1.2 0-0.6-0.4-1.6-0.5 1.1-0.8 2.2-0.3 1.4-1 2-0.2-0.6-0.2-1.4 0.2-0.7 0.3-1.6 0.2-0.7 0-1.6 0-0.8-0.6-1.3-0.1 1.6-0.7 2.9-0.5 1.4-0.8 2.5-0.7 0.4-1.5 1.3-0.7 0.9-2.5 0.8-0.3 0.2-0.5-0.2-0.1-0.3-0.3-0.3-0.4 0.6-0.4 0.9-0.2 0.4-0.2 0.6 0 0.1-0.3 0.1-0.3 0-1.2-0.3-0.4-1.3-0.6-2.7-0.3-1.2-0.4-2.4-0.3-1-0.8-1.9-0.6-0.9-1.6-1.7v-1.3q-0.5 0-1.1-0.2-0.6 0-0.9-0.3-0.3-0.3 0-0.7-0.7-0.5-1.3-0.2-0.6 0.5-0.9 0.9-1.1-0.3-1.4-0.1-0.3-0.5-0.7-1.5-0.5-1.1-0.2-2.6 1.4-2.1 2.4-3.4 0.9-1.4 2-2.4 1-1.2 2.4-2.1 1.2-1.1 3.3-2.6 2.1-0.6 2.5-2.2 0.5-1.8 1.1-3.6 0.7-2.6 1.6-4.4 1.1-1.9 1.8-4 0.6-1.7 0.8-2.6 0.3-0.9 0.6-2.1 4.8-12.7 9.6-26.1 4.8-13.3 9.1-26.1-0.3 0-0.7 0.2-0.3 0-0.9-0.2-0.8 0.3-2.4 0.2-1.7-0.3-2.7-1.1-0.2 0-0.3 0.5v0.1q-0.3-0.7-0.9-0.9-0.6-0.1-1.1-0.6-1.6-0.7-2.8-2.4-1.1-1.6-2-3.3-0.6-0.3-0.9-0.1-0.1 0-0.6-0.3-0.4-2.6-1.2-4.4-0.7-1.8 0.2-3.9 0.3-0.6 1-1.5 0.8-0.9 1.4-1.6 1-0.8 2.4-1.2 1.5-0.6 3.1-0.8 1.5-0.3 2.7-0.4 1.2-0.2 2.7-0.6 2.9-0.8 4.1-0.9 1.2-0.2 2.1-0.2h2.2q1.4-0.1 4.4-0.7 2.1-0.3 2.7-0.2 0.7 0.2 1.9-0.6 0.3 0.2 0.6 0.2 0.3-0.2 0.6 0.1 6.6-1.2 13.7-1 7 0 13 0.3 7.2 0.7 14 2.8 6.7 2.1 11.8 6.6 1.2 1.2 3.2 3 2.1 1.8 3.1 3.9 0.3 0.3 0.6 0.3 0.3 0.9 1.1 3 0.7 2.1 1.2 3 0.3 2.7 0.3 4.5 0.1 1.7 0.3 4.2 0 2.7-0.8 5.6-0.6 2.8-1.6 5.4-1.1 2.5-2.3 4.8-1.2 2.1-2.5 3.6-0.5 0.9-1.7 2.5-1 1.5-2.2 3-1.2 1.5-2.3 2.7-0.9 1.1-1 1.2l-2.1 2.1q-1.4 1.2-2 2-0.4 0.3-1.5 1.3-0.9 0.9-1.5 1.8-1.6 1.4-2.5 2.3l-1.5 1.5-1.4 1.3q-0.7 0.6-2.1 1.7-0.9 0.1-1.8 1-0.7 0.9-1.6 1.2-0.3 0.6-0.8 0.5-0.4-0.2-0.1 0.4 0.6-0.1 0.1-0.1-0.4-0.2 0.8-0.2-0.2 0.9-1.1 0.6-1.2 1.8-2.8 2.3-1.5 0.4-2.9 1.9 0.5 0.3 0.6 0 0.3-0.3 0.6-0.3-0.3 0.8-1.5 0.9-1.2 0.2-1.2 1.2-1.2 0.5-1.9 1.4-0.8 0.7-2 1.3l0.2 0.3h0.1q-0.9 0.6-1.5 0.5-0.9 1.2-2.7 2.2-1.6 0.9-2.8 1.8 0-0.3 0.1-0.4 0.2-0.2 0.2-0.5 1.3-0.9 2.1-1.3 0.9-0.6 1.9-1.1 0.3-0.4 0.2-0.7 1-0.3 1.8-0.9 0.9-0.6 2.1-1.4-0.2-0.1-0.3-0.1-0.2 0-0.3 0.1 0-0.3 0.1-0.3 0.2 0 0.2-0.1-0.9 0.6-2.3 1.3-1.2 0.8-2.4 1.4-1.2 0.1-2.1 1.3-0.9 1.1-2.2 1.8-0.8 0.3-1.4 0.6-0.4 0.3-1 0.5 0.3 1.2 1.2 0.3-0.5 0.7-1.1 0.9-0.4 0-0.7 0.3l-0.2-0.3q-0.4 0.3-0.9 0.4-0.3 0.2-0.6 1.2h-0.1q0.1-0.1-0.2 0-2.5 1.4-5.5 3.5-2.9 1.9-5.6 2.5 0.3 0.5 0.6 0.2 0.5-0.3 0.8-0.2 0 0.6 0.3 0.5-1.1 0.7-1.8 1-0.6 0.2-1.4 0.5-0.1 0.3-0.1 0.4 0 0.2-0.2 0.5-2.1 0.6-4.3 2.2-2.1 1.5-4.4 2.4l-1.2 0.3q1.1-0.7 2.4-1.3 1.4-0.8 2-2.1-0.2 0-0.6 0.7-0.3 0.8-1.1 0.6-0.3 0.3-1.3 0.9-0.9 0.6-1.4 0.3 0.3-0.6 0.6-0.6 0.5-0.1 1.5-0.4 0.5-0.2 0.5-0.8 0.6 0 0.7-0.3 0.2-0.4 0.3-0.7 0.6-0.3 1.1-0.5 0.6-0.3 1.3-0.9 0.8-0.7 1.2-1 0.6-0.3 1.4-0.6 1-0.3 2.1-0.8 1-0.6 1.8-1.2 0.6-0.1 0.6-0.4 0.1-0.3 0.4-0.8 0.3 0.3 0.8 0l0.7-0.7q-1 0-1.9 0.3-0.8 0.1-2 1.2-0.4 0.4-0.7 0.6-0.3 0.3-0.9 0.3-0.6 0-0.6 0.7l-0.2-0.1q-0.7-0.2-1 0.4-0.2 0.6-0.6 0.2-0.2 0-0.2 0.1 0.2 0.2 0 0.2v-0.2q-1.6 0.3-2.2 1.5-0.6 1.2-2 2 0.2-0.3 0.3-0.3 0.3-0.2 0.5-0.5-0.3 0-0.6 0.2-0.3 0.1-0.3 0.4-0.2-0.3-0.5 0.2-0.3 0.4-0.6 0.7v0.2q-2.1 1.2-3.7 2.1-1.5 0.9-3.3 2.1 0 0.3-0.2 0.4 0 0.3-0.1 0.6 1.3-0.4 2.4-1.5-0.2 1.1-1.1 1.4-0.9 0.3-1.2 1.3-0.3 0.3-0.3-0.1 0-0.3-0.1-0.3 0 0.3 0.1-0.8 0.2-0.9 0.5-2.1 0.3-1.2 0.4-2.2l0.3-1.1q0.5 0 0.6 0.8 0.3 0.7 0.5 1.8 0.1 1 0.3 1.8 0.1 0.7 0.6 0.7 0.3-0.3 0.3-0.6 0-0.3 0.3-0.7 1.2 0.3 1.9-0.3 0.8-0.5 1.5-0.8 0.5 0.2-0.3 0.5-0.7 0.3-0.7 0.6-1.7 0.9-3.2 1.6-1.5 0.9-2.7 2.1-0.1 0 0-1.2 0.2-1 0.3-2.4 0.3-1.3 0.5-2.4 0.3-1 0.1-0.9-1.3 2.9-2.7 5.9-1.3 3.1-3.4 4.9zm70.3-88.5l-0.1-0.2q-0.3-0.1-0.3-1 0.1-0.9-0.2-1-0.9-0.3-1.2-1.2-0.1-1.1-1-1.5-5.9-2.6-13.2-2.9-7.2-0.5-13.8 1.2l-1.1 0.3q-1.5 0.8-2.1 1.8-0.6 1.1-1.3 2.4-0.5 0.7-0.8 1.8-0.3 0.9-1 1.6-0.3 1.5-0.9 2.7-0.6 1.2-1.4 3.2-0.4 1.2-1.3 3.3-0.9 2.1-2 4.5-1 2.2-1.9 4.3-0.8 2.1-1.1 3.3-1.6 3-2.4 5.9-0.6 2.7-1.3 5.2-0.9 2.3-2 4.7-0.9 2.4-1.2 4.6-0.3-0.3-0.3 0.3 0 0.5-0.1 0.3-0.3 1.2-0.8 1.7-0.3 0.4-0.9 1.2-0.4 1-0.6 2.1-0.1 0.9-0.3 1.6-0.4 1.1-0.7 2-0.2 0.7-0.5 1.5-0.3 1-1.5 2.1-1 1-0.9 2.2 4.7-3.3 9.8-6.6 5.1-3.3 10.2-6.7 5.1-3.5 9.9-7.1 4.9-3.6 9.3-7.5 1.9-1.6 2.8-2.2 0.9-0.6 1.8-1.4 0.9-0.9 2.4-2.5 1.5-1.8 4.7-5.7 0.4-0.6 1.2-2 0.7-1.5 1.6-3.1 0.9-1.7 1.7-3.2 0.9-1.5 1.5-2.2 0-0.8 0.3-1.4 0.3-0.7 0.7-1.6 0.2-0.5 0.3-1.1 0.2-0.6 0.2-1.3 0.3-0.6 0-1.2-0.2-0.6-0.2-1.2zm-55.8 74.2q0.3 0.2 0.5 0.2 0.3-1.1 0.1-1.1 0.2 0.1 0.5-0.1 0.3-0.3 0.7-0.1 0.8-0.3 1.4-1.1 0.6-0.7 1.3-0.3 0-0.3 0.2-0.4 0.4 0.3 0.6 0.1 1.6-1.5 3.7-2.2 2.1-1 3.8-2.7-0.8 0-1.8 0.8-1.1 1-2.3 0.9-0.3 0.4-0.6 0.5-0.1 0.2-0.1 0.5-0.9 0-1.1 0.6-1 0.7-2.4 1.2-1.2 0.4-1.9 1.3-2.6 1.2-5.4 3.3-0.8 0.3-2.1 1.2l-0.3 0.3q-0.5 0.4-0.2 0.6 0.3-0.3 0.3 0 0 0.3-0.1 0.3 1.3-0.3 2.2-0.9 0.9-0.6 2-1.3 0.1-0.3 0-0.3-0.2 0 0-0.3v-0.3q0.1 0.4 0.3-0.2 0.3-0.7 0.6-0.1 0-0.2 0.1-0.4zm6 2q-0.7 1.6-3.6 2.1v0.6q-0.7 0.3-1.2 0.6-0.3 0.3-0.7 0.5 0.7-1.2 2.2-2.1 1.5-0.9 3.3-1.7zm7.2-4.8q0.8-0.7 1.7-1.2 1-0.6 1.9-1.2-0.7 0.7-1.6 1.5-0.8 0.6-2 0.9zm-15.3 9q0.2 0.3-0.4 0.6-0.5 0.5-0.9 0.3 0.1-0.4 0.6-0.6 0.4 0 0.7-0.3zm23.9-15.3l-1.1 1.4q0.2-1.1 1.1-1.4zm-19.2 8.3q0.1 0.3-0.2 0.3-0.1 0 0 0.7-0.4-0.4-0.1-0.7zm20.5-9q0.3 0.3 0 0.4-0.1 0-0.3 0.2 0-0.3 0.2-0.3 0.1 0 0.1-0.3zm-11.4 7.6q0.2 0.3 0 0.3-0.1-0.1 0 0-0.3 0-0.3-0.1 0.2-0.3 0.3-0.2zm-12.9 4.7l-0.6 0.4q0.5-0.4 0.6-0.4zm33.5-18.5q0 0.2-0.2 0.1v0.2q0.2 0 0.2-0.3zm-33.3 18.1v-0.1zm-0.8 0.7q-0.1 0-0.3 0.2zm-0.4-1.1q-0.2 0.2-0.5 0.2 0.3 0 0.5-0.2zm-0.8 0h0.2q0.1-0.1 0.3-0.1-0.2 0-0.3 0.1zm101.4-33.4q0.3-0.5 0.4-0.3 0.2 0.1 0.5-0.2-0.6 0-1.8-0.1-1.1-0.1-2.3 0.1-1.9-0.1-2.4-0.1-0.4-0.2-2.2 0.5-0.5-0.2-1.2-0.2-0.6-0.1-1.4 0.2 0 0.1 0.3 0.1-1 0.2-1.3 0-0.2-0.2-0.2-0.3 0-0.1-0.3-0.1-0.1-0.2-1.2 0-0.1-0.2-1-0.2-0.5 0-1.1 0.2-0.4 0-0.6 0.1-0.6-0.2-1.5 0-0.9 0.2-1.6-0.1-1.2 0.1-1.5 0.3-0.2 0.1-1.7-0.2-0.7-0.3-1.3-0.3-0.5-0.1-1.7-0.6-0.7-0.1-1.5-1l-1.9-0.9q-1.2-0.6-2.4-2.9-1.1-2.2-1.8-3.9-0.5-1.2-0.9-2.1-0.3-1-0.9-2.7-0.3-1-0.2-3 0.3-1.9 0.6-4 2.6-3.8 5-7.7 2.5-3.9 5.8-6.1 0-0.2 0.2-0.2 0.1-0.1 0.3-0.4 2.4-1.7 4.2-3.3 1.9-1.7 3.6-3.2 1.8-1.6 3.6-3 1.9-1.3 4.5-2.5 0.3-0.8 0.4-0.6 0.2 0.1 0.2-0.2h0.3q-0.2-0.1 0.1-0.3l0.6-0.3 0.2-0.1 0.3-0.3q0.3-0.2 1-0.6 0.5-0.2 1.2-0.8 0.8-0.6 1.8-1.2 1.7-0.7 2.9-1.6 1.3-1.1 3.1-1.8 4.4-2.1 7.4-4.1 3-2.1 7.3-3.7 3.3-1.2 6-2.3 2.9-1.2 5.7-2.2 2.9-1.1 6-2 3.2-0.9 7.2-1.8 0.3-0.4 0.9 0 0.8 0.3 1.4 0.2 0.3 0 0.4 0.3 0.3 0.3 0.6 0.1 0 0.5 0.2 0.5h0.4q0.3-0.2 0.3 0 0.2 0.1 0 0.9 0.3 0 0.6 0.1h0.5q0.9 2 2.5 4.7 1.7 2.7 2 4.9 0.9 1.1 1.3 2.7 0.5 1.7 0.3 3.6-0.1 2-0.9 3.9-0.6 1.8-1.8 3.3 0.2 0 0.2 0.3-1.2 2.7-2.6 5.7-1.2 2.9-3.3 5.6-0.7 1.6-1.8 3.6-0.9 1.8-1.8 3-0.3 0.9-0.9 1.6-0.4 0.6-1.2 1.7-0.7 2.1-2.2 3-1.7 1.5-3.3 1-1.5-0.6-3.6-1.8-0.5 0-1.1-0.1-0.4-0.3-0.4-0.2-0.6-0.6-0.5-0.9 0.3-0.4-0.4-0.7-0.3-0.5-0.9-0.5-0.5-0.1-1.1-0.1h-1.2q-0.4-0.2-0.7-0.8-0.5-0.7-0.6-2.2-0.2-1.5 0.1-2.3 0.3-0.3 0.8-0.6 0.6-0.3 0.3-1 1.3-2.1 2.7-4.7 1.3-2.5 3-5.2-3.5-0.8-5.7 0.4-0.6 0-1.2 0.2-1.2 0.1-2.6 0.6-1.2 0.4-2.8 1.2-4.8 2.1-8.7 4.2-3.9 2.1-8.7 4.6-0.8 0-1.7 1.1-1.3 0.7-2.1 1.3-0.7 0.5-1.6 1.1-0.8 0.6-1.8 1.5-1.1 0.7-2.9 2.1-0.3 0.3-0.3 0.6-5.1 3.3-5.2 4.6-0.2 1.2 2.2 1.5 2.6 0.3 6.8 0.2 4.2-0.3 7.8 0 2.5 0.1 5.1 0 2.4-0.2 4.8-0.2 2.4 0 4.8-0.4 1.9 0 3.7 0.1 1.8 0 3.5 0.2 4.3 0.3 9.1 0.3 5 0 9.5 1.5h0.6q0.4-0.2 0.7 0.1-0.1-0.1-0.1-0.3 0.3-0.1 0.9 0.2 0.6 0.3 0.7 0.3 0 0.3-0.4 0-0.5-0.3-0.9-0.3 1 0.4 1.5 0.9 0.4 0.3 1 0.3 1.2 1.2 2.6 2.4 1.5 1 2.5 2.4 1.2 1.2 1.8 2.8 0.6 1.5 0 3.6-0.1 0.6 0 1.2 0.3 0.5 0 1.7 0.2 0.6-0.1 1-0.2 0.3 0.1 0.6-0.3 1.2-0.1 1.8 0.3 0.5 0.1 1.2-0.3 0.8-0.1 1.8 0.1 1.1 0 1.8-0.3 2-1.1 2.7-1.2 3.3-3.4 4.7-2.1 1.3-5.1 3-0.8 0.6-1.8 1.2-1.1 0.4-2.3 0.7-2.5 1.1-4 2-1.4 0.9-4.1 1.8-1 0.3-1.2 0.4-0.1 0.2-0.1 0.3h0.1-0.6q-1.2 0.6-2.7 1.1-1.3 0.3-2.8 1.2-0.6-0.2-1.5 0.1l-1.8 0.6q-0.2-0.1-0.5 0-0.3 0.2-0.3-0.4-0.6 0.7-1.3 0.7-0.6 0-1.4 1.2 0-0.3-0.3-0.1-0.3 0.1-0.4 0.1 0 0.5 0.1 0.2 0.3-0.3 0.5 0.4-0.8 0-1.5-0.3-0.6-0.3-1.2 0.5-0.3-0.3-0.2-0.3 0.3 0 0.3-0.6-0.6 0.7-1.8 0.7 0.6 0 0.6-0.9-0.3 0-0.7 0.5-0.5 0.4-1.1 0.1-0.7 0.2-0.4 0.2 0.3 0-0.5 0.4-0.1-0.3-0.6-0.1-0.3 0.1-0.6 0.4l0.3 0.2q-1.2 0.7-1.9 0.6-0.8-0.2-1.5 0.4 0.4 0.2 0.7 0.3 0.3 0 1.1 0.5-0.2 0.1-0.6 0-0.3-0.3-0.5 0.1 0 0.3-0.6 0-0.9 0.5-1.3 0.5-0.3 0-0.8-0.2l0.5-0.1q-0.3 0-0.3-0.3v-0.2h-1.4q2.6-1.2 4.8-1.8 2.3-0.7 5-2.4-0.6-0.1-1.4 0.3-0.7 0.3-1.5 0 0 0.3-0.1 0.8 0 0.4-0.3 0.6-0.3-0.3-0.9-0.2v0.3q-0.2 0.2-0.2 0.3-2.5 1.1-4.9 1.8-2.3 0.6-4.8 1.4 2.2-0.9 4.3-1.8 2.3-0.9 4.4-1.4 0-0.1-0.2-0.4-1.3 0.4-3.1 0.9-1.7 0.4-3 1.5-1.1-0.2-2.1 0.4-0.9 0.6-1.4 0.6-1.3 0.3-2.4 0.8-1 0.4-2.4 1.5 0-0.5-0.1-0.5v0.5q-0.3 0-0.8 0.4-1.9 0.2-4.2 1.1-2.1 0.9-4.6 1.6 2.5-1.2 4.5-1.9 2.1-0.8 4.3-2.1 0.3 0 0.2-0.2 0-0.1 0.1 0.2 2.3-0.8 4.5-1.8 2.4-1.1 5.3-1.8 0.3-0.6 0.7-0.6 0.5-0.2 0.9-0.5 0.3-0.4 0.9-0.6 0.6-0.1 0.9 0 0.2-0.6 0.3-0.6 0.2-0.1 0.3-0.1h0.5q0.3-0.2 0.6-0.6v-0.2q0.4-0.1 0.9 0 0.6 0 0.9-0.4 0.1 0 0.1-0.5 0-0.4 0.3-0.4 0.5 0.4 1.2 0 0.9-0.5 0.9-0.6 1.2-0.2 2.6-0.9 1.3-0.9 2.5-0.9-1-0.6-1.9-0.2-0.9 0.3-2.1 1.4-0.3-0.2-1.4 0.1-0.9 0.3-1.5 0.3 0.2-0.6 0.3-0.4 0.3 0.1 0.6-0.9 1.1 0.6 2.1 0.6v-0.3l-0.4-0.5q0.7-0.3 1.6-0.4 1.1-0.3 1.4-0.6-0.2-0.2-0.6 0-0.3 0-0.6-0.2 1.2-0.4 2.5-0.7 1.5-0.5 3-1.4-1-0.6-2.1 0.2-0.9 0.6-2.1 0.7-0.3 0.6-0.4 0.6-0.2 0.2-0.5 0-1.5 0.2-2.7 0.8-1 0.4-2.2 0.1-1.1 0.5-2.6 0.6-1.5 0.2-2.7 0.6-0.1 0.2-0.1 0.5v0.1q-0.8 0.3-1.5 0.5-0.6 0.1-1.2 0-0.6 0.7-0.2 0.6 0.5-0.3-0.1 0.4-0.8-0.1-1.7-0.1-0.7 0-1 0.1-0.3 0.6-0.9 0.8-0.6 0.1-1.4 1 0 0.2 0.6 0.2-0.4 0.3-1 0.1-0.6-0.1-0.8 0.6-0.3-0.4-0.7-0.3-0.5 0.2-0.9 0.5-0.5 0.1-0.9 0.4-0.3 0.3-0.8 0.2-0.7 0.6-1 0.3-0.3-0.5-0.6 0.1-1.2-0.1-2.6 0.8-1.2 0.7-2.1 0.6 0 0.3 0.2 0.3h-0.2q-0.1 0.4 0.2 0.3 0.3-0.2 0.6 0l-0.6-0.3q0 0.1 1 0.1l-0.3 0.2q0.2 0.1 0.2 0.3-1.4 0.1-2.9 0.6-1.3 0.4-2.4 0.9-1.2 0-2.5 1-1.2 0.9-2.4 0.8-0.2 0.3-0.5 0.6-0.3 0.1-0.3 0.3-0.9 0-1.5 0.4-0.7 0.5-1.8 0.6-0.9 0.2-1.6 0.9-1.2-0.3-2.1 1.1-0.9-0.2-1.8 0.3l-1.8 1.2-1.8 1.2q-0.9 0.6-1.7 0.7-0.1 0.2-0.3 0.2-0.1 0.1-0.4 0.1h-0.3q-0.6 0-0.8 0.3-0.1-0.6-0.4-0.3-0.5 0.3-0.9 0.9h0.3l-0.9 0.6q-0.2 0.2-0.2 0-0.1 0-0.4 0.2v0.1q0-0.3-0.3-0.6 0-0.3 0.1-0.1 0.2 0.3 0.3-0.2-0.1-0.1-0.4 0-0.5 0.2-0.9-0.3 1.5-0.9 1.8-0.7-0.3-0.8-0.8-0.5-0.6 0.5-0.9 0.3v-2.7q-0.1-1.8 0.3-2.8-0.1-1.1-0.1-1.4 0-0.4 0.4-1.3 0.3-1.2 1.2-1.2 0.9-0.2 1.8-2 0.6-0.1 1.2-0.6 2.9-1.9 4.7-2.7 1.9-0.9 5.1-2.4 0.7-0.3 1.3-0.6 1.4-0.6 1.5-0.5 8.3-3.5 13.7-6 5.4-2.5 10.3-4.7 5.1-2.3 11.3-4.7 6.1-2.4 15.9-6 1.8-0.9 2.8-1.2 1.1-0.3 1.8-0.6 0.8-0.3 1.5-0.9 0.9-0.7 2.1-2.4-2.1-0.3-3.7-0.3-1.7-0.1-4.5-0.1l-0.6 0.1h-2.4q-0.6 0-0.8-0.3-1.6 0.3-2.7 0.3-1-0.1-3.7-0.1-1.4 0-2.7 0.1-1.2 0-2.3-0.1-1 0.3-2.1 0.3-1-0.2-2.4-0.2-1 0.3-2.5 0.5-1.4 0-3.3 0.6-0.3 0-0.5 0.1-0.1 0.2-0.4 0.2-0.5 0.4-0.9 0.4zm-27 41.5q-0.6 0-1.7 0.8-0.9 0.7-2.1 0.7-0.7-0.1-1.3 0.2-0.6 0.3-0.9 0.6-0.3-0.2-0.8-0.2 0.2-0.3 0.3-0.4 0.3 0 0.6-0.3 0 0.3 0.6 0 1.1-0.4 1.7-0.3 0.7 0.2 1.6-1.1 1.5 0.2 2.6-1.6 0.7 0.3 1.5-0.1l2.1-1.1q0.3-0.3 1.8-0.6 0.7 0 2.4-0.7 1.6-0.8 2.8-1.5 1.7-0.3 3.3-1.1 1.7-0.7 3.5-1.2 0.3-0.3 0.4-0.3 0.2-0.1 1.1 0 0.7-0.3 1.5-0.4 0.9-0.2 1.9-0.6-1 0.4-1.9 0.7-0.8 0.3-1.7 0.6h0.2q-0.6 0.6-1.5 0.3l-0.8 0.3 0.3 0.3q-0.1 0.3-0.3 0.1 0-0.1-0.3-0.1 0 0.3 0.2 0.3h0.3q-0.8 1.2-2 1.2h0.3q-0.9-0.8-1.8-0.3-0.9 0.3-1.3 0.6-1.8 0.6-3.3 1.2-1.4 0.6-2.6 1.1-0.7-0.2-1.9 0.6-1.2 0.7-2.6 1.7h0.2q-1.1 0.4-2 0.7-0.9 0.4-1.6 0.7zm21.6-4.4q0.6-0.8 1.6-0.7 1.1 0 1.5-0.3 1.1-0.2 2.1-0.7 1.2-0.8 2.4-1.4-1.5 0.3-1.8 0.8-1.6-0.2-3.4 0.8-1.7 1-2.7 0.9 0.1-0.3 0.6-0.6 0.4-0.3 0.7-0.3v-0.4h0.8-0.2q2-0.8 4.1-1.2 2.2-0.4 4.5-1.4v0.3q0-0.1-0.3 0.3 0.1 0.3 0.6 0.3 0.4 0 0.9 0.5-0.3 0-0.6 0.3-0.2 0.1-0.5 0.1 0.2 0 0.2-0.4 0-0.2-0.5 0-0.3 0 0 0.3-0.3 0-0.7-0.3-0.3-0.3-0.6 0-0.3 0.3-0.2 0.4 0.3 0 0 0.2h0.3q0.2 0.3-0.6 0.3-0.3-0.3-0.7-0.2-0.5 0.2-0.9 0.5-0.5 0.3-0.8 0.6-0.3 0.1-0.3 0l-0.1 0.1v0.3-0.1q0.1 0 0.1 0.3l-0.1 0.3h-0.3v-0.2q0.1-0.1 0.1-0.3 0-0.1-0.3 0.5 0-0.8 0.3-0.9-0.3-0.6-0.9 0.1-0.4 0.6-0.7 0.6-0.5-0.4-0.5-0.1 0 0.1 0 0 0-0.2 0.2 0.3-0.8-0.2-1.7 0-0.9 0-1.6 0.4zm8.7-9.8q0.1-0.4 0.1-0.2 0.2 0 0.5-0.5 2.2-0.7 4.6-1.5 2.4-0.9 4.1-1.2h0.7q-2.2 1.2-4.9 2-2.6 0.7-5.1 1.6zm-8.7 4.4q-0.2-0.3 0-0.3 1.6-0.6 3.6-1.3 2.1-0.9 4.2-1.3-2.3 1.2-4.4 1.7-1.9 0.4-3.4 1.2zm-16.7 11.6q0.2-0.6 0.3-0.6 0.2 0 0.5-0.5 0.3 0 1.6-0.6 1.4-0.5 2.3-1.7 1.2-0.1 2.2-0.4 1.2-0.3 2.6-0.6-0.3 0.4-0.9 0.3-0.6 0-0.9 0.1-2.1 0.5-4.1 1.8-1.9 1.4-3.6 2.2zm32.4-17.8q-1.9 1.4-3.6 1.8-1.5 0.5-2.7 1.5l-0.3-0.4q3.3-2 6.6-2.8zm-29.1 17.5q0.3-0.8 0.5-0.8 0.1 0 0.4-0.1 0.8-0.6 1.4-1 0.7-0.3 1.5-0.9 0.1-0.5 0.4-0.5v0.1q0.2 0 0.3 0.3l1.1 0.2q-1.7 0.9-3.2 1.5-1.5 0.6-2.4 1.2zm29.6-11.5q0.3 0.3 0.7 0.1l0.9-0.3q0.5-0.3 0.9-0.3 0.5-0.2 0.8 0.5-0.8 0.3-1.8 0.6-0.9 0.3-1.7 0.3zm-33.6 10.6q1.7-0.9 3.9-1.9 2.3-1.1 4.1-1.5-1.8 0.9-4.1 1.7-2.1 0.9-3.9 1.7zm-12.6 3.3q0.2-0.3 0.5-0.6 0.3-0.3 0.4-0.6 0.2-0.1 0.5-0.1l2.7-0.7zm28.8-8.1q-1.4 0.8-2.6 0.9-1 0.3-2.2 0.5h-0.6q-0.3 0.2-0.6 0.1 0.3-0.3 0.9-0.4 0.7 0 1.5-0.3l-0.2 0.1q0.8 0 1.8-0.3 1.1-0.2 2-0.6zm13.6-9.9q0.6-0.2 1.5-0.4 1.1-0.3 2-0.8-0.8 0.8-1.8 1.1-0.9 0.3-1.7 0.1zm-21.4 14.9q0.7-0.9 1.3-1 0.6-0.2 1.4-0.9-0.5 1.2-1.2 1.5-0.8 0.3-1.5 0.4zm5.1-3.7q0.7-0.4 1.3-0.7 0.8-0.1 1.1 0.5-0.6 0.3-0.9-0.1-0.5 0-0.8 0.3-0.3 0.3-0.7 0zm4.8-0.8l-0.5 0.6q-0.3 0-0.4 0.2l-0.5 0.4v0.2q0-0.2-0.4-0.2 0.3-0.1 0.7-0.7 0.5-0.5 1.1-0.5zm12.1-4.5q0.3-0.3 0.8-0.3h0.7q-0.3 0.4-0.9 0.6-0.6 0-0.6-0.3zm-34.3 11.9q0.1-0.4 0.3-0.5 0.1-0.2 0.7 0.6l-0.1-0.1q-0.6 0.4-1.1 0.4 0.3-0.4 1.1-0.4-0.5-0.2-0.6-0.3-0.2 0-0.3 0.3zm9.6-2q1.3-0.8 1.6-0.8 0 0.6-0.4 0.5-0.5 0-1.2 0.3zm-9.5 3.5v-0.6h0.5l0.4 0.4q-0.4 0.2-0.9 0.2zm16.7-9.2q-0.2 0-0.3 0.6 0.3-0.3 0.4-0.3l0.5-0.4q-0.5 0-0.6 0.1zm-27.9 8q0.3-0.6 1-0.8 0.6-0.1 1.5-0.9-0.6 0.9-1.3 1.1-0.8 0.1-1.2 0.6zm28.8-8.4q0.4 0.3 0.7 0.1 0.3-0.3 0.2 0.3l-1.2-0.1zm7.9-0.3q-0.7 0.6-1.2 0.3 0.3-0.3 0.8-0.3l-0.2-0.2q0.2 0.2 0.6 0.2zm-25.6 8.4q-0.9 0.4-2.1 0.7 0.4-0.1 0.9-0.4zm39.7-14.3q0.6-0.7 1.2-0.7 0.6 0 0.8-0.5-0.2 0.4-0.8 0.6-0.4 0.2-1.2 0.6zm-42.4 15.2q1.2-0.3 1.2-0.8 0.1-0.3 0.7-0.1zm30.6-15.8q0.2-0.4 0.6-0.6 0.5-0.3 1.2 0-1.3 0-1.8 0.6zm1.5-1.5h-0.3 1.1l0.3-0.4q-0.3-0.3-0.6 0.1-0.3 0.4-0.5 0.3zm-6.6 9q0.6 0.2 0.8-0.3 0.3-0.6 0.1 0 0 0.5-0.9 0.3zm6.9-7.6q0.2-0.3 0.8-0.3-0.3 0.3-0.5 0.3zm-39 15.1q-0.7 0.3-1 0.3-0.5 0-0.8 0.5 0.3-0.5 0.8-0.6 0.3 0 1-0.2zm35.7-8.5l-0.6 0.3q-0.6 0.3-0.1-0.3zm-11.1 3.4q0.7 0.3 1-0.1 0.3-0.3 0.3-0.5-0.1 1.1-1.3 0.6zm-10.4 3.9q-0.1 0 0-0.1 0.2-0.2 0.3 0.1h0.3q-0.1 0-0.4 0.3v-0.3zm13.8-67.2q0.4-0.1 0.6-0.4 0.1-0.5 0.4-0.3l-0.4 0.4q0 0.2-0.6 0.3zm23.8 53.3q0.3 0 0.6 0.1 0.5 0 0.9-0.4-0.3 0.5-0.7 0.6-0.3-0.2-0.8-0.3zm-50.8 13q0-0.3 0.1-0.1l0.3 0.3h-0.3q-0.1 0-0.1-0.2zm27.1-6.1q0.5-0.5 1.7-0.8zm-10.4 6.8q0.3-0.3 0.3-0.2 0.2 0.2 0.6-0.1-0.3 0.3-0.6 0.3zm10.7-4.5l0.1 0.3h-1zm1.3-3l1.2-0.7h-0.3zm-17.4 7.7q0.2 0 0.3-0.2 0.2 0 0.2-0.1h0.1q-0.1 0.3-0.3 0.3zm17.4-4.7l-1-0.1q0.3-0.3 1 0.1zm4.4-4.6q0.1-0.6 0.4-0.5l-0.4 0.3zm-8.3 4.8q0.2-0.3 0.8-0.6zm-0.5-4.9q0.2 0.3 0.3 0 0.3-0.3 0.5-0.3zm-10.5 9.6l0.1 0.1q0.6 0 0.5 0.5-0.2 0-0.3-0.2-0.2 0-0.2-0.1v-0.2zm-7.2-1.7l-1.9 0.8q0.3-0.1 0.7-0.2 0.6-0.2 1.2-0.6zm21.5-4.5q0.9-0.3 1-0.5-0.3 0.5-1 0.5zm12.9-10.1q0-0.3 0.1-0.1 0.2 0.1 0.3-0.2 0 0.5-0.3 0.5-0.1 0-0.1-0.2zm-36.9 15.8h0.1q0-0.2 0.2-0.3-0.3 0.1-0.6 0.1-0.2 0-0.3 0.2zm31.2-12.9h-1.1 0.5q0.3-0.2 0.6 0zm-34.4 12.3h0.5q-0.3 0-0.3 0.1 0 0.2-0.2-0.1zm43.5-10.5q-0.4-0.2-0.7 0zm1.6-3.3q-0.6 0.3-0.9 0.3 0.5 0 0.9-0.3zm-44.4 13.8q0-0.2 0.3-0.2zm11.1 1.2q0-0.3 0.2-0.4h0.1q-0.1 0-0.1 0.1 0 0.3-0.2 0.3zm17.7-8.8v-0.2q-0.1 0-0.1 0.2zm23.7-7.5q-0.3 0-0.6 0.1-0.2 0.2-0.5 0.2 0.3 0 0.5-0.2 0.3-0.1 0.6-0.1zm-29.4 11.2l0.3-0.3zm2.8 0.2h-0.1q-0.2 0-0.2 0.1 0.2 0 0.2-0.1zm-23.1 3.9l0.1 0.1q-0.3-0.3-0.3 0 0-0.1 0.2-0.1zm49.5-16.7q-0.3-0.1-0.5 0h-0.3 0.3q0.2-0.1 0.5 0zm-30.2 12.3h-0.3zm-21.6 4.2l-0.3-0.1zm23.1-4.2h-0.3zm0.8 0.3h-0.5zm28.5-13.4q0.6 0 0.6-0.3 0 0.3-0.6 0.3zm-8.5 3.5q0 0.1 0.1 0.1zm-13 7.5h0.1z"/>
</svg>