<?xml version="1.0" standalone="no"?>
<!DOCTYPE svg PUBLIC "-//W3C//DTD SVG 20010904//EN"
 "http://www.w3.org/TR/2001/REC-SVG-20010904/DTD/svg10.dtd">
<svg version="1.0" xmlns="http://www.w3.org/2000/svg"
 width="150.000000pt" height="150.000000pt" viewBox="0 0 150.000000 150.000000"
 preserveAspectRatio="xMidYMid meet">

<g transform="translate(0.000000,150.000000) scale(0.100000,-0.100000)"
fill="#000000" stroke="none">
<path d="M731 1396 c-6 -7 -36 -16 -66 -20 -184 -21 -373 -163 -464 -348 -41
-82 -72 -191 -58 -204 14 -14 45 28 51 71 11 70 77 195 140 262 73 79 196 163
196 134 0 -6 -6 -11 -14 -11 -22 0 -57 -50 -50 -72 3 -10 21 -41 39 -69 37
-57 65 -173 46 -192 -6 -6 -11 -25 -11 -43 0 -26 -9 -40 -42 -68 -23 -20 -47
-36 -54 -36 -25 0 -36 29 -29 79 6 45 4 53 -19 76 -34 34 -103 35 -134 2 -12
-13 -22 -26 -22 -29 0 -13 32 -38 48 -38 15 1 15 2 0 11 -24 13 -23 46 1 54
46 14 72 -30 64 -106 -4 -39 -1 -50 23 -78 26 -31 31 -33 81 -29 29 3 53 4 53
3 0 -10 -88 -57 -124 -66 -97 -24 -206 13 -206 70 0 44 69 77 98 47 16 -16 15
-19 -7 -37 -22 -18 -22 -19 -2 -19 50 0 46 73 -5 86 -36 9 -100 -12 -119 -39
-25 -36 -19 -94 13 -127 38 -38 145 -70 233 -70 85 0 105 9 149 70 19 26 36
47 38 45 2 -1 -6 -26 -17 -55 -35 -91 -156 -181 -156 -115 0 15 6 19 25 17 19
-2 22 0 12 10 -8 8 -20 9 -39 2 -59 -20 -28 -89 37 -81 93 12 184 51 197 83 3
9 -2 31 -11 50 -9 20 -16 60 -16 95 0 33 -5 69 -10 80 -7 12 -7 19 -1 19 15 0
24 -40 22 -99 -1 -42 4 -63 25 -99 22 -38 28 -43 34 -28 4 13 10 1 20 -39 14
-57 13 -60 -15 -129 -13 -31 17 -14 43 25 21 30 23 40 16 84 -15 99 -6 245 16
245 4 0 14 -32 20 -72 10 -57 10 -86 0 -139 -15 -76 -7 -110 36 -150 21 -20
24 -20 24 -5 0 10 -7 30 -16 46 -20 32 -12 122 9 114 12 -4 29 19 63 84 12 23
14 24 14 6 0 -11 -7 -29 -15 -40 -43 -56 14 -99 178 -131 37 -7 79 21 75 50
-4 27 -52 47 -70 29 -10 -10 -7 -12 12 -10 19 2 25 -2 25 -17 0 -64 -122 25
-155 113 -27 71 -26 72 18 14 20 -28 47 -56 60 -61 32 -15 147 -13 207 3 103
27 145 63 145 124 0 46 -16 71 -55 88 -46 19 -75 17 -105 -5 -21 -17 -23 -22
-12 -45 11 -24 52 -38 52 -17 0 5 -8 8 -17 7 -23 -1 -24 33 -2 47 24 15 78
-10 85 -38 7 -28 -9 -61 -39 -77 -12 -7 -56 -12 -97 -12 -64 0 -83 4 -128 28
-29 16 -58 36 -65 44 -10 13 -9 14 10 4 12 -7 40 -12 61 -12 33 0 45 6 66 31
22 26 26 40 26 94 0 79 20 106 64 89 21 -8 20 -40 -1 -53 -16 -9 -16 -10 4
-11 29 0 47 33 33 60 -21 40 -120 39 -153 -1 -14 -18 -17 -33 -12 -74 11 -85
-28 -96 -101 -28 -16 15 -24 33 -24 56 0 18 -5 38 -11 44 -24 24 15 161 62
222 35 44 19 95 -33 114 -10 4 -18 11 -18 17 0 24 109 -49 182 -121 60 -59 86
-94 117 -158 22 -45 42 -100 46 -124 4 -23 14 -50 23 -59 72 -82 14 143 -69
266 -101 152 -248 246 -431 276 -35 5 -64 14 -66 20 -5 15 -38 12 -51 -4z m26
-38 c-3 -8 -6 -5 -6 6 -1 11 2 17 5 13 3 -3 4 -12 1 -19z m166 -37 c8 -8 7
-11 -3 -11 -20 0 -80 23 -80 31 0 10 70 -7 83 -20z m-272 4 c-38 -17 -61 -19
-61 -6 0 11 24 18 65 19 l30 1 -34 -14z m119 1 c-13 -13 -13 -29 0 -21 6 3 10
1 10 -5 0 -7 8 -9 23 -4 35 12 58 7 83 -17 15 -14 24 -18 24 -10 0 10 3 11 13
2 8 -6 17 -8 20 -4 4 3 7 2 7 -4 0 -6 9 -9 20 -6 23 6 50 -13 50 -35 0 -9 -11
-32 -25 -51 -24 -36 -25 -36 -90 -33 -64 4 -84 15 -47 27 21 6 46 51 37 66 -7
11 -35 12 -35 1 0 -4 3 -12 8 -18 4 -5 1 -4 -7 2 -15 14 -7 34 15 34 20 0 17
18 -5 30 -22 11 -64 13 -74 3 -4 -3 -2 -12 4 -19 8 -9 5 -11 -10 -7 -17 4 -21
1 -21 -21 0 -17 4 -25 11 -21 15 10 59 -3 59 -17 0 -9 -3 -9 -12 0 -15 15 -45
15 -54 0 -4 -6 2 -19 15 -29 l22 -18 -33 -6 c-18 -3 -44 -2 -58 4 -14 5 -18
10 -10 11 13 0 13 1 0 11 -12 9 -11 10 8 6 12 -3 22 -4 22 -4 12 47 9 75 -10
95 -23 24 -69 29 -88 10 -17 -17 -15 -26 6 -31 13 -4 11 -5 -5 -6 -15 -1 -23
-7 -23 -19 0 -24 28 -62 46 -62 8 0 14 -4 14 -10 0 -5 -24 -10 -54 -10 -30 0
-60 -2 -68 -5 -15 -5 -58 57 -58 84 0 25 22 41 59 44 17 1 31 7 31 12 0 6 4 3
9 -4 8 -12 13 -11 29 9 18 22 40 27 97 18 15 -2 20 3 19 17 0 13 6 21 18 21
12 0 14 -4 8 -10z m-40 -110 c0 -2 -11 -6 -25 -8 -13 -3 -22 -1 -19 3 5 9 44
13 44 5z m-120 -96 c0 -5 -12 -10 -27 -9 -25 0 -26 1 -8 9 27 12 35 12 35 0z
m110 0 c0 -5 -9 -10 -20 -10 -11 0 -20 5 -20 10 0 6 9 10 20 10 11 0 20 -4 20
-10z m120 0 c0 -5 -9 -10 -19 -10 -11 0 -23 5 -26 10 -4 6 5 10 19 10 14 0 26
-4 26 -10z m105 0 c17 -7 14 -9 -13 -9 -20 -1 -31 3 -27 9 7 12 13 12 40 0z
m-234 -156 c8 -10 -4 -5 -28 11 -24 15 -43 29 -43 32 0 8 57 -27 71 -43z m165
37 c-3 -5 -22 -18 -42 -30 -19 -12 -32 -16 -29 -10 6 9 65 49 73 49 2 0 1 -4
-2 -9z m-256 -76 c0 -8 -4 -15 -10 -15 -5 0 -10 7 -10 15 0 8 5 15 10 15 6 0
10 -7 10 -15z m300 -6 c0 -11 -4 -17 -10 -14 -5 3 -10 13 -10 21 0 8 5 14 10
14 6 0 10 -9 10 -21z m-200 -80 c0 -4 -10 2 -23 14 -13 12 -21 26 -19 31 5 10
42 -30 42 -45z m130 46 c0 -2 -11 -15 -25 -29 -28 -28 -33 -22 -9 12 13 19 34
30 34 17z m73 -87 c-4 -7 -10 -35 -14 -63 l-6 -50 -2 47 c-1 51 6 78 21 78 5
0 6 -6 1 -12z m-228 -93 c-3 -26 -9 -44 -12 -41 -3 3 -2 26 2 51 3 26 9 44 12
41 3 -3 2 -26 -2 -51z m143 -25 l0 -25 -8 25 c-4 14 -8 39 -8 55 l0 30 8 -30
c4 -16 8 -41 8 -55z"/>
<path d="M517 1244 c-28 -28 21 -94 70 -94 42 0 42 48 0 74 -13 8 -20 7 -28
-4 -8 -12 -9 -12 -7 5 3 19 -21 32 -35 19z m78 -44 c3 -6 -1 -7 -9 -4 -18 7
-21 14 -7 14 6 0 13 -4 16 -10z"/>
<path d="M963 1237 c4 -11 1 -14 -8 -11 -7 3 -23 1 -34 -6 -25 -13 -28 -58 -6
-66 44 -17 110 40 88 75 -14 22 -48 29 -40 8z m-13 -31 c0 -2 -7 -7 -16 -10
-8 -3 -12 -2 -9 4 6 10 25 14 25 6z"/>
<path d="M1412 835 c0 -16 2 -22 5 -12 2 9 2 23 0 30 -3 6 -5 -1 -5 -18z"/>
<path d="M1412 670 c0 -19 2 -27 5 -17 2 9 2 25 0 35 -3 9 -5 1 -5 -18z"/>
<path d="M1346 629 c-10 -10 -28 -47 -40 -82 -50 -147 -159 -271 -300 -338
-312 -149 -682 10 -793 340 -19 56 -54 104 -67 90 -7 -8 24 -110 50 -164 78
-166 240 -298 415 -340 84 -19 225 -19 303 1 217 56 393 231 449 447 16 62 12
74 -17 46z"/>
<path d="M467 433 c-4 -3 -7 -19 -7 -35 0 -26 -3 -28 -40 -28 -40 0 -53 -13
-24 -24 9 -3 26 -6 39 -6 17 0 28 -10 42 -37 22 -46 59 -61 43 -18 -16 41 -12
53 17 57 14 2 28 9 31 16 3 10 -4 12 -32 7 -34 -7 -36 -6 -36 18 0 45 -15 68
-33 50z"/>
<path d="M1045 418 c-38 -21 -75 -62 -75 -83 0 -31 31 -55 69 -55 24 0 42 9
67 34 40 40 43 70 12 97 -26 21 -45 23 -73 7z m22 -36 c-32 -33 -25 -49 11
-26 22 14 24 14 20 -2 -1 -9 -15 -26 -30 -37 -22 -17 -30 -18 -43 -7 -24 20
-18 46 18 74 43 34 57 33 24 -2z"/>
<path d="M603 378 c-24 -39 -62 -131 -57 -139 10 -17 29 -9 56 23 l27 33 49
-52 c42 -46 72 -66 72 -48 0 3 -16 29 -35 58 -38 56 -38 57 15 87 27 15 0 24
-33 11 -63 -25 -64 -25 -59 8 3 23 0 31 -11 31 -9 0 -19 -6 -24 -12z"/>
<path d="M924 311 c3 -22 3 -41 -1 -41 -5 0 -26 12 -48 25 -22 14 -46 25 -52
25 -16 0 -18 -73 -3 -101 16 -30 30 -23 30 16 0 19 1 35 3 35 2 0 22 -9 46
-21 79 -38 100 -18 63 60 -26 53 -47 54 -38 2z"/>
<path d="M772 308 c-16 -16 -15 -93 1 -107 21 -16 27 -3 27 55 0 55 -9 71 -28
52z"/>
</g>
</svg>
