<svg width="200" height="200" viewBox="0 0 200 200" fill="none" xmlns="http://www.w3.org/2000/svg">
<rect width="200" height="200" fill="black"/>
<path d="M67.2244 117.989V80.327H82.2885C94.4608 80.327 102.396 87.4305 102.396 99.158C102.396 110.684 94.4608 117.989 82.2885 117.989H67.2244ZM82.2885 85.9562H73.4787V112.36H82.2885C90.6275 112.36 95.9403 107.267 95.9403 99.158C95.9403 90.7812 90.6275 85.9562 82.2885 85.9562Z" fill="white"/>
<path d="M136.291 109.411C136.291 111.69 137.098 112.628 139.25 112.829V118.324C134.475 118.19 131.583 116.448 130.709 113.164C129.095 115.643 125.598 118.726 119.68 118.726C111.745 118.726 105.692 114.37 105.692 107.535C105.692 100.833 110.803 97.2146 119.075 97.2146H130.44C130.44 92.1885 126.54 89.3739 121.092 89.3739C115.578 89.3739 113.426 92.4566 112.821 93.5288H106.634C107.508 89.575 111.946 84.0128 121.092 84.0128C130.709 84.0128 136.291 89.4409 136.291 97.1475V109.411ZM120.218 113.633C125.598 113.633 130.44 110.952 130.44 105.457V102.04H119.344C114.838 102.04 111.812 103.916 111.812 107.535C111.812 111.354 115.511 113.633 120.218 113.633Z" fill="white"/>
<path d="M145.957 133L153.085 117.252L138.021 84.884H144.948L156.313 110.081L167.678 84.884H174L152.211 133H145.957Z" fill="white"/>
<path d="M45.0266 80.1114L60.3561 71.9415L57.7789 67L43.7418 72.6637C43.3804 72.8098 42.9796 72.8098 42.6182 72.6637L28.5772 67.004L26 71.9415L41.3296 80.1114L26 88.2813L28.5772 93.2228L42.6143 87.5591C42.9758 87.413 43.3765 87.413 43.7379 87.5591L57.7751 93.2228L60.3523 88.2813L45.0226 80.1114H45.0266Z" fill="#23F7DD"/>
</svg>
