<?xml version="1.0" encoding="UTF-8"?>
<!DOCTYPE svg PUBLIC "-//W3C//DTD SVG 1.1//EN" "http://www.w3.org/Graphics/SVG/1.1/DTD/svg11.dtd">
<svg xmlns="http://www.w3.org/2000/svg" version="1.1" width="200px" height="200px" style="shape-rendering:geometricPrecision; text-rendering:geometricPrecision; image-rendering:optimizeQuality; fill-rule:evenodd; clip-rule:evenodd" xmlns:xlink="http://www.w3.org/1999/xlink">
<g><path style="opacity:1" fill="#5d57a6" d="M 90.5,-0.5 C 107.167,-0.5 123.833,-0.5 140.5,-0.5C 118.634,13.2675 96.3008,26.2675 73.5,38.5C 73.5,37.8333 73.5,37.1667 73.5,36.5C 76.1653,33.6653 78.6653,30.6653 81,27.5C 82.4424,19.8249 82.9424,12.1583 82.5,4.5C 85.568,3.30868 88.2346,1.64201 90.5,-0.5 Z"/></g>
<g><path style="opacity:1" fill="#5a60ab" d="M 140.5,-0.5 C 144.167,-0.5 147.833,-0.5 151.5,-0.5C 150.199,2.84788 147.866,5.34788 144.5,7C 128.356,16.3295 112.689,25.4961 97.5,34.5C 82.3067,43.0165 67.14,51.6832 52,60.5C 50.4499,59.4092 49.2832,58.0758 48.5,56.5C 47.8333,56.5 47.5,56.1667 47.5,55.5C 48.3636,54.3117 49.3636,53.1451 50.5,52C 58.5231,47.9928 66.1898,43.4928 73.5,38.5C 96.3008,26.2675 118.634,13.2675 140.5,-0.5 Z"/></g>
<g><path style="opacity:1" fill="#633e97" d="M -0.5,-0.5 C 2.5,-0.5 5.5,-0.5 8.5,-0.5C 3.9154,12.4137 8.24874,17.247 21.5,14C 25.7169,10.1313 27.3835,5.298 26.5,-0.5C 33.8333,-0.5 41.1667,-0.5 48.5,-0.5C 45.1169,2.71958 42.2835,6.38625 40,10.5C 39.3333,15.8333 39.3333,21.1667 40,26.5C 41.4669,29.2664 43.3002,31.7664 45.5,34C 44.8333,34.6667 44.1667,34.6667 43.5,34C 39.7294,30.6243 37.3961,26.4576 36.5,21.5C 33.7002,20.3482 31.0335,20.8482 28.5,23C 29.1667,23.3333 29.8333,23.6667 30.5,24C 28.2537,25.0395 26.087,26.2062 24,27.5C 23.3333,28.5 23.3333,29.5 24,30.5C 25.4813,31.4709 26.3146,32.8042 26.5,34.5C 20.228,28.5062 13.228,27.8395 5.5,32.5C 1.54807,38.3372 0.548068,44.6706 2.5,51.5C 1.5,50.8333 0.5,50.1667 -0.5,49.5C -0.5,32.8333 -0.5,16.1667 -0.5,-0.5 Z"/></g>
<g><path style="opacity:1" fill="#bebebf" d="M 172.5,-0.5 C 174.5,-0.5 176.5,-0.5 178.5,-0.5C 178.238,4.06966 180.404,6.06966 185,5.5C 189.459,5.86963 191.959,3.86963 192.5,-0.5C 194.833,-0.5 197.167,-0.5 199.5,-0.5C 199.5,14.8333 199.5,30.1667 199.5,45.5C 192.99,41.9194 187.99,43.4194 184.5,50C 188.032,56.2319 193.032,57.7319 199.5,54.5C 199.5,56.1667 199.5,57.8333 199.5,59.5C 198.288,60.2299 197.288,61.2299 196.5,62.5C 192.046,60.6308 188.38,61.6308 185.5,65.5C 181.747,64.3597 181.081,62.5264 183.5,60C 182.833,59.3333 182.167,58.6667 181.5,58C 179.833,58.3333 178.167,58.6667 176.5,59C 172.266,55.3882 168.266,51.5549 164.5,47.5C 165.145,46.354 165.978,45.354 167,44.5C 167.318,40.8046 167.818,37.1379 168.5,33.5C 168.295,29.6252 166.295,27.9585 162.5,28.5C 163.028,24.7876 163.862,21.121 165,17.5C 167.841,19.5037 171.007,20.0037 174.5,19C 177.265,16.0337 176.932,13.367 173.5,11C 171.101,10.289 168.768,10.4557 166.5,11.5C 164.307,8.38071 163.974,5.04737 165.5,1.5C 168.228,1.82943 170.562,1.16276 172.5,-0.5 Z"/></g>
<g><path style="opacity:1" fill="#949494" d="M 178.5,-0.5 C 183.167,-0.5 187.833,-0.5 192.5,-0.5C 191.959,3.86963 189.459,5.86963 185,5.5C 180.404,6.06966 178.238,4.06966 178.5,-0.5 Z"/></g>
<g><path style="opacity:1" fill="#885f87" d="M 8.5,-0.5 C 9.16667,-0.5 9.83333,-0.5 10.5,-0.5C 6.63651,3.89641 6.63651,8.39641 10.5,13C 21.5078,15.1597 26.1745,10.6597 24.5,-0.5C 25.1667,-0.5 25.8333,-0.5 26.5,-0.5C 27.3835,5.298 25.7169,10.1313 21.5,14C 8.24874,17.247 3.9154,12.4137 8.5,-0.5 Z"/></g>
<g><path style="opacity:1" fill="#ab8779" d="M 10.5,-0.5 C 11.1667,-0.5 11.8333,-0.5 12.5,-0.5C 9.80749,2.58066 8.80749,6.24733 9.5,10.5C 10.5,10.5 11.5,10.5 12.5,10.5C 14.1667,10.5 15.8333,10.5 17.5,10.5C 19.371,10.1412 20.871,9.14117 22,7.5C 22.6015,4.77946 22.4349,2.11279 21.5,-0.5C 22.5,-0.5 23.5,-0.5 24.5,-0.5C 26.1745,10.6597 21.5078,15.1597 10.5,13C 6.63651,8.39641 6.63651,3.89641 10.5,-0.5 Z"/></g>
<g><path style="opacity:1" fill="#c1a16c" d="M 12.5,-0.5 C 15.5,-0.5 18.5,-0.5 21.5,-0.5C 22.4349,2.11279 22.6015,4.77946 22,7.5C 20.871,9.14117 19.371,10.1412 17.5,10.5C 19.1373,9.02562 20.1373,7.19229 20.5,5C 20.6134,3.30085 19.9468,2.13419 18.5,1.5C 12.806,0.0184742 10.306,2.35181 11,8.5C 11.7172,9.0442 12.2172,9.71087 12.5,10.5C 11.5,10.5 10.5,10.5 9.5,10.5C 8.80749,6.24733 9.80749,2.58066 12.5,-0.5 Z"/></g>
<g><path style="opacity:1" fill="#dcc052" d="M 18.5,1.5 C 19.9468,2.13419 20.6134,3.30085 20.5,5C 20.1373,7.19229 19.1373,9.02562 17.5,10.5C 15.8333,10.5 14.1667,10.5 12.5,10.5C 12.2172,9.71087 11.7172,9.0442 11,8.5C 10.306,2.35181 12.806,0.0184742 18.5,1.5 Z"/></g>
<g><path style="opacity:1" fill="#f2de2a" d="M 18.5,1.5 C 19.9064,6.93132 17.9064,9.26466 12.5,8.5C 11.6766,3.66057 13.6766,1.32724 18.5,1.5 Z"/></g>
<g><path style="opacity:1" fill="#5866af" d="M 151.5,-0.5 C 152.5,-0.5 153.5,-0.5 154.5,-0.5C 154.167,0.833333 153.833,2.16667 153.5,3.5C 150.986,8.01925 148.319,12.5193 145.5,17C 133.806,23.8449 122.139,30.6783 110.5,37.5C 106.1,34.9012 101.767,34.9012 97.5,37.5C 97.5,36.5 97.5,35.5 97.5,34.5C 112.689,25.4961 128.356,16.3295 144.5,7C 147.866,5.34788 150.199,2.84788 151.5,-0.5 Z"/></g>
<g><path style="opacity:1" fill="#5470b5" d="M 153.5,3.5 C 152.595,8.6533 151.095,13.6533 149,18.5C 148.223,21.4294 148.39,24.2628 149.5,27C 148.773,28.3988 148.273,29.8988 148,31.5C 143.582,34.2926 139.082,36.9593 134.5,39.5C 131.003,38.8979 128.003,40.0646 125.5,43C 126,43.5 126.5,44 127,44.5C 128.586,43.624 130.086,42.624 131.5,41.5C 132.308,41.8076 132.975,42.3076 133.5,43C 131.709,43.4152 130.376,44.4152 129.5,46C 128.207,46.49 126.873,46.6567 125.5,46.5C 125.843,48.4832 125.176,49.8166 123.5,50.5C 124.684,49.3121 124.684,48.1455 123.5,47C 119.848,46.5014 116.182,46.3347 112.5,46.5C 112.3,43.3704 111.634,40.3704 110.5,37.5C 122.139,30.6783 133.806,23.8449 145.5,17C 148.319,12.5193 150.986,8.01925 153.5,3.5 Z"/></g>
<g><path style="opacity:1" fill="#763084" d="M 26.5,34.5 C 27.7124,35.2299 28.7124,36.2299 29.5,37.5C 30.4909,41.4454 30.8242,45.4454 30.5,49.5C 25.2827,57.8129 17.9494,60.3129 8.5,57C 7.24796,54.308 5.24796,52.4747 2.5,51.5C 0.548068,44.6706 1.54807,38.3372 5.5,32.5C 13.228,27.8395 20.228,28.5062 26.5,34.5 Z"/></g>
<g><path style="opacity:1" fill="#828383" d="M 173.5,26.5 C 181.241,26.7381 183.241,30.2381 179.5,37C 172.495,38.3236 169.995,35.4902 172,28.5C 172.717,27.9558 173.217,27.2891 173.5,26.5 Z"/></g>
<g><path style="opacity:1" fill="#6f6e6e" d="M 189.5,28.5 C 192.97,27.8748 195.804,28.8748 198,31.5C 198.996,36.0076 197.163,38.341 192.5,38.5C 185.926,36.872 184.926,33.5386 189.5,28.5 Z"/></g>
<g><path style="opacity:1" fill="#5e499d" d="M 48.5,-0.5 C 50.1667,-0.5 51.8333,-0.5 53.5,-0.5C 42.2418,4.74695 38.4085,13.4136 42,25.5C 44.0678,29.0705 46.9012,31.7371 50.5,33.5C 51.347,34.9663 52.6803,35.7996 54.5,36C 58.5,36.6667 62.5,36.6667 66.5,36C 77.719,29.781 81.0523,20.6143 76.5,8.5C 73.7099,4.37167 70.0432,1.37167 65.5,-0.5C 73.8333,-0.5 82.1667,-0.5 90.5,-0.5C 88.2346,1.64201 85.568,3.30868 82.5,4.5C 82.9424,12.1583 82.4424,19.8249 81,27.5C 78.6653,30.6653 76.1653,33.6653 73.5,36.5C 63.3152,41.8103 53.1485,41.8103 43,36.5C 40.4136,38.5448 37.5802,40.2115 34.5,41.5C 33.341,44.3483 32.0076,47.0149 30.5,49.5C 30.8242,45.4454 30.4909,41.4454 29.5,37.5C 28.7124,36.2299 27.7124,35.2299 26.5,34.5C 26.3146,32.8042 25.4813,31.4709 24,30.5C 23.3333,29.5 23.3333,28.5 24,27.5C 26.087,26.2062 28.2537,25.0395 30.5,24C 29.8333,23.6667 29.1667,23.3333 28.5,23C 31.0335,20.8482 33.7002,20.3482 36.5,21.5C 37.3961,26.4576 39.7294,30.6243 43.5,34C 44.1667,34.6667 44.8333,34.6667 45.5,34C 43.3002,31.7664 41.4669,29.2664 40,26.5C 39.3333,21.1667 39.3333,15.8333 40,10.5C 42.2835,6.38625 45.1169,2.71958 48.5,-0.5 Z"/></g>
<g><path style="opacity:1" fill="#3e5daa" d="M 53.5,-0.5 C 57.5,-0.5 61.5,-0.5 65.5,-0.5C 70.0432,1.37167 73.7099,4.37167 76.5,8.5C 81.0523,20.6143 77.719,29.781 66.5,36C 62.5,36.6667 58.5,36.6667 54.5,36C 52.6803,35.7996 51.347,34.9663 50.5,33.5C 46.9012,31.7371 44.0678,29.0705 42,25.5C 38.4085,13.4136 42.2418,4.74695 53.5,-0.5 Z"/></g>
<g><path style="opacity:1" fill="#1077be" d="M 50.5,33.5 C 47.0509,28.9339 44.7176,23.7673 43.5,18C 44.6872,13.5974 46.3539,9.43074 48.5,5.5C 52.271,3.89053 56.271,2.89053 60.5,2.5C 62.6341,2.51528 64.6341,3.01528 66.5,4C 74.9364,9.08638 77.7698,16.5864 75,26.5C 68.5797,34.4232 60.4131,36.7566 50.5,33.5 Z"/></g>
<g><path style="opacity:1" fill="#0095d8" d="M 56.5,6.5 C 66.9631,5.12723 71.7964,9.79389 71,20.5C 68.7707,27.0322 64.2707,29.5322 57.5,28C 50.2942,25.2949 47.7942,20.1283 50,12.5C 51.4361,9.55813 53.6028,7.55813 56.5,6.5 Z"/></g>
<g><path style="opacity:1" fill="#2da2cc" d="M 110.5,37.5 C 111.634,40.3704 112.3,43.3704 112.5,46.5C 111.508,46.3284 110.842,46.6618 110.5,47.5C 105.537,48.254 100.537,48.5874 95.5,48.5C 95.335,45.1501 95.5017,41.8168 96,38.5C 96.3826,37.944 96.8826,37.6107 97.5,37.5C 101.767,34.9012 106.1,34.9012 110.5,37.5 Z"/></g>
<g><path style="opacity:1" fill="#5664aa" d="M 97.5,34.5 C 97.5,35.5 97.5,36.5 97.5,37.5C 96.8826,37.6107 96.3826,37.944 96,38.5C 95.5017,41.8168 95.335,45.1501 95.5,48.5C 92.3821,49.5587 89.3821,50.8921 86.5,52.5C 85.6618,52.8417 85.3284,53.5084 85.5,54.5C 84.448,54.3505 83.448,54.5172 82.5,55C 80.6298,57.0396 78.6298,58.8729 76.5,60.5C 75.7811,58.9087 74.7811,57.4087 73.5,56C 64.4704,54.1948 61.1371,57.6948 63.5,66.5C 61.0326,66.7549 59.0326,67.7549 57.5,69.5C 55.552,67.2113 53.552,64.878 51.5,62.5C 49.5828,65.5833 46.9162,67.75 43.5,69C 44.2524,69.6708 44.5858,70.5041 44.5,71.5C 42.953,70.2318 41.953,68.5652 41.5,66.5C 43.4147,66.7845 45.0813,66.4511 46.5,65.5C 47.1174,65.3893 47.6174,65.056 48,64.5C 48.4974,61.854 48.6641,59.1873 48.5,56.5C 49.2832,58.0758 50.4499,59.4092 52,60.5C 67.14,51.6832 82.3067,43.0165 97.5,34.5 Z"/></g>
<g><path style="opacity:1" fill="#527dbc" d="M 154.5,-0.5 C 156.167,-0.5 157.833,-0.5 159.5,-0.5C 158.632,4.2371 157.466,8.90376 156,13.5C 155.501,18.1548 155.334,22.8215 155.5,27.5C 155.5,31.5 155.5,35.5 155.5,39.5C 154.144,36.4233 153.311,33.0899 153,29.5C 152.667,34.1667 152.333,38.8333 152,43.5C 151.5,44.5 151,45.5 150.5,46.5C 139.509,52.6626 128.509,58.8293 117.5,65C 116.333,66.5 115.167,68 114,69.5C 113.601,69.2716 113.435,68.9382 113.5,68.5C 113.84,66.321 114.84,64.4877 116.5,63C 115.833,62.3333 115.167,62.3333 114.5,63C 113.458,64.918 112.292,66.7513 111,68.5C 110.95,66.256 110.117,64.5893 108.5,63.5C 106.473,60.8061 104.139,58.4728 101.5,56.5C 106.187,56.4492 110.521,55.4492 114.5,53.5C 115.167,53.8333 115.833,54.1667 116.5,54.5C 119.447,58.6638 120.781,57.9972 120.5,52.5C 121.29,51.5987 122.29,50.9321 123.5,50.5C 125.176,49.8166 125.843,48.4832 125.5,46.5C 126.873,46.6567 128.207,46.49 129.5,46C 130.376,44.4152 131.709,43.4152 133.5,43C 132.975,42.3076 132.308,41.8076 131.5,41.5C 130.086,42.624 128.586,43.624 127,44.5C 126.5,44 126,43.5 125.5,43C 128.003,40.0646 131.003,38.8979 134.5,39.5C 139.082,36.9593 143.582,34.2926 148,31.5C 148.273,29.8988 148.773,28.3988 149.5,27C 148.39,24.2628 148.223,21.4294 149,18.5C 151.095,13.6533 152.595,8.6533 153.5,3.5C 153.833,2.16667 154.167,0.833333 154.5,-0.5 Z"/></g>
<g><path style="opacity:1" fill="#478ac7" d="M 155.5,39.5 C 159.139,46.1046 162.805,52.7713 166.5,59.5C 168.403,60.9473 170.07,62.614 171.5,64.5C 170.675,65.3857 169.675,65.719 168.5,65.5C 166.035,65.233 163.701,64.5664 161.5,63.5C 160.833,63.8333 160.167,64.1667 159.5,64.5C 159.5,64.1667 159.5,63.8333 159.5,63.5C 155.094,60.4845 150.094,58.8178 144.5,58.5C 143.883,58.6107 143.383,58.944 143,59.5C 141.348,68.9482 139.848,78.2815 138.5,87.5C 138.5,85.1667 138.5,82.8333 138.5,80.5C 133.156,80.334 127.823,80.5006 122.5,81C 116.127,82.4035 109.794,83.9035 103.5,85.5C 106.539,83.46 108.873,80.7933 110.5,77.5C 111.046,74.3533 112.046,71.3533 113.5,68.5C 113.435,68.9382 113.601,69.2716 114,69.5C 115.167,68 116.333,66.5 117.5,65C 128.509,58.8293 139.509,52.6626 150.5,46.5C 151,45.5 151.5,44.5 152,43.5C 152.333,38.8333 152.667,34.1667 153,29.5C 153.311,33.0899 154.144,36.4233 155.5,39.5 Z"/></g>
<g><path style="opacity:1" fill="#a8a7a6" d="M 199.5,45.5 C 199.5,48.5 199.5,51.5 199.5,54.5C 193.032,57.7319 188.032,56.2319 184.5,50C 187.99,43.4194 192.99,41.9194 199.5,45.5 Z"/></g>
<g><path style="opacity:1" fill="#a72324" d="M 110.5,47.5 C 110.842,46.6618 111.508,46.3284 112.5,46.5C 116.182,46.3347 119.848,46.5014 123.5,47C 124.684,48.1455 124.684,49.3121 123.5,50.5C 122.29,50.9321 121.29,51.5987 120.5,52.5C 118.847,52.6596 117.514,53.3263 116.5,54.5C 115.833,54.1667 115.167,53.8333 114.5,53.5C 115.6,52.4415 116.934,51.6082 118.5,51C 115.929,49.5462 113.262,48.3795 110.5,47.5 Z"/></g>
<g><path style="opacity:1" fill="#6f6e6d" d="M 171.5,44.5 C 177.487,43.9773 179.487,46.4773 177.5,52C 170.254,53.274 168.254,50.774 171.5,44.5 Z"/></g>
<g><path style="opacity:1" fill="#e33735" d="M 110.5,47.5 C 113.262,48.3795 115.929,49.5462 118.5,51C 116.934,51.6082 115.6,52.4415 114.5,53.5C 108.828,53.7599 103.161,54.0932 97.5,54.5C 96.8333,54.5 96.1667,54.5 95.5,54.5C 92.5,53.8333 89.5,53.1667 86.5,52.5C 89.3821,50.8921 92.3821,49.5587 95.5,48.5C 100.537,48.5874 105.537,48.254 110.5,47.5 Z"/></g>
<g><path style="opacity:1" fill="#969595" d="M 159.5,-0.5 C 163.833,-0.5 168.167,-0.5 172.5,-0.5C 170.562,1.16276 168.228,1.82943 165.5,1.5C 163.974,5.04737 164.307,8.38071 166.5,11.5C 168.768,10.4557 171.101,10.289 173.5,11C 176.932,13.367 177.265,16.0337 174.5,19C 171.007,20.0037 167.841,19.5037 165,17.5C 163.862,21.121 163.028,24.7876 162.5,28.5C 166.295,27.9585 168.295,29.6252 168.5,33.5C 167.818,37.1379 167.318,40.8046 167,44.5C 165.978,45.354 165.145,46.354 164.5,47.5C 168.266,51.5549 172.266,55.3882 176.5,59C 178.167,58.6667 179.833,58.3333 181.5,58C 182.167,58.6667 182.833,59.3333 183.5,60C 181.081,62.5264 181.747,64.3597 185.5,65.5C 188.38,61.6308 192.046,60.6308 196.5,62.5C 197.288,61.2299 198.288,60.2299 199.5,59.5C 199.5,65.1667 199.5,70.8333 199.5,76.5C 195.404,75.8094 191.404,74.8094 187.5,73.5C 187.586,71.323 188.253,69.323 189.5,67.5C 188.3,66.7084 186.967,66.7084 185.5,67.5C 181.833,67.5 178.167,67.5 174.5,67.5C 174.5,67.1667 174.5,66.8333 174.5,66.5C 175.239,66.631 175.906,66.4643 176.5,66C 164.888,55.6036 157.888,42.7702 155.5,27.5C 155.334,22.8215 155.501,18.1548 156,13.5C 157.466,8.90376 158.632,4.2371 159.5,-0.5 Z"/></g>
<g><path style="opacity:1" fill="#815351" d="M 86.5,52.5 C 89.5,53.1667 92.5,53.8333 95.5,54.5C 92.1667,54.5 88.8333,54.5 85.5,54.5C 85.3284,53.5084 85.6618,52.8417 86.5,52.5 Z"/></g>
<g><path style="opacity:1" fill="#e6b733" d="M 120.5,52.5 C 120.781,57.9972 119.447,58.6638 116.5,54.5C 117.514,53.3263 118.847,52.6596 120.5,52.5 Z"/></g>
<g><path style="opacity:1" fill="#93286e" d="M 10.5,31.5 C 26.415,30.9385 30.915,37.9385 24,52.5C 19.9089,56.3049 15.0755,57.4716 9.5,56C 1.18711,47.379 1.52044,39.2124 10.5,31.5 Z"/></g>
<g><path style="opacity:1" fill="#a8275d" d="M 7.5,49.5 C 3.00321,36.837 7.66987,32.0036 21.5,35C 26.8802,44.3891 24.5469,50.8891 14.5,54.5C 10.7558,54.7499 8.42244,53.0833 7.5,49.5 Z"/></g>
<g><path style="opacity:1" fill="#c0234b" d="M 7.5,49.5 C 5.86664,38.6765 10.2,34.6765 20.5,37.5C 24.9395,47.7996 21.6062,52.633 10.5,52C 9.62656,50.955 8.62656,50.1217 7.5,49.5 Z"/></g>
<g><path style="opacity:1" fill="#d81e35" d="M 12.5,38.5 C 16.9031,38.0747 19.9031,39.9081 21.5,44C 21.3852,45.8951 20.7185,47.5618 19.5,49C 10.2628,50.5763 7.92942,47.0763 12.5,38.5 Z"/></g>
<g><path style="opacity:1" fill="#a22829" d="M 114.5,53.5 C 110.521,55.4492 106.187,56.4492 101.5,56.5C 100.292,55.7659 98.9587,55.4326 97.5,55.5C 97.5,55.1667 97.5,54.8333 97.5,54.5C 103.161,54.0932 108.828,53.7599 114.5,53.5 Z"/></g>
<g><path style="opacity:1" fill="#eaeaeb" d="M 97.5,55.5 C 98.9587,55.4326 100.292,55.7659 101.5,56.5C 104.139,58.4728 106.473,60.8061 108.5,63.5C 109.382,68.0965 110.049,72.7632 110.5,77.5C 108.873,80.7933 106.539,83.46 103.5,85.5C 102.833,85.5 102.167,85.5 101.5,85.5C 104.446,79.8332 105.613,73.8332 105,67.5C 100.274,64.9874 95.4407,62.9874 90.5,61.5C 92.8082,59.5293 95.1415,57.5293 97.5,55.5 Z"/></g>
<g><path style="opacity:1" fill="#5c55a3" d="M 73.5,36.5 C 73.5,37.1667 73.5,37.8333 73.5,38.5C 66.1898,43.4928 58.5231,47.9928 50.5,52C 49.3636,53.1451 48.3636,54.3117 47.5,55.5C 44.708,52.94 41.708,50.6067 38.5,48.5C 37.8333,48.8333 37.1667,49.1667 36.5,49.5C 38.2877,51.5765 39.9544,53.7432 41.5,56C 40.9056,56.4643 40.2389,56.631 39.5,56.5C 37.7472,54.7775 35.7472,53.2775 33.5,52C 31.6815,51.2172 30.3482,51.7172 29.5,53.5C 34.5214,54.9055 35.5214,57.5722 32.5,61.5C 31.8826,61.3893 31.3826,61.056 31,60.5C 20.8519,67.1554 10.3519,73.1554 -0.5,78.5C -0.5,68.8333 -0.5,59.1667 -0.5,49.5C 0.5,50.1667 1.5,50.8333 2.5,51.5C 5.24796,52.4747 7.24796,54.308 8.5,57C 17.9494,60.3129 25.2827,57.8129 30.5,49.5C 32.0076,47.0149 33.341,44.3483 34.5,41.5C 37.5802,40.2115 40.4136,38.5448 43,36.5C 53.1485,41.8103 63.3152,41.8103 73.5,36.5 Z"/></g>
<g><path style="opacity:1" fill="#e8e8e8" d="M 47.5,55.5 C 47.5,56.1667 47.8333,56.5 48.5,56.5C 48.6641,59.1873 48.4974,61.854 48,64.5C 47.6174,65.056 47.1174,65.3893 46.5,65.5C 44.3393,65.1742 42.5059,64.1742 41,62.5C 40.6913,60.6086 41.5247,59.2752 43.5,58.5C 42.2243,57.3554 40.891,57.3554 39.5,58.5C 38.537,58.0302 38.537,57.3635 39.5,56.5C 40.2389,56.631 40.9056,56.4643 41.5,56C 39.9544,53.7432 38.2877,51.5765 36.5,49.5C 37.1667,49.1667 37.8333,48.8333 38.5,48.5C 41.708,50.6067 44.708,52.94 47.5,55.5 Z"/></g>
<g><path style="opacity:1" fill="#34a2ca" d="M 76.5,60.5 C 75.2008,62.4123 74.2008,64.4123 73.5,66.5C 72.7399,64.0155 71.7399,64.0155 70.5,66.5C 68.1667,66.5 65.8333,66.5 63.5,66.5C 61.1371,57.6948 64.4704,54.1948 73.5,56C 74.7811,57.4087 75.7811,58.9087 76.5,60.5 Z"/></g>
<g><path style="opacity:1" fill="#adacae" d="M 39.5,56.5 C 38.537,57.3635 38.537,58.0302 39.5,58.5C 40.891,57.3554 42.2243,57.3554 43.5,58.5C 41.5247,59.2752 40.6913,60.6086 41,62.5C 42.5059,64.1742 44.3393,65.1742 46.5,65.5C 45.0813,66.4511 43.4147,66.7845 41.5,66.5C 38.292,65.3113 35.292,63.6447 32.5,61.5C 35.5214,57.5722 34.5214,54.9055 29.5,53.5C 30.3482,51.7172 31.6815,51.2172 33.5,52C 35.7472,53.2775 37.7472,54.7775 39.5,56.5 Z"/></g>
<g><path style="opacity:1" fill="#283268" d="M 144.5,58.5 C 150.094,58.8178 155.094,60.4845 159.5,63.5C 156.201,62.6239 152.868,62.4572 149.5,63C 146.098,67.4035 143.765,72.2368 142.5,77.5C 142.328,71.0591 142.994,64.7258 144.5,58.5 Z"/></g>
<g><path style="opacity:1" fill="#0e0d0c" d="M 90.5,61.5 C 95.4407,62.9874 100.274,64.9874 105,67.5C 105.613,73.8332 104.446,79.8332 101.5,85.5C 96.1563,85.666 90.8229,85.4994 85.5,85C 74.1784,81.818 71.3451,74.9847 77,64.5C 77.8333,63.6667 78.6667,62.8333 79.5,62C 83.1516,61.5014 86.8183,61.3347 90.5,61.5 Z"/></g>
<g><path style="opacity:1" fill="#e9e9eb" d="M 57.5,69.5 C 58.5,70.8333 59.5,72.1667 60.5,73.5C 57.9396,77.5698 54.7729,81.2365 51,84.5C 50.6174,83.944 50.1174,83.6107 49.5,83.5C 48.6236,79.4179 46.9569,75.7512 44.5,72.5C 44.5,72.1667 44.5,71.8333 44.5,71.5C 44.5858,70.5041 44.2524,69.6708 43.5,69C 46.9162,67.75 49.5828,65.5833 51.5,62.5C 53.552,64.878 55.552,67.2113 57.5,69.5 Z"/></g>
<g><path style="opacity:1" fill="#243a93" d="M 159.5,63.5 C 159.5,63.8333 159.5,64.1667 159.5,64.5C 158.746,69.4635 158.413,74.4635 158.5,79.5C 157.523,82.2869 157.19,85.2869 157.5,88.5C 152.384,88.431 147.384,89.0976 142.5,90.5C 142.5,86.1667 142.5,81.8333 142.5,77.5C 143.765,72.2368 146.098,67.4035 149.5,63C 152.868,62.4572 156.201,62.6239 159.5,63.5 Z"/></g>
<g><path style="opacity:1" fill="#78a0c4" d="M 155.5,27.5 C 157.888,42.7702 164.888,55.6036 176.5,66C 175.906,66.4643 175.239,66.631 174.5,66.5C 172.265,66.7947 170.265,66.4614 168.5,65.5C 169.675,65.719 170.675,65.3857 171.5,64.5C 170.07,62.614 168.403,60.9473 166.5,59.5C 162.805,52.7713 159.139,46.1046 155.5,39.5C 155.5,35.5 155.5,31.5 155.5,27.5 Z"/></g>
<g><path style="opacity:1" fill="#b29633" d="M 161.5,63.5 C 163.701,64.5664 166.035,65.233 168.5,65.5C 170.265,66.4614 172.265,66.7947 174.5,66.5C 174.5,66.8333 174.5,67.1667 174.5,67.5C 174.5,68.1667 174.5,68.8333 174.5,69.5C 170.357,69.0965 166.357,68.0965 162.5,66.5C 161.89,65.609 161.557,64.609 161.5,63.5 Z"/></g>
<g><path style="opacity:1" fill="#d7473c" d="M 63.5,66.5 C 65.8333,66.5 68.1667,66.5 70.5,66.5C 70.5,68.8333 70.5,71.1667 70.5,73.5C 69.1667,73.5 67.8333,73.5 66.5,73.5C 64.8212,73.2852 63.8212,73.9519 63.5,75.5C 63.1667,75.5 62.8333,75.5 62.5,75.5C 62.1667,74.5 61.5,73.8333 60.5,73.5C 59.5,72.1667 58.5,70.8333 57.5,69.5C 59.0326,67.7549 61.0326,66.7549 63.5,66.5 Z"/></g>
<g><path style="opacity:1" fill="#fdd41e" d="M 162.5,66.5 C 166.357,68.0965 170.357,69.0965 174.5,69.5C 173.732,77.1536 173.065,84.8202 172.5,92.5C 171.167,92.1667 169.833,91.8333 168.5,91.5C 167.486,90.3263 166.153,89.6596 164.5,89.5C 162.937,81.9605 162.27,74.2939 162.5,66.5 Z"/></g>
<g><path style="opacity:1" fill="#d71d27" d="M 187.5,73.5 C 185.719,76.1834 185.219,79.1834 186,82.5C 187.793,85.2953 189.96,87.7953 192.5,90C 187.57,93.9713 181.903,95.4713 175.5,94.5C 178.305,93.6805 181.305,93.1805 184.5,93C 185.728,92.221 186.728,91.221 187.5,90C 184.854,86.2102 183.187,82.0435 182.5,77.5C 181.167,77.5 179.833,77.5 178.5,77.5C 178.5,75.1667 178.5,72.8333 178.5,70.5C 181.481,70.8176 183.815,69.8176 185.5,67.5C 186.967,66.7084 188.3,66.7084 189.5,67.5C 188.253,69.323 187.586,71.323 187.5,73.5 Z"/></g>
<g><path style="opacity:1" fill="#878689" d="M 73.5,66.5 C 73.5,70.1667 73.5,73.8333 73.5,77.5C 72.596,76.791 72.2627,75.791 72.5,74.5C 70.2646,74.7947 68.2646,74.4614 66.5,73.5C 67.8333,73.5 69.1667,73.5 70.5,73.5C 70.5,71.1667 70.5,68.8333 70.5,66.5C 71.7399,64.0155 72.7399,64.0155 73.5,66.5 Z"/></g>
<g><path style="opacity:1" fill="#989796" d="M 97.5,67.5 C 98.7927,66.3552 99.9593,66.6885 101,68.5C 102.187,70.0444 102.52,71.7111 102,73.5C 100.723,71.2528 99.2225,69.2528 97.5,67.5 Z"/></g>
<g><path style="opacity:1" fill="#4a586b" d="M 113.5,68.5 C 112.046,71.3533 111.046,74.3533 110.5,77.5C 110.049,72.7632 109.382,68.0965 108.5,63.5C 110.117,64.5893 110.95,66.256 111,68.5C 112.292,66.7513 113.458,64.918 114.5,63C 115.167,62.3333 115.833,62.3333 116.5,63C 114.84,64.4877 113.84,66.321 113.5,68.5 Z"/></g>
<g><path style="opacity:1" fill="#4e6dab" d="M 66.5,73.5 C 68.2646,74.4614 70.2646,74.7947 72.5,74.5C 72.2627,75.791 72.596,76.791 73.5,77.5C 73.5,78.5 73.5,79.5 73.5,80.5C 72.1667,80.5 70.8333,80.5 69.5,80.5C 66.8908,79.5569 64.8908,77.8903 63.5,75.5C 63.8212,73.9519 64.8212,73.2852 66.5,73.5 Z"/></g>
<g><path style="opacity:1" fill="#f7f7f9" d="M 62.5,75.5 C 62.8333,75.5 63.1667,75.5 63.5,75.5C 64.8908,77.8903 66.8908,79.5569 69.5,80.5C 70.1105,85.6551 68.9438,90.3218 66,94.5C 63.1667,92.3333 60.3333,90.1667 57.5,88C 56.1772,87.1841 55.5106,86.0174 55.5,84.5C 56.6936,80.6367 59.027,77.6367 62.5,75.5 Z"/></g>
<g><path style="opacity:1" fill="#2f3674" d="M 60.5,73.5 C 61.5,73.8333 62.1667,74.5 62.5,75.5C 59.027,77.6367 56.6936,80.6367 55.5,84.5C 54.3263,85.5137 53.6596,86.847 53.5,88.5C 51.7935,87.1274 50.4602,85.4607 49.5,83.5C 50.1174,83.6107 50.6174,83.944 51,84.5C 54.7729,81.2365 57.9396,77.5698 60.5,73.5 Z"/></g>
<g><path style="opacity:1" fill="#402717" d="M 144.5,58.5 C 142.994,64.7258 142.328,71.0591 142.5,77.5C 142.5,81.8333 142.5,86.1667 142.5,90.5C 141.559,95.0704 141.226,99.737 141.5,104.5C 140.391,104.443 139.391,104.11 138.5,103.5C 138.167,103.5 137.833,103.5 137.5,103.5C 137.5,101.5 137.5,99.5 137.5,97.5C 138.051,94.1933 138.384,90.8599 138.5,87.5C 139.848,78.2815 141.348,68.9482 143,59.5C 143.383,58.944 143.883,58.6107 144.5,58.5 Z"/></g>
<g><path style="opacity:1" fill="#f2b43d" d="M 161.5,63.5 C 161.557,64.609 161.89,65.609 162.5,66.5C 162.27,74.2939 162.937,81.9605 164.5,89.5C 162.565,88.8505 160.565,88.5172 158.5,88.5C 158.5,85.5 158.5,82.5 158.5,79.5C 158.413,74.4635 158.746,69.4635 159.5,64.5C 160.167,64.1667 160.833,63.8333 161.5,63.5 Z"/></g>
<g><path style="opacity:1" fill="#329fd6" d="M 138.5,87.5 C 138.384,90.8599 138.051,94.1933 137.5,97.5C 136.883,97.6107 136.383,97.944 136,98.5C 131.397,95.4882 127.23,95.9882 123.5,100C 126.032,100.619 128.365,101.619 130.5,103C 126.179,103.499 121.846,103.666 117.5,103.5C 116.833,103.5 116.167,103.5 115.5,103.5C 112.979,101.299 110.479,98.9657 108,96.5C 107.664,92.9605 105.831,90.7939 102.5,90C 103.252,89.3292 103.586,88.4959 103.5,87.5C 103.5,86.8333 103.5,86.1667 103.5,85.5C 109.794,83.9035 116.127,82.4035 122.5,81C 127.823,80.5006 133.156,80.334 138.5,80.5C 138.5,82.8333 138.5,85.1667 138.5,87.5 Z"/></g>
<g><path style="opacity:1" fill="#bf262b" d="M 174.5,67.5 C 178.167,67.5 181.833,67.5 185.5,67.5C 183.815,69.8176 181.481,70.8176 178.5,70.5C 178.5,72.8333 178.5,75.1667 178.5,77.5C 179.833,77.5 181.167,77.5 182.5,77.5C 183.187,82.0435 184.854,86.2102 187.5,90C 186.728,91.221 185.728,92.221 184.5,93C 181.305,93.1805 178.305,93.6805 175.5,94.5C 173.973,94.573 172.973,93.9063 172.5,92.5C 173.065,84.8202 173.732,77.1536 174.5,69.5C 174.5,68.8333 174.5,68.1667 174.5,67.5 Z"/></g>
<g><path style="opacity:1" fill="#f1f1f4" d="M 72.5,85.5 C 80.9152,92.0277 90.2485,93.8611 100.5,91C 95.4671,90.829 90.4671,90.329 85.5,89.5C 88.7087,88.2126 91.8753,88.2126 95,89.5C 97.7383,88.5183 100.572,87.8516 103.5,87.5C 103.586,88.4959 103.252,89.3292 102.5,90C 105.831,90.7939 107.664,92.9605 108,96.5C 110.479,98.9657 112.979,101.299 115.5,103.5C 112.776,106.282 111.109,109.615 110.5,113.5C 108.412,113.865 106.079,113.865 103.5,113.5C 102.357,113.908 101.357,114.575 100.5,115.5C 99.0748,118.688 97.4081,121.688 95.5,124.5C 88.2602,126.202 81.2602,125.536 74.5,122.5C 74.127,113.204 71.7937,104.371 67.5,96C 68.728,92.0728 70.3946,88.5728 72.5,85.5 Z"/></g>
<g><path style="opacity:1" fill="#5865ae" d="M 32.5,61.5 C 35.292,63.6447 38.292,65.3113 41.5,66.5C 41.953,68.5652 42.953,70.2318 44.5,71.5C 44.5,71.8333 44.5,72.1667 44.5,72.5C 44.0291,73.9008 43.3624,75.2342 42.5,76.5C 36.5,79.8333 30.5,83.1667 24.5,86.5C 23.2888,87.2739 23.2888,88.1072 24.5,89C 23.2625,89.2321 22.2625,89.7321 21.5,90.5C 19.2542,92.6489 17.7542,95.3156 17,98.5C 16.1841,99.8228 15.0174,100.489 13.5,100.5C 9.0707,103.599 4.40403,106.266 -0.5,108.5C -0.5,98.5 -0.5,88.5 -0.5,78.5C 10.3519,73.1554 20.8519,67.1554 31,60.5C 31.3826,61.056 31.8826,61.3893 32.5,61.5 Z"/></g>
<g><path style="opacity:1" fill="#8b8b8b" d="M 101.5,85.5 C 102.167,85.5 102.833,85.5 103.5,85.5C 103.5,86.1667 103.5,86.8333 103.5,87.5C 100.572,87.8516 97.7383,88.5183 95,89.5C 91.8753,88.2126 88.7087,88.2126 85.5,89.5C 90.4671,90.329 95.4671,90.829 100.5,91C 90.2485,93.8611 80.9152,92.0277 72.5,85.5C 72.56,84.9569 72.8933,84.6236 73.5,84.5C 76.8298,87.3568 80.4964,88.6901 84.5,88.5C 81.984,87.2739 79.6507,85.7739 77.5,84C 80.4954,84.646 83.4954,85.646 86.5,87C 90.8333,87.6667 95.1667,87.6667 99.5,87C 100.416,86.7216 101.082,86.2216 101.5,85.5 Z"/></g>
<g><path style="opacity:1" fill="#2f8bbf" d="M 187.5,73.5 C 191.404,74.8094 195.404,75.8094 199.5,76.5C 199.5,82.1667 199.5,87.8333 199.5,93.5C 184.615,101.192 170.115,109.525 156,118.5C 155.617,117.944 155.117,117.611 154.5,117.5C 159.146,112.218 163.312,106.552 167,100.5C 168.149,97.6074 168.649,94.6074 168.5,91.5C 169.833,91.8333 171.167,92.1667 172.5,92.5C 172.973,93.9063 173.973,94.573 175.5,94.5C 181.903,95.4713 187.57,93.9713 192.5,90C 189.96,87.7953 187.793,85.2953 186,82.5C 185.219,79.1834 185.719,76.1834 187.5,73.5 Z"/></g>
<g><path style="opacity:1" fill="#5276b8" d="M 44.5,72.5 C 46.9569,75.7512 48.6236,79.4179 49.5,83.5C 50.4602,85.4607 51.7935,87.1274 53.5,88.5C 55.2624,89.2623 56.2624,90.5956 56.5,92.5C 37.3686,103.234 18.3686,114.234 -0.5,125.5C -0.5,119.833 -0.5,114.167 -0.5,108.5C 4.40403,106.266 9.0707,103.599 13.5,100.5C 12.5876,101.738 12.4209,103.072 13,104.5C 15.1773,106.527 17.6773,107.861 20.5,108.5C 25.0918,105.659 30.0918,103.492 35.5,102C 38.4578,99.8723 39.1244,97.2056 37.5,94C 32.6083,90.9412 27.2749,89.7745 21.5,90.5C 22.2625,89.7321 23.2625,89.2321 24.5,89C 23.2888,88.1072 23.2888,87.2739 24.5,86.5C 30.5,83.1667 36.5,79.8333 42.5,76.5C 43.3624,75.2342 44.0291,73.9008 44.5,72.5 Z"/></g>
<g><path style="opacity:1" fill="#2b7fb3" d="M 199.5,93.5 C 199.5,101.5 199.5,109.5 199.5,117.5C 195.883,118.642 192.55,120.308 189.5,122.5C 185.931,120.881 182.264,119.548 178.5,118.5C 175.603,118.681 172.77,118.348 170,117.5C 168.038,118.761 166.538,120.428 165.5,122.5C 165.815,120.774 165.981,119.107 166,117.5C 161.024,120.064 156.524,123.231 152.5,127C 148.791,127.688 145.457,129.188 142.5,131.5C 141.817,131.137 141.15,130.804 140.5,130.5C 145.141,126.195 149.807,121.861 154.5,117.5C 155.117,117.611 155.617,117.944 156,118.5C 170.115,109.525 184.615,101.192 199.5,93.5 Z"/></g>
<g><path style="opacity:1" fill="#4885c4" d="M 56.5,92.5 C 62.9855,97.4604 65.6522,104.127 64.5,112.5C 64.4975,115.355 64.1641,118.022 63.5,120.5C 63.6641,117.813 63.4974,115.146 63,112.5C 50.8537,118.825 39.687,126.492 29.5,135.5C 30.7893,130.565 28.7893,127.399 23.5,126C 19.8333,125.333 16.1667,125.333 12.5,126C 11.4752,128.071 10.6419,130.238 10,132.5C 8.10796,134.054 6.60796,135.888 5.5,138C 5.9783,139.303 6.64497,140.469 7.5,141.5C 4.83333,143.167 2.16667,144.833 -0.5,146.5C -0.5,139.5 -0.5,132.5 -0.5,125.5C 18.3686,114.234 37.3686,103.234 56.5,92.5 Z"/></g>
<g><path style="opacity:1" fill="#2a2b70" d="M 85.5,96.5 C 93.5376,97.2345 96.7042,101.568 95,109.5C 94,111.833 92.3333,113.5 90,114.5C 89.0477,111.356 89.8811,108.856 92.5,107C 91.5939,105.301 91.2606,103.467 91.5,101.5C 90.5,101.5 89.5,101.5 88.5,101.5C 88.5,102.5 88.5,103.5 88.5,104.5C 87.1667,104.5 85.8333,104.5 84.5,104.5C 84.4013,101.763 84.7347,99.0961 85.5,96.5 Z"/></g>
<g><path style="opacity:1" fill="#c7c5c6" d="M 85.5,54.5 C 88.8333,54.5 92.1667,54.5 95.5,54.5C 96.1667,54.5 96.8333,54.5 97.5,54.5C 97.5,54.8333 97.5,55.1667 97.5,55.5C 95.1415,57.5293 92.8082,59.5293 90.5,61.5C 86.8183,61.3347 83.1516,61.5014 79.5,62C 78.6667,62.8333 77.8333,63.6667 77,64.5C 71.3451,74.9847 74.1784,81.818 85.5,85C 90.8229,85.4994 96.1563,85.666 101.5,85.5C 101.082,86.2216 100.416,86.7216 99.5,87C 95.1667,87.6667 90.8333,87.6667 86.5,87C 83.4954,85.646 80.4954,84.646 77.5,84C 79.6507,85.7739 81.984,87.2739 84.5,88.5C 80.4964,88.6901 76.8298,87.3568 73.5,84.5C 72.8933,84.6236 72.56,84.9569 72.5,85.5C 70.3946,88.5728 68.728,92.0728 67.5,96C 71.7937,104.371 74.127,113.204 74.5,122.5C 71.8862,121.455 69.2196,120.955 66.5,121C 69.0993,122.795 71.7659,124.295 74.5,125.5C 71.9368,125.731 70.2702,127.065 69.5,129.5C 67.2986,128.434 64.9653,127.767 62.5,127.5C 62.5,125.833 62.5,124.167 62.5,122.5C 62.8333,121.833 63.1667,121.167 63.5,120.5C 64.1641,118.022 64.4975,115.355 64.5,112.5C 65.6522,104.127 62.9855,97.4604 56.5,92.5C 56.2624,90.5956 55.2624,89.2623 53.5,88.5C 53.6596,86.847 54.3263,85.5137 55.5,84.5C 55.5106,86.0174 56.1772,87.1841 57.5,88C 60.3333,90.1667 63.1667,92.3333 66,94.5C 68.9438,90.3218 70.1105,85.6551 69.5,80.5C 70.8333,80.5 72.1667,80.5 73.5,80.5C 73.5,79.5 73.5,78.5 73.5,77.5C 73.5,73.8333 73.5,70.1667 73.5,66.5C 74.2008,64.4123 75.2008,62.4123 76.5,60.5C 78.6298,58.8729 80.6298,57.0396 82.5,55C 83.448,54.5172 84.448,54.3505 85.5,54.5 Z"/></g>
<g><path style="opacity:1" fill="#7d828e" d="M 21.5,90.5 C 27.2749,89.7745 32.6083,90.9412 37.5,94C 39.1244,97.2056 38.4578,99.8723 35.5,102C 30.0918,103.492 25.0918,105.659 20.5,108.5C 17.6773,107.861 15.1773,106.527 13,104.5C 12.4209,103.072 12.5876,101.738 13.5,100.5C 15.0174,100.489 16.1841,99.8228 17,98.5C 17.7542,95.3156 19.2542,92.6489 21.5,90.5 Z"/></g>
<g><path style="opacity:1" fill="#354392" d="M 79.5,97.5 C 80.5,97.5 81.5,97.5 82.5,97.5C 82.1118,101.552 81.4451,105.552 80.5,109.5C 80.8333,109.833 81.1667,110.167 81.5,110.5C 82.9512,108.441 84.9512,107.441 87.5,107.5C 86.1407,116.194 82.6407,116.861 77,109.5C 75.888,105.019 76.7213,101.019 79.5,97.5 Z"/></g>
<g><path style="opacity:1" fill="#edeced" d="M 117.5,104.5 C 121.571,104.234 125.571,104.567 129.5,105.5C 129.782,109.037 129.782,112.704 129.5,116.5C 124.881,117.314 120.214,117.647 115.5,117.5C 113.554,116.965 112.554,115.632 112.5,113.5C 112.928,109.756 114.595,106.756 117.5,104.5 Z"/></g>
<g><path style="opacity:1" fill="#ededee" d="M 137.5,103.5 C 137.833,103.5 138.167,103.5 138.5,103.5C 138.698,106.906 137.698,109.906 135.5,112.5C 135.833,113.167 136.167,113.833 136.5,114.5C 134.955,115.452 133.288,115.785 131.5,115.5C 131.335,112.482 131.502,109.482 132,106.5C 133.488,104.84 135.321,103.84 137.5,103.5 Z"/></g>
<g><path style="opacity:1" fill="#b8b7b8" d="M 138.5,103.5 C 139.391,104.11 140.391,104.443 141.5,104.5C 141.953,105.458 142.619,106.292 143.5,107C 142.76,110.662 141.76,114.162 140.5,117.5C 138.883,116.962 137.216,116.629 135.5,116.5C 133.901,116.768 132.568,116.434 131.5,115.5C 133.288,115.785 134.955,115.452 136.5,114.5C 136.167,113.833 135.833,113.167 135.5,112.5C 137.698,109.906 138.698,106.906 138.5,103.5 Z"/></g>
<g><path style="opacity:1" fill="#2593c8" d="M 158.5,79.5 C 158.5,82.5 158.5,85.5 158.5,88.5C 160.565,88.5172 162.565,88.8505 164.5,89.5C 166.153,89.6596 167.486,90.3263 168.5,91.5C 168.649,94.6074 168.149,97.6074 167,100.5C 163.312,106.552 159.146,112.218 154.5,117.5C 149.807,121.861 145.141,126.195 140.5,130.5C 139.662,130.158 139.328,129.492 139.5,128.5C 139.724,124.821 140.058,121.154 140.5,117.5C 141.76,114.162 142.76,110.662 143.5,107C 142.619,106.292 141.953,105.458 141.5,104.5C 141.226,99.737 141.559,95.0704 142.5,90.5C 147.384,89.0976 152.384,88.431 157.5,88.5C 157.19,85.2869 157.523,82.2869 158.5,79.5 Z"/></g>
<g><path style="opacity:1" fill="#31387c" d="M 115.5,103.5 C 116.167,103.5 116.833,103.5 117.5,103.5C 117.5,103.833 117.5,104.167 117.5,104.5C 114.595,106.756 112.928,109.756 112.5,113.5C 111.833,113.5 111.167,113.5 110.5,113.5C 111.109,109.615 112.776,106.282 115.5,103.5 Z"/></g>
<g><path style="opacity:1" fill="#349ad3" d="M 63.5,120.5 C 63.1667,121.167 62.8333,121.833 62.5,122.5C 61.5386,124.265 61.2053,126.265 61.5,128.5C 61.2491,133.507 60.9157,138.507 60.5,143.5C 60.5,144.167 60.5,144.833 60.5,145.5C 60.6716,146.492 60.3382,147.158 59.5,147.5C 59.9682,140.123 59.9682,132.79 59.5,125.5C 52.0931,130.402 45.4264,136.235 39.5,143C 32.9593,145.853 26.7926,149.353 21,153.5C 22.0918,148.686 24.5918,144.519 28.5,141C 27.7248,139.77 26.7248,139.437 25.5,140C 19.5606,146.044 14.7272,152.877 11,160.5C 7.22319,162.638 3.38985,164.638 -0.5,166.5C -0.5,159.833 -0.5,153.167 -0.5,146.5C 2.16667,144.833 4.83333,143.167 7.5,141.5C 9.08161,142.876 10.9149,143.876 13,144.5C 18.0318,140.694 23.5318,137.694 29.5,135.5C 39.687,126.492 50.8537,118.825 63,112.5C 63.4974,115.146 63.6641,117.813 63.5,120.5 Z"/></g>
<g><path style="opacity:1" fill="#97c5e4" d="M 103.5,113.5 C 104.391,115.609 105.558,117.609 107,119.5C 107.497,122.146 107.664,124.813 107.5,127.5C 107.708,131.085 106.375,133.751 103.5,135.5C 103.072,131.756 101.405,128.756 98.5,126.5C 98.0269,125.094 97.0269,124.427 95.5,124.5C 97.4081,121.688 99.0748,118.688 100.5,115.5C 101.357,114.575 102.357,113.908 103.5,113.5 Z"/></g>
<g><path style="opacity:1" fill="#898b9b" d="M 178.5,118.5 C 180.509,121.507 182.509,124.507 184.5,127.5C 183.811,129.353 182.478,130.519 180.5,131C 176.5,131.333 172.5,131.667 168.5,132C 167.941,132.725 167.608,133.558 167.5,134.5C 168.977,136.639 169.977,138.972 170.5,141.5C 166.808,141.324 164.808,142.991 164.5,146.5C 162.5,144.833 160.5,143.167 158.5,141.5C 156.51,137.298 157.676,134.298 162,132.5C 163.782,129.368 164.948,126.035 165.5,122.5C 166.538,120.428 168.038,118.761 170,117.5C 172.77,118.348 175.603,118.681 178.5,118.5 Z"/></g>
<g><path style="opacity:1" fill="#282e6e" d="M 74.5,122.5 C 81.2602,125.536 88.2602,126.202 95.5,124.5C 97.0269,124.427 98.0269,125.094 98.5,126.5C 93.534,126.911 88.7007,127.911 84,129.5C 80.912,128.041 77.7453,126.708 74.5,125.5C 71.7659,124.295 69.0993,122.795 66.5,121C 69.2196,120.955 71.8862,121.455 74.5,122.5 Z"/></g>
<g><path style="opacity:1" fill="#66b3dd" d="M 103.5,113.5 C 106.079,113.865 108.412,113.865 110.5,113.5C 111.167,113.5 111.833,113.5 112.5,113.5C 112.554,115.632 113.554,116.965 115.5,117.5C 118.028,118.166 120.694,118.832 123.5,119.5C 121.5,121.833 119.5,124.167 117.5,126.5C 114.232,127.487 110.898,127.82 107.5,127.5C 107.664,124.813 107.497,122.146 107,119.5C 105.558,117.609 104.391,115.609 103.5,113.5 Z"/></g>
<g><path style="opacity:1" fill="#2892c6" d="M 137.5,97.5 C 137.5,99.5 137.5,101.5 137.5,103.5C 135.321,103.84 133.488,104.84 132,106.5C 131.502,109.482 131.335,112.482 131.5,115.5C 132.568,116.434 133.901,116.768 135.5,116.5C 135.052,123.208 134.386,129.874 133.5,136.5C 125.152,141.675 116.485,146.342 107.5,150.5C 106.366,147.63 105.7,144.63 105.5,141.5C 105.672,140.508 105.338,139.842 104.5,139.5C 104.167,138.167 103.833,136.833 103.5,135.5C 106.375,133.751 107.708,131.085 107.5,127.5C 110.898,127.82 114.232,127.487 117.5,126.5C 119.5,124.167 121.5,121.833 123.5,119.5C 120.694,118.832 118.028,118.166 115.5,117.5C 120.214,117.647 124.881,117.314 129.5,116.5C 129.782,112.704 129.782,109.037 129.5,105.5C 125.571,104.567 121.571,104.234 117.5,104.5C 117.5,104.167 117.5,103.833 117.5,103.5C 121.846,103.666 126.179,103.499 130.5,103C 128.365,101.619 126.032,100.619 123.5,100C 127.23,95.9882 131.397,95.4882 136,98.5C 136.383,97.944 136.883,97.6107 137.5,97.5 Z"/></g>
<g><path style="opacity:1" fill="#f4f3f5" d="M 74.5,125.5 C 77.7453,126.708 80.912,128.041 84,129.5C 88.7007,127.911 93.534,126.911 98.5,126.5C 98.4142,127.496 98.7476,128.329 99.5,129C 95.0685,129.144 91.0685,130.477 87.5,133C 90.7035,132.108 94.0368,131.275 97.5,130.5C 98.5,130.667 99.5,130.833 100.5,131C 101.399,132.652 102.399,134.152 103.5,135.5C 103.833,136.833 104.167,138.167 104.5,139.5C 99.0871,140.52 93.7538,141.853 88.5,143.5C 84.0003,136.55 80.3336,136.884 77.5,144.5C 76.1667,144.5 74.8333,144.5 73.5,144.5C 70.7131,143.523 67.7131,143.19 64.5,143.5C 65.3668,140.092 66.5335,136.758 68,133.5C 68.4169,132.244 69.2502,131.577 70.5,131.5C 72.4944,132.35 74.4944,132.85 76.5,133C 74.4234,131.295 72.09,130.128 69.5,129.5C 70.2702,127.065 71.9368,125.731 74.5,125.5 Z"/></g>
<g><path style="opacity:1" fill="#2c79ad" d="M 165.5,122.5 C 164.948,126.035 163.782,129.368 162,132.5C 157.676,134.298 156.51,137.298 158.5,141.5C 151.66,143.855 145.16,147.522 139,152.5C 138.501,146.843 138.334,141.176 138.5,135.5C 138.198,132.941 138.532,130.607 139.5,128.5C 139.328,129.492 139.662,130.158 140.5,130.5C 141.15,130.804 141.817,131.137 142.5,131.5C 145.457,129.188 148.791,127.688 152.5,127C 156.524,123.231 161.024,120.064 166,117.5C 165.981,119.107 165.815,120.774 165.5,122.5 Z"/></g>
<g><path style="opacity:1" fill="#686b6e" d="M 62.5,122.5 C 62.5,124.167 62.5,125.833 62.5,127.5C 64.9653,127.767 67.2986,128.434 69.5,129.5C 72.09,130.128 74.4234,131.295 76.5,133C 74.4944,132.85 72.4944,132.35 70.5,131.5C 67.7458,130.054 64.7458,129.054 61.5,128.5C 61.2053,126.265 61.5386,124.265 62.5,122.5 Z"/></g>
<g><path style="opacity:1" fill="#cac8ca" d="M 61.5,128.5 C 64.7458,129.054 67.7458,130.054 70.5,131.5C 69.2502,131.577 68.4169,132.244 68,133.5C 66.5335,136.758 65.3668,140.092 64.5,143.5C 67.7131,143.19 70.7131,143.523 73.5,144.5C 69.1186,144.628 64.7853,144.295 60.5,143.5C 60.9157,138.507 61.2491,133.507 61.5,128.5 Z"/></g>
<g><path style="opacity:1" fill="#787c7e" d="M 98.5,126.5 C 101.405,128.756 103.072,131.756 103.5,135.5C 102.399,134.152 101.399,132.652 100.5,131C 99.5,130.833 98.5,130.667 97.5,130.5C 94.0368,131.275 90.7035,132.108 87.5,133C 91.0685,130.477 95.0685,129.144 99.5,129C 98.7476,128.329 98.4142,127.496 98.5,126.5 Z"/></g>
<g><path style="opacity:1" fill="#777d86" d="M 178.5,118.5 C 182.264,119.548 185.931,120.881 189.5,122.5C 193.99,128.555 192.99,133.721 186.5,138C 183.27,139.308 179.936,140.308 176.5,141C 175.072,143.185 173.405,145.185 171.5,147C 168.961,147.796 166.628,147.629 164.5,146.5C 164.808,142.991 166.808,141.324 170.5,141.5C 169.977,138.972 168.977,136.639 167.5,134.5C 167.608,133.558 167.941,132.725 168.5,132C 172.5,131.667 176.5,131.333 180.5,131C 182.478,130.519 183.811,129.353 184.5,127.5C 182.509,124.507 180.509,121.507 178.5,118.5 Z"/></g>
<g><path style="opacity:1" fill="#26a8df" d="M 59.5,147.5 C 58.7347,150.096 58.4013,152.763 58.5,155.5C 53.0848,155.62 48.0848,154.287 43.5,151.5C 42.4809,154.676 40.4809,157.009 37.5,158.5C 31.6401,160.684 25.8068,163.684 20,167.5C 20.0496,169.752 21.2163,171.418 23.5,172.5C 23.0233,173.478 22.3567,174.311 21.5,175C 22.4158,175.278 23.0825,175.778 23.5,176.5C 21.847,176.66 20.5137,177.326 19.5,178.5C 17.4471,178.402 15.7804,179.069 14.5,180.5C 11.7594,180.707 9.42611,181.707 7.5,183.5C 4.62021,183.94 1.95354,184.94 -0.5,186.5C -0.5,179.833 -0.5,173.167 -0.5,166.5C 3.38985,164.638 7.22319,162.638 11,160.5C 14.7272,152.877 19.5606,146.044 25.5,140C 26.7248,139.437 27.7248,139.77 28.5,141C 24.5918,144.519 22.0918,148.686 21,153.5C 26.7926,149.353 32.9593,145.853 39.5,143C 45.4264,136.235 52.0931,130.402 59.5,125.5C 59.9682,132.79 59.9682,140.123 59.5,147.5 Z"/></g>
<g><path style="opacity:1" fill="#7d8390" d="M 29.5,135.5 C 23.5318,137.694 18.0318,140.694 13,144.5C 10.9149,143.876 9.08161,142.876 7.5,141.5C 6.64497,140.469 5.9783,139.303 5.5,138C 6.60796,135.888 8.10796,134.054 10,132.5C 10.6419,130.238 11.4752,128.071 12.5,126C 16.1667,125.333 19.8333,125.333 23.5,126C 28.7893,127.399 30.7893,130.565 29.5,135.5 Z"/></g>
<g><path style="opacity:1" fill="#f6f6f8" d="M 105.5,141.5 C 105.7,144.63 106.366,147.63 107.5,150.5C 107.795,155.564 108.462,160.564 109.5,165.5C 109.5,165.833 109.5,166.167 109.5,166.5C 109.209,167.649 108.376,168.316 107,168.5C 104.538,169.159 102.038,169.493 99.5,169.5C 98.8333,168.167 98.1667,166.833 97.5,165.5C 95.387,158.608 92.7203,151.941 89.5,145.5C 94.6641,143.542 99.9974,142.209 105.5,141.5 Z"/></g>
<g><path style="opacity:1" fill="#2a5c8f" d="M 199.5,134.5 C 199.5,139.833 199.5,145.167 199.5,150.5C 186.798,157.559 174.131,164.559 161.5,171.5C 160.167,171.5 158.833,171.5 157.5,171.5C 153.276,169.758 148.942,168.425 144.5,167.5C 144.07,166.579 142.736,166.079 140.5,166C 144.134,165.844 147.467,164.844 150.5,163C 166.77,153.194 183.103,143.694 199.5,134.5 Z"/></g>
<g><path style="opacity:1" fill="#3a4087" d="M 104.5,139.5 C 105.338,139.842 105.672,140.508 105.5,141.5C 99.9974,142.209 94.6641,143.542 89.5,145.5C 89.1667,145.5 88.8333,145.5 88.5,145.5C 88.5,144.833 88.5,144.167 88.5,143.5C 93.7538,141.853 99.0871,140.52 104.5,139.5 Z"/></g>
<g><path style="opacity:1" fill="#33387c" d="M 60.5,143.5 C 64.7853,144.295 69.1186,144.628 73.5,144.5C 74.8333,144.5 76.1667,144.5 77.5,144.5C 77.6716,145.492 77.3382,146.158 76.5,146.5C 76.1667,146.5 75.8333,146.5 75.5,146.5C 73.5,146.5 71.5,146.5 69.5,146.5C 66.7131,145.523 63.7131,145.19 60.5,145.5C 60.5,144.833 60.5,144.167 60.5,143.5 Z"/></g>
<g><path style="opacity:1" fill="#46a9d8" d="M 88.5,143.5 C 88.5,144.167 88.5,144.833 88.5,145.5C 89.5361,147.391 89.5361,149.224 88.5,151C 84.2515,152.305 80.0849,153.805 76,155.5C 76.1519,152.553 76.3185,149.553 76.5,146.5C 77.3382,146.158 77.6716,145.492 77.5,144.5C 80.3336,136.884 84.0003,136.55 88.5,143.5 Z"/></g>
<g><path style="opacity:1" fill="#faf9fb" d="M 69.5,146.5 C 71.5,146.5 73.5,146.5 75.5,146.5C 74.1671,153.165 72.8338,159.832 71.5,166.5C 70.3127,168.072 69.3127,169.739 68.5,171.5C 66.0971,171.552 63.7638,171.219 61.5,170.5C 60.1667,170.5 58.8333,170.5 57.5,170.5C 57.5,168.167 57.5,165.833 57.5,163.5C 58.1098,162.609 58.4431,161.609 58.5,160.5C 61.3324,156.342 62.999,151.676 63.5,146.5C 65.5,146.5 67.5,146.5 69.5,146.5 Z"/></g>
<g><path style="opacity:1" fill="#29679a" d="M 199.5,117.5 C 199.5,123.167 199.5,128.833 199.5,134.5C 183.103,143.694 166.77,153.194 150.5,163C 147.467,164.844 144.134,165.844 140.5,166C 142.736,166.079 144.07,166.579 144.5,167.5C 141.833,167.5 139.167,167.5 136.5,167.5C 136.5,164.5 136.5,161.5 136.5,158.5C 137.069,150.688 137.736,143.021 138.5,135.5C 138.334,141.176 138.501,146.843 139,152.5C 145.16,147.522 151.66,143.855 158.5,141.5C 160.5,143.167 162.5,144.833 164.5,146.5C 166.628,147.629 168.961,147.796 171.5,147C 173.405,145.185 175.072,143.185 176.5,141C 179.936,140.308 183.27,139.308 186.5,138C 192.99,133.721 193.99,128.555 189.5,122.5C 192.55,120.308 195.883,118.642 199.5,117.5 Z"/></g>
<g><path style="opacity:1" fill="#b8b9bd" d="M 60.5,145.5 C 63.7131,145.19 66.7131,145.523 69.5,146.5C 67.5,146.5 65.5,146.5 63.5,146.5C 62.999,151.676 61.3324,156.342 58.5,160.5C 58.5,158.833 58.5,157.167 58.5,155.5C 58.4013,152.763 58.7347,150.096 59.5,147.5C 60.3382,147.158 60.6716,146.492 60.5,145.5 Z"/></g>
<g><path style="opacity:1" fill="#284f83" d="M 199.5,150.5 C 199.5,161.833 199.5,173.167 199.5,184.5C 194.574,182.636 189.574,180.969 184.5,179.5C 180.044,176.459 175.044,174.792 169.5,174.5C 167.095,173.232 164.428,172.565 161.5,172.5C 161.5,172.167 161.5,171.833 161.5,171.5C 174.131,164.559 186.798,157.559 199.5,150.5 Z"/></g>
<g><path style="opacity:1" fill="#2a76aa" d="M 133.5,136.5 C 132.834,146.486 132.501,156.486 132.5,166.5C 124.842,166.014 117.175,165.68 109.5,165.5C 108.462,160.564 107.795,155.564 107.5,150.5C 116.485,146.342 125.152,141.675 133.5,136.5 Z"/></g>
<g><path style="opacity:1" fill="#229dd3" d="M 58.5,155.5 C 58.5,157.167 58.5,158.833 58.5,160.5C 58.4431,161.609 58.1098,162.609 57.5,163.5C 56.5489,164.919 56.2155,166.585 56.5,168.5C 49.4564,169.169 42.7898,170.836 36.5,173.5C 32.0223,173.882 27.6889,174.882 23.5,176.5C 23.0825,175.778 22.4158,175.278 21.5,175C 22.3567,174.311 23.0233,173.478 23.5,172.5C 21.2163,171.418 20.0496,169.752 20,167.5C 25.8068,163.684 31.6401,160.684 37.5,158.5C 40.4809,157.009 42.4809,154.676 43.5,151.5C 48.0848,154.287 53.0848,155.62 58.5,155.5 Z"/></g>
<g><path style="opacity:1" fill="#3084b6" d="M 88.5,145.5 C 88.8333,145.5 89.1667,145.5 89.5,145.5C 92.7203,151.941 95.387,158.608 97.5,165.5C 88.8,165.289 80.1333,165.623 71.5,166.5C 72.8338,159.832 74.1671,153.165 75.5,146.5C 75.8333,146.5 76.1667,146.5 76.5,146.5C 76.3185,149.553 76.1519,152.553 76,155.5C 80.0849,153.805 84.2515,152.305 88.5,151C 89.5361,149.224 89.5361,147.391 88.5,145.5 Z"/></g>
<g><path style="opacity:1" fill="#231813" d="M 97.5,165.5 C 90.5018,166.338 83.3351,167.005 76,167.5C 74.2933,167.492 72.7933,167.158 71.5,166.5C 80.1333,165.623 88.8,165.289 97.5,165.5 Z"/></g>
<g><path style="opacity:1" fill="#1c2a3a" d="M 136.5,158.5 C 136.5,161.5 136.5,164.5 136.5,167.5C 139.167,167.5 141.833,167.5 144.5,167.5C 148.942,168.425 153.276,169.758 157.5,171.5C 150.225,170.127 142.892,169.127 135.5,168.5C 135.187,164.958 135.521,161.625 136.5,158.5 Z"/></g>
<g><path style="opacity:1" fill="#754d2b" d="M 97.5,165.5 C 98.1667,166.833 98.8333,168.167 99.5,169.5C 99.5,170.167 99.5,170.833 99.5,171.5C 99.5,172.167 99.5,172.833 99.5,173.5C 99.5,173.833 99.5,174.167 99.5,174.5C 95.204,173.537 90.8706,173.371 86.5,174C 82.5375,175.211 81.8709,177.211 84.5,180C 90.3386,182.907 96.3386,183.24 102.5,181C 103.942,180.623 104.942,179.79 105.5,178.5C 107.588,179.939 109.921,180.606 112.5,180.5C 112.426,182.411 111.426,183.578 109.5,184C 103.135,184.753 96.8019,184.586 90.5,183.5C 89.8333,183.667 89.1667,183.833 88.5,184C 89.7375,184.232 90.7375,184.732 91.5,185.5C 90.9569,185.56 90.6236,185.893 90.5,186.5C 92.486,189.86 92.486,193.36 90.5,197C 94.6877,197.176 98.6877,197.676 102.5,198.5C 97.4889,198.666 92.4889,198.499 87.5,198C 88.3366,196.989 88.67,195.822 88.5,194.5C 85.9203,195.735 83.587,197.401 81.5,199.5C 80.8333,199.5 80.1667,199.5 79.5,199.5C 80.8098,197.852 82.1431,196.186 83.5,194.5C 79.5563,192.58 76.8896,193.58 75.5,197.5C 73.1667,197.5 70.8333,197.5 68.5,197.5C 68.6399,195.876 67.9733,194.71 66.5,194C 68.3427,193.841 69.0093,193.341 68.5,192.5C 70.6602,191.266 72.8269,189.933 75,188.5C 75.9774,185.741 75.144,183.741 72.5,182.5C 71.463,185.537 69.463,187.537 66.5,188.5C 66.1583,187.662 65.4916,187.328 64.5,187.5C 66.3186,186.416 67.9853,185.082 69.5,183.5C 65.8927,182.511 62.226,182.177 58.5,182.5C 61.6527,181.005 64.8194,179.338 68,177.5C 68.4955,175.527 68.6621,173.527 68.5,171.5C 69.3127,169.739 70.3127,168.072 71.5,166.5C 72.7933,167.158 74.2933,167.492 76,167.5C 83.3351,167.005 90.5018,166.338 97.5,165.5 Z"/></g>
<g><path style="opacity:1" fill="#1b2c38" d="M 57.5,163.5 C 57.5,165.833 57.5,168.167 57.5,170.5C 50.405,170.852 43.405,171.852 36.5,173.5C 42.7898,170.836 49.4564,169.169 56.5,168.5C 56.2155,166.585 56.5489,164.919 57.5,163.5 Z"/></g>
<g><path style="opacity:1" fill="#2c241f" d="M 109.5,166.5 C 109.5,166.167 109.5,165.833 109.5,165.5C 117.175,165.68 124.842,166.014 132.5,166.5C 120.754,167.472 120.754,168.472 132.5,169.5C 132.768,171.099 132.434,172.432 131.5,173.5C 125.761,172.031 120.095,170.364 114.5,168.5C 116.423,167.692 118.423,167.192 120.5,167C 117.183,166.502 113.85,166.335 110.5,166.5C 110.167,166.5 109.833,166.5 109.5,166.5 Z"/></g>
<g><path style="opacity:1" fill="#523318" d="M 135.5,116.5 C 137.216,116.629 138.883,116.962 140.5,117.5C 140.058,121.154 139.724,124.821 139.5,128.5C 138.532,130.607 138.198,132.941 138.5,135.5C 137.736,143.021 137.069,150.688 136.5,158.5C 135.521,161.625 135.187,164.958 135.5,168.5C 142.892,169.127 150.225,170.127 157.5,171.5C 158.833,171.5 160.167,171.5 161.5,171.5C 161.5,171.833 161.5,172.167 161.5,172.5C 161.918,173.222 162.584,173.722 163.5,174C 162.5,174.167 161.5,174.333 160.5,174.5C 152.32,172.192 143.987,170.859 135.5,170.5C 135.141,172.766 135.808,174.599 137.5,176C 134.715,176.726 134.048,178.226 135.5,180.5C 136.63,185.324 134.963,188.158 130.5,189C 131.471,183.928 131.805,178.762 131.5,173.5C 132.434,172.432 132.768,171.099 132.5,169.5C 120.754,168.472 120.754,167.472 132.5,166.5C 132.501,156.486 132.834,146.486 133.5,136.5C 134.386,129.874 135.052,123.208 135.5,116.5 Z"/></g>
<g><path style="opacity:1" fill="#6a4423" d="M 110.5,166.5 C 113.85,166.335 117.183,166.502 120.5,167C 118.423,167.192 116.423,167.692 114.5,168.5C 120.095,170.364 125.761,172.031 131.5,173.5C 131.805,178.762 131.471,183.928 130.5,189C 134.963,188.158 136.63,185.324 135.5,180.5C 142.691,185.393 150.691,187.56 159.5,187C 164.42,189.916 168.753,193.582 172.5,198C 163.506,198.5 154.506,198.666 145.5,198.5C 133.001,192.584 120.001,191.084 106.5,194C 115.149,193.626 123.149,195.459 130.5,199.5C 123.5,199.5 116.5,199.5 109.5,199.5C 109.209,198.351 108.376,197.684 107,197.5C 105.467,197.773 103.967,198.106 102.5,198.5C 98.6877,197.676 94.6877,197.176 90.5,197C 92.486,193.36 92.486,189.86 90.5,186.5C 90.6236,185.893 90.9569,185.56 91.5,185.5C 100.54,186.966 109.54,186.799 118.5,185C 123.433,182.999 123.766,180.499 119.5,177.5C 119.672,176.508 119.338,175.842 118.5,175.5C 117.833,175.167 117.167,174.833 116.5,174.5C 114.825,172.998 112.992,171.665 111,170.5C 110.51,169.207 110.343,167.873 110.5,166.5 Z"/></g>
<g><path style="opacity:1" fill="#795436" d="M 57.5,170.5 C 55.2597,172.966 52.593,174.966 49.5,176.5C 47.439,177.751 47.1057,179.418 48.5,181.5C 51.7577,182.417 55.091,182.751 58.5,182.5C 55.2265,183.88 51.8932,185.38 48.5,187C 47.6433,187.689 46.9767,188.522 46.5,189.5C 49.4459,190.655 52.4459,190.821 55.5,190C 58.4177,188.85 61.4177,188.017 64.5,187.5C 65.4916,187.328 66.1583,187.662 66.5,188.5C 63.57,189.623 60.57,190.623 57.5,191.5C 61.1073,192.489 64.774,192.823 68.5,192.5C 69.0093,193.341 68.3427,193.841 66.5,194C 67.9733,194.71 68.6399,195.876 68.5,197.5C 70.8333,197.5 73.1667,197.5 75.5,197.5C 75.8333,198.167 76.1667,198.833 76.5,199.5C 50.8333,199.5 25.1667,199.5 -0.5,199.5C -0.5,199.167 -0.5,198.833 -0.5,198.5C 12.5043,198.667 25.5043,198.5 38.5,198C 39.1667,197.667 39.8333,197.333 40.5,197C 38.8934,195.951 38.2267,194.451 38.5,192.5C 42.3107,192.404 42.3107,191.738 38.5,190.5C 42.3107,189.262 42.3107,188.596 38.5,188.5C 38.5,184.5 38.5,180.5 38.5,176.5C 34.551,176.307 34.551,175.807 38.5,175C 37.9056,174.536 37.2389,174.369 36.5,174.5C 36.5,174.167 36.5,173.833 36.5,173.5C 43.405,171.852 50.405,170.852 57.5,170.5 Z"/></g>
<g><path style="opacity:1" fill="#7e7f80" d="M 109.5,166.5 C 109.833,166.5 110.167,166.5 110.5,166.5C 110.343,167.873 110.51,169.207 111,170.5C 112.992,171.665 114.825,172.998 116.5,174.5C 113.36,175.641 110.027,175.808 106.5,175C 104.114,173.807 101.78,172.64 99.5,171.5C 99.5,170.833 99.5,170.167 99.5,169.5C 102.038,169.493 104.538,169.159 107,168.5C 108.376,168.316 109.209,167.649 109.5,166.5 Z"/></g>
<g><path style="opacity:1" fill="#201b1c" d="M 36.5,173.5 C 36.5,173.833 36.5,174.167 36.5,174.5C 30.9527,176.236 25.286,177.569 19.5,178.5C 20.5137,177.326 21.847,176.66 23.5,176.5C 27.6889,174.882 32.0223,173.882 36.5,173.5 Z"/></g>
<g><path style="opacity:1" fill="#080503" d="M 99.5,174.5 C 101.118,176.316 103.118,177.649 105.5,178.5C 104.942,179.79 103.942,180.623 102.5,181C 96.3386,183.24 90.3386,182.907 84.5,180C 81.8709,177.211 82.5375,175.211 86.5,174C 90.8706,173.371 95.204,173.537 99.5,174.5 Z"/></g>
<g><path style="opacity:1" fill="#835836" d="M 36.5,174.5 C 37.2389,174.369 37.9056,174.536 38.5,175C 34.551,175.807 34.551,176.307 38.5,176.5C 38.5,180.5 38.5,184.5 38.5,188.5C 42.3107,188.596 42.3107,189.262 38.5,190.5C 42.3107,191.738 42.3107,192.404 38.5,192.5C 38.2267,194.451 38.8934,195.951 40.5,197C 39.8333,197.333 39.1667,197.667 38.5,198C 25.5043,198.5 12.5043,198.667 -0.5,198.5C -0.5,194.833 -0.5,191.167 -0.5,187.5C 2.48479,186.674 5.15146,185.341 7.5,183.5C 10.2406,183.293 12.5739,182.293 14.5,180.5C 15.7804,179.069 17.4471,178.402 19.5,178.5C 25.286,177.569 30.9527,176.236 36.5,174.5 Z"/></g>
<g><path style="opacity:1" fill="#79797b" d="M 57.5,170.5 C 58.8333,170.5 60.1667,170.5 61.5,170.5C 61.0825,171.222 60.4158,171.722 59.5,172C 62.492,173.107 63.1587,174.774 61.5,177C 57.3923,179.009 53.3923,178.843 49.5,176.5C 52.593,174.966 55.2597,172.966 57.5,170.5 Z"/></g>
<g><path style="opacity:1" fill="#edeeee" d="M 99.5,171.5 C 101.78,172.64 104.114,173.807 106.5,175C 110.027,175.808 113.36,175.641 116.5,174.5C 117.167,174.833 117.833,175.167 118.5,175.5C 118.389,176.117 118.056,176.617 117.5,177C 114.167,177.667 110.833,177.667 107.5,177C 104.929,175.546 102.262,174.38 99.5,173.5C 99.5,172.833 99.5,172.167 99.5,171.5 Z"/></g>
<g><path style="opacity:1" fill="#22201f" d="M 161.5,172.5 C 164.428,172.565 167.095,173.232 169.5,174.5C 167.801,174.34 166.134,174.506 164.5,175C 176.41,178.959 188.077,183.459 199.5,188.5C 199.5,192.167 199.5,195.833 199.5,199.5C 191.833,199.5 184.167,199.5 176.5,199.5C 177.312,198.007 178.645,197.34 180.5,197.5C 183.812,198.379 187.145,198.546 190.5,198C 185.924,196.524 181.257,196.19 176.5,197C 175.244,197.417 174.577,198.25 174.5,199.5C 164.833,199.5 155.167,199.5 145.5,199.5C 145.5,199.167 145.5,198.833 145.5,198.5C 154.506,198.666 163.506,198.5 172.5,198C 168.753,193.582 164.42,189.916 159.5,187C 150.691,187.56 142.691,185.393 135.5,180.5C 134.048,178.226 134.715,176.726 137.5,176C 135.808,174.599 135.141,172.766 135.5,170.5C 143.987,170.859 152.32,172.192 160.5,174.5C 161.5,174.333 162.5,174.167 163.5,174C 162.584,173.722 161.918,173.222 161.5,172.5 Z"/></g>
<g><path style="opacity:1" fill="#161215" d="M 169.5,174.5 C 175.044,174.792 180.044,176.459 184.5,179.5C 179.216,178.405 174.216,176.739 169.5,174.5 Z"/></g>
<g><path style="opacity:1" fill="#b9bbcc" d="M 99.5,173.5 C 102.262,174.38 104.929,175.546 107.5,177C 110.833,177.667 114.167,177.667 117.5,177C 118.056,176.617 118.389,176.117 118.5,175.5C 119.338,175.842 119.672,176.508 119.5,177.5C 117.824,179.834 115.491,180.834 112.5,180.5C 109.921,180.606 107.588,179.939 105.5,178.5C 103.118,177.649 101.118,176.316 99.5,174.5C 99.5,174.167 99.5,173.833 99.5,173.5 Z"/></g>
<g><path style="opacity:1" fill="#090604" d="M 119.5,177.5 C 123.766,180.499 123.433,182.999 118.5,185C 109.54,186.799 100.54,186.966 91.5,185.5C 90.7375,184.732 89.7375,184.232 88.5,184C 89.1667,183.833 89.8333,183.667 90.5,183.5C 96.8019,184.586 103.135,184.753 109.5,184C 111.426,183.578 112.426,182.411 112.5,180.5C 115.491,180.834 117.824,179.834 119.5,177.5 Z"/></g>
<g><path style="opacity:1" fill="#533418" d="M 169.5,174.5 C 174.216,176.739 179.216,178.405 184.5,179.5C 189.574,180.969 194.574,182.636 199.5,184.5C 199.5,185.833 199.5,187.167 199.5,188.5C 188.077,183.459 176.41,178.959 164.5,175C 166.134,174.506 167.801,174.34 169.5,174.5 Z"/></g>
<g><path style="opacity:1" fill="#c4c5d1" d="M 61.5,170.5 C 63.7638,171.219 66.0971,171.552 68.5,171.5C 68.6621,173.527 68.4955,175.527 68,177.5C 64.8194,179.338 61.6527,181.005 58.5,182.5C 55.091,182.751 51.7577,182.417 48.5,181.5C 47.1057,179.418 47.439,177.751 49.5,176.5C 53.3923,178.843 57.3923,179.009 61.5,177C 63.1587,174.774 62.492,173.107 59.5,172C 60.4158,171.722 61.0825,171.222 61.5,170.5 Z"/></g>
<g><path style="opacity:1" fill="#151214" d="M 14.5,180.5 C 12.5739,182.293 10.2406,183.293 7.5,183.5C 9.42611,181.707 11.7594,180.707 14.5,180.5 Z"/></g>
<g><path style="opacity:1" fill="#0f0905" d="M 58.5,182.5 C 62.226,182.177 65.8927,182.511 69.5,183.5C 67.9853,185.082 66.3186,186.416 64.5,187.5C 61.4177,188.017 58.4177,188.85 55.5,190C 52.4459,190.821 49.4459,190.655 46.5,189.5C 46.9767,188.522 47.6433,187.689 48.5,187C 51.8932,185.38 55.2265,183.88 58.5,182.5 Z"/></g>
<g><path style="opacity:1" fill="#130c06" d="M 68.5,192.5 C 64.774,192.823 61.1073,192.489 57.5,191.5C 60.57,190.623 63.57,189.623 66.5,188.5C 69.463,187.537 71.463,185.537 72.5,182.5C 75.144,183.741 75.9774,185.741 75,188.5C 72.8269,189.933 70.6602,191.266 68.5,192.5 Z"/></g>
<g><path style="opacity:1" fill="#10161b" d="M 7.5,183.5 C 5.15146,185.341 2.48479,186.674 -0.5,187.5C -0.5,187.167 -0.5,186.833 -0.5,186.5C 1.95354,184.94 4.62021,183.94 7.5,183.5 Z"/></g>
<g><path style="opacity:1" fill="#130c07" d="M 19.5,182.5 C 23.1616,181.637 25.3282,182.97 26,186.5C 27.0113,185.663 28.1779,185.33 29.5,185.5C 29.2079,189.004 27.2079,190.671 23.5,190.5C 20.3851,189.487 17.3851,188.32 14.5,187C 16.0632,185.264 17.7299,183.764 19.5,182.5 Z"/></g>
<g><path style="opacity:1" fill="#0e0703" d="M 152.5,189.5 C 155.686,189.895 158.686,190.895 161.5,192.5C 163.124,193.869 163.624,195.536 163,197.5C 161.959,195.415 160.459,193.748 158.5,192.5C 158.167,192.667 157.833,192.833 157.5,193C 159.394,194.101 160.061,195.434 159.5,197C 154.989,198.374 151.656,197.04 149.5,193C 150.544,191.826 151.544,190.659 152.5,189.5 Z"/></g>
<g><path style="opacity:1" fill="#0c0909" d="M 145.5,198.5 C 145.5,198.833 145.5,199.167 145.5,199.5C 140.5,199.5 135.5,199.5 130.5,199.5C 123.149,195.459 115.149,193.626 106.5,194C 120.001,191.084 133.001,192.584 145.5,198.5 Z"/></g>
<g><path style="opacity:1" fill="#0d0a08" d="M 79.5,199.5 C 78.5,199.5 77.5,199.5 76.5,199.5C 76.1667,198.833 75.8333,198.167 75.5,197.5C 76.8896,193.58 79.5563,192.58 83.5,194.5C 82.1431,196.186 80.8098,197.852 79.5,199.5 Z"/></g>
<g><path style="opacity:1" fill="#613b18" d="M 176.5,199.5 C 175.833,199.5 175.167,199.5 174.5,199.5C 174.577,198.25 175.244,197.417 176.5,197C 181.257,196.19 185.924,196.524 190.5,198C 187.145,198.546 183.812,198.379 180.5,197.5C 178.645,197.34 177.312,198.007 176.5,199.5 Z"/></g>
<g><path style="opacity:1" fill="#332f2e" d="M 102.5,198.5 C 103.967,198.106 105.467,197.773 107,197.5C 108.376,197.684 109.209,198.351 109.5,199.5C 100.167,199.5 90.8333,199.5 81.5,199.5C 83.587,197.401 85.9203,195.735 88.5,194.5C 88.67,195.822 88.3366,196.989 87.5,198C 92.4889,198.499 97.4889,198.666 102.5,198.5 Z"/></g>
</svg>
