<svg width="200" height="200" viewBox="0 0 200 200" fill="none" xmlns="http://www.w3.org/2000/svg">
<circle cx="100" cy="100" r="100" fill="#4C67EF"/>
<path d="M154.295 50.1894L154.291 28.5156L139.644 44.5229C139.471 44.7121 132.552 52.2702 123.746 61.9006C123.19 59.4373 122.389 57.0076 121.344 54.6452C117.109 45.061 109.385 37.6963 99.5969 33.9088C89.8084 30.1214 79.1266 30.361 69.5193 34.5898C59.912 38.8145 52.5295 46.5197 48.7329 56.2846C46.4744 62.0898 46.1499 67.7352 46.1331 72.4937C46.0825 85.218 46.0952 149.167 46.0952 149.811L46.0994 171.484L60.7463 155.477C60.9191 155.288 67.838 147.73 76.6447 138.099C77.2009 140.563 78.0015 142.992 79.0465 145.355C83.2813 154.939 91.0093 162.304 100.798 166.091C105.412 167.878 110.22 168.769 115.028 168.765C120.417 168.765 125.798 167.642 130.875 165.41C140.483 161.186 147.865 153.48 151.662 143.715C153.92 137.91 154.241 132.261 154.262 127.502C154.308 114.782 154.295 50.8326 154.295 50.1894ZM62.988 72.5568C63.0006 69.1771 63.186 65.604 64.4459 62.363C66.616 56.7849 70.8297 52.3837 76.316 49.9708C79.2193 48.6929 82.2911 48.054 85.3671 48.054C88.1102 48.054 90.8576 48.5626 93.4954 49.5841C99.087 51.7489 103.499 55.9525 105.917 61.4298C108.336 66.9029 108.475 72.9897 106.305 78.5679C105.033 81.8383 102.656 84.701 100.499 87.0676C95.3621 92.7047 76.5183 113.298 62.9459 128.137C62.9501 108.157 62.9585 80.4511 62.988 72.5568ZM137.402 127.443C137.39 130.823 137.204 134.396 135.944 137.637C133.774 143.215 129.561 147.616 124.074 150.029C118.588 152.442 112.487 152.581 106.895 150.416C101.303 148.251 96.8917 144.047 94.473 138.57C92.0543 133.097 91.9152 127.01 94.0853 121.432C95.3579 118.162 97.7344 115.299 99.8918 112.932C105.028 107.295 123.872 86.7019 137.445 71.8632C137.44 91.8429 137.436 119.549 137.402 127.443Z" fill="white"/>
</svg>
