<?xml version="1.0" encoding="UTF-8"?>
<svg xmlns="http://www.w3.org/2000/svg" xmlns:xlink="http://www.w3.org/1999/xlink" width="200px" height="200px" viewBox="0 0 200 200" version="1.1">
<g id="surface1">
<path style=" stroke:none;fill-rule:nonzero;fill:rgb(0%,0%,0%);fill-opacity:1;" d="M 25 104 L 25 122 L 85 122 L 85 86 L 25 86 Z M 60 89.601562 C 60 90.398438 60.398438 91 60.898438 91 C 61.5 91 61.699219 90.101562 61.5 89 C 61.300781 87.898438 61.5 87 61.898438 87 C 63.199219 87 64 90.898438 62.898438 91.601562 C 61.199219 92.601562 58 90.898438 58 88.898438 C 58 87.800781 58.5 87.199219 59 87.5 C 59.601562 87.800781 60 88.800781 60 89.601562 Z M 55.800781 90.199219 C 57.101562 91.5 57.601562 116.398438 56.398438 119.398438 C 55.601562 121.5 52.398438 121.5 51.601562 119.398438 C 51.300781 118.5 51 111.898438 51 104.601562 C 51 92.300781 51.601562 89 54 89 C 54.300781 89 55.101562 89.5 55.800781 90.199219 Z M 43 101 C 44.5 102.5 45 104.300781 45 108.5 C 45 111.898438 45.601562 115 46.601562 116.5 C 48.101562 118.800781 48.101562 119 46.5 119.601562 C 45.5 120 43.898438 119.800781 42.898438 119.199219 C 41.601562 118.300781 40.398438 118.398438 38.101562 119.601562 C 34.300781 121.5 29.601562 120.699219 27.5 117.699219 C 24 112.699219 27.101562 108.601562 34.898438 107.5 C 39 107 40 106.398438 39.800781 105.101562 C 39.398438 102.898438 33.199219 102.300781 32.398438 104.398438 C 31.601562 106.5 27 106.5 27 104.5 C 27 101.300781 30.800781 99 36 99 C 39.699219 99 41.5 99.5 43 101 Z M 67.5 101.199219 C 67.800781 102.5 68.101562 106.199219 68.199219 109.5 C 68.5 115.101562 68.699219 115.5 71.101562 115.800781 C 74.800781 116.199219 75.898438 114.300781 76.199219 106.5 C 76.5 100.300781 76.699219 99.5 78.5 99.5 C 80.300781 99.5 80.5 100.300781 80.800781 106.898438 C 81 111.398438 81.699219 115.101562 82.699219 116.601562 C 84.101562 118.800781 84.101562 119 82.5 119.601562 C 81.5 120 79.898438 119.800781 78.800781 119.101562 C 77.300781 118.199219 76.5 118.199219 74.699219 119.5 C 71.601562 121.601562 68.5 121.398438 65.300781 118.601562 C 62.898438 116.5 62.5 115.398438 62.199219 109.101562 C 62 105.199219 62 101.300781 62.398438 100.5 C 63.300781 98.101562 66.898438 98.699219 67.5 101.199219 Z M 67.5 101.199219 "/>
<path style=" stroke:none;fill-rule:nonzero;fill:rgb(0%,0%,0%);fill-opacity:1;" d="M 35.5 111.398438 C 30.601562 112.800781 30.101562 115.398438 34.601562 115.800781 C 37.898438 116.101562 40.398438 114.101562 39.800781 111.699219 C 39.601562 110.5 38.800781 110.5 35.5 111.398438 Z M 35.5 111.398438 "/>
<path style=" stroke:none;fill-rule:nonzero;fill:rgb(0%,0%,0%);fill-opacity:1;" d="M 153.699219 90.601562 C 153.300781 91 153 93.5 153 96.101562 L 153 100.800781 L 150.199219 99.800781 C 142.300781 96.800781 135.601562 104.300781 138.101562 113.398438 C 139.800781 119.601562 146.699219 122 151.898438 118.398438 C 154.101562 116.800781 154.300781 116.800781 155.199219 118.398438 C 156.199219 120.199219 158.601562 120.5 159.5 119 C 159.898438 118.398438 159.699219 117.300781 159.101562 116.601562 C 158.5 115.898438 157.898438 109.800781 157.800781 102.898438 C 157.5 92.699219 157.199219 90.5 156 90.199219 C 155.101562 90.101562 154.101562 90.199219 153.699219 90.601562 Z M 151.398438 104.601562 C 153.199219 106.398438 153.5 111.199219 152 114.101562 C 151.300781 115.398438 149.898438 116 147.5 116 C 143.601562 116 142 114 142 109.101562 C 142 105.5 144.300781 103 147.5 103 C 148.800781 103 150.601562 103.699219 151.398438 104.601562 Z M 151.398438 104.601562 "/>
<path style=" stroke:none;fill-rule:nonzero;fill:rgb(0%,0%,0%);fill-opacity:1;" d="M 164.398438 92.5 C 164 93.398438 164.199219 94.601562 164.800781 95.199219 C 166.398438 96.800781 169.5 95.699219 169.5 93.5 C 169.5 90.898438 165.300781 90.101562 164.398438 92.5 Z M 164.398438 92.5 "/>
<path style=" stroke:none;fill-rule:nonzero;fill:rgb(0%,0%,0%);fill-opacity:1;" d="M 94.699219 100.699219 C 93.398438 102 92.800781 102.101562 91.800781 101.199219 C 91.101562 100.5 89.601562 100 88.300781 100 C 86 100 86 100.101562 87.5 103 C 88.601562 105.101562 89 109.101562 89 117.5 C 89 128.300781 89.101562 129 91 129 C 92.800781 129 93 128.300781 93 123.5 C 93 118.300781 93.101562 118 94.898438 119 C 105.199219 124.398438 114 109.898438 105.5 101.398438 C 102.601562 98.5 97.300781 98.199219 94.699219 100.699219 Z M 103.101562 104.601562 C 103.800781 105.5 104.398438 107.699219 104.398438 109.5 C 104.398438 113.601562 102.5 116 99.199219 116 C 93.800781 116 91.199219 110 94.601562 105.199219 C 96.398438 102.601562 101.101562 102.199219 103.101562 104.601562 Z M 103.101562 104.601562 "/>
<path style=" stroke:none;fill-rule:nonzero;fill:rgb(0%,0%,0%);fill-opacity:1;" d="M 117.800781 100.5 C 112.300781 103.601562 111.898438 114.699219 117.300781 118.5 C 120.800781 120.898438 127.601562 120.5 130.5 117.5 C 131.898438 116.199219 133 114.601562 133 114 C 133 112.300781 129.398438 112.898438 127.5 115 C 126.5 116.101562 125 117 124.101562 117 C 121.5 117 118 114.101562 118 112 C 118 110.300781 118.898438 110.101562 125.300781 109.800781 C 131.898438 109.5 132.5 109.300781 132.800781 107.199219 C 133 105.800781 132.101562 103.898438 130.101562 102 C 126.800781 98.601562 122.300781 98.101562 117.800781 100.5 Z M 126.101562 103 C 129.898438 105.101562 128.398438 107 123 107 C 117.601562 107 116.800781 106 120.199219 103.601562 C 122.800781 101.699219 123.5 101.699219 126.101562 103 Z M 126.101562 103 "/>
<path style=" stroke:none;fill-rule:nonzero;fill:rgb(0%,0%,0%);fill-opacity:1;" d="M 178 100.800781 C 176.800781 101.800781 175.898438 103.398438 176.101562 104.300781 C 176.5 105.898438 176.800781 105.898438 180.101562 104.101562 C 183.898438 102 187.5 102.199219 188.398438 104.5 C 189.101562 106.398438 187.101562 107.699219 182.199219 108.300781 C 176.898438 109 175 110.5 175 114.101562 C 175 119.199219 183.101562 122.101562 187.199219 118.300781 C 188.898438 116.800781 189.101562 116.800781 191 118.5 C 193.601562 120.898438 195.800781 119.300781 194.101562 116.199219 C 193.5 115.101562 193 111.800781 193 109 C 193 104.898438 192.5 103.398438 190.5 101.5 C 187.5 98.398438 181.300781 98.101562 178 100.800781 Z M 188.5 112.199219 C 187.199219 116.601562 182.398438 118.398438 180 115.5 C 178.398438 113.5 180.101562 111.300781 183.800781 110.699219 C 189.101562 109.898438 189.199219 109.898438 188.5 112.199219 Z M 188.5 112.199219 "/>
<path style=" stroke:none;fill-rule:nonzero;fill:rgb(0%,0%,0%);fill-opacity:1;" d="M 165 110 C 165 119.300781 165.101562 120 167 120 C 168.898438 120 169 119.300781 169 110 C 169 100.699219 168.898438 100 167 100 C 165.101562 100 165 100.699219 165 110 Z M 165 110 "/>
</g>
</svg>
