<svg xmlns="http://www.w3.org/2000/svg" width="200" height="200" xmlns:v="https://vecta.io/nano"><path d="M0 0h200v200H0V0z" fill="#010101"/><path d="M108 7l1.955.238C120.14 8.477 127.76 10.483 136 17l2.523 1.895C148.466 27.348 156.49 41.671 158 54.75c.258 7.773-.546 15.618-2 23.25v3.125c-1 2.875-1 2.875-3.066 4.141-2.286 1.016-4.568 1.922-6.934 2.734v3c-4.222 3-4.222 3-7 3l-.75 1.875C137 98 137 98 134.938 98.875L133 100c-.816 3.059-.816 3.059-1 6h-1v-6c-3.058-.544-5.888-1-9-1v-3c-2.652-1.075-5.284-2.095-8-3v2l2 1-4 2-2-5v3 2c-4.75-.75-4.75-.75-7-3l-.5 3.813-.281 2.145c-.272 2.198-.272 2.198-.219 5.043l1.938.563C106 108 106 108 107 111.375c0 3.625 0 3.625-1.625 6.125C103 119 103 119 100.25 118.75L98 118l-1-4h4l-2-2-3 1-1 3c-.25-6.625-.25-6.625 2-10 .241-2.057.241-2.057.125-4.187L97 98c-4.068 1.849-7.009 3.664-10 7l-3-1 .563-1.875c.674-2.167.674-2.167-.562-4.125.25-2 .25-2 1-4l3-2-1-3v1c-4.824.193-8.496-.243-13-2l-2 2v-3h-4l1.5 2.688c1.444 3.188 1.802 4.894 1.5 8.313h-2l-.75-3.125C67.146 91.051 65.523 88.116 63 85c-2.041-.887-2.041-.887-4-1l-2-1 1.563 2.563c1.683 4.025 1.361 6.24.438 10.438h2v3h2l1-4 1 3 3 1v2l1.875.25C72 102 72 102 73.25 103.75c.846 2.537.898 4.592.75 7.25l1.875-.625L78 110l2 2-13 1 1 6h-2l-1-1v2l2 1c-1.875.625-1.875.625-4 1l-2-2h2l-1-3-3 1c-1.64-2.915-2.298-5.237-2.562-8.562-.228-2.758-.551-4.778-1.437-7.437l-2.812-.937c-4.222-1.407-6.256-3.265-8.297-7.203-1.334-4.282-.978-8.465-.812-12.889.101-4.457-.54-7.81-2.078-11.971-1.673-11.711.92-27.675 7.219-37.648C58.539 17.727 73.896 9.614 90.625 6.625c6.004-.752 11.41-.526 17.375.375z" fill="#4e1f25"/><path d="M126 100c1.671 2.962 2.327 5.371 2.625 8.75l.227 2.422L129 113h3l2 4c3.233-4.618 4.53-9.632 6-15h1c.068 3.392.113 6.491-.625 9.813-.541 4.603.556 8.715 1.625 13.188h3v2l3 1c.887 2.258.887 2.258 1.688 5.125 2.119 6.205 5.056 9.136 10.313 12.875l2.098 1.652c6.724 4.991 13.929 6.602 22.105 7.828 4.355.809 6.619 2.807 9.113 6.434C200.698 174.386 200 185.091 200 200H39l4-5c.269-2.273.269-2.273-.25-4.562C41.385 180.768 40.762 171.66 46 163c5.516-6.344 14.581-12.322 23.144-13.227 3.332.012 6.45.405 9.747.922 3.221.316 4.465.072 7.109-1.695v2l5-2 1-10h2l2 4h8v2l1.938.688C108 147 108 147 108.75 149.625L109 152l-3-1v-3h-4l-1 2-5-1-3 12h2l1-3h2l-1 7 2 1v2c.639 1.677 1.303 3.346 2 5l2-3c2.875-.125 2.875-.125 6 0 2.242-.287 2.242-.287 4-1l1-2h-2l-1-5-4-1v5h-7l2-5-3-1v-2h2v-4l5 2 1-3h2l1 4h3v6l3 1h-2c.893 2.358.893 2.358 4.063 3.125L121 168v-2l3-1 1-3-6 2v-12l5-1v2h2l.875-1.75L130 145h2l.438-2.937C133 139 133 139 134 138v-2h-2l.125-2.75c-.12-3.128-.516-4.636-2.125-7.25h2l-2-4-2 5h-4l1-14h3v-3l-5-2 1-2h2v-6z" fill="#4d3136"/><path d="M57 83c4.516.797 7.093 1.547 9.938 5.25C69.056 91.552 69.482 94.049 69 98h2l-3-11c4.524-.215 7.739.58 12 2 3.125.167 3.125.167 6 0h3l-1 5h-3l.625 2.75c.388 3.36.179 4.491-1.625 7.25h5l.813-1.875C91 100 91 100 94 98h3l.625 4.375.352 2.461L98 107l-2 2v4l4-2 1 3h-4l2 4c2.962-.613 4.381-1.254 7-3-.264-3.432-.264-3.432-1-7l-3-2c-.582-1.84-.582-1.84-.812-3.937l-.27-2.09C101 98 101 98 103 95l3 1h3l-1-3h3l2 4 1-4c3.296.388 5.084 1.057 7.875 2.938 3.468 2.289 6.004 3.474 10.125 4.063 3.027-1.572 5.206-3.174 7.563-5.625 1.914-1.831 3.963-2.505 6.438-3.375l-1-3 3-2c4.366 1.455 6.445 4.251 9 8 2.345 5.011 3.252 9.461 3 15l.563 2.688C161 114 161 114 160 117c.688 2.313.688 2.313 1.813 4.75 1.235 2.904 2.268 5.561 3.063 8.625 1.426 4.596 3.611 8.623 5.883 12.855C172 146 172 146 172 150l3.75.813c3.353.826 5.661 1.814 8.25 4.188-5.884 1.511-10.462.304-16-2-3.612-2.38-6.775-5.127-10-8l-2.074-1.574c-4.7-3.597-6.334-6.715-7.926-12.426v-3l-4-1 1-2h-3c-2.35-6.479-3.385-11.203-2-18l-.77 1.898-1.043 2.477-1.02 2.461C136 116 136 116 133 118l-1-5h-3l-2-9-3 4 4 2v3h-3l.035 2.047.027 2.703.035 2.672c-.089 2.36-.429 4.323-1.098 6.578h4l1-8c1.991 2.986 2.941 5.597 4 9h-2l2 2c-.375 3.125-.375 3.125-1 6h2v2h2l-1 2-2-1 1 4-1.937.75c-2.226 1.034-2.226 1.034-2.625 3.125L129 149c-1.562 2.25-1.562 2.25-3 4l-7-1 .563 1.5c.639 3.651-.013 6.84-.562 10.5l6-2-1 4h-3v2l-7-2-1-9-4 1-1-3 1-2h-2v5l-1-2c-1.644-.722-3.311-1.394-5-2v4h-2v2l4 1-3 5 2.375-.562C105 165 105 165 107 166l-1-6 6 1-1 3 2 1-1 2h2l-1 3c-6.625 1.125-6.625 1.125-10 0l-1 5c-3-3.625-3-3.625-3-7l-2-1c0-3.273.299-5.847 1-9l-1.375 1.5C95 161 95 161 93 161l-1 3c.805-6.037 1.885-12.013 3-18l4 4 1-2h6v3h2v-4l-5-1 1-3-2 1c-2 .04-4 .043-6 0l-2-5h-2l.625 2.688c.407 3.592.112 5.186-1.625 8.313l-3 2-3-1 1.5-3.125c1.475-3.4 1.773-6.145 1.5-9.875l-2.75 2c-5.141 2.927-10.508 2.89-16.25 2-3.66-2.091-4.627-3.82-5.883-7.793-.782-3.056-1.451-6.124-2.117-9.207-.636-2.01-1.284-4.017-2-6l2-1 1-3 1 6 2-1-1-6c2 3 2 3 2 5h2l-1-6c2.308-1.154 4.472-1.534 7-2-.599-2.352-1.269-4.686-2-7l-2-1v-2h-2v-2c-1.946-.591-1.946-.591-4-1l-1 1h-2v-3h-2l.125-3.125C59.004 89.132 58.351 86.463 57 83zm32 5l3 1z" fill="#4a1d21"/><path d="M108 7l2.052.286 6.823 1.026 2.2.319c4.646.787 7.6 1.998 10.925 5.368v2c.954 1.204 1.963 2.366 3 3.5 3 3.278 3 3.278 3 5.5l-1.828-.324-2.422-.363-2.391-.387c-3.039.096-3.97 1.253-6.359 3.074-3.347.892-6.699 1.514-10.102 2.156-3.196.593-3.196.593-4.898 3.844l4 2-1.562 1.75c-1.703 2.128-1.703 2.128-1.125 4.5L110 43h-2l-2 4c-2 0-2 0-3.625-1.5L101 44l-5 3c.514 4.12 1.587 6.019 4.5 8.938 3.032 3.268 4.385 5.457 4.5 10.063-3.852-1.569-6.117-4.05-9-7l-5.449-4.473C89 53 89 53 88.051 50.863c-.877-2.053-.877-2.053-2.996-2.473L79 48v2c-3.046.208-5.357.276-8.187-.937C68.001 45.863 67.122 42.054 66 38l-2.062.5c-3.354.571-6.541.567-9.937.5l-2-4c-2.511 1.255-2.871 2.501-4 5l-2-4c9.666-15.614 23.334-24.536 41.324-28.785C94.458 5.94 100.861 5.903 108 7z" fill="#946170"/><path d="M92 148v3c-4.434 3.985-9.153 5.635-15 6l2 6 6 1 2-6h2v5h2v2c-10.374 2.665-10.374 2.665-16 0l-2 5 2 2 1.375-1.5C78 169 78 169 80 169l1 2h11l-2 2c.319 2.108.319 2.108 1 4l-4 2v2l4 1c-1.375 2-1.375 2-3 4h-2c.267 1.985.267 1.985 1 4l3 1 1 2 3-1v2h-2v2h4l-.5-1.687C95 192 95 192 95.063 189.375c.205-2.566.205-2.566-2.062-4.375l5-3v8l4 1v-2l12-2-1-1 2-7h2c1.581 2.512 2.053 3.631 1.625 6.625L118 188v2 2h-2l-.562 2.875C114 198 114 198 110.85 199.181c-3.765.801-7.045 1.06-10.887 1.046l-2.013.001-6.509-.033-4.544-.009-11.901-.049-12.167-.04L39 200l1.989-2.359c2.197-2.389 2.197-2.389 2.183-4.895l-.422-2.309C41.385 180.768 40.762 171.66 46 163c5.516-6.344 14.581-12.322 23.144-13.227 3.332.012 6.45.405 9.747.922 3.221.316 4.465.072 7.109-1.695v2c3.25-1.088 3.25-1.088 6-3z" fill="#6e4751"/><path d="M147 155h8v3h-2v2l-2 1v3h2l2-4 2 1-3 8h-3c0 2.156.447 3.924 1 6h2v2h3l2 2 2-2c2.125.375 2.125.375 4 1 1-2 1.494-3.831 2-6l3 1v2l4 1-1-6c2.664-.392 4.392-.406 6.668 1.113L184 175l5-3 3 13h3l1 3 3-7h1v19h-93c2-2 2-2 4.625-2.125L114 198l2-6h2l-2-5 3 1c2.167-.875 2.167-.875 4-2l-1-5 4-1-2-6 2.875-.25c3.23-.401 3.23-.401 4.5-2.812L132 169h2l.75-2.25c2.635-5.797 6.581-7.57 12.25-9.75v-2z" fill="#7b424c"/><path d="M52 34c2 2 2 2 2 5l12-1c3 5 3 5 4.313 8.625 1.424 3.501 1.424 3.501 4.375 5.313 2.982.956 4.328 1.114 7.313.938 3.392-.17 4.903.432 7.5 2.625L92 58l-1 2-2.703-.07-3.547-.055-3.516-.07c-3.108.188-4.605.664-7.234 2.195h-2c-2.313 2.732-2.313 2.732-1.625 5.313L71 70v6c.439 2.266.439 2.266 1 4h3l1-2c3.875 2.75 3.875 2.75 5 5l12-1c-2.766 2.766-4.69 2.973-8.562 3.313C79.168 85.283 74.72 83.166 70 81v3l16 3 1 3c-4.824.193-8.496-.243-13-2l-2 2v-3h-4l1.5 2.688c1.444 3.188 1.802 4.894 1.5 8.313h-2l-.75-3.125C67.146 91.051 65.523 88.116 63 85c-2.041-.887-2.041-.887-4-1l-2-1 1.563 2.563c1.683 4.025 1.361 6.24.438 10.438h2v3h2l1-4 1 3 3 1v2l1.875.25C72 102 72 102 73.25 103.75c.846 2.537.898 4.592.75 7.25l1.875-.625L78 110l2 2-13 1 1 6h-2l-1-1v2l2 1c-1.875.625-1.875.625-4 1l-2-2h2l-1-3-3 1c-1.64-2.915-2.298-5.237-2.562-8.562-.228-2.758-.551-4.778-1.437-7.437l-2.812-.937c-4.222-1.407-6.256-3.265-8.297-7.203-1.334-4.282-.978-8.465-.812-12.889.101-4.457-.54-7.81-2.078-11.971-.943-6.602.352-13.398 1.313-19.937l.356-2.55.382-2.415.333-2.172C44.718 37.755 48.367 36.062 52 34z" fill="#5d3138"/><path d="M148 86c4.366 1.455 6.445 4.251 9 8 2.345 5.011 3.252 9.461 3 15l.563 2.688C161 114 161 114 160 117c.688 2.313.688 2.313 1.813 4.75 1.235 2.904 2.268 5.561 3.063 8.625 1.426 4.596 3.611 8.623 5.883 12.855C172 146 172 146 172 150l3.75.813c3.353.826 5.661 1.814 8.25 4.188-5.884 1.511-10.462.304-16-2-3.612-2.38-6.775-5.127-10-8l-2.074-1.574c-4.7-3.597-6.334-6.715-7.926-12.426v-3l-4-1 1-2h-3c-2.35-6.479-3.385-11.203-2-18l-.77 1.898-1.043 2.477-1.02 2.461C136 116 136 116 133 118l-1-5h-3l-2-9-3 4 4 2v3h-3l.035 2.047.027 2.703.035 2.672c-.089 2.36-.429 4.323-1.098 6.578h4l1-8c1.991 2.986 2.941 5.597 4 9h-2l2 2c-.375 3.125-.375 3.125-1 6h2v2h2l-1 2-2-1 1 4-2-1v-2h-5v-3l2-1-1-3-1-3-2 4-4-2 1-3h-3v-5h2v-6h-2l-1-5-3 1-1-3c1.438-2.187 1.438-2.187 3-4l1 1c0-2.156-.447-3.924-1-6-2.541.746-2.541.746-5 3-.938 2.815-1.568 5.591-2.129 8.504C109 116 109 116 106.965 117.215L105 118l-.875 2c-1.125 2-1.125 2-3.875 3.25-3.212.741-5.967.906-9.25.75l-2-7 3-1v-2l-3-1 .625-1.875L90 109l-2-2c.095-3.598.772-4.778 3.375-7.312C94 98 94 98 97 98l.625 4.375.352 2.461L98 107l-2 2v4l4-2 1 3h-4l2 4c2.962-.613 4.381-1.254 7-3-.264-3.432-.264-3.432-1-7l-3-2c-.582-1.84-.582-1.84-.812-3.937l-.27-2.09C101 98 101 98 103 95l3 1h3l-1-3h3l2 4 1-4c3.296.388 5.084 1.057 7.875 2.938 3.468 2.289 6.004 3.474 10.125 4.063 3.027-1.572 5.206-3.174 7.563-5.625 1.914-1.831 3.963-2.505 6.438-3.375l-1-3 3-2z" fill="#29272c"/><path d="M130 14c9.825 3.179 16.251 12.21 21.071 20.939C158.394 49.3 159.013 62.18 156 78v3.125c-1 2.875-1 2.875-3.066 4.141-2.286 1.016-4.568 1.922-6.934 2.734v3h-2v-2l-2.25-.375c-4.12-.936-7.018-2.347-9.75-5.625v-2l-3-1c-3.119-4.371-4.539-8.61-4-14h-2l-2-6-1 3h-2v5l2 1-.375 2.875C119.557 77.376 123.03 81.606 126 86h-3c-7.033-11.641-9.78-22.608-6.875-36.125 1.472-5.451 3.738-9.957 7.875-13.875h2l-1-4c6.863-1.447 11.082-1.129 17.09 2.578 1.817 1.353 3.362 2.772 4.91 4.422v-5l-4-2v-2h-2l-.883-1.723C137.255 22.887 134.119 18.502 130 14z" fill="#7e7b69"/><path d="M145.188 135.125C147 136 147 136 150 138v2l1.613.195c3.415 1.151 5.838 3.415 8.574 5.68 6.552 5.213 12.003 7.889 20.438 8.5 4.873.458 7.994 2.084 11.375 5.625 3.973 5.474 7.189 12.247 8 19-.522 3.246-1.395 6.124-3 9l-2 1v-4l-3 1-1.437-4.25-.809-2.391c-.673-2.108-1.245-4.207-1.754-6.359l-5 3-2.187-2.437c-2.838-2.585-4.084-3.243-7.812-3.562l1 6c-3.27-.564-4.826-1.5-7-4l1 3c-2.405 2.911-4.289 3.536-8 4h-3v-2h-3v-2h-2c-1.687-2.312-1.687-2.312-3-5l1-3 3 2 3-8-3 3h-2l-1-5 3 1v-2l-2-2 2-4-3-1v-2l6-1-9-4 1 3-7-1v-3c-1.938-2.188-1.938-2.188-4-4 5.381-4.035 5.381-4.035 8.188-3.875z" fill="#8f4b5a"/><path d="M92 148v3c-4.434 3.985-9.153 5.635-15 6l2 6 6 1 2-6h2v5h2v2c-10.374 2.665-10.374 2.665-16 0l-2 5 2 2 1.375-1.5C78 169 78 169 80 169l1 2h11l-2 2c.319 2.108.319 2.108 1 4l-4 2v2l4 1c-1.375 2-1.375 2-3 4h-2c.267 1.985.267 1.985 1 4l3 1 1 2 3-1v2h-2v2h4l-.5-1.687C95 192 95 192 95.063 189.375c.205-2.566.205-2.566-2.062-4.375l5-3v8l4 1v-2l12-2-1-1 2-7h2c1.581 2.512 2.053 3.631 1.625 6.625L118 188v2 2h-2l-.562 2.875C114 198 114 198 110.877 199.183c-3.913.824-7.348 1.045-11.342 1.012l-2.055-.009-6.418-.062-4.385-.027L76 200l-.934-1.883c-.678-1.347-1.385-2.68-2.129-3.992C71.346 190.517 71 186.914 71 183l-1-3-5 2c1.199-3.083 2.477-6.063 4-9h-2l-1 3-1.75-1.062c-2.608-1.087-3.644-.868-6.25.063l1-3 6-1c.826-2.892 1-4.887 1-8l1-2-5-2 1-3 4 1v2h2l-.562-1.875C68 155 68 155 69 153l3.875.125c6.989-.011 13.626-.532 19.125-5.125z" fill="#89525f"/><path d="M108 7l2.052.286 6.823 1.026 2.2.319c4.646.787 7.6 1.998 10.925 5.368v2c.954 1.204 1.963 2.366 3 3.5 3 3.278 3 3.278 3 5.5l-1.828-.324-2.422-.363-2.391-.387c-3.037.096-3.975 1.252-6.359 3.074-3.25.859-6.504 1.45-9.809 2.059-3.515 1.037-5.502 2.493-8.191 4.941-3.743-1.449-3.743-1.449-4.875-3.875-.158-2.678.395-3.904 1.875-6.125 3-2 3-2 5.688-1.625L110 23l-2-4h2v-3l2-1v-2c-7.788-.251-16.115-.104-23 4l-1 2c-3.062.625-3.062.625-6 1l3 2v2l-8-1v-3l-9 4-1-2-.664 1.645c-1.669 3.764-2.766 5.959-6.211 8.355-3.239 1.037-5.747 1.241-9.125 1 2.816-9.013 8.625-14.017 16.727-18.398C80.855 8.178 93.409 4.758 108 7z" fill="#a6a7b3"/><path d="M148 86c4.366 1.455 6.445 4.251 9 8 2.345 5.011 3.252 9.461 3 15l.563 2.688C161 114 161 114 160 117c.688 2.313.688 2.313 1.813 4.75 1.235 2.904 2.268 5.561 3.063 8.625 1.426 4.596 3.611 8.623 5.883 12.855C172 146 172 146 172 150l3.75.813c3.353.826 5.661 1.814 8.25 4.188-5.884 1.511-10.462.304-16-2-3.612-2.38-6.775-5.127-10-8l-2.074-1.574c-4.7-3.597-6.334-6.715-7.926-12.426v-3l-4-1 1-2h-3l-2-10h6v-2c2.422-1.435 3.768-2.006 6.625-1.937L155 111l2-3-3.375-.312L150 107c-2.173-3.259-2.291-4.57-2.5-8.375-.219-3.967-.863-6.994-2.5-10.625l3-2z" fill="#3f4246"/><path d="M118 121v5l-2-2-2 1 1 16c3.15.081 3.15.081 6.813-.625 3.856-.52 6.571.088 10.188 1.625v3h-2l-.312 1.75c-.785 2.57-1.993 4.187-3.687 6.25l-7-1 .563 1.5c.639 3.651-.013 6.84-.562 10.5l6-2-1 4h-3v2l-7-2-1-9-4 1-1-3 1-2h-2v5l-1-2c-1.644-.722-3.311-1.394-5-2v4h-2v2l4 1-3 5 2.375-.562C105 165 105 165 107 166l-1-6 6 1-1 3 2 1-1 2h2l-1 3c-6.625 1.125-6.625 1.125-10 0l-1 5c-3-3.625-3-3.625-3-7l-2-1c0-3.273.299-5.847 1-9l-1.375 1.5C95 161 95 161 93 161l-1 3c.805-6.037 1.885-12.013 3-18l4 4 1-2h6v3h2v-4l-5-1 1-3-2 1c-2 .04-4 .043-6 0l-.875-2.437c-.858-2.695-.858-2.695-3.125-3.562-.625-2.062-.625-2.062-1-4l1.75-.375c2.273-.631 4.175-1.514 6.25-2.625l-1 7c3.133 1.044 3.99.934 7 0v-3l5-1-2-1-.187-4.875-.105-2.742L108 123c3.644-2.429 5.712-2.162 10-2z" fill="#45494e"/><path d="M48 67c4.219.479 6.797 1.166 10 4l-1-4 3 1 1 6 4 1a176.79 176.79 0 0 1 1 7c-1 1-1 1-2.848 1.098L57 83l1.563 2.563c1.683 4.025 1.361 6.24.438 10.438h2v3h2l1-4 1 3 3 1v2l1.875.25C72 102 72 102 73.25 103.75c.846 2.537.898 4.592.75 7.25l1.875-.625L78 110l2 2-13 1 1 6h-2l-1-1v2l2 1c-1.875.625-1.875.625-4 1l-2-2h2l-1-3-3 1c-1.64-2.915-2.298-5.237-2.562-8.562-.228-2.758-.551-4.778-1.437-7.437l-2.812-.937c-4.221-1.407-6.258-3.263-8.293-7.203-1.138-3.637-1.072-7.033-.957-10.797.121-4.803.018-9.33-.937-14.062 2.01 2.01 2.899 3.592 4.125 6.125l1.07 2.195L48 79v-1l-1-1c-.136-3.663-.165-6.506 1-10z" fill="#5d353c"/><path d="M88 59c3.825 1.275 5.608 2.587 8.375 5.5C98.584 69.257 98.902 73.826 98 79c-1.646 2.112-2.573 2.862-5.125 3.688-10.713 1.164-10.713 1.164-14.687-1.75L76 79c-2.264.126-2.264.126-4 1-2.189-3.284-2.113-6.093-2.004-9.961.005-2.748-.458-5.351-.996-8.039l3.375-.937C78.045 59.401 81.969 58.499 88 59z" fill="#1a1c21"/><path d="M149 157l-1 4h-2l-.75 1.813c-1.414 2.474-2.901 3.621-5.25 5.188l.563 2.188c.457 2.941.173 4.954-.562 7.813l-9 1-2 6-1-2h-2l2 5h2l2 6v-11l3 3v8c1.334 2.009 1.334 2.009 3 3l-.984-1.715c-1.105-2.486-1.284-4.145-1.266-6.848l-.016-2.316C136 184 136 184 138 181h3v3h-3v2l2 1-1 4h2l1 9h-35c2-2 2-2 4.625-2.125L114 198l2-6h2l-2-5 3 1c2.167-.875 2.167-.875 4-2l-1-5 4-1-2-6 2.875-.25c3.23-.401 3.23-.401 4.5-2.812L132 169h2l.75-2.25c1.995-4.389 4.535-6.569 8.875-8.5C147 157 147 157 149 157z" fill="#292b31"/><path d="M60 44c7.519-.414 7.519-.414 9.699 1.461l.988 1.914c1.815 2.982 1.815 2.982 4.625 5.063 2.873.719 2.873.719 6.625.375 3.4-.123 4.961.492 7.563 2.688L92 58l-1 2-2.703-.07-3.547-.055-3.516-.07c-3.108.188-4.605.664-7.234 2.195h-2c-2.313 2.732-2.313 2.732-1.625 5.313L71 70v6c.439 2.266.439 2.266 1 4h3l1-2c3.875 2.75 3.875 2.75 5 5l12-1c-2.766 2.766-4.69 2.973-8.562 3.313C79.168 85.283 74.72 83.166 70 81v3l16 3 1 3c-4.824.193-8.496-.243-13-2l-2 2v-3l-5-1c-1-3-1-3-.437-5.375.535-3.207-.061-4.78-1.562-7.625l-2-1c-.389-1.654-.709-3.325-1-5l-1.023-3.152c-1.08-4.255-1.205-7.932-1.102-12.285l.027-2.217L60 44z" fill="#66242d"/><path d="M117 102l1 2 2-1-1 6h-3l-1 4h3l1 5h2v6h-2v5h3v3l3 1 2-4c1.563 1.188 1.563 1.188 3 3-.312 2.688-.312 2.688-1 5h-2l1 2c2.025.652 2.025.652 4 1l-1 2-9-2-1 4v-3l-6 2c-1.521-3.042-1.374-6.28-1.562-9.625l-.131-2.141L113 126l-2 1 1-3 2.438-.375L117 123l1-2c-3.121.379-6.053.883-9 2-2.043 2.834-2.043 2.834-3 6l-2 3-7-2v-2l-2.312-.375C92 127 92 127 89 125l-1-6-3-2 1-4-5 2v-2c2.375-1.687 2.375-1.687 5-3l2 1-1-4 4 2-2 1v3l4 1-1.562 1.625c-1.764 2.38-1.764 2.38-1.125 5.625L91 124c7.109-.711 12.286-2.5 17-8 1.003-2.689 1.003-2.689 1.563-5.562C111.406 102 111.406 102 117 102z" fill="#552c34"/><path d="M57 83c4.516.797 7.093 1.547 9.938 5.25C69.056 91.552 69.482 94.049 69 98h2l-3-11c4.524-.215 7.739.58 12 2 3.125.167 3.125.167 6 0h3l-1 5h-3l.625 2.75c.388 3.36.179 4.491-1.625 7.25h4v7l-1.812.438c-1.749.45-3.474.991-5.187 1.563h3 3v4l-7 2v-6h-3l1 7h-6l-1-7 6-2h-3l-.875-3.437L72 104l-2-1v-2h-2v-2c-1.946-.591-1.946-.591-4-1l-1 1h-2v-3h-2l.125-3.125C59.004 89.132 58.351 86.463 57 83zm32 5l3 1z" fill="#552027"/><path d="M145.188 135.125C147 136 147 136 150 138v2l1.613.195c3.415 1.151 5.838 3.415 8.574 5.68 6.552 5.213 12.003 7.889 20.438 8.5 4.658.4 8.213 2.134 11.375 5.625 1.161 3.338 1.08 6.485 1 10l-.687-1.687c-1.68-2.959-3.854-4.974-6.312-7.312l-1.625-1.812c-1.451-1.514-1.451-1.514-4.375-1.187l1.934 1.207 2.504 1.605 2.496 1.582C189 164 189 164 190 167c-.937 2.188-.937 2.188-2 4l-7-1-1-3-5-1-1 2-.812-1.812c-1.223-2.254-2.167-3.616-4.187-5.187-2.606-.722-2.606-.722-5-1v-7l-5-1-1 2c-3.062.625-3.062.625-6 1l1-3-3-1v-2l6-1-9-4 1 3-7-1v-3c-1.938-2.188-1.938-2.188-4-4 5.381-4.035 5.381-4.035 8.188-3.875z" fill="#876b76"/><path d="M173 170c2.664-.392 4.392-.406 6.668 1.113L184 175l5-3 3 13h3l1 3 3-7h1v19h-9l-1-4c-1.479-1.73-1.479-1.73-3-3h2l-1-2.437C187 188 187 188 187 187h-4v2c-5.625 1.125-5.625 1.125-9 0h-2.625H169c-1-1-1-1-1.187-4.375C168 181 168 181 170 178h2v-2h2l-1-6z" fill="#61191f"/><path d="M71 48l8 2v-2c5.117-.607 5.117-.607 8 0l3.57 4.984c2.292 3.231 5.438 5.255 8.637 7.535L101 62v2l3 1c-1.258-4.508-2.904-7.491-6-11h2v-3h-2v-2l5 2v3l2.938.75L109 56c.875 2.125.875 2.125 1 4l-2-1v-2l-4-1 1.438 3.5c1.585 4.186 2.165 8.052 2.563 12.5h-2l3 6h2v3h2v2h2l1-4c-.586 6.152-.586 6.152-1 8l-2 1v-3c-2.639-1.414-5.071-2.372-8-3l-1 2 4-2-1 4h-4l-2-5-3 2h-2l-3 1.5C90 86 90 86 88 86v2l-7.25-.875-2.066-.238C75.093 86.434 72.107 85.906 69 84l1-3a48.6 48.6 0 0 1 6.75 2.063c5.755 1.66 10.252 1.652 15.688-.75 2.968-1.66 2.968-1.66 4.563-4.625V75l.313-3.437c-.374-4.26-1.647-6.27-4.312-9.562l-2-1-.375-1.875c-.489-2.225-.489-2.225-2.187-3.875-2.923-1.499-5.174-1.295-8.402-1.168C76.83 53.953 74.637 52.737 72 51l-1-3z" fill="#73343e"/><path d="M92 139h2l2 4h8v2l1.938.688C108 147 108 147 108.75 149.625L109 152l-3-1v-3h-4l-1 2-5-1-3 12h2l1-3h2l-1 7-5 2 4 2-2 1 2 1-1 3 2.875.875C101 176 101 176 103 178c-5.279 2.084-10.395 2.579-16 3 .573-2.867.861-3.861 3-6l-2-2v-1h-7l-1-3-5 4c-2-1-2-1-3-4 1.438-2.687 1.438-2.687 3-5l2.938 1.063c4.477 1.312 8.526.699 13.063-.062l-3-2 1-5h-2l-.437 1.875C86 162 86 162 85 164c-2.875.125-2.875.125-6 0-2-2-2-2-2.125-4.625L77 157l2.266-.77 2.984-1.043 2.953-1.02C87.97 153.013 89.918 152.16 92 150c.483-2.739.483-2.739.25-5.687l-.109-3.012L92 139z" fill="#705e65"/><path d="M101 7l2 2-3 2v2l-2.117.551-2.758.762-2.742.738c-2.704.816-2.704.816-4.383 3.949-3.125.688-3.125.688-6 1l3 2v2l-8-1v-3l-9 4-1-2-.664 1.645c-1.669 3.764-2.766 5.959-6.211 8.355-3.239 1.037-5.747 1.241-9.125 1 2.816-9.013 8.625-14.017 16.727-18.398C91.001 3.214 91.001 3.214 101 7z" fill="#aeb5c3"/><path d="M130 14c9.825 3.179 16.251 12.21 21.071 20.939C158.394 49.3 159.013 62.18 156 78v3.125c-1 2.875-1 2.875-3.066 4.141-2.286 1.016-4.568 1.922-6.934 2.734v3h-2v-2l-2.25-.375c-2.551-.58-4.477-1.362-6.75-2.625v-2l4.875-2.562 2.742-1.441L145 79l2 1-6 4c3.15-.573 5.349-1.079 7.254-3.773 4.34-8.617 5.391-17.985 2.371-27.289-.989-2.682-2.008-4.512-3.625-6.937l.438-1.687c.904-3.716.349-6.561-.437-10.312-1.921-1.59-1.921-1.59-4-2v-2h-2l-.883-1.723C137.255 22.887 134.119 18.502 130 14z" fill="#5b6469"/><path d="M99 165v3l2 5 2-3 9 2v7l4 1-2 1c-.656 2.527-.656 2.527-1 5h2l-1 2c-3.984 1.172-7.874 1.081-12 1v2h-6l.5-2.312c.591-2.723.591-2.723.5-5.687l-2 3 1 3 1 5 1 4h-2v-2h-4v-2l-1 1-1-4-4-1c0-4 0-4 1.938-6.125L90 182l1-2c2.504-.633 2.504-.633 5.563-1.125l3.066-.508L102 178c-2.463-2.463-4.707-2.998-8-4l2-1v-2l-3-1 1-1-3-2c3.228-2.152 4.284-2.201 8-2z" fill="#652930"/><path d="M92 148v3c-4.434 3.985-9.153 5.635-15 6l2 6 6 1 2-6h2v5h2v2c-10.374 2.665-10.374 2.665-16 0l-2 5 2 2 1.375-1.5C78 169 78 169 80 169l1 2h11l-2 2c.319 2.108.319 2.108 1 4l-4 2v2l4 1-3 4-4-2 1-3-5 1c1.375-1.5 1.375-1.5 3-3h2v-2h-2v-3l-5 1 1-2-2-1-.812 2.25c-1.13 2.616-2.396 4.552-4.187 6.75l-.375-2.937L71 175l-2-1-2-1-1 3-1.75-1.062c-2.608-1.087-3.644-.868-6.25.063l1-3 6-1c.826-2.892 1-4.887 1-8l1-2-5-2 1-3 4 1v2h2l-.562-1.875C68 155 68 155 69 153l3.875.125c6.989-.011 13.626-.532 19.125-5.125z" fill="#86727f"/><path d="M113 29l1 2c3.273 0 5.847-.299 9-1l-1 4-5 1 1 3-4 7-2 4-6-1v3h2v3l3-1v3h2l.184 3.867.254 5.008.119 2.551.127 2.441.111 2.253c.105 1.968.105 1.968 1.205 3.879v7h-2v-2h-2c-2.61-2.848-4.427-5.131-5-9h2v-4l-3-1h2l-.656-1.645-.844-2.168-.844-2.145C104 59 104 59 104 56l4 1v-1l-5-2v-3l-5-2v2h2v3c-1.937-.687-1.937-.687-4-2-.75-2.625-.75-2.625-1-5l5-4 4 2v2h2l.438-2.437C107 42 107 42 108 41c1.529-3.381 1.529-3.381 2-7l-4-1c3.625-4 3.625-4 7-4z" fill="#6e2b34"/><path d="M128 14c3.36 1.429 5.277 3.161 7.625 5.938l1.789 2.09C141 26.488 141 26.488 141 30h2c2.688 2.75 2.688 2.75 5 6-.187 2.375-.187 2.375-1 4l-2.625-2.312C137.996 32.466 133.087 31.568 125 32l.637 1.863L126 36l-5 5c-6.132 10.856-5.549 21.998-4 34l-1-2h-2c-1.187-3.56-1.097-6.438-1.062-10.187l.027-3.855L113 56h-2l-1-2h-2v-3h-2v-3h6l1-5h2c1.47-3.911 1.47-3.911 2-8l5-1v-3h-3l-2 2-4-2v-2l2.52-.805 3.293-1.07 3.27-1.055c3.051-.99 3.051-.99 5.918-3.07 1.938.313 1.938.313 4 1l2.25.563L136 25c-2.499-3.837-5.084-7.46-8-11z" fill="#697277"/><path d="M112 35l-1.562 1.75c-1.703 2.128-1.703 2.128-1.125 4.5L110 43h-2l-2 4c-2 0-2 0-3.625-1.5L101 44l-5 3c.514 4.12 1.587 6.019 4.5 8.938 3.032 3.268 4.385 5.457 4.5 10.063-3.852-1.569-6.117-4.05-9-7l-5.449-4.473C89 53 89 53 88.051 50.863c-.877-2.053-.877-2.053-2.996-2.473L79 48v2c-3.046.208-5.357.276-8.187-.937C68.001 45.863 67.122 42.054 66 38l-2.062.5c-3.354.571-6.541.567-9.937.5l1-3c3.728-.959 6.274-.883 10 0h3v2l2.25-.125c2.838.129 4.338.696 6.75 2.125l-2 1 1 3 1.863-.105 2.449-.082 2.426-.105c2.783.36 3.431 1.254 5.262 3.293 2.606.722 2.606.722 5 1l2-4-4-2c1.303-2.606 2.317-2.912 5-4 1.991-.383 3.991-.726 6-1v-3c4.078-.927 6.422-1.34 10 1z" fill="#825560"/><path d="M155 117l3 1c1.203 2.434 1.203 2.434 2.25 5.438l1.078 2.996C162 129 162 129 161 131l-2-1 2 1.875c2 2.125 2 2.125 2 4.125h2l2.563 4.188 1.441 2.355c1.192 2.941.885 4.461-.004 7.457-4.854-.475-7.459-1.697-11.187-4.812l-2.543-2.082c-3.64-3.377-5.519-5.951-6.457-10.855l-.48-2.422L148 128l-4-1 4.375-4.437 2.461-2.496C153 118 153 118 155 117z" fill="#010101"/><path d="M138 50c4.067 4.184 6.076 8.188 6.25 14-.12 4.237-1.08 7.303-3.5 10.813-2.728 1.851-4.542 1.711-7.75 1.188-4.285-4.285-6.291-8.345-6.375-14.375.083-5.191.929-7.774 4.375-11.625 2.792-1.396 4.061-.98 7 0z" fill="#888984"/><path d="M113 130h1l1 11c3.15.081 3.15.081 6.813-.625 3.856-.52 6.571.088 10.188 1.625v3h-2l-.312 1.75c-.785 2.57-1.993 4.187-3.687 6.25l-7-1 .563 1.5c.639 3.651-.013 6.84-.562 10.5l6-2-1 4h-3v2l-7-2-1-9-4 1c-1.22-3.66-.636-5.23.313-8.937 1.548-6.318 2.703-12.635 3.688-19.062z" fill="#0e1015"/><path d="M140 41c2.881 0 4.532.541 6.598 2.566 6.411 8.05 7.247 16.403 6.402 26.434-1.15 5.965-3.043 10.224-8 14-2.812.813-2.812.813-5 1l4-4-3.187 1.563c-3.298 1.434-5.319 1.602-8.812.438l.313-2.062c-.335-3.148-.81-3.85-2.687-6.25-3.89-5.117-4.934-10.001-4.437-16.375.533-3.672 1.492-6.342 3.813-9.312 3.234-1.617 5.428-1.476 9-1 2.98 2.529 5.255 5.509 7 9 1.049 13.415 1.049 13.415-2 17.875L141 77c3.133-.665 3.133-.665 4.164-3.137 2.014-6.899 2.187-15.175-1.227-21.613L142 49l1-2 2.438 3.813 1.371 2.145c2.4 4.116 2.297 7.555 2.254 12.23l-.027 3.855L149 72h2c-.54-13.088-1.622-21.622-11-31zm-9.625 10.375c-3.809 4.21-3.76 7.18-3.738 12.719.595 4.756 2.994 8.537 6.363 11.906 3.62.402 5.359.485 8.313-1.75 3.189-4.252 3.375-9.041 2.688-14.25-1.57-4.564-3.56-8.709-8-11-3.219-.335-3.219-.335-5.625 2.375z" fill="#c0c093"/><path d="M107 153h2l1 4h3v6l3 1h-2c.893 2.358.893 2.358 4.063 3.125L121 168v-2c1.938.813 1.938.813 4 2l1 3c2.955.344 2.955.344 4.387-1.312l1.301-1.687 2.313-3 1 2-1.375 1.25c-1.734 1.663-1.734 1.663-2.5 3.875C130 174 130 174 127.375 174.75L125 175l2 6h-4l1 2c-1.245 3.736-2.634 4.188-6 6l.063-2.75c-.051-2.677-.284-4.72-1.062-7.25h-5v-7h-5c1.313-1.5 1.313-1.5 3-3h3l1-2h-2l-1-5-4-1v5h-7l2-5-3-1v-2h2v-4l5 2 1-3z" fill="#5b5c61"/><path d="M76 113l-4 2v5h6l-1-7h3l1 5 4 1-2 1-1 7h-4v2l-10 1 1 3h2c.934 3.01 1.044 3.867 0 7l9 1v1c-9.691.764-9.691.764-14-1.75-2.947-4.788-3.824-9.802-5-15.25-.636-2.01-1.284-4.017-2-6l2-1 1-3 1 6 2-1-1-6c2 3 2 3 2 5h2l-1-6c3.069-1.534 5.701-.55 9 0z" fill="#4b1921"/><path d="M120 57c2.125 3.188 2.502 5.265 3 9h2l.332 1.793c.92 4.586 1.805 8.389 4.668 12.207l2 1v2l3 1v2l1.688.375c2.534.685 4.892 1.616 7.313 2.625l-1 4-1.875.25c-2.8.988-2.866 2.154-4.125 4.75l-2.062.875L133 100c-.816 3.059-.816 3.059-1 6h-1v-6l-3-1 1-3c2.063-.687 2.063-.687 4-1l-1.812-.75c-2.504-1.431-3.668-2.819-5.187-5.25v-2l-2-1v-2c-.804-1.249-1.642-2.475-2.5-3.687-2.538-3.907-2.884-6.614-2.5-11.312l-1-1c-.041-1.666-.043-3.334 0-5h2v-6z" fill="#404446"/><path d="M85 149l1 4-3.43.184-4.445.254-2.262.119c-4.063.159-4.063.159-7.863 1.443l1 4h-2v-2h-4l-1 2 5 1c0 3 0 3-2 6l2 1c-.625 1.938-.625 1.938-2 4l-6 1-1 2v-3h3l2-8-4 1v-4l-4 11h-3l-2.062 1.063L48 173l-2-1v2l2 1-3 1v-6l-2 3c.425-5.665 2.051-9.937 6-14 9.042-6.503 17.77-9.826 28.875-8.437l2.18.379c2.276.257 2.276.257 4.945-1.941z" fill="#82515c"/><path d="M146.125 91.594C148 93 148 93 148.504 95.496l.059 2.941c.002 3.98.002 3.98 1.797 7.367 2.133 1.554 4.053 1.846 6.641 2.195-.711 1.953-.711 1.953-2 4-2.164.609-2.164.609-4.625.75l-2.477.172L146 113v2h-7l1-8-.77 1.898-1.043 2.477-1.02 2.461C136 116 136 116 133 118l-.625-4.312-.352-2.426C132 109 132 109 134 106l.938-3.375c1.364-4.653 2.68-7.526 6.5-10.562C144 91 144 91 146.125 91.594z" fill="#010101"/><path d="M113 70l1 3h2v2h2l1.688 3.625c1.433 2.896 2.944 5.311 5.063 7.75C127 89 127 89 127 91l2.875.313C133 92 133 92 135 95l-6 1v3l-2.375-.562c-2.596-.697-2.596-.697-4.625.563v-3l-8-3v2l2 1-4 2-2-5v3 2l-5-1c-.75-2.25-.75-2.25-1-5 1.938-2.312 1.938-2.312 4-4l2 1c2.195-.303 2.195-.303 4-2 1.196-5.21 1.303-8.124-1-13v-4z" fill="#4b3238"/><path d="M48 67c4.219.479 6.797 1.166 10 4l-1-4 3 1 1 6 4 1a176.79 176.79 0 0 1 1 7c-1 1-1 1-2.848 1.098L57 83l-.312 1.875C56 87 56 87 53 89l1-1.812c1.208-2.241 1.208-2.241 1-5.187l-2.875.563C49 83 49 83 47 82v3l5 1-2 2c-2-.125-2-.125-4-1-2.297-3.487-2.596-7.172-3.125-11.25l-.508-3.828L42 69c2.01 2.01 2.899 3.592 4.125 6.125l1.07 2.195L48 79v-1l-1-1c-.136-3.663-.165-6.506 1-10z" fill="#524f4e"/><path d="M60 157c1.245 2.491.777 3.411 0 6h3c-.875 5.75-.875 5.75-2 8l-3 2-.441 2.293c-.717 3.477-2.258 5.288-4.496 8.02l-2.152 2.676L49 188h-2v-3c0 4 0 4-1 6-3-2-3-2-3.684-3.734-.4-2.861-.41-5.627-.379-8.516l.027-3.266L42 173h2l1-5c1 3 1 3 1 4l1.813-.5C50 171 50 171 53 171c3.166-3.035 4.109-6.992 5.352-11.074C59 158 59 158 60 157z" fill="#583b43"/><path d="M113 113h5l1 5h2v6h-2v5h3v3l3 1 2-4c1.563 1.188 1.563 1.188 3 3-.312 2.688-.312 2.688-1 5h-2l1 2c2.025.652 2.025.652 4 1l-1 2-9-2-1 4v-3l-6 2c-1.521-3.042-1.374-6.28-1.562-9.625l-.131-2.141L113 126l-2 1 1-3 2.438-.375L117 123l1-2-6 1c-.074-3.343-.065-5.804 1-9z" fill="#26292e"/><path d="M48 37l-.437 5.813-.246 3.27C47 49 47 49 46 52l3-1v3l-5 1v4l5 2v-3c2.169.506 4 1 6 2 2.536 5.434 4.656 10.932 4 17h-1l-2-8-7-1c-1.528 3.057-1.232 5.63-1 9 1.359 2.401 1.359 2.401 3 4-3.434-1.385-4.7-2.654-6.25-6l-1.016-2.125C43 71 43 71 43 69h-2c-.334-6.791.311-13.233 1.313-19.937l.357-2.548.382-2.417.333-2.172C44.063 39.803 45.446 37 48 37z" fill="#664047"/><path d="M189 187v4c.552 3.038 1.215 4.322 3 7l-1 2-9.25.063-2.645.025-2.559.01-2.349.016C172 200 172 200 168 199v-10c7.75-1.125 7.75-1.125 10 0h5v-2c3.75-1.125 3.75-1.125 6 0z" fill="#552328"/><path d="M89 119l.25 2.875c.401 3.23.401 3.23 2.813 4.5L94 127c-1.806 4.761-4.897 6.049-9.375 8.074-4.412 1.871-7.77 3.177-12.625 2.926l-1-5-3 1c-.562-1.937-.562-1.937-1-4 1-1 1-1 3.285-1.098l2.777.035 2.785.027L78 129v-2l3-2 2-6c2.491-1.245 3.411-.777 6 0z" fill="#5b2129"/><path d="M140.363 33.406L146 38c-3 0-3 0-5-1-3-.25-3-.25-6 0l-2 2 5 1c-2.332 1.206-4.496 2.165-7 3l-1-4c-4.127 2.9-5.88 5.471-8 10-.981 1.019-1.977 2.024-3 3-3.097 9.292-1.22 19.402 3 28 1.229 2.138 2.508 4.029 4 6h-3c-7.033-11.641-9.78-22.608-6.875-36.125 1.472-5.451 3.738-9.957 7.875-13.875h2l-1-4c5.342-1.552 10.498-1.489 15.363 1.406z" fill="#7d878a"/><path d="M147 155h8v3h-2v2l-2 1v3h2l2-4 2 1-3 8h-3l-1-1c-1.423 3.823-2.24 6.913-2 11l1-5c2 2 2 2 2 5l4 2v2c-3 2-3 2-7 2-1.206-2.332-2.165-4.496-3-7h-5v-10l-3-1 2.813-.75c3.409-1.337 4.222-2.301 6.188-5.25h2l1-5-2-1z" fill="#70272e"/><path d="M126 100c1.671 2.962 2.327 5.371 2.625 8.75l.227 2.422L129 113h3l2 4c3.233-4.618 4.53-9.632 6-15h1c.068 3.392.113 6.491-.625 9.813-.541 4.603.556 8.715 1.625 13.188-2.565-2.565-2.54-4.477-3-8h-3v2h-4v2l7 2-1 5h-3l1 10h-2v-2h-2l.125-2.75c-.12-3.128-.516-4.636-2.125-7.25h2l-2-4-2 5h-4l1-14h3v-3l-5-2 1-2h2v-6z" fill="#565a61"/><path d="M148 86c4.366 1.455 6.445 4.251 9 8 2.345 5.011 3.252 9.461 3 15 .291 1.675.611 3.346 1 5h-3v-3l-1 2-7-1v-1l2.375.188L155 111l2-3-3.375-.312L150 107c-2.173-3.259-2.291-4.57-2.5-8.375-.219-3.967-.863-6.994-2.5-10.625l3-2z" fill="#44464a"/><path d="M162.063 151.125c2.925.871 4.09 1.514 5.938 3.875l-3 2-1 3 2.25-.25c3.532.321 4.516 1.603 6.75 4.25l-2 1-2-1-1 2v-2c-7.531 2.182-7.531 2.182-12.625 7.75L154 175h-2c-1.687-2.312-1.687-2.312-3-5l1-3 3 2 3-8-3 3h-2l-1-5 3 1v-2l-2-2h4v-2c2.432-2.526 3.513-3.02 7.063-2.875z" fill="#9b5563"/><path d="M167 172l3 1v2h2v3l-1.468 1.423c-1.946 2.003-1.946 3.055-2.044 5.807l-.107 2.432-.068 2.525-.104 2.561L168 199l4 1-4.312.125-2.426.07C163 200 163 200 160 198c-.66-1.953-.66-1.953-1.062-4.25-.713-3.709-1.658-7.187-2.937-10.75l1.813-.437c1.749-.45 3.474-.991 5.188-1.562v-3h2c1-2 1.494-3.831 2-6z" fill="#6e2b34"/><path d="M49 39h3v2h6l-.062 2.938C57.644 46.875 57.644 46.875 59 48v7l-4 1v2h-6v3l-6-1 1-5 5-1-1-2h-2l.938-5.937.527-3.34C48 40 48 40 49 39z" fill="#5d3239"/><path d="M56 80l1 2-3 6 4-3c1.619 2.572 2.044 3.677 1.625 6.75L59 94l-3-2v4 6c-3.978-.568-6.826-1.494-10-4-2.966-5.216-3.306-9.178-3-15h2l2 4 4-1-4-1v-3l2.813.125c3.346.146 3.346.146 6.188-2.125z" fill="#5d373e"/><path d="M179 157c4.787.29 7.176 2.608 10.547 5.723 1.256 1.387 1.256 1.387 2.453 1.277l2-1c3.347 6.025 7.1 13.065 5.52 20.156-1.092 2.704-1.851 4.509-4.52 5.844v-4l-3 1c-5.09-13.829-5.09-13.829-3-21l-2.187-1.496-2.812-1.941-2.812-1.934L179 158v-1z" fill="#885d67"/><path d="M130 37l2 1-1.059 1.504c-3.105 4.635-4.489 7.95-4.941 13.496l-1 1c.178 2.236.444 4.465.75 6.688l.484 3.699c.968 4.57 2.605 8.109 5.453 11.801C133 78 133 78 133 81c-2.519-.365-3.678-.583-5.266-2.637C125.67 74.062 124.511 70.888 125 66h-2l-2-6-1 3h-2v5l2 1-2 3c-1.143-3.43-1.204-6.199-1.25-9.812l-.078-3.645c.355-3.833 1.406-6.24 3.328-9.543h2l.625-2.625c1.75-4.296 3.969-6.265 7.375-9.375z" fill="#656968"/><path d="M95 146l4 4 1-2c2.567 3.85 1.833 5.586 1 10h-2v2l4 1-3 5 2.375-.562C105 165 105 165 107 166l-1-6 6 1-1 3 2 1-1 2h2l-1 3c-6.625 1.125-6.625 1.125-10 0l-1 5c-3-3.625-3-3.625-3-7l-2-1c0-3.273.299-5.847 1-9l-1.375 1.5C95 161 95 161 93 161l-1 3c.805-6.037 1.885-12.013 3-18z" fill="#4d4449"/><path d="M85.688 62.813l3.012.082L91 63l2 5-3 1 .188 3.313C90 76 90 76 88.938 77.938 85.988 79.555 83.291 79.186 80 79c-2.364-4.728-3.383-7.544-3-13 2.366-3.489 4.671-3.329 8.688-3.187z" fill="#5e5c53"/><path d="M61 186l3 4 1-3 3-1v2l-2 1v2l2-2h4c2.967 3.736 3.176 6.056 4 11H54l4-5 2 1v-2l-3-1c.313-2.375.313-2.375 1-5l3-2z" fill="#6a323c"/><path d="M149 157l-1 4h-2l-.75 1.813c-1.414 2.474-2.901 3.621-5.25 5.188l.563 2.188c.457 2.941.173 4.954-.562 7.813-4.472 1.118-8.421 1.443-13 1-2-2.5-2-2.5-3-5l2.875-.25c3.23-.401 3.23-.401 4.5-2.812L132 169h2l.75-2.25c1.995-4.389 4.535-6.569 8.875-8.5C147 157 147 157 149 157z" fill="#0f0e14"/><path d="M128 14c3.36 1.429 5.277 3.161 7.625 5.938l1.789 2.09C141 26.488 141 26.488 141 30h2c2.688 2.75 2.688 2.75 5 6-.187 2.375-.187 2.375-1 4l-2.625-2.312C138.224 32.638 132.8 31.447 125 31l1-3c-4.056.468-7.466.88-11 3l1-3c1.961-.879 1.961-.879 4.375-1.562 3.079-.888 4.898-1.62 7.625-3.437 1.938.313 1.938.313 4 1l2.25.563L136 25c-2.499-3.837-5.084-7.46-8-11z" fill="#454a4e"/><path d="M77 20c.813 2 .813 2 1 5-1.412 2.85-3.149 5.419-5 8-1.125-3.75-1.125-3.75 0-6l-6 1v2c-3.462 3-3.462 3-6 3l-1 3-6 2-2-3c-2.511 1.255-2.871 2.501-4 5l-2-4 2.75-4.312 1.547-2.426C52.003 26.996 53.658 25.573 56 24c-1.498 3.112-3.199 6.053-5 9l4.313-.937 2.426-.527c2.407-.534 2.407-.534 5.262-1.535l.25-2.25c.89-3.262 2.235-4.56 4.75-6.75l1 2 2.313-1.5C74 20 74 20 77 20z" fill="#997787"/><path d="M141 179c3.955 1.318 4.212 3.425 6 7h7c-2.75 6.875-2.75 6.875-5 8l-1 6h-6c-2.125-6.75-2.125-6.75-1-9h-2l-1-7h3v-5z" fill="#5a242a"/><path d="M110 12c1.938 1.5 1.938 1.5 3 3l-3 1c-.21 4.141-.21 4.141 1 8l-2.75-.562c-2.933-.395-4.514-.384-7.25.563-1-3-1-3 0-6h-4l2 6-1.875-1.062L95 22l-2 1c-.859-3.434-.976-5.617 0-9 11.407-2.571 11.407-2.571 17-2z" fill="#858c94"/><path d="M88 59c5.18 1.727 7.562 4.125 10 9 .349 3.371.256 5.974-.562 9.25C95.088 80.11 92.475 80.9 89 82c-3.437-.312-3.437-.312-6-1 3.75-3 3.75-3 6-3l-1-4h2v-5l2-1-1-6-4.312-.625-2.426-.352C81.713 60.785 81.713 60.785 79 63h-3v-3c3.698-1.849 7.956-1.336 12-1z" fill="#101218"/><path d="M77 172l3 1h3l2 1-2 3h2v2l-3 2 4-1-1 3-5 1-1 3c-2.937 1.25-2.937 1.25-6 2l-2-1 .625-2.312c.709-2.906.709-2.906-1.625-5.687l-5 2 3-7h3l2 4 4-7z" fill="#734d5d"/><path d="M199 181h1v19h-9l-1-4c-1.479-1.73-1.479-1.73-3-3h2l-2-5c1.188-1.5 1.188-1.5 3-3 2.688-.187 2.688-.187 5 0l1 3 3-7z" fill="#111217"/><path d="M187.309 155.977c2.455 1.664 4.384 3.123 5.363 5.992.435 2.692.39 5.31.328 8.031l-.687-1.687c-1.68-2.959-3.854-4.974-6.312-7.312l-1.625-1.812c-1.451-1.514-1.451-1.514-4.375-1.187l3 1.563 3 2.438c.375 3.75.375 3.75 0 7l-1-2-2.687-.312c-4.391-.911-6.015-2.683-9.312-5.687l-3-2v-3c5.406-1.802 11.98-2.277 17.309-.023z" fill="#b3a3b1"/><path d="M136 138c2.218 1.109 3.477 2.042 5 4-.312 2.188-.312 2.188-1 4h-2c.819 2.164.819 2.164 2.938 2.875 2.483 1.354 3.031 2.547 4.063 5.125-3.315 2.029-5.432 2.127-9.25 1.625l-2.703-.336L131 155c-.778-3.406-1.1-6.508-1-10h2l1-6 3-1z" fill="#7d2a33"/><path d="M138 50c1.813 1.563 1.813 1.563 3 3l-1 2-3-2c-2.583.083-2.583.083-5 1-2.675 4.013-2.587 7.284-2 12 1.318 2.519 1.318 2.519 3 4l-.562-3.312C132 63 132 63 133 60h2l.313 3.313c.697 3.736 1.004 4.354 3.688 6.688v3l2 1c-2 2-2 2-4.875 2.438C133 76 133 76 130.75 73.75c-3.827-6.014-4.617-10.604-3.75-17.75 2.3-5.599 5.1-7.727 11-6z" fill="#645f51"/><path d="M110 29h3l1 2c3.273 0 5.847-.299 9-1l-1 4-5 1 1 3-4 7-2 4-5-1-1-3 2-3 .5-2c.5-2 .5-2 2.5-5l-5-1 4-5z" fill="#35393e"/><path d="M123 183l2 1c1.334 4.445 2.292 8.332 2 13l-4 1v2h-16c2-2 2-2 4.625-2.125L114 198l2-6h2l-2-5 3 1c2.167-.875 2.167-.875 4-2v-3z" fill="#4b373d"/><path d="M69 172l1 4-3 1c-.733 2.015-.733 2.015-1 4l5-2c1.188 2.125 1.188 2.125 2 5-1.268 3.805-2.077 5.528-5.687 7.375L65 192l1-4h-1l-1 2-2-1 1-9-3 3-2-5 4-5 4 2 3-3z" fill="#6f424c"/><path d="M141 143l5 3 1-2 4.375 1.375 2.461.773C156 147 156 147 158 149h-8v2l4 1-2 1v2l-3.75 2.063-2.109 1.16c-2.502.909-3.674.661-6.141-.223l4-5c-2.007-3.011-2.839-3.63-6-5 .375-1.937.375-1.937 1-4l2-1z" fill="#8b5c64"/><path d="M85 149l1 4-3.43.184-4.445.254-2.262.119c-4.063.159-4.063.159-7.863 1.443l1 4h-2v-2h-4l-1 2 5 1c0 3 0 3-2 6l2 1c-.625 1.938-.625 1.938-2 4l-6 1-1 2v-3h3l2-8-4 1c.992-8.002.992-8.002 3.469-10.453 1.465-.926 2.995-1.745 4.531-2.547v-1l3.176.289 4.137.336 2.092.195c3.852.298 5.284.387 8.596-1.82z" fill="#51555b"/><path d="M113 130h1l1 13h3c1.07 2.764 1.163 4.539.176 7.336L115 157l2 1-4 1v-2l-4 1c-1.22-3.66-.636-5.23.313-8.937 1.548-6.318 2.703-12.635 3.688-19.062z" fill="#222429"/><path d="M158 118h2c3.734 7.995 3.734 7.995 4.875 12.313 1.413 4.63 3.598 8.661 5.883 12.918C172 146 172 146 172 150l3.75.813c3.353.826 5.661 1.814 8.25 4.188-4.008 1.08-6.704.859-10.687-.25l-2.887-.766C168 153 168 153 166 150l3-1c-.514-4.424-1.614-7.265-4-11v-2h-2c-1.508-1.75-1.508-1.75-3.125-4l-1.633-2.25L157 128l4 1-3-11z" fill="#585257"/><path d="M115 11c8.205.739 13.611 2.578 19 9 1.5 2.938 1.5 2.938 2 5l-1.898-.254-2.477-.309-2.461-.316c-2.213-.303-2.213-.303-4.164.879l-3-2-.312-3.437L121 16c-2.934-2.01-2.934-2.01-6-3v-2z" fill="#e9e9eb"/><path d="M60 122h2v2l3-1v3l3.938-.375 2.215-.211L73 125l1-2v3l4 3-10 1 1 3h2c.934 3.01 1.044 3.867 0 7l9 1v1c-9.691.764-9.691.764-14-1.75-2.945-4.786-3.851-9.8-5-15.25l-1-3z" fill="#64333c"/><path d="M84 56v2l3-2c2.188.375 2.188.375 4 1v3l-2.703-.07-3.547-.055-3.516-.07c-3.108.188-4.605.664-7.234 2.195h-2c-2.334 2.781-2.334 2.781-1.625 5.688L71 70c-4.752-.432-6.92-1.328-10-5l2.375-1.875C65.968 61.101 65.968 61.101 68 59h4v-2c3.981-1.327 7.85-1.069 12-1z" fill="#572a30"/><path d="M154 186h3c2.261 3.392 2.713 6.004 3.438 9.941.435 2.262.435 2.262 2.563 4.059h-15c0-6 0-6 4-10 .697-1.317 1.37-2.649 2-4z" fill="#612832"/><path d="M71 188h8l-1 3c1.573 1.573 3.328 1.308 5.5 1.5 4.389.389 4.389.389 5.5 1.5v6H76l-2-4-1.062-2c-.933-1.989-1.478-3.857-1.937-6z" fill="#8d4f5d"/><path d="M87 107l4 2-2 1v3l4 1-1.562 1.625c-1.764 2.38-1.764 2.38-1.125 5.625L91 124c4.03-.553 8.02-1.156 12-2l-2 4 4 4-1 2-7-2v-2l-2.312-.375C92 127 92 127 89 125l-1-6-3-2 1-4-5 2v-2c2.375-1.687 2.375-1.687 5-3l2 1-1-4z" fill="#564a50"/><path d="M130 14c10.074 3.259 16.475 12.73 21.465 21.605 1.811 3.848 3.095 7.058 2.535 11.395l-3 1 2-5h-3c-3-6.75-3-6.75-3-9l-4-2v-2h-2l-.883-1.723C137.255 22.887 134.119 18.502 130 14z" fill="#cccdd0"/><path d="M93 148c1.498 3.882.431 6.434-.937 10.25l-1.152 3.266L90 164l-2-1 1-5h-2l-.437 1.875C86 162 86 162 85 164c-2.875.125-2.875.125-6 0-2-2-2-2-2.125-4.625L77 157l2.23-.699c5.815-1.943 9.89-3.485 13.77-8.301z" fill="#261217"/><path d="M138 48c2.98 2.529 5.255 5.509 7 9 1.039 13.287 1.039 13.287-1.562 17.813-3.149 2.826-5.252 3.111-9.437 3.188-4.128-1.376-4.882-3.242-7-7-2.242-5.676-2.399-11.076-1-17 2.824-5.893 5.477-6.87 12-6zm-7.625 3.375c-3.809 4.21-3.76 7.18-3.738 12.719.595 4.756 2.994 8.537 6.363 11.906 3.62.402 5.359.485 8.313-1.75 3.189-4.252 3.375-9.041 2.688-14.25-1.57-4.564-3.56-8.709-8-11-3.219-.335-3.219-.335-5.625 2.375z" fill="#e5df97"/><path d="M129 119c1.991 2.986 2.941 5.597 4 9h-2l2 2-1 6h2v2h2l-1 2-2-1 1 4-2-1v-2h-5v-3l2-1-1-3-1-3-2 4-4-2 1-3h-3v-2c3.378-.845 5.675-1.108 9 0l1-8z" fill="#1f2227"/><path d="M100 79c2.025 1.933 3.421 3.632 5 6h2l-1-1h-2l1-3c2.717.367 4.611.727 6.875 2.313C113 85 113 85 112.688 87.188L112 89h-2l-1 2-1-2-4 1v-2l-3.812 1.063c-3.135.874-3.97 1.01-7.187-.062l4-8h2l1-2z" fill="#5f1f26"/><path d="M57 83c4.473.789 7.092 1.541 9.938 5.188C69.254 91.792 69.437 94.722 69 99h-5v-3l-1 3h-2v-3h-2l.125-3.125C59.004 89.132 58.351 86.463 57 83z" fill="#0f0f14"/><path d="M123 151l1 2 5 1 3 2v3l-2.375.75c-2.948 1.404-3.527 2.257-4.625 5.25v-3l-6 2v-12l4-1z" fill="#462a2f"/><path d="M140 178l-1.5 2.438c-2.248 5.339-2.296 10.124-.5 15.625l1 1.938-3-1c-1.687-3.562-1.687-3.562-3-7h2l-2-5v12c-2.762-2.762-2.579-5.207-3-9l-3 1-1-6 3 1v-3h2v-2c5.625-2.125 5.625-2.125 9-1z" fill="#272a2f"/><path d="M109 21c3.423 1.141 4.148 2.001 6 5v3l-2.75.813c-2.965 1.083-4.867 2.171-7.25 4.188-3.743-1.449-3.743-1.449-4.875-3.875-.158-2.678.395-3.904 1.875-6.125 3-2 3-2 5.688-1.625L110 23l-1-2z" fill="#9b6b7b"/><path d="M90 15l4 2-1 3c.24 3.106.24 3.106 1 6l2 1v5h-2l-1-2-3-1v-2l-2.437-.375L85 26l-1-2 1-2-6-1c3.435-2.29 4.985-2.178 9-2l2-4z" fill="#957c89"/><path d="M91 180h5l1 3-2 3 1 3 1 5 1 4h-2v-2h-4v-2l-1 1-1-4-4-1c0-4 0-4 1.938-6.125L90 182l1-2z" fill="#4b4f54"/><path d="M52 34c2 2 2 2 2 5l12-1 3 5-1 2-8-1v12l-3-1h2v-7l-2-1 1-6h-8l-1-5 3-2z" fill="#783a41"/><path d="M97 18h4l-.062 2.188c.061 2.74.513 5.136 1.063 7.813v4l3 2-2 1-1 3-6-2-.437-2.812C95.036 30.201 94.355 27.711 93 25l2-4 3 2-1-5z" fill="#836b76"/><path d="M90 34c1.938.313 1.938.313 4 1l1 3-1.875.25c-2.309.563-2.309.563-3.375 2.813L89 43l6 1-1 5c-8.016-1.966-8.016-1.966-10-5v-4l-3-1 1-4v2l4 1v-2h4v-2z" fill="#996f7d"/><path d="M138 181h3v3h-3v2l2 1-1 4h2l1 9h-7c-3.616-5.575-3.307-10.606-3-17 1.5 1.25 1.5 1.25 3 3v8c1.334 2.009 1.334 2.009 3 3l-.984-1.715c-1.105-2.486-1.284-4.145-1.266-6.848l-.016-2.316C136 184 136 184 138 181z" fill="#090c0e"/><path d="M148 40l2 1v2h3l-1 4h2l1-3c2.037 4.074 2.026 6.589 1 11h-2l1 3c1.187 4.086 1.149 7.763 1 12h-2l-.332-2.309C151.924 56.285 151.924 56.285 147 46c.375-3.187.375-3.187 1-6z" fill="#606265"/><path d="M171 157v2l6 4 2.125 1.688c1.973 1.381 3.521 1.892 5.875 2.313l1-5 4 3-2 6-7-1-1-3-5-1-1 2-.812-1.812c-1.223-2.254-2.167-3.616-4.187-5.187-2.606-.722-2.606-.722-5-1v-3c2.667-1.333 4.167-.671 7 0z" fill="#ad8c9a"/><path d="M60 44c7.442-.488 7.442-.488 10 1.75C71 48 71 48 71 52l-2.312.875C65.85 53.963 65.85 53.963 63 56l2 1-5-1V44z" fill="#712a34"/><path d="M97 179l1 2c2.527.656 2.527.656 5 1l-2 3h-2v2l6.438-2.312 3.621-1.301L112 182l1-3 3 1-2 1c-.656 2.527-.656 2.527-1 5h2l-1 2c-3.984 1.172-7.874 1.081-12 1v2h-6l2-9h-2l1-3z" fill="#833b41"/><path d="M59 20l2 1v2l6-2c-2.935 8.236-2.935 8.236-6.875 11.063-3.223.967-5.78 1.176-9.125.938 1.59-5.089 4.745-8.875 8-13z" fill="#acb3c8"/><path d="M158 187c4.287-.108 6.759-.056 10 3 .431 3.041.288 5.949 0 9l4 1-4.312.125-2.426.07C163 200 163 200 160 198c-.73-2.602-.73-2.602-1.187-5.625l-.48-3.039L158 187z" fill="#662029"/><path d="M126 100c1.671 2.962 2.327 5.371 2.625 8.75l.227 2.422L129 113h3l-2.562 9.25-.816 2.703L128 127h-4l1-14h3v-3l-5-2 1-2h2v-6z" fill="#69767f"/><path d="M113 70l1 3h2v2h2l1.688 3.625c1.428 2.893 2.926 5.272 5.063 7.688C127 89 127 89 127 92c-9.444-2.099-9.444-2.099-12-6-.043-2.333-.04-4.667 0-7a103.73 103.73 0 0 0-2-5v-4z" fill="#3e3c3e"/><path d="M140.363 33.406L146 38c-3 0-3 0-5-1l-5.812-.187-3.145-.043c-3.226.244-5.24.612-8.043 2.23-1.886 2.593-1.886 2.593-3.312 5.625l-1.551 3.039L118 50c-1-3-1-3-.145-5.191l1.332-2.371 1.293-2.379c1.659-2.248 2.952-3.041 5.52-4.059l-1-4c5.342-1.552 10.498-1.489 15.363 1.406z" fill="#b8bbba"/><path d="M118 16l3 1 2 6 2 1v2l-10 3-1.812-3.312C111.71 23.089 110.302 20.957 108 19h2v-2h3v2h2v2l2 1-1-3 2-3z" fill="#9e7a8a"/><path d="M60 157c1.245 2.491.777 3.411 0 6h3c-.875 5.75-.875 5.75-2 8l-3 2-.375 2.25c-.888 3.907-2.949 5.799-5.625 8.75-1.274-2.547-.802-3.428-.062-6.125l.59-2.195L53 174h2l.332-2.449.48-3.238.457-3.199c.754-3.215 1.889-5.394 3.73-8.113z" fill="#100f12"/><path d="M118 121v5l-2-2-2 1c-.396 2.053-.396 2.053-.5 4.5-.396 4.992-1.323 9.635-2.5 14.5h-1l-1-5h-2v-3l3-2-2-1-.187-4.875-.105-2.742L108 123c3.644-2.429 5.712-2.162 10-2z" fill="#373b40"/><path d="M97 98c1.587 7.917 1.587 7.917-.625 12-2.559 2.155-4.077 2.725-7.375 3l.625-1.875L90 109l-2-2c.095-3.598.772-4.778 3.375-7.312C94 98 94 98 97 98z" fill="#0c0e11"/><path d="M140 41c2.881 0 4.532.541 6.598 2.566 6.411 8.05 7.247 16.403 6.402 26.434-1.15 5.965-3.043 10.224-8 14-2.812.813-2.812.813-5 1a203.21 203.21 0 0 1 5.563-5.375c5.074-5.464 4.807-10.947 4.688-18.109-.643-9.037-3.957-14.222-10.25-20.516z" fill="#d2cf92"/><path d="M97 84l-4 5 3 1-2 2-2 6h-2v-2l-4-1v3l3 1-1 2 2 1-3 3-3-1 .563-1.875c.674-2.167.674-2.167-.562-4.125.25-2 .25-2 1-4l3-2c.25-3.084.25-3.084 0-6 5.625-3.125 5.625-3.125 9-2z" fill="#57252b"/><path d="M84.813 183.25L87 184v6l3 1 1 2 3-1v2h-2v2l-3 1-2-3c-1.897-.542-1.897-.542-4-.625-3.843-.297-3.843-.297-6-1.375l2-4-2-1c4.308-4.062 4.308-4.062 7.813-3.75z" fill="#8c6573"/><path d="M64 95l1 3 3 1v2l1.938.313L72 102c1.097 3.29.8 4.713 0 8l-8 1c-1.686-3.57-2.036-5.244-1-9l-2-2 3-5z" fill="#834c56"/><path d="M77 99v3l4 1v8h-7l-.875-3.437L72 104l-2-1v-2h-2v-2c3.378-.845 5.675-1.108 9 0z" fill="#69242b"/><path d="M93 111l3 2 4-2 1 3h-4c1.119 3.726 1.119 3.726 4 6v3c-3.435.625-6.491 1-10 1l-2-7 3-1 1-5z" fill="#202126"/><path d="M114 46h2l-.016 1.693-.047 7.744-.025 2.662c-.021 5.718.355 11.228 1.088 16.9l-1-2h-2c-1.187-3.56-1.097-6.438-1.062-10.187l.027-3.855L113 56h-2l-1-2h-2v-3h-2v-3l7 1 1-3z" fill="#54595f"/><path d="M87 27h3v2l4 1v2l2 1 1 3 2-1v2l2 1-1.934.332-2.504.48-2.496.457L92 40l-1 3h-2c1.149-3.446 2.191-3.916 5-6v-2l-2.812.688C88 36 88 36 86.125 34.563L85 33l1-2-3-1 4-1v-2z" fill="#8e5c6a"/><path d="M95 146l4 4 1-2c2.567 3.85 1.833 5.586 1 10h-2v2l4 1-2 3-4-1 1-5-1.375 1.5C95 161 95 161 93 161l-1 3c.805-6.037 1.885-12.013 3-18z" fill="#181a20"/><path d="M175 170c3.871.574 6.082 2.487 9 5l5-3 2 13h-3l-.625-2.375c-1.176-2.91-1.176-2.91-4.375-3.937-2.812-.762-2.812-.762-5-.687l-1 2-1-5h3l-2-1.375-2-1.625v-2z" fill="#78242b"/><path d="M115 179h2c1.547 2.457 2.045 3.632 1.688 6.563-1.808 6.411-1.808 6.411-4.687 8.438-2.699-.145-2.699-.145-5.687-.812l-3.012-.645L103 192l-1-3 12-2-1-1 2-7z" fill="#99626f"/><path d="M49 39h3v2h6c.357 5.35.357 5.35-1.062 7.938-3.09 1.694-5.61.802-8.937.063l-1-1 .375-4 .273-2.187C48 40 48 40 49 39z" fill="#752a35"/><path d="M92 139h2l2 4h8v2l1.938.688C108 147 108 147 108.75 149.625L109 152l-3-1v-3h-4l-1 2-5-1-1 5-2-2c.375-2.125.375-2.125 1-4h-2v-9z" fill="#53585e"/><path d="M99 103h3v3l1.938.563C106 108 106 108 107 111.375c0 3.625 0 3.625-1.625 6.125C103 119 103 119 100.25 118.75L98 118l-1-4h4l-2-4h2l-2-7z" fill="#3a3e43"/><path d="M58 175l2 1-.562 1.875c-.674 2.167-.674 2.167.563 4.125l4-4c-.264 5.363-.264 5.363-1 8-2.5 1.875-2.5 1.875-5 3l-1 2h-2l-1 3-2-2c0-3 0-3 1.563-6.062L55 183l-1-2 4-6z" fill="#795a62"/><path d="M145.188 134.813c2.985 1.956 3.631 4.937 4.813 8.188l-3 1 1 3-7-1v-3c-1.938-2.188-1.938-2.188-4-4 5.247-3.935 5.247-3.935 8.188-4.187z" fill="#d7ccd4"/><path d="M106 125h2l.438 2.813c.484 3.195.484 3.195 1.563 6.188l-1.937.813c-2.394 1.074-2.394 1.074-3.062 4.188l-6 1c-1.231-5.415-1.231-5.415-.062-8.375L100 130l4 1v-2l2-1v-3z" fill="#2b2b2f"/><path d="M76 66h1l.367 1.863.508 2.449.492 2.426c.578 2.515.578 2.515 2.633 5.262 2.563.73 2.563.73 5 1v2c4.389-.665 7.981-2.188 12-4-.625 1.875-.625 1.875-2 4-4.705 2.295-9.854 2.902-15 2-3.542-1.82-5.619-4.221-7.375-7.812L73 73l2-1c.658-3.029.658-3.029 1-6z" fill="#47353b"/><path d="M101 7l2 2-3 2-1 2-1.562-.687C93.807 11.847 91.305 13.551 88 15c-2.937.188-2.937.188-5 0l1-4 7-2h-6c2.953-1.969 4.058-2.34 7.438-2.687l2.309-.262c2.331-.053 4.057.18 6.254.949z" fill="#c3cbdd"/><path d="M67 113l2 1 .375 2.938c.274 3.178.274 3.178 2.688 4.438L74 122c-1 3-1 3-4 5h-5l-1-3h-2v-2l-3-1v-3h2l1-3 1 6 2-1-1-6c2 3 2 3 2 5h2l-1-6z" fill="#44272c"/><path d="M113 113h5l1 5h2v6h-2v11h-3c-.074-3.343-.065-5.804 1-9l1-5-6 1c-.074-3.343-.065-5.804 1-9z" fill="#63686c"/><path d="M147 155h8v3h-2v2l-2 1v3h2l2-4 2 1-3 8h-8l1.125-1.75c1.167-2.25 1.167-2.25 0-4.5L146 161h2l1-5-2-1z" fill="#6c3941"/><path d="M101.188 43.063C103 44 103 44 104 47l3 1-1 3h2v3h-5v-3l-5-2v2h2v3c-1.937-.687-1.937-.687-4-2-1-2.375-1-2.375-1-5 2.865-4.032 2.865-4.032 6.188-3.937z" fill="#69252a"/><path d="M77 20c.813 2 .813 2 1 5-1.412 2.85-3.149 5.419-5 8-1.125-3.75-1.125-3.75 0-6l-8 2 1-7 2-1 1 2 2.313-1.5C74 20 74 20 77 20z" fill="#967a87"/><path d="M162.063 151.125c2.925.871 4.09 1.514 5.938 3.875-2.906 1.937-5.213 3.055-8.625 3.938-3.654 1.15-4.397 1.939-6.375 5.063h-2l-1-5 3 1v-2l-2-2h4v-2c2.432-2.526 3.513-3.02 7.063-2.875z" fill="#705b66"/><path d="M92 148v3c-3.436 3.008-7.537 5.037-11.937 6.188L77 158l-1 2h-3l-.25 2.875C72 166 72 166 69.938 167.375L68 168c1.196-5.083 2.546-7.97 6-12v-2l2.414-.297c6.213-.877 10.724-1.651 15.586-5.703z" fill="#9b9aa9"/><path d="M109 67h3c2.106 5.528 3.379 10.07 3 16h-2v-2h-2c-2.61-2.848-4.427-5.131-5-9h2l1-5z" fill="#63222a"/><path d="M156 52c2.53 3.776 2.102 7.417 1.75 11.75l-.154 2.16c-.39 4.901-1.132 9.407-2.596 14.09l-5-1 3-17h1v8h2l-1-3c-.223-2.059-.407-4.122-.562-6.187l-.254-3.293L154 55h2v-3z" fill="#707777"/><path d="M127 23c2.625.375 2.625.375 5 1l-1 4h5l2 4-13-1 1-3c-4.056.468-7.466.88-11 3l1-3c1.996-.879 1.996-.879 4.438-1.562 3.661-1.023 3.661-1.023 6.563-3.437z" fill="#3f434a"/><path d="M57 101h1v5l3 1-2 2v3l1.75-.625C63 111 63 111 65.188 111.563 67 113 67 113 67.75 116.125L68 119h-2l-1-1v2l2 1c-1.875.625-1.875.625-4 1l-2-2h2l-1-3-3 1c-1.735-3.052-2.367-5.576-2.687-9.062l-.262-2.598C56 104 56 104 57 101z" fill="#63585d"/><path d="M109 92c1.563 1.188 1.563 1.188 3 3 .063 2.375.063 2.375-1 5-1.881 1.907-3.838 3.39-6 5l1 2-4-1c-1.25-7.625-1.25-7.625 1-11l3 1h3l-1-3 1-1z" fill="#0d0f14"/><path d="M75 164c5.75 1.625 5.75 1.625 8 5l1-2v2l2.875-.125C90 169 90 169 92 171c-3.674 1.176-7.169 1.074-11 1l-1-3-5 4c-2-1-2-1-3-4 1.438-2.687 1.438-2.687 3-5z" fill="#796074"/><path d="M138 184h6c2.066 5.713 2.001 10.037 1 16h-3c-2.125-6.75-2.125-6.75-1-9h-2l-1-7z" fill="#48282d"/><path d="M69 153h7l-2 1 1 3-3 1-2 7-3 2-2-1 2-5-5-2 1-3 4 1v2h2l-.562-1.875C68 155 68 155 69 153z" fill="#82616d"/><path d="M133 36c6.415-.45 9.732.237 15 4l1 3c-3 1-3 1-6 0l-2 1c-6.611-1.417-6.611-1.417-9-5l1-3z" fill="#737a7c"/><path d="M97 131h2l-1 7 2 1-2 1h7c-1 3-1 3-3 4h-6l-.875-2.437c-.858-2.695-.858-2.695-3.125-3.562l-1-4 1.875-.375c2.316-.497 2.316-.497 4.125-2.625z" fill="#3c3d41"/><path d="M78.125 111.938l2.758.027L83 112l-2 1h3 3v4l-7 2v-6h-3l1 7h-6l-1-7c2.525-1.262 4.312-1.099 7.125-1.062z" fill="#272629"/><path d="M134 98l3 1-1.375 3.625c-1.289 3.434-2.491 6.886-3.625 10.375h-3l-1-4.25-.562-2.391C127 104 127 104 127 100l2.375.125c2.786.162 2.786.162 4.625-2.125z" fill="#2c2e33"/><path d="M93 172l3 1-1 1 2.875.875C101 176 101 176 103 178c-5.279 2.084-10.395 2.579-16 3 .846-4.231 3.025-6.025 6-9z" fill="#6b3a43"/><path d="M182 191c8.561 4.122 8.561 4.122 10 7l-1 2h-12c0-2 0-2 1.5-3.625L182 195h-2l2-4z" fill="#2a2d32"/><path d="M52 184c0 3.606-.817 4.413-3 7.188l-1.687 2.168L46 195l3-1-1 6h-9l1.938-2.125c2.226-3.103 2.713-5.121 3.063-8.875h2l-1-4h2v3l5-4z" fill="#744f59"/><path d="M143 171c1 3 1 3 0 6h4l1 2 1-5c2 2 2 2 2 5l4 2v2c-3 2-3 2-7 2-1.206-2.332-2.165-4.496-3-7h-5c-.187-2.375-.187-2.375 0-5l3-2z" fill="#612127"/><path d="M91 63c1.938.5 1.938.5 4 2 1.069 4.347 1.457 6.738-.062 10.938C92.427 78.61 90.589 78.761 87 79l2-1-1-4h2v-5l2-1-1-5z" fill="#3b3b3e"/><path d="M136.688 51.938C139 53 139 53 140.313 55.063L141 57l-7 2v-3l-3 1 .938 5.313.527 2.988c.493 2.781.493 2.781 1.535 5.699-3-1-3-1-4.16-2.785-1.421-3.747-1.525-7.279-.84-11.215 2.359-3.37 3.487-4.965 7.688-5.062z" fill="#dbd79e"/><path d="M130 145h2l3 3 3 1v3l5 1-2 3-10-1c-.778-3.406-1.1-6.508-1-10z" fill="#68232c"/><path d="M89 135h3c.908 4.945 1.227 9.091 0 14-1.875 2-1.875 2-4 3l-3-1 1.5-3c1.805-4.133 1.654-7.534 1.5-12l1-1z" fill="#444549"/><path d="M97 79v3c-6.75 4-6.75 4-9 4v2l-7.25-.875-2.066-.238C75.093 86.434 72.107 85.906 69 84l1-3a48.6 48.6 0 0 1 6.75 2.063c6.95 2.005 11.486 1.294 17.684-2.09 1.549-.88 1.549-.88 2.566-1.973z" fill="#84505b"/><path d="M88 17v2l-6 1 3 2v2l-8-1v-3l-9 4 1-5 2-1v2l1.438-1.437C77.163 15.681 82.741 15.422 88 17z" fill="#a596a5"/><path d="M70 189h2c2.616 3.558 3.494 6.645 4 11-7.75.125-7.75.125-10-1l1.438-4.437.809-2.496C69 190 69 190 70 189z" fill="#8a2c36"/><path d="M126 129l4 3-1 5h-2l1 2c2.025.652 2.025.652 4 1l-1 2c-3.558-.61-6.683-1.578-10-3l1-6h3l1-4z" fill="#646971"/><path d="M73 27c-.625 3.313-.625 3.313-2 7-3.674 2.476-5.537 3-10 3v-4c3.214-3 3.214-3 6-3v-2c2.076-.553 3.844-1 6-1z" fill="#946b79"/><path d="M98 179l6.152.879L106 180l1-1h6c-.16 1.859-.16 1.859-1 4-2.434 1.266-2.434 1.266-5.437 2.25l-2.996 1.016C101 187 101 187 99 187v-2l3-2-4-2v-2z" fill="#761b21"/><path d="M47 70l2 2c2.603-.32 2.603-.32 5-1 1.429 2.354 2.087 3.48 1.625 6.25L55 79c-2.312.688-2.312.688-5 1-1.812-1-1.812-1-3-3-.187-3.687-.187-3.687 0-7z" fill="#a8a281"/><path d="M98 49l5 2v3l2.938.75L109 56c.875 2.125.875 2.125 1 4l-2-1v-2l-4-1 .656 1.645.844 2.168.844 2.145C107 64 107 64 107 67h-5l1.188-1.687c1.141-2.379 1.141-2.379-.375-4.812L98 54h2v-3h-2v-2z" fill="#81424c"/><path d="M90 52c5.87 1.198 10.116 3.312 14 8 .938 3.375.938 3.375 1 6-3.846-1.567-6.124-4.056-9-7l-3.312-2.687L90 54v-2z" fill="#986875"/><path d="M149 91c3 1 3 1 4.387 3.109l1.301 2.641 1.324 2.609c1.03 2.751 1.182 4.731.988 7.641-3.653-1.25-4.781-1.671-7-5v-7c-.429-2.31-.429-2.31-1-4z" fill="#020202"/><path d="M43 85h1v5l7 1-3 1c1.098 2.993 1.677 3.846 4.625 5.25L55 98v4c-4.42-1.206-7.114-2.393-10-6-1.977-3.756-2.196-6.788-2-11z" fill="#6a4c51"/><path d="M71 48l8 2v-2h8c0 3 0 3-1.5 4.75-3.653 1.827-6.628 1.305-10.5.25-2.5-1.437-2.5-1.437-4-3v-2z" fill="#803d47"/><path d="M42 69c2.046 2.046 2.696 3.444 3.813 6.063C47.365 78.46 47.365 78.46 50.75 80H53v3l-6-1v3l5 1-2 2c-2-.125-2-.125-4-1-2.297-3.487-2.596-7.172-3.125-11.25l-.508-3.828L42 69z" fill="#5c5c62"/><path d="M83.313 173.25L85 174l-2 3h2v2l-1.937.875c-2.215.953-2.215.953-3.062 3.125l-6-1c1.387-4.54 3.942-9.331 9.313-8.75z" fill="#826171"/><path d="M101 69l3 1-.687 1.625c-.57 2.58-.57 2.58 1.25 5.375 1.438 3 1.438 3 .625 5.375L104 84l4-2-1 4h-4l-2-5-3 2c.715-4.764 1.795-9.342 3-14z" fill="#702d36"/><path d="M47.375 62.813C50 63 50 63 53 65v3l-1.937.438C49.025 68.81 49.025 68.81 48 70c-.397 4.968-.397 4.968 1.5 9.438L51 81c-2.822-1.035-3.834-1.699-5.312-4.375-.715-2.731-.653-4.017.313-6.625h-2v-6c1-1 1-1 3.375-1.187z" fill="#3b3c40"/><path d="M115 11l11 2-1 4 2 7-2 1-3-2-.312-3.437L121 16c-2.934-2.01-2.934-2.01-6-3v-2z" fill="#cfbcc6"/><path d="M174 157c2.867.573 3.861.861 6 3l6 2v7l-1-2-2.875-.312C179 166 179 166 177.25 163.5L176 161l-2-1v-3z" fill="#c4b4c4"/><path d="M121 110l4 1 .125 5.75.07 3.234c-.19 2.94-.669 4.539-2.195 7.016h-4v-3h2v-10h2l-2-4z" fill="#3f454a"/><path d="M123 183l2 1c.633 2.285.633 2.285 1.125 5.063l.508 2.785L127 194l-3 1v-2l-2.875-.187L118 192c-1.375-2.562-1.375-2.562-2-5l3 1c2.167-.875 2.167-.875 4-2v-3z" fill="#59242a"/><path d="M70 179l3 3c-1.354 6.523-1.354 6.523-4.625 8.938L66 192l-1-3 3-1h-3l-1 2-2-1v-3l6-1v-3l-2-1 4-2z" fill="#714c53"/><path d="M135 128c3.785.541 5.592 2.076 8 5v3c-2.647 1.461-3.894 2-7 2-1.607-3.215-1.057-6.436-1-10z" fill="#462b30"/><path d="M133 60h2l.313 3.313c.697 3.736 1.004 4.354 3.688 6.688v3l2 1c-1 1-1 1-4.062 1.063L134 75l-1-2h2l-1.5-2.062c-1.814-3.553-1.803-5.998-1.5-9.937l1-1z" fill="#59564d"/><path d="M116 53h1l.078 3.113C117.485 67.277 119.085 76.862 126 86h-3c-5.87-9.716-8.659-18.564-8-30l1-3z" fill="#d5d1be"/><path d="M123 173l-1 3v-2h-2v3l3 1-2 6-4-2v-3l-3-1v-2h2v-3c3.133-1.044 3.99-.934 7 0z" fill="#1f2226"/><path d="M71.563 128.938L75 129c1.429 2.354 2.087 3.48 1.625 6.25L76 137l-4 1-1-5-3 1-1-4c1-1 1-1 4.563-1.062z" fill="#6b242d"/><path d="M142 125h3v2l3 1c1.168 2.723 1.168 2.723 2.188 6.063l1.043 3.348.77 2.59c-2 0-2 0-4-1.937L146 136l-2-1c-1.445-3.613-2-6.067-2-10z" fill="#67454b"/><path d="M69 73c1.746 2.619 2.387 4.038 3 7h3l1-2c3.875 2.75 3.875 2.75 5 5l12-1c-2.787 2.787-4.721 2.976-8.625 3.313C79.45 85.258 75.164 83.583 71 81c-2.152-3.228-2.201-4.284-2-8z" fill="#6d3139"/><path d="M158 118h2c2.461 5.268 4.484 10.37 6 16 .642 1.676 1.299 3.348 2 5l-3-1v-2h-2c-1.508-1.75-1.508-1.75-3.125-4l-1.633-2.25L157 128l4 1-3-11z" fill="#505357"/><path d="M71 166l2 3-4 4h-2l-1 3-1.75-1.062c-2.608-1.087-3.644-.868-6.25.063l1-3 6-1 1-4 5-1z" fill="#827a84"/><path d="M72 105l2 1v5l1.875-.625L78 110l2 2-8.25.563-2.355.17-2.285.146-2.095.143c-2.151-.023-3.955-.422-6.015-1.022l-1-5 6 1v3l8-1v-5z" fill="#72353f"/><path d="M130 159l3 2c-.187 2.313-.187 2.313-1 5-2.437 1.688-2.437 1.688-5 3l-2 2-2-5 3-1 1-4 3-2z" fill="#621e25"/><path d="M140 102h1c.068 3.392.113 6.491-.625 9.813-.541 4.603.556 8.715 1.625 13.188-2.565-2.565-2.54-4.477-3-8h-3v2l-5 1v-4l2-1 1 2c3.233-4.618 4.53-9.632 6-15z" fill="#534f54"/><path d="M193 174c2.421 2.421 2.528 3.801 3.125 7.125l.508 2.758L197 186h-5c-2.326-3.634-2.163-6.771-2-11l3 1v-2z" fill="#6e3d45"/><path d="M119 152h3v2l2.375.375C127 155 127 155 129 157l-3 1-1 3-4-2-1 5h-1v-12z" fill="#505056"/><path d="M113 130h1l.125 9.063.051 2.568c.04 5.203-.478 9.444-2.176 14.369l-3-1 1.438-9.687.408-2.764.4-2.686.365-2.46c.402-2.482.881-4.941 1.389-7.404z" fill="#090c0e"/><path d="M145 79l2 1-6 4 5 1v6h-2v-2l-2.25-.375c-2.551-.58-4.477-1.362-6.75-2.625v-2l4.875-2.562 2.742-1.441L145 79z" fill="#60625f"/><path d="M87 50l4.977 4.273 4.047 3.391 1.914 1.586 1.777 1.453C101 62 101 62 101 64h2v2h-4l-1.437-2.437L96 61l-5-1c-1.062-1.812-1.062-1.812-2-4l-4-4 2-2z" fill="#7d3a43"/><path d="M130 41c2 2 2 2 2 5l5 1v1l-8 1-3 9-2-4 2-1-.25-3.187c.285-4.35 1.274-5.744 4.25-8.812z" fill="#7a7e78"/><path d="M110 29h3c1.47 2.334 2.007 3.714 1.938 6.5-1.232 3.284-3.098 4.534-5.937 6.5 0-4 0-4 2-7l-5-1 4-5z" fill="#2b2e33"/><path d="M109 21c3.423 1.141 4.148 2.001 6 5v3l-9-1-1-3-3-1c3-2 3-2 5.688-1.625L110 23l-1-2z" fill="#ccc3cb"/><path d="M94 8c-2.398 2.398-3.333 2.343-6.625 2.625l-2.477.227L83 11l-1 3-10 1 2-1v-2c6.859-3.269 12.404-4.582 20-4z" fill="#a8aebb"/><path d="M124 172l3 9h-4l1 2c-1.245 3.736-2.634 4.188-6 6 1.105-8.105 1.105-8.105 4-11l-2-1v-3l4-2z" fill="#404348"/><path d="M106 160l6 1-1 3 2 1-1 2h2l-1 3-6 1v-2l-2-2h2l-1-7z" fill="#3c4044"/><path d="M158 110l2 8c-4.824.193-8.496-.243-13-2v-2c3.215-1.607 6.436-1.057 10-1l1-3z" fill="#37393d"/><path d="M131 179h3l-.5 3.938c-.532 4.717-.575 9.319-.5 14.063-2.762-2.762-2.579-5.207-3-9l-3 1-1-6 3 1v-3h2v-2z" fill="#4a4e53"/><path d="M91 180h5c1 3 1 3 .063 5.188L95 187h-3v-2l-3 3 2 2-4 1c-.75-2.25-.75-2.25-1-5 1.875-2.187 1.875-2.187 4-4l1-2z" fill="#262a2f"/><path d="M141 143c2.625 1.25 2.625 1.25 5 3v3l3 1v4l-6-2-1-2-4-2c.375-1.937.375-1.937 1-4l2-1z" fill="#8f3d46"/><path d="M158 189h1l.367 1.898.508 2.477.492 2.461c.499 2.351.499 2.351 2.633 4.164h-15v-4l5.957.781c2.198.272 2.198.272 5.043.219l-1.062-2.875C157 191 157 191 158 189z" fill="#603940"/><path d="M127 192l1 2 3-1 .313 1.938L132 197l3 1v2h-12v-2l4-1v-5z" fill="#212529"/><path d="M45 168c1 3 1 3 1 4l1.813-.5C50 171 50 171 53 171l-1.375 1.125C49.53 174.543 48.88 176.954 48 180h-3l-2 2c-.369-9.41-.369-9.41 2-14z" fill="#5c252e"/><path d="M108 119l3 1v2l-4 4-1 3-7-3 3.375-2.937 1.898-1.652C106 120 106 120 108 119z" fill="#532227"/><path d="M72 16c-3.324 5.347-7.199 6.475-13 8 1.418-3.358 2.526-5.613 5.375-7.937 3.05-1.235 4.529-1.035 7.625-.062z" fill="#bdc6d9"/><path d="M163 157l1 3 2.25-.25c3.532.321 4.516 1.603 6.75 4.25l-2 1-2-1-1 2v-2l-2.375.625L163 165l-2-2c.354-2.263.975-3.951 2-6z" fill="#8d6775"/><path d="M46 163h3c.95 3.695.95 6.305 0 10l-3-1v2l2 1-3 1v-6l-2 3c.507-3.719 1.116-6.735 3-10z" fill="#77454d"/><path d="M148 90l2 1 1 7c.485 3.155.99 5.97 2 9l2 1c-2.375-.312-2.375-.312-5-1-2.185-3.277-2.322-4.723-2.562-8.562-.177-3.864-.177-3.864-1.437-7.437l2-1z" fill="#313538"/><path d="M47 48l10 1v5h-8l-1-2h-2l1-4z" fill="#64232c"/><path d="M133 42l8 1 1 2-1 3-10-1 2-5z" fill="#55585d"/><path d="M102 148h4v3h2l2-2v4h-3v5l-1-2-5-2 1-6z" fill="#373b40"/><path d="M97 128v2l2 1-3 2-1 2-6 1-5 2c7.429-10 7.429-10 13-10z" fill="#3e1c20"/><path d="M84 56v2l3-2c2.188.375 2.188.375 4 1v3l-19-1v-2c3.981-1.327 7.85-1.069 12-1z" fill="#533a3e"/><path d="M117 190l1 2h-2l-2 6c-8.571 1.429-8.571 1.429-12-1 1.688-1.562 1.688-1.562 4-3l5 1c1.687-1.271 1.687-1.271 3-3l3-2z" fill="#794953"/><path d="M132 183c2.937 2.454 2.937 2.454 3.223 4.938l-.16 2.063c-.256 3.472-.153 3.865 1.938 7 2.05 1.192 2.05 1.192 4 2v1h-6c-3.616-5.575-3.307-10.606-3-17z" fill="#12151a"/><path d="M61 76h2c1.461 2.647 2 3.894 2 7h-8l-.312 1.875C56 87 56 87 53 89c2.213-4.596 4.681-9.104 8-13z" fill="#8d6b76"/><path d="M57 83c3 1 3 1 4.688 4.063C63.309 91.132 63.228 94.66 63 99h-2v-3h-2l.125-3.125C59.004 89.132 58.351 86.463 57 83z" fill="#070709"/><path d="M117.875 8.625l3.68.477c3.723.971 5.656 2.3 8.445 4.898-5.025-.673-9.972-1.544-14.937-2.562l-2.072-.42L108 10c3.838-2.558 5.378-2.012 9.875-1.375z" fill="#7f8287"/><path d="M134 165l1 2-1.375 1.25c-1.685 1.814-2.618 3.503-3.625 5.75-4.087.24-7.177-.577-11-2l3-2v-3l3 1 1 3c2.955.344 2.955.344 4.387-1.312l1.301-1.687 2.313-3z" fill="#77797f"/><path d="M158 100c2.342 3.512 2.082 4.887 2 9l1 5h-3v-3l-1 2-7-1v-1l2.375.188L155 111l2-3-4-2 4-1 1-5z" fill="#5c6065"/><path d="M87 67l2 1v2h-2l-2 4-4-2v-5c2.517-1.258 3.378-.819 6 0z" fill="#c4bd9f"/><path d="M135.563 49.125c2.55.915 3.73 1.808 5.438 3.875l-1 2-3-2c-2.547.009-2.547.009-5 1-1.685 1.997-1.685 1.997-3 4h-2c.854-3.203 1.526-5.493 3.813-7.937C133 49 133 49 135.563 49.125z" fill="#7f7d6f"/><path d="M115.438 13.75C119 14 119 14 122 16l-1 2h-2l-2 4-4-1h2v-2h-2v-2l-3-1c2-2 2-2 5.438-2.25z" fill="#a8929e"/><path d="M141 136c2.957 3.467 5.078 6.869 7 11l-7-1v-3c-1.938-2.188-1.938-2.188-4-4l4-3z" fill="#c1a1ac"/><path d="M139 94c-.75 1.875-.75 1.875-2 4l-2.062.875L133 100c-.816 3.059-.816 3.059-1 6h-1v-6l-3-1 1-3c3.457-1.216 6.328-2 10-2z" fill="#663e46"/><path d="M70 86c5.447-.097 10.639-.129 16 1l1 3c-4.824.193-8.496-.243-13-2l-2 2v-3l-2-1z" fill="#6d252e"/><path d="M57 67l3 1 1 6 4 1 1 5-4 1 2-1-1-4h-2l-2 4-2-3h2l-2-10z" fill="#6e5960"/><path d="M110 53l1 3h2v14c-2.391-3.587-2.655-6.424-3.242-10.625-.937-2.937-2.178-3.787-4.758-5.375l5-1z" fill="#37393e"/><path d="M55 172l3 1c-.445 5.04-2.713 7.376-6 11-1.274-2.547-.802-3.428-.062-6.125l.59-2.195L53 174h2v-2z" fill="#26272b"/><path d="M87.188 118.375L89 119v5l-7 1c-.187-2.375-.187-2.375 0-5 3-2 3-2 5.188-1.625z" fill="#481920"/><path d="M99 103h3v3l1.938.75C106 108 106 108 106.75 110.125L107 112h-7l-1-2h2l-2-7z" fill="#52565b"/><path d="M149 33c3.621 4.444 5.331 8.214 5 14l-3 1 2-5h-3c-2.294-3.441-2.263-4.968-2-9l1-1z" fill="#b0929b"/><path d="M129 128l-1 3-1-1-2 4-4-2 1-3h-3v-2c3.815-1.467 6.29-.433 10 1z" fill="#1b1e23"/><path d="M118 88l2.25.938c3.349 1.294 6.307 2.009 9.875 2.438C133 92 133 92 135 95c-4.024 1.207-6.465 1.081-10.187-.687-3.037-1.666-5.06-3.245-6.812-6.312z" fill="#25282f"/><path d="M199 181h1v19l-2-1c-1.834-6.237-1.342-11.998 1-18z" fill="#030303"/><path d="M62 160l3 1v5l2 1c-.625 1.938-.625 1.938-2 4l-6 1-1 2v-3h3l.5-4.937.281-2.777L62 160z" fill="#463a3e"/><path d="M146 60h1c.569 11.845.569 11.845-3 17-3.644 2.429-5.712 2.162-10 2v-1l3.25-.562c3.367-.982 3.801-1.503 6.125-4.5 2.042-4.136 2.418-8.38 2.625-12.937z" fill="#6b6056"/><path d="M142 24c3.394 3.126 5.606 5.565 7 10l-2 2v-2l-4-2v-2h-2l1-6z" fill="#c3bac1"/><path d="M128 14c3.36 1.429 5.277 3.161 7.625 5.938l1.789 2.09C140.106 25.375 141 26.558 141 31l-3-1-1.973-4.949c-1.647-3.287-4.11-5.777-6.602-8.449C128 15 128 15 128 14z" fill="#4d5158"/><path d="M75 164l5 3-5 6c-2-1-2-1-3-4 1.438-2.687 1.438-2.687 3-5z" fill="#6d4954"/><path d="M114 56h1l2 19-1-2h-2c-.978-2.933-1.134-4.882-1.125-7.937l-.008-2.59c.124-2.299.489-4.269 1.133-6.473z" fill="#5d5e5d"/><path d="M71 69l3 1 1 10h-3c-2.09-3.396-2.263-6.052-2-10l1-1z" fill="#421f24"/><path d="M138 58l4 2v5c-1.875.625-1.875.625-4 1l-2-2c.556-4.556.556-4.556 2-6z" fill="#474e52"/><path d="M119 40l2 1-.84 1.758c-2.05 4.421-3.657 8.337-4.16 13.242h-1c-.125-7.75-.125-7.75 1-10h-2l-1 6c-.885-2.478-1.116-3.661-.25-6.187C114 44 114 44 117 43l2-3z" fill="#717779"/><path d="M52 34c2 2 2 2 2 5h5l-1 4v-2h-8l-1-5 3-2z" fill="#85414f"/><path d="M87 193l2 1v6h-7c.398-2.886.79-3.822 3.063-5.75L87 193z" fill="#8f3b49"/><path d="M133 161l5 1c-5.786 8.222-5.786 8.222-10.312 9.813L126 172c.188-1.812.188-1.812 1-4l5-3c.878-2.085.878-2.085 1-4z" fill="#5d484e"/><path d="M148 137l2 1v2l1.875.125L154 141c1.25 3.063 1.25 3.063 2 6l-7-2-1-8z" fill="#be9ca6"/><path d="M59 83c2.804-.234 4.585-.207 7.125 1.063 3.265 3.373 4.765 7.216 5.063 11.875L71 98h-2l-.75-3.125C67.146 91.051 65.523 88.116 63 85c-2.121-.952-2.121-.952-4-1v-1z" fill="#5b3c41"/><path d="M55 24c0 3 0 3-1.5 4.938-1.892 2.177-1.892 2.177-1.5 6.063l-2 1-2 4-2-4 2.813-4.312 1.582-2.426C51.804 27.276 53.221 25.651 55 24z" fill="#827078"/><path d="M61 26l3 1c-1 3-1 3-3.687 4.688C56.91 33.036 54.617 33.258 51 33c1.399-2.797 3.137-2.868 6-4l2.125-1.687L61 26z" fill="#a394a5"/><path d="M119 196h3v4h-15c2.398-2.398 3.273-2.314 6.563-2.562 3.018-.022 3.018-.022 5.438-1.437z" fill="#1b1d22"/><path d="M67 192c1 3 1 3 .063 5.188L66 199l2 1h-7l2-7 4-1z" fill="#463940"/><path d="M66.438 151.25L68 152c-4.75 3-4.75 3-7 3l-2 5h-3c.063-2.25.063-2.25 1-5 2.875-2.436 5.627-4.141 9.438-3.75z" fill="#918694"/><path d="M64 134c3 1 3 1 4 3 4.152 2.768 7.043 3.357 12 4v1c-9.922.782-9.922.782-14.187-2.312C64 137 64 137 64 134z" fill="#624f54"/><path d="M69 112l7 1-4 2v5l4 1h-8l1-2-1-6 1-1z" fill="#524d52"/><path d="M87 107l4 2-2 1 .063 2.875C89 116 89 116 88 118l-3-1 1-4-5 2v-2c2.375-1.687 2.375-1.687 5-3l2 1-1-4z" fill="#585055"/><path d="M51 91l.813 1.938C52.887 95.331 52.887 95.331 56 96v6l-2-1v-3l-2.437-.75C49 96 49 96 48.188 93.875L48 92l3-1z" fill="#562b32"/><path d="M93 59c3.388 1.44 4.744 2.477 6.375 5.813.671 3.423.428 5.815-.375 9.188h-1l-.687-3.625C96.205 65.832 94.192 63.36 91 60l2-1z" fill="#44272e"/><path d="M126 28v2l3 2-6 1v-3c-2.867.573-3.861.861-6 3l-4-2v-2h2v2l1.563-1.5c3.244-1.996 5.7-1.716 9.438-1.5z" fill="#606369"/><path d="M101 7l2 2-4.875.563-2.742.316C93 10 93 10 91 9c-2-.04-4-.043-6 0 2.953-1.969 4.058-2.34 7.438-2.687l2.309-.262c2.331-.053 4.057.18 6.254.949z" fill="#c3c8d1"/><path d="M149 170l3 2v3l2 1-1 3h-2l-1-3-1 5-2-2c.543-6.087.543-6.087 2-9z" fill="#7e3841"/><path d="M106 125h2l.438 2.813c.484 3.195.484 3.195 1.563 6.188l-6 1v-6l2-1v-3z" fill="#19181d"/><path d="M151 69h1c-.402 5.832-1.136 9.363-5 14-2.062 1.438-2.062 1.438-4 2l-3-1 3.25-1.875c4.717-3.301 6.084-7.795 7.75-13.125z" fill="#e6e2a0"/><path d="M108 35l1 4h-3v5l-5-2c1.453-3.829 3.429-5.121 7-7z" fill="#73323b"/><path d="M123 31l-1 3-2.375.25c-2.772.478-2.772.478-3.937 2.813L115 39c-.934-3.01-1.044-3.867 0-7 2.959-2.041 4.638-2.201 8-1z" fill="#202227"/><path d="M52 184c0 3.76-.965 4.457-3.437 7.188l-1.934 2.168L45 195h-1v-6h2l-1-4h2v3l5-4z" fill="#715860"/><path d="M91 174c1.938.75 1.938.75 4 2l1 4-9 1c.959-3.837 1.236-4.597 4-7z" fill="#6a5961"/><path d="M91 139c2 3 2 3 1.875 6.5C92 149 92 149 90.125 151 88 152 88 152 85 151l1.875-2.062c2.457-3.396 3.174-5.898 4.125-9.937z" fill="#050505"/><path d="M118 121v5l-2-2-8 3 1-5c2.957-1.478 5.742-1.06 9-1z" fill="#45363a"/><path d="M89 61l2 2c-2.995.872-5.636 1.108-8.75 1.063l-2.422-.027L78 64l-1 2-1-3c4.753-2.898 7.585-3.354 13-2z" fill="#353639"/><path d="M123 52c2 2 2 2 2.195 4.82l-.07 3.305-.055 3.32L125 66h-2l-2-8h2v-6z" fill="#545b5f"/><path d="M141 34c2.875 2.563 2.875 2.563 5 5l-1.937-.937c-3.413-1.184-6.489-1.478-10.074-1.719C132 36 132 36 130 34c3.999-1.058 7.009-1.164 11 0z" fill="#ccced4"/><path d="M115 179h2c1.619 2.572 2.044 3.677 1.625 6.75L118 188h-3v-2h-2l2-7z" fill="#856972"/><path d="M184 155c6.566 3.283 6.566 3.283 8.438 6.375.631 2.946.702 5.621.563 8.625l-.844-1.738c-1.133-2.216-2.352-4.33-3.656-6.449l-1.281-2.105c-1.123-1.854-1.123-1.854-3.219-2.707v-2z" fill="#9b818c"/><path d="M151 150h13c-3 2-3 2-6 3l-3 2h-3l1-3-2-2z" fill="#a48b92"/><path d="M56 90c2.097 2.36 2.969 3.546 3.188 6.75L59 99h-2v5h-2l.063-3.75c.005-2.914-.132-5.46-1.062-8.25h2v-2z" fill="#67444b"/><path d="M97 84l-4 5 3 1-6 1 1-2h-3v-3c5.625-3.125 5.625-3.125 9-2z" fill="#712c35"/><path d="M93 148c1.498 3.882.431 6.434-.937 10.25l-1.152 3.266L90 164l-2-1c1.029-5.446 2.246-10.118 5-15z" fill="#34363b"/><path d="M155 143c2.5 1.313 2.5 1.313 5 3v3l2 1-12 1v-2l6-1-1-5z" fill="#9d707a"/><path d="M119 129h3c.125 7.75.125 7.75-1 10h-2l-.562-4.437-.316-2.496L118 130l1-1z" fill="#3a3e44"/><path d="M99 105c2 3 2 3 2 5h-2l-1 3h-2l-1 3c-.492-6.4-.492-6.4 2-9.437L99 105z" fill="#33383e"/><path d="M48 95l7 3v4c-3.403-1.059-6.014-2.009-9-4v-2l2-1z" fill="#615358"/><path d="M134 55l1 3 5-1-5 5v-2c-2.163 2.033-2.163 2.033-4 5v-8l3-2z" fill="#7c8282"/><path d="M112 35l-3 3-1-2-2.875 1.938L100 41l1-2.937c1.052-2.684 1.052-2.684 1-4.062 4.078-.927 6.422-1.34 10 1z" fill="#71545d"/><path d="M131 25h6l2 5h3l-1 3c-3.875-1.75-3.875-1.75-5-4-2.527-.656-2.527-.656-5-1v-3z" fill="#292e34"/><path d="M196 188h1c2.429 7.429 2.429 7.429 1 11l-5-2 3-9z" fill="#3f3b3e"/><path d="M178 170l10 1-2 4-3 1-5-6z" fill="#8a424d"/><path d="M87 158h2v5h2v2l-8 1v-2h2l2-6z" fill="#70757b"/><path d="M147 144l4.375 1.375 2.461.773C156 147 156 147 158 149l-4.375.125-2.461.07C149 149 149 149 147 147v-3z" fill="#444349"/><path d="M111 135l-4 1 1 6h-2v-2l-2 1h-6l-1-2 8-1v-3c3-1 3-1 6 0z" fill="#404347"/><path d="M71 137h7l1 2h4v2c-3.032 1.011-4.518 1.027-7.625.688l-2.414-.238L71 141l-1-2 1-2z" fill="#442f34"/><path d="M60 122h2v2l3-1 1 9-3 1-3-11z" fill="#6e555b"/><path d="M76 66h1l.5 4.75.281 2.672C78 76 78 76 78 80c-2.526-2.363-3.888-3.665-5-7l2-1 1-6z" fill="#3b3d41"/><path d="M90 15l4 2-1 3c.394 2.638.394 2.638 1 5-1.937-.562-1.937-.562-4-2-.812-3.562-.812-3.562-1-7l1-1z" fill="#91959e"/><path d="M115 11l11 2-2 4-9-4v-2z" fill="#d4cfdb"/><path d="M179 193l4 2-2 3h-2v2h-5l5-7z" fill="#1e2025"/><path d="M61 155l2 2-1 2 5 1v3l-2 1-2-3v2l-4 1 2-9z" fill="#555960"/><path d="M92 139h2l2 5-1 1-.062 4.563.027 2.504L95 154l-2-2c.375-2.125.375-2.125 1-4h-2v-9z" fill="#595d62"/><path d="M122 136l5 1 1 2c2.025.652 2.025.652 4 1l-1 2c-3.558-.61-6.683-1.578-10-3l1-3z" fill="#5f676f"/><path d="M136 117h3v6c-4.75-.875-4.75-.875-7-2v-2h4v-2z" fill="#392e33"/><path d="M85 96l1 2 3 1-1 2 2 1-3 3-3-1 .563-1.875c.674-2.167.674-2.167-.562-4.125l1-2z" fill="#544145"/><path d="M124 86c3.012.644 5.517 1.65 8.25 3.063l2.141 1.098L136 91v1c-6.483.367-6.483.367-8.937-1.375C126 89 126 89 126 87l-2-1z" fill="#767268"/><path d="M110 78l1 3h2v2h2l1-4-1 8-2 1v-3l-4-2 1-5z" fill="#65373e"/><path d="M78 67l2 1-1 5 1.75.375c2.273.631 4.175 1.514 6.25 2.625-1 1-1 1-3.937 1.188C80 77 80 77 78 75c-.27-2.688-.087-5.291 0-8z" fill="#837d6b"/><path d="M51 62l4 3v2h2c2.094 3.402 2.179 6.053 2 10h-1l-.332-1.715-.48-2.223-.457-2.215L56 69l-3-1v-3l-3-1 1-2z" fill="#52393e"/><path d="M143 50c2.874 3.248 3.674 5.686 4 10-.213 3.02-.567 6.005-1 9h-1l-.148-2.449-.227-3.238-.211-3.199c-.402-3.022-1.284-5.308-2.414-8.113l1-2z" fill="#928763"/><path d="M121 20l4 4v2l-7 1v-4h2l1-3z" fill="#b18994"/><path d="M77.75 17.313L80 18l-12 6 1-5 2-1v2l1.688-1.562C75 17 75 17 77.75 17.313z" fill="#a7a4b0"/><path d="M55 191c3 1 3 1 4.188 3.063L60 196l-1.812.875c-2.381 1.172-2.381 1.172-5.187 3.125l-1-3h2l1-6z" fill="#76424c"/><path d="M129 119c1.991 2.986 2.941 5.597 4 9l-2-1-2 6-1-2 1-3-2-1 2-8z" fill="#34393f"/><path d="M77 113h3l1 5 4 1c-1.812 1.063-1.812 1.063-4 2l-3-1-1-7z" fill="#574e52"/><path d="M126 100c1.671 2.962 2.327 5.371 2.625 8.75l.227 2.422L129 113l-1-3c-2.504-1.219-2.504-1.219-5-2l1-2h2v-6z" fill="#5b6267"/><path d="M82 106h5l1 5-6 1v-6z" fill="#532c33"/><path d="M77 73l1.688 2.438C81.219 78.242 82.326 78.694 86 79l-3 4-5-2-1-8z" fill="#2e2d32"/><path d="M105 73c2.025 1.933 3.421 3.632 5 6l-1 3c-1.937-.687-1.937-.687-4-2-.936-2.879-1.372-4.255 0-7z" fill="#784b54"/><path d="M67 21l2 2c2.108-.319 2.108-.319 4-1-1 3-1 3-3 4.063L68 27l-1 2h-2c.875-6.875.875-6.875 2-8z" fill="#9b8796"/><path d="M155 160l2 1-3 8h-3c.531-3.821 1.497-6.062 4-9z" fill="#8d3840"/><path d="M96 158h2l-1 7h-5l1-4h2l1-3z" fill="#565b61"/><path d="M133 154l6.055.879c2.027.29 2.027.29 3.945-.879l-2 4 2 2h-5l-1-3c-2.015-.733-2.015-.733-4-1v-2z" fill="#754b54"/><path d="M69 153h7l-2 1 1 3c-3.01.934-3.867 1.044-7 0l1-4z" fill="#807f88"/><path d="M146 147l4 2v2l4 1-2 1v2h-5l2-1v-4l-4-1 1-2z" fill="#9a5f6c"/><path d="M145 117l5 1c-1.333 4-3.496 4.838-7 7 .875-5.75.875-5.75 2-8z" fill="#030303"/><path d="M44 77c2 2 2 2 2.125 5.125L46 85h5l1 2-5 1c-2.706-3.833-3.326-6.325-3-11z" fill="#706f74"/><path d="M55 185l3 4-1 2h-2l-1 3-2-2c0-3.517.824-4.371 3-7z" fill="#7e636e"/><path d="M68 175h3l2 7-2 1-1-3-5 2 3-7z" fill="#825f6b"/><path d="M149 174c2 2 2 2 2 5l4 2v2c-4.875-.875-4.875-.875-6-2v-7z" fill="#78222c"/><path d="M190 175c3 2 3 2 4 5l-1 6c-2-1-2-1-3-4v-7z" fill="#7a434b"/><path d="M175 166l5 1 1 2 4 2-11-1 1-4z" fill="#98616f"/><path d="M156 156l3 1-2.875 3.5-1.617 1.969L153 164h-2l-1-5 3 1v-2l3-2z" fill="#79525a"/><path d="M147 155h8v3h-2v2l-5 1 1-5-2-1z" fill="#623d47"/><path d="M101 126c2.25 1.938 2.25 1.938 4 4l-1 2-7-2v-3c1.75-.75 1.75-.75 4-1z" fill="#4d3539"/><path d="M90 116h2l4 7-5 1-2-7 1-1z" fill="#14151a"/><path d="M140 116h5l-2 9c-2.125-3.188-2.502-5.265-3-9z" fill="#26272a"/><path d="M125 113h7c-.375 1.938-.375 1.938-1 4l-2 1-3-1c-.687-2.062-.687-2.062-1-4z" fill="#959fa7"/><path d="M127 100h4c.125 5.75.125 5.75-1 8h-2l-1-8z" fill="#020202"/><path d="M123 97l5 2-2 1v6h-2c-2.125-6.75-2.125-6.75-1-9z" fill="#1e2024"/><path d="M94 98h3l1 9-4 2 .563-2.125c.489-3.214.1-5.711-.562-8.875z" fill="#18191e"/><path d="M149 79l1 3 2 1-4 4h-2v-2l-3-1 1.875-.812C147.3 82.044 147.3 82.044 149 79z" fill="#787c78"/><path d="M132 77h2v2l5 1-1 2-2-1 1 3-5-1v-6z" fill="#a1a4a7"/><path d="M113 29l2 4c-6.75 1.125-6.75 1.125-9 0 3.625-4 3.625-4 7-4z" fill="#453b3f"/><path d="M187 194c3.875 1.75 3.875 1.75 5 4l-1 2h-4l-1-5 1-1z" fill="#737d86"/><path d="M138 184l4 1v9l-2-1 1-2h-2l-1-7z" fill="#4f5053"/><path d="M189 172l1 8-6-3v-2c3.577-3 3.577-3 5-3z" fill="#832b31"/><path d="M52 159h4l-1 5h-4l-1-3 2-2z" fill="#7c3947"/><path d="M95 94h6v3h-3v9h-1v-8h-2v-4z" fill="#402d31"/><path d="M56 80c0 3 0 3-1.125 4.75C53 86 53 86 49.813 85.688L47 85v-3l2.813.125c3.346.146 3.346.146 6.188-2.125z" fill="#25272c"/><path d="M94 55c3.375 1.186 5.647 2.276 8 5l-1 3-3.5-2.875-1.969-1.617L94 57v-2z" fill="#b99da8"/><path d="M48 37c.369 5.538.369 5.538-1.5 7.875L45 46c-.687-2.812-.687-2.812-1-6 2.2-3 2.2-3 4-3z" fill="#674c55"/><path d="M101 25h4l1 2 7 1v1l-3.875 1.125-2.18.633L105 31l-2-2v-3l-2-1z" fill="#a98090"/><path d="M158 189h1l.367 1.898.508 2.477.492 2.461c.499 2.351.499 2.351 2.633 4.164h-7l1.063-2.25c1.007-2.954.829-3.879-.062-6.75l1-2z" fill="#624e54"/><path d="M97 182c1.176 3.674 1.074 7.169 1 11l-3-1 .125-2.375c.162-2.786.162-2.786-2.125-4.625l4-3z" fill="#7b6e73"/><path d="M138 181h3v3h-3v2l2 1-2 4-2-7 2-3z" fill="#141417"/><path d="M66 169h5l1 2-2.437.813L67 173l-1 3-2-3h2v-4z" fill="#958b95"/><path d="M165 160c3.688.498 5.605 1.101 8 4l-2 1-2-1-1 2v-2l-2-1-1-3z" fill="#9e6f7e"/><path d="M109 135l3 1v6l-2 2-1-5h-2v-3l2-1z" fill="#292c31"/><path d="M108 115l-1 3h-2l-2 4h-2v-2l-3-1 5-1v-2c3-1 3-1 5-1z" fill="#131319"/><path d="M41 62c2.624 3.061 3 3.732 3 8h2v4h-2l-1-5h-2v-7z" fill="#5a4e53"/><path d="M47.375 62.75C50 63 50 63 51.813 64.5L53 66l-2.312-.187c-2.733-.071-2.733-.071-4.5 1.688L45 69l-1-5c1-1 1-1 3.375-1.25z" fill="#0c0e13"/><path d="M55 56l4 1-1 5-5-1-1-3h3v-2z" fill="#65252d"/><path d="M43 45h1l.684 6.055c.229 2.019.229 2.019 1.316 3.945h-2l-1 5h-1l1-15z" fill="#755a63"/><path d="M100 17c1.938.375 1.938.375 4 1 1.245 2.491.777 3.411 0 6l-4-1v-6z" fill="#2e3238"/><path d="M92 18h5l2 6-1.875-1.062L95 22l-2 1-1-5z" fill="#1e2126"/><path d="M125 14c2.886.398 3.822.79 5.75 3.063L132 19l-5-1-1 3-2-5 1-2z" fill="#e3dee6"/><path d="M92 190c1.875.625 1.875.625 4 2 1.25 3.125 1.25 3.125 2 6h-2v-2h-4v-2l-1-1 1-3z" fill="#2e2e33"/><path d="M114 167l-1 3-6 1v-2l-2-2c3.069-1.534 5.701-.55 9 0z" fill="#181a1c"/><path d="M179 157c5.352.324 8.283 3.497 12 7l-1 2-3.812-2.812-2.145-1.582A46.58 46.58 0 0 1 179 157z" fill="#37393e"/><path d="M155 113l-1 3c-2.944 1.178-3.9 1.033-7 0v-2c2.709-1.354 5.009-1.065 8-1z" fill="#060606"/><path d="M106 48l6 1c-.312 1.938-.312 1.938-1 4l-3 1v-3h-2v-3z" fill="#76434d"/><path d="M79 48h8l1 2-9 1v-3z" fill="#784853"/><path d="M107 42c2 1.25 2 1.25 4 3v4c-1.937-.312-1.937-.312-4-1-1-3-1-3 0-6z" fill="#16191e"/><path d="M130 37l2 1c-3.446 5.785-3.446 5.785-6.25 6.875L124 45c1.443-3.366 3.333-5.51 6-8z" fill="#5c6368"/><path d="M100 14v2h-3v2l-4-1v-3c3.133-1.044 3.99-.934 7 0z" fill="#545a60"/><path d="M116 192l3 1-1 5h-4l2-6z" fill="#67262b"/><path d="M192 163h2c3 5.75 3 5.75 3 8h-4l-1-8z" fill="#8b6a76"/><path d="M181 161l5 1v7l-1-3c-2-1.209-2-1.209-4-2v-3z" fill="#e9e4e8"/><path d="M94 144h6l-1 6-3-1c-1.187-2.562-1.187-2.562-2-5z" fill="#4c5055"/><path d="M124 140l7 1 1 4c-2.763-.523-5.326-1.109-8-2v-3z" fill="#191b21"/><path d="M104 140v3c-2.709 1.354-5.009 1.065-8 1l1-3 7-1z" fill="#23262b"/><path d="M136 138l2 1v3c-3.333 3-3.333 3-6 3l1-6 3-1z" fill="#5f3e46"/><path d="M136 131h2l1 7h-3l-1-6 1-1z" fill="#0f1217"/><path d="M130 119l2.25 1.375L139 124c-3.053.981-4.947.981-8 0l-1-5z" fill="#71777f"/><path d="M86 95l4 1v2l4 1c-3 2-3 2-6 2v-2l-2-1v-3z" fill="#42282d"/><path d="M63 72l3 1c1.781 3.647 2.154 5.407 1.125 9.375L66 85l-2-2 1-1c-.389-3.497-.886-6.658-2-10z" fill="#78333e"/><path d="M119 72l5 2-2 2 1.063 1.813C124 80 124 80 123 83c-4-6.5-4-6.5-4-11z" fill="#61615b"/><path d="M135 71h4v2l2 1c-1 1-1 1-4.062 1.063L134 75l-1-2h2v-2z" fill="#4b4b4b"/><path d="M135 62l1.313 1.5c1.685 1.832 1.685 1.832 4.688 1.5l-1 4c-3.875-.875-3.875-.875-5-2v-5z" fill="#9ba1a8"/><path d="M85 63c-1 2-1 2-4.062 3.125L78 67v6h-1c-.363-6.408-.363-6.408 1.188-8.937C80.56 62.671 82.297 62.781 85 63z" fill="#6f6b5f"/><path d="M51 39l1 2h6l-1 4c-2.867-.573-3.861-.861-6-3v-3z" fill="#802f39"/><path d="M67 15l5 1c-1.25 2-1.25 2-3 4h-4l2-5z" fill="#c6d2e6"/><path d="M100 9l-1 4-9-1v-2c3.215-1.607 6.436-1.057 10-1z" fill="#cfd6e4"/><path d="M124 186c1.945 2.918 2.453 4.625 3 8l-3 1c-1.125-5.625-1.125-5.625 0-9z" fill="#50161b"/><path d="M91 180h5l1 3-8 1 2-4z" fill="#393e46"/><path d="M137 177l3 1-3 6-2-1-1-4 3-2z" fill="#31353b"/><path d="M167 172l3 1v2h2c-1.392 2.784-3.156 2.979-6 4 0-2.621.313-4.509 1-7z" fill="#7d2f38"/><path d="M102 157l2 1 1 6-4-2 1-1-3-1v-2l3-1z" fill="#3d4248"/><path d="M171 151l6 1v2h4v2l-11-3 1-2z" fill="#392930"/><path d="M169 152l7 2c-2.901 1.934-3.897 2.301-7.187 2.625L165 157l-1-2h5v-3z" fill="#8e7280"/><path d="M138 149h5l2 5-8-1 1-4z" fill="#77383f"/><path d="M141 143l5 4-7 2c0-4 0-4 2-6z" fill="#9b5260"/><path d="M89 113l4 1-1.562 1.688c-1.732 2.253-1.732 2.253-1.125 5.063L91 123h-2l-.562-4.437-.316-2.496L88 114l1-1z" fill="#3e3c40"/><path d="M98 97h3v6h-2l-1 3v-9z" fill="#202228"/><path d="M125 82l6 3-1 3 2 1c-3.235-.558-4.979-1.372-7-4v-3z" fill="#3e3d3c"/><path d="M90 76c-1.062 1.5-1.062 1.5-3 3-3.687.188-3.687.188-7 0 1-2 1-2 3.875-3.187C87 75 87 75 90 76z" fill="#565553"/><path d="M63 68h4v2h3l-1 4-6-4v-2z" fill="#5b1e24"/><path d="M131 50l1 2 2 1-5 5h-2c1.75-5.75 1.75-5.75 4-8z" fill="#8b8b7e"/><path d="M132 36l3 2-2 1 5 1c-2.332 1.206-4.496 2.165-7 3-.625-1.812-.625-1.812-1-4l2-3z" fill="#9fa7ab"/><path d="M131 28h5l2 4-7-1v-3z" fill="#656c72"/><path d="M113.262 8.242l2.426.633 2.449.617L120 10c-3 2-3 2-5.262 1.758l-2.426-.633-2.449-.617L108 10c3-2 3-2 5.262-1.758z" fill="#828a92"/><path d="M67 195c1.938.313 1.938.313 4 1l1 3c-3.75 1.125-3.75 1.125-6 0l1-4z" fill="#81282e"/><path d="M109 183l-1 2c-2.066.633-2.066.633-4.562 1.125l-2.504.508L99 187v-2c3.644-2.429 5.712-2.162 10-2z" fill="#861c22"/><path d="M82 166h8v2l-9 1 1-3z" fill="#58323b"/><path d="M134 158c2.867.573 3.861.861 6 3-1 1-1 1-3.562 1.063L134 162v-4z" fill="#692a33"/><path d="M157 158h6c-2.404 3.607-3.947 3.855-8 5l2-5z" fill="#994755"/><path d="M116 107l3 2v3l-4 2c-1-3-1-3-.062-5.187L116 107z" fill="#23252b"/><path d="M117 94l5 2v3c-1 1-1 1-4 2l-1-7z" fill="#14141a"/><path d="M148 71l2 1c-.875 4.75-.875 4.75-2 7h-3v-3h2l1-5z" fill="#86877d"/><path d="M48 67l5 1v3l-5 2v-6z" fill="#6d6b60"/><path d="M41 59l8 3-1.875.875C44.867 63.937 44.867 63.937 43 66c-1.461-2.647-2-3.894-2-7z" fill="#493b41"/><path d="M132 45l9 1v2l-10-1 1-2z" fill="#4d4f4d"/><path d="M104 12c5.538-.369 5.538-.369 7.875 1.5L113 15c-3 1-3 1-6.187-.437L104 13v-1z" fill="#2a2229"/><path d="M83 11l-1 3-10 1c2.927-2.927 6.86-4 11-4z" fill="#51575f"/><path d="M198 197v3h-7v-2c3.625-2.125 3.625-2.125 7-1z" fill="#25262c"/><path d="M54 175h1c.25 2.813.25 2.813 0 6-2 1.875-2 1.875-4 3l1-7h2v-2z" fill="#131215"/><path d="M103 170l4 1v3l-5 1 1-5z" fill="#581b21"/><path d="M174 157c3.27.564 4.826 1.5 7 4l-1 2-6-3v-3z" fill="#c7bbcd"/><path d="M117 126h2v9h-3c-.074-3.343-.065-5.804 1-9z" fill="#767f84"/><path d="M99 111l2 1v2h-4l1 4-4 1c1.625-5.75 1.625-5.75 5-8z" fill="#26292e"/><path d="M129 96l5 2-2 8h-1v-6l-3-1 1-3z" fill="#5b484e"/><path d="M61 74l4 1 1 5-4 1 2-1-1-4h-2v-2z" fill="#8a515e"/><path d="M62 67l2 1-1 6-3 1c.875-6.875.875-6.875 2-8z" fill="#653c43"/><path d="M53 193c.934 3.01 1.044 3.867 0 7h-5l2-4h3v-3z" fill="#693640"/><path d="M185 188l1 2 3 1v2l-3 1-4-4h3v-2z" fill="#505256"/><path d="M87 181c2.188.313 2.188.313 4 1l-3 4-4-2c1.25-1.562 1.25-1.562 3-3z" fill="#857782"/><path d="M124 172c1.044 3.133.934 3.99 0 7l-4-2v-3l4-2z" fill="#575b60"/><path d="M79 165l4 4 1-2 1 3-4 2c-2-4.75-2-4.75-2-7z" fill="#69646d"/><path d="M134 165l1 2-1.375 1.25c-1.685 1.814-2.618 3.503-3.625 5.75l-3-2 7-7z" fill="#6f6a71"/><path d="M71 160l2 4-3 4h-2c1.875-6.875 1.875-6.875 3-8z" fill="#9890a0"/><path d="M169 164c1.938.813 1.938.813 4 2l1 3-5-1v-4z" fill="#8b5662"/><path d="M105 161c2 3 2 3 2 5h-7l1-3 3-1 1-1z" fill="#646267"/><path d="M121 159l5 2-1 4v-3l-5 2 1-5z" fill="#29292e"/><path d="M98 158l1 2c2.025.652 2.025.652 4 1l-2 3-4-1 1-5z" fill="#090c0f"/><path d="M63 154h5l1 5h-2v-2l-5-1 1-2z" fill="#424348"/><path d="M134 128h1l1 10h-2v-2h-2v-3h2v-5z" fill="#4d5259"/><path d="M158 118h2l3 6-1 3c-1.899-2.972-3.355-5.515-4-9z" fill="#4a4e51"/><path d="M115 86c1 2 1 2 .188 4.563C114 93 114 93 112 94l-1-4h2l2-4z" fill="#131217"/><path d="M120 61c1.063 1.813 1.063 1.813 2 4l-1 3h-3v-5h2v-2z" fill="#4e5255"/><path d="M74 61l-2 6-2 1-1-6c3-1 3-1 5-1z" fill="#3c1e23"/><path d="M137 59l3 1-1 6-3-2 1-5z" fill="#393e43"/><path d="M73 58h5v2c-2.647 1.461-3.894 2-7 2l2-4z" fill="#46272e"/><path d="M133 54h5l1 3-5 2v-3l-2 1 1-3z" fill="#aab1b7"/><path d="M87 50l5 5-3 1-4-4 2-2z" fill="#772d38"/><path d="M92 40h6v2h-3v2l-4-2 1-2z" fill="#813f4a"/><path d="M137 23c2 1.75 2 1.75 4 4v4l-3-1-1-7z" fill="#434951"/><path d="M78 22c2.375.313 2.375.313 5 1l2 3-3 1-2-1v-2h-2v-2z" fill="#796a74"/><path d="M110 17h3v2h2v2l-7-1 2-1v-2z" fill="#3e4046"/><path d="M107 192l5 1 1 2c-3.133 1.044-3.99.934-7 0l1-3z" fill="#8e5563"/><path d="M177 189v2c-1.812.625-1.812.625-4 1l-3-2c3.625-2.125 3.625-2.125 7-1z" fill="#5a292e"/><path d="M119 183h4v3c-2.5 1.688-2.5 1.688-5 3l1-6z" fill="#734b51"/><path d="M53 182h3c-1.269 3.914-2.512 5.791-6 8l3-8z" fill="#6e414d"/><path d="M72 170l3 3-2 2c-2.125-.375-2.125-.375-4-1l1-3 2-1z" fill="#84737e"/><path d="M48 163l2 2c-.25 2.563-.25 2.563-1 5l-2 1c-.625-2.312-.625-2.312-1-5l2-3z" fill="#79303b"/><path d="M125 162l-1 4h-3l-1 2 1-5c2-1 2-1 4-1z" fill="#0c0e13"/><path d="M182 155h2v2l4 2v3l-6-5v-2z" fill="#c0b6c0"/><path d="M99 148c1.563 1.25 1.563 1.25 3 3-.312 2.188-.312 2.188-1 4h-2l-2-5h2v-2z" fill="#292b31"/><path d="M122 133l6 2-2 3-4-2v-3z" fill="#91979e"/><path d="M124 123l5 1-1 3h-4v-4z" fill="#59646d"/><path d="M85 112l2 1v4h-5v-3l3-2z" fill="#303236"/><path d="M94 73l1 3c-1.75 1.563-1.75 1.563-4 3-2.25-.312-2.25-.312-4-1h2v-2h3l2-3z" fill="#2b292e"/><path d="M87 70h2l-1 5h-7l1.875-.812C85.3 73.044 85.3 73.044 87 70z" fill="#736953"/><path d="M111 53v9h-1l-.812-2.875c-.937-3.378-.937-3.378-4.187-5.125l6-1z" fill="#34292d"/><path d="M134 52c2.5.125 2.5.125 5 1 1.313 2.063 1.313 2.063 2 4l-3-1v-2h-6l2-2z" fill="#cfced5"/><path d="M119 46l2 3-3 6-2-2v-3h2l1-4z" fill="#a0a298"/><path d="M132 37c-2.36 2.097-3.546 2.969-6.75 3.188L123 40c2.921-3.2 4.625-4.458 9-3z" fill="#8f9699"/><path d="M121 28h5v2l3 2-6 1v-4l-2-1z" fill="#575c64"/><path d="M65 24l1 2-1 3 2 1-5 2c1.875-6.875 1.875-6.875 3-8z" fill="#8a7582"/><path d="M105 22l1 3 3 1v2l-4-1v-2l-3-1 3-2z" fill="#bba4af"/></svg>