<?xml version="1.0" encoding="UTF-8"?>
<!DOCTYPE svg PUBLIC "-//W3C//DTD SVG 1.1//EN" "http://www.w3.org/Graphics/SVG/1.1/DTD/svg11.dtd">
<svg xmlns="http://www.w3.org/2000/svg" version="1.1" width="200px" height="200px" style="shape-rendering:geometricPrecision; text-rendering:geometricPrecision; image-rendering:optimizeQuality; fill-rule:evenodd; clip-rule:evenodd" xmlns:xlink="http://www.w3.org/1999/xlink">
<g><path style="opacity:0.145" fill="#563304" d="M 84.5,17.5 C 83.5994,19.7271 81.9328,20.7271 79.5,20.5C 80.6594,18.7497 82.326,17.7497 84.5,17.5 Z"/></g>
<g><path style="opacity:1" fill="#59504b" d="M 106.5,19.5 C 108.287,20.4467 109.953,21.6134 111.5,23C 109.065,23.0748 108.398,23.9081 109.5,25.5C 108.735,25.9234 107.902,26.2568 107,26.5C 101.872,25.7405 96.705,25.2405 91.5,25C 93.8418,23.6081 93.8418,22.7748 91.5,22.5C 89.5242,20.9891 87.1909,20.1558 84.5,20C 86.6096,19.4456 88.6096,18.6123 90.5,17.5C 94.4705,18.1972 98.4705,18.6972 102.5,19C 103.328,19.9147 104.328,20.5814 105.5,21C 101.774,22.0432 102.107,22.5432 106.5,22.5C 106.5,21.5 106.5,20.5 106.5,19.5 Z"/></g>
<g><path style="opacity:1" fill="#150f0e" d="M 120.5,15.5 C 126.909,17.5717 132.243,21.2384 136.5,26.5C 136.656,29.8411 137.989,32.6745 140.5,35C 139.833,35.3333 139.167,35.6667 138.5,36C 140.397,37.1097 142.23,37.2764 144,36.5C 146.95,40.3766 146.784,44.2099 143.5,48C 143.167,48.1667 142.833,48.3333 142.5,48.5C 141.756,47.0095 141.09,45.5095 140.5,44C 135.14,43.0015 132.14,39.8348 131.5,34.5C 130.311,33.5713 128.978,33.238 127.5,33.5C 127.5,34.8333 127.5,36.1667 127.5,37.5C 123.215,37.4618 119.548,35.9618 116.5,33C 117.458,31.8525 117.125,30.8525 115.5,30C 117.797,28.8403 117.464,27.8403 114.5,27C 115.308,26.6924 115.975,26.1924 116.5,25.5C 112.864,23.7931 112.864,22.6264 116.5,22C 114.89,20.5053 113.224,20.3387 111.5,21.5C 111.762,19.8678 110.762,18.7012 108.5,18C 114.229,17.3285 114.563,16.3285 109.5,15C 112.025,14.1041 114.192,14.6041 116,16.5C 117.356,15.6198 118.856,15.2865 120.5,15.5 Z"/></g>
<g><path style="opacity:1" fill="#3a312d" d="M 97.5,13.5 C 97.3691,14.3764 97.7025,15.0431 98.5,15.5C 100.768,14.4557 103.101,14.289 105.5,15C 104.167,15.6667 102.833,16.3333 101.5,17C 103.491,17.3736 105.158,18.207 106.5,19.5C 106.5,20.5 106.5,21.5 106.5,22.5C 102.107,22.5432 101.774,22.0432 105.5,21C 104.328,20.5814 103.328,19.9147 102.5,19C 98.4705,18.6972 94.4705,18.1972 90.5,17.5C 88.6096,18.6123 86.6096,19.4456 84.5,20C 87.1909,20.1558 89.5242,20.9891 91.5,22.5C 89.6214,22.3932 89.2881,22.8932 90.5,24C 88.5,24.3333 86.5,24.6667 84.5,25C 90.2992,25.7621 95.9658,26.7621 101.5,28C 97.8606,27.7221 94.1939,27.7221 90.5,28C 94.1851,28.9145 93.8518,29.5811 89.5,30C 91.2556,30.2022 92.9223,30.7022 94.5,31.5C 91.9557,32.9374 91.9557,34.4374 94.5,36C 93.5,36.3333 92.5,36.6667 91.5,37C 92.5707,37.8518 93.5707,38.6851 94.5,39.5C 91.8563,39.7153 89.523,39.7153 87.5,39.5C 85.9577,38.8592 84.6243,37.8592 83.5,36.5C 86.1071,35.6816 88.7737,35.1816 91.5,35C 89.5,34.6667 87.5,34.3333 85.5,34C 86.1667,33.6667 86.8333,33.3333 87.5,33C 85.7806,31.9431 83.9472,31.1097 82,30.5C 81.3828,29.5509 81.5494,28.7175 82.5,28C 83.8333,27.6667 85.1667,27.3333 86.5,27C 84.5,26.6667 82.5,26.3333 80.5,26C 81.5,25.6667 82.5,25.3333 83.5,25C 80.8333,24.3333 78.1667,24.3333 75.5,25C 73.257,26.1362 70.9237,26.9695 68.5,27.5C 71.3577,23.9905 75.0243,21.6571 79.5,20.5C 81.9328,20.7271 83.5994,19.7271 84.5,17.5C 88.403,15.1022 92.7363,13.7689 97.5,13.5 Z"/></g>
<g><path style="opacity:1" fill="#6b635f" d="M 91.5,22.5 C 93.8418,22.7748 93.8418,23.6081 91.5,25C 96.705,25.2405 101.872,25.7405 107,26.5C 107.902,26.2568 108.735,25.9234 109.5,25.5C 109.564,26.3652 109.897,27.3652 110.5,28.5C 108.488,27.9862 106.488,27.8195 104.5,28C 105.833,28.6667 107.167,29.3333 108.5,30C 105.5,30.3333 102.5,30.6667 99.5,31C 101.577,31.1922 103.577,31.6922 105.5,32.5C 104.672,33.4147 103.672,34.0814 102.5,34.5C 99.3982,33.1066 98.3982,33.94 99.5,37C 97.9221,38.0945 96.2554,38.9278 94.5,39.5C 93.5707,38.6851 92.5707,37.8518 91.5,37C 92.5,36.6667 93.5,36.3333 94.5,36C 91.9557,34.4374 91.9557,32.9374 94.5,31.5C 92.9223,30.7022 91.2556,30.2022 89.5,30C 93.8518,29.5811 94.1851,28.9145 90.5,28C 94.1939,27.7221 97.8606,27.7221 101.5,28C 95.9658,26.7621 90.2992,25.7621 84.5,25C 86.5,24.6667 88.5,24.3333 90.5,24C 89.2881,22.8932 89.6214,22.3932 91.5,22.5 Z"/></g>
<g><path style="opacity:1" fill="#514642" d="M 110.5,28.5 C 110.938,28.4346 111.272,28.6012 111.5,29C 108.833,29.6667 108.833,30.3333 111.5,31C 110.167,31.3333 108.833,31.6667 107.5,32C 109.5,32.6667 111.5,33.3333 113.5,34C 112.167,34.3333 110.833,34.6667 109.5,35C 110.044,35.7172 110.711,36.2172 111.5,36.5C 111.082,37.2216 110.416,37.7216 109.5,38C 110.672,38.4186 111.672,39.0853 112.5,40C 110.58,40.215 108.914,39.5484 107.5,38C 105.471,37.3189 103.471,36.9856 101.5,37C 101.833,37.3333 102.167,37.6667 102.5,38C 100.117,38.065 99.45,38.8983 100.5,40.5C 99.91,41.7989 98.91,42.6322 97.5,43C 97.7284,43.3988 98.0618,43.5654 98.5,43.5C 97.2946,44.6857 95.9613,44.6857 94.5,43.5C 90.9027,43.1317 87.5694,42.1317 84.5,40.5C 85.209,39.596 86.209,39.2627 87.5,39.5C 89.523,39.7153 91.8563,39.7153 94.5,39.5C 96.2554,38.9278 97.9221,38.0945 99.5,37C 98.3982,33.94 99.3982,33.1066 102.5,34.5C 103.672,34.0814 104.672,33.4147 105.5,32.5C 103.577,31.6922 101.577,31.1922 99.5,31C 102.5,30.6667 105.5,30.3333 108.5,30C 107.167,29.3333 105.833,28.6667 104.5,28C 106.488,27.8195 108.488,27.9862 110.5,28.5 Z"/></g>
<g><path style="opacity:1" fill="#151010" d="M 87.5,39.5 C 86.209,39.2627 85.209,39.596 84.5,40.5C 83.3915,41.29 82.0581,41.79 80.5,42C 79.7476,42.6708 79.4142,43.5041 79.5,44.5C 73.8495,43.922 68.1829,43.2553 62.5,42.5C 61.1413,40.694 61.4746,39.194 63.5,38C 62.8333,37.6667 62.1667,37.3333 61.5,37C 62.5,36.1667 63.5,35.3333 64.5,34.5C 64.2907,33.914 63.9574,33.414 63.5,33C 64.7101,31.9609 65.7101,30.7942 66.5,29.5C 66.8333,28.5 67.5,27.8333 68.5,27.5C 70.9237,26.9695 73.257,26.1362 75.5,25C 78.1667,24.3333 80.8333,24.3333 83.5,25C 82.5,25.3333 81.5,25.6667 80.5,26C 82.5,26.3333 84.5,26.6667 86.5,27C 85.1667,27.3333 83.8333,27.6667 82.5,28C 81.5494,28.7175 81.3828,29.5509 82,30.5C 83.9472,31.1097 85.7806,31.9431 87.5,33C 86.8333,33.3333 86.1667,33.6667 85.5,34C 87.5,34.3333 89.5,34.6667 91.5,35C 88.7737,35.1816 86.1071,35.6816 83.5,36.5C 84.6243,37.8592 85.9577,38.8592 87.5,39.5 Z"/></g>
<g><path style="opacity:1" fill="#35251f" d="M 132.5,44.5 C 131.167,44.5 129.833,44.5 128.5,44.5C 123.006,43.6354 117.339,42.9688 111.5,42.5C 108.41,42.7519 105.41,43.4186 102.5,44.5C 101.151,44.1543 99.8175,43.821 98.5,43.5C 98.0618,43.5654 97.7284,43.3988 97.5,43C 98.91,42.6322 99.91,41.7989 100.5,40.5C 99.45,38.8983 100.117,38.065 102.5,38C 102.167,37.6667 101.833,37.3333 101.5,37C 103.471,36.9856 105.471,37.3189 107.5,38C 108.914,39.5484 110.58,40.215 112.5,40C 111.672,39.0853 110.672,38.4186 109.5,38C 110.416,37.7216 111.082,37.2216 111.5,36.5C 112.15,36.1961 112.817,35.8627 113.5,35.5C 117.53,37.8664 121.697,38.8664 126,38.5C 127.287,41.1446 129.453,42.1446 132.5,41.5C 132.5,42.5 132.5,43.5 132.5,44.5 Z"/></g>
<g><path style="opacity:1" fill="#22130c" d="M 66.5,29.5 C 65.7101,30.7942 64.7101,31.9609 63.5,33C 63.9574,33.414 64.2907,33.914 64.5,34.5C 63.5,35.3333 62.5,36.1667 61.5,37C 62.1667,37.3333 62.8333,37.6667 63.5,38C 61.4746,39.194 61.1413,40.694 62.5,42.5C 68.1829,43.2553 73.8495,43.922 79.5,44.5C 81.0481,44.8212 81.7148,45.8212 81.5,47.5C 77.6286,47.185 73.9619,47.5184 70.5,48.5C 69.209,48.2627 68.209,48.596 67.5,49.5C 66.0328,49.1062 64.5328,48.7728 63,48.5C 61.3009,48.3866 60.1342,49.0532 59.5,50.5C 59.5,50.8333 59.5,51.1667 59.5,51.5C 58.391,51.5569 57.391,51.8902 56.5,52.5C 55.8826,52.6107 55.3826,52.944 55,53.5C 54.6667,59.5 54.3333,65.5 54,71.5C 53.7679,72.7375 53.2679,73.7375 52.5,74.5C 51.1704,65.1165 51.5038,55.7831 53.5,46.5C 56.0112,39.3366 60.3445,33.6699 66.5,29.5 Z"/></g>
<g><path style="opacity:1" fill="#423028" d="M 84.5,40.5 C 87.5694,42.1317 90.9027,43.1317 94.5,43.5C 93.1985,44.926 91.6985,46.2593 90,47.5C 87.2501,46.7089 84.4168,46.7089 81.5,47.5C 81.7148,45.8212 81.0481,44.8212 79.5,44.5C 79.4142,43.5041 79.7476,42.6708 80.5,42C 82.0581,41.79 83.3915,41.29 84.5,40.5 Z"/></g>
<g><path style="opacity:1" fill="#583b2b" d="M 128.5,44.5 C 122.974,44.1786 117.64,44.5119 112.5,45.5C 111.5,46.1667 110.5,46.8333 109.5,47.5C 109.167,47.5 108.833,47.5 108.5,47.5C 102.788,47.4561 97.1215,47.2894 91.5,47C 92.1667,47.3333 92.8333,47.6667 93.5,48C 90.208,48.8605 86.8747,49.3605 83.5,49.5C 79.2648,48.564 74.9315,48.2307 70.5,48.5C 73.9619,47.5184 77.6286,47.185 81.5,47.5C 84.4168,46.7089 87.2501,46.7089 90,47.5C 91.6985,46.2593 93.1985,44.926 94.5,43.5C 95.9613,44.6857 97.2946,44.6857 98.5,43.5C 99.8175,43.821 101.151,44.1543 102.5,44.5C 105.41,43.4186 108.41,42.7519 111.5,42.5C 117.339,42.9688 123.006,43.6354 128.5,44.5 Z"/></g>
<g><path style="opacity:1" fill="#e8a97e" d="M 129.5,49.5 C 129.297,51.3904 129.963,52.8904 131.5,54C 130.346,54.9138 130.513,55.7471 132,56.5C 132.667,61.5 132.667,66.5 132,71.5C 130.79,74.503 129.29,77.1696 127.5,79.5C 126.167,79.5 124.833,79.5 123.5,79.5C 123.213,76.5159 121.546,75.1826 118.5,75.5C 119.609,74.71 120.942,74.21 122.5,74C 119.358,71.762 117.358,68.762 116.5,65C 119.511,60.0538 119.845,55.0538 117.5,50C 117.833,49.6667 118.167,49.3333 118.5,49C 115.854,48.5026 113.187,48.3359 110.5,48.5C 109.833,48.5 109.167,48.5 108.5,48.5C 108.5,48.1667 108.5,47.8333 108.5,47.5C 108.833,47.5 109.167,47.5 109.5,47.5C 115.159,46.8003 120.825,46.6336 126.5,47C 127.373,48.045 128.373,48.8783 129.5,49.5 Z"/></g>
<g><path style="opacity:1" fill="#201714" d="M 120.5,15.5 C 118.856,15.2865 117.356,15.6198 116,16.5C 114.192,14.6041 112.025,14.1041 109.5,15C 114.563,16.3285 114.229,17.3285 108.5,18C 110.762,18.7012 111.762,19.8678 111.5,21.5C 113.224,20.3387 114.89,20.5053 116.5,22C 112.864,22.6264 112.864,23.7931 116.5,25.5C 115.975,26.1924 115.308,26.6924 114.5,27C 117.464,27.8403 117.797,28.8403 115.5,30C 117.125,30.8525 117.458,31.8525 116.5,33C 119.548,35.9618 123.215,37.4618 127.5,37.5C 127.5,36.1667 127.5,34.8333 127.5,33.5C 128.978,33.238 130.311,33.5713 131.5,34.5C 132.14,39.8348 135.14,43.0015 140.5,44C 141.09,45.5095 141.756,47.0095 142.5,48.5C 142.833,48.3333 143.167,48.1667 143.5,48C 146.784,44.2099 146.95,40.3766 144,36.5C 142.23,37.2764 140.397,37.1097 138.5,36C 139.167,35.6667 139.833,35.3333 140.5,35C 137.989,32.6745 136.656,29.8411 136.5,26.5C 141.612,30.0693 145.278,34.736 147.5,40.5C 147.833,42.5 148.167,44.5 148.5,46.5C 147.475,47.3739 146.808,48.5405 146.5,50C 148.547,61.9616 147.214,62.4616 142.5,51.5C 139.742,49.9129 137.075,48.2462 134.5,46.5C 133.833,45.8333 133.167,45.1667 132.5,44.5C 132.5,43.5 132.5,42.5 132.5,41.5C 129.453,42.1446 127.287,41.1446 126,38.5C 121.697,38.8664 117.53,37.8664 113.5,35.5C 112.817,35.8627 112.15,36.1961 111.5,36.5C 110.711,36.2172 110.044,35.7172 109.5,35C 110.833,34.6667 112.167,34.3333 113.5,34C 111.5,33.3333 109.5,32.6667 107.5,32C 108.833,31.6667 110.167,31.3333 111.5,31C 108.833,30.3333 108.833,29.6667 111.5,29C 111.272,28.6012 110.938,28.4346 110.5,28.5C 109.897,27.3652 109.564,26.3652 109.5,25.5C 108.398,23.9081 109.065,23.0748 111.5,23C 109.953,21.6134 108.287,20.4467 106.5,19.5C 105.158,18.207 103.491,17.3736 101.5,17C 102.833,16.3333 104.167,15.6667 105.5,15C 103.101,14.289 100.768,14.4557 98.5,15.5C 97.7025,15.0431 97.3691,14.3764 97.5,13.5C 99.3432,12.7171 101.343,12.0505 103.5,11.5C 109.481,11.9665 115.148,13.2998 120.5,15.5 Z"/></g>
<g><path style="opacity:1" fill="#6c4026" d="M 67.5,49.5 C 67.1667,50.1667 66.8333,50.8333 66.5,51.5C 64.6096,51.7035 63.1096,51.0368 62,49.5C 61.3292,50.2524 60.4959,50.5858 59.5,50.5C 60.1342,49.0532 61.3009,48.3866 63,48.5C 64.5328,48.7728 66.0328,49.1062 67.5,49.5 Z"/></g>
<g><path style="opacity:1" fill="#ab8670" d="M 108.5,47.5 C 108.5,47.8333 108.5,48.1667 108.5,48.5C 100.259,50.8249 91.9256,51.4916 83.5,50.5C 83.5,50.1667 83.5,49.8333 83.5,49.5C 86.8747,49.3605 90.208,48.8605 93.5,48C 92.8333,47.6667 92.1667,47.3333 91.5,47C 97.1215,47.2894 102.788,47.4561 108.5,47.5 Z"/></g>
<g><path style="opacity:0.288" fill="#421e02" d="M 147.5,40.5 C 149.935,44.7986 151.602,49.4653 152.5,54.5C 151.527,56.9479 151.194,59.6146 151.5,62.5C 151.167,62.5 150.833,62.5 150.5,62.5C 150.83,56.9902 150.164,51.6569 148.5,46.5C 148.167,44.5 147.833,42.5 147.5,40.5 Z"/></g>
<g><path style="opacity:0.114" fill="#4d2902" d="M 53.5,46.5 C 51.5038,55.7831 51.1704,65.1165 52.5,74.5C 52.5,74.8333 52.5,75.1667 52.5,75.5C 52.1667,75.5 51.8333,75.5 51.5,75.5C 50.5432,68.5226 50.3766,61.5226 51,54.5C 51.2794,51.5432 52.1127,48.8766 53.5,46.5 Z"/></g>
<g><path style="opacity:1" fill="#3e2011" d="M 56.5,52.5 C 56.5,58.5 56.5,64.5 56.5,70.5C 54.941,73.8683 54.1077,77.5349 54,81.5C 53.7679,80.2625 53.2679,79.2625 52.5,78.5C 52.5,77.5 52.5,76.5 52.5,75.5C 52.5,75.1667 52.5,74.8333 52.5,74.5C 53.2679,73.7375 53.7679,72.7375 54,71.5C 54.3333,65.5 54.6667,59.5 55,53.5C 55.3826,52.944 55.8826,52.6107 56.5,52.5 Z"/></g>
<g><path style="opacity:1" fill="#f3c6ae" d="M 108.5,48.5 C 109.167,48.5 109.833,48.5 110.5,48.5C 109.924,51.1268 111.258,52.6268 114.5,53C 113.671,54.8161 112.837,56.6494 112,58.5C 111.667,58.1667 111.333,57.8333 111,57.5C 109.833,60 108,61.8333 105.5,63C 106.047,65.3668 107.047,67.5334 108.5,69.5C 107.58,71.9717 108.58,73.6384 111.5,74.5C 108.529,76.4255 105.196,77.7589 101.5,78.5C 98.486,76.8276 95.3193,75.4942 92,74.5C 91.3333,75.1667 90.6667,75.8333 90,76.5C 88.2613,74.7166 86.4279,73.0499 84.5,71.5C 83.1585,73.0049 81.4918,73.6715 79.5,73.5C 79.5,68.8333 79.5,64.1667 79.5,59.5C 74.5637,59.059 74.2303,57.559 78.5,55C 77.8333,54.6667 77.1667,54.3333 76.5,54C 77.6843,52.8545 77.6843,51.6879 76.5,50.5C 78.8333,50.5 81.1667,50.5 83.5,50.5C 91.9256,51.4916 100.259,50.8249 108.5,48.5 Z"/></g>
<g><path style="opacity:1" fill="#382924" d="M 134.5,46.5 C 137.075,48.2462 139.742,49.9129 142.5,51.5C 147.214,62.4616 148.547,61.9616 146.5,50C 146.808,48.5405 147.475,47.3739 148.5,46.5C 150.164,51.6569 150.83,56.9902 150.5,62.5C 149.548,68.0748 149.214,73.7414 149.5,79.5C 148.288,78.7701 147.288,77.7701 146.5,76.5C 146.222,69.6631 144.222,63.6631 140.5,58.5C 138.353,55.2643 136.353,51.2643 134.5,46.5 Z"/></g>
<g><path style="opacity:1" fill="#c7885c" d="M 66.5,51.5 C 66.5,51.8333 66.5,52.1667 66.5,52.5C 64.1504,54.9919 62.1504,57.1585 60.5,59C 61.6033,64.4836 61.6033,69.9836 60.5,75.5C 59.8333,76.8333 59.1667,78.1667 58.5,79.5C 58.7091,71.9733 58.3758,64.4733 57.5,57C 57.3948,54.8218 58.0615,52.9885 59.5,51.5C 59.5,51.1667 59.5,50.8333 59.5,50.5C 60.4959,50.5858 61.3292,50.2524 62,49.5C 63.1096,51.0368 64.6096,51.7035 66.5,51.5 Z"/></g>
<g><path style="opacity:1" fill="#e1a275" d="M 66.5,52.5 C 68.0265,53.4919 68.6932,54.9919 68.5,57C 67.9011,61.4885 67.4011,65.9885 67,70.5C 65.2664,72.7341 63.0997,74.4008 60.5,75.5C 61.6033,69.9836 61.6033,64.4836 60.5,59C 62.1504,57.1585 64.1504,54.9919 66.5,52.5 Z"/></g>
<g><path style="opacity:0.114" fill="#563001" d="M 152.5,54.5 C 152.736,62.5417 152.403,70.5417 151.5,78.5C 151.5,79.1667 151.167,79.5 150.5,79.5C 151.22,73.8623 151.553,68.1956 151.5,62.5C 151.194,59.6146 151.527,56.9479 152.5,54.5 Z"/></g>
<g><path style="opacity:1" fill="#d8a483" d="M 70.5,48.5 C 74.9315,48.2307 79.2648,48.564 83.5,49.5C 83.5,49.8333 83.5,50.1667 83.5,50.5C 81.1667,50.5 78.8333,50.5 76.5,50.5C 73.9412,50.3896 71.6079,51.0562 69.5,52.5C 69.9867,53.4461 70.3201,54.4461 70.5,55.5C 69.7639,60.8035 69.2639,66.1368 69,71.5C 67.8777,73.4205 67.0444,75.4205 66.5,77.5C 69.7131,77.19 72.7131,77.5233 75.5,78.5C 71.4862,78.3345 67.4862,78.5012 63.5,79C 62.5842,79.2784 61.9175,79.7784 61.5,80.5C 60.5,80.5 59.5,80.5 58.5,80.5C 58.5,80.1667 58.5,79.8333 58.5,79.5C 59.1667,78.1667 59.8333,76.8333 60.5,75.5C 63.0997,74.4008 65.2664,72.7341 67,70.5C 67.4011,65.9885 67.9011,61.4885 68.5,57C 68.6932,54.9919 68.0265,53.4919 66.5,52.5C 66.5,52.1667 66.5,51.8333 66.5,51.5C 66.8333,50.8333 67.1667,50.1667 67.5,49.5C 68.209,48.596 69.209,48.2627 70.5,48.5 Z"/></g>
<g><path style="opacity:1" fill="#7b5139" d="M 112.5,45.5 C 117.64,44.5119 122.974,44.1786 128.5,44.5C 129.833,44.5 131.167,44.5 132.5,44.5C 133.167,45.1667 133.833,45.8333 134.5,46.5C 136.353,51.2643 138.353,55.2643 140.5,58.5C 142.208,67.3905 143.208,76.3905 143.5,85.5C 143.806,88.3854 143.473,91.0521 142.5,93.5C 142.111,88.496 141.611,83.496 141,78.5C 139.796,74.2997 138.129,70.2997 136,66.5C 135.783,61.4473 135.283,56.4473 134.5,51.5C 132.171,49.9895 130.171,48.1562 128.5,46C 123.177,45.5006 117.844,45.334 112.5,45.5 Z"/></g>
<g><path style="opacity:0.929" fill="#230b07" d="M 150.5,62.5 C 150.833,62.5 151.167,62.5 151.5,62.5C 151.553,68.1956 151.22,73.8623 150.5,79.5C 150.5,79.8333 150.5,80.1667 150.5,80.5C 149.833,80.5 149.5,80.1667 149.5,79.5C 149.214,73.7414 149.548,68.0748 150.5,62.5 Z"/></g>
<g><path style="opacity:1" fill="#a5775b" d="M 118.5,75.5 C 121.546,75.1826 123.213,76.5159 123.5,79.5C 122.094,79.9731 121.427,80.9731 121.5,82.5C 120.209,82.7373 119.209,82.404 118.5,81.5C 120.549,81.2942 120.883,80.4609 119.5,79C 115.514,78.5012 111.514,78.3345 107.5,78.5C 111.191,77.6066 114.858,76.6066 118.5,75.5 Z"/></g>
<g><path style="opacity:1" fill="#9f6542" d="M 59.5,51.5 C 58.0615,52.9885 57.3948,54.8218 57.5,57C 58.3758,64.4733 58.7091,71.9733 58.5,79.5C 58.5,79.8333 58.5,80.1667 58.5,80.5C 58.1414,82.4846 57.308,83.1513 56,82.5C 55.6432,78.4896 55.8099,74.4896 56.5,70.5C 56.5,64.5 56.5,58.5 56.5,52.5C 57.391,51.8902 58.391,51.5569 59.5,51.5 Z"/></g>
<g><path style="opacity:1" fill="#4f3425" d="M 140.5,58.5 C 144.222,63.6631 146.222,69.6631 146.5,76.5C 147.288,77.7701 148.288,78.7701 149.5,79.5C 149.5,80.1667 149.833,80.5 150.5,80.5C 149.227,82.7128 148.227,85.0462 147.5,87.5C 146.224,89.5625 145.39,91.8958 145,94.5C 144.819,91.3054 144.319,88.3054 143.5,85.5C 143.208,76.3905 142.208,67.3905 140.5,58.5 Z"/></g>
<g><path style="opacity:1" fill="#5d3820" d="M 75.5,78.5 C 75.5,79.1667 75.8333,79.5 76.5,79.5C 78.3162,81.1366 80.3162,82.6366 82.5,84C 80.5753,83.8651 78.5753,83.6984 76.5,83.5C 72.2083,81.8727 68.2083,82.5394 64.5,85.5C 63.2502,85.5774 62.4169,86.244 62,87.5C 59.1126,85.1629 58.9459,82.8296 61.5,80.5C 61.9175,79.7784 62.5842,79.2784 63.5,79C 67.4862,78.5012 71.4862,78.3345 75.5,78.5 Z"/></g>
<g><path style="opacity:1" fill="#6f4126" d="M 107.5,78.5 C 111.514,78.3345 115.514,78.5012 119.5,79C 120.883,80.4609 120.549,81.2942 118.5,81.5C 113.873,81.3076 109.373,81.9742 105,83.5C 103.317,82.8235 103.15,81.8235 104.5,80.5C 104.973,79.0937 105.973,78.427 107.5,78.5 Z"/></g>
<g><path style="opacity:1" fill="#cc8e67" d="M 129.5,49.5 C 130.474,50.635 131.641,51.635 133,52.5C 133.839,61.557 134.006,70.557 133.5,79.5C 135.103,79.3118 136.437,79.8118 137.5,81C 136.623,96.4188 136.623,111.919 137.5,127.5C 136.143,128.59 135.143,129.924 134.5,131.5C 133.781,129.236 133.448,126.903 133.5,124.5C 133.334,116.826 133.5,109.159 134,101.5C 136.024,98.4195 136.691,95.0861 136,91.5C 135.329,90.7476 134.496,90.4142 133.5,90.5C 132.448,90.3505 131.448,90.5172 130.5,91C 127.319,96.4485 122.986,97.9485 117.5,95.5C 119.559,94.0488 120.559,92.0488 120.5,89.5C 121.807,90.1534 123.14,90.8201 124.5,91.5C 125.624,90.086 126.624,88.586 127.5,87C 131.498,86.5071 132.332,84.6738 130,81.5C 129.005,80.9341 128.172,80.2674 127.5,79.5C 129.29,77.1696 130.79,74.503 132,71.5C 132.667,66.5 132.667,61.5 132,56.5C 130.513,55.7471 130.346,54.9138 131.5,54C 129.963,52.8904 129.297,51.3904 129.5,49.5 Z"/></g>
<g><path style="opacity:1" fill="#c69576" d="M 104.5,80.5 C 103.15,81.8235 103.317,82.8235 105,83.5C 109.373,81.9742 113.873,81.3076 118.5,81.5C 119.209,82.404 120.209,82.7373 121.5,82.5C 121.799,83.7603 121.799,84.927 121.5,86C 120.552,86.4828 119.552,86.6495 118.5,86.5C 115.938,87.18 113.271,87.3467 110.5,87C 112.793,89.6537 115.46,90.1537 118.5,88.5C 118.306,90.9118 116.973,91.9118 114.5,91.5C 112.903,90.9095 111.569,89.9095 110.5,88.5C 108.668,89.2485 107.001,90.2485 105.5,91.5C 104.702,91.0431 104.369,90.3764 104.5,89.5C 105.239,89.631 105.906,89.4643 106.5,89C 104.866,88.5065 103.199,88.3398 101.5,88.5C 101.843,86.5168 101.176,85.1834 99.5,84.5C 99.3505,83.448 99.5172,82.448 100,81.5C 100.333,81.8333 100.667,82.1667 101,82.5C 101.71,81.0267 102.876,80.3601 104.5,80.5 Z"/></g>
<g><path style="opacity:1" fill="#c7a389" d="M 76.5,83.5 C 76.9175,84.2216 77.5842,84.7216 78.5,85C 76.9419,85.21 75.6085,85.71 74.5,86.5C 71.8822,86.7792 69.3822,87.4459 67,88.5C 66.3021,87.3094 65.4687,86.3094 64.5,85.5C 68.2083,82.5394 72.2083,81.8727 76.5,83.5 Z"/></g>
<g><path style="opacity:1" fill="#945c3b" d="M 123.5,79.5 C 124.833,79.5 126.167,79.5 127.5,79.5C 128.172,80.2674 129.005,80.9341 130,81.5C 132.332,84.6738 131.498,86.5071 127.5,87C 126.624,88.586 125.624,90.086 124.5,91.5C 123.14,90.8201 121.807,90.1534 120.5,89.5C 120.158,88.6618 119.492,88.3284 118.5,88.5C 118.5,87.8333 118.5,87.1667 118.5,86.5C 119.552,86.6495 120.552,86.4828 121.5,86C 121.799,84.927 121.799,83.7603 121.5,82.5C 121.427,80.9731 122.094,79.9731 123.5,79.5 Z"/></g>
<g><path style="opacity:1" fill="#845237" d="M 56.5,70.5 C 55.8099,74.4896 55.6432,78.4896 56,82.5C 57.308,83.1513 58.1414,82.4846 58.5,80.5C 59.5,80.5 60.5,80.5 61.5,80.5C 58.9459,82.8296 59.1126,85.1629 62,87.5C 62.4169,86.244 63.2502,85.5774 64.5,85.5C 65.4687,86.3094 66.3021,87.3094 67,88.5C 69.3822,87.4459 71.8822,86.7792 74.5,86.5C 75.5,86.5 76.5,86.5 77.5,86.5C 77.0367,89.2552 75.3701,90.9219 72.5,91.5C 71.596,90.791 71.2627,89.791 71.5,88.5C 70.5,88.5 69.5,88.5 68.5,88.5C 68.7373,89.791 68.404,90.791 67.5,91.5C 66.1851,93.5992 64.5184,93.9326 62.5,92.5C 61.7659,91.2921 61.4326,89.9587 61.5,88.5C 59.5,88.1667 57.5,87.8333 55.5,87.5C 55.2601,90.5788 55.5934,93.5788 56.5,96.5C 55.7666,97.087 54.7666,97.087 53.5,96.5C 52.232,94.3298 52.232,92.1632 53.5,90C 52.1955,89.196 51.5288,88.0293 51.5,86.5C 51.8515,85.2141 52.5182,84.3808 53.5,84C 52.7665,82.2341 52.4332,80.4008 52.5,78.5C 53.2679,79.2625 53.7679,80.2625 54,81.5C 54.1077,77.5349 54.941,73.8683 56.5,70.5 Z"/></g>
<g><path style="opacity:1" fill="#a87a5e" d="M 76.5,79.5 C 79.855,79.6896 82.855,80.6896 85.5,82.5C 85.5,83.5 85.5,84.5 85.5,85.5C 83.4727,85.3379 81.4727,85.5045 79.5,86C 81.286,87.1964 82.6193,88.6964 83.5,90.5C 83.44,91.0431 83.1067,91.3764 82.5,91.5C 80.3019,88.7567 78.3019,88.9233 76.5,92C 74.9343,92.765 73.6009,92.5983 72.5,91.5C 75.3701,90.9219 77.0367,89.2552 77.5,86.5C 76.5,86.5 75.5,86.5 74.5,86.5C 75.6085,85.71 76.9419,85.21 78.5,85C 77.5842,84.7216 76.9175,84.2216 76.5,83.5C 78.5753,83.6984 80.5753,83.8651 82.5,84C 80.3162,82.6366 78.3162,81.1366 76.5,79.5 Z"/></g>
<g><path style="opacity:1" fill="#472513" d="M 118.5,86.5 C 118.5,87.1667 118.5,87.8333 118.5,88.5C 115.46,90.1537 112.793,89.6537 110.5,87C 113.271,87.3467 115.938,87.18 118.5,86.5 Z"/></g>
<g><path style="opacity:1" fill="#eebb9f" d="M 110.5,48.5 C 113.187,48.3359 115.854,48.5026 118.5,49C 118.167,49.3333 117.833,49.6667 117.5,50C 119.845,55.0538 119.511,60.0538 116.5,65C 117.358,68.762 119.358,71.762 122.5,74C 120.942,74.21 119.609,74.71 118.5,75.5C 114.858,76.6066 111.191,77.6066 107.5,78.5C 105.973,78.427 104.973,79.0937 104.5,80.5C 102.876,80.3601 101.71,81.0267 101,82.5C 100.667,82.1667 100.333,81.8333 100,81.5C 99.5172,82.448 99.3505,83.448 99.5,84.5C 99.9234,85.2646 100.257,86.0979 100.5,87C 99.3688,90.0012 97.8688,92.8345 96,95.5C 95.5003,103.827 95.3336,112.16 95.5,120.5C 94.6879,121.993 93.3545,122.66 91.5,122.5C 89.6455,122.66 88.3121,121.993 87.5,120.5C 87.1062,119.033 86.7728,117.533 86.5,116C 87.6427,110.912 88.976,105.912 90.5,101C 90.4838,96.1173 89.1505,91.6173 86.5,87.5C 88.0093,85.38 87.676,83.7133 85.5,82.5C 82.855,80.6896 79.855,79.6896 76.5,79.5C 75.8333,79.5 75.5,79.1667 75.5,78.5C 72.7131,77.5233 69.7131,77.19 66.5,77.5C 67.0444,75.4205 67.8777,73.4205 69,71.5C 69.2639,66.1368 69.7639,60.8035 70.5,55.5C 70.3201,54.4461 69.9867,53.4461 69.5,52.5C 71.6079,51.0562 73.9412,50.3896 76.5,50.5C 77.6843,51.6879 77.6843,52.8545 76.5,54C 77.1667,54.3333 77.8333,54.6667 78.5,55C 74.2303,57.559 74.5637,59.059 79.5,59.5C 79.5,64.1667 79.5,68.8333 79.5,73.5C 81.4918,73.6715 83.1585,73.0049 84.5,71.5C 86.4279,73.0499 88.2613,74.7166 90,76.5C 90.6667,75.8333 91.3333,75.1667 92,74.5C 95.3193,75.4942 98.486,76.8276 101.5,78.5C 105.196,77.7589 108.529,76.4255 111.5,74.5C 108.58,73.6384 107.58,71.9717 108.5,69.5C 107.047,67.5334 106.047,65.3668 105.5,63C 108,61.8333 109.833,60 111,57.5C 111.333,57.8333 111.667,58.1667 112,58.5C 112.837,56.6494 113.671,54.8161 114.5,53C 111.258,52.6268 109.924,51.1268 110.5,48.5 Z"/></g>
<g><path style="opacity:1" fill="#d8967a" d="M 150.5,80.5 C 155.929,80.4259 159.096,83.0925 160,88.5C 160.539,93.7736 159.539,98.7736 157,103.5C 156.292,104.381 155.458,105.047 154.5,105.5C 155.44,101.537 155.607,97.5369 155,93.5C 153.108,94.13 151.441,95.13 150,96.5C 150.663,99.5181 150.496,102.518 149.5,105.5C 147.581,103.579 146.581,101.079 146.5,98C 149.097,92.7454 152.764,88.5787 157.5,85.5C 156.21,84.5923 154.877,84.759 153.5,86C 151.333,87.5 149.5,89.3333 148,91.5C 147.51,90.2068 147.343,88.8734 147.5,87.5C 148.227,85.0462 149.227,82.7128 150.5,80.5 Z"/></g>
<g><path style="opacity:1" fill="#edbfa4" d="M 114.5,91.5 C 115.263,92.2679 116.263,92.7679 117.5,93C 114.953,93.6595 112.453,93.4929 110,92.5C 108.437,93.1021 108.604,93.9354 110.5,95C 109.833,95.3333 109.167,95.6667 108.5,96C 113.188,97.7538 118.021,98.9205 123,99.5C 124.365,99.1557 125.532,98.4891 126.5,97.5C 126.833,100 127.167,102.5 127.5,105C 126.275,110.316 124.942,115.649 123.5,121C 124.167,121.667 124.833,122.333 125.5,123C 123.866,124.308 122.032,125.142 120,125.5C 117.943,124.203 115.776,123.703 113.5,124C 115.384,125.049 116.718,126.549 117.5,128.5C 116.504,128.586 115.671,128.252 115,127.5C 114.517,128.448 114.351,129.448 114.5,130.5C 112.234,130.859 110.401,130.192 109,128.5C 108.348,130.723 106.848,131.89 104.5,132C 99.8452,132.499 95.1785,132.666 90.5,132.5C 88.2646,132.795 86.2646,132.461 84.5,131.5C 87.0895,131.604 89.4229,130.937 91.5,129.5C 93.0293,129.529 94.196,130.196 95,131.5C 96.3149,129.684 97.8149,128.017 99.5,126.5C 101.071,127.309 102.738,127.643 104.5,127.5C 104.575,124.794 104.908,122.127 105.5,119.5C 106.638,116.696 106.805,113.696 106,110.5C 103.372,105.945 101.538,101.112 100.5,96C 100.231,92.682 101.564,90.5153 104.5,89.5C 104.369,90.3764 104.702,91.0431 105.5,91.5C 107.001,90.2485 108.668,89.2485 110.5,88.5C 111.569,89.9095 112.903,90.9095 114.5,91.5 Z"/></g>
<g><path style="opacity:1" fill="#ebb89a" d="M 72.5,91.5 C 73.6009,92.5983 74.9343,92.765 76.5,92C 78.3019,88.9233 80.3019,88.7567 82.5,91.5C 83.1067,91.3764 83.44,91.0431 83.5,90.5C 84.1894,89.2264 85.0228,89.2264 86,90.5C 86.1667,92.1667 86.3333,93.8333 86.5,95.5C 83.5518,104.517 81.8851,113.85 81.5,123.5C 80.9987,126.867 79.832,127.2 78,124.5C 76.4009,125.071 75.2342,126.071 74.5,127.5C 72.9519,127.179 72.2852,126.179 72.5,124.5C 67.8548,124.522 65.5215,122.188 65.5,117.5C 64.2634,116.719 63.2634,115.719 62.5,114.5C 62.5085,108.517 62.5085,102.517 62.5,96.5C 65.3507,97.0121 66.6841,98.6787 66.5,101.5C 68.8568,101.663 71.1902,101.497 73.5,101C 73.1667,100.667 72.8333,100.333 72.5,100C 75.4256,99.313 76.7589,97.4797 76.5,94.5C 73.8127,94.6641 71.146,94.4974 68.5,94C 67.7476,93.3292 67.4142,92.4959 67.5,91.5C 68.404,90.791 68.7373,89.791 68.5,88.5C 69.5,88.5 70.5,88.5 71.5,88.5C 71.2627,89.791 71.596,90.791 72.5,91.5 Z"/></g>
<g><path style="opacity:1" fill="#e1a487" d="M 99.5,84.5 C 101.176,85.1834 101.843,86.5168 101.5,88.5C 103.199,88.3398 104.866,88.5065 106.5,89C 105.906,89.4643 105.239,89.631 104.5,89.5C 101.564,90.5153 100.231,92.682 100.5,96C 101.538,101.112 103.372,105.945 106,110.5C 106.805,113.696 106.638,116.696 105.5,119.5C 105.167,119.5 104.833,119.5 104.5,119.5C 101.373,118.04 98.3728,118.373 95.5,120.5C 95.3336,112.16 95.5003,103.827 96,95.5C 97.8688,92.8345 99.3688,90.0012 100.5,87C 100.257,86.0979 99.9234,85.2646 99.5,84.5 Z"/></g>
<g><path style="opacity:1" fill="#d09375" d="M 85.5,82.5 C 87.676,83.7133 88.0093,85.38 86.5,87.5C 89.1505,91.6173 90.4838,96.1173 90.5,101C 88.976,105.912 87.6427,110.912 86.5,116C 86.7728,117.533 87.1062,119.033 87.5,120.5C 86.5178,119.859 85.5178,119.193 84.5,118.5C 83.7025,118.957 83.3691,119.624 83.5,120.5C 82.8333,121.5 82.1667,122.5 81.5,123.5C 81.8851,113.85 83.5518,104.517 86.5,95.5C 86.3333,93.8333 86.1667,92.1667 86,90.5C 85.0228,89.2264 84.1894,89.2264 83.5,90.5C 82.6193,88.6964 81.286,87.1964 79.5,86C 81.4727,85.5045 83.4727,85.3379 85.5,85.5C 85.5,84.5 85.5,83.5 85.5,82.5 Z"/></g>
<g><path style="opacity:1" fill="#f0bca3" d="M 154.5,105.5 C 153.71,106.401 152.71,107.068 151.5,107.5C 151.5,106.167 150.833,105.5 149.5,105.5C 150.496,102.518 150.663,99.5181 150,96.5C 151.441,95.13 153.108,94.13 155,93.5C 155.607,97.5369 155.44,101.537 154.5,105.5 Z"/></g>
<g><path style="opacity:1" fill="#c38159" d="M 112.5,45.5 C 117.844,45.334 123.177,45.5006 128.5,46C 130.171,48.1562 132.171,49.9895 134.5,51.5C 135.283,56.4473 135.783,61.4473 136,66.5C 138.129,70.2997 139.796,74.2997 141,78.5C 141.611,83.496 142.111,88.496 142.5,93.5C 141.935,98.3222 142.601,102.822 144.5,107C 143.74,108.441 143.074,109.941 142.5,111.5C 143.182,116.781 143.182,122.114 142.5,127.5C 141.5,127.5 140.5,127.5 139.5,127.5C 139.598,129.553 138.931,131.22 137.5,132.5C 137.5,130.833 137.5,129.167 137.5,127.5C 136.623,111.919 136.623,96.4188 137.5,81C 136.437,79.8118 135.103,79.3118 133.5,79.5C 134.006,70.557 133.839,61.557 133,52.5C 131.641,51.635 130.474,50.635 129.5,49.5C 128.373,48.8783 127.373,48.045 126.5,47C 120.825,46.6336 115.159,46.8003 109.5,47.5C 110.5,46.8333 111.5,46.1667 112.5,45.5 Z"/></g>
<g><path style="opacity:0.8" fill="#c37b4e" d="M 151.5,78.5 C 156.603,78.294 159.77,80.6274 161,85.5C 161.488,98.0331 158.321,109.533 151.5,120C 149.846,120.608 148.179,121.108 146.5,121.5C 146.5,120.5 146.5,119.5 146.5,118.5C 147.265,118.923 148.098,119.257 149,119.5C 152.867,116.812 154.534,113.145 154,108.5C 152.667,109.167 151.667,110.167 151,111.5C 150.235,109.934 150.402,108.601 151.5,107.5C 152.71,107.068 153.71,106.401 154.5,105.5C 155.458,105.047 156.292,104.381 157,103.5C 159.539,98.7736 160.539,93.7736 160,88.5C 159.096,83.0925 155.929,80.4259 150.5,80.5C 150.5,80.1667 150.5,79.8333 150.5,79.5C 151.167,79.5 151.5,79.1667 151.5,78.5 Z"/></g>
<g><path style="opacity:1" fill="#d9a17d" d="M 62.5,92.5 C 64.5184,93.9326 66.1851,93.5992 67.5,91.5C 67.4142,92.4959 67.7476,93.3292 68.5,94C 71.146,94.4974 73.8127,94.6641 76.5,94.5C 76.7589,97.4797 75.4256,99.313 72.5,100C 72.8333,100.333 73.1667,100.667 73.5,101C 71.1902,101.497 68.8568,101.663 66.5,101.5C 66.6841,98.6787 65.3507,97.0121 62.5,96.5C 62.5085,102.517 62.5085,108.517 62.5,114.5C 63.2634,115.719 64.2634,116.719 65.5,117.5C 65.5215,122.188 67.8548,124.522 72.5,124.5C 72.2852,126.179 72.9519,127.179 74.5,127.5C 74.5,128.167 74.5,128.833 74.5,129.5C 72.7951,132.287 71.6284,131.954 71,128.5C 68.2886,129.926 65.7886,129.592 63.5,127.5C 62.7252,123.368 62.0586,119.201 61.5,115C 62.0727,110.687 61.4061,106.52 59.5,102.5C 59.8441,99.3799 59.1775,96.5466 57.5,94C 57.6301,92.9412 58.1301,92.1079 59,91.5C 60.0113,92.3366 61.1779,92.67 62.5,92.5 Z"/></g>
<g><path style="opacity:1" fill="#8b5032" d="M 149.5,105.5 C 147.759,109.586 146.759,113.919 146.5,118.5C 146.5,119.5 146.5,120.5 146.5,121.5C 146.451,125.078 145.785,128.411 144.5,131.5C 144.771,129.62 144.104,128.287 142.5,127.5C 143.182,122.114 143.182,116.781 142.5,111.5C 143.074,109.941 143.74,108.441 144.5,107C 142.601,102.822 141.935,98.3222 142.5,93.5C 143.473,91.0521 143.806,88.3854 143.5,85.5C 144.319,88.3054 144.819,91.3054 145,94.5C 145.39,91.8958 146.224,89.5625 147.5,87.5C 147.343,88.8734 147.51,90.2068 148,91.5C 149.5,89.3333 151.333,87.5 153.5,86C 154.877,84.759 156.21,84.5923 157.5,85.5C 152.764,88.5787 149.097,92.7454 146.5,98C 146.581,101.079 147.581,103.579 149.5,105.5 Z"/></g>
<g><path style="opacity:1" fill="#d49478" d="M 149.5,105.5 C 150.833,105.5 151.5,106.167 151.5,107.5C 150.402,108.601 150.235,109.934 151,111.5C 151.667,110.167 152.667,109.167 154,108.5C 154.534,113.145 152.867,116.812 149,119.5C 148.098,119.257 147.265,118.923 146.5,118.5C 146.759,113.919 147.759,109.586 149.5,105.5 Z"/></g>
<g><path style="opacity:1" fill="#e9b594" d="M 118.5,88.5 C 119.492,88.3284 120.158,88.6618 120.5,89.5C 120.559,92.0488 119.559,94.0488 117.5,95.5C 122.986,97.9485 127.319,96.4485 130.5,91C 131.448,90.5172 132.448,90.3505 133.5,90.5C 136.042,93.6384 135.376,96.1384 131.5,98C 132.022,98.5613 132.355,99.228 132.5,100C 131.883,107.155 131.217,114.322 130.5,121.5C 126.744,124.861 122.41,127.194 117.5,128.5C 116.718,126.549 115.384,125.049 113.5,124C 115.776,123.703 117.943,124.203 120,125.5C 122.032,125.142 123.866,124.308 125.5,123C 124.833,122.333 124.167,121.667 123.5,121C 124.942,115.649 126.275,110.316 127.5,105C 127.167,102.5 126.833,100 126.5,97.5C 125.532,98.4891 124.365,99.1557 123,99.5C 118.021,98.9205 113.188,97.7538 108.5,96C 109.167,95.6667 109.833,95.3333 110.5,95C 108.604,93.9354 108.437,93.1021 110,92.5C 112.453,93.4929 114.953,93.6595 117.5,93C 116.263,92.7679 115.263,92.2679 114.5,91.5C 116.973,91.9118 118.306,90.9118 118.5,88.5 Z"/></g>
<g><path style="opacity:1" fill="#ac704f" d="M 62.5,92.5 C 61.1779,92.67 60.0113,92.3366 59,91.5C 58.1301,92.1079 57.6301,92.9412 57.5,94C 59.1775,96.5466 59.8441,99.3799 59.5,102.5C 59.3513,113.117 60.6847,123.451 63.5,133.5C 68.7829,132.297 71.7829,134.297 72.5,139.5C 73.2653,142.096 73.5987,144.763 73.5,147.5C 73.5,148.167 73.1667,148.5 72.5,148.5C 71.5218,146.188 69.8552,144.522 67.5,143.5C 60.6112,132.633 57.1112,120.633 57,107.5C 55.0041,104.092 53.8374,100.425 53.5,96.5C 54.7666,97.087 55.7666,97.087 56.5,96.5C 55.5934,93.5788 55.2601,90.5788 55.5,87.5C 57.5,87.8333 59.5,88.1667 61.5,88.5C 61.4326,89.9587 61.7659,91.2921 62.5,92.5 Z"/></g>
<g><path style="opacity:1" fill="#6d3a1f" d="M 87.5,120.5 C 88.3121,121.993 89.6455,122.66 91.5,122.5C 93.3545,122.66 94.6879,121.993 95.5,120.5C 98.3728,118.373 101.373,118.04 104.5,119.5C 101.547,120.262 98.8804,121.595 96.5,123.5C 95.085,124.289 93.585,124.956 92,125.5C 88.7433,124.459 85.91,122.792 83.5,120.5C 83.3691,119.624 83.7025,118.957 84.5,118.5C 85.5178,119.193 86.5178,119.859 87.5,120.5 Z"/></g>
<g><path style="opacity:1" fill="#daa687" d="M 133.5,90.5 C 134.496,90.4142 135.329,90.7476 136,91.5C 136.691,95.0861 136.024,98.4195 134,101.5C 133.5,109.159 133.334,116.826 133.5,124.5C 131.504,127.674 130.17,131.174 129.5,135C 128.551,135.617 127.718,135.451 127,134.5C 126.333,135.167 125.667,135.833 125,136.5C 124.505,134.527 124.338,132.527 124.5,130.5C 123.5,130.5 122.5,130.5 121.5,130.5C 121.477,132.927 120.977,135.26 120,137.5C 119.51,136.207 119.343,134.873 119.5,133.5C 115.66,132.665 111.994,132.665 108.5,133.5C 102.485,133.571 96.485,133.571 90.5,133.5C 90.5,133.167 90.5,132.833 90.5,132.5C 95.1785,132.666 99.8452,132.499 104.5,132C 106.848,131.89 108.348,130.723 109,128.5C 110.401,130.192 112.234,130.859 114.5,130.5C 114.351,129.448 114.517,128.448 115,127.5C 115.671,128.252 116.504,128.586 117.5,128.5C 122.41,127.194 126.744,124.861 130.5,121.5C 131.217,114.322 131.883,107.155 132.5,100C 132.355,99.228 132.022,98.5613 131.5,98C 135.376,96.1384 136.042,93.6384 133.5,90.5 Z"/></g>
<g><path style="opacity:1" fill="#c89d83" d="M 104.5,119.5 C 104.833,119.5 105.167,119.5 105.5,119.5C 104.908,122.127 104.575,124.794 104.5,127.5C 102.738,127.643 101.071,127.309 99.5,126.5C 97.8149,128.017 96.3149,129.684 95,131.5C 94.196,130.196 93.0293,129.529 91.5,129.5C 89.4229,130.937 87.0895,131.604 84.5,131.5C 82.1774,132.778 79.6774,133.778 77,134.5C 75.124,133.381 74.2907,131.714 74.5,129.5C 74.5,128.833 74.5,128.167 74.5,127.5C 75.2342,126.071 76.4009,125.071 78,124.5C 79.832,127.2 80.9987,126.867 81.5,123.5C 82.1667,122.5 82.8333,121.5 83.5,120.5C 83.33,121.822 83.6634,122.989 84.5,124C 87.2045,125.846 90.2045,127.013 93.5,127.5C 95.2882,126.717 96.2882,125.384 96.5,123.5C 98.8804,121.595 101.547,120.262 104.5,119.5 Z"/></g>
<g><path style="opacity:1" fill="#936750" d="M 83.5,120.5 C 85.91,122.792 88.7433,124.459 92,125.5C 93.585,124.956 95.085,124.289 96.5,123.5C 96.2882,125.384 95.2882,126.717 93.5,127.5C 90.2045,127.013 87.2045,125.846 84.5,124C 83.6634,122.989 83.33,121.822 83.5,120.5 Z"/></g>
<g><path style="opacity:1" fill="#925f42" d="M 142.5,127.5 C 141.277,130.274 139.777,132.941 138,135.5C 137.184,136.823 136.017,137.489 134.5,137.5C 134.259,134.966 135.259,133.3 137.5,132.5C 138.931,131.22 139.598,129.553 139.5,127.5C 140.5,127.5 141.5,127.5 142.5,127.5 Z"/></g>
<g><path style="opacity:0.486" fill="#8a4e26" d="M 51.5,75.5 C 51.8333,75.5 52.1667,75.5 52.5,75.5C 52.5,76.5 52.5,77.5 52.5,78.5C 52.4332,80.4008 52.7665,82.2341 53.5,84C 52.5182,84.3808 51.8515,85.2141 51.5,86.5C 51.5288,88.0293 52.1955,89.196 53.5,90C 52.232,92.1632 52.232,94.3298 53.5,96.5C 53.8374,100.425 55.0041,104.092 57,107.5C 57.1112,120.633 60.6112,132.633 67.5,143.5C 67.5,144.167 67.1667,144.5 66.5,144.5C 62.0099,138.518 58.8432,131.851 57,124.5C 55.6454,113.705 53.6454,103.038 51,92.5C 50.5314,86.8185 50.6981,81.1518 51.5,75.5 Z"/></g>
<g><path style="opacity:1" fill="#904330" d="M 90.5,133.5 C 96.485,133.571 102.485,133.571 108.5,133.5C 113.751,134.519 113.751,135.519 108.5,136.5C 100.105,136.187 91.7717,136.187 83.5,136.5C 82.8333,136.5 82.1667,136.5 81.5,136.5C 81.1667,136.5 80.8333,136.5 80.5,136.5C 80.3893,135.883 80.056,135.383 79.5,135C 83.1135,134.064 86.7802,133.564 90.5,133.5 Z"/></g>
<g><path style="opacity:1" fill="#c28b6b" d="M 59.5,102.5 C 61.4061,106.52 62.0727,110.687 61.5,115C 62.0586,119.201 62.7252,123.368 63.5,127.5C 65.7886,129.592 68.2886,129.926 71,128.5C 71.6284,131.954 72.7951,132.287 74.5,129.5C 74.2907,131.714 75.124,133.381 77,134.5C 79.6774,133.778 82.1774,132.778 84.5,131.5C 86.2646,132.461 88.2646,132.795 90.5,132.5C 90.5,132.833 90.5,133.167 90.5,133.5C 86.7802,133.564 83.1135,134.064 79.5,135C 80.056,135.383 80.3893,135.883 80.5,136.5C 78.8333,136.5 77.1667,136.5 75.5,136.5C 75.7373,137.791 75.404,138.791 74.5,139.5C 73.8333,139.5 73.1667,139.5 72.5,139.5C 71.7829,134.297 68.7829,132.297 63.5,133.5C 60.6847,123.451 59.3513,113.117 59.5,102.5 Z"/></g>
<g><path style="opacity:1" fill="#e49885" d="M 108.5,136.5 C 108.817,140.172 107.151,141.838 103.5,141.5C 97.1755,140.975 90.8422,140.475 84.5,140C 83.6634,138.989 83.33,137.822 83.5,136.5C 91.7717,136.187 100.105,136.187 108.5,136.5 Z"/></g>
<g><path style="opacity:1" fill="#b38061" d="M 137.5,127.5 C 137.5,129.167 137.5,130.833 137.5,132.5C 135.259,133.3 134.259,134.966 134.5,137.5C 132.153,138.684 130.153,140.351 128.5,142.5C 124.937,143.392 121.604,144.725 118.5,146.5C 117.89,145.609 117.557,144.609 117.5,143.5C 115.693,139.476 116.859,138.142 121,139.5C 123.241,137.004 125.241,137.337 127,140.5C 128.188,139.437 128.688,138.103 128.5,136.5C 132.384,136.942 134.384,135.275 134.5,131.5C 135.143,129.924 136.143,128.59 137.5,127.5 Z"/></g>
<g><path style="opacity:0.737" fill="#1b1005" d="M 145.5,136.5 C 146.167,136.5 146.833,136.5 147.5,136.5C 153.5,143.5 159.5,150.5 165.5,157.5C 163.833,157.5 162.167,157.5 160.5,157.5C 160.649,156.448 160.483,155.448 160,154.5C 156.635,150.307 153.135,146.307 149.5,142.5C 149.262,140.596 148.262,139.262 146.5,138.5C 146.167,137.833 145.833,137.167 145.5,136.5 Z"/></g>
<g><path style="opacity:1" fill="#5f3e29" d="M 142.5,127.5 C 144.104,128.287 144.771,129.62 144.5,131.5C 144.31,133.959 145.31,135.626 147.5,136.5C 146.833,136.5 146.167,136.5 145.5,136.5C 144.833,136.167 144.167,135.833 143.5,135.5C 143.649,134.448 143.483,133.448 143,132.5C 140.557,139.112 136.057,143.445 129.5,145.5C 131.002,142.746 132.669,140.079 134.5,137.5C 136.017,137.489 137.184,136.823 138,135.5C 139.777,132.941 141.277,130.274 142.5,127.5 Z"/></g>
<g><path style="opacity:1" fill="#c69b80" d="M 133.5,124.5 C 133.448,126.903 133.781,129.236 134.5,131.5C 134.384,135.275 132.384,136.942 128.5,136.5C 128.688,138.103 128.188,139.437 127,140.5C 125.241,137.337 123.241,137.004 121,139.5C 116.859,138.142 115.693,139.476 117.5,143.5C 116.883,143.611 116.383,143.944 116,144.5C 115.577,143.044 114.744,142.544 113.5,143C 111.623,145.126 110.623,147.626 110.5,150.5C 106.851,150.954 103.351,151.954 100,153.5C 98.1564,152.422 96.1564,151.755 94,151.5C 91.3274,152.094 88.8274,152.094 86.5,151.5C 79.5021,150.502 75.5021,146.502 74.5,139.5C 75.404,138.791 75.7373,137.791 75.5,136.5C 77.1667,136.5 78.8333,136.5 80.5,136.5C 80.8333,136.5 81.1667,136.5 81.5,136.5C 81.0357,139.002 82.0357,141.168 84.5,143C 87.6667,143.167 90.8333,143.333 94,143.5C 97.5758,143.485 100.742,142.818 103.5,141.5C 107.151,141.838 108.817,140.172 108.5,136.5C 113.751,135.519 113.751,134.519 108.5,133.5C 111.994,132.665 115.66,132.665 119.5,133.5C 119.343,134.873 119.51,136.207 120,137.5C 120.977,135.26 121.477,132.927 121.5,130.5C 122.5,130.5 123.5,130.5 124.5,130.5C 124.338,132.527 124.505,134.527 125,136.5C 125.667,135.833 126.333,135.167 127,134.5C 127.718,135.451 128.551,135.617 129.5,135C 130.17,131.174 131.504,127.674 133.5,124.5 Z"/></g>
<g><path style="opacity:1" fill="#a2694f" d="M 81.5,136.5 C 82.1667,136.5 82.8333,136.5 83.5,136.5C 83.33,137.822 83.6634,138.989 84.5,140C 90.8422,140.475 97.1755,140.975 103.5,141.5C 100.742,142.818 97.5758,143.485 94,143.5C 90.8333,143.333 87.6667,143.167 84.5,143C 82.0357,141.168 81.0357,139.002 81.5,136.5 Z"/></g>
<g><path style="opacity:1" fill="#4b3022" d="M 143.5,135.5 C 142.833,137.833 142.167,140.167 141.5,142.5C 140.883,142.389 140.383,142.056 140,141.5C 135.694,145.14 131.694,149.14 128,153.5C 127.692,152.692 127.192,152.025 126.5,151.5C 124.556,152.189 122.556,152.689 120.5,153C 119.405,154.675 117.905,155.842 116,156.5C 115.536,155.906 115.369,155.239 115.5,154.5C 119.14,150.007 123.807,147.007 129.5,145.5C 136.057,143.445 140.557,139.112 143,132.5C 143.483,133.448 143.649,134.448 143.5,135.5 Z"/></g>
<g><path style="opacity:1" fill="#1f2026" d="M 146.5,138.5 C 148.262,139.262 149.262,140.596 149.5,142.5C 149.423,143.75 148.756,144.583 147.5,145C 148.804,145.804 149.471,146.971 149.5,148.5C 146.405,152.024 144.405,156.024 143.5,160.5C 141.058,160.119 140.391,160.786 141.5,162.5C 140.624,163.251 139.624,163.751 138.5,164C 138.957,164.414 139.291,164.914 139.5,165.5C 138.311,166.429 136.978,166.762 135.5,166.5C 135.715,168.179 135.048,169.179 133.5,169.5C 133.5,168.833 133.5,168.167 133.5,167.5C 137.953,162.033 141.619,156.033 144.5,149.5C 145.222,149.082 145.722,148.416 146,147.5C 146.498,144.518 146.665,141.518 146.5,138.5 Z"/></g>
<g><path style="opacity:1" fill="#ae8c77" d="M 117.5,143.5 C 117.557,144.609 117.89,145.609 118.5,146.5C 114.4,146.663 111.734,148.663 110.5,152.5C 109.15,153.95 107.484,154.617 105.5,154.5C 102.406,155.934 99.0728,156.601 95.5,156.5C 91.0998,156.982 88.0998,155.316 86.5,151.5C 88.8274,152.094 91.3274,152.094 94,151.5C 96.1564,151.755 98.1564,152.422 100,153.5C 103.351,151.954 106.851,150.954 110.5,150.5C 110.623,147.626 111.623,145.126 113.5,143C 114.744,142.544 115.577,143.044 116,144.5C 116.383,143.944 116.883,143.611 117.5,143.5 Z"/></g>
<g><path style="opacity:1" fill="#9c7a66" d="M 72.5,139.5 C 73.1667,139.5 73.8333,139.5 74.5,139.5C 75.5021,146.502 79.5021,150.502 86.5,151.5C 88.0998,155.316 91.0998,156.982 95.5,156.5C 99.0728,156.601 102.406,155.934 105.5,154.5C 105.64,156.124 104.973,157.29 103.5,158C 100.139,158.337 96.8058,158.837 93.5,159.5C 90.5804,158.414 87.5804,157.748 84.5,157.5C 80.9473,156.602 79.2806,154.268 79.5,150.5C 78.1667,150.5 76.8333,150.5 75.5,150.5C 75.6567,149.127 75.49,147.793 75,146.5C 74.6174,147.056 74.1174,147.389 73.5,147.5C 73.5987,144.763 73.2653,142.096 72.5,139.5 Z"/></g>
<g><path style="opacity:1" fill="#0b0b10" d="M 66.5,148.5 C 67.1667,148.5 67.5,148.833 67.5,149.5C 67.5,152.5 67.5,155.5 67.5,158.5C 65.9773,166.764 64.3106,175.098 62.5,183.5C 60.8224,188.568 60.1557,193.902 60.5,199.5C 40.1667,199.5 19.8333,199.5 -0.5,199.5C -0.5,197.167 -0.5,194.833 -0.5,192.5C 4.4889,192.184 9.32223,191.184 14,189.5C 17.5989,191.356 21.4323,191.523 25.5,190C 27.8384,188.838 29.1717,187.004 29.5,184.5C 33.7674,183.962 37.7674,182.628 41.5,180.5C 42.3635,178.229 42.3635,175.895 41.5,173.5C 43.5,173.5 45.5,173.5 47.5,173.5C 47.5,171.833 47.5,170.167 47.5,168.5C 52.5189,169.215 55.1856,167.382 55.5,163C 52.4929,162.699 49.4929,162.865 46.5,163.5C 46.7394,165.467 46.4061,167.301 45.5,169C 41.3519,168.102 37.0185,167.602 32.5,167.5C 41.8443,162.834 51.511,158.667 61.5,155C 63.0657,152.674 64.7324,150.508 66.5,148.5 Z"/></g>
<g><path style="opacity:1" fill="#876856" d="M 134.5,137.5 C 132.669,140.079 131.002,142.746 129.5,145.5C 123.807,147.007 119.14,150.007 115.5,154.5C 113.519,156.144 111.519,157.81 109.5,159.5C 107.224,158.798 104.891,158.965 102.5,160C 97.8333,160.667 93.1667,160.667 88.5,160C 86.9336,159.392 85.6002,158.558 84.5,157.5C 87.5804,157.748 90.5804,158.414 93.5,159.5C 96.8058,158.837 100.139,158.337 103.5,158C 104.973,157.29 105.64,156.124 105.5,154.5C 107.484,154.617 109.15,153.95 110.5,152.5C 111.734,148.663 114.4,146.663 118.5,146.5C 121.604,144.725 124.937,143.392 128.5,142.5C 130.153,140.351 132.153,138.684 134.5,137.5 Z"/></g>
<g><path style="opacity:1" fill="#847f80" d="M 143.5,135.5 C 144.167,135.833 144.833,136.167 145.5,136.5C 145.833,137.167 146.167,137.833 146.5,138.5C 146.665,141.518 146.498,144.518 146,147.5C 145.722,148.416 145.222,149.082 144.5,149.5C 143.883,149.389 143.383,149.056 143,148.5C 140.471,153.793 136.804,158.126 132,161.5C 129.804,159.853 127.971,160.187 126.5,162.5C 124.787,162.121 123.787,161.121 123.5,159.5C 130.787,155.213 136.787,149.546 141.5,142.5C 142.167,140.167 142.833,137.833 143.5,135.5 Z"/></g>
<g><path style="opacity:1" fill="#543e33" d="M 141.5,142.5 C 136.787,149.546 130.787,155.213 123.5,159.5C 121.33,161.086 118.996,162.42 116.5,163.5C 116.44,162.957 116.107,162.624 115.5,162.5C 112.891,163.23 110.224,163.73 107.5,164C 106.069,164.465 104.903,165.299 104,166.5C 103.383,165.551 103.549,164.718 104.5,164C 99.4814,163.665 94.4814,163.165 89.5,162.5C 84.853,160.856 80.5197,158.856 76.5,156.5C 76.47,153.148 75.1367,150.482 72.5,148.5C 73.1667,148.5 73.5,148.167 73.5,147.5C 74.1174,147.389 74.6174,147.056 75,146.5C 75.49,147.793 75.6567,149.127 75.5,150.5C 76.8333,150.5 78.1667,150.5 79.5,150.5C 79.2806,154.268 80.9473,156.602 84.5,157.5C 85.6002,158.558 86.9336,159.392 88.5,160C 93.1667,160.667 97.8333,160.667 102.5,160C 104.891,158.965 107.224,158.798 109.5,159.5C 111.519,157.81 113.519,156.144 115.5,154.5C 115.369,155.239 115.536,155.906 116,156.5C 117.905,155.842 119.405,154.675 120.5,153C 122.556,152.689 124.556,152.189 126.5,151.5C 127.192,152.025 127.692,152.692 128,153.5C 131.694,149.14 135.694,145.14 140,141.5C 140.383,142.056 140.883,142.389 141.5,142.5 Z"/></g>
<g><path style="opacity:1" fill="#412c22" d="M 67.5,143.5 C 69.8552,144.522 71.5218,146.188 72.5,148.5C 75.1367,150.482 76.47,153.148 76.5,156.5C 80.5197,158.856 84.853,160.856 89.5,162.5C 94.4814,163.165 99.4814,163.665 104.5,164C 103.549,164.718 103.383,165.551 104,166.5C 104.903,165.299 106.069,164.465 107.5,164C 110.224,163.73 112.891,163.23 115.5,162.5C 116.107,162.624 116.44,162.957 116.5,163.5C 115.306,164.272 114.306,165.272 113.5,166.5C 108.587,168.748 103.921,171.415 99.5,174.5C 97.4456,175.609 95.2789,176.609 93,177.5C 90.9149,176.876 89.0816,175.876 87.5,174.5C 78.0678,168.223 71.9012,159.556 69,148.5C 68.6174,149.056 68.1174,149.389 67.5,149.5C 67.5,148.833 67.1667,148.5 66.5,148.5C 67.4054,147.036 67.4054,145.702 66.5,144.5C 67.1667,144.5 67.5,144.167 67.5,143.5 Z"/></g>
<g><path style="opacity:1" fill="#676364" d="M 87.5,174.5 C 87.631,175.239 87.4643,175.906 87,176.5C 83.6927,174.36 80.526,172.026 77.5,169.5C 77.7948,170.826 77.2948,172.159 76,173.5C 75.7104,171.956 75.0437,170.623 74,169.5C 73.6667,170.167 73.3333,170.833 73,171.5C 71.8873,170.695 70.7206,170.028 69.5,169.5C 68.2978,165.952 67.6311,162.285 67.5,158.5C 67.5,155.5 67.5,152.5 67.5,149.5C 68.1174,149.389 68.6174,149.056 69,148.5C 71.9012,159.556 78.0678,168.223 87.5,174.5 Z"/></g>
<g><path style="opacity:1" fill="#11111d" d="M 149.5,142.5 C 153.135,146.307 156.635,150.307 160,154.5C 160.483,155.448 160.649,156.448 160.5,157.5C 160.195,159.919 160.195,162.586 160.5,165.5C 161.873,165.343 163.207,165.51 164.5,166C 165.912,167.791 167.745,168.958 170,169.5C 171.022,168.646 171.855,167.646 172.5,166.5C 170.535,165.708 168.535,165.041 166.5,164.5C 165.571,163.311 165.238,161.978 165.5,160.5C 170.927,162.143 175.927,164.643 180.5,168C 179.062,168.219 177.729,168.719 176.5,169.5C 176.709,170.086 177.043,170.586 177.5,171C 180.734,171.2 183.734,172.033 186.5,173.5C 189.741,171.787 191.741,172.787 192.5,176.5C 195.061,177.132 197.395,178.132 199.5,179.5C 199.5,181.167 199.5,182.833 199.5,184.5C 197.712,185.36 196.045,186.36 194.5,187.5C 193.5,187.5 192.5,187.5 191.5,187.5C 191.5,186.167 191.5,184.833 191.5,183.5C 188.421,183.26 185.421,183.593 182.5,184.5C 180.025,182.766 177.358,181.933 174.5,182C 175.833,182.667 175.833,183.333 174.5,184C 165.838,185.396 164.838,183.729 171.5,179C 168.924,178.394 166.59,178.894 164.5,180.5C 163.328,180.081 162.328,179.415 161.5,178.5C 160.289,179.274 160.289,180.107 161.5,181C 160.23,181.9 159.23,183.066 158.5,184.5C 155.72,185.195 153.053,186.195 150.5,187.5C 145.73,185.464 140.73,184.964 135.5,186C 133.447,187.08 131.28,187.914 129,188.5C 128.727,186.671 127.893,185.171 126.5,184C 128.373,183.047 128.706,181.88 127.5,180.5C 128.942,179.18 129.608,177.514 129.5,175.5C 130.833,173.5 132.167,171.5 133.5,169.5C 135.048,169.179 135.715,168.179 135.5,166.5C 136.978,166.762 138.311,166.429 139.5,165.5C 139.291,164.914 138.957,164.414 138.5,164C 139.624,163.751 140.624,163.251 141.5,162.5C 140.391,160.786 141.058,160.119 143.5,160.5C 144.405,156.024 146.405,152.024 149.5,148.5C 149.471,146.971 148.804,145.804 147.5,145C 148.756,144.583 149.423,143.75 149.5,142.5 Z"/></g>
<g><path style="opacity:1" fill="#6a686a" d="M 144.5,149.5 C 141.619,156.033 137.953,162.033 133.5,167.5C 132.5,167.5 131.5,167.5 130.5,167.5C 130.67,168.822 130.337,169.989 129.5,171C 124.875,171.306 120.375,172.139 116,173.5C 113.747,173.369 111.581,172.869 109.5,172C 111.044,171.71 112.377,171.044 113.5,170C 112.316,168.855 112.316,167.688 113.5,166.5C 114.306,165.272 115.306,164.272 116.5,163.5C 118.996,162.42 121.33,161.086 123.5,159.5C 123.787,161.121 124.787,162.121 126.5,162.5C 127.971,160.187 129.804,159.853 132,161.5C 136.804,158.126 140.471,153.793 143,148.5C 143.383,149.056 143.883,149.389 144.5,149.5 Z"/></g>
<g><path style="opacity:1" fill="#130f11" d="M 160.5,157.5 C 162.167,157.5 163.833,157.5 165.5,157.5C 176.86,163.513 188.194,169.513 199.5,175.5C 199.5,176.833 199.5,178.167 199.5,179.5C 197.395,178.132 195.061,177.132 192.5,176.5C 191.741,172.787 189.741,171.787 186.5,173.5C 183.734,172.033 180.734,171.2 177.5,171C 177.043,170.586 176.709,170.086 176.5,169.5C 177.729,168.719 179.062,168.219 180.5,168C 175.927,164.643 170.927,162.143 165.5,160.5C 165.238,161.978 165.571,163.311 166.5,164.5C 168.535,165.041 170.535,165.708 172.5,166.5C 171.855,167.646 171.022,168.646 170,169.5C 167.745,168.958 165.912,167.791 164.5,166C 163.207,165.51 161.873,165.343 160.5,165.5C 160.195,162.586 160.195,159.919 160.5,157.5 Z"/></g>
<g><path style="opacity:1" fill="#0f0e19" d="M -0.5,192.5 C -0.5,191.5 -0.5,190.5 -0.5,189.5C 3.51383,189.666 7.51383,189.499 11.5,189C 11.4057,187.578 11.0724,186.078 10.5,184.5C 9.57451,183.359 8.74117,183.359 8,184.5C 7.50454,182.527 7.33788,180.527 7.5,178.5C 16.0462,177.197 24.0462,174.364 31.5,170C 32.2524,169.329 32.5858,168.496 32.5,167.5C 37.0185,167.602 41.3519,168.102 45.5,169C 46.4061,167.301 46.7394,165.467 46.5,163.5C 49.4929,162.865 52.4929,162.699 55.5,163C 55.1856,167.382 52.5189,169.215 47.5,168.5C 47.5,170.167 47.5,171.833 47.5,173.5C 45.5,173.5 43.5,173.5 41.5,173.5C 42.3635,175.895 42.3635,178.229 41.5,180.5C 37.7674,182.628 33.7674,183.962 29.5,184.5C 29.1717,187.004 27.8384,188.838 25.5,190C 21.4323,191.523 17.5989,191.356 14,189.5C 9.32223,191.184 4.4889,192.184 -0.5,192.5 Z"/></g>
<g><path style="opacity:1" fill="#595757" d="M 113.5,166.5 C 112.316,167.688 112.316,168.855 113.5,170C 112.377,171.044 111.044,171.71 109.5,172C 111.581,172.869 113.747,173.369 116,173.5C 120.375,172.139 124.875,171.306 129.5,171C 130.337,169.989 130.67,168.822 130.5,167.5C 131.5,167.5 132.5,167.5 133.5,167.5C 133.5,168.167 133.5,168.833 133.5,169.5C 132.167,171.5 130.833,173.5 129.5,175.5C 127.408,175.561 125.908,176.561 125,178.5C 124.692,177.692 124.192,177.025 123.5,176.5C 122.573,178.113 121.739,179.779 121,181.5C 120.691,180.234 120.191,179.067 119.5,178C 113.737,178.295 108.237,178.461 103,178.5C 102.31,176.65 101.144,175.316 99.5,174.5C 103.921,171.415 108.587,168.748 113.5,166.5 Z"/></g>
<g><path style="opacity:1" fill="#3f3e3f" d="M 67.5,158.5 C 67.6311,162.285 68.2978,165.952 69.5,169.5C 70.4462,172.81 70.6129,176.144 70,179.5C 74.7392,176.999 79.5725,176.999 84.5,179.5C 83.0998,180.1 82.0998,181.1 81.5,182.5C 79.4184,182.624 77.9184,183.624 77,185.5C 75.8989,183.606 74.5655,182.939 73,183.5C 71.6228,187.265 70.6228,186.932 70,182.5C 69,183.833 68,183.833 67,182.5C 66,184.167 64.6667,185.5 63,186.5C 62.5172,185.552 62.3505,184.552 62.5,183.5C 64.3106,175.098 65.9773,166.764 67.5,158.5 Z"/></g>
<g><path style="opacity:1" fill="#4a4849" d="M 69.5,169.5 C 70.7206,170.028 71.8873,170.695 73,171.5C 73.3333,170.833 73.6667,170.167 74,169.5C 75.0437,170.623 75.7104,171.956 76,173.5C 77.2948,172.159 77.7948,170.826 77.5,169.5C 80.526,172.026 83.6927,174.36 87,176.5C 87.4643,175.906 87.631,175.239 87.5,174.5C 89.0816,175.876 90.9149,176.876 93,177.5C 95.2789,176.609 97.4456,175.609 99.5,174.5C 101.144,175.316 102.31,176.65 103,178.5C 108.237,178.461 113.737,178.295 119.5,178C 120.191,179.067 120.691,180.234 121,181.5C 121.739,179.779 122.573,178.113 123.5,176.5C 124.192,177.025 124.692,177.692 125,178.5C 125.908,176.561 127.408,175.561 129.5,175.5C 129.608,177.514 128.942,179.18 127.5,180.5C 126.599,181.29 125.932,182.29 125.5,183.5C 124.518,184.141 123.518,184.807 122.5,185.5C 121.808,184.975 121.308,184.308 121,183.5C 120.311,184.357 119.478,185.023 118.5,185.5C 114.735,184.881 111.069,184.548 107.5,184.5C 107.5,183.5 107.5,182.5 107.5,181.5C 106.5,181.5 105.5,181.5 104.5,181.5C 104.715,183.179 104.048,184.179 102.5,184.5C 99.7554,183.263 97.4221,181.43 95.5,179C 91.7446,178.245 88.0779,178.411 84.5,179.5C 79.5725,176.999 74.7392,176.999 70,179.5C 70.6129,176.144 70.4462,172.81 69.5,169.5 Z"/></g>
<g><path style="opacity:1" fill="#0f0b0d" d="M 32.5,167.5 C 32.5858,168.496 32.2524,169.329 31.5,170C 24.0462,174.364 16.0462,177.197 7.5,178.5C 7.33788,180.527 7.50454,182.527 8,184.5C 8.74117,183.359 9.57451,183.359 10.5,184.5C 11.0724,186.078 11.4057,187.578 11.5,189C 7.51383,189.499 3.51383,189.666 -0.5,189.5C -0.5,186.167 -0.5,182.833 -0.5,179.5C 10.6413,175.897 21.6413,171.897 32.5,167.5 Z"/></g>
<g><path style="opacity:1" fill="#383739" d="M 125.5,183.5 C 124.925,185.411 123.925,187.078 122.5,188.5C 121.404,191.032 120.071,193.365 118.5,195.5C 115.671,195.675 114.004,194.342 113.5,191.5C 112.914,191.709 112.414,192.043 112,192.5C 109.698,190.236 107.198,188.236 104.5,186.5C 103.5,186.167 102.833,185.5 102.5,184.5C 104.048,184.179 104.715,183.179 104.5,181.5C 105.5,181.5 106.5,181.5 107.5,181.5C 107.5,182.5 107.5,183.5 107.5,184.5C 111.069,184.548 114.735,184.881 118.5,185.5C 119.478,185.023 120.311,184.357 121,183.5C 121.308,184.308 121.808,184.975 122.5,185.5C 123.518,184.807 124.518,184.141 125.5,183.5 Z"/></g>
<g><path style="opacity:1" fill="#0c0c16" d="M 194.5,187.5 C 195.239,187.369 195.906,187.536 196.5,188C 195.5,189 194.5,190 193.5,191C 176.833,191.667 160.167,191.667 143.5,191C 142.892,190.13 142.059,189.63 141,189.5C 135.997,191.464 130.997,192.13 126,191.5C 125.241,189.937 124.074,188.937 122.5,188.5C 123.925,187.078 124.925,185.411 125.5,183.5C 125.932,182.29 126.599,181.29 127.5,180.5C 128.706,181.88 128.373,183.047 126.5,184C 127.893,185.171 128.727,186.671 129,188.5C 131.28,187.914 133.447,187.08 135.5,186C 140.73,184.964 145.73,185.464 150.5,187.5C 153.053,186.195 155.72,185.195 158.5,184.5C 159.23,183.066 160.23,181.9 161.5,181C 160.289,180.107 160.289,179.274 161.5,178.5C 162.328,179.415 163.328,180.081 164.5,180.5C 166.59,178.894 168.924,178.394 171.5,179C 164.838,183.729 165.838,185.396 174.5,184C 175.833,183.333 175.833,182.667 174.5,182C 177.358,181.933 180.025,182.766 182.5,184.5C 185.421,183.593 188.421,183.26 191.5,183.5C 191.5,184.833 191.5,186.167 191.5,187.5C 192.5,187.5 193.5,187.5 194.5,187.5 Z"/></g>
<g><path style="opacity:1" fill="#090a0f" d="M 199.5,184.5 C 199.5,189.5 199.5,194.5 199.5,199.5C 171.833,199.5 144.167,199.5 116.5,199.5C 116.733,197.938 117.4,196.605 118.5,195.5C 120.071,193.365 121.404,191.032 122.5,188.5C 124.074,188.937 125.241,189.937 126,191.5C 130.997,192.13 135.997,191.464 141,189.5C 142.059,189.63 142.892,190.13 143.5,191C 160.167,191.667 176.833,191.667 193.5,191C 194.5,190 195.5,189 196.5,188C 195.906,187.536 195.239,187.369 194.5,187.5C 196.045,186.36 197.712,185.36 199.5,184.5 Z"/></g>
<g><path style="opacity:1" fill="#160b0b" d="M 102.5,184.5 C 102.833,185.5 103.5,186.167 104.5,186.5C 104.461,187.583 104.127,188.583 103.5,189.5C 99.7198,192.202 96.7198,195.536 94.5,199.5C 90.1667,199.5 85.8333,199.5 81.5,199.5C 83.95,193.98 83.95,188.313 81.5,182.5C 82.0998,181.1 83.0998,180.1 84.5,179.5C 88.0779,178.411 91.7446,178.245 95.5,179C 97.4221,181.43 99.7554,183.263 102.5,184.5 Z"/></g>
<g><path style="opacity:1" fill="#272727" d="M 81.5,182.5 C 83.95,188.313 83.95,193.98 81.5,199.5C 74.5,199.5 67.5,199.5 60.5,199.5C 60.1557,193.902 60.8224,188.568 62.5,183.5C 62.3505,184.552 62.5172,185.552 63,186.5C 64.6667,185.5 66,184.167 67,182.5C 68,183.833 69,183.833 70,182.5C 70.6228,186.932 71.6228,187.265 73,183.5C 74.5655,182.939 75.8989,183.606 77,185.5C 77.9184,183.624 79.4184,182.624 81.5,182.5 Z"/></g>
<g><path style="opacity:1" fill="#222121" d="M 104.5,186.5 C 107.198,188.236 109.698,190.236 112,192.5C 112.414,192.043 112.914,191.709 113.5,191.5C 114.004,194.342 115.671,195.675 118.5,195.5C 117.4,196.605 116.733,197.938 116.5,199.5C 109.167,199.5 101.833,199.5 94.5,199.5C 96.7198,195.536 99.7198,192.202 103.5,189.5C 104.127,188.583 104.461,187.583 104.5,186.5 Z"/></g>
</svg>
