<svg xmlns="http://www.w3.org/2000/svg" width="200" height="200" viewBox="0 0 200 200" version="1.1"><path d="M 129.450 90.919 C 129.763 91.425, 129.307 92.550, 128.438 93.419 C 127.049 94.809, 127.041 95, 128.379 95 C 129.216 95, 130.291 94.303, 130.767 93.452 C 131.244 92.600, 132.585 91.832, 133.748 91.744 C 136.934 91.504, 135.326 90, 131.882 90 C 130.232 90, 129.138 90.414, 129.450 90.919 M 76.973 94.250 C 76.548 98.183, 76.593 109, 77.035 109 C 77.370 109, 79.760 108.279, 82.346 107.398 C 87.290 105.713, 90.461 106.635, 89.383 109.444 C 88.169 112.607, 99.211 113.704, 100.600 110.558 C 101.300 108.973, 102.369 108.526, 105.254 108.614 C 107.314 108.677, 109 108.548, 109 108.329 C 109 106.719, 105.408 103, 103.854 103 C 102.800 103, 101.700 102.381, 101.410 101.625 C 101.119 100.869, 99.690 100.250, 98.233 100.250 C 96.776 100.250, 95.415 99.744, 95.208 99.125 C 95.002 98.506, 93.751 98, 92.427 98 C 91.104 98, 87.654 97.100, 84.761 96.001 C 80.058 94.213, 77.050 93.537, 76.973 94.250 M 135 97.969 C 135 98.501, 134.425 98.716, 133.721 98.447 C 133.018 98.177, 131.556 98.674, 130.471 99.552 C 129.387 100.430, 129.132 100.820, 129.905 100.420 C 130.828 99.941, 131.065 100.086, 130.595 100.845 C 130.203 101.480, 129.121 102.007, 128.191 102.015 C 126.825 102.028, 126.768 102.200, 127.896 102.914 C 128.840 103.512, 129.325 105.932, 129.395 110.399 C 129.452 114.030, 129.810 117, 130.191 117 C 131.372 117, 132.464 114.587, 132.149 112.673 C 131.872 110.993, 135.802 104.023, 137.034 104.007 C 139.266 103.978, 140.892 109.883, 138.764 110.292 C 136.510 110.726, 136.511 110.728, 138.872 110.864 C 140.855 110.978, 141.042 111.244, 140.009 112.489 C 139.329 113.308, 138.354 113.719, 137.841 113.402 C 137.315 113.077, 137.087 114.064, 137.319 115.663 C 137.800 118.993, 136.506 121, 133.878 121 C 132.845 121, 131.964 121.563, 131.921 122.250 C 131.878 122.938, 131.390 122.263, 130.838 120.750 C 129.590 117.333, 126.259 116.949, 126.494 120.250 C 126.886 125.749, 134.990 128.342, 139.195 124.313 C 141.879 121.741, 143.081 119.214, 141.011 120.493 C 140.456 120.836, 140.271 120.458, 140.589 119.629 C 140.900 118.818, 141.752 117.925, 142.483 117.645 C 145.054 116.659, 145.318 111.209, 143.032 106.346 C 141.852 103.835, 141.122 101.545, 141.409 101.257 C 142.066 100.601, 137.569 97, 136.092 97 C 135.492 97, 135 97.436, 135 97.969 M 122.750 100.801 C 121.787 100.991, 121 101.615, 121 102.187 C 121 102.777, 119.683 103.034, 117.956 102.780 C 116.282 102.535, 114.680 102.708, 114.397 103.167 C 114.114 103.625, 112.784 104, 111.441 104 C 110.098 104, 109 104.450, 109 105 C 109 105.550, 109.900 106, 111 106 C 112.100 106, 113 106.492, 113 107.094 C 113 107.832, 114.629 107.964, 118.005 107.499 C 122.275 106.912, 122.923 107.037, 122.418 108.354 C 122.092 109.203, 122.707 110.843, 123.786 112 C 126.395 114.801, 126.904 113.067, 125.553 105.977 C 124.707 101.543, 124.155 100.523, 122.750 100.801 M 72.811 103.250 C 71.387 105.509, 71.462 109, 72.935 109 C 73.368 109, 73.495 107.808, 73.216 106.351 C 72.867 104.523, 73.065 103.922, 73.855 104.410 C 74.573 104.854, 75 104.351, 75 103.059 C 75 100.428, 74.567 100.466, 72.811 103.250 M 102.667 109.667 C 102.300 110.033, 102 111.608, 102 113.167 C 102 114.725, 101.550 116, 101 116 C 100.450 116, 100 115.550, 100 115 C 100 114.450, 99.523 114, 98.941 114 C 98.359 114, 98.160 114.450, 98.500 115 C 98.840 115.550, 98.641 116, 98.059 116 C 97.477 116, 97 115.550, 97 115 C 97 114.450, 95.650 114, 94 114 C 92.350 114, 91 114.445, 91 114.989 C 91 116.166, 85.994 116.006, 84.346 114.776 C 83.209 113.927, 78 114.720, 78 115.741 C 78 117.316, 82.707 119.967, 85.390 119.903 C 87.100 119.863, 89.850 120.085, 91.500 120.396 C 94.282 120.922, 94.319 120.893, 92 120 C 89.683 119.108, 89.719 119.079, 92.500 119.606 C 94.150 119.919, 96.740 120.288, 98.256 120.426 C 99.771 120.565, 101.309 120.975, 101.672 121.339 C 102.725 122.391, 114.077 121.951, 118.926 120.670 C 125.340 118.975, 125.645 116.716, 119.349 117.536 C 114.658 118.147, 108.852 116.863, 109.111 115.272 C 109.521 112.758, 108.703 111.185, 106.453 110.161 C 103.466 108.800, 103.526 108.807, 102.667 109.667 M 71.710 113.001 C 71.377 114.275, 71.578 114.761, 72.263 114.337 C 72.940 113.919, 73.107 114.279, 72.712 115.307 C 72.367 116.206, 72.661 117.518, 73.364 118.221 C 74.067 118.924, 74.686 119.875, 74.738 120.333 C 74.790 120.792, 75.168 121.467, 75.577 121.833 C 75.986 122.200, 76.021 121.976, 75.654 121.335 C 75.287 120.695, 75.553 119.943, 76.244 119.664 C 77.217 119.272, 77.206 119.140, 76.191 119.079 C 75.464 119.035, 75.199 118.487, 75.595 117.845 C 76.066 117.084, 75.866 116.965, 75.009 117.495 C 74.009 118.112, 73.867 117.666, 74.394 115.565 C 74.898 113.558, 74.759 113.031, 73.870 113.580 C 73.038 114.094, 72.860 113.808, 73.299 112.664 C 73.650 111.749, 73.554 111, 73.085 111 C 72.617 111, 71.998 111.901, 71.710 113.001 M 121.548 124.923 C 121.234 125.431, 119.600 126.149, 117.917 126.518 C 116.234 126.888, 115.084 127.417, 115.361 127.695 C 116.132 128.465, 123 125.973, 123 124.922 C 123 123.739, 122.279 123.739, 121.548 124.923 M 126.045 128.664 C 127.455 130.960, 132.855 132.392, 134.450 130.893 C 135.019 130.358, 134.049 130, 132.029 130 C 130.175 130, 127.771 129.213, 126.687 128.250 C 124.775 126.552, 124.756 126.564, 126.045 128.664 M 93.778 149.250 C 94.028 150.213, 93.704 151, 93.058 151 C 92.411 151, 92.203 150.480, 92.595 149.845 C 93.041 149.124, 92.869 148.963, 92.138 149.415 C 90.259 150.576, 91.868 152, 95.059 152 C 98.259 152, 99.071 150.426, 96.250 149.689 C 94.933 149.345, 95.057 149.203, 96.750 149.116 C 97.987 149.052, 99 148.615, 99 148.144 C 99 147.672, 97.722 147.335, 96.161 147.394 C 93.975 147.475, 93.427 147.903, 93.778 149.250 M 115.226 152.539 C 115.114 153.893, 115.494 155, 116.070 155 C 116.647 155, 116.833 155.461, 116.485 156.024 C 115.736 157.237, 123.888 156.206, 125.592 154.872 C 126.193 154.402, 126.980 154.313, 127.342 154.675 C 127.704 155.037, 128 154.824, 128 154.202 C 128 152.943, 124.009 150.471, 123.985 151.715 C 123.976 152.147, 123.533 151.825, 123 151 C 122.467 150.175, 122.024 150.014, 122.015 150.643 C 121.990 152.552, 118.816 153.143, 117.070 151.564 C 115.594 150.227, 115.409 150.325, 115.226 152.539" stroke="none" fill="#9ca5a2" fill-rule="evenodd"/><path d="M 107.252 21.500 C 107.263 23.700, 107.468 24.482, 107.707 23.238 C 107.946 21.994, 107.937 20.194, 107.687 19.238 C 107.437 18.282, 107.241 19.300, 107.252 21.500 M 105.083 37.358 C 105.313 37.556, 107.300 37.993, 109.500 38.330 C 112.224 38.748, 113.021 38.638, 112 37.987 C 110.634 37.116, 104.113 36.523, 105.083 37.358 M 131 81.441 C 131 84.979, 132.544 85.397, 132.808 81.931 C 132.931 80.319, 132.575 79, 132.016 79 C 131.457 79, 131 80.098, 131 81.441 M 125.476 87.961 C 125.990 88.793, 122.573 91.372, 120.833 91.465 C 120.467 91.484, 119.792 91.901, 119.333 92.391 C 118.850 92.907, 119.690 92.996, 121.334 92.601 C 123.334 92.120, 123.960 92.255, 123.463 93.060 C 122.936 93.912, 123.294 93.913, 124.879 93.065 C 127.447 91.690, 127.663 90.850, 125.250 91.624 C 124.048 92.010, 124.243 91.579, 125.872 90.247 C 127.947 88.550, 128.034 88.227, 126.570 87.665 C 125.633 87.306, 125.151 87.436, 125.476 87.961 M 78.232 91.449 C 74.780 93.357, 74.815 93.578, 78.549 93.454 C 80.447 93.391, 82 93.740, 82 94.229 C 82 94.718, 82.457 94.835, 83.016 94.490 C 84.790 93.394, 82.922 91.890, 80.674 92.604 C 78.761 93.211, 78.671 93.101, 79.880 91.644 C 81.447 89.756, 81.323 89.741, 78.232 91.449 M 112.612 92.181 C 112.890 92.631, 111.641 93, 109.837 93 L 106.555 93 108.924 94.660 C 111.132 96.206, 111.377 96.206, 112.507 94.660 C 113.786 92.910, 116.557 92.291, 115.507 93.989 C 115.157 94.555, 115.558 94.723, 116.448 94.382 C 118.899 93.441, 118.265 92.266, 115.053 91.794 C 113.432 91.557, 112.333 91.730, 112.612 92.181 M 87.352 92.993 C 86.171 93.470, 84.864 94.411, 84.448 95.084 C 83.914 95.948, 84.105 96.051, 85.095 95.433 C 85.868 94.952, 87.390 94.419, 88.479 94.250 C 90.912 93.872, 93.060 91.971, 90.950 92.063 C 90.153 92.098, 88.534 92.517, 87.352 92.993 M 95.253 95.250 C 95.500 95.988, 97.683 96.572, 100.586 96.677 C 103.289 96.774, 106.850 97.117, 108.500 97.440 C 110.985 97.926, 110.852 97.775, 107.721 96.556 C 105.643 95.747, 103.280 95.339, 102.471 95.649 C 101.662 95.960, 101 95.716, 101 95.107 C 101 94.498, 100.523 94, 99.941 94 C 99.359 94, 99.160 94.450, 99.500 95 C 99.840 95.550, 99.165 96, 98 96 C 96.835 96, 96.160 95.550, 96.500 95 C 96.840 94.450, 96.604 94, 95.976 94 C 95.347 94, 95.022 94.563, 95.253 95.250 M 75.610 98.417 C 75.276 99.747, 75.424 101.884, 75.938 103.167 C 76.721 105.120, 76.884 104.726, 76.937 100.750 C 77.006 95.523, 76.542 94.705, 75.610 98.417 M 125 101.241 C 125 102.694, 125.468 104.171, 126.041 104.525 C 126.613 104.879, 126.809 106.143, 126.475 107.334 C 126.047 108.863, 126.146 109.101, 126.810 108.143 C 128.026 106.388, 127.616 101.216, 126.143 99.743 C 125.286 98.886, 125 99.260, 125 101.241 M 69.951 110.724 C 69.677 113.047, 69.833 114.567, 70.299 114.101 C 70.765 113.635, 70.989 111.735, 70.798 109.877 C 70.459 106.583, 70.438 106.604, 69.951 110.724 M 146.272 112 C 146.272 114.475, 146.467 115.487, 146.706 114.250 C 146.944 113.013, 146.944 110.987, 146.706 109.750 C 146.467 108.513, 146.272 109.525, 146.272 112 M 71.601 118.837 C 70.229 121.056, 74.124 124.149, 76.406 122.653 C 78.512 121.274, 78.615 121.335, 78.450 123.850 C 78.310 125.973, 78.362 126.040, 78.710 124.188 C 79.066 122.294, 79.408 122.093, 80.597 123.080 C 81.395 123.743, 82.192 124.108, 82.369 123.893 C 82.545 123.677, 81.095 122.150, 79.146 120.500 C 77.197 118.850, 75.888 117.971, 76.235 118.548 C 77.499 120.640, 75.347 122.490, 73.638 120.781 C 72.790 119.933, 72.374 118.960, 72.714 118.619 C 73.055 118.279, 73.060 118, 72.726 118 C 72.391 118, 71.885 118.377, 71.601 118.837 M 90.762 121.707 C 92.006 121.946, 93.806 121.937, 94.762 121.687 C 95.718 121.437, 94.700 121.241, 92.500 121.252 C 90.300 121.263, 89.518 121.468, 90.762 121.707 M 103.728 122.722 C 105.503 122.943, 108.653 122.946, 110.728 122.730 C 112.802 122.513, 111.350 122.333, 107.500 122.328 C 103.650 122.324, 101.952 122.501, 103.728 122.722 M 125.623 122.801 C 125.306 123.314, 125.892 124.497, 126.924 125.431 C 127.957 126.366, 129.061 126.711, 129.377 126.199 C 129.694 125.686, 129.108 124.503, 128.076 123.569 C 127.043 122.634, 125.939 122.289, 125.623 122.801 M 138.843 124.667 C 137.638 125.950, 135.798 127, 134.754 127 C 133.076 127, 133.029 127.172, 134.342 128.485 C 135.159 129.302, 135.676 130.764, 135.490 131.735 C 135.305 132.706, 135.119 138.787, 135.077 145.250 L 135 157 126.750 157.199 L 118.500 157.397 125.836 157.744 C 138.239 158.331, 139.810 156.898, 138.295 146.390 C 137.638 141.836, 137.543 141.706, 136.913 144.500 C 135.978 148.648, 135.881 135.818, 136.809 130.598 C 137.643 125.904, 139.604 127.293, 140.204 133.004 C 140.494 135.761, 140.670 135.295, 141.036 130.797 C 141.329 127.194, 141.150 125.445, 140.550 126.047 C 138.698 127.905, 137.718 126.969, 139.479 125.024 C 140.462 123.937, 141.626 123.269, 142.065 123.540 C 142.503 123.811, 143.098 123.650, 143.387 123.183 C 144.554 121.295, 140.886 122.493, 138.843 124.667 M 87.656 126.945 C 84.976 127.885, 92.495 134.295, 95.252 133.420 C 96.578 132.999, 97.020 133.158, 96.566 133.893 C 96.178 134.522, 96.556 135, 97.441 135 C 98.974 135, 99.752 131.077, 98.250 130.923 C 95.826 130.676, 93.733 130.056, 93.158 129.416 C 92.796 129.012, 93.325 128.978, 94.334 129.341 C 95.548 129.778, 96.029 129.587, 95.759 128.776 C 95.261 127.282, 90.051 126.105, 87.656 126.945 M 102.222 129.918 C 102.438 131.018, 104.186 131.284, 110 131.102 C 120.579 130.770, 120.985 129.220, 110.595 128.827 C 103.543 128.560, 101.996 128.762, 102.222 129.918 M 100 131.965 C 100 132.534, 100.413 133, 100.918 133 C 101.423 133, 102.548 133.273, 103.418 133.607 C 104.350 133.965, 105 133.691, 105 132.940 C 105 132.240, 104.716 131.951, 104.369 132.298 C 104.021 132.645, 102.896 132.480, 101.869 131.930 C 100.603 131.252, 100 131.264, 100 131.965 M 125.527 133.334 C 128.285 135.199, 131 136.089, 131 135.129 C 131 134.224, 126.545 132, 124.730 132 C 124.084 132, 124.443 132.600, 125.527 133.334 M 110 134.008 C 111.925 134.480, 113.839 134.535, 114.254 134.129 C 114.669 133.723, 113.094 133.337, 110.754 133.270 L 106.500 133.149 110 134.008 M 103.573 136.750 C 102.260 137.989, 101.948 138.062, 102.506 137 C 103.126 135.819, 103.021 135.752, 102.014 136.683 C 100.982 137.636, 101.301 139.618, 103.661 146.933 L 106.587 156 100.543 156.015 C 97.219 156.024, 93.825 156.459, 93 156.984 C 91.996 157.621, 94.367 157.864, 100.166 157.718 C 105.269 157.590, 108.764 157.089, 108.666 156.500 C 108.575 155.950, 109.400 155.624, 110.500 155.775 C 112.328 156.026, 112.349 155.957, 110.750 154.975 C 109.787 154.384, 109 153.248, 109 152.450 C 109 151.653, 108.592 151, 108.094 151 C 107.595 151, 107.441 150.030, 107.751 148.844 C 108.172 147.235, 107.981 146.894, 107 147.500 C 106.019 148.106, 105.828 147.765, 106.249 146.156 C 106.559 144.970, 106.517 143.998, 106.156 143.995 C 104.095 143.979, 105.159 136.112, 107.278 135.702 C 109.294 135.312, 109.311 135.260, 107.464 135.136 C 106.345 135.061, 104.594 135.787, 103.573 136.750 M 140.336 145 C 140.336 149.125, 140.513 150.813, 140.728 148.750 C 140.944 146.688, 140.944 143.313, 140.728 141.250 C 140.513 139.188, 140.336 140.875, 140.336 145 M 88 144.819 C 88 145.334, 88.675 146.315, 89.500 147 C 90.325 147.685, 91 147.879, 91 147.431 C 91 146.984, 91.712 147.491, 92.582 148.559 C 93.868 150.137, 94.064 150.183, 93.633 148.801 C 93.238 147.536, 93.536 147.254, 94.801 147.698 C 96.163 148.176, 96.259 148.034, 95.285 146.983 C 94.618 146.261, 93.260 145.611, 92.268 145.538 C 91.276 145.465, 89.910 145.063, 89.232 144.644 C 88.555 144.225, 88 144.303, 88 144.819 M 115.203 147.854 C 113.429 148.979, 116.447 151.483, 119.653 151.546 C 122.562 151.604, 122.574 151.299, 119.750 148.944 C 117.168 146.790, 116.959 146.740, 115.203 147.854 M 85.980 154.750 C 87.164 157.193, 88.657 157.547, 91 155.941 C 92.185 155.129, 91.975 154.976, 90 155.214 C 88.625 155.380, 86.913 154.837, 86.195 154.008 C 85.099 152.742, 85.064 152.861, 85.980 154.750 M 140.706 156.984 C 141.499 160.015, 140.189 162.876, 138.881 160.972 C 138.100 159.836, 138.006 159.990, 138.468 161.645 C 138.847 162.999, 138.427 164.430, 137.331 165.527 C 135.681 167.176, 135.704 167.229, 137.797 166.565 C 139.794 165.931, 140.011 166.222, 140.115 169.683 L 140.230 173.500 141.057 169.500 C 142.182 164.062, 142.202 156.243, 141.093 155.558 C 140.595 155.249, 140.420 155.891, 140.706 156.984 M 84.667 159.667 C 81.822 162.511, 85.768 165.819, 91.001 164.976 L 95.500 164.250 90.750 164.125 C 86.151 164.004, 85.505 163.485, 85.925 160.250 C 86.106 158.861, 85.673 158.660, 84.667 159.667 M 110 165.950 C 110 167.023, 109.263 168.313, 108.363 168.817 C 107.048 169.553, 107.349 169.824, 109.894 170.198 C 112.071 170.517, 112.740 170.340, 112.031 169.631 C 110.584 168.184, 110.743 166.728, 112.250 167.633 C 113.247 168.232, 113.249 168.074, 112.259 166.850 C 111.576 166.006, 111.313 165.020, 111.675 164.658 C 112.037 164.296, 111.808 164, 111.167 164 C 110.525 164, 110 164.878, 110 165.950 M 77.875 166.500 C 77.806 166.775, 77.673 167.563, 77.580 168.250 C 77.486 168.938, 76.834 169.376, 76.130 169.225 C 75.427 169.074, 75.150 169.433, 75.515 170.024 C 75.981 170.778, 76.595 170.751, 77.578 169.935 C 78.348 169.296, 78.702 168.326, 78.364 167.780 C 77.983 167.163, 78.651 167.041, 80.125 167.458 C 81.956 167.977, 82.157 167.891, 81 167.081 C 79.378 165.945, 78.074 165.703, 77.875 166.500 M 135.750 168.689 C 133.867 169.181, 133.444 170.539, 134.895 171.435 C 135.388 171.740, 136.111 171.204, 136.503 170.244 C 137.155 168.647, 137.284 168.668, 138.037 170.500 C 138.819 172.401, 138.863 172.389, 138.930 170.250 C 139.001 167.963, 138.838 167.882, 135.750 168.689 M 128.303 170.792 C 127.594 171.242, 127.441 172.095, 127.928 172.883 C 128.503 173.814, 128.955 173.881, 129.434 173.107 C 129.810 172.498, 129.754 171.993, 129.309 171.985 C 128.864 171.976, 129.175 171.533, 130 171 C 130.825 170.467, 131.050 170.031, 130.500 170.031 C 129.950 170.031, 128.961 170.373, 128.303 170.792 M 118 171.394 C 118 172.131, 123.969 172.637, 125.018 171.989 C 125.603 171.627, 124.264 171.260, 122.041 171.173 C 119.819 171.086, 118 171.185, 118 171.394 M 123.372 175.294 C 122.991 175.957, 123.056 176.158, 123.515 175.741 C 123.975 175.323, 125.459 175.998, 126.812 177.241 C 129.207 179.441, 129.242 179.444, 128.163 177.368 C 126.803 174.749, 124.305 173.668, 123.372 175.294 M 136.146 180.081 C 134.851 181.130, 133.276 181.695, 132.646 181.334 C 131.990 180.960, 131.857 181.069, 132.333 181.590 C 133.618 182.993, 135.322 182.678, 137.333 180.667 C 139.851 178.149, 139.029 177.743, 136.146 180.081 M 83.821 181.750 C 86.887 183.342, 92.639 183.281, 96.500 181.616 C 99.232 180.439, 98.692 180.331, 90.456 180.411 C 82.572 180.489, 81.721 180.660, 83.821 181.750 M 106.234 183.381 C 107.188 184.105, 107.638 185.063, 107.234 185.509 C 106.831 185.955, 107.043 186.009, 107.706 185.628 C 109.349 184.685, 108.179 181.992, 106.143 182.032 C 104.663 182.060, 104.672 182.194, 106.234 183.381 M 85.750 184.723 C 87.537 184.945, 90.463 184.945, 92.250 184.723 C 94.037 184.502, 92.575 184.320, 89 184.320 C 85.425 184.320, 83.963 184.502, 85.750 184.723" stroke="none" fill="#687f87" fill-rule="evenodd"/><path d="M 79 125.941 C 79 127.009, 79.450 128.160, 80 128.500 C 80.550 128.840, 81 130.151, 81 131.414 C 81 134.699, 85.657 153.057, 86.774 154.174 C 87.738 155.138, 106 156.686, 106 155.803 C 106 155.532, 105.082 152.653, 103.960 149.405 C 101.725 142.936, 101.192 141.080, 101.077 139.360 C 101.034 138.733, 99 137.280, 96.556 136.131 C 92.383 134.170, 86 128.886, 86 127.394 C 86 126.248, 82.592 124.065, 80.750 124.032 C 79.673 124.012, 79 124.747, 79 125.941 M 117.500 127.528 L 113.500 128.846 116.809 128.923 C 123.323 129.074, 118.798 131.001, 111.691 131.102 C 105.533 131.190, 105.003 131.327, 108 132.058 C 109.925 132.527, 112.287 132.676, 113.250 132.388 C 114.318 132.069, 115 132.398, 115 133.232 C 115 134.619, 109.743 137, 106.679 137 C 104.545 137, 104.534 136.868, 107.496 146.581 C 109.494 153.132, 110.442 154.885, 112.246 155.369 C 115.743 156.306, 115.779 156.259, 114.956 151.759 C 114.529 149.426, 114.400 147.161, 114.669 146.726 C 115.183 145.895, 121.971 149.636, 123.235 151.447 C 123.639 152.026, 123.976 152.147, 123.985 151.715 C 124.007 150.578, 128 152.885, 128 154.035 C 128 154.566, 127.325 155, 126.500 155 C 125.675 155, 125 155.450, 125 156 C 125 156.550, 127.250 157, 130 157 L 135 157 135 143.800 C 135 133.533, 134.733 130.867, 133.800 131.800 C 131.721 133.879, 129.327 133.118, 126.568 129.500 C 123.646 125.670, 123.340 125.603, 117.500 127.528 M 125.527 133.334 C 128.285 135.199, 131 136.089, 131 135.129 C 131 134.224, 126.545 132, 124.730 132 C 124.084 132, 124.443 132.600, 125.527 133.334 M 86.694 146.061 C 86.337 147.428, 86.719 148.321, 87.828 148.713 C 88.747 149.038, 90.175 149.852, 91 150.521 C 94.839 153.637, 101.667 151.905, 99.180 148.446 C 96.541 144.775, 87.483 143.045, 86.694 146.061 M 85 156.228 C 85 161.029, 87.191 164, 90.848 164.157 C 95.956 164.375, 98.846 164.682, 103.750 165.525 C 107.498 166.169, 108.002 166.034, 108.014 164.378 C 108.021 163.345, 108.282 161.552, 108.593 160.393 C 109.132 158.384, 108.771 158.276, 100.829 158.092 C 91.872 157.883, 88.224 157.295, 86.250 155.740 C 85.370 155.047, 85 155.191, 85 156.228 M 135.033 159.881 C 135.008 160.914, 134.056 161.110, 131.250 160.659 C 129.083 160.311, 128.067 160.410, 128.842 160.894 C 131.430 162.509, 124.955 162.798, 119.296 161.321 C 113 159.677, 113.477 159.502, 112.669 163.750 C 112.076 166.864, 112.660 167.578, 115.389 167.072 C 115.878 166.982, 120.737 166.778, 126.187 166.620 C 137.940 166.279, 140.449 164.966, 137.080 160.918 C 135.842 159.432, 135.054 159.032, 135.033 159.881" stroke="none" fill="#86b9ab" fill-rule="evenodd"/><path d="M 90.710 44 C 90.998 45.100, 91.631 46, 92.117 46 C 93.162 46, 93.199 45.681, 92.393 43.582 C 91.512 41.286, 90.093 41.638, 90.710 44 M 106 43.441 C 106 44.234, 106.450 45.160, 107 45.500 C 107.550 45.840, 108 45.191, 108 44.059 C 108 42.927, 107.550 42, 107 42 C 106.450 42, 106 42.648, 106 43.441 M 126.295 92.940 C 125.150 94.007, 124.026 94.692, 123.797 94.464 C 123.568 94.235, 120.947 94.972, 117.971 96.103 C 114.767 97.321, 108.896 98.396, 103.567 98.741 C 98.276 99.084, 95.381 99.612, 96.536 100.023 C 97.616 100.408, 99.004 100.535, 99.621 100.304 C 100.237 100.074, 101.011 100.586, 101.340 101.443 C 101.668 102.299, 102.800 103, 103.854 103 C 105.408 103, 109 106.719, 109 108.329 C 109 108.548, 107.314 108.677, 105.254 108.614 C 102.369 108.526, 101.300 108.973, 100.600 110.558 C 99.211 113.704, 88.169 112.607, 89.383 109.444 C 89.657 108.730, 89.249 107.622, 88.477 106.981 C 86.277 105.155, 77 108.516, 77 111.139 C 77 112.228, 77.445 112.843, 77.989 112.507 C 78.570 112.148, 78.714 112.582, 78.338 113.560 C 77.799 114.967, 78.173 115.121, 80.755 114.554 C 82.435 114.185, 84.061 114.290, 84.369 114.788 C 85.115 115.995, 91 116.123, 91 114.933 C 91 114.420, 92.350 114, 94 114 C 95.650 114, 97 114.450, 97 115 C 97 115.550, 97.477 116, 98.059 116 C 98.641 116, 98.840 115.550, 98.500 115 C 98.160 114.450, 98.359 114, 98.941 114 C 99.523 114, 100 114.450, 100 115 C 100 115.550, 100.450 116, 101 116 C 101.550 116, 102 114.677, 102 113.059 C 102 109.731, 103.053 108.699, 105.494 109.636 C 106.841 110.153, 106.907 110.459, 105.834 111.205 C 104.923 111.837, 105.213 111.930, 106.750 111.498 C 108.373 111.042, 109.035 111.302, 109.125 112.433 C 109.194 113.295, 109.306 114.546, 109.375 115.213 C 109.578 117.182, 115.546 118.380, 120.231 117.392 C 124.922 116.402, 126.114 114.257, 123.453 111.596 C 122.547 110.690, 122.077 109.243, 122.408 108.380 C 122.925 107.031, 122.308 106.908, 118.005 107.499 C 114.629 107.964, 113 107.832, 113 107.094 C 113 106.492, 112.100 106, 111 106 C 109.900 106, 109 105.550, 109 105 C 109 104.450, 110.098 104, 111.441 104 C 112.784 104, 114.114 103.625, 114.397 103.167 C 114.680 102.708, 116.282 102.535, 117.956 102.780 C 119.793 103.050, 121 102.785, 121 102.113 C 121 101.501, 121.653 101, 122.450 101 C 123.248 101, 124.339 100.216, 124.875 99.258 C 125.411 98.300, 126.180 97.847, 126.583 98.250 C 126.986 98.653, 127.954 98.453, 128.734 97.806 C 129.585 97.100, 130.422 97.003, 130.826 97.564 C 131.704 98.784, 135 99.040, 135 97.889 C 135 96.438, 137.198 96.874, 139.343 98.750 C 141.696 100.808, 141 99.253, 137.370 94.339 C 134.947 91.060, 131.711 90.706, 130.601 93.599 C 130.305 94.369, 129.342 95, 128.460 95 C 127.003 95, 127 94.857, 128.429 93.429 C 131.456 90.401, 129.500 89.954, 126.295 92.940 M 73.127 100.763 C 72.446 102.035, 72.419 103.690, 73.047 105.598 L 74.002 108.500 73.555 105.396 C 73.309 103.689, 73.616 101.784, 74.237 101.162 C 74.859 100.541, 75.096 99.762, 74.764 99.431 C 74.433 99.100, 73.696 99.699, 73.127 100.763 M 141.035 101.135 C 141.016 101.485, 141.657 103.285, 142.461 105.135 C 143.264 106.986, 143.923 107.825, 143.925 107 C 143.929 105.559, 141.108 99.834, 141.035 101.135 M 134.675 106.569 L 132.849 109.076 135.425 108.430 C 137.032 108.026, 138 108.200, 138 108.892 C 138 109.501, 138.700 110, 139.557 110 C 140.917 110, 140.890 109.623, 139.341 107 C 137.211 103.394, 137.001 103.375, 134.675 106.569 M 71.166 109.500 C 71.007 114.213, 72.336 117.173, 73.384 114.441 C 73.749 113.491, 73.811 112.478, 73.524 112.190 C 73.236 111.902, 72.932 112.304, 72.850 113.083 C 72.767 113.862, 72.385 112.475, 72 110 L 71.300 105.500 71.166 109.500 M 135.500 113 C 135.991 114.547, 135.680 115, 134.126 115 C 133.022 115, 131.840 115.450, 131.500 116 C 130.476 117.658, 128.739 117.123, 129.416 115.359 C 129.943 113.986, 129.796 113.924, 128.523 114.981 C 126.612 116.567, 126.561 118, 128.417 118 C 129.196 118, 130.285 119.237, 130.838 120.750 C 131.390 122.263, 131.878 122.938, 131.921 122.250 C 131.964 121.563, 132.845 121, 133.878 121 C 136.506 121, 137.800 118.993, 137.319 115.663 C 137.087 114.064, 137.315 113.077, 137.841 113.402 C 138.354 113.719, 139.329 113.308, 140.009 112.489 C 141.060 111.223, 140.767 111, 138.055 111 C 135.320 111, 134.956 111.285, 135.500 113 M 87.149 145.948 C 87.675 147.525, 92.753 151.623, 93.328 150.933 C 93.527 150.695, 92.110 149.154, 90.181 147.508 C 88.251 145.863, 86.887 145.161, 87.149 145.948 M 96.323 149.703 C 97.396 149.981, 97.924 150.757, 97.605 151.587 C 96.793 153.703, 97.775 153.289, 99 151 C 99.956 149.214, 99.772 149.012, 97.285 149.116 C 95.458 149.192, 95.127 149.394, 96.323 149.703 M 111.070 159.750 C 111.210 163.222, 112.850 165.869, 112.930 162.750 C 113.011 159.571, 112.891 159.595, 119.642 161.393 C 123.825 162.507, 125.784 162.533, 130.142 161.535 L 135.500 160.308 127 160.165 C 122.325 160.086, 116.928 159.567, 115.007 159.011 C 113.085 158.455, 111.398 158, 111.257 158 C 111.115 158, 111.032 158.787, 111.070 159.750 M 108.015 163.250 C 108.007 164.762, 108.450 166, 109 166 C 110.264 166, 110.264 163.957, 109 162 C 108.245 160.831, 108.027 161.107, 108.015 163.250 M 81.761 167.728 C 76.564 168.492, 74.401 174.401, 78 178 C 81.227 181.227, 97.069 181.010, 96.242 177.750 C 94.524 170.978, 88.415 166.750, 81.761 167.728 M 110.346 175.122 C 108.005 176.315, 106.815 180.082, 108.114 182.185 C 109.121 183.815, 125.788 184.553, 128 183.065 C 133.266 179.525, 116.504 171.983, 110.346 175.122 M 126.059 184.837 C 120.409 185.961, 117.421 186.071, 113.638 185.297 C 109.626 184.475, 108.986 184.516, 110.347 185.512 C 114.345 188.435, 128.398 188.384, 132.427 185.432 C 135.318 183.314, 134.226 183.212, 126.059 184.837" stroke="none" fill="#a8ada7" fill-rule="evenodd"/><path d="M 126.217 15.561 C 123.196 17.677, 121 22.190, 121 26.284 C 121 30.479, 120.721 30.759, 117.070 30.224 C 114.405 29.832, 114.217 29.561, 115.064 27.331 C 117.185 21.754, 116.264 15.001, 113.415 15.236 C 109.194 15.586, 108.330 19.130, 110.486 27.250 C 110.888 28.762, 110.952 30, 110.628 30 C 109.669 30, 72.073 37.908, 67.605 39.050 C 60.681 40.819, 60.900 40.631, 62.165 43.714 C 63.826 47.761, 64.986 70.019, 63.666 72.500 C 61.017 77.479, 62.030 81, 66.111 81 C 68.185 81, 70.160 81.450, 70.500 82 C 70.840 82.550, 72.104 83.010, 73.309 83.022 C 74.790 83.036, 75.986 84.089, 77 86.272 C 80.796 94.442, 108.123 94.877, 126.364 87.058 L 130.825 85.146 131.554 78.344 C 133.621 59.042, 132.029 40.885, 127.878 36.400 C 125.945 34.313, 125.954 34.258, 129.467 26.929 C 133.325 18.878, 133.854 15.541, 131.418 14.607 C 129.153 13.738, 128.701 13.821, 126.217 15.561 M 127.144 21.327 C 124.764 24.195, 121.530 34.078, 123.832 31.450 C 124.773 30.375, 129.064 20, 128.567 20 C 128.390 20, 127.749 20.597, 127.144 21.327 M 103.667 35.667 C 102.465 36.868, 102.967 38, 104.700 38 C 106.022 38, 106.133 38.267, 105.200 39.200 C 103.753 40.647, 103.587 43.373, 105 42.500 C 105.550 42.160, 106 42.568, 106 43.406 C 106 45.992, 109.753 47.345, 113.091 45.962 C 117.988 43.934, 116.147 40, 110.300 40 C 108.485 40, 107 39.567, 107 39.037 C 107 38.506, 109.468 38.185, 112.500 38.323 C 118.203 38.581, 119.394 37.817, 116.066 36.035 C 113.925 34.890, 104.717 34.616, 103.667 35.667 M 87.667 36.667 C 86.542 37.792, 86.925 39, 88.406 39 C 89.312 39, 89.630 39.700, 89.299 40.964 C 88.618 43.570, 90.776 45.521, 94.640 45.794 C 98.764 46.084, 100.054 43.272, 96.950 40.759 C 95.240 39.374, 95.121 39, 96.389 39 C 98.459 39, 98.478 37.397, 96.418 36.607 C 94.299 35.794, 88.500 35.833, 87.667 36.667 M 110.698 74.345 C 110.414 75.085, 106.878 76.705, 102.841 77.945 C 92.472 81.129, 92.075 81.321, 95.019 81.735 C 97.339 82.060, 103.581 80.351, 113.414 76.699 C 117.092 75.333, 117.201 75.178, 115.229 74.123 C 112.476 72.649, 111.327 72.706, 110.698 74.345 M 101 85.500 L 96.500 86.804 100.168 86.902 C 104.304 87.013, 107 86.220, 107 84.893 C 107 83.816, 106.715 83.844, 101 85.500 M 136.080 170.850 C 135.354 172.207, 134.262 172.931, 133.423 172.609 C 132.463 172.240, 132 172.765, 132 174.223 C 132 176.336, 131.969 176.341, 130.532 174.441 C 129.724 173.374, 129.049 173.030, 129.032 173.679 C 129.014 174.327, 129.729 175.586, 130.619 176.476 C 132.469 178.326, 132.100 179.041, 129.182 179.261 C 128.058 179.346, 127.363 179.779, 127.638 180.224 C 127.913 180.669, 128.634 180.726, 129.239 180.352 C 129.949 179.914, 130.112 180.267, 129.697 181.348 C 129.109 182.879, 129.299 182.897, 131.906 181.549 C 133.474 180.738, 135.023 179.382, 135.347 178.537 C 135.672 177.692, 136.626 177, 137.469 177 C 139.117 177, 139.412 173.913, 138.087 170.522 C 137.341 168.614, 137.271 168.626, 136.080 170.850 M 102.750 170.716 C 101.237 170.945, 99.931 171.665, 99.848 172.316 C 99.764 172.967, 99.635 173.950, 99.561 174.500 C 99.487 175.050, 98.929 176.369, 98.322 177.431 C 97.487 178.891, 97.540 179.683, 98.538 180.681 C 100.411 182.554, 100.909 182.356, 102.135 179.250 C 103.141 176.701, 103.276 176.646, 103.976 178.500 C 104.644 180.265, 104.913 180.072, 106.275 176.846 C 107.123 174.837, 108.759 172.894, 109.909 172.529 C 115.479 170.761, 110.604 169.526, 102.750 170.716" stroke="none" fill="#a58544" fill-rule="evenodd"/><path d="M 110.073 14.635 C 107.811 17.510, 107.286 23.797, 109.035 27.066 C 109.943 28.763, 109.729 29, 107.285 29.002 C 105.753 29.003, 96.850 30.598, 87.500 32.546 C 66.488 36.924, 52.670 39.580, 43.360 41.030 L 36.220 42.142 34.860 46.821 C 29.166 66.411, 40.866 80.753, 65.435 84.300 C 76.373 85.879, 77.157 86.861, 73.556 94.474 C 68.636 104.874, 67.872 113.859, 71.508 118.576 C 72.807 120.262, 72.806 120.040, 71.495 116.782 C 67.893 107.825, 73.804 90.223, 79.537 92.835 C 80.962 93.484, 81.874 93.605, 81.563 93.103 C 81.245 92.587, 82.848 92.352, 85.250 92.561 C 89.452 92.928, 89.154 92.787, 81.674 90.865 C 78.676 90.095, 77.538 89.138, 76.411 86.441 C 75.061 83.209, 74.685 82.999, 70.237 82.988 C 65.568 82.976, 56.399 80.983, 53.894 79.435 C 53.015 78.891, 53.679 78.282, 56 77.500 C 64.167 74.750, 66.658 58.883, 61.507 42.422 C 60.813 40.204, 67.746 38.289, 99.777 31.850 C 109.030 29.989, 110.941 29.306, 110.428 28.041 C 107.825 21.625, 109.740 14, 113.956 14 C 117.064 14, 117.676 19.991, 115.398 28.128 C 115.084 29.251, 115.726 29.906, 117.471 30.239 C 119.529 30.633, 120.001 30.330, 120.006 28.611 C 120.025 21.262, 125.265 13.658, 129.935 14.201 C 133.516 14.618, 133.251 19.729, 129.198 28.390 C 127.497 32.026, 126.557 35, 127.109 35 C 130.666 35, 132.501 44.278, 132.447 62 C 132.406 75.556, 132.587 78.148, 133.251 73.500 C 134.959 61.546, 133.743 43.987, 130.795 38.030 L 128.170 32.725 131.085 26.989 C 134.618 20.037, 134.939 14.573, 131.909 12.951 C 127.084 10.369, 120.766 16.360, 119.417 24.796 C 118.352 31.456, 116.870 29.722, 117.594 22.661 C 118.612 12.720, 114.789 8.639, 110.073 14.635 M 126.488 22.377 C 124.750 25.031, 122.545 31.893, 123.900 30.433 C 124.983 29.265, 129.039 20, 128.467 20 C 128.235 20, 127.345 21.070, 126.488 22.377 M 103.667 35.667 C 102.168 37.166, 103.362 37.509, 110.754 37.707 C 117.735 37.894, 118.308 37.770, 116.559 36.457 C 114.603 34.989, 104.937 34.396, 103.667 35.667 M 88.250 36.662 C 87.563 36.940, 87 37.627, 87 38.190 C 87 38.753, 87.725 38.936, 88.611 38.596 C 89.904 38.100, 90.103 38.455, 89.616 40.394 C 89.114 42.394, 89.330 42.727, 90.867 42.325 C 92.162 41.986, 92.896 42.496, 93.291 44.006 C 94.098 47.089, 97.500 46.264, 97.500 42.986 C 97.500 40.908, 96.926 40.417, 94 39.994 C 91.848 39.682, 90.964 39.189, 91.704 38.713 C 92.366 38.287, 94.166 38.252, 95.704 38.635 C 98.227 39.264, 98.366 39.169, 97.128 37.666 C 95.823 36.083, 91.029 35.541, 88.250 36.662 M 105.237 39.162 C 103.477 40.923, 103.705 42, 105.839 42 C 106.851 42, 108.188 43.116, 108.809 44.480 C 110.025 47.150, 113 47.001, 113 44.271 C 113 43.037, 113.279 42.987, 114.500 44 C 116.529 45.684, 116.468 43.610, 114.429 41.571 C 113.564 40.707, 111.577 40, 110.012 40 C 108.447 40, 107.011 39.533, 106.821 38.962 C 106.600 38.300, 106.028 38.372, 105.237 39.162 M 111.427 73.883 C 112.135 75.027, 103.495 78.737, 98.124 79.596 C 95.832 79.963, 93.693 80.688, 93.371 81.209 C 92.324 82.903, 102.256 80.893, 108.492 78.148 C 111.787 76.697, 115.162 75.632, 115.992 75.782 C 117.046 75.973, 116.916 75.595, 115.559 74.527 C 113.474 72.887, 110.528 72.427, 111.427 73.883 M 101.500 85.528 C 98.332 86.572, 98.020 86.859, 100 86.909 C 103.410 86.996, 107 85.956, 107 84.883 C 107 83.807, 106.567 83.858, 101.500 85.528 M 130.085 86.105 C 129.558 87.422, 129.098 87.963, 129.063 87.306 C 129.020 86.495, 127.514 86.770, 124.364 88.163 C 118.466 90.772, 106.486 92.920, 97.583 92.965 C 88.920 93.009, 89.273 93.838, 98.023 93.998 C 104.241 94.112, 119.425 91.964, 123.414 90.407 C 124.733 89.892, 125.109 90.015, 124.622 90.803 C 123.771 92.180, 111.150 96.211, 109.970 95.482 C 109.513 95.199, 108.856 95.425, 108.510 95.984 C 106.774 98.793, 118.884 95.667, 126.408 91.364 C 140.721 83.178, 151.470 111.905, 139.136 125.380 C 136.744 127.992, 136.706 128.153, 138.719 127.111 C 149.055 121.763, 147.899 102.207, 136.557 90.552 C 134.389 88.323, 132.589 86.200, 132.557 85.833 C 132.387 83.862, 130.918 84.023, 130.085 86.105 M 83.226 94.560 C 84.558 95.892, 95.592 97.969, 101.417 97.984 C 109.136 98.005, 107.868 96.791, 99.769 96.408 C 93.730 96.122, 92.008 95.893, 85.523 94.512 C 83.885 94.164, 82.852 94.185, 83.226 94.560 M 75.142 105.167 C 75.064 107.183, 74.438 109.062, 73.750 109.341 C 72.864 109.700, 72.819 110.088, 73.596 110.674 C 74.199 111.128, 75.021 112.850, 75.424 114.500 C 75.826 116.150, 76.824 118.242, 77.641 119.149 C 78.969 120.622, 78.891 120.963, 76.915 122.347 C 74.827 123.810, 74.792 124.034, 76.302 126.338 C 78.461 129.633, 84.077 152.275, 83.007 153.372 C 81.645 154.767, 82.940 157.135, 84.347 155.821 C 85.443 154.797, 82.632 140.534, 78.829 127.824 C 76.942 121.518, 78.026 120.818, 84.565 124.116 C 87.709 125.702, 91.179 127, 92.276 127 C 94.452 127, 99 131.323, 99 133.391 C 99 135.069, 103.718 137.265, 104.523 135.962 C 104.850 135.433, 106.779 134.954, 108.809 134.898 L 112.500 134.795 109.089 133.991 C 107.212 133.549, 105.001 133.446, 104.175 133.763 C 103.256 134.116, 102.931 133.921, 103.337 133.263 C 103.761 132.578, 103.275 132.377, 102.001 132.710 C 100.882 133.003, 100 132.741, 100 132.117 C 100 131.502, 100.450 131, 101 131 C 101.550 131, 102 130.389, 102 129.642 C 102 128.721, 103.906 128.086, 107.930 127.665 C 111.191 127.324, 116.028 126.221, 118.680 125.214 L 123.500 123.382 125.826 126.191 C 127.622 128.359, 128.990 128.991, 131.826 128.960 L 135.500 128.920 132.726 127.416 C 131.201 126.588, 129.544 126.164, 129.045 126.472 C 128.546 126.780, 127.813 126.506, 127.415 125.862 C 126.920 125.061, 127.135 124.959, 128.095 125.537 C 129.292 126.258, 129.296 126.133, 128.128 124.692 C 126.572 122.775, 125.513 122.403, 126.595 124.155 C 127.003 124.814, 126.873 125.040, 126.292 124.680 C 124.684 123.687, 125.636 117.278, 127.800 114.528 C 129.650 112.175, 129.673 111.817, 128.189 108.541 C 126.374 104.539, 125.446 104.411, 126.951 108.371 C 127.752 110.478, 127.554 111.684, 125.983 114.260 C 124.896 116.042, 124.006 118.239, 124.004 119.142 C 123.997 122.280, 111.624 123.568, 95.787 122.079 C 78.186 120.425, 77.181 119.712, 75.961 108 C 75.542 103.981, 75.230 102.899, 75.142 105.167 M 139 142.089 L 139 155.512 135.874 156.895 C 132.349 158.456, 116.527 157.948, 111.785 156.122 C 108.355 154.801, 108.003 155.527, 109.667 160.500 L 111.005 164.500 110.432 160.615 C 109.888 156.925, 109.976 156.763, 112.179 157.392 C 119.928 159.602, 125.519 160.074, 132.019 159.065 C 135.794 158.479, 139.101 158, 139.368 158 C 139.635 158, 140.008 158.787, 140.197 159.750 C 140.385 160.713, 140.412 154.331, 140.256 145.569 C 139.909 126.089, 139 123.570, 139 142.089 M 136.336 140 C 136.336 144.125, 136.513 145.813, 136.728 143.750 C 136.944 141.688, 136.944 138.313, 136.728 136.250 C 136.513 134.188, 136.336 135.875, 136.336 140 M 84.500 165.542 C 83.950 165.698, 82.294 166.090, 80.820 166.414 C 74.224 167.864, 72.614 176.340, 77.962 181.463 L 80.924 184.301 92.212 183.731 C 105.364 183.067, 107 182.595, 107 179.466 C 107 171.075, 120.875 171.173, 127.832 179.612 C 130.716 183.111, 131.209 183.350, 133.104 182.167 C 135.631 180.589, 136.770 181.367, 135.020 183.476 C 132.869 186.067, 135.354 185.119, 137.990 182.342 C 142.408 177.688, 141.326 165.165, 136.660 166.939 C 135.220 167.487, 128.858 167.835, 122.521 167.713 C 110.976 167.491, 110.064 167.664, 112.090 169.690 C 112.877 170.477, 112.323 171.287, 110.098 172.601 C 108.362 173.627, 106.556 175.816, 105.962 177.614 C 104.783 181.189, 103.848 181.557, 93.500 182.524 C 88.076 183.032, 85.825 182.822, 83.500 181.596 C 81.850 180.725, 79.953 180.010, 79.285 180.006 C 75.680 179.988, 74.839 170.926, 78.223 168.557 C 83.828 164.630, 94.809 169.574, 96.708 176.878 C 97.364 179.405, 97.430 179.357, 98.518 175.559 C 99.391 172.514, 100.313 171.419, 102.574 170.744 C 110.266 168.449, 110.895 167.718, 106 166.766 C 101.449 165.880, 86.343 165.020, 84.500 165.542 M 94.206 169.750 C 95.559 172.948, 98 175.917, 98 174.364 C 98 171.776, 95.680 167, 94.424 167 C 93.302 167, 93.261 167.516, 94.206 169.750 M 135.708 168.697 C 134.497 169.012, 134.106 169.757, 134.500 170.998 C 134.972 172.487, 134.674 172.728, 132.927 172.271 C 131.052 171.780, 130.858 172.019, 131.428 174.104 L 132.083 176.500 130.626 174.007 C 129.536 172.140, 129.462 171.300, 130.335 170.662 C 131.061 170.132, 130.809 170.035, 129.668 170.406 C 128.661 170.733, 127.632 171, 127.383 171 C 127.134 171, 127.491 172.012, 128.177 173.250 C 128.863 174.488, 129.329 175.838, 129.212 176.250 C 129.096 176.662, 129.675 177, 130.500 177 C 131.325 177, 132 177.450, 132 178 C 132 179.925, 129.215 178.977, 127.592 176.500 C 126.691 175.125, 125.462 174, 124.861 174 C 123.393 174, 130.165 181.808, 131.727 181.915 C 132.402 181.962, 133.691 180.875, 134.592 179.500 C 135.493 178.125, 136.853 177, 137.615 177 C 138.590 177, 139 175.667, 139 172.500 C 139 170.025, 138.662 168.052, 138.250 168.116 C 137.838 168.180, 136.694 168.441, 135.708 168.697 M 120.212 172.148 C 121.859 172.752, 123.559 172.787, 124.540 172.238 C 125.709 171.583, 124.961 171.309, 121.827 171.245 C 117.849 171.163, 117.719 171.235, 120.212 172.148 M 108.060 186.112 C 110.137 189.993, 127.385 191.085, 132 187.627 C 133.839 186.249, 133.971 185.964, 132.500 186.548 C 127.804 188.412, 114.637 188.192, 110.781 186.184 C 107.207 184.323, 107.101 184.320, 108.060 186.112" stroke="none" fill="#1e1a14" fill-rule="evenodd"/><path d="M -0 100.005 L -0 200.010 100.250 199.755 L 200.500 199.500 200.755 99.750 L 201.010 0 100.505 0 L 0 0 -0 100.005 M 0.481 100.500 C 0.481 155.500, 0.602 178.147, 0.750 150.826 C 0.898 123.506, 0.898 78.506, 0.750 50.826 C 0.602 23.147, 0.481 45.500, 0.481 100.500 M 111.750 12.080 C 107.868 14.341, 105.819 21.925, 107.993 25.988 C 109.091 28.038, 109.392 27.927, 97 30.045 C 93.425 30.656, 83.300 32.719, 74.500 34.629 C 65.700 36.539, 53.776 38.769, 48.003 39.584 C 36.782 41.168, 35.880 41.644, 34.131 46.899 C 27.843 65.794, 42.433 83.122, 65.990 84.737 C 75.784 85.408, 76.443 86.511, 72.431 95.514 C 67.363 106.888, 68.061 115.094, 74.982 125.500 C 77.696 129.579, 77.546 129.148, 80.426 141.192 C 81.832 147.072, 82.710 152.593, 82.377 153.460 C 82.044 154.327, 82.231 156.265, 82.792 157.768 C 83.353 159.271, 84.104 161.387, 84.460 162.472 C 85.008 164.141, 85.265 164.217, 86.130 162.972 C 87.027 161.680, 87.103 161.681, 86.748 162.984 C 86.526 163.800, 84.481 164.836, 82.203 165.286 C 73.957 166.917, 71.400 175.858, 77.451 181.903 C 80.152 184.600, 94.644 185.646, 102.195 183.688 C 104.395 183.118, 105.407 183.544, 107.715 186.013 C 115.053 193.865, 131.325 191.726, 138.528 181.962 C 140.883 178.771, 143.093 158.577, 141.389 155.820 C 139.088 152.098, 141.115 126.983, 144.184 121.189 C 149.132 111.846, 146.118 99.198, 136.683 89.706 C 132.307 85.303, 132.479 86.514, 133.806 69.437 C 134.998 54.108, 134.005 42.540, 131.004 36.783 L 128.939 32.822 131.491 27.427 C 136.231 17.409, 135.743 12, 130.100 12 C 124.696 12, 119 18.912, 119 25.468 C 119 26.861, 118.631 28, 118.179 28 C 117.728 28, 117.660 25.651, 118.028 22.780 C 119.194 13.697, 116.591 9.261, 111.750 12.080 M 63.615 69.548 C 62.831 73.034, 58.627 78, 56.460 78 C 53.165 78, 55.325 79.873, 59.750 80.853 C 69.796 83.078, 71.272 83.249, 70.566 82.107 C 70.190 81.498, 68.205 81, 66.155 81 C 61.785 81, 61.177 78.972, 63.712 72.837 C 64.544 70.823, 65.017 68.573, 64.763 67.837 C 64.508 67.102, 63.992 67.872, 63.615 69.548 M 75.667 93.667 C 75.300 94.033, 75.052 95.496, 75.116 96.917 C 75.208 98.966, 75.329 99.087, 75.700 97.500 C 75.958 96.400, 76.892 94.938, 77.775 94.250 C 79.169 93.166, 79.180 93, 77.858 93 C 77.019 93, 76.033 93.300, 75.667 93.667 M 127.393 104.582 C 127.727 105.452, 128 106.577, 128 107.082 C 128 107.587, 128.388 108, 128.861 108 C 129.335 108, 129.508 106.875, 129.245 105.500 C 128.982 104.125, 128.321 103, 127.776 103 C 127.232 103, 127.059 103.712, 127.393 104.582 M 142.405 116.845 C 142.797 117.480, 142.690 118, 142.166 118 C 141.642 118, 140.964 118.652, 140.658 119.449 C 140.297 120.390, 140.582 120.714, 141.474 120.372 C 143.349 119.652, 144.159 117.216, 142.802 116.378 C 142.129 115.962, 141.972 116.146, 142.405 116.845 M 86 120.069 C 86 120.530, 87.912 120.890, 90.250 120.870 C 92.588 120.850, 96.300 121.150, 98.500 121.537 C 100.700 121.924, 102.165 121.889, 101.756 121.459 C 101.346 121.029, 99.771 120.533, 98.256 120.357 C 90.211 119.419, 86 119.320, 86 120.069 M 137.286 137.500 C 137.294 140.250, 137.488 141.256, 137.718 139.736 C 137.947 138.216, 137.941 135.966, 137.704 134.736 C 137.467 133.506, 137.279 134.750, 137.286 137.500 M 86.750 180.706 C 87.987 180.944, 90.013 180.944, 91.250 180.706 C 92.487 180.467, 91.475 180.272, 89 180.272 C 86.525 180.272, 85.513 180.467, 86.750 180.706 M 114 185 C 114.825 185.533, 116.850 185.969, 118.500 185.969 C 120.150 185.969, 122.175 185.533, 123 185 C 124.060 184.315, 122.739 184.031, 118.500 184.031 C 114.261 184.031, 112.940 184.315, 114 185" stroke="none" fill="#8d9073" fill-rule="evenodd"/></svg>