<?xml version="1.0" encoding="UTF-8"?>
<svg xmlns="http://www.w3.org/2000/svg" xmlns:xlink="http://www.w3.org/1999/xlink" width="200px" height="200px" viewBox="0 0 200 200" version="1.1">
<g id="surface1">
<path style=" stroke:none;fill-rule:nonzero;fill:rgb(0%,0%,0%);fill-opacity:1;" d="M 68.699219 9.5 C 63.398438 11 52.800781 15 52 15.898438 C 51.699219 16.199219 48.398438 18.601562 44.5 21.199219 C 36.601562 26.5 32.101562 30.898438 29.199219 36 C 28.199219 37.898438 26.101562 41.5 24.601562 44 C 19.101562 53.300781 9.101562 75.101562 6.199219 84.101562 C 4.199219 90.199219 3 96.601562 2.601562 102.5 L 2 111.5 L 3.5 104 C 4.300781 99.898438 5.199219 94.898438 5.398438 93 C 6.5 83.898438 21 52.5 31.101562 37.601562 C 39 26 53.199219 16 69 10.898438 C 77.699219 8.101562 77.398438 7.101562 68.699219 9.5 Z M 68.699219 9.5 "/>
<path style=" stroke:none;fill-rule:nonzero;fill:rgb(0%,0%,0%);fill-opacity:1;" d="M 94 11 C 94 11.699219 93.101562 11.898438 91.800781 11.5 C 89.800781 11 89.699219 11.101562 91.300781 12 C 92.199219 12.601562 93.398438 12.898438 93.898438 12.5 C 94.398438 12.199219 97.199219 13.300781 100.101562 15 C 104.699219 17.699219 105.398438 17.898438 106.898438 16.601562 C 107.800781 15.800781 111 14.5 114 13.699219 L 119.5 12.199219 L 115.5 12.101562 C 113.300781 12.101562 110.300781 12.699219 108.699219 13.5 C 106.199219 14.800781 105.601562 14.699219 102.699219 13.101562 C 98.5 10.699219 94 9.601562 94 11 Z M 94 11 "/>
<path style=" stroke:none;fill-rule:nonzero;fill:rgb(0%,0%,0%);fill-opacity:1;" d="M 127 11.300781 C 135.601562 13 144.398438 17.898438 153 25.800781 C 162.699219 34.601562 168.101562 42 173.898438 54.101562 C 178.898438 64.898438 187 85.898438 187 88.398438 C 187 89.199219 187.398438 90.101562 187.898438 90.398438 C 189.199219 91.199219 187.5 84.5 183.601562 73.300781 C 179.5 61.398438 176.800781 54.699219 176 54 C 175.699219 53.699219 174.800781 51.898438 174 50 C 171.699219 44 161.800781 30.5 155.898438 25.398438 C 147.199219 17.800781 146.300781 17.101562 142.800781 16.101562 C 141 15.601562 140.199219 15.101562 141 15.101562 C 144.898438 14.800781 132.800781 10.800781 127 10.398438 L 120.5 10.101562 Z M 127 11.300781 "/>
<path style=" stroke:none;fill-rule:nonzero;fill:rgb(0%,0%,0%);fill-opacity:1;" d="M 82 15 C 79.699219 15.699219 79.800781 15.800781 83 15.898438 C 84.898438 15.898438 87.199219 15.5 88 15 C 89.199219 14.199219 89 14 87 14.101562 C 85.601562 14.199219 83.398438 14.601562 82 15 Z M 82 15 "/>
<path style=" stroke:none;fill-rule:nonzero;fill:rgb(0%,0%,0%);fill-opacity:1;" d="M 91 16.5 C 91 17.601562 92.199219 18 95.800781 17.898438 L 100.5 17.800781 L 97 16.5 C 92.300781 14.699219 91 14.699219 91 16.5 Z M 91 16.5 "/>
<path style=" stroke:none;fill-rule:nonzero;fill:rgb(0%,0%,0%);fill-opacity:1;" d="M 108 20.199219 L 105.5 21.199219 L 107.800781 22.101562 C 109.101562 22.601562 110.699219 22.699219 111.300781 22.300781 C 112 21.898438 113.398438 21.398438 114.398438 21.300781 C 117.199219 20.800781 117.699219 20 115.199219 20 C 114.101562 20 112.601562 19.800781 111.800781 19.601562 C 111.101562 19.300781 109.398438 19.601562 108 20.199219 Z M 108 20.199219 "/>
<path style=" stroke:none;fill-rule:nonzero;fill:rgb(0%,0%,0%);fill-opacity:1;" d="M 89.800781 20.699219 C 87 21 86.199219 21.5 86.300781 22.898438 C 86.398438 24.398438 86.898438 24.601562 89 23.898438 C 90.398438 23.398438 94 22.898438 97 22.601562 C 103.898438 22 103.898438 22 101.5 21 C 99.398438 20.101562 96.300781 20 89.800781 20.699219 Z M 89.800781 20.699219 "/>
<path style=" stroke:none;fill-rule:nonzero;fill:rgb(0%,0%,0%);fill-opacity:1;" d="M 86.699219 26.601562 C 82.300781 29 84.101562 29.300781 89.101562 27 C 91.699219 25.898438 92.699219 25.101562 91.5 25.101562 C 90.398438 25.101562 88.199219 25.800781 86.699219 26.601562 Z M 86.699219 26.601562 "/>
<path style=" stroke:none;fill-rule:nonzero;fill:rgb(0%,0%,0%);fill-opacity:1;" d="M 111 26.898438 C 111 27.800781 113.300781 29.101562 115.800781 29.601562 C 116.5 29.699219 118.300781 30.601562 119.800781 31.601562 L 122.5 33.300781 L 120.5 31.101562 C 117.300781 27.398438 111 24.699219 111 26.898438 Z M 111 26.898438 "/>
<path style=" stroke:none;fill-rule:nonzero;fill:rgb(0%,0%,0%);fill-opacity:1;" d="M 97.601562 30.898438 C 96.601562 32 96.101562 33.398438 96.5 33.898438 C 96.800781 34.5 96.699219 35 96.300781 35 C 94.898438 35 87.601562 47.199219 82.601562 57.601562 C 80.699219 61.601562 78.699219 65.101562 78.101562 65.398438 C 76.800781 66.199219 69.699219 84.601562 67.199219 93.601562 C 66.101562 97.5 64.199219 106.699219 62.898438 114.101562 C 61 125.800781 60.800781 128.300781 61.800781 134.300781 C 63.398438 143.601562 66.199219 148.800781 70.699219 150.601562 C 72.601562 151.5 74.800781 151.898438 75.601562 151.601562 C 78.398438 150.5 78.101562 153.398438 75.101562 156.199219 C 72.898438 158.199219 70.5 159.398438 67.699219 159.699219 C 64.898438 160 64 159.800781 64.800781 159.199219 C 65.800781 158.5 65.398438 158 63.101562 157 C 59.101562 155.398438 53 148.601562 52.898438 145.699219 C 52.800781 143.199219 50.199219 136 50 137.5 C 48.898438 143.398438 53.300781 153.898438 57.601562 155.898438 C 58.898438 156.5 60 157.398438 60 158 C 60 158.601562 61.5 159.699219 63.300781 160.5 L 66.5 161.800781 L 63.601562 162.898438 C 59.601562 164.5 57.398438 163.5 52.398438 158.101562 C 46 151.300781 44.5 146.101562 44.601562 131 C 44.699219 120.300781 45.101562 117.5 47.300781 111.699219 C 48.601562 108 49.398438 105 48.898438 105 C 47.5 105 42.898438 116.300781 41.398438 123.300781 C 39 135 40 156.300781 43.199219 159.5 C 43.898438 160.199219 44 159.398438 43.5 157 C 43.199219 155.101562 42.699219 149 42.5 143.5 C 42.199219 133.898438 42.199219 133.800781 42.898438 141.5 C 43.300781 145.898438 44 150.199219 44.5 151 C 46.601562 154.398438 52.101562 160.101562 56.601562 163.5 C 58.398438 164.898438 58.398438 164.898438 55.898438 165 C 54.398438 165 52.398438 163.898438 51 162.5 C 48.5 159.898438 45.898438 159 48 161.5 C 49.601562 163.398438 48.5 164.898438 45.699219 164.601562 C 40.5 163.898438 37.101562 162.699219 37.699219 161.699219 C 38 161.199219 37.800781 161 37.199219 161.398438 C 35.199219 162.601562 31.199219 159.800781 29.699219 156.101562 C 27.898438 152 26.898438 141.199219 28.199219 140.800781 C 28.699219 140.601562 29 136.398438 28.800781 131.5 L 28.5 122.5 L 27.101562 128.5 C 26.199219 132.398438 25.898438 138.300781 26.199219 145.800781 L 26.601562 157.101562 L 24.398438 153.5 C 21.800781 149.101562 20.800781 143.300781 20.800781 132.5 C 20.800781 125.898438 20.601562 125.101562 19.898438 128 C 19.398438 129.898438 19.101562 135.300781 19.199219 140 C 19.300781 147.199219 19 148.601562 17.601562 148.800781 C 16.699219 149 16 148.5 16 147.601562 C 16 146.800781 15.5 145.800781 14.898438 145.398438 C 14.300781 145 14 145.5 14.199219 146.601562 C 14.800781 150.300781 12.601562 149.101562 11 144.898438 C 9.699219 141.699219 9.199219 141.101562 8.699219 142.398438 C 8.300781 143.398438 8.699219 145.101562 9.5 146.300781 C 11.101562 148.601562 11.5 152 10.199219 152 C 8.800781 152 7 156.800781 7 160.300781 C 7 162.101562 7.398438 166.898438 8 171 C 8.5 175.101562 9.300781 182 9.601562 186.300781 C 9.898438 190.601562 10.5 193.898438 10.800781 193.5 C 11.101562 193.199219 12 194 12.601562 195.199219 L 13.898438 197.5 L 13.601562 195 C 13.5 193.601562 12.800781 191.5 12.199219 190.300781 C 11.5 189.101562 11 185.699219 11 182.800781 C 11 179.898438 10.5 173.101562 9.800781 167.800781 C 8.898438 160.5 8.898438 157.5 9.800781 155.601562 C 11 152.800781 14.199219 150.5 18.101562 149.601562 C 20.300781 149.101562 20.800781 149.5 21.898438 152.601562 C 22.699219 154.699219 24.699219 157.101562 27.101562 158.699219 C 31.398438 161.5 31.699219 162.699219 29.398438 167.101562 C 27.5 170.898438 28.398438 173.800781 31.800781 174.601562 C 35.300781 175.398438 42.101562 179.199219 41.800781 180.101562 C 41.601562 180.5 39.5 182.300781 37 184.199219 C 32 188 31.5 189.199219 32.5 195.601562 C 33.5 202.699219 35.699219 201.199219 35.199219 193.800781 C 34.800781 187.5 34.800781 187.5 38.199219 185.699219 C 41.898438 183.601562 50.699219 176 49.300781 176 C 48.800781 176 47.898438 176.5 47.300781 177.101562 C 46.398438 178 45 177.699219 41.800781 176.101562 C 39.398438 175 36 173.699219 34.101562 173.398438 C 32.300781 173 30.601562 172.101562 30.300781 171.398438 C 29.898438 170.199219 31.699219 163 32.398438 163 C 32.601562 163 35.601562 163.898438 39.101562 165 C 43 166.300781 46.5 166.800781 48 166.398438 C 49.398438 166.101562 53.101562 165.800781 56.300781 165.898438 C 60.699219 166.101562 62.898438 165.601562 65.800781 163.898438 C 67.800781 162.601562 69.699219 161.199219 69.800781 160.800781 C 70 160.398438 70.800781 160 71.5 160 C 73.101562 160 73.601562 164.601562 73.898438 181 C 74 187.898438 74.300781 195 74.601562 196.800781 C 75.300781 200.398438 77.898438 201.199219 78.101562 197.699219 C 78.199219 196.199219 78.398438 196 78.699219 197.101562 C 78.898438 198.101562 80 198.699219 81.398438 198.601562 C 83.601562 198.5 83.601562 198.398438 82.101562 196.300781 C 80.300781 193.800781 77.5 193.300781 76.699219 195.199219 C 76.300781 196 76.101562 196.101562 76.101562 195.398438 C 76 194.800781 76.699219 193.699219 77.5 193 C 79.5 191.300781 79.398438 189.898438 77.300781 190.699219 C 75.800781 191.300781 75.800781 191.199219 77 189.898438 C 77.699219 189.101562 79.699219 188.5 81.398438 188.601562 C 84.199219 188.898438 84.199219 188.800781 80.699219 187.800781 L 76.898438 186.601562 L 77.101562 179.300781 C 77.199219 175.300781 77 171.699219 76.699219 171.300781 C 75.300781 170 76 159.898438 77.699219 157.398438 L 79.300781 154.898438 L 83.898438 159.300781 C 89.5 164.800781 96.101562 167.300781 105 167.300781 C 115 167.300781 121.398438 162.800781 128.601562 150.398438 C 130 148 131.5 146.199219 132 146.5 C 132.398438 146.699219 132.800781 148.898438 132.800781 151.300781 C 132.898438 154.898438 132.5 155.898438 130.699219 156.800781 C 129.300781 157.5 129 157.898438 130 157.898438 C 135.898438 158.199219 139.601562 148.898438 141.199219 130.300781 C 142.898438 111.101562 141.699219 104 134.398438 89.101562 C 131.300781 82.800781 128.699219 76.601562 128.5 75.300781 C 128.398438 74 127.898438 72.601562 127.5 72.199219 C 127.101562 71.800781 127.101562 72.601562 127.5 74 C 127.898438 75.398438 128 76.199219 127.601562 75.898438 C 126.398438 74.800781 112 42.5 112.101562 41 C 112.101562 40.199219 112.5 40.5 113.101562 41.898438 C 113.601562 43.199219 114.300781 44 114.601562 43.699219 C 115.101562 43.300781 109.398438 31 108.699219 31 C 108.601562 31 108.398438 34 108.300781 37.699219 C 108.199219 41.398438 107.601562 44.601562 107 44.800781 C 106.5 45 106.199219 45.5 106.5 46 C 106.800781 46.5 105.5 50.101562 103.699219 54.199219 C 99 64.300781 84.800781 79.898438 74.898438 85.699219 C 73.300781 86.699219 72 87.699219 72 88 C 72 88.300781 75.800781 88.601562 80.5 88.800781 C 88.101562 89.101562 89 88.898438 89 87.398438 C 89 86 89.300781 85.898438 90.199219 86.800781 C 91.601562 88.199219 93 88.398438 93 87.101562 C 93 86.199219 92.601562 86 85.5 83.5 C 83.300781 82.800781 82.300781 82.101562 83.300781 82.101562 C 84.300781 82 84.800781 81.5 84.5 81 C 84.199219 80.398438 84.398438 80 85.101562 80 C 86.800781 80 96.699219 86.699219 97.199219 88.199219 C 97.5 89 97.898438 88.800781 98.300781 87.699219 C 98.699219 86.601562 97.699219 85 94.601562 82.5 C 92.199219 80.601562 89.800781 79 89.101562 79 C 87.101562 79 87.898438 77.601562 93.101562 72.5 C 98.601562 67.101562 106.101562 56.398438 108.5 50.601562 C 109.300781 48.601562 109.898438 45.300781 109.601562 43.300781 C 109.398438 41.199219 109.5 40.5 109.699219 41.699219 C 109.898438 43 110.5 44 111 44 C 111.5 44 112.199219 45.5 112.601562 47.199219 C 113.300781 50.601562 122.398438 69.800781 124.101562 71.398438 C 125.898438 73.300781 125.101562 75.300781 122.800781 74.699219 C 120.699219 74.101562 112.800781 77.300781 108.898438 80.300781 C 106.800781 81.898438 105 85.398438 105.101562 87.699219 C 105.101562 88.699219 105.398438 89 105.699219 88.199219 C 106.398438 86.5 108 86.699219 108 88.398438 C 108 89.199219 108.398438 90.101562 108.898438 90.398438 C 109.398438 90.800781 109.5 89.5 109 87.5 C 108.101562 83.5 108.5 83.101562 113.699219 82.398438 C 115.800781 82.199219 118.898438 81.5 120.5 81 C 123.398438 80 123.300781 80 119.699219 80.398438 C 116.300781 80.800781 116 80.699219 117.101562 79.398438 C 119.199219 76.898438 121.800781 75.898438 124.601562 76.601562 C 126.699219 77.101562 128 79 131.398438 86.398438 C 138.800781 102.199219 139.398438 104.5 139.398438 117 L 139.5 125.5 L 131.5 140.398438 C 121.898438 158.199219 117.300781 163.5 110.601562 164.5 C 97.398438 166.5 89.101562 163.601562 82.699219 154.898438 C 81 152.5 77 147.5 73.800781 143.699219 C 66.5 135.199219 64 130.300781 64.101562 124.800781 L 64.101562 120.5 L 65.398438 124.5 C 66.898438 129.300781 74.398438 142.300781 76.800781 144.199219 C 77.898438 145 77.601562 144.199219 76.101562 142 C 68 129.5 64.398438 114 67 102 C 68.800781 93.800781 71.800781 85 74 81.199219 C 75.101562 79.398438 76 77 76 75.898438 C 76 73.300781 83.800781 58.5 90.601562 48.300781 C 93.601562 43.800781 96.699219 38.398438 97.601562 36.300781 C 98.398438 34.199219 99.5 31.699219 100 30.699219 C 101.398438 28.398438 99.699219 28.5 97.601562 30.898438 Z M 139 139.601562 C 139 141.5 135.699219 152.601562 134.898438 153.398438 C 134.398438 154 134 151.398438 134 146.699219 C 134 139.199219 134 139 136.5 139 C 137.898438 139 139 139.300781 139 139.601562 Z M 71 143.199219 C 73 145.398438 73.800781 149 72.199219 149 C 71.699219 149 70.101562 147.601562 68.5 146 C 66 143.398438 65.800781 142.800781 67 142 C 68.898438 140.800781 68.601562 140.699219 71 143.199219 Z M 71 143.199219 "/>
<path style=" stroke:none;fill-rule:nonzero;fill:rgb(0%,0%,0%);fill-opacity:1;" d="M 101.199219 35.398438 C 100 37.800781 99 40 99 40.398438 C 99 40.800781 96.300781 46.601562 93 53.300781 C 89.699219 60 87.699219 64.601562 88.601562 63.5 C 90.898438 60.5 98 46.199219 100 40.601562 C 100.898438 37.800781 102.199219 35.398438 102.800781 35.199219 C 103.898438 34.898438 99.5 47.101562 96 53.898438 C 93.800781 58.199219 93.5 60 94.898438 60 C 95.398438 60 96.300781 58.601562 97 56.898438 C 97.699219 55.199219 99.300781 52.398438 100.5 50.601562 C 104.199219 45.101562 106 38.601562 104.898438 34.5 C 104.300781 32.601562 103.800781 31 103.601562 31 C 103.5 31 102.398438 33 101.199219 35.398438 Z M 101.199219 35.398438 "/>
<path style=" stroke:none;fill-rule:nonzero;fill:rgb(0%,0%,0%);fill-opacity:1;" d="M 113.300781 34.101562 C 114.199219 35.398438 115.800781 38 116.699219 39.699219 C 117.601562 41.5 118.699219 43 119.199219 43 C 120.300781 43 120.199219 41.601562 119 40.398438 C 118.398438 39.800781 117.800781 38.300781 117.5 37 C 117.300781 35.800781 116.898438 34.699219 116.800781 34.601562 C 116.601562 34.601562 115.398438 33.898438 114 33.101562 L 111.601562 31.699219 Z M 113.300781 34.101562 "/>
<path style=" stroke:none;fill-rule:nonzero;fill:rgb(0%,0%,0%);fill-opacity:1;" d="M 149 54.199219 C 149 54.601562 151.699219 60.300781 154.898438 66.699219 C 161.800781 80.5 165.898438 95.601562 167 111.5 C 167.699219 121 167.699219 121.199219 168 115 C 168.5 105.601562 168.101562 100.601562 166 90.699219 C 164.101562 82 159.898438 71 157.300781 67.898438 C 156.5 67 154.398438 63.398438 152.5 59.898438 C 150.601562 56.398438 149 53.800781 149 54.199219 Z M 149 54.199219 "/>
<path style=" stroke:none;fill-rule:nonzero;fill:rgb(0%,0%,0%);fill-opacity:1;" d="M 38.101562 67.199219 C 35.300781 71.601562 31 81.101562 31 82.800781 C 31 83.800781 30.5 85.101562 29.898438 85.699219 C 29.199219 86.398438 29.199219 87 29.800781 87.398438 C 30.300781 87.699219 31.5 85.800781 32.5 83.199219 C 33.5 80.601562 35.800781 75.5 37.699219 71.699219 C 40.898438 65.300781 41.101562 62.398438 38.101562 67.199219 Z M 38.101562 67.199219 "/>
<path style=" stroke:none;fill-rule:nonzero;fill:rgb(0%,0%,0%);fill-opacity:1;" d="M 139.800781 68.5 C 141.101562 71.398438 144.699219 86.300781 146.101562 94.5 C 146.699219 98.300781 147.300781 108 147.300781 116 C 147.300781 127.300781 147.5 129.5 148.199219 126 C 149.101562 121.800781 148.699219 99.5 147.601562 90.699219 C 147 84.898438 143.800781 74 142.898438 74 C 142.398438 74 142 73.199219 142 72.199219 C 142 71.199219 141.300781 69.5 140.398438 68.398438 C 138.898438 66.5 138.898438 66.5 139.800781 68.5 Z M 139.800781 68.5 "/>
<path style=" stroke:none;fill-rule:nonzero;fill:rgb(0%,0%,0%);fill-opacity:1;" d="M 166.5 78 C 166.898438 79.398438 168 83.601562 169.101562 87.5 C 170.101562 91.300781 171 95.601562 171.101562 97 C 171.101562 98.398438 171.398438 98.898438 171.699219 98.199219 C 172.5 96.300781 170.199219 85.5 167.898438 80.101562 C 166.800781 77.601562 166.199219 76.601562 166.5 78 Z M 166.5 78 "/>
<path style=" stroke:none;fill-rule:nonzero;fill:rgb(0%,0%,0%);fill-opacity:1;" d="M 120.898438 83 C 118.300781 83.300781 115.5 84.199219 114.601562 84.898438 C 112.398438 86.800781 113.300781 87.5 115.898438 85.898438 C 117 85.199219 118.300781 84.898438 118.699219 85.300781 C 119.101562 85.800781 118.800781 86.5 118.101562 86.898438 C 115.898438 88.300781 118.5 89.101562 123 88.398438 C 130.898438 87.101562 128.898438 82.101562 120.898438 83 Z M 120.898438 83 "/>
<path style=" stroke:none;fill-rule:nonzero;fill:rgb(0%,0%,0%);fill-opacity:1;" d="M 97.699219 91.898438 C 96.800781 93.5 96 96 96 97.398438 C 96 99.101562 95.5 100 94.398438 100 C 90.398438 100 83.101562 104.300781 80.101562 108.601562 C 78.300781 111 77.199219 113 77.699219 113 C 78.101562 113 81.101562 110.699219 84.300781 107.800781 C 88.101562 104.5 91.199219 102.601562 93.101562 102.5 C 95.699219 102.300781 96 102.5 96 105.101562 C 96 107 96.5 108 97.5 108 C 98.601562 108 98.898438 107.300781 98.398438 105.5 C 98.101562 104.101562 98.300781 100 99 96.398438 C 99.699219 92.898438 100.101562 89.699219 99.800781 89.5 C 99.601562 89.300781 98.601562 90.398438 97.699219 91.898438 Z M 97.699219 91.898438 "/>
<path style=" stroke:none;fill-rule:nonzero;fill:rgb(0%,0%,0%);fill-opacity:1;" d="M 127.398438 90.398438 C 124.300781 91.800781 118.199219 91.800781 114.5 90.5 C 112.5 89.800781 112.5 89.898438 114.398438 91.398438 C 115.5 92.300781 117.300781 93.101562 118.398438 93.101562 C 119.601562 93.199219 121.601562 93.398438 123 93.601562 C 126.300781 94 131 92.101562 131 90.398438 C 131 88.699219 131.300781 88.699219 127.398438 90.398438 Z M 127.398438 90.398438 "/>
<path style=" stroke:none;fill-rule:nonzero;fill:rgb(0%,0%,0%);fill-opacity:1;" d="M 72 90.800781 C 72 92.601562 76.101562 93.800781 83.300781 93.898438 C 87.5 94 91 93.699219 91 93.300781 C 91 92.800781 87.601562 92.398438 83.398438 92.398438 C 79.300781 92.300781 75.300781 91.699219 74.699219 91.101562 C 73.398438 89.800781 72 89.601562 72 90.800781 Z M 72 90.800781 "/>
<path style=" stroke:none;fill-rule:nonzero;fill:rgb(0%,0%,0%);fill-opacity:1;" d="M 106 95.5 C 106 96.800781 106.898438 99.398438 107.898438 101.101562 C 109 102.800781 109.601562 104.898438 109.300781 105.601562 C 109 106.398438 109.300781 107 109.898438 107 C 111.699219 107 111.101562 101.300781 108.898438 97 C 106.5 92.300781 106 92.101562 106 95.5 Z M 106 95.5 "/>
<path style=" stroke:none;fill-rule:nonzero;fill:rgb(0%,0%,0%);fill-opacity:1;" d="M 36.398438 103.699219 C 36 104.699219 34.699219 107.800781 33.398438 110.601562 C 32.101562 113.398438 31 116.101562 31 116.601562 C 31.101562 117.800781 36.601562 106.699219 37.300781 104 C 37.898438 101.5 37.199219 101.300781 36.398438 103.699219 Z M 36.398438 103.699219 "/>
<path style=" stroke:none;fill-rule:nonzero;fill:rgb(0%,0%,0%);fill-opacity:1;" d="M 171.101562 106.300781 C 171 109 171.398438 110.898438 171.898438 110.601562 C 172.398438 110.199219 173.101562 110.601562 173.300781 111.199219 C 173.601562 111.898438 173.601562 110.898438 173.300781 109 C 172.199219 102.398438 171.101562 101.101562 171.101562 106.300781 Z M 171.101562 106.300781 "/>
<path style=" stroke:none;fill-rule:nonzero;fill:rgb(0%,0%,0%);fill-opacity:1;" d="M 116 103.898438 C 116 105.300781 121.800781 109.199219 122.398438 108.199219 C 122.699219 107.699219 121.800781 106.300781 120.5 105.199219 C 117.800781 102.898438 116 102.398438 116 103.898438 Z M 116 103.898438 "/>
<path style=" stroke:none;fill-rule:nonzero;fill:rgb(0%,0%,0%);fill-opacity:1;" d="M 90.398438 105.398438 C 89 108.898438 90.5 110.5 96.5 112 L 102.5 113.5 L 98 114 C 93.800781 114.601562 93.699219 114.699219 96.300781 115.398438 C 99.800781 116.5 112.699219 115.699219 114 114.398438 C 114.601562 113.800781 113.5 113.601562 110.699219 113.800781 C 106.300781 114.101562 106.300781 113.898438 111.699219 110.199219 C 113.300781 109.101562 113 109 110 109.601562 C 106.300781 110.199219 100.800781 110.300781 95 109.800781 C 91.898438 109.5 91.5 109.199219 91.699219 106.699219 C 91.898438 103.800781 91.300781 103.101562 90.398438 105.398438 Z M 90.398438 105.398438 "/>
<path style=" stroke:none;fill-rule:nonzero;fill:rgb(0%,0%,0%);fill-opacity:1;" d="M 13.101562 109.699219 C 11.800781 114.398438 11.699219 117.800781 12.898438 116.398438 C 13.800781 115.5 15.300781 106 14.5 106 C 14.300781 106 13.601562 107.699219 13.101562 109.699219 Z M 13.101562 109.699219 "/>
<path style=" stroke:none;fill-rule:nonzero;fill:rgb(0%,0%,0%);fill-opacity:1;" d="M 137.300781 113.898438 C 136.898438 115.601562 136.699219 119.398438 136.898438 122.199219 C 137.398438 127.398438 137.398438 127.300781 138.101562 119.5 C 138.898438 110.898438 138.601562 108.898438 137.300781 113.898438 Z M 137.300781 113.898438 "/>
<path style=" stroke:none;fill-rule:nonzero;fill:rgb(0%,0%,0%);fill-opacity:1;" d="M 157.101562 116.199219 C 157 119.300781 157.398438 122.101562 157.800781 122.398438 C 159 123.101562 159.199219 117 158.101562 113.5 C 157.300781 110.898438 157.199219 111.199219 157.101562 116.199219 Z M 157.101562 116.199219 "/>
<path style=" stroke:none;fill-rule:nonzero;fill:rgb(0%,0%,0%);fill-opacity:1;" d="M 125.101562 113.300781 C 127.300781 115 129.699219 119.800781 130.5 124.300781 C 131 127 130.601562 129.601562 129 133.898438 C 127.800781 137.199219 127 140.699219 127.199219 141.699219 C 127.601562 143.898438 132 132.199219 132.699219 127 C 133 124.898438 132.699219 122.300781 132 121.101562 C 130.699219 118.601562 131.601562 116.699219 133 119 C 133.601562 119.800781 134 120 134 119.398438 C 134 118.101562 130.398438 114.699219 127.300781 113.101562 C 124.398438 111.601562 123.101562 111.699219 125.101562 113.300781 Z M 125.101562 113.300781 "/>
<path style=" stroke:none;fill-rule:nonzero;fill:rgb(0%,0%,0%);fill-opacity:1;" d="M 194.5 117.300781 C 194.601562 125.601562 193.300781 131.800781 190.101562 138.601562 C 185.699219 148 182.398438 151.800781 175.601562 155.199219 C 172.199219 156.898438 168.800781 158.800781 168 159.5 C 165.5 161.5 154.398438 165.199219 151.898438 164.800781 C 149.601562 164.398438 149.601562 164.300781 152.898438 162.300781 C 156.898438 159.699219 160.601562 153.898438 161.5 148.5 C 161.898438 146.300781 162.398438 143.601562 162.699219 142.5 C 163.601562 139.101562 161.300781 142.199219 160.101562 146.101562 C 158.800781 150.199219 151.601562 160.800781 146.398438 166.199219 C 144.5 168.199219 141 170.800781 138.699219 172 C 135.101562 173.898438 134.898438 174.101562 137.5 173.601562 C 139.199219 173.199219 142.398438 171.601562 144.800781 170 C 147.101562 168.300781 150.199219 167 151.601562 167 C 154.5 167 165.601562 163.398438 168.601562 161.5 C 170.699219 160.199219 170.898438 160.398438 173.398438 165.300781 C 174.800781 168.101562 175.601562 170.800781 175.199219 171.101562 C 174.800781 171.5 171.5 172.699219 167.800781 174 C 164 175.199219 161 176.5 161 176.898438 C 161 177.300781 162.199219 178.199219 163.601562 178.898438 C 165.898438 179.898438 166.398438 179.800781 167.699219 178 C 168.5 176.898438 169.699219 176 170.5 176 C 171.300781 176 173.101562 174.898438 174.601562 173.601562 L 177.398438 171.300781 L 175.101562 165.398438 C 172.601562 158.800781 172.898438 158.300781 179.5 155.898438 C 182.199219 154.898438 184 153 188.398438 146.5 C 189.601562 144.898438 190 144.800781 191.398438 145.898438 C 194.101562 148.101562 195 153.898438 195 168.398438 C 195 183.199219 196.699219 200 198.101562 200 C 199.300781 200 199.199219 193.800781 198 186.5 C 197.398438 183.199219 196.898438 175 197 168.199219 C 197.101562 154.300781 196 148.898438 192.300781 145.300781 L 189.800781 142.699219 L 191.898438 138.601562 C 195.300781 132 197.300781 116.601562 195.199219 113.300781 C 194.800781 112.699219 194.5 114.5 194.5 117.300781 Z M 194.5 117.300781 "/>
<path style=" stroke:none;fill-rule:nonzero;fill:rgb(0%,0%,0%);fill-opacity:1;" d="M 120.601562 114.5 C 121.300781 116.101562 127 119.300781 127 118.101562 C 127 117 123.898438 114.398438 121.800781 113.699219 C 120.601562 113.300781 120.300781 113.5 120.601562 114.5 Z M 120.601562 114.5 "/>
<path style=" stroke:none;fill-rule:nonzero;fill:rgb(0%,0%,0%);fill-opacity:1;" d="M 174.300781 119.5 C 174.300781 123.300781 174.5 124.800781 174.699219 122.699219 C 174.898438 120.699219 174.898438 117.5 174.699219 115.699219 C 174.5 114 174.300781 115.601562 174.300781 119.5 Z M 174.300781 119.5 "/>
<path style=" stroke:none;fill-rule:nonzero;fill:rgb(0%,0%,0%);fill-opacity:1;" d="M 74.898438 117.898438 C 72.800781 120.101562 72 121.800781 72 124.398438 C 72 128.101562 76 138.199219 77.898438 139.398438 C 79.300781 140.300781 79.300781 140 77.5 135.5 C 75.601562 131 75.800781 119.5 77.800781 119.5 C 78.5 119.5 79.398438 119 79.800781 118.398438 C 80.199219 117.800781 81.398438 116.800781 82.5 116.199219 C 84.300781 115.199219 84.199219 115.101562 81.199219 115 C 78.800781 115 77 115.800781 74.898438 117.898438 Z M 74.898438 117.898438 "/>
<path style=" stroke:none;fill-rule:nonzero;fill:rgb(0%,0%,0%);fill-opacity:1;" d="M 18.101562 124 C 16.898438 129.5 16.699219 132.601562 17.5 131.800781 C 18.199219 131.101562 20.101562 119.699219 19.601562 119.199219 C 19.398438 119 18.699219 121.199219 18.101562 124 Z M 18.101562 124 "/>
<path style=" stroke:none;fill-rule:nonzero;fill:rgb(0%,0%,0%);fill-opacity:1;" d="M 150.601562 132.300781 C 148.5 143.5 145.5 150.398438 140.601562 155.199219 C 137.199219 158.5 135.199219 159.601562 129.699219 161.398438 C 127.699219 162 128.300781 164 130.398438 164 C 132.101562 164 142.601562 155.800781 145.300781 152.398438 C 148.398438 148.398438 152.101562 137.300781 152.699219 129.699219 C 153 126 153.101562 123 152.800781 123 C 152.5 123 151.5 127.199219 150.601562 132.300781 Z M 150.601562 132.300781 "/>
<path style=" stroke:none;fill-rule:nonzero;fill:rgb(0%,0%,0%);fill-opacity:1;" d="M 117 125.199219 C 112.300781 125.699219 101.5 126 93 126 L 77.601562 125.898438 L 79.5 127.898438 C 83 131.800781 100 140 100 137.898438 C 100 137.300781 102.800781 137 106.398438 137.101562 C 110.800781 137.199219 113.398438 136.800781 114.898438 135.800781 C 117.898438 133.699219 115.898438 132.601562 111.699219 133.898438 C 108.101562 135 94.601562 134.898438 93.398438 133.699219 C 93 133.300781 91.898438 133 91.101562 133 C 90.199219 133 88.398438 132.300781 87.101562 131.398438 C 83.398438 128.800781 86.101562 128.101562 99.199219 128.398438 C 105.699219 128.5 111.300781 128.398438 111.601562 128.101562 C 111.898438 127.800781 114.101562 127.398438 116.601562 127.300781 C 120.699219 127 121 127.199219 121 129.398438 C 121 130.699219 120.300781 132 119.5 132.398438 C 118.699219 132.699219 118 134 118 135.300781 C 118 138.199219 114.601562 141.5 108.300781 144.601562 L 103.5 146.898438 L 106.898438 147 C 110.601562 147 117 143.601562 117 141.601562 C 117 140.898438 118.699219 138.199219 120.699219 135.601562 C 123.699219 131.699219 124.101562 130.699219 122.898438 129.898438 C 121.699219 129.199219 121.699219 129 123.101562 129 C 123.898438 129 125.699219 127.898438 127 126.5 C 129.699219 123.601562 130.699219 123.699219 117 125.199219 Z M 117 125.199219 "/>
<path style=" stroke:none;fill-rule:nonzero;fill:rgb(0%,0%,0%);fill-opacity:1;" d="M 4.101562 130.101562 C 4 132.101562 4.5 135.199219 5.101562 137.101562 C 6.5 141.101562 8.601562 143.800781 7.398438 140 C 7 138.601562 6.101562 135 5.398438 132 C 4.300781 127 4.199219 126.898438 4.101562 130.101562 Z M 4.101562 130.101562 "/>
<path style=" stroke:none;fill-rule:nonzero;fill:rgb(0%,0%,0%);fill-opacity:1;" d="M 175.699219 130 C 175.300781 131.398438 175.101562 134.300781 175.101562 136.5 C 175.199219 140.300781 175.300781 140.199219 176.101562 135.101562 C 177.101562 129.300781 176.800781 125.898438 175.699219 130 Z M 175.699219 130 "/>
<path style=" stroke:none;fill-rule:nonzero;fill:rgb(0%,0%,0%);fill-opacity:1;" d="M 87.199219 139.101562 C 92.101562 144.898438 95.5 147 100.199219 147 C 104.101562 147 103.101562 145.898438 97 143.699219 C 94.5 142.800781 90.601562 140.199219 88.199219 138 C 82.398438 132.5 82 133 87.199219 139.101562 Z M 87.199219 139.101562 "/>
<path style=" stroke:none;fill-rule:nonzero;fill:rgb(0%,0%,0%);fill-opacity:1;" d="M 31.601562 148.699219 C 32 150.800781 32.699219 153.199219 33.199219 154 C 33.898438 155.101562 34 154.800781 33.601562 153 C 33.300781 151.601562 33 149.300781 33 147.699219 C 33 146.199219 32.5 145 32 145 C 31.300781 145 31.199219 146.398438 31.601562 148.699219 Z M 31.601562 148.699219 "/>
<path style=" stroke:none;fill-rule:nonzero;fill:rgb(0%,0%,0%);fill-opacity:1;" d="M 174.101562 146.699219 C 174.101562 147.898438 173.601562 149.199219 173 149.5 C 172.5 149.800781 172 151.101562 172 152.300781 C 172.101562 154.300781 172.199219 154.300781 173.601562 151.699219 C 174.398438 150.101562 174.898438 147.898438 174.699219 146.699219 L 174.300781 144.5 Z M 174.101562 146.699219 "/>
<path style=" stroke:none;fill-rule:nonzero;fill:rgb(0%,0%,0%);fill-opacity:1;" d="M 149.5 150.699219 C 148 153.398438 145.601562 157.101562 144.199219 159 L 141.699219 162.5 L 145.300781 159.101562 C 148.101562 156.398438 153.898438 146 152.5 146 C 152.300781 146 151 148.101562 149.5 150.699219 Z M 149.5 150.699219 "/>
<path style=" stroke:none;fill-rule:nonzero;fill:rgb(0%,0%,0%);fill-opacity:1;" d="M 185.101562 173.800781 C 182.601562 186.300781 180.398438 197.300781 180.199219 198.398438 C 179.800781 199.699219 180.199219 200.101562 181.5 199.898438 C 182.699219 199.601562 183.898438 197.699219 185 194.398438 C 185.898438 191.5 187.5 188.398438 188.5 187.398438 C 190.5 185.300781 193.398438 179 192.601562 178.300781 C 192.300781 178 191.300781 179.398438 190.398438 181.300781 C 187 188.398438 184.699219 186.101562 187 178 C 188.699219 171.601562 191 153.800781 190.199219 152.5 C 189.800781 151.800781 187.5 161.398438 185.101562 173.800781 Z M 185.101562 173.800781 "/>
<path style=" stroke:none;fill-rule:nonzero;fill:rgb(0%,0%,0%);fill-opacity:1;" d="M 140.699219 165.601562 C 136.199219 169.199219 133.5 172 134.5 172 C 135.5 172 139.199219 169.101562 142.898438 165.5 C 146.5 162 149.300781 159.101562 149 159.101562 C 148.699219 159.101562 145 162.101562 140.699219 165.601562 Z M 140.699219 165.601562 "/>
<path style=" stroke:none;fill-rule:nonzero;fill:rgb(0%,0%,0%);fill-opacity:1;" d="M 14.101562 164.601562 C 14 165.101562 15.398438 169.601562 17 174.5 C 18.699219 179.5 19.800781 184 19.601562 184.601562 C 19.300781 185.300781 20.5 188.398438 22.101562 191.5 C 23.699219 194.601562 25 197.800781 25 198.601562 C 25 199.398438 25.601562 200 26.398438 200 C 27.601562 200 27.601562 198.898438 25.898438 193.300781 C 21.601562 178 14.300781 160.300781 14.101562 164.601562 Z M 14.101562 164.601562 "/>
<path style=" stroke:none;fill-rule:nonzero;fill:rgb(0%,0%,0%);fill-opacity:1;" d="M 124.101562 166.800781 C 122 167.5 123 169 125.800781 169.101562 C 127.300781 169.101562 127.898438 169.398438 127.300781 169.699219 C 125.601562 170.300781 127.5 174 129.5 174 C 131.699219 174 131.300781 177.699219 129 180 C 126.699219 182.300781 126.5 183.101562 128.300781 182.601562 C 128.898438 182.5 129.199219 182.5 128.898438 182.699219 C 128.5 182.898438 128.5 184 128.699219 185.101562 C 129 186.199219 128.699219 188.898438 128 191.101562 L 126.601562 195.101562 L 125.199219 192.5 C 124.5 191 123.601562 190.101562 123.300781 190.398438 C 123 190.699219 123.199219 191.601562 123.898438 192.398438 C 124.5 193.199219 124.898438 194.199219 124.800781 194.800781 C 124.601562 195.300781 125 195.898438 125.5 196 C 126.101562 196.101562 127 197.101562 127.699219 198.300781 C 128.398438 199.5 129 200.101562 129 199.5 C 129.101562 198.898438 129.898438 192.898438 131 186 C 132 179.101562 132.601562 173.199219 132.300781 172.800781 C 132.101562 172.300781 131 172 130 172 C 128.398438 172 128.199219 171.5 128.601562 169.101562 C 129.101562 166.601562 128.898438 166.101562 127.300781 166.300781 C 126.199219 166.300781 124.800781 166.601562 124.101562 166.800781 Z M 124.101562 166.800781 "/>
<path style=" stroke:none;fill-rule:nonzero;fill:rgb(0%,0%,0%);fill-opacity:1;" d="M 87 169.601562 C 87 169.898438 87.601562 170.699219 88.300781 171.5 C 89.5 172.601562 90 172.5 91.300781 170.898438 C 92.898438 169.101562 92.800781 169 90 169 C 88.300781 169 87 169.300781 87 169.601562 Z M 87 169.601562 "/>
<path style=" stroke:none;fill-rule:nonzero;fill:rgb(0%,0%,0%);fill-opacity:1;" d="M 114.699219 171.101562 C 111.199219 172.898438 110.199219 175.601562 113.5 174.300781 C 114.398438 174 115.699219 174.398438 116.601562 175.101562 C 117.898438 176.199219 118.101562 176.199219 117.898438 174.898438 C 117.699219 174.199219 118.101562 172.5 118.800781 171.199219 C 120.300781 168.601562 119.800781 168.601562 114.699219 171.101562 Z M 114.699219 171.101562 "/>
<path style=" stroke:none;fill-rule:nonzero;fill:rgb(0%,0%,0%);fill-opacity:1;" d="M 94.5 173.898438 C 94.800781 175 94.601562 176.101562 94 176.5 C 93.5 176.800781 93 177.601562 93 178.199219 C 93 178.898438 94.300781 178.101562 96 176.5 C 99.101562 173.5 99.101562 172 95.898438 172 C 94.300781 172 94 172.5 94.5 173.898438 Z M 94.5 173.898438 "/>
<path style=" stroke:none;fill-rule:nonzero;fill:rgb(0%,0%,0%);fill-opacity:1;" d="M 98.101562 179.699219 C 96.699219 180 96.199219 180.5 96.800781 180.898438 C 97.5 181.300781 97.199219 182.300781 96 184 C 94.300781 186.199219 93.800781 186.300781 92 185.199219 C 89.101562 183.398438 89.5 185.5 92.5 187.398438 C 93.898438 188.300781 94.800781 189.5 94.5 190 C 94.101562 190.601562 94.398438 191 95.101562 191 C 95.800781 191 96 190.199219 95.699219 188.898438 C 95.300781 187.398438 95.699219 186.601562 97.101562 186.300781 C 98.101562 186 98.699219 185.398438 98.398438 184.800781 C 98.101562 184.300781 98.601562 182.800781 99.398438 181.5 C 100.300781 180.101562 100.898438 179.101562 100.800781 179.101562 C 100.601562 179.199219 99.398438 179.5 98.101562 179.699219 Z M 98.101562 179.699219 "/>
<path style=" stroke:none;fill-rule:nonzero;fill:rgb(0%,0%,0%);fill-opacity:1;" d="M 109.898438 181.5 C 107.199219 184.300781 105.5 184.699219 104.601562 182.5 C 103.898438 180.601562 102.398438 180.601562 101.601562 182.5 C 101.300781 183.300781 101.398438 183.898438 101.800781 183.800781 C 103 183.601562 108.398438 185.199219 109.800781 186.300781 C 110.699219 187 111.5 186.898438 112.300781 186.101562 C 113 185.398438 113.101562 184.898438 112.5 185 C 109.699219 185.601562 109 185 110.199219 183.101562 C 110.898438 182 111.699219 181.300781 112.101562 181.601562 C 112.5 181.800781 113 181.300781 113.398438 180.5 C 114.199219 178.199219 112.5 178.699219 109.898438 181.5 Z M 109.898438 181.5 "/>
<path style=" stroke:none;fill-rule:nonzero;fill:rgb(0%,0%,0%);fill-opacity:1;" d="M 171.699219 181.699219 C 173 181.898438 174.699219 183.101562 175.5 184.300781 L 177 186.398438 L 177 184.300781 C 177 182.300781 174.398438 180.898438 171 181.101562 C 170.199219 181.199219 170.5 181.5 171.699219 181.699219 Z M 171.699219 181.699219 "/>
<path style=" stroke:none;fill-rule:nonzero;fill:rgb(0%,0%,0%);fill-opacity:1;" d="M 102.199219 189 C 100.800781 191.398438 102.101562 193.398438 105.300781 193.601562 C 107.101562 193.800781 107.699219 192.398438 106 191.800781 C 105.398438 191.601562 104.800781 190.5 104.699219 189.199219 C 104.5 186.5 103.898438 186.398438 102.199219 189 Z M 102.199219 189 "/>
<path style=" stroke:none;fill-rule:nonzero;fill:rgb(0%,0%,0%);fill-opacity:1;" d="M 173.601562 192.199219 C 172.699219 195.101562 171.601562 198.101562 171.300781 198.699219 C 171.101562 199.398438 171.199219 200 171.699219 200 C 172.601562 200 173.300781 198.199219 176 189.699219 C 176.5 188.199219 176.5 187 176.101562 187 C 175.699219 187 174.601562 189.398438 173.601562 192.199219 Z M 173.601562 192.199219 "/>
<path style=" stroke:none;fill-rule:nonzero;fill:rgb(0%,0%,0%);fill-opacity:1;" d="M 105.601562 196.398438 C 105.898438 197.199219 105.699219 198.101562 105.101562 198.5 C 104.5 198.800781 103.699219 198.398438 103.398438 197.601562 C 102.5 195.199219 100.101562 195.601562 100.699219 198 C 101.5 200.898438 105.398438 200.601562 106.800781 197.5 C 107.699219 195.5 107.699219 195 106.5 195 C 105.699219 195 105.300781 195.601562 105.601562 196.398438 Z M 105.601562 196.398438 "/>
</g>
</svg>
