<svg xmlns="http://www.w3.org/2000/svg" xmlns:xlink="http://www.w3.org/1999/xlink" width="192" height="192.013" viewBox="0 0 192 192.013">
  <defs>
    <linearGradient id="linear-gradient" x1="0.071" y1="0.772" x2="0.939" y2="0.21" gradientUnits="objectBoundingBox">
      <stop offset="0" stop-color="#1acbfc"/>
      <stop offset="1" stop-color="#ff009b"/>
    </linearGradient>
    <radialGradient id="radial-gradient" cx="0.037" cy="0.568" r="0.997" gradientTransform="translate(0.043) scale(0.914 1)" gradientUnits="objectBoundingBox">
      <stop offset="0" stop-color="#1d15ec"/>
      <stop offset="1" stop-color="#9002ae"/>
    </radialGradient>
  </defs>
  <g id="Layer_2" data-name="Layer 2" transform="translate(0.1 0.074)">
    <g id="Layer_1" data-name="Layer 1">
      <path id="Path_8" data-name="Path 8" d="M191.9,96a95.87,95.87,0,0,1-6.39,34.47,31.71,31.71,0,0,0-17.38-8.35,30.9,30.9,0,0,0-4.43-.31H101.16a21.525,21.525,0,0,0-3,.14H82.8a31.748,31.748,0,1,0,1.33,63.483l14.33,0q1.33.12,2.7.12h29.16A96,96,0,1,1,191.9,96Z" fill="url(#linear-gradient)"/>
      <path id="Path_9" data-name="Path 9" d="M172.7,96a76.93,76.93,0,0,1-4.57,26.12,30.9,30.9,0,0,0-4.43-.31H101.16a21.525,21.525,0,0,0-3,.14H82.8a31.74,31.74,0,0,0-29.89,37.49A76.78,76.78,0,1,1,172.7,96Z" fill="url(#radial-gradient)"/>
      <path id="Path_10" data-name="Path 10" d="M133.1,82.2h17.2V69.6H131.5a27.43,27.43,0,0,0-6.9-10.5c-5.7-5.6-13-8.4-21.8-8.4h-39v19H39.9V82.3H63.8V92.7H39.9v12.6H63.8v24a31.6,31.6,0,0,1,19-7.35V108.2H99.2l7.49,13.61.07.14h20l-.08-.14L117.5,105.6l.6-.3h32.2V92.6h-20a26.789,26.789,0,0,0,1.2-3,25.69,25.69,0,0,0,1.6-7.4Zm-30.8,8.9H82.8V67.7h19.5a12.09,12.09,0,0,1,8.6,3.4,11.53,11.53,0,0,1,3.4,8.6,10.73,10.73,0,0,1-3.4,8.1,12,12,0,0,1-8.6,3.3Z" fill="#fff" fill-rule="evenodd"/>
      <rect id="Rectangle_2" data-name="Rectangle 2" width="130.85" height="51.6" rx="25.8" transform="translate(58.33 127.9)" fill="#3066ff"/>
      <path id="Path_11" data-name="Path 11" d="M99.49,163.7v-20h4l5.7,13h.13l5.7-13h4v20h-3.57V150.4h-.19l-4.74,10.8H108l-4.77-10.8H103v13.3Z" fill="#fff"/>
      <path id="Path_12" data-name="Path 12" d="M137,163.7H124.1v-20H137v3.24h-9v5.13h8.42v3H128v5.36h9Z" fill="#fff"/>
      <path id="Path_13" data-name="Path 13" d="M145.15,163.7V147h-5.67v-3.3h15.33V147h-5.69v16.7Z" fill="#fff"/>
      <path id="Path_14" data-name="Path 14" d="M154.82,163.7l6.71-20h4.63l6.68,20h-4.21l-1.56-5.14h-6.68l-1.57,5.14Zm8.83-16.17-2.44,8.08h5.07l-2.45-8.08Z" fill="#fff"/>
      <path id="Path_15" data-name="Path 15" d="M92.16,154.33v7.5a1.87,1.87,0,0,1-1.87,1.87H76.54a1.87,1.87,0,0,1-1.87-1.87v-7.5a1.87,1.87,0,0,1,1.87-1.88h.94v-2.81a5.94,5.94,0,1,1,11.87,0v2.81h.94A1.88,1.88,0,0,1,92.16,154.33Zm-5.94-4.69a2.81,2.81,0,0,0-5.62,0v2.81h5.62ZM85,157.14a1.57,1.57,0,0,0-3.13,0V159A1.57,1.57,0,1,0,85,159Z" fill="#fff"/>
    </g>
  </g>
</svg>
