<?xml version="1.0" encoding="utf-8"?>
<!-- Generator: Adobe Illustrator 26.3.1, SVG Export Plug-In . SVG Version: 6.00 Build 0)  -->
<svg version="1.1" id="Layer_1" xmlns="http://www.w3.org/2000/svg" xmlns:xlink="http://www.w3.org/1999/xlink" x="0px" y="0px"
	 viewBox="0 0 200 200" style="enable-background:new 0 0 200 200;" xml:space="preserve">
<style type="text/css">
	.st0{fill:#FFFFFF;}
	.st1{fill:#E7ECF0;}
	.st2{fill:#95B9D2;}
	.st3{fill:#3F5180;}
	.st4{fill:#1A0E1B;}
	.st5{fill:#231E2A;}
	.st6{fill:#FEFEFE;}
</style>
<rect class="st0" width="200" height="200"/>
<g>
	<g>
		<path class="st0" d="M148.86,63.59c0.7,0.15,1.13,0.54,1.05,1.27c-0.07,0.63-0.4,1.05-1.11,1.02c-0.75-0.03-1.12-0.47-1.12-1.17
			C147.69,63.97,148.2,63.67,148.86,63.59z"/>
		<path class="st0" d="M151.05,62.47c0-1.43,1.04-2.46,2.48-2.46c1.38,0,2.4,1.09,2.39,2.55c-0.02,1.32-0.97,2.2-2.39,2.19
			C152.03,64.74,151.05,63.84,151.05,62.47z"/>
		<path class="st0" d="M169.42,89.34c1.66-2.3,2.71-4.9,3.53-7.57c1.55-5.04,2.16-10.21,1.83-15.49c-0.02-0.36-0.23-0.89,0.19-1.07
			c0.46-0.2,0.64,0.36,0.86,0.63c2.31,2.95,3.82,6.3,4.76,9.91c2.06,6.86,1.99,13.68-0.36,20.47c-0.23,1.22-0.84,2.27-1.44,3.33
			c-2.13,3.73-5.01,6.78-8.58,9.15c-1.45,0.96-1.53,0.85-1.51-0.94c0-0.48-0.01-0.97,0.05-1.44c0.46-3.79,0.14-7.57-0.23-11.35
			c-0.14-1.4-0.75-2.79-0.18-4.23C168.7,90.27,168.9,89.69,169.42,89.34z"/>
		<path class="st0" d="M17.29,110.71c1.91,0.19,3.4-0.75,5.04-1.53c2.86-1.36,5.92-2.31,9.04-2.83c1.56-0.26,3.14-0.41,4.73-0.46
			c0.79-0.02,1.59-0.02,2.38,0.02c0.74,0.04,1.44,0.23,2.18-0.02c1.4-0.47,1.16-2.46,1.25-3.63c0.05-0.68,0.11-1.39,0.46-1.98
			c0.34-0.59,0.92-0.99,1.54-1.24c0.77-0.32,1.57-0.61,2.37-0.85c1.58-0.48,3.25-0.75,4.91-0.53c2.28,0.31,4.42,1.41,6,3.09
			c0.8,0.85,1.46,1.84,1.93,2.9c0.34,0.76,0.52,1.52,0.7,2.33c0.19,0.85,0.38,1.7,0.51,2.57c0.04,0.28,0.01,0.55,0.02,0.83
			c0.05,1.83,0.04,3.66,0.05,5.5c0,0.81,0.14,1.69,0.41,2.45c0.24,0.67,1.01,1.3,1.53,1.75c1.23,1.06,2.71,1.83,4.25,2.34
			c1.69,0.56,3.47,0.83,5.24,0.95c1.7,0.12,3.33-0.07,4.98-0.53c2.07-0.59,3.98-1.62,5.62-3.01c1.5-1.27,2.88-2.67,4.01-4.29
			c0.23-0.33,0.61-1.13,0.81,0.04c0.47-0.12,0.82,0.11,1.2,0.35c0.91,0.58,1.83,1.16,2.78,1.67c3.83,2.05,7.92,2.79,12.2,2.11
			c1.03-0.16,2.29-0.11,2.91-1.31c-1.1-0.47-2.28-0.57-3.44-0.75c-4.29-0.66-8.38-1.87-12.1-4.17c-1.8-0.78-3.08-2.24-4.49-3.51
			c-3.01-2.73-5.35-6.07-7.98-9.14c-0.94-1.1-1.93-2.21-2.51-3.59c-1.79-1.8-3.59-3.61-5.38-5.41c-0.8-0.47-1.7-0.83-2.27-1.68
			c2.02-0.3,4.12-0.13,6.14,0.1c3,0.34,5.97,0.95,8.89,1.71c3.31,0.86,6.58,1.92,9.75,3.22c3.1,1.27,6.12,2.76,8.91,4.62
			c1.27,0.84,2.49,1.77,3.62,2.79c0.92,0.84,1.87,1.74,2.49,2.84c0.11,0.19,0.29,0.43,0.5,0.36c0.16-0.05,0.22-0.26,0.23-0.43
			c0.11-1.07-0.13-2.17-0.66-3.1c-0.24-0.42-0.57-0.77-0.85-1.16c-0.29-0.42-0.56-0.86-0.95-1.21c-1.96-1.75-4.11-3.22-6.47-4.37
			c-0.47-0.23-0.76-0.59-0.95-1.16c-0.68-2.06-1.5-4.08-2.21-6.14c-1.6-4.63-2.47-9.37-2.22-14.31c0.11-2.06,0.38-4.12,0.85-6.13
			c0.7-3.02,1.82-6.01,3.46-8.65c1.56-2.52,3.61-4.74,5.74-6.76c2.17-2.05,4.6-3.81,7.23-5.21c2.87-1.54,6.01-2.45,9.21-2.99
			c6.72-1.15,13.59-0.23,19.92,2.24c5.9,2.3,10.96,5.78,14.45,11.22c0.75,1.16,1.31,2.39,1.85,3.92c-3.92-2.55-3.92-2.55-6.46-2.77
			c-4.37,1.2-6.25,4.58-4.83,8.67c0.48,1.39,0.48,1.39-1.05,1.41c-2.21,0.03-4.26,0.49-5.76,2.29c-1.07,1.28-0.92,2.47,0.4,3.49
			c0.95,0.73,2.04,1.17,3.18,1.51c1.53,0.46,1.62,0.75,0.41,1.89c-2.55,2.41-5.68,3.18-8.99,2.41c-3.21-0.74-4.2-1.55-3.7-4.41
			c-0.36,0.04-0.71,0.07-1.07,0.11c-1.9,1.53-1.98,3.07-0.35,4.95c1.05,1.22,2.51,1.8,3.91,2.11c1.18,0.26,1.79,0.79,2.37,1.69
			c1.67,2.6,3.87,4.61,6.82,5.67c5.19,1.88,9.4-0.57,10.41-6.01c0.17-0.91,0.23-1.83,0.19-2.74c-0.03-0.76,0.19-1.19,0.98-1.42
			c1.23-0.36,2.29-1.07,3.14-2.05c0.26-0.3,0.5-0.63,0.7-0.98c0.56-1.01,0.76-2.22,0.31-3.3c-0.22-0.53-0.58-0.99-1.01-1.36
			c-0.47-0.41-1.13-0.88-1.77-0.9c-0.05,0-0.1,0-0.14,0.04c-0.03,0.03-0.04,0.08-0.04,0.13c0.01,0.45,0.26,0.78,0.51,1.13
			c0.82,1.13,0.69,2.16-0.22,3.19c-1.91,2.18-5.76,2.55-8.01,0.76c-0.66-0.53-0.5-0.91,0.08-1.32c1.04-0.73,1.91-1.63,2.68-2.64
			c0.38-0.96,0.25-1.91-0.3-3.14c1.23,0.81,1.97,0.35,2.77-0.16c2.5-1.6,5.26-1.93,8.04-1.07c3.95,1.22,5.88,4.82,5.38,9.63
			c-0.31,2.98-1.14,5.89-2.41,8.6c-0.8,1.7-1.68,3.38-2.74,4.93c-0.39,0.58-3.44,3.16-2.05,3.94c0.47,0.26,1.16-0.19,1.53-0.44
			c1.06-0.7,2.08-1.73,2.81-2.77c0.27-0.38,1.49-2.06,1.62-0.74c0.06,0.59,0.21,1.13,0.32,1.71c0.95,4.86,1.16,9.87,0.67,14.8
			c-0.92,9.18-4.4,18.01-9.71,25.52c-4.85,6.86-11.22,12.49-18.52,16.63c-1.82,1.03-3.71,1.94-5.65,2.72
			c-4.57,1.85-9.47,3.11-14.36,3.69c-0.94,0.11-1.88,0.19-2.82,0.25c-0.85,0.05-1.73-0.02-2.57,0.05c-0.97,0.09-1.94,0.12-2.91,0.12
			c-5.08-0.01-10.23-0.75-15.09-2.23c-1.38-0.42-2.71-0.97-4.04-1.54c-3.37-1.39-6.7-2.8-9.88-4.6c-4.19-2.37-8.17-5.29-11.68-8.58
			c-3.59-3.37-6.73-7.19-9.69-11.11c-1.85-2.45-3.28-5.29-5.85-7.14c-2.63-1.89-5.59-3.15-8.5-4.53
			c-5.14-2.43-10.55-3.28-16.18-2.74c-3.82,0.37-7.45-0.23-10.87-1.99c-0.43-0.22-1.27-0.33-1.08-0.91
			C16.25,110.43,16.88,110.67,17.29,110.71z"/>
		<path class="st0" d="M148.05,87.95c-0.05,0.48-0.61,0.7-1.09,0.78c-2.26,0.37-4.62-0.23-6.45-1.58c-0.13-0.1-0.27-0.21-0.29-0.37
			c-0.02-0.17,0.1-0.33,0.25-0.41c1.48-0.75,3.12-0.68,4.66-0.23c0.73,0.21,1.45,0.51,2.11,0.84
			C147.65,87.18,148.09,87.5,148.05,87.95z"/>
		<path class="st0" d="M147.11,69.99c-1.93-0.04-3.83,0.13-5.68,0.72c-0.29,0.09-0.71,0.42-0.87-0.12c-0.12-0.42,0.26-0.6,0.59-0.74
			c1.38-0.61,2.83-0.86,4.57-0.9c0.33,0.03,0.9,0.05,1.46,0.14c0.38,0.06,0.89,0.19,0.83,0.65C147.93,70.22,147.43,70,147.11,69.99z
			"/>
	</g>
	<polygon class="st1" points="118.14,154.24 117.64,157.61 104.3,158.38 85.19,152.75 71.91,145.11 69.4,141.15 	"/>
	<path class="st2" d="M156.95,70.94c-0.35-0.59-2.88,0.33-3.24,0.46c-1.29,0.44-2.58,0.88-3.87,1.33c-0.77,1.01-1.64,1.91-2.68,2.64
		c-0.59,0.41-0.75,0.79-0.08,1.32c2.25,1.79,6.1,1.42,8.01-0.76c0.91-1.04,1.04-2.07,0.22-3.19
		C155.02,72.34,156.84,71.47,156.95,70.94z"/>
	<path class="st2" d="M158.17,94.2c0.03,0.05,0.06,0.09,0.08,0.14c-0.15,0.42-0.23,0.82,0.23,1.13c0.44,0.31,0.74-0.01,1.04-0.23
		c1-0.73,1.98-1.5,2.97-2.25c1.22,2.76,1.52,5.74,1.69,8.66c0.22,3.69,0.36,7.42-0.25,11.1c-0.35,2.14-0.87,4.24-1.68,6.28
		c-0.56,1.4-0.77,2.96-1.54,4.26c-1.68,2.84-3.43,5.65-5.25,8.42c-2.95,4.48-6.87,8.05-10.88,11.56c-4.9,4.28-10.59,7.09-16.54,9.47
		c-0.08,0.03-0.17,0.01-0.26,0.01c-0.05-0.29-0.22-0.41-0.5-0.51c-3.22-1.16-6.24-2.67-8.87-4.92c-1.04-0.89-1.86-1.96-2.61-3.08
		c-0.36-0.53-0.66-0.63-1.28-0.48c-11.12,2.76-22.07,2.15-32.76-1.9c-5.75-2.18-11.12-5.04-15.73-9.27
		c-3.85-3.54-7.5-7.22-10.84-11.24c-2.84-3.41-6.54-5.75-10.51-7.63c-2.39-1.13-4.72-2.41-7.3-3.13c-3.59-0.99-7.02-1.13-10.71-0.89
		c4.62-2.52,10.34-3.43,15.46-2.09c1.4,0.37,2.75,0.93,4.08,1.47c1.44,0.58,2.82,1.38,4.04,2.33c0.24,0.18,1.2,0.76,1.1,0.05
		c-0.03-0.24-0.2-0.47-0.32-0.67c-0.18-0.29-0.34-0.6-0.51-0.9c-0.69-1.29-1.35-2.6-1.97-3.93c-0.45-0.96-0.81-1.89-1.42-2.76
		c-0.24-0.33-0.47-0.67-0.7-1.01c-0.25-0.37-1.11-1.22-0.61-1.65c0.18-0.15,0.42-0.2,0.64-0.23c1.58-0.27,2.97-0.52,4.56-0.2
		c1.54,0.31,3,0.96,4.33,1.79c0.39,0.24,0.77,0.51,1.13,0.8c0.43,0.35,0.84,0.74,1.2,1.16c0.46,0.53,0.79,1.16,1.15,1.76
		c0.37,0.63,0.69,1.29,0.96,1.96c0.16,0.4,0.3,0.81,0.42,1.23c0.27,0.92,0.15,1.82,0.16,2.77c0.02,1.32,0.01,2.63,0.02,3.95
		c0.01,1.88,1.12,3.24,2.63,4.37c1.35,1.01,2.62,1.75,4.18,2.35c0.9,0.34,2.16,0.26,2.92,0.89c0.51,0.42,0.86,0.66,1.49,0.88
		c0.67,0.23,1.37,0.36,2.08,0.4c1.41,0.09,2.81-0.13,4.19-0.39c2.51-0.46,4.63-1.67,6.56-3.27c4.37,4.88,13.58,5.11,18.36,2.5
		c1.41-0.77,2.62-1.77,3.5-3.08c0.38-0.57,1.4-1.41,0.04-2.13c-1.1-0.47-2.28-0.57-3.44-0.75c-4.29-0.66-8.38-1.87-12.1-4.17
		c0.11-0.66,0.49-0.3,0.76-0.17c3.69,1.74,7.59,2.16,11.6,1.96c0.6-0.03,1.2-0.16,1.87-0.25c-0.64-0.47-1.33-0.42-1.94-0.62
		c-3.75-1.26-7.28-2.96-10.63-5.07c-5.49-3.47-10.5-7.58-15.67-11.49c-0.3-0.23-0.53-0.61-0.98-0.58c-1.79-1.8-3.59-3.61-5.38-5.41
		c0.64-0.21,1.31-0.19,1.94-0.06c4.93,1.02,10.02,1.18,14.82,2.84c3.56,1.23,7.08,2.55,10.36,4.48c3.8,2.24,7.37,4.74,10.49,7.88
		c0.23,0.23,1.42,1.54,2.03,1.29c0.54-0.22,0.35-1.01,0.4-1.56c0.24-2.87-1.26-4.95-3.13-6.87c-0.64-1.24-0.64-1.23,0.8-1.29
		c0.37-0.02,0.8,0.09,1.08-0.39c-0.93-0.25-1.91-0.35-2.74-1.28c3.68-1.22,7.38-0.72,11.05-0.75c-1.47-0.98-3.12-1.49-4.59-2.43
		c-6.87-4.43-10.83-10.79-12.68-18.6c-1.23-5.18-1.32-10.37,0.19-15.52c0.27-0.92,0.73-1.72,1.09-2.58
		c0.32-0.78,0.57-1.55,1.01-2.29c1.39-2.31,3.92-4.79,6.47-5.61c1.87-0.61,3.31-0.75,5.19-1.37c2.42-0.8,4.92-1.33,7.45-1.65
		c4.79-0.61,9.53-0.25,14.24,0.81c4.45,1,8.25,3.26,11.88,5.88c0.29,0.21,0.67,0.44,0.72,0.88c-1.56-0.16-3.04,0.05-4.32,1.04
		c-0.38,0.29-0.75,0.61-0.88,1.1c-0.09,0.35,0,0.71,0.26,0.97c0.31,0.29,0.55,0,0.79-0.16c1.95-1.33,4.06-1.4,6.25-0.81
		c0.25,0.34,0.54,0.65,0.76,1.01c0.35,0.59,0.5,1.15-0.41,1.37c-0.35,0.09-0.31,0.36-0.32,0.62c-4.36,1.2-6.25,4.58-4.83,8.67
		c0.48,1.39,0.48,1.39-1.05,1.41c-2.21,0.03-4.26,0.49-5.76,2.29c-1.07,1.28-0.92,2.47,0.4,3.49c0.95,0.73,2.04,1.17,3.18,1.51
		c1.53,0.46,1.62,0.75,0.41,1.89c-2.55,2.41-5.68,3.18-8.99,2.41c-3.21-0.74-4.2-1.55-3.7-4.41c1.32,0.04,2.45-0.34,3.22-1.49
		c0.92-3.57-0.75-8.56-3.62-10.76c-3.84-2.95-9.55-1.62-12.34,2.86c-2.05,3.29-2.11,6.64-0.44,10.08c0.17,0.34,0.49,0.63,0.41,1.06
		c-0.01,1.26-1.16,2.24-0.83,3.71c0.72-0.63,1.41-1.2,2.07-1.8c2.34-2.15,5.1-3.39,8.2-3.94c0.79-0.14,1.56-0.08,2.26,0.38
		c-1.9,1.53-1.98,3.07-0.35,4.95c1.05,1.22,2.51,1.8,3.91,2.11c1.18,0.26,1.79,0.79,2.37,1.69c1.67,2.6,3.87,4.61,6.82,5.67
		c5.19,1.88,9.4-0.57,10.41-6.01c0.17-0.91,0.23-1.83,0.19-2.74c-0.03-0.76,0.19-1.19,0.98-1.42c1.23-0.36,2.29-1.07,3.14-2.05
		c2.12-2.46,1.51-5.28-1.43-6.51c-0.05-0.56,0.39-0.62,0.76-0.7c4.32-0.95,8.44,1.26,8.51,6.12c0.06,4.43-1.68,8.27-3.61,12.07
		c-0.6,1.2-1.24,2.38-2.03,3.48c-0.23,0.32-0.63,0.79-0.18,1.28c0,0.3-0.14,0.5-0.44,0.58C158.26,94.26,158.22,94.23,158.17,94.2z
		 M119.32,143.29c10.18,0.51,19.5-2.07,27.94-7.79c4.7-3.18,8.32-7.3,9.86-12.78c1.22-4.3,1.35-8.79-1.54-12.66
		c-2.09-2.79-4.92-4.14-8.55-3.62c-7.52,1.08-11.65,5.9-14.01,12.62c-1.2,3.41-1.99,6.96-3.47,10.26c-1.56,3.48-3.58,6.64-6.37,9.32
		c-1.57,1.51-3.23,2.89-5.05,4.22C118.52,143.37,118.94,143.27,119.32,143.29z M118.25,58.35c-0.33,0.35-0.57,0.77-0.66,1.25
		c-0.07,0.37-0.01,0.73,0.33,0.92c0.32,0.18,0.56-0.08,0.78-0.3c1.33-1.29,2.95-1.96,4.77-2.2c0.52-0.07,1.05-0.06,1.55,0.12
		c0.58,0.22,0.95-0.02,1.14-0.53c0.2-0.55-0.27-0.77-0.65-0.97c-0.7-0.39-1.48-0.5-2.4-0.54C121.31,56.28,119.6,56.92,118.25,58.35z
		 M146.85,95.46c1.22-0.18,2.42-0.62,3.5-1.28c0.36-0.22,0.64-0.55,0.58-0.95c-0.06-0.41-0.49-0.31-0.76-0.26
		c-2.91,0.56-5.84,0.92-8.87,0.93C142.95,95.24,144.82,95.77,146.85,95.46z M129.2,47.59c-0.14,1,0.72,1.46,1.58,1.78
		c1.07,0.39,2.07,0.26,2.94-0.42c0.38-0.3,0.57-0.85,0.25-1.3c-0.65-0.94-1.64-1.21-2.91-1.2C130.29,46.37,129.35,46.56,129.2,47.59
		z M141.41,49.71c0.16-0.81-0.64-0.92-1.15-1.2c-0.93-0.52-1.91-0.83-3-0.73c-0.43,0.04-0.75,0.24-0.96,0.59
		c-0.26,0.46,0.14,0.78,0.39,1.01c0.86,0.82,1.95,1.09,3.11,1.1C140.44,50.41,141.24,50.56,141.41,49.71z"/>
	<path class="st3" d="M107.34,99.47c-0.64-1.24-0.64-1.23,0.8-1.29c0.37-0.02,0.8,0.09,1.08-0.39c-0.93-0.25-1.91-0.35-2.74-1.28
		c3.68-1.22,7.38-0.72,11.05-0.75c-1.47-0.98-3.12-1.49-4.59-2.43c-6.87-4.43-10.83-10.79-12.68-18.6
		c-1.23-5.18-1.32-10.37,0.19-15.52c0.39-1.33,1.09-2.54,1.76-3.75c0.13-0.23,3.19-4.47,2.93-4.62c-0.32-0.18-3.1,3.6-3.28,3.77
		c-0.42,0.4-0.81,0.83-1.18,1.27c-0.72,0.86-1.36,1.8-1.93,2.77c-2.69,4.58-4.08,9.56-4.35,14.89c-0.25,4.95,0.62,9.68,2.22,14.31
		c0.71,2.06,1.53,4.07,2.21,6.14c0.19,0.56,0.48,0.93,0.95,1.16c2.36,1.15,4.51,2.63,6.47,4.37
		C106.61,99.5,106.98,99.48,107.34,99.47z"/>
	<path class="st2" d="M180.23,96.85c2.34-6.78,2.42-13.61,0.36-20.47c-0.64,0-0.7-0.56-0.93-0.95c-0.98-1.71-1.95-3.43-3.02-5.31
		c-0.32,2.49-0.61,4.72-0.89,6.96c-0.59,4.7-2.22,8.96-5.39,12.55c-0.25,0.29-0.37,0.94-0.94,0.34c-0.52,0.35-0.73,0.93-1.09,1.4
		c0.55,0.09,0.74,0.55,1,0.95c1.42,2.11,2.38,4.45,3.46,6.74c0.41,0.87,0.99,1.5,1.74,2.07c0.55,0.41,0.92,0.35,1.48-0.02
		c1.28-0.85,2.15-2.02,2.93-3.28C179.26,97.3,179.57,96.87,180.23,96.85z"/>
	<path class="st1" d="M122.53,154.08c-0.17,0.04-0.28-0.07-0.45-0.03c-0.44-0.27-0.89,0.39-1.17,0.08c-0.16,0.04-1.37,0.36-1.53,0.4
		c-1.08,0.6-0.82,0.16-2.06-0.02c-0.24,0.03-0.26,0.96-0.51,0.99c-1.05,0.82-2.3,0.57-3.49,0.63c-0.61,0.03-1.26-0.09-1.47,0.73
		c0.58-0.01,1.16-0.02,1.74-0.04c0.66-0.63,1.38-0.44,2.11-0.17c1.23,0.01,2.04,1,3.24,0.7c0.15-0.27,1.1-0.83,1.33-0.52
		c6.11-1.05,11.59-3.63,16.98-6.68c11.23-6.36,19.38-15.53,24.53-27.37c0.12-0.28,0.2-0.58,0.3-0.87c-0.09-0.16-0.04-0.27,0.13-0.33
		c0.89-2.24,1.61-4.52,2.04-6.9c-0.3-0.24-0.17-0.4,0.11-0.53c0.06-0.26,0.12-0.52,0.17-0.78c-0.31-0.23-0.2-0.39,0.09-0.53
		c0.05-0.26,0.11-0.53,0.16-0.79c-0.3-0.22-0.19-0.38,0.07-0.52c0.06-0.35,0.12-0.7,0.19-1.05c-0.31-0.32-0.27-0.57,0.13-0.77
		c0.05-0.53,0.1-1.06,0.15-1.59c-0.32-0.4-0.39-0.76,0.16-1.03c0.04-0.45,0.07-0.89,0.11-1.34c-0.25-0.18-0.23-0.34,0.03-0.48
		c0.36-2.9,0.17-5.79-0.24-8.67c-0.27-0.13-0.38-0.28-0.08-0.5c-0.06-0.44-0.12-0.89-0.18-1.33c-0.25-0.13-0.4-0.28-0.09-0.51
		c-0.19-0.97-0.37-1.94-0.58-2.9c-0.04-0.2-0.16-0.48-0.3-0.53c-0.28-0.1-0.44,0.18-0.58,0.4c-0.36,0.58-0.71,1.17-1.06,1.75
		c1.22,2.76,1.52,5.74,1.69,8.66c0.22,3.69,0.36,7.42-0.25,11.1c-0.35,2.14-0.87,4.24-1.68,6.28c-0.56,1.4-0.77,2.96-1.54,4.26
		c-1.68,2.84-3.43,5.65-5.25,8.42c-2.95,4.48-6.87,8.05-10.88,11.56c-4.9,4.28-10.59,7.09-16.54,9.47
		c-0.08,0.03-0.17,0.01-0.26,0.01c-1.48,0.46-3.26,0.66-4.75,1.12C122.83,154.1,122.81,154.11,122.53,154.08z"/>
	<path class="st3" d="M84.44,120.74c4.37,4.88,13.58,5.11,18.36,2.5c1.41-0.77,2.62-1.77,3.5-3.08c0.38-0.57,1.4-1.41,0.04-2.13
		c-0.62,1.2-1.88,1.15-2.91,1.31c-4.29,0.67-8.37-0.07-12.2-2.11c-0.95-0.51-1.87-1.08-2.78-1.67c-0.38-0.24-0.73-0.47-1.2-0.35
		C86.44,117.12,85.16,118.79,84.44,120.74z"/>
	<path class="st1" d="M103.34,53.85c0.16-0.37,0.85-0.79,1.15-1.05c0.42-0.36,0.85-0.71,1.28-1.04c0.88-0.67,1.79-1.29,2.74-1.85
		c1.9-1.12,3.9-1.97,5.99-2.64c2.33-0.75,4.73-1.25,7.15-1.56c4.79-0.61,9.53-0.25,14.24,0.81c4.45,1,8.25,3.26,11.88,5.88
		c0.29,0.21,0.67,0.44,0.72,0.88c0.87,0.55,1.81,1.02,2.11,2.13c0.25,0.34,0.54,0.65,0.76,1.01c0.35,0.59,0.5,1.15-0.41,1.37
		c-0.35,0.09-0.31,0.36-0.32,0.62c2.53,0.22,2.53,0.22,6.46,2.77c-0.54-1.52-1.1-2.75-1.85-3.92c-3.5-5.44-8.55-8.93-14.45-11.22
		c-8.9-3.47-17.89-3.72-26.89-0.33c-1.34,0.5-2.61,1.18-3.81,1.94c-0.62,0.39-1.22,0.8-1.81,1.23c-0.4,0.29-0.82,0.8-1.33,0.87
		c-0.75,0.1-1.46,1.14-1.9,1.67C104.44,52.15,103.74,52.95,103.34,53.85z"/>
	<path class="st3" d="M90.8,113.11c0.11-0.66,0.49-0.3,0.76-0.17c3.69,1.74,7.59,2.16,11.6,1.96c0.6-0.03,1.2-0.16,1.87-0.25
		c-0.64-0.47-1.33-0.42-1.94-0.62c-3.75-1.26-7.28-2.96-10.63-5.07c-5.49-3.47-10.5-7.58-15.67-11.49c-0.3-0.23-0.53-0.61-0.98-0.58
		c0.57,1.38,1.56,2.49,2.51,3.59c2.64,3.07,4.97,6.41,7.98,9.14C87.72,110.88,89.01,112.33,90.8,113.11z"/>
	<path class="st3" d="M180.23,96.85c-0.65,0.02-0.97,0.45-1.28,0.96c-0.78,1.26-1.65,2.44-2.93,3.28c-0.56,0.37-0.93,0.44-1.48,0.02
		c-0.75-0.56-1.33-1.2-1.74-2.07c-1.08-2.28-2.04-4.63-3.46-6.74c-0.27-0.39-0.46-0.86-1-0.95c-0.57,1.43,0.04,2.83,0.18,4.23
		c0.37,3.78,0.7,7.55,0.23,11.35c-0.06,0.47-0.04,0.96-0.05,1.44c-0.02,1.79,0.06,1.9,1.51,0.94c3.57-2.37,6.44-5.42,8.58-9.15
		C179.39,99.12,180,98.06,180.23,96.85z"/>
	<path class="st1" d="M156.07,70.79c0.92-0.19,1.85-0.29,2.8-0.2c2.18,0.23,4.19,1.43,5.11,3.47c0.4,0.88,0.58,1.86,0.59,2.82
		c0.06,4.43-1.68,8.27-3.61,12.07c-0.6,1.2-1.24,2.38-2.03,3.48c-0.23,0.32-0.63,0.79-0.18,1.28c3.75-4.61,6.35-9.74,6.97-15.74
		c0.5-4.8-1.43-8.4-5.38-9.63c-2.78-0.86-5.54-0.53-8.04,1.07c-0.8,0.51-1.54,0.96-2.77,0.16c0.55,1.24,0.68,2.19,0.3,3.14
		c0.05-0.13,0.94-0.33,1.1-0.38c0.4-0.14,0.8-0.28,1.2-0.42c0.8-0.27,1.6-0.53,2.42-0.76C155.06,71.02,155.56,70.89,156.07,70.79z"
		/>
	<path class="st1" d="M169.42,89.97c0.57,0.6,0.68-0.05,0.94-0.34c3.18-3.59,4.81-7.85,5.39-12.55c0.28-2.23,0.57-4.46,0.89-6.96
		c1.07,1.88,2.04,3.59,3.02,5.31c0.23,0.4,0.29,0.95,0.93,0.95c-0.94-3.61-2.46-6.95-4.76-9.91c-0.21-0.28-0.39-0.84-0.86-0.63
		c-0.42,0.18-0.21,0.71-0.19,1.07c0.34,5.28-0.27,10.45-1.83,15.49C172.13,85.07,171.08,87.67,169.42,89.97z"/>
	<path class="st1" d="M130.32,75.67c1.32,0.04,2.45-0.34,3.22-1.5c-0.3-0.05-0.61-0.06-0.89-0.16c-5.5-1.89-10.35-0.88-14.52,3.21
		c-0.18,0.17-0.35,0.23-0.58,0.19c-0.01,1.26-1.16,2.24-0.83,3.71c0.72-0.63,1.41-1.2,2.07-1.8c2.34-2.15,5.1-3.39,8.2-3.94
		c0.79-0.14,1.56-0.08,2.26,0.38C129.6,75.74,129.96,75.71,130.32,75.67z"/>
	<path class="st1" d="M151.05,63.1c0,1.36,0.98,2.26,2.47,2.27c1.42,0.01,2.38-0.86,2.39-2.19c0.02-1.46-1-2.54-2.39-2.55
		C152.09,60.64,151.04,61.67,151.05,63.1z"/>
	<path class="st1" d="M145.72,69.58c-1.74,0.04-3.19,0.29-4.57,0.9c-0.33,0.14-0.71,0.32-0.59,0.74c0.16,0.54,0.57,0.21,0.87,0.12
		c1.85-0.59,3.75-0.76,5.68-0.72c0.31,0.01,0.82,0.23,0.88-0.24c0.06-0.47-0.45-0.59-0.83-0.65
		C146.61,69.63,146.04,69.61,145.72,69.58z"/>
	<path class="st1" d="M148.86,64.21c-0.66,0.09-1.17,0.39-1.17,1.12c0,0.69,0.37,1.14,1.12,1.17c0.71,0.03,1.04-0.39,1.11-1.02
		C149.98,64.75,149.56,64.37,148.86,64.21z"/>
	<path class="st4" d="M117.14,76.35c-1.67-3.44-1.61-6.8,0.44-10.08c2.79-4.48,8.5-5.81,12.34-2.86c2.87,2.2,4.55,7.19,3.62,10.76
		c-0.3-0.05-0.61-0.06-0.89-0.16c-5.5-1.89-10.35-0.88-14.52,3.21c-0.18,0.17-0.35,0.23-0.58,0.19
		C117.62,76.98,117.3,76.7,117.14,76.35z M130.33,67.17c-0.02-1.54-1.54-2.99-3.09-2.95c-1.63,0.04-2.86,1.31-2.86,2.95
		c0,1.55,1.35,2.84,2.97,2.82C129.04,69.98,130.36,68.73,130.33,67.17z M122.02,71.33c0.79,0.04,1.2-0.48,1.25-1.2
		c0.05-0.78-0.35-1.39-1.16-1.46c-0.85-0.08-1.17,0.57-1.35,1.24C120.83,70.74,121.19,71.29,122.02,71.33z"/>
	<path class="st5" d="M123.1,56.12c-1.79,0.16-3.5,0.81-4.86,2.24c-0.33,0.35-0.57,0.77-0.66,1.25c-0.07,0.37-0.01,0.73,0.33,0.92
		c0.32,0.18,0.56-0.08,0.78-0.3c1.33-1.29,2.95-1.96,4.77-2.2c0.52-0.07,1.05-0.06,1.55,0.12c0.58,0.22,0.95-0.02,1.14-0.53
		c0.2-0.55-0.27-0.77-0.65-0.97C124.8,56.27,124.03,56.16,123.1,56.12z"/>
	<path class="st5" d="M150.62,55.41c-0.3-1.11-1.24-1.59-2.11-2.13c-1.56-0.16-3.04,0.05-4.32,1.04c-0.38,0.29-0.75,0.61-0.88,1.1
		c-0.09,0.35,0,0.71,0.26,0.97c0.31,0.29,0.55,0,0.79-0.16C146.31,54.89,148.42,54.82,150.62,55.41z"/>
	<path class="st6" d="M131.07,46.45c-0.78-0.08-1.72,0.11-1.87,1.14c-0.14,1,0.72,1.46,1.58,1.78c1.07,0.39,2.07,0.26,2.94-0.42
		c0.38-0.3,0.57-0.85,0.25-1.3C133.32,46.71,132.33,46.44,131.07,46.45z"/>
	<path class="st1" d="M139.8,50.48c0.64-0.07,1.44,0.08,1.61-0.77c0.16-0.81-0.64-0.92-1.15-1.2c-0.93-0.52-1.91-0.83-3-0.73
		c-0.43,0.04-0.75,0.24-0.96,0.59c-0.26,0.46,0.14,0.78,0.39,1.01C137.55,50.19,138.64,50.47,139.8,50.48z"/>
	<path class="st1" d="M127.36,70c1.68-0.02,2.99-1.27,2.97-2.83c-0.02-1.54-1.54-2.99-3.09-2.95c-1.63,0.04-2.86,1.31-2.86,2.95
		C124.39,68.73,125.74,70.01,127.36,70z"/>
	<path class="st1" d="M120.76,69.9c0.07,0.83,0.43,1.39,1.26,1.42c0.79,0.04,1.2-0.48,1.25-1.2c0.05-0.78-0.35-1.39-1.16-1.46
		C121.26,68.58,120.94,69.23,120.76,69.9z"/>
	<path class="st3" d="M127.78,152.74c-0.05-0.29-0.22-0.41-0.5-0.51c-3.22-1.16-6.24-2.67-8.87-4.92c-1.04-0.89-1.86-1.96-2.61-3.08
		c-0.36-0.53-0.66-0.63-1.28-0.48c-11.12,2.76-22.07,2.15-32.76-1.9c-5.75-2.18-11.12-5.04-15.73-9.27
		c-3.85-3.54-7.5-7.22-10.84-11.24c-2.84-3.41-6.54-5.75-10.51-7.63c-2.39-1.13-4.72-2.41-7.3-3.13c-3.36-0.93-6.74-1.37-10.22-0.88
		c-0.21,0.03-0.43-0.01-0.65-0.02c-0.92,0.05-1.77,0.32-2.63,0.62c-0.7,0.24-1.43,0.43-2.13,0.64c-0.76,0.23-1.44,0.62-2.23,0.75
		c-0.69,0.11-1.35,0.04-1.99-0.23c-0.44-0.18-1.2-0.53-1.42,0.16c-0.19,0.59,0.65,0.69,1.08,0.91c3.42,1.75,7.05,2.35,10.87,1.99
		c5.63-0.54,11.03,0.31,16.18,2.74c2.91,1.37,5.88,2.64,8.5,4.53c2.57,1.85,4,4.69,5.85,7.14c2.91,3.85,5.98,7.6,9.49,10.92
		c0.82,0.77,1.56,1.57,2.46,2.27c0.91,0.72,1.86,1.39,2.84,2.02c1.97,1.26,4.04,2.36,6.14,3.37c1.24,0.59,2.48,1.15,3.74,1.71
		c1.16,0.51,2.24,1.09,3.37,1.64c0.84,0.4,1.76,0.68,2.64,1.01c2.64,1,5.34,1.84,8.09,2.5c9.57,2.29,19.65,1.7,29.03-1.15
		C126.46,153.17,127.79,152.82,127.78,152.74z"/>
	<path class="st4" d="M10.93,109.37c1.49,2.55,3.61,4.48,6.23,5.81c3.72,1.89,7.7,2.52,11.84,2.24c2.24-0.15,4.49-0.01,6.71,0.34
		c1.49,0.24,2.96,0.57,4.4,1c5.51,1.65,10.56,4.73,14.58,8.83c4.2,4.29,6.81,9.84,11.55,13.69c2.69,2.18,5.23,4.56,8.06,6.58
		c2.72,1.94,5.7,3.55,8.71,4.98c10.86,5.15,23.56,7.91,35.49,6.09c0.72-0.11,1.44-0.23,2.16-0.37c4.79-0.91,9.46-2.4,13.95-4.29
		c0.45-0.19,0.9-0.38,1.34-0.56c0.2-0.08,0.39-0.17,0.58-0.25c10.47-4.58,18.88-12.98,24.65-22.74c2.95-4.99,5.27-10.24,6.51-15.93
		c0.13-0.59,0.37-1,0.96-1.29c9.37-4.64,14.71-12.21,16.09-22.52c1.04-7.74-0.21-15.15-3.9-22.08c-1.35-2.53-3-4.81-5.48-6.39
		c-0.86-0.54-1.75-0.89-2.71-0.41c-1.04,0.53-1.02,1.56-0.9,2.53c0.6,4.69,0.44,9.33-0.74,13.91c-0.73,2.83-1.56,5.64-3.48,7.96
		c-0.09,0.12-0.17,0.29-0.35,0.15c-0.16-0.12-0.11-0.27-0.04-0.42c0.45-1.86,1.02-3.71,1.33-5.59c0.6-3.6,0.56-7.14-1.48-10.39
		c-1.12-1.79-2.5-3.26-4.44-4.13c-0.6-0.27-0.96-0.61-1.11-1.3c-2.33-10.55-9.28-17-18.85-21.07c-6.74-2.87-13.75-3.87-21.03-2.97
		c-17.22,2.13-30.48,17.04-30.02,34.3c0.15,5.57,1.2,10.92,3.11,16.13c0.14,0.37,0.58,0.8,0.15,1.19c-0.34,0.31-0.75-0.01-1.1-0.14
		c-4.74-1.81-9.55-3.4-14.53-4.4c-3.57-0.72-7.15-1.22-10.8-1c-1.27,0.08-2.53,0.2-3.7,0.76c-1.16,0.55-1.34,1.6-0.31,2.34
		c0.12,0.08,0.23,0.17,0.35,0.25c3.79,2.79,7.02,6.24,10,9.86c1.59,1.93,3.12,3.9,4.76,5.79c1.6,1.84,2.99,3.85,4.16,5.98
		c0.18,0.33,0.36,0.68,0.33,1.05c-0.03,0.45-0.36,0.82-0.67,1.15c-1.61,1.71-3.09,3.43-5.22,4.5c-1.46,0.74-3.18,1.39-4.8,1.67
		c-3.93,0.68-7.78-1.86-8.84-5.66c-0.47-1.68-0.47-3.42-0.74-5.13c-0.26-1.73-0.59-3.44-1.23-5.08c-2.71-6.96-11.12-10.8-17.66-7.97
		c-3.15,1.36-5.34,3.63-5.69,7.24c-0.08,0.88-0.54,0.76-1.16,0.73c-3.41-0.21-6.8-0.34-10.17,0.52c-2.14,0.55-4.12,1.44-6.1,2.37
		c-2.98,1.4-5.92,2.15-8.97,0.22c-0.52-0.33-1.2-0.46-1.71,0.06C10.45,108.09,10.6,108.81,10.93,109.37z M168.34,91.37
		c0.36-0.47,0.57-1.05,1.09-1.4c1.66-2.3,2.71-4.9,3.53-7.57c1.55-5.04,2.16-10.21,1.83-15.49c-0.02-0.36-0.23-0.89,0.19-1.07
		c0.46-0.2,0.64,0.36,0.86,0.63c2.31,2.95,3.82,6.3,4.76,9.91c2.06,6.86,1.99,13.68-0.36,20.47c-0.23,1.22-0.84,2.27-1.44,3.33
		c-2.13,3.73-5.01,6.78-8.58,9.15c-1.45,0.96-1.53,0.85-1.51-0.94c0-0.48-0.01-0.97,0.05-1.44c0.46-3.79,0.14-7.57-0.23-11.35
		C168.38,94.2,167.76,92.8,168.34,91.37z M16.07,111.61c0.18-0.56,0.81-0.32,1.22-0.28c1.91,0.19,3.4-0.75,5.04-1.53
		c2.86-1.36,5.92-2.31,9.04-2.83c1.56-0.26,3.14-0.41,4.73-0.46c0.79-0.02,1.59-0.02,2.38,0.02c0.74,0.04,1.44,0.23,2.18-0.02
		c1.4-0.47,1.16-2.46,1.25-3.63c0.05-0.68,0.11-1.39,0.46-1.98c0.34-0.59,0.92-0.99,1.54-1.24c0.77-0.32,1.57-0.61,2.37-0.85
		c1.58-0.48,3.25-0.75,4.91-0.53c2.28,0.31,4.42,1.41,6,3.09c0.8,0.85,1.46,1.84,1.93,2.9c0.34,0.76,0.52,1.52,0.7,2.33
		c0.19,0.85,0.38,1.7,0.51,2.57c0.04,0.28,0.01,0.55,0.02,0.83c0.05,1.83,0.04,3.66,0.05,5.5c0,0.81,0.14,1.69,0.41,2.45
		c0.24,0.67,1.01,1.3,1.53,1.75c1.23,1.06,2.71,1.83,4.25,2.34c1.69,0.56,3.47,0.83,5.24,0.95c1.7,0.12,3.33-0.07,4.98-0.53
		c2.07-0.59,3.98-1.62,5.62-3.01c1.5-1.27,2.88-2.67,4.01-4.29c0.23-0.33,0.61-1.13,0.81,0.04c0.47-0.12,0.82,0.11,1.2,0.35
		c0.91,0.58,1.83,1.16,2.78,1.67c3.83,2.05,7.92,2.79,12.2,2.11c1.03-0.16,2.29-0.11,2.91-1.31c-1.1-0.47-2.28-0.57-3.44-0.75
		c-4.29-0.66-8.38-1.87-12.1-4.17c-1.8-0.78-3.08-2.24-4.49-3.51c-3.01-2.73-5.35-6.07-7.98-9.14c-0.94-1.1-1.93-2.21-2.51-3.59
		c-1.79-1.8-3.59-3.61-5.38-5.41c-0.8-0.47-1.7-0.83-2.27-1.68c2.02-0.3,4.12-0.13,6.14,0.1c3,0.34,5.97,0.95,8.89,1.71
		c3.31,0.86,6.58,1.92,9.75,3.22c3.1,1.27,6.12,2.76,8.91,4.62c1.27,0.84,2.49,1.77,3.62,2.79c0.92,0.84,1.87,1.74,2.49,2.84
		c0.11,0.19,0.29,0.43,0.5,0.36c0.16-0.05,0.22-0.26,0.23-0.43c0.11-1.07-0.13-2.17-0.66-3.1c-0.24-0.42-0.57-0.77-0.85-1.16
		c-0.29-0.42-0.56-0.86-0.95-1.21c-1.96-1.75-4.11-3.22-6.47-4.37c-0.47-0.23-0.76-0.59-0.95-1.16c-0.68-2.06-1.5-4.08-2.21-6.14
		c-1.6-4.63-2.47-9.37-2.22-14.31c0.11-2.06,0.38-4.12,0.85-6.13c0.7-3.02,1.82-6.01,3.46-8.65c1.56-2.52,3.61-4.74,5.74-6.76
		c2.17-2.05,4.6-3.81,7.23-5.21c2.87-1.54,6.01-2.45,9.21-2.99c6.72-1.15,13.59-0.23,19.92,2.24c5.9,2.3,10.96,5.78,14.45,11.22
		c0.75,1.16,1.31,2.39,1.85,3.92c-3.92-2.55-3.92-2.55-6.46-2.77c-4.37,1.2-6.25,4.58-4.83,8.67c0.48,1.39,0.48,1.39-1.05,1.41
		c-2.21,0.03-4.26,0.49-5.76,2.29c-1.07,1.28-0.92,2.47,0.4,3.49c0.95,0.73,2.04,1.17,3.18,1.51c1.53,0.46,1.62,0.75,0.41,1.89
		c-2.55,2.41-5.68,3.17-8.99,2.41c-3.21-0.74-4.2-1.55-3.7-4.41c-0.36,0.04-0.71,0.07-1.07,0.11c-1.9,1.53-1.98,3.07-0.35,4.95
		c1.05,1.22,2.51,1.8,3.91,2.11c1.18,0.26,1.79,0.79,2.37,1.69c1.67,2.6,3.87,4.61,6.82,5.67c5.19,1.88,9.4-0.57,10.41-6.01
		c0.17-0.91,0.23-1.83,0.19-2.74c-0.03-0.76,0.19-1.19,0.98-1.42c1.23-0.36,2.29-1.07,3.14-2.05c0.26-0.3,0.5-0.63,0.7-0.98
		c0.56-1.01,0.76-2.22,0.31-3.3c-0.22-0.53-0.58-0.99-1.01-1.36c-0.47-0.41-1.13-0.88-1.77-0.9c-0.05,0-0.1,0-0.14,0.04
		c-0.03,0.03-0.04,0.08-0.04,0.13c0.01,0.45,0.26,0.78,0.51,1.13c0.82,1.13,0.69,2.16-0.22,3.19c-1.91,2.18-5.76,2.55-8.01,0.76
		c-0.66-0.53-0.5-0.91,0.08-1.32c1.04-0.73,1.91-1.63,2.68-2.64c0.38-0.96,0.25-1.91-0.3-3.14c1.23,0.81,1.97,0.35,2.77-0.16
		c2.5-1.6,5.26-1.93,8.04-1.07c3.95,1.22,5.88,4.82,5.38,9.63c-0.31,2.98-1.14,5.89-2.41,8.6c-0.8,1.7-1.68,3.38-2.74,4.93
		c-0.39,0.58-3.44,3.16-2.05,3.94c0.47,0.26,1.16-0.19,1.53-0.44c1.06-0.7,2.08-1.73,2.81-2.77c0.27-0.38,1.49-2.06,1.62-0.74
		c0.06,0.59,0.21,1.13,0.32,1.71c0.95,4.86,1.16,9.87,0.67,14.8c-0.92,9.18-4.4,18.01-9.71,25.52
		c-4.85,6.86-11.22,12.49-18.52,16.63c-1.82,1.03-3.71,1.94-5.65,2.72c-4.57,1.85-9.47,3.11-14.36,3.69
		c-0.94,0.11-1.88,0.19-2.82,0.25c-0.85,0.05-1.73-0.02-2.57,0.05c-0.97,0.09-1.94,0.12-2.91,0.12c-5.08-0.01-10.23-0.75-15.09-2.23
		c-1.38-0.42-2.71-0.97-4.04-1.54c-3.37-1.39-6.7-2.8-9.88-4.6c-4.19-2.37-8.17-5.29-11.68-8.58c-3.59-3.37-6.73-7.19-9.69-11.11
		c-1.85-2.45-3.28-5.29-5.85-7.14c-2.63-1.89-5.59-3.15-8.5-4.53c-5.14-2.43-10.55-3.28-16.18-2.74c-3.82,0.37-7.45-0.23-10.87-1.99
		C16.73,112.31,15.89,112.2,16.07,111.61z M153.52,65.37c-1.49-0.01-2.47-0.91-2.47-2.27c0-1.43,1.04-2.46,2.48-2.46
		c1.38,0,2.4,1.09,2.39,2.55C155.89,64.51,154.94,65.38,153.52,65.37z M147.68,65.34c0-0.74,0.51-1.04,1.17-1.12
		c0.7,0.15,1.13,0.54,1.05,1.27c-0.07,0.63-0.4,1.05-1.11,1.02C148.05,66.48,147.68,66.03,147.68,65.34z M148,70.37
		c-0.06,0.47-0.57,0.25-0.88,0.24c-1.93-0.04-3.83,0.13-5.68,0.72c-0.29,0.09-0.71,0.42-0.87-0.12c-0.12-0.42,0.26-0.6,0.59-0.74
		c1.38-0.61,2.83-0.86,4.57-0.9c0.33,0.03,0.9,0.05,1.46,0.14C147.55,69.78,148.06,69.91,148,70.37z M147.25,87.6
		c0.4,0.2,0.84,0.53,0.8,0.97c-0.05,0.48-0.61,0.7-1.09,0.78c-2.26,0.37-4.62-0.23-6.45-1.58c-0.13-0.1-0.27-0.21-0.29-0.37
		c-0.02-0.17,0.1-0.33,0.25-0.41c1.48-0.75,3.12-0.68,4.66-0.23C145.87,86.97,146.58,87.27,147.25,87.6z"/>
</g>
</svg>
