<?xml version="1.0" encoding="UTF-8"?>
<!DOCTYPE svg PUBLIC "-//W3C//DTD SVG 1.1//EN" "http://www.w3.org/Graphics/SVG/1.1/DTD/svg11.dtd">
<svg xmlns="http://www.w3.org/2000/svg" version="1.1" width="200px" height="200px" style="shape-rendering:geometricPrecision; text-rendering:geometricPrecision; image-rendering:optimizeQuality; fill-rule:evenodd; clip-rule:evenodd" xmlns:xlink="http://www.w3.org/1999/xlink">
<g><path style="opacity:0.979" fill="#050506" d="M 86.5,15.5 C 126.135,12.1472 155.802,27.4805 175.5,61.5C 180.467,62.329 185.467,62.829 190.5,63C 191.097,64.0617 191.43,65.2284 191.5,66.5C 189.64,74.248 187.473,81.9147 185,89.5C 186.458,106.878 183.291,123.378 175.5,139C 181.704,139.167 183.871,142.001 182,147.5C 177.24,150.31 172.074,152.143 166.5,153C 139.405,183.359 106.405,192.026 67.5,179C 29.4494,160.571 12.116,130.238 15.5,88C 13.7448,81.813 11.9115,75.6463 10,69.5C 9.33333,67.5 9.33333,65.5 10,63.5C 14.4145,62.6971 18.9145,62.1971 23.5,62C 37.3557,36.7464 58.3557,21.2464 86.5,15.5 Z"/></g>
<g><path style="opacity:0.999" fill="#f6f6f6" d="M 164.5,62.5 C 162.167,63.1667 159.833,63.8333 157.5,64.5C 119.494,65.7382 81.4945,65.7382 43.5,64.5C 40.5,63.8333 37.5,63.1667 34.5,62.5C 54.2361,32.6429 81.9028,20.8096 117.5,27C 138.02,32.5745 153.687,44.4078 164.5,62.5 Z"/></g>
<g><path style="opacity:1" fill="#070708" d="M 127.5,43.5 C 131.182,43.3347 134.848,43.5014 138.5,44C 141.186,46.5463 142.186,49.713 141.5,53.5C 147.954,53.56 153.288,56.06 157.5,61C 120.502,61.5 83.5015,61.6667 46.5,61.5C 45.1372,55.4105 47.1372,50.9105 52.5,48C 60.3173,46.5049 67.6506,47.6716 74.5,51.5C 77.5,45.8574 82.1666,44.0241 88.5,46C 93.94,47.7136 98.2733,50.8803 101.5,55.5C 103.242,51.2628 105.909,47.7628 109.5,45C 111.167,44.3333 112.833,44.3333 114.5,45C 115.725,46.563 117.225,47.7297 119,48.5C 121.963,46.9397 124.796,45.2731 127.5,43.5 Z"/></g>
<g><path style="opacity:0.982" fill="#949495" d="M 34.5,62.5 C 37.5,63.1667 40.5,63.8333 43.5,64.5C 40.1016,64.8204 36.7683,64.487 33.5,63.5C 33.6236,62.8933 33.9569,62.56 34.5,62.5 Z"/></g>
<g><path style="opacity:0.976" fill="#989898" d="M 164.5,62.5 C 165.043,62.56 165.376,62.8933 165.5,63.5C 162.914,64.48 160.247,64.8134 157.5,64.5C 159.833,63.8333 162.167,63.1667 164.5,62.5 Z"/></g>
<g><path style="opacity:1" fill="#e6e6e6" d="M 29.5,77.5 C 31.1439,77.2865 32.6439,77.6198 34,78.5C 36.6758,88.2014 39.5091,97.8681 42.5,107.5C 40.9547,108.452 39.288,108.785 37.5,108.5C 35.0885,98.1125 32.4219,87.7792 29.5,77.5 Z"/></g>
<g><path style="opacity:1" fill="#e6e6e6" d="M 39.5,77.5 C 41.1439,77.2865 42.6439,77.6198 44,78.5C 47.133,88.3652 49.633,98.3652 51.5,108.5C 50.1667,108.5 48.8333,108.5 47.5,108.5C 45.2357,98.0442 42.569,87.7109 39.5,77.5 Z"/></g>
<g><path style="opacity:0.999" fill="#f9f9f9" d="M 98.5,85.5 C 101.044,85.1043 103.211,85.771 105,87.5C 107.313,96.7101 108.98,106.043 110,115.5C 110.685,118.057 112.185,119.891 114.5,121C 133.517,121.754 152.517,121.588 171.5,120.5C 169.501,129.663 165.501,137.83 159.5,145C 135.776,151.471 111.776,152.971 87.5,149.5C 90.749,135.833 85.4156,127.999 71.5,126C 61.5845,123.897 55.0845,127.73 52,137.5C 45.6259,133.675 42.6259,135.342 43,142.5C 59.532,152.121 77.3653,157.955 96.5,160C 114.036,161.044 131.369,160.044 148.5,157C 116.412,181.193 84.0787,181.526 51.5,158C 39.4096,147.633 31.5763,134.799 28,119.5C 32.08,120.3 36.2467,120.8 40.5,121C 55.8333,121.667 71.1667,121.667 86.5,121C 88.8147,119.891 90.3147,118.057 91,115.5C 92.4256,107.188 93.759,98.8546 95,90.5C 95.6972,88.4156 96.8639,86.7489 98.5,85.5 Z"/></g>
<g><path style="opacity:1" fill="#f3f3f3" d="M 64.5,134.5 C 69.3971,134.724 74.0637,135.891 78.5,138C 79.8692,141.3 79.5358,144.467 77.5,147.5C 71.3354,146.119 65.6687,143.786 60.5,140.5C 61.3611,138.089 62.6944,136.089 64.5,134.5 Z"/></g>
</svg>
