<svg version="1.2" xmlns="http://www.w3.org/2000/svg" viewBox="0 0 1176 1176" width="1176" height="1176"><defs><linearGradient id="P" gradientUnits="userSpaceOnUse"/><linearGradient id="g1" x1=".6" y1="-3.4" x2="1175.4" y2="-3.4" href="#P"><stop stop-color="#1e78c2"/><stop offset="1" stop-color="#88c946"/></linearGradient><linearGradient id="g2" x1="139.1" y1="135.1" x2="1036.9" y2="135.1" href="#P"><stop stop-color="#1e78c2"/><stop offset="1" stop-color="#88c946"/></linearGradient><linearGradient id="g3" x1="177.3" y1="173.3" x2="998.7" y2="173.3" href="#P"><stop stop-color="#1e78c2"/><stop offset="1" stop-color="#88c946"/></linearGradient><linearGradient id="g4" x1="98.5" y1="94.5" x2="1077.5" y2="94.5" href="#P"><stop stop-color="#1e78c2"/><stop offset="1" stop-color="#88c946"/></linearGradient><linearGradient id="g5" x1="60.5" y1="55.7" x2="1116.3" y2="55.7" href="#P"><stop stop-color="#1e78c2"/><stop offset="1" stop-color="#88c946"/></linearGradient></defs><style>.s0{fill:url(#g1)}.s1{fill:#237cbd}.s2{fill:url(#g2)}.s3{fill:url(#g3)}.s4{fill:url(#g4)}.s5{fill:url(#g5)}</style><path fill-rule="evenodd" class="s0" d="m1175.4 588.1c0 25-1.5 49.6-4.6 73.8q-1.9 15.3-4.6 30.3q-2 11.6-4.6 22.9q-2.1 9.8-4.6 19.5q-2.2 8.4-4.6 16.8c-1.5 5.1-3 10.1-4.6 15.1q-2.2 7-4.6 13.9q-2.2 6.4-4.6 12.8q-2.3 6-4.6 12q-2.3 5.7-4.6 11.3q-2.3 5.3-4.6 10.5q-2.3 5.1-4.6 10.1q-2.3 4.8-4.7 9.6q-2.2 4.6-4.6 9.2c-1.5 3-3 5.9-4.6 8.8q-2.2 4.2-4.6 8.4q-2.2 4.1-4.6 8.2q-2.3 3.9-4.6 7.8q-2.3 3.8-4.6 7.5q-2.3 3.7-4.6 7.4c-1.5 2.4-3.1 4.7-4.6 7q-2.3 3.5-4.6 7q-2.3 3.3-4.6 6.6q-2.3 3.3-4.6 6.5q-2.3 3.2-4.6 6.3c-1.6 2.1-3.1 4.1-4.6 6.1c-1.6 2-3.1 4.1-4.6 6q-2.3 2.9-4.7 5.8q-2.2 2.9-4.6 5.7c-1.5 1.9-3 3.7-4.6 5.5q-2.3 2.7-4.6 5.5q-2.3 2.6-4.6 5.2c-1.5 1.7-3 3.5-4.6 5.2q-2.3 2.5-4.6 5q-2.3 2.4-4.6 4.9c-1.5 1.6-3.1 3.2-4.6 4.8q-2.3 2.3-4.6 4.7c-1.5 1.5-3.1 3-4.6 4.6q-2.3 2.2-4.6 4.5q-2.3 2.2-4.6 4.4q-2.3 2.1-4.7 4.3c-1.5 1.3-3 2.8-4.6 4.2q-2.3 2-4.6 4.1q-2.3 2-4.6 4.1q-2.3 1.9-4.6 3.9q-2.3 1.9-4.6 3.9c-1.5 1.2-3.1 2.5-4.6 3.7q-2.3 1.9-4.6 3.8c-1.6 1.2-3.1 2.4-4.6 3.6q-2.3 1.8-4.6 3.6q-2.3 1.7-4.6 3.5c-1.6 1.1-3.1 2.3-4.6 3.4q-2.3 1.7-4.7 3.4q-2.2 1.6-4.6 3.2q-2.2 1.7-4.6 3.3q-2.3 1.6-4.6 3.1c-1.5 1.1-3 2.1-4.6 3.1q-2.3 1.5-4.6 3c-1.5 1-3.1 2.1-4.6 3q-2.3 1.5-4.6 2.9q-2.3 1.5-4.6 2.9q-2.3 1.4-4.6 2.8q-2.3 1.3-4.6 2.7q-2.3 1.4-4.6 2.7q-2.3 1.3-4.6 2.6q-2.3 1.3-4.7 2.6q-2.2 1.3-4.5 2.5c-1.6 0.8-3.1 1.6-4.6 2.4q-2.4 1.3-4.7 2.5c-1.5 0.8-3 1.5-4.6 2.3q-2.3 1.2-4.6 2.3q-2.3 1.2-4.6 2.3c-1.5 0.8-3.1 1.5-4.6 2.2q-2.3 1.1-4.6 2.1q-2.3 1.1-4.6 2.2q-2.3 1-4.6 2q-2.3 1-4.6 2q-2.3 1-4.6 2c-1.6 0.7-3.1 1.3-4.6 1.9q-2.3 1-4.6 1.9c-1.6 0.6-3.1 1.2-4.7 1.8c-1.5 0.6-3 1.2-4.6 1.8q-2.2 0.9-4.6 1.7q-2.3 0.9-4.6 1.8q-2.3 0.8-4.6 1.6q-2.3 0.8-4.6 1.6q-2.3 0.8-4.6 1.6q-2.3 0.7-4.6 1.5c-1.6 0.5-3.1 1-4.6 1.5q-2.3 0.7-4.6 1.4q-2.3 0.7-4.6 1.4q-2.3 0.7-4.6 1.3q-2.3 0.7-4.6 1.4c-1.6 0.4-3.1 0.8-4.7 1.2c-1.5 0.4-3 0.9-4.6 1.3q-2.3 0.6-4.6 1.2q-2.3 0.5-4.6 1.1q-2.3 0.6-4.6 1.1q-2.3 0.6-4.6 1.1c-1.5 0.3-3.1 0.7-4.6 1q-2.3 0.5-4.6 1q-2.3 0.5-4.6 1q-2.3 0.4-4.6 0.9q-2.3 0.4-4.6 0.9c-1.6 0.2-3.1 0.5-4.6 0.8q-2.3 0.4-4.7 0.8q-2.2 0.4-4.6 0.8c-1.5 0.2-3 0.5-4.5 0.7c-1.6 0.3-3.1 0.4-4.7 0.7q-2.3 0.3-4.6 0.6c-1.5 0.2-3 0.5-4.6 0.6q-2.3 0.4-4.6 0.6c-1.5 0.2-3.1 0.4-4.6 0.6q-2.3 0.2-4.6 0.5q-2.3 0.2-4.6 0.4q-2.3 0.3-4.6 0.5q-2.3 0.1-4.6 0.3q-2.3 0.3-4.6 0.4q-2.3 0.2-4.6 0.3q-2.4 0.2-4.6 0.3q-2.4 0.2-4.6 0.3q-2.4 0.1-4.7 0.2q-2.3 0.1-4.6 0.2c-1.5 0-3 0.1-4.6 0.1c-1.5 0.1-3 0.1-4.6 0.1c-1.5 0-3 0-4.6 0.1c-1.5 0-3.1 0-4.6 0q-1.2 0-2.3 0q-1.1 0-2.3 0c-1.5 0-3.1 0-4.6 0c-1.6-0.1-3.1-0.1-4.6-0.1q-2.3 0-4.6-0.1q-2.3-0.1-4.6-0.1q-2.3-0.1-4.6-0.2q-2.3-0.1-4.7-0.2c-1.5-0.1-3-0.2-4.6-0.3q-2.2-0.1-4.6-0.3q-2.3-0.1-4.6-0.3q-2.3-0.1-4.6-0.3c-1.5-0.1-3-0.3-4.6-0.4c-1.5-0.2-3.1-0.3-4.6-0.4q-2.3-0.3-4.6-0.5c-1.6-0.2-3.1-0.4-4.6-0.5c-1.5-0.2-3.1-0.4-4.6-0.5c-1.5-0.2-3.1-0.4-4.6-0.6c-1.6-0.2-3.1-0.4-4.6-0.6q-2.3-0.4-4.6-0.7c-1.6-0.2-3.1-0.4-4.7-0.6q-2.2-0.4-4.5-0.8q-2.4-0.4-4.6-0.8q-2.4-0.4-4.7-0.7q-2.3-0.5-4.6-0.9q-2.3-0.5-4.6-0.9q-2.3-0.4-4.6-0.9q-1.2-0.2-2.5-0.5q-1-0.2-2.1-0.5c-1.6-0.3-3.1-0.7-4.6-1q-2.3-0.5-4.6-1.1q-2.3-0.5-4.6-1.1c-1.6-0.3-3.1-0.6-4.6-1c-1.6-0.4-3.1-0.7-4.6-1.1c-1.6-0.4-3.1-0.9-4.6-1.3q-2.4-0.6-4.6-1.3q-2.4-0.6-4.7-1.2c-1.5-0.5-3-0.9-4.6-1.3c-1.5-0.4-3-0.8-4.6-1.3c-1.5-0.4-3-0.9-4.6-1.4c-1.5-0.5-3-1-4.6-1.5q-2.3-0.7-4.6-1.5c-1.5-0.5-3.1-1-4.6-1.5c-1.5-0.5-3.1-1-4.6-1.5q-2.3-0.8-4.6-1.6c-1.6-0.6-3.1-1.2-4.6-1.7q-2.3-0.9-4.6-1.7c-1.6-0.6-3.1-1.2-4.6-1.7c-1.6-0.6-3.1-1.2-4.6-1.8q-2.4-0.9-4.7-1.8c-1.5-0.6-3-1.3-4.6-1.9q-2.3-1-4.6-2q-2.3-0.9-4.6-1.9c-1.5-0.7-3.1-1.3-4.6-2q-2.3-1-4.6-2c-1.5-0.7-3.1-1.5-4.6-2.2q-2.3-1.1-4.6-2.2c-1.5-0.7-3.1-1.4-4.6-2.2c-1.5-0.7-3.1-1.4-4.6-2.1q-2.3-1.2-4.6-2.4c-1.6-0.8-3.1-1.6-4.6-2.4q-2.3-1.2-4.7-2.4c-1.5-0.8-3-1.6-4.6-2.5c-1.5-0.8-3-1.5-4.5-2.4c-1.6-0.8-3.1-1.7-4.7-2.6c-1.5-0.9-3-1.8-4.6-2.7q-2.3-1.3-4.6-2.7c-1.5-0.9-3.1-1.7-4.6-2.7c-1.5-0.9-3.1-1.7-4.6-2.7c-1.5-0.9-3.1-1.9-4.6-2.9c-1.6-1-3.1-2-4.6-3q-2.3-1.4-4.6-2.9c-1.6-1-3.1-1.9-4.6-3q-2.3-1.5-4.6-3.1c-1.6-1-3.1-2.1-4.6-3.2c-1.6-1.1-3.1-2.2-4.6-3.3c-1.6-1-3.1-2.1-4.6-3.2c-1.6-1.1-3.1-2.2-4.7-3.3c-1.5-1.1-3-2.3-4.6-3.5q-2.3-1.7-4.6-3.5c-1.5-1.2-3.1-2.3-4.6-3.6c-1.5-1.1-3.1-2.3-4.6-3.5c-1.6-1.2-3.1-2.5-4.6-3.8q-2.3-1.9-4.6-3.8c-1.5-1.3-3.1-2.6-4.6-3.9c-1.5-1.3-3.1-2.5-4.6-3.8c-1.6-1.4-3.1-2.8-4.6-4.2q-2.3-2-4.6-4.1c-1.6-1.4-3.1-2.8-4.6-4.2c-1.6-1.4-3.2-2.8-4.7-4.2c-1.5-1.5-3-3-4.6-4.5c-1.5-1.5-3-3.1-4.6-4.6c-1.5-1.5-3.1-3-4.6-4.5c-1.5-1.5-3.1-3-4.6-4.6c-1.5-1.6-3-3.3-4.6-4.9q-2.3-2.5-4.6-4.9c-1.5-1.7-3.1-3.3-4.6-5q-2.3-2.6-4.6-5.1c-1.6-1.8-3.1-3.6-4.6-5.4q-2.3-2.7-4.6-5.4c-1.6-1.8-3.1-3.5-4.6-5.3c-1.6-2-3.1-4-4.6-5.9q-2.4-2.9-4.7-5.8c-1.5-2-3-3.9-4.6-5.9c-1.5-2-3-4.1-4.6-6.2c-1.5-2.1-3-4.2-4.6-6.3c-1.5-2.2-3.1-4.3-4.6-6.4q-2.3-3.4-4.6-6.7c-1.6-2.3-3.1-4.7-4.6-7c-1.5-2.3-3.1-4.6-4.6-7q-2.3-3.7-4.6-7.3c-1.6-2.6-3.1-5.2-4.6-7.7c-1.5-2.6-3.1-5.1-4.6-7.7c-1.6-2.7-3.1-5.5-4.6-8.3q-2.4-4.2-4.6-8.4c-1.6-2.9-3.2-5.7-4.6-8.7c-1.6-3.1-3.1-6.2-4.6-9.3c-1.6-3.2-3.2-6.2-4.7-9.4c-1.6-3.4-3-6.9-4.6-10.3c-1.5-3.5-3.1-7-4.6-10.5c-1.6-3.8-3.1-7.6-4.6-11.4c-1.5-3.9-3.1-7.8-4.6-11.8c-1.6-4.3-3.1-8.7-4.6-13c-1.6-4.5-3.2-9-4.6-13.5c-1.6-5.2-3.1-10.4-4.6-15.6q-2.4-8.4-4.6-16.9c-1.6-6.3-3.2-12.6-4.6-19q-2.6-11.3-4.6-22.9c-1.9-10.2-3.3-20.6-4.6-31c-3-23.9-4.6-48.4-4.6-73.1c0-25 1.5-49.7 4.6-73.9c1.2-10.2 2.8-20.3 4.6-30.4q2-11.5 4.6-22.8q2.1-9.8 4.6-19.5q2.2-8.5 4.6-16.8c1.5-5.1 3-10.1 4.6-15.1q2.2-7 4.6-13.9q2.2-6.5 4.6-12.8q2.3-6.1 4.6-12q2.3-5.7 4.6-11.3c1.5-3.5 3.1-7.1 4.6-10.6q2.3-5 4.6-10q2.3-4.8 4.7-9.6c1.5-3.1 3-6.2 4.6-9.3q2.2-4.3 4.6-8.7c1.5-2.8 3-5.6 4.6-8.4q2.2-4.1 4.6-8.2q2.3-3.9 4.6-7.8q2.3-3.8 4.6-7.6q2.3-3.7 4.6-7.4c1.5-2.3 3.1-4.6 4.6-7q2.3-3.5 4.6-6.9c1.5-2.3 3.1-4.4 4.6-6.7q2.3-3.2 4.6-6.5q2.3-3.1 4.6-6.3c1.6-2 3.1-4 4.6-6.1q2.3-3 4.6-6q2.3-2.9 4.7-5.8q2.2-2.8 4.6-5.7q2.3-2.7 4.6-5.5c1.5-1.8 3-3.6 4.6-5.4c1.5-1.8 3.1-3.5 4.6-5.2q2.3-2.7 4.6-5.2c1.5-1.7 3.1-3.3 4.6-5q2.3-2.5 4.6-5c1.5-1.6 3.1-3.1 4.6-4.7q2.3-2.4 4.6-4.7q2.3-2.3 4.6-4.6q2.3-2.3 4.6-4.5q2.3-2.2 4.6-4.4q2.3-2.2 4.7-4.3q2.2-2.1 4.6-4.3q2.3-2 4.6-4q2.3-2.1 4.6-4.1q2.3-2 4.6-3.9q2.3-2 4.6-3.9c1.5-1.3 3.1-2.6 4.6-3.8q2.3-1.9 4.6-3.7c1.6-1.2 3.1-2.5 4.6-3.7c1.5-1.2 3.1-2.4 4.6-3.5q2.3-1.8 4.6-3.6q2.3-1.7 4.6-3.4q2.3-1.7 4.7-3.3q2.2-1.7 4.6-3.3c1.5-1.1 3-2.2 4.6-3.2q2.3-1.6 4.6-3.2c1.5-1.1 3-2.1 4.6-3.1q2.3-1.5 4.6-3q2.3-1.5 4.6-3c1.5-1 3.1-1.9 4.6-2.9q2.3-1.4 4.6-2.9q2.3-1.4 4.6-2.8q2.3-1.3 4.6-2.7c1.6-0.9 3.1-1.8 4.6-2.7q2.3-1.3 4.6-2.6q2.3-1.3 4.7-2.6c1.5-0.8 3-1.7 4.5-2.5c1.6-0.8 3.1-1.6 4.6-2.4q2.4-1.3 4.7-2.5q2.3-1.2 4.6-2.3c1.5-0.8 3.1-1.5 4.6-2.3c1.5-0.8 3-1.6 4.6-2.3q2.3-1.1 4.6-2.2q2.3-1.1 4.6-2.1c1.5-0.8 3.1-1.5 4.6-2.2c1.5-0.7 3.1-1.3 4.6-2q2.3-1 4.6-2q2.3-1 4.6-2c1.6-0.7 3.1-1.3 4.6-1.9q2.3-1 4.6-1.9q2.3-0.9 4.7-1.8q2.3-0.9 4.6-1.8q2.2-0.9 4.6-1.7q2.3-0.9 4.6-1.8q2.3-0.8 4.6-1.6q2.3-0.8 4.6-1.6q2.3-0.8 4.6-1.6c1.5-0.5 3.1-1 4.6-1.5c1.6-0.5 3.1-1 4.6-1.5q2.3-0.7 4.6-1.4q2.3-0.7 4.6-1.4q2.3-0.7 4.6-1.3q2.3-0.7 4.6-1.4q2.4-0.6 4.7-1.2q2.2-0.6 4.6-1.3c1.5-0.4 3-0.8 4.6-1.2q2.3-0.5 4.6-1.1q2.3-0.5 4.6-1.1q2.3-0.6 4.6-1.1c1.5-0.3 3.1-0.7 4.6-1q2.3-0.5 4.6-1c1.5-0.3 3.1-0.7 4.6-1q2.3-0.4 4.6-0.9c1.5-0.3 3.1-0.6 4.6-0.8q2.3-0.5 4.6-0.9q2.3-0.4 4.7-0.8q2.2-0.4 4.6-0.8c1.5-0.2 3-0.5 4.5-0.7c1.6-0.3 3.1-0.4 4.7-0.7q2.3-0.3 4.6-0.6c1.5-0.2 3-0.5 4.6-0.6q2.3-0.4 4.6-0.6c1.5-0.2 3.1-0.4 4.6-0.6q2.3-0.2 4.6-0.5q2.3-0.2 4.6-0.4c1.5-0.2 3.1-0.3 4.6-0.5q2.3-0.1 4.6-0.3q2.3-0.3 4.6-0.4q2.3-0.2 4.6-0.3q2.4-0.2 4.6-0.3q2.4-0.2 4.6-0.3q2.4-0.1 4.7-0.2q2.3-0.1 4.6-0.2c1.5 0 3-0.1 4.6-0.1c1.5-0.1 3-0.1 4.6-0.1c1.5 0 3 0 4.6-0.1c1.5 0 3.1 0 4.6 0q1.2 0 2.3 0q1.1 0 2.3 0c1.5 0 3.1 0 4.6 0q2.3 0.1 4.6 0.1c1.5 0 3.1 0 4.6 0.1q2.3 0.1 4.6 0.1c1.6 0.1 3.1 0.2 4.6 0.2c1.6 0.1 3.1 0.1 4.7 0.2q2.2 0.1 4.6 0.3c1.5 0.1 3 0.2 4.6 0.3q2.3 0.1 4.6 0.3c1.5 0.1 3 0.2 4.6 0.3q2.3 0.2 4.6 0.4q2.3 0.3 4.6 0.5q2.3 0.2 4.6 0.4c1.5 0.2 3.1 0.4 4.6 0.5q2.3 0.3 4.6 0.6q2.3 0.3 4.6 0.6q2.3 0.3 4.6 0.6q2.3 0.3 4.6 0.7q2.3 0.3 4.7 0.6q2.2 0.4 4.5 0.7q2.4 0.4 4.6 0.9q2.4 0.4 4.7 0.7c1.5 0.3 3 0.6 4.6 0.9q2.3 0.4 4.6 0.9q2.3 0.4 4.6 0.9c1.5 0.3 3.1 0.6 4.6 0.9q0.8 0.2 1.6 0.4c1 0.2 2 0.4 3 0.7c1.5 0.3 3.1 0.7 4.6 1.1q2.3 0.5 4.6 1.1q2.3 0.5 4.6 1c1.6 0.4 3.1 0.8 4.6 1.2q2.3 0.5 4.6 1.1c1.6 0.4 3.1 0.9 4.6 1.3q2.4 0.7 4.7 1.3c1.5 0.4 3 0.9 4.6 1.3c1.5 0.5 3 0.9 4.6 1.3c1.5 0.5 3.1 0.9 4.6 1.3c1.5 0.5 3 1.1 4.6 1.5q2.3 0.8 4.6 1.6q2.3 0.7 4.6 1.5q2.3 0.7 4.6 1.5c1.5 0.5 3.1 1 4.6 1.5c1.6 0.6 3.1 1.2 4.6 1.7q2.3 0.9 4.6 1.8q2.4 0.9 4.6 1.7c1.6 0.6 3.1 1.2 4.6 1.8c1.6 0.6 3.1 1.1 4.7 1.7c1.5 0.7 3 1.3 4.6 2c1.5 0.6 3 1.3 4.6 2q2.3 0.9 4.6 1.9c1.5 0.7 3 1.3 4.6 2c1.5 0.7 3.1 1.3 4.6 2c1.5 0.7 3.1 1.4 4.6 2.1c1.5 0.8 3.1 1.5 4.6 2.3q2.3 1.1 4.6 2.2c1.5 0.7 3.1 1.4 4.6 2.2c1.5 0.7 3.1 1.4 4.6 2.2c1.6 0.8 3.1 1.6 4.6 2.4c1.6 0.8 3.1 1.7 4.7 2.5q2.2 1.2 4.6 2.4c1.5 0.9 3 1.6 4.5 2.5c1.6 0.8 3.1 1.6 4.7 2.5c1.5 0.9 3 1.8 4.6 2.7q2.3 1.4 4.6 2.7q2.3 1.4 4.6 2.8c1.5 0.9 3.1 1.7 4.6 2.7c1.5 0.9 3.1 1.9 4.6 2.8c1.6 1 3.1 2 4.6 3q2.3 1.5 4.6 3c1.6 1 3.1 2 4.6 3c1.6 1 3.1 2 4.6 3c1.6 1.1 3.1 2.2 4.6 3.2q2.4 1.7 4.6 3.3q2.4 1.6 4.6 3.3c1.6 1.1 3.2 2.1 4.7 3.2c1.5 1.2 3 2.4 4.6 3.5c1.5 1.2 3 2.4 4.6 3.6q2.3 1.8 4.6 3.5c1.5 1.2 3.1 2.4 4.6 3.6q2.3 1.9 4.6 3.7c1.6 1.3 3.1 2.6 4.6 3.9q2.3 1.9 4.6 3.9c1.5 1.3 3.1 2.5 4.6 3.8q2.3 2.1 4.6 4.1q2.3 2.1 4.6 4.2q2.4 2.1 4.6 4.2c1.6 1.4 3.2 2.8 4.7 4.2c1.5 1.5 3 3 4.6 4.4c1.5 1.5 3 3.1 4.6 4.6c1.5 1.5 3.1 3 4.6 4.6c1.5 1.5 3.1 3 4.6 4.5c1.5 1.7 3 3.3 4.6 4.9c1.5 1.7 3.1 3.4 4.6 5c1.5 1.7 3.1 3.3 4.6 5c1.5 1.7 3.1 3.3 4.6 5c1.6 1.8 3.1 3.7 4.6 5.4q2.3 2.7 4.6 5.5c1.6 1.8 3.1 3.5 4.6 5.4c1.6 1.9 3.1 3.8 4.6 5.7c1.6 2 3.1 3.9 4.7 5.9c1.5 2 3 3.9 4.6 5.9c1.5 2 3 4 4.6 6.1c1.5 2.1 3 4.3 4.6 6.4c1.5 2.2 3.1 4.3 4.6 6.4c1.5 2.2 3.1 4.4 4.6 6.7c1.6 2.3 3.1 4.6 4.6 7q2.3 3.5 4.6 7q2.3 3.6 4.6 7.3c1.6 2.5 3.1 5.1 4.6 7.7c1.5 2.5 3.1 5.1 4.6 7.7c1.6 2.7 3.1 5.5 4.6 8.2q2.4 4.2 4.6 8.5c1.6 2.9 3.2 5.7 4.6 8.6c1.6 3.1 3.1 6.3 4.6 9.4c1.6 3.1 3.2 6.2 4.7 9.4c1.5 3.4 3 6.9 4.6 10.3q2.3 5.2 4.6 10.5q2.3 5.6 4.6 11.3q2.3 5.9 4.6 11.9q2.4 6.4 4.6 13c1.6 4.5 3.1 9 4.6 13.5c1.6 5.2 3.1 10.4 4.6 15.6q2.4 8.3 4.6 16.8c1.6 6.3 3.2 12.6 4.6 19q2.6 11.4 4.6 23c1.8 10.2 3.3 20.5 4.6 30.9c3 24 4.6 48.4 4.6 73.3zm-56.4-0.1c0-20.4-1.2-40.6-3.5-60.5q-1.8-16.1-4.6-32q-2-11.5-4.6-23q-2.1-9.6-4.6-19.1c-1.4-5.5-3-10.9-4.6-16.4q-2.2-7.4-4.6-14.7q-2.2-6.7-4.6-13.4q-2.2-6.2-4.6-12.3q-2.2-5.8-4.6-11.5q-2.3-5.4-4.6-10.8q-2.3-5.1-4.6-10.1q-2.3-4.8-4.6-9.6q-2.3-4.7-4.6-9.2q-2.3-4.4-4.6-8.7q-2.3-4.2-4.6-8.4q-2.3-4-4.7-8q-2.2-3.9-4.6-7.8q-2.2-3.7-4.6-7.3q-2.3-3.6-4.6-7.2q-2.3-3.5-4.6-7c-1.5-2.2-3-4.4-4.6-6.6q-2.3-3.3-4.6-6.5q-2.3-3.2-4.6-6.3c-1.5-2.1-3.1-4.1-4.6-6.1c-1.6-2-3.1-4-4.6-5.9q-2.3-2.9-4.6-5.8q-2.3-2.8-4.6-5.6q-2.3-2.7-4.6-5.4q-2.3-2.7-4.7-5.3q-2.2-2.6-4.6-5.2q-2.3-2.5-4.6-5q-2.3-2.5-4.6-4.9c-1.5-1.6-3-3.2-4.6-4.8q-2.3-2.4-4.6-4.7q-2.3-2.3-4.6-4.5c-1.5-1.5-3-3-4.6-4.5q-2.3-2.2-4.6-4.3q-2.3-2.2-4.6-4.3c-1.5-1.4-3.1-2.7-4.6-4.1q-2.3-2.1-4.6-4.1q-2.3-1.9-4.7-3.9q-2.2-2-4.6-3.9q-2.2-1.9-4.6-3.8c-1.5-1.2-3-2.5-4.6-3.7c-1.5-1.2-3-2.4-4.6-3.6q-2.3-1.8-4.6-3.5q-2.3-1.7-4.6-3.5q-2.3-1.7-4.6-3.3q-2.3-1.7-4.6-3.4q-2.3-1.6-4.6-3.2q-2.3-1.6-4.6-3.2q-2.3-1.5-4.6-3q-2.3-1.6-4.6-3.1q-2.3-1.4-4.7-2.9q-2.2-1.5-4.5-2.9q-2.4-1.4-4.6-2.8q-2.4-1.4-4.7-2.7c-1.5-1-3-1.9-4.6-2.8q-2.3-1.3-4.6-2.6q-2.3-1.3-4.6-2.6q-2.3-1.2-4.6-2.5c-1.5-0.8-3.1-1.6-4.6-2.4c-1.5-0.8-3.1-1.7-4.6-2.4c-1.5-0.8-3.1-1.6-4.6-2.4q-2.3-1.1-4.6-2.3c-1.6-0.7-3.1-1.5-4.6-2.2q-2.3-1.1-4.6-2.1q-2.4-1.1-4.6-2.2c-1.6-0.7-3.1-1.3-4.7-2q-2.2-1.1-4.6-2q-2.2-1-4.6-2q-2.3-1-4.6-1.9c-1.5-0.6-3-1.3-4.6-1.9q-2.3-0.9-4.6-1.8q-2.3-0.9-4.6-1.7q-2.3-0.9-4.6-1.8c-1.5-0.5-3.1-1.1-4.6-1.6q-2.3-0.8-4.6-1.6q-2.3-0.8-4.6-1.6c-1.6-0.5-3.1-1-4.6-1.5q-2.3-0.8-4.6-1.5q-2.3-0.7-4.7-1.4q-2.2-0.7-4.6-1.4q-2.3-0.7-4.6-1.3c-1.5-0.5-3-0.9-4.6-1.3q-2.3-0.6-4.6-1.2q-2.3-0.7-4.6-1.3q-2.3-0.5-4.6-1.1q-2.3-0.6-4.6-1.1c-1.5-0.4-3.1-0.7-4.6-1.1c-1.5-0.3-3.1-0.7-4.6-1c-1.5-0.3-3.1-0.7-4.6-1q-2.3-0.5-4.6-0.9c-1.6-0.3-3.1-0.6-4.7-0.9c-1.5-0.3-3-0.6-4.6-0.9c-1.5-0.3-3-0.5-4.5-0.8q-2.4-0.4-4.7-0.7c-1.5-0.3-3-0.6-4.6-0.8c-1.5-0.2-3-0.4-4.6-0.6q-2.3-0.4-4.6-0.7q-2.3-0.3-4.6-0.6c-1.5-0.2-3.1-0.4-4.6-0.6q-2.3-0.2-4.6-0.5q-2.3-0.2-4.6-0.5q-2.3-0.2-4.6-0.4q-2.3-0.2-4.6-0.4q-2.3-0.2-4.6-0.4c-1.6-0.1-3.1-0.2-4.6-0.3q-2.4-0.1-4.6-0.3c-1.6 0-3.1-0.1-4.7-0.2q-2.3-0.1-4.6-0.2q-2.3-0.1-4.6-0.2q-2.3 0-4.6-0.1q-2.3 0-4.6 0q-2.3-0.1-4.6-0.1q-1.2 0-2.3 0q-1.1 0-2.3 0q-2.3 0-4.6 0.1q-2.3 0-4.6 0q-2.3 0.1-4.6 0.1q-2.3 0.1-4.6 0.2q-2.3 0.1-4.6 0.2c-1.6 0.1-3.1 0.2-4.7 0.2q-2.2 0.2-4.6 0.3c-1.5 0.1-3 0.2-4.6 0.3q-2.3 0.2-4.6 0.4q-2.3 0.2-4.6 0.4q-2.3 0.2-4.6 0.4q-2.3 0.3-4.6 0.5q-2.3 0.3-4.6 0.5c-1.5 0.2-3.1 0.4-4.6 0.6q-2.3 0.3-4.6 0.6q-2.3 0.3-4.6 0.7c-1.6 0.2-3.1 0.4-4.6 0.6c-1.6 0.2-3.1 0.5-4.6 0.8q-2.3 0.3-4.7 0.7c-1.5 0.3-3 0.5-4.5 0.8c-1.6 0.3-3.1 0.6-4.6 0.9c-1.6 0.3-3.1 0.6-4.7 0.9q-2.3 0.4-4.6 0.9c-1.5 0.3-3.1 0.7-4.6 1c-1.5 0.3-3.1 0.7-4.6 1c-1.5 0.4-3.1 0.7-4.6 1.1q-2.3 0.5-4.6 1.1q-2.3 0.6-4.6 1.1q-2.3 0.6-4.6 1.3q-2.3 0.6-4.6 1.2c-1.6 0.4-3.1 0.8-4.6 1.3q-2.3 0.6-4.6 1.3q-2.4 0.7-4.6 1.4q-2.4 0.7-4.7 1.4q-2.3 0.7-4.6 1.5c-1.5 0.5-3 1-4.6 1.5q-2.3 0.8-4.6 1.6q-2.3 0.8-4.6 1.6c-1.5 0.5-3.1 1.1-4.6 1.6c-1.5 0.6-3.1 1.2-4.6 1.8q-2.3 0.8-4.6 1.7q-2.3 0.9-4.6 1.8c-1.6 0.6-3.1 1.3-4.6 1.9q-2.3 0.9-4.6 1.9q-2.4 1-4.6 2q-2.4 0.9-4.6 2c-1.6 0.7-3.1 1.3-4.7 2q-2.2 1.1-4.6 2.2q-2.3 1-4.6 2.1c-1.5 0.7-3 1.5-4.6 2.2q-2.3 1.2-4.6 2.3c-1.5 0.8-3.1 1.6-4.6 2.4c-1.5 0.7-3.1 1.6-4.6 2.4c-1.5 0.8-3.1 1.6-4.6 2.4q-2.3 1.3-4.6 2.5q-2.3 1.3-4.6 2.6q-2.3 1.3-4.6 2.6c-1.6 0.9-3.1 1.8-4.6 2.8q-2.3 1.3-4.7 2.7q-2.2 1.4-4.6 2.8q-2.3 1.4-4.5 2.9q-2.4 1.5-4.7 2.9q-2.3 1.5-4.6 3.1q-2.3 1.5-4.6 3q-2.3 1.6-4.6 3.2q-2.3 1.6-4.6 3.2q-2.3 1.7-4.6 3.4q-2.3 1.6-4.6 3.3q-2.3 1.8-4.6 3.5q-2.3 1.7-4.6 3.5c-1.6 1.2-3.1 2.4-4.6 3.6c-1.6 1.2-3.1 2.5-4.6 3.7q-2.4 1.9-4.6 3.8q-2.4 1.9-4.6 3.9q-2.4 2-4.7 3.9q-2.3 2-4.6 4.1c-1.5 1.4-3.1 2.7-4.6 4.1q-2.3 2.1-4.6 4.3q-2.3 2.1-4.6 4.3c-1.6 1.5-3.1 3-4.6 4.5c-1.5 1.5-3.1 3-4.6 4.5q-2.3 2.3-4.6 4.7c-1.6 1.6-3.1 3.2-4.6 4.8q-2.3 2.4-4.6 4.9q-2.3 2.5-4.6 5q-2.4 2.6-4.6 5.2q-2.4 2.6-4.7 5.3q-2.3 2.7-4.6 5.4q-2.3 2.8-4.6 5.6q-2.3 2.9-4.6 5.8c-1.5 1.9-3 3.9-4.6 5.9c-1.5 2-3.1 4-4.6 6.1q-2.3 3.1-4.6 6.3q-2.3 3.2-4.6 6.5c-1.6 2.2-3.1 4.4-4.6 6.6q-2.3 3.5-4.6 7q-2.3 3.6-4.6 7.2c-1.6 2.4-3.1 4.9-4.6 7.3q-2.4 3.9-4.6 7.8q-2.4 4-4.7 8q-2.3 4.2-4.6 8.4q-2.3 4.3-4.6 8.7q-2.3 4.5-4.6 9.2q-2.3 4.8-4.6 9.6q-2.3 5-4.6 10.2q-2.3 5.3-4.6 10.7q-2.4 5.7-4.6 11.5q-2.4 6.1-4.6 12.3c-1.6 4.4-3.1 8.9-4.6 13.4q-2.4 7.3-4.6 14.8q-2.5 8.1-4.6 16.4q-2.5 9.4-4.6 19q-2.6 11.5-4.6 23.1q-2.8 15.8-4.6 31.9c-2.3 19.9-3.5 40.1-3.5 60.5c0 20.4 1.2 40.6 3.5 60.5q1.8 16.1 4.6 31.9q2 11.6 4.6 23.1q2.1 9.6 4.6 19q2.1 8.3 4.6 16.4q2.2 7.5 4.6 14.8c1.5 4.5 3 9 4.6 13.4q2.2 6.2 4.6 12.3q2.2 5.8 4.6 11.5q2.3 5.4 4.6 10.7q2.3 5.2 4.6 10.2q2.3 4.8 4.6 9.6q2.3 4.7 4.6 9.2q2.3 4.4 4.6 8.7q2.3 4.2 4.6 8.4q2.3 4 4.7 8q2.2 3.9 4.6 7.8q2.2 3.7 4.6 7.3q2.3 3.6 4.6 7.2q2.3 3.5 4.6 7c1.5 2.2 3 4.4 4.6 6.6q2.3 3.3 4.6 6.5q2.3 3.2 4.6 6.3c1.5 2.1 3.1 4.1 4.6 6.1c1.6 2 3.1 4 4.6 5.9q2.3 2.9 4.6 5.8q2.3 2.8 4.6 5.6q2.3 2.7 4.6 5.4q2.3 2.7 4.7 5.3q2.2 2.6 4.6 5.2q2.3 2.5 4.6 5q2.3 2.5 4.6 4.9c1.5 1.6 3 3.2 4.6 4.8q2.3 2.4 4.6 4.7q2.3 2.3 4.6 4.5c1.5 1.5 3 3 4.6 4.5q2.3 2.2 4.6 4.3q2.3 2.2 4.6 4.3c1.5 1.4 3.1 2.7 4.6 4.1q2.3 2.1 4.6 4.1q2.3 1.9 4.7 3.9q2.2 2 4.6 3.9q2.2 1.9 4.6 3.8q2.3 1.8 4.6 3.7c1.5 1.2 3 2.4 4.6 3.6q2.3 1.8 4.6 3.5q2.3 1.7 4.6 3.5q2.3 1.7 4.6 3.3q2.3 1.7 4.6 3.4q2.3 1.6 4.6 3.2q2.3 1.6 4.6 3.2q2.3 1.5 4.6 3q2.3 1.6 4.6 3.1q2.3 1.4 4.7 2.9q2.2 1.4 4.5 2.9q2.4 1.4 4.6 2.8q2.4 1.4 4.7 2.7c1.5 1 3 1.9 4.6 2.8q2.3 1.3 4.6 2.6q2.3 1.3 4.6 2.6q2.3 1.2 4.6 2.5c1.5 0.8 3.1 1.6 4.6 2.4q2.3 1.3 4.6 2.4c1.5 0.8 3.1 1.6 4.6 2.4q2.3 1.1 4.6 2.3q2.3 1.1 4.6 2.2q2.3 1.1 4.6 2.1q2.4 1.1 4.6 2.2q2.3 1 4.7 2q2.2 1.1 4.6 2q2.2 1 4.6 2q2.3 1 4.6 1.9c1.5 0.6 3 1.3 4.6 1.9q2.3 0.9 4.6 1.8q2.3 0.9 4.6 1.7c1.5 0.6 3.1 1.2 4.6 1.8c1.5 0.5 3.1 1.1 4.6 1.6q2.3 0.8 4.6 1.6q2.3 0.9 4.6 1.6c1.6 0.5 3.1 1 4.6 1.5c1.6 0.5 3.1 1 4.6 1.5q2.3 0.7 4.7 1.4q2.2 0.7 4.6 1.4q2.3 0.7 4.6 1.4q2.3 0.6 4.6 1.2q2.3 0.6 4.6 1.2q2.3 0.7 4.6 1.3q2.3 0.5 4.6 1.1q2.3 0.6 4.6 1.1c1.5 0.4 3.1 0.7 4.6 1.1c1.5 0.3 3.1 0.7 4.6 1q2.3 0.5 4.6 1q2.3 0.5 4.6 0.9q2.3 0.5 4.7 0.9c1.5 0.3 3 0.6 4.6 0.9c1.5 0.3 3 0.5 4.5 0.8q2.4 0.4 4.7 0.7c1.5 0.3 3 0.6 4.6 0.8c1.5 0.2 3 0.4 4.6 0.6q2.3 0.4 4.6 0.7q2.3 0.3 4.6 0.6c1.5 0.2 3.1 0.4 4.6 0.6q2.3 0.2 4.6 0.5q2.3 0.2 4.6 0.5c1.6 0.1 3.1 0.3 4.6 0.4q2.3 0.2 4.6 0.4q2.3 0.2 4.6 0.4c1.6 0.1 3.1 0.2 4.6 0.3q2.4 0.1 4.6 0.3c1.6 0 3.1 0.1 4.7 0.2q2.3 0.1 4.6 0.2q2.3 0.1 4.6 0.2q2.3 0 4.6 0.1c1.5 0 3 0 4.6 0q2.3 0 4.6 0.1q1.2 0 2.3 0q1.1 0 2.3 0q2.3-0.1 4.6-0.1c1.6 0 3.1 0 4.6 0q2.3-0.1 4.6-0.1q2.3-0.1 4.6-0.2q2.3-0.1 4.6-0.2c1.6-0.1 3.1-0.2 4.7-0.2q2.2-0.2 4.6-0.3c1.5-0.1 3-0.2 4.6-0.3q2.3-0.2 4.6-0.4q2.3-0.2 4.6-0.4c1.5-0.1 3-0.3 4.6-0.4q2.3-0.3 4.6-0.5q2.3-0.3 4.6-0.5c1.5-0.2 3.1-0.4 4.6-0.6q2.3-0.3 4.6-0.6q2.3-0.3 4.6-0.7c1.6-0.2 3.1-0.4 4.6-0.6c1.6-0.2 3.1-0.5 4.6-0.8q2.3-0.3 4.7-0.7c1.5-0.3 3-0.5 4.5-0.8c1.6-0.3 3.1-0.6 4.6-0.9q2.4-0.4 4.7-0.9q2.3-0.4 4.6-0.9q2.3-0.5 4.6-1c1.5-0.3 3.1-0.7 4.6-1c1.5-0.4 3.1-0.7 4.6-1.1q2.3-0.5 4.6-1.1q2.3-0.6 4.6-1.1q2.3-0.6 4.6-1.3q2.3-0.6 4.6-1.2q2.3-0.6 4.6-1.2q2.3-0.7 4.6-1.4q2.4-0.7 4.6-1.4q2.4-0.7 4.7-1.4c1.5-0.5 3-1 4.6-1.5c1.5-0.5 3-1 4.6-1.5q2.3-0.7 4.6-1.6q2.3-0.8 4.6-1.6c1.5-0.5 3.1-1.1 4.6-1.6c1.5-0.6 3.1-1.2 4.6-1.8q2.3-0.8 4.6-1.7q2.3-0.9 4.6-1.8c1.6-0.6 3.1-1.3 4.6-1.9q2.3-0.9 4.6-1.9q2.4-1 4.6-2q2.4-0.9 4.6-2q2.4-1 4.7-2q2.2-1.1 4.6-2.2q2.3-1 4.6-2.1q2.3-1.1 4.6-2.2q2.3-1.2 4.6-2.3c1.5-0.8 3.1-1.6 4.6-2.4q2.3-1.1 4.6-2.4c1.5-0.8 3.1-1.6 4.6-2.4q2.3-1.3 4.6-2.5q2.3-1.3 4.6-2.6q2.3-1.3 4.6-2.6c1.6-0.9 3.1-1.8 4.6-2.8q2.3-1.3 4.7-2.7q2.2-1.4 4.6-2.8q2.3-1.5 4.5-2.9q2.4-1.5 4.7-2.9q2.3-1.6 4.6-3.1q2.3-1.5 4.6-3q2.3-1.6 4.6-3.2q2.3-1.6 4.6-3.2q2.3-1.7 4.6-3.4q2.3-1.6 4.6-3.3q2.3-1.8 4.6-3.5q2.3-1.7 4.6-3.5c1.6-1.2 3.1-2.4 4.6-3.6q2.3-1.9 4.6-3.7q2.4-1.9 4.6-3.8q2.4-1.9 4.6-3.9q2.4-2 4.7-3.9q2.3-2 4.6-4.1c1.5-1.4 3.1-2.7 4.6-4.1q2.3-2.1 4.6-4.3q2.3-2.1 4.6-4.3c1.6-1.5 3.1-3 4.6-4.5q2.3-2.2 4.6-4.5q2.3-2.3 4.6-4.7c1.6-1.6 3.1-3.2 4.6-4.8q2.3-2.4 4.6-4.9q2.3-2.5 4.6-5q2.4-2.6 4.6-5.2q2.4-2.6 4.7-5.3q2.3-2.7 4.6-5.4q2.3-2.8 4.6-5.6q2.3-2.9 4.6-5.8c1.5-1.9 3-3.9 4.6-5.9c1.5-2 3.1-4 4.6-6.1q2.3-3.1 4.6-6.3q2.3-3.2 4.6-6.5q2.3-3.3 4.6-6.6q2.3-3.5 4.6-7q2.3-3.6 4.6-7.2q2.4-3.6 4.6-7.3q2.4-3.9 4.6-7.8q2.4-4 4.7-8q2.3-4.2 4.6-8.4q2.3-4.3 4.6-8.7q2.3-4.5 4.6-9.2q2.3-4.8 4.6-9.6q2.3-5 4.6-10.1q2.3-5.4 4.6-10.8q2.4-5.7 4.6-11.5q2.4-6.1 4.6-12.3q2.4-6.7 4.6-13.4q2.4-7.3 4.6-14.7c1.6-5.5 3.2-10.9 4.6-16.4q2.5-9.5 4.6-19.1q2.6-11.5 4.6-23q2.8-15.9 4.6-32c2.3-19.9 3.5-40.1 3.5-60.5z" /><path class="s1" d="m60.5 560.8v54.4q-0.8-13.5-0.8-27.2q0-13.7 0.8-27.2z" /><path fill-rule="evenodd" class="s2" d="m1036.9 588c0 20.8-1.5 41.1-4.3 61.2c-1.3 9.3-2.7 18.6-4.6 27.7c-1.4 6.9-2.9 13.6-4.6 20.3c-1.4 5.6-3 11.2-4.6 16.7q-2.2 7.5-4.6 14.8c-1.5 4.5-3 9.1-4.6 13.6c-1.5 3.9-3.1 7.7-4.6 11.6c-1.5 3.8-3 7.6-4.6 11.3c-1.5 3.4-3.1 6.8-4.6 10.2c-1.6 3.3-3.1 6.5-4.6 9.8c-1.5 3-3.1 6-4.7 9c-1.5 2.9-3 5.9-4.6 8.8c-1.4 2.7-3 5.3-4.6 8c-1.5 2.7-3 5.4-4.6 8c-1.5 2.5-3 4.9-4.6 7.4q-2.2 3.6-4.6 7.1c-1.5 2.4-3 4.7-4.6 7c-1.5 2.2-3.1 4.3-4.6 6.5c-1.5 2.2-3.1 4.4-4.6 6.5q-2.3 3.1-4.6 6.1c-1.5 2-3.1 3.9-4.6 5.9c-1.6 1.9-3.1 3.9-4.6 5.8c-1.5 1.9-3.1 3.7-4.7 5.6c-1.5 1.7-3 3.5-4.6 5.2c-1.5 1.8-3 3.6-4.6 5.4c-1.5 1.7-3 3.3-4.6 5c-1.5 1.6-3 3.2-4.6 4.8c-1.5 1.7-3 3.3-4.6 4.9c-1.5 1.5-3 3.1-4.6 4.7c-1.5 1.4-3.1 2.9-4.6 4.3q-2.3 2.2-4.6 4.4c-1.6 1.5-3 3-4.6 4.4c-1.5 1.4-3.1 2.7-4.6 4q-2.3 2-4.6 4c-1.6 1.4-3.1 2.7-4.6 4q-2.3 1.9-4.7 3.8c-1.5 1.3-3 2.5-4.5 3.7q-2.3 1.8-4.6 3.6c-1.6 1.2-3.1 2.4-4.7 3.6c-1.5 1.1-3 2.3-4.6 3.4q-2.3 1.6-4.6 3.3q-2.3 1.6-4.6 3.2c-1.5 1.1-3 2.3-4.6 3.3c-1.5 1-3.1 2-4.6 3q-2.3 1.5-4.6 2.9q-2.3 1.5-4.6 3c-1.6 1-3.1 2-4.6 3c-1.5 0.9-3.1 1.7-4.6 2.6q-2.3 1.4-4.6 2.7c-1.6 0.9-3.1 1.8-4.6 2.6c-1.6 0.9-3.1 1.8-4.7 2.7c-1.5 0.8-3 1.6-4.6 2.4c-1.5 0.8-3 1.5-4.6 2.3c-1.5 0.8-3 1.6-4.6 2.4c-1.5 0.8-3 1.6-4.6 2.4c-1.5 0.7-3 1.4-4.6 2.1c-1.5 0.7-3.1 1.4-4.6 2.1q-2.3 1.1-4.6 2.1c-1.6 0.7-3.1 1.4-4.6 2.1q-2.3 1-4.6 2c-1.5 0.6-3.1 1.2-4.6 1.8q-2.3 0.9-4.6 1.8c-1.6 0.6-3.1 1.2-4.6 1.8c-1.6 0.6-3.1 1.3-4.7 1.8c-1.5 0.6-3 1.1-4.6 1.6q-2.3 0.8-4.6 1.6q-2.3 0.8-4.6 1.5c-1.5 0.6-3 1.1-4.6 1.6q-2.3 0.7-4.6 1.5c-1.5 0.4-3.1 0.8-4.6 1.3q-2.3 0.6-4.6 1.3q-2.3 0.6-4.6 1.3c-1.6 0.4-3.1 0.9-4.6 1.3c-1.5 0.4-3.1 0.7-4.6 1.1c-1.6 0.4-3.1 0.7-4.6 1.1q-2.3 0.5-4.7 1c-1.5 0.4-3 0.8-4.6 1.1c-1.5 0.3-3 0.7-4.5 1c-1.6 0.4-3.1 0.6-4.7 0.9c-1.5 0.3-3 0.5-4.6 0.8c-1.5 0.3-3 0.6-4.6 0.8c-1.5 0.3-3 0.6-4.6 0.8q-2.3 0.4-4.6 0.8c-1.5 0.2-3.1 0.4-4.6 0.6q-2.3 0.3-4.6 0.6q-2.3 0.3-4.6 0.6c-1.6 0.2-3.1 0.4-4.6 0.5q-2.3 0.3-4.6 0.5c-1.5 0.2-3.1 0.2-4.6 0.4c-1.6 0.1-3.1 0.2-4.6 0.3q-2.4 0.2-4.6 0.4c-1.6 0.1-3.1 0.2-4.7 0.3q-2.3 0.2-4.6 0.3c-1.5 0-3.1 0-4.6 0.1q-2.3 0.1-4.6 0.1q-2.3 0.1-4.6 0.1c-1.5 0.1-3.1 0.1-4.6 0.1c-0.8 0-1.5 0.1-2.3 0.1c-0.8 0-1.5-0.1-2.3-0.1c-1.5 0-3.1 0-4.6-0.1q-2.3 0-4.6-0.1q-2.3 0-4.6-0.1c-1.5-0.1-3.1-0.1-4.6-0.1q-2.3-0.1-4.6-0.3c-1.6-0.1-3.1-0.2-4.7-0.3q-2.2-0.2-4.6-0.4c-1.5-0.1-3-0.2-4.6-0.3c-1.5-0.2-3.1-0.2-4.6-0.4q-2.3-0.2-4.6-0.5c-1.5-0.1-3-0.3-4.6-0.5q-2.3-0.3-4.6-0.6q-2.3-0.3-4.6-0.6c-1.5-0.2-3.1-0.4-4.6-0.6q-2.3-0.4-4.6-0.8c-1.6-0.2-3.1-0.5-4.6-0.8c-1.6-0.2-3.1-0.5-4.6-0.8c-1.6-0.3-3.1-0.5-4.6-0.8c-1.6-0.3-3.1-0.5-4.7-0.9c-1.5-0.3-3-0.7-4.5-1c-1.6-0.3-3.1-0.7-4.6-1.1q-2.4-0.5-4.7-1c-1.5-0.4-3-0.7-4.6-1.1c-1.5-0.4-3.1-0.7-4.6-1.1c-1.5-0.4-3-0.9-4.6-1.3q-2.3-0.7-4.6-1.3q-2.3-0.7-4.6-1.3c-1.5-0.5-3.1-0.9-4.6-1.3q-2.3-0.8-4.6-1.5c-1.6-0.5-3.1-1-4.6-1.6q-2.3-0.7-4.6-1.5q-2.3-0.8-4.6-1.6c-1.6-0.5-3.1-1-4.6-1.6c-1.6-0.5-3.1-1.2-4.7-1.8c-1.5-0.6-3-1.2-4.6-1.8q-2.3-0.9-4.6-1.8c-1.5-0.6-3.1-1.2-4.6-1.8q-2.3-1-4.6-2c-1.5-0.7-3-1.4-4.6-2.1q-2.3-1-4.6-2.1c-1.5-0.7-3.1-1.4-4.6-2.1c-1.6-0.7-3.1-1.4-4.6-2.1c-1.6-0.8-3.1-1.6-4.6-2.4c-1.6-0.8-3.1-1.6-4.6-2.4c-1.6-0.8-3.1-1.5-4.6-2.3c-1.6-0.8-3.1-1.6-4.6-2.4c-1.6-0.9-3.1-1.8-4.7-2.7c-1.5-0.8-3-1.7-4.6-2.6q-2.3-1.3-4.6-2.7c-1.5-0.9-3.1-1.7-4.6-2.6c-1.5-1-3-2-4.6-3q-2.3-1.5-4.6-3q-2.3-1.4-4.6-2.9c-1.5-1-3.1-2-4.6-3c-1.6-1-3.1-2.2-4.6-3.3q-2.3-1.6-4.6-3.2q-2.3-1.7-4.6-3.3c-1.6-1.1-3.1-2.3-4.6-3.4c-1.6-1.2-3.1-2.4-4.7-3.6q-2.3-1.8-4.6-3.6c-1.5-1.2-3-2.4-4.5-3.6q-2.4-1.9-4.7-3.9c-1.5-1.3-3-2.6-4.6-4q-2.3-2-4.6-4c-1.5-1.3-3.1-2.6-4.6-4c-1.6-1.4-3-2.9-4.6-4.4q-2.3-2.2-4.6-4.4c-1.5-1.4-3.1-2.9-4.6-4.3q-2.3-2.4-4.6-4.7c-1.6-1.6-3.1-3.2-4.6-4.9c-1.6-1.6-3.1-3.2-4.6-4.8c-1.6-1.7-3.1-3.3-4.6-5c-1.6-1.8-3.1-3.6-4.6-5.3c-1.6-1.8-3.1-3.6-4.6-5.3c-1.6-1.9-3.2-3.7-4.7-5.6c-1.5-1.9-3-3.9-4.6-5.8c-1.5-2-3.1-3.9-4.6-5.9q-2.3-3-4.6-6.1c-1.5-2.1-3.1-4.3-4.6-6.5c-1.5-2.2-3.1-4.3-4.6-6.5c-1.6-2.3-3.1-4.6-4.6-7q-2.4-3.5-4.6-7.1c-1.6-2.5-3.1-4.9-4.6-7.4c-1.6-2.6-3.1-5.3-4.6-8c-1.6-2.7-3.2-5.3-4.6-8c-1.6-2.9-3.1-5.9-4.6-8.8c-1.6-3-3.2-6-4.7-9c-1.5-3.2-3-6.5-4.6-9.8c-1.5-3.4-3.1-6.8-4.6-10.2c-1.6-3.7-3.1-7.5-4.6-11.3c-1.5-3.8-3.1-7.7-4.6-11.6c-1.6-4.5-3.1-9.1-4.6-13.6q-2.4-7.4-4.6-14.8c-1.6-5.5-3.2-11.1-4.6-16.7q-2.5-10-4.6-20.2c-1.9-9.2-3.3-18.5-4.6-27.8c-2.8-20-4.3-40.4-4.3-61.2c0-20.8 1.5-41.2 4.3-61.2c1.3-9.3 2.7-18.6 4.6-27.8q2.1-10.2 4.6-20.2c1.4-5.6 3-11.2 4.6-16.7q2.2-7.4 4.6-14.8c1.5-4.5 3-9.1 4.6-13.6c1.5-3.9 3.1-7.8 4.6-11.6c1.5-3.8 3-7.6 4.6-11.3c1.5-3.4 3.1-6.8 4.6-10.2c1.6-3.3 3.1-6.6 4.6-9.8c1.5-3 3.1-6 4.7-9c1.5-2.9 3-5.9 4.6-8.8c1.4-2.7 3-5.4 4.6-8c1.5-2.7 3-5.4 4.6-8c1.5-2.5 3-4.9 4.6-7.4q2.2-3.6 4.6-7.1c1.5-2.4 3-4.7 4.6-7c1.5-2.2 3.1-4.3 4.6-6.5c1.5-2.2 3.1-4.4 4.6-6.5q2.3-3.1 4.6-6.1c1.5-2 3.1-3.9 4.6-5.9c1.6-1.9 3.1-3.9 4.6-5.8c1.5-1.9 3.1-3.7 4.7-5.6c1.5-1.7 3-3.5 4.6-5.3c1.5-1.7 3-3.5 4.6-5.3c1.5-1.7 3-3.3 4.6-5c1.5-1.7 3-3.2 4.6-4.8c1.5-1.7 3-3.3 4.6-4.9q2.3-2.3 4.6-4.7c1.5-1.4 3.1-2.9 4.6-4.4q2.3-2.1 4.6-4.3c1.6-1.5 3-3 4.6-4.4c1.5-1.4 3.1-2.7 4.6-4q2.3-2 4.6-4c1.6-1.4 3.1-2.7 4.6-4q2.3-2 4.7-3.9c1.5-1.2 3-2.4 4.5-3.6q2.3-1.8 4.6-3.6c1.6-1.2 3.1-2.4 4.7-3.6c1.5-1.2 3-2.3 4.6-3.4q2.3-1.6 4.6-3.3q2.3-1.6 4.6-3.2c1.5-1.1 3-2.3 4.6-3.3c1.5-1 3.1-2 4.6-3q2.3-1.5 4.6-2.9q2.3-1.5 4.6-3c1.6-1 3.1-2 4.6-3c1.5-0.9 3.1-1.7 4.6-2.6q2.3-1.4 4.6-2.7c1.6-0.9 3.1-1.8 4.6-2.6c1.6-0.9 3.1-1.8 4.7-2.7c1.5-0.8 3-1.6 4.6-2.4c1.5-0.8 3-1.5 4.6-2.3c1.5-0.8 3-1.6 4.6-2.4c1.5-0.8 3-1.6 4.6-2.4q2.3-1.1 4.6-2.1c1.5-0.7 3.1-1.4 4.6-2.1q2.3-1.1 4.6-2.1c1.6-0.7 3.1-1.4 4.6-2.1q2.3-1 4.6-2c1.5-0.6 3.1-1.2 4.6-1.8c1.6-0.6 3.1-1.2 4.6-1.8c1.6-0.6 3.1-1.2 4.6-1.8c1.6-0.6 3.1-1.3 4.7-1.8c1.5-0.6 3-1.1 4.6-1.6c1.5-0.6 3-1 4.6-1.6q2.3-0.8 4.6-1.6c1.5-0.5 3-1 4.6-1.5q2.3-0.7 4.6-1.5c1.5-0.4 3.1-0.8 4.6-1.3c1.5-0.4 3.1-0.8 4.6-1.3q2.3-0.6 4.6-1.3c1.6-0.4 3.1-0.9 4.6-1.3c1.5-0.4 3.1-0.7 4.6-1.1c1.6-0.4 3.1-0.7 4.6-1.1q2.3-0.5 4.7-1c1.5-0.4 3-0.8 4.6-1.1c1.5-0.3 3-0.7 4.5-1c1.6-0.4 3.1-0.6 4.7-0.9c1.5-0.3 3-0.5 4.6-0.8c1.5-0.3 3-0.6 4.6-0.8c1.5-0.3 3-0.6 4.6-0.8q2.3-0.4 4.6-0.8c1.5-0.2 3.1-0.4 4.6-0.6q2.3-0.3 4.6-0.6q2.3-0.3 4.6-0.6c1.6-0.2 3.1-0.4 4.6-0.5c1.6-0.2 3.1-0.4 4.6-0.5c1.5-0.2 3.1-0.3 4.6-0.4c1.6-0.1 3.1-0.2 4.6-0.3q2.4-0.2 4.6-0.4c1.6-0.1 3.1-0.2 4.7-0.3q2.3-0.2 4.6-0.3c1.5 0 3.1 0 4.6-0.1q2.3-0.1 4.6-0.1q2.3-0.1 4.6-0.1c1.5-0.1 3.1-0.1 4.6-0.1c0.8 0 1.5-0.1 2.3-0.1c0.8 0 1.5 0.1 2.3 0.1c1.5 0 3.1 0 4.6 0.1q2.3 0 4.6 0.1q2.3 0 4.6 0.1c1.5 0.1 3.1 0.1 4.6 0.1q2.3 0.1 4.6 0.3c1.6 0.1 3.1 0.2 4.7 0.3q2.2 0.2 4.6 0.4c1.5 0.1 3 0.2 4.6 0.3c1.5 0.1 3.1 0.2 4.6 0.4c1.5 0.1 3 0.3 4.6 0.5c1.5 0.1 3 0.3 4.6 0.5q2.3 0.3 4.6 0.6q2.3 0.3 4.6 0.6c1.5 0.2 3.1 0.4 4.6 0.6q2.3 0.4 4.6 0.8c1.6 0.2 3.1 0.5 4.6 0.8c1.6 0.2 3.1 0.5 4.6 0.8c1.6 0.3 3.1 0.5 4.6 0.8c1.6 0.3 3.1 0.5 4.7 0.9c1.5 0.3 3 0.7 4.5 1c1.6 0.3 3.1 0.7 4.6 1.1q2.4 0.5 4.7 1c1.5 0.4 3 0.7 4.6 1.1c1.5 0.4 3.1 0.7 4.6 1.1c1.5 0.4 3 0.9 4.6 1.3q2.3 0.7 4.6 1.3c1.5 0.5 3.1 0.9 4.6 1.3c1.5 0.5 3.1 0.9 4.6 1.3q2.3 0.8 4.6 1.5c1.6 0.5 3.1 1 4.6 1.5q2.3 0.8 4.6 1.6q2.3 0.8 4.6 1.6c1.6 0.5 3.1 1 4.6 1.6c1.6 0.5 3.1 1.2 4.7 1.8c1.5 0.6 3 1.2 4.6 1.8c1.5 0.6 3 1.2 4.6 1.8c1.5 0.6 3.1 1.2 4.6 1.8q2.3 1 4.6 2c1.5 0.7 3 1.4 4.6 2.1q2.3 1 4.6 2.1c1.5 0.7 3.1 1.4 4.6 2.1c1.6 0.7 3.1 1.4 4.6 2.1c1.6 0.8 3.1 1.6 4.6 2.4c1.6 0.8 3.1 1.6 4.6 2.4c1.6 0.8 3.1 1.5 4.6 2.3c1.6 0.8 3.1 1.6 4.6 2.4c1.6 0.9 3.1 1.8 4.7 2.7c1.5 0.8 3 1.7 4.6 2.6q2.3 1.3 4.6 2.7c1.5 0.9 3.1 1.7 4.6 2.6c1.5 1 3 2 4.6 3q2.3 1.5 4.6 3q2.3 1.4 4.6 2.9c1.5 1 3.1 2 4.6 3c1.6 1 3.1 2.2 4.6 3.3q2.3 1.6 4.6 3.2q2.3 1.7 4.6 3.3c1.6 1.1 3.1 2.3 4.6 3.4c1.6 1.2 3.1 2.4 4.7 3.6q2.3 1.8 4.6 3.6c1.5 1.2 3 2.4 4.5 3.6q2.4 1.9 4.7 3.9c1.5 1.3 3 2.6 4.6 4q2.3 2 4.6 4c1.5 1.3 3.1 2.6 4.6 4c1.6 1.4 3 2.9 4.6 4.4q2.3 2.2 4.6 4.3c1.5 1.5 3.1 3 4.6 4.4c1.6 1.6 3.1 3.2 4.6 4.7c1.6 1.6 3.1 3.2 4.6 4.9c1.6 1.6 3.1 3.2 4.6 4.8c1.6 1.7 3.1 3.3 4.6 5c1.6 1.8 3.1 3.6 4.6 5.3c1.6 1.8 3.1 3.6 4.6 5.3c1.6 1.9 3.2 3.7 4.7 5.6c1.5 1.9 3 3.9 4.6 5.8c1.5 2 3.1 3.9 4.6 5.9q2.3 3 4.6 6.1c1.5 2.1 3.1 4.3 4.6 6.5c1.5 2.2 3.1 4.3 4.6 6.5c1.6 2.3 3.1 4.6 4.6 7q2.4 3.5 4.6 7.1c1.6 2.5 3.1 4.9 4.6 7.4c1.6 2.6 3.1 5.3 4.6 8c1.6 2.7 3.2 5.3 4.6 8c1.6 2.9 3.1 5.9 4.6 8.8c1.6 3 3.2 6 4.7 9c1.5 3.3 3 6.5 4.6 9.8c1.5 3.4 3.1 6.8 4.6 10.2c1.6 3.7 3.1 7.5 4.6 11.3c1.5 3.9 3.1 7.7 4.6 11.6c1.6 4.5 3.1 9.1 4.6 13.6q2.4 7.3 4.6 14.8c1.6 5.5 3.2 11.1 4.6 16.7c1.7 6.7 3.2 13.4 4.6 20.3c1.9 9.1 3.3 18.4 4.6 27.7c2.8 20.1 4.3 40.4 4.3 61.2zm-35.4 0c0-9.7-0.5-19.3-1.1-28.8q-1.4-20-4.6-39.4c-1.4-7.9-2.9-15.6-4.6-23.3q-2.1-9.3-4.7-18.4c-1.4-5.2-2.9-10.5-4.6-15.7q-2.2-6.8-4.6-13.5c-1.4-4.1-3-8.1-4.6-12.1c-1.5-3.8-3-7.6-4.6-11.4c-1.4-3.4-3-6.8-4.6-10.2c-1.5-3.3-3-6.5-4.6-9.7c-1.5-3-3-6-4.6-9c-1.5-2.9-3-5.8-4.6-8.6c-1.5-2.7-3.1-5.3-4.6-8c-1.5-2.6-3.1-5.2-4.6-7.8c-1.5-2.4-3.1-4.8-4.6-7.2c-1.6-2.4-3.1-4.8-4.7-7.2c-1.4-2.2-3-4.3-4.6-6.5q-2.2-3.3-4.6-6.5q-2.2-3.1-4.6-6.2c-1.5-2-3-3.9-4.6-5.9c-1.5-1.9-3-3.9-4.6-5.8c-1.5-1.9-3.1-3.7-4.6-5.5q-2.3-2.7-4.6-5.3c-1.5-1.8-3-3.6-4.6-5.3c-1.5-1.7-3.1-3.3-4.6-4.9q-2.3-2.5-4.6-4.9c-1.6-1.6-3.1-3.2-4.6-4.8c-1.5-1.5-3.1-2.9-4.6-4.4q-2.3-2.2-4.7-4.4c-1.5-1.5-3-3-4.5-4.4q-2.3-2.1-4.6-4.1c-1.6-1.3-3.1-2.6-4.7-4c-1.5-1.3-3-2.7-4.6-3.9q-2.3-2-4.6-3.8c-1.5-1.3-3.1-2.5-4.6-3.7q-2.3-1.8-4.6-3.6c-1.5-1.2-3.1-2.4-4.6-3.6c-1.5-1.1-3.1-2.1-4.6-3.2q-2.3-1.7-4.6-3.3c-1.6-1.1-3.1-2.2-4.6-3.3c-1.5-1-3.1-2-4.6-3.1c-1.6-1-3.1-1.9-4.6-2.9q-2.3-1.5-4.6-3c-1.6-0.9-3.1-2-4.7-2.9c-1.5-0.9-3-1.8-4.6-2.7c-1.5-0.9-3-1.7-4.6-2.6c-1.5-0.9-3-1.8-4.6-2.7c-1.5-0.8-3-1.7-4.6-2.6c-1.5-0.8-3.1-1.5-4.6-2.3c-1.5-0.8-3.1-1.6-4.6-2.4c-1.5-0.8-3.1-1.6-4.6-2.4q-2.3-1.1-4.6-2.2c-1.5-0.7-3.1-1.4-4.6-2.1c-1.5-0.7-3.1-1.4-4.6-2.1c-1.6-0.7-3.1-1.4-4.6-2.1c-1.6-0.6-3.1-1.3-4.6-2c-1.6-0.6-3.1-1.2-4.7-1.8c-1.5-0.6-3-1.2-4.6-1.8c-1.5-0.6-3-1.2-4.6-1.8c-1.5-0.6-3-1.2-4.6-1.7c-1.5-0.6-3-1.1-4.6-1.6c-1.5-0.6-3.1-1.1-4.6-1.6c-1.5-0.5-3.1-1-4.6-1.5c-1.5-0.5-3-1.1-4.6-1.6c-1.5-0.4-3.1-0.8-4.6-1.3c-1.5-0.4-3.1-0.9-4.6-1.3q-2.3-0.6-4.6-1.3c-1.6-0.4-3.1-0.9-4.6-1.3c-1.6-0.4-3.1-0.7-4.7-1.1c-1.5-0.4-3-0.7-4.6-1.1q-2.3-0.5-4.5-1c-1.6-0.4-3.1-0.8-4.7-1.1q-2.3-0.5-4.6-0.9c-1.5-0.3-3-0.6-4.6-0.8q-2.3-0.5-4.6-0.9c-1.5-0.2-3-0.6-4.6-0.8c-1.5-0.3-3.1-0.6-4.6-0.8c-1.5-0.2-3.1-0.4-4.6-0.6c-1.5-0.2-3.1-0.4-4.6-0.6q-2.3-0.3-4.6-0.6c-1.6-0.1-3.1-0.4-4.6-0.5q-2.3-0.3-4.6-0.5c-1.6-0.1-3.1-0.2-4.6-0.3q-2.3-0.2-4.6-0.4q-2.4-0.2-4.7-0.3c-1.5-0.1-3-0.3-4.6-0.4c-1.5 0-3.1 0-4.6-0.1c-1.5 0-3 0-4.6-0.1q-2.3 0-4.6-0.1c-1.5 0-3.1-0.1-4.6-0.1c-0.8 0-1.5-0.1-2.3-0.1c-0.8 0-1.5 0.1-2.3 0.1c-1.5 0-3.1 0.1-4.6 0.1q-2.3 0.1-4.6 0.1c-1.6 0.1-3.1 0.1-4.6 0.1c-1.5 0.1-3.1 0.1-4.6 0.1c-1.6 0.1-3.1 0.3-4.6 0.4q-2.3 0.1-4.7 0.3q-2.3 0.2-4.6 0.4c-1.5 0.1-3 0.2-4.6 0.3q-2.3 0.2-4.6 0.5c-1.5 0.1-3 0.4-4.6 0.5q-2.3 0.3-4.6 0.6c-1.5 0.2-3.1 0.4-4.6 0.6c-1.5 0.2-3.1 0.4-4.6 0.6c-1.6 0.2-3.1 0.5-4.6 0.8c-1.6 0.2-3.1 0.6-4.6 0.8q-2.3 0.4-4.6 0.9c-1.6 0.2-3.1 0.5-4.6 0.8q-2.3 0.4-4.6 0.9c-1.6 0.3-3.1 0.7-4.7 1.1q-2.2 0.5-4.5 1c-1.6 0.4-3.1 0.7-4.6 1.1c-1.6 0.4-3.1 0.7-4.7 1.1c-1.5 0.4-3 0.9-4.6 1.3q-2.3 0.6-4.6 1.3q-2.3 0.7-4.6 1.3c-1.5 0.5-3.1 0.9-4.6 1.3c-1.6 0.5-3.1 1.1-4.6 1.6c-1.5 0.5-3.1 1-4.6 1.5c-1.5 0.5-3.1 1-4.6 1.6c-1.6 0.5-3.1 1-4.6 1.6c-1.6 0.5-3.1 1.1-4.6 1.7c-1.6 0.6-3.1 1.2-4.6 1.8c-1.6 0.6-3.1 1.2-4.6 1.8c-1.6 0.6-3.1 1.2-4.7 1.8c-1.5 0.7-3 1.4-4.6 2c-1.5 0.7-3 1.4-4.6 2.1q-2.3 1-4.6 2.1c-1.5 0.7-3.1 1.4-4.6 2.1q-2.3 1.1-4.6 2.3c-1.5 0.7-3.1 1.5-4.6 2.3q-2.3 1.2-4.6 2.4c-1.5 0.8-3.1 1.5-4.6 2.3c-1.6 0.9-3.1 1.8-4.6 2.6c-1.6 0.9-3.1 1.8-4.6 2.7q-2.4 1.3-4.6 2.6c-1.6 0.9-3.1 1.8-4.6 2.7c-1.6 0.9-3.1 2-4.7 2.9q-2.3 1.5-4.6 3c-1.5 1-3 1.9-4.6 2.9q-2.3 1.6-4.6 3.1c-1.5 1.1-3 2.2-4.6 3.3q-2.3 1.6-4.6 3.3c-1.5 1.1-3.1 2.1-4.6 3.2q-2.3 1.8-4.6 3.6q-2.3 1.8-4.6 3.6c-1.5 1.2-3.1 2.4-4.6 3.7c-1.6 1.2-3.1 2.5-4.6 3.8c-1.6 1.2-3.1 2.6-4.6 3.9c-1.6 1.4-3.1 2.7-4.7 4q-2.3 2-4.6 4.1c-1.5 1.4-3 2.9-4.5 4.4q-2.4 2.2-4.7 4.4c-1.5 1.5-3.1 2.9-4.6 4.4c-1.5 1.6-3 3.2-4.6 4.8q-2.3 2.4-4.6 4.9c-1.5 1.6-3.1 3.2-4.6 4.9c-1.6 1.7-3.1 3.5-4.6 5.3q-2.3 2.6-4.6 5.3c-1.5 1.8-3.1 3.6-4.6 5.5c-1.6 1.9-3.1 3.9-4.6 5.8c-1.6 2-3.1 3.9-4.6 5.9c-1.6 2-3.1 4.1-4.6 6.2q-2.4 3.2-4.6 6.5c-1.6 2.2-3.2 4.3-4.6 6.5c-1.6 2.4-3.1 4.8-4.7 7.2c-1.5 2.4-3.1 4.8-4.6 7.2c-1.5 2.6-3.1 5.2-4.6 7.8c-1.5 2.7-3.1 5.3-4.6 8c-1.6 2.9-3.1 5.7-4.6 8.6c-1.6 3-3.1 6-4.6 9c-1.6 3.2-3.1 6.5-4.6 9.7c-1.6 3.4-3.2 6.8-4.6 10.2c-1.6 3.8-3.1 7.6-4.6 11.4c-1.6 4-3.2 8-4.6 12.1q-2.4 6.7-4.6 13.5c-1.7 5.2-3.2 10.5-4.6 15.7q-2.6 9.1-4.7 18.4q-2.6 11.5-4.6 23.3q-3.2 19.4-4.6 39.4c-0.6 9.5-1.1 19.1-1.1 28.8c0 9.7 0.5 19.3 1.1 28.8q1.4 20 4.6 39.4q2 11.8 4.6 23.3q2.1 9.3 4.7 18.4c1.4 5.2 2.9 10.5 4.6 15.7q2.2 6.8 4.6 13.5c1.4 4.1 3 8.1 4.6 12.1c1.5 3.8 3 7.6 4.6 11.4c1.4 3.4 3 6.8 4.6 10.2c1.5 3.2 3 6.5 4.6 9.7c1.5 3 3 6 4.6 9c1.5 2.9 3 5.8 4.6 8.6c1.5 2.7 3.1 5.3 4.6 8c1.5 2.6 3.1 5.2 4.6 7.8c1.5 2.4 3.1 4.8 4.6 7.2c1.6 2.4 3.1 4.8 4.7 7.2c1.4 2.2 3 4.3 4.6 6.5q2.2 3.3 4.6 6.5q2.2 3.1 4.6 6.2c1.5 2 3 3.9 4.6 5.9c1.5 1.9 3 3.9 4.6 5.8c1.5 1.9 3.1 3.7 4.6 5.5q2.3 2.7 4.6 5.3c1.5 1.8 3 3.6 4.6 5.3c1.5 1.7 3.1 3.3 4.6 4.9q2.3 2.5 4.6 4.9c1.6 1.6 3.1 3.2 4.6 4.8c1.5 1.5 3.1 2.9 4.6 4.4q2.3 2.2 4.7 4.4c1.5 1.5 3 3 4.5 4.4q2.3 2.1 4.6 4.1c1.6 1.3 3.1 2.6 4.7 4c1.5 1.3 3 2.7 4.6 3.9q2.3 2 4.6 3.8c1.5 1.3 3.1 2.5 4.6 3.7q2.3 1.8 4.6 3.6c1.5 1.2 3.1 2.4 4.6 3.6c1.5 1.1 3.1 2.1 4.6 3.2q2.3 1.7 4.6 3.3c1.6 1.1 3.1 2.2 4.6 3.3c1.5 1 3.1 2 4.6 3.1c1.6 1 3.1 1.9 4.6 2.9q2.3 1.5 4.6 3c1.6 0.9 3.1 2 4.7 2.9c1.5 0.9 3 1.8 4.6 2.7q2.2 1.3 4.6 2.6c1.5 0.9 3 1.8 4.6 2.7c1.5 0.8 3 1.7 4.6 2.6c1.5 0.8 3.1 1.5 4.6 2.3c1.5 0.8 3.1 1.6 4.6 2.4c1.5 0.8 3.1 1.6 4.6 2.4q2.3 1.1 4.6 2.2c1.5 0.7 3.1 1.4 4.6 2.1c1.5 0.7 3.1 1.4 4.6 2.1c1.6 0.7 3.1 1.4 4.6 2.1c1.6 0.6 3.1 1.3 4.6 2c1.6 0.6 3.1 1.2 4.7 1.8q2.2 0.9 4.6 1.8c1.5 0.6 3 1.2 4.6 1.8c1.5 0.6 3 1.2 4.6 1.7c1.5 0.6 3 1.1 4.6 1.6c1.5 0.6 3.1 1.1 4.6 1.6q2.3 0.8 4.6 1.5c1.5 0.5 3 1.1 4.6 1.6c1.5 0.4 3.1 0.8 4.6 1.3c1.5 0.4 3.1 0.9 4.6 1.3q2.3 0.6 4.6 1.3c1.6 0.4 3.1 0.9 4.6 1.3c1.6 0.4 3.1 0.7 4.7 1.1c1.5 0.4 3 0.7 4.6 1.1q2.3 0.5 4.5 1c1.6 0.4 3.1 0.8 4.7 1.1q2.3 0.5 4.6 0.9c1.5 0.3 3 0.6 4.6 0.9c1.5 0.2 3.1 0.5 4.6 0.8c1.5 0.2 3 0.6 4.6 0.8c1.5 0.3 3 0.6 4.6 0.8c1.5 0.2 3.1 0.4 4.6 0.6c1.5 0.2 3.1 0.4 4.6 0.6q2.3 0.3 4.6 0.6c1.6 0.1 3.1 0.4 4.6 0.5q2.3 0.3 4.6 0.5c1.6 0.1 3.1 0.2 4.6 0.3q2.3 0.2 4.6 0.4q2.4 0.2 4.7 0.3c1.5 0.1 3 0.3 4.6 0.4c1.5 0 3.1 0 4.6 0.1c1.5 0 3 0 4.6 0.1q2.3 0.1 4.6 0.1c1.5 0 3.1 0.1 4.6 0.1c0.8 0 1.5 0.1 2.3 0.1c0.8 0 1.5-0.1 2.3-0.1c1.5 0 3.1-0.1 4.6-0.1q2.3 0 4.6-0.1c1.6-0.1 3.1-0.1 4.6-0.1c1.5-0.1 3.1-0.1 4.6-0.1c1.6-0.1 3.1-0.3 4.6-0.4q2.3-0.1 4.7-0.3q2.3-0.2 4.6-0.4c1.5-0.1 3-0.2 4.6-0.3c1.5-0.2 3-0.3 4.6-0.5c1.5-0.1 3-0.4 4.6-0.5q2.3-0.3 4.6-0.6c1.5-0.2 3.1-0.4 4.6-0.6c1.5-0.2 3.1-0.4 4.6-0.6c1.5-0.2 3.1-0.5 4.6-0.8c1.6-0.2 3.1-0.6 4.6-0.8c1.5-0.3 3.1-0.6 4.6-0.8c1.6-0.3 3.1-0.6 4.6-0.9q2.3-0.4 4.6-0.9c1.6-0.3 3.1-0.7 4.7-1.1q2.2-0.5 4.5-1c1.6-0.4 3.1-0.7 4.6-1.1c1.6-0.4 3.1-0.7 4.7-1.1c1.5-0.4 3-0.9 4.6-1.3q2.3-0.7 4.6-1.3c1.5-0.4 3.1-0.9 4.6-1.3c1.5-0.5 3.1-0.9 4.6-1.3c1.6-0.5 3.1-1.1 4.6-1.6q2.3-0.7 4.6-1.5c1.5-0.5 3.1-1 4.6-1.6c1.6-0.5 3.1-1 4.6-1.6c1.6-0.5 3.1-1.1 4.6-1.7c1.6-0.6 3.1-1.2 4.6-1.8q2.4-0.9 4.6-1.8c1.6-0.6 3.1-1.2 4.7-1.8c1.5-0.7 3-1.4 4.6-2c1.5-0.7 3-1.4 4.6-2.1c1.5-0.7 3.1-1.4 4.6-2.1c1.5-0.7 3.1-1.4 4.6-2.1q2.3-1.1 4.6-2.2c1.5-0.8 3.1-1.6 4.6-2.4c1.5-0.8 3.1-1.6 4.6-2.4c1.5-0.8 3.1-1.5 4.6-2.3c1.6-0.9 3.1-1.8 4.6-2.6c1.6-0.9 3.1-1.8 4.6-2.7c1.6-0.9 3.1-1.7 4.6-2.6c1.6-0.9 3.1-1.8 4.6-2.7c1.6-0.9 3.1-2 4.7-2.9q2.3-1.5 4.6-3c1.5-1 3-1.9 4.6-2.9c1.5-1.1 3.1-2.1 4.6-3.1c1.5-1.1 3-2.2 4.6-3.3q2.3-1.6 4.6-3.3c1.5-1.1 3.1-2.1 4.6-3.2c1.5-1.2 3.1-2.4 4.6-3.6q2.3-1.8 4.6-3.6c1.5-1.2 3.1-2.4 4.6-3.7q2.3-1.8 4.6-3.8c1.6-1.2 3.1-2.6 4.6-3.9c1.6-1.4 3.1-2.7 4.7-4q2.3-2 4.6-4.1c1.5-1.4 3-2.9 4.5-4.4q2.4-2.2 4.7-4.4c1.5-1.5 3.1-2.9 4.6-4.4c1.5-1.6 3-3.2 4.6-4.8q2.3-2.4 4.6-4.9c1.5-1.6 3.1-3.2 4.6-4.9c1.6-1.7 3.1-3.5 4.6-5.3c1.6-1.7 3.1-3.5 4.6-5.3c1.5-1.8 3.1-3.6 4.6-5.5c1.6-1.9 3.1-3.9 4.6-5.8c1.6-2 3.1-3.9 4.6-5.9q2.4-3.1 4.6-6.2q2.4-3.2 4.6-6.5c1.6-2.2 3.2-4.3 4.6-6.5c1.6-2.4 3.1-4.8 4.7-7.2c1.5-2.4 3.1-4.8 4.6-7.2c1.5-2.6 3.1-5.2 4.6-7.8q2.3-4 4.6-8c1.6-2.8 3.1-5.7 4.6-8.6c1.6-3 3.1-6 4.6-9c1.6-3.2 3.1-6.5 4.6-9.7c1.6-3.4 3.2-6.8 4.6-10.2c1.6-3.8 3.1-7.6 4.6-11.4c1.6-4 3.2-8 4.6-12.1q2.4-6.7 4.6-13.5c1.7-5.2 3.2-10.5 4.6-15.7q2.6-9.1 4.7-18.4c1.7-7.7 3.2-15.4 4.6-23.3q3.2-19.4 4.6-39.4c0.6-9.5 1.1-19.1 1.1-28.8z" /><path fill-rule="evenodd" class="s3" d="m998.7 588c0 16.4-1.1 32.5-2.9 48.4q-1.8 15.1-4.6 29.8q-2.1 10.6-4.7 20.9c-1.4 5.7-2.9 11.3-4.6 16.9q-2.1 7.3-4.6 14.5c-1.5 4.4-3 8.8-4.6 13.2c-1.4 3.9-3 7.8-4.6 11.6c-1.5 3.7-3 7.2-4.6 10.8c-1.5 3.4-3 6.8-4.6 10.2c-1.5 3-3 6.1-4.6 9.1c-1.5 3-3 6.1-4.6 9c-1.5 2.8-3.1 5.4-4.6 8.2c-1.5 2.6-3.1 5.3-4.6 8c-1.5 2.4-3.1 4.9-4.6 7.4q-2.3 3.6-4.7 7.1c-1.5 2.3-3 4.7-4.6 6.9c-1.5 2.2-3 4.3-4.6 6.5c-1.5 2.2-3 4.4-4.6 6.5c-1.5 2-3 3.9-4.6 5.9q-2.3 2.9-4.6 5.9c-1.5 1.9-3 3.8-4.6 5.7c-1.5 1.8-3.1 3.5-4.6 5.3q-2.3 2.7-4.6 5.3q-2.3 2.6-4.6 5.1c-1.5 1.6-3.1 3.2-4.6 4.9c-1.6 1.6-3.1 3.2-4.6 4.8q-2.3 2.3-4.6 4.6c-1.5 1.5-3.1 2.9-4.7 4.4c-1.5 1.5-3 2.9-4.5 4.4c-1.6 1.4-3.1 2.8-4.6 4.2c-1.6 1.4-3.1 2.7-4.7 4q-2.2 2-4.6 4c-1.5 1.3-3 2.6-4.6 3.9c-1.5 1.3-3.1 2.4-4.6 3.6q-2.3 1.9-4.6 3.7c-1.5 1.2-3 2.4-4.6 3.6q-2.3 1.7-4.6 3.3c-1.5 1.1-3.1 2.2-4.6 3.3q-2.3 1.7-4.6 3.3c-1.6 1-3.1 2.1-4.6 3.2c-1.6 1-3.1 1.9-4.6 2.9q-2.3 1.5-4.6 3c-1.6 1-3.1 2-4.7 3c-1.5 0.9-3 1.8-4.6 2.7c-1.5 0.9-3 1.8-4.6 2.7q-2.3 1.3-4.6 2.6c-1.5 0.9-3 1.8-4.6 2.7c-1.5 0.8-3.1 1.5-4.6 2.3c-1.5 0.8-3.1 1.6-4.6 2.4q-2.3 1.2-4.6 2.4c-1.6 0.7-3.1 1.5-4.6 2.3c-1.5 0.7-3.1 1.4-4.6 2.1q-2.3 1-4.6 2q-2.3 1.1-4.6 2.2c-1.6 0.6-3.1 1.3-4.6 2c-1.6 0.6-3.1 1.2-4.7 1.8c-1.5 0.6-3 1.2-4.6 1.8c-1.5 0.6-3 1.3-4.6 1.8c-1.5 0.6-3 1.3-4.6 1.8c-1.5 0.6-3 1.1-4.6 1.6c-1.5 0.5-3.1 1-4.6 1.6q-2.3 0.8-4.6 1.5c-1.5 0.5-3 1.1-4.6 1.6c-1.5 0.5-3.1 0.8-4.6 1.3q-2.3 0.7-4.6 1.3q-2.3 0.7-4.6 1.3c-1.6 0.4-3.1 0.9-4.6 1.3c-1.6 0.4-3.1 0.8-4.7 1.2c-1.5 0.3-3 0.7-4.6 1q-2.3 0.6-4.5 1.1c-1.6 0.3-3.1 0.7-4.7 1.1q-2.3 0.4-4.6 0.9c-1.5 0.3-3 0.6-4.6 0.8q-2.3 0.5-4.6 0.9c-1.5 0.2-3 0.5-4.6 0.8c-1.5 0.2-3.1 0.6-4.6 0.8c-1.5 0.2-3.1 0.4-4.6 0.6c-1.5 0.2-3.1 0.4-4.6 0.6q-2.3 0.3-4.6 0.6c-1.6 0.1-3.1 0.4-4.6 0.5q-2.3 0.3-4.6 0.5c-1.6 0.1-3.1 0.2-4.6 0.4q-2.3 0.1-4.6 0.3c-1.6 0.1-3.1 0.3-4.7 0.3c-1.5 0.1-3 0.3-4.6 0.4c-1.5 0.1-3.1 0-4.6 0.1c-1.5 0.1-3 0.1-4.6 0.1q-2.3 0.1-4.6 0.1c-1.5 0.1-3.1 0.1-4.6 0.2c-0.8 0-1.5 0-2.3 0c-0.8 0-1.5 0-2.3 0c-1.5-0.1-3.1-0.1-4.6-0.2q-2.3 0-4.6-0.1c-1.6 0-3.1 0-4.6-0.1c-1.5-0.1-3.1 0-4.6-0.1c-1.6-0.1-3.1-0.3-4.6-0.4c-1.6 0-3.1-0.2-4.7-0.3q-2.3-0.2-4.6-0.3c-1.5-0.2-3-0.3-4.6-0.4q-2.3-0.2-4.6-0.5c-1.5-0.1-3-0.4-4.6-0.5q-2.3-0.3-4.6-0.6c-1.5-0.2-3.1-0.4-4.6-0.6c-1.5-0.2-3.1-0.4-4.6-0.6c-1.6-0.2-3.1-0.6-4.6-0.8c-1.6-0.3-3.1-0.6-4.6-0.8q-2.3-0.4-4.6-0.9c-1.6-0.2-3.1-0.5-4.6-0.8q-2.3-0.5-4.6-0.9c-1.6-0.4-3.1-0.8-4.7-1.1q-2.2-0.5-4.5-1.1c-1.6-0.3-3.1-0.7-4.6-1c-1.6-0.4-3.1-0.8-4.7-1.2c-1.5-0.4-3-0.9-4.6-1.3q-2.3-0.6-4.6-1.3q-2.3-0.6-4.6-1.3c-1.5-0.5-3.1-0.8-4.6-1.3c-1.6-0.5-3.1-1.1-4.6-1.6q-2.3-0.7-4.6-1.5c-1.5-0.6-3.1-1.1-4.6-1.6c-1.6-0.5-3.1-1-4.6-1.6c-1.6-0.5-3.1-1.2-4.6-1.8c-1.6-0.5-3.1-1.2-4.6-1.8c-1.6-0.6-3.1-1.2-4.6-1.8c-1.6-0.6-3.1-1.2-4.7-1.8c-1.5-0.7-3-1.4-4.6-2q-2.3-1.1-4.6-2.2q-2.3-1-4.6-2c-1.5-0.7-3.1-1.4-4.6-2.1c-1.5-0.8-3-1.6-4.6-2.3q-2.3-1.2-4.6-2.4c-1.5-0.8-3.1-1.6-4.6-2.4c-1.5-0.8-3.1-1.5-4.6-2.3c-1.6-0.9-3.1-1.8-4.6-2.7q-2.3-1.3-4.6-2.6c-1.6-0.9-3.1-1.8-4.6-2.7c-1.6-0.9-3.1-1.8-4.6-2.7c-1.6-1-3.1-2-4.7-3q-2.3-1.5-4.6-3c-1.5-1-3-1.9-4.6-2.9c-1.5-1.1-3-2.2-4.6-3.2q-2.3-1.6-4.6-3.3c-1.5-1.1-3.1-2.2-4.6-3.3q-2.3-1.6-4.6-3.3c-1.6-1.2-3.1-2.4-4.6-3.6q-2.3-1.8-4.6-3.7c-1.5-1.2-3.1-2.3-4.6-3.6c-1.6-1.3-3.1-2.6-4.6-3.9q-2.4-2-4.6-4c-1.6-1.3-3.1-2.6-4.7-4c-1.5-1.4-3-2.8-4.6-4.2c-1.5-1.5-3-2.9-4.5-4.4c-1.6-1.5-3.2-2.9-4.7-4.4q-2.3-2.3-4.6-4.6c-1.5-1.6-3-3.2-4.6-4.8c-1.5-1.7-3.1-3.3-4.6-4.9q-2.3-2.5-4.6-5.1q-2.3-2.6-4.6-5.3c-1.5-1.8-3.1-3.5-4.6-5.3c-1.6-1.9-3.1-3.8-4.6-5.7q-2.3-3-4.6-5.9c-1.6-2-3.1-3.9-4.6-5.9c-1.6-2.1-3.1-4.3-4.6-6.5c-1.6-2.2-3.1-4.3-4.6-6.5c-1.6-2.2-3.1-4.6-4.6-6.9q-2.4-3.5-4.7-7.1c-1.5-2.5-3.1-5-4.6-7.5c-1.5-2.6-3.1-5.3-4.6-7.9c-1.5-2.8-3.1-5.4-4.6-8.2c-1.6-3-3.1-6-4.6-9c-1.6-3-3.1-6.1-4.6-9.2c-1.6-3.3-3.1-6.7-4.6-10.1c-1.6-3.6-3.1-7.1-4.6-10.8c-1.6-3.8-3.2-7.7-4.6-11.6c-1.6-4.4-3.1-8.8-4.6-13.2q-2.5-7.2-4.6-14.5c-1.7-5.6-3.2-11.2-4.6-16.9q-2.6-10.3-4.7-20.9q-2.8-14.7-4.6-29.8c-1.8-15.9-2.9-32-2.9-48.4c0-16.4 1.1-32.5 2.9-48.4q1.8-15.1 4.6-29.8q2.1-10.6 4.7-20.9c1.4-5.7 2.9-11.3 4.6-16.9q2.1-7.3 4.6-14.5c1.5-4.4 3-8.8 4.6-13.2c1.4-3.9 3-7.8 4.6-11.6c1.5-3.7 3-7.2 4.6-10.8c1.5-3.4 3-6.8 4.6-10.1c1.5-3.1 3-6.2 4.6-9.2c1.5-3 3-6 4.6-9c1.5-2.8 3.1-5.4 4.6-8.2c1.5-2.6 3.1-5.3 4.6-7.9c1.5-2.5 3.1-5 4.6-7.5q2.3-3.6 4.7-7.1c1.5-2.3 3-4.7 4.6-6.9c1.5-2.2 3-4.3 4.6-6.5c1.5-2.2 3-4.4 4.6-6.5c1.5-2 3-3.9 4.6-5.9q2.3-2.9 4.6-5.9c1.5-1.9 3-3.8 4.6-5.7c1.5-1.8 3.1-3.5 4.6-5.3q2.3-2.7 4.6-5.3q2.3-2.6 4.6-5.1c1.5-1.6 3.1-3.2 4.6-4.9c1.6-1.6 3.1-3.2 4.6-4.8q2.3-2.3 4.6-4.6c1.5-1.5 3.1-2.9 4.7-4.4c1.5-1.4 3-2.9 4.5-4.4c1.6-1.4 3.1-2.8 4.6-4.2c1.6-1.4 3.1-2.7 4.7-4q2.2-2 4.6-4c1.5-1.3 3-2.6 4.6-3.9c1.5-1.3 3.1-2.4 4.6-3.6q2.3-1.9 4.6-3.7c1.5-1.2 3-2.4 4.6-3.6q2.3-1.7 4.6-3.3c1.5-1.1 3.1-2.2 4.6-3.3q2.3-1.7 4.6-3.3c1.6-1 3.1-2.1 4.6-3.2c1.6-1 3.1-1.9 4.6-2.9q2.3-1.5 4.6-3c1.6-1 3.1-2 4.7-2.9c1.5-1 3-1.9 4.6-2.8q2.3-1.3 4.6-2.6q2.3-1.4 4.6-2.7c1.5-0.9 3-1.8 4.6-2.7c1.5-0.8 3.1-1.5 4.6-2.3c1.5-0.8 3.1-1.6 4.6-2.4q2.3-1.2 4.6-2.3c1.6-0.8 3.1-1.6 4.6-2.4c1.5-0.7 3.1-1.4 4.6-2.1q2.3-1 4.6-2q2.3-1.1 4.6-2.2c1.6-0.6 3.1-1.3 4.6-2c1.6-0.6 3.1-1.2 4.7-1.8c1.5-0.6 3-1.2 4.6-1.8c1.5-0.6 3-1.3 4.6-1.8c1.5-0.6 3-1.3 4.6-1.8c1.5-0.6 3-1.1 4.6-1.6c1.5-0.5 3.1-1 4.6-1.6q2.3-0.8 4.6-1.5c1.5-0.5 3-1.1 4.6-1.6c1.5-0.4 3.1-0.8 4.6-1.3c1.5-0.5 3.1-0.9 4.6-1.3q2.3-0.7 4.6-1.3c1.6-0.4 3.1-0.9 4.6-1.3c1.6-0.4 3.1-0.8 4.7-1.2c1.5-0.3 3-0.7 4.6-1q2.3-0.6 4.5-1.1c1.6-0.3 3.1-0.7 4.7-1.1c1.5-0.3 3-0.6 4.6-0.9c1.5-0.3 3-0.6 4.6-0.8q2.3-0.5 4.6-0.9c1.5-0.2 3-0.5 4.6-0.8c1.5-0.2 3-0.6 4.6-0.8c1.5-0.2 3.1-0.4 4.6-0.6c1.5-0.2 3.1-0.4 4.6-0.6q2.3-0.3 4.6-0.6c1.6-0.1 3.1-0.4 4.6-0.5q2.3-0.3 4.6-0.5c1.6-0.1 3.1-0.2 4.6-0.4c1.6-0.1 3.1-0.2 4.6-0.3c1.6-0.1 3.1-0.3 4.7-0.3c1.5-0.1 3-0.3 4.6-0.4c1.5-0.1 3.1 0 4.6-0.1c1.5-0.1 3-0.1 4.6-0.1q2.3-0.1 4.6-0.1c1.5-0.1 3.1-0.1 4.6-0.2c0.8 0 1.5 0 2.3 0c0.8 0 1.5 0 2.3 0c1.5 0.1 3.1 0.1 4.6 0.2q2.3 0 4.6 0.1c1.6 0 3.1 0 4.6 0.1c1.5 0.1 3.1 0 4.6 0.1c1.6 0.1 3.1 0.3 4.6 0.4c1.6 0 3.1 0.2 4.7 0.3c1.5 0.1 3 0.2 4.6 0.3c1.5 0.2 3 0.3 4.6 0.4q2.3 0.2 4.6 0.5c1.5 0.1 3 0.4 4.6 0.5q2.3 0.3 4.6 0.6c1.5 0.2 3.1 0.4 4.6 0.6c1.5 0.2 3.1 0.4 4.6 0.6c1.5 0.2 3.1 0.6 4.6 0.8c1.6 0.3 3.1 0.6 4.6 0.8q2.3 0.4 4.6 0.9c1.6 0.2 3.1 0.5 4.6 0.8c1.6 0.3 3.1 0.6 4.6 0.9c1.6 0.4 3.1 0.8 4.7 1.1q2.2 0.5 4.5 1.1c1.6 0.3 3.1 0.7 4.6 1c1.6 0.4 3.1 0.8 4.7 1.2c1.5 0.4 3 0.9 4.6 1.3q2.3 0.6 4.6 1.3c1.5 0.4 3.1 0.8 4.6 1.3c1.5 0.5 3.1 0.8 4.6 1.3c1.6 0.5 3.1 1.1 4.6 1.6q2.3 0.7 4.6 1.5c1.5 0.6 3.1 1.1 4.6 1.6c1.6 0.5 3.1 1 4.6 1.6c1.6 0.5 3.1 1.2 4.6 1.8c1.6 0.5 3.1 1.2 4.6 1.8c1.6 0.6 3.1 1.2 4.6 1.8c1.6 0.6 3.1 1.2 4.7 1.8c1.5 0.7 3 1.4 4.6 2q2.3 1.1 4.6 2.2q2.3 1 4.6 2c1.5 0.7 3.1 1.4 4.6 2.1c1.5 0.8 3 1.6 4.6 2.4q2.3 1.1 4.6 2.3c1.5 0.8 3.1 1.6 4.6 2.4c1.5 0.8 3.1 1.5 4.6 2.3c1.6 0.9 3.1 1.8 4.6 2.7q2.3 1.3 4.6 2.7q2.3 1.3 4.6 2.6c1.6 0.9 3.1 1.8 4.6 2.7c1.6 1 3.1 2 4.7 3q2.3 1.5 4.6 3c1.5 1 3 1.9 4.6 2.9c1.5 1.1 3 2.2 4.6 3.2q2.3 1.6 4.6 3.3c1.5 1.1 3.1 2.2 4.6 3.3q2.3 1.6 4.6 3.3c1.6 1.2 3.1 2.4 4.6 3.6q2.3 1.8 4.6 3.7c1.5 1.2 3.1 2.3 4.6 3.6c1.6 1.3 3.1 2.6 4.6 3.9q2.4 2 4.6 4c1.6 1.3 3.1 2.6 4.7 4c1.5 1.4 3 2.8 4.6 4.2c1.5 1.5 3 2.9 4.5 4.4c1.6 1.5 3.2 2.9 4.7 4.4q2.3 2.3 4.6 4.6c1.5 1.6 3 3.2 4.6 4.8c1.5 1.7 3.1 3.3 4.6 4.9q2.3 2.5 4.6 5.1q2.3 2.6 4.6 5.3c1.5 1.8 3.1 3.5 4.6 5.3c1.6 1.9 3.1 3.8 4.6 5.7q2.3 3 4.6 5.9c1.6 2 3.1 3.9 4.6 5.9c1.6 2.1 3.1 4.3 4.6 6.5c1.6 2.2 3.1 4.3 4.6 6.5c1.6 2.2 3.1 4.6 4.6 6.9q2.4 3.5 4.7 7.1c1.5 2.5 3.1 5 4.6 7.4c1.5 2.7 3.1 5.4 4.6 8c1.5 2.8 3.1 5.4 4.6 8.2c1.6 2.9 3.1 6 4.6 9c1.6 3 3.1 6.1 4.6 9.1c1.6 3.4 3.1 6.8 4.6 10.2c1.6 3.6 3.1 7.1 4.6 10.8c1.6 3.8 3.2 7.7 4.6 11.6c1.6 4.4 3.1 8.8 4.6 13.2q2.5 7.2 4.6 14.5c1.7 5.6 3.2 11.2 4.6 16.9q2.6 10.3 4.7 20.9q2.8 14.7 4.6 29.8c1.8 15.9 2.9 32 2.9 48.4zm-171.2-71.9h-223.4v-0.1l9.2-42.7l4.7-21.4l4.6-21.4l4.6-21.3l4.6-21.4l4.6-21.3l9.2-42.7l4.6-21.4l9.2-42.7l3.1-14.2l-3.1 4.1l-4.6 6.1l-4.6 6.1l-13.8 18.4l-4.6 6.1l-9.2 12.2l-4.6 6.2l-4.7 6.1l-4.6 6.1l-4.6 6.1l-4.6 6.1l-9.2 12.3l-4.6 6.1l-4.6 6.1l-13.8 18.3l-4.6 6.2l-9.3 12.2l-4.6 6.1l-4.6 6.1l-4.6 6.2l-4.6 6.1l-4.6 6.1l-4.6 6.1l-4.6 6.1l-4.6 6.1l-4.6 6.2l-13.9 18.3l-4.5 6.2l-9.3 12.2l-4.6 6.1l-9.2 12.2l-4.6 6.1l-4.6 6.2l-13.8 18.3l-4.6 6.2l-4.6 6.1l-9.3 12.2l-4.6 6.1l-9.2 12.3l-4.6 6.1l-9.2 12.2l-4.6 6.1l-4.6 6.2l-9.2 12.2l-4.6 6.1l-4.6 6.1l-9.3 12.3l-4.6 6.1l-4.6 6.1l-4.6 6.1l-2.2 3h222.1l-3.3 16.8l-4.6 23.1l-4.7 23.2l-4.6 23.1l-4.6 23.1l-4.6 23.2l-4.6 23.1l-4.6 23.1l-4.6 23.2l-4.6 23.1l-4.6 23.1l-4 19.9l0.2-0.2l3.8-5l4.6-6.2l4.6-6.2l4.6-6.1l4.6-6.2l4.6-6.1l4.6-6.2l9.2-12.3l4.7-6.1l4.6-6.2l4.6-6.2l4.6-6.1l4.6-6.2l4.6-6.1l4.6-6.2l4.6-6.1l4.6-6.2l4.6-6.1l4.6-6.2l4.6-6.1l4.7-6.2l4.6-6.2l4.6-6.1l4.6-6.2l4.6-6.1l4.6-6.2l4.6-6.1l4.6-6.2l4.6-6.1l4.6-6.2l4.6-6.1l4.6-6.2l4.6-6.2l4.7-6.1l4.5-6.2l4.6-6.1l4.7-6.2l4.6-6.1l4.6-6.2l4.6-6.1l4.6-6.2l4.6-6.1l4.6-6.2l4.6-6.2l4.6-6.1l4.6-6.2l4.6-6.1l4.6-6.2l4.7-6.1l4.6-6.2l4.6-6.1l4.6-6.2l4.6-6.1l9.2-12.4l4.6-6.1l4.6-6.2l4.6-6.1l4.6-6.2l4.6-6.1l4.6-6.2l4.7-6.1l4.6-6.2l4.6-6.1l4.6-6.2l4.6-6.2z" /><path fill-rule="evenodd" class="s4" d="m1077.5 588c0 19.5-1.2 38.7-3.4 57.6q-1.8 15.6-4.6 30.8q-2.1 11.2-4.6 22.3q-2.1 9.1-4.6 18.1c-1.5 5.3-3 10.7-4.6 15.9c-1.5 4.7-3.1 9.4-4.6 14.1q-2.3 6.4-4.7 12.7q-2.2 6-4.6 11.8q-2.2 5.6-4.6 11q-2.2 5.2-4.6 10.3q-2.2 4.9-4.6 9.7q-2.2 4.7-4.6 9.2q-2.2 4.4-4.6 8.7c-1.5 2.8-3 5.6-4.6 8.3q-2.3 4-4.6 8q-2.3 3.8-4.6 7.6q-2.3 3.7-4.6 7.4q-2.3 3.5-4.6 7q-2.3 3.4-4.6 6.8q-2.3 3.3-4.7 6.6q-2.2 3.2-4.6 6.3q-2.3 3.1-4.6 6.1q-2.3 3-4.6 6q-2.3 2.9-4.6 5.7c-1.5 1.9-3.1 3.8-4.6 5.6q-2.3 2.8-4.6 5.5q-2.3 2.6-4.6 5.2q-2.3 2.6-4.6 5.2q-2.3 2.5-4.6 4.9q-2.3 2.5-4.6 4.9q-2.3 2.4-4.6 4.7q-2.3 2.3-4.7 4.6q-2.2 2.3-4.6 4.5c-1.5 1.5-3 2.9-4.6 4.3q-2.3 2.2-4.6 4.3c-1.5 1.4-3 2.8-4.6 4.2c-1.5 1.3-3 2.7-4.6 4q-2.3 2-4.6 3.9q-2.3 2-4.6 3.9q-2.3 1.9-4.6 3.7q-2.3 1.9-4.6 3.7q-2.3 1.8-4.6 3.6q-2.3 1.7-4.6 3.5q-2.3 1.7-4.6 3.4q-2.3 1.7-4.7 3.3c-1.5 1.1-3 2.2-4.5 3.2q-2.4 1.7-4.6 3.2c-1.6 1.1-3.1 2.1-4.7 3.1q-2.2 1.5-4.6 3q-2.3 1.5-4.6 2.9q-2.3 1.5-4.6 2.9q-2.3 1.4-4.6 2.8q-2.3 1.4-4.6 2.8q-2.3 1.3-4.6 2.6q-2.3 1.3-4.6 2.6q-2.3 1.3-4.6 2.6c-1.5 0.8-3.1 1.6-4.6 2.4q-2.3 1.2-4.6 2.4q-2.3 1.2-4.6 2.4q-2.3 1.1-4.7 2.3q-2.3 1.1-4.6 2.2q-2.2 1.1-4.6 2.1q-2.3 1.1-4.6 2.2q-2.3 1-4.6 2q-2.3 1-4.6 2c-1.5 0.7-3.1 1.3-4.6 1.9q-2.3 0.9-4.6 1.9c-1.6 0.6-3.1 1.2-4.6 1.8q-2.3 0.9-4.6 1.8c-1.6 0.6-3.1 1.2-4.6 1.7q-2.3 0.9-4.6 1.6q-2.3 0.9-4.6 1.7q-2.3 0.8-4.7 1.5c-1.5 0.6-3 1-4.6 1.5c-1.5 0.5-3 1.1-4.6 1.5c-1.5 0.5-3 0.9-4.6 1.4q-2.3 0.7-4.6 1.4q-2.3 0.6-4.6 1.3c-1.5 0.4-3.1 0.8-4.6 1.2q-2.3 0.7-4.6 1.3q-2.3 0.6-4.6 1.1q-2.3 0.6-4.6 1.1q-2.3 0.6-4.6 1.1q-2.3 0.5-4.6 1c-1.6 0.3-3.1 0.7-4.7 1q-2.2 0.5-4.6 0.9q-2.3 0.5-4.5 0.9q-2.4 0.4-4.7 0.8c-1.5 0.3-3 0.6-4.6 0.8q-2.3 0.4-4.6 0.8q-2.3 0.3-4.6 0.7q-2.3 0.3-4.6 0.6c-1.5 0.2-3.1 0.5-4.6 0.7q-2.3 0.3-4.6 0.5q-2.3 0.3-4.6 0.5q-2.3 0.3-4.6 0.5c-1.6 0.2-3.1 0.3-4.6 0.4q-2.3 0.2-4.6 0.4q-2.4 0.2-4.6 0.4c-1.6 0.1-3.1 0.2-4.6 0.3c-1.6 0-3.1 0.2-4.7 0.2c-1.5 0.1-3 0.2-4.6 0.2c-1.5 0.1-3 0.2-4.6 0.2c-1.5 0-3 0.1-4.6 0.1q-2.3 0.1-4.6 0.1q-2.3 0-4.6 0.1q-1.2 0-2.3 0q-1.1 0-2.3 0q-2.3-0.1-4.6-0.1q-2.3 0-4.6-0.1c-1.6 0-3.1-0.1-4.6-0.1c-1.6 0-3.1-0.1-4.6-0.2c-1.6 0-3.1-0.1-4.6-0.2c-1.6 0-3.1-0.2-4.7-0.2c-1.5-0.1-3-0.2-4.6-0.3q-2.2-0.2-4.6-0.4q-2.3-0.2-4.6-0.4c-1.5-0.1-3-0.2-4.6-0.4q-2.3-0.2-4.6-0.5q-2.3-0.2-4.6-0.5q-2.3-0.2-4.6-0.5c-1.6-0.2-3.1-0.5-4.6-0.7q-2.3-0.3-4.6-0.6q-2.3-0.4-4.6-0.7q-2.3-0.4-4.6-0.8c-1.6-0.2-3.1-0.5-4.6-0.8q-2.3-0.4-4.7-0.8q-2.2-0.4-4.5-0.9q-2.4-0.4-4.6-0.9c-1.6-0.3-3.1-0.7-4.7-1q-2.3-0.5-4.6-1q-2.3-0.5-4.6-1.1q-2.3-0.5-4.6-1.1q-2.3-0.5-4.6-1.1q-2.3-0.6-4.6-1.3c-1.5-0.4-3.1-0.8-4.6-1.2q-2.3-0.7-4.6-1.3q-2.3-0.7-4.6-1.4c-1.6-0.5-3.1-0.9-4.6-1.4c-1.6-0.4-3.1-1-4.6-1.5c-1.6-0.5-3.1-0.9-4.6-1.5q-2.4-0.7-4.7-1.5q-2.3-0.8-4.6-1.7q-2.3-0.7-4.6-1.6c-1.5-0.5-3-1.1-4.6-1.7q-2.3-0.9-4.6-1.8c-1.5-0.6-3-1.2-4.6-1.8q-2.3-1-4.6-1.9c-1.5-0.6-3.1-1.2-4.6-1.9q-2.3-1-4.6-2q-2.3-1-4.6-2q-2.3-1.1-4.6-2.2q-2.4-1-4.6-2.1q-2.4-1.1-4.6-2.2q-2.4-1.2-4.7-2.3q-2.3-1.2-4.6-2.4q-2.3-1.2-4.6-2.4c-1.5-0.8-3.1-1.6-4.6-2.4q-2.3-1.3-4.6-2.6q-2.3-1.3-4.6-2.6q-2.3-1.3-4.6-2.6q-2.3-1.4-4.6-2.8q-2.3-1.4-4.6-2.8q-2.3-1.4-4.6-2.9q-2.3-1.4-4.6-2.9q-2.4-1.5-4.6-3c-1.6-1-3.1-2-4.7-3.1q-2.2-1.5-4.6-3.2c-1.5-1-3-2.1-4.5-3.2q-2.4-1.6-4.7-3.3q-2.3-1.7-4.6-3.4q-2.3-1.8-4.6-3.5q-2.3-1.8-4.6-3.6q-2.3-1.8-4.6-3.7q-2.3-1.8-4.6-3.7q-2.3-1.9-4.6-3.9q-2.3-1.9-4.6-3.9c-1.6-1.3-3.1-2.7-4.6-4c-1.6-1.4-3.1-2.8-4.6-4.2q-2.3-2.1-4.6-4.3c-1.6-1.4-3.1-2.8-4.6-4.3q-2.4-2.2-4.6-4.5q-2.4-2.3-4.7-4.6q-2.3-2.3-4.6-4.7q-2.3-2.4-4.6-4.9q-2.3-2.4-4.6-4.9q-2.3-2.6-4.6-5.2q-2.3-2.6-4.6-5.2q-2.3-2.7-4.6-5.5c-1.5-1.8-3.1-3.7-4.6-5.6q-2.3-2.8-4.6-5.7q-2.3-3-4.6-6q-2.3-3-4.6-6.1q-2.4-3.1-4.6-6.3q-2.4-3.3-4.7-6.6c-1.5-2.3-3-4.5-4.6-6.8q-2.3-3.5-4.6-7q-2.3-3.7-4.6-7.4q-2.3-3.8-4.6-7.6q-2.3-4-4.6-8c-1.6-2.7-3.1-5.5-4.6-8.3q-2.4-4.3-4.6-8.7q-2.4-4.6-4.6-9.2q-2.4-4.8-4.6-9.7q-2.4-5.1-4.6-10.3q-2.4-5.4-4.6-11q-2.4-5.8-4.6-11.8c-1.6-4.2-3.2-8.4-4.7-12.7q-2.3-7-4.6-14.1q-2.4-7.9-4.6-15.9q-2.5-9-4.6-18.1q-2.5-11.1-4.6-22.3q-2.8-15.2-4.6-30.8c-2.2-18.9-3.4-38.1-3.4-57.6c0-19.5 1.2-38.7 3.4-57.6q1.8-15.6 4.6-30.8q2.1-11.2 4.6-22.3q2.1-9.1 4.6-18.1q2.2-8 4.6-15.9q2.3-7.1 4.6-14.1c1.5-4.3 3.1-8.5 4.7-12.7q2.2-6 4.6-11.8q2.2-5.6 4.6-11q2.2-5.2 4.6-10.3q2.2-4.9 4.6-9.7q2.2-4.6 4.6-9.2q2.2-4.4 4.6-8.7c1.5-2.8 3-5.6 4.6-8.3q2.3-4 4.6-8q2.3-3.8 4.6-7.6q2.3-3.7 4.6-7.4q2.3-3.5 4.6-7q2.3-3.4 4.6-6.8q2.3-3.3 4.7-6.6q2.2-3.2 4.6-6.3q2.3-3.1 4.6-6.1q2.3-3 4.6-6q2.3-2.9 4.6-5.7c1.5-1.9 3.1-3.8 4.6-5.6q2.3-2.8 4.6-5.5q2.3-2.6 4.6-5.2q2.3-2.6 4.6-5.2q2.3-2.5 4.6-4.9q2.3-2.5 4.6-4.9q2.3-2.4 4.6-4.7q2.3-2.3 4.7-4.6q2.2-2.3 4.6-4.5c1.5-1.5 3-2.9 4.6-4.3q2.3-2.2 4.6-4.3c1.5-1.4 3-2.8 4.6-4.2c1.5-1.3 3-2.7 4.6-4q2.3-2 4.6-3.9q2.3-2 4.6-3.9q2.3-1.9 4.6-3.7q2.3-1.9 4.6-3.7q2.3-1.8 4.6-3.6q2.3-1.7 4.6-3.5c1.6-1.2 3.1-2.2 4.6-3.4q2.3-1.7 4.7-3.3c1.5-1.1 3-2.2 4.5-3.2q2.4-1.7 4.6-3.2c1.6-1.1 3.1-2.1 4.7-3.1q2.2-1.5 4.6-3q2.3-1.5 4.6-2.9q2.3-1.5 4.6-2.9q2.3-1.4 4.6-2.8q2.3-1.4 4.6-2.8q2.3-1.3 4.6-2.6q2.3-1.3 4.6-2.6q2.3-1.3 4.6-2.6c1.5-0.8 3.1-1.6 4.6-2.4q2.3-1.2 4.6-2.4q2.3-1.2 4.6-2.3q2.3-1.2 4.7-2.3q2.2-1.2 4.6-2.3q2.2-1.1 4.6-2.1q2.3-1.1 4.6-2.1q2.3-1.1 4.6-2.1q2.3-1 4.6-2q2.3-0.9 4.6-1.9q2.3-0.9 4.6-1.9c1.6-0.6 3.1-1.2 4.6-1.8q2.3-0.9 4.6-1.8c1.6-0.6 3.1-1.2 4.6-1.7q2.3-0.9 4.6-1.6q2.3-0.9 4.6-1.7q2.3-0.8 4.7-1.5c1.5-0.6 3-1 4.6-1.5c1.5-0.5 3-1.1 4.6-1.5c1.5-0.5 3-0.9 4.6-1.4q2.3-0.7 4.6-1.4q2.3-0.6 4.6-1.3c1.5-0.4 3.1-0.8 4.6-1.2q2.3-0.7 4.6-1.3q2.3-0.6 4.6-1.1q2.3-0.6 4.6-1.1q2.3-0.6 4.6-1.1q2.3-0.5 4.6-1c1.6-0.3 3.1-0.7 4.7-1q2.2-0.5 4.6-0.9q2.3-0.5 4.5-0.9q2.4-0.4 4.7-0.9c1.5-0.2 3-0.5 4.6-0.7q2.3-0.4 4.6-0.8q2.3-0.3 4.6-0.7q2.3-0.3 4.6-0.6c1.5-0.2 3-0.5 4.6-0.7c1.5-0.2 3.1-0.3 4.6-0.5q2.3-0.3 4.6-0.5q2.3-0.3 4.6-0.5c1.6-0.2 3.1-0.3 4.6-0.4q2.3-0.2 4.6-0.4q2.4-0.2 4.6-0.4c1.6-0.1 3.1-0.2 4.6-0.3c1.6 0 3.1-0.2 4.7-0.2c1.5-0.1 3-0.2 4.6-0.2q2.3-0.1 4.6-0.2c1.5 0 3-0.1 4.6-0.1q2.3-0.1 4.6-0.1q2.3 0 4.6-0.1q1.2 0 2.3 0q1.1 0 2.3 0q2.3 0.1 4.6 0.1q2.3 0 4.6 0.1c1.6 0 3.1 0.1 4.6 0.1q2.3 0.1 4.6 0.2c1.6 0 3.1 0.1 4.6 0.2c1.6 0 3.1 0.2 4.7 0.2c1.5 0.1 3 0.2 4.6 0.3q2.2 0.2 4.6 0.4q2.3 0.2 4.6 0.4c1.5 0.1 3 0.2 4.6 0.4q2.3 0.2 4.6 0.5q2.3 0.2 4.6 0.5c1.5 0.2 3.1 0.3 4.6 0.5c1.5 0.2 3.1 0.5 4.6 0.7q2.3 0.3 4.6 0.6q2.3 0.4 4.6 0.7q2.3 0.4 4.6 0.8c1.6 0.2 3.1 0.5 4.6 0.7q2.3 0.5 4.7 0.9q2.2 0.4 4.5 0.9q2.4 0.4 4.6 0.9c1.6 0.3 3.1 0.7 4.7 1q2.3 0.5 4.6 1q2.3 0.5 4.6 1.1q2.3 0.5 4.6 1.1q2.3 0.5 4.6 1.1q2.3 0.6 4.6 1.3c1.5 0.4 3.1 0.8 4.6 1.2q2.3 0.7 4.6 1.3q2.3 0.7 4.6 1.4c1.6 0.5 3.1 0.9 4.6 1.4c1.6 0.4 3.1 1 4.6 1.5c1.6 0.5 3.1 0.9 4.6 1.5q2.4 0.7 4.7 1.5q2.3 0.8 4.6 1.7q2.3 0.7 4.6 1.6c1.5 0.5 3 1.1 4.6 1.7q2.3 0.9 4.6 1.8c1.5 0.6 3 1.2 4.6 1.8q2.3 1 4.6 1.9q2.3 1 4.6 1.9q2.3 1 4.6 2q2.3 1 4.6 2.1q2.3 1 4.6 2.1q2.4 1 4.6 2.1q2.3 1.1 4.6 2.3q2.4 1.1 4.7 2.3q2.3 1.1 4.6 2.3q2.3 1.2 4.6 2.4c1.5 0.8 3.1 1.6 4.6 2.4q2.3 1.3 4.6 2.6q2.3 1.3 4.6 2.6q2.3 1.3 4.6 2.6q2.3 1.4 4.6 2.8q2.3 1.4 4.6 2.8q2.3 1.4 4.6 2.9q2.3 1.4 4.6 2.9q2.4 1.5 4.6 3c1.6 1 3.1 2 4.7 3.1q2.2 1.5 4.6 3.2c1.5 1 3 2.1 4.5 3.2q2.4 1.6 4.7 3.3q2.3 1.7 4.6 3.4q2.3 1.8 4.6 3.5q2.3 1.8 4.6 3.6q2.3 1.8 4.6 3.7q2.3 1.8 4.6 3.7q2.3 1.9 4.6 3.9q2.3 1.9 4.6 3.9c1.6 1.3 3.1 2.7 4.6 4c1.6 1.4 3.1 2.8 4.6 4.2q2.3 2.1 4.6 4.3c1.6 1.4 3.1 2.8 4.6 4.3q2.4 2.2 4.6 4.5q2.4 2.3 4.7 4.6q2.3 2.3 4.6 4.7q2.3 2.4 4.6 4.9q2.3 2.4 4.6 4.9q2.3 2.6 4.6 5.2q2.3 2.6 4.6 5.2q2.3 2.7 4.6 5.5c1.5 1.8 3.1 3.7 4.6 5.6q2.3 2.8 4.6 5.7q2.3 3 4.6 6q2.3 3 4.6 6.1q2.4 3.1 4.6 6.3q2.4 3.3 4.7 6.6c1.5 2.3 3 4.5 4.6 6.8q2.3 3.5 4.6 7q2.3 3.7 4.6 7.4q2.3 3.8 4.6 7.6q2.3 4 4.6 8c1.6 2.7 3.1 5.5 4.6 8.3q2.4 4.3 4.6 8.7q2.4 4.5 4.6 9.2q2.4 4.8 4.6 9.7q2.4 5.1 4.6 10.3q2.4 5.4 4.6 11q2.4 5.8 4.6 11.8q2.4 6.3 4.7 12.7c1.5 4.7 3.1 9.4 4.6 14.1c1.6 5.2 3.1 10.6 4.6 15.9q2.5 9 4.6 18.1q2.5 11.1 4.6 22.3q2.8 15.2 4.6 30.8c2.2 18.9 3.4 38.1 3.4 57.6zm-37.8 0q-0.1-23.8-2.5-46.9c-1.1-10.8-2.7-21.5-4.6-32q-2-11.4-4.6-22.7q-2.1-9.2-4.6-18.2c-1.5-5.4-3-10.7-4.6-15.9c-1.4-4.6-3-9.1-4.6-13.6q-2.2-6.3-4.6-12.5c-1.5-3.9-3-7.8-4.6-11.7c-1.5-3.5-3.1-6.9-4.6-10.4c-1.6-3.4-3-6.8-4.6-10.2c-1.5-3.1-3.1-6.1-4.6-9.2c-1.6-3-3.1-6-4.7-8.9q-2.2-4.2-4.6-8.3q-2.2-4.1-4.6-8.1c-1.5-2.6-3-5.1-4.6-7.7c-1.5-2.4-3-4.8-4.6-7.2c-1.5-2.4-3-4.8-4.6-7.2c-1.5-2.2-3.1-4.4-4.6-6.6q-2.3-3.3-4.6-6.5c-1.6-2.1-3-4.3-4.6-6.4c-1.5-2-3.1-3.9-4.6-5.9c-1.5-2-3.1-3.9-4.6-5.8c-1.6-2-3.1-3.9-4.6-5.8c-1.5-1.9-3.1-3.6-4.7-5.4q-2.2-2.6-4.6-5.3c-1.5-1.8-3-3.6-4.6-5.3c-1.4-1.6-3.1-3.2-4.6-4.8c-1.5-1.6-3-3.2-4.6-4.8c-1.5-1.7-3-3.3-4.6-4.9c-1.5-1.5-3.1-3-4.6-4.5c-1.5-1.5-3.1-2.9-4.6-4.4c-1.5-1.4-3.1-2.9-4.6-4.3q-2.3-2.2-4.6-4.3c-1.5-1.4-3.1-2.6-4.6-4q-2.3-2-4.6-4c-1.6-1.3-3.1-2.7-4.6-4c-1.5-1.2-3.1-2.4-4.7-3.7c-1.5-1.2-3-2.4-4.5-3.6c-1.6-1.2-3.1-2.4-4.6-3.6c-1.6-1.2-3.1-2.4-4.7-3.6c-1.5-1.1-3-2.2-4.6-3.3q-2.3-1.6-4.6-3.2c-1.5-1.1-3-2.3-4.6-3.3q-2.3-1.6-4.6-3.2c-1.5-1-3.1-2-4.6-3q-2.3-1.5-4.6-2.9c-1.5-1-3.1-2-4.6-3q-2.3-1.5-4.6-2.9c-1.5-0.9-3.1-1.7-4.6-2.6c-1.6-0.9-3.1-1.8-4.6-2.7c-1.6-0.8-3.1-1.8-4.6-2.6c-1.6-0.9-3.1-1.8-4.7-2.6c-1.5-0.8-3-1.6-4.6-2.4q-2.3-1.2-4.6-2.3c-1.5-0.8-3-1.6-4.6-2.4c-1.5-0.8-3-1.6-4.6-2.4c-1.5-0.7-3.1-1.3-4.6-2.1c-1.5-0.7-3.1-1.3-4.6-2.1q-2.3-1-4.6-2c-1.6-0.7-3.1-1.5-4.6-2.1q-2.3-1-4.6-1.9c-1.5-0.7-3.1-1.3-4.6-1.9q-2.3-0.9-4.6-1.8c-1.6-0.6-3.1-1.2-4.6-1.8c-1.6-0.6-3.1-1.2-4.7-1.8c-1.5-0.5-3-1-4.6-1.5q-2.3-0.8-4.6-1.6q-2.3-0.8-4.6-1.6c-1.5-0.5-3-1-4.6-1.5c-1.5-0.5-3.1-1-4.6-1.4c-1.5-0.5-3.1-0.9-4.6-1.3c-1.5-0.5-3.1-0.9-4.6-1.4c-1.5-0.4-3.1-0.9-4.6-1.3c-1.6-0.4-3.1-0.9-4.6-1.3c-1.5-0.4-3.1-0.7-4.6-1.1q-2.3-0.5-4.6-1q-2.3-0.6-4.7-1.1c-1.5-0.3-3-0.7-4.6-1c-1.5-0.4-3-0.8-4.5-1.1c-1.6-0.3-3.1-0.5-4.7-0.8q-2.3-0.4-4.6-0.8q-2.3-0.4-4.6-0.8c-1.5-0.3-3-0.6-4.6-0.9q-2.3-0.3-4.6-0.7c-1.5-0.2-3.1-0.4-4.6-0.6q-2.3-0.3-4.6-0.6q-2.3-0.3-4.6-0.6c-1.6-0.1-3.1-0.4-4.6-0.5q-2.3-0.3-4.6-0.5c-1.5-0.1-3.1-0.2-4.6-0.4q-2.3-0.1-4.6-0.3q-2.4-0.2-4.6-0.4c-1.6 0-3.1-0.2-4.7-0.3q-2.3-0.1-4.6-0.2c-1.5-0.1-3.1-0.1-4.6-0.2q-2.3 0-4.6-0.1q-2.3 0-4.6-0.1c-1.5 0-3.1-0.1-4.6-0.1c-0.8 0-1.5-0.1-2.3-0.1c-0.8 0-1.5 0.1-2.3 0.1c-1.5 0-3.1 0.1-4.6 0.1q-2.3 0.1-4.6 0.1q-2.3 0.1-4.6 0.1c-1.5 0.1-3.1 0.1-4.6 0.2q-2.3 0.1-4.6 0.2c-1.6 0.1-3.1 0.3-4.7 0.3q-2.2 0.2-4.6 0.4q-2.3 0.2-4.6 0.3c-1.5 0.2-3.1 0.3-4.6 0.4q-2.3 0.2-4.6 0.5c-1.5 0.1-3 0.4-4.6 0.5q-2.3 0.3-4.6 0.6q-2.3 0.3-4.6 0.6c-1.5 0.2-3.1 0.4-4.6 0.6q-2.3 0.4-4.6 0.7c-1.6 0.3-3.1 0.6-4.6 0.9q-2.3 0.4-4.6 0.8q-2.3 0.4-4.6 0.8c-1.6 0.3-3.1 0.5-4.7 0.8c-1.5 0.3-3 0.7-4.5 1.1c-1.6 0.3-3.1 0.7-4.6 1q-2.4 0.5-4.7 1.1q-2.3 0.5-4.6 1c-1.5 0.4-3.1 0.7-4.6 1.1c-1.5 0.4-3 0.9-4.6 1.3c-1.5 0.4-3.1 0.9-4.6 1.3c-1.5 0.5-3.1 0.9-4.6 1.4c-1.5 0.4-3.1 0.8-4.6 1.3c-1.5 0.4-3.1 0.9-4.6 1.4c-1.6 0.5-3.1 1-4.6 1.5l-4.6 1.6q-2.3 0.8-4.6 1.6c-1.6 0.5-3.1 1-4.6 1.5c-1.6 0.6-3.1 1.2-4.7 1.8c-1.5 0.6-3 1.2-4.6 1.8q-2.3 0.9-4.6 1.8c-1.5 0.6-3.1 1.2-4.6 1.9q-2.3 0.9-4.6 1.9c-1.5 0.6-3 1.4-4.6 2.1q-2.3 1-4.6 2c-1.5 0.8-3.1 1.4-4.6 2.1c-1.5 0.8-3.1 1.4-4.6 2.1c-1.6 0.8-3.1 1.6-4.6 2.4c-1.6 0.8-3.1 1.6-4.6 2.4q-2.3 1.1-4.6 2.3c-1.6 0.8-3.1 1.6-4.6 2.4c-1.6 0.8-3.1 1.7-4.7 2.6c-1.5 0.8-3 1.8-4.6 2.6c-1.5 0.9-3 1.8-4.6 2.7c-1.5 0.9-3.1 1.7-4.6 2.6q-2.3 1.4-4.6 2.9c-1.5 1-3.1 2-4.6 3q-2.3 1.4-4.6 2.9c-1.5 1-3.1 2-4.6 3q-2.3 1.6-4.6 3.2q-2.3 1.6-4.6 3.3q-2.3 1.6-4.6 3.2c-1.6 1.1-3.1 2.2-4.6 3.3c-1.6 1.2-3.1 2.4-4.7 3.6c-1.5 1.2-3 2.4-4.6 3.6c-1.5 1.2-3 2.4-4.5 3.6c-1.6 1.3-3.2 2.5-4.7 3.7c-1.5 1.3-3 2.7-4.6 4q-2.3 2-4.6 4c-1.5 1.4-3.1 2.6-4.6 4q-2.3 2.1-4.6 4.3c-1.5 1.4-3.1 2.9-4.6 4.3c-1.5 1.5-3.1 2.9-4.6 4.4c-1.5 1.5-3.1 3-4.6 4.5c-1.6 1.6-3.1 3.2-4.6 4.9c-1.6 1.6-3.1 3.2-4.6 4.8c-1.5 1.6-3.2 3.2-4.6 4.8c-1.6 1.7-3.1 3.5-4.6 5.3q-2.4 2.7-4.6 5.3c-1.6 1.8-3.2 3.5-4.7 5.4c-1.5 1.9-3 3.8-4.6 5.8c-1.5 1.9-3.1 3.8-4.6 5.8c-1.5 2-3.1 3.9-4.6 5.9c-1.6 2.1-3 4.3-4.6 6.4q-2.3 3.2-4.6 6.5c-1.5 2.2-3.1 4.4-4.6 6.6c-1.6 2.4-3.1 4.8-4.6 7.2c-1.6 2.4-3.1 4.8-4.6 7.2c-1.6 2.6-3.1 5.1-4.6 7.7q-2.4 4-4.6 8q-2.4 4.2-4.6 8.4c-1.6 2.9-3.1 5.9-4.7 8.9c-1.5 3.1-3.1 6.1-4.6 9.2c-1.6 3.4-3 6.8-4.6 10.2c-1.5 3.5-3.1 6.9-4.6 10.4c-1.6 3.9-3.1 7.8-4.6 11.7q-2.4 6.2-4.6 12.5c-1.6 4.5-3.2 9-4.6 13.6c-1.6 5.2-3.1 10.5-4.6 15.9q-2.5 9-4.6 18.2q-2.6 11.3-4.6 22.7c-1.9 10.5-3.5 21.2-4.6 32c-1.6 15.4-2.5 31.1-2.5 46.9c0 15.8 0.9 31.5 2.5 46.9c1.1 10.8 2.7 21.5 4.6 32q2 11.4 4.6 22.7q2.1 9.2 4.6 18.2c1.5 5.4 3 10.7 4.6 15.9c1.4 4.6 3 9.1 4.6 13.6q2.2 6.3 4.6 12.5c1.5 3.9 3 7.8 4.6 11.7c1.5 3.5 3.1 6.9 4.6 10.4c1.6 3.4 3 6.8 4.6 10.2c1.5 3.1 3.1 6.1 4.6 9.2c1.6 3 3.1 6 4.7 8.9q2.2 4.2 4.6 8.4c1.5 2.6 3 5.3 4.6 8c1.5 2.6 3 5.1 4.6 7.7c1.5 2.4 3 4.8 4.6 7.2c1.5 2.4 3 4.8 4.6 7.2c1.5 2.2 3.1 4.4 4.6 6.6q2.3 3.3 4.6 6.5c1.6 2.1 3 4.3 4.6 6.4c1.5 2 3.1 3.9 4.6 5.9c1.5 1.9 3.1 3.9 4.6 5.8c1.6 2 3.1 3.9 4.6 5.8c1.5 1.9 3.1 3.6 4.7 5.4q2.2 2.6 4.6 5.3c1.5 1.8 3 3.6 4.6 5.3c1.4 1.6 3.1 3.2 4.6 4.8c1.5 1.6 3 3.2 4.6 4.8c1.5 1.7 3 3.3 4.6 4.9c1.5 1.5 3.1 3 4.6 4.5c1.5 1.5 3.1 2.9 4.6 4.4c1.5 1.4 3.1 2.9 4.6 4.3q2.3 2.2 4.6 4.3c1.5 1.4 3.1 2.6 4.6 4q2.3 2 4.6 4c1.6 1.3 3.1 2.7 4.6 4c1.5 1.2 3.1 2.4 4.7 3.7c1.5 1.2 3 2.4 4.5 3.6c1.6 1.2 3.1 2.4 4.6 3.6c1.6 1.2 3.1 2.4 4.7 3.6c1.5 1.1 3 2.2 4.6 3.3q2.3 1.6 4.6 3.2c1.5 1.1 3 2.3 4.6 3.3q2.3 1.6 4.6 3.2c1.5 1 3.1 2 4.6 3q2.3 1.5 4.6 2.9c1.5 1 3.1 2 4.6 3q2.3 1.5 4.6 2.9c1.5 0.9 3.1 1.7 4.6 2.6c1.6 0.9 3.1 1.8 4.6 2.7c1.6 0.8 3.1 1.8 4.6 2.6c1.6 0.9 3.1 1.8 4.7 2.6c1.5 0.8 3 1.6 4.6 2.4c1.5 0.8 3 1.5 4.6 2.3c1.5 0.8 3 1.6 4.6 2.4c1.5 0.8 3 1.6 4.6 2.4c1.5 0.7 3.1 1.3 4.6 2.1c1.5 0.7 3.1 1.3 4.6 2.1q2.3 1 4.6 2c1.6 0.7 3.1 1.5 4.6 2.1q2.3 1 4.6 1.9c1.5 0.7 3.1 1.3 4.6 1.9q2.3 0.9 4.6 1.8c1.6 0.6 3.1 1.2 4.6 1.8c1.6 0.6 3.1 1.2 4.7 1.8c1.5 0.5 3 1 4.6 1.5q2.3 0.8 4.6 1.6q2.3 0.8 4.6 1.6c1.5 0.5 3 1 4.6 1.5c1.5 0.5 3.1 1 4.6 1.4c1.5 0.5 3.1 0.9 4.6 1.3c1.5 0.5 3.1 0.9 4.6 1.4c1.5 0.4 3.1 0.9 4.6 1.3c1.6 0.4 3.1 0.9 4.6 1.3c1.5 0.4 3.1 0.7 4.6 1.1q2.3 0.5 4.6 1q2.3 0.6 4.7 1.1c1.5 0.3 3 0.7 4.6 1c1.5 0.4 3 0.8 4.5 1.1c1.6 0.3 3.1 0.5 4.7 0.8q2.3 0.4 4.6 0.8q2.3 0.4 4.6 0.8c1.5 0.3 3 0.6 4.6 0.9q2.3 0.3 4.6 0.7c1.5 0.2 3.1 0.4 4.6 0.6q2.3 0.3 4.6 0.6q2.3 0.3 4.6 0.6c1.6 0.1 3.1 0.4 4.6 0.5q2.3 0.3 4.6 0.5c1.5 0.1 3.1 0.2 4.6 0.4q2.3 0.1 4.6 0.3q2.4 0.2 4.6 0.4c1.6 0 3.1 0.2 4.7 0.3q2.3 0.1 4.6 0.2c1.5 0.1 3.1 0.1 4.6 0.2q2.3 0 4.6 0.1q2.3 0 4.6 0.1c1.5 0 3.1 0.1 4.6 0.1c0.8 0 1.5 0.1 2.3 0.1c0.8 0 1.5-0.1 2.3-0.1c1.5 0 3.1-0.1 4.6-0.1q2.3-0.1 4.6-0.1q2.3-0.1 4.6-0.1c1.5-0.1 3.1-0.1 4.6-0.2q2.3-0.1 4.6-0.2c1.6-0.1 3.1-0.3 4.7-0.3q2.2-0.2 4.6-0.4q2.3-0.2 4.6-0.3c1.5-0.2 3.1-0.3 4.6-0.4q2.3-0.2 4.6-0.5c1.5-0.1 3-0.4 4.6-0.5q2.3-0.3 4.6-0.6q2.3-0.3 4.6-0.6c1.5-0.2 3.1-0.4 4.6-0.6q2.3-0.4 4.6-0.7c1.6-0.3 3.1-0.6 4.6-0.9q2.3-0.4 4.6-0.8q2.3-0.4 4.6-0.8c1.6-0.3 3.1-0.5 4.7-0.8c1.5-0.3 3-0.7 4.5-1.1c1.6-0.3 3.1-0.7 4.6-1q2.4-0.5 4.7-1.1q2.3-0.5 4.6-1c1.5-0.4 3.1-0.7 4.6-1.1c1.5-0.4 3-0.9 4.6-1.3c1.5-0.4 3.1-0.9 4.6-1.3c1.5-0.5 3.1-0.9 4.6-1.4c1.5-0.4 3.1-0.8 4.6-1.3c1.5-0.4 3.1-0.9 4.6-1.4c1.6-0.5 3.1-1 4.6-1.5q2.3-0.8 4.6-1.6q2.3-0.8 4.6-1.6c1.6-0.5 3.1-1 4.6-1.5c1.6-0.6 3.1-1.2 4.7-1.8c1.5-0.6 3-1.2 4.6-1.8q2.3-0.9 4.6-1.8c1.5-0.6 3.1-1.2 4.6-1.9q2.3-0.9 4.6-1.9c1.5-0.6 3-1.4 4.6-2.1q2.3-1 4.6-2c1.5-0.8 3.1-1.4 4.6-2.1c1.5-0.8 3.1-1.4 4.6-2.1c1.6-0.8 3.1-1.6 4.6-2.4c1.6-0.8 3.1-1.6 4.6-2.4c1.6-0.8 3.1-1.5 4.6-2.3c1.6-0.8 3.1-1.6 4.6-2.4c1.6-0.8 3.1-1.7 4.7-2.6c1.5-0.8 3-1.8 4.6-2.6c1.5-0.9 3-1.8 4.6-2.7c1.5-0.9 3.1-1.7 4.6-2.6q2.3-1.4 4.6-2.9c1.5-1 3.1-2 4.6-3q2.3-1.4 4.6-2.9c1.5-1 3.1-2 4.6-3q2.3-1.6 4.6-3.2c1.6-1 3.1-2.2 4.6-3.3q2.3-1.6 4.6-3.2c1.6-1.1 3.1-2.2 4.6-3.3c1.6-1.2 3.1-2.4 4.7-3.6c1.5-1.2 3-2.4 4.6-3.6c1.5-1.2 3-2.4 4.5-3.6c1.6-1.3 3.2-2.5 4.7-3.7c1.5-1.3 3-2.7 4.6-4q2.3-2 4.6-4c1.5-1.4 3.1-2.6 4.6-4q2.3-2.1 4.6-4.3c1.5-1.4 3.1-2.9 4.6-4.3c1.5-1.5 3.1-2.9 4.6-4.4c1.5-1.5 3.1-3 4.6-4.5c1.6-1.6 3.1-3.2 4.6-4.9c1.6-1.6 3.1-3.2 4.6-4.8c1.5-1.6 3.2-3.2 4.6-4.8c1.6-1.8 3.1-3.5 4.6-5.3q2.4-2.7 4.6-5.3c1.6-1.8 3.2-3.5 4.7-5.4c1.5-1.9 3-3.8 4.6-5.8c1.5-1.9 3.1-3.9 4.6-5.8c1.5-2 3.1-3.9 4.6-5.9c1.6-2.1 3-4.3 4.6-6.4q2.3-3.2 4.6-6.5c1.5-2.2 3.1-4.4 4.6-6.6c1.6-2.4 3.1-4.8 4.6-7.2c1.6-2.4 3.1-4.8 4.6-7.2c1.6-2.6 3.1-5.1 4.6-7.7q2.4-4 4.6-8.1q2.4-4.1 4.6-8.3c1.6-2.9 3.1-5.9 4.7-8.9c1.5-3.1 3.1-6.1 4.6-9.2c1.6-3.4 3-6.8 4.6-10.2c1.5-3.5 3.1-6.9 4.6-10.4c1.6-3.9 3.1-7.8 4.6-11.7q2.4-6.2 4.6-12.5c1.6-4.5 3.2-9 4.6-13.6c1.6-5.2 3.1-10.5 4.6-15.9q2.5-9 4.6-18.2q2.6-11.3 4.6-22.7c1.9-10.5 3.5-21.2 4.6-32q2.4-23.1 2.5-46.9z" /><path fill-rule="evenodd" class="s5" d="m1116.3 588q0 13.7-0.8 27.3q-1.2 24-4.6 47.4q-1.9 13.7-4.6 27.3c-1.3 7.1-2.9 14.1-4.6 21.1q-2.1 9-4.6 17.9q-2.2 7.9-4.6 15.7c-1.5 4.8-3 9.4-4.6 14.1q-2.2 6.5-4.6 12.9q-2.2 6-4.6 11.9q-2.3 5.6-4.6 11.2q-2.3 5.3-4.6 10.5q-2.3 4.9-4.6 9.8q-2.3 4.7-4.6 9.4q-2.3 4.5-4.6 8.9q-2.3 4.3-4.6 8.6q-2.3 4.1-4.7 8.2q-2.2 4-4.6 7.8q-2.2 3.8-4.6 7.6q-2.3 3.7-4.6 7.4c-1.5 2.3-3 4.6-4.6 7c-1.5 2.2-3 4.5-4.6 6.8c-1.5 2.2-3 4.4-4.6 6.6c-1.5 2.1-3.1 4.2-4.6 6.3q-2.3 3.1-4.6 6.2q-2.3 3-4.6 6c-1.5 2-3.1 3.9-4.6 5.9q-2.3 2.8-4.6 5.7q-2.3 2.7-4.6 5.4q-2.3 2.8-4.7 5.4q-2.2 2.7-4.6 5.2q-2.3 2.6-4.6 5.1q-2.3 2.5-4.6 5q-2.3 2.4-4.6 4.8q-2.3 2.4-4.6 4.7q-2.3 2.4-4.6 4.7q-2.3 2.2-4.6 4.5c-1.5 1.4-3.1 2.9-4.6 4.3q-2.3 2.2-4.6 4.3q-2.3 2.1-4.6 4.2c-1.6 1.4-3.1 2.7-4.6 4.1q-2.3 2-4.7 4q-2.2 1.9-4.6 3.9q-2.2 1.9-4.6 3.8q-2.3 1.9-4.6 3.7q-2.3 1.9-4.6 3.7c-1.5 1.2-3 2.3-4.6 3.5c-1.5 1.2-3 2.4-4.6 3.6q-2.3 1.7-4.6 3.3q-2.3 1.7-4.6 3.4q-2.3 1.6-4.6 3.2q-2.3 1.6-4.6 3.2q-2.3 1.6-4.6 3.1q-2.3 1.5-4.6 3q-2.3 1.5-4.7 3c-1.5 1-3 2-4.5 2.9q-2.4 1.5-4.6 2.9c-1.6 0.9-3.1 1.8-4.7 2.7q-2.3 1.4-4.6 2.8q-2.3 1.3-4.6 2.6q-2.3 1.3-4.6 2.6q-2.3 1.3-4.6 2.6q-2.3 1.2-4.6 2.4q-2.3 1.2-4.6 2.4q-2.3 1.2-4.6 2.4q-2.3 1.1-4.6 2.2q-2.3 1.2-4.6 2.3q-2.3 1.1-4.6 2.2q-2.4 1.1-4.6 2.1q-2.3 1.1-4.7 2.1q-2.3 1-4.6 2q-2.2 1-4.6 2c-1.5 0.7-3.1 1.3-4.6 1.9q-2.3 1-4.6 1.9q-2.3 0.9-4.6 1.8q-2.3 0.9-4.6 1.8q-2.3 0.9-4.6 1.7q-2.3 0.9-4.6 1.7q-2.3 0.8-4.6 1.6c-1.5 0.5-3.1 1.1-4.6 1.6q-2.3 0.8-4.6 1.5q-2.3 0.8-4.6 1.5q-2.3 0.7-4.7 1.4q-2.2 0.7-4.6 1.4q-2.3 0.7-4.6 1.4c-1.5 0.4-3 0.8-4.6 1.2q-2.3 0.7-4.6 1.3q-2.3 0.6-4.6 1.2q-2.3 0.6-4.6 1.1q-2.3 0.6-4.6 1.2q-2.3 0.5-4.6 1.1q-2.3 0.5-4.6 1q-2.3 0.5-4.6 1q-2.3 0.4-4.6 0.9q-2.3 0.5-4.7 0.9c-1.5 0.3-3 0.6-4.6 0.9c-1.5 0.3-3 0.5-4.5 0.8q-2.4 0.4-4.7 0.7q-2.3 0.4-4.6 0.8q-2.3 0.3-4.6 0.6q-2.3 0.4-4.6 0.7c-1.5 0.2-3 0.5-4.6 0.6c-1.5 0.2-3.1 0.4-4.6 0.6q-2.3 0.3-4.6 0.5q-2.3 0.2-4.6 0.5q-2.3 0.2-4.6 0.4c-1.6 0.1-3.1 0.3-4.6 0.4q-2.3 0.2-4.6 0.4c-1.6 0.1-3.1 0.2-4.6 0.3q-2.4 0.2-4.6 0.3q-2.4 0.1-4.7 0.2q-2.3 0.1-4.6 0.2q-2.3 0.1-4.6 0.2q-2.3 0-4.6 0.1q-2.3 0-4.6 0.1q-2.3 0-4.6 0q-1.2 0-2.3 0.1q-1.1-0.1-2.3-0.1q-2.3 0-4.6 0q-2.3-0.1-4.6-0.1q-2.3-0.1-4.6-0.1q-2.3-0.1-4.6-0.2q-2.3-0.1-4.6-0.2q-2.3-0.1-4.7-0.2q-2.2-0.1-4.6-0.3c-1.5-0.1-3-0.2-4.6-0.3q-2.3-0.2-4.6-0.4c-1.5-0.1-3-0.3-4.6-0.4q-2.3-0.2-4.6-0.4q-2.3-0.3-4.6-0.5q-2.3-0.2-4.6-0.5c-1.5-0.2-3.1-0.4-4.6-0.6c-1.6-0.1-3.1-0.4-4.6-0.6q-2.3-0.3-4.6-0.7q-2.3-0.3-4.6-0.6q-2.3-0.4-4.6-0.8q-2.3-0.3-4.7-0.7c-1.5-0.3-3-0.5-4.5-0.8c-1.6-0.3-3.1-0.6-4.6-0.9q-2.4-0.4-4.7-0.9c-1.5-0.3-3-0.6-4.6-0.9q-2.3-0.5-4.6-1q-2.3-0.5-4.6-1q-2.3-0.6-4.6-1.1q-2.3-0.6-4.6-1.2q-2.3-0.5-4.6-1.1q-2.3-0.6-4.6-1.2q-2.3-0.6-4.6-1.3c-1.6-0.4-3.1-0.8-4.6-1.2q-2.3-0.7-4.6-1.4q-2.4-0.7-4.6-1.4q-2.4-0.7-4.7-1.4q-2.3-0.7-4.6-1.5q-2.3-0.7-4.6-1.5c-1.5-0.5-3.1-1.1-4.6-1.6q-2.3-0.8-4.6-1.6c-1.5-0.6-3.1-1.1-4.6-1.7q-2.3-0.8-4.6-1.7q-2.3-0.9-4.6-1.8q-2.3-0.9-4.6-1.8q-2.3-0.9-4.6-1.9c-1.5-0.6-3.1-1.2-4.6-1.9q-2.4-0.9-4.6-2q-2.3-1-4.6-2q-2.4-1-4.7-2.1q-2.2-1-4.6-2.1q-2.3-1.1-4.6-2.2q-2.3-1.1-4.6-2.3q-2.3-1.1-4.6-2.2q-2.3-1.2-4.6-2.4q-2.3-1.2-4.6-2.4q-2.3-1.2-4.6-2.4q-2.3-1.3-4.6-2.6q-2.3-1.3-4.6-2.6q-2.3-1.3-4.6-2.6q-2.3-1.4-4.6-2.8c-1.6-0.9-3.1-1.8-4.7-2.7q-2.2-1.4-4.6-2.9c-1.5-0.9-3-1.9-4.5-2.9q-2.4-1.5-4.7-3q-2.3-1.5-4.6-3q-2.3-1.5-4.6-3.1q-2.3-1.6-4.6-3.2q-2.3-1.6-4.6-3.2q-2.3-1.7-4.6-3.4q-2.3-1.6-4.6-3.3c-1.6-1.2-3.1-2.4-4.6-3.6c-1.6-1.2-3.1-2.3-4.6-3.5q-2.3-1.8-4.6-3.7q-2.3-1.8-4.6-3.7q-2.4-1.9-4.6-3.8q-2.4-2-4.6-3.9q-2.4-2-4.7-4q-2.3-2.1-4.6-4.1q-2.3-2.1-4.6-4.2q-2.3-2.1-4.6-4.3c-1.5-1.4-3.1-2.9-4.6-4.3q-2.3-2.3-4.6-4.5q-2.3-2.3-4.6-4.7q-2.3-2.3-4.6-4.7q-2.3-2.4-4.6-4.8q-2.3-2.5-4.6-5q-2.3-2.5-4.6-5.1q-2.4-2.6-4.6-5.2q-2.4-2.6-4.7-5.4q-2.3-2.7-4.6-5.4q-2.3-2.9-4.6-5.8q-2.3-2.8-4.6-5.8q-2.3-3-4.6-6q-2.3-3.1-4.6-6.2c-1.5-2.1-3.1-4.2-4.6-6.3c-1.6-2.2-3.1-4.4-4.6-6.6q-2.3-3.4-4.6-6.8q-2.4-3.5-4.6-7q-2.3-3.7-4.6-7.4q-2.4-3.8-4.6-7.6q-2.4-3.8-4.6-7.8q-2.4-4.1-4.7-8.2q-2.3-4.3-4.6-8.6q-2.3-4.4-4.6-8.9q-2.3-4.7-4.6-9.4q-2.3-4.9-4.6-9.8q-2.3-5.3-4.6-10.5q-2.3-5.6-4.6-11.2q-2.4-5.9-4.6-11.9q-2.4-6.4-4.6-12.9q-2.4-7-4.6-14.1q-2.4-7.8-4.6-15.7c-1.7-6-3.2-11.9-4.6-17.9c-1.7-7-3.3-14-4.6-21.2q-2.7-13.5-4.6-27.2q-3.4-23.4-4.6-47.5v-54.4q1.2-24.1 4.6-47.5q1.9-13.7 4.6-27.2c1.3-7.2 2.9-14.2 4.6-21.2q2.1-9 4.6-17.9q2.2-7.9 4.6-15.7q2.2-7.1 4.6-14.1c1.5-4.3 3-8.6 4.6-12.9c1.5-3.9 3-7.9 4.6-11.9q2.3-5.6 4.6-11.2q2.3-5.2 4.6-10.5q2.3-4.9 4.6-9.8q2.3-4.7 4.6-9.4q2.3-4.5 4.6-8.9q2.3-4.3 4.6-8.6q2.3-4.1 4.7-8.2c1.5-2.7 3-5.2 4.6-7.8q2.2-3.8 4.6-7.6q2.3-3.7 4.6-7.4c1.5-2.3 3-4.6 4.6-7q2.3-3.4 4.6-6.8c1.5-2.2 3-4.4 4.6-6.6c1.5-2.1 3.1-4.2 4.6-6.3q2.3-3.1 4.6-6.2q2.3-3 4.6-6q2.3-3 4.6-5.8q2.3-2.9 4.6-5.8q2.3-2.7 4.6-5.4q2.3-2.7 4.7-5.4q2.2-2.6 4.6-5.2q2.3-2.6 4.6-5.1q2.3-2.5 4.6-5q2.3-2.4 4.6-4.8q2.3-2.4 4.6-4.7q2.3-2.4 4.6-4.7q2.3-2.2 4.6-4.4q2.3-2.3 4.6-4.4q2.3-2.2 4.6-4.3q2.3-2.1 4.6-4.2q2.3-2 4.6-4.1q2.3-2 4.7-4q2.2-1.9 4.6-3.9q2.2-1.9 4.6-3.8q2.3-1.9 4.6-3.7q2.3-1.9 4.6-3.7c1.5-1.2 3-2.3 4.6-3.5c1.5-1.2 3-2.4 4.6-3.6q2.3-1.7 4.6-3.3q2.3-1.7 4.6-3.4q2.3-1.6 4.6-3.2q2.3-1.6 4.6-3.2q2.3-1.6 4.6-3.1q2.3-1.5 4.6-3q2.3-1.5 4.7-3c1.5-1 3-1.9 4.5-2.9q2.4-1.5 4.6-2.9c1.6-0.9 3.1-1.8 4.7-2.7q2.3-1.4 4.6-2.8q2.3-1.3 4.6-2.6q2.3-1.3 4.6-2.6q2.3-1.3 4.6-2.6q2.3-1.2 4.6-2.4q2.3-1.2 4.6-2.4q2.3-1.2 4.6-2.4c1.6-0.7 3.1-1.5 4.6-2.2q2.3-1.2 4.6-2.3q2.3-1.1 4.6-2.2q2.4-1.1 4.6-2.1q2.3-1.1 4.7-2.1c1.5-0.7 3-1.4 4.6-2c1.5-0.7 3-1.4 4.6-2c1.5-0.7 3.1-1.3 4.6-1.9q2.3-1 4.6-1.9q2.3-0.9 4.6-1.8q2.3-0.9 4.6-1.8q2.3-0.9 4.6-1.7c1.5-0.6 3.1-1.1 4.6-1.7q2.3-0.8 4.6-1.6c1.5-0.5 3.1-1.1 4.6-1.6c1.6-0.5 3.1-1 4.6-1.5c1.6-0.5 3.1-1 4.6-1.5q2.3-0.7 4.7-1.4q2.2-0.7 4.6-1.4q2.3-0.7 4.6-1.4c1.5-0.4 3-0.8 4.6-1.2q2.3-0.7 4.6-1.3q2.3-0.6 4.6-1.2q2.3-0.6 4.6-1.1q2.3-0.6 4.6-1.2q2.3-0.5 4.6-1.1c1.5-0.3 3.1-0.6 4.6-1q2.3-0.5 4.6-1c1.6-0.3 3.1-0.6 4.6-0.9c1.6-0.3 3.1-0.6 4.7-0.9c1.5-0.3 3-0.6 4.6-0.9c1.5-0.3 3-0.5 4.5-0.8q2.4-0.4 4.7-0.7q2.3-0.4 4.6-0.8q2.3-0.3 4.6-0.6q2.3-0.4 4.6-0.7c1.5-0.2 3-0.5 4.6-0.6c1.5-0.2 3.1-0.4 4.6-0.6q2.3-0.3 4.6-0.5q2.3-0.2 4.6-0.5c1.6-0.2 3.1-0.3 4.6-0.4q2.3-0.2 4.6-0.4q2.3-0.2 4.6-0.4c1.6-0.1 3.1-0.2 4.6-0.3q2.4-0.1 4.6-0.3q2.4-0.1 4.7-0.2q2.3-0.1 4.6-0.2c1.5-0.1 3-0.1 4.6-0.2q2.3-0.1 4.6-0.1q2.3 0 4.6-0.1q2.3 0 4.6 0q1.2 0 2.3-0.1q1.1 0.1 2.3 0.1q2.3 0 4.6 0q2.3 0.1 4.6 0.1q2.3 0 4.6 0.1c1.6 0.1 3.1 0.1 4.6 0.2q2.3 0.1 4.6 0.2q2.3 0.1 4.7 0.2q2.2 0.2 4.6 0.3c1.5 0.1 3 0.2 4.6 0.3q2.3 0.2 4.6 0.4q2.3 0.2 4.6 0.4c1.5 0.1 3 0.2 4.6 0.4q2.3 0.3 4.6 0.5q2.3 0.2 4.6 0.5c1.5 0.2 3.1 0.4 4.6 0.6c1.6 0.1 3.1 0.4 4.6 0.6q2.3 0.3 4.6 0.7q2.3 0.3 4.6 0.6q2.3 0.4 4.6 0.8q2.3 0.3 4.7 0.7c1.5 0.3 3 0.5 4.5 0.8c1.6 0.3 3.1 0.6 4.6 0.9c1.6 0.3 3.1 0.6 4.7 0.9c1.5 0.3 3 0.6 4.6 0.9q2.3 0.5 4.6 1c1.5 0.4 3.1 0.7 4.6 1q2.3 0.6 4.6 1.1q2.3 0.6 4.6 1.2q2.3 0.5 4.6 1.1q2.3 0.6 4.6 1.2q2.3 0.6 4.6 1.3c1.6 0.4 3.1 0.8 4.6 1.2q2.3 0.7 4.6 1.4q2.4 0.7 4.6 1.4q2.4 0.7 4.7 1.4q2.3 0.7 4.6 1.5c1.5 0.5 3 1 4.6 1.5c1.5 0.5 3.1 1.1 4.6 1.6q2.3 0.8 4.6 1.6c1.5 0.6 3.1 1.1 4.6 1.7q2.3 0.8 4.6 1.7q2.3 0.9 4.6 1.8q2.3 0.9 4.6 1.8q2.3 0.9 4.6 1.9c1.5 0.6 3.1 1.2 4.6 1.9q2.4 0.9 4.6 2c1.6 0.6 3.1 1.3 4.6 2q2.4 1 4.7 2.1q2.2 1 4.6 2.1q2.3 1.1 4.6 2.2q2.3 1.1 4.6 2.3q2.3 1.1 4.6 2.2q2.3 1.2 4.6 2.4q2.3 1.2 4.6 2.4q2.3 1.2 4.6 2.4q2.3 1.3 4.6 2.6q2.3 1.3 4.6 2.6q2.3 1.3 4.6 2.6q2.3 1.4 4.6 2.8q2.3 1.3 4.7 2.7q2.2 1.4 4.6 2.9c1.5 0.9 3 1.9 4.5 2.9q2.4 1.5 4.7 3q2.3 1.5 4.6 3q2.3 1.5 4.6 3.1q2.3 1.6 4.6 3.2q2.3 1.6 4.6 3.2q2.3 1.7 4.6 3.4q2.3 1.6 4.6 3.3c1.6 1.2 3.1 2.4 4.6 3.6c1.6 1.2 3.1 2.3 4.6 3.5q2.3 1.8 4.6 3.7q2.3 1.8 4.6 3.7q2.4 1.9 4.6 3.8q2.4 2 4.6 3.9q2.4 2 4.7 4q2.3 2.1 4.6 4.1q2.3 2.1 4.6 4.2q2.3 2.1 4.6 4.3c1.5 1.4 3.1 2.9 4.6 4.3q2.3 2.3 4.6 4.5q2.3 2.3 4.6 4.7q2.3 2.3 4.6 4.7q2.3 2.4 4.6 4.8q2.3 2.5 4.6 5q2.3 2.5 4.6 5.1q2.4 2.6 4.6 5.2q2.4 2.6 4.7 5.4q2.3 2.7 4.6 5.4q2.3 2.9 4.6 5.8q2.3 2.8 4.6 5.8q2.3 3 4.6 6q2.3 3.1 4.6 6.2c1.5 2.1 3.1 4.2 4.6 6.3c1.6 2.2 3.1 4.4 4.6 6.6q2.3 3.4 4.6 6.8c1.6 2.4 3.1 4.7 4.6 7q2.3 3.7 4.6 7.4q2.4 3.8 4.6 7.6q2.4 3.8 4.6 7.8q2.4 4.1 4.7 8.2q2.3 4.3 4.6 8.6q2.3 4.4 4.6 8.9q2.3 4.7 4.6 9.4q2.3 4.9 4.6 9.8c1.6 3.5 3.1 7 4.6 10.5q2.3 5.6 4.6 11.2q2.4 5.9 4.6 11.9q2.4 6.4 4.6 12.9c1.6 4.7 3.1 9.3 4.6 14.1q2.4 7.8 4.6 15.7q2.5 8.9 4.6 17.9c1.7 7 3.3 14 4.6 21.1q2.7 13.6 4.6 27.3q3.4 23.4 4.6 47.4q0.8 13.6 0.8 27.3zm-36 0c0-13.2-0.6-26.3-1.6-39.3q-1.6-19.5-4.6-38.6c-1.3-8.3-2.9-16.5-4.6-24.7c-1.4-6.6-3-13.2-4.6-19.7q-2.2-8.4-4.6-16.7q-2.2-7.4-4.6-14.7q-2.3-6.8-4.6-13.4q-2.3-6.2-4.7-12.2q-2.2-5.7-4.6-11.4q-2.2-5.3-4.6-10.5q-2.2-5-4.6-10q-2.2-4.7-4.6-9.3q-2.2-4.5-4.6-8.9q-2.2-4.3-4.6-8.6q-2.3-4.1-4.6-8.1q-2.3-3.9-4.6-7.8q-2.3-3.7-4.6-7.4q-2.3-3.6-4.6-7.2c-1.6-2.4-3.1-4.7-4.6-7q-2.3-3.4-4.6-6.6q-2.3-3.3-4.7-6.5q-2.2-3.2-4.6-6.3q-2.2-3-4.6-6q-2.3-2.9-4.6-5.8q-2.3-2.9-4.6-5.8c-1.5-1.8-3.1-3.6-4.6-5.4q-2.3-2.7-4.6-5.4c-1.5-1.7-3.1-3.5-4.6-5.2q-2.3-2.5-4.6-5.1q-2.3-2.5-4.6-4.9q-2.3-2.4-4.6-4.7q-2.3-2.4-4.6-4.8c-1.6-1.5-3.1-3-4.7-4.5q-2.2-2.2-4.6-4.4q-2.2-2.2-4.6-4.3q-2.3-2.2-4.6-4.3c-1.5-1.3-3-2.7-4.6-4q-2.3-2.1-4.6-4.1c-1.5-1.3-3.1-2.6-4.6-3.9q-2.3-1.9-4.6-3.8q-2.3-1.8-4.6-3.7q-2.3-1.8-4.6-3.6q-2.3-1.8-4.6-3.6q-2.3-1.7-4.6-3.4q-2.3-1.7-4.6-3.4q-2.3-1.7-4.7-3.3c-1.5-1.1-3-2.1-4.5-3.2c-1.6-1.1-3.1-2.1-4.6-3.2c-1.6-1-3.1-2-4.7-3c-1.5-1-3-2-4.6-3c-1.5-1-3.1-1.9-4.6-2.9q-2.3-1.5-4.6-2.9q-2.3-1.4-4.6-2.7q-2.3-1.4-4.6-2.8q-2.3-1.3-4.6-2.6q-2.3-1.3-4.6-2.6q-2.3-1.2-4.6-2.5c-1.5-0.8-3.1-1.6-4.6-2.4q-2.3-1.3-4.6-2.5q-2.3-1.1-4.6-2.2q-2.3-1.2-4.7-2.3c-1.5-0.8-3-1.5-4.6-2.2q-2.2-1.1-4.6-2.2q-2.3-1-4.6-2.1q-2.3-1-4.6-2q-2.3-1-4.6-2c-1.5-0.7-3.1-1.3-4.6-1.9q-2.3-1-4.6-1.9c-1.5-0.6-3.1-1.2-4.6-1.8q-2.3-0.9-4.6-1.7c-1.5-0.6-3.1-1.2-4.6-1.8c-1.6-0.5-3.1-1-4.6-1.6c-1.6-0.5-3.1-1.1-4.6-1.6q-2.3-0.8-4.7-1.6q-2.2-0.7-4.6-1.5q-2.3-0.7-4.6-1.4q-2.3-0.7-4.6-1.4q-2.3-0.7-4.6-1.4q-2.3-0.6-4.6-1.2c-1.5-0.5-3.1-0.9-4.6-1.3c-1.5-0.4-3.1-0.8-4.6-1.2q-2.3-0.6-4.6-1.1q-2.3-0.6-4.6-1.2q-2.3-0.5-4.6-1q-2.3-0.6-4.6-1q-2.3-0.6-4.7-1q-2.2-0.5-4.6-0.9q-2.3-0.5-4.5-0.9q-2.4-0.4-4.7-0.9c-1.5-0.2-3-0.5-4.6-0.7c-1.5-0.3-3-0.6-4.6-0.8q-2.3-0.3-4.6-0.7q-2.3-0.3-4.6-0.6c-1.5-0.2-3.1-0.5-4.6-0.6q-2.3-0.3-4.6-0.6q-2.3-0.3-4.6-0.5c-1.6-0.2-3.1-0.3-4.6-0.5q-2.3-0.2-4.6-0.4c-1.6-0.1-3.1-0.3-4.6-0.4q-2.4-0.2-4.6-0.3q-2.3-0.2-4.6-0.3q-2.4-0.2-4.7-0.3c-1.5-0.1-3-0.1-4.6-0.2q-2.3-0.1-4.6-0.2c-1.5 0-3-0.1-4.6-0.1q-2.3 0-4.6-0.1q-2.3 0-4.6 0q-1.2-0.1-2.3-0.1q-1.1 0-2.3 0.1q-2.3 0-4.6 0q-2.3 0.1-4.6 0.1c-1.6 0-3.1 0.1-4.6 0.1q-2.3 0.1-4.6 0.2c-1.6 0.1-3.1 0.1-4.6 0.2q-2.3 0.1-4.7 0.3q-2.3 0.1-4.6 0.3q-2.2 0.1-4.6 0.3c-1.5 0.1-3 0.3-4.6 0.4q-2.3 0.2-4.6 0.4c-1.5 0.2-3 0.3-4.6 0.5q-2.3 0.2-4.6 0.5q-2.3 0.3-4.6 0.6c-1.6 0.1-3.1 0.4-4.6 0.6q-2.3 0.3-4.6 0.6q-2.3 0.4-4.6 0.7c-1.6 0.2-3.1 0.5-4.6 0.8c-1.6 0.2-3.1 0.5-4.6 0.7q-2.3 0.5-4.7 0.9q-2.2 0.4-4.5 0.9q-2.4 0.4-4.6 0.9q-2.4 0.4-4.7 1q-2.3 0.4-4.6 1q-2.3 0.5-4.6 1q-2.3 0.6-4.6 1.2q-2.3 0.5-4.6 1.1c-1.5 0.4-3.1 0.8-4.6 1.2c-1.5 0.4-3.1 0.8-4.6 1.3q-2.3 0.6-4.6 1.2q-2.3 0.7-4.6 1.4q-2.3 0.7-4.6 1.4q-2.3 0.7-4.6 1.4q-2.4 0.8-4.6 1.5q-2.4 0.8-4.7 1.6c-1.5 0.5-3 1.1-4.6 1.6c-1.5 0.6-3 1.1-4.6 1.6c-1.5 0.6-3.1 1.2-4.6 1.8q-2.3 0.8-4.6 1.7c-1.5 0.6-3.1 1.2-4.6 1.8q-2.3 0.9-4.6 1.9c-1.5 0.6-3.1 1.2-4.6 1.9q-2.3 1-4.6 2q-2.3 1-4.6 2q-2.3 1.1-4.6 2.1q-2.4 1.1-4.6 2.2c-1.6 0.7-3.1 1.4-4.6 2.2q-2.4 1.1-4.7 2.3q-2.3 1.1-4.6 2.2q-2.3 1.2-4.6 2.5c-1.5 0.8-3.1 1.6-4.6 2.4q-2.3 1.2-4.6 2.5q-2.3 1.3-4.6 2.6q-2.3 1.3-4.6 2.6q-2.3 1.4-4.6 2.8q-2.3 1.3-4.6 2.7q-2.3 1.4-4.6 2.9c-1.5 1-3.1 1.9-4.6 2.9c-1.6 1-3.1 2-4.6 3c-1.6 1-3.1 2-4.7 3c-1.5 1.1-3 2.1-4.6 3.2c-1.5 1.1-3 2.1-4.5 3.2q-2.4 1.6-4.7 3.3q-2.3 1.7-4.6 3.4q-2.3 1.7-4.6 3.4q-2.3 1.8-4.6 3.6q-2.3 1.8-4.6 3.6q-2.3 1.9-4.6 3.7q-2.3 1.9-4.6 3.8c-1.5 1.3-3.1 2.6-4.6 3.9q-2.3 2-4.6 4.1c-1.6 1.3-3.1 2.7-4.6 4q-2.3 2.1-4.6 4.3q-2.4 2.1-4.6 4.3q-2.4 2.2-4.6 4.4c-1.6 1.5-3.1 3-4.7 4.5q-2.3 2.4-4.6 4.8q-2.3 2.3-4.6 4.7q-2.3 2.5-4.6 4.9q-2.3 2.6-4.6 5.1c-1.5 1.7-3.1 3.5-4.6 5.2q-2.3 2.7-4.6 5.4c-1.5 1.8-3.1 3.6-4.6 5.4q-2.3 2.9-4.6 5.8q-2.3 2.9-4.6 5.8q-2.4 3-4.6 6q-2.4 3.2-4.6 6.3q-2.4 3.2-4.7 6.5c-1.5 2.2-3 4.4-4.6 6.6q-2.3 3.5-4.6 7q-2.3 3.5-4.6 7.2q-2.3 3.7-4.6 7.4q-2.3 3.9-4.6 7.8q-2.3 4-4.6 8.1q-2.4 4.3-4.6 8.6q-2.4 4.4-4.6 8.9q-2.4 4.6-4.6 9.4q-2.4 4.9-4.6 9.9q-2.4 5.2-4.6 10.6q-2.4 5.6-4.6 11.3c-1.6 4-3.2 8.1-4.7 12.2q-2.3 6.7-4.6 13.4q-2.4 7.3-4.6 14.7q-2.4 8.3-4.6 16.7q-2.5 9.8-4.6 19.7q-2.6 12.3-4.6 24.8q-3 19-4.6 38.5c-1 13-1.6 26.1-1.6 39.3c0 13.2 0.6 26.3 1.6 39.3q1.6 19.5 4.6 38.5q2 12.5 4.6 24.8q2.1 9.9 4.6 19.7q2.2 8.4 4.6 16.7q2.2 7.4 4.6 14.7q2.3 6.7 4.6 13.4q2.3 6.2 4.7 12.2q2.2 5.7 4.6 11.3q2.2 5.4 4.6 10.6q2.2 5 4.6 9.9c1.5 3.2 3 6.3 4.6 9.4q2.2 4.5 4.6 8.9q2.2 4.3 4.6 8.6q2.3 4.1 4.6 8.1q2.3 3.9 4.6 7.8q2.3 3.7 4.6 7.4q2.3 3.6 4.6 7.2c1.6 2.4 3.1 4.7 4.6 7q2.3 3.4 4.6 6.6q2.3 3.3 4.7 6.5q2.2 3.2 4.6 6.3q2.2 3 4.6 6q2.3 2.9 4.6 5.8q2.3 2.9 4.6 5.8c1.5 1.8 3.1 3.6 4.6 5.4q2.3 2.7 4.6 5.4c1.5 1.7 3.1 3.5 4.6 5.2q2.3 2.5 4.6 5.1q2.3 2.5 4.6 4.9q2.3 2.4 4.6 4.7q2.3 2.4 4.6 4.8c1.6 1.5 3.1 3 4.7 4.5q2.2 2.2 4.6 4.4q2.2 2.2 4.6 4.3q2.3 2.2 4.6 4.3c1.5 1.3 3 2.7 4.6 4q2.3 2.1 4.6 4.1c1.5 1.3 3.1 2.6 4.6 3.9q2.3 1.9 4.6 3.8q2.3 1.8 4.6 3.7q2.3 1.8 4.6 3.6q2.3 1.8 4.6 3.6q2.3 1.7 4.6 3.4q2.3 1.7 4.6 3.4q2.3 1.7 4.7 3.3c1.5 1.1 3 2.1 4.5 3.2c1.6 1.1 3.1 2.1 4.6 3.2c1.6 1 3.1 2 4.7 3c1.5 1 3 2 4.6 3c1.5 1 3.1 1.9 4.6 2.9q2.3 1.5 4.6 2.9c1.5 0.9 3.1 1.8 4.6 2.7q2.3 1.4 4.6 2.8q2.3 1.3 4.6 2.6q2.3 1.3 4.6 2.6q2.3 1.2 4.6 2.5c1.5 0.8 3.1 1.6 4.6 2.4q2.3 1.3 4.6 2.5c1.6 0.7 3.1 1.5 4.6 2.2c1.6 0.8 3.1 1.6 4.7 2.3c1.5 0.8 3 1.5 4.6 2.2q2.2 1.1 4.6 2.2q2.3 1 4.6 2.1q2.3 1 4.6 2q2.3 1 4.6 2c1.5 0.7 3.1 1.3 4.6 1.9q2.3 0.9 4.6 1.9c1.5 0.6 3.1 1.2 4.6 1.8c1.5 0.6 3.1 1.2 4.6 1.7c1.5 0.6 3.1 1.2 4.6 1.8c1.6 0.5 3.1 1 4.6 1.6q2.3 0.8 4.6 1.6q2.3 0.8 4.7 1.6q2.2 0.7 4.6 1.5q2.3 0.7 4.6 1.4q2.3 0.7 4.6 1.4q2.3 0.7 4.6 1.4c1.5 0.4 3.1 0.8 4.6 1.3c1.5 0.4 3.1 0.8 4.6 1.2q2.3 0.6 4.6 1.2c1.5 0.4 3.1 0.8 4.6 1.1q2.3 0.6 4.6 1.2q2.3 0.5 4.6 1q2.3 0.6 4.6 1c1.6 0.4 3.1 0.7 4.7 1.1q2.2 0.4 4.6 0.8q2.3 0.5 4.5 0.9q2.4 0.4 4.7 0.9c1.5 0.2 3 0.5 4.6 0.7c1.5 0.3 3 0.6 4.6 0.8q2.3 0.3 4.6 0.7q2.3 0.3 4.6 0.6c1.5 0.2 3 0.5 4.6 0.6q2.3 0.3 4.6 0.6q2.3 0.3 4.6 0.5c1.6 0.2 3.1 0.3 4.6 0.5q2.3 0.2 4.6 0.4q2.3 0.2 4.6 0.4q2.4 0.2 4.6 0.3q2.3 0.2 4.6 0.3q2.4 0.2 4.7 0.3q2.3 0.1 4.6 0.2q2.3 0.1 4.6 0.2q2.3 0.1 4.6 0.1q2.3 0.1 4.6 0.1q2.3 0 4.6 0q1.2 0.1 2.3 0.1q1.1 0 2.3-0.1q2.3 0 4.6 0q2.3 0 4.6-0.1q2.3 0 4.6-0.1q2.3-0.1 4.6-0.2q2.3-0.1 4.6-0.2q2.3-0.1 4.7-0.3q2.3-0.1 4.6-0.3q2.2-0.1 4.6-0.3q2.3-0.2 4.6-0.4q2.3-0.2 4.6-0.4c1.5-0.2 3-0.3 4.6-0.5q2.3-0.2 4.6-0.5q2.3-0.3 4.6-0.6c1.5-0.1 3.1-0.4 4.6-0.6q2.3-0.3 4.6-0.6q2.3-0.4 4.6-0.7c1.6-0.2 3.1-0.5 4.6-0.8c1.6-0.2 3.1-0.5 4.6-0.7q2.3-0.5 4.7-0.9q2.2-0.4 4.5-0.9q2.4-0.4 4.6-0.8c1.6-0.4 3.1-0.7 4.7-1.1q2.3-0.4 4.6-1q2.3-0.5 4.6-1q2.3-0.6 4.6-1.2c1.5-0.3 3.1-0.7 4.6-1.1q2.3-0.6 4.6-1.2c1.5-0.4 3.1-0.8 4.6-1.2c1.5-0.5 3.1-0.9 4.6-1.3q2.3-0.7 4.6-1.4q2.3-0.7 4.6-1.4q2.3-0.7 4.6-1.4q2.4-0.8 4.6-1.5q2.4-0.8 4.7-1.6q2.3-0.8 4.6-1.6c1.5-0.6 3-1.1 4.6-1.6c1.5-0.6 3.1-1.2 4.6-1.8c1.5-0.5 3.1-1.1 4.6-1.7c1.5-0.6 3.1-1.2 4.6-1.8q2.3-1 4.6-1.9c1.5-0.6 3.1-1.2 4.6-1.9c1.6-0.6 3.1-1.3 4.6-2q2.3-1 4.6-2q2.3-1.1 4.6-2.1q2.4-1.1 4.6-2.2c1.6-0.7 3.1-1.4 4.6-2.2c1.6-0.7 3.1-1.5 4.7-2.3c1.5-0.7 3-1.5 4.6-2.2q2.3-1.2 4.6-2.5c1.5-0.8 3.1-1.6 4.6-2.4q2.3-1.3 4.6-2.5q2.3-1.3 4.6-2.6q2.3-1.3 4.6-2.6q2.3-1.4 4.6-2.7c1.5-1 3.1-1.9 4.6-2.8q2.3-1.4 4.6-2.9c1.5-1 3.1-1.9 4.6-2.9c1.6-1 3.1-2 4.6-3c1.6-1 3.1-2 4.7-3c1.5-1.1 3-2.1 4.6-3.2c1.5-1.1 3-2.1 4.5-3.2c1.6-1.1 3.1-2.2 4.7-3.3q2.3-1.7 4.6-3.4q2.3-1.7 4.6-3.4q2.3-1.8 4.6-3.6q2.3-1.8 4.6-3.6q2.3-1.9 4.6-3.7q2.3-1.9 4.6-3.8q2.3-2 4.6-3.9q2.3-2 4.6-4.1c1.6-1.3 3.1-2.7 4.6-4q2.3-2.2 4.6-4.3c1.6-1.4 3.1-2.8 4.6-4.3q2.4-2.2 4.6-4.4q2.4-2.3 4.7-4.5c1.5-1.6 3-3.2 4.6-4.7c1.5-1.6 3.1-3.2 4.6-4.8q2.3-2.4 4.6-4.9q2.3-2.6 4.6-5.1q2.3-2.6 4.6-5.2q2.3-2.7 4.6-5.4c1.5-1.8 3.1-3.6 4.6-5.4q2.3-2.9 4.6-5.8q2.3-2.9 4.6-5.8q2.4-3 4.6-6q2.4-3.1 4.6-6.3q2.4-3.2 4.7-6.5q2.3-3.2 4.6-6.6c1.5-2.3 3-4.6 4.6-7q2.3-3.6 4.6-7.2q2.3-3.7 4.6-7.4q2.3-3.9 4.6-7.8q2.3-4 4.6-8.1q2.4-4.3 4.6-8.6q2.4-4.4 4.6-8.9q2.4-4.6 4.6-9.3q2.4-5 4.6-10q2.4-5.2 4.6-10.5q2.4-5.7 4.6-11.4q2.4-6 4.7-12.2q2.3-6.6 4.6-13.4q2.4-7.3 4.6-14.7q2.4-8.3 4.6-16.7q2.5-9.7 4.6-19.7c1.7-8.2 3.3-16.4 4.6-24.7q3-19.1 4.6-38.6c1-13 1.6-26.1 1.6-39.3z" /></svg>