<?xml version="1.0" encoding="UTF-8"?>
<svg version="1.1" xmlns="http://www.w3.org/2000/svg" width="200" height="200">
<path d="M0 0 C66 0 132 0 200 0 C200 66 200 132 200 200 C134 200 68 200 0 200 C0 134 0 68 0 0 Z " fill="#FDFDFC" transform="translate(0,0)"/>
<path d="M0 0 C8.93903394 6.67916581 16.10106584 15.05094868 19 26 C19.2165625 27.8871875 19.2165625 27.8871875 19.4375 29.8125 C20.11930723 33.67607433 21.01124962 33.78254004 24 36 C24.48258885 39.30918071 24.63437797 41.13493913 22.625 43.875 C21 45 21 45 19 45 C18.9175 46.11375 18.835 47.2275 18.75 48.375 C17.14880092 60.50141437 10.40458273 69.77469159 1 77.3125 C-10.04816146 84.8669294 -22.897262 87.57613048 -36.0546875 85.5234375 C-47.99670514 83.00133199 -59.01305656 76.14731779 -66.046875 66.06640625 C-70.15067328 59.27478967 -73.4923592 53.12392684 -73 45 C-73.639375 44.87625 -74.27875 44.7525 -74.9375 44.625 C-75.618125 44.41875 -76.29875 44.2125 -77 44 C-78.41441874 41.17116253 -78.31900332 39.12623255 -78 36 C-77.35289063 35.5359375 -76.70578125 35.071875 -76.0390625 34.59375 C-73.83398478 33.18387671 -73.83398478 33.18387671 -73.34765625 30.87109375 C-73.25355469 30.06800781 -73.15945312 29.26492187 -73.0625 28.4375 C-71.1231053 17.11340722 -64.61255287 8.31284421 -55.734375 1.1796875 C-38.09608994 -11.09310525 -18.32794 -11.05344835 0 0 Z " fill="#55BA3F" transform="translate(127,37)"/>
<path d="M0 0 C8.93903394 6.67916581 16.10106584 15.05094868 19 26 C19.2165625 27.8871875 19.2165625 27.8871875 19.4375 29.8125 C20.11930723 33.67607433 21.01124962 33.78254004 24 36 C24.48258885 39.30918071 24.63437797 41.13493913 22.625 43.875 C21 45 21 45 19 45 C18.9175 46.11375 18.835 47.2275 18.75 48.375 C17.14880092 60.50141437 10.40458273 69.77469159 1 77.3125 C-10.04816146 84.8669294 -22.897262 87.57613048 -36.0546875 85.5234375 C-47.99670514 83.00133199 -59.01305656 76.14731779 -66.046875 66.06640625 C-70.15067328 59.27478967 -73.4923592 53.12392684 -73 45 C-73.639375 44.87625 -74.27875 44.7525 -74.9375 44.625 C-75.618125 44.41875 -76.29875 44.2125 -77 44 C-78.41441874 41.17116253 -78.31900332 39.12623255 -78 36 C-77.35289063 35.5359375 -76.70578125 35.071875 -76.0390625 34.59375 C-73.83398478 33.18387671 -73.83398478 33.18387671 -73.34765625 30.87109375 C-73.25355469 30.06800781 -73.15945312 29.26492187 -73.0625 28.4375 C-71.1231053 17.11340722 -64.61255287 8.31284421 -55.734375 1.1796875 C-38.09608994 -11.09310525 -18.32794 -11.05344835 0 0 Z M-37 2 C-38.59984715 4.61793169 -39.78004781 7.16971092 -41 10 C-38.525 10.495 -38.525 10.495 -36 11 C-37.6396875 11.8353125 -37.6396875 11.8353125 -39.3125 12.6875 C-42.69867022 14.59606867 -44.24141729 16.48283457 -46 20 C-46.33 20 -46.66 20 -47 20 C-47 18.35 -47 16.7 -47 15 C-55.68825841 16.2611988 -63.28619004 19.93567019 -68.6875 27.125 C-70.17521177 30.38379721 -70.20106929 31.67396197 -69 35 C-68.67 35.66 -68.34 36.32 -68 37 C-67.03900391 36.80083984 -67.03900391 36.80083984 -66.05859375 36.59765625 C-61.05016007 35.57506994 -56.06888206 34.66115853 -51 34 C-51.33 34.99 -51.66 35.98 -52 37 C-52.74765625 37.12117188 -53.4953125 37.24234375 -54.265625 37.3671875 C-55.74289063 37.61855469 -55.74289063 37.61855469 -57.25 37.875 C-58.22453125 38.03742188 -59.1990625 38.19984375 -60.203125 38.3671875 C-63.82273673 39.18614993 -66.18679622 40.18679622 -68.8125 42.8125 C-70.18884886 44.93303974 -70.18884886 44.93303974 -70 47.375 C-67.44014689 54.09461441 -62.22011859 57.86899755 -56 61 C-50.93467106 63.15381715 -46.54522952 65 -41 65 C-40.74476562 65.88751953 -40.74476562 65.88751953 -40.484375 66.79296875 C-38.57099876 73.03179659 -36.59188053 77.27207965 -31 81 C-27.51325133 81.53642287 -25.10262602 81.7032846 -22.05859375 79.76171875 C-19.18897425 77.34740422 -17.09246345 75.13869518 -15 72 C-15 71.01 -15 70.02 -15 69 C-22.92 69 -30.84 69 -39 69 C-39 67.68 -39 66.36 -39 65 C-38.31897217 65.02094727 -37.63794434 65.04189453 -36.9362793 65.06347656 C-33.85350278 65.14657452 -30.77096163 65.19863954 -27.6875 65.25 C-26.61564453 65.28351563 -25.54378906 65.31703125 -24.43945312 65.3515625 C-22.89741211 65.37089844 -22.89741211 65.37089844 -21.32421875 65.390625 C-19.9024231 65.4220459 -19.9024231 65.4220459 -18.4519043 65.45410156 C-15.84744038 65.24073313 -15.84744038 65.24073313 -14.35473633 63.03808594 C-13.90767334 62.36551758 -13.46061035 61.69294922 -13 61 C-12.01 60.67 -11.02 60.34 -10 60 C-8.7831766 54.34118052 -7.7701167 48.78508131 -7.34375 43.0078125 C-6.95216427 40.72059586 -6.1226171 39.0189001 -5 37 C-4.90695188 42.81033816 -4.98077264 48.26684611 -6 54 C-6.0830832 56.67332416 -6.04613152 59.32437168 -6 62 C-2.98909642 63.36463013 -2.98909642 63.36463013 -0.07421875 61.8125 C9.1965833 56.85820285 9.1965833 56.85820285 16 49 C16.09052008 45.10763642 14.56569663 42.83636353 12 40 C9.3972253 38.8762253 9.3972253 38.8762253 6.5 38.25 C5.5409375 38.00765625 4.581875 37.7653125 3.59375 37.515625 C0.95034725 36.90251012 0.95034725 36.90251012 -2 37 C-2 36.01 -2 35.02 -2 34 C-0.24970238 34.31082872 1.50022694 34.62373179 3.25 34.9375 C4.22453125 35.11152344 5.1990625 35.28554687 6.203125 35.46484375 C9 36 9 36 11.25 36.63671875 C13.08892358 37.2315596 13.08892358 37.2315596 14.75 35.875 C16.41444502 33.37833246 16.29867683 31.96480677 16 29 C12.40130619 22.96094195 7.38277679 19.59638378 1 17 C0.34 17 -0.32 17 -1 17 C-1 15.68 -1 14.36 -1 13 C-0.30132812 13.37253906 0.39734375 13.74507812 1.1171875 14.12890625 C2.02726562 14.60199219 2.93734375 15.07507813 3.875 15.5625 C4.77992188 16.03816406 5.68484375 16.51382813 6.6171875 17.00390625 C7.40351563 17.33261719 8.18984375 17.66132812 9 18 C9.99 17.505 9.99 17.505 11 17 C4.53609183 7.57346726 -2.83276531 0.46382724 -14 -3 C-14.99 -2.67 -15.98 -2.34 -17 -2 C-15.68 -0.02 -14.36 1.96 -13 4 C-14.32 4 -15.64 4 -17 4 C-17.226875 3.4225 -17.45375 2.845 -17.6875 2.25 C-19.4029194 -0.69071898 -21.12861793 -2.17275686 -24 -4 C-29.92235653 -5.28746881 -33.297292 -2.28545865 -37 2 Z M-65 59 C-61.63817842 68.48632823 -54.41259746 73.82726512 -45.9296875 78.6875 C-42.91352333 80.03874155 -40.27012024 80.61185516 -37 81 C-37.31453125 80.5153125 -37.6290625 80.030625 -37.953125 79.53125 C-38.38109375 78.8609375 -38.8090625 78.190625 -39.25 77.5 C-39.7140625 76.77683594 -40.178125 76.05367187 -40.65625 75.30859375 C-41.94181409 73.09996474 -42.82256336 70.93690955 -43.75 68.5625 C-44.63491223 66.53454892 -44.63491223 66.53454892 -46 65 C-48.21186104 64.36283838 -50.17409217 64.31168316 -52.47265625 64.2734375 C-57.10496122 63.77226076 -60.99706813 61.26470676 -65 59 Z " fill="#2F9D3C" transform="translate(127,37)"/>
<path d="M0 0 C10.23209899 1.30526776 18.58016871 7.06962017 25 15 C26.24784346 16.98980443 27.12440268 18.81100669 28 21 C23.96479403 19.41037341 19.98188718 17.71767682 16 16 C16 17.32 16 18.64 16 20 C16.99 20.185625 17.98 20.37125 19 20.5625 C25.02259866 22.25520594 29.60508506 26.9076276 33 32 C33.34407243 34.75257941 33.39657143 36.33656284 31.9609375 38.73828125 C30 40 30 40 26.42578125 39.63671875 C25.05076841 39.33780292 23.67961856 39.02066335 22.3125 38.6875 C21.61060547 38.53087891 20.90871094 38.37425781 20.18554688 38.21289062 C18.45348639 37.82406072 16.72620884 37.41403533 15 37 C15 37.99 15 38.98 15 40 C16.12148437 40.18175781 16.12148437 40.18175781 17.265625 40.3671875 C18.25046875 40.53476563 19.2353125 40.70234375 20.25 40.875 C21.71179688 41.11863281 21.71179688 41.11863281 23.203125 41.3671875 C26.82273673 42.18614993 29.18679622 43.18679622 31.8125 45.8125 C33 48 33 48 33 50.375 C30.03943487 58.14648347 23.91080093 61.03205121 16.9609375 64.77734375 C14 66 14 66 11 65 C10.87426326 57.70726916 10.87426326 57.70726916 11.5 54.1875 C12.2406592 49.4657976 12.07638165 44.76960994 12 40 C9.65253315 43.76184018 9.3836696 47.75211367 8.9375 52.0625 C8.11505305 59.65484085 8.11505305 59.65484085 7 63 C5.67532254 63.6837045 4.34136367 64.34964186 3 65 C2.34 65.99 1.68 66.98 1 68 C-1.33837891 68.34057617 -1.33837891 68.34057617 -4.2265625 68.29296875 C-5.2578125 68.28330078 -6.2890625 68.27363281 -7.3515625 68.26367188 C-8.97191406 68.2259668 -8.97191406 68.2259668 -10.625 68.1875 C-11.71296875 68.17396484 -12.8009375 68.16042969 -13.921875 68.14648438 C-16.61507409 68.11104754 -19.30729374 68.06164331 -22 68 C-22 69.32 -22 70.64 -22 72 C-14.08 72 -6.16 72 2 72 C1.04764163 75.80943349 0.52852015 76.90795162 -1.9375 79.6875 C-2.72447266 80.59048828 -2.72447266 80.59048828 -3.52734375 81.51171875 C-5.82070431 83.82941205 -6.99091375 83.99914281 -10.3125 84.3125 C-14.80793551 83.93153089 -15.9846248 83.33278311 -19 80 C-22.94723148 73.78924313 -24.64580533 68.32002316 -25 61 C-21.08720186 57.86976149 -17.59444062 56.50871108 -12.75 55.1875 C-2.79860706 52.24860516 3.70869596 47.70090946 8.84375 38.625 C11.84985562 31.80032779 12.38399182 25.40822846 12.625 18.0625 C12.66367188 17.09248047 12.70234375 16.12246094 12.7421875 15.12304688 C12.83575076 12.74887924 12.92149208 10.37470508 13 8 C11.1128125 8.12375 11.1128125 8.12375 9.1875 8.25 C5.26785714 8.25 5.26785714 8.25 3.125 6.25 C2.75375 5.5075 2.3825 4.765 2 4 C1.608125 3.2575 1.21625 2.515 0.8125 1.75 C0.544375 1.1725 0.27625 0.595 0 0 Z " fill="#F8FBF7" transform="translate(110,34)"/>
<path d="M0 0 C5.87972341 1.46993085 9.56078511 5.97042644 13 10.75 C12.23816406 10.98074219 11.47632813 11.21148437 10.69140625 11.44921875 C-1.50342539 15.3010195 -13.95934834 21.05205152 -20.625 32.6875 C-23.89819857 40.50594587 -22.06685862 48.19238412 -19 55.75 C-16.18319342 51.52479014 -16.56599949 47.66753865 -16.34375 42.68359375 C-16 39.75 -16 39.75 -14 37.75 C-13.67 40.39 -13.34 43.03 -13 45.75 C-10.3184721 42.67307254 -9.57912193 40.55265337 -9.3125 36.5 C-9.24675781 35.60796875 -9.18101563 34.7159375 -9.11328125 33.796875 C-9.07589844 33.12140625 -9.03851563 32.4459375 -9 31.75 C-8.67 31.75 -8.34 31.75 -8 31.75 C-7.505 34.72 -7.505 34.72 -7 37.75 C-1.72 32.47 3.56 27.19 9 21.75 C9 24.75 9 24.75 7.5390625 26.43359375 C6.90742187 27.01238281 6.27578125 27.59117188 5.625 28.1875 C3.05417885 30.55202068 1.39915131 32.53477855 0 35.75 C1.98 35.75 3.96 35.75 6 35.75 C3.80878748 37.94121252 1.99940878 38.73527341 -0.8125 40 C-5.50633129 42.27559115 -8.03378473 44.49842478 -11 48.75 C-8.36 48.42 -5.72 48.09 -3 47.75 C-4.99375759 49.74375759 -6.27941316 50.39570975 -8.8125 51.5 C-13.1666249 53.65331268 -15.38116812 55.62335583 -18 59.75 C-18.66106461 62.48305818 -18.85362345 64.92005346 -19 67.75 C-27.94861981 67.00428168 -34.71707928 63.11782505 -41 56.75 C-43 53.75 -43 53.75 -42.8125 51.3125 C-41.90500358 48.45039591 -41.1261358 46.8761358 -39 44.75 C-34.44784498 42.73858266 -29.90297479 42.25720429 -25 41.75 C-24.67 40.76 -24.34 39.77 -24 38.75 C-24.97582031 38.9665625 -25.95164062 39.183125 -26.95703125 39.40625 C-28.22933594 39.6846875 -29.50164062 39.963125 -30.8125 40.25 C-32.07707031 40.5284375 -33.34164062 40.806875 -34.64453125 41.09375 C-38 41.75 -38 41.75 -41 41.75 C-43 38.75 -43 38.75 -42.9375 35.9375 C-41.07134852 29.59258497 -36.70893567 26.05291793 -31.203125 22.78515625 C-27.61110595 21.0974168 -23.90408725 20.35549501 -20 19.75 C-20 21.73 -20 23.71 -20 25.75 C-18.23378987 24.14435443 -17.09462497 22.98292301 -16.1875 20.75 C-14.45317369 17.82902937 -12.04365326 17.07332751 -9 15.75 C-11.475 15.255 -11.475 15.255 -14 14.75 C-11.04785984 7.90103482 -7.66607485 1.91651871 0 0 Z " fill="#F7FBF6" transform="translate(100,32.25)"/>
<path d="M0 0 C8.93903394 6.67916581 16.10106584 15.05094868 19 26 C19.2165625 27.8871875 19.2165625 27.8871875 19.4375 29.8125 C20.11930723 33.67607433 21.01124962 33.78254004 24 36 C24.48258885 39.30918071 24.63437797 41.13493913 22.625 43.875 C21 45 21 45 19 45 C18.9175 46.11375 18.835 47.2275 18.75 48.375 C17.29551671 59.39028678 11.68196342 68.12856411 3.31640625 75.30078125 C-3.03912174 80.12252024 -9.6462502 84.78316404 -18 84 C-18.33 83.34 -18.66 82.68 -19 82 C-18.09378906 81.64808594 -17.18757813 81.29617187 -16.25390625 80.93359375 C-3.97117095 75.95551161 3.83000849 70.45815364 11 59 C10.34 59 9.68 59 9 59 C9.3838822 55.6730209 10.3066049 54.65689452 12.625 52.0625 C15.28958536 49.29169442 15.28958536 49.29169442 14.9375 46.3125 C14.00492064 43.78913598 14.00492064 43.78913598 12 41 C8.67248981 39.75412605 8.67248981 39.75412605 4.875 38.8125 C4.21628906 38.63525391 3.55757813 38.45800781 2.87890625 38.27539062 C1.25530057 37.84007606 -0.37202609 37.41868259 -2 37 C-2 36.01 -2 35.02 -2 34 C2.07381528 33.8302577 5.38125479 34.00384049 9.3125 35.125 C10.529375 35.41375 11.74625 35.7025 13 36 C15.15940735 34.19510474 15.15940735 34.19510474 15.5 31.8125 C14.71727982 27.40969899 12.34900396 24.87150925 9 22 C5.7668586 20.08032229 2.45388204 18.48121028 -1 17 C-1 15.68 -1 14.36 -1 13 C0.4589426 13.47730838 1.91713496 13.95691042 3.375 14.4375 C4.18710938 14.70433594 4.99921875 14.97117187 5.8359375 15.24609375 C8 16 8 16 10 17 C3.32859245 7.37166822 -3.12799643 2.44316963 -14 -2 C-14.33 -1.67 -14.66 -1.34 -15 -1 C-14.34 0.65 -13.68 2.3 -13 4 C-14.32 4 -15.64 4 -17 4 C-18.73473712 2.05874656 -20.4045651 0.05727132 -22 -2 C-24.90295805 -3.45147903 -26.77261779 -3.37239025 -30 -3 C-32.20529207 -1.51246809 -34.02252137 0.20229216 -36 2 C-36.66 2 -37.32 2 -38 2 C-38.33 1.01 -38.66 0.02 -39 -1 C-38.67 -1.33 -38.34 -1.66 -38 -2 C-47.94982221 -0.44029814 -55.48874868 5.64918905 -62 13 C-62.66 12.67 -63.32 12.34 -64 12 C-63.30670561 6.89273135 -59.74639433 4.49505038 -56.0390625 1.2578125 C-38.76821137 -11.57323114 -17.96613584 -10.83524687 0 0 Z " fill="#309D3C" transform="translate(127,37)"/>
<path d="M0 0 C0.33 0 0.66 0 1 0 C1.08930039 6.13195984 1.0996272 11.95205039 0 18 C-0.08323433 20.67329087 -0.04613086 23.32440997 0 26 C4.9723422 24.50829734 9.41845739 22.39542583 14 20 C14 20.99 14 21.98 14 23 C14.66 23 15.32 23 16 23 C12.60001563 32.67295553 4.8808545 38.51182622 -4 43 C-6.97002436 44.41241159 -9.95782015 45.75079571 -13 47 C-12.67 47.66 -12.34 48.32 -12 49 C-15.46222615 50.06723961 -18.64039266 50.10173486 -22.25 50.0625 C-23.32765625 50.05347656 -24.4053125 50.04445312 -25.515625 50.03515625 C-26.33546875 50.02355469 -27.1553125 50.01195312 -28 50 C-28.33 49.34 -28.66 48.68 -29 48 C-26.36 48 -23.72 48 -21 48 C-21 47.34 -21 46.68 -21 46 C-21.99 45.67 -22.98 45.34 -24 45 C-22.96875 44.814375 -21.9375 44.62875 -20.875 44.4375 C-16.18638618 43.122401 -13.62961733 39.96207443 -11 36 C-10.67 35.01 -10.34 34.02 -10 33 C-17.92 33 -25.84 33 -34 33 C-34 31.68 -34 30.36 -34 29 C-33.31897217 28.9906543 -32.63794434 28.98130859 -31.9362793 28.97167969 C-28.85261353 28.91801869 -25.77047206 28.83436449 -22.6875 28.75 C-21.61564453 28.73582031 -20.54378906 28.72164062 -19.43945312 28.70703125 C-17.89741211 28.65869141 -17.89741211 28.65869141 -16.32421875 28.609375 C-15.37635498 28.58842773 -14.42849121 28.56748047 -13.4519043 28.54589844 C-10.30899643 27.84615314 -9.77871597 26.57591666 -8 24 C-7.01 24 -6.02 24 -5 24 C-4.83564453 22.02966797 -4.83564453 22.02966797 -4.66796875 20.01953125 C-4.50846855 18.28379376 -4.34827587 16.5481198 -4.1875 14.8125 C-4.11724609 13.94818359 -4.04699219 13.08386719 -3.97460938 12.19335938 C-3.52019973 7.44932269 -3.05049565 3.86716377 0 0 Z " fill="#359F41" transform="translate(122,73)"/>
<path d="M0 0 C4.15177657 1.79281261 6.27158115 3.81540699 8 8 C8.58088568 12.37653597 8.49962805 15.88178484 6.6875 19.9375 C4.62767733 22.45506104 2.95288171 23.84656989 -0.3046875 24.37109375 C-7.27022519 24.55105445 -7.27022519 24.55105445 -11.0625 21.6875 C-14.36327663 17.10900338 -14.86135814 12.49583944 -14 7 C-10.57196359 0.82185975 -6.82213388 -0.46251755 0 0 Z " fill="#319D3E" transform="translate(163,134)"/>
<path d="M0 0 C12.71428571 0 12.71428571 0 17 3 C20.44515786 6.79956405 20.45304881 9.63336327 20.28515625 14.58984375 C19.90853267 17.77308685 19.15764488 19.61915048 17 22 C12 24 12 24 0 24 C0 16.08 0 8.16 0 0 Z " fill="#37A043" transform="translate(88,134)"/>
<path d="M0 0 C-0.33 0.66 -0.66 1.32 -1 2 C-0.79375 2.598125 -0.5875 3.19625 -0.375 3.8125 C0.16725246 6.97563937 -1.22747339 8.44756168 -3 11 C-0.525 11.495 -0.525 11.495 2 12 C-0.36292656 14.52588702 -1.66462511 15.88820837 -5 17 C-6.01866229 18.65532623 -7.01810813 20.32260138 -8 22 C-8.99 22.66 -9.98 23.32 -11 24 C-10.67 21.69 -10.34 19.38 -10 17 C-11.73151972 17.59738947 -13.46012147 18.20323967 -15.1875 18.8125 C-16.15042969 19.14894531 -17.11335938 19.48539063 -18.10546875 19.83203125 C-20.94950298 20.97962401 -23.41871912 22.35307674 -26 24 C-27.32 23.01 -28.64 22.02 -30 21 C-30.66 21.99 -31.32 22.98 -32 24 C-32.66 24 -33.32 24 -34 24 C-32.43358249 19.69235185 -30.31663844 15.93828536 -28 12 C-27.01 12.66 -26.02 13.32 -25 14 C-24.32517578 13.23816406 -24.32517578 13.23816406 -23.63671875 12.4609375 C-18.38069333 6.83625298 -12.89508013 3.35467703 -6 0 C-3.50907189 -1.24546405 -2.58919267 -0.7767578 0 0 Z " fill="#359F41" transform="translate(90,35)"/>
<path d="M0 0 C13.41959799 -0.36934673 13.41959799 -0.36934673 15.9765625 1.2578125 C17.29638891 3.5045399 17.09500113 4.54136633 16.5625 7.0625 C16.376875 8.361875 16.19125 9.66125 16 11 C16.66 11.66 17.32 12.32 18 13 C17.9375 16.4375 17.9375 16.4375 17 20 C11.67302391 24.21158038 6.50894222 23.21458051 0 23 C0 15.41 0 7.82 0 0 Z " fill="#359F41" transform="translate(31,135)"/>
<path d="M0 0 C1.98 0 3.96 0 6 0 C8.08203125 2.1171875 8.08203125 2.1171875 9.8125 4.875 C10.39644531 5.77992188 10.98039062 6.68484375 11.58203125 7.6171875 C12.43528678 9.05103288 13.25381536 10.50763072 14 12 C14.33 8.04 14.66 4.08 15 0 C16.65 0 18.3 0 20 0 C20 7.59 20 15.18 20 23 C18.02 23 16.04 23 14 23 C12.18103004 20.78560178 10.94963415 18.97917909 9.625 16.5 C9.27050781 15.87996094 8.91601562 15.25992188 8.55078125 14.62109375 C7.68038396 13.09201743 6.83744876 11.54736725 6 10 C5.67 14.29 5.34 18.58 5 23 C3.35 23 1.7 23 0 23 C0 15.41 0 7.82 0 0 Z " fill="#2B9B38" transform="translate(63,135)"/>
<path d="M0 0 C4.95 0 9.9 0 15 0 C15 1.65 15 3.3 15 5 C11.7 5 8.4 5 5 5 C5 6.65 5 8.3 5 10 C7.97 10 10.94 10 14 10 C14 11.32 14 12.64 14 14 C11.03 14 8.06 14 5 14 C5 15.65 5 17.3 5 19 C8.3 19 11.6 19 15 19 C15 20.65 15 22.3 15 24 C10.05 24 5.1 24 0 24 C0 16.08 0 8.16 0 0 Z " fill="#349E40" transform="translate(112,134)"/>
<path d="M0 0 C1.20849609 -0.00386719 1.20849609 -0.00386719 2.44140625 -0.0078125 C4.4375 0.125 4.4375 0.125 5.4375 1.125 C5.47813832 2.79117115 5.480221 4.45888095 5.4375 6.125 C4.15875 6.08375 2.88 6.0425 1.5625 6 C-0.58121492 5.88287127 -0.58121492 5.88287127 -2.5625 6.125 C-4.76412356 7.90869367 -4.76412356 7.90869367 -4.79296875 10.25390625 C-4.77878906 11.05699219 -4.76460937 11.86007813 -4.75 12.6875 C-4.74355469 13.49316406 -4.73710937 14.29882812 -4.73046875 15.12890625 C-4.77880912 17.12379885 -4.77880912 17.12379885 -3.5625 18.125 C-2.04780552 18.35692865 -0.52495438 18.53715238 1 18.6875 C1.82628906 18.77128906 2.65257812 18.85507813 3.50390625 18.94140625 C4.46103516 19.03228516 4.46103516 19.03228516 5.4375 19.125 C5.4375 20.775 5.4375 22.425 5.4375 24.125 C-4.5165412 24.75257528 -4.5165412 24.75257528 -8.6875 22.25 C-12.14579466 18.33059939 -11.94854495 14.97906301 -11.921875 9.8984375 C-11.36539254 5.60384463 -9.73078113 3.99154007 -6.5625 1.125 C-4.1828388 -0.0648306 -2.64764265 -0.00849966 0 0 Z " fill="#309D3D" transform="translate(141.5625,133.875)"/>
<path d="M0 0 C0.845625 0.39832031 1.69125 0.79664062 2.5625 1.20703125 C3.696875 1.73683594 4.83125 2.26664062 6 2.8125 C7.18464844 3.36808594 8.36929688 3.92367187 9.58984375 4.49609375 C12.26371335 5.67529169 14.76862338 6.57447748 17.5625 7.375 C22.28606011 9.60795569 23.12396935 12.3416437 25 17 C25.97934924 18.67888441 26.96986723 20.35178756 28 22 C17.31275513 20.71753062 9.53207854 14.21237814 2.64453125 6.33203125 C1.0865197 4.12268946 0.40698077 2.64233782 0 0 Z " fill="#F2F8F1" transform="translate(62,96)"/>
<path d="M0 0 C-0.86625 0.99 -0.86625 0.99 -1.75 2 C-3.71999763 4.62666351 -4.39106237 6.10036175 -5.4375 9.0625 C-6.88725049 12.17244863 -7.76143861 12.89578634 -10.96875 14.296875 C-13.23267783 14.95973675 -15.51348485 15.56809316 -17.80859375 16.11328125 C-20.97993034 16.99442373 -23.20391643 18.31840477 -26 20 C-26.66 19.67 -27.32 19.34 -28 19 C-22.69257397 11.2600037 -10.86006472 -3.98534485 0 0 Z " fill="#F3F9F3" transform="translate(90,35)"/>
<path d="M0 0 C0 3 0 3 -1.4609375 4.68359375 C-2.09257813 5.26238281 -2.72421875 5.84117188 -3.375 6.4375 C-5.94582115 8.80202068 -7.60084869 10.78477855 -9 14 C-7.02 14 -5.04 14 -3 14 C-5.19121252 16.19121252 -7.00059122 16.98527341 -9.8125 18.25 C-14.50633129 20.52559115 -17.03378473 22.74842478 -20 27 C-16.04 26.505 -16.04 26.505 -12 26 C-14.38793443 28.38793443 -16.7743008 29.35264001 -19.83203125 30.70703125 C-22.6750048 32.40257043 -24.73318214 34.60658848 -27 37 C-26.72274659 33.87354433 -26.42575639 30.74927534 -26.125 27.625 C-26.04636719 26.73554687 -25.96773438 25.84609375 -25.88671875 24.9296875 C-25.80292969 24.07890625 -25.71914062 23.228125 -25.6328125 22.3515625 C-25.52283936 21.17327881 -25.52283936 21.17327881 -25.41064453 19.97119141 C-25 18 -25 18 -23 16 C-22.67 18.64 -22.34 21.28 -22 24 C-19.3184721 20.92307254 -18.57912193 18.80265337 -18.3125 14.75 C-18.24675781 13.85796875 -18.18101563 12.9659375 -18.11328125 12.046875 C-18.07589844 11.37140625 -18.03851563 10.6959375 -18 10 C-17.67 10 -17.34 10 -17 10 C-16.67 11.98 -16.34 13.96 -16 16 C-10.72 10.72 -5.44 5.44 0 0 Z " fill="#E8F5E5" transform="translate(109,54)"/>
<path d="M0 0 C0 4.78231148 -2.90384101 7.52719487 -6 11 C-11.46035229 16.15873283 -17.6320582 20.19126339 -25 22 C-25.99 21.67 -26.98 21.34 -28 21 C-26.76302083 19.53515625 -25.52604167 18.0703125 -24.2890625 16.60546875 C-23.10798901 15.1344954 -22.04641471 13.56962206 -21 12 C-20.21625 11.690625 -19.4325 11.38125 -18.625 11.0625 C-15.92799312 10.18102714 -15.92799312 10.18102714 -14.2265625 8.13671875 C-11.60771544 5.62354447 -9.01780962 4.31286547 -5.75 2.75 C-4.67234375 2.22921875 -3.5946875 1.7084375 -2.484375 1.171875 C-1.66453125 0.78515625 -0.8446875 0.3984375 0 0 Z " fill="#EFF7EE" transform="translate(137,96)"/>
<path d="M0 0 C3.96 0 7.92 0 12 0 C11.01 0.495 11.01 0.495 10 1 C10 1.66 10 2.32 10 3 C8.35 3 6.7 3 5 3 C5 4.98 5 6.96 5 9 C6.65 9 8.3 9 10 9 C10 9.99 10 10.98 10 12 C8.35 12 6.7 12 5 12 C5 14.31 5 16.62 5 19 C5.94875 18.938125 6.8975 18.87625 7.875 18.8125 C8.90625 18.874375 9.9375 18.93625 11 19 C11.66 19.99 12.32 20.98 13 22 C12 23 12 23 9.27734375 23.09765625 C6.18489583 23.06510417 3.09244792 23.03255208 0 23 C0 15.41 0 7.82 0 0 Z " fill="#299936" transform="translate(31,135)"/>
<path d="M0 0 C10.23209899 1.30526776 18.58016871 7.06962017 25 15 C26.24784346 16.98980443 27.12440268 18.81100669 28 21 C23.96479403 19.41037341 19.98188718 17.71767682 16 16 C15.10869587 18.6739124 14.52268466 21.23723823 14 24 C13.67 24 13.34 24 13 24 C13 18.72 13 13.44 13 8 C10.36 8 7.72 8 5 8 C3.125 6.25 3.125 6.25 2 4 C1.608125 3.2575 1.21625 2.515 0.8125 1.75 C0.544375 1.1725 0.27625 0.595 0 0 Z " fill="#ECF6EB" transform="translate(110,34)"/>
<path d="M0 0 C1.98 0 3.96 0 6 0 C6 7.92 6 15.84 6 24 C4.02 24 2.04 24 0 24 C0 16.08 0 8.16 0 0 Z " fill="#41A44C" transform="translate(52,134)"/>
<path d="M0 0 C0.99 0.103125 1.98 0.20625 3 0.3125 C5.45416273 3.9937441 5.59384154 7.03511963 5 11.3125 C3.5 13.8125 3.5 13.8125 2 15.3125 C-2.75 14.5625 -2.75 14.5625 -5 12.3125 C-5.265625 10 -5.265625 10 -5.25 7.3125 C-5.25515625 6.425625 -5.2603125 5.53875 -5.265625 4.625 C-4.83879682 0.90908406 -3.6106969 0.37611426 0 0 Z " fill="#F5FAF5" transform="translate(160,138.6875)"/>
<path d="M0 0 C5 0 5 0 6.78515625 1.21875 C9.026468 4.50504633 8.64509026 8.19325856 8 12 C6.25 14.0625 6.25 14.0625 4 15 C2.68 15 1.36 15 0 15 C0 10.05 0 5.1 0 0 Z " fill="#F7FBF7" transform="translate(94,139)"/>
<path d="M0 0 C0.33 0 0.66 0 1 0 C1.33 2.64 1.66 5.28 2 8 C2.99 7.67 3.98 7.34 5 7 C4.67 8.32 4.34 9.64 4 11 C6.64 10.67 9.28 10.34 12 10 C9.61206557 12.38793443 7.2256992 13.35264001 4.16796875 14.70703125 C1.3249952 16.40257043 -0.73318214 18.60658848 -3 21 C-2.69385143 17.87434338 -2.37900284 14.74962377 -2.0625 11.625 C-1.97548828 10.73554687 -1.88847656 9.84609375 -1.79882812 8.9296875 C-1.71181641 8.07890625 -1.62480469 7.228125 -1.53515625 6.3515625 C-1.456604 5.56604004 -1.37805176 4.78051758 -1.29711914 3.97119141 C-1 2 -1 2 0 0 Z " fill="#DDF1D9" transform="translate(85,70)"/>
<path d="M0 0 C0.33 0 0.66 0 1 0 C1.27733386 8.5511272 0.52016163 16.58481953 -1 25 C-4.61687888 19.57468168 -4.27840459 13.33115599 -3.453125 7.0546875 C-2.84219708 4.2844454 -1.72908533 2.23340189 0 0 Z " fill="#39A146" transform="translate(122,73)"/>
<path d="M0 0 C1.23556641 0.01740234 1.23556641 0.01740234 2.49609375 0.03515625 C3.32238281 0.04417969 4.14867188 0.05320312 5 0.0625 C5.63808594 0.07410156 6.27617188 0.08570312 6.93359375 0.09765625 C7.26359375 0.75765625 7.59359375 1.41765625 7.93359375 2.09765625 C6.49902047 3.08110585 5.06081969 4.05926546 3.62109375 5.03515625 C2.82058594 5.58042969 2.02007812 6.12570313 1.1953125 6.6875 C-1.06640625 8.09765625 -1.06640625 8.09765625 -4.06640625 9.09765625 C-4.39640625 8.10765625 -4.72640625 7.11765625 -5.06640625 6.09765625 C-4.40640625 5.43765625 -3.74640625 4.77765625 -3.06640625 4.09765625 C-3.06640625 3.10765625 -3.06640625 2.11765625 -3.06640625 1.09765625 C-2.06640625 0.09765625 -2.06640625 0.09765625 0 0 Z " fill="#289936" transform="translate(93.06640625,29.90234375)"/>
<path d="M0 0 C0 0.99 0 1.98 0 3 C-0.67546875 3.19335938 -1.3509375 3.38671875 -2.046875 3.5859375 C-3.38492188 3.97652344 -3.38492188 3.97652344 -4.75 4.375 C-5.63171875 4.63023438 -6.5134375 4.88546875 -7.421875 5.1484375 C-9.76080572 5.9209934 -11.83442562 6.83625676 -14 8 C-14.99 7.01 -15.98 6.02 -17 5 C-14.9237343 3.96486753 -12.83868521 2.94733789 -10.75 1.9375 C-9.58984375 1.36902344 -8.4296875 0.80054687 -7.234375 0.21484375 C-4.09355667 -0.96485975 -3.00646952 -1.30230734 0 0 Z " fill="#37A043" transform="translate(91,31)"/>
<path d="M0 0 C3.3 1.65 6.6 3.3 10 5 C10 5.66 10 6.32 10 7 C8.20991533 7.22151549 6.41781838 7.42682213 4.625 7.625 C3.62726563 7.74101563 2.62953125 7.85703125 1.6015625 7.9765625 C0.74304688 7.98429687 -0.11546875 7.99203125 -1 8 C-1.66 7.34 -2.32 6.68 -3 6 C-2.34 5.67 -1.68 5.34 -1 5 C-0.67 3.35 -0.34 1.7 0 0 Z " fill="#2A9A38" transform="translate(91,114)"/>
<path d="M0 0 C4.56454251 0.54339792 7.9728176 1.79463821 12 4 C11.67 4.99 11.34 5.98 11 7 C9.02 7.33 7.04 7.66 5 8 C2.525 4.04 2.525 4.04 0 0 Z " fill="#F3F9F3" transform="translate(110,34)"/>
<path d="M0 0 C4.82360189 -0.19294408 8.49646738 0.24252386 13 2 C11.82421875 3.55078125 11.82421875 3.55078125 10 5 C7.51953125 4.85546875 7.51953125 4.85546875 4.8125 4.1875 C3.46091797 3.86845703 3.46091797 3.86845703 2.08203125 3.54296875 C1.39496094 3.36378906 0.70789063 3.18460937 0 3 C0 2.01 0 1.02 0 0 Z " fill="#45A750" transform="translate(125,71)"/>
<path d="M0 0 C1.98 0 3.96 0 6 0 C6.33 1.65 6.66 3.3 7 5 C4.69 5.33 2.38 5.66 0 6 C0 4.02 0 2.04 0 0 Z " fill="#F1F8F1" transform="translate(36,148)"/>
<path d="M0 0 C0.33 0.66 0.66 1.32 1 2 C1.99 2 2.98 2 4 2 C4.33 4.64 4.66 7.28 5 10 C3.35 10 1.7 10 0 10 C-1.6415049 6.7169902 -0.51888624 3.57454967 0 0 Z M-1 10 C-0.67 10.66 -0.34 11.32 0 12 C-0.99 11.67 -1.98 11.34 -3 11 C-2.34 10.67 -1.68 10.34 -1 10 Z " fill="#59B84B" transform="translate(81,92)"/>
<path d="M0 0 C0.66 0 1.32 0 2 0 C3.2890625 1.6796875 3.2890625 1.6796875 4.625 3.875 C5.29402344 4.95394531 5.29402344 4.95394531 5.9765625 6.0546875 C7 8 7 8 7 10 C5.35 10 3.7 10 2 10 C-1.07692308 4.58461538 -1.07692308 4.58461538 -0.6875 1.625 C-0.460625 1.08875 -0.23375 0.5525 0 0 Z " fill="#38A144" transform="translate(136,47)"/>
<path d="M0 0 C-0.33 1.32 -0.66 2.64 -1 4 C-8.75 3.25 -8.75 3.25 -11 1 C-7.32589215 -0.17571451 -3.83070817 -0.07366746 0 0 Z " fill="#48A853" transform="translate(76,71)"/>
<path d="M0 0 C2.16874252 0.50603992 3.99967627 0.99983813 6 2 C5.34 3.32 4.68 4.64 4 6 C3.4225 5.649375 2.845 5.29875 2.25 4.9375 C-0.35801776 3.85082593 -1.39417629 4.06934867 -4 5 C-4.33 4.01 -4.66 3.02 -5 2 C-3.68 2 -2.36 2 -1 2 C-0.67 1.34 -0.34 0.68 0 0 Z " fill="#3BA247" transform="translate(62,93)"/>
<path d="M0 0 C0.33 0 0.66 0 1 0 C1.05389087 1.95803507 1.09274217 3.91648909 1.125 5.875 C1.14820312 6.96554688 1.17140625 8.05609375 1.1953125 9.1796875 C1 12 1 12 -1 14 C-1.22331199 12.41870971 -1.42804644 10.83478911 -1.625 9.25 C-1.74101563 8.36828125 -1.85703125 7.4865625 -1.9765625 6.578125 C-2.00207817 3.77140122 -1.44843844 2.36615134 0 0 Z " fill="#46A651" transform="translate(122,73)"/>
<path d="M0 0 C1.98 0 3.96 0 6 0 C5.67 1.65 5.34 3.3 5 5 C3.35 5 1.7 5 0 5 C0 3.35 0 1.7 0 0 Z " fill="#F4F9F4" transform="translate(36,139)"/>
<path d="M0 0 C1.47906892 -0.02689216 2.95827483 -0.04634621 4.4375 -0.0625 C5.26121094 -0.07410156 6.08492187 -0.08570313 6.93359375 -0.09765625 C9 0 9 0 10 1 C10.04063832 2.66617115 10.042721 4.33388095 10 6 C8.68 5.34 7.36 4.68 6 4 C6.66 4 7.32 4 8 4 C8 3.34 8 2.68 8 2 C5.36 2 2.72 2 0 2 C0 1.34 0 0.68 0 0 Z " fill="#47A752" transform="translate(137,134)"/>
<path d="M0 0 C-0.33 0.66 -0.66 1.32 -1 2 C-3.64860427 2.59355614 -6.29197322 2.74209269 -9 3 C-9.33 2.34 -9.66 1.68 -10 1 C-6.42181037 -1.33958553 -4.07775191 -0.9267618 0 0 Z " fill="#2B9A38" transform="translate(118,118)"/>
<path d="M0 0 C2.0625 0.4375 2.0625 0.4375 4 1 C4 2.98 4 4.96 4 7 C3.01 6.67 2.02 6.34 1 6 C-0.1875 3.4375 -0.1875 3.4375 -1 1 C-0.67 0.67 -0.34 0.34 0 0 Z " fill="#289936" transform="translate(82,101)"/>
<path d="M0 0 C0.33 1.32 0.66 2.64 1 4 C-0.98 4.33 -2.96 4.66 -5 5 C-5.33 3.68 -5.66 2.36 -6 1 C-3 0 -3 0 0 0 Z " fill="#3EA349" transform="translate(77,49)"/>
<path d="M0 0 C0 0.99 0 1.98 0 3 C-3.28696233 3.79953138 -4.71023192 4.09658936 -8 3 C-8 2.34 -8 1.68 -8 1 C-5.36 0.67 -2.72 0.34 0 0 Z " fill="#3EA349" transform="translate(90,117)"/>
<path d="M0 0 C2.31 1.98 4.62 3.96 7 6 C3 7 3 7 1 6 C0.375 2.9375 0.375 2.9375 0 0 Z " fill="#299A36" transform="translate(65,103)"/>
<path d="M0 0 C2.31 0 4.62 0 7 0 C7 0.66 7 1.32 7 2 C4.69 2.33 2.38 2.66 0 3 C0 2.01 0 1.02 0 0 Z " fill="#339E3F" transform="translate(125,71)"/>
</svg>
