<?xml version="1.0" encoding="utf-8"?>
<!-- Generator: Adobe Illustrator 25.1.0, SVG Export Plug-In . SVG Version: 6.00 Build 0)  -->
<svg version="1.1" id="Layer_1" xmlns="http://www.w3.org/2000/svg" xmlns:xlink="http://www.w3.org/1999/xlink" x="0px" y="0px"
	 viewBox="0 0 200 200" style="enable-background:new 0 0 200 200;" xml:space="preserve">
<style type="text/css">
	.st0{fill:#3546EA;}
</style>
<g>
	<path class="st0" d="M97.408,199.97c-12.374-0.244-24.198-2.601-34.984-6.965c-9.604-3.883-18.571-9.373-26.762-16.388
		c-10.705-9.166-19.309-19.908-25.236-31.507c-5.765-11.28-9.117-23.41-10.117-36.64c-0.431-5.602-0.406-12.193,0.056-17.789
		c1.663-19.99,8.854-37.803,21.503-53.272c4.846-5.927,10.755-11.742,16.764-16.513C54.007,8.69,71.665,1.812,91.499,0.305
		c5.315-0.406,11.693-0.406,17.008,0c20.791,1.582,39.068,9.004,55.056,22.372c4.158,3.476,8.854,8.085,12.356,12.118
		c14.488,16.694,22.373,35.727,23.848,57.574c0.3,4.496,0.313,10.329,0.031,14.787c-1.382,21.728-9.092,40.742-23.192,57.211
		c-3.627,4.233-7.772,8.385-12.074,12.086c-11.067,9.516-23.486,16.219-36.985,19.952c-7.653,2.113-16.27,3.383-24.13,3.539
		C100.065,200.014,99.59,200.014,97.408,199.97L97.408,199.97z M101.159,172.464c5.102-0.319,9.285-2.564,12.574-6.753
		c1.369-1.751,2.432-3.895,2.964-6.003c0.688-2.707,0.707-5.915,0.05-8.66c-0.269-1.132-0.6-2.057-1.169-3.276
		c-0.569-1.219-0.632-1.313-1.957-3.051c-1.019-1.332-1.019-1.332-1.363-1.294c-0.55,0.056-2.026,0.45-2.876,0.763
		c-1.157,0.425-2.826,1.282-4.002,2.063c-1.657,1.094-2.864,2.082-4.471,3.639c-0.513,0.5-0.832,0.782-0.713,0.625
		s2.27-2.951,4.777-6.221c2.501-3.264,4.627-6.009,4.715-6.096c0.3-0.281,36.604-47.289,36.942-47.82
		c0.35-0.563,0.644-1.251,0.844-2.013c0.163-0.6,0.225-2.088,0.113-2.82c-0.225-1.569-0.863-2.857-1.938-3.933
		c-1.701-1.701-3.783-2.489-5.934-2.251c-1.795,0.2-3.133,0.825-4.296,2.013c-0.3,0.313-3.17,3.97-7.097,9.054
		c-19.015,24.617-28.275,36.578-28.319,36.578c-0.031,0-2.007-2.526-4.389-5.609c-2.382-3.089-10.192-13.212-17.358-22.497
		c-8.873-11.499-13.2-17.057-13.569-17.432c-2.507-2.539-6.322-2.864-9.229-0.788c-1.688,1.207-2.664,2.701-3.008,4.639
		c-0.15,0.838-0.106,2.295,0.094,3.014c0.175,0.644,0.425,1.244,0.75,1.794c0.25,0.419,34.816,44.919,34.978,45.031
		c0.056,0.038,1.482-0.763,4.765-2.695c2.576-1.519,4.696-2.745,4.708-2.739c0.006,0.012-2.739,3.645-6.109,8.078
		c-3.364,4.427-6.259,8.26-6.422,8.51c-0.431,0.675-1.169,2.238-1.488,3.17c-1.1,3.214-1.251,6.934-0.419,10.223
		c0.55,2.176,1.626,4.321,3.108,6.19c0.638,0.8,2.345,2.482,3.114,3.07c3.101,2.357,6.14,3.408,10.286,3.545
		C100.003,172.521,100.609,172.496,101.159,172.464L101.159,172.464z M131.954,146.11c1.601-0.263,2.858-0.9,3.952-2.013
		c0.538-0.544,23.373-30.169,23.761-30.825c0.638-1.075,0.919-2.057,0.969-3.395c0.025-0.694,0.012-1.032-0.069-1.457
		c-0.131-0.694-0.413-1.507-0.738-2.107c-0.919-1.726-2.732-3.158-4.658-3.67c-0.538-0.144-0.738-0.163-1.613-0.169
		c-1.069-0.006-1.363,0.038-2.345,0.344c-1.107,0.338-2.401,1.163-3.108,1.982c-0.675,0.775-23.285,30.094-23.554,30.538
		c-0.632,1.044-0.919,1.995-0.963,3.239c-0.044,1.351,0.206,2.632,0.725,3.658c0.969,1.932,2.97,3.445,5.115,3.87
		C130.016,146.222,131.235,146.222,131.954,146.11L131.954,146.11z M75.041,142.346c-0.713-4.033-2.232-8.354-4.452-12.712
		c-0.444-0.875-1.282-2.539-1.857-3.689s-1.301-2.539-1.613-3.083c-3.645-6.328-8.479-12.074-15.507-18.426
		c-0.925-0.838-1.594-1.238-2.639-1.588c-2.295-0.763-4.552-0.45-6.447,0.9c-1.745,1.244-2.782,2.939-3.058,4.983
		c-0.113,0.838-0.038,2.101,0.156,2.832c0.25,0.9,0.763,1.882,1.326,2.526c1.638,1.882,4.702,4.139,9.404,6.94
		c1.369,0.813,1.688,1.019,5.471,3.489c5.284,3.445,9.773,6.909,12.255,9.435c2.858,2.914,4.621,5.171,6.615,8.46
		c0.2,0.331,0.388,0.6,0.413,0.6C75.141,143.015,75.11,142.715,75.041,142.346L75.041,142.346z M100.953,111.458
		c3.458-6.934,5.434-14.15,6.14-22.466c0.131-1.519,0.213-3.133,0.319-6.409c0.1-2.926,0.138-3.326,0.438-4.377
		c0.306-1.075,1.332-2.97,2.339-4.308c1.901-2.532,3.483-3.739,6.053-4.633c0.788-0.275,0.888-0.325,0.863-0.438
		c-0.019-0.069-0.175-1.069-0.344-2.22c-0.988-6.584-2.426-13.012-4.346-19.446c-0.569-1.895-2.213-6.884-2.72-8.253
		c-0.663-1.776-1.932-4.815-2.376-5.677c-0.844-1.663-1.632-2.732-2.826-3.858c-1.113-1.05-2.032-1.488-3.702-1.782
		c-0.588-0.1-0.807-0.119-1.032-0.069c-0.156,0.038-0.582,0.119-0.944,0.181c-1.644,0.3-2.614,0.925-4.071,2.626
		c-0.819,0.95-1.895,2.657-2.445,3.889c-0.525,1.15-1.982,4.958-2.701,7.04c-2.858,8.266-5.052,17.251-6.322,25.88
		c-0.119,0.825-0.231,1.569-0.244,1.657c-0.025,0.15,0.006,0.169,0.857,0.463c2.045,0.707,3.333,1.526,4.615,2.926
		c1.463,1.594,2.213,2.651,3.12,4.383c0.957,1.832,0.994,2.026,1.063,5.609c0.1,5.152,0.256,7.447,0.757,10.986
		c0.794,5.677,2.414,11.355,4.658,16.326c0.575,1.263,1.838,3.764,1.907,3.764C100.034,113.252,100.459,112.446,100.953,111.458
		L100.953,111.458z"/>
	<path class="st0" d="M99.346,157.94c-0.944-0.25-1.644-0.907-1.92-1.813c-0.1-0.344-0.119-0.538-0.1-0.969
		c0.038-0.663,0.169-1.05,0.525-1.551c0.469-0.657,1.113-1.007,1.963-1.069c0.913-0.069,1.707,0.275,2.264,0.969
		c0.413,0.519,0.557,0.907,0.6,1.613c0.031,0.663-0.106,1.238-0.413,1.701c-0.256,0.381-0.857,0.869-1.263,1.019
		C100.578,158.002,99.777,158.052,99.346,157.94L99.346,157.94z"/>
	<path class="st0" d="M99.521,79.244c-0.9-0.2-1.363-0.769-1.363-1.694c0-0.394,0.031-0.525,0.188-0.838
		c0.331-0.657,0.75-0.957,1.426-1.019c0.963-0.088,1.757,0.488,1.982,1.432c0.05,0.219,0.038,0.375-0.075,0.838
		c-0.188,0.813-0.344,0.982-1.113,1.207C99.978,79.338,99.965,79.338,99.521,79.244z"/>
	<path class="st0" d="M94.806,77.087c-0.463-0.094-0.757-0.331-0.963-0.757c-0.413-0.844-0.069-1.851,0.744-2.188
		c0.319-0.138,0.944-0.138,1.257-0.006c0.575,0.244,0.907,0.757,0.9,1.413C96.745,76.699,95.951,77.325,94.806,77.087z"/>
	<path class="st0" d="M104.392,77.106c-0.369-0.069-0.707-0.275-0.882-0.525c-0.769-1.125-0.081-2.545,1.226-2.545
		c1.05,0,1.757,0.888,1.526,1.913C106.074,76.793,105.292,77.275,104.392,77.106z"/>
	<path class="st0" d="M97.101,73.423c-0.544-0.163-0.963-0.732-1.019-1.376c-0.063-0.688,0.256-1.282,0.838-1.544
		c0.288-0.131,0.413-0.156,0.794-0.131c0.375,0.019,0.513,0.056,0.757,0.206c0.832,0.519,0.95,1.776,0.231,2.47
		c-0.169,0.163-0.4,0.319-0.55,0.363C97.858,73.498,97.37,73.504,97.101,73.423L97.101,73.423z"/>
	<path class="st0" d="M101.828,73.404c-0.3-0.094-0.794-0.563-0.919-0.869c-0.244-0.588-0.075-1.407,0.369-1.782
		c0.356-0.3,0.694-0.406,1.194-0.381c0.863,0.044,1.401,0.569,1.457,1.444c0.025,0.419,0.013,0.481-0.188,0.857
		c-0.188,0.363-0.25,0.425-0.607,0.607c-0.319,0.169-0.463,0.206-0.744,0.2C102.191,73.473,101.941,73.442,101.828,73.404
		L101.828,73.404z"/>
	<path class="st0" d="M99.421,69.578c-0.8-0.294-1.201-1.094-0.957-1.92c0.194-0.663,1.007-1.188,1.701-1.088
		c0.344,0.044,0.813,0.281,1.038,0.519c0.381,0.4,0.475,1.182,0.213,1.744C101.103,69.503,100.171,69.853,99.421,69.578
		L99.421,69.578z"/>
	<path class="st0" d="M88.71,64.263c-0.256-0.563-0.494-1.432-0.557-2.07c-0.05-0.55,0.088-1.432,0.319-1.982
		c0.813-1.932,3.07-3.514,6.828-4.796c0.425-0.144,0.782-0.25,0.794-0.238c0.019,0.013-7.009,9.423-7.128,9.542
		C88.948,64.738,88.835,64.532,88.71,64.263L88.71,64.263z"/>
	<path class="st0" d="M109.182,62.156c-1.057-1.419-2.676-3.595-3.602-4.84c-1.688-2.257-1.688-2.257-1.144-2.088
		c1.613,0.5,3.289,1.244,4.465,1.982c0.419,0.263,1.238,0.919,1.551,1.251c0.688,0.713,1.163,1.557,1.344,2.376
		c0.219,0.994,0.025,2.357-0.494,3.464l-0.2,0.431L109.182,62.156L109.182,62.156z"/>
</g>
</svg>
