<?xml version="1.0" encoding="UTF-8"?>
<svg version="1.1" xmlns="http://www.w3.org/2000/svg" width="200" height="200">
<path d="M0 0 C66 0 132 0 200 0 C200 66 200 132 200 200 C134 200 68 200 0 200 C0 134 0 68 0 0 Z " fill="#FEFEFD" transform="translate(0,0)"/>
<path d="M0 0 C10.23 0 20.46 0 31 0 C30.67 6.27 30.34 12.54 30 19 C32.0625 19.309375 34.125 19.61875 36.25 19.9375 C42.6625 20.899375 42.6625 20.899375 45.109375 21.62890625 C47.59409626 22.1166098 49.54796485 21.5386133 52 21 C55.28357779 31.89145336 56.33343497 42.98405478 57.5625 54.25 C57.8746046 57.08335853 58.18919189 59.91635838 58.51023865 62.74871826 C58.70825649 64.49782818 58.90119917 66.24752336 59.08802795 67.99786377 C59.52361871 71.86562396 60.08295861 75.58326272 61.05834961 79.35449219 C62.02392592 83.09262688 62.30740205 86.15747442 62 90 C61.34 90.66 60.68 91.32 60 92 C60.29656494 92.61705811 60.59312988 93.23411621 60.89868164 93.86987305 C66.13292491 104.83169741 71.21949019 115.77497069 75.0625 127.3125 C75.33650635 128.1274292 75.6105127 128.9423584 75.89282227 129.78198242 C79.3123301 140.44958483 80.28819363 150.50873647 80.125 161.6875 C80.11597656 162.87794922 80.10695313 164.06839844 80.09765625 165.29492188 C80.07434772 168.19683367 80.04163123 171.09830317 80 174 C81.26972656 173.71898437 82.53945312 173.43796875 83.84765625 173.1484375 C84.56187744 172.99036621 85.27609863 172.83229492 86.01196289 172.66943359 C89.12949813 171.61966304 90.35707419 169.76011536 92 167 C94.48097338 158.91573979 93.04581791 151.70310135 90.375 143.9375 C87.23117207 134.63819869 88.25354195 126.51096579 90 117 C94.875 118.75 94.875 118.75 96 121 C95.88655624 123.1464753 95.75893655 125.29220592 95.625 127.4375 C95.39321562 134.17745861 96.96508217 139.42162913 99.5 145.625 C103.3903997 155.27057132 104.86318557 163.39168351 101.375 173.5 C99.4173402 177.67950207 97.20225518 180.90313433 93 183 C89.37699387 184.22932346 85.7360113 185.18233205 82 186 C82.33 186.66 82.66 187.32 83 188 C83.30343947 191.48955396 83.39470082 193.37505704 81.5 196.375 C81.005 196.91125 80.51 197.4475 80 198 C75.2114757 197.49058252 71.06576456 196.4107538 66.52734375 194.828125 C59.51919641 192.53179233 52.32808239 190.83273664 45 190 C45.020625 190.804375 45.04125 191.60875 45.0625 192.4375 C45 195 45 195 44 196 C37.38270607 197.35353739 30.72724312 197.0910454 24 197 C24 196.34 24 195.68 24 195 C22.35 194.67 20.7 194.34 19 194 C19 192.02 19 190.04 19 188 C12.07 185.525 12.07 185.525 5 183 C4.505 185.97 4.505 185.97 4 189 C-2.66029943 190.46201695 -7.62715208 190.0548771 -13.4375 186.4375 C-14.63295447 185.63674966 -15.8233992 184.82820472 -17 184 C-16.76693413 179.41637126 -16.60420847 176.88743119 -14 173.0625 C-10.07358581 170.36309024 -6.66762756 169.83614272 -2 170 C2.47333072 170.98282564 6.74192142 172.42916184 11.0625 173.9375 C12.21427734 174.32357422 13.36605469 174.70964844 14.55273438 175.10742188 C17.37431115 176.05575266 20.18924904 177.0201432 23 178 C22.11957031 177.443125 21.23914063 176.88625 20.33203125 176.3125 C7.32979603 167.86748017 7.32979603 167.86748017 5 161 C4.21723978 157.03546446 4.36797779 154.05337034 6.5 150.5 C10.0777523 148.35334862 13.00271874 148.33378646 17 149 C21.06930091 150.1569581 25.03747613 151.52065776 29 153 C28.22076172 152.07380859 28.22076172 152.07380859 27.42578125 151.12890625 C16 137.25323475 16 137.25323475 16 132 C13.25953494 133.56598003 10.88261847 135.10270884 8.5 137.1875 C6 139 6 139 3.375 139.4375 C1 139 1 139 -0.875 137.9375 C-2.72834523 134.74562765 -1.87397005 132.49588021 -1 129 C0.0063896 127.40925515 1.0130783 125.81869527 2.0234375 124.23046875 C3.83461025 120.09375019 3.9843877 115.567985 4.41015625 111.109375 C5 108 5 108 6.12109375 106.203125 C8 105 8 105 11.37890625 104.3828125 C15.99360947 102.62056337 16.77624369 100.79084797 18.81445312 96.4609375 C19.37036133 95.18089844 19.37036133 95.18089844 19.9375 93.875 C20.33517578 93.04484375 20.73285156 92.2146875 21.14257812 91.359375 C23.59688746 85.96918788 24.44354276 81.90935437 24 76 C22.02 76 20.04 76 18 76 C17.67 75.01 17.34 74.02 17 73 C9.15552008 78.26470851 9.15552008 78.26470851 2.625 85 C-0 88 -0 88 -2.75 88.5625 C-5 88 -5 88 -7 86 C-9.22128555 85.97691403 -9.22128555 85.97691403 -11.625 86.375 C-12.44226562 86.48585938 -13.25953125 86.59671875 -14.1015625 86.7109375 C-14.72804688 86.80632812 -15.35453125 86.90171875 -16 87 C-18.88789009 82.40247897 -18.34051149 77.38308854 -18.4609375 72.1171875 C-18.63882813 71.08851562 -18.81671875 70.05984375 -19 69 C-20.91920669 67.49082211 -20.91920669 67.49082211 -23 67 C-23.05395478 65.37536158 -23.09277195 63.75021459 -23.125 62.125 C-23.15980469 60.76761719 -23.15980469 60.76761719 -23.1953125 59.3828125 C-23 57 -23 57 -21 55 C-20.24203125 54.72671875 -19.4840625 54.4534375 -18.703125 54.171875 C-15.3653042 52.72484286 -13.36388183 50.77216668 -10.75 48.25 C-6.65744948 44.40111961 -2.64706582 41.24072309 2.22265625 38.44921875 C4.49711611 36.59465918 4.99114824 34.71101133 6 32 C8.125 31.1875 8.125 31.1875 10 31 C10.05027344 30.43023438 10.10054687 29.86046875 10.15234375 29.2734375 C11.72506017 25.05536857 16.0815949 22.97174177 19.62890625 20.4140625 C22.32820592 18.16780552 22.32820592 18.16780552 22.33984375 14.7109375 C22.22769531 13.81632813 22.11554688 12.92171875 22 12 C21.13117188 12.433125 20.26234375 12.86625 19.3671875 13.3125 C17.63855469 14.1478125 17.63855469 14.1478125 15.875 15 C14.73804688 15.556875 13.60109375 16.11375 12.4296875 16.6875 C8.98680467 18.00504969 6.64330238 18.26577282 3 18 C-0.59079779 11.26725414 0 8.59409231 0 0 Z " fill="#9C5D3A" transform="translate(56,0)"/>
<path d="M0 0 C0.33 0 0.66 0 1 0 C0.03644647 16.70842825 0.03644647 16.70842825 -1 25 C-0.21496094 24.86722656 0.57007813 24.73445313 1.37890625 24.59765625 C2.42949219 24.42105469 3.48007813 24.24445313 4.5625 24.0625 C5.59503906 23.88847656 6.62757812 23.71445313 7.69140625 23.53515625 C11.12221329 22.98023232 14.55822516 22.48176167 18 22 C30.81608892 50.15707738 30.81608892 50.15707738 35 65 C35.33773437 66.17433594 35.67546875 67.34867187 36.0234375 68.55859375 C39.10513126 81.23877402 40.15082403 97.25958986 37 110 C36.67 110.33 36.34 110.66 36 111 C36.3609375 111.50789063 36.721875 112.01578125 37.09375 112.5390625 C39.94222845 116.76430554 41.8809593 119.71424419 41 125 C40.34 125.66 39.68 126.32 39 127 C34.38414671 126.50729656 29.83140049 124.84272767 25.375 123.5625 C18.63359433 121.65191099 11.94155963 120.02441519 5 119 C4.67 120.98 4.34 122.96 4 125 C2.35 125 0.7 125 -1 125 C-1 123.02 -1 121.04 -1 119 C-1.66 121.31 -2.32 123.62 -3 126 C-5.31 126 -7.62 126 -10 126 C-10 123.69 -10 121.38 -10 119 C-10.33 121.31 -10.66 123.62 -11 126 C-12.32 126 -13.64 126 -15 126 C-15 123.36 -15 120.72 -15 118 C-15.66 120.31 -16.32 122.62 -17 125 C-18.32 124.67 -19.64 124.34 -21 124 C-20.36894662 120.90714499 -19.33730712 118.56168281 -17.6875 115.875 C-17.27886719 115.19179687 -16.87023437 114.50859375 -16.44921875 113.8046875 C-14.74392397 111.68111287 -13.56124155 110.91209681 -11 110 C-0.2196495 108.88081857 11.22257709 110.32384122 21 115 C21.99 115 22.98 115 24 115 C23.23816406 114.67128906 22.47632813 114.34257812 21.69140625 114.00390625 C10.48392211 108.84090794 2.0765551 101.44467193 -3 90 C-3.93509325 86.9405667 -4.75310932 84.14713976 -4 81 C-1.11532139 77.77029121 0.60240598 77.05024322 4.92578125 76.50390625 C6.3881384 76.49777095 7.85079978 76.51824478 9.3125 76.5625 C10.07216064 76.57643799 10.83182129 76.59037598 11.61450195 76.60473633 C20.67425994 76.90409546 26.54628379 79.54628379 33 86 C32.80528889 84.05000871 32.80528889 84.05000871 32 82 C30.17545048 80.94133151 30.17545048 80.94133151 28 80 C27.33484375 79.64679688 26.6696875 79.29359375 25.984375 78.9296875 C20.53741536 76.35857019 15.69561385 75.60210101 9.75 75.5625 C8.74018066 75.54775635 8.74018066 75.54775635 7.70996094 75.53271484 C3.11683741 75.61104542 -0.10474856 76.58612449 -4 79 C-5.84643153 82.69286306 -5.11884276 86.19907157 -4 90 C-0.06684647 97.2431531 4.64814969 103.74668554 10 110 C9.38479492 109.96447021 8.76958984 109.92894043 8.13574219 109.89233398 C5.34080808 109.73445342 2.54545377 109.58588254 -0.25 109.4375 C-1.21808594 109.38142578 -2.18617187 109.32535156 -3.18359375 109.26757812 C-4.11816406 109.21923828 -5.05273438 109.17089844 -6.015625 109.12109375 C-6.87446289 109.0739624 -7.73330078 109.02683105 -8.61816406 108.97827148 C-10.99487936 108.89501585 -10.99487936 108.89501585 -13.17480469 109.61743164 C-14.07827637 109.80680298 -14.07827637 109.80680298 -15 110 C-17.1875 108 -17.1875 108 -18.4453125 106.59375 C-20.33372712 104.65788778 -22.39713441 103.11869952 -24.5625 101.5 C-29.27317096 97.8553045 -32.83853599 94.99051438 -34 88.9375 C-34 85 -34 85 -32.5625 82.4375 C-28.79551954 80.32431584 -26.00698094 81.05163931 -22 82 C-20.90945312 82.20496094 -19.81890625 82.40992188 -18.6953125 82.62109375 C-15.15926439 83.44407154 -12.19796387 84.27221119 -9 86 C-7.04774586 89.23850491 -6.36414903 92.25854722 -6 96 C-6.20625 94.72125 -6.4125 93.4425 -6.625 92.125 C-8.5533935 83.52139822 -13.99152665 76.71304629 -19.484375 70.0078125 C-22.19012651 66.42338911 -23.08343045 64.83430449 -22.625 60.25 C-22.41875 59.1775 -22.2125 58.105 -22 57 C-20.515 56.505 -20.515 56.505 -19 56 C-18.67 58.31 -18.34 60.62 -18 63 C-16.10306139 62.71561048 -14.20747973 62.42216208 -12.3125 62.125 C-11.25675781 61.96257812 -10.20101562 61.80015625 -9.11328125 61.6328125 C-6.20205086 61.04106931 -3.71044393 60.1968194 -1 59 C0.12148437 60.26457031 0.12148437 60.26457031 1.265625 61.5546875 C2.26009916 62.66174364 3.25490849 63.76849875 4.25 64.875 C4.74113281 65.43058594 5.23226562 65.98617187 5.73828125 66.55859375 C9.31700647 70.57050965 9.31700647 70.57050965 14 73 C17.31550202 72.72455805 17.31550202 72.72455805 20 71 C21.15312777 59.99802689 18.51330412 49.62544196 16 39 C16.12117188 39.64324219 16.24234375 40.28648438 16.3671875 40.94921875 C16.92621127 43.96364692 17.46515688 46.98118746 18 50 C18.20238281 51.11503906 18.40476563 52.23007813 18.61328125 53.37890625 C19.60444616 59.19778595 20.44313954 64.22744185 19 70 C18.67 70.33 18.34 70.66 18 71 C12.21886698 70.77356639 8.99870245 69.06711374 5.0625 65 C4.57740967 64.51104248 4.09231934 64.02208496 3.5925293 63.51831055 C0.69197336 60.37311099 -0.71486649 58.11588033 -0.6875 53.8125 C-0.460625 52.554375 -0.23375 51.29625 0 50 C1.11177467 50.88637378 2.21406614 51.7846465 3.3125 52.6875 C3.92738281 53.18636719 4.54226562 53.68523437 5.17578125 54.19921875 C7 56 7 56 10 61 C9.505 52.09 9.505 52.09 9 43 C9 47.29 9 51.58 9 56 C2.25 50.25 2.25 50.25 0 48 C-0.09584834 46.56509392 -0.12983393 45.12559561 -0.125 43.6875 C-0.38758933 40.82665839 -0.57872729 39.4508357 -2.55859375 37.33203125 C-7.23575235 34.22304278 -11.44519395 33.2975789 -17 33 C-17.99 35.475 -17.99 35.475 -19 38 C-19.33 36.68 -19.66 35.36 -20 34 C-20.66 34 -21.32 34 -22 34 C-20.80910917 29.99427629 -19.23062255 26.32494789 -17.4375 22.5625 C-15.76043213 19.04161035 -15.00347376 17.20842587 -14.9375 13.25 C-13.45032532 8.0944611 -9.30643451 6.68794471 -4.78515625 4.1875 C-3.86605469 3.795625 -2.94695312 3.40375 -2 3 C-1.34 3.33 -0.68 3.66 0 4 C0 2.68 0 1.36 0 0 Z " fill="#A4623B" transform="translate(96,69)"/>
<path d="M0 0 C1 3.875 1 3.875 1 5 C1.66 5.33 2.32 5.66 3 6 C-1.53669968 9.01679014 -5.68972746 11.53967505 -11 13 C-10.9071875 13.59683594 -10.814375 14.19367188 -10.71875 14.80859375 C-9.88933538 24.77638016 -14.49993576 32.43179733 -19 41 C-18.01 41.33 -17.02 41.66 -16 42 C-15.34 41.01 -14.68 40.02 -14 39 C-7.30602942 39.35860557 -1.86261324 41.13738676 3 46 C3.05309637 47.37460608 3.09236709 48.74975595 3.125 50.125 C3.66080143 56.00001568 6.64078171 58.27484983 11 62 C11 57.05 11 52.1 11 47 C15.37670357 53.56505535 14.14996503 63.31845778 14 71 C12 68 12 68 10.6875 65.5625 C8.80632199 62.70589636 6.74829392 61.00551178 4 59 C3.62439598 63.16766108 3.53836079 65.32565379 5.94140625 68.8359375 C6.80636719 69.67382812 7.67132813 70.51171875 8.5625 71.375 C9.40941406 72.22835937 10.25632812 73.08171875 11.12890625 73.9609375 C14.48900998 76.34729689 16.93157604 76.72843647 21 77 C22.09050824 71.46021816 21.75692388 67.12494945 20.625 61.625 C20.33772292 60.12931204 20.05254685 58.63321892 19.76953125 57.13671875 C19.63369629 56.42563965 19.49786133 55.71456055 19.35791016 54.98193359 C18.69976905 51.33746601 18.33507826 47.68586087 18 44 C21.04932262 47.04932262 21.26798137 50.67269799 22.125 54.8125 C22.30168213 55.66457031 22.47836426 56.51664063 22.66040039 57.39453125 C23.98146376 64.14536204 25.20386881 71.14553976 24 78 C22.640625 79.8359375 22.640625 79.8359375 21 81 C16.56583647 81.20624016 14.18633438 79.57707416 10.9375 76.8125 C7.64577805 73.75454717 4.76218153 70.53904508 2 67 C1.443125 67.20496094 0.88625 67.40992188 0.3125 67.62109375 C-4.83617554 69.43878495 -9.56276016 70.50570547 -15 71 C-15.66 68.69 -16.32 66.38 -17 64 C-17.66 64 -18.32 64 -19 64 C-20.16373566 71.48115783 -16.23510627 76.10656899 -12 82 C-10.92321674 83.42165163 -9.84054031 84.83887372 -8.75 86.25 C-3.78146311 92.79521927 -2.46935329 98.95625567 -2 107 C-4.62451617 104.37548383 -4.5832868 102.5122172 -5.125 98.875 C-5.37636719 97.23144531 -5.37636719 97.23144531 -5.6328125 95.5546875 C-5.75398438 94.71164063 -5.87515625 93.86859375 -6 93 C-6.969375 92.896875 -7.93875 92.79375 -8.9375 92.6875 C-11.9836171 92.27519728 -14.62566801 91.45472334 -17.5 90.375 C-21.79561429 88.84979904 -24.59156792 88.9682393 -29 90 C-30.00566949 94.10648377 -30.21082275 96.44784518 -28.6875 100.4375 C-25.07798099 106.04808568 -19.08327339 109.85420838 -13.6875 113.609375 C-12.8521875 114.29773438 -12.8521875 114.29773438 -12 115 C-12 115.66 -12 116.32 -12 117 C-11.42378906 116.67386719 -10.84757812 116.34773438 -10.25390625 116.01171875 C-3.77745861 113.10461314 5.15958284 115.28399372 12 116 C11.49210937 115.46632813 10.98421875 114.93265625 10.4609375 114.3828125 C4.01668733 107.40757543 -2.76438595 99.89909474 -3.30859375 89.98046875 C-3 88 -3 88 -0.75 85 C5.35663699 80.55880946 13.71825545 81.32262841 21 82 C27.18101523 83.43237633 32.08948985 85.86745543 36 91 C37.3125 94.3125 37.3125 94.3125 38 97 C36.16402251 95.25582139 34.68160086 93.56082877 33.1875 91.5 C29.84069322 87.67507797 25.89556358 86.03247668 21 85 C18.15330628 84.85430308 15.34689646 84.76933376 12.5 84.75 C11.74074219 84.729375 10.98148437 84.70875 10.19921875 84.6875 C6.9208346 84.66453409 4.43511527 84.78143047 1.48046875 86.265625 C-0.12517625 87.87256873 -0.12517625 87.87256873 -0.41796875 89.875 C0.57736828 99.05234484 6.15984935 107.09416472 12.76953125 113.37109375 C16.82278733 116.33117744 21.35606108 118.40892504 25.890625 120.51953125 C29 122 29 122 32 124 C27.08493345 123.56885381 23.59320289 122.85173498 19.09375 120.765625 C10.86600715 117.75697276 -2.56333265 115.49555524 -10.73046875 119.2578125 C-13.21341472 121.1638261 -13.89561827 122.24382706 -14.8125 125.1875 C-15.204375 126.445625 -15.59625 127.70375 -16 129 C-16.53109375 128.38640625 -17.0621875 127.7728125 -17.609375 127.140625 C-20.39822022 124.64342373 -22.68562656 123.83480931 -26.25 122.75 C-27.32765625 122.41484375 -28.4053125 122.0796875 -29.515625 121.734375 C-30.74539062 121.37085938 -30.74539062 121.37085938 -32 121 C-32.33 122.98 -32.66 124.96 -33 127 C-39.66029943 128.46201695 -44.62715208 128.0548771 -50.4375 124.4375 C-51.63295447 123.63674966 -52.8233992 122.82820472 -54 122 C-53.76693413 117.41637126 -53.60420847 114.88743119 -51 111.0625 C-47.07358581 108.36309024 -43.66762756 107.83614272 -39 108 C-34.52666928 108.98282564 -30.25807858 110.42916184 -25.9375 111.9375 C-24.20983398 112.51661133 -24.20983398 112.51661133 -22.44726562 113.10742188 C-19.62568885 114.05575266 -16.81075096 115.0201432 -14 116 C-14.88042969 115.443125 -15.76085937 114.88625 -16.66796875 114.3125 C-29.67020397 105.86748017 -29.67020397 105.86748017 -32 99 C-32.78276022 95.03546446 -32.63202221 92.05337034 -30.5 88.5 C-26.9222477 86.35334862 -23.99728126 86.33378646 -20 87 C-15.93069909 88.1569581 -11.96252387 89.52065776 -8 91 C-8.77923828 90.07380859 -8.77923828 90.07380859 -9.57421875 89.12890625 C-21 75.25323475 -21 75.25323475 -21 70 C-23.74046506 71.56598003 -26.11738153 73.10270884 -28.5 75.1875 C-31 77 -31 77 -33.625 77.4375 C-36 77 -36 77 -37.875 75.9375 C-39.72834523 72.74562765 -38.87397005 70.49588021 -38 67 C-36.9936104 65.40925515 -35.9869217 63.81869527 -34.9765625 62.23046875 C-33.16538975 58.09375019 -33.0156123 53.567985 -32.58984375 49.109375 C-32 46 -32 46 -30.87890625 44.203125 C-29 43 -29 43 -25.62109375 42.3828125 C-21.00639053 40.62056337 -20.22375631 38.79084797 -18.18554688 34.4609375 C-17.81494141 33.60757813 -17.44433594 32.75421875 -17.0625 31.875 C-16.66482422 31.04484375 -16.26714844 30.2146875 -15.85742188 29.359375 C-13.40311254 23.96918788 -12.55645724 19.90935437 -13 14 C-14.98 14 -16.96 14 -19 14 C-19 13.01 -19 12.02 -19 11 C-18.175 11.2475 -17.35 11.495 -16.5 11.75 C-11.78555611 12.08674599 -8.97885024 10.35297489 -5 8 C-5 7.34 -5 6.68 -5 6 C-4.02246356 4.97803008 -3.0194119 3.98020375 -2 3 C-1.34 2.01 -0.68 1.02 0 0 Z " fill="#2E140C" transform="translate(93,62)"/>
<path d="M0 0 C10.23 0 20.46 0 31 0 C30.67 6.27 30.34 12.54 30 19 C32.0625 19.309375 34.125 19.61875 36.25 19.9375 C42.6625 20.899375 42.6625 20.899375 45.109375 21.62890625 C47.59409626 22.1166098 49.54796485 21.5386133 52 21 C55.28357779 31.89145336 56.33343497 42.98405478 57.5625 54.25 C57.8746046 57.08335853 58.18919189 59.91635838 58.51023865 62.74871826 C58.70825649 64.49782818 58.90119917 66.24752336 59.08802795 67.99786377 C59.52361871 71.86562396 60.08295861 75.58326272 61.05834961 79.35449219 C62.02392592 83.09262688 62.30740205 86.15747442 62 90 C61.34 90.66 60.68 91.32 60 92 C60.29656494 92.61705811 60.59312988 93.23411621 60.89868164 93.86987305 C66.13292491 104.83169741 71.21949019 115.77497069 75.0625 127.3125 C75.33650635 128.1274292 75.6105127 128.9423584 75.89282227 129.78198242 C79.3123301 140.44958483 80.28819363 150.50873647 80.125 161.6875 C80.11597656 162.87794922 80.10695313 164.06839844 80.09765625 165.29492188 C80.07434772 168.19683367 80.04163123 171.09830317 80 174 C81.26972656 173.71898437 82.53945312 173.43796875 83.84765625 173.1484375 C84.56187744 172.99036621 85.27609863 172.83229492 86.01196289 172.66943359 C89.12949813 171.61966304 90.35707419 169.76011536 92 167 C94.48097338 158.91573979 93.04581791 151.70310135 90.375 143.9375 C87.23117207 134.63819869 88.25354195 126.51096579 90 117 C94.875 118.75 94.875 118.75 96 121 C95.88655624 123.1464753 95.75893655 125.29220592 95.625 127.4375 C95.39321562 134.17745861 96.96508217 139.42162913 99.5 145.625 C103.3903997 155.27057132 104.86318557 163.39168351 101.375 173.5 C99.4173402 177.67950207 97.20225518 180.90313433 93 183 C89.37699387 184.22932346 85.7360113 185.18233205 82 186 C82.33 186.66 82.66 187.32 83 188 C83.30343947 191.48955396 83.39470082 193.37505704 81.5 196.375 C81.005 196.91125 80.51 197.4475 80 198 C75.2114757 197.49058252 71.06576456 196.4107538 66.52734375 194.828125 C59.51919641 192.53179233 52.32808239 190.83273664 45 190 C45.020625 190.804375 45.04125 191.60875 45.0625 192.4375 C45 195 45 195 44 196 C37.38270607 197.35353739 30.72724312 197.0910454 24 197 C24 196.34 24 195.68 24 195 C22.35 194.67 20.7 194.34 19 194 C19.66 193.67 20.32 193.34 21 193 C21.66 193.33 22.32 193.66 23 194 C23.185625 192.2984375 23.185625 192.2984375 23.375 190.5625 C23.684375 188.7990625 23.684375 188.7990625 24 187 C24.66 186.67 25.32 186.34 26 186 C25.67 188.97 25.34 191.94 25 195 C26.32 195 27.64 195 29 195 C29 192.69 29 190.38 29 188 C29.66 187.67 30.32 187.34 31 187 C30.67 189.64 30.34 192.28 30 195 C32.31 194.67 34.62 194.34 37 194 C37.33 191.69 37.66 189.38 38 187 C38.66 187.33 39.32 187.66 40 188 C39.505 190.97 39.505 190.97 39 194 C40.65 194 42.3 194 44 194 C44 191.69 44 189.38 44 187 C53.18284865 188.57420262 62.08618086 190.42683274 71.01171875 193.1328125 C73.67504134 193.90569827 76.25648598 194.59465198 79 195 C80.2916351 193.91526588 80.2916351 193.91526588 80.3125 191.3125 C79.92869447 187.24416142 78.37237738 185.2620189 76 182 C76 181.34 76 180.68 76 180 C75.34 180 74.68 180 74 180 C74.33 179.34 74.66 178.68 75 178 C75.66 178.33 76.32 178.66 77 179 C77.82826055 147.00047204 71.77729642 121.96592565 58 93 C57.67 92.67 57.34 92.34 57 92 C55.65564978 92.26106801 54.32356743 92.5859274 53 92.9375 C48.21801125 94.08118591 43.90469684 94.15570466 39 94 C38.81963406 86.66913728 39.51554641 79.64407563 40.4609375 72.37890625 C40.68688095 70.60724342 40.68688095 70.60724342 40.91738892 68.79978943 C41.23563274 66.31935719 41.55683997 63.83930353 41.88085938 61.35961914 C42.37642312 57.55156435 42.85663862 53.74177268 43.3359375 49.93164062 C43.64751126 47.51810941 43.9599795 45.10469347 44.2734375 42.69140625 C44.41623138 41.54877823 44.55902527 40.40615021 44.70614624 39.22889709 C44.84614044 38.17697678 44.98613464 37.12505646 45.13037109 36.04125977 C45.31024063 34.64968407 45.31024063 34.64968407 45.4937439 33.22999573 C46 31 46 31 48 29 C47.38092637 42.400563 45.6453323 55.64003224 43.9375 68.9375 C43.65259033 71.18158931 43.36808209 73.42572963 43.08398438 75.66992188 C42.39394568 81.11387983 41.69849172 86.55712043 41 92 C46.94 90.68 52.88 89.36 59 88 C58.1777379 80.57951681 58.1777379 80.57951681 57.1015625 73.22265625 C55.79383987 64.88744089 54.75432405 56.52098528 53.71289062 48.14916992 C53.37168361 45.41088499 53.0258263 42.67321228 52.6796875 39.93554688 C52.46065928 38.18493062 52.24189932 36.43428078 52.0234375 34.68359375 C51.86879532 33.46330727 51.86879532 33.46330727 51.71102905 32.21836853 C51.28578718 28.77383617 51 25.4767682 51 22 C50.01 22.66 49.02 23.32 48 24 C46.08984375 24.046875 46.08984375 24.046875 43.9375 23.75 C43.14472656 23.64300781 42.35195312 23.53601563 41.53515625 23.42578125 C38.96480213 22.99408849 36.42442245 22.47852247 33.875 21.9375 C26.86984897 20.22866662 26.86984897 20.22866662 20.23828125 22.12109375 C18.75944974 23.33794113 17.37080376 24.66263048 16 26 C16.66 26.99 17.32 27.98 18 29 C16.02 29 14.04 29 12 29 C12 29.66 12 30.32 12 31 C12.66 31.33 13.32 31.66 14 32 C12.02 32 10.04 32 8 32 C8.66 31.67 9.32 31.34 10 31 C10.09152344 30.40960937 10.18304688 29.81921875 10.27734375 29.2109375 C11.65134187 25.00724595 16.16058839 22.91478595 19.62890625 20.4140625 C22.32820592 18.16780552 22.32820592 18.16780552 22.33984375 14.7109375 C22.22769531 13.81632813 22.11554688 12.92171875 22 12 C21.13117188 12.433125 20.26234375 12.86625 19.3671875 13.3125 C18.21476562 13.869375 17.06234375 14.42625 15.875 15 C14.16957031 15.8353125 14.16957031 15.8353125 12.4296875 16.6875 C8.98680467 18.00504969 6.64330238 18.26577282 3 18 C-0.59079779 11.26725414 0 8.59409231 0 0 Z " fill="#1B0E0C" transform="translate(56,0)"/>
<path d="M0 0 C2.64 0 5.28 0 8 0 C8.33 0.99 8.66 1.98 9 3 C8.01 3.33 7.02 3.66 6 4 C5.67 4.99 5.34 5.98 5 7 C6.65 6.67 8.3 6.34 10 6 C10.928125 7.2065625 10.928125 7.2065625 11.875 8.4375 C13.74164041 11.03874519 13.74164041 11.03874519 16 12 C17.54023996 12.06950541 19.08334988 12.08452357 20.625 12.0625 C21.44226563 12.05347656 22.25953125 12.04445313 23.1015625 12.03515625 C23.72804687 12.02355469 24.35453125 12.01195312 25 12 C24.79375 12.61875 24.5875 13.2375 24.375 13.875 C24.189375 14.926875 24.189375 14.926875 24 16 C24.66 16.66 25.32 17.32 26 18 C24.68 18.33 23.36 18.66 22 19 C22.99 19.66 23.98 20.32 25 21 C21.61962579 27.22954676 17.21973472 31.97863914 12.0625 36.75 C11.18537354 37.56343872 11.18537354 37.56343872 10.29052734 38.39331055 C7.38993792 41.02239834 4.45395966 43.44281268 1.2421875 45.68359375 C-1.28557962 47.48957677 -3.0796492 48.89166411 -4.9375 51.3125 C-5.618125 52.199375 -6.29875 53.08625 -7 54 C-9.29296875 53.90234375 -9.29296875 53.90234375 -12 53 C-13.80078125 50.12890625 -13.80078125 50.12890625 -15.3125 46.5625 C-15.82425781 45.38816406 -16.33601563 44.21382812 -16.86328125 43.00390625 C-18 40 -18 40 -18 38 C-17.05125 37.566875 -16.1025 37.13375 -15.125 36.6875 C-11.79958063 35.20697799 -11.79958063 35.20697799 -10 32 C-9.83286431 29.37468476 -9.83286431 29.37468476 -10 27 C-13.99000166 25.57499941 -17.80530429 24.59924224 -22 24 C-21.23660323 17.97461835 -15.43554049 14.57584303 -11 11 C-8.64024242 9.4149821 -6.27268025 7.907765 -3.8125 6.484375 C-1.514962 4.6027706 -0.89857796 2.78933575 0 0 Z " fill="#A5623A" transform="translate(62,32)"/>
<path d="M0 0 C4.875 1.75 4.875 1.75 6 4 C5.88655624 6.1464753 5.75893655 8.29220592 5.625 10.4375 C5.39321562 17.17745861 6.96508217 22.42162913 9.5 28.625 C13.3903997 38.27057132 14.86318557 46.39168351 11.375 56.5 C9.4173402 60.67950207 7.20225518 63.90313433 3 66 C-0.62300613 67.22932346 -4.2639887 68.18233205 -8 69 C-7.67 69.66 -7.34 70.32 -7 71 C-6.69656053 74.48955396 -6.60529918 76.37505704 -8.5 79.375 C-8.995 79.91125 -9.49 80.4475 -10 81 C-14.7885243 80.49058252 -18.93423544 79.4107538 -23.47265625 77.828125 C-30.48080359 75.53179233 -37.67191761 73.83273664 -45 73 C-44.979375 73.804375 -44.95875 74.60875 -44.9375 75.4375 C-45 78 -45 78 -46 79 C-52.61729393 80.35353739 -59.27275688 80.0910454 -66 80 C-66 79.34 -66 78.68 -66 78 C-67.65 77.67 -69.3 77.34 -71 77 C-70.01 76.505 -70.01 76.505 -69 76 C-68.34 76.33 -67.68 76.66 -67 77 C-66.87625 75.865625 -66.7525 74.73125 -66.625 73.5625 C-66.41875 72.386875 -66.2125 71.21125 -66 70 C-65.01 69.505 -65.01 69.505 -64 69 C-64.33 71.97 -64.66 74.94 -65 78 C-63.68 78 -62.36 78 -61 78 C-61 75.69 -61 73.38 -61 71 C-60.01 70.505 -60.01 70.505 -59 70 C-59.33 72.64 -59.66 75.28 -60 78 C-56.535 77.505 -56.535 77.505 -53 77 C-52.67 74.69 -52.34 72.38 -52 70 C-51.34 70.33 -50.68 70.66 -50 71 C-50.33 72.98 -50.66 74.96 -51 77 C-49.35 77 -47.7 77 -46 77 C-46 74.69 -46 72.38 -46 70 C-36.81715135 71.57420262 -27.91381914 73.42683274 -18.98828125 76.1328125 C-16.32495866 76.90569827 -13.74351402 77.59465198 -11 78 C-9.7083649 76.91526588 -9.7083649 76.91526588 -9.6875 74.3125 C-10.07130553 70.24416142 -11.62762262 68.2620189 -14 65 C-14 64.34 -14 63.68 -14 63 C-14.66 63 -15.32 63 -16 63 C-15.505 62.01 -15.505 62.01 -15 61 C-14.01 61.495 -14.01 61.495 -13 62 C-12.67 53.75 -12.34 45.5 -12 37 C-11.67 37 -11.34 37 -11 37 C-10.67 43.6 -10.34 50.2 -10 57 C-2.43409239 55.82155557 -2.43409239 55.82155557 0.4375 52.625 C3.6951959 47.15207088 3.69256359 41.21864389 3 35 C2.23627838 32.27464526 1.29531516 29.61338464 0.375 26.9375 C-2.76882793 17.63819869 -1.74645805 9.51096579 0 0 Z " fill="#361F18" transform="translate(146,117)"/>
<path d="M0 0 C0.33 0 0.66 0 1 0 C1.07072723 0.59833145 1.14145447 1.1966629 1.21432495 1.81312561 C1.95386802 8.05976483 2.70144166 14.30540622 3.45361328 20.55053711 C3.73300466 22.87906838 4.01037122 25.20784355 4.28564453 27.53686523 C4.68245484 30.89113002 5.0866211 34.24444029 5.4921875 37.59765625 C5.6131076 38.63334244 5.73402771 39.66902863 5.85861206 40.73609924 C6.50617378 46.02832497 7.43423389 50.90812193 9 56 C9.125 58.9375 9.125 58.9375 9 61 C2.62474043 63.76662208 -3.09277276 64.58266251 -10 65 C-9.44835478 54.13222634 -8.42643771 43.41082592 -7 32.625 C-6.64368194 29.88829721 -6.29021135 27.15123223 -5.9375 24.4140625 C-5.69193359 22.50995605 -5.69193359 22.50995605 -5.44140625 20.56738281 C-4.88265933 16.05166936 -4.41059622 11.53141554 -4 7 C-2.68 6.67 -1.36 6.34 0 6 C0 4.02 0 2.04 0 0 Z " fill="#A3633D" transform="translate(107,27)"/>
<path d="M0 0 C1.63582031 0.27263672 1.63582031 0.27263672 3.3046875 0.55078125 C6.94031771 1.34025552 9.78605527 2.11180747 13 4 C15.0016019 7.91459122 15.6504742 11.64120766 16 16 C16.66 15.34 17.32 14.68 18 14 C18.86646667 15.43011973 19.71781829 16.86940619 20.5625 18.3125 C21.27599609 19.51326172 21.27599609 19.51326172 22.00390625 20.73828125 C23 23 23 23 22 26 C21.25234375 26.06058594 20.5046875 26.12117188 19.734375 26.18359375 C18.25710937 26.30927734 18.25710937 26.30927734 16.75 26.4375 C15.28820312 26.55931641 15.28820312 26.55931641 13.796875 26.68359375 C11.0657152 26.90987267 11.0657152 26.90987267 8.77734375 27.66015625 C8.19082031 27.77230469 7.60429688 27.88445312 7 28 C4.8125 26 4.8125 26 3.5546875 24.59375 C1.66627288 22.65788778 -0.39713441 21.11869952 -2.5625 19.5 C-7.27317096 15.8553045 -10.83853599 12.99051438 -12 6.9375 C-12 3 -12 3 -10.5625 0.4375 C-6.7903279 -1.67859655 -4.01200124 -0.93697208 0 0 Z " fill="#A5643F" transform="translate(74,151)"/>
<path d="M0 0 C0.495 1.98 0.495 1.98 1 4 C0.01 4 -0.98 4 -2 4 C-2.433125 4.9590625 -2.433125 4.9590625 -2.875 5.9375 C-4 8 -4 8 -6 9 C-6.65213292 11.02463255 -6.65213292 11.02463255 -7 13 C-7.66 13 -8.32 13 -9 13 C-11.12153042 14.85633912 -12.41328692 16.61993038 -14 19 C-14.66 19 -15.32 19 -16 19 C-17.11528929 20.11528929 -18.22505969 21.23644663 -19.3125 22.37890625 C-21.42038812 24.40384507 -23.69029925 26.14679451 -26 27.9375 C-28.99592763 30.27654276 -31.54202055 32.45107045 -33.8125 35.5 C-36 38 -36 38 -38.6875 38.5 C-41 38 -41 38 -43 36 C-45.22128555 35.97691403 -45.22128555 35.97691403 -47.625 36.375 C-48.44226562 36.48585937 -49.25953125 36.59671875 -50.1015625 36.7109375 C-51.04128906 36.85402344 -51.04128906 36.85402344 -52 37 C-54.88789009 32.40247897 -54.34051149 27.38308854 -54.4609375 22.1171875 C-54.63882813 21.08851562 -54.81671875 20.05984375 -55 19 C-56.91920669 17.49082211 -56.91920669 17.49082211 -59 17 C-59.05395478 15.37536158 -59.09277195 13.75021459 -59.125 12.125 C-59.14820313 11.22007813 -59.17140625 10.31515625 -59.1953125 9.3828125 C-59 7 -59 7 -57 5 C-54.375 4.375 -54.375 4.375 -52 4 C-52 4.66 -52 5.32 -52 6 C-51.22914062 6.04898438 -50.45828125 6.09796875 -49.6640625 6.1484375 C-48.66117188 6.22320312 -47.65828125 6.29796875 -46.625 6.375 C-45.12839844 6.47941406 -45.12839844 6.47941406 -43.6015625 6.5859375 C-41 7 -41 7 -39 9 C-39 14.20571429 -39 14.20571429 -40 17 C-42.76217341 18.8806287 -44.62963578 20 -48 20 C-45.69 24.95 -43.38 29.9 -41 35 C-35.3536516 33.87073032 -35.19465055 33.32291999 -32 29 C-30.53867662 27.74516797 -29.03599413 26.53723556 -27.5 25.375 C-23.42760976 22.17871745 -19.48030896 18.8899268 -15.625 15.4375 C-14.64789063 14.56996094 -13.67078125 13.70242187 -12.6640625 12.80859375 C-9.70342709 9.68733736 -7.98052141 6.79678157 -6 3 C-6.66 3 -7.32 3 -8 3 C-8 2.34 -8 1.68 -8 1 C-5.29120665 -0.35439668 -2.99066732 -0.06501451 0 0 Z " fill="#1F0F0B" transform="translate(92,50)"/>
<path d="M0 0 C0.33 0 0.66 0 1 0 C0.03644647 16.70842825 0.03644647 16.70842825 -1 25 C-0.21496094 24.86722656 0.57007812 24.73445313 1.37890625 24.59765625 C6.91187987 23.66757357 12.44073841 22.75808113 18 22 C18.495 23.485 18.495 23.485 19 25 C2.29157175 29.77676538 2.29157175 29.77676538 -6 28 C-5.67 28.66 -5.34 29.32 -5 30 C-5.4375 32.125 -5.4375 32.125 -6 34 C-4.515 34.495 -4.515 34.495 -3 35 C-3.99 35.495 -3.99 35.495 -5 36 C-6.73259244 35.24812026 -8.46398226 34.49278013 -10.1796875 33.703125 C-12.51553415 32.80086664 -14.52334423 32.77484948 -17 33 C-17.99 35.475 -17.99 35.475 -19 38 C-19.33 36.68 -19.66 35.36 -20 34 C-20.66 34 -21.32 34 -22 34 C-20.80910917 29.99427629 -19.23062255 26.32494789 -17.4375 22.5625 C-15.76043213 19.04161035 -15.00347376 17.20842587 -14.9375 13.25 C-13.45032532 8.0944611 -9.30643451 6.68794471 -4.78515625 4.1875 C-3.86605469 3.795625 -2.94695312 3.40375 -2 3 C-1.34 3.33 -0.68 3.66 0 4 C0 2.68 0 1.36 0 0 Z " fill="#A5613A" transform="translate(96,69)"/>
<path d="M0 0 C9.9 0 19.8 0 30 0 C29.67 6.27 29.34 12.54 29 19 C27.35 18.67 25.7 18.34 24 18 C24 14.7 24 11.4 24 8 C21.96710698 8 19.96600609 9.84186764 18.3125 10.875 C9.30765209 16.3009981 9.30765209 16.3009981 4.125 15.625 C3.42375 15.41875 2.7225 15.2125 2 15 C0.11429951 9.34289852 0 6.52530629 0 0 Z " fill="#A4623C" transform="translate(57,0)"/>
<path d="M0 0 C6.17764408 0.27456196 10.17789247 1.02176128 15 5 C16.58477083 8.16954167 15.90902946 11.48710286 15.6875 14.9375 C15.65205078 15.66646484 15.61660156 16.39542969 15.58007812 17.14648438 C15.35111939 20.87475266 15.11171227 22.83243159 13 26 C9.9609375 26.73046875 9.9609375 26.73046875 6.375 27.1875 C5.18648438 27.34605469 3.99796875 27.50460938 2.7734375 27.66796875 C1.85820313 27.77753906 0.94296875 27.88710937 0 28 C-0.33 26.35 -0.66 24.7 -1 23 C2.465 22.505 2.465 22.505 6 22 C3.69 21.67 1.38 21.34 -1 21 C-1 18.36 -1 15.72 -1 13 C0.65 13 2.3 13 4 13 C1.03 12.505 1.03 12.505 -2 12 C-2 10.35 -2 8.7 -2 7 C-1.01 6.67 -0.02 6.34 1 6 C0.34 5.67 -0.32 5.34 -1 5 C-0.67 3.35 -0.34 1.7 0 0 Z " fill="#A1633E" transform="translate(79,103)"/>
<path d="M0 0 C1.5778125 0.57234375 1.5778125 0.57234375 3.1875 1.15625 C5.75555563 2.09008841 8.31735796 3.03808612 10.875 4 C9.885 5.98 8.895 7.96 7.875 10 C5.08264713 9.18979911 2.29111379 8.3769488 -0.5 7.5625 C-1.2940625 7.33240234 -2.088125 7.10230469 -2.90625 6.86523438 C-3.66679688 6.64287109 -4.42734375 6.42050781 -5.2109375 6.19140625 C-5.9126709 5.98717041 -6.6144043 5.78293457 -7.33740234 5.57250977 C-9.125 5 -9.125 5 -11.125 4 C-10.795 6.64 -10.465 9.28 -10.125 12 C-13.755 12 -17.385 12 -21.125 12 C-21.455 10.68 -21.785 9.36 -22.125 8 C-22.455 8.66 -22.785 9.32 -23.125 10 C-24.115 9.67 -25.105 9.34 -26.125 9 C-26.125 7.68 -26.125 6.36 -26.125 5 C-26.455 5.66 -26.785 6.32 -27.125 7 C-27.785 7 -28.445 7 -29.125 7 C-29.8125 5.3125 -29.8125 5.3125 -30.125 3 C-28.85713814 0.04165565 -27.78898416 -1.57746463 -25.0625 -3.3125 C-16.00986965 -5.43120072 -8.50805742 -3.20405216 0 0 Z " fill="#A76842" transform="translate(69.125,176)"/>
<path d="M0 0 C2.47650647 2.95939074 3.60016834 5.46465124 4.5625 9.1875 C5.19790517 11.78795802 5.19790517 11.78795802 6 14 C6.66 14.33 7.32 14.66 8 15 C7.26424022 24.12342123 6.14224663 32.78770466 -0.390625 39.66015625 C-3.54686023 42.28779868 -6.7472733 42.79606775 -10.6875 43.4375 C-13 43 -13 43 -14.8125 40.625 C-16 38 -16 38 -16 36 C-15.32453125 35.84144531 -14.6490625 35.68289062 -13.953125 35.51953125 C-8.24265017 34.04447288 -8.24265017 34.04447288 -3.5 30.6875 C1.82735966 21.14264728 -0.0822935 12.2734277 -2 2 C-1.34 2 -0.68 2 0 2 C0 1.34 0 0.68 0 0 Z " fill="#9F623F" transform="translate(151,140)"/>
<path d="M0 0 C1 3.875 1 3.875 1 5 C1.66 5.33 2.32 5.66 3 6 C-1.53669968 9.01679014 -5.68972746 11.53967505 -11 13 C-10.9071875 13.59683594 -10.814375 14.19367188 -10.71875 14.80859375 C-9.88933538 24.77638016 -14.49993576 32.43179733 -19 41 C-18.01 41.33 -17.02 41.66 -16 42 C-15.34 41.01 -14.68 40.02 -14 39 C-7.30602942 39.35860557 -1.86261324 41.13738676 3 46 C3.05309637 47.37460608 3.09236709 48.74975595 3.125 50.125 C3.66080143 56.00001568 6.64078171 58.27484983 11 62 C11 57.05 11 52.1 11 47 C15.37670357 53.56505535 14.14996503 63.31845778 14 71 C12 68 12 68 10.6875 65.5625 C8.80632199 62.70589636 6.74829392 61.00551178 4 59 C4 60.98 4 62.96 4 65 C3.34 65 2.68 65 2 65 C1.25492456 58.62694402 0.89650183 52.41688675 1 46 C-0.11375 45.566875 -0.11375 45.566875 -1.25 45.125 C-4 44 -4 44 -5.9375 42.9375 C-8.57505571 41.73861104 -11.14204094 41.38972169 -14 41 C-14.495 43.475 -14.495 43.475 -15 46 C-13.5459375 46.185625 -13.5459375 46.185625 -12.0625 46.375 C-11.051875 46.58125 -10.04125 46.7875 -9 47 C-8.67 47.66 -8.34 48.32 -8 49 C-10.31 48.67 -12.62 48.34 -15 48 C-15.495 50.475 -15.495 50.475 -16 53 C-14.02 53 -12.04 53 -10 53 C-9.67 53.66 -9.34 54.32 -9 55 C-10.98 54.67 -12.96 54.34 -15 54 C-15 56.31 -15 58.62 -15 61 C-15.33 61 -15.66 61 -16 61 C-16.33 59.02 -16.66 57.04 -17 55 C-20.96 54.505 -20.96 54.505 -25 54 C-23 52 -23 52 -19.875 51.875 C-18.92625 51.91625 -17.9775 51.9575 -17 52 C-17 50.35 -17 48.7 -17 47 C-21.455 47.495 -21.455 47.495 -26 48 C-23.4345406 45.4345406 -21.52313332 45.45953913 -18 45 C-18 44.01 -18 43.02 -18 42 C-21.465 42.495 -21.465 42.495 -25 43 C-24.14148438 42.26523438 -24.14148438 42.26523438 -23.265625 41.515625 C-20.30490842 38.22820866 -18.61980046 34.73198245 -16.75 30.75 C-16.38648437 30.02425781 -16.02296875 29.29851562 -15.6484375 28.55078125 C-13.2232675 23.43604301 -12.61645972 19.65082684 -13 14 C-14.98 14 -16.96 14 -19 14 C-19 13.01 -19 12.02 -19 11 C-17.7625 11.37125 -17.7625 11.37125 -16.5 11.75 C-11.78555611 12.08674599 -8.97885024 10.35297489 -5 8 C-5 7.34 -5 6.68 -5 6 C-4.02246356 4.97803008 -3.0194119 3.98020375 -2 3 C-1.34 2.01 -0.68 1.02 0 0 Z " fill="#32120A" transform="translate(93,62)"/>
<path d="M0 0 C0 0.99 0 1.98 0 3 C-1.65 3.66 -3.3 4.32 -5 5 C-3.02 5 -1.04 5 1 5 C1 6.65 1 8.3 1 10 C-0.98 10.33 -2.96 10.66 -5 11 C-2.03 11.495 -2.03 11.495 1 12 C1 14.64 1 17.28 1 20 C0.01 20.33 -0.98 20.66 -2 21 C-2.12375 21.804375 -2.2475 22.60875 -2.375 23.4375 C-2.58125 24.283125 -2.7875 25.12875 -3 26 C-5.52380276 27.26190138 -6.38343693 26.83487878 -9.0625 26.125 C-9.77535156 25.94195312 -10.48820312 25.75890625 -11.22265625 25.5703125 C-13 25 -13 25 -14 24 C-13.93500791 21.02808895 -13.80774104 18.08997344 -13.625 15.125 C-13.58117188 14.29613281 -13.53734375 13.46726562 -13.4921875 12.61328125 C-13.29119108 9.15725954 -13.10221537 6.3066461 -12 3 C-10.0390625 2.05078125 -10.0390625 2.05078125 -7.625 1.3125 C-6.83351563 1.06113281 -6.04203125 0.80976562 -5.2265625 0.55078125 C-3 0 -3 0 0 0 Z " fill="#A2623D" transform="translate(75,104)"/>
<path d="M0 0 C0.33 0 0.66 0 1 0 C1.13277344 0.83144531 1.26554687 1.66289063 1.40234375 2.51953125 C1.57894531 3.60621094 1.75554688 4.69289063 1.9375 5.8125 C2.19853516 7.43091797 2.19853516 7.43091797 2.46484375 9.08203125 C2.93871921 12.04933356 2.93871921 12.04933356 4 15 C12.90066706 14.59542422 20.80304632 10.19695368 27 4 C26.34 8.62 25.68 13.24 25 18 C26.32 17.67 27.64 17.34 29 17 C29 17.66 29 18.32 29 19 C30.299375 19.12375 31.59875 19.2475 32.9375 19.375 C37.02658743 19.81288653 40.89264617 20.62282656 44.859375 21.6953125 C47.44711287 22.06364015 49.4790675 21.6258259 52 21 C54.48784637 29.04580101 55.68577499 37.16554269 56.75 45.5 C56.88962158 46.56283203 57.02924316 47.62566406 57.1730957 48.72070312 C57.29644287 49.73068359 57.41979004 50.74066406 57.546875 51.78125 C57.65870117 52.68939453 57.77052734 53.59753906 57.88574219 54.53320312 C57.99727051 56.94107093 57.72135775 58.7145893 57 61 C54.62192969 57.43289453 54.44262047 55.09026951 53.9296875 50.84765625 C53.84373322 50.15111435 53.75777893 49.45457245 53.66921997 48.73692322 C53.48912097 47.26557927 53.31284828 45.7937626 53.14013672 44.3215332 C52.87627025 42.07332283 52.60132321 39.82669145 52.32421875 37.58007812 C51 26.67438375 51 26.67438375 51 22 C50.01 22.66 49.02 23.32 48 24 C46.08984375 24.046875 46.08984375 24.046875 43.9375 23.75 C43.14472656 23.64300781 42.35195312 23.53601563 41.53515625 23.42578125 C38.96480213 22.99408849 36.42442245 22.47852247 33.875 21.9375 C26.86984897 20.22866662 26.86984897 20.22866662 20.23828125 22.12109375 C18.75944974 23.33794113 17.37080376 24.66263048 16 26 C16.66 26.99 17.32 27.98 18 29 C16.02 29 14.04 29 12 29 C12 29.66 12 30.32 12 31 C12.66 31.33 13.32 31.66 14 32 C12.02 32 10.04 32 8 32 C8.66 31.67 9.32 31.34 10 31 C10.09152344 30.40960937 10.18304688 29.81921875 10.27734375 29.2109375 C11.65134187 25.00724595 16.16058839 22.91478595 19.62890625 20.4140625 C22.32820592 18.16780552 22.32820592 18.16780552 22.33984375 14.7109375 C22.22769531 13.81632813 22.11554688 12.92171875 22 12 C21.13117188 12.433125 20.26234375 12.86625 19.3671875 13.3125 C18.21476562 13.869375 17.06234375 14.42625 15.875 15 C14.16957031 15.8353125 14.16957031 15.8353125 12.4296875 16.6875 C8.98680467 18.00504969 6.64330238 18.26577282 3 18 C-0.24201565 11.92122066 -0.33278764 6.81598387 0 0 Z " fill="#1E0B08" transform="translate(56,0)"/>
<path d="M0 0 C0.33 0 0.66 0 1 0 C1.50301022 6.79063791 0.29725638 12.00498841 -3 18 C-7.68673222 23.37259547 -13.17383445 24.50601715 -20 26 C-19.505 26.99 -19.505 26.99 -19 28 C-18.69656053 31.48955396 -18.60529918 33.37505704 -20.5 36.375 C-20.995 36.91125 -21.49 37.4475 -22 38 C-26.7885243 37.49058252 -30.93423544 36.4107538 -35.47265625 34.828125 C-42.48080359 32.53179233 -49.67191761 30.83273664 -57 30 C-56.979375 30.804375 -56.95875 31.60875 -56.9375 32.4375 C-57 35 -57 35 -58 36 C-64.61729393 37.35353739 -71.27275688 37.0910454 -78 37 C-78 36.34 -78 35.68 -78 35 C-79.65 34.67 -81.3 34.34 -83 34 C-82.01 33.505 -82.01 33.505 -81 33 C-80.34 33.33 -79.68 33.66 -79 34 C-78.814375 32.2984375 -78.814375 32.2984375 -78.625 30.5625 C-78.41875 29.386875 -78.2125 28.21125 -78 27 C-77.34 26.67 -76.68 26.34 -76 26 C-76.33 28.97 -76.66 31.94 -77 35 C-75.68 35 -74.36 35 -73 35 C-73 32.69 -73 30.38 -73 28 C-72.34 27.67 -71.68 27.34 -71 27 C-71.33 29.64 -71.66 32.28 -72 35 C-68.535 34.505 -68.535 34.505 -65 34 C-64.67 31.69 -64.34 29.38 -64 27 C-63.34 27.33 -62.68 27.66 -62 28 C-62.33 29.98 -62.66 31.96 -63 34 C-61.35 34 -59.7 34 -58 34 C-58 31.69 -58 29.38 -58 27 C-48.81715135 28.57420262 -39.91381914 30.42683274 -30.98828125 33.1328125 C-28.32495866 33.90569827 -25.74351402 34.59465198 -23 35 C-21.69591241 33.90930721 -21.69591241 33.90930721 -21.75 31.25 C-22.02697499 27.6493251 -23.08914707 25.99090023 -25 23 C-24.67 22.34 -24.34 21.68 -24 21 C-23.01 21.66 -22.02 22.32 -21 23 C-15.29658929 22.48003093 -10.34473358 21.12518524 -5.9375 17.4375 C-3.49287306 13.10025865 -2.1761432 8.81582959 -1 4 C-0.71382812 2.85917969 -0.71382812 2.85917969 -0.421875 1.6953125 C-0.28265625 1.13585937 -0.1434375 0.57640625 0 0 Z " fill="#251713" transform="translate(158,160)"/>
<path d="M0 0 C0.33 0.99 0.66 1.98 1 3 C0.443125 3.226875 -0.11375 3.45375 -0.6875 3.6875 C-3.63723273 5.36167263 -5.6373884 7.57832311 -8 10 C-9.32059517 11.01676259 -10.65173605 12.02022344 -12 13 C-11.566875 13.43828125 -11.13375 13.8765625 -10.6875 14.328125 C-6.04363144 19.61697531 -5.40073609 23.50247007 -5.69140625 30.4609375 C-6 33 -6 33 -7 35 C-5.02 34.505 -5.02 34.505 -3 34 C-3 35.32 -3 36.64 -3 38 C-4.485 37.505 -4.485 37.505 -6 37 C-6.41713515 38.43146378 -6.8080497 39.87058886 -7.1875 41.3125 C-7.40792969 42.11300781 -7.62835938 42.91351563 -7.85546875 43.73828125 C-8.26194505 46.08969364 -8.26194505 46.08969364 -6.55078125 47.79296875 C-6.03902344 48.19128906 -5.52726562 48.58960938 -5 49 C-7.29296875 48.90234375 -7.29296875 48.90234375 -10 48 C-11.80078125 45.12890625 -11.80078125 45.12890625 -13.3125 41.5625 C-13.82425781 40.38816406 -14.33601563 39.21382812 -14.86328125 38.00390625 C-16 35 -16 35 -16 33 C-15.05125 32.566875 -14.1025 32.13375 -13.125 31.6875 C-9.79958063 30.20697799 -9.79958063 30.20697799 -8 27 C-7.83286431 24.37468476 -7.83286431 24.37468476 -8 22 C-11.99000166 20.57499941 -15.80530429 19.59924224 -20 19 C-19.23550185 12.96592532 -13.42974856 9.59219106 -9 6 C-6.06504455 3.88700422 -3.07890123 1.89642467 0 0 Z " fill="#9F613D" transform="translate(60,37)"/>
<path d="M0 0 C0.66 0 1.32 0 2 0 C8.54869723 23.25135851 8.54869723 23.25135851 7 33 C6.34 33.66 5.68 34.32 5 35 C2.23286597 34.81864449 -0.3919776 34.5356614 -3.125 34.125 C-4.25615234 33.96837891 -4.25615234 33.96837891 -5.41015625 33.80859375 C-7.27484156 33.54895402 -9.13762887 33.27574971 -11 33 C-11 32.01 -11 31.02 -11 30 C-12.53448205 27.88224542 -12.53448205 27.88224542 -14.5 25.8125 C-15.1496875 25.09707031 -15.799375 24.38164062 -16.46875 23.64453125 C-16.9740625 23.10183594 -17.479375 22.55914062 -18 22 C-18.53367187 22.144375 -19.06734375 22.28875 -19.6171875 22.4375 C-25.50228763 23.90368411 -30.95009776 24.22734497 -37 24 C-37 23.01 -37 22.02 -37 21 C-37.99 21.33 -38.98 21.66 -40 22 C-39.67 19.69 -39.34 17.38 -39 15 C-38.01 14.67 -37.02 14.34 -36 14 C-35.67 16.31 -35.34 18.62 -35 21 C-33.10306139 20.71561048 -31.20747973 20.42216208 -29.3125 20.125 C-28.25675781 19.96257812 -27.20101562 19.80015625 -26.11328125 19.6328125 C-23.20205086 19.04106931 -20.71044393 18.1968194 -18 17 C-17.25234375 17.84304687 -16.5046875 18.68609375 -15.734375 19.5546875 C-14.73990084 20.66174364 -13.74509151 21.76849875 -12.75 22.875 C-12.25886719 23.43058594 -11.76773438 23.98617187 -11.26171875 24.55859375 C-7.68299353 28.57050965 -7.68299353 28.57050965 -3 31 C0.31550202 30.72455805 0.31550202 30.72455805 3 29 C3.85078646 19.03598166 2.08603385 9.67274028 0 0 Z " fill="#854E31" transform="translate(113,111)"/>
<path d="M0 0 C5.19994875 3.13631487 7.49366142 6.35661397 8.98828125 12.19921875 C7.15230376 10.45504014 5.66988211 8.76004752 4.17578125 6.69921875 C0.82897447 2.87429672 -3.11615517 1.23169543 -8.01171875 0.19921875 C-10.85841247 0.05352183 -13.66482229 -0.03144749 -16.51171875 -0.05078125 C-17.65060547 -0.08171875 -17.65060547 -0.08171875 -18.8125 -0.11328125 C-22.09088415 -0.13624716 -24.57660348 -0.01935078 -27.53125 1.46484375 C-29.136895 3.07178748 -29.136895 3.07178748 -29.4296875 5.07421875 C-28.43435047 14.25156359 -22.8518694 22.29338347 -16.2421875 28.5703125 C-12.18893142 31.53039619 -7.65565767 33.60814379 -3.12109375 35.71875 C-0.01171875 37.19921875 -0.01171875 37.19921875 2.98828125 39.19921875 C-3.85153151 38.68300647 -9.65048559 36.71330906 -16.01171875 34.19921875 C-15.68171875 33.53921875 -15.35171875 32.87921875 -15.01171875 32.19921875 C-15.49640625 31.84472656 -15.98109375 31.49023438 -16.48046875 31.125 C-23.9218462 25.21482906 -30.62761954 16.77059918 -32.32421875 7.19921875 C-32.43352699 3.70135505 -32.01181747 3.19935038 -29.76171875 0.19921875 C-22.00277715 -5.44364787 -8.32477102 -3.98749536 0 0 Z " fill="#290E08" transform="translate(122.01171875,146.80078125)"/>
<path d="M0 0 C0.598125 0.226875 1.19625 0.45375 1.8125 0.6875 C0.1625 1.0175 -1.4875 1.3475 -3.1875 1.6875 C-3.5175 8.6175 -3.8475 15.5475 -4.1875 22.6875 C-1.5475 23.3475 1.0925 24.0075 3.8125 24.6875 C2.24792921 28.91184114 -0.56829489 31.13276698 -4.1875 33.6875 C-7.18067153 34.24436912 -8.43395156 34.11451078 -11.0625 32.625 C-12.91584523 29.43312765 -12.06147005 27.18338021 -11.1875 23.6875 C-10.1811104 22.09675515 -9.1744217 20.50619527 -8.1640625 18.91796875 C-6.35288975 14.78125019 -6.2031123 10.255485 -5.77734375 5.796875 C-5.1875 2.6875 -5.1875 2.6875 -3.765625 0.74609375 C-2.1875 -0.3125 -2.1875 -0.3125 0 0 Z " fill="#2B1611" transform="translate(66.1875,105.3125)"/>
<path d="M0 0 C1.52947266 0.00966797 1.52947266 0.00966797 3.08984375 0.01953125 C5.84624048 0.17528034 8.37628395 0.56912614 11.0625 1.1875 C11.0625 1.5175 11.0625 1.8475 11.0625 2.1875 C9.804375 2.290625 8.54625 2.39375 7.25 2.5 C4.70904077 2.82772089 3.29569573 3.03705114 1.125 4.4375 C-0.21398437 6.64288602 -0.59410684 8.64639061 -0.9375 11.1875 C-1.9275 11.5175 -2.9175 11.8475 -3.9375 12.1875 C-4.2675 11.1975 -4.5975 10.2075 -4.9375 9.1875 C-5.2675 11.4975 -5.5975 13.8075 -5.9375 16.1875 C-7.2575 16.1875 -8.5775 16.1875 -9.9375 16.1875 C-9.9375 13.5475 -9.9375 10.9075 -9.9375 8.1875 C-10.5975 10.4975 -11.2575 12.8075 -11.9375 15.1875 C-13.2575 14.8575 -14.5775 14.5275 -15.9375 14.1875 C-15.30644662 11.09464499 -14.27480712 8.74918281 -12.625 6.0625 C-12.21636719 5.37929687 -11.80773437 4.69609375 -11.38671875 3.9921875 C-8.21791545 0.04613056 -4.85353378 -0.06732518 0 0 Z " fill="#AC6F4D" transform="translate(90.9375,178.8125)"/>
<path d="M0 0 C0.495 1.98 0.495 1.98 1 4 C0.01 4 -0.98 4 -2 4 C-2.433125 4.9590625 -2.433125 4.9590625 -2.875 5.9375 C-4 8 -4 8 -6 9 C-6.65213292 11.02463255 -6.65213292 11.02463255 -7 13 C-7.66 13 -8.32 13 -9 13 C-11.12153042 14.85633912 -12.41328692 16.61993038 -14 19 C-14.66 19 -15.32 19 -16 19 C-17.11528929 20.11528929 -18.22505969 21.23644663 -19.3125 22.37890625 C-21.42038812 24.40384507 -23.69029925 26.14679451 -26 27.9375 C-28.99592763 30.27654276 -31.54202055 32.45107045 -33.8125 35.5 C-36 38 -36 38 -38.6875 38.5 C-41 38 -41 38 -43 36 C-44.32 36 -45.64 36 -47 36 C-46.63003906 35.43410156 -46.26007812 34.86820313 -45.87890625 34.28515625 C-44.73516638 32.02114048 -44.73516638 32.02114048 -45.71484375 29.74609375 C-46.11832031 28.98425781 -46.52179687 28.22242187 -46.9375 27.4375 C-48.15234375 25.12109375 -48.15234375 25.12109375 -49 23 C-48.505 21.515 -48.505 21.515 -48 20 C-45.69 24.95 -43.38 29.9 -41 35 C-35.3536516 33.87073032 -35.19465055 33.32291999 -32 29 C-30.53867662 27.74516797 -29.03599413 26.53723556 -27.5 25.375 C-23.42760976 22.17871745 -19.48030896 18.8899268 -15.625 15.4375 C-14.64789063 14.56996094 -13.67078125 13.70242187 -12.6640625 12.80859375 C-9.70342709 9.68733736 -7.98052141 6.79678157 -6 3 C-6.66 3 -7.32 3 -8 3 C-8 2.34 -8 1.68 -8 1 C-5.29120665 -0.35439668 -2.99066732 -0.06501451 0 0 Z " fill="#1D0E0A" transform="translate(92,50)"/>
<path d="M0 0 C0.33 0 0.66 0 1 0 C1.41612253 2.76916073 1.80847753 5.53823496 2.1875 8.3125 C2.36829102 9.49102539 2.36829102 9.49102539 2.55273438 10.69335938 C2.65263672 11.45068359 2.75253906 12.20800781 2.85546875 12.98828125 C2.95496826 13.68477783 3.05446777 14.38127441 3.15698242 15.09887695 C3 17 3 17 1.6340332 18.75073242 C0 20 0 20 -2 20 C-1.96519531 20.845625 -1.93039063 21.69125 -1.89453125 22.5625 C-1.72884136 29.50569557 -2.03345912 34.69610062 -5 41 C-5.33 41 -5.66 41 -6 41 C-6.28189885 29.50479125 -5.47773994 18.39970808 -4 7 C-2.68 6.67 -1.36 6.34 0 6 C0 4.02 0 2.04 0 0 Z " fill="#A16643" transform="translate(107,27)"/>
<path d="M0 0 C0.77923828 0.19078125 1.55847656 0.3815625 2.36132812 0.578125 C4.26349248 1.0449138 6.16326009 1.52145136 8.0625 2 C8.0625 2.33 8.0625 2.66 8.0625 3 C0.57754381 3.31676147 -5.90625283 3.16816594 -13.01171875 0.65625 C-14.91392899 -0.10751888 -14.91392899 -0.10751888 -16.9375 0 C-16.6075 0.66 -16.2775 1.32 -15.9375 2 C-15.897508 3.99960012 -15.89403201 6.00047242 -15.9375 8 C-14.679375 8 -13.42125 8 -12.125 8 C-9.72916667 8 -7.33333333 8 -4.9375 8 C-4.6075 9.65 -4.2775 11.3 -3.9375 13 C-4.5975 12.505 -5.2575 12.01 -5.9375 11.5 C-9.765663 9.5859185 -12.73330541 9.48295188 -16.9375 10 C-19.81964887 10.88214887 -19.81964887 10.88214887 -21.9375 12 C-21.9375 11.34 -21.9375 10.68 -21.9375 10 C-23.2575 9.67 -24.5775 9.34 -25.9375 9 C-25.9375 8.34 -25.9375 7.68 -25.9375 7 C-24.2875 6.67 -22.6375 6.34 -20.9375 6 C-21.5975 5.34 -22.2575 4.68 -22.9375 4 C-21.93772156 2.97894968 -20.91132362 1.98393803 -19.875 1 C-19.30652344 0.443125 -18.73804687 -0.11375 -18.15234375 -0.6875 C-12.65820344 -3.94328685 -5.8085843 -1.47329987 0 0 Z " fill="#A06744" transform="translate(93.9375,22)"/>
<path d="M0 0 C0.33 0 0.66 0 1 0 C1.33 2.64 1.66 5.28 2 8 C0.68 8.33 -0.64 8.66 -2 9 C-3.16373566 16.48115783 0.76489373 21.10656899 5 27 C6.07678326 28.42165163 7.15945969 29.83887372 8.25 31.25 C13.21853689 37.79521927 14.53064671 43.95625567 15 52 C12.37548383 49.37548383 12.4167132 47.5122172 11.875 43.875 C11.70742187 42.77929688 11.53984375 41.68359375 11.3671875 40.5546875 C11.24601562 39.71164063 11.12484375 38.86859375 11 38 C10.030625 37.896875 9.06125 37.79375 8.0625 37.6875 C5.0163829 37.27519728 2.37433199 36.45472334 -0.5 35.375 C-4.79561429 33.84979904 -7.59156792 33.9682393 -12 35 C-12.92470553 39.71599818 -13.22923777 42.67265609 -11 47 C-11.99 47.495 -11.99 47.495 -13 48 C-15.49903739 44.25144392 -15.69540756 40.35075499 -15 36 C-13.5 33.5 -13.5 33.5 -11 32 C-3.79900635 30.97128662 2.30320443 33.49986299 9 36 C8.22076172 35.07380859 8.22076172 35.07380859 7.42578125 34.12890625 C-4 20.25323475 -4 20.25323475 -4 15 C-4.66 14.67 -5.32 14.34 -6 14 C-5.01 12.02 -4.02 10.04 -3 8 C-3.66 7.67 -4.32 7.34 -5 7 C-3.35 7 -1.7 7 0 7 C0 4.69 0 2.38 0 0 Z " fill="#200C07" transform="translate(76,117)"/>
<path d="M0 0 C3 1 3 1 4.1875 3.0625 C4.455625 3.701875 4.72375 4.34125 5 5 C5.33 4.34 5.66 3.68 6 3 C6.66 4.32 7.32 5.64 8 7 C8.763125 6.814375 9.52625 6.62875 10.3125 6.4375 C13 6 13 6 16 7 C16.33 9.31 16.66 11.62 17 14 C13.37 14 9.74 14 6 14 C5.67 12.68 5.34 11.36 5 10 C4.67 10.66 4.34 11.32 4 12 C3.01 11.67 2.02 11.34 1 11 C1 9.68 1 8.36 1 7 C0.67 7.66 0.34 8.32 0 9 C-0.66 9 -1.32 9 -2 9 C-2.6875 7.3125 -2.6875 7.3125 -3 5 C-1.5625 2.25 -1.5625 2.25 0 0 Z " fill="#9F613B" transform="translate(42,174)"/>
<path d="M0 0 C2.31 0 4.62 0 7 0 C7 0.99 7 1.98 7 3 C7.33 2.34 7.66 1.68 8 1 C10.97 1.33 13.94 1.66 17 2 C16.69381595 5.67420866 16.24228216 6.78135513 13.4375 9.3125 C12.633125 9.869375 11.82875 10.42625 11 11 C11 9.02 11 7.04 11 5 C11.66 5 12.32 5 13 5 C13 4.34 13 3.68 13 3 C12.01 3.495 12.01 3.495 11 4 C10.53476937 5.89533342 10.53476937 5.89533342 10.375 8.0625 C10.25125 9.361875 10.1275 10.66125 10 12 C8.35 12 6.7 12 5 12 C5 9.03 5 6.06 5 3 C4.34 5.31 3.68 7.62 3 10 C2.01 9.34 1.02 8.68 0 8 C-0.40843923 5.28796348 -0.13336867 2.7562858 0 0 Z " fill="#6B5A54" transform="translate(34,57)"/>
<path d="M0 0 C0 0.99 0 1.98 0 3 C-1.65 3.66 -3.3 4.32 -5 5 C-3.02 5 -1.04 5 1 5 C1 6.65 1 8.3 1 10 C0.31292969 10.13277344 -0.37414062 10.26554687 -1.08203125 10.40234375 C-2.43361328 10.66724609 -2.43361328 10.66724609 -3.8125 10.9375 C-4.70582031 11.11152344 -5.59914063 11.28554687 -6.51953125 11.46484375 C-9.11397171 11.97741153 -9.11397171 11.97741153 -12 13 C-12.73323796 15.01508358 -12.73323796 15.01508358 -13 17 C-13.02705729 15.22925083 -13.04642195 13.45838289 -13.0625 11.6875 C-13.07410156 10.70136719 -13.08570313 9.71523437 -13.09765625 8.69921875 C-13 6 -13 6 -12 3 C-10.0390625 2.05078125 -10.0390625 2.05078125 -7.625 1.3125 C-6.83351563 1.06113281 -6.04203125 0.80976562 -5.2265625 0.55078125 C-3 0 -3 0 0 0 Z " fill="#A56946" transform="translate(75,104)"/>
<path d="M0 0 C2.05078125 0.03255208 4.1015625 0.06510417 6.15234375 0.09765625 C6.48234375 1.08765625 6.81234375 2.07765625 7.15234375 3.09765625 C6.16234375 3.42765625 5.17234375 3.75765625 4.15234375 4.09765625 C3.82234375 5.08765625 3.49234375 6.07765625 3.15234375 7.09765625 C4.80234375 6.76765625 6.45234375 6.43765625 8.15234375 6.09765625 C8.48234375 7.08765625 8.81234375 8.07765625 9.15234375 9.09765625 C8.12173828 9.15373047 8.12173828 9.15373047 7.0703125 9.2109375 C6.16925781 9.27667969 5.26820312 9.34242187 4.33984375 9.41015625 C3.44652344 9.46816406 2.55320312 9.52617188 1.6328125 9.5859375 C-1.22689994 10.17589392 -1.99243444 10.91723751 -3.84765625 13.09765625 C-6.78515625 15.34765625 -6.78515625 15.34765625 -9.84765625 17.09765625 C-12.0390625 16.70703125 -12.0390625 16.70703125 -13.84765625 16.09765625 C-12.94280833 14.94246707 -12.02323565 13.79880219 -11.09765625 12.66015625 C-10.5871875 12.02207031 -10.07671875 11.38398437 -9.55078125 10.7265625 C-7.65097996 8.90955071 -6.41178717 8.49342428 -3.84765625 8.09765625 C-3.70328125 6.96328125 -3.55890625 5.82890625 -3.41015625 4.66015625 C-2.69684835 0.14253955 -2.69684835 0.14253955 0 0 Z " fill="#A36845" transform="translate(63.84765625,31.90234375)"/>
<path d="M0 0 C0.99 0.33 1.98 0.66 3 1 C3.62376238 8.9529703 3.62376238 8.9529703 1.25 12.9375 C-0.81682109 14.832086 -2.45607235 15.89763135 -5 17 C-5.66 17.66 -6.32 18.32 -7 19 C-9.625 19.125 -9.625 19.125 -12 19 C-12 17.68 -12 16.36 -12 15 C-8.78571429 12 -8.78571429 12 -6 12 C-5.67 11.01 -5.34 10.02 -5 9 C-4.34 8.67 -3.68 8.34 -3 8 C-1.82513503 5.37383124 -0.90985138 2.72955415 0 0 Z " fill="#412F29" transform="translate(88,53)"/>
<path d="M0 0 C2.4375 2.5625 2.4375 2.5625 4 5 C1.69 4.67 -0.62 4.34 -3 4 C-3 5.98 -3 7.96 -3 10 C-9.47556391 9.38909774 -9.47556391 9.38909774 -11.9375 7.5625 C-13 6 -13 6 -13 4 C-11.68 4 -10.36 4 -9 4 C-10.32 3.34 -11.64 2.68 -13 2 C-8.275653 -0.88069939 -5.3637928 -1.58927194 0 0 Z " fill="#9D6544" transform="translate(86,33)"/>
<path d="M0 0 C0.33 0 0.66 0 1 0 C1.09706112 6.11485027 0.77040851 11.93303301 0 18 C1.17755859 17.80083984 1.17755859 17.80083984 2.37890625 17.59765625 C7.91187987 16.66757357 13.44073841 15.75808113 19 15 C19.33 15.99 19.66 16.98 20 18 C17.48279191 18.70409302 14.96274181 19.38836056 12.4375 20.0625 C11.73302734 20.26166016 11.02855469 20.46082031 10.30273438 20.66601562 C5.45951166 21.93819855 1.90847177 22.02555455 -3 21 C-2.41523944 13.90593106 -1.36766005 6.98436101 0 0 Z " fill="#864D2E" transform="translate(95,76)"/>
<path d="M0 0 C1.828125 0.12109375 1.828125 0.12109375 4 1 C5.484375 3.72265625 5.484375 3.72265625 6.75 7.0625 C7.17796875 8.16722656 7.6059375 9.27195312 8.046875 10.41015625 C8.36140625 11.26480469 8.6759375 12.11945313 9 13 C8.01 13.495 8.01 13.495 7 14 C6.67 14.99 6.34 15.98 6 17 C4.35 17 2.7 17 1 17 C-1.37706418 13.33460332 -1.05094317 10.50943165 -0.625 6.25 C-0.51414063 5.07953125 -0.40328125 3.9090625 -0.2890625 2.703125 C-0.19367187 1.81109375 -0.09828125 0.9190625 0 0 Z " fill="#623D2B" transform="translate(39,70)"/>
<path d="M0 0 C2.00349261 0.31165441 4.00326516 0.64763503 6 1 C7.67501607 0.71153848 9.34451911 0.38506092 11 0 C13.48784637 8.04580101 14.68577499 16.16554269 15.75 24.5 C15.88962158 25.56283203 16.02924316 26.62566406 16.1730957 27.72070312 C16.29644287 28.73068359 16.41979004 29.74066406 16.546875 30.78125 C16.65870117 31.68939453 16.77052734 32.59753906 16.88574219 33.53320312 C16.99727051 35.94107093 16.72135775 37.7145893 16 40 C13.62192969 36.43289453 13.44262047 34.09026951 12.9296875 29.84765625 C12.80075607 28.8028434 12.80075607 28.8028434 12.66921997 27.73692322 C12.48912097 26.26557927 12.31284828 24.7937626 12.14013672 23.3215332 C11.87627025 21.07332283 11.60132321 18.82669145 11.32421875 16.58007812 C10 5.67438375 10 5.67438375 10 1 C9.01 1.66 8.02 2.32 7 3 C4.73828125 2.9765625 4.73828125 2.9765625 2.3125 2.625 C1.50425781 2.51414062 0.69601563 2.40328125 -0.13671875 2.2890625 C-0.75160156 2.19367187 -1.36648437 2.09828125 -2 2 C-1.34 1.34 -0.68 0.68 0 0 Z " fill="#2E1E19" transform="translate(97,21)"/>
<path d="M0 0 C5 2 5 2 6 4 C6.06950541 5.54023996 6.08452357 7.08334988 6.0625 8.625 C6.05347656 9.44226563 6.04445312 10.25953125 6.03515625 11.1015625 C6.02355469 11.72804687 6.01195312 12.35453125 6 13 C5.34 13 4.68 13 4 13 C4 14.98 4 16.96 4 19 C2.68 19.33 1.36 19.66 0 20 C0 13.4 0 6.8 0 0 Z " fill="#7B523C" transform="translate(146,117)"/>
<path d="M0 0 C4.26686618 2.84457745 4.25378061 5.83017834 5.37109375 10.66796875 C6.26921065 15.42631483 6.72421878 20.1690738 7 25 C6.566875 24.34 6.13375 23.68 5.6875 23 C4.8521875 22.01 4.8521875 22.01 4 21 C3.01 21 2.02 21 1 21 C0.67 22.98 0.34 24.96 0 27 C-0.33 27 -0.66 27 -1 27 C-1 23.37 -1 19.74 -1 16 C-0.01 15.67 0.98 15.34 2 15 C1.67 14.01 1.34 13.02 1 12 C-0.1865126 7.91405167 -0.14865179 4.23657606 0 0 Z " fill="#A16644" transform="translate(108,105)"/>
<path d="M0 0 C0.66 0 1.32 0 2 0 C2 0.66 2 1.32 2 2 C3.98 2.66 5.96 3.32 8 4 C7.67 4.66 7.34 5.32 7 6 C5.68 5.67 4.36 5.34 3 5 C6.17320782 8.53586014 8.16743695 10.58578031 13 11 C13 9.68 13 8.36 13 7 C13.99 7 14.98 7 16 7 C16.33 7.66 16.66 8.32 17 9 C17.66 9 18.32 9 19 9 C19.33 8.34 19.66 7.68 20 7 C19.66411682 9.51912388 19.42645046 10.67196119 17.375 12.25 C13.93825392 13.33528823 11.59888149 13.48798393 8 13 C6.23828125 11.62109375 6.23828125 11.62109375 4.5 9.9375 C2.84101867 8.24859396 2.84101867 8.24859396 1 7 C-2.83675608 6.96146706 -2.83675608 6.96146706 -6 8 C-4.68 6.68 -3.36 5.36 -2 4 C-3.32 3.67 -4.64 3.34 -6 3 C-3.69 3 -1.38 3 1 3 C0.67 2.01 0.34 1.02 0 0 Z " fill="#301914" transform="translate(70,32)"/>
<path d="M0 0 C3.36290848 4.03549017 6.32442012 8.30615371 9.31640625 12.6171875 C11.11463945 15.16225073 13.00502491 17.60602989 15 20 C11.04 19.67 7.08 19.34 3 19 C3.66 17.68 4.32 16.36 5 15 C4.38121025 13.08641928 4.38121025 13.08641928 3.125 11.375 C1 8 1 8 1 6 C0.34 6 -0.32 6 -1 6 C-0.67 4.02 -0.34 2.04 0 0 Z " fill="#874F31" transform="translate(91,159)"/>
<path d="M0 0 C1.32 0.66 2.64 1.32 4 2 C4.35338623 4.96844435 4.5417682 7.15598218 2.88671875 9.734375 C1.64496832 11.20348819 0.32662082 12.60704814 -1 14 C-2.9375 13.6875 -2.9375 13.6875 -5 13 C-6.13643966 9.59068103 -5.86747764 8.99664544 -4.5625 5.8125 C-4.27503906 5.09707031 -3.98757812 4.38164063 -3.69140625 3.64453125 C-3.46324219 3.10183594 -3.23507813 2.55914062 -3 2 C-2.67 2.66 -2.34 3.32 -2 4 C-1.34 4 -0.68 4 0 4 C-0.33 3.01 -0.66 2.02 -1 1 C-0.67 0.67 -0.34 0.34 0 0 Z " fill="#A4623C" transform="translate(57,71)"/>
<path d="M0 0 C0.33 0 0.66 0 1 0 C1.50301022 6.79063791 0.29725638 12.00498841 -3 18 C-7.22131602 22.83906959 -11.41424509 23.94470212 -17.609375 25.32421875 C-20.16085049 25.83545353 -20.16085049 25.83545353 -22 28 C-23.5625 25.625 -23.5625 25.625 -25 23 C-24.67 22.34 -24.34 21.68 -24 21 C-22.515 21.99 -22.515 21.99 -21 23 C-15.29658929 22.48003093 -10.34473358 21.12518524 -5.9375 17.4375 C-3.49287306 13.10025865 -2.1761432 8.81582959 -1 4 C-0.71382812 2.85917969 -0.71382812 2.85917969 -0.421875 1.6953125 C-0.28265625 1.13585937 -0.1434375 0.57640625 0 0 Z " fill="#22120D" transform="translate(158,160)"/>
<path d="M0 0 C2.15138043 0.56253063 4.29607714 1.15067821 6.4375 1.75 C7.63246094 2.07484375 8.82742187 2.3996875 10.05859375 2.734375 C11.02925781 3.15203125 11.99992187 3.5696875 13 4 C13.72265625 6.078125 13.72265625 6.078125 14 8 C14.99 8.33 15.98 8.66 17 9 C17 9.66 17 10.32 17 11 C10.31006781 10.46048934 4.36539272 9.11293829 -2 7 C1.91736581 5.8299903 4.97959015 6.30415983 9 7 C7.93354885 5.70366379 7.93354885 5.70366379 5.4375 5.9375 C4.633125 5.958125 3.82875 5.97875 3 6 C3 5.01 3 4.02 3 3 C1.68 2.34 0.36 1.68 -1 1 C-0.67 0.67 -0.34 0.34 0 0 Z " fill="#9A6140" transform="translate(112,182)"/>
<path d="M0 0 C0.33 0.99 0.66 1.98 1 3 C0.443125 3.226875 -0.11375 3.45375 -0.6875 3.6875 C-3.63723273 5.36167263 -5.6373884 7.57832311 -8 10 C-9.31175986 11.02813611 -10.6369893 12.04084432 -12 13 C-11.34 14.32 -10.68 15.64 -10 17 C-13.3 17 -16.6 17 -20 17 C-14.5848696 9.6736471 -7.44427445 5.06822521 0 0 Z " fill="#583323" transform="translate(60,37)"/>
<path d="M0 0 C2.0625 1.5 2.0625 1.5 3 4 C3.52578456 8.14531597 3.62444452 11.68537996 1.8125 15.5 C-0.46885638 17.38801907 -2.05395995 17.84892102 -5 18 C-5.66 17.34 -6.32 16.68 -7 16 C-6.05125 15.566875 -5.1025 15.13375 -4.125 14.6875 C-0.79958063 13.20697799 -0.79958063 13.20697799 1 10 C1.16713569 7.37468476 1.16713569 7.37468476 1 5 C-2.99000166 3.57499941 -6.80530429 2.59924224 -11 2 C-11 1.34 -11 0.68 -11 0 C-7.50275361 -1.7486232 -3.71694927 -0.85094993 0 0 Z " fill="#8F5D40" transform="translate(51,54)"/>
<path d="M0 0 C1.09054688 0.38285156 2.18109375 0.76570313 3.3046875 1.16015625 C4.94824219 1.73056641 4.94824219 1.73056641 6.625 2.3125 C7.46804687 2.61285156 8.31109375 2.91320312 9.1796875 3.22265625 C8.8496875 4.21265625 8.5196875 5.20265625 8.1796875 6.22265625 C7.8496875 5.56265625 7.5196875 4.90265625 7.1796875 4.22265625 C4.65235515 3.56710506 4.65235515 3.56710506 2.1796875 3.22265625 C2.1796875 3.88265625 2.1796875 4.54265625 2.1796875 5.22265625 C3.1696875 5.55265625 4.1596875 5.88265625 5.1796875 6.22265625 C4.8496875 7.21265625 4.5196875 8.20265625 4.1796875 9.22265625 C1.5396875 8.89265625 -1.1003125 8.56265625 -3.8203125 8.22265625 C-4.1503125 5.58265625 -4.4803125 2.94265625 -4.8203125 0.22265625 C-2.8203125 -0.77734375 -2.8203125 -0.77734375 0 0 Z " fill="#A2623C" transform="translate(81.8203125,21.77734375)"/>
<path d="M0 0 C0.66 0 1.32 0 2 0 C1.67 6.27 1.34 12.54 1 19 C-0.65 18.67 -2.3 18.34 -4 18 C-4.2502075 10.84128551 -4.05842151 6.08763227 0 0 Z " fill="#543626" transform="translate(85,0)"/>
<path d="M0 0 C0.33 0 0.66 0 1 0 C1 2.64 1 5.28 1 8 C1.99 7.67 2.98 7.34 4 7 C4.33 5.02 4.66 3.04 5 1 C5.33 1 5.66 1 6 1 C6.3403125 2.8253125 6.3403125 2.8253125 6.6875 4.6875 C7.84137663 10.0104929 9.86155249 14.88038002 11.9765625 19.88671875 C13.03926403 23.11944058 13.19243969 25.62217697 13 29 C11.21801523 25.69289314 10.03842935 22.31785001 8.875 18.75 C8.52179688 17.67234375 8.16859375 16.5946875 7.8046875 15.484375 C7.53914062 14.66453125 7.27359375 13.8446875 7 13 C5.68 13 4.36 13 3 13 C1.3125 12 1.3125 12 0 10 C-1.58041958 3.16083916 -1.58041958 3.16083916 0 0 Z " fill="#4C3023" transform="translate(145,129)"/>
<path d="M0 0 C0.8353125 0.9590625 0.8353125 0.9590625 1.6875 1.9375 C4.22066561 4.19680987 5.68341424 4.63149047 9 5 C4.72309417 10.86547085 4.72309417 10.86547085 1.3125 11.5 C-1 11 -1 11 -3 9 C-2.67582137 5.19090105 -2.14418558 3.21627837 0 0 Z " fill="#A06645" transform="translate(58,126)"/>
<path d="M0 0 C0.33 0 0.66 0 1 0 C0.39170739 13.08877898 -1.28536324 26.01682853 -3 39 C-5 37 -5 37 -5.08203125 34.734375 C-4.40463312 27.23390875 -3.49581004 19.77713568 -2.5 12.3125 C-2.36956299 11.3318457 -2.23912598 10.35119141 -2.10473633 9.34082031 C-1.97736084 8.42010742 -1.84998535 7.49939453 -1.71875 6.55078125 C-1.60466797 5.72231689 -1.49058594 4.89385254 -1.37304688 4.0402832 C-1 2 -1 2 0 0 Z " fill="#38150A" transform="translate(103,29)"/>
<path d="M0 0 C0.66 0.66 1.32 1.32 2 2 C0.19443043 6.06253154 -1.15729876 8.69437925 -5 11 C-5.94875 11.5775 -6.8975 12.155 -7.875 12.75 C-11.45795447 14.18318179 -13.3193462 13.96398076 -17 13 C-17 11.68 -17 10.36 -17 9 C-15.989375 9.268125 -14.97875 9.53625 -13.9375 9.8125 C-9.35317317 10.03080128 -7.96239933 9.24876755 -4.51171875 6.48046875 C-2.5312322 4.5409225 -1.20758833 2.48621127 0 0 Z " fill="#926144" transform="translate(91,61)"/>
<path d="M0 0 C1.53445094 3.06890187 0.54984289 5.70094266 0 9 C1.32 9 2.64 9 4 9 C4 6.69 4 4.38 4 2 C4.66 1.67 5.32 1.34 6 1 C5.67 3.64 5.34 6.28 5 9 C9.62 9 14.24 9 19 9 C19 9.33 19 9.66 19 10 C12.34362157 11.23839599 5.7528064 11.09139136 -1 11 C-1 10.34 -1 9.68 -1 9 C-2.65 8.67 -4.3 8.34 -6 8 C-5.34 7.67 -4.68 7.34 -4 7 C-3.34 7.33 -2.68 7.66 -2 8 C-1.855625 6.865625 -1.71125 5.73125 -1.5625 4.5625 C-1 1 -1 1 0 0 Z " fill="#3C2218" transform="translate(81,186)"/>
<path d="M0 0 C1.10698242 0.00193359 1.10698242 0.00193359 2.23632812 0.00390625 C6.70279266 0.07536968 10.36017205 0.71005232 14.5625 2.375 C14.2325 3.035 13.9025 3.695 13.5625 4.375 C13.06878906 4.21257812 12.57507813 4.05015625 12.06640625 3.8828125 C8.55033086 3.16972389 5.0710185 3.23071457 1.5 3.25 C0.78005859 3.24613281 0.06011719 3.24226562 -0.68164062 3.23828125 C-3.86458639 3.24419201 -6.39697862 3.36149287 -9.4375 4.375 C-9.7675 5.035 -10.0975 5.695 -10.4375 6.375 C-11.0975 6.375 -11.7575 6.375 -12.4375 6.375 C-12.7675 7.365 -13.0975 8.355 -13.4375 9.375 C-13.75 7.125 -13.75 7.125 -13.4375 4.375 C-9.27180287 -0.11741848 -5.74852012 -0.18978607 0 0 Z " fill="#BB8563" transform="translate(105.4375,145.625)"/>
<path d="M0 0 C-2.79020016 3.05593351 -4.78566395 3.93192119 -8.99609375 4.16796875 C-10.13175781 4.17441406 -11.26742187 4.18085937 -12.4375 4.1875 C-13.57058594 4.20167969 -14.70367187 4.21585937 -15.87109375 4.23046875 C-18.85457979 4.01071135 -20.49295423 3.55843386 -23 2 C-23 1.67 -23 1.34 -23 1 C-15.3164908 0.38794237 -7.70947565 -0.13292199 0 0 Z " fill="#B87C58" transform="translate(82,0)"/>
<path d="M0 0 C3 1 3 1 4.1875 3.0625 C4.455625 3.701875 4.72375 4.34125 5 5 C5.33 4.34 5.66 3.68 6 3 C6.6875 5.25 6.6875 5.25 7 8 C5.5625 10.3125 5.5625 10.3125 4 12 C3.01 11.67 2.02 11.34 1 11 C1 9.68 1 8.36 1 7 C0.67 7.66 0.34 8.32 0 9 C-0.66 9 -1.32 9 -2 9 C-2.6875 7.3125 -2.6875 7.3125 -3 5 C-1.5625 2.25 -1.5625 2.25 0 0 Z " fill="#8E5535" transform="translate(42,174)"/>
<path d="M0 0 C0.33 0 0.66 0 1 0 C1.1882307 8.70044116 0.60260099 17.32685006 0 26 C1.32 26.66 2.64 27.32 4 28 C1.69 28 -0.62 28 -3 28 C-3.210324 22.11092809 -2.79251741 16.45987793 -2.0625 10.625 C-1.97564941 9.92310547 -1.88879883 9.22121094 -1.79931641 8.49804688 C-1.4118178 5.5327156 -0.94831014 2.84493042 0 0 Z " fill="#280B05" transform="translate(98,66)"/>
<path d="M0 0 C0.33 0 0.66 0 1 0 C1.13277344 0.83144531 1.26554687 1.66289063 1.40234375 2.51953125 C1.57894531 3.60621094 1.75554688 4.69289063 1.9375 5.8125 C2.19853516 7.43091797 2.19853516 7.43091797 2.46484375 9.08203125 C2.93871921 12.04933356 2.93871921 12.04933356 4 15 C9.65020618 14.39891424 14.66164461 12.92471317 20 11 C20 11.66 20 12.32 20 13 C18.29870914 13.84761822 16.58856916 14.6774868 14.875 15.5 C13.92367187 15.9640625 12.97234375 16.428125 11.9921875 16.90625 C8.78803369 18.07748116 6.38282687 18.20076124 3 18 C-0.24201565 11.92122066 -0.33278764 6.81598387 0 0 Z " fill="#1E110F" transform="translate(56,0)"/>
<path d="M0 0 C4.875 0.875 4.875 0.875 6 2 C6.33 1.34 6.66 0.68 7 0 C9.97 0 12.94 0 16 0 C15.67 0.99 15.34 1.98 15 3 C14.34 3 13.68 3 13 3 C12.67 3.66 12.34 4.32 12 5 C11.01 5.33 10.02 5.66 9 6 C8.34 5.67 7.68 5.34 7 5 C6.67 5.99 6.34 6.98 6 8 C5.38125 7.195625 4.7625 6.39125 4.125 5.5625 C2.25835959 2.96125481 2.25835959 2.96125481 0 2 C0 1.34 0 0.68 0 0 Z " fill="#A36137" transform="translate(84,25)"/>
<path d="M0 0 C1 3 1 3 1 6 C1.66 6.33 2.32 6.66 3 7 C3.33 5.35 3.66 3.7 4 2 C4.33 2 4.66 2 5 2 C5 4.31 5 6.62 5 9 C6.65 9 8.3 9 10 9 C10 7.35 10 5.7 10 4 C10.33 4 10.66 4 11 4 C11 5.65 11 7.3 11 9 C12.65 9 14.3 9 16 9 C15.67 9.66 15.34 10.32 15 11 C6.92158097 11.78178249 2.57048426 9.60894094 -4 5 C-3.67 4.01 -3.34 3.02 -3 2 C-3 2.66 -3 3.32 -3 4 C-2.34 4 -1.68 4 -1 4 C-0.67 2.68 -0.34 1.36 0 0 Z " fill="#311E19" transform="translate(43,179)"/>
<path d="M0 0 C7.95398808 0.45406625 15.32797907 1.87111461 23 4 C23 4.33 23 4.66 23 5 C7.86350792 5.63166196 7.86350792 5.63166196 1 2 C0.67 1.34 0.34 0.68 0 0 Z " fill="#BC8362" transform="translate(79,20)"/>
<path d="M0 0 C4.94601796 4.94601796 4.10783749 13.96209627 4.13623047 20.56469727 C4.11990512 24.37737639 4.071106 28.18792857 4 32 C3.67 32 3.34 32 3 32 C2.855625 30.906875 2.71125 29.81375 2.5625 28.6875 C2.11711896 25.06877013 2.11711896 25.06877013 1 22 C0.64763503 20.00326516 0.31165441 18.00349261 0 16 C0.66 16 1.32 16 2 16 C1.855625 15.26394531 1.71125 14.52789062 1.5625 13.76953125 C1.376875 12.79371094 1.19125 11.81789062 1 10.8125 C0.814375 9.84957031 0.62875 8.88664063 0.4375 7.89453125 C0.03122388 5.2065794 -0.07933572 2.71228981 0 0 Z " fill="#AF7858" transform="translate(130,136)"/>
<path d="M0 0 C0.66 0.99 1.32 1.98 2 3 C1.34 3.66 0.68 4.32 0 5 C0.99 7.31 1.98 9.62 3 12 C0 11 0 11 -1.6875 7.9375 C-2.120625 6.968125 -2.55375 5.99875 -3 5 C-3.74765625 5.16757813 -4.4953125 5.33515625 -5.265625 5.5078125 C-6.25046875 5.71148437 -7.2353125 5.91515625 -8.25 6.125 C-9.22453125 6.33382812 -10.1990625 6.54265625 -11.203125 6.7578125 C-14.23442766 7.0202996 -15.48017346 6.61988849 -18 5 C-16.78441406 4.72285156 -15.56882812 4.44570312 -14.31640625 4.16015625 C-12.73172693 3.79446102 -11.14709388 3.42856525 -9.5625 3.0625 C-8.76005859 2.88009766 -7.95761719 2.69769531 -7.13085938 2.50976562 C-3.25047271 1.90338992 -3.25047271 1.90338992 0 0 Z " fill="#2A1009" transform="translate(116,87)"/>
<path d="M0 0 C2.64 0 5.28 0 8 0 C8 2.64 8 5.28 8 8 C3.44615385 8.36923077 3.44615385 8.36923077 1.1875 6.5 C0.795625 6.005 0.40375 5.51 0 5 C0.66 5 1.32 5 2 5 C1.34 3.35 0.68 1.7 0 0 Z " fill="#A36440" transform="translate(68,116)"/>
<path d="M0 0 C2.05078125 0.03255208 4.1015625 0.06510417 6.15234375 0.09765625 C6.48234375 1.08765625 6.81234375 2.07765625 7.15234375 3.09765625 C6.16234375 3.42765625 5.17234375 3.75765625 4.15234375 4.09765625 C3.82234375 5.08765625 3.49234375 6.07765625 3.15234375 7.09765625 C1.4862247 7.14037725 -0.1814851 7.13829457 -1.84765625 7.09765625 C-2.84765625 6.09765625 -2.84765625 6.09765625 -2.97265625 3.59765625 C-2.80017347 0.14800071 -2.80017347 0.14800071 0 0 Z " fill="#766355" transform="translate(63.84765625,31.90234375)"/>
<path d="M0 0 C2.36798831 2.87209787 3.64832592 5.36911918 4.6875 8.9375 C4.93886719 9.77152344 5.19023437 10.60554687 5.44921875 11.46484375 C6.0121497 14.05592311 6.09927943 16.35727613 6 19 C4.47700477 16.06279492 3.19899698 13.0831351 2 10 C1.34 10.66 0.68 11.32 0 12 C-0.66 8.7 -1.32 5.4 -2 2 C-1.34 2 -0.68 2 0 2 C0 1.34 0 0.68 0 0 Z " fill="#A97253" transform="translate(151,140)"/>
<path d="M0 0 C6.75052102 1.77910928 13.40620337 3.70438191 20 6 C19.67 7.65 19.34 9.3 19 11 C18.46890625 10.38640625 17.9378125 9.7728125 17.390625 9.140625 C14.60177978 6.64342373 12.31437344 5.83480931 8.75 4.75 C7.67234375 4.41484375 6.5946875 4.0796875 5.484375 3.734375 C4.66453125 3.49203125 3.8446875 3.2496875 3 3 C2.67 4.98 2.34 6.96 2 9 C1.67 9 1.34 9 1 9 C0.67 6.03 0.34 3.06 0 0 Z " fill="#291712" transform="translate(58,180)"/>
<path d="M0 0 C3.3 0 6.6 0 10 0 C10 1.98 10 3.96 10 6 C3.52443609 5.38909774 3.52443609 5.38909774 1.0625 3.5625 C0 2 0 2 0 0 Z " fill="#6E4D25" transform="translate(73,37)"/>
<path d="M0 0 C4.455 0.99 4.455 0.99 9 2 C8.34 3.65 7.68 5.3 7 7 C3.37 6.01 -0.26 5.02 -4 4 C-3.01 3.67 -2.02 3.34 -1 3 C-0.67 2.01 -0.34 1.02 0 0 Z " fill="#9F623E" transform="translate(70,179)"/>
<path d="M0 0 C2.79948531 2.67776856 3.93811033 4.00976527 4.1875 8 C4 11 4 11 2 13 C-0.625 12.625 -0.625 12.625 -3 12 C-2.34 11.38125 -1.68 10.7625 -1 10.125 C1.2284549 8.24362573 1.2284549 8.24362573 1 6 C0.67 6.66 0.34 7.32 0 8 C-0.66 7.67 -1.32 7.34 -2 7 C-1.34 4.69 -0.68 2.38 0 0 Z " fill="#9C6748" transform="translate(133,183)"/>
<path d="M0 0 C0.33 0.99 0.66 1.98 1 3 C0.67 3.33 0.34 3.66 0 4 C-0.21981925 11.03421594 2.2786441 16.19138913 6 22 C5.34 22.33 4.68 22.66 4 23 C-0.0682625 17.0406797 -3.7310391 11.47792083 -3 4 C-1.5625 1.4375 -1.5625 1.4375 0 0 Z " fill="#290D05" transform="translate(93,146)"/>
<path d="M0 0 C0 0.99 0 1.98 0 3 C-2.1171875 4.82421875 -2.1171875 4.82421875 -4.875 6.6875 C-6.23238281 7.62142578 -6.23238281 7.62142578 -7.6171875 8.57421875 C-10 10 -10 10 -12 10 C-12 8.68 -12 7.36 -12 6 C-8.04 4.02 -4.08 2.04 0 0 Z " fill="#894F2F" transform="translate(94,69)"/>
<path d="M0 0 C0.99 0.33 1.98 0.66 3 1 C3 3.97 3 6.94 3 10 C1.68 10.33 0.36 10.66 -1 11 C-2.125 8.6875 -2.125 8.6875 -3 6 C-2.34 5.01 -1.68 4.02 -1 3 C-0.67 2.01 -0.34 1.02 0 0 Z " fill="#A9A2A0" transform="translate(88,53)"/>
<path d="M0 0 C2.84767055 4.27150583 2.50971259 7.98413261 2 13 C1.21354982 15.83212985 0.19892564 18.3024173 -1 21 C-1.33 21 -1.66 21 -2 21 C-1.85796663 18.62471849 -1.71148388 16.24984749 -1.5625 13.875 C-1.52318359 13.20984375 -1.48386719 12.5446875 -1.44335938 11.859375 C-1.187848 7.84981183 -0.73217587 3.95005804 0 0 Z " fill="#C1805A" transform="translate(103,47)"/>
<path d="M0 0 C0.99 0 1.98 0 3 0 C3.33 0.66 3.66 1.32 4 2 C4.66 2 5.32 2 6 2 C6.33 1.34 6.66 0.68 7 0 C6.66411682 2.51912388 6.42645046 3.67196119 4.375 5.25 C1.05899813 6.29715848 -1.54323162 6.37036804 -5 6 C-7.4375 4 -7.4375 4 -9 2 C-4.545 2.99 -4.545 2.99 0 4 C0 2.68 0 1.36 0 0 Z " fill="#30140A" transform="translate(83,39)"/>
<path d="M0 0 C2.50172746 4.50310943 3.13061711 8.7543481 3.09765625 13.86328125 C3.09282227 15.19262695 3.09282227 15.19262695 3.08789062 16.54882812 C3.07951172 17.46083984 3.07113281 18.37285156 3.0625 19.3125 C3.05798828 20.24384766 3.05347656 21.17519531 3.04882812 22.13476562 C3.03709234 24.42324373 3.02067363 26.71158808 3 29 C2.67 29 2.34 29 2 29 C1.93941406 28.04738281 1.87882813 27.09476563 1.81640625 26.11328125 C1.73261719 24.85902344 1.64882812 23.60476562 1.5625 22.3125 C1.48128906 21.07113281 1.40007812 19.82976562 1.31640625 18.55078125 C1.07823514 15.13772781 1.07823514 15.13772781 0.46875 12.375 C-0.04810542 9.75626587 -0.09804917 7.35368759 -0.0625 4.6875 C-0.05347656 3.80449219 -0.04445312 2.92148438 -0.03515625 2.01171875 C-0.02355469 1.34785156 -0.01195312 0.68398437 0 0 Z " fill="#100807" transform="translate(133,139)"/>
<path d="M0 0 C3 2 3 2 3.68359375 3.796875 C4.04479998 6.31194061 4.09592646 8.70958935 4.0625 11.25 C4.05347656 12.14203125 4.04445313 13.0340625 4.03515625 13.953125 C4.02355469 14.62859375 4.01195313 15.3040625 4 16 C2 15 2 15 0.875 11.9375 C-0.19682285 7.90141709 -0.1459001 4.15815272 0 0 Z " fill="#BC815D" transform="translate(108,105)"/>
<path d="M0 0 C5.24099655 0.41105855 8.24039194 1.24039194 12 5 C12 5.66 12 6.32 12 7 C7.02125936 6.52583422 3.93281242 5.0900669 0 2 C0 1.34 0 0.68 0 0 Z " fill="#BB805D" transform="translate(81,103)"/>
<path d="M0 0 C0.33 0 0.66 0 1 0 C2.1805666 8.43261861 -2.06519021 14.85310059 -6 22 C-6.66 22 -7.32 22 -8 22 C-6.50960548 16.98685481 -4.37056143 12.38945344 -2.12109375 7.68359375 C-1.04422862 5.10587129 -0.44264213 2.75034939 0 0 Z " fill="#875035" transform="translate(82,81)"/>
<path d="M0 0 C0.66 0 1.32 0 2 0 C2.55808089 1.43120744 3.09596462 2.87030355 3.625 4.3125 C3.92664062 5.11300781 4.22828125 5.91351563 4.5390625 6.73828125 C4.69117188 7.48464844 4.84328125 8.23101562 5 9 C4.01 10.485 4.01 10.485 3 12 C3 11.34 3 10.68 3 10 C1.68 9.67 0.36 9.34 -1 9 C-1.125 2.25 -1.125 2.25 0 0 Z " fill="#986041" transform="translate(41,75)"/>
<path d="M0 0 C-1.38021664 4.69930905 -3.51834869 6.5047562 -7.5 9.25 C-8.4796875 9.93578125 -9.459375 10.6215625 -10.46875 11.328125 C-13 13 -13 13 -15 14 C-15 13.01 -15 12.02 -15 11 C-12.91796875 9.0625 -12.91796875 9.0625 -10.1875 7 C-6.59441268 4.29463461 -6.59441268 4.29463461 -3.30078125 1.25 C-2 0 -2 0 0 0 Z " fill="#140604" transform="translate(75,68)"/>
<path d="M0 0 C0.33 0 0.66 0 1 0 C1.33 2.64 1.66 5.28 2 8 C2.66 8 3.32 8 4 8 C4 6.35 4 4.7 4 3 C4.66 3 5.32 3 6 3 C5.67 8.28 5.34 13.56 5 19 C4.67 19 4.34 19 4 19 C4 16.69 4 14.38 4 12 C2.68 11.34 1.36 10.68 0 10 C0 6.7 0 3.4 0 0 Z " fill="#221A18" transform="translate(33,57)"/>
<path d="M0 0 C0.33 0.99 0.66 1.98 1 3 C0.67 3.33 0.34 3.66 0 4 C-0.23287008 5.68183948 -0.41264166 7.3712416 -0.5625 9.0625 C-0.68818359 10.44115234 -0.68818359 10.44115234 -0.81640625 11.84765625 C-0.87699219 12.55792969 -0.93757813 13.26820312 -1 14 C-0.34 14.33 0.32 14.66 1 15 C-0.65 15 -2.3 15 -4 15 C-4 12.69 -4 10.38 -4 8 C-4.66 8 -5.32 8 -6 8 C-4.768606 4.30581799 -2.79208646 2.64890254 0 0 Z " fill="#331D18" transform="translate(82,4)"/>
<path d="M0 0 C0.66 0.33 1.32 0.66 2 1 C0.66666667 5 -0.66666667 9 -2 13 C-3.32 12.67 -4.64 12.34 -6 12 C-5.36934243 8.78147169 -4.21979305 6.49198931 -2.4375 3.75 C-1.98246094 3.04359375 -1.52742188 2.3371875 -1.05859375 1.609375 C-0.53458984 0.81273437 -0.53458984 0.81273437 0 0 Z " fill="#9E7256" transform="translate(81,181)"/>
<path d="M0 0 C-0.2265625 1.88671875 -0.2265625 1.88671875 -1 4 C-2.9609375 5.08203125 -2.9609375 5.08203125 -5.375 5.8125 C-6.16648437 6.06644531 -6.95796875 6.32039063 -7.7734375 6.58203125 C-10 7 -10 7 -13 6 C-11.59138651 4.98868775 -10.17274547 3.99133233 -8.75 3 C-7.56664063 2.1646875 -7.56664063 2.1646875 -6.359375 1.3125 C-4 0 -4 0 0 0 Z " fill="#C0845E" transform="translate(115,84)"/>
<path d="M0 0 C0.61875 0.33 1.2375 0.66 1.875 1 C-1.125 3 -1.125 3 -3.3125 2.625 C-3.910625 2.41875 -4.50875 2.2125 -5.125 2 C-5.125 1.34 -5.125 0.68 -5.125 0 C-9.58 0.495 -9.58 0.495 -14.125 1 C-14.455 1.99 -14.785 2.98 -15.125 4 C-15.785 3.67 -16.445 3.34 -17.125 3 C-17.125 2.34 -17.125 1.68 -17.125 1 C-11.81635442 -2.08955816 -5.7477439 -1.83927805 0 0 Z " fill="#BA8769" transform="translate(60.125,173)"/>
<path d="M0 0 C5.28 0 10.56 0 16 0 C16 0.33 16 0.66 16 1 C9.565 1.495 9.565 1.495 3 2 C3.33 2.99 3.66 3.98 4 5 C2.68 5.99 1.36 6.98 0 8 C0 5.36 0 2.72 0 0 Z " fill="#714028" transform="translate(57,0)"/>
<path d="M0 0 C3.46941546 0.45822468 6.67395049 0.89131683 10 2 C9.85915204 3.79206547 9.71216299 5.58364917 9.5625 7.375 C9.48128906 8.37273437 9.40007812 9.37046875 9.31640625 10.3984375 C9 13 9 13 8 15 C7.34 14.67 6.68 14.34 6 14 C6.0721875 13.37351562 6.144375 12.74703125 6.21875 12.1015625 C6.3115625 11.28429687 6.404375 10.46703125 6.5 9.625 C6.5928125 8.81289062 6.685625 8.00078125 6.78125 7.1640625 C7.03352351 5.03087175 7.03352351 5.03087175 7 3 C5.02 3 3.04 3 1 3 C0.67 2.01 0.34 1.02 0 0 Z " fill="#1F0F0C" transform="translate(73,73)"/>
<path d="M0 0 C1.32 0.66 2.64 1.32 4 2 C3.625 4.4375 3.625 4.4375 3 7 C2.01 7.495 2.01 7.495 1 8 C1 7.34 1 6.68 1 6 C-0.65 6 -2.3 6 -4 6 C-3.67 4.68 -3.34 3.36 -3 2 C-2.67 2.66 -2.34 3.32 -2 4 C-1.34 4 -0.68 4 0 4 C-0.33 3.01 -0.66 2.02 -1 1 C-0.67 0.67 -0.34 0.34 0 0 Z " fill="#BF8865" transform="translate(57,71)"/>
<path d="M0 0 C0.66 0.66 1.32 1.32 2 2 C0.22141906 6.00180712 -1.15013949 8.76459712 -5 11 C-5.66 11 -6.32 11 -7 11 C-6.52648061 6.73832553 -3.99978097 4.84979192 -1 2 C-0.67 1.34 -0.34 0.68 0 0 Z " fill="#9D694B" transform="translate(91,61)"/>
<path d="M0 0 C0.66 0 1.32 0 2 0 C2 0.66 2 1.32 2 2 C2.66 2.33 3.32 2.66 4 3 C3.67 5.31 3.34 7.62 3 10 C2.01 9.34 1.02 8.68 0 8 C-0.40843923 5.28796348 -0.13336867 2.7562858 0 0 Z " fill="#66534E" transform="translate(34,57)"/>
<path d="M0 0 C0.66 0 1.32 0 2 0 C1.8125 2.3125 1.8125 2.3125 1 5 C-1.3125 6.9375 -1.3125 6.9375 -4 8 C-6.3125 7.1875 -6.3125 7.1875 -8 6 C-7.05125 5.566875 -6.1025 5.13375 -5.125 4.6875 C-1.79958063 3.20697799 -1.79958063 3.20697799 0 0 Z " fill="#7E492E" transform="translate(52,64)"/>
<path d="M0 0 C0.33 0.99 0.66 1.98 1 3 C-1.375 6.1875 -1.375 6.1875 -4 9 C-4.33 9 -4.66 9 -5 9 C-5 7.02 -5 5.04 -5 3 C-4.34 3 -3.68 3 -3 3 C-3 2.34 -3 1.68 -3 1 C-2.01 0.67 -1.02 0.34 0 0 Z " fill="#6C5853" transform="translate(50,59)"/>
<path d="M0 0 C0 1.65 0 3.3 0 5 C-1.65 5 -3.3 5 -5 5 C-3.68 4.67 -2.36 4.34 -1 4 C-2.18424326 2.58422523 -2.18424326 2.58422523 -5.5625 2.9375 C-7.2640625 2.9684375 -7.2640625 2.9684375 -9 3 C-6.38997624 -0.48003168 -4.1689578 -0.27793052 0 0 Z " fill="#B17654" transform="translate(76,109)"/>
<path d="M0 0 C1.32 0 2.64 0 4 0 C4 2.31 4 4.62 4 7 C2.68 7 1.36 7 0 7 C0 4.69 0 2.38 0 0 Z " fill="#9B684B" transform="translate(81,188)"/>
<path d="M0 0 C1.2065625 0.0309375 1.2065625 0.0309375 2.4375 0.0625 C2.4375 0.7225 2.4375 1.3825 2.4375 2.0625 C1.7775 2.0625 1.1175 2.0625 0.4375 2.0625 C0.4375 3.0525 0.4375 4.0425 0.4375 5.0625 C-0.5525 5.3925 -1.5425 5.7225 -2.5625 6.0625 C-3.2225 5.7325 -3.8825 5.4025 -4.5625 5.0625 C-3.43829114 0.08386076 -3.43829114 0.08386076 0 0 Z " fill="#A56137" transform="translate(85.5625,180.9375)"/>
<path d="M0 0 C0.33 0 0.66 0 1 0 C1.05386629 2.12472576 1.09273071 4.24983652 1.125 6.375 C1.14820312 7.55835938 1.17140625 8.74171875 1.1953125 9.9609375 C1 13 1 13 -1 15 C-1.99 14.34 -2.98 13.68 -4 13 C-4 12.34 -4 11.68 -4 11 C-3.01 10.34 -2.02 9.68 -1 9 C-0.42006301 6.80545319 -0.42006301 6.80545319 -0.3125 4.375 C-0.21388672 3.14910156 -0.21388672 3.14910156 -0.11328125 1.8984375 C-0.05720703 0.95871094 -0.05720703 0.95871094 0 0 Z " fill="#8B4B2C" transform="translate(119,131)"/>
<path d="M0 0 C3.03918463 4.55877695 4.29408315 9.5983209 3.625 15.0625 C3.41875 15.701875 3.2125 16.34125 3 17 C2.67 17 2.34 17 2 17 C0.7017874 11.23918159 -0.25706972 5.91260345 0 0 Z " fill="#2A1E1B" transform="translate(130,127)"/>
<path d="M0 0 C0.99 0 1.98 0 3 0 C3 2.97 3 5.94 3 9 C2.67 9 2.34 9 2 9 C1.67 7.35 1.34 5.7 1 4 C0.01 4.99 -0.98 5.98 -2 7 C-2.33 5.68 -2.66 4.36 -3 3 C-2.34 3 -1.68 3 -1 3 C-0.67 2.01 -0.34 1.02 0 0 Z " fill="#9F6645" transform="translate(82,0)"/>
<path d="M0 0 C2.97 0.99 5.94 1.98 9 3 C8.67 3.99 8.34 4.98 8 6 C6.35 6 4.7 6 3 6 C3 5.01 3 4.02 3 3 C1.68 2.34 0.36 1.68 -1 1 C-0.67 0.67 -0.34 0.34 0 0 Z " fill="#7E4D33" transform="translate(112,182)"/>
<path d="M0 0 C0.33 0 0.66 0 1 0 C1.08121924 1.60332791 1.13929134 3.20784026 1.1875 4.8125 C1.22230469 5.70582031 1.25710937 6.59914062 1.29296875 7.51953125 C1 10 1 10 -0.26171875 11.82421875 C-2 13 -2 13 -6 13 C-6 12.34 -6 11.68 -6 11 C-5.04867187 10.64808594 -5.04867187 10.64808594 -4.078125 10.2890625 C-1.81749261 9.17709092 -1.81749261 9.17709092 -1.171875 6.8359375 C-0.96304688 5.61777344 -0.96304688 5.61777344 -0.75 4.375 C-0.60046875 3.55773437 -0.4509375 2.74046875 -0.296875 1.8984375 C-0.19890625 1.27195313 -0.1009375 0.64546875 0 0 Z " fill="#260A04" transform="translate(116,130)"/>
<path d="M0 0 C0.86625 0.495 0.86625 0.495 1.75 1 C4.19883862 2.27075898 4.19883862 2.27075898 8 2 C8.33 2 8.66 2 9 2 C9 4.31 9 6.62 9 9 C7.87105124 8.06725891 6.74699124 7.12859878 5.625 6.1875 C4.99851562 5.66542969 4.37203125 5.14335938 3.7265625 4.60546875 C2 3 2 3 0 0 Z " fill="#9E694A" transform="translate(96,116)"/>
<path d="M0 0 C0.66 0.99 1.32 1.98 2 3 C-7.41002278 4.14806378 -7.41002278 4.14806378 -12 4 C-9.14521674 2.09681116 -7.58058692 1.5380901 -4.3125 0.875 C-3.50425781 0.70742187 -2.69601563 0.53984375 -1.86328125 0.3671875 C-1.24839844 0.24601562 -0.63351563 0.12484375 0 0 Z " fill="#814D33" transform="translate(113,91)"/>
<path d="M0 0 C0.66 0.99 1.32 1.98 2 3 C1.34 3.66 0.68 4.32 0 5 C0.99 7.31 1.98 9.62 3 12 C2.01 11.67 1.02 11.34 0 11 C-1.4477922 8.10441559 -2 6.25811062 -2 3 C-2.99 2.67 -3.98 2.34 -5 2 C-3.35 1.34 -1.7 0.68 0 0 Z " fill="#2F1D18" transform="translate(116,87)"/>
<path d="M0 0 C0.66 0 1.32 0 2 0 C2.042721 1.66611905 2.04063832 3.33382885 2 5 C1 6 1 6 -1.5625 6.0625 C-2.7690625 6.0315625 -2.7690625 6.0315625 -4 6 C-2.84826645 3.53199953 -1.95216435 1.95216435 0 0 Z " fill="#A76541" transform="translate(113,134)"/>
<path d="M0 0 C0.33 2.64 0.66 5.28 1 8 C-0.65 8 -2.3 8 -4 8 C-3.74438677 5.6568787 -3.40729228 3.32156597 -3 1 C-1 0 -1 0 0 0 Z " fill="#7F5037" transform="translate(77,125)"/>
<path d="M0 0 C2.64 0.33 5.28 0.66 8 1 C8 1.33 8 1.66 8 2 C6.8553125 2.1546875 6.8553125 2.1546875 5.6875 2.3125 C2.82940576 3.04364039 1.84257115 3.76951913 0 6 C-1.125 2.25 -1.125 2.25 0 0 Z " fill="#7C6760" transform="translate(42,58)"/>
<path d="M0 0 C-0.3125 1.875 -0.3125 1.875 -1 4 C-4 6 -4 6 -6.1875 5.625 C-6.785625 5.41875 -7.38375 5.2125 -8 5 C-2.25 0 -2.25 0 0 0 Z " fill="#C2845D" transform="translate(58,43)"/>
<path d="M0 0 C-0.53625 0.391875 -1.0725 0.78375 -1.625 1.1875 C-4.49208532 3.3755388 -7.23964568 5.67879296 -10 8 C-9.649375 7.21625 -9.29875 6.4325 -8.9375 5.625 C-8.628125 4.75875 -8.31875 3.8925 -8 3 C-8.33 2.34 -8.66 1.68 -9 1 C-6.04335481 -0.4783226 -3.25770263 -0.06032783 0 0 Z " fill="#1C0603" transform="translate(87,178)"/>
<path d="M0 0 C0.94875 0.04125 1.8975 0.0825 2.875 0.125 C2.875 0.785 2.875 1.445 2.875 2.125 C1.699375 2.2178125 1.699375 2.2178125 0.5 2.3125 C-0.36625 2.580625 -1.2325 2.84875 -2.125 3.125 C-3.49966625 5.60136012 -3.49966625 5.60136012 -4.125 8.125 C-4.455 8.125 -4.785 8.125 -5.125 8.125 C-5.25 5.25 -5.25 5.25 -5.125 2.125 C-3.125 0.125 -3.125 0.125 0 0 Z " fill="#A16848" transform="translate(81.125,98.875)"/>
<path d="M0 0 C0.33 1.32 0.66 2.64 1 4 C-2.11227195 4 -4.94152152 3.54372951 -8 3 C-8 2.34 -8 1.68 -8 1 C-5.29120665 -0.35439668 -2.99066732 -0.06501451 0 0 Z " fill="#240A04" transform="translate(92,50)"/>
<path d="M0 0 C2 3 2 3 2 7 C0.68 7 -0.64 7 -2 7 C-2 5.02 -2 3.04 -2 1 C-1.34 0.67 -0.68 0.34 0 0 Z " fill="#9A6447" transform="translate(57,181)"/>
<path d="M0 0 C1.98 0.99 1.98 0.99 4 2 C3.67 3.65 3.34 5.3 3 7 C2.01 7 1.02 7 0 7 C0 4.69 0 2.38 0 0 Z " fill="#A3633F" transform="translate(66,122)"/>
<path d="M0 0 C1.10844919 3.32534757 0.84454356 5.62182575 0 9 C-0.66 9 -1.32 9 -2 9 C-2.6875 7.3125 -2.6875 7.3125 -3 5 C-1.5625 2.25 -1.5625 2.25 0 0 Z " fill="#6E5142" transform="translate(42,174)"/>
<path d="M0 0 C0.33 0 0.66 0 1 0 C1 1.65 1 3.3 1 5 C-0.65 5.33 -2.3 5.66 -4 6 C-4 5.01 -4 4.02 -4 3 C-4.99 3 -5.98 3 -7 3 C-7 2.34 -7 1.68 -7 1 C-4.69 1.33 -2.38 1.66 0 2 C0 1.34 0 0.68 0 0 Z " fill="#51403A" transform="translate(90,36)"/>
<path d="M0 0 C2.97 0.495 2.97 0.495 6 1 C6 2.65 6 4.3 6 6 C1.125 3.375 1.125 3.375 0 0 Z " fill="#F4F3EE" transform="translate(73,37)"/>
<path d="M0 0 C2.02045442 0.60183749 4.02111039 1.27306096 6 2 C6.33 2.66 6.66 3.32 7 4 C5.824375 3.9690625 5.824375 3.9690625 4.625 3.9375 C2.01885039 3.81315937 2.01885039 3.81315937 0 5 C0 3.35 0 1.7 0 0 Z " fill="#B17A57" transform="translate(78,109)"/>
<path d="M0 0 C1.175625 0.5259375 1.175625 0.5259375 2.375 1.0625 C3.674375 1.5265625 3.674375 1.5265625 5 2 C5.66 1.67 6.32 1.34 7 1 C6.34 2.32 5.68 3.64 5 5 C2.525 4.01 2.525 4.01 0 3 C0 2.01 0 1.02 0 0 Z " fill="#AC7352" transform="translate(54,76)"/>
<path d="M0 0 C1.32 0.33 2.64 0.66 4 1 C3.67 3.31 3.34 5.62 3 8 C2.01 8 1.02 8 0 8 C0.66 5.69 1.32 3.38 2 1 C1.34 0.67 0.68 0.34 0 0 Z " fill="#120301" transform="translate(49,58)"/>
<path d="M0 0 C2.375 0.25 2.375 0.25 5 1 C6.375 2.875 6.375 2.875 7 5 C6.67 5.99 6.34 6.98 6 8 C5.38125 7.195625 4.7625 6.39125 4.125 5.5625 C2.25835959 2.96125481 2.25835959 2.96125481 0 2 C0 1.34 0 0.68 0 0 Z " fill="#240802" transform="translate(84,25)"/>
<path d="M0 0 C0.33 0 0.66 0 1 0 C1 2.97 1 5.94 1 9 C0.01 8.67 -0.98 8.34 -2 8 C-2.20086443 4.28400809 -2.1519437 3.22791555 0 0 Z " fill="#A26747" transform="translate(83,10)"/>
<path d="M0 0 C0.99 0 1.98 0 3 0 C2.67 1.98 2.34 3.96 2 6 C1.01 5.67 0.02 5.34 -1 5 C-0.67 3.35 -0.34 1.7 0 0 Z " fill="#9B6445" transform="translate(44,180)"/>
<path d="M0 0 C1.5625 1.8125 1.5625 1.8125 3 4 C2.67 4.99 2.34 5.98 2 7 C1.67 6.34 1.34 5.68 1 5 C0.34 5.99 -0.32 6.98 -1 8 C-1.33 6.02 -1.66 4.04 -2 2 C-1.34 2 -0.68 2 0 2 C0 1.34 0 0.68 0 0 Z " fill="#A16A4B" transform="translate(151,140)"/>
<path d="M0 0 C0.99 0.33 1.98 0.66 3 1 C0.03 3.475 0.03 3.475 -3 6 C-3 4.68 -3 3.36 -3 2 C-2.01 1.34 -1.02 0.68 0 0 Z " fill="#93603F" transform="translate(64,131)"/>
<path d="M0 0 C1.98 0.99 1.98 0.99 4 2 C4 2.66 4 3.32 4 4 C4.66 4 5.32 4 6 4 C5.67 5.32 5.34 6.64 5 8 C4.01 7.67 3.02 7.34 2 7 C2 5.68 2 4.36 2 3 C1.34 2.67 0.68 2.34 0 2 C0 1.34 0 0.68 0 0 Z " fill="#814E33" transform="translate(67,121)"/>
<path d="M0 0 C0.33 1.32 0.66 2.64 1 4 C-0.65 5.32 -2.3 6.64 -4 8 C-4.99 7.34 -5.98 6.68 -7 6 C-6.21625 5.566875 -5.4325 5.13375 -4.625 4.6875 C-1.78301625 3.10779753 -1.78301625 3.10779753 0 0 Z " fill="#2F1D19" transform="translate(59,80)"/>
<path d="M0 0 C0.99 0 1.98 0 3 0 C3.28875 0.78375 3.5775 1.5675 3.875 2.375 C4.84912254 5.09671632 4.84912254 5.09671632 7 7 C5.35 6.67 3.7 6.34 2 6 C1.34 4.02 0.68 2.04 0 0 Z " fill="#9A6547" transform="translate(48,79)"/>
<path d="M0 0 C0.66 0.33 1.32 0.66 2 1 C1.67 2.32 1.34 3.64 1 5 C-0.98 5 -2.96 5 -5 5 C-3.35 3.35 -1.7 1.7 0 0 Z " fill="#EAE9E4" transform="translate(80,65)"/>
<path d="M0 0 C0.99 0 1.98 0 3 0 C3.33 0.66 3.66 1.32 4 2 C4.66 2 5.32 2 6 2 C6.33 1.34 6.66 0.68 7 0 C6.67 1.32 6.34 2.64 6 4 C4.35 4 2.7 4 1 4 C0.67 2.68 0.34 1.36 0 0 Z " fill="#110504" transform="translate(83,39)"/>
<path d="M0 0 C0.33 0.99 0.66 1.98 1 3 C-1.63904371 4.41377341 -4.07120629 5.37240135 -7 6 C-2.25 1.125 -2.25 1.125 0 0 Z " fill="#603C29" transform="translate(60,37)"/>
<path d="M0 0 C1.98 0 3.96 0 6 0 C6.33 0.99 6.66 1.98 7 3 C4.36 2.67 1.72 2.34 -1 2 C-0.67 1.34 -0.34 0.68 0 0 Z " fill="#9F6A4E" transform="translate(64,32)"/>
<path d="M0 0 C0.93423645 3.01031744 1.04449911 3.86650268 0 7 C-0.99 7.33 -1.98 7.66 -3 8 C-3.66 7.34 -4.32 6.68 -5 6 C-4.54625 5.566875 -4.0925 5.13375 -3.625 4.6875 C-1.79975666 2.89201658 -1.79975666 2.89201658 0 0 Z " fill="#411E12" transform="translate(93,62)"/>
<path d="M0 0 C1.65 0.33 3.3 0.66 5 1 C3.68 1.33 2.36 1.66 1 2 C1 2.66 1 3.32 1 4 C1.66 4.33 2.32 4.66 3 5 C1.02 5 -0.96 5 -3 5 C-2.34 4.67 -1.68 4.34 -1 4 C-0.34786708 1.97536745 -0.34786708 1.97536745 0 0 Z " fill="#392118" transform="translate(67,27)"/>
<path d="M0 0 C1.98 0.66 3.96 1.32 6 2 C3 4 3 4 0.8125 3.625 C0.214375 3.41875 -0.38375 3.2125 -1 3 C-0.67 2.01 -0.34 1.02 0 0 Z " fill="#AD7755" transform="translate(56,172)"/>
<path d="M0 0 C0.66 0 1.32 0 2 0 C3.04115841 1.30144802 4.03886134 2.63838689 5 4 C5.66 4.66 6.32 5.32 7 6 C6.67 6.66 6.34 7.32 6 8 C5.34 8 4.68 8 4 8 C2.68 5.36 1.36 2.72 0 0 Z " fill="#9A6647" transform="translate(93,158)"/>
<path d="M0 0 C-1.39332574 3.36720387 -2.9789286 4.9859524 -6 7 C-5.37162381 3.35541809 -4.14650034 0 0 0 Z " fill="#342827" transform="translate(70,130)"/>
<path d="M0 0 C0.99 0.33 1.98 0.66 3 1 C3.33 1.99 3.66 2.98 4 4 C2.02 4.99 2.02 4.99 0 6 C-0.38218767 4.34385343 -0.71395102 2.67542976 -1 1 C-0.67 0.67 -0.34 0.34 0 0 Z " fill="#F5F4F3" transform="translate(83,62)"/>
</svg>
